<svg width="111" height="111" viewBox="0 0 111 111" fill="none" xmlns="http://www.w3.org/2000/svg">
<g clip-path="url(#clip0_5158_372361)">
<path d="M0.94751 0.886108H110.948V110.886H0.94751V0.886108Z" fill="#FF0000"/>
<path d="M44.9692 26.3451C43.895 26.3451 42.1333 26.6888 42.1763 27.5052C39.1685 27.0111 38.8677 28.2357 39.0396 29.3314C39.3403 28.9017 39.6841 28.6654 39.9419 28.6224C40.3501 28.558 40.7583 28.6869 41.188 28.9447C41.59 29.206 41.9519 29.5245 42.2622 29.89C41.231 30.1263 40.4145 29.976 39.5981 29.8256C39.1314 29.7307 38.6867 29.5484 38.2876 29.2885C37.9438 29.0521 37.8364 28.8373 37.2993 28.2787C36.6763 27.6342 36.0103 27.8275 36.2251 28.8158C36.6978 29.7396 37.5142 30.1693 38.5239 30.3197C38.9966 30.4056 39.7271 30.5775 40.5435 30.5775C41.3599 30.5775 42.2837 30.4701 42.7993 30.5775C42.4985 30.7494 42.1548 31.0931 41.4673 31.222C40.7798 31.351 39.7485 30.7924 39.104 30.6635C39.1899 31.2006 39.856 31.6947 41.188 31.9525C43.3794 32.4252 45.2056 32.8119 46.4087 33.4564C47.6118 34.101 48.3638 34.9174 48.9009 35.5619C49.9751 36.851 50.0395 37.8177 50.104 38.0326C50.3188 40.0736 49.6313 41.2123 48.2993 41.556C47.6548 41.7279 46.4731 41.4056 46.0435 40.9115C45.6138 40.3959 45.1841 39.5365 45.313 38.183C45.4204 37.6459 46.0435 36.2494 45.5278 35.9701C43.1415 34.665 40.6728 33.5168 38.1372 32.5326C37.5571 32.2963 37.063 33.0697 36.8911 33.392C35.2022 33.1533 33.5875 32.5417 32.1643 31.6015C30.7411 30.6614 29.5449 29.4162 28.6626 27.9564C27.6743 26.2162 26.063 27.9564 26.3208 29.6107C26.772 31.4584 28.1685 32.7904 29.8657 33.7357C31.5845 34.7025 33.7544 35.6263 35.9458 35.5834C37.1274 35.7982 37.1274 37.3451 35.7095 37.6244C32.9165 37.6244 30.7251 37.5814 28.6411 35.5619C27.0513 34.1224 26.1704 35.8412 26.6216 36.808C27.395 39.8158 31.6919 40.6752 36.0317 39.6869C37.7075 39.4076 36.6978 41.1908 36.2251 41.2338C34.4204 42.5228 31.1763 43.8119 28.3188 41.2123C27.0083 40.2025 26.1274 41.0619 26.6001 42.5013C27.8892 46.2611 32.7231 45.4662 36.0532 43.6185C36.9126 43.1459 37.686 44.2631 36.6333 45.101C32.5083 47.9799 30.4243 48.0228 28.5552 46.9056C26.2349 45.9818 26.02 48.5814 27.4165 49.4408C28.9634 50.3861 32.8735 49.6556 35.7739 47.851C36.9985 46.9486 37.063 48.3666 36.2681 48.9252C32.852 51.89 31.4985 52.6849 27.9321 52.1908C26.1704 52.0619 26.2134 54.2318 27.5884 55.0912C29.479 56.2513 33.1958 54.3178 36.0747 51.933C37.2778 51.2885 37.4927 52.3627 36.8911 53.6088C35.6205 55.4058 33.8921 56.8301 31.8853 57.7338C30.5477 58.2646 29.068 58.3177 27.6958 57.8842C26.3638 57.4115 26.1919 58.7865 26.9224 60.0326C27.3521 60.7845 29.1997 61.0424 31.1548 60.3334C33.1313 59.6459 35.2368 58.0131 36.6763 56.0795C37.9653 54.9838 37.7935 56.4662 37.2134 57.5189C34.313 62.0951 31.6489 63.7924 28.1685 63.5131C26.6001 63.2552 26.2563 64.4584 27.2446 65.5756C28.9634 67.015 31.1548 66.9506 33.0454 65.5326C35.3204 63.2644 37.5271 60.9287 39.6626 58.5287C40.8442 57.5834 41.231 58.5287 40.8872 60.4623C40.5649 61.558 39.77 62.7181 37.6001 63.5775C36.0962 64.4369 37.2134 65.597 38.3306 65.6185C38.9536 65.6185 40.1997 64.9095 41.1235 63.8353C42.3911 62.4388 42.4556 61.472 43.1645 59.3021C43.8091 58.2279 44.9692 58.722 44.9692 59.8392C44.4106 62.0306 43.938 62.4174 42.8208 63.3197C41.7251 64.3295 43.5513 64.6732 44.1743 64.265C45.9575 63.0619 46.6021 61.515 47.2036 60.097C47.6333 59.0658 48.8794 59.5599 48.2993 61.2357C46.9243 65.2103 44.647 66.7787 40.6724 67.5951C40.2642 67.6595 40.0278 67.8959 40.1567 68.3685L41.7681 69.9799C39.2974 70.6888 37.2993 71.097 34.8501 71.806L31.4556 69.5502C31.1333 68.8197 30.9829 67.681 29.2212 68.476C27.9966 67.9174 27.4595 68.1322 26.772 68.6908C27.7388 68.7123 28.1685 68.9701 28.5552 69.4213C29.0493 70.7103 30.188 70.8392 31.3481 70.4955C32.1001 71.1185 32.5083 71.6127 33.2817 72.2572L29.4575 72.1283C28.104 70.6888 27.0298 70.7748 26.063 71.9135C25.311 72.0209 24.9888 72.0209 24.4946 72.9232C25.2896 72.6009 25.7837 72.4935 26.1489 72.8588C27.5669 73.6967 28.5122 73.5033 29.2212 72.8588L33.2388 73.0951C32.7446 73.5248 32.0356 73.7611 31.52 74.2123C29.436 73.6107 28.3618 74.4271 27.9966 76.1029C27.6957 76.7763 27.5914 77.5212 27.6958 78.2513C27.9106 77.5638 28.2329 76.9838 28.8345 76.6185C30.6821 77.0912 31.3696 76.3392 31.4771 75.222C32.3794 74.4916 33.7329 74.3412 34.6138 73.5892C35.6665 73.933 36.1606 74.1478 37.2134 74.4701C37.5786 75.6088 38.438 76.0599 39.7915 75.7592C41.4458 75.8236 41.145 76.4896 41.2954 77.0267C41.7251 76.2533 41.7251 75.5228 40.6938 74.8138C40.3286 73.8256 39.5122 73.3744 38.4595 73.9545C37.4497 73.6752 37.1919 73.267 36.2036 72.9662C38.7173 72.1713 40.5005 71.9994 43.0356 71.183C43.6802 71.7845 44.1528 72.2142 44.7974 72.7299C45.1411 72.9447 45.4419 72.9877 45.6567 72.7299C47.2251 70.4525 47.9341 68.433 49.395 66.9291C49.9536 66.306 50.6841 65.4681 51.4575 65.2533C51.8442 65.1674 52.3169 65.2103 52.6392 65.5541C52.9399 65.8978 53.1978 66.4994 53.0688 67.4232C52.9399 68.7553 52.6392 69.1849 52.2524 69.9584C51.8872 70.7533 51.4145 71.2474 50.9634 71.849C50.0181 73.0736 48.7935 73.7826 48.063 74.2552C46.6021 75.2006 45.979 74.7924 44.8403 74.7279C43.4009 74.8998 43.0142 75.6088 44.1958 76.597C45.0925 77.0909 46.1304 77.2652 47.1392 77.0912C47.8481 76.9623 48.6431 76.0599 49.2446 75.5873C49.8892 74.8138 50.9849 75.7162 50.2544 76.597C48.9009 78.2084 47.5474 79.2611 45.8931 79.2396C44.1313 79.4545 44.4536 80.4642 45.6138 80.9369C47.7192 81.7963 49.6099 80.1849 50.5552 79.1107C51.3071 78.3158 51.8442 78.2728 51.6938 79.5404C50.9634 81.7963 49.9536 82.6771 48.3208 82.7845C46.9888 82.6771 46.9673 83.6869 47.9556 84.3959C50.1685 85.8998 51.7583 83.3217 52.5103 81.7318C53.0474 80.3138 53.8638 80.9799 53.9497 82.1615C53.9497 83.7299 53.2622 84.9974 51.3716 86.6088C52.811 88.9076 54.4868 91.2709 55.9478 93.5912L60.352 44.5638L55.9478 36.8295C55.4966 36.3998 53.9497 34.5736 53.5415 34.3158C53.3911 34.1654 53.3052 34.058 53.52 33.972C53.7349 33.8861 54.2075 33.8002 54.5513 33.7572C53.606 32.8119 52.8325 32.5111 51.0493 31.9955C51.479 31.8236 51.9087 31.931 53.1763 31.8666C52.3916 30.7998 51.3181 29.9797 50.0825 29.5033C51.0493 28.8588 51.2212 28.7943 52.188 27.9994C50.5337 27.8705 49.1157 27.5697 47.7192 27.14C46.852 26.7269 45.9231 26.4584 44.9692 26.3451V26.3451ZM45.1196 28.2787C45.979 28.2787 46.5376 28.5795 46.5376 28.9232C46.5376 29.2885 46.0005 29.5892 45.1196 29.5892C44.2603 29.5892 43.7017 29.267 43.7017 28.9017C43.7017 28.5365 44.2603 28.2572 45.1196 28.2572V28.2787Z" fill="black"/>
<path d="M66.9258 26.3451C68 26.3451 69.7617 26.6888 69.7188 27.5052C72.7266 27.0111 73.0273 28.2357 72.8555 29.3314C72.5547 28.9017 72.2109 28.6654 71.9531 28.6224C71.5449 28.558 71.1367 28.6869 70.707 28.9447C70.305 29.206 69.9431 29.5245 69.6328 29.89C70.6641 30.1263 71.4805 29.976 72.2969 29.8256C72.7637 29.7307 73.2083 29.5484 73.6074 29.2885C73.9512 29.0521 74.0586 28.8373 74.5957 28.2787C75.2188 27.6342 75.8848 27.8275 75.6699 28.8158C75.1973 29.7396 74.3809 30.1693 73.3711 30.3197C72.8984 30.4056 72.168 30.5775 71.3516 30.5775C70.5352 30.5775 69.6113 30.4701 69.0957 30.5775C69.3965 30.7494 69.7402 31.0931 70.4277 31.222C71.1152 31.351 72.1465 30.7924 72.791 30.6635C72.7051 31.2006 72.0391 31.6947 70.707 31.9525C68.5156 32.4252 66.6895 32.8119 65.4863 33.4564C64.2832 34.101 63.5313 34.9174 62.9941 35.5619C61.9199 36.851 61.8555 37.8177 61.791 38.0326C61.5762 40.0736 62.2637 41.2123 63.5957 41.556C64.2402 41.7279 65.4219 41.4056 65.8516 40.9115C66.2813 40.3959 66.7109 39.5365 66.582 38.183C66.4746 37.6459 65.8516 36.2494 66.3672 35.9701C68.7535 34.665 71.2223 33.5168 73.7578 32.5326C74.3379 32.2963 74.832 33.0697 75.0039 33.392C76.6928 33.1533 78.3075 32.5417 79.7307 31.6015C81.154 30.6614 82.3501 29.4162 83.2324 27.9564C84.2207 26.2162 85.832 27.9564 85.5742 29.6107C85.123 31.4584 83.7266 32.7904 82.0293 33.7357C80.3105 34.7025 78.1406 35.6263 75.9492 35.5834C74.7676 35.7982 74.7676 37.3451 76.1855 37.6244C78.9785 37.6244 81.1699 37.5814 83.2539 35.5619C84.8438 34.1224 85.7246 35.8412 85.2734 36.808C84.5 39.8158 80.2031 40.6752 75.8633 39.6869C74.1875 39.4076 75.1973 41.1908 75.6699 41.2338C77.4746 42.5228 80.7187 43.8119 83.5762 41.2123C84.8867 40.2025 85.7676 41.0619 85.2949 42.5013C84.0059 46.2611 79.1719 45.4662 75.8418 43.6185C74.9824 43.1459 74.209 44.2631 75.2617 45.101C79.3867 47.9799 81.4707 48.0228 83.3398 46.9056C85.6602 45.9818 85.875 48.5814 84.4785 49.4408C82.9316 50.3861 79.0215 49.6556 76.1211 47.851C74.8965 46.9486 74.832 48.3666 75.627 48.9252C79.043 51.89 80.3965 52.6849 83.9629 52.1908C85.7246 52.0619 85.6816 54.2318 84.3066 55.0912C82.416 56.2513 78.6992 54.3178 75.8203 51.933C74.6172 51.2885 74.4023 52.3627 75.0039 53.6088C76.2745 55.4058 78.0029 56.8301 80.0098 57.7338C81.3473 58.2646 82.827 58.3177 84.1992 57.8842C85.5312 57.4115 85.7031 58.7865 84.9727 60.0326C84.543 60.7845 82.6953 61.0424 80.7402 60.3334C78.7637 59.6459 76.6582 58.0131 75.2187 56.0795C73.9297 54.9838 74.1016 56.4662 74.6816 57.5189C77.582 62.0951 80.2461 63.7924 83.7266 63.5131C85.2949 63.2552 85.6387 64.4584 84.6504 65.5756C82.9316 67.015 80.7402 66.9506 78.8496 65.5326C76.5746 63.2644 74.3679 60.9287 72.2324 58.5287C71.0508 57.5834 70.6641 58.5287 71.0078 60.4623C71.3301 61.558 72.125 62.7181 74.2949 63.5775C75.7988 64.4369 74.6816 65.597 73.5645 65.6185C72.9414 65.6185 71.6953 64.9095 70.7715 63.8353C69.5039 62.4388 69.4395 61.472 68.7305 59.3021C68.0859 58.2279 66.9258 58.722 66.9258 59.8392C67.4844 62.0306 67.957 62.4174 69.0742 63.3197C70.1699 64.3295 68.3438 64.6732 67.7207 64.265C65.9375 63.0619 65.293 61.515 64.6914 60.097C64.2617 59.0658 63.0156 59.5599 63.5957 61.2357C64.9707 65.2103 67.248 66.7787 71.2227 67.5951C71.6309 67.6595 71.8672 67.8959 71.7383 68.3685L70.127 69.9799C72.5977 70.6888 74.5957 71.097 77.0449 71.806L80.4395 69.5502C80.7617 68.8197 80.9121 67.681 82.6738 68.476C83.8984 67.9174 84.4355 68.1322 85.123 68.6908C84.1563 68.7123 83.7266 68.9701 83.3398 69.4213C82.8457 70.7103 81.707 70.8392 80.5469 70.4955C79.7949 71.1185 79.3867 71.6127 78.6133 72.2572L82.4375 72.1283C83.791 70.6888 84.8652 70.7748 85.832 71.9135C86.584 72.0209 86.9063 72.0209 87.4004 72.9232C86.6055 72.6009 86.1113 72.4935 85.7461 72.8588C84.3281 73.6967 83.3828 73.5033 82.6738 72.8588L78.6562 73.0951C79.1504 73.5248 79.8594 73.7611 80.375 74.2123C82.459 73.6107 83.5332 74.4271 83.8984 76.1029C84.1993 76.7763 84.3036 77.5212 84.1992 78.2513C83.9844 77.5638 83.6621 76.9838 83.0605 76.6185C81.2129 77.0912 80.5254 76.3392 80.418 75.222C79.5156 74.4916 78.1621 74.3412 77.2813 73.5892C76.2285 73.933 75.7344 74.1478 74.6816 74.4701C74.3164 75.6088 73.457 76.0599 72.1035 75.7592C70.4492 75.8236 70.75 76.4896 70.5996 77.0267C70.1699 76.2533 70.1699 75.5228 71.2012 74.8138C71.5664 73.8256 72.3828 73.3744 73.4355 73.9545C74.4453 73.6752 74.7031 73.267 75.6914 72.9662C73.1777 72.1713 71.3945 71.9994 68.8594 71.183C68.2148 71.7845 67.7422 72.2142 67.0977 72.7299C66.7539 72.9447 66.4531 72.9877 66.2383 72.7299C64.6699 70.4525 63.9609 68.433 62.5 66.9291C61.9414 66.306 61.2109 65.4681 60.4375 65.2533C60.0508 65.1674 59.5781 65.2103 59.2559 65.5541C58.9551 65.8978 58.6973 66.4994 58.8262 67.4232C58.9551 68.7553 59.2559 69.1849 59.6426 69.9584C60.0078 70.7533 60.4805 71.2474 60.9316 71.849C61.877 73.0736 63.1016 73.7826 63.832 74.2552C65.293 75.2006 65.916 74.7924 67.0547 74.7279C68.4941 74.8998 68.8809 75.6088 67.6992 76.597C66.8026 77.0909 65.7646 77.2652 64.7559 77.0912C64.0469 76.9623 63.252 76.0599 62.6504 75.5873C62.0059 74.8138 60.9102 75.7162 61.6406 76.597C62.9941 78.2084 64.3477 79.2611 66.002 79.2396C67.7637 79.4545 67.4414 80.4642 66.2813 80.9369C64.1758 81.7963 62.2852 80.1849 61.3398 79.1107C60.5879 78.3158 60.0508 78.2728 60.2012 79.5404C60.9316 81.7963 61.9414 82.6771 63.5742 82.7845C64.9063 82.6771 64.9277 83.6869 63.9395 84.3959C61.7266 85.8998 60.1367 83.3217 59.3848 81.7318C58.8477 80.3138 58.0313 80.9799 57.9453 82.1615C57.9453 83.7299 58.6328 84.9974 60.5234 86.6088C59.084 88.9076 57.4082 91.2709 55.9473 93.5912L51.543 44.5638L55.9473 36.8295C56.3984 36.3998 57.9453 34.5736 58.3535 34.3158C58.5039 34.1654 58.5898 34.058 58.375 33.972C58.1602 33.8861 57.6875 33.8002 57.3438 33.7572C58.2891 32.8119 59.0625 32.5111 60.8457 31.9955C60.416 31.8236 59.9863 31.931 58.7188 31.8666C59.5034 30.7998 60.5769 29.9797 61.8125 29.5033C60.8457 28.8588 60.6738 28.7943 59.707 27.9994C61.3613 27.8705 62.7793 27.5697 64.1758 27.14C65.043 26.7269 65.9719 26.4584 66.9258 26.3451V26.3451ZM66.7754 28.2787C65.916 28.2787 65.3574 28.5795 65.3574 28.9232C65.3574 29.2885 65.8945 29.5892 66.7754 29.5892C67.6348 29.5892 68.1934 29.267 68.1934 28.9017C68.1934 28.5365 67.6348 28.2572 66.7754 28.2572V28.2787Z" fill="black"/>
</g>
<defs>
<clipPath id="clip0_5158_372361">
<rect x="0.94751" y="0.886108" width="110" height="110" rx="55" fill="white"/>
</clipPath>
</defs>
</svg>
