<svg width="111" height="111" viewBox="0 0 111 111" fill="none" xmlns="http://www.w3.org/2000/svg">
<g clip-path="url(#clip0_5158_372167)">
<path d="M0.990723 0.164551H110.991V110.165H0.990723V0.164551Z" fill="#3F9C35"/>
<path d="M0.990723 0.164551H110.991V73.4907H0.990723V0.164551Z" fill="#ED2939"/>
<path d="M0.990723 0.164551H110.991V36.8384H0.990723V0.164551Z" fill="#00B9E4"/>
<path d="M52.2944 71.6644C61.4071 71.6644 68.7944 64.2771 68.7944 55.1644C68.7944 46.0517 61.4071 38.6644 52.2944 38.6644C43.1817 38.6644 35.7944 46.0517 35.7944 55.1644C35.7944 64.2771 43.1817 71.6644 52.2944 71.6644Z" fill="white"/>
<path d="M55.9683 68.9144C63.5622 68.9144 69.7183 62.7583 69.7183 55.1644C69.7183 47.5705 63.5622 41.4144 55.9683 41.4144C48.3743 41.4144 42.2183 47.5705 42.2183 55.1644C42.2183 62.7583 48.3743 68.9144 55.9683 68.9144Z" fill="#ED2939"/>
<path d="M70.6426 45.9906L72.3828 50.932L77.1094 48.6761L74.875 53.4027L79.8164 55.1644L74.875 56.9262L77.1094 61.6527L72.3828 59.3969L70.6426 64.3383L68.8809 59.3969L64.1543 61.6527L66.4102 56.9262L61.4688 55.1644L66.4102 53.4027L64.1543 48.6761L68.8809 50.932L70.6426 45.9906Z" fill="white"/>
</g>
<defs>
<clipPath id="clip0_5158_372167">
<rect x="0.990234" y="0.164551" width="110" height="110" rx="55" fill="white"/>
</clipPath>
</defs>
</svg>
