<svg width="111" height="111" viewBox="0 0 111 111" fill="none" xmlns="http://www.w3.org/2000/svg">
<g clip-path="url(#clip0_5158_370926)">
<path fill-rule="evenodd" clip-rule="evenodd" d="M0.48584 0.997803H110.486V110.998H0.48584V0.997803Z" fill="#229E45"/>
<path fill-rule="evenodd" clip-rule="evenodd" d="M56.6455 88.0955L106.017 56.0408L56.3447 23.9001L6.78027 56.1267L56.624 88.0955H56.6455Z" fill="#F8E509"/>
<path fill-rule="evenodd" clip-rule="evenodd" d="M78.1521 55.9977C78.2389 58.7951 77.7625 61.5814 76.7513 64.191C75.7401 66.8007 74.2146 69.1804 72.2655 71.1888C70.3164 73.1973 67.9835 74.7935 65.4054 75.8825C62.8272 76.9716 60.0565 77.5313 57.2578 77.5284C54.4591 77.5256 51.6895 76.9601 49.1136 75.8658C46.5377 74.7714 44.2081 73.1704 42.2632 71.158C40.3182 69.1455 38.7977 66.7626 37.7918 64.1509C36.7859 61.5392 36.3153 58.7519 36.4079 55.9548C36.5873 50.5352 38.8678 45.3979 42.767 41.6295C46.6661 37.8611 51.8782 35.7572 57.3008 35.7628C62.7233 35.7684 67.9311 37.883 71.8225 41.6594C75.7139 45.4358 77.9838 50.5778 78.1521 55.9977Z" fill="#2B49A3"/>
<path fill-rule="evenodd" clip-rule="evenodd" d="M50.3945 68.5017L49.75 68.115L49.084 68.4587L49.2344 67.7068L48.7187 67.1697L49.4492 67.0837L49.793 66.3962L50.1152 67.1052L50.8457 67.2341L50.2871 67.7498M64.4023 72.0466L63.7578 71.6599L63.0703 72.0037L63.2207 71.2517L62.7051 70.7146L63.457 70.6287L63.8008 69.9412L64.1016 70.6501L64.832 70.779L64.2949 71.2947M58.3652 66.3748L57.8066 66.0525L57.2266 66.3318L57.3555 65.6873L56.9258 65.2146L57.5488 65.1501L57.8496 64.5701L58.1074 65.1716L58.752 65.2791L58.2793 65.7087M72.502 64.3337L71.9434 64.0115L71.3848 64.2908L71.5137 63.6677L71.084 63.2166L71.707 63.1306L71.9863 62.572L72.2656 63.1521L72.8887 63.2595L72.416 63.6892M58.1074 60.1013L57.4629 59.7146L56.7969 60.0583L56.9473 59.3064L56.4316 58.7693L57.1621 58.6833L57.5059 58.0173L57.8281 58.7048L58.5586 58.8337L58 59.3494M40.877 53.6345L40.2324 53.2478L39.5879 53.5916L39.7168 52.8396L39.2012 52.3025L39.9531 52.2166L40.2969 51.5291L40.5977 52.238L41.3281 52.3669L40.791 52.8826M42.9609 62.2283L42.3164 61.863L41.6504 62.1853L41.8008 61.4548L41.2852 60.8962L42.0156 60.8103L42.3594 60.1658L42.6816 60.8318L43.4121 60.9822L42.8535 61.4763M64.4668 50.4548L63.9082 50.1326L63.3066 50.4119L63.4355 49.7673L63.0059 49.2732L63.6504 49.2087L63.9512 48.6072L64.2305 49.2302L64.875 49.3376L64.3809 49.7888M63.3066 56.0623L62.791 55.783L62.3398 55.9978L62.4258 55.4822L62.082 55.1169L62.5977 55.0525L62.834 54.5798L63.0488 55.074L63.5645 55.1599L63.1777 55.5037M39.8887 63.7751L39.459 63.5173L39.0078 63.7322L39.0937 63.238L38.75 62.8728L39.2656 62.8298L39.4805 62.4001L39.6953 62.8298L40.1895 62.9373L39.8242 63.281M72.6094 65.7517L72.2441 65.5798L71.8789 65.7302L71.9648 65.365L71.6855 65.0857L72.0937 65.0427L72.2871 64.7205L72.4375 65.0642L72.8457 65.1287L72.5449 65.3865" fill="#FFFFEF"/>
<path fill-rule="evenodd" clip-rule="evenodd" d="M39.9106 63.7964L39.481 63.5386L39.0298 63.7534L39.1372 63.2593L38.772 62.894L39.2661 62.8511L39.5024 62.4214L39.7173 62.8511L40.2114 62.9585L39.8462 63.3022" fill="#FFFFEF"/>
<path fill-rule="evenodd" clip-rule="evenodd" d="M39.9106 63.7964L39.481 63.5386L39.0298 63.7534L39.1372 63.2593L38.772 62.894L39.2661 62.8511L39.5024 62.4214L39.7173 62.8511L40.2114 62.9585L39.8462 63.3022M46.7642 63.7964L46.3345 63.5386L45.9048 63.7534L45.9907 63.2593L45.647 62.894L46.1411 62.8511L46.356 62.3999L46.5708 62.8511L47.0649 62.9585L46.6997 63.3022M45.9048 66.0952L45.4751 65.8374L45.0454 66.0522L45.1313 65.5581L44.7876 65.1929L45.2817 65.1284L45.4966 64.6987L45.7114 65.1284L46.2056 65.2358L45.8403 65.5796M60.1704 61.9272L59.7407 61.6694L59.2896 61.8843L59.3755 61.3901L59.0317 61.0249L59.5259 60.9819L59.7622 60.5308L59.977 60.9819L60.4497 61.0679L60.0845 61.4116M55.981 61.9272L55.5513 61.6694L55.1001 61.8843L55.2075 61.3901L54.8638 61.0249L55.3579 60.9819L55.5728 60.5308L55.7876 60.9819L56.2817 61.0679L55.9165 61.4116M44.6372 60.4663L44.3794 60.3159L44.1001 60.4448L44.1431 60.1226L43.9282 59.9077L44.2505 59.8647L44.4009 59.5855L44.5083 59.8862L44.8306 59.9292L44.6157 60.144M72.0728 67.5991L71.6431 67.3628L71.1919 67.5776L71.2993 67.0835L70.9556 66.7183L71.4497 66.6538L71.6645 66.2241L71.8794 66.6538L72.3735 66.7612L72.0083 67.105M68.5708 68.0503L68.227 67.8355L67.8618 68.0503L67.9478 67.6206L67.647 67.3198L68.0767 67.2769L68.2485 66.9116L68.4204 67.2769L68.8501 67.3628L68.5278 67.6421M70.2466 68.0288L69.9028 67.814L69.5591 68.0073L69.6235 67.6206L69.3657 67.3413L69.7524 67.2983L69.9243 66.9546L70.0747 67.2983L70.4614 67.3628L70.1821 67.6421M74.9517 63.9038L74.6294 63.7104L74.2856 63.8823L74.3716 63.5171L74.1138 63.2378L74.479 63.1948L74.6509 62.8726L74.8013 63.2163L75.1665 63.2808L74.8872 63.5386M68.5923 70.3706L68.1626 70.1343L67.7329 70.3491L67.8403 69.8765L67.4966 69.5542L67.9692 69.4897L68.2056 69.0815L68.4204 69.5112L68.8716 69.5972L68.5278 69.898M68.6138 72.2397L68.227 72.0249L67.8403 72.2183L67.9263 71.7456L67.6255 71.4233L68.0552 71.3589L68.27 70.9507L68.4419 71.3804L68.8716 71.4663L68.5493 71.7671M65.4341 68.0288L65.1118 67.8355L64.7681 68.0073L64.854 67.6206L64.5962 67.3628L64.9614 67.3198L65.1333 66.9761L65.2837 67.3198L65.6489 67.3843L65.3696 67.6421M62.4692 68.0288L62.147 67.8355L61.8032 68.0073L61.8892 67.6206L61.6313 67.3628L61.9966 67.3198L62.1685 66.9761L62.3188 67.3198L62.6841 67.3843L62.4263 67.6421M57.4204 63.603L57.0981 63.4097L56.7544 63.5815L56.8403 63.2163L56.5825 62.937L56.9478 62.894L57.1196 62.5718L57.27 62.9155L57.6353 62.98L57.356 63.2163M57.979 72.562L57.6997 72.4116L57.4204 72.562L57.4849 72.2397L57.27 72.0249L57.5708 71.9604L57.7212 71.6812L57.8501 71.9819L58.1724 72.0249L57.936 72.2397M50.3735 58.0601L49.729 57.6948L49.063 58.0171L49.2134 57.2866L48.6978 56.728L49.4282 56.6421L49.772 55.9761L50.0942 56.6636L50.8247 56.7925L50.2661 57.3081" fill="#FFFFEF"/>
<path fill-rule="evenodd" clip-rule="evenodd" d="M76.7769 63.5173C77.1811 62.4639 77.4973 61.3788 77.7222 60.2732C66.6362 50.5193 54.2612 45.5134 38.6206 46.5447C38.0603 47.6396 37.6001 48.7829 37.2456 49.9607C44.4209 49.236 51.668 50.0703 58.491 52.4065C65.3139 54.7426 71.5515 58.5253 76.7769 63.4958V63.5173Z" fill="white"/>
<path d="M71.793 58.0173L72.1797 58.2322C72.1195 58.3518 72.1042 58.489 72.1367 58.6189C72.1582 58.7048 72.2441 58.8123 72.3516 58.8767C72.4805 58.9626 72.5879 59.0056 72.6953 59.0056C72.7813 59.0056 72.8672 58.9412 72.9102 58.8767C72.9316 58.8337 72.9531 58.7908 72.9316 58.7263L72.8672 58.5544L72.6094 58.2752C72.4724 58.1358 72.3694 57.9667 72.3086 57.781C72.271 57.6412 72.2851 57.4926 72.3482 57.3624C72.4114 57.2322 72.5193 57.1291 72.6523 57.072C72.767 57.0213 72.8943 57.0063 73.0176 57.0291C73.1727 57.0628 73.3191 57.1287 73.4473 57.2224C73.6335 57.3533 73.7818 57.5312 73.877 57.738C73.903 57.8332 73.9068 57.933 73.8882 58.0298C73.8696 58.1267 73.829 58.218 73.7695 58.2966L73.3828 58.0603C73.4258 57.9529 73.4473 57.8455 73.4258 57.7595C73.4043 57.6951 73.3184 57.6091 73.2109 57.5447C73.1035 57.4587 72.9961 57.4373 72.9102 57.4373C72.8853 57.438 72.8609 57.4442 72.8386 57.4553C72.8164 57.4665 72.7968 57.4823 72.7813 57.5017C72.7664 57.5235 72.7567 57.5483 72.753 57.5744C72.7493 57.6005 72.7516 57.6271 72.7598 57.6521C72.7598 57.738 72.8672 57.8669 73.0176 58.0173L73.3398 58.447C73.3984 58.5539 73.4255 58.6753 73.4179 58.797C73.4103 58.9187 73.3683 59.0357 73.2969 59.1345C73.2219 59.241 73.1173 59.3232 72.9961 59.3709C72.8683 59.4293 72.725 59.4444 72.5879 59.4138C72.4249 59.3723 72.2717 59.2993 72.1367 59.199C71.9338 59.0772 71.7813 58.8866 71.707 58.6619C71.6426 58.4685 71.6641 58.2537 71.793 58.0173V58.0173ZM69.9023 56.7927L70.332 57.0076C70.2816 57.1147 70.2666 57.2351 70.2891 57.3513C70.3105 57.4587 70.3965 57.5662 70.5039 57.6306C70.6328 57.7166 70.7402 57.738 70.8477 57.7166C70.9336 57.7166 71.0195 57.6736 71.0625 57.5876C71.0829 57.548 71.0904 57.5029 71.084 57.4587C71.084 57.3943 71.0625 57.3513 70.9981 57.2869L70.7402 57.0076C70.5988 56.8761 70.4886 56.7146 70.418 56.5349C70.3895 56.4496 70.3805 56.359 70.3917 56.2698C70.4028 56.1805 70.4338 56.095 70.4824 56.0193C70.5462 55.9247 70.6357 55.8502 70.7402 55.8044C70.8552 55.755 70.9821 55.74 71.1055 55.7615C71.2344 55.7615 71.3633 55.8259 71.5352 55.9334C71.75 56.0837 71.9219 56.2341 71.9648 56.4275C71.997 56.5194 72.0079 56.6174 71.9967 56.7142C71.9856 56.8109 71.9526 56.9039 71.9004 56.9861L71.4922 56.7498C71.5566 56.6423 71.5566 56.5349 71.5352 56.4705C71.4922 56.3845 71.4277 56.3201 71.3203 56.2556C71.2281 56.1844 71.1145 56.1466 70.9981 56.1482C70.9713 56.1514 70.9458 56.1609 70.9234 56.1758C70.901 56.1907 70.8824 56.2107 70.8691 56.2341C70.8577 56.2576 70.8518 56.2833 70.8518 56.3093C70.8518 56.3354 70.8577 56.3611 70.8691 56.3845C70.8691 56.449 70.9766 56.5779 71.127 56.7498C71.2988 56.9001 71.4063 57.0505 71.4707 57.1365C71.5369 57.2438 71.5701 57.3682 71.5663 57.4942C71.5624 57.6202 71.5217 57.7423 71.4492 57.8455C71.3761 57.9568 71.2722 58.0445 71.1501 58.0979C71.0281 58.1513 70.8931 58.1681 70.7617 58.1462C70.593 58.1134 70.4324 58.0477 70.2891 57.9529C70.0832 57.8388 69.9236 57.6565 69.8379 57.4373C69.7767 57.222 69.7998 56.9916 69.9023 56.7927ZM67.582 56.1482L68.7852 54.2146L70.2246 55.074L70.0098 55.4177L68.9785 54.7732L68.6992 55.2029L69.6875 55.8044L69.4727 56.1482L68.5059 55.5466L68.1836 56.0837L69.2578 56.7283L69.0645 57.072L67.582 56.1697V56.1482ZM64.1875 53.3767L64.3809 53.033L65.2402 53.5056L64.832 54.3005C64.4837 54.3778 64.1194 54.3322 63.8008 54.1716C63.6086 54.0719 63.4457 53.9238 63.3281 53.7419C63.2146 53.5779 63.1545 53.3828 63.1563 53.1834C63.1563 52.9685 63.2207 52.7751 63.3281 52.5818C63.4272 52.3834 63.5751 52.2133 63.7578 52.0876C63.9082 51.9587 64.1231 51.8943 64.3379 51.8943C64.4883 51.8943 64.6816 51.9587 64.875 52.0447C65.0868 52.1442 65.2603 52.3102 65.3691 52.5173C65.4551 52.6892 65.4766 52.8826 65.4336 53.0974L64.9824 52.9685C65.0067 52.8594 64.9914 52.7452 64.9395 52.6462C64.8823 52.5409 64.7915 52.4577 64.6816 52.4099C64.6054 52.3627 64.5199 52.3325 64.4309 52.3214C64.3419 52.3102 64.2515 52.3185 64.166 52.3455C64.0156 52.4099 63.8652 52.5603 63.7363 52.7751C63.6316 52.9727 63.5939 53.1989 63.6289 53.4197C63.6719 53.5916 63.7793 53.7205 63.9727 53.8064L64.252 53.8923H64.5313L64.6602 53.6345L64.1875 53.3767V53.3767ZM49.4062 49.7244L49.75 47.447L50.4375 47.5544L50.6094 49.1658L51.2539 47.6619L51.9199 47.7693L51.5977 50.0466L51.168 49.9822L51.4258 48.199L50.7168 49.9177L50.2871 49.8533L50.0937 47.9841L49.8359 49.7888L49.4062 49.7244V49.7244ZM47.1074 49.4451L47.3223 47.1677L48.998 47.3181L48.9766 47.7048L47.7305 47.5974L47.6875 48.0916L48.8262 48.199L48.8047 48.5857L47.666 48.4783L47.6016 49.1228L48.8691 49.2302L48.8262 49.6169L47.1074 49.4451V49.4451Z" fill="#309E3A"/>
<path d="M39.4579 48.0056C39.4579 47.7908 39.5009 47.576 39.5653 47.4256L39.7802 47.1248L40.1024 46.9099C40.2611 46.8554 40.4292 46.8335 40.5966 46.8455C40.7457 46.8445 40.8934 46.8745 41.0302 46.9337C41.1671 46.9929 41.2901 47.0799 41.3915 47.1892C41.6063 47.4041 41.6708 47.6834 41.6708 48.0486C41.6708 48.4353 41.5419 48.7146 41.3485 48.908C41.241 49.0123 41.1127 49.0929 40.9721 49.1447C40.8315 49.1965 40.6817 49.2183 40.5321 49.2088C40.3846 49.2125 40.2379 49.1859 40.1011 49.1304C39.9643 49.075 39.8405 48.9919 39.7372 48.8865C39.631 48.7721 39.551 48.636 39.5028 48.4876C39.4546 48.3392 39.4392 48.1821 39.4579 48.0271V48.0056Z" fill="#309E3A"/>
<path d="M39.9307 48.0059C39.9307 48.2637 39.9736 48.4785 40.1025 48.6074C40.21 48.7578 40.3604 48.8223 40.5322 48.8223C40.62 48.8239 40.7072 48.8076 40.7885 48.7744C40.8698 48.7411 40.9434 48.6916 41.0049 48.6289C41.1123 48.5 41.1768 48.3066 41.1982 48.0488C41.1982 47.7695 41.1553 47.5762 41.0264 47.4473C40.9742 47.3828 40.9089 47.3303 40.8348 47.2933C40.7607 47.2562 40.6795 47.2355 40.5967 47.2324C40.3818 47.2324 40.2314 47.2969 40.124 47.4258C39.9951 47.5547 39.9307 47.748 39.9092 48.0059H39.9307Z" fill="#F7FFFF"/>
<path d="M42.1655 49.2087L42.187 46.9099H43.1538C43.4116 46.9099 43.5835 46.9529 43.6909 46.9959C43.7983 47.0388 43.9058 47.1033 43.9487 47.2107C43.9917 47.3181 44.0562 47.4255 44.0562 47.5759C44.0562 47.7478 43.9917 47.8767 43.9058 48.0056C43.7983 48.113 43.6479 48.1775 43.4331 48.2205C43.5405 48.2634 43.6265 48.3279 43.6909 48.3923L43.9487 48.7791L44.228 49.2087H43.6694L43.3472 48.7146C43.2685 48.5948 43.1824 48.4799 43.0894 48.3709C43.0535 48.3328 43.0094 48.3034 42.9604 48.2849C42.8913 48.2602 42.8189 48.2457 42.7456 48.2419H42.6382V49.2087H42.1655V49.2087Z" fill="#309E3A"/>
<path d="M42.6377 47.8773H42.9818C43.1246 47.895 43.2691 47.895 43.4119 47.8773L43.5195 47.7697C43.5625 47.7267 43.584 47.6622 43.584 47.5977C43.584 47.5117 43.5625 47.4472 43.5195 47.4041C43.4741 47.356 43.4131 47.3255 43.3474 47.3181H42.6592V47.8773H42.6377Z" fill="white"/>
<path d="M44.7871 47.0173L45.625 47.0603C45.7705 47.0625 45.915 47.0842 46.0547 47.1248C46.1771 47.1709 46.2873 47.2444 46.377 47.3396C46.4773 47.4585 46.5506 47.5978 46.5918 47.7478C46.6348 47.8982 46.6348 48.0701 46.6348 48.2849C46.6412 48.4494 46.6118 48.6133 46.5488 48.7654C46.4857 48.9175 46.3905 49.0541 46.2695 49.1658C46.1836 49.2302 46.0762 49.2947 45.9473 49.3376H45.5176L44.6582 49.3162L44.7871 47.0173V47.0173Z" fill="#309E3A"/>
<path d="M45.2168 47.4255L45.1523 48.9294L45.4961 48.9724H45.7754L45.9688 48.865C46.0332 48.822 46.0547 48.7576 46.0977 48.6501L46.1621 48.2205L46.1406 47.8337C46.0977 47.7263 46.0762 47.6619 46.0117 47.6189C45.9545 47.5555 45.8797 47.5107 45.7969 47.49C45.6767 47.4648 45.5544 47.4504 45.4316 47.447H45.2168V47.4255Z" fill="white"/>
<path d="M56.0229 51.1209L56.5601 48.8865L57.269 49.0584C57.5483 49.1228 57.7202 49.1873 57.8061 49.2302C57.9136 49.2947 58.021 49.3806 58.064 49.5095C58.1284 49.6599 58.1284 49.8103 58.0855 49.9822C58.0664 50.093 58.0187 50.1969 57.9471 50.2836C57.8755 50.3703 57.7825 50.4367 57.6772 50.4763C57.6033 50.5127 57.5231 50.5346 57.4409 50.5408C57.281 50.5269 57.1228 50.4981 56.9683 50.4548L56.6675 50.3904L56.4526 51.2283L56.0229 51.1209V51.1209Z" fill="#309E3A"/>
<path d="M56.9045 49.3806L56.7539 50.0258L57.012 50.0688C57.184 50.1118 57.3131 50.1333 57.3776 50.1118C57.4371 50.1057 57.4934 50.0819 57.5394 50.0436C57.5854 50.0053 57.6189 49.9542 57.6357 49.8968L57.6142 49.6602C57.5771 49.5907 57.5159 49.5372 57.4421 49.5097L57.1195 49.4236L56.9045 49.3806V49.3806Z" fill="white"/>
<path d="M58.1499 51.7654L58.9019 49.5955L59.8257 49.9177C59.9932 49.965 60.1526 50.0374 60.2983 50.1326C60.3843 50.2185 60.4487 50.3259 60.4917 50.4548C60.5347 50.5837 60.4917 50.6912 60.4487 50.8201C60.4058 50.9919 60.2983 51.0994 60.1694 51.1638C60.0955 51.2068 60.0137 51.2347 59.9288 51.2457C59.844 51.2568 59.7578 51.2509 59.6753 51.2283L59.8472 51.4861L59.9761 51.9158L60.0835 52.4314L59.5679 52.2595L59.4175 51.6794C59.3839 51.5406 59.3409 51.4042 59.2886 51.2712C59.2701 51.2223 59.2407 51.1782 59.2026 51.1423C59.1374 51.0949 59.0648 51.0586 58.9878 51.0349L58.9019 51.0134L58.5796 51.9158L58.1499 51.7654V51.7654Z" fill="#309E3A"/>
<path d="M59.0093 50.6697L59.3315 50.7771L59.7397 50.8845C59.8042 50.8845 59.8472 50.8845 59.8901 50.8416L59.9976 50.6912V50.4763C59.9702 50.4201 59.9248 50.3748 59.8687 50.3474L59.5464 50.24L59.2026 50.1111L59.0093 50.6697V50.6697Z" fill="white"/>
<path d="M60.8316 51.6793C60.8862 51.4827 60.9813 51.2998 61.1109 51.1422C61.1753 51.0348 61.2828 50.9703 61.3902 50.9059C61.4964 50.8473 61.6133 50.8108 61.7339 50.7985C61.8843 50.7985 62.0562 50.7985 62.2281 50.8629C62.3739 50.8994 62.5104 50.966 62.6288 51.0585C62.7472 51.1511 62.8449 51.2674 62.9156 51.4C63.0445 51.6578 63.066 51.9801 62.9371 52.3239C62.9015 52.4784 62.8358 52.6244 62.7436 52.7535C62.6514 52.8825 62.5346 52.992 62.3999 53.0758C62.2674 53.1418 62.1226 53.1797 61.9747 53.1871C61.8269 53.1945 61.679 53.1712 61.5406 53.1188C61.3948 53.0823 61.2583 53.0157 61.1398 52.9232C61.0214 52.8306 60.9237 52.7143 60.8531 52.5817C60.7268 52.2956 60.7191 51.9711 60.8316 51.6793V51.6793Z" fill="#309E3A"/>
<path d="M61.2812 51.8083C61.2168 52.0446 61.2168 52.238 61.2812 52.4099C61.3672 52.5818 61.4961 52.6892 61.668 52.7536C61.8398 52.7966 61.9902 52.7751 62.1406 52.6892C62.291 52.6032 62.4199 52.4314 62.5059 52.1736C62.5703 51.9157 62.5703 51.7224 62.5059 51.5505C62.4698 51.4712 62.4162 51.401 62.3493 51.3452C62.2823 51.2894 62.2037 51.2495 62.1191 51.2282C62.0372 51.2016 61.9503 51.1936 61.8648 51.2047C61.7793 51.2159 61.6974 51.2459 61.625 51.2927C61.4746 51.3786 61.3672 51.5505 61.2812 51.8083V51.8083Z" fill="white"/>
<path d="M65.3042 54.8806L66.3569 52.8396L67.2163 53.2693C67.4312 53.3982 67.5815 53.4841 67.646 53.5701C67.7319 53.6775 67.7749 53.7849 67.7964 53.8923C67.8179 53.9998 67.7964 54.1501 67.7104 54.2576C67.646 54.408 67.5386 54.5154 67.3882 54.5798C67.2378 54.6228 67.0874 54.6228 66.894 54.5583C66.9585 54.6443 67.0015 54.7517 67.0229 54.8376L67.0874 55.2888L67.1304 55.8259L66.6362 55.5681L66.5718 54.9666L66.5073 54.5369C66.4889 54.4879 66.4595 54.4438 66.4214 54.408C66.364 54.3552 66.2988 54.3117 66.228 54.2791L66.1421 54.2361L65.7124 55.0955L65.3042 54.8806V54.8806Z" fill="#309E3A"/>
<path d="M66.314 53.9138L66.6147 54.0642L67.0015 54.2361C67.0659 54.2361 67.1089 54.2361 67.1519 54.1931C67.2097 54.1631 67.2572 54.1162 67.2879 54.0587C67.3185 54.0011 67.3311 53.9357 67.3237 53.8709C67.3006 53.8067 67.2547 53.7532 67.1948 53.7205C67.1038 53.6598 67.0107 53.6025 66.9155 53.5486L66.5933 53.3982L66.314 53.9138V53.9138Z" fill="white"/>
<path d="M73.7914 59.07C73.9203 58.8551 74.0492 58.7262 74.2211 58.6403C74.326 58.5704 74.4423 58.5195 74.5649 58.4899C74.6784 58.4679 74.7951 58.4679 74.9086 58.4899C75.059 58.5114 75.2309 58.5758 75.3813 58.7048C75.5082 58.7823 75.6177 58.8853 75.7028 59.0074C75.7878 59.1294 75.8466 59.2678 75.8754 59.4137C75.9066 59.7263 75.8226 60.0396 75.6391 60.2946C75.5575 60.4333 75.4489 60.5541 75.3197 60.6501C75.1905 60.746 75.0434 60.8151 74.8871 60.8532C74.7417 60.8804 74.5922 60.8773 74.448 60.844C74.3038 60.8107 74.168 60.748 74.0492 60.6598C73.9223 60.5823 73.8128 60.4793 73.7277 60.3572C73.6427 60.2352 73.5839 60.0968 73.5551 59.9508C73.5311 59.7971 73.5378 59.6402 73.5747 59.489C73.6115 59.3378 73.6779 59.1954 73.7699 59.07H73.7914Z" fill="#309E3A"/>
<path d="M74.1789 59.3066C74.05 59.5214 73.9855 59.7363 74.007 59.9081C74.0217 59.9951 74.0541 60.078 74.1021 60.1519C74.1501 60.2258 74.2128 60.2891 74.2863 60.3378C74.3544 60.3851 74.4318 60.4172 74.5133 60.432C74.5948 60.4469 74.6786 60.444 74.759 60.4238C74.9308 60.3808 75.1027 60.2519 75.2531 60.0156C75.4035 59.8007 75.4679 59.6074 75.425 59.4355C75.425 59.2636 75.3175 59.1347 75.1672 59.0058C75.0168 58.8769 74.8449 58.8769 74.673 58.9199C74.5011 58.9628 74.3507 59.0917 74.2004 59.3066H74.1789Z" fill="white"/>
<path d="M53.4233 50.197L53.7886 48.5642L54.9917 48.8435L54.9272 49.1228L54.0679 48.908L53.9819 49.2732L54.7769 49.4666L54.7124 49.7458L53.9175 49.531L53.8101 49.9822L54.7124 50.197L54.648 50.4763L53.4233 50.197V50.197Z" fill="#309E3A"/>
</g>
<defs>
<clipPath id="clip0_5158_370926">
<rect x="0.48584" y="0.997559" width="110" height="110" rx="55" fill="white"/>
</clipPath>
</defs>
</svg>
