<svg width="111" height="111" viewBox="0 0 111 111" fill="none" xmlns="http://www.w3.org/2000/svg">
<g clip-path="url(#clip0_5158_371947)">
<path d="M0.358887 0.554565H110.359V110.555H0.358887V0.554565Z" fill="#F7E017"/>
<path d="M0.358398 8.20312V57.0586L110.358 79.9824V53.9863L0.358398 8.20312Z" fill="white"/>
<path d="M0.358398 34.1562V57.0801L110.358 102.906V80.0039L0.358398 34.1562Z" fill="black"/>
<path d="M51.6459 87.5918C48.9644 87.2957 46.3844 86.3974 44.0987 84.9641C43.7321 84.7196 43.396 84.5057 43.3348 84.5057C43.2737 84.5057 43.2432 84.796 43.2432 85.1321C43.2432 86.1099 42.846 86.5988 41.8682 86.8585C40.921 87.103 39.4849 86.6141 38.3237 85.6363C37.2227 84.6942 35.9376 83.9918 34.5501 83.5738C33.1048 83.2297 31.5836 83.4253 30.2724 84.1238C30.1428 84.215 29.9979 84.2822 29.8446 84.3224C29.6765 84.3224 29.6918 83.2682 29.8751 82.9474C30.1043 82.4891 30.6543 82.0613 31.3113 81.8321C31.6474 81.7099 31.9224 81.5571 31.9224 81.4807C31.9224 81.4196 31.8001 81.1752 31.6626 80.9307C31.2196 80.1516 31.4029 79.403 32.1821 78.8071C32.9765 78.196 34.321 78.1044 35.4974 78.5474C35.6961 78.6321 35.9003 78.7036 36.1085 78.7613C36.2612 78.7613 36.1696 78.5321 35.7418 77.9057C35.2529 77.1877 35.146 76.8363 35.2071 75.9655C35.2491 75.4324 35.4799 74.9319 35.8579 74.5538C36.236 74.1757 36.7366 73.945 37.2696 73.903C38.1557 73.8419 38.7057 74.1474 40.0196 75.3849C43.5484 78.9368 48.1832 81.1788 53.1584 81.7405C54.4265 81.8932 56.9473 81.8168 58.4293 81.5877C63.124 80.8044 67.4766 78.6334 70.9265 75.3544C71.9043 74.4377 72.3626 74.1932 73.1723 74.1932C73.8598 74.1932 74.3487 74.4071 74.8529 74.9571C75.3112 75.4613 75.464 75.9349 75.4029 76.7141C75.3723 77.203 75.2959 77.4321 75.0056 77.921C74.5779 78.6085 74.6542 78.6849 75.4945 78.3488C76.6556 77.8905 78.0765 78.1044 78.8404 78.8377C79.5126 79.4794 79.5737 80.121 79.0542 80.9766C78.8556 81.2974 78.7028 81.5877 78.7028 81.6488C78.7028 81.7405 78.8556 81.771 79.5431 81.8932C80.4598 82.046 80.9945 82.7182 80.9945 83.7571C80.9945 84.0627 80.9487 84.3224 80.9028 84.3224C80.857 84.3224 80.5056 84.1849 80.139 84.0321C79.0695 83.5891 78.4584 83.4821 77.2056 83.4974C76.2584 83.4974 75.9376 83.5432 75.2806 83.7571C74.181 84.1396 73.1683 84.7368 72.3015 85.5141C71.3237 86.3849 70.7126 86.6599 69.7654 86.6446C68.8793 86.6446 68.2834 86.3849 67.9626 85.8807C67.7945 85.6057 67.764 85.453 67.8098 84.8418C67.8404 84.4446 67.8251 84.1238 67.8098 84.1238C67.764 84.1238 67.4279 84.3377 67.0459 84.5974C66.1738 85.2227 65.2236 85.7312 64.2195 86.1099C60.1986 87.5663 55.8953 88.0735 51.6459 87.5918Z" fill="#CF1126"/>
<path d="M53.2653 80.7932C50.31 80.5215 47.4468 79.6218 44.8674 78.1543C42.2879 76.6867 40.0517 74.6851 38.3083 72.2834C34.5806 67.2112 33.4195 60.5043 34.55 54.3779C35.1611 51.5821 36.3833 48.7863 38.4458 46.8001C36.7455 50.3287 36.2775 54.3256 37.1167 58.1515C38.4917 65.7598 44.9083 72.1918 52.593 73.3071C55.6486 74.1779 58.7805 73.2459 61.6833 72.314C68.1 70.0529 72.9888 63.9723 73.5694 57.1737C74.0736 53.5071 73.5236 49.6724 71.8583 46.3265C72.8055 46.8307 73.9972 48.8015 74.6999 50.1154C77.1444 54.8515 77.2513 60.5196 75.8152 65.5765C73.8597 72.0084 68.9402 77.6459 62.4472 79.6932C59.4849 80.6186 56.3777 80.9915 53.2805 80.7932H53.2653Z" fill="#CF1126"/>
<path d="M23.5818 72.3446C23.1998 72.2835 22.772 72.6654 22.9248 73.0627C23.1998 73.4599 23.6887 73.6738 24.1165 73.8571C25.2436 74.2972 26.4535 74.4849 27.6609 74.4071C28.5468 74.4073 29.4259 74.2522 30.2581 73.9488C30.7165 73.796 31.297 73.6432 31.4804 73.1238C31.679 72.8029 31.3276 72.4668 31.0068 72.5279C30.5484 72.6349 30.0901 72.8335 29.6318 72.971C28.6243 73.2562 27.5741 73.3597 26.5304 73.2765C25.7708 73.166 25.0303 72.9501 24.3304 72.6349C24.0859 72.5279 23.8568 72.3752 23.5818 72.3446V72.3446Z" fill="#CF1126"/>
<path d="M24.0097 70.7559C23.6278 70.6948 23.2917 71.1531 23.4444 71.5198C23.75 71.9476 24.2542 72.1767 24.7278 72.3753C25.554 72.6994 26.438 72.8502 27.325 72.8184H27.5542C28.3085 72.8216 29.056 72.6763 29.7542 72.3906C30.1667 72.2226 30.6861 72.0545 30.8694 71.5962C31.0069 71.3364 30.9 70.9698 30.5639 70.9392C30.2889 70.9392 30.0292 71.1226 29.7542 71.1989C28.7589 71.6099 27.68 71.7775 26.6069 71.6878C25.9347 71.6114 25.3083 71.367 24.6972 71.0767C24.4681 70.9698 24.2694 70.8017 24.0097 70.7712V70.7559Z" fill="#CF1126"/>
<path d="M24.5458 69.2434C24.2097 69.1976 23.9805 69.5795 24.0416 69.8698C24.0874 70.1448 24.3166 70.3281 24.5152 70.4809C25.3471 71.0571 26.3463 71.3418 27.3569 71.2906H27.6013C28.2366 71.2859 28.8629 71.1398 29.4347 70.8628C29.8166 70.7101 30.2597 70.5114 30.3972 70.0684C30.4583 69.8698 30.4888 69.5795 30.2597 69.4573C30.0152 69.3351 29.7861 69.5337 29.5722 69.6101C28.8414 69.994 28.0296 70.1983 27.2041 70.2059C26.4955 70.1776 25.8062 69.9671 25.2027 69.5948C24.9736 69.4878 24.7902 69.2892 24.5458 69.2434V69.2434Z" fill="#CF1126"/>
<path d="M18.9232 46.8003C18.4343 47.3045 18.8162 48.2211 18.7704 48.8628C19.0454 50.8795 19.3662 52.9114 20.1148 54.8211C21.0315 56.6544 22.987 57.6475 24.1634 59.2822C24.5912 60.0614 24.4384 61.0086 24.5301 61.8794C24.5912 64.2169 24.5759 66.5697 24.5301 68.9072C25.5995 69.4572 26.7454 69.9766 27.9676 69.778C28.6857 69.61 30.0301 69.503 30.1829 68.785L30.0301 56.6392C29.6176 55.4017 28.3495 54.76 27.4176 53.9656C26.6386 53.1966 25.9138 52.3747 25.2482 51.5058C24.8509 50.8183 23.2773 50.5892 23.8426 51.7503C24.1787 52.7739 25.019 53.5225 25.2329 54.5919C25.2787 55.1878 25.9968 56.2725 25.3857 56.6086C25.0093 55.9446 24.4389 55.4115 23.7509 55.0808C23.0787 54.5767 21.9634 54.3628 21.719 53.4767C21.4989 52.2163 20.9147 51.0479 20.0384 50.1156C20.2676 48.985 20.0384 47.5642 19.0607 46.8308L18.9232 46.8003V46.8003Z" fill="#CF1126"/>
<path d="M20.438 47.0295C19.9797 47.1059 20.0102 47.6712 20.2088 47.9768C20.4353 48.6344 20.4931 49.3383 20.3769 50.024C21.2147 50.9569 21.7755 52.105 21.9963 53.3393C21.9963 53.7976 22.4852 53.9504 22.8061 54.1795C23.5547 54.6531 24.3797 55.0045 25.0519 55.6004C25.1894 55.7531 25.2963 55.9059 25.2047 55.6004C25.0977 55.2031 25.0519 54.7754 24.7463 54.4851C24.3185 54.0268 23.7991 53.6295 23.188 53.5073C23.1422 52.8656 22.8366 52.2851 22.5616 51.7351C22.2561 51.2004 21.9352 50.6351 21.4158 50.299C21.4158 49.367 21.4158 48.3893 21.0186 47.5184C20.8963 47.3045 20.713 47.0448 20.438 47.0295Z" fill="#CF1126"/>
<path d="M21.7054 47.3961C21.3999 47.4878 21.461 47.885 21.5526 48.1142C21.6861 48.7776 21.7374 49.4549 21.7054 50.1308C22.3013 50.5892 22.6526 51.2614 22.9888 51.9031C23.2026 52.3308 23.386 52.7892 23.4624 53.2628C23.936 53.4156 24.3485 53.7211 24.7151 54.0267C24.5624 53.5989 24.2568 53.2628 24.0276 52.8503C23.7985 52.4378 23.5693 51.9947 23.4624 51.5211C23.004 51.0475 22.7596 50.36 22.8513 49.6878C22.8818 48.9697 22.6526 48.2211 22.1638 47.6711C22.0415 47.5489 21.8888 47.4114 21.7054 47.3961Z" fill="#CF1126"/>
<path d="M23.1563 47.61C22.9729 47.6406 22.8813 47.7934 22.7896 47.9309C22.7438 48.0684 22.9118 48.2059 22.9424 48.3586C23.142 48.8629 23.2154 49.4084 23.1563 49.9475C23.141 50.3295 23.2785 50.7114 23.4618 51.017C23.4962 50.8993 23.5659 50.7951 23.6616 50.7186C23.7573 50.642 23.8743 50.5968 23.9966 50.5892C24.0729 50.5892 24.2104 50.6197 24.1493 50.4822C24.0882 49.7489 23.9813 49.0156 23.7216 48.3434C23.6463 48.0786 23.4981 47.8403 23.2938 47.6559C23.2632 47.6253 23.2021 47.5947 23.141 47.61H23.1563Z" fill="#CF1126"/>
<path d="M87.1404 72.3446C87.5223 72.2835 87.9501 72.6654 87.7973 73.0627C87.5223 73.4599 87.0335 73.6738 86.6057 73.8571C85.4786 74.2972 84.2687 74.4849 83.0612 74.4071C82.1754 74.4073 81.2963 74.2522 80.464 73.9488C80.0057 73.796 79.4251 73.6432 79.2418 73.1238C79.0432 72.8029 79.3946 72.4668 79.7154 72.5279C80.1737 72.6349 80.6321 72.8335 81.0904 72.971C82.0979 73.2562 83.1481 73.3597 84.1918 73.2765C84.9514 73.166 85.6919 72.9501 86.3918 72.6349C86.6362 72.5279 86.8654 72.3752 87.1404 72.3446V72.3446Z" fill="#CF1126"/>
<path d="M86.7139 70.7559C87.0959 70.6948 87.432 71.1531 87.2792 71.5198C86.9736 71.9476 86.4695 72.1767 85.9959 72.3753C85.1696 72.6994 84.2856 72.8502 83.3986 72.8184H83.1695C82.4152 72.8216 81.6676 72.6763 80.9695 72.3906C80.557 72.2226 80.0375 72.0545 79.8542 71.5962C79.7167 71.3364 79.8236 70.9698 80.1598 70.9392C80.4348 70.9392 80.6945 71.1226 80.9695 71.1989C81.9647 71.6099 83.0437 71.7775 84.1167 71.6878C84.7889 71.6114 85.4153 71.367 86.0264 71.0767C86.2556 70.9698 86.4542 70.8017 86.7139 70.7712V70.7559Z" fill="#CF1126"/>
<path d="M86.1769 69.2434C86.513 69.1976 86.7422 69.5795 86.681 69.8698C86.6352 70.1448 86.406 70.3281 86.2074 70.4809C85.3756 71.0571 84.3764 71.3418 83.3658 71.2906H83.1213C82.486 71.2859 81.8598 71.1398 81.288 70.8628C80.9061 70.7101 80.463 70.5114 80.3255 70.0684C80.2644 69.8698 80.2338 69.5795 80.463 69.4573C80.7074 69.3351 80.9366 69.5337 81.1505 69.6101C81.8813 69.994 82.6931 70.1983 83.5185 70.2059C84.2271 70.1776 84.9164 69.9671 85.5199 69.5948C85.7491 69.4878 85.9324 69.2892 86.1769 69.2434V69.2434Z" fill="#CF1126"/>
<path d="M91.8 46.8003C92.2889 47.3045 91.9069 48.2211 91.9528 48.8628C91.6778 50.8795 91.3569 52.9114 90.6083 54.8211C89.6917 56.6544 87.7361 57.6475 86.5597 59.2822C86.1319 60.0614 86.2847 61.0086 86.193 61.8794C86.1319 64.2169 86.1472 66.5697 86.193 68.9072C85.1236 69.4572 83.9778 69.9766 82.7555 69.778C82.0375 69.61 80.6931 69.503 80.5403 68.785L80.6931 56.6392C81.1055 55.4017 82.3736 54.76 83.3056 53.9656C84.0845 53.1966 84.8094 52.3747 85.475 51.5058C85.8722 50.8183 87.4458 50.5892 86.8805 51.7503C86.5444 52.7739 85.7042 53.5225 85.4903 54.5919C85.4444 55.1878 84.7264 56.2725 85.3375 56.6086C85.7139 55.9446 86.2843 55.4115 86.9722 55.0808C87.6444 54.5767 88.7597 54.3628 89.0042 53.4767C89.2243 52.2163 89.8085 51.0479 90.6847 50.1156C90.4555 48.985 90.6847 47.5642 91.6625 46.8308L91.8 46.8003V46.8003Z" fill="#CF1126"/>
<path d="M90.2876 47.0295C90.7459 47.1059 90.7154 47.6712 90.5168 47.9768C90.2903 48.6344 90.2325 49.3383 90.3487 50.024C89.5109 50.9569 88.9501 52.105 88.7293 53.3393C88.7293 53.7976 88.2404 53.9504 87.9195 54.1795C87.1709 54.6531 86.3459 55.0045 85.6737 55.6004C85.5362 55.7531 85.4293 55.9059 85.5209 55.6004C85.6279 55.2031 85.6737 54.7754 85.9793 54.4851C86.407 54.0268 86.9265 53.6295 87.5376 53.5073C87.5834 52.8656 87.889 52.2851 88.164 51.7351C88.4695 51.2004 88.7904 50.6351 89.3098 50.299C89.3098 49.367 89.3098 48.3893 89.707 47.5184C89.8292 47.3045 90.0126 47.0448 90.2876 47.0295Z" fill="#CF1126"/>
<path d="M89.0206 47.3961C89.3262 47.4878 89.2651 47.885 89.1734 48.1142C89.04 48.7776 88.9887 49.4549 89.0206 50.1308C88.4248 50.5892 88.0734 51.2614 87.7373 51.9031C87.5234 52.3308 87.3401 52.7892 87.2637 53.2628C86.7901 53.4156 86.3776 53.7211 86.0109 54.0267C86.1637 53.5989 86.4693 53.2628 86.6984 52.8503C86.9276 52.4378 87.1568 51.9947 87.2637 51.5211C87.722 51.0475 87.9665 50.36 87.8748 49.6878C87.8443 48.9697 88.0734 48.2211 88.5623 47.6711C88.6845 47.5489 88.8373 47.4114 89.0206 47.3961Z" fill="#CF1126"/>
<path d="M87.5683 47.61C87.7517 47.6406 87.8433 47.7934 87.935 47.9309C87.9808 48.0684 87.8128 48.2059 87.7822 48.3586C87.5826 48.8629 87.5092 49.4084 87.5683 49.9475C87.5836 50.3295 87.4461 50.7114 87.2628 51.017C87.2285 50.8993 87.1587 50.7951 87.063 50.7186C86.9673 50.642 86.8504 50.5968 86.7281 50.5892C86.6517 50.5892 86.5142 50.6197 86.5753 50.4822C86.6364 49.7489 86.7433 49.0156 87.0031 48.3434C87.0783 48.0786 87.2266 47.8403 87.4308 47.6559C87.4614 47.6253 87.5225 47.5947 87.5836 47.61H87.5683Z" fill="#CF1126"/>
<path d="M54.7014 73.2767C53.6694 73.1651 52.691 72.7606 51.8816 72.1108C51.0721 71.4611 50.4655 70.5934 50.1333 69.61C50.1791 69.2739 50.5916 69.7934 50.7902 69.8392C51.1629 70.0613 51.5805 70.197 52.0125 70.2364C52.5472 70.4656 52.8833 71.0003 53.4027 71.2906C53.6472 71.4739 54.5027 71.8406 54.3347 71.2448C54.1361 70.9392 53.9986 70.542 54.1819 70.1753C54.4569 69.5489 54.9 68.9989 55.3583 68.4642C55.6791 68.3573 55.9083 69.0142 56.1375 69.2281C56.4583 69.7323 56.8555 70.3434 56.6569 70.9545C56.4736 71.1836 56.3513 71.8711 56.8555 71.6572C57.4666 71.3822 57.9708 70.9239 58.475 70.4961C58.9333 70.1906 59.4986 70.1753 59.9569 69.885C60.1861 69.8392 60.6291 69.4114 60.7208 69.6406C60.4471 70.3235 60.0654 70.958 59.5902 71.5197C58.8556 72.3919 57.8399 72.9807 56.718 73.185C56.0458 73.3072 55.3736 73.3378 54.7014 73.2767V73.2767Z" fill="#CF1126"/>
<path d="M57.1157 70.8628C57.1615 70.4503 57.0699 70.0378 56.856 69.6406C56.5351 68.9989 56.0921 68.4184 55.6338 67.8225C55.206 67.5781 54.9768 68.3878 54.7018 68.617C54.2588 69.2739 53.7088 69.9461 53.6782 70.7559C53.4338 71.1378 52.9754 70.4503 52.7768 70.2211C52.3697 69.6978 52.154 69.0508 52.1657 68.3878C52.1288 67.3119 52.3161 66.2402 52.7157 65.2406C53.0213 64.385 53.4949 63.56 53.449 62.6434C53.4796 61.9253 53.3421 61.1614 52.7768 60.6878C52.2268 60.26 53.1282 60.1684 53.4032 60.3823C53.8921 60.4281 54.1518 61.2225 54.5949 61.0239C54.7629 60.6114 54.8088 60.1073 55.1754 59.7864C55.5268 59.2975 55.8935 59.985 56.0157 60.3212C56.2754 60.5962 56.0157 61.3142 56.4129 61.3295C56.9018 60.9781 57.2532 60.4128 57.8796 60.2753C58.1393 60.1225 58.5671 60.2753 58.231 60.5503C57.7726 60.9934 57.3754 61.5281 57.2837 62.185C57.1462 62.9948 57.3449 63.8198 57.6962 64.5378C58.3837 65.9739 58.9185 67.5934 58.5671 69.1975C58.4143 69.9003 57.9254 70.5114 57.3449 70.9239C57.2685 70.9697 57.1462 70.9697 57.1157 70.8628V70.8628Z" fill="#CF1126"/>
<path d="M56.3826 60.0769C56.1769 59.6635 55.8852 59.2989 55.527 59.0074C55.1603 59.0074 54.9312 59.4658 54.6867 59.7102C54.5187 60.031 54.3048 60.5658 53.877 60.1533C53.1895 59.756 53.0826 58.8852 53.0826 58.1672C53.0367 57.006 53.5103 55.9213 53.9228 54.8672C54.1826 54.2102 54.1214 53.4616 53.9534 52.7894C53.7548 52.0255 53.1284 51.4755 52.6548 50.8644C52.6853 50.6352 53.2965 50.7574 53.5256 50.8033C54.0451 50.9408 54.3506 51.3838 54.7326 51.7199C55.0076 51.6283 54.8853 51.0783 55.0228 50.8186C55.0228 50.4519 55.5117 49.9783 55.7103 50.4977C56.0159 50.8338 55.7103 51.4908 56.0923 51.6894C56.4589 51.5519 56.6423 51.1547 56.9784 50.9713C57.1539 50.8577 57.3556 50.7911 57.5643 50.7777C57.7729 50.7643 57.9815 50.8047 58.1701 50.8949C58.3076 51.2311 57.7728 51.5061 57.6201 51.8116C57.3147 52.1925 57.103 52.6398 57.0022 53.1175C56.9014 53.5951 56.9141 54.0898 57.0395 54.5616C57.2534 55.3255 57.6201 56.013 57.7576 56.7769C57.9225 57.648 57.8965 58.5446 57.6812 59.4047C57.5437 59.9241 57.1006 60.2602 56.6423 60.4741C56.5201 60.3672 56.4589 60.2144 56.3826 60.0769V60.0769Z" fill="#CF1126"/>
<path d="M54.0759 50.4975C53.5565 50.1156 53.3884 49.7642 53.3884 49.0461C53.3884 48.6947 53.4648 48.4961 53.694 48.16C54.0606 47.6711 53.9995 47.5183 53.4954 47.6558C52.6856 47.885 52.3037 47.6864 52.2731 46.9989C52.2731 46.6628 52.3343 46.5253 52.7773 45.9753C53.144 45.5475 53.2815 45.3183 53.2051 45.242C53.1287 45.1808 52.7009 45.5475 51.8301 46.4336C51.284 47.0094 50.7023 47.5503 50.0884 48.0531C48.5912 49.0614 47.1551 49.2142 46.4982 48.435C46.162 48.0378 46.1773 47.8239 46.5593 47.5794C46.8025 47.4151 47.0279 47.2256 47.2315 47.0142C47.9803 46.3305 48.8057 45.7358 49.6912 45.242C50.2412 44.967 50.3634 44.7836 50.012 44.7836C49.5537 44.7836 48.1023 45.7308 46.987 46.7392C46.6662 47.0447 46.1926 47.3808 45.9482 47.5031C45.2684 47.751 44.5328 47.8039 43.8246 47.6558C43.4884 47.5489 42.8621 46.9683 42.8621 46.7545C42.8621 46.7086 43.0148 46.5864 43.1676 46.4795C43.4166 46.3388 43.6519 46.1751 43.8704 45.9906C44.7565 45.2267 46.437 44.417 47.7662 44.1267C48.194 44.0503 48.0259 43.8211 47.5523 43.8517C46.15 44.1195 44.8369 44.734 43.7329 45.6392C42.4648 46.6933 40.5551 46.5864 39.944 45.4406C39.8371 45.242 39.7607 45.0586 39.7912 45.0281C40.8734 44.7549 41.9195 44.3549 42.9079 43.8364C43.7591 43.3347 44.6972 42.9978 45.6732 42.8433C46.1009 42.767 46.1315 42.5531 45.719 42.5072C45.169 42.4461 44.344 42.7211 42.8926 43.4239C41.0134 44.3558 40.4787 44.5239 39.5009 44.4628C38.5843 44.4017 38.0801 44.1725 37.3621 43.485C36.8732 43.0267 36.201 41.8808 36.3232 41.7433C37.1163 41.9101 37.9273 41.9769 38.7371 41.942C40.0051 41.942 40.3565 41.9114 41.0287 41.7128C42.3419 41.2967 43.5799 40.6725 44.6954 39.8642C46.2679 38.5339 48.2579 37.7985 50.3176 37.7864C52.212 37.7864 53.4037 38.2142 54.4731 39.2989C54.8398 39.6656 55.1454 39.8947 55.1912 39.8489C55.237 39.8031 55.2829 39.1614 55.2981 38.4281C55.2981 38.4281 55.8634 38.367 55.9856 38.535C55.9856 39.7114 55.9856 39.8184 56.169 39.8184C56.2759 39.8184 56.3981 39.6961 56.4745 39.5128C56.6273 39.1309 57.2384 38.5961 57.8801 38.26C59.2551 37.5725 61.6537 37.542 63.5787 38.2142C64.499 38.5634 65.3596 39.053 66.1301 39.6656C67.254 40.4561 68.4899 41.074 69.7967 41.4989C70.8356 41.8045 72.6995 41.8808 73.6314 41.6517C73.904 41.5886 74.1793 41.5376 74.4564 41.4989C74.8078 41.4989 74.212 42.66 73.5092 43.3475C72.2259 44.6003 70.5606 44.585 68.2231 43.3322C66.7565 42.5378 65.0148 42.11 65.0148 42.5378C65.0148 42.6295 65.1065 42.6906 65.244 42.6906C65.7481 42.6906 66.7259 43.0267 68.1009 43.6836C68.9647 44.1818 69.9122 44.5183 70.8967 44.6767C71.2481 44.6767 71.2634 44.9058 70.9273 45.3947C70.5759 45.9142 69.9801 46.1586 69.1398 46.1586C68.3301 46.1586 67.8717 45.9906 67.1537 45.3947C65.9315 44.3864 62.937 43.2558 63.044 43.867C63.0745 43.9739 63.212 44.0503 63.5329 44.0961C64.8232 44.3765 66.0311 44.9517 67.062 45.7767L67.9634 46.4336C68.1315 46.5253 68.1315 46.5558 67.994 46.8156C67.7801 47.2433 67.1995 47.5642 66.5884 47.6253C65.794 47.717 65.0912 47.4725 64.3731 46.8614C62.8454 45.5933 61.4245 44.6767 60.9662 44.6767C60.5842 44.6767 60.7523 44.8906 61.4245 45.242C62.2941 45.7025 63.1046 46.2668 63.8384 46.9225C64.144 47.2128 64.4954 47.4878 64.6023 47.5489C64.8926 47.7017 64.8773 47.9156 64.5717 48.3128C64.2662 48.71 63.7467 48.8933 63.0898 48.8169C61.7759 48.6794 60.737 48.0531 59.1176 46.3725C58.7325 45.9424 58.3136 45.544 57.8648 45.1808C57.6509 45.1808 57.7884 45.4711 58.2009 45.9447C58.7204 46.51 58.812 46.8308 58.6134 47.3197C58.4454 47.717 58.1551 47.8239 57.5745 47.6558C56.9634 47.5031 56.8718 47.6558 57.269 48.1294C57.8495 48.8781 57.7731 49.7642 57.0398 50.3906C56.8881 50.5367 56.7124 50.6555 56.5204 50.7419C56.4592 50.7419 56.3065 50.5892 56.169 50.3753C55.7106 49.6725 55.2981 49.6725 54.8398 50.3753C54.7431 50.5314 54.6412 50.6843 54.5343 50.8336C54.3796 50.7241 54.2268 50.612 54.0759 50.4975V50.4975Z" fill="#CF1126"/>
<path d="M56.383 36.1516L55.5885 36.7627L54.8857 36.2433V40.4905H56.383V36.1516Z" fill="#CF1126"/>
<path d="M51.5264 31.7672C51.3874 33.4848 50.9207 35.1599 50.1514 36.7019L51.8472 35.1283L53.0236 36.5338L54.3069 35.0977L55.6055 36.32L56.8583 35.0519L58.1569 36.5797L59.2875 35.3269L61.2125 36.7019C60.5097 35.1741 59.5777 33.8602 59.6847 31.6908C57.8361 33.0658 53.4208 33.3102 51.5264 31.7519V31.7672Z" fill="#CF1126"/>
<path d="M54.902 30.7432C54.2145 30.7432 53.4964 30.7585 52.8547 30.896C52.4298 30.9636 52.0238 31.1197 51.6631 31.3543C51.7089 32.6682 57.927 33.2029 59.5922 31.3848C59.2175 31.1255 58.7894 30.9532 58.3395 30.8807C57.7284 30.7585 57.0256 30.7585 56.3686 30.7279V31.8126H54.902V30.7432V30.7432Z" fill="#CF1126"/>
<path d="M56.1085 24.0822H55.146V31.6294H56.1238L56.1085 24.0822Z" fill="#CF1126"/>
<path d="M56.1076 24.2656L55.7409 27.8864L59.4534 29.7044L57.5742 27.1836L60.1409 26.3433L56.1076 24.2656ZM55.6951 23.3336C55.1298 23.3336 54.7173 23.5475 54.7173 23.792C54.7173 24.0364 55.1298 24.2503 55.6951 24.2503C56.2603 24.2503 56.6728 24.0364 56.6728 23.792C56.6728 23.5475 56.2603 23.3336 55.6951 23.3336Z" fill="#CF1126"/>
<path d="M53.9848 86.7071C54.6078 86.4922 54.9516 86.127 55.1879 85.418C55.2906 85.1476 55.3627 84.8666 55.4028 84.5801C55.3383 84.3653 55.059 84.3653 54.7797 84.6231C54.5649 84.7735 54.5649 84.8594 54.6078 85.2032C54.7582 86.0626 54.4575 86.2774 52.8246 86.4493C52.6742 86.4493 52.2016 86.4493 51.7934 86.3848C51.02 86.2989 50.7621 86.3848 51.0414 86.5997C51.1853 86.6981 51.3453 86.7708 51.5141 86.8145C51.9438 86.9219 53.5336 86.8575 53.9848 86.6856V86.7071ZM57.3578 86.5567C57.4438 86.4708 57.7446 86.3418 58.0453 86.2344C58.4321 86.1055 58.6469 85.9766 58.7973 85.7188C59.27 85.0098 59.184 84.4083 58.4965 83.5704C58.1098 83.1407 57.9379 83.1407 57.6371 83.6563C57.3793 84.086 57.3793 84.086 57.766 84.1934C57.9809 84.2364 58.1528 84.4083 58.2602 84.5801C58.6684 85.2891 58.5395 85.7188 57.9379 85.7188C57.3793 85.7188 57.2289 85.8047 57.0785 86.1485C57.0172 86.293 56.9739 86.4445 56.9496 86.5997C56.9496 86.7501 57.1645 86.7286 57.3578 86.5567V86.5567ZM56.2407 85.7403C56.3481 85.461 56.391 84.9669 56.3696 83.9356C56.3696 83.1407 56.3481 82.4747 56.3051 82.4317C56.2192 82.3672 55.768 82.6465 55.7035 82.8399C55.6821 82.9473 55.725 83.1622 55.811 83.334C55.9614 83.6133 55.9828 83.8711 55.9399 84.9454C55.8754 86.2989 55.9614 86.5137 56.2407 85.7403Z" fill="#F7E017"/>
<path d="M53.6618 85.1169C53.7262 84.8591 53.7907 84.3435 53.8122 83.9568C53.8551 83.5915 53.9196 83.0974 53.984 82.8826C54.1559 82.3669 53.984 82.238 53.5543 82.5388L53.2536 82.7537L53.318 83.5056C53.3825 84.1931 53.275 85.4607 53.1032 85.9548C53.0817 86.1052 53.1461 86.0622 53.318 85.8689C53.4859 85.6382 53.6031 85.3746 53.6618 85.0954V85.1169ZM51.3629 85.4822C51.9215 85.0095 51.8571 84.1931 51.986 83.5486C51.986 83.1189 52.2653 82.6033 52.0719 82.238C51.5563 82.324 51.2125 82.8181 51.4918 83.3122C51.5133 83.8923 51.4918 84.5154 51.2125 85.031C50.9762 85.3533 50.2028 85.2458 50.2457 84.7947C50.4391 84.0857 49.6012 84.4294 49.2575 84.6228C48.9997 84.7947 48.4625 84.8162 48.6559 84.365C48.527 83.7634 47.775 84.1501 47.3668 84.1501C46.9801 84.1501 47.3239 83.3552 46.7653 83.5056C45.734 83.3982 44.5739 83.5056 43.6715 82.8611C43.1559 82.6247 43.2418 82.0017 43.4997 81.572C43.8434 81.0134 43.9293 80.3044 44.445 79.8747C44.9606 79.3806 43.9723 79.5955 43.736 79.7673C43.2418 80.0251 43.693 80.7341 43.3063 81.1208C43.0485 81.5505 42.7262 82.0876 42.1891 82.0232C41.3727 81.8728 40.9 81.1208 40.3415 80.6267C39.8473 80.5193 40.1266 81.4216 40.3844 81.615C40.8934 81.992 41.4694 82.2691 42.0817 82.4314C42.6832 82.324 42.7047 83.1189 43.2204 83.2478C44.1657 83.6775 45.2184 83.8064 46.2282 83.8708C46.6579 83.8923 46.4215 84.6228 46.9586 84.4724C47.2594 84.5583 47.9254 84.365 47.9469 84.7087C47.5172 85.2458 48.3766 85.2458 48.7204 85.1384C49.15 85.074 49.6657 84.9236 49.7946 85.4822C50.1383 85.8689 50.7829 85.8044 51.1911 85.5896L51.3629 85.4822V85.4822Z" fill="#F7E017"/>
<path d="M42.2522 80.8417C42.4026 80.6268 42.6605 80.1971 42.8108 79.8749C42.928 79.5924 43.0795 79.3254 43.262 79.08C43.5413 78.7792 43.3909 78.6073 42.9397 78.7147C42.7249 78.7577 42.6175 78.8436 42.596 79.037C42.4671 79.6815 42.2308 80.3475 42.0159 80.6483C41.6292 81.2069 41.6292 81.2284 41.8011 81.2284C41.8655 81.2284 42.0589 81.0565 42.2308 80.8417H42.2522ZM36.4944 77.2538C36.0647 77.2538 36.0647 77.5331 36.473 77.6835C36.6663 77.7479 36.8382 77.8983 36.9671 78.1991C37.3968 78.994 37.6116 79.1444 38.6858 79.2303L39.3948 79.2948L39.4163 79.7245C39.4378 79.9393 39.5022 80.1542 39.5452 80.1542C39.6097 80.1542 39.8675 80.0253 40.1468 79.8964C40.6409 79.6385 41.1351 79.037 41.1351 78.6718C41.1351 78.4354 40.7054 78.1561 40.3616 78.1561C40.0935 78.1958 39.8412 78.3071 39.6312 78.4784C38.8577 79.037 38.0413 78.9081 37.5901 78.1991C37.2249 77.5975 36.8382 77.2538 36.4944 77.2538V77.2538ZM40.2327 78.7577C40.4476 78.7577 40.4905 78.9081 40.3831 79.1874C40.2972 79.4022 40.0394 79.4022 39.9534 79.1874C39.889 78.9725 40.0179 78.7577 40.2327 78.7577ZM69.2151 77.8124C68.9358 77.8124 68.8499 77.8768 68.678 78.1561C68.3773 78.5858 68.3558 79.5096 68.6351 79.8319C68.7855 80.0468 68.8069 80.0468 69.1722 79.8964C69.6663 79.6815 69.7523 79.703 69.7308 79.9608C69.7308 80.6483 68.764 81.9374 67.7542 82.6464C67.5477 82.7606 67.3653 82.9139 67.2171 83.0975C67.1312 83.3124 67.5179 83.2479 67.9691 83.0116C68.6136 82.6893 69.43 81.8514 69.7737 81.1854C70.0316 80.6483 70.0745 80.4764 70.1175 79.5526C70.1175 78.6932 70.1175 78.4569 69.9671 78.1561C69.8167 77.8339 69.7523 77.8124 69.3441 77.8124H69.2151V77.8124ZM69.2581 78.4139C69.473 78.4139 69.4944 78.4569 69.5159 78.7577C69.5374 79.0155 69.5159 79.1659 69.3655 79.2948C69.1507 79.4667 69.1507 79.4667 68.9788 79.2089C68.764 78.8436 68.8929 78.4139 69.2581 78.4139V78.4139ZM64.6175 84.9237C65.3856 84.6037 66.0115 84.0159 66.3792 83.2694C66.4925 83.0416 66.586 82.8043 66.6585 82.5604C66.6585 82.4315 66.2288 82.2382 65.9495 82.2382C65.6702 82.2382 65.6487 82.0448 65.7347 81.5507C65.8636 81.0565 65.7347 80.455 65.5198 80.455C65.4339 80.455 65.305 80.5624 65.219 80.6913C65.0687 80.9061 65.0687 81.0135 65.1761 81.3358C65.3265 81.7655 65.1976 82.1307 64.7894 82.41C64.5745 82.5604 64.4671 82.7323 64.4671 82.8827C64.4671 83.0116 64.4886 83.119 64.5101 83.119L65.0042 82.8827L65.4339 82.6249L65.7132 82.8397C65.8421 82.9471 65.971 83.1405 65.971 83.2479C65.971 83.785 64.4241 84.7089 63.3499 84.7948C62.7913 84.8378 62.7054 84.7948 62.4905 84.6229C62.3401 84.451 62.2757 84.3221 62.3187 84.1288L62.4476 83.5487C62.555 83.076 62.3401 83.1405 61.9964 83.6991C61.6956 84.1288 61.6097 84.6444 61.7815 84.9022C61.9105 85.1171 62.7913 85.3104 63.4144 85.2675C63.8011 85.246 64.2093 85.1386 64.6175 84.9237V84.9237ZM70.5687 81.5936C71.1272 81.035 71.3851 80.3475 71.3851 79.2948V78.4999L71.8362 78.285C72.4378 78.0057 73.0179 77.4257 73.0179 77.1249C73.0179 76.7811 72.8675 76.8026 72.6097 77.1678C72.4163 77.4257 72.18 77.576 71.2347 78.0057C70.9983 78.1132 70.9769 78.1776 70.9339 79.1659C70.8694 80.3046 70.719 80.7128 70.0745 81.5077C69.6878 81.9589 69.6663 82.0233 69.9456 82.0233C70.053 82.0233 70.3323 81.8514 70.5901 81.5936H70.5687ZM64.4456 80.9491C64.5101 80.7987 64.1878 80.6913 64.0589 80.8202C63.9944 80.8846 63.9944 80.9706 64.0374 81.035C64.1233 81.1854 64.4026 81.1425 64.4671 80.9706L64.4456 80.9491ZM72.889 78.7792C72.9534 78.6073 72.6312 78.4999 72.5022 78.6288C72.4378 78.6932 72.4378 78.8007 72.4808 78.8436C72.5667 78.994 72.846 78.9511 72.9105 78.7792H72.889ZM62.7269 72.8495C62.512 72.9569 62.4046 73.1932 62.2542 73.3866C62.1468 73.451 62.2327 73.5155 62.2972 73.6014C62.6839 74.0096 62.8343 74.5682 63.0276 75.1053C63.1995 75.7069 63.4358 76.3729 63.2425 77.0175C63.1565 77.2538 62.9632 77.5116 62.6839 77.4471C62.2112 77.4042 61.7601 77.2968 61.3089 77.2968C60.8792 77.2968 60.5569 77.6835 60.1487 77.6405C59.8694 77.662 59.8909 77.1034 59.6331 77.2538C59.5042 77.5546 59.5687 77.8768 59.5472 78.1991C59.6116 78.2421 59.7405 78.1991 59.805 78.1991H60.6644C60.7073 78.4999 60.6858 78.8436 60.9007 79.0585C61.2015 79.1659 61.5237 79.0585 61.7815 78.951C62.0823 78.8221 62.1253 78.4569 62.2112 78.1991C62.2972 77.8983 62.6839 77.9843 62.9202 77.8553C63.1896 77.7624 63.4212 77.5841 63.5802 77.3476C63.7391 77.1112 63.8167 76.8293 63.8011 76.5448C63.7796 75.6639 63.4358 74.826 63.178 74.0096C63.0491 73.6444 62.9632 73.2792 62.8128 72.9139C62.8128 72.8925 62.7698 72.8495 62.7269 72.871V72.8495ZM61.3519 77.8553C61.6526 77.8553 61.7815 78.2206 61.7386 78.4784C61.6097 78.8221 61.18 78.6073 61.094 78.3495C60.9437 78.1346 61.0511 77.8339 61.3519 77.8553V77.8553Z" fill="#F7E017"/>
<path d="M49.8598 74.9979C49.6973 74.9994 49.5395 75.052 49.4086 75.1483C48.5922 75.7284 48.3774 76.3944 48.936 76.6522C49.3442 76.8456 49.2367 77.0819 48.5922 77.4042C47.6899 77.8339 46.8735 77.7909 45.3696 77.1678C44.9828 76.996 44.8754 77.0604 44.9614 77.4042C45.0473 77.7479 45.3696 77.9198 46.1215 78.1132C46.9594 78.285 47.9477 78.2421 48.5922 77.9628C48.9694 77.7727 49.3053 77.5098 49.5805 77.1893L50.0746 76.6522L50.6547 76.7167C51.3637 76.8026 51.3852 76.8241 51.3852 77.1464C51.3852 77.4257 51.3852 77.4471 52.0512 77.4901L53.1254 77.5546C53.4262 77.5546 53.5981 77.619 53.684 77.7694C53.8129 77.9198 53.8989 77.9413 54.9731 77.8339C55.9614 77.7479 56.1762 77.7479 56.6274 77.9198C56.9496 78.0272 57.2934 78.0702 57.5727 78.0272C58.3461 77.9413 59.3989 77.3182 59.5492 76.8456C59.5707 76.8026 59.85 76.6952 60.1723 76.6307C60.9457 76.4803 60.9887 76.3085 60.2582 76.2225C59.8993 76.1734 59.5465 76.087 59.2055 75.9647C58.9515 75.8616 58.6836 75.7964 58.4106 75.7714C58.0239 75.7714 57.6371 76.0077 57.6371 76.2655C57.6371 76.4374 57.7016 76.4589 58.1743 76.4159C58.6039 76.3514 58.7328 76.3729 58.9477 76.5663C59.1196 76.6952 59.2055 76.8241 59.1625 76.8671C59.0766 77.0389 58.1743 77.4471 57.766 77.5116C57.5337 77.5597 57.2919 77.5294 57.0785 77.4257C56.7133 77.2538 56.1977 77.2108 56.0903 77.3612C56.0688 77.4471 55.9399 77.4042 55.7895 77.2538L55.5746 77.0389L55.016 77.2538C54.4575 77.4686 54.2641 77.4686 54.2641 77.2108C54.2641 77.0819 54.1137 77.0819 53.2973 77.1249C52.395 77.1893 52.309 77.1678 52.1371 76.996C51.9867 76.8241 51.9868 76.7596 52.0942 76.5663C52.2016 76.4159 52.2016 76.3514 52.0942 76.244C52.0082 76.1581 51.8793 76.1581 51.5356 76.244C50.6547 76.4803 50.3969 76.3514 50.3969 75.6639C50.3969 75.2343 50.1606 74.9979 49.8598 74.9979V74.9979ZM49.645 75.6425C49.6879 75.6425 49.7094 75.6425 49.7739 75.7284C49.8598 75.7928 49.9028 75.9432 49.8598 76.0292C49.7953 76.244 49.4086 76.2225 49.3227 76.0077C49.3012 75.9003 49.3227 75.7928 49.4516 75.7069L49.6235 75.621L49.645 75.6425Z" fill="#F7E017"/>
<path d="M48.0542 76.2656C48.5698 75.9219 48.5698 75.9648 48.6343 74.998C48.6987 74.3535 48.6987 74.2891 48.5054 74.2891C48.2475 74.2891 48.0971 74.5684 48.0971 75.127C48.0971 75.4707 48.0542 75.6426 47.8823 75.8359C47.4096 76.2656 46.2925 76.0723 46.1636 75.5137C46.1206 75.3203 46.1636 75.1484 46.3999 74.8262C46.894 74.1387 46.7866 73.9668 46.185 74.4824C45.7554 74.8477 45.6909 74.8477 45.7768 74.5469C45.8413 74.2676 45.6909 74.1387 45.3471 74.2246C45.1968 74.2676 45.1108 74.375 45.0679 74.5898C45.0249 74.8047 44.9175 74.9121 44.7671 74.9336C44.4878 75.0195 44.0366 74.7617 44.0366 74.5254C44.0366 74.375 44.7241 73.5371 45.605 72.5918C45.8394 72.3804 46.0484 72.1424 46.228 71.8828C46.228 71.8398 46.0347 71.7969 45.8198 71.7969C45.4975 71.7969 45.4331 71.8398 45.4331 71.9902C45.4331 72.0762 44.9819 72.6777 44.4233 73.2793C43.2847 74.5684 43.1987 74.8477 43.7788 75.1699C44.0042 75.3052 44.2636 75.373 44.5263 75.3654C44.789 75.3578 45.0441 75.2751 45.2612 75.127L45.6264 74.8691V75.3418C45.6264 75.9219 45.7339 76.1152 46.2065 76.373C46.4935 76.5173 46.8134 76.5833 47.134 76.5645C47.4547 76.5456 47.7646 76.4425 48.0327 76.2656H48.0542ZM71.9663 68.3379C71.5366 68.5957 71.8589 69.1328 71.9233 69.4766C71.7514 69.9492 71.1499 70.0781 70.6987 70.1855C70.0542 70.2715 69.603 70.8301 69.3667 71.3887C69.2378 71.7539 68.9155 72.3125 68.5718 71.7539C68.271 71.4531 67.7124 71.2168 67.3686 71.5605C67.0893 71.8184 67.0249 72.2051 66.9175 72.5488C66.7671 72.291 66.7026 71.9043 66.3589 71.8184C65.8218 71.8828 66.0151 72.5703 66.2515 72.8496C66.4878 73.1719 66.7026 73.6016 66.4663 73.9883C66.2944 74.4609 65.6069 74.7617 65.1772 74.375C64.812 74.1602 65.0698 73.4512 64.7046 73.4082C64.5112 73.5586 64.4897 74.2891 64.2104 73.8809C63.9956 73.5371 64.103 73.0645 63.8452 72.7637C63.5444 72.8066 63.2866 73.3223 63.394 73.623C63.7655 74.196 64.0143 74.8398 64.1245 75.5137C64.2319 75.793 64.1245 76.3086 64.3608 76.416C64.5327 75.9863 64.3608 75.5137 64.5112 75.084C64.8979 75.041 65.3706 75.2129 65.7788 75.127C66.3804 75.041 66.853 74.5469 67.0464 74.0098C67.1108 73.5801 67.0464 73.1934 67.0249 72.7852C67.4975 72.8496 67.9917 72.8496 68.4429 73C68.6577 73.3438 68.3784 73.8379 68.3139 74.2031C68.0776 74.9766 67.4546 75.5352 66.8745 76.0508C66.6382 76.2012 66.5952 76.5879 66.9604 76.3945C67.7554 76.0508 68.3354 75.3203 68.6792 74.5469C68.937 73.9668 68.7222 73.3008 68.894 72.6992C69.1304 72.2266 69.7104 72.334 70.1401 72.334C70.5698 72.3125 70.9565 71.7969 70.7846 71.3672C70.6557 70.873 71.1929 70.6367 71.5366 70.4648C72.0093 70.2285 72.396 69.7344 72.353 69.1758C72.3315 68.8965 72.353 68.3594 71.9663 68.3379V68.3379ZM70.269 71.1953C70.7846 71.3457 70.1831 72.3125 69.9038 71.6895C69.8393 71.4746 70.0327 71.1953 70.269 71.1953ZM67.9057 71.9043C68.5718 71.8613 68.3354 72.8281 67.7768 72.3984C67.4761 72.248 67.562 71.8828 67.9057 71.9043ZM43.9077 75.6426C43.9292 75.5352 43.8862 75.4707 43.8003 75.4707C43.6069 75.4707 43.4995 75.6426 43.5854 75.7715C43.6714 75.9219 43.8862 75.8359 43.9077 75.6426V75.6426ZM51.685 74.7832C51.685 74.6328 51.6206 74.5684 51.5132 74.6113C51.2554 74.6543 51.2124 74.9766 51.4702 74.9766C51.6206 74.9766 51.685 74.9121 51.685 74.7617V74.7832ZM42.0815 70.1211C41.7593 70.0566 41.5659 70.3145 41.4585 70.5508C41.2436 70.959 40.9429 71.3457 40.5346 71.5605C40.2339 71.6465 39.8901 71.5176 39.6538 71.3672C39.3315 71.2168 39.4175 70.8516 39.2671 70.5938C39.0522 70.4219 38.6655 70.6582 38.6655 70.9375C38.644 71.3027 38.9878 71.5176 39.2671 71.6465C39.5034 71.7969 39.8472 71.8828 39.9546 72.1836C39.9546 72.4414 40.0405 72.7207 40.3628 72.6133C40.7065 72.6133 40.7925 73.043 40.6421 73.3008C40.4846 73.5814 40.4242 73.9061 40.4702 74.2246C40.6421 74.375 40.8139 74.0098 40.9429 73.8809L41.1792 73.5586C41.7807 73.6016 42.4038 73.666 43.0054 73.6445C43.435 73.6445 43.8218 73.3652 44.0796 73.0645C44.4878 72.6348 44.81 72.1621 45.2612 71.8184C45.5835 71.7324 45.4116 71.1309 45.0679 71.3027C44.7671 71.4316 44.6811 71.7539 44.4663 71.9687C44.1225 72.3984 43.7573 72.8281 43.3061 73.1719C42.9839 73.3008 42.6186 73.2578 42.2749 73.1719C42.146 73.0645 42.5542 72.957 42.6186 72.8281C42.812 72.6133 43.0483 72.4414 43.1343 72.1836C43.0268 71.9687 42.7046 71.9473 42.4897 71.9473C41.9097 72.0117 41.48 72.4844 40.9214 72.5273C40.4917 72.5273 40.7065 72.0762 40.9214 71.9258C41.2866 71.4746 41.6948 71.0449 42.103 70.5938C42.2104 70.4648 42.6186 70.3359 42.3608 70.1641C42.2749 70.1211 42.1675 70.1211 42.0815 70.1211V70.1211ZM42.3608 72.3984C42.6401 72.5488 42.1675 72.8281 41.9741 72.7852C41.7163 72.8496 41.7163 72.5918 41.9311 72.5488C42.06 72.4844 42.2104 72.3984 42.3608 72.3984ZM41.48 73C41.6304 73 41.9741 73.1504 41.6518 73.2363C41.437 73.4082 41.1792 73.0645 41.48 73Z" fill="#F7E017"/>
<path d="M48.3559 73.3867C48.3559 73.1719 47.9692 73.1934 47.9262 73.4297C47.9047 73.5586 47.9262 73.6016 48.1411 73.5801C48.2485 73.5586 48.3559 73.4727 48.3559 73.3867ZM65.479 71.8828C65.5219 71.668 65.2211 71.5391 65.0708 71.668C64.9204 71.8398 65.0708 72.1191 65.2856 72.0977C65.3715 72.0547 65.4575 71.9688 65.479 71.8828ZM38.8383 69.7774C39.0961 69.5625 39.0961 69.541 38.9887 69.0254C38.8168 68.3164 38.8383 68.2305 39.0961 68.166C39.4399 68.0801 40.3208 68.5527 40.5141 68.918C40.6645 69.2188 40.6645 69.2188 40.4067 69.4551C40.1274 69.7129 40.1274 70.0137 40.4067 70.0137C40.6215 70.0137 41.2661 69.4121 41.2661 69.1973C41.2661 68.918 40.5571 68.209 40.02 67.9512C39.6827 67.7994 39.3155 67.7259 38.9458 67.7363C38.2368 67.7363 38.1508 67.8867 38.3227 68.7031C38.5375 69.6484 38.2583 69.7773 37.4633 69.0684C37.1906 68.821 36.9788 68.5138 36.8446 68.1709C36.7104 67.828 36.6575 67.4586 36.6899 67.0918C36.6899 66.1465 37.0551 65.6738 37.85 65.5879C38.4086 65.502 38.3872 65.373 37.85 65.2871C37.0122 65.1582 36.3461 65.7168 36.0668 66.6621C35.7875 67.7363 36.4536 69.0469 37.6137 69.7129C38.2368 70.0781 38.4731 70.0781 38.8383 69.7774V69.7774ZM70.7426 68.5957C70.8071 68.5313 70.8501 68.3809 70.8501 68.2734C70.8501 68.166 70.979 67.9082 71.1079 67.7363C71.2166 67.6081 71.3037 67.4629 71.3657 67.3066C71.3657 67.1133 71.0434 67.1348 70.8071 67.3066C70.5493 67.5215 70.3774 67.5215 70.3774 67.3281C70.3774 67.2852 70.4848 67.1777 70.6352 67.1133C71.0004 66.9414 71.0219 66.7695 70.7211 66.6191C70.3129 66.4473 69.9262 66.7695 69.8833 67.3066C69.8618 67.6719 69.8833 67.7363 70.1626 67.8867C70.4204 68.0371 70.4633 68.123 70.4204 68.3164C70.3559 68.7031 70.5063 68.832 70.7426 68.5957V68.5957ZM73.7504 68.252C73.9653 68.0586 74.1372 67.8223 74.1372 67.7578C74.1372 67.6934 74.3305 67.5 74.5669 67.3281C75.2114 66.8555 75.3618 66.3828 75.061 65.6309C74.9536 65.3516 74.5883 64.9434 73.8149 64.2344C73.4404 63.8653 73.0302 63.5342 72.5903 63.2461C72.3754 63.2461 72.3969 64.041 72.6118 64.1055C73.02 64.2344 73.2563 64.4063 73.8579 64.9648C74.5883 65.6094 74.9106 66.2109 74.7172 66.5332C74.5669 66.8555 74.3305 66.7481 73.686 66.1035C73.3637 65.7383 73.0415 65.459 72.977 65.459C72.8911 65.459 72.8481 65.5664 72.8481 65.7598C72.8481 65.9746 72.9555 66.1895 73.2778 66.5547C73.8149 67.1563 73.8794 67.5 73.4926 67.8223C73.3208 67.9297 73.1918 68.0371 73.1489 68.0371C72.6283 67.1487 71.9342 66.3742 71.1079 65.7598C71.0004 65.7598 70.9575 65.8457 70.9575 66.082C70.9575 66.3613 71.0219 66.4688 71.2368 66.5762C71.4946 66.7051 72.1821 67.3926 72.8481 68.209C73.0415 68.4238 73.2348 68.6387 73.2778 68.6387C73.2993 68.6387 73.5141 68.4668 73.729 68.252H73.7504ZM75.0825 64.4277C74.9965 64.1484 73.1489 62.2793 72.977 62.2793C72.8696 62.2793 72.8481 62.3867 72.8696 62.6875C72.8696 63.0527 72.934 63.1172 73.1704 63.1602C73.3422 63.2246 73.8149 63.5898 74.2446 64.0195C74.6743 64.4492 75.061 64.75 75.104 64.7285L75.0825 64.4277V64.4277ZM64.1254 85.6328C64.1431 85.672 64.1501 85.7146 64.1456 85.7568C64.1412 85.7991 64.1255 85.8397 64.1 85.875C64.0745 85.9103 64.04 85.9393 63.9994 85.9593C63.9589 85.9793 63.9136 85.9898 63.8676 85.9898C63.8217 85.9898 63.7764 85.9793 63.7358 85.9593C63.6953 85.9393 63.6607 85.9103 63.6352 85.875C63.6097 85.8397 63.5941 85.7991 63.5896 85.7568C63.5852 85.7146 63.5921 85.672 63.6098 85.6328C63.5979 85.5944 63.5959 85.5541 63.6038 85.5148C63.6117 85.4756 63.6294 85.4386 63.6554 85.4067C63.6814 85.3749 63.7151 85.349 63.7538 85.3313C63.7925 85.3135 63.8351 85.3042 63.8784 85.3042C63.9216 85.3042 63.9642 85.3135 64.0029 85.3313C64.0416 85.349 64.0753 85.3749 64.1013 85.4067C64.1274 85.4386 64.145 85.4756 64.153 85.5148C64.1609 85.5541 64.1588 85.5944 64.1469 85.6328H64.1254ZM65.1137 85.3106C65.1137 85.3789 65.0843 85.4445 65.0319 85.4929C64.9795 85.5412 64.9085 85.5684 64.8344 85.5684C64.7604 85.5684 64.6893 85.5412 64.6369 85.4929C64.5846 85.4445 64.5551 85.3789 64.5551 85.3106C64.5551 85.2422 64.5846 85.1766 64.6369 85.1282C64.6893 85.0799 64.7604 85.0527 64.8344 85.0527C64.9085 85.0527 64.9795 85.0799 65.0319 85.1282C65.0843 85.1766 65.1137 85.2422 65.1137 85.3106Z" fill="#F7E017"/>
</g>
<defs>
<clipPath id="clip0_5158_371947">
<rect x="0.358398" y="0.554688" width="110" height="110" rx="55" fill="white"/>
</clipPath>
</defs>
</svg>
