<svg width="111" height="111" viewBox="0 0 111 111" fill="none" xmlns="http://www.w3.org/2000/svg">
<g clip-path="url(#clip0_5158_370499)">
<path d="M0.972656 0.159912H110.973V110.16H0.972656V0.159912Z" fill="#EE1C25"/>
<path d="M44.9727 29.1551L16.9227 47.3051L28.4727 17.6051L38.3727 47.3051L11.9727 29.1551H44.9727Z" fill="#FFFF00"/>
<path d="M51.8003 13.7056L61.795 18.6008L51.3333 20.3984L58.115 12.4762L57.4619 23.1281L51.8003 13.7056Z" fill="#FFFF00"/>
<path d="M64.5376 23.4076L71.8446 31.8119L61.5009 29.3952L70.8372 24.7332L66.0875 34.2979L64.5376 23.4076Z" fill="#FFFF00"/>
<path d="M66.839 39.3754L70.0792 50.0365L61.6194 43.6034L72.051 43.1598L63.8054 49.955L66.839 39.3754Z" fill="#FFFF00"/>
<path d="M58.1241 50.7841L56.9993 61.8584L51.6836 52.6679L61.4681 56.2814L51.2491 59.3641L58.1241 50.7841Z" fill="#FFFF00"/>
</g>
<defs>
<clipPath id="clip0_5158_370499">
<rect x="0.972656" y="0.159912" width="110" height="110" rx="55" fill="white"/>
</clipPath>
</defs>
</svg>
