<svg width="111" height="111" viewBox="0 0 111 111" fill="none" xmlns="http://www.w3.org/2000/svg">
<g clip-path="url(#clip0_5158_370506)">
<path d="M0.981934 0.716797H37.6558V110.717H0.981934V0.716797Z" fill="#007A5E"/>
<path d="M37.6553 0.716919H74.3076V110.717H37.6553V0.716919Z" fill="#CE1126"/>
<path d="M74.3076 0.716919H110.981V110.717H74.3076V0.716919Z" fill="#FCD116"/>
<path d="M55.9823 45.9387L52.9268 55.2276L57.5712 56.8165L55.9823 45.9387Z" fill="#FCD116"/>
<path d="M55.9811 45.9384L59.0366 55.2273L54.3922 56.8162L55.9811 45.9384Z" fill="#FCD116"/>
<path d="M65.2792 52.6953L55.5007 52.6597L55.4248 57.5679L65.2792 52.6953Z" fill="#FCD116"/>
<path d="M65.2784 52.6953L57.3884 58.4717L54.442 54.5456L65.2784 52.6953Z" fill="#FCD116"/>
<path d="M61.7292 63.6268L58.7413 54.3159L54.0499 55.7604L61.7292 63.6268Z" fill="#FCD116"/>
<path d="M61.7283 63.6268L53.7965 57.908L56.62 53.8926L61.7283 63.6268Z" fill="#FCD116"/>
<path d="M50.2331 63.6268L58.165 57.908L55.3414 53.8926L50.2331 63.6268Z" fill="#FCD116"/>
<path d="M50.2327 63.6271L53.2206 54.3162L57.912 55.7607L50.2327 63.6271Z" fill="#FCD116"/>
<path d="M46.6805 52.6953L54.5706 58.4717L57.5169 54.5456L46.6805 52.6953Z" fill="#FCD116"/>
<path d="M46.6798 52.6951L56.4583 52.6595L56.5342 57.5676L46.6798 52.6951Z" fill="#FCD116"/>
</g>
<defs>
<clipPath id="clip0_5158_370506">
<rect x="0.981445" y="0.716797" width="110" height="110" rx="55" fill="white"/>
</clipPath>
</defs>
</svg>
