<svg width="111" height="111" viewBox="0 0 111 111" fill="none" xmlns="http://www.w3.org/2000/svg">
<g clip-path="url(#clip0_5158_370453)">
<path d="M0.193359 0.15979H110.193V110.16H0.193359V0.15979Z" fill="white"/>
<path d="M52.4017 91.5114C52.3775 91.5015 52.3556 91.4869 52.3372 91.4684V91.4469L52.0364 91.1461C51.7355 90.8073 51.4488 90.4561 51.1771 90.0934L50.0384 88.6754L49.888 88.4821L48.47 88.0524L47.4388 87.5582L47.9759 86.9352L49.9095 87.7516L51.3274 88.0524L53.9485 89.986C53.4442 90.4255 52.9569 90.8842 52.4876 91.361C52.4704 91.3881 52.456 91.4169 52.4446 91.4469L52.6165 91.3395L52.7884 91.4899L52.4231 91.5114H52.4017ZM42.6263 88.568C41.3802 88.568 40.1556 88.2242 38.9739 87.5367C37.7923 86.8492 39.1458 87.2574 39.511 86.9782C39.8548 86.7203 40.4993 86.3981 41.5521 86.3981C42.7981 86.3981 44.3021 86.8278 46.0423 87.6442C45.9778 87.6871 44.6028 88.568 42.6263 88.568ZM37.2552 87.3864C37.0188 87.3864 36.8255 87.2789 36.6536 87.1285C36.5232 86.9745 36.4345 86.7895 36.3958 86.5914C36.339 86.3451 36.3173 86.0919 36.3313 85.8395C36.4249 85.7912 36.5272 85.762 36.6321 85.7535C37.1048 85.7535 37.47 86.1832 37.6204 86.5699C37.7063 86.7848 37.7278 86.9781 37.6849 87.1285C37.6419 87.2789 37.4485 87.3649 37.2552 87.3649V87.3864ZM46.7083 86.2692C43.5286 85.8395 42.1966 84.6793 41.6165 83.777C41.2508 83.2413 41.0767 82.5978 41.1224 81.9508C41.1224 81.9508 41.3372 81.9078 41.6165 81.9078C42.4759 81.9078 44.6243 82.3375 46.7083 86.2692ZM40.1985 85.6461C38.845 85.6461 37.7923 85.4313 37.1263 84.9586C36.8296 84.7698 36.5915 84.5019 36.4388 84.1852C36.3845 84.0697 36.3482 83.9465 36.3313 83.8199C36.8499 83.6112 37.4052 83.5089 37.9642 83.5192C39.0384 83.5192 40.6282 83.8629 42.304 85.4957C41.6054 85.5833 40.9025 85.6335 40.1985 85.6461V85.6461ZM33.6243 85.3883C32.1849 85.3883 30.2083 84.9586 28.9837 83.734C30.0049 83.4918 31.0495 83.3621 32.0989 83.3473C33.4524 83.3473 34.4622 83.6051 35.1497 84.1207C35.4075 84.2926 35.5364 84.4645 35.5579 84.6364C35.5794 84.7653 35.5149 84.9156 35.3645 85.0231C35.0638 85.2379 34.5052 85.3883 33.7317 85.3883H33.6243ZM28.9622 83.025C28.8794 83.022 28.7982 83.0012 28.7241 82.9642C28.65 82.9271 28.5846 82.8746 28.5325 82.8102C28.4233 82.6726 28.3496 82.5103 28.3177 82.3375C28.2317 81.9938 28.2532 81.6715 28.2532 81.6715C28.3179 81.6314 28.392 81.6091 28.4681 81.6071C28.6829 81.6071 28.8548 81.7145 28.9622 81.8219C29.0959 81.9555 29.1986 82.1169 29.263 82.2946C29.3274 82.5094 29.3489 82.6598 29.306 82.7887C29.263 82.8961 29.1341 83.0035 28.9622 83.0035V83.025ZM39.7044 82.7672C39.4681 82.7672 39.2747 82.6813 39.1243 82.5309C38.9939 82.3768 38.9052 82.1919 38.8665 81.9938C38.8077 81.7404 38.786 81.4799 38.802 81.2203C38.8905 81.1821 38.9851 81.1603 39.0813 81.1559C39.554 81.1559 39.9407 81.5641 40.0696 81.9508C40.1556 82.1657 40.177 82.3805 40.1341 82.5094C40.0696 82.6598 39.8978 82.7672 39.7044 82.7672V82.7672ZM34.4622 82.5524C31.5833 82.4449 30.0794 81.6285 29.3489 80.9625C29.0217 80.68 28.7518 80.3372 28.554 79.9528C28.4888 79.8153 28.4384 79.6712 28.4036 79.5231C28.4036 79.5231 28.6614 79.4156 29.1126 79.4156H29.177C30.1438 79.4156 32.1419 79.8239 34.4622 82.5524V82.5524ZM37.5989 82.2516C35.9534 82.0751 34.4235 81.3216 33.2806 80.1246C32.8493 79.6692 32.5197 79.1273 32.3138 78.5348C32.3138 78.5348 32.6145 78.4703 33.0442 78.4489C33.1087 78.4471 33.1732 78.4471 33.2376 78.4489C34.3978 78.4703 36.5247 79.0074 37.5989 82.2516V82.2516ZM25.6966 81.1344C24.9231 81.1344 24.1927 81.0699 23.5052 80.8766C22.2806 80.5758 21.7649 80.1246 21.5286 79.7809C21.4375 79.6378 21.3788 79.4765 21.3567 79.3082C21.3487 79.244 21.3487 79.1791 21.3567 79.1149C21.3567 79.1149 22.1517 78.9 23.2688 78.8785C23.8383 78.8684 24.4073 78.9188 24.9661 79.0289C26.1371 79.2718 27.1818 79.9275 27.9095 80.8766C27.9095 80.8766 26.9856 81.1344 25.6966 81.1344V81.1344ZM31.0677 79.2008C30.8528 79.2008 30.638 79.0934 30.4876 78.943C30.3572 78.7889 30.2684 78.604 30.2298 78.4059C30.1724 78.1596 30.1507 77.9064 30.1653 77.6539C30.2538 77.6157 30.3484 77.5939 30.4446 77.5895H30.4661C30.9388 77.5895 31.304 77.9762 31.4544 78.3844C31.5403 78.5992 31.5618 78.7711 31.4974 78.943C31.4329 79.0934 31.2825 79.1793 31.0677 79.1793V79.2008ZM27.0286 78.6207C27.0071 78.6207 25.9329 78.3629 24.8372 77.6754C23.806 77.0309 22.5813 75.9567 22.4095 74.2379C22.2376 72.5192 22.5169 74.1949 22.6673 74.1949H22.7103C23.011 74.1949 23.6341 74.2809 24.386 74.8395C25.3528 75.5699 26.2337 76.859 27.0286 78.6422V78.6207ZM29.6712 78.5348C29.6712 78.5348 28.8978 78.234 27.9524 77.4176C26.5908 76.2635 25.5293 74.7964 24.8587 73.1422C24.8587 73.1422 25.0735 73.0348 25.3958 73.0133C25.4173 73.0124 25.4388 73.0124 25.4603 73.0133H25.5462C25.9759 73.0133 26.6419 73.2067 27.3938 74.0231C28.4695 75.3451 29.2463 76.8842 29.6712 78.5348ZM22.7962 78.3199C21.9368 78.3199 21.636 77.8473 21.5286 77.6539C21.4444 77.4352 21.4149 77.1992 21.4427 76.9664C21.583 76.9289 21.7272 76.9073 21.8724 76.902H21.9153C22.6028 76.902 23.1614 77.2672 23.3978 77.611C23.4407 77.6754 23.5911 77.9332 23.4622 78.1051C23.3763 78.2555 23.1614 78.3199 22.8177 78.3199H22.7962ZM20.8626 75.8707C20.3685 75.8707 19.6165 75.8278 18.8216 75.6989C18.0267 75.5485 17.5755 74.8824 17.3392 74.3453C17.1808 73.9821 17.0723 73.599 17.0169 73.2067C19.4446 73.2711 20.6048 73.9801 21.1419 74.5602C21.4751 74.9121 21.6796 75.3664 21.722 75.8492H20.8626V75.8707ZM23.3978 73.3356C23.1991 73.087 23.0127 72.8289 22.8392 72.5621C22.5384 72.111 22.2806 71.6383 22.2806 71.2731C22.2608 70.7415 22.2178 70.211 22.1517 69.6832L22.0013 68.609C22.0657 68.652 23.5267 69.1891 23.5267 70.5641C23.5267 71.9391 23.3978 73.3141 23.3978 73.3356V73.3356ZM21.5071 73.2067H21.4427C21.013 73.1207 20.261 72.777 19.4231 72.3043C18.6279 71.8816 17.9032 71.338 17.2747 70.693C16.888 70.2418 16.6302 69.5113 16.5872 68.5446C16.5523 68.1156 16.5523 67.6845 16.5872 67.2555C16.6686 67.2189 16.7559 67.197 16.845 67.191C17.1673 67.191 17.4896 67.3414 17.9622 67.6637C18.3916 67.965 18.7941 68.3029 19.1653 68.6735C19.6282 69.1365 20.0657 69.6241 20.4759 70.1344C20.9325 70.9858 21.3274 71.869 21.6575 72.777V73.0992C21.6403 73.1374 21.6097 73.168 21.5716 73.1852C21.5432 73.191 21.514 73.191 21.4856 73.1852L21.5071 73.2067Z" fill="#435125"/>
<path d="M47.3947 91.5114C47.4189 91.5015 47.4408 91.4869 47.4592 91.4684V91.4469L47.76 91.1461C48.0609 90.8073 48.3476 90.4561 48.6193 90.0934L49.758 88.6754L49.9084 88.4821L51.3264 88.0524L52.3576 87.5582L51.8205 86.9352L49.8869 87.7516L48.4689 88.0524L45.8479 89.986C46.3522 90.4255 46.8395 90.8842 47.3088 91.361C47.326 91.3881 47.3404 91.4169 47.3518 91.4469L47.1799 91.3395L47.008 91.4899L47.3732 91.5114H47.3947ZM57.1701 88.568C58.4162 88.568 59.6408 88.2242 60.8225 87.5367C62.0041 86.8492 60.6506 87.2574 60.2854 86.9782C59.9416 86.7203 59.2971 86.3981 58.2443 86.3981C56.9982 86.3981 55.4943 86.8278 53.7541 87.6442C53.8186 87.6871 55.1936 88.568 57.1701 88.568ZM62.5412 87.3864C62.7775 87.3864 62.9709 87.2789 63.1428 87.1285C63.2732 86.9745 63.3619 86.7895 63.4006 86.5914C63.4574 86.3451 63.4791 86.0919 63.465 85.8395C63.3715 85.7912 63.2692 85.762 63.1643 85.7535C62.6916 85.7535 62.3264 86.1832 62.176 86.5699C62.09 86.7848 62.0686 86.9781 62.1115 87.1285C62.1545 87.2789 62.3479 87.3649 62.5412 87.3649V87.3864ZM53.0881 86.2692C56.2678 85.8395 57.5998 84.6793 58.1799 83.777C58.5456 83.2413 58.7197 82.5978 58.674 81.9508C58.674 81.9508 58.4592 81.9078 58.1799 81.9078C57.3205 81.9078 55.1721 82.3375 53.0881 86.2692ZM59.5979 85.6461C60.9514 85.6461 62.0041 85.4313 62.6701 84.9586C62.9668 84.7698 63.2048 84.5019 63.3576 84.1852C63.4119 84.0697 63.4482 83.9465 63.465 83.8199C62.9464 83.6112 62.3912 83.5089 61.8322 83.5192C60.758 83.5192 59.1682 83.8629 57.4924 85.4957C58.191 85.5833 58.8939 85.6335 59.5979 85.6461V85.6461ZM66.1721 85.3883C67.6115 85.3883 69.5881 84.9586 70.8127 83.734C69.7915 83.4918 68.7469 83.3621 67.6975 83.3473C66.3439 83.3473 65.3342 83.6051 64.6467 84.1207C64.3889 84.2926 64.26 84.4645 64.2385 84.6364C64.217 84.7653 64.2814 84.9156 64.4318 85.0231C64.7326 85.2379 65.2912 85.3883 66.0646 85.3883H66.1721ZM70.8342 83.025C70.917 83.022 70.9982 83.0012 71.0723 82.9642C71.1464 82.9271 71.2117 82.8746 71.2639 82.8102C71.3731 82.6726 71.4468 82.5103 71.4787 82.3375C71.5646 81.9938 71.5432 81.6715 71.5432 81.6715C71.4785 81.6314 71.4044 81.6091 71.3283 81.6071C71.1135 81.6071 70.9416 81.7145 70.8342 81.8219C70.7005 81.9555 70.5978 82.1169 70.5334 82.2946C70.4689 82.5094 70.4475 82.6598 70.4904 82.7887C70.5334 82.8961 70.6623 83.0035 70.8342 83.0035V83.025ZM60.092 82.7672C60.3283 82.7672 60.5217 82.6813 60.6721 82.5309C60.8025 82.3768 60.8912 82.1919 60.9299 81.9938C60.9887 81.7404 61.0104 81.4799 60.9943 81.2203C60.9059 81.1821 60.8113 81.1603 60.715 81.1559C60.2424 81.1559 59.8557 81.5641 59.7268 81.9508C59.6408 82.1657 59.6193 82.3805 59.6623 82.5094C59.7268 82.6598 59.8986 82.7672 60.092 82.7672V82.7672ZM65.3342 82.5524C68.2131 82.4449 69.717 81.6285 70.4475 80.9625C70.7747 80.68 71.0446 80.3372 71.2424 79.9528C71.3076 79.8153 71.358 79.6712 71.3928 79.5231C71.3928 79.5231 71.135 79.4156 70.6838 79.4156H70.6193C69.6525 79.4156 67.6545 79.8239 65.3342 82.5524V82.5524ZM62.1975 82.2516C63.843 82.0751 65.3729 81.3216 66.5158 80.1246C66.9471 79.6692 67.2767 79.1273 67.4826 78.5348C67.4826 78.5348 67.1818 78.4703 66.7522 78.4489C66.6877 78.4471 66.6232 78.4471 66.5588 78.4489C65.3986 78.4703 63.2717 79.0074 62.1975 82.2516V82.2516ZM74.0998 81.1344C74.8732 81.1344 75.6037 81.0699 76.2912 80.8766C77.5158 80.5758 78.0314 80.1246 78.2678 79.7809C78.3589 79.6378 78.4176 79.4765 78.4396 79.3082C78.4477 79.244 78.4477 79.1791 78.4396 79.1149C78.4396 79.1149 77.6447 78.9 76.5275 78.8785C75.9581 78.8684 75.3891 78.9188 74.8303 79.0289C73.6593 79.2718 72.6146 79.9275 71.8869 80.8766C71.8869 80.8766 72.8107 81.1344 74.0998 81.1344V81.1344ZM68.7287 79.2008C68.9436 79.2008 69.1584 79.0934 69.3088 78.943C69.4392 78.7889 69.5279 78.604 69.5666 78.4059C69.624 78.1596 69.6457 77.9064 69.6311 77.6539C69.5426 77.6157 69.448 77.5939 69.3518 77.5895H69.3303C68.8576 77.5895 68.4924 77.9762 68.342 78.3844C68.2561 78.5992 68.2346 78.7711 68.299 78.943C68.3635 79.0934 68.5139 79.1793 68.7287 79.1793V79.2008ZM72.7678 78.6207C72.7893 78.6207 73.8635 78.3629 74.9592 77.6754C75.9904 77.0309 77.215 75.9567 77.3869 74.2379C77.5588 72.5192 77.2795 74.1949 77.1291 74.1949H77.0861C76.7854 74.1949 76.1623 74.2809 75.4104 74.8395C74.4436 75.5699 73.5627 76.859 72.7678 78.6422V78.6207ZM70.1252 78.5348C70.1252 78.5348 70.8986 78.234 71.8439 77.4176C73.2056 76.2635 74.2671 74.7964 74.9377 73.1422C74.9377 73.1422 74.7229 73.0348 74.4006 73.0133C74.3791 73.0124 74.3576 73.0124 74.3361 73.0133H74.2502C73.8205 73.0133 73.1545 73.2067 72.4025 74.0231C71.3269 75.3451 70.5501 76.8842 70.1252 78.5348ZM77.0002 78.3199C77.8596 78.3199 78.1604 77.8473 78.2678 77.6539C78.352 77.4352 78.3815 77.1992 78.3537 76.9664C78.2134 76.9289 78.0692 76.9073 77.924 76.902H77.8811C77.1936 76.902 76.635 77.2672 76.3986 77.611C76.3557 77.6754 76.2053 77.9332 76.3342 78.1051C76.4201 78.2555 76.635 78.3199 76.9787 78.3199H77.0002ZM78.9338 75.8707C79.4279 75.8707 80.1799 75.8278 80.9748 75.6989C81.7697 75.5485 82.2209 74.8824 82.4572 74.3453C82.6156 73.9821 82.724 73.599 82.7795 73.2067C80.3518 73.2711 79.1916 73.9801 78.6545 74.5602C78.3213 74.9121 78.1168 75.3664 78.0744 75.8492H78.9338V75.8707ZM76.3986 73.3356C76.5973 73.087 76.7837 72.8289 76.9572 72.5621C77.258 72.111 77.5158 71.6383 77.5158 71.2731C77.5356 70.7415 77.5786 70.211 77.6447 69.6832L77.7951 68.609C77.7307 68.652 76.2697 69.1891 76.2697 70.5641C76.2697 71.9391 76.3986 73.3141 76.3986 73.3356V73.3356ZM78.2893 73.2067H78.3537C78.7834 73.1207 79.5354 72.777 80.3732 72.3043C81.1685 71.8816 81.8932 71.338 82.5217 70.693C82.9084 70.2418 83.1662 69.5113 83.2092 68.5446C83.2441 68.1156 83.2441 67.6845 83.2092 67.2555C83.1277 67.2189 83.0404 67.197 82.9514 67.191C82.6291 67.191 82.3068 67.3414 81.8342 67.6637C81.4048 67.965 81.0023 68.3029 80.6311 68.6735C80.1682 69.1365 79.7307 69.6241 79.3205 70.1344C78.8639 70.9858 78.469 71.869 78.1389 72.777V73.0992C78.1561 73.1374 78.1866 73.168 78.2248 73.1852C78.2532 73.191 78.2824 73.191 78.3107 73.1852L78.2893 73.2067Z" fill="#435125"/>
<path d="M100.805 17.6697L100.375 17.8416L100.203 17.906L99.6875 17.863L99.1934 18.0994L98.334 18.7009L98.291 18.7224L97.9687 18.8083L97.668 18.6794L97.4961 18.7654L97.4316 19.1091L97.2812 19.3669L97.0664 19.5173L96.3789 19.5818L95.7988 19.8826L95.0254 19.6677L94.6816 19.8181L93.9297 20.4841L93.543 20.6775H93.4141L92.8984 20.6345L92.6836 20.7205L92.3613 20.9998L91.7598 21.0427L91.5664 21.1716L91.2656 21.7732L90.9434 22.1169L90.7715 22.1384L90.5566 22.074L90.4062 22.0955L90.3418 22.4822L90.2129 22.6541L89.7832 22.783L89.4824 23.0623L89.1816 23.1912H88.709L88.3437 23.406L87.6133 23.4705L87.334 23.7498L87.248 23.8142L87.1191 23.9001L86.9043 24.0291L86.8398 24.072L86.5605 24.0076L86.2383 24.1365L86.1094 23.9216L85.8945 24.072H85.5937L85.2285 23.9216L84.9492 23.7927L84.7344 23.8357L84.6699 24.1794V24.2224L84.4551 24.5017L84.0469 24.738L84.0039 24.824L83.5527 25.4041L82.6934 26.3279L81.9414 26.6931L81.1894 26.908L80.6523 27.3376L79.2559 28.0466L77.0644 29.1423L76.6133 29.2927L75.9687 29.3787L74.8301 29.8083L73.7988 30.1091L73.7344 30.1306L73.541 30.1951L72.123 30.6248L71.457 30.5603L71.0488 30.7107L70.0176 30.5818L69.3086 30.6033L68.8789 30.6892L68.0195 31.1189L66.5801 31.7849L66.1074 32.2146L65.3555 32.6228L64.4961 32.8806V32.5154L64.1953 32.6013L63.9805 32.6658L63.2715 32.7732H62.8848L62.6484 32.7087H62.6055L61.166 33.2029L59.5762 33.3533L58.7813 33.6111H58.1797L57.793 33.697L57.0625 33.8044L56.8047 33.7185H56.7402L54.5918 33.8044L53.6035 33.697L53.1309 33.8044L52.3574 33.5251L51.1973 33.3962L50.9394 33.3103L50.3379 33.1384L50.0586 33.2888L49.8437 33.3103L49.3711 33.1384H49.1777L48.791 33.2888L48.5547 33.2244L48.3398 33.0525L47.8242 32.988L47.5234 32.7087L45.8047 32.9451L45.332 32.8162L43.7637 32.3435L43.5059 32.365L43.2051 32.5798L42.7324 32.7732L42.3242 32.8806H41.7656L41.1211 32.7302L40.4766 32.408L40.2187 32.3435L39.6816 32.408H39.5098L38.5215 31.8709L37.2324 31.0759L36.3516 30.6462L36.0078 30.6033L35.9648 30.7537L36.1367 31.2693L36.2012 31.7849L36.1797 32.2361V32.5369L36.2441 32.7947L36.5664 33.1384L36.6953 33.5037L36.8027 34.4705V35.4587L36.6309 37.0271L36.5879 37.2419L36.3945 38.0798L36.2441 38.8103L35.5996 40.8083L35.4062 41.0447L34.9766 41.3455L33.9668 42.033L33.2363 42.4626L33.0215 42.5486L32.4199 42.5916L32.0547 42.5701L31.582 42.3123L31.1523 42.2048L30.5508 41.7751L29.8848 41.6462L29.1543 41.2166L28.9824 41.0017L28.5742 40.9587L28.0371 40.7869L27.8223 40.7439L27.6934 40.7009L27.0059 40.6794L26.3613 40.3787L26.0176 40.2927L25.5449 40.2712L25.0508 40.4861L24.8145 40.615L24.4922 40.4861H24.2773L23.998 40.8943L23.9766 40.9587L23.8047 41.0447H23.3965L23.2246 41.1091L22.9668 41.2166L22.752 41.324L22.6445 41.3669H22.5586L22.4512 41.4099H22.3008L22.043 41.281L21.9141 41.1951L21.6777 41.1521L21.5488 41.238V41.6677L21.4199 41.9041L21.0332 42.2693L20.668 42.5916L20.4102 42.9783L19.7441 44.5037L19.3145 45.1482L19.1855 45.2771L18.7559 45.7712L18.3477 46.072L17.4453 46.7595L16.5859 47.0818L15.8555 47.2322H15.5117L14.8242 47.1462L14.2227 46.9529L13.5566 46.5232L12.8047 45.9431L11.752 44.8904L11.6016 44.8044H11.5801L11.2578 44.5896H11L10.9141 44.74L10.8496 44.9548L10.8066 45.1697L10.6992 46.3513V46.4158L10.7637 46.8884L11.5801 48.0271L11.8164 48.6287L11.8594 48.6931L12.0312 48.9724L12.1602 49.1873L12.4395 50.0037L12.2461 50.4763L12.3535 50.7771L12.0957 50.9705L12.0527 51.2283L12.7832 52.1521L12.9336 52.5388L12.7617 53.0974L12.4824 53.3982L12.3965 53.4841L12.4395 53.7205L12.7832 54.0212L13.3418 54.5369L13.6426 55.2888L13.8574 55.4822L14.1367 55.4177L14.2871 55.5466H14.502L14.7168 55.7615L14.8672 55.8259L15.1035 55.9334L15.2754 56.1697L15.3184 56.8787L15.6621 57.781V58.3396L15.877 58.6833L15.9414 58.9627L15.834 59.7146L16.0918 59.9509L16.3711 59.8865L16.5645 59.9294L16.8652 60.1658L17.2305 60.7244L17.5742 60.6814L17.7891 60.7888L18.8633 61.7556L19.1211 61.8845L19.3359 61.9705L19.5508 62.1853L19.873 61.9705H19.916L20.2812 61.9275L20.4531 62.0349L20.7539 62.2498H21.1836L22.043 62.5291L22.4512 62.615L23.2246 63.1091L23.5684 63.324L23.7617 63.4744L24.0195 63.6892L24.5352 63.9041L24.9648 64.0115L25.2227 64.0759L25.416 64.1404L26.3828 64.5271L26.8984 64.6345L27.3926 64.8279L27.7363 64.9568H27.9941L28.3594 64.6345H28.7246L29.0254 64.699L29.3047 64.656L29.7559 64.3767L29.8633 64.2263L30.1855 64.0759L31.2598 63.947L31.582 64.0544L32.3984 63.6892L32.957 63.8396L33.4297 63.6677L34.5039 63.9041L34.7832 64.1189L35.084 64.4626H35.4707L35.3418 64.7205L35.793 65.2146L36.2227 65.8591V65.9236L36.5449 66.8044L36.7598 67.1267L36.9316 67.5564V67.8572L36.6953 68.0505L36.6523 68.158V68.2009L36.6953 68.3084L36.7812 68.2654L36.9531 68.158L37.168 68.1365L37.5547 68.1794H37.791L38.1992 68.0076L38.457 67.8787L38.8867 68.0505H39.3379L39.5313 68.1365L40.0898 68.3728L40.3691 68.4158L40.4766 68.3298L40.541 68.1794L40.498 68.0076L40.2832 67.7498L39.832 67.2126L39.6172 66.9333L39.4883 66.5466L39.4453 66.031L39.4023 65.6873L39.4668 65.2361L39.5957 65.0642L39.6816 64.699L39.7031 64.613L39.9609 64.2693L40.6484 63.8396L41.3789 63.1951L41.959 62.7869L42.5605 62.5291V62.4646L42.6465 62.4861L44.1504 61.9705H44.1934L44.8594 61.8416L49.4355 62.1638L49.6074 62.1208L49.7578 61.6912L49.8437 61.6052L49.8867 61.5623L50.4023 61.3474L50.6172 61.3044L51.2617 61.4763L51.541 61.5408L51.9707 61.3044H52.2715L52.916 60.9607H53.3027L53.4316 60.9177L54.1836 60.3591L54.9141 60.1443L55.1289 60.0583L55.1719 60.0154L55.9238 59.6287L56.3965 59.2634L56.8047 59.0486L57.2344 58.9412L58.416 58.8552L58.6523 58.4685L59.1465 58.3826L59.4687 58.0388L59.8125 57.9099L60.0488 57.5447L60.2637 57.2439L60.5645 57.072L61.4883 57.0291L62.6055 57.158L62.7559 57.072L62.9922 56.1697L63.25 55.9978L63.959 54.988V54.3005L64.0879 53.8494L64.002 53.033L64.1094 52.2166L64.5391 51.1853L64.9258 50.7556L65.5488 50.3474L65.8711 50.2185L66.3008 50.1326H66.3867L66.4941 50.1111L68.041 50.0896H68.5996L69.1152 50.0681L70.4043 50.283L70.5117 50.3259L70.9414 50.4548L71.457 50.863L71.9941 51.3787L72.1016 51.4861L72.4453 51.615L72.5527 51.6794L72.8535 51.615L73.2617 51.4001L73.5625 51.1423L73.9922 50.9275V50.906L74.2285 50.5408L74.3359 50.3904L75.1523 50.0681L76.1191 50.0251L76.2266 49.9607L76.291 49.9392L76.5273 49.6384H76.7637L77.3437 49.8533L77.7519 49.7673L78.0742 49.8962L78.3105 49.8533L78.7832 49.8103L79.2988 50.1541L79.5996 50.197L80.6309 50.7986H80.7168L80.7598 50.8201L80.8887 50.7986L81.082 50.7341L81.125 50.7556L81.2324 50.9275L81.4043 50.949L81.5977 50.6912L81.5117 50.5837L81.4902 50.5408L81.125 50.4548L80.7812 49.8962L81.1035 49.5525L80.6094 48.9509L80.5234 48.8435L80.5019 48.8005L80.3301 48.5427L79.4707 47.2107L78.3105 46.3083L77.9238 45.9861L77.7734 45.8787L77.1719 45.2556L76.7422 44.697L76.6777 44.5681L76.5918 44.3533L76.334 43.8162L75.9043 43.4509L75.5176 43.0642V43.0427L74.7441 42.0115L74.6152 41.8396L74.4434 41.7322H74.0566L74.0137 41.6892V41.6677L74.1855 41.4529L74.4004 41.4099L74.4863 41.2166L74.0996 40.0994V40.0564L74.0566 39.7126L74.3789 38.0798L74.4219 37.865L74.959 36.7908L75.3027 36.5115L75.6465 35.8025L75.9687 35.3513L76.2695 35.0505L76.3125 35.0291L76.8496 34.7068L77.3008 34.6423L77.7305 34.5779L78.4824 34.7927H79.3418L79.6641 34.7498L80.2012 34.5779L80.459 34.4275L80.5879 34.2126L80.8457 33.3103L80.9531 33.0095L81.1035 32.7087L82.0918 31.5701L82.8223 30.9041L84.4766 29.6794L85.293 29.2068L85.7012 28.949L89.3965 27.3162L90.3418 26.3494L90.8359 25.8337L91.7383 25.2537L92.7695 24.824L93.6504 24.115L93.8437 23.8787L94.1016 23.0837L94.2949 23.0408L94.4883 22.6326L94.5312 22.5251L95.2617 22.0095L95.3477 21.9666L98.1621 20.5701L98.5918 20.613L98.8066 20.2908L99.623 20.1619L99.7519 20.1189L99.9668 20.033L100.139 19.7322V19.6677L100.16 18.8943L100.332 18.6794L100.439 18.1638L100.525 18.0349L100.611 17.9275L100.848 17.7556L100.805 17.6482V17.6697Z" fill="#D47600"/>
</g>
<defs>
<clipPath id="clip0_5158_370453">
<rect x="0.193848" y="0.159912" width="110" height="110" rx="55" fill="white"/>
</clipPath>
</defs>
</svg>
