<svg width="111" height="111" viewBox="0 0 111 111" fill="none" xmlns="http://www.w3.org/2000/svg">
<g clip-path="url(#clip0_5158_363210)">
<path fill-rule="evenodd" clip-rule="evenodd" d="M-10.3037 0.990967H116.776V110.991H-10.3037V0.990967Z" fill="#BE0027"/>
<path fill-rule="evenodd" clip-rule="evenodd" d="M0.00878906 110.991L110.009 110.926V55.9907L0.00878906 110.991Z" fill="#B4D7F4"/>
<path fill-rule="evenodd" clip-rule="evenodd" d="M0.00878906 0.990967L110.009 1.05542V55.991L0.00878906 0.990967Z" fill="#239E46"/>
<path fill-rule="evenodd" clip-rule="evenodd" d="M31.9775 76.4868C30.1084 77.0024 29.0342 78.4634 29.0557 79.8384L38.251 79.7954C38.3369 78.313 37.1338 76.9595 35.2861 76.4224C44.3096 76.2505 52.1299 72.856 53.5479 70.7075C52.1514 70.0845 50.5186 71.0728 49.3584 70.8364C52.1084 69.5689 60.3584 64.2192 59.0264 58.5044C57.9401 61.222 55.9931 63.5086 53.4834 65.0142C56.5557 60.3306 60.7881 55.4536 57.1357 51.6938C57.3076 53.8853 55.7178 56.2915 55.0303 56.4634C56.8135 51.522 58.5322 45.2915 54.6436 41.2095C55.1592 42.6919 54.9658 46.8599 54.2568 47.0532C54.042 43.6802 53.4619 36.6118 49.917 36.7192C51.0557 37.7075 51.5283 40.4575 51.5713 43.2075C50.7549 41.3169 49.8525 39.8989 47.876 38.481C46.126 35.4507 43.6346 32.915 40.6357 31.1118C40.6889 32.3781 41.0516 33.612 41.6921 34.7057C42.3325 35.7993 43.2312 36.7193 44.3096 37.3853C42.6982 37.2778 41.0869 34.2271 39.3682 34.1411C37.9932 34.0767 36.9189 35.3872 34.6631 34.6353C34.9209 35.3657 35.9522 35.7095 36.167 36.2466C35.7158 36.5689 34.5557 36.2036 33.6104 35.7095C34.9209 37.4712 36.9404 38.5024 38.6592 38.1587C40.7002 37.772 42.8916 37.9868 44.9756 39.1685C43.675 39.4409 42.336 39.4773 41.0225 39.2759C42.2471 40.5005 43.042 41.3169 45.1475 41.2954C47.0381 41.2954 48.0264 40.3071 48.499 40.9087C49.6807 42.3052 50.4756 43.7017 51.4639 45.3345C49.2725 45.5923 49.9385 42.8853 47.5107 41.4888C46.1572 44.3247 49.0791 47.6548 51.0772 49.0513C51.0772 51.1782 51.3994 52.9185 52.3018 54.5513C52.9033 55.6899 53.6982 56.8501 53.3975 59.4282C52.2158 58.5689 51.0342 55.6255 51.4639 53.3052C49.96 53.7134 49.4014 56.313 50.0889 57.645C50.626 58.6548 50.9697 60.5884 50.3682 61.4478C49.7666 62.2427 49.7236 62.1567 49.7236 63.8755C49.7236 64.9067 49.165 66.1314 48.2197 66.9692C48.4346 66.2603 48.6494 64.9927 48.4346 64.2192C47.6826 65.4868 45.835 66.7759 45.2549 68.1294C44.6748 69.4829 44.5244 71.8247 41.7529 72.3618C38.165 73.0708 36.9189 73.6938 34.6201 74.6392C34.3623 72.8989 35.1357 69.2466 36.5967 69.4614C38.0361 69.7192 42.3545 67.9575 40.8076 64.3052C40.5068 65.4653 39.4756 66.5825 38.3799 66.647C39.5615 65.1001 41.6885 63.4888 40.6572 60.9106C40.0342 62.2202 39.0407 63.3183 37.7998 64.0689C39.2822 61.2544 37.9717 60.4165 36.2314 62.7153C35.5869 63.6177 35.1572 65.4224 34.749 67.6997C34.0615 65.8521 34.1045 63.4028 33.2881 61.4263C32.4287 59.2778 34.4268 58.6978 35.3506 58.8696C37.6279 59.4927 41.4522 59.4927 41.1514 55.7114C40.1846 57.0005 38.4443 57.3872 36.5752 56.936C38.6807 55.3892 40.335 52.5317 37.9932 51.0278C37.8863 51.9148 37.5616 52.7615 37.048 53.4925C36.5345 54.2235 35.848 54.816 35.0498 55.2173C34.6703 53.8055 34.6482 52.3214 34.9854 50.8989C34.0615 51.8657 33.3955 53.8638 32.8584 56.1626C32.8417 54.4326 33.0807 52.7096 33.5674 51.0493C34.04 49.2661 35.2432 50.4263 37.0693 50.5552C38.8311 50.6626 41.2588 49.6958 40.8076 47.2896C40.2061 48.2349 38.96 48.6001 37.6924 48.5142C39.2178 47.5903 41.8604 45.936 40.4209 43.4439C39.7979 44.3892 39.6045 45.2056 37.8428 45.5063C38.2939 44.4321 38.3799 42.9282 39.7549 42.3481C37.3057 41.854 35.9092 43.4653 35.2002 45.9575C34.8994 44.2388 34.5557 43.5942 34.4912 42.3052C35.8232 40.8442 35.9522 37.9653 33.0947 37.3423C32.9229 38.8032 32.9873 39.1685 33.3096 40.3501C31.9561 39.5767 30.0869 39.1255 28.7979 40.2642C29.6572 41.188 30.9893 41.9829 33.0303 40.9946C32.5361 42.563 31.29 42.2837 29.5713 41.6821C30.624 43.6587 31.9346 44.0239 33.417 43.7876C34.1689 45.8071 34.2119 47.3325 31.9775 50.2759C32.0635 48.4497 31.9346 47.0962 30.4736 45.6138C29.249 44.3892 28.2393 45.6782 30.1729 48.3853C28.7579 47.262 27.7473 45.7083 27.2939 43.9595C26.9072 46.1294 27.251 48.686 28.4541 50.147C27.874 50.7485 27.2295 50.0825 26.2842 48.6001C26.6279 53.3696 28.6689 54.272 31.4189 53.2192C31.4834 55.8403 31.4834 58.2681 31.6338 61.4263C30.4511 59.5806 28.8265 58.0594 26.9072 57.0005C26.542 58.2896 27.874 59.9439 28.626 60.8677C27.4873 60.6528 25.0381 58.7837 25.0381 58.7837C24.7803 60.9106 27.5303 62.8657 29.3135 63.7466C27.2295 63.6606 26.3057 62.8872 24.9521 61.5981C24.9736 67.4849 31.333 66.4536 32.5361 65.5513L33.0732 74.7036C31.2686 74.4028 31.4189 73.8442 29.8721 73.7153C25.5967 73.5435 22.2021 68.5806 21.085 64.9282C20.7627 65.5298 21.0205 66.1528 20.7197 66.9048C20.0322 65.1001 19.1514 62.8013 17.9482 61.7271C18.249 62.7583 18.292 63.8325 18.1846 65.7661C17.7764 64.4985 17.3896 64.1118 17.3682 62.6294C17.3896 61.4907 18.4639 60.6528 18.4209 59.0415C18.3779 57.8814 17.3037 55.3462 17.1318 53.3696C16.6162 55.4106 16.2939 57.5376 15.499 58.7837C15.9072 56.6353 15.7783 55.1314 16.4443 53.6919C17.2178 52.145 17.8623 50.7915 17.3467 49.2446C16.8525 49.8462 17.0244 50.3833 15.7998 51.8228C15.5205 50.2544 17.3896 47.7407 19.1943 46.7095C20.4834 46.0649 22.0732 43.6372 21.042 41.9829C19.8389 42.8423 19.3018 44.0239 17.6045 46.0005C18.8076 41.2739 21.9443 40.0493 25.7041 40.0278C26.5635 40.0278 28.2178 39.7271 28.7119 38.6313C27.6377 39.0396 26.3701 39.0825 25.2744 38.8462C26.0693 37.686 27.7881 37.8364 29.3779 37.8149C30.624 37.8149 32.5791 37.6431 33.374 35.8813C31.6451 36.5414 29.755 36.6539 27.96 36.2036C30.3447 34.9575 34.083 34.8286 35.9951 33.1958C33.8037 31.5845 28.3467 33.604 24.9092 35.9673C25.876 35.0864 27.4014 33.5181 28.2393 32.2505C26.3486 31.3481 21.5791 36.6333 19.9463 39.77C18.3994 40.6294 17.7764 42.0259 17.1533 42.9927C18.0127 40.1782 18.0771 38.1372 18.7646 35.8384C13.4365 37.6646 15.6494 47.5474 14.4893 49.9106C14.6182 47.2896 14.5107 43.938 13.4365 42.2192C11.8037 43.4653 11.6533 50.856 13.2217 57.022C12.6416 55.3677 11.5889 53.8208 11.2666 51.8228C8.81738 56.27 12.6846 61.4907 15.9072 65.6372C13.3377 64.0424 11.1516 61.9003 9.50488 59.3638C9.93457 67.313 18.249 68.9673 19.5381 70.9224C17.7764 70.106 14.4463 68.4946 13.0068 70.1919C15.0008 70.5628 16.9136 71.2828 18.6572 72.3189C20.8057 75.0044 24.8877 76.186 31.9775 76.4868Z" fill="#F3E295"/>
</g>
<defs>
<clipPath id="clip0_5158_363210">
<rect x="0.00878906" y="0.990723" width="110" height="110" rx="55" fill="white"/>
</clipPath>
</defs>
</svg>
