<svg width="111" height="111" viewBox="0 0 111 111" fill="none" xmlns="http://www.w3.org/2000/svg">
<g clip-path="url(#clip0_5158_362619)">
<path fill-rule="evenodd" clip-rule="evenodd" d="M-51.0869 1.47437H171.797V108.422H-51.1094L-51.0869 1.47437Z" fill="#FFC621"/>
<path fill-rule="evenodd" clip-rule="evenodd" d="M-51.5366 74.2627H171.662V110.668H-51.5366V74.2627Z" fill="#EF2118"/>
<path fill-rule="evenodd" clip-rule="evenodd" d="M-51.0879 0.710205H171.796V39.3632H-51.0879V0.710205Z" fill="#298C08"/>
<path d="M56.2908 80.5643C69.0553 80.5643 79.403 70.2167 79.403 57.4522C79.403 44.6877 69.0553 34.3401 56.2908 34.3401C43.5264 34.3401 33.1787 44.6877 33.1787 57.4522C33.1787 70.2167 43.5264 80.5643 56.2908 80.5643Z" fill="#006BC6"/>
<path fill-rule="evenodd" clip-rule="evenodd" d="M45.9956 41.1384L44.6472 42.1047L49.6811 49.206L51.0295 48.3296L46.0181 41.1384H45.9956ZM52.3329 57.8805L50.2654 56.4198L51.1193 53.723L40.7819 53.8579L37.7931 51.5657L51.8834 51.4084L54.5127 43.4755L55.8835 46.7116L52.2879 57.903L52.3329 57.8805ZM68.7604 42.689L67.412 41.6777L62.1759 48.6442L63.4119 49.6555L68.7604 42.689ZM54.715 53.768L55.4566 51.3634H58.3106L55.0521 41.5429L56.333 37.9922L60.7376 51.4084L69.0975 51.4983L66.4682 53.8129L54.715 53.768V53.768ZM74.1763 64.7796L74.7381 63.1616L66.5131 60.33L65.9288 61.7907L74.1763 64.7571V64.7796ZM59.3443 54.8017L61.8613 54.7568L62.7602 57.476L71.0751 51.3634L74.828 51.4983L63.4344 59.8131L65.9063 67.7909L62.895 65.9931L59.3219 54.8017H59.3443ZM55.0745 76.7126L56.7825 76.735L56.8499 68.0381L55.2768 67.9482L55.097 76.7126H55.0745ZM59.7938 59.4536L60.6253 61.8357L58.3555 63.5661L66.8053 69.5213L67.8839 73.117L56.3779 64.9818L49.6137 69.8584L50.3553 66.4426L59.8163 59.476L59.7938 59.4536ZM37.6133 62.2402L38.1301 63.8582L46.4226 61.2289L46.0181 59.7008L37.6133 62.2402ZM55.5015 61.3862L53.479 62.9144L51.1418 61.2514L48.108 71.1394L45.0068 73.2743L49.2092 59.7907L42.4674 54.8916L45.9506 54.5321L55.5015 61.3862Z" fill="#FFC621"/>
</g>
<defs>
<clipPath id="clip0_5158_362619">
<rect x="0.0258789" y="0.712402" width="110" height="110" rx="55" fill="white"/>
</clipPath>
</defs>
</svg>
