<svg width="111" height="111" viewBox="0 0 111 111" fill="none" xmlns="http://www.w3.org/2000/svg">
<g clip-path="url(#clip0_5158_361582)">
<path d="M0.626953 0.922852H35.002V110.923H0.626953V0.922852Z" fill="#CE1126"/>
<path d="M35.002 0.922607H110.627V55.9226H35.002V0.922607Z" fill="#FCD116"/>
<path d="M35.002 55.9229H110.627V110.923H35.002V55.9229Z" fill="#009E49"/>
<path d="M17.8105 43.6689L13.6221 56.5596L20.0675 58.6538" fill="black"/>
<path d="M17.8105 43.6689L21.999 56.5596L15.5536 58.6538" fill="black"/>
<path d="M30.7002 53.0349H17.1461V59.8119" fill="black"/>
<path d="M30.7002 53.0349L19.7347 61.0018L15.7513 55.5191" fill="black"/>
<path d="M25.7788 68.1895L21.5904 55.2988L15.145 57.393" fill="black"/>
<path d="M25.7788 68.1895L14.8133 60.2226L18.7968 54.7398" fill="black"/>
<path d="M9.84521 68.1885L20.8107 60.2216L16.8272 54.7389" fill="black"/>
<path d="M9.84521 68.1885L14.0337 55.2978L20.479 57.392" fill="black"/>
<path d="M4.91943 53.0356L15.8849 61.0025L19.8683 55.5198" fill="black"/>
<path d="M4.91943 53.0356H18.4735V59.8127" fill="black"/>
</g>
<defs>
<clipPath id="clip0_5158_361582">
<rect x="0.626953" y="0.922852" width="110" height="110" rx="55" fill="white"/>
</clipPath>
</defs>
</svg>
