<svg width="111" height="111" viewBox="0 0 111 111" fill="none" xmlns="http://www.w3.org/2000/svg">
<g clip-path="url(#clip0_5158_362086)">
<path d="M0.0566406 0.0368652H110.057V110.037H0.0566406V0.0368652Z" fill="#E32118"/>
<path d="M0.0566406 0.0368652H110.057V73.363H0.0566406V0.0368652Z" fill="white"/>
<path d="M0.0566406 0.0368652H110.057V36.7107H0.0566406V0.0368652Z" fill="#3E9A00"/>
<path d="M-7.24854 -15.4319V125.506L36.7944 55.0369L-7.24854 -15.4319Z" fill="#0073CE"/>
<path d="M48.6108 43.9724H66.1636V62.363C66.1636 68.5505 58.1069 63.781 57.4194 67.0896C56.2163 63.6951 48.6538 68.5935 48.6538 61.9978L48.6108 43.9724V43.9724Z" fill="white"/>
<path fill-rule="evenodd" clip-rule="evenodd" d="M48.719 44.0798L48.7617 61.9978C48.7617 63.6262 49.2274 64.5171 49.9173 65.0113C50.6157 65.5116 51.5682 65.6247 52.5872 65.6367C52.9181 65.6406 53.2512 65.634 53.5828 65.6274C53.7614 65.6239 53.9395 65.6204 54.1166 65.6185C54.6194 65.6131 55.1101 65.6213 55.5574 65.683C56.3552 65.7931 57.035 66.0775 57.4005 66.7758C57.5141 66.4857 57.6958 66.2657 57.9318 66.1021C58.2378 65.89 58.628 65.7774 59.0619 65.7189C59.4964 65.6604 59.9841 65.655 60.4907 65.6642C60.6878 65.6677 60.887 65.6735 61.0876 65.6792C61.4061 65.6884 61.728 65.6977 62.0501 65.6985C63.0997 65.7012 64.1002 65.6124 64.8379 65.1553C65.5637 64.7056 66.0566 63.8842 66.0566 62.363V44.0798H48.719ZM48.6113 43.9724V43.865H66.2715V62.363C66.2715 63.9357 65.7573 64.8384 64.9511 65.338C64.1566 65.8302 63.1 65.916 62.0495 65.9133C61.7257 65.9125 61.3976 65.9031 61.0761 65.8939C60.8762 65.8881 60.6789 65.8825 60.4868 65.879C59.9821 65.8699 59.5081 65.8756 59.0906 65.9318C58.6725 65.9882 58.3205 66.0941 58.0542 66.2786C57.7916 66.4607 57.6056 66.7238 57.5251 67.1115L57.447 67.4875L57.3187 67.1255C57.0373 66.3316 56.3881 66.0146 55.528 65.8959C55.0972 65.8364 54.6197 65.828 54.1188 65.8333C53.946 65.8351 53.7699 65.8386 53.5923 65.8422C53.2582 65.8488 52.9186 65.8555 52.5847 65.8516C51.5626 65.8395 50.5493 65.7283 49.7922 65.1859C49.0265 64.6374 48.5469 63.6673 48.5469 61.9978L48.5039 43.9727L48.6113 43.9724Z" fill="black"/>
<path d="M58.6445 64.1465C58.6445 64.1465 58.4297 64.3828 58 64.2109C57.5918 64.0176 57.5488 52.416 57.5488 52.416C58.4727 51.4063 59.2031 51.1055 59.2031 51.1055L59.7402 51.5352C57.6777 52.6094 57.8711 54.1133 58.043 56.7344C58.1074 57.7012 58.1074 58.9258 58.3223 60.1289C58.6445 61.6328 59.2891 62.9219 59.332 63.8887C59.375 64.4902 58.6445 64.168 58.6445 64.168V64.1465Z" fill="#73452B"/>
<path fill-rule="evenodd" clip-rule="evenodd" d="M59.2067 51.0808L59.7794 51.539L59.7502 51.5542C58.7239 52.0888 58.2611 52.7284 58.0747 53.5594C57.903 54.3245 57.9653 55.2522 58.0432 56.4133C58.0502 56.518 58.0573 56.6245 58.0644 56.733C58.0813 56.9864 58.0938 57.257 58.1068 57.5401C58.1436 58.3394 58.185 59.2376 58.3434 60.1248C58.4857 60.789 58.6911 61.4112 58.8798 61.9833C58.9043 62.0576 58.9286 62.131 58.9523 62.2036C59.1589 62.834 59.3318 63.4007 59.3535 63.8875C59.3645 64.0418 59.3261 64.1421 59.2569 64.2023C59.1885 64.2619 59.0947 64.2782 59.0038 64.2754C58.9124 64.2726 58.8204 64.2506 58.7517 64.2295C58.7173 64.2189 58.6884 64.2085 58.6682 64.2007C58.658 64.1968 58.65 64.1936 58.6445 64.1913L58.6382 64.1887L58.6365 64.1879L58.6361 64.1877C58.6361 64.1877 58.6359 64.1877 58.6388 64.1811L58.6361 64.1877L58.6326 64.1862C58.6279 64.1899 58.6227 64.1939 58.6169 64.1981C58.5886 64.2186 58.5465 64.2439 58.4905 64.2635C58.3781 64.3028 58.2116 64.3188 57.9921 64.2309L57.9908 64.2304C57.9799 64.2253 57.9711 64.2163 57.9638 64.2063C57.9564 64.1961 57.9495 64.1834 57.9431 64.1687C57.9303 64.1394 57.9183 64.0999 57.9068 64.0516C57.8838 63.9548 57.8623 63.8193 57.8421 63.6512C57.8018 63.3148 57.7666 62.8452 57.7359 62.2876C57.6744 61.1724 57.6308 59.7038 57.5999 58.2415C57.569 56.7791 57.5509 55.3227 57.5405 54.232C57.5353 53.6867 57.532 53.2327 57.53 52.9151C57.529 52.7562 57.5284 52.6315 57.528 52.5465L57.5274 52.4163C57.5274 52.4162 57.5274 52.4161 57.5489 52.416L57.5274 52.4163L57.5273 52.4077L57.533 52.4015C57.9961 51.8954 58.411 51.5666 58.7104 51.3643C58.8601 51.2632 58.981 51.1936 59.0645 51.1493C59.1063 51.1271 59.1388 51.1113 59.1609 51.1009C59.1719 51.0958 59.1804 51.092 59.1861 51.0895L59.1926 51.0866L59.1943 51.0859L59.1948 51.0857C59.1948 51.0857 59.195 51.0856 59.2032 51.1055L59.1948 51.0857L59.2067 51.0808ZM59.1998 51.1304C59.1946 51.1327 59.1877 51.1358 59.1791 51.1399C59.1576 51.1499 59.1258 51.1654 59.0846 51.1873C59.0024 51.2309 58.8829 51.2997 58.7345 51.3999C58.4389 51.5996 58.0288 51.9243 57.5704 52.4244L57.5709 52.5463C57.5713 52.6313 57.572 52.756 57.573 52.9148C57.575 53.2324 57.5782 53.6863 57.5834 54.2316C57.5938 55.3222 57.612 56.7784 57.6428 58.2405C57.6737 59.7028 57.7174 61.1708 57.7788 62.2853C57.8095 62.8426 57.8446 63.3111 57.8848 63.6461C57.9049 63.8137 57.9261 63.9473 57.9486 64.0417C57.9598 64.0889 57.9712 64.1256 57.9825 64.1515C57.9882 64.1645 57.9936 64.1742 57.9985 64.181C58.0033 64.1875 58.0068 64.1903 58.0088 64.1913C58.2185 64.275 58.374 64.2587 58.4763 64.2229C58.5278 64.2049 58.5662 64.1818 58.5917 64.1634C58.6044 64.1541 58.6138 64.1461 58.62 64.1405C58.6231 64.1376 58.6254 64.1354 58.6268 64.134L58.6284 64.1324L58.6287 64.1321L58.666 64.0909V64.1537C58.6707 64.1556 58.6766 64.1579 58.6836 64.1606C58.7031 64.1681 58.731 64.1782 58.7643 64.1884C58.8313 64.209 58.9192 64.2299 59.0051 64.2325C59.0914 64.2351 59.1722 64.2191 59.2287 64.1699C59.2843 64.1215 59.3211 64.0365 59.3106 63.8902L59.3106 63.8897C59.2893 63.4097 59.1185 62.8486 58.9115 62.2169C58.8878 62.1445 58.8635 62.0711 58.839 61.9969C58.6503 61.4248 58.4442 60.8002 58.3013 60.1334L58.3011 60.1327C58.1421 59.2424 58.1006 58.3397 58.0638 57.5397C58.0508 57.2572 58.0383 56.9876 58.0216 56.7358C58.0144 56.6267 58.0072 56.5195 58.0001 56.4141C57.9224 55.2557 57.8597 54.3216 58.0328 53.55C58.2205 52.7132 58.6853 52.0681 59.7012 51.5314L59.1998 51.1304Z" fill="black"/>
<path d="M57.2256 50.8259H58.0635C57.3545 57.4861 57.9561 61.4177 57.9561 63.3298C57.9561 63.9744 58.3213 64.1892 58.2783 64.1892C57.4619 65.113 57.0322 64.1462 57.0322 64.1462L57.2256 50.8259Z" fill="#73452B"/>
<path fill-rule="evenodd" clip-rule="evenodd" d="M57.205 50.8044H58.0879L58.0854 50.8282C57.55 55.8578 57.7622 59.3289 57.8981 61.5519C57.9421 62.272 57.9781 62.8611 57.9781 63.3298C57.9781 63.6477 58.0681 63.8586 58.152 63.9896C58.194 64.0553 58.2346 64.1012 58.2624 64.1309C58.2664 64.1353 58.2704 64.1394 58.274 64.1433C58.2824 64.1522 58.2895 64.1596 58.2939 64.1651C58.2957 64.1672 58.2975 64.1695 58.299 64.1719C58.3002 64.1738 58.3026 64.1778 58.3035 64.1828C58.304 64.1856 58.3042 64.1896 58.3028 64.1941C58.3013 64.199 58.2983 64.203 58.2946 64.2058C58.2934 64.2067 58.2921 64.2074 58.2909 64.2081C58.0868 64.4378 57.9047 64.5526 57.745 64.5931C57.5835 64.634 57.4475 64.5982 57.3386 64.5326C57.2303 64.4673 57.149 64.3727 57.095 64.2951C57.068 64.2563 57.0476 64.2214 57.0339 64.1962C57.0271 64.1836 57.022 64.1734 57.0185 64.1663C57.0168 64.1627 57.0155 64.16 57.0146 64.158L57.0135 64.1558L57.0133 64.1552L57.0132 64.155C57.0132 64.155 57.0131 64.155 57.0328 64.1462L57.0132 64.155L57.0112 64.1507L57.205 50.8044ZM57.0543 64.1417C57.0551 64.1432 57.056 64.1451 57.0571 64.1474C57.0603 64.1541 57.0652 64.1637 57.0717 64.1757C57.0848 64.1998 57.1043 64.2333 57.1303 64.2706C57.1824 64.3455 57.2596 64.4348 57.3608 64.4958C57.4614 64.5564 57.5858 64.5891 57.7345 64.5514C57.8817 64.5141 58.0553 64.4072 58.2541 64.1848C58.2513 64.1819 58.2481 64.1784 58.2444 64.1745C58.2405 64.1704 58.236 64.1657 58.2309 64.1602C58.2023 64.1295 58.1597 64.0815 58.1158 64.0128C58.0278 63.8753 57.9351 63.6565 57.9351 63.3298C57.9351 62.8635 57.8992 62.2762 57.8553 61.5577C57.7196 59.3387 57.5075 55.8685 58.0401 50.8474H57.2473L57.0543 64.1417ZM58.2628 64.195C58.2628 64.195 58.2628 64.1951 58.2628 64.195Z" fill="black"/>
<path d="M55.9362 64.1462C55.1628 64.533 55.0769 63.8025 55.1198 63.7166C56.8171 60.2791 57.5476 52.6951 55.9792 51.8787L56.0866 51.1482C56.6667 51.3201 57.2253 52.0935 57.2253 52.0935C57.4401 60.5798 57.2253 64.0603 57.0964 64.2107C56.2585 65.0701 55.9362 64.0603 55.8933 63.9744" fill="#A36629"/>
<path fill-rule="evenodd" clip-rule="evenodd" d="M56.069 51.1206L56.0927 51.1276C56.3883 51.2152 56.6761 51.4549 56.8888 51.6703C56.9954 51.7783 57.0839 51.8809 57.1456 51.9564C57.1765 51.9942 57.2007 52.0253 57.2172 52.0469C57.2255 52.0578 57.2319 52.0662 57.2361 52.072L57.241 52.0786L57.2423 52.0804L57.2426 52.0808L57.2466 52.0864L57.2468 52.093C57.3542 56.3364 57.3542 59.3285 57.3112 61.2786C57.2897 62.2536 57.2575 62.9684 57.2226 63.4489C57.2051 63.6892 57.1869 63.8712 57.169 63.998C57.1601 64.0613 57.1512 64.1114 57.1423 64.1481C57.1379 64.1665 57.1334 64.182 57.1289 64.1943C57.1244 64.2062 57.1193 64.2171 57.1127 64.2247L57.1118 64.2258C56.9007 64.4423 56.7195 64.5438 56.5645 64.5696C56.4085 64.5957 56.2823 64.5447 56.1831 64.4637C56.0846 64.3832 56.0125 64.2729 55.9626 64.1785C55.9375 64.1311 55.9179 64.0874 55.9032 64.0529C55.8967 64.0376 55.8913 64.0246 55.8869 64.014C55.881 63.9998 55.8769 63.9897 55.8741 63.984L55.9125 63.9648C55.9159 63.9717 55.9212 63.9843 55.9278 64.0004C55.9322 64.011 55.9372 64.0231 55.9427 64.0361C55.9571 64.0699 55.9763 64.1125 56.0006 64.1584C56.0493 64.2506 56.1182 64.3552 56.2103 64.4304C56.3019 64.5052 56.416 64.5509 56.5574 64.5273C56.6997 64.5035 56.8728 64.4091 57.0804 64.1964C57.082 64.1944 57.0849 64.1893 57.0886 64.1794C57.0923 64.1692 57.0964 64.1555 57.1006 64.1381C57.1089 64.1032 57.1176 64.0547 57.1265 63.992C57.1442 63.8665 57.1623 63.6856 57.1797 63.4458C57.2146 62.9663 57.2468 62.2523 57.2683 61.2777C57.3112 59.3294 57.3112 56.3402 57.204 52.1008L57.2016 52.0976C57.1975 52.092 57.1912 52.0837 57.1831 52.073C57.1668 52.0517 57.1429 52.021 57.1123 51.9836C57.0512 51.9088 56.9637 51.8073 56.8582 51.7004C56.6524 51.492 56.3807 51.2661 56.1042 51.1762L56.0027 51.8669C56.1987 51.9745 56.357 52.1845 56.4819 52.4722C56.6098 52.7669 56.7036 53.1456 56.7665 53.5864C56.8924 54.4681 56.895 55.6018 56.7955 56.8165C56.5967 59.2456 55.9894 62.004 55.1391 63.7261C55.1361 63.7321 55.1326 63.7487 55.1323 63.7758C55.1321 63.8017 55.1348 63.8344 55.1416 63.8704C55.1553 63.9426 55.1851 64.0264 55.2388 64.0955C55.2922 64.1641 55.3693 64.2185 55.4792 64.2331C55.5897 64.2478 55.7356 64.2226 55.9266 64.1271L55.9458 64.1655C55.7502 64.2634 55.5953 64.2919 55.4735 64.2757C55.3511 64.2594 55.2643 64.1983 55.2049 64.1219C55.1459 64.0459 55.1139 63.9552 55.0994 63.8784C55.0921 63.8399 55.0891 63.8044 55.0894 63.7754C55.0896 63.7476 55.0929 63.7226 55.1006 63.7071C55.9475 61.9917 56.5541 59.2393 56.7527 56.813C56.852 55.6 56.8492 54.4698 56.724 53.5924C56.6614 53.1537 56.5682 52.7791 56.4425 52.4893C56.3166 52.1992 56.1591 51.9966 55.9693 51.8978L55.9557 51.8907L56.069 51.1206Z" fill="black"/>
<path fill-rule="evenodd" clip-rule="evenodd" d="M56.0536 63.2757C55.9514 63.5866 55.8984 63.8366 55.9347 64.013L55.8927 64.0216C55.8538 63.8327 55.9109 63.5725 56.0128 63.2623C56.0802 63.0572 56.1682 62.8276 56.2634 62.5794C56.3125 62.4513 56.3635 62.3182 56.4146 62.1809C56.7152 61.3729 57.0199 60.4151 56.9665 59.4423L57.0094 59.4399C57.0633 60.4223 56.7557 61.3873 56.4548 62.1959C56.4034 62.3342 56.3521 62.4679 56.303 62.5962C56.2081 62.8437 56.1207 63.0716 56.0536 63.2757ZM58.6209 64.1653C58.7278 63.203 58.5355 62.1968 58.1278 61.0597L58.1683 61.0452C58.5771 62.1855 58.7715 63.1987 58.6636 64.1701L58.6209 64.1653Z" fill="black"/>
<path d="M59.9311 47.7108C60.2104 47.3885 60.2104 47.3885 60.7045 47.3885C60.7904 46.701 61.9506 46.701 62.0365 47.5604C62.9604 47.3885 63.1322 47.9256 62.767 48.4842C63.6264 48.2694 64.4213 48.4842 64.185 49.494C65.7533 49.9237 65.1518 50.9979 64.4643 51.2127C64.3783 51.9217 63.7338 52.1581 62.8529 51.8573C61.7787 52.6522 61.1342 52.3729 60.6186 51.5995C59.3725 51.7713 59.2865 51.5135 58.7494 50.826C57.7826 51.2342 57.5893 51.2342 56.7729 50.7186C56.7299 51.3631 56.4936 51.1913 56.0854 51.1483C56.1283 51.9647 55.8061 52.3299 55.0756 52.0506C55.6127 53.2108 54.2162 53.7049 53.5072 52.7381C52.8627 52.7811 52.8197 52.6092 52.4975 52.3729C52.2397 53.2967 51.2084 53.1678 51.0365 52.6522C49.7475 52.4588 49.8979 51.7928 50.9506 51.7284C51.0365 50.9979 51.6811 51.1483 52.0893 51.2342C52.1322 50.7831 52.4115 50.869 52.6479 50.9549C52.4975 50.6327 52.6049 50.4608 53.0131 50.3534C52.4115 49.5799 52.7983 49.3006 53.3783 49.0213C53.0561 48.2909 53.5932 48.3338 54.0229 48.2909C53.9799 47.5174 54.1947 47.3885 55.0326 47.2811C54.9252 47.0233 55.0756 46.787 55.5268 46.787C55.2475 46.0135 55.6127 45.8202 56.4506 45.9706C56.5795 44.8319 59.0287 45.369 58.8139 46.9159C59.5229 47.0233 59.7377 47.1522 59.9311 47.7108V47.7108Z" fill="#009A3B"/>
<path fill-rule="evenodd" clip-rule="evenodd" d="M56.9116 45.4404C56.6737 45.5237 56.5031 45.6975 56.472 45.9727L56.4694 45.9955L56.4468 45.9915C56.2382 45.954 56.0601 45.9382 55.9148 45.9471C55.7693 45.956 55.6588 45.9897 55.583 46.049C55.5081 46.1077 55.4646 46.1935 55.4569 46.3131C55.4491 46.4335 55.4776 46.5874 55.547 46.7794L55.5574 46.8082H55.5268C55.3042 46.8082 55.1611 46.8666 55.0863 46.9513C55.0125 47.035 55.0011 47.1493 55.0525 47.2726L55.0633 47.2986L55.0354 47.3022C54.8261 47.329 54.6569 47.357 54.5212 47.3958C54.3856 47.4346 54.2852 47.4838 54.2121 47.5517C54.0668 47.6868 54.0229 47.903 54.0443 48.2894L54.0455 48.31L54.025 48.312C53.9806 48.3165 53.9358 48.3199 53.8912 48.3234C53.8259 48.3285 53.7611 48.3335 53.6983 48.3415C53.5931 48.3548 53.4994 48.3759 53.4294 48.4166C53.3608 48.4565 53.3149 48.5154 53.304 48.6074C53.2929 48.7011 53.318 48.8312 53.398 49.0124L53.4064 49.0314L53.3877 49.0405C53.2428 49.1102 53.1113 49.1793 53.0045 49.2558C52.8976 49.3322 52.8169 49.4148 52.7721 49.5109C52.6835 49.7007 52.7305 49.9547 53.0301 50.3399L53.05 50.3656L53.0186 50.3739C52.8153 50.4274 52.6938 50.4955 52.6394 50.5845C52.586 50.6719 52.5932 50.7867 52.6673 50.9456L52.6893 50.9926L52.6405 50.9749C52.5815 50.9534 52.5209 50.9324 52.4624 50.9196C52.4037 50.9068 52.3489 50.9028 52.3009 50.9139C52.2537 50.9247 52.2121 50.9505 52.1793 50.9998C52.1461 51.0498 52.1212 51.1252 52.1107 51.236L52.1084 51.26L52.0849 51.255C52.0777 51.2535 52.0705 51.252 52.0632 51.2504C51.8614 51.2079 51.6133 51.1555 51.4032 51.196C51.2951 51.2168 51.1984 51.262 51.1233 51.3451C51.0482 51.4282 50.9931 51.5512 50.9719 51.7306L50.9698 51.7485L50.9519 51.7496C50.6907 51.7656 50.4871 51.8188 50.3486 51.8915C50.2094 51.9646 50.1404 52.0546 50.1369 52.1426C50.1333 52.2303 50.1943 52.3277 50.3423 52.4167C50.4897 52.5053 50.719 52.5826 51.0397 52.6307L51.0528 52.6327L51.0569 52.6452C51.1389 52.8911 51.4285 53.0491 51.7335 53.0307C52.0358 53.0124 52.3503 52.82 52.4768 52.3669L52.4851 52.337L52.5102 52.3553C52.5721 52.4007 52.6239 52.4439 52.6712 52.4832C52.6859 52.4955 52.7002 52.5074 52.7142 52.5188C52.7733 52.5673 52.8276 52.6084 52.8913 52.6409C53.0179 52.7055 53.1853 52.7378 53.5058 52.7165L53.5176 52.7157L53.5246 52.7252C53.874 53.2016 54.3903 53.3155 54.7508 53.1718C54.9309 53.1 55.0723 52.9641 55.1365 52.7763C55.2008 52.5883 55.1887 52.3457 55.0561 52.0594L55.0339 52.0114L55.0833 52.0303C55.4457 52.1689 55.6982 52.1444 55.8557 51.9945C56.015 51.843 56.0853 51.5561 56.0639 51.1492L56.0626 51.124L56.0876 51.1267C56.1568 51.134 56.2219 51.145 56.281 51.1551C56.3095 51.16 56.3366 51.1646 56.3622 51.1684C56.4424 51.1805 56.5074 51.1851 56.5603 51.1703C56.6112 51.1561 56.653 51.1233 56.6853 51.0543C56.7181 50.9841 56.7407 50.8772 56.7514 50.7169L56.7538 50.6809L56.7843 50.7002C57.1929 50.9582 57.4409 51.0839 57.7058 51.097C57.9714 51.1102 58.2569 51.0104 58.7411 50.806L58.7562 50.7996L58.7664 50.8126C58.8071 50.8647 58.8451 50.9142 58.8812 50.9611C58.9646 51.0697 59.0374 51.1646 59.109 51.2467C59.2112 51.3639 59.3092 51.453 59.4282 51.5158C59.666 51.6412 59.9929 51.6638 60.6156 51.5779L60.629 51.5761L60.6365 51.5873C60.893 51.9722 61.1788 52.2296 61.5302 52.2951C61.8816 52.3607 62.3052 52.2357 62.8402 51.8398L62.8492 51.8331L62.8599 51.8367C63.2977 51.9862 63.6734 52.001 63.9489 51.8934C64.2227 51.7865 64.4008 51.5574 64.4429 51.2099L64.4446 51.1961L64.4579 51.192C64.6259 51.1395 64.7893 51.0342 64.9155 50.8991C65.0418 50.7639 65.1297 50.6002 65.1492 50.4312C65.1686 50.263 65.1204 50.088 64.9712 49.928C64.8215 49.7675 64.5692 49.6213 64.1793 49.5145L64.1593 49.509L64.1641 49.4889C64.2225 49.239 64.2167 49.0406 64.1637 48.8868C64.1108 48.7334 64.0105 48.6226 63.8765 48.5484C63.607 48.3993 63.2 48.3979 62.7722 48.5048L62.719 48.5181L62.749 48.4722C62.9302 48.1951 62.973 47.9311 62.8669 47.7594C62.7615 47.5888 62.5003 47.4957 62.0405 47.5813L62.0175 47.5856L62.0152 47.5623C61.9734 47.1444 61.6715 46.9364 61.369 46.9156C61.0652 46.8946 60.767 47.0619 60.7258 47.3909L60.7235 47.4098H60.7045C60.5807 47.4098 60.4889 47.4098 60.4159 47.4148C60.3432 47.4197 60.2907 47.4295 60.2455 47.4484C60.1546 47.4863 60.0883 47.5619 59.9473 47.7246L59.9311 47.7105L59.9108 47.7176C59.8146 47.4399 59.7145 47.2732 59.5536 47.1616C59.3916 47.0492 59.1652 46.9906 58.8107 46.9369L58.7897 46.9337L58.7926 46.9127C58.898 46.1535 58.3506 45.6399 57.7548 45.4564C57.4572 45.3647 57.1505 45.3567 56.9116 45.4404ZM59.939 47.6686C60.062 47.5268 60.1327 47.4488 60.229 47.4087C60.2804 47.3873 60.3381 47.377 60.413 47.3719C60.4839 47.367 60.5718 47.3668 60.6858 47.3668C60.7395 47.021 61.0585 46.8511 61.372 46.8727C61.6869 46.8944 62.0025 47.1088 62.0553 47.5349C62.506 47.4557 62.7852 47.5454 62.9035 47.7369C63.0166 47.9201 62.9743 48.1843 62.8133 48.4508C63.2266 48.3554 63.6249 48.3601 63.8973 48.5108C64.0399 48.5898 64.1477 48.7086 64.2043 48.8728C64.2592 49.0322 64.2653 49.2327 64.2105 49.4785C64.5937 49.5861 64.8482 49.7331 65.0027 49.8987C65.1603 50.0677 65.2128 50.2552 65.1919 50.4362C65.1711 50.6164 65.0778 50.7883 64.9469 50.9284C64.8193 51.065 64.6548 51.1726 64.4839 51.2288C64.437 51.5827 64.251 51.8216 63.9645 51.9334C63.6783 52.0452 63.2952 52.0289 62.8567 51.881C62.3216 52.2748 61.8887 52.4057 61.5223 52.3374C61.1576 52.2693 60.8654 52.0049 60.6082 51.6223C59.9933 51.7062 59.6572 51.6852 59.4081 51.5538C59.2827 51.4876 59.1806 51.3941 59.0767 51.275C59.0041 51.1918 58.93 51.0952 58.8461 50.9861C58.8133 50.9433 58.7789 50.8986 58.7426 50.852C58.269 51.0515 57.9777 51.1535 57.7037 51.14C57.4331 51.1266 57.1821 51.0006 56.7917 50.7556C56.78 50.8986 56.7577 51.0009 56.7242 51.0726C56.6873 51.1513 56.6364 51.1937 56.5719 51.2117C56.5093 51.2292 56.436 51.223 56.3558 51.2109C56.3287 51.2068 56.3008 51.2021 56.2719 51.1972C56.2207 51.1884 56.1664 51.1792 56.1081 51.1722C56.1255 51.5689 56.0555 51.8638 55.8853 52.0257C55.7175 52.1854 55.4599 52.2093 55.1159 52.0881C55.2324 52.3621 55.2422 52.6001 55.1772 52.7902C55.1085 52.9911 54.9572 53.1358 54.7667 53.2117C54.3884 53.3625 53.8565 53.2425 53.4969 52.7601C53.1804 52.7801 53.0067 52.748 52.8718 52.6791C52.8038 52.6445 52.7467 52.601 52.687 52.5521C52.6725 52.5403 52.6579 52.5281 52.643 52.5157C52.6025 52.482 52.5594 52.4461 52.5095 52.4084C52.3727 52.8578 52.0499 53.0546 51.7361 53.0735C51.4229 53.0924 51.1158 52.9335 51.0205 52.6713C50.7034 52.6225 50.4722 52.5449 50.3202 52.4535C50.1668 52.3613 50.0894 52.2518 50.0939 52.1408C50.0984 52.0301 50.1839 51.9294 50.3287 51.8535C50.4709 51.7788 50.6748 51.7254 50.9315 51.7078C50.9549 51.5314 51.0115 51.4047 51.0914 51.3163C51.1742 51.2247 51.2802 51.176 51.395 51.1538C51.614 51.1116 51.8697 51.1656 52.0691 51.2078C52.0696 51.2079 52.07 51.208 52.0704 51.2081C52.0826 51.1056 52.1077 51.03 52.1436 50.976C52.1826 50.9173 52.2337 50.8853 52.2912 50.872C52.348 50.8589 52.41 50.8642 52.4715 50.8776C52.5171 50.8876 52.5633 50.9021 52.6082 50.9177C52.5502 50.7753 52.5441 50.658 52.6027 50.5621C52.6631 50.4632 52.7889 50.3937 52.9765 50.3408C52.6916 49.9661 52.6359 49.701 52.7331 49.4927C52.7823 49.3874 52.8695 49.2995 52.9795 49.2208C53.0848 49.1455 53.2123 49.0777 53.3504 49.0107C53.2756 48.8362 53.2494 48.7036 53.2613 48.6023C53.274 48.4956 53.3287 48.4255 53.4078 48.3795C53.4856 48.3342 53.5865 48.3124 53.6929 48.2989C53.7562 48.2908 53.8235 48.2856 53.8899 48.2804C53.9273 48.2775 53.9644 48.2746 54.0003 48.2712C53.9815 47.8964 54.0248 47.6672 54.1828 47.5203C54.2628 47.4459 54.3704 47.3943 54.5094 47.3545C54.6423 47.3165 54.8054 47.2889 55.0028 47.2631C54.9584 47.1376 54.9725 47.0154 55.0541 46.9229C55.1366 46.8294 55.2842 46.7707 55.4965 46.7656C55.4334 46.5837 55.4061 46.4327 55.414 46.3103C55.4224 46.1808 55.4703 46.0827 55.5565 46.0152C55.6419 45.9483 55.7623 45.9134 55.9122 45.9042C56.057 45.8953 56.2312 45.9103 56.4322 45.9452C56.4721 45.6642 56.653 45.4854 56.8974 45.3998C57.1472 45.3123 57.4635 45.3217 57.7675 45.4154C58.3695 45.6008 58.9344 46.1215 58.8379 46.8976C59.1808 46.9505 59.4105 47.01 59.5781 47.1262C59.7429 47.2406 59.8453 47.4078 59.939 47.6686Z" fill="black"/>
<path fill-rule="evenodd" clip-rule="evenodd" d="M58.611 47.0703C58.6994 47.0197 58.7735 46.9693 58.8188 46.9038L58.8541 46.9283C58.8028 47.0024 58.7211 47.0568 58.6323 47.1076C58.6059 47.1227 58.5789 47.1375 58.5516 47.1524C58.4857 47.1884 58.4184 47.2253 58.3546 47.2694C58.2649 47.3313 58.1846 47.4062 58.1304 47.5091C58.0762 47.612 58.0471 47.7447 58.063 47.9239L58.0237 47.9377C57.9195 47.7814 57.7583 47.6831 57.601 47.6624C57.4445 47.6419 57.2923 47.6981 57.2006 47.8509L57.1638 47.8288C57.2654 47.6594 57.4355 47.5974 57.6066 47.6198C57.756 47.6394 57.9066 47.7232 58.016 47.8555C58.0123 47.7045 58.0416 47.5856 58.0924 47.4891C58.1509 47.3779 58.2371 47.2983 58.3301 47.2341C58.3959 47.1886 58.4664 47.15 58.533 47.1135C58.5598 47.0989 58.586 47.0846 58.611 47.0703ZM55.1541 47.3647C55.1112 47.3541 55.0659 47.3429 55.0241 47.322L55.0434 47.2835C55.0807 47.3022 55.1214 47.3123 55.1652 47.3232C55.1687 47.3241 55.1723 47.325 55.1759 47.3259C55.2228 47.3376 55.2727 47.351 55.3186 47.3783C55.4046 47.4293 55.4716 47.5254 55.4993 47.731C55.5822 47.5998 55.6698 47.5154 55.7573 47.4734C55.8577 47.4252 55.9562 47.4337 56.0417 47.4888C56.1261 47.5432 56.1962 47.6417 56.2452 47.7712C56.2943 47.9009 56.3228 48.0634 56.3228 48.2481H56.2798C56.2798 48.0675 56.252 47.9104 56.205 47.7864C56.158 47.662 56.0925 47.5726 56.0185 47.5249C55.9455 47.4779 55.8628 47.4704 55.7759 47.5121C55.6877 47.5545 55.5938 47.6483 55.5036 47.8075L55.4695 47.8677L55.4635 47.7988C55.4423 47.5549 55.3741 47.4612 55.2967 47.4152C55.2567 47.3915 55.2126 47.3793 55.1655 47.3676C55.1617 47.3666 55.1579 47.3657 55.1541 47.3647ZM59.868 48.1721C59.9001 47.9771 59.9107 47.7957 59.9107 47.711H59.9537C59.9537 47.7981 59.9428 47.9819 59.9104 48.179C59.8781 48.3756 59.8239 48.5886 59.7356 48.732L59.699 48.7095C59.7827 48.5736 59.8359 48.3676 59.868 48.1721ZM62.7486 48.4873C62.7483 48.4948 62.7524 48.499 62.7529 48.4996L62.7833 48.4692C62.7865 48.4724 62.7919 48.4792 62.7915 48.4891C62.7911 48.4993 62.7848 48.5057 62.7809 48.5086C62.7739 48.5139 62.7642 48.5165 62.7567 48.5181C62.7398 48.5218 62.7138 48.5246 62.6823 48.5273C62.6617 48.529 62.6385 48.5308 62.6129 48.5326C62.5586 48.5367 62.4941 48.5414 62.4239 48.5487C62.2169 48.5702 61.9695 48.613 61.8132 48.7171L61.7894 48.6814C61.9555 48.5707 62.2129 48.5275 62.4195 48.506C62.4902 48.4986 62.5561 48.4938 62.6107 48.4897C62.636 48.4878 62.6589 48.4862 62.6787 48.4845C62.7106 48.4818 62.7338 48.4792 62.7475 48.4762C62.7534 48.4749 62.7554 48.4739 62.7554 48.474C62.7554 48.474 62.7552 48.4742 62.7549 48.4744C62.7538 48.4753 62.7489 48.4794 62.7486 48.4873ZM57.3 49.1446C57.0496 48.9928 56.8043 48.9375 56.6307 48.9988L56.6164 48.9583C56.8081 48.8906 57.0677 48.9535 57.3222 49.1079C57.5679 49.2568 57.813 49.4933 57.9954 49.7908C58.0909 49.5778 58.207 49.4844 58.3355 49.4416C58.4026 49.4192 58.4719 49.411 58.5407 49.4056C58.5588 49.4042 58.5767 49.403 58.5946 49.4018C58.6457 49.3983 58.6963 49.3948 58.7473 49.387L58.7538 49.4295C58.7009 49.4376 58.6477 49.4412 58.596 49.4447C58.5785 49.4459 58.5612 49.4471 58.5441 49.4484C58.476 49.4538 58.411 49.4617 58.3491 49.4823C58.2274 49.5229 58.1133 49.6141 58.0185 49.846L58.002 49.8863L57.9801 49.8488C57.7992 49.5403 57.5493 49.2958 57.3 49.1446ZM55.3892 48.991C55.23 49.0398 55.0187 49.2064 54.7726 49.5917L54.7478 49.6304L54.734 49.5866C54.7029 49.4883 54.6543 49.4223 54.5964 49.3779C54.5382 49.3334 54.4694 49.3096 54.3965 49.2978C54.3236 49.2861 54.2475 49.2867 54.1755 49.2904C54.1497 49.2917 54.1241 49.2934 54.0994 49.2951C54.0562 49.298 54.0156 49.3008 53.981 49.3008V49.2578C54.0143 49.2578 54.0522 49.2552 54.0941 49.2524C54.1191 49.2507 54.1456 49.2489 54.1733 49.2475C54.2463 49.2437 54.3259 49.243 54.4034 49.2554C54.4809 49.2679 54.5571 49.2937 54.6225 49.3438C54.6791 49.3872 54.7266 49.4481 54.7601 49.5319C54.9983 49.1691 55.2083 49.0015 55.3766 48.9499C55.5529 48.8959 55.6814 48.9701 55.74 49.0755L55.7025 49.0964C55.6536 49.0085 55.5459 48.943 55.3892 48.991ZM61.1901 49.936C61.004 49.805 60.7701 49.7324 60.4778 49.8577L60.4608 49.8182C60.77 49.6857 61.0196 49.7634 61.2148 49.9009C61.3652 50.0068 61.485 50.1497 61.5754 50.2573C61.5943 50.28 61.612 50.301 61.6284 50.3199C61.7633 50.1486 61.8852 50.0595 62.0087 50.0138C62.1359 49.9668 62.2627 49.9668 62.401 49.9668H62.4029V50.0098C62.2626 50.0098 62.143 50.01 62.0236 50.0541C61.905 50.098 61.7845 50.1861 61.6465 50.3666L61.6308 50.3871L61.6135 50.3679C61.591 50.3429 61.5666 50.3139 61.5401 50.2822C61.4499 50.1748 61.3354 50.0384 61.1901 49.936ZM58.6962 50.6864C58.702 50.7369 58.7076 50.7853 58.7076 50.8262H58.6646C58.6646 50.788 58.6594 50.7428 58.6536 50.6924C58.6523 50.6811 58.6509 50.6695 58.6496 50.6577C58.6426 50.5941 58.6363 50.5247 58.6405 50.457C58.6446 50.3891 58.6592 50.3216 58.6949 50.2623C58.7307 50.2025 58.7869 50.1526 58.8715 50.1187L58.8874 50.1586C58.8109 50.1893 58.7623 50.2333 58.7317 50.2844C58.7008 50.3358 58.6873 50.3958 58.6834 50.4596C58.6795 50.5234 58.6853 50.5896 58.6923 50.653C58.6936 50.6642 58.6949 50.6753 58.6962 50.6864ZM53.4862 50.2622C53.3161 50.2569 53.1619 50.2892 53.0715 50.3696L53.0429 50.3375C53.1458 50.246 53.3139 50.2138 53.4875 50.2193C53.6621 50.2247 53.8476 50.2683 53.99 50.334L53.972 50.373C53.8351 50.3099 53.6554 50.2675 53.4862 50.2622ZM55.755 50.3904C55.6722 50.4707 55.6142 50.614 55.6352 50.8241L55.6399 50.8706L55.6015 50.8438C55.3969 50.7005 55.0878 50.7618 54.9439 50.9674L54.9087 50.9428C55.0572 50.7307 55.3657 50.6587 55.5891 50.7852C55.5787 50.588 55.6369 50.4451 55.7251 50.3596C55.8194 50.2682 55.9468 50.2441 56.0522 50.2909L56.0348 50.3302C55.9469 50.2911 55.838 50.31 55.755 50.3904ZM63.6701 51.2156C63.6682 51.116 63.6583 50.9764 63.6042 50.8525C63.5708 50.7758 63.5201 50.7045 63.4435 50.6523C63.3669 50.6002 63.2658 50.5684 63.1334 50.5684V50.6114C63.2587 50.6114 63.351 50.6413 63.4194 50.6879C63.4878 50.7344 63.5338 50.7987 63.5648 50.8697C63.6272 51.0127 63.6275 51.1802 63.6275 51.2774V51.3451L63.6665 51.2898C63.7288 51.2016 63.7979 51.1508 63.8686 51.1246C63.9395 51.0984 64.0134 51.0962 64.086 51.1079C64.212 51.1281 64.3302 51.1891 64.4166 51.2336C64.4305 51.2408 64.4436 51.2475 64.4558 51.2536L64.475 51.2152C64.4635 51.2094 64.4509 51.2029 64.4373 51.1959C64.3514 51.1515 64.2262 51.0869 64.0928 51.0655C64.015 51.053 63.9332 51.0549 63.8537 51.0843C63.789 51.1083 63.7268 51.1502 63.6701 51.2156ZM61.0903 51.1189C61.1841 51.1161 61.284 51.1446 61.3842 51.217L61.3591 51.2518C61.2659 51.1845 61.1751 51.1593 61.0916 51.1619C61.0079 51.1644 60.93 51.1949 60.8629 51.2413C60.7957 51.2878 60.74 51.3499 60.7012 51.4146C60.6622 51.4796 60.6412 51.5456 60.6412 51.5996H60.5982C60.5982 51.5355 60.6228 51.4618 60.6644 51.3925C60.7061 51.323 60.7659 51.2562 60.8384 51.206C60.911 51.1558 60.9968 51.1218 61.0903 51.1189ZM62.8285 51.3772C62.87 51.4879 62.897 51.6411 62.897 51.8789H62.8541C62.8541 51.6441 62.8273 51.4965 62.7883 51.3923C62.7494 51.2886 62.6978 51.2265 62.6442 51.1622L62.6772 51.1347L62.6776 51.1351C62.7313 51.1996 62.787 51.2664 62.8285 51.3772ZM53.8484 52.0232C53.8192 51.8436 53.7048 51.6765 53.5317 51.6143C53.3492 51.5487 53.1098 51.6025 52.8486 51.8637L52.879 51.8941C53.1334 51.6397 53.356 51.5968 53.5172 51.6548C53.6798 51.7132 53.7885 51.877 53.8093 52.0533L53.8095 52.0549L53.8099 52.0565C53.8244 52.1097 53.816 52.148 53.7945 52.1833C53.7741 52.2168 53.7422 52.2476 53.703 52.2854C53.6986 52.2897 53.6941 52.2941 53.6894 52.2986C53.5995 52.3857 53.4885 52.5023 53.4443 52.7343L53.4865 52.7423C53.5282 52.5231 53.632 52.4141 53.7194 52.3294C53.724 52.3249 53.7286 52.3204 53.7333 52.316C53.7715 52.2791 53.8077 52.2442 53.8312 52.2056C53.8557 52.1653 53.8666 52.1208 53.8561 52.0656C53.9866 52.0283 54.1154 52.0198 54.2219 52.0371C54.3344 52.0554 54.4181 52.1017 54.4565 52.1689L54.4938 52.1476C54.4463 52.0644 54.3474 52.014 54.2288 51.9947C54.1164 51.9764 53.9827 51.9853 53.8484 52.0232Z" fill="black"/>
<path d="M56.8184 41.4158L55.8086 41.4587L55.3145 42.3611L54.7559 41.5017L53.7461 41.5447L54.1973 40.6208L53.6602 39.7615L54.7129 39.7185L55.1641 38.8162L55.7227 39.6755L56.7324 39.6326L56.2598 40.5349L56.8184 41.4158ZM52.5215 41.738L51.4902 41.9959L51.2324 42.9626L50.502 42.2322L49.5352 42.4685L49.793 41.5017L49.127 40.7498L50.0723 40.5134L50.3516 39.5251L51.082 40.2556L52.0918 40.0408L51.7695 41.0076L52.5215 41.738ZM48.332 42.5974L47.4297 43.0486L47.3652 44.0798L46.5059 43.5212L45.582 43.9509L45.668 42.9412L44.8086 42.3826L45.7324 41.9099L45.8184 40.9001L46.6348 41.4587L47.5586 41.0291L47.5156 42.0388L48.332 42.5974ZM58.1504 41.4158L59.1602 41.4587L59.6113 42.3611L60.1699 41.5017L61.1797 41.5447L60.707 40.6208L61.2656 39.7615L60.2559 39.7185L59.7402 38.8162L59.2031 39.6755L58.1934 39.6326L58.6445 40.5349L58.1504 41.4158ZM62.4473 41.738L63.4141 41.9959L63.6934 42.9626L64.4238 42.2322L65.3906 42.4685L65.1113 41.5017L65.8418 40.7498L64.832 40.5134L64.5527 39.5251L63.8223 40.2556L62.877 40.0408L63.1348 41.0076L62.4473 41.738ZM66.5723 42.5974L67.4961 43.0486L67.5391 44.0798L68.3984 43.5212L69.3223 43.9509L69.2793 42.9412L70.0957 42.3826L69.1934 41.9099L69.1504 40.9001L68.291 41.4587L67.3457 41.0291L67.4531 42.0388L66.5723 42.5974Z" fill="#FFD700"/>
<path fill-rule="evenodd" clip-rule="evenodd" d="M55.1533 38.6433L55.767 39.5874L56.8767 39.5402L56.3579 40.5306L56.9695 41.4951L55.8597 41.5424L55.3197 42.5283L54.7095 41.5895L53.6045 41.6365L54.0981 40.6258L53.5079 39.6815L54.6577 39.6345L55.1533 38.6433ZM59.7425 38.6486L60.3059 39.6345L61.4187 39.6818L60.8052 40.6258L61.3223 41.6366L60.2142 41.5895L59.6006 42.5336L59.1049 41.5423L58.006 41.4955L58.5463 40.5324L58.0502 39.5403L59.1557 39.5874L59.7425 38.6486ZM55.1728 38.9887L54.766 39.8021L53.8104 39.8411L54.2944 40.6156L53.8856 41.4525L54.8002 41.4136L55.3071 42.1935L55.7555 41.3748L56.6651 41.3361L56.1596 40.5388L56.5861 39.7246L55.6763 39.7633L55.1728 38.9887ZM59.7359 38.9834L59.2484 39.7633L58.3344 39.7245L58.7407 40.5371L58.2927 41.3357L59.2134 41.3749L59.62 42.1882L60.1236 41.4136L61.035 41.4524L60.6068 40.6155L61.1105 39.8408L60.2038 39.8022L59.7359 38.9834ZM50.3077 39.3606L51.1088 40.1617L52.2198 39.9253L51.8671 40.9834L52.6911 41.7838L51.5592 42.0668L51.276 43.1286L50.4744 42.327L49.4138 42.5862L49.697 41.524L48.9677 40.7006L50.0021 40.442L50.3077 39.3606ZM64.5946 39.3606L64.8999 40.4411L66.0082 40.7005L65.2067 41.5256L65.5133 42.587L64.4494 42.327L63.6502 43.1262L63.344 42.0662L62.285 41.7838L63.0384 40.9833L62.7562 39.9253L63.794 40.1611L64.5946 39.3606ZM64.5089 39.6894L63.8485 40.3498L62.9956 40.1559L63.2291 41.0315L62.6075 41.6919L63.4821 41.9252L63.7345 42.7988L64.3962 42.137L65.2659 42.3496L65.0139 41.4774L65.6733 40.7986L64.7621 40.5854L64.5089 39.6894ZM50.3934 39.6894L50.1404 40.5845L49.2841 40.7986L49.8869 41.4791L49.6545 42.3504L50.5275 42.137L51.1868 42.7963L51.4192 41.9246L52.3498 41.6919L51.6699 41.0314L51.9617 40.1559L51.0532 40.3492L50.3934 39.6894ZM45.7442 40.7458L46.6419 41.36L47.6494 40.8914L47.6025 41.9946L48.5001 42.6088L47.5113 43.1031L47.4408 44.2319L46.4979 43.6191L45.4828 44.0912L45.5769 42.985L44.6362 42.3735L45.6498 41.8549L45.7442 40.7458ZM69.2288 40.7458L69.2761 41.8566L70.2612 42.3726L69.3662 42.985L69.4131 44.0883L68.4043 43.6191L67.4585 44.2339L67.4113 43.1032L66.3954 42.607L67.361 41.9947L67.2433 40.8884L68.2827 41.3608L69.2288 40.7458ZM69.0699 41.0541L68.2973 41.5563L67.446 41.1694L67.5432 42.0826L66.7471 42.5875L67.5788 42.9937L67.6176 43.9254L68.3905 43.4231L69.2294 43.8132L69.1904 42.897L69.9282 42.3922L69.1086 41.9629L69.0699 41.0541ZM45.8905 41.0541L45.813 41.9645L44.9789 42.3913L45.7569 42.897L45.6792 43.8103L46.5118 43.4231L47.2876 43.9274L47.346 42.9937L48.1619 42.5857L47.4267 42.0826L47.4657 41.1664L46.6256 41.5571L45.8905 41.0541Z" fill="black"/>
<path d="M67.8159 61.9976L68.9546 63.6519L70.0288 62.0835L69.2769 60.773L67.8159 61.9976ZM60.5112 66.8101L60.6187 68.4644C60.6187 68.4644 61.0698 68.4644 61.478 68.3354C61.8647 68.1851 62.187 67.9058 62.187 67.9058L62.1226 67.0464L60.5112 66.8101ZM54.3882 66.8101L54.2808 68.4214C54.2808 68.4214 53.8726 68.4214 53.4644 68.3354C53.2193 68.2658 52.9872 68.157 52.7769 68.0132L52.3257 66.896L54.3882 66.8101ZM46.9976 61.9976L45.8159 63.6519L44.5269 61.5464L45.4937 60.5366L46.9976 61.9976Z" fill="white"/>
<path fill-rule="evenodd" clip-rule="evenodd" d="M45.4919 60.4143L47.1109 61.987L45.8108 63.8071L44.4194 61.5344L45.4919 60.4143ZM45.4963 60.6582L44.6352 61.5576L45.8219 63.4959L46.8851 62.0074L45.4963 60.6582ZM69.3008 60.6408L70.1307 62.0872L68.9552 63.8033L67.7013 61.9815L69.3008 60.6408ZM67.9315 62.0129L68.9549 63.4997L69.9279 62.0791L69.2538 60.9044L67.9315 62.0129ZM60.419 66.7093L62.2036 66.971L62.2764 67.9421L62.2437 67.9703L62.1875 67.9054C62.2437 67.9703 62.2438 67.9703 62.2437 67.9703L62.2433 67.9707L62.2425 67.9714L62.2393 67.9741C62.2366 67.9764 62.2327 67.9797 62.2277 67.9839C62.2176 67.9922 62.203 68.0042 62.1842 68.0189C62.1468 68.0484 62.0929 68.0891 62.0267 68.1347C61.8948 68.2254 61.7114 68.3367 61.5096 68.4152L61.507 68.4162L61.5044 68.417C61.2924 68.484 61.0711 68.517 60.9041 68.5334C60.8203 68.5416 60.7495 68.5458 60.6995 68.5478C60.6745 68.5489 60.6546 68.5494 60.6409 68.5497C60.6341 68.5498 60.6287 68.5499 60.6251 68.5499L60.6208 68.5499L60.6196 68.5499H60.6193C60.6193 68.5499 60.6191 68.5499 60.6191 68.464L60.6193 68.5499L60.5386 68.5499L60.419 66.7093ZM60.6995 68.3758C60.7464 68.3738 60.8112 68.3698 60.8873 68.3624C61.0473 68.3466 61.2545 68.3154 61.4499 68.254C61.6338 68.1821 61.804 68.0792 61.9293 67.993C61.992 67.9499 62.0429 67.9114 62.0779 67.8839C62.0855 67.8779 62.0924 67.8724 62.0984 67.8675L62.0425 67.1211L60.6043 66.9101L60.6995 68.3758ZM54.4807 66.7198L54.3616 68.507L54.2812 68.507V68.421C54.2812 68.4719 54.2812 68.4927 54.2812 68.5011C54.2812 68.507 54.2812 68.507 54.2812 68.507L54.2797 68.507L54.2759 68.5069L54.2617 68.5068C54.2493 68.5066 54.2313 68.5063 54.2085 68.5056C54.1629 68.5042 54.0979 68.5015 54.0201 68.496C53.8647 68.4851 53.6564 68.4632 53.4471 68.4192L53.4442 68.4186L53.4413 68.4178C53.1874 68.3456 52.9467 68.2328 52.7288 68.0838L52.7073 68.0691L52.2008 66.8148L54.4807 66.7198ZM54.2009 68.3334C54.1582 68.332 54.1003 68.3293 54.0321 68.3246C53.882 68.314 53.6834 68.2931 53.4854 68.2516C53.2586 68.1868 53.0433 68.0872 52.8472 67.9563L52.4514 66.9764L54.2965 66.8995L54.2009 68.3334Z" fill="black"/>
<path d="M52.7344 70.1187C52.7344 71.6655 62.1875 71.6655 62.1875 70.1187V67.9272C62.1875 69.0659 52.7344 68.8296 52.7344 67.9272V70.1187Z" fill="white"/>
<path fill-rule="evenodd" clip-rule="evenodd" d="M62.0243 68.0601C62.0822 68.0094 62.1011 67.9653 62.1011 67.9272H62.273V70.1187C62.273 70.361 62.0881 70.5524 61.8229 70.7012C61.5535 70.8523 61.1747 70.9753 60.7283 71.0727C59.834 71.2679 58.6457 71.3647 57.4605 71.3647C56.2752 71.3647 55.0869 71.2679 54.1926 71.0727C53.7462 70.9753 53.3674 70.8523 53.098 70.7012C52.8328 70.5524 52.6479 70.361 52.6479 70.1187V67.9272H52.8198C52.8198 67.9429 52.83 67.9743 52.891 68.0193C52.9503 68.0629 53.0426 68.1078 53.1685 68.1519C53.4193 68.2398 53.7822 68.3177 54.2235 68.383C55.1048 68.5136 56.2823 68.592 57.4615 68.6067C58.6409 68.6214 59.8178 68.5724 60.6981 68.4494C61.139 68.3878 61.5005 68.3082 61.7496 68.2111C61.8745 68.1624 61.9657 68.1114 62.0243 68.0601ZM62.1011 68.219C62.025 68.2764 61.9265 68.3267 61.812 68.3712C61.5442 68.4756 61.1671 68.5574 60.7219 68.6196C59.8297 68.7443 58.6433 68.7934 57.4594 68.7786C56.2753 68.7638 55.0896 68.6851 54.1983 68.5531C53.7534 68.4872 53.3778 68.4074 53.1117 68.3141C52.9954 68.2734 52.896 68.2287 52.8198 68.1789V70.1187C52.8198 70.263 52.9303 70.41 53.1821 70.5513C53.4297 70.6902 53.7894 70.8088 54.2293 70.9048C55.1074 71.0964 56.2824 71.1929 57.4605 71.1929C58.6385 71.1929 59.8135 71.0964 60.6916 70.9048C61.1315 70.8088 61.4912 70.6902 61.7388 70.5513C61.9906 70.41 62.1011 70.263 62.1011 70.1187V68.219Z" fill="black"/>
<path d="M44.312 65.0266C45.1284 69.2375 52.7339 69.3235 52.7339 69.3235V67.927C52.562 67.3684 52.8628 67.1751 54.1089 67.0032C54.6245 66.9602 54.3882 66.2297 54.3882 66.2297C54.3882 66.2297 51.0796 66.8098 48.7378 65.9075C45.5796 64.6184 45.1284 62.1477 45.1284 62.1477C45.1284 62.1477 44.9136 64.0813 44.2905 65.0266H44.312ZM70.5659 65.0266C69.7925 69.2375 62.187 69.3235 62.187 69.3235V67.927C62.3159 67.3684 61.9722 67.1751 60.7476 67.0032C60.2534 66.9602 60.5327 66.2297 60.5327 66.2297C60.5327 66.2297 63.8198 66.8098 66.1616 65.9075C69.2769 64.6184 69.6421 62.1477 69.6421 62.1477C69.6421 62.1477 69.9644 64.0813 70.5659 65.0266V65.0266Z" fill="white"/>
<path fill-rule="evenodd" clip-rule="evenodd" d="M48.7699 65.8277C49.9247 66.2725 51.3233 66.3533 52.4391 66.3212C52.996 66.3052 53.4802 66.2611 53.8251 66.221C53.9975 66.201 54.135 66.182 54.2292 66.168C54.2763 66.161 54.3126 66.1553 54.3371 66.1513C54.3493 66.1493 54.3585 66.1478 54.3647 66.1468L54.3716 66.1456L54.3733 66.1453L54.3736 66.1452L54.3886 66.2299C54.4703 66.2034 54.4703 66.2034 54.4704 66.2035L54.4704 66.2038L54.4706 66.2044L54.4713 66.2064L54.4734 66.2134C54.4752 66.2194 54.4777 66.228 54.4806 66.2388C54.4865 66.2603 54.4942 66.2908 54.5016 66.3275C54.5165 66.4002 54.5311 66.4999 54.5282 66.6029C54.5253 66.7047 54.505 66.8188 54.4417 66.9124C54.3758 67.0099 54.27 67.0755 54.1188 67.0887C53.8095 67.1314 53.5614 67.1752 53.3657 67.2249C53.1687 67.275 53.0305 67.3298 52.9377 67.3917C52.8474 67.4519 52.8026 67.5169 52.785 67.5911C52.7666 67.669 52.7754 67.7686 52.8164 67.9019L52.8202 67.9142V69.4105L52.7333 69.4095L52.7343 69.3236C52.7333 69.4095 52.7334 69.4095 52.7333 69.4095L52.7329 69.4095L52.7317 69.4095L52.7274 69.4095L52.7107 69.4092C52.696 69.4089 52.6743 69.4084 52.6461 69.4075C52.5897 69.4058 52.507 69.4028 52.4015 69.3975C52.1907 69.3869 51.889 69.367 51.5245 69.3299C50.7957 69.2557 49.8145 69.1127 48.8068 68.8372C46.8228 68.2946 44.6932 67.2258 44.2422 65.1127H44.1313L44.2192 64.9794C44.5213 64.521 44.7282 63.8149 44.8595 63.2144C44.9249 62.9159 44.9709 62.6465 45.0005 62.4518C45.0154 62.3545 45.0261 62.2759 45.0331 62.2217C45.0366 62.1946 45.0392 62.1737 45.0409 62.1595L45.0428 62.1436L45.0433 62.1396L45.0434 62.1384L45.213 62.1324C45.2133 62.1323 45.2133 62.1323 45.2133 62.1323L45.2135 62.1334L45.2144 62.138C45.2153 62.1422 45.2166 62.1487 45.2185 62.1573C45.2224 62.1746 45.2285 62.2007 45.2374 62.2346C45.2553 62.3023 45.2845 62.4014 45.3294 62.5246C45.4191 62.7711 45.5715 63.1142 45.8212 63.4974C46.32 64.2628 47.2089 65.1904 48.7699 65.8277ZM45.1582 62.5565C45.1282 62.7449 45.0853 62.9866 45.0275 63.2512C44.9006 63.8312 44.6994 64.5323 44.3983 65.0182C44.7998 67.0648 46.8535 68.1248 48.8522 68.6714C49.8479 68.9437 50.8191 69.0853 51.5419 69.1589C51.9031 69.1956 52.2019 69.2154 52.4102 69.2259C52.5126 69.231 52.5931 69.234 52.6483 69.2356V67.9399C52.6062 67.7986 52.59 67.6689 52.6177 67.5515C52.6472 67.427 52.7232 67.3281 52.8424 67.2487C52.959 67.1709 53.119 67.1103 53.3234 67.0583C53.5287 67.0061 53.7848 66.9613 54.0975 66.9182L54.0998 66.9179L54.1021 66.9177C54.2074 66.9089 54.2647 66.8673 54.2992 66.8162C54.3366 66.7608 54.3539 66.6842 54.3564 66.598C54.3588 66.513 54.3466 66.4274 54.3332 66.3618C54.3307 66.3494 54.3281 66.3378 54.3257 66.3272C54.3056 66.3303 54.2818 66.334 54.2544 66.338C54.1586 66.3522 54.0193 66.3715 53.8449 66.3918C53.4963 66.4323 53.007 66.4768 52.444 66.493C51.3203 66.5253 49.8941 66.4451 48.7073 65.9878L48.7057 65.9872C47.1089 65.3354 46.1934 64.3833 45.6772 63.5912C45.4193 63.1956 45.2614 62.8404 45.1679 62.5834C45.1646 62.5743 45.1613 62.5653 45.1582 62.5565ZM54.3886 66.2299L54.4704 66.2035L54.4473 66.1323L54.3736 66.1452L54.3886 66.2299ZM69.7272 62.1337L69.7273 62.134L69.7275 62.135L69.7281 62.139L69.7309 62.155C69.7334 62.1692 69.7371 62.1902 69.742 62.2173C69.7519 62.2716 69.7668 62.3503 69.7865 62.4477C69.8259 62.6426 69.8846 62.9123 69.962 63.2112C70.1176 63.8121 70.3459 64.5203 70.6388 64.9806L70.5663 65.0267L70.6508 65.0423C70.2541 67.2022 68.1098 68.2887 66.1095 68.8372C65.1045 69.1127 64.1246 69.2557 63.3965 69.3299C63.0323 69.367 62.7308 69.3869 62.52 69.3975C62.4147 69.4028 62.332 69.4058 62.2756 69.4075C62.2473 69.4084 62.2257 69.4089 62.211 69.4092L62.1943 69.4095L62.1899 69.4095L62.1888 69.4095L62.1885 69.4095C62.1884 69.4095 62.1884 69.4095 62.1874 69.3236L62.1885 69.4095L62.1015 69.4105V67.9173L62.1037 67.9078C62.134 67.7763 62.1338 67.6771 62.1076 67.5985C62.082 67.5222 62.0283 67.4548 61.9296 67.393C61.8292 67.3301 61.6854 67.275 61.4866 67.2249C61.289 67.1751 61.0421 67.1314 60.7381 67.0887C60.5906 67.0753 60.4899 67.0078 60.4316 66.9075C60.3763 66.8124 60.365 66.6978 60.3694 66.5968C60.3738 66.4942 60.3948 66.3949 60.4142 66.3225C60.4239 66.286 60.4334 66.2556 60.4405 66.2342C60.4441 66.2235 60.4471 66.215 60.4492 66.209L60.4517 66.2021L60.4525 66.2001L60.4527 66.1995L60.4528 66.1992C60.4528 66.1992 60.4528 66.1992 60.5331 66.2299L60.548 66.1452L60.5502 66.1456L60.557 66.1468C60.5597 66.1472 60.563 66.1478 60.5668 66.1484C60.5718 66.1493 60.5776 66.1502 60.5845 66.1513C60.6087 66.1553 60.6448 66.161 60.6916 66.168C60.7852 66.182 60.9219 66.201 61.0933 66.221C61.4361 66.2611 61.9176 66.3052 62.4719 66.3212C63.5821 66.3533 64.9753 66.2725 66.1301 65.8278C67.669 65.1908 68.5253 64.2638 68.9973 63.4992C69.2336 63.1163 69.374 62.7735 69.4551 62.5271C69.4957 62.404 69.5214 62.305 69.5369 62.2373C69.5447 62.2035 69.5499 62.1774 69.5531 62.1601C69.5547 62.1515 69.5559 62.145 69.5566 62.1408L69.5573 62.1363L69.5575 62.1353C69.5575 62.1353 69.5575 62.1352 69.5578 62.1353L69.7272 62.1337ZM60.5331 66.2299L60.548 66.1452L60.4782 66.1329L60.4528 66.1992L60.5331 66.2299ZM60.5916 66.3266C60.588 66.3387 60.5841 66.3522 60.5802 66.3668C60.5626 66.4327 60.5447 66.5187 60.5411 66.6041C60.5374 66.6912 60.5489 66.7672 60.5802 66.8211C60.6082 66.8693 60.6571 66.9091 60.7554 66.9177L60.7576 66.9179L60.7599 66.9182C61.0672 66.9613 61.3218 67.0061 61.5286 67.0583C61.7347 67.1102 61.8984 67.1706 62.0209 67.2474C62.1451 67.3252 62.2297 67.4217 62.2706 67.544C62.3099 67.6616 62.3055 67.7928 62.2733 67.9367V69.2356C62.3286 69.234 62.4091 69.231 62.5114 69.2259C62.7196 69.2154 63.0182 69.1956 63.3791 69.1589C64.1012 69.0853 65.0711 68.9437 66.0641 68.6714C68.0493 68.1271 70.0833 67.0735 70.4756 65.0439C70.176 64.5591 69.9485 63.8447 69.7956 63.2543C69.7251 62.982 69.6699 62.7339 69.6306 62.5432C69.6266 62.5555 69.6226 62.5681 69.6184 62.5809C69.5337 62.8381 69.388 63.1935 69.1436 63.5895C68.6542 64.3822 67.7706 65.335 66.1949 65.987L66.1929 65.9878C65.0061 66.4451 63.5853 66.5253 62.4669 66.493C61.9066 66.4768 61.42 66.4323 61.0733 66.3918C60.9 66.3715 60.7615 66.3522 60.6662 66.338C60.6373 66.3337 60.6123 66.3298 60.5916 66.3266Z" fill="black"/>
<path d="M44.8922 63.4153C42.7867 62.2766 44.441 61.095 44.6129 57.7004C44.9351 59.7629 47.2769 60.6223 46.9976 61.9543C46.0308 61.9973 45.5797 60.5364 45.1285 62.1477L44.9137 63.4368L44.8922 63.4153ZM69.9644 63.4153C72.0699 62.2336 70.3297 61.095 70.1578 57.7004C69.8355 59.7629 67.5367 60.6223 67.7945 61.9543C68.7398 61.9973 69.191 60.5364 69.6422 62.1477L69.9644 63.3723V63.4153Z" fill="white"/>
<path fill-rule="evenodd" clip-rule="evenodd" d="M44.5275 57.6964L44.6983 57.6875C44.8548 58.6894 45.5016 59.402 46.0944 60.0433C46.1026 60.0521 46.1107 60.0609 46.1188 60.0696C46.4035 60.3776 46.6764 60.6728 46.8618 60.9729C47.054 61.2842 47.1581 61.6104 47.0822 61.9723L47.0686 62.0376L47.0019 62.0405C46.7374 62.0523 46.5113 61.9607 46.3191 61.8511C46.2231 61.7963 46.1339 61.736 46.0527 61.6811C45.9701 61.6252 45.8972 61.5759 45.829 61.5386C45.7605 61.5012 45.7041 61.4802 45.6557 61.4756C45.6108 61.4714 45.5697 61.4809 45.5269 61.5129C45.4813 61.547 45.4303 61.6093 45.376 61.7174C45.3224 61.8242 45.2682 61.9704 45.213 62.1668L44.9715 63.6159L44.8407 63.4852C44.3126 63.1978 44.0056 62.9 43.8576 62.5534C43.7089 62.2052 43.7278 61.8236 43.8147 61.3873C43.8656 61.1324 43.9395 60.8574 44.0211 60.5542C44.2211 59.8104 44.4667 58.8972 44.5275 57.6964ZM44.8508 63.2942L45.045 62.1293L45.0462 62.1249C45.1034 61.9206 45.1616 61.7614 45.2224 61.6403C45.2829 61.5198 45.3487 61.4315 45.424 61.3752C45.502 61.317 45.5858 61.2964 45.6718 61.3045C45.7543 61.3123 45.8348 61.346 45.9114 61.3878C45.9868 61.429 46.0655 61.4822 46.1446 61.5358L46.149 61.5387C46.2309 61.5941 46.3149 61.6508 46.4042 61.7018C46.5638 61.7928 46.7349 61.8624 46.9259 61.8691C46.9647 61.5909 46.8806 61.3306 46.7155 61.0632C46.5391 60.7775 46.2761 60.4931 45.9858 60.179C45.9799 60.1726 45.9741 60.1663 45.9682 60.16C45.4818 59.6338 44.9296 59.0316 44.6588 58.2401C44.5618 59.2067 44.353 59.9837 44.1823 60.6186C44.1025 60.9155 44.0311 61.1813 43.9833 61.4209C43.8984 61.8468 43.8877 62.1862 44.0156 62.4859C44.1363 62.7684 44.3864 63.0298 44.8508 63.2942ZM68.6956 60.0437C69.2801 59.4027 69.9168 58.6899 70.0734 57.6875L70.2441 57.6964C70.3064 58.9262 70.5742 59.8499 70.7912 60.5985C70.8721 60.8774 70.9459 61.132 70.9994 61.3691C71.0972 61.8022 71.1275 62.1827 70.9874 62.5334C70.8468 62.8851 70.5418 63.1904 70.007 63.4906L69.879 63.5624V63.3838L69.5599 62.1712C69.5598 62.171 69.5598 62.1707 69.5597 62.1705C69.5042 61.9723 69.4496 61.8249 69.3957 61.7174C69.3414 61.6092 69.2905 61.5469 69.245 61.5129C69.2023 61.4809 69.1615 61.4714 69.1171 61.4756C69.0692 61.4802 69.0134 61.5011 68.9456 61.5385C68.8782 61.5757 68.8061 61.625 68.7246 61.6808L68.7234 61.6816C68.6436 61.7363 68.556 61.7963 68.4622 61.8508C68.2731 61.9604 68.0508 62.0523 67.7911 62.0405L67.7235 62.0375L67.7106 61.971C67.6407 61.6096 67.746 61.2841 67.9369 60.9731C68.1204 60.6745 68.3883 60.3807 68.6678 60.0742L68.6956 60.0437ZM70.0292 63.2791C70.4779 63.0102 70.7163 62.7486 70.8277 62.4696C70.9481 62.1684 70.9274 61.8305 70.8318 61.4069C70.7812 61.183 70.7098 60.9367 70.6306 60.6635C70.4449 60.0228 70.2163 59.2344 70.1136 58.2405C69.8457 59.0313 69.3025 59.6333 68.8226 60.1595L68.8011 60.1832C68.5163 60.4954 68.2581 60.7786 68.0834 61.0631C67.9193 61.3302 67.834 61.5907 67.8684 61.869C68.0532 61.8617 68.2197 61.7927 68.3759 61.7021C68.4638 61.6511 68.5466 61.5944 68.6275 61.539L68.6295 61.5376C68.7084 61.4835 68.7871 61.4296 68.8626 61.388C68.9386 61.3461 69.0187 61.3123 69.1009 61.3045C69.1867 61.2964 69.2703 61.317 69.3481 61.3753C69.4232 61.4316 69.4889 61.5198 69.5493 61.6403C69.6101 61.7614 69.6682 61.9206 69.7254 62.1249L69.7258 62.1262L70.0292 63.2791Z" fill="black"/>
<path d="M46.1824 64.9844L46.3972 65.1563L45.9031 65.7148C45.6883 65.9297 45.6453 66.0801 45.7957 66.209C45.9676 66.3809 46.0965 66.3164 46.2683 66.123L46.8269 65.543L46.9988 65.7148L46.4617 66.3594C46.1609 66.7031 45.8816 66.6172 45.6453 66.4023C45.4304 66.2305 45.323 65.9512 45.6453 65.6074L46.1824 64.9844V64.9844ZM47.1062 65.7578L47.3211 65.9082L47.2781 66.9824L47.7937 66.209L48.0086 66.3594L47.2781 67.541L46.9988 67.4121L47.0418 66.3164L46.5476 67.0898L46.3328 66.9609L47.1062 65.7578ZM47.5144 67.6914L48.159 66.4023L48.3738 66.5313L47.7937 67.7773L47.5144 67.6914ZM48.5242 66.5957L48.0086 67.9062L48.5242 68.0996C48.9969 68.2715 49.2117 68.0566 49.3621 67.6699C49.5125 67.2402 49.448 66.9609 48.9754 66.7676L48.5242 66.5957ZM48.6961 66.918C49.1687 67.0684 49.2117 67.2617 49.0828 67.5625C48.9539 67.8848 48.825 67.9922 48.3738 67.7773L48.6961 66.918ZM50.0281 67.0898L49.2117 68.3359L49.534 68.4219L49.7058 68.0996L50.2644 68.2285L50.3074 68.5508L50.6297 68.5938L50.3074 67.1328L50.0281 67.0898V67.0898ZM50.114 67.4121L50.2215 67.9707L49.8562 67.9277L50.114 67.4121V67.4121ZM50.823 67.1973L50.7586 68.6367H51.2957C51.8113 68.6367 51.9402 68.3789 51.9617 67.9492C51.9617 67.5195 51.8113 67.2617 51.3172 67.2402L50.823 67.2188V67.1973ZM51.0808 67.4551C51.5965 67.4551 51.6824 67.627 51.6609 67.9707C51.6609 68.3145 51.575 68.4648 51.0593 68.4004L51.0808 67.4551V67.4551ZM55.614 69.1953V70.6563H55.9363V70.1191C55.9363 70.1191 56.2156 70.1191 56.4519 70.0762C56.6238 70.0332 56.7527 69.9043 56.7527 69.625C56.7527 69.3457 56.6023 69.1953 56.323 69.1953H55.614ZM55.9363 69.4102L56.2586 69.4316C56.5379 69.4316 56.4734 69.8398 56.2586 69.8398H55.9363V69.4102ZM57.2683 69.1953L56.6668 70.6563H56.989L57.1394 70.291H57.741L57.8699 70.6563H58.1922L57.5906 69.1953H57.2683V69.1953ZM57.4187 69.5176L57.6336 70.0762H57.2254L57.4187 69.5176V69.5176ZM58.1922 70.377L58.9656 69.4316H58.2781V69.2168H59.3738V69.4316L58.5574 70.3984H59.3738V70.6777H58.1922V70.377ZM62.8113 67.541L63.0906 67.498L63.2195 68.3359C63.284 68.6152 63.1336 68.8301 62.9402 68.8945C62.7039 68.9805 62.4031 68.8945 62.3601 68.5078L62.575 68.4648C62.6394 68.7012 62.7468 68.7227 62.8543 68.6797C62.9402 68.6582 62.9832 68.5078 62.9617 68.3789L62.8113 67.541ZM63.284 67.4766L63.5418 67.4121L63.6707 68.0996C63.7351 68.4004 63.8211 68.5293 64.0144 68.4863C64.2293 68.4434 64.2722 68.3145 64.2293 68.0566L64.0574 67.3262L64.3367 67.2832L64.5086 68.0352C64.616 68.4648 64.4011 68.6797 64.0789 68.7227C63.7996 68.7656 63.5203 68.7012 63.4343 68.2715L63.284 67.4766ZM64.7019 68.0996L64.9168 68.0137C65.0457 68.2285 65.2176 68.207 65.3465 68.1426C65.5398 68.0566 65.5613 67.8848 65.4754 67.8418C65.325 67.7559 65.0242 67.8633 64.8308 67.7988C64.6375 67.7344 64.5515 67.6055 64.5515 67.4336C64.573 67.2188 64.7664 67.1113 64.9812 67.0469C65.1961 66.9824 65.4109 67.0039 65.5613 67.2617L65.3035 67.3691C65.1961 67.2188 65.0886 67.2187 64.9812 67.2617C64.8953 67.3047 64.7664 67.3906 64.8308 67.5195C64.8953 67.6055 65.239 67.541 65.4109 67.541C65.6043 67.541 65.7547 67.6914 65.7761 67.8633C65.7976 68.0996 65.7117 68.2285 65.4324 68.3574C65.0672 68.4863 64.7664 68.3359 64.7019 68.0996V68.0996ZM65.9265 66.9609L65.5613 67.1328L65.4754 66.918L66.4851 66.4883L66.5711 66.6816L66.2058 66.8535L66.6355 67.8633L66.3992 68.0137L65.9265 66.9609ZM66.5281 66.4453L66.7429 66.3164L67.3875 67.498L67.1726 67.6484L66.5281 66.4453ZM68.0965 66.5313L68.3543 66.4453C68.3858 66.5308 68.396 66.6227 68.3839 66.713C68.3718 66.8034 68.3378 66.8893 68.2848 66.9635C68.2318 67.0377 68.1615 67.0977 68.08 67.1385C67.9985 67.1792 67.9083 67.1994 67.8172 67.1973C67.1297 67.1973 67.0437 66.4238 67.1726 66.166C67.3445 65.7363 67.8601 65.7578 68.0965 65.9941L67.8601 66.166C67.7097 65.9941 67.3875 66.1016 67.366 66.2734C67.3467 66.4064 67.3695 66.5421 67.4311 66.6615C67.4927 66.781 67.5902 66.8781 67.7097 66.9395C67.9246 67.0469 68.2469 66.7891 68.0965 66.5313V66.5313ZM67.9461 65.5859L68.1609 65.3926L69.0203 66.4883L68.784 66.6816L67.9461 65.5859ZM68.8054 64.8984L68.5906 65.0703L69.1062 66.4453L69.3211 66.2305L69.1922 65.9512L69.6004 65.5859L69.8797 65.7148L70.0945 65.543L68.8054 64.8984V64.8984ZM68.9129 65.2207L69.364 65.4355L69.1062 65.7148L68.9129 65.2207V65.2207Z" fill="black"/>
</g>
<defs>
<clipPath id="clip0_5158_362086">
<rect x="0.0556641" y="0.0371094" width="110" height="110" rx="55" fill="white"/>
</clipPath>
</defs>
</svg>
