<svg width="111" height="111" viewBox="0 0 111 111" fill="none" xmlns="http://www.w3.org/2000/svg">
<g clip-path="url(#clip0_5158_362207)">
<path d="M-2.92773 -3.12231H113.947V113.753H-2.92773V-3.12231Z" fill="#CE1126"/>
<path d="M21.1353 20.9404H89.8853V89.6904H21.1353V20.9404Z" fill="#007A5E"/>
<path d="M21.1353 20.9404H89.8853L21.1353 89.6904H89.8853L21.1353 20.9404Z" fill="#FCD116"/>
<path d="M55.5103 66.7019C61.799 66.7019 66.897 61.6039 66.897 55.3152C66.897 49.0265 61.799 43.9285 55.5103 43.9285C49.2215 43.9285 44.1235 49.0265 44.1235 55.3152C44.1235 61.6039 49.2215 66.7019 55.5103 66.7019Z" fill="#CE1126"/>
<path d="M55.5059 44.855L52.2634 54.8344L57.2531 56.4556" fill="#FCD116"/>
<path d="M55.5059 44.855L58.7484 54.8344L53.7587 56.4556" fill="#FCD116"/>
<path d="M65.4873 52.1057H54.9943V57.3522" fill="#FCD116"/>
<path d="M65.4873 52.1057L56.9983 58.2733L53.9145 54.0288" fill="#FCD116"/>
<path d="M61.6768 63.8369L58.4343 53.8575L53.4445 55.4788" fill="#FCD116"/>
<path d="M61.6768 63.8369L53.1878 57.6693L56.2716 53.4248" fill="#FCD116"/>
<path d="M49.3438 63.8372L57.8327 57.6695L54.7489 53.425" fill="#FCD116"/>
<path d="M49.3438 63.8372L52.5863 53.8578L57.576 55.479" fill="#FCD116"/>
<path d="M45.5283 52.1055L54.0173 58.2731L57.1011 54.0286" fill="#FCD116"/>
<path d="M45.5283 52.1055H56.0213V57.352" fill="#FCD116"/>
<path d="M33.8242 8.12231L31.9082 14.0192L34.8567 14.9772" fill="#FCD116"/>
<path d="M33.8242 8.12231L35.7402 14.0192L32.7918 14.9772" fill="#FCD116"/>
<path d="M39.7197 12.406H33.5193V15.5062" fill="#FCD116"/>
<path d="M39.7197 12.406L34.7035 16.0505L32.8813 13.5424" fill="#FCD116"/>
<path d="M37.4663 19.3389L35.5503 13.4419L32.6018 14.4" fill="#FCD116"/>
<path d="M37.4663 19.3389L32.4501 15.6944L34.2723 13.1863" fill="#FCD116"/>
<path d="M30.1797 19.3384L35.1959 15.6939L33.3737 13.1858" fill="#FCD116"/>
<path d="M30.1797 19.3384L32.0957 13.4415L35.0442 14.3995" fill="#FCD116"/>
<path d="M27.9219 12.406L32.9381 16.0505L34.7603 13.5424" fill="#FCD116"/>
<path d="M27.9219 12.406H34.1223V15.5062" fill="#FCD116"/>
<path d="M55.5078 8.14185L53.5918 14.0388L56.5402 14.9968" fill="#FCD116"/>
<path d="M55.5078 8.14185L57.4238 14.0388L54.4754 14.9968" fill="#FCD116"/>
<path d="M61.4082 12.426H55.2078V15.5262" fill="#FCD116"/>
<path d="M61.4082 12.426L56.392 16.0705L54.5697 13.5624" fill="#FCD116"/>
<path d="M59.1548 19.3579L57.2388 13.461L54.2903 14.419" fill="#FCD116"/>
<path d="M59.1548 19.3579L54.1386 15.7134L55.9608 13.2053" fill="#FCD116"/>
<path d="M51.8662 19.3584L56.8824 15.7139L55.0602 13.2058" fill="#FCD116"/>
<path d="M51.8662 19.3584L53.7822 13.4615L56.7307 14.4195" fill="#FCD116"/>
<path d="M49.6104 12.4255L54.6266 16.07L56.4488 13.5619" fill="#FCD116"/>
<path d="M49.6104 12.4255H55.8107V15.5257" fill="#FCD116"/>
<path d="M77.1963 8.14185L75.2803 14.0388L78.2287 14.9968" fill="#FCD116"/>
<path d="M77.1963 8.14185L79.1123 14.0388L76.1639 14.9968" fill="#FCD116"/>
<path d="M83.0933 12.426H76.8929V15.5262" fill="#FCD116"/>
<path d="M83.0933 12.426L78.077 16.0705L76.2548 13.5624" fill="#FCD116"/>
<path d="M80.8423 19.3572L78.9263 13.4603L75.9778 14.4183" fill="#FCD116"/>
<path d="M80.8423 19.3572L75.8261 15.7127L77.6483 13.2046" fill="#FCD116"/>
<path d="M73.5542 19.3579L78.5704 15.7134L76.7482 13.2053" fill="#FCD116"/>
<path d="M73.5542 19.3579L75.4702 13.461L78.4187 14.419" fill="#FCD116"/>
<path d="M71.2959 12.426L76.3121 16.0705L78.1344 13.5624" fill="#FCD116"/>
<path d="M71.2959 12.426H77.4963V15.5262" fill="#FCD116"/>
<path d="M26.5063 55.4976C27.9426 58.1218 30.7219 60.9663 33.1655 61.9756C33.2028 59.3147 32.2328 55.883 30.9271 53.167L26.5063 55.4976Z" fill="#CE1126"/>
<path d="M24.084 46.292C26.1446 50.6592 18.7004 61.0429 31.1012 63.4795C29.4366 61.0268 28.6807 58.0605 28.9663 55.1013C31.7088 56.3963 33.9623 58.5531 35.3895 61.2491C38.6382 49.3659 27.0728 50.0969 24.0654 46.292H24.084Z" fill="#FCD116"/>
<path d="M33.8242 90.489L31.9082 96.3859L34.8567 97.3439" fill="#FCD116"/>
<path d="M33.8242 90.489L35.7402 96.3859L32.7918 97.3439" fill="#FCD116"/>
<path d="M39.7197 94.7734H33.5193V97.8736" fill="#FCD116"/>
<path d="M39.7197 94.7734L34.7035 98.4179L32.8813 95.9098" fill="#FCD116"/>
<path d="M37.4663 101.707L35.5503 95.8099L32.6018 96.7679" fill="#FCD116"/>
<path d="M37.4663 101.707L32.4501 98.0623L34.2723 95.5542" fill="#FCD116"/>
<path d="M30.1797 101.706L35.1959 98.0613L33.3737 95.5532" fill="#FCD116"/>
<path d="M30.1797 101.706L32.0957 95.8089L35.0442 96.7669" fill="#FCD116"/>
<path d="M27.9224 94.7751L32.9386 98.4196L34.7608 95.9115" fill="#FCD116"/>
<path d="M27.9224 94.7751H34.1228V97.8753" fill="#FCD116"/>
<path d="M55.5078 90.5093L53.5918 96.4062L56.5402 97.3642" fill="#FCD116"/>
<path d="M55.5078 90.5093L57.4238 96.4062L54.4754 97.3642" fill="#FCD116"/>
<path d="M61.4028 94.7932H55.2024V97.8934" fill="#FCD116"/>
<path d="M61.4028 94.7932L56.3866 98.4377L54.5644 95.9296" fill="#FCD116"/>
<path d="M59.1558 101.727L57.2397 95.8296L54.2913 96.7877" fill="#FCD116"/>
<path d="M59.1558 101.727L54.1395 98.0821L55.9618 95.574" fill="#FCD116"/>
<path d="M51.8662 101.725L56.8824 98.0806L55.0602 95.5725" fill="#FCD116"/>
<path d="M51.8662 101.725L53.7822 95.8282L56.7307 96.7862" fill="#FCD116"/>
<path d="M49.6104 94.7939L54.6266 98.4384L56.4488 95.9303" fill="#FCD116"/>
<path d="M49.6104 94.7939H55.8107V97.8941" fill="#FCD116"/>
<path d="M77.1963 90.5278L75.2803 96.4248L78.2287 97.3828" fill="#FCD116"/>
<path d="M77.1963 90.5278L79.1123 96.4248L76.1639 97.3828" fill="#FCD116"/>
<path d="M83.0928 94.8132H76.8924V97.9134" fill="#FCD116"/>
<path d="M83.0928 94.8132L78.0766 98.4577L76.2543 95.9496" fill="#FCD116"/>
<path d="M80.8428 101.744L78.9267 95.847L75.9783 96.805" fill="#FCD116"/>
<path d="M80.8428 101.744L75.8266 98.0994L77.6488 95.5913" fill="#FCD116"/>
<path d="M73.5547 101.745L78.5709 98.1006L76.7487 95.5925" fill="#FCD116"/>
<path d="M73.5547 101.745L75.4707 95.8482L78.4192 96.8062" fill="#FCD116"/>
<path d="M71.2964 94.8123L76.3126 98.4568L78.1349 95.9486" fill="#FCD116"/>
<path d="M71.2964 94.8123H77.4968V97.9124" fill="#FCD116"/>
</g>
<defs>
<clipPath id="clip0_5158_362207">
<rect x="0.509766" y="0.31543" width="110" height="110" rx="55" fill="white"/>
</clipPath>
</defs>
</svg>
