<svg width="111" height="111" viewBox="0 0 111 111" fill="none" xmlns="http://www.w3.org/2000/svg">
<g clip-path="url(#clip0_5158_361602)">
<path fill-rule="evenodd" clip-rule="evenodd" d="M0.393555 55.8718C0.393555 25.4962 25.0179 0.871826 55.3936 0.871826C85.7692 0.871826 110.394 25.4962 110.394 55.8718C110.394 86.2475 85.7692 110.872 55.3936 110.872C25.0179 110.872 0.393555 86.2475 0.393555 55.8718Z" fill="#3B5AA3"/>
<path fill-rule="evenodd" clip-rule="evenodd" d="M4.90527 55.8718C4.90527 83.7557 27.5096 106.36 55.3936 106.36C83.2775 106.36 105.882 83.7557 105.882 55.8718C105.882 27.9879 83.2775 5.38354 55.3936 5.38354C27.5096 5.38354 4.90527 27.9879 4.90527 55.8718ZM55.3936 0.871826C25.0179 0.871826 0.393555 25.4962 0.393555 55.8718C0.393555 86.2475 25.0179 110.872 55.3936 110.872C85.7692 110.872 110.394 86.2475 110.394 55.8718C110.394 25.4962 85.7692 0.871826 55.3936 0.871826Z" fill="#BE0027"/>
<path fill-rule="evenodd" clip-rule="evenodd" d="M54.5129 85.9722C54.8997 86.187 55.5227 86.187 55.8665 85.9937C78.0598 74.1773 78.0813 41.7788 55.8879 30.1343C55.6656 30.0295 55.4222 29.9769 55.1765 29.9807C54.9307 29.9844 54.689 30.0443 54.47 30.1558C32.8352 41.9937 32.7708 74.0269 54.5129 85.9722Z" fill="#CBE0E5"/>
<path fill-rule="evenodd" clip-rule="evenodd" d="M54.5133 86.5735C54.8571 86.8528 55.5446 86.8098 55.8668 86.5735C72.2164 74.3274 72.3239 66.7004 71.5934 66.7004H39.2164C38.7223 66.7004 39.4957 74.4563 54.5133 86.552V86.5735Z" fill="#ADD2D9"/>
<path fill-rule="evenodd" clip-rule="evenodd" d="M41.7725 72.7587C43.2525 72.2955 44.8515 72.395 46.2627 73.038C47.4873 73.6825 48.1963 73.6825 49.5068 73.6825C50.9033 73.704 51.9775 74.7353 53.4814 74.7567C56.2314 74.8427 57.4131 76.1962 55.2646 76.2177C54.2549 76.2177 52.085 75.5302 51.0322 75.6806C48.8408 75.8954 47.4443 76.3896 45.3818 78.6884L47.7666 80.3212C49.8291 79.4618 50.1729 78.538 51.3115 78.495C52.6006 78.4521 53.0303 77.6356 54.5342 77.6356C56.2314 77.9579 58.5088 77.4208 59.8623 77.1415C62.2471 76.5829 61.1084 74.9286 59.6689 74.3056C58.5088 73.8114 56.3174 74.3056 54.9424 73.8114C53.9326 73.4032 54.7705 72.7587 55.3291 72.6298C55.8877 72.5224 56.4893 72.7157 57.1768 72.8232C58.4229 72.9306 59.9697 72.8232 61.0439 72.6298C63.2998 72.286 63.1924 71.62 64.2881 71.62C64.9853 71.5993 65.6596 71.367 66.2217 70.954C66.8662 70.5243 67.5107 69.6649 68.2842 69.6864L70.3467 69.7724L67.4248 76.2821L59.2607 84.6181L55.0068 86.2294L45.7256 80.1493L40.999 72.9521L41.751 72.7587H41.7725Z" fill="#FDF9A1"/>
<path fill-rule="evenodd" clip-rule="evenodd" d="M52.4717 66.4209L71.1631 66.335L71.5068 64.6807L70.3037 64.5518C69.6162 64.5088 68.4775 65.2607 67.7041 65.2607C67.1455 65.2607 66.5225 64.2725 65.9854 64.2939C65.04 64.2939 64.9541 65.1533 64.0518 65.1533C63.3213 65.1533 63.0205 64.5947 62.0752 64.6377C61.0869 64.7021 61.1729 65.2393 59.9268 65.2178C58.2725 65.1748 57.6279 63.7354 56.3174 63.7139C54.1045 63.7139 54.04 65.8193 52.4717 66.4209V66.4209Z" fill="#179A3B"/>
<path fill-rule="evenodd" clip-rule="evenodd" d="M52.4717 66.8291L71.7217 66.7217V66.2061L52.042 66.3135L52.4717 66.8291Z" fill="#FDF9A1"/>
<path fill-rule="evenodd" clip-rule="evenodd" d="M60.3774 72.6302C60.6782 73.7474 61.0005 74.1341 62.1821 74.4349C63.3638 74.7142 65.1685 73.5755 64.0513 72.4583C62.977 71.4271 61.8599 71.1692 60.9146 70.2239C58.895 68.2474 55.8657 63.3704 55.8657 59.9544C55.8657 56.9895 55.5864 50.9524 55.5864 45.2376C55.5864 44.8509 54.4692 46.2688 54.4692 46.6341C54.5122 51.7044 54.5122 55.5071 54.7056 60.5989C55.0278 64.3372 56.811 66.8294 58.3579 69.1067C59.0669 70.181 60.0767 71.3626 60.3774 72.6087V72.6302Z" fill="#A79270"/>
<path d="M48.4727 56.9683C48.4297 56.8368 48.373 56.7189 48.3027 56.6147C48.2337 56.5093 48.151 56.4194 48.0547 56.3452C47.9596 56.271 47.8516 56.2144 47.7305 56.1753C47.6094 56.1362 47.4766 56.1167 47.332 56.1167C47.0951 56.1167 46.8796 56.1779 46.6855 56.3003C46.4915 56.4227 46.3372 56.603 46.2227 56.8413C46.1081 57.0796 46.0508 57.3719 46.0508 57.7183C46.0508 58.0646 46.1087 58.3569 46.2246 58.5952C46.3405 58.8335 46.4974 59.0138 46.6953 59.1362C46.8932 59.2586 47.1159 59.3198 47.3633 59.3198C47.5924 59.3198 47.7943 59.271 47.9687 59.1733C48.1445 59.0744 48.2813 58.9351 48.3789 58.7554C48.4779 58.5744 48.5273 58.3615 48.5273 58.1167L48.6758 58.1479H47.4727V57.7183H48.9961V58.1479C48.9961 58.4774 48.9258 58.7638 48.7852 59.0073C48.6458 59.2508 48.4531 59.4396 48.207 59.5737C47.9622 59.7065 47.681 59.7729 47.3633 59.7729C47.0091 59.7729 46.6979 59.6896 46.4297 59.5229C46.1628 59.3563 45.9544 59.1193 45.8047 58.812C45.6563 58.5047 45.582 58.1401 45.582 57.7183C45.582 57.4019 45.6243 57.1174 45.709 56.8647C45.7949 56.6108 45.916 56.3947 46.0723 56.2163C46.2285 56.0379 46.4134 55.9012 46.627 55.8062C46.8405 55.7111 47.0755 55.6636 47.332 55.6636C47.543 55.6636 47.7396 55.6955 47.9219 55.7593C48.1055 55.8218 48.2689 55.911 48.4121 56.0269C48.5566 56.1414 48.6771 56.2788 48.7734 56.439C48.8698 56.5978 48.9362 56.7743 48.9727 56.9683H48.4727Z" fill="#BD0728"/>
<path fill-rule="evenodd" clip-rule="evenodd" d="M47.3325 55.8354C47.0977 55.8354 46.8868 55.8788 46.6973 55.9632C46.5069 56.048 46.3421 56.1696 46.202 56.3296C46.0625 56.4888 45.952 56.6844 45.8724 56.9196C45.7947 57.1516 45.7544 57.4171 45.7544 57.7183C45.7544 58.1201 45.8251 58.4579 45.9598 58.737C46.0967 59.0177 46.284 59.229 46.5211 59.3771C46.7588 59.5247 47.0377 59.6011 47.3638 59.6011C47.6569 59.6011 47.9093 59.54 48.1255 59.4227M46.5575 55.6491C46.7952 55.5434 47.0543 55.4917 47.3325 55.4917C47.5608 55.4917 47.7765 55.5262 47.9784 55.5968C48.1796 55.6654 48.3606 55.7638 48.52 55.8927C48.6806 56.0201 48.8144 56.1729 48.921 56.3501C49.0287 56.5276 49.1021 56.7236 49.1421 56.9365L49.1803 57.1401H48.3485L48.3098 57.0216C48.2713 56.9038 48.2213 56.8006 48.1608 56.7109L48.1594 56.7089C48.1005 56.6189 48.0309 56.5434 47.9503 56.4814L47.9494 56.4807C47.8711 56.4195 47.7812 56.3721 47.6782 56.3389C47.5763 56.306 47.4615 56.2886 47.3325 56.2886C47.1269 56.2886 46.9434 56.3412 46.7777 56.4457C46.615 56.5483 46.4808 56.7021 46.378 56.9158C46.2775 57.1248 46.2231 57.39 46.2231 57.7183C46.2231 58.0463 46.2781 58.3112 46.3797 58.52C46.4833 58.7332 46.6197 58.8871 46.7862 58.99C46.9552 59.0946 47.1462 59.1479 47.3638 59.1479C47.5678 59.1479 47.7399 59.1047 47.8851 59.0235C48.0322 58.9406 48.146 58.825 48.2284 58.6733L48.2286 58.6729C48.2846 58.5705 48.3231 58.4534 48.3422 58.3198H47.3013V57.5464H49.1685V58.1479C49.1685 58.5022 49.0927 58.8192 48.9347 59.093C48.7796 59.3639 48.5637 59.5753 48.2898 59.7246L48.2895 59.7248C48.0162 59.8731 47.706 59.9448 47.3638 59.9448C46.9816 59.9448 46.6381 59.8545 46.3395 59.6689L46.3391 59.6687C46.0425 59.4835 45.8133 59.221 45.6507 58.8873L45.6504 58.8868C45.4884 58.5513 45.4106 58.16 45.4106 57.7183C45.4106 57.3867 45.455 57.0833 45.5465 56.8101L45.5467 56.8096C45.6389 56.5371 45.7705 56.3005 45.9435 56.1031C46.1159 55.9062 46.3209 55.7545 46.5575 55.6491ZM48.356 57.9761H47.645V57.8901H48.8247V58.1479C48.8247 58.4524 48.7599 58.7082 48.6368 58.9214L48.6365 58.922C48.513 59.1378 48.3435 59.3038 48.1255 59.4227M48.6974 58.1167L48.7117 57.9798L48.356 57.9049V57.9761M48.6974 58.1167H48.6997C48.6997 58.3849 48.6454 58.6271 48.5303 58.8376C48.4174 59.0452 48.2578 59.2081 48.0536 59.3231L48.0532 59.3233C47.8495 59.4373 47.618 59.4917 47.3638 59.4917C47.0865 59.4917 46.8322 59.4227 46.6054 59.2824C46.3761 59.1406 46.1986 58.9338 46.0705 58.6704C45.9403 58.4026 45.8794 58.083 45.8794 57.7183C45.8794 57.3538 45.9396 57.0344 46.0682 56.7668C46.1946 56.504 46.3691 56.297 46.5943 56.1549C46.8167 56.0146 47.0642 55.9448 47.3325 55.9448C47.4926 55.9448 47.6434 55.9665 47.7837 56.0117C47.9227 56.0566 48.0488 56.1223 48.1605 56.2094C48.2721 56.2954 48.3674 56.3992 48.4464 56.5196C48.5038 56.6049 48.5526 56.6973 48.5931 56.7964H48.7513C48.7191 56.7008 48.6776 56.6115 48.627 56.5281L48.6267 56.5276C48.5408 56.3848 48.434 56.2631 48.3058 56.1615L48.3045 56.1605C48.1778 56.058 48.0324 55.9783 47.867 55.922L47.8656 55.9215C47.7031 55.8647 47.5259 55.8354 47.3325 55.8354" fill="white"/>
<path d="M53.3027 55.739H53.7871V58.3875C53.7871 58.6609 53.7227 58.905 53.5938 59.1199C53.4661 59.3334 53.2858 59.502 53.0527 59.6257C52.8197 59.7481 52.5462 59.8093 52.2324 59.8093C51.9186 59.8093 51.6452 59.7481 51.4121 59.6257C51.179 59.502 50.998 59.3334 50.8691 59.1199C50.7415 58.905 50.6777 58.6609 50.6777 58.3875V55.739H51.1621V58.3484C51.1621 58.5437 51.2051 58.7175 51.291 58.8699C51.377 59.0209 51.4993 59.1401 51.6582 59.2273C51.8184 59.3132 52.0098 59.3562 52.2324 59.3562C52.4551 59.3562 52.6465 59.3132 52.8066 59.2273C52.9668 59.1401 53.0892 59.0209 53.1738 58.8699C53.2598 58.7175 53.3027 58.5437 53.3027 58.3484V55.739Z" fill="#BD0728"/>
<path fill-rule="evenodd" clip-rule="evenodd" d="M50.5059 55.5671H51.334V58.3484C51.334 58.5175 51.3709 58.6615 51.4405 58.7851C51.5099 58.907 51.6084 59.0037 51.7402 59.0762C51.8702 59.1458 52.0322 59.1843 52.2324 59.1843C52.4328 59.1843 52.5948 59.1458 52.7249 59.0761C52.858 59.0035 52.956 58.907 53.0239 58.7859L53.0241 58.7854C53.0939 58.6618 53.1309 58.5176 53.1309 58.3484V55.5671H53.959V58.3875C53.959 58.6891 53.8875 58.9643 53.7411 59.2083C53.5965 59.4503 53.3922 59.6401 53.1333 59.7776L53.1326 59.7779C52.8706 59.9155 52.5687 59.9812 52.2324 59.9812C51.8961 59.9812 51.5942 59.9155 51.3322 59.7779L51.3315 59.7776C51.0726 59.6401 50.8679 59.4504 50.722 59.2087L50.7214 59.2076C50.5765 58.9638 50.5059 58.6888 50.5059 58.3875V55.5671ZM50.8496 55.9109V58.3875C50.8496 58.6328 50.9064 58.8459 51.0166 59.0316C51.1284 59.2166 51.2855 59.3639 51.4924 59.4738C51.6964 59.5808 51.9413 59.6375 52.2324 59.6375C52.5235 59.6375 52.7684 59.5808 52.9725 59.4738C53.1794 59.3639 53.3357 59.2166 53.4462 59.0317L53.4464 59.0314C53.5578 58.8457 53.6152 58.6327 53.6152 58.3875V55.9109H53.4746V58.3484C53.4746 58.5698 53.4256 58.7733 53.3235 58.9543C53.2222 59.1349 53.0757 59.2765 52.8889 59.3782L52.8879 59.3787C52.6977 59.4808 52.4771 59.5281 52.2324 59.5281C51.9877 59.5281 51.7671 59.4808 51.5769 59.3787L51.5755 59.378C51.39 59.2761 51.244 59.1348 51.1416 58.9549L51.1413 58.9543C51.0392 58.7733 50.9902 58.5698 50.9902 58.3484V55.9109H50.8496Z" fill="white"/>
<path d="M56.8384 59.739H56.3306L57.7993 55.739H58.2993L59.7681 59.739H59.2603L58.0649 56.3718H58.0337L56.8384 59.739ZM57.0259 58.1765H59.0728V58.6062H57.0259V58.1765Z" fill="#BD0728"/>
<path fill-rule="evenodd" clip-rule="evenodd" d="M57.6785 55.5671H58.4184L60.0134 59.9109H59.138L58.7359 58.7781H57.361L56.9589 59.9109H56.0835L57.6785 55.5671ZM57.483 58.4343H58.6139L58.5834 58.3484H57.5136L57.483 58.4343ZM57.6356 58.0046H58.4613L58.0485 56.8416L57.6356 58.0046ZM58.8261 58.0046L58.1854 56.2H57.9115L57.2708 58.0046H57.1496L57.9184 55.9109H58.1785L58.9473 58.0046H58.8261ZM59.1007 58.7781L59.3808 59.5671H59.521L59.2313 58.7781H59.1007ZM56.8656 58.7781H56.9963L56.7161 59.5671H56.5759L56.8656 58.7781Z" fill="white"/>
<path d="M61.7236 55.718H62.3018L63.6611 59.0383H63.708L65.0674 55.718H65.6455V59.718H65.1924V56.679H65.1533L63.9033 59.718H63.4658L62.2158 56.679H62.1768V59.718H61.7236V55.718Z" fill="#BD0728"/>
<path fill-rule="evenodd" clip-rule="evenodd" d="M61.5483 55.5459H62.4137L63.6812 58.6417L64.9486 55.5459H65.814V59.8896H65.0171V57.4534L64.0151 59.8896H63.3473L62.3452 57.4534V59.8896H61.5483V55.5459ZM61.8921 55.8896V59.5459H62.0015V56.5068H62.3276L63.5776 59.5459H63.7848L65.0348 56.5068H65.3608V59.5459H65.4702V55.8896H65.1793L63.8199 59.21H63.5424L62.183 55.8896H61.8921Z" fill="white"/>
<path fill-rule="evenodd" clip-rule="evenodd" d="M45.9185 45.4095C45.6606 45.8822 46.4985 45.2806 46.6919 45.1947C47.7661 44.8294 48.1958 43.4759 50.0435 44.2708C51.5044 44.9154 53.481 44.5501 52.4497 45.1732C51.1606 45.9466 48.647 46.7845 48.5825 50.5443C48.7974 50.9095 48.8403 50.8451 49.0122 50.4583C49.3774 49.599 51.2251 47.1927 52.1274 47.4076C52.4927 47.4935 53.5454 46.3333 53.5884 46.6556C53.6743 47.6009 52.1274 49.4916 52.1489 52.0267C52.1489 52.6283 52.8794 52.8216 53.2231 52.4134C53.5669 52.0482 53.7602 51.6615 54.3833 51.1888C55.4575 50.308 55.1567 46.5697 55.2856 46.7415C56.0376 47.7298 56.145 50.5013 57.3052 51.64C58.229 52.5853 59.0024 52.1341 58.8091 50.8236C58.3794 48.181 57.1333 48.933 56.5532 46.2044C56.4243 45.6673 56.4028 45.1947 57.0903 45.4095C57.9497 45.6673 58.4653 46.054 59.1099 47.0423C59.7544 47.9662 60.936 48.847 61.645 49.4056C62.8481 50.3294 63.2778 49.513 62.6977 48.3314C61.9599 46.9668 60.7547 45.9141 59.3032 45.3666C58.3149 45.0228 57.9497 45.0013 57.0688 44.8294C56.854 44.7865 56.5747 44.2708 57.0044 44.013C57.9426 43.3368 59.0362 42.9083 60.1841 42.7669C61.2583 42.7455 62.1177 43.6048 62.8696 43.8412C64.395 44.2279 64.3735 43.2611 63.729 42.5521C63.1704 41.9505 62.0102 40.9408 60.936 41.0482C58.7446 41.3275 58.8735 41.263 57.5415 42.1654C57.0474 42.4447 56.5102 42.7669 56.7036 42.4232C57.1977 41.5423 56.7251 41.6927 57.4985 40.7904C58.0786 40.1458 58.5083 39.6517 59.1099 39.5013C59.6684 39.3509 60.3989 38.7708 60.6138 38.4701C61.1724 37.7181 60.6997 37.2884 59.8618 37.5462C59.1313 37.7611 58.7231 38.2337 58.229 38.3626C57.0474 38.7279 56.0806 41.4349 55.9517 41.8001C55.7583 42.2728 55.5649 42.0365 55.5864 41.6498C55.7583 39.7591 55.9302 36.558 55.2642 35.2474C54.2544 33.3138 54.3403 34.2162 53.9536 35.14C53.4756 36.5177 53.4756 38.0162 53.9536 39.3939C54.104 40.1029 54.6841 40.8978 54.813 41.4779C54.8774 41.9076 54.5337 41.3275 54.3618 41.0697C53.7173 40.1029 53.2446 39.4369 52.2134 38.9212C51.1791 38.4993 50.0445 38.3874 48.9477 38.599C48.6685 38.6849 49.27 39.1146 49.5278 39.308C50.2153 39.8665 51.5259 40.0384 52.4067 40.597C53.1802 41.0267 53.7602 41.349 53.9966 41.9935C54.104 42.4662 54.2544 43.1751 53.9536 43.1537C53.1157 43.1107 51.8267 42.4017 49.1841 42.681C47.8306 42.8744 46.6704 44.0345 45.9185 45.4095V45.4095Z" fill="#239E46"/>
<path fill-rule="evenodd" clip-rule="evenodd" d="M51.6772 69.5793H52.4507V70.8684H51.6772V69.5793Z" fill="black"/>
<path fill-rule="evenodd" clip-rule="evenodd" d="M47.8745 61.0713C50.9038 65.2822 55.7808 67.7314 55.8882 69.665L46.3706 69.6221C48.5405 67.001 49.8726 65.2178 47.853 61.0498L47.8745 61.0713Z" fill="#FDF9FF"/>
<path fill-rule="evenodd" clip-rule="evenodd" d="M45.1033 69.751C49.2498 70.6748 54.1697 71.1689 57.3279 69.6221C57.3279 70.5459 56.2966 71.8564 55.4373 71.8564H47.5095C48.4334 71.7275 48.949 71.4482 50.4529 71.3623L46.2419 71.4268C45.7908 71.4268 44.9529 70.2021 45.1033 69.751V69.751Z" fill="#A68861"/>
<path fill-rule="evenodd" clip-rule="evenodd" d="M54.4712 88.0987C54.6998 88.206 54.9492 88.2616 55.2017 88.2616C55.4542 88.2616 55.7036 88.206 55.9321 88.0987C79.8013 75.4014 79.8228 40.5537 55.9751 28.0283C55.738 27.9109 55.477 27.8499 55.2124 27.8499C54.9478 27.8499 54.6868 27.9109 54.4497 28.0283C31.1821 40.7686 31.1177 75.2295 54.4712 88.0772V88.0987ZM54.6001 85.2198C54.7987 85.312 55.015 85.3598 55.2339 85.3598C55.4528 85.3598 55.6691 85.312 55.8677 85.2198C75.8482 73.4678 76.0845 42.4014 55.8892 31.2725C55.5024 30.9932 54.9439 31.0791 54.5571 31.2725C35.436 42.5948 34.3618 72.3936 54.6001 85.1983V85.2198Z" fill="#BE0027"/>
<path d="M47.3804 55.8076C47.7528 55.8076 48.075 55.8792 48.3472 56.0225C48.7339 56.223 48.9702 56.5811 49.0562 57.0967H48.5405C48.4689 56.8102 48.3257 56.5954 48.1108 56.4522C47.9246 56.3232 47.674 56.2588 47.3589 56.2588C47.0008 56.2588 46.6929 56.402 46.4351 56.6885C46.1916 56.9606 46.0698 57.3688 46.0698 57.9131C46.0698 58.3714 46.1701 58.751 46.3706 59.0518C46.5854 59.3382 46.922 59.4814 47.3804 59.4814C47.7384 59.4814 48.0321 59.3812 48.2612 59.1807C48.5047 58.9801 48.6265 58.6436 48.6265 58.1709H47.4019V57.7412H49.1206V59.8467H48.7769L48.648 59.3311C48.4761 59.5316 48.3185 59.6748 48.1753 59.7607C47.9318 59.8897 47.631 59.9541 47.2729 59.9541C46.8146 59.9541 46.4136 59.8037 46.0698 59.5029C45.6974 59.1162 45.5112 58.5934 45.5112 57.9346C45.5112 57.2757 45.6903 56.7529 46.0483 56.3662C46.3921 55.9938 46.8361 55.8076 47.3804 55.8076V55.8076Z" fill="#BD0728"/>
<path d="M51.2041 55.915V58.3643C51.2041 58.6507 51.2542 58.887 51.3545 59.0732C51.512 59.3597 51.7842 59.5029 52.1709 59.5029C52.6149 59.5029 52.9229 59.3525 53.0947 59.0518C53.1807 58.8799 53.2236 58.6507 53.2236 58.3643V55.915H53.7607V58.1494C53.7607 58.6221 53.6891 58.9945 53.5459 59.2666C53.3167 59.7393 52.8727 59.9756 52.2139 59.9756C51.5407 59.9756 51.0824 59.7393 50.8389 59.2666C50.71 58.9945 50.6455 58.6221 50.6455 58.1494V55.915H51.2041Z" fill="#BD0728"/>
<path d="M58.6377 58.2353L58.0361 56.5166L57.3916 58.2353H58.6377ZM57.7568 55.915H58.3584L59.7979 59.8682H59.1963L58.8096 58.6865H57.2412L56.8115 59.8682H56.2744L57.7568 55.915Z" fill="#BD0728"/>
<path d="M61.646 55.8938H62.4194L63.5366 59.2454L64.6753 55.8938H65.4272V59.8469H64.9116V56.5168L63.7944 59.8469H63.2788L62.1401 56.5168V59.8469H61.646V55.8938Z" fill="#BD0728"/>
</g>
<defs>
<clipPath id="clip0_5158_361602">
<rect x="0.393555" y="0.87207" width="110" height="110" rx="55" fill="white"/>
</clipPath>
</defs>
</svg>
