<svg width="111" height="111" viewBox="0 0 111 111" fill="none" xmlns="http://www.w3.org/2000/svg">
<g clip-path="url(#clip0_5158_361575)">
<path fill-rule="evenodd" clip-rule="evenodd" d="M-6.37109 -6.28491H114.629V114.715H-6.37109V-6.28491Z" fill="#399408"/>
<path fill-rule="evenodd" clip-rule="evenodd" d="M12.708 6.54565C12.5937 6.54565 107.142 55.62 107.142 55.62L12.689 104.028L12.708 6.54565Z" fill="white"/>
<path fill-rule="evenodd" clip-rule="evenodd" d="M12.7285 10.6416C13.2619 10.6416 97.9418 54.9343 97.4656 55.3534L12.9762 100.694L12.7285 10.6226V10.6416Z" fill="#FFDE08"/>
<path fill-rule="evenodd" clip-rule="evenodd" d="M12.9761 6.698C13.2618 6.698 57.3259 55.658 57.3259 55.658L12.9761 103.475V6.698Z" fill="black"/>
<path fill-rule="evenodd" clip-rule="evenodd" d="M-5.7876 -6.34455C-5.39722 -10.8111 52.4351 55.7129 52.4351 55.7129L-5.7876 118.05V-6.34455Z" fill="#DE2110"/>
</g>
<defs>
<clipPath id="clip0_5158_361575">
<rect x="0.227539" y="0.31543" width="110" height="110" rx="55" fill="white"/>
</clipPath>
</defs>
</svg>
