<svg width="111" height="111" viewBox="0 0 111 111" fill="none" xmlns="http://www.w3.org/2000/svg">
<g clip-path="url(#clip0_5158_361547)">
<path fill-rule="evenodd" clip-rule="evenodd" d="M136.057 112.762H-23.8083V0.856689H136.057V112.762Z" fill="#BA0000"/>
<path fill-rule="evenodd" clip-rule="evenodd" d="M53.8541 55.0124C53.8541 55.0124 42.5748 50.1548 44.184 37.5671C45.7481 31.5064 48.5153 27.3857 53.5383 25.1449C55.8912 24.4613 58.3119 24.0377 60.7571 23.8816C60.0953 24.4832 59.5539 25.0998 59.2832 25.8667C58.7418 27.2503 59.1328 28.5738 59.8547 29.8972C60.7927 31.4712 61.349 33.243 61.4789 35.0707C61.644 36.471 61.436 37.89 60.8761 39.1841C60.3162 40.4782 59.4243 41.6014 58.2907 42.4398C56.8469 43.5376 55.1324 43.9287 53.7489 45.1919C52.6184 46.2239 51.911 47.6387 51.7637 49.1623C51.7186 52.6814 52.6811 53.1777 53.8541 55.0275V55.0124Z" fill="white"/>
<path fill-rule="evenodd" clip-rule="evenodd" d="M51.9357 36.7551V36.8003H51.4688V36.7551H51.9357Z" fill="black"/>
<path fill-rule="evenodd" clip-rule="evenodd" d="M49.4228 45.0183C49.4581 48.3198 50.454 51.6515 52.5793 53.5293L52.2706 53.8787C50.0045 51.8765 48.9926 48.3879 48.9566 45.0233C48.9385 43.3355 49.1654 41.6642 49.6113 40.2044C50.0564 38.7473 50.7247 37.4855 51.6007 36.6331L51.9258 36.9672C51.1249 37.7465 50.4885 38.9285 50.0572 40.3406C49.6266 41.75 49.4051 43.3732 49.4228 45.0183Z" fill="#BA0000"/>
<path fill-rule="evenodd" clip-rule="evenodd" d="M51.6729 34.3938L53.1166 34.078L53.282 32.6643L54.0039 33.8674L55.4477 33.5516L54.4551 34.6194L55.177 35.8225L53.8234 35.2811L52.8309 36.3489L53.0113 34.9502" fill="#BA0000"/>
<path fill-rule="evenodd" clip-rule="evenodd" d="M54.8163 54.1854C54.8163 54.1854 56.1548 41.9737 68.6522 39.8381C74.9085 39.5524 79.6608 40.9961 83.2852 45.1319C84.6225 47.1806 85.7319 49.3692 86.5938 51.6588C85.8268 51.2076 85.0899 50.8768 84.2628 50.8317C82.789 50.7264 81.646 51.4934 80.5933 52.5612C79.3901 53.8846 78.0366 54.8621 76.1116 55.6291C74.8221 56.1942 73.4066 56.4097 72.0073 56.254C70.6081 56.0982 69.2746 55.5767 68.1409 54.7418C66.6521 53.6891 65.7948 52.1701 64.1706 51.2076C62.8538 50.4273 61.2939 50.1647 59.7942 50.4707C56.4105 51.4783 56.23 52.5311 54.8013 54.1854H54.8163Z" fill="white"/>
<path fill-rule="evenodd" clip-rule="evenodd" d="M71.6001 46.8004L71.6443 46.7856Z" fill="#BA0000"/>
<path fill-rule="evenodd" clip-rule="evenodd" d="M71.7197 47.0082L71.6745 47.0232L71.5269 46.5802L71.572 46.5652L71.7197 47.0082Z" fill="black"/>
<path fill-rule="evenodd" clip-rule="evenodd" d="M63.0728 47.0288C59.9237 48.0288 57.0265 49.9533 55.8548 52.5369L55.4302 52.3444C56.6797 49.5891 59.7229 47.6035 62.9317 46.5845C64.5414 46.0733 66.2066 45.8005 67.7327 45.7974C69.2559 45.7943 70.6568 46.0599 71.7254 46.6414L71.5025 47.0509C70.5258 46.5194 69.2103 46.2606 67.7336 46.2636C66.2599 46.2666 64.6419 46.5305 63.0728 47.0288Z" fill="#BA0000"/>
<path fill-rule="evenodd" clip-rule="evenodd" d="M73.886 46.0642L74.6079 47.3576L76.0065 47.1019L75.0741 48.1546L75.811 49.433L74.4876 48.7863L73.5401 49.839L73.6755 48.3953L72.3521 47.7486L73.7507 47.508" fill="#BA0000"/>
<path fill-rule="evenodd" clip-rule="evenodd" d="M55.6581 55.0724C55.6581 55.0724 67.6593 52.4556 73.6599 63.6447C75.9157 69.4798 76.0661 74.4427 73.2839 79.1951C71.78 81.1501 70.0204 82.8044 68.1405 84.3986C68.321 83.5263 68.3962 82.7142 68.1856 81.9322C67.8247 80.5034 66.7269 79.6613 65.3733 78.9995C63.6976 78.2669 62.2187 77.1487 61.0571 75.7361C60.1083 74.6927 59.4516 73.4175 59.1532 72.0391C58.8548 70.6607 58.9254 69.2281 59.3577 67.8857C59.8841 66.1411 61.0571 64.8328 61.4481 62.998C61.7716 61.4991 61.525 59.9334 60.7563 58.6066C58.7411 55.7341 57.6733 55.8995 55.6431 55.0724H55.6581Z" fill="white"/>
<path fill-rule="evenodd" clip-rule="evenodd" d="M67.9902 68.6379L68.0197 68.6821Z" fill="#BA0000"/>
<path fill-rule="evenodd" clip-rule="evenodd" d="M67.827 68.8129L67.7969 68.7678L68.1854 68.5088L68.2155 68.554L67.827 68.8129Z" fill="black"/>
<path fill-rule="evenodd" clip-rule="evenodd" d="M65.067 60.6259C63.1172 57.9574 60.3684 55.821 57.5444 55.5299L57.5922 55.0662C60.6034 55.3766 63.4566 57.6317 65.4434 60.3509C66.4401 61.715 67.2278 63.2076 67.7144 64.6539C68.2 66.0975 68.3908 67.5107 68.1747 68.7091L67.7159 68.6264C67.9133 67.5314 67.7432 66.2018 67.2725 64.8026C66.8027 63.406 66.0385 61.9556 65.067 60.6259Z" fill="#BA0000"/>
<path fill-rule="evenodd" clip-rule="evenodd" d="M69.4044 70.5778L68.4269 71.6756L69.1036 72.9239L67.8103 72.3524L66.8327 73.4653L67.0282 72.0065L65.7349 71.45L67.1335 71.1192L67.329 69.6604L68.0058 70.9086" fill="#BA0000"/>
<path fill-rule="evenodd" clip-rule="evenodd" d="M55.3878 56.3062C55.3878 56.3062 61.253 67.0892 52.2146 76.0073C47.2366 79.7972 42.5144 81.3312 37.1755 79.9927C34.8745 79.1204 32.7991 77.8872 30.7388 76.5337C31.611 76.4585 32.4231 76.3081 33.1149 75.872C34.3782 75.12 34.8895 73.8417 35.1452 72.3528C35.3734 70.5365 36.0279 68.7999 37.0552 67.2847C37.7919 66.0812 38.8337 65.094 40.0751 64.4231C41.3164 63.7522 42.7132 63.4216 44.1235 63.4647C45.9282 63.4798 47.5224 64.2317 49.3872 64.0964C50.9199 63.9889 52.3572 63.3132 53.4177 62.2015C55.6134 59.4493 55.1622 58.4718 55.3728 56.3062H55.3878Z" fill="white"/>
<path fill-rule="evenodd" clip-rule="evenodd" d="M45.8219 71.9463L45.7925 71.9905Z" fill="#BA0000"/>
<path fill-rule="evenodd" clip-rule="evenodd" d="M45.5986 71.8621L45.6288 71.8169L46.0173 72.0759L45.9871 72.1211L45.5986 71.8621Z" fill="black"/>
<path fill-rule="evenodd" clip-rule="evenodd" d="M52.6947 66.8978C54.7077 64.2796 55.9851 61.0452 55.4756 58.2576L55.9342 58.1738C56.4775 61.1462 55.1156 64.514 53.0643 67.182C52.0352 68.5205 50.824 69.6947 49.5719 70.5675C48.322 71.4386 47.0178 72.0185 45.8039 72.1481L45.7544 71.6845C46.864 71.566 48.0939 71.0293 49.3053 70.185C50.5143 69.3423 51.6916 68.2025 52.6947 66.8978Z" fill="#BA0000"/>
<path fill-rule="evenodd" clip-rule="evenodd" d="M44.364 73.8559L43.0255 73.2243L42.0179 74.2319L42.1983 72.8333L40.8599 72.2016L42.3187 71.976L42.4841 70.5774L43.206 71.8407L44.6497 71.6151L43.6421 72.6077" fill="#BA0000"/>
<path fill-rule="evenodd" clip-rule="evenodd" d="M54.049 56.0654C54.049 56.0654 45.8227 65.1941 34.4231 59.6146C29.1895 56.1857 26.1666 52.2455 25.6553 46.7712C25.7154 44.3199 26.1967 41.9437 26.7832 39.5525C27.1592 40.3496 27.5502 41.0564 28.1969 41.5677C29.3248 42.5152 30.7084 42.5753 32.1822 42.3197C33.9712 41.9325 35.8263 41.9737 37.5963 42.44C38.9747 42.7346 40.2511 43.3874 41.2966 44.3327C42.3422 45.2779 43.1201 46.4822 43.5518 47.824C44.1533 49.5535 43.9578 51.283 44.7098 53.0124C45.3235 54.4175 46.4388 55.5435 47.8379 56.1707C51.1465 57.3287 51.9285 56.5917 54.049 56.0654V56.0654Z" fill="white"/>
<path fill-rule="evenodd" clip-rule="evenodd" d="M36.0615 52.0122H36.1067V52.4791H36.0615V52.0122Z" fill="black"/>
<path fill-rule="evenodd" clip-rule="evenodd" d="M43.1599 57.0524C46.2977 58.0822 49.7738 58.2149 52.2338 56.8102L52.465 57.215C49.8418 58.7129 46.2119 58.5448 43.0146 57.4954C41.4105 56.969 39.9012 56.2166 38.6633 55.3259C37.4278 54.4369 36.4494 53.4004 35.9268 52.3001L36.3479 52.1001C36.8253 53.1053 37.7381 54.0859 38.9356 54.9475C40.1308 55.8075 41.5964 56.5393 43.1599 57.0524Z" fill="#BA0000"/>
<path fill-rule="evenodd" clip-rule="evenodd" d="M33.8219 51.5084L33.9723 50.0346L32.709 49.4331L34.0775 49.1323L34.2279 47.6584L34.9348 48.9518L36.2883 48.651L35.3559 49.7489L36.0477 51.0422L34.7693 50.4256" fill="#BA0000"/>
</g>
<defs>
<clipPath id="clip0_5158_361547">
<rect x="0.554932" y="0.856689" width="110" height="110" rx="55" fill="white"/>
</clipPath>
</defs>
</svg>
