<svg width="111" height="111" viewBox="0 0 111 111" fill="none" xmlns="http://www.w3.org/2000/svg">
<g clip-path="url(#clip0_5158_361457)">
<path d="M0.45166 0.0212402H110.452V110.021H0.45166V0.0212402Z" fill="#18C3DF"/>
<path d="M0.45166 36.6951H110.452V73.3474H0.45166V36.6951Z" fill="white"/>
<path d="M55.4481 48.9082L53.6147 55.0193L56.6703 55.6304L55.4481 48.9082Z" fill="#18C3DF"/>
<path d="M55.4479 48.9082L57.2812 55.0193L54.2257 55.6304L55.4479 48.9082Z" fill="#18C3DF"/>
<path d="M61.2672 53.1335L54.8887 53.2783L55.2517 56.3732L61.2672 53.1335Z" fill="#18C3DF"/>
<path d="M61.266 53.1338L56.0205 56.7659L54.4951 54.0487L61.266 53.1338Z" fill="#18C3DF"/>
<path d="M49.6364 53.1307L54.8818 56.7627L56.4073 54.0455L49.6364 53.1307Z" fill="#18C3DF"/>
<path d="M49.6356 53.1311L56.0142 53.2759L55.6511 56.3707L49.6356 53.1311Z" fill="#18C3DF"/>
<path d="M59.0402 59.9636L56.9314 53.942L54.1002 55.2436L59.0402 59.9636Z" fill="#18C3DF"/>
<path d="M59.0394 59.9637L53.9641 56.0973L56.0769 53.8069L59.0394 59.9637Z" fill="#18C3DF"/>
<path d="M51.8547 59.9644L56.9299 56.098L54.8171 53.8076L51.8547 59.9644Z" fill="#18C3DF"/>
<path d="M51.8543 59.9643L53.9631 53.9427L56.7943 55.2443L51.8543 59.9643Z" fill="#18C3DF"/>
<path d="M85.9979 39.1326L84.1646 45.2437L87.2201 45.8548L85.9979 39.1326Z" fill="#18C3DF"/>
<path d="M85.9987 39.1326L87.832 45.2437L84.7765 45.8548L85.9987 39.1326Z" fill="#18C3DF"/>
<path d="M91.8151 43.3571L85.4365 43.502L85.7995 46.5968L91.8151 43.3571Z" fill="#18C3DF"/>
<path d="M91.8138 43.357L86.5684 46.989L85.0429 44.2719L91.8138 43.357Z" fill="#18C3DF"/>
<path d="M80.1862 43.355L85.4316 46.9871L86.9571 44.2699L80.1862 43.355Z" fill="#18C3DF"/>
<path d="M80.1864 43.3549L86.5649 43.4998L86.2019 46.5946L80.1864 43.3549Z" fill="#18C3DF"/>
<path d="M89.59 50.1877L87.4812 44.1661L84.65 45.4677L89.59 50.1877Z" fill="#18C3DF"/>
<path d="M89.5901 50.1875L84.5149 46.3211L86.6277 44.0307L89.5901 50.1875Z" fill="#18C3DF"/>
<path d="M82.405 50.188L87.4802 46.3216L85.3674 44.0312L82.405 50.188Z" fill="#18C3DF"/>
<path d="M82.4041 50.1882L84.5129 44.1666L87.3441 45.4682L82.4041 50.1882Z" fill="#18C3DF"/>
<path d="M85.9979 57.4587L84.1646 63.5699L87.2201 64.181L85.9979 57.4587Z" fill="#18C3DF"/>
<path d="M85.9987 57.4587L87.832 63.5699L84.7765 64.181L85.9987 57.4587Z" fill="#18C3DF"/>
<path d="M91.8151 61.684L85.4365 61.8289L85.7995 64.9237L91.8151 61.684Z" fill="#18C3DF"/>
<path d="M91.8143 61.6841L86.5688 65.3162L85.0434 62.599L91.8143 61.6841Z" fill="#18C3DF"/>
<path d="M80.1862 61.6812L85.4316 65.3132L86.9571 62.5961L80.1862 61.6812Z" fill="#18C3DF"/>
<path d="M80.1864 61.6813L86.5649 61.8262L86.2019 64.921L80.1864 61.6813Z" fill="#18C3DF"/>
<path d="M89.59 68.5141L87.4812 62.4925L84.65 63.7941L89.59 68.5141Z" fill="#18C3DF"/>
<path d="M89.5901 68.5139L84.5149 64.6476L86.6277 62.3571L89.5901 68.5139Z" fill="#18C3DF"/>
<path d="M82.405 68.5144L87.4802 64.648L85.3674 62.3576L82.405 68.5144Z" fill="#18C3DF"/>
<path d="M82.4041 68.5151L84.5129 62.4935L87.3441 63.7951L82.4041 68.5151Z" fill="#18C3DF"/>
<path d="M24.8963 39.1328L23.063 45.2439L26.1185 45.855L24.8963 39.1328Z" fill="#18C3DF"/>
<path d="M24.8966 39.1328L26.73 45.2439L23.6744 45.855L24.8966 39.1328Z" fill="#18C3DF"/>
<path d="M30.713 43.3574L24.3345 43.5022L24.6975 46.5971L30.713 43.3574Z" fill="#18C3DF"/>
<path d="M30.7118 43.3572L25.4663 46.9893L23.9409 44.2721L30.7118 43.3572Z" fill="#18C3DF"/>
<path d="M19.0861 43.3558L24.3315 46.9878L25.857 44.2706L19.0861 43.3558Z" fill="#18C3DF"/>
<path d="M19.0853 43.3559L25.4639 43.5007L25.1009 46.5956L19.0853 43.3559Z" fill="#18C3DF"/>
<path d="M28.4895 50.1882L26.3806 44.1666L23.5494 45.4682L28.4895 50.1882Z" fill="#18C3DF"/>
<path d="M28.4895 50.188L23.4143 46.3216L25.5271 44.0312L28.4895 50.188Z" fill="#18C3DF"/>
<path d="M21.3059 50.1885L26.3811 46.3221L24.2683 44.0317L21.3059 50.1885Z" fill="#18C3DF"/>
<path d="M21.3045 50.1884L23.4133 44.1668L26.2445 45.4685L21.3045 50.1884Z" fill="#18C3DF"/>
<path d="M24.8963 57.4587L23.063 63.5699L26.1185 64.181L24.8963 57.4587Z" fill="#18C3DF"/>
<path d="M24.8966 57.4587L26.73 63.5699L23.6744 64.181L24.8966 57.4587Z" fill="#18C3DF"/>
<path d="M30.7135 61.6835L24.335 61.8284L24.698 64.9232L30.7135 61.6835Z" fill="#18C3DF"/>
<path d="M30.7123 61.6834L25.4668 65.3154L23.9414 62.5983L30.7123 61.6834Z" fill="#18C3DF"/>
<path d="M19.0856 61.6814L24.3311 65.3135L25.8565 62.5963L19.0856 61.6814Z" fill="#18C3DF"/>
<path d="M19.0853 61.6816L25.4639 61.8264L25.1009 64.9213L19.0853 61.6816Z" fill="#18C3DF"/>
<path d="M28.4895 68.5134L26.3806 62.4918L23.5494 63.7934L28.4895 68.5134Z" fill="#18C3DF"/>
<path d="M28.4895 68.5135L23.4143 64.6471L25.5271 62.3567L28.4895 68.5135Z" fill="#18C3DF"/>
<path d="M21.3039 68.5144L26.3791 64.648L24.2663 62.3576L21.3039 68.5144Z" fill="#18C3DF"/>
<path d="M21.303 68.5151L23.4118 62.4935L26.243 63.7951L21.303 68.5151Z" fill="#18C3DF"/>
</g>
<defs>
<clipPath id="clip0_5158_361457">
<rect x="0.45166" y="0.0212402" width="110" height="110" rx="55" fill="white"/>
</clipPath>
</defs>
</svg>
