<svg width="111" height="111" viewBox="0 0 111 111" fill="none" xmlns="http://www.w3.org/2000/svg">
<g clip-path="url(#clip0_5158_360528)">
<path fill-rule="evenodd" clip-rule="evenodd" d="M-41.0767 0.727295H151.416V110.71H-41.0767V0.727295Z" fill="white"/>
<path fill-rule="evenodd" clip-rule="evenodd" d="M-41.0767 74.5894H151.416V110.733H-41.0767V74.5894Z" fill="#DA0000"/>
<path fill-rule="evenodd" clip-rule="evenodd" d="M-4.49121 76.1201H6.06363V76.8519H-4.49121V76.1201ZM-2.91685 79.7567H-2.18511V80.4662H-2.93903L-2.91685 79.7567ZM6.0858 79.7345V80.4662H3.97927V79.7345H6.0858ZM7.21668 76.1201H7.94842V80.4662H7.21668V76.1201Z" fill="white"/>
<path fill-rule="evenodd" clip-rule="evenodd" d="M11.4088 79.7338V80.4656H7.41744V79.7338H11.4088ZM3.98047 78.0486H4.71221V80.4656H3.98047V78.0486Z" fill="white"/>
<path fill-rule="evenodd" clip-rule="evenodd" d="M10.8089 76.1201H11.5406V80.4662H10.831L10.8089 76.1201ZM9.01277 76.1201H9.72234V80.4662H9.03494L9.01277 76.1201ZM-0.610757 77.8497V78.5814H-4.49121V77.8497H-0.610757ZM7.81537 77.8497V78.5814H3.97927V77.8497H7.81537Z" fill="white"/>
<path fill-rule="evenodd" clip-rule="evenodd" d="M3.98047 78.0266H4.71221V80.4658H3.98047V78.0266Z" fill="white"/>
<path fill-rule="evenodd" clip-rule="evenodd" d="M3.98047 78.0266H4.71221V80.4658H3.98047V78.0266Z" fill="white"/>
<path fill-rule="evenodd" clip-rule="evenodd" d="M3.97975 78.0266H4.7115V80.4658H3.97975V78.0266ZM-4.44638 78.0266H-3.73681V80.4658H-4.49072L-4.44638 78.0266ZM1.718 78.0266H2.44975V80.4658H1.718V78.0266ZM-1.34201 78.0266H-0.610269V80.4658H-1.34201V78.0266Z" fill="white"/>
<path fill-rule="evenodd" clip-rule="evenodd" d="M2.22784 79.7339V80.4657H-1.03174V79.7339H2.22784ZM2.44958 77.8491V78.5809H0.387398V77.8491H2.44958Z" fill="white"/>
<path fill-rule="evenodd" clip-rule="evenodd" d="M12.6963 76.1201H23.2289V76.8519H12.6963V76.1201ZM14.2485 79.7567H14.9802V80.4662H14.2706L14.2485 79.7567ZM23.2511 79.7345V80.4662H21.1446V79.7345H23.2511ZM24.382 76.1201H25.1137V80.4662H24.382V76.1201Z" fill="white"/>
<path fill-rule="evenodd" clip-rule="evenodd" d="M28.5955 79.7338V80.4656H24.6042V79.7338H28.5955ZM21.145 78.0486H21.8768V80.4656H21.145V78.0486Z" fill="white"/>
<path fill-rule="evenodd" clip-rule="evenodd" d="M27.9962 76.1201H28.7279V80.4662H27.9962V76.1201ZM26.1779 76.1201H26.9096V80.4662H26.1779V76.1201ZM16.5544 77.8497V78.5814H12.7183V77.8497H16.5544ZM24.9805 77.8497V78.5814H21.1444V77.8497H24.9805Z" fill="white"/>
<path fill-rule="evenodd" clip-rule="evenodd" d="M21.145 78.0266H21.8768V80.4658H21.145V78.0266Z" fill="white"/>
<path fill-rule="evenodd" clip-rule="evenodd" d="M21.145 78.0266H21.8768V80.4658H21.145V78.0266Z" fill="white"/>
<path fill-rule="evenodd" clip-rule="evenodd" d="M21.1459 78.0266H21.8776V80.4658H21.1459V78.0266ZM12.7197 78.0266H13.4293V80.4658H12.7197V78.0266ZM18.9063 78.0266H19.6158V80.4658H18.9063V78.0266ZM15.8241 78.0266H16.5558V80.4658H15.8241V78.0266Z" fill="white"/>
<path fill-rule="evenodd" clip-rule="evenodd" d="M19.4165 79.7339V80.4657H16.1348V79.7339H19.4165ZM19.6383 77.8491V78.5809H17.5539V77.8491H19.6383Z" fill="white"/>
<path fill-rule="evenodd" clip-rule="evenodd" d="M29.9702 76.1201H40.5029V76.8519H29.9702V76.1201ZM31.5446 79.7567H32.2763V80.4662H31.5446V79.7567ZM40.5472 79.7345V80.4662H38.4407V79.7345H40.5472ZM41.6559 76.1201H42.3877V80.4662H41.6781L41.6559 76.1201Z" fill="white"/>
<path fill-rule="evenodd" clip-rule="evenodd" d="M45.8702 79.7338V80.4656H41.8789V79.7338H45.8702ZM38.4419 78.0486H39.1515V80.4656H38.4419V78.0486Z" fill="white"/>
<path fill-rule="evenodd" clip-rule="evenodd" d="M45.2696 76.1201H46.0013V80.4662H45.2696V76.1201ZM43.4735 76.1201H44.1831V80.4662H43.4513L43.4735 76.1201ZM33.8278 77.8497V78.5814H29.9917V77.8497H33.8278ZM42.2761 77.8497V78.5814H38.44V77.8497H42.2761Z" fill="white"/>
<path fill-rule="evenodd" clip-rule="evenodd" d="M38.4419 78.0266H39.1515V80.4658H38.4419V78.0266Z" fill="white"/>
<path fill-rule="evenodd" clip-rule="evenodd" d="M38.4419 78.0266H39.1515V80.4658H38.4419V78.0266Z" fill="white"/>
<path fill-rule="evenodd" clip-rule="evenodd" d="M38.441 78.0266H39.1505V80.4658H38.441V78.0266ZM29.9927 78.0266H30.7244V80.4658H29.9927V78.0266ZM36.1792 78.0266H36.911V80.4658H36.1792V78.0266ZM33.1192 78.0266H33.851V80.4658H33.1192V78.0266Z" fill="white"/>
<path fill-rule="evenodd" clip-rule="evenodd" d="M36.6902 79.7339V80.4657H33.4307V79.7339H36.6902ZM36.912 77.8491V78.5809H34.8498V77.8491H36.912Z" fill="white"/>
<path fill-rule="evenodd" clip-rule="evenodd" d="M47.3086 76.1201H57.8634V76.8519H47.3086V76.1201ZM48.883 79.7567H49.6147V80.4662H48.883V79.7567ZM57.8856 79.7345V80.4662H55.7791V79.7345H57.8856ZM59.0165 76.1201H59.7482V80.4662H59.0165V76.1201Z" fill="white"/>
<path fill-rule="evenodd" clip-rule="evenodd" d="M63.2076 79.7338V80.4656H59.2163V79.7338H63.2076ZM55.7793 78.0486H56.511V80.4656H55.7793V78.0486Z" fill="white"/>
<path fill-rule="evenodd" clip-rule="evenodd" d="M62.608 76.1201H63.3397V80.4662H62.608V76.1201ZM60.8119 76.1201H61.5215V80.4662H60.8119V76.1201ZM51.1884 77.8497V78.5814H47.3301V77.8497H51.1884ZM59.6145 77.8497V78.5814H55.7784V77.8497H59.6145Z" fill="white"/>
<path fill-rule="evenodd" clip-rule="evenodd" d="M55.7793 78.0266H56.511V80.4658H55.7793V78.0266Z" fill="white"/>
<path fill-rule="evenodd" clip-rule="evenodd" d="M55.7793 78.0266H56.511V80.4658H55.7793V78.0266Z" fill="white"/>
<path fill-rule="evenodd" clip-rule="evenodd" d="M55.7789 78.0266H56.5106V80.4658H55.7789V78.0266ZM47.3527 78.0266H48.0623V80.4658H47.3306L47.3527 78.0266ZM53.5171 78.0266H54.2489V80.4658H53.5171V78.0266ZM50.4571 78.0266H51.1888V80.4658H50.4571V78.0266Z" fill="white"/>
<path fill-rule="evenodd" clip-rule="evenodd" d="M54.0491 79.7339V80.4657H50.7896V79.7339H54.0491ZM54.2487 77.8491V78.5809H52.1865V77.8491H54.2487Z" fill="white"/>
<path fill-rule="evenodd" clip-rule="evenodd" d="M-41.0767 0.727295H151.416V36.871H-41.0767V0.727295Z" fill="#239F40"/>
<path fill-rule="evenodd" clip-rule="evenodd" d="M64.7588 76.1201H75.2915V76.8519H64.7588V76.1201ZM66.3331 79.7567H67.0649V80.4662H66.3331V79.7567ZM75.3358 79.7345V80.4662H73.2293V79.7345H75.3358ZM76.4445 76.1201H77.1984V80.4662H76.4445V76.1201Z" fill="white"/>
<path fill-rule="evenodd" clip-rule="evenodd" d="M80.6593 79.7338V80.4656H76.6679V79.7338H80.6593ZM73.231 78.0486H73.9405V80.4656H73.231V78.0486Z" fill="white"/>
<path fill-rule="evenodd" clip-rule="evenodd" d="M80.0582 76.1201H80.7899V80.4662H80.0582V76.1201ZM78.2621 76.1201H78.9717V80.4662H78.2621V76.1201ZM68.6386 77.8497V78.5814H64.7803V77.8497H68.6386ZM77.0647 77.8497V78.5814H73.2286V77.8497H77.0647Z" fill="white"/>
<path fill-rule="evenodd" clip-rule="evenodd" d="M73.231 78.0266H73.9405V80.4658H73.231V78.0266Z" fill="white"/>
<path fill-rule="evenodd" clip-rule="evenodd" d="M73.231 78.0266H73.9405V80.4658H73.231V78.0266Z" fill="white"/>
<path fill-rule="evenodd" clip-rule="evenodd" d="M73.2286 78.0266H73.9381V80.4658H73.2286V78.0266ZM64.7803 78.0266H65.512V80.4658H64.7803V78.0266ZM70.9668 78.0266H71.6986V80.4658H70.9668V78.0266ZM67.9068 78.0266H68.6386V80.4658H67.9068V78.0266Z" fill="white"/>
<path fill-rule="evenodd" clip-rule="evenodd" d="M71.4774 79.7339V80.4657H68.2178V79.7339H71.4774ZM71.6991 77.8491V78.5809H69.6369V77.8491H71.6991Z" fill="white"/>
<path fill-rule="evenodd" clip-rule="evenodd" d="M82.0972 76.1201H92.652V76.8519H82.0972V76.1201ZM83.6715 79.7567H84.4033V80.4662H83.6715V79.7567ZM92.6742 79.7345V80.4662H90.5676V79.7345H92.6742ZM93.8051 76.1201H94.5368V80.4662H93.8051V76.1201Z" fill="white"/>
<path fill-rule="evenodd" clip-rule="evenodd" d="M97.9962 79.7338V80.4656H94.0048V79.7338H97.9962ZM90.5679 78.0486H91.2996V80.4656H90.5679V78.0486Z" fill="white"/>
<path fill-rule="evenodd" clip-rule="evenodd" d="M97.4178 76.1201H98.1273V80.4662H97.4178V76.1201ZM95.5995 76.1201H96.3312V80.4662H95.5995V76.1201ZM85.976 77.8497V78.5814H82.1177V77.8497H85.976ZM94.4021 77.8497V78.5814H90.566V77.8497H94.4021Z" fill="white"/>
<path fill-rule="evenodd" clip-rule="evenodd" d="M90.5679 78.0266H91.2996V80.4658H90.5679V78.0266Z" fill="white"/>
<path fill-rule="evenodd" clip-rule="evenodd" d="M90.5679 78.0266H91.2996V80.4658H90.5679V78.0266Z" fill="white"/>
<path fill-rule="evenodd" clip-rule="evenodd" d="M90.567 78.0266H91.2987V80.4658H90.567V78.0266ZM82.1408 78.0266H82.8504V80.4658H82.1187L82.1408 78.0266ZM88.3052 78.0266H89.037V80.4658H88.3052V78.0266ZM85.2452 78.0266H85.9769V80.4658H85.2452V78.0266Z" fill="white"/>
<path fill-rule="evenodd" clip-rule="evenodd" d="M88.8146 79.7339V80.4657H85.5771V79.7339H88.8146ZM89.0363 77.8491V78.5809H86.9741V77.8491H89.0363Z" fill="white"/>
<path fill-rule="evenodd" clip-rule="evenodd" d="M99.4634 76.1201H109.996V76.8519H99.4634V76.1201ZM101.016 79.7567H101.747V80.4662H101.016V79.7567ZM110.018 79.7345V80.4662H107.934V79.7345H110.018ZM111.149 76.1201H111.881V80.4662H111.149V76.1201Z" fill="white"/>
<path fill-rule="evenodd" clip-rule="evenodd" d="M115.361 79.7338V80.4656H111.37V79.7338H115.361ZM107.911 78.0486H108.642V80.4656H107.911V78.0486Z" fill="white"/>
<path fill-rule="evenodd" clip-rule="evenodd" d="M114.763 76.1201H115.495V80.4662H114.763V76.1201ZM112.945 76.1201H113.677V80.4662H112.945V76.1201ZM103.322 77.8497V78.5814H99.4634V77.8497H103.322ZM111.748 77.8497V78.5814H107.934V77.8497H111.748Z" fill="white"/>
<path fill-rule="evenodd" clip-rule="evenodd" d="M107.933 78.0266H108.642V80.4658H107.911L107.933 78.0266Z" fill="white"/>
<path fill-rule="evenodd" clip-rule="evenodd" d="M107.933 78.0266H108.642V80.4658H107.911L107.933 78.0266Z" fill="white"/>
<path fill-rule="evenodd" clip-rule="evenodd" d="M107.934 78.0266H108.643V80.4658H107.912L107.934 78.0266ZM99.4634 78.0266H100.195V80.4658H99.4634V78.0266ZM105.672 78.0266H106.382V80.4658H105.65L105.672 78.0266ZM102.59 78.0266H103.322V80.4658H102.59V78.0266Z" fill="white"/>
<path fill-rule="evenodd" clip-rule="evenodd" d="M106.16 79.7339V80.4657H102.923V79.7339H106.16ZM106.382 77.8491V78.5809H104.32V77.8491H106.382Z" fill="white"/>
<path fill-rule="evenodd" clip-rule="evenodd" d="M-4.49121 31.5493H6.06363V32.2589H-4.49121V31.5493ZM-2.91685 35.1637H-2.18511V35.8733H-2.93903L-2.91685 35.1637ZM6.0858 35.1637V35.8733H3.97927V35.1415L6.0858 35.1637ZM7.21668 31.5493H7.94842V35.8733H7.21668V31.5493Z" fill="white"/>
<path fill-rule="evenodd" clip-rule="evenodd" d="M11.4088 35.1418V35.8735H7.41744V35.1418H11.4088ZM3.98047 33.4565H4.71221V35.8957H3.98047V33.4565Z" fill="white"/>
<path fill-rule="evenodd" clip-rule="evenodd" d="M10.8089 31.5493H11.5406V35.8733H10.831L10.8089 31.5493ZM9.01277 31.5493H9.72234V35.8733H9.03494L9.01277 31.5493ZM-0.610757 33.2567V33.9885H-4.49121V33.2789L-0.610757 33.2567ZM7.81537 33.2567V33.9885H3.97927V33.2789L7.81537 33.2567Z" fill="white"/>
<path fill-rule="evenodd" clip-rule="evenodd" d="M3.98047 33.4565H4.71221V35.8957H3.98047V33.4565Z" fill="white"/>
<path fill-rule="evenodd" clip-rule="evenodd" d="M3.98047 33.4565H4.71221V35.8957H3.98047V33.4565Z" fill="white"/>
<path fill-rule="evenodd" clip-rule="evenodd" d="M3.97975 33.4565H4.7115V35.8957H3.97975V33.4565ZM-4.44638 33.4565H-3.73681V35.8957H-4.49072L-4.44638 33.4565ZM1.718 33.4565H2.44975V35.8957H1.718V33.4565ZM-1.34201 33.4565H-0.610269V35.8957H-1.34201V33.4565Z" fill="white"/>
<path fill-rule="evenodd" clip-rule="evenodd" d="M2.22784 35.1414V35.8732H-1.03174V35.1414H2.22784ZM2.44958 33.2788V33.9884H0.387398V33.2788H2.44958Z" fill="white"/>
<path fill-rule="evenodd" clip-rule="evenodd" d="M12.6963 31.5493H23.2289V32.2589H12.6963V31.5493ZM14.2485 35.1637H14.9802V35.8733H14.2706L14.2485 35.1637ZM23.2511 35.1637V35.8733H21.1446V35.1415L23.2511 35.1637ZM24.382 31.5493H25.1137V35.8733H24.382V31.5493Z" fill="white"/>
<path fill-rule="evenodd" clip-rule="evenodd" d="M28.5955 35.1418V35.8735H24.6042V35.1418H28.5955ZM21.145 33.4565H21.8768V35.8957H21.145V33.4565Z" fill="white"/>
<path fill-rule="evenodd" clip-rule="evenodd" d="M27.9967 31.5493H28.7284V35.8733H27.9967V31.5493ZM26.1784 31.5493H26.9101V35.8733H26.1784V31.5493ZM16.5549 33.2567V33.9885H12.7188V33.2789L16.5549 33.2567ZM24.981 33.2567V33.9885H21.1449V33.2789L24.981 33.2567Z" fill="white"/>
<path fill-rule="evenodd" clip-rule="evenodd" d="M21.145 33.4565H21.8768V35.8957H21.145V33.4565Z" fill="white"/>
<path fill-rule="evenodd" clip-rule="evenodd" d="M21.145 33.4565H21.8768V35.8957H21.145V33.4565Z" fill="white"/>
<path fill-rule="evenodd" clip-rule="evenodd" d="M21.1459 33.4565H21.8776V35.8957H21.1459V33.4565ZM12.7197 33.4565H13.4293V35.8957H12.7197V33.4565ZM18.9063 33.4565H19.6158V35.8957H18.9063V33.4565ZM15.8241 33.4565H16.5558V35.8957H15.8241V33.4565Z" fill="white"/>
<path fill-rule="evenodd" clip-rule="evenodd" d="M19.4165 35.1414V35.8732H16.1348V35.1414H19.4165ZM19.6383 33.2788V33.9884H17.5539V33.2788H19.6383Z" fill="white"/>
<path fill-rule="evenodd" clip-rule="evenodd" d="M29.9702 31.5493H40.5029V32.2589H29.9702V31.5493ZM31.5446 35.1637H32.2763V35.8733H31.5446V35.1637ZM40.5472 35.1637V35.8733H38.4407V35.1415L40.5472 35.1637ZM41.6559 31.5493H42.3877V35.8733H41.6781L41.6559 31.5493Z" fill="white"/>
<path fill-rule="evenodd" clip-rule="evenodd" d="M45.8702 35.1418V35.8735H41.8789V35.1418H45.8702ZM38.4419 33.4565H39.1515V35.8957H38.4419V33.4565Z" fill="white"/>
<path fill-rule="evenodd" clip-rule="evenodd" d="M45.2696 31.5493H46.0013V35.8733H45.2696V31.5493ZM43.4735 31.5493H44.1831V35.8733H43.4513L43.4735 31.5493ZM33.8278 33.2567V33.9885H29.9917V33.2789L33.8278 33.2567ZM42.2761 33.2567V33.9885H38.44V33.2789L42.2761 33.2567Z" fill="white"/>
<path fill-rule="evenodd" clip-rule="evenodd" d="M38.4419 33.4565H39.1515V35.8957H38.4419V33.4565Z" fill="white"/>
<path fill-rule="evenodd" clip-rule="evenodd" d="M38.4419 33.4565H39.1515V35.8957H38.4419V33.4565Z" fill="white"/>
<path fill-rule="evenodd" clip-rule="evenodd" d="M38.441 33.4565H39.1505V35.8957H38.441V33.4565ZM29.9927 33.4565H30.7244V35.8957H29.9927V33.4565ZM36.1792 33.4565H36.911V35.8957H36.1792V33.4565ZM33.1192 33.4565H33.851V35.8957H33.1192V33.4565Z" fill="white"/>
<path fill-rule="evenodd" clip-rule="evenodd" d="M36.6902 35.1414V35.8732H33.4307V35.1414H36.6902ZM36.912 33.2788V33.9884H34.8498V33.2788H36.912Z" fill="white"/>
<path fill-rule="evenodd" clip-rule="evenodd" d="M47.3086 31.5493H57.8634V32.2589H47.3086V31.5493ZM48.883 35.1637H49.6147V35.8733H48.883V35.1637ZM57.8856 35.1637V35.8733H55.7791V35.1415L57.8856 35.1637ZM59.0165 31.5493H59.7482V35.8733H59.0165V31.5493Z" fill="white"/>
<path fill-rule="evenodd" clip-rule="evenodd" d="M63.2076 35.1418V35.8735H59.2163V35.1418H63.2076ZM55.7793 33.4565H56.511V35.8957H55.7793V33.4565Z" fill="white"/>
<path fill-rule="evenodd" clip-rule="evenodd" d="M62.608 31.5493H63.3397V35.8733H62.608V31.5493ZM60.8119 31.5493H61.5215V35.8733H60.8119V31.5493ZM51.1884 33.2567V33.9885H47.3301V33.2789L51.1884 33.2567ZM59.6145 33.2567V33.9885H55.7784V33.2789L59.6145 33.2567Z" fill="white"/>
<path fill-rule="evenodd" clip-rule="evenodd" d="M55.7793 33.4565H56.511V35.8957H55.7793V33.4565Z" fill="white"/>
<path fill-rule="evenodd" clip-rule="evenodd" d="M55.7793 33.4565H56.511V35.8957H55.7793V33.4565Z" fill="white"/>
<path fill-rule="evenodd" clip-rule="evenodd" d="M55.7789 33.4565H56.5106V35.8957H55.7789V33.4565ZM47.3527 33.4565H48.0623V35.8957H47.3306L47.3527 33.4565ZM53.5171 33.4565H54.2489V35.8957H53.5171V33.4565ZM50.4571 33.4565H51.1888V35.8957H50.4571V33.4565Z" fill="white"/>
<path fill-rule="evenodd" clip-rule="evenodd" d="M54.0491 35.1414V35.8732H50.7896V35.1414H54.0491ZM54.2487 33.2788V33.9884H52.1865V33.2788H54.2487Z" fill="white"/>
<path fill-rule="evenodd" clip-rule="evenodd" d="M64.7588 31.5493H75.2915V32.2589H64.7588V31.5493ZM66.3331 35.1637H67.0649V35.8733H66.3331V35.1637ZM75.3358 35.1637V35.8733H73.2293V35.1415L75.3358 35.1637ZM76.4445 31.5493H77.1984V35.8733H76.4445V31.5493Z" fill="white"/>
<path fill-rule="evenodd" clip-rule="evenodd" d="M80.6593 35.1423V35.874H76.6679V35.1423H80.6593ZM73.231 33.457H73.9405V35.8962H73.231V33.457Z" fill="white"/>
<path fill-rule="evenodd" clip-rule="evenodd" d="M80.0582 31.5493H80.7899V35.8733H80.0582V31.5493ZM78.2621 31.5493H78.9717V35.8733H78.2621V31.5493ZM68.6386 33.2567V33.9885H64.7803V33.2789L68.6386 33.2567ZM77.0647 33.2567V33.9885H73.2286V33.2789L77.0647 33.2567Z" fill="white"/>
<path fill-rule="evenodd" clip-rule="evenodd" d="M73.231 33.457H73.9405V35.8962H73.231V33.457Z" fill="white"/>
<path fill-rule="evenodd" clip-rule="evenodd" d="M73.231 33.457H73.9405V35.8962H73.231V33.457Z" fill="white"/>
<path fill-rule="evenodd" clip-rule="evenodd" d="M73.2286 33.457H73.9381V35.8962H73.2286V33.457ZM64.7803 33.457H65.512V35.8962H64.7803V33.457ZM70.9668 33.457H71.6986V35.8962H70.9668V33.457ZM67.9068 33.457H68.6386V35.8962H67.9068V33.457Z" fill="white"/>
<path fill-rule="evenodd" clip-rule="evenodd" d="M71.4774 35.1424V35.8741H68.2178V35.1424H71.4774ZM71.6991 33.2798V33.9894H69.6369V33.2798H71.6991Z" fill="white"/>
<path fill-rule="evenodd" clip-rule="evenodd" d="M82.0972 31.5493H92.652V32.2589H82.0972V31.5493ZM83.6715 35.1637H84.4033V35.8733H83.6715V35.1637ZM92.6742 35.1637V35.8733H90.5676V35.1415L92.6742 35.1637ZM93.8051 31.5493H94.5368V35.8733H93.8051V31.5493Z" fill="white"/>
<path fill-rule="evenodd" clip-rule="evenodd" d="M97.9962 35.1418V35.8735H94.0048V35.1418H97.9962ZM90.5679 33.4565H91.2996V35.8957H90.5679V33.4565Z" fill="white"/>
<path fill-rule="evenodd" clip-rule="evenodd" d="M97.4178 31.5493H98.1273V35.8733H97.4178V31.5493ZM95.5995 31.5493H96.3312V35.8733H95.5995V31.5493ZM85.976 33.2567V33.9885H82.1177V33.2789L85.976 33.2567ZM94.4021 33.2567V33.9885H90.566V33.2789L94.4021 33.2567Z" fill="white"/>
<path fill-rule="evenodd" clip-rule="evenodd" d="M90.5679 33.4565H91.2996V35.8957H90.5679V33.4565Z" fill="white"/>
<path fill-rule="evenodd" clip-rule="evenodd" d="M90.5679 33.4565H91.2996V35.8957H90.5679V33.4565Z" fill="white"/>
<path fill-rule="evenodd" clip-rule="evenodd" d="M90.567 33.4565H91.2987V35.8957H90.567V33.4565ZM82.1408 33.4565H82.8504V35.8957H82.1187L82.1408 33.4565ZM88.3052 33.4565H89.037V35.8957H88.3052V33.4565ZM85.2452 33.4565H85.9769V35.8957H85.2452V33.4565Z" fill="white"/>
<path fill-rule="evenodd" clip-rule="evenodd" d="M88.8146 35.1414V35.8732H85.5771V35.1414H88.8146ZM89.0363 33.2788V33.9884H86.9741V33.2788H89.0363Z" fill="white"/>
<path fill-rule="evenodd" clip-rule="evenodd" d="M99.4634 31.5493H109.996V32.2589H99.4634V31.5493ZM101.016 35.1637H101.747V35.8733H101.016V35.1637ZM110.018 35.1637V35.8733H107.934V35.1415L110.018 35.1637ZM111.149 31.5493H111.881V35.8733H111.149V31.5493Z" fill="white"/>
<path fill-rule="evenodd" clip-rule="evenodd" d="M115.361 35.1418V35.8735H111.37V35.1418H115.361ZM107.911 33.4565H108.642V35.8957H107.911V33.4565Z" fill="white"/>
<path fill-rule="evenodd" clip-rule="evenodd" d="M114.763 31.5493H115.495V35.8733H114.763V31.5493ZM112.945 31.5493H113.677V35.8733H112.945V31.5493ZM103.322 33.2567V33.9885H99.4634V33.2789L103.322 33.2567ZM111.748 33.2567V33.9885H107.934V33.2789L111.748 33.2567Z" fill="white"/>
<path fill-rule="evenodd" clip-rule="evenodd" d="M107.933 33.4565H108.642V35.8957H107.911L107.933 33.4565Z" fill="white"/>
<path fill-rule="evenodd" clip-rule="evenodd" d="M107.933 33.4565H108.642V35.8957H107.911L107.933 33.4565Z" fill="white"/>
<path fill-rule="evenodd" clip-rule="evenodd" d="M107.934 33.4565H108.643V35.8957H107.912L107.934 33.4565ZM99.4634 33.4565H100.195V35.8957H99.4634V33.4565ZM105.672 33.4565H106.382V35.8957H105.65L105.672 33.4565ZM102.59 33.4565H103.322V35.8957H102.59V33.4565Z" fill="white"/>
<path fill-rule="evenodd" clip-rule="evenodd" d="M106.16 35.1414V35.8732H102.923V35.1414H106.16ZM106.382 33.2788V33.9884H104.32V33.2788H106.382Z" fill="white"/>
<path fill-rule="evenodd" clip-rule="evenodd" d="M-14.623 73.6792H-13.3148V75.8966H-14.623V73.6792ZM19.8576 73.6792H21.1658V75.8966H19.8576V73.6792ZM-41.0767 73.6792H-39.7906V75.8966H-41.0767V73.6792ZM-23.5814 73.6792H-22.2731V75.8966H-23.5814V73.6792ZM-6.19692 73.6792H-4.91083V75.8966H-6.19692V73.6792ZM2.4066 73.6792H3.69269V75.8966H2.4066V73.6792ZM11.1653 73.6792H12.4958V75.8966H11.1653V73.6792ZM28.4611 73.6792H29.7693V75.8966H28.4611V73.6792ZM72.0995 73.6792H73.3856V75.8966H72.0995V73.6792ZM37.242 73.6792H38.5503V75.8966H37.242V73.6792ZM45.8455 73.6792H47.1538V75.8966H45.8455V73.6792ZM54.5377 73.6792H55.8238V75.8966H54.5377V73.6792ZM63.2299 73.6792H64.516V75.8966H63.2299V73.6792ZM132.635 73.6792H133.965V75.8966H132.635V73.6792ZM80.5257 73.6792H81.8118V75.8966H80.5035L80.5257 73.6792ZM89.2844 73.6792H90.5927V75.8966H89.2844V73.6792ZM98.154 73.6792H99.4623V75.8966H98.154V73.6792ZM106.491 73.6792H107.8V75.8966H106.491V73.6792ZM115.361 73.6792H116.669V75.8966H115.339L115.361 73.6792ZM124.053 73.6792H125.339V75.8966H124.053V73.6792ZM149.775 73.6792H151.061V75.8966H149.753L149.775 73.6792ZM141.438 73.6792H142.724V75.8966H141.438V73.6792ZM-32.3623 73.6792H-31.054V75.8966H-32.3623V73.6792Z" fill="#D90000"/>
<path fill-rule="evenodd" clip-rule="evenodd" d="M-14.623 35.6733H-13.3148V37.9129H-14.623V35.6733ZM19.8576 35.6733H21.1658V37.9129H19.8576V35.6733ZM-41.0767 35.6733H-39.7906V37.9129H-41.0767V35.6733ZM-23.5814 35.6733H-22.2731V37.9129H-23.5814V35.6733ZM-6.19692 35.6733H-4.91083V37.9129H-6.19692V35.6733ZM2.4066 35.6733H3.69269V37.9129H2.4066V35.6733ZM11.1653 35.6733H12.4958V37.9129H11.1653V35.6733ZM28.4611 35.6733H29.7693V37.9129H28.4611V35.6733ZM72.0995 35.6733H73.3856V37.9129H72.0995V35.6733ZM37.242 35.6733H38.5503V37.9129H37.242V35.6733ZM45.8455 35.6733H47.1538V37.9129H45.8455V35.6733ZM54.5377 35.6733H55.8238V37.9129H54.5377V35.6733ZM63.2299 35.6733H64.516V37.9129H63.2299V35.6733ZM132.635 35.6733H133.965V37.9129H132.635V35.6733ZM80.5257 35.6733H81.8118V37.9129H80.5035L80.5257 35.6733ZM89.2844 35.6733H90.5927V37.9129H89.2844V35.6733ZM98.154 35.6733H99.4623V37.9129H98.154V35.6733ZM106.491 35.6733H107.8V37.9129H106.491V35.6733ZM115.361 35.6733H116.669V37.9129H115.339L115.361 35.6733ZM124.053 35.6733H125.339V37.9129H124.053V35.6733ZM149.775 35.6733H151.061V37.9129H149.753L149.775 35.6733ZM141.438 35.6733H142.724V37.9129H141.438V35.6733ZM-32.3623 35.6733H-31.054V37.9129H-32.3623V35.6733Z" fill="#239E3F"/>
<path fill-rule="evenodd" clip-rule="evenodd" d="M60.2574 43.1687C62.0978 45.3861 67.6857 57.6927 56.8869 65.764C51.8091 69.578 54.9578 69.7554 55.113 70.4206C63.273 66.0745 65.9339 60.2205 65.8674 54.9431C65.8009 49.6879 63.0291 45.0535 60.2795 43.1687H60.2574Z" fill="#DA0000"/>
<path fill-rule="evenodd" clip-rule="evenodd" d="M61.3671 42.5923C63.3538 43.8091 65.0457 45.4516 66.3208 47.4015C67.5958 49.3513 68.4223 51.5598 68.7405 53.8677C69.0586 56.1756 68.8607 58.5253 68.1608 60.7474C67.4609 62.9695 66.2766 65.0086 64.6932 66.7176C70.5472 65.4315 77.9976 48.158 61.3228 42.5923H61.3671ZM48.9718 42.5923C46.9851 43.8091 45.2932 45.4516 44.0182 47.4015C42.7431 49.3513 41.9167 51.5598 41.5985 53.8677C41.2803 56.1756 41.4783 58.5253 42.1782 60.7474C42.8781 62.9695 44.0624 65.0086 45.6457 66.7176C39.7696 65.4315 32.3192 48.158 48.9718 42.5923Z" fill="#DA0000"/>
<path fill-rule="evenodd" clip-rule="evenodd" d="M50.057 43.1687C48.2388 45.3861 42.6287 57.6927 53.4275 65.764C58.5053 69.578 55.3566 69.7554 55.2014 70.4206C47.0635 66.0745 44.3805 60.2205 44.447 54.9431C44.5135 49.6879 47.3074 45.0535 50.057 43.1687Z" fill="#DA0000"/>
<path fill-rule="evenodd" clip-rule="evenodd" d="M65.5119 69.2894C62.0031 69.425 58.5109 68.7418 55.3119 67.2938C55.7997 68.2473 56.1988 68.846 56.7088 69.8216C59.5471 70.0655 63.4719 70.3981 65.5119 69.2894ZM45.1118 69.2894C48.3049 69.3338 52.3405 68.846 55.3119 67.2938C54.824 68.2473 54.4249 68.846 53.9149 69.8216C51.0766 70.0655 47.1518 70.3981 45.1118 69.2894ZM50.9658 39.4875C51.631 41.1949 53.3162 41.461 55.1345 40.441C56.4649 41.2393 58.5049 41.2836 59.2145 39.5541C59.7467 43.8115 55.2675 42.8137 55.1123 41.9932C53.4492 43.5897 50.3449 42.6584 50.9658 39.4875Z" fill="#DA0000"/>
<path fill-rule="evenodd" clip-rule="evenodd" d="M55.247 71.9728L56.9322 70.0437L57.1539 44.2332L55.1583 42.4592L53.1626 44.1445L53.5617 70.1324L55.247 71.9728V71.9728Z" fill="#DA0000"/>
</g>
<defs>
<clipPath id="clip0_5158_360528">
<rect x="0.17334" y="0.727051" width="110" height="110" rx="55" fill="white"/>
</clipPath>
</defs>
</svg>
