<svg width="111" height="111" viewBox="0 0 111 111" fill="none" xmlns="http://www.w3.org/2000/svg">
<g clip-path="url(#clip0_5158_359982)">
<path fill-rule="evenodd" clip-rule="evenodd" d="M-3.14575 -4.05664H115.018V114.107H-3.14575V-4.05664Z" fill="#00ABC2"/>
<path fill-rule="evenodd" clip-rule="evenodd" d="M14.4655 102.143C15.1469 102.786 14.9133 103.896 16.8019 103.759C19.664 103.759 19.7419 102.007 19.7419 100.78C19.7419 99.5538 15.4584 97.8599 15.2637 96.0491C15.069 94.2384 16.2567 93.7516 17.2497 93.7516C18.2232 93.7516 18.9241 94.3357 18.9241 94.8225C18.9241 95.3093 18.4374 95.465 17.7559 95.465C17.0745 95.465 18.048 95.1146 17.4444 94.8225C16.8408 94.5304 16.4709 95.2508 16.4709 95.6987C16.4709 96.127 17.9506 96.2633 18.9241 95.9518C19.1188 96.9253 19.2357 96.9837 17.8338 98.6387C18.8268 97.9961 18.9241 97.8599 20.0145 98.2103C18.9241 97.2757 19.7419 95.3677 19.7808 94.8809C19.8198 94.3942 19.5861 93.8101 19.1383 93.518C18.34 92.8171 16.6072 92.7781 15.5753 93.2454C14.0566 93.9074 13.9787 95.8934 14.3876 96.5553L18.5737 100.839C18.8657 101.345 18.9631 102.747 17.1913 102.825C15.3027 102.961 14.6602 100.41 14.3292 99.5538C13.8813 100.488 13.3946 103.058 11.506 102.903C9.73419 102.844 9.38373 101.442 9.67578 100.936L13.9787 96.5553C14.3681 95.8934 14.3097 93.9074 12.8105 93.2454C11.7591 92.7781 10.0262 92.8171 9.22797 93.5375C8.79962 93.81 8.54651 94.3942 8.58545 94.8809C8.62439 95.3677 9.44214 97.2758 8.35181 98.1909C9.44214 97.8404 9.52002 97.9961 10.513 98.6387C9.15009 96.9837 9.22797 96.9058 9.44214 95.9323C10.4156 96.2633 11.9149 96.127 11.9149 95.6987C11.9149 95.2508 11.5255 94.5304 10.9219 94.8225C10.3378 95.1146 11.3113 95.465 10.6298 95.465C9.92889 95.465 9.44214 95.3287 9.44214 94.8225C9.44214 94.3163 10.1236 93.7516 11.1166 93.7516C12.1096 93.7516 13.2972 94.2579 13.0831 96.0491C12.8884 97.8404 8.50757 99.8069 8.50757 101.033C8.50757 102.26 8.81909 103.759 11.6812 103.759C13.5698 103.896 13.784 102.786 14.4655 102.124V102.143Z" fill="#FFEC2D"/>
<path fill-rule="evenodd" clip-rule="evenodd" d="M14.2328 76.4424C14.9143 75.7804 15.4595 73.8139 17.3481 73.9697C20.2102 73.9697 21.3005 75.5468 21.3005 76.7734C21.3005 78 15.4595 88.0077 15.2648 89.8185C15.0701 91.6097 16.2578 92.1159 17.2507 92.1159C18.2242 92.1159 18.9252 91.5318 18.9252 91.0256C18.9252 90.5194 18.4384 90.3831 17.757 90.3831C17.0755 90.3831 18.0295 90.7335 17.4454 91.0256C16.8613 91.3177 16.4719 90.5973 16.4719 90.1689C16.4719 89.7211 17.9322 89.5848 18.9252 89.9158C19.1199 88.9423 19.2172 88.8644 17.8348 87.2094C18.8278 87.852 18.9252 87.9882 20.0155 87.6378C18.9252 88.5724 19.7429 90.4804 19.7819 90.9672C19.8208 91.4539 19.5872 92.0381 19.1199 92.3301C18.3411 93.0505 16.5887 93.07 15.5763 92.6027C14.0576 91.9407 13.9797 89.9547 14.3886 89.2928L20.0155 77.1239C20.3076 76.6176 19.5287 74.9821 17.7375 74.9043C15.8683 74.7485 15.2064 76.715 14.8948 77.5717L17.4454 77.377C17.4454 77.377 17.5428 77.7664 17.4454 78.039C16.1215 78.1168 14.8948 78.37 14.8948 78.37L14.7975 79.655H16.063L15.9462 80.2391C15.9462 80.2391 14.8948 80.1612 14.778 80.2391C14.6807 80.317 14.5833 81.5436 14.5833 81.5436C14.5833 81.5436 14.3886 81.602 14.1939 81.602C13.9603 81.602 13.7656 81.5436 13.7656 81.5436C13.7656 81.5436 13.6682 80.317 13.5709 80.2391C13.4735 80.1612 12.4026 80.2391 12.4026 80.2391L12.3053 79.655H13.5709L13.4735 78.37C13.4735 78.37 12.2274 78.1168 10.9034 78.039C10.8061 77.7859 10.9034 77.3964 10.9034 77.3964L13.4735 77.5912C13.1425 76.715 12.5 74.7485 10.6114 74.9043C8.8396 74.9627 8.04132 76.6176 8.33337 77.1239L13.9797 89.2928C14.3691 89.9547 14.2913 91.9407 12.7921 92.6027C11.7601 93.07 10.0273 93.0505 9.229 92.3301C8.78119 92.0381 8.54755 91.4539 8.58649 90.9672C8.62543 90.4804 9.42371 88.5724 8.33337 87.6573C9.42371 88.0077 9.52106 87.852 10.514 87.2094C9.15112 88.8644 9.229 88.9423 9.42371 89.9158C10.4167 89.5848 11.8964 89.7211 11.8964 90.1689C11.8964 90.5973 11.507 91.3177 10.9229 91.0256C10.3193 90.7335 11.3123 90.3831 10.6114 90.3831C9.92993 90.3831 9.44318 90.5194 9.44318 91.0256C9.44318 91.5318 10.1246 92.1159 11.1176 92.1159C12.1106 92.1159 13.2788 91.6097 13.0841 89.799C12.8894 88.0077 7.04834 78 7.04834 76.7539C7.04834 75.5468 8.13867 73.9697 11.0008 73.9697C12.8894 73.8139 13.5514 75.7804 14.2328 76.4424V76.4424Z" fill="#FFEC2D"/>
<path fill-rule="evenodd" clip-rule="evenodd" d="M14.2328 71.4781C14.9142 72.1401 15.4594 74.1066 17.348 73.9508C20.2101 73.9508 21.3005 72.3737 21.3005 71.1471C21.3005 69.9205 15.4594 59.9128 15.2647 58.1021C15.07 56.3108 16.2577 55.8046 17.2507 55.8046C18.2242 55.8046 18.9251 56.3887 18.9251 56.8949C18.9251 57.4011 18.4384 57.5374 17.7569 57.5374C17.0754 57.5374 18.049 57.187 17.4454 56.8949C16.8418 56.6029 16.4719 57.3233 16.4719 57.7516C16.4719 58.1994 17.9321 58.3357 18.9251 58.0047C19.1198 58.9782 19.2172 59.0561 17.8348 60.7111C18.8278 60.0686 18.9251 59.9323 20.0154 60.2827C18.9251 59.3482 19.7429 57.4401 19.7818 56.9533C19.8207 56.4666 19.5871 55.8825 19.1198 55.5904C18.341 54.87 16.5887 54.8505 15.5762 55.3178C14.0576 55.9798 13.9797 57.9658 14.3886 58.6278L20.0154 70.7966C20.3075 71.3029 19.5287 72.9384 17.7374 73.0163C15.8683 73.172 15.2063 71.2055 14.8948 70.3488L17.4454 70.5435C17.4454 70.5435 17.5427 70.1541 17.4454 69.8815C16.1214 69.7842 14.8948 69.5506 14.8948 69.5506L14.7974 68.2655H16.024L15.9267 67.6814C15.9267 67.6814 14.8753 67.7593 14.7585 67.6814C14.6806 67.6035 14.5638 66.3769 14.5638 66.3769C14.5638 66.3769 14.3691 66.3185 14.1744 66.3185C13.9407 66.3185 13.746 66.3769 13.746 66.3769C13.746 66.3769 13.6487 67.6035 13.5513 67.6814C13.454 67.7593 12.3831 67.6814 12.3831 67.6814L12.2858 68.2655H13.5513L13.454 69.5506C13.454 69.5506 12.2079 69.7842 10.8839 69.8815C10.7866 70.1347 10.8839 70.5241 10.8839 70.5241L13.454 70.3294C13.123 71.2055 12.4805 73.172 10.5919 73.0163C8.82007 72.9578 8.02179 71.3029 8.33331 70.7966L13.9602 58.6278C14.3496 57.9658 14.2717 55.9798 12.7725 55.3178C11.7406 54.8505 10.0078 54.87 9.20947 55.5904C8.76166 55.8825 8.52802 56.4666 8.56696 56.9533C8.6059 57.4401 9.40417 59.3482 8.31384 60.2633C9.40417 59.9128 9.50153 60.0686 10.4945 60.7111C9.11212 59.0561 9.20947 58.9782 9.40417 58.0047C10.3972 58.3357 11.8769 58.1994 11.8769 57.7516C11.8769 57.3038 11.4875 56.6029 10.9034 56.8949C10.3193 57.187 11.2928 57.5374 10.5919 57.5374C9.9104 57.5374 9.42365 57.4011 9.42365 56.8949C9.42365 56.3887 10.1051 55.8241 11.0981 55.8241C12.0911 55.8241 13.2593 56.3108 13.0646 58.1215C12.8699 59.9128 7.02881 69.9205 7.02881 71.1666C7.02881 72.3737 8.11914 73.9508 10.9813 73.9508C12.8699 74.1066 13.5319 72.1401 14.2133 71.4781H14.2328Z" fill="#FFEC2D"/>
<path fill-rule="evenodd" clip-rule="evenodd" d="M14.2328 38.5143C14.9143 37.8523 15.4595 35.8858 17.3481 36.0221C20.2102 36.0221 21.3005 37.6187 21.3005 38.8453C21.3005 40.0525 15.4595 50.0602 15.2648 51.8709C15.0701 53.6621 16.2578 54.1684 17.2507 54.1684C18.2242 54.1684 18.9252 53.5843 18.9252 53.0975C18.9252 52.6108 18.4384 52.4355 17.757 52.4355C17.0755 52.4355 18.0295 52.8055 17.4454 53.0975C16.8613 53.3896 16.4719 52.6692 16.4719 52.2213C16.4719 51.793 17.9322 51.6372 18.9252 51.9682C19.1199 50.9947 19.2172 50.9363 17.8348 49.2813C18.8278 49.9239 18.9252 50.0602 20.0155 49.7097C18.9252 50.6443 19.7429 52.5523 19.7819 53.0196C19.8208 53.4869 19.5872 54.0905 19.1199 54.3825C18.3411 55.1029 16.5887 55.1419 15.5763 54.6746C14.0576 53.9931 13.9797 52.0072 14.3886 51.3647L20.0155 39.1958C20.3076 38.6895 19.5287 37.0346 17.7375 36.9567C15.8683 36.8204 15.2064 38.7869 14.8948 39.6436L17.4454 39.4489C17.4454 39.4489 17.5428 39.8383 17.4454 40.1109C16.1215 40.1888 14.8948 40.4224 14.8948 40.4224L14.7975 41.7269H16.063L15.9462 42.311C15.9462 42.311 14.8948 42.2331 14.778 42.311C14.6807 42.3694 14.5833 43.596 14.5833 43.596C14.5833 43.596 14.3886 43.6739 14.1939 43.6739C13.9603 43.6739 13.7656 43.596 13.7656 43.596C13.7656 43.596 13.6682 42.3694 13.5709 42.311C13.4735 42.2331 12.4026 42.311 12.4026 42.311L12.3053 41.7269H13.5709L13.4735 40.4224C13.4735 40.4224 12.2274 40.1888 10.9034 40.1109C10.8061 39.8578 10.9034 39.4489 10.9034 39.4489L13.4735 39.6436C13.1425 38.7869 12.5 36.8204 10.6114 36.9567C8.8396 37.0346 8.04132 38.6895 8.33337 39.1958L13.9797 51.3647C14.3691 52.0072 14.2913 53.9931 12.7921 54.6746C11.7601 55.1419 10.0273 55.1029 9.229 54.3825C8.78119 54.11 8.54755 53.5258 8.58649 53.0196C8.62543 52.5134 9.42371 50.6443 8.33337 49.7097C9.42371 50.0602 9.52106 49.9239 10.514 49.2813C9.15112 50.9363 9.229 51.0142 9.42371 51.9682C10.4167 51.6567 11.8964 51.793 11.8964 52.2213C11.8964 52.6497 11.507 53.3896 10.9229 53.0975C10.3193 52.8055 11.3123 52.4355 10.6114 52.4355C9.92993 52.4355 9.44318 52.5913 9.44318 53.0975C9.44318 53.6037 10.1246 54.1684 11.1176 54.1684C12.1106 54.1684 13.2788 53.6621 13.0841 51.8709C12.8894 50.0602 7.04834 40.0525 7.04834 38.8258C7.04834 37.6187 8.13867 36.0221 11.0008 36.0221C12.8894 35.8858 13.5514 37.8523 14.2328 38.5143V38.5143Z" fill="#FFEC2D"/>
<path fill-rule="evenodd" clip-rule="evenodd" d="M14.2328 33.5491C14.9143 34.2111 15.4595 36.1581 17.3481 36.0218C20.2102 36.0218 21.3005 34.4447 21.3005 33.2181C21.3005 31.9915 15.4595 21.9838 15.2648 20.1731C15.0701 18.3818 16.2578 17.8756 17.2507 17.8756C18.2242 17.8756 18.9252 18.4597 18.9252 18.9464C18.9252 19.4332 18.4384 19.6084 17.757 19.6084C17.0755 19.6084 18.049 19.2385 17.4454 18.9464C16.8419 18.6544 16.4719 19.3942 16.4719 19.8226C16.4719 20.2509 17.9322 20.4067 18.9252 20.0757C19.1199 21.0492 19.2172 21.1076 17.8348 22.7626C18.8278 22.1201 18.9252 21.9838 20.0155 22.3342C18.9252 21.3997 19.7429 19.4916 19.7819 19.0243C19.8208 18.557 19.5872 17.9534 19.1199 17.6614C18.3411 16.941 16.5887 16.9021 15.5763 17.3693C14.0576 18.0508 13.9797 20.0368 14.3886 20.6793L20.0155 32.8482C20.3076 33.3544 19.5287 35.0094 17.7375 35.0872C15.8683 35.2235 15.2064 33.257 14.8948 32.4003L17.4454 32.595C17.4454 32.595 17.5428 32.2056 17.4454 31.9331C16.5901 31.8773 15.7385 31.7733 14.8948 31.6215L14.7975 30.317H16.0241L15.9268 29.7329C15.9268 29.7329 14.8754 29.8108 14.7585 29.7329C14.6807 29.6745 14.5638 28.4479 14.5638 28.4479C14.5638 28.4479 14.3691 28.37 14.1744 28.37C13.9408 28.37 13.7461 28.4479 13.7461 28.4479C13.7461 28.4479 13.6487 29.6745 13.5514 29.7524C13.454 29.8108 12.3832 29.7524 12.3832 29.7524L12.2858 30.3365H13.5514L13.454 31.6215C13.454 31.6215 12.2079 31.8552 10.884 31.9331C10.8296 32.1504 10.8296 32.3777 10.884 32.595L13.454 32.4003C13.123 33.257 12.4805 35.2235 10.5919 35.0872C8.82013 35.0094 8.02185 33.3544 8.33337 32.8482L13.9603 20.6793C14.3497 20.0368 14.2718 18.0508 12.7726 17.3693C11.7407 16.9021 10.0078 16.941 9.20953 17.6614C8.76172 17.9534 8.52808 18.5181 8.56702 19.0243C8.60596 19.5305 9.40424 21.3997 8.3139 22.3342C9.40424 21.9838 9.50159 22.1395 10.4946 22.7626C9.11218 21.1076 9.20953 21.0492 9.40424 20.0757C10.3972 20.3872 11.877 20.2704 11.877 19.8226C11.877 19.3748 11.4875 18.6544 10.9034 18.9464C10.3193 19.2385 11.2928 19.6084 10.5919 19.6084C9.91046 19.6084 9.42371 19.4527 9.42371 18.9464C9.42371 18.4402 10.1052 17.8756 11.0981 17.8756C12.0911 17.8756 13.2788 18.3818 13.0841 20.1731C12.8894 21.9838 7.04834 31.9915 7.04834 33.2181C7.04834 34.4447 8.13867 36.0218 11.0008 36.0218C12.8894 36.1581 13.5514 34.2111 14.2328 33.5491V33.5491Z" fill="#FFEC2D"/>
<path fill-rule="evenodd" clip-rule="evenodd" d="M14.4655 7.84863C15.1469 7.18664 14.9133 6.09631 16.8019 6.21313C19.664 6.21313 19.7419 7.96545 19.7419 9.19208C19.7419 10.4187 15.4584 12.1321 15.2637 13.9233C15.069 15.7341 16.2567 16.2403 17.2497 16.2403C18.2232 16.2403 18.9241 15.6562 18.9241 15.15C18.9241 14.6437 18.4374 14.5269 17.7754 14.5269C17.1134 14.5269 18.0674 14.8968 17.4639 15.1694C16.8603 15.442 16.4904 14.7411 16.4904 14.3127C16.4904 13.8844 17.9701 13.7286 18.9436 14.0596C19.1383 13.0861 19.2551 13.0082 17.8533 11.3533C18.8268 11.9958 18.9436 12.1321 20.0145 11.8011C18.9241 12.7357 19.7419 14.6437 19.7808 15.111C19.8198 15.5783 19.5861 16.1819 19.1383 16.4739C18.34 17.1943 16.6072 17.2333 15.5753 16.766C14.0566 16.0845 13.9787 14.0986 14.3876 13.4561L18.5737 9.17261C18.8657 8.64691 18.9631 7.24506 17.1913 7.16717C15.3027 7.03088 14.6602 9.60095 14.3292 10.4382C13.8813 9.5036 13.3946 6.93353 11.506 7.06982C9.73419 7.1477 9.38373 8.54956 9.67578 9.05579L13.9787 13.4366C14.3681 14.0791 14.3097 16.0651 12.8105 16.7465C11.7591 17.2138 10.0262 17.1749 9.22797 16.4545C8.79962 16.1624 8.54651 15.5978 8.58545 15.0916C8.62439 14.5853 9.44214 12.7162 8.35181 11.7816C9.44214 12.1321 9.52002 11.9763 10.513 11.3338C9.15009 12.9888 9.22797 13.0861 9.44214 14.0402C10.4156 13.7092 11.9149 13.8455 11.9149 14.2933C11.9149 14.7216 11.5255 15.4615 10.9219 15.15C10.3378 14.8774 11.3113 14.5074 10.6298 14.5074C9.92889 14.5074 9.44214 14.6632 9.44214 15.15C9.44214 15.6367 10.1236 16.2403 11.1166 16.2403C12.1096 16.2403 13.2972 15.7341 13.0831 13.9233C12.8884 12.1321 8.50757 10.1656 8.50757 8.93896C8.50757 7.71234 8.81909 6.21313 11.6812 6.21313C13.5698 6.07684 13.784 7.18664 14.4655 7.84863V7.84863Z" fill="#FFEC2D"/>
<path d="M79.3195 49.0184C79.3195 40.346 71.9012 33.3157 62.7503 33.3157C53.5994 33.3157 46.1812 40.346 46.1812 49.0184C46.1812 57.6908 53.5994 64.7211 62.7503 64.7211C71.9012 64.7211 79.3195 57.6908 79.3195 49.0184Z" fill="#FFEC2D"/>
<path fill-rule="evenodd" clip-rule="evenodd" d="M61.9709 23.9501C61.8152 23.9501 61.0753 29.1682 60.8027 30.3364C60.5301 32.9648 64.3074 32.8675 63.6843 30.239L61.9709 23.9307V23.9501ZM63.2949 74.5338C63.4312 74.5338 64.5605 69.3741 64.9304 68.2254C65.3782 65.6359 61.601 65.4996 62.0099 68.1475L63.2949 74.5338V74.5338ZM36.8933 48.911C36.8933 49.0472 42.3255 50.1376 43.5326 50.488C46.2585 50.9359 46.4532 47.3728 43.6495 47.7622L36.8933 48.9304V48.911ZM89.7939 49.534C89.7939 49.3977 84.3033 48.5021 83.0767 48.1906C80.3314 47.8596 80.3119 51.4226 83.0767 50.9359L89.7939 49.534ZM42.4618 32.3613C42.3644 32.4586 45.947 36.5084 46.6674 37.5014C48.5365 39.4484 51.0092 36.7226 48.5365 35.3986L42.4618 32.3807V32.3613ZM83.5634 65.6553C83.6608 65.558 79.7278 61.8197 78.91 60.9046C76.8657 59.1133 74.6655 62.0144 77.2356 63.1437L83.5634 65.6748V65.6553ZM50.6587 26.7149C50.5419 26.7733 52.2164 31.7966 52.4889 32.9843C53.4235 35.457 56.8113 33.841 55.059 31.7188L50.6782 26.7149H50.6587ZM74.6266 71.9637C74.7629 71.9053 73.4584 66.7846 73.2831 65.5969C72.5238 63.0658 69.0386 64.4287 70.6157 66.6873L74.646 71.9442L74.6266 71.9637ZM80.5261 30.2195C80.4092 30.1222 76.0868 33.4516 75.0355 34.1136C72.9521 35.8659 75.7753 38.2413 77.2161 35.9243L80.5261 30.2195ZM44.8956 67.9334C44.9929 68.0307 49.5684 65.0128 50.6587 64.4092C52.8589 62.8127 50.2304 60.2426 48.6144 62.4622L44.915 67.9334H44.8956ZM38.081 39.8768C38.0226 39.9936 42.7538 42.7389 43.7858 43.4593C46.2195 44.7249 47.6409 41.4149 44.8566 40.8892L38.081 39.8768V39.8768ZM87.4769 59.0355C87.5353 58.9186 82.9988 55.8618 82.0253 55.083C79.6888 53.6422 78.0339 56.8548 80.7792 57.5557L87.4769 59.0355V59.0355ZM71.7839 25.3715C71.6476 25.3325 68.9413 29.9275 68.2209 30.9205C68.2222 31.2376 68.3228 31.5463 68.5084 31.8033C68.6941 32.0604 68.9556 32.2529 69.2562 32.3538C69.5568 32.4547 69.8815 32.459 70.1847 32.3661C70.4878 32.2731 70.7543 32.0876 70.9467 31.8356L71.7839 25.3715ZM53.5014 72.9372C53.6377 72.9956 56.675 68.5759 57.4539 67.6218C58.8752 65.3633 55.429 63.9225 54.7864 66.5315L53.5014 72.9372V72.9372ZM38.412 59.4443C38.4704 59.5612 43.8636 58.2761 45.1292 58.0814C47.7772 57.3416 46.2974 54.0706 43.961 55.5892L38.412 59.4443ZM87.4964 39.4484C87.4574 39.3316 81.9863 40.2467 80.7208 40.3635C77.9949 40.9282 79.2605 44.2965 81.6943 42.9336L87.4964 39.4484V39.4484Z" fill="#FFEC2D"/>
<path fill-rule="evenodd" clip-rule="evenodd" d="M67.345 24.2814C67.2087 24.262 65.3785 29.2269 64.8334 30.3172C64.0351 32.8483 67.7539 33.4714 67.6955 30.7845L67.3645 24.262L67.345 24.2814ZM57.902 74.1057C58.0383 74.1447 60.2384 69.2966 60.8614 68.2257C61.835 65.7725 58.1746 64.9158 58.0383 67.5832L57.8825 74.1057H57.902ZM56.0134 24.7682C55.8771 24.8071 56.3833 30.0641 56.3833 31.2712C56.7532 33.8608 60.3942 32.9651 59.187 30.5508L56.0134 24.7682V24.7682ZM69.2531 73.8137C69.3894 73.7942 69.2531 68.5178 69.3505 67.3106C69.1752 64.6821 65.4564 65.3441 66.5078 67.8363L69.2336 73.8137H69.2531ZM46.6287 29.1295C46.5119 29.2074 49.1014 33.8608 49.5882 34.9706C50.99 37.2486 54.0079 35.1069 51.8857 33.2961L46.6287 29.1295ZM78.7156 69.6081C78.8325 69.5302 76.5739 64.7016 76.1845 63.5723C74.9579 61.2164 71.8037 63.1635 73.7702 65.091L78.7156 69.6081ZM39.7752 35.6715C39.6973 35.7883 43.8834 39.254 44.7596 40.1497C46.9208 41.7852 48.9262 38.7478 46.2783 37.7938L39.7752 35.6715ZM85.3744 62.8714C85.4523 62.7546 81.5388 59.0163 80.7211 58.0817C78.6962 56.3099 76.4766 59.211 79.0466 60.3403L85.3744 62.8714ZM36.7768 43.8295C36.7379 43.9658 41.8975 45.9323 43.0267 46.4969C45.6357 47.3731 46.473 43.8879 43.6303 43.8101L36.7768 43.8295V43.8295ZM88.8401 55.0833C88.8986 54.9665 83.8947 52.669 82.8044 52.0265C80.2732 50.9751 79.1634 54.4019 81.9866 54.6744L88.8401 55.0833ZM36.6016 53.8567C36.621 53.9735 42.1895 53.8956 43.4551 53.993C46.2198 53.8567 45.5579 50.3326 42.9099 51.2866L36.6016 53.8567ZM89.2101 45.0951C89.2101 44.9588 83.6416 44.6667 82.3955 44.4915C79.6113 44.4526 80.0201 48.0156 82.7265 47.2173L89.2101 45.0756V45.0951ZM41.3718 64.2538C41.4496 64.3706 46.434 61.9952 47.6022 61.5474C50.0165 60.2819 47.7969 57.3808 45.8694 59.3473L41.3718 64.2538ZM84.654 34.6006C84.5762 34.4838 79.4555 36.5282 78.2289 36.8981C75.7172 38.0079 77.7227 41.0453 79.7865 39.2151L84.654 34.6006V34.6006ZM49.4714 71.1462C49.5882 71.2046 53.1512 67.1548 54.0469 66.2982C55.7408 64.2148 52.4893 62.4041 51.5352 64.9352L49.4714 71.1462ZM76.6713 27.5719C76.5739 27.494 72.7188 31.2907 71.7648 32.089C69.9346 34.0555 73.0498 36.0804 74.1791 33.6271L76.6518 27.5719H76.6713Z" fill="#FFEC2D"/>
<path fill-rule="evenodd" clip-rule="evenodd" d="M37.4146 59.4632C37.712 60.4674 37.7545 66.0905 43.7458 71.5128C49.6947 76.8949 59.8927 78.0998 59.8927 78.0998C59.8927 78.0998 59.9352 78.863 59.2128 78.9031C58.4905 78.9835 55.0062 78.3007 53.264 77.7785C51.5643 77.2965 50.0346 76.4129 49.8646 76.4531C49.6522 76.5334 49.3123 77.0957 48.8024 77.0154C48.2925 76.9351 45.8279 74.5251 44.7231 73.8825C42.5134 72.0771 40.5571 70.0119 38.9018 67.7372C37.712 65.9298 37.4146 64.7249 37.0321 64.7249C36.6497 64.7249 35.2475 65.6085 35.2475 65.6085C35.2475 65.6085 33.9727 63.8011 32.8679 60.9092C31.7207 58.0173 31.8481 56.3304 32.1031 56.2099C32.4005 56.0894 32.4005 58.3386 33.2504 60.387C34.1002 62.4756 35.29 63.1183 35.29 63.1183C35.29 63.1183 34.5251 62.0338 33.9302 59.3427C33.3353 56.6517 33.0804 54.0409 33.5053 53.2376C33.9302 52.4343 34.3127 52.1933 34.3551 52.2335C34.4401 52.3138 33.6328 53.4786 34.1852 56.5713C34.7376 59.6641 36.2248 62.2748 36.5647 62.1543C36.9047 62.0338 36.3523 61.3912 36.1398 59.5837C35.9273 57.7763 36.3523 56.6517 36.8197 56.491C37.0321 56.3304 37.3721 58.4993 37.4146 59.4632V59.4632ZM33.2504 64.6044C32.1031 63.6002 30.3184 60.1059 29.936 60.2665C29.5111 60.4674 32.8254 65.488 32.9104 65.8896C32.9954 66.3716 33.7178 67.7372 33.1654 67.5364C32.613 67.3356 28.6612 63.3994 29.1287 64.1626C29.5961 64.9257 32.5705 68.3799 32.4005 68.5807C32.2305 68.7815 29.936 66.6528 29.851 66.9339C29.8085 67.1749 32.1031 69.2635 32.0606 69.5045C32.0181 69.7455 30.5734 68.1791 30.5734 68.5004C30.5734 68.8217 32.0606 70.3881 32.0606 70.6291C32.0606 70.8701 30.7858 69.5045 31.2108 70.2275C31.5932 71.0308 32.698 71.7136 32.6555 71.9546C32.613 72.1956 31.7207 71.6333 31.7207 71.7538C31.7207 71.8743 33.3778 72.4366 33.7603 72.8784C34.1852 73.3202 36.9047 76.2924 38.9443 77.7785C40.9839 79.2646 46.8477 81.8754 47.2726 81.8754C47.6551 81.8754 48.25 81.0721 48.1225 80.7507C47.995 80.4294 42.2586 78.5818 40.6864 77.2162C39.0717 75.8506 35.1625 72.5571 34.8226 72.3964C34.5251 72.1956 33.6328 72.2759 33.6328 72.0751C33.6328 71.8742 34.7801 72.1956 34.6951 72.0751C34.6526 71.9546 33.1229 71.3119 33.1654 71.1914C33.2504 71.071 34.2277 71.4324 34.2277 71.3119C34.2277 71.1914 32.443 70.2676 32.528 70.0668C32.5705 69.866 33.8452 70.6291 33.8452 70.4685C33.8452 70.3881 32.1456 69.2635 32.1881 69.0627C32.2305 68.8619 33.5053 69.9463 33.4628 69.7053C33.4203 69.4643 32.443 68.0987 32.443 67.9381C32.443 67.7372 33.9727 69.3037 34.1427 68.9824C34.2277 68.7012 33.5903 66.0905 33.6328 66.0503C33.6753 66.0101 34.7801 66.6126 34.95 66.2511C35.1625 65.8495 34.1852 65.3273 33.2504 64.6044V64.6044ZM52.8391 84.3656C52.0317 84.4861 51.6493 84.2049 52.1167 83.5623C52.7541 83.5623 54.4538 83.0401 55.0487 82.7992C55.6435 82.5582 56.2809 82.2368 56.7908 81.795C57.3007 81.2729 57.6407 82.0762 57.3432 82.518C57.1307 82.7992 56.1534 83.3213 55.4311 83.6025C54.3688 83.9238 53.434 84.4058 52.8391 84.3656ZM58.1506 82.3172C57.5982 81.7549 58.0656 81.3532 58.8729 80.9114C60.0627 80.3089 59.7228 79.4655 61.2525 78.7826C61.9323 78.381 71.4505 74.7661 74.5524 72.8382C77.6543 70.9103 86.3651 64.6847 88.7022 60.387C90.9967 56.1295 89.8919 55.8082 90.2319 55.6475C90.5293 55.4467 90.8692 56.25 90.8267 57.214C90.7418 58.1378 89.9769 60.9493 90.2319 61.2305C90.4868 61.5117 93.7162 59.0214 95.0759 56.009C96.4357 52.9966 97.4555 49.8638 98.0928 49.8638C98.7727 49.8638 96.9881 55.0049 95.8408 57.0132C94.736 59.0214 93.4187 60.0255 93.7162 60.4674C94.0561 60.869 97.3705 58.2583 98.5178 56.3304C99.6225 54.3623 100.685 52.6352 100.897 52.9966C100.559 55.3495 99.5779 57.5783 98.0503 59.4632C96.2657 61.3912 94.1411 62.7969 94.481 63.0781C94.7785 63.3994 97.2005 63.7207 99.7075 62.1141C102.257 60.4674 102.512 58.0976 102.809 58.2181C103.149 58.3386 102.512 61.592 100.09 63.6002C97.6679 65.6085 94.481 65.8093 94.566 66.2511C94.736 66.6528 101.492 64.4035 101.365 64.9257C101.237 65.4077 92.6114 68.6209 92.5264 68.9422C92.5264 69.1832 94.0136 69.2635 96.3507 68.7414C98.6452 68.2594 100.855 66.5323 101.152 66.9339C101.237 67.4963 99.4951 68.8619 96.8606 69.5045C94.1836 70.1471 92.8663 70.9906 92.7814 71.1914C92.7389 71.3923 97.5405 70.6291 97.5405 70.8701C97.5405 71.1111 91.2517 72.2759 91.2092 72.5972C91.1242 72.8784 97.158 71.4324 97.073 71.7939C96.9031 72.0751 88.8721 74.3243 88.9571 74.4448C88.9996 74.6055 95.6708 73.0792 95.5433 73.3202C95.3734 73.6013 84.3255 76.5334 84.2405 76.7342C84.1555 76.8949 94.0136 74.6456 93.9286 74.8465C93.8437 75.0473 88.8296 76.2121 88.8296 76.3326C88.8296 76.4531 92.8663 75.7301 92.7814 75.9309C92.7389 76.0916 82.5833 78.5417 82.3709 78.9031C82.1584 79.3048 87.6399 77.899 87.5549 78.622C87.4699 79.345 75.7846 83.0401 75.7421 82.3573C75.6572 81.6745 82.8383 79.9474 82.7958 79.7466C82.7108 79.5458 78.6741 80.1483 78.5891 79.7868C78.5466 79.3851 81.2661 78.5818 81.0536 78.4212C80.8412 78.2203 78.8016 78.9835 78.9715 78.5417C79.184 78.0998 83.0507 76.4129 82.9658 76.2924C82.9233 76.1719 81.5635 76.6941 81.691 76.2924C81.861 75.8506 90.0619 73.6013 89.9344 73.3202C89.8069 73.0792 86.1526 73.8825 85.8127 73.9628C85.6852 73.7218 90.9117 71.8742 90.8267 71.5529C90.6568 71.2718 88.0223 72.6374 87.8523 72.2759C87.7673 71.8742 92.4839 70.1471 92.1865 69.866C91.889 69.5848 89.7645 70.589 89.467 70.3078C89.1696 70.0267 93.9286 66.9339 93.2063 66.8536C92.4839 66.8134 91.5916 67.8176 91.5066 67.1749C91.5916 66.3716 95.2034 65.0462 94.3961 64.4035C93.1213 64.0421 88.8296 64.6847 87.045 65.6888C85.2603 66.6929 79.3115 72.2759 77.8667 73.1595C76.422 74.003 71.493 75.9711 70.5582 76.3727C69.1134 76.8547 68.8585 77.5777 67.3713 78.3007C64.6943 78.9835 64.7368 79.7466 63.462 80.1884C62.9946 80.3089 58.193 82.4778 58.1506 82.3172V82.3172ZM51.4368 85.1287C50.6295 85.5304 49.9071 86.4944 50.3746 86.896C50.6295 87.378 51.4368 85.8115 52.0742 85.8919L55.4736 86.0525C57.3007 86.173 58.193 85.691 59.2128 85.7714C60.2326 85.8517 62.4847 85.2492 63.547 85.2492C64.6093 85.2492 64.8218 85.3697 64.9067 84.9279C65.0342 84.5263 61.5924 84.8074 60.0627 84.7672C58.533 84.6869 56.6208 85.0484 55.4736 85.0484C54.4113 85.0082 52.5841 84.6869 51.4368 85.1287V85.1287Z" fill="#FFEC2D"/>
<path d="M56.5358 84.6469C56.5358 84.3142 56.2124 84.0444 55.8134 84.0444C55.4145 84.0444 55.0911 84.3142 55.0911 84.6469C55.0911 84.9796 55.4145 85.2494 55.8134 85.2494C56.2124 85.2494 56.5358 84.9796 56.5358 84.6469Z" fill="#FFEC2D"/>
<path fill-rule="evenodd" clip-rule="evenodd" d="M73.4907 83.4827C74.2131 83.3622 76.1677 84.0048 77.5274 84.286C79.992 85.2098 84.5811 84.7679 84.5811 85.2097C84.5811 85.6516 84.2836 86.1737 83.2213 86.254C82.1591 86.3344 79.4821 85.8524 79.567 85.8524C79.652 85.8524 81.6916 86.7762 81.0968 87.0172C80.5019 87.2582 78.7597 86.495 78.4623 86.6959C78.1648 86.8967 80.077 87.2582 79.737 87.3787C79.4821 87.4992 78.1648 87.218 77.7399 87.2582C77.315 87.3385 78.0798 87.7803 77.5699 87.941C77.06 88.1418 76.2102 87.7 75.8703 87.8205C75.4878 87.941 76.6351 88.6238 76.1252 88.7041C75.6153 88.7844 74.4255 88.3828 73.7457 88.3025C73.0658 88.3025 74.3831 88.9451 73.9581 89.0254C73.5332 89.0656 72.3434 88.5033 72.046 88.5033C71.7486 88.5033 72.046 89.3066 71.6211 89.3066C71.1962 89.3066 70.6863 88.6238 70.4313 88.6238C70.1764 88.6238 70.4313 89.4271 70.0064 89.4271C69.5815 89.4271 69.4115 88.5836 69.0716 88.6238C68.6467 88.7041 69.0716 89.7082 68.4767 89.6279C67.9243 89.5877 67.8393 88.5836 67.3719 88.6238C66.947 88.7041 67.4569 89.6279 67.032 89.6279C66.607 89.6279 66.5221 88.7041 66.0972 88.6238C65.6722 88.5836 65.8422 89.5074 65.5872 89.5074C65.3323 89.5074 65.0773 88.6238 64.9074 88.6238C64.7799 88.6238 64.9074 89.5074 64.3975 89.4271C63.8876 89.3468 63.8876 88.4631 63.7601 88.5033C63.5901 88.5836 63.5901 89.2263 63.2502 89.2263C62.9103 89.2263 62.8678 88.5836 62.7403 88.6639C62.5703 88.7041 62.0604 89.5074 61.7205 89.3869C61.3381 89.2664 61.8055 88.6238 61.6355 88.6238C61.4655 88.6238 61.0406 89.0656 60.7857 89.0254C60.5307 88.9853 60.7857 88.4631 60.7007 88.4631C60.6157 88.4631 59.9783 88.7844 59.6809 88.7844C59.3834 88.7844 58.5761 89.1861 58.3636 88.8246C58.1512 88.423 58.916 88.423 59.086 88.0615C59.2135 87.7 58.6611 86.6155 59.256 86.254C59.8084 85.8524 61.6355 86.7762 64.355 86.1335C69.284 84.8884 73.1083 83.4425 73.4907 83.4827V83.4827Z" fill="#FFEC2D"/>
</g>
<defs>
<clipPath id="clip0_5158_359982">
<rect x="0.936279" y="0.0251465" width="110" height="110" rx="55" fill="white"/>
</clipPath>
</defs>
</svg>
