<svg width="111" height="111" viewBox="0 0 111 111" fill="none" xmlns="http://www.w3.org/2000/svg">
<g clip-path="url(#clip0_5158_360233)">
<path fill-rule="evenodd" clip-rule="evenodd" d="M-35.0205 0.754883H144.535V66.5724H-35.0205V0.754883Z" fill="#E73E2D"/>
<path fill-rule="evenodd" clip-rule="evenodd" d="M44.1728 61.3369C39.9892 58.0931 32.2039 59.1893 30.9287 50.3301C36.8796 54.9386 35.8057 50.0616 44.7097 54.4688L44.1728 61.3369V61.3369Z" fill="#FEC74A"/>
<path fill-rule="evenodd" clip-rule="evenodd" d="M30.689 49.9182L31.0387 50.1891C32.518 51.3346 33.5464 51.8793 34.3917 52.1302C35.2339 52.3801 35.9075 52.3429 36.7018 52.2968L36.7108 52.2963C37.5055 52.2501 38.4082 52.1976 39.6705 52.4356C40.9352 52.674 42.5534 53.2021 44.7895 54.3089L44.898 54.3626L44.3516 61.3514L44.1732 61.3374L44.0635 61.4789C43.0408 60.6859 41.7921 60.1538 40.4565 59.6629C40.1177 59.5384 39.7729 59.4164 39.4252 59.2934C38.4101 58.9343 37.3703 58.5664 36.3842 58.1016C35.0554 57.4754 33.8067 56.6662 32.8095 55.4449C31.8115 54.2224 31.0747 52.5981 30.752 50.3561L30.689 49.9182ZM44.02 61.0009L44.5222 54.5763C42.3629 53.5161 40.8082 53.0143 39.6042 52.7873C38.3851 52.5575 37.518 52.6079 36.728 52.6538L36.7214 52.6542C35.9279 52.7003 35.1978 52.7427 34.2899 52.4733C33.4582 52.2265 32.4884 51.7221 31.1761 50.7432C31.5195 52.7033 32.2005 54.1329 33.0868 55.2185C34.0388 56.3846 35.237 57.1653 36.5368 57.7779C37.5052 58.2342 38.5203 58.5934 39.5306 58.9509C39.8817 59.0751 40.2322 59.1991 40.5799 59.3269C41.8124 59.7799 43.0049 60.2791 44.02 61.0009Z" fill="#D8AA3F"/>
<path fill-rule="evenodd" clip-rule="evenodd" d="M45.2924 57.3104C42.2946 52.9255 34.554 51.6056 36.0529 42.7688C40.3035 48.9881 40.7734 44.0216 47.9099 50.9345L45.2701 57.3104H45.2924Z" fill="#FEC74A"/>
<path fill-rule="evenodd" clip-rule="evenodd" d="M35.9518 42.3013L36.2019 42.6672C37.2586 44.2132 38.0702 45.0488 38.7977 45.5482C39.5225 46.0456 40.1749 46.2178 40.9454 46.4177L40.9597 46.4214C41.7291 46.6211 42.6036 46.848 43.7308 47.4588C44.8629 48.0724 46.2434 49.0692 48.0357 50.8053L48.123 50.8899L45.4821 57.2684L45.6328 57.4887H45.0035L45.0769 57.3115C44.3492 56.2836 43.3512 55.4211 42.2643 54.5715C41.9781 54.3478 41.6854 54.1248 41.3902 53.8998C40.5353 53.2484 39.6601 52.5815 38.8655 51.8393C37.7925 50.837 36.852 49.6851 36.2773 48.217C35.702 46.7474 35.4984 44.9745 35.8777 42.7383L35.9518 42.3013ZM45.2373 56.924L47.6992 50.978C45.966 49.31 44.6381 48.3576 43.5602 47.7736C42.4715 47.1836 41.6313 46.9655 40.8663 46.767L40.8555 46.7642C40.0851 46.5642 39.377 46.3798 38.5952 45.8433C37.8795 45.3521 37.1116 44.5731 36.1629 43.2374C35.8896 45.2112 36.0997 46.7815 36.6106 48.0865C37.1593 49.4882 38.0603 50.5973 39.1098 51.5777C39.8901 52.3066 40.7444 52.9576 41.5953 53.6059C41.8933 53.833 42.1909 54.0598 42.4847 54.2895C43.5138 55.0939 44.4918 55.9306 45.2373 56.924Z" fill="#D8AA3F"/>
<path fill-rule="evenodd" clip-rule="evenodd" d="M46.6369 54.4467C45.5631 49.2789 38.9187 45.073 43.6839 37.489C45.2499 44.8717 47.5542 40.4421 51.514 49.5697L46.6369 54.4467Z" fill="#FEC74A"/>
<path fill-rule="evenodd" clip-rule="evenodd" d="M43.7642 37.0193L43.8558 37.4513C44.2451 39.2867 44.6769 40.37 45.158 41.1095C45.6373 41.8461 46.1726 42.2534 46.8059 42.7316L46.8169 42.7399C47.4497 43.2177 48.169 43.7606 48.9761 44.7563C49.7864 45.756 50.6806 47.2057 51.675 49.498L51.7235 49.6096L46.526 54.8071L46.4586 54.4826C46.1961 53.2195 45.5916 52.0081 44.8934 50.7708C44.7158 50.4562 44.5319 50.1394 44.3464 49.8199C43.807 48.8909 43.2542 47.9387 42.8046 46.9473C42.1982 45.61 41.7708 44.1845 41.8019 42.6074C41.833 41.0287 42.3232 39.3126 43.5292 37.3933L43.7642 37.0193ZM46.7358 54.0911L51.298 49.5289C50.3322 47.3222 49.4695 45.9335 48.698 44.9817C47.9185 44.02 47.2275 43.4984 46.5984 43.0235L46.5903 43.0173C45.9568 42.5391 45.3749 42.0991 44.858 41.3047C44.3846 40.5772 43.9716 39.5626 43.6022 37.9623C42.5943 39.6803 42.1874 41.2122 42.1598 42.6144C42.1301 44.1203 42.5374 45.4913 43.1306 46.7995C43.5721 47.773 44.1117 48.7025 44.6486 49.6272C44.8358 49.9498 45.0228 50.2718 45.2051 50.5949C45.8493 51.7364 46.4326 52.8868 46.7358 54.0911Z" fill="#D8AA3F"/>
<path fill-rule="evenodd" clip-rule="evenodd" d="M49.766 51.8064C50.3253 46.5267 45.2917 40.5087 52.1374 34.7368C51.3544 42.2313 54.9339 38.7637 55.8958 48.6073L49.7436 51.8064H49.766Z" fill="#FEC74A"/>
<path fill-rule="evenodd" clip-rule="evenodd" d="M52.3633 34.314L52.3171 34.7557C52.1225 36.6186 52.2012 37.7823 52.4334 38.6348C52.6649 39.484 53.0517 40.0382 53.5102 40.6882L53.5213 40.704C53.9786 41.3523 54.4979 42.0884 54.9611 43.2764C55.4273 44.472 55.8341 46.1179 56.0757 48.5901L56.0875 48.7105L49.9369 51.9088L49.9287 51.9856H49.7453L49.6998 51.7995L49.5897 51.7878C49.7265 50.497 49.5219 49.1539 49.2362 47.7597C49.163 47.4027 49.0844 47.0418 49.0051 46.6779C48.7766 45.6294 48.5426 44.5558 48.4182 43.4769C48.25 42.0181 48.2788 40.5308 48.7899 39.0387C49.3014 37.5453 50.2913 36.0609 52.0238 34.6002L52.3633 34.314ZM49.9742 51.4859L55.7075 48.5046C55.4668 46.1224 55.0713 44.5443 54.6276 43.4064C54.1803 42.2591 53.6815 41.552 53.2267 40.9073L53.2177 40.8946C52.759 40.2443 52.3377 39.6448 52.0881 38.7289C51.8597 37.8905 51.7777 36.7986 51.9183 35.1661C50.4367 36.4948 49.5827 37.8287 49.1285 39.1547C48.6405 40.5794 48.6092 42.0088 48.7738 43.4359C48.896 44.4955 49.1243 45.5434 49.3517 46.5869C49.4318 46.9543 49.5117 47.3212 49.5869 47.6879C49.8497 48.9702 50.0521 50.2438 49.9742 51.4859Z" fill="#D8AA3F"/>
<path fill-rule="evenodd" clip-rule="evenodd" d="M52.542 49.6588C55.2266 45.095 53.0789 37.5334 61.692 35.0725C57.9112 41.5827 62.5869 39.86 59.4325 49.2785L52.542 49.6588V49.6588Z" fill="#FEC74A"/>
<path fill-rule="evenodd" clip-rule="evenodd" d="M62.0687 34.7783L61.8458 35.1623C60.9059 36.7806 60.501 37.8717 60.3633 38.742C60.2261 39.6091 60.351 40.2706 60.502 41.0508L60.5052 41.0673C60.656 41.846 60.8274 42.7314 60.7623 44.0099C60.697 45.2951 60.3934 46.9699 59.6012 49.3352L59.5626 49.4504L52.5508 49.8374L52.541 49.6587L52.3867 49.568C53.0428 48.4526 53.4072 47.1476 53.7174 45.7612C53.7981 45.4004 53.8752 45.0334 53.953 44.6633C54.1723 43.6202 54.3969 42.5519 54.7222 41.523C55.1646 40.1236 55.7982 38.7781 56.8744 37.6257C57.9515 36.4723 59.4621 35.5231 61.6418 34.9003L62.0687 34.7783ZM52.8562 49.4621L59.3001 49.1064C60.0564 46.8237 60.3426 45.2153 60.4049 43.9917C60.4677 42.7568 60.303 41.9061 60.1531 41.1318L60.1506 41.1188C59.9996 40.3385 59.8617 39.6214 60.0097 38.6861C60.1452 37.8301 60.5177 36.8031 61.3139 35.3733C59.4172 35.9784 58.0924 36.846 57.136 37.8701C56.1085 38.9703 55.4963 40.2618 55.0635 41.6309C54.7439 42.6415 54.5248 43.684 54.3066 44.7218C54.2281 45.0955 54.1496 45.4686 54.0667 45.8394C53.7806 47.1184 53.4417 48.3634 52.8562 49.4621Z" fill="#D8AA3F"/>
<path fill-rule="evenodd" clip-rule="evenodd" d="M56.5913 50.218C60.5735 46.728 60.9538 38.8979 69.9025 39.3006C64.2424 44.2671 69.2313 44.1329 63.2581 52.0525L56.5913 50.218V50.218Z" fill="#FEC74A"/>
<path fill-rule="evenodd" clip-rule="evenodd" d="M56.5916 50.2182L56.5441 50.3908L63.3281 52.2575L63.4012 52.1605C64.9014 50.1715 65.719 48.6807 66.1872 47.4827C66.6525 46.2925 66.7698 45.3984 66.8729 44.6121L66.8755 44.5927C66.9789 43.8042 67.0699 43.1364 67.4755 42.3576C67.8826 41.5758 68.6138 40.67 70.0208 39.4354L70.3551 39.1421L69.9108 39.1221C67.6462 39.0202 65.9115 39.439 64.5226 40.1885C63.135 40.9374 62.1054 42.0096 61.2402 43.1942C60.5996 44.0714 60.0436 45.0189 59.5007 45.9439C59.3132 46.2636 59.1272 46.5805 58.9398 46.891C58.2057 48.1072 57.4471 49.2305 56.4736 50.0836L56.5916 50.2182ZM59.2463 47.0759C58.5689 48.1982 57.8532 49.2726 56.9515 50.1316L63.1884 51.8479C64.6282 49.926 65.4081 48.4928 65.8539 47.3524C66.3032 46.2028 66.4159 45.3439 66.5185 44.562L66.5205 44.5461C66.624 43.7574 66.7204 43.0326 67.158 42.1922C67.5584 41.4233 68.2385 40.5679 69.4489 39.4663C67.4583 39.4376 65.9258 39.838 64.6926 40.5035C63.3677 41.2186 62.3755 42.2466 61.5293 43.4054C60.9002 44.2667 60.3575 45.1915 59.8171 46.1122C59.6277 46.4349 59.4387 46.7571 59.2463 47.0759Z" fill="#D8AA3F"/>
<path fill-rule="evenodd" clip-rule="evenodd" d="M60.147 52.2538C64.9793 50.1062 67.6415 42.7235 76.0756 45.7437C69.2075 48.831 74.0174 50.1733 65.9636 55.9675L60.147 52.2762V52.2538Z" fill="#FEC74A"/>
<path fill-rule="evenodd" clip-rule="evenodd" d="M60.4978 52.2873L65.9569 55.7517C67.9023 54.3426 69.0721 53.2051 69.8354 52.2484C70.6066 51.2817 70.9679 50.4936 71.297 49.7755L71.3013 49.7662C71.6327 49.0433 71.9379 48.3786 72.603 47.7035C73.2116 47.0855 74.1128 46.4668 75.5936 45.7686C73.6994 45.1549 72.117 45.0869 70.7429 45.3605C69.2667 45.6545 68.0166 46.3457 66.8675 47.2044C66.0165 47.8404 65.229 48.5614 64.4451 49.2791C64.1663 49.5344 63.8879 49.7892 63.6073 50.0396C62.6249 50.9165 61.6196 51.7349 60.4978 52.2873ZM70.673 45.0095C72.2205 44.7013 74.0013 44.8111 76.1357 45.5754L76.5537 45.7251L76.1488 45.9072C74.4415 46.6746 73.4768 47.3264 72.858 47.9546C72.2415 48.5805 71.9581 49.1924 71.6267 49.9153L71.6209 49.928C71.2899 50.6502 70.9138 51.4706 70.1152 52.4716C69.3133 53.4767 68.0906 54.6579 66.0679 56.1131L65.9697 56.1838L59.9678 52.3749V52.1378L60.0741 52.0906C61.2551 51.5657 62.3101 50.7177 63.369 49.7726C63.6421 49.5288 63.9159 49.2782 64.192 49.0253C64.9798 48.3041 65.7867 47.5652 66.6532 46.9177C67.828 46.0398 69.1269 45.3174 70.673 45.0095Z" fill="#D8AA3F"/>
<path fill-rule="evenodd" clip-rule="evenodd" d="M63.1011 55.5206C68.3584 54.8047 72.9894 48.4512 80.2378 53.7309C72.7656 54.76 77.0163 57.3998 67.6649 60.7109L63.1011 55.5206V55.5206Z" fill="#FEC74A"/>
<path fill-rule="evenodd" clip-rule="evenodd" d="M63.0997 55.5202L62.9653 55.6383L67.6091 60.9195L67.7233 60.8791C70.0719 60.0475 71.5754 59.255 72.6256 58.5139C73.6693 57.7774 74.2589 57.0958 74.7776 56.4962L74.7901 56.4818C75.3101 55.8806 75.7536 55.373 76.5216 54.946C77.2926 54.5173 78.4034 54.1635 80.2609 53.9077L80.7007 53.8472L80.3418 53.5858C78.5075 52.2496 76.8286 51.6426 75.256 51.5037C73.6848 51.365 72.2342 51.6948 70.8587 52.2093C69.8436 52.5891 68.8598 53.0737 67.899 53.547C67.5629 53.7125 67.2297 53.8767 66.8989 54.0345C65.6147 54.6471 64.3607 55.1678 63.0756 55.3428L63.0997 55.5202ZM67.053 54.3576C65.8681 54.9228 64.6771 55.4264 63.4489 55.6462L67.7178 60.5011C69.9792 59.6921 71.4196 58.9269 72.4192 58.2214C73.4271 57.5102 73.9934 56.8555 74.5092 56.2593L74.5194 56.2476C75.0396 55.6463 75.5189 55.094 76.3477 54.6332C77.1062 54.2114 78.1468 53.8715 79.7672 53.6184C78.121 52.4945 76.6209 51.9836 75.2245 51.8603C73.7244 51.7278 72.3296 52.0412 70.9841 52.5446C69.9872 52.9175 69.027 53.3905 68.0709 53.8615C67.7316 54.0286 67.3928 54.1955 67.053 54.3576Z" fill="#D8AA3F"/>
<path fill-rule="evenodd" clip-rule="evenodd" d="M81.8034 56.5046L57.7314 57.0416L58.7382 63.5293L81.8034 56.527V56.5046Z" fill="#FEC74A"/>
<path fill-rule="evenodd" clip-rule="evenodd" d="M81.9825 56.3215V56.6596L58.5931 63.7604L57.5234 56.8671L81.9825 56.3215ZM57.9398 57.2158L58.8836 63.2981L80.5817 56.7108L57.9398 57.2158Z" fill="#D8AA3F"/>
<path fill-rule="evenodd" clip-rule="evenodd" d="M78.2689 47.6677L55.9644 56.2361L59.7004 63.395L78.2689 47.6677Z" fill="#FEC74A"/>
<path fill-rule="evenodd" clip-rule="evenodd" d="M78.2038 47.5007L78.3837 47.8044L59.6444 63.6763L55.7119 56.1411L78.2038 47.5007ZM56.2149 56.3313L59.7546 63.1139L77.347 48.2133L56.2149 56.3313Z" fill="#D8AA3F"/>
<path fill-rule="evenodd" clip-rule="evenodd" d="M60.5497 61.046L72.0935 40.0837L54.3975 56.5493L60.5497 61.0236V61.046Z" fill="#FEC74A"/>
<path fill-rule="evenodd" clip-rule="evenodd" d="M71.9727 39.9529L72.2514 40.1702L60.7076 61.1325L60.509 61.0814L60.4456 61.1685L54.1177 56.5664L71.9727 39.9529ZM60.5008 60.7661L71.3995 40.9752L54.6796 56.5325L60.5008 60.7661Z" fill="#D8AA3F"/>
<path fill-rule="evenodd" clip-rule="evenodd" d="M60.3398 59.3104L64.0529 35.7924L52.4876 56.7119L60.3398 59.3104Z" fill="#FEC74A"/>
<path fill-rule="evenodd" clip-rule="evenodd" d="M63.8908 35.7028L64.2363 35.8214L60.4892 59.5552L52.2174 56.8179L63.8908 35.7028ZM52.7583 56.6062L60.191 59.0658L63.7056 36.8044L52.7583 56.6062Z" fill="#D8AA3F"/>
<path fill-rule="evenodd" clip-rule="evenodd" d="M58.9395 57.3991L55.0468 33.7075L50.7515 57.511L58.9395 57.3991V57.3991Z" fill="#FEC74A"/>
<path fill-rule="evenodd" clip-rule="evenodd" d="M54.8706 33.676L55.2233 33.6788L59.116 57.3704L58.9394 57.3994L58.9418 57.5784L50.5366 57.6932L54.8706 33.676ZM58.729 57.2233L55.0384 34.7614L50.966 57.3293L58.729 57.2233Z" fill="#D8AA3F"/>
<path fill-rule="evenodd" clip-rule="evenodd" d="M56.9097 55.3909L45.668 35.6227L49.9844 59.6521L56.9097 55.3909V55.3909Z" fill="#FEC74A"/>
<path fill-rule="evenodd" clip-rule="evenodd" d="M45.4861 35.6562L45.8296 35.5302L57.0713 55.2984L56.9102 55.3909L57.0068 55.5493L49.8505 59.9525L45.4861 35.6562ZM56.6602 55.3269L46.0427 36.6562L50.1194 59.3514L56.6602 55.3269Z" fill="#D8AA3F"/>
<path fill-rule="evenodd" clip-rule="evenodd" d="M55.1805 55.2294L37.7529 40.5088L50.1468 61.5605L55.1805 55.2294V55.2294Z" fill="#FEC74A"/>
<path fill-rule="evenodd" clip-rule="evenodd" d="M37.5991 40.5994L37.8688 40.3718L55.2964 55.0924L55.1809 55.2291L55.321 55.3405L50.1252 61.8756L37.5991 40.5994ZM54.9327 55.2537L38.4408 41.3235L50.1693 61.245L54.9327 55.2537Z" fill="#D8AA3F"/>
<path fill-rule="evenodd" clip-rule="evenodd" d="M31.6459 47.7799L50.3263 63.2164L53.2122 55.1402L31.6235 47.7576L31.6459 47.7799Z" fill="#FEC74A"/>
<path fill-rule="evenodd" clip-rule="evenodd" d="M31.498 47.884L31.6825 47.5881L53.4429 55.0295L50.41 63.5168L31.5264 47.9124L31.498 47.884ZM32.4864 48.2413L50.2447 62.9158L52.9837 55.2508L32.4864 48.2413Z" fill="#D8AA3F"/>
<path fill-rule="evenodd" clip-rule="evenodd" d="M50.1481 56.7956L28.1567 56.4824L50.0586 63.7756L50.1257 56.7956H50.1481Z" fill="#FEC74A"/>
<path fill-rule="evenodd" clip-rule="evenodd" d="M28.1006 56.6517L28.1597 56.303L50.1485 56.6162L50.151 56.6162L50.1498 56.7954L50.3051 56.7969L50.2356 64.0225L28.1006 56.6517ZM49.9455 56.9712L29.3105 56.6774L49.8824 63.5277L49.9455 56.9712Z" fill="#D8AA3F"/>
<path fill-rule="evenodd" clip-rule="evenodd" d="M67.9782 60.7552C68.0514 62.5328 67.7646 64.3068 67.1348 65.9707C66.505 67.6346 65.5454 69.1541 64.3136 70.4377C63.0817 71.7213 61.6031 72.7427 59.9665 73.4404C58.3299 74.1381 56.5692 74.4978 54.7901 74.4978C53.011 74.4978 51.2503 74.1381 49.6137 73.4404C47.9771 72.7427 46.4985 71.7213 45.2667 70.4377C44.0348 69.1541 43.0752 67.6346 42.4454 65.9707C41.8157 64.3068 41.5288 62.5328 41.602 60.7552C41.602 57.2545 42.9926 53.8972 45.468 51.4219C47.9433 48.9465 51.3006 47.5559 54.8013 47.5559C58.302 47.5559 61.6593 48.9465 64.1346 51.4219C66.61 53.8972 68.0006 57.2545 68.0006 60.7552H67.9782Z" fill="#FEC74A"/>
<path fill-rule="evenodd" clip-rule="evenodd" d="M54.802 47.7351C51.3488 47.7351 48.0371 49.1069 45.5953 51.5487C43.1535 53.9905 41.7817 57.3023 41.7817 60.7555V60.7591L41.7816 60.7628C41.7093 62.5163 41.9923 64.2663 42.6136 65.9076C43.2348 67.549 44.1814 69.0478 45.3965 70.314C46.6117 71.5803 48.0703 72.5878 49.6847 73.276C51.299 73.9643 53.0359 74.3191 54.7909 74.3191C56.5458 74.3191 58.2827 73.9643 59.8971 73.276C61.5115 72.5878 62.97 71.5803 64.1852 70.314C65.4003 69.0478 66.347 67.549 66.9682 65.9076C67.5894 64.2663 67.8724 62.5163 67.8001 60.7628L67.7925 60.5765H67.8211C67.7746 57.188 66.4084 53.9483 64.0088 51.5487C61.567 49.1069 58.2553 47.7351 54.802 47.7351ZM68.1642 60.9344H68.1803V60.7555C68.1803 57.2073 66.7708 53.8045 64.2619 51.2956C61.753 48.7867 58.3502 47.3772 54.802 47.3772C51.2539 47.3772 47.8511 48.7867 45.3422 51.2956C42.8341 53.8036 41.4248 57.205 41.4238 60.7518C41.3501 62.5522 41.6409 64.349 42.2788 66.0344C42.9171 67.7208 43.8897 69.2608 45.1383 70.5619C46.3868 71.8629 47.8855 72.8981 49.5443 73.6053C51.203 74.3125 52.9876 74.677 54.7909 74.677C56.5941 74.677 58.3787 74.3125 60.0374 73.6053C61.6962 72.8981 63.1949 71.8629 64.4434 70.5619C65.692 69.2608 66.6646 67.7208 67.3029 66.0344C67.9192 64.406 68.2115 62.6736 68.1642 60.9344Z" fill="#D8AA3F"/>
<path fill-rule="evenodd" clip-rule="evenodd" d="M-35.2007 65.9236H145.249V110.734H-35.2007V65.9236Z" fill="#005989"/>
<path fill-rule="evenodd" clip-rule="evenodd" d="M-35.2899 98.2732C-31.9342 99.8392 -27.1466 103.71 -22.0011 103.71C-13.388 103.665 -13.1643 97.8258 -4.43936 98.1166C4.2856 98.3403 2.71958 104.47 14.5095 104.425C24.2411 104.425 27.3955 96.9756 35.8073 97.8705C42.0266 97.5573 44.577 104.895 54.1521 104.985C64.0627 105.208 67.6869 96.9756 73.9063 97.6692C80.5507 97.6692 82.7207 104.291 92.0273 104.336C103.884 104.403 105.943 97.4454 113.348 97.8929C118.627 97.781 122.788 102.994 130.529 103.105C136.681 103.217 141.849 98.564 145.339 96.8861L145.518 88.9666C141.849 90.3312 136.413 94.7832 130.954 94.8503C123.124 95.1412 118.269 89.7048 112.811 89.7496C106.278 89.8167 103.683 96.4611 92.609 96.4611C82.4746 96.4611 80.148 89.7496 73.6154 89.7496C67.2395 89.7943 65.2932 97.0651 54.2416 96.9085C45.2258 96.819 41.7134 89.9733 35.3151 90.0404C28.5589 90.0404 21.5565 96.6848 14.062 96.3492C3.72631 95.9018 1.48914 90.0404 -5.28948 90.0404C-10.3455 90.0404 -15.8042 95.5438 -21.8893 95.6333C-27.9296 95.7452 -34.753 90.1523 -35.3794 90.0404L-35.2899 98.2732V98.2732ZM-35.2899 82.613C-31.9342 84.179 -27.1466 88.0493 -22.0011 88.0493C-13.388 87.9822 -13.1643 82.1432 -4.43936 82.434C4.2856 82.6578 2.71958 88.7876 14.5095 88.7652C24.2411 88.7429 27.3955 81.3155 35.8073 82.2103C42.0266 81.8747 44.577 89.235 54.1521 89.3245C64.0627 89.5482 67.6869 81.3155 73.9063 81.9866C80.5507 81.9866 82.7207 88.6086 92.0273 88.6757C103.884 88.7205 105.943 81.7853 113.348 82.2103C118.627 82.0985 122.788 87.3111 130.529 87.4453C136.681 87.5572 141.849 82.8815 145.339 81.226L145.518 73.3064C141.849 74.6487 136.413 79.123 130.954 79.1678C123.124 79.4586 118.269 74.0223 112.811 74.067C106.278 74.1341 103.683 80.7785 92.609 80.7785C82.4746 80.7785 80.148 74.067 73.6154 74.067C67.2395 74.1341 65.2932 81.3826 54.2416 81.2483C45.2258 81.1365 41.7134 74.3131 35.3151 74.3802C28.5589 74.3802 21.5565 81.0023 14.062 80.6891C3.72631 80.2416 1.48914 74.3802 -5.28948 74.3802C-10.3455 74.3802 -15.8042 79.8837 -21.8893 79.9732C-27.9296 80.0626 -34.753 74.4921 -35.3794 74.3802L-35.2899 82.613V82.613Z" fill="white"/>
<path fill-rule="evenodd" clip-rule="evenodd" d="M-35.2899 67.1091C-31.9342 68.6751 -27.1466 72.5454 -22.0011 72.5454C-13.4104 72.4783 -13.1867 66.6617 -4.48411 66.9301C4.24085 67.1539 2.67483 73.2837 14.4647 73.2613C24.1964 73.2613 27.3508 65.8116 35.7178 66.7064C41.9595 66.3932 44.4875 73.7311 54.0626 73.8206C63.9509 74.0443 67.5974 65.8116 73.8168 66.5051C80.4388 66.5051 82.6088 73.1271 91.8931 73.1718C103.75 73.2166 105.808 66.2814 113.213 66.7288C118.493 66.6169 122.632 71.8072 130.372 71.9414C136.525 72.0533 141.692 67.3776 145.16 65.7221L145.339 57.8025C141.692 59.1672 136.234 63.6191 130.797 63.6639C122.967 63.9547 118.113 58.5184 112.676 58.5855C106.144 58.6302 103.549 65.297 92.4747 65.297C82.3627 65.297 80.0361 58.5855 73.5259 58.5855C67.15 58.6302 65.1813 65.8787 54.1521 65.7444C45.1363 65.655 41.6239 58.8092 35.248 58.8763C28.4917 58.8763 21.5118 65.4983 14.0173 65.1851C3.68156 64.7377 1.44439 58.8763 -5.31186 58.8763C-10.3679 58.8763 -15.8265 64.3798 -21.9116 64.4693C-27.952 64.5587 -34.753 58.9882 -35.3794 58.8763L-35.3123 67.1091H-35.2899Z" fill="white"/>
<path fill-rule="evenodd" clip-rule="evenodd" d="M29.6782 17.0635C42.788 16.1687 40.3943 15.0501 45.674 14.2C52.3184 15.0948 53.079 19.1217 56.7927 21.605C56.7927 21.605 55.4056 26.303 50.8418 25.6543C50.2378 23.775 53.0566 23.1934 44.9357 18.2269C40.2153 17.9584 31.7812 19.0546 29.6782 17.0635V17.0635ZM70.3276 24.3567L60.8867 24.737V27.086C67.2626 27.2874 68.4036 26.4149 70.3276 24.3567Z" fill="#FFC84B"/>
<path fill-rule="evenodd" clip-rule="evenodd" d="M45.6704 14.0081L45.6983 14.0118C49.066 14.4654 50.9533 15.7172 52.4631 17.1701C52.9638 17.652 53.4268 18.16 53.8851 18.663C54.11 18.9098 54.3338 19.1554 54.5604 19.3961C55.2537 20.1325 55.9862 20.838 56.8973 21.4472L57.0136 21.525L56.974 21.6591L56.7916 21.6053C56.974 21.6591 56.9739 21.6592 56.9739 21.6594L56.9738 21.6597L56.9735 21.6607L56.9726 21.6639L56.969 21.6753C56.966 21.6851 56.9615 21.6992 56.9555 21.7173C56.9436 21.7536 56.9258 21.8058 56.9015 21.8716C56.8531 22.0032 56.779 22.1892 56.6758 22.4098C56.4696 22.8505 56.1454 23.4327 55.6733 23.9954C54.7254 25.1254 53.177 26.1787 50.814 25.8428L50.6961 25.8261L50.6597 25.7128C50.5026 25.224 50.5579 24.812 50.6081 24.4384C50.6109 24.417 50.6138 24.3958 50.6166 24.3747C50.6682 23.9842 50.7039 23.6206 50.5291 23.167C50.3517 22.7069 49.949 22.134 49.0727 21.3613C48.2033 20.5946 46.8794 19.6414 44.8762 18.4144C43.7142 18.3509 42.3269 18.3688 40.8593 18.4022C40.546 18.4094 40.2292 18.4172 39.9102 18.4251C38.7171 18.4547 37.4947 18.485 36.3238 18.4816C34.8403 18.4774 33.4298 18.4194 32.2551 18.2357C31.0895 18.0535 30.1171 17.7422 29.5464 17.2019L29.6771 17.0638L29.6642 16.8741C36.2154 16.4269 38.8778 15.9246 40.5579 15.4328C41.0756 15.2812 41.5064 15.1279 41.9338 14.9759C42.882 14.6385 43.8138 14.307 45.6426 14.0125L45.6704 14.0081ZM30.2042 17.2178C30.7079 17.5131 31.427 17.7213 32.3139 17.86C33.4595 18.0391 34.8469 18.0971 36.3248 18.1013C37.49 18.1046 38.7054 18.0745 39.8979 18.045C40.2176 18.0371 40.5356 18.0292 40.8506 18.022C42.3376 17.9881 43.7568 17.9697 44.9454 18.0373L44.9931 18.04L45.0338 18.0649C47.0683 19.3092 48.4253 20.2833 49.3243 21.0761C50.2223 21.868 50.6754 22.4891 50.8839 23.0302C51.095 23.5777 51.0468 24.0223 50.9936 24.4246C50.9914 24.4414 50.9891 24.4582 50.9869 24.4748C50.941 24.8197 50.9001 25.1269 50.9892 25.4824C53.1211 25.7431 54.5117 24.7883 55.3819 23.751C55.8271 23.2203 56.1348 22.6686 56.3313 22.2486C56.4294 22.039 56.4994 21.863 56.5446 21.7402C56.5524 21.7191 56.5594 21.6996 56.5657 21.6818C55.6757 21.0686 54.955 20.37 54.2835 19.6568C54.0478 19.4064 53.8195 19.1559 53.5925 18.9067C53.1394 18.4094 52.6914 17.9177 52.1994 17.4442C50.7435 16.0431 48.9345 14.8369 45.6753 14.3925C43.8992 14.6802 43.0187 14.994 42.0898 15.3249C41.6571 15.4791 41.2139 15.637 40.6647 15.7978C38.9899 16.2881 36.3911 16.7791 30.2042 17.2178ZM70.7818 24.1484L70.4654 24.4869C69.4994 25.5202 68.7063 26.2829 67.3368 26.749C65.9793 27.2111 64.0705 27.3772 60.8796 27.2764L60.6955 27.2706V24.5547L70.7818 24.1484ZM61.0758 24.92V26.9018C64.1483 26.9902 65.9513 26.8189 67.2143 26.389C68.3444 26.0043 69.0536 25.409 69.8667 24.5658L61.0758 24.92Z" fill="#D8AA3F"/>
<path fill-rule="evenodd" clip-rule="evenodd" d="M37.8427 23.9536C39.4982 23.1035 40.3036 23.4615 41.7354 23.3944C42.7197 25.1841 43.637 25.3407 45.7846 25.5644C46.7353 26.9717 48.0094 28.1307 49.5002 28.9443C50.991 29.7578 52.6551 30.2021 54.353 30.2401C60.7737 30.0611 62.8095 25.5644 67.1272 25.0722H71.691C70.9304 23.7747 70.3487 23.0364 68.6932 22.9693C64.7989 22.7012 60.8862 22.957 57.06 23.7299L51.6908 25.0722C50.1247 24.3116 46.2544 20.2623 43.7935 20.3518C42.3394 20.7321 42.3394 21.2467 41.6235 21.7836C40.2365 22.3876 38.8494 22.0968 37.8203 23.9536H37.8427Z" fill="#FFC84B"/>
<path fill-rule="evenodd" clip-rule="evenodd" d="M51.7125 24.8823L57.0173 23.5561C57.0199 23.5554 57.0226 23.5548 57.0253 23.5543C60.8664 22.7784 64.7943 22.5215 68.7038 22.7903C69.5584 22.8254 70.1563 23.0352 70.6397 23.4189C71.1161 23.7971 71.4661 24.3331 71.8462 24.9815C71.8786 25.0368 71.879 25.1053 71.8471 25.161C71.8152 25.2166 71.7559 25.251 71.6918 25.251H67.1382C65.3209 25.461 63.9212 26.3955 62.3674 27.4329C62.1252 27.5946 61.8792 27.7589 61.6273 27.9233C59.7647 29.1387 57.6173 30.3279 54.3587 30.4188C54.3557 30.4188 54.3527 30.4189 54.3497 30.4188C52.6232 30.3802 50.9311 29.9284 49.4152 29.1011C47.9238 28.2873 46.6457 27.1334 45.6842 25.7335C44.6588 25.6259 43.8849 25.5266 43.2486 25.2285C42.606 24.9274 42.1186 24.4325 41.6335 23.5774C41.2764 23.5895 40.963 23.5782 40.6688 23.5676C39.7998 23.5362 39.0971 23.5108 37.9252 24.1126C37.8999 24.1256 37.8719 24.1324 37.8434 24.1324H37.8211C37.7577 24.1324 37.699 24.0989 37.6669 24.0443C37.6347 23.9896 37.6338 23.9221 37.6645 23.8667C38.2023 22.8963 38.8427 22.4783 39.5275 22.2303C39.8149 22.1263 40.111 22.0519 40.4016 21.9789C40.4497 21.9669 40.4977 21.9548 40.5455 21.9427C40.8788 21.858 41.2072 21.7677 41.5335 21.6276C41.6928 21.5063 41.8148 21.3856 41.9312 21.2632C41.9567 21.2365 41.9823 21.2091 42.0082 21.1815C42.1026 21.0809 42.201 20.9759 42.3129 20.8755C42.6091 20.6098 42.9997 20.3744 43.749 20.1784C43.7617 20.1751 43.7747 20.1732 43.7878 20.1727C44.4491 20.1487 45.1856 20.4016 45.9284 20.7854C46.6746 21.171 47.4472 21.6993 48.1854 22.2495C48.6981 22.6316 49.1987 23.0277 49.6638 23.3956C49.8677 23.557 50.0648 23.7129 50.2531 23.8599C50.8466 24.3232 51.3457 24.6919 51.7125 24.8823ZM43.8202 20.5298C43.1286 20.713 42.796 20.9231 42.5519 21.142C42.4527 21.231 42.3679 21.3213 42.2754 21.42C42.248 21.4492 42.2199 21.4791 42.1905 21.51C42.0642 21.6428 41.9221 21.7837 41.7316 21.9265C41.7205 21.9349 41.7085 21.9419 41.6957 21.9475C41.3348 22.1046 40.9761 22.2026 40.6336 22.2896C40.584 22.3022 40.5349 22.3146 40.4861 22.3268C40.1947 22.4 39.9182 22.4695 39.6494 22.5669C39.165 22.7422 38.7089 23.007 38.2963 23.548C39.2659 23.1558 39.9687 23.1813 40.7323 23.209C41.0463 23.2203 41.3705 23.2321 41.7277 23.2153C41.7959 23.2121 41.86 23.248 41.8929 23.3079C42.374 24.1826 42.8253 24.6349 43.4004 24.9043C43.9888 25.18 44.7228 25.2736 45.8039 25.3862C45.8566 25.3916 45.9041 25.4201 45.9337 25.464C46.8683 26.8476 48.121 27.9871 49.5867 28.7869C51.0511 29.586 52.6855 30.0228 54.3532 30.0608C57.5128 29.9717 59.5926 28.8236 61.4316 27.6235C61.6776 27.463 61.92 27.3009 62.1607 27.14C63.7124 26.1024 65.1928 25.1125 67.1077 24.8942C67.1118 24.8937 67.116 24.8934 67.1201 24.8932C67.1227 24.8931 67.1254 24.893 67.128 24.893H71.3766C71.0626 24.378 70.7756 23.9837 70.4172 23.6993C70.0062 23.3731 69.4862 23.1803 68.6867 23.1479C68.6851 23.1478 68.6834 23.1477 68.6817 23.1476C64.8047 22.8807 60.9094 23.1352 57.1001 23.9043L51.7349 25.2456C51.6942 25.2558 51.6511 25.2513 51.6133 25.233C51.2016 25.033 50.6509 24.6246 50.0328 24.142C49.841 23.9923 49.6418 23.8347 49.4368 23.6725C48.9735 23.3059 48.48 22.9154 47.9715 22.5365C47.2388 21.9905 46.4845 21.4757 45.764 21.1034C45.0483 20.7336 44.3852 20.5147 43.8202 20.5298Z" fill="#D8AA3F"/>
<path fill-rule="evenodd" clip-rule="evenodd" d="M44.3316 21.9851C44.3316 22.1631 44.2608 22.3338 44.135 22.4597C44.0091 22.5856 43.8384 22.6563 43.6604 22.6563C43.4824 22.6563 43.3117 22.5856 43.1858 22.4597C43.06 22.3338 42.9893 22.1631 42.9893 21.9851C42.9893 21.8071 43.06 21.6364 43.1858 21.5105C43.3117 21.3847 43.4824 21.314 43.6604 21.314C43.8384 21.314 44.0091 21.3847 44.135 21.5105C44.2608 21.6364 44.3316 21.8071 44.3316 21.9851V21.9851Z" fill="#FFC84B"/>
<path fill-rule="evenodd" clip-rule="evenodd" d="M43.6592 21.4934C43.5287 21.4934 43.4035 21.5453 43.3112 21.6376C43.2189 21.7299 43.167 21.8551 43.167 21.9856C43.167 22.1162 43.2189 22.2413 43.3112 22.3336C43.4035 22.4259 43.5287 22.4778 43.6592 22.4778C43.7897 22.4778 43.9149 22.4259 44.0072 22.3336C44.0995 22.2413 44.1514 22.1162 44.1514 21.9856C44.1514 21.8551 44.0995 21.7299 44.0072 21.6376C43.9149 21.5453 43.7897 21.4934 43.6592 21.4934ZM43.0581 21.3845C43.2175 21.2251 43.4337 21.1355 43.6592 21.1355C43.8847 21.1355 44.1009 21.2251 44.2603 21.3845C44.4198 21.5439 44.5093 21.7602 44.5093 21.9856C44.5093 22.2111 44.4198 22.4273 44.2603 22.5868C44.1009 22.7462 43.8847 22.8357 43.6592 22.8357C43.4337 22.8357 43.2175 22.7462 43.0581 22.5868C42.8986 22.4273 42.8091 22.2111 42.8091 21.9856C42.8091 21.7602 42.8986 21.5439 43.0581 21.3845Z" fill="#D8AA3F"/>
<path fill-rule="evenodd" clip-rule="evenodd" d="M48.7381 23.9087C58.3803 12.2754 66.8144 13.6849 77.8213 12.9019C78.1792 14.2442 78.045 16.2576 72.81 18.0473C65.6511 19.1212 52.7874 26.6828 52.7426 26.6828C50.3489 26.571 48.671 24.0653 48.7157 23.9087H48.7381Z" fill="#FFC84B"/>
<path fill-rule="evenodd" clip-rule="evenodd" d="M77.9647 12.7017L78.0052 12.8535C78.1932 13.5583 78.2551 14.462 77.5676 15.4184C76.8902 16.3609 75.503 17.3283 72.8717 18.2279L72.8555 18.2335L72.8384 18.236C69.2917 18.768 64.3104 20.9137 60.1926 22.939C58.1377 23.9498 56.3044 24.9271 54.9819 25.6519C54.3207 26.0143 53.7873 26.3134 53.4178 26.522C53.2979 26.5897 53.1955 26.6477 53.1114 26.6954C53.0657 26.7212 53.0254 26.7441 52.9905 26.7638C52.9413 26.7916 52.9029 26.8133 52.8762 26.828C52.863 26.8353 52.8517 26.8415 52.8431 26.8461C52.839 26.8483 52.8338 26.851 52.8286 26.8534C52.8263 26.8545 52.8215 26.8568 52.8156 26.8592C52.8124 26.8605 52.8046 26.8633 52.7997 26.8649C52.791 26.8674 52.7627 26.8726 52.7428 26.8736H52.7384L52.7339 26.8734C51.4737 26.8145 50.4148 26.1275 49.6858 25.4527C49.3196 25.1138 49.0311 24.7731 48.8359 24.5051C48.7385 24.3714 48.6626 24.2534 48.6115 24.1609C48.5862 24.1152 48.5648 24.0718 48.5501 24.0336C48.5428 24.0147 48.5354 23.9926 48.5305 23.9694C48.527 23.9522 48.5187 23.9076 48.5331 23.8571L48.5725 23.7192H48.649C53.4719 17.9232 58.0074 15.3587 62.721 14.1528C66.1383 13.2787 69.6537 13.12 73.4169 12.9501C74.8423 12.8858 76.3033 12.8199 77.808 12.7128L77.9647 12.7017ZM48.9384 23.966C48.9403 23.9696 48.9423 23.9732 48.9444 23.9769C48.9858 24.0519 49.0523 24.1562 49.1433 24.2812C49.325 24.5305 49.5972 24.8526 49.9441 25.1736C50.6307 25.809 51.5887 26.4217 52.7003 26.4907C52.725 26.4769 52.7593 26.4576 52.8033 26.4327C52.8375 26.4134 52.8774 26.3908 52.9228 26.3651C53.0072 26.3173 53.1105 26.2587 53.2308 26.1908C53.6013 25.9817 54.1362 25.6817 54.7991 25.3184C56.1249 24.5918 57.9634 23.6117 60.0248 22.5978C64.1333 20.577 69.1539 18.4086 72.7649 17.8625C75.3578 16.974 76.6511 16.0419 77.2588 15.1965C77.8109 14.4283 77.8116 13.7103 77.6751 13.1034C76.2026 13.2056 74.7801 13.2698 73.3972 13.3323C69.6494 13.5014 66.1919 13.6575 62.8153 14.5213C58.1855 15.7057 53.7162 18.2231 48.9384 23.966Z" fill="#D8AA3F"/>
<path fill-rule="evenodd" clip-rule="evenodd" d="M68.3692 16.3168C68.3738 16.2119 68.4626 16.1306 68.5676 16.1352L75.6818 16.4484C75.7867 16.453 75.868 16.5418 75.8634 16.6467C75.8588 16.7517 75.77 16.833 75.665 16.8284L68.5508 16.5151C68.4459 16.5105 68.3646 16.4217 68.3692 16.3168ZM67.609 17.473C67.6176 17.3683 67.7094 17.2904 67.8141 17.299L73.0043 17.724C73.109 17.7326 73.1869 17.8244 73.1783 17.9291C73.1697 18.0338 73.0779 18.1117 72.9733 18.1031L67.783 17.678C67.6784 17.6695 67.6005 17.5776 67.609 17.473Z" fill="#D9A43E"/>
</g>
<defs>
<clipPath id="clip0_5158_360233">
<rect x="0.285156" y="0.746826" width="110" height="110" rx="55" fill="white"/>
</clipPath>
</defs>
</svg>
