<svg width="111" height="111" viewBox="0 0 111 111" fill="none" xmlns="http://www.w3.org/2000/svg">
<g clip-path="url(#clip0_5158_352664)">
<path d="M132.737 0.13916H-21.2632V110.139H132.737V0.13916Z" fill="#244AA5"/>
<path d="M56.5691 34.9968C57.2144 35.7503 57.6453 36.5001 57.6453 37.415C57.1044 37.6826 56.3564 37.7908 55.9256 38.2748C58.6114 37.899 59.1468 41.012 62.1553 39.8313C62.2634 40.2621 62.6961 40.638 63.2296 40.4766L63.5523 39.6186C64.7311 39.296 64.4084 41.2283 65.7028 40.8525C66.3481 41.3896 65.9173 42.3008 66.3481 42.948C66.3481 43.6996 66.6708 44.3431 66.9916 44.9866C67.3143 44.6145 67.5269 44.0755 68.2804 44.2368C68.8158 44.8271 69.2466 45.3643 69.3548 46.0078C69.1366 47.2453 68.8158 48.3178 70.1028 48.9613V49.339C70.9663 49.7148 72.8986 48.9613 72.8986 50.4665C72.7886 51.0036 73.4339 50.5215 73.6521 50.8423C74.1874 50.6278 74.9409 50.736 75.5844 50.736C76.1198 51.8635 74.9409 52.6683 74.6183 53.6895C75.1536 54.2248 74.9409 55.1946 74.8309 55.8345L74.5101 55.9958C75.3663 56.1571 76.4424 55.8931 77.1959 56.3753L78.5929 56.9106C79.2364 56.5366 79.9863 56.4798 80.8479 56.5366C81.4914 57.0206 80.6298 57.8255 81.1706 58.1995C81.9241 58.1995 82.5676 58.3095 82.6721 58.953L82.7803 59.1656C83.3156 58.1995 84.8226 58.843 85.4661 58.1481C86.5423 58.1481 86.7549 59.327 87.2903 59.9723C87.5084 61.6388 85.4661 62.3923 86.1114 64.0551C85.6806 64.86 84.8226 65.5053 84.1791 66.2588C84.3918 66.367 84.2818 66.6328 84.2818 66.7923C83.6383 67.1736 84.1791 68.3011 83.3156 68.4038C83.2129 69.106 81.9241 68.8346 82.3494 69.5881C83.2111 70.7156 81.9241 71.4123 81.9241 72.4353C81.3833 73.0275 80.3071 71.8945 80.3071 73.0275C79.6636 73.1888 79.0183 72.4353 78.5929 73.0806C78.3748 73.8341 79.0183 74.0981 78.9156 74.8516C79.9863 74.7416 80.3071 75.8178 80.7398 76.4631L81.8141 77.5375C80.7398 78.3955 79.3409 77.4293 78.0521 77.9115C77.7294 77.7501 78.0521 77.3248 77.7294 77.1635C77.4086 76.784 76.7633 76.784 76.2298 76.6813C76.3324 77.1635 75.3663 77.3248 75.7971 77.9115C75.7971 78.0728 76.0098 78.555 75.5844 78.555C74.7228 78.8263 74.8309 77.8088 74.0774 78.181C73.1113 78.555 73.8648 80.0051 72.4678 79.8438C72.6804 81.1381 70.3228 81.9961 71.9324 83.1236C72.1451 83.3363 72.0351 83.7671 72.0351 84.0898C71.0689 84.9515 69.3548 84.6306 68.2804 84.308C67.4169 84.0898 67.9578 83.0136 67.6351 82.427C67.3143 81.8861 66.3463 81.5121 66.3463 80.7586C65.7028 80.4946 65.1619 80.3278 64.7311 79.7925C63.2296 81.2426 61.4018 82.6396 59.2549 82.691C58.2888 83.175 57.7479 85.1128 56.2464 84.308C55.6579 85.2741 53.8833 84.308 53.7769 85.6995C53.0766 85.9708 53.3993 86.8838 52.9703 87.311C52.8108 88.3853 52.9703 89.3001 53.8833 89.9455C54.2591 90.7503 53.0766 90.7503 53.5606 91.5038C53.6706 91.7678 53.5606 92.1473 53.3993 92.2573C53.0766 92.4186 52.9703 92.58 53.0766 92.9008C52.8108 92.9008 52.7008 93.0621 52.4881 93.2748C52.2168 93.8101 51.3606 94.0796 50.7684 94.4536C50.1781 94.615 49.7473 94.1896 49.3733 93.8101C49.2633 94.4023 48.7811 94.725 48.1908 94.725C47.3309 94.725 47.4923 93.9715 46.8488 93.6488C47.1146 92.6826 46.2548 92.2573 46.5261 91.3938C47.2246 90.8585 48.4034 90.479 48.0808 89.3515C47.3309 88.444 47.5986 87.0983 46.8488 86.0221C46.3648 85.5968 45.5599 84.9515 45.8276 83.9285C46.5261 83.1236 45.8276 82.1575 45.4499 81.2995C45.2886 80.5973 44.8614 79.9538 44.8614 79.149C43.6789 78.4523 43.6239 76.6226 41.9593 76.4631C40.7768 76.4631 40.5641 74.9616 39.3816 75.0643C39.2734 74.8516 39.0058 74.6903 38.7894 74.4776C37.9333 75.0643 36.8571 74.3163 35.7846 74.5821C35.0861 73.4015 36.3731 71.7918 34.4939 71.0896V70.3416C34.7084 70.4461 34.8148 70.2335 34.8698 70.1235C34.9761 69.3186 33.5259 69.2141 34.1199 68.2993C33.7973 68.0298 33.4196 67.9198 33.6359 67.3863C32.8274 65.7235 30.4129 65.8848 29.8739 64.2165C30.3048 63.8425 30.3048 63.463 30.4661 63.1403C30.0903 62.4968 29.9839 61.8001 30.0903 61.1053C30.4661 60.9953 30.6788 60.5113 30.8951 60.1318C30.4129 59.811 29.8226 59.327 29.2854 59.4883C28.3174 59.327 27.6189 58.579 26.7591 58.1481C26.5446 57.9355 26.6528 57.556 26.6528 57.2901C27.8353 56.9106 26.4914 55.246 27.9416 55.4623C28.3193 54.9783 29.1241 54.817 29.7126 54.4411C30.3066 54.3348 30.7888 54.5511 31.3791 54.7106C31.8613 55.3523 32.7211 55.0846 33.2051 55.6236C33.6873 55.5136 34.2794 55.246 34.8698 55.5136C34.8698 54.6025 35.2988 54.0635 35.9459 53.42C36.0523 53.046 36.6408 52.7765 37.1248 52.562C38.0396 52.7765 39.1121 52.7765 39.7593 52.1311C40.1883 52.4025 40.5641 51.8635 41.0481 51.8635C41.6366 51.7553 42.1206 51.9148 42.5514 52.1861C42.6028 51.11 44.4838 52.0248 44.8614 50.736C45.2904 49.8761 43.6789 49.5553 43.7853 48.8018C43.5176 47.9401 44.1629 47.513 44.4838 46.9226C44.8614 46.7613 45.2886 46.5468 45.7726 46.6531C47.0101 46.2241 46.0421 43.6996 48.0294 44.6145C48.0294 44.8803 47.9213 45.203 48.0826 45.258C48.7811 45.258 48.8874 44.4513 49.3733 44.1818C49.5859 43.432 49.1038 42.5171 49.7473 41.9268C50.0699 41.8736 50.3394 41.7673 50.5521 41.496C50.5521 40.9056 50.2313 40.5848 49.7473 40.2071C49.5859 40.4766 49.1569 40.2621 48.8874 40.3685C48.8874 39.725 48.5134 39.296 48.4034 38.7038C48.0826 38.5425 47.9213 38.2748 48.0294 37.899C48.5134 37.415 48.0294 36.2325 49.1569 36.502C49.5859 36.1261 50.3394 36.3938 50.7684 35.7503C51.8959 35.105 53.3993 35.105 54.2591 33.9243C54.6368 33.9775 55.0658 33.6016 55.4416 33.9243C55.5479 34.6228 56.5691 34.3515 56.5691 34.9968" fill="#D0A650"/>
<path fill-rule="evenodd" clip-rule="evenodd" d="M66.7867 27.3691L62.8029 24.5677L58.8209 27.3709L60.3536 22.8536L56.3569 20.0669L61.2886 20.0779L62.8011 15.5532L64.3172 20.0761L69.2471 20.0651L65.2522 22.8517L66.7867 27.3691ZM32.7771 27.5229L36.7609 30.3242L35.2264 25.8069L39.2212 23.0202L34.2914 23.0312L32.7752 18.5084L31.2627 23.0331L26.3311 23.0221L30.3277 25.8087L28.7951 30.3261L32.7771 27.5229ZM19.3493 31.8196L23.3332 34.621L21.7987 30.1036L25.7935 27.317L20.8637 27.328L19.3475 22.8051L17.835 27.3298L12.9033 27.3188L16.9 30.1055L15.3673 34.6228L19.3493 31.8196ZM77.3027 27.5229L81.2865 30.3242L79.752 25.8069L83.7469 23.0202L78.817 23.0312L77.3009 18.5084L75.7884 23.0331L70.8567 23.0221L74.8534 25.8087L73.3207 30.3261L77.3027 27.5229ZM51.0457 27.3691L47.0618 24.5677L43.0798 27.3709L44.6125 22.8536L40.6158 20.0669L45.5475 20.0779L47.06 15.5532L48.5762 20.0761L53.506 20.0651L49.5112 22.8517L51.0457 27.3691ZM92.1253 31.8196L96.1092 34.621L94.5747 30.1036L98.5695 27.317L93.6396 27.328L92.1235 22.8051L90.611 27.3298L85.6793 27.3188L89.676 30.1055L88.1433 34.6228L92.1253 31.8196Z" fill="white"/>
</g>
<defs>
<clipPath id="clip0_5158_352664">
<rect x="0.736328" y="0.13916" width="110" height="110" rx="55" fill="white"/>
</clipPath>
</defs>
</svg>
