<svg width="111" height="111" viewBox="0 0 111 111" fill="none" xmlns="http://www.w3.org/2000/svg">
<g clip-path="url(#clip0_5158_359977)">
<path fill-rule="evenodd" clip-rule="evenodd" d="M-26.5635 0.238037H138.438V110.244H-26.5635V0.238037Z" fill="#CE1126"/>
<path fill-rule="evenodd" clip-rule="evenodd" d="M-26.5635 27.5571H138.438V82.9095H-26.5635V27.5571Z" fill="#002868"/>
<path fill-rule="evenodd" clip-rule="evenodd" d="M79.6403 55.233C79.6403 61.5193 77.1431 67.5481 72.698 71.9932C68.2529 76.4382 62.2241 78.9355 55.9378 78.9355C49.6515 78.9355 43.6227 76.4382 39.1776 71.9932C34.7326 67.5481 32.2354 61.5193 32.2354 55.233C32.2354 48.9467 34.7326 42.9179 39.1776 38.4728C43.6227 34.0277 49.6515 31.5305 55.9378 31.5305C62.2241 31.5305 68.2529 34.0277 72.698 38.4728C77.1431 42.9179 79.6403 48.9467 79.6403 55.233V55.233Z" fill="white"/>
</g>
<defs>
<clipPath id="clip0_5158_359977">
<rect x="0.936279" y="0.238037" width="110" height="110" rx="55" fill="white"/>
</clipPath>
</defs>
</svg>
