<svg width="111" height="111" viewBox="0 0 111 111" fill="none" xmlns="http://www.w3.org/2000/svg">
<g clip-path="url(#clip0_5158_359794)">
<path d="M-54.5483 0.235352H165.452V110.235H-54.5483V0.235352Z" fill="#239E46"/>
<path d="M-54.5483 0.235352H165.452V82.7354H-54.5483V0.235352Z" fill="black"/>
<path d="M-54.5483 0.235352H165.452V27.7354H-54.5483V0.235352Z" fill="#E70013"/>
<path d="M65.1755 45.5106C63.3893 44.2359 61.2864 43.4779 59.0976 43.3197C56.9089 43.1615 54.7188 43.6093 52.7678 44.6139C50.8168 45.6185 49.1802 47.141 48.0375 49.0146C46.8949 50.8881 46.2905 53.0402 46.2905 55.2346C46.2905 57.4291 46.8949 59.5812 48.0375 61.4547C49.1802 63.3282 50.8168 64.8508 52.7678 65.8554C54.7188 66.86 56.9089 67.3077 59.0976 67.1495C61.2864 66.9914 63.3893 66.2333 65.1755 64.9586C63.2524 66.8812 60.8024 68.1904 58.1353 68.7207C55.4681 69.2509 52.7036 68.9784 50.1914 67.9376C47.6791 66.8968 45.5319 65.1344 44.0211 62.8733C42.5104 60.6122 41.7041 57.954 41.7041 55.2346C41.7041 52.5153 42.5104 49.857 44.0211 47.5959C45.5319 45.3348 47.6791 43.5724 50.1914 42.5316C52.7036 41.4908 55.4681 41.2183 58.1353 41.7486C60.8024 42.2788 63.2524 43.588 65.1755 45.5106M62.1395 55.2346L80.6415 49.2286L69.2015 64.9586V45.5106L80.6415 61.2406L62.1395 55.2346Z" fill="white"/>
</g>
<defs>
<clipPath id="clip0_5158_359794">
<rect x="0.45166" y="0.238037" width="110" height="110" rx="55" fill="white"/>
</clipPath>
</defs>
</svg>
