<svg width="111" height="111" viewBox="0 0 111 111" fill="none" xmlns="http://www.w3.org/2000/svg">
<g clip-path="url(#clip0_5158_359813)">
<path d="M0.363281 0.516602H110.363V110.517H0.363281V0.516602Z" fill="white"/>
<path d="M0.363281 77.5164H110.363V110.516H0.363281V77.5164Z" fill="#009543"/>
<path d="M0.363281 0.516602H110.363V33.5166H0.363281V0.516602Z" fill="#00209F"/>
<path d="M55.707 35.5574C55.0625 35.5574 54.4609 36.2664 54.4609 36.2664L54.5254 43.6785L52.1621 46.1492H54.0957L54.0527 50.3816L42.8379 65.5066L41.1836 64.9265L38.2832 71.114C38.2832 71.114 45.459 75.6042 55.8574 75.4753C67.2871 75.3249 73.4746 70.8992 73.4746 70.8992L70.4883 64.7976L69.0273 65.4421L57.6406 50.4031V46.0203H59.5313L56.9531 43.5925L56.9746 36.2019C56.9746 36.2019 56.3301 35.5574 55.707 35.5574V35.5574Z" fill="black"/>
<path fill-rule="evenodd" clip-rule="evenodd" d="M54.7312 35.7672C54.9714 35.5829 55.3233 35.375 55.7072 35.375C56.0747 35.375 56.4295 35.5618 56.6767 35.7285C56.8035 35.814 56.9093 35.8992 56.9835 35.9631C57.0206 35.9951 57.0501 36.0219 57.0706 36.0411C57.0808 36.0507 57.0888 36.0583 57.0944 36.0637L57.101 36.0702L57.1029 36.0721L57.1037 36.0729C57.1038 36.0729 57.1039 36.073 56.9747 36.2021L57.1039 36.073L57.1576 36.1267L57.1361 43.5141L59.9917 46.2031H57.8234V50.342L69.0859 65.217L70.5753 64.5599L73.7067 70.958L73.581 71.0479L73.4747 70.8994C73.581 71.0479 73.5809 71.048 73.5808 71.0481L73.5805 71.0483L73.5794 71.0491L73.5755 71.0519C73.5721 71.0542 73.5672 71.0576 73.5609 71.0621C73.5481 71.0709 73.5294 71.0838 73.5046 71.1005C73.4551 71.134 73.3815 71.1825 73.2843 71.2442C73.0897 71.3674 72.8001 71.5428 72.4174 71.7533C71.6518 72.1744 70.5134 72.736 69.0169 73.3019C66.0236 74.4338 61.5983 75.5827 55.86 75.6582C50.6341 75.723 46.2186 74.6271 43.1095 73.5152C41.5548 72.9592 40.3261 72.3989 39.4852 71.9771C39.0647 71.7662 38.741 71.5898 38.522 71.4659C38.4125 71.4039 38.3292 71.355 38.2729 71.3215C38.2448 71.3047 38.2235 71.2918 38.209 71.283L38.1925 71.2728L38.1882 71.2701L38.1867 71.2692C38.1865 71.2691 38.1865 71.2691 38.2833 71.1143L38.1865 71.2691L38.0493 71.1832L41.0884 64.6998L42.7715 65.29L53.8709 50.3207L53.9114 46.332H51.7349L54.3423 43.6061L54.2779 36.2003L54.3218 36.1484L54.4611 36.2666C54.3218 36.1484 54.3218 36.1485 54.3218 36.1484L54.322 36.1483L54.3222 36.148L54.3228 36.1474L54.3246 36.1452L54.3308 36.1381C54.3361 36.1321 54.3437 36.1236 54.3533 36.113C54.3727 36.0918 54.4006 36.0621 54.436 36.0267C54.5066 35.9561 54.6079 35.8619 54.7312 35.7672ZM54.6443 36.3364L54.7088 43.7513L52.5896 45.9668H54.2803L54.2349 50.443L42.9046 65.7237L41.279 65.1537L38.5187 71.0425C38.5673 71.071 38.6284 71.1064 38.7019 71.148C38.916 71.2691 39.2342 71.4426 39.6489 71.6506C40.4784 72.0667 41.6935 72.6209 43.2325 73.1713C46.311 74.2723 50.6826 75.3571 55.8552 75.293C61.5465 75.2181 65.9298 74.0789 68.8877 72.9603C70.3668 72.401 71.4896 71.8468 72.2414 71.4333C72.6172 71.2265 72.9003 71.055 73.0888 70.9356C73.1493 70.8973 73.2001 70.8643 73.241 70.8373L70.4015 65.0358L68.9691 65.6678L57.4581 50.4647V45.8379H59.0711L56.7704 43.6714L56.7919 36.281C56.7785 36.269 56.7629 36.2551 56.7451 36.2398C56.679 36.1828 56.5847 36.1069 56.4725 36.0313C56.2416 35.8757 55.9626 35.7402 55.7072 35.7402C55.4465 35.7402 55.1753 35.8868 54.9536 36.057C54.846 36.1396 54.7566 36.2226 54.6943 36.285C54.6748 36.3044 54.658 36.3218 54.6443 36.3364Z" fill="black"/>
<path fill-rule="evenodd" clip-rule="evenodd" d="M59.3388 39.085C58.5228 38.3027 57.3473 37.8806 55.6142 37.9101L55.6095 37.9102L55.6047 37.9102C54.1868 37.9197 53.0185 38.359 52.1514 39.1977C51.2785 40.042 50.6241 41.3752 50.4047 43.3277C50.2014 45.2102 50.739 47.5795 51.3784 49.5588C51.6928 50.5321 52.0215 51.3803 52.2714 51.9847C52.3379 52.1455 52.3987 52.2888 52.452 52.4122H59.0299C59.0871 52.2825 59.1529 52.1305 59.2251 51.9591C59.4842 51.3431 59.8236 50.4797 60.1441 49.4908C60.7971 47.4761 61.3236 45.0832 61.0542 43.207L61.054 43.2057C60.7677 41.1911 60.1736 39.8854 59.3388 39.085ZM59.6162 53.3253V54.2384H51.283L51.0355 53.7168L51.8603 53.3253C51.0355 53.7168 51.0354 53.7167 51.0353 53.7165L51.0324 53.7103L51.0253 53.6953C51.0193 53.6824 51.0107 53.664 50.9997 53.6402C50.9778 53.5925 50.9462 53.5235 50.9066 53.4348C50.8274 53.2576 50.7158 53.0018 50.5838 52.6826C50.3202 52.0449 49.9734 51.1502 49.6406 50.1201C48.9858 48.0932 48.3419 45.4145 48.5893 43.1294L48.5895 43.1276L48.5897 43.1258C48.8431 40.8683 49.6281 39.0976 50.8818 37.885C52.1405 36.6676 53.7849 36.0971 55.5878 36.0841C57.6338 36.0501 59.3356 36.552 60.6026 37.7668C61.8517 38.9643 62.5466 40.7306 62.8619 42.9481C63.1939 45.2612 62.5495 47.992 61.8813 50.0538C61.5411 51.1033 61.1822 52.0163 60.9083 52.6673C60.7712 52.9932 60.6549 53.2546 60.5722 53.4358C60.5309 53.5264 60.4979 53.597 60.475 53.6457C60.4635 53.6701 60.4545 53.689 60.4482 53.7022L60.4407 53.7176L60.4377 53.7239C60.4376 53.7241 60.4375 53.7243 59.6162 53.3253Z" fill="black"/>
<path d="M42.1504 67.4619C42.0215 67.6338 41.0762 69.4814 41.0762 69.4814L42.6875 69.1377L42.1504 67.4619V67.4619ZM43.0742 69.8682L41.377 70.4268L43.418 71.2217L43.0742 69.8682ZM43.8477 67.5049L44.6855 69.9971L46.748 69.3955L46.2109 68.2139L43.8477 67.5049ZM45.1367 70.8779L45.4375 71.8877L48.1875 72.5752L47.1133 70.2549L45.1582 70.8994L45.1367 70.8779ZM48.1875 68.7725L49.1543 71.0928L51.2383 70.2978L50.5508 69.2666L48.1875 68.7725ZM49.541 71.9307L49.8848 72.833L53.1074 73.2842L51.7324 71.1787L49.541 71.9307ZM52.6348 69.4385L53.8164 71.5225L56.8242 70.4268L56.4805 69.6104L52.6133 69.4385H52.6348ZM54.3535 72.2744L54.998 73.3701L58.7148 73.2412L57.3184 71.1787L54.3535 72.2744ZM58.2852 69.5244L59.3164 71.2432L61.6797 70.126L61.0352 69.2021L58.2852 69.5244ZM62.1738 70.835L59.8105 72.0166L60.4551 73.0479L63.6133 72.5322L62.1738 70.835V70.835ZM62.9473 69.0303L64.1719 70.5342L66.1484 68.9873L65.4824 68.2568L62.9473 69.0303V69.0303ZM66.5781 69.8252L64.666 71.2646L65.1816 72.1455L67.8027 71.4795L66.5781 69.8252ZM69.1992 66.8174L69.6719 67.5049L68.3613 69.4385L67.0078 67.7197L69.1992 66.8174V66.8174ZM70.0801 68.5146L70.8965 70.126L69.2852 70.6631L69.1563 69.9111L70.0801 68.5146Z" fill="white"/>
</g>
<defs>
<clipPath id="clip0_5158_359813">
<rect x="0.363281" y="0.516602" width="110" height="110" rx="55" fill="white"/>
</clipPath>
</defs>
</svg>
