<svg width="111" height="111" viewBox="0 0 111 111" fill="none" xmlns="http://www.w3.org/2000/svg">
<g clip-path="url(#clip0_5158_359866)">
<path d="M0.867188 0.238037H110.889V55.238H0.867188V0.238037Z" fill="#002B7F"/>
<path d="M0.867676 55.2378H110.889V110.238H0.867676V55.2378Z" fill="#CE1126"/>
<path d="M33.2356 24.8073L32.8873 36.2656H21.264C19.834 33.4789 18.6606 31.1322 18.6606 27.9239C18.6606 25.2473 20.769 23.1206 23.794 23.1206C27.0023 23.1206 30.5406 24.2023 33.2356 24.8073V24.8073Z" fill="#FFD83D"/>
<path d="M20.0566 25.3395V31.9395ZM20.9733 24.6612V33.4611ZM21.9266 24.2029V34.6895ZM22.8433 23.9829V32.2145ZM23.7783 23.9462V32.2512ZM24.7133 23.6345V32.2512ZM25.6483 23.6345V32.2512ZM26.5833 23.7262V32.3428ZM27.5183 23.8179V32.4162ZM28.4533 24.3495V32.9662ZM29.3699 24.4412V34.1395ZM30.3233 24.4412V33.0578ZM31.2399 24.4412V33.0578Z" fill="#FFD83D"/>
<path fill-rule="evenodd" clip-rule="evenodd" d="M24.7136 23.4973C24.7895 23.4973 24.8511 23.5589 24.8511 23.6348V32.2514C24.8511 32.3274 24.7895 32.3889 24.7136 32.3889C24.6376 32.3889 24.5761 32.3274 24.5761 32.2514V23.6348C24.5761 23.5589 24.6376 23.4973 24.7136 23.4973ZM25.6486 23.4973C25.7245 23.4973 25.7861 23.5589 25.7861 23.6348V32.2514C25.7861 32.3274 25.7245 32.3889 25.6486 32.3889C25.5726 32.3889 25.5111 32.3274 25.5111 32.2514V23.6348C25.5111 23.5589 25.5726 23.4973 25.6486 23.4973ZM26.5836 23.589C26.6595 23.589 26.7211 23.6505 26.7211 23.7265V32.3431C26.7211 32.4191 26.6595 32.4806 26.5836 32.4806C26.5076 32.4806 26.4461 32.4191 26.4461 32.3431V23.7265C26.4461 23.6505 26.5076 23.589 26.5836 23.589ZM27.5186 23.6806C27.5945 23.6806 27.6561 23.7422 27.6561 23.8181V32.4164C27.6561 32.4924 27.5945 32.5539 27.5186 32.5539C27.4426 32.5539 27.3811 32.4924 27.3811 32.4164V23.8181C27.3811 23.7422 27.4426 23.6806 27.5186 23.6806ZM23.7786 23.809C23.8545 23.809 23.9161 23.8705 23.9161 23.9465V32.2514C23.9161 32.3274 23.8545 32.3889 23.7786 32.3889C23.7026 32.3889 23.6411 32.3274 23.6411 32.2514V23.9465C23.6411 23.8705 23.7026 23.809 23.7786 23.809ZM22.8436 23.8456C22.9195 23.8456 22.9811 23.9072 22.9811 23.9831V32.2148C22.9811 32.2907 22.9195 32.3523 22.8436 32.3523C22.7676 32.3523 22.7061 32.2907 22.7061 32.2148V23.9831C22.7061 23.9072 22.7676 23.8456 22.8436 23.8456ZM21.9269 24.0656C22.0029 24.0656 22.0644 24.1272 22.0644 24.2031V34.6898C22.0644 34.7657 22.0029 34.8273 21.9269 34.8273C21.851 34.8273 21.7894 34.7657 21.7894 34.6898V24.2031C21.7894 24.1272 21.851 24.0656 21.9269 24.0656ZM28.4536 24.2123C28.5295 24.2123 28.5911 24.2739 28.5911 24.3498V32.9664C28.5911 33.0424 28.5295 33.1039 28.4536 33.1039C28.3776 33.1039 28.3161 33.0424 28.3161 32.9664V24.3498C28.3161 24.2739 28.3776 24.2123 28.4536 24.2123ZM29.3702 24.304C29.4462 24.304 29.5077 24.3655 29.5077 24.4415V34.1398C29.5077 34.2157 29.4462 34.2773 29.3702 34.2773C29.2943 34.2773 29.2327 34.2157 29.2327 34.1398V24.4415C29.2327 24.3655 29.2943 24.304 29.3702 24.304ZM30.3236 24.304C30.3995 24.304 30.4611 24.3655 30.4611 24.4415V33.0581C30.4611 33.1341 30.3995 33.1956 30.3236 33.1956C30.2476 33.1956 30.1861 33.1341 30.1861 33.0581V24.4415C30.1861 24.3655 30.2476 24.304 30.3236 24.304ZM31.2402 24.304C31.3162 24.304 31.3777 24.3655 31.3777 24.4415V33.0581C31.3777 33.1341 31.3162 33.1956 31.2402 33.1956C31.1643 33.1956 31.1027 33.1341 31.1027 33.0581V24.4415C31.1027 24.3655 31.1643 24.304 31.2402 24.304ZM20.9736 24.524C21.0495 24.524 21.1111 24.5855 21.1111 24.6615V33.4614C21.1111 33.5374 21.0495 33.5989 20.9736 33.5989C20.8977 33.5989 20.8361 33.5374 20.8361 33.4614V24.6615C20.8361 24.5855 20.8977 24.524 20.9736 24.524ZM20.0569 25.2023C20.1329 25.2023 20.1944 25.2639 20.1944 25.3398V31.9398C20.1944 32.0157 20.1329 32.0773 20.0569 32.0773C19.981 32.0773 19.9194 32.0157 19.9194 31.9398V25.3398C19.9194 25.2639 19.981 25.2023 20.0569 25.2023Z" fill="black"/>
<path d="M25.9044 24.02C27.8844 24.3317 32.2111 26.3667 31.7161 29.0983C31.0194 32.985 28.7461 31.4267 25.7394 30.8767L23.4661 31.6283C22.6411 32.4533 21.4495 33.2233 20.6428 32.215H19.2861V37.495H34.2094V24.7533L25.9044 24.02Z" fill="black"/>
<path fill-rule="evenodd" clip-rule="evenodd" d="M25.7668 24.0036C25.7758 23.93 25.8415 23.8768 25.9154 23.8834L34.2203 24.6167C34.2913 24.623 34.3457 24.6824 34.3457 24.7537V37.4953C34.3457 37.5712 34.2842 37.6328 34.2082 37.6328H19.285C19.209 37.6328 19.1475 37.5712 19.1475 37.4953V32.2153C19.1475 32.1393 19.209 32.0778 19.285 32.0778H20.6416C20.6834 32.0778 20.7229 32.0968 20.749 32.1294C20.9341 32.3607 21.1344 32.4825 21.3389 32.5313C21.5453 32.5804 21.7686 32.5582 22.0024 32.4792C22.474 32.3198 22.96 31.9391 23.3677 31.5314C23.3829 31.5162 23.4014 31.5048 23.4218 31.4981L25.6951 30.7464C25.717 30.7392 25.7403 30.7376 25.763 30.7417C26.3466 30.8484 26.9042 30.9932 27.4228 31.1279C27.5775 31.168 27.7287 31.2073 27.8761 31.2443C28.5237 31.4072 29.0946 31.5273 29.5892 31.5141C30.0769 31.5011 30.4813 31.3588 30.8085 31.0008C31.1411 30.6367 31.4074 30.0351 31.5796 29.0744L31.5796 29.0741C31.8117 27.7931 30.9168 26.6476 29.6582 25.7645C28.4073 24.8869 26.8502 24.3086 25.8819 24.1561C25.8087 24.1446 25.7578 24.0771 25.7668 24.0036ZM27.4003 24.2905C28.1914 24.5824 29.0583 25.0077 29.8162 25.5394C31.0922 26.4347 32.113 27.6723 31.8503 29.1229C31.6741 30.1055 31.3949 30.7666 31.0115 31.1863C30.6225 31.612 30.14 31.7745 29.5965 31.789C29.0598 31.8033 28.4552 31.6736 27.809 31.511C27.6577 31.473 27.5039 31.433 27.3476 31.3925C26.8409 31.261 26.308 31.1226 25.748 31.0186L23.5389 31.749C23.1256 32.1585 22.6127 32.5632 22.0904 32.7397C21.8223 32.8303 21.5449 32.863 21.2752 32.7988C21.0212 32.7383 20.7851 32.5943 20.5771 32.3528H19.4225V37.3578H34.0707V24.8795L27.4003 24.2905Z" fill="black"/>
<path d="M32.577 24.001C33.0732 24.001 33.4754 23.5988 33.4754 23.1027C33.4754 22.6065 33.0732 22.2043 32.577 22.2043C32.0809 22.2043 31.6787 22.6065 31.6787 23.1027C31.6787 23.5988 32.0809 24.001 32.577 24.001Z" fill="#FFD83D"/>
<path fill-rule="evenodd" clip-rule="evenodd" d="M32.5778 22.3877C32.1829 22.3877 31.8628 22.7078 31.8628 23.1027C31.8628 23.4975 32.1829 23.8177 32.5778 23.8177C32.9726 23.8177 33.2928 23.4975 33.2928 23.1027C33.2928 22.7078 32.9726 22.3877 32.5778 22.3877ZM31.4961 23.1027C31.4961 22.5053 31.9804 22.021 32.5778 22.021C33.1751 22.021 33.6594 22.5053 33.6594 23.1027C33.6594 23.7 33.1751 24.1843 32.5778 24.1843C31.9804 24.1843 31.4961 23.7 31.4961 23.1027Z" fill="black"/>
<path d="M30.5414 23.5061C31.0375 23.5061 31.4397 23.1039 31.4397 22.6078C31.4397 22.1117 31.0375 21.7095 30.5414 21.7095C30.0453 21.7095 29.6431 22.1117 29.6431 22.6078C29.6431 23.1039 30.0453 23.5061 30.5414 23.5061Z" fill="#FFD83D"/>
<path fill-rule="evenodd" clip-rule="evenodd" d="M30.5421 21.893C30.1472 21.893 29.8271 22.2131 29.8271 22.608C29.8271 23.0029 30.1472 23.323 30.5421 23.323C30.937 23.323 31.2571 23.0029 31.2571 22.608C31.2571 22.2131 30.937 21.893 30.5421 21.893ZM29.4604 22.608C29.4604 22.0106 29.9447 21.5264 30.5421 21.5264C31.1395 21.5264 31.6238 22.0106 31.6238 22.608C31.6238 23.2054 31.1395 23.6897 30.5421 23.6897C29.9447 23.6897 29.4604 23.2054 29.4604 22.608Z" fill="black"/>
<path d="M28.4706 22.9932C28.9667 22.9932 29.3689 22.591 29.3689 22.0949C29.3689 21.5987 28.9667 21.1965 28.4706 21.1965C27.9745 21.1965 27.5723 21.5987 27.5723 22.0949C27.5723 22.591 27.9745 22.9932 28.4706 22.9932Z" fill="#FFD83D"/>
<path fill-rule="evenodd" clip-rule="evenodd" d="M28.4689 21.3791C28.074 21.3791 27.7539 21.6992 27.7539 22.0941C27.7539 22.489 28.074 22.8091 28.4689 22.8091C28.8638 22.8091 29.1839 22.489 29.1839 22.0941C29.1839 21.6992 28.8638 21.3791 28.4689 21.3791ZM27.3872 22.0941C27.3872 21.4967 27.8715 21.0125 28.4689 21.0125C29.0663 21.0125 29.5505 21.4967 29.5505 22.0941C29.5505 22.6915 29.0663 23.1758 28.4689 23.1758C27.8715 23.1758 27.3872 22.6915 27.3872 22.0941Z" fill="black"/>
<path d="M26.3978 22.6443C26.894 22.6443 27.2962 22.2421 27.2962 21.746C27.2962 21.2499 26.894 20.8477 26.3978 20.8477C25.9017 20.8477 25.4995 21.2499 25.4995 21.746C25.4995 22.2421 25.9017 22.6443 26.3978 22.6443Z" fill="#FFD83D"/>
<path fill-rule="evenodd" clip-rule="evenodd" d="M26.3986 21.031C26.0037 21.031 25.6836 21.3511 25.6836 21.746C25.6836 22.1409 26.0037 22.461 26.3986 22.461C26.7934 22.461 27.1136 22.1409 27.1136 21.746C27.1136 21.3511 26.7934 21.031 26.3986 21.031ZM25.3169 21.746C25.3169 21.1486 25.8012 20.6643 26.3986 20.6643C26.9959 20.6643 27.4802 21.1486 27.4802 21.746C27.4802 22.3434 26.9959 22.8276 26.3986 22.8276C25.8012 22.8276 25.3169 22.3434 25.3169 21.746Z" fill="black"/>
<path d="M24.327 22.4429C24.8232 22.4429 25.2254 22.0407 25.2254 21.5446C25.2254 21.0484 24.8232 20.6462 24.327 20.6462C23.8309 20.6462 23.4287 21.0484 23.4287 21.5446C23.4287 22.0407 23.8309 22.4429 24.327 22.4429Z" fill="#FFD83D"/>
<path fill-rule="evenodd" clip-rule="evenodd" d="M24.3278 20.8293C23.9329 20.8293 23.6128 21.1494 23.6128 21.5443C23.6128 21.9392 23.9329 22.2593 24.3278 22.2593C24.7226 22.2593 25.0428 21.9392 25.0428 21.5443C25.0428 21.1494 24.7226 20.8293 24.3278 20.8293ZM23.2461 21.5443C23.2461 20.9469 23.7304 20.4626 24.3278 20.4626C24.9251 20.4626 25.4094 20.9469 25.4094 21.5443C25.4094 22.1417 24.9251 22.626 24.3278 22.626C23.7304 22.626 23.2461 22.1417 23.2461 21.5443Z" fill="black"/>
<path d="M22.309 22.5528C22.8051 22.5528 23.2073 22.1506 23.2073 21.6544C23.2073 21.1583 22.8051 20.7561 22.309 20.7561C21.8128 20.7561 21.4106 21.1583 21.4106 21.6544C21.4106 22.1506 21.8128 22.5528 22.309 22.5528Z" fill="#FFD83D"/>
<path fill-rule="evenodd" clip-rule="evenodd" d="M22.3102 20.9397C21.9153 20.9397 21.5952 21.2598 21.5952 21.6547C21.5952 22.0495 21.9153 22.3697 22.3102 22.3697C22.7051 22.3697 23.0252 22.0495 23.0252 21.6547C23.0252 21.2598 22.7051 20.9397 22.3102 20.9397ZM21.2285 21.6547C21.2285 21.0573 21.7128 20.573 22.3102 20.573C22.9076 20.573 23.3918 21.0573 23.3918 21.6547C23.3918 22.252 22.9076 22.7363 22.3102 22.7363C21.7128 22.7363 21.2285 22.252 21.2285 21.6547Z" fill="black"/>
<path d="M20.3676 23.2132C20.8637 23.2132 21.2659 22.811 21.2659 22.3148C21.2659 21.8187 20.8637 21.4165 20.3676 21.4165C19.8714 21.4165 19.4692 21.8187 19.4692 22.3148C19.4692 22.811 19.8714 23.2132 20.3676 23.2132Z" fill="#FFD83D"/>
<path fill-rule="evenodd" clip-rule="evenodd" d="M20.3683 21.5993C19.9734 21.5993 19.6533 21.9194 19.6533 22.3143C19.6533 22.7092 19.9734 23.0293 20.3683 23.0293C20.7632 23.0293 21.0833 22.7092 21.0833 22.3143C21.0833 21.9194 20.7632 21.5993 20.3683 21.5993ZM19.2866 22.3143C19.2866 21.7169 19.7709 21.2327 20.3683 21.2327C20.9657 21.2327 21.4499 21.7169 21.4499 22.3143C21.4499 22.9117 20.9657 23.396 20.3683 23.396C19.7709 23.396 19.2866 22.9117 19.2866 22.3143Z" fill="black"/>
<path d="M18.7352 24.4226C19.2314 24.4226 19.6336 24.0204 19.6336 23.5243C19.6336 23.0282 19.2314 22.626 18.7352 22.626C18.2391 22.626 17.8369 23.0282 17.8369 23.5243C17.8369 24.0204 18.2391 24.4226 18.7352 24.4226Z" fill="#FFD83D"/>
<path fill-rule="evenodd" clip-rule="evenodd" d="M18.7355 22.8093C18.3406 22.8093 18.0205 23.1294 18.0205 23.5243C18.0205 23.9192 18.3406 24.2393 18.7355 24.2393C19.1304 24.2393 19.4505 23.9192 19.4505 23.5243C19.4505 23.1294 19.1304 22.8093 18.7355 22.8093ZM17.6538 23.5243C17.6538 22.9269 18.1381 22.4426 18.7355 22.4426C19.3329 22.4426 19.8171 22.9269 19.8171 23.5243C19.8171 24.1217 19.3329 24.606 18.7355 24.606C18.1381 24.606 17.6538 24.1217 17.6538 23.5243Z" fill="black"/>
<path d="M17.5809 26.0911C18.0771 26.0911 18.4793 25.6889 18.4793 25.1928C18.4793 24.6966 18.0771 24.2944 17.5809 24.2944C17.0848 24.2944 16.6826 24.6966 16.6826 25.1928C16.6826 25.6889 17.0848 26.0911 17.5809 26.0911Z" fill="#FFD83D"/>
<path fill-rule="evenodd" clip-rule="evenodd" d="M17.5792 24.478C17.1843 24.478 16.8642 24.7981 16.8642 25.193C16.8642 25.5879 17.1843 25.908 17.5792 25.908C17.9741 25.908 18.2942 25.5879 18.2942 25.193C18.2942 24.7981 17.9741 24.478 17.5792 24.478ZM16.4976 25.193C16.4976 24.5956 16.9818 24.1113 17.5792 24.1113C18.1766 24.1113 18.6609 24.5956 18.6609 25.193C18.6609 25.7904 18.1766 26.2747 17.5792 26.2747C16.9818 26.2747 16.4976 25.7904 16.4976 25.193Z" fill="black"/>
<path d="M17.0116 28.0711C17.5077 28.0711 17.9099 27.6689 17.9099 27.1727C17.9099 26.6766 17.5077 26.2744 17.0116 26.2744C16.5155 26.2744 16.1133 26.6766 16.1133 27.1727C16.1133 27.6689 16.5155 28.0711 17.0116 28.0711Z" fill="#FFD83D"/>
<path fill-rule="evenodd" clip-rule="evenodd" d="M17.0123 26.4577C16.6174 26.4577 16.2973 26.7778 16.2973 27.1727C16.2973 27.5676 16.6174 27.8877 17.0123 27.8877C17.4072 27.8877 17.7273 27.5676 17.7273 27.1727C17.7273 26.7778 17.4072 26.4577 17.0123 26.4577ZM15.9307 27.1727C15.9307 26.5753 16.4149 26.0911 17.0123 26.0911C17.6097 26.0911 18.094 26.5753 18.094 27.1727C18.094 27.7701 17.6097 28.2544 17.0123 28.2544C16.4149 28.2544 15.9307 27.7701 15.9307 27.1727Z" fill="black"/>
<path d="M17.0302 30.1055C17.5263 30.1055 17.9285 29.7033 17.9285 29.2072C17.9285 28.711 17.5263 28.3088 17.0302 28.3088C16.534 28.3088 16.1318 28.711 16.1318 29.2072C16.1318 29.7033 16.534 30.1055 17.0302 30.1055Z" fill="#FFD83D"/>
<path fill-rule="evenodd" clip-rule="evenodd" d="M17.0304 28.4929C16.6355 28.4929 16.3154 28.813 16.3154 29.2079C16.3154 29.6028 16.6355 29.9229 17.0304 29.9229C17.4253 29.9229 17.7454 29.6028 17.7454 29.2079C17.7454 28.813 17.4253 28.4929 17.0304 28.4929ZM15.9487 29.2079C15.9487 28.6105 16.433 28.1262 17.0304 28.1262C17.6278 28.1262 18.1121 28.6105 18.1121 29.2079C18.1121 29.8053 17.6278 30.2895 17.0304 30.2895C16.433 30.2895 15.9487 29.8053 15.9487 29.2079Z" fill="black"/>
<path d="M17.4349 32.1048C17.9311 32.1048 18.3333 31.7026 18.3333 31.2064C18.3333 30.7103 17.9311 30.3081 17.4349 30.3081C16.9388 30.3081 16.5366 30.7103 16.5366 31.2064C16.5366 31.7026 16.9388 32.1048 17.4349 32.1048Z" fill="#FFD83D"/>
<path fill-rule="evenodd" clip-rule="evenodd" d="M17.4327 30.4914C17.0379 30.4914 16.7177 30.8115 16.7177 31.2064C16.7177 31.6013 17.0379 31.9214 17.4327 31.9214C17.8276 31.9214 18.1477 31.6013 18.1477 31.2064C18.1477 30.8115 17.8276 30.4914 17.4327 30.4914ZM16.3511 31.2064C16.3511 30.609 16.8353 30.1248 17.4327 30.1248C18.0301 30.1248 18.5144 30.609 18.5144 31.2064C18.5144 31.8038 18.0301 32.2881 17.4327 32.2881C16.8353 32.2881 16.3511 31.8038 16.3511 31.2064Z" fill="black"/>
<path d="M32.9809 24.2943L32.8892 25.486C30.6342 25.1193 27.4442 23.8727 24.4559 23.8727C21.7059 23.8727 19.5793 24.9727 19.5793 27.7593C19.5793 30.491 20.7343 32.9843 22.2743 35.5143L20.6793 36.2476C19.2493 33.4976 18.0576 31.1143 18.0576 27.9243C18.0576 25.2477 20.1659 22.6077 23.7959 22.6077C27.0042 22.6077 30.2859 23.7077 32.9809 24.2943V24.2943Z" fill="#FFD83D"/>
<path fill-rule="evenodd" clip-rule="evenodd" d="M23.7942 22.7912C20.2679 22.7912 18.2392 25.3467 18.2392 27.9245C18.2392 31.0056 19.3658 33.3231 20.7597 36.0083L22.0093 35.4337C20.5177 32.9554 19.3942 30.4789 19.3942 27.7595C19.3942 26.3127 19.95 25.2828 20.8783 24.6219C21.7968 23.9678 23.0592 23.6896 24.4542 23.6896C25.9714 23.6896 27.5337 24.0058 28.9897 24.364C29.4394 24.4747 29.8776 24.5889 30.3012 24.6994C31.1785 24.9281 31.9936 25.1406 32.7201 25.2715L32.7842 24.4393C32.1537 24.2988 31.4933 24.1326 30.8134 23.9613L30.7915 23.9558C30.0612 23.7718 29.3078 23.582 28.5392 23.4101C26.986 23.063 25.3787 22.7912 23.7942 22.7912ZM32.9792 24.2946L33.0182 24.1154C32.3478 23.9695 31.6404 23.7915 30.903 23.6057L30.879 23.5997C30.15 23.416 29.3927 23.2252 28.6192 23.0523C27.0557 22.7028 25.4181 22.4246 23.7942 22.4246C20.0606 22.4246 17.8726 25.149 17.8726 27.9245C17.8726 31.1643 19.0857 33.5839 20.5149 36.3324C20.56 36.4192 20.6653 36.4553 20.7541 36.4144L22.3491 35.6811C22.3967 35.6592 22.4326 35.6181 22.4479 35.5681C22.4632 35.518 22.4563 35.4639 22.4291 35.4192C20.8936 32.8964 19.7609 30.4391 19.7609 27.7595C19.7609 26.4197 20.2684 25.5063 21.091 24.9206C21.9233 24.3279 23.0992 24.0562 24.4542 24.0562C25.9253 24.0562 27.4522 24.3633 28.902 24.7201C29.338 24.8273 29.7684 24.9395 30.1882 25.049C31.1548 25.3009 32.0654 25.5383 32.8581 25.6672C32.9087 25.6754 32.9605 25.662 33.0008 25.6303C33.0412 25.5986 33.0664 25.5514 33.0703 25.5003L33.162 24.3086L32.9792 24.2946Z" fill="black"/>
<path d="M35.2878 24.8073L35.6362 36.2656H47.2595C48.6895 33.4789 49.8628 31.1322 49.8628 27.9239C49.8628 25.2473 47.7545 23.1206 44.7295 23.1206C41.5212 23.1206 37.9828 24.2023 35.2878 24.8073V24.8073Z" fill="#FFD83D"/>
<path d="M48.4697 25.3402V31.9402ZM47.5531 24.6619V33.4619ZM46.5997 24.2036V34.6902ZM45.6831 23.9836V32.2152ZM44.7481 23.9469V32.2519ZM43.8131 23.6353V32.2519ZM42.8781 23.6353V32.2519ZM41.9431 23.7269V32.3436ZM41.0081 23.8186V32.4169ZM40.0731 24.3503V32.9669ZM39.1564 24.4419V34.1402ZM38.2031 24.4419V33.0586ZM37.2864 24.4419V33.0586Z" fill="#FFD83D"/>
<path fill-rule="evenodd" clip-rule="evenodd" d="M43.8123 23.4973C43.7364 23.4973 43.6748 23.5589 43.6748 23.6348V32.2514C43.6748 32.3274 43.7364 32.3889 43.8123 32.3889C43.8882 32.3889 43.9498 32.3274 43.9498 32.2514V23.6348C43.9498 23.5589 43.8882 23.4973 43.8123 23.4973ZM42.8773 23.4973C42.8014 23.4973 42.7398 23.5589 42.7398 23.6348V32.2514C42.7398 32.3274 42.8014 32.3889 42.8773 32.3889C42.9532 32.3889 43.0148 32.3274 43.0148 32.2514V23.6348C43.0148 23.5589 42.9532 23.4973 42.8773 23.4973ZM41.9423 23.589C41.8664 23.589 41.8048 23.6505 41.8048 23.7265V32.3431C41.8048 32.4191 41.8664 32.4806 41.9423 32.4806C42.0182 32.4806 42.0798 32.4191 42.0798 32.3431V23.7265C42.0798 23.6505 42.0182 23.589 41.9423 23.589ZM41.0073 23.6806C40.9314 23.6806 40.8698 23.7422 40.8698 23.8181V32.4164C40.8698 32.4924 40.9314 32.5539 41.0073 32.5539C41.0832 32.5539 41.1448 32.4924 41.1448 32.4164V23.8181C41.1448 23.7422 41.0832 23.6806 41.0073 23.6806ZM44.7473 23.809C44.6714 23.809 44.6098 23.8705 44.6098 23.9465V32.2514C44.6098 32.3274 44.6714 32.3889 44.7473 32.3889C44.8232 32.3889 44.8848 32.3274 44.8848 32.2514V23.9465C44.8848 23.8705 44.8232 23.809 44.7473 23.809ZM45.6823 23.8456C45.6064 23.8456 45.5448 23.9072 45.5448 23.9831V32.2148C45.5448 32.2907 45.6064 32.3523 45.6823 32.3523C45.7582 32.3523 45.8198 32.2907 45.8198 32.2148V23.9831C45.8198 23.9072 45.7582 23.8456 45.6823 23.8456ZM46.599 24.0656C46.523 24.0656 46.4615 24.1272 46.4615 24.2031V34.6898C46.4615 34.7657 46.523 34.8273 46.599 34.8273C46.6749 34.8273 46.7365 34.7657 46.7365 34.6898V24.2031C46.7365 24.1272 46.6749 24.0656 46.599 24.0656ZM40.0723 24.2123C39.9964 24.2123 39.9348 24.2739 39.9348 24.3498V32.9664C39.9348 33.0424 39.9964 33.1039 40.0723 33.1039C40.1483 33.1039 40.2098 33.0424 40.2098 32.9664V24.3498C40.2098 24.2739 40.1483 24.2123 40.0723 24.2123ZM39.1556 24.304C39.0797 24.304 39.0181 24.3655 39.0181 24.4415V34.1398C39.0181 34.2157 39.0797 34.2773 39.1556 34.2773C39.2316 34.2773 39.2931 34.2157 39.2931 34.1398V24.4415C39.2931 24.3655 39.2316 24.304 39.1556 24.304ZM38.2023 24.304C38.1264 24.304 38.0648 24.3655 38.0648 24.4415V33.0581C38.0648 33.1341 38.1264 33.1956 38.2023 33.1956C38.2783 33.1956 38.3398 33.1341 38.3398 33.0581V24.4415C38.3398 24.3655 38.2783 24.304 38.2023 24.304ZM37.2857 24.304C37.2097 24.304 37.1482 24.3655 37.1482 24.4415V33.0581C37.1482 33.1341 37.2097 33.1956 37.2857 33.1956C37.3616 33.1956 37.4232 33.1341 37.4232 33.0581V24.4415C37.4232 24.3655 37.3616 24.304 37.2857 24.304ZM47.5523 24.524C47.4763 24.524 47.4148 24.5855 47.4148 24.6615V33.4614C47.4148 33.5374 47.4763 33.5989 47.5523 33.5989C47.6282 33.5989 47.6898 33.5374 47.6898 33.4614V24.6615C47.6898 24.5855 47.6282 24.524 47.5523 24.524ZM48.4689 25.2023C48.393 25.2023 48.3314 25.2639 48.3314 25.3398V31.9398C48.3314 32.0157 48.393 32.0773 48.4689 32.0773C48.5449 32.0773 48.6064 32.0157 48.6064 31.9398V25.3398C48.6064 25.2639 48.5449 25.2023 48.4689 25.2023Z" fill="black"/>
<path d="M42.6214 24.02C40.6414 24.3317 36.3148 26.3667 36.8098 29.0983C37.5065 32.985 39.7798 31.4267 42.7864 30.8767L45.0598 31.6283C45.8848 32.4533 47.0764 33.2233 47.8831 32.215H49.2397V37.495H34.3165V24.7533L42.6214 24.02Z" fill="black"/>
<path fill-rule="evenodd" clip-rule="evenodd" d="M42.7571 24.0033C42.7481 23.9298 42.6824 23.8766 42.6086 23.8831L34.3036 24.6164C34.2326 24.6227 34.1782 24.6822 34.1782 24.7534V37.495C34.1782 37.571 34.2398 37.6325 34.3157 37.6325H49.239C49.3149 37.6325 49.3765 37.571 49.3765 37.495V32.215C49.3765 32.1391 49.3149 32.0775 49.239 32.0775H47.8823C47.8405 32.0775 47.801 32.0965 47.7749 32.1291C47.5899 32.3605 47.3895 32.4823 47.185 32.531C46.9786 32.5802 46.7553 32.5579 46.5215 32.4789C46.0499 32.3196 45.5639 31.9388 45.1562 31.5312C45.141 31.516 45.1225 31.5046 45.1021 31.4978L42.8288 30.7462C42.8069 30.7389 42.7836 30.7373 42.7609 30.7415C42.1774 30.8482 41.6197 30.993 41.1011 31.1276C40.9464 31.1678 40.7952 31.207 40.6478 31.2441C40.0003 31.407 39.4293 31.527 38.9348 31.5138C38.447 31.5008 38.0426 31.3586 37.7155 31.0005C37.3828 30.6364 37.1166 30.0348 36.9444 29.0741L36.9443 29.0739C36.7122 27.7929 37.6072 26.6473 38.8657 25.7643C40.1166 24.8866 41.6737 24.3083 42.642 24.1559C42.7153 24.1444 42.7662 24.0769 42.7571 24.0033ZM41.1237 24.2903C40.3325 24.5822 39.4656 25.0074 38.7077 25.5392C37.4318 26.4344 36.411 27.6721 36.6737 29.1226C36.8498 30.1053 37.129 30.7664 37.5125 31.186C37.9014 31.6117 38.3839 31.7743 38.9274 31.7887C39.4641 31.8031 40.0688 31.6733 40.7149 31.5108C40.8662 31.4727 41.02 31.4328 41.1764 31.3922C41.683 31.2607 42.2159 31.1224 42.7759 31.0183L44.985 31.7487C45.3984 32.1582 45.9112 32.563 46.4335 32.7395C46.7016 32.8301 46.979 32.8628 47.2487 32.7985C47.5027 32.738 47.7388 32.5941 47.9468 32.3525H49.1015V37.3575H34.4532V24.8793L41.1237 24.2903Z" fill="black"/>
<path d="M35.9479 24.001C35.4517 24.001 35.0495 23.5988 35.0495 23.1027C35.0495 22.6065 35.4517 22.2043 35.9479 22.2043C36.444 22.2043 36.8462 22.6065 36.8462 23.1027C36.8462 23.5988 36.444 24.001 35.9479 24.001Z" fill="#FFD83D"/>
<path fill-rule="evenodd" clip-rule="evenodd" d="M35.9467 22.3877C36.3415 22.3877 36.6617 22.7078 36.6617 23.1027C36.6617 23.4975 36.3415 23.8177 35.9467 23.8177C35.5518 23.8177 35.2317 23.4975 35.2317 23.1027C35.2317 22.7078 35.5518 22.3877 35.9467 22.3877ZM37.0283 23.1027C37.0283 22.5053 36.544 22.021 35.9467 22.021C35.3493 22.021 34.865 22.5053 34.865 23.1027C34.865 23.7 35.3493 24.1843 35.9467 24.1843C36.544 24.1843 37.0283 23.7 37.0283 23.1027Z" fill="black"/>
<path d="M37.9816 23.5061C37.4854 23.5061 37.0832 23.1039 37.0832 22.6078C37.0832 22.1117 37.4854 21.7095 37.9816 21.7095C38.4777 21.7095 38.8799 22.1117 38.8799 22.6078C38.8799 23.1039 38.4777 23.5061 37.9816 23.5061Z" fill="#FFD83D"/>
<path fill-rule="evenodd" clip-rule="evenodd" d="M37.9804 21.893C38.3752 21.893 38.6953 22.2131 38.6953 22.608C38.6953 23.0029 38.3752 23.323 37.9804 23.323C37.5855 23.323 37.2654 23.0029 37.2654 22.608C37.2654 22.2131 37.5855 21.893 37.9804 21.893ZM39.062 22.608C39.062 22.0106 38.5777 21.5264 37.9804 21.5264C37.383 21.5264 36.8987 22.0106 36.8987 22.608C36.8987 23.2054 37.383 23.6897 37.9804 23.6897C38.5777 23.6897 39.062 23.2054 39.062 22.608Z" fill="black"/>
<path d="M40.0524 22.9932C39.5562 22.9932 39.154 22.591 39.154 22.0949C39.154 21.5987 39.5562 21.1965 40.0524 21.1965C40.5485 21.1965 40.9507 21.5987 40.9507 22.0949C40.9507 22.591 40.5485 22.9932 40.0524 22.9932Z" fill="#FFD83D"/>
<path fill-rule="evenodd" clip-rule="evenodd" d="M40.0546 21.3791C40.4495 21.3791 40.7696 21.6992 40.7696 22.0941C40.7696 22.489 40.4495 22.8091 40.0546 22.8091C39.6597 22.8091 39.3396 22.489 39.3396 22.0941C39.3396 21.6992 39.6597 21.3791 40.0546 21.3791ZM41.1362 22.0941C41.1362 21.4967 40.652 21.0125 40.0546 21.0125C39.4572 21.0125 38.9729 21.4967 38.9729 22.0941C38.9729 22.6915 39.4572 23.1758 40.0546 23.1758C40.652 23.1758 41.1362 22.6915 41.1362 22.0941Z" fill="black"/>
<path d="M42.1256 22.6443C41.6295 22.6443 41.2273 22.2421 41.2273 21.746C41.2273 21.2499 41.6295 20.8477 42.1256 20.8477C42.6217 20.8477 43.0239 21.2499 43.0239 21.746C43.0239 22.2421 42.6217 22.6443 42.1256 22.6443Z" fill="#FFD83D"/>
<path fill-rule="evenodd" clip-rule="evenodd" d="M42.1249 21.031C42.5198 21.031 42.8399 21.3511 42.8399 21.746C42.8399 22.1409 42.5198 22.461 42.1249 22.461C41.73 22.461 41.4099 22.1409 41.4099 21.746C41.4099 21.3511 41.73 21.031 42.1249 21.031ZM43.2065 21.746C43.2065 21.1486 42.7223 20.6643 42.1249 20.6643C41.5275 20.6643 41.0432 21.1486 41.0432 21.746C41.0432 22.3434 41.5275 22.8276 42.1249 22.8276C42.7223 22.8276 43.2065 22.3434 43.2065 21.746Z" fill="black"/>
<path d="M44.1979 22.4429C43.7017 22.4429 43.2995 22.0407 43.2995 21.5446C43.2995 21.0484 43.7017 20.6462 44.1979 20.6462C44.694 20.6462 45.0962 21.0484 45.0962 21.5446C45.0962 22.0407 44.694 22.4429 44.1979 22.4429Z" fill="#FFD83D"/>
<path fill-rule="evenodd" clip-rule="evenodd" d="M44.1971 20.8293C44.592 20.8293 44.9121 21.1494 44.9121 21.5443C44.9121 21.9392 44.592 22.2593 44.1971 22.2593C43.8023 22.2593 43.4821 21.9392 43.4821 21.5443C43.4821 21.1494 43.8023 20.8293 44.1971 20.8293ZM45.2788 21.5443C45.2788 20.9469 44.7945 20.4626 44.1971 20.4626C43.5998 20.4626 43.1155 20.9469 43.1155 21.5443C43.1155 22.1417 43.5998 22.626 44.1971 22.626C44.7945 22.626 45.2788 22.1417 45.2788 21.5443Z" fill="black"/>
<path d="M46.2145 22.5528C45.7183 22.5528 45.3161 22.1506 45.3161 21.6544C45.3161 21.1583 45.7183 20.7561 46.2145 20.7561C46.7106 20.7561 47.1128 21.1583 47.1128 21.6544C47.1128 22.1506 46.7106 22.5528 46.2145 22.5528Z" fill="#FFD83D"/>
<path fill-rule="evenodd" clip-rule="evenodd" d="M46.2137 20.9397C46.6086 20.9397 46.9287 21.2598 46.9287 21.6547C46.9287 22.0495 46.6086 22.3697 46.2137 22.3697C45.8189 22.3697 45.4988 22.0495 45.4988 21.6547C45.4988 21.2598 45.8189 20.9397 46.2137 20.9397ZM47.2954 21.6547C47.2954 21.0573 46.8111 20.573 46.2137 20.573C45.6164 20.573 45.1321 21.0573 45.1321 21.6547C45.1321 22.252 45.6164 22.7363 46.2137 22.7363C46.8111 22.7363 47.2954 22.252 47.2954 21.6547Z" fill="black"/>
<path d="M48.1559 23.2132C47.6597 23.2132 47.2575 22.811 47.2575 22.3148C47.2575 21.8187 47.6597 21.4165 48.1559 21.4165C48.652 21.4165 49.0542 21.8187 49.0542 22.3148C49.0542 22.811 48.652 23.2132 48.1559 23.2132Z" fill="#FFD83D"/>
<path fill-rule="evenodd" clip-rule="evenodd" d="M48.1556 21.5993C48.5505 21.5993 48.8706 21.9194 48.8706 22.3143C48.8706 22.7092 48.5505 23.0293 48.1556 23.0293C47.7608 23.0293 47.4406 22.7092 47.4406 22.3143C47.4406 21.9194 47.7608 21.5993 48.1556 21.5993ZM49.2373 22.3143C49.2373 21.7169 48.753 21.2327 48.1556 21.2327C47.5583 21.2327 47.074 21.7169 47.074 22.3143C47.074 22.9117 47.5583 23.396 48.1556 23.396C48.753 23.396 49.2373 22.9117 49.2373 22.3143Z" fill="black"/>
<path d="M49.7867 24.4226C49.2906 24.4226 48.8884 24.0204 48.8884 23.5243C48.8884 23.0282 49.2906 22.626 49.7867 22.626C50.2829 22.626 50.6851 23.0282 50.6851 23.5243C50.6851 24.0204 50.2829 24.4226 49.7867 24.4226Z" fill="#FFD83D"/>
<path fill-rule="evenodd" clip-rule="evenodd" d="M49.7885 22.8093C50.1833 22.8093 50.5035 23.1294 50.5035 23.5243C50.5035 23.9192 50.1833 24.2393 49.7885 24.2393C49.3936 24.2393 49.0735 23.9192 49.0735 23.5243C49.0735 23.1294 49.3936 22.8093 49.7885 22.8093ZM50.8701 23.5243C50.8701 22.9269 50.3858 22.4426 49.7885 22.4426C49.1911 22.4426 48.7068 22.9269 48.7068 23.5243C48.7068 24.1217 49.1911 24.606 49.7885 24.606C50.3858 24.606 50.8701 24.1217 50.8701 23.5243Z" fill="black"/>
<path d="M50.9435 26.0911C50.4473 26.0911 50.0451 25.6889 50.0451 25.1928C50.0451 24.6966 50.4473 24.2944 50.9435 24.2944C51.4396 24.2944 51.8418 24.6966 51.8418 25.1928C51.8418 25.6889 51.4396 26.0911 50.9435 26.0911Z" fill="#FFD83D"/>
<path fill-rule="evenodd" clip-rule="evenodd" d="M50.9442 24.478C51.3391 24.478 51.6592 24.7981 51.6592 25.193C51.6592 25.5879 51.3391 25.908 50.9442 25.908C50.5493 25.908 50.2292 25.5879 50.2292 25.193C50.2292 24.7981 50.5493 24.478 50.9442 24.478ZM52.0259 25.193C52.0259 24.5956 51.5416 24.1113 50.9442 24.1113C50.3468 24.1113 49.8626 24.5956 49.8626 25.193C49.8626 25.7904 50.3468 26.2747 50.9442 26.2747C51.5416 26.2747 52.0259 25.7904 52.0259 25.193Z" fill="black"/>
<path d="M51.5133 28.0711C51.0172 28.0711 50.615 27.6689 50.615 27.1727C50.615 26.6766 51.0172 26.2744 51.5133 26.2744C52.0094 26.2744 52.4116 26.6766 52.4116 27.1727C52.4116 27.6689 52.0094 28.0711 51.5133 28.0711Z" fill="#FFD83D"/>
<path fill-rule="evenodd" clip-rule="evenodd" d="M51.5126 26.4577C51.9075 26.4577 52.2276 26.7778 52.2276 27.1727C52.2276 27.5676 51.9075 27.8877 51.5126 27.8877C51.1177 27.8877 50.7976 27.5676 50.7976 27.1727C50.7976 26.7778 51.1177 26.4577 51.5126 26.4577ZM52.5942 27.1727C52.5942 26.5753 52.11 26.0911 51.5126 26.0911C50.9152 26.0911 50.4309 26.5753 50.4309 27.1727C50.4309 27.7701 50.9152 28.2544 51.5126 28.2544C52.11 28.2544 52.5942 27.7701 52.5942 27.1727Z" fill="black"/>
<path d="M51.4923 30.1055C50.9962 30.1055 50.594 29.7033 50.594 29.2072C50.594 28.711 50.9962 28.3088 51.4923 28.3088C51.9884 28.3088 52.3906 28.711 52.3906 29.2072C52.3906 29.7033 51.9884 30.1055 51.4923 30.1055Z" fill="#FFD83D"/>
<path fill-rule="evenodd" clip-rule="evenodd" d="M51.4916 28.4929C51.8865 28.4929 52.2066 28.813 52.2066 29.2079C52.2066 29.6028 51.8865 29.9229 51.4916 29.9229C51.0967 29.9229 50.7766 29.6028 50.7766 29.2079C50.7766 28.813 51.0967 28.4929 51.4916 28.4929ZM52.5732 29.2079C52.5732 28.6105 52.089 28.1262 51.4916 28.1262C50.8942 28.1262 50.4099 28.6105 50.4099 29.2079C50.4099 29.8053 50.8942 30.2895 51.4916 30.2895C52.089 30.2895 52.5732 29.8053 52.5732 29.2079Z" fill="black"/>
<path d="M51.089 32.1048C50.5928 32.1048 50.1906 31.7026 50.1906 31.2064C50.1906 30.7103 50.5928 30.3081 51.089 30.3081C51.5851 30.3081 51.9873 30.7103 51.9873 31.2064C51.9873 31.7026 51.5851 32.1048 51.089 32.1048Z" fill="#FFD83D"/>
<path fill-rule="evenodd" clip-rule="evenodd" d="M51.0907 30.4914C51.4856 30.4914 51.8057 30.8115 51.8057 31.2064C51.8057 31.6013 51.4856 31.9214 51.0907 31.9214C50.6958 31.9214 50.3757 31.6013 50.3757 31.2064C50.3757 30.8115 50.6958 30.4914 51.0907 30.4914ZM52.1724 31.2064C52.1724 30.609 51.6881 30.1248 51.0907 30.1248C50.4933 30.1248 50.009 30.609 50.009 31.2064C50.009 31.8038 50.4933 32.2881 51.0907 32.2881C51.6881 32.2881 52.1724 31.8038 52.1724 31.2064Z" fill="black"/>
<path d="M35.544 24.2943L35.6357 25.486C37.8907 25.1193 41.0807 23.8727 44.069 23.8727C46.819 23.8727 48.9456 24.9727 48.9456 27.7593C48.9456 30.491 47.7906 32.9843 46.2506 35.5143L47.8456 36.2476C49.2756 33.4976 50.4673 31.1143 50.4673 27.9243C50.4673 25.2477 48.359 22.6077 44.729 22.6077C41.5207 22.6077 38.239 23.7077 35.544 24.2943V24.2943Z" fill="#FFD83D"/>
<path fill-rule="evenodd" clip-rule="evenodd" d="M44.7292 22.7912C48.2556 22.7912 50.2842 25.3467 50.2842 27.9245C50.2842 31.0056 49.1576 33.3231 47.7638 36.0083L46.5141 35.4337C48.0058 32.9554 49.1292 30.4789 49.1292 27.7595C49.1292 26.3127 48.5734 25.2828 47.6451 24.6219C46.7266 23.9678 45.4642 23.6896 44.0692 23.6896C42.552 23.6896 40.9897 24.0058 39.5338 24.364C39.084 24.4747 38.6459 24.5889 38.2222 24.6994C37.3449 24.9281 36.5299 25.1406 35.8033 25.2715L35.7393 24.4393C36.3697 24.2988 37.0301 24.1326 37.71 23.9613L37.732 23.9558C38.4623 23.7718 39.2156 23.582 39.9843 23.4101C41.5374 23.063 43.1448 22.7912 44.7292 22.7912ZM35.5443 24.2946L35.5053 24.1154C36.1756 23.9695 36.8831 23.7915 37.6204 23.6057L37.6444 23.5997C38.3734 23.416 39.1308 23.2252 39.9043 23.0523C41.4677 22.7028 43.1054 22.4246 44.7292 22.4246C48.4629 22.4246 50.6509 25.149 50.6509 27.9245C50.6509 31.1643 49.4378 33.5839 48.0085 36.3324C47.9634 36.4192 47.8582 36.4553 47.7693 36.4144L46.1743 35.6811C46.1268 35.6592 46.0909 35.6181 46.0756 35.5681C46.0603 35.518 46.0671 35.4639 46.0943 35.4192C47.6299 32.8964 48.7626 30.4391 48.7626 27.7595C48.7626 26.4197 48.255 25.5063 47.4325 24.9206C46.6002 24.3279 45.4242 24.0562 44.0692 24.0562C42.5981 24.0562 41.0713 24.3633 39.6214 24.7201C39.1855 24.8273 38.7551 24.9395 38.3352 25.049C37.3686 25.3009 36.4581 25.5383 35.6654 25.6672C35.6147 25.6754 35.5629 25.662 35.5226 25.6303C35.4823 25.5986 35.4571 25.5514 35.4531 25.5003L35.3615 24.3086L35.5443 24.2946Z" fill="black"/>
<path d="M34.2625 12.1218L33.3092 13.9002L34.2625 15.6602L35.1975 13.9002L34.2625 12.1035V12.1218ZM34.2625 16.5952L33.3092 18.3552L34.2625 20.1335L35.1791 18.3368L34.2441 16.5768L34.2625 16.5952ZM30.8892 16.1368L32.3742 17.0718L33.8591 16.1368L32.3925 15.1835L30.8892 16.1368ZM34.6475 16.1368L36.1325 17.0718L37.6358 16.1368L36.1325 15.1835L34.6658 16.1368H34.6475Z" fill="#FFD83D"/>
<path fill-rule="evenodd" clip-rule="evenodd" d="M34.2187 11.9254C34.3007 11.9054 34.3859 11.944 34.4248 12.0189L35.3598 13.8155C35.3877 13.8691 35.3874 13.9329 35.3591 13.9862L34.4241 15.7462C34.3924 15.8058 34.3305 15.8432 34.263 15.8435C34.1954 15.8438 34.1332 15.8069 34.101 15.7475L33.1477 13.9875C33.1183 13.9333 33.1182 13.8679 33.1473 13.8136L34.0819 12.0701C34.0949 12.0002 34.1476 11.9428 34.2187 11.9254ZM34.2647 12.5053L33.5171 13.8997L34.2606 15.2724L34.9901 13.8993L34.2647 12.5053ZM32.294 15.0287C32.3546 14.9903 32.432 14.9907 32.4921 15.0298L33.9588 15.9831C34.0112 16.0172 34.0427 16.0756 34.0422 16.1382C34.0418 16.2007 34.0095 16.2587 33.9566 16.292L32.4716 17.227C32.4119 17.2646 32.3359 17.2646 32.2762 17.227L30.7912 16.292C30.738 16.2585 30.7057 16.2 30.7056 16.1371C30.7055 16.0742 30.7376 16.0157 30.7907 15.982L32.294 15.0287ZM36.0323 15.0298C36.0924 14.9907 36.1698 14.9903 36.2304 15.0287L37.7337 15.982C37.787 16.0158 37.8191 16.0746 37.8189 16.1376C37.8186 16.2007 37.7859 16.2592 37.7324 16.2925L36.229 17.2275C36.1694 17.2646 36.0939 17.2644 36.0345 17.227L34.5495 16.292C34.4804 16.2485 34.4484 16.1645 34.4711 16.086C34.4895 16.0222 34.5405 15.9745 34.6028 15.9589L36.0323 15.0298ZM34.9967 16.1402L36.1328 16.8556L37.2908 16.1353L36.1334 15.4014L34.9967 16.1402ZM31.2321 16.1363L32.3739 16.8552L33.5187 16.1344L32.391 15.4014L31.2321 16.1363ZM34.1349 16.4294C34.2078 16.3755 34.3093 16.383 34.3735 16.4472L34.3918 16.4655C34.418 16.4917 34.4349 16.5243 34.4419 16.5588L35.3408 18.2508C35.3689 18.3036 35.3694 18.3669 35.3422 18.4201L34.4255 20.2168C34.3945 20.2776 34.3323 20.3161 34.2641 20.3168C34.1958 20.3175 34.1329 20.2802 34.1006 20.2201L33.1473 18.4418C33.1182 18.3874 33.1183 18.3221 33.1477 18.2678L34.0606 16.5824C34.0589 16.524 34.0851 16.4662 34.1349 16.4294ZM34.2563 16.991L33.5171 18.3556L34.2582 19.738L34.9722 18.3385L34.2563 16.991Z" fill="black"/>
<path d="M34.2628 16.8699C34.6577 16.8699 34.9778 16.5498 34.9778 16.1549C34.9778 15.7601 34.6577 15.4399 34.2628 15.4399C33.868 15.4399 33.5479 15.7601 33.5479 16.1549C33.5479 16.5498 33.868 16.8699 34.2628 16.8699Z" fill="#FFD83D"/>
<path fill-rule="evenodd" clip-rule="evenodd" d="M34.2636 15.6235C33.9699 15.6235 33.7319 15.8615 33.7319 16.1552C33.7319 16.4488 33.9699 16.6868 34.2636 16.6868C34.5572 16.6868 34.7952 16.4488 34.7952 16.1552C34.7952 15.8615 34.5572 15.6235 34.2636 15.6235ZM33.3652 16.1552C33.3652 15.659 33.7674 15.2568 34.2636 15.2568C34.7597 15.2568 35.1619 15.659 35.1619 16.1552C35.1619 16.6513 34.7597 17.0535 34.2636 17.0535C33.7674 17.0535 33.3652 16.6513 33.3652 16.1552Z" fill="black"/>
<path d="M34.2634 22.6454C35.3265 22.6454 36.1884 21.7835 36.1884 20.7204C36.1884 19.6573 35.3265 18.7954 34.2634 18.7954C33.2002 18.7954 32.3384 19.6573 32.3384 20.7204C32.3384 21.7835 33.2002 22.6454 34.2634 22.6454Z" fill="#FFD83D"/>
<path fill-rule="evenodd" clip-rule="evenodd" d="M34.2616 18.9782C33.2998 18.9782 32.52 19.758 32.52 20.7199C32.52 21.6818 33.2998 22.4616 34.2616 22.4616C35.2235 22.4616 36.0033 21.6818 36.0033 20.7199C36.0033 19.758 35.2235 18.9782 34.2616 18.9782ZM32.1533 20.7199C32.1533 19.5555 33.0972 18.6116 34.2616 18.6116C35.426 18.6116 36.37 19.5555 36.37 20.7199C36.37 21.8843 35.426 22.8282 34.2616 22.8282C33.0972 22.8282 32.1533 21.8843 32.1533 20.7199Z" fill="black"/>
<path fill-rule="evenodd" clip-rule="evenodd" d="M33.7659 18.7307C33.8419 18.7307 33.9034 18.7923 33.9034 18.8682V20.0782C33.9034 20.1516 33.8458 20.212 33.7725 20.2155C33.3233 20.2372 32.8757 20.2856 32.4322 20.3605C32.3573 20.3731 32.2863 20.3226 32.2737 20.2478C32.261 20.1729 32.3115 20.1019 32.3864 20.0893C32.7976 20.0199 33.2122 19.9727 33.6284 19.9479V18.8682C33.6284 18.7923 33.69 18.7307 33.7659 18.7307ZM34.7376 18.7307C34.8135 18.7307 34.8751 18.7923 34.8751 18.8682V19.9476C35.2975 19.9716 35.7182 20.0189 36.1355 20.0893C36.2103 20.1019 36.2608 20.1729 36.2482 20.2477C36.2356 20.3226 36.1646 20.3731 36.0897 20.3605C35.6403 20.2847 35.1867 20.2363 34.7313 20.2156C34.6579 20.2122 34.6001 20.1517 34.6001 20.0782V18.8682C34.6001 18.7923 34.6617 18.7307 34.7376 18.7307ZM34.2603 20.894L34.2609 20.894C34.8921 20.894 35.524 20.9497 36.1196 21.0614C36.1942 21.0754 36.2434 21.1472 36.2294 21.2219C36.2154 21.2965 36.1436 21.3457 36.0689 21.3317C35.4913 21.2234 34.8766 21.1691 34.2612 21.169C33.6422 21.1719 33.0244 21.2264 32.4144 21.332C32.3396 21.345 32.2684 21.2948 32.2555 21.22C32.2425 21.1452 32.2927 21.074 32.3675 21.0611C32.9927 20.9528 33.6258 20.8969 34.2603 20.894Z" fill="black"/>
<path d="M32.3936 23.9648C32.2102 27.0815 31.8436 30.2898 30.6152 32.5998L32.5952 31.7931C33.2919 29.1715 33.4386 25.7798 33.6402 24.1665L32.3936 23.9648V23.9648ZM36.1335 23.9648L34.8686 24.1665C35.0885 25.7798 35.2352 29.1715 35.9135 31.7931L37.8935 32.5998C36.6835 30.2898 36.3169 27.0998 36.1335 23.9648V23.9648Z" fill="#FFD83D"/>
<path fill-rule="evenodd" clip-rule="evenodd" d="M34.838 23.9854L36.103 23.7837L36.1318 23.9647L36.3148 23.954C36.4983 27.0911 36.8647 30.2438 38.0542 32.5146C38.0899 32.5828 38.0793 32.666 38.0275 32.723C37.9757 32.78 37.8939 32.7985 37.8226 32.7695L35.8427 31.9628C35.789 31.941 35.7488 31.895 35.7343 31.839C35.3917 30.5148 35.1844 29.0008 35.0352 27.6213C34.9702 27.0209 34.9166 26.4491 34.8677 25.9282C34.8034 25.2442 34.7475 24.6482 34.6852 24.1912C34.6717 24.0924 34.7396 24.001 34.838 23.9854ZM35.9609 24.1776L35.0716 24.3194C35.1257 24.7555 35.1769 25.2999 35.234 25.9077C35.283 26.4286 35.3364 26.9961 35.3997 27.5819C35.5451 28.9257 35.7443 30.3816 36.0666 31.6581L37.5151 32.2483C36.4794 29.9976 36.1366 27.0567 35.9609 24.1776ZM32.4211 23.7838L33.6678 23.9854C33.7652 24.0012 33.8327 24.0912 33.8204 24.1891C33.7695 24.5963 33.7218 25.1241 33.6672 25.7284C33.5086 27.4817 33.2919 29.8789 32.7707 31.8401C32.7559 31.8957 32.7159 31.9411 32.6627 31.9628L30.6827 32.7695C30.6112 32.7986 30.5292 32.7798 30.4774 32.7226C30.4257 32.6653 30.4154 32.5818 30.4516 32.5136C31.6589 30.2433 32.0253 27.073 32.2088 23.954L32.3918 23.9647L32.4211 23.7838ZM32.5627 24.1781C32.387 27.04 32.044 29.9944 30.994 32.2467L32.4395 31.6578C32.935 29.7474 33.1425 27.4529 33.2984 25.7293C33.3468 25.1949 33.3901 24.7154 33.4356 24.3193L32.5627 24.1781Z" fill="black"/>
<path d="M34.2622 30.7485C31.8789 30.7485 30.1372 31.8485 30.0456 34.7085C29.4589 33.6819 27.0206 30.4919 24.7289 30.9135C23.3722 31.1702 22.1623 33.0585 22.3823 35.2035C21.2456 31.9769 17.9639 31.4452 15.5439 33.3702C17.6889 35.1119 18.6423 40.3002 20.4389 42.5368H48.0671C49.8638 40.3002 50.8171 35.1119 52.9621 33.3702C50.5605 31.4452 47.2605 31.9769 46.1422 35.2035C46.3255 33.0585 45.1338 31.1702 43.7588 30.9135C41.4855 30.4919 39.0472 33.6819 38.4605 34.7085C38.3689 31.8669 36.6272 30.7485 34.2439 30.7485H34.2622Z" fill="#FFD83D"/>
<path fill-rule="evenodd" clip-rule="evenodd" d="M34.2417 30.565C34.2429 30.565 34.244 30.5649 34.2451 30.5649H34.2634M34.2668 30.565C35.4754 30.5683 36.547 30.8544 37.3317 31.5231C38.0198 32.1096 38.4667 32.9728 38.604 34.1432C38.993 33.5765 39.613 32.802 40.3555 32.1316C41.3289 31.2528 42.5658 30.5053 43.7935 30.733L43.7937 30.7331C44.5506 30.8744 45.2311 31.457 45.6948 32.2583C46.0329 32.8427 46.2628 33.554 46.3271 34.3246C46.9594 33.1485 47.9334 32.4326 49.0304 32.1762C50.3574 31.8661 51.8394 32.2341 53.078 33.2269C53.1213 33.2615 53.1465 33.3139 53.1467 33.3694C53.1468 33.4248 53.1219 33.4773 53.0789 33.5123C52.5697 33.9257 52.1216 34.5525 51.7071 35.3104C51.2934 36.0668 50.9203 36.9401 50.555 37.8368C50.4688 38.0483 50.383 38.2612 50.2973 38.4741C50.0208 39.1603 49.7446 39.846 49.4565 40.4813C49.0791 41.3135 48.6751 42.0739 48.2113 42.6514C48.1765 42.6947 48.1239 42.7199 48.0684 42.7199H20.4401C20.3846 42.7199 20.332 42.6947 20.2972 42.6514C19.8334 42.0739 19.4293 41.3135 19.052 40.4813C18.7639 39.8459 18.4876 39.1602 18.2112 38.474C18.1254 38.2612 18.0396 38.0483 17.9535 37.8368C17.5882 36.9401 17.2151 36.0668 16.8014 35.3104C16.3869 34.5525 15.9388 33.9257 15.4296 33.5123C15.3865 33.4772 15.3615 33.4246 15.3618 33.369C15.3621 33.3135 15.3875 33.261 15.431 33.2265C16.6784 32.2342 18.1602 31.8661 19.4873 32.1762C20.5803 32.4316 21.551 33.1432 22.1885 34.3114C22.246 33.5458 22.4723 32.8394 22.8066 32.2587C23.2679 31.4574 23.9483 30.8746 24.696 30.7331L24.6969 30.733L24.6969 30.733C25.9332 30.5055 27.1745 31.2523 28.1505 32.1314C28.8947 32.8017 29.515 33.5761 29.9042 34.1428C30.041 32.9652 30.4881 32.1011 31.177 31.516C31.9619 30.8495 33.0337 30.5683 34.2417 30.565M34.2542 30.9316C33.0918 30.933 32.1125 31.2026 31.4144 31.7955C30.7186 32.3864 30.2746 33.3218 30.23 34.7141C30.2274 34.7961 30.1706 34.8664 30.091 34.8862C30.0114 34.906 29.9283 34.8704 29.8876 34.7992C29.603 34.3012 28.8587 33.2628 27.9051 32.4039C26.9425 31.5369 25.819 30.8996 24.7637 31.0935C24.155 31.2089 23.5522 31.6985 23.1244 32.4416C22.6988 33.1809 22.4598 34.1507 22.5658 35.1846C22.5753 35.277 22.5142 35.3618 22.4235 35.3822C22.3329 35.4025 22.2414 35.3518 22.2105 35.2642C21.6609 33.7039 20.602 32.8133 19.4038 32.5332C18.2607 32.2661 16.9675 32.5495 15.8354 33.3789C16.3234 33.8279 16.744 34.4413 17.1231 35.1345C17.5476 35.9106 17.9273 36.8008 18.293 37.6985C18.3805 37.9132 18.4671 38.1282 18.5534 38.3423C18.8292 39.0269 19.1014 39.7023 19.3859 40.3299C19.7441 41.1197 20.1162 41.8202 20.529 42.3532H47.9795C48.3923 41.8202 48.7644 41.1197 49.1226 40.3299C49.4071 39.7023 49.6793 39.0268 49.9551 38.3423C50.0413 38.1281 50.128 37.9132 50.2154 37.6985C50.5812 36.8008 50.9609 35.9106 51.3854 35.1345C51.7647 34.441 52.1855 33.8274 52.6736 33.3783C51.5499 32.5496 50.257 32.2661 49.1138 32.5332C47.9156 32.8133 46.8571 33.7039 46.3166 35.2633C46.2863 35.3507 46.1957 35.4018 46.1052 35.3826C46.0148 35.3634 45.9528 35.2798 45.9607 35.1876C46.0492 34.1524 45.8054 33.1816 45.3774 32.442C44.9473 31.6987 44.3445 31.2089 43.7264 31.0935M34.2542 30.9316C35.416 30.933 36.3954 31.2069 37.0939 31.8022C37.79 32.3955 38.2339 33.3313 38.2785 34.7142C38.2811 34.7962 38.3379 34.8664 38.4175 34.8862C38.4971 34.906 38.5802 34.8704 38.6209 34.7992C38.9055 34.3012 39.6498 33.2627 40.6012 32.4037C41.562 31.5363 42.6808 30.8997 43.7264 31.0935" fill="black"/>
<path d="M48.0295 42.5373C48.0295 43.564 41.8695 44.6823 34.2612 44.6823C26.6529 44.6823 20.4746 43.5823 20.4746 42.5373C20.4746 41.529 26.6529 40.979 34.2612 40.979C41.8512 40.979 48.0295 41.529 48.0295 42.5373Z" fill="black"/>
<path fill-rule="evenodd" clip-rule="evenodd" d="M20.8251 42.2987C20.6502 42.4049 20.6109 42.488 20.6109 42.5376C20.6109 42.5978 20.6578 42.6934 20.8332 42.8176C21.0022 42.9372 21.2599 43.0609 21.604 43.1842C22.2907 43.4302 23.2913 43.664 24.5357 43.8663C27.0226 44.2705 30.4617 44.5451 34.2601 44.5451C38.0583 44.5451 41.4928 44.2659 43.9751 43.8594C45.2172 43.656 46.2156 43.4216 46.9006 43.1764C47.244 43.0536 47.5011 42.9306 47.6697 42.8121C47.8452 42.6887 47.8908 42.5948 47.8908 42.5376C47.8908 42.488 47.8516 42.4049 47.6767 42.2987C47.5089 42.1969 47.2521 42.0967 46.9077 42.0013C46.2209 41.811 45.2203 41.6486 43.976 41.5171C41.4894 41.2542 38.0526 41.1168 34.2601 41.1168C30.4583 41.1168 27.017 41.2542 24.5281 41.5171C23.2826 41.6486 22.2814 41.811 21.5944 42.0013C21.2498 42.0967 20.9929 42.1969 20.8251 42.2987ZM24.4992 41.2436C27.0015 40.9793 30.4535 40.8418 34.2601 40.8418C38.0575 40.8418 41.5048 40.9793 44.0049 41.2436C45.2538 41.3756 46.2722 41.5398 46.9811 41.7362C47.3344 41.8342 47.6196 41.9424 47.8194 42.0636C48.012 42.1805 48.1658 42.3351 48.1658 42.5376C48.1658 42.7371 48.0189 42.9027 47.8279 43.037C47.6299 43.1762 47.3463 43.309 46.9933 43.4354C46.2856 43.6886 45.2685 43.9263 44.0195 44.1308C41.5198 44.5402 38.0701 44.8201 34.2601 44.8201C30.4501 44.8201 26.9959 44.5448 24.4916 44.1377C23.2403 43.9343 22.2209 43.6973 21.5113 43.4431C21.1574 43.3163 20.8729 43.1826 20.6743 43.0421C20.4822 42.906 20.3359 42.7387 20.3359 42.5376C20.3359 42.3351 20.4898 42.1805 20.6824 42.0636C20.8822 41.9424 21.1675 41.8341 21.521 41.7362C22.2301 41.5398 23.2491 41.3756 24.4992 41.2436Z" fill="black"/>
<path d="M34.2603 24.0021C34.6147 24.0021 34.902 23.7148 34.902 23.3604C34.902 23.006 34.6147 22.7188 34.2603 22.7188C33.9059 22.7188 33.6187 23.006 33.6187 23.3604C33.6187 23.7148 33.9059 24.0021 34.2603 24.0021Z" fill="#FFD83D"/>
<path fill-rule="evenodd" clip-rule="evenodd" d="M34.2606 22.8568C33.9822 22.8568 33.7564 23.0825 33.7564 23.361C33.7564 23.6394 33.9822 23.8651 34.2606 23.8651C34.5391 23.8651 34.7648 23.6394 34.7648 23.361C34.7648 23.0825 34.5391 22.8568 34.2606 22.8568ZM33.4814 23.361C33.4814 22.9306 33.8303 22.5818 34.2606 22.5818C34.6909 22.5818 35.0398 22.9306 35.0398 23.361C35.0398 23.7913 34.6909 24.1401 34.2606 24.1401C33.8303 24.1401 33.4814 23.7913 33.4814 23.361Z" fill="black"/>
<path d="M34.2594 25.4328C34.634 25.4328 34.9377 25.1291 34.9377 24.7545C34.9377 24.3799 34.634 24.0762 34.2594 24.0762C33.8848 24.0762 33.5811 24.3799 33.5811 24.7545C33.5811 25.1291 33.8848 25.4328 34.2594 25.4328Z" fill="#FFD83D"/>
<path fill-rule="evenodd" clip-rule="evenodd" d="M34.2602 24.213C33.9615 24.213 33.7193 24.4551 33.7193 24.7538C33.7193 25.0525 33.9615 25.2946 34.2602 25.2946C34.5589 25.2946 34.801 25.0525 34.801 24.7538C34.801 24.4551 34.5589 24.213 34.2602 24.213ZM33.4443 24.7538C33.4443 24.3032 33.8096 23.938 34.2602 23.938C34.7107 23.938 35.076 24.3032 35.076 24.7538C35.076 25.2044 34.7107 25.5696 34.2602 25.5696C33.8096 25.5696 33.4443 25.2044 33.4443 24.7538Z" fill="black"/>
<path d="M34.2605 27.0092C34.6756 27.0092 35.0121 26.6727 35.0121 26.2575C35.0121 25.8424 34.6756 25.5059 34.2605 25.5059C33.8453 25.5059 33.5088 25.8424 33.5088 26.2575C33.5088 26.6727 33.8453 27.0092 34.2605 27.0092Z" fill="#FFD83D"/>
<path fill-rule="evenodd" clip-rule="evenodd" d="M34.2603 25.6429C33.9211 25.6429 33.6461 25.9179 33.6461 26.2571C33.6461 26.5963 33.9211 26.8712 34.2603 26.8712C34.5995 26.8712 34.8744 26.5963 34.8744 26.2571C34.8744 25.9179 34.5995 25.6429 34.2603 25.6429ZM33.3711 26.2571C33.3711 25.766 33.7692 25.3679 34.2603 25.3679C34.7513 25.3679 35.1494 25.766 35.1494 26.2571C35.1494 26.7482 34.7513 27.1462 34.2603 27.1462C33.7692 27.1462 33.3711 26.7482 33.3711 26.2571Z" fill="black"/>
<path d="M34.2606 28.7873C34.7365 28.7873 35.1223 28.4015 35.1223 27.9256C35.1223 27.4497 34.7365 27.064 34.2606 27.064C33.7847 27.064 33.3989 27.4497 33.3989 27.9256C33.3989 28.4015 33.7847 28.7873 34.2606 28.7873Z" fill="#FFD83D"/>
<path fill-rule="evenodd" clip-rule="evenodd" d="M34.2609 27.202C33.8609 27.202 33.5367 27.5262 33.5367 27.9262C33.5367 28.3261 33.8609 28.6503 34.2609 28.6503C34.6608 28.6503 34.985 28.3261 34.985 27.9262C34.985 27.5262 34.6608 27.202 34.2609 27.202ZM33.2617 27.9262C33.2617 27.3743 33.7091 26.927 34.2609 26.927C34.8127 26.927 35.26 27.3743 35.26 27.9262C35.26 28.478 34.8127 28.9253 34.2609 28.9253C33.7091 28.9253 33.2617 28.478 33.2617 27.9262Z" fill="black"/>
<path d="M34.2612 30.713C34.7776 30.713 35.1962 30.2944 35.1962 29.778C35.1962 29.2616 34.7776 28.843 34.2612 28.843C33.7448 28.843 33.3262 29.2616 33.3262 29.778C33.3262 30.2944 33.7448 30.713 34.2612 30.713Z" fill="#FFD83D"/>
<path fill-rule="evenodd" clip-rule="evenodd" d="M34.2595 28.9801C33.8191 28.9801 33.462 29.3371 33.462 29.7776C33.462 30.218 33.8191 30.5751 34.2595 30.5751C34.7 30.5751 35.057 30.218 35.057 29.7776C35.057 29.3371 34.7 28.9801 34.2595 28.9801ZM33.187 29.7776C33.187 29.1852 33.6672 28.7051 34.2595 28.7051C34.8518 28.7051 35.332 29.1852 35.332 29.7776C35.332 30.3699 34.8518 30.8501 34.2595 30.8501C33.6672 30.8501 33.187 30.3699 33.187 29.7776Z" fill="black"/>
<path d="M33.8935 31.5745C33.7835 31.5745 33.6918 31.6661 33.7102 31.8311L33.8202 32.6195C33.8568 32.8945 34.0035 32.8028 34.0585 32.6195C34.0952 32.3995 34.0768 32.2528 34.0952 31.8678C34.0952 31.6661 33.9852 31.5745 33.8752 31.5745H33.8935ZM34.6268 31.5745C34.5168 31.5745 34.4252 31.6661 34.4252 31.8678C34.4252 32.2528 34.4252 32.3995 34.4618 32.6011C34.4985 32.8211 34.6452 32.8945 34.7002 32.6011L34.7918 31.8311C34.8285 31.6478 34.7185 31.5745 34.6268 31.5745ZM33.2152 31.6845C33.1666 31.6845 33.1199 31.7038 33.0855 31.7382C33.0512 31.7725 33.0318 31.8192 33.0318 31.8678C33.0318 32.0511 33.0868 32.2895 33.1052 32.5645C33.1418 32.8395 33.3435 32.7478 33.3618 32.5645C33.3618 32.4178 33.3985 32.1611 33.3618 31.8495C33.3618 31.7395 33.3252 31.6845 33.2518 31.6661C33.2397 31.6646 33.2274 31.6646 33.2152 31.6661V31.6845ZM35.2502 31.6845C35.1952 31.6845 35.1402 31.7395 35.1218 31.8678C35.112 32.1007 35.1243 32.3339 35.1585 32.5645C35.1585 32.7478 35.3785 32.8395 35.3968 32.5645C35.3968 32.2895 35.4702 32.0695 35.4702 31.8861C35.4702 31.7761 35.3785 31.7028 35.2868 31.6845C35.2747 31.6829 35.2623 31.6829 35.2502 31.6845V31.6845ZM32.4268 31.9961C32.3352 32.0145 32.2435 32.1245 32.2802 32.2345C32.3352 32.4728 32.3902 32.7295 32.3902 32.9678C32.3902 33.1695 32.5552 33.0961 32.5735 32.9678C32.5878 32.7236 32.5939 32.479 32.5918 32.2345C32.5918 32.0511 32.5002 31.9778 32.4085 31.9961H32.4268ZM36.0202 31.9961C35.9652 32.0145 35.9102 32.0878 35.9102 32.2345L35.9468 32.9678C35.9468 33.0961 36.1302 33.1695 36.1302 32.9678C36.1302 32.7295 36.1668 32.4728 36.2218 32.2345C36.2585 32.1245 36.1668 32.0145 36.0935 31.9961C36.0755 31.9915 36.0565 31.9915 36.0385 31.9961H36.0202ZM25.2035 32.0328C25.0935 32.0328 25.0202 32.1611 25.0935 32.3078C25.2035 32.5645 25.3319 32.7111 25.4419 32.9678C25.5335 33.2061 25.6985 33.0595 25.6435 32.8945L25.3869 32.2161C25.3319 32.0878 25.2585 32.0328 25.2035 32.0328ZM43.3168 32.0328C43.2435 32.0328 43.1885 32.0878 43.1335 32.2161C42.9685 32.5645 42.9135 32.7295 42.8585 32.8945C42.8218 33.0778 42.9685 33.2061 43.0785 32.9678L43.4085 32.3078C43.4818 32.1611 43.4085 32.0328 43.3168 32.0328ZM25.9369 32.0328C25.8452 32.0695 25.8085 32.1611 25.8452 32.2711C25.9552 32.4911 26.0835 32.7295 26.1752 32.9678C26.2485 33.1695 26.4319 33.1145 26.3585 32.9311L26.1752 32.2528C26.1019 32.0695 25.9919 32.0145 25.9369 32.0328V32.0328ZM42.5285 32.0328C42.4551 32.0511 42.3818 32.1245 42.3451 32.2528C42.2168 32.6195 42.1985 32.7295 42.1435 32.9311C42.0701 33.1145 42.2535 33.1695 42.3268 32.9678L42.6568 32.2711C42.6935 32.1611 42.6568 32.0695 42.5835 32.0328C42.5654 32.0281 42.5465 32.0281 42.5285 32.0328V32.0328ZM26.8535 32.2161C26.7435 32.2345 26.6702 32.3811 26.7435 32.5645C26.8169 32.7845 26.9269 32.9861 27.0369 33.2428C27.1469 33.4995 27.3119 33.4445 27.2752 33.2795C27.2202 33.1145 27.1835 32.8578 27.0552 32.4545C27.0002 32.2711 26.9269 32.1978 26.8535 32.2161V32.2161ZM41.6668 32.2161C41.5935 32.2161 41.5018 32.2711 41.4468 32.4545C41.3368 32.8578 41.2635 33.1145 41.2451 33.2795C41.1901 33.4628 41.3735 33.4995 41.4651 33.2428C41.5751 32.9861 41.6851 32.7845 41.7585 32.5645C41.8318 32.3811 41.7585 32.2345 41.6668 32.2161V32.2161ZM24.5802 32.3445C24.4702 32.3445 24.3969 32.5278 24.4519 32.6561C24.5435 32.8395 24.6169 32.9128 24.7085 33.1328C24.8185 33.3528 24.9285 33.1878 24.8919 33.0411C24.8369 32.8945 24.7819 32.7295 24.7452 32.5278C24.7085 32.3811 24.6352 32.3445 24.5619 32.3445H24.5802ZM43.9401 32.3445C43.8668 32.3445 43.8118 32.3811 43.7568 32.5278L43.6285 33.0411C43.5918 33.1878 43.7018 33.3528 43.8118 33.1328C43.9035 32.9128 43.9585 32.8578 44.0685 32.6561C44.1235 32.5278 44.0318 32.3628 43.9401 32.3445V32.3445ZM31.6568 32.8578C31.5285 32.8578 31.4185 33.0045 31.4735 33.1328C31.5102 33.3528 31.6202 33.5361 31.6752 33.8111C31.7485 34.0495 31.9135 33.9395 31.8952 33.7745C31.8819 33.5282 31.8512 33.2831 31.8035 33.0411C31.7669 32.9128 31.7118 32.8578 31.6385 32.8578H31.6568ZM36.8635 32.8578C36.8085 32.8578 36.7352 32.9128 36.7168 33.0411C36.663 33.2827 36.6262 33.5277 36.6068 33.7745C36.6068 33.9395 36.7718 34.0495 36.8268 33.8111L37.0468 33.1328C37.0835 33.0045 36.9735 32.8578 36.8635 32.8578V32.8578ZM34.2602 33.0778C34.1135 33.0778 34.0952 33.2611 34.0952 33.3895C34.084 33.807 33.957 34.2132 33.7285 34.5628C33.5452 34.7828 33.3068 34.7278 33.0868 34.5995C32.8736 34.4832 32.6711 34.3483 32.4818 34.1961C32.2252 34.0128 32.0418 34.1228 32.3352 34.5445C33.1785 35.7544 34.0952 36.7811 34.0952 38.7611C34.0952 38.9994 34.1502 39.0728 34.2602 39.0728C34.3702 39.0728 34.4068 38.9994 34.4068 38.7428C34.4068 36.7811 35.3235 35.7544 36.1668 34.5261C36.4602 34.1228 36.2768 34.0128 36.0385 34.1961C35.85 34.3493 35.6474 34.4844 35.4335 34.5995C35.1952 34.7278 34.9568 34.7828 34.7918 34.5628C34.5633 34.2132 34.4364 33.807 34.4252 33.3895C34.4068 33.2611 34.3885 33.0778 34.2418 33.0778H34.2602ZM27.7885 32.7845C27.7764 32.7824 27.764 32.7824 27.7519 32.7845C27.6969 32.8028 27.6785 32.8578 27.6969 32.9678L27.8985 33.6828C27.9535 33.8661 28.1552 33.8111 28.1185 33.5911L28.0085 33.0228C27.9719 32.8761 27.8619 32.7845 27.7885 32.7845ZM40.7318 32.7845C40.6401 32.7845 40.5485 32.8761 40.5118 33.0228C40.4385 33.2795 40.4385 33.3528 40.4018 33.5728C40.3468 33.8111 40.5668 33.8478 40.6035 33.6828L40.8235 32.9495C40.8235 32.8578 40.8051 32.8028 40.7501 32.7845C40.738 32.7824 40.7256 32.7824 40.7135 32.7845H40.7318ZM23.9385 32.8578C23.8285 32.8578 23.7552 33.0045 23.8652 33.1878C23.9752 33.4078 24.1769 33.6645 24.2685 33.8295C24.3602 33.9761 24.5252 33.8661 24.4152 33.6828C24.3052 33.4995 24.2685 33.2611 24.1219 32.9861C24.1098 32.9475 24.0852 32.914 24.0521 32.8907C24.0189 32.8675 23.979 32.8559 23.9385 32.8578ZM44.5635 32.8578C44.5085 32.8578 44.4351 32.8945 44.3801 32.9861C44.2518 33.2611 44.1968 33.4811 44.1051 33.6828C43.9951 33.8661 44.1418 33.9761 44.2335 33.8295C44.3251 33.6645 44.5268 33.4078 44.6368 33.1878C44.7468 33.0045 44.6735 32.8578 44.5635 32.8578ZM18.1269 33.4628C18.0169 33.4628 17.9802 33.6828 18.0902 33.8295C18.2326 34.0096 18.3922 34.1754 18.5669 34.3245C18.7136 34.4711 18.7502 34.2878 18.6769 34.1411L18.3469 33.6461C18.2552 33.5178 18.1819 33.4628 18.1269 33.4628ZM50.3751 33.4628C50.3201 33.4628 50.2468 33.5178 50.1734 33.6461L49.8251 34.1411C49.7518 34.2878 49.7884 34.4711 49.9534 34.3245C50.1283 34.1756 50.2879 34.0098 50.4301 33.8295C50.5401 33.6828 50.5034 33.4628 50.3751 33.4628ZM19.0619 33.6461C18.9519 33.6461 18.8786 33.7195 18.9702 33.8845L19.3186 34.5811C19.4102 34.7645 19.6852 34.8194 19.5752 34.5445L19.3369 33.8478C19.2819 33.7195 19.1536 33.6645 19.0619 33.6645V33.6461ZM49.4584 33.6461C49.3484 33.6461 49.2201 33.7195 49.1651 33.8478L48.9451 34.5445C48.8351 34.8194 49.1101 34.7645 49.2018 34.5811C49.2935 34.3978 49.4401 34.1228 49.5318 33.8845C49.6234 33.7195 49.5501 33.6461 49.4584 33.6461V33.6461ZM17.2652 33.7195C17.1186 33.7195 17.1186 33.8478 17.2469 33.9395C17.4119 34.0678 17.6136 34.1961 17.7969 34.3611C18.0352 34.5445 18.1086 34.3611 17.9802 34.2145C17.8702 34.0678 17.7602 33.9211 17.4486 33.7561C17.3752 33.7195 17.3202 33.7195 17.2652 33.7195ZM51.2368 33.7195C51.2001 33.7195 51.1268 33.7195 51.0534 33.7561C50.7601 33.9211 50.6318 34.0678 50.5034 34.2145C50.3934 34.3795 50.4851 34.5445 50.7051 34.3611C50.8884 34.1961 51.1084 34.0678 51.2551 33.9395C51.4018 33.8478 51.3834 33.7195 51.2551 33.7195H51.2368ZM31.1435 33.8478C31.0519 33.8478 30.9969 33.9395 31.0152 34.0678L31.1985 34.7278C31.2352 34.9294 31.4735 34.9294 31.4369 34.7278C31.4002 34.5445 31.3819 34.3061 31.3085 34.0128C31.2902 33.9028 31.2352 33.8478 31.1619 33.8295C31.1558 33.8289 31.1496 33.8289 31.1435 33.8295V33.8478ZM37.3402 33.8478C37.2852 33.8478 37.2302 33.9028 37.1935 34.0311C37.1202 34.3061 37.1018 34.5445 37.0652 34.7461C37.0285 34.9295 37.2668 34.9294 37.3035 34.7278L37.4868 34.0678C37.5235 33.9395 37.4502 33.8478 37.3768 33.8478C37.3647 33.8457 37.3523 33.8457 37.3402 33.8478V33.8478ZM25.6069 33.4811C25.5519 33.4811 25.5152 33.6095 25.5702 33.7928C25.7647 34.3211 25.864 34.8798 25.8635 35.4428C25.8085 35.6628 25.6802 35.6811 25.5152 35.6261C25.3354 35.5374 25.1636 35.4331 25.0019 35.3144C24.8552 35.2228 24.6902 35.3328 24.9102 35.5161C26.0102 36.4328 26.7985 37.4778 27.1102 38.7428C27.1469 38.9994 27.3119 39.0361 27.2752 38.7428C27.0185 37.1478 26.9635 35.8278 27.3485 35.0211C27.4952 34.7095 27.3485 34.4161 27.1285 34.9111C26.9635 35.2411 26.7252 35.3694 26.5235 35.0944C26.2369 34.647 25.9914 34.1746 25.7902 33.6828C25.7535 33.5545 25.6985 33.4995 25.6435 33.4811C25.6375 33.4801 25.6313 33.4801 25.6252 33.4811H25.6069ZM42.8585 33.4811C42.8035 33.4811 42.7485 33.5545 42.7118 33.6645C42.5835 34.0311 42.1801 34.8011 41.9785 35.0944C41.7768 35.3878 41.5385 35.2411 41.3918 34.9111C41.1535 34.4161 41.0251 34.7095 41.1535 35.0211C41.5385 35.8278 41.4835 37.1478 41.2451 38.7428C41.1901 39.0361 41.3551 38.9994 41.4285 38.7428C41.7676 37.4552 42.5294 36.3188 43.5918 35.5161C43.8118 35.3328 43.6468 35.2228 43.5001 35.3328C43.3375 35.4394 43.1657 35.5314 42.9868 35.6078C42.8035 35.6811 42.6935 35.6628 42.6385 35.4244C42.6018 35.2044 42.6751 34.7095 42.9501 33.7745C42.9868 33.6278 42.9501 33.4995 42.8951 33.4811C42.8833 33.4769 42.8703 33.4769 42.8585 33.4811V33.4811ZM20.0336 33.9211C19.9419 33.9211 19.8502 33.9945 19.9052 34.1411C19.9786 34.3978 20.1252 34.6545 20.1802 34.8011C20.2352 34.9661 20.4002 34.8928 20.3636 34.6728L20.2719 34.1045C20.2719 33.9945 20.1436 33.9211 20.0336 33.9211ZM48.4685 33.9211C48.3585 33.9211 48.2485 33.9945 48.2301 34.1045L48.1568 34.6728C48.1201 34.8928 48.2851 34.9661 48.3401 34.8011C48.3768 34.6545 48.5235 34.3978 48.5968 34.1411C48.6518 33.9945 48.5785 33.9211 48.4685 33.9211ZM23.4802 33.6095C23.3702 33.5911 23.3519 33.8845 23.4435 34.0128L23.9569 34.5811C24.1035 34.7645 24.1952 34.5995 24.1035 34.4528L23.6269 33.7561C23.5719 33.6645 23.5169 33.6095 23.4802 33.6095V33.6095ZM45.0218 33.6095C44.9851 33.6095 44.9301 33.6645 44.8751 33.7561L44.3985 34.4528C44.3068 34.5995 44.3985 34.7645 44.5635 34.5811L45.0585 34.0128C45.1501 33.8845 45.1501 33.5911 45.0218 33.6095V33.6095ZM20.8219 34.3428C20.7486 34.3428 20.6936 34.3795 20.7302 34.5261C20.7669 34.7461 20.8219 34.8928 20.8769 35.0944C20.9319 35.2778 21.0602 35.2594 21.0602 35.0761L21.0052 34.4895C20.9972 34.4455 20.9749 34.4055 20.9417 34.3757C20.9085 34.3458 20.8664 34.3278 20.8219 34.3245V34.3428ZM47.6801 34.3428C47.6372 34.3419 47.5954 34.3561 47.5619 34.3829C47.5284 34.4097 47.5054 34.4474 47.4968 34.4895L47.4418 35.0761C47.4418 35.2594 47.5885 35.2961 47.6251 35.0944L47.7901 34.5445C47.8268 34.3795 47.7535 34.3245 47.6801 34.3245V34.3428ZM23.2235 34.5995C23.1135 34.5995 23.0219 34.7278 23.1502 34.8928C23.3519 35.1678 23.5902 35.3511 23.6819 35.4428C23.7552 35.5528 23.9569 35.5161 23.8285 35.3144L23.4069 34.6728C23.3702 34.5995 23.2969 34.5811 23.2235 34.5995ZM45.2235 34.5995C45.1868 34.5995 45.1318 34.6178 45.1135 34.6728L44.6735 35.3144C44.5451 35.5161 44.7468 35.5528 44.8385 35.4611C44.9118 35.3511 45.1501 35.1678 45.3701 34.8928C45.4985 34.7095 45.3885 34.5995 45.2785 34.5995C45.2663 34.5981 45.254 34.5981 45.2418 34.5995H45.2235ZM19.4286 35.3511C19.3552 35.3511 19.3186 35.4244 19.4286 35.5894C19.7117 35.9329 19.918 36.333 20.0336 36.7628C20.0519 37.0194 19.9419 37.0194 19.8319 37.0194C19.4836 37.0194 19.3186 36.7628 19.0252 36.6894C18.7136 36.6344 18.6586 36.7811 18.8786 36.9461C19.9294 37.6107 20.844 38.4693 21.5736 39.4761C21.7569 39.8244 21.9952 39.9344 21.8669 39.6228C21.5107 38.9078 21.3584 38.1086 21.4269 37.3128C21.5186 36.7994 21.6469 36.4694 21.6286 36.1761C21.6286 35.9011 21.4452 35.9194 21.3902 36.1761L21.2069 36.6894C21.1336 36.7811 20.8769 36.8361 20.6569 36.5244C20.3451 36.1418 20.0017 35.7861 19.6302 35.4611C19.5752 35.4061 19.5019 35.3694 19.4469 35.3511H19.4286ZM49.0734 35.3511C49.0184 35.3511 48.9451 35.3878 48.8718 35.4611C48.5068 35.787 48.1695 36.1427 47.8635 36.5244C47.6251 36.8361 47.3685 36.7811 47.3135 36.7078C47.2299 36.5391 47.1682 36.3604 47.1301 36.1761C47.0568 35.9194 46.8918 35.9011 46.8735 36.1761C46.8735 36.4694 46.9835 36.7994 47.0751 37.3128C47.1668 37.8261 47.0751 38.6328 46.6535 39.6228C46.5068 39.9344 46.7635 39.8061 46.9468 39.4761C47.6696 38.4698 48.5781 37.6111 49.6234 36.9461C49.8434 36.7811 49.8068 36.6344 49.4951 36.6894C49.1835 36.7628 49.0185 37.0194 48.6885 37.0194C48.5785 37.0194 48.4501 37.0194 48.4685 36.7628C48.4868 36.5244 48.7984 35.9561 49.0734 35.5894C49.1834 35.4061 49.1651 35.3511 49.0734 35.3511V35.3511Z" fill="black"/>
<path d="M21.0776 41.3832L21.4443 42.5016ZM21.811 41.1632L22.141 42.2999ZM22.6176 41.0166L22.8376 42.1899ZM23.351 40.8882L23.5893 42.0432ZM24.286 40.7966L24.4693 41.9699ZM25.2943 40.7966L25.496 41.9516ZM26.2843 40.4666L26.4309 41.6399ZM27.2009 40.5216L27.3476 41.6949ZM28.0993 40.4116L28.2459 41.5849ZM28.9793 40.3016L29.0709 41.4932ZM29.9509 40.3016L30.0243 41.4932ZM30.8309 40.2466L30.8859 41.4382ZM31.7843 40.1916L31.8393 41.3649ZM32.8843 40.1549L32.9393 41.3466ZM47.4225 41.3832L47.0559 42.5016ZM46.6892 41.1632L46.3775 42.2999ZM45.9009 41.0166L45.6809 42.1899ZM45.1675 40.8882L44.9292 42.0432ZM44.1959 40.7966L44.0126 41.9699ZM43.2059 40.7966L43.0042 41.9699ZM42.2342 40.4666L42.0876 41.6399ZM41.2992 40.5216L41.1526 41.6949ZM40.4192 40.4116L40.2542 41.5849ZM39.5209 40.3016L39.4292 41.4932ZM38.5492 40.3016L38.4759 41.4932ZM37.6876 40.2466L37.6326 41.4382ZM36.7159 40.1916L36.6792 41.3649ZM35.6159 40.1549L35.5792 41.3466ZM34.2593 40.0632V41.3832Z" fill="#FFD83D"/>
<path fill-rule="evenodd" clip-rule="evenodd" d="M34.2596 39.925C34.3355 39.925 34.3971 39.9866 34.3971 40.0625V41.3825C34.3971 41.4585 34.3355 41.52 34.2596 41.52C34.1836 41.52 34.1221 41.4585 34.1221 41.3825V40.0625C34.1221 39.9866 34.1836 39.925 34.2596 39.925ZM32.8782 40.0169C32.9541 40.0134 33.0184 40.072 33.0219 40.1479L33.0769 41.3395C33.0804 41.4154 33.0218 41.4797 32.9459 41.4832C32.8701 41.4867 32.8057 41.4281 32.8022 41.3522L32.7472 40.1606C32.7437 40.0847 32.8024 40.0204 32.8782 40.0169ZM35.6205 40.0168C35.6964 40.0191 35.756 40.0825 35.7537 40.1584L35.717 41.3501C35.7147 41.426 35.6512 41.4856 35.5753 41.4833C35.4994 41.481 35.4398 41.4176 35.4421 41.3416L35.4788 40.15C35.4811 40.0741 35.5446 40.0144 35.6205 40.0168ZM31.7782 40.0535C31.854 40.05 31.9184 40.1086 31.9219 40.1844L31.9769 41.3578C31.9805 41.4336 31.9219 41.498 31.846 41.5016C31.7702 41.5051 31.7058 41.4465 31.7022 41.3706L31.6472 40.1973C31.6437 40.1215 31.7023 40.0571 31.7782 40.0535ZM36.7205 40.0534C36.7964 40.0558 36.856 40.1193 36.8537 40.1952L36.817 41.3685C36.8146 41.4444 36.7512 41.504 36.6753 41.5016C36.5994 41.4993 36.5398 41.4358 36.5421 41.3599L36.5788 40.1866C36.5812 40.1107 36.6446 40.0511 36.7205 40.0534ZM30.8249 40.1085C30.9008 40.105 30.9651 40.1637 30.9686 40.2395L31.0236 41.4312C31.0271 41.5071 30.9685 41.5714 30.8926 41.5749C30.8167 41.5784 30.7524 41.5197 30.7489 41.4439L30.6939 40.2522C30.6904 40.1764 30.7491 40.112 30.8249 40.1085ZM37.6942 40.1085C37.7701 40.112 37.8288 40.1764 37.8253 40.2522L37.7703 41.4439C37.7668 41.5197 37.7024 41.5784 37.6266 41.5749C37.5507 41.5714 37.492 41.5071 37.4955 41.4312L37.5505 40.2395C37.554 40.1637 37.6184 40.105 37.6942 40.1085ZM28.9691 40.1638C29.0448 40.158 29.1109 40.2146 29.1167 40.2903L29.2084 41.482C29.2142 41.5577 29.1575 41.6238 29.0818 41.6296C29.0061 41.6355 28.94 41.5788 28.9342 41.5031L28.8425 40.3114C28.8367 40.2357 28.8933 40.1696 28.9691 40.1638ZM39.5318 40.1638C39.6075 40.1696 39.6641 40.2357 39.6583 40.3114L39.5667 41.5031C39.5608 41.5788 39.4947 41.6355 39.419 41.6296C39.3433 41.6238 39.2866 41.5577 39.2925 41.482L39.3841 40.2903C39.39 40.2146 39.4561 40.158 39.5318 40.1638ZM29.9428 40.1636C30.0186 40.159 30.0838 40.2166 30.0885 40.2924L30.1618 41.4841C30.1665 41.5599 30.1088 41.6251 30.033 41.6298C29.9572 41.6344 29.892 41.5768 29.8874 41.501L29.814 40.3093C29.8094 40.2335 29.867 40.1683 29.9428 40.1636ZM38.558 40.1636C38.6338 40.1683 38.6915 40.2335 38.6868 40.3093L38.6135 41.501C38.6088 41.5768 38.5436 41.6344 38.4678 41.6298C38.392 41.6251 38.3343 41.5599 38.339 41.4841L38.4123 40.2924C38.417 40.2166 38.4822 40.159 38.558 40.1636ZM40.4387 40.2747C40.5139 40.2853 40.5663 40.3548 40.5557 40.43L40.3907 41.6034C40.3801 41.6786 40.3106 41.7309 40.2354 41.7204C40.1602 41.7098 40.1078 41.6403 40.1184 41.5651L40.2834 40.3917C40.294 40.3165 40.3635 40.2641 40.4387 40.2747ZM28.0825 40.2744C28.1579 40.265 28.2266 40.3185 28.236 40.3938L28.3827 41.5672C28.3921 41.6425 28.3387 41.7112 28.2633 41.7206C28.188 41.7301 28.1193 41.6766 28.1098 41.6013L27.9632 40.4279C27.9537 40.3526 28.0072 40.2839 28.0825 40.2744ZM26.2676 40.3294C26.3429 40.32 26.4116 40.3735 26.421 40.4488L26.5677 41.6222C26.5771 41.6975 26.5237 41.7662 26.4483 41.7756C26.373 41.7851 26.3043 41.7316 26.2948 41.6563L26.1482 40.4829C26.1388 40.4076 26.1922 40.3389 26.2676 40.3294ZM42.2516 40.3294C42.327 40.3389 42.3804 40.4076 42.371 40.4829L42.2243 41.6563C42.2149 41.7316 42.1462 41.7851 42.0708 41.7756C41.9955 41.7662 41.942 41.6975 41.9514 41.6222L42.0981 40.4488C42.1075 40.3735 42.1763 40.32 42.2516 40.3294ZM41.3166 40.3844C41.392 40.3939 41.4454 40.4626 41.436 40.5379L41.2893 41.7113C41.2799 41.7866 41.2112 41.8401 41.1358 41.8306C41.0605 41.8212 41.007 41.7525 41.0164 41.6772L41.1631 40.5038C41.1725 40.4285 41.2413 40.375 41.3166 40.3844ZM27.1842 40.3844C27.2596 40.375 27.3283 40.4285 27.3377 40.5038L27.4844 41.6772C27.4938 41.7525 27.4403 41.8212 27.365 41.8306C27.2896 41.8401 27.2209 41.7866 27.2115 41.7113L27.0648 40.5379C27.0554 40.4626 27.1089 40.3939 27.1842 40.3844ZM25.271 40.6604C25.3458 40.6474 25.417 40.6974 25.4301 40.7722L25.6317 41.9272C25.6448 42.002 25.5947 42.0733 25.5199 42.0863C25.4451 42.0994 25.3739 42.0493 25.3608 41.9745L25.1592 40.8195C25.1461 40.7447 25.1962 40.6735 25.271 40.6604ZM43.2295 40.6604C43.3043 40.6732 43.3546 40.7443 43.3417 40.8192L43.1401 41.9925C43.1272 42.0673 43.0561 42.1176 42.9813 42.1047C42.9064 42.0919 42.8562 42.0208 42.869 41.9459L43.0707 40.7726C43.0836 40.6977 43.1547 40.6475 43.2295 40.6604ZM24.2651 40.66C24.3401 40.6483 24.4104 40.6996 24.4221 40.7747L24.6055 41.948C24.6172 42.023 24.5659 42.0933 24.4908 42.1051C24.4158 42.1168 24.3455 42.0655 24.3338 41.9904L24.1504 40.8171C24.1387 40.7421 24.19 40.6718 24.2651 40.66ZM44.2174 40.66C44.2925 40.6718 44.3438 40.7421 44.3321 40.8171L44.1487 41.9904C44.137 42.0655 44.0667 42.1168 43.9917 42.1051C43.9166 42.0933 43.8653 42.023 43.877 41.948L44.0604 40.7747C44.0721 40.6996 44.1424 40.6483 44.2174 40.66ZM23.3235 40.7529C23.3979 40.7375 23.4706 40.7854 23.486 40.8598L23.7243 42.0148C23.7396 42.0891 23.6918 42.1619 23.6174 42.1772C23.543 42.1926 23.4703 42.1447 23.455 42.0703L23.2166 40.9153C23.2013 40.841 23.2491 40.7682 23.3235 40.7529ZM45.1957 40.7529C45.27 40.7682 45.3179 40.841 45.3025 40.9153L45.0642 42.0703C45.0489 42.1447 44.9761 42.1926 44.9018 42.1772C44.8274 42.1619 44.7795 42.0891 44.7949 42.0148L45.0332 40.8598C45.0486 40.7854 45.1213 40.7375 45.1957 40.7529ZM22.5926 40.8807C22.6673 40.8667 22.7391 40.9159 22.7531 40.9905L22.9731 42.1639C22.9871 42.2385 22.9379 42.3104 22.8633 42.3244C22.7887 42.3383 22.7168 42.2892 22.7028 42.2145L22.4828 41.0412C22.4688 40.9666 22.518 40.8947 22.5926 40.8807ZM45.9265 40.8807C46.0012 40.8947 46.0503 40.9666 46.0363 41.0412L45.8163 42.2145C45.8024 42.2892 45.7305 42.3383 45.6559 42.3244C45.5812 42.3104 45.5321 42.2385 45.5461 42.1639L45.7661 40.9905C45.7801 40.9159 45.8519 40.8667 45.9265 40.8807ZM21.773 41.0305C21.8459 41.0093 21.9222 41.0513 21.9433 41.1242L22.2733 42.2609C22.2945 42.3338 22.2526 42.4101 22.1796 42.4313C22.1067 42.4524 22.0304 42.4105 22.0092 42.3375L21.6792 41.2009C21.6581 41.128 21.7 41.0517 21.773 41.0305ZM46.7259 41.0299C46.7991 41.05 46.8422 41.1257 46.8221 41.1989L46.5105 42.3356C46.4904 42.4088 46.4147 42.4519 46.3415 42.4318C46.2683 42.4117 46.2252 42.3361 46.2453 42.2628L46.5569 41.1262C46.577 41.0529 46.6527 41.0099 46.7259 41.0299ZM21.0351 41.2519C21.1073 41.2282 21.185 41.2675 21.2086 41.3397L21.5753 42.458C21.5989 42.5302 21.5596 42.6079 21.4875 42.6315C21.4153 42.6552 21.3376 42.6159 21.314 42.5437L20.9473 41.4254C20.9237 41.3532 20.963 41.2755 21.0351 41.2519ZM47.4657 41.2519C47.5379 41.2755 47.5772 41.3532 47.5535 41.4254L47.1869 42.5437C47.1632 42.6159 47.0855 42.6552 47.0134 42.6315C46.9412 42.6079 46.9019 42.5302 46.9255 42.458L47.2922 41.3397C47.3159 41.2675 47.3935 41.2282 47.4657 41.2519Z" fill="black"/>
</g>
<defs>
<clipPath id="clip0_5158_359866">
<rect x="0.867188" y="0.238037" width="110" height="110" rx="55" fill="white"/>
</clipPath>
</defs>
</svg>
