<svg width="111" height="111" viewBox="0 0 111 111" fill="none" xmlns="http://www.w3.org/2000/svg">
<g clip-path="url(#clip0_5158_358848)">
<path d="M0.44873 0.843262H110.449V110.843H0.44873V0.843262Z" fill="#CC0000"/>
<path d="M0.535156 9.97363H110.363V18.7822H0.535156V9.97363ZM0.535156 28.0205H110.363V36.8291H0.535156V28.0205ZM0.535156 46.0889H110.363V54.8975H0.535156V46.0889Z" fill="white"/>
<path d="M0.44873 0.843262H55.4487V65.0171H0.44873V0.843262Z" fill="#000066"/>
<path d="M38.5429 20.5089L39.661 28.1141L43.9736 21.7433L41.6576 29.0697L48.3063 25.2074L43.0352 30.8018L50.7222 30.2045L43.5344 32.952L50.7222 35.7392L43.0352 35.122L48.3063 40.6965L41.6376 36.874L43.9537 44.1805L39.641 37.8296L38.5229 45.4149L37.4048 37.8495L33.1121 44.1805L35.4082 36.874L28.7795 40.7363L34.0305 35.1419L26.3636 35.7392L33.5513 32.9719L26.3636 30.2045L34.0305 30.8217L28.7795 25.2273L35.4082 29.0896L33.1321 21.7433L37.4248 28.1141L38.5429 20.5089ZM32.3135 20.8275C30.2859 19.9288 28.0652 19.5495 25.8533 19.7241C23.6413 19.8987 21.5082 20.6217 19.6476 21.8272C17.7871 23.0328 16.2582 24.6829 15.1997 26.6274C14.1412 28.572 13.5868 30.7494 13.5868 32.9619C13.5868 35.1744 14.1412 37.3519 15.1997 39.2964C16.2582 41.241 17.7871 42.891 19.6476 44.0966C21.5082 45.3022 23.6413 46.0251 25.8533 46.1997C28.0652 46.3743 30.2859 45.995 32.3135 45.0964C30.0756 46.6964 27.4386 47.6502 24.6924 47.8528C21.9462 48.0555 19.1971 47.4991 16.7475 46.2449C14.2978 44.9907 12.2424 43.0872 10.8073 40.7438C9.37211 38.4004 8.61279 35.7077 8.61279 32.9619C8.61279 30.2161 9.37211 27.5234 10.8073 25.18C12.2424 22.8366 14.2978 20.9331 16.7475 19.6789C19.1971 18.4247 21.9462 17.8684 24.6924 18.071C27.4386 18.2736 30.0756 19.2274 32.3135 20.8275V20.8275Z" fill="#FFCC00"/>
<path d="M0.534668 64.1357H110.363V72.9443H0.534668V64.1357ZM0.534668 82.0752H110.363V90.8838H0.534668V82.0752ZM0.44873 102.034H110.277V110.843H0.44873V102.034Z" fill="white"/>
</g>
<defs>
<clipPath id="clip0_5158_358848">
<rect x="0.44873" y="0.843262" width="110" height="110" rx="55" fill="white"/>
</clipPath>
</defs>
</svg>
