<svg width="111" height="111" viewBox="0 0 111 111" fill="none" xmlns="http://www.w3.org/2000/svg">
<g clip-path="url(#clip0_5158_359695)">
<path fill-rule="evenodd" clip-rule="evenodd" d="M0.45752 0.843262H37.1313V110.843H0.45752V0.843262Z" fill="#00319C"/>
<path fill-rule="evenodd" clip-rule="evenodd" d="M37.1313 0.843262H73.7837V110.843H37.1313V0.843262Z" fill="#FFDE00"/>
<path fill-rule="evenodd" clip-rule="evenodd" d="M73.7837 0.843262H110.458V110.843H73.7837V0.843262Z" fill="#DE2110"/>
<path fill-rule="evenodd" clip-rule="evenodd" d="M62.6902 69.9201L66.9226 76.0266C67.1618 76.3717 67.3943 76.7072 67.0432 76.9294C66.682 77.158 66.796 78.0512 67.0352 78.3964C67.5069 79.077 68.0972 79.1999 68.4484 78.9777L71.6587 76.946C72.0098 76.7237 72.1217 76.1564 71.65 75.4758C71.3841 75.1338 70.5945 74.6818 70.2434 74.9041C69.8823 75.1326 69.6497 74.7971 69.4172 74.4616L65.1715 68.3359" fill="#FF1900"/>
<path fill-rule="evenodd" clip-rule="evenodd" d="M65.2367 68.294L69.4824 74.4197C69.6013 74.5912 69.7097 74.746 69.8288 74.8335C69.8863 74.8757 69.9414 74.8985 69.9972 74.9018C70.0526 74.9051 70.1182 74.8899 70.1976 74.8396C70.3072 74.7703 70.4442 74.7575 70.5822 74.7754C70.7209 74.7933 70.8693 74.843 71.0115 74.9093C71.2943 75.0411 71.5698 75.2467 71.7126 75.4304L71.7139 75.4321L71.7152 75.4339C72.1987 76.1315 72.1066 76.7546 71.7022 77.0105L68.492 79.0422C68.0876 79.2981 67.4513 79.1359 66.9678 78.4383C66.8372 78.2499 66.7467 77.9247 66.7331 77.6213C66.7262 77.4683 66.7386 77.3157 66.778 77.1841C66.8172 77.0533 66.8857 76.9356 66.9974 76.865C67.074 76.8165 67.1121 76.7663 67.1292 76.7176C67.1465 76.6681 67.1454 76.611 67.1261 76.5433C67.0862 76.4034 66.9774 76.2449 66.8552 76.0686L62.6228 69.9621L62.7554 69.8782L66.9931 75.9924C67.1086 76.159 67.2326 76.3378 67.2802 76.5049C67.3051 76.5921 67.3112 76.682 67.2808 76.7688C67.2502 76.8562 67.1858 76.9313 67.0868 76.9939C67.0179 77.0376 66.9652 77.1173 66.9317 77.229C66.8984 77.34 66.8865 77.4751 66.8928 77.6172C66.9057 77.9037 66.9918 78.1978 67.1004 78.3544C67.5604 79.0181 68.1047 79.1018 68.4026 78.9132L71.6129 76.8815C71.9105 76.6931 72.0423 76.1824 71.5838 75.5196C71.4602 75.3616 71.2089 75.1711 70.9437 75.0475C70.8113 74.9858 70.6799 74.9429 70.5635 74.9278C70.4464 74.9127 70.353 74.9268 70.287 74.9686C70.1859 75.0326 70.087 75.0612 69.9899 75.0554C69.8933 75.0496 69.808 75.0103 69.7331 74.9553C69.5898 74.85 69.4673 74.6732 69.3551 74.5113L65.1041 68.3779L65.2367 68.294Z" fill="black"/>
<path fill-rule="evenodd" clip-rule="evenodd" d="M64.3311 65.5996C66.2212 67.7465 66.8787 70.208 65.8014 71.0741C64.7241 71.9401 62.2987 70.8997 60.4086 68.7528C58.5185 66.6059 57.8702 64.137 58.9475 63.271C60.0248 62.405 62.4425 63.4366 64.3403 65.5922L64.3311 65.5996Z" fill="#A77B3B"/>
<path fill-rule="evenodd" clip-rule="evenodd" d="M58.7435 65.4896C58.9989 66.4521 59.6178 67.5822 60.5483 68.6392C61.4791 69.6964 62.5362 70.4744 63.4827 70.8813C64.4428 71.2942 65.2253 71.3021 65.6785 70.9378C66.1316 70.5735 66.2574 69.8354 65.9961 68.8609C65.7385 67.9002 65.1172 66.7718 64.1865 65.7146L64.066 65.5777L64.074 65.5712C63.17 64.579 62.1631 63.8501 61.2586 63.4618C60.2999 63.0502 59.519 63.0441 59.0656 63.4086C58.6122 63.773 58.4845 64.5133 58.7435 65.4896ZM64.5902 65.6239L64.6006 65.6155L64.4801 65.4786C63.5169 64.3846 62.4163 63.5689 61.409 63.1365C60.4151 62.7098 59.4484 62.6332 58.8245 63.1347C58.2006 63.6363 58.1139 64.5635 58.3822 65.5749C58.6542 66.6 59.3045 67.7778 60.264 68.8677C61.2234 69.9574 62.324 70.7731 63.3321 71.2065C64.3265 71.6341 65.2954 71.7134 65.9195 71.2116C66.5437 70.7099 66.6278 69.7842 66.3571 68.7748C66.0943 67.7945 65.4844 66.6743 64.5902 65.6239Z" fill="black"/>
<path fill-rule="evenodd" clip-rule="evenodd" d="M45.4975 67.4191L41.761 73.8141C41.5499 74.1755 41.3446 74.5269 40.9768 74.3307C40.5986 74.1289 39.8203 74.6355 39.6091 74.9969C39.1927 75.7097 39.3492 76.2673 39.7169 76.4635L43.079 78.2571C43.4467 78.4532 44.0256 78.288 44.442 77.5752C44.638 77.1926 44.6961 76.3149 44.3283 76.1187C43.9501 75.9169 44.1554 75.5656 44.3607 75.2142L48.1089 68.7991" fill="#FF1900"/>
<path fill-rule="evenodd" clip-rule="evenodd" d="M48.1784 68.8359L44.4303 75.2509C44.3253 75.4306 44.2312 75.5936 44.2045 75.7348C44.1916 75.8028 44.1958 75.86 44.2183 75.9089C44.2406 75.9575 44.2849 76.0063 44.3683 76.0508C44.4828 76.1119 44.5575 76.2222 44.6042 76.3476C44.6512 76.4735 44.6731 76.6224 44.6767 76.7735C44.6838 77.0742 44.619 77.4026 44.5137 77.6082L44.5127 77.6101L44.5116 77.612C44.0845 78.343 43.4627 78.5503 43.0398 78.3246L39.6777 76.531C39.2548 76.3054 39.1132 75.6908 39.5403 74.9598C39.6557 74.7622 39.9166 74.5362 40.1926 74.3854C40.3317 74.3094 40.4793 74.2498 40.6197 74.223C40.7594 74.1963 40.9001 74.2005 41.0168 74.2628C41.0971 74.3056 41.1614 74.315 41.2147 74.3071C41.2686 74.2991 41.3212 74.272 41.3751 74.2246C41.4868 74.1266 41.5843 73.9617 41.6922 73.777L45.4286 67.382L45.567 67.4559L41.8258 73.859C41.7239 74.0335 41.6145 74.2208 41.4809 74.338C41.4112 74.3992 41.3302 74.4456 41.2357 74.4596C41.1404 74.4737 41.0412 74.4535 40.9376 74.3982C40.8652 74.3596 40.7668 74.3515 40.6476 74.3743C40.529 74.397 40.398 74.4488 40.2688 74.5194C40.0083 74.6618 39.7744 74.8698 39.6787 75.0336C39.2729 75.7282 39.4444 76.2288 39.7569 76.3955L43.1189 78.1892C43.4311 78.3557 43.9664 78.2329 44.3721 77.54C44.4622 77.3627 44.524 77.0621 44.5172 76.7802C44.5139 76.6396 44.4936 76.5083 44.4541 76.4025C44.4144 76.2962 44.3585 76.2232 44.2891 76.1863C44.1834 76.1298 44.1115 76.0591 44.0724 75.974C44.0334 75.8894 44.0308 75.7989 44.0477 75.71C44.0798 75.5399 44.1881 75.3547 44.2871 75.1852L48.04 68.762L48.1784 68.8359Z" fill="black"/>
<path fill-rule="evenodd" clip-rule="evenodd" d="M57.5694 62.9722H54.1641C54.0438 63.0871 53.0812 69.1811 52.0343 71.5267C50.7589 74.3782 46.9204 76.8963 46.9204 76.8963C46.9204 76.8963 49.2066 77.5861 49.9045 78.0461C50.073 78.0001 53.7309 77.2297 54.1641 72.757C54.5853 77.2297 51.6011 79.2648 51.6011 79.2648C51.6011 79.2648 55.8728 80.4836 55.8728 83.3466C55.8728 80.4951 60.1324 79.2648 60.1324 79.2648C60.1324 79.2648 57.9905 77.2297 57.5694 72.7455C58.4117 77.2297 61.6605 78.0001 61.841 78.0346C62.5269 77.5861 64.8131 76.8848 64.8131 76.8848C64.8131 76.8848 60.9867 74.3897 59.7112 71.5267C58.6644 69.1926 57.6897 63.0757 57.5814 62.9722H57.5694Z" fill="#A77B3B"/>
<path fill-rule="evenodd" clip-rule="evenodd" d="M54.0898 62.7896H57.6533L57.7061 62.8401C57.7335 62.8662 57.7472 62.8955 57.7508 62.9033L57.751 62.9038C57.757 62.9165 57.7617 62.9292 57.7652 62.9396C57.7725 62.9607 57.7797 62.9861 57.7868 63.0133C57.8012 63.0683 57.8184 63.1436 57.8381 63.2351C57.8776 63.4187 57.9289 63.6768 57.9903 63.9887C58.0045 64.0609 58.0193 64.136 58.0346 64.2139C58.1518 64.81 58.3002 65.5652 58.4715 66.3749C58.8604 68.2127 59.3623 70.3057 59.8763 71.4518L59.8765 71.4522C60.4978 72.8467 61.7488 74.165 62.8596 75.1422C63.4128 75.6287 63.9267 76.0267 64.3021 76.303C64.4898 76.4411 64.6427 76.5487 64.7484 76.6215C64.8013 76.658 64.8423 76.6857 64.87 76.7042C64.8839 76.7135 64.8944 76.7205 64.9013 76.7251L64.9091 76.7302L64.9114 76.7317L65.2378 76.9445L64.8653 77.0588L64.865 77.0589L64.859 77.0607L64.84 77.0666C64.8233 77.0718 64.7986 77.0795 64.7669 77.0894C64.7035 77.1093 64.612 77.1383 64.5 77.1745C64.276 77.247 63.9703 77.3481 63.6436 77.4632C62.9807 77.6965 62.2604 77.9771 61.9396 78.1869L61.8779 78.2272L61.8056 78.2133C61.6308 78.1799 59.4962 77.6661 58.191 75.1653C58.4709 76.1752 58.8286 76.9828 59.1673 77.5986C59.456 78.1235 59.731 78.5095 59.9326 78.763C60.0334 78.8898 60.1158 78.9834 60.1723 79.0448C60.2006 79.0754 60.2224 79.098 60.2367 79.1125C60.241 79.1168 60.2445 79.1204 60.2475 79.1233C60.2495 79.1253 60.2512 79.127 60.2526 79.1284L60.2562 79.1319L60.2567 79.1324L60.2569 79.1325L60.4873 79.3515L60.1818 79.4397L60.1814 79.4398L60.1795 79.4404L60.1712 79.4428C60.1638 79.445 60.1524 79.4485 60.1375 79.4531C60.1075 79.4625 60.0631 79.4766 60.0063 79.4958C59.8926 79.534 59.7294 79.5921 59.5333 79.6706C59.1406 79.8278 58.6185 80.0662 58.0978 80.3908C57.0458 81.0468 56.0539 82.0198 56.0539 83.3463H55.6892C55.6892 82.0142 54.6944 81.0412 53.6396 80.3867C53.1175 80.0628 52.5939 79.8255 52.2001 79.6692C52.0034 79.5911 51.8398 79.5335 51.7258 79.4955C51.6688 79.4765 51.6243 79.4624 51.5943 79.4532C51.5793 79.4486 51.5679 79.4452 51.5604 79.4429L51.5521 79.4405L51.5499 79.4399L51.1758 79.3331L51.497 79.114L51.4972 79.1139L51.4981 79.1133L51.5031 79.1098C51.5079 79.1064 51.5153 79.1011 51.5253 79.0937C51.5452 79.0791 51.5752 79.0565 51.6137 79.0258C51.6906 78.9645 51.8014 78.871 51.9337 78.7448C52.1985 78.4921 52.5487 78.1087 52.8864 77.5886C53.3662 76.8497 53.822 75.8333 53.9707 74.5192C52.9325 77.4817 50.2897 78.1375 49.976 78.2154C49.9647 78.2182 49.9564 78.2203 49.9513 78.2216L49.8718 78.2433L49.803 78.198C49.4765 77.9829 48.7536 77.7024 48.0894 77.4705C47.762 77.3562 47.4561 77.2562 47.2319 77.1846C47.1198 77.1489 47.0283 77.1203 46.9649 77.1007C46.9332 77.0909 46.9085 77.0833 46.8918 77.0782L46.8728 77.0724L46.868 77.071L46.8666 77.0705L46.4927 76.9577L46.8192 76.7435L46.8196 76.7432L46.8215 76.742L46.8293 76.7368C46.8363 76.7321 46.8469 76.7251 46.8608 76.7158C46.8886 76.697 46.9297 76.669 46.9828 76.6323C47.0889 76.5588 47.2423 76.4504 47.4305 76.3113C47.8071 76.033 48.3226 75.6325 48.8773 75.1437C49.9914 74.1621 51.2454 72.8409 51.8667 71.4519C52.3808 70.3 52.8797 68.2099 53.267 66.375C53.429 65.6079 53.5705 64.89 53.685 64.3096C53.7069 64.1984 53.7278 64.0923 53.7477 63.9918C53.8094 63.68 53.8613 63.4216 53.9017 63.2373C53.9218 63.1455 53.9395 63.0695 53.9546 63.0136C53.9621 62.986 53.9698 62.96 53.9776 62.9382C53.9815 62.9274 53.9865 62.9145 53.9929 62.9015C53.997 62.8931 54.0106 62.8652 54.0369 62.8401L54.0898 62.7896ZM47.331 76.8335C47.3349 76.8348 47.3388 76.836 47.3427 76.8373C47.569 76.9094 47.8782 77.0106 48.2096 77.1263C48.8247 77.341 49.5423 77.6144 49.9343 77.85C50.4897 77.7066 53.5894 76.7871 53.9814 72.7391L54.3444 72.7396C54.5593 75.0223 53.9049 76.6897 53.1922 77.7872C52.8366 78.335 52.4671 78.7399 52.1855 79.0086C52.1095 79.0811 52.0398 79.1438 51.9785 79.1967C52.0791 79.2322 52.1994 79.2766 52.3346 79.3303C52.7417 79.4919 53.2861 79.7383 53.8318 80.0769C54.6523 80.586 55.5074 81.3239 55.8719 82.3194C56.236 81.3281 57.0877 80.591 57.9049 80.0814C58.4491 79.7421 58.9919 79.4946 59.3978 79.3321C59.5564 79.2686 59.6945 79.2179 59.8041 79.1796C59.7581 79.1264 59.7054 79.0632 59.6472 78.9899C59.434 78.7218 59.1473 78.3187 58.8478 77.7743C58.2487 76.685 57.5997 75.0312 57.3866 72.7622L57.7473 72.7115C58.5157 76.8021 61.3233 77.7145 61.8075 77.8396C62.1935 77.6091 62.9085 77.3354 63.5225 77.1192C63.853 77.0029 64.1618 76.9007 64.3878 76.8276C64.3921 76.8262 64.3963 76.8248 64.4006 76.8235C64.3115 76.7606 64.2056 76.6847 64.086 76.5967C63.7041 76.3157 63.1817 75.911 62.6188 75.4159C61.4977 74.4298 60.1978 73.0692 59.5436 71.6008C59.0108 70.4128 58.502 68.2803 58.1148 66.4504C57.9429 65.6379 57.7939 64.8801 57.6768 64.2841C57.6615 64.2063 57.6468 64.1312 57.6326 64.0592C57.571 63.7466 57.5203 63.4916 57.4816 63.3117C57.4681 63.2488 57.4563 63.1962 57.4462 63.1542H54.2949C54.2844 63.1968 54.272 63.2505 54.2579 63.3152C54.2184 63.4954 54.1672 63.7502 54.1054 64.0626C54.0856 64.1627 54.0647 64.2686 54.0428 64.3796C53.9284 64.9599 53.7863 65.6806 53.6238 66.4503C53.2381 68.2775 52.7323 70.4071 52.1996 71.6007C51.5454 73.0633 50.2424 74.427 49.1184 75.4173C48.554 75.9145 48.0301 76.3216 47.6472 76.6046C47.5269 76.6934 47.4205 76.7701 47.331 76.8335Z" fill="black"/>
<path fill-rule="evenodd" clip-rule="evenodd" d="M43.0659 42.5877L49.4673 44.6228C50.5729 44.5527 51.6143 44.1014 52.3977 43.3527C53.1812 42.604 53.6536 41.609 53.7269 40.5525C53.7991 36.0223 52.0183 34.4356 51.5971 34.4356L52.4394 33.6307L51.176 32.389C51.176 32.389 51.6092 30.2733 55.8688 30.3538C60.1284 30.4343 60.1284 32.389 60.1284 34.4241C60.1284 36.4707 57.9986 36.4707 57.9986 40.541C58.0748 41.5985 58.5496 42.5937 59.3351 43.3421C60.1205 44.0906 61.1634 44.5415 62.2702 44.6113L68.6596 42.5762V62.9736H43.0659V42.5877Z" fill="#A77B3B"/>
<path fill-rule="evenodd" clip-rule="evenodd" d="M51.3821 32.3378L52.7006 33.6337L51.9286 34.3714C52.0264 34.432 52.1331 34.5165 52.2443 34.625C52.4857 34.8605 52.7568 35.2173 53.0088 35.7139C53.5135 36.708 53.9449 38.2676 53.9084 40.5566L53.9084 40.5615L53.908 40.5663C53.8314 41.6692 53.3384 42.7064 52.5229 43.4857C51.7076 44.2647 50.6255 44.7332 49.4781 44.8059L49.4439 44.8081L43.2474 42.8381V62.7925H68.4765V42.8268L62.2921 44.7966L62.2579 44.7944C61.1093 44.722 60.0258 44.254 59.2085 43.4753C58.3911 42.6964 57.8955 41.6591 57.8159 40.5553L57.8155 40.5488V40.5422C57.8155 38.4661 58.3615 37.4127 58.9131 36.6207C59.0093 36.4824 59.1034 36.3546 59.1931 36.2326C59.6181 35.6549 59.9453 35.2102 59.9453 34.4253C59.9453 33.3917 59.9389 32.4592 59.4463 31.7624C58.9646 31.081 57.9748 30.5771 55.8645 30.5372C53.7649 30.4976 52.6376 30.9993 52.039 31.484C51.7388 31.7271 51.5664 31.9699 51.4696 32.1479C51.4278 32.2248 51.4 32.2898 51.3821 32.3378ZM51.1752 32.3901L50.9966 32.3535L50.9767 32.4507L52.1767 33.6301L51.1417 34.6191H51.5963C51.5963 34.6191 51.5963 34.6191 51.5963 34.6191C51.5974 34.6191 51.608 34.6199 51.6299 34.6277C51.6527 34.6357 51.6827 34.6494 51.7193 34.671C51.7928 34.7141 51.8851 34.784 51.9896 34.886C52.1983 35.0895 52.4469 35.4125 52.6837 35.8789C53.1564 36.8101 53.579 38.3074 53.5439 40.5459C53.4727 41.5541 53.0213 42.5051 52.271 43.2221C51.5273 43.9327 50.54 44.3653 49.4888 44.4398L42.8828 42.3396V63.1571H68.8411V42.3279L62.247 44.4283C61.1946 44.3541 60.2057 43.9218 59.4601 43.2113C58.7082 42.4949 58.2544 41.5443 58.1801 40.5356C58.1812 38.5459 58.6995 37.5655 59.2123 36.829C59.2975 36.7066 59.3848 36.5887 59.471 36.4722C59.9033 35.8883 60.3099 35.339 60.3099 34.4253V34.3926C60.31 33.4006 60.31 32.3525 59.744 31.5519C59.1608 30.727 58.0207 30.2133 55.8714 30.1727C53.7114 30.1319 52.4924 30.6477 51.8095 31.2007C51.469 31.4764 51.2668 31.7575 51.1493 31.9737C51.0906 32.0816 51.0532 32.173 51.03 32.2392C51.0185 32.2723 51.0105 32.2991 51.0052 32.3185C51.0026 32.3282 51.0006 32.3361 50.9992 32.3419C50.9985 32.3449 50.9979 32.3473 50.9975 32.3493L50.997 32.3518L50.9968 32.3528L50.9967 32.3532C50.9966 32.3534 50.9966 32.3535 51.1752 32.3901Z" fill="black"/>
<path fill-rule="evenodd" clip-rule="evenodd" d="M53.7223 43.3555L54.1517 44.5932L55.0051 43.3674L55.4169 44.6439L55.8508 43.3616L56.4822 44.6575L57.1337 43.3625L57.5563 44.5807L57.9703 43.3951L57.998 43.4048L57.5562 44.6697L57.1287 43.4375L56.4818 44.7235L55.8556 43.4384L55.4162 44.7371L54.9954 43.4326L54.1429 44.6571L53.7222 43.4445L53.2943 44.6697L52.8555 43.4048L52.8831 43.3952L53.2944 44.5807L53.7223 43.3555Z" fill="black"/>
<path fill-rule="evenodd" clip-rule="evenodd" d="M53.71 43.4002L54.5643 38.916L54.5989 38.9226L53.7446 43.4068L53.71 43.4002ZM57.115 43.4052L56.6938 38.921L56.729 38.9177L57.1501 43.4019L57.115 43.4052ZM57.9693 43.4052L57.5482 38.921L57.5833 38.9177L58.0045 43.4019L57.9693 43.4052ZM54.9851 43.4035V38.9193H55.0204V43.4035H54.9851ZM55.8394 43.4035V38.9193H55.8747V43.4035H55.8394Z" fill="black"/>
<path fill-rule="evenodd" clip-rule="evenodd" d="M38.8052 30.3652C34.5456 32.4004 34.5456 36.4822 34.5456 38.5173C34.69 40.3685 34.5456 79.2548 34.5456 79.2548C34.5456 79.2548 34.8223 76.9552 36.6754 75.1845L38.7931 73.1493L40.9229 71.1142C42.4872 69.7574 43.0527 67.0324 43.0527 64.9972V36.4822C43.0527 36.4822 43.0527 34.4355 38.7931 30.3652H38.8052Z" fill="#A77B3B"/>
<path fill-rule="evenodd" clip-rule="evenodd" d="M38.8366 30.3198L38.8055 30.1826H38.3387L38.4837 30.3211C34.3635 32.443 34.3636 36.5123 34.3636 38.5066V38.5241L34.3641 38.5312C34.3995 38.9849 34.4177 41.7513 34.4245 45.6635C34.4312 49.5691 34.4267 54.6032 34.4177 59.5796C34.4087 64.556 34.3952 69.4745 34.3839 73.149C34.3782 74.9862 34.3732 76.5124 34.3695 77.5793C34.3677 78.1128 34.3662 78.5314 34.3652 78.8166L34.3636 79.2533C34.3636 79.2536 34.3636 79.2538 34.5459 79.2545L34.3636 79.2538L34.7257 79.2762C34.7269 79.2763 34.7269 79.2763 34.7269 79.2763L34.727 79.2756L34.7275 79.2716C34.728 79.2679 34.7288 79.262 34.7299 79.2541C34.7322 79.2383 34.7358 79.2142 34.7412 79.1825C34.7518 79.1192 34.7693 79.0258 34.7959 78.9076C34.8493 78.6713 34.9395 78.3368 35.0864 77.9478C35.3806 77.169 35.9002 76.1774 36.8016 75.316L38.9198 73.2805L41.0461 71.2487C41.8621 70.5393 42.4073 69.4842 42.7491 68.363C43.0921 67.238 43.2354 66.0297 43.2354 64.9969V36.4819H43.053C43.2354 36.4819 43.2354 36.4817 43.2354 36.4815L43.2353 36.481L43.2353 36.48L43.2353 36.4774C43.2353 36.4754 43.2352 36.4729 43.2351 36.47C43.2349 36.464 43.2346 36.456 43.2339 36.4461C43.2326 36.4261 43.2302 36.3983 43.2255 36.3625C43.2162 36.2908 43.1981 36.1875 43.1629 36.0525C43.0926 35.7826 42.9542 35.3868 42.6822 34.8654C42.1384 33.8232 41.0598 32.2784 38.9194 30.2331L38.8366 30.3198ZM38.763 30.5884C34.7402 32.5868 34.7282 36.4867 34.7282 38.5101C34.7646 39.0027 34.7824 41.7829 34.7891 45.6629C34.7959 49.5691 34.7914 54.6037 34.7823 59.5803C34.7733 64.5569 34.7598 69.4756 34.7485 73.1501C34.7429 74.9874 34.7378 76.5137 34.7341 77.5806C34.7338 77.6744 34.7335 77.7647 34.7332 77.8513C34.7372 77.8405 34.7412 77.8297 34.7453 77.8189C35.0527 77.0052 35.598 75.962 36.5493 75.0527" fill="black"/>
<path fill-rule="evenodd" clip-rule="evenodd" d="M40.938 36.2358L38.8068 38.2724L36.677 36.2372L34.4212 38.3927L34.6732 38.6564L36.677 36.7416L38.8068 38.7767L40.9352 36.7429C40.9885 36.7949 41.0567 36.8613 41.1354 36.938C41.3314 37.1289 41.5933 37.3835 41.8567 37.6381C42.1201 37.8926 42.3854 38.1475 42.5881 38.3391C42.6893 38.4347 42.7757 38.5153 42.8388 38.5723C42.87 38.6006 42.897 38.6244 42.9178 38.6418C42.9279 38.6501 42.939 38.6591 42.9495 38.6667C42.9545 38.6702 42.9628 38.6761 42.9729 38.6818C42.9778 38.6846 42.9866 38.6892 42.9977 38.6937C43.0055 38.6968 43.0315 38.7069 43.0664 38.7069V38.3422C43.1005 38.3422 43.1255 38.3521 43.132 38.3547C43.142 38.3586 43.1492 38.3626 43.1524 38.3644C43.1562 38.3665 43.1588 38.3682 43.1601 38.3691C43.1615 38.37 43.1624 38.3706 43.1625 38.3707C43.1628 38.3709 43.162 38.3704 43.1598 38.3686C43.1577 38.3669 43.1549 38.3646 43.1512 38.3616C43.1362 38.3491 43.1136 38.3292 43.0833 38.3019C43.0233 38.2476 42.9392 38.1692 42.8385 38.074C42.6374 37.884 42.3732 37.6302 42.1101 37.3759C41.8471 37.1217 41.5856 36.8675 41.3898 36.6768C41.2919 36.5814 41.2104 36.502 41.1535 36.4464L41.0641 36.3591C41.0641 36.3591 41.064 36.359 40.9366 36.4894L41.0641 36.3591L40.938 36.2358Z" fill="black"/>
<path fill-rule="evenodd" clip-rule="evenodd" d="M40.938 42.8359L38.8068 40.7994L36.677 42.8346L34.4212 40.679L34.6732 40.4154L36.677 42.3302L38.8068 40.2951L40.9352 42.3289C40.9885 42.2769 41.0567 42.2105 41.1354 42.1338C41.3314 41.9429 41.5933 41.6883 41.8567 41.4337C42.1201 41.1792 42.3854 40.9242 42.5881 40.7327C42.6893 40.6371 42.7757 40.5565 42.8388 40.4995C42.87 40.4712 42.897 40.4473 42.9178 40.43C42.9279 40.4217 42.939 40.4127 42.9495 40.4051C42.9545 40.4015 42.9628 40.3957 42.9729 40.39C42.9778 40.3872 42.9866 40.3825 42.9977 40.3781C43.0055 40.375 43.0315 40.3649 43.0664 40.3649V40.7296C43.1005 40.7296 43.1255 40.7197 43.132 40.7171C43.142 40.7132 43.1492 40.7092 43.1524 40.7074C43.1562 40.7053 43.1588 40.7036 43.1601 40.7027C43.1615 40.7018 43.1624 40.7012 43.1625 40.701C43.1628 40.7008 43.162 40.7014 43.1598 40.7032C43.1577 40.7049 43.1549 40.7071 43.1512 40.7102C43.1362 40.7227 43.1136 40.7425 43.0833 40.7699C43.0233 40.8242 42.9392 40.9026 42.8385 40.9977C42.6374 41.1878 42.3732 41.4416 42.1101 41.6959C41.8471 41.9501 41.5856 42.2043 41.3898 42.395C41.2919 42.4903 41.2104 42.5698 41.1535 42.6254L41.0641 42.7127C41.0641 42.7127 41.064 42.7127 40.9366 42.5824L41.0641 42.7127L40.938 42.8359Z" fill="black"/>
<path fill-rule="evenodd" clip-rule="evenodd" d="M40.938 44.3569L38.8068 46.3935L36.677 44.3583L34.4212 46.5138L34.6732 46.7774L36.677 44.8627L38.8068 46.8978L40.9352 44.864C40.9885 44.916 41.0567 44.9824 41.1354 45.0591C41.3314 45.25 41.5933 45.5045 41.8567 45.7592C42.1201 46.0137 42.3854 46.2686 42.5881 46.4602C42.6893 46.5558 42.7757 46.6364 42.8388 46.6934C42.87 46.7217 42.897 46.7455 42.9178 46.7629C42.9279 46.7712 42.939 46.7802 42.9495 46.7878C42.9545 46.7913 42.9628 46.7972 42.9729 46.8028C42.9778 46.8057 42.9866 46.8103 42.9977 46.8148C43.0055 46.8178 43.0315 46.828 43.0664 46.828V46.4633C43.1005 46.4633 43.1255 46.4732 43.132 46.4758C43.142 46.4797 43.1492 46.4836 43.1524 46.4855C43.1562 46.4876 43.1588 46.4893 43.1601 46.4902C43.1615 46.4911 43.1624 46.4917 43.1625 46.4918C43.1628 46.492 43.162 46.4914 43.1598 46.4897C43.1577 46.488 43.1549 46.4857 43.1512 46.4827C43.1362 46.4702 43.1136 46.4503 43.0833 46.423C43.0233 46.3687 42.9392 46.2903 42.8385 46.1951C42.6374 46.0051 42.3732 45.7512 42.1101 45.497C41.8471 45.2428 41.5856 44.9886 41.3898 44.7979C41.2919 44.7025 41.2104 44.6231 41.1535 44.5675L41.0641 44.4802C41.0641 44.4802 41.064 44.4801 40.9366 44.6105L41.0641 44.4802L40.938 44.3569Z" fill="black"/>
<path fill-rule="evenodd" clip-rule="evenodd" d="M41.187 71.1276L41.1629 36.4888L40.6607 36.4891L40.6848 71.128L41.187 71.1276Z" fill="black"/>
<path fill-rule="evenodd" clip-rule="evenodd" d="M39.0698 73.0887L39.0458 38.5342L38.57 38.5345L38.594 73.089L39.0698 73.0887Z" fill="black"/>
<path fill-rule="evenodd" clip-rule="evenodd" d="M36.9546 75.1974L36.9305 36.4888L36.4269 36.4891L36.451 75.1977L36.9546 75.1974Z" fill="black"/>
<path fill-rule="evenodd" clip-rule="evenodd" d="M72.9287 30.3652C77.1883 32.4004 77.1883 36.4822 77.1883 38.5173C77.0439 40.3685 77.1883 79.2548 77.1883 79.2548C77.1883 79.2548 76.9116 76.9552 75.0585 75.1845L72.9407 73.1493L70.8109 71.1142C69.2467 69.7574 68.6812 67.0324 68.6812 64.9972V36.4822C68.6812 36.4822 68.6812 34.4355 72.9407 30.3652H72.9287Z" fill="#A77B3B"/>
<path fill-rule="evenodd" clip-rule="evenodd" d="M72.8973 30.3198L72.9284 30.1826H73.3951L73.2502 30.3211C77.3704 32.443 77.3703 36.5123 77.3703 38.5066V38.5241L77.3698 38.5312C77.3344 38.9849 77.3162 41.7513 77.3094 45.6635C77.3026 49.5691 77.3072 54.6032 77.3162 59.5796C77.3252 64.556 77.3387 69.4745 77.35 73.149C77.3557 74.9862 77.3607 76.5124 77.3644 77.5793C77.3662 78.1128 77.3677 78.5314 77.3687 78.8166L77.3703 79.2533C77.3703 79.2536 77.3703 79.2538 77.188 79.2545L77.3703 79.2538L77.0082 79.2762C77.007 79.2763 77.007 79.2763 77.007 79.2763L77.0069 79.2756L77.0064 79.2716C77.0059 79.2679 77.0051 79.262 77.004 79.2541C77.0017 79.2383 76.9981 79.2142 76.9927 79.1825C76.982 79.1192 76.9646 79.0258 76.938 78.9076C76.8846 78.6713 76.7944 78.3368 76.6474 77.9478C76.3532 77.169 75.8337 76.1774 74.9323 75.316L72.8141 73.2805L70.6878 71.2487C69.8718 70.5393 69.3266 69.4842 68.9848 68.363C68.6418 67.238 68.4985 66.0297 68.4985 64.9969V36.4819H68.6809C68.4985 36.4819 68.4985 36.4817 68.4985 36.4815L68.4985 36.481L68.4985 36.48L68.4986 36.4774C68.4986 36.4754 68.4987 36.4729 68.4988 36.47C68.499 36.464 68.4993 36.456 68.5 36.4461C68.5013 36.4261 68.5037 36.3983 68.5084 36.3625C68.5177 36.2908 68.5358 36.1875 68.571 36.0525C68.6413 35.7826 68.7796 35.3868 69.0517 34.8654C69.5955 33.8232 70.6741 32.2784 72.8145 30.2331L72.8973 30.3198ZM72.9708 30.5884C76.9937 32.5868 77.0057 36.4867 77.0057 38.5101C76.9693 39.0027 76.9515 41.7829 76.9448 45.6629C76.938 49.5691 76.9425 54.6037 76.9515 59.5803C76.9606 64.5569 76.9741 69.4756 76.9854 73.1501C76.991 74.9874 76.9961 76.5137 76.9998 77.5806C77.0001 77.6744 77.0004 77.7647 77.0007 77.8513C76.9967 77.8405 76.9926 77.8297 76.9886 77.8189C76.6812 77.0052 76.1359 75.962 75.1845 75.0527" fill="black"/>
<path fill-rule="evenodd" clip-rule="evenodd" d="M70.7983 36.2358L72.9295 38.2724L75.0593 36.2372L77.3151 38.3927L77.0632 38.6564L75.0593 36.7416L72.9295 38.7767L70.8011 36.7429C70.7478 36.7949 70.6797 36.8613 70.6009 36.938C70.4049 37.1289 70.143 37.3835 69.8796 37.6381C69.6163 37.8926 69.3509 38.1475 69.1482 38.3391C69.047 38.4347 68.9606 38.5153 68.8976 38.5723C68.8663 38.6006 68.8393 38.6244 68.8185 38.6418C68.8085 38.6501 68.7974 38.6591 68.7868 38.6667C68.7818 38.6702 68.7735 38.6761 68.7634 38.6818C68.7585 38.6846 68.7498 38.6892 68.7386 38.6937C68.7308 38.6968 68.7048 38.7069 68.6699 38.7069V38.3422C68.6358 38.3422 68.6108 38.3521 68.6043 38.3547C68.5943 38.3586 68.5871 38.3626 68.5839 38.3644C68.5802 38.3665 68.5775 38.3682 68.5762 38.3691C68.5748 38.37 68.574 38.3706 68.5738 38.3707C68.5735 38.3709 68.5743 38.3704 68.5765 38.3686C68.5786 38.3669 68.5815 38.3646 68.5851 38.3616C68.6001 38.3491 68.6227 38.3292 68.653 38.3019C68.713 38.2476 68.7971 38.1692 68.8978 38.074C69.099 37.884 69.3631 37.6302 69.6262 37.3759C69.8892 37.1217 70.1507 36.8675 70.3465 36.6768C70.4444 36.5814 70.5259 36.502 70.5829 36.4464L70.6722 36.3591C70.6722 36.3591 70.6723 36.359 70.7997 36.4894L70.6722 36.3591L70.7983 36.2358Z" fill="black"/>
<path fill-rule="evenodd" clip-rule="evenodd" d="M70.7983 42.8354L72.9295 40.7989L75.0593 42.8341L77.3151 40.6786L77.0632 40.4149L75.0593 42.3297L72.9295 40.2946L70.8011 42.3284C70.7478 42.2764 70.6797 42.21 70.6009 42.1333C70.4049 41.9424 70.143 41.6878 69.8796 41.4332C69.6163 41.1787 69.3509 40.9237 69.1482 40.7322C69.047 40.6366 68.9606 40.556 68.8976 40.499C68.8663 40.4707 68.8393 40.4469 68.8185 40.4295C68.8085 40.4212 68.7974 40.4122 68.7868 40.4046C68.7818 40.401 68.7735 40.3952 68.7634 40.3895C68.7585 40.3867 68.7498 40.382 68.7386 40.3776C68.7308 40.3745 68.7048 40.3644 68.6699 40.3644V40.7291C68.6358 40.7291 68.6108 40.7192 68.6043 40.7166C68.5943 40.7127 68.5871 40.7087 68.5839 40.7069C68.5802 40.7048 68.5775 40.7031 68.5762 40.7022C68.5748 40.7013 68.574 40.7007 68.5738 40.7006C68.5735 40.7004 68.5743 40.7009 68.5765 40.7027C68.5786 40.7044 68.5815 40.7067 68.5851 40.7097C68.6001 40.7222 68.6227 40.742 68.653 40.7694C68.713 40.8237 68.7971 40.9021 68.8978 40.9973C69.099 41.1873 69.3631 41.4411 69.6262 41.6954C69.8892 41.9496 70.1507 42.2038 70.3465 42.3945C70.4444 42.4899 70.5259 42.5693 70.5829 42.6249L70.6722 42.7122C70.6722 42.7122 70.6723 42.7123 70.7997 42.5819L70.6722 42.7122L70.7983 42.8354Z" fill="black"/>
<path fill-rule="evenodd" clip-rule="evenodd" d="M70.7983 44.3569L72.9295 46.3935L75.0593 44.3583L77.3151 46.5138L77.0632 46.7774L75.0593 44.8627L72.9295 46.8978L70.8011 44.864C70.7478 44.916 70.6797 44.9824 70.6009 45.0591C70.4049 45.25 70.143 45.5045 69.8796 45.7592C69.6163 46.0137 69.3509 46.2686 69.1482 46.4602C69.047 46.5558 68.9606 46.6364 68.8976 46.6934C68.8663 46.7217 68.8393 46.7455 68.8185 46.7629C68.8085 46.7712 68.7974 46.7802 68.7868 46.7878C68.7818 46.7913 68.7735 46.7972 68.7634 46.8028C68.7585 46.8057 68.7498 46.8103 68.7386 46.8148C68.7308 46.8178 68.7048 46.828 68.6699 46.828V46.4633C68.6358 46.4633 68.6108 46.4732 68.6043 46.4758C68.5943 46.4797 68.5871 46.4836 68.5839 46.4855C68.5802 46.4876 68.5775 46.4893 68.5762 46.4902C68.5748 46.4911 68.574 46.4917 68.5738 46.4918C68.5735 46.492 68.5743 46.4914 68.5765 46.4897C68.5786 46.488 68.5815 46.4857 68.5851 46.4827C68.6001 46.4702 68.6227 46.4503 68.653 46.423C68.713 46.3687 68.7971 46.2903 68.8978 46.1951C69.099 46.0051 69.3631 45.7512 69.6262 45.497C69.8892 45.2428 70.1507 44.9886 70.3465 44.7979C70.4444 44.7025 70.5259 44.6231 70.5829 44.5675L70.6722 44.4802C70.6722 44.4802 70.6723 44.4801 70.7997 44.6105L70.6722 44.4802L70.7983 44.3569Z" fill="black"/>
<path fill-rule="evenodd" clip-rule="evenodd" d="M70.5474 71.1276L70.5714 36.4888L71.0737 36.4891L71.0496 71.128L70.5474 71.1276Z" fill="black"/>
<path fill-rule="evenodd" clip-rule="evenodd" d="M72.6665 73.0882L72.6906 38.5337L73.1664 38.534L73.1423 73.0886L72.6665 73.0882Z" fill="black"/>
<path fill-rule="evenodd" clip-rule="evenodd" d="M74.7778 75.1974L74.8019 36.4888L75.3055 36.4891L75.2814 75.1977L74.7778 75.1974Z" fill="black"/>
<path fill-rule="evenodd" clip-rule="evenodd" d="M50.2625 66.8543C49.1333 69.4439 47.1461 71.1315 45.8465 70.6141C44.547 70.0967 44.4017 67.56 45.5309 64.9703C46.6601 62.3806 48.6585 60.6975 49.958 61.2149C51.2575 61.7324 51.4075 64.2584 50.2737 66.8587L50.2625 66.8543Z" fill="#A77B3B"/>
<path fill-rule="evenodd" clip-rule="evenodd" d="M47.7998 62.0633C47.0226 62.7212 46.2563 63.7643 45.7006 65.0385C45.1449 66.313 44.9067 67.5666 44.9624 68.5561C45.0189 69.5585 45.3697 70.2286 45.9198 70.4476C46.4698 70.6666 47.2148 70.4328 47.9995 69.7653C48.774 69.1063 49.5377 68.062 50.0935 66.7875L50.1664 66.6204L50.176 66.6242C50.6829 65.403 50.8984 64.2154 50.8445 63.2705C50.7875 62.2699 50.4358 61.602 49.8855 61.3828C49.3351 61.1637 48.5872 61.3969 47.7998 62.0633ZM50.358 67.089L50.3705 67.094L50.4434 66.9269C51.0192 65.6064 51.2729 64.2968 51.2128 63.2424C51.1535 62.2006 50.7804 61.3468 50.0312 61.0485C49.282 60.7502 48.381 61.0999 47.562 61.7931C46.7328 62.4949 45.9354 63.5881 45.3618 64.9036C44.7883 66.2188 44.5346 67.5284 44.5941 68.584C44.6529 69.6267 45.0245 70.4836 45.774 70.782C46.5235 71.0804 47.4219 70.7292 48.238 70.0349C49.0292 69.3618 49.7912 68.33 50.358 67.089Z" fill="black"/>
<path fill-rule="evenodd" clip-rule="evenodd" d="M43.0825 44.6279H68.6489V56.8525H43.0825V44.6279Z" fill="#FF0000"/>
<path fill-rule="evenodd" clip-rule="evenodd" d="M43.0825 56.853H68.6489V62.9331C68.6489 67.0151 62.2681 67.0151 55.8657 71.0972C49.4634 67.0151 43.0825 67.0151 43.0825 62.9331V56.8315V56.853Z" fill="#564DFF"/>
<path fill-rule="evenodd" clip-rule="evenodd" d="M42.918 44.4756H68.7937V62.9734C68.7937 64.0374 68.373 64.8386 67.6472 65.4991C66.9284 66.1533 65.9096 66.6703 64.7093 67.1805C64.1391 67.4228 63.5263 67.6644 62.8808 67.9189C60.7953 68.741 58.3686 69.6977 55.9349 71.2495L55.8557 71.3L55.7767 71.2494C53.3481 69.698 50.9231 68.7415 48.8375 67.9188C48.1914 67.6639 47.5778 67.4219 47.0068 67.179C45.8058 66.6681 44.7858 66.15 44.066 65.4942C43.3394 64.8321 42.918 64.0287 42.918 62.9619V44.4756ZM43.212 44.7696V62.9619C43.212 63.9361 43.5908 64.6634 44.2641 65.2768C44.9443 65.8966 45.924 66.3989 47.1219 66.9084C47.6817 67.1466 48.2877 67.3855 48.9287 67.6383C50.9953 68.4534 53.4271 69.4124 55.8559 70.9513C58.2897 69.412 60.723 68.453 62.7896 67.6384C63.43 67.386 64.0352 67.1475 64.5942 66.9099C65.7915 66.401 66.77 65.8998 67.4493 65.2816C68.1216 64.6698 68.4996 63.9446 68.4996 62.9734V44.7696H43.212Z" fill="#FFFF00"/>
<path fill-rule="evenodd" clip-rule="evenodd" d="M51.1771 45.4541C51.1771 45.4541 46.915 48.4506 46.915 51.3174C46.915 54.1843 51.3876 55.1453 51.3876 55.1453C51.3876 55.1453 49.8968 55.1454 49.8968 58.9679C49.8968 60.8845 54.3693 59.9289 54.3693 60.8845C54.3693 61.8401 54.3104 64.1509 54.3693 65.668C54.3693 66.6237 51.3876 65.668 51.3876 66.6237C51.3876 67.0988 53.6281 69.4906 55.8686 69.4906C58.1091 69.4906 60.3412 67.0988 60.3412 66.6237C60.3412 65.668 57.3595 66.6237 57.3595 65.668V60.8845C57.3595 59.9289 61.8321 60.8845 61.8321 58.9679C61.8321 55.1454 60.3412 55.1453 60.3412 55.1453C60.3412 55.1453 64.8222 54.1897 64.8222 51.3174C64.8222 48.4452 60.5518 45.4541 60.5518 45.4541C60.5518 45.4541 62.9523 49.4062 62.9523 51.3174C62.9523 52.2731 61.8321 54.1897 58.8504 54.1897C58.8504 54.1897 58.0923 53.2287 57.3595 54.1897C57.3595 54.1897 56.5004 53.2287 55.8686 54.1897C55.6496 54.5137 55.2622 53.2287 54.3693 54.1897C53.9987 54.4435 53.6955 53.2287 52.8785 54.1897C51.3876 54.1897 48.4059 53.2287 48.4059 51.3174C48.4059 49.4062 51.1771 45.4541 51.1771 45.4541V45.4541Z" fill="#FFFF00"/>
<path fill-rule="evenodd" clip-rule="evenodd" d="M60.4664 45.5065L60.6109 45.3711L60.5528 45.4539L60.4664 45.5065ZM60.7076 55.1568C60.8112 55.128 60.9347 55.0917 61.0733 55.0473C61.4971 54.9117 62.0633 54.7003 62.6304 54.3976C63.7577 53.7959 64.9244 52.813 64.9244 51.3173C64.9244 50.5747 64.6488 49.8313 64.2433 49.1383C63.8375 48.4447 63.298 47.7951 62.7609 47.2383C62.2235 46.6811 61.6864 46.2147 61.2839 45.8877C61.0825 45.7241 60.9147 45.5952 60.797 45.5071C60.7381 45.463 60.6918 45.4292 60.6601 45.4063C60.6442 45.3948 60.632 45.3861 60.6237 45.3802L60.6143 45.3735L60.6118 45.3717L60.6109 45.3711C60.6108 45.3711 60.6109 45.3711 60.5528 45.4539C60.4664 45.5065 60.4664 45.5064 60.4664 45.5065L60.468 45.5092L60.4731 45.5176C60.4776 45.525 60.4843 45.5361 60.493 45.5507C60.5104 45.5799 60.5361 45.6231 60.5688 45.6787C60.6341 45.79 60.7276 45.9513 60.8398 46.1509C61.0642 46.5501 61.3633 47.1021 61.6623 47.7133C61.9614 48.3249 62.2596 48.9942 62.4829 49.6284C62.7069 50.2647 62.8522 50.857 62.8522 51.3173C62.8522 52.2043 61.7969 54.0686 58.8978 54.0883C58.896 54.0863 58.8942 54.0842 58.8923 54.0821C58.8683 54.0558 58.8336 54.0197 58.7896 53.9796C58.7022 53.9001 58.5751 53.8022 58.4205 53.7362C58.2651 53.6698 58.0784 53.6342 57.8773 53.6862C57.7011 53.7318 57.5237 53.8421 57.3525 54.0391C57.332 54.0202 57.3081 53.999 57.2811 53.9766C57.1862 53.8978 57.0501 53.8009 56.8903 53.7356C56.7302 53.6701 56.5403 53.6339 56.3431 53.6864C56.1447 53.7392 55.9538 53.8777 55.7856 54.1334C55.7834 54.1366 55.7816 54.1389 55.7802 54.1406C55.7779 54.1398 55.7748 54.1385 55.771 54.1366C55.7601 54.1313 55.7463 54.1227 55.7287 54.1097C55.6991 54.0879 55.6672 54.06 55.6286 54.0263C55.6197 54.0186 55.6104 54.0105 55.6008 54.0021C55.5511 53.9591 55.4938 53.9107 55.4297 53.8671C55.3011 53.7795 55.1375 53.7055 54.9385 53.7293C54.7433 53.7526 54.534 53.8676 54.3051 54.1113C54.2834 54.1241 54.2661 54.1257 54.249 54.1231C54.2252 54.1194 54.1945 54.106 54.1527 54.0777C54.1125 54.0505 54.0704 54.0154 54.021 53.9741L54.016 53.97C53.9661 53.9284 53.9099 53.8818 53.8491 53.8406C53.7268 53.7577 53.5739 53.6887 53.3882 53.7201C53.2146 53.7495 53.0328 53.8633 52.8337 54.0881C52.1049 54.0785 51.0292 53.8424 50.1304 53.3802C49.2082 52.906 48.5081 52.214 48.5081 51.3173C48.5081 50.8597 48.6751 50.2692 48.9337 49.6329C49.1912 48.9991 49.5354 48.3301 49.8806 47.7186C50.2257 47.1075 50.5709 46.5556 50.83 46.1564C50.9595 45.9568 51.0673 45.7956 51.1428 45.6842C51.1805 45.6286 51.2101 45.5854 51.2302 45.5562C51.2403 45.5417 51.248 45.5305 51.2532 45.5231L51.259 45.5147L51.2605 45.5127L51.2608 45.5122C51.2608 45.5121 51.2609 45.512 51.1781 45.4539C51.1199 45.3712 51.1199 45.3712 51.1198 45.3713L51.119 45.3718L51.1165 45.3736L51.1071 45.3803C51.0988 45.3862 51.0867 45.3949 51.0708 45.4064C51.0392 45.4294 50.993 45.4633 50.9342 45.5074C50.8168 45.5957 50.6492 45.7247 50.4483 45.8885C50.0465 46.216 49.5105 46.6829 48.9742 47.2404C48.4382 47.7976 47.8997 48.4473 47.4947 49.1407C47.0901 49.8334 46.8149 50.5761 46.8149 51.3173C46.8149 52.8103 47.9795 53.7931 49.1046 54.3955C49.6707 54.6985 50.2358 54.9104 50.6589 55.0465C50.7972 55.091 50.9206 55.1275 51.024 55.1564C50.8855 55.2315 50.7234 55.3558 50.5635 55.5608C50.1709 56.0641 49.7967 57.0461 49.7967 58.9677C49.7967 59.2286 49.8733 59.4452 50.0098 59.6228C50.145 59.7988 50.3349 59.9313 50.554 60.0331C50.99 60.2357 51.564 60.3269 52.1233 60.387C52.3209 60.4082 52.516 60.4256 52.7039 60.4422C53.0561 60.4735 53.3831 60.5026 53.6538 60.5508C53.8608 60.5877 54.0216 60.634 54.1285 60.6943C54.2323 60.753 54.2693 60.8145 54.2693 60.8844C54.2693 61.1505 54.2646 61.5237 54.2593 61.9566C54.2455 63.0692 54.2268 64.5758 54.2692 65.6697C54.2688 65.7573 54.2363 65.818 54.178 65.8661C54.1146 65.9183 54.0164 65.9586 53.8834 65.9871C53.6166 66.0441 53.2561 66.0446 52.8795 66.0446H52.8709C52.5047 66.0445 52.1235 66.0445 51.8334 66.1065C51.687 66.1378 51.5522 66.1871 51.4525 66.2692C51.3482 66.3552 51.2875 66.4731 51.2875 66.6235C51.2875 66.6711 51.301 66.7216 51.3201 66.7707C51.3397 66.821 51.3676 66.8761 51.4023 66.9346C51.4716 67.0518 51.5716 67.1888 51.6964 67.3371C51.9463 67.6338 52.3015 67.9822 52.7267 68.3148C53.5741 68.9778 54.7164 69.5916 55.8697 69.5916C57.023 69.5916 58.1632 68.9778 59.0086 68.3147C59.4327 67.9821 59.7869 67.6337 60.036 67.3369C60.1604 67.1887 60.26 67.0516 60.3291 66.9345C60.3637 66.876 60.3915 66.8208 60.411 66.7706C60.43 66.7215 60.4434 66.671 60.4434 66.6235C60.4434 66.4731 60.3828 66.3552 60.2785 66.2692C60.1788 66.1871 60.044 66.1378 59.8975 66.1065C59.6075 66.0445 59.2263 66.0445 58.8601 66.0446H58.8514C58.4748 66.0446 58.1143 66.0441 57.8476 65.9871C57.7145 65.9586 57.6164 65.9183 57.553 65.8661C57.4942 65.8176 57.4617 65.7564 57.4617 65.6679V60.8844C57.4617 60.8145 57.4986 60.753 57.6025 60.6943C57.7093 60.634 57.8701 60.5877 58.0771 60.5508C58.3478 60.5026 58.6748 60.4735 59.0271 60.4422C59.215 60.4256 59.4101 60.4082 59.6076 60.387C60.1669 60.3269 60.741 60.2357 61.1769 60.0331C61.3961 59.9313 61.5859 59.7988 61.7212 59.6228C61.8576 59.4452 61.9343 59.2286 61.9343 58.9677C61.9343 57.0461 61.56 56.0641 61.1675 55.5608C61.0078 55.3561 60.846 55.2319 60.7076 55.1568ZM60.3213 55.0462L60.3218 55.0461L60.3239 55.0457L60.3331 55.0437C60.3412 55.0418 60.3534 55.0391 60.3695 55.0353C60.4016 55.0277 60.449 55.0163 60.5095 55.0006C60.6304 54.9693 60.8036 54.9212 61.0116 54.8547C61.4279 54.7214 61.982 54.5143 62.5351 54.2191C63.6484 53.6249 64.7221 52.6938 64.7221 51.3173C64.7221 50.6237 64.464 49.9161 64.0687 49.2405C63.6738 48.5654 63.1458 47.9287 62.6153 47.3787C62.0851 46.8291 61.5545 46.3682 61.1563 46.0447C61.0603 45.9667 60.972 45.8967 60.8934 45.8354C60.9311 45.9012 60.9722 45.9736 61.0161 46.0518C61.2418 46.4533 61.5428 47.0088 61.844 47.6245C62.145 48.2399 62.4469 48.9169 62.6737 49.5612C62.8998 50.2035 63.0545 50.8219 63.0545 51.3173C63.0545 52.3368 61.8806 54.2907 58.8514 54.2907H58.8024L58.7721 54.2523L58.7719 54.2521L58.7708 54.2507C58.7701 54.2498 58.769 54.2486 58.7677 54.247C58.767 54.2462 58.7662 54.2452 58.7654 54.2442C58.7604 54.2383 58.7527 54.2294 58.7425 54.2182C58.7222 54.1957 58.6919 54.1643 58.6534 54.1292C58.5758 54.0586 58.4676 53.9763 58.341 53.9222C58.2153 53.8685 58.0751 53.844 57.928 53.8821C57.781 53.9201 57.6141 54.0239 57.441 54.2509L57.3667 54.3483L57.2852 54.2571L57.285 54.2568L57.2836 54.2553C57.2823 54.2539 57.2802 54.2516 57.2773 54.2486C57.2716 54.2425 57.2628 54.2335 57.2514 54.2221C57.2283 54.1994 57.1944 54.1676 57.1518 54.1322C57.0659 54.0609 56.9477 53.9776 56.8137 53.9228C56.68 53.8681 56.5367 53.8442 56.3951 53.8819C56.255 53.9192 56.1018 54.0207 55.9542 54.2451L55.9535 54.2462C55.9119 54.3078 55.8509 54.3494 55.7722 54.3441C55.7077 54.3397 55.6509 54.3038 55.6085 54.2724C55.5716 54.2452 55.5319 54.2105 55.4929 54.1765C55.4846 54.1693 55.4764 54.162 55.4682 54.1549C55.4196 54.1128 55.3696 54.0709 55.3158 54.0343C55.2085 53.9612 55.0942 53.9144 54.9625 53.9301C54.8297 53.946 54.6585 54.0281 54.4445 54.2584L54.4368 54.2667L54.4276 54.273C54.3605 54.3189 54.2894 54.3341 54.2179 54.323C54.1509 54.3125 54.0909 54.2802 54.0393 54.2452C53.9904 54.2121 53.9412 54.171 53.8947 54.1323L53.8865 54.1254C53.8359 54.0832 53.787 54.0428 53.7357 54.0081C53.6337 53.9391 53.5345 53.9005 53.4219 53.9196C53.3063 53.9391 53.1537 54.0233 52.9566 54.2551L52.9263 54.2907H52.8795C52.1176 54.2907 50.9836 54.0464 50.0379 53.5601C49.0965 53.076 48.3058 52.3319 48.3058 51.3173C48.3058 50.8193 48.4852 50.199 48.7462 49.5567C49.0083 48.912 49.3569 48.2346 49.7045 47.6192C50.0522 47.0034 50.3997 46.4478 50.6603 46.0463C50.6931 45.9956 50.7246 45.9475 50.7545 45.9019C50.6987 45.9461 50.6391 45.994 50.5761 46.0453C50.1787 46.3693 49.6492 46.8307 49.12 47.3807C48.5905 47.931 48.0635 48.5679 47.6694 49.2427C47.2749 49.9181 47.0172 50.625 47.0172 51.3173C47.0172 52.6912 48.089 53.6223 49.2001 54.2171C49.7522 54.5127 50.3053 54.7203 50.7208 54.8539C50.9284 54.9207 51.1013 54.969 51.222 55.0004C51.2824 55.0161 51.3297 55.0277 51.3617 55.0353C51.3777 55.039 51.3899 55.0418 51.3981 55.0437L51.4072 55.0457L51.4094 55.0462L51.4098 55.0463L51.3888 55.2449C51.3889 55.2463 51.3889 55.2463 51.3889 55.2463L51.3886 55.2464C51.3872 55.2464 51.3845 55.2466 51.3806 55.2469C51.3727 55.2476 51.3599 55.249 51.3428 55.2522C51.3088 55.2584 51.2579 55.2713 51.1955 55.2979C51.0714 55.351 50.8988 55.4598 50.723 55.6852C50.3701 56.1376 49.999 57.0668 49.999 58.9677C49.999 59.1859 50.0621 59.3588 50.1702 59.4995C50.2796 59.6419 50.4392 59.7566 50.6393 59.8497C51.042 60.0368 51.586 60.1258 52.1449 60.1858C52.3326 60.206 52.5227 60.2229 52.7085 60.2395C53.0674 60.2714 53.4103 60.3019 53.6893 60.3517C53.9016 60.3895 54.0902 60.4404 54.228 60.5182C54.3687 60.5977 54.4716 60.7154 54.4716 60.8844C54.4716 61.1547 54.4669 61.5314 54.4615 61.9669C54.4477 63.0793 54.4292 64.5754 54.4715 65.664L54.4716 65.6659V65.6679C54.4716 65.8183 54.4109 65.9362 54.3066 66.0222C54.2069 66.1043 54.0721 66.1536 53.9256 66.1849C53.6356 66.2469 53.2544 66.2469 52.8882 66.2469H52.8795C52.5029 66.2469 52.1425 66.2474 51.8757 66.3044C51.7427 66.3328 51.6445 66.3731 51.5811 66.4253C51.5224 66.4738 51.4898 66.535 51.4898 66.6235C51.4898 66.6354 51.4938 66.6592 51.5087 66.6974C51.523 66.7343 51.5454 66.7793 51.5764 66.8316C51.6383 66.9362 51.7309 67.064 51.8511 67.2068C52.0914 67.4921 52.4363 67.8308 52.8513 68.1555C53.6842 68.8071 54.7825 69.3892 55.8697 69.3892C56.9568 69.3892 58.053 68.8071 58.8837 68.1555C59.2977 67.8309 59.6416 67.4922 59.881 67.2069C60.0009 67.0641 60.0932 66.9363 60.1549 66.8317C60.1857 66.7794 60.208 66.7344 60.2223 66.6975C60.2371 66.6593 60.2411 66.6354 60.2411 66.6235C60.2411 66.535 60.2086 66.4738 60.1498 66.4253C60.0864 66.3731 59.9883 66.3328 59.8552 66.3044C59.5885 66.2474 59.228 66.2469 58.8514 66.2469H58.8427C58.4765 66.2469 58.0953 66.2469 57.8053 66.1849C57.6588 66.1536 57.524 66.1043 57.4243 66.0222C57.32 65.9362 57.2594 65.8183 57.2594 65.6679V60.8844C57.2594 60.7154 57.3622 60.5977 57.503 60.5182C57.6407 60.4404 57.8293 60.3895 58.0416 60.3517C58.3207 60.3019 58.6636 60.2714 59.0224 60.2395C59.2082 60.2229 59.3983 60.206 59.586 60.1858C60.1449 60.1258 60.689 60.0368 61.0917 59.8497C61.2918 59.7566 61.4514 59.6419 61.5607 59.4995C61.6689 59.3588 61.732 59.1859 61.732 58.9677C61.732 57.0668 61.3608 56.1376 61.0079 55.6852C60.8321 55.4598 60.6596 55.351 60.5355 55.2979C60.4731 55.2713 60.4221 55.2584 60.3881 55.2522C60.3711 55.249 60.3583 55.2476 60.3504 55.2469C60.3477 55.2467 60.3456 55.2465 60.3441 55.2465C60.3434 55.2464 60.3428 55.2464 60.3424 55.2464L60.3418 55.2463C60.3419 55.2463 60.3421 55.2463 60.3421 55.2449L60.3213 55.0462Z" fill="black"/>
<path fill-rule="evenodd" clip-rule="evenodd" d="M51.255 62.5727C50.9518 62.767 51.6425 65.8823 51.8446 66.0172C52.1479 66.2062 53.9419 66.2062 54.2367 66.0172C54.4473 65.8823 54.2367 62.956 53.9419 62.767C53.6387 62.5727 51.4656 62.4431 51.2466 62.5727H51.255Z" fill="#FFFF00"/>
<path fill-rule="evenodd" clip-rule="evenodd" d="M53.7732 62.5994C53.8626 62.6215 53.9443 62.6478 53.9975 62.682C54.037 62.7073 54.0651 62.7473 54.0855 62.7842C54.1072 62.8232 54.1267 62.8705 54.1446 62.9228C54.1803 63.0276 54.2129 63.1632 54.2423 63.3167C54.3011 63.6245 54.3489 64.0161 54.3806 64.4042C54.4124 64.7924 54.4284 65.1803 54.423 65.4809C54.4204 65.6308 54.4124 65.7619 54.3976 65.8615C54.3903 65.911 54.3808 65.9563 54.3679 65.9936C54.3571 66.025 54.3366 66.0741 54.2923 66.1025C54.2399 66.136 54.1652 66.1597 54.0851 66.178C54.0022 66.1968 53.9027 66.2121 53.7933 66.2242C53.5742 66.2483 53.309 66.2602 53.0448 66.2602C52.7805 66.2602 52.5148 66.2483 52.2948 66.2242C52.1848 66.2121 52.0847 66.1968 52.0011 66.178C51.9201 66.1598 51.845 66.1362 51.7921 66.1032L51.7907 66.1023L51.7894 66.1014C51.7689 66.0878 51.7539 66.0699 51.7436 66.0559C51.7326 66.0408 51.7224 66.0237 51.713 66.006C51.6941 65.9705 51.6748 65.9257 51.6553 65.8746C51.6161 65.7721 51.5727 65.6353 51.5281 65.4769C51.4388 65.1597 51.3424 64.7488 51.262 64.3367C51.1816 63.9249 51.1166 63.5089 51.0909 63.1819C51.0781 63.019 51.0747 62.8741 51.0852 62.7616C51.0881 62.731 51.0921 62.7015 51.0976 62.6739H50.8779L51.196 62.4857C51.224 62.4692 51.2581 62.4594 51.289 62.4526C51.3219 62.4454 51.3607 62.4398 51.4033 62.4353C51.4886 62.4264 51.596 62.4215 51.7171 62.42C51.9598 62.4169 52.2642 62.4272 52.5703 62.4475C52.8764 62.4679 53.1863 62.4985 53.4396 62.5365C53.5662 62.5555 53.6801 62.5765 53.7732 62.5994ZM51.3147 62.6552C51.3133 62.6575 51.31 62.6633 51.306 62.6749C51.2981 62.6978 51.2911 62.7325 51.2867 62.7804C51.2777 62.876 51.2801 63.0075 51.2926 63.1661C51.3174 63.4821 51.3808 63.8897 51.4605 64.2979C51.5401 64.7058 51.6353 65.1112 51.7229 65.4221C51.7667 65.5778 51.8082 65.708 51.8442 65.8024C51.8624 65.8498 51.8783 65.886 51.8916 65.9111C51.898 65.9231 51.9029 65.931 51.9063 65.9357C51.9313 65.9491 51.9766 65.9651 52.0455 65.9806C52.1192 65.9972 52.2113 66.0115 52.3168 66.0231C52.5277 66.0462 52.7858 66.0579 53.0448 66.0579C53.3038 66.0579 53.5613 66.0462 53.7711 66.0231C53.8761 66.0115 53.9674 65.9973 54.0402 65.9807C54.1053 65.9659 54.1483 65.9508 54.1727 65.9381C54.1738 65.9356 54.1751 65.9322 54.1767 65.9277C54.1837 65.9072 54.191 65.8757 54.1975 65.8318C54.2104 65.7448 54.2182 65.6237 54.2208 65.4773C54.226 65.1854 54.2104 64.8046 54.179 64.4207C54.1476 64.0368 54.1006 63.6529 54.0436 63.3547C54.015 63.2052 53.9845 63.0801 53.9531 62.9881C53.9374 62.9421 53.9223 62.907 53.9086 62.8824C53.8956 62.8588 53.8877 62.8521 53.8878 62.852C53.8878 62.8519 53.888 62.8521 53.8883 62.8523C53.8657 62.8378 53.8131 62.8176 53.7248 62.7959C53.6401 62.775 53.5328 62.755 53.4096 62.7366C53.1634 62.6996 52.8594 62.6695 52.5569 62.6494C52.2545 62.6293 51.9556 62.6193 51.7197 62.6223C51.6016 62.6238 51.501 62.6285 51.4243 62.6365C51.3859 62.6405 51.3552 62.6452 51.3321 62.6503C51.326 62.6516 51.3208 62.6529 51.3166 62.654L51.3147 62.6552ZM51.9091 65.9392C51.9091 65.9392 51.909 65.9391 51.9088 65.9389C51.909 65.9391 51.9091 65.9392 51.9091 65.9392Z" fill="black"/>
<path fill-rule="evenodd" clip-rule="evenodd" d="M60.4769 62.5727C60.7801 62.767 60.0895 65.8823 59.8873 66.0172C59.5841 66.2062 57.79 66.2062 57.4952 66.0172C57.2846 65.8823 57.4952 62.956 57.79 62.767C58.0932 62.5727 60.2663 62.4431 60.4853 62.5727H60.4769Z" fill="#FFFF00"/>
<path fill-rule="evenodd" clip-rule="evenodd" d="M57.9592 62.5994C57.8698 62.6215 57.7882 62.6478 57.735 62.682C57.6954 62.7073 57.6674 62.7473 57.6469 62.7842C57.6252 62.8232 57.6057 62.8705 57.5879 62.9228C57.5521 63.0276 57.5195 63.1632 57.4901 63.3167C57.4313 63.6245 57.3836 64.0161 57.3518 64.4042C57.32 64.7924 57.304 65.1803 57.3094 65.4809C57.312 65.6308 57.32 65.7619 57.3348 65.8615C57.3421 65.911 57.3516 65.9563 57.3645 65.9936C57.3753 66.025 57.3959 66.0741 57.4402 66.1025C57.4925 66.136 57.5672 66.1597 57.6473 66.178C57.7302 66.1968 57.8298 66.2121 57.9392 66.2242C58.1582 66.2483 58.4234 66.2602 58.6876 66.2602C58.9519 66.2602 59.2176 66.2483 59.4376 66.2242C59.5476 66.2121 59.6477 66.1968 59.7313 66.178C59.8123 66.1598 59.8874 66.1362 59.9404 66.1032L59.9417 66.1023L59.943 66.1014C59.9635 66.0878 59.9785 66.0699 59.9888 66.0559C59.9998 66.0408 60.01 66.0237 60.0195 66.006C60.0383 65.9705 60.0576 65.9257 60.0772 65.8746C60.1164 65.7721 60.1597 65.6353 60.2043 65.4769C60.2936 65.1597 60.39 64.7488 60.4705 64.3367C60.5508 63.9249 60.6158 63.5089 60.6415 63.1819C60.6543 63.019 60.6577 62.8741 60.6472 62.7616C60.6443 62.731 60.6403 62.7015 60.6348 62.6739H60.8545L60.5364 62.4857C60.5085 62.4692 60.4743 62.4594 60.4435 62.4526C60.4105 62.4454 60.3718 62.4398 60.3292 62.4353C60.2439 62.4264 60.1364 62.4215 60.0153 62.42C59.7726 62.4169 59.4682 62.4272 59.1621 62.4475C58.856 62.4679 58.5462 62.4985 58.2928 62.5365C58.1663 62.5555 58.0523 62.5765 57.9592 62.5994ZM60.4177 62.6552C60.4192 62.6575 60.4224 62.6633 60.4264 62.6749C60.4343 62.6978 60.4413 62.7325 60.4458 62.7804C60.4547 62.876 60.4523 63.0075 60.4398 63.1661C60.415 63.4821 60.3516 63.8897 60.2719 64.2979C60.1923 64.7058 60.0971 65.1112 60.0095 65.4221C59.9657 65.5778 59.9243 65.708 59.8882 65.8024C59.8701 65.8498 59.8541 65.886 59.8408 65.9111C59.8344 65.9231 59.8295 65.931 59.8261 65.9357C59.8011 65.9491 59.7559 65.9651 59.6869 65.9806C59.6132 65.9972 59.5211 66.0115 59.4156 66.0231C59.2047 66.0462 58.9467 66.0579 58.6876 66.0579C58.4286 66.0579 58.1711 66.0462 57.9613 66.0231C57.8563 66.0115 57.765 65.9973 57.6922 65.9807C57.6271 65.9659 57.5841 65.9508 57.5597 65.9381C57.5586 65.9356 57.5573 65.9322 57.5558 65.9277C57.5487 65.9072 57.5414 65.8757 57.5349 65.8318C57.522 65.7448 57.5143 65.6237 57.5117 65.4773C57.5065 65.1854 57.522 64.8046 57.5534 64.4207C57.5849 64.0368 57.6319 63.6529 57.6889 63.3547C57.7174 63.2052 57.748 63.0801 57.7793 62.9881C57.7951 62.9421 57.8101 62.907 57.8238 62.8824C57.8369 62.8588 57.8447 62.8521 57.8446 62.852C57.8446 62.8519 57.8445 62.8521 57.8441 62.8523C57.8667 62.8378 57.9194 62.8176 58.0076 62.7959C58.0923 62.775 58.1996 62.755 58.3228 62.7366C58.5691 62.6996 58.8731 62.6695 59.1755 62.6494C59.478 62.6293 59.7768 62.6193 60.0127 62.6223C60.1308 62.6238 60.2315 62.6285 60.3081 62.6365C60.3465 62.6405 60.3772 62.6452 60.4003 62.6503C60.4064 62.6516 60.4116 62.6529 60.4158 62.654L60.4177 62.6552ZM59.8233 65.9392C59.8233 65.9392 59.8234 65.9391 59.8236 65.9389C59.8234 65.9391 59.8233 65.9392 59.8233 65.9392Z" fill="black"/>
<path fill-rule="evenodd" clip-rule="evenodd" d="M54.3261 61.425C54.3261 61.7106 54.1629 61.9845 53.8724 62.1865C53.5819 62.3884 53.1879 62.5019 52.7771 62.5019C52.3662 62.5019 51.9722 62.3884 51.6817 62.1865C51.3912 61.9845 51.228 61.7106 51.228 61.425C51.228 61.1394 51.3912 60.8655 51.6817 60.6636C51.9722 60.4616 52.3662 60.3481 52.7771 60.3481C53.1879 60.3481 53.5819 60.4616 53.8724 60.6636C54.1629 60.8655 54.3261 61.1394 54.3261 61.425V61.425Z" fill="#FFFF00"/>
<path fill-rule="evenodd" clip-rule="evenodd" d="M52.7771 60.4692C52.3868 60.4692 52.0179 60.5773 51.7508 60.763C51.4841 60.9484 51.3491 61.1886 51.3491 61.425C51.3491 61.6614 51.4841 61.9016 51.7508 62.087C52.0179 62.2727 52.3868 62.3808 52.7771 62.3808C53.1673 62.3808 53.5362 62.2727 53.8033 62.087C54.07 61.9016 54.205 61.6614 54.205 61.425C54.205 61.1886 54.07 60.9484 53.8033 60.763C53.5362 60.5773 53.1673 60.4692 52.7771 60.4692ZM51.6126 60.5641C51.9265 60.3459 52.3456 60.2271 52.7771 60.2271C53.2085 60.2271 53.6276 60.3459 53.9415 60.5641C54.2558 60.7826 54.4472 61.0901 54.4472 61.425C54.4472 61.7599 54.2558 62.0674 53.9415 62.2859C53.6276 62.5041 53.2085 62.6229 52.7771 62.6229C52.3456 62.6229 51.9265 62.5041 51.6126 62.2859C51.2983 62.0674 51.1069 61.7599 51.1069 61.425C51.1069 61.0901 51.2983 60.7826 51.6126 60.5641Z" fill="black"/>
<path fill-rule="evenodd" clip-rule="evenodd" d="M60.4921 61.426C60.4921 61.7116 60.3289 61.9855 60.0384 62.1875C59.7479 62.3895 59.3539 62.5029 58.9431 62.5029C58.5323 62.5029 58.1382 62.3895 57.8477 62.1875C57.5572 61.9855 57.394 61.7116 57.394 61.426C57.394 61.1404 57.5572 60.8665 57.8477 60.6645C58.1382 60.4626 58.5323 60.3491 58.9431 60.3491C59.3539 60.3491 59.7479 60.4626 60.0384 60.6645C60.3289 60.8665 60.4921 61.1404 60.4921 61.426V61.426Z" fill="#FFFF00"/>
<path fill-rule="evenodd" clip-rule="evenodd" d="M58.9431 60.4702C58.5529 60.4702 58.1839 60.5783 57.9169 60.7639C57.6501 60.9494 57.5151 61.1896 57.5151 61.426C57.5151 61.6624 57.6501 61.9027 57.9169 62.0881C58.1839 62.2738 58.5529 62.3818 58.9431 62.3818C59.3333 62.3818 59.7022 62.2738 59.9693 62.0881C60.236 61.9027 60.371 61.6624 60.371 61.426C60.371 61.1897 60.236 60.9494 59.9693 60.7639C59.7022 60.5783 59.3333 60.4702 58.9431 60.4702ZM57.7786 60.5651C58.0925 60.3469 58.5116 60.228 58.9431 60.228C59.3745 60.228 59.7936 60.3469 60.1075 60.5651C60.4218 60.7836 60.6132 61.0912 60.6132 61.426C60.6132 61.7609 60.4218 62.0684 60.1075 62.2869C59.7936 62.5052 59.3745 62.624 58.9431 62.624C58.5116 62.624 58.0925 62.5052 57.7786 62.2869C57.4643 62.0684 57.2729 61.7609 57.2729 61.426C57.2729 61.0912 57.4643 60.7836 57.7786 60.5651Z" fill="black"/>
<path fill-rule="evenodd" clip-rule="evenodd" d="M58.5527 67.6592C58.5527 67.917 58.209 68.1318 57.8008 68.1318C57.3926 68.1318 57.0703 67.917 57.0703 67.6592C57.0703 67.4014 57.3926 67.1865 57.8008 67.1865C58.209 67.1865 58.5527 67.4014 58.5527 67.6592ZM54.6855 67.6592C54.6855 67.917 54.3418 68.1318 53.9336 68.1318C53.5254 68.1318 53.1816 67.917 53.1816 67.6592C53.1816 67.4014 53.5254 67.1865 53.9336 67.1865C54.3418 67.1865 54.6641 67.4014 54.6641 67.6592H54.6855Z" fill="black"/>
<path fill-rule="evenodd" clip-rule="evenodd" d="M55.8629 52.3783L54.9472 51.2229L53.4446 51.4136L53.6559 49.9777L52.4468 49.1139L53.6559 48.239L53.4446 46.8031L54.9472 47.005L55.8629 45.8496L56.7786 47.005L58.2695 46.8031L58.0699 48.239L59.2673 49.1139L58.0699 49.9889L58.2695 51.4136L56.7668 51.2229L55.8629 52.3783Z" fill="#FFFF00"/>
<path fill-rule="evenodd" clip-rule="evenodd" d="M55.8646 45.7261L56.8131 46.923L58.3608 46.7134L58.1536 48.2038L59.3986 49.1136L58.1537 50.0233L58.3608 51.5017L56.802 51.3039L55.865 52.5016L54.9157 51.3038L53.3559 51.5018L53.5751 50.0124L52.3174 49.114L53.5751 48.2038L53.3558 46.7134L54.916 46.923L55.8646 45.7261ZM55.8646 45.9724L54.9818 47.0863L53.5367 46.8921L53.74 48.2734L52.5795 49.1132L53.7401 49.9422L53.5366 51.3246L54.9821 51.1412L55.8642 52.2543L56.735 51.1411L58.1815 51.3247L57.9894 49.9538L59.1393 49.1136L57.9895 48.2734L58.1815 46.8921L56.7473 47.0863L55.8646 45.9724Z" fill="black"/>
<path fill-rule="evenodd" clip-rule="evenodd" d="M62.2441 56.8457L64.8071 58.076L67.3701 56.8457L64.8071 55.627L62.2562 56.8457H62.2441Z" fill="#FFFF00"/>
<path fill-rule="evenodd" clip-rule="evenodd" d="M64.8087 55.5396L67.5537 56.8449L64.8088 58.1625L62.2119 56.9159L62.2376 56.8029L62.2241 56.7745L64.8087 55.5396ZM62.4334 56.8483L64.8088 57.9885L67.1899 56.8455L64.8089 55.7133L62.4334 56.8483Z" fill="black"/>
<path fill-rule="evenodd" clip-rule="evenodd" d="M43.918 56.8457L46.4809 58.076L49.0439 56.8457L46.4809 55.627L43.93 56.8457H43.918Z" fill="#FFFF00"/>
<path fill-rule="evenodd" clip-rule="evenodd" d="M46.4826 55.5396L49.2275 56.8449L46.4827 58.1625L43.8857 56.9159L43.9115 56.8029L43.8979 56.7745L46.4826 55.5396ZM44.1072 56.8483L46.4827 57.9885L48.8637 56.8455L46.4827 55.7133L44.1072 56.8483Z" fill="black"/>
<path fill-rule="evenodd" clip-rule="evenodd" d="M66.2305 64.1476C65.4458 63.65 64.124 63.898 63.3831 64.3046C62.6423 64.7111 61.9014 65.1177 61.8018 66.5911C60.9509 65.1752 61.621 63.8661 62.7479 63.2476C63.3455 62.9669 64.0299 62.9044 64.6723 63.072C65.3147 63.2395 65.871 63.6256 66.2365 64.1575L66.2305 64.1476Z" fill="#FFFF00"/>
<path fill-rule="evenodd" clip-rule="evenodd" d="M61.7485 66.3274C61.8267 65.721 62.025 65.3071 62.2916 64.9979C62.5909 64.6508 62.9718 64.4418 63.339 64.2403L63.344 64.2375C63.7243 64.0288 64.2506 63.8621 64.7821 63.8105C65.1856 63.7713 65.5994 63.7978 65.9567 63.9284C65.6149 63.5526 65.1625 63.2792 64.6542 63.1466C64.0314 62.9842 63.3676 63.0444 62.7875 63.3163C62.2391 63.6178 61.8049 64.0856 61.6101 64.6464C61.4371 65.1444 61.4511 65.7206 61.7485 66.3274ZM66.2867 64.0913C65.91 63.5558 65.3443 63.1677 64.6929 62.9978C64.0317 62.8253 63.3277 62.8897 62.7132 63.1784L62.711 63.1794L62.7088 63.1806C62.1313 63.4975 61.6678 63.993 61.4588 64.5947C61.2491 65.1982 61.2977 65.9026 61.7343 66.629L61.8657 66.8478L61.8826 66.5978C61.9316 65.874 62.1372 65.4202 62.415 65.098C62.6949 64.7734 63.0528 64.5762 63.4248 64.372C63.7854 64.1742 64.2904 64.0136 64.8012 63.9639C65.3132 63.9142 65.8185 63.9771 66.1889 64.212L66.2139 64.1746L66.3065 64.12L66.2908 64.0938L66.2867 64.0913Z" fill="black"/>
<path fill-rule="evenodd" clip-rule="evenodd" d="M48.6248 61.7374C48.6248 61.9524 48.5355 62.1585 48.3764 62.3106C48.2173 62.4626 48.0015 62.548 47.7765 62.548C47.5515 62.548 47.3358 62.4626 47.1767 62.3106C47.0176 62.1585 46.9282 61.9524 46.9282 61.7374C46.9282 61.5224 47.0176 61.3162 47.1767 61.1642C47.3358 61.0122 47.5515 60.9268 47.7765 60.9268C48.0015 60.9268 48.2173 61.0122 48.3764 61.1642C48.5355 61.3162 48.6248 61.5224 48.6248 61.7374V61.7374Z" fill="#FFFF00"/>
<path fill-rule="evenodd" clip-rule="evenodd" d="M47.7773 61.0055C47.572 61.0055 47.3758 61.0834 47.2316 61.2212C47.0876 61.3588 47.0074 61.5446 47.0074 61.7377C47.0074 61.9307 47.0876 62.1165 47.2316 62.2542C47.3758 62.3919 47.572 62.4698 47.7773 62.4698C47.9826 62.4698 48.1788 62.3919 48.323 62.2542C48.467 62.1165 48.5472 61.9307 48.5472 61.7377C48.5472 61.5446 48.467 61.3588 48.323 61.2212C48.1788 61.0834 47.9826 61.0055 47.7773 61.0055ZM47.1233 61.1078C47.2973 60.9415 47.5326 60.8486 47.7773 60.8486C48.022 60.8486 48.2573 60.9415 48.4313 61.1078C48.6055 61.2742 48.704 61.5007 48.704 61.7377C48.704 61.9746 48.6055 62.2011 48.4313 62.3675C48.2573 62.5338 48.022 62.6267 47.7773 62.6267C47.5326 62.6267 47.2973 62.5338 47.1233 62.3675C46.9491 62.2011 46.8506 61.9746 46.8506 61.7377C46.8506 61.5007 46.9491 61.2742 47.1233 61.1078Z" fill="black"/>
<path fill-rule="evenodd" clip-rule="evenodd" d="M47.7655 64.5948C47.7655 64.8098 47.6761 65.016 47.517 65.168C47.3579 65.32 47.1421 65.4054 46.9172 65.4054C46.6922 65.4054 46.4764 65.32 46.3173 65.168C46.1582 65.016 46.0688 64.8098 46.0688 64.5948C46.0688 64.3798 46.1582 64.1736 46.3173 64.0216C46.4764 63.8696 46.6922 63.7842 46.9172 63.7842C47.1421 63.7842 47.3579 63.8696 47.517 64.0216C47.6761 64.1736 47.7655 64.3798 47.7655 64.5948V64.5948Z" fill="#FFFF00"/>
<path fill-rule="evenodd" clip-rule="evenodd" d="M46.9179 63.8629C46.7126 63.8629 46.5164 63.9409 46.3723 64.0786C46.2282 64.2162 46.148 64.4021 46.148 64.5951C46.148 64.7881 46.2282 64.974 46.3723 65.1116C46.5164 65.2493 46.7126 65.3273 46.9179 65.3273C47.1232 65.3273 47.3195 65.2493 47.4636 65.1116C47.6076 64.974 47.6878 64.7881 47.6878 64.5951C47.6878 64.4021 47.6076 64.2162 47.4636 64.0786C47.3195 63.9409 47.1232 63.8629 46.9179 63.8629ZM46.2639 63.9652C46.438 63.7989 46.6733 63.7061 46.9179 63.7061C47.1626 63.7061 47.3979 63.7989 47.572 63.9652C47.7461 64.1316 47.8447 64.3581 47.8447 64.5951C47.8447 64.832 47.7461 65.0585 47.572 65.225C47.3979 65.3913 47.1626 65.4841 46.9179 65.4841C46.6733 65.4841 46.438 65.3913 46.2639 65.225C46.0898 65.0585 45.9912 64.832 45.9912 64.5951C45.9912 64.3581 46.0898 64.1316 46.2639 63.9652Z" fill="black"/>
<path fill-rule="evenodd" clip-rule="evenodd" d="M47.3358 62.962C47.3358 63.177 47.2464 63.3831 47.0873 63.5352C46.9282 63.6872 46.7125 63.7726 46.4875 63.7726C46.2625 63.7726 46.0467 63.6872 45.8876 63.5352C45.7285 63.3831 45.6392 63.177 45.6392 62.962C45.6392 62.747 45.7285 62.5408 45.8876 62.3888C46.0467 62.2368 46.2625 62.1514 46.4875 62.1514C46.7125 62.1514 46.9282 62.2368 47.0873 62.3888C47.2464 62.5408 47.3358 62.747 47.3358 62.962V62.962Z" fill="#FFFF00"/>
<path fill-rule="evenodd" clip-rule="evenodd" d="M46.4882 62.2306C46.2829 62.2306 46.0867 62.3085 45.9426 62.4463C45.7986 62.5839 45.7184 62.7697 45.7184 62.9628C45.7184 63.1558 45.7986 63.3416 45.9426 63.4792C46.0867 63.617 46.2829 63.6949 46.4882 63.6949C46.6936 63.6949 46.8898 63.617 47.0339 63.4792C47.1779 63.3416 47.2581 63.1558 47.2581 62.9628C47.2581 62.7697 47.1779 62.5839 47.0339 62.4463C46.8898 62.3085 46.6936 62.2306 46.4882 62.2306ZM45.8342 62.3329C46.0083 62.1666 46.2436 62.0737 46.4882 62.0737C46.7329 62.0737 46.9682 62.1666 47.1423 62.3329C47.3164 62.4993 47.415 62.7258 47.415 62.9628C47.415 63.1997 47.3164 63.4262 47.1423 63.5926C46.9682 63.7589 46.7329 63.8518 46.4882 63.8518C46.2436 63.8518 46.0083 63.7589 45.8342 63.5926C45.6601 63.4262 45.5615 63.1997 45.5615 62.9628C45.5615 62.7258 45.6601 62.4993 45.8342 62.3329Z" fill="black"/>
<path fill-rule="evenodd" clip-rule="evenodd" d="M49.4627 64.5948C49.4627 64.8098 49.3734 65.016 49.2143 65.168C49.0552 65.32 48.8394 65.4054 48.6144 65.4054C48.3894 65.4054 48.1737 65.32 48.0146 65.168C47.8555 65.016 47.7661 64.8098 47.7661 64.5948C47.7661 64.3798 47.8555 64.1736 48.0146 64.0216C48.1737 63.8696 48.3894 63.7842 48.6144 63.7842C48.8394 63.7842 49.0552 63.8696 49.2143 64.0216C49.3734 64.1736 49.4627 64.3798 49.4627 64.5948V64.5948Z" fill="#FFFF00"/>
<path fill-rule="evenodd" clip-rule="evenodd" d="M48.6152 63.8629C48.4099 63.8629 48.2137 63.9409 48.0695 64.0786C47.9255 64.2162 47.8453 64.4021 47.8453 64.5951C47.8453 64.7881 47.9255 64.974 48.0695 65.1116C48.2137 65.2493 48.4099 65.3273 48.6152 65.3273C48.8205 65.3273 49.0167 65.2493 49.1609 65.1116C49.3049 64.974 49.3851 64.7881 49.3851 64.5951C49.3851 64.4021 49.3049 64.2162 49.1609 64.0786C49.0167 63.9409 48.8205 63.8629 48.6152 63.8629ZM47.9612 63.9652C48.1352 63.7989 48.3705 63.7061 48.6152 63.7061C48.8599 63.7061 49.0952 63.7989 49.2692 63.9652C49.4434 64.1316 49.5419 64.3581 49.5419 64.5951C49.5419 64.832 49.4434 65.0585 49.2692 65.225C49.0952 65.3913 48.8599 65.4841 48.6152 65.4841C48.3705 65.4841 48.1352 65.3913 47.9612 65.225C47.787 65.0585 47.6885 64.832 47.6885 64.5951C47.6885 64.3581 47.787 64.1316 47.9612 63.9652Z" fill="black"/>
<path fill-rule="evenodd" clip-rule="evenodd" d="M49.8924 62.962C49.8924 63.177 49.803 63.3831 49.644 63.5352C49.4849 63.6872 49.2691 63.7726 49.0441 63.7726C48.8191 63.7726 48.6034 63.6872 48.4443 63.5352C48.2852 63.3831 48.1958 63.177 48.1958 62.962C48.1958 62.747 48.2852 62.5408 48.4443 62.3888C48.6034 62.2368 48.8191 62.1514 49.0441 62.1514C49.2691 62.1514 49.4849 62.2368 49.644 62.3888C49.803 62.5408 49.8924 62.747 49.8924 62.962V62.962Z" fill="#FFFF00"/>
<path fill-rule="evenodd" clip-rule="evenodd" d="M49.0449 62.2306C48.8396 62.2306 48.6434 62.3085 48.4992 62.4463C48.3552 62.5839 48.275 62.7697 48.275 62.9628C48.275 63.1558 48.3552 63.3416 48.4992 63.4792C48.6434 63.617 48.8396 63.6949 49.0449 63.6949C49.2502 63.6949 49.4464 63.617 49.5906 63.4792C49.7346 63.3416 49.8148 63.1558 49.8148 62.9628C49.8148 62.7697 49.7346 62.5839 49.5906 62.4463C49.4464 62.3085 49.2502 62.2306 49.0449 62.2306ZM48.3909 62.3329C48.5649 62.1666 48.8002 62.0737 49.0449 62.0737C49.2895 62.0737 49.5249 62.1666 49.6989 62.3329C49.8731 62.4993 49.9716 62.7258 49.9716 62.9628C49.9716 63.1997 49.8731 63.4262 49.6989 63.5926C49.5249 63.7589 49.2895 63.8518 49.0449 63.8518C48.8002 63.8518 48.5649 63.7589 48.3909 63.5926C48.2167 63.4262 48.1182 63.1997 48.1182 62.9628C48.1182 62.7258 48.2167 62.4993 48.3909 62.3329Z" fill="black"/>
<path fill-rule="evenodd" clip-rule="evenodd" d="M48.6248 63.3712C48.6248 63.5861 48.5355 63.7923 48.3764 63.9443C48.2173 64.0964 48.0015 64.1818 47.7765 64.1818C47.5515 64.1818 47.3358 64.0964 47.1767 63.9443C47.0176 63.7923 46.9282 63.5861 46.9282 63.3712C46.9282 63.1562 47.0176 62.95 47.1767 62.798C47.3358 62.6459 47.5515 62.5605 47.7765 62.5605C48.0015 62.5605 48.2173 62.6459 48.3764 62.798C48.5355 62.95 48.6248 63.1562 48.6248 63.3712V63.3712Z" fill="#FFFF00"/>
<path fill-rule="evenodd" clip-rule="evenodd" d="M47.7773 62.6388C47.572 62.6388 47.3758 62.7167 47.2316 62.8545C47.0876 62.9921 47.0074 63.1779 47.0074 63.371C47.0074 63.564 47.0876 63.7498 47.2316 63.8875C47.3758 64.0252 47.572 64.1031 47.7773 64.1031C47.9826 64.1031 48.1788 64.0252 48.323 63.8875C48.467 63.7498 48.5472 63.564 48.5472 63.371C48.5472 63.1779 48.467 62.9921 48.323 62.8545C48.1788 62.7167 47.9826 62.6388 47.7773 62.6388ZM47.1233 62.7411C47.2973 62.5748 47.5326 62.4819 47.7773 62.4819C48.022 62.4819 48.2573 62.5748 48.4313 62.7411C48.6055 62.9075 48.704 63.134 48.704 63.371C48.704 63.6079 48.6055 63.8344 48.4313 64.0008C48.2573 64.1671 48.022 64.26 47.7773 64.26C47.5326 64.26 47.2973 64.1671 47.1233 64.0008C46.9491 63.8344 46.8506 63.6079 46.8506 63.371C46.8506 63.134 46.9491 62.9075 47.1233 62.7411Z" fill="black"/>
<path fill-rule="evenodd" clip-rule="evenodd" d="M51.7437 35.0029C49.5952 35.0029 49.3159 35.3252 48.3491 35.6475C48.3491 34.7236 50.7339 33.6279 52.8823 33.6279C52.8823 34.3154 52.3237 34.9814 51.7437 34.9814V35.0029Z" fill="#DA4500"/>
<path fill-rule="evenodd" clip-rule="evenodd" d="M55.0308 32.811C55.0308 33.2622 54.644 33.6274 54.1714 33.6274C53.6987 33.6274 53.312 33.2622 53.312 32.811C53.312 32.3599 53.6987 31.9946 54.1714 31.9946C54.644 31.9946 55.0308 32.3599 55.0308 32.811Z" fill="#CAC9C7"/>
<path fill-rule="evenodd" clip-rule="evenodd" d="M46.0516 29.9623V31.1811H48.1814V37.2865H49.4689V31.1811H51.5987V29.9623H49.4689V28.3296H48.1693V29.9623H46.0396H46.0516Z" fill="#FFFF00"/>
<path fill-rule="evenodd" clip-rule="evenodd" d="M48.0899 28.2515H49.5463V29.8842H51.6761V31.2598H49.5463V37.3652H48.102V31.2598H45.9722V29.9626H46.0386V29.8842H48.0899V28.2515ZM46.129 30.041H48.2468V28.4083H49.3895V30.041H51.5193V31.103H49.3895V37.2084H48.2588V31.103H46.129V30.041Z" fill="black"/>
<path fill-rule="evenodd" clip-rule="evenodd" d="M52.8823 33.6274C51.1498 33.5319 49.4148 33.7652 47.769 34.3149C47.769 33.0474 49.23 31.5864 51.7437 31.5864C52.3237 31.5864 52.8823 32.9399 52.8823 33.6274Z" fill="#DA4500"/>
<path fill-rule="evenodd" clip-rule="evenodd" d="M30.7116 55.2562C30.0979 53.9334 30.1122 53.5112 31.2039 55.0247L44.3538 79.9549L43.9513 80.0684L30.7184 55.2613L30.7116 55.2562Z" fill="#008500"/>
<path fill-rule="evenodd" clip-rule="evenodd" d="M30.7312 55.2363C30.5797 54.9092 30.4673 54.6386 30.4005 54.4399C30.3668 54.3396 30.3451 54.2588 30.3356 54.1989C30.3308 54.1688 30.3293 54.1452 30.3304 54.1276C30.3316 54.1096 30.3353 54.1011 30.3381 54.0975C30.3398 54.0954 30.3424 54.093 30.3503 54.0936C30.3593 54.0943 30.3734 54.099 30.3934 54.111C30.4333 54.1348 30.4886 54.1825 30.5608 54.2583C30.7043 54.4091 30.9085 54.6645 31.1805 55.0416L44.3113 79.9352L43.9626 80.0336L30.7373 55.2409L30.7312 55.2363ZM30.5972 54.215C30.744 54.3692 30.9506 54.628 31.2237 55.0066L31.225 55.0085L44.3942 79.9751L43.9379 80.1038L30.6973 55.2824L30.6898 55.2767L30.6864 55.2695C30.5328 54.9383 30.418 54.6626 30.3496 54.459C30.3154 54.3573 30.2923 54.2723 30.2819 54.2069C30.2767 54.1742 30.2745 54.1451 30.2761 54.1206C30.2777 54.0966 30.2831 54.0736 30.2962 54.0567C30.3103 54.0385 30.3302 54.0315 30.3517 54.0331C30.372 54.0346 30.3942 54.0438 30.4175 54.0578C30.4643 54.0857 30.5241 54.1382 30.5972 54.215Z" fill="black"/>
<path fill-rule="evenodd" clip-rule="evenodd" d="M39.6243 71.6568C39.7746 69.8092 36.4016 67.8111 36.2512 67.94C36.1223 68.069 36.4661 69.1432 37.1106 69.7018C35.8645 69.0787 34.5754 68.692 34.5325 68.9713C34.4465 69.3365 36.466 70.2174 36.6379 70.5611C36.6379 70.7975 35.134 70.776 35.177 71.0123C35.1985 71.2701 39.4094 73.3756 39.6243 71.6568ZM36.2512 66.2858C36.3801 64.4381 33.0071 62.4186 32.8567 62.569C32.7278 62.6979 33.0715 63.7721 33.7161 64.3307C32.4914 63.6861 31.2024 63.2994 31.1594 63.5787C31.0735 63.944 33.093 64.8248 33.2434 65.1686C33.2649 65.4264 31.761 65.3834 31.8039 65.6412C31.8254 65.8775 36.0364 68.0045 36.2512 66.2858V66.2858ZM33.6731 61.3873C33.802 59.5397 30.4075 57.5416 30.2786 57.6705C30.1496 57.7994 30.4934 58.8736 31.1379 59.4322C29.8918 58.7877 28.6028 58.4225 28.5813 58.7018C28.4739 59.067 30.5149 59.9479 30.6653 60.2916C30.6868 60.5279 29.1828 60.5065 29.2043 60.7428C29.2473 60.9791 33.4368 63.1061 33.6516 61.3873H33.6731ZM31.095 56.1022C31.2453 54.2545 27.8723 52.235 27.7219 52.3854C27.593 52.5143 27.9368 53.5885 28.5813 54.1471C27.3352 53.5025 26.0461 53.1158 26.0246 53.3951C25.9172 53.7604 27.9368 54.6412 28.1086 54.985C28.1301 55.2428 26.6262 55.1998 26.6477 55.4576C26.6692 55.6725 30.8801 57.8209 31.095 56.1022V56.1022Z" fill="#008F00"/>
<path fill-rule="evenodd" clip-rule="evenodd" d="M31.9755 55.8441C33.6298 54.8558 33.3075 51.0746 33.1141 51.0531C32.9208 51.0101 32.2118 51.9125 32.1259 52.7503C31.911 51.4183 31.4813 50.1937 31.2665 50.3441C30.8798 50.4945 31.3309 52.557 31.1376 52.9007C30.9442 53.0511 30.0634 51.891 29.8915 52.0414C29.6981 52.2132 30.4071 56.7035 31.9755 55.8441ZM34.3387 60.5062C36.2509 60.0765 37.2606 56.4242 37.1102 56.3382C36.9384 56.2523 35.9501 56.8753 35.5848 57.6273C35.8641 56.3168 35.8641 55.0277 35.5848 55.0707C35.1981 55.0921 34.8759 57.1761 34.5966 57.4339C34.3602 57.5414 33.952 56.1449 33.7157 56.2523C33.4794 56.3382 32.577 60.807 34.3602 60.5062H34.3387ZM37.1962 65.2543C38.9149 64.3949 38.9579 60.6136 38.7645 60.5707C38.5712 60.5277 37.7977 61.3656 37.6259 62.182C37.5399 60.85 37.2391 59.6039 36.9813 59.7113C36.5946 59.8187 36.8309 61.9242 36.6161 62.2464C36.4012 62.3753 35.6708 61.1293 35.4559 61.2796C35.2411 61.43 35.5419 65.9847 37.1747 65.2543H37.1962ZM40.2469 71.4847C42.0516 70.7972 42.5028 67.016 42.3094 66.973C42.1376 66.8871 41.2567 67.639 41.0204 68.4339C41.0848 67.1019 40.8915 65.8343 40.6337 65.9203C40.2255 66.0062 40.2684 68.1117 40.0106 68.4125C39.7958 68.5414 39.1727 67.2308 38.9579 67.3382C38.743 67.4886 38.5282 72.0218 40.2469 71.4632V71.4847Z" fill="#008F00"/>
<path fill-rule="evenodd" clip-rule="evenodd" d="M44.2299 77.9365C43.7724 78.7196 42.3254 78.7904 40.9806 78.0729C39.6358 77.3555 38.9395 76.1412 39.3971 75.3582C39.8546 74.5751 41.3121 74.5099 42.6464 75.2218C43.9807 75.9336 44.6875 77.1535 44.2299 77.9365Z" fill="#FF1900"/>
<path fill-rule="evenodd" clip-rule="evenodd" d="M40.6962 74.8061C40.1226 74.8307 39.677 75.0363 39.4676 75.3948C39.258 75.7535 39.3064 76.2226 39.584 76.701C39.8607 77.178 40.3595 77.6517 41.0215 78.0049C41.6834 78.358 42.3671 78.5152 42.9373 78.49C43.5092 78.4648 43.9525 78.258 44.1621 77.8993C44.3715 77.5408 44.3208 77.0704 44.0418 76.591C43.7636 76.1132 43.2648 75.6395 42.6082 75.2892C41.9516 74.9389 41.2678 74.7817 40.6962 74.8061ZM40.6924 74.652C41.2975 74.6261 42.0096 74.7922 42.6873 75.1537C43.365 75.5153 43.8867 76.0074 44.1811 76.5132C44.4746 77.0174 44.5485 77.5485 44.3005 77.9731C44.0526 78.3974 43.5435 78.6176 42.9413 78.6441C42.3374 78.6708 41.6252 78.5046 40.9423 78.1403C40.2595 77.776 39.7377 77.2839 39.4446 76.7786C39.1522 76.2748 39.0812 75.7453 39.3292 75.3209C39.5772 74.8964 40.0892 74.6778 40.6924 74.652Z" fill="black"/>
<path fill-rule="evenodd" clip-rule="evenodd" d="M78.9442 51.7068L79.1706 51.1224L79.7804 51.3145L80.0068 50.7301L80.6166 50.9222L80.3934 51.4983L81.0206 51.6958L80.7911 52.2884L80.1638 52.0909L79.5994 53.5476L78.9896 53.3556L79.554 51.8988L78.9442 51.7068V51.7068ZM77.6344 56.8534L78.2442 57.0455L71.6914 73.9586L71.0816 73.7666L77.6344 56.8534Z" fill="#FFFF00"/>
<path fill-rule="evenodd" clip-rule="evenodd" d="M79.9902 50.6974L80.6514 50.9057L80.4282 51.4818L81.0554 51.6793L80.8064 52.3221L80.1791 52.1246L79.6147 53.5813L78.9535 53.3731L79.5179 51.9163L78.9338 51.7324L78.9435 51.7073L78.9178 51.6992L79.154 51.0897L79.7638 51.2818L79.9902 50.6974ZM78.979 51.6902L79.5888 51.8823L79.0244 53.339L79.5828 53.5149L80.1472 52.0582L80.7745 52.2557L80.9846 51.7134L80.3573 51.5158L80.5805 50.9397L80.0221 50.7638L79.7957 51.3482L79.1859 51.1561L78.979 51.6902ZM77.6178 56.8207L78.279 57.0289L71.7067 73.9923L71.0455 73.7841L77.6178 56.8207ZM77.6497 56.8871L71.1164 73.75L71.6748 73.9259L78.2081 57.063L77.6497 56.8871Z" fill="black"/>
<path fill-rule="evenodd" clip-rule="evenodd" d="M70.8785 73.3801L72.1155 73.7697L70.3075 78.4362L69.0705 78.0466L70.8785 73.3801ZM78.1523 53.7482L80.0079 54.3326C81.2362 54.7194 78.4506 57.4436 78.4506 57.4436L77.2223 57.0568C77.2223 57.0568 76.9152 53.3586 78.1523 53.7482V53.7482ZM79.8577 53.7867C79.7621 54.0336 79.4155 54.146 79.0757 54.039C78.736 53.932 78.5337 53.6467 78.6262 53.408C78.7187 53.1694 79.0684 53.0487 79.4082 53.1557C79.7479 53.2627 79.9502 53.548 79.8545 53.7949L79.8577 53.7867Z" fill="#FFFF00"/>
<path fill-rule="evenodd" clip-rule="evenodd" d="M78.934 53.1776C78.7986 53.2223 78.6961 53.3071 78.6537 53.4166C78.6114 53.5258 78.6355 53.648 78.7136 53.7578C78.7916 53.8674 78.9222 53.9625 79.0872 54.0144C79.2522 54.0664 79.4177 54.0647 79.5525 54.0211C79.6855 53.9781 79.7872 53.8949 79.8322 53.7832C79.874 53.6708 79.8501 53.548 79.7734 53.4388C79.6958 53.3282 79.5653 53.2332 79.4003 53.1813C79.2355 53.1294 79.0693 53.133 78.934 53.1776ZM79.8851 53.7952C79.9325 53.6642 79.9023 53.5259 79.8195 53.4078C79.7349 53.2872 79.5945 53.1861 79.4197 53.131C79.2447 53.0759 79.0662 53.0791 78.9185 53.1278C78.771 53.1764 78.6523 53.2713 78.6023 53.4004C78.5521 53.53 78.5828 53.6697 78.6677 53.789C78.702 53.8372 78.7452 53.8823 78.7961 53.9227L78.1638 53.7236C78.0029 53.6729 77.8638 53.688 77.7456 53.7566C77.6287 53.8245 77.536 53.9425 77.4622 54.0909C77.3147 54.3876 77.2368 54.8175 77.1978 55.256C77.1588 55.6953 77.1585 56.1464 77.168 56.4876C77.1727 56.6582 77.1799 56.8014 77.1859 56.902C77.1889 56.9522 77.1916 56.9919 77.1935 57.019C77.1945 57.0325 77.1953 57.0429 77.1959 57.05L77.1965 57.0579L77.1967 57.0605C77.1967 57.0605 77.1967 57.0607 77.2241 57.0573L77.1967 57.0605L77.1981 57.0773L78.459 57.4744L78.4716 57.4621L78.4524 57.4441C78.4716 57.4621 78.4715 57.4621 78.4716 57.4621L78.4736 57.4601L78.4796 57.4542C78.4849 57.449 78.4927 57.4413 78.5027 57.4312C78.5229 57.4111 78.5523 57.3816 78.5893 57.3439C78.6632 57.2685 78.7674 57.1603 78.8886 57.0294C79.1309 56.7676 79.4415 56.4141 79.7138 56.0483C79.9855 55.6831 80.2212 55.303 80.311 54.9882C80.356 54.8306 80.3653 54.6864 80.3214 54.5679C80.2769 54.448 80.1793 54.3583 80.0194 54.308L79.376 54.1053C79.4433 54.102 79.508 54.0903 79.5676 54.071C79.712 54.0243 79.8287 53.9322 79.8819 53.8034L79.8851 53.7952ZM78.1443 53.7738C77.996 53.7271 77.8741 53.7423 77.7723 53.8014C77.6692 53.8613 77.5829 53.9682 77.5116 54.1117C77.3688 54.3989 77.2914 54.8204 77.2526 55.2578C77.2137 55.6944 77.2135 56.1434 77.2229 56.4835C77.2276 56.6535 77.2348 56.7962 77.2407 56.8963C77.2437 56.9464 77.2464 56.9858 77.2484 57.0127C77.2491 57.0226 77.2497 57.0309 77.2502 57.0373L78.4458 57.4138C78.4506 57.4091 78.4567 57.403 78.4641 57.3956C78.4841 57.3756 78.5134 57.3463 78.5502 57.3087C78.6238 57.2337 78.7276 57.1259 78.8484 56.9954C79.09 56.7344 79.399 56.3826 79.6696 56.0191C79.9407 55.6548 80.1711 55.2814 80.2581 54.9766C80.3015 54.8243 80.3083 54.6923 80.2695 54.5878C80.2312 54.4846 80.1471 54.4046 79.9999 54.3582L78.1443 53.7738ZM70.8643 73.3474L72.1528 73.7531L70.3253 78.4699L69.0368 78.0641L70.8643 73.3474ZM72.0819 73.7872L70.8962 73.4138L69.1077 78.0301L70.2934 78.4035L72.0819 73.7872Z" fill="black"/>
<path fill-rule="evenodd" clip-rule="evenodd" d="M71.8898 75.8206C72.4081 76.5683 71.81 77.8294 70.5259 78.6421C69.2418 79.4548 67.7933 79.4889 67.275 78.7411C66.7568 77.9934 67.3649 76.7259 68.6389 75.9196C69.913 75.1133 71.3716 75.0728 71.8898 75.8206Z" fill="#FF1900"/>
<path fill-rule="evenodd" clip-rule="evenodd" d="M67.3557 77.3862C67.1154 77.8843 67.102 78.3571 67.3395 78.6997C67.5771 79.0426 68.0357 79.2166 68.6078 79.2004C69.1782 79.1843 69.8474 78.9781 70.4794 78.5782C71.1114 78.1782 71.5711 77.6699 71.8093 77.1743C72.0481 76.6773 72.0593 76.2059 71.8217 75.8631C71.5842 75.5205 71.1234 75.3478 70.5498 75.3648C69.9779 75.3817 69.3087 75.5879 68.6818 75.9846C68.0549 76.3814 67.5951 76.8897 67.3557 77.3862ZM67.2104 77.3196C67.464 76.7938 67.9452 76.2653 68.5924 75.8557C69.2396 75.4461 69.9367 75.2289 70.5422 75.211C71.1459 75.1931 71.6735 75.374 71.9543 75.7792C72.2349 76.1841 72.2062 76.7171 71.9546 77.2408C71.7023 77.7659 71.2209 78.2944 70.5688 78.7071C69.9166 79.1199 69.2195 79.3371 68.6151 79.3542C68.0124 79.3713 67.4876 79.1885 67.2069 78.7836C66.9261 78.3785 66.9576 77.8437 67.2104 77.3196Z" fill="black"/>
</g>
<defs>
<clipPath id="clip0_5158_359695">
<rect x="0.45752" y="0.843262" width="110" height="110" rx="55" fill="white"/>
</clipPath>
</defs>
</svg>
