<svg width="111" height="111" viewBox="0 0 111 111" fill="none" xmlns="http://www.w3.org/2000/svg">
<g clip-path="url(#clip0_5158_359298)">
<path d="M0.475098 0.843262H110.475V110.843H0.475098V0.843262Z" fill="#D21034"/>
<path d="M27.9756 28.3428H82.9756V83.3428H27.9756V28.3428Z" fill="#007E3A"/>
<path d="M62.3501 74.1689C72.4714 74.1689 80.6763 65.964 80.6763 55.8428C80.6763 45.7215 72.4714 37.5166 62.3501 37.5166C52.2288 37.5166 44.0239 45.7215 44.0239 55.8428C44.0239 65.964 52.2288 74.1689 62.3501 74.1689Z" fill="white"/>
<path d="M66.7764 74.1689C75.545 74.1689 82.6533 65.964 82.6533 55.8428C82.6533 45.7215 75.545 37.5166 66.7764 37.5166C58.0078 37.5166 50.8994 45.7215 50.8994 55.8428C50.8994 65.964 58.0078 74.1689 66.7764 74.1689Z" fill="#007E3A"/>
</g>
<defs>
<clipPath id="clip0_5158_359298">
<rect x="0.475098" y="0.843262" width="110" height="110" rx="55" fill="white"/>
</clipPath>
</defs>
</svg>
