<svg width="111" height="111" viewBox="0 0 111 111" fill="none" xmlns="http://www.w3.org/2000/svg">
<g clip-path="url(#clip0_5158_359532)">
<path d="M0.466797 0.843262H110.467V110.843H0.466797V0.843262Z" fill="#DA2032"/>
<path d="M41.7163 0.843262H69.2163V110.843H41.7163V0.843262Z" fill="#0066B3"/>
<path d="M23.0898 50.6006C27.2428 50.6006 30.6094 47.234 30.6094 43.0811C30.6094 38.9281 27.2428 35.5615 23.0898 35.5615C18.9369 35.5615 15.5703 38.9281 15.5703 43.0811C15.5703 47.234 18.9369 50.6006 23.0898 50.6006Z" fill="#FFD900"/>
<path d="M23.0898 47.8721C27.6225 47.8721 31.2969 44.1977 31.2969 39.665C31.2969 35.1324 27.6225 31.458 23.0898 31.458C18.5572 31.458 14.8828 35.1324 14.8828 39.665C14.8828 44.1977 18.5572 47.8721 23.0898 47.8721Z" fill="#DA2032"/>
<path d="M23.0898 46.4976C26.1155 46.4976 28.5684 44.0447 28.5684 41.019C28.5684 37.9933 26.1155 35.5405 23.0898 35.5405C20.0641 35.5405 17.6113 37.9933 17.6113 41.019C17.6113 44.0447 20.0641 46.4976 23.0898 46.4976Z" fill="#FFD900"/>
<path d="M23.6699 23.251C23.389 23.3712 23.1475 23.5678 22.9728 23.8185C22.7981 24.0691 22.6972 24.3638 22.6816 24.6689C22.6387 25.1416 22.8535 25.6572 22.875 26.1084C22.875 26.9033 22.0586 27.1611 22.0586 28.2783C22.0586 28.665 22.4238 29.0947 22.4238 30.083C22.3594 30.6201 22.0586 30.7275 21.7363 30.7705C21.554 30.7705 21.3791 30.6981 21.2502 30.5691C21.1213 30.4402 21.0488 30.2653 21.0488 30.083C21.0502 29.9065 21.1194 29.7372 21.2422 29.6103C21.2622 29.5875 21.2838 29.5659 21.3066 29.5459C21.457 29.3955 21.6719 29.3311 21.6719 28.9014C21.6719 28.6865 21.543 28.5146 21.4141 28.1279C21.3546 27.9008 21.3469 27.6631 21.3915 27.4326C21.4361 27.202 21.5319 26.9845 21.6719 26.7959C21.1992 26.9678 20.8984 27.4404 20.748 27.8486C20.5977 28.3428 20.7266 28.6436 20.5117 29.0732C20.3828 29.3311 20.2109 29.4385 20.082 29.6748C19.8887 29.9326 19.6953 30.4912 19.6953 30.7705C19.7897 31.6105 20.1902 32.3862 20.8203 32.9495C21.4505 33.5129 22.2661 33.8243 23.1113 33.8243C23.9566 33.8243 24.7722 33.5129 25.4023 32.9495C26.0325 32.3862 26.433 31.6105 26.5273 30.7705C26.5273 30.4912 26.3125 29.9111 26.1406 29.6748C25.9902 29.46 25.8184 29.3311 25.7109 29.0732C25.4961 28.6436 25.625 28.3428 25.4531 27.8486C25.3027 27.4189 25.0234 26.9893 24.5293 26.7744C24.6761 26.9637 24.7777 27.1841 24.8261 27.4187C24.8745 27.6534 24.8685 27.896 24.8086 28.1279C24.6582 28.5146 24.5293 28.708 24.5293 28.9228C24.5293 29.3311 24.7441 29.3955 24.8945 29.5674C24.9168 29.5805 24.9383 29.5948 24.959 29.6103C25.0896 29.7338 25.1667 29.9034 25.1738 30.083C25.1739 30.1751 25.1554 30.2663 25.1195 30.3512C25.0836 30.436 25.0311 30.5128 24.9649 30.5769C24.8988 30.641 24.8205 30.6912 24.7345 30.7245C24.6486 30.7577 24.5569 30.7734 24.4648 30.7705C24.0996 30.7275 23.8203 30.5557 23.7773 30.083C23.7773 28.7725 24.3574 28.6865 24.3574 27.7197C24.3574 26.3232 23.1113 25.6572 23.1113 24.6475C23.1113 24.3037 23.1758 23.7236 23.6699 23.251V23.251ZM8.05078 51.9541H14.9043V84.7822H8.05078V51.9541ZM31.2969 51.9541H38.1289V84.7822H31.2969V51.9541ZM16.2578 51.9541H29.9434L23.0898 56.0576L16.2578 51.9541ZM16.2578 57.4326H29.9434V60.1396H16.2578V57.4326ZM16.2578 76.5537H29.9434V79.3037H16.2578V76.5537ZM16.2578 80.6787H29.9434L23.0898 84.7607L16.2578 80.6787Z" fill="#FFD900"/>
<path d="M23.0894 75.2002C26.8626 75.2002 29.9214 72.1414 29.9214 68.3682C29.9214 64.5949 26.8626 61.5361 23.0894 61.5361C19.3161 61.5361 16.2573 64.5949 16.2573 68.3682C16.2573 72.1414 19.3161 75.2002 23.0894 75.2002Z" fill="#FFD900"/>
<path d="M23.0845 66.1089C23.8395 66.1089 24.4516 65.4968 24.4516 64.7417C24.4516 63.9866 23.8395 63.3745 23.0845 63.3745C22.3294 63.3745 21.7173 63.9866 21.7173 64.7417C21.7173 65.4968 22.3294 66.1089 23.0845 66.1089Z" fill="#DA2032"/>
<path d="M23.0845 73.3559C23.8395 73.3559 24.4516 72.7438 24.4516 71.9888C24.4516 71.2337 23.8395 70.6216 23.0845 70.6216C22.3294 70.6216 21.7173 71.2337 21.7173 71.9888C21.7173 72.7438 22.3294 73.3559 23.0845 73.3559Z" fill="#DA2032"/>
<path d="M23.0835 60.709C24.1531 60.709 25.179 61.1339 25.9354 61.8903C26.6917 62.6466 27.1167 63.6725 27.1167 64.7422C27.1167 65.8118 26.6917 66.8377 25.9354 67.5941C25.179 68.3504 24.1531 68.7753 23.0835 68.7753C22.2314 68.7753 21.4142 69.1138 20.8116 69.7164C20.2091 70.3189 19.8706 71.1361 19.8706 71.9882C19.8706 72.8403 20.2091 73.6575 20.8116 74.2601C21.4142 74.8626 22.2314 75.2011 23.0835 75.2011V76.0214C22.0138 76.0214 20.988 75.5965 20.2316 74.8401C19.4752 74.0837 19.0503 73.0579 19.0503 71.9882C19.0503 70.9186 19.4752 69.8927 20.2316 69.1363C20.988 68.38 22.0138 67.955 23.0835 67.955C23.9356 67.955 24.7528 67.6165 25.3553 67.014C25.9578 66.4115 26.2963 65.5943 26.2963 64.7422C26.2963 63.8901 25.9578 63.0729 25.3553 62.4703C24.7528 61.8678 23.9356 61.5293 23.0835 61.5293V60.709Z" fill="#DA2032"/>
</g>
<defs>
<clipPath id="clip0_5158_359532">
<rect x="0.466309" y="0.843262" width="110" height="110" rx="55" fill="white"/>
</clipPath>
</defs>
</svg>
