<svg width="111" height="111" viewBox="0 0 111 111" fill="none" xmlns="http://www.w3.org/2000/svg">
<g clip-path="url(#clip0_5158_359563)">
<path fill-rule="evenodd" clip-rule="evenodd" d="M-5.68945 -5.81689H117.631V117.503H-5.68945V-5.81689Z" fill="#3B5AA3"/>
<path fill-rule="evenodd" clip-rule="evenodd" d="M35.3488 10.9375L34.4148 26.4465L30.326 16.5595L31.9122 27.081L25.5852 18.5863L29.7268 28.2794L21.4436 21.8467L27.8939 29.9361L18.518 25.7768L26.7307 31.9981L16.5089 30.641L26.1844 34.4654L11.0278 35.8577L26.1844 36.8623L16.5794 40.81L26.7131 39.453L18.5356 45.4803L28.0173 41.3211L21.5493 49.4633L29.7797 43.2245L25.6557 52.7414L32.247 44.4934L30.4846 54.7681L34.6086 45.1631L35.5603 60.3373L37.0055 45.1984L40.5831 54.8739L39.2261 44.4582L45.7822 52.7061L41.4643 43.0659L49.6947 49.6925L43.1738 41.4092L52.9375 45.4803L44.2841 39.171L54.8232 40.9334L44.7247 37.0561L60.41 36.0868L44.7247 34.624L55.0876 31.1697L44.3899 32.5092L53.2371 26.3408L43.2619 30.3414L50.1353 22.0053L41.7639 28.5438L45.8174 18.5334L39.2966 27.0457L40.7065 16.4185L36.8292 26.4465L35.3841 10.9375H35.3488Z" fill="white"/>
<path fill-rule="evenodd" clip-rule="evenodd" d="M10.6387 92.6876L110.541 -4.31299V13.7359L10.6387 95.3745V92.6876Z" fill="#E2AE57"/>
<path fill-rule="evenodd" clip-rule="evenodd" d="M14.1697 95.3745L110.541 32.9258L110.522 13.0894L10.6387 95.3745H14.1502H14.1697Z" fill="white"/>
</g>
<defs>
<clipPath id="clip0_5158_359563">
<rect x="0.970703" y="0.843262" width="110" height="110" rx="55" fill="white"/>
</clipPath>
</defs>
</svg>
