<svg width="111" height="111" viewBox="0 0 111 111" fill="none" xmlns="http://www.w3.org/2000/svg">
<g clip-path="url(#clip0_5158_359558)">
<path d="M0.979004 0.843262H110.979V110.843H0.979004V0.843262Z" fill="#D20000"/>
<path d="M0.979004 0.843262H19.6274L55.979 53.8882L92.3306 0.843262H110.979L0.979004 110.843H19.6274L55.979 57.7983L92.3306 110.843H110.979L0.979004 0.843262ZM110.979 44.8433V66.8433L0.979004 44.8433V66.8433L110.979 44.8433ZM44.979 0.843262L55.979 47.98L66.979 0.843262H44.979ZM44.979 110.843L55.979 63.7065L66.979 110.843H44.979Z" fill="#FFE600"/>
<path d="M55.9795 73.5244C65.7448 73.5244 73.6611 65.6081 73.6611 55.8428C73.6611 46.0775 65.7448 38.1611 55.9795 38.1611C46.2142 38.1611 38.2979 46.0775 38.2979 55.8428C38.2979 65.6081 46.2142 73.5244 55.9795 73.5244Z" fill="#FFE600"/>
<path fill-rule="evenodd" clip-rule="evenodd" d="M55.9795 40.127C47.2999 40.127 40.2637 47.1632 40.2637 55.8428C40.2637 64.5224 47.2999 71.5586 55.9795 71.5586C64.6591 71.5586 71.6953 64.5224 71.6953 55.8428C71.6953 47.1632 64.6591 40.127 55.9795 40.127ZM36.332 55.8428C36.332 44.9918 45.1285 36.1953 55.9795 36.1953C66.8305 36.1953 75.6269 44.9918 75.6269 55.8428C75.6269 66.6938 66.8305 75.4902 55.9795 75.4902C45.1285 75.4902 36.332 66.6938 36.332 55.8428Z" fill="#D20000"/>
</g>
<defs>
<clipPath id="clip0_5158_359558">
<rect x="0.979492" y="0.843262" width="110" height="110" rx="55" fill="white"/>
</clipPath>
</defs>
</svg>
