<svg width="111" height="111" viewBox="0 0 111 111" fill="none" xmlns="http://www.w3.org/2000/svg">
<g clip-path="url(#clip0_5158_359388)">
<path d="M0.80127 0.843262H110.801V110.843H0.80127V0.843262Z" fill="#CD2A3E"/>
<path d="M0.80127 17.3428H110.801V94.3428H0.80127V17.3428Z" fill="#006233"/>
<path d="M90.1758 36.2705C90.1758 45.3873 86.5542 54.1307 80.1076 60.5773C73.661 67.0239 64.9176 70.6455 55.8008 70.6455C46.684 70.6455 37.9406 67.0239 31.494 60.5773C25.0475 54.1307 21.4258 45.3873 21.4258 36.2705C20.6573 39.2022 20.2674 42.2202 20.2657 45.251C20.259 50.3029 21.3296 55.2981 23.406 59.9035C25.4825 64.509 28.517 68.6187 32.3073 71.9587C36.0975 75.2987 40.5564 77.7921 45.3865 79.2726C50.2165 80.7532 55.3068 81.1869 60.3177 80.5447C65.3286 79.9026 70.145 78.1994 74.4456 75.5487C78.7463 72.8981 82.4323 69.3609 85.2579 65.1731C88.0835 60.9853 89.9836 56.2431 90.8317 51.2629C91.6797 46.2827 91.4561 41.179 90.1758 36.292V36.2705Z" fill="#FFC400"/>
<path d="M55.8003 22.3276L52.7065 31.8452H42.7163L50.7944 37.7105L47.7222 47.2065L55.8003 41.3413L63.8784 47.2065L60.7847 37.7105L68.8843 31.8452H58.894L55.8003 22.3276Z" fill="#FFC400"/>
</g>
<defs>
<clipPath id="clip0_5158_359388">
<rect x="0.800293" y="0.843262" width="110" height="110" rx="55" fill="white"/>
</clipPath>
</defs>
</svg>
