<svg width="111" height="111" viewBox="0 0 111 111" fill="none" xmlns="http://www.w3.org/2000/svg">
<g clip-path="url(#clip0_5158_359544)">
<path d="M0.090332 0.564453H110.09V110.564H0.090332V0.564453Z" fill="#FECB00"/>
<path d="M0.0898438 37.2383H110.09V110.564H0.0898438V37.2383Z" fill="#34B233"/>
<path d="M0.0898438 73.8906H110.09V110.564H0.0898438V73.8906Z" fill="#EA2839"/>
<path d="M67.2505 59.4316H42.9302L55.0903 18.8906L67.2505 59.4316Z" fill="white"/>
<path d="M45.2544 52.2844L64.93 66.5796L31.2628 92.2304L45.2544 52.2844Z" fill="white"/>
<path d="M58.8461 47.8671L51.3307 70.9971L16.5316 46.9042L58.8461 47.8671Z" fill="white"/>
<path d="M58.8473 70.9967L51.3319 47.8667L93.6464 46.9039L58.8473 70.9967Z" fill="white"/>
<path d="M45.2538 66.5793L64.9294 52.2841L78.921 92.2301L45.2538 66.5793Z" fill="white"/>
</g>
<defs>
<clipPath id="clip0_5158_359544">
<rect x="0.0908203" y="0.564453" width="110" height="110" rx="55" fill="white"/>
</clipPath>
</defs>
</svg>
