<svg width="111" height="111" viewBox="0 0 111 111" fill="none" xmlns="http://www.w3.org/2000/svg">
<g clip-path="url(#clip0_5158_358513)">
<path d="M0.60498 0.498535H110.605V110.499H0.60498V0.498535Z" fill="#0067C6"/>
<path d="M0.60498 37.1724H110.605V73.8247H0.60498V37.1724Z" fill="white"/>
<path d="M39.105 55.3696L40.9312 55.4985L40.9526 55.2192L40.2222 55.1763L40.2866 54.3169L41.0601 53.7583V53.4146L40.2651 53.9946C40.2437 53.8013 40.1362 53.6079 39.9429 53.5435C39.771 53.479 39.5776 53.4575 39.4272 53.5864C39.2554 53.7153 39.2124 53.9731 39.1909 54.1665L39.105 55.3696V55.3696ZM39.3843 55.1333L39.4487 54.231C39.4702 54.0806 39.4917 53.9087 39.6206 53.8013C39.6496 53.7785 39.684 53.7636 39.7205 53.7579C39.7569 53.7523 39.7942 53.7561 39.8287 53.7691C39.8633 53.782 39.8939 53.8037 39.9176 53.8319C39.9414 53.8601 39.9575 53.8939 39.9644 53.9302C40.0718 54.145 40.0288 54.4028 40.0073 54.6392L39.9644 55.1763L39.3843 55.1333V55.1333ZM39.3413 52.5552L41.1245 52.9849L41.5542 51.2446L41.2749 51.1802L40.9312 52.6841L40.394 52.5337L40.6948 51.2017L40.4585 51.1372L40.1362 52.4692L39.6636 52.3618L39.9858 50.9438L39.728 50.8794L39.3413 52.5552V52.5552ZM39.9858 50.1704L41.7046 50.772L41.812 50.5142L41.1245 50.2993L41.4038 49.5044C41.4468 49.2896 41.4897 49.0317 41.3608 48.8384C41.3098 48.766 41.2422 48.7069 41.1638 48.6658C41.0853 48.6247 40.9982 48.6029 40.9097 48.6021C40.6948 48.6021 40.5444 48.7524 40.4585 48.9243C40.3296 49.1606 40.2437 49.4399 40.1577 49.6978L39.9858 50.1704V50.1704ZM40.3296 49.9985L40.6089 49.2251C40.6519 49.0747 40.7378 48.9243 40.8882 48.8813C41.0171 48.8384 41.1675 48.9458 41.1675 49.0962C41.2105 49.311 41.103 49.5688 41.0171 49.7837L40.8882 50.2134L40.3296 49.9985V49.9985ZM40.9526 47.9575L41.9194 48.5161C42.1128 48.6235 42.3491 48.688 42.5425 48.5591C42.8003 48.4302 42.9722 48.1294 43.1011 47.8931C43.187 47.6782 43.273 47.3989 43.144 47.1626C42.9937 46.9478 42.7358 46.8403 42.521 46.6899L41.8765 46.3247L41.769 46.5396C42.0698 46.7544 42.3921 46.9263 42.6929 47.0981C42.8433 47.1841 42.9722 47.356 42.9292 47.5278C42.893 47.7397 42.8043 47.9391 42.6714 48.1079C42.564 48.2583 42.3921 48.3657 42.2202 48.3228C42.0054 48.3013 41.8765 48.1724 41.7046 48.0864L41.0601 47.7212L40.9526 47.936V47.9575ZM42.2632 45.8091L43.7241 46.9048L44.3901 46.0239C44.519 45.8306 44.648 45.5942 44.562 45.3794C44.5227 45.284 44.4577 45.2014 44.3742 45.1408C44.2908 45.0801 44.1922 45.0437 44.0894 45.0356C44.0034 45.0356 43.8745 45.0786 43.8315 45.1216C43.8745 44.9067 43.7241 44.7349 43.5522 44.6919C43.3374 44.606 43.1226 44.7563 42.9722 44.9067C42.8003 45.0786 42.6499 45.2935 42.4995 45.4868L42.2632 45.7876V45.8091ZM42.6284 45.7446L43.144 45.1001C43.23 44.9927 43.3589 44.8853 43.4878 44.9497C43.6167 45.0142 43.6382 45.1646 43.5737 45.2505C43.4878 45.4653 43.3589 45.5942 43.23 45.7661L43.0151 46.0454L42.6284 45.7446V45.7446ZM43.23 46.1743L43.7456 45.5298C43.853 45.4224 43.9605 45.2935 44.1108 45.3149C44.2397 45.3579 44.3257 45.4868 44.3042 45.6157C44.2183 45.8521 44.0464 46.0454 43.896 46.2603L43.6812 46.5396L43.23 46.1958V46.1743ZM43.9175 43.854L45.1636 45.186L46.2378 44.1548L46.0659 43.9829L45.2065 44.7993H45.1636L44.0894 43.6606L43.9175 43.854ZM45.5288 42.436L46.646 43.897L46.8608 43.7251L45.7437 42.2642L45.5288 42.436ZM47.1616 41.3188C46.9934 41.4259 46.8475 41.5646 46.7319 41.7271C46.6226 41.8626 46.5595 42.0295 46.5518 42.2034C46.544 42.3773 46.5921 42.5492 46.689 42.6938C46.7775 42.8392 46.9037 42.958 47.0542 43.0376C47.2046 43.1021 47.355 43.145 47.5269 43.1235C47.7442 43.0831 47.9512 42.9996 48.1357 42.8778C48.3203 42.756 48.4785 42.5985 48.6011 42.4146C48.6847 42.2486 48.7075 42.0585 48.6655 41.8774L48.4077 41.9849C48.4722 42.3501 48.2358 42.522 47.978 42.6938C47.5483 42.9302 47.1616 42.9087 46.9038 42.5435C46.6675 42.1138 46.9468 41.77 47.2905 41.5337C47.5483 41.3833 47.7847 41.2759 48.021 41.4263L48.2358 41.2544C48.0978 41.1583 47.9309 41.1128 47.7632 41.1255C47.5698 41.1255 47.3765 41.1899 47.1616 41.3403V41.3188ZM49.3315 40.2446L49.1382 42.2856L49.439 42.1782L49.4819 41.5337L50.4272 41.1685L50.8999 41.5981L51.1792 41.4692L49.6323 40.1157L49.3315 40.2446ZM49.5894 40.4595L50.1909 40.9751L49.5034 41.2544L49.5894 40.4595V40.4595ZM53.3491 39.106L53.478 40.9321L54.4663 40.8677C54.7241 40.8462 55.0034 40.7817 55.1753 40.5669C55.2754 40.4335 55.343 40.2786 55.3728 40.1145C55.4026 39.9504 55.3939 39.7817 55.3472 39.6216C55.2984 39.4821 55.2127 39.3585 55.0992 39.2639C54.9857 39.1693 54.8486 39.1073 54.7026 39.0845C54.4448 39.02 54.1655 39.063 53.8647 39.0845L53.3491 39.106V39.106ZM53.6284 39.3423L54.4233 39.2993C54.5772 39.2913 54.729 39.3369 54.853 39.4282C54.944 39.4929 55.016 39.5809 55.0613 39.683C55.1067 39.785 55.1238 39.8974 55.1108 40.0083C55.104 40.1339 55.0593 40.2545 54.9826 40.3542C54.9059 40.4539 54.8008 40.528 54.6812 40.5669L54.2515 40.6313L53.7144 40.6528L53.6284 39.3638V39.3423ZM55.9058 38.9985L55.7983 40.8247L57.5815 40.9321V40.6743L56.0776 40.5884L56.1206 40.0298L57.4741 40.1157L57.4956 39.8579L56.1421 39.772V39.2778L57.6245 39.3638V39.106L55.9058 38.9985V38.9985ZM60.6968 39.772L60.0523 41.4907L60.2671 41.5552L60.8042 40.2017V40.1372L60.8472 40.2231L61.4917 42.0278L61.7925 42.1567L62.437 40.438L62.2222 40.3521L61.6851 41.7056V41.77L61.6421 41.7056L60.9976 39.8794L60.6968 39.772ZM63.1675 40.8247L62.3081 42.4575L62.0933 42.3286L62.9097 40.6958L63.1675 40.8247ZM64.5425 41.6411C64.3802 41.5288 64.1978 41.4486 64.0054 41.4048C63.8357 41.3607 63.6563 41.3724 63.4938 41.4382C63.3313 41.504 63.1943 41.6203 63.103 41.77C63.0077 41.903 62.9484 42.0585 62.9312 42.2212C62.9312 42.3931 62.9741 42.5649 63.0601 42.7153C63.185 42.8908 63.3462 43.0373 63.5327 43.145C63.7476 43.2954 63.9409 43.3599 64.1343 43.3813C64.3491 43.3813 64.4995 43.3384 64.6714 43.231L64.4565 43.0161C64.1558 43.231 63.898 43.1021 63.6401 42.9302C63.2319 42.6724 63.0815 42.2856 63.3179 41.9204C63.5972 41.4907 64.0483 41.5981 64.3921 41.8345C64.6499 41.9849 64.8433 42.1782 64.8218 42.4575L65.0366 42.5649C65.0737 42.3978 65.0509 42.2229 64.9722 42.0708C64.8666 41.8943 64.719 41.7467 64.5425 41.6411ZM66.2827 42.9302L64.3706 43.7036L64.5854 43.9185L65.187 43.6821L65.9605 44.3267L65.8101 44.9712L66.0249 45.1646L66.519 43.145L66.3042 42.9302H66.2827ZM66.2183 43.2739L66.0034 44.0474L65.4663 43.5747L66.2183 43.2739ZM67.6792 44.2192L66.2612 45.3794L66.4331 45.5942L66.9917 45.1431L67.5503 45.8091L67.3784 46.7329L67.5933 47.0122L67.7651 46.0239C67.937 46.1528 68.1733 46.2388 68.3452 46.1099C68.5171 46.0454 68.6675 45.895 68.6675 45.7017C68.689 45.4438 68.5171 45.2505 68.3667 45.0571L67.6792 44.2192V44.2192ZM67.6362 44.5845C67.8511 44.8423 68.0659 45.0786 68.2378 45.3364C68.3237 45.4653 68.4526 45.6372 68.3237 45.7876C68.2593 45.9165 68.0659 45.9165 67.9585 45.8306C67.7437 45.6802 67.5933 45.4438 67.3999 45.2505L67.1851 44.9712L67.6362 44.5845V44.5845ZM69.8062 47.1411L67.7437 47.2271L67.9155 47.5063L68.5601 47.4634L69.0542 48.3228L68.689 48.8813L68.8608 49.1392L69.978 47.4204L69.8276 47.1411H69.8062ZM69.6343 47.4204L69.2046 48.0864L68.8394 47.4419L69.6343 47.4204ZM70.9878 49.5688C70.8804 49.2466 70.687 48.9243 70.3862 48.7739C70.2149 48.6902 70.0205 48.6659 69.8338 48.7048C69.6471 48.7437 69.4787 48.8436 69.355 48.9888C69.1401 49.2466 69.1401 49.5903 69.1831 49.8911C69.246 50.2516 69.4099 50.5869 69.6558 50.8579L69.5269 50.9009L69.6128 51.1372L70.4722 50.8364L70.1284 49.9126L69.9351 49.9771L70.1929 50.6646L69.8921 50.772C69.6491 50.5416 69.4839 50.2412 69.4194 49.9126C69.355 49.6548 69.355 49.354 69.5483 49.1821C69.7632 48.9673 70.1284 48.8814 70.4077 49.0747C70.6349 49.276 70.7865 49.5489 70.8374 49.8481C70.9019 50.0415 70.9019 50.2778 70.7515 50.4282C70.7085 50.4497 70.7515 50.4927 70.773 50.5356L70.8589 50.6431C70.935 50.5808 70.9959 50.502 71.0368 50.4126C71.0778 50.3233 71.0978 50.2257 71.0952 50.1274C71.0952 49.9341 71.0523 49.7407 70.9878 49.5688V49.5688ZM71.5249 51.0083L70.4937 51.2017C70.3003 51.2446 70.1714 51.2876 70.064 51.3735C69.978 51.4595 69.9136 51.5669 69.8706 51.7173C69.8417 51.9031 69.849 52.0928 69.8921 52.2759C69.9351 52.4907 69.9995 52.6626 70.1069 52.7915C70.1714 52.9204 70.2788 53.0064 70.3862 53.0493C70.5151 53.0708 70.6655 53.0923 70.8589 53.0493L71.8687 52.8345L71.8257 52.5767L70.8374 52.7915C70.3862 52.856 70.2358 52.6196 70.1499 52.2329C70.064 51.8032 70.1284 51.5454 70.5796 51.4595L71.5679 51.2446L71.5249 51.0083V51.0083ZM72.0835 54.1235L70.1929 53.3071V53.6079L70.7944 53.8657L70.8589 54.854L70.3218 55.1978L70.3433 55.4985L72.105 54.4243L72.0835 54.1235V54.1235ZM71.8042 54.2954L71.1167 54.7251L71.0522 53.9731L71.8042 54.2954ZM40.523 58.8716L40.2651 58.936L40.5444 60.0532L40.8237 59.9888L40.523 58.8716ZM70.687 58.8716L70.9448 58.936L70.6655 60.0532L70.3862 59.9888L70.687 58.8716ZM43.3589 63.5552L41.3179 63.7915L41.4897 64.0493L42.1343 63.9849L42.6714 64.8228L42.3706 65.3814L42.5425 65.6392L43.5308 63.813L43.3589 63.5552ZM43.2085 63.856L42.8218 64.5649L42.3921 63.9419L43.2085 63.856V63.856ZM44.1538 64.6938L42.8433 65.897L43.0151 66.1118L44.1108 65.0591L43.5308 66.6489L43.7456 66.8638L45.314 66.3911L44.2397 67.4009L44.4116 67.5728L45.7007 66.3696L45.4429 66.0689L43.853 66.563L44.4546 64.9946L44.1538 64.6938ZM46.0444 66.6274L44.9487 68.0884L46.3667 69.1626L46.5171 68.9478L45.314 68.0454L45.6577 67.6157L46.7319 68.4106L46.9038 68.1958L45.8081 67.3794L46.1089 66.9927L47.269 67.8735L47.4194 67.6587L46.0444 66.6274ZM47.8491 67.938L46.9897 69.5493L47.2046 69.6782L47.5483 69.0337L48.3433 69.4634L48.5151 70.3872L48.8159 70.5376L48.6226 69.5708C48.8374 69.6353 49.0522 69.5923 49.2026 69.4419C49.3101 69.313 49.396 69.1196 49.3315 68.9478C49.2671 68.7114 49.0308 68.5825 48.8374 68.4751L47.8491 67.938V67.938ZM47.9565 68.3032L48.7944 68.7329C48.9019 68.8403 49.0737 68.9478 49.0522 69.1196C49.0522 69.27 48.8804 69.3345 48.7515 69.3345C48.4722 69.27 48.2573 69.1196 48.021 68.9907L47.6772 68.8189L47.9565 68.3032ZM49.9116 69.0122L49.2241 70.731L49.4819 70.8169L50.1694 69.1196L49.9116 69.0122ZM51.5659 69.5923C51.3798 69.5269 51.1829 69.4978 50.9858 69.5064C50.8119 69.5081 50.6431 69.5652 50.504 69.6696C50.3649 69.7739 50.2627 69.92 50.2124 70.0864C50.1544 70.2444 50.1395 70.415 50.1694 70.5806C50.2124 70.7524 50.2983 70.9028 50.4272 71.0103C50.588 71.1568 50.7785 71.2668 50.9858 71.3325C51.2222 71.4185 51.437 71.4185 51.6304 71.397C51.8192 71.3574 51.9872 71.2505 52.103 71.0962L51.8667 70.9673C51.6089 71.2466 51.3296 71.1821 51.0288 71.0962C50.5776 70.9243 50.3413 70.6021 50.4702 70.1724C50.6206 69.6997 51.0718 69.6997 51.48 69.8286C51.7593 69.9146 51.9956 70.0435 52.0386 70.3228L52.2964 70.3442C52.2753 70.1809 52.1996 70.0295 52.0815 69.9146C51.9389 69.7662 51.7618 69.6555 51.5659 69.5923V69.5923ZM53.4136 70.022L52.2105 71.6763L52.5112 71.7192L52.8765 71.2036L53.8647 71.354L54.0796 71.9556L54.3804 71.9985L53.7144 70.0649L53.4136 70.0005V70.022ZM53.521 70.3228L53.7788 71.0747L53.0483 70.9673L53.521 70.3228V70.3228ZM57.7104 70.022C57.512 70.0565 57.3223 70.1295 57.1519 70.2368C57.0024 70.3238 56.8845 70.4559 56.815 70.6142C56.7455 70.7725 56.728 70.9488 56.7651 71.1177C56.7986 71.277 56.8726 71.425 56.98 71.5474C57.0874 71.6978 57.2378 71.7622 57.4097 71.8267C57.5815 71.8696 57.7964 71.8696 58.0542 71.8267C58.2687 71.786 58.4687 71.6897 58.6343 71.5474C58.7806 71.428 58.8796 71.2604 58.9136 71.0747H58.6128C58.5483 71.4399 58.269 71.5044 57.9683 71.5903C57.4741 71.6763 57.1089 71.5044 57.023 71.0747C56.937 70.5806 57.3237 70.3442 57.7319 70.2583C58.0112 70.1939 58.2905 70.1938 58.4409 70.4087L58.6987 70.3228C58.6047 70.189 58.4685 70.0907 58.312 70.0435C58.1028 69.9799 57.8805 69.9725 57.6675 70.022H57.7104ZM58.9351 69.8071L59.4507 71.5688L61.1694 71.0532L61.0835 70.7954L59.644 71.2251L59.4722 70.7095L60.7827 70.3013L60.7183 70.0649L59.4077 70.4517L59.2573 69.979L60.6538 69.5493L60.5894 69.313L58.9351 69.8071V69.8071ZM60.9116 69.1626L61.6851 70.8384L61.8999 70.731L61.2554 69.356L63.0386 70.1724H63.1675L63.3823 70.0435L62.6304 68.3892L62.4155 68.4966L63.0386 69.8716L61.2124 69.0337L60.9116 69.1841V69.1626ZM62.9312 68.2388L63.0815 68.4536L63.7261 68.0239L63.7476 68.0024L64.6069 69.313L64.8218 69.1626L63.9839 67.8735V67.8306L64.6499 67.4009L64.521 67.186L62.9312 68.2388ZM64.7788 66.9497L66.0249 68.3247L66.2183 68.1313L65.7241 67.6157L66.3687 67.0142L67.314 67.1216L67.5503 66.9067L66.562 66.7778C66.6909 66.606 66.7339 66.3481 66.6265 66.1763C66.5405 66.0259 66.3901 65.897 66.1968 65.897C65.939 65.897 65.7671 66.0689 65.5522 66.2407L64.7788 66.9712V66.9497ZM65.144 66.9712L65.853 66.3267C65.9605 66.2407 66.1538 66.1118 66.3042 66.2192C66.4331 66.3052 66.4331 66.4771 66.3472 66.606C66.2183 66.8208 66.0034 66.9927 65.8101 67.186L65.5522 67.4009L65.144 66.9712V66.9712ZM66.9058 64.8228L67.7222 66.7349L67.937 66.4985L67.6577 65.897L68.3023 65.1235L68.9253 65.2739L69.1187 65.0161L67.0991 64.5864L66.9058 64.8442V64.8228ZM67.228 64.9087L68.0229 65.0591L67.5503 65.6392L67.228 64.9087ZM67.7007 63.7915L69.2476 64.8013L70.0425 63.5552L69.8276 63.4048L69.1831 64.3931V64.436L69.1401 64.4146L67.8511 63.5552L67.7007 63.7915Z" fill="#C8A400"/>
<path d="M55.5988 42.0054L49.8238 51.997L47.0005 56.892H64.1971L61.5021 52.2353L55.5988 42.0054V42.0054Z" fill="white"/>
<path opacity="0.6" d="M55.5938 42.0063L55.1538 42.7397L55.5938 52.823L56.0338 42.7397L55.5938 42.0063Z" fill="#17C0EB"/>
<path opacity="0.6" fill-rule="evenodd" clip-rule="evenodd" d="M55.5938 41.9888L56.0431 42.7376L55.603 52.8236H55.5846L55.1445 42.7376L55.5938 41.9888ZM55.1631 42.7423L55.5938 52.6129L56.0245 42.7423L55.5938 42.0244L55.1631 42.7423Z" fill="#17C0EB"/>
<path d="M55.5946 51.3745H55.5762L55.5946 51.9265L55.613 51.3745H55.5946Z" fill="white"/>
<path opacity="0.6" d="M65.8987 49.4917L65.0653 49.2999L55.6114 52.8342L65.3372 50.1368L65.8987 49.4917Z" fill="#17C0EB"/>
<path opacity="0.6" fill-rule="evenodd" clip-rule="evenodd" d="M65.9172 49.4869L65.3438 50.1455L55.6154 52.8437L55.6098 52.8263L65.0662 49.291L65.9172 49.4869ZM65.0674 49.3101L55.813 52.7699L65.3336 50.1293L65.8833 49.4979L65.0674 49.3101Z" fill="#17C0EB"/>
<path d="M56.9905 52.3886L56.9849 52.3711L56.4656 52.5592L56.9962 52.4061L56.9905 52.3886Z" fill="white"/>
<path opacity="0.6" d="M61.9653 61.6082L61.8902 60.7563L55.6075 52.8574L61.1783 61.2736L61.9653 61.6082Z" fill="#17C0EB"/>
<path opacity="0.6" fill-rule="evenodd" clip-rule="evenodd" d="M61.9749 61.622L61.1713 61.2803L55.5989 52.8618L55.6138 52.851L61.8982 60.7521L61.9749 61.622ZM61.8805 60.7592L55.7302 53.0269L61.1836 61.2656L61.954 61.5932L61.8805 60.7592Z" fill="#17C0EB"/>
<path d="M56.4583 54.0294L56.4731 54.0186L56.1338 53.5828L56.4434 54.0402L56.4583 54.0294Z" fill="white"/>
<path opacity="0.6" d="M49.227 61.6066L50.014 61.272L55.5849 52.8558L49.3021 60.7547L49.227 61.6066Z" fill="#17C0EB"/>
<path opacity="0.6" fill-rule="evenodd" clip-rule="evenodd" d="M49.2171 61.6217L49.2938 60.7518L55.5782 52.8507L55.5931 52.8615L50.0207 61.28L49.2171 61.6217ZM50.0085 61.2652L55.4618 53.0265L49.3115 60.7589L49.238 61.5928L50.0085 61.2652Z" fill="#17C0EB"/>
<path d="M54.7346 54.0278L54.7495 54.0386L55.0591 53.5812L54.7197 54.0169L54.7346 54.0278Z" fill="white"/>
<path opacity="0.6" d="M45.2883 49.4936L45.8498 50.1387L55.5755 52.8362L46.1217 49.3018L45.2883 49.4936Z" fill="#17C0EB"/>
<path opacity="0.6" fill-rule="evenodd" clip-rule="evenodd" d="M45.2721 49.4887L46.1231 49.2928L55.5795 52.8282L55.5739 52.8456L45.8454 50.1474L45.2721 49.4887ZM45.8557 50.1312L55.3763 52.7718L46.1219 49.3119L45.306 49.4997L45.8557 50.1312Z" fill="#17C0EB"/>
<path d="M54.1986 52.3892L54.1929 52.4067L54.7236 52.5598L54.2042 52.3717L54.1986 52.3892Z" fill="white"/>
<path opacity="0.6" d="M57.1081 42.1096L56.5703 42.7745L55.6027 52.8209L57.4417 42.897L57.1081 42.1096Z" fill="#17C0EB"/>
<path opacity="0.6" fill-rule="evenodd" clip-rule="evenodd" d="M57.1104 42.0923L57.4511 42.8963L55.6116 52.823L55.5934 52.8204L56.5613 42.7713L57.1104 42.0923ZM56.579 42.7785L55.6318 52.6131L57.4321 42.8984L57.1055 42.1276L56.579 42.7785Z" fill="#17C0EB"/>
<path d="M55.8048 51.3873L55.7866 51.3848L55.728 51.934L55.8231 51.3899L55.8048 51.3873Z" fill="white"/>
<path opacity="0.6" d="M66.2707 50.9577L65.4721 50.6518L55.6184 52.836L65.625 51.5184L66.2707 50.9577Z" fill="#17C0EB"/>
<path opacity="0.6" fill-rule="evenodd" clip-rule="evenodd" d="M66.2875 50.9561L65.6281 51.5286L55.6188 52.8466L55.6157 52.8286L65.4721 50.6437L66.2875 50.9561ZM65.4706 50.6628L55.8247 52.801L65.6202 51.5111L66.2524 50.9623L65.4706 50.6628Z" fill="#17C0EB"/>
<path d="M57.0432 52.585L57.04 52.5669L56.4996 52.6809L57.0464 52.6031L57.0432 52.585Z" fill="white"/>
<path opacity="0.6" d="M60.6877 62.4058L60.7319 61.5517L55.6096 52.8553L59.9549 61.9649L60.6877 62.4058Z" fill="#17C0EB"/>
<path opacity="0.6" fill-rule="evenodd" clip-rule="evenodd" d="M60.6961 62.4209L59.9479 61.9707L55.6014 52.8586L55.6175 52.85L60.7412 61.5488L60.6961 62.4209ZM60.7226 61.5534L55.7083 53.0403L59.962 61.9578L60.6794 62.3894L60.7226 61.5534Z" fill="#17C0EB"/>
<path d="M56.2904 54.1332L56.3066 54.1245L56.0312 53.6458L56.2741 54.1418L56.2904 54.1332Z" fill="white"/>
<path opacity="0.6" d="M48.0736 60.6333L48.8996 60.4115L55.5875 52.8525L48.2665 59.8002L48.0736 60.6333Z" fill="#17C0EB"/>
<path opacity="0.6" fill-rule="evenodd" clip-rule="evenodd" d="M48.0606 60.6459L48.2576 59.7952L55.5805 52.8456L55.5937 52.8583L48.9039 60.4194L48.0606 60.6459ZM48.8939 60.4031L55.4408 53.0035L48.2742 59.8047L48.0854 60.6203L48.8939 60.4031Z" fill="#17C0EB"/>
<path d="M54.581 53.894L54.5942 53.9067L54.9645 53.4969L54.5678 53.8812L54.581 53.894Z" fill="white"/>
<path opacity="0.6" d="M45.8604 48.0894L46.3266 48.8063L55.5823 52.8311L46.7124 48.0154L45.8604 48.0894Z" fill="#17C0EB"/>
<path opacity="0.6" fill-rule="evenodd" clip-rule="evenodd" d="M45.8464 48.0815L46.7163 48.006L55.5887 52.823L55.5806 52.8395L46.3224 48.8136L45.8464 48.0815ZM46.3348 48.799L55.3953 52.7389L46.7124 48.0247L45.8784 48.0972L46.3348 48.799Z" fill="#17C0EB"/>
<path d="M54.283 52.1959L54.2749 52.2124L54.7791 52.4378L54.291 52.1793L54.283 52.1959Z" fill="white"/>
<path opacity="0.6" d="M58.588 42.424L57.9629 43.0077L55.6065 52.8216L58.8088 43.2502L58.588 42.424Z" fill="#17C0EB"/>
<path opacity="0.6" fill-rule="evenodd" clip-rule="evenodd" d="M58.593 42.407L58.8185 43.2507L55.6153 52.8247L55.5977 52.8196L57.9547 43.003L58.593 42.407ZM57.9713 43.0126L55.6646 52.6197L58.7993 43.2501L58.5832 42.4413L57.9713 43.0126Z" fill="#17C0EB"/>
<path d="M56.0069 51.4294L55.9893 51.4243L55.8548 51.96L56.0246 51.4345L56.0069 51.4294Z" fill="white"/>
<path opacity="0.6" d="M66.4289 52.4632L65.6807 52.049L55.6189 52.8407L65.7114 52.9285L66.4289 52.4632Z" fill="#17C0EB"/>
<path opacity="0.6" fill-rule="evenodd" clip-rule="evenodd" d="M66.4463 52.4617L65.7137 52.9368L55.6184 52.849L55.6178 52.8307L65.6823 52.0388L66.4463 52.4617ZM65.6783 52.0575L55.8286 52.8325L65.7083 52.9185L66.4107 52.4629L65.6783 52.0575Z" fill="#17C0EB"/>
<path d="M57.067 52.7889L57.0664 52.7705L56.5154 52.8082L57.0677 52.8073L57.067 52.7889Z" fill="white"/>
<path opacity="0.6" d="M59.3097 63.0216L59.4723 62.182L55.6102 52.8573L58.6454 62.483L59.3097 63.0216Z" fill="#17C0EB"/>
<path opacity="0.6" fill-rule="evenodd" clip-rule="evenodd" d="M59.3151 63.0379L58.6368 62.488L55.6008 52.8597L55.618 52.8534L59.4812 62.1806L59.3151 63.0379ZM59.4622 62.1826L55.6814 53.0545L58.6527 62.4772L59.3029 63.0045L59.4622 62.1826Z" fill="#17C0EB"/>
<path d="M56.1038 54.2172L56.1211 54.2109L55.915 53.6985L56.0865 54.2235L56.1038 54.2172Z" fill="white"/>
<path opacity="0.6" d="M47.0631 59.5122L47.9119 59.4074L55.5867 52.8528L47.3701 58.714L47.0631 59.5122Z" fill="#17C0EB"/>
<path opacity="0.6" fill-rule="evenodd" clip-rule="evenodd" d="M47.0491 59.5224L47.3625 58.7074L55.5814 52.8446L55.5927 52.8591L47.9157 59.4155L47.0491 59.5224ZM47.908 59.3979L55.421 52.9815L47.3777 58.7191L47.0772 59.5005L47.908 59.3979Z" fill="#17C0EB"/>
<path d="M54.4452 53.7433L54.4565 53.7578L54.8802 53.4035L54.4339 53.7288L54.4452 53.7433Z" fill="white"/>
<path opacity="0.6" d="M46.6186 46.7817L46.9805 47.5566L55.586 52.8303L47.4726 46.827L46.6186 46.7817Z" fill="#17C0EB"/>
<path opacity="0.6" fill-rule="evenodd" clip-rule="evenodd" d="M46.6043 46.7716L47.4763 46.8178L55.5919 52.8228L55.5816 52.8379L46.9738 47.5628L46.6043 46.7716ZM46.9881 47.55L55.4121 52.7125L47.4698 46.8358L46.6338 46.7915L46.9881 47.55Z" fill="#17C0EB"/>
<path d="M54.3858 52.0204L54.3755 52.0356L54.8434 52.3291L54.3961 52.0051L54.3858 52.0204Z" fill="white"/>
<path opacity="0.6" d="M60.0045 42.9426L59.3043 43.4336L55.605 52.8241L60.1082 43.7915L60.0045 42.9426Z" fill="#17C0EB"/>
<path opacity="0.6" fill-rule="evenodd" clip-rule="evenodd" d="M60.011 42.9274L60.1169 43.7942L55.6125 52.8292L55.5957 52.8218L59.296 43.4287L60.011 42.9274ZM59.3111 43.4405L55.6898 52.633L60.098 43.7909L59.9965 42.9599L59.3111 43.4405Z" fill="#17C0EB"/>
<path d="M56.1926 51.5011L56.1758 51.4937L55.9681 52.0054L56.2094 51.5086L56.1926 51.5011Z" fill="white"/>
<path opacity="0.6" d="M66.3705 53.9727L65.6872 53.4585L55.6131 52.8421L65.5952 54.3337L66.3705 53.9727Z" fill="#17C0EB"/>
<path opacity="0.6" fill-rule="evenodd" clip-rule="evenodd" d="M66.3891 53.9751L65.5974 54.3437L55.6126 52.8517L55.6145 52.8335L65.6913 53.4501L66.3891 53.9751ZM65.6847 53.468L55.8231 52.8646L65.5947 54.3247L66.3536 53.9714L65.6847 53.468Z" fill="#17C0EB"/>
<path d="M57.0537 52.9934L57.0557 52.9751L56.5048 52.9357L57.0518 53.0117L57.0537 52.9934Z" fill="white"/>
<path opacity="0.6" d="M57.8479 63.4406L58.1259 62.6318L55.599 52.8603L57.2651 62.8148L57.8479 63.4406Z" fill="#17C0EB"/>
<path opacity="0.6" fill-rule="evenodd" clip-rule="evenodd" d="M57.8525 63.4577L57.2574 62.8186L55.5909 52.8615L55.6088 52.8577L58.1363 62.6318L57.8525 63.4577ZM58.1172 62.6311L55.6436 53.0657L57.2746 62.8102L57.8451 63.4228L58.1172 62.6311Z" fill="#17C0EB"/>
<path d="M55.9009 54.2768L55.9189 54.2729L55.7862 53.7368L55.8829 54.2806L55.9009 54.2768Z" fill="white"/>
<path opacity="0.6" d="M46.2151 58.2606L47.0701 58.2749L55.5825 52.8522L46.6301 57.5128L46.2151 58.2606Z" fill="#17C0EB"/>
<path opacity="0.6" fill-rule="evenodd" clip-rule="evenodd" d="M46.1992 58.2691L46.623 57.5056L55.5779 52.8438L55.587 52.8596L47.0723 58.2838L46.1992 58.2691ZM47.0671 58.2654L55.4 52.957L46.6364 57.5194L46.2301 58.2513L47.0671 58.2654Z" fill="#17C0EB"/>
<path d="M54.3277 53.5759L54.3369 53.5918L54.8058 53.2999L54.3185 53.5599L54.3277 53.5759Z" fill="white"/>
<path opacity="0.6" d="M47.5488 45.592L47.7994 46.4096L55.5871 52.8297L48.3882 45.7557L47.5488 45.592Z" fill="#17C0EB"/>
<path opacity="0.6" fill-rule="evenodd" clip-rule="evenodd" d="M47.535 45.5797L48.3921 45.7469L55.593 52.8228L55.5807 52.8364L47.7908 46.4146L47.535 45.5797ZM47.8068 46.404L55.4303 52.6887L48.3832 45.7638L47.5615 45.6035L47.8068 46.404Z" fill="#17C0EB"/>
<path d="M54.5113 51.8608L54.499 51.8745L54.9216 52.2302L54.5236 51.8472L54.5113 51.8608Z" fill="white"/>
<path opacity="0.6" d="M61.3399 43.6511L60.5782 44.0399L55.608 52.8241L61.3245 44.5062L61.3399 43.6511Z" fill="#17C0EB"/>
<path opacity="0.6" fill-rule="evenodd" clip-rule="evenodd" d="M61.3493 43.637L61.3335 44.5101L55.6154 52.8303L55.5999 52.8206L60.5715 44.0339L61.3493 43.637ZM60.5847 44.0478L55.7193 52.6468L61.3152 44.5043L61.3304 43.6672L60.5847 44.0478Z" fill="#17C0EB"/>
<path d="M56.376 51.5967L56.3604 51.5869L56.0834 52.0648L56.3916 51.6064L56.376 51.5967Z" fill="white"/>
<path opacity="0.6" d="M66.1152 55.4606L65.5101 54.8563L55.6199 52.8438L65.2972 55.7101L66.1152 55.4606Z" fill="#17C0EB"/>
<path opacity="0.6" fill-rule="evenodd" clip-rule="evenodd" d="M66.1311 55.4647L65.2958 55.7195L55.6158 52.8524L55.6203 52.8347L65.5132 54.8477L66.1311 55.4647ZM65.5041 54.8645L55.8225 52.8945L65.2957 55.7004L66.0965 55.4561L65.5041 54.8645Z" fill="#17C0EB"/>
<path d="M57.0253 53.1936L57.0298 53.1758L56.4897 53.0601L57.0209 53.2115L57.0253 53.1936Z" fill="white"/>
<path opacity="0.6" d="M56.355 63.6489L56.7428 62.8866L55.6005 52.8586L55.8649 62.948L56.355 63.6489Z" fill="#17C0EB"/>
<path opacity="0.6" fill-rule="evenodd" clip-rule="evenodd" d="M56.357 63.6671L55.8566 62.9515L55.5921 52.8593L55.6103 52.858L56.7529 62.8888L56.357 63.6671ZM56.7341 62.8854L55.6159 53.0688L55.8748 62.9455L56.3545 63.6315L56.7341 62.8854Z" fill="#17C0EB"/>
<path d="M55.7014 54.304L55.7197 54.3027L55.6629 53.7534L55.683 54.3053L55.7014 54.304Z" fill="white"/>
<path opacity="0.6" d="M45.5495 56.8997L46.3943 57.0329L55.5785 52.8477L46.0646 56.217L45.5495 56.8997Z" fill="#17C0EB"/>
<path opacity="0.6" fill-rule="evenodd" clip-rule="evenodd" d="M45.5343 56.9057L46.0603 56.2086L55.5768 52.8384L55.5837 52.8554L46.3969 57.0418L45.5343 56.9057ZM46.3943 57.0228L55.3849 52.9258L46.0716 56.2241L45.5674 56.8924L46.3943 57.0228Z" fill="#17C0EB"/>
<path d="M54.2372 53.3897L54.2441 53.4067L54.7491 53.1829L54.2304 53.3726L54.2372 53.3897Z" fill="white"/>
<path opacity="0.6" d="M48.6344 44.5404L48.7687 45.385L55.5872 52.8264L49.4429 44.8194L48.6344 44.5404Z" fill="#17C0EB"/>
<path opacity="0.6" fill-rule="evenodd" clip-rule="evenodd" d="M48.623 44.5266L49.4485 44.8115L55.5945 52.8207L55.5805 52.8325L48.7601 45.389L48.623 44.5266ZM48.7774 45.3807L55.4521 52.6652L49.4373 44.827L48.6459 44.5539L48.7774 45.3807Z" fill="#17C0EB"/>
<path d="M54.6562 51.7167L54.6421 51.7285L55.011 52.1396L54.6703 51.7049L54.6562 51.7167Z" fill="white"/>
<path opacity="0.6" d="M62.5631 44.5416L61.7547 44.8206L55.6103 52.8276L62.4288 45.3862L62.5631 44.5416Z" fill="#17C0EB"/>
<path opacity="0.6" fill-rule="evenodd" clip-rule="evenodd" d="M62.5737 44.5285L62.4365 45.3909L55.6162 52.8344L55.6021 52.8226L61.7482 44.8134L62.5737 44.5285ZM61.7594 44.8289L55.7446 52.6671L62.4193 45.3826L62.5508 44.5558L61.7594 44.8289Z" fill="#17C0EB"/>
<path d="M56.5419 51.7184L56.5278 51.7065L56.1871 52.1412L56.556 51.7302L56.5419 51.7184Z" fill="white"/>
<path opacity="0.6" d="M65.6447 56.9011L65.1296 56.2185L55.6157 52.8491L64.8 57.0344L65.6447 56.9011Z" fill="#17C0EB"/>
<path opacity="0.6" fill-rule="evenodd" clip-rule="evenodd" d="M65.6598 56.9073L64.7973 57.0433L55.6105 52.857L55.6174 52.84L65.1339 56.2102L65.6598 56.9073ZM65.1225 56.2257L55.8093 52.9274L64.7998 57.0244L65.6268 56.8939L65.1225 56.2257Z" fill="#17C0EB"/>
<path d="M56.958 53.3911L56.9648 53.374L56.4461 53.1843L56.9511 53.4081L56.958 53.3911Z" fill="white"/>
<path opacity="0.6" d="M54.8438 63.6514L55.3339 62.9506L55.5983 52.8612L54.456 62.8892L54.8438 63.6514Z" fill="#17C0EB"/>
<path opacity="0.6" fill-rule="evenodd" clip-rule="evenodd" d="M54.8423 63.6689L54.4464 62.8905L55.589 52.8598L55.6073 52.861L55.3428 62.9532L54.8423 63.6689ZM55.3246 62.9472L55.5835 53.0706L54.4652 62.8871L54.8448 63.6333L55.3246 62.9472Z" fill="#17C0EB"/>
<path d="M55.4982 54.3054L55.5166 54.3066L55.5368 53.7547L55.4799 54.3041L55.4982 54.3054Z" fill="white"/>
<path opacity="0.6" d="M45.085 55.4642L45.903 55.7137L55.5803 52.8474L45.6901 54.8598L45.085 55.4642Z" fill="#17C0EB"/>
<path opacity="0.6" fill-rule="evenodd" clip-rule="evenodd" d="M45.0676 55.4679L45.6854 54.8508L55.5784 52.8378L55.5828 52.8556L45.9028 55.7227L45.0676 55.4679ZM45.9029 55.7035L55.3762 52.8977L45.6945 54.8677L45.1022 55.4593L45.9029 55.7035Z" fill="#17C0EB"/>
<path d="M54.1728 53.197L54.1772 53.2148L54.7084 53.0634L54.1683 53.1791L54.1728 53.197Z" fill="white"/>
<path opacity="0.6" d="M49.8575 43.6545L49.873 44.5096L55.5895 52.8276L50.6193 44.0433L49.8575 43.6545Z" fill="#17C0EB"/>
<path opacity="0.6" fill-rule="evenodd" clip-rule="evenodd" d="M49.8488 43.6389L50.6266 44.0358L55.5981 52.8225L55.5826 52.8322L49.8646 44.512L49.8488 43.6389ZM49.8828 44.5061L55.4787 52.6487L50.6133 44.0496L49.8677 43.6691L49.8828 44.5061Z" fill="#17C0EB"/>
<path d="M54.8222 51.5986L54.8066 51.6084L55.1148 52.0668L54.8379 51.5889L54.8222 51.5986Z" fill="white"/>
<path opacity="0.6" d="M63.6553 45.5916L62.8159 45.7553L55.6169 52.8294L63.4047 46.4093L63.6553 45.5916Z" fill="#17C0EB"/>
<path opacity="0.6" fill-rule="evenodd" clip-rule="evenodd" d="M63.6683 45.5795L63.4125 46.4144L55.6226 52.8362L55.6103 52.8226L62.8112 45.7466L63.6683 45.5795ZM62.8201 45.7636L55.773 52.6884L63.3965 46.4038L63.6418 45.6033L62.8201 45.7636Z" fill="#17C0EB"/>
<path d="M56.692 51.8608L56.6797 51.8472L56.2818 52.2302L56.7043 51.8745L56.692 51.8608Z" fill="white"/>
<path opacity="0.6" d="M64.9865 58.2595L64.5715 57.5118L55.6191 52.8512L64.1315 58.2739L64.9865 58.2595Z" fill="#17C0EB"/>
<path opacity="0.6" fill-rule="evenodd" clip-rule="evenodd" d="M65.0019 58.2685L64.1288 58.2832L55.6141 52.859L55.6233 52.8431L64.5781 57.505L65.0019 58.2685ZM64.5647 57.5187L55.8011 52.9564L64.134 58.2647L64.9711 58.2507L64.5647 57.5187Z" fill="#17C0EB"/>
<path d="M56.8721 53.576L56.8813 53.5601L56.3941 53.3L56.8629 53.5919L56.8721 53.576Z" fill="white"/>
<path opacity="0.6" d="M53.3504 63.4398L53.9332 62.8139L55.5993 52.8595L53.0725 62.631L53.3504 63.4398Z" fill="#17C0EB"/>
<path opacity="0.6" fill-rule="evenodd" clip-rule="evenodd" d="M53.3472 63.4574L53.0634 62.6315L55.5909 52.8574L55.6088 52.8612L53.9423 62.8184L53.3472 63.4574ZM53.9251 62.8099L55.5561 53.0654L53.0825 62.6308L53.3546 63.4225L53.9251 62.8099Z" fill="#17C0EB"/>
<path d="M55.2989 54.2764L55.3169 54.2803L55.4137 53.7365L55.2809 54.2726L55.2989 54.2764Z" fill="white"/>
<path opacity="0.6" d="M44.8271 53.9731L45.6024 54.334L55.5844 52.8424L45.5104 53.4588L44.8271 53.9731Z" fill="#17C0EB"/>
<path opacity="0.6" fill-rule="evenodd" clip-rule="evenodd" d="M44.809 53.9746L45.5067 53.4495L55.5835 52.8329L55.5854 52.8511L45.6006 54.3431L44.809 53.9746ZM45.6034 54.3242L55.375 52.864L45.5133 53.4675L44.8444 53.9708L45.6034 54.3242Z" fill="#17C0EB"/>
<path d="M54.1441 52.9939L54.146 53.0122L54.6931 52.9362L54.1421 52.9756L54.1441 52.9939Z" fill="white"/>
<path opacity="0.6" d="M51.1964 42.9431L51.0927 43.792L55.5959 52.8246L51.8966 43.4341L51.1964 42.9431Z" fill="#17C0EB"/>
<path opacity="0.6" fill-rule="evenodd" clip-rule="evenodd" d="M51.1897 42.9262L51.9047 43.4275L55.605 52.8205L55.5883 52.828L51.0839 43.7929L51.1897 42.9262ZM51.1027 43.7897L55.511 52.6318L51.8897 43.4393L51.2042 42.9587L51.1027 43.7897Z" fill="#17C0EB"/>
<path d="M55.0075 51.5013L54.9907 51.5088L55.2321 52.0056L55.0243 51.4938L55.0075 51.5013Z" fill="white"/>
<path opacity="0.6" d="M64.5815 46.7823L63.7275 46.8276L55.6141 52.8308L64.2196 47.5571L64.5815 46.7823Z" fill="#17C0EB"/>
<path opacity="0.6" fill-rule="evenodd" clip-rule="evenodd" d="M64.5955 46.7733L64.2259 47.5645L55.6181 52.8397L55.6079 52.8245L63.7235 46.8196L64.5955 46.7733ZM63.7299 46.8376L55.7876 52.7143L64.2116 47.5518L64.5659 46.7933L63.7299 46.8376Z" fill="#17C0EB"/>
<path d="M56.814 52.0216L56.8037 52.0063L56.3564 52.3303L56.8243 52.0369L56.814 52.0216Z" fill="white"/>
<path opacity="0.6" d="M64.1354 59.5122L63.8284 58.714L55.6117 52.8529L63.2866 59.4075L64.1354 59.5122Z" fill="#17C0EB"/>
<path opacity="0.6" fill-rule="evenodd" clip-rule="evenodd" d="M64.1497 59.524L63.283 59.417L55.6061 52.8606L55.6173 52.8461L63.8362 58.7089L64.1497 59.524ZM63.8211 58.7206L55.7777 52.9831L63.2907 59.3995L64.1216 59.502L63.8211 58.7206Z" fill="#17C0EB"/>
<path d="M56.7533 53.745L56.7646 53.7305L56.3183 53.4051L56.742 53.7595L56.7533 53.745Z" fill="white"/>
<path opacity="0.6" d="M51.8907 63.0224L52.555 62.4837L55.5902 52.8581L51.7281 62.1828L51.8907 63.0224Z" fill="#17C0EB"/>
<path opacity="0.6" fill-rule="evenodd" clip-rule="evenodd" d="M51.884 63.0392L51.7179 62.1819L55.5811 52.8547L55.5983 52.8609L52.5623 62.4892L51.884 63.0392ZM52.5464 62.4785L55.5177 53.0558L51.7369 62.1838L51.8962 63.0057L52.5464 62.4785Z" fill="#17C0EB"/>
<path d="M55.094 54.2193L55.1113 54.2256L55.2828 53.7006L55.0767 54.213L55.094 54.2193Z" fill="white"/>
<path opacity="0.6" d="M44.7722 52.4641L45.4897 52.9294L55.5822 52.8416L45.5204 52.0499L44.7722 52.4641Z" fill="#17C0EB"/>
<path opacity="0.6" fill-rule="evenodd" clip-rule="evenodd" d="M44.7554 52.4636L45.5194 52.0407L55.584 52.8326L55.5833 52.8509L45.4881 52.9387L44.7554 52.4636ZM45.4934 52.9203L55.3731 52.8344L45.5235 52.0594L44.791 52.4648L45.4934 52.9203Z" fill="#17C0EB"/>
<path d="M54.1359 52.7912L54.1353 52.8096L54.6876 52.8104L54.1365 52.7728L54.1359 52.7912Z" fill="white"/>
<path opacity="0.6" d="M52.6085 42.4271L52.3877 43.2533L55.59 52.8247L53.2336 43.0107L52.6085 42.4271Z" fill="#17C0EB"/>
<path opacity="0.6" fill-rule="evenodd" clip-rule="evenodd" d="M52.6052 42.4099L53.2435 43.0058L55.6005 52.8224L55.5829 52.8275L52.3797 43.2535L52.6052 42.4099ZM52.3989 43.2529L55.5336 52.6225L53.2269 43.0154L52.615 42.4441L52.3989 43.2529Z" fill="#17C0EB"/>
<path d="M55.1915 51.4324L55.1738 51.4375L55.3437 51.9631L55.2092 51.4274L55.1915 51.4324Z" fill="white"/>
<path opacity="0.6" d="M65.3379 48.0918L64.4859 48.0178L55.616 52.8335L64.8717 48.8087L65.3379 48.0918Z" fill="#17C0EB"/>
<path opacity="0.6" fill-rule="evenodd" clip-rule="evenodd" d="M65.3527 48.0845L64.8766 48.8165L55.6184 52.8424L55.6104 52.8259L64.4828 48.0089L65.3527 48.0845ZM64.4867 48.0277L55.8038 52.7418L64.8643 48.8019L65.3207 48.1001L64.4867 48.0277Z" fill="#17C0EB"/>
<path d="M56.9153 52.1992L56.9072 52.1826L56.4191 52.4411L56.9234 52.2157L56.9153 52.1992Z" fill="white"/>
<path opacity="0.6" d="M63.1264 60.6362L62.9335 59.8031L55.6125 52.8554L62.3004 60.4143L63.1264 60.6362Z" fill="#17C0EB"/>
<path opacity="0.6" fill-rule="evenodd" clip-rule="evenodd" d="M63.1382 60.6485L62.2949 60.422L55.6051 52.8609L55.6183 52.8482L62.9413 59.7978L63.1382 60.6485ZM62.9247 59.8073L55.7581 53.0061L62.305 60.4057L63.1135 60.6229L62.9247 59.8073Z" fill="#17C0EB"/>
<path d="M56.6176 53.8975L56.6309 53.8848L56.2342 53.5005L56.6044 53.9103L56.6176 53.8975Z" fill="white"/>
<path opacity="0.6" d="M50.5119 62.4092L51.2447 61.9682L55.59 52.8586L50.4677 61.5551L50.5119 62.4092Z" fill="#17C0EB"/>
<path opacity="0.6" fill-rule="evenodd" clip-rule="evenodd" d="M50.5037 62.4243L50.4586 61.5523L55.5823 52.8534L55.5984 52.862L51.2519 61.9741L50.5037 62.4243ZM51.2378 61.9612L55.4915 53.0437L50.4771 61.5568L50.5204 62.3929L51.2378 61.9612Z" fill="#17C0EB"/>
<path d="M54.91 54.1374L54.9263 54.146L55.1692 53.65L54.8938 54.1287L54.91 54.1374Z" fill="white"/>
<path opacity="0.6" d="M44.9285 50.9607L45.5742 51.5214L55.5808 52.839L45.727 50.6548L44.9285 50.9607Z" fill="#17C0EB"/>
<path opacity="0.6" fill-rule="evenodd" clip-rule="evenodd" d="M44.9115 50.9579L45.7269 50.6455L55.5833 52.8304L55.5802 52.8484L45.5709 51.5304L44.9115 50.9579ZM45.5788 51.513L55.3743 52.8028L45.7284 50.6646L44.9466 50.9641L45.5788 51.513Z" fill="#17C0EB"/>
<path d="M54.1536 52.5878L54.1504 52.606L54.6972 52.6837L54.1568 52.5697L54.1536 52.5878Z" fill="white"/>
<path opacity="0.6" d="M54.0929 42.1121L53.7593 42.8995L55.5983 52.8235L54.6307 42.7771L54.0929 42.1121Z" fill="#17C0EB"/>
<path opacity="0.6" fill-rule="evenodd" clip-rule="evenodd" d="M54.0919 42.0952L54.641 42.7742L55.6089 52.8233L55.5907 52.8259L53.7512 42.8992L54.0919 42.0952ZM53.7702 42.9013L55.5705 52.616L54.6233 42.7814L54.0968 42.1305L53.7702 42.9013Z" fill="#17C0EB"/>
<path d="M55.3991 51.389L55.3809 51.3916L55.4759 51.9357L55.4173 51.3865L55.3991 51.389Z" fill="white"/>
<path d="M55.5975 49.229C53.6446 49.2268 51.7566 49.9299 50.2808 51.209L47.6042 55.8657C47.5083 56.3672 47.4592 56.8766 47.4575 57.3873H48.3742C48.4675 55.5369 49.2683 53.7931 50.611 52.5164C51.9536 51.2397 53.7356 50.5278 55.5883 50.5278C57.4411 50.5278 59.223 51.2397 60.5657 52.5164C61.9084 53.7931 62.7091 55.5369 62.8025 57.3873H63.7191C63.7235 56.8772 63.6805 56.3678 63.5908 55.8657L60.9141 51.209C59.4376 49.9314 57.5501 49.2284 55.5975 49.229Z" fill="#FF0000"/>
<path d="M55.5997 49.3945C53.5278 49.3902 51.5356 50.1924 50.0448 51.6312L47.8448 55.4629C47.689 56.0865 47.6089 56.7267 47.6064 57.3695H48.3948C48.5248 55.5474 49.3404 53.8423 50.6773 52.5975C52.0142 51.3526 53.773 50.6605 55.5997 50.6605C57.4265 50.6605 59.1853 51.3526 60.5222 52.5975C61.8591 53.8423 62.6747 55.5474 62.8047 57.3695H63.593C63.5915 56.7206 63.5115 56.0742 63.3547 55.4445L61.1547 51.6312C59.6639 50.1924 57.6716 49.3902 55.5997 49.3945V49.3945Z" fill="#FF6600"/>
<path d="M55.5985 49.5406C54.4908 49.5376 53.3951 49.7698 52.3838 50.2217C51.3725 50.6736 50.4686 51.335 49.7319 52.1622L48.1369 54.9122C47.8828 55.7122 47.759 56.5479 47.7702 57.3872H48.3752C48.4685 55.5368 49.2693 53.793 50.612 52.5163C51.9547 51.2396 53.7366 50.5277 55.5894 50.5277C57.4421 50.5277 59.2241 51.2396 60.5667 52.5163C61.9094 53.793 62.7102 55.5368 62.8035 57.3872H63.4452C63.4452 56.5255 63.2985 55.7005 63.0602 54.9305L61.4469 52.1622C60.7129 51.3364 59.8121 50.6758 58.804 50.2238C57.7959 49.7719 56.7033 49.539 55.5985 49.5406V49.5406Z" fill="#FFFF00"/>
<path d="M55.5979 49.6868C54.3334 49.6861 53.0882 49.9969 51.9723 50.5916C50.8564 51.1863 49.9041 52.0467 49.1996 53.0968L48.6863 53.9951C48.1667 55.0502 47.897 56.2107 47.898 57.3868H48.393C48.523 55.5647 49.3386 53.8596 50.6755 52.6147C52.0123 51.3699 53.7712 50.6778 55.5979 50.6778C57.4246 50.6778 59.1835 51.3699 60.5204 52.6147C61.8572 53.8596 62.6728 55.5647 62.8029 57.3868H63.2979C63.2988 56.2107 63.0291 55.0502 62.5096 53.9951L61.9962 53.0784C61.2917 52.0284 60.3395 51.168 59.2235 50.5733C58.1076 49.9785 56.8624 49.6678 55.5979 49.6685V49.6868Z" fill="#00FF00"/>
<path d="M55.5997 49.8159C54.6063 49.8159 53.6226 50.0119 52.7049 50.3926C51.7873 50.7734 50.9539 51.3314 50.2522 52.0347C49.5506 52.738 48.9946 53.5729 48.6161 54.4914C48.2376 55.4099 48.044 56.3941 48.0464 57.3876H48.3947C48.5248 55.5655 49.3404 53.8604 50.6773 52.6155C52.0141 51.3707 53.773 50.6786 55.5997 50.6786C57.4264 50.6786 59.1853 51.3707 60.5222 52.6155C61.859 53.8604 62.6746 55.5655 62.8047 57.3876H63.153C63.1554 56.3941 62.9618 55.4099 62.5833 54.4914C62.2048 53.5729 61.6488 52.738 60.9472 52.0347C60.2456 51.3314 59.4121 50.7734 58.4945 50.3926C57.5769 50.0119 56.5932 49.8159 55.5997 49.8159V49.8159Z" fill="#00CCFF"/>
<path d="M55.5995 49.9629C53.6351 49.9629 51.7512 50.7432 50.3622 52.1322C48.9732 53.5213 48.1929 55.4052 48.1929 57.3695H48.4495C48.4495 55.4732 49.2028 53.6546 50.5437 52.3137C51.8846 50.9729 53.7032 50.2196 55.5995 50.2196C57.4958 50.2196 59.3144 50.9729 60.6553 52.3137C61.9962 53.6546 62.7495 55.4732 62.7495 57.3695H63.0062C62.9965 55.4115 62.2118 53.537 60.8239 52.1559C59.4359 50.7748 57.5575 49.9995 55.5995 49.9996V49.9629Z" fill="#0000FF"/>
<path d="M55.5975 50.1272C54.6332 50.1271 53.6786 50.319 52.7893 50.6919C51.9 51.0647 51.0939 51.611 50.418 52.2988C49.7422 52.9866 49.2101 53.8021 48.8529 54.6978C48.4957 55.5935 48.3205 56.5514 48.3376 57.5155H48.4842V57.3689C48.5037 55.4823 49.2718 53.6807 50.6195 52.3605C51.9673 51.0402 53.7843 50.3094 55.6709 50.3289C57.5574 50.3483 59.359 51.1164 60.6793 52.4642C61.9995 53.8119 62.7303 55.629 62.7108 57.5155H62.8575V57.3689C62.8575 56.4155 62.6697 55.4714 62.3049 54.5906C61.94 53.7098 61.4053 52.9094 60.7311 52.2353C60.057 51.5611 59.2566 51.0264 58.3758 50.6615C57.495 50.2967 56.5509 50.1089 55.5975 50.1089V50.1272Z" fill="#800080"/>
<path d="M55.6719 53.3165C55.5436 53.3165 55.4519 53.2249 55.3419 53.2065C55.2884 53.2536 55.2483 53.3141 55.2258 53.3817C55.2032 53.4494 55.199 53.5218 55.2136 53.5915C55.2686 53.6099 55.2686 53.6649 55.3786 53.7565C55.4886 53.8482 55.4702 53.8849 55.4519 54.1232C55.4519 54.1965 55.4702 54.3982 55.5619 54.4165C55.6536 54.4349 55.7452 54.3615 55.7636 54.1965C55.7819 54.0682 55.8369 53.9765 55.8919 53.9032C55.9469 53.5549 55.8552 53.4265 55.6719 53.3165Z" fill="#510000"/>
<path d="M55.0864 52.4735C54.9764 52.4735 54.7931 52.6568 54.7198 52.5651C54.6831 52.5101 54.6648 52.4001 54.7198 52.3085C54.8023 52.1261 54.9446 51.9774 55.1231 51.8868C55.5448 51.6301 55.8381 51.7035 56.0398 52.0701C56.2414 52.4001 56.4431 52.7668 56.4614 53.0601C56.4614 53.1518 56.5164 53.3168 56.4248 53.4085C56.1864 53.6651 55.5814 53.1335 55.2331 53.2251C55.1231 53.2435 54.9764 53.3351 54.8664 53.2618C54.7931 53.2068 54.8664 53.0785 54.9214 53.0235C55.0314 52.9318 55.1964 52.5835 55.1781 52.4368C55.1781 52.3635 55.1781 52.4735 55.0864 52.4735V52.4735Z" fill="#FF0000"/>
<path d="M55.0491 52.309C54.8291 52.3824 54.8657 52.4924 54.7557 52.584C54.7924 52.6024 54.9024 52.639 55.0124 52.529C55.0491 52.4924 55.1041 52.474 55.1407 52.474L55.0124 52.6024C54.9035 52.692 54.8158 52.8047 54.7557 52.9324C54.7007 53.079 54.6824 53.244 54.7007 53.2624C54.7007 53.2624 54.7741 53.409 54.9757 53.4824C55.3424 53.629 55.4157 53.9407 55.8007 53.9407C56.0941 53.9407 56.0574 53.739 56.2957 53.7757C56.479 53.8124 56.6074 53.6474 56.4057 53.5557C56.0788 53.4915 55.7426 53.4915 55.4157 53.5557C55.3424 52.8224 55.4157 53.079 55.3974 52.749C55.3791 52.4374 55.2691 52.419 55.3974 52.144C55.3057 52.3274 55.1774 52.2907 55.0307 52.2907L55.0491 52.309Z" fill="url(#paint0_linear_5158_358513)"/>
<path d="M55.782 51.7954L55.7637 51.9055L55.8187 52.089L55.8554 52.2726C55.8554 52.3276 55.9288 52.346 55.9839 52.3827C56.0573 52.4377 55.9839 52.5662 56.039 52.5846C56.0757 52.5846 56.1307 52.401 56.1307 52.3643V52.2359C56.102 52.1798 56.0714 52.1247 56.039 52.0707C56.0276 52.0517 56.0154 52.0334 56.0023 52.0156C55.9615 51.9538 55.9121 51.8982 55.8554 51.8505C55.8376 51.8374 55.8193 51.8252 55.8004 51.8138L55.7637 51.7954H55.782Z" fill="#FF2A2A"/>
<path d="M55.8372 53.189L55.4706 53.0607C55.2322 52.9874 54.9939 52.8407 54.8289 52.914C54.7739 52.9324 54.7739 52.9874 54.7556 53.079C54.7556 53.1707 54.6639 53.3174 54.7556 53.2624C54.8656 53.189 55.1956 53.409 55.3056 53.464C55.3606 53.5007 55.4889 53.574 55.5072 53.6474C55.5439 53.7574 55.5072 53.9774 55.5072 54.0874C55.5072 54.179 55.5439 54.4174 55.6356 54.454C55.7456 54.4724 55.8372 54.3807 55.8739 54.2157C55.9289 54.0507 55.9472 53.959 56.0206 53.8674C56.0939 53.7757 56.1672 53.7207 56.2589 53.7024C56.3689 53.7024 56.5156 53.794 56.5156 53.6657C56.5156 53.5924 56.4422 53.519 56.4789 53.409C56.4972 53.3174 56.4056 53.3357 56.3139 53.299L55.8189 53.189H55.8372Z" fill="url(#paint1_linear_5158_358513)"/>
<path d="M55.3082 53.4665C55.2346 53.4297 54.885 53.1904 54.7562 53.2825C54.701 53.2825 54.6826 53.2825 54.6826 53.2273L54.7194 53.0616C54.7194 53.0064 54.7562 52.9144 54.8114 52.8776C54.9402 52.7672 55.2346 52.9696 55.3818 53.0248L55.3082 53.4665V53.4665Z" fill="#910000"/>
<path d="M55.9291 53.9225C56.0943 53.6289 56.2044 53.6656 56.4062 53.6656C56.4797 53.6656 56.498 53.6105 56.4797 53.5371C56.4246 53.6472 56.1677 53.5371 56.0208 53.5922C55.7456 53.7206 55.8006 54.2712 55.6538 54.3263C55.8006 54.4547 55.8557 54.0143 55.9291 53.9225V53.9225Z" fill="#FF3A3A"/>
<path d="M46.9984 56.8921L45.165 60.0637H66.0466L64.2133 56.9104H47.0167L46.9984 56.8921Z" fill="white"/>
<path d="M46.3752 59.4229C46.0871 59.4224 45.7993 59.4408 45.5135 59.4779L45.4219 59.6429C45.8619 59.5879 46.2835 59.5146 46.7419 59.5146C47.3285 59.5146 47.8785 59.6612 48.5202 59.6612H49.3635C50.0052 59.6612 50.5369 59.5146 51.1419 59.5146C51.7469 59.5146 52.2968 59.6612 52.9385 59.6612H53.7818C54.4235 59.6612 54.9552 59.5146 55.5602 59.5146C56.1652 59.5146 56.7152 59.6612 57.3568 59.6612H58.1818C58.8235 59.6612 59.3735 59.5146 59.9785 59.5146C60.5835 59.5146 61.1335 59.6612 61.7751 59.6612H62.6001C63.2418 59.6612 63.7918 59.5146 64.3968 59.5146C64.8735 59.5146 65.3135 59.6062 65.7718 59.6429L65.6801 59.4596C65.4122 59.4318 65.1428 59.4195 64.8735 59.4229H64.0485C63.4068 59.4229 62.8568 59.5512 62.2518 59.5696C61.6468 59.5696 61.0968 59.4229 60.4551 59.4229H59.6302C58.9885 59.4229 58.4385 59.5512 57.8335 59.5696C57.2285 59.5696 56.6785 59.4229 56.0368 59.4229H55.2302C54.5885 59.4229 54.0385 59.5512 53.4335 59.5696C52.8285 59.5696 52.2785 59.4229 51.6368 59.4229H50.8119C50.1702 59.4229 49.6202 59.5512 49.0152 59.5696C48.4102 59.5696 47.8785 59.4229 47.2369 59.4229H46.3935H46.3752Z" fill="url(#paint2_linear_5158_358513)"/>
<path d="M46.3752 59.2208C46.0871 59.2203 45.7993 59.2386 45.5135 59.2758L45.4219 59.4408C45.8619 59.3858 46.2835 59.3124 46.7419 59.3124C47.3285 59.3124 47.8785 59.4591 48.5202 59.4591H49.3635C50.0052 59.4591 50.5369 59.3124 51.1419 59.3124C51.7469 59.3124 52.2968 59.4591 52.9385 59.4591H53.7818C54.4235 59.4591 54.9552 59.3124 55.5602 59.3124C56.1652 59.3124 56.7152 59.4591 57.3568 59.4591H58.1818C58.8235 59.4591 59.3735 59.3124 59.9785 59.3124C60.5835 59.3124 61.1335 59.4591 61.7751 59.4591H62.6001C63.2418 59.4591 63.7918 59.3124 64.3968 59.3124C64.8735 59.3124 65.3135 59.4041 65.7718 59.4408L65.6801 59.2574C65.4122 59.2296 65.1428 59.2174 64.8735 59.2208H64.0485C63.4068 59.2208 62.8568 59.3491 62.2518 59.3674C61.6468 59.3674 61.0968 59.2208 60.4551 59.2208H59.6302C58.9885 59.2208 58.4385 59.3491 57.8335 59.3674C57.2285 59.3674 56.6785 59.2208 56.0368 59.2208H55.2302C54.5885 59.2208 54.0385 59.3491 53.4335 59.3674C52.8285 59.3674 52.2785 59.2208 51.6368 59.2208H50.8119C50.1702 59.2208 49.6202 59.3491 49.0152 59.3674C48.4102 59.3674 47.8785 59.2208 47.2369 59.2208H46.3935H46.3752Z" fill="url(#paint3_linear_5158_358513)"/>
<path d="M46.3762 59.0191C46.0881 59.0186 45.8002 59.037 45.5145 59.0741L45.4229 59.2391C45.8628 59.1841 46.2845 59.1108 46.7428 59.1108C47.3295 59.1108 47.8795 59.2574 48.5212 59.2574H49.3645C50.0062 59.2574 50.5378 59.1108 51.1428 59.1108C51.7478 59.1108 52.2978 59.2574 52.9395 59.2574H53.7828C54.4245 59.2574 54.9561 59.1108 55.5611 59.1108C56.1661 59.1108 56.7161 59.2574 57.3578 59.2574H58.1828C58.8245 59.2574 59.3745 59.1108 59.9795 59.1108C60.5845 59.1108 61.1345 59.2574 61.7761 59.2574H62.6011C63.2428 59.2574 63.7928 59.1108 64.3978 59.1108C64.8744 59.1108 65.3144 59.2024 65.7728 59.2391L65.6811 59.0558C65.4132 59.028 65.1438 59.0157 64.8744 59.0191H64.0494C63.4078 59.0191 62.8578 59.1474 62.2528 59.1658C61.6478 59.1658 61.0978 59.0191 60.4561 59.0191H59.6311C58.9895 59.0191 58.4395 59.1474 57.8345 59.1658C57.2295 59.1658 56.6795 59.0191 56.0378 59.0191H55.2311C54.5895 59.0191 54.0395 59.1474 53.4345 59.1658C52.8295 59.1658 52.2795 59.0191 51.6378 59.0191H50.8128C50.1712 59.0191 49.6212 59.1474 49.0162 59.1658C48.4112 59.1658 47.8795 59.0191 47.2378 59.0191H46.3945H46.3762Z" fill="url(#paint4_linear_5158_358513)"/>
<path d="M46.3752 58.8189C46.0871 58.8184 45.7993 58.8368 45.5135 58.8739L45.4219 59.0389C45.8619 58.9839 46.2835 58.9106 46.7419 58.9106C47.3285 58.9106 47.8785 59.0572 48.5202 59.0572H49.3635C50.0052 59.0572 50.5369 58.9106 51.1419 58.9106C51.7469 58.9106 52.2968 59.0572 52.9385 59.0572H53.7818C54.4235 59.0572 54.9552 58.9106 55.5602 58.9106C56.1652 58.9106 56.7152 59.0572 57.3568 59.0572H58.1818C58.8235 59.0572 59.3735 58.9106 59.9785 58.9106C60.5835 58.9106 61.1335 59.0572 61.7751 59.0572H62.6001C63.2418 59.0572 63.7918 58.9106 64.3968 58.9106C64.8735 58.9106 65.3135 59.0022 65.7718 59.0389L65.6801 58.8556C65.4122 58.8278 65.1428 58.8155 64.8735 58.8189H64.0485C63.4068 58.8189 62.8568 58.9472 62.2518 58.9656C61.6468 58.9656 61.0968 58.8189 60.4551 58.8189H59.6302C58.9885 58.8189 58.4385 58.9472 57.8335 58.9656C57.2285 58.9656 56.6785 58.8189 56.0368 58.8189H55.2302C54.5885 58.8189 54.0385 58.9472 53.4335 58.9656C52.8285 58.9656 52.2785 58.8189 51.6368 58.8189H50.8119C50.1702 58.8189 49.6202 58.9472 49.0152 58.9656C48.4102 58.9656 47.8785 58.8189 47.2369 58.8189H46.3935H46.3752Z" fill="url(#paint5_linear_5158_358513)"/>
<path d="M46.3752 58.6168C46.0871 58.6163 45.7993 58.6346 45.5135 58.6718L45.4219 58.8368C45.8619 58.7818 46.2835 58.7084 46.7419 58.7084C47.3285 58.7084 47.8785 58.8551 48.5202 58.8551H49.3635C50.0052 58.8551 50.5369 58.7084 51.1419 58.7084C51.7469 58.7084 52.2968 58.8551 52.9385 58.8551H53.7818C54.4235 58.8551 54.9552 58.7084 55.5602 58.7084C56.1652 58.7084 56.7152 58.8551 57.3568 58.8551H58.1818C58.8235 58.8551 59.3735 58.7084 59.9785 58.7084C60.5835 58.7084 61.1335 58.8551 61.7751 58.8551H62.6001C63.2418 58.8551 63.7918 58.7084 64.3968 58.7084C64.8735 58.7084 65.3135 58.8001 65.7718 58.8368L65.6801 58.6534C65.4122 58.6256 65.1428 58.6134 64.8735 58.6168H64.0485C63.4068 58.6168 62.8568 58.7451 62.2518 58.7634C61.6468 58.7634 61.0968 58.6168 60.4551 58.6168H59.6302C58.9885 58.6168 58.4385 58.7451 57.8335 58.7634C57.2285 58.7634 56.6785 58.6168 56.0368 58.6168H55.2302C54.5885 58.6168 54.0385 58.7451 53.4335 58.7634C52.8285 58.7634 52.2785 58.6168 51.6368 58.6168H50.8119C50.1702 58.6168 49.6202 58.7451 49.0152 58.7634C48.4102 58.7634 47.8785 58.6168 47.2369 58.6168H46.3935H46.3752Z" fill="url(#paint6_linear_5158_358513)"/>
<path d="M46.3757 58.4151C46.0876 58.4146 45.7997 58.433 45.514 58.4701L45.4224 58.6351C45.8624 58.5801 46.284 58.5068 46.7424 58.5068C47.329 58.5068 47.879 58.6534 48.5207 58.6534H49.364C50.0057 58.6534 50.5373 58.5068 51.1423 58.5068C51.7473 58.5068 52.2973 58.6534 52.939 58.6534H53.7823C54.424 58.6534 54.9557 58.5068 55.5607 58.5068C56.1657 58.5068 56.7157 58.6534 57.3573 58.6534H58.1823C58.824 58.6534 59.374 58.5068 59.979 58.5068C60.584 58.5068 61.134 58.6534 61.7756 58.6534H62.6006C63.2423 58.6534 63.7923 58.5068 64.3973 58.5068C64.874 58.5068 65.314 58.5984 65.7723 58.6351L65.6806 58.4518C65.4127 58.424 65.1433 58.4117 64.8739 58.4151H64.049C63.4073 58.4151 62.8573 58.5434 62.2523 58.5618C61.6473 58.5618 61.0973 58.4151 60.4556 58.4151H59.6306C58.989 58.4151 58.439 58.5434 57.834 58.5618C57.229 58.5618 56.679 58.4151 56.0373 58.4151H55.2307C54.589 58.4151 54.039 58.5434 53.434 58.5618C52.829 58.5618 52.279 58.4151 51.6373 58.4151H50.8123C50.1707 58.4151 49.6207 58.5434 49.0157 58.5618C48.4107 58.5618 47.879 58.4151 47.2374 58.4151H46.394H46.3757Z" fill="url(#paint7_linear_5158_358513)"/>
<path d="M46.3752 58.1949C46.0871 58.1944 45.7993 58.2128 45.5135 58.2499L45.4219 58.4149C45.8619 58.3599 46.2835 58.2866 46.7419 58.2866C47.3285 58.2866 47.8785 58.4332 48.5202 58.4332H49.3635C50.0052 58.4332 50.5369 58.2866 51.1419 58.2866C51.7469 58.2866 52.2968 58.4332 52.9385 58.4332H53.7818C54.4235 58.4332 54.9552 58.2866 55.5602 58.2866C56.1652 58.2866 56.7152 58.4332 57.3568 58.4332H58.1818C58.8235 58.4332 59.3735 58.2866 59.9785 58.2866C60.5835 58.2866 61.1335 58.4332 61.7751 58.4332H62.6001C63.2418 58.4332 63.7918 58.2866 64.3968 58.2866C64.8735 58.2866 65.3135 58.3782 65.7718 58.4149L65.6801 58.2316C65.4122 58.2037 65.1428 58.1915 64.8735 58.1949H64.0485C63.4068 58.1949 62.8568 58.3232 62.2518 58.3416C61.6468 58.3416 61.0968 58.1949 60.4551 58.1949H59.6302C58.9885 58.1949 58.4385 58.3232 57.8335 58.3416C57.2285 58.3416 56.6785 58.1949 56.0368 58.1949H55.2302C54.5885 58.1949 54.0385 58.3232 53.4335 58.3416C52.8285 58.3416 52.2785 58.1949 51.6368 58.1949H50.8119C50.1702 58.1949 49.6202 58.3232 49.0152 58.3416C48.4102 58.3416 47.8785 58.1949 47.2369 58.1949H46.3935H46.3752Z" fill="url(#paint8_linear_5158_358513)"/>
<path d="M46.3752 57.9932C46.0871 57.9927 45.7993 58.0111 45.5135 58.0482L45.4219 58.2132C45.8619 58.1582 46.2835 58.0849 46.7419 58.0849C47.3285 58.0849 47.8785 58.2316 48.5202 58.2316H49.3635C50.0052 58.2316 50.5369 58.0849 51.1419 58.0849C51.7469 58.0849 52.2968 58.2316 52.9385 58.2316H53.7818C54.4235 58.2316 54.9552 58.0849 55.5602 58.0849C56.1652 58.0849 56.7152 58.2316 57.3568 58.2316H58.1818C58.8235 58.2316 59.3735 58.0849 59.9785 58.0849C60.5835 58.0849 61.1335 58.2316 61.7751 58.2316H62.6001C63.2418 58.2316 63.7918 58.0849 64.3968 58.0849C64.8735 58.0849 65.3135 58.1766 65.7718 58.2132L65.6801 58.0299C65.4122 58.0021 65.1428 57.9898 64.8735 57.9932H64.0485C63.4068 57.9932 62.8568 58.1216 62.2518 58.1399C61.6468 58.1399 61.0968 57.9932 60.4551 57.9932H59.6302C58.9885 57.9932 58.4385 58.1216 57.8335 58.1399C57.2285 58.1399 56.6785 57.9932 56.0368 57.9932H55.2302C54.5885 57.9932 54.0385 58.1216 53.4335 58.1399C52.8285 58.1399 52.2785 57.9932 51.6368 57.9932H50.8119C50.1702 57.9932 49.6202 58.1216 49.0152 58.1399C48.4102 58.1399 47.8785 57.9932 47.2369 57.9932H46.3935H46.3752Z" fill="url(#paint9_linear_5158_358513)"/>
<path d="M46.3757 57.7916C46.0876 57.7911 45.7997 57.8094 45.514 57.8466L45.4224 58.0116C45.8624 57.9566 46.284 57.8832 46.7424 57.8832C47.329 57.8832 47.879 58.0299 48.5207 58.0299H49.364C50.0057 58.0299 50.5373 57.8832 51.1423 57.8832C51.7473 57.8832 52.2973 58.0299 52.939 58.0299H53.7823C54.424 58.0299 54.9557 57.8832 55.5607 57.8832C56.1657 57.8832 56.7157 58.0299 57.3573 58.0299H58.1823C58.824 58.0299 59.374 57.8832 59.979 57.8832C60.584 57.8832 61.134 58.0299 61.7756 58.0299H62.6006C63.2423 58.0299 63.7923 57.8832 64.3973 57.8832C64.874 57.8832 65.314 57.9749 65.7723 58.0116L65.6806 57.8282C65.4127 57.8004 65.1433 57.7882 64.8739 57.7916H64.049C63.4073 57.7916 62.8573 57.9199 62.2523 57.9382C61.6473 57.9382 61.0973 57.7916 60.4556 57.7916H59.6306C58.989 57.7916 58.439 57.9199 57.834 57.9382C57.229 57.9382 56.679 57.7916 56.0373 57.7916H55.2307C54.589 57.7916 54.039 57.9199 53.434 57.9382C52.829 57.9382 52.279 57.7916 51.6373 57.7916H50.8123C50.1707 57.7916 49.6207 57.9199 49.0157 57.9382C48.4107 57.9382 47.879 57.7916 47.2374 57.7916H46.394H46.3757Z" fill="url(#paint10_linear_5158_358513)"/>
<path d="M47.0172 56.874V56.9107H64.1955L64.1771 56.874H47.0172V56.874ZM46.9805 56.929L46.9622 56.984H64.2138L64.1955 56.929H46.9622H46.9805ZM46.9439 57.0024L46.9072 57.0574H64.2871L64.2505 57.0024H46.9439V57.0024ZM46.8889 57.094L46.8339 57.1857H64.3605L64.3055 57.094H46.8889ZM46.8155 57.2224L46.7605 57.314H64.4338L64.3788 57.2224H46.8155V57.2224ZM46.7422 57.3507L46.7055 57.424H64.4888L64.4521 57.3507H46.7422V57.3507ZM46.6689 57.479L46.6322 57.5524H64.5805L64.5255 57.479H46.6689ZM46.5955 57.6074L46.5405 57.7174H64.6538L64.5988 57.6074H46.6139H46.5955Z" fill="url(#paint11_linear_5158_358513)"/>
<path d="M47.7861 57.7549C48.4095 57.8832 48.4645 57.7549 48.4645 57.7549H47.7861ZM62.7277 57.7549C62.7277 57.7549 62.7827 57.8832 63.4061 57.7549H62.7277Z" fill="url(#paint12_linear_5158_358513)"/>
<path d="M61.2106 54.9492C60.8989 54.9492 60.8072 55.1142 60.8072 55.1142C60.3123 57.0575 58.6439 59.0192 56.6639 59.0192H55.1973V60.9992H66.4539L65.3172 58.9825C63.5389 58.7259 62.0906 56.9109 61.6322 55.1142C61.6322 55.1142 61.5222 54.9492 61.2106 54.9492V54.9492Z" fill="url(#paint13_linear_5158_358513)"/>
<path d="M61.2112 55.0417C61.0646 55.0417 60.9912 55.06 60.9362 55.0967L60.8812 55.1517C60.6064 56.1667 60.0762 57.0945 59.3413 57.8466C58.6079 58.5983 57.6913 59.1116 56.6646 59.1116H55.2529V60.9266H66.4179L65.3729 59.0933C64.5112 58.965 63.7229 58.5066 63.0996 57.8466C62.3646 57.0945 61.8344 56.1667 61.5596 55.1517L61.5046 55.0967C61.4144 55.0497 61.3123 55.0305 61.2112 55.0417V55.0417Z" fill="#97C924"/>
<path d="M61.2096 55.0405H61.283V57.0205C61.2654 57.437 61.139 57.8415 60.9163 58.1939C60.8246 58.4872 60.733 58.3772 60.4946 58.7255C60.1855 58.8321 59.8659 58.9059 59.5413 58.9455C59.083 59.0188 58.0746 59.0922 57.543 58.9638C58.2253 58.7551 58.8435 58.3766 59.3396 57.8638C59.476 57.718 59.6045 57.565 59.7246 57.4055C59.9289 57.1516 60.1129 56.8818 60.2746 56.5989L60.458 56.2322C60.5457 56.0588 60.6252 55.8814 60.6963 55.7005C60.7671 55.5206 60.8283 55.337 60.8796 55.1505L60.9346 55.0955L61.0446 55.0589L61.228 55.0405H61.2096Z" fill="#EDE71F"/>
<path d="M61.1002 55.2974C61.0085 56.3974 60.6785 57.7174 59.8719 58.5607C59.5785 58.799 59.1935 59.0374 58.8452 58.9824C60.0735 57.974 60.8252 56.4157 61.0819 55.2974H61.1002Z" fill="#C6CB24"/>
<path d="M60.0918 57.2041C59.9084 57.6991 59.2118 58.4324 58.4784 59.0374H57.9468C58.4051 59.0008 59.4684 58.1208 60.0918 57.2041V57.2041Z" fill="#9ECB34"/>
<path d="M58.403 54.9492C58.0913 54.9492 57.9996 55.1142 57.9996 55.1142C57.5046 57.0575 55.8363 59.0192 53.8563 59.0192H52.3896V60.9992H63.6463L62.5096 58.9825C60.7313 58.7259 59.283 56.9109 58.8246 55.1142C58.8246 55.1142 58.7146 54.9492 58.403 54.9492V54.9492Z" fill="url(#paint14_linear_5158_358513)"/>
<path d="M58.4041 55.0417C58.2574 55.0417 58.1841 55.06 58.1291 55.0967L58.0741 55.1517C57.7992 56.1667 57.2691 57.0945 56.5341 57.8466C55.8008 58.5983 54.8841 59.1116 53.8575 59.1116H52.4458V60.9266H63.6108L62.5658 59.0933C61.7041 58.965 60.9158 58.5066 60.2924 57.8466C59.5575 57.0945 59.0273 56.1667 58.7524 55.1517L58.6974 55.0967C58.6073 55.0497 58.5052 55.0305 58.4041 55.0417V55.0417Z" fill="#97C924"/>
<path d="M58.4025 55.0405H58.4758V57.0205C58.4583 57.437 58.3319 57.8415 58.1092 58.1939C58.0175 58.4872 57.9258 58.3772 57.6875 58.7255C57.3783 58.8321 57.0588 58.9059 56.7342 58.9455C56.2758 59.0188 55.2675 59.0922 54.7358 58.9638C55.4181 58.7551 56.0363 58.3766 56.5325 57.8638C56.6689 57.718 56.7974 57.565 56.9175 57.4055C57.1218 57.1516 57.3057 56.8818 57.4675 56.5989L57.6508 56.2322C57.7385 56.0588 57.8181 55.8814 57.8892 55.7005C57.96 55.5206 58.0212 55.337 58.0725 55.1505L58.1275 55.0955L58.2375 55.0589L58.4208 55.0405H58.4025Z" fill="#EDE71F"/>
<path d="M58.2931 55.2974C58.2014 56.3974 57.8714 57.7174 57.0647 58.5607C56.7714 58.799 56.3864 59.0374 56.0381 58.9824C57.2664 57.974 58.0181 56.4157 58.2747 55.2974H58.2931Z" fill="#C6CB24"/>
<path d="M57.2851 57.2041C57.1018 57.6991 56.4051 58.4324 55.6718 59.0374H55.1401C55.5985 59.0008 56.6618 58.1208 57.2851 57.2041V57.2041Z" fill="#9ECB34"/>
<path d="M56.0009 55.1333C56.5142 57.0583 58.1642 59.0199 60.1442 59.0199H61.6292V60.9999H49.5659V59.0199H51.0326C53.0126 59.0199 54.6809 57.0583 55.1759 55.1149C55.1759 55.1149 55.2859 54.9683 55.5976 54.9683C55.9092 54.9683 56.0009 55.1149 56.0009 55.1149V55.1333Z" fill="url(#paint15_linear_5158_358513)"/>
<path d="M55.598 55.0413C55.7446 55.0413 55.818 55.0779 55.873 55.0963L55.928 55.1513C56.2028 56.1663 56.733 57.0941 57.468 57.8462C58.2013 58.5979 59.1179 59.1112 60.1446 59.1112H61.5563V60.9262H49.6396V59.0929H51.0513C52.0596 59.0929 52.9946 58.5979 53.728 57.8462C54.4563 57.0921 54.98 56.1644 55.2496 55.1513L55.3046 55.0963C55.3955 55.0512 55.497 55.0322 55.598 55.0413V55.0413Z" fill="#97C924"/>
<path d="M55.469 55.0411C55.4507 55.0403 55.4323 55.0403 55.414 55.0411L55.304 55.0961L55.249 55.1511C55.198 55.3377 55.1368 55.5213 55.0657 55.7011C55.001 55.8878 54.9276 56.0714 54.8457 56.2511C54.7882 56.3691 54.7271 56.4853 54.6623 56.5995C54.5006 56.8825 54.3167 57.1522 54.1123 57.4061C53.9917 57.5594 53.8632 57.7062 53.7273 57.8461C53.2332 58.3656 52.6149 58.7505 51.9307 58.9645C52.444 59.0928 52.664 58.9645 53.1223 58.8911C53.489 58.8361 53.8923 58.7811 54.2223 58.6711C54.4973 58.3045 54.4057 58.4328 54.4973 58.1395C54.7173 57.7361 55.0473 57.3695 55.1207 56.9111C55.414 56.3611 55.469 55.3345 55.469 55.0411V55.0411Z" fill="#EDE71F"/>
<path d="M55.4689 55.2988C55.3955 56.3988 55.0472 57.7188 54.2405 58.5622C53.9472 58.8005 53.5805 59.0388 53.2139 58.9838C54.4605 57.9755 55.2122 56.4172 55.4689 55.2988Z" fill="#C6CB24"/>
<path d="M54.4597 57.2046C54.0611 57.9254 53.5106 58.5509 52.8463 59.0379H52.333C52.7913 59.0012 53.8363 58.1213 54.4597 57.2046Z" fill="#9ECB34"/>
<path d="M55.7809 55.0596L55.8726 55.0962L55.9459 55.1512C55.998 55.3375 56.0592 55.521 56.1293 55.7012C56.1937 55.888 56.2671 56.0715 56.3493 56.2512L56.5326 56.5996C56.6943 56.8826 56.8782 57.1523 57.0826 57.4062C57.2032 57.5595 57.3317 57.7063 57.4676 57.8462C57.9584 58.3863 58.5758 58.7958 59.2642 59.0379C57.9259 59.0379 57.3576 58.9279 56.8809 58.3046C56.5343 57.9376 56.2716 57.4997 56.1109 57.0212C56.0193 56.6546 55.7443 55.8296 55.7626 55.0596H55.7809Z" fill="#EDE71F"/>
<path d="M55.873 55.2988C55.9464 56.3988 56.2764 57.4988 57.083 58.3422C57.3764 58.5988 57.743 58.8188 58.1097 58.7638C56.9579 57.9284 56.1601 56.6924 55.873 55.2988V55.2988Z" fill="#C6CB24"/>
<path d="M52.8131 54.9492C52.4831 54.9492 52.3915 55.1142 52.3915 55.1142C51.9331 56.9109 50.2281 59.2025 48.4498 59.4775L47.5698 60.9992H56.5531V58.9275C54.9398 58.4875 53.6381 56.7825 53.2165 55.1142C53.2165 55.1142 53.1248 54.9676 52.7948 54.9676L52.8131 54.9492Z" fill="url(#paint16_linear_5158_358513)"/>
<path d="M52.8133 55.0418C52.6666 55.0418 52.575 55.0785 52.52 55.0968L52.465 55.1518C52.1566 56.1576 51.6519 57.0923 50.98 57.9018C50.3567 58.6901 49.2017 59.4785 48.4133 59.5518L47.625 60.9268H56.425V58.9651C55.763 58.7467 55.165 58.369 54.6833 57.8651C53.9456 57.1078 53.4153 56.1734 53.1433 55.1518L53.0883 55.0968C53.0032 55.0542 52.9082 55.0352 52.8133 55.0418V55.0418Z" fill="#97C924"/>
<path d="M52.557 55.2974C52.447 56.9474 51.5303 59.0557 50.4853 59.404C50.137 59.5323 49.5503 59.569 49.3486 59.5873C50.157 59.1382 50.8619 58.5243 51.4178 57.7852C51.9737 57.0462 52.368 56.1986 52.5753 55.2974H52.557Z" fill="#93BC30"/>
<path d="M52.8133 55.0406H52.7217V57.0206C52.7217 57.4422 52.8867 57.7906 53.0883 58.1939L53.125 58.2856C53.2167 58.4872 53.2717 58.5606 53.5467 58.7806C54.3339 59.3424 55.2969 59.6027 56.26 59.5139C56.0583 59.3489 55.8383 59.2022 55.6367 59.0739L56.4617 58.9822C55.7821 58.7602 55.1702 58.3691 54.6833 57.8456C54.5947 57.7568 54.5091 57.6651 54.4267 57.5706L54.3167 57.4239C54.0997 57.1648 53.9035 56.8889 53.73 56.5989C53.6649 56.4787 53.6038 56.3564 53.5467 56.2322C53.4342 56.0002 53.3362 55.7614 53.2533 55.5172C53.2127 55.3963 53.176 55.274 53.1433 55.1506L53.0883 55.0956C53.0536 55.0781 53.0166 55.0658 52.9783 55.0589C52.9184 55.0443 52.8567 55.0381 52.795 55.0406H52.8133Z" fill="#EDE71F"/>
<path d="M52.9233 55.2974C53.015 56.3974 53.345 57.7174 54.1517 58.5607C54.445 58.799 54.8117 59.0374 55.1783 58.9824C54.06 58.0199 53.2714 56.7312 52.9233 55.2974V55.2974Z" fill="#CCD11E"/>
<path d="M53.6924 56.8367C54.2862 57.9981 55.2199 58.951 56.369 59.5683H56.8274C56.0207 59.1284 54.719 58.505 53.7107 56.8184L53.6924 56.8367Z" fill="#9ECB34"/>
<path d="M49.9894 54.9492C49.6594 54.9492 49.5677 55.1142 49.5677 55.1142C49.1094 56.9109 47.4044 59.2025 45.6261 59.4775L44.7461 60.9992H53.7294V58.9275C52.1161 58.4875 50.8144 56.7825 50.3927 55.1142C50.3927 55.1142 50.3011 54.9676 49.9711 54.9676L49.9894 54.9492Z" fill="url(#paint17_linear_5158_358513)"/>
<path d="M49.9901 55.0418C49.8434 55.0418 49.7517 55.0785 49.6967 55.0968L49.6417 55.1518C49.3334 56.1576 48.8287 57.0923 48.1567 57.9018C47.5334 58.6901 46.3784 59.4785 45.5901 59.5518L44.8018 60.9268H53.6017V58.9651C52.9398 58.7467 52.3417 58.369 51.8601 57.8651C51.1224 57.1078 50.5921 56.1734 50.3201 55.1518L50.2651 55.0968C50.18 55.0542 50.085 55.0352 49.9901 55.0418V55.0418Z" fill="#97C924"/>
<path d="M49.7332 55.2974C49.6232 56.9474 48.7066 59.0557 47.6616 59.404C47.3132 59.5323 46.7266 59.569 46.5249 59.5873C47.3333 59.1382 48.0382 58.5243 48.5941 57.7852C49.1499 57.0462 49.5443 56.1986 49.7516 55.2974H49.7332Z" fill="#93BC30"/>
<path d="M49.9901 55.0406H49.8984V57.0206C49.8984 57.4422 50.0634 57.7906 50.2651 58.1939L50.3018 58.2856C50.3934 58.4872 50.4484 58.5606 50.7234 58.7806C51.5107 59.3424 52.4736 59.6027 53.4368 59.5139C53.2351 59.3489 53.0151 59.2022 52.8134 59.0739L53.6384 58.9822C52.9589 58.7602 52.3469 58.3691 51.8601 57.8456C51.7715 57.7568 51.6859 57.6651 51.6034 57.5706L51.4934 57.4239C51.2765 57.1648 51.0803 56.8889 50.9068 56.5989C50.8417 56.4787 50.7805 56.3564 50.7234 56.2322C50.611 56.0002 50.513 55.7614 50.4301 55.5172C50.3894 55.3963 50.3527 55.274 50.3201 55.1506L50.2651 55.0956C50.2304 55.0781 50.1933 55.0658 50.1551 55.0589C50.0952 55.0443 50.0334 55.0381 49.9718 55.0406H49.9901Z" fill="#EDE71F"/>
<path d="M50.0996 55.2974C50.1913 56.3974 50.5213 57.7174 51.3279 58.5607C51.6213 58.799 51.9879 59.0374 52.3546 58.9824C51.2363 58.0199 50.4476 56.7312 50.0996 55.2974V55.2974Z" fill="#C6CB24"/>
<path d="M50.8691 56.8367C51.463 57.9981 52.3967 58.951 53.5458 59.5683H54.0041C53.1975 59.1284 51.8958 58.505 50.8875 56.8184L50.8691 56.8367Z" fill="#9ECB34"/>
<path d="M65.958 60.0272C65.848 60.0639 65.1513 59.9905 64.7846 60.0272L64.5463 60.0822H63.9413C63.2813 60.0822 62.713 60.2655 62.0897 60.2655C61.4663 60.2655 60.898 60.0822 60.2563 60.0822H59.633C58.973 60.0822 58.4047 60.2655 57.7813 60.2655C57.158 60.2655 56.5897 60.0822 55.948 60.0822H55.3247C54.6647 60.0822 54.0964 60.2655 53.4914 60.2655C52.8497 60.2655 52.2997 60.0822 51.6397 60.0822H51.0164C50.3564 60.0822 49.8064 60.2655 49.183 60.2655C48.5414 60.2655 47.9914 60.0822 47.3314 60.0822H46.708C46.1947 60.0822 45.5714 60.1922 45.0764 60.2288L43.9214 62.2272H67.278L65.958 60.0272Z" fill="white"/>
<path d="M64.3994 59.7344H64.2894C63.7027 59.7527 63.2627 59.936 62.236 59.936C61.2094 59.936 61.0994 59.7527 59.926 59.7894C58.826 59.7894 58.386 60.0094 57.781 60.0094C57.1944 60.0094 56.2411 59.881 55.4894 59.9544C54.7561 60.0277 53.8761 60.1927 53.2894 60.1927C52.5744 60.1927 51.8594 60.0644 51.1261 60.1377C50.3744 60.211 50.0261 60.4127 49.0911 60.4127C48.2844 60.4127 47.4411 60.2844 46.7444 60.2844C46.1211 60.2844 45.4244 60.4677 44.9111 60.541L44.7461 60.816C45.1678 60.761 46.3228 60.5777 46.7261 60.5777C47.1661 60.5777 48.6877 60.6694 49.5311 60.6327C50.3927 60.6144 50.4844 60.4127 51.4927 60.4127C52.1894 60.4127 52.7027 60.486 53.4177 60.486C53.8761 60.486 54.2794 60.266 54.9577 60.266L55.4711 60.2477C56.0394 60.156 57.011 60.2477 57.671 60.2844C58.276 60.321 58.6794 60.1744 59.321 60.156L60.1277 60.1377C60.7694 60.101 61.301 60.2477 61.906 60.2477C62.4927 60.211 63.0794 60.0644 63.7027 60.0644L64.5277 60.0277C64.9494 60.0277 65.6093 60.0277 66.0493 60.1194L65.9027 59.8627C65.4627 59.8444 64.931 59.7344 64.3994 59.7344V59.7344Z" fill="url(#paint18_linear_5158_358513)"/>
<path d="M46.4897 61.8792C45.8664 61.8792 45.3164 62.0258 44.7297 62.0442C44.5088 62.0384 44.2885 62.02 44.0697 61.9892L43.978 62.1358H45.078C45.7197 62.1358 46.2514 61.9892 46.838 61.9708C47.443 61.9892 47.9747 62.1542 48.6163 62.1542H49.4413C50.0647 62.1542 50.6147 61.9892 51.2013 61.9708C51.8063 61.9892 52.3563 62.1542 52.9797 62.1542H53.8047C54.4463 62.1542 54.978 61.9892 55.583 61.9708C56.1696 61.9892 56.7013 62.1542 57.343 62.1542H58.168C58.7913 62.1542 59.3413 61.9892 59.9463 61.9708C60.533 61.9892 61.083 62.1542 61.7063 62.1542H62.5313C63.173 62.1542 63.7046 61.9892 64.2913 61.9708C64.8963 61.9892 65.4279 62.1542 66.0696 62.1542H66.8946L67.2246 62.1358L67.1329 61.9892C66.9496 62.0075 66.7479 62.0442 66.5463 62.0442C65.9413 62.0442 65.4096 61.8608 64.7679 61.8608H63.943C63.3196 61.8608 62.7696 62.0442 62.183 62.0442C61.578 62.0258 61.0463 61.8608 60.4046 61.8608H59.5796C58.9563 61.8608 58.4063 62.0442 57.8196 62.0442C57.2146 62.0258 56.683 61.8608 56.0413 61.8608H55.2163C54.5747 61.8608 54.043 62.0442 53.4563 62.0442C52.8513 62.0258 52.3197 61.8608 51.678 61.8608H50.853C50.2297 61.8608 49.6797 62.0442 49.093 62.0442C48.488 62.0258 47.9563 61.8608 47.3147 61.8608H46.4897V61.8792Z" fill="url(#paint19_linear_5158_358513)"/>
<path d="M46.4897 61.6414C45.8664 61.6414 45.3164 61.788 44.7297 61.8064C44.5088 61.8006 44.2885 61.7822 44.0697 61.7514L43.978 61.898H45.078C45.7197 61.898 46.2514 61.7514 46.838 61.733C47.443 61.7514 47.9747 61.9164 48.6163 61.9164H49.4413C50.0647 61.9164 50.6147 61.7514 51.2013 61.733C51.8063 61.7514 52.3563 61.9164 52.9797 61.9164H53.8047C54.4463 61.9164 54.978 61.7514 55.583 61.733C56.1696 61.7514 56.7013 61.9164 57.343 61.9164H58.168C58.7913 61.9164 59.3413 61.7514 59.9463 61.733C60.533 61.7514 61.083 61.9164 61.7063 61.9164H62.5313C63.173 61.9164 63.7046 61.7514 64.2913 61.733C64.8963 61.7514 65.4279 61.9164 66.0696 61.9164H66.8946L67.2246 61.898L67.1329 61.7514C66.9496 61.7697 66.7479 61.8064 66.5463 61.8064C65.9413 61.8064 65.4096 61.623 64.7679 61.623H63.943C63.3196 61.623 62.7696 61.8064 62.183 61.8064C61.578 61.788 61.0463 61.623 60.4046 61.623H59.5796C58.9563 61.623 58.4063 61.8064 57.8196 61.8064C57.2146 61.788 56.683 61.623 56.0413 61.623H55.2163C54.5747 61.623 54.043 61.8064 53.4563 61.8064C52.8513 61.788 52.3197 61.623 51.678 61.623H50.853C50.2297 61.623 49.6797 61.8064 49.093 61.8064C48.488 61.788 47.9563 61.623 47.3147 61.623H46.4897V61.6414Z" fill="url(#paint20_linear_5158_358513)"/>
<path d="M46.4897 61.4026C45.8664 61.4026 45.3164 61.5493 44.7297 61.5676C44.5088 61.5618 44.2885 61.5434 44.0697 61.5126L43.978 61.6593H45.078C45.7197 61.6593 46.2514 61.5126 46.838 61.4943C47.443 61.5126 47.9747 61.6776 48.6163 61.6776H49.4413C50.0647 61.6776 50.6147 61.5126 51.2013 61.4943C51.8063 61.5126 52.3563 61.6776 52.9797 61.6776H53.8047C54.4463 61.6776 54.978 61.5126 55.583 61.4943C56.1696 61.5126 56.7013 61.6776 57.343 61.6776H58.168C58.7913 61.6776 59.3413 61.5126 59.9463 61.4943C60.533 61.5126 61.083 61.6776 61.7063 61.6776H62.5313C63.173 61.6776 63.7046 61.5126 64.2913 61.4943C64.8963 61.5126 65.4279 61.6776 66.0696 61.6776H66.8946L67.2246 61.6593L67.1329 61.5126C66.9496 61.5309 66.7479 61.5676 66.5463 61.5676C65.9413 61.5676 65.4096 61.3843 64.7679 61.3843H63.943C63.3196 61.3843 62.7696 61.5676 62.183 61.5676C61.578 61.5493 61.0463 61.3843 60.4046 61.3843H59.5796C58.9563 61.3843 58.4063 61.5676 57.8196 61.5676C57.2146 61.5493 56.683 61.3843 56.0413 61.3843H55.2163C54.5747 61.3843 54.043 61.5676 53.4563 61.5676C52.8513 61.5493 52.3197 61.3843 51.678 61.3843H50.853C50.2297 61.3843 49.6797 61.5676 49.093 61.5676C48.488 61.5493 47.9563 61.3843 47.3147 61.3843H46.4897V61.4026Z" fill="url(#paint21_linear_5158_358513)"/>
<path d="M46.4897 61.1643C45.8664 61.1643 45.3164 61.311 44.7297 61.3293C44.5088 61.3235 44.2885 61.3052 44.0697 61.2743L43.978 61.421H45.078C45.7197 61.421 46.2514 61.2743 46.838 61.256C47.443 61.2743 47.9747 61.4393 48.6163 61.4393H49.4413C50.0647 61.4393 50.6147 61.2743 51.2013 61.256C51.8063 61.2743 52.3563 61.4393 52.9797 61.4393H53.8047C54.4463 61.4393 54.978 61.2743 55.583 61.256C56.1696 61.2743 56.7013 61.4393 57.343 61.4393H58.168C58.7913 61.4393 59.3413 61.2743 59.9463 61.256C60.533 61.2743 61.083 61.4393 61.7063 61.4393H62.5313C63.173 61.4393 63.7046 61.2743 64.2913 61.256C64.8963 61.2743 65.4279 61.4393 66.0696 61.4393H66.8946L67.2246 61.421L67.1329 61.2743C66.9496 61.2927 66.7479 61.3293 66.5463 61.3293C65.9413 61.3293 65.4096 61.146 64.7679 61.146H63.943C63.3196 61.146 62.7696 61.3293 62.183 61.3293C61.578 61.311 61.0463 61.146 60.4046 61.146H59.5796C58.9563 61.146 58.4063 61.3293 57.8196 61.3293C57.2146 61.311 56.683 61.146 56.0413 61.146H55.2163C54.5747 61.146 54.043 61.3293 53.4563 61.3293C52.8513 61.311 52.3197 61.146 51.678 61.146H50.853C50.2297 61.146 49.6797 61.3293 49.093 61.3293C48.488 61.311 47.9563 61.146 47.3147 61.146H46.4897V61.1643Z" fill="url(#paint22_linear_5158_358513)"/>
<path d="M46.4897 60.9265C45.8664 60.9265 45.3164 61.0732 44.7297 61.0915C44.5088 61.0857 44.2885 61.0674 44.0697 61.0365L43.978 61.1832H45.078C45.7197 61.1832 46.2514 61.0365 46.838 61.0182C47.443 61.0365 47.9747 61.2015 48.6163 61.2015H49.4413C50.0647 61.2015 50.6147 61.0365 51.2013 61.0182C51.8063 61.0365 52.3563 61.2015 52.9797 61.2015H53.8047C54.4463 61.2015 54.978 61.0365 55.583 61.0182C56.1696 61.0365 56.7013 61.2015 57.343 61.2015H58.168C58.7913 61.2015 59.3413 61.0365 59.9463 61.0182C60.533 61.0365 61.083 61.2015 61.7063 61.2015H62.5313C63.173 61.2015 63.7046 61.0365 64.2913 61.0182C64.8963 61.0365 65.4279 61.2015 66.0696 61.2015H66.8946L67.2246 61.1832L67.1329 61.0365C66.9496 61.0549 66.7479 61.0915 66.5463 61.0915C65.9413 61.0915 65.4096 60.9082 64.7679 60.9082H63.943C63.3196 60.9082 62.7696 61.0915 62.183 61.0915C61.578 61.0732 61.0463 60.9082 60.4046 60.9082H59.5796C58.9563 60.9082 58.4063 61.0915 57.8196 61.0915C57.2146 61.0732 56.683 60.9082 56.0413 60.9082H55.2163C54.5747 60.9082 54.043 61.0915 53.4563 61.0915C52.8513 61.0732 52.3197 60.9082 51.678 60.9082H50.853C50.2297 60.9082 49.6797 61.0915 49.093 61.0915C48.488 61.0732 47.9563 60.9082 47.3147 60.9082H46.4897V60.9265Z" fill="url(#paint23_linear_5158_358513)"/>
<path d="M46.4897 60.6878C45.8664 60.6878 45.3164 60.8344 44.7297 60.8528C44.5088 60.847 44.2885 60.8286 44.0697 60.7978L43.978 60.9444H45.078C45.7197 60.9444 46.2514 60.7978 46.838 60.7794C47.443 60.7978 47.9747 60.9628 48.6163 60.9628H49.4413C50.0647 60.9628 50.6147 60.7978 51.2013 60.7794C51.8063 60.7978 52.3563 60.9628 52.9797 60.9628H53.8047C54.4463 60.9628 54.978 60.7978 55.583 60.7794C56.1696 60.7978 56.7013 60.9628 57.343 60.9628H58.168C58.7913 60.9628 59.3413 60.7978 59.9463 60.7794C60.533 60.7978 61.083 60.9628 61.7063 60.9628H62.5313C63.173 60.9628 63.7046 60.7978 64.2913 60.7794C64.8963 60.7978 65.4279 60.9628 66.0696 60.9628H66.8946L67.2246 60.9444L67.1329 60.7978C66.9496 60.8161 66.7479 60.8528 66.5463 60.8528C65.9413 60.8528 65.4096 60.6694 64.7679 60.6694H63.943C63.3196 60.6694 62.7696 60.8528 62.183 60.8528C61.578 60.8344 61.0463 60.6694 60.4046 60.6694H59.5796C58.9563 60.6694 58.4063 60.8528 57.8196 60.8528C57.2146 60.8344 56.683 60.6694 56.0413 60.6694H55.2163C54.5747 60.6694 54.043 60.8528 53.4563 60.8528C52.8513 60.8344 52.3197 60.6694 51.678 60.6694H50.853C50.2297 60.6694 49.6797 60.8528 49.093 60.8528C48.488 60.8344 47.9563 60.6694 47.3147 60.6694H46.4897V60.6878Z" fill="url(#paint24_linear_5158_358513)"/>
<path d="M46.4897 60.4675C45.8664 60.4675 45.3164 60.6142 44.7297 60.6326C44.5088 60.6267 44.2885 60.6084 44.0697 60.5775L43.978 60.7242H45.078C45.7197 60.7242 46.2514 60.5775 46.838 60.5592C47.443 60.5775 47.9747 60.7425 48.6163 60.7425H49.4413C50.0647 60.7425 50.6147 60.5775 51.2013 60.5592C51.8063 60.5775 52.3563 60.7425 52.9797 60.7425H53.8047C54.4463 60.7425 54.978 60.5775 55.583 60.5592C56.1696 60.5775 56.7013 60.7425 57.343 60.7425H58.168C58.7913 60.7425 59.3413 60.5775 59.9463 60.5592C60.533 60.5775 61.083 60.7425 61.7063 60.7425H62.5313C63.173 60.7425 63.7046 60.5775 64.2913 60.5592C64.8963 60.5775 65.4279 60.7425 66.0696 60.7425H66.8946L67.2246 60.7242L67.1329 60.5775C66.9496 60.5959 66.7479 60.6326 66.5463 60.6326C65.9413 60.6326 65.4096 60.4492 64.7679 60.4492H63.943C63.3196 60.4492 62.7696 60.6326 62.183 60.6326C61.578 60.6142 61.0463 60.4492 60.4046 60.4492H59.5796C58.9563 60.4492 58.4063 60.6326 57.8196 60.6326C57.2146 60.6142 56.683 60.4492 56.0413 60.4492H55.2163C54.5747 60.4492 54.043 60.6326 53.4563 60.6326C52.8513 60.6142 52.3197 60.4492 51.678 60.4492H50.853C50.2297 60.4492 49.6797 60.6326 49.093 60.6326C48.488 60.6142 47.9563 60.4492 47.3147 60.4492H46.4897V60.4675Z" fill="url(#paint25_linear_5158_358513)"/>
<path d="M46.4897 60.2298C45.8664 60.2298 45.3164 60.3764 44.7297 60.3948C44.5088 60.3889 44.2885 60.3706 44.0697 60.3398L43.978 60.4864H45.078C45.7197 60.4864 46.2514 60.3398 46.838 60.3214C47.443 60.3398 47.9747 60.5048 48.6163 60.5048H49.4413C50.0647 60.5048 50.6147 60.3398 51.2013 60.3214C51.8063 60.3398 52.3563 60.5048 52.9797 60.5048H53.8047C54.4463 60.5048 54.978 60.3398 55.583 60.3214C56.1696 60.3398 56.7013 60.5048 57.343 60.5048H58.168C58.7913 60.5048 59.3413 60.3398 59.9463 60.3214C60.533 60.3398 61.083 60.5048 61.7063 60.5048H62.5313C63.173 60.5048 63.7046 60.3398 64.2913 60.3214C64.8963 60.3398 65.4279 60.5048 66.0696 60.5048H66.8946L67.2246 60.4864L67.1329 60.3398C66.9496 60.3581 66.7479 60.3948 66.5463 60.3948C65.9413 60.3948 65.4096 60.2114 64.7679 60.2114H63.943C63.3196 60.2114 62.7696 60.3948 62.183 60.3948C61.578 60.3764 61.0463 60.2114 60.4046 60.2114H59.5796C58.9563 60.2114 58.4063 60.3948 57.8196 60.3948C57.2146 60.3764 56.683 60.2114 56.0413 60.2114H55.2163C54.5747 60.2114 54.043 60.3948 53.4563 60.3948C52.8513 60.3764 52.3197 60.2114 51.678 60.2114H50.853C50.2297 60.2114 49.6797 60.3948 49.093 60.3948C48.488 60.3764 47.9563 60.2114 47.3147 60.2114H46.4897V60.2298Z" fill="url(#paint26_linear_5158_358513)"/>
<path d="M46.4897 59.991C45.8664 59.991 45.3164 60.1377 44.7297 60.156C44.5088 60.1502 44.2885 60.1318 44.0697 60.101L43.978 60.2477H45.078C45.7197 60.2477 46.2514 60.101 46.838 60.0827C47.443 60.101 47.9747 60.266 48.6163 60.266H49.4413C50.0647 60.266 50.6147 60.101 51.2013 60.0827C51.8063 60.101 52.3563 60.266 52.9797 60.266H53.8047C54.4463 60.266 54.978 60.101 55.583 60.0827C56.1696 60.101 56.7013 60.266 57.343 60.266H58.168C58.7913 60.266 59.3413 60.101 59.9463 60.0827C60.533 60.101 61.083 60.266 61.7063 60.266H62.5313C63.173 60.266 63.7046 60.101 64.2913 60.0827C64.8963 60.101 65.4279 60.266 66.0696 60.266H66.8946L67.2246 60.2477L67.1329 60.101C66.9496 60.1193 66.7479 60.156 66.5463 60.156C65.9413 60.156 65.4096 59.9727 64.7679 59.9727H63.943C63.3196 59.9727 62.7696 60.156 62.183 60.156C61.578 60.1377 61.0463 59.9727 60.4046 59.9727H59.5796C58.9563 59.9727 58.4063 60.156 57.8196 60.156C57.2146 60.1377 56.683 59.9727 56.0413 59.9727H55.2163C54.5747 59.9727 54.043 60.156 53.4563 60.156C52.8513 60.1377 52.3197 59.9727 51.678 59.9727H50.853C50.2297 59.9727 49.6797 60.156 49.093 60.156C48.488 60.1377 47.9563 59.9727 47.3147 59.9727H46.4897V59.991Z" fill="url(#paint27_linear_5158_358513)"/>
<path d="M45.3143 60.0271L44.856 60.7971C45.3876 60.7055 46.1576 60.4855 46.8176 60.4855C47.4776 60.4855 48.2843 60.6505 49.0909 60.6688C50.0076 60.6688 50.3743 60.4488 51.1076 60.3755C51.8593 60.3021 52.5743 60.4671 53.3076 60.4855C53.8759 60.4855 54.7559 60.2838 55.5076 60.2105C56.2409 60.1188 56.9192 60.2655 57.7992 60.2655C58.6976 60.2838 58.8442 60.0455 59.9259 60.0271C61.0992 60.0088 61.2092 60.1921 62.2359 60.1921C63.0059 60.2288 63.6842 60.0271 64.3809 59.9905C65.0776 59.9355 65.3892 59.9905 65.9025 59.9905L65.5542 59.4038L46.9826 59.8255L45.3143 60.0271Z" fill="#97C924"/>
<path d="M64.7656 60.0093L65.499 60.0643C65.6759 60.0854 65.8531 60.1038 66.0306 60.1193L65.9573 60.0276C65.8473 60.0643 65.1506 59.9909 64.784 60.0276L64.7656 60.0093Z" fill="white"/>
<path d="M55.6045 41.7271L49.7178 51.9321L43.7021 62.3735H67.5068L61.6201 52.1685L55.6045 41.7271ZM55.6045 42.2642L61.4053 52.2974L67.0557 62.0942H44.1748L49.9541 52.0825L55.6045 42.2642Z" fill="#C8A400"/>
</g>
<defs>
<linearGradient id="paint0_linear_5158_358513" x1="55.3607" y1="53.5007" x2="55.7091" y2="52.4557" gradientUnits="userSpaceOnUse">
<stop stop-color="#510000"/>
<stop offset="0.3" stop-color="#8A0000"/>
<stop offset="1" stop-color="#AA0000"/>
</linearGradient>
<linearGradient id="paint1_linear_5158_358513" x1="55.8556" y1="53.9224" x2="56.1306" y2="53.189" gradientUnits="userSpaceOnUse">
<stop stop-color="#FF2A2A"/>
<stop offset="1" stop-color="#FF0000"/>
</linearGradient>
<linearGradient id="paint2_linear_5158_358513" x1="45.4219" y1="58.7079" x2="80.2367" y2="58.7079" gradientUnits="userSpaceOnUse">
<stop stop-color="#002255"/>
<stop offset="0.5" stop-color="#0044AA"/>
<stop offset="1" stop-color="#002255"/>
</linearGradient>
<linearGradient id="paint3_linear_5158_358513" x1="45.4219" y1="58.5058" x2="80.2367" y2="58.5058" gradientUnits="userSpaceOnUse">
<stop stop-color="#002255"/>
<stop offset="0.5" stop-color="#0044AA"/>
<stop offset="1" stop-color="#002255"/>
</linearGradient>
<linearGradient id="paint4_linear_5158_358513" x1="45.4229" y1="58.3041" x2="80.2377" y2="58.3041" gradientUnits="userSpaceOnUse">
<stop stop-color="#002255"/>
<stop offset="0.5" stop-color="#0044AA"/>
<stop offset="1" stop-color="#002255"/>
</linearGradient>
<linearGradient id="paint5_linear_5158_358513" x1="45.4219" y1="58.1039" x2="80.2367" y2="58.1039" gradientUnits="userSpaceOnUse">
<stop stop-color="#002255"/>
<stop offset="0.5" stop-color="#0044AA"/>
<stop offset="1" stop-color="#002255"/>
</linearGradient>
<linearGradient id="paint6_linear_5158_358513" x1="45.4219" y1="57.9018" x2="80.2367" y2="57.9018" gradientUnits="userSpaceOnUse">
<stop stop-color="#002255"/>
<stop offset="0.5" stop-color="#0044AA"/>
<stop offset="1" stop-color="#002255"/>
</linearGradient>
<linearGradient id="paint7_linear_5158_358513" x1="45.4224" y1="57.7001" x2="80.2372" y2="57.7001" gradientUnits="userSpaceOnUse">
<stop stop-color="#002255"/>
<stop offset="0.5" stop-color="#0044AA"/>
<stop offset="1" stop-color="#002255"/>
</linearGradient>
<linearGradient id="paint8_linear_5158_358513" x1="45.4219" y1="57.4799" x2="80.2367" y2="57.4799" gradientUnits="userSpaceOnUse">
<stop stop-color="#002255"/>
<stop offset="0.5" stop-color="#0044AA"/>
<stop offset="1" stop-color="#002255"/>
</linearGradient>
<linearGradient id="paint9_linear_5158_358513" x1="45.4219" y1="57.2782" x2="80.2367" y2="57.2782" gradientUnits="userSpaceOnUse">
<stop stop-color="#002255"/>
<stop offset="0.5" stop-color="#0044AA"/>
<stop offset="1" stop-color="#002255"/>
</linearGradient>
<linearGradient id="paint10_linear_5158_358513" x1="45.4224" y1="57.0766" x2="80.2372" y2="57.0766" gradientUnits="userSpaceOnUse">
<stop stop-color="#002255"/>
<stop offset="0.5" stop-color="#0044AA"/>
<stop offset="1" stop-color="#002255"/>
</linearGradient>
<linearGradient id="paint11_linear_5158_358513" x1="45.4222" y1="58.7074" x2="80.2371" y2="58.7074" gradientUnits="userSpaceOnUse">
<stop stop-color="#002255"/>
<stop offset="0.5" stop-color="#0044AA"/>
<stop offset="1" stop-color="#002255"/>
</linearGradient>
<linearGradient id="paint12_linear_5158_358513" x1="45.4211" y1="58.7082" x2="80.236" y2="58.7082" gradientUnits="userSpaceOnUse">
<stop stop-color="#002255"/>
<stop offset="0.5" stop-color="#0044AA"/>
<stop offset="1" stop-color="#002255"/>
</linearGradient>
<linearGradient id="paint13_linear_5158_358513" x1="52.8139" y1="57.6442" x2="52.8139" y2="58.7259" gradientUnits="userSpaceOnUse">
<stop stop-color="#F5F549"/>
<stop offset="1" stop-color="#97C924"/>
</linearGradient>
<linearGradient id="paint14_linear_5158_358513" x1="50.0063" y1="57.6442" x2="50.0063" y2="58.7259" gradientUnits="userSpaceOnUse">
<stop stop-color="#F5F549"/>
<stop offset="1" stop-color="#97C924"/>
</linearGradient>
<linearGradient id="paint15_linear_5158_358513" x1="52.8109" y1="57.6449" x2="52.8109" y2="58.7266" gradientUnits="userSpaceOnUse">
<stop stop-color="#F5F549"/>
<stop offset="1" stop-color="#97C924"/>
</linearGradient>
<linearGradient id="paint16_linear_5158_358513" x1="52.8131" y1="57.6442" x2="52.8131" y2="58.7259" gradientUnits="userSpaceOnUse">
<stop stop-color="#F5F549"/>
<stop offset="1" stop-color="#97C924"/>
</linearGradient>
<linearGradient id="paint17_linear_5158_358513" x1="49.9894" y1="57.6442" x2="49.9894" y2="58.7259" gradientUnits="userSpaceOnUse">
<stop stop-color="#F5F549"/>
<stop offset="1" stop-color="#97C924"/>
</linearGradient>
<linearGradient id="paint18_linear_5158_358513" x1="44.7483" y1="59.7386" x2="66.0757" y2="59.7386" gradientUnits="userSpaceOnUse">
<stop stop-color="#002255"/>
<stop offset="0.5" stop-color="#0044AA"/>
<stop offset="1" stop-color="#002255"/>
</linearGradient>
<linearGradient id="paint19_linear_5158_358513" x1="44.0591" y1="61.8682" x2="67.1428" y2="61.8682" gradientUnits="userSpaceOnUse">
<stop stop-color="#002255"/>
<stop offset="0.5" stop-color="#0044AA"/>
<stop offset="1" stop-color="#002255"/>
</linearGradient>
<linearGradient id="paint20_linear_5158_358513" x1="44.0591" y1="61.6304" x2="67.1428" y2="61.6304" gradientUnits="userSpaceOnUse">
<stop stop-color="#002255"/>
<stop offset="0.5" stop-color="#0044AA"/>
<stop offset="1" stop-color="#002255"/>
</linearGradient>
<linearGradient id="paint21_linear_5158_358513" x1="44.0591" y1="61.3917" x2="67.1428" y2="61.3917" gradientUnits="userSpaceOnUse">
<stop stop-color="#002255"/>
<stop offset="0.5" stop-color="#0044AA"/>
<stop offset="1" stop-color="#002255"/>
</linearGradient>
<linearGradient id="paint22_linear_5158_358513" x1="44.0591" y1="61.1534" x2="67.1428" y2="61.1534" gradientUnits="userSpaceOnUse">
<stop stop-color="#002255"/>
<stop offset="0.5" stop-color="#0044AA"/>
<stop offset="1" stop-color="#002255"/>
</linearGradient>
<linearGradient id="paint23_linear_5158_358513" x1="44.0591" y1="60.9156" x2="67.1428" y2="60.9156" gradientUnits="userSpaceOnUse">
<stop stop-color="#002255"/>
<stop offset="0.5" stop-color="#0044AA"/>
<stop offset="1" stop-color="#002255"/>
</linearGradient>
<linearGradient id="paint24_linear_5158_358513" x1="44.0591" y1="60.6768" x2="67.1428" y2="60.6768" gradientUnits="userSpaceOnUse">
<stop stop-color="#002255"/>
<stop offset="0.5" stop-color="#0044AA"/>
<stop offset="1" stop-color="#002255"/>
</linearGradient>
<linearGradient id="paint25_linear_5158_358513" x1="44.0591" y1="60.4566" x2="67.1428" y2="60.4566" gradientUnits="userSpaceOnUse">
<stop stop-color="#002255"/>
<stop offset="0.5" stop-color="#0044AA"/>
<stop offset="1" stop-color="#002255"/>
</linearGradient>
<linearGradient id="paint26_linear_5158_358513" x1="44.0591" y1="60.2188" x2="67.1428" y2="60.2188" gradientUnits="userSpaceOnUse">
<stop stop-color="#002255"/>
<stop offset="0.5" stop-color="#0044AA"/>
<stop offset="1" stop-color="#002255"/>
</linearGradient>
<linearGradient id="paint27_linear_5158_358513" x1="44.0591" y1="59.98" x2="67.1428" y2="59.98" gradientUnits="userSpaceOnUse">
<stop stop-color="#002255"/>
<stop offset="0.5" stop-color="#0044AA"/>
<stop offset="1" stop-color="#002255"/>
</linearGradient>
<clipPath id="clip0_5158_358513">
<rect x="0.605469" y="0.498535" width="110" height="110" rx="55" fill="white"/>
</clipPath>
</defs>
</svg>
