<svg width="111" height="111" viewBox="0 0 111 111" fill="none" xmlns="http://www.w3.org/2000/svg">
<g clip-path="url(#clip0_5158_358495)">
<path d="M0.677734 0.220215H110.678V110.22H0.677734V0.220215Z" fill="white"/>
<path fill-rule="evenodd" clip-rule="evenodd" d="M-4.36035 113.121H107.079L40.9287 52.6636L96.208 52.728L-4.36035 -11.2739V113.121Z" fill="#CE0000"/>
<path fill-rule="evenodd" clip-rule="evenodd" d="M-5.75684 -13.8188L101.012 54.1292L44.5313 54.0634L110.677 114.516H-5.75684V-13.8188ZM-2.96387 -8.73081V111.723H103.481L37.3261 51.262L91.4038 51.325L-2.96387 -8.73081Z" fill="#000063"/>
<path fill-rule="evenodd" clip-rule="evenodd" d="M50.2305 77.9502L44.4297 79.8838L48.9844 84.1377L42.8613 83.751L45.375 89.3799L39.8965 86.7373L40.0039 92.8818L35.9648 88.3916L33.666 94.1064L31.6895 88.4561L27.3281 92.8818L27.7148 86.9307L21.9355 89.3799L24.6426 84.0088L18.3477 84.1377L22.9668 80.206L17.1016 77.9502L22.9023 76.0166L18.3262 71.7627L24.4277 72.1494L21.9355 66.5205L27.4355 69.1631L27.3281 63.0185L31.3672 67.5088L33.666 61.7939L35.6211 67.4443L40.0039 63.0185L39.5957 68.9697L45.3965 66.5205L42.668 71.8916L48.9844 71.7627L44.3652 75.6943L50.2305 77.9502ZM43.2695 38.2686L40.8418 40.0732L42.0449 41.0615C44.8683 39.0893 47.1391 36.4265 48.6406 33.3271C49.0273 37.9033 44.8379 48.1514 33.8809 48.2588C31.8782 48.2843 29.8903 47.913 28.0318 47.1662C26.1734 46.4194 24.4813 45.312 23.0531 43.9078C21.625 42.5036 20.4891 40.8305 19.7109 38.985C18.9328 37.1395 18.5279 35.1581 18.5195 33.1553C20.668 37.0654 22 38.9561 25.3945 40.9971L26.4043 40.0518L24.127 38.1396L27.0703 37.3662L25.4805 34.7021L28.5742 34.917L28.1875 31.8232L30.8945 33.4131L31.7539 30.5127L33.6875 32.833L35.5137 30.6201L36.5019 33.6279L39.0371 31.8662L38.7148 34.9385L41.7656 34.5732L40.3262 37.4092L43.2695 38.2686V38.2686Z" fill="white"/>
</g>
<defs>
<clipPath id="clip0_5158_358495">
<rect x="0.677734" y="0.219727" width="110" height="110" rx="55" fill="white"/>
</clipPath>
</defs>
</svg>
