<svg width="111" height="111" viewBox="0 0 111 111" fill="none" xmlns="http://www.w3.org/2000/svg">
<g clip-path="url(#clip0_5158_358481)">
<path d="M0.753906 0.0556641H110.754V110.056H0.753906V0.0556641Z" fill="#FEDD00"/>
<path d="M0.753906 0.0556641H55.7539V55.0557H0.753906V0.0556641Z" fill="#012169"/>
<path d="M55.7539 0.0556641V6.93066L35.3438 27.5557L55.7539 47.6436V55.0557H48.5566L28.0391 34.8604L8.05859 55.0557H0.753906V47.751L20.7344 27.6631L0.753906 8.00488V0.0556641H7.41406L28.0391 20.251L48.0195 0.0556641H55.7539Z" fill="white"/>
<path d="M20.5195 34.8604L21.7012 38.5127L5.26562 55.0557H0.753906V54.7334L20.5195 34.8604ZM33.8398 33.5713L39.6406 34.4307L55.7539 50.2217V55.0557L33.8398 33.5713ZM55.7539 0.0556641L35.1289 21.1104L34.6992 16.3838L50.8125 0.0556641H55.7539ZM0.753906 0.163086L21.4863 20.4658L15.1484 19.6064L0.753906 5.31934V0.163086Z" fill="#C8102E"/>
<path d="M19.6602 0.0556641V55.0557H36.8477V0.0556641H19.6602ZM0.753906 18.9619V36.1494H55.7539V18.9619H0.753906Z" fill="white"/>
<path d="M0.753906 22.3994V32.7119H55.7539V22.3994H0.753906ZM23.0977 0.0556641V55.0557H33.4102V0.0556641H23.0977Z" fill="#C8102E"/>
<path d="M28.2529 36.9228C33.4263 36.9228 37.6201 32.729 37.6201 27.5557C37.6201 22.3823 33.4263 18.1885 28.2529 18.1885C23.0796 18.1885 18.8857 22.3823 18.8857 27.5557C18.8857 32.729 23.0796 36.9228 28.2529 36.9228Z" fill="#012169"/>
<path d="M28.2529 18.1885L33.7529 35.1182L19.3584 24.6553H37.1475L22.7529 35.1182M12.2041 22.5928L15.4268 32.54L6.9834 26.3955H17.4463L8.98145 32.54M44.3018 22.5928L47.5244 32.54L39.0596 26.3955H49.5225L41.0576 32.54M28.2529 40.9189L31.4756 50.8662L23.0322 44.7217H33.4736L25.0303 50.8662M28.2529 4.24512L31.4756 14.2354L23.0322 8.06934H33.4736L25.0303 14.2354" fill="#FEDD00"/>
</g>
<defs>
<clipPath id="clip0_5158_358481">
<rect x="0.75293" y="0.0556641" width="110" height="110" rx="55" fill="white"/>
</clipPath>
</defs>
</svg>
