<svg width="111" height="111" viewBox="0 0 111 111" fill="none" xmlns="http://www.w3.org/2000/svg">
<g clip-path="url(#clip0_5158_358490)">
<path fill-rule="evenodd" clip-rule="evenodd" d="M-29.9517 0.777344H190.037V110.761H-29.9517V0.777344Z" fill="#002170"/>
<path fill-rule="evenodd" clip-rule="evenodd" d="M-29.9517 51.0674H190.037V60.4692H-29.9517V51.0674Z" fill="#FFB20D"/>
<path fill-rule="evenodd" clip-rule="evenodd" d="M39.1803 94.8829L32.1068 87.7872L29.8451 97.5438L27.2507 87.8537L20.3989 95.1711L23.0155 85.5033L13.4363 88.3859L20.532 81.3345L10.7754 79.0506L20.4433 76.4784L13.1258 69.6045L22.7937 72.221L19.9111 62.6418L26.9624 69.7375L29.2464 59.981L31.8407 69.6488L38.6703 62.3536L36.076 72.0215L45.6551 69.1388L38.5594 76.1902L48.316 78.4741L38.6481 81.0463L45.9656 87.8981L36.2755 85.3037L39.1803 94.8829Z" fill="white"/>
</g>
<defs>
<clipPath id="clip0_5158_358490">
<rect x="0.126465" y="0.777344" width="110" height="110" rx="55" fill="white"/>
</clipPath>
</defs>
</svg>
