<svg width="111" height="111" viewBox="0 0 111 111" fill="none" xmlns="http://www.w3.org/2000/svg">
<g clip-path="url(#clip0_5158_357429)">
<path fill-rule="evenodd" clip-rule="evenodd" d="M-19.9167 0.0507812H145.083V110.051H-19.9167V0.0507812Z" fill="#0C590B"/>
<path fill-rule="evenodd" clip-rule="evenodd" d="M-19.9167 0.0507812H21.4407V110.051H-19.9167V0.0507812Z" fill="white"/>
<path fill-rule="evenodd" clip-rule="evenodd" d="M87.2258 48.477L80.5227 47.0591L76.9993 52.9243L76.2688 46.1353L69.6086 44.5884L75.8391 41.7954L75.259 34.9849L79.8567 40.0552L86.1516 37.3911L82.7356 43.3208L87.2473 48.477H87.2258Z" fill="white"/>
<path fill-rule="evenodd" clip-rule="evenodd" d="M89.7394 65.793C88.3097 68.9129 86.2772 71.7195 83.759 74.0512C81.2408 76.3829 78.2865 78.1939 75.066 79.3799C71.8454 80.5658 68.4222 81.1035 64.9932 80.9619C61.5641 80.8203 58.1969 80.0022 55.0851 78.5547C48.7717 75.6316 43.8781 70.3202 41.4808 63.7891C39.0835 57.2579 39.3789 50.0419 42.3019 43.7285C43.7536 40.4831 45.8683 37.5774 48.5102 35.1982C51.1521 32.8191 54.2626 31.0191 57.6418 29.9141C56.7571 30.6507 55.9109 31.4323 55.1066 32.2559C50.915 36.8979 48.6899 42.9864 48.9004 49.2373C49.1109 55.4882 51.7406 61.4131 56.2351 65.7627C60.7295 70.1122 66.7374 72.5465 72.9919 72.5521C79.2464 72.5578 85.2586 70.1344 89.7609 65.793H89.7394Z" fill="white"/>
</g>
<defs>
<clipPath id="clip0_5158_357429">
<rect x="0.493164" y="0.0507812" width="110" height="110" rx="55" fill="white"/>
</clipPath>
</defs>
</svg>
