<svg width="111" height="111" viewBox="0 0 111 111" fill="none" xmlns="http://www.w3.org/2000/svg">
<g clip-path="url(#clip0_5158_357436)">
<path d="M0.0810547 0.0507812H110.081V55.0508H0.0810547V0.0507812Z" fill="#0038A8"/>
<path d="M0.0810547 55.0508H110.081V110.051H0.0810547V55.0508Z" fill="#CE1126"/>
<path d="M95.3428 55.0508L0.0810547 110.051V0.0507812" fill="white"/>
<path d="M5.49512 9.58984L8.80371 12.4473L12.6494 10.3418L10.9307 14.3594L14.1533 17.3672L9.74902 17.002L7.90137 20.9551L6.8916 16.7012L2.55176 16.1426L6.31152 13.8867L5.49512 9.58984ZM80.0244 49.25L80.1104 53.6113L84.2568 55.0508L80.1104 56.4902L80.0244 60.8516L77.3818 57.3711L73.1924 58.6601L75.7061 55.0508L73.1924 51.4629L77.3818 52.7305L80.0244 49.25ZM7.92285 89.1465L9.77051 93.0996L14.1318 92.7344L10.9521 95.7422L12.6494 99.7598L8.80371 97.6543L5.49512 100.512L6.33301 96.2148L2.57324 93.959L6.91309 93.4004L7.92285 89.1465ZM34.2197 31.8477L32.8018 33.2656L33.4893 44.0723L32.7803 44.1367L31.4912 34.2754L30.3096 35.4355L32.0713 44.2441C30.6575 44.53 29.3141 45.0922 28.1182 45.8984L23.1123 38.4219H21.458L27.5166 46.3281L26.9795 46.7793L19.8252 38.6152H17.8057V40.6562L25.9697 47.8105L25.4971 48.3476L17.5908 42.2891V43.9434L25.0674 48.9492C24.2682 50.1466 23.7133 51.49 23.4346 52.9023L14.626 51.1406L13.4443 52.3223L23.3271 53.6113L23.2412 54.3418L12.4346 53.6328L10.9951 55.0508L12.4346 56.4687L23.2412 55.7812L23.3057 56.4902L13.4443 57.7793L14.6045 58.9609L23.4131 57.1992C23.699 58.613 24.2611 59.9564 25.0674 61.1523L17.5908 66.1582V67.8125L25.4971 61.7539L25.9482 62.291L17.7842 69.4453V71.4648H19.8467L27.001 63.3008L27.5381 63.7734L21.4795 71.6797H23.1338L28.1396 64.2031C29.3368 65.0028 30.6803 65.5577 32.0928 65.8359L30.3311 74.6445L31.5127 75.8262L32.8018 65.9434L33.5107 66.0293L32.8232 76.8359L34.2412 78.2754L35.6592 76.8359L34.9717 66.0293L35.6807 65.9648L36.9697 75.8262L38.1514 74.666L36.3896 65.8574C37.8034 65.5715 39.1468 65.0094 40.3428 64.2031L45.3486 71.6797H47.0029L40.9014 63.7734L41.4385 63.3223L48.5928 71.4863H50.6123V69.4453L42.4482 62.291L42.9209 61.7539L50.8271 67.8125V66.1582L43.3506 61.1523C44.1498 59.9549 44.7046 58.6116 44.9834 57.1992L53.792 58.9609L54.9736 57.7793L45.0908 56.4902L45.1768 55.7812L55.9834 56.4687L57.4229 55.0508L55.9834 53.6328L45.1768 54.3418C45.1768 54.084 45.1338 53.8476 45.1123 53.6113L54.9736 52.3223L53.8135 51.1406L45.0049 52.9023C44.719 51.4886 44.1568 50.1452 43.3506 48.9492L50.8271 43.9434V42.2891L42.9209 48.3476L42.4697 47.8105L50.6338 40.6562V38.6367H48.5928L41.4385 46.8008L40.9014 46.3281L46.96 38.4219H45.3057L40.2998 45.8984C39.1024 45.0993 37.759 44.5444 36.3467 44.2656L38.1084 35.457L36.9268 34.2754L35.6377 44.1582L34.9287 44.0723L35.6162 33.2656L34.2197 31.8477Z" fill="#FCD116"/>
</g>
<defs>
<clipPath id="clip0_5158_357436">
<rect x="0.0810547" y="0.0507812" width="110" height="110" rx="55" fill="white"/>
</clipPath>
</defs>
</svg>
