<svg width="111" height="111" viewBox="0 0 111 111" fill="none" xmlns="http://www.w3.org/2000/svg">
<g clip-path="url(#clip0_5158_357119)">
<path fill-rule="evenodd" clip-rule="evenodd" d="M-38.8721 0.0722656H155.086V110.059H-38.8721V0.0722656Z" fill="#4AADD6"/>
<path fill-rule="evenodd" clip-rule="evenodd" d="M80.8388 53.2625C80.636 62.1214 76.93 70.5387 70.5329 76.6704C64.1357 82.802 55.5689 86.148 46.7094 85.9753C42.3117 86.0779 37.9369 85.3131 33.8349 83.7244C29.7329 82.1358 25.9841 79.7546 22.8027 76.7167C19.6213 73.6788 17.0696 70.0438 15.2935 66.0195C13.5173 61.9951 12.5515 57.6603 12.4512 53.2625C12.4512 35.2319 27.7772 20.5498 46.645 20.5498C65.5128 20.5498 80.7744 35.1675 80.7744 53.2625H80.8388Z" fill="#FFDE00"/>
</g>
<defs>
<clipPath id="clip0_5158_357119">
<rect x="0.874023" y="0.0507812" width="110" height="110" rx="55" fill="white"/>
</clipPath>
</defs>
</svg>
