<svg width="111" height="111" viewBox="0 0 111 111" fill="none" xmlns="http://www.w3.org/2000/svg">
<g clip-path="url(#clip0_5158_357442)">
<path fill-rule="evenodd" clip-rule="evenodd" d="M-17.1645 0.0507812L-17.2754 110.034H128.851L-17.1645 0.0507812Z" fill="black"/>
<path fill-rule="evenodd" clip-rule="evenodd" d="M128.741 110.034L128.851 0.0507812H-17.2754L128.741 110.034Z" fill="#FF0000"/>
<path d="M66.505 27.4135L64.5537 27.3248C63.955 25.9057 62.2698 25.3735 61.2276 25.9944C60.2963 26.0609 55.3515 25.9057 55.3515 25.9057L58.9659 27.4801C59.8528 29.897 62.9572 30.4735 62.9572 30.4735C62.6911 34.9084 58.4559 29.897 54.908 32.4249C52.3802 33.9549 52.3358 35.751 50.9611 38.7001C50.2899 39.7185 49.549 40.689 48.7437 41.6049L51.7371 41.3832L50.7837 42.6249L54.3315 42.1149C54.3315 42.1149 53.8659 42.514 53.5776 42.8245C54.1098 42.9353 57.6354 42.004 57.6354 42.004L57.3915 43.1349C59.1876 42.4032 61.4272 41.6714 61.4272 41.6714C61.4272 41.6714 62.2255 42.3366 62.9572 42.6249L63.4672 40.6071L65.485 41.1171L65.995 39.0771C69.0329 43.1349 70.0529 47.1928 75.6186 48.2128L75.1086 46.1728C76.6608 46.838 79.5434 48.2571 79.5434 48.2571L79.9869 47.3258C82.4038 49.0554 84.4217 49.0332 85.7521 49.2106L84.7543 46.6828L85.7743 47.1928L84.2443 43.1349L85.7743 43.6449L83.7343 40.6071L84.4882 40.0971L84.2664 38.5671C87.2821 39.5871 91.3621 41.1171 91.85 44.6649C92.36 50.2306 86.2621 51.7606 82.2264 51.2506C85.2643 53.7784 90.8299 52.7584 93.38 50.2306C94.3421 49.0424 95.031 47.657 95.3978 46.1728C95.9078 47.7028 96.9278 49.7206 96.9278 51.7606C96.4178 56.3063 90.3199 57.8363 86.2843 58.3463C90.8299 60.8741 98.9456 57.8363 99.4556 51.2506C99.4556 45.6628 95.9078 43.1349 94.3778 40.6071C94.1832 39.7027 94.0131 38.7932 93.8678 37.8797C94.0895 37.924 95.3978 38.5892 95.3978 38.5892C95.3978 38.5892 94.5108 36.904 94.3778 36.5492C94.3778 36.5492 92.8034 32.2475 92.2269 31.294C92.3156 31.2275 93.38 31.4714 93.38 31.4714L89.2112 26.2605L90.3865 26.1274C90.3865 26.1274 85.5969 22.3357 84.2664 21.8479L85.7964 21.3379C82.7364 19.83 79.1886 20.8278 76.1507 22.8679L76.6607 21.3379L75.7294 21.4265V19.697L76.6607 18.3L75.1529 17.79L76.1507 15.2622L74.6429 15.7722L75.1529 13.2222C75.1529 13.2222 73.9999 13.7543 73.3125 13.6656C73.3346 13.7322 74.1329 11.9582 74.1329 11.9582C73.6451 11.2043 74.1329 9.67432 74.1329 9.67432C70.5851 10.1843 70.0751 10.6943 68.0572 13.7322C64.9972 19.32 66.0172 21.8479 66.5272 27.4135H66.505Z" fill="#FFCC00"/>
<path fill-rule="evenodd" clip-rule="evenodd" d="M73.7895 9.9831C72.2555 10.2199 71.3797 10.4706 70.6674 10.9646C69.8931 11.5016 69.2879 12.3414 68.2764 13.864C66.7662 16.6242 66.2713 18.6119 66.2091 20.589C66.1667 21.9349 66.3229 23.269 66.5082 24.8516C66.5991 25.6278 66.697 26.4637 66.7819 27.39L66.8074 27.6683H66.5L64.3821 27.572L64.3195 27.4237C63.7731 26.1284 62.2511 25.6817 61.3589 26.2132L61.3069 26.2442L61.2465 26.2485C60.7656 26.2829 59.2807 26.26 57.9353 26.2297C57.4844 26.2195 57.0464 26.2085 56.6628 26.1982L59.1684 27.2896L59.206 27.392C59.6177 28.5139 60.55 29.2227 61.4095 29.6551C61.8367 29.8701 62.238 30.0126 62.5325 30.1013C62.6796 30.1456 62.7993 30.1762 62.8815 30.1957C62.9226 30.2054 62.9542 30.2123 62.9752 30.2167C62.9806 30.2178 62.9853 30.2188 62.9892 30.2196C62.9929 30.2203 62.996 30.2209 62.9984 30.2214L63.0036 30.2224L63.0045 30.2226L63.226 30.2637L63.2125 30.4886C63.1443 31.625 62.8144 32.2807 62.1805 32.5309C61.8818 32.6487 61.5467 32.6614 61.204 32.6268C60.8607 32.5921 60.4869 32.5073 60.1024 32.4115C60.0016 32.3864 59.8998 32.3606 59.7971 32.3345C58.2993 31.9542 56.6103 31.5254 55.0567 32.6323L55.049 32.6378L55.0408 32.6428C53.8235 33.3796 53.2116 34.1721 52.7315 35.1431C52.4908 35.6297 52.2836 36.1605 52.0491 36.7611L52.0405 36.7831C51.8036 37.39 51.5404 38.0621 51.1929 38.8076L51.185 38.8246L51.1747 38.8402C50.6103 39.6966 49.997 40.5196 49.338 41.305L52.2869 41.0866L51.3681 42.2831L55.1641 41.7375M61.5912 41.4753L61.5927 41.4766L61.5988 41.4816C61.6043 41.4861 61.6127 41.4929 61.6237 41.5018C61.6458 41.5197 61.6786 41.5458 61.7203 41.5781C61.8039 41.6429 61.9229 41.7323 62.0641 41.8305C62.2757 41.9776 62.53 42.1393 62.7852 42.2674L63.2832 40.2971L65.3004 40.807L65.8785 38.4947L66.1999 38.924C66.9292 39.8982 67.5429 40.8719 68.1248 41.7952C68.1546 41.8425 68.1844 41.8897 68.2141 41.9367C68.8248 42.9052 69.4035 43.8124 70.0581 44.6238C71.2933 46.1549 72.7966 47.3429 75.2741 47.8833L74.7372 45.7356L75.2097 45.9381C75.9912 46.2731 77.1042 46.7962 78.0189 47.2342C78.4769 47.4534 78.8862 47.6519 79.1811 47.7955C79.2745 47.841 79.3564 47.881 79.4248 47.9144L79.8883 46.941L80.136 47.1182C82.1636 48.5692 83.887 48.7515 85.1901 48.8893C85.2472 48.8954 85.3035 48.9013 85.3591 48.9073L84.2732 46.1565L85.3067 46.6733L83.8174 42.7234L85.1467 43.1665L83.3816 40.538L84.2136 39.9752L83.9552 38.1921L84.3489 38.3253C85.8555 38.8349 87.6582 39.4811 89.1464 40.4544C90.6376 41.4296 91.8455 42.7548 92.1033 44.63L92.1041 44.6357L92.1046 44.6414C92.2367 46.0827 91.9413 47.2777 91.3471 48.2467C90.7544 49.2132 89.8744 49.9391 88.8605 50.4625C87.1433 51.349 85.0176 51.6679 83.1566 51.5847C84.5221 52.3654 86.2477 52.5916 87.956 52.3831C89.9968 52.1341 91.964 51.2699 93.1913 50.059C94.1253 48.9023 94.7942 47.5548 95.151 46.1113L95.3621 45.257L95.6404 46.0919C95.7604 46.4518 95.9095 46.8403 96.0694 47.2571L96.0908 47.3129C96.2581 47.7488 96.4352 48.2129 96.5966 48.6941C96.9188 49.6553 97.1835 50.7001 97.1835 51.7604V51.7746L97.1819 51.7888C96.9128 54.1879 95.1678 55.7646 93.0401 56.7961C91.1996 57.6883 89.0333 58.1936 87.1697 58.4798C89.2717 59.2987 91.9585 59.0881 94.2745 57.9855C96.8707 56.7496 98.9515 54.4168 99.2014 51.2405C99.1993 48.5126 98.3346 46.5344 97.2779 44.9208C96.7483 44.1122 96.1712 43.396 95.624 42.7169L95.6188 42.7105C95.0737 42.0341 94.5534 41.3883 94.1604 40.7389L94.1382 40.7023L94.1292 40.6605C93.9337 39.7516 93.7627 38.8376 93.6167 37.9195L93.5591 37.5575L93.9185 37.6294C93.971 37.6399 94.0348 37.6631 94.0913 37.6854C94.1533 37.7098 94.2264 37.7411 94.305 37.7761C94.4577 37.8442 94.6383 37.9297 94.8117 38.0136C94.779 37.9501 94.7454 37.8846 94.7114 37.8182C94.4769 37.3601 94.2128 36.8333 94.1397 36.6385L94.139 36.6366L94.3626 36.5548C94.139 36.6366 94.139 36.6367 94.139 36.6366L94.1214 36.5885C94.1097 36.5569 94.0926 36.5103 94.0706 36.4507C94.0265 36.3315 93.9629 36.1601 93.8847 35.9514C93.7284 35.5339 93.514 34.9675 93.2817 34.3715C93.0493 33.7753 92.7995 33.1509 92.5723 32.617C92.3428 32.0777 92.1428 31.6463 92.0094 31.4257L91.89 31.2282L92.0746 31.0898C92.1336 31.0456 92.1967 31.0357 92.218 31.0325C92.2488 31.028 92.2793 31.0271 92.3047 31.0273C92.3563 31.0277 92.416 31.0331 92.4757 31.0402C92.5559 31.0499 92.648 31.0644 92.7418 31.0808L88.7243 26.0588L89.7394 25.9439C89.6557 25.8788 89.5628 25.8067 89.4621 25.7289C88.9932 25.3665 88.3544 24.8784 87.6744 24.3754C86.994 23.872 86.2744 23.355 85.6432 22.9343C85.0036 22.5078 84.4791 22.1969 84.1794 22.087L83.4952 21.8362L85.085 21.3062C82.2836 20.2495 79.0977 21.1963 76.2936 23.0793L75.6732 23.4959L76.2957 21.6286L75.4752 21.7068V19.6195L76.265 18.4349L74.818 17.9455L75.7124 15.6796L74.307 16.155L74.8108 13.636C74.7364 13.6633 74.6555 13.6916 74.5702 13.7194C74.2052 13.8384 73.7148 13.9634 73.3152 13.9223C73.2983 13.9223 73.2803 13.9206 73.2612 13.9165C73.1352 13.8894 73.0856 13.7891 73.0713 13.7461L72.9428 13.3605L73.183 13.3915C73.1949 13.3682 73.2081 13.342 73.2224 13.3133C73.2988 13.1594 73.3995 12.9464 73.5005 12.7291C73.6013 12.5124 73.7014 12.2935 73.7764 12.1286C73.8042 12.0676 73.8284 12.0141 73.848 11.9709C73.7447 11.7638 73.6945 11.5316 73.6739 11.3064C73.6488 11.0323 73.6658 10.7505 73.6978 10.501C73.7225 10.3072 73.7568 10.1288 73.7895 9.9831M74.1336 11.958C74.3662 12.0627 74.3662 12.0627 74.3662 12.0627L74.366 12.063L74.3656 12.064L74.3316 12.1392C74.3097 12.1877 74.2784 12.2569 74.2407 12.3397C74.1653 12.5054 74.0645 12.7257 73.963 12.9442C73.889 13.1032 73.8142 13.2622 73.7483 13.3987C73.9602 13.3675 74.1929 13.3059 74.4122 13.2345C74.592 13.1759 74.7516 13.1144 74.8664 13.0676C74.9236 13.0442 74.9694 13.0246 75.0006 13.011C75.0161 13.0042 75.028 12.9989 75.0359 12.9953L75.0445 12.9914L75.0468 12.9904L75.502 12.7803L74.9803 15.3889L76.5905 14.8443L75.4892 17.6341L77.058 18.1647L75.9852 19.774V21.1459L77.0273 21.0466L76.6218 22.263C79.5567 20.4675 82.9385 19.6447 85.9099 21.1089L86.4667 21.3832L84.9384 21.8927C85.2309 22.058 85.5691 22.2719 85.9261 22.5099C86.5672 22.9373 87.2944 23.4598 87.9778 23.9654C88.6615 24.4712 89.3033 24.9616 89.774 25.3254C90.0094 25.5073 90.2021 25.6577 90.336 25.7626C90.403 25.8151 90.4553 25.8562 90.4909 25.8842L90.5445 25.9265L90.5452 25.9271L90.5454 25.9272C90.5454 25.9273 90.5455 25.9273 90.3872 26.1272L90.5454 25.9272L91.0302 26.311L89.6997 26.4617L94.0368 31.8831L93.3237 31.7197L93.3124 31.7171L93.2792 31.7097C93.2504 31.7032 93.2091 31.6941 93.1592 31.6833C93.0592 31.6618 92.9256 31.6338 92.7898 31.608C92.7492 31.6003 92.7087 31.5929 92.6693 31.5859C92.7828 31.8214 92.9097 32.1074 93.0416 32.4173C93.2717 32.9581 93.5236 33.5879 93.7569 34.1863C93.9902 34.785 94.2055 35.3537 94.3623 35.7725C94.4408 35.982 94.5046 36.1541 94.5489 36.2739C94.5711 36.3338 94.5883 36.3806 94.6 36.4125L94.6168 36.4582L94.6173 36.4595C94.6174 36.4598 94.6175 36.4601 94.6176 36.4604C94.6782 36.6213 94.9236 37.1136 95.1654 37.5859C95.2842 37.818 95.3989 38.0391 95.484 38.2023C95.5089 38.2501 95.5312 38.2929 95.5504 38.3295C95.5639 38.3554 95.5759 38.3782 95.586 38.3975L95.624 38.47L95.6241 38.4702L95.9976 39.1797L95.2829 38.8163L95.2827 38.8162L95.2821 38.8159L95.2685 38.809L95.227 38.788C95.191 38.7698 95.1393 38.7438 95.0766 38.7125C94.9511 38.6497 94.7816 38.5657 94.6055 38.4804C94.4652 38.4124 94.3217 38.3441 94.1933 38.2854C94.3186 39.0303 94.4605 39.7724 94.6188 40.5111C94.9882 41.1137 95.4764 41.7209 96.016 42.3905L96.027 42.4043C96.5708 43.0791 97.1612 43.8117 97.7045 44.6414C98.803 46.3187 99.7114 48.3955 99.7114 51.2504V51.2602L99.7106 51.2701C99.447 54.6745 97.2165 57.1499 94.4937 58.446C91.7781 59.7387 88.5232 59.8825 86.1611 58.5689L85.4809 58.1907L86.253 58.0931C88.2604 57.8394 90.7618 57.3338 92.8177 56.3371C94.8708 55.3419 96.4274 53.885 96.6735 51.7461C96.6711 50.7711 96.4267 49.792 96.113 48.8563C95.9556 48.3867 95.7821 47.9321 95.6147 47.4956L95.5916 47.4353C95.5352 47.2885 95.4796 47.1435 95.4257 47.001C95.0219 48.2316 94.3967 49.3808 93.5789 50.3908L93.5701 50.4017L93.5602 50.4115C92.2368 51.7233 90.1512 52.6291 88.0177 52.8894C85.8846 53.1497 83.6546 52.7699 82.064 51.4464L81.3929 50.8879L82.2591 50.9974C84.2393 51.2476 86.718 50.9946 88.6266 50.0093C89.5779 49.5182 90.3789 48.8499 90.9123 47.9801C91.4433 47.1141 91.7189 46.0326 91.5973 44.6938C91.3656 43.024 90.2904 41.812 88.8673 40.8812C87.5623 40.0278 85.992 39.4291 84.5793 38.9427L84.7642 40.2185L84.0884 40.6757L86.4033 44.1229L84.6726 43.546L86.2433 47.7118L85.2368 47.2085L86.1494 49.5205L85.7191 49.4631C85.5415 49.4394 85.3494 49.4193 85.1438 49.3978C83.8865 49.266 82.126 49.0816 80.0887 47.7064L79.6633 48.5998L79.4315 48.4857L79.5441 48.2569C79.4315 48.4857 79.4315 48.4857 79.4315 48.4857L79.305 48.4236C79.2233 48.3836 79.1048 48.3256 78.9578 48.254C78.6637 48.1107 78.2553 47.9128 77.7986 47.6942C77.0585 47.3398 76.194 46.9323 75.4827 46.6147L75.9627 48.5347L75.5733 48.4634C72.7206 47.9405 71.0231 46.6323 69.6611 44.944C68.9852 44.1061 68.3915 43.1743 67.7827 42.2088C67.7538 42.1631 67.725 42.1173 67.6961 42.0714C67.201 41.2859 66.6916 40.4778 66.1112 39.6665L65.6711 41.4267L63.6527 40.9166L63.1341 42.9682L62.8645 42.8619C62.4711 42.707 62.0695 42.4554 61.773 42.2492C61.6231 42.145 61.4969 42.0502 61.4079 41.9812C61.3968 41.9726 61.3863 41.9645 61.3765 41.9567C61.3143 41.9773 61.2315 42.0049 61.1312 42.0387C60.894 42.1184 60.5589 42.2324 60.1678 42.3692C59.385 42.6431 58.3807 43.0073 57.4885 43.3708L57.0411 43.5531L57.143 43.0809M51.1888 41.6793L48.1406 41.9051L48.5529 41.4363C49.3464 40.534 50.0766 39.578 50.7386 38.5752C51.0745 37.8529 51.3303 37.2 51.5655 36.5976L51.5786 36.5639C51.8095 35.9725 52.0237 35.4238 52.2743 34.917C52.7909 33.8724 53.4634 33.0033 54.7686 32.2114C56.5208 30.9684 58.4349 31.4587 59.8992 31.8338C60.0107 31.8623 60.1196 31.8902 60.2256 31.9166C60.6089 32.0121 60.9516 32.0887 61.2553 32.1194C61.5596 32.1501 61.8021 32.1319 61.9933 32.0565C62.3152 31.9294 62.5968 31.5907 62.6866 30.673C62.6047 30.6524 62.5029 30.625 62.3855 30.5896C62.0702 30.4947 61.64 30.342 61.1803 30.1107C60.2904 29.663 59.2595 28.9048 58.7668 27.6709L55.2504 26.1393L55.3602 25.6506L55.3522 25.9055C55.3602 25.6506 55.3602 25.6506 55.3602 25.6506L55.3605 25.6506L55.3611 25.6506L55.4158 25.6523C55.4522 25.6534 55.5057 25.6551 55.5742 25.6571C55.7111 25.6612 55.9077 25.667 56.1466 25.6738C56.6244 25.6873 57.2711 25.7046 57.9468 25.7198C59.2539 25.7493 60.647 25.7703 61.1532 25.7433C62.3067 25.106 64.0293 25.6663 64.7217 27.0769L66.2467 27.1463C66.1715 26.3673 66.0868 25.6431 66.0067 24.9579C65.8187 23.3502 65.6558 21.9568 65.6993 20.5729C65.7645 18.5 66.2885 16.4321 67.8343 13.6095L67.8395 13.5999L67.8455 13.5908C68.8482 12.0813 69.5061 11.1494 70.3767 10.5455C71.2539 9.9371 72.3229 9.67676 74.0974 9.42168L74.5002 9.36377L74.3766 9.7514L74.3765 9.75183L74.3757 9.75428L74.3723 9.76545C74.3692 9.77563 74.3646 9.79114 74.3588 9.81142C74.3472 9.85202 74.3309 9.91161 74.3127 9.98574C74.2762 10.1344 74.2326 10.3394 74.2036 10.5657C74.1746 10.7929 74.1612 11.035 74.1818 11.2598C74.2026 11.4867 74.2565 11.6784 74.3477 11.8195L74.4231 11.936L74.3662 12.0627L74.1336 11.958" fill="#FFCC00"/>
<path fill-rule="evenodd" clip-rule="evenodd" d="M85.6638 35.7515C85.9299 36.1949 88.7903 37.5697 90.9634 38.8115C90.3868 36.461 86.1516 35.951 85.6416 35.7515H85.6638Z" fill="#FF0000"/>
<path fill-rule="evenodd" clip-rule="evenodd" d="M85.5693 35.8085L85.6429 35.4185H85.8534L85.8884 35.4767C85.9349 35.4883 85.9942 35.5023 86.068 35.5191C86.118 35.5304 86.173 35.5427 86.2323 35.556C86.3649 35.5856 86.5188 35.62 86.6848 35.6591C87.1684 35.7731 87.779 35.9327 88.3953 36.1629C89.0096 36.3924 89.6437 36.6971 90.167 37.1078C90.6918 37.5196 91.1207 38.0508 91.2877 38.7318L91.4723 39.4842L90.7997 39.0999C90.0656 38.6804 89.256 38.2475 88.4902 37.8379C88.1263 37.6433 87.7722 37.454 87.441 37.274C86.9304 36.9965 86.4727 36.7404 86.1245 36.5243C85.9507 36.4165 85.7983 36.3151 85.6781 36.2232C85.5691 36.1399 85.4488 36.037 85.3799 35.9222L85.5693 35.8085ZM87.5633 36.5829C87.6272 36.6179 87.6923 36.6535 87.7586 36.6895C88.0817 36.8651 88.431 37.0519 88.7925 37.2452C89.2243 37.4761 89.6733 37.7163 90.1153 37.9574C90.0081 37.8429 89.8878 37.7343 89.7563 37.6311C89.3074 37.2788 88.7428 37.0029 88.1625 36.7861C87.9614 36.711 87.7601 36.6436 87.5633 36.5829Z" fill="#FF0000"/>
<path fill-rule="evenodd" clip-rule="evenodd" d="M26.7134 91.4967L23.476 89.4346L19.152 91.5189L20.1277 87.8159L16.8016 84.3345L20.6377 84.1128L22.9216 79.8997L24.3186 83.4476L29.0195 84.3124L26.0703 86.7515L26.7134 91.4967ZM34.9843 73.4027L33.4764 72.6932L32.0573 73.5136L32.279 71.8727L31.0373 70.764L32.6782 70.4536L33.3434 68.9458L34.1417 70.4092L35.7825 70.5866L34.6295 71.784L34.9843 73.4027ZM42.2795 63.0253L38.9978 61.4288L35.8047 63.2027L36.3147 59.6105L33.6317 57.127L37.2238 56.5061L38.7317 53.18L40.4613 56.4174L44.0756 56.8166L41.57 59.4775L42.2795 63.0253ZM27.2677 48.6122L23.4094 46.6609L19.6399 48.7452L20.2607 44.4878L17.112 41.5165L21.3694 40.8291L23.2099 36.9043L25.2055 40.7404L29.4851 41.2726L26.4473 44.3769L27.2677 48.6122ZM13.4089 63.5796L9.50632 61.2735L5.62587 63.6462L6.6237 59.2114L3.16455 56.2622L7.68805 55.8187L9.4398 51.6279L11.2137 55.7966L15.7594 56.1735L12.3668 59.167L13.4089 63.5796Z" fill="white"/>
</g>
<defs>
<clipPath id="clip0_5158_357442">
<rect x="0.771484" y="0.0507812" width="110" height="110" rx="55" fill="white"/>
</clipPath>
</defs>
</svg>
