<svg width="111" height="111" viewBox="0 0 111 111" fill="none" xmlns="http://www.w3.org/2000/svg">
<g clip-path="url(#clip0_5158_360208)">
<path fill-rule="evenodd" clip-rule="evenodd" d="M166.918 110.225H-16.0952V0.450195H166.918V110.225Z" fill="white"/>
<path fill-rule="evenodd" clip-rule="evenodd" d="M-16.209 0.337402H167.03V110.338H-16.209V0.337402ZM-15.9836 0.5628V110.113H166.804V0.5628H-15.9836Z" fill="black"/>
<path fill-rule="evenodd" clip-rule="evenodd" d="M166.919 90.355H-16.0942V110.248H166.919V90.355Z" fill="#3E5698"/>
<path fill-rule="evenodd" clip-rule="evenodd" d="M166.919 85.7556H-16.0942V24.9204H166.919V85.7556Z" fill="#C60000"/>
<path fill-rule="evenodd" clip-rule="evenodd" d="M166.918 0.450195H-16.0952V20.2981H166.918V0.450195Z" fill="#3E5698"/>
<path fill-rule="evenodd" clip-rule="evenodd" d="M70.7785 55.3489C70.7785 68.966 59.3818 80.0229 45.3167 80.0229C31.233 80.0229 19.8179 68.966 19.8179 55.3263C19.8179 41.7092 31.233 30.6523 45.3167 30.6523C59.4004 30.6523 70.7785 41.7092 70.7785 55.3489Z" fill="white"/>
<path fill-rule="evenodd" clip-rule="evenodd" d="M57.7874 72.5912L45.5383 63.8454L33.1039 72.6818L37.9776 58.4529L25.7285 49.7298L40.9982 49.6619L45.8533 35.3877L50.3935 49.6166L65.6631 49.5259L53.2102 58.3623L57.7874 72.5912Z" fill="#C40000"/>
</g>
<defs>
<clipPath id="clip0_5158_360208">
<rect x="0.205078" y="0.329102" width="110" height="110" rx="55" fill="white"/>
</clipPath>
</defs>
</svg>
