<svg width="110" height="110" viewBox="0 0 110 110" fill="none" xmlns="http://www.w3.org/2000/svg">
<g clip-path="url(#clip0_1221_48211)">
<path fill-rule="evenodd" clip-rule="evenodd" d="M0 0.000488281H110V110H0V0.000488281Z" fill="black"/>
<path fill-rule="evenodd" clip-rule="evenodd" d="M73.3262 0.000976562H110V110.001H73.3262V0.000976562Z" fill="#009900"/>
<path fill-rule="evenodd" clip-rule="evenodd" d="M36.6738 0.000976562H73.3262V110.001H36.6738V0.000976562Z" fill="#BF0000"/>
<g clip-path="url(#clip1_1221_48211)">
<path d="M55 110C85.3757 110 110 85.3757 110 55C110 24.6243 85.3757 0 55 0C24.6243 0 0 24.6243 0 55C0 85.3757 24.6243 110 55 110Z" fill="#F0F0F0"/>
<path d="M106.579 74.1313C108.79 68.173 110 61.7286 110 55.0009C110 48.2733 108.79 41.8289 106.579 35.8706H3.42096C1.21021 41.8289 0 48.2733 0 55.0009C0 61.7286 1.21021 68.173 3.42096 74.1313L55 78.9139L106.579 74.1313Z" fill="#F0F0F0"/>
<path d="M54.9999 110C78.648 110 98.8079 95.0744 106.579 74.1304H3.4209C11.192 95.0744 31.3519 110 54.9999 110Z" fill="#F0F0F0"/>
</g>
<path d="M37.8161 71C39.3564 71.0055 40.8605 71.4677 42.1381 72.3281C43.4158 73.1884 44.4096 74.4083 44.994 75.8335C45.5783 77.2587 45.7269 78.8252 45.421 80.3348C45.1151 81.8445 44.3684 83.2295 43.2753 84.3148C42.1822 85.4 40.7919 86.1368 39.2801 86.4319C37.7683 86.727 36.2029 86.5671 34.782 85.9726C33.361 85.378 32.1482 84.3754 31.2971 83.0916C30.4459 81.8078 29.9945 80.3005 30 78.7602C30.0176 76.6978 30.8485 74.7257 32.3121 73.2726C33.7756 71.8195 35.7536 71.0028 37.8161 71Z" fill="#0077BD"/>
<path d="M37.8161 72.6177C39.0383 72.6122 40.2346 72.9699 41.2532 73.6455C42.2717 74.321 43.0667 75.2839 43.537 76.412C44.0074 77.5401 44.132 78.7825 43.8951 79.9816C43.6582 81.1806 43.0704 82.2822 42.2063 83.1466C41.3422 84.011 40.2407 84.5992 39.0418 84.8366C37.8428 85.0739 36.6004 84.9497 35.4721 84.4798C34.3439 84.0098 33.3807 83.2152 32.7048 82.1969C32.0289 81.1785 31.6707 79.9823 31.6758 78.7601C31.6798 77.1327 32.3279 75.5729 33.4785 74.4219C34.6291 73.2709 36.1886 72.6223 37.8161 72.6177Z" fill="white"/>
<path d="M54.836 71C56.3766 71.0043 57.8813 71.4653 59.1598 72.3249C60.4383 73.1845 61.4332 74.404 62.0185 75.8291C62.6039 77.2541 62.7534 78.8208 62.4482 80.3309C62.143 81.841 61.3968 83.2266 60.304 84.3125C59.2111 85.3984 57.8208 86.1358 56.3088 86.4314C54.7968 86.727 53.2311 86.5676 51.8098 85.9732C50.3885 85.3788 49.1753 84.3763 48.3239 83.0923C47.4724 81.8084 47.0209 80.3008 47.0264 78.7602C47.044 76.6989 47.8739 74.7278 49.3361 73.2748C50.7983 71.8219 52.7747 71.0045 54.836 71Z" fill="black"/>
<path d="M54.8352 72.6163C56.0576 72.6099 57.2543 72.9669 58.2735 73.6419C59.2926 74.3169 60.0882 75.2796 60.5592 76.4076C61.0303 77.5356 61.1555 78.7781 60.9191 79.9775C60.6826 81.1768 60.0951 82.2788 59.2312 83.1436C58.3673 84.0085 57.2659 84.5971 56.0668 84.8348C54.8677 85.0725 53.6251 84.9486 52.4966 84.4787C51.368 84.0089 50.4046 83.2143 49.7285 82.1959C49.0524 81.1774 48.6942 79.9811 48.6993 78.7587C48.7032 77.1319 49.3508 75.5729 50.5004 74.422C51.6501 73.2711 53.2085 72.622 54.8352 72.6163Z" fill="white"/>
<path d="M71.9233 71C73.4637 71.0051 74.968 71.4669 76.246 72.327C77.5239 73.1871 78.5181 74.4069 79.1028 75.832C79.6874 77.2572 79.8363 78.8237 79.5307 80.3335C79.225 81.8433 78.4784 83.2285 77.3854 84.314C76.2924 85.3995 74.9021 86.1365 73.3902 86.4317C71.8784 86.727 70.3129 86.5673 68.8918 85.9728C67.4707 85.3783 66.2579 84.3757 65.4066 83.0919C64.5553 81.808 64.1039 80.3006 64.1094 78.7602C64.127 76.6982 64.9575 74.7264 66.4207 73.2733C67.8838 71.8203 69.8612 71.0033 71.9233 71Z" fill="#DA251D"/>
<path d="M71.9225 72.6163C73.1452 72.6087 74.3425 72.9646 75.3625 73.6388C76.3825 74.313 77.1791 75.2752 77.6511 76.4031C78.1231 77.531 78.2493 78.7737 78.0136 79.9735C77.7779 81.1732 77.1909 82.2759 76.3273 83.1413C75.4636 84.0068 74.3622 84.5961 73.163 84.8343C71.9637 85.0726 70.7207 84.949 69.5918 84.4793C68.4629 84.0097 67.4991 83.2151 66.8227 82.1966C66.1463 81.178 65.7879 79.9814 65.793 78.7587C65.8064 77.136 66.4561 75.5834 67.6024 74.4348C68.7486 73.2861 70.2999 72.6332 71.9225 72.6163Z" fill="white"/>
<path d="M46.3001 78.0308C48.2063 78.0443 50.0431 78.7483 51.4699 80.0125C52.8968 81.2766 53.8171 83.015 54.0603 84.9058C53.4483 84.805 52.8495 84.6364 52.2749 84.403C51.958 83.0556 51.1962 81.8544 50.1124 80.9933C49.0287 80.1321 47.6864 79.6614 46.3023 79.6571C46.0588 79.6457 45.8149 79.6644 45.5761 79.713C45.5761 79.4337 45.6319 79.0985 45.6319 78.7634C45.6319 78.5485 45.5761 78.3165 45.5761 78.0372L46.3001 78.0308ZM54.0603 86.5708C53.9237 87.9752 53.409 89.3164 52.5709 90.4516C51.7328 91.5868 50.6027 92.4736 49.3007 93.0175C47.9987 93.5615 46.5736 93.7424 45.177 93.5409C43.7804 93.3394 42.4646 92.7631 41.3695 91.8732C40.2743 90.9834 39.4409 89.8133 38.9579 88.4875C38.4749 87.1617 38.3603 85.7298 38.6263 84.344C38.8923 82.9583 39.5291 81.6706 40.4687 80.6179C41.4084 79.5652 42.6158 78.787 43.9626 78.3659V78.7591C43.9653 79.2482 43.9091 79.7358 43.795 80.2114C42.7969 80.6564 41.9353 81.3591 41.2987 82.2473C40.662 83.1355 40.2733 84.1771 40.1725 85.2653C40.0717 86.3534 40.2623 87.4487 40.7249 88.4388C41.1875 89.4288 41.9053 90.2779 42.8046 90.8987C43.7039 91.5196 44.7523 91.8898 45.842 91.9714C46.9318 92.0529 48.0236 91.8429 49.0053 91.3629C49.987 90.8829 50.8232 90.1502 51.4281 89.24C52.0329 88.3299 52.3845 87.2751 52.4468 86.1841C52.9689 86.372 53.5099 86.5024 54.0603 86.573V86.5708Z" fill="#F1A737"/>
<path d="M63.383 78.0308C65.2944 78.0263 67.1407 78.7241 68.5714 79.9916C70.002 81.259 70.9172 83.0079 71.1432 84.9058C70.5329 84.7976 69.9349 84.6292 69.3578 84.403C69.0487 83.0516 68.2889 81.8455 67.2035 80.983C66.1181 80.1205 64.7715 79.653 63.3852 79.6572C63.1059 79.6572 62.8824 79.713 62.6031 79.713C62.6031 79.4337 62.659 79.0986 62.659 78.7634C62.6662 78.52 62.6474 78.2766 62.6031 78.0372L63.383 78.0308ZM71.1432 86.5708C71.013 87.9742 70.5051 89.316 69.6735 90.4539C68.842 91.5918 67.7177 92.4832 66.4203 93.0335C65.1228 93.5838 63.7005 93.7725 62.3044 93.5794C60.9083 93.3863 59.5906 92.8187 58.4912 91.9369C57.3918 91.0551 56.5517 89.892 56.0602 88.5711C55.5687 87.2502 55.4441 85.8209 55.6997 84.4349C55.9552 83.0489 56.5814 81.758 57.5117 80.6992C58.442 79.6405 59.6416 78.8535 60.9832 78.4218V78.7591C60.9859 79.2482 60.9297 79.7358 60.8156 80.2115C59.8238 80.6632 58.9695 81.3697 58.3396 82.259C57.7097 83.1484 57.3268 84.1888 57.2298 85.2743C57.1328 86.3598 57.3253 87.4516 57.7876 88.4385C58.2499 89.4254 58.9655 90.2721 59.8615 90.8925C60.7576 91.5128 61.802 91.8846 62.8885 91.9699C63.975 92.0553 65.0646 91.8512 66.0466 91.3783C67.0285 90.9055 67.8675 90.1809 68.4782 89.2783C69.089 88.3756 69.4495 87.3273 69.5233 86.24C70.0502 86.4042 70.5921 86.5157 71.141 86.573L71.1432 86.5708Z" fill="#009240"/>
<path d="M61.1242 59.9861L65.3649 55.9995C65.3649 55.9995 62.6094 54.5533 62.4921 51.3288C62.3553 48.1043 65.5408 45.681 65.9707 45.2511C66.4006 44.8211 70.016 41.8311 71.6771 39.8378C73.3578 37.8444 75.1166 35.4211 75.2143 32.4507C75.3316 29.4607 74.5108 24.2037 66.5765 20.6665C66.5765 20.6665 69.6447 25.2981 68.0227 30.1837C66.3616 35.0889 59.463 40.5999 57.4111 42.6714C55.3591 44.782 52.2714 47.6352 52.7208 51.5438C53.1899 55.4523 58.5836 58.7354 61.1242 59.9861Z" fill="url(#paint0_linear_1221_48211)"/>
<path d="M47.5806 59.9067L52.2708 55.9591C52.2708 55.9591 49.3003 53.6922 49.1635 50.624C49.0267 47.5753 50.7269 45.9142 52.7007 43.8818C54.6745 41.8298 59.8533 36.9442 61.3776 35.4003C62.9215 33.8565 66.1265 30.7296 66.0874 26.7821C66.0288 22.8345 64.7585 17.1867 55.7494 13.5908C55.7494 13.5908 59.697 18.1638 58.6026 22.8345C57.5082 27.466 55.1631 30.1238 49.7303 35.0876C44.317 40.0319 39.0796 43.9404 39.3922 49.6859C39.7049 55.4119 44.9032 58.441 47.5806 59.9067Z" fill="url(#paint1_linear_1221_48211)"/>
<path d="M55.8864 21.8582C55.8864 23.2066 55.3196 24.6919 54.2253 26.2748C53.3263 27.5646 52.271 28.6785 51.6456 29.3234C51.5284 29.4407 51.4307 29.558 51.333 29.6361C50.4145 30.6133 49.0074 31.8053 46.8577 33.6619C46.4864 33.955 46.1346 34.3068 45.7242 34.639C45.1966 35.069 44.7471 35.4793 44.3172 35.8702C42.402 37.5118 41.1317 38.5866 39.9592 40.0328C38.0636 42.3583 37.79 44.0781 37.79 44.0781L37.6532 44.977L37.2037 44.1562C36.2266 42.3583 35.6598 40.5604 35.4839 38.7625C35.3471 37.1796 35.523 35.6357 36.0507 34.3459C37.1451 31.5317 39.4706 29.6752 42.5974 27.1347C43.2228 26.6266 43.8482 26.1185 44.5126 25.5713C48.4407 22.2881 49.2028 20.5097 49.2614 17.9888C49.3396 14.7056 47.8153 12.1455 47.7958 12.1064L47.2876 11.2661L48.1866 11.6374C49.5546 12.2237 50.7662 12.9272 51.8215 13.8066C52.7596 14.5883 53.5804 15.4873 54.2253 16.4644C55.6714 18.7509 55.8864 20.8224 55.8864 21.8582Z" fill="white"/>
<path d="M54.1862 16.4644C53.5413 15.4873 52.7205 14.5883 51.7825 13.8066C50.7272 12.9272 49.5155 12.2237 48.1475 11.6374L47.2486 11.2661L47.7567 12.1064C47.7762 12.126 49.3006 14.6861 49.2224 17.9888C49.1638 20.5293 48.4407 22.3077 44.4735 25.5713C43.8091 26.1185 43.1837 26.6461 42.5584 27.1347C39.412 29.6752 37.1255 31.5317 36.0116 34.3459C35.484 35.6357 35.3081 37.1796 35.4449 38.7625C35.6403 40.5604 36.1875 42.3583 37.1646 44.1562L37.6141 44.977L37.7509 44.0781C37.7509 44.0585 38.0245 42.3779 39.9201 40.0328C41.0927 38.5866 42.3629 37.5118 44.2781 35.8702C44.7081 35.4989 45.1966 35.0885 45.6852 34.639C46.076 34.2873 46.4473 33.955 46.8186 33.6619C48.9488 31.8249 50.3754 30.6328 51.2939 29.6361C51.3721 29.5775 51.4893 29.4407 51.6066 29.3234C52.2515 28.6785 53.3068 27.5646 54.1862 26.2748C55.261 24.6919 55.8473 23.2066 55.8473 21.8582C55.8864 20.8224 55.6714 18.7509 54.1862 16.4644ZM51.1571 28.8544C51.0594 28.9912 50.9421 29.1085 50.8444 29.2062C49.9455 30.1442 48.5775 31.3559 46.4278 33.1538C46.076 33.4665 45.7047 33.7987 45.2943 34.1309C44.7667 34.5608 44.3172 34.9712 43.8873 35.3621C41.9525 37.0232 40.6627 38.1176 39.4316 39.6028C38.2004 41.0881 37.6141 42.3388 37.3405 43.1205C35.8944 40.1305 35.5817 36.9646 36.5783 34.5413C37.6336 31.9031 39.881 30.0856 42.9492 27.5842C43.5746 27.076 44.1999 26.5875 44.8839 26.0207C46.9164 24.3596 48.1866 22.9526 48.9292 21.6628C49.6914 20.2948 49.8477 19.0831 49.8673 17.9497C49.9064 15.585 49.2028 13.6112 48.7338 12.5559C53.5413 14.8815 55.261 18.9463 55.2024 21.8386C55.2024 24.6919 52.3687 27.6037 51.1571 28.8544Z" fill="url(#paint2_linear_1221_48211)"/>
</g>
<defs>
<linearGradient id="paint0_linear_1221_48211" x1="54.1589" y1="50.1652" x2="86.4602" y2="17.8639" gradientUnits="userSpaceOnUse">
<stop stop-color="#D8372B"/>
<stop offset="0.5" stop-color="#932623"/>
<stop offset="1" stop-color="#D8372B"/>
</linearGradient>
<linearGradient id="paint1_linear_1221_48211" x1="40.875" y1="47.9013" x2="79.8568" y2="8.91956" gradientUnits="userSpaceOnUse">
<stop stop-color="#5875B3"/>
<stop offset="0.5" stop-color="#0A4EA1"/>
<stop offset="1" stop-color="#7287AB"/>
</linearGradient>
<linearGradient id="paint2_linear_1221_48211" x1="31.626" y1="38.9191" x2="61.8888" y2="8.65637" gradientUnits="userSpaceOnUse">
<stop stop-color="#5875B3"/>
<stop offset="0.5" stop-color="#0A4EA1"/>
<stop offset="1" stop-color="#7287AB"/>
</linearGradient>
<clipPath id="clip0_1221_48211">
<rect width="110" height="110" rx="55" fill="white"/>
</clipPath>
<clipPath id="clip1_1221_48211">
<rect width="110" height="110" fill="white" transform="translate(0 0.000976562)"/>
</clipPath>
</defs>
</svg>
