<svg width="111" height="111" viewBox="0 0 111 111" fill="none" xmlns="http://www.w3.org/2000/svg">
<g clip-path="url(#clip0_5158_360217)">
<path fill-rule="evenodd" clip-rule="evenodd" d="M-22.4482 0.0742188H136.03V109.909H-22.4482V0.0742188Z" fill="#FFE900"/>
<path fill-rule="evenodd" clip-rule="evenodd" d="M-22.5205 0.0741878L-22.3434 79.2617L100.97 0.0151367L-22.5205 0.0741878Z" fill="#35A100"/>
<path fill-rule="evenodd" clip-rule="evenodd" d="M136.222 109.91L135.942 27.5776L11.5508 109.983L136.222 109.924V109.91Z" fill="#C70000"/>
<path fill-rule="evenodd" clip-rule="evenodd" d="M-22.4486 85.2397L-22.3453 110.026L4.56725 109.982L136 21.8631L135.853 0.309447L109.265 0.0732422L-22.4634 85.2397H-22.4486Z" fill="black"/>
<path fill-rule="evenodd" clip-rule="evenodd" d="M99.0959 39.7857L89.6182 39.461L85.8832 48.3481L83.7722 39.269L74.2945 38.9443L82.473 33.6739L80.3472 24.5801L87.5071 30.3966L95.671 25.0968L91.9212 33.984L99.0959 39.7857ZM39.971 78.2575L30.4785 77.918L26.7583 86.8052L24.6473 77.7261L15.1548 77.4013L23.3334 72.1162L21.2075 63.0519L28.3675 68.8684L36.5313 63.5686L32.7963 72.441L39.971 78.2575Z" fill="white"/>
</g>
<defs>
<clipPath id="clip0_5158_360217">
<rect x="0.717773" y="0.0307617" width="110" height="110" rx="55" fill="white"/>
</clipPath>
</defs>
</svg>
