<svg width="111" height="111" viewBox="0 0 111 111" fill="none" xmlns="http://www.w3.org/2000/svg">
<g clip-path="url(#clip0_5158_356127)">
<path fill-rule="evenodd" clip-rule="evenodd" d="M-12.873 0.587402H207.136V110.581H-12.873V0.587402Z" fill="white"/>
<path fill-rule="evenodd" clip-rule="evenodd" d="M-12.873 73.9316H207.136V110.581H-12.873V73.9316Z" fill="#D50000"/>
<path fill-rule="evenodd" clip-rule="evenodd" d="M-12.873 37.2593H207.136V73.9312H-12.873V37.2593Z" fill="#0000BF"/>
<path fill-rule="evenodd" clip-rule="evenodd" d="M49.4995 20.5604C48.6369 33.8092 48.1503 41.0639 46.1375 44.4259C43.9478 48.0312 41.8245 50.6632 33.309 53.8483C24.8156 50.6632 22.6923 48.0312 20.5026 44.4259C18.512 41.0639 18.0032 33.8092 17.1406 20.5604L18.4014 20.1402C20.9228 19.366 22.825 18.7467 24.2184 18.4813C26.2091 18.0389 27.9122 17.5745 33.2869 17.4639C38.6616 17.5523 40.3647 18.0611 42.3553 18.4813C43.7709 18.7688 45.7394 19.366 48.2388 20.1402L49.4995 20.5825V20.5604Z" fill="#D50000"/>
<path fill-rule="evenodd" clip-rule="evenodd" d="M48.2604 20.1182C47.442 33.3449 46.7785 39.4052 45.6947 42.3027C43.6377 47.3014 40.3642 50.0441 33.3085 52.6319C26.2749 50.022 23.0015 47.3014 20.9224 42.3027C19.8607 39.4052 19.175 33.367 18.4009 20.1182C20.8781 19.3441 22.8245 18.7469 24.218 18.4593C26.2086 18.0391 27.9117 17.5304 33.2864 17.4419C38.6611 17.5304 40.3863 18.0391 42.377 18.4593C43.7925 18.7469 45.761 19.3441 48.2604 20.1182V20.1182Z" fill="#0000BF"/>
<path fill-rule="evenodd" clip-rule="evenodd" d="M33.3098 24.165L33.6416 24.9834L35.1235 25.1825L34.1724 25.7575L35.1014 26.3769L33.7522 26.598L33.332 27.3279L32.8896 26.5759L31.5625 26.399L32.4472 25.7575L31.5625 25.1825L32.9781 24.9613L33.3098 24.165V24.165Z" fill="#FFDF00"/>
<path fill-rule="evenodd" clip-rule="evenodd" d="M45.1874 39.1844L44.369 38.5208L43.7718 37.5476L42.6217 36.5302L42.0024 35.5128L40.8522 34.4732L40.2771 33.4558L39.6578 32.9471L39.2376 32.5711L38.198 33.4779L37.623 34.4953L36.8931 35.1368L36.1189 34.5175L35.5217 33.4779L33.3099 29.563L31.0981 33.4779L30.523 34.5175L29.7268 35.1368L29.019 34.4732L28.4439 33.4779L27.4044 32.5711L26.9841 32.9471L26.3648 33.4558L25.7898 34.4732L24.6396 35.5128L24.0203 36.5302L22.848 37.5476L22.273 38.5208L21.4546 39.1844C21.9268 42.1347 23.3204 44.86 25.4359 46.97C26.8514 48.3192 29.7489 50.155 33.2878 51.3715C36.1941 50.4512 38.8813 48.9457 41.184 46.9479C43.3035 44.8468 44.7047 42.1295 45.1874 39.1844V39.1844Z" fill="white"/>
<path fill-rule="evenodd" clip-rule="evenodd" d="M36.8505 18.6139L37.1823 19.4102L38.6642 19.6313L37.7131 20.1843L38.6421 20.8257L37.2929 21.0469L36.8727 21.7768L36.4303 21.0248L35.1253 20.8478L36.01 20.1843L35.1032 19.6313L36.5188 19.4102L36.8505 18.6139V18.6139ZM29.7727 18.6139L30.1045 19.3881L31.5864 19.6092L30.6353 20.1843L31.5643 20.8036L30.2151 21.0248L29.7948 21.7547L29.3304 21.0027L28.0475 20.8257L28.9322 20.1843L28.0254 19.6092L29.441 19.3881L29.7727 18.5918V18.6139Z" fill="#FFDF00"/>
<path fill-rule="evenodd" clip-rule="evenodd" d="M43.3511 44.2053H41.7586L40.2767 44.0947L38.4851 43.21L36.4502 43.2321L34.7029 44.0947L33.3316 44.2053L31.9381 44.0947L30.1908 43.2321H28.178L26.3865 44.1169L24.9045 44.2053H23.2678L22.4937 42.8782L22.5158 42.834L24.9267 43.2321L26.3865 43.1215L28.178 42.2368H30.2129L31.9823 43.1215L33.3537 43.2321L34.725 43.0994L36.4945 42.2589H38.4851L40.2988 43.1215L41.7807 43.2321L44.1031 42.8119L44.1473 42.8782L43.3511 44.2053V44.2053ZM24.7718 46.2623L26.3643 46.1517L28.1559 45.267H30.1687L31.9381 46.1296L33.3094 46.2623L34.6808 46.1296L36.4502 45.267H38.463L40.2545 46.1517L41.8692 46.2623L42.9087 44.9795L42.8645 44.9352L41.7586 45.267L40.2767 45.1564L38.4851 44.2717H36.4723L34.7029 45.1564L33.3316 45.267L31.9602 45.1564L30.1908 44.2717H28.178L26.3865 45.1564L24.9045 45.267L23.7986 45.0016V45.0458L24.7718 46.2623V46.2623Z" fill="#0000BF"/>
</g>
<defs>
<clipPath id="clip0_5158_356127">
<rect x="0.446777" y="0.587402" width="110" height="110" rx="55" fill="white"/>
</clipPath>
</defs>
</svg>
