<svg width="111" height="111" viewBox="0 0 111 111" fill="none" xmlns="http://www.w3.org/2000/svg">
<g clip-path="url(#clip0_5158_356251)">
<path fill-rule="evenodd" clip-rule="evenodd" d="M-18.8848 108.994L193.254 0.0307617H-18.8848V108.994Z" fill="#0000D6"/>
<path fill-rule="evenodd" clip-rule="evenodd" d="M201.103 0.0307617L-13.0542 110.014H201.103V0.0307617V0.0307617Z" fill="#006000"/>
<path fill-rule="evenodd" clip-rule="evenodd" d="M201.126 0.0307617H189.329L-18.8848 104.315V110.014H-7.11036L201.104 5.92905V0.0307617H201.126Z" fill="#FFCC00"/>
<path fill-rule="evenodd" clip-rule="evenodd" d="M22.3383 30.5179L24.3314 24.7894L19.1426 21.2457H25.5512L27.5271 15.5L29.503 21.2457H35.8945L30.7229 24.7894L32.6987 30.5007L27.5271 26.9741L22.3383 30.5179ZM54.1583 30.5179L56.1513 24.7894L50.9626 21.2457H57.3712L59.3471 15.5L61.323 21.2457H67.6973L62.5428 24.7894L64.5187 30.5007L59.3471 26.9569L54.1583 30.5179ZM54.1583 54.6016L56.1513 48.8731L50.9626 45.3293H57.3712L59.3471 39.5837L61.323 45.3293H67.6973L62.5428 48.8731L64.5359 54.6016L59.3643 51.0578L54.1583 54.6016ZM38.3514 42.6973L40.3273 36.9689L35.1557 33.4251H41.5471L43.523 27.6967L45.4989 33.4251H51.9075L46.7187 36.9689L48.6946 42.6973L43.5402 39.1536L38.3514 42.6973ZM22.3383 54.6016L24.3314 48.8731L19.1426 45.3293H25.5512L27.5271 39.5837L29.503 45.3293H35.8945L30.7229 48.8731L32.6987 54.5844L27.5271 51.0406L22.3383 54.6016Z" fill="white"/>
</g>
<defs>
<clipPath id="clip0_5158_356251">
<rect x="0.450684" y="0.0307617" width="110" height="110" rx="55" fill="white"/>
</clipPath>
</defs>
</svg>
