<svg width="111" height="111" viewBox="0 0 111 111" fill="none" xmlns="http://www.w3.org/2000/svg">
<g clip-path="url(#clip0_5158_354843)">
<path d="M0.0180664 0.30957H110.018V110.31H0.0180664V0.30957Z" fill="#3E5EB9"/>
<path d="M0.0180664 20.9346H110.018V89.6846H0.0180664V20.9346Z" fill="#FFD900"/>
<path d="M0.0180664 27.8096H110.018V82.8096H0.0180664V27.8096Z" fill="#B10C0C"/>
<path d="M95.334 45.6348L90.186 47.4567L95.3128 49.2574L100.461 47.4567L95.334 45.6348Z" fill="white"/>
<path fill-rule="evenodd" clip-rule="evenodd" d="M95.3318 45.522L100.777 47.4571L95.3105 49.3693L89.8652 47.4567L95.3318 45.522ZM90.5024 47.4559L95.3107 49.1448L100.14 47.4555L95.3317 45.7468L90.5024 47.4559Z" fill="black"/>
<path d="M91.921 46.8418H17.5825C17.2198 46.8418 16.9258 47.1121 16.9258 47.4456C16.9258 47.779 17.2198 48.0493 17.5825 48.0493H91.921C92.2837 48.0493 92.5778 47.779 92.5778 47.4456C92.5778 47.1121 92.2837 46.8418 91.921 46.8418Z" fill="#FFD900"/>
<path fill-rule="evenodd" clip-rule="evenodd" d="M17.584 46.9482C17.2712 46.9482 17.0331 47.1793 17.0331 47.446C17.0331 47.7128 17.2712 47.9439 17.584 47.9439H91.9225C92.2352 47.9439 92.4733 47.7128 92.4733 47.446C92.4733 47.1793 92.2352 46.9482 91.9225 46.9482H17.584ZM16.8213 47.446C16.8213 47.0459 17.1713 46.7363 17.584 46.7363H91.9225C92.3351 46.7363 92.6851 47.0459 92.6851 47.446C92.6851 47.8462 92.3351 48.1557 91.9225 48.1557H17.584C17.1713 48.1557 16.8213 47.8462 16.8213 47.446Z" fill="black"/>
<path d="M90.7783 48.0493C90.9361 48.0444 91.0864 47.981 91.2 47.8713C91.3136 47.7617 91.3823 47.6137 91.3927 47.4562C91.3874 47.2949 91.321 47.1417 91.2069 47.0276C91.0928 46.9135 90.9396 46.8471 90.7783 46.8418M90.1852 48.0493C90.3392 48.0394 90.4844 47.9737 90.5935 47.8645C90.7027 47.7554 90.7684 47.6102 90.7783 47.4562C90.7734 47.2984 90.71 47.1481 90.6003 47.0345C90.4907 46.9209 90.3427 46.8522 90.1852 46.8418M89.5708 48.0493C89.7286 48.0444 89.8789 47.981 89.9925 47.8713C90.106 47.7617 90.1747 47.6137 90.1852 47.4562C90.1799 47.2949 90.1134 47.1417 89.9994 47.0276C89.8853 46.9135 89.7321 46.8471 89.5708 46.8418" fill="#FFD900"/>
<path fill-rule="evenodd" clip-rule="evenodd" d="M89.5743 46.7363C89.7625 46.7425 89.9412 46.82 90.0743 46.9531C90.2074 47.0862 90.2849 47.265 90.2911 47.4531L90.2913 47.4583L90.2909 47.4636C90.2787 47.6473 90.1986 47.82 90.0661 47.9479C89.9336 48.0758 89.7582 48.1499 89.5742 48.1556L89.5676 47.9439C89.699 47.9398 89.8243 47.8869 89.9189 47.7955C90.0123 47.7054 90.0693 47.5841 90.0792 47.4548C90.0735 47.3223 90.0184 47.1967 89.9245 47.1029C89.8294 47.0078 89.7018 46.9525 89.5674 46.9481L89.5743 46.7363ZM90.7819 46.7363C90.97 46.7425 91.1488 46.82 91.2819 46.9531C91.415 47.0862 91.4925 47.265 91.4986 47.4531L91.4988 47.4583L91.4985 47.4636C91.4863 47.6473 91.4061 47.82 91.2736 47.9479C91.1411 48.0758 90.9658 48.1499 90.7817 48.1556L90.7751 47.9439C90.9066 47.9398 91.0318 47.8869 91.1265 47.7955C91.2199 47.7054 91.2768 47.5841 91.2867 47.4548C91.281 47.3223 91.2259 47.1967 91.1321 47.1029C91.037 47.0078 90.9093 46.9525 90.7749 46.9481L90.7819 46.7363ZM90.1922 46.7365C90.376 46.7487 90.5487 46.8288 90.6766 46.9613C90.8045 47.0938 90.8785 47.2692 90.8843 47.4533L90.8844 47.4583L90.8841 47.4634C90.8725 47.6431 90.7958 47.8125 90.6685 47.9398C90.5411 48.0672 90.3718 48.1438 90.1921 48.1555L90.1784 47.944C90.3068 47.9357 90.4277 47.881 90.5187 47.79C90.6084 47.7003 90.6629 47.5813 90.6723 47.4548C90.6671 47.3252 90.6144 47.2019 90.5242 47.1085C90.4328 47.0138 90.3095 46.9566 90.1782 46.9479L90.1922 46.7365Z" fill="black"/>
<path d="M90.4009 49.2578L85.2529 51.0797L90.3797 52.8805L95.5277 51.0797L90.4009 49.2578Z" fill="white"/>
<path fill-rule="evenodd" clip-rule="evenodd" d="M90.3992 49.145L95.8445 51.0801L90.3779 52.9923L84.9326 51.0797L90.3992 49.145ZM85.5697 51.0789L90.378 52.7678L95.2074 51.0785L90.3991 49.3698L85.5697 51.0789Z" fill="black"/>
<path d="M86.9884 50.4648H12.6499C12.2872 50.4648 11.9932 50.7352 11.9932 51.0686C11.9932 51.4021 12.2872 51.6724 12.6499 51.6724H86.9884C87.3511 51.6724 87.6452 51.4021 87.6452 51.0686C87.6452 50.7352 87.3511 50.4648 86.9884 50.4648Z" fill="#FFD900"/>
<path fill-rule="evenodd" clip-rule="evenodd" d="M12.6508 50.5707C12.3381 50.5707 12.1 50.8018 12.1 51.0686C12.1 51.3353 12.3381 51.5664 12.6508 51.5664H86.9893C87.3021 51.5664 87.5402 51.3353 87.5402 51.0686C87.5402 50.8018 87.3021 50.5707 86.9893 50.5707H12.6508ZM11.8882 51.0686C11.8882 50.6684 12.2382 50.3589 12.6508 50.3589H86.9893C87.402 50.3589 87.752 50.6684 87.752 51.0686C87.752 51.4688 87.402 51.7783 86.9893 51.7783H12.6508C12.2382 51.7783 11.8882 51.4688 11.8882 51.0686Z" fill="black"/>
<path d="M85.8457 51.6724C86.0035 51.6675 86.1538 51.604 86.2674 51.4944C86.381 51.3847 86.4496 51.2367 86.4601 51.0792C86.4548 50.918 86.3884 50.7647 86.2743 50.6506C86.1602 50.5366 86.007 50.4701 85.8457 50.4648M85.2526 51.6724C85.4066 51.6624 85.5518 51.5967 85.6609 51.4876C85.7701 51.3784 85.8358 51.2333 85.8457 51.0792C85.8408 50.9214 85.7774 50.7711 85.6677 50.6576C85.5581 50.544 85.4101 50.4753 85.2526 50.4648M84.6382 51.6724C84.796 51.6675 84.9463 51.604 85.0598 51.4944C85.1734 51.3847 85.2421 51.2367 85.2526 51.0792C85.2473 50.918 85.1808 50.7647 85.0667 50.6506C84.9527 50.5366 84.7994 50.4701 84.6382 50.4648" fill="#FFD900"/>
<path fill-rule="evenodd" clip-rule="evenodd" d="M84.6412 50.3589C84.8294 50.3651 85.0081 50.4426 85.1412 50.5757C85.2743 50.7088 85.3518 50.8875 85.358 51.0756L85.3582 51.0809L85.3578 51.0861C85.3456 51.2699 85.2655 51.4426 85.133 51.5705C85.0005 51.6984 84.8251 51.7724 84.641 51.7782L84.6345 51.5664C84.7659 51.5623 84.8912 51.5095 84.9858 51.4181C85.0792 51.3279 85.1362 51.2067 85.1461 51.0773C85.1404 50.9449 85.0852 50.8193 84.9914 50.7255C84.8963 50.6304 84.7687 50.575 84.6343 50.5706L84.6412 50.3589ZM85.8488 50.3589C86.0369 50.3651 86.2157 50.4426 86.3488 50.5757C86.4819 50.7088 86.5594 50.8875 86.5655 51.0756L86.5657 51.0809L86.5654 51.0861C86.5532 51.2699 86.473 51.4426 86.3405 51.5705C86.208 51.6984 86.0327 51.7724 85.8486 51.7782L85.842 51.5664C85.9735 51.5623 86.0987 51.5095 86.1934 51.4181C86.2868 51.3279 86.3437 51.2067 86.3536 51.0773C86.3479 50.9449 86.2928 50.8193 86.199 50.7255C86.1039 50.6304 85.9762 50.575 85.8418 50.5706L85.8488 50.3589ZM85.2591 50.3591C85.4429 50.3713 85.6156 50.4514 85.7435 50.5839C85.8714 50.7164 85.9454 50.8917 85.9512 51.0758L85.9513 51.0809L85.951 51.086C85.9394 51.2657 85.8627 51.435 85.7354 51.5624C85.608 51.6897 85.4387 51.7664 85.259 51.778L85.2453 51.5666C85.3737 51.5583 85.4946 51.5035 85.5856 51.4126C85.6753 51.3228 85.7298 51.2038 85.7392 51.0773C85.734 50.9477 85.6813 50.8245 85.5911 50.731C85.4997 50.6364 85.3764 50.5792 85.2451 50.5704L85.2591 50.3591Z" fill="black"/>
<path d="M105.586 54.4033H4.46985C3.97844 54.4033 3.58008 54.8112 3.58008 55.3143C3.58008 55.8174 3.97844 56.2252 4.46985 56.2252H105.586C106.078 56.2252 106.476 55.8174 106.476 55.3143C106.476 54.8112 106.078 54.4033 105.586 54.4033Z" fill="#FFD900"/>
<path fill-rule="evenodd" clip-rule="evenodd" d="M4.47016 54.5201C4.04567 54.5201 3.6969 54.8732 3.6969 55.3146C3.6969 55.7559 4.04567 56.109 4.47016 56.109H105.587C106.011 56.109 106.36 55.7559 106.36 55.3146C106.36 54.8732 106.011 54.5201 105.587 54.5201H4.47016ZM3.46387 55.3146C3.46387 54.7497 3.91183 54.2871 4.47016 54.2871H105.587C106.145 54.2871 106.593 54.7497 106.593 55.3146C106.593 55.8794 106.145 56.3421 105.587 56.3421H4.47016C3.91183 56.3421 3.46387 55.8794 3.46387 55.3146Z" fill="black"/>
<path d="M84.71 55.3096C78.6729 61.3682 70.5947 73.4639 54.46 73.4639C40.3232 73.4639 30.2471 61.3682 24.167 55.3096C30.2471 49.251 40.3232 37.1553 54.46 37.1553C70.5732 37.1553 78.6729 49.251 84.71 55.3096Z" fill="white"/>
<path fill-rule="evenodd" clip-rule="evenodd" d="M24.3179 55.3096C24.9399 55.931 25.6025 56.6134 26.3058 57.3377C29.0367 60.15 32.3826 63.5957 36.3555 66.5727C41.3915 70.3464 47.4224 73.3565 54.4588 73.3565C68.0692 73.3565 75.919 64.7254 81.682 58.389C82.6987 57.2711 83.6504 56.2246 84.5574 55.3096C83.653 54.3971 82.7035 53.354 81.6893 52.2396C75.9213 45.9023 68.0578 37.2627 54.4588 37.2627C47.4224 37.2627 41.3915 40.2728 36.3555 44.0464C32.3826 47.0234 29.0367 50.4692 26.3058 53.2814C25.6025 54.0058 24.9399 54.6881 24.3179 55.3096ZM36.2267 43.8745C41.283 40.0856 47.3585 37.0479 54.4588 37.0479C68.1618 37.0479 76.0969 45.771 81.8616 52.108C82.8994 53.2489 83.8668 54.3124 84.7849 55.2337L84.8605 55.3096L84.7849 55.3854C83.8643 56.3093 82.8946 57.3761 81.8544 58.5205C76.0948 64.8567 68.1732 73.5713 54.4588 73.5713C47.3585 73.5713 41.283 70.5335 36.2267 66.7447C32.2387 63.7563 28.877 60.2942 26.1456 57.4812C25.4153 56.7292 24.7301 56.0235 24.09 55.3857L24.0137 55.3096L24.09 55.2335C24.7301 54.5957 25.4153 53.89 26.1456 53.1379C28.877 50.3249 32.2387 46.8628 36.2267 43.8745Z" fill="black"/>
<path d="M52.3325 43.4717C53.9439 45.2764 52.6118 46.0068 54.3091 46.1357C56.1138 46.2646 55.0825 48.0479 56.6079 48.1123C57.6606 48.1553 56.5005 52.3662 57.5103 53.7627C58.5415 55.2236 59.4224 54.1924 59.4439 55.2451C59.4439 56.3193 56.6079 56.2119 56.5649 59.542C56.479 61.4756 54.1587 61.6045 54.0513 62.8506C53.9224 64.0107 58.606 64.6768 58.563 65.708C58.4771 66.7607 53.4927 66.5889 53.2564 67.7705C53.1489 68.8447 60.1314 69.7041 60.7114 72.7979C58.6592 73.2545 56.5619 73.4779 54.4595 73.4639C40.3228 73.4639 30.2466 61.3682 24.188 55.3096C30.2466 49.251 40.3228 37.1553 54.4595 37.1553C54.4595 37.1553 50.27 40.9795 52.3325 43.4717V43.4717Z" fill="black"/>
<path d="M36.2432 53.702V48.8506ZM39.1667 48.8506V53.702ZM42.0903 48.8506V53.702Z" fill="black"/>
<path fill-rule="evenodd" clip-rule="evenodd" d="M36.9745 48.8506V53.702H35.5127V48.8506H36.9745ZM38.4362 53.702V48.8506H39.898V53.702H38.4362ZM41.3598 53.702V48.8506H42.8216V53.702H41.3598Z" fill="white"/>
<path d="M36.2432 61.7728V56.9214ZM39.1667 56.9214V61.7728ZM42.0903 56.9214V61.7728Z" fill="black"/>
<path fill-rule="evenodd" clip-rule="evenodd" d="M36.9745 56.9214V61.7728H35.5127V56.9214H36.9745ZM38.4362 61.7728V56.9214H39.898V61.7728H38.4362ZM41.3598 61.7728V56.9214H42.8216V61.7728H41.3598Z" fill="white"/>
<path d="M45.0576 53.702V48.8506ZM47.9812 48.8506V53.702ZM50.9047 48.8506V53.702Z" fill="black"/>
<path fill-rule="evenodd" clip-rule="evenodd" d="M45.7889 48.8506V53.702H44.3271V48.8506H45.7889ZM47.2507 53.702V48.8506H48.7125V53.702H47.2507ZM50.1742 53.702V48.8506H51.636V53.702H50.1742Z" fill="white"/>
<path d="M45.0576 61.7728V56.9214ZM47.9812 56.9214V61.7728ZM50.9047 56.9214V61.7728Z" fill="black"/>
<path fill-rule="evenodd" clip-rule="evenodd" d="M45.7889 56.9214V61.7728H44.3271V56.9214H45.7889ZM47.2507 61.7728V56.9214H48.7125V61.7728H47.2507ZM50.1742 61.7728V56.9214H51.636V61.7728H50.1742Z" fill="white"/>
<path d="M58.4458 53.702V48.8506ZM61.3693 48.8506V53.702ZM64.2929 48.8506V53.702Z" fill="black"/>
<path fill-rule="evenodd" clip-rule="evenodd" d="M59.1771 48.8506V53.702H57.7153V48.8506H59.1771ZM60.6389 53.702V48.8506H62.1006V53.702H60.6389ZM63.5624 53.702V48.8506H65.0242V53.702H63.5624Z" fill="black"/>
<path d="M58.4458 61.7728V56.9214ZM61.3693 56.9214V61.7728ZM64.2929 56.9214V61.7728Z" fill="black"/>
<path fill-rule="evenodd" clip-rule="evenodd" d="M59.1771 56.9214V61.7728H57.7153V56.9214H59.1771ZM60.6389 61.7728V56.9214H62.1006V61.7728H60.6389ZM63.5624 61.7728V56.9214H65.0242V61.7728H63.5624Z" fill="black"/>
<path d="M67.2568 53.702V48.8506ZM70.1804 48.8506V53.702ZM73.1039 48.8506V53.702Z" fill="black"/>
<path fill-rule="evenodd" clip-rule="evenodd" d="M67.9881 48.8506V53.702H66.5264V48.8506H67.9881ZM69.4499 53.702V48.8506H70.9117V53.702H69.4499ZM72.3735 53.702V48.8506H73.8352V53.702H72.3735Z" fill="black"/>
<path d="M67.2568 61.7728V56.9214ZM70.1804 56.9214V61.7728ZM73.1039 56.9214V61.7728Z" fill="black"/>
<path fill-rule="evenodd" clip-rule="evenodd" d="M67.9881 56.9214V61.7728H66.5264V56.9214H67.9881ZM69.4499 61.7728V56.9214H70.9117V61.7728H69.4499ZM72.3735 61.7728V56.9214H73.8352V61.7728H72.3735Z" fill="black"/>
<path d="M99.2358 54.6021C98.312 56.1704 99.9448 54.0649 103.898 56.7075C104.301 57.0401 104.631 57.4521 104.867 57.9179C105.104 58.3836 105.242 58.8931 105.273 59.4146C105.08 59.3071 104.951 59.0278 104.736 58.856C104.457 59.1353 105.037 60.4458 105.101 61.0688C104.478 60.7251 104.542 60.5747 104.328 60.145C104.371 60.6606 104.22 62.0786 104.478 62.6157C103.984 62.4653 104.027 62.0786 103.769 62.0142C103.941 62.6157 103.619 63.2817 103.705 63.9907C103.425 63.7114 103.103 63.4751 102.974 63.3462C102.953 63.7114 102.437 64.5708 102.416 64.8716C102.327 64.813 102.25 64.7372 102.191 64.6486C102.132 64.5601 102.092 64.4605 102.072 64.356C101.502 65.023 101.018 65.7593 100.632 66.5474C99.8159 65.8169 97.7104 64.0552 97.4312 63.1099C97.1948 63.647 96.8296 63.8188 96.1421 64.2056C95.8843 62.7231 94.853 61.0688 95.3901 59.7798C95.0199 60.0126 94.6614 60.2635 94.3159 60.5317C94.6309 59.2311 95.2402 58.0202 96.0969 56.9922C96.9536 55.9641 98.0348 55.1464 99.2573 54.6021H99.2358Z" fill="#333333"/>
<path fill-rule="evenodd" clip-rule="evenodd" d="M99.179 54.5044H99.2557L99.2823 54.6294L99.3175 54.6501C99.3098 54.6633 99.3022 54.6761 99.2949 54.6887L99.295 54.6894C99.2948 54.6895 99.2945 54.6896 99.2943 54.6897C99.1918 54.8652 99.1282 54.9847 99.0979 55.0669C99.0819 55.1101 99.0787 55.1339 99.0791 55.1452C99.085 55.1479 99.098 55.1527 99.1238 55.1564C99.1573 55.1613 99.2019 55.1632 99.2608 55.163C99.3105 55.1629 99.3672 55.1613 99.4323 55.1595C99.4437 55.1592 99.4554 55.1589 99.4674 55.1586C99.5468 55.1564 99.6367 55.1543 99.7364 55.1543C100.54 55.1543 101.956 55.2931 103.95 56.6262L103.954 56.6289L103.958 56.632C104.371 56.973 104.709 57.3955 104.952 57.8731C105.194 58.3507 105.336 58.8731 105.368 59.4078L105.378 59.5836L105.224 59.4981C105.108 59.4335 105.016 59.3208 104.935 59.2186C104.929 59.2107 104.923 59.2028 104.916 59.195C104.865 59.1307 104.816 59.0688 104.764 59.0136C104.763 59.016 104.763 59.0183 104.762 59.0208C104.754 59.0731 104.753 59.1404 104.761 59.2219C104.776 59.3851 104.822 59.5879 104.881 59.8075C104.914 59.9306 104.95 60.0537 104.985 60.1765C105.014 60.2755 105.042 60.3744 105.069 60.4729C105.128 60.6877 105.179 60.8934 105.196 61.0579L105.215 61.2418L105.053 61.1525C104.736 60.9776 104.58 60.8448 104.479 60.6914C104.461 60.6635 104.444 60.6354 104.429 60.6069C104.429 60.629 104.428 60.6513 104.428 60.6739C104.427 60.7249 104.426 60.7773 104.425 60.8309C104.421 61.0031 104.417 61.1869 104.417 61.3713C104.417 61.6131 104.424 61.8529 104.446 62.0645C104.469 62.2781 104.506 62.4539 104.564 62.5729L104.659 62.7713L104.448 62.7072C104.172 62.6233 104.044 62.47 103.953 62.3358C103.938 62.3129 103.924 62.2923 103.912 62.2735C103.911 62.2723 103.911 62.2711 103.91 62.27C103.928 62.504 103.897 62.7417 103.863 62.9752C103.859 63.0004 103.856 63.0256 103.852 63.0507C103.806 63.3595 103.761 63.6648 103.799 63.9781L103.833 64.2562L103.635 64.0581C103.498 63.9216 103.35 63.795 103.219 63.6852C103.195 63.6651 103.171 63.6453 103.148 63.626C103.108 63.5929 103.07 63.5613 103.036 63.5317C103.018 63.595 102.995 63.6619 102.97 63.7296C102.917 63.8694 102.848 64.023 102.781 64.1718C102.774 64.1887 102.766 64.2056 102.759 64.2224C102.699 64.3543 102.642 64.4808 102.597 64.5928C102.545 64.7224 102.514 64.8194 102.51 64.8775L102.499 65.0421L102.361 64.9513C102.261 64.8857 102.175 64.8006 102.109 64.7013C102.078 64.6545 102.051 64.605 102.03 64.5535C101.514 65.1781 101.074 65.8612 100.718 66.5889L100.661 66.7036L100.566 66.6184C100.473 66.5348 100.362 66.4372 100.238 66.3286C99.826 65.9656 99.2732 65.4791 98.761 64.9773C98.4281 64.6511 98.1102 64.3164 97.8574 64.0027C97.6714 63.7719 97.5165 63.5475 97.4181 63.3427C97.186 63.7316 96.8492 63.9196 96.3405 64.2035C96.2912 64.2309 96.2404 64.2593 96.1879 64.2889L96.0686 64.3559L96.0452 64.2212C95.982 63.8576 95.871 63.4815 95.7467 63.0988C95.7068 62.976 95.6655 62.8521 95.624 62.7278C95.537 62.4672 95.4494 62.2048 95.3736 61.9464C95.179 61.2829 95.0528 60.6172 95.2099 60.0087C94.9234 60.1972 94.6445 60.3968 94.3736 60.6071L94.1553 60.7766L94.2203 60.508C94.5388 59.193 95.1549 57.9687 96.021 56.9293C96.8737 55.9061 97.9464 55.0889 99.1588 54.5386L99.179 54.5044ZM98.9942 54.8303C97.9085 55.3647 96.9458 56.1216 96.1696 57.0531C95.3816 57.9987 94.8052 59.1008 94.4778 60.2851C94.7565 60.078 95.0431 59.8818 95.337 59.697L95.5949 59.5348L95.4777 59.816C95.2231 60.4272 95.3369 61.134 95.5592 61.892C95.6339 62.147 95.7196 62.4035 95.8059 62.6621C95.8477 62.7872 95.8897 62.9129 95.9306 63.0391C96.0408 63.3785 96.1429 63.7195 96.2106 64.0544C96.2179 64.0503 96.2252 64.0462 96.2325 64.0422C96.8346 63.7053 97.1356 63.5369 97.341 63.0699L97.4474 62.8282L97.5222 63.0815C97.5864 63.2987 97.76 63.5737 98.008 63.8814C98.2541 64.1868 98.566 64.5154 98.8964 64.8391C99.4044 65.3369 99.9511 65.8181 100.363 66.181C100.449 66.2561 100.528 66.326 100.6 66.39C100.98 65.6376 101.449 64.9332 101.997 64.2922L102.128 64.139L102.165 64.337C102.183 64.4288 102.218 64.5162 102.27 64.594C102.295 64.6309 102.323 64.6651 102.353 64.6965C102.371 64.6408 102.393 64.5812 102.418 64.5207C102.464 64.4047 102.523 64.2742 102.582 64.1429C102.59 64.1261 102.597 64.1092 102.605 64.0924C102.672 63.9431 102.738 63.7946 102.789 63.6611C102.84 63.5253 102.872 63.415 102.876 63.3395L102.889 63.1246L103.041 63.2769C103.09 63.3256 103.169 63.3914 103.268 63.4742C103.292 63.4941 103.317 63.515 103.343 63.5369C103.421 63.6018 103.506 63.6739 103.592 63.7512C103.59 63.4993 103.626 63.2554 103.66 63.0261C103.664 62.9996 103.668 62.9733 103.672 62.9472C103.72 62.6151 103.754 62.3179 103.674 62.0397L103.628 61.8788L103.791 61.9194C103.881 61.942 103.943 61.9933 103.992 62.0511C104.024 62.0893 104.054 62.1364 104.082 62.18C104.093 62.1967 104.103 62.2128 104.113 62.2277C104.162 62.3002 104.22 62.3737 104.312 62.4346C104.286 62.3277 104.267 62.2089 104.254 62.0848C104.231 61.8633 104.224 61.6157 104.224 61.3713C104.224 61.1846 104.228 60.9979 104.232 60.8254C104.233 60.7722 104.234 60.7204 104.235 60.6703C104.239 60.4554 104.24 60.2752 104.23 60.1521L104.412 60.1008C104.459 60.1944 104.493 60.2757 104.523 60.3459C104.528 60.3588 104.534 60.3714 104.539 60.3836C104.573 60.4629 104.601 60.5257 104.64 60.5849C104.7 60.6751 104.789 60.7647 104.971 60.8803C104.949 60.7729 104.918 60.6527 104.883 60.5242C104.857 60.432 104.829 60.3338 104.8 60.2341C104.764 60.1079 104.727 59.9794 104.695 59.8576C104.635 59.6367 104.585 59.4205 104.568 59.24C104.56 59.1497 104.559 59.0639 104.572 58.9886C104.584 58.9139 104.611 58.841 104.666 58.7866L104.727 58.7254L104.795 58.7795C104.903 58.8658 104.99 58.9762 105.066 59.0722C105.073 59.081 105.08 59.0897 105.087 59.0983C105.11 59.1273 105.131 59.1544 105.153 59.1793C105.1 58.7552 104.974 58.3428 104.78 57.9607C104.55 57.5082 104.229 57.1078 103.839 56.7842C101.882 55.4772 100.506 55.3477 99.7364 55.3477C99.6394 55.3477 99.5516 55.3497 99.4726 55.3519C99.4609 55.3522 99.4494 55.3525 99.4381 55.3528C99.3732 55.3546 99.3137 55.3562 99.2613 55.3564C99.2001 55.3566 99.144 55.3548 99.096 55.3478C99.0496 55.341 98.9992 55.328 98.9586 55.2971C98.9124 55.262 98.8892 55.2122 98.8861 55.1566C98.8834 55.1066 98.8968 55.0533 98.9165 55C98.9343 54.9516 98.9604 54.8954 98.9942 54.8303Z" fill="black"/>
<path d="M95.8198 62.4649C96.2065 61.6914 96.5503 61.4551 96.8081 60.961C97.2378 60.1016 97.3022 59.4141 97.6675 59.5215C98.0542 59.6289 98.0542 59.9727 97.5601 60.8106C97.0874 61.67 96.8511 61.8633 95.8198 62.4649ZM98.3979 64.2696C98.355 63.711 98.5269 63.4532 98.4839 63.0879C98.4409 62.4219 98.1616 61.9707 98.5269 61.9278C98.8491 61.9278 99.021 62.1426 99.021 62.7871C99.021 63.4317 98.9351 63.6465 98.3765 64.2696H98.3979ZM100.353 65.4082C100.203 64.5918 100.31 64.2481 100.203 63.711C100.052 62.8086 99.7085 62.2071 100.031 62.0996C100.353 62.0137 100.546 62.3145 100.675 63.2598C100.783 64.1836 100.74 64.4414 100.353 65.4082ZM102.394 59.7578C101.9 59.3711 101.621 59.3496 101.32 59.1133C100.783 58.6836 100.503 58.2754 100.332 58.4903C100.16 58.7051 100.289 58.9414 100.847 59.3282C101.406 59.7149 101.621 59.7364 102.394 59.7578V59.7578ZM102.05 62.4219C101.792 61.8848 101.535 61.7774 101.363 61.4336C101.084 60.8321 101.083 60.3379 100.761 60.4453C100.46 60.5957 100.417 60.875 100.761 61.4336C101.105 62.0137 101.277 62.0996 102.05 62.4219Z" fill="#B3B3B3"/>
<path d="M8.03516 56.1265C7.9707 55.6753 8.07813 55.6108 7.79883 55.2671C8.22852 55.4175 8.22852 55.9116 8.72266 55.5679C8.91602 55.4605 8.98047 55.4604 8.76563 54.9448C9.28125 54.9663 11 55.5679 11.2793 55.5894C12.0098 55.5894 13.3203 54.8159 14.2441 55.8042C15.1035 56.6636 14.8242 57.6089 14.8242 58.812C14.4805 58.6616 14.6309 58.5972 14.2656 58.146C14.5449 59.2202 14.2656 61.1538 14.2656 62.314C14.1152 62.0132 14.1367 62.1421 13.9863 61.8843C13.6211 62.894 13.1699 63.1089 13.1699 64.355C13.0195 63.8608 13.1699 63.9683 13.0195 63.7104C12.6543 64.5054 10.1836 65.1929 11.1504 65.9663C10.291 65.4722 9.92578 65.5366 9.53906 65.0854C9.36719 65.1929 9.23828 65.4077 9.08789 65.6655C7.58398 64.978 8.12109 63.5171 6.93945 62.5073C6.72461 62.937 6.85352 62.8726 6.61719 63.5386C6.40234 62.5933 6.31641 62.0132 6.05859 61.3257C5.84375 61.6909 5.84375 61.5405 5.41406 62.1206C5.24219 60.9819 4.98438 60.7026 5.07031 59.9722C4.64063 60.273 4.94141 60.144 4.49023 60.5308C4.91992 57.6089 6.72461 55.439 8.01367 56.1265H8.03516Z" fill="#333333"/>
<path fill-rule="evenodd" clip-rule="evenodd" d="M8.58399 54.8203L8.76933 54.828C8.91187 54.834 9.12688 54.8787 9.3642 54.9382C9.60465 54.9986 9.87848 55.0771 10.1432 55.155C10.2436 55.1845 10.3424 55.2139 10.4377 55.2423C10.5951 55.2891 10.743 55.3331 10.8726 55.3703C10.9764 55.4 11.0668 55.4249 11.1395 55.443C11.2107 55.4606 11.258 55.4699 11.2831 55.4724C11.4485 55.4716 11.652 55.4274 11.8923 55.3703C11.9166 55.3645 11.9413 55.3586 11.9663 55.3526C12.1849 55.3002 12.4261 55.2425 12.6727 55.2103C13.2255 55.138 13.8295 55.1912 14.3279 55.7233C14.7807 56.1768 14.9339 56.6563 14.9731 57.1715C14.9925 57.4265 14.984 57.6906 14.9713 57.9621C14.9689 58.0118 14.9664 58.0618 14.9639 58.112C14.9527 58.3381 14.9412 58.5701 14.9412 58.8133V58.994L14.7756 58.9215C14.685 58.8819 14.6179 58.8441 14.5652 58.7989C14.5262 58.7656 14.4984 58.7309 14.4751 58.695C14.5193 59.154 14.5112 59.6809 14.4872 60.2044C14.474 60.4934 14.456 60.7811 14.4386 61.0582C14.4097 61.5209 14.3826 61.9542 14.3826 62.3152L14.1587 62.3681C14.0858 62.2223 14.0586 62.1887 14.035 62.1612C14.0318 62.1574 14.0286 62.1537 14.0252 62.1498C14.0216 62.1457 14.018 62.1415 14.0142 62.1371C13.9114 62.3848 13.8037 62.5876 13.7062 62.7714C13.6485 62.88 13.5943 62.982 13.5468 63.0827C13.3956 63.4031 13.2869 63.7511 13.2869 64.3563L13.0557 64.3907C12.9895 64.1733 12.9778 64.0621 12.9758 63.9855C12.851 64.129 12.6816 64.2627 12.5042 64.3875C12.3678 64.4834 12.2205 64.5779 12.0749 64.6706C12.0586 64.6809 12.0424 64.6913 12.0261 64.7016C11.8966 64.784 11.7695 64.8648 11.6506 64.9455C11.377 65.131 11.1715 65.3001 11.0857 65.4572C11.0456 65.5308 11.0364 65.5933 11.0514 65.6518C11.0671 65.7128 11.114 65.7881 11.223 65.8753L11.0903 66.07C10.7408 65.8691 10.477 65.7633 10.2539 65.674C10.208 65.6556 10.1639 65.6379 10.1212 65.6203C9.89727 65.5278 9.70951 65.435 9.52391 65.2463C9.48282 65.2843 9.44193 65.3321 9.39966 65.39C9.3313 65.4837 9.26442 65.5966 9.18875 65.7263L9.13484 65.8187L9.03755 65.7743C8.24088 65.4101 7.98473 64.8342 7.78004 64.2475C7.75899 64.1871 7.7385 64.1269 7.71807 64.0668C7.55396 63.584 7.39344 63.1118 6.97725 62.7043C6.93135 62.8126 6.91725 62.8777 6.90103 62.9588C6.89974 62.9652 6.89845 62.9717 6.89713 62.9784C6.87309 63.0994 6.84182 63.2567 6.72734 63.5794L6.59106 63.9634L6.50075 63.566C6.44502 63.3208 6.39813 63.1013 6.35491 62.899C6.24845 62.4005 6.16426 62.0064 6.02506 61.5895C5.98255 61.6438 5.94441 61.6822 5.89924 61.7274L5.89788 61.7288C5.82095 61.8057 5.71745 61.9092 5.5078 62.1922L5.33847 62.4208L5.29601 62.1395C5.22799 61.6889 5.14687 61.3769 5.07807 61.1123C5.06103 61.0467 5.04474 60.9841 5.0296 60.923C4.97165 60.6892 4.93122 60.4797 4.93401 60.2264C4.90914 60.2502 4.89905 60.2651 4.88619 60.2849C4.88486 60.287 4.8835 60.2891 4.88211 60.2912C4.86492 60.3178 4.84251 60.3524 4.79771 60.4026C4.75089 60.455 4.68077 60.5233 4.56592 60.6217L4.32617 60.8272L4.37211 60.5148C4.58952 59.0365 5.15521 57.7428 5.83667 56.902C6.17718 56.4818 6.55156 56.1687 6.93215 56.0063C7.25541 55.8684 7.58518 55.8389 7.89614 55.9478C7.89386 55.915 7.89232 55.8848 7.89106 55.8568C7.89042 55.8425 7.88986 55.8292 7.88933 55.8165C7.88691 55.7587 7.88511 55.7156 7.87932 55.6741C7.86714 55.5869 7.83717 55.5044 7.70591 55.3429L7.44272 55.019L7.83665 55.1568C7.96412 55.2014 8.05816 55.2713 8.13334 55.3398C8.16811 55.3715 8.19971 55.4037 8.22752 55.4321L8.23283 55.4375C8.26295 55.4682 8.28794 55.4934 8.31243 55.5145C8.36012 55.5555 8.39342 55.57 8.42958 55.5702C8.47044 55.5703 8.53885 55.5522 8.65396 55.4721L8.65885 55.4687L8.66406 55.4659C8.67774 55.4583 8.68968 55.4517 8.70021 55.446C8.73294 55.4281 8.75207 55.4176 8.76754 55.4056C8.77875 55.3969 8.77907 55.3943 8.77942 55.3916C8.77946 55.3913 8.7795 55.391 8.77956 55.3906C8.78166 55.3784 8.78166 55.3476 8.76189 55.2783C8.74271 55.211 8.70867 55.1195 8.65534 54.9915L8.58399 54.8203ZM13.1129 63.6394C13.1632 63.384 13.2405 63.178 13.3331 62.9818C13.3888 62.8637 13.4475 62.7536 13.5075 62.6407C13.6276 62.4151 13.7535 62.1786 13.874 61.8454L13.9599 61.6078L14.0872 61.826C14.1156 61.8747 14.1369 61.9079 14.1542 61.9325C14.1646 61.6539 14.1837 61.3475 14.2035 61.0312C14.2207 60.7556 14.2383 60.4725 14.2511 60.1936C14.2861 59.4297 14.2846 58.6946 14.1501 58.177L14.3563 58.0729C14.514 58.2677 14.5821 58.3977 14.6282 58.4856C14.6379 58.504 14.6466 58.5205 14.6549 58.5354C14.6734 58.5685 14.6882 58.59 14.7073 58.6088C14.7114 58.4325 14.7198 58.2621 14.728 58.0983C14.7305 58.0486 14.7329 57.9995 14.7352 57.951C14.7479 57.6801 14.7556 57.4286 14.7374 57.1894C14.7015 56.7168 14.5649 56.2945 14.1594 55.889L14.158 55.8876L14.1566 55.8862C13.7314 55.4313 13.2188 55.3773 12.7033 55.4446C12.4699 55.4751 12.2409 55.5299 12.0208 55.5825C11.9961 55.5885 11.9714 55.5943 11.9469 55.6002C11.7096 55.6566 11.477 55.7088 11.2781 55.7088H11.2735L11.269 55.7084C11.2231 55.7049 11.1568 55.6908 11.0826 55.6723C11.0058 55.6533 10.9121 55.6275 10.8074 55.5975C10.6769 55.5601 10.5268 55.5154 10.3684 55.4683C10.2733 55.44 10.1752 55.4108 10.0765 55.3817C9.81221 55.3039 9.54221 55.2266 9.30665 55.1675C9.17002 55.1332 9.0483 55.1058 8.94757 55.0879C8.96469 55.1346 8.97854 55.1762 8.98916 55.2135C9.01169 55.2925 9.02377 55.3651 9.01245 55.4308C8.99958 55.5054 8.9596 55.5557 8.91234 55.5924C8.88041 55.6171 8.83895 55.6397 8.8028 55.6593C8.79628 55.6629 8.78992 55.6663 8.78383 55.6697C8.65395 55.7592 8.53863 55.807 8.42853 55.8065C8.31228 55.806 8.22607 55.752 8.15829 55.6936C8.14354 55.6809 8.12909 55.6675 8.11502 55.6539C8.12126 55.7042 8.12343 55.7568 8.12564 55.8106C8.12613 55.8224 8.12661 55.8343 8.12715 55.8462C8.13042 55.9191 8.13556 56.0035 8.15092 56.111L8.17019 56.2459H7.98292L7.95685 56.232C7.67192 56.08 7.35568 56.0825 7.0249 56.2237C6.69113 56.3661 6.34578 56.6491 6.02027 57.0508C5.42454 57.7858 4.91188 58.8978 4.66669 60.1885C4.67288 60.1795 4.6783 60.1712 4.68384 60.1626C4.68523 60.1605 4.68663 60.1583 4.68804 60.1561C4.70899 60.1239 4.73185 60.0913 4.78049 60.0464C4.82578 60.0046 4.89284 59.9526 5.00134 59.8766L5.21725 59.7255L5.18645 59.9872C5.14578 60.333 5.18562 60.5701 5.25899 60.8662C5.27345 60.9245 5.28926 60.9853 5.30599 61.0496C5.36081 61.2603 5.4255 61.509 5.48489 61.8349C5.59975 61.6929 5.67275 61.6197 5.73213 61.5603L5.73531 61.5571C5.80867 61.4838 5.85571 61.4367 5.95553 61.267L6.08108 61.0536L6.16802 61.2855C6.36349 61.8067 6.46254 62.2706 6.58889 62.8624C6.60368 62.9317 6.61885 63.0027 6.63459 63.0758C6.64795 63.02 6.65699 62.9744 6.66521 62.933C6.66659 62.926 6.66794 62.9192 6.66929 62.9124C6.69534 62.7822 6.72004 62.6808 6.83255 62.4558L6.90013 62.3206L7.01501 62.4188C7.57079 62.8937 7.76508 63.4679 7.94188 63.9903C7.96237 64.0509 7.98263 64.1107 8.00318 64.1696C8.19208 64.7112 8.40745 65.1894 9.03996 65.513C9.09568 65.4191 9.15112 65.3297 9.20875 65.2507C9.28546 65.1456 9.37113 65.0516 9.47522 64.9865L9.56142 64.9326L9.62757 65.0098C9.80336 65.2149 9.97161 65.3028 10.2114 65.4018C10.252 65.4186 10.2946 65.4357 10.3394 65.4536C10.4745 65.5077 10.6299 65.5699 10.812 65.6568C10.7974 65.5461 10.8256 65.4405 10.8783 65.344C10.9952 65.1298 11.249 64.9323 11.5179 64.7499C11.6399 64.6672 11.7702 64.5843 11.8992 64.5022C11.9155 64.4919 11.9318 64.4815 11.948 64.4712C12.0937 64.3785 12.2368 64.2865 12.3683 64.1941C12.6372 64.0051 12.8344 63.829 12.9109 63.6624L13.0058 63.4558L13.1129 63.6394Z" fill="black"/>
<path d="M6.18652 60.8973C6.57324 59.952 6.91699 59.6727 7.1748 59.0711C7.60449 57.9969 7.66894 57.1375 8.03418 57.2664C8.39941 57.3953 8.39941 57.825 7.90527 58.8778C7.41113 59.952 7.19629 60.1668 6.18652 60.8973V60.8973ZM7.64746 63.2606C7.79785 62.4012 8.03418 62.1219 8.1416 61.5633C8.33496 60.618 8.22754 59.909 8.57129 59.9305C8.91504 59.9735 9.00098 60.3602 8.76465 61.284C8.52832 62.2508 8.37793 62.4656 7.62598 63.2606H7.64746ZM9.36621 64.9149C9.43066 64.0985 9.62402 63.7762 9.64551 63.2391C9.70996 62.3153 9.5166 61.6492 9.86035 61.6492C10.1826 61.6492 10.29 61.9715 10.2041 62.9168C10.0967 63.8406 9.98926 64.077 9.38769 64.9149H9.36621ZM13.126 59.5438C12.417 58.8348 11.9873 58.6844 11.5146 58.2547C10.7197 57.4383 10.3115 56.6863 10.0107 56.9656C9.73145 57.2235 9.90332 57.6102 10.7627 58.3836C11.6221 59.157 11.9229 59.2645 13.126 59.5438ZM12.6963 62.3153C12.2451 61.6063 11.8799 61.3914 11.5791 60.9403C11.042 60.1238 10.8916 59.4363 10.5693 59.6082C10.2686 59.7801 10.3545 60.1453 10.9131 60.9403C11.4932 61.7137 11.708 61.8641 12.6963 62.3153Z" fill="#B3B3B3"/>
<path d="M44.6865 40.3789C43.8271 41.9902 46.1475 39.8418 49.7568 42.5703C50.6423 43.512 51.2129 44.7058 51.3897 45.9863C50.6489 45.7481 49.9359 45.4312 49.2627 45.041C49.2627 45.041 50.874 46.6523 50.874 48.5C50.2939 48.1562 50.0146 48.1992 49.7998 47.7695C49.7998 48.3711 50.3369 48.7363 50.3369 49.6602C49.987 49.3838 49.6132 49.1394 49.2197 48.9297C49.7568 49.8535 48.2529 51.6582 49.0049 52.2383C48.3675 52.1519 47.7545 51.9358 47.2039 51.6032C46.6533 51.2706 46.1768 50.8287 45.8037 50.3047C45.5244 50.4766 45.5029 50.7773 45.4814 51.0996C45.5244 51.1426 43.4834 49.5957 43.6768 48.9941C43.4423 49.2885 43.3069 49.6494 43.29 50.0254C42.5129 49.3777 41.9263 48.5312 41.5928 47.5762L40.9053 48.4355C40.6689 46.9316 40.6689 46.9746 41.1631 45.6855C40.8211 45.9192 40.4912 46.1702 40.1748 46.4375C40.4305 45.1562 40.9679 43.9479 41.7483 42.9C42.5286 41.8521 43.5323 40.991 44.6865 40.3789V40.3789Z" fill="#333333"/>
<path fill-rule="evenodd" clip-rule="evenodd" d="M44.4904 40.5843C43.446 41.18 42.5351 41.9857 41.8158 42.9516C41.0921 43.9234 40.5794 45.0345 40.3093 46.2138C40.5689 46.0033 40.8372 45.8035 41.1132 45.6148L41.3404 45.4596L41.2419 45.7165C41.2336 45.7384 41.2254 45.7598 41.2173 45.7808C40.9851 46.3861 40.8742 46.6754 40.8444 46.9884C40.8162 47.2844 40.8605 47.603 40.9585 48.2299L41.6213 47.4014L41.6725 47.5481C41.9827 48.4363 42.5153 49.2292 43.2182 49.8518C43.2637 49.5197 43.3979 49.2047 43.6081 48.9408L43.7572 49.0207C43.7414 49.0699 43.7457 49.1383 43.7797 49.2293C43.8132 49.3193 43.8723 49.422 43.9517 49.5332C44.1105 49.7556 44.3416 49.9996 44.5805 50.2265C44.8188 50.4528 45.0621 50.6595 45.2433 50.8069C45.3059 50.858 45.3611 50.9018 45.4059 50.9369C45.4298 50.6697 45.4877 50.3976 45.7573 50.2317L45.8257 50.1896L45.8723 50.2551C46.2386 50.7695 46.7064 51.2034 47.247 51.5299C47.7218 51.8167 48.2438 52.0153 48.7879 52.1168C48.7063 51.967 48.6907 51.787 48.7099 51.5981C48.7379 51.3215 48.8422 51.0032 48.9489 50.6857C48.9546 50.6687 48.9603 50.6517 48.966 50.6347C49.0687 50.3298 49.1714 50.0247 49.2209 49.7403C49.2734 49.4395 49.2632 49.1781 49.144 48.9731L48.9922 48.712L49.2587 48.8541C49.6023 49.0372 49.9311 49.2465 50.2422 49.4801C50.2133 49.1307 50.1029 48.8696 49.9894 48.6312C49.9752 48.6014 49.9608 48.5718 49.9465 48.5422C49.8287 48.2992 49.7125 48.0594 49.7125 47.7698L49.8753 47.7313C49.9728 47.9264 50.0811 48.0112 50.2375 48.0906C50.2872 48.1159 50.3449 48.1417 50.4098 48.1708C50.5158 48.2182 50.6411 48.2744 50.7831 48.3509C50.743 47.5066 50.3713 46.717 49.9944 46.124C49.7955 45.811 49.5965 45.5549 49.4472 45.3772C49.3727 45.2883 49.3107 45.2192 49.2674 45.1724C49.2458 45.1491 49.2289 45.1313 49.2175 45.1194C49.2138 45.1156 49.2107 45.1124 49.2082 45.1098L48.9416 44.9553H49.2613V45.0413L49.3044 44.9669C49.9322 45.3308 50.595 45.6304 51.2826 45.8614C51.088 44.6529 50.5366 43.5289 49.6978 42.6347C47.9144 41.2886 46.4538 41.1471 45.544 41.1418C45.4295 41.1412 45.3236 41.1427 45.2261 41.1443C45.2157 41.1444 45.2053 41.1446 45.195 41.1448C45.1099 41.1462 45.0309 41.1475 44.9596 41.1471C44.8049 41.1464 44.6679 41.1385 44.5724 41.0962C44.5213 41.0735 44.4765 41.0388 44.4486 40.986C44.4213 40.9343 44.4157 40.8754 44.4229 40.8141C44.4304 40.7491 44.4535 40.673 44.4904 40.5843ZM44.6851 40.3791L44.6449 40.3032C43.4793 40.9213 42.4659 41.7908 41.6779 42.8489C40.89 43.907 40.3473 45.1272 40.0891 46.4209L40.041 46.6621L40.2289 46.5034C40.4718 46.2982 40.7227 46.1027 40.9809 45.9173C40.8004 46.3904 40.702 46.671 40.6733 46.9721C40.6407 47.3149 40.6985 47.6829 40.8101 48.3924C40.813 48.4111 40.816 48.43 40.819 48.4491L40.8492 48.6417L41.563 47.7495C41.909 48.66 42.484 49.4669 43.2336 50.0916L43.3667 50.2026L43.3745 50.0295C43.3869 49.7533 43.4665 49.4856 43.6047 49.249C43.609 49.2625 43.6136 49.276 43.6186 49.2894C43.6595 49.399 43.7278 49.5155 43.8119 49.6331C43.9801 49.8687 44.2203 50.1215 44.4621 50.3511C44.7045 50.5814 44.9514 50.791 45.1348 50.9402C45.2265 51.0149 45.3026 51.0747 45.3546 51.1146C45.3805 51.1345 45.4008 51.1497 45.4142 51.1594C45.4205 51.164 45.4266 51.1683 45.4313 51.1714C45.4325 51.1722 45.4345 51.1734 45.4368 51.1747C45.4379 51.1754 45.4398 51.1765 45.4422 51.1776C45.4437 51.1784 45.4492 51.1811 45.4567 51.1833C45.4611 51.1844 45.4729 51.1863 45.4805 51.1867C45.494 51.1856 45.5281 51.1724 45.5455 51.1572C45.5541 51.1438 45.5604 51.1228 45.5633 51.1054L45.5658 51.1056C45.5857 50.8066 45.607 50.5739 45.783 50.4246C46.155 50.9277 46.6221 51.3532 47.1581 51.677C47.7188 52.0156 48.3429 52.2357 48.9919 52.3237L49.3105 52.3668L49.056 52.1705C48.9023 52.0519 48.8553 51.8677 48.8809 51.6154C48.9066 51.3616 49.0036 51.0623 49.1118 50.7405C49.1179 50.7223 49.1241 50.704 49.1303 50.6856C49.2317 50.3845 49.3384 50.0677 49.3903 49.7698C49.4294 49.5455 49.439 49.3238 49.3877 49.122C49.7002 49.3018 49.9992 49.5043 50.2823 49.7278L50.4215 49.8378V49.6604C50.4215 49.1796 50.2809 48.8436 50.1446 48.5573C50.1301 48.527 50.1159 48.4975 50.1019 48.4685C50.0393 48.3388 49.9827 48.2213 49.9428 48.1033C50.008 48.1595 50.0796 48.2032 50.1596 48.2439C50.222 48.2755 50.286 48.3041 50.3547 48.3347C50.4876 48.394 50.6381 48.4612 50.8288 48.5742L50.9586 48.6511V48.5002C50.9586 47.5528 50.5461 46.6716 50.1395 46.0318C49.966 45.7588 49.7925 45.5282 49.6505 45.3533C50.1995 45.6394 50.772 45.8786 51.3619 46.0684L51.4921 46.1102L51.4734 45.9748C51.2942 44.6767 50.7157 43.4664 49.818 42.5117L49.8131 42.5064L49.8073 42.502C47.9839 41.1236 46.4818 40.9754 45.545 40.97C45.4285 40.9693 45.321 40.9708 45.2233 40.9724C45.2129 40.9726 45.2025 40.9727 45.1923 40.9729C45.1068 40.9743 45.0298 40.9756 44.9605 40.9753C44.8004 40.9745 44.6996 40.9646 44.6421 40.9391C44.6167 40.9278 44.6061 40.9162 44.6006 40.9058C44.5946 40.8944 44.589 40.8735 44.5936 40.834C44.6033 40.7509 44.6535 40.621 44.761 40.4196L44.6851 40.3791Z" fill="black"/>
<path d="M42.6035 48.2854C42.7539 47.1683 43.0332 46.7815 43.1191 46.0296C43.291 44.7835 43.0977 43.8382 43.5488 43.8812C43.9785 43.9026 44.1074 44.3753 43.8926 45.6214C43.6777 46.9104 43.4629 47.1897 42.6035 48.3069V48.2854ZM44.9668 50.3479C44.8594 49.4026 45.0313 48.9944 44.9668 48.3929C44.8809 47.3187 44.5371 46.6097 44.9238 46.5452C45.332 46.4808 45.5254 46.8245 45.5684 47.9202C45.6113 48.9944 45.5039 49.2737 44.9453 50.3479H44.9668ZM48.6191 52.0237C48.2109 51.2073 47.8672 50.9495 47.6094 50.4339C47.1797 49.5101 47.0508 48.7581 46.707 48.887C46.3633 49.0374 46.3848 49.4241 46.8789 50.3265C47.3945 51.2288 47.6094 51.4007 48.5977 52.0237H48.6191ZM49.8867 44.719C48.8555 44.1819 48.3398 44.1605 47.6953 43.8382C46.5352 43.2151 45.8691 42.5491 45.6328 42.9358C45.418 43.3011 45.7188 43.6663 46.9004 44.2249C48.082 44.762 48.4473 44.7835 49.8652 44.6976L49.8867 44.719ZM50.252 47.7483C49.5 47.1468 49.0703 47.0608 48.5977 46.6741C47.7383 45.9651 47.3301 45.2991 47.0723 45.5784C46.793 45.8577 46.9648 46.2229 47.8457 46.8675C48.7051 47.512 49.0273 47.5979 50.252 47.7483Z" fill="#B3B3B3"/>
</g>
<defs>
<clipPath id="clip0_5158_354843">
<rect x="0.0185547" y="0.30957" width="110" height="110" rx="55" fill="white"/>
</clipPath>
</defs>
</svg>
