<svg width="111" height="111" viewBox="0 0 111 111" fill="none" xmlns="http://www.w3.org/2000/svg">
<g clip-path="url(#clip0_5158_354477)">
<path fill-rule="evenodd" clip-rule="evenodd" d="M0.675293 0.520996H165.65V110.504H0.675293V0.520996Z" fill="#00843D"/>
<path fill-rule="evenodd" clip-rule="evenodd" d="M57.2441 30.0569C63.2311 32.9396 70.3712 30.0569 72.9655 26.0656C75.6264 22.3404 75.9368 16.0873 71.3468 10.3442C78.4425 16.2425 80.039 22.9169 76.4912 28.4161C71.7903 34.6913 61.3242 34.5139 57.2441 30.0569V30.0569Z" fill="white"/>
<path fill-rule="evenodd" clip-rule="evenodd" d="M66.5339 17.418L66.8665 16.2206L65.8908 15.4888L67.0882 15.4445L67.4874 14.2692L67.8865 15.4445H69.0839L68.1304 16.2206L68.4852 17.3958L67.5095 16.6862L66.5339 17.418ZM60.5469 24.8684L60.9017 23.6932L59.926 22.9393L61.1456 22.9171L61.5225 21.7419L61.9438 22.8949L63.1412 22.9171L62.1878 23.671L62.5425 24.8684L61.5447 24.1589L60.5469 24.8684ZM60.946 18.9923L61.3008 17.7949L60.3251 17.0632L61.5225 17.0188L61.9217 15.8436L62.3208 17.0188H63.5404L62.5869 17.7949L62.9417 18.9701L61.9438 18.2606L60.946 18.9923ZM60.946 13.094L61.3008 11.8966L60.3251 11.1649L61.5225 11.1205L61.9217 9.94531L62.3208 11.1205H63.5404L62.5869 11.8966L62.9417 13.0718L61.9438 12.3845L60.946 13.094ZM54.3382 20.5667L54.6708 19.3693L53.7173 18.6154L54.9147 18.5932L55.3138 17.418L55.7129 18.571L56.9103 18.5932L55.9569 19.3471L56.3116 20.5445L55.3138 19.8349L54.3382 20.5667Z" fill="white"/>
<path fill-rule="evenodd" clip-rule="evenodd" d="M10.876 0.520508H46.2435V110.504H10.8982L10.876 0.520508Z" fill="#CA3745"/>
<path fill-rule="evenodd" clip-rule="evenodd" d="M10.8726 29.1897V28.4136L12.3582 26.4401L12.0478 26.0632L12.9347 24.8658L12.6465 24.4888L12.0478 25.2649L11.7595 24.8658L13.8217 22.1162L14.11 22.5153L13.8217 22.9145L14.4204 23.7127L15.8839 21.7171L14.3982 19.8323L13.8217 20.564L14.11 20.941L13.8217 21.3401L11.7595 18.5905L12.0478 18.1914L12.6465 18.9897L12.9347 18.5905L12.0478 17.4153L12.3582 17.0162L10.8947 15.0649V14.2666L12.9347 17.0162L12.6465 17.4153L13.5334 18.5905L12.9347 19.3666L13.5334 20.1649L14.4204 18.9897L16.4826 21.7836L14.4204 24.4667L13.5334 23.2914L12.9347 24.0675L13.5334 24.8436L12.6465 26.041L12.9347 26.418L10.8947 29.1675L10.8726 29.1897Z" fill="#FAAE29"/>
<path fill-rule="evenodd" clip-rule="evenodd" d="M10.8726 19.3662L11.183 20.1645V21.3397H12.07L12.6465 21.7388L12.07 22.1158H11.183V23.3132L10.8947 24.0893V19.3662H10.8726Z" fill="#FAAE29"/>
<path fill-rule="evenodd" clip-rule="evenodd" d="M10.8726 48.0615V47.2632L12.3582 45.3119L12.0478 44.9128L12.9347 43.7376L12.6465 43.3163L12.0478 44.0924L11.7595 43.7597L13.8217 41.0102L14.11 41.3871L13.8217 41.7863L14.4204 42.5845L15.8839 40.611L14.3982 38.7041L13.8217 39.4358L14.11 39.8349L13.8217 40.2119L11.7595 37.4623L12.0478 37.0854L12.6465 37.8615L12.9347 37.4623L12.0478 36.2871L12.3582 35.9101L10.8947 33.9145V33.1162L12.9347 35.8658L12.6465 36.2649L13.5334 37.4401L12.9347 38.2384L13.5334 39.0145L14.4204 37.8393L16.4826 40.6332L14.4204 43.3384L13.5334 42.1632L12.9347 42.9393L13.5334 43.7597L12.6465 44.935L12.9347 45.3341L10.8947 48.0837L10.8726 48.0615Z" fill="#FAAE29"/>
<path fill-rule="evenodd" clip-rule="evenodd" d="M10.8726 38.2158L11.183 39.0141V40.1893H12.07L12.6465 40.5884L12.07 40.9876H11.183V42.1628L10.8947 42.9389V38.238L10.8726 38.2158Z" fill="#FAAE29"/>
<path fill-rule="evenodd" clip-rule="evenodd" d="M10.8726 66.908V66.1319L12.3582 64.1584L12.0478 63.7593L12.9347 62.584L12.6465 62.2071L12.0478 62.9832L11.7595 62.584L13.8217 59.8345L14.11 60.2336L13.8217 60.6327L14.4204 61.4088L15.8839 59.4353L14.3982 57.5284L13.8217 58.2601L14.11 58.6592L13.8217 59.0584L11.7595 56.3088L12.0478 55.9097L12.6465 56.6858L12.9347 56.3088L12.0478 55.1336L12.3582 54.7344L10.8947 52.761V51.9849L12.9347 54.7344L12.6465 55.1336L13.5334 56.3088L12.9347 57.0849L13.5334 57.8832L14.4204 56.7079L16.4826 59.5019L14.4204 62.2071L13.5334 61.0097L12.9347 61.808L13.5334 62.584L12.6465 63.7593L12.9347 64.1584L10.8947 66.908H10.8726Z" fill="#FAAE29"/>
<path fill-rule="evenodd" clip-rule="evenodd" d="M10.8726 57.0847L11.183 57.8829V59.0582H12.07L12.6465 59.4573L12.07 59.8343H11.183V61.0095L10.8947 61.8077V57.0625L10.8726 57.0847Z" fill="#FAAE29"/>
<path fill-rule="evenodd" clip-rule="evenodd" d="M10.8716 84.5816V83.8055L12.3572 81.832L12.0468 81.4551L12.9338 80.2577L12.6455 79.9029L12.0468 80.679L11.7585 80.2799L13.8207 77.5303L14.109 77.9294L13.8207 78.3285L14.4194 79.1268L15.8829 77.1311L14.3973 75.2463L13.8207 75.9781L14.109 76.355L13.8207 76.7542L11.7585 74.0046L12.0468 73.6055L12.6455 74.4037L12.9338 74.0046L12.0468 72.8294L12.3572 72.4302L10.8938 70.4789V69.6807L12.9338 72.4302L12.6455 72.8072L13.5325 73.9824L12.9338 74.7585L13.5325 75.5568L14.4194 74.3816L16.4816 77.1755L14.4194 79.8807L13.5325 78.7055L12.9338 79.4816L13.5325 80.2577L12.6455 81.4551L12.9338 81.832L10.8938 84.5816H10.8716Z" fill="#FAAE29"/>
<path fill-rule="evenodd" clip-rule="evenodd" d="M10.8716 74.758L11.182 75.5563V76.7315H12.069L12.6455 77.1306L12.069 77.5076H11.182V78.705L10.8716 79.4589V74.7358V74.758Z" fill="#FAAE29"/>
<path fill-rule="evenodd" clip-rule="evenodd" d="M46.2461 29.1897V28.4136L44.7826 26.4401L45.0708 26.0632L44.1839 24.8658L44.4943 24.4888L45.093 25.2649L45.3813 24.8658L43.3191 22.1162L43.0086 22.5153L43.3191 22.9145L42.6982 23.7127L41.2569 21.7171L42.7204 19.8323L43.3191 20.564L43.0086 20.941L43.3191 21.3401L45.3813 18.5905L45.0708 18.1914L44.4943 18.9897L44.206 18.5905L45.093 17.4153L44.7826 17.0162L46.2461 15.0427V14.2666L44.206 17.0162L44.4943 17.4153L43.6073 18.5905L44.206 19.3666L43.6073 20.1649L42.7204 18.9897L40.6582 21.7836L42.7204 24.4888L43.6073 23.3136L44.206 24.0897L43.6073 24.8658L44.4943 26.0632L44.206 26.4401L46.2461 29.1897V29.1897Z" fill="#FAAE29"/>
<path fill-rule="evenodd" clip-rule="evenodd" d="M46.2451 19.3662L45.9569 20.1645V21.3397H45.0699L44.4712 21.7388L45.0699 22.1158H45.9569V23.3132L46.2451 24.0893V19.3662Z" fill="#FAAE29"/>
<path fill-rule="evenodd" clip-rule="evenodd" d="M46.3542 48.0613V47.263L44.8685 45.3117L45.1789 44.9126L44.292 43.7374L44.5802 43.3382L45.1789 44.1365L45.4672 43.7374L43.405 40.9878L43.1168 41.3647L43.405 41.7639L42.8063 42.5621L41.3428 40.5887L42.8285 38.6817L43.405 39.4134L43.1168 39.8126L43.405 40.1895L45.4672 37.4399L45.1789 37.063L44.5802 37.8391L44.292 37.4399L45.1789 36.2647L44.8907 35.8878L46.332 33.8921V33.1382L44.292 35.8878L44.5802 36.2647L43.6933 37.4399L44.292 38.2382L43.6933 39.0143L42.8063 37.8391L40.7441 40.633L42.8285 43.3382L43.7155 42.163L44.292 42.9391L43.6933 43.7374L44.5802 44.9126L44.292 45.3117L46.3542 48.0613V48.0613Z" fill="#FAAE29"/>
<path fill-rule="evenodd" clip-rule="evenodd" d="M46.3555 38.2168L46.045 39.0151V40.1903H45.1581L44.5815 40.5894L45.1581 40.9885H46.045V42.1638L46.3333 42.9399V38.239L46.3555 38.2168Z" fill="#FAAE29"/>
<path fill-rule="evenodd" clip-rule="evenodd" d="M46.2424 66.908V66.1319L44.8011 64.1584L45.0894 63.7593L44.2024 62.584L44.5129 62.2071L45.1116 62.9832L45.3998 62.584L43.3376 59.8345L43.0272 60.2336L43.3376 60.6327L42.7168 61.4088L41.2755 59.4353L42.7389 57.5284L43.3376 58.2601L43.0272 58.6592L43.3376 59.0584L45.3998 56.3088L45.0894 55.9097L44.5129 56.6858L44.2246 56.3088L45.1116 55.1336L44.8011 54.7344L46.2646 52.761V51.9849L44.2246 54.7344L44.5129 55.1336L43.6259 56.3088L44.2246 57.0849L43.6259 57.8832L42.7389 56.7079L40.6768 59.5019L42.7389 62.2071L43.6259 61.0097L44.2246 61.808L43.6259 62.584L44.5129 63.7593L44.2246 64.1584L46.2646 66.908H46.2424Z" fill="#FAAE29"/>
<path fill-rule="evenodd" clip-rule="evenodd" d="M46.2427 57.0847L45.9544 57.8829V59.0582H45.0674L44.4688 59.4573L45.0674 59.8343H45.9544V61.0095L46.2427 61.8077V57.0625V57.0847Z" fill="#FAAE29"/>
<path fill-rule="evenodd" clip-rule="evenodd" d="M46.2461 84.5843V83.8082L44.7826 81.8347L45.0708 81.4577L44.1839 80.2603L44.4943 79.8834L45.093 80.6594L45.3813 80.2603L43.3191 77.5107L43.0086 77.9099L43.3191 78.309L42.6982 79.1073L41.2569 77.1116L42.7204 75.2268L43.3191 75.9586L43.0086 76.3355L43.3191 76.7347L45.3813 73.9851L45.0708 73.5859L44.4943 74.3842L44.206 73.9851L45.093 72.8098L44.7826 72.4107L46.2461 70.4594V69.6611L44.206 72.4107L44.4943 72.8098L43.6073 73.9851L44.206 74.7612L43.6073 75.5594L42.7204 74.3842L40.6582 77.1781L42.7204 79.8834L43.6073 78.7081L44.206 79.4842L43.6073 80.2603L44.4943 81.4577L44.206 81.8347L46.2461 84.5843V84.5843Z" fill="#FAAE29"/>
<path fill-rule="evenodd" clip-rule="evenodd" d="M46.2451 74.7622L45.9569 75.5605V76.7357H45.0699L44.4712 77.1348L45.0699 77.5118H45.9569V78.7092L46.2451 79.4853V74.7622Z" fill="#FAAE29"/>
<path fill-rule="evenodd" clip-rule="evenodd" d="M10.876 7.99356V7.17312L12.3616 5.2218L12.0512 4.82267L12.9382 3.64745L12.6499 3.24832L12.0512 4.02441L11.7629 3.64745L13.8251 0.897869L14.1134 1.27483L13.8251 1.67396L14.4238 2.51657L15.8873 0.520911H16.486L14.4238 3.27049L13.5369 2.09527L12.9382 2.87136L13.5369 3.66962L12.6499 4.84485L12.9382 5.24398L10.8982 7.99356H10.876ZM10.876 0.520911H12.6499L12.0734 0.920043H11.1864V2.07309L10.8982 2.84918V0.520911H10.876ZM46.2435 7.99356V7.17312L44.7801 5.2218L45.0683 4.82267L44.1814 3.64745L44.4918 3.24832L45.0683 4.02441L45.3788 3.64745L43.3166 0.897869L43.0061 1.27483L43.3166 1.67396L42.6957 2.47222L41.2544 0.476562H40.6557L42.7179 3.24832L43.6048 2.07309L44.2035 2.84918L43.6048 3.64745L44.4918 4.82267L44.2035 5.2218L46.2435 7.97138V7.99356ZM46.2435 0.520911H44.4696L45.0683 0.920043H45.9553V2.07309L46.2435 2.84918V0.520911ZM25.6217 108.952C25.6217 108.952 26.8856 106.734 30.1009 106.047C33.2939 105.382 33.8483 107.533 35.6665 107.533C37.4848 107.533 40.3896 106.047 40.3896 106.047C40.3896 106.047 37.507 108.885 35.2674 108.819C33.05 108.752 32.2739 107.333 29.99 107.533C27.7061 107.755 25.6217 109.018 25.6217 108.952V108.952Z" fill="#FAAE29"/>
<path fill-rule="evenodd" clip-rule="evenodd" d="M31.7855 108.951C31.7855 108.951 30.5216 106.734 27.3285 106.047C24.1354 105.381 23.5589 107.532 21.7406 107.532C19.9224 107.532 17.0176 106.047 17.0176 106.047C17.0176 106.047 19.9224 108.885 22.162 108.818C24.3794 108.752 25.1554 107.333 27.4394 107.532C29.7233 107.754 31.7855 109.018 31.7855 108.951V108.951Z" fill="#FAAE29"/>
<path fill-rule="evenodd" clip-rule="evenodd" d="M21.3461 105.269C21.0578 104.67 20.3704 102.098 20.7252 101.787C21.3017 101.566 22.7874 104.204 22.6543 106.555C21.6787 107.087 18.3526 106.333 18.3969 105.646C18.6187 104.67 20.5035 104.981 21.3461 105.269Z" fill="#FAAE29"/>
<path fill-rule="evenodd" clip-rule="evenodd" d="M19.3272 103.029C19.1499 102.363 18.8616 99.6583 19.2829 99.4365C19.8594 99.3922 20.9238 102.363 20.4138 104.625C19.3716 104.891 16.2229 103.25 16.3781 102.563C16.7551 101.676 18.5512 102.519 19.3272 103.007V103.029Z" fill="#FAAE29"/>
<path fill-rule="evenodd" clip-rule="evenodd" d="M17.7078 100.523C17.5748 99.8357 17.5304 97.0862 17.9518 96.9531C18.5505 96.9753 19.3265 100.102 18.617 102.275C17.5748 102.364 14.6035 100.235 14.803 99.614C15.2465 98.7714 16.9539 99.8801 17.6857 100.501L17.7078 100.523Z" fill="#FAAE29"/>
<path fill-rule="evenodd" clip-rule="evenodd" d="M16.4211 97.8185C16.3545 97.1311 16.6428 94.4259 17.0863 94.3594C17.6628 94.5146 18.0619 97.7742 17.1306 99.7698C16.0663 99.6368 13.361 96.9094 13.6493 96.3329C14.2036 95.6233 15.7558 97.0646 16.3989 97.8185H16.4211Z" fill="#FAAE29"/>
<path fill-rule="evenodd" clip-rule="evenodd" d="M15.5121 95.0248C15.5342 94.3152 16.1108 91.6987 16.5543 91.7208C17.0864 91.9869 17.153 95.2909 15.9999 97.087C14.9799 96.7543 12.6073 93.5391 12.9399 93.0069C13.5608 92.4082 14.9356 94.1378 15.5121 95.0026V95.0248Z" fill="#FAAE29"/>
<path fill-rule="evenodd" clip-rule="evenodd" d="M15.7575 91.8314C15.691 94.6253 15.181 94.6475 14.2497 92.5853C13.8505 91.8092 13.8062 88.594 14.161 88.4609C14.6932 88.4609 15.7353 90.7449 15.7575 91.8314V91.8314Z" fill="#FAAE29"/>
<path fill-rule="evenodd" clip-rule="evenodd" d="M35.9296 105.557C36.1957 104.98 36.9053 102.386 36.5283 102.076C35.9518 101.854 34.4662 104.493 34.5992 106.843C35.597 107.375 38.9231 106.621 38.8788 105.934C38.6349 104.98 36.7501 105.291 35.9075 105.557H35.9296Z" fill="#FAAE29"/>
<path fill-rule="evenodd" clip-rule="evenodd" d="M37.9254 103.318C38.1028 102.653 38.3911 99.9478 37.992 99.7261C37.3933 99.6817 36.3289 102.675 36.8389 104.937C37.8811 105.181 41.052 103.54 40.8746 102.875C40.4976 101.988 38.7015 102.808 37.9254 103.318Z" fill="#FAAE29"/>
<path fill-rule="evenodd" clip-rule="evenodd" d="M39.5647 100.79C39.6755 100.124 39.7421 97.3747 39.2986 97.2417C38.7221 97.286 37.9238 100.413 38.6334 102.563C39.6977 102.674 42.669 100.523 42.4473 99.9026C42.0038 99.0821 40.2964 100.191 39.5647 100.79Z" fill="#FAAE29"/>
<path fill-rule="evenodd" clip-rule="evenodd" d="M40.8526 98.1286C40.8969 97.419 40.6308 94.7138 40.1873 94.6694C39.6108 94.8247 39.1895 98.0621 40.143 100.08C41.1852 99.9468 43.8904 97.1973 43.6021 96.6207C43.0478 95.9112 41.5178 97.3525 40.8526 98.1286V98.1286Z" fill="#FAAE29"/>
<path fill-rule="evenodd" clip-rule="evenodd" d="M41.7393 95.3138C41.7172 94.6264 41.1628 91.9877 40.7193 92.0099C40.165 92.276 40.0985 95.5799 41.2515 97.376C42.2937 97.0434 44.6441 93.8282 44.3115 93.3182C43.6907 92.7195 42.3159 94.4269 41.7393 95.3138V95.3138Z" fill="#FAAE29"/>
<path fill-rule="evenodd" clip-rule="evenodd" d="M41.4956 92.1195C41.5843 94.9134 42.0943 94.9578 43.0034 92.8734C43.4247 92.0973 43.4691 88.8821 43.0921 88.749C42.56 88.749 41.5178 91.0551 41.4956 92.1195V92.1195Z" fill="#FAAE29"/>
<path fill-rule="evenodd" clip-rule="evenodd" d="M40.7512 71.189H38.9927V72.3686H37.2982V73.5483H30.52L29.369 74.7616L29.9445 75.3683H32.79L33.3336 74.7616H30.52L31.0635 74.1549H35.0281L33.3336 75.9413H29.401L28.2819 75.3683L27.1309 75.9413H23.1663L21.4718 74.1549H25.4364L26.0119 74.7616H23.1663L23.7418 75.3683H26.5874L27.1309 74.7616L26.0119 73.5483H19.7773V72.3686H18.0827V71.189H16.3882V65.7963H18.0827V64.6166H19.7773V63.4033H26.0119L27.1309 62.2236L26.5874 61.6169H23.7418L23.1663 62.2236H26.0119L25.4364 62.7966H21.4718L23.1663 61.0103H27.1629L28.3139 61.6169L29.4329 61.0103H33.3975L35.0921 62.7966H31.1275L30.5839 62.2236H33.3975L32.822 61.6169H30.0084L29.401 62.2236L30.552 63.4033H37.3301V64.6166H39.0247V65.7963H40.7512V71.189V71.189Z" fill="#CA3745"/>
<path fill-rule="evenodd" clip-rule="evenodd" d="M23.1596 60.9941H27.1673L28.3141 61.5986L29.4291 60.9941H33.4049L35.1306 62.8133H31.1207L30.5461 62.2075H33.3596L32.8153 61.6337H30.0155L29.4243 62.2241L30.5592 63.3872H37.3469V64.6005H39.0414V65.7802H40.7679V71.1893H40.7515V71.2057H39.0094V72.3853H37.3149V73.565H30.5274L29.3919 74.7619L29.9519 75.3522H32.783L33.2971 74.7783H30.4836L31.0565 74.1388H35.0666L33.3409 75.958H29.3973L28.2821 75.387L27.1351 75.958H23.1596L21.4339 74.1388H25.4437L26.0504 74.7783H23.2048L23.7492 75.3522H26.5804L27.109 74.7621L26.005 73.565H19.7611V72.3853H18.0666V71.2057H16.3721V65.7802H18.0666V64.6005H19.7611V63.3872H26.0051L27.1089 62.2236L26.5804 61.6337H23.7492L23.2048 62.2075H26.0519L25.4435 62.8133H21.4339L23.1596 60.9941ZM40.7351 71.1729V65.813H39.0086V64.6333H37.314V63.42H30.5454L29.3782 62.2238L30.002 61.6008H32.8294L33.436 62.2403H30.6224L31.1348 62.7805H35.0542L33.3908 61.027H29.4374L28.3143 61.6358L27.1591 61.027H23.1737L21.5103 62.7805H25.4299L25.9724 62.2403H23.1284L23.7351 61.6008H26.595L27.1535 62.2242L26.0192 63.42H19.794V64.6333H18.0994V65.813H16.4049V71.1729H18.0994V72.3525H19.794V73.5322H26.0194L27.1534 74.7618L26.595 75.385H23.7351L23.1284 74.7455H25.974L25.4296 74.1717H21.5103L23.1737 75.9252H27.1274L28.2823 75.3502L29.4052 75.9252H33.3268L34.9902 74.1717H31.0712L30.557 74.7455H33.3706L32.7977 75.385H29.9377L29.3467 74.7619L30.5133 73.5322H37.2821V72.3525H38.9766V71.1729H40.7351Z" fill="black"/>
<path fill-rule="evenodd" clip-rule="evenodd" d="M16.9565 66.4242V70.6036H18.6511V71.7832H20.3456V72.9629H26.0206L28.2906 74.766L30.5446 72.9797H36.7792V71.8001L38.4737 71.7832V70.6036H40.2002V66.4074H38.4897V65.2277H36.7952V64.0144H30.5606L28.3066 62.228L26.0366 64.0144H20.3616V65.2277H18.667V66.4074H16.9725L16.9565 66.4242Z" fill="#00843D"/>
<path fill-rule="evenodd" clip-rule="evenodd" d="M28.3064 62.0889L30.5983 63.9052H36.9042V65.1186H38.5987V66.2982H40.3092V70.7132H38.5827V71.8918L36.8882 71.9087V73.0894H30.5823L28.2901 74.906L25.982 73.0726H20.2357V71.8929H18.5412V70.7132H16.8467V66.3808L16.9251 66.2982H18.5572V65.1186H20.2517V63.9052H25.9983L28.3064 62.0889ZM28.3059 62.3677L26.074 64.124H20.4705V65.3374H18.776V66.5171H17.0655V70.4944H18.76V71.6741H20.4546V72.8537H26.0583L28.2903 74.6266L30.5061 72.8706H36.6693V71.692L38.3639 71.6751V70.4944H40.0903V66.5171H38.3798V65.3374H36.6853V64.124H30.5221L28.3059 62.3677Z" fill="#FAAE29"/>
<path fill-rule="evenodd" clip-rule="evenodd" d="M24.8794 64.5996L21.4854 67.5895V64.5996H24.8794ZM31.6674 64.5996L35.0829 67.5895V64.5996H31.6674V64.5996ZM24.8794 72.3734L21.4854 69.3835V72.3734H24.8794ZM31.6674 72.3734L35.0829 69.3835V72.3734H31.6674V72.3734ZM32.8059 66.3936L31.6674 67.5895H33.9444L32.8059 66.3936V66.3936ZM23.7409 66.3936L22.6238 67.5895H24.8794L23.7409 66.3936ZM23.7409 70.5794L22.6238 69.3835H24.8794L23.7409 70.5794ZM32.8059 70.5794L31.6674 69.3835H33.9444L32.8059 70.5794V70.5794Z" fill="#CA3745"/>
<path fill-rule="evenodd" clip-rule="evenodd" d="M28.2718 73.5695L27.1333 72.3735H29.4103L28.2718 73.5695V73.5695ZM28.2718 67.5897L27.1333 66.3937H29.4103L28.2718 67.5897V67.5897ZM28.2718 63.4038L27.1333 64.6269H29.4103L28.2718 63.4038V63.4038ZM28.2718 69.3836L27.1333 70.5796H29.4103L28.2718 69.3836V69.3836Z" fill="#FAAE29"/>
<path fill-rule="evenodd" clip-rule="evenodd" d="M31.6797 67.6045H33.9657V68.1943H31.6957L31.6797 67.6045Z" fill="#FAAE29"/>
<path fill-rule="evenodd" clip-rule="evenodd" d="M31.6709 67.5962H33.9735V68.2024H31.6873L31.6709 67.5962ZM31.6878 67.6126L31.7033 68.186H33.9571V67.6126H31.6878Z" fill="black"/>
<path fill-rule="evenodd" clip-rule="evenodd" d="M23.1904 68.1938H24.3095V68.8005H23.1904V68.1938ZM32.2545 68.1938H33.3735V68.8005H32.2545V68.1938Z" fill="#CC0000"/>
<path fill-rule="evenodd" clip-rule="evenodd" d="M23.1826 68.1855H24.3181V68.8086H23.1826V68.1855ZM23.199 68.202V68.7922H24.3016V68.202H23.199ZM32.2467 68.1855H33.3821V68.8086H32.2467V68.1855ZM32.2631 68.202V68.7922H33.3657V68.202H32.2631Z" fill="black"/>
<path fill-rule="evenodd" clip-rule="evenodd" d="M27.1543 64.6211H29.4083V65.2109H27.1543V64.6211ZM27.1543 65.8007H29.4083V66.4074H27.1543V65.8007Z" fill="#990000"/>
<path fill-rule="evenodd" clip-rule="evenodd" d="M27.1465 64.6123H29.4169V65.2185H27.1465V64.6123ZM27.1629 64.6287V65.2021H29.4005V64.6287H27.1629ZM27.1465 65.792H29.4169V66.415H27.1465V65.792ZM27.1629 65.8084V66.3986H29.4005V65.8084H27.1629Z" fill="black"/>
<path fill-rule="evenodd" clip-rule="evenodd" d="M26.5791 65.2114H29.9841V65.8181H26.5791V65.2114ZM27.1546 70.6041H29.4086V71.1771H27.1546V70.6041ZM27.1546 71.7838H29.4086V72.3736H27.1546V71.7838ZM26.5791 71.1939H29.9841V71.7838H26.5791V71.1939Z" fill="#990000"/>
<path fill-rule="evenodd" clip-rule="evenodd" d="M26.5713 65.2031H29.9927V65.8262H26.5713V65.2031ZM26.5877 65.2195V65.8098H29.9763V65.2195H26.5877ZM27.1468 70.5958H29.4172V71.1852H27.1468V70.5958ZM27.1632 70.6122V71.1688H29.4008V70.6122H27.1632ZM26.5713 71.1856H29.9927V71.7919H29.4172V72.3817H27.1468V71.7919H26.5713V71.1856ZM29.9763 71.7755V71.2021H26.5877V71.7755H29.9763ZM27.1632 71.7919V72.3653H29.4008V71.7919H27.1632Z" fill="black"/>
<path fill-rule="evenodd" clip-rule="evenodd" d="M31.6802 68.801H33.9662V69.3908H31.6962L31.6802 68.801ZM22.6162 67.6045H24.8862V68.1943H22.6162V67.6045ZM22.6162 68.7841H24.8862V69.3908H22.6162V68.7841ZM22.0566 68.1943H23.1757V68.801H22.0566V68.1943ZM24.3267 68.1943H25.4457V68.801H24.3267V68.1943ZM31.1207 68.1943H32.2397V68.801H31.1207V68.1943ZM33.3907 68.1943H34.5097V68.801H33.3907V68.1943Z" fill="#FAAE29"/>
<path fill-rule="evenodd" clip-rule="evenodd" d="M22.6079 67.5962H24.8943V68.186H25.4538V68.8091H24.8943V69.3989H22.6079V68.8091H22.0483V68.186H22.6079V67.5962ZM22.6243 68.186H24.8779V67.6126H22.6243V68.186ZM24.3184 68.2024H23.1838V68.7758H24.3184V68.2024ZM24.3184 68.7923H23.1838V68.8091H22.6243V69.3825H24.8779V68.8091H24.3184V68.7923ZM24.8943 68.7927V68.7758H24.3348V68.2024H25.4374V68.7927H24.8943ZM24.8779 68.7927H24.3348V68.7923H24.8779V68.7927ZM22.6243 68.7927H23.1674V68.7923H22.6243V68.7927ZM23.1674 68.7758V68.2024H22.0648V68.7927H22.6079V68.7758H23.1674ZM31.1124 68.186H32.2478V68.7927H33.3824V68.186H34.5179V68.8091H33.9743V69.3989H31.6881L31.6721 68.8091H31.1124V68.186ZM32.2314 68.7927V68.2024H31.1288V68.7927H32.2314ZM31.6886 68.8091L31.7041 69.3825H33.9579V68.8091H31.6886ZM34.5014 68.7927V68.2024H33.3988V68.7927H34.5014Z" fill="black"/>
<path d="M26.8931 71.6125C26.973 71.6125 27.0378 71.5443 27.0378 71.4601C27.0378 71.3759 26.973 71.3076 26.8931 71.3076C26.8133 71.3076 26.7485 71.3759 26.7485 71.4601C26.7485 71.5443 26.8133 71.6125 26.8931 71.6125Z" fill="white"/>
<path d="M28.2872 71.6125C28.3671 71.6125 28.4318 71.5443 28.4318 71.4601C28.4318 71.3759 28.3671 71.3076 28.2872 71.3076C28.2073 71.3076 28.1426 71.3759 28.1426 71.4601C28.1426 71.5443 28.2073 71.6125 28.2872 71.6125Z" fill="white"/>
<path d="M29.7052 71.6125C29.785 71.6125 29.8498 71.5443 29.8498 71.4601C29.8498 71.3759 29.785 71.3076 29.7052 71.3076C29.6253 71.3076 29.5605 71.3759 29.5605 71.4601C29.5605 71.5443 29.6253 71.6125 29.7052 71.6125Z" fill="white"/>
<path d="M27.4522 71.0422C27.5321 71.0422 27.5968 70.9739 27.5968 70.8898C27.5968 70.8056 27.5321 70.7373 27.4522 70.7373C27.3724 70.7373 27.3076 70.8056 27.3076 70.8898C27.3076 70.9739 27.3724 71.0422 27.4522 71.0422Z" fill="white"/>
<path d="M29.1275 71.0422C29.2074 71.0422 29.2721 70.9739 29.2721 70.8898C29.2721 70.8056 29.2074 70.7373 29.1275 70.7373C29.0477 70.7373 28.9829 70.8056 28.9829 70.8898C28.9829 70.9739 29.0477 71.0422 29.1275 71.0422Z" fill="white"/>
<path d="M27.4278 72.2111C27.5077 72.2111 27.5724 72.1429 27.5724 72.0587C27.5724 71.9745 27.5077 71.9062 27.4278 71.9062C27.348 71.9062 27.2832 71.9745 27.2832 72.0587C27.2832 72.1429 27.348 72.2111 27.4278 72.2111Z" fill="white"/>
<path d="M29.1275 72.2385C29.2074 72.2385 29.2721 72.1702 29.2721 72.086C29.2721 72.0019 29.2074 71.9336 29.1275 71.9336C29.0477 71.9336 28.9829 72.0019 28.9829 72.086C28.9829 72.1702 29.0477 72.2385 29.1275 72.2385Z" fill="white"/>
<path d="M31.3814 68.6233C31.4613 68.6233 31.526 68.555 31.526 68.4708C31.526 68.3866 31.4613 68.3184 31.3814 68.3184C31.3016 68.3184 31.2368 68.3866 31.2368 68.4708C31.2368 68.555 31.3016 68.6233 31.3814 68.6233Z" fill="white"/>
<path d="M32.7989 68.6233C32.8788 68.6233 32.9435 68.555 32.9435 68.4708C32.9435 68.3866 32.8788 68.3184 32.7989 68.3184C32.719 68.3184 32.6543 68.3866 32.6543 68.4708C32.6543 68.555 32.719 68.6233 32.7989 68.6233Z" fill="white"/>
<path d="M34.2174 68.6233C34.2972 68.6233 34.362 68.555 34.362 68.4708C34.362 68.3866 34.2972 68.3184 34.2174 68.3184C34.1375 68.3184 34.0728 68.3866 34.0728 68.4708C34.0728 68.555 34.1375 68.6233 34.2174 68.6233Z" fill="white"/>
<path d="M31.9615 68.0256C32.0414 68.0256 32.1061 67.9573 32.1061 67.8732C32.1061 67.789 32.0414 67.7207 31.9615 67.7207C31.8816 67.7207 31.8169 67.789 31.8169 67.8732C31.8169 67.9573 31.8816 68.0256 31.9615 68.0256Z" fill="white"/>
<path d="M33.6373 68.0256C33.7172 68.0256 33.7819 67.9573 33.7819 67.8732C33.7819 67.789 33.7172 67.7207 33.6373 67.7207C33.5574 67.7207 33.4927 67.789 33.4927 67.8732C33.4927 67.9573 33.5574 68.0256 33.6373 68.0256Z" fill="white"/>
<path d="M31.9395 69.1941C32.0194 69.1941 32.0841 69.1258 32.0841 69.0416C32.0841 68.9574 32.0194 68.8892 31.9395 68.8892C31.8597 68.8892 31.7949 68.9574 31.7949 69.0416C31.7949 69.1258 31.8597 69.1941 31.9395 69.1941Z" fill="white"/>
<path d="M33.6373 69.2214C33.7172 69.2214 33.7819 69.1531 33.7819 69.069C33.7819 68.9848 33.7172 68.9165 33.6373 68.9165C33.5574 68.9165 33.4927 68.9848 33.4927 69.069C33.4927 69.1531 33.5574 69.2214 33.6373 69.2214Z" fill="white"/>
<path d="M26.8722 65.6604C26.952 65.6604 27.0168 65.5921 27.0168 65.5079C27.0168 65.4237 26.952 65.3555 26.8722 65.3555C26.7923 65.3555 26.7275 65.4237 26.7275 65.5079C26.7275 65.5921 26.7923 65.6604 26.8722 65.6604Z" fill="white"/>
<path d="M28.2872 65.6604C28.3671 65.6604 28.4318 65.5921 28.4318 65.5079C28.4318 65.4237 28.3671 65.3555 28.2872 65.3555C28.2073 65.3555 28.1426 65.4237 28.1426 65.5079C28.1426 65.5921 28.2073 65.6604 28.2872 65.6604Z" fill="white"/>
<path d="M29.7052 65.6335C29.785 65.6335 29.8498 65.5653 29.8498 65.4811C29.8498 65.3969 29.785 65.3286 29.7052 65.3286C29.6253 65.3286 29.5605 65.3969 29.5605 65.4811C29.5605 65.5653 29.6253 65.6335 29.7052 65.6335Z" fill="white"/>
<path d="M27.4278 65.0632C27.5077 65.0632 27.5724 64.9949 27.5724 64.9108C27.5724 64.8266 27.5077 64.7583 27.4278 64.7583C27.348 64.7583 27.2832 64.8266 27.2832 64.9108C27.2832 64.9949 27.348 65.0632 27.4278 65.0632Z" fill="white"/>
<path d="M29.1275 65.0632C29.2074 65.0632 29.2721 64.9949 29.2721 64.9108C29.2721 64.8266 29.2074 64.7583 29.1275 64.7583C29.0477 64.7583 28.9829 64.8266 28.9829 64.9108C28.9829 64.9949 29.0477 65.0632 29.1275 65.0632Z" fill="white"/>
<path d="M27.4278 66.2312C27.5077 66.2312 27.5724 66.1629 27.5724 66.0787C27.5724 65.9945 27.5077 65.9263 27.4278 65.9263C27.348 65.9263 27.2832 65.9945 27.2832 66.0787C27.2832 66.1629 27.348 66.2312 27.4278 66.2312Z" fill="white"/>
<path d="M29.1275 66.2585C29.2074 66.2585 29.2721 66.1903 29.2721 66.1061C29.2721 66.0219 29.2074 65.9536 29.1275 65.9536C29.0477 65.9536 28.9829 66.0219 28.9829 66.1061C28.9829 66.1903 29.0477 66.2585 29.1275 66.2585Z" fill="white"/>
<path d="M22.3389 68.6775C22.4188 68.6775 22.4836 68.6092 22.4836 68.525C22.4836 68.4408 22.4188 68.3726 22.3389 68.3726C22.2591 68.3726 22.1943 68.4408 22.1943 68.525C22.1943 68.6092 22.2591 68.6775 22.3389 68.6775Z" fill="white"/>
<path d="M23.7569 68.6775C23.8368 68.6775 23.9015 68.6092 23.9015 68.525C23.9015 68.4408 23.8368 68.3726 23.7569 68.3726C23.6771 68.3726 23.6123 68.4408 23.6123 68.525C23.6123 68.6092 23.6771 68.6775 23.7569 68.6775Z" fill="white"/>
<path d="M25.1749 68.6506C25.2548 68.6506 25.3195 68.5823 25.3195 68.4982C25.3195 68.414 25.2548 68.3457 25.1749 68.3457C25.095 68.3457 25.0303 68.414 25.0303 68.4982C25.0303 68.5823 25.095 68.6506 25.1749 68.6506Z" fill="white"/>
<path d="M22.919 68.0793C22.9989 68.0793 23.0636 68.0111 23.0636 67.9269C23.0636 67.8427 22.9989 67.7744 22.919 67.7744C22.8392 67.7744 22.7744 67.8427 22.7744 67.9269C22.7744 68.0111 22.8392 68.0793 22.919 68.0793Z" fill="white"/>
<path d="M24.5948 68.0793C24.6747 68.0793 24.7394 68.0111 24.7394 67.9269C24.7394 67.8427 24.6747 67.7744 24.5948 67.7744C24.5149 67.7744 24.4502 67.8427 24.4502 67.9269C24.4502 68.0111 24.5149 68.0793 24.5948 68.0793Z" fill="white"/>
<path d="M22.898 69.2487C22.9779 69.2487 23.0426 69.1805 23.0426 69.0963C23.0426 69.0121 22.9779 68.9438 22.898 68.9438C22.8182 68.9438 22.7534 69.0121 22.7534 69.0963C22.7534 69.1805 22.8182 69.2487 22.898 69.2487Z" fill="white"/>
<path d="M24.5948 69.2761C24.6747 69.2761 24.7394 69.2078 24.7394 69.1236C24.7394 69.0394 24.6747 68.9712 24.5948 68.9712C24.5149 68.9712 24.4502 69.0394 24.4502 69.1236C24.4502 69.2078 24.5149 69.2761 24.5948 69.2761Z" fill="white"/>
<path fill-rule="evenodd" clip-rule="evenodd" d="M30.5204 55.4675L31.4961 55.024L32.4718 55.4675H30.5204ZM27.5935 55.4675L28.5691 55.024L29.5448 55.4675H27.5935ZM24.6665 55.4675L25.6422 55.024L26.6178 55.4675H24.6665V55.4675ZM30.5204 44.957L31.4961 45.4227L32.4718 44.9792H30.5204V44.957ZM27.5935 44.957L28.5691 45.4227L29.5448 44.9792H27.5935V44.957ZM24.6665 44.957L25.6422 45.4227L26.6178 44.9792H24.6665V44.957Z" fill="white"/>
<path fill-rule="evenodd" clip-rule="evenodd" d="M29.7236 56.8428L28.5705 57.7519L27.4396 56.8428L26.2866 57.7519L25.1779 56.8428V57.2863L25.9096 57.7519L25.5327 58.1954V58.6611H25.9096L26.2866 58.2176L26.6635 58.6611H27.0405V58.2176L26.6635 57.7519L27.4396 57.3084L28.1936 57.7519L27.8166 58.1954V58.6611H28.1936L28.5705 58.2176L28.9475 58.6611H29.3244V58.2176L28.9475 57.7519L29.7014 57.3084L30.4553 57.7519L30.0783 58.1954V58.6611H30.4553L30.8323 58.2176L31.2092 58.6611H31.5862V58.2176L31.2092 57.7519L31.9853 57.3084V56.8428L30.8323 57.7297L29.7236 56.8206V56.8428ZM29.7236 43.6049L28.5705 42.6736L27.4396 43.6049L26.2866 42.6736L25.1779 43.6049V43.1392L25.9096 42.6958L25.5327 42.2301V41.7866H25.9096L26.2866 42.2301L26.6635 41.7866H27.0627V42.2301L26.6857 42.6736L27.4396 43.1392L28.1936 42.6958L27.8166 42.2301V41.7866H28.1936L28.5705 42.2301L28.9475 41.7866H29.3244V42.2301L28.9475 42.6736L29.7014 43.1392L30.4553 42.6958L30.0783 42.2301V41.7866H30.4553L30.8323 42.2301L31.2092 41.7866H31.6084V42.2301L31.2314 42.6736L31.9853 43.1392V43.5827L30.8323 42.6958L29.7236 43.5827V43.6049ZM38.3049 51.2106L39.5245 50.2128L38.3049 49.2371L39.5245 48.2393L38.3049 47.2414H38.9258L39.5245 47.9066L40.1454 47.574H40.744V47.9066L40.1454 48.2393L40.744 48.5719V48.9045H40.1454L39.5245 48.5719L38.9258 49.2371L39.5245 49.9023L40.1454 49.5475H40.744V49.8801L40.1454 50.2128L40.744 50.5454V50.878H40.1454L39.5245 50.5454L38.9258 51.2106L39.5245 51.8758L40.1454 51.5432H40.744V51.8758L40.1454 52.1862L40.744 52.5188V52.8515H40.1454L39.5245 52.5188L38.9258 53.1841H38.3049L39.5245 52.1862L38.3049 51.2106V51.2106ZM18.8139 51.2106L17.5944 50.2128L18.8139 49.2371L17.5944 48.2393L18.8139 47.2414H18.2152L17.5944 47.9066L16.9957 47.574H16.397V47.9066L16.9957 48.2393L16.397 48.5719V48.9045H16.9957L17.6165 48.5719L18.2152 49.2371L17.5944 49.9023L16.9957 49.5475H16.397V49.8801L16.9957 50.2128L16.397 50.5454V50.878H16.9957L17.6165 50.5454L18.2152 51.2106L17.5944 51.8758L16.9957 51.5432H16.397V51.8758L16.9957 52.1862L16.397 52.5188V52.8515H16.9957L17.6165 52.5188L18.2152 53.1841H18.8139L17.5944 52.1862L18.8139 51.2106Z" fill="#00843D"/>
<path fill-rule="evenodd" clip-rule="evenodd" d="M38.796 54.5531H39.291V54.9912H38.796V54.5531ZM38.3011 54.9912H38.796V55.4551H38.3286L38.3011 54.9912ZM35.8815 57.2848H36.3764V57.7487H35.8815V57.2848ZM36.3764 56.8209H36.8438V57.2848H36.3764V56.8209ZM20.2914 56.8209H20.7863V57.2848H20.2639L20.2914 56.8209ZM17.8442 54.5531H18.3392V54.9912H17.8442V54.5531ZM18.3392 54.9912H18.8341V55.4551H18.3392V54.9912ZM18.3392 44.9407H18.8341V45.4045H18.3392V44.9407ZM17.8442 45.4045H18.3392V45.8684H17.8442V45.4045ZM20.7863 42.6729H21.2537V43.1367H20.8138L20.7863 42.6729ZM20.2914 43.1367H20.7863V43.6006H20.2639L20.2914 43.1367ZM35.8815 42.6729H36.3764V43.1367H35.8815V42.6729ZM36.3764 43.1367H36.8438V43.6006H36.3764V43.1367ZM38.3011 44.9407H38.796V45.4045H38.3286L38.3011 44.9407ZM38.796 45.4303H39.291V45.8684H38.796V45.4303ZM20.8138 57.2848H21.2812V57.7487H20.8138V57.2848Z" fill="#00843D"/>
<path fill-rule="evenodd" clip-rule="evenodd" d="M20.7448 42.6333H21.2945V43.177H20.8271V43.6409H20.2224L20.2546 43.0972H20.7723L20.7448 42.6333ZM20.8523 43.0972H21.2147V42.7132H20.8295L20.8523 43.0972ZM20.7472 43.177H20.3299L20.3071 43.561H20.7472V43.177ZM35.8424 42.6333H36.4172V43.0972H36.8846V43.6409H36.3373V43.177H35.8424V42.6333ZM36.4172 43.177V43.561H36.8048V43.177H36.4172ZM36.3373 43.0972V42.7132H35.9223V43.0972H36.3373ZM18.3001 44.9011H18.8749V45.4448H18.38V45.9087H17.8052V45.365H18.3001V44.9011ZM18.3001 45.4448H17.885V45.8289H18.3001V45.4448ZM18.38 45.365H18.795V44.981H18.38V45.365ZM38.2596 44.9011H38.8368V45.3908H39.3318V45.9087H38.757V45.4448H38.2918L38.2596 44.9011ZM38.8368 45.4706V45.8289H39.2519V45.4706H38.8368ZM38.757 45.365V44.981H38.3443L38.3671 45.365H38.757ZM17.8052 54.5136H18.38V54.9517H18.8749V55.4954H18.3001V55.0315H17.8052V54.5136ZM18.38 55.0315V55.4155H18.795V55.0315H18.38ZM18.3001 54.9517V54.5934H17.885V54.9517H18.3001ZM38.757 54.5136H39.3318V55.0315H38.8368V55.4954H38.2918L38.2596 54.9517H38.757V54.5136ZM38.757 55.0315H38.3443L38.3671 55.4155H38.757V55.0315ZM38.8368 54.9517H39.2519V54.5934H38.8368V54.9517ZM20.2546 56.7814H20.8271V57.2453H21.322V57.789H20.7747V57.3251H20.2224L20.2546 56.7814ZM20.8546 57.3251V57.7091H21.2421V57.3251H20.8546ZM20.7472 57.2453V56.8612H20.3299L20.3071 57.2453H20.7472ZM36.3373 56.7814H36.8846V57.3251H36.4172V57.789H35.8424V57.2453H36.3373V56.7814ZM36.3373 57.3251H35.9223V57.7091H36.3373V57.3251ZM36.4172 57.2453H36.8048V56.8612H36.4172V57.2453Z" fill="black"/>
<path fill-rule="evenodd" clip-rule="evenodd" d="M27.0617 50.2127H25.6426V49.3257H26.5961V48.4831H27.5495V47.707H28.5252V48.6605C27.7269 48.6605 27.0839 49.3257 27.0839 50.2127H27.0617Z" fill="white"/>
<path fill-rule="evenodd" clip-rule="evenodd" d="M29.9445 50.2127H31.3858V49.3257H30.4324V48.4831H29.4789V47.707H28.5254V48.6605C29.3015 48.6605 29.9445 49.3257 29.9445 50.2127V50.2127Z" fill="#FAAE29"/>
<path fill-rule="evenodd" clip-rule="evenodd" d="M29.9445 50.2124H31.3858V51.0994H30.4324V51.9641H29.4789V52.7181H28.5254V51.7646C29.3015 51.7646 29.9445 51.0994 29.9445 50.2124V50.2124Z" fill="white"/>
<path fill-rule="evenodd" clip-rule="evenodd" d="M27.0617 50.2124H25.6426V51.0994H26.5961V51.9641H27.5495V52.7181H28.5252V51.7646C27.7269 51.7646 27.0839 51.0994 27.0839 50.2124H27.0617Z" fill="#FAAE29"/>
<path fill-rule="evenodd" clip-rule="evenodd" d="M29.9445 50.2123H28.5254V48.6602C29.3015 48.6602 29.9445 49.3697 29.9445 50.2123Z" fill="#00843D"/>
<path fill-rule="evenodd" clip-rule="evenodd" d="M29.9445 50.2124H28.5254V51.7646C29.3015 51.7646 29.9445 51.0772 29.9445 50.2124Z" fill="#CA3745"/>
<path fill-rule="evenodd" clip-rule="evenodd" d="M27.0615 50.2124H28.525V51.7646C27.7267 51.7646 27.0837 51.0772 27.0837 50.2124H27.0615Z" fill="#00843D"/>
<path fill-rule="evenodd" clip-rule="evenodd" d="M27.0615 50.2123H28.525V48.6602C27.7267 48.6602 27.0837 49.3697 27.0837 50.2123H27.0615Z" fill="#CA3745"/>
<path fill-rule="evenodd" clip-rule="evenodd" d="M30.0331 55.9111L28.5697 55.0242L27.1062 55.9111L25.6427 55.0242L24.1792 55.9111V55.4676L25.1549 55.0242L24.667 54.5585V54.115H25.1549L25.6427 54.5585L26.1305 54.115H26.6183V54.5585L26.1305 55.002L27.1062 55.4676L28.0818 55.0242L27.594 54.5585V54.115H28.0818L28.5697 54.5585L29.0575 54.115H29.5453V54.5585L29.0575 55.002L30.0331 55.4676L31.0088 55.0242L30.521 54.5585V54.115H31.0088L31.4966 54.5585L31.9845 54.115H32.4723V54.5585L31.9845 55.002L32.9601 55.4676V55.9111L31.4966 55.0242L30.0331 55.9111V55.9111ZM30.0331 44.5137L28.5697 45.4228L27.1062 44.5137L25.6427 45.4228L24.1792 44.5137V44.9572L25.1549 45.4228L24.667 45.8663V46.3319H25.1549L25.6427 45.8885L26.1305 46.3319H26.6183V45.8885L26.1305 45.445L27.1062 44.9572L28.0818 45.4228L27.594 45.8663V46.3319H28.0818L28.5697 45.8885L29.0575 46.3319H29.5453V45.8885L29.0575 45.445L30.0331 44.9572L31.0088 45.4228L30.521 45.8663V46.3319H31.0088L31.4966 45.8885L31.9845 46.3319H32.4723V45.8885L31.9845 45.445L32.9601 44.9572V44.5137L31.4966 45.4228L30.0331 44.5137V44.5137ZM35.3771 51.3654L34.6453 50.2124L35.3771 49.0815L34.6453 47.9285L35.3771 46.7976H35.0445L34.6675 47.5515L34.3127 47.1746H33.9358V47.5515L34.3127 47.9285L33.9358 48.3054V48.6824H34.3127L34.6675 48.3054L35.0445 49.0815L34.6675 49.8354L34.3127 49.4585H33.9358V49.8354L34.3127 50.2124L33.9358 50.5894V50.9885H34.3127L34.6675 50.5894L35.0445 51.3654L34.6675 52.1194L34.3127 51.7424H33.9358V52.1194L34.3127 52.4963L33.9358 52.8733V53.2724H34.3127L34.6675 52.8733L35.0445 53.6494H35.3993L34.6675 52.4963L35.3993 51.3654H35.3771Z" fill="#00843D"/>
<path fill-rule="evenodd" clip-rule="evenodd" d="M24.1698 44.9673L22.2451 46.7712V53.6262L24.1698 55.456H32.9684L34.8931 53.652V46.797L32.9409 44.9673H24.1698ZM23.6749 43.5757L18.8081 48.1629V52.2862L23.7024 56.8218H33.4359L38.3026 52.2604V48.1371L33.4359 43.5757H23.7024H23.6749Z" fill="#00843D"/>
<path fill-rule="evenodd" clip-rule="evenodd" d="M23.6562 43.5215H33.4594L38.3583 48.1131V52.2825L33.4594 56.8741H23.6839L18.7573 52.3085V48.1389L23.6562 43.5215ZM23.6985 43.628L18.8638 48.1849V52.262L23.7257 56.7676H33.4173L38.2518 52.2364V48.1592L33.4173 43.628H23.6985ZM24.1512 44.9131H32.9644L34.9488 46.773V53.6741L32.9919 55.5082H24.151L22.1943 53.6481V46.7472L24.1512 44.9131ZM24.1933 45.0196L22.3008 46.7934V53.6024L24.1935 55.4018H32.9498L34.8424 53.628V46.8191L32.9224 45.0196H24.1933Z" fill="black"/>
<path fill-rule="evenodd" clip-rule="evenodd" d="M26.2315 55.9316L27.0014 56.8594L27.7932 55.9316H26.2095H26.2315Z" fill="#FAAE29"/>
<path fill-rule="evenodd" clip-rule="evenodd" d="M27.8569 55.9038L27.0015 56.906L26.2182 55.9621H26.2099V55.9521L26.2095 55.9516L26.2099 55.9512V55.9038H27.8569ZM26.294 55.9621H27.7304L27.0021 56.8154L26.294 55.9621Z" fill="black"/>
<path fill-rule="evenodd" clip-rule="evenodd" d="M26.2315 44.5156L27.0014 43.5879L27.7932 44.5156H26.2095H26.2315Z" fill="#FAAE29"/>
<path fill-rule="evenodd" clip-rule="evenodd" d="M27.8569 44.5444L27.0015 43.5422L26.2182 44.4861H26.2099V44.4961L26.2095 44.4967L26.2099 44.497V44.5444H27.8569ZM26.294 44.4861H27.7304L27.0021 43.6328L26.294 44.4861Z" fill="black"/>
<path fill-rule="evenodd" clip-rule="evenodd" d="M29.336 44.5156L30.1058 43.5879L30.8977 44.5156H29.314H29.336Z" fill="#FAAE29"/>
<path fill-rule="evenodd" clip-rule="evenodd" d="M30.959 44.5444L30.1035 43.5422L29.3203 44.4861H29.312V44.4961L29.3115 44.4967L29.312 44.497V44.5444H30.959ZM29.3961 44.4861H30.8325L30.1042 43.6328L29.3961 44.4861Z" fill="black"/>
<path fill-rule="evenodd" clip-rule="evenodd" d="M29.336 55.9316L30.1058 56.8594L30.8977 55.9316H29.314H29.336Z" fill="#FAAE29"/>
<path fill-rule="evenodd" clip-rule="evenodd" d="M30.959 55.9038L30.1035 56.906L29.3203 55.9621H29.312V55.9521L29.3115 55.9516L29.312 55.9512V55.9038H30.959ZM29.3961 55.9621H30.8325L30.1042 56.8154L29.3961 55.9621Z" fill="black"/>
<path fill-rule="evenodd" clip-rule="evenodd" d="M24.6773 44.5156L25.4472 43.5879L26.239 44.5156H24.6553H24.6773Z" fill="#CA3745"/>
<path fill-rule="evenodd" clip-rule="evenodd" d="M26.3027 44.5444L25.4473 43.5422L24.664 44.4861H24.6557V44.4961L24.6553 44.4967L24.6557 44.497V44.5444H26.3027ZM24.7398 44.4861H26.1762L25.4479 43.6328L24.7398 44.4861Z" fill="black"/>
<path fill-rule="evenodd" clip-rule="evenodd" d="M27.7818 44.5156L28.5516 43.5879L29.3435 44.5156H27.7598H27.7818Z" fill="#CA3745"/>
<path fill-rule="evenodd" clip-rule="evenodd" d="M29.4072 44.5444L28.5518 43.5422L27.7685 44.4861H27.7602V44.4961L27.7598 44.4967L27.7602 44.497V44.5444H29.4072ZM27.8443 44.4861H29.2807L28.5524 43.6328L27.8443 44.4861Z" fill="black"/>
<path fill-rule="evenodd" clip-rule="evenodd" d="M30.9082 44.5156L31.6781 43.5879L32.47 44.5156H30.8862H30.9082Z" fill="#CA3745"/>
<path fill-rule="evenodd" clip-rule="evenodd" d="M32.5337 44.5444L31.6782 43.5422L30.895 44.4861H30.8867V44.4961L30.8862 44.4967L30.8867 44.497V44.5444H32.5337ZM30.9708 44.4861H32.4072L31.6789 43.6328L30.9708 44.4861Z" fill="black"/>
<path fill-rule="evenodd" clip-rule="evenodd" d="M22.7246 54.5592L24.1681 55.9121H22.7246V54.5592Z" fill="#CA3745"/>
<path fill-rule="evenodd" clip-rule="evenodd" d="M22.6641 55.9722H24.3189L22.6641 54.4212V55.9722ZM22.7838 55.8524V54.6976L24.0159 55.8524H22.7838Z" fill="black"/>
<path fill-rule="evenodd" clip-rule="evenodd" d="M21.7412 51.3657L22.473 50.2127L21.7412 49.0818L22.473 47.9287L21.7412 46.7979H22.1182L22.473 47.5518L22.8499 47.1748H23.2047V47.5518L22.8499 47.9287L23.2047 48.3057V48.7048H22.8499L22.473 48.3057L22.1182 49.0818L22.473 49.8357L22.8499 49.4587H23.2047V49.8357L22.8499 50.2127L23.2047 50.5896V50.9887H22.8499L22.473 50.5896L22.1182 51.3657L22.473 52.1196L22.8499 51.7427H23.2047V52.1196L22.8499 52.4966L23.2047 52.8735V53.2727H22.8499L22.473 52.8735L22.1182 53.6496H21.7412L22.473 52.4966L21.7412 51.3657V51.3657Z" fill="#00843D"/>
<path fill-rule="evenodd" clip-rule="evenodd" d="M35.8691 48.968H37.8213L38.3163 49.3855L37.8213 49.803H35.8966V48.9448L35.8691 48.968Z" fill="#CA3745"/>
<path fill-rule="evenodd" clip-rule="evenodd" d="M35.856 49.0064H35.7627L35.9317 48.8638V48.9306H37.8324L38.3722 49.386L37.8324 49.8413H35.856V49.0064ZM35.9317 49.0064H37.8047L38.2547 49.386L37.8047 49.7656H35.9317V49.0064Z" fill="black"/>
<path fill-rule="evenodd" clip-rule="evenodd" d="M22.7146 45.8687L21.7248 46.7964V53.6256L22.7146 54.5534H21.2573V45.8687H22.7146Z" fill="#CA3745"/>
<path fill-rule="evenodd" clip-rule="evenodd" d="M21.2036 45.8149H22.8488L21.7775 46.819V53.6021L22.8488 54.6061H21.2036V45.8149ZM21.3101 45.9214V54.4996H22.5795L21.671 53.6482V46.7729L22.5795 45.9214H21.3101Z" fill="black"/>
<path fill-rule="evenodd" clip-rule="evenodd" d="M24.6773 55.9316L25.4472 56.8594L26.239 55.9316H24.6553H24.6773Z" fill="#CA3745"/>
<path fill-rule="evenodd" clip-rule="evenodd" d="M26.3027 55.9038L25.4473 56.906L24.664 55.9621H24.6557V55.9521L24.6553 55.9516L24.6557 55.9512V55.9038H26.3027ZM24.7398 55.9621H26.1762L25.4479 56.8154L24.7398 55.9621Z" fill="black"/>
<path fill-rule="evenodd" clip-rule="evenodd" d="M27.7818 55.9316L28.5516 56.8594L29.3435 55.9316H27.7598H27.7818Z" fill="#CA3745"/>
<path fill-rule="evenodd" clip-rule="evenodd" d="M29.4072 55.9038L28.5518 56.906L27.7685 55.9621H27.7602V55.9521L27.7598 55.9516L27.7602 55.9512V55.9038H29.4072ZM27.8443 55.9621H29.2807L28.5524 56.8154L27.8443 55.9621Z" fill="black"/>
<path fill-rule="evenodd" clip-rule="evenodd" d="M30.9082 55.9316L31.6781 56.8594L32.47 55.9316H30.8862H30.9082Z" fill="#CA3745"/>
<path fill-rule="evenodd" clip-rule="evenodd" d="M32.5337 55.9038L31.6782 56.906L30.895 55.9621H30.8867V55.9521L30.8862 55.9516L30.8867 55.9512V55.9038H32.5337ZM30.9708 55.9621H32.4072L31.6789 56.8154L30.9708 55.9621Z" fill="black"/>
<path fill-rule="evenodd" clip-rule="evenodd" d="M34.4026 45.8687L35.3924 46.7964V53.6256L34.4026 54.5534H35.8599V45.8687H34.4026Z" fill="#CA3745"/>
<path fill-rule="evenodd" clip-rule="evenodd" d="M35.9131 45.8149H34.2679L35.3392 46.819V53.6021L34.2679 54.6061H35.9131V45.8149ZM35.8066 45.9214V54.4996H34.5372L35.4457 53.6482V46.7729L34.5372 45.9214H35.8066Z" fill="black"/>
<path fill-rule="evenodd" clip-rule="evenodd" d="M34.3926 54.5592L32.9491 55.9121H34.3926V54.5592Z" fill="#CA3745"/>
<path fill-rule="evenodd" clip-rule="evenodd" d="M34.4521 55.9722H32.7973L34.4521 54.4212V55.9722ZM34.3324 55.8524V54.6976L33.1003 55.8524H34.3324Z" fill="black"/>
<path fill-rule="evenodd" clip-rule="evenodd" d="M34.3926 45.8661L32.9491 44.5132H34.3926V45.8661Z" fill="#CA3745"/>
<path fill-rule="evenodd" clip-rule="evenodd" d="M34.4521 44.4531H32.7973L34.4521 46.0041V44.4531ZM34.3324 44.5729V45.7277L33.1003 44.5729H34.3324Z" fill="black"/>
<path fill-rule="evenodd" clip-rule="evenodd" d="M22.7246 45.8661L24.1681 44.5132H22.7246V45.8661Z" fill="#CA3745"/>
<path fill-rule="evenodd" clip-rule="evenodd" d="M22.6641 44.4531H24.3189L22.6641 46.0041V44.4531ZM22.7838 44.5729V45.7277L24.0159 44.5729H22.7838Z" fill="black"/>
<path fill-rule="evenodd" clip-rule="evenodd" d="M24.1716 44.9668L22.2469 46.7707V53.6257L24.1716 55.4555H32.9702L34.8949 53.6515V46.7965L32.9427 44.9668H24.1716ZM24.1716 44.5029L21.752 46.7707V53.6257L24.1716 55.9193H32.9702L35.3899 53.6257V46.7707L32.9427 44.5029H24.1716Z" fill="#00843D"/>
<path fill-rule="evenodd" clip-rule="evenodd" d="M24.1501 44.4492H32.9631L35.4426 46.747V53.6482L32.991 55.9721H24.1499L21.6982 53.6482V46.7472L24.1501 44.4492ZM24.1922 44.5557L21.8047 46.7933V53.6024L24.1923 55.8656H32.9485L35.3362 53.6024V46.7935L32.9214 44.5557H24.1922ZM24.1501 44.9131H32.9633L34.9477 46.773V53.6741L32.9908 55.5082H24.1498L22.1932 53.6481V46.7472L24.1501 44.9131ZM24.1922 45.0196L22.2996 46.7933V53.6024L24.1924 55.4017H32.9487L34.8412 53.628V46.8191L32.9212 45.0196H24.1922Z" fill="black"/>
<path fill-rule="evenodd" clip-rule="evenodd" d="M35.8691 49.7913H37.8213L38.3163 50.2088L37.8213 50.6263H35.8966V49.7681L35.8691 49.7913Z" fill="#FAAE29"/>
<path fill-rule="evenodd" clip-rule="evenodd" d="M35.856 49.8286H35.7627L35.9317 49.686V49.7529H37.8324L38.3722 50.2083L37.8324 50.6637H35.856V49.8286ZM35.9317 49.8286H37.8047L38.2547 50.2083L37.8047 50.5879H35.9317V49.8286Z" fill="black"/>
<path fill-rule="evenodd" clip-rule="evenodd" d="M35.8691 50.6316H37.8213L38.3163 51.0491L37.8213 51.4666H35.8966V50.6084L35.8691 50.6316Z" fill="#CA3745"/>
<path fill-rule="evenodd" clip-rule="evenodd" d="M35.856 50.6694H35.7627L35.9317 50.5269V50.5937H37.8324L38.3722 51.0491L37.8324 51.5044H35.856V50.6694ZM35.9317 50.6694H37.8047L38.2547 51.0491L37.8047 51.4287H35.9317V50.6694Z" fill="black"/>
<path fill-rule="evenodd" clip-rule="evenodd" d="M35.8691 51.4319H37.8213L38.3163 51.8494L37.8213 52.2669H35.8966V51.4087L35.8691 51.4319Z" fill="#FAAE29"/>
<path fill-rule="evenodd" clip-rule="evenodd" d="M35.856 51.4697H35.7627L35.9317 51.3271V51.394H37.8324L38.3722 51.8494L37.8324 52.3048H35.856V51.4697ZM35.9317 51.4697H37.8047L38.2547 51.8494L37.8047 52.229H35.9317V51.4697Z" fill="black"/>
<path fill-rule="evenodd" clip-rule="evenodd" d="M35.8691 48.1506H37.8213L38.3163 48.5682L37.8213 48.9857H35.8966V48.1274L35.8691 48.1506Z" fill="#FAAE29"/>
<path fill-rule="evenodd" clip-rule="evenodd" d="M35.856 48.188H35.7627L35.9317 48.0454V48.1122H37.8324L38.3722 48.5676L37.8324 49.023H35.856V48.188ZM35.9317 48.188H37.8047L38.2547 48.5676L37.8047 48.9473H35.9317V48.188Z" fill="black"/>
<path fill-rule="evenodd" clip-rule="evenodd" d="M21.272 48.968H19.3198L18.8248 49.3855L19.3198 49.803H21.2445V48.9448L21.272 48.968Z" fill="#CA3745"/>
<path fill-rule="evenodd" clip-rule="evenodd" d="M21.2827 49.0064H21.376L21.207 48.8638V48.9306H19.3063L18.7665 49.386L19.3063 49.8413H21.2827V49.0064ZM21.207 49.0064H19.334L18.884 49.386L19.334 49.7656H21.207V49.0064Z" fill="black"/>
<path fill-rule="evenodd" clip-rule="evenodd" d="M21.272 49.7913H19.3198L18.8248 50.2088L19.3198 50.6263H21.2445V49.7681L21.272 49.7913Z" fill="#FAAE29"/>
<path fill-rule="evenodd" clip-rule="evenodd" d="M21.2827 49.8286H21.376L21.207 49.686V49.7529H19.3063L18.7665 50.2083L19.3063 50.6637H21.2827V49.8286ZM21.207 49.8286H19.334L18.884 50.2083L19.334 50.5879H21.207V49.8286Z" fill="black"/>
<path fill-rule="evenodd" clip-rule="evenodd" d="M21.272 50.6316H19.3198L18.8248 51.0491L19.3198 51.4666H21.2445V50.6084L21.272 50.6316Z" fill="#CA3745"/>
<path fill-rule="evenodd" clip-rule="evenodd" d="M21.2827 50.6694H21.376L21.207 50.5269V50.5937H19.3063L18.7665 51.0491L19.3063 51.5044H21.2827V50.6694ZM21.207 50.6694H19.334L18.884 51.0491L19.334 51.4287H21.207V50.6694Z" fill="black"/>
<path fill-rule="evenodd" clip-rule="evenodd" d="M21.272 51.4543H19.3198L18.8248 51.8719L19.3198 52.2894H21.2445V51.4312L21.272 51.4543Z" fill="#FAAE29"/>
<path fill-rule="evenodd" clip-rule="evenodd" d="M21.2827 51.4917H21.376L21.207 51.3491V51.416H19.3063L18.7665 51.8714L19.3063 52.3268H21.2827V51.4917ZM21.207 51.4917H19.334L18.884 51.8714L19.334 52.251H21.207V51.4917Z" fill="black"/>
<path fill-rule="evenodd" clip-rule="evenodd" d="M21.272 48.1506H19.3198L18.8248 48.5682L19.3198 48.9857H21.2445V48.1274L21.272 48.1506Z" fill="#FAAE29"/>
<path fill-rule="evenodd" clip-rule="evenodd" d="M21.2827 48.188H21.376L21.207 48.0454V48.1122H19.3063L18.7665 48.5676L19.3063 49.023H21.2827V48.188ZM21.207 48.188H19.334L18.884 48.5676L19.334 48.9473H21.207V48.188Z" fill="black"/>
<path fill-rule="evenodd" clip-rule="evenodd" d="M18.3394 45.4294V54.9646H20.7865V57.2582H36.3766V54.9646H38.7962V45.4294H36.3766V43.1616H20.7865V45.4294H18.3394ZM18.8343 45.8675V54.5522H21.2539V56.8201H35.8817V54.5522H38.3288V45.8675H35.8817V43.6255H21.2539V45.8933H18.8343V45.8675Z" fill="#970000"/>
<path fill-rule="evenodd" clip-rule="evenodd" d="M20.746 43.123H36.4159V45.3909H38.8356V55.0059H36.4159V57.2995H20.746V55.0059H18.2988V45.3909H20.746V43.123ZM20.8258 43.2029V45.4707H18.3787V54.926H20.8258V57.2196H36.3361V54.926H38.7557V45.4707H36.3361V43.2029H20.8258ZM21.2134 43.5869H35.921V45.829H38.3681V54.5935H35.921V56.8614H21.2134V54.5935H18.7938V45.8689H18.8337V45.8547H21.2134V43.5869ZM18.8736 45.9346V54.5137H21.2932V56.7815H35.8411V54.5137H38.2883V45.9088H35.8411V43.6668H21.2932V45.9346H18.8736Z" fill="black"/>
<path fill-rule="evenodd" clip-rule="evenodd" d="M40.7395 9.77401L39.2823 8.01451V6.70108L37.825 5.38765H34.9104L32.4633 4.07422H24.682L22.2349 5.38765H19.3203L17.863 6.70108V8.01451L16.4058 9.74923V13.293L17.863 15.0277V16.3659L19.3203 17.6794H22.2349L24.682 18.9928H32.4633L34.9104 17.6794H37.825L39.3098 16.3659V15.0525L40.767 13.293V9.74923L40.7395 9.77401Z" fill="#CA3745"/>
<path fill-rule="evenodd" clip-rule="evenodd" d="M24.6727 4.03369H32.4737L34.9209 5.34712H37.8406L39.322 6.68228V7.99903L40.7442 9.71622L40.8068 9.65986V13.3057L39.3495 15.0652V16.3822L37.8404 17.7171H34.9209L32.4737 19.0306H24.6727L22.2256 17.7171H19.3059L17.8245 16.382V15.0406L16.3672 13.3059V9.73359L17.8245 7.99887V6.68228L19.3059 5.34712H22.2256L24.6727 4.03369ZM40.7285 9.81994L39.2437 8.02724V6.71713L37.8105 5.42543H34.9012L32.454 4.112H24.6924L22.2453 5.42543H19.3359L17.9028 6.71713V8.0274L16.4455 9.76212V13.2774L17.9028 15.0121V16.3471L19.3359 17.6388H22.2453L24.6924 18.9523H32.454L34.9012 17.6388H37.8107L39.2712 16.3469V15.037L40.7285 13.2775V9.81994Z" fill="black"/>
<path fill-rule="evenodd" clip-rule="evenodd" d="M16.8613 11.5195V12.85L18.347 14.6017V15.9322L19.8105 17.2404H22.7153L25.1544 18.5487H28.5692V11.5195H16.8835H16.8613Z" fill="#FAAE29"/>
<path fill-rule="evenodd" clip-rule="evenodd" d="M24.4682 14.6008L22.6942 15.7095H21.6077L21.9625 16.1086L21.2529 16.8625L21.6077 17.2395L22.6721 16.8625L23.0269 17.2395L23.2042 16.2195L25.1556 15.0221L24.446 14.5786L24.4682 14.6008Z" fill="#CA3745"/>
<path fill-rule="evenodd" clip-rule="evenodd" d="M22.5156 13.7139L20.7417 14.8447H19.6551L20.0099 15.2217L19.3004 15.9756L19.6551 16.3526L20.7195 15.9756L21.0743 16.3526L21.2517 15.3326L23.203 14.1573L22.5156 13.7139V13.7139ZM21.5399 11.9399L19.766 13.093H18.6795L19.0343 13.4699L18.3247 14.2239L18.6795 14.6008L19.7438 14.2239L20.0986 14.6008L20.276 13.5808L22.2273 12.4056L21.5399 11.9621V11.9399Z" fill="#CA3745"/>
<path fill-rule="evenodd" clip-rule="evenodd" d="M40.2555 11.5194V10.189L38.792 8.45938V7.12894L37.3286 5.7985H34.4016L31.9624 4.49023H28.5698V11.5194H40.2555V11.5194Z" fill="#FAAE29"/>
<path fill-rule="evenodd" clip-rule="evenodd" d="M28.5707 18.5484H27.6837L26.6193 17.6614H24.9563L24.0693 17.2179L24.5128 16.7745L25.3998 17.2179H26.3089L27.1959 15.9097L28.5707 16.3531V17.2401H27.218L28.5485 18.5484H28.5707Z" fill="#CA3745"/>
<path fill-rule="evenodd" clip-rule="evenodd" d="M16.8613 11.5194V10.189L18.347 8.45938V7.12894L19.8105 5.7985H22.7153L25.1544 4.49023H28.5692V11.5194H16.8835H16.8613Z" fill="white"/>
<path fill-rule="evenodd" clip-rule="evenodd" d="M28.5707 4.51241H27.6837L26.6193 5.3772H24.9563L24.0693 5.82068L24.5128 6.26416L25.3998 5.82068H26.3089L27.1959 7.12894L28.5707 6.68546V5.7985H27.218L28.5485 4.49023L28.5707 4.51241ZM28.5707 4.51241H29.4576L30.522 5.3772H32.185L33.072 5.82068L32.6285 6.26416L31.7415 5.82068H30.8324L29.9233 7.12894L28.5707 6.68546V5.7985H29.9011L28.5707 4.49023V4.51241Z" fill="#CA3745"/>
<path fill-rule="evenodd" clip-rule="evenodd" d="M40.2555 11.5195V12.85L38.792 14.6017V15.9322L37.3286 17.2404H34.4016L31.9624 18.5487H28.5698V11.5195H40.2555V11.5195Z" fill="white"/>
<path fill-rule="evenodd" clip-rule="evenodd" d="M28.571 18.5472H29.4579L30.5223 17.6603H32.1854L33.0723 17.2168L32.6288 16.7733L31.7419 17.2168H30.8327L29.9236 15.9085L28.571 16.352V17.239H29.9014L28.571 18.5472V18.5472ZM22.5175 9.32283L20.7436 8.21413H19.657L20.0118 7.815L19.3022 7.06108L19.657 6.68412L20.7214 7.06108L21.0762 6.68412L21.2536 7.70413L23.2049 8.87935L22.5175 9.32283V9.32283ZM32.6732 8.43587L34.4471 7.32717H35.5115L35.1788 6.92804L35.8884 6.19629L35.5115 5.81934L34.4693 6.19629L34.0923 5.81934L33.9371 6.81717L31.9858 8.01456L32.6732 8.45804V8.43587Z" fill="#CA3745"/>
<path fill-rule="evenodd" clip-rule="evenodd" d="M24.4676 8.45805L22.6937 7.32717H21.6072L21.9619 6.92804L21.2524 6.19629L21.6072 5.81934L22.6715 6.19629L23.0263 5.81934L23.2037 6.81717L25.155 8.01456L24.4454 8.45805H24.4676ZM21.5185 11.0524L19.7445 9.94371H18.658L19.0128 9.54457L18.3032 8.79066L18.658 8.4137L19.7224 8.79066L20.0771 8.4137L20.2545 9.4337L22.2059 10.6089L21.5185 11.0524V11.0524Z" fill="#CA3745"/>
<path fill-rule="evenodd" clip-rule="evenodd" d="M17.7492 11.5195H18.1927L18.6362 11.963L19.0797 11.5195H28.5701V17.6617H28.1267L28.5701 18.1052V18.5487L27.2175 17.2183V16.7748H27.661V17.2183H28.1045V16.7748L24.468 14.8456H21.3636V12.9608L20.011 11.963H19.0797L18.6362 12.4065L19.0797 12.85H18.6362L17.7271 11.5195H17.7492Z" fill="white"/>
<path fill-rule="evenodd" clip-rule="evenodd" d="M17.7492 11.5194H18.1927L18.6362 11.0759L19.0797 11.5194H28.5701V5.3772H28.1267L28.5701 4.93371V4.49023L27.2175 5.82068V6.26416H27.661V5.82068H28.1045V6.26416L24.468 8.1933H21.3636V10.1003L20.011 11.0759H19.0797L18.6362 10.6324L19.0797 10.189H18.6362L17.7271 11.5194H17.7492Z" fill="#FAAE29"/>
<path fill-rule="evenodd" clip-rule="evenodd" d="M19.8105 11.5195H28.5693V16.797L24.6667 14.5795H21.7397V12.8278L19.8105 11.5195V11.5195Z" fill="#00843D"/>
<path fill-rule="evenodd" clip-rule="evenodd" d="M34.6234 9.32426L36.3974 8.21555H37.4617L37.1069 7.81642L37.8165 7.06251L37.4617 6.68555L36.3974 7.06251L36.0426 6.68555L35.8873 7.70555L33.936 8.88078L34.6234 9.32426ZM35.5991 11.0982L37.373 9.94513H38.4374L38.0826 9.56817L38.7921 8.81425L38.4374 8.43729L37.373 8.81425L37.0182 8.43729L36.863 9.4573L34.9117 10.6325L35.5991 11.076V11.0982Z" fill="#CA3745"/>
<path fill-rule="evenodd" clip-rule="evenodd" d="M39.3907 11.5194H38.9473L38.5038 11.0759L38.0381 11.5194H28.5698V5.3772H29.0133L28.5698 4.93371V4.49023L29.9003 5.82068V6.26416H29.4568V5.82068H29.0133V6.26416L32.672 8.1933H35.7764V10.1003L37.129 11.0759H38.016L38.4816 10.6324L38.0381 10.189H38.4816L39.3686 11.5194H39.3907Z" fill="white"/>
<path fill-rule="evenodd" clip-rule="evenodd" d="M37.3286 11.5187H28.5698V6.28564L32.4725 8.48087H35.3772V10.2326L37.3286 11.5631V11.5187Z" fill="#00843D"/>
<path fill-rule="evenodd" clip-rule="evenodd" d="M32.6723 14.6008L34.4462 15.7095H35.5327L35.1779 16.1086L35.8875 16.8625L35.5327 17.2395L34.4684 16.8625L34.1136 17.2395L33.9362 16.2195L31.9849 15.0221L32.6723 14.5786V14.6008Z" fill="#CA3745"/>
<path fill-rule="evenodd" clip-rule="evenodd" d="M34.6234 13.7139L36.3974 14.8447H37.4617L37.1069 15.2217L37.8165 15.9756L37.4617 16.3526L36.3974 15.9756L36.0426 16.3526L35.8873 15.3326L33.936 14.1573L34.6234 13.7139V13.7139ZM35.5991 11.9399L37.373 13.093H38.4374L38.0826 13.4699L38.7921 14.2239L38.4374 14.6008L37.373 14.2239L37.0182 14.6008L36.863 13.5808L34.9117 12.4056L35.5991 11.9621V11.9399Z" fill="#CA3745"/>
<path fill-rule="evenodd" clip-rule="evenodd" d="M39.3907 11.5195H38.9473L38.5038 11.963L38.0381 11.5195H28.5698V17.6617H29.0133L28.5698 18.1052V18.5487L29.9003 17.2183V16.7748H29.4568V17.2183H29.0133V16.7748L32.672 14.8456H35.7764V12.9608L37.129 11.963H38.016L38.4816 12.4065L38.0381 12.85H38.4816L39.3686 11.5195H39.3907Z" fill="#FAAE29"/>
<path fill-rule="evenodd" clip-rule="evenodd" d="M37.328 11.5187H28.5693V16.7961L32.4719 14.5787H35.3767V12.827L37.328 11.5187V11.5187ZM19.8105 11.5187H28.5693V6.28564L24.6667 8.48087H21.7397V10.2326L19.8105 11.5631V11.5187Z" fill="#CA3745"/>
<path fill-rule="evenodd" clip-rule="evenodd" d="M29.5237 11.5197L31.9628 10.1892H33.4485L32.9607 9.74577L33.9363 8.88098L33.4263 8.4375L31.985 8.88098L31.4972 8.4375L31.2754 9.61272L28.5702 11.0097L29.5237 11.5197V11.5197ZM27.6167 11.5197L25.1776 12.8501H23.6919L24.1798 13.2936L23.2041 14.1584L23.6919 14.6019L25.1554 14.1584L25.6432 14.6019L25.865 13.4267L28.5702 12.0297L27.5946 11.5197H27.6167Z" fill="#CA3745"/>
<path fill-rule="evenodd" clip-rule="evenodd" d="M27.6167 11.5197L25.1776 10.1892H23.6919L24.1798 9.74577L23.2041 8.88098L23.6919 8.4375L25.1554 8.88098L25.6432 8.4375L25.865 9.61272L28.5702 11.0097L27.5946 11.5197H27.6167ZM29.5237 11.5197L31.9628 12.8501H33.4485L32.9607 13.2936L33.9363 14.1584L33.4263 14.6019L31.985 14.1584L31.4972 14.6019L31.2754 13.4267L28.5702 12.0297L29.5237 11.5197V11.5197Z" fill="#00843D"/>
<path fill-rule="evenodd" clip-rule="evenodd" d="M25.6426 11.5194L28.5696 9.32422L31.4965 11.5194L28.5696 13.7147L25.6426 11.5194Z" fill="white"/>
<path fill-rule="evenodd" clip-rule="evenodd" d="M19.0788 12.406L19.5445 12.8495L19.101 13.293H18.6575L17.2827 11.519H17.7262L18.6353 12.8495H19.0788L18.6353 12.406L19.0788 11.9625H19.9879V12.406H19.101H19.0788ZM19.0788 10.6321L19.5445 10.1886L19.101 9.74512H18.6575L17.2827 11.519H17.7262L18.6353 10.1886H19.0788L18.6353 10.6321L19.0788 11.0756H19.9879V10.6321H19.101H19.0788ZM38.0376 12.406L37.5941 12.8495L38.0376 13.293H38.4811L39.8337 11.519H39.3902L38.5033 12.8495H38.0376L38.4811 12.406L38.0376 11.9625H37.1506V12.406H38.0376ZM38.0376 10.6321L37.5941 10.1886L38.0376 9.74512H38.4811L39.8337 11.519H39.3902L38.5033 10.1886H38.0376L38.4811 10.6321L38.0376 11.0756H37.1506V10.6321H38.0376ZM28.1036 9.74512H29.0128V13.293H28.1258L28.1036 9.74512Z" fill="#CA3745"/>
<path fill-rule="evenodd" clip-rule="evenodd" d="M26.7739 10.6318H30.3661V12.4058H26.7739V10.6318Z" fill="#CA3745"/>
<path fill-rule="evenodd" clip-rule="evenodd" d="M24.4411 78.2495L16.3452 82.7126V89.9857L24.5175 94.4488H32.6134L40.7092 89.9857V82.7126L32.6134 78.3322H24.5175L24.4411 78.2495Z" fill="#00843D"/>
<path fill-rule="evenodd" clip-rule="evenodd" d="M24.4518 78.2002L24.5375 78.2929H32.626L40.7516 82.6894V90.0097L32.6262 94.489H24.51L16.3081 90.0098V82.6896L24.4518 78.2002ZM16.3876 82.7365V89.9626L24.5302 94.4095H32.6058L40.6721 89.9627V82.7367L32.6059 78.3724H24.5027L24.4356 78.2998L16.3876 82.7365Z" fill="black"/>
<path fill-rule="evenodd" clip-rule="evenodd" d="M19.4138 85.6693H19.9016V84.7602H20.8551V85.6471H21.3429V83.5628H20.8551V84.4497H19.8794V83.5628H19.3916V85.6471L19.4138 85.6693ZM31.8312 92.6541H32.3412V91.7672H33.3169V92.6541H33.8047V90.5476H33.3169V91.4567H32.3412V90.5698H31.8534V92.6541H31.8312ZM23.9816 82.1658H24.4695V81.2345H25.4673V82.1215H25.9551V80.0371H25.4673V80.9241H24.4916V80.0371H23.9594V82.1436L23.9816 82.1658ZM31.1882 82.1658H31.676V81.2345H32.6517V82.1215H33.1617V80.0371H32.6517V80.9241H31.676V80.0371H31.1882V82.1436V82.1658ZM35.7782 85.6471H36.266V84.7602H37.2417V85.6471H37.7295V83.5628H37.2639V84.4497H36.2882V83.5628H35.8004V85.6471H35.7782ZM35.7782 89.1506H36.266V88.2637H37.2417V89.1506H37.7295V87.0663H37.2639V87.9532H36.2882V87.0663H35.8004V89.1506H35.7782Z" fill="#CC0000"/>
<path fill-rule="evenodd" clip-rule="evenodd" d="M28.57 94.073V86.3342H40.3444V89.8377L32.4948 94.0508H28.57V94.073ZM28.57 78.662V86.3342H16.7734V82.8307L24.6452 78.6177H28.57V78.662Z" fill="#FAAE29"/>
<path fill-rule="evenodd" clip-rule="evenodd" d="M28.57 78.662V86.3342H40.3444V82.8307L32.4948 78.6177H28.57V78.662ZM28.57 94.073V86.3342H16.7734V89.8377L24.6452 94.0508H28.57V94.073Z" fill="white"/>
<path fill-rule="evenodd" clip-rule="evenodd" d="M34.8451 83.2185H39.5681L34.8451 81.1236V83.2185ZM40.3442 82.8628V86.3609H32.8938V83.5742H31.3194L29.3459 82.5268V80.0761L30.5433 79.0088H28.969V82.5268H28.5698V78.6729H32.4946L40.3442 82.8628V82.8628Z" fill="#FAAE29"/>
<path fill-rule="evenodd" clip-rule="evenodd" d="M28.5591 78.6616H32.497L40.3489 82.8528L40.344 82.862H40.3544V86.3706H32.883V83.584H31.3165L29.3352 82.5323V80.0706L30.5156 79.0185H28.9791V82.5365H28.5591V78.6616ZM40.3335 82.8683L32.4917 78.6826H28.58V82.5155H28.9582V78.9976H30.5705L29.3561 80.08V82.5197L31.3217 83.563H32.904V86.3497H40.3335V82.8683ZM34.8343 81.1067L39.5721 83.2082L39.5679 83.2282H34.8343V81.1067ZM34.8553 81.1389V83.2073H39.5185L34.8553 81.1389Z" fill="black"/>
<path fill-rule="evenodd" clip-rule="evenodd" d="M24.623 83.8947V88.8174H25.8204L28.57 90.2143L31.3196 88.8174H32.4948V83.8947H31.3196L28.57 82.4756L25.8204 83.8947H24.623Z" fill="#CA3745"/>
<path fill-rule="evenodd" clip-rule="evenodd" d="M22.2946 89.5178H17.5715L22.2946 91.6128V89.5178ZM16.7954 89.8736V86.3754H24.2459V89.1621H25.8202L27.7937 90.2096V92.6603L26.5963 93.7275H28.1707V90.2096H28.5698V94.0635H24.645L16.7954 89.8736V89.8736Z" fill="#FAAE29"/>
<path fill-rule="evenodd" clip-rule="evenodd" d="M28.5811 94.0742H24.6432L16.7913 89.8831L16.7962 89.8738H16.7857V86.3652H24.2571V89.1519H25.8236L27.805 90.2035V92.6652L26.6246 93.7173H28.161V90.1994H28.5811V94.0742ZM16.8066 89.8676L24.6484 94.0533H28.5601V90.2203H28.1819V93.7382H26.5696L27.784 92.6558V90.2161L25.8184 89.1728H24.2362V86.3861H16.8066V89.8676ZM22.3058 91.6291L17.568 89.5277L17.5723 89.5076H22.3058V91.6291ZM22.2849 91.597V89.5286H17.6217L22.2849 91.597Z" fill="black"/>
<path fill-rule="evenodd" clip-rule="evenodd" d="M22.2946 83.2185H17.5715L22.2946 81.1236V83.2185ZM16.7954 82.8628V86.3609H24.2459V83.5742H25.8202L27.7937 82.5268V80.0761L26.5963 79.0088H28.1707V82.5268H28.5698V78.6729H24.645L16.7954 82.8628V82.8628Z" fill="white"/>
<path fill-rule="evenodd" clip-rule="evenodd" d="M28.5811 78.6616H24.6432L16.7913 82.8528L16.7962 82.862H16.7857V86.3706H24.2571V83.584H25.8236L27.805 82.5323V80.0706L26.6246 79.0185H28.161V82.5365H28.5811V78.6616ZM16.8066 82.8683L24.6484 78.6826H28.5601V82.5155H28.1819V78.9976H26.5696L27.784 80.08V82.5197L25.8184 83.563H24.2362V86.3497H16.8066V82.8683ZM22.3058 81.1067L17.568 83.2082L17.5723 83.2282H22.3058V81.1067ZM22.2849 81.1389V83.2073H17.6217L22.2849 81.1389Z" fill="black"/>
<path fill-rule="evenodd" clip-rule="evenodd" d="M34.8451 89.5178H39.5681L34.8451 91.6128V89.5178ZM40.3442 89.8736V86.3754H32.8938V89.1621H31.3194L29.3459 90.2096V92.6603L30.5433 93.7275H28.969V90.2096H28.5698V94.0635H32.4946L40.3442 89.8736V89.8736Z" fill="white"/>
<path fill-rule="evenodd" clip-rule="evenodd" d="M28.5591 94.0742H32.497L40.3489 89.8831L40.344 89.8738H40.3544V86.3652H32.883V89.1519H31.3165L29.3352 90.2035V92.6652L30.5156 93.7173H28.9791V90.1994H28.5591V94.0742ZM40.3335 89.8676L32.4917 94.0533H28.58V90.2203H28.9582V93.7382H30.5705L29.3561 92.6558V90.2161L31.3217 89.1728H32.904V86.3861H40.3335V89.8676ZM34.8343 91.6291L39.5721 89.5277L39.5679 89.5076H34.8343V91.6291ZM34.8553 91.597V89.5286H39.5185L34.8553 91.597Z" fill="black"/>
<path fill-rule="evenodd" clip-rule="evenodd" d="M19.145 89.1716H19.6328V88.1073H20.6085V89.1495H21.0963V86.7103H20.6307V87.7525H19.655V86.7103H19.1672V89.1495L19.145 89.1716ZM23.8459 92.6529H24.3337V91.6108H25.3316V92.6529H25.8194V90.2138H25.3316V91.256H24.3337V90.2138H23.8459V92.6529ZM19.145 83.5616H19.6328V84.6038H20.6085V83.5616H21.0963V86.0007H20.6307V84.9586H19.655V86.0007H19.1672V83.5616H19.145ZM23.8459 80.0581H24.3337V81.1003H25.3316V80.0581H25.8194V82.4972H25.3316V81.4551H24.3337V82.4972H23.8459V80.0581ZM31.3186 92.6529H31.8064V91.6108H32.782V92.6529H33.292V90.2138H32.782V91.256H31.8064V90.2138H31.3186V92.6529ZM36.0416 86.0007H36.5295V84.9586H37.5051V86.0007H37.9929V83.5616H37.5051V84.6038H36.5295V83.5616H36.0416V86.0007Z" fill="#CA3745"/>
<path fill-rule="evenodd" clip-rule="evenodd" d="M31.3203 92.654H31.8081V91.6118H32.7838V92.654H33.2938V90.2148H32.7838V91.257H31.8081V90.2148H31.3203V92.654Z" fill="#CA3745"/>
<path fill-rule="evenodd" clip-rule="evenodd" d="M31.3203 92.6529H31.8081V91.6108H32.7838V92.6529H33.2938V90.2138H32.7838V91.256H31.8081V90.2138H31.3203V92.6529ZM36.0434 89.1495H36.5312V88.1073H37.5069V89.1495H37.9947V86.7103H37.5069V87.7525H36.5312V86.7103H36.0434V89.1495ZM31.3203 82.4972H31.8081V81.4551H32.7838V82.4972H33.2938V80.0581H32.7838V81.1003H31.8081V80.0581H31.3203V82.4972Z" fill="#CA3745"/>
<path fill-rule="evenodd" clip-rule="evenodd" d="M28.9687 86.3567L30.5209 85.0706H31.3192V85.7358H30.5431V86.0462H31.7183V84.7601H30.5431V83.8066H28.9687V84.7601H29.3457V84.1171H30.144V84.7823L28.5696 86.0462L27.0174 84.7601V84.1171H27.7713V84.7823H28.1705V83.8066H26.6183V84.7601H25.4209V86.0462H26.5961V85.7136H25.82V85.0927H26.5961L28.1705 86.3567L26.6183 87.6427H25.82V86.9775H26.5961V86.6671H25.4209V87.9532H26.5961V88.9067H28.1705V87.9532H27.7713V88.5962H26.9953V87.9532L28.5474 86.6671L30.144 87.9532V88.5962H29.3457V87.9532H28.9687V88.9067H30.5209V87.9532H31.7183V86.6671H30.5209V86.9997H31.3192V87.6427H30.5431L28.9687 86.3567V86.3567Z" fill="white"/>
<path fill-rule="evenodd" clip-rule="evenodd" d="M17.552 32.074L18.3059 31.2916H22.8737L26.2885 27.853H30.8564L34.2712 31.3122H38.839L39.5929 32.074L38.839 32.8358H34.249L30.8342 36.295H26.2664L22.8737 32.8358H18.2837L17.5298 32.074H17.552Z" fill="#CA3745"/>
<path fill-rule="evenodd" clip-rule="evenodd" d="M17.9404 32.1365L18.3533 31.7622H23.0604L26.5906 28.1309H30.5132L34.0641 31.7809H38.7711L39.1634 32.1552L38.7711 32.5109H34.0641L30.9054 35.7866H26.1984L23.0604 32.5109H18.3327L17.9404 32.1365V32.1365Z" fill="#CA3745"/>
<path fill-rule="evenodd" clip-rule="evenodd" d="M26.5795 28.1025H30.5269L34.0779 31.7526H38.7843L39.208 32.157L38.7838 32.5415H34.0779L30.9193 35.8172H26.1871L23.0491 32.5415H18.3222L17.9214 32.159L17.9417 32.1377L17.9219 32.1158L18.3433 31.7338H23.0492L26.5795 28.1025ZM17.985 32.1382L18.3458 32.4826H23.0743L26.2123 35.7582H30.8942L34.0529 32.4826H38.7611L39.1214 32.1559L38.7606 31.8115H34.053L30.502 28.1615H26.6044L23.0741 31.7928H18.366L17.985 32.1382Z" fill="black"/>
<path fill-rule="evenodd" clip-rule="evenodd" d="M30.4782 32.4658L31.986 33.9895L31.2321 34.7514L30.833 34.3807H30.4782V34.7514L30.8552 35.1426H31.6313L32.3852 34.3807V33.5983L30.8552 32.0746L32.3852 30.5304V29.7685L31.6313 29.0067H30.8552L30.4782 29.3773V29.7685H30.8552L31.2543 29.3773L32.0082 30.1598L30.4782 31.6834L28.9704 30.1598L30.4782 28.6155V28.2243H30.1012L28.5934 29.7685L27.0634 28.2243H26.6864V28.6155L28.1943 30.1598L26.6864 31.6834L25.1564 30.1598L25.9325 29.3773L26.3095 29.7685H26.6864V29.3773L26.3095 29.0067H25.5334L24.7795 29.7685V30.5304L26.3095 32.0746L24.7795 33.5983V34.3807L25.5334 35.1426H26.3095L26.6864 34.7514V34.3807H26.2651L25.8882 34.7514L25.1121 33.9895L26.6421 32.4658L28.1499 33.9895L26.6421 35.5338V35.9044H27.0191L28.5491 34.3807L30.0569 35.9044H30.4339V35.5338L28.926 33.9895L30.4339 32.4658H30.4782ZM28.5712 30.5304L27.0412 32.0746L28.5712 33.5983L30.0791 32.0746L28.5712 30.5304ZM26.2873 36.2956V39.3841L26.6643 38.9723L27.0412 39.3841L27.4182 38.9723L27.7951 39.3841L28.1943 38.9723L28.5712 39.3841L28.9482 38.9723L29.3252 39.3841L29.7021 38.9723L30.0791 39.3841L30.456 38.9723L30.8552 39.3841V36.2956H26.2651H26.2873ZM30.8552 27.8537V24.7651L30.456 25.1769L30.0791 24.7651L29.7021 25.1769L29.3252 24.7651L28.9482 25.1769L28.5712 24.7651L28.1721 25.1769L27.7951 24.7651L27.4182 25.1769L27.0412 24.7651L26.6643 25.1769L26.2873 24.7651V27.8537H30.8552V27.8537ZM37.2856 31.3128V28.2243L36.9308 28.6361L36.5539 28.2243L36.1769 28.6361L35.7778 28.2243L35.4008 28.6361L35.0239 28.2243L34.6469 28.6361L34.27 28.2243V31.3128H37.3078H37.2856ZM22.8725 31.3128V28.2243L22.4734 28.6361L22.0964 28.2243L21.7195 28.6361L21.3425 28.2243L20.9655 28.6361L20.5886 28.2243L20.1895 28.6361L19.8125 28.2243V31.3128H22.8503H22.8725ZM37.3078 32.8365V35.925L36.9308 35.5132L36.5539 35.925L36.1769 35.5132L35.7778 35.925L35.4008 35.5132L35.0239 35.925L34.6469 35.5132L34.27 35.925V32.8365H37.3078V32.8365ZM22.8503 32.8365V35.925L22.4734 35.5132L22.0964 35.925L21.7195 35.5132L21.3425 35.925L20.9655 35.5132L20.5886 35.925L20.1895 35.5132L19.8125 35.925V32.8365H22.8503V32.8365Z" fill="#FAAE29"/>
<path fill-rule="evenodd" clip-rule="evenodd" d="M30.8342 36.2953V38.2102L31.2333 37.819L31.6103 38.2308L31.9873 37.819L32.3642 38.2308L32.7412 37.819L33.1181 38.2308L33.5173 37.819L33.8942 38.2308L34.2712 37.819V32.8362L30.8342 36.2953V36.2953ZM26.2885 36.2953V38.2102L25.8894 37.819L25.5124 38.2308L25.1355 37.819L24.7585 38.2308L24.3816 37.819L24.0046 38.2308L23.6277 37.819L23.2507 38.2308L22.8516 37.819V32.8362L26.2885 36.2953V36.2953ZM26.2885 27.8534V25.9385L25.8894 26.3091L25.5124 25.9385L25.1355 26.3091L24.7585 25.9385L24.3816 26.3091L24.0046 25.9385L23.6277 26.3091L23.2507 25.9385L22.8516 26.3091V31.3125L26.2885 27.8534V27.8534ZM30.8342 27.8534V25.9385L31.2333 26.3091L31.6103 25.9385L31.9873 26.3091L32.3642 25.9385L32.7412 26.3091L33.1181 25.9385L33.4951 26.3091L33.8942 25.9385L34.2712 26.3091V31.3125L30.8342 27.8534V27.8534ZM19.8137 35.1423L19.4368 34.7511L19.0598 35.1629L18.6828 34.7511L18.3059 35.1629L17.9289 34.7511L17.5298 35.1629L17.1528 34.7511L16.7759 35.1629V28.9858L17.1528 29.3976L17.5298 28.9858L17.9289 29.3976L18.3059 28.9858L18.6828 29.3976L19.0598 28.9858L19.4368 29.3976L19.8137 28.9858V31.3125H18.3059L17.5298 32.0743L18.3059 32.8362H19.8137V35.1423V35.1423ZM37.309 35.1423L37.686 34.7511L38.0629 35.1629L38.4399 34.7511L38.839 35.1629L39.216 34.7511L39.593 35.1629L39.9699 34.7511L40.3469 35.1629V28.9858L39.9699 29.3976L39.593 28.9858L39.216 29.3976L38.839 28.9858L38.4399 29.3976L38.0629 28.9858L37.686 29.3976L37.309 28.9858V31.3125H38.839L39.593 32.0743L38.839 32.8362H37.309V35.1423V35.1423Z" fill="#00843D"/>
<path fill-rule="evenodd" clip-rule="evenodd" d="M24.4045 36.5427C24.4045 36.5427 24.094 36.8309 24.094 36.9957C24.094 37.1398 24.4267 37.4486 24.5819 37.4486C24.7593 37.4486 25.0475 37.1398 25.0475 36.9957C25.0475 36.8515 24.7371 36.5427 24.7371 36.5427V35.925C24.7371 35.925 25.4023 36.9751 25.4023 36.5221C25.4023 36.1926 24.7371 35.6367 24.7371 35.6367H24.4045C24.4045 35.6367 23.7393 36.2956 23.7393 36.5221C23.7393 36.9751 24.4045 35.925 24.4045 35.925V36.5427V36.5427Z" fill="white"/>
<path fill-rule="evenodd" clip-rule="evenodd" d="M28.3738 37.7165C28.3738 37.7165 27.9969 38.1283 27.9969 38.3342C27.9969 38.5401 28.396 38.9931 28.5734 38.9931C28.7951 38.9931 29.1277 38.5607 29.1277 38.3548C29.1277 38.1489 28.7508 37.7165 28.7508 37.7165V36.8517C28.7508 36.8517 29.416 38.2519 29.416 37.6136C29.416 37.2018 28.7508 36.4399 28.7508 36.4399H28.3738C28.3738 36.4399 27.5977 37.3871 27.7086 37.6136C27.7086 38.2519 28.3738 36.8517 28.3738 36.8517V37.7165V37.7165Z" fill="#CA3745"/>
<path d="M24.3765 32.4419C24.7913 32.4419 25.1276 32.2672 25.1276 32.0517C25.1276 31.8363 24.7913 31.6616 24.3765 31.6616C23.9617 31.6616 23.6255 31.8363 23.6255 32.0517C23.6255 32.2672 23.9617 32.4419 24.3765 32.4419Z" fill="#00843D"/>
<path d="M28.5665 32.4419C28.9813 32.4419 29.3175 32.2672 29.3175 32.0517C29.3175 31.8363 28.9813 31.6616 28.5665 31.6616C28.1517 31.6616 27.8154 31.8363 27.8154 32.0517C27.8154 32.2672 28.1517 32.4419 28.5665 32.4419Z" fill="#00843D"/>
<path d="M32.7345 32.4419C33.1492 32.4419 33.4855 32.2672 33.4855 32.0517C33.4855 31.8363 33.1492 31.6616 32.7345 31.6616C32.3197 31.6616 31.9834 31.8363 31.9834 32.0517C31.9834 32.2672 32.3197 32.4419 32.7345 32.4419Z" fill="#00843D"/>
<path fill-rule="evenodd" clip-rule="evenodd" d="M24.3378 27.6477C24.3378 27.6477 24.0274 27.3389 24.0274 27.1948C24.0274 27.0506 24.36 26.7212 24.493 26.7212C24.6704 26.7212 24.9587 27.03 24.9587 27.1742C24.9587 27.3389 24.6482 27.6477 24.6482 27.6477V28.2655C24.6482 28.2655 25.3356 27.1948 25.3356 27.6477C25.3356 27.9772 24.6704 28.5537 24.6704 28.5537H24.3378C24.3378 28.5537 23.6504 27.8948 23.6504 27.6683C23.6504 27.2154 24.3156 28.2449 24.3156 28.2449V27.6272L24.3378 27.6477Z" fill="white"/>
<path fill-rule="evenodd" clip-rule="evenodd" d="M28.2847 26.4533C28.2847 26.4533 27.9077 26.0415 27.9077 25.8356C27.9077 25.6297 28.329 25.1973 28.4842 25.1973C28.706 25.1973 29.0608 25.6091 29.0608 25.815C29.0608 26.0209 28.6838 26.4739 28.6838 26.4739V27.2975C28.6838 27.2975 29.349 25.9179 29.349 26.5562C29.349 26.968 28.6838 27.7504 28.6838 27.7504H28.2625C28.2625 27.7504 27.4864 26.7827 27.5973 26.5562C27.5973 25.9385 28.2625 27.318 28.2625 27.318V26.4533H28.2847Z" fill="#CA3745"/>
<path fill-rule="evenodd" clip-rule="evenodd" d="M32.4976 36.5427C32.4976 36.5427 32.1871 36.8309 32.1871 36.9957C32.1871 37.1398 32.5197 37.4486 32.675 37.4486C32.8524 37.4486 33.1406 37.1398 33.1406 36.9957C33.1406 36.8515 32.8302 36.5427 32.8302 36.5427V35.925C32.8302 35.925 33.4954 36.9751 33.4954 36.5221C33.4954 36.1927 32.8302 35.6367 32.8302 35.6367H32.4754C32.4754 35.6367 31.8102 36.2956 31.8102 36.5221C31.8102 36.9751 32.4754 35.925 32.4754 35.925V36.5427H32.4976ZM32.431 27.6477C32.431 27.6477 32.1206 27.3389 32.1206 27.1742C32.1206 27.0506 32.4532 26.7212 32.5863 26.7212C32.7637 26.7212 33.0519 27.03 33.0519 27.1742C33.0519 27.3389 32.7415 27.6477 32.7415 27.6477V28.2655C32.7415 28.2655 33.4289 27.1948 33.4289 27.6477C33.4289 27.9772 32.7637 28.5537 32.7637 28.5537H32.431C32.431 28.5537 31.7437 27.8948 31.7437 27.6683C31.7437 27.2154 32.4089 28.2449 32.4089 28.2449V27.6272L32.431 27.6477Z" fill="white"/>
<path fill-rule="evenodd" clip-rule="evenodd" d="M21.101 34.4015C21.101 34.4015 20.6796 34.6898 20.6796 34.8133C20.6796 34.9575 21.1231 35.2663 21.3227 35.2457C21.5444 35.2457 21.9436 34.9781 21.9436 34.8339C21.9436 34.6898 21.5223 34.4015 21.5223 34.4015V33.825C21.5223 33.825 22.2762 34.7516 22.2762 34.3398C22.2762 34.0515 21.5223 33.5367 21.5223 33.5367H21.101C21.101 33.5367 20.2362 34.1956 20.3692 34.3398C20.3692 34.7516 21.101 33.825 21.101 33.825V34.4015V34.4015ZM21.0123 30.057C21.0123 30.057 20.591 29.7687 20.591 29.6246C20.591 29.4805 21.0344 29.1922 21.234 29.2128C21.4557 29.2128 21.8549 29.4805 21.8549 29.6246C21.8549 29.7687 21.4336 30.0364 21.4336 30.0364V30.6129C21.4336 30.6129 22.1875 29.6864 22.1875 30.1188C22.1875 30.3865 21.4336 30.9012 21.4336 30.9012H21.0123C21.0123 30.9012 20.1475 30.2629 20.2805 30.1188C20.2805 29.707 21.0123 30.6129 21.0123 30.6129V30.057V30.057ZM35.7136 34.2986C35.7136 34.2986 35.2702 34.5868 35.2702 34.731C35.2702 34.8751 35.7358 35.1634 35.9354 35.1634C36.1571 35.1634 36.5562 34.8751 36.5562 34.7516C36.5562 34.5868 36.1128 34.2986 36.1128 34.2986V33.7426C36.1128 33.7426 36.8667 34.6692 36.8667 34.2368C36.8667 33.9691 36.1349 33.4544 36.1349 33.4544H35.6915C35.6915 33.4544 34.8488 34.0927 34.9597 34.2368C34.9597 34.6692 35.7136 33.7426 35.7136 33.7426V34.3192V34.2986ZM35.6249 29.9746C35.6249 29.9746 35.1815 29.6864 35.1815 29.5423C35.1815 29.3981 35.6471 29.1099 35.8467 29.1099C36.0684 29.1099 36.4676 29.3981 36.4676 29.5217C36.4676 29.6864 36.0241 29.9541 36.0241 29.9541V30.5306C36.0241 30.5306 36.778 29.604 36.778 30.0158C36.778 30.3041 36.0462 30.8188 36.0462 30.8188H35.6028C35.6028 30.8188 34.7602 30.1806 34.871 30.0364C34.871 29.604 35.6249 30.5306 35.6249 30.5306V29.9541V29.9746Z" fill="#CA3745"/>
<path fill-rule="evenodd" clip-rule="evenodd" d="M17.9967 34.3592C17.8636 34.0915 17.908 33.968 17.908 33.8239C17.908 33.6797 18.2849 33.4121 18.418 33.4121C18.5954 33.4121 18.8836 33.7003 18.8836 33.8651C18.8836 34.0092 18.8836 34.1327 18.8171 34.4004L18.6397 33.968C18.3958 34.5857 18.3736 34.5857 18.2406 33.9474L18.0188 34.3592H17.9967ZM17.9967 29.9323C17.8858 30.2 17.908 30.3236 17.908 30.4677C17.908 30.6118 18.2849 30.8795 18.4402 30.8795C18.6175 30.8795 18.9058 30.5912 18.9058 30.4265C18.9058 30.2824 18.9058 30.1588 18.8393 29.8912L18.6397 30.3236C18.418 29.7058 18.3958 29.7058 18.2406 30.3441L18.0188 29.9323H17.9967ZM38.5076 34.2974C38.3746 34.0298 38.3968 33.9062 38.3968 33.7621C38.3968 33.618 38.7959 33.3503 38.929 33.3503C39.1063 33.3503 39.3946 33.6592 39.3946 33.8033C39.3946 33.9474 39.3946 34.0915 39.3281 34.3386L39.1285 33.9062C38.9068 34.5239 38.8846 34.5445 38.7294 33.9062L38.5076 34.2974ZM38.5076 29.8912C38.3746 30.1382 38.4189 30.2618 38.4189 30.4265C38.4189 30.55 38.7959 30.8383 38.929 30.8383C39.1063 30.8383 39.4168 30.5295 39.4168 30.3853C39.4168 30.2206 39.4168 30.0971 39.3503 29.8294L39.1285 30.2824C38.9068 29.6441 38.9068 29.6235 38.7516 30.2824L38.5298 29.8706L38.5076 29.8912Z" fill="white"/>
<path fill-rule="evenodd" clip-rule="evenodd" d="M26.222 39.4659V38.3541H22.6742V36.1716H19.5255V35.4509H16.7759V28.8621H19.5255V28.1415H22.6742V25.959H26.222V24.8677H30.9229V25.959H34.4708V28.1415H37.5973V28.8827H40.369V35.4509H37.6195V36.1716H34.4929V38.3541H30.9451V39.4454H26.2442L26.222 39.4659ZM25.8229 39.816V38.7247H22.275V36.5422H19.1485V35.8009H16.3989V28.5121H19.1485V27.7915H22.275V25.5883H25.8229V24.4971H31.322V25.5883H34.8699V27.7915H37.9964V28.5121H40.746V35.8009H37.9964V36.5422H34.8477V38.7247H31.2999V39.816H25.8229V39.816Z" fill="#CA3745"/>
<path fill-rule="evenodd" clip-rule="evenodd" d="M25.8126 24.4863H31.3332V25.5776H34.881V27.7807H38.0075V28.5014H40.7571V35.8116H38.0075V36.5528H34.8588V38.7353H31.311V39.8266H25.8233V39.8159H25.8126V38.7353H22.2648V36.5528H19.1383V35.8116H16.3887V28.5014H19.1383V27.7807H22.2648V25.5776H25.8126V24.4863ZM25.834 39.8052H31.2896V38.714H34.8375V36.5314H37.9862V35.7902H40.7357V28.5227H37.9862V27.8021H34.8596V25.599H31.3118V24.5077H25.834V25.599H22.2862V27.8021H19.1596V28.5227H16.41V35.7902H19.1596V36.5314H22.2862V38.714H25.834V39.8052ZM26.2118 24.8569H30.934V25.9482H34.4819V28.1307H37.6084V28.872H40.3802V35.4615H37.6306V36.1822H34.504V38.3647H30.9562V39.456H26.2488L26.2118 39.4904V38.3647H22.6639V36.1822H19.5152V35.4615H16.7656V28.8514H19.5152V28.1307H22.6639V25.9482H26.2118V24.8569ZM26.2331 24.8783V25.9696H22.6853V28.1521H19.5366V28.8728H16.787V35.4402H19.5366V36.1608H22.6853V38.3434H26.2331V39.4414L26.2404 39.4346H30.9348V38.3434H34.4827V36.1608H37.6092V35.4402H40.3588V28.8934H37.587V28.1521H34.4605V25.9696H30.9127V24.8783H26.2331Z" fill="black"/>
</g>
<defs>
<clipPath id="clip0_5158_354477">
<rect x="0.675293" y="0.522461" width="110" height="110" rx="55" fill="white"/>
</clipPath>
</defs>
</svg>
