<svg width="111" height="111" viewBox="0 0 111 111" fill="none" xmlns="http://www.w3.org/2000/svg">
<g clip-path="url(#clip0_5162_125481)">
<path fill-rule="evenodd" clip-rule="evenodd" d="M0.525879 0.763184H110.526V110.763H0.525879V0.763184Z" fill="black"/>
<path fill-rule="evenodd" clip-rule="evenodd" d="M73.8516 0.763672H110.525V110.764H73.8516V0.763672Z" fill="#009900"/>
<path fill-rule="evenodd" clip-rule="evenodd" d="M37.1997 0.763672H73.8521V110.764H37.1997V0.763672Z" fill="#BF0000"/>
<g clip-path="url(#clip1_5162_125481)">
<path d="M110.526 0.763672H0.525879V110.764H110.526V0.763672Z" fill="white"/>
<path d="M55.7476 60.2246C69.0962 60.2246 79.9175 49.4034 79.9175 36.0547C79.9175 22.706 69.0962 11.8848 55.7476 11.8848C42.3989 11.8848 31.5776 22.706 31.5776 36.0547C31.5776 49.4034 42.3989 60.2246 55.7476 60.2246Z" fill="#29166F"/>
<path d="M11.9814 43.645C16.1128 31.0294 29.7876 24.0513 42.4591 28.1269C55.0748 32.2583 62.0529 45.9331 57.9773 58.6046C53.8459 71.2804 40.171 78.2542 27.4996 74.1228C14.8281 69.9913 7.8521 56.3165 11.9814 43.645Z" fill="#29166F"/>
<path d="M28.6701 95.1116C17.8979 87.2956 15.4981 72.1126 23.37 61.3489C31.186 50.5745 46.3582 48.1747 57.0854 55.9907C67.8598 63.8626 70.2596 78.979 62.4436 89.762C54.6276 100.545 39.4467 102.926 28.6701 95.1116Z" fill="#29166F"/>
<path d="M82.8113 95.1127C72.0369 102.929 56.8539 100.527 49.04 89.7545C41.2262 78.9822 43.6324 63.8529 54.4068 55.9789C65.1254 48.1629 80.3084 50.5648 88.1223 61.3371C95.9942 72.1137 93.5943 87.2967 82.8113 95.1127Z" fill="#29166F"/>
<path d="M99.5107 43.645C103.642 56.3208 96.664 69.9935 83.9925 74.1228C71.321 78.2521 57.6441 71.2761 53.5126 58.6046C49.4306 45.9288 56.4151 32.2562 69.0308 28.1269C81.7023 24.0513 95.3792 31.0294 99.5107 43.645Z" fill="#29166F"/>
<path d="M55.7466 56.4858C67.0307 56.4858 76.1782 47.3383 76.1782 36.0542C76.1782 24.7701 67.0307 15.6226 55.7466 15.6226C44.4625 15.6226 35.3149 24.7701 35.3149 36.0542C35.3149 47.3383 44.4625 56.4858 55.7466 56.4858Z" fill="white"/>
<path d="M15.5648 44.8062C19.0259 34.0876 30.5802 28.2267 41.2987 31.6878C52.0173 35.1489 57.8782 46.7591 54.4171 57.4218C50.9452 68.1489 39.3351 74.0679 28.6702 70.5509C17.9538 67.0898 12.037 55.5333 15.5648 44.8062Z" fill="white"/>
<path d="M30.9048 92.0989C21.8062 85.5118 19.733 72.6727 26.3931 63.5741C32.9802 54.4196 45.8193 52.4022 54.9179 59.0624C64.0166 65.6495 66.0898 78.4886 59.4297 87.5872C52.8426 96.6751 40.0056 98.7333 30.9048 92.0989Z" fill="white"/>
<path d="M80.5874 92.0988C71.4887 98.7418 58.6497 96.6771 52.0626 87.5871C45.4282 78.4777 47.4843 65.6472 56.5829 59.0515C65.6815 52.4086 78.5206 54.4173 85.1077 63.5632C91.7507 72.6726 89.686 85.5117 80.5874 92.0988Z" fill="white"/>
<path d="M95.9381 44.8084C99.4551 55.5269 93.5383 67.0812 82.8197 70.5424C72.157 74.0594 60.5469 68.1426 57.0858 57.424C53.6246 46.7721 59.4856 35.1619 70.2041 31.7029C80.9227 28.2439 92.4791 34.1006 95.9381 44.8084Z" fill="white"/>
<path d="M94.3737 45.32C97.2204 54.0835 93.1448 63.4614 85.1634 67.4253C87.1871 71.3326 87.743 75.8359 86.7301 80.1181C85.7173 84.4002 83.2028 88.1773 79.643 90.7639C76.0832 93.3505 71.714 94.5752 67.3284 94.2156C62.9429 93.8561 58.8315 91.9362 55.7405 88.8044C52.6476 91.9273 48.5385 93.8394 44.1576 94.1943C39.7766 94.5492 35.4133 93.3236 31.858 90.7393C28.3027 88.155 25.7903 84.3829 24.776 80.1062C23.7617 75.8295 24.3124 71.331 26.3284 67.4253C18.3448 63.4614 14.2757 54.0835 17.1181 45.32C18.4932 41.1466 21.3116 37.6005 25.0669 35.3189C28.8221 33.0372 33.268 32.1696 37.6056 32.8719C38.2543 28.5242 40.4428 24.5541 43.7727 21.6843C47.1025 18.8144 51.3522 17.2358 55.748 17.2358C60.1439 17.2358 64.3936 18.8144 67.7234 21.6843C71.0532 24.5541 73.2417 28.5242 73.8905 32.8719C78.2274 32.1707 82.6723 33.0388 86.4266 35.3204C90.1809 37.602 92.9987 41.1475 94.3737 45.32Z" fill="#DA251D"/>
<path d="M92.0306 46.0963C93.3106 50.1089 92.9557 54.4645 91.0429 58.2169C89.1301 61.9693 85.8139 64.8154 81.8147 66.1369C81.703 66.1928 81.5999 66.1928 81.4796 66.2486C81.5191 66.3625 81.5944 66.4606 81.6944 66.5279C86.8292 73.6178 85.2114 83.6102 78.1774 88.7449C71.0876 93.8797 61.0952 92.3178 55.9605 85.2279C55.9046 85.1162 55.7929 85.0131 55.7456 84.8928C55.6897 85.0045 55.578 85.1076 55.5308 85.2279C50.396 92.3178 40.4036 93.8797 33.3138 88.7449C26.2798 83.6102 24.662 73.6178 29.7968 66.5279C29.8968 66.4606 29.9722 66.3625 30.0116 66.2486C29.8999 66.1928 29.7968 66.1928 29.6765 66.1369C27.6899 65.4918 25.8499 64.4617 24.2615 63.1055C22.6731 61.7493 21.3673 60.0935 20.4188 58.2327C19.4702 56.3718 18.8975 54.3424 18.7333 52.2602C18.5691 50.178 18.8166 48.0839 19.4617 46.0974C20.1068 44.1108 21.1369 42.2708 22.4931 40.6824C23.8493 39.0939 25.5051 37.7882 27.366 36.8397C29.2268 35.8911 31.2562 35.3184 33.3384 35.1542C35.4206 34.99 37.5147 35.2375 39.5013 35.8826L39.8364 36.0502V35.6592C39.8364 31.4398 41.5126 27.3932 44.4961 24.4097C47.4797 21.4261 51.5262 19.75 55.7456 19.75C59.965 19.75 64.0115 21.4261 66.9951 24.4097C69.9786 27.3932 71.6548 31.4398 71.6548 35.6592V35.9986C71.7735 35.9871 71.8881 35.9489 71.9899 35.8869C76.0017 34.6066 80.3566 34.9606 84.1089 36.8721C87.8611 38.7836 90.7078 42.0983 92.0306 46.0963V46.0963Z" fill="white"/>
<path d="M55.7475 57.6575C62.8691 57.6575 68.6424 51.8843 68.6424 44.7626C68.6424 37.6409 62.8691 31.8677 55.7475 31.8677C48.6258 31.8677 42.8525 37.6409 42.8525 44.7626C42.8525 51.8843 48.6258 57.6575 55.7475 57.6575Z" fill="#29166F"/>
<path d="M55.7468 50.5121C58.922 50.5121 61.496 47.9381 61.496 44.7629C61.496 41.5877 58.922 39.0137 55.7468 39.0137C52.5716 39.0137 49.9976 41.5877 49.9976 44.7629C49.9976 47.9381 52.5716 50.5121 55.7468 50.5121Z" fill="white"/>
<path d="M55.7414 33.2617L57.082 38.3965C56.203 38.1732 55.282 38.1732 54.4029 38.3965L55.7414 33.2617ZM57.7502 38.5641L61.4906 34.7678L60.0941 39.9025C59.4096 39.3089 58.6155 38.855 57.7566 38.5662L57.7502 38.5641ZM60.5969 40.4053L65.7316 39.0088L61.9354 42.7492C61.6706 41.8795 61.2156 41.0795 60.6033 40.4074L60.5969 40.4053ZM62.1609 43.4131L67.2957 44.7537L62.1609 46.1502C62.3098 45.2446 62.3098 44.3208 62.1609 43.4152V43.4131ZM61.9461 46.7625L65.7424 50.5588L60.6076 49.1623C61.2217 48.4719 61.6778 47.6559 61.9439 46.7711L61.9461 46.7625ZM60.1049 49.6092L61.5014 54.7439L57.7609 51.0035C58.6331 50.719 59.4319 50.2459 60.1006 49.6178L60.1049 49.6092ZM57.0971 51.1732L55.7414 56.3166L54.4008 51.1818C55.2876 51.3307 56.1931 51.3307 57.0799 51.1818L57.0971 51.1732ZM53.7477 51.0057L49.9965 54.7547L51.393 49.6199C52.0621 50.2516 52.8625 50.7278 53.7369 51.0143L53.7477 51.0057ZM50.901 49.1645L45.7662 50.5609L49.5625 46.7646C49.8241 47.654 50.2773 48.4753 50.8902 49.1709L50.901 49.1645ZM49.3369 46.1566L44.2021 44.7602L49.3369 43.4195C49.188 44.3251 49.188 45.2489 49.3369 46.1545V46.1566ZM49.5518 42.7514L45.7555 39.0066L50.8902 40.4031C50.2748 41.0765 49.8176 41.8787 49.5518 42.7514V42.7514ZM51.393 39.9047L49.9965 34.7699L53.7369 38.5662C52.8756 38.8549 52.0793 39.3096 51.393 39.9047V39.9047Z" fill="white"/>
<path d="M38.7204 60.8955C40.2607 60.901 41.7648 61.3632 43.0424 62.2236C44.3201 63.0839 45.3139 64.3038 45.8983 65.729C46.4826 67.1542 46.6312 68.7207 46.3253 70.2303C46.0194 71.74 45.2727 73.125 44.1796 74.2103C43.0865 75.2955 41.6962 76.0323 40.1844 76.3274C38.6726 76.6225 37.1072 76.4626 35.6863 75.8681C34.2653 75.2735 33.0525 74.2709 32.2014 72.9872C31.3502 71.7034 30.8988 70.196 30.9043 68.6557C30.9219 66.5933 31.7528 64.6212 33.2164 63.1681C34.6799 61.715 36.6579 60.8983 38.7204 60.8955Z" fill="#0077BD"/>
<path d="M38.7204 62.5132C39.9426 62.5077 41.1389 62.8654 42.1575 63.541C43.176 64.2165 43.9709 65.1794 44.4413 66.3075C44.9117 67.4356 45.0363 68.678 44.7994 69.8771C44.5625 71.0761 43.9747 72.1777 43.1106 73.0421C42.2465 73.9065 41.145 74.4947 39.9461 74.7321C38.7471 74.9694 37.5047 74.8452 36.3764 74.3753C35.2482 73.9053 34.285 73.1107 33.6091 72.0924C32.9332 71.074 32.575 69.8778 32.5801 68.6556C32.5841 67.0282 33.2322 65.4684 34.3828 64.3174C35.5334 63.1664 37.0929 62.5178 38.7204 62.5132Z" fill="white"/>
<path d="M55.7403 60.8955C57.2809 60.8998 58.7856 61.3609 60.0641 62.2204C61.3426 63.08 62.3375 64.2995 62.9228 65.7246C63.5082 67.1496 63.6577 68.7163 63.3525 70.2264C63.0473 71.7365 62.3011 73.1221 61.2083 74.208C60.1154 75.2939 58.7251 76.0313 57.2131 76.3269C55.7011 76.6225 54.1354 76.4631 52.7141 75.8687C51.2928 75.2743 50.0796 74.2718 49.2282 72.9878C48.3767 71.7039 47.9252 70.1963 47.9307 68.6557C47.9483 66.5944 48.7782 64.6233 50.2404 63.1704C51.7026 61.7174 53.679 60.9 55.7403 60.8955V60.8955Z" fill="black"/>
<path d="M55.74 62.5118C56.9624 62.5054 58.1591 62.8624 59.1782 63.5374C60.1974 64.2124 60.993 65.1751 61.464 66.3031C61.935 67.4311 62.0603 68.6736 61.8238 69.873C61.5874 71.0723 60.9999 72.1743 60.136 73.0391C59.2721 73.904 58.1707 74.4926 56.9716 74.7303C55.7725 74.968 54.5298 74.8441 53.4013 74.3742C52.2728 73.9044 51.3094 73.1098 50.6333 72.0914C49.9572 71.0729 49.599 69.8766 49.6041 68.6542C49.608 67.0275 50.2555 65.4684 51.4052 64.3175C52.5549 63.1666 54.1133 62.5175 55.74 62.5118V62.5118Z" fill="white"/>
<path d="M72.8271 60.8955C74.3675 60.9006 75.8718 61.3624 77.1498 62.2225C78.4277 63.0826 79.4219 64.3024 80.0066 65.7275C80.5912 67.1527 80.7402 68.7192 80.4345 70.229C80.1288 71.7388 79.3822 73.124 78.2892 74.2095C77.1963 75.295 75.8059 76.032 74.294 76.3272C72.7822 76.6225 71.2167 76.4628 69.7956 75.8683C68.3745 75.2738 67.1617 74.2712 66.3104 72.9874C65.4591 71.7035 65.0077 70.1961 65.0132 68.6557C65.0308 66.5937 65.8614 64.6219 67.3245 63.1688C68.7876 61.7158 70.765 60.8988 72.8271 60.8955V60.8955Z" fill="#DA251D"/>
<path d="M72.8273 62.5118C74.05 62.5042 75.2473 62.8601 76.2673 63.5343C77.2873 64.2086 78.0839 65.1707 78.5559 66.2986C79.0279 67.4265 79.1541 68.6692 78.9184 69.869C78.6827 71.0687 78.0957 72.1714 77.232 73.0368C76.3684 73.9023 75.267 74.4916 74.0677 74.7298C72.8685 74.9681 71.6255 74.8445 70.4966 74.3748C69.3677 73.9052 68.4039 73.1106 67.7275 72.0921C67.0511 71.0735 66.6927 69.8769 66.6978 68.6542C66.7112 67.0315 67.3609 65.4789 68.5072 64.3303C69.6534 63.1816 71.2046 62.5287 72.8273 62.5118V62.5118Z" fill="white"/>
<path d="M47.2049 67.9263C49.1111 67.9398 50.9478 68.6439 52.3747 69.908C53.8016 71.1721 54.7219 72.9106 54.965 74.8013C54.3531 74.7005 53.7543 74.5319 53.1797 74.2985C52.8628 72.9511 52.1009 71.7499 51.0172 70.8888C49.9335 70.0276 48.5912 69.5569 47.207 69.5526C46.9636 69.5412 46.7197 69.56 46.4809 69.6085C46.4809 69.3292 46.5367 68.994 46.5367 68.6589C46.5367 68.444 46.4809 68.212 46.4809 67.9327L47.2049 67.9263ZM54.965 76.4663C54.8285 77.8707 54.3138 79.2119 53.4757 80.3471C52.6376 81.4823 51.5075 82.3691 50.2055 82.9131C48.9035 83.457 47.4784 83.6379 46.0818 83.4364C44.6852 83.2349 43.3694 82.6586 42.2742 81.7688C41.1791 80.8789 40.3457 79.7089 39.8627 78.3831C39.3797 77.0572 39.2651 75.6253 39.5311 74.2395C39.7971 72.8538 40.4338 71.5661 41.3735 70.5134C42.3132 69.4607 43.5206 68.6825 44.8674 68.2614V68.6546C44.8701 69.1437 44.8138 69.6313 44.6998 70.1069C43.7017 70.5519 42.8401 71.2546 42.2035 72.1428C41.5668 73.031 41.1781 74.0727 41.0773 75.1608C40.9764 76.2489 41.1671 77.3443 41.6297 78.3343C42.0923 79.3244 42.8101 80.1734 43.7094 80.7942C44.6087 81.4151 45.6571 81.7853 46.7468 81.8669C47.8366 81.9484 48.9284 81.7384 49.9101 81.2584C50.8918 80.7784 51.728 80.0457 52.3328 79.1355C52.9377 78.2254 53.2893 77.1706 53.3516 76.0796C53.8736 76.2676 54.4147 76.3979 54.965 76.4685V76.4663Z" fill="#F1A737"/>
<path d="M64.2868 67.9263C66.1982 67.9218 68.0445 68.6196 69.4752 69.8871C70.9058 71.1546 71.8211 72.9034 72.047 74.8013C71.4367 74.6931 70.8387 74.5247 70.2616 74.2986C69.9525 72.9471 69.1928 71.741 68.1073 70.8785C67.0219 70.016 65.6754 69.5485 64.289 69.5527C64.0097 69.5527 63.7862 69.6085 63.507 69.6085C63.507 69.3292 63.5628 68.9941 63.5628 68.6589C63.57 68.4156 63.5512 68.1721 63.507 67.9327L64.2868 67.9263ZM72.047 76.4663C71.9168 77.8697 71.4089 79.2115 70.5773 80.3494C69.7458 81.4873 68.6215 82.3788 67.3241 82.9291C66.0266 83.4794 64.6043 83.668 63.2082 83.4749C61.8121 83.2818 60.4944 82.7142 59.395 81.8324C58.2956 80.9506 57.4555 79.7875 56.964 78.4666C56.4725 77.1457 56.3479 75.7164 56.6035 74.3304C56.859 72.9444 57.4852 71.6535 58.4155 70.5947C59.3458 69.536 60.5454 68.749 61.887 68.3173V68.6546C61.8897 69.1437 61.8335 69.6313 61.7195 70.107C60.7277 70.5587 59.8733 71.2652 59.2434 72.1545C58.6135 73.0439 58.2306 74.0843 58.1336 75.1698C58.0367 76.2553 58.2291 77.3471 58.6914 78.334C59.1537 79.3209 59.8693 80.1676 60.7654 80.788C61.6614 81.4083 62.7058 81.7801 63.7923 81.8655C64.8788 81.9508 65.9685 81.7467 66.9504 81.2738C67.9323 80.801 68.7713 80.0764 69.382 79.1738C69.9928 78.2712 70.3533 77.2228 70.4271 76.1355C70.954 76.2997 71.4959 76.4112 72.0448 76.4685L72.047 76.4663Z" fill="#009240"/>
</g>
</g>
<defs>
<clipPath id="clip0_5162_125481">
<rect x="0.525879" y="0.762695" width="110" height="110" rx="55" fill="white"/>
</clipPath>
<clipPath id="clip1_5162_125481">
<rect x="0.525879" y="0.763672" width="110" height="110" rx="55" fill="white"/>
</clipPath>
</defs>
</svg>
