<svg width="111" height="111" viewBox="0 0 111 111" fill="none" xmlns="http://www.w3.org/2000/svg">
<g clip-path="url(#clip0_5158_354457)">
<path fill-rule="evenodd" clip-rule="evenodd" d="M0.402832 0.522461H110.403V110.522H0.402832V0.522461Z" fill="#E30A17"/>
<path fill-rule="evenodd" clip-rule="evenodd" d="M75.3408 55.501C75.3408 70.6689 62.8154 82.9795 47.3896 82.9795C31.9639 82.9795 19.4385 70.6689 19.4385 55.4795C19.4385 40.29 31.9424 28.0225 47.3682 28.0225C62.7939 28.0225 75.3623 40.3115 75.3623 55.501H75.3408Z" fill="white"/>
<path fill-rule="evenodd" clip-rule="evenodd" d="M76.7368 55.5C76.7368 67.6387 66.7251 77.4785 54.3716 77.4785C42.0181 77.4785 32.0278 67.6387 32.0278 55.5C32.0278 43.3613 42.0181 33.5215 54.3716 33.5215C66.7251 33.5215 76.7153 43.3613 76.7153 55.5H76.7368Z" fill="#E30A17"/>
<path fill-rule="evenodd" clip-rule="evenodd" d="M80.7764 42.6528L80.5615 52.8149L71.0654 55.3931L80.4111 58.7231L80.1963 68.0259L86.2764 60.7642L95.4932 63.9438L90.165 56.145L96.6533 48.3892L86.6846 51.1392L80.7764 42.6528V42.6528Z" fill="white"/>
</g>
<defs>
<clipPath id="clip0_5158_354457">
<rect x="0.402832" y="0.522461" width="110" height="110" rx="55" fill="white"/>
</clipPath>
</defs>
</svg>
