<svg width="111" height="111" viewBox="0 0 111 111" fill="none" xmlns="http://www.w3.org/2000/svg">
<g clip-path="url(#clip0_5158_354373)">
<path fill-rule="evenodd" clip-rule="evenodd" d="M-27.4519 74.0005H137.523V92.3384H-27.4519V74.0005Z" fill="#FFE700"/>
<path fill-rule="evenodd" clip-rule="evenodd" d="M-27.4519 55.6631H137.523V74.001H-27.4519V55.6631Z" fill="black"/>
<path fill-rule="evenodd" clip-rule="evenodd" d="M-27.4519 37.3467H137.523V55.6624H-27.4519V37.3467Z" fill="#DE3908"/>
<path fill-rule="evenodd" clip-rule="evenodd" d="M-27.4519 19.0088H137.523V37.3467H-27.4519V19.0088Z" fill="#FFE700"/>
<path fill-rule="evenodd" clip-rule="evenodd" d="M-27.4519 0.671387H137.523V19.0093H-27.4519V0.671387Z" fill="black"/>
<path fill-rule="evenodd" clip-rule="evenodd" d="M72.1749 55.6626C72.1749 60.2056 70.3702 64.5626 67.1578 67.775C63.9454 70.9874 59.5885 72.7921 55.0454 72.7921C50.5024 72.7921 46.1455 70.9874 42.9331 67.775C39.7207 64.5626 37.916 60.2056 37.916 55.6626C37.916 51.1196 39.7207 46.7627 42.9331 43.5503C46.1455 40.3379 50.5024 38.5332 55.0454 38.5332C59.5885 38.5332 63.9454 40.3379 67.1578 43.5503C70.3702 46.7627 72.1749 51.1196 72.1749 55.6626V55.6626Z" fill="#FFFDFF"/>
<path fill-rule="evenodd" clip-rule="evenodd" d="M55.0466 38.6332C50.5301 38.6332 46.1985 40.4274 43.0048 43.621C39.8111 46.8147 38.0169 51.1463 38.0169 55.6628C38.0169 60.1794 39.8111 64.5109 43.0048 67.7046C46.1985 70.8983 50.5301 72.6925 55.0466 72.6925C59.5631 72.6925 63.8947 70.8983 67.0884 67.7046C70.2821 64.5109 72.0763 60.1794 72.0763 55.6628C72.0763 51.1463 70.2821 46.8147 67.0884 43.621C63.8947 40.4274 59.5631 38.6332 55.0466 38.6332ZM42.8637 43.4799C46.0948 40.2488 50.4771 38.4336 55.0466 38.4336C59.6161 38.4336 63.9984 40.2488 67.2295 43.4799C70.4606 46.711 72.2758 51.0933 72.2758 55.6628C72.2758 60.2323 70.4606 64.6146 67.2295 67.8457C63.9984 71.0768 59.6161 72.892 55.0466 72.892C50.4771 72.892 46.0948 71.0768 42.8637 67.8457C39.6326 64.6146 37.8174 60.2323 37.8174 55.6628C37.8174 51.0933 39.6326 46.711 42.8637 43.4799Z" fill="black"/>
<path fill-rule="evenodd" clip-rule="evenodd" d="M52.0189 42.5356L50.9102 40.4956C51.3536 40.0521 52.0632 39.7417 53.2163 39.7417L53.1054 41.9591L52.0189 42.5356Z" fill="#DE3108"/>
<path fill-rule="evenodd" clip-rule="evenodd" d="M51.0348 40.5144L52.0601 42.4009L53.0093 41.8972L53.112 39.8421C52.0857 39.8595 51.4444 40.1343 51.0348 40.5144ZM50.8403 40.4247C51.3076 39.9575 52.0456 39.6416 53.217 39.6416H53.3219L53.2029 42.0204L51.9791 42.6698L50.7876 40.4775L50.8403 40.4247Z" fill="black"/>
<path fill-rule="evenodd" clip-rule="evenodd" d="M53.1062 42.0036L53.2392 39.7418C53.2392 39.7418 55.5453 39.6088 56.787 41.0945L55.5675 42.8684L53.084 41.9814L53.1062 42.0036Z" fill="#FFE700"/>
<path fill-rule="evenodd" clip-rule="evenodd" d="M53.3337 39.8391L53.2113 41.921L55.529 42.7488L56.6616 41.1013C56.0639 40.4225 55.229 40.1051 54.5274 39.9589C54.1679 39.884 53.8463 39.8547 53.6147 39.8441C53.499 39.8388 53.4059 39.8383 53.3421 39.839C53.3393 39.839 53.3365 39.839 53.3337 39.8391ZM53.1991 42.1285L55.6065 42.9883L56.9125 41.0887L56.8639 41.0306C56.2226 40.2634 55.3105 39.9182 54.5681 39.7635C54.1959 39.686 53.8634 39.6557 53.6238 39.6448C53.5039 39.6393 53.4071 39.6387 53.3399 39.6394C53.3063 39.6398 53.2801 39.6405 53.2621 39.6412C53.2532 39.6415 53.2462 39.6418 53.2415 39.642L53.236 39.6423L53.2344 39.6424L53.234 39.6424C53.2339 39.6424 53.2337 39.6424 53.2395 39.742L53.2337 39.6424L53.1451 39.6475L53.0068 41.9979L53.0466 42.0002L53.0137 42.0521L53.193 42.2315L53.1991 42.1285Z" fill="black"/>
<path fill-rule="evenodd" clip-rule="evenodd" d="M55.6108 42.8462L56.7417 41.0723C57.4956 41.8705 57.8061 42.4471 57.9391 43.2897C57.9391 43.334 56.143 43.7331 56.143 43.7331L55.6108 42.8462Z" fill="#DE3108"/>
<path fill-rule="evenodd" clip-rule="evenodd" d="M56.728 40.9106L56.8159 41.0037C57.5797 41.8125 57.9023 42.4066 58.0393 43.274L58.0405 43.2818V43.2896C58.0405 43.3312 58.016 43.3565 58.01 43.3625C58.0009 43.3715 57.9919 43.3773 57.9872 43.3802C57.9771 43.3863 57.9663 43.391 57.9582 43.3943C57.9409 43.4014 57.9182 43.4089 57.893 43.4167C57.8416 43.4326 57.7697 43.4523 57.6851 43.4742C57.5156 43.5182 57.2901 43.5724 57.0654 43.6251C56.8406 43.6779 56.6158 43.7292 56.4473 43.7674C56.363 43.7864 56.2928 43.8022 56.2436 43.8132L56.1663 43.8305C56.1663 43.8305 56.1663 43.8305 56.1446 43.7331L56.1663 43.8305L56.0961 43.8461L55.4951 42.8445L56.728 40.9106ZM56.1931 43.62L56.2 43.6185C56.249 43.6075 56.3191 43.5918 56.4032 43.5727C56.5715 43.5346 56.7957 43.4834 57.0199 43.4308C57.2442 43.3782 57.4678 43.3244 57.635 43.281C57.716 43.26 57.7826 43.2418 57.8292 43.2275C57.6991 42.4836 57.4158 41.9491 56.7582 41.2345L55.7298 42.8477L56.1931 43.62Z" fill="black"/>
<path fill-rule="evenodd" clip-rule="evenodd" d="M52.5959 71.8272C52.5959 71.8272 54.7246 69.3881 58.849 69.8981C58.2281 68.9003 56.2103 69.0111 56.2103 69.0111C56.2103 69.0111 55.5894 64.2659 56.0773 64.0442C56.5651 63.8224 58.6273 64.0442 58.6273 64.0442C58.9155 64.0442 59.3812 63.3124 59.0042 62.8468C58.6273 62.3811 57.5407 60.585 57.9842 60.2302C58.4277 59.8754 60.8668 60.4298 60.8668 60.4298L53.9929 51.6045C53.9929 51.6045 53.2833 48.2784 54.7025 46.7041C56.3877 45.2849 56.2103 43.7771 56.166 43.7993C55.9442 42.2471 53.5938 41.1384 51.9972 42.5575C51.0659 43.6884 51.6868 44.5532 51.6868 44.5532C51.6868 44.5532 49.2477 45.2184 49.1368 45.6619C49.0481 46.061 51.9085 45.5732 51.9085 45.5732L51.6425 47.5245C51.6425 47.5245 46.0546 52.6245 50.312 56.9928C50.3785 56.9928 50.4672 56.7933 50.4672 56.7933C50.4672 56.7933 51.9751 58.6559 53.5494 59.055C55.0351 60.585 54.8799 60.3411 54.8799 60.3411C54.8799 60.3411 55.1903 62.7359 54.902 63.2237C53.3418 63.0306 51.7647 63.0157 50.2011 63.1794C49.6911 63.3346 47.7398 63.2459 48.2055 66.4168L48.915 64.7981C48.915 64.7981 48.8707 65.9511 49.3364 66.3503C49.2477 65.1529 49.7798 64.3324 49.7798 64.3324C49.7798 64.3324 49.8685 65.6629 50.179 65.8403C50.4672 66.062 50.4672 63.7116 52.0859 63.8889C53.7046 64.1107 54.8799 64.0442 54.8799 64.0442C54.8799 64.0442 55.412 68.612 55.2346 69.0555C54.0816 68.7672 51.2877 69.1664 51.1103 69.8759C52.7512 69.7651 53.5051 69.9646 53.5051 69.9646C53.5051 69.9646 52.1746 71.1398 52.5959 71.8272Z" fill="black"/>
<path fill-rule="evenodd" clip-rule="evenodd" d="M56.2503 43.763C56.1238 42.9572 55.4565 42.2804 54.6275 41.9815C53.7863 41.6782 52.7643 41.758 51.9385 42.492C51.9351 42.495 51.9319 42.4984 51.929 42.5019C51.4485 43.0854 51.3634 43.608 51.4048 43.9898C51.4254 44.1792 51.4768 44.3316 51.5235 44.437C51.5336 44.4601 51.5436 44.4809 51.553 44.4994C51.486 44.5185 51.3916 44.5459 51.2786 44.5799C51.0474 44.6494 50.7376 44.7469 50.4239 44.8584C50.1108 44.9697 49.7913 45.096 49.5419 45.2233C49.4174 45.2869 49.3074 45.3522 49.2237 45.4179C49.1436 45.4807 49.0724 45.5553 49.051 45.6411L49.0504 45.6434C49.0386 45.6965 49.0525 45.7467 49.0868 45.7859C49.1173 45.8206 49.1597 45.8423 49.2009 45.857C49.2838 45.8866 49.3995 45.9005 49.5291 45.9058C49.7914 45.9165 50.1459 45.8923 50.4987 45.8562C50.8525 45.82 51.2087 45.7713 51.4762 45.7317C51.61 45.7119 51.7218 45.6943 51.8001 45.6817C51.8017 45.6815 51.8032 45.6812 51.8047 45.681L51.5591 47.482C51.5489 47.4915 51.5356 47.5042 51.5194 47.5197C51.479 47.5587 51.4204 47.6163 51.3474 47.691C51.2016 47.8403 50.9984 48.0583 50.7681 48.3335C50.3078 48.8834 49.7375 49.6638 49.3008 50.5833C48.8643 51.5026 48.5594 52.5651 48.6355 53.6774C48.7119 54.7918 49.1704 55.9491 50.2487 57.0555C50.2654 57.0726 50.2883 57.0823 50.3123 57.0823C50.3427 57.0823 50.3676 57.071 50.3848 57.0604C50.4023 57.0495 50.4171 57.036 50.4291 57.0233C50.4498 57.0014 50.4684 56.9752 50.4837 56.9509C50.5277 57.0019 50.5879 57.0702 50.6623 57.1513C50.8297 57.3337 51.0694 57.5811 51.3589 57.8412C51.9295 58.3539 52.7033 58.9251 53.5034 59.1354C54.2339 59.8874 54.5646 60.2072 54.7131 60.3389C54.7506 60.3722 54.778 60.3948 54.7981 60.4096C54.7985 60.4099 54.7989 60.4102 54.7993 60.4105C54.8009 60.4237 54.8027 60.439 54.8048 60.4562C54.8127 60.5223 54.8236 60.6174 54.8359 60.733C54.8604 60.9644 54.8901 61.2776 54.9108 61.6058C54.9315 61.9344 54.9431 62.2761 54.9318 62.5648C54.9262 62.7092 54.9149 62.8387 54.8966 62.9457C54.8837 63.0219 54.8678 63.0829 54.8499 63.1287C53.3037 62.9421 51.7413 62.9297 50.1921 63.0919C50.1865 63.0925 50.181 63.0936 50.1756 63.0953C50.1189 63.1125 50.0406 63.1269 49.9398 63.1455L49.9341 63.1465C49.8328 63.1651 49.7139 63.1873 49.587 63.2196C49.3331 63.2843 49.0426 63.391 48.7824 63.5986C48.2548 64.0195 47.8827 64.8281 48.118 66.4304C48.1237 66.4696 48.1547 66.5002 48.1939 66.5055C48.2331 66.5107 48.2711 66.4894 48.287 66.4532L48.8378 65.1966C48.8435 65.2714 48.8517 65.3529 48.8635 65.4375C48.8876 65.6103 48.9269 65.7988 48.9912 65.9711C49.0553 66.1427 49.1466 66.305 49.2789 66.4184C49.3061 66.4417 49.3446 66.4463 49.3766 66.4302C49.4086 66.414 49.4277 66.3802 49.425 66.3445C49.3818 65.7604 49.49 65.2681 49.6089 64.9219C49.6464 64.8129 49.685 64.7184 49.7201 64.6404C49.7332 64.7556 49.7514 64.8937 49.7758 65.0356C49.8066 65.215 49.8478 65.4033 49.9021 65.5597C49.9292 65.6378 49.9605 65.7106 49.9969 65.7711C50.0317 65.8288 50.0751 65.882 50.1303 65.9152C50.1639 65.9392 50.2081 65.9533 50.2564 65.9385C50.3002 65.925 50.33 65.8924 50.3495 65.8654C50.3888 65.8108 50.4224 65.7259 50.4548 65.6343C50.4734 65.5816 50.4925 65.524 50.5128 65.4626C50.5668 65.2996 50.6296 65.1103 50.7149 64.9179C50.8316 64.6546 50.9855 64.3986 51.2024 64.2193C51.416 64.0427 51.6953 63.9364 52.0754 63.9777C52.8881 64.089 53.5896 64.128 54.0882 64.1391C54.3376 64.1447 54.5364 64.1433 54.673 64.1405C54.725 64.1395 54.768 64.1382 54.8014 64.137C54.8049 64.1676 54.8093 64.2062 54.8145 64.252C54.8287 64.3777 54.8488 64.5577 54.8723 64.7751C54.9194 65.21 54.9803 65.7944 55.0357 66.3925C55.0911 66.9908 55.1409 67.6019 55.1657 68.0906C55.1781 68.3352 55.1843 68.5478 55.1819 68.7123C55.1807 68.7946 55.1774 68.8637 55.1719 68.918C55.1707 68.9296 55.1695 68.9403 55.1682 68.9501C54.5665 68.8248 53.6195 68.859 52.7914 69.0049C52.3553 69.0818 51.9459 69.1908 51.6322 69.3273C51.4755 69.3955 51.3393 69.472 51.2352 69.5573C51.1317 69.642 51.053 69.7409 51.0245 69.8552C51.0176 69.8827 51.0243 69.9119 51.0425 69.9336C51.0607 69.9554 51.0882 69.9671 51.1165 69.9652C51.9324 69.9101 52.5264 69.9322 52.9152 69.9678C53.0918 69.984 53.2261 70.0029 53.3195 70.0186C53.2956 70.0421 53.2691 70.0686 53.2406 70.0978C53.1207 70.2205 52.9646 70.3921 52.8214 70.5863C52.6788 70.7797 52.5456 71.0001 52.4759 71.2202C52.4062 71.4406 52.3968 71.6724 52.5206 71.8744C52.5353 71.8984 52.5606 71.914 52.5887 71.9164C52.6169 71.9188 52.6444 71.9076 52.663 71.8863L52.6631 71.8862L52.6641 71.8851L52.6682 71.8805C52.672 71.8763 52.6779 71.8698 52.6859 71.8613C52.7017 71.8444 52.7258 71.8192 52.7581 71.7872C52.8228 71.7231 52.9202 71.6315 53.0501 71.5229C53.31 71.3057 53.6997 71.0205 54.2171 70.7508C55.2511 70.2119 56.7964 69.7344 58.8384 69.9869C58.8723 69.9911 58.9056 69.9754 58.924 69.9466C58.9424 69.9178 58.9426 69.881 58.9246 69.852C58.5921 69.3177 57.8965 69.0912 57.3116 68.9937C57.0154 68.9443 56.7395 68.9268 56.5378 68.9215C56.4369 68.9189 56.3543 68.9193 56.2968 68.9204C56.2939 68.9205 56.291 68.9205 56.2883 68.9206C56.2842 68.8882 56.279 68.8466 56.2728 68.7967C56.2569 68.6668 56.2345 68.4809 56.2093 68.2571C56.1588 67.8093 56.0965 67.2103 56.0495 66.6047C56.0025 65.9985 55.9709 65.3881 55.9812 64.9165C55.9863 64.6802 56.0019 64.4826 56.0302 64.3391C56.0443 64.2672 56.0609 64.2128 56.0787 64.1752C56.0975 64.1358 56.1118 64.1267 56.1142 64.1257C56.1639 64.1031 56.2399 64.0837 56.34 64.069C56.4389 64.0545 56.5561 64.0451 56.6853 64.04C56.9435 64.0298 57.2441 64.0366 57.5312 64.0504C57.818 64.0642 58.0898 64.0848 58.2901 64.1021C58.3901 64.1107 58.4722 64.1185 58.5293 64.1241C58.5578 64.1269 58.58 64.1292 58.5951 64.1307L58.6123 64.1325L58.6177 64.1331L58.618 64.1331C58.6211 64.1334 58.6243 64.1336 58.6275 64.1336C58.7339 64.1336 58.8383 64.0688 58.9228 63.987C59.0101 63.9023 59.0899 63.7865 59.1467 63.6563C59.2594 63.3983 59.2906 63.06 59.0734 62.7917C58.89 62.5651 58.5277 62.0058 58.2668 61.4595C58.1363 61.1861 58.0339 60.9215 57.9907 60.7065C57.969 60.5989 57.9633 60.5089 57.9733 60.4387C57.9832 60.3694 58.0073 60.3263 58.0399 60.3003C58.0777 60.27 58.1464 60.2431 58.2507 60.2251C58.3527 60.2075 58.4786 60.2002 58.6213 60.2012C58.9066 60.2032 59.2486 60.2386 59.5796 60.2856C59.9102 60.3324 60.2273 60.3903 60.4619 60.4365C60.5792 60.4596 60.6757 60.4798 60.7428 60.4942C60.7579 60.4974 60.7714 60.5003 60.7834 60.5029C60.7982 60.5061 60.8106 60.5089 60.8204 60.511L60.8407 60.5155L60.8458 60.5167L60.847 60.517L60.8473 60.517C60.8839 60.5253 60.9218 60.5098 60.9419 60.4781C60.962 60.4465 60.9601 60.4056 60.9371 60.3761L54.0759 51.5672C54.0749 51.5624 54.0738 51.5569 54.0726 51.5505C54.0678 51.5263 54.061 51.4903 54.0528 51.4439C54.0363 51.351 54.0144 51.2162 53.9924 51.0494C53.9484 50.7157 53.9044 50.2547 53.9044 49.7454C53.9044 48.7232 54.0817 47.5301 54.7646 46.7687C55.6177 46.0487 56.003 45.3036 56.1682 44.7368C56.2508 44.4533 56.2783 44.2149 56.2819 44.0469C56.2837 43.9632 56.2796 43.8957 56.273 43.8481C56.2698 43.825 56.2656 43.8033 56.2599 43.7859C56.2582 43.7806 56.2552 43.7721 56.2503 43.763ZM53.9931 51.6053C53.9064 51.6238 53.9064 51.6238 53.9064 51.6237L53.9062 51.623L53.9058 51.621L53.9043 51.6135C53.9029 51.6069 53.9009 51.5972 53.8985 51.5846C53.8935 51.5594 53.8865 51.5223 53.8781 51.4747C53.8612 51.3796 53.8389 51.2422 53.8165 51.0726C53.7718 50.7335 53.727 50.2645 53.727 49.7454C53.727 48.7131 53.9039 47.4586 54.6368 46.6455C54.6395 46.6424 54.6425 46.6396 54.6456 46.637C55.4744 45.939 55.8419 45.2224 55.9979 44.6871C56.076 44.419 56.1012 44.1959 56.1045 44.0431C56.1062 43.9664 56.1023 43.9086 56.0973 43.8725C56.096 43.8634 56.0948 43.8564 56.0938 43.8512C56.0858 43.8399 56.0804 43.8267 56.0784 43.8126C55.9733 43.0769 55.3597 42.434 54.5673 42.1484C53.7804 41.8647 52.8314 41.9392 52.0616 42.62C51.6147 43.1651 51.5451 43.6384 51.5812 43.9706C51.5994 44.1387 51.645 44.2733 51.6857 44.3653C51.706 44.4113 51.7251 44.4465 51.7387 44.4697C51.7455 44.4814 51.751 44.49 51.7545 44.4954C51.7563 44.4982 51.7576 44.5001 51.7584 44.5013L51.7591 44.5022C51.776 44.5258 51.7803 44.5563 51.7706 44.5836C51.7609 44.611 51.7384 44.6319 51.7104 44.6395L51.7036 44.6414L51.6834 44.647C51.6657 44.6519 51.6396 44.6592 51.6063 44.6687C51.5398 44.6877 51.4445 44.7153 51.3297 44.7498C51.1002 44.8188 50.7933 44.9154 50.4833 45.0256C50.1727 45.136 49.8617 45.2592 49.6226 45.3813C49.5028 45.4425 49.4041 45.5019 49.3332 45.5575C49.2679 45.6086 49.2373 45.6481 49.2265 45.674C49.2324 45.6779 49.2429 45.6836 49.2604 45.6899C49.317 45.71 49.4102 45.7234 49.5363 45.7286C49.7853 45.7387 50.1293 45.7157 50.4806 45.6797C50.8308 45.6439 51.1842 45.5956 51.4502 45.5562C51.5832 45.5365 51.6942 45.5191 51.7719 45.5066C51.8108 45.5003 51.8414 45.4953 51.8621 45.4918L51.8858 45.4879L51.8938 45.4865C51.8938 45.4865 51.8939 45.4865 51.9088 45.574L51.8938 45.4865C51.9216 45.4818 51.9501 45.4906 51.9704 45.5102C51.9907 45.5298 52.0005 45.558 51.9967 45.5859L51.7306 47.5373C51.7278 47.5578 51.7178 47.5768 51.7025 47.5908L51.6961 47.5838C51.7025 47.5908 51.7025 47.5908 51.7025 47.5908L51.7017 47.5915L51.6989 47.5941L51.6874 47.6048C51.6773 47.6143 51.6621 47.6286 51.6425 47.6475C51.6032 47.6853 51.5459 47.7416 51.4744 47.8149C51.3312 47.9615 51.1311 48.1761 50.9041 48.4473C50.4498 48.9901 49.8892 49.7578 49.4611 50.6594C49.0328 51.5611 48.7391 52.5927 48.8125 53.6652C48.8846 54.7169 49.3101 55.8148 50.3212 56.875C50.327 56.8668 50.333 56.8575 50.3391 56.8476C50.3526 56.8254 50.3646 56.8029 50.3732 56.7855C50.3775 56.777 50.3809 56.7699 50.3832 56.765L50.3857 56.7595L50.3863 56.7582L50.3864 56.758C50.3864 56.758 50.3864 56.758 50.3864 56.758C50.399 56.7298 50.4253 56.7101 50.4559 56.7061C50.4865 56.702 50.517 56.7142 50.5364 56.7382L50.5366 56.7384L50.5373 56.7393L50.5404 56.7431C50.5425 56.7456 50.5454 56.7491 50.549 56.7535C50.5502 56.755 50.5516 56.7566 50.553 56.7583C50.5641 56.7717 50.5808 56.7916 50.6027 56.8171C50.6464 56.8682 50.7108 56.9417 50.793 57.0313C50.9575 57.2106 51.1932 57.4538 51.4775 57.7092C52.0485 58.2224 52.8058 58.7757 53.5715 58.9698C53.5874 58.9738 53.6019 58.9822 53.6133 58.994C54.3563 59.7592 54.6868 60.0784 54.8308 60.2062C54.8545 60.2272 54.8725 60.2424 54.886 60.2534C54.9135 60.2552 54.9394 60.2698 54.9549 60.2942L54.8801 60.3419L54.796 60.3528C54.796 60.3528 54.796 60.3528 54.796 60.3528L54.8801 60.3419C54.9549 60.2942 54.9549 60.2942 54.9549 60.2942L54.9551 60.2945L54.9552 60.2947L54.9556 60.2954L54.9566 60.297C54.9573 60.2982 54.9582 60.2997 54.9593 60.3016C54.961 60.3048 54.9643 60.3111 54.9672 60.319C54.9686 60.3229 54.9707 60.3292 54.972 60.3369C54.973 60.3425 54.9744 60.3531 54.9725 60.3661C54.974 60.3776 54.9757 60.3916 54.9777 60.4082C54.9787 60.4165 54.9798 60.4256 54.9809 60.4352C54.9889 60.502 55 60.5978 55.0123 60.7143C55.037 60.9472 55.0669 61.2632 55.0878 61.5947C55.1087 61.9258 55.1207 62.2743 55.109 62.5717C55.1032 62.7204 55.0915 62.8581 55.0715 62.9755C55.0519 63.0909 55.023 63.1945 54.9786 63.2696C54.9607 63.3 54.9264 63.3168 54.8914 63.3125C53.3406 63.1205 51.773 63.1054 50.2188 63.2675C50.1534 63.2866 50.0696 63.302 49.9796 63.3185L49.9661 63.321C49.8649 63.3396 49.7513 63.3608 49.6308 63.3915C49.3899 63.4529 49.1261 63.5513 48.893 63.7373C48.466 64.0779 48.1155 64.7352 48.2537 66.0871L48.8341 64.7632C48.8512 64.7242 48.8936 64.7029 48.9351 64.7124C48.9767 64.7219 49.0055 64.7597 49.0039 64.8022C49.0039 64.8022 49.0039 64.8022 49.0039 64.8022L49.0039 64.8028L49.0038 64.805L49.0036 64.8141C49.0034 64.8222 49.0031 64.8343 49.003 64.85C49.0027 64.8814 49.0028 64.9269 49.0043 64.9828C49.0074 65.0949 49.0162 65.2481 49.0392 65.413C49.0622 65.5783 49.0991 65.753 49.1574 65.9091C49.181 65.9724 49.2078 66.0316 49.2379 66.0853C49.2374 65.5911 49.3352 65.1725 49.4412 64.8642C49.5037 64.6825 49.5691 64.5387 49.6192 64.44C49.6443 64.3906 49.6655 64.3524 49.6807 64.3263C49.6882 64.3132 49.6943 64.3031 49.6986 64.2962C49.7007 64.2928 49.7024 64.2901 49.7036 64.2882L49.705 64.286L49.7054 64.2853L49.7056 64.2851C49.7056 64.285 49.7057 64.2849 49.7801 64.3332L49.7056 64.2851C49.7264 64.253 49.7654 64.2377 49.8024 64.2473C49.8394 64.257 49.866 64.2892 49.8686 64.3273L49.8686 64.3281L49.8688 64.3308L49.8696 64.3416C49.8703 64.3512 49.8714 64.3653 49.8729 64.3834C49.8759 64.4196 49.8805 64.4717 49.887 64.5347C49.9 64.661 49.9206 64.8308 49.9506 65.0056C49.9808 65.181 50.02 65.3585 50.0697 65.5015C50.0945 65.573 50.1211 65.6333 50.1489 65.6795C50.1715 65.7171 50.1924 65.741 50.2101 65.755C50.2313 65.7225 50.2563 65.6636 50.2875 65.5752C50.3043 65.5277 50.3222 65.4736 50.3418 65.4146C50.3964 65.2498 50.4636 65.047 50.5527 64.846C50.6743 64.5717 50.8419 64.2872 51.0893 64.0826C51.3398 63.8755 51.6671 63.7546 52.0958 63.8015L52.0982 63.8018C52.9036 63.9121 53.5987 63.9508 54.0921 63.9618C54.3388 63.9673 54.535 63.9659 54.6694 63.9632C54.7365 63.9618 54.7882 63.9601 54.823 63.9587C54.8403 63.958 54.8535 63.9574 54.8622 63.957L54.872 63.9565L54.8744 63.9564L54.875 63.9564C54.9218 63.9537 54.9628 63.988 54.9682 64.0347L54.8801 64.0449C54.9682 64.0347 54.9682 64.0346 54.9682 64.0347L54.9682 64.0349L54.9741 64.0862C54.978 64.1198 54.9836 64.1692 54.9908 64.2321C55.005 64.358 55.0251 64.5383 55.0487 64.756C55.0958 65.1915 55.1568 65.7768 55.2123 66.3761C55.2678 66.9752 55.3178 67.5892 55.3429 68.0816C55.3554 68.3277 55.3617 68.5447 55.3593 68.7149C55.358 68.7999 55.3546 68.8745 55.3484 68.9358C55.3424 68.995 55.3332 69.0493 55.3172 69.0892C55.3008 69.1304 55.2564 69.1531 55.2134 69.1423C54.6544 69.0026 53.682 69.0281 52.8222 69.1796C52.3936 69.2552 51.9991 69.3611 51.703 69.4899C51.5549 69.5544 51.4346 69.6233 51.3475 69.6945C51.3128 69.723 51.2843 69.751 51.2616 69.7784C52.0066 69.7354 52.5586 69.757 52.9313 69.7911C53.1305 69.8094 53.2785 69.8312 53.3773 69.8486C53.4266 69.8573 53.4637 69.8649 53.4888 69.8704C53.5013 69.8732 53.5108 69.8754 53.5173 69.877L53.5249 69.8788L53.527 69.8794L53.5276 69.8796L53.5279 69.8796C53.5279 69.8796 53.528 69.8796 53.5214 69.9047L53.5279 69.8796C53.5595 69.888 53.5841 69.9131 53.5916 69.945C53.5992 69.9768 53.5886 70.0102 53.564 70.0319L53.5633 70.0325L53.5607 70.0348C53.5584 70.0369 53.5548 70.0401 53.5502 70.0444C53.5409 70.0528 53.5272 70.0654 53.5098 70.0818C53.475 70.1146 53.4255 70.1623 53.3675 70.2217C53.2511 70.3409 53.1009 70.5061 52.9641 70.6916C52.8268 70.8779 52.7063 71.0802 52.645 71.2737C52.5989 71.4195 52.5882 71.5536 52.6229 71.6715C52.6263 71.6682 52.6297 71.6647 52.6332 71.6612C52.7011 71.5939 52.8023 71.4989 52.9363 71.3868C53.2045 71.1627 53.6047 70.8699 54.1351 70.5935C55.1613 70.0587 56.6735 69.5857 58.6548 69.7877C58.3348 69.4313 57.7915 69.2535 57.2825 69.1687C56.9966 69.121 56.7293 69.104 56.5332 69.0988C56.4353 69.0963 56.3554 69.0967 56.3002 69.0978C56.2726 69.0983 56.2511 69.099 56.2367 69.0995C56.2295 69.0998 56.2241 69.1001 56.2205 69.1002L56.2165 69.1004L56.2156 69.1005L56.2105 69.0119L56.1226 69.0234C56.1286 69.0694 56.1693 69.103 56.2156 69.1005M56.2105 69.0119C56.1226 69.0234 56.1226 69.0235 56.1226 69.0234L56.1226 69.0232L56.1208 69.0096L56.1157 68.9698C56.1113 68.9348 56.1048 68.8836 56.0968 68.8184C56.0807 68.688 56.0583 68.5015 56.033 68.2769C55.9824 67.828 55.9199 67.2268 55.8727 66.6184C55.8255 66.0106 55.7933 65.3932 55.8038 64.9126C55.809 64.6729 55.8249 64.4633 55.8561 64.3049C55.8717 64.2259 55.8918 64.1555 55.9185 64.0993C55.9442 64.0449 55.9822 63.9908 56.0408 63.9642C56.113 63.9313 56.2083 63.9091 56.3142 63.8935C56.4215 63.8777 56.5454 63.868 56.6782 63.8627C56.9439 63.8522 57.2503 63.8593 57.5397 63.8732C57.8294 63.8871 58.1036 63.908 58.3053 63.9254C58.4062 63.9341 58.489 63.9419 58.5466 63.9476C58.5754 63.9504 58.598 63.9527 58.6133 63.9543L58.6314 63.9561C58.6694 63.9544 58.7295 63.9272 58.7993 63.8596C58.8685 63.7925 58.9357 63.6964 58.9842 63.5853C59.0821 63.3611 59.0953 63.1007 58.9355 62.9033C58.742 62.6643 58.3726 62.0927 58.1068 61.5359C57.9739 61.2577 57.8643 60.9777 57.8168 60.7415C57.793 60.6235 57.7837 60.5114 57.7977 60.4136C57.8118 60.315 57.8507 60.2244 57.9291 60.1617C58.0021 60.1033 58.1066 60.0699 58.2206 60.0503C58.3369 60.0303 58.4743 60.0227 58.6226 60.0238C58.9194 60.0259 59.2704 60.0626 59.6045 60.1099C59.9392 60.1573 60.2596 60.2158 60.4962 60.2625C60.5514 60.2734 60.6022 60.2836 60.6474 60.2929L53.9232 51.6598C53.9149 51.6492 53.9092 51.6368 53.9064 51.6237L53.9931 51.6053M54.9146 60.2747C54.9145 60.2746 54.9144 60.2745 54.9142 60.2744C54.9154 60.275 54.9156 60.2752 54.9146 60.2747ZM56.0913 43.841C56.0913 43.8409 56.0913 43.841 56.0913 43.841Z" fill="black"/>
<path fill-rule="evenodd" clip-rule="evenodd" d="M53.2604 46.7935C53.2604 46.7935 49.1804 51.2726 50.9321 54.7096C51.043 54.2218 50.9987 53.9335 51.043 53.9557C50.9543 53.8891 51.553 54.3548 51.4865 54.2661C51.5308 54.0222 51.3313 53.49 51.3313 53.49L51.8635 53.6231L51.553 53.0244L52.3291 53.1352C52.3291 53.1352 52.063 52.3813 52.1517 52.3813C52.3663 52.3928 52.5807 52.4076 52.7948 52.4257C51.6417 50.3635 52.7282 48.6561 53.2382 46.8156L53.2604 46.7935Z" fill="#9CA69C"/>
<path fill-rule="evenodd" clip-rule="evenodd" d="M53.3225 46.8481L53.3274 46.8525C53.3598 46.8169 53.3579 46.7619 53.323 46.7286C53.2882 46.6954 53.2331 46.696 53.1991 46.7301L53.1769 46.7523C53.1714 46.7577 53.1668 46.7638 53.1629 46.7704C53.1589 46.775 53.1544 46.7801 53.1497 46.7855C53.1198 46.8196 53.0764 46.8699 53.0219 46.935C52.9129 47.0653 52.7593 47.2549 52.5807 47.4932C52.2236 47.9694 51.7654 48.641 51.362 49.4213C50.558 50.9763 49.9581 52.9904 50.8545 54.7492C50.8714 54.7825 50.9074 54.8016 50.9445 54.7969C50.9815 54.7923 51.0117 54.765 51.02 54.7286C51.0769 54.4783 51.0939 54.2791 51.1024 54.1464C51.1031 54.1349 51.1038 54.1242 51.1044 54.1141C51.1356 54.1378 51.1701 54.1638 51.2048 54.1897C51.27 54.2382 51.3375 54.2873 51.3851 54.3189C51.4066 54.3331 51.4311 54.3487 51.45 54.3567C51.4545 54.3586 51.4656 54.363 51.4793 54.3647C51.4861 54.3655 51.5004 54.3666 51.5173 54.3616C51.537 54.3557 51.5599 54.3412 51.5728 54.3142C51.5842 54.2905 51.5821 54.2689 51.5802 54.2585C51.5799 54.2568 51.5796 54.2552 51.5792 54.2537C51.5873 54.1844 51.5814 54.1051 51.5701 54.0283C51.5569 53.9394 51.5352 53.8464 51.5125 53.7627C51.4979 53.709 51.4828 53.6586 51.469 53.6149L51.8433 53.7084C51.8771 53.7169 51.9128 53.7048 51.9344 53.6774C51.956 53.65 51.9596 53.6125 51.9436 53.5816L51.7125 53.1359L52.3179 53.2224C52.3486 53.2268 52.3794 53.2148 52.3991 53.1908C52.4187 53.1668 52.4244 53.1343 52.4141 53.105L52.4134 53.103L52.4113 53.0969L52.4031 53.0733C52.3961 53.0529 52.3861 53.0237 52.3744 52.9887C52.3511 52.9186 52.3209 52.8254 52.2936 52.7326C52.2661 52.6389 52.2423 52.5486 52.2307 52.483C52.2302 52.4798 52.2296 52.4767 52.2291 52.4737C52.4158 52.4844 52.6023 52.4976 52.7887 52.5134C52.8214 52.5161 52.8529 52.5006 52.8707 52.4731C52.8885 52.4455 52.8896 52.4103 52.8735 52.3817C52.31 51.3738 52.293 50.4543 52.481 49.555C52.5754 49.1036 52.7214 48.6577 52.8769 48.2069C52.9025 48.1326 52.9284 48.0582 52.9543 47.9836C53.0826 47.6145 53.2125 47.2412 53.3185 46.8624L53.3247 46.8555L53.3268 46.8532L53.3274 46.8525L53.3225 46.8481C53.3225 46.8481 53.3225 46.8481 53.3225 46.8481ZM53.0307 47.2036C52.9422 47.3131 52.8377 47.4461 52.7226 47.5996C52.3695 48.0706 51.9172 48.7336 51.5195 49.5027C50.7606 50.9708 50.2131 52.8007 50.8968 54.4199C50.9131 54.3057 50.9206 54.2099 50.9254 54.1351C50.9265 54.1181 50.9274 54.1016 50.9283 54.086C50.9308 54.045 50.9328 54.0094 50.9359 53.9842C50.9377 53.969 50.9412 53.944 50.9516 53.9224C50.9537 53.9181 50.9569 53.912 50.9619 53.9052C50.964 53.8996 50.9664 53.8942 50.9693 53.8893C50.9944 53.8698 51.0384 53.8598 51.0518 53.8613C51.0579 53.8627 51.0671 53.8656 51.0703 53.8669C51.0722 53.8678 51.0755 53.8694 51.0768 53.87C51.081 53.8723 51.0843 53.8744 51.0846 53.8746L51.0871 53.8763L51.0903 53.8786L51.0976 53.8841C51.101 53.8866 51.1042 53.8894 51.1072 53.8924C51.1153 53.8987 51.1264 53.9074 51.1398 53.9177C51.1821 53.9504 51.2461 53.9993 51.3108 54.0474C51.3421 54.0707 51.3733 54.0937 51.402 54.1143C51.4002 54.0953 51.3977 54.0752 51.3946 54.0543C51.3828 53.9748 51.3629 53.889 51.3413 53.8091C51.3197 53.7295 51.2967 53.6571 51.279 53.6045C51.2702 53.5783 51.2628 53.5571 51.2576 53.5425C51.255 53.5353 51.253 53.5297 51.2516 53.5259L51.2501 53.5217L51.2497 53.5207L51.2496 53.5205M53.0307 47.2036C52.954 47.4443 52.8707 47.6837 52.7873 47.9238C52.7612 47.9988 52.7351 48.0739 52.7092 48.1491C52.5535 48.6005 52.4043 49.0554 52.3074 49.5187C52.1219 50.4059 52.1282 51.3254 52.6411 52.3235C52.4801 52.3112 52.319 52.3007 52.1578 52.2921C52.1562 52.292 52.1547 52.292 52.1531 52.292C52.1074 52.292 52.0766 52.3201 52.0621 52.3476C52.0503 52.3699 52.0476 52.3932 52.0467 52.4078C52.0449 52.4393 52.0496 52.4772 52.056 52.5139C52.0694 52.5896 52.0955 52.6878 52.1234 52.7826C52.1492 52.8702 52.1772 52.9575 52.2 53.0263L51.5669 52.9359C51.534 52.9312 51.5013 52.9453 51.4821 52.9724C51.4628 52.9995 51.4604 53.035 51.4756 53.0645L51.6956 53.4887L51.3542 53.4033C51.3222 53.3953 51.2884 53.4057 51.2665 53.4303C51.2445 53.4549 51.238 53.4897 51.2496 53.5205" fill="#9CA69C"/>
<path fill-rule="evenodd" clip-rule="evenodd" d="M54.6579 42.979C54.6579 42.979 54.8797 44.5312 54.037 44.9747C53.904 45.0634 53.3718 45.2408 53.4383 45.5512C53.5492 45.9725 53.771 45.8838 54.1036 45.8173C54.9905 45.6621 56.0105 43.7773 54.6579 42.979V42.979Z" fill="#9CA69C"/>
<path fill-rule="evenodd" clip-rule="evenodd" d="M54.1227 45.9153C54.0972 45.9205 54.0712 45.926 54.0453 45.9314C53.9921 45.9427 53.9392 45.9539 53.8913 45.9615C53.8184 45.9732 53.742 45.9796 53.6689 45.965C53.5921 45.9496 53.5231 45.9119 53.4663 45.8437C53.4118 45.7783 53.3722 45.6894 53.3425 45.5766L53.3419 45.5743L53.3415 45.5721C53.3179 45.462 53.3491 45.365 53.4037 45.2859C53.4567 45.2093 53.5329 45.1469 53.6082 45.0967C53.6843 45.046 53.7658 45.0036 53.8339 44.9694C53.8482 44.9622 53.8616 44.9555 53.8741 44.9492C53.9252 44.9238 53.961 44.9059 53.9824 44.8916L53.9867 44.8888L53.9913 44.8864C54.3653 44.6895 54.5157 44.2374 54.565 43.7994C54.5892 43.5845 54.5879 43.3823 54.5804 43.2334C54.5767 43.1592 54.5715 43.0985 54.5672 43.0567C54.5651 43.0358 54.5632 43.0196 54.5619 43.0088C54.5612 43.0034 54.5607 42.9993 54.5603 42.9967L54.5599 42.9938L54.5598 42.9932L54.5598 42.9931C54.5598 42.9931 54.5598 42.9931 54.6586 42.979L54.7093 42.8931C55.0688 43.1052 55.2756 43.3935 55.3635 43.7108C55.4508 44.0257 55.419 44.3618 55.3159 44.6708C55.2129 44.98 55.0369 45.2677 54.8278 45.4891C54.6204 45.7088 54.3726 45.8712 54.1227 45.9153ZM54.7774 43.181C54.9885 43.349 55.112 43.5505 55.1712 43.7641C55.2454 44.0319 55.2204 44.3264 55.1266 44.6077C55.0329 44.8889 54.8721 45.1515 54.6827 45.3521C54.4921 45.554 54.2802 45.6852 54.0871 45.719L54.087 45.719L54.0847 45.7194C54.0533 45.7257 54.0243 45.7318 53.997 45.7376C53.9473 45.7482 53.903 45.7576 53.8598 45.7645C53.7942 45.775 53.7459 45.7769 53.7081 45.7693C53.674 45.7625 53.646 45.7476 53.6196 45.716C53.5912 45.6819 53.5618 45.6246 53.5362 45.5282C53.5273 45.4839 53.5378 45.4429 53.5679 45.3993C53.6002 45.3526 53.6528 45.3069 53.7189 45.2628C53.7842 45.2193 53.8565 45.1813 53.9235 45.1477C53.9346 45.1421 53.9458 45.1365 53.957 45.1309C54.0065 45.1063 54.0556 45.0819 54.0885 45.0607C54.5537 44.813 54.713 44.2692 54.7633 43.8217C54.789 43.593 54.7875 43.3795 54.7797 43.2235C54.779 43.2088 54.7782 43.1947 54.7774 43.181Z" fill="#9CA69C"/>
<path fill-rule="evenodd" clip-rule="evenodd" d="M53.152 44.2889C53.152 44.3774 53.1169 44.4624 53.0543 44.525C52.9917 44.5876 52.9067 44.6227 52.8182 44.6227C52.7297 44.6227 52.6448 44.5876 52.5821 44.525C52.5195 44.4624 52.4844 44.3774 52.4844 44.2889C52.4844 44.2004 52.5195 44.1155 52.5821 44.0529C52.6448 43.9903 52.7297 43.9551 52.8182 43.9551C52.9067 43.9551 52.9917 43.9903 53.0543 44.0529C53.1169 44.1155 53.152 44.2004 53.152 44.2889Z" fill="white"/>
<path fill-rule="evenodd" clip-rule="evenodd" d="M51.8424 45.5732C51.6207 45.7506 50.512 46.9259 51.6207 47.3472C52.7737 47.0367 52.4411 46.8372 52.7072 46.5711C52.7072 46.0611 52.1307 45.9059 51.8424 45.5732Z" fill="#DE3108"/>
<path fill-rule="evenodd" clip-rule="evenodd" d="M51.8562 45.436L51.919 45.5085C51.9834 45.5829 52.0661 45.6496 52.1593 45.7179C52.1884 45.7392 52.2192 45.7611 52.2506 45.7835C52.316 45.83 52.3842 45.8786 52.4464 45.9284C52.6345 46.0788 52.8081 46.2708 52.8081 46.5717V46.613L52.7789 46.6423C52.7261 46.6951 52.7032 46.7433 52.6812 46.7985C52.6783 46.8057 52.6754 46.8133 52.6723 46.8212C52.6522 46.8734 52.6269 46.9392 52.5767 47.0041C52.4601 47.155 52.2243 47.2889 51.6478 47.4442L51.6166 47.4526L51.5864 47.4411C51.2888 47.328 51.1209 47.1558 51.0615 46.9449C51.0038 46.7401 51.0554 46.5221 51.1428 46.3283C51.3174 45.9414 51.6619 45.5914 51.7812 45.496L51.8562 45.436ZM51.6276 47.2428C52.1789 47.0917 52.3482 46.9734 52.4188 46.8821C52.45 46.8416 52.4647 46.804 52.4851 46.7517C52.4885 46.7431 52.492 46.7342 52.4958 46.7247C52.5187 46.6671 52.5481 46.6022 52.6073 46.5339C52.5943 46.3453 52.4834 46.2135 52.3217 46.0842C52.2638 46.0378 52.2038 45.9951 52.1412 45.9506C52.1086 45.9275 52.0754 45.9038 52.0413 45.8789C51.9719 45.828 51.9017 45.7735 51.838 45.7124C51.7008 45.8435 51.4564 46.1186 51.3247 46.4104C51.2459 46.5853 51.2143 46.7512 51.2536 46.8908C51.2897 47.019 51.3921 47.1465 51.6276 47.2428Z" fill="black"/>
<path fill-rule="evenodd" clip-rule="evenodd" d="M54.3043 56.6387C54.2378 56.9048 53.9939 57.8361 54.3487 58.5456C55.3243 58.1465 55.7678 58.2574 56.1004 58.4791C55.3022 57.8139 54.9917 57.57 54.3043 56.6387V56.6387Z" fill="#9CA69C"/>
<path fill-rule="evenodd" clip-rule="evenodd" d="M56.0638 58.3335C56.0937 58.3584 56.1242 58.3838 56.1556 58.4099C56.1918 58.4401 56.1981 58.4934 56.1699 58.5311C56.1417 58.5689 56.0888 58.578 56.0496 58.5519C55.8947 58.4486 55.7169 58.3723 55.4623 58.3672C55.2045 58.362 54.8624 58.4296 54.3806 58.6267C54.3377 58.6443 54.2885 58.6258 54.2677 58.5843C54.0802 58.2093 54.0529 57.7808 54.0784 57.4186C54.103 57.0694 54.1773 56.7732 54.2125 56.6325C54.214 56.6268 54.2154 56.6213 54.2167 56.6161L54.3027 56.6376L54.3741 56.585C55.0283 57.4714 55.3346 57.7264 56.0638 58.3335ZM54.3446 56.8421C54.3106 56.9938 54.2716 57.2005 54.2554 57.431C54.2327 57.7531 54.2553 58.1135 54.392 58.431C54.8467 58.2525 55.1904 58.1843 55.4659 58.1898C55.5242 58.191 55.5792 58.1955 55.6313 58.2028C55.1438 57.7901 54.8375 57.4944 54.3446 56.8421Z" fill="#9CA69C"/>
<path fill-rule="evenodd" clip-rule="evenodd" d="M55.9897 61.0728L56.0341 63.2458C56.0341 63.2458 56.8102 63.401 57.1428 63.2458C57.4976 63.1128 57.1428 61.738 55.9897 61.0728Z" fill="white"/>
<path fill-rule="evenodd" clip-rule="evenodd" d="M55.9444 60.9962C55.972 60.9799 56.0062 60.9798 56.0339 60.9958C56.6295 61.3394 57.0183 61.8655 57.2132 62.324C57.3104 62.5528 57.3615 62.7697 57.363 62.9427C57.3637 63.0291 57.3522 63.1095 57.3238 63.1761C57.2954 63.2428 57.248 63.2996 57.1772 63.3274C57.0796 63.3722 56.9569 63.3922 56.8345 63.3997C56.7092 63.4073 56.5765 63.4021 56.4563 63.3922C56.3358 63.3823 56.2262 63.3675 56.1468 63.3551C56.107 63.3489 56.0747 63.3433 56.0522 63.3393C56.0409 63.3373 56.0322 63.3356 56.0261 63.3345L56.0192 63.3331L56.0173 63.3328L56.0168 63.3327C56.0167 63.3327 56.0165 63.3326 56.0339 63.2456L56.0165 63.3326C55.9757 63.3245 55.9461 63.289 55.9452 63.2475L55.9009 61.0744C55.9002 61.0424 55.9169 61.0125 55.9444 60.9962ZM56.1211 63.1713C56.1366 63.1739 56.1543 63.1768 56.174 63.1798C56.2505 63.1917 56.3557 63.206 56.4708 63.2155C56.5862 63.225 56.7099 63.2295 56.8237 63.2226C56.9391 63.2156 57.0369 63.1971 57.1051 63.1653C57.1072 63.1643 57.1093 63.1634 57.1115 63.1626C57.1275 63.1566 57.1455 63.1421 57.1606 63.1066C57.1763 63.0699 57.1862 63.0159 57.1856 62.9443C57.1843 62.8014 57.1411 62.608 57.0499 62.3934C56.8831 62.0009 56.5627 61.5535 56.0816 61.2339L56.1211 63.1713Z" fill="white"/>
<path fill-rule="evenodd" clip-rule="evenodd" d="M61.5109 61.3395C61.5109 61.3395 60.0917 57.9469 56.5217 57.0821C52.9517 56.2173 53.3952 52.4256 53.6834 52.1817C53.8387 51.8491 53.9495 51.3391 54.9917 51.8269C56.0339 52.3147 60.7791 54.7095 61.4665 54.8204C62.1539 54.9312 61.5552 61.4282 61.5109 61.3395V61.3395Z" fill="#9CA69C"/>
<path fill-rule="evenodd" clip-rule="evenodd" d="M53.814 52.1308C53.8009 52.1608 53.7875 52.1916 53.7726 52.2236L53.7633 52.2435L53.7469 52.2574L53.7466 52.2576M53.814 52.1308C53.8387 52.0741 53.8623 52.0201 53.8926 51.9657ZM53.8926 51.9657C53.9368 51.8865 53.9873 51.8232 54.0556 51.7816ZM54.0556 51.7816C54.1877 51.7011 54.4336 51.6762 54.9481 51.917ZM53.9518 51.6112C54.1745 51.4754 54.505 51.4893 55.0327 51.7363C55.2829 51.8534 55.7474 52.0808 56.3177 52.3601C56.9352 52.6624 57.6766 53.0254 58.4041 53.3748C59.1051 53.7114 59.7942 54.0359 60.3506 54.283C60.6289 54.4066 60.8731 54.5105 61.0687 54.5867C61.2673 54.6642 61.4072 54.7097 61.4811 54.7216C61.5652 54.7352 61.624 54.7951 61.6642 54.8599C61.7052 54.9257 61.7371 55.0121 61.7628 55.1104C61.8146 55.3079 61.8479 55.5781 61.868 55.8916C61.9082 56.5203 61.8962 57.3443 61.8615 58.1588C61.8268 58.974 61.7692 59.7828 61.7174 60.3823C61.6916 60.682 61.6672 60.9299 61.6478 61.1005C61.6381 61.1855 61.6295 61.2524 61.6225 61.2973C61.6192 61.319 61.6157 61.3385 61.6121 61.3528L61.6121 61.3532C61.6109 61.358 61.6073 61.3722 61.6 61.3859C61.5977 61.3901 61.5932 61.3979 61.5858 61.4062C61.5793 61.4134 61.5629 61.4299 61.5353 61.4369C61.5015 61.4454 61.4704 61.4354 61.4493 61.4191C61.432 61.4058 61.4236 61.3905 61.4203 61.3839L61.5096 61.3393C61.4175 61.3778 61.4175 61.3778 61.4175 61.3778L61.4167 61.3759L61.4139 61.3692C61.4112 61.3632 61.4072 61.354 61.4018 61.3419C61.3909 61.3177 61.3743 61.2817 61.3518 61.2353C61.3069 61.1427 61.2386 61.0087 61.1454 60.8451C60.9589 60.5176 60.6732 60.0716 60.2773 59.599C59.4851 58.6533 58.2549 57.6047 56.4969 57.1789C54.6706 56.7364 53.8654 55.5403 53.5582 54.4253C53.4052 53.8699 53.3755 53.3348 53.4024 52.9219C53.4159 52.7155 53.4437 52.5378 53.4782 52.4019C53.4955 52.3342 53.5149 52.2749 53.536 52.227C53.5521 52.1903 53.5725 52.1525 53.599 52.1233C53.6075 52.1047 53.6164 52.0844 53.6257 52.0631C53.6527 52.0013 53.6834 51.9311 53.7184 51.8685C53.7712 51.7737 53.8426 51.6776 53.9518 51.6112ZM61.4579 61.0018C61.4755 60.839 61.4965 60.6215 61.5186 60.3651C61.5701 59.7679 61.6275 58.9621 61.6621 58.1503C61.6967 57.3378 61.7083 56.5223 61.6688 55.9044C61.649 55.5946 61.6167 55.3397 61.5698 55.161C61.5463 55.0713 61.5205 55.0067 61.4948 54.9653C61.4683 54.9227 61.4512 54.9189 61.4493 54.9186C61.3514 54.9028 61.1927 54.8493 60.9962 54.7726C60.7965 54.6948 60.5491 54.5896 60.2696 54.4654C59.7104 54.2171 59.0192 53.8916 58.3177 53.5547C57.586 53.2033 56.8442 52.8401 56.2276 52.5382C55.6597 52.2601 55.198 52.034 54.9481 51.917M61.4579 61.0018C61.4195 60.9278 61.3732 60.8419 61.3188 60.7463C61.1276 60.4106 60.8354 59.9544 60.4303 59.4708C59.6204 58.504 58.3559 57.4238 56.5439 56.9849C54.8003 56.5625 54.0421 55.4304 53.7506 54.3723C53.6043 53.8412 53.5759 53.3286 53.6016 52.9349C53.6144 52.738 53.6407 52.5727 53.6716 52.4511C53.6871 52.3902 53.7033 52.3422 53.7186 52.3073C53.7263 52.29 53.7332 52.2772 53.7389 52.2683C53.744 52.2602 53.7469 52.2574 53.7469 52.2574C53.7469 52.2574 53.7469 52.2574 53.7469 52.2574M61.4184 61.3048C61.4181 61.3061 61.418 61.3065 61.418 61.3062C61.4181 61.306 61.4182 61.3056 61.4184 61.3048Z" fill="black"/>
<path fill-rule="evenodd" clip-rule="evenodd" d="M58.0954 57.082C58.0289 57.1042 62.885 59.9425 61.4215 62.3816C62.8185 61.4725 62.3528 59.8538 62.3528 59.8538C62.3528 59.8538 63.4837 62.8029 60.7341 64.2442C61.0446 64.5103 61.2219 64.4438 61.2219 64.4438L60.7785 64.9094C60.7785 64.9094 60.5567 65.2642 62.3972 64.3773C61.8872 64.7764 61.8428 65.0647 61.8428 65.0647C61.8428 65.0647 61.998 65.4638 63.1954 64.3994C62.7185 64.8686 62.3149 65.4068 61.998 65.996C64.6589 65.7521 70.3798 57.1929 60.2019 54.665L60.6454 55.1529L58.0954 57.082V57.082Z" fill="#DE3108"/>
<path fill-rule="evenodd" clip-rule="evenodd" d="M60.1256 54.6189C60.1456 54.5854 60.1852 54.5689 60.2231 54.5783C62.7798 55.2133 64.3521 56.2305 65.2219 57.4145C66.0927 58.6 66.2505 59.9411 66.0014 61.2035C65.7526 62.4642 65.098 63.6495 64.3384 64.5352C63.9583 64.9783 63.5505 65.3482 63.1515 65.6158C62.7536 65.8825 62.3589 66.0513 62.0059 66.0836C61.9734 66.0866 61.9419 66.0715 61.9239 66.0442C61.9059 66.017 61.9043 65.9821 61.9197 65.9533C62.0933 65.6306 62.2925 65.323 62.5153 65.0333C62.3299 65.146 62.1908 65.1993 62.0853 65.2179C61.9745 65.2374 61.8943 65.2198 61.8386 65.1849C61.8115 65.168 61.7929 65.1487 61.7805 65.1321C61.7744 65.1238 61.7698 65.1163 61.7665 65.1102C61.7649 65.1071 61.7635 65.1043 61.7624 65.102L61.761 65.0987L61.7605 65.0974L61.7602 65.0967L61.7601 65.0964C61.76 65.0963 61.76 65.0961 61.8426 65.064C61.755 65.0505 61.755 65.0504 61.755 65.0504L61.755 65.0502L61.7551 65.0499L61.7552 65.0493L61.7555 65.0476L61.7563 65.043C61.7571 65.0394 61.7581 65.0347 61.7596 65.0289C61.7625 65.0174 61.7671 65.0018 61.7742 64.9823C61.7884 64.9434 61.8125 64.8896 61.853 64.8236C61.879 64.7812 61.9116 64.734 61.9527 64.6826C61.7284 64.7839 61.5467 64.8602 61.3994 64.9167C61.1597 65.0089 61.0068 65.0508 60.9086 65.0633C60.86 65.0695 60.8176 65.0694 60.7822 65.0599C60.7442 65.0497 60.7076 65.0262 60.6903 64.9841C60.6751 64.9469 60.6824 64.9128 60.6876 64.8961C60.6905 64.8866 60.694 64.8788 60.6967 64.8733C60.6981 64.8705 60.6994 64.8681 60.7004 64.8662L60.7019 64.8637L60.7025 64.8626L60.7028 64.8622L60.7029 64.862C60.703 64.8619 60.7031 64.8618 60.7783 64.9088L60.7031 64.8618C60.7062 64.8567 60.7099 64.852 60.714 64.8476L61.028 64.518C60.9338 64.4901 60.8154 64.4302 60.6762 64.3109C60.6539 64.2918 60.6425 64.2628 60.6458 64.2336C60.6491 64.2043 60.6667 64.1787 60.6928 64.165C62.0348 63.4615 62.4265 62.3953 62.4859 61.502C62.4996 61.2952 62.4955 61.0977 62.481 60.9161C62.3971 61.4269 62.1382 62.0202 61.4697 62.4553C61.4351 62.4778 61.3895 62.4735 61.3598 62.4448C61.33 62.4161 61.324 62.3707 61.3453 62.3353C61.6934 61.7551 61.6682 61.1509 61.4275 60.5605C61.1856 59.967 60.7274 59.3927 60.2196 58.8877C59.7127 58.3835 59.1617 57.9535 58.7405 57.6475C58.5301 57.4947 58.3525 57.373 58.229 57.2886L58.2223 57.284C58.1641 57.2442 58.1174 57.2123 58.086 57.1898C58.0702 57.1785 58.0559 57.1679 58.0457 57.1593C58.0418 57.1559 58.033 57.1484 58.0255 57.1387C58.0254 57.1386 58.0254 57.1385 58.0253 57.1384C58.0228 57.1352 58.0103 57.1193 58.0068 57.0953C58.0045 57.0799 58.0054 57.0567 58.02 57.0339C58.0271 57.0227 58.0358 57.0146 58.0443 57.0087L60.5143 55.14L60.1361 54.724C60.1098 54.6951 60.1056 54.6525 60.1256 54.6189ZM58.0952 57.0814L58.1233 57.1655C58.1303 57.1632 58.1395 57.159 58.1487 57.152L58.0952 57.0814ZM58.2414 57.082C58.2648 57.0982 58.2924 57.1171 58.3241 57.1388L58.3291 57.1422C58.4528 57.2267 58.6322 57.3496 58.8448 57.504C59.2697 57.8127 59.8288 58.2488 60.3447 58.7619C60.8597 59.2741 61.3369 59.8681 61.5918 60.4935C61.8025 61.0103 61.8622 61.5519 61.6635 62.0836C62.1113 61.6779 62.2757 61.185 62.3227 60.7662C62.3508 60.5159 62.3368 60.2925 62.3156 60.1318C62.3051 60.0515 62.2928 59.9872 62.2832 59.9433C62.2785 59.9213 62.2744 59.9045 62.2716 59.8934C62.2701 59.8878 62.269 59.8836 62.2683 59.881L62.2675 59.8782L62.2674 59.8776L62.2674 59.8776L62.2674 59.8776C62.2543 59.8319 62.2794 59.7841 62.3245 59.769C62.3695 59.7539 62.4184 59.777 62.4354 59.8213L62.3526 59.8531C62.4354 59.8213 62.4355 59.8214 62.4355 59.8215L62.4356 59.8216L62.4358 59.8222L62.4365 59.8241L62.4391 59.8312C62.4413 59.8372 62.4445 59.8461 62.4485 59.8575C62.4564 59.8804 62.4676 59.9138 62.4807 59.9567C62.5069 60.0423 62.541 60.1657 62.5732 60.3181C62.6374 60.6226 62.694 61.0447 62.6629 61.5137C62.6021 62.4278 62.2068 63.5185 60.8959 64.2565C60.9902 64.3208 61.0629 64.3464 61.1117 64.3562C61.1445 64.3627 61.1677 64.3623 61.1806 64.3611C61.1872 64.3605 61.1913 64.3596 61.193 64.3592C61.1932 64.3591 61.1933 64.3591 61.1935 64.3591C61.2314 64.3463 61.2735 64.3606 61.2957 64.3942C61.3185 64.4287 61.3145 64.4744 61.286 64.5043L60.9276 64.8806C61.0089 64.8648 61.1372 64.8275 61.3358 64.7512C61.5707 64.6609 61.8996 64.5179 62.3585 64.2967C62.3993 64.277 62.4484 64.2913 62.4723 64.3297C62.4962 64.3682 62.4873 64.4185 62.4516 64.4465C62.2039 64.6404 62.0728 64.8045 62.0042 64.9164C61.9713 64.9699 61.9526 65.0117 61.9422 65.0394C61.9589 65.0464 61.9927 65.0541 62.0545 65.0432C62.2169 65.0145 62.5391 64.8633 63.1363 64.3325C63.1723 64.3005 63.2272 64.3031 63.26 64.3382C63.2929 64.3733 63.2917 64.4283 63.2574 64.462C62.8298 64.8827 62.4618 65.3597 62.1636 65.8796C62.4346 65.8201 62.7374 65.6798 63.0527 65.4684C63.4361 65.2113 63.8322 64.8528 64.2037 64.4197C64.9471 63.5529 65.5855 62.3947 65.8273 61.1691C66.0688 59.9453 65.9147 58.6573 65.0789 57.5195C64.274 56.4237 62.8288 55.4563 60.4671 54.8244L60.7109 55.0926C60.7276 55.111 60.7359 55.1356 60.7335 55.1604C60.7312 55.1852 60.7186 55.2079 60.6987 55.2229L58.2414 57.082ZM58.1598 57.0234C58.1594 57.023 58.1592 57.0228 58.1592 57.0228C58.1592 57.0229 58.1594 57.023 58.1598 57.0234ZM61.8426 65.064L61.755 65.0505C61.7526 65.0659 61.7543 65.0816 61.76 65.0961L61.8426 65.064Z" fill="black"/>
<path fill-rule="evenodd" clip-rule="evenodd" d="M58.2953 56.2389C58.9605 56.6824 59.1823 56.8598 59.2709 57.0816C58.6722 56.9485 58.1179 56.9929 58.1179 56.9929C58.1179 56.9929 56.8318 55.7511 56.5879 55.6624C56.4105 55.6624 55.3905 54.9972 55.3905 54.9972C54.8805 54.7533 54.4148 53.0015 56.2775 53.5115C58.2288 54.4207 58.4949 54.4872 58.4949 54.4872L60.801 55.2189L62.1314 56.7046C62.1314 56.7046 59.7588 55.5294 59.4705 55.5072C60.1357 56.0394 60.4905 56.7489 60.4905 56.7489C59.7366 56.5272 59.0936 56.3498 58.2953 56.2389V56.2389Z" fill="white"/>
<path fill-rule="evenodd" clip-rule="evenodd" d="M55.1321 54.5542C55.2147 54.7367 55.328 54.8696 55.4281 54.9175C55.4316 54.9192 55.435 54.9211 55.4383 54.9232L55.4411 54.9251L55.4496 54.9306C55.457 54.9354 55.468 54.9425 55.482 54.9515C55.5101 54.9696 55.5505 54.9955 55.5995 55.0265C55.6975 55.0887 55.8299 55.1714 55.9676 55.2541C56.1057 55.3369 56.2479 55.4189 56.3661 55.48C56.4252 55.5106 56.4769 55.5352 56.5182 55.552C56.5388 55.5603 56.5556 55.5662 56.5687 55.5699C56.5804 55.5732 56.586 55.5739 56.5871 55.574C56.5874 55.574 56.5873 55.574 56.5871 55.574C56.5975 55.574 56.6078 55.5759 56.6175 55.5794C56.6612 55.5952 56.7171 55.6315 56.7751 55.6736C56.8359 55.7177 56.9078 55.7748 56.9859 55.8399C57.1424 55.97 57.3271 56.1346 57.5035 56.2957C57.68 56.457 57.8488 56.6154 57.9735 56.7334C58.0358 56.7924 58.0871 56.8414 58.1228 56.8756C58.1335 56.8858 58.1428 56.8948 58.1506 56.9022C58.1663 56.9014 58.1863 56.9005 58.2102 56.8997C58.273 56.8976 58.3628 56.8961 58.4716 56.899C58.641 56.9034 58.8575 56.9181 59.0901 56.9567C59.0528 56.9127 59.0045 56.8652 58.9411 56.8112C58.796 56.6876 58.5785 56.5351 58.2454 56.3131L58.2946 56.2393L58.3068 56.1514C59.0361 56.2527 59.6366 56.4091 60.3042 56.6026C60.2654 56.5395 60.2162 56.4633 60.1568 56.379C59.988 56.1395 59.7385 55.836 59.4144 55.5768C59.3841 55.5525 59.3731 55.5112 59.3873 55.475C59.4016 55.4388 59.4378 55.4161 59.4767 55.4191C59.5273 55.423 59.6077 55.4488 59.6978 55.4822C59.7923 55.5172 59.9102 55.5656 60.0423 55.6225C60.3067 55.7364 60.6313 55.8859 60.9462 56.0343C61.2461 56.1757 61.5377 56.3163 61.761 56.4249L60.7504 55.2965L58.469 54.5726L58.4658 54.5717C58.4625 54.5707 58.4578 54.5693 58.4516 54.5673C58.4391 54.5632 58.42 54.5567 58.3914 54.5461C58.3344 54.5251 58.2389 54.4878 58.0829 54.4224C57.7717 54.2918 57.2181 54.0482 56.2462 53.5954C55.7934 53.4725 55.4996 53.4918 55.3176 53.5752C55.1407 53.6562 55.0548 53.8048 55.0315 53.9834C55.0078 54.1655 55.0508 54.3746 55.1321 54.5542ZM58.5158 54.4015L58.5162 54.4016L58.5165 54.4017L58.5156 54.4014C58.5141 54.401 58.5112 54.4001 58.5063 54.3985C58.4966 54.3954 58.4797 54.3896 58.4528 54.3797C58.399 54.3599 58.306 54.3237 58.1516 54.2588C57.8426 54.1292 57.2894 53.8858 56.3143 53.4315C56.3097 53.4294 56.305 53.4276 56.3002 53.4263C55.8258 53.2964 55.4815 53.305 55.2438 53.4139C55.0001 53.5255 54.885 53.7345 54.8556 53.9605C54.8267 54.1832 54.8793 54.4258 54.9705 54.6273C55.0594 54.8236 55.1934 54.9992 55.3461 55.0749L55.3531 55.0794C55.3607 55.0843 55.3718 55.0915 55.386 55.1007C55.4144 55.119 55.4551 55.1451 55.5045 55.1764C55.6033 55.239 55.737 55.3225 55.8764 55.4062C56.0155 55.4897 56.1615 55.5739 56.2846 55.6376C56.3459 55.6693 56.4031 55.6967 56.4515 55.7164C56.4885 55.7314 56.5296 55.7458 56.5664 55.7501C56.5864 55.7597 56.621 55.781 56.6709 55.8172C56.7272 55.858 56.7957 55.9124 56.8725 55.9762C57.0258 56.1038 57.2082 56.2663 57.3839 56.4267C57.5594 56.587 57.7273 56.7446 57.8515 56.8622C57.9135 56.9209 57.9646 56.9697 58.0002 57.0037C58.0179 57.0207 58.0318 57.0341 58.0413 57.0431L58.0556 57.0569C58.0739 57.0746 58.0989 57.0836 58.1243 57.0816" fill="black"/>
<path fill-rule="evenodd" clip-rule="evenodd" d="M49.1349 45.8375C49.0872 45.8487 49.0395 45.8191 49.0283 45.7714C49.017 45.7238 49.0466 45.676 49.0943 45.6648L49.1146 45.7511C49.0943 45.6648 49.0943 45.6648 49.0943 45.6648L49.1199 45.6588C49.1366 45.6549 49.1611 45.6492 49.1924 45.642C49.2549 45.6276 49.3444 45.6071 49.4527 45.5828C49.6693 45.5342 49.9609 45.4704 50.261 45.4092C50.5609 45.3481 50.8703 45.2896 51.1221 45.2518C51.2478 45.233 51.3606 45.2191 51.4513 45.2128C51.4966 45.2096 51.5377 45.2083 51.573 45.2094C51.6065 45.2104 51.6414 45.2138 51.6705 45.2235C51.717 45.239 51.7421 45.2892 51.7266 45.3357C51.7111 45.3822 51.6609 45.4073 51.6144 45.3918C51.6103 45.3904 51.5963 45.3876 51.5674 45.3867C51.5403 45.3858 51.5056 45.3868 51.4636 45.3897C51.3796 45.3956 51.2721 45.4087 51.1484 45.4272C50.9012 45.4643 50.5953 45.5222 50.2964 45.583C49.9979 45.6439 49.7074 45.7075 49.4916 45.7559C49.3837 45.7801 49.2944 45.8005 49.2322 45.8149C49.2011 45.822 49.1768 45.8277 49.1602 45.8316L49.1349 45.8375Z" fill="white"/>
<path fill-rule="evenodd" clip-rule="evenodd" d="M-27.4519 92.3379H137.523V110.676H-27.4519V92.3379Z" fill="#DE3908"/>
</g>
<defs>
<clipPath id="clip0_5158_354373">
<rect x="0.0478516" y="0.671387" width="110" height="110" rx="55" fill="white"/>
</clipPath>
</defs>
</svg>
