<svg width="111" height="111" viewBox="0 0 111 111" fill="none" xmlns="http://www.w3.org/2000/svg">
<g clip-path="url(#clip0_5158_354359)">
<path fill-rule="evenodd" clip-rule="evenodd" d="M0.396484 0.228027H209.396V8.69287H0.396484V0.228027ZM0.396484 17.1577H209.396V25.6226H0.396484V17.1577ZM0.396484 34.0659H209.396V42.5522H0.396484V34.0659ZM0.396484 50.9956H209.396V59.4605H0.396484V50.9956ZM0.396484 67.9253H209.396V76.3901H0.396484V67.9253ZM0.396484 84.8335H209.396V93.2983H0.396484V84.8335ZM0.396484 101.763H209.396V110.228H0.396484V101.763Z" fill="#BD3D44"/>
<path fill-rule="evenodd" clip-rule="evenodd" d="M0.396484 8.69238H209.396V17.1572H0.396484V8.69238ZM0.396484 25.6221H209.396V34.0654H0.396484V25.6221ZM0.396484 42.5303H209.396V50.9951H0.396484V42.5303ZM0.396484 59.46H209.396V67.9033H0.396484V59.46ZM0.396484 76.3896H209.396V84.833H0.396484V76.3896ZM0.396484 93.2979H209.396V101.763H0.396484V93.2979Z" fill="white"/>
<path fill-rule="evenodd" clip-rule="evenodd" d="M0.395996 0.228027H83.9917V59.4605H0.395996V0.228027Z" fill="#192F5D"/>
<path fill-rule="evenodd" clip-rule="evenodd" d="M7.33594 2.7627L8.19531 5.12598H10.5586L8.60352 6.56543L9.35547 8.86426L7.33594 7.4248L5.4668 8.86426L6.24023 6.56543L4.19922 5.12598H6.73437L7.33594 2.7627ZM21.3008 2.7627L22.0527 5.12598H24.502L22.4824 6.56543L23.3418 8.86426L21.3008 7.4248L19.2598 8.86426L20.1191 6.56543L18.0781 5.12598H20.5273L21.3008 2.7627ZM35.2656 2.7627L36.0176 5.12598H38.4668L36.4473 6.56543L37.3066 8.86426L35.2656 7.4248L33.2246 8.86426L34.084 6.56543L32.043 5.12598H34.4922L35.2656 2.7627ZM49.1445 2.7627L49.9824 5.12598H52.3457L50.4121 6.56543L51.1641 8.86426L49.1445 7.4248L47.1895 8.86426L47.9414 6.56543L45.9219 5.12598H48.457L49.1445 2.7627ZM63.1094 2.7627L63.8613 5.12598H66.3105L64.291 6.56543L65.1289 8.86426L63.0019 7.4248L61.0684 8.86426L61.8203 6.56543L59.8008 5.12598H62.25L63.1094 2.7627ZM77.0742 2.7627L77.8262 5.12598H80.2754L78.2344 6.56543L79.0937 8.86426L77.0527 7.4248L75.0332 8.86426L75.8926 6.56543L73.8516 5.12598H76.3008L77.0742 2.7627ZM14.3398 8.69238L15.1133 11.0557H17.584L15.543 12.4951L16.4023 14.7725L14.3613 13.333L12.3203 14.7725L13.1797 12.4951L11.1387 11.0557H13.5879L14.3398 8.69238ZM28.2402 8.69238L29.0996 11.0557H31.4629L29.5078 12.4951L30.2598 14.7725L28.2402 13.333L26.3066 14.7725L27.0586 12.4951L25.0176 11.0557H27.5527L28.2402 8.69238ZM42.2051 8.69238L42.957 11.0557H45.4063L43.3867 12.4951L44.2461 14.7725L42.2051 13.333L40.1641 14.7725L41.0234 12.4951L38.9824 11.0557H41.4316L42.2051 8.69238ZM56.1699 8.69238L56.9219 11.0557H59.3711L57.3516 12.4951L58.1895 14.7725L56.1484 13.333L54.1289 14.7725L54.9883 12.4951L52.9473 11.0557H55.3965L56.1699 8.69238ZM70.0273 8.69238L70.8867 11.0557H73.1641L71.2305 12.4951L71.9824 14.7725L69.9414 13.333L68.0078 14.7725L68.7598 12.4951L66.7402 11.0557H69.2754L70.0273 8.69238ZM7.42188 14.6221L8.08789 16.9853H10.6445L8.60352 18.4248L9.35547 20.7021L7.33594 19.2627L5.4668 20.7021L6.24023 18.4248L4.19922 16.9853H6.73437L7.42188 14.6221ZM21.3008 14.6221L22.0527 16.9853H24.502L22.5684 18.4248L23.3203 20.7021L21.3008 19.2627L19.3672 20.7021L20.1191 18.4248L18.0781 16.9853H20.5273L21.3008 14.6221ZM35.2656 14.6221L36.0176 16.9853H38.4668L36.4473 18.4248L37.3066 20.7021L35.2656 19.2627L33.2246 20.7021L34.084 18.4248L32.043 16.9853H34.4922L35.2656 14.6221ZM49.1445 14.6221L49.9824 16.9853H52.3457L50.4121 18.4248L51.1641 20.7021L49.1445 19.2627L47.1895 20.7021L47.9414 18.4248L45.9434 16.9853H48.4785L49.1445 14.6221ZM63.1094 14.6221L63.8613 16.9853H66.3105L64.3769 18.4248L65.1289 20.7021L63.0879 19.2627L61.1543 20.7021L61.9062 18.4248L59.9082 16.9853H62.3574L63.1094 14.6221ZM77.0742 14.6221L77.8262 16.9853H80.2754L78.2344 18.4248L79.0937 20.7021L77.0527 19.2627L75.0332 20.7021L75.8926 18.4248L73.8516 16.9853H76.3008L77.0742 14.6221ZM14.3398 20.5303L15.1133 22.8936H17.584L15.543 24.333L16.4023 26.6318L14.3613 25.1924L12.3203 26.6318L13.1797 24.333L11.1387 22.915H13.5879L14.3398 20.5303ZM28.2402 20.5303L29.0996 22.8936H31.4629L29.5078 24.333L30.2598 26.6533L28.2402 25.2139L26.3066 26.6533L27.0586 24.3545L25.0176 22.9365H27.5527L28.2402 20.5303ZM42.2051 20.5303L42.957 22.8936H45.4063L43.4727 24.333L44.2246 26.6533L42.2051 25.2139L40.25 26.6533L41.002 24.3545L38.9824 22.9365H41.4316L42.2051 20.5303ZM56.1699 20.5303L56.9219 22.8936H59.3711L57.3516 24.333L58.1895 26.6533L56.1484 25.2139L54.1289 26.6533L54.9883 24.3545L52.9473 22.9365H55.3965L56.1699 20.5303ZM70.0273 20.5303L70.8867 22.8936H73.1641L71.2305 24.333L71.9824 26.6318L69.9414 25.1924L68.0078 26.6318L68.7598 24.333L66.7402 22.915H69.2754L70.0273 20.5303ZM7.42188 26.46L8.08789 28.8232H10.6445L8.60352 30.2627L9.35547 32.5615L7.33594 31.1221L5.4668 32.5615L6.24023 30.2627L4.19922 28.8232H6.73437L7.42188 26.46ZM21.3008 26.46L22.0527 28.8232H24.502L22.5684 30.2627L23.3203 32.5615L21.3008 31.1221L19.3672 32.5615L20.1191 30.2627L18.0781 28.8232H20.5273L21.3008 26.46ZM35.2656 26.46L36.0176 28.8232H38.4668L36.4473 30.2627L37.3066 32.5615L35.2656 31.1221L33.2246 32.5615L34.084 30.2627L32.043 28.8232H34.4922L35.2656 26.46ZM49.1445 26.46L49.9824 28.8232H52.3457L50.4121 30.2627L51.1641 32.5615L49.1445 31.1221L47.1895 32.5615L47.9414 30.2627L45.9219 28.8232H48.457L49.1445 26.46ZM63.1094 26.46L63.8613 28.8232H66.3105L64.3769 30.2627L65.1289 32.5615L63.0879 31.1221L61.1543 32.5615L61.9062 30.2627L59.8867 28.8232H62.3359L63.1094 26.46ZM77.0742 26.46L77.8262 28.8232H80.2754L78.2344 30.2627L79.0937 32.5615L77.0527 31.1221L75.0332 32.5615L75.8926 30.2627L73.8516 28.8232H76.3008L77.0742 26.46ZM14.3398 32.3896L15.1133 34.7529H17.584L15.543 36.1924L16.4023 38.4697L14.3613 37.0303L12.3203 38.4697L13.1797 36.1924L11.1387 34.7529H13.5879L14.3398 32.3896ZM28.2402 32.3896L29.0996 34.7529H31.4629L29.5078 36.1924L30.2598 38.4697L28.2402 37.0303L26.3066 38.4697L27.0586 36.1924L25.0176 34.7529H27.5527L28.2402 32.3896ZM42.2051 32.3896L42.957 34.7529H45.4063L43.4727 36.1924L44.2246 38.4697L42.2051 37.0303L40.25 38.4697L41.002 36.1924L38.9824 34.7529H41.4316L42.2051 32.3896ZM56.1699 32.3896L56.9219 34.7529H59.3711L57.3516 36.1924L58.1895 38.4697L56.1484 37.0303L54.1289 38.4697L54.9883 36.1924L52.9473 34.7529H55.3965L56.1699 32.3896ZM70.0273 32.3896L70.8867 34.7529H73.1641L71.2305 36.1924L71.9824 38.4697L69.9414 37.0303L68.0078 38.4697L68.7598 36.1924L66.7402 34.7529H69.2754L70.0273 32.3896ZM7.42188 38.2978L8.08789 40.6611H10.6445L8.60352 42.1221L9.35547 44.3994L7.33594 42.96L5.4668 44.3994L6.24023 42.1221L4.19922 40.6826H6.73437L7.42188 38.2978ZM21.3008 38.2978L22.0527 40.6611H24.502L22.5684 42.1221L23.3203 44.3994L21.3008 42.96L19.3672 44.3994L20.1191 42.1221L18.0781 40.6826H20.5273L21.3008 38.2978ZM35.2656 38.2978L36.0176 40.6611H38.4668L36.4473 42.1221L37.3066 44.3994L35.2656 42.96L33.2246 44.3994L34.084 42.1221L32.043 40.6826H34.4922L35.2656 38.2978ZM49.1445 38.2978L49.9824 40.6611H52.3457L50.4121 42.1221L51.1641 44.3994L49.1445 42.96L47.1895 44.3994L47.9414 42.1221L45.9219 40.6826H48.457L49.1445 38.2978ZM63.1094 38.2978L63.8613 40.6611H66.3105L64.3769 42.1221L65.1289 44.3994L63.0879 42.96L61.1543 44.3994L61.9062 42.1221L59.8867 40.6826H62.3359L63.1094 38.2978ZM77.0742 38.2978L77.8262 40.6611H80.2754L78.2344 42.1221L79.0937 44.3994L77.0527 42.96L75.0332 44.3994L75.8926 42.1221L73.8516 40.6826H76.3008L77.0742 38.2978ZM14.3398 44.2275L15.1133 46.5908H17.584L15.543 48.0303L16.4023 50.3291L14.3613 48.8896L12.3203 50.3291L13.1797 48.0303L11.1387 46.5908H13.5879L14.3398 44.2275ZM28.2402 44.2275L29.0996 46.5908H31.4629L29.5078 48.0303L30.2598 50.3291L28.2402 48.8896L26.3066 50.3291L27.0586 48.0303L25.0176 46.5908H27.5527L28.2402 44.2275ZM42.2051 44.2275L42.957 46.5908H45.4063L43.4727 48.0303L44.2246 50.3291L42.2051 48.8896L40.25 50.3291L41.002 48.0303L38.9824 46.5908H41.4316L42.2051 44.2275ZM56.1699 44.2275L56.9219 46.5908H59.3711L57.3516 48.0303L58.1895 50.3291L56.1484 48.8896L54.1289 50.3291L54.9883 48.0303L52.9473 46.5908H55.3965L56.1699 44.2275ZM70.0273 44.2275L70.8867 46.5908H73.1641L71.2305 48.0303L71.9824 50.3291L69.9414 48.8896L68.0078 50.3291L68.7598 48.0303L66.7402 46.5908H69.2754L70.0273 44.2275ZM7.42188 50.1572L8.08789 52.5205H10.6445L8.60352 53.96L9.35547 56.2373L7.33594 54.7978L5.4668 56.2373L6.24023 53.96L4.19922 52.5205H6.73437L7.42188 50.1572ZM21.3008 50.1572L22.0527 52.5205H24.502L22.5684 53.96L23.3203 56.2373L21.3008 54.7978L19.3672 56.2373L20.1191 53.96L18.0781 52.5205H20.5273L21.3008 50.1572ZM35.2656 50.1572L36.0176 52.5205H38.4668L36.4473 53.96L37.3066 56.2373L35.2656 54.7978L33.2246 56.2373L34.084 53.96L32.043 52.5205H34.4922L35.2656 50.1572ZM49.1445 50.1572L49.9824 52.5205H52.3457L50.4121 53.96L51.1641 56.2373L49.1445 54.7978L47.1895 56.2373L47.9414 53.96L45.9219 52.5205H48.457L49.1445 50.1572ZM63.1094 50.1572L63.8613 52.5205H66.3105L64.3769 53.96L65.1289 56.2373L63.0879 54.7978L61.1543 56.2373L61.9062 53.96L59.8867 52.5205H62.3359L63.1094 50.1572ZM77.0742 50.1572L77.8262 52.5205H80.2754L78.2344 53.96L79.0937 56.2373L77.0527 54.7978L75.0332 56.2373L75.8926 53.96L73.8516 52.5205H76.3008L77.0742 50.1572Z" fill="white"/>
</g>
<defs>
<clipPath id="clip0_5158_354359">
<rect x="0.396484" y="0.228027" width="110" height="110" rx="55" fill="white"/>
</clipPath>
</defs>
</svg>
