<svg width="111" height="111" viewBox="0 0 111 111" fill="none" xmlns="http://www.w3.org/2000/svg">
<g clip-path="url(#clip0_5158_352743)">
<path d="M0.00683594 0.769043H110.007V110.769H0.00683594V0.769043Z" fill="#009543"/>
<path d="M0.00683594 0.769043H110.007V55.769H0.00683594V0.769043Z" fill="#D21034"/>
<path d="M0.00585938 0.770996L51.3393 45.9291H110.006V65.6134H51.3393L0.00585938 110.772" fill="black"/>
<path fill-rule="evenodd" clip-rule="evenodd" d="M-6.10693 7.71771L6.11649 -6.17725L54.829 36.6752H119.258V74.8658H54.829L6.11649 117.718L-6.10693 103.823L47.8475 56.3595H100.752V55.1815H47.8475L-6.10693 7.71771Z" fill="#FDCE12"/>
<path fill-rule="evenodd" clip-rule="evenodd" d="M-3.32715 4.56051L3.34017 -3.01855L53.244 40.8819H110.007V50.9763H49.4359L-3.32715 4.56051ZM49.4359 60.5662H110.007V70.6606H53.244L3.34017 114.561L-3.32715 106.982L49.4359 60.5662Z" fill="black"/>
<path d="M14.5316 65.2089V70.8097C19.4063 70.8097 28.9899 67.0758 28.9899 55.0238C28.9899 42.9718 18.7633 40.7314 15.714 40.7314C12.6439 40.7314 3.20557 42.9303 3.20557 52.7627C3.20557 62.6367 12.478 63.5494 14.3034 63.5494C16.1288 63.5494 22.9742 61.8899 22.186 54.5052C21.9816 56.3075 21.1192 57.971 19.7641 59.1768C18.409 60.3826 16.6566 61.0459 14.8427 61.0394C9.86426 61.0394 6.75272 57.3471 6.75272 53.6962C6.75272 50.0453 9.78129 45.1498 15.0294 45.1498C20.2775 45.1498 24.1151 49.8171 24.1151 54.5052C24.1151 59.214 20.4227 65.1881 14.5316 65.1881V65.2089Z" fill="#FDCE12"/>
<path d="M10.2383 57.8861L10.5287 58.0935C10.5287 58.0935 12.852 52.8039 19.0543 49.0493C18.2661 49.4642 14.1173 51.5385 10.2383 57.8861V57.8861Z" fill="#FDCE12"/>
<path fill-rule="evenodd" clip-rule="evenodd" d="M18.9588 49.0064C18.9793 48.9956 18.9983 48.9857 19.0157 48.9766L19.0973 49.121C16.007 50.9917 13.883 53.2448 12.5318 55.0301C11.8562 55.9227 11.3739 56.6982 11.0608 57.25C10.9042 57.5259 10.7899 57.7458 10.7149 57.8965C10.6774 57.9719 10.6497 58.0299 10.6315 58.069C10.6223 58.0885 10.6156 58.1033 10.6111 58.1131L10.6062 58.1241L10.605 58.1268L10.6047 58.1274L10.5636 58.2211L10.1901 57.9543L10.2383 57.8868L10.1675 57.8435C13.9724 51.6173 18.0386 49.4882 18.9588 49.0064ZM10.3494 57.8642L10.4954 57.9684C10.5133 57.9307 10.5369 57.8818 10.5664 57.8226C10.6426 57.6694 10.7583 57.4467 10.9165 57.1681C11.2327 56.6108 11.7189 55.8291 12.3995 54.93C12.5046 54.7911 12.6143 54.6495 12.7288 54.5054C11.9458 55.4614 11.1423 56.5735 10.3494 57.8642Z" fill="#FDCE12"/>
<path d="M10.8405 56.9739C10.8405 56.9739 10.1353 55.5219 10.7576 54.8581C11.3799 54.215 11.1102 56.5798 11.1102 56.5798L11.3799 56.1856C11.3799 56.1856 10.965 54.4017 11.4214 54.0283C11.8985 53.6342 11.6703 55.75 11.6703 55.75L11.9607 55.3767C11.9607 55.3767 11.6495 53.6342 12.1059 53.3023C12.583 52.9704 12.2926 54.9618 12.2926 54.9618L12.6245 54.5469C12.6245 54.5469 12.3756 52.8874 12.9356 52.4933C13.4957 52.0992 12.9979 54.0698 12.9979 54.0698L13.3713 53.6549C13.3713 53.6549 13.2053 52.1406 13.6824 51.788C14.1595 51.4561 13.7654 53.2401 13.7654 53.2401L14.0973 52.8667C14.0973 52.8667 13.9936 51.4561 14.4499 51.1242C14.927 50.7923 14.4914 52.4725 14.4914 52.4725L14.8441 52.1406C14.8441 52.1406 14.7611 50.7093 15.3419 50.4397C15.9227 50.17 15.2382 51.7673 15.2382 51.7673L15.6531 51.4354C15.6531 51.4354 15.7568 49.7759 16.2546 49.6307C16.7525 49.4647 16.0472 51.0827 16.0472 51.0827L16.3998 50.7923C16.3998 50.7923 16.5865 49.3817 17.1259 49.2158C17.6859 49.0291 16.794 50.5019 16.794 50.5019L17.1466 50.2322C17.1466 50.2322 17.5407 48.8217 18.0593 48.6557C18.5572 48.5105 17.52 50.0041 17.52 50.0041L17.8726 49.7551C17.8726 49.7551 18.4327 48.469 18.9098 48.3861C19.3454 48.3031 18.3705 49.444 18.3705 49.444L18.8061 49.1951C18.8061 49.1951 19.5321 47.8675 19.8018 48.2616C20.0507 48.6765 18.7646 49.278 18.7646 49.278L18.3497 49.527C18.3497 49.527 19.9055 48.7802 20.0922 49.1536C20.2789 49.527 17.9556 49.7759 17.9556 49.7759L17.5822 50.0248C17.5822 50.0248 19.138 49.6099 18.9513 50.0041C18.7439 50.3982 17.2088 50.3152 17.2088 50.3152L16.8562 50.5641C16.8562 50.5641 18.412 50.1907 18.2045 50.5641C17.9971 50.896 16.4828 50.8753 16.4828 50.8753L16.1094 51.1864C16.1094 51.1864 17.6237 50.7716 17.3955 51.2487C17.1881 51.705 15.4456 51.6843 15.4456 51.6843L15.0308 52.0992C15.0308 52.0992 16.628 51.5391 16.4828 51.9747C16.3583 52.3896 14.5329 52.597 14.5329 52.597L14.118 53.0119C14.118 53.0119 15.8398 52.4518 15.3212 52.9704C14.8233 53.5097 13.558 53.6342 13.558 53.6342L13.0809 54.2565C13.0809 54.2565 14.7818 53.2193 14.5329 53.8001C14.3047 54.381 12.6245 54.7751 12.6245 54.7751L12.2926 55.19C12.2926 55.19 13.8276 54.298 13.6617 54.7751C13.5165 55.2937 11.8777 55.8123 11.8777 55.8123L11.6081 56.1856C11.6081 56.1856 13.4128 55.107 13.2675 55.6671C13.1016 56.2064 11.3799 56.6005 11.3799 56.6005L11.1724 56.9532C11.1724 56.9532 12.8319 55.9782 12.8319 56.4553C12.8734 56.9117 10.882 57.368 10.882 57.368L10.8405 56.9739V56.9739Z" fill="#FDCE12"/>
<path d="M20.1128 57.8871L19.8224 58.0945C19.8224 58.0945 17.4991 52.8049 11.2968 49.0503C12.085 49.4652 16.2337 51.5395 20.1128 57.8871V57.8871Z" fill="#FDCE12"/>
<path fill-rule="evenodd" clip-rule="evenodd" d="M11.3923 49.0069C11.3717 48.9961 11.3528 48.9862 11.3354 48.9771L11.2538 49.1215C14.3441 50.9922 16.468 53.2453 17.8193 55.0306C18.4949 55.9232 18.9771 56.6987 19.2903 57.2505C19.4469 57.5264 19.5611 57.7463 19.6362 57.897C19.6737 57.9724 19.7014 58.0304 19.7196 58.0695C19.7287 58.089 19.7355 58.1038 19.7399 58.1136L19.7449 58.1246L19.7461 58.1273L19.7464 58.1279L19.7875 58.2216L20.161 57.9548L20.1128 57.8872L20.1836 57.844C16.3787 51.6178 12.3125 49.4887 11.3923 49.0069ZM20.0016 57.8647L19.8557 57.9689C19.8378 57.9312 19.8142 57.8823 19.7847 57.8231C19.7085 57.6699 19.5928 57.4472 19.4346 57.1686C19.1183 56.6112 18.6321 55.8296 17.9516 54.9305C17.8465 54.7916 17.7368 54.65 17.6223 54.5059C18.4053 55.4618 19.2088 56.574 20.0016 57.8647Z" fill="#FDCE12"/>
<path d="M19.5115 56.9749C19.5115 56.9749 20.2168 55.5228 19.5945 54.859C18.9722 54.216 19.2418 56.5808 19.2418 56.5808L18.9722 56.1866C18.9722 56.1866 19.387 54.4027 18.9307 54.0293C18.4536 53.6352 18.6818 55.751 18.6818 55.751L18.3914 55.3776C18.3914 55.3776 18.7025 53.6352 18.2461 53.3033C17.769 52.9714 18.0595 54.9628 18.0595 54.9628L17.7276 54.5479C17.7276 54.5479 17.9765 52.8884 17.4164 52.4943C16.8563 52.1001 17.3542 54.0708 17.3542 54.0708L16.9808 53.6559C16.9808 53.6559 17.1467 52.1416 16.6696 51.789C16.1925 51.4571 16.5867 53.241 16.5867 53.241L16.2548 52.8677C16.2548 52.8677 16.3585 51.4571 15.9021 51.1252C15.425 50.7933 15.8606 52.4735 15.8606 52.4735L15.508 52.1416C15.508 52.1416 15.591 50.7103 15.0101 50.4407C14.4293 50.171 15.1139 51.7682 15.1139 51.7682L14.699 51.4363C14.699 51.4363 14.5953 49.7769 14.0974 49.6316C13.5996 49.4657 14.3049 51.0837 14.3049 51.0837L13.9522 50.7933C13.9522 50.7933 13.7655 49.3827 13.2262 49.2168C12.6661 49.0301 13.5581 50.5029 13.5581 50.5029L13.2055 50.2332C13.2055 50.2332 12.8113 48.8226 12.2927 48.6567C11.7949 48.5115 12.8321 50.005 12.8321 50.005L12.4794 49.7561C12.4794 49.7561 11.9193 48.47 11.4422 48.387C11.0066 48.3041 11.9816 49.445 11.9816 49.445L11.546 49.196C11.546 49.196 10.8199 47.8684 10.5503 48.2626C10.3013 48.6774 11.5875 49.279 11.5875 49.279L12.0023 49.5279C12.0023 49.5279 10.4466 48.7812 10.2599 49.1545C10.0732 49.5279 12.3965 49.7769 12.3965 49.7769L12.7698 50.0258C12.7698 50.0258 11.2141 49.6109 11.4008 50.005C11.6082 50.3992 13.1432 50.3162 13.1432 50.3162L13.4959 50.5651C13.4959 50.5651 11.9401 50.1917 12.1475 50.5651C12.355 50.897 13.8692 50.8763 13.8692 50.8763L14.2426 51.1874C14.2426 51.1874 12.7283 50.7725 12.9565 51.2497C13.164 51.706 14.9064 51.6853 14.9064 51.6853L15.3213 52.1001C15.3213 52.1001 13.724 51.5401 13.8692 51.9757C13.9937 52.3905 15.8191 52.598 15.8191 52.598L16.234 53.0129C16.234 53.0129 14.5123 52.4528 15.0309 52.9714C15.5287 53.5107 16.7941 53.6352 16.7941 53.6352L17.2712 54.2575C17.2712 54.2575 15.5702 53.2203 15.8191 53.8011C16.0473 54.3819 17.7276 54.7761 17.7276 54.7761L18.0595 55.1909C18.0595 55.1909 16.5244 54.299 16.6904 54.7761C16.8356 55.2947 18.4743 55.8132 18.4743 55.8132L18.744 56.1866C18.744 56.1866 16.9393 55.108 17.0845 55.668C17.2505 56.2074 18.9722 56.6015 18.9722 56.6015L19.1796 56.9541C19.1796 56.9541 17.5201 55.9792 17.5201 56.4563C17.4786 56.9127 19.47 57.369 19.47 57.369L19.5115 56.9749V56.9749Z" fill="#FDCE12"/>
</g>
<defs>
<clipPath id="clip0_5158_352743">
<rect x="0.00683594" y="0.769043" width="110" height="110" rx="55" fill="white"/>
</clipPath>
</defs>
</svg>
