<svg width="111" height="111" viewBox="0 0 111 111" fill="none" xmlns="http://www.w3.org/2000/svg">
<g clip-path="url(#clip0_5158_353000)">
<path d="M0.708252 0.60498H110.708V110.605H0.708252V0.60498Z" fill="#CF142B"/>
<path d="M0.708252 0.60498H110.708V73.9311H0.708252V0.60498Z" fill="#00247D"/>
<path d="M0.708252 0.60498H110.708V37.2788H0.708252V0.60498Z" fill="#FFCC00"/>
<path d="M62.2933 40.6117L60.1759 44.7045L62.5594 45.9622L62.2933 40.6117Z" fill="white"/>
<path d="M62.2922 40.6109L62.882 45.1811L60.2121 45.5477L62.2922 40.6109Z" fill="white"/>
<path d="M66.0355 44.4876L61.4888 43.7386L61.0292 46.3941L66.0355 44.4876Z" fill="white"/>
<path d="M66.0353 44.488L61.8711 46.4612L60.6974 44.0353L66.0353 44.488Z" fill="white"/>
<path d="M57.4544 42.9705L60.6925 46.2489L62.6252 44.3708L57.4544 42.9705Z" fill="white"/>
<path d="M57.4558 42.9714L61.9845 43.8227L61.5082 46.4752L57.4558 42.9714Z" fill="white"/>
<path d="M63.5019 49.2392L62.8092 44.6836L60.1417 45.0671L63.5019 49.2392Z" fill="white"/>
<path d="M63.5027 49.2402L60.3393 45.8896L62.2837 44.0237L63.5027 49.2402Z" fill="white"/>
<path d="M58.1993 48.3067L62.3179 46.2401L61.1289 43.8217L58.1993 48.3067Z" fill="white"/>
<path d="M58.1994 48.3061L60.4085 44.2621L62.784 45.5348L58.1994 48.3061Z" fill="white"/>
<path d="M74.5463 45.0735L71.1568 48.1953L72.9664 50.1923L74.5463 45.0735Z" fill="white"/>
<path d="M74.5463 45.0735L73.5374 49.5698L70.9032 49.0011L74.5463 45.0735Z" fill="white"/>
<path d="M76.7357 49.9948L72.7193 47.7359L71.3792 50.0741L76.7357 49.9948Z" fill="white"/>
<path d="M76.7369 49.9935L72.149 50.4234L71.8758 47.7424L76.7369 49.9935Z" fill="white"/>
<path d="M69.1957 45.6365L71.1173 49.8247L73.5758 48.7208L69.1957 45.6365Z" fill="white"/>
<path d="M69.1971 45.636L73.1615 47.9849L71.8067 50.3145L69.1971 45.636Z" fill="white"/>
<path d="M72.739 53.5919L73.6462 49.0741L71.0084 48.5221L72.739 53.5919Z" fill="white"/>
<path d="M72.7402 53.5922L70.9135 49.3617L73.379 48.2733L72.7402 53.5922Z" fill="white"/>
<path d="M68.0782 50.9031L72.6552 50.3697L72.3651 47.6905L68.0782 50.9031Z" fill="white"/>
<path d="M68.0793 50.9041L71.5383 47.8595L73.3352 49.8679L68.0793 50.9041Z" fill="white"/>
<path d="M84.5512 53.4606L80.2984 55.2349L81.3159 57.7304L84.5512 53.4606Z" fill="white"/>
<path d="M84.5499 53.4598L82.0641 57.3399L79.7832 55.9045L84.5499 53.4598Z" fill="white"/>
<path d="M84.9225 58.8341L81.9209 55.3377L79.862 57.0765L84.9225 58.8341Z" fill="white"/>
<path d="M84.9227 58.8334L80.4644 57.6683L81.1246 55.0555L84.9227 58.8334Z" fill="white"/>
<path d="M79.3225 52.1555L79.6957 56.7484L82.3835 56.5519L79.3225 52.1555Z" fill="white"/>
<path d="M79.3216 52.156L82.2436 55.7191L80.1737 57.4449L79.3216 52.156Z" fill="white"/>
<path d="M79.9315 60.853L82.3292 56.9179L80.0392 55.497L79.9315 60.853Z" fill="white"/>
<path d="M79.932 60.853L79.6624 56.2529L82.3514 56.0734L79.932 60.853Z" fill="white"/>
<path d="M76.4698 56.7251L80.9532 57.7894L81.5969 55.1724L76.4698 56.7251Z" fill="white"/>
<path d="M76.4714 56.7256L80.7631 55.0477L81.7647 57.5496L76.4714 56.7256Z" fill="white"/>
<path d="M91.0763 64.7569L86.4732 64.9696L86.5757 67.6626L91.0763 64.7569Z" fill="white"/>
<path d="M91.077 64.7577L87.4141 67.5536L85.7616 65.4247L91.077 64.7577Z" fill="white"/>
<path d="M89.5922 69.9326L87.9674 65.6205L85.4379 66.5503L89.5922 69.9326Z" fill="white"/>
<path d="M89.5921 69.9331L85.8012 67.3134L87.3152 65.084L89.5921 69.9331Z" fill="white"/>
<path d="M86.6073 61.7445L85.3871 66.1881L87.98 66.9227L86.6073 61.7445Z" fill="white"/>
<path d="M86.6078 61.7447L88.1349 66.0924L85.5996 67.0061L86.6078 61.7447Z" fill="white"/>
<path d="M84.2023 70.1235L87.8013 67.2457L86.1354 65.1274L84.2023 70.1235Z" fill="white"/>
<path d="M84.2022 70.1226L85.5222 65.7077L88.1104 66.4587L84.2022 70.1226Z" fill="white"/>
<path d="M82.3605 65.0616L86.2096 67.5951L87.7095 65.3562L82.3605 65.0616Z" fill="white"/>
<path d="M82.3616 65.0615L86.9684 64.9526L87.0539 67.6462L82.3616 65.0615Z" fill="white"/>
<path d="M20.4625 64.7631L24.1255 67.559L25.7779 65.4301L20.4625 64.7631Z" fill="white"/>
<path d="M20.4637 64.7628L25.0669 64.9755L24.9643 67.6685L20.4637 64.7628Z" fill="white"/>
<path d="M24.929 61.7482L23.4019 66.0958L25.9372 67.0095L24.929 61.7482Z" fill="white"/>
<path d="M24.9301 61.7484L26.1502 66.192L23.5573 66.9266L24.9301 61.7484Z" fill="white"/>
<path d="M21.9511 69.9365L25.742 67.3168L24.228 65.0874L21.9511 69.9365Z" fill="white"/>
<path d="M21.9513 69.936L23.576 65.624L26.1055 66.5537L21.9513 69.936Z" fill="white"/>
<path d="M29.1757 65.0629L24.569 64.954L24.4834 67.6476L29.1757 65.0629Z" fill="white"/>
<path d="M29.1773 65.0626L25.3283 67.5961L23.8283 65.3572L29.1773 65.0626Z" fill="white"/>
<path d="M27.3354 70.1255L26.0154 65.7106L23.4272 66.4616L27.3354 70.1255Z" fill="white"/>
<path d="M27.3355 70.1255L23.7366 67.2477L25.4024 65.1293L27.3355 70.1255Z" fill="white"/>
<path d="M26.9846 53.4559L29.4704 57.3359L31.7513 55.9006L26.9846 53.4559Z" fill="white"/>
<path d="M26.9839 53.4557L31.2367 55.23L30.2193 57.7255L26.9839 53.4557Z" fill="white"/>
<path d="M32.2121 52.1536L29.2901 55.7167L31.36 57.4424L32.2121 52.1536Z" fill="white"/>
<path d="M32.2102 52.1536L31.837 56.7465L29.1492 56.55L32.2102 52.1536Z" fill="white"/>
<path d="M26.6169 58.8285L31.0752 57.6634L30.4149 55.0506L26.6169 58.8285Z" fill="white"/>
<path d="M26.6165 58.8282L29.6181 55.3319L31.6771 57.0707L26.6165 58.8282Z" fill="white"/>
<path d="M35.0701 56.7173L30.7784 55.0394L29.7768 57.5413L35.0701 56.7173Z" fill="white"/>
<path d="M35.0715 56.7168L30.588 57.7811L29.9443 55.1641L35.0715 56.7168Z" fill="white"/>
<path d="M31.6095 60.8428L31.8791 56.2426L29.1901 56.0631L31.6095 60.8428Z" fill="white"/>
<path d="M31.6112 60.8433L29.2135 56.9081L31.5035 55.4873L31.6112 60.8433Z" fill="white"/>
<path d="M36.9916 45.0725L38.0004 49.5688L40.6347 49.0001L36.9916 45.0725Z" fill="white"/>
<path d="M36.9921 45.0735L40.3815 48.1953L38.5719 50.1923L36.9921 45.0735Z" fill="white"/>
<path d="M42.3474 45.6365L38.3829 47.9854L39.7377 50.315L42.3474 45.6365Z" fill="white"/>
<path d="M42.3475 45.6365L40.4259 49.8247L37.9674 48.7208L42.3475 45.6365Z" fill="white"/>
<path d="M34.7963 49.992L39.3842 50.422L39.6574 47.7409L34.7963 49.992Z" fill="white"/>
<path d="M34.797 49.9929L38.8134 47.734L40.1535 50.0721L34.797 49.9929Z" fill="white"/>
<path d="M43.461 50.9026L40.002 47.858L38.2051 49.8665L43.461 50.9026Z" fill="white"/>
<path d="M43.4592 50.9021L38.8821 50.3688L39.1723 47.6895L43.4592 50.9021Z" fill="white"/>
<path d="M38.7979 53.5971L40.6245 49.3665L38.1591 48.2782L38.7979 53.5971Z" fill="white"/>
<path d="M38.7993 53.5973L37.8921 49.0794L40.5299 48.5275L38.7993 53.5973Z" fill="white"/>
<path d="M49.2449 40.61L48.6551 45.1801L51.325 45.5467L49.2449 40.61Z" fill="white"/>
<path d="M49.2448 40.6103L51.3621 44.703L48.9787 45.9607L49.2448 40.6103Z" fill="white"/>
<path d="M54.0877 42.9699L49.5589 43.8212L50.0353 46.4737L54.0877 42.9699Z" fill="white"/>
<path d="M54.0889 42.9705L50.8507 46.249L48.918 44.3708L54.0889 42.9705Z" fill="white"/>
<path d="M45.5023 44.4836L49.6665 46.4568L50.8402 44.0309L45.5023 44.4836Z" fill="white"/>
<path d="M45.5021 44.4836L50.0488 43.7347L50.5084 46.3901L45.5021 44.4836Z" fill="white"/>
<path d="M53.3387 48.3061L51.1296 44.2621L48.7541 45.5348L53.3387 48.3061Z" fill="white"/>
<path d="M53.3376 48.3067L49.219 46.2401L50.408 43.8217L53.3376 48.3067Z" fill="white"/>
<path d="M48.031 49.2417L51.1944 45.8911L49.2499 44.0252L48.031 49.2417Z" fill="white"/>
<path d="M48.031 49.2417L48.7237 44.686L51.3913 45.0695L48.031 49.2417Z" fill="white"/>
</g>
<defs>
<clipPath id="clip0_5158_353000">
<rect x="0.708252" y="0.60498" width="110" height="110" rx="55" fill="white"/>
</clipPath>
</defs>
</svg>
