<svg xmlns="http://www.w3.org/2000/svg" height="512" width="512" viewBox="0 0 512 512"><g stroke-width="1pt"><path fill-rule="evenodd" fill="#229e45" d="M0 0h512v512H0z"/><path d="M261.4 405.4l229.8-149.2L260 106.6l-230.7 150 232 148.8z" fill-rule="evenodd" fill="#f8e509"/><path d="M361.5 256a97.2 97.2 0 1 1-194.3-.2 97.2 97.2 0 0 1 194.3.2z" fill-rule="evenodd" fill="#2b49a3"/><path fill-rule="evenodd" fill="#ffffef" d="M232.3 314.2l-3-1.8-3.1 1.6.7-3.5-2.4-2.5 3.4-.4 1.6-3.2 1.5 3.3 3.4.6-2.6 2.4m65.7 20l-3-1.8-3.2 1.6.7-3.5-2.4-2.5 3.5-.4 1.6-3.2 1.4 3.3 3.4.6-2.5 2.4m-27.6-22.9l-2.6-1.5-2.7 1.3.6-3-2-2.2 2.9-.3 1.4-2.7 1.2 2.8 3 .5-2.2 2m66.2-6.4l-2.5-1.5-2.7 1.4.6-3-2-2.1 2.9-.4 1.3-2.6 1.3 2.7 2.9.5-2.2 2m-66.6-16.7l-3-1.7-3.1 1.5.7-3.5-2.4-2.5 3.4-.4 1.6-3.1 1.5 3.2 3.4.6-2.6 2.4M188 245l-3-1.8-3 1.6.6-3.5-2.4-2.5 3.5-.4 1.6-3.2 1.4 3.3 3.4.6-2.5 2.4m10.1 43.5l-3-1.7-3.1 1.5.7-3.4-2.4-2.6 3.4-.4 1.6-3 1.5 3.1 3.4.7-2.6 2.3m100.6-51.3l-2.6-1.5-2.8 1.3.6-3-2-2.3 3-.3 1.4-2.8 1.3 2.9 3 .5-2.3 2.1m-5 29.2L290 255l-2.1 1 .5-2.4-1.7-1.7 2.4-.3 1.1-2.2 1 2.3 2.4.4-1.8 1.6m-108.4 38.5l-2-1.2-2.1 1 .5-2.2-1.7-1.7 2.3-.3 1.1-2 1 2 2.3.5-1.7 1.6m152.6 11.5l-1.7-.8-1.7.7.4-1.7-1.3-1.3 1.9-.2.8-1.5.8 1.6 1.9.3-1.4 1.2"/><path fill-rule="evenodd" fill="#ffffef" d="M183.5 292.3l-2-1.2-2.1 1 .5-2.2-1.7-1.7 2.3-.3 1.1-2 1 2 2.3.5-1.7 1.6"/><path fill-rule="evenodd" fill="#ffffef" d="M183.5 292.3l-2-1.2-2.1 1 .5-2.2-1.7-1.7 2.3-.3 1.1-2 1 2 2.3.5-1.7 1.6m32.2 2.3l-2-1.2-2 1 .4-2.3-1.6-1.7 2.3-.2 1-2.1 1 2.2 2.3.4-1.7 1.6m-3.7 13l-2-1.2-2 1 .4-2.3-1.6-1.7 2.3-.3 1-2 1 2 2.3.5-1.7 1.6m66.6-17l-2-1.2-2 1 .4-2.3-1.6-1.7 2.3-.2 1.1-2.1 1 2.1 2.2.4-1.7 1.6m-19.1 2.4l-2-1.2-2.1 1 .5-2.3-1.6-1.7 2.3-.2 1-2.1 1 2.1 2.3.4-1.7 1.6m-52.5-4.4l-1.2-.7-1.3.6.2-1.4-1-1.1 1.5-.2.7-1.3.6 1.4 1.4.2-1 1M333.2 310l-2-1.1-2.1 1 .5-2.3-1.6-1.7 2.3-.3 1-2 1 2 2.3.5-1.7 1.6m-16 4.4l-1.6-1-1.7 1 .4-2-1.3-1.4 1.9-.2.8-1.7.8 1.7 2 .4-1.5 1.3m8 1.8l-1.6-1-1.6.9.3-1.8-1.2-1.3 1.8-.2.8-1.6.7 1.6 1.8.3-1.3 1.3m22.2-17.4l-1.5-.8-1.6.7.4-1.7-1.2-1.3 1.7-.2.8-1.5.7 1.6 1.7.3-1.3 1.2M317 322.9l-2-1.1-2 1 .5-2.2-1.6-1.5 2.2-.3 1.1-1.9 1 2 2.1.4-1.6 1.4m.4 10.9l-1.8-1-1.8.9.4-2.2-1.4-1.5 2-.3 1-1.9.8 2 2 .4-1.5 1.4M302.3 312l-1.5-.9-1.6.8.4-1.8-1.2-1.2 1.7-.2.8-1.6.7 1.6 1.7.3-1.3 1.2m-13.5 1.8l-1.5-.9-1.5.8.3-1.8-1.2-1.2 1.7-.2.8-1.6.7 1.6 1.7.3-1.2 1.2M265 291.4l-1.5-.9-1.6.8.4-1.7-1.2-1.3 1.7-.2.8-1.5.7 1.6 1.7.3-1.3 1.1m2.9 43.5l-1.3-.7-1.3.6.3-1.4-1-1 1.4-.3.7-1.3.6 1.4 1.4.3-1 1m-35.2-66.1l-3-1.7-3.1 1.5.7-3.5-2.4-2.5 3.4-.4 1.6-3.1 1.5 3.2 3.4.6-2.6 2.4"/><path d="M355.1 291a95 95 0 0 0 4.4-15.2c-51.6-45.3-109.2-68.6-182-63.8-2.6 5-4.7 10.2-6.4 16 86.2-8.3 149.4 29.9 184 63z" fill-rule="evenodd" fill="#fff"/><path d="M331.9 265.4l1.8 1c-.3.7-.3 1.3-.2 1.7.1.5.5 1 1 1.3.6.4 1.1.6 1.6.6.4 0 .8-.3 1-.6.1-.2.2-.4.1-.7l-.3-.8-1.2-1.3a5.9 5.9 0 0 1-1.4-2.3 2.8 2.8 0 0 1 1.6-3.3c.5-.2 1-.3 1.7-.2.6.2 1.3.4 2 .9 1 .8 1.7 1.6 2 2.4.2.9 0 1.8-.5 2.6l-1.8-1.1c.2-.6.3-1 .2-1.4-.1-.3-.5-.7-1-1-.5-.4-1-.5-1.4-.5a.8.8 0 0 0-.6.3.8.8 0 0 0-.1.7c0 .4.5 1 1.2 1.7l1.5 2a3 3 0 0 1-.2 3.2 3.1 3.1 0 0 1-1.4 1.1 3 3 0 0 1-1.9.2 6 6 0 0 1-2.1-1 4.6 4.6 0 0 1-2-2.5c-.3-.9-.2-1.9.4-3zm-8.8-5.7l2 1c-.3.6-.4 1.2-.2 1.6.1.5.5 1 1 1.3.6.3 1.1.5 1.6.4.4 0 .8-.2 1-.6a1 1 0 0 0 .1-.6c0-.3-.1-.5-.4-.8l-1.2-1.3a6 6 0 0 1-1.5-2.2c-.3-.9-.2-1.6.3-2.4a2.8 2.8 0 0 1 1.2-1 3 3 0 0 1 1.7-.2c.6 0 1.3.3 2 .8 1 .7 1.8 1.4 2 2.3.3.9.2 1.7-.3 2.6l-1.9-1.1c.3-.5.3-1 .2-1.3-.2-.4-.5-.7-1-1-.5-.4-1-.5-1.5-.5a.8.8 0 0 0-.6.4c-.1.2-.2.4 0 .7 0 .4.5.9 1.2 1.7.8.7 1.3 1.4 1.6 1.8a3 3 0 0 1 0 3.3 3.2 3.2 0 0 1-3.3 1.4c-.6 0-1.4-.4-2.1-.9a4.7 4.7 0 0 1-2.2-2.4 4 4 0 0 1 .3-3zm-10.8-3l5.6-9 6.7 4-1 1.6-4.8-3-1.3 2 4.6 2.8-1 1.6-4.5-2.8-1.5 2.5 5 3-.9 1.6-6.9-4.2zm-15.8-12.9l.9-1.6 4 2.2-1.9 3.7c-.6.2-1.3.3-2.2.2-1-.1-1.8-.4-2.6-.8-1-.5-1.7-1.2-2.2-2-.6-.7-.8-1.6-.8-2.6s.3-2 .8-2.8c.5-1 1.1-1.8 2-2.3.7-.6 1.7-.9 2.7-.9.7 0 1.6.3 2.5.7a5 5 0 0 1 2.3 2.2c.4.8.5 1.7.3 2.7l-2.1-.6a2.2 2.2 0 0 0-.2-1.5c-.2-.5-.6-.8-1.2-1.1a3 3 0 0 0-2.4-.3c-.7.3-1.4 1-2 2-.5 1.2-.7 2.1-.5 3 .2.8.7 1.4 1.6 1.8.3.2.8.3 1.3.4h1.3l.6-1.2-2.2-1.2zm-68.8-17l1.6-10.6 3.2.5.8 7.4 3-6.9 3.1.5-1.5 10.6-2-.3 1.2-8.4-3.3 8-2-.2-.9-8.7-1.2 8.3-2-.2zm-10.7-1.3l1-10.6 7.8.7-.1 1.8-5.8-.5-.2 2.3 5.3.5-.1 1.8-5.4-.5-.2 3 5.9.5-.2 1.8-8-.8z" fill="#309e3a"/><g stroke-opacity=".5"><path d="M181.4 218.8c0-1 .2-2 .5-2.7l1-1.4 1.5-1c.6-.2 1.4-.3 2.3-.3a5 5 0 0 1 3.7 1.6c1 1 1.3 2.3 1.3 4 0 1.8-.6 3.1-1.5 4a5 5 0 0 1-3.8 1.4 5 5 0 0 1-3.7-1.5c-1-1-1.4-2.3-1.3-4z" fill="#309e3a"/><path d="M183.6 218.8c0 1.2.2 2.2.8 2.8.5.6 1.2 1 2 1 .9 0 1.6-.3 2.2-.9.5-.6.8-1.5.9-2.7 0-1.3-.2-2.2-.8-2.8-.5-.6-1.2-1-2-1-1 0-1.7.3-2.2.9-.6.6-.9 1.5-1 2.7z" fill="#f7ffff"/></g><g stroke-opacity=".5"><path d="M194 224.4l.1-10.7h4.5c1.2 0 2 .2 2.5.4.5.1 1 .5 1.2 1s.5 1 .5 1.7c0 .8-.3 1.4-.7 2-.5.5-1.2.8-2.2 1 .5.2.9.5 1.2.8l1.2 1.8 1.3 2H201l-1.5-2.3-1.2-1.6a1.6 1.6 0 0 0-.6-.4l-1-.2h-.5v4.5H194z" fill="#309e3a"/><path d="M196.2 218.2h3.6l.6-.5c.2-.2.2-.5.2-.8 0-.4-.1-.7-.3-.9-.2-.2-.5-.4-.8-.4h-3.2v2.6z" fill="#fff"/></g><g stroke-opacity=".5"><path d="M206.2 214.2l3.9.2c.9 0 1.5.2 2 .3.6.2 1.1.6 1.5 1 .5.6.8 1.2 1 1.9.2.7.2 1.5.2 2.5a7 7 0 0 1-.4 2.3c-.4.7-.8 1.3-1.3 1.8-.4.3-.9.6-1.5.8h-2l-4-.1.6-10.7z" fill="#309e3a"/><path d="M208.2 216.1l-.3 7 1.6.2h1.3l.8-.5c.3-.2.5-.5.7-1l.3-2-.1-1.8c-.2-.5-.3-.8-.6-1a2 2 0 0 0-1-.6c-.3-.1-.8-.2-1.7-.2h-1z" fill="#fff"/></g><g stroke-opacity=".5"><path d="M258.5 233.3l2.5-10.4 3.3.8c1.3.3 2.1.6 2.5.8.5.3 1 .7 1.2 1.3.3.7.3 1.4.1 2.2-.1.6-.4 1.2-.7 1.5a3 3 0 0 1-1.1.8 3 3 0 0 1-1.2.3c-.6 0-1.3-.2-2.2-.4l-1.4-.3-1 3.9-2-.5z" fill="#309e3a"/><path d="M262.6 225.2l-.7 3 1.2.2c.8.2 1.4.3 1.7.2a1.4 1.4 0 0 0 1.2-1l-.1-1.1c-.2-.3-.4-.5-.8-.7l-1.5-.4-1-.2z" fill="#fff"/></g><g stroke-opacity=".5"><path d="M268.4 236.3l3.5-10.1 4.3 1.5c1 .4 1.8.7 2.2 1 .4.4.7.9.9 1.5s0 1.1-.2 1.7c-.2.8-.7 1.3-1.3 1.6-.6.4-1.4.5-2.3.3l.8 1.2.6 2 .5 2.4-2.4-.8-.7-2.7c-.3-1-.4-1.6-.6-1.9a1.6 1.6 0 0 0-.4-.6l-1-.5-.4-.1-1.5 4.2-2-.7z" fill="#309e3a"/><path d="M272.4 231.2l1.5.5 1.9.5c.3 0 .5 0 .7-.2l.5-.7v-1l-.6-.6-1.5-.5-1.6-.6-.9 2.6z" fill="#fff"/></g><g stroke-opacity=".5"><path d="M280.9 235.9c.3-1 .7-1.9 1.3-2.5a5 5 0 0 1 1.3-1.1 4.2 4.2 0 0 1 1.6-.5c.8 0 1.5 0 2.4.3a5 5 0 0 1 3.1 2.5c.6 1.2.7 2.6.2 4.3a5.6 5.6 0 0 1-2.6 3.5 5 5 0 0 1-4 .2 5 5 0 0 1-3.2-2.5 5.5 5.5 0 0 1-.1-4.2z" fill="#309e3a"/><path d="M283 236.5c-.3 1.1-.3 2 0 2.8.4.8 1 1.3 1.8 1.6.8.2 1.5.1 2.2-.3.8-.4 1.3-1.2 1.7-2.4.3-1.2.3-2.1 0-2.9-.3-.7-1-1.2-1.8-1.5-.8-.2-1.6-.1-2.3.3-.7.4-1.2 1.2-1.6 2.4z" fill="#fff"/></g><g stroke-opacity=".5"><path d="M301.7 250.8l4.9-9.5 4 2c1 .6 1.7 1 2 1.4.4.5.7 1 .7 1.5s0 1.2-.4 1.7c-.3.7-.8 1.2-1.5 1.5-.6.2-1.4.2-2.3-.1.3.4.5.9.6 1.3l.3 2.1.2 2.5-2.3-1.2-.3-2.8-.3-2a1.6 1.6 0 0 0-.4-.6c-.1-.2-.4-.4-.9-.6l-.4-.2-2 4-2-1z" fill="#309e3a"/><path d="M306.4 246.3l1.4.7 1.8.8c.3 0 .5 0 .7-.2.3 0 .5-.3.6-.6.2-.3.2-.6.1-.9 0-.3-.2-.5-.5-.7a19 19 0 0 0-1.4-.8l-1.4-.7-1.3 2.4z" fill="#fff"/></g><g stroke-opacity=".5"><path d="M341.2 270.3c.6-1 1.2-1.6 2-2a5 5 0 0 1 1.6-.7 4.2 4.2 0 0 1 1.6 0c.7.1 1.5.4 2.2 1 1.3.8 2 2 2.3 3.3.2 1.3-.2 2.7-1.1 4.1a5.6 5.6 0 0 1-3.5 2.6 5 5 0 0 1-3.9-.9 5 5 0 0 1-2.3-3.3c-.2-1.4.1-2.7 1-4.1z" fill="#309e3a"/><path d="M343 271.4c-.6 1-.9 2-.8 2.8.1.8.6 1.5 1.3 2 .7.4 1.4.6 2.2.4.8-.2 1.6-.8 2.3-1.9.7-1 1-1.9.8-2.7 0-.8-.5-1.4-1.2-2s-1.5-.6-2.3-.4c-.8.2-1.5.8-2.2 1.8z" fill="#fff"/></g><path d="M246.4 229l1.7-7.6 5.6 1.3-.3 1.3-4-1-.4 1.7 3.7.9-.3 1.3-3.7-1-.5 2.1 4.2 1-.3 1.3-5.7-1.3z" fill="#309e3a"/></g></svg>