<svg xmlns="http://www.w3.org/2000/svg" xmlns:xlink="http://www.w3.org/1999/xlink" height="512" width="512" viewBox="0 0 512 512"><defs><path stroke-miterlimit="10" d="M-28.6 47.5l1.8 1 46.7-81c2.7-.6 4.2-3.2 5.7-5.8 1-1.8 5-8.7 6.7-17.7-6.9 6-10.9 13-11.9 14.7-1.5 2.6-3 5.2-2.3 7.9z" id="a"/></defs><path d="M0 0h512v512H0z" fill="#fff"/><path d="M0 0h512v153.6H0z"/><path d="M0 358.4h512V512H0z" fill="#060"/><g id="b" transform="matrix(3.2 0 0 3.2 255.9 256)"><use height="100%" width="100%" xlink:href="#a" stroke="#000"/><use height="100%" width="100%" xlink:href="#a" fill="#fff"/></g><use height="100%" width="100%" xlink:href="#b" transform="matrix(-1 0 0 1 511.7 0)"/><path d="M255.9 102.4c-19.2 0-51.2 51.2-60.8 76.8H0v153.6h195c9.7 25.6 41.7 76.8 60.9 76.8 19.2 0 51.2-51.2 60.8-76.8H512V179.2H316.7c-9.6-25.6-41.6-76.8-60.8-76.8z" fill="#b00"/><path id="c" d="M316.7 332.8a220 220 0 0 0 16-76.8 220 220 0 0 0-16-76.8 220 220 0 0 0-16 76.8 220 220 0 0 0 16 76.8"/><use height="100%" width="100%" xlink:href="#c" transform="matrix(-1 0 0 1 511.7 0)"/><g transform="matrix(3.2 0 0 3.2 255.9 256)" fill="#fff"><ellipse rx="4" ry="6"/><path id="d" d="M1 5.8s4 8 4 21-4 21-4 21z"/><use height="100%" width="100%" xlink:href="#d" transform="scale(-1)"/><use height="100%" width="100%" xlink:href="#d" transform="scale(-1 1)"/><use height="100%" width="100%" xlink:href="#d" transform="scale(1 -1)"/></g></svg>