<svg xmlns="http://www.w3.org/2000/svg" xmlns:xlink="http://www.w3.org/1999/xlink" height="512" width="512" viewBox="0 0 512 512"><path fill="#00785e" d="M0 0h512v512H0z"/><path fill="#fbd116" d="M272.5 147.4L256 96.5l-16.5 51 43.3-31.5h-53.6z"/><g id="a"><path d="M256 353.7H146.7a156 156 0 0 1-4-4.2H256a2.3 2.3 0 0 1 1.5 2c0 1-.5 1.9-1.5 2.2zm0-33.4c.6-1.3 1.9-4.3 1.3-8a13.2 13.2 0 0 0-1.3-4.1 87.4 87.4 0 0 1-34.7 20.2 86.4 86.4 0 0 1-25 3.7h-67.4a154 154 0 0 0 6.3 8.6h65c21.3 0 40.7-7.7 55.8-20.4zM139.1 294a34.4 34.4 0 0 1-10.3 2.2A86.3 86.3 0 0 0 256 299a470.3 470.3 0 0 0 4.8-62.9 470.3 470.3 0 0 0-4.8-72.2c-7 6.3-20.2 20-26.4 40.9a86.4 86.4 0 0 0-3.6 24.6 86 86 0 0 0 14.6 48.1 86.1 86.1 0 0 1-9.8-89.9 34.7 34.7 0 0 1-8-13.8 86 86 0 0 0 5.7 94 101.4 101.4 0 0 0-78.2-31.5 34.8 34.8 0 0 1 7.2 9.5c28.8 0 54.8 12.1 73.3 31.4a101.3 101.3 0 0 0-104.3-15.8 86.6 86.6 0 0 0 88 55.6 87 87 0 0 1-15.3 1.4 86.2 86.2 0 0 1-60.1-24.3zM256 388.7h-56.6a153 153 0 0 0 56.6 10.8 11.6 11.6 0 0 0 1.3-5.3 11.7 11.7 0 0 0-1.3-5.5zm0-26.2h-99.9a154 154 0 0 0 8.4 6.7H256c.2-.2 1.4-1.4 1.4-3.3 0-2-1.2-3.1-1.4-3.4zm0 13.4h-81.8a153.2 153.2 0 0 0 15.4 8.5H256a8 8 0 0 0 1.2-4.5 8 8 0 0 0-1.2-4z" fill="#fff"/><path fill="#fbd116" d="M155.6 211.7l-7-36.4-15.7 33.6 32.4-18-36.8-4.5zm49.3-58.8l-29.6-22.3 10.8 35.5 12.1-35-30.3 21.2z"/></g><use height="100%" width="100%" xlink:href="#a" transform="matrix(-1 0 0 1 512 0)"/></svg>