<svg xmlns="http://www.w3.org/2000/svg" xmlns:xlink="http://www.w3.org/1999/xlink" height="512" width="512" viewBox="0 0 512 512"><defs><g id="b"><g id="a"><path transform="translate(0 -.3)" d="M0 0v.5L1 0z"/><path d="M0 0v-.5L1 0z" transform="rotate(-36 .5 -.2)"/></g><use xlink:href="#a" transform="scale(-1 1)"/><use xlink:href="#a" transform="rotate(72 0 0)"/><use xlink:href="#a" transform="rotate(-72 0 0)"/><use xlink:href="#a" transform="scale(-1 1) rotate(72)"/></g><clipPath id="c"><path d="M0 0h600v300H0z"/></clipPath><clipPath id="d"><path d="M0 0l300 150H0zm300 0h300L300 150zm0 150h300v150zm0 0v150H0z"/></clipPath></defs><path fill-rule="evenodd" fill="#00247d" d="M0 0h512v512H0z"/><g transform="translate(-148.7 134.5) scale(.60566)"><use fill="#fff" height="100%" width="100%" xlink:href="#b" transform="matrix(45.4 0 0 45.4 900 120)"/><use fill="#cc142b" height="100%" width="100%" xlink:href="#b" transform="matrix(30 0 0 30 900 120)"/></g><g transform="rotate(82 393.4 127) scale(.60566)"><use fill="#fff" height="100%" width="100%" xlink:href="#b" transform="rotate(-82 519 -457.7) scale(40.4)"/><use fill="#cc142b" height="100%" width="100%" xlink:href="#b" transform="rotate(-82 519 -457.7) scale(25)"/></g><g transform="rotate(82 393.4 127) scale(.60566)"><use fill="#fff" height="100%" width="100%" xlink:href="#b" transform="rotate(-82 668.6 -327.7) scale(45.4)"/><use fill="#cc142b" height="100%" width="100%" xlink:href="#b" transform="rotate(-82 668.6 -327.7) scale(30)"/></g><g transform="translate(-148.7 134.5) scale(.60566)"><use fill="#fff" height="100%" width="100%" xlink:href="#b" transform="matrix(50.4 0 0 50.4 900 480)"/><use fill="#cc142b" height="100%" width="100%" xlink:href="#b" transform="matrix(35 0 0 35 900 480)"/></g><path transform="matrix(.52004 0 0 .78924 0 0)" d="M0 0l600 300M0 300L600 0" clip-path="url(#c)" stroke="#fff" stroke-width="60"/><path transform="matrix(.52004 0 0 .78924 0 0)" d="M0 0l600 300M0 300L600 0" clip-path="url(#d)" stroke="#cc142b" stroke-width="40"/><path style="line-height:normal;text-indent:0;text-align:start;text-decoration-line:none;text-decoration-style:solid;text-decoration-color:#000;text-transform:none;block-progression:tb;isolation:auto;mix-blend-mode:normal" clip-path="url(#c)" d="M125.7 0v88H-.1v60.7h125.8v88h60.7v-88H312V88H186.4V0h-60.7z" color="#000" font-weight="400" font-family="sans-serif" white-space="normal" overflow="visible" fill="#fff"/><path style="line-height:normal;text-indent:0;text-align:start;text-decoration-line:none;text-decoration-style:solid;text-decoration-color:#000;text-transform:none;block-progression:tb;isolation:auto;mix-blend-mode:normal" d="M137.8 0v100.2H0v36.4h138v100.2h36.3V136.6h137.9v-36.4H174.2V0h-36.4z" color="#000" font-weight="400" font-family="sans-serif" white-space="normal" overflow="visible" fill="#cc142b"/></svg>