<svg xmlns="http://www.w3.org/2000/svg" xmlns:xlink="http://www.w3.org/1999/xlink" height="512" width="512" viewBox="0 0 512 512"><path d="M0 0h512v256H0z" fill="#0038a8"/><path d="M0 256h512v256H0z" fill="#ce1126"/><path d="M443.4 256L0 512V0" fill="#fff"/><g transform="translate(159.3 256) scale(5.68889)" fill="#fcd116"><circle r="9"/><g id="d"><g id="c"><g id="b"><path d="M-1 0h1-1z" transform="scale(19)"/><path id="a" d="M-.9.1L0 0z" transform="scale(19.2381)"/><use height="100%" width="100%" xlink:href="#a" transform="scale(1 -1)"/></g><use height="100%" width="100%" xlink:href="#b" transform="rotate(45)"/></g><use height="100%" width="100%" xlink:href="#c" transform="rotate(90)"/></g><use height="100%" width="100%" xlink:href="#d" transform="scale(-1)"/><g transform="translate(-2)"><g id="f" transform="translate(38)"><path id="e" d="M5 0L1.6 1.2v3.6L-.7 1.9l-3.4 1L-2 0z"/><use height="100%" width="100%" xlink:href="#e" transform="scale(1 -1)"/></g><use height="100%" width="100%" xlink:href="#f" transform="rotate(120)"/><use height="100%" width="100%" xlink:href="#f" transform="rotate(-120)"/></g></g></svg>