<svg xmlns="http://www.w3.org/2000/svg" height="512" width="512" viewBox="0 0 512 512"><defs><clipPath id="a"><path fill-opacity=".7" d="M0 0h512v512H0z"/></clipPath></defs><g clip-path="url(#a)"><path fill-rule="evenodd" fill="#fff" d="M0-2.2h257.8v128H0z"/><path d="M0-2.2v9.6L61.5 39l23.2.7L0-2.3z" fill="#c00"/><path d="M26.3-2.2l74.6 39v-39H26.3z" fill="#006"/><path fill="#c00" d="M110.9-2.2v49.7H0v28.4H111v49.8h34V75.9h111V47.5h-111V-2.2h-34z"/><path d="M155-2.2v36.7L227.8-2l-73-.3z" fill="#006"/><path d="M157.2 38.5l20.6-.2 79.7-40.2-21.2.3-79 40z" fill="#c00"/><path d="M0 84.2v27.2l51.2-27L0 84.3z" fill="#006"/><path d="M197 85.3l-21.3-.1 80.4 40-.5-9.2L197 85.3zM20 126l75.4-39.6-19.8.1L0 125.8" fill="#c00"/><path d="M257 9l-61 30.2 60.1.2v45H205l50.7 27.5.8 14-27-.3-74.2-36.4v36.7h-54V89.2l-69.5 36.6H.3v128H512V-2l-254.5-.2M.3 12.2L0 38.8l53.9.6L.3 12.2z" fill="#006"/><g fill-rule="evenodd" stroke-width="1pt" fill="#009fca"><path d="M256-2.2h256v256H256z"/><path d="M0 125.8h270.1v128H0z"/></g><g fill-rule="evenodd" transform="translate(0 258.9) scale(.51604)" stroke-width="1pt" fill="#009fca"><path d="M506-19.8H992V496H506z"/><rect ry="0" height="521.4" width="523.5" y="-25.3"/></g><path d="M478 226.3l7.1 20.4-18.4-12.6-18.5 12.6 7.1-20.4-18.4-12.6h22.8l7-20.4 7 20.4h22.8zm-57.2 162.8l7 20.4-18.4-12.7-18.4 12.7 7-20.4-18.4-12.7h22.8l7-20.3 7 20.4h22.9zm57.3-36.9l7 20.4-18.4-12.6-18.5 12.6 7.1-20.4-18.4-12.6h22.8l7-20.4 7 20.4h22.8zm-246.2 118l7.1 20.5-18.4-12.7-18.5 12.7 7.1-20.4-18.5-12.7h22.9l7-20.3 7 20.4h22.8zm43.1-88.4l-7-20.4 18.4 12.6 18.4-12.6-7 20.4 18.4 12.6h-22.8l-7 20.4-7-20.4h-22.8zm67.3-93l-7.1-20.4 18.4 12.6 18.5-12.6-7 20.4 18.4 12.6h-22.8l-7 20.4-7-20.4h-22.9zm56.5-19.3l-7-20.4 18.4 12.6 18.4-12.6-7 20.4 18.4 12.6h-22.8l-7 20.4-7-20.4h-22.9zm-56.5 161l-7.1-20.4 18.4 12.6 18.5-12.6-7 20.4 18.4 12.6h-22.8l-7 20.4-7-20.4h-22.9zM275 446.9l-7-20.4 18.4 12.6 18.4-12.6-7 20.4 18.4 12.6h-22.8l-7 20.4-7-20.4h-22.8z" fill-rule="evenodd" stroke-width="1pt" fill="#fff40d"/></g></svg>