<svg xmlns="http://www.w3.org/2000/svg" xmlns:xlink="http://www.w3.org/1999/xlink" height="512" width="512" viewBox="0 0 512 512"><path fill="#4b92db" fill-rule="evenodd" d="M0 0h512v512H0z"/><g transform="translate(-128.7) scale(.64)"><path d="M663.9 587c-2.7 3.1-6.2 6-9.5 8.6-21.2-22-46.2-46.2-69.9-46.2-14.7 0-25.2 11.2-37.6 19-17.1 11-40.6 17.2-60.7 9.1a66.2 66.2 0 0 1-29.2-20 63.5 63.5 0 0 0 57.5 5c19.7-8.2 39.9-19.1 62.4-19.1 33.2 0 64.8 22.5 87 43.6zm-245.6-69c22 25 57.9 17 87.2 23.3 4.1.8 8 2.2 12.4 1.5-3.5-2.2-8.2-2.5-12.2-4-22.8-8.6-26.3-33-38.8-49.7 16 10.6 29.1 25 44 38.7a73.8 73.8 0 0 0 36.7 16.2c-3.2 1.2-7.4 1-11 1.8-24 6-50.6 15.4-76.2 7a75.3 75.3 0 0 1-42-34.8zm-35.2-58c13.7 31.1 48.1 33.6 71 52.6 4.4 3.6 8.7 7 13.5 9.2l.3-.2a100 100 0 0 1-15.1-16.5c-13.1-19-8.8-45-18.9-65.2a142 142 0 0 1 23.1 34.9c8.5 20.2 11.4 43.3 30.5 58.7-20.7-6.8-44.5-5.5-63-17.6-19.6-12.8-37.7-33-41.4-55.8zm-14.7-62.8c2 27.4 31 42 45 64.5 3 4.8 6 9.8 10.3 13.7-.7-3-3-5.5-4.4-8.4a62.8 62.8 0 0 1-5.4-32.3c1.4-14 7.2-27 5-41.7 12 25.9 8.1 58.2 15 86.1 1.6 6.2 5.3 11.6 7.6 17.5-11.7-9-27.1-17-40-27a85.6 85.6 0 0 1-29-36.5 85 85 0 0 1-4.1-35.9zm.8-50.4c1.4-6.1 2.5-12.4 5.1-18-5 25.8 12.2 44.4 18 66.8 2.2 8.4 3 17.3 6.4 25.2.3.2.6-.2.8-.4-8.5-23.8 4-45.8 16-64.5 3.2-5 4.7-10.7 6.2-16.5 1.3 10.8-1 23.2-3 34.4-2.5 14.2-7.4 27.6-11.3 41.4a65.1 65.1 0 0 0-.6 27.4l-1.2-1c-9-16.6-26.8-29.6-32.1-47.8a102.7 102.7 0 0 1-4.3-47zm9.5-27.8a79 79 0 0 1 19-50c.3-.2.6-.5 1-.4-12.6 19-1.1 43.2-2.8 64.9l-1.6 22.2c.2.2.2.9.8.6.8-2.5 1-5.1 1.4-7.7 3-18 18.8-30.4 32.1-43a28.5 28.5 0 0 0 7-10.4 83 83 0 0 1-7.6 26.2c-10.3 20.8-30.1 37.6-33.7 61.3-1.7-22.7-15.6-39.5-15.6-63.7zm33-65.9c6.4-7 13.5-12.4 22-14.6-16.5 11.3-15.6 31.4-20.6 48.2-1.8 6.1-4.5 11.9-6 18.3l.5.3a54 54 0 0 1 13.5-19.8c11.5-11 28.8-17.5 34.5-33.4-.3 22.1-19.1 38.9-36.3 51.9a62.6 62.6 0 0 0-18.3 21.8c.7-6 1-11.2.5-17.1-1.8-19.3-3-41 10.3-55.6zm66.5-37.1c-12.1 10.7-20.2 24.4-29.6 36.7-7.7 10.3-18.4 16.6-27.5 25.2 5-10.2 5.8-22 12.1-31.9 10.7-17 28.5-23.5 45-30z" fill="#fff" id="a"/><use height="100%" width="100%" xlink:href="#a" transform="matrix(-1 0 0 1 1202.2 0)"/></g><path d="M351 279.5l-2.3-1.3a103.4 103.4 0 0 1-19 27.1l-13.5-13.4A83.9 83.9 0 0 0 332 269l-2.3-1.2a81.6 81.6 0 0 1-15.3 22.2l-12.2-12.2a64 64 0 0 0 12.4-18.3l-2.3-1.2a61.8 61.8 0 0 1-11.9 17.7L287 262.7a42.4 42.4 0 0 0 8.6-13.5l-2.3-1.2a40.1 40.1 0 0 1-8.1 12.9L273 248.7a22.6 22.6 0 0 0 5.8-14H296a39.8 39.8 0 0 1-2.7 13.3l2.3 1.2a42.5 42.5 0 0 0 3-14.5h19a61.2 61.2 0 0 1-5.3 23.7l2.3 1.2a64 64 0 0 0 5.5-24.9h17.2a80.8 80.8 0 0 1-7.6 33.2l2.3 1.2c5-10.6 7.7-22.3 7.9-34.4h19c-.2 15.6-3.9 30.3-10.2 43.5l2.2 1.3a105 105 0 0 0 3-85.6l-2.4 1c4.7 11.7 7.2 24.3 7.4 37.3h-19a83.7 83.7 0 0 0-6-29.8l-2.3 1a81.1 81.1 0 0 1 5.7 28.8h-17.2a64 64 0 0 0-4.3-22l-2.3 1a61.5 61.5 0 0 1 4 21h-19a42.5 42.5 0 0 0-2.5-13.4l-2.4 1a40 40 0 0 1 2.4 12.4h-17.2a22.6 22.6 0 0 0-5.8-14l12.2-12.1a39.8 39.8 0 0 1 8.4 13.7l2.4-1a42.4 42.4 0 0 0-9-14.5l13.4-13.5a61.3 61.3 0 0 1 13 20.5l2.4-1a63.9 63.9 0 0 0-13.6-21.3l12.2-12.2a81 81 0 0 1 17.2 26.6l2.4-1c-4-10-10-19.3-17.8-27.3l13.5-13.5c9.5 9.7 16.8 21 21.8 33.3l2.3-1a105.2 105.2 0 0 0-58.4-58.3l-1 2.4c12.4 5 23.7 12.3 33.5 21.8l-13.5 13.5a83.8 83.8 0 0 0-26.9-17.6l-1 2.4a81.1 81.1 0 0 1 26.1 17l-12.2 12.2a64 64 0 0 0-20.1-13.2l-1 2.4a61.4 61.4 0 0 1 19.3 12.5l-13.4 13.5a42.5 42.5 0 0 0-12.8-8.3l-1 2.3a40 40 0 0 1 12 7.8l-12.2 12.2a22.6 22.6 0 0 0-14-5.8v-17.2a39.9 39.9 0 0 1 14.3 3l1-2.3a42.5 42.5 0 0 0-15.2-3.3v-19a61.4 61.4 0 0 1 22 4.6l1-2.4a64 64 0 0 0-23-4.7V152c10.2.2 20 2.2 29.3 6l1-2.4c-9.6-3.9-19.8-6-30.3-6.1v-19c13 .1 25.5 2.7 37.2 7.4l1-2.4c-12.5-5-25.8-7.6-39.5-7.6a104.8 104.8 0 0 0-47.2 11.2l1.2 2.2c13.7-6.9 29-10.6 44.7-10.8v19a83.3 83.3 0 0 0-35.9 8.7l1.2 2.2a81 81 0 0 1 34.7-8.4v17.3a63.7 63.7 0 0 0-26.7 6.4l1.1 2.2a61.3 61.3 0 0 1 25.6-6.1v19a42.3 42.3 0 0 0-16.7 4l1.1 2.2a39.8 39.8 0 0 1 15.6-3.6v17.2c-2.6.2-5.2.8-7.5 1.8l1.1 2.2a20.2 20.2 0 0 1 7.7-1.5 20.2 20.2 0 0 1 14.4 6 20.2 20.2 0 0 1 5.9 14.3 20.3 20.3 0 0 1-34.6 14.3 20.2 20.2 0 0 1-6-14.3c0-5.4 2.1-10.5 6-14.4a20.3 20.3 0 0 1 6.6-4.4l-1.1-2.2a22.8 22.8 0 0 0-6.4 4l-12.2-12.2a40 40 0 0 1 10.5-7.2L238 195a42.7 42.7 0 0 0-11.2 7.6L213.4 189a61.6 61.6 0 0 1 15.7-11l-1.1-2.2a64.4 64.4 0 0 0-16.4 11.5L199.4 175a81.3 81.3 0 0 1 20.6-14.6l-1.2-2.2a84.3 84.3 0 0 0-21.2 15l-13.5-13.5a103 103 0 0 1 25.9-18.4l-1.2-2.2a106.2 106.2 0 0 0-47.4 47.8l2.2 1.1a103 103 0 0 1 18.7-26.5l13.5 13.5a84.2 84.2 0 0 0-15.4 22.1l2.2 1.2a81.4 81.4 0 0 1 15-21.5l12.2 12.2a64.4 64.4 0 0 0-12 17.5l2.2 1.2a61.5 61.5 0 0 1 11.6-17l13.4 13.5a42.7 42.7 0 0 0-8.2 12.6l2.2 1.2a39.9 39.9 0 0 1 7.8-12l12.2 12.2a22.7 22.7 0 0 0-5.8 14H216a40 40 0 0 1 3-14.2l-2.2-1.2a42.3 42.3 0 0 0-3.4 15.3h-19a61.3 61.3 0 0 1 5.6-24.4l-2.2-1.2a63.7 63.7 0 0 0-6 25.6h-17.1a81 81 0 0 1 7.9-33.8l-2.2-1.2a83.3 83.3 0 0 0-8.3 35h-19c.2-15.5 3.8-30.5 10.5-44l-2.2-1.2a104.8 104.8 0 0 0-10.9 46.5 105.8 105.8 0 0 0 4.3 29.7l2.5-.6a103.2 103.2 0 0 1-4.2-27.8h19a84 84 0 0 0 3.6 23.1l2.5-.6a81.5 81.5 0 0 1-3.5-22.5h17.2a64.3 64.3 0 0 0 3 18.3l2.5-.6a61.7 61.7 0 0 1-3-17.7h19a42.6 42.6 0 0 0 2.5 13l2.5-.6a40 40 0 0 1-2.4-12.4h17.2a22.6 22.6 0 0 0 5.8 13.9l-12.2 12.2a39.9 39.9 0 0 1-8.4-13.7l-2.5.6a42.4 42.4 0 0 0 9.1 14.9L211.6 276a61.3 61.3 0 0 1-14.2-23.6l-2.5.6c3 9.2 8 17.7 14.9 24.8l-12.2 12.2a80.9 80.9 0 0 1-19.4-32.8l-2.5.6a83.4 83.4 0 0 0 20 34l-13.4 13.5a102.3 102.3 0 0 1-25-42.8l-2.5.6a104.9 104.9 0 0 0 55.7 65.5l1.3-2.2c-10.1-4.8-19.4-11.3-27.7-19.4l13.5-13.4a84 84 0 0 0 23.6 16.1l1.2-2.2a81.3 81.3 0 0 1-23-15.7l12.2-12.2a64 64 0 0 0 19.3 12.8l1.3-2.2a61.4 61.4 0 0 1-18.8-12.4l13.4-13.4a42.4 42.4 0 0 0 14.8 9l1.3-2.2a39.9 39.9 0 0 1-14.3-8.6l12.2-12.2a22.6 22.6 0 0 0 14 5.8v17.2a40 40 0 0 1-12-2.2l-1.2 2.3a42.5 42.5 0 0 0 13.1 2.5v19a61.4 61.4 0 0 1-22.5-4.8l-1.3 2.2a64 64 0 0 0 23.8 5.1v17.2a81 81 0 0 1-32.3-7.2l-1.2 2.2a83.6 83.6 0 0 0 33.5 7.6v19c-15-.2-29.6-3.6-43-10l-1.2 2.3a105.1 105.1 0 0 0 93-1l-1.2-2.4a102.2 102.2 0 0 1-45 11v-19a83.4 83.4 0 0 0 36.3-8.8l-1.1-2.3a80.8 80.8 0 0 1-35.2 8.6v-17.2c9.6-.2 18.9-2.5 27.3-6.7l-1.2-2.3a61.2 61.2 0 0 1-26.1 6.5v-19a42.3 42.3 0 0 0 17.4-4.3l-1.2-2.3a39.8 39.8 0 0 1-16.2 4v-17.2a22.6 22.6 0 0 0 14-5.8l12.1 12.2a40.2 40.2 0 0 1-9.9 6.8l1.2 2.3a42.6 42.6 0 0 0 10.5-7.3l13.4 13.4a61.7 61.7 0 0 1-15.2 10.7l1.2 2.3a64.2 64.2 0 0 0 15.9-11.2l12.1 12.2a81.6 81.6 0 0 1-20.1 14.3l1.1 2.3a83.9 83.9 0 0 0 20.8-14.8l13.4 13.4a103.3 103.3 0 0 1-25.5 18.2l1.2 2.4a105.7 105.7 0 0 0 27-19.6 105.6 105.6 0 0 0 20.5-28.6z" fill="#fff"/><path fill="#fff" d="M261.4 209v.8h.7v-.7zm-1-1h1v.7h-1zm-.7 0v-.7l-.7-.1v.6zm-1.4-.4l-.7-.1v-.6h.8zm-6.1-.9h.8v.7h-.8zm-1.1 1.4v-.6l-.7-.1v.6zm-.7 1l-.9-.3.2-.6.9.2zm-1.5.7l-.1-.6.6-.1.1.6zM165 275h-.5v1h.9v1.5h.6l-.1-1.7-.9-.3zm8.4 9.4l-.4.7-1.2-1-.8-1.2-.4-1-.8-2 1.6.8.6 1.5.7.6zM195 313l-.8-1.3 1.3.2 1.3 1.2.6 1.4-.8.4-.4-.6-1-.3zm57.8-97h-1.2l-.2-2.4.7-.5V212h-3.8V211l.5-.4-.9-.3-.6.9-.2 1-1.1.2v.5h-.7v1.4l-3 2.5-6-.2c-.4 1-1.5-.1-1.5-.1-.2-.7-1.7 0-1.7 0 0 1.1-2-.6-2-.6l-3.7-2.7c-2.1-2-5.3.6-5.4 1.1 0 1.5-2.5.3-2.5.3s-2.1-.6-2.4.2c-.4.9-1.7.7-1.7.7l-.3.4-1 .2-.2.7-1.3.2 3.2-.1c.8-.1-.3 1.8-.9 1.7l-1.5.1-.5.6h-1.4l-.6.8h-2s-1.2.9-1.1 1.2c.1.3-.2 1.3-.5 1.3-.4 0-1 1-.8 1.3.2.3-.6 1.4-.6 1.4l-.2 1-.7.3v3l-1.2.8v1.3l-2 2 .3 1.8-1.6 1.7.2 1.7-1 .3-.2.8-.4 2.3h1c.6-.1.5 1.5 0 1.7-.4.2-1.6.6-1 1 .7.5-1.6.4-1.6-.3 0-.6-1.3-1.1-1.6-1-.3.3-.9-.9-.9-.9-1.1-1.2-4.8.1-4.8.1l-.5 1.7c-1.2.3-1.9 2.2-1.9 2.2-1 .3-1.7 1.5-1.4 1.8.3.4-.5.5-.5.5v2.3l-.5.8v2.6c.7 0 .6 1.2.6 1.2-1 0-.9 1.5-.9 1.5l-2.2.7-.4.7-2.8-.1-.7.7-.8-.7h-5.3l-.2-.6-1-.2-.2-1.2-1.6.1-.3.7-1.7.1c.1 1-1.7 2.7-2 2.3-.1-.5-1.3-1.7-.8-1.9l2-.4v-.8h-4l-.4.6H161v1.8l-.8.2c-.5.4.2 1.5.2 1.5.7.8-.2 2-.2 2-.6.6.6 1.8.6 1.8.8.2-.6.9-.6.9.3 1 .9 1.4.9 1.4-.6 1 .4 1.6.4 1.6l.1 1.8.8.5v1.2l.4.7h1.7l-.1-2.7c-1.5-1.7 1.3-2.1 1.4-1.5 0 .7 1.3 1 1.3 1 .2 1.6 2 2.6 2.5 1 .5-1.7 1-.7 1.3 0 .3.8 2.3 2.7 2.3 2.7h1.6l.2 1.5c1.8-.1 2.4 0 3.1 2.6a4.7 4.7 0 0 0 2.8 3h1.5c0-1.3 1.5.2 1.5.8 0 .7 2.8 3.2 2.8 3.2l3 .6 2.6 2.2 2-.2h.8c.6-1.9 3.1 0 3.3.7.3.7 2 1.8 2.2 1.2.2-.5 1.4-.2 1.6 1.4.2 1.6 1 1.3 1 1.3l6-.1 2.1-1.8 5.4-.1c2.8-.1 1.1-4 .6-4-1-.7.3-3.8.3-3.8l-7.8-7.2c-1.8 0-.2-2.6-.2-2.6 1.4-1-.3-2.3-.3-2.3.2-1.3-.7-2.8-.7-2.8-2-1.3-1.4-3.8-1.4-3.8v-1.7c-1.6-1.5.6-1.8.6-1.8.8-1.2-.5-2.2-.5-2.2l-.1-1.4-1.7-.2-.2-5.1-3.9-5.5c-.7-.2-.2-1.5-.2-1.5 1-.6-.2-1.9-.2-1.9l-.1-2.3 2.2-.3.6-.8h1v-2.8c.4-1.4 1.7-.7 1.7-.7l1.5.1.9-1.6.2-1.3h-1.2c-1.3-.8-.6-3.7-.6-3.7 2-3 4.3-1.3 4.3-1.3h1.5c2.3 1.5.2 4.3.2 4.3-.4.6-.2 2.7-.2 2.7l.5 3.4-1.3 1.2c-1.2.7-1.2 2.2 0 2.5 1 0 .6 2.1-.7.7-1.9 0 1 1.8.2 1.3 2 1 1.5-.8 1.5-.8l2.6-2c1-.8 2.6 1.5 2.6 1.9 0 .3 4.3 0 4.3 0 1.2.8 1.6 2.8 1.6 2.8 1.2-1.5 3.6-.1 1.8.7 1.7 1.1 1.7 2 1.7 2 1.4-.4 1.4.7 1.4 1l.4-1.6c-1.6-1.2 2.1-1.6 1 .6l-.6 1 1.1.8.1 2.5c2.3-.2 1.7-3.1 1.7-3.1l1-.3c0-1 .8-.4.8-.4-.7-3.7 1.7-4.3 1.7-4.3 1.4-.3 1.5-3.2 1.5-3.2-1-.5-.4-2 .6-.7 1.1 1.3-.6-2.6-.6-2.6l-.8-.7-1.2-.2-.1-1.1h-2l-.3 1.5-.7.2-.2-.4-.3 1.1h-2v-1.3l1.1-.3.4-.6.4-1.8h1.4l1.8-.5c0-1.8 1-1.4 1-1.4l.7.5 1 .8v.6l-.6.4-.1.8.3 1.2h.8c.4-1.7 2.6-1.7 3.2-.6l.7-1.5c-1.5-.8 0-2 .4-1.4.4.5 1.4-1.4 1.4-1.4s.7 1 0-.4c-.8-1.3.5-2 .5-2-.2-1.2 1.4-1 1.4-1l.1-1.7-1.5-.1c-.3 1.5-1.6.2-1-.1s1.3-1 1.3-1v-1l.7-.3v-1h1.7l1.4-.7.3-.6h1.5l2.1-2-.2-.9c-1.3 0 0-1 0-1l.2-1.6z"/><path d="M209.8 237.4l-1.9-.2.1.7h.6c.8 1.6 0 5.2 0 5.2s-1.2.1-1.4-.5c-.2-.7-.8 1.4-.3 1.7.4.3 1.9 0 2 1.2 0 1.2 1-.7 1-.7v-7.4z" fill="#fff"/><path fill="#fff" d="M210.3 249.5l.2-1-.8-.3.1-1.6.7-.1v-.8l-1.5 1.1-1-.6v2.5l1.6 2.3zm.4 2.8l-.8.1v.9h.8zm-1 5.5l-.9.1v.8l1-.1zm1.3-2.6c.2 0 .4-.2.4-.4 0-.3-.2-.5-.4-.5s-.5.2-.5.5c0 .2.2.5.5.5z"/><ellipse cy="257.1" cx="211.7" rx=".5" ry=".5" fill="#fff"/><ellipse cy="244.7" cx="211.7" rx=".5" ry=".5" fill="#fff"/><path fill="#fff" d="M241.5 241.4l.2-1 .7-.4v-1l.5-.8.7-.8.2-.9 1-.6 1.3-.2.5-.7.3-1.3v-1l.5-.6 1.3-.5v-2h-.7v-.8l-1.3-.1-.2.5h-.5l-.1.9h.6l.1.6-.4.4-.2.6-.9.2-1.9 1.8v.9l-.6.8-.6 1.6h-2.3l-.4 2 .3 1.6zm9.4-5.3v-1.5l-.2-1.4-1.6-.8-1.2 1.1-.2 1.5v1l-1 .2-.3 3-.8.3v1l-1 .4-1.3.3-.2 1.4-.8.5-.5 1.3-.5 3.2s1 1.8 1.5 1c.5-1 1.4-1 1.4-1l.3-.8 2.9.1c.2-1.2 1.6-.7 1.6-.2s1 .1 1 .1l.8-1.2h1.2v-1.3l.6-.3v-2c1.7-.5 1.5-2.1 1.5-2.1l.4-.5-.2-.8c-.9-.3-.4-1 .1-.9.5.2-.7-1-.7-1-.7.6-1.2-.6-1.2-.6h-1.6zm1.7 13c-.1 1.4-1.7 1.8-1.7 1.8l-1.2-.3-.6-.6-.1-1.5h1l.1.6h2.5zm5.7-6.8c.3 1 .3-1.5.7-1.4.4 0 0-1.5 0-1.5l-1.8 1.4c1 0 1 1 1.1 1.5zm5.7-5.6c.4 1 .3 2.3 1.9 3.4.5.4-.3 1-.9.8-.5-.4-2-2.7-2-2.7v-1.4c.3-.9.8-.6 1-.1zm1.4 32.5l-.7-.3-.7.6.3.3.3.5zm-4-1.4v1.2m16.2-3.4l-.4-.5-.8.5.3.6zm29.9 23.1l1 .4v1.9c1.3 1.3 5.5.2 5.5-.1l-.2-4-.6-.6v-2.7c.4-1.4-2-3.4-2.3-3-.2.4-1.6.1-1.6.5 0 .5-.8 2.6-.4 3.4.4.7-.3.7-.4 1.5-.2.8-1.2 2-1 2.7zm-2.3-4.3c-.3.8-1 1.3-1.4 1-.5-.4.5.5.7 1 .2.4.9.4 1 0 .3-.5.2-1.5.4-2 .2-.3-.6-.5-.7 0zm-5-19.8h.7v2h-.7zm11-20.8c-.4-.6 2.1-1.7 2.6-.4.4 1.2 0 1-.5 1-.4-.2-1.4.2-2-.6zm2.2-13.8l1.2.2v-.7l-1-.2zm-2.8 1.4l.6-.3-.2-.5-.2-.3-.3.1-.8.5-.7-.5-.3.6.9.5.1.1h.2l.6-.4zm4-26.5h-1.7s.6.2-1-1.2c-1.4-1.4-2.4.3-2.4.3l-1.7.3v1.7l-.8.3v1h1.2s0 1.3.4.7c.3-.5 3 .1 2.7 1.4 0 .6 2.7 2 2.4 3.7 1.3.2 1 1.6 1 1.6l1.8.2.6-1h.5v-.6l-1.2-.3-.2-3.4-.7-.6.2-.9-.9-.3.5-1.4-.8-1.5zm4.6 11h-.9l-1.9.2-1 2s.5.4 1 1.2c.3.7.6 5.2-.7 6-1.3.7 0 .2 0 .2l-.1 2.4c.3 1 .8.5 1.1 0 .4-.5.7-.6 1.1-1.2.4-.5 1-1.5 1.2-2.2 0-.8.6-2 .3-2.3-.3-.3.3-1.8.3-1.8s.4-1 0-1.8.1-1.8.4-2.2l-.8-.5zm1.3 4.4v-.8h.7v1zm0 3l-.6-.3.3-.6.6.3zm-1-8.6l-.4-1s0-.8.2-1.2c.2-.5-.4-.9-.7-1-.4-.1-.3-1-.4-1.4 0-.4-.8-.8-.8-.8l-.2-1.9c0-.3-1-.8-.7-1l.9-1c.3-.3-.3-1.8.2-1.5.5.4.5 1 .7 1.3.3.5 0 2 .5 2.3.5.3-.1 1.4.7 1.4.9 0 .3 2 .3 2s-.2 1.6.3 1.7c.6 0 .3 2.7.3 2.7l-.9-.6zm-6.9-17.5c.3.5 1 .8 1 1.2 0 .5-.3.8.4.9.6.1 1-.1 1.3.4.2.6.2 1.4 0 1.9 0 .4.2 1 .7 1 .5 0 .6.1.6.5s.7-1.2.7-1.2c-.6-.4-1-1.4-1-1.4l-.5-1.7c0-.3-.8-.5-1-.6-.4 0-1-1-1-1h-1.2zm1-1a3 3 0 0 0-1-.9c-.4-.2-.7-.4-1.2-.4a.7.7 0 0 1-.6-1c.2-.5-.3-.8-.3-1.2 0-.4.3-.4.8-.1.6.3.4.4.9 1 .4.5.6 1 1 1 .5-.2.8 1 1.2.6.4-.3.3.8.3.8l-1 .3zm-12.4 12.3c.6.6-3.2.4-3.2 0 0-.5.3-2 1.3-1.6 1 .3 1-2 1-2s-.8.1 0-.3c.7-.4 0-1-.4-1.4l-.6-.9h1.5c.6-.4.8-2.5.8-2.5 1.3.5 2-.4 2-.4s.2.7.6 1.2c.4.5-1 .7-.5 1 .5.4.7 1.4.5 1.7-.2.3-1.4.1-1.4-.3 0-.5-.4.5 0 1 .4.6-.5 1.3-.7 1.3-.2 0-1.6.3-.5 1 1.2.6 2.5.2 2.5.2s1 0 1.3.5c.3.5-.1.6-.7.6l-3-.2s-.8.8-.5 1zm-6.8 1c.5-.2 1.8-.3 2 0 .2.4-.7.8-.7.8l-1.3.2c-.4-.5-.5-1 0-1zm13.7-9.1c.9-.5 2.7-.5 2.6-1.1-.1-.7 1-.9 1-.9l.4 1.3 1 .7v1.2s.4-.3-.8 0c-1.2.4-.4 1-.4 1h-2.6l-.3-1-.9-1.2zm-4.1-5.9c.6 0-.2 2.5 1.5 2.3 1.7-.2 0 .8 1.4.9 1.2 0 1-1 1.3-1.7.5-.8.2-1.2-.5-1.5-.7-.2-.7-.2-1-1-.2-.9-1-1.1-1-1.1l-.3-1.3-1.4.9-1.4 1.8c0 1.4.7.7 1.4.7zm2.8 9.2l.3-.7.6.3-.3.7zm-1.1-1h.6v.7h-.6zm.5-14.4l.1 1h-.6l-.1-1zm-1.8 10h.6v.6h-.6zm-1.7 0v-.6l1-.1.1.6zm-8.7 10.4l-.6-.3.3-.7.6.2zm-3.4-2v-.6l1-.1v.6zm-20.8 0v.6l2.4-.1v-.7zm-1.5.8l-.3-1 .7-.1.2 1zm-.5.6l-.2-.6h.3l.2.5zm5.3-1.8v.8h1s.6.5.6.8.8.7 1.2.7c.4 0 1.6-.9 1.6-.9s.5-1.5.1-1.4c-.4.1-1.3.8-1.4.1 0-.6-1.4-.3-1.4-.3l-1.7.2zm5.3-1.2c0 .4-.2.8.5.9.6.1 1.8-.4 1.9.2 0 .7 0 1 1 1.4.8.3 1.3.4 2 .4l2-.2s1.5.3 1.8.6c1.2 1.2 2 1.5 2.2 1 .3-.6 0-1.8-.2-2.2 0-.5-1.6-2.5-2.1-2-.5.4-.7 0-1.6.3-1 .3-3 0-3-.4-.2-.4-1.7-.6-1.7-1 0-.5-1-1-1-.4.2.7-.7 1-1 .8-.1-.2-.8.6-.8.6zm24.5-13.8l.8-2.4c-1.1-.2-.9-1.4-.9-1.4 0-1-1.6-2-2.1-1.7-.5.3-.3-2.3-.3-2.3s1-.6 1.3-.3c.5.3-3.6-5.4-4.4-4.9-.9.6-2.8-.5-2.7-1.5.1-1-3.8-4.2-3.8-4.2s-1.3-.8-1.5-.2c-.2.7-.6 1 0 1.4.6.3.5-.5 1.3.2.7.8 2.1 1.8 1.6 2.4-.6.7-1.2.9-1.2.9l.7.8h1.2l.2 1.9s1.3.6 1.6 1.4c.3.7.3 1.2 0 1.6-.3.4-1 1.2-.8 2 0 .7 1 1 1 1l.8.1.6.3v1.4c.9-.2 2.3 1 2.2 1.8-.2.7.2.3 1.2 1 1 .8.8 1 1.5 1.5.8.5 1.4.2 1.7-.8z"/><path d="M285.4 176.6c-.1-.4-.4-2 .3-1.8.6 0 .2 0 1 .3.7.3.8-.5.8-.5h1.2l1.5 1.2-.3 1h-1c-.6-.8-1.6-.5-1.4.3.2.7-.5 2.1-1 2.2-.4.1-1.8.1-1.7-.5l.6-2.2zm-.9-2.9v-.9s-.1-.8-.6-.8c-.6 0-1.5-.7-1.3-1.1.2-.4-1.8-.9-1.8-.9s-1.8-1.7-1.2-1.5c.7.2.3-.7.3-.7s-1.2.2-1.6 0c-.3 0-.2-1-.2-1s-1.2-.3-1.2 0 .4.3.6 1c.2.6.1 1.7 1 2 1 .1 1.2.3 1.3.8.1.4 1.3.5 1.3.5l.9.4 2.5 2.2zm-11.8-11.9l-.8-.2v1h1.1zm0-3.6c-1.1-.9 1.5.6 1.5.6.8 0 1.4.7 1.4 1 0 .3 1.1.2 1.1.2l.2-.8-.9-1-.7-.6s-1.2 0-1.2-.4c0-.3-1 1.3-1.4 1zm19.6.6c-.3 1-.4 2.3-1 2.3-.5 0-.3 1.4-.3 1.4h1.8c.4.2.4 1.3.4 1.3 1.6-.1 2.3 2 2 2.6-.2.5.7.5.7.5s0 1.7-.2 2.2c-.2.4 1.4.7 1.8 1.4.4.6-.2 2.8-.5 2.9-.4 0 .8.4.7 1-.1.5.3 0 .4.8l.3 2.7 1.5.1c.2-1.4 3-1.4 3.4-1.3 1.8.7 3.2 3.5 3.2 4.1 0 .7-1.1.8-1.1.8l.2 3.1c1.8.6 3.3 3.2 3 3.6-.2.4 1.3.3 1.3.3.2-2 2-1.3 2.2-.6 0 .6.4 2 .4 2l.5 1 .8.7h1.1l.4.6 1.3.2s1.2 1.3 1.3 1.6c.1.3 1.7.2 2.1.3.5.1 1.1.5 1.2 1 .1.5.8 1.4.8 1.4s1.2.3 1.3.8l.7 1.4 1 .8.1 1 1.2.1.3 1.3 2-.1 1-.8c1.4-.7 2.4-1.7 2.5-2.1 0-.4.3-2 1.3-1.7 1.1.3.4-2.4.4-2.4s-1.5-1-1.4-1.6c0-.6-1.5-1.7-1.4-2 .1-.5-1.4-1.4-1.3-1.8.1-.4-.7-1.6-.7-1.6l-1.6-1.5-.2-1-1.3-.1-2.6-3.2.1-.8-.7-.1v-1.2l-.7-.4-1.2-.2-2.4-2.5-.2-1.2h-1.1l.2-2.3c.7-1 .3-2.8.3-2.8s-1.5.7-2.2.4c-.8-.3.3-1 .3-1v-1l-.7-.6s-1.8.2-1.9 0l-.4-1.8-.1-1.8-.8-.4v-.6l-1.2.1v-1.3l-.7-.2-.6-.3-.1-1.3-2.4-.1-.7-1.1-.8-1.3-2.7-.2-.6-.7-1.1-.2-.8-.3-.3.5-2 .1-.1.7c-1 .5-5.3 0-5.4.4zm11.1-2.8c-.1-.9 2.2-1.6 2.7-1 .5.7 2 .8 2.2 4 .1 1.2-1.9-1.2-1.9-1.2l-1.6-.5c-.8-.2-1.2-.8-1.4-1.3zm-31.2 1.3l-.5-.2.4-1 .6.2zm-5.5-10.6l-1.3-1.4v-1.2l-.5-.4-.4-1.5-1.4-.5-1.4.6-1.4 1-1.6.2-.9 1 3.4.3.6 1 2.5.3 1.6 1.6c1.4.4 1.7-.2.8-1zm-.2-5.3c-.2-1-1.6 1.2-.2 1.6 1.4.5 2.8 0 2.8 0l.3-.6 5.3.1c.5-.4.7-1 .7-1s1.2-.5 1.8-.3c.5.2 0-1.5-.5-1.3-.5.2-1.5.1-1.5.1h-2c0-.7-1.8-.4-1.9 0 0 .4-.7.6-.7.6l-2.5.2c-.2.6-1.5 1-1.6.6zM256 159.6c1.6.6 2.2.2 2.3-.3.1-.4.3-.5.9-.6.6-.1-.1-1.4-.8-1.3-.6.1-1.2-.2-1.3-.8-.1-.5-1.2-1.9-1.3-.8-.1 1-.8 1-.7 1.8.2.8.5 2 .9 2zm-12.2 1.3c-.1-.4 2.1-.5 2.4-.2.3.4.1 1 1 1s.6.6.5.9c-.1.3-1.2.2-1.3-.1 0-.3-1.7-.5-1.7-.5s-.8-.6-1-1.1zm35.3-22.5l-.5-.6-.5.5.8.8.2.2.2-.2 1-.9-.3-.5zm-5.7-3l-.3.5.8.5.2.1.2-.1 1.1-.8-.3-.5-1 .6zm-2.9 22.5h-1l-.1.6h.9l.6 1.1.6-.3-.8-1.2v-.1zm-35 30.2v1.2h1.7c.6 0-.6-.8-.6-.8s-1.2.1-1.1-.4zm2 0l.4-.5.6.5-.4.5zm-19.4-20.2l.5-.5.6.7-.4.4zM248 306.3l-.3.6.6.3-.2.3.5.4.5-.5.3-.3-.4-.2zm-7.6-7.7l-.7.5-.3.3.3.2.8.6.4-.5-.4-.3.3-.3zm79.5-20c-.1-.5-.8-.8-.8-.8l-.2.6.2.1v.8l.4.4c.4-.4.5-.7.4-1zm0-2.1v-1l1 .2v.9zm25.6-8.3c.5-.3 1-.9 1 .4 0 1.2-.6.8-1 1.2-.4.4-.6-1.2 0-1.6zm5.4-4.6v-.2a1.8 1.8 0 0 0-.1-.7l-.6.3v.5c.1.2.1.4.3.5l.4.1v-.6zm-1.4.5l.4 1.3.6-.2a12.7 12.7 0 0 1-.4-1.3l-.6.2zm-2.3 2.6l-.6-.1c0 .5 0 1.1.5 1.2l.2-.6-.1-.5zm-2.8-13a.6.6 0 0 0-.3-.4c-.5-.2-1.3.1-1.7.4l.3.6c.5-.3 1-.5 1.1-.4l.6-.1zm-29.5-34.4c-.4.4-1.3.6-1.3.6l-.4 1.2-.5.4s.1.4 0 1.1c-.1.8-1 1.2-1 1.2l-.5.5s-2.5.2-2.9 0c-1-.4-.3-1.7.4-1.6.6.1-.1-1.8-.1-1.8l.8-.1s.1-2 .4-2 0-.6-.5-1c-.4-.3-1-1.3-1.4-1.2h-2.1l-.3.6-1.2.2s.1.9-.1 1.1c-.6.8-3 2.4-2-.3l.3-.7v-1h-2s-.9-.4-.9-.8v-1l-2.3-2.4-2.7-.4-.2-.5-1.6-.2c-2-1-3.6-.1-3.3 1.5.3 1.6.9 2.3-.2 2.3-1 0-1.3-1-1.3-1s-.8-.2-.8.2-.3 1.3 0 1.7c.3.5-.5 1.1-.8.8-.3-.3-1.1-1.3-1-1.6.3-.4-1.4-2.4.3-2.7 1.7-.4-.1-1.3.5-1.5l.9-.5h.8l.5-.4-1.3-.2-.9-.1-1.6-.1c-1.6 1-1.9 2.3-1.9 2.3-.8 1.7-2.9-.6-2.1-1.5.7-.8-2.4 0-2.9.3-.5.5-2.1.3-2.1.3-.3 1-1.8-.1-1.4-.8.4-.6.4-1 .4-1l-.5-.2-.7 1.2c-1.4 0-1.9.9-1.5 1.4.3.5-.5-.1-.7.7-.2.7.1.7.8 1 .6.4-.4.4 0 .9.5.5 1.8 0 1 .8-.7.7-2.2.4-2.2.4-.1 1-2.1.7-2.4.4l-1.8-2.2-2-.2c-.2-1.5 1-.7 1.4-1.9.4-1.2.6-3.1.6-3.1s-1.7-.1-1.8.4c0 .5-1.1.9-1.1.9s-.9.3-.6.7c.3.5-.6.7-.6.7s.2.7-.1 1c-.9.8-3 0-3.3-.3l-1.3-.5-1.3-.9-1.5.7-.4.4H253v1.3l2.8.3.2 2.7-1.2-.4h-.7l-.3-.7h-.7v2.3l.7.5.5.6h1l.3 1.4 2.6.1.4.5 1.6.1 3 3.2-.2 1-.5.3c.2.7-1.4.3-1.4.3v.6l.8.1.7.5 1-1.9c1.2-.7 1.8.4 1.9 1 0 .7-.6.6-.6.6v1.5l.7.2c1 1.3-.5 2-.5 2l-.3 1.1c-.3 1-1.5.8-1.5.8l-.4.6-1.3.3 2.6.4c.2-.9.8-1.1 1.2-.7.3.5.3 1.2.3 1.2l.6.1v1.2l.6.2v3.5l.7.8c1.3-.5 1.3.4.6.8-.6.4-.2 2.4-.2 2.4l-.5.5v.9l-.7.4v1.2c-1-.5-2.3-.3-2.6 0-1-.7-3-.4-3 .1.6.9-.7 1-.7 1l-.8 1c.6 1-.5 1.1-.5 1.1v2l-1.3 1.3.1 2.8c0 .7 1.6.8 2 .4.3-.4 1.5.9 1.5.9h1l.2-2-.6-.3v-3.1l1-1.2c1.3-.4.9 2.8.9 3.1 0 1.2.6 1.1 1.1.9 1.1-.5.3 1.2-.6 1-.8 0-.3 1.1-.3 1.1l.5.3-1 .7-.8 1-1-.3-1.3-.1-.5-.8-.7-.1-.1 1.5-.5.6-1.3 1.3c1.7 0-.2 1.2-.7 1.2 1 .4 0 1.3-2.5.6v.7l-.9.1.8.9.8.1-.3 1.8c0 1.4-3.5.5-3.8.1l-.1 2-.7.1.2 1.3-.2 1.8 1.2-.2v.8h2.9l4.1-4.3 2.5-.6c.2-1 1.3.2 1.3.2 1 0 1.2.7 1.2.7l1.4.2c1.2.3.5.4.6.9 0 .6.6.4.6.4l.2-1.4h.6l-.6-.7-1.2-.5-1.2-.5c-.9-1.2.2-1 1-1h1.4s1.6 2.3 1.6 2.8.7.6.7.6h1l.3.7h1l.3.6h2v-1l-1.8-.3v-1l-1.4-.4c-.4-1.8.3-2.3.9-1.5l.6.1-.2-1.6.8-.2-.3-2.3-.6-.2v-.7h2.7c-.3-1.3 0-2 0-2h.8l.1.6 3.3.3 2.3-2.7c-.1-.2.2-.3 0-.6-.4-.3-.8 0-1.3-.3-.6-.3 0-2.1-.1-2.6-.1-.4 1.8-1 1.5 0-.4.9 0 1.3 0 1.3 1.3-1.3 2.5.1 2.4.5-.1.3.7.6 1.3.3.5-.3 1.1 1 1 1.6-.3.6-2.2.5-2.3-.1-.1-.7-.4-.4-.6-.1-.3.3-1.2.5-1.7.2a.5.5 0 0 1-.2-.2l-2.3 2.7h.1c1.3.7.7 1.7.2 2l-1.1.1-.2.5-2.8.2-.2 1c-1.4-.2-2 1.4-1.6 2.1.3.8 0 1.4 0 1.4l1.1.6 1.5-.5c.2-1 1.2-1.3 2-2 .9-.6 2.3 1.3 1.9 2.1-.5.9-.5 1.2-.5 1.2l.1 1-1 .4-.9.5v.5h-3l-.5.5-1.4.1-.4.7-1 .1s-1.5.8-.9 1.6c.6.9-2.7.8-3.4-.4-.2 1-1.4.1-1.4.1l-1.2-.3v-1.6c-.3-1.1-2.3-1.1-2.2-.4.1.8-3.8.4-3.8.4l-1.3.6-1.2.7v.5l-2 .2-.8.4-.4-.6h-.8l-.9 1.2c-2.2 0-4.3 1.4-4.1 2 .2.5-.9 1-.9 1l-1 .3-.6 1-1.2.4-.3 2.3-.6.4v1l-.7.2v.6h-1.1l.6 1.7.9.4c1.5.2.8 2 .8 2l.9.2.4 1.2.9 1.7c.3 1.3 1.2 1 1.7.9.4-.2.8 1.3.8 1.3h4.3s-.2.5.5.7c.8.2 5.6.4 5.9.1-.3-1 2.6-1.2 3.8-.3 1.2.9 2.8.3 2.8.3l1.6 2 1 2.3 1.8.6 1.3.3.4 1.8 1 .1.3 1.2c1.2.9-.3 2.7-.3 2.7v2.4l.8.4v.9l1.3 1.4 1.6.1 4 4.3 3.2 1 .6 1.7h.8l.7-.6 2.5-.1 1.3-1.2 1.4-.2 11.8-10-1-.7V301c1.8-1.4 2-3.9.1-4.1-1.3-.2-.7-1.6.6-1.8l.7-.4v-1l2.5-2.2v-1.7l-5.4-4.5c-2.3-.8 0-6 1.6-5.9 1.6.1 0-8 0-8l-1-.4.3-2.6H298l-1.9 2.5-.5 1.7c-.2 2.3-6.8 1.8-7.2 1.5-.3-.3-2.5-1.3-2.5-1.3s-1.7-1.4-2-1c-.3.5-1.8-.5-1.8-.2 0 .4-1.4-.7-1.4-.7l-2.1-.8 1.6-.3-.4-1.3 2.8 1.4c.3.4 1.7.3 1.7.3l.4.6s.9-.1 1.4.5c.5.7 3.3.1 3.3.1l.8.7 1.1.4 3.3.1.1-2 .7-.7-.1-1.3.7-.6v-1.1l.6-.2.1-2.4.6-.1V259l-1.6-1.5c-.1.5-1.8.5-1.8.5s-.5.8-.8.8c-.3 0 .5 1 .2 1.6-.2.7-1 .7-1 .7l-1.6.4-.4.5h-1.7l-.3-1.4 2-.5 1-.6.5-1c.2-1.1 1.4-1 1.4-1s2.5-2 2.6-3c0-1 1-3.7 2.4-3.7h2.8c1-.4.7-1.8.7-1.8l1.4-.2.2.7s2 .2 2.2-.1c.2-.3.6-1 1.1-.8.6.4 2.3-.7 2.3-.7 0-.8 2.7-.4 2.7-.4l.4-1s-1.9-2.5-2.2-2.5c-.3 0-2-1.5-2.2-1-1.7-.4-1.6-2.8-1.6-2.8l-.6-1.5c0-.9-1.6-2.7-2-2.5-1.6-1.2-.4-2.6 0-2.7.5 0 1.5-1.6 1.5-1.6l.6-1.5 1.8-.5.2-1.4-1-.2s1-1.9 1.6-1.9c.6 0 4 0 4.4-.2.3-.2 1-2 1-2.3 0-.3.8-.4 1.1-.5.3-.1 1-1 1.3-1.4.2-.5-.5-3.2-1-2.7z" fill="#fff"/><path d="M256 258.2c.2-.2.3.5.6.4.4 0 .5.6.2.6s-.3.4-.3.5c0 .2 0 .6-.3.8-.2.3-.4.1-.8 0-.3-.2-.4-.2-.8-.2s-.1.7-.1.7-1.7-.1-1.4-.4c.3-.2.7-.3.4-.5-.2-.1 0-.3 0-.6s.8-.2.6-.4c-.3-.3 0-1.2.4-.7l.2-.5c-.2-.3 0-.4-.5-.5-.5-.2-.1-1.1-.1-1.1v-.7c.2-.8 1.8-.9 1.9-.2v1.3l.5.1s-.1.5-.5.5 0 .2-.2.5l.2.4zm-5.3.8c.3-.5.8-2.6 1.5-2 .6.7 1 0 1 0s.3.4.2 1c-.2.7-.4 1.3-.8 1.4-.4 0-.7.3-1.1.4-.5.1-.8-.8-.8-.8z" fill="#fff"/></svg>