<svg xmlns="http://www.w3.org/2000/svg" height="512" width="512" viewBox="0 0 512 512"><g fill-rule="evenodd"><g stroke-width="1pt"><path d="M0 0h972.8v39.4H0zm0 78.8h972.8v39.4H0zm0 78.7h972.8V197H0zm0 78.8h972.8v39.4H0zm0 78.8h972.8v39.4H0zm0 78.7h972.8v39.4H0zm0 78.8h972.8V512H0z" fill="#bd3d44"/><path d="M0 39.4h972.8v39.4H0zm0 78.8h972.8v39.3H0zm0 78.7h972.8v39.4H0zm0 78.8h972.8V315H0zm0 78.8h972.8v39.3H0zm0 78.7h972.8v39.4H0z" fill="#fff"/></g><path fill="#192f5d" d="M0 0h389.1v275.7H0z"/><g fill="#fff"><path d="M32.4 11.8L36 22.7h11.4l-9.2 6.7 3.5 11-9.3-6.8-9.2 6.7 3.5-10.9-9.3-6.7H29zm64.9 0l3.5 10.9h11.5l-9.3 6.7 3.5 11-9.2-6.8-9.3 6.7 3.6-10.9-9.3-6.7h11.4zm64.8 0l3.6 10.9H177l-9.2 6.7 3.5 11-9.3-6.8-9.2 6.7 3.5-10.9-9.3-6.7h11.5zm64.9 0l3.5 10.9H242l-9.3 6.7 3.6 11-9.3-6.8-9.3 6.7 3.6-10.9-9.3-6.7h11.5zm64.8 0l3.6 10.9h11.4l-9.2 6.7 3.5 11-9.3-6.8-9.2 6.7 3.5-10.9-9.3-6.7h11.5zm64.9 0l3.5 10.9h11.5l-9.3 6.7 3.6 11-9.3-6.8-9.3 6.7 3.6-10.9-9.3-6.7h11.5zM64.9 39.4l3.5 10.9h11.5L70.6 57 74 67.9 65 61.2l-9.3 6.7L59 57 50 50.3h11.4zm64.8 0l3.5 10.9h11.5l-9.3 6.7 3.6 10.9-9.3-6.7-9.3 6.7L124 57l-9.3-6.7h11.5zm64.9 0l3.5 10.9h11.5l-9.3 6.7 3.5 10.9-9.2-6.7-9.3 6.7 3.5-10.9-9.2-6.7H191zm64.8 0l3.6 10.9h11.4l-9.3 6.7 3.6 10.9-9.3-6.7-9.3 6.7 3.6-10.9-9.3-6.7H256zm64.9 0l3.5 10.9h11.5L330 57l3.5 10.9-9.2-6.7-9.3 6.7 3.5-10.9-9.2-6.7h11.4zM32.4 66.9L36 78h11.4l-9.2 6.7 3.5 10.9-9.3-6.8-9.2 6.8 3.5-11-9.3-6.7H29zm64.9 0l3.5 11h11.5l-9.3 6.7 3.5 10.9-9.2-6.8-9.3 6.8 3.6-11-9.3-6.7h11.4zm64.8 0l3.6 11H177l-9.2 6.7 3.5 10.9-9.3-6.8-9.2 6.8 3.5-11-9.3-6.7h11.5zm64.9 0l3.5 11H242l-9.3 6.7 3.6 10.9-9.3-6.8-9.3 6.8 3.6-11-9.3-6.7h11.5zm64.8 0l3.6 11h11.4l-9.2 6.7 3.5 10.9-9.3-6.8-9.2 6.8 3.5-11-9.3-6.7h11.5zm64.9 0l3.5 11h11.5l-9.3 6.7 3.6 10.9-9.3-6.8-9.3 6.8 3.6-11-9.3-6.7h11.5zM64.9 94.5l3.5 11h11.5l-9.3 6.6 3.5 11-9.2-6.8-9.3 6.7 3.5-10.9-9.2-6.7h11.4zm64.8 0l3.5 11h11.5l-9.3 6.6 3.6 11-9.3-6.8-9.3 6.7 3.6-10.9-9.3-6.7h11.5zm64.9 0l3.5 11h11.5l-9.3 6.6 3.5 11-9.2-6.8-9.3 6.7 3.5-10.9-9.2-6.7H191zm64.8 0l3.6 11h11.4l-9.3 6.6 3.6 11-9.3-6.8-9.3 6.7 3.6-10.9-9.3-6.7H256zm64.9 0l3.5 11h11.5L330 112l3.5 11-9.2-6.8-9.3 6.7 3.5-10.9-9.2-6.7h11.4zM32.4 122.1L36 133h11.4l-9.2 6.7 3.5 10.9-9.3-6.7-9.2 6.7 3.5-10.9-9.3-6.7H29zm64.9 0l3.5 10.9h11.5l-9.3 6.7 3.5 10.9-9.2-6.7-9.3 6.7 3.6-10.9-9.3-6.7h11.4zm64.8 0l3.6 10.9H177l-9.2 6.7 3.5 10.9-9.3-6.7-9.2 6.7 3.5-10.9-9.3-6.7h11.5zm64.9 0l3.5 10.9H242l-9.3 6.7 3.6 10.9-9.3-6.7-9.3 6.7 3.6-10.9-9.3-6.7h11.5zm64.8 0l3.6 10.9h11.4l-9.2 6.7 3.5 10.9-9.3-6.7-9.2 6.7 3.5-10.9-9.3-6.7h11.5zm64.9 0l3.5 10.9h11.5l-9.3 6.7 3.6 10.9-9.3-6.7-9.3 6.7 3.6-10.9-9.3-6.7h11.5zM64.9 149.6l3.5 11h11.5l-9.3 6.7 3.5 10.9-9.2-6.8-9.3 6.8 3.5-11-9.2-6.7h11.4zm64.8 0l3.5 11h11.5l-9.3 6.7 3.6 10.9-9.3-6.8-9.3 6.8 3.6-11-9.3-6.7h11.5zm64.9 0l3.5 11h11.5l-9.3 6.7 3.5 10.9-9.2-6.8-9.3 6.8 3.5-11-9.2-6.7H191zm64.8 0l3.6 11h11.4l-9.3 6.7 3.6 10.9-9.3-6.8-9.3 6.8 3.6-11-9.3-6.7H256zm64.9 0l3.5 11h11.5l-9.3 6.7 3.5 10.9-9.2-6.8-9.3 6.8 3.5-11-9.2-6.7h11.4zM32.4 177.2l3.6 11h11.4l-9.2 6.6 3.5 11-9.3-6.8-9.2 6.7 3.5-10.9-9.3-6.7H29zm64.9 0l3.5 11h11.5l-9.3 6.6 3.5 11-9.2-6.8-9.3 6.7 3.6-10.9-9.3-6.7h11.4zm64.8 0l3.6 11H177l-9.2 6.6 3.5 11-9.3-6.8-9.2 6.7 3.5-10.9-9.3-6.7h11.5zm64.9 0l3.5 11H242l-9.3 6.6 3.6 11-9.3-6.8-9.3 6.7 3.6-10.9-9.3-6.7h11.5zm64.8 0l3.6 11h11.4l-9.2 6.6 3.5 11-9.3-6.8-9.2 6.7 3.5-10.9-9.3-6.7h11.5zm64.9 0l3.5 11h11.5l-9.3 6.6 3.6 11-9.3-6.8-9.3 6.7 3.6-10.9-9.3-6.7h11.5zM64.9 204.8l3.5 10.9h11.5l-9.3 6.7 3.5 11-9.2-6.8-9.3 6.7 3.5-10.9-9.2-6.7h11.4zm64.8 0l3.5 10.9h11.5l-9.3 6.7 3.6 11-9.3-6.8-9.3 6.7 3.6-10.9-9.3-6.7h11.5zm64.9 0l3.5 10.9h11.5l-9.3 6.7 3.5 11-9.2-6.8-9.3 6.7 3.5-10.9-9.2-6.7H191zm64.8 0l3.6 10.9h11.4l-9.3 6.7 3.6 11-9.3-6.8-9.3 6.7 3.6-10.9-9.3-6.7H256zm64.9 0l3.5 10.9h11.5l-9.3 6.7 3.5 11-9.2-6.8-9.3 6.7 3.5-10.9-9.2-6.7h11.4zM32.4 232.4l3.6 10.9h11.4l-9.2 6.7 3.5 10.9-9.3-6.8-9.2 6.8 3.5-11-9.3-6.6H29zm64.9 0l3.5 10.9h11.5L103 250l3.5 10.9-9.2-6.8L88 261l3.6-11-9.3-6.6h11.4zm64.8 0l3.6 10.9H177L168 250l3.5 10.9-9.3-6.8-9.2 6.8 3.5-11-9.3-6.6h11.5zm64.9 0l3.5 10.9H242l-9.3 6.7 3.6 10.9-9.3-6.8-9.3 6.8 3.6-11-9.3-6.6h11.5zm64.8 0l3.6 10.9h11.4l-9.2 6.7 3.5 10.9-9.3-6.8-9.2 6.8 3.5-11-9.3-6.6h11.5zm64.9 0l3.5 10.9h11.5l-9.3 6.7 3.6 10.9-9.3-6.8-9.3 6.8 3.6-11-9.3-6.6h11.5z"/></g></g></svg>