<svg xmlns="http://www.w3.org/2000/svg" xmlns:xlink="http://www.w3.org/1999/xlink" height="512" width="512" viewBox="0 0 512 512"><path fill="#1eb53a" d="M0 341.3h512V512H0z"/><path fill="#0099b5" d="M0 0h512v170.7H0z"/><path fill="#ce1126" d="M0 163.8h512v184.4H0z"/><path fill="#fff" d="M0 174h512v164H0z"/><circle cx="143.4" cy="81.9" r="61.4" fill="#fff"/><circle cx="163.8" cy="81.9" r="61.4" fill="#0099b5"/><g transform="translate(278.5 131) scale(2.048)" fill="#fff"><g id="e"><g id="d"><g id="c"><g id="b"><path id="a" d="M0-6L-1.9-.3 1 .7"/><use height="100%" width="100%" xlink:href="#a" transform="scale(-1 1)"/></g><use height="100%" width="100%" xlink:href="#b" transform="rotate(72)"/></g><use height="100%" width="100%" xlink:href="#b" transform="rotate(-72)"/><use height="100%" width="100%" xlink:href="#c" transform="rotate(144)"/></g><use height="100%" width="100%" xlink:href="#d" y="-24"/><use height="100%" width="100%" xlink:href="#d" y="-48"/></g><use height="100%" width="100%" xlink:href="#e" x="24"/><use height="100%" width="100%" xlink:href="#e" x="48"/><use height="100%" width="100%" xlink:href="#d" x="-48"/><use height="100%" width="100%" xlink:href="#d" x="-24"/><use height="100%" width="100%" xlink:href="#d" x="-24" y="-24"/></g></svg>