<svg xmlns="http://www.w3.org/2000/svg" height="512" width="512" viewBox="0 0 512 512"><defs><clipPath id="a"><path fill-opacity=".7" d="M0 0h496v496H0z"/></clipPath></defs><g stroke-width="1pt" clip-path="url(#a)" transform="scale(1.0321)"><path fill-rule="evenodd" fill="#319208" d="M0 425.2h992.1v70.9H0z"/><path fill-rule="evenodd" fill="#de2010" d="M0 283.5h992.1v70.8H0z"/><path fill-rule="evenodd" fill="#ffd200" d="M0 354.3h992.1v70.9H0z"/><path fill-rule="evenodd" fill="#de2010" d="M0 141.7h992.1v70.9H0z"/><path fill-rule="evenodd" fill="#ffd200" d="M0 70.9h992.1v70.8H0z"/><path fill-rule="evenodd" fill="#319208" d="M0 0h992.1v70.9H0z"/><path d="M28 0v496l333-248L28 0z" fill-rule="evenodd"/><path fill-rule="evenodd" d="M0 0h28.3v496H0z"/><path d="M0 0v496l361.4-248L0 0z" fill-rule="evenodd"/><path fill-rule="evenodd" d="M0 212.6h992.1v70.9H0z"/><path d="M0 0v496l333-248L0 0z" fill-rule="evenodd" fill="#fff"/><path fill="#d62419" fill-rule="evenodd" d="M127.9 111.1l26.4 87.6 94.4.8-75.1 52.2 28.3 90-72.8-55.3-76.8 54.8 30-86.4-75.8-56.1 91.4 1.9z"/><path d="M48.5 161c1.6-2.8 2-4.4 10.3-8 11-31.8 38.9-19.3 54.3 24.8 14.1 6 98.6 69 97.3 72.6-.6 3.2-11.2.6-11.2.6s-16.7 71.4-17 71.4a869.5 869.5 0 0 0-112.8-4.2c.3-5.5-9-41.1-9-41.1s-8-2.6 5.4-30c14.5-34.3 17.4-90.2-17.3-86z" fill-rule="evenodd" stroke="#000" fill="#f7df00"/><path d="M77 148.2a3.5 3.5 0 1 1-7 0 3.5 3.5 0 0 1 7 0zm35.1 29.6s-27.6 15.7-35.6 15.4M199.2 251c-2-1.6-102.5-6.4-98.3-40.5m16 41.2s11 6.4 20.3-10.3m-8 10s7.7 7 19-8.4m-87.5 34s7 1 8.4-3.2m25 44.7l-7-45.6c34.9 3 71 3.3 104.7 9.3" stroke="#000" fill="none"/><path d="M90.6 273.5l9.6 11.3 10-9.7 8.3 9m2.6.3l8.4-7.3 9 8.6m1.6 0l9.3-8.3 7 8.3m4 .4l8.3-5.8 7.4 7m5.8-.3l6-5.8" stroke="#000" fill="none"/><path d="M89 283.8l10.3 11.9 10.2-9.3 9 9.6 10.3-9 8.7 10.3 10.6-9s8 10 9 10 10.6-8.4 10.6-8.4l9.3 10.3 12.9-10.3m-99.3 5.5s82.9 3.2 96.4 6.4m-82.6-44s78.7 4.2 91.3 9" stroke="#000" fill="none"/><path d="M88.3 225c.7 4.8-5.1 21.5-11.2 27.3-8.4 6.8-7.4 20.9-7.4 20.9 1 5.8 13.5 5.1 15.1 2.2 1.3-13.1 15.4-16 15.4-16s19.6-5.5 28-21.9m-.3 29.3a4.2 4.2 0 1 1-8.4 0 4.2 4.2 0 0 1 8.4 0zm18.6 1.6a4.2 4.2 0 1 1-8.4 0 4.2 4.2 0 0 1 8.4 0z" stroke="#000" fill="none"/></g></svg>