<svg xmlns="http://www.w3.org/2000/svg" height="480" width="640" viewBox="0 0 640 480"><g stroke-width="1pt"><path fill-rule="evenodd" fill="#229e45" d="M0 0h640v480H0z"/><path d="M321.4 436L623 240.2 319.6 44 17 240.7 321.4 436z" fill-rule="evenodd" fill="#f8e509"/><path d="M452.8 240a127.4 127.4 0 1 1-255-.2 127.4 127.4 0 0 1 255 .2z" fill-rule="evenodd" fill="#2b49a3"/><path fill="#ffffef" fill-rule="evenodd" d="M283.3 316.3l-4-2.3-4 2 .9-4.5-3.2-3.4 4.5-.5 2.2-4 1.9 4.2 4.4.8-3.3 3m86 26.3l-3.9-2.3-4 2 .9-4.5-3.2-3.3 4.5-.5 2.1-4.1 2 4.2 4.4.8-3.4 3.1m-36.2-30l-3.4-2-3.5 1.8.8-3.9-2.7-2.9 3.9-.4 1.8-3.6 1.6 3.7 3.9.7-3 2.7m87-8.5l-3.4-2-3.5 1.8.8-3.9-2.7-2.8 3.9-.4 1.8-3.5 1.6 3.6 3.8.7-2.9 2.6m-87.3-22l-4-2.2-4 2 .9-4.6-3.2-3.3 4.5-.5 2.1-4.1 2 4.2 4.4.8-3.4 3.1m-104.6-34.9l-4-2.3-4 2 1-4.5-3.2-3.3 4.5-.5 2-4.1 2 4.2 4.4.8-3.3 3.1m13.3 57.2l-4-2.3-4 2 .9-4.5-3.2-3.4 4.5-.5 2.2-4 1.8 4.2 4.5.8-3.3 3.1m132-67.3l-3.6-2-3.6 1.8.8-4-2.8-3 4-.5 1.9-3.6 1.7 3.7 4 .8-3 2.7m-6.7 38.3l-2.7-1.6-2.9 1.4.6-3.2-2.2-2.3 3.2-.4 1.5-2.8 1.3 3 3 .5-2.2 2.2m-142.2 50.4l-2.7-1.5-2.7 1.3.6-3-2.1-2.2 3-.4 1.4-2.7 1.3 2.8 3 .6-2.3 2M419 299.7l-2.2-1.1-2.2 1 .5-2.3-1.7-1.7 2.5-.2 1.1-2 1 2 2.5.5-1.9 1.5"/><path fill="#ffffef" fill-rule="evenodd" d="M219.3 287.6l-2.7-1.5-2.7 1.3.6-3-2.1-2.2 3-.4 1.4-2.7 1.3 2.8 3 .6-2.3 2"/><path fill="#ffffef" fill-rule="evenodd" d="M219.3 287.6l-2.7-1.5-2.7 1.3.6-3-2.1-2.2 3-.4 1.4-2.7 1.3 2.8 3 .6-2.3 2m42.3 3l-2.6-1.4-2.7 1.3.6-3-2.1-2.2 3-.4 1.4-2.7 1.3 2.8 3 .5-2.3 2.1m-4.8 17l-2.6-1.5-2.7 1.4.6-3-2.1-2.3 3-.4 1.4-2.7 1.3 2.8 3 .6-2.3 2m87.4-22.2l-2.6-1.6-2.8 1.4.6-3-2-2.3 3-.3 1.4-2.7 1.2 2.8 3 .5-2.2 2.1m-25.1 3l-2.6-1.5-2.8 1.4.6-3-2-2.3 3-.3 1.4-2.8 1.2 2.9 3 .5-2.2 2.1m-68.8-5.8l-1.7-1-1.7.9.4-2-1.3-1.3 1.9-.3.8-1.7.8 1.8 1.9.3-1.4 1.3m167.8 45.4l-2.6-1.5-2.7 1.4.6-3-2.1-2.3 3-.4 1.4-2.7 1.3 2.8 3 .6-2.3 2m-20.8 6l-2.2-1.3-2.3 1 .6-2.4-1.8-1.9 2.5-.3 1.2-2.3 1 2.4 2.5.4-1.9 1.8m10.4 2.3l-2-1.2-2.1 1 .4-2.3-1.6-1.7 2.3-.3 1.1-2.1 1 2.2 2.3.4-1.7 1.6m29.1-22.7l-2-1.2-2 1 .5-2.2-1.6-1.7 2.2-.2 1.1-2 1 2 2.1.4-1.6 1.6m-38.8 41.8l-2.5-1.4-2.7 1.2.6-2.8-2-2 3-.3 1.3-2.5 1.2 2.6 2.9.5-2.2 1.9m.6 14.2l-2.3-1.4-2.5 1.3.6-2.8-1.9-2 2.7-.4 1.2-2.5 1.2 2.6 2.6.5-2 2m-19-23.1l-1.9-1.2-2 1 .5-2.2-1.6-1.7 2.2-.2 1-2 1 2 2.2.4-1.6 1.6m-17.8 2.3l-2-1.2-2 1 .5-2.2-1.6-1.7 2.2-.2 1-2 1 2 2.2.4-1.6 1.6m-30.4-24.6l-2-1.1-2 1 .4-2.3-1.5-1.6 2.2-.3 1-2 1 2 2.2.5-1.6 1.5m3.7 57l-1.7-.9-1.7.8.4-1.9-1.3-1.4 1.9-.2.9-1.7.8 1.8 1.8.3-1.4 1.3m-46.1-86.6l-4-2.3-4 2 .9-4.5-3.2-3.3 4.5-.6 2.2-4 1.9 4.2 4.4.8-3.3 3.1"/><path d="M444.4 285.8c2-5 4.4-12.7 5.8-19.8-67.8-59.5-143.3-90-238.7-83.7-3.5 6.6-6.2 13.4-8.5 20.9 113-10.8 196 39.2 241.4 82.6z" fill-rule="evenodd" fill="#fff"/><path d="M414 252.4l2.3 1.3c-.3.8-.4 1.6-.3 2.2a3 3 0 0 0 1.4 1.7c.7.5 1.4.8 2 .7.6 0 1-.3 1.3-.7a1.3 1.3 0 0 0 .2-.9c0-.3-.2-.7-.5-1-.2-.4-.7-1-1.5-1.8a7.7 7.7 0 0 1-1.8-3 3.7 3.7 0 0 1 2-4.4c.8-.3 1.5-.3 2.3-.2a7 7 0 0 1 2.6 1.2c1.4 1 2.3 2 2.6 3.2a4 4 0 0 1-.6 3.3l-2.4-1.5c.3-.6.4-1.2.2-1.7-.1-.5-.5-1-1.2-1.4-.6-.5-1.3-.7-1.8-.7a1 1 0 0 0-.9.5 1 1 0 0 0-.1 1c.1.4.6 1.1 1.6 2.2 1 1 1.6 1.9 2 2.5a3.9 3.9 0 0 1-.3 4.2 4.1 4.1 0 0 1-1.9 1.5 4 4 0 0 1-2.4.3 8 8 0 0 1-2.8-1.3 6 6 0 0 1-2.7-3.3c-.3-1.2-.1-2.5.6-4zm-11.6-7.6l2.5 1.2c-.3 1-.4 1.7-.2 2.3a3 3 0 0 0 1.4 1.6c.8.5 1.4.7 2 .6.6 0 1-.3 1.3-.7a1.3 1.3 0 0 0 .2-1l-.5-1-1.6-1.7c-1.1-1.1-1.8-2-2-2.8-.3-1.2-.2-2.2.4-3.1a3.6 3.6 0 0 1 1.6-1.4c.6-.3 1.4-.4 2.2-.3a7 7 0 0 1 2.6 1c1.5 1 2.4 2 2.7 3.1a4 4 0 0 1-.4 3.4l-2.5-1.4c.3-.7.4-1.3.2-1.7-.2-.5-.6-1-1.3-1.4-.7-.4-1.3-.6-1.9-.6a1 1 0 0 0-.8.5 1 1 0 0 0-.1 1c.1.4.7 1.1 1.7 2.1s1.7 1.9 2 2.5a3.9 3.9 0 0 1 0 4.2 4.2 4.2 0 0 1-1.8 1.6 4 4 0 0 1-2.4.3 8 8 0 0 1-2.9-1.1 6 6 0 0 1-2.8-3.2c-.4-1.2-.2-2.5.4-4zm-14.2-3.8l7.3-12 8.8 5.5-1.2 2-6.4-4-1.6 2.7 6 3.7-1.3 2-6-3.7-2 3.3 6.7 4-1.2 2-9-5.5zm-20.7-17l1.1-2 5.4 2.7-2.5 5c-.8.2-1.8.3-3 .2a9.4 9.4 0 0 1-3.3-1 7.7 7.7 0 0 1-3-2.6 6 6 0 0 1-1-3.5 8.6 8.6 0 0 1 1-3.7 8 8 0 0 1 2.6-3c1-.7 2.2-1.1 3.6-1.1 1 0 2 .3 3.2 1 1.6.7 2.6 1.7 3.2 2.8a5 5 0 0 1 .3 3.5l-2.8-.8a3 3 0 0 0-.2-2c-.3-.6-.8-1-1.6-1.4a3.8 3.8 0 0 0-3.1-.3c-1 .3-1.9 1.2-2.6 2.6-.7 1.4-1 2.7-.7 3.8.3 1 1 1.9 2 2.4.5.3 1.1.5 1.7.5a6 6 0 0 0 1.8 0l.8-1.6-2.9-1.5zm-90.2-22.4l2-13.8 4.2.6 1.1 9.8 3.9-9 4.2.6-2 13.8-2.7-.4 1.6-10.9-4.3 10.5-2.7-.4-1.1-11.3-1.6 11-2.6-.5zm-14.1-1.6l1.3-14 10.3 1-.2 2.4-7.5-.7-.3 3 7 .7-.3 2.4-7-.7-.3 3.8 7.8.8-.2 2.3-10.6-1z" fill="#309e3a"/><g stroke-opacity=".5"><path d="M216.5 191.3a9 9 0 0 1 .7-3.6 6.6 6.6 0 0 1 1.4-1.9c.5-.5 1.2-1 1.8-1.2 1-.3 2-.5 3-.5 2.1 0 3.7.8 5 2a7.4 7.4 0 0 1 1.6 5.5c0 2.2-.7 4-2 5.2a6.5 6.5 0 0 1-5 1.8c-2 0-3.6-.7-4.8-2a7.3 7.3 0 0 1-1.7-5.3z" fill="#309e3a"/><path d="M219.4 191.3c0 1.5.3 2.8 1 3.6.7.8 1.6 1.3 2.8 1.3 1 0 2-.4 2.8-1.1.7-.8 1-2 1.1-3.7 0-1.6-.2-2.8-1-3.6a3.5 3.5 0 0 0-2.7-1.3c-1.1 0-2 .4-2.8 1.2-.8.7-1.1 2-1.2 3.6z" fill="#f7ffff"/></g><g stroke-opacity=".5"><path d="M233 198.5l.2-14h6c1.4 0 2.5.2 3.2.5.7.2 1.2.7 1.6 1.3s.6 1.4.6 2.3c0 1-.3 1.9-1 2.6-.6.6-1.5 1-2.7 1.2l1.4 1.2c.4.4 1 1.2 1.6 2.3l1.7 2.8h-3.4l-2-3.2-1.4-2-.9-.6-1.4-.2h-.6v5.8H233z" fill="#309e3a"/><path d="M236 190.5h2c1.4 0 2.3 0 2.6-.2.3 0 .6-.3.8-.5s.3-.7.3-1c0-.6-.1-1-.4-1.2-.2-.3-.6-.5-1-.6h-2l-2.3-.1v3.6z" fill="#fff"/></g><g stroke-opacity=".5"><path d="M249 185.2l5.1.2c1.2.1 2 .2 2.7.5a4.7 4.7 0 0 1 2 1.3c.6.7 1 1.5 1.2 2.4.3.9.4 2 .3 3.3 0 1.2-.2 2.2-.5 3-.4 1-1 1.8-1.7 2.4a5 5 0 0 1-2 1c-.6.2-1.5.2-2.5.2l-5.3-.3.7-14z" fill="#309e3a"/><path d="M251.7 187.7l-.5 9.3H255.1c.4 0 .8-.2 1.1-.5.3-.3.6-.7.8-1.3.2-.6.4-1.5.4-2.6s0-1.9-.1-2.5c-.2-.6-.4-1-.8-1.4-.3-.3-.7-.6-1.2-.7l-2.3-.2-1.3-.1z" fill="#fff"/></g><g stroke-opacity=".5"><path d="M317.6 210.2l3.3-13.6 4.4 1 3.2 1c.7.4 1.3 1 1.6 1.9.4.8.4 1.7.2 2.8-.2.8-.5 1.5-1 2-.4.5-.9.8-1.5 1a4 4 0 0 1-1.5.4 16 16 0 0 1-3-.5l-1.7-.5-1.2 5.2-2.8-.7z" fill="#309e3a"/><path d="M323 199.6l-.8 3.8 1.5.4 2.2.3a1.9 1.9 0 0 0 1.6-1.5c0-.5 0-.9-.2-1.3a2 2 0 0 0-1-.9l-1.9-.5-1.3-.3z" fill="#fff"/></g><g stroke-opacity=".5"><path d="M330.6 214.1l4.6-13.2 5.6 2c1.5.5 2.4 1 3 1.4.5.5.9 1 1 1.8s.2 1.5 0 2.3c-.4 1-1 1.7-1.8 2.2-.8.4-1.8.5-3 .3.4.5.8 1 1 1.6.2.5.5 1.4.7 2.6l.7 3.2-3.1-1.1-1-3.6-.7-2.4c-.1-.4-.3-.7-.6-.9-.2-.2-.6-.4-1.3-.6l-.5-.2-2 5.5-2.6-.9z" fill="#309e3a"/><path d="M336 207.4l1.9.7c1.3.5 2 .7 2.4.7.4 0 .7 0 1-.3.3-.2.5-.5.6-.9.2-.4.2-.8 0-1.2-.1-.3-.4-.6-.8-.9l-2-.7-2-.7-1.2 3.3z" fill="#fff"/></g><g stroke-opacity=".5"><path d="M347 213.6a9 9 0 0 1 1.7-3.2 6.6 6.6 0 0 1 1.8-1.5c.7-.4 1.4-.6 2-.7 1 0 2 0 3.1.4 2 .6 3.4 1.7 4.2 3.3.8 1.6.8 3.5.2 5.7a7.4 7.4 0 0 1-3.4 4.5c-1.5.9-3.3 1-5.2.4-2-.7-3.4-1.8-4.2-3.3a7.3 7.3 0 0 1-.2-5.6z" fill="#309e3a"/><path d="M349.8 214.4c-.4 1.5-.5 2.8 0 3.8s1.2 1.6 2.3 2c1 .3 2 .2 3-.4 1-.5 1.6-1.6 2.1-3.1.5-1.6.5-2.8 0-3.8-.4-1-1.1-1.6-2.2-2a3.6 3.6 0 0 0-3 .4c-1 .5-1.7 1.5-2.2 3z" fill="#fff"/></g><g stroke-opacity=".5"><path d="M374.3 233.1l6.4-12.4 5.3 2.7a10 10 0 0 1 2.7 1.8c.5.6.8 1.2.8 2s0 1.5-.4 2.2c-.5 1-1.2 1.6-2 2-1 .2-2 .2-3.1-.2.4.6.6 1.2.8 1.7.2.6.3 1.5.4 2.8l.3 3.2-3-1.5-.5-3.7-.3-2.5-.5-1-1.2-.7-.5-.3-2.7 5.2-2.5-1.3z" fill="#309e3a"/><path d="M380.5 227.2l1.9 1c1.2.6 2 1 2.3 1 .3 0 .7 0 1-.2.3-.1.5-.4.7-.8.2-.4.3-.8.2-1.1-.1-.4-.3-.7-.7-1l-1.8-1-2-1-1.6 3.1z" fill="#fff"/></g><g stroke-opacity=".5"><path d="M426.1 258.7c.8-1.2 1.6-2 2.5-2.6a6.6 6.6 0 0 1 2.2-.9 5.5 5.5 0 0 1 2.2 0c1 .2 1.9.6 2.8 1.2a6.6 6.6 0 0 1 3 4.4c.3 1.8-.2 3.6-1.4 5.5a7.3 7.3 0 0 1-4.5 3.3c-1.8.4-3.5 0-5.2-1.1a6.6 6.6 0 0 1-3-4.4c-.3-1.8.2-3.6 1.4-5.4z" fill="#309e3a"/><path d="M428.6 260.3c-1 1.3-1.3 2.5-1.1 3.6.1 1 .7 2 1.6 2.5 1 .7 2 .9 3 .6 1-.3 2-1 2.9-2.4.9-1.4 1.3-2.6 1.1-3.6-.1-1-.7-1.9-1.6-2.6s-2-.8-3-.5c-1 .2-2 1-3 2.4z" fill="#fff"/></g><path d="M301.8 204.5l2.3-9.8 7.2 1.7-.3 1.6-5.3-1.2-.5 2.2 4.9 1.1-.4 1.7-4.9-1.2-.6 2.7 5.5 1.3-.4 1.6-7.5-1.7z" fill="#309e3a"/></g></svg>