<svg xmlns="http://www.w3.org/2000/svg" height="480" width="640" viewBox="0 0 640 480"><path fill="#fff" d="M150.2 0h339.6v480H150.2z"/><path fill="#bf0a30" d="M-19.6 0h169.8v480H-19.6zm509.4 0h169.8v480H489.8zM201 232l-13.2 4.5 61.3 53.8c4.7 13.9-1.6 18-5.5 25.2l66.6-8.5-1.8 67 13.8-.3-3-66.5 66.7 7.9c-4.1-8.7-7.8-13.3-4-27.3l61.4-51-10.8-3.9c-8.8-6.8 3.8-32.6 5.7-49 0 0-35.8 12.4-38.1 6l-9.2-17.6-32.5 35.8c-3.6.9-5.1-.5-6-3.5l15.1-74.8-23.8 13.4c-2 .8-4 .1-5.3-2.2l-23-46-23.6 47.7c-1.8 1.8-3.6 2-5 .8L264 130.8l13.6 74.2c-1 3-3.7 3.7-6.7 2.1l-31.2-35.3c-4 6.5-6.8 17.2-12.2 19.5-5.4 2.3-23.4-4.5-35.5-7.1 4.1 14.9 17 39.6 8.9 47.8z"/></svg>