<svg xmlns="http://www.w3.org/2000/svg" height="480" width="640" viewBox="0 0 640 480"><g fill-rule="evenodd"><path fill="#be0027" d="M0 0h640v480H0z"/><path d="M0 480l640-.3V240L0 480z" fill="#b4d7f4"/><path d="M0 0l640 .3V240L0 0z" fill="#239e46"/><path d="M186.2 360.4c-10.7 3-16.8 11.3-16.7 19.1l52.8-.2c.4-8.4-6.5-16.2-17-19.3 51.6-1 96.4-20.4 104.6-32.8-8-3.5-17.4 2.1-24 .8 15.7-7.3 63-37.9 55.3-70.7-6 18.2-24 33.3-31.8 37.4 17.7-26.9 41.8-54.8 20.9-76.4 1 12.5-8 26.3-12 27.4 10.3-28.4 20-64-2.1-87.4 2.9 8.5 1.7 32.4-2.3 33.4-1.2-19.2-4.5-59.8-24.8-59.2 6.4 5.8 9.2 21.4 9.4 37.2a57.5 57.5 0 0 0-21.1-27 118.4 118.4 0 0 0-41.5-42.2c1.8 12.7 3.3 22.7 21 35.9-9.2-.6-18.4-18.1-28.3-18.6-7.9-.4-14 7.1-26.9 2.8 1.4 4.2 7.4 6.1 8.7 9.2-2.8 2-9.3-.3-14.7-3 7.5 10 19 16 28.8 14 11.7-2.2 24.2-1 36.2 5.8-3 1.6-15 1.5-22.6.6 7 7 11.6 11.7 23.7 11.6 10.7 0 16.4-5.8 19.1-2.3 6.8 8 11.3 16 17 25.4-12.5 1.4-8.8-14-22.6-22-7.8 16.2 9 35.3 20.3 43.3.2 12.1 2 22.3 7.1 31.5 3.5 6.5 8 13.2 6.3 27.9-6.8-5-13.5-21.8-11-35.1-8.6 2.3-12 17.4-8 25 3 5.7 5 16.7 1.6 21.7-3.4 4.6-3.7 4-3.7 14a25 25 0 0 1-8.5 17.7 35.5 35.5 0 0 0 1.1-15.8c-4.2 7.2-14.9 14.6-18.2 22.4-3.3 7.7-4.1 21.2-20 24.3-20.6 4-27.7 7.6-40.8 13-1.5-10 2.9-31 11.3-29.7 8.1 1.4 33-8.6 24-29.5-1.7 6.6-7.5 13-13.9 13.3 6.9-8.8 19-18 13.1-32.8a42.5 42.5 0 0 1-16.3 18c8.4-16 1-21-9-7.6-3.9 5.1-6.1 15.4-8.5 28.5-4-10.6-3.7-24.6-8.4-36-4.8-12.3 6.5-15.5 11.8-14.5 13 3.5 34.9 3.5 33.3-18.1-5.7 7.3-15.6 9.5-26.2 7 12-8.9 21.4-25.3 8-34a31 31 0 0 1-16.9 24.1 50.7 50.7 0 0 1-.3-24.8c-5.2 5.6-9 17-12.1 30.2-.3-13 2.2-22.3 4-29.3 2.8-10.1 9.6-3.5 20-2.8 10.2.6 24-5 21.4-18.7-3.4 5.5-10.5 7.6-17.7 7 8.7-5.3 23.8-14.7 15.5-29-3.5 5.4-4.6 10-14.7 11.7 2.6-6 3-14.7 11-18-14-2.9-22.1 6.3-26.2 20.7-1.6-10-3.6-13.6-4-21 7.6-8.3 8.4-24.8-8-28.4a35 35 0 0 0 1.2 17.4c-7.7-4.6-18.5-7.1-25.8-.7 5 5.3 12.5 10 24.2 4.2-2.8 9-10 7.5-19.8 4 6 11.3 13.6 13.3 22 12 4.4 11.6 4.6 20.4-8.3 37.2.6-10.4-.1-18.2-8.4-26.7-7.2-7-13 .3-1.8 15.8-6.8-5-14.4-15-16.7-25.2-2.2 12.5-.2 27.2 6.7 35.5-3.3 3.5-7-.4-12.5-9 2 27.4 13.7 32.7 29.4 26.6.4 15 .4 28.9 1.3 47-9.1-13.2-20.7-23-27.1-25.4-2 7.3 5.5 17 9.8 22.3a86 86 0 0 1-20.5-12c-1.5 12.1 14.3 23.4 24.5 28.4-12-.5-17.3-5-25-12.4.2 33.8 36.6 27.9 43.5 22.7.8 16.6 2.1 35.9 3 52.5-10.3-1.8-9.5-5-18.3-5.7-24.5-1-43.9-29.4-50.3-50.3-1.9 3.4-.4 7-2.1 11.2-4-10.2-9-23.5-15.9-29.6 1.8 6 2 12 1.4 23.2-2.4-7.2-4.6-9.5-4.7-18 .1-6.5 6.3-11.3 6-20.5-.3-6.7-6.4-21.2-7.3-32.5-3 11.6-4.8 23.8-9.4 31 2.3-12.4 1.6-21 5.4-29.3 4.4-8.7 8.1-16.6 5.2-25.4-2.8 3.4-1.9 6.5-9 14.8-1.5-9 9.2-23.4 19.6-29.3 7.3-3.8 16.5-17.6 10.5-27-6.9 5-10 11.6-19.7 23 7-27 25-34.2 46.5-34.2 4.7 0 14.3-1.8 17-8.1-6 2.3-13.2 2.6-19.6 1.4 4.6-6.9 14.4-6 23.6-6 7.1 0 18.3-1 22.8-11.2a50.9 50.9 0 0 1-31 1.9c13.7-7 35-7.8 46-17.1-12.5-9.3-43.7 2.2-63.4 15.7 5.5-5 14.2-14 19-21.2-10.8-5.2-38 25-47.5 43-8.9 5-12.5 13-16 18.5 4.8-16.1 5.3-27.8 9.3-41C80 138 92.6 194.6 86 208.2c.8-15 .1-34.1-6-44-9.4 7.2-10.2 49.5-1.4 84.7-3.2-9.4-9.2-18.2-11.1-29.7-14 25.4 8.2 55.5 26.7 79.2-14-7.3-27.7-22.9-36.8-36 2.5 45.6 50 55 57.4 66.2-10-4.7-29.1-13.9-37.3-4.2 13.3 3 23.8 6.6 32.3 12.2 12.4 15.4 35.7 22.1 76.4 23.8z" fill="#f3e295"/></g></svg>