<svg xmlns="http://www.w3.org/2000/svg" xmlns:xlink="http://www.w3.org/1999/xlink" height="480" width="640" viewBox="0 0 640 480"><rect height="480" width="640" rx="0" ry="0" fill="#fff" fill-rule="evenodd"/><rect id="a" y="192" ry="0" rx="0" height="96" width="640" fill="#c00" fill-rule="evenodd"/><use xlink:href="#a" height="300" width="600" transform="matrix(0 .75 -1 0 560 0)"/><path d="M355.2 146.6c3-4.8 1.2-8-3.4-8.9 0 0-14.9 4.8-31 5.3-16 .5-35-4-35-4-3.5 2.1-2.7 7.2-1 10.4 0 0 16.8 5.6 36 5 12.1-.3 23.7-3.4 30.1-5.5 3.7-1.2 4.3-2.2 4.3-2.3z" fill="#ebeae3" fill-rule="evenodd" stroke="#000" stroke-width=".5"/><path d="M320 357.6l-30.9-64.2-70.9 5.4 40-58.8-40-58.8 71 5.4 30.8-64.2 30.9 64.2 70.9-5.4-40 58.8 40 58.8-71-5.4z" fill="#fff" stroke="#161111" stroke-width="1.6"/><path d="M319.5 122.2c38.8 6.4 37.4 8.2 37.4 8.2l10.1-30.2s1.1-6-1.7-9.6c-2.7-3.6-10.5-1.6-10.5-1.6s-1-4.9-4.5-6c-3.4-1.2-16 4.5-20 5.8-4 1.3-6 2.5-11.5 2.4-5.5 0-15.4-5-17.3-6-1.8-.9-4.4-1.8-6.9-1.7-2.4 0-5 .7-6.3 2.4-1.2 1.7-1.2 3.8-1.2 3.8s-2-1.2-5.3-1.2c-3.2 0-5 .4-6.5 2.1a32.4 32.4 0 0 0-3.4 6.5l3.7 8.2.2 11.3 7.5 12 36.2-6.4z" fill="#b02320" fill-rule="evenodd" stroke="#000" stroke-width="1.3"/><path d="M355.7 139.3s2 2.3 1.9 3.2c-.1.8-1 1.5-1 1.5s.6.6.5 1.5c-.2 1-1.4 1-1.4 1s.3.8-.5 1.2c-.7.4-3.8 1-3.8 1s-15-4.2-31-4.2c-16.1 0-35 5.2-35 5.2s-2-.7-2-2c-.2-1.3.1-2.2.1-2.2s-1 .2-1.3-.8c-.4-1.3.1-2.3.1-2.3s-.7.2.1-1.5c.6-1.3 1.5-1.7 1.5-1.7s16.8-6 36-6.1c19.1 0 35.8 6 35.8 6.2z" fill="#ebeae3" fill-rule="evenodd" stroke="#000" stroke-width=".5"/><path d="M276.2 101.5s-.6-2.2.8-4.1c1.4-2 4-1.8 4.7-1.4.8.4.7 1.3 1.7 1.5 1 .3 1.8-.5 1.8-.5" fill="none" stroke="#000" stroke-width="1.1"/><path d="M369.8 106.6l-5.8 12-2.3.4s-1.4-.8-5.4-.5c-2.8.2-3.7 1-3.7 1l5.2-12.1s.4 2.6 1 4.1c.8 2 3.7 3.7 3.7 3.7s.4-2.3-.4-5c-.8-3.2-2.8-7.3-2.8-7.3l10.5 3.7z" fill="#fc0" fill-opacity=".9" fill-rule="evenodd" stroke="#000" stroke-width="1.2"/><path fill="#121116" stroke="#121116" stroke-width="1.2" stroke-linejoin="round" d="M316.5 69.2h6.5v27.7h-6.5z"/><path d="M276.6 120.2l4.1 9s17.9-7 38.9-6.8c31.5.2 40.5 6.5 40.5 6.5l4.6-11.1-3.5 2-3.6 2.3-4 1.5-5-.3-4.4-3.3-2.2-4.6-3.7 3.4-6.6 1.4-6.4-1.6-5.6-7.1s-4.2 7.9-9.6 8.3c-7.7.7-12.1-3.7-12.1-3.7s-2.9 6.5-7.6 7.6c-7.5 1.9-13.7-3.5-13.8-3.5z" fill="#f6ca1f" fill-rule="evenodd" stroke="#000"/><g stroke-width="2.2"><path d="M348.4 65.6c0 2-1.5 3.5-3.3 3.5a3.4 3.4 0 0 1-3.4-3.4 3.4 3.4 0 1 1 6.7 0" fill="#eee" stroke="#1e1e1e" stroke-linejoin="round" stroke-width="1.2"/><path d="M343.5 67.4s2.7 0 3-1.2c.3-1-.2-2.5-.2-2.5s1.3 1.4 1 2.5c-.4 1.2-.8 1.4-1.7 1.7a3 3 0 0 1-2-.5z" fill="#a3afb8" fill-rule="evenodd"/><path d="M340.3 69.5c0 1.8-1.5 3.4-3.4 3.4a3.4 3.4 0 0 1-3.4-3.4 3.4 3.4 0 1 1 6.7 0" fill="#eee" stroke="#1e1e1e" stroke-linejoin="round" stroke-width="1.2"/><path d="M335.3 71.2s2.8 0 3-1.1c.3-1.1-.1-2.6-.1-2.6s1.2 1.5.9 2.6c-.4 1-.8 1.4-1.7 1.6a3 3 0 0 1-2-.5z" fill="#a3afb8" fill-rule="evenodd"/><path d="M358 63.4c0 1.9-1.6 3.4-3.4 3.4a3.4 3.4 0 0 1-3.4-3.4 3.4 3.4 0 1 1 6.7 0" fill="#eee" stroke="#1e1e1e" stroke-linejoin="round" stroke-width="1.2"/><path d="M353 65.2s2.7 0 3-1.2c.3-1.1-.2-2.5-.2-2.5s1.3 1.4 1 2.5c-.4 1.1-.8 1.4-1.7 1.6a3 3 0 0 1-2-.4z" fill="#a3afb8" fill-rule="evenodd"/><path d="M368.6 65.6c0 1.8-1.5 3.4-3.3 3.4a3.4 3.4 0 0 1-3.4-3.4c0-2 1.5-3.4 3.3-3.5 1.9 0 3.4 1.5 3.4 3.4" fill="#eee" stroke="#1e1e1e" stroke-linejoin="round" stroke-width="1.2"/><path d="M363.7 67.3s2.7 0 3-1.1c.3-1.2-.2-2.6-.2-2.6s1.3 1.4 1 2.6c-.4 1-.8 1.3-1.7 1.6a3 3 0 0 1-2.1-.5z" fill="#a3afb8" fill-rule="evenodd"/><path d="M376.8 72.3a3.4 3.4 0 0 1-6.7 0c0-1.9 1.4-3.4 3.3-3.4s3.4 1.5 3.4 3.3" fill="#eee" stroke="#1e1e1e" stroke-linejoin="round" stroke-width="1.2"/><path d="M371.8 74s2.8 0 3-1.1c.3-1.1-.1-2.6-.1-2.6s1.2 1.5.9 2.6c-.4 1-.7 1.4-1.7 1.6a3 3 0 0 1-2-.5z" fill="#a3afb8" fill-rule="evenodd"/><path d="M380.3 83.3a3.4 3.4 0 0 1-6.7 0c0-1.9 1.5-3.4 3.3-3.4 1.9 0 3.4 1.5 3.4 3.4" fill="#eee" stroke="#1e1e1e" stroke-linejoin="round" stroke-width="1.2"/><path d="M375.4 85s2.7 0 3-1.1c.2-1.1-.2-2.5-.2-2.5s1.3 1.4.9 2.5c-.4 1-.7 1.4-1.7 1.6a3 3 0 0 1-2-.5z" fill="#a3afb8" fill-rule="evenodd"/><path d="M379 94.4c0 2-1.5 3.4-3.4 3.4a3.4 3.4 0 0 1-3.3-3.3c0-2 1.5-3.5 3.3-3.5 1.9 0 3.4 1.5 3.4 3.4" fill="#eee" stroke="#1e1e1e" stroke-linejoin="round" stroke-width="1.2"/><path d="M374 96.2s2.8 0 3-1.2c.3-1-.1-2.5-.1-2.5s1.3 1.4.9 2.5-.7 1.4-1.7 1.7a3 3 0 0 1-2-.5z" fill="#a3afb8" fill-rule="evenodd"/><path d="M374 104.2c0 1.9-1.5 3.4-3.3 3.4a3.4 3.4 0 0 1-3.4-3.4 3.4 3.4 0 1 1 6.7 0" fill="#eee" stroke="#1e1e1e" stroke-linejoin="round" stroke-width="1.2"/><path d="M369.1 106s2.7 0 3-1.2c.3-1-.2-2.5-.2-2.5s1.3 1.4 1 2.5c-.4 1.1-.8 1.4-1.7 1.6a3 3 0 0 1-2-.4z" fill="#a3afb8" fill-rule="evenodd"/><path d="M332.3 72.4c0 1.9-1.5 3.4-3.3 3.4a3.4 3.4 0 0 1-3.4-3.4c0-1.9 1.5-3.4 3.3-3.4 1.9 0 3.4 1.5 3.4 3.4" fill="#eee" stroke="#1e1e1e" stroke-linejoin="round" stroke-width="1.2"/><path d="M327.4 74.2s2.7 0 3-1.2c.3-1.1-.2-2.5-.2-2.5s1.3 1.4 1 2.5c-.4 1.1-.8 1.4-1.7 1.6a3 3 0 0 1-2.1-.4z" fill="#a3afb8" fill-rule="evenodd"/><g stroke-width="2.7"><path d="M322.1 71.5c0 1.6-1.2 2.9-2.8 2.9a2.8 2.8 0 0 1-2.8-2.9c0-1.5 1.3-2.8 2.8-2.8 1.6 0 2.8 1.2 2.8 2.8" fill="#eee" stroke="#1e1e1e" stroke-linejoin="round" stroke-width="1.2"/><path d="M318 73s2.3 0 2.5-1c.3-.9-.1-2-.1-2s1 1.1.7 2c-.3 1-.6 1.2-1.3 1.4-.6.1-1.3-.1-1.8-.4z" fill="#a3afb8" fill-rule="evenodd"/></g><g stroke-width="2.7"><path d="M322.2 75c0 1.6-1.3 3-2.8 3a2.8 2.8 0 0 1-2.8-3c0-1.5 1.2-2.8 2.8-2.8 1.5 0 2.8 1.3 2.8 2.9" fill="#eee" stroke="#1e1e1e" stroke-linejoin="round" stroke-width="1.2"/><path d="M318 76.5s2.3 0 2.6-1c.2-.8-.2-2-.2-2s1 1.2.8 2c-.3 1-.6 1.2-1.4 1.4-.5.2-1.3 0-1.7-.4z" fill="#a3afb8" fill-rule="evenodd"/></g><g stroke-width="2.7"><path d="M322.4 80.3c0 1.6-1.3 2.8-2.8 2.8a2.8 2.8 0 0 1-2.9-2.8c0-1.6 1.3-2.9 2.8-2.9 1.6 0 2.9 1.3 2.9 2.9" fill="#eee" stroke="#1e1e1e" stroke-linejoin="round" stroke-width="1.2"/><path d="M318.3 81.8s2.2 0 2.5-1c.2-1-.2-2.1-.2-2.1s1 1.2.8 2c-.3 1-.6 1.3-1.4 1.4-.5.2-1.3 0-1.7-.3z" fill="#a3afb8" fill-rule="evenodd"/></g><g stroke-width="2.5"><path d="M322.7 85.8a3 3 0 0 1-3 3.1 3 3 0 0 1-3.1-3 3 3 0 0 1 3-3.2 3 3 0 0 1 3 3.1" fill="#eee" stroke="#1e1e1e" stroke-linejoin="round" stroke-width="1.2"/><path d="M318.2 87.4s2.5 0 2.7-1c.3-1-.1-2.3-.1-2.3s1.1 1.3.8 2.3c-.3 1-.7 1.2-1.5 1.4-.6.2-1.4 0-1.9-.4z" fill="#a3afb8" fill-rule="evenodd"/></g><path d="M323 93.3c0 1.8-1.5 3.4-3.4 3.4a3.4 3.4 0 0 1-3.3-3.4c0-1.9 1.5-3.4 3.3-3.4 1.9 0 3.4 1.5 3.4 3.3" fill="#eee" stroke="#1e1e1e" stroke-linejoin="round" stroke-width="1.2"/><path d="M318 95s2.8 0 3-1.1c.3-1.1-.1-2.6-.1-2.6s1.3 1.5.9 2.6c-.4 1-.7 1.4-1.7 1.6a3 3 0 0 1-2-.5z" fill="#a3afb8" fill-rule="evenodd"/><g stroke-width="2.4"><path d="M322.7 108.5a3.2 3.2 0 1 1-6.3 0c0-1.7 1.3-3.2 3-3.2 1.8 0 3.2 1.4 3.3 3.2" fill="#eee" stroke="#1e1e1e" stroke-linejoin="round" stroke-width="1.2"/><path d="M318 110.2s2.6 0 2.8-1.1c.3-1-.1-2.4-.1-2.4s1.2 1.3.8 2.4c-.3 1-.7 1.3-1.5 1.5-.6.1-1.5 0-2-.4z" fill="#a3afb8" fill-rule="evenodd"/></g><path d="M313.6 72.3c0 1.9-1.6 3.4-3.4 3.4a3.4 3.4 0 0 1-3.4-3.4 3.4 3.4 0 1 1 6.7 0" fill="#eee" stroke="#1e1e1e" stroke-linejoin="round" stroke-width="1.2"/><path d="M308.6 74s2.7 0 3-1c.3-1.2-.2-2.6-.2-2.6s1.3 1.4 1 2.5c-.4 1.1-.8 1.4-1.7 1.6a3 3 0 0 1-2-.4z" fill="#a3afb8" fill-rule="evenodd"/><path d="M305.2 69c0 1.9-1.5 3.4-3.3 3.4a3.4 3.4 0 0 1-3.4-3.4c0-1.8 1.5-3.4 3.3-3.4 1.9 0 3.4 1.5 3.4 3.4" fill="#eee" stroke="#1e1e1e" stroke-linejoin="round" stroke-width="1.2"/><path d="M300.3 70.8s2.7 0 3-1.2c.2-1-.2-2.5-.2-2.5s1.3 1.4 1 2.5c-.5 1.1-.8 1.4-1.7 1.6a3 3 0 0 1-2.1-.4z" fill="#a3afb8" fill-rule="evenodd"/><path d="M297.2 65.3c0 1.8-1.5 3.4-3.3 3.4a3.4 3.4 0 0 1-3.4-3.4c0-2 1.5-3.4 3.3-3.5 1.9 0 3.4 1.6 3.4 3.4" fill="#eee" stroke="#1e1e1e" stroke-linejoin="round" stroke-width="1.2"/><path d="M292.3 67s2.7 0 3-1.1c.3-1.1-.2-2.6-.2-2.6s1.3 1.5 1 2.6c-.4 1-.8 1.4-1.7 1.6a3 3 0 0 1-2.1-.5z" fill="#a3afb8" fill-rule="evenodd"/><path d="M288 63.3c0 1.8-1.5 3.4-3.3 3.4a3.4 3.4 0 0 1-3.4-3.4c0-2 1.5-3.4 3.4-3.4 1.8 0 3.3 1.5 3.4 3.3" fill="#eee" stroke="#1e1e1e" stroke-linejoin="round" stroke-width="1.2"/><path d="M283.1 65s2.7 0 3-1.1c.3-1.1-.2-2.6-.2-2.6s1.3 1.5 1 2.6c-.4 1-.8 1.4-1.7 1.6a3 3 0 0 1-2-.5z" fill="#a3afb8" fill-rule="evenodd"/><path d="M277.2 65.8c0 2-1.5 3.5-3.3 3.5a3.4 3.4 0 0 1-3.4-3.4 3.4 3.4 0 1 1 6.7 0" fill="#eee" stroke="#1e1e1e" stroke-linejoin="round" stroke-width="1.2"/><path d="M272.3 67.6s2.7 0 3-1.2c.3-1-.2-2.5-.2-2.5s1.3 1.4 1 2.5c-.4 1.2-.8 1.4-1.7 1.7a3 3 0 0 1-2-.5z" fill="#a3afb8" fill-rule="evenodd"/><path d="M269.6 73.5a3.4 3.4 0 0 1-6.7 0c0-1.9 1.5-3.4 3.3-3.4 1.9 0 3.4 1.5 3.4 3.4" fill="#eee" stroke="#1e1e1e" stroke-linejoin="round" stroke-width="1.2"/><path d="M264.7 75.2s2.7 0 3-1.1c.2-1.1-.2-2.5-.2-2.5s1.3 1.4.9 2.5c-.4 1-.7 1.4-1.7 1.6a3 3 0 0 1-2-.5z" fill="#a3afb8" fill-rule="evenodd"/><g><path d="M266.4 84.2c0 1.9-1.5 3.4-3.3 3.4a3.4 3.4 0 0 1-3.4-3.4c0-1.9 1.5-3.4 3.3-3.4 1.9 0 3.4 1.5 3.4 3.4" fill="#eee" stroke="#1e1e1e" stroke-linejoin="round" stroke-width="1.2"/><path d="M261.5 86s2.7-.1 3-1.2c.3-1.1-.2-2.6-.2-2.6s1.3 1.5 1 2.6c-.4 1-.8 1.4-1.7 1.6a3 3 0 0 1-2.1-.5z" fill="#a3afb8" fill-rule="evenodd"/></g><g><path d="M267.8 95.3c0 2-1.5 3.5-3.3 3.5a3.4 3.4 0 0 1-3.4-3.4 3.4 3.4 0 1 1 6.7 0" fill="#eee" stroke="#1e1e1e" stroke-linejoin="round" stroke-width="1.2"/><path d="M263 97.1s2.6 0 2.9-1.2c.3-1-.2-2.5-.2-2.5s1.3 1.4 1 2.5c-.4 1.1-.8 1.4-1.7 1.7a3 3 0 0 1-2-.5z" fill="#a3afb8" fill-rule="evenodd"/></g><g><path d="M273 105.5c0 1.8-1.5 3.4-3.3 3.4a3.4 3.4 0 0 1-3.4-3.4c0-2 1.5-3.4 3.3-3.5 1.9 0 3.4 1.5 3.4 3.4" fill="#eee" stroke="#1e1e1e" stroke-linejoin="round" stroke-width="1.2"/><path d="M268 107.2s2.8 0 3-1.2c.4-1-.1-2.5-.1-2.5s1.3 1.4 1 2.5c-.5 1.2-.8 1.4-1.7 1.7a3 3 0 0 1-2.1-.5z" fill="#a3afb8" fill-rule="evenodd"/></g><g stroke-width="2.8"><path d="M430.6 247.4c0 3.6-2.9 6.5-6.4 6.5-3.6 0-6.5-2.9-6.5-6.5s2.9-6.5 6.4-6.5c3.6 0 6.5 2.9 6.5 6.5" fill="#eee" stroke="#1e1e1e" stroke-linejoin="round" transform="matrix(.31597 -.08466 .13499 .50378 109.4 30)"/><path d="M276.3 120.7s1.7-.5 1.5-1.6c0-1.1-.7-2.4-.7-2.4s1.1 1.1 1.2 2.3c0 1-.1 1.4-.6 1.8-.3.2-1 .2-1.4-.1z" fill="#a3afb8" fill-rule="evenodd"/></g><g stroke-width="2.8"><path d="M430.6 247.4c0 3.6-2.9 6.5-6.4 6.5-3.6 0-6.5-2.9-6.5-6.5s2.9-6.5 6.4-6.5c3.6 0 6.5 2.9 6.5 6.5" fill="#eee" stroke="#1e1e1e" stroke-linejoin="round" transform="matrix(.31758 .0784 -.125 .50636 260 -40.2)"/><path d="M362.3 119.8s1.7.4 2.1-.7c.5-1 .5-2.5.5-2.5s.5 1.6 0 2.6-.8 1.3-1.4 1.4c-.4 0-1-.4-1.2-.8z" fill="#a3afb8" fill-rule="evenodd"/></g></g><path d="M316.7 53.8l.3 5.7s-6.8.6-7 1.2c-1.4 3 1.5 7 1.5 7s2.3-1.8 8-1.8c5.5 0 8.3 1.4 8.3 1.4s1.4-2.3 1.4-4c0-1.7-.6-3.4-.6-3.4l-3.6-.4h-2.5l-.2-5.8-5.6.1z" fill="#b3a192" fill-rule="evenodd" stroke="#000" stroke-width="1.2"/><path d="M326.4 62.7c0 .6-.6 1.1-1.2 1.1-.7 0-1.3-.5-1.3-1.1 0-.7.6-1.2 1.2-1.2.7 0 1.3.5 1.3 1.1m2.7.7c0 .6-.5 1.2-1.2 1.2s-1.3-.6-1.3-1.2c0-.7.6-1.2 1.3-1.2.7 0 1.2.5 1.2 1.2m-5.5-.7c0 .6-.6 1.2-1.2 1.2-.7 0-1.2-.5-1.2-1.2 0-.6.5-1.1 1.2-1.1.6 0 1.2.5 1.2 1.1m-5.6 0c0 .7-.6 1.3-1.3 1.3-.7 0-1.2-.6-1.2-1.2 0-.7.5-1.2 1.2-1.2s1.3.5 1.3 1.2m-3.1.2c0 .6-.6 1.2-1.3 1.2-.7 0-1.2-.6-1.2-1.2 0-.7.5-1.2 1.2-1.2s1.3.5 1.3 1.2m5.7-3.5c0 .6-.5 1-1 1a1 1 0 0 1-1.2-1c0-.6.5-1 1.1-1 .6 0 1 .4 1 1m0-4.7c0 .5-.4 1-1 1a1 1 0 0 1-1-1c0-.6.4-1 1-1s1 .4 1 1m0 2.5c0 .6-.4 1-1 1a1 1 0 0 1-1-1c0-.5.4-1 1-1s1 .4 1 1m-8.8 6.5c0 .7-.5 1.2-1.2 1.2-.6 0-1.2-.5-1.2-1.2 0-.6.5-1.1 1.2-1.1s1.2.5 1.2 1.1" fill="#f0ddcb" stroke="#121116" stroke-width=".6" stroke-linejoin="round"/><path d="M320.8 62.4c0 .7-.5 1.2-1.3 1.2-.7 0-1.3-.5-1.3-1.2s.6-1.3 1.3-1.3c.7 0 1.3.5 1.3 1.3" fill="#916c68" stroke="#4d3126" stroke-width=".6" stroke-linejoin="round"/><g stroke-width="2.5"><path d="M322 45.5c0 1.3-1 2.5-2.4 2.5a2.5 2.5 0 0 1-2.5-2.5c0-1.4 1-2.6 2.5-2.6 1.3 0 2.5 1.1 2.5 2.5" fill="#eee" stroke="#1e1e1e" stroke-width="1.2" stroke-linejoin="round"/><path d="M318.4 46.7s2 0 2.2-.8c.2-.8-.1-1.9-.1-1.9s1 1 .7 1.9c-.3.8-.6 1-1.3 1.2-.4.1-1.1 0-1.5-.4z" fill="#a3afb8" fill-rule="evenodd"/></g><path d="M280 130.1s2.2 2.1 2.8 4c.6 1.8 1.5 6.8 1.5 6.8s23.2-6.5 34.6-6c11.4.6 37.7 6.3 37.7 6.3l1-5.7c.5-3 2.7-6.3 2.7-6.3s-25.2-7.8-41-7c-15.9.7-23.8 2.4-27.3 3.5-3.6 1.1-12.3 4.5-12 4.4z" fill="#fc0" fill-rule="evenodd" stroke="#000" stroke-width=".5"/><path d="M314.7 36h10s-2.5 1.8-3 3.4c-.4 1.4-.3 3.7-.3 3.7s2.7 0 4-1c1.1-1 3.7-2.9 3.7-2.9v12.7s-2.5-2.3-4-3.1a14.4 14.4 0 0 0-3.5-1.3s0 2 .8 3.3l4.3 5.8-14.3.5s3.4-3.5 4.7-6.1c1-1.7.6-3.5.6-3.5s-2.4 0-3.6.9c-1.3.8-3.4 3.4-3.4 3.4V39.5s1 2.4 3 3.3c2 .9 3.8.4 3.8.4s.4-2.4-.4-4c-.9-1.5-2.6-3.2-2.4-3.2z" fill="#fc0" fill-rule="evenodd" stroke="#000" stroke-width="1.2"/><path d="M313.9 76.4s-7.1 0-13.2-3.6-12.3-7.4-21.3-5.3c-1.8.5-8.7 3.5-11.7 13.1-2 6.8.4 15 2.5 18.7 2.2 3.7 5.6 7.5 5.6 7.5l3.7-2.5s-9.4-8-8.2-18.2c1-10.3 6.2-12.7 6.2-12.7s6.4-5 14.9-.3c8.4 4.7 16.8 6.9 16.8 6.9s7.8 1.8 8.5 1.8c.6-.1-4-5.4-3.8-5.4z" fill="#fc0" fill-rule="evenodd" stroke="#121116" stroke-width="1.2"/><path d="M274.5 115l-3.8-7.4 11.4-4.4s-2.8 3.6-3.4 6.2c-.8 3.2-.5 5.9-.5 5.9s1-.8 2.3-2.9c1-1.6 2.6-7.3 2.6-7.3l5.1 16.3s-2.6-2.6-4.5-2.9c-2-.4-4.6.3-4.6.3l-3 1-1.6-4.8z" fill="#fc0" fill-rule="evenodd" stroke="#000" stroke-width="1.2"/><path d="M326.7 76.3s7.1 0 13.2-3.7c6.1-3.6 12.2-7.3 21.3-5.2 1.8.4 8.6 3.4 11.6 13.1 2.1 6.8-.3 15-2.5 18.7-2.1 3.7-3.6 5.9-3.6 5.9l-4.4-1.6s8.1-7.3 7-17.6c-1.1-10.3-6.2-12.7-6.2-12.7s-6.4-5-14.9-.2c-8.5 4.7-16.8 6.8-16.8 6.8s-7.8 2-8.5 1.8c-.7 0 4-5.4 3.8-5.3z" fill="#fc0" fill-rule="evenodd" stroke="#121116" stroke-width="1.2"/><path fill="#fc0" stroke="#121116" stroke-width="1.2" stroke-linejoin="round" d="M323 69.3h3V97h-3zm-10-.1h3.5v27.7H313z"/><path d="M329.2 62.7c0 5-4.3 9-9.7 9-5.3 0-9.7-4-9.7-9 0-4.9 4.3-8.9 9.7-8.9 5.3 0 9.7 4 9.7 8.9" fill="#fc0" stroke="#121116" stroke-width="1.2" stroke-linejoin="round"/><path d="M311 96.7h16.6s-2 1-3.7 4c-1.6 3-1.4 5-1.4 5s2.5-.1 4.3-1.4c1.8-1.3 3.8-3.7 3.8-3.7v15.3s-1.3-2-3.3-3c-2-1.3-4.8-1.3-4.8-1.3h-5.7s-2.6.2-3.7 1a29 29 0 0 0-3.7 3.2l-.3-14.6s.8 2.6 3.5 3.6 4.2 1 4.2 1 0-3.4-1.4-5c-1.4-1.7-4.5-4-4.5-4z" fill="#fc0" fill-rule="evenodd" stroke="#000"/><path d="M320.2 108.8s2.4 5.7 5.3 8.2c1.6 1.5 6.6 2.6 8.8 2 5-1.3 8.6-5.3 8.6-5.3s-.2 4.4 3 6.9c3.1 2.4 5.6 3 8.2 2.3 2.7-.7 10-6.2 10-6.2l1.6 1.3s-4.2 4.2-8.7 6.3c-2.3 1.2-9.3.5-11.5-1.3-2.3-1.8-3.6-6.1-3.6-6.1s-1.4 2.8-4.4 3.8c-3 1-7 1-10.9-.2-2.5-.7-5.9-4.3-6.5-5.4-.6-1.2-.4-1.9-.4-1.9s-2 5.4-5.8 6.9a18.7 18.7 0 0 1-11.5.4c-3.6-1-3.9-3.1-3.9-3.1s-.2 5.7-8 7.3c-8 1.6-14.2-4.1-14.2-4.1l1.1-1.7s4.4 5 11.2 4.5c6.8-.4 9-9 9-9s3 4.4 11 4.5c7.9.1 10.2-10.3 10.2-10.3l1.4.2z" fill="#f6ca1f" fill-rule="evenodd" stroke="#000" stroke-width=".9"/><g fill="#fc0" stroke="#000" stroke-width="1.1"><path d="M300.6 112.1s0-2.7.7-3.6c.8-1.1 2-1.2 2.6-1 .7.2 1.4.8 1.3 2.8-.1 1.9-.6 2.8 0 3.6.5.7.6 1.2 1.7 1 1-.2 1.6-.5 1.3-1.5-.2-1-.5 0-.7-.8-.3-.9 1-4.6.8-6.9-.2-2.2-1-4-2.8-4.5-1.6-.4-3-.4-4.5.7-1.4 1-3.3 4.6-3.3 4.6v7.4l3-.2v-1.6z" fill-rule="evenodd"/><path d="M295 114.1s-1.2-2.5-2-3c-1.3-.7-2.3-.3-2.8 0-.6.5-1 1.4-.1 3.1.8 1.7 1.7 2.4 1.5 3.3-.3.9-.2 1.4-1.2 1.7-1.1.3-1.7.1-1.9-1-.2-1 .6 0 .4-1-.1-.8-2.8-3.7-3.5-5.9-.7-2.1-.6-4.1.8-5.2 1.3-1 2.5-1.6 4.4-1.2 1.7.4 4.8 2.9 4.8 2.9l3 6.8-2.8 1-.6-1.5z" fill-rule="evenodd"/><path d="M294.4 92.1s-3 5-2.3 8.8c.7 3.8 4.6 12 4.6 12v1l2.2-.2-.5-1.1s1-9.8.4-12.9c-.5-2.3-4.3-7.5-4.4-7.6zm4.7 22.6s1.5 1.8 3.2 2.7c2 .9 2.8.9 3.5.3.6-.4.4-2.2-.3-2.7-.6-.5-1.4-.2-1.5.3-.2.8-.4.7-1 .4-1-.4-3-1.7-3-1.7l-.9.7zm-2.3.4s-.6 2.3-1.8 3.8c-1.4 1.6-2.1 2-3 1.7-.7-.1-1.3-1.8-.9-2.6.4-.7 1.2-.8 1.5-.4.5.7.7.6 1.1 0l2-2.7 1.1.2z" fill-rule="evenodd"/><path d="M302.4 113.4c.2.6-1.8 1.5-4.3 1.9-2.5.4-4.6.2-4.8-.4 0-.6 1.9-1.5 4.4-2 2.5-.4 4.6-.2 4.7.5" stroke-linejoin="round"/></g><g fill="#fc0" stroke="#000" stroke-width="1.1"><path d="M345.6 113.2s1-2.5 2-3.1c1.1-.8 2.2-.4 2.7 0 .6.4 1 1.2.3 3-.8 1.7-1.6 2.4-1.4 3.3.3 1 .2 1.4 1.3 1.6 1.1.3 1.7.1 1.8-1 .2-1-.5 0-.4-1 0-.8 2.6-3.8 3.2-6 .6-2.2.4-4.2-1-5.3-1.4-1-2.7-1.4-4.5-.9-1.7.5-4.7 3.1-4.7 3.1l-2.6 7 2.9.9.4-1.6z" fill-rule="evenodd"/><path d="M339.7 113.1s-.2-2.7-.9-3.5c-.9-1.1-2-1.1-2.6-1-.7.3-1.4 1-1.2 2.9.2 2 .8 2.8.3 3.6-.6.8-.6 1.2-1.7 1.1-1.1 0-1.7-.4-1.5-1.4.2-1 .6 0 .8-.9.1-.8-1.3-4.5-1.2-6.8 0-2.2.8-4 2.5-4.6 1.6-.5 3-.6 4.5.5 1.5 1 3.6 4.3 3.6 4.3l.4 7.4h-3v-1.6z" fill-rule="evenodd"/><path d="M346.8 92.3s-4.4 3.6-5.2 7.4c-.7 3.8.1 12.8.1 12.8l-.3 1 2 .6v-1.2s4.4-8.8 4.9-12c.3-2.3-1.4-8.5-1.5-8.6zm-3.5 22.9s.8 2.1 2.1 3.5c1.5 1.6 2.2 1.9 3.1 1.6.7-.2 1.1-2 .7-2.6-.4-.7-1.2-.7-1.5-.3-.5.7-.7.5-1.1 0l-2.2-2.6-1.1.4zm-2.3-.5s-1.3 1.9-3 2.9c-1.9 1-2.7 1-3.5.5-.5-.3-.5-2.1.1-2.7.7-.5 1.4-.3 1.6.2.2.8.5.7 1 .4l2.8-2 1 .7z" fill-rule="evenodd"/><path d="M346.9 115c-.1.7-2.2.8-4.7.3s-4.5-1.4-4.4-2c.2-.7 2.3-.8 4.8-.3s4.4 1.4 4.3 2" stroke-linejoin="round"/></g><path d="M279 129.9s.6 2 1.7 1c1.2-1.1 17.3-7.5 40-7.5 22.6 0 37.5 6.3 38.4 6.7.9.4 1.3.8 2 0 .8-1-.7-2.3-.7-2.3s-15.8-6.7-40.4-6.6c-24.7.1-40.6 7.1-40.6 7.1s-1 .8-.3 1.6z" fill="#cca715" fill-rule="evenodd" stroke="#000" stroke-width=".5"/><path d="M307.8 139.3s.8-2 2-2.4c1-.3 2.6.7 2.6.7s-1.9-.2-2.5.2c-.5.3-.7 1.2-.7 1.2s.4-.8 1.9-.7h1.6s-2.5.3-3 1c-.6.7 2.3 1 2.3 1s-4.5 0-5-.2c-.6-.3-1-1.2-2-1-1 .4-2 1.3-2 1.3s1.1-2 1.8-2 1.2 0 1.8.3l1.2.6zm-16.7 3.6s.3-2 1.5-2.7c1-.5 2.7.2 2.7.2s-2 .2-2.5.6c-.4.4-.4 1.4-.4 1.4s.2-.8 1.7-1a68.5 68.5 0 0 0 1.6-.3s-2.4.7-2.8 1.5c-.5.8 2.5.6 2.5.6s-4.4.8-5 .7c-.7-.2-1.2-1-2.1-.6-1 .5-1.8 1.6-1.8 1.6s.8-2.1 1.5-2.3c.7-.1 1-.2 1.8 0l1.3.3zm30.9-4.3s.8-2 2-2.3c1.1-.3 2.6.8 2.6.8s-1.9-.3-2.5 0c-.5.3-.7 1.2-.7 1.2s.4-.7 1.9-.5l1.6.1s-2.5 0-3.1.8c-.6.6 2.3 1.1 2.3 1.1s-4.5-.2-5-.5c-.6-.3-1-1.2-2-1-1 .2-2 1-2 1s1.2-1.8 1.9-1.8 1.1 0 1.8.4l1.2.7zm14.1 1.6s1-1.9 2.4-2c1-.2 2.4 1 2.4 1s-1.8-.4-2.5-.2c-.6.2-.9 1-.9 1s.5-.6 2-.2l1.6.3s-2.5-.2-3.2.4c-.7.6 2.1 1.4 2.1 1.4s-4.4-.8-5-1.1c-.4-.4-.7-1.4-1.7-1.3-1 .1-2.2.9-2.2.9s1.5-1.7 2.2-1.6c.7 0 1.1.1 1.7.5l1.1.9zm14 2.5s1-1.4 2.1-1.5c.9 0 1.9 1.1 1.9 1.1s-1.5-.5-2-.4c-.5.1-.8.8-.8.8s.5-.5 1.6-.1l1.3.4s-2-.4-2.6 0c-.6.5 1.6 1.4 1.6 1.4s-3.5-1-4-1.3c-.3-.3-.4-1.1-1.2-1.1-.9 0-1.9.5-1.9.5s1.3-1.3 1.9-1.2c.5.2.9.3 1.3.6l.9.8z" fill-rule="evenodd"/><path d="M305 129.7c.4 1.7-1.6 3.5-4.4 4-2.7.6-5.3-.3-5.6-2-.3-1.6 1.6-3.5 4.4-4 2.8-.6 5.3.3 5.6 2z" fill="#0f6545" stroke="#000" stroke-width=".7" stroke-linejoin="round"/><path d="M298.8 129.4c0 .5-.4.9-1 1-.6.1-1.2-.1-1.3-.5 0-.4.4-.8 1-1 .6 0 1.2.1 1.3.5z" fill="#cecfc1"/><path d="M344.1 131.8c-.5 1.6-3 2.2-5.8 1.4-2.7-.9-4.4-2.9-4-4.5.6-1.6 3.2-2.3 5.9-1.4 2.7.8 4.5 2.8 4 4.4z" fill="#0f6545" stroke="#000" stroke-width=".7" stroke-linejoin="round"/><path d="M338.8 128.5c-.1.4-.7.6-1.3.4-.6-.2-1-.7-.9-1 .2-.5.7-.6 1.3-.5.6.2 1 .7.9 1z" fill="#cecfc1"/><path fill="#1f2d86" stroke="#000" stroke-linejoin="round" d="M314.6 126h10.1v5h-10.1z"/><path d="M318.9 127c0 .3-.5.5-1 .5s-1-.2-1-.5c0-.2.5-.4 1-.4s1 .2 1 .4z" fill="#707c8b"/><path d="M286 131l1.6 5-3 1.7s-1.5 1-3 .2c-1.4-.7-2.2-3-1.4-4 1.5-1.7 5.7-3 5.7-2.8z" fill="#9f1209" fill-rule="evenodd" stroke="#000" stroke-width=".5"/><path d="M283.3 134.6c0 .8-.6 1.5-1.4 1.5s-1.4-.7-1.4-1.5c0-.9.6-1.5 1.4-1.5s1.4.6 1.4 1.5z" fill="#8f322f"/><path d="M282 134c0 .3 0 .5-.2.7a.4.4 0 0 1-.5 0 .8.8 0 0 1-.4-.5c0-.3 0-.6.2-.7a.4.4 0 0 1 .5-.1c.2 0 .4.3.4.6z" fill="#e2a494"/><path d="M353.9 131.7l-1.7 4.4 4 2s1.7.8 2.8-.1c1-.8 1.2-2.8.4-3.7a23 23 0 0 0-5.5-2.6z" fill="#9f1209" fill-rule="evenodd" stroke="#000" stroke-width=".5"/><path d="M358.6 135.2c0 .6-.6 1-1.3 1-.7 0-1.2-.4-1.2-1 0-.5.5-1 1.2-1s1.3.5 1.3 1z" fill="#aa675d"/><path d="M357.4 135c0 .3-.1.6-.3.7a.5.5 0 0 1-.6 0 .8.8 0 0 1-.3-.6c0-.3.1-.5.3-.6a.5.5 0 0 1 .6 0c.2 0 .3.3.3.6z" fill="#e2a494"/><path d="M328.6 126.4c0 .4-.4.7-.8.7a.7.7 0 0 1-.7-.7c0-.4.3-.7.7-.7.4 0 .8.3.7.7zm4.3.2c0 .4-.4.7-.7.7a.7.7 0 0 1-.8-.7c0-.3.4-.7.8-.7.3 0 .7.4.7.7zm-2.2 1.7c0 .5-.4.9-1 .9s-.8-.4-.8-.9.4-.9.9-.9.9.4.9 1zm2 2.8c0 .4-.3.7-.7.7a.7.7 0 0 1-.7-.7c0-.4.4-.7.7-.7.4 0 .8.3.8.7zm-4.1-.5c0 .4-.3.7-.7.7a.7.7 0 0 1-.7-.7c0-.4.3-.7.7-.7.4 0 .7.3.7.7zM307.7 127.1c.1.4-.1.8-.5.8a.7.7 0 0 1-.9-.5c0-.3.2-.7.6-.8.4 0 .7.1.8.5zm4.3-.7c0 .4-.2.7-.6.8a.7.7 0 0 1-.8-.5c0-.4.2-.7.5-.8.4-.1.8.1.9.5zm-1.8 2.1c.1.5-.2 1-.6 1-.5.2-1-.1-1.1-.6-.1-.4.2-1 .7-1 .5-.1 1 .1 1 .6zm2.7 2.3c0 .3-.2.7-.5.8a.7.7 0 0 1-.9-.5c0-.4.2-.7.5-.8.4-.1.8.1.9.5zm-4.2.4c.1.4-.1.7-.5.8a.7.7 0 0 1-.9-.5c0-.3.2-.7.6-.8.4 0 .7.1.8.5zM289.5 131c.2.4 0 .8-.4 1-.3 0-.8 0-.9-.4-.1-.4 0-.8.4-1 .4 0 .8 0 1 .4zm4.2-1.3c0 .4-.1.8-.5 1-.3 0-.7-.1-.9-.5-.1-.3 0-.7.4-.9.4-.1.8 0 1 .4zm-1.5 2.4c.2.4 0 1-.5 1-.5.3-1 0-1.2-.4-.1-.4.1-1 .6-1.1.4-.2 1 0 1.1.5zm3 1.8c.1.4 0 .8-.4 1-.4 0-.8-.1-1-.4s.1-.8.5-1c.3 0 .7 0 .9.4zm-4 1c0 .4-.1.8-.5 1-.4 0-.8 0-1-.4 0-.4.1-.8.5-1 .4 0 .8 0 1 .4zM347.3 129c-.1.5-.5.7-1 .6a.8.8 0 0 1-.5-.9c0-.4.5-.6 1-.5.3 0 .6.5.5.9zm4.4 1.4c0 .4-.5.7-.9.6a.8.8 0 0 1-.6-1c.1-.3.5-.6 1-.5.4.1.6.5.5 1zm-2.7 1.2a1 1 0 0 1-1.1.7 1 1 0 0 1-.8-1.1 1 1 0 0 1 1.2-.7c.5.1.8.6.7 1.1zm1.5 3.5c-.1.4-.5.6-1 .5a.8.8 0 0 1-.5-.9c0-.4.5-.6.9-.5.4.1.7.5.6.9zm-4.2-1.6c-.1.4-.6.6-1 .5a.8.8 0 0 1-.5-.9c0-.4.5-.6.9-.5.4 0 .7.5.6.9z" fill="#f5d8bc"/><path d="M356 89s-2 1.9-4.5 1.9-3.9-1-4.6-1.6c-.8-.5.2-2 .2-2" fill="none" stroke="#000" stroke-width="1.2"/><path d="M312.9 92.8s-3.7-.7-5.3-1.2c-1.5-.5-1.1-1.5-3-1.4-1.7.1-3.5 1.4-3.1 3.2.4 1.8 1.7 2 3 1.7 1.2-.4.8-2.6-.8-2.5-1.7.2-.3 1.6-.3 1.6" fill="none" stroke="#000" stroke-width="1.1"/><path d="M287.3 90s1 1.5 3.7 1.2c2.7-.2 3.7-1.6 3.8-2.3.1-.6 0-1.8-.5-2.3-.5-.5-2.3-.7-2.3-.7" fill="none" stroke="#000"/><g stroke="#161111" stroke-width="1.6"><path d="M339.2 270.4c2.5-2.4 6.5-5.2 8.7-11 2-5.6 3-15.7 5-20.8 2.5-8.8 7.5-17.4 1.5-16.8-5.6.6-7.5 6-9.6 10-1 1.5-3.3 4.7-3.7 6.5-.1-3-1.7-11.9-2-20.8-.3-8.4 0-17-.3-20.3-.2-4.3-.2-8.3-1.2-11.4-.5-1.5-2.6-3-3.8-2.9-2.2 0-3.6 2-4 3.9l-.2 2.8c-.2 2.4 0 5.6-.2 8.3-.1 3 .2 6.2 0 9-.2 5.4-.6 10.5-.8 11.5 0-2-1-11.7-1.3-20.9l-.2-10c0-2.6 0-5.4-.2-7.4-.5-3.4-1.6-5-4-5-1.8 0-4.2 1.2-5 5-.3 2.1-.4 4.6-.3 7.4l.2 8a396 396 0 0 1-.8 24.8c0-1-1.1-6.5-1.4-13.9l-.4-9.6-.3-9.6c0-1.6-.7-6.2-3.7-6-1.7-.2-3.4 1-4 5.3-.4 2.5-.4 6.6-.5 9.9-.1 6-.4 11.4 0 16.9l.1 7.7c0 .4-.9-2.9-1.3-7.4l-.8-8.6c0-2.3-.1-5.7-.3-8.5-.2-2.1-.1-4.5-2.5-4.4-2.4.2-3.8 1-4.3 5.1-.3 2.7-.4 8.4-.5 10.5a143 143 0 0 1-1.8 21.2c-.2 2.4-1.2 5.7-1.6 9.1-.9 7.5 0 16.2 1 20.7 2 7 7 10.2 6.8 15-.3 4.8 0 13.2 0 17 0 3.8 3.3 4 10 2.5 11.2-2.3 17.3 2.4 26.4-1-1.1-10.5 1.2-16.8 1-20.6zm-6.5-24.7c2.3-6.4 5.2-8.8 8-10.2" fill="#c00"/><path d="M307.4 239.1c3.5-1.3 7-2.3 10.6-3.5 4.3-1.2 8.5-3 13-3.7a49 49 0 0 1 6.4-1M301.3 273c.4-.3 1 .2 1.4.3.6.2 1.3.4 2 .3h4c1.7 0 3-.1 4.3-1m10 .6c.5.4 1 .7 1.6.9.8.4 1.8.4 7.3 0 3.5.2 6.5-2.8 7.4-3.6" fill="none"/></g></svg>