<svg xmlns="http://www.w3.org/2000/svg" xmlns:xlink="http://www.w3.org/1999/xlink" height="480" width="640" viewBox="0 0 640 480"><defs><g id="c"><g id="b"><path fill="#fcd116" transform="rotate(18 0 -1)" d="M0-1v1h.5" id="a"/><use transform="scale(-1 1)" xlink:href="#a"/></g><use transform="rotate(72)" xlink:href="#b"/><use transform="rotate(144)" xlink:href="#b"/><use transform="rotate(216)" xlink:href="#b"/><use transform="rotate(288)" xlink:href="#b"/></g></defs><path fill="#ce1126" d="M0 0h640v480H0z"/><path fill="#007a5e" d="M67.2 67.2h505.6v345.6H67.2z"/><path d="M67.2 67.3h505.6L67.2 412.9h505.6z" fill="#fcd116"/><circle cx="319.9" cy="240.1" r="57.6" fill="#ce1126"/><use height="100%" width="100%" xlink:href="#c" transform="matrix(52.8 0 0 52.8 320 240)"/><use height="100%" width="100%" xlink:href="#d" x="-100" transform="translate(-30.3)"/><use height="100%" width="100%" id="d" xlink:href="#c" transform="matrix(31.2 0 0 31.2 320 33.6)"/><use height="100%" width="100%" xlink:href="#d" x="100" transform="translate(30.3)"/><path d="M102.3 240.7a80.1 80.1 0 0 0 33.5 33.2 111 111 0 0 0-11.3-45l-22.2 11.8z" fill="#ce1126"/><path d="M90.1 194.7c10.4 21.7-27.1 73.7 35.4 85.9a63.3 63.3 0 0 1-10.8-41.9c13.2 5 27 19.6 32.5 30.8 16.4-59.5-42-55.8-57.1-74.8z" fill="#fcd116"/><use transform="translate(-30.3 414.6)" x="-100" xlink:href="#d" width="100%" height="100%"/><use transform="matrix(31.2 0 0 31.2 320 448.2)" xlink:href="#c" width="100%" height="100%"/><use transform="translate(30.3 414.6)" x="100" xlink:href="#d" width="100%" height="100%"/></svg>