<svg xmlns="http://www.w3.org/2000/svg" height="480" width="640" viewBox="0 0 640 480"><defs><clipPath id="a"><path fill-opacity=".7" d="M-89 0h682.6v512H-89z"/></clipPath></defs><g clip-path="url(#a)" transform="translate(83.5) scale(.94)"><path fill-rule="evenodd" fill="#ba0000" d="M618 512h-731.4V0H618z"/><path d="M241.9 247.8s-51.6-22.2-44.2-79.8c7.1-27.7 19.8-46.6 42.7-56.9 10.8-3.3 21.8-4.8 33-5.7-3 2.8-5.4 5.5-6.7 9-2.4 6.3-.6 12.4 2.7 18.5 4.1 7 6.6 14.2 7.4 23.6 1.5 13.2-4.2 26-14.6 33.7-6.6 5.1-14.4 6.9-20.8 12.7-5 4.8-8 9.7-9 18.1-.2 16.1 4.1 18.4 9.5 26.8z" fill-rule="evenodd" fill="#fff"/><path d="M232 164.5v-.3" fill-rule="evenodd" stroke="#000" stroke-width="2.2" fill="#ba0000"/><path d="M235.3 241.8c-20-17.7-18.3-62.4-3-77.3" stroke="#ba0000" stroke-width="2.2" fill="none"/><path fill-rule="evenodd" fill="#ba0000" d="M244.6 154.5l3.3 5.5-6-2.5-4.7 5 .8-6.5-6-2.5 6.5-1.5.8-6.5 3.3 5.6 6.6-1.5"/><path d="M246.3 244s6-55.9 63.3-65.7c28.6-1.2 50.4 5.3 67 24.3 6.3 9.3 10.9 19.4 15 29.8-3.4-2-6.8-3.5-10.6-3.7-6.7-.5-12 3-16.8 7.9a53.1 53.1 0 0 1-20.4 14 36.6 36.6 0 0 1-36.5-4c-6.8-4.9-10.8-11.8-18.2-16.2-6.1-3.3-11.7-4.8-20-3.4-15.5 4.6-16.3 9.4-22.8 17z" fill-rule="evenodd" fill="#fff"/><path d="M323 210.2h.3" fill-rule="evenodd" stroke="#000" stroke-width="2.2" fill="#ba0000"/><path d="M250 236c11.2-24.4 54.4-35.8 73.1-25.6" stroke="#ba0000" stroke-width="2.2" fill="none"/><path fill-rule="evenodd" fill="#ba0000" d="M336.3 219.3L332 224l.6-6.6-6-3 6.3-1 .6-6.7 3.4 6 6.4-1.2-4.3 4.7 3.3 6"/><path d="M250.1 248s55-12 82.4 39.3c10.3 26.7 11 49.4-1.7 71.1-6.8 9-15 16.5-23.5 23.8.8-4 1.1-7.6.1-11.2-1.6-6.6-6.6-10.5-12.8-13.5a53.1 53.1 0 0 1-19.8-15 36.6 36.6 0 0 1-7.7-35.8c2.4-8 7.7-14 9.5-22.4 1.2-6.8.9-12.5-3.1-20-9.3-13.2-14.1-12.5-23.4-16.3z" fill-rule="evenodd" fill="#fff"/><path d="M306.5 310.1l.2.2" fill-rule="evenodd" stroke="#000" stroke-width="2.2" fill="#ba0000"/><path d="M259 249c26.6 2.9 51.1 40.2 47.4 61.3" stroke="#ba0000" stroke-width="2.2" fill="none"/><path fill-rule="evenodd" fill="#ba0000" d="M302.1 325.6l-5.9-2.6 6.5-1.5.8-6.7 3.1 5.7 6.5-1.5-4.5 5 3 5.7-5.8-2.6-4.5 5.1"/><path d="M248.9 253.7s26.9 49.3-14.5 90c-22.8 17.5-44.4 24.5-68.8 18.4-10.5-4-20-9.7-29.5-15.9 4-.3 7.7-1 10.9-3 5.8-3.4 8.1-9.3 9.3-16 1-8.1 3.6-15.4 8.8-23.2a36.6 36.6 0 0 1 32.2-17.6c8.4.1 15.6 3.6 24.2 3 6.9-.8 12.3-2.8 18.4-8.8 10-12.5 8-17 9-27z" fill-rule="evenodd" fill="#fff"/><path d="M205.1 325.3l-.1.2" fill-rule="evenodd" stroke="#000" stroke-width="2.2" fill="#ba0000"/><path d="M250.3 262.4c4.9 26.4-24.1 60.5-45.4 62.7" stroke="#ba0000" stroke-width="2.2" fill="none"/><path fill-rule="evenodd" fill="#ba0000" d="M189 325.4l.9-6.4 3.3 5.8 6.6-1-4.6 4.5 3.3 5.7-6.1-2.9-4.6 4.6.8-6.4-6.1-2.9"/><g><path d="M242.8 252.6S205.2 294.4 153 269C129 253.2 115.2 235 113 210c.3-11.3 2.4-22.1 5.1-33 1.7 3.6 3.6 6.8 6.5 9.2 5.2 4.3 11.5 4.5 18.3 3.4a53 53 0 0 1 24.7.6 36.6 36.6 0 0 1 27.3 24.6c2.7 7.9 1.8 15.8 5.3 23.8 3 6.2 6.6 10.6 14.3 14.4 15.2 5.3 18.7 1.9 28.4-.5z" fill-rule="evenodd" fill="#fff"/><path d="M160.7 235.1h-.2" fill-rule="evenodd" stroke="#000" stroke-width="2.2" fill="#ba0000"/><path d="M235 256.9c-23.2 13.3-65-2.7-74.2-22" stroke="#ba0000" stroke-width="2.2" fill="none"/><path fill-rule="evenodd" fill="#ba0000" d="M155.3 220l6.3-1.3-4.3 5 3.1 5.9-5.8-2.8-4.3 5 .7-6.8-5.9-2.8 6.3-1.3.7-6.8"/></g></g></svg>