<svg xmlns="http://www.w3.org/2000/svg" height="480" width="640" viewBox="0 0 640 480"><path fill="#c4272f" d="M0 0h640v480H0z"/><path fill="#015197" d="M213.3 0h213.4v480H213.3z"/><circle cx="107" cy="189.1" r="35" fill="#f9cf02"/><circle cx="107" cy="173.1" r="38.2" fill="#c4272f"/><path d="M91.1 131.8a15.9 15.9 0 0 0 31.8 0c0-6.4-4-7.1-4-9.5 0-2.4 2.4-5.6-2.4-9.6 2.4 4-1.6 4.8-1.6 8.8 0 4 1.6 4 1.6 7.1a3.2 3.2 0 0 1-6.3 0c0-3.1 3.2-6.3 3.2-11 0-4.9-.8-6.4-3.2-10.4-2.4-4-6.4-7.2-3.2-10.3-4.8 1.5-2.4 7.9-2.4 11.9s-3.2 6.3-3.2 11c0 4.9 2.4 5.7 2.4 8.8a3.2 3.2 0 0 1-6.3 0c0-3.1 1.6-3.1 1.6-7.1 0-4-4-4.8-1.6-8.8-4.8 4-2.4 7.2-2.4 9.6 0 2.4-4 3.2-4 9.5z" fill="#f9cf02" fill-rule="evenodd"/><circle cx="107" cy="179.5" r="25.5" fill="#f9cf02"/><path d="M37 230.4v152.7h31.8V230.4zm108.2 0v152.7H177V230.4zm-70 25.5v12.7h63.6v-12.7zm0 89v12.8h63.6V345zm0-114.5h63.6L107 249.5zm0 133.7h63.6L107 383z" fill="#f9cf02"/><circle cx="107" cy="306.8" r="33.7" fill="#f9cf02" stroke="#c4272f" stroke-width="3.8"/><path d="M107 273a16.9 16.9 0 0 1 0 33.8 16.9 16.9 0 1 0 0 33.7" fill="none" stroke="#c4272f" stroke-width="3.8"/><circle r="6.4" cy="289.9" cx="107" fill="#c4272f"/><circle r="6.4" cy="323.6" cx="107" fill="#c4272f"/></svg>