<svg xmlns="http://www.w3.org/2000/svg" xmlns:xlink="http://www.w3.org/1999/xlink" height="480" width="640" viewBox="0 0 640 480"><defs><g id="b"><g id="a"><path transform="translate(0 -.3)" d="M0 0v.5L1 0z"/><path transform="rotate(-36 .5 -.2)" d="M0 0v-.5L1 0z"/></g><use transform="scale(-1 1)" xlink:href="#a"/><use transform="rotate(72 0 0)" xlink:href="#a"/><use transform="rotate(-72 0 0)" xlink:href="#a"/><use transform="scale(-1 1) rotate(72)" xlink:href="#a"/></g><clipPath id="c"><path d="M0 0h600v300H0z"/></clipPath><clipPath id="d"><path d="M0 0l300 150H0zm300 0h300L300 150zm0 150h300v150zm0 0v150H0z"/></clipPath></defs><path d="M0 0h640v480H0z" fill="#00247d" fill-rule="evenodd"/><g transform="translate(-93 36.1) scale(.66825)"><use fill="#fff" height="100%" width="100%" xlink:href="#b" transform="matrix(45.4 0 0 45.4 900 120)"/><use fill="#cc142b" height="100%" width="100%" xlink:href="#b" transform="matrix(30 0 0 30 900 120)"/></g><g transform="rotate(82 534.2 125) scale(.66825)"><use fill="#fff" height="100%" width="100%" xlink:href="#b" transform="rotate(-82 519 -457.7) scale(40.4)"/><use fill="#cc142b" height="100%" width="100%" xlink:href="#b" transform="rotate(-82 519 -457.7) scale(25)"/></g><g transform="rotate(82 534.2 125) scale(.66825)"><use fill="#fff" height="100%" width="100%" xlink:href="#b" transform="rotate(-82 668.6 -327.7) scale(45.4)"/><use fill="#cc142b" height="100%" width="100%" xlink:href="#b" transform="rotate(-82 668.6 -327.7) scale(30)"/></g><g transform="translate(-93 36.1) scale(.66825)"><use fill="#fff" height="100%" width="100%" xlink:href="#b" transform="matrix(50.4 0 0 50.4 900 480)"/><use fill="#cc142b" height="100%" width="100%" xlink:href="#b" transform="matrix(35 0 0 35 900 480)"/></g><path clip-path="url(#c)" d="M0 0l600 300M0 300L600 0" transform="matrix(.60681 0 0 .73139 0 0)" stroke="#fff" stroke-width="60"/><path clip-path="url(#d)" d="M0 0l600 300M0 300L600 0" transform="matrix(.60681 0 0 .73139 0 0)" stroke="#cc142b" stroke-width="40"/><path style="line-height:normal;text-indent:0;text-align:start;text-decoration-line:none;text-decoration-style:solid;text-decoration-color:#000;text-transform:none;block-progression:tb;isolation:auto;mix-blend-mode:normal" clip-path="url(#c)" d="M151.7 0v79.4H0V140h151.7v79.4h60.7V140H364V79.4H212.4V0z" color="#000" font-weight="400" font-family="sans-serif" white-space="normal" overflow="visible" fill="#fff"/><path style="line-height:normal;text-indent:0;text-align:start;text-decoration-line:none;text-decoration-style:solid;text-decoration-color:#000;text-transform:none;block-progression:tb;isolation:auto;mix-blend-mode:normal" d="M163.8 0v91.5H0v36.4h163.8v91.5h36.5V128H364V91.5H200.3V0z" color="#000" font-weight="400" font-family="sans-serif" white-space="normal" overflow="visible" fill="#cc142b"/></svg>