<svg xmlns="http://www.w3.org/2000/svg" xmlns:xlink="http://www.w3.org/1999/xlink" height="480" width="640" viewBox="0 0 640 480"><path fill="red" d="M256 0h384v480H256z"/><path fill="#060" d="M0 0h256v480H0z"/><g fill="#ff0" fill-rule="evenodd" stroke="#000" stroke-width=".6" stroke-linecap="round" stroke-linejoin="round"><path d="M339.5 306.2c-32.3-1-180-93.2-181-108l8.1-13.5c14.7 21.3 165.7 111 180.6 107.8l-7.7 13.7"/><path d="M164.9 182.8c-2.9 7.8 38.6 33.4 88.4 63.8 49.9 30.3 92.9 49 96 46.3.3-.3 1.7-2.7 1.5-2.6-.6.9-2 1.1-4.3.5-13.5-3.9-48.6-20-92.1-46.4-43.5-26.4-81.4-50.7-87.3-61-.4-.8-.7-2-.6-3.1h-.2l-1.2 2.2-.2.3zm175.3 123.8c-.5 1-1.6 1-3.5.8-12-1.3-48.6-19.1-91.9-45-50.4-30.2-92-57.6-87.4-64.8l1.2-2.2.2.1c-4 12.2 82.1 61.4 87.2 64.6 49.8 30.8 91.8 48.9 95.6 44.2l-1.4 2.3z"/><path d="M256.2 207.2c32.2-.3 72-4.4 95-13.6l-5-8c-13.5 7.5-53.6 12.4-90.3 13.2-43.4-.4-74.1-4.5-89.5-14.8l-4.6 8.6c28.2 12 57.2 14.5 94.4 14.6"/><path d="M352.5 193.8c-.8 1.3-15.8 6.4-37.8 10.2a416.1 416.1 0 0 1-114.9.7c-23-3.6-35-8.6-39.4-10.4l1.1-2.2c12.7 5 24.7 8 38.7 10.2a411.5 411.5 0 0 0 114-.7c22.6-3.7 35-8.4 36.7-10.5l1.6 2.7zm-4.4-8.1c-2.4 2-14.6 6.3-36 9.7-14.3 2-32.5 3.9-55.8 4-22 0-40.1-1.6-53.8-3.6-21.8-2.8-33.4-8-37.6-9.4l1.3-2.2c3.2 1.7 14.4 6.2 36.5 9.3 13.6 2 31.6 3.4 53.6 3.4a383 383 0 0 0 55.4-4c21.5-3 33.1-8.4 34.9-9.8l1.5 2.6zM150.3 246c19.8 10.7 63.9 16 105.6 16.5 38 0 87.4-6 105.9-15.7l-.5-10.7c-5.8 9-58.8 17.7-105.8 17.4-47-.4-90.8-7.7-105.3-17v9.5"/><path d="M362.8 244.5v2.5c-2.8 3.4-20.2 8.4-42 12a434.2 434.2 0 0 1-65.4 4.4 410 410 0 0 1-62-4.3c-25.1-3.6-41.2-10-44.4-12v-2.9c9.7 6.4 35.9 11.1 44.7 12.6a408 408 0 0 0 61.7 4.2c26.9 0 48.4-1.9 65-4.4 15.7-2.3 38-8.2 42.4-12.1zm0-9v2.5c-2.8 3.3-20.2 8.3-42 11.9a434.2 434.2 0 0 1-65.4 4.4c-25.7 0-46.2-1.8-62-4.2-25.1-3.7-41.2-10-44.4-12v-3c9.7 6.5 36 11.2 44.7 12.6 15.8 2.4 36.1 4.3 61.7 4.3 26.9 0 48.5-2 65-4.5 15.7-2.2 38-8.1 42.4-12zm-107 68.8c-45.6-.2-84.7-12.4-93-14.4l6 9.4a249.7 249.7 0 0 0 87.4 14.3c34.7-1 65-3.7 86.3-14.1l6.2-9.8c-14.5 6.9-64 14.6-93 14.6"/><path d="M344.9 297.3a143 143 0 0 1-2.8 4 243 243 0 0 1-32.7 8.5 295.6 295.6 0 0 1-53.6 4.9c-40.4-.6-73.5-8.5-89-15.3l-1.3-2.1.2-.4 2.1.9a286.5 286.5 0 0 0 88.2 14.5c18.8 0 37.5-2.1 52.6-4.8 23.2-4.7 32.6-8.2 35.5-9.8l.8-.4zm5.3-8.8a287.2 287.2 0 0 1-2 3.5c-5.4 2-20 6.2-41.3 9.2-14 2-22.7 3.8-50.6 4.3a347.3 347.3 0 0 1-94.2-14L161 289c30.3 8 61.3 13.5 95.4 14 25.5-.5 36.4-2.4 50.3-4.3 24.8-3.8 37.3-8 41-9.1a2.8 2.8 0 0 0 0-.2l2.6-1z"/><path d="M350.8 237.6c.1 30-15.3 57-27.6 68.8a99.3 99.3 0 0 1-67.8 28.2c-30.3.5-58.8-19.2-66.5-27.9-15-17-27.1-38.4-27.5-67.4 1.8-32.8 14.7-55.6 33.3-71.3a99.7 99.7 0 0 1 64.2-22.7 98.2 98.2 0 0 1 71 35.6c12.5 15.2 18 31.7 20.9 56.7zm-95.2-102.8a106 106 0 0 1 106 105.3 105.6 105.6 0 1 1-211.4 0c-.1-58 47.3-105.3 105.4-105.3"/><path d="M255.9 134.5c58.2 0 105.6 47.4 105.6 105.6 0 58.2-47.4 105.6-105.6 105.6a105.8 105.8 0 0 1-105.6-105.6c0-58.2 47.4-105.6 105.6-105.6zM152.6 240c0 56.8 46.7 103.3 103.3 103.3 56.6 0 103.3-46.5 103.3-103.3s-46.7-103.3-103.3-103.3-103.3 46.5-103.3 103.3z"/><path d="M256 143.3c53 0 96.7 43.5 96.7 96.7a97.1 97.1 0 0 1-96.7 96.8c-53 0-96.7-43.6-96.7-96.8a97.1 97.1 0 0 1 96.7-96.7zM161.6 240c0 52 42.6 94.4 94.4 94.4a94.8 94.8 0 0 0 94.4-94.4c0-52-42.6-94.4-94.4-94.4a94.8 94.8 0 0 0-94.4 94.4z"/><path d="M260.2 134h-9v212.3h9z"/><path d="M259.3 132.8h2.3v214.7h-2.2V132.8zm-9 0h2.4v214.7h-2.3V132.8z"/><path d="M361.6 244.2v-7.8l-6.4-6-36.3-9.6-52.2-5.3-63 3.2-44.8 10.6-9 6.7v7.9l22.9-10.3 54.4-8.5h52.3l38.4 4.2 26.6 6.4z"/><path d="M256 223.8c24.9 0 49 2.3 68.3 6 19.8 4 33.7 9 38.5 14.5v2.8c-5.8-7-24.5-12-39-15a364 364 0 0 0-67.9-6c-26.1 0-50.5 2.6-69.3 6.2-15 3-35.1 9-37.6 14.8v-2.9c1.4-4 16.3-10 37.3-14.3 18.9-3.7 43.3-6.1 69.6-6.1zm0-9.1c24.9 0 49.1 2.4 68.3 6.1 19.8 4 33.7 9 38.5 14.5v2.7c-5.7-6.9-24.5-12-39-14.9-19-3.7-43-6-67.8-6-26.2 0-50.5 2.5-69.2 6.2-14.6 2.7-35.5 8.9-37.8 14.7v-2.8c1.4-4 16.6-10.3 37.3-14.3 19-3.7 43.3-6.2 69.7-6.2zm-.6-46.2c39.4-.2 73.6 5.5 89.3 13.5l5.7 10c-13.6-7.4-50.6-15-94.9-14-36.1.3-74.7 4-94 14.4l6.8-11.4c15.9-8.3 53.3-12.5 87.1-12.5"/><path d="M256 176.7c22.4-.1 44 1.2 61.3 4.3 16 3 31.3 7.4 33.5 9.9l1.7 3c-5.3-3.5-18.6-7.4-35.6-10.6-17-3.2-38.7-4.3-61-4.2-25.3-.1-45 1.2-61.8 4.2a109.2 109.2 0 0 0-33.3 10.3l1.7-3.1c6-3 15.3-6.7 31.2-9.6 17.4-3.1 37.3-4.1 62.3-4.2zm0-9c21.4-.1 42.6 1 59.1 4 13 2.6 26 6.5 30.6 10l2.5 4c-4.2-4.7-20-9.2-34.1-11.6-16.4-2.9-36.7-4-58.1-4.2-22.6.1-43.4 1.5-59.5 4.4a96.8 96.8 0 0 0-29.6 9.1l2.2-3.3c5.8-3 15.2-5.8 27-8.1 16.3-3 37.2-4.3 59.9-4.4zM308.4 284a275.7 275.7 0 0 0-52.5-4c-65.5.8-86.6 13.5-89.2 17.3l-5-8c16.8-12 52.4-18.8 94.6-18.1a333 333 0 0 1 56.6 4.8l-4.5 8"/><path d="M255.6 278.9c18.2.3 36 1 53.3 4.2l-1.2 2.2c-16-3-33.2-4-52-4-24.3-.1-48.7 2.1-70 8.2-6.7 1.9-17.8 6.2-19 9.8l-1.2-2c.3-2.2 7-6.6 19.6-10 24.4-7 47.2-8.3 70.5-8.4zm.8-9.2c18.9.4 38.4 1.2 57.3 5l-1.3 2.3a299 299 0 0 0-56-4.9c-24.2 0-49.9 1.8-73.3 8.6-7.5 2.2-20.6 7-21 10.7l-1.2-2.2c.2-3.4 11.5-7.9 21.7-10.8 23.6-6.9 49.3-8.6 73.8-8.7z"/><path d="M349.4 290.5l-7.9 12.3-22.6-20.1-58.6-39.5-66.2-36.3-34.3-11.7 7.3-13.6 2.5-1.3 21.3 5.3 70.4 36.3 40.6 25.6L336 272l13.9 16z"/><path d="M158.6 195.5c6-4 50.2 15.6 96.6 43.6 46.1 28 90.3 59.6 86.3 65.5l-1.3 2.1-.6.5c.1-.1.8-1 0-3.1-2-6.5-33.4-31.5-85.3-62.8-50.6-30.2-92.8-48.4-97-43.2l1.3-2.6zM351 290.4c3.8-7.6-37.2-38.5-88.1-68.6-52-29.5-89.6-46.9-96.5-41.7L165 183c0 .1 0-.2.4-.5 1.2-1 3.3-1 4.2-1 11.8.2 45.5 15.7 92.8 42.8 20.8 12 87.6 55 87.3 67 0 1 .1 1.2-.3 1.7l1.7-2.5z"/></g><g transform="translate(0 26.7) scale(1.06667)"><path d="M180.6 211c0 16.3 6.7 31 17.5 41.8A59.1 59.1 0 0 0 299.3 211v-79.2l-118.7-.2V211z" fill="#fff" stroke="#000" stroke-width=".7"/><path d="M182.8 211.1a57 57 0 0 0 114 0v-76.7h-114V211m91-53.7v54c0 1.4 0 3-.2 4.3a34 34 0 0 1-33.8 29.7c-9.4 0-17.7-4-23.9-10.2a34 34 0 0 1-10-24v-54l68 .2z" fill="red" stroke="#000" stroke-width=".5"/><g id="e"><g id="d" fill="#ff0" stroke="#000" stroke-width=".5"><path d="M190.2 154.4c.1-5.5 4-6.8 4-6.8.1 0 4.3 1.4 4.3 6.9h-8.3" stroke="none"/><path d="M186.8 147.7l-.7 6.3h4.2c0-5.2 4-6 4-6 .1 0 4 1.1 4.1 6h4.2l-.8-6.3h-15zm-1 6.4h17c.4 0 .6.3.6.7 0 .5-.2.8-.6.8h-17c-.3 0-.6-.3-.6-.8 0-.4.3-.7.7-.7z"/><path d="M192 154c0-3.3 2.3-4.2 2.3-4.2s2.3 1 2.3 4.2H192m-5.8-9h16.3c.3 0 .6.4.6.8 0 .3-.3.7-.6.7h-16.3c-.3 0-.6-.4-.6-.7 0-.4.3-.8.6-.8zm.3 1.5h15.6c.3 0 .6.3.6.7 0 .4-.3.7-.6.7h-15.5c-.4 0-.6-.3-.6-.7 0-.4.2-.7.6-.7zm5-10.6h1.3v.9h.9v-1h1.2v1h1v-1h1.2v2c0 .4-.3.6-.5.6H192c-.3 0-.5-.2-.5-.5v-2zm4.7 2.7l.3 6.4h-4.3l.2-6.4h3.8"/><path id="a" d="M191 141.6v3.4h-4v-3.4h4z"/><use height="100%" width="100%" xlink:href="#a" x="10.6"/><path id="b" d="M186.3 139h1.2v1h.9v-1h1.2v1h.9v-1h1.2v2c0 .4-.2.6-.5.6h-4.3c-.3 0-.6-.3-.6-.6v-2z"/><use height="100%" width="100%" xlink:href="#b" x="10.6"/><path d="M193.9 140.6c0-.6.9-.6.9 0v1.5h-.9v-1.5" fill="#000" stroke="none"/><path id="c" d="M188.6 142.8c0-.6.8-.6.8 0v1.2h-.8v-1.2" fill="#000" stroke="none"/><use height="100%" width="100%" xlink:href="#c" x="10.6"/></g><use height="100%" width="100%" xlink:href="#d" y="46.3"/><use height="100%" width="100%" xlink:href="#d" transform="rotate(-45.2 312.8 180)"/></g><use height="100%" width="100%" xlink:href="#d" x="45.7"/><use height="100%" width="100%" xlink:href="#e" transform="matrix(-1 0 0 1 479.8 0)"/><g id="f" fill="#fff"><path d="M232.6 202.4a8.3 8.3 0 0 0 2.2 5.7 7.2 7.2 0 0 0 5.3 2.4c2.1 0 4-1 5.4-2.4a8.3 8.3 0 0 0 2.2-5.7v-10.7h-15v10.7" fill="#039"/><circle cx="236.1" cy="195.7" r="1.5"/><circle cx="244.4" cy="195.7" r="1.5"/><circle cx="240.2" cy="199.7" r="1.5"/><circle cx="236.1" cy="203.9" r="1.5"/><circle cx="244.4" cy="203.9" r="1.5"/></g><use height="100%" width="100%" xlink:href="#f" y="-26"/><use height="100%" width="100%" xlink:href="#f" x="-20.8"/><use height="100%" width="100%" xlink:href="#f" x="20.7"/><use height="100%" width="100%" xlink:href="#f" y="25.8"/></g></svg>