<svg xmlns="http://www.w3.org/2000/svg" height="480" width="640" viewBox="0 0 640 480"><defs><clipPath id="a"><path fill-opacity=".7" d="M0 0h682.7v512H0z"/></clipPath></defs><g fill-rule="evenodd" clip-path="url(#a)" transform="scale(.9375)" stroke-width="1pt"><path d="M0 507.2L987.4 0H0v507.2z" fill="#0000d6"/><path d="M1024 0L27.2 512H1024V0z" fill="#006000"/><path d="M1024 0h-54.9L0 485.4V512h54.9L1024 27.6V0z" fill="#fc0"/><path fill="#fff" d="M71.4 9.1l11.9 34.5h38.4L90.6 64.7l11.9 34.4L71.4 78 40.3 99.2l12-34.4L21 43.5h38.4zm191.1 0l11.9 34.5h38.5l-31.2 21.2 12 34.4L262.4 78l-31 21.3 11.8-34.4-31-21.3h38.4zm0 144.5l11.9 34.4h38.5l-31.2 21.3 12 34.4-31.2-21.3-31 21.3 11.8-34.4-31-21.3h38.4zm-95-71.4l11.9 34.4h38.5L186.7 138l12 34.4-31.2-21.3-31 21.3 11.8-34.4-31.1-21.3h38.5zm-96.1 71.4L83.3 188h38.4l-31.1 21.3 11.9 34.4-31.1-21.3-31.1 21.3 12-34.4L21 188h38.4z"/></g></svg>