<svg xmlns="http://www.w3.org/2000/svg" height="480" width="640" viewBox="0 0 640 480"><defs><clipPath id="a"><path fill-opacity=".7" d="M0 0h640v480H0z"/></clipPath></defs><g fill-rule="evenodd" clip-path="url(#a)"><path fill="#fff" d="M-20 0h720v480H-20z"/><path fill="#df0000" d="M-20 0h720v240H-20z"/><path d="M146 40.2a84.4 84.4 0 0 0 .8 165.2 86 86 0 1 1-.8-165.2z" fill="#fff"/><path fill="#fff" d="M133 110l4.9 15-13-9.2-12.8 9.4 4.8-15.2-12.9-9.3 15.9-.2 5-15 5 15h15.8zm17.5 52l5 15.1-13-9.2-12.9 9.3 4.8-15.1-12.8-9.4 15.9-.1 4.9-15.1 5 15h16zm58.5-.4l4.9 15.2-13-9.3-12.8 9.3 4.7-15.1-12.8-9.4H196l5-15.2 5 15 15.8.1zm17.4-51.6l4.9 15.1-13-9.2-12.8 9.3 4.8-15.1-12.9-9.4 16-.1 4.8-15.1 5 15h16zM180 75.7l5 15.2-13-9.3-12.9 9.3 4.8-15-12.8-9.4 15.9-.2 4.9-15 5 15h16z"/></g></svg>