<svg xmlns="http://www.w3.org/2000/svg" xmlns:xlink="http://www.w3.org/1999/xlink" height="480" width="640" viewBox="0 0 640 480"><path fill="#0f47af" d="M0 0h640v480H0z"/><path fill="#fff" d="M0 160h640v160H0z"/><g transform="matrix(.8 0 0 .8 -92.7 0)"><g fill="#fff" fill-rule="evenodd" stroke="#000" stroke-width=".3"><path d="M515 353.4c1.5 0 3.2 0 10.1-1.7 7-1.7 12.7-5.9 14-6.5 1.4-.6 3.3-.4 3.3-.4a8.4 8.4 0 0 0-5.8-2.8c-3 0-1.8 0-4.4 1.1-2.6 1-8 4.3-17 4.3h-.1c-9 0-14.7-3.3-17.2-4.3-2.6-1-1.4-1-4.4-1-3 0-5.1 1.9-6 2.7 0 0 2-.2 3.4.4 1.4.6 7.1 4.8 14 6.5 7 1.6 8.6 1.6 10.1 1.6z"/><path d="M488.4 347.4c.7-.4-.2-1.6-.2-1.6l2.7-.6c-1.3-.6-3.3-.5-3.3-.5-.5.5-.4 1-.5 1.4 0 .4 0 1 .2 1.3.3.3 1 0 1 0z"/><path d="M491 345.2l-2.8.6s.9 1.2.2 1.6l4.8-.9-2.3-1.3zm50.7 2.2c-.7-.4.1-1.6.1-1.6l-2.7-.6c1.4-.6 3.3-.5 3.3-.5.6.5.5 1 .6 1.4 0 .4 0 1-.3 1.3-.3.3-1 0-1 0z"/><path d="M539.1 345.2l2.7.6s-.8 1.2-.1 1.6l-4.8-.9 2.2-1.3z"/></g><path d="M495.8 343.3l-1.2 3 .6.3c.9.3 1.8.1 2.2-.9.4-1-.1-1.8-1-2.1l-.6-.3zm.3.6c.8.4 1.2.9.9 1.7-.3.8-1 .8-1.7.5h-.1l.9-2.2z"/><path fill-rule="evenodd" d="M497.6 347.6l-.4-.1 1.4-3 .3.1-1.3 3z"/><path d="M500.2 345.3c-.6 0-1.2.4-1.5 1-.4 1 0 1.9.8 2.3.8.3 1.8 0 2.2-1a1.7 1.7 0 0 0-.9-2.2 1.5 1.5 0 0 0-.6-.1zm0 .5h.5c.6.3.8 1 .5 1.6-.2.6-1 1-1.5.7-.5-.3-.8-1-.5-1.6.2-.4.5-.7 1-.7z"/><path d="M503.8 347.4c0-.3-.1-.4-.3-.5-.3-.1-.6 0-.7.2l.2.7.2.1c.4.3.6.7.4 1.2a1 1 0 0 1-1.3.6c-.4-.2-.7-.7-.6-1.2h.4c-.1.4 0 .7.4.9.3 0 .6-.1.7-.4.2-.4 0-.6-.3-.8l-.1-.2c-.3-.2-.5-.6-.3-1 .1-.5.7-.6 1-.5.4.2.6.4.7.8h-.4zm2.4.1l-.5 1.9c-.1.5-.1 1 .4 1.2.6.1.9-.3 1-.8l.6-1.9.3.2-.5 1.9c-.2.7-.8 1.1-1.5 1-.7-.3-1-1-.7-1.6l.6-2 .3.1zm4.4 4.5l-1.8-3-.5 2.4h-.4l.7-3.4 1.8 3 .4-2.4h.4zm.8 0l.4-3.3h.3l-.3 3.3z" fill-rule="evenodd"/><path d="M514.2 348.9c-1 0-1.7.7-1.7 1.6 0 1 .6 1.7 1.6 1.8.8 0 1.6-.7 1.6-1.7 0-.9-.6-1.7-1.5-1.7zm0 .5c.6 0 1 .6 1 1.2a1.1 1.1 0 0 1-1.1 1.2c-.6 0-1.1-.6-1.1-1.3 0-.6.5-1.2 1.1-1.2z"/><path d="M519 352.1l-2.4-2.3.1 2.4h-.4l-.2-3.4 2.5 2.4-.2-2.4h.4zm2.1-.4l-.6-3.3h.4l.6 2.8.9-.1v.3zm1.8-.4l-.8-3.2h.4l.7 3.1z" fill-rule="evenodd"/><path d="M523.9 347.7h-.4l-.4.2.9 3.1.7-.1c.5-.2 1-.6.8-1.2-.1-.4-.5-.7-.8-.6.1-.2.2-.5.1-.8-.2-.5-.5-.6-1-.6zm0 .4c.2 0 .4 0 .5.4.2.4-.1.5-.4.6h-.1l-.3-1h.1a1 1 0 0 1 .2 0zm.5 1.3c.3 0 .6 0 .6.4.2.4-.1.6-.4.6l-.3.1-.3-1h.4z"/><path d="M527.2 348l.2.3-1.2.4.4 1.2 1.2-.5.1.4-1.5.6-1.1-3.1 1.6-.6v.3l-1.1.5.3.9z" fill-rule="evenodd"/><path d="M528.6 346.2l-.8.1-.4.2 1.2 3h.3l-.4-1.4 1.4.9.5-.2-1.5-1c.4-.1.6-.6.4-1-.1-.3-.4-.6-.7-.6zm0 .4l.3.3c.2.5-.2.7-.5.8l-.5-1h.1l.5-.1z"/><path d="M529.2 345.8l1.7-.8.2.3-.7.3 1.2 2.7-.3.1-1.2-2.6-.7.3z" fill-rule="evenodd"/><path d="M532.2 344.2l.2 3.7.4-.2v-.9l1.3-.6.6.6.4-.3-2.9-2.3zm.5.9l1 .8-1 .4v-1.2zm2.6-2.2a2 2 0 0 0-1 .3l-.5.3 1.7 2.8.5-.3c.9-.5 1.3-1.4.7-2.3-.4-.6-.9-.8-1.4-.8zm.2.5c.3 0 .6.2.8.5.4.8 0 1.3-.6 1.7l-1.3-1.9h.1l1-.3z"/><g id="a" stroke-miterlimit="2.6" stroke="#000"><path d="M485 355.2c.6 0 1-.4 1-1 0-.4-.4-.8-1-.8-.4 0-.8.4-.8.9s.4.9.9.9zm-5 6.3c.5 0 .9-.4.9-1a1 1 0 0 0-1-.8 1 1 0 0 0-.9.9c0 .5.5.9 1 .9zm-12-19.9c.5 0 1-.4 1-.9a1 1 0 0 0-1-.9.9.9 0 0 0-.8 1c0 .4.3.8.9.8zm-7.3 3.7c.5 0 1-.4 1-1 0-.5-.5-1-1-1a1 1 0 0 0-1 1c0 .6.4 1 1 1zm-1.4-22.3c.6 0 1-.4 1-1 0-.5-.4-1-1-1a1 1 0 0 0-1 1 1 1 0 0 0 1 1zm-6.2 1.8a1 1 0 0 0 1-1 1 1 0 0 0-1-1 1 1 0 0 0-1 1c0 .6.5 1 1 1zm3.2-19.8c.6 0 1-.5 1-1a1 1 0 0 0-1-1 1 1 0 0 0-1 1c0 .5.4 1 1 1zm-5.5-18.3c.5 0 1-.4 1-1a1 1 0 0 0-1-1 1 1 0 0 0-1 1c0 .6.4 1 1 1zm7 1.8a1 1 0 0 0 1-1c0-.5-.4-1-1-1a1 1 0 0 0-1 1 1 1 0 0 0 1 1zm7-15.2c.5 0 1-.4 1-1 0-.5-.5-1-1-1a1 1 0 0 0-1 1c0 .6.4 1 1 1zm-5.3-4.2a1 1 0 0 0 1-1c0-.5-.5-1-1-1a1 1 0 0 0-1 1 1 1 0 0 0 1 1zm10.5-10.3a1 1 0 0 0 1-1 1 1 0 0 0-1-1 1 1 0 0 0-1 1 1 1 0 0 0 1 1zm-21.5 46.3c.6 0 1-.4 1-1s-.4-1-1-1a1 1 0 0 0-1 1c0 .6.5 1 1 1z" fill="#e60000" fill-rule="evenodd" stroke-width=".1"/><path d="M486 358.9s-.8-3.2-.7-3.9l.8-.6m-1.4 5.7s-2.8.1-3.7.4l-.3.8m-13.4-15.5s-.2-3.8.6-4c0 0 .7-.4 1.2-1m-4.7 3.8s-2.1-.3-2.7 0c0 0-.2.6-.6.8m-.8-23l-.7.5c-.8.3-2.3 4-2.3 4s-2.4-1.9-3.4-2h-1.1m-4.8-20.2s.6.6 1.2.3c0 0 3 2 3.2 2.7 0 0 3.1-3.2 3.7-2.9 0 0 .3.5 1-.1m-5.8-18.6s.3.5.9.8c0 0 1.4 2 1.4 3.4 0 0 2.5-2.2 3.3-2 0 0 .9.3 1.5 0m.3-19.5s.6.8 1 .2c0 0 1.9 2.2.8 4 0 0 2.5-.7 3.3-.3 0 0 .3 1 1.2.5" fill="none" stroke-width=".3"/><g fill="#1f601a" fill-rule="evenodd" stroke-width=".3"><path d="M532.8 378.3l-4.5-.3c-.6 0-2-2.7-2.6-3.1-.6-.5-10.8-5.5-17.5-6.5-6.6-1-16.8-5-19-6a87.8 87.8 0 0 1-26-19.2c-2.9-4.2-6-14-7.3-19.2-.6-2.5-3.9-12.4-3.9-19.2 0-7.8 1-14.3 2.2-19.4 1.1-5.1 10-20.1 15.3-26.8 0 0-12 18.7-14.2 25.9-2 7.4-2.7 16.3-2.5 21.5.1 4.2 3.6 19.6 8.7 30.9 4.1 9 7.7 10.2 14 15.2 3 2.4 8.8 6.2 13.6 8.6 4.8 2.4 15 5.4 17.8 5.9 2.7.5 16.4 4.5 18.2 5.4 1.8 1 6.5 5 7.7 6.3z"/><path d="M464.1 343.4c.3-1.4.4-2.4 1-2.9.4-.4 1.9-2.3 2.2-3.4.3-1.2 0-2.2 0-2.8l.4-2.6s-.7-2.6-1.3-3c-.6-.5-2.2-2.6-2.5-3.3 0 0 .2 1.3-.3 1.9-.4.6-.6 2.1-.6 3 0 .9.3 3 0 4-.3 1.2-.7 2.2-.4 3.5l1.5 5.6zM463.6 341.9s-3.4-4.4-3.4-6.2c0-1.8-.3-2.9-.6-3.3-.3-.4-2.3-2.7-.5-5.6.8-1.2 1-1 1.4-2.4.6-1.6 1.8-1.6 2-3.3 0 0 .4 2 .5 3.6.2 1.7-.1 2.3-.2 3.2-.2.9.4 2 .4 3.3 0 1.4-.2 1.9-.2 2.7 0 .4-.5 6.2.6 8zm38.6 23.5l-4-.5c-.7 0-2.5-.5-3.5-.9-.9-.3-2.6-1.2-4-2.8-2.8-3-2.6-4.5-3-4.6-1-.2 1.5-.4 2.7-.3 1.2.2 2.9 1 4 2 1 1.1 2.8 2.3 3.4 2.7.6.5 1 .7 1.7 1.5.7 1 .6 1.5 2.7 3z"/><path d="M506.2 367.5s-7.2-3.2-8-3.8a25 25 0 0 1-2.8-2.6c-.7-.8-3.8-2.4-4.3-3.4-.3-.7-2.3-3.3-3.4-5.4-.6-1 4.9.3 4.9.3 4.4 1.8 2.4.6 4.8 2.4 1.5 1.1 2.5 2 2.9 2.9.6 1.3 1.2 3.6 1.9 4.7.6 1.2 1.7 2.7 4 5z"/><path d="M510.2 368.4s-6-1.5-8.8-5.2c-2-2.6-2-1.8-2.8-2.7-1-1-2.5-2.2-3.8-4.5.1.3-1.7-5.9-1.7-6.6 0-.4 2.3.3 4.2 1 1.5.7 2.4 2 3.8 2.8 1.6 1 1.8 3.7 2.5 4.9 1 1.8 1.2 2.7 1.2 3.5 0 1.4.7 1.8 1.2 3 .5 1.3 2.1 1 4.2 3.8zm-9.6-2s-5.2-2.2-5.9-2.4c-.8-.1-1-.6-2.1-.9-.9-.2-1.7-.9-3.8-.4-1 .2-4.6 1-5.6.6-.9-.5 1.4 2.5 2.4 3.1a8 8 0 0 0 4.4.8h4.4c.7 0 1.2.2 2.3-.1 1-.3 1.3-.8 3.9-.7z"/><path d="M504 366.4s-5.7-1.4-6.7-1.4l-4.8.4c-1 .2-4.5-.2-5.5.4-1 .4-5.6 1-6.8.8-1.2-.3 2.4 3.2 3.9 3.6 4.6 1.3 3.2 1.2 6.2.4 1.8-.5 4.4-.6 5.4-.8.9-.1.7-.7 2-1.2 1.1-.5 3.2-1.8 6.3-2.2z"/><path d="M508.7 368.8s-5.7-2.3-10.2-1.1l-4.2 1c-1.4.1-2.6-.6-5 .4-1.2.4-6.1 2.5-7.5 2.4-1.3-.1 4 3.3 5.4 3.1 4.6-.6 9 1 11 0l4-1.5c1-.4 1.5-1.2 2.1-1.7.6-.4 1-1.6 4.4-2.6zm-30.6-13.1s-3.3-3.7-4-4.1l-3-2.4c-.6-.6-1.3-2-3.4-2.4-1-.3-3.1-.7-3.8-1.5-.6-.8.1 3 .8 4a8 8 0 0 0 3.6 2.5c1.5.5 3.3 1.5 4 1.9.6.3 1 .6 2 .8 1.1.2 1.6 0 3.8 1.2z"/><path d="M481.3 357.2s-5.6-4-6.5-4.4l-3.5-1.3c-1.1-.3-4-2.3-5-2.3-1.2 0-3.3-.1-4.3-.8-1-.8-.1 2.7 1 3.7 3.6 3.2 1.1 2.2 4.1 2.9 1.8.3 4.3 1.3 5.1 1.6 1 .3 1-.3 2.3-.2 1.3 0 3.8-.2 6.8.8z"/><path d="M482.6 358.3s-2.3-1.6-6.9-2.4c-3-.5-3-.6-4.1-1-1.4-.4-1.7-.4-4.3-.5-1.2-.1-6.2 1.5-7.4.8-1-.6 1.3 1.5 2.6 2 2 .8 1.8 2 4 2.8 2.3.7 4.7 1.6 6 1.4 1-.2 1.8-.7 3.3-.9 1.5-.1 4-2.2 6.8-2.3zm.5-1.2s1.1-5.5.1-6.8c-.4-.6-1-1.5-1.2-2.9a11 11 0 0 0-1.6-4.3c-.6-.8-1.8-4.2-1.5-5.1 0 0-3.2 3.1-3 5.1v2.4c-.2 1 .7 3.9 1.3 4.8.6 1 .3 3.7 1 4.2.5.6 4.1 3 4.9 2.6z"/><path d="M482.6 358.3c.3.1-2-1.8-3-2.3-1-.4-5.3-1.6-5.6-2.7-.3-1-3.7-4.6-3.9-5.6 0-.6-.7-2-.6-2.8.2-.8.5-2.6 1-3.6.4-1.1 1.4-3.6 2.5-4l1.2 3.8c.3 1 .6 2.3 1 2.9.5.6 2 3.4 2.1 4.5l1.1 5.3c.2.7 3 3.8 4.2 4.5zM464 343.4c.1.8-2.2-.8-3.5-.8-1.2 0-4.8.5-5.7-.4-.9-1-2.2-2.6-2.7-2.9-.5-.3-2.1-3-2.6-4.5-.4-1.5-3.6-4.2-4-4.5 0 0 4.3-.9 7 .9s3 1.4 3.5 1.6c.6.3 5.3 4.3 5.6 5.8.3 1.5 2.2 4 2.4 4.8z"/><path d="M464.1 343.4s-3.9-2.7-4.8-2.6c-1 .2-5.2-3-5.4-5-.2-1-2.2-2.5-2.6-3.1-1-1.8-1.7-5.9-3.2-7l5.2 1.3c2 .3 3.6.6 4.3 2.2.8 1.7 1.4 3 2 3.2.6.2 1.5 2.2 1.8 4.4a32 32 0 0 0 2.7 6.6zm-7.4-20.5c.7 1 .6-6 .9-6.8.3-.7 1-2.2 1.7-2.8.6-.7.6-2.7.9-3.3.3-.6.1-4.7-.3-5.8l-1.8 1.7c-.6.7-1.7 1-2 2-.3.8-.9.8-1.3 1.8-.5.9-1 2.3-.6 3.6.3 1.2.1 1.6.1 2.7 0 1 1.5 5.5 2.4 6.9z"/><path d="M456.9 323.5s-.3-2 .4-2.7c.8-.8 1.5-.8 1.8-1.2.3-.5.2-1 .5-1.7.3-.6 1-1.6 1-2 .3-1.7 1.2-3.6.5-5.3 0 0-1.7.5-2.1.8-.5.3-1.8 1.5-2 2.8-.1 1.3-.3 1.5-.7 2.2-.5.8-1 3-.4 4.4.8 1.3 1 2.7 1 2.7zm-4.4-23s-.3-4.4.9-5.8c1.2-1.3 1.5-3.9 4.2-5.3v1.9c.2.7.5 2.8 0 3.6-.4.7-2 2-2 2.7 0 .6-1 2.1-1.7 2.4l-1.4.5z"/><path d="M452.5 302.8s0-3 .9-4c.9-.9 1.4-1.4 1.8-2 .4-.6 1-2 2-2.7a10 10 0 0 0 3-2.7s.4 3.8-.6 5.8-1 3-2.3 3.4c-1.2.5-1.3.8-1.8 1-.5.4-1.2.8-1.8.8-.6 0-1.2.4-1.2.4zm3.5 20.6c.1.8.7-2-2.4-2-3.2 0-5.8-1.2-6.8-2.3l-2.1-2.3a9 9 0 0 1-1.9-3.1c0-.9-1-4.2-.9-4.8 0 0 1.7.3 2.5.9.7.6 2 .6 2.8 1 .8.5 1.4 1.7 1.9 2.1.4.5 1.7.5 2.3 1.4a15 15 0 0 1 1.9 3.8c0 .9 1.2 1.8 2 2.2.6.5.5 2.3.6 3z"/><path d="M455.6 322.1s-2-2.5-3.1-2.5c-1 0-3.7-2.7-4-4 0-1.1-1-3.4-1.6-3.9a3.6 3.6 0 0 1-1.5-3.3c.2-1.8.2-4.8.2-4.8s.6 1.8 1.5 2.3c.9.4 2.5 1 2.8 1.6.3.6 1.5.6 2 2.5.5 1.7.5 1.6.8 2.2.3.6 1 1.4 1.3 2.6.3 1.2 2 4.3 1.7 7.3zm-3-16.6c-.2.9 1.1-1.6-1.7-2.4-3-1-5-2.7-5.6-4l-1.3-2.6a9 9 0 0 1-.7-3.4c0-.8.2-4.1.5-4.6 0 0 1.4.7 2 1.5.4.7 1.7 1.1 2.3 1.7.5.6.7 1.9 1 2.5.3.5 1.5.9 1.8 1.8.3 1 .7 3.1.6 4-.1.8.6 2 1.2 2.6.5.6-.1 2.2-.2 3z"/><path d="M452.6 304.3s-1.2-2.9-2.2-3.1c-1-.4-2.5-2.8-2.6-4-.1-1.3-.3-3.4-.7-4-.5-.6-1.3-2.4-.6-4l1.6-3.8 1.3 2.2c.8 1.6 1.6 1.7 1.7 2.3.1.7 1 1 1.4 2.3.5 1.7 0 1.6 0 2.3.2.6.7 1.5.6 2.7 0 1.1.6 4.5-.5 7.1zm2.3-18.2c.1-.4 1-.9 2.1-1.2 1-.3 2.7-2.7 3.5-3.3.7-.6 1-1.6 2-2.1.9-.5 1.4-2.4 1.7-4.2l-3.3.7c-.7.2-2.2 1.1-2.8 1.9-.6.7-1.2 2-1.8 2.2-.7.3-1.4 2.1-1.4 3.3v2.7z"/><path d="M454.8 284.8l-.2-2.6c0-.9-.6-3.3.7-5.3 1-1.3 4.3-3.9 5.2-4 0 0 .6 2.4.4 3.1-.1.8-1 3.8-1.6 4.1-.7.3-2.4 4-4.5 4.7z"/><path d="M454 286.1c-.4.7-.1-2.2-1-3-1-.7-1-1.8-1-3s.2-2 .4-2.9c0-.7 2.4-3.9 2.2-4.8l1.7 3.8c.4 1-.3 2.1-.2 3 .2 1 .9 2.6.3 3.5L454 286zm8-15.5s.2-.4 1.5-.4 3.3-.2 3.9-.8a11 11 0 0 1 2.3-1.7c.6-.2 1.6-1.6 1.8-2.2.1-.6 1.2-1.8 1.6-1.8 0 0-1.6-.2-3.4.3-1.8.4-4.4 1.4-5 2.6-.6 1.1-2.7 4-2.7 4z"/><path d="M462.5 270.3c.3 1 2.8-1 3.4-1.8l1.5-2s1.4-1.7 1.8-2.4c1-1.6.7-4.6.3-4.3-.4.3-2 1.2-2.5 1.3-.5.2-1.4.5-1.7 1.2-.3.8-.6 1.8-1 2.3-.5.4-3.2 2-1.8 5.7z"/><path d="M461.6 270.3s2-1.5 2.8-2.3c1-.8.4-2 1-2.6.3-.6 1.4-2 1.1-3l-.9-3.4-1.8 1.8c-.8.8-.9 1.4-1.2 2.3-.3 1-1 1.5-1.2 2.3-.3.7 0 2.2.1 3.1.2 1 0 1.8 0 1.8z"/></g><g fill="none" stroke-width=".1"><path d="M494.8 365.2s-10-.1-10.8-1.3m16.6 2.6s-6.5 1.7-10 1.3c-3.4-.4-5.1.3-5.9.3-.7 0-4.5-1.5-4.5-1.5m27 2.2l-6 1.3c-1 .3-6.2 2.2-7.7 2.2h-5c-1.5.3-5.4 0-6.3-.4m6.2-15s3.7 2.3 4.4 3c.5.8 3.9 3.5 4.5 3.5m-9-11.1s6.5 5.6 7.6 6.3c1 .8 7.4 7 8.1 7.8M493.6 350s5.1 4 5.7 5.7c.6 1.6 2.2 3.6 2.2 3.6s2 4.2 2.8 4.8c.8.6 2.3 2.2 4.1 3.4m-44-21.3s5.4 4.6 6.9 5.4m-9.1-2.5s5.4 3.7 7.8 4.6c2.4 1 4.4 1.7 9.6 2.4m2.1 2.2s-6-.3-7 0-5.8-.8-7-1.1l-6.6-1.4m11.4-17.9s-.3 3.3.2 4.7c.4 1.3 2.6 5.2 2.4 6.2-.1.9 1.2 5 2.4 5.7m1.2-16s-1 3.3-.6 4.4c.5 1 1.2 3 1.2 4.2 0 1.2.8 3 1 3.8.4.7-.1 3.3.7 4l1.6 2.1m-36.1-26.2s4.8 1.9 5.4 3c.6 1.3 1.5 1.6 2 2.2m10.3-9.7s1.3 4.8 1 6c-.4 1.2-.4 3.7-.4 4.6 0 .9-1.3 4.5-1.2 5m-1.3-19.7l-.6 4.1c-.1 1.2 0 3.2-.3 4a14 14 0 0 0 0 6.6M449 326.2l4.8 4.2c.9 1 5 5.3 5.1 6.4.1 1 3 4.3 3.9 5m-20.5-32.4s4 3.9 4.2 4.8c.3.9 2 2.4 2.8 2.8m11.4-6s-1.5 2.3-1.5 3c0 .8-.6 2.7-1.2 3.5-.4.5-1.7 2.7-1.5 4m3-16.8l-1 3.6c-.2 1.5-1 3-1.3 4-.3.8-1.5 5.2-1 7.9m-10.4-15.7s.4 2.1 1.5 3.2c1 1 2.7 2.6 2.8 3.4.2 1 1.5 5.4 3 7 1.6 1.5 1.7 3 1.7 3m-10.5-32s.4 2.6.7 3.4c.3.7 1.5 4 2.7 5.1m9.5-7.7s-.7 2-.9 3c-.1 1-1 2-1.2 2.4l-.7 2m5.5-5.3c-.1.9-1.8 3.6-2 4-.1.5-1 2.6-1.9 3.2-.9.6-3.6 2.6-3.4 3.4m-4.4-16.5s-.2 3.3.4 4.6a37.2 37.2 0 0 1 1.7 3.9c.3.9.3 2.4.4 3.4.2 1.1.6 3 1.2 3.8m11.8-25.9l-3.2 3.5a43 43 0 0 0-5 5.8m4.6-11.6s-2.1 4.7-2.6 5.4l-.9 2m-2-7.5a52 52 0 0 0 0 7.4c.2.4-.4 3.7-.5 4.5m18-21.3s-4.8 2.9-5.5 3.6m2.7-7.3l-3.3 4.8-.8 1.4m.3-6.7s-1 2.6-1.2 3.6c-.2 1.1-1.6 4.4-2.2 5.6"/><path d="M469.2 258s-.4 1 1.4.7" stroke-width=".3"/></g></g><use height="100%" width="100%" xlink:href="#a" transform="matrix(-1 0 0 1 1030 0)"/><path d="M514.6 366.1s.7-1.8 2.2-.1c0 0 1.8 4.2.5 4.3-1.4.2-2.7.5-2.9-.3-.1-.7.2-3.9.2-3.9z" fill="#00209f" fill-rule="evenodd"/><path d="M516.5 365.5s.5-6.4 1.4-6.7c.9-.3 3.6-1.9 5.3-.5 1.6 1.4 0 8-.5 8.7-.6.6-1.5 2.4-5 2l-.4-1.6s1.8-.2 3-.8c1.2-.6 1.6-1.2 1.5-1.8-.2-1 0-4.2-1-4.6l-2.3-.7-1.7 6.5-.3-.5z" fill="#00209f" fill-rule="evenodd"/><path d="M514.4 370s-6.2 3.7-3 9l-2.1-1.3s-1.2 2.2-.2 3.4c0 0-4.2-3.8-.9-8.3 3.4-4.6 6-4.3 6-4.3l.2 1.6z" stroke-miterlimit="2.6" fill="#00209f" fill-rule="evenodd" stroke="#000" stroke-width=".2"/><path d="M514.4 367s-2.7-1.8-6.6-.7c0 0-1.7-5.6-1-7.4.2-.8.8-1 .8-1s-2-1-1.3 4.2c.6 5.3 1.6 6.7 1.6 6.7s5.2.3 6.4-.3l.1-1.4z" stroke-miterlimit="2.6" fill="#00209f" fill-rule="evenodd" stroke="#000" stroke-width=".2"/><path d="M514.4 367s-5.4-9-6.8-9c0 0-1.5-.2 2-.6 1.2-.1 3.1 0 4 1.7 1 1.6 1.7 5.5 2 6.1 0 0-1 .3-1.2 1.9z" stroke-miterlimit="2.6" fill="#00209f" fill-rule="evenodd" stroke="#000" stroke-width=".2"/><path d="M514.4 367s-3.6-1.6-4-2c-.5-.5-1.3-5.6-.8-5.3 0 0-1.5-1.7-2-1.7-.3 0-1.3.8-1 2.6.3 1.8.7 4.5 1.2 5.7 0 0 2.9-1.2 6.6.8z" stroke-miterlimit="2.6" fill="#011322" fill-rule="evenodd" stroke="#000" stroke-width=".2"/><path d="M517.7 370s2 1.3 2 3.5c0 2.3.9 6.4 2.7 7.3 0 0 .5-1.7 1-2 0 0 1.9 2.1 2.5 2.1 0 0-1-2-1-2.9 0-.9-1-4.3-2-5.2-.8-1-2.6-3-5.2-3.8v1z" stroke-miterlimit="2.6" fill="#00209f" fill-rule="evenodd" stroke="#000" stroke-width=".2"/><path d="M518.5 359.5l-1.7 6.5.5 1.4s.6-.2.9-1c.3-.7 1.2-6.3 1.7-6.5l-1.4-.4z" stroke-miterlimit="2.6" fill="#011322" fill-rule="evenodd" stroke="#000" stroke-width=".2"/><path d="M514.4 369.3s-3 1-4.1 3.2c0 0-.4-1.5 4-3.6v.4zm3.4 0s2 .8 2.6 2c0 0-2-1.3-2.6-1.5v-.5zm-3.4-1.7s-4.6.7-5.6.5c0 0 1.3.3 5.6 0v-.5zm7.4-2.8s.5 2.3.9 2.2c.4-.2 1.2-3.9 1.2-5.6 0-1.7-.7-2.1-1.4-2-.7 0-1 1.5-1 2.2l.3 3.2z" fill="#011d33" fill-rule="evenodd"/><path d="M516.8 366s1.9 4.1.5 4.4c-1.4.2.6.1-.4-2.7-.4-1.1-1-2.5-1.3-2.5 0 0 1.1.4 1.2.8z" fill="#011d33" fill-rule="evenodd"/><path d="M514.6 366.1s.7-1.8 2.2-.1c0 0 1.8 4.2.5 4.3-1.4.2-2.7.5-2.9-.3-.1-.7.2-3.9.2-3.9z" stroke-miterlimit="2.6" fill="none" stroke="#000" stroke-width=".2"/><path d="M516.5 365.5s.5-6.4 1.4-6.7c.9-.3 3.6-1.9 5.3-.5 1.6 1.4 0 8-.5 8.7-.6.6-1.5 2.4-5 2l-.4-1.6s1.8-.2 3-.8c1.2-.6 1.6-1.2 1.5-1.8-.2-1 0-4.2-1-4.6l-2.3-.7-1.7 6.5-.3-.5z" stroke-miterlimit="2.6" fill="none" stroke="#000" stroke-width=".2"/></g><g transform="matrix(.8 0 0 .8 -92.7 0)"><path d="M509.8 255.9c-.4-1-.4-7.4-.4-8.4.2-1.7 3.2-10.2 3.8-11.2.6-1 .5-1.2.7-1.8l.9-1.2c.6 1 1.1 2.8 1.2 4.1 0 0-.5 4.1-1 6-.4 1.7-1.6 4.3-1.8 4.8-.6 1.2-.5 2.4-.2 2.5l-3.2 5.2z" fill="#00209f" fill-rule="evenodd"/><path d="M515 247.3l.5.6c1.3-1.5 1.4-4.5 1.4-4.5l-.8-6s-.6 4-1 6c-.5 1.7-1.7 4.3-2 4.8-.8 2.1-.1 2.4 0 2.5l2-3.3z" fill="#fff" fill-rule="evenodd"/><path d="M515.5 247.9c1.3-1.5 1.4-4.5 1.4-4.5s1 5 .4 6c-.5 1-.5.7-.4 1.2l-1.4-2.7z" fill="#00209f" fill-rule="evenodd"/><path d="M517 250.7c-.2-.6-.2-.3.3-1.3.6-1-.4-6-.4-6l-.9-6c0-1.3-.6-3-1.2-4.1l-.9 1.2c-.2.6 0 .8-.7 1.8-.6 1-3.6 9.5-3.8 11.2 0 1 0 7.4.4 8.4" stroke-miterlimit="2.6" fill="none" stroke="#000" stroke-width=".3"/><path d="M515 234.1l-.2-1.3c0-.2.6.9 1 .7.9.3 1.9 1.5 2.1 1.8-.4.5-1.3 1.6-2 1.4-.5-.2-.4-1-.5-1.5-.1-.3-.4-.6-.4-1z" stroke-miterlimit="2.6" fill="#fc0" fill-rule="evenodd" stroke="#000" stroke-width=".1"/><path d="M515 233.3l.4.4c.2.2.4 0 .7.2.6.4.9.8 1.6 1.5M515.7 234c.8.4 1.2 1 1.8 1.7" stroke-miterlimit="2.6" fill="none" stroke="#000" stroke-width=".1"/><path d="M514 233.4l1.3-.6c.1 0-.7.8-.4 1.2 0 .9-.7 2.2-1 2.5-.6-.1-1.2-.1-1.8-1.1-.2-.4.4-.8.8-1.1.2-.2.7-.8 1.2-.9z" stroke-miterlimit="2.6" fill="#fc0" fill-rule="evenodd" stroke="#000" stroke-width=".1"/><path d="M514.9 233.2l-.3.5.1.7c-.2.7-.5 1-.9 2" stroke-miterlimit="2.6" fill="none" stroke="#000" stroke-width=".1"/><path d="M514.4 234c0 .9-.5 1.5-1 2.3h.2" stroke-miterlimit="2.6" fill="none" stroke="#000" stroke-width=".1"/><path d="M515.4 232.8c.6-.7 1.7-1.4 2.3-1l.6.6c.2.3.2.5 0 .8-.3.8-1.4.4-2 0-.2 0-.6-.4-.8-.3l-.3.1.3.1 1.8.9c.5.2 1.5-.5 1.4-1 0-.5-.9-1.5-1.3-1.5-1 0-1.8.6-2.5 1.4.2-.2.4 0 .5 0z" stroke-miterlimit="2.6" fill="#fc0" fill-rule="evenodd" stroke="#000" stroke-width=".1"/><path d="M514.9 232.8c-.6-.7-1.7-1.4-2.2-1l-.6.6c-.3.3-.3.5 0 .8.3.8 1.3.4 2 0 .1 0 .5-.4.7-.3l.4.1-.4.1-1.8.9c-.5.2-1.4-.5-1.4-1 0-.6 1-1.5 1.4-1.5 1 0 1.7.6 2.4 1.4-.1-.2-.4 0-.5 0z" stroke-miterlimit="2.6" fill="#fc0" fill-rule="evenodd" stroke="#000" stroke-width=".1"/><path d="M515 232.4c-.2-.1-.5.2-.6.3 0 .2.1.6.4.6.3.2.8 0 .9-.3 0-.4-.3-.4-.6-.6z" stroke-miterlimit="2.6" fill="#fc0" fill-rule="evenodd" stroke="#000" stroke-width=".1"/><path d="M515 226.3s.4 2.4 1.6 4c1.2 1.8-1.4 1.6-1.6 2.2 0 0-.8-1.7-1.6-2.2 0 0 1.3-2 1.7-4z" fill="#fc0" fill-rule="evenodd"/><path d="M515 226.3s.4 2.4 1.6 4c0 0-1.4 1.6-1.6 2.2 0 0-.8-1.7-1.6-2.2 0 0 1.3-2 1.7-4" stroke-miterlimit="2.6" fill="none" stroke="#000" stroke-width=".1"/><path d="M515 228.8l.7 1.8-.7.6s-.3-.6-.6-.8c0 0 .6-1 .6-1.6z" stroke-miterlimit="2.6" fill="none" stroke="#000" stroke-width=".1"/><path d="M515 344.5l-.3-.2c-.4-.2-1.2-.2-1.3-.5-1-1.1-.4-3.4 0-4.8 1-2.6 1-5 1.6-7.4.6 2.4.7 4.8 1.6 7.4.4 1.4 1.1 3.7.1 4.8-.2.3-1 .3-1.3.5l-.4.2z" fill="#fff" fill-rule="evenodd"/><path d="M515 331.5c.6 2.5.7 5 1.6 7.6.4 1.3 1 3.4.3 4.5.4 0 .7-.1 1-.3.2 0 .3 0 .4-.2l.4-.5c.3-.2.6 0 .9-.2l.1-.2c.6-.3 1-.6 1.3-1.1.1-.4.2-.9 0-1.3 0-.3 0-.5-.2-.8l-.5-1.1-.6-1.2a2.4 2.4 0 0 0-.3-.5l-.3-.6-.4-.4-.4-.3s-.3-.1-.2-.2l-.3-.1-1-2-.2-1.1H515zm0 0c-.5 2.5-.7 5-1.6 7.6-.3 1.3-1 3.4-.2 4.5-.4 0-.8-.1-1.1-.3-.1 0-.3 0-.3-.2l-.5-.5c-.2-.2-.5 0-.8-.2l-.2-.2c-.5-.3-1-.6-1.2-1.1a2.5 2.5 0 0 1-.1-1.3l.2-.8.6-1.1.6-1.2c0-.2.1-.4.3-.5l.3-.6.4-.4.4-.3.2-.2.2-.1 1-2c.2-.2.2-.8.2-1.1h1.6z" fill="#00209f" fill-rule="evenodd"/><g id="b" stroke-miterlimit="2.6" fill="none" stroke-width=".2"><path d="M514.3 331.6s-1 4-1.6 5c-.6 1.1-3 3-1.4 6" stroke="#011322"/><path d="M514.4 331.6s-1 4-1.6 5.1c-.6 1.1-3 3-1.4 6" stroke="#011d33"/><path d="M514.5 331.6s-1 4.1-1.6 5.2c-.6 1-2.9 3.1-1.3 6" stroke="#022743"/><path d="M514.6 331.6s-1 4.2-1.6 5.3c-.6 1-2.9 3-1.3 6.1" stroke="#033054"/><path d="M514.7 331.6s-1 4.3-1.6 5.3c-.6 1-2.8 3.2-1.2 6.3" stroke="#053a65"/><path d="M514.2 331.6s-1 4-1.6 5c-.6 1.1-3 3-1.4 6" stroke="#011d33"/><path d="M514 331.6s-.9 3.8-1.6 5c-.6 1-3 3-1.3 5.9" stroke="#022743"/><path d="M514 331.6s-1 3.7-1.7 5c-.6 1-3 3-1.4 5.9" stroke="#033054"/><path d="M513.8 331.6s-.8 3.6-1.6 5c-.6 1-3 3-1.4 5.9" stroke="#053a65"/><path d="M513.8 331.6s-.9 3.4-1.7 5c-.6 1-3 2.9-1.4 5.8" stroke="#00209f"/><path d="M514.8 331.6s-1 4.4-1.6 5.4c-.6 1-2.7 3.2-1.1 6.3" stroke="#00209f"/></g><use height="100%" width="100%" xlink:href="#b" transform="matrix(-1 0 0 1 1030 0)"/><path d="M518.6 335.2l.5.4.3.6.3.5.6 1.2.5 1.1.3.8a2.5 2.5 0 0 1-.1 1.3c-.2.5-.7.8-1.3 1.1l-.1.2c-.3.1-.6 0-.9.2a1.9 1.9 0 0 0-.4.5l-.3.2a3 3 0 0 1-1.1.3l-.2.3c-.2.2-1 .2-1.3.4l-.4.2-.3-.2c-.4-.2-1.2-.2-1.3-.4l-.2-.3c-.4 0-.8-.1-1.1-.3-.1 0-.3 0-.4-.2 0-.2-.2-.4-.4-.5-.2-.2-.5 0-.8-.2l-.2-.2c-.5-.3-1-.6-1.2-1.1a2.5 2.5 0 0 1-.1-1.3l.2-.8.6-1.1.6-1.2c0-.2.1-.4.3-.5l.3-.6.4-.4" stroke-miterlimit="2.6" fill="none" stroke="#000" stroke-width=".2"/><g id="c"><g fill-rule="evenodd"><path d="M487.4 293.6c-1.5-3.7-3-11.3-3-13 .3-7.1.2-9.3.9-16.5l7.3 8.3a25 25 0 0 0 0 5.5c.1.6.5 3.9 1 5.1l-6.2 10.6z" fill="#fff"/><path d="M493.6 283c-.5-1.2-.9-4.5-1-5.1a25 25 0 0 1 0-5.5l4.5 5-3.5 5.6zm-18.6 7l-.3-4.4c0-5.1-.6-8 0-13.4.4-4.2 1.5-9.8 1.3-14.4-.1-1.3.1-2.6.2-3.9l9 10.2c-.6 7.2-.5 9.4-.8 16.5 0 1.7 1.5 9.3 3 13l-2 3.2-10.4-6.9zm6.3 13.7c-.6-1-1-3.9-1.2-4.5-.3-1.5-.3-2.3-.2-5l5 3.4-3.6 6zm-14.3 24a5.2 5.2 0 0 1-1.9-2.2c-.6-1.7-.4-1.7-.9-3.6-.2-1.1-.2-2.3-.5-3.4-.2-1.2-1.8-4.8-1.8-6.2-.2-4.8-1.8-8-1.4-13.2.3-4 1.2-9.4.7-13.5l.1-3.6 10.3 6.7c-.4 6.8-.2 8.8-.2 15.4a32 32 0 0 0 3 11l-7.4 12.6zm17 3.8c1.9 1.7 5.4 2.6 6 3a11 11 0 0 0 6.3 2.4c2.3.2 3.3-.4 5.7-.7 2.8-.3-.3.1 2.3-.5 1.4-.3 1.4-.5 3.2-1 1.3-.3 2.7-.6 3.5-1.7.3-.5.6-.8.6-1.5h1.8c.2.5-.3 1.5-.5 1.8l-.5.7c-.2.6-.2.4-.7.9l-.8.6c-.4.3-.7.6-1.1.7-1.8.3-2.5.7-4.2 1.1-1.6.5-.7.4-2 .7l-2.4.7-2.4.6c-2.9.7-5.7.5-8.6.3-1.1 0-4-.7-5-1.4-1.8-1.2-5.7-1.7-7.4-2.9-.3-.2-1.4-.7-1.6-1-1.7-1.3-3-1.7-4.8-2.8H484z" fill="#00209f"/><path d="M497.7 331.5h14c-.1.7-.4 1-.7 1.5-.8 1-2.2 1.4-3.5 1.7-1.4.4-3-.4-4.4-.4-3.7-1.1-4.1-2.3-5.4-2.8z" fill="#00209f"/><path d="M497.7 331.5c1.3.6 2 1.7 5.4 2.8 1.3 0 2.8.6 4 .6-1.5.3-1.5.5-2.8.8-2.6.6.5.2-2.3.5-2.4.3-3.4 1-5.7.7a11 11 0 0 1-6.3-2.4c-.6-.4-4.1-1.3-6-3h13.7z" fill="#fff"/></g><g stroke-miterlimit="2.6" fill="none" stroke-width=".2"><path d="M476.6 259.7s1.7 15 7.6 14.4" stroke="#022743"/><path d="M484.2 274c-3 .2-4.9-3.5-6-7a46.3 46.3 0 0 1-1.5-7.3" stroke="#022847"/><path d="M484.2 274c-3-.1-4.9-3.8-5.9-7a43.6 43.6 0 0 1-1.6-7.4" stroke="#032b4c"/><path d="M484.2 274c-3-.3-4.9-4.1-5.8-7.2-1.1-3.3-1.7-7.1-1.8-7.2" stroke="#032d4f"/><path d="M484.2 273.9c-3-.5-4.9-4.4-5.8-7.2-1.1-3.2-1.7-7-1.7-7.2" stroke="#032f53"/><path d="M484.2 273.8c-3-.6-4.9-4.6-5.7-7.1-1.1-3.2-1.8-7.1-1.9-7.2" stroke="#043258"/><path d="M484.2 273.8c-2.9-.9-4.9-4.9-5.6-7.2a46 46 0 0 1-2-7.2" stroke="#04345b"/><path d="M484.3 273.7c-3-1-5-5-5.7-7.3-1-2.9-1.9-6.9-1.9-7" stroke="#04365e"/><path d="M484.3 273.7c-3-1.2-5-5.4-5.6-7.3-1.1-2.9-2-6.9-2-7.1" stroke="#043862"/><path d="M484.3 273.6c-3-1.3-5-5.6-5.6-7.3a47 47 0 0 1-2-7" stroke="#053b67"/><path d="M484.3 273.6c-3-1.6-5-6-5.5-7.4-1.1-2.7-2-6.7-2.1-7" stroke="#053d6a"/><path d="M484.3 273.5c-3-1.7-5-6.2-5.4-7.4a45.7 45.7 0 0 1-2.2-7" stroke="#053f6e"/><path d="M484.4 273.5c-3-2-5-6.4-5.5-7.5-1-2.4-2.1-6.6-2.2-7" stroke="#064172"/><path d="M476.7 259a47 47 0 0 0 2.2 6.9c.4.8 2.5 5.4 5.5 7.5" stroke="#00209f"/><path d="M476.9 256.3s4.8 12 8 10.6" stroke="#022743"/><path d="M484.8 266.9c-1.3.5-3.3-1.9-5-4.6a65.1 65.1 0 0 1-3-6" stroke="#022a49"/><path d="M484.8 266.8c-1.2.5-3.2-1.8-4.9-4.6a86 86 0 0 1-3-6" stroke="#032d4f"/><path d="M484.8 266.8c-1 .4-3.2-1.7-4.9-4.7-1.8-3.3-3-5.9-3-5.9" stroke="#033054"/><path d="M484.8 266.8c-.8.3-3.1-1.7-4.8-4.8-2-3.5-3-5.8-3-5.8" stroke="#043359"/><path d="M484.9 266.7c-.7.3-3.1-1.7-4.8-4.8l-3.1-5.8" stroke="#043760"/><path d="M484.9 266.7c-.6.3-3-1.7-4.8-4.9a749.5 749.5 0 0 0-3.1-5.8" stroke="#053a65"/><path d="M484.9 266.7c-.4.2-3-1.6-4.7-5L477 256" stroke="#053d6a"/><path d="M484.9 266.7c-.2 0-2.9-1.6-4.7-5L477 256" stroke="#064171"/><path d="M477 255.9s1 1.4 3.3 5.7c1.8 3.5 4.6 5 4.6 5m8 12.1l3.8-.7m-4-3.1l4 2.2" stroke="#00209f"/><path d="M492.5 275l4.2 2" stroke="#064171"/><path d="M492.5 275.2l4.2 2" stroke="#053e6c"/><path d="M492.5 275.4l4.2 1.8" stroke="#053b67"/><path d="M492.6 275.6l4.2 1.6" stroke="#043862"/><path d="M492.6 275.8l4.2 1.4" stroke="#04355c"/><path d="M492.6 276l4.3 1.2" stroke="#043258"/><path d="M492.6 276.1l4.3 1.2" stroke="#032f53"/><path d="M492.6 276.3l4.4 1" stroke="#032c4d"/><path d="M492.6 276.5l4.4.9" stroke="#022a49"/><path d="M492.8 278.5l3.9-.5" stroke="#064171"/><path d="M492.8 278.3l4-.4" stroke="#053e6c"/><path d="M492.8 278.1l4-.3" stroke="#053b67"/><path d="M492.8 278l4-.2" stroke="#043862"/><path d="M492.8 277.7h4" stroke="#04355c"/><path d="M492.8 277.5l4.1.2" stroke="#043258"/><path d="M492.8 277.3l4.2.3" stroke="#032f53"/><path d="M492.7 277.1l4.3.4" stroke="#032c4d"/><path d="M492.7 276.9l4.4.6" stroke="#022a49"/><path d="M492.7 276.7l4.4.7M475 277.8s.2 3.2.9 4.5c1 1.9 3.9 4.8 7.2 6.8" stroke="#022743"/><path d="M483.2 289.1a27.2 27.2 0 0 1-5.5-4.6 13.7 13.7 0 0 1-1.7-2.3c-.7-1.4-1-4.5-1-4.5" stroke="#022847"/><path d="M483.3 289.1a27.2 27.2 0 0 1-7.1-7c-.8-1.4-1.2-4.5-1.2-4.5" stroke="#032b4c"/><path d="M483.3 289.1c-2.1-1.4-4-3.4-5.3-4.7-.7-.8-1.3-1.6-1.7-2.4-.8-1.5-1.3-4.5-1.3-4.5" stroke="#032d4f"/><path d="M483.4 289c-2.1-1.3-4-3.3-5.3-4.7a13.6 13.6 0 0 1-1.7-2.4c-.8-1.5-1.4-4.4-1.4-4.4" stroke="#032f53"/><path d="M483.5 289c-2.1-1.3-4-3.5-5.3-4.8a12.8 12.8 0 0 1-3.2-6.8" stroke="#043258"/><path d="M483.6 289c-2.1-1.4-4-3.6-5.3-4.9a15.1 15.1 0 0 1-1.6-2.3c-1-1.7-1.7-4.5-1.7-4.5" stroke="#04345b"/><path d="M483.6 289c-2-1.4-4-3.7-5.1-5a14 14 0 0 1-1.7-2.3c-1-1.7-1.8-4.5-1.8-4.5" stroke="#04365e"/><path d="M483.7 289c-2-1.4-4-3.8-5.1-5a15 15 0 0 1-1.6-2.4 26 26 0 0 1-2-4.5" stroke="#043862"/><path d="M483.8 289c-2-1.5-4-4-5-5.2-.6-.5-1.2-1.4-1.7-2.3-1.1-1.8-2-4.5-2-4.5" stroke="#053b67"/><path d="M483.9 289c-2-1.5-4-4-5-5.2-.6-.6-1.1-1.5-1.7-2.4-1-1.9-2.1-4.5-2.1-4.5" stroke="#053d6a"/><path d="M484 289c-2-1.5-4-4.2-5-5.3l-1.7-2.4-2.2-4.4" stroke="#053f6e"/><path d="M484 289c-2-1.6-3.9-4.3-4.9-5.4a16 16 0 0 1-1.6-2.4l-2.4-4.4" stroke="#064172"/><path d="M475 276.7s3 5.3 4.3 6.8c1 1 2.8 4 4.8 5.5" stroke="#00209f"/><g><path d="M475.2 290l10.2 6.5 2-3-1-2.6" stroke="#011d33"/><path d="M475.2 289.9l10.2 6.5h.1l1.7-3s0-.3-.3-.8l-.6-1.6" stroke="#011e34"/><path d="M475.2 289.9c2.9 1.9 4.1 2.7 10.2 6.4l.1-.1 1.7-2.9-.3-.7a18.1 18.1 0 0 1-.6-1.6" stroke="#022037"/><path d="M475.2 289.9l10.2 6.3.1-.1 1.5-2.9-.2-.7-.5-1.5" stroke="#022139"/><path d="M475.2 289.8a210 210 0 0 0 10.2 6.3l.1-.2 1.4-2.8-.1-.7a8.2 8.2 0 0 1-.5-1.4" stroke="#02223b"/><path d="M475.3 289.8c2.5 1.7 4.6 3 10.1 6.1h.1c0-.3 1.3-2.9 1.3-3l-.1-.6a9.6 9.6 0 0 1-.4-1.3" stroke="#02233d"/><path d="M475.3 289.8c2.4 1.6 4.7 3 10.2 6v-.1l1.2-2.8v-.6l-.4-1.3" stroke="#022540"/><path d="M475.3 289.8c2.3 1.6 5 3 10.2 5.9v-.2l1.1-2.8v-.5a4.8 4.8 0 0 1-.4-1.3" stroke="#022541"/><path d="M475.3 289.8c2.3 1.5 5 3.1 10.2 5.8v-.2l1-2.8v-.5a4 4 0 0 1-.3-1.1" stroke="#022743"/><path d="M475.3 289.7c2.2 1.5 5.3 3.3 10.2 5.8v-.2c0-.3 1-2.8 1-2.8s0-.1 0-.5c-.3-.3-.3-.7-.3-1" stroke="#022847"/><path d="M475.3 289.7c2 1.4 5.4 3.4 10.2 5.6a.3.3 0 0 0 0-.1c0-.4.8-2.8.8-2.8s.2-.1 0-.4v-1" stroke="#022a49"/><path d="M475.3 289.7c2 1.3 5.6 3.4 10.2 5.5v-.2l.7-2.7s.2-.1 0-.4v-1" stroke="#032a4a"/><path d="M475.4 289.7c1.8 1.3 5.6 3.5 10 5.4l.2-.2.5-2.7s.2-.1.1-.4c-.1-.3 0-.5 0-.8" stroke="#032b4c"/><path d="M475.4 289.7a62.4 62.4 0 0 0 10.2 5l.4-2.7s.3 0 .2-.3c-.2-.3 0-.3 0-.7" stroke="#032d4f"/><path d="M475.4 289.7c1.6 1 6 3.6 10.1 5.2v-.3l.4-2.6s.3 0 .2-.3c-.1-.4 0-.4.1-.7" stroke="#032e50"/><path d="M475.4 289.6c1.6 1.1 6.2 3.7 10.1 5.1a.5.5 0 0 0 0-.2l.3-2.7.2-.2c-.1-.3 0-.3.2-.6" stroke="#032f53"/><path d="M475.4 289.6c1.5 1 6.3 3.8 10.1 5a.5.5 0 0 0 0-.2l.2-2.7s.4 0 .3-.2c-.2-.3 0-.2.1-.5" stroke="#033156"/><path d="M475.4 289.6a45 45 0 0 0 10.1 4.9l.1-.2v-2.7s.4 0 .3-.2c-.1-.2.1-.1.3-.4" stroke="#043258"/><path d="M475.4 289.6c1.3.9 6.7 4 10.1 4.7l.1-.2-.1-2.6s.4 0 .3-.2c0-.2.2 0 .3-.3" stroke="#043359"/><path d="M475.4 289.6c1.2.8 6.8 4 10.1 4.6l.1-.2-.3-2.7s.5.2.5 0c-.1-.3.2 0 .3-.3" stroke="#04355c"/><path d="M475.4 289.6c1.1.7 7 4 10.1 4.5l.1-.2c0-.7-.3-2.6-.4-2.6h.5c0-.3.2 0 .4-.3" stroke="#04365e"/><path d="M475.4 289.6a35 35 0 0 0 10.1 4.4l.1-.3c0-.6-.4-2.5-.5-2.6 0 0 .6.2.5 0 0-.1.3.2.5-.1" stroke="#043760"/><path d="M475.4 289.6c1 .5 7.3 4.2 10.1 4.3l.2-.3c0-.7-.6-2.5-.7-2.6 0 0 .6.2.5 0 0-.1.4.3.6 0" stroke="#043862"/><path d="M475.5 289.5a31 31 0 0 0 10 4.2l.2-.2c0-.8-.7-2.5-.8-2.6s.6.2.6 0c0 0 .3.4.6 0" stroke="#053a65"/><path d="M475.5 289.5c.7.5 7.6 4.4 10 4.1l.2-.3c0-.7-.8-2.4-.9-2.5l.6.1c0-.1.4.4.7 0" stroke="#053b67"/><path d="M475.5 289.5c.6.4 7.7 4.4 10 4l.2-.3c0-.8-.9-2.5-1-2.5l.7.1c0-.1.4.5.7.2" stroke="#053c68"/><path d="M475.5 289.5c.5.3 8 4.5 10 3.9a.5.5 0 0 0 .2-.3c0-.8-1-2.4-1.1-2.5l.7.1s.5.6.8.3" stroke="#053e6c"/><path d="M475.5 289.5c.4.2 8 4.6 10 3.8l.2-.3c0-1-1.1-2.5-1.2-2.6l.7.3s.6.6.9.3" stroke="#053f6e"/><path d="M475.5 289.5c.3.2 8.2 4.6 10 3.6l.2-.3c0-.8-1.2-2.4-1.3-2.5l.8.3s.5.6.9.4" stroke="#053f6f"/><path d="M475.5 289.4c.2.2 8.4 4.8 10 3.6a.7.7 0 0 0 .2-.3c0-1-1.3-2.4-1.4-2.5l.8.3s.6.7 1 .5" stroke="#064171"/><path d="M475.5 289.4c.1 0 8.6 4.8 10 3.5l.2-.3c0-1-1.4-2.4-1.5-2.5l.8.3s.7.8 1 .5" stroke="#064374"/><path d="M475.6 289.4s9.7 5.5 10.1 3c0-1-1.6-2.4-1.6-2.4l.9.3s.6 1 1 .7" stroke="#00209f"/></g><g><path d="M474.4 315.1l-7.5 12.6a5.2 5.2 0 0 1-1.8-2.2c-.6-1.7-.5-1.7-1-3.6l-.4-3.4c-.3-1.2-1.9-4.8-2-6.2" stroke="#011d33"/><path d="M461.8 312.3c0 1.4 1.6 5 1.9 6 .2 1.2.2 2.4.5 3.5.4 1.9.3 1.8 1 3.6.2.8 1.2 1.8 1.7 2.2l7.5-12.5" stroke="#011d33"/><path d="M461.8 312.3c0 1.4 1.6 5 1.8 6 .3 1.2.3 2.3.6 3.4.4 1.8.3 1.8 1 3.6.2.8 1.2 1.8 1.7 2.1l7.5-12.3" stroke="#011e34"/><path d="M461.8 312.3c0 1.4 1.6 4.9 1.8 6 .3 1 .3 2.2.6 3.3.4 1.9.3 1.8 1 3.5.2.9 1.2 1.8 1.7 2.2l7.5-12.2" stroke="#011e34"/><path d="M461.8 312.3c0 1.3 1.6 4.8 1.8 5.9.3 1.1.3 2.3.6 3.3.4 1.8.3 1.8 1 3.5.2.8 1.2 1.8 1.7 2.1l7.5-12" stroke="#011f36"/><path d="M461.8 312.3c0 1.3 1.6 4.8 1.8 5.9.3 1 .3 2.2.6 3.3.4 1.7.3 1.7 1 3.4.3.8 1.2 1.8 1.7 2.1l7.5-11.9" stroke="#011f36"/><path d="M461.8 312.3c0 1.3 1.5 4.7 1.8 5.8.3 1 .3 2.2.6 3.3.4 1.7.3 1.7 1 3.4.3.8 1.2 1.7 1.7 2 .2.1 7.4-11.6 7.5-11.7" stroke="#022037"/><path d="M461.8 312.3c0 1.3 1.5 4.6 1.8 5.7l.6 3.3c.4 1.7.4 1.7 1 3.3.3.8 1.2 1.8 1.7 2.1.2 0 7.3-11.5 7.5-11.6" stroke="#022037"/><path d="M461.8 312.3c0 1.3 1.5 4.6 1.8 5.7.3 1 .3 2.2.6 3.2.4 1.7.4 1.7 1 3.3.3.8 1.2 1.7 1.7 2 .2.1 7.3-11.3 7.5-11.4" stroke="#022139"/><path d="M461.8 312.3c0 1.3 1.5 4.6 1.8 5.6.3 1 .3 2.2.6 3.2.4 1.7.4 1.7 1 3.3.3.8 1.2 1.7 1.7 2 .2 0 7.3-11.2 7.5-11.3" stroke="#022139"/><path d="M461.8 312.3c0 1.3 1.5 4.5 1.8 5.6.3 1 .3 2 .6 3.1.5 1.7.4 1.7 1 3.3.3.8 1.2 1.7 1.7 2 .3 0 7.2-11 7.5-11.2" stroke="#022139"/><path d="M461.8 312.3c0 1.3 1.5 4.4 1.8 5.5.3 1 .3 2.1.6 3 .5 1.8.4 1.8 1 3.3a5 5 0 0 0 1.7 2c.3.1 7.2-10.9 7.5-11" stroke="#02223b"/><path d="M461.8 312.3c0 1.2 1.5 4.4 1.8 5.4.3 1 .3 2.2.6 3.1.5 1.7.4 1.7 1 3.2.3.8 1.2 1.7 1.7 2 .3.1 7.2-10.7 7.5-10.9" stroke="#02223b"/><path d="M461.8 312.3c0 1.2 1.5 4.3 1.8 5.4l.6 3c.5 1.7.4 1.7 1 3.2a5 5 0 0 0 1.8 2c.3 0 7-10.6 7.4-10.8" stroke="#02233d"/><path d="M461.8 312.3c0 1.2 1.4 4.3 1.8 5.3l.6 3 1 3.2c.3.7 1.3 1.6 1.8 2 .3 0 7-10.5 7.4-10.7" stroke="#02233d"/><path d="M461.8 312.3c0 1.2 1.4 4.3 1.8 5.3l.6 3 1 3c.4.8 1.3 1.7 1.8 2 .3.1 7-10.3 7.4-10.5" stroke="#02233e"/><path d="M461.8 312.3c0 1.1 1.4 4.2 1.8 5.2l.6 3 1 3c.4.8 1.3 1.6 1.8 2 .4 0 7-10.2 7.4-10.4" stroke="#02233e"/><path d="M461.8 312.2c0 1.2 1.4 4.2 1.8 5.3l.6 2.9 1 3c.4.7 1.3 1.6 1.8 2 .4 0 7-10.1 7.4-10.3" stroke="#022540"/><path d="M461.8 312.2c0 1.2 1.4 4.2 1.8 5.2l.6 2.9 1 3a5 5 0 0 0 1.8 1.8c.4.2 7-9.8 7.4-10" stroke="#022540"/><path d="M461.8 312.2c0 1.2 1.4 4.1 1.8 5.1l.7 2.9c.4 1.5.4 1.6 1 3 .3.7 1.2 1.5 1.7 1.8.5.1 7-9.7 7.4-9.9" stroke="#022540"/><path d="M461.8 312.2c0 1.2 1.4 4 1.8 5l.7 3 1 2.9c.3.7 1.2 1.5 1.7 1.8.5.1 6.9-9.6 7.4-9.8" stroke="#022541"/><path d="M461.8 312.2c0 1.1 1.4 4 1.8 5l.7 2.8 1 3a5 5 0 0 0 1.7 1.8c.5 0 6.9-9.5 7.4-9.7" stroke="#022541"/><path d="M461.8 312.2c0 1.1 1.4 4 1.8 5l.7 2.7c.4 1.5.5 1.5 1 2.9.4.7 1.2 1.5 1.7 1.8.5.1 6.8-9.3 7.4-9.5" stroke="#022743"/><path d="M461.8 312.2c0 1.1 1.4 4 1.8 5l.7 2.6 1 3c.4.6 1.2 1.3 1.7 1.6.5.2 6.8-9 7.4-9.3" stroke="#022743"/><path d="M461.8 312.2c0 1.1 1.4 3.9 1.8 4.8l.7 2.8 1 2.8c.4.6 1.2 1.4 1.7 1.7.6.2 6.8-9 7.4-9.2" stroke="#022845"/><path d="M461.8 312.2c0 1.1 1.4 3.8 1.8 4.8l.7 2.7 1 2.8c.4.6 1.2 1.4 1.7 1.7.6.2 6.7-8.9 7.4-9" stroke="#022845"/><path d="M461.8 312.2c0 1 1.3 3.7 1.8 4.7l.7 2.7 1 2.7c.4.7 1.2 1.5 1.7 1.7.6.2 6.7-8.7 7.4-8.9" stroke="#022847"/><path d="M461.8 312.2c0 1 1.3 3.7 1.8 4.7l.7 2.6 1.1 2.7a5 5 0 0 0 1.6 1.7c.7.2 6.7-8.6 7.4-8.8" stroke="#022847"/><path d="M461.8 312.2c0 1 1.3 3.7 1.8 4.6l.7 2.6 1.1 2.7a5 5 0 0 0 1.6 1.7c.7.1 6.7-8.4 7.4-8.7" stroke="#022847"/><path d="M461.8 312.2c0 1 1.3 3.6 1.8 4.6l.7 2.5 1.1 2.7c.4.6 1.1 1.3 1.7 1.6.6.2 6.6-8.2 7.3-8.5" stroke="#022a49"/><path d="M461.8 312.2c0 1 1.3 3.5 1.8 4.5l.7 2.5 1.1 2.6c.4.7 1.1 1.4 1.7 1.6.7.3 6.5-8 7.3-8.3" stroke="#022a49"/><path d="M461.8 312.2c0 1 1.3 3.5 1.8 4.4l.7 2.5c.5 1.3.5 1.4 1.2 2.6.3.6 1 1.4 1.6 1.6.7.2 6.5-8 7.3-8.2" stroke="#032a4a"/><path d="M461.8 312.2c0 1 1.3 3.4 1.7 4.4.4.8.5 1.6.8 2.4l1.2 2.6c.3.6 1 1.3 1.6 1.6.7.2 6.5-7.8 7.3-8.1" stroke="#032a4a"/><path d="M461.8 312.2c0 1 1.2 3.4 1.7 4.3l.8 2.4 1.2 2.6a5 5 0 0 0 1.6 1.5c.7.3 6.4-7.6 7.3-8" stroke="#032b4c"/><path d="M461.8 312.2c0 1 1.2 3.3 1.7 4.3l.8 2.3 1.2 2.6c.3.5 1 1.2 1.6 1.5.8.2 6.4-7.5 7.3-7.8" stroke="#032b4c"/><path d="M461.8 312.2c0 1 1.2 3.3 1.7 4.2l.8 2.4 1.2 2.4c.3.6 1 1.3 1.6 1.6.8.2 6.4-7.4 7.3-7.7" stroke="#032c4d"/><path d="M461.8 312.2c0 .9 1.2 3.2 1.7 4.1l.9 2.4c.4 1.2.5 1.3 1.1 2.4.3.6 1 1.3 1.6 1.5.8.3 6.3-7.2 7.3-7.5" stroke="#032c4d"/><path d="M461.8 312.2a13 13 0 0 0 1.7 4l.9 2.4c.4 1.2.5 1.2 1.1 2.4.3.5 1 1.2 1.6 1.5.9.3 6.3-7 7.3-7.4" stroke="#032c4d"/><path d="M461.8 312.2c0 .9 1.2 3.1 1.7 4 .3.8.5 1.6.9 2.3.4 1.2.5 1.3 1.1 2.3.3.6 1 1.3 1.6 1.5.9.3 6.3-6.8 7.3-7.2" stroke="#032d4f"/><path d="M461.8 312.2c0 .8 1.2 3 1.7 4 .3.7.5 1.5.9 2.2.4 1.2.6 1.2 1.1 2.4a5 5 0 0 0 1.6 1.4c1 .2 6.3-6.7 7.3-7.1" stroke="#032d4f"/><path d="M461.8 312.2c0 .8 1.2 3 1.7 4l.9 2.1c.4 1.2.6 1.2 1.1 2.3.4.5 1.1 1.2 1.6 1.5 1 .2 6.3-6.6 7.3-7" stroke="#032e50"/><path d="M461.8 312.2c0 .8 1.1 3 1.7 3.8.3.8.5 1.5.9 2.2.4 1.2.6 1.3 1.1 2.3.4.5 1.1 1.2 1.6 1.4 1 .3 6.2-6.4 7.3-6.8" stroke="#032e50"/><path d="M461.8 312.2c0 .8 1.1 3 1.7 3.8.3.7.5 1.5.9 2.2.4 1 .6 1.1 1.2 2.2a5 5 0 0 0 1.5 1.4c1 .3 6.2-6.3 7.3-6.7" stroke="#032f53"/><path d="M461.8 312.2c0 .7 1.1 2.9 1.7 3.7.3.7.5 1.5.9 2.2.4 1 .6 1.1 1.2 2.1a5 5 0 0 0 1.5 1.4c1 .3 6.2-6 7.3-6.5" stroke="#032f53"/><path d="M461.8 312.2c0 .7 1.1 2.8 1.7 3.7.3.6.5 1.4.9 2 .4 1.1.6 1.2 1.2 2.3.3.4 1 1 1.5 1.3 1 .3 6.1-6 7.3-6.4" stroke="#033054"/><path d="M461.8 312.2c0 .7 1 2.7 1.7 3.6.3.7.5 1.4 1 2 .3 1.1.5 1.2 1 2.2.4.5 1.1 1.1 1.6 1.3 1 .4 6.1-5.8 7.3-6.2" stroke="#033054"/><path d="M461.8 312.2c0 .7 1 2.7 1.7 3.6l1 2c.3 1 .6 1.1 1.1 2 .4.6 1 1.1 1.5 1.4 1.1.3 6-5.7 7.3-6.1" stroke="#033054"/><path d="M461.8 312.2c0 .7 1 2.7 1.7 3.5l1 2c.3 1 .6 1.1 1.1 2 .4.5 1 1.1 1.5 1.4 1.1.3 6-5.6 7.3-6" stroke="#033156"/><path d="M461.8 312.2c0 .7 1 2.6 1.7 3.4l1 2c.3 1 .6 1.1 1.1 2 .4.5 1 1 1.5 1.3 1.2.3 6-5.3 7.3-5.8" stroke="#033156"/><path d="M461.8 312.2c0 .7 1 2.6 1.7 3.4l1 1.9c.3 1 .6 1 1.2 2 .3.5 1 1 1.4 1.3 1.2.3 6-5.2 7.3-5.7" stroke="#043258"/><path d="M461.8 312.2c0 .7 1 2.5 1.7 3.3l1 2c.3.9.6 1 1.2 2 .3.4 1 1 1.4 1.1 1.2.4 6-5 7.3-5.5" stroke="#043258"/><path d="M461.8 312.2c0 .6 1 2.4 1.7 3.3l1 1.8c.4 1 .6 1.1 1.2 2 .3.5 1 1 1.4 1.2 1.3.4 6-5 7.3-5.4" stroke="#043359"/><path d="M461.8 312.2a9 9 0 0 0 1.7 3.2l1 1.8c.4 1 .6 1 1.2 2 .4.4 1 1 1.5 1.1 1.2.4 5.8-4.7 7.2-5.2" stroke="#043359"/><path d="M461.8 312.2c0 .6 1 2.4 1.7 3.1l1 1.9c.4.9.7 1 1.2 1.8.4.5 1 1 1.5 1.2 1.2.4 5.8-4.6 7.2-5.1" stroke="#04345b"/><path d="M461.8 312.2c0 .6 1 2.3 1.7 3l1 1.9c.4.8.7 1 1.2 1.8.4.5 1 1 1.5 1.2 1.3.4 5.8-4.5 7.2-5" stroke="#04345b"/><path d="M461.8 312.2c0 .6 1 2.2 1.7 3l1 1.8c.4.9.7 1 1.2 1.8.4.4 1 1 1.5 1.1 1.3.4 5.8-4.3 7.2-4.8" stroke="#04345b"/><path d="M461.8 312.2c0 .5 1 2.2 1.7 3l1 1.7c.4.8.7 1 1.2 1.8.4.4 1 .8 1.5 1 1.3.5 5.7-4.1 7.2-4.6" stroke="#04355c"/><path d="M461.8 312.2c0 .5 1 2.1 1.7 3l1 1.6c.4.8.7 1 1.3 1.7.3.5 1 1 1.4 1.1 1.3.5 5.7-4 7.2-4.5" stroke="#04355c"/><path d="M461.8 312.2c0 .5 1 2.1 1.7 2.9l1 1.6c.4.9.7 1 1.3 1.7.3.5 1 .9 1.4 1.1 1.4.4 5.7-3.9 7.2-4.4" stroke="#04365e"/><path d="M461.8 312.2c0 .5 1 2 1.7 2.8l1 1.6c.4.8.7 1 1.3 1.7.3.4 1 .9 1.4 1 1.4.5 5.6-3.7 7.2-4.2" stroke="#04365e"/><path d="M461.8 312.2c0 .5 1 2 1.7 2.7l1 1.7c.4.7.7.9 1.3 1.6.3.4 1 .8 1.4 1 1.4.4 5.6-3.6 7.2-4.1" stroke="#043760"/><path d="M461.8 312.2c0 .4 1 2 1.7 2.7l1 1.6c.4.7.7.8 1.3 1.6.3.4 1 .8 1.4 1 1.5.4 5.6-3.5 7.2-4" stroke="#043760"/><path d="M461.8 312.2c0 .4 1 1.9 1.7 2.6l1 1.6c.4.7.7.8 1.3 1.5.3.4 1 .8 1.4 1 1.5.5 5.5-3.3 7.2-3.9" stroke="#043862"/><path d="M461.8 312.2c0 .4 1 1.8 1.7 2.6l1 1.4c.4.8.7 1 1.3 1.6l1.4 1c1.5.4 5.5-3.2 7.2-3.8" stroke="#043862"/><path d="M461.8 312.2c0 .4.9 1.8 1.7 2.5l1 1.5c.4.7.8.8 1.3 1.5l1.4 1c1.6.4 5.5-3 7.2-3.7" stroke="#043862"/><path d="M461.8 312.2c0 .4.9 1.7 1.7 2.4l1 1.5c.4.7.8.8 1.3 1.5l1.4 1c1.6.4 5.5-3 7.2-3.6" stroke="#043963"/><path d="M461.8 312.2c0 .4.9 1.7 1.7 2.4l1 1.4c.4.7.8.8 1.3 1.5l1.4.9c1.6.5 5.5-2.7 7.2-3.4" stroke="#043963"/><path d="M461.8 312.2c0 .4.9 1.6 1.7 2.3l1 1.4c.5.7.8.8 1.3 1.4l1.4 1c1.6.4 5.4-2.6 7.2-3.3" stroke="#053a65"/><path d="M461.8 312.2c0 .3.8 1.6 1.7 2.3l1 1.3c.5.7.8.8 1.4 1.4.3.4.9.7 1.4.9 1.6.5 5.3-2.4 7.1-3" stroke="#053a65"/><path d="M461.8 312.2c0 .3.8 1.5 1.7 2.2l1 1.3 1.4 1.4c.4.3.9.7 1.4.8 1.6.5 5.3-2.2 7.1-2.9" stroke="#053b67"/><path d="M461.8 312.2c0 .3.8 1.4 1.7 2.1.3.5.6 1 1 1.3.5.7.8.8 1.4 1.4l1.4.8c1.6.5 5.2-2 7.1-2.8" stroke="#053b67"/><path d="M461.8 312.2c0 .3.8 1.4 1.7 2.1l1 1.3 1.4 1.3c.4.3.9.6 1.4.7 1.7.6 5.2-1.9 7.1-2.6" stroke="#053c68"/><path d="M461.8 312.2c0 .3.8 1.4 1.7 2l1 1.3 1.4 1.2 1.4.8c1.7.5 5.2-1.8 7.1-2.5" stroke="#053c68"/><path d="M461.8 312.2c0 .2.8 1.3 1.7 2l1 1.2 1.4 1.2 1.4.8c1.7.5 5.1-1.7 7.1-2.4" stroke="#053c68"/><path d="M461.8 312.2c0 .2.8 1.2 1.7 2l1 1.1c.5.5 1 .7 1.4 1.2l1.4.7c1.8.6 5.1-1.4 7.1-2.2" stroke="#053d6a"/><path d="M461.8 312.2c0 .2.8 1.2 1.7 1.9l1 1.1 1.4 1.1 1.4.8c1.8.5 5.1-1.3 7.1-2" stroke="#053d6a"/><path d="M461.8 312.2c0 .2.7 1.1 1.7 1.8l1 1.1c.5.5 1 .7 1.5 1.1.4.3.8.6 1.3.7 1.8.6 5.1-1.1 7.1-1.9" stroke="#053e6c"/><path d="M461.8 312.2c0 .2.7 1.1 1.6 1.8l1.1 1c.5.5 1 .7 1.5 1.1l1.3.7c1.8.6 5-1 7.1-1.8" stroke="#053e6c"/><path d="M461.8 312.2c0 .1.7 1 1.6 1.7l1.1 1c.5.5 1 .7 1.5 1 .4.4.8.6 1.3.8 1.8.5 5-1 7.1-1.7" stroke="#053f6e"/><path d="M461.8 312.2c0 .1.7 1 1.6 1.6a14.2 14.2 0 0 0 1.2 1c.4.5.9.7 1.4 1 .4.3.9.6 1.3.7 1.9.6 5-.7 7.1-1.5" stroke="#053f6e"/><path d="M461.8 312.2c0 .1.7 1 1.6 1.6l1.2 1 1.4 1 1.3.6c2 .5 5-.6 7.1-1.4" stroke="#053f6f"/><path d="M461.8 312.2c0 .1.7.9 1.6 1.5l1.2 1 1.4 1 1.3.6c2 .5 5-.5 7.1-1.3" stroke="#053f6f"/><path d="M461.8 312.2c0 .1.7.8 1.6 1.4l1.2 1 1.4 1 1.3.5c2 .6 5-.3 7.1-1" stroke="#053f6f"/><path d="M461.8 312.2s.7.8 1.6 1.4l1.2.9 1.5.9 1.2.5c2 .7 4.9 0 7.1-.9" stroke="#064171"/><path d="M461.8 312.2l1.6 1.4 1.2.8 1.5.9 1.3.5c2 .6 4.8 0 7-.8" stroke="#064171"/><path d="M461.8 312.2s.7.7 1.6 1.3l1.2.8 1.5.8 1.3.6c2 .6 4.7.2 7-.7" stroke="#064172"/><path d="M461.8 312.1c0 .1.7.7 1.6 1.3l1.2.8 1.5.8 1.3.6c2 .6 4.7.3 7-.6" stroke="#064172"/><path d="M461.8 312.1c0 .1.6.7 1.6 1.3l1.2.7 1.5.8 1.3.5c2 .6 4.7.5 7-.4" stroke="#064374"/><path d="M461.8 312.1s.6.6 1.6 1.2l1.2.7 1.5.8 1.3.5c2 .6 4.7.6 7-.3" stroke="#064374"/><path d="M461.8 312.1l1.6 1.2 1.2.7 1.5.6 1.3.5c2 .6 4.6.8 7 0m-12.6-3s6.5 5.1 12.6 3" stroke="#00209f"/></g><g><path d="M461.6 292.2s1.2 8 1.7 9.3c.4 1 3 5.6 6.9 6.7" stroke="#022743"/><path d="M461.6 292.2s1.3 8 1.8 9.2c.5 1 2.8 5.4 6.8 6.8" stroke="#022a49"/><path d="M461.6 292.1s1.4 8 1.9 9.2a14 14 0 0 0 6.7 6.9" stroke="#032b4c"/><path d="M461.6 292.1s1.5 8 2 9.1c.5 1 2.5 5 6.6 7" stroke="#032e50"/><path d="M461.6 292.1s1.6 7.9 2 9c.6 1.1 2.5 4.8 6.7 7" stroke="#033054"/><path d="M461.6 292.1s1.6 7.8 2.2 9c.5 1.1 2.2 4.5 6.5 7" stroke="#043359"/><path d="M461.6 292s1.7 7.8 2.3 9c.5 1.1 2 4.3 6.4 7" stroke="#04355c"/><path d="M461.7 292s1.7 7.8 2.3 9c.5 1 1.9 4 6.3 7" stroke="#043760"/><path d="M461.7 292s1.8 7.7 2.4 8.9c.5 1 1.7 3.8 6.2 7.1" stroke="#053a65"/><path d="M461.7 292s1.9 7.7 2.5 8.8c.6 1.1 1.6 3.5 6.1 7.2" stroke="#053c68"/><path d="M461.7 292s2 7.6 2.6 8.8c.5 1 1.4 3.2 6 7.2" stroke="#053f6e"/><path d="M461.8 292s2 7.5 2.6 8.7c.6 1.1 1.3 3 6 7.2" stroke="#064172"/><path d="M461.8 292s2.1 7.5 2.7 8.6c.6 1.1 1.1 2.8 5.9 7.3" stroke="#00209f"/></g><g><path d="M462 287.2s1.1 11.4 9.3 14.6" stroke="#022743"/><path d="M462 287.2c.1 0 .5 3.7 2.2 7.2 1.3 2.8 3.5 5.9 7 7.4" stroke="#022a49"/><path d="M462.1 287.2s.5 3.8 2.2 7.2a15 15 0 0 0 7 7.4" stroke="#032b4c"/><path d="M462.1 287.2s.7 3.9 2.3 7.1c1.1 2.3 3.3 5.7 6.9 7.4" stroke="#032e50"/><path d="M462.2 287.2s.7 4 2.3 7c1 2.2 3.2 5.7 6.8 7.5" stroke="#033054"/><path d="M462.2 287.2c0 .1.8 4 2.4 7 1 2 3.1 5.6 6.7 7.5" stroke="#043359"/><path d="M462.2 287.2c0 .1 1 4.1 2.5 7 .9 1.7 3 5.4 6.6 7.4" stroke="#04355c"/><path d="M462.2 287.1c0 .3 1 4.4 2.6 7a19 19 0 0 0 6.5 7.5" stroke="#043760"/><path d="M462.2 287.1c0 .3 1.2 4.5 2.6 6.9.8 1.4 3 5.4 6.5 7.5" stroke="#053a65"/><path d="M462.3 287.1c0 .3 1.3 4.6 2.6 6.9.7 1.2 2.8 5.2 6.4 7.5" stroke="#053c68"/><path d="M462.3 287.1c0 .3 1.4 4.6 2.8 6.8.6 1 2.6 5.2 6.2 7.6" stroke="#053f6e"/><path d="M462.3 287.1a31 31 0 0 0 2.9 6.7c.5.8 2.5 5.2 6 7.7" stroke="#064172"/><path d="M462.3 287.1c0 .3 1.6 4.9 3 6.6.4.7 2.4 5.2 6 7.8" stroke="#00209f"/></g><g><path d="M462.2 284s2.3 9.2 9 11.5" stroke="#022743"/><path d="M462.2 284s.9 3.3 3 6.4c1.5 2.2 3.6 4.2 6 5" stroke="#022847"/><path d="M462.2 284s1 3.2 3 6.3c1.6 2.2 3.7 4.4 6 5.2" stroke="#032a4a"/><path d="M462.2 284s1 3.1 3.2 6.3c1.5 2.2 3.7 4.4 5.8 5.1" stroke="#032c4d"/><path d="M462.2 283.9s1 3.1 3.3 6.3c1.6 2.2 3.8 4.6 5.7 5.2" stroke="#032f53"/><path d="M462.2 283.9s1 3 3.3 6.2c1.7 2.3 4 4.7 5.7 5.3" stroke="#033156"/><path d="M462.2 283.8s1 3 3.4 6.2a17 17 0 0 0 5.6 5.4" stroke="#043359"/><path d="M462.2 283.8s1.1 3 3.5 6.2c1.8 2.3 4.2 4.9 5.5 5.4" stroke="#04355c"/><path d="M462.3 283.8s1 2.9 3.5 6.1c1.8 2.4 4.3 5 5.4 5.4" stroke="#043760"/><path d="M462.3 283.8s1 2.8 3.5 6c2 2.5 4.5 5.2 5.4 5.5" stroke="#043963"/><path d="M462.3 283.7s1.1 2.8 3.6 6c1.9 2.5 4.6 5.4 5.3 5.6" stroke="#053b67"/><path d="M462.3 283.7s1.2 2.7 3.7 6c2 2.5 4.7 5.4 5.2 5.6" stroke="#053e6c"/><path d="M462.3 283.7s1.2 2.7 3.8 5.9c2 2.6 4.8 5.6 5.1 5.7" stroke="#053f6f"/><path d="M462.3 283.6s1.2 2.7 3.9 6a59 59 0 0 0 5 5.7" stroke="#064172"/><path d="M462.3 283.6s1.3 2.6 3.9 5.8c2.1 2.7 5 5.9 5 5.9" stroke="#00209f"/></g><g><path d="M479.9 296.6l4.6.8m-4.1 2.6l4-1.7" stroke="#00209f"/><path d="M479.9 296.7l4.5.7" stroke="#064171"/><path d="M479.9 296.9l4.6.5" stroke="#053e6c"/><path d="M479.9 297l4.6.4" stroke="#053b67"/><path d="M479.9 297.2l4.7.3" stroke="#043862"/><path d="M479.9 297.4h4.7" stroke="#04355c"/><path d="M480 297.6h4.6" stroke="#043258"/><path d="M480 297.7l4.7-.2" stroke="#032f53"/><path d="M480 297.9l4.7-.3" stroke="#032c4d"/><path d="M480 298l4.8-.5" stroke="#022a49"/><path d="M480.3 299.8l4.2-1.6" stroke="#064171"/><path d="M480.3 299.6l4.3-1.5" stroke="#053e6c"/><path d="M480.3 299.5l4.3-1.4" stroke="#053b67"/><path d="M480.3 299.3l4.3-1.3" stroke="#043862"/><path d="M480.2 299.1l4.5-1.2" stroke="#04355c"/><path d="M480.2 299l4.5-1.2" stroke="#043258"/><path d="M480.2 298.7l4.6-.9" stroke="#032f53"/><path d="M480.1 298.6l4.7-.9" stroke="#032c4d"/><path d="M480.1 298.4l4.7-.7" stroke="#022a49"/><path d="M480 298.2l4.9-.6" stroke="#022743"/></g><g><path d="M484.2 331.6l-2.6.2-9.9-.2" stroke="#032b4c"/><path d="M484.3 331.6l-2.7.3-9.8-.2" stroke="#032e50"/><path d="M484.3 331.6l-2.8.4c-.5.1-9.6-.3-9.6-.3" stroke="#033054"/><path d="M484.3 331.7l-2.8.5c-.7.1-9.6-.5-9.6-.5" stroke="#043359"/><path d="M484.3 331.7l-3 .6c-.7.2-9.3-.5-9.3-.5" stroke="#04355c"/><path d="M484.3 331.7l-3 .7c-.8.3-9.2-.6-9.2-.6" stroke="#043760"/><path d="M484.4 331.8l-3.1.8c-1 .2-9.1-.7-9.1-.7" stroke="#053a65"/><path d="M484.4 331.8s-2 .7-3.2 1c-1 .2-9-.8-9-.8" stroke="#053c68"/><path d="M484.4 331.9s-2 .7-3.2 1c-1.2.2-8.9-.9-8.9-.9" stroke="#053f6e"/><path d="M484.4 332s-1.8.7-3.2 1c-1.4.3-8.8-1-8.8-1" stroke="#064172"/><path d="M472.5 332s7.1 1.4 8.6 1.1c1.5-.3 3.4-1.1 3.4-1.1" stroke="#00209f"/></g><g><path d="M486 337l4.8.7 2.7-.2 2.2-.5" stroke="#022a49"/><path d="M485.8 337s4.7.7 5 .6l2.7-.1 2-.5" stroke="#032d4f"/><path d="M485.5 336.9s4.9.8 5.3.7l2.6-.2 2-.5" stroke="#033054"/><path d="M485.3 336.7s4.9.9 5.6.8a57 57 0 0 1 2.5-.2l1.7-.4" stroke="#043359"/><path d="M485 336.6s5 1 5.9.8l2.5-.2 1.5-.3" stroke="#043760"/><path d="M484.8 336.5s5.1 1 6.1.8l2.4-.2 1.4-.2" stroke="#053a65"/><path d="M484.5 336.4s5.3 1 6.4.8l2.4-.2a24.4 24.4 0 0 0 1.2-.2" stroke="#053d6a"/><path d="M484.2 336.3s5.4 1.1 6.8.9c.7-.2 1.7-.3 2.2-.3h1.1" stroke="#064171"/><path d="M486.3 337.2l4.5.6 2.8-.1 2.4-.6" stroke="#022743"/><path d="M484 336.2s5.5 1.2 7 .9c1.5-.3 3-.3 3-.3" stroke="#00209f"/></g><g><path d="M505.8 336.8l4.3-1.6c2.6-1 3-3.6 3-3.6" stroke="#00209f"/><path d="M505.5 336l3.1-1.3c3.8-1.4 3.4-3.2 3.4-3.2" stroke="#00209f"/><path d="M505.2 336.1l3.4-1.3c.6-.2 1.4-.5 1.8-.8l1.4-1.2c.3-.5.3-1.3.3-1.3" stroke="#053e6c"/><path d="M505 336.3l3.6-1.4 1.8-.7 1.4-1.2c.3-.5.4-1.5.4-1.5" stroke="#043862"/><path d="M504.7 336.5l4-1.5 1.6-.7c.3-.1 1.5-1 1.5-1.2.2-.3.5-1.6.5-1.6" stroke="#043258"/><path d="M504.4 336.7l4.2-1.5 1.7-.7a15 15 0 0 0 1.6-1.3l.5-1.6" stroke="#032c4d"/><path d="M505.5 336.9l4.6-1.8c.8-.3 1.7-1 2-1.5.6-.9.9-2 .9-2" stroke="#053e6c"/><path d="M505.1 336.9l5-2c.7-.1 1.7-1 2-1.4.4-.6.7-2 .7-2" stroke="#043862"/><path d="M504.8 336.9l5.4-2 1.9-1.4c.3-.5.6-2 .6-2" stroke="#043258"/><path d="M504.5 336.9l5.7-2.1 1.8-1.4.7-1.8" stroke="#032c4d"/><path d="M504.2 336.9l6-2.3 1.7-1.2.6-1.8" stroke="#022743"/></g><g><path d="M511.3 331.6l-2.8.2-10.3-.2" stroke="#032b4c"/><path d="M511.3 331.6l-2.8.3-10.2-.2" stroke="#032e50"/><path d="M511.3 331.6l-2.9.4c-.5.1-10-.3-10-.3" stroke="#033054"/><path d="M511.3 331.7l-3 .5c-.6.1-9.8-.5-9.8-.5" stroke="#043359"/><path d="M511.4 331.7l-3 .6c-.9.2-9.8-.5-9.8-.5" stroke="#04355c"/><path d="M511.4 331.7l-3.1.7c-1 .3-9.7-.6-9.7-.6" stroke="#043760"/><path d="M511.4 331.8l-3.2.8c-1 .2-9.5-.7-9.5-.7" stroke="#053a65"/><path d="M511.4 331.8s-2 .7-3.3 1a93 93 0 0 1-9.3-.8" stroke="#053c68"/><path d="M511.4 331.9s-2 .7-3.3 1c-1.3.2-9.2-.9-9.2-.9" stroke="#053f6e"/><path d="M511.4 332s-1.9.7-3.3 1c-1.5.3-9.1-1-9.1-1" stroke="#064172"/><path d="M499 332s7.5 1.4 9 1.1a19 19 0 0 0 3.5-1.1" stroke="#00209f"/></g></g><path d="M475 290a34 34 0 0 1-.2-3.3c0-5.2-.7-9-.1-14.5.4-4.2 1.5-9.8 1.3-14.4-.1-1.3.1-2.6.2-3.9l21 23.5M467 327.7a5.2 5.2 0 0 1-1.9-2.2c-.6-1.7-.4-1.7-.9-3.6-.2-1.1-.2-2.3-.5-3.4-.2-1.2-1.8-4.8-1.8-6.2-.2-4.8-1.8-8-1.4-13.2.3-4 1.2-9.4.7-13.5l.1-3.6 23.6 15.6m28.5 33.9c.2.5-.3 1.5-.5 1.8l-.5.7c-.2.6-.2.4-.7.9l-.8.6c-.4.3-.7.6-1.1.7-1.8.3-2.5.7-4.2 1.1-1.6.5-.8.4-2 .7l-2.4.7-2.4.6c-2.9.7-5.7.5-8.6.3-1.1 0-4-.7-5-1.4-1.8-1.2-5.7-1.7-7.4-2.9-.3-.2-1.4-.7-1.6-1-1.7-1.3-3-1.7-4.8-2.8" stroke-miterlimit="2.6" fill="none" stroke="#000" stroke-width=".2"/><g stroke-miterlimit="2.6" stroke="#000" stroke-width=".1"><path fill="#fc0" fill-rule="evenodd" d="M484.9 297.6l.6-.8-24-15.7-.4.7zm-23.7-16.7c-.2-1 0-2.1.7-2.3 0 0 .5-.1.8 0 .4 0 .5 0 .7.4.3.8-.7 1.3-1.4 1.6-.1 0-.6.1-.7.3l-.1.4.3-.3 1.7-.7c.6-.3.7-1.4.3-1.8-.4-.3-1.8-.3-2 0-.7.8-.8 1.8-.6 2.8 0-.2.3-.1.3-.4z"/><path d="M460.8 281.3c-1 0-2.1.4-2.2 1v.9c0 .4.2.5.6.6.8.2 1.2-.8 1.4-1.6 0-.1 0-.6.2-.7l.4-.2-.3.3-.5 1.9c-.2.6-1.3.8-1.6.4-.5-.3-.6-1.7-.3-2 .7-.8 1.7-1 2.7-1-.2.1-.2.5-.4.4z" fill="#fc0" fill-rule="evenodd"/><path d="M460.6 281c-.3 0-.3.4-.1.6 0 .2.4.3.6.2.4-.2.6-.6.4-1-.2-.3-.6 0-.9.1z" fill="#fc0" fill-rule="evenodd"/><path d="M455.6 277.8s2.5 1 4.5 1c0 0 .1 1.8.5 2.3 0 0-1.8-.3-2.6 0 0 0-1.1-2.4-2.4-3.3z" fill="#fc0" fill-rule="evenodd"/><path d="M457.6 279s1 .5 1.8.5c0 0 0 .6.2.9 0 0-.7-.2-1 0 0 0-.4-1-1-1.4z" fill="none"/><path d="M460.8 282.9l.6-1.1c0-.2 0 1 .4 1 .5.8.7 2.3.7 2.7-.7.2-1.3.6-2.3.2-.3-.3 0-1 0-1.4.2-.3.3-1 .6-1.4z" fill="#fc0" fill-rule="evenodd"/><path d="M461.3 282.2v.6c0-.2.3.2.3.3.3.6.5 1.1.6 2.4m-.7-2.2c.2 1 .3 1 .3 2.4l.1-.1m-.5-1.4l.2 1.4-.3.2" fill="none"/><path fill="#fc0" fill-rule="evenodd" d="M497.1 277.4l.7-.6-21.4-23.7-.4.5z"/><path d="M476.6 253c0-.9.6-2 1.2-2l.8.1c.4.1.5.3.6.6.1.9-1 1.2-1.7 1.3l-.8.1c-.2.3 0 .2-.2.3l.3-.1c.6-.2 1.2-.2 2-.3.5-.1.9-1.3.6-1.7-.3-.4-1.6-.7-2-.4-.8.5-1 1.5-1.2 2.5 0-.2.4-.1.4-.3z" fill="#fc0" fill-rule="evenodd"/><path d="M476.1 253.4c-.9-.3-2.1-.2-2.3.5l-.2.8c0 .4 0 .5.4.7.7.4 1.4-.5 1.7-1.2 0-.2.2-.6.4-.7h.4l-.3.2-1 1.7c-.2.5-1.4.5-1.7 0-.3-.4 0-1.7.3-2 .8-.6 1.8-.5 2.8-.2-.2 0-.3.3-.5.2z" fill="#fc0" fill-rule="evenodd"/><path d="M476 253c-.3 0-.3.4-.3.6 0 .2.4.4.6.3.4-.1.7-.4.6-.8-.1-.4-.6-.2-.9-.2z" fill="#fc0" fill-rule="evenodd"/><path d="M472 248.7s2 1.6 4 2c0 0-.3 1.9 0 2.4 0 0-1.7-.7-2.6-.5 0 0-.4-2.7-1.5-4z" fill="#fc0" fill-rule="evenodd"/><path d="M473.6 250.4s.8.6 1.6.9v.9s-.7-.3-1-.2c0 0-.2-1-.6-1.6z" fill="none"/><path d="M475.7 254.9l1-1c0-.1-.4 1 0 1.3.4.8.1 2.3 0 2.7-.7 0-1.3.3-2-.4-.4-.3 0-.9.3-1.3 0-.3.3-1 .7-1.3z" fill="#fc0" fill-rule="evenodd"/><path d="M476.4 254.4v.5l.2.7v2.2m-.3-2.5c.2.9 0 1.6-.1 2.5m0-1c-.2.4-.2.6-.2 1h-.3" fill="none"/></g></g><use height="100%" width="100%" xlink:href="#c" transform="matrix(-1 0 0 1 1030 0)"/></g><path d="M319.3 197.9l-40.2 67.3h80.5z" stroke-miterlimit="2.6" fill="#fc0" stroke="#000" stroke-width=".3"/><path d="M319.3 202.3L283 263h72.6z" stroke-miterlimit="2.6" fill="#fff" stroke="#fff" stroke-width=".1"/><path d="M293.8 245L283 263h72.6L345 245z" stroke-miterlimit="2.6" fill="#007e93" stroke="#007e93" stroke-width=".2"/><g stroke-miterlimit="2.6" fill="none" stroke-width=".1"><path d="M313 212.9a9 9 0 0 1 6.2-2.2h.2c2.3 0 4.7.6 6.3 2.2" stroke="#086aad"/><path d="M313 213a9 9 0 0 1 6.2-2.2h.2c2.4 0 4.8.5 6.3 2.2" stroke="#0863aa"/><path d="M313 213a8.8 8.8 0 0 1 6.2-2.2h.2c2.4 0 4.9.6 6.4 2.3" stroke="#095fa8"/><path d="M312.8 213.1c1.7-1.6 4-2.2 6.4-2.2h.2c2.5 0 5 .6 6.5 2.3" stroke="#0a58a5"/><path d="M312.8 213.2c1.6-1.7 4-2.3 6.5-2.3h.1c2.6 0 5 .7 6.5 2.4" stroke="#0a52a2"/><path d="M312.8 213.3c1.6-1.7 4-2.3 6.5-2.3h.2c2.6 0 5 .6 6.5 2.4" stroke="#0b4d9f"/><path d="M312.7 213.4c1.6-1.8 4-2.4 6.6-2.4h.2c2.6 0 5 .7 6.6 2.5" stroke="#0c479d"/><path d="M312.3 214c1.9-2 4.2-2.5 7-2.5h.2c3.1 0 5.7 1 7.3 3.2" stroke="#270a7f"/><path d="M312.3 214c1.9-2 4.2-2.5 7-2.6h.2c3 0 5.6 1 7.2 3.2" stroke="#241183"/><path d="M312.4 214c1.8-2 4.1-2.6 7-2.6 3 0 5.7 1 7.2 3" stroke="#221786"/><path d="M312.4 213.8c1.8-1.9 4.2-2.5 6.9-2.5h.1c3 0 5.6 1 7.2 3" stroke="#1f1f8a"/><path d="M312.5 213.7c1.7-1.8 4-2.4 6.8-2.4h.1c3 0 5.5.8 7 2.9" stroke="#1a258d"/><path d="M312.5 213.7c1.7-1.9 4.1-2.5 6.7-2.5h.2c2.9 0 5.4.8 7 2.9" stroke="#172d91"/><path d="M312.5 213.6c1.7-1.8 4-2.4 6.7-2.4h.2c2.8 0 5.3.7 7 2.7" stroke="#143393"/><path d="M312.6 213.5c1.6-1.8 4-2.4 6.6-2.4h.1c2.8 0 5.4.7 7 2.7" stroke="#113b97"/><path d="M315.3 209c1.2-1 2.4-1.2 4-1.2 1.5 0 2.8.3 4 1" stroke="#ff0a00"/><path d="M315.3 209c1.2-.8 2.4-1 4-1a7 7 0 0 1 4 1" stroke="#f10"/><path d="M315.2 209a6.8 6.8 0 0 1 4.1-1c1.5 0 2.9.2 4 1" stroke="#ff1500"/><path d="M315.2 209.2a6.6 6.6 0 0 1 4.1-1.2c1.5 0 3 .3 4.1 1" stroke="#ff1a00"/><path d="M315.2 209.2a6.7 6.7 0 0 1 4.1-1.1c1.5 0 3 .3 4.1 1" stroke="#ff2000"/><path d="M315.1 209.3a6.8 6.8 0 0 1 4.2-1.2c1.5 0 3 .3 4.2 1.1" stroke="#ff2700"/><path d="M315.1 209.4a6.9 6.9 0 0 1 4.2-1.2c1.5 0 3 .3 4.2 1.1" stroke="#ff2f00"/><path d="M315 209.4a6.7 6.7 0 0 1 4.3-1.1c1.6 0 3 .3 4.3 1" stroke="#f30"/><path d="M315 209.5a6.9 6.9 0 0 1 4.3-1.2c1.6 0 3.1.3 4.3 1.1" stroke="#ff3c00"/><path d="M315 209.6a7 7 0 0 1 4.3-1.2 8 8 0 0 1 4.3 1.1" stroke="#ff4100"/><path d="M315 209.6a7 7 0 0 1 4.3-1.2 8 8 0 0 1 4.4 1.2" stroke="#ff4600"/><path d="M314 211.2c1.4-1 3.5-1.6 5.3-1.6 2 0 4 .6 5.4 1.6" stroke="#fff500"/><path d="M314.1 211.1a9 9 0 0 1 5.2-1.5c2 0 4 .5 5.3 1.6" stroke="#ffeb00"/><path d="M314.1 211a9 9 0 0 1 5.2-1.5c1.9 0 4 .5 5.3 1.6" stroke="#ffe000"/><path d="M314.2 211c1.3-1 3.3-1.6 5.1-1.6 1.9 0 3.9.5 5.2 1.6" stroke="#ffd600"/><path d="M314.2 210.9c1.4-1 3.3-1.5 5.1-1.5a9 9 0 0 1 5.2 1.5" stroke="#ffcf00"/><path d="M314.3 210.8c1.3-1 3.3-1.5 5-1.5 1.8 0 3.8.5 5.1 1.5" stroke="#ffc400"/><path d="M314.3 210.7c1.4-1 3.3-1.5 5-1.5s3.7.5 5 1.5" stroke="#ffba00"/><path d="M314.4 210.6c1.3-1 3.2-1.4 5-1.4 1.7 0 3.6.4 5 1.4" stroke="#ffb000"/><path d="M314.4 210.5c1.4-1 3.2-1.4 5-1.4 1.7 0 3.6.4 4.8 1.4" stroke="#ffa600"/><path d="M314.5 210.4a8 8 0 0 1 4.8-1.4c1.7 0 3.6.4 4.9 1.4" stroke="#ff9c00"/><path d="M314.6 210.3a8 8 0 0 1 4.7-1.3c1.7 0 3.5.4 4.8 1.3" stroke="#ff9100"/><path d="M314.6 210.2a8 8 0 0 1 4.7-1.3c1.7 0 3.5.4 4.8 1.3" stroke="#ff8700"/><path d="M314.7 210.2c1.2-1 2.9-1.4 4.6-1.4 1.7 0 3.4.4 4.7 1.3" stroke="#ff7d00"/><path d="M314.7 210c1.3-.9 3-1.3 4.6-1.3 1.7 0 3.4.5 4.7 1.3" stroke="#ff7500"/><path d="M314.8 210c1.2-1 2.8-1.3 4.5-1.3a8 8 0 0 1 4.6 1.2" stroke="#ff6b00"/><path d="M314.8 209.9c1.3-1 2.8-1.3 4.5-1.3a8 8 0 0 1 4.6 1.3" stroke="#ff6100"/><path d="M314.9 209.8c1.2-1 2.7-1.3 4.4-1.3a8 8 0 0 1 4.5 1.2" stroke="#ff5700"/><path d="M313.9 211.4a9.4 9.4 0 0 1 5.4-1.6c2 0 4.1.5 5.5 1.6" stroke="#ebf605"/><path d="M313.8 211.5a9.1 9.1 0 0 1 5.5-1.7c2 0 4.2.6 5.6 1.7" stroke="#d6ec09"/><path d="M313.8 211.6a9 9 0 0 1 5.5-1.7c2 0 4.2.5 5.6 1.7" stroke="#c2e30e"/><path d="M313.7 211.7a8.8 8.8 0 0 1 5.6-1.8c2 0 4.2.6 5.6 1.8" stroke="#add912"/><path d="M313.6 211.8a8.8 8.8 0 0 1 5.7-1.8c2 0 4.3.6 5.7 1.8" stroke="#99cf16"/><path d="M313.6 211.9a8.7 8.7 0 0 1 5.7-1.9c2 0 4.3.7 5.7 1.9" stroke="#85c61a"/><path d="M313.5 212c1.9-1.5 3.7-1.9 5.8-1.9 2 0 4.4.6 5.8 1.8" stroke="#70bc1f"/><path d="M313.5 212.1c2-1.5 3.7-2 5.8-2 2.1 0 4.4.7 5.8 2" stroke="#5cb323"/><path d="M313.4 212.2c2-1.6 3.7-2 6-2 2 0 4.4.7 5.8 2" stroke="#47a928"/><path d="M313 212.7a8.9 8.9 0 0 1 6.3-2 9 9 0 0 1 6.3 2" stroke="#0d74a4"/><path d="M313.1 212.7a8.7 8.7 0 0 1 6.2-2.2 9 9 0 0 1 6.2 2.1" stroke="#127a97"/><path d="M313.2 212.6a8.7 8.7 0 0 1 6.1-2 9 9 0 0 1 6.2 2" stroke="#17808b"/><path d="M313.2 212.6c1.9-1.6 3.7-2.1 6.1-2.1a9 9 0 0 1 6.1 2" stroke="#1a847d"/><path d="M313.2 212.5c2-1.6 3.8-2 6.1-2s4.6.6 6 2" stroke="#1e8a6d"/><path d="M313.3 212.5c2-1.7 3.7-2.1 6-2.1 2.2 0 4.6.6 6 2" stroke="#238f5e"/><path d="M313.3 212.4c2-1.6 3.7-2 6-2 2.2 0 4.6.6 6 2" stroke="#2b944e"/><path d="M313.3 212.4c2-1.7 3.7-2.1 6-2.1 2.2 0 4.6.7 6 2" stroke="#2f9b3e"/><path d="M323.2 208.8c-1.1-.8-2.4-1-3.9-1-1.6 0-2.8.2-4 1" stroke="red"/><path d="M326.9 214.9c-1.6-2.3-4.3-3.4-7.5-3.4-3 0-5.2.6-7.2 2.7" stroke="#2a007c"/><path d="M325.6 212.7a9 9 0 0 0-6.3-2c-2.4 0-4.5.5-6.2 2.1" stroke="#0671b0"/><path d="M326.2 213.7c-1.6-2-4.1-2.6-6.9-2.6-2.6 0-5 .6-6.7 2.3" stroke="#0c419a"/><path d="M324.8 211.3a9 9 0 0 0-5.5-1.6c-1.8 0-4 .5-5.4 1.6" stroke="#ff0"/><path d="M323.7 209.6a8.1 8.1 0 0 0-4.4-1.1 7 7 0 0 0-4.4 1.3" stroke="#ff4d00"/><path d="M325.2 212.2a9.4 9.4 0 0 0-5.9-2c-2.3 0-3.9.4-6 2" stroke="#33a02c"/></g><g stroke-miterlimit="2.6" fill="none" stroke-width=".1"><path d="M312 214.5c2.2-1.1 4.6-1.8 7.3-1.8 2.6 0 5.4 1 7.6 2.1l7.7 13a15.3 15.3 0 0 1-30.6 0l8-13.3z" stroke="#fef2ec"/><path d="M319.3 212.9c2.6 0 5.3 1 7.5 2.1l7.6 12.7c0 8.3-6.8 15.2-15 15.2-8.4 0-15.1-6.7-15.2-15.1l7.9-13c2.2-1.2 4.5-2 7.2-2z" stroke="#fef2ea"/><path d="M319.3 213.3c2.5 0 5.2 1 7.3 2l7.4 12.4c0 8.1-6.6 14.8-14.7 14.8-8 0-14.6-6.5-14.7-14.7l7.6-12.7c2.2-1.1 4.5-1.8 7-1.8z" stroke="#fef0e6"/><path d="M319.3 213.7c2.4 0 5 1 7 2 .2 0 7.3 11.9 7.3 12 0 8-6.5 14.4-14.3 14.4-7.9 0-14.2-6.3-14.3-14.3 0-.2 7.3-12.3 7.4-12.4a15 15 0 0 1 6.9-1.7z" stroke="#feede3"/><path d="M319.3 214.3c2.3 0 4.8.9 6.8 2 .2 0 6.8 11.2 6.8 11.5 0 7.5-6.1 13.7-13.6 13.7s-13.6-6-13.7-13.7c0-.3 6.9-11.7 7.1-11.8 2-1 4.2-1.7 6.6-1.7z" stroke="#fee8dc"/><path d="M319.3 214.7c2.3 0 4.7.8 6.6 1.9.2.2 6.6 10.8 6.6 11.2 0 7.3-6 13.3-13.2 13.3s-13.2-6-13.3-13.3c0-.4 6.6-11.3 7-11.5 1.9-1 4-1.6 6.3-1.6z" stroke="#fee6d5"/><path d="M319.3 215.3c2.2 0 4.5.8 6.3 1.8.3.2 6.3 10.2 6.3 10.7 0 7-5.7 12.7-12.6 12.7-7 0-12.6-5.6-12.7-12.7 0-.5 6.2-10.7 6.6-11 1.9-1 3.8-1.5 6-1.5z" stroke="#fee3cf"/><path d="M319.3 215.7c2.1 0 4.3.8 6 1.8a96 96 0 0 1 6.2 10.3c0 6.7-5.5 12.3-12.2 12.3-6.8 0-12.2-5.5-12.2-12.3 0-.5 5.9-10.3 6.3-10.6 1.8-1 3.7-1.5 5.9-1.5z" stroke="#fee0cc"/><path d="M319.3 216.1c2 0 4.2.8 5.9 1.7.4.3 6 9.4 6 10a12 12 0 0 1-12 11.9c-6.4 0-11.7-5.3-11.7-11.9 0-.6 5.6-10 6-10.2 1.8-1 3.7-1.5 5.8-1.5z" stroke="#fedec6"/><path d="M319.3 218.8c1.6 0 3.2.5 4.6 1.3.8.4 4.5 6.7 4.5 7.7 0 5-4 9.2-9.1 9.2-5 0-9.2-4-9.2-9.2 0-1 3.9-7.4 4.7-8a9.6 9.6 0 0 1 4.5-1z" stroke="#fdcdaa"/><path d="M319.3 219c1.6 0 3.2.5 4.4 1.2 1 .6 4.5 6.6 4.5 7.6 0 5-4 9-9 9s-8.9-4-8.9-9c0-1 3.7-7.2 4.6-7.7a9.2 9.2 0 0 1 4.4-1.1z" stroke="#fdcdaa"/><path d="M319.3 220c1.4 0 2.8.4 4 1.1 1 .6 4 5.5 4 6.7a8 8 0 0 1-8 8 8 8 0 0 1-8-8c0-1.2 3-6.3 4.1-6.8a8 8 0 0 1 3.9-1z" stroke="#fdc59e"/><path d="M319.3 220.2c1.4 0 2.7.4 3.9 1 1 .7 3.8 5.3 3.8 6.6 0 4.3-3.5 7.8-7.7 7.8a7.7 7.7 0 0 1-7.8-7.7c0-1.4 3-6.1 4-6.8 1.1-.6 2.4-1 3.8-1z" stroke="#fdc59e"/><path d="M319.3 213c2.5 0 5.2 1 7.4 2.2l7.5 12.5a15 15 0 0 1-14.9 15 15 15 0 0 1-14.9-14.9l7.7-13c2.2-1 4.5-1.7 7.2-1.7z" stroke="#fef0e9"/><path d="M319.3 213.5c2.5 0 5.1 1 7.2 2 0 .1 7.3 12.1 7.3 12.3 0 8-6.5 14.5-14.5 14.5s-14.4-6.4-14.5-14.5l7.5-12.6c2.2-1 4.4-1.7 7-1.7z" stroke="#feede3"/><path d="M319.3 214c2.4 0 5 .8 7 1.9.1.1 7 11.7 7 11.9 0 7.7-6.3 14.1-14 14.1s-14-6.3-14-14.1c0-.2 7-12.1 7.2-12.2 2.1-1 4.3-1.7 6.8-1.7z" stroke="#feebdf"/><path d="M319.3 214c2.4 0 4.9 1 6.9 2 .2.2 7 11.5 7 11.8a14 14 0 0 1-14 14 14 14 0 0 1-13.8-14c0-.2 7-12 7.2-12 2-1 4.2-1.7 6.7-1.7z" stroke="#feebdd"/><path d="M319.3 214.5c2.3 0 4.8.9 6.7 2 .2 0 6.7 11 6.7 11.3 0 7.4-6 13.5-13.4 13.5s-13.4-6-13.5-13.5c0-.3 6.7-11.5 7-11.7 2-1 4.1-1.6 6.5-1.6z" stroke="#fee8d9"/><path d="M319.3 215c2.2 0 4.6.8 6.5 1.8.3.1 6.5 10.6 6.5 11 0 7.1-5.8 13.1-13 13.1s-13-5.8-13-13c0-.5 6.4-11.2 6.7-11.4 2-1 4-1.6 6.3-1.6z" stroke="#fee6d3"/><path d="M319.3 215.1c2.2 0 4.6.8 6.4 1.8.3.2 6.4 10.4 6.4 10.9 0 7-5.7 13-12.8 13a13 13 0 0 1-12.9-13c0-.4 6.3-11 6.7-11.1 1.9-1 4-1.6 6.2-1.6z" stroke="#fee3d2"/><path d="M319.3 215.5c2.2 0 4.4.8 6.1 1.8.5.2 6.3 10 6.3 10.5 0 6.8-5.6 12.5-12.4 12.5-6.9 0-12.4-5.6-12.5-12.5 0-.5 6-10.6 6.5-10.8a13 13 0 0 1 6-1.5z" stroke="#fee0cc"/><path d="M319.3 216c2 0 4.2.7 6 1.6.4.3 6 9.6 6 10.2 0 6.6-5.4 12-12 12a12 12 0 0 1-12-12c0-.6 5.7-10.2 6.2-10.4 1.7-1 3.7-1.5 5.8-1.5z" stroke="#fedec8"/><path d="M319.3 216.3c2 0 4.1.8 5.8 1.7.5.3 5.8 9.2 5.8 9.8 0 6.4-5.2 11.7-11.6 11.7-6.4 0-11.6-5.2-11.6-11.7 0-.6 5.5-9.8 6-10 1.7-1 3.5-1.5 5.6-1.5z" stroke="#fddbc5"/><path d="M319.3 216.5c2 0 4 .8 5.7 1.7.5.3 5.7 9 5.7 9.6 0 6.3-5.1 11.5-11.4 11.5s-11.4-5.1-11.5-11.5c0-.7 5.4-9.6 6-9.9a12 12 0 0 1 5.5-1.4z" stroke="#fddbc2"/><path d="M319.3 216.7c2 0 4 .7 5.6 1.6.5.4 5.6 8.8 5.6 9.5 0 6.2-5 11.3-11.2 11.3-6.2 0-11.2-5-11.2-11.3 0-.7 5.2-9.4 5.8-9.7 1.6-.8 3.4-1.4 5.4-1.4z" stroke="#fdd9bf"/><path d="M319.3 217c2 0 3.9.6 5.5 1.5.5.3 5.5 8.6 5.5 9.3 0 6-5 11-11 11s-11-4.8-11-11c0-.7 5-9.2 5.7-9.5 1.6-.8 3.3-1.4 5.3-1.4z" stroke="#fdd9bf"/><path d="M319.3 217.1c1.9 0 3.8.7 5.3 1.6.7.4 5.5 8.3 5.5 9.1 0 6-4.9 10.9-10.8 10.9-6 0-10.8-4.9-10.8-10.9 0-.8 5-9 5.6-9.3a11 11 0 0 1 5.2-1.4z" stroke="#fdd6bc"/><path d="M319.3 217.4c1.8 0 3.8.6 5.2 1.4.7.4 5.4 8.2 5.4 9 0 5.8-4.8 10.7-10.6 10.7-5.9 0-10.6-4.8-10.6-10.7 0-.8 4.8-8.8 5.5-9.2a11 11 0 0 1 5-1.2z" stroke="#fdd6b9"/><path d="M319.3 217.6c1.8 0 3.7.6 5.2 1.4.6.4 5.2 8 5.2 8.8 0 5.7-4.7 10.5-10.4 10.5s-10.4-4.7-10.4-10.5c0-.8 4.6-8.6 5.3-9 1.6-.8 3.2-1.2 5-1.2z" stroke="#fdd4b8"/><path d="M319.3 217.7c1.8 0 3.6.7 5 1.5.8.4 5.2 7.7 5.2 8.6 0 5.6-4.6 10.3-10.2 10.3-5.7 0-10.2-4.6-10.2-10.3 0-.9 4.5-8.4 5.2-8.8 1.6-.8 3.2-1.3 5-1.3z" stroke="#fdd4b6"/><path d="M319.3 218c1.7 0 3.5.6 5 1.4.7.4 5 7.5 5 8.4a10 10 0 0 1-10 10 10 10 0 0 1-10-10c0-.9 4.4-8.2 5.1-8.6 1.5-.8 3.1-1.3 4.9-1.3z" stroke="#fdd2b2"/><path d="M319.3 218.2c1.7 0 3.5.5 4.9 1.3.7.5 4.9 7.4 4.9 8.3 0 5.4-4.5 9.9-9.8 9.9s-9.8-4.4-9.8-9.9c0-.9 4.3-8 5-8.4 1.5-.8 3-1.2 4.8-1.2z" stroke="#fdd1b0"/><path d="M319.3 218.4c1.7 0 3.4.6 4.8 1.3.8.5 4.7 7.1 4.7 8.1 0 5.3-4.3 9.7-9.5 9.7s-9.6-4.3-9.6-9.7c0-1 4.1-7.8 5-8.3 1.3-.7 2.9-1.1 4.6-1.1z" stroke="#fdd0b0"/><path d="M319.3 218.6c1.6 0 3.3.5 4.7 1.3.8.5 4.6 7 4.6 8 0 5-4.2 9.3-9.3 9.3s-9.4-4.1-9.4-9.4c0-1 4-7.6 4.8-8a9.6 9.6 0 0 1 4.6-1.2z" stroke="#fdd0ad"/><path d="M319.3 219.2c1.5 0 3 .5 4.4 1.2.8.5 4.3 6.3 4.3 7.4 0 4.9-3.9 8.9-8.7 8.9-4.9 0-8.8-4-8.8-8.8 0-1.2 3.6-7.1 4.5-7.7 1.3-.6 2.7-1 4.3-1z" stroke="#fdcaa6"/><path d="M319.3 219.4a9 9 0 0 1 4.3 1.2 22 22 0 0 1 4.2 7.2c0 4.8-3.8 8.6-8.5 8.6a8.6 8.6 0 0 1-8.6-8.5c0-1.2 3.5-7 4.4-7.5a9 9 0 0 1 4.2-1z" stroke="#fdcaa4"/><path d="M319.3 219.6c1.5 0 3 .5 4.2 1.2 1 .5 4.1 5.9 4.1 7 0 4.7-3.7 8.4-8.3 8.4s-8.4-3.7-8.4-8.3c0-1.2 3.3-6.7 4.3-7.3 1.3-.6 2.6-1 4-1z" stroke="#fdc8a4"/><path d="M319.3 219.8c1.4 0 2.9.5 4 1.1 1 .6 4.1 5.7 4.1 7 0 4.4-3.7 8.1-8.1 8.1a8.2 8.2 0 0 1-8.2-8.1c0-1.3 3.2-6.6 4.2-7.1 1.2-.6 2.5-1 4-1z" stroke="#fdc8a1"/><path d="M319.3 220.4c1.3 0 2.7.4 3.8 1 1 .7 3.7 5.1 3.7 6.4 0 4.2-3.4 7.6-7.5 7.6a7.5 7.5 0 0 1-7.6-7.5c0-1.4 2.8-6 3.9-6.6 1.1-.6 2.3-1 3.7-1z" stroke="#fdc39b"/><path d="M319.3 220.6c1.3 0 2.6.4 3.6 1 1.2.7 3.7 4.9 3.7 6.3 0 4-3.3 7.3-7.3 7.3s-7.4-3.3-7.4-7.3a14 14 0 0 1 3.8-6.4c1-.6 2.3-1 3.6-1z" stroke="#fdc398"/><path d="M319.3 220.8c1.3 0 2.5.4 3.6 1 1 .7 3.5 4.6 3.5 6 0 4-3.2 7.2-7.1 7.2-4 0-7.1-3.2-7.1-7.1 0-1.5 2.4-5.6 3.6-6.2a7.3 7.3 0 0 1 3.5-1z" stroke="#fdc097"/><path d="M319.3 221a7 7 0 0 1 3.5 1c1.1.7 3.4 4.5 3.4 5.9a7 7 0 1 1-13.9 0c0-1.5 2.4-5.4 3.6-6a6.8 6.8 0 0 1 3.4-.9z" stroke="#fdc095"/><path d="M319.3 221.2c1.2 0 2.4.4 3.4 1 1.2.6 3.3 4.2 3.3 5.7a6.7 6.7 0 1 1-13.5 0c0-1.5 2.3-5.2 3.5-5.9 1-.5 2-.8 3.3-.8z" stroke="#fdbe92"/><path d="M319.3 221.4c1.1 0 2.3.4 3.3 1 1.1.6 3.2 4 3.2 5.5 0 3.5-3 6.5-6.5 6.5a6.5 6.5 0 0 1-6.6-6.5c0-1.6 2.1-5 3.4-5.7 1-.5 2-.8 3.2-.8z" stroke="#fdbe90"/><path d="M319.3 221.6c1.1 0 2.2.3 3.2.9 1.2.7 3 3.8 3 5.4 0 3.4-2.8 6.3-6.2 6.3a6.3 6.3 0 0 1-6.3-6.3c0-1.6 1.9-4.8 3.2-5.5 1-.5 2-.8 3-.8z" stroke="#fdbb8f"/><path d="M319.3 221.8c1 0 2.2.3 3 .9 1.3.7 3 3.6 3 5.2 0 3.3-2.7 6-6 6a6.1 6.1 0 0 1-6.1-6c0-1.6 1.8-4.6 3-5.3a6 6 0 0 1 3-.8z" stroke="#fdbb8d"/><path d="M319.3 222a5.8 5.8 0 0 1 3 .8c1.2.8 2.9 3.5 2.9 5a6 6 0 0 1-6 6 6 6 0 0 1-5.8-6c0-1.6 1.6-4.3 3-5a6 6 0 0 1 2.9-.8z" stroke="#fdb98a"/><path d="M319.3 222.2a5.8 5.8 0 0 1 2.8.8 7 7 0 0 1 2.9 4.9c0 3.1-2.6 5.7-5.7 5.7a5.7 5.7 0 0 1-5.7-5.7 7 7 0 0 1 2.9-5c.8-.4 1.7-.7 2.8-.7z" stroke="#fdb98a"/><path d="M319.3 222.4c1 0 2 .3 2.8.8 1.3.8 2.7 3 2.7 4.7a5.5 5.5 0 1 1-11 0c0-1.7 1.4-4 2.8-4.8.8-.4 1.7-.7 2.7-.7z" stroke="#fcb687"/><path d="M319.3 222.6c1 0 1.9.3 2.7.8 1.3.8 2.5 2.8 2.5 4.5 0 3-2.3 5.3-5.2 5.3a5.3 5.3 0 0 1-5.3-5.3c0-1.8 1.2-3.8 2.7-4.6a5 5 0 0 1 2.6-.7z" stroke="#fcb685"/><path d="M319.3 222.8c1 0 1.8.3 2.6.7 1.4.9 2.4 2.6 2.4 4.4a5 5 0 1 1-10.1 0c0-1.8 1.1-3.6 2.6-4.4a5 5 0 0 1 2.5-.7z" stroke="#fcb485"/><path d="M319.3 232.8a4.9 4.9 0 0 0 4.8-4.9c0-2.7-2.2-4.9-4.8-4.9a4.9 4.9 0 0 0-5 4.9c0 2.7 2.3 4.9 5 4.9z" stroke="#fcb482"/></g><path d="M319.3 232.8c2.7 0 4.9-2.2 4.9-4.9a4.9 4.9 0 0 0-4.9-4.9 4.9 4.9 0 0 0-4.9 5 4.9 4.9 0 0 0 5 4.8z" stroke-miterlimit="2.6" fill="#fff" fill-rule="evenodd" stroke="#fff" stroke-width=".1"/><g stroke="#000" stroke-width=".1"><path d="M320.4 223.1l.5-2.6m-1 2.5l.2-2.6m-.8 2.6v-2.6m-.5 2.6l-.3-2.6m-.2 2.7l-.6-2.6m.1 2.8l-.8-2.6m.3 2.7l-1-2.4m.6 2.6l-1.4-2.3m1 2.6l-1.6-2.1m1.1 2.5l-1.8-2m1.5 2.3l-2-1.8m1.7 2.2l-2.2-1.5m1.8 2l-2.2-1.4m2 1.8l-2.4-1m2.2 1.5l-2.5-.9m2.4 1.4l-2.6-.6m2.5 1l-2.6-.2m2.6.8h-2.7m2.7.5l-2.6.3m2.7.2l-2.6.6m2.7-.1l-2.5.8m2.7-.3l-2.4 1m2.6-.6l-2.8 1.8m3.1-1.3l-5.7 4m6-3.6l-6.1 5.4m6.5-5l-5.1 5.6m5.5-5.3l-3.9 5.1m4.3-4.8l-4 7m4.5-6.8l-2.3 5m2.7-4.8l-2.2 7m2.7-6.9l-1 4.7m1.6-4.6l-.7 7.2m1.7-7.2l.2 2.6m.3-2.7l1.5 6.8m-1-7l1.3 4.1m-.9-4.2l3.1 6.7m-2.6-7l3.3 5.8m-2.8-6l4.7 6.2m-4.3-6.5l4.1 4.8m-3.8-5.2l6.2 5.7m-5.9-6l3.4 2.3m-3-2.8l2.2 1.3m-2-1.7l2.4 1m-2.2-1.5l2.5.8M324 229l2.6.5m-2.5-1l2.6.2m-2.6-.8h2.6m-2.6-.5l2.6-.2m-2.7-.3l2.6-.5m-2.7 0l2.5-.8m-2.7.4l2.4-1.1m-2.6.6l2.3-1.3m-2.6.9l2.1-1.6m-2.4 1.1l2-1.7m-2.4 1.4l1.8-2m-2.2 1.6l1.6-2m-2 1.8l1.3-2.3m-1.8 2l1.1-2.4m-1.6 2.3l.9-2.5m-2.4-4v-2M317 217l-.4-2m-1.8 2.7l-.8-1.8m-1.2 3l-1.2-1.7m-.6 3.2l-1.5-1.3m.2 3.3l-1.8-1m.8 3l-2-.6m1.5 3l-2-.3m2 2.5l-2 .3m2.5 2l-2 .7m22.2 1.5l1.8 1m-.8-3.1l1.9.6m-1.5-2.9l2 .2m-2-2.5l2-.2m-2.4-2.1l2-.6m-3-1.5l1.8-1m-3.1-.9l1.5-1.4m-3.2-.1l1.1-1.7m-3.1.5l.8-1.9m-3 1.1l.3-2" fill="none"/><path d="M322.1 230.2s-.6-.4-1-.4l-3 .1-.8.5s.5.5 1.4.6c1 0 1.7 0 2.2-.2l1.3-.6z" stroke-miterlimit="2.6" fill="#e60000" fill-rule="evenodd"/><path d="M317.4 229.5s.1-1.4 1-3l-.4.8s-.6.3-.9 0c-.3-.4-.1-.5.1-1 .2-.4.2-.8.5-1 .2-.3.4-.3 1-.3.7 0 1.2 0 1.7.8l1 1.6c.6 1 .6 2 .6 2l.2.8s-.7-.4-1.2-.4c-.4 0-2.2-.1-3 .1l-.7.5s-.3-.6.1-1z" stroke-miterlimit="2.6" fill="#e60000" fill-rule="evenodd"/><path d="M317.4 229.5s.6-.3 2.3-.3c2 0 2.1.2 2.3.3" stroke-miterlimit="2.6" fill="none"/><path d="M319.2 237.1v-7.2s.2-.2.8 0v7.1s.2 5.5-.4 5.4c-.7 0-.4-1.2-.4-5.3z" stroke-miterlimit="2.6" fill="#fc0" fill-rule="evenodd"/></g><g fill="#e60000"><path d="M311.8 231l.1.3-1.4.6.2.5h-.2c-.1-.2-.2-.3-.6-.3v-.2l1.9-.8zm-1.5-.5a.6.6 0 0 1-.3-.4c0-.4.1-.7.6-.8.2-.1.7-.1.9.5 0 .3 0 .7-.5.8v-.2c.2-.1.3-.3.2-.6 0-.2-.3-.3-.6-.3-.3.1-.4.3-.3.6a.5.5 0 0 0 .3.3v.2l-1.2.2-.2-1.1h.3l.2.8h.6zm-.6-4c-.3 0-.5.3-.5.6 0 .2 0 .5.4.5.2 0 .2-.1.3-.2l.2-.6c0-.3.3-.5.6-.5.5 0 .6.6.6 1 0 .3-.2.5-.3.6-.2.1-.4.2-.6.1v-.2c.4 0 .6-.3.6-.6 0-.2 0-.5-.3-.6-.2 0-.3 0-.4.4l-.2.5c0 .1-.1.4-.5.4s-.7-.3-.6-.8c0-.8.5-.8.7-.8v.3zm0-1.3l.5.2.4-1.1.3.1-.4 1.1.7.3.4-1.3h.2l-.4 1.6-2.1-.7.5-1.5.2.1z" fill-rule="evenodd"/><path d="M311 222a.7.7 0 0 0-.4.3l-.5.9 1.9 1.1.1-.2-.8-.5.4-.6c.2-.4 0-.7-.2-.9a.6.6 0 0 0-.5 0zm.2.3a.4.4 0 0 1 .1.1c.2.2.2.3.1.5l-.3.5-.6-.4.3-.5.4-.2z"/><path d="M313.6 222.1l-.2.2-1.4-1.3-.5.6-.2-.2 1.2-1.3.2.2-.5.5zm.7-.6l-1.3-1.7.2-.2 1.4 1.7zm0-2.3l.3.6 1-.5.2.2-1 .6.2.6 1.2-.6.1.2-1.4.8-1-2 1.4-.7.1.2zm4 .6l-.3-1.2v-.6l-.3 2h-.3l-1-1.6.2.5.2 1.3h-.2l-.5-2.1h.4l1 1.6.2-2h.4l.5 2-.3.1z" fill-rule="evenodd"/><path d="M319 217.6v2.2h.8c.5 0 .8-.2.8-.6 0-.4-.2-.5-.4-.5.3-.1.3-.3.3-.5 0-.3-.1-.5-.5-.6h-1zm.3.3h.5c.3 0 .4.1.4.4 0 .2-.1.3-.4.2h-.5v-.6zm0 .9h.5c.2 0 .5.1.5.4 0 .2-.2.4-.5.4l-.5-.1v-.7zm2.1-1l-.5 2.1.3.1.2-.9.7.2c.3.1.3.3.2.5v.5l.3.1v-.7c.1-.2 0-.3 0-.4 0 0 .3-.1.3-.4.2-.5-.1-.7-.5-.8l-1-.3zm.3.4l.6.2c.2 0 .4 0 .3.4 0 .3-.3.3-.5.2l-.6-.1.2-.7z"/><path d="M324 219l-.3.6 1 .6-.1.2-1-.6-.4.7 1.1.6-.1.2-1.4-.8 1-1.8 1.5.8-.2.2z" fill-rule="evenodd"/><path d="M326.6 220.6L325 222l.5.7c.5.5 1.1.3 1.5 0 .5-.4.6-1 .2-1.4l-.6-.7zm0 .5l.3.4c.3.3.3.6-.1 1-.4.3-.8.3-1 0l-.3-.4 1.1-1z"/><path d="M328.2 223l-.7.4.6 1-.3.2-.5-1.1-.6.3.6 1.2h-.3l-.7-1.3 2-1 .7 1.4-.3.1zm-.8 4v-.3l1.4-.2v-.5h.2c0 .3.1.4.5.4v.3l-2.1.3z" fill-rule="evenodd"/><path d="M328 227.6l-.4.2a.9.9 0 0 0-.2.5c0 .5.3.8.6.8.2 0 .4 0 .6-.3 0 0 .1.2.4.2.3 0 .6 0 .6-.6 0-.5-.3-.7-.6-.7-.2 0-.3.1-.4.3 0-.2-.3-.3-.5-.4zm0 .4c.2 0 .4.1.4.4 0 .2-.1.4-.4.4-.3 0-.3-.3-.3-.5 0-.3.2-.3.4-.3zm1 0c.2 0 .3.1.3.4 0 .3-.2.4-.3.4a.4.4 0 0 1-.3-.4c0-.2.1-.3.3-.3z"/><path d="M328.7 229.5c.7.2.6.7.6 1-.1.3-.4.5-.8.4-.3 0-.4-.3-.6-.7v-.2c0-.4-.2-.5-.3-.5l-.3 1.1h-.3l.4-1.4c.4.1.6.3.7.6v.4c.2.2.2.4.5.4.1.1.4 0 .5-.3 0-.3-.3-.5-.4-.5v-.3zm-2.1 2.1l.1-.3 1.4.7.2-.5.2.1c-.1.4-.2.5.1.7v.2l-2-.9z" fill-rule="evenodd"/></g><path d="M319.3 202.3L283 263h72.6z" stroke-miterlimit="2.6" fill="none" stroke="#000" stroke-width=".2"/><g stroke-miterlimit="2.6" fill="none"><path d="M321.2 255.5c1 .2 2.1.4 3.3 0 1.5-.3 3-1.2 4.8-1 1.4 0 3.2 1.2 5.3 1.2 2.2 0 3-.7 4.8-1.1 1.3-.3 2-.1 3.4.2 1.6.3 2.5 1.2 5.2 1" stroke="#000" stroke-width=".1"/><path d="M293.2 258.1c1.3-1 3.4-1.3 5-1 2.2.5 3.1 1 5.4 1 1.7 0 3.2-1.1 5-1.1 2.8 0 2.9.5 5.4 1a5.6 5.6 0 0 0 2.2 0 9.5 9.5 0 0 0 2.5-.8c.8-.4 2.8-.4 3.8-.3 1.8.2 2.6.9 3 1 1 .2 2 .4 3.2 0 1.5-.4 3-1.4 4.9-1.2 1.3.2 3 1.4 5.2 1.4s3-.8 4.8-1.2c1.4-.4 2-.2 3.4.1 1.6.4 2.5 1.4 5.2 1.2" stroke="#fff" stroke-width=".4"/><path d="M289.1 256a7.6 7.6 0 0 1 5-.8c2.2.4 3.1 1 5.4 1 1.7-.1 3.2-1.2 5-1.2 2.8 0 2.9.6 5.4 1h2.2c1-.1 1.8-.4 2.5-.8.8-.3 2.8-.3 3.8-.2 1.8.2 2.6.8 3 .9 1 .2 2 .3 3.2 0 1.5-.4 3-1.2 4.9-1 1.3 0 3.1 1.2 5.2 1.2 2.2 0 3-.8 4.8-1.2 1.4-.2 2 0 3.4.2 1.6.4 2.5 1.3 5.2 1" stroke="#fff" stroke-width=".3"/><path d="M285.4 262c1.2-1 3.4-1.4 5-1 2.1.5 3 1.1 5.4 1 1.7 0 3.2-1.3 4.9-1.3 2.9 0 3 .7 5.5 1.3a5.8 5.8 0 0 0 2.2 0 8.4 8.4 0 0 0 2.5-1c.8-.5 2.8-.4 3.8-.3 1.8.2 2.5 1 2.9 1 1 .3 2 .5 3.3.2 1.5-.6 3-1.6 4.8-1.4 1.3.1 3.1 1.6 5.3 1.6 2.1 0 3-1 4.8-1.5 1.3-.3 2-.1 3.4.2 1.6.4 2.5 1.6 5.2 1.3" stroke="#fff" stroke-width=".5"/><path d="M286.4 258.6c1.2-.8 3.4-1.2 5-.8 2.1.4 3 .9 5.4.8.7 0 1.4-.2 2.2-.4" stroke="#fff" stroke-width=".3"/><path d="M297.4 255c.3 0 1.3-.5 2.8-.5 2.9 0 1 0 3.6.4.6.1 2.5.2 3-.3m25.4 8.2c1-.2 1.8-.5 2.6-.8.7-.4 2.7-.3 3.8-.2 1.8.2 2.5.7 2.9.8 1 .3 2 .4 3.2 0 1.6-.3 3-1.2 5-1 1.2.1 3 1.3 5.2 1.3" stroke="#000" stroke-width=".2"/><path d="M336.7 254.8c2.1 0 2.9-.8 4.8-1.2 1.3-.3 2 0 3.4.2 1.6.3 2.4 1.3 5.2 1" stroke="#fff" stroke-width=".3"/><path d="M285.5 262.2a7.7 7.7 0 0 1 5-.8c2.2.4 3.1.9 5.4.9 1.7 0 3.2-1.1 4.9-1.1 2.9 0 3 .5 5.5 1a7.5 7.5 0 0 0 2.2 0c1-.2 1.7-.5 2.5-.8.8-.4 2.8-.3 3.8-.2 1.8.1 2.5.7 3 .8" stroke="#000" stroke-width=".1"/><path d="M290 259.6c1.3-.9 3.5-1.2 5.1-.9 2.2.4 3.1 1 5.4.9 1.7 0 3.1-1 4.8-1 3 0 3 .5 5.6 1a7.4 7.4 0 0 0 2.2 0c.9-.2 1.7-.5 2.5-.9.8-.3 2.8-.3 3.8-.2 1.8.2 2.5.8 3 .9.9.2 2 .3 3.2 0 1.5-.4 3-1.3 4.8-1 1.5 0 3.3 1.2 5.3 1.2 2.2 0 3-.8 4.8-1.2 1.3-.2 2 0 3.4.2 1.6.3 2.5 1.3 5.2 1" stroke="#000" stroke-width=".5"/></g><g fill="#fc0" fill-rule="evenodd" stroke="#000" stroke-width=".2"><path d="M291 249.5c.4 0 1.2-.6 1.5-.8.3-.2.5-.7.8-1l1.5-1c1.6-1 2.4-1.6 3.5-3.1 1.6-2.2 3.4-4 5.7-5.2.8-.4 1.9-.3 2.7 0l.8.6a12 12 0 0 0 3.9 1.8c1.5.5 1.9 1.5 3 2.6.7.5 1.3 1 2 1.3l.4.3 2 1.5a67 67 0 0 1 3.2 3.1l.4.7c.8.7 1.6 1.5 2.6 2l2.7 1.6c-9.2.4-17.7-.2-27 0H299l-1.8.1h-8.8l2.7-4.5z"/><path d="M327.3 253.7l-2.3-1.4c-1-.5-1.8-1.3-2.6-2l-.4-.7a67 67 0 0 0-3.2-3c-.6-.6-1.3-1-2-1.5l-.3-.4a8.5 8.5 0 0 1-2-1.3l-1.9-2a7.5 7.5 0 0 1 1.3-.7c.6-.4 1.5-.3 2.2 0l.7.5c.8.7 1.9 1.1 3.2 1.5 1.3.4 1.6 1.2 2.6 2.1.5.5 1 .8 1.6 1.1l.3.3 1.7 1.2 2.7 2.6.3.6c.7.6 1.3 1.3 2.1 1.6l2.3 1.4h-6.2z"/><path d="M319 242.4l1 .3c1.3.4 1.6 1.2 2.6 2.1.5.5 1 .8 1.6 1.1l.3.3 1.7 1.2a63 63 0 0 1 2.6 2.6l.4.6c.7.6 1.3 1.3 2.1 1.6l2 1.2 5-.1c-.6-.4-1.2-1-2-1.3-.7-.3-1.3-1-1.9-1.5l-.3-.5-2.4-2.3-1.6-1.1-.2-.3a6.2 6.2 0 0 1-1.5-1c-1-.8-1.2-1.6-2.4-2a9 9 0 0 1-2.9-1.3c-.2-.1-.4-.4-.6-.4-.6-.3-1.5-.4-2 0l-1.4.8z"/><path d="M327.6 244.4l.8.9c.4.4 1 .7 1.5 1l.2.3 1.6 1 2.4 2.4.3.5c.6.6 1.2 1.2 2 1.5l1.3.8h6c-.5-.4-1-.8-1.7-1l-1.5-1.3-.3-.4a93.8 93.8 0 0 0-2-1.9l-1.2-.9-.2-.2-1.2-.8c-.7-.7-1-1.3-1.9-1.6-1-.3-1.8-.6-2.4-1l-.4-.4c-.6-.2-1.2-.3-1.7 0a9.5 9.5 0 0 0-1.6 1v.1z"/><path d="M343.3 252.5a7.4 7.4 0 0 0-1.3-.8l-1.5-1.2-.3-.4c-.6-.7-1.2-1.3-2-1.9l-1.2-.9-.2-.2-1.2-.8c-.6-.6-.8-1-1.5-1.4l1-.6c.5-.3 1-.2 1.5 0l.4.3c.5.4 1.2.7 2 1 .9.2 1 .7 1.7 1.3.3.2.6.5 1 .6l.2.3 1 .7 1.7 1.6.2.4 1.3 1 1.5.9h-4.3z"/></g><path d="M303.2 239c.4 0 .2-.2.6 0m-1.5.5c.5 0 .7-.4 1 0m-1.4.3c.2 0 .3-.2 1 .2m-1.5.4h1m-1.6.4c.5-.1.7.2 1.3.1m-1.9.5h1.4m-2 .6h1.5m-1.9.6h1.4m-2.3 1.2h1.4m-11 10c1.8-.4 4 0 6-.3m3.8-10.3c.5-.2.4-.1 1 0h.8m-2.5 1.1c.5-.2 1 0 1.5 0m-.3.5c-.5-.1-1 0-1.6 0m1.2.6c-.5-.2-1.1-.2-1.7 0m-.8.4c.7 0 1.4-.2 2.1 0m-2.6.6c.7-.3 1.4 0 2.2 0m-3 .4h2.3c.1 0 .4-.2.5 0m-.2.4c-1.2.2-2.3 0-3.5.1m2.8.5c-.3 0-1 .2-1.5.1h-.3c-.6-.1-1.1-.1-1.7.1m-.2.4a1 1 0 0 1 .7 0h2.1l.6.3m-3.9 0h1.6l2 .4m-4 0c.5 0 1 0 1.6.2l2.1.1m-4.4 0c.7.3 1.5 0 2.3.2l2 .2m-4.8.2c1.1 0 2.2 0 3.4.2.3 0 .8.2 1.2.1m-5 .2c1.1.2 2.2 0 3.3.3l1.5.2m-5.2.3l.3-.1h2.6c.7 0 1.5 0 2.2.2m-5.5.5c1.7-.2 3.5 0 5.2 0m-5.5.5c1.8.2 3.7 0 5.5.1m-5.8.4c.8.2 1.6 0 2.4.1.6.1 1.1.2 1.7.1h1.5m7.4-7.6h.2m-.4.2h.3m-.5.3h.4m-.5.2h.5m-.8.3l.8.1h-.1m-1 .4l1-.1h-.1m-1.3.5h1.3m-1.6.4h1.4m-1.6.4h1.6m-2 .5l1 .2c.3.1.6 0 .8 0m-1.8.2c.5.2 1 .2 1.6.2m-2 .2c.5 0 1 0 1.4.2h.6m-2.5.5c.5-.3 1.2-.1 1.8 0h.6m-2.5.4c.6-.2 1.3-.2 2 0h.3m-2.7.5c.8.1 1.7-.1 2.6.1m-2.9.2c.7.3 1.5 0 2.3.2h.7m-3.5.4c.4-.1.7-.2 1-.1.8.2 1.6.1 2.3.2m-3.6.4c.1 0 .3.1.4 0h3.2m-4 .4c1 .3 1.8 0 2.7.3h1.2m-4.1.3c1.3 0 2.5 0 4 .2m3.3-7.5h.3m-.5.3h.5m-.7.4h.7m-.8.5h.8m-1 .5l1-.1m-1.1.4h1m-1.2.6h1.3m-1.3.4c.4-.1.9.2 1.3 0m-1.6.6c.6 0 1 .1 1.6 0m-1.7.5c.2 0 .4-.2.6-.1h1m-1.7.6c.6-.2 1.2.2 1.8-.2m-2 .8h2m-2 .5c.6-.2 1.3 0 2 0m-2.5.5l2.8-.2m-2.7.7l3.1-.1m-3.3.7c1 .1 1.3 0 2.3-.1l1.2-.2h.6m-4 .6c1.5-.2 3 .1 4.6-.3m-11.3 0h1.2m4.7.3c.1 0 .3-.1.4 0m5.4-.1c1.3-.2 2.5.2 3.8 0m-4.4-.5c.8-.2 1.5 0 2.3.1l.1.2h2m-8.9-.3h-.8m-4.1-.2l-1.7.1m12.1-11.8h.3m-.2.3h.3m-.2.6v-.1h.4m-.3.5c.2-.2.4 0 .6 0m0 .3h-.5m.3.6a.8.8 0 0 1 .5-.1m.3.4h-.8m.2.4l.8-.1m.2.6h-.9m.2.6c.3 0 .7 0 1-.2m0 .3l-.9.2m.2.6c.4-.2.8 0 1.2-.2m.1.5h-.9l-.3.1m.2.8c.3-.1.5-.3.8-.3h.6m.2.5H309m.1.7l1.6-.3m-1.5 1l1.7-.4m.5.4c-.7.1-1.4 0-2 .3m.2.6s.1.1.2 0a4 4 0 0 1 2-.3m0 .4c-.5.4-1.3.3-2 .3l-.2.1m.2.4l2.3-.2m.5.5h-1.8c-.3 0-.5.2-.8.3m0 .5h.4c.7-.5 1.6-.4 2.4-.4m.3.5c-.7 0-1.4-.2-2.1 0-.3.1-.5.3-.8.3m.3.5l1-.3h2.4m0 .4c-.4-.1-1-.2-1.3 0-.7.1-1.3.3-2 .3m.3.4c.6 0 1.1-.3 1.7-.4h1.3m-3 .7c1-.1 1.7 0 2.6-.3h.9m0-.3c1.4.1 2.8-.1 4.1.2m-3.8.3l.4-.1h3.4m-.4-2.9h.2m-.1.4c.1 0 .2-.2.4 0m-.3.4h.7m-.5.6c.2-.3.6 0 .8-.2m-.7.8c.4-.3.8 0 1.1-.3m-1 .7c.5-.2 1 0 1.4-.3m-1.2.7c.7-.3 1.5.1 2.1-.4m-2 .7c.8-.2 1.7 0 2.6 0m.6 0h4.6m-5.3-.6c1.4.2 3.4 0 5.1.2m-12.6-10.6l1.1-.2m-.8.4l1.2-.1m-.7.6l.8-.2h.4m-.9.4h1.5m.2.3l-1.2.1m.8.5l1-.2m.5.4h-1.2m.6.5l1-.2m.6.5H318m.5.5l1.2-.1m.4.2l-1 .2m.5.5c.3-.2.9 0 1.3-.2m.4.5h-1l-.4.1m2.6.8l-1.5.1m.5.6c.5-.2 1.1-.2 1.7-.3m-.5 1.7h.8c.8-.2 1-.4 1.7-.3m.5.4l-2.2.2-.4.1m.4.4c.8-.2 2-.1 2.7-.3m.8.5l-2 .1-1 .1m.7.5h.3c.7-.4 1.7-.4 2.6-.4m.5.5h-1.9l-.9.2m.8.5c.8-.1 2.3-.3 1.4-.3h1.9m.2.3H328c-.4.2-.3.3-1.4.3m.4.2l1.2-.1 1.5-.1m-2.4.5c.9-.2 1-.1 1.9 0l.8-.1m-16.2-11c.2 0 .4-.1.8 0-.2-.2.1 0 .2-.2h.3m-1.7-.2h.8c-.1-.2.2 0 .2-.1h.4m5.5 6c.3-.1.2-.2.6-.1-.1-.2.3 0 .4-.1h.5m0 1.6l1.7-.4m.8.6c-.6.1-1.6 0-2.1.3m-8-8.4c-.6 0-.7.2-1.1.2m8 1.6l1-.2m-.7.5c.4-.1.7 0 1-.2m-.7.5l.7-.1h.4m-.7.4h1.2m.3.2l-1.2.2m.4.4l1.3-.2m.5.4h-1.3m.4.4c.3 0 1.2 0 1.3-.2m.5.5h-1.2m.4.4l1.3-.1m.4.2c-.2.2-.8.2-1.1.3m.6.4c.3-.2.8 0 1.2-.2m.4.4h-1c0 .1-.1.2-.3.1m2.4.8l-1.3.1m.4.5c.5-.2 1-.2 1.5-.2m-.3 1.6l.6-.1c.8-.1.9-.3 1.6-.3m.4.4l-2 .2-.4.1m.4.3c.7 0 1.8 0 2.5-.2m.7.4l-1.7.1-1 .2m.7.4h.2c.6-.4 1.5-.3 2.4-.3m.5.4H332l-.9.2m.6.4l1.5-.2h1.7m.2.3h-1.4c-.2 0-.3.2-1.5.2m.4.3l1.3-.2h1.4m-2.1.4l1.7-.1h.7m-15-10.1c.3-.1.2-.2.5-.1l.5-.1h.3m-1.7 0c.2-.2.2-.3.6-.2l.4-.1h.4m5.2 5.5c.2-.1 0-.2.4-.1 0-.2.3 0 .4-.1h.5m0 1.4c.4 0 1 0 1.5-.3m.8.6c-.6.1-1.4 0-1.8.2m-7.5-7.6c-.5 0-1 .2-1.4.5m8.6 2.5l.9-.1m-.7.3l1-.1m-.6.4l.6-.1h.3m-.7.3h1.1m.2.2h-.9m.5.4l.8-.2m.4.3h-1m.4.4l1-.2m.3.4h-.9m.3.3l1-.1m.3.2l-.9.2m.3.3l1.1-.1m.3.3h-1m1.9.7l-1.2.1m.4.3c.3-.2.9-.1 1.3-.2m-.4 1.2h.6l1.2-.2m.3.3l-1.5.2h-.4m.3.2h2m.6.2H336a7.3 7.3 0 0 1-.9.2m.5.4l.6-.2 1.6-.1m.4.3h-1.4l-.9.3m.6.2l1.2-.2h1.3m.2.2h-1c-.2.1-.5.2-1.3.2m.3.2l1-.1 1.1-.1m-1.7.4h1.4l.5-.1m-11.5-7.7c.2 0 .2-.2.5-.2h.6m-1.4 0c.2-.1.2-.2.5-.2h.6m3.8 4.2l.5-.1h.3c0-.1.3 0 .4 0m0 1c.3 0 .8 0 1.2-.2m.6.4c-.5.1-1.2 0-1.5.2m-5.7-5.9c-.4 0-.5.2-.8.4m7 .9l1-.1m-.7.3l.9-.1m-.6.3H336.2m-.6.4l1-.2m.2.2l-1 .2m.4.2s.7-.2 1-.1m.3.2l-1 .1m.3.2l1-.1m.3.3l-1 .1m.4.3c.3 0 .8 0 1-.2m.3.2l-1 .2m.5.3l1-.1m.2.2h-.7l-.3.1m1.8.6l-1 .1m.2.3l1.3-.2m-.4 1.2l.5-.1 1.2-.2m.2.3l-1.3.2h-.4m.2.3l1.9-.2m.6.3H342l-.8.2m.4.3l.5-.1 1.5-.2m.4.3h-1.2l-.9.2m.5.3l1.2-.2h1.2m.2.2h-1a3 3 0 0 1-1.2.2m.3.1l1-.1h1m-1.7.3h1.4l.4-.1m-10.6-7.1l.4-.1h.6m-1.3-.1c.2 0 .2-.2.5-.1h.3l.2-.1m3.6 3.9h.4c0-.2.2 0 .3-.1h.3m0 1c.3 0 .8 0 1.1-.2m.6.4l-1.5.1m-5-5.4c-.5 0-.6.2-.9.3" stroke-width=".1" fill="none" stroke="#00633b"/><g fill="#fc0"><path d="M287.6 298.6l.6 4.4c-1.2-.3-2.2.4-2.8 1.3-.8 1.7 0 3 1.6 3.7l2.1 1.2 4-7.8-1.6-.8-1.6 3.1-.4-4.1-1.9-1zm.6 5.9c.3 0 .6.1.8.3h.2l-1 2.2-.3-.1c-.7-.4-1.2-.9-.8-1.7.3-.6.7-.8 1.1-.7z"/><path fill-rule="evenodd" d="M280.7 302.7l1-1.6-2.3-1.6.8-1.2 2.3 1.6 1.4-2-2.5-1.6.9-1.3 3.9 2.7-5 7.2-3.8-2.6.8-1.2z"/><path d="M279 292.5l-2 2.5-.7-.6c-1.4-1.2-2.8-1.2-4 .2-1.3 1.6-.8 2.9.6 4.1l1.9 1.6 5.6-6.7-1.3-1.1zm-4.4 2.8c.4 0 .7.3 1 .6l.3.2-1.5 1.8-.3-.2c-.7-.6-1-1-.4-1.9.4-.4.6-.5 1-.5z"/><path d="M268.4 294.6l-1.2-1.3 3.6-3.3c.8-.7 1.9-1.8.8-3-1-1-2.2 0-3 .6L265 291l-1.2-1.3 3.9-3.5c1.6-1.4 3.4-1.8 5 0 1.7 1.8 1.1 3.6-.5 5l-3.8 3.5z" fill-rule="evenodd"/><path d="M265.2 278.1c-.5 0-1 .1-1.6.5-.8.5-1.4 1.5-.9 2.5-.6-.3-1.3 0-1.9.3-1.4 1-1.3 2.2-.4 3.6l1.3 1.8 7.2-5-1.6-2.2c-.6-.8-1.3-1.4-2.1-1.5zm0 1.9c.4 0 .8.4 1.2.9l.2.3-1.8 1.2-.2-.2c-.4-.6-.9-1.4 0-2l.5-.2zm-2.6 2.5c.3 0 .6.2.8.6l.2.2-1.8 1.2v-.2c-.5-.6-.6-1 .1-1.5l.7-.3z"/><path fill-rule="evenodd" d="M264.6 275.3l-7.7 4.2-.8-1.6 6.3-3.4-1.1-2.2 1.3-.7zm-11.5-3.5l8-3.5.7 1.6-8 3.5zm-1-9.5c-.3.6-.4 1.4-.2 2.2.6 1.5 2.3 2 3.7 1.5 1.4-.4 2.5-1.8 2-3.4-.3-.7-.9-1.3-1.5-1.6l1.9-.6c.5.5 1 1 1.1 1.8.8 2.4-.6 4.8-2.9 5.6-2.4.7-5-.3-5.8-2.8a4.7 4.7 0 0 1-.2-2.1l2-.6z"/><path d="M256.4 250.6l-8.2 5 .2 1.3 9.4 2-.3-1.9-2-.4-.5-3.1 1.7-1-.3-1.9zm-2.7 3.6l.4 2.1-3.3-.4 2.9-1.7zm-2-19.9c-2.2 0-4 1.6-4.2 4l-.2 2.5 8.7.8.2-2.6a4.2 4.2 0 0 0-4-4.7h-.4zm-.3 2h.6c1.6.1 2.6 1 2.4 3v.2l-5.2-.4v-.3c.1-1.6.9-2.4 2.2-2.5z"/><path fill-rule="evenodd" d="M250.2 229.5l1.9.4.6-2.8 1.4.4-.6 2.7 2.4.5.5-2.9 1.5.3-1 4.6-8.5-1.8 1-4.6 1.4.4zm3.3-11.5l1.8.7 1-2.6 1.4.6-1 2.6 2.2.8 1-2.7 1.4.5-1.7 4.4-8.1-3.1 1.7-4.4 1.4.5zm8.8-2.2l-7.7-4 .8-1.5 6.4 3.3 1.2-2.3 1.3.7zm2-15.9c-.6 0-1 .2-1.4.7-.4.4-.4 1.1 0 1.4 1.2 1 3-2.3 5.3-.6 1.4 1 1.7 2.7.6 4.2-.8 1-1.9 1.3-3 1.2l-.2-1.6c.7.3 1.5.1 2-.5.4-.6.2-1.3-.4-1.7-.7-.5-1.4 0-2 .4-1 .7-2 1-3.1.2a2.6 2.6 0 0 1-.6-3.6c.5-.7 1.5-1.4 2.3-1.5l.5 1.4z"/><path d="M268.2 192.2l-1 1 4 8.8 1.2-1.4-.8-1.8 2.2-2.2 1.8.8 1.4-1.4-8.8-3.8zm1.3 2.5l2.8 1.3-1.3 1.4-1.5-2.6z"/><path fill-rule="evenodd" d="M278.3 195l-5.5-6.8 1.4-1.1 4.5 5.6 2-1.6 1 1.2zm4.5-14l1.6-1 1.8 9.5-.8.5-7.8-5.7 1.6-1 5 3.8z"/><path d="M290.6 176.8l-1.2.6.4 9.6 1.7-.8v-2l2.8-1.2 1.4 1.4 1.7-.8-6.8-6.8zm.4 2.8l2.1 2.3-1.8.8-.3-3zm9.3-5.8c-.4 0-.9 0-1.4.2l-2.4.7 2.5 8.3 2.4-.6c2.4-.8 3.7-3 3-5.4-.6-2-2.1-3.2-4-3.2zm0 1.8c1 0 1.8.7 2.1 2 .5 1.4 0 2.6-1.9 3.2l-.2.1-1.5-5 .3-.1a4 4 0 0 1 1.2-.2zm10.5-4.4l-.5.1a4.4 4.4 0 0 0-3.8 5.1 4.4 4.4 0 0 0 5 4 4.5 4.5 0 0 0 3.9-5.2c-.3-2.2-2.2-4-4.6-4zm-.2 2c1.4-.2 2.6 1 2.7 2.2.2 1.2-.7 2.9-2 3-1.4.2-2.6-1.1-2.8-2.3-.1-1.3.7-2.7 2.1-2.9zm7.4-2.4v8.8h1.7V176l2.2 3.5h2.1l-2.5-3.6c1.2-.2 1.9-1.3 1.9-2.4 0-2-1.2-2.7-3-2.7H318zm1.8 1.6h.3c.8 0 1.5.2 1.4 1.2 0 1-.6 1.2-1.5 1.2h-.2v-2.4z"/><path fill-rule="evenodd" d="M336.6 174.3l-.5 2 2.7.6-.3 1.4-2.8-.7-.5 2.3 2.8.8-.4 1.4-4.5-1.2 2.1-8.4 4.5 1.1-.3 1.5zm6.6 0l1.2.5 2.1 7.5 2.2-5.5 1.7.7-3.3 8.3-1.2-.5-2.2-7.5-2.2 5.5-1.6-.6zm9.3 14.3l4.7-7.4 1.5 1-3.9 6 2.1 1.4-.8 1.2z"/><path d="M365.4 186.6l-8.4 4.7 1.4 1.2 1.8-1 2.4 2-.6 2 1.4 1.1 3-9.1-1-.9zm-1.3 2.5l-1 3-1.5-1.3 2.5-1.7zm14.3 11.1l-9.2 2.4 1 1.5 2-.4 1.8 2.5-1 1.7 1 1.5 5.3-8-.9-1.2zm-1.8 2.2l-1.8 2.5-1.1-1.6 2.9-1z"/><path fill-rule="evenodd" d="M375.4 211.9l-.8-1.6 8.7-2.7.6 1.1-4.1 4.6 6-.6.6 1.1-7.4 5.3-.8-1.6 4.6-3.1-6 .6-.2-.5 4-4.3zm11.6 8.3l-1.8.6 1 2.7-1.5.4-1-2.6-2.1.7 1 2.8-1.5.5-1.5-4.5 8.3-2.8 1.5 4.5-1.4.5z"/><path d="M390.2 225.7l-8.4 1.8.3 1.7 3.4-.7-3 3 .5 2 3.1-3.2c.5 1.1 1.7 1.5 2.7 1.3 1.9-.4 2.4-1.8 2-3.6l-.6-2.3zm-1 2.1v.2c.2.9.1 1.6-.8 1.8-1 .2-1.3-.4-1.5-1.3v-.2l2.3-.5z"/><path fill-rule="evenodd" d="M392 236l-8.6 1-.2-1.7 8.7-1zm-1.9 9.5c.6-.5 1-1.3 1-2 0-1.7-1.6-2.7-3.1-2.7s-3 1-2.9 2.8c0 .7.4 1.4 1 2h-2c-.4-.7-.6-1.4-.6-2 0-2.6 2-4.6 4.4-4.6 2.5 0 4.7 1.7 4.8 4.4a4.4 4.4 0 0 1-.5 2h-2z"/><path d="M383.7 247.1l-.2 1.9 1.7.9-.3 3.1-2 .5-.2 1.9 9.3-2.3.2-1.4-8.5-4.6zm3 3.6l2.7 1.2-3 .7.2-2z"/><path d="M384 272.1c.8-.3 1.4-.8 1.6-1.5.7-1.6-.4-3-1.8-3.6-1.3-.5-3-.1-3.7 1.4a2.8 2.8 0 0 0 .2 2.2l-2-.7c0-.8 0-1.5.3-2.1 1-2.4 3.6-3.4 5.9-2.5 2.3.9 3.6 3.4 2.7 5.9a4.6 4.6 0 0 1-1.3 1.7l-1.9-.8zm-1.4 4.7l-1.7-.9-1.3 2.5-1.3-.7 1.3-2.5-2-1.1-1.5 2.6-1.3-.8 2.3-4 7.6 4-2.2 4.2-1.3-.7zm-1.7 6.4l-.7 1-7.8.3 4.8 3.5-1 1.4-7.3-5.2.8-1 7.7-.3-4.7-3.5 1-1.4zm-9 8.7l1.2-1.3 1 1-3.7 4-1-1 1.2-1.4-5.2-5 1.2-1.3z" fill-rule="evenodd"/><path d="M362.8 290.7l-1.4 1.1 2.3 2.8-4-1.3-1.6 1.3 4.3 1.2c-.8 1-.6 2.2.2 3 1.1 1.5 2.6 1.3 4 .2l1.8-1.6-5.6-6.7zm1.7 5l1.5 1.8-.2.1c-.6.6-1.2.8-1.8 0-.6-.7-.3-1.3.4-1.8l.1-.2zm-7.1-.5l-1.6 1 .3 2-2.7 1.6-1.5-1.1-1.6 1 7.7 5.7 1.1-.7-1.7-9.5zm-1 4.6l.8 3h-.1l-2.4-2 1.7-1z"/><path fill-rule="evenodd" d="M348.7 300.3l3.8 8-1.6.7-3-6.5-2.4 1-.6-1.3z"/></g></svg>