<svg xmlns="http://www.w3.org/2000/svg" height="480" width="640" viewBox="0 0 640 480"><defs><clipPath id="a"><path fill-opacity=".7" d="M0 0h682.7v512H0z"/></clipPath></defs><g fill-rule="evenodd" clip-path="url(#a)" transform="scale(.9375)" stroke-width="1pt"><path fill="#de2110" d="M0 0h768v512H0z"/><path fill="#08399c" d="M0 0h385.7v256H0z"/><path fill="#fff" d="M282.1 178.6l-47.3-9.8 10 47.3-36-32.1-15 46-15.2-45.9-36 32.4 9.8-47.4-47.2 10.1 32-36.1-46-15 46-15.2L104.7 77l47.3 9.8-10-47.3 36 32.1 15-46 15.2 45.9L244.2 39l-9.7 47.4 47.2-10.1-32 36.1 45.9 15-45.9 15.2z"/><path fill="#005387" d="M238.5 175l-15 7.9-14.5 8.6-17-.6-16.9.2-14.3-9L146 174l-8-15-8.6-14.5.6-16.8-.2-17 9-14.2 8.3-14.8 15-7.9 14.5-8.6 16.9.6 17-.2 14.3 9 14.7 8.2 8 15L256 112l-.6 16.9.2 16.9-9 14.3z"/><path d="M244.6 128.3a51.9 51.9 0 1 1-103.7 0 51.9 51.9 0 0 1 103.7 0z" fill="#fff"/></g></svg>