<svg xmlns="http://www.w3.org/2000/svg" height="480" width="640" viewBox="0 0 640 480"><g fill-rule="evenodd"><g stroke-width="1pt"><path d="M0 0h912v37H0zm0 73.8h912v37H0zm0 73.9h912v37H0zm0 73.8h912v37H0zm0 73.9h912v37H0zm0 73.8h912v37H0zm0 73.9h912V480H0z" fill="#bd3d44"/><path d="M0 37h912v36.8H0zm0 73.8h912v36.9H0zm0 73.8h912v37H0zm0 73.9h912v36.9H0zm0 73.8h912v37H0zm0 73.9h912V443H0z" fill="#fff"/></g><path fill="#192f5d" d="M0 0h364.8v258.5H0z"/><g fill="#fff"><path d="M30.4 11l3.3 10.3h10.8l-8.7 6.3L39 37.8l-8.7-6.3-8.7 6.3L25 27.6l-8.7-6.3h10.8zm60.8 0l3.3 10.3h10.8l-8.7 6.3 3.3 10.2-8.7-6.3-8.7 6.3 3.3-10.2-8.7-6.3H88zm60.8 0l3.3 10.3h10.8l-8.7 6.3 3.3 10.2-8.7-6.3-8.7 6.3 3.3-10.2-8.7-6.3h10.8zm60.8 0l3.3 10.3H227l-8.7 6.3 3.3 10.2-8.7-6.3-8.7 6.3 3.3-10.2-8.7-6.3h10.8zm60.8 0l3.3 10.3h10.8l-8.7 6.3 3.3 10.2-8.7-6.3-8.7 6.3 3.3-10.2-8.7-6.3h10.8zm60.8 0l3.3 10.3h10.8l-8.7 6.3 3.3 10.2-8.7-6.3-8.7 6.3 3.3-10.2-8.7-6.3h10.8zM60.8 37L64.1 47H75l-8.7 6.3 3.3 10.3-8.7-6.4-8.7 6.4 3.3-10.3-8.7-6.3h10.8zm60.8 0l3.3 10.1h10.8l-8.7 6.3 3.3 10.3-8.7-6.4-8.7 6.4 3.3-10.3-8.7-6.3h10.8zm60.8 0l3.3 10.1h10.8l-8.7 6.3 3.3 10.3-8.7-6.4-8.7 6.4 3.3-10.3-8.7-6.3h10.8zm60.8 0l3.3 10.1h10.8l-8.7 6.3 3.3 10.3-8.7-6.4-8.7 6.4 3.3-10.3-8.7-6.3H240zm60.8 0l3.3 10.1h10.8l-8.7 6.3 3.3 10.3-8.7-6.4-8.7 6.4 3.3-10.3-8.7-6.3h10.8zM30.4 62.7L33.7 73h10.8l-8.7 6.3L39 89.5l-8.7-6.3-8.7 6.3L25 79.3 16.3 73h10.8zm60.8 0L94.5 73h10.8l-8.7 6.3 3.3 10.2-8.7-6.3-8.7 6.3 3.3-10.2-8.7-6.3H88zm60.8 0l3.3 10.2h10.8l-8.7 6.3 3.3 10.2-8.7-6.3-8.7 6.3 3.3-10.2L138 73h10.8zm60.8 0l3.3 10.2H227l-8.7 6.3 3.3 10.2-8.7-6.3-8.7 6.3 3.3-10.2-8.7-6.3h10.8zm60.8 0l3.3 10.2h10.8l-8.7 6.3 3.3 10.2-8.7-6.3-8.7 6.3 3.3-10.2-8.7-6.3h10.8zm60.8 0l3.3 10.2h10.8l-8.7 6.3 3.3 10.2-8.7-6.3-8.7 6.3 3.3-10.2-8.7-6.3h10.8zM60.8 88.6l3.3 10.2H75l-8.7 6.3 3.3 10.2-8.7-6.3-8.7 6.3 3.3-10.2-8.7-6.3h10.8zm60.8 0l3.3 10.2h10.8l-8.7 6.3 3.3 10.2-8.7-6.3-8.7 6.3 3.3-10.2-8.7-6.3h10.8zm60.8 0l3.3 10.2h10.8l-8.7 6.3 3.3 10.2-8.7-6.3-8.7 6.3 3.3-10.2-8.7-6.3h10.8zm60.8 0l3.3 10.2h10.8l-8.7 6.3 3.3 10.2-8.7-6.3-8.7 6.3 3.3-10.2-8.7-6.3H240zm60.8 0l3.3 10.2h10.8l-8.7 6.3 3.3 10.2-8.7-6.3-8.7 6.3 3.3-10.2-8.7-6.3h10.8zM30.4 114.4l3.3 10.3h10.8l-8.7 6.3 3.3 10.2-8.7-6.3-8.7 6.3L25 131l-8.7-6.3h10.8zm60.8 0l3.3 10.3h10.8l-8.7 6.3 3.3 10.2-8.7-6.3-8.7 6.3 3.3-10.2-8.7-6.3H88zm60.8 0l3.3 10.3h10.8l-8.7 6.3 3.3 10.2-8.7-6.3-8.7 6.3 3.3-10.2-8.7-6.3h10.8zm60.8 0l3.3 10.3H227l-8.7 6.3 3.3 10.2-8.7-6.3-8.7 6.3 3.3-10.2-8.7-6.3h10.8zm60.8 0l3.3 10.3h10.8L279 131l3.3 10.2-8.7-6.3-8.7 6.3 3.3-10.2-8.7-6.3h10.8zm60.8 0l3.3 10.3h10.8l-8.7 6.3 3.3 10.2-8.7-6.3-8.7 6.3L329 131l-8.7-6.3h10.8zM60.8 140.3l3.3 10.2H75l-8.7 6.3 3.3 10.2-8.7-6.3-8.7 6.3 3.3-10.2-8.7-6.3h10.8zm60.8 0l3.3 10.2h10.8l-8.7 6.3 3.3 10.2-8.7-6.3-8.7 6.3 3.3-10.2-8.7-6.3h10.8zm60.8 0l3.3 10.2h10.8l-8.7 6.3L191 167l-8.7-6.3-8.7 6.3 3.3-10.2-8.7-6.3h10.8zm60.8 0l3.3 10.2h10.8l-8.7 6.3 3.3 10.2-8.7-6.3-8.7 6.3 3.3-10.2-8.7-6.3H240zm60.8 0l3.3 10.2h10.8l-8.7 6.3 3.3 10.2-8.7-6.3-8.7 6.3 3.3-10.2-8.7-6.3h10.8zM30.4 166.1l3.3 10.3h10.8l-8.7 6.3 3.3 10.2-8.7-6.3-8.7 6.3 3.3-10.2-8.7-6.3h10.8zm60.8 0l3.3 10.3h10.8l-8.7 6.3 3.3 10.2-8.7-6.3-8.7 6.3 3.3-10.2-8.7-6.3H88zm60.8 0l3.3 10.3h10.8l-8.7 6.3 3.3 10.2-8.7-6.3-8.7 6.3 3.3-10.2-8.7-6.3h10.8zm60.8 0l3.3 10.3H227l-8.7 6.3 3.3 10.2-8.7-6.3-8.7 6.3 3.3-10.2-8.7-6.3h10.8zm60.8 0l3.3 10.3h10.8l-8.7 6.3 3.3 10.2-8.7-6.3-8.7 6.3 3.3-10.2-8.7-6.3h10.8zm60.8 0l3.3 10.3h10.8l-8.7 6.3 3.3 10.2-8.7-6.3-8.7 6.3 3.3-10.2-8.7-6.3h10.8zM60.8 192l3.3 10.2H75l-8.7 6.3 3.3 10.2-8.7-6.3-8.7 6.3 3.3-10.2-8.7-6.3h10.8zm60.8 0l3.3 10.2h10.8l-8.7 6.3 3.3 10.2-8.7-6.3-8.7 6.3 3.3-10.2-8.7-6.3h10.8zm60.8 0l3.3 10.2h10.8l-8.7 6.3 3.3 10.2-8.7-6.3-8.7 6.3 3.3-10.2-8.7-6.3h10.8zm60.8 0l3.3 10.2h10.8l-8.7 6.3 3.3 10.2-8.7-6.3-8.7 6.3 3.3-10.2-8.7-6.3H240zm60.8 0l3.3 10.2h10.8l-8.7 6.3 3.3 10.2-8.7-6.3-8.7 6.3 3.3-10.2-8.7-6.3h10.8zM30.4 217.8l3.3 10.2h10.8l-8.7 6.4 3.3 10.2-8.7-6.3-8.7 6.3 3.3-10.2-8.7-6.4h10.8zm60.8 0l3.3 10.2h10.8l-8.7 6.4 3.3 10.2-8.7-6.3-8.7 6.3 3.3-10.2-8.7-6.4H88zm60.8 0l3.3 10.2h10.8l-8.7 6.4 3.3 10.2-8.7-6.3-8.7 6.3 3.3-10.2-8.7-6.4h10.8zm60.8 0l3.3 10.2H227l-8.7 6.4 3.3 10.2-8.7-6.3-8.7 6.3 3.3-10.2-8.7-6.4h10.8zm60.8 0l3.3 10.2h10.8l-8.7 6.4 3.3 10.2-8.7-6.3-8.7 6.3 3.3-10.2-8.7-6.4h10.8zm60.8 0l3.3 10.2h10.8l-8.7 6.4 3.3 10.2-8.7-6.3-8.7 6.3 3.3-10.2-8.7-6.4h10.8z"/></g></g></svg>