<svg xmlns="http://www.w3.org/2000/svg" height="480" width="640" viewBox="0 0 640 480"><defs><clipPath id="a"><path fill-opacity=".7" d="M0 0h682.7v512H0z"/></clipPath></defs><g clip-path="url(#a)" transform="scale(.9375)"><path fill-rule="evenodd" fill="#319208" d="M0 438.9h1024V512H0z"/><path fill-rule="evenodd" fill="#de2010" d="M0 292.6h1024v73.1H0z"/><path fill-rule="evenodd" fill="#ffd200" d="M0 365.7h1024V439H0z"/><path fill-rule="evenodd" fill="#de2010" d="M0 146.3h1024v73.1H0z"/><path fill-rule="evenodd" fill="#ffd200" d="M0 73.1h1024v73.2H0z"/><path fill-rule="evenodd" fill="#319208" d="M0 0h1024v73.1H0z"/><path d="M28.9 0v512l343.8-256L28.9 0z" fill-rule="evenodd"/><path fill-rule="evenodd" d="M0 0h29.3v512H0z"/><path d="M0 0v512l373-256L0 0z" fill-rule="evenodd"/><path fill-rule="evenodd" d="M0 219.4h1024v73.2H0z"/><path d="M0 0v512l343.8-256L0 0z" fill-rule="evenodd" fill="#fff"/><path fill="#d62419" fill-rule="evenodd" d="M132 114.7l27.2 90.3 97.4.9-77.5 53.8 29.3 93-75.2-57.1L54 352 85 263 6.8 205l94.4 2z"/><path d="M50 166.2c1.7-3 2-4.6 10.7-8.3 11.2-32.8 40-19.9 56 25.6 14.6 6.3 101.8 71.3 100.5 75-.7 3.2-11.6.6-11.6.6s-17.3 73.6-17.6 73.6c-32.2-4.3-82.2-5-116.4-4.3.3-5.6-9.3-42.5-9.3-42.5s-8.3-2.6 5.6-30.8C83 219.6 86 162 50 166.2z" fill-rule="evenodd" stroke="#000" stroke-width="1.5" fill="#f7df00"/><path d="M79.5 153a3.6 3.6 0 1 1-7.2 0 3.6 3.6 0 0 1 7.2 0zm36.2 30.5s-28.5 16.2-36.8 15.9M205.6 259c-2-1.7-105.8-6.6-101.5-41.8m16.6 42.4s11.3 6.7 20.9-10.6m-8.3 10.3s8 7.3 19.5-8.6m-90.2 35.1s7.3 1 8.7-3.3M97 328.7l-7.3-47c36 3.1 73.4 3.4 108.1 9.6" stroke="#000" stroke-width="1.5" fill="none"/><path d="M93.5 282.3l10 11.6 10.2-10 8.6 9.3m2.7.4l8.6-7.7 9.3 9m1.7 0l9.6-8.6 7.3 8.6m4 .3l8.6-6 7.6 7.4m6-.4l6.3-6" stroke="#000" stroke-width="1.5" fill="none"/><path d="M91.8 293l10.6 12.2 10.6-9.6 9.3 10 10.6-9.4 9 10.6 11-9.3s8.2 10.3 9.2 10.3 11-8.6 11-8.6l9.6 10.6 13.3-10.6m-102.5 5.6s85.5 3.4 99.5 6.7M107.7 266s81.3 4.3 94.2 9.2" stroke="#000" stroke-width="1.5" fill="none"/><path d="M91.2 232.2c.6 5-5.3 22.2-11.6 28.2-8.7 7-7.7 21.6-7.7 21.6 1 6 14 5.3 15.6 2.3 1.3-13.6 16-16.6 16-16.6s20.2-5.6 28.8-22.5m-.4 30.1a4.3 4.3 0 1 1-8.6 0 4.3 4.3 0 0 1 8.6 0zm19.3 1.7a4.3 4.3 0 1 1-8.6 0 4.3 4.3 0 0 1 8.6 0z" stroke="#000" stroke-width="1.5" fill="none"/></g></svg>