<?xml version="1.0" encoding="utf-8"?>
<!-- Generator: Adobe Illustrator 16.0.0, SVG Export Plug-In . SVG Version: 6.00 Build 0)  -->
<!DOCTYPE svg PUBLIC "-//W3C//DTD SVG 1.1 Basic//EN" "http://www.w3.org/Graphics/SVG/1.1/DTD/svg11-basic.dtd">
<svg version="1.1" baseProfile="basic" id="Layer_1"
	 xmlns="http://www.w3.org/2000/svg" xmlns:xlink="http://www.w3.org/1999/xlink" x="0px" y="0px" width="512px" height="512px"
	 viewBox="0 0 512 512" xml:space="preserve">
<g>
	<path fill="#F31930" d="M256,0C114.615,0,0,114.615,0,256s114.615,256,256,256s256-114.615,256-256S397.385,0,256,0z
		 M442.569,303.316l-42.842-14.862l-28.352,33.853l1.05-43.35l-17.528-6.242c-1.966,22.807-11.541,43.479-26.224,59.559
		c-23.058,35.805-63.702,59.58-110.001,59.58c-71.854,0-130.101-57.254-130.101-127.884s58.247-127.88,130.101-127.88
		c46.279,0,86.909,23.755,109.972,59.534c14.955,16.362,24.621,37.488,26.353,60.781l18.058-4.902l1.05-47.272l27.512,39.428
		l46.413-12.798l-30.242,36.125L442.569,303.316z"/>
	<path fill="#FFFFFF" d="M251.2,366.27c-57.48,0-104.08-45.805-104.08-102.306s46.598-102.303,104.08-102.303
		c30.755,0,58.39,13.115,77.443,33.962c-23.062-35.778-63.692-59.534-109.972-59.534c-71.854,0-130.101,57.25-130.101,127.88
		s58.247,127.884,130.101,127.884c46.299,0,86.943-23.775,110.001-59.58C309.618,353.14,281.97,366.27,251.2,366.27z"/>
	<path fill="#F31830" d="M328.95,263.475l26.046-7.07c-1.731-23.293-11.397-44.418-26.353-60.781
		c-19.054-20.847-46.688-33.962-77.443-33.962c-57.482,0-104.08,45.802-104.08,102.303S193.72,366.27,251.2,366.27
		c30.77,0,58.418-13.13,77.473-33.996c14.683-16.079,24.258-36.752,26.224-59.559L328.95,263.475z"/>
	<polygon fill="#FFFFFF" points="401.615,243.658 374.104,204.23 373.054,251.502 354.996,256.404 328.95,263.475 354.897,272.715 
		372.425,278.957 371.375,322.307 399.727,288.454 442.569,303.316 417.786,266.984 448.029,230.86 	"/>
</g>
</svg>
