<?xml version="1.0" encoding="UTF-8" standalone="no"?>
<svg xmlns="http://www.w3.org/2000/svg" height="512" width="512">
  <g fill-rule="evenodd" stroke-width="1pt">
    <path fill="#0000bd" d="M0 0h171.52v511.983H0z"/>
    <path fill="#cc1900" d="M340.48 0H512v511.983H340.48z"/>
    <path fill="#fff600" d="M171.52 0h168.96v511.983H171.52z"/>
  </g>
  <g stroke-width="1pt">
    <path d="M398.54 290.22c47.823.818 44.515-29.15 61.974-32.126 17.458-2.977 33.928 12.49 33.302 29.972 1.873 20.814-29.714 20.963-31.637 38.298-1.924 17.336 15.377 22.628 33.3 19.982s30.647-20.363 39.805-28.69c-13.32 7.494-24.218 4.78-25.21-8.557.673-17.498 18.103-23.848 26.345-17.96 6.476-5.3 6.09-7.424 13.21-6.247 4.827 2.944 6.142 2.86 8.998 7.418 3.717-2.354 5.27-3.54 12.204-.596 4.306 1.767 7.18 4.96 9.84 9.808 3.147-2.486 8.087-3.413 13.763-.197 3.61 1.837 8.108 7.182 8.72 12.995 8.45 1.696 11.38 3.654 14.034 7.953 15.764 21.775-2.436 58.473-1.433 77.205 1.004 18.73 16.65 19.98 16.65 19.98-14.716-9.42-.2-15.9 6.746-16.55 22.252 2.293 18.508 35.136-5.18 29.367-18.978-5.18 38.92 3.28 37.525 62.637-1.396 61.02-32.815 49.01-32.815 49.01s26.838 10.11 21.646 30.09c-5.192 13.507-32.934 22.456-30.58-3.448-8.24 11.186-10.607 15.913-10.58 32.916-1.147 21.713.657 31.63 6.846 42.3 1.48-9.934 8.206-10.36 13.952-9.1 8.1.085 12.607 6.443 9.563 14.685 4.08-1.035 7.802 1.757 9.403 5.12 1.255 6.207 4.037 8.957-2.44 11.312 6.477 1.178 9.61 2.024 10.378 11.05.18 7.26-12.595 11.245-26.135 8.89 7.065 3.533 29.983 50.025 26.922 103.44-2.12 47.905-86.038 43.64-123.53 42.305-37.488-1.332-72.512.775-87.133 13.052 11.247 7.182-1.302 29.542-10.864 19.064 0 8.242-9.45 20.98-22.497 12.718.534 14.885-14.238 25.328-27.12 25.328s-27.656-10.443-27.122-25.328c-13.047 8.26-22.496-4.476-22.496-12.718-9.562 10.478-22.11-11.882-10.864-19.064-14.62-12.277-49.645-14.384-87.133-13.052-37.49 1.334-121.41 5.6-123.53-42.305-3.06-53.418 23.7-99.91 30.764-103.44-13.54 2.355-26.315-1.63-26.135-8.89.767-9.026 3.9-9.872 10.377-11.05-6.476-2.355-3.694-5.105-2.44-11.31 1.602-3.365 5.324-6.157 9.403-5.122-3.044-8.242 1.462-14.6 9.563-14.684 5.746-1.26 12.472-.834 13.952 9.1 6.19-10.67 7.993-20.587 6.845-42.3.028-17.003-2.338-21.73-10.58-32.916 2.355 25.904-25.387 16.955-30.578 3.448-5.192-19.98 21.646-30.09 21.646-30.09s-31.42 12.01-32.815-49.01c-1.396-59.356 56.503-67.817 37.525-62.637-23.688 5.77-27.432-27.074-5.18-29.366 6.946.65 21.462 7.13 6.745 16.55 0 0 15.647-1.25 16.65-19.982 1.004-18.732-17.196-55.43-1.43-77.205 2.652-4.3 5.582-6.257 14.033-7.953.613-5.813 5.11-11.158 8.72-12.995 5.677-3.216 10.617-2.29 13.763.197 2.66-4.847 5.535-8.04 9.84-9.808 6.936-2.943 8.488-1.758 12.205.597 2.856-4.556 4.17-4.473 9-7.417 7.118-1.177 6.732.948 13.208 6.246 8.242-5.888 25.672.462 26.345 17.96-.99 13.335-11.888 16.05-25.21 8.557 9.16 8.326 21.88 26.043 39.805 28.69s35.225-2.647 33.302-19.983c-1.923-17.335-33.51-17.484-31.637-38.298-.626-17.483 15.844-32.95 33.302-29.972 17.46 2.977 14.15 32.944 62.182 32.126z" fill-rule="evenodd" transform="matrix(.3926 0 0 .37087 101.104 51.638)" stroke="#000" fill="#cba323"/>
    <path d="M356.44 346.62c-.575 17.96-31.258 14.828-51.514 13.86-26.326-1.232-77.59-46.08-44.263-69.89M164.84 449.52c-16.484 17.662 28.69 13.497 9.42-9.42-7.87-8.82-41.21 18.84-41.21 49.453s10.596 44.742 16.483 45.92c5.887 1.177 15.307-3.533 15.307-8.242 0-5.886-4.71-15.306-11.774-14.13-11.775 0-5.888 10.598 0 10.598" transform="matrix(.3926 0 0 .37087 101.104 51.638)" stroke="#000" fill="none"/>
    <path d="M163.39 451.39s-24.453 9.908-24.453 39.343c0 29.436 7.065 28.26 7.065 28.26" transform="matrix(.3926 0 0 .37087 101.104 51.638)" stroke="#000" fill="none"/>
    <path d="M166.02 430.68s24.726-3.533 23.55 18.838c-1.18 22.37-9.42 23.55-22.372 22.37-12.952-1.176-5.887-16.482-5.887-16.482M156.6 543.71s18.84-1.178 17.66-21.194c-1.176-20.016-15.305-21.194-23.547-20.016-8.242 1.177-10.74 5.803-8.242 12.88M150.71 567.26s3.936-8.158 16.887-8.158c12.952 0 18.982 30.386 17.805 63.354-1.178 32.968-33.515 61.37-40.58 59.015-7.064-2.354-10.597-3.532-4.71-8.24M172.39 643.31l-22.86 38.166" transform="matrix(.3926 0 0 .37087 101.104 51.638)" stroke="#000" fill="none"/>
    <path d="M141.29 667.34c0 .416 5.054-1.105 8.587 1.25 3.532 2.354 4.365 5.815 4.365 5.815" transform="matrix(.3926 0 0 .37087 100.7 51.747)" stroke="#000" fill="none"/>
    <path d="M144.82 650.86s4.517-1.82 10.404.536 5.695 7.662 5.695 7.662" transform="matrix(.3579 0 0 .2656 107.438 120.498)" stroke="#000" fill="none"/>
    <path d="M171.78 731.95c12.25 6.364 24.282-25.18.67-26.726-16.887-.69-29.084 23.268-26.73 35.04 6.432 40.062 10.445 66.862 50.57 72.046 30.612 2.355 78.45-5.1 108.3-1.523 29.44 3.433 61.94 14.272 73.713 26.047 11.774 11.774 19.112 11.892 19.112 23.667 0 11.775-16.815 17.817-23.476 10.74" transform="matrix(.3926 0 0 .37087 100.68 52.44)" stroke="#000" fill="none"/>
    <path d="M369.84 876.92c4.305-2.914 14.556-20.425 4.722-30.815-15.194-15.4-26.165-21.48-33.658-23.977M347.55 863.28c5.828-3.532 6.684-15.298.594-24.274-6.09-8.975-21.94-16.165-53.073-18.8-23.582-1.98-87.843 8.445-111.39 1.38-33.058-12.72-53.844-34.15-48.772-87.39 1.52-20.622 11.917-34.466 32.278-37.106 22.858-.143 28.813 14.734 28.813 33.57 0 9.682-25.318 18.88-29.91 9.706-7.11-12.854-10.217-24.45 15.88-30.607" transform="matrix(.3926 0 0 .37087 100.68 52.44)" stroke="#000" fill="none"/>
    <path d="M337.41 844.59s9.765 5.685 7.41 10.395c-2.354 4.71-8.658 2.7-4.496-2.296" transform="matrix(.3926 0 0 .37087 100.68 52.44)" stroke="#000" fill="none"/>
    <path d="M238.95 291.4s-6.66 6.66-3.33 22.48 9.99 14.986 9.99 14.986M216.47 300.55c-.833 1.665-9.706 11.858-4.71 22.68 4.995 10.825 8.956 12.978 8.956 12.978M193.99 313.87s-7.195 10.622-8.567 29.555 7.79 45 7.533 54.698c-.58 20.61-24.012 30.84-24.012 30.84M159.85 543.66c1.665 0 34.135-29.972 34.135 76.597-2.498 61.61-38.298 67.438-38.298 67.438" transform="matrix(.3926 0 0 .37087 101.104 51.638)" stroke="#000" fill="none"/>
    <path d="M162.49 689.71c13.148-3.336 40.425 10.99 30.613 35.324" transform="matrix(.3926 0 0 .37087 101.77 52.53)" stroke="#000" fill="none"/>
    <path d="M167.78 681.47c8.44.785 15.32 6.904 18.458 15.343" transform="matrix(.3926 0 0 .37087 100.973 51.876)" stroke="#000" fill="none"/>
    <path d="M148.2 477.06s9.99 14.154 24.977 14.154 19.982-15.82 19.982-15.82" transform="matrix(.3926 0 0 .37087 101.104 51.638)" stroke="#000" fill="none"/>
    <path d="M146.53 484.55s9.158 16.652 24.977 17.484c15.82.833 21.647-10.823 21.647-10.823M179.84 509.52s11.657 4.996 11.657 19.15c0 14.153-10.824 10.823-10.824 10.823" transform="matrix(.3926 0 0 .37087 101.104 51.638)" stroke="#000" fill="none"/>
    <path d="M356.44 346.62c-.575 17.96-31.258 14.828-51.514 13.86-26.326-1.232-77.59-46.08-44.263-69.89M164.84 449.52c-16.484 17.662 28.69 13.497 9.42-9.42-7.87-8.82-41.21 18.84-41.21 49.453s10.596 44.742 16.483 45.92c5.887 1.177 15.307-3.533 15.307-8.242 0-5.886-4.71-15.306-11.774-14.13-11.775 0-5.888 10.598 0 10.598" transform="matrix(-.3926 0 0 .37087 413.95 51.638)" stroke="#000" fill="none"/>
    <path d="M163.39 451.39s-24.453 9.908-24.453 39.343c0 29.436 7.065 28.26 7.065 28.26" transform="matrix(-.3926 0 0 .37087 413.95 51.638)" stroke="#000" fill="none"/>
    <path d="M166.02 430.68s24.726-3.533 23.55 18.838c-1.18 22.37-9.42 23.55-22.372 22.37-12.952-1.176-5.887-16.482-5.887-16.482M156.6 543.71s18.84-1.178 17.66-21.194c-1.176-20.016-15.305-21.194-23.547-20.016-8.242 1.177-10.74 5.803-8.242 12.88M150.71 567.26s3.936-8.158 16.887-8.158c12.952 0 18.982 30.386 17.805 63.354-1.178 32.968-33.515 61.37-40.58 59.015-7.064-2.354-10.597-3.532-4.71-8.24M172.39 643.31l-22.86 38.166" transform="matrix(-.3926 0 0 .37087 413.95 51.638)" stroke="#000" fill="none"/>
    <path d="M141.29 667.34c0 .416 5.054-1.105 8.587 1.25 3.532 2.354 4.365 5.815 4.365 5.815" transform="matrix(-.3926 0 0 .37087 414.355 51.876)" stroke="#000" fill="none"/>
    <path d="M144.82 650.86s4.517-1.82 10.404.536 5.695 7.662 5.695 7.662" transform="matrix(-.3579 0 0 .2656 407.617 120.498)" stroke="#000" fill="none"/>
    <path d="M170.42 741.5c-2.354 0 15.45-19.877-.688-23.897-20.284-3.872-28.744 16.55-26.39 28.323 5.073 28.746 16.898 64.033 52.946 66.388 30.613 2.355 78.45-5.1 108.3-1.523 29.44 3.434 61.94 14.273 73.714 26.048 11.774 11.774 19.112 11.892 19.112 23.667 0 11.774-16.815 17.816-23.476 10.74" transform="matrix(-.3926 0 0 .37087 412.77 52.44)" stroke="#000" fill="none"/>
    <path d="M369.84 876.92c4.305-2.914 14.556-20.425 4.722-30.815-15.194-15.4-26.165-21.48-33.658-23.977M347.55 863.28c5.828-3.532 6.684-15.298.594-24.274-6.09-8.975-21.94-16.165-53.073-18.8-23.582-1.98-87.843 8.445-111.39 1.38-43.928-18.378-53.504-42.635-52.508-81.734 1.52-20.62 12.257-36.587 32.618-39.227 22.858-.143 26.774 11.906 26.774 30.744 0 9.68-9.013 25.715-21.334 23.36-12.322-3.187-21.92-25.012-1.106-36.668" transform="matrix(-.3926 0 0 .37087 412.77 52.44)" stroke="#000" fill="none"/>
    <path d="M337.41 844.59s9.765 5.685 7.41 10.395c-2.354 4.71-8.658 2.7-4.496-2.296" transform="matrix(-.3926 0 0 .37087 412.77 52.44)" stroke="#000" fill="none"/>
    <path d="M238.95 291.4s-6.66 6.66-3.33 22.48 9.99 14.986 9.99 14.986M216.47 300.55c-.833 1.665-9.706 11.858-4.71 22.68 4.995 10.825 8.956 12.978 8.956 12.978M193.99 313.87s-7.195 10.622-8.567 29.555 7.79 45 7.533 54.698c-.58 20.61-24.012 30.84-24.012 30.84M159.85 543.66c1.665 0 34.135-29.972 34.135 76.597-2.498 61.61-38.298 67.438-38.298 67.438" transform="matrix(-.3926 0 0 .37087 413.95 51.638)" stroke="#000" fill="none"/>
    <path d="M158.07 701.03c16.205-14.296 47.22 13.112 35.708 38.506" transform="matrix(-.3926 0 0 .37087 414.082 49.912)" stroke="#000" fill="none"/>
    <path d="M167.78 681.47c8.44.785 17.357 6.197 20.496 14.636" transform="matrix(-.3926 0 0 .37087 415.555 52.798)" stroke="#000" fill="none"/>
    <path d="M148.2 477.06s9.99 14.154 24.977 14.154 19.982-15.82 19.982-15.82" transform="matrix(-.3926 0 0 .37087 413.95 51.638)" stroke="#000" fill="none"/>
    <path d="M146.53 484.55s9.158 16.652 24.977 17.484c15.82.833 21.647-10.823 21.647-10.823M179.84 509.52s11.657 4.996 11.657 19.15c0 14.153-10.824 10.823-10.824 10.823" transform="matrix(-.3926 0 0 .37087 413.95 51.638)" stroke="#000" fill="none"/>
    <path d="M353.01 313.46c.416-.416-1.665-9.16 8.326-8.742 9.99.416 6.244 9.574 14.57 12.904 7.91 2.082 22.063 4.164 22.528 4.164s14.62-2.082 22.528-4.164c8.326-3.33 4.58-12.488 14.57-12.904 9.99-.417 7.91 8.326 8.326 8.742" transform="matrix(.3926 0 0 .37087 101.104 51.638)" stroke="#000" fill="none"/>
    <path d="M373.28 349.42c-.294-4.12-1.25-9.55-6.87-9.966-10.526-.345-18.857 20.605 4.443 20.753 17.055.11 17.198-32.355.804-32.83-23.55-.668-26.788 13.388-26.402 16.142 5.957-50.398-33.246-40.207-31.373-59.77.207-10.607 10.85-11.823 22.48-9.858 17.458 2.8 14.15 30.967 62.077 30.198 47.926.77 44.618-27.4 62.077-30.198 11.63-1.965 22.272-.75 22.48 9.857 1.872 19.563-37.33 9.372-31.374 59.77.386-2.755-2.853-16.81-26.402-16.144-16.393.476-16.25 32.942.805 32.83 23.3-.147 14.97-21.097 4.444-20.752-5.623.416-6.578 5.845-6.872 9.966" transform="matrix(.3926 0 0 .37087 101.104 51.638)" stroke="#000" fill="none"/>
    <path d="M320.327 347.902l.046.282-4.418 1.09-.047-.282.28-.07c.246-.06.434-.162.567-.306.095-.098.158-.24.188-.426.026-.134-.003-.46-.09-.977l-1.12-6.798c-.087-.528-.164-.853-.232-.974-.066-.12-.18-.21-.336-.272-.154-.07-.35-.074-.586-.015l-.28.07-.047-.282 4.42-1.088.046.28-.28.07c-.245.06-.434.162-.567.306-.096.098-.16.24-.195.43-.026.132.004.46.09.976l1.12 6.798c.087.528.164.853.232.973.072.12.184.214.338.282.158.06.354.063.59.004l.282-.068zM313.808 339.243l.3 2.83-.226.035c-.204-.632-.403-1.076-.597-1.332-.195-.262-.444-.455-.747-.58-.17-.066-.455-.068-.854-.005l-.636.102.856 8.064c.056.534.114.864.175.99.063.126.17.23.32.31.153.075.352.093.596.054l.283-.045.03.286-4.477.71-.03-.285.284-.045c.248-.04.442-.125.582-.257.1-.09.173-.225.218-.41.033-.13.022-.46-.034-.982l-.855-8.063-.62.098c-.575.092-.977.307-1.206.647-.322.473-.49 1.104-.505 1.89l-.24.038-.3-2.83 7.678-1.217zM282.034 343.57l.285 4.313.246-.024c.38-.038.686-.138.917-.302.23-.162.42-.418.562-.765.148-.347.227-.805.24-1.373l.223-.022.348 5.276-.222.022c-.146-.988-.408-1.623-.788-1.903-.376-.285-.79-.405-1.242-.36l-.247.024.212 3.216c.034.537.08.87.134 1 .06.13.163.24.31.33.15.082.345.112.585.09l.285-.03.02.287-4.493.444-.02-.287.285-.028c.25-.026.447-.1.592-.224.105-.083.18-.214.228-.396.038-.13.04-.457.005-.983l-.456-6.912c-.035-.537-.08-.87-.137-1-.055-.13-.157-.237-.307-.32-.146-.09-.34-.124-.58-.1l-.285.028-.02-.285 7.25-.716.198 3.014-.26.025c-.106-.7-.293-1.21-.56-1.527-.264-.316-.63-.522-1.1-.616-.258-.053-.73-.045-1.414.023l-.798.08zM265.555 343.732v2.852h-.23c-.135-.658-.286-1.13-.45-1.414-.166-.29-.393-.52-.68-.692-.162-.093-.444-.14-.847-.14h-.64v8.13c0 .54.022.877.068 1.01.05.136.147.255.287.36.143.097.338.146.585.146h.285v.288h-4.513v-.288h.286c.25 0 .452-.054.605-.163.11-.072.197-.195.26-.372.048-.125.07-.45.07-.98v-8.13h-.622c-.58 0-1.003.15-1.265.45-.37.42-.602 1.02-.7 1.796h-.24v-2.852h7.742zM256.643 353.987v.288h-4.506v-.288h.285c.25 0 .45-.055.604-.163.11-.073.195-.197.254-.373.047-.124.07-.45.07-.978v-6.934c0-.54-.023-.876-.07-1.01-.047-.135-.142-.252-.285-.35-.14-.105-.33-.157-.573-.157h-.285v-.285h4.506v.286h-.286c-.25 0-.452.056-.604.164-.11.073-.197.198-.26.375-.048.122-.07.45-.07.978v6.934c0 .538.022.875.07 1.01.05.135.145.254.285.358.145.098.338.147.58.147h.285zM245.313 343.732l4.253 6.536v-4.53c0-.633-.075-1.06-.224-1.283-.203-.3-.544-.446-1.023-.436v-.288h2.847v.287c-.364.056-.61.13-.738.224-.123.09-.22.236-.293.443-.068.203-.1.552-.1 1.05v8.776h-.217l-5.83-8.776v6.7c0 .607.112 1.016.337 1.23.23.21.49.317.782.317h.203v.288h-3.058v-.288c.475-.005.805-.125.992-.357.186-.233.28-.63.28-1.19V345l-.185-.28c-.182-.28-.343-.465-.483-.553-.14-.09-.342-.138-.605-.148v-.288h3.058zM241.726 343.04l-.01.286c-.315.047-.602.238-.858.572-.187.25-.47.846-.856 1.786l-3.234 7.9-.21-.012-2.673-8.52c-.322-1.03-.542-1.633-.658-1.816-.113-.18-.336-.303-.67-.368l.01-.286 4.13.206-.01.287-.14-.007c-.373-.02-.628.025-.768.133-.1.074-.154.185-.16.335-.002.093.01.205.04.337.03.126.133.47.31 1.035l1.66 5.334 1.86-4.582c.22-.555.358-.926.41-1.115.053-.19.083-.35.087-.485.005-.157-.024-.295-.088-.418-.064-.122-.16-.217-.29-.286-.18-.097-.42-.154-.72-.17l.01-.285 2.826.14zM226.518 341.718l-.1 3.512-.26-.02c-.08-.887-.35-1.615-.805-2.182-.452-.573-.957-.88-1.515-.922-.43-.03-.782.087-1.05.353-.263.26-.403.575-.42.94-.012.235.022.444.102.632.11.252.296.507.555.765.19.185.634.52 1.332 1.008.978.678 1.63 1.3 1.954 1.863.322.564.465 1.19.432 1.885-.043.88-.362 1.617-.955 2.213-.59.59-1.315.853-2.178.79-.272-.02-.527-.072-.764-.157-.238-.086-.534-.234-.89-.447-.198-.118-.362-.182-.493-.19-.11-.01-.23.034-.356.128-.13.095-.235.246-.322.454l-.234-.018.195-3.973.233.018c.132 1.13.448 2.01.95 2.64.503.623 1.062.956 1.675 1 .474.035.86-.095 1.152-.39.3-.294.46-.652.48-1.07.012-.25-.032-.493-.13-.734-.095-.24-.246-.473-.456-.696-.212-.228-.587-.53-1.13-.907-.758-.53-1.302-.97-1.628-1.326-.327-.356-.573-.746-.74-1.167-.162-.423-.23-.88-.207-1.37.04-.84.328-1.535.86-2.087s1.18-.802 1.946-.746c.28.02.55.08.807.183.197.077.432.21.707.4.28.188.477.286.59.294.11.008.2-.026.267-.105.07-.08.138-.274.208-.586l.19.014zM220.626 341.377l-.027.284c-.318.02-.615.184-.892.493-.202.233-.522.8-.962 1.702l-3.712 7.58-.208-.03-2.143-8.743c-.258-1.055-.44-1.678-.545-1.87-.1-.19-.315-.334-.644-.43l.027-.283 4.106.584-.027.284-.14-.02c-.37-.052-.628-.03-.774.063-.104.065-.164.17-.178.32-.01.092-.002.205.02.34.02.128.103.48.243 1.06l1.33 5.47 2.134-4.398c.255-.533.416-.89.48-1.074.065-.184.103-.343.116-.476.015-.156-.006-.296-.063-.424-.055-.128-.146-.232-.27-.313-.173-.113-.41-.192-.707-.234l.027-.284 2.81.4zM210.833 340.505l-.334 2.823-.228-.04c-.057-.676-.15-1.17-.28-1.48-.13-.316-.327-.584-.593-.804-.15-.12-.422-.216-.82-.286l-.636-.113-.954 8.047c-.063.533-.08.87-.05 1.01.035.144.115.28.242.406.13.123.317.205.56.248l.284.05-.033.286-4.467-.792.034-.285.282.05c.248.044.453.025.618-.056.117-.054.218-.16.3-.324.062-.115.124-.434.186-.956l.954-8.047-.618-.11c-.574-.102-1.008-.027-1.305.225-.414.35-.714.9-.902 1.653l-.24-.04.336-2.824 7.663 1.36zM190.362 347.12l-.056.28-4.38-1.298.056-.28.278.083c.243.072.45.077.618.015.12-.04.227-.134.32-.29.068-.107.154-.417.255-.93l1.335-6.74c.104-.523.146-.857.127-1.002-.02-.144-.09-.285-.21-.422-.117-.142-.292-.247-.526-.316l-.28-.083.056-.278 4.38 1.296-.056.28-.278-.084c-.243-.072-.45-.077-.618-.015-.12.04-.23.135-.325.29-.07.105-.156.417-.258.93l-1.335 6.74c-.104.523-.145.857-.126 1 .024.147.094.29.21.43.12.138.3.24.533.31l.28.083zM187.25 336.105l-.06.277c-.318-.037-.63.075-.94.333-.227.196-.61.703-1.15 1.52l-4.546 6.864-.203-.066-1.114-9.024c-.133-1.09-.24-1.737-.324-1.946-.078-.206-.274-.384-.588-.535l.06-.278 3.996 1.286-.06.277-.135-.043c-.36-.116-.618-.14-.773-.072-.11.045-.182.14-.213.285-.02.09-.027.203-.02.34.005.13.046.495.118 1.092l.685 5.646 2.62-3.99c.315-.482.514-.81.6-.98.084-.17.14-.32.168-.45.034-.152.03-.295-.012-.432-.04-.135-.118-.253-.232-.354-.158-.142-.382-.26-.673-.354l.06-.277 2.736.88zM324.272 336.94c1.355-.278 2.512.033 3.47.93.963.9 1.526 2.123 1.69 3.676.142 1.326-.052 2.543-.58 3.65-.698 1.47-1.814 2.327-3.348 2.57-1.54.244-2.795-.205-3.77-1.347-.772-.902-1.23-2.044-1.377-3.426-.165-1.553.128-2.913.88-4.082.757-1.176 1.768-1.834 3.035-1.972zm.128.48c-.78.125-1.324.708-1.63 1.75-.246.854-.29 2.03-.13 3.532.19 1.783.585 3.06 1.188 3.832.42.54.953.758 1.595.656.434-.068.782-.255 1.044-.557.335-.388.568-.957.697-1.71.128-.757.132-1.717.008-2.878-.146-1.382-.36-2.398-.644-3.048-.282-.655-.603-1.1-.96-1.33-.355-.23-.743-.313-1.168-.246zM291.36 341.89c1.364-.198 2.507.182 3.43 1.136.924.953 1.438 2.21 1.54 3.77.09 1.333-.15 2.537-.722 3.612-.757 1.427-1.906 2.216-3.448 2.368-1.546.153-2.783-.37-3.712-1.568-.734-.946-1.147-2.114-1.24-3.504-.102-1.56.245-2.9 1.042-4.025.802-1.13 1.838-1.727 3.11-1.79zm.108.488c-.785.077-1.35.627-1.696 1.65-.28.838-.37 2.012-.272 3.52.12 1.792.465 3.092 1.036 3.898.398.565.92.814 1.568.75.434-.043.79-.208 1.063-.495.35-.366.605-.92.764-1.664.16-.75.2-1.708.124-2.875-.092-1.388-.265-2.416-.523-3.082-.255-.67-.558-1.134-.906-1.384-.344-.252-.73-.358-1.156-.316zM300.383 346.67l.31 2.928c.06.566.126.92.197 1.06.074.133.186.233.34.3.15.063.423.064.813.002l.03.285-4.374.694-.03-.286c.393-.063.656-.15.785-.257.133-.117.22-.25.258-.403.044-.152.036-.512-.024-1.078l-.72-6.783c-.06-.566-.128-.915-.202-1.05-.07-.14-.18-.243-.333-.307s-.424-.067-.815-.005l-.03-.283 3.97-.63c1.035-.164 1.8-.197 2.3-.1.496.1.92.362 1.275.786.352.42.56.947.628 1.578.08.772-.078 1.445-.478 2.02-.256.365-.636.67-1.14.91l2.43 3.214c.317.414.54.67.664.764.188.132.398.187.626.167l.03.285-2.69.427-3.262-4.327-.56.09zm-.543-5.128l.485 4.58.36-.057c.584-.093 1.014-.226 1.29-.4.276-.18.478-.453.605-.818.133-.37.17-.83.11-1.38-.084-.798-.3-1.362-.647-1.694-.342-.332-.852-.445-1.53-.338l-.673.107zM333.09 340.926l.602 2.86c.116.553.216.894.3 1.022.086.122.21.204.366.247.158.04.428 0 .81-.12l.057.28-4.27 1.343-.06-.28c.386-.12.637-.245.755-.372.12-.135.192-.28.216-.438.028-.158-.016-.514-.132-1.066l-1.393-6.625c-.115-.553-.216-.89-.303-1.01-.084-.13-.204-.216-.362-.257s-.427-.003-.81.117l-.057-.278 3.878-1.22c1.01-.317 1.766-.464 2.27-.44.504.023.952.22 1.344.588.393.364.653.855.782 1.472.158.753.067 1.444-.273 2.076-.218.4-.565.758-1.04 1.073l2.733 2.825c.356.363.6.583.735.66.2.102.414.125.64.07l.058.28-2.63.826-3.668-3.806-.547.172zm-1.05-5.007l.94 4.47.35-.11c.57-.178.983-.375 1.24-.59.256-.22.43-.52.52-.902.092-.386.083-.85-.03-1.386-.164-.78-.434-1.306-.81-1.583-.376-.28-.893-.316-1.553-.108l-.658.207zM196.584 343.62l-.364 2.92c-.07.563-.088.924-.052 1.083.04.154.127.288.258.402.132.113.392.206.783.28l-.037.284-4.36-.815.034-.285c.394.074.665.08.814.02.155-.067.27-.167.34-.3.077-.132.15-.48.222-1.044l.843-6.762c.07-.564.084-.922.044-1.076-.037-.16-.12-.296-.253-.41-.13-.112-.392-.207-.78-.28l.034-.282 3.96.738c1.03.192 1.774.42 2.23.683s.805.66 1.048 1.186c.243.523.326 1.1.248 1.73-.096.767-.402 1.36-.917 1.778-.33.264-.764.427-1.303.49l1.608 3.91c.212.504.367.824.466.958.153.19.34.314.565.372l-.035.285-2.683-.5-2.154-5.26-.56-.106zm.637-5.11l-.568 4.564.358.067c.582.11 1.026.126 1.33.052.306-.08.562-.273.768-.58.21-.312.35-.742.418-1.29.1-.795.02-1.41-.24-1.846-.254-.435-.718-.716-1.393-.842l-.672-.125zM271.105 351.225l-3.042.157-.326 1.044c-.108.347-.156.632-.15.855.01.297.115.51.315.64.118.076.4.124.85.14l.01.29-2.863.147-.01-.288c.306-.074.555-.242.745-.505.19-.27.418-.813.682-1.632l2.79-8.56.12-.007 3.404 8.475c.326.804.587 1.307.785 1.51.15.152.356.236.62.247l.01.288-4.166.215-.01-.288.17-.008c.334-.018.567-.087.7-.208.09-.087.13-.21.126-.364-.003-.094-.02-.188-.048-.285-.01-.046-.08-.238-.21-.574l-.503-1.288zm-.236-.563l-1.408-3.56-1.196 3.694 2.603-.134z"/>
  </g>
  <g fill-rule="evenodd">
    <path fill="#fff600" d="M261.08 257.953h69.556v65.707H261.08z"/>
    <path fill="#cc1900" d="M271.016 192.245h9.936v65.708h-9.936zM290.89 192.245h9.936v65.708h-9.937zM310.763 192.245h9.936v65.708h-9.937z"/>
    <path fill="#fff600" d="M261.08 192.245h9.936v65.708h-9.937zM280.953 192.245h9.936v65.708h-9.937zM300.826 192.245h9.936v65.708h-9.936zM320.7 192.245h9.936v65.708H320.7z"/>
    <path fill="#cc1900" d="M207.753 264.524h7.728v59.136h-7.727zM223.21 264.524h7.728v59.136h-7.73zM238.666 264.524h7.728v59.136h-7.728z"/>
    <path fill="#fff600" d="M200.027 264.524h7.728v59.136h-7.728zM215.483 264.524h7.728v59.136h-7.727zM230.94 264.524h7.728v59.136h-7.728zM246.396 264.524h7.73v59.136h-7.73z"/>
    <path fill="#cc1900" d="M192.296 264.524h7.73v59.136h-7.73z"/>
    <path fill="#fff600" d="M184.57 264.524h7.728v59.136h-7.728z"/>
    <path fill="#cc1900" d="M184.57 192.245h69.556v65.708H184.57z"/>
    <path d="M247.952 211.556c1.426-.382 1.634-2.28 1.853-3.843.436-3.127-2.214-6.04-5.915-6.5s-7.016 1.403-7.452 4.53l-2.882 1.1 4.015.5-4.33 1.766 5.364.666-43.233 36.11 2.367 2.6 43.232-36.11c1.14-.954.315-2.266-.945-3.344-1.486-1.27-1.105-1.522-.91-2.92.284-2.04 2.24-2.91 4.46-2.632s3.81 2.023 3.548 3.9c-.13.937-.516 2.04-1.514 2.255-1.643.81.723 3.408 2.342 1.92z" fill="#fff600"/>
    <path d="M194.88 361.42v336.61c0 35.434 16.978 53.15 50.934 53.15h118.85c33.957 0 33.957 35.433 33.957 35.433s0-35.433 33.957-35.433h118.85c33.957 0 50.935-17.716 50.935-53.15V361.42h-407.48zm17.716 17.717v177.16h177.17v-177.16h-177.17zm194.88 0v177.16h177.17v-177.16h-177.17zm-194.88 194.88v106.3c0 35.434 16.978 53.15 50.934 53.15H389.76v-159.45H212.6zm372.05 0v106.3c0 35.434-16.977 53.15-50.934 53.15H407.482v-159.45h177.16z" stroke="#000" stroke-width="1pt" fill="#cba323" transform="matrix(.3926 0 0 .37087 101.104 51.638)"/>
    <path d="M219.344 198.818l-13.91 14.08 4.28 25.344h19.26l4.28-25.344-13.91-14.08z" fill="#fff"/>
    <path d="M218.278 204.072l-10.7 10.513 4.28 21.026h6.42v-31.537zm2.14 0v31.537h6.42l4.28-21.026-10.7-10.513z" fill="#fff600"/>
    <path d="M222.825 238.24h-3.478s1.74 5.443 3.478 5.443c6.955 0 20.902-7.94 20.866-5.443 0 5.443-3.477 2.722-3.477 5.443 0 2.722 6.956 0 6.956-2.72 0-2.723 0-5.445-3.48-5.445-3.477 0-13.588 5.48-17.387 5.444-3.478 0-3.478-2.722-3.478-2.722zM215.868 238.24h3.477s-1.738 5.443-3.477 5.443c-6.956 0-20.902-7.94-20.867-5.443 0 5.443 3.48 2.722 3.48 5.443 0 2.722-6.956 0-6.956-2.72 0-2.723 0-5.445 3.477-5.445 3.48 0 13.59 5.48 17.39 5.444 3.478 0 3.478-2.722 3.478-2.722z" fill="#fffbff"/>
    <path d="M70.866 574.02c0 35.433 28.704 36.668 17.717 53.15L53.15 680.32H35.434l17.716-53.15c5.905-17.717 17.716-65.374 17.716-53.15z" transform="matrix(.14606 .025 -.0313 .11666 313.95 207.95)" stroke="#fff600" stroke-width="5" fill="#cc1900"/>
    <path d="M35.433 423.42c0 3.667 2.242 31.888 0 35.067-2.242 3.18-8.97-18.684-12.977-16.28-4.008 2.406-7.603 24.16-12.902 25.505-5.298 1.35-12.3-17.71-18.412-17.71-6.112 0-11.937 19.062-17.235 17.717-5.298-1.347-10.07-23.1-14.08-25.505-4.007-2.405-10.734 19.458-12.976 16.28-2.24-3.18 0-31.4 0-35.068 0-14.67 19.843-26.575 44.292-26.575s44.29 11.906 44.29 26.575z" transform="matrix(.11687 0 0 .0597 306.8 255.835)" stroke="#fff600" stroke-width="7.99" fill="#cc1900"/>
    <path d="M281.414 266.466c1.533.706 1.41 1.885.887 2.116-.52.23-1.243-.574-2.776-1.28s-3.3-1.05-2.778-1.28 3.135-.263 4.668.444z" fill="#008d00"/>
    <path d="M-70.866 414.57v53.15h53.15v-17.717H-53.15V414.57h-17.715z" transform="matrix(.07986 .10083 -.12624 .06378 344 258.966)" stroke="#fff600" stroke-width="5" fill="#cc1900"/>
    <path d="M70.866 574.02c0 35.433 28.704 36.668 17.717 53.15L53.15 680.32H35.434l17.716-53.15c5.905-17.717-17.716-35.434-70.866 0-12.224 0-70.866-8.964-70.866 0v53.15h-17.716v-53.15c0-6.942-35.433-53.15-35.433-70.867 0-12.224-53.15 0-53.15-17.716 0-8.86 35.432-17.717 35.432-35.433 0-17.717 35.433 0 53.15 0 0 17.716-17.717 35.433 17.716 35.433 24.45 0 177.17 0 177.17 17.716 0 17.717-17.717 5.493-17.717 17.717z" stroke="#fff600" stroke-width="5" fill="#cc1900" transform="matrix(.14938 0 0 .1193 303.117 207.958)"/>
    <path d="M288.12 289.125c1.436-.008 1.953 1.06 1.706 1.47-.247.41-1.166.006-2.603.014s-2.85.423-2.602.014 2.063-1.49 3.5-1.5zM309.29 289.125c1.437-.008 1.954 1.06 1.707 1.47-.247.41-1.166.006-2.603.014s-2.85.423-2.602.014 2.062-1.49 3.498-1.5zM284.775 286.172c1.165-.67 2.362-.04 2.457.408.096.448-.945.545-2.11 1.217s-2.014 1.664-2.11 1.216.598-2.17 1.763-2.84zM298.994 287.377c1.436-.04 1.99 1.017 1.755 1.432-.234.414-1.166.03-2.602.07s-2.835.484-2.6.07 2.01-1.535 3.446-1.573zM280.937 274.766l6.302-3.858 1.61 1.678-6.303 3.857z" fill="#008d00"/>
    <path d="M283.554 277.5c0 .583-.36 1.057-.804 1.057s-.804-.474-.804-1.057.36-1.057.804-1.057.804.473.804 1.057z" fill="#008d00"/>
    <path d="M47.995 681.85c34.086.02 34.086 12.9 19.835 12.9-19.835 0-67.83 4.38-67.83 3.28 0-1.102-16.484-14.202-16.484-14.202-1.232-3.513 1.177 14.128-1.232 14.203-2.41.075-16.43-15.38-16.43-15.38s1.288 15.232 0 15.307c-1.287.074-17.66-9.42-17.66-9.42l-1.178 8.242-15.306 9.42 15.306 10.596v8.242l15.306-8.242 1.178 15.306 18.84-15.306s4.763 16.3 2.353 16.484c-2.41.185 16.484-16.484 16.484-16.484-1.178-1.05 54.051 0 87.405-1.05 33.355-1.048 32.747-51.937 17.717-53.15-15.033-1.213-58.306 3.33-58.306-.203" transform="matrix(.07764 0 0 .08915 307.33 214.508)" stroke="#fff600" stroke-width="5.055" fill="#cc1900"/>
    <g>
      <path d="M70.866 574.02c0 35.433 28.704 36.668 17.717 53.15L53.15 680.32H35.434l17.716-53.15c5.905-17.717 17.716-65.374 17.716-53.15z" transform="matrix(.14606 .025 -.0313 .11666 313.95 234.232)" stroke="#fff600" stroke-width="5" fill="#cc1900"/>
      <path d="M35.433 423.42c0 3.667 2.242 31.888 0 35.067-2.242 3.18-8.97-18.684-12.977-16.28-4.008 2.406-7.603 24.16-12.902 25.505-5.298 1.35-12.3-17.71-18.412-17.71-6.112 0-11.937 19.062-17.235 17.717-5.298-1.347-10.07-23.1-14.08-25.505-4.007-2.405-10.734 19.458-12.976 16.28-2.24-3.18 0-31.4 0-35.068 0-14.67 19.843-26.575 44.292-26.575s44.29 11.906 44.29 26.575z" transform="matrix(.11687 0 0 .0597 306.8 282.12)" stroke="#fff600" stroke-width="7.99" fill="#cc1900"/>
      <path d="M281.414 292.75c1.533.706 1.41 1.885.887 2.116-.52.23-1.243-.574-2.776-1.28s-3.3-1.05-2.778-1.28 3.135-.264 4.668.443z" fill="#008d00"/>
      <path d="M-70.866 414.57v53.15h53.15v-17.717H-53.15V414.57h-17.715z" transform="matrix(.07986 .10083 -.12624 .06378 344 285.25)" stroke="#fff600" stroke-width="5" fill="#cc1900"/>
      <path d="M70.866 574.02c0 35.433 28.704 36.668 17.717 53.15L53.15 680.32H35.434l17.716-53.15c5.905-17.717-17.716-35.434-70.866 0-12.224 0-70.866-8.964-70.866 0v53.15h-17.716v-53.15c0-6.942-35.433-53.15-35.433-70.867 0-12.224-53.15 0-53.15-17.716 0-8.86 35.432-17.717 35.432-35.433 0-17.717 35.433 0 53.15 0 0 17.716-17.717 35.433 17.716 35.433 24.45 0 177.17 0 177.17 17.716 0 17.717-17.717 5.493-17.717 17.717z" stroke="#fff600" stroke-width="5" fill="#cc1900" transform="matrix(.14938 0 0 .1193 303.117 234.24)"/>
      <path d="M288.12 315.41c1.436-.01 1.953 1.06 1.706 1.468-.247.41-1.166.007-2.603.015s-2.85.424-2.602.014 2.063-1.49 3.5-1.498zM309.29 315.41c1.437-.01 1.954 1.06 1.707 1.468-.247.41-1.166.007-2.603.015s-2.85.424-2.602.014 2.062-1.49 3.498-1.498zM284.775 312.456c1.165-.672 2.362-.04 2.457.407.096.45-.945.545-2.11 1.217s-2.014 1.665-2.11 1.217.598-2.17 1.763-2.84zM298.994 313.66c1.436-.04 1.99 1.018 1.755 1.433-.234.415-1.166.03-2.602.07s-2.835.485-2.6.07 2.01-1.534 3.446-1.573zM280.937 301.05l6.302-3.858 1.61 1.677-6.303 3.857z" fill="#008d00"/>
      <path d="M283.554 303.783c0 .584-.36 1.057-.804 1.057s-.804-.473-.804-1.057.36-1.057.804-1.057.804.474.804 1.057z" fill="#008d00"/>
      <path d="M47.995 681.85c34.086.02 34.086 12.9 19.835 12.9-19.835 0-67.83 4.38-67.83 3.28 0-1.102-16.484-14.202-16.484-14.202-1.232-3.513 1.177 14.128-1.232 14.203-2.41.075-16.43-15.38-16.43-15.38s1.288 15.232 0 15.307c-1.287.074-17.66-9.42-17.66-9.42l-1.178 8.242-15.306 9.42 15.306 10.596v8.242l15.306-8.242 1.178 15.306 18.84-15.306s4.763 16.3 2.353 16.484c-2.41.185 16.484-16.484 16.484-16.484-1.178-1.05 54.051 0 87.405-1.05 33.355-1.048 32.747-51.937 17.717-53.15-15.033-1.213-58.306 3.33-58.306-.203" transform="matrix(.07764 0 0 .08915 307.33 240.792)" stroke="#fff600" stroke-width="5.055" fill="#cc1900"/>
    </g>
  </g>
</svg>
