<svg viewBox="0 0 512 512" xmlns="http://www.w3.org/2000/svg" xmlns:xlink="http://www.w3.org/1999/xlink"><clipPath id="a"><path d="m109 47.6h464.8v464.9h-464.8z"/></clipPath><g clip-path="url(#a)" fill-rule="evenodd" transform="matrix(1.1014 0 0 1.1014 -120 -52.4)"><path d="m0 47.6h693v464.4h-693z" fill="#fff"/><path d="m1.5 48.2h690.9v196.2h-690.9z"/><path d="m128.3 232.1h458.5v103.4h-458.5z" fill="#0061ff"/><path d="m692.5 49.2v463.3h-345.5zm-691.3 0v463.3h345.7l-345.7-463.3z" fill="#e20000"/><path d="m508.8 232.2-69.3-17.6 59-44.4-72.5 10.3 37.3-63-64.1 37.2 11.3-73.5-43.4 58-17.6-67.3-19.6 69.3-43.4-59 12.4 75.6-64.1-39.3 37.2 63-70.3-11.3 57.9 43.4-72.4 18.6z" fill="#ffd600"/></g></svg>