<?xml version="1.0" encoding="UTF-8" standalone="no"?>
<!-- Created with Sodipodi ("http://www.sodipodi.com/") -->
<svg id="svg548" xmlns:rdf="http://www.w3.org/1999/02/22-rdf-syntax-ns#" xmlns="http://www.w3.org/2000/svg" height="512" width="512" version="1.1" xmlns:cc="http://creativecommons.org/ns#" xmlns:dc="http://purl.org/dc/elements/1.1/">
 <metadata id="metadata3794">
  <rdf:RDF>
   <cc:Work rdf:about="">
    <dc:format>image/svg+xml</dc:format>
    <dc:type rdf:resource="http://purl.org/dc/dcmitype/StillImage"/>
   </cc:Work>
  </rdf:RDF>
 </metadata>
 <defs id="defs550">
  <clipPath id="clipPath5279" clipPathUnits="userSpaceOnUse">
   <rect id="rect5281" height="464.86" width="464.86" y="47.6" x="108.95" fill="#25ff01"/>
  </clipPath>
 </defs>
 <g id="flag" clip-path="url(#clipPath5279)" fill-rule="evenodd" transform="matrix(1.1014 0 0 1.1014 -120 -52.427)">
  <rect id="rect556" height="464.4" width="693" y="47.6" x="0" stroke-width="1pt" fill="#fff"/>
  <rect id="rect1050" height="196.2" width="690.83" y="48.161" x="1.5302" stroke-width="1pt"/>
  <rect id="rect1049" height="103.35" width="458.52" y="232.12" x="128.29" stroke-width="1pt" fill="#0061ff"/>
  <path id="path1047" d="m692.53 49.191v463.27h-345.67l345.67-463.27z" fill="#e20000"/>
  <path id="path1048" d="m1.1886 49.191v463.27h345.67l-345.67-463.27z" fill="#e20000"/>
  <path id="path1051" d="m508.78 232.22-69.285-17.58 58.944-44.467-72.387 10.341 37.228-63.08-64.115 37.228 11.375-73.422-43.432 57.91-17.58-67.217-19.648 69.285-43.433-58.944 12.409 75.491-64.114-39.297 37.228 63.08-70.319-11.375 57.91 43.433-72.388 18.614h321.61z" fill="#ffd600"/>
 </g>
</svg>
