<svg viewBox="0 0 512 512" xmlns="http://www.w3.org/2000/svg" xmlns:xlink="http://www.w3.org/1999/xlink"><clipPath id="a"><path d="m0 0h512v512h-512z"/></clipPath><g clip-path="url(#a)"><path d="m-167.9.5h429.6v256h-429.7z" fill="#fff" fill-rule="evenodd"/><path d="m-167.9.5v19.2l102.5 63.2 38.6 1.3-141-83.8z" fill="#c00"/><path d="m-124 .5 124.3 77.9v-78h-124.3z" fill="#006"/><path d="m16.9.5v99.4h-184.9v56.9h185v99.4h56.8v-99.4h184.7v-56.9h-184.8v-99.5h-56.8z" fill="#c00"/><path d="m90.3.5v73.4l121.5-72.9-121.5-.6z" fill="#006"/><path d="m94.1 81.9 34.2-.4 132.8-80.5-35.2.7-131.9 80.3z" fill="#c00"/><path d="m259.8 22.5-101.5 60.4 100.1.4v90h-85.2l84.4 55 1.3 28-45.1-.7-123.5-72.8v73.4h-90v-73.4l-115.8 73.2-52.3.2v255.8h852.5v-511.6l-424-.4m-428.7 28.9-.4 53 89.8 1.4-89.3-54.4zm0 144.4v54.5l85.3-53.9z" fill="#006"/><path d="m160.4 175.6-35.5-.3 134 80-.9-18.3-97.5-61.4zm-295 81 125.6-79-33 .3-125.9 78.8" fill="#c00"/><path d="m368.6 245.1 2.2 2.2z" fill="#49497d"/><path d="m370.8 245.1 2.1 2.2z" fill="#0e0e6e"/><path d="m364.3 247.3 2.1 2.1z" fill="#262678"/><path d="m366.4 247.3 2.2 2.1z" fill="#808067"/><path d="m373 247.3 2.1 2.1-2.2-2.1z" fill="#58587b"/><path d="m292.8 249.4 2.2 2.2z" fill="#0e0e6e"/><path d="m360 249.4 2.1 2.2-2.2-2.2z" fill="#1b1b74"/><path d="m362.1 249.4 2.2 2.2z" fill="#6e6c70"/><path d="m296.6 253.4c0 56-6.4 119 35.3 162.8 8.6 9 24.9 29.6 38.9 28.8 14.6-.9 33.5-22.5 41.8-33.1 36.4-47.9 30.6-104.9 31.8-160.2-16.4 7.4-24.6 9.8-38.9 9.8-10.6 1-27-6-36.8-10.8a57.3 57.3 0 0 1 -32.4 10c-19.2.8-25.3-2.4-39.7-7.3z" fill="#cc3"/><path d="m375.1 249.4 2.2 2.2z" fill="#99994e"/><path d="m377.3 249.4 2.1 2.2z" fill="#49497d"/><path d="m444.4 249.4 2.2 2.2z" fill="#0e0e6e"/><path d="m295 251.6 2.2 2.2z" fill="#a4a43d"/><path d="m297.1 251.6 2.2 2.2z" fill="#6e6c70"/><path d="m299.3 251.6 2.2 2.2z" fill="#3a3a7c"/><path d="m355.6 251.6 2.2 2.2z" fill="#1b1b74"/><path d="m357.8 251.6 2.1 2.2z" fill="#6e6c70"/><path d="m360 251.6 2.1 2.2-2.2-2.2z" fill="#a4a43d"/><path d="m368.6 251.6 2.2 2.2z" fill="#d0d045"/><path d="m377.3 251.6 2.1 2.2z" fill="#a4a43d"/><path d="m379.4 251.6 2.2 2.2z" fill="#8d8d5b"/><path d="m381.6 251.6 2.2 2.2z" fill="#3a3a7c"/><path d="m437.9 251.6 2.2 2.2z" fill="#262678"/><path d="m440 251.6 2.2 2.2-2.1-2.2z" fill="#53527c"/><path d="m442.2 251.6 2.2 2.2z" fill="#8d8d5b"/><path d="m303.6 253.8 2.2 2.1z" fill="#737370"/><path d="m305.8 253.8 2.2 2.1z" fill="#53527c"/><path d="m308 253.8 2.1 2.1z" fill="#1b1b74"/><path d="m351.3 253.8 2.2 2.1z" fill="#262678"/><path d="m353.4 253.8 2.2 2.1z" fill="#6e6c70"/><path d="m355.6 253.8 2.2 2.1z" fill="#a4a43d"/><path d="m366.4 253.8 2.2 2.1z" fill="#e5e59d"/><path d="m301 259.4c-1.1 29.4-.2 62.5 4.4 94 5 16.4 4.4 25.4 12 35.3l105.6-.8a97 97 0 0 0 11.7-32.3c6-31.8 6-66.9 6.2-98.2a65.6 65.6 0 0 1 -38 7.9 73.7 73.7 0 0 1 -32.5-9.9c-10.1 6-13.7 8.8-30.4 9.5-13 .7-23.5 1.7-39-5.5z" fill="#fff"/><path d="m370.8 253.8 2.1 2.1z" fill="#f2f1d7"/><path d="m373 253.8 2.1 2.1-2.2-2.1z" fill="#d9d868"/><path d="m381.6 253.8 2.2 2.1z" fill="#a4a43d"/><path d="m383.8 253.8 2.1 2.1z" fill="#99994e"/><path d="m386 253.8 2.1 2.1-2.2-2.1z" fill="#49497d"/><path d="m388.1 253.8 2.2 2.1z" fill="#0e0e6e"/><path d="m431.4 253.8 2.2 2.1z" fill="#3a3a7c"/><path d="m433.6 253.8 2.1 2.1z" fill="#667"/><path d="m435.7 253.8 2.2 2.1z" fill="#99994e"/><path d="m437.9 253.8 2.2 2.1zm-130 2.1 2.2 2.2-2.1-2.2z" fill="#a4a43d"/><path d="m310.1 256 2.2 2.1-2.2-2.2z" fill="#99994e"/><path d="m312.3 256 2.2 2.1-2.2-2.2z" fill="#6e6c70"/><path d="m314.5 256 2.1 2.1-2.1-2.2z" fill="#49497d"/><path d="m316.6 256 2.2 2.1-2.2-2.2m28.2 0 2.1 2.2z" fill="#1b1b74"/><path d="m347 256 2.1 2.1-2.2-2.2z" fill="#53527c"/><path d="m349.1 256 2.2 2.1-2.2-2.2z" fill="#8d8d5b"/><path d="m351.3 256 2.2 2.1-2.2-2.2z" fill="#a4a43d"/><path d="m362.1 256 2.2 2.1-2.2-2.2z" fill="#e5e59d"/><path d="m364.3 256 2.1 2.1-2.1-2.2z" fill="#fbfaf2"/><path d="m375.1 256 2.2 2.1-2.2-2.2z" fill="#f2f1d2"/><path d="m377.3 256 2.1 2.1-2.1-2.2z" fill="#d9d868"/><path d="m388.1 256 2.2 2.1-2.2-2.2z" fill="#a4a43d"/><path d="m390.3 256 2.1 2.1-2.1-2.2z" fill="#6e6c70"/><path d="m392.4 256 2.2 2.1-2.2-2.2z" fill="#3a3a7c"/><path d="m420.6 256 2.1 2.1-2.1-2.2z" fill="#0e0e6e"/><path d="m422.8 256 2.1 2.1-2.1-2.2z" fill="#32327b"/><path d="m425 256 2 2.1-2-2.2z" fill="#58587b"/><path d="m427 256 2.2 2.1-2.1-2.2z" fill="#808067"/><path d="m430.7 256.6 1.4.8-1.4-.7z" fill="#a4a43d"/><path d="m299.3 258.1 2.2 2.2z" fill="#dddc7a"/><path d="m301.5 258.1 2.2 2.2z" fill="#d0d045"/><path d="m318 258.8 1.5.7-1.4-.7z" fill="#a4a43d"/><path d="m321 258.1 2.1 2.2z" fill="#808067"/><path d="m323.1 258.1 2.2 2.2z" fill="#667"/><path d="m325.3 258.1 2.2 2.2z" fill="#58587b"/><path d="m327.5 258.1 2.1 2.2z" fill="#49497d"/><path d="m340.5 258.1 2.1 2.2z" fill="#737370"/><path d="m342.6 258.1 2.2 2.2z" fill="#99994e"/><path d="m344.8 258.1 2.2 2.2z" fill="#a4a43d"/><path d="m357.8 258.1 2.1 2.2z" fill="#e5e59d"/><path d="m360 258.1 2.1 2.2-2.2-2.2z" fill="#fbfaf2"/><path d="m379.4 258.1 2.2 2.2z" fill="#f2f1d2"/><path d="m381.6 258.1 2.2 2.2z" fill="#d9d868"/><path d="m393.9 258.8 1.4.7z" fill="#a4a43d"/><path d="m396.8 258.1 2.1 2.2z" fill="#808067"/><path d="m399 258.1 2 2.2z" fill="#667"/><path d="m401.1 258.1 2.2 2.2z" fill="#58587b"/><path d="m403.3 258.1 2.1 2.2z" fill="#3a3a7c"/><path d="m413.4 258.8 1.4.7z" fill="#58587b"/><path d="m416.3 258.1 2.1 2.2z" fill="#737370"/><path d="m418.4 258.1 2.2 2.2z" fill="#99994e"/><path d="m420.6 258.1 2.1 2.2z" fill="#a4a43d"/><path d="m437.9 258.1 2.2 2.2z" fill="#dddc7a"/><path d="m440 258.1 2.2 2.2-2.1-2.2z" fill="#d0d045"/><path d="m303.6 260.3 2.2 2.1z" fill="#f2f1d7"/><path d="m305.8 260.3 2.2 2.1z" fill="#e0dea1"/><path d="m308 260.3 2.1 2.1z" fill="#dddc7a"/><path d="m351.3 260.3 2.2 2.1z" fill="#d9d868"/><path d="m353.4 260.3 2.2 2.1z" fill="#e5e3af"/><path d="m383.8 260.3 2.1 2.1z" fill="#f6f6e4"/><path d="m386 260.3 2.1 2.1-2.2-2.1z" fill="#e1e18c"/><path d="m429.2 260.3 2.2 2.1z" fill="#d4d456"/><path d="m431.4 260.3 2.2 2.1z" fill="#e1e18c"/><path d="m433.6 260.3 2.1 2.1z" fill="#eeedc1"/><path d="m312.3 262.4 2.2 2.2z" fill="#f2f1d2"/><path d="m314.5 262.4 2.1 2.2z" fill="#e0dea1"/><path d="m316.6 262.4 2.2 2.2z" fill="#dddc7a"/><path d="m318.8 262.4 2.2 2.2z" fill="#d0d045"/><path d="m344.8 262.4 2.2 2.2z" fill="#dddc7a"/><path d="m347 262.4 2.1 2.2-2.2-2.2z" fill="#e5e3af"/><path d="m349.1 262.4 2.2 2.2z" fill="#f6f6e4"/><path d="m390.3 262.4 2.1 2.2z" fill="#eeedc1"/><path d="m392.4 262.4 2.2 2.2z" fill="#e1e18c"/><path d="m394.6 262.4 2.2 2.2z" fill="#d4d456"/><path d="m420.6 262.4 2.1 2.2z" fill="#d9d868"/><path d="m422.8 262.4 2.1 2.2z" fill="#e1e18c"/><path d="m425 262.4 2 2.2z" fill="#eeedc1"/><path d="m427 262.4 2.2 2.2-2.1-2.2z" fill="#f6f6e4"/><path d="m323.1 264.6 2.2 2.2z" fill="#f2f1d7"/><path d="m325.3 264.6 2.2 2.2z" fill="#f2f1d2"/><path d="m327.5 264.6 2.1 2.2z" fill="#eeedc1"/><path d="m337.6 265.3 1.4.7z" fill="#f2f1d2"/><path d="m340.5 264.6 2.1 2.2z" fill="#fbfaf2"/><path d="m351.3 264.6 4.3 4.3v-4.3z" fill="#fef8f1"/><path d="m399 264.6 2 2.2z" fill="#f2f1d7"/><path d="m401.1 264.6 2.2 2.2z" fill="#f2f1d2"/><path d="m403.3 264.6 2.1 2.2z" fill="#e5e3af"/><path d="m406.9 265.3 1.4.7z" fill="#e5e59d"/><path d="m409.8 264.6 2.1 2.2z" fill="#e0dea1"/><path d="m413.4 265.3 1.4.7z" fill="#f2f1d2"/><path d="m416.3 264.6 2.1 2.2z" fill="#fbfaf2"/><path d="m347 266.8 2.1 2.1-2.2-2.1z" fill="#fef8f1"/><path d="m349.1 266.8 2.2 2.1z" fill="#fbbe66"/><path d="m347 269 2.1 2-2.2-2z" fill="#fbc477"/><path d="m351.3 269 2.2 2z" fill="#fcb144"/><path d="m347 271.1 2.1 2.2-2.2-2.2z" fill="#fe9f11"/><path d="m351.3 271.1 2.2 2.2z" fill="#fea522"/><path d="m344.8 273.3 2.2 2.1zm8.7 0 2.1 2.1z" fill="#fae3c9"/><path d="m364.3 273.3 2.1 2.1z" fill="#fbead6"/><path d="m366.4 273.3 2.2 2.1z" fill="#f9d6aa"/><path d="m375.1 273.3 2.2 2.1z" fill="#fae3c9"/><path d="m377.3 273.3 2.1 2.1z" fill="#fef8f1"/><path d="m344.8 275.4 2.2 2.2z" fill="#f9d099"/><path d="m353.4 275.4 2.2 2.2z" fill="#fdab33"/><path d="m357.8 275.4 2.1 2.2z" fill="#fcf1e4"/><path d="m360 275.4 2.1 2.2-2.2-2.2z" fill="#fbc477"/><path d="m362.1 275.4 2.2 2.2z" fill="#fea522"/><path d="m379.4 275.4 2.2 2.2z" fill="#fcb755"/><path d="m381.6 275.4 2.2 2.2z" fill="#f9d6aa"/><path d="m344.8 277.6 2.2 2.2z" fill="#faca88"/><path d="m355.6 277.6 2.2 2.2zm28.2 0 2.1 2.2z" fill="#fea522"/><path d="m386 277.6 2.1 2.2-2.2-2.2z" fill="#f8dcbb"/><path d="m299.3 279.8 2.2 2.1z" fill="#f6f6e4"/><path d="m344.8 279.8 2.2 2.1z" fill="#fbc477"/><path d="m388.1 279.8 2.2 2.1z" fill="#fbbe66"/><path d="m390.3 279.8 2.1 2.1z" fill="#f8dcbb"/><path d="m344.8 282 2.2 2z" fill="#faca88"/><path d="m394.6 282 2.2 2z" fill="#fcb755"/><path d="m396.8 282 2.1 2z" fill="#f8dcbb"/><path d="m342.6 284 2.2 2.2-2.2-2.1z" fill="#fef8f1"/><path d="m344.8 284 2.2 2.2-2.2-2.1z" fill="#fe9f11"/><path d="m405.4 284 2.2 2.2-2.2-2.1z" fill="#fdab33"/><path d="m407.6 284 2.1 2.2-2.1-2.1z" fill="#fcb144"/><path d="m409.8 284 2.1 2.2-2.1-2.1z" fill="#fbc477"/><path d="m412 284 4.3 4.4-4.4-4.3z" fill="#f9d6aa"/><path d="m414 284 2.2 2.2-2.1-2.1z" fill="#fef8f1"/><path d="m342.6 286.3 2.2 2.1z" fill="#fcb144"/><path d="m373 286.3 2.1 2.1-2.2-2.1z" fill="#fdab33"/><path d="m375.1 286.3 2.2 2.1zm8.7 0 2.1 2.1z" fill="#fbc477"/><path d="m386 286.3 2.1 2.1-2.2-2.1z" fill="#fea522"/><path d="m340.5 288.4 2.1 2.2z" fill="#fae3c9"/><path d="m368.6 288.4 2.2 2.2z" fill="#fcb144"/><path d="m370.8 288.4 2.1 2.2z" fill="#fae3c9"/><path d="m388.1 288.4 2.2 2.2z" fill="#f8dcbb"/><path d="m390.3 288.4 2.1 2.2z" fill="#fdab33"/><path d="m403.3 288.4 2.1 2.2z" fill="#fe9f11"/><path d="m405.4 288.4 2.2 2.2z" fill="#fcb755"/><path d="m407.6 288.4 2.1 2.2z" fill="#f9d099"/><path d="m409.8 288.4 2.1 2.2z" fill="#fbead6"/><path d="m340.5 290.6 2.1 2.1z" fill="#fcb144"/><path d="m366.4 290.6 2.2 2.1z" fill="#fbbe66"/><path d="m392.4 290.6 2.2 2.1z" fill="#f9d099"/><path d="m401.1 290.6 2.2 2.1z" fill="#fbead6"/><path d="m338.3 292.8 2.2 2.1z" fill="#fcf1e4"/><path d="m364.3 292.8 2.1 2.1z" fill="#fbbe66"/><path d="m394.6 292.8 2.2 2.1z" fill="#f9d099"/><path d="m401.1 292.8 2.2 2.1z" fill="#fae3c9"/><path d="m338.3 295 2.2 2z" fill="#fbc477"/><path d="m362.1 295 2.2 2zm34.7 0 2.1 2z" fill="#fcb144"/><path d="m401.1 295 2.2 2z" fill="#fbbe66"/><path d="m299.3 297 2.2 2.2-2.2-2.1z" fill="#f6f6e4"/><path d="m338.3 297 2.2 2.2-2.2-2.1z" fill="#fea522"/><path d="m362.1 297 2.2 2.2-2.2-2.1z" fill="#fbead6"/><path d="m396.8 297 2.1 2.2-2.1-2.1z" fill="#fcf1e4"/><path d="m403.3 297 2.1 2.2-2.1-2.1z" fill="#fef8f1"/><path d="m336.1 299.3 2.2 2.1z" fill="#fcf1e4"/><path d="m360 299.3 2.1 2.1-2.2-2.1z" fill="#fbbe66"/><path d="m399 299.3 2 2.1z" fill="#faca88"/><path d="m403.3 299.3 2.1 2.1z" fill="#f9d099"/><path d="m336.1 301.4 2.2 2.2z" fill="#f9d6aa"/><path d="m360 301.4 2.1 2.2-2.2-2.2z" fill="#fcf1e4"/><path d="m370.8 301.4 2.1 2.2z" fill="#fae3c9"/><path d="m373 301.4 2.1 2.2-2.2-2.2z" fill="#fea522"/><path d="m375.1 301.4 2.2 2.2z" fill="#fcb144"/><path d="m377.3 301.4 2.1 2.2z" fill="#f9d6aa"/><path d="m399 301.4 2 2.2z" fill="#fef8f1"/><path d="m401.1 301.4 2.2 2.2z" fill="#fea522"/><path d="m403.3 301.4 2.1 2.2z" fill="#fdab33"/><path d="m336.1 303.6-2.1 6.4 2.1-6.5z" fill="#faca88"/><path d="m357.8 303.6 2.1 2.1z" fill="#fea522"/><path d="m360 303.6 2.1 2.1-2.2-2.1z" fill="#fef8f1"/><path d="m370.8 303.6 2.1 2.1z" fill="#f9d099"/><path d="m379.4 303.6 2.2 2.1z" fill="#fdab33"/><path d="m381.6 303.6 2.2 2.1z" fill="#fae3c9"/><path d="m401.1 303.6 2.2 2.1z" fill="#f8dcbb"/><path d="m403.3 303.6 2.1 2.1z" fill="#f90"/><path d="m406.1 305 .8 1.5z" fill="#fbead6"/><path d="m362.1 305.7 2.2 2.2z" fill="#fea522"/><path d="m364.3 305.7 2.1 2.2z" fill="#fbbe66"/><path d="m366.4 305.7 2.2 2.2z" fill="#faca88"/><path d="m368.6 305.7 2.2 2.2z" fill="#fcb144"/><path d="m370.8 305.7 2.1 2.2z" fill="#fae3c9"/><path d="m373 305.7 2.1 2.2-2.2-2.2z" fill="#fe9f11"/><path d="m383.8 305.7 2.1 2.2z" fill="#fdab33"/><path d="m386 305.7 2.1 2.2-2.2-2.2z" fill="#fbc477"/><path d="m388.1 305.7 2.2 2.2z" fill="#faca88"/><path d="m390.3 305.7 2.1 2.2z" fill="#f9d6aa"/><path d="m393.9 306.5 1.4.7z" fill="#fae3c9"/><path d="m396.8 305.7 2.1 2.2z" fill="#fef8f1"/><path d="m403.3 305.7 2.1 2.2z" fill="#fbc477"/><path d="m310.1 307.9 2.2 2.2z" fill="#fef8f1"/><path d="m312.3 307.9 2.2 2.2z" fill="#fcf1e4"/><path d="m368.6 307.9 2.2 2.2z" fill="#fcb755"/><path d="m373 307.9 2.1 2.2-2.2-2.2z" fill="#fbead6"/><path d="m375.1 307.9 2.2 2.2z" fill="#fea522"/><path d="m392.4 307.9 2.2 2.2z" fill="#fe9f11"/><path d="m394.6 307.9-2.2 4.3z" fill="#fcb144"/><path d="m399 307.9 2 2.2z" fill="#fe9f11"/><path d="m401.1 307.9 2.2 2.2z" fill="#fbbe66"/><path d="m403.3 307.9 2.1 2.2z" fill="#fcf1e4"/><path d="m310.1 310 2.2 2.2-2.2-2.1z" fill="#fae3c9"/><path d="m312.3 310 4.3 4.4-4.3-4.3z" fill="#fe9f11"/><path d="m314.5 310 2.1 2.2-2.1-2.1zm19.5 0 2.1 2.2-2.1-2.1z" fill="#fbead6"/><path d="m336.1 310 2.2 2.2-2.2-2.1z" fill="#fae3c9"/><path d="m355.6 310 2.2 2.2-2.2-2.1z" fill="#fe9f11"/><path d="m357.8 310 2.1 2.2-2.1-2.1z" fill="#fbc477"/><path d="m360 310 2.1 2.2-2.2-2.1z" fill="#fea522"/><path d="m366.4 310 2.2 2.2-2.2-2.1z" fill="#fbc477"/><path d="m368.6 310 2.2 2.2-2.2-2.1z" fill="#fef8f1"/><path d="m377.3 310 2.1 2.2-2.1-2.1z" fill="#fbc477"/><path d="m394.6 310 2.2 2.2-2.2-2.1z" fill="#fff"/><path d="m396.8 310 2.1 2.2-2.1-2.1z" fill="#fdab33"/><path d="m405.4 310 2.2 2.2-2.2-2.1z" fill="#fbc477"/><path d="m310.1 312.2 2.2 2.2z" fill="#fef8f1"/><path d="m316.6 312.2 2.2 2.2z" fill="#fbead6"/><path d="m327.5 312.2 2.1 2.2z" fill="#f9d6aa"/><path d="m338.3 312.2 2.2 2.2z" fill="#fe9f11"/><path d="m342 313 1.4.7-1.5-.7z" fill="#f9d6aa"/><path d="m355.6 312.2 2.2 2.2z" fill="#f8dcbb"/><path d="m362.1 312.2 2.2 2.2z" fill="#fcf1e4"/><path d="m379.4 312.2 2.2 2.2z" fill="#f9d6aa"/><path d="m394.6 312.2 2.2 2.2z" fill="#fdab33"/><path d="m407.6 312.2 2.1 2.2z" fill="#fcb755"/><path d="m409.8 312.2 2.1 2.2z" fill="#fef8f1"/><path d="m292.8 314.4 2.2 2.2z" fill="#53527c"/><path d="m312.3 314.4 2.2 2.2z" fill="#fcb755"/><path d="m316.6 314.4 2.2 2.2z" fill="#fea522"/><path d="m325.3 314.4 2.2 2.2z" fill="#fbead6"/><path d="m329.6 314.4 2.2 2.2z" fill="#fe9f11"/><path d="m331.8 314.4 2.2 2.2z" fill="#fcf1e4"/><path d="m338.3 314.4 2.2 2.2z" fill="#fbbe66"/><path d="m340.5 314.4 2.1 2.2z" fill="#fbc477"/><path d="m342.6 314.4 2.2 2.2z" fill="#fbbe66"/><path d="m353.4 314.4 2.2 2.2z" fill="#fea522"/><path d="m381.6 314.4 2.2 2.2z" fill="#f9d6aa"/><path d="m409.8 314.4 2.1 2.2z" fill="#fcb144"/><path d="m444.4 314.4 2.2 2.2z" fill="#8d8d5b"/><path d="m299.3 316.6 2.2 2.1z" fill="#e5e3af"/><path d="m312.3 316.6 2.2 2.1z" fill="#f8dcbb"/><path d="m318.8 316.6 2.2 2.1z" fill="#fdab33"/><path d="m325.3 316.6 2.2 2.1z" fill="#fe9f11"/><path d="m329.6 316.6 2.2 2.1z" fill="#faca88"/><path d="m338.3 316.6 2.2 2.1z" fill="#fcf1e4"/><path d="m353.4 316.6 2.2 2.1zm30.4 0 2.1 2.1z" fill="#f9d099"/><path d="m412 316.6 2 2.1z" fill="#fbbe66"/><path d="m314.5 318.7 2.1 2.2z" fill="#fea522"/><path d="m321 318.7 2.1 2.2z" fill="#fdab33"/><path d="m323.1 318.7 2.2 2.2z" fill="#fea522"/><path d="m327.5 318.7 2.1 2.2z" fill="#fe9f11"/><path d="m329.6 318.7 2.2 2.2z" fill="#fef8f1"/><path d="m340.5 318.7 2.1 2.2z" fill="#fbbe66"/><path d="m353.4 318.7 2.2 2.2z" fill="#fef8f1"/><path d="m386 318.7 2.1 2.2-2.2-2.2z" fill="#fbbe66"/><path d="m414 318.7 2.2 2.2-2.1-2.2z" fill="#f9d099"/><path d="m314.5 320.9 2.1 2.2z" fill="#f9d6aa"/><path d="m327.5 320.9 2.1 2.2z" fill="#f9d099"/><path d="m340.5 320.9 2.1 2.2z" fill="#fcf1e4"/><path d="m351.3 320.9 2.2 2.2zm36.8 0 2.2 2.2z" fill="#fdab33"/><path d="m416.3 320.9 2.1 2.2z" fill="#fbead6"/><path d="m316.6 323 2.2 2.2-2.2-2.1z" fill="#fea522"/><path d="m325.3 323 2.2 2.2-2.2-2.1z" fill="#fe9f11"/><path d="m342.6 323 2.2 2.2-2.2-2.1z" fill="#fcb144"/><path d="m351.3 323 2.2 2.2-2.2-2.1z" fill="#faca88"/><path d="m388.1 323 2.2 2.2-2.2-2.1z" fill="#f8dcbb"/><path d="m416.3 323 2.1 2.2-2.1-2.1z" fill="#fcb144"/><path d="m299.3 325.2 2.2 2.2z" fill="#d3d079"/><path d="m316.6 325.2 2.2 2.2zm26 0 2.2 2.2z" fill="#faca88"/><path d="m351.3 325.2 2.2 2.2zm36.8 0 2.2 2.2z" fill="#fae3c9"/><path d="m418.4 325.2 2.2 2.2z" fill="#f8dcbb"/><path d="m437.9 325.2 2.2 2.2z" fill="#f2f1d7"/><path d="m445.1 326.7.7 1.4z" fill="#58587b"/><path d="m300 328.9.7 1.4z" fill="#d9d868"/><path d="m316.6 327.4 2.2 2.2z" fill="#f8dcbb"/><path d="m386 327.4 2.1 2.2-2.2-2.2z" fill="#f9d6aa"/><path d="m388.1 327.4 2.2 2.2z" fill="#fe9f11"/><path d="m418.4 327.4 2.2 2.2z" fill="#fcb144"/><path d="m438.6 328.9.7 1.4z" fill="#f2f1d2"/><path d="m316.6 329.6 2.2 2.1z" fill="#fcf1e4"/><path d="m383.8 329.6 2.1 2.1z" fill="#fef8f1"/><path d="m386 329.6 2.1 2.1-2.2-2.1z" fill="#fe9f11"/><path d="m392.4 329.6-2.1 4.3z" fill="#fdab33"/><path d="m394.6 329.6 2.2 2.1z" fill="#fcb755"/><path d="m420.6 329.6 2.1 2.1z" fill="#fea522"/><path d="m422.8 329.6 2.1 2.1z" fill="#f9d099"/><path d="m444.4 329.6 2.2 2.1z" fill="#53527c"/><path d="m295.7 333.2.7 1.4z" fill="#808067"/><path d="m318.8 331.7 2.2 2.2zm6.5 0 2.2 2.2z" fill="#fea522"/><path d="m349.1 331.7 2.2 2.2z" fill="#fe9f11"/><path d="m383.8 331.7 2.1 2.2z" fill="#fae3c9"/><path d="m392.4 331.7 2.2 2.2z" fill="#fef8f1"/><path d="m396.8 331.7 2.1 2.2z" fill="#fcb144"/><path d="m425 331.7 2 2.2z" fill="#fcb755"/><path d="m427 331.7 4.4 4.4-4.3-4.4z" fill="#fef8f1"/><path d="m438.6 333.2.7 1.4z" fill="#e5e59d"/><path d="m445.1 333.2.7 1.4z" fill="#32327b"/><path d="m319.5 335.3.7 1.5z" fill="#fcb755"/><path d="m327.5 333.9 2.1 2.2z" fill="#fef8f1"/><path d="m349.1 333.9 2.2 2.2z" fill="#fbbe66"/><path d="m383.8 333.9 2.1 2.2z" fill="#fbead6"/><path d="m388.1 333.9 2.2 2.2z" fill="#fe9f11"/><path d="m390.3 333.9 2.1 2.2z" fill="#fcf1e4"/><path d="m396.8 333.9 2.1 2.2z" fill="#fbead6"/><path d="m427 333.9 2.2 2.2-2.1-2.2z" fill="#fdab33"/><path d="m295 336 2.2 2.2-2.2-2.1z" fill="#667"/><path d="m301.5 336 2.2 2.2-2.2-2.1z" fill="#f6f6e4"/><path d="m327.5 336 2.1 2.2-2.1-2.1z" fill="#f9d6aa"/><path d="m344.8 336 2.2 2.2-2.2-2.1z" fill="#fdab33"/><path d="m347 336 2.1 2.2-2.2-2.1z" fill="#fe9f11"/><path d="m349.1 336 2.2 2.2-2.2-2.1z" fill="#fcf1e4"/><path d="m386 336 2.1 2.2-2.2-2.1z" fill="#fea522"/><path d="m388.1 336 2.2 2.2-2.2-2.1m10.8 0 2.2 2.1z" fill="#faca88"/><path d="m429.2 336 2.2 2.2-2.2-2.1z" fill="#fcb144"/><path d="m437.9 336 2.2 2.2-2.2-2.1z" fill="#dddc7a"/><path d="m295 338.2 2.2 2.2z" fill="#58587b"/><path d="m301.5 338.2 2.2 2.2z" fill="#f2f1d2"/><path d="m319.5 339.7.7 1.4z" fill="#fcb144"/><path d="m327.5 338.2 2.1 2.2z" fill="#fea522"/><path d="m349.1 338.2 2.2 2.2z" fill="#fef8f1"/><path d="m351.3 338.2 2.2 2.2z" fill="#fea522"/><path d="m355.6 338.2 2.2 2.2z" fill="#fcb144"/><path d="m357.8 338.2 2.1 2.2z" fill="#fbead6"/><path d="m386 338.2 2.1 2.2-2.2-2.2z" fill="#f8dcbb"/><path d="m388.1 338.2 2.2 2.2z" fill="#fcf1e4"/><path d="m399 338.2 2 2.2z" fill="#fef8f1"/><path d="m401.1 338.2 2.2 2.2z" fill="#fe9f11"/><path d="m431.4 338.2 2.2 2.2z" fill="#fbead6"/><path d="m437.9 338.2 2.2 2.2z" fill="#d9d868"/><path d="m295 340.4 2.2 2.2z" fill="#3a3a7c"/><path d="m301.5 340.4 2.2 2.2z" fill="#e5e3af"/><path d="m329.6 340.4 2.2 2.2z" fill="#faca88"/><path d="m351.3 340.4 2.2 2.2z" fill="#fbead6"/><path d="m357.8 340.4 2.1 2.2z" fill="#fe9f11"/><path d="m360 340.4 2.1 2.2-2.2-2.2z" fill="#fcf1e4"/><path d="m383.8 340.4 2.1 2.2z" fill="#fbead6"/><path d="m386 340.4 2.1 2.2-2.2-2.2z" fill="#fae3c9"/><path d="m388.1 340.4 2.2 2.2z" fill="#fbead6"/><path d="m401.1 340.4 2.2 2.2zm17.3 0 2.2 2.2z" fill="#fbbe66"/><path d="m420.6 340.4 2.1 2.2z" fill="#fcf1e4"/><path d="m422.8 340.4 2.1 2.2z" fill="#fef8f1"/><path d="m425 340.4 2 2.2z" fill="#f8dcbb"/><path d="m427 340.4 2.2 2.2-2.1-2.2z" fill="#fcb755"/><path d="m431.4 340.4 2.2 2.2z" fill="#fae3c9"/><path d="m442.2 340.4 2.2 2.2z" fill="#808067"/><path d="m295 342.6 2.2 2.1z" fill="#32327b"/><path d="m297.9 344 .7 1.4z" fill="#a4a43d"/><path d="m301.5 342.6 2.2 2.1z" fill="#e5e59d"/><path d="m318.8 342.6 2.2 2.1z" fill="#fbc477"/><path d="m331.8 342.6 2.2 2.1z" fill="#f9d6aa"/><path d="m353.4 342.6 2.2 2.1z" fill="#fbbe66"/><path d="m360 342.6 2.1 2.1-2.2-2.1z" fill="#f9d099"/><path d="m379.4 342.6 2.2 2.1z" fill="#fae3c9"/><path d="m381.6 342.6 2.2 2.1z" fill="#fcb144"/><path d="m390.3 342.6 2.1 2.1z" fill="#fae3c9"/><path d="m401.1 342.6 2.2 2.1z" fill="#f8dcbb"/><path d="m418.4 342.6 2.2 2.1z" fill="#f9d099"/><path d="m429.2 342.6 2.2 2.1z" fill="#fbc477"/><path d="m431.4 342.6 2.2 2.1z" fill="#fbead6"/><path d="m442.2 342.6 2.2 2.1z" fill="#737370"/><path d="m301.5 344.7 2.2 2.2z" fill="#d9d868"/><path d="m318.8 344.7 2.2 2.2z" fill="#f9d099"/><path d="m334 344.7 2.1 2.2zm19.5 0 2.1 2.2-2.2-2.2z" fill="#f9d6aa"/><path d="m360 344.7 2.1 2.2-2.2-2.2z" fill="#fbc477"/><path d="m370.8 344.7 2.1 2.2z" fill="#fef8f1"/><path d="m373 344.7 2.1 2.2-2.2-2.2z" fill="#f8dcbb"/><path d="m375.1 344.7 2.2 2.2z" fill="#fbc477"/><path d="m377.3 344.7 2.1 2.2z" fill="#fea522"/><path d="m390.3 344.7 2.1 2.2z" fill="#fbead6"/><path d="m435.7 344.7 2.2 2.2z" fill="#f2f1d2"/><path d="m442.2 344.7 2.2 2.2z" fill="#58587b"/><path d="m297.1 346.9 2.2 2.2z" fill="#99994e"/><path d="m301.5 346.9 2.2 2.2z" fill="#d0d045"/><path d="m336.1 346.9 2.2 2.2z" fill="#fcb144"/><path d="m338.3 346.9 2.2 2.2z" fill="#fae3c9"/><path d="m353.4 346.9 2.2 2.2z" fill="#fef8f1"/><path d="m362.1 346.9 2.2 2.2z" fill="#fcb755"/><path d="m364.3 346.9 2.1 2.2z" fill="#fbc477"/><path d="m366.4 346.9 2.2 2.2z" fill="#fcb144"/><path d="m368.6 346.9 2.2 2.2z" fill="#fea522"/><path d="m386 346.9 2.1 2.2-2.2-2.2z" fill="#fe9f11"/><path d="m388.1 346.9 2.2 2.2z" fill="#f9d6aa"/><path d="m418.4 346.9 2.2 2.2z" fill="#fef8f1"/><path d="m435.7 346.9 2.2 2.2z" fill="#e0dea1"/><path d="m442.2 346.9 2.2 2.2z" fill="#3a3a7c"/><path d="m297.1 349 2.2 2.2-2.2-2.1z" fill="#737370"/><path d="m303.6 349 2.2 2.2-2.2-2.1z" fill="#fbfaf2"/><path d="m321 349 2.1 2.2-2.1-2.1z" fill="#fea522"/><path d="m340.5 349 2.1 2.2-2.1-2.1z" fill="#fe9f11"/><path d="m342.6 349 2.2 2.2-2.2-2.1z" fill="#fcb144"/><path d="m344.8 349 2.2 2.2-2.2-2.1z" fill="#fbc477"/><path d="m347 349 2.1 2.2-2.2-2.1z" fill="#faca88"/><path d="m349.1 349 2.2 2.2-2.2-2.1z" fill="#fbc477"/><path d="m351.3 349 2.2 2.2-2.2-2.1z" fill="#fcb144"/><path d="m353.4 349 2.2 2.2-2.2-2.1z" fill="#fdab33"/><path d="m383.8 349 2.1 2.2-2.1-2.1z" fill="#fbc477"/><path d="m386 349 2.1 2.2-2.2-2.1z" fill="#fef8f1"/><path d="m416.3 349 2.1 2.2-2.1-2.1z" fill="#fdab33"/><path d="m435.7 349 2.2 2.2-2.2-2.1z" fill="#e1e18c"/><path d="m440.8 350.5.7 1.4z" fill="#a4a43d"/><path d="m442.2 349 2.2 2.2-2.2-2.1z" fill="#262678"/><path d="m297.1 351.2 2.2 2.2z" fill="#58587b"/><path d="m303.6 351.2 2.2 2.2z" fill="#f2f1d2"/><path d="m321 351.2 2.1 2.2z" fill="#faca88"/><path d="m379.4 351.2 2.2 2.2z" fill="#fe9f11"/><path d="m381.6 351.2 2.2 2.2z" fill="#fbead6"/><path d="m401.1 351.2 2.2 2.2z" fill="#fbc477"/><path d="m416.3 351.2 2.1 2.2z" fill="#faca88"/><path d="m435.7 351.2 2.2 2.2z" fill="#d4d456"/><path d="m297.1 353.4 2.2 2.2z" fill="#32327b"/><path d="m303.6 353.4 2.2 2.2z" fill="#e5e59d"/><path d="m321 353.4 2.1 2.2z" fill="#fef8f1"/><path d="m323.1 353.4 2.2 2.2z" fill="#fe9f11"/><path d="m379.4 353.4 2.2 2.2z" fill="#fbead6"/><path d="m401.1 353.4 2.2 2.2z" fill="#fea522"/><path d="m416.3 353.4 2.1 2.2z" fill="#fcf1e4"/><path d="m440 353.4 2.2 2.2-2.1-2.2z" fill="#808067"/><path d="m297.1 355.6 2.2 2.1z" fill="#0e0e6e"/><path d="m299.3 355.6 2.2 2.1z" fill="#a4a43d"/><path d="m303.6 355.6 2.2 2.1z" fill="#d9d868"/><path d="m323.1 355.6 2.2 2.1z" fill="#f8dcbb"/><path d="m399 355.6 2 2.1z" fill="#f9d6aa"/><path d="m414 355.6 2.2 2.1-2.1-2.1z" fill="#faca88"/><path d="m433.6 355.6 2.1 2.1z" fill="#f2f1d2"/><path d="m440 355.6 2.2 2.1-2.1-2.1z" fill="#58587b"/><path d="m299.3 357.7 2.2 2.2z" fill="#8d8d5b"/><path d="m325.3 357.7 2.2 2.2z" fill="#f9d6aa"/><path d="m368.6 357.7 2.2 2.2z" fill="#fdab33"/><path d="m370.8 357.7 2.1 2.2z" fill="#fff"/><path d="m374.4 358.4 1.4.8z" fill="#fcb144"/><path d="m396.8 357.7-2.2 4.3z" fill="#fef8f1"/><path d="m399 357.7 2 2.2z" fill="#fe9f11"/><path d="m412 357.7-2.2 4.3 2.1-4.3z" fill="#fdab33"/><path d="m433.6 357.7 2.1 2.2z" fill="#e5e59d"/><path d="m440 357.7 2.2 2.2-2.1-2.2z" fill="#3a3a7c"/><path d="m299.3 359.9 2.2 2.2z" fill="#667"/><path d="m305.8 359.9 2.2 2.2z" fill="#f2f1d2"/><path d="m327.5 359.9 2.1 2.2z" fill="#f9d6aa"/><path d="m368.6 359.9 2.2 2.2z" fill="#fe9f11"/><path d="m370.8 359.9 2.1 2.2z" fill="#faca88"/><path d="m373 359.9 2.1 2.2-2.2-2.2z" fill="#fea522"/><path d="m375.1 359.9 2.2 2.2z" fill="#fcf1e4"/><path d="m396.8 359.9 2.1 2.2z" fill="#fdab33"/><path d="m412 359.9 2 2.2z" fill="#fef8f1"/><path d="m433.6 359.9 2.1 2.2z" fill="#d9d868"/><path d="m437.9 359.9 2.2 2.2z" fill="#a4a43d"/><path d="m440 359.9 2.2 2.2-2.1-2.2z" fill="#0e0e6e"/><path d="m299.3 362 2.2 2.2-2.2-2.1z" fill="#3a3a7c"/><path d="m305.8 362 2.2 2.2-2.2-2.1z" fill="#e5e59d"/><path d="m329.6 362 4.4 4.4-4.4-4.3z" fill="#fae3c9"/><path d="m331.8 362 2.2 2.2-2.2-2.1z" fill="#fe9f11"/><path d="m373 362 2.1 2.2-2.2-2.1z" fill="#f8dcbb"/><path d="m392.4 362 2.2 2.2-2.2-2.1z" fill="#fcf1e4"/><path d="m394.6 362 2.2 2.2-2.2-2.1z" fill="#fdab33"/><path d="m407.6 362 2.1 2.2-2.1-2.1z" fill="#fcb144"/><path d="m409.8 362 2.1 2.2-2.1-2.1z" fill="#fef8f1"/><path d="m431.4 362 2.2 2.2-2.2-2.1z" fill="#fbfaf2"/><path d="m437.9 362 2.2 2.2-2.2-2.1z" fill="#8d8d5b"/><path d="m299.3 364.2 2.2 2.2z" fill="#0e0e6e"/><path d="m301.5 364.2 2.2 2.2z" fill="#a4a43d"/><path d="m305.8 364.2 2.2 2.2z" fill="#d4d456"/><path d="m370.8 364.2 2.1 2.2z" fill="#f9d6aa"/><path d="m390.3 364.2 2.1 2.2z" fill="#f9d099"/><path d="m392.4 364.2 2.2 2.2z" fill="#fe9f11"/><path d="m405.4 364.2 2.2 2.2z" fill="#faca88"/><path d="m431.4 364.2 2.2 2.2z" fill="#eeedc1"/><path d="m437.9 364.2 2.2 2.2z" fill="#58587b"/><path d="m301.5 366.4 2.2 2.1z" fill="#737370"/><path d="m308 366.4 2.1 2.1z" fill="#f6f6e4"/><path d="m331.8 366.4 2.2 2.1z" fill="#fbbe66"/><path d="m366.4 366.4 2.2 2.1z" fill="#fcb144"/><path d="m369.3 367.8.7 1.5z" fill="#f8dcbb"/><path d="m386 366.4 2.1 2.1-2.2-2.1z" fill="#fbbe66"/><path d="m388.1 366.4 2.2 2.1z" fill="#fe9f11"/><path d="m401.1 366.4 2.2 2.1z" fill="#fbc477"/><path d="m403.3 366.4 2.1 2.1z" fill="#fcf1e4"/><path d="m431.4 366.4 2.2 2.1z" fill="#d3d079"/><path d="m435.7 366.4 2.2 2.1z" fill="#a4a43d"/><path d="m437.9 366.4 2.2 2.1z" fill="#262678"/><path d="m301.5 368.5 2.2 2.2z" fill="#49497d"/><path d="m308 368.5 2.1 2.2z" fill="#e0dea1"/><path d="m329.6 368.5 2.2 2.2z" fill="#fae3c9"/><path d="m360 368.5 2.1 2.2-2.2-2.2z" fill="#fdab33"/><path d="m362.1 368.5 2.2 2.2z" fill="#fbc477"/><path d="m364.3 368.5 2.1 2.2z" fill="#fbead6"/><path d="m370.8 368.5 2.1 2.2z" fill="#fcb144"/><path d="m399 368.5 2 2.2z" fill="#f9d6aa"/><path d="m435.7 368.5 2.2 2.2z" fill="#99994e"/><path d="m301.5 370.7 2.2 2.2z" fill="#0e0e6e"/><path d="m303.6 370.7 2.2 2.2z" fill="#a4a43d"/><path d="m308 370.7 2.1 2.2z" fill="#d4d456"/><path d="m327.5 370.7 2.1 2.2z" fill="#f9d099"/><path d="m329.6 370.7 2.2 2.2zm10.9 0 2.1 2.2z" fill="#fe9f11"/><path d="m342.6 370.7 2.2 2.2z" fill="#f9d6aa"/><path d="m344.8 370.7 2.2 2.2z" fill="#f9d099"/><path d="m353.4 370.7 2.2 2.2z" fill="#f9d6aa"/><path d="m355.6 370.7 2.2 2.2z" fill="#fae3c9"/><path d="m357.8 370.7 2.1 2.2z" fill="#fef8f1"/><path d="m375.1 370.7 2.2 2.2z" fill="#fbead6"/><path d="m377.3 370.7 2.1 2.2z" fill="#fae3c9"/><path d="m379.4 370.7 2.2 2.2z" fill="#faca88"/><path d="m381.6 370.7 2.2 2.2z" fill="#fbc477"/><path d="m383.8 370.7 2.1 2.2z" fill="#fdab33"/><path d="m394.6 370.7 2.2 2.2z" fill="#fe9f11"/><path d="m396.8 370.7 2.1 2.2z" fill="#f9d6aa"/><path d="m429.2 370.7 2.2 2.2z" fill="#e5e3af"/><path d="m435.7 370.7 2.2 2.2z" fill="#667"/><path d="m303.6 372.9 2.2 2.1z" fill="#737370"/><path d="m310.1 372.9 2.2 2.1z" fill="#f2f1d7"/><path d="m325.3 372.9 2.2 2.1z" fill="#fea522"/><path d="m336.1 372.9 2.2 2.1z" fill="#fe9f11"/><path d="m338.3 372.9 2.2 2.1z" fill="#fbbe66"/><path d="m340.5 372.9 2.1 2.1z" fill="#fcf1e4"/><path d="m392.4 372.9 2.2 2.1z" fill="#fea522"/><path d="m394.6 372.9 2.2 2.1z" fill="#fbead6"/><path d="m429.2 372.9 2.2 2.1z" fill="#dddc7a"/><path d="m433.6 372.9 2.1 2.1z" fill="#a4a43d"/><path d="m435.7 372.9 2.2 2.1z" fill="#262678"/><path d="m303.6 375 2.2 2.2z" fill="#49497d"/><path d="m306.5 376.5.7 1.4z" fill="#a4a43d"/><path d="m310.1 375 2.2 2.2z" fill="#d3d079"/><path d="m327.5 375 2.1 2.2z" fill="#f9d099"/><path d="m329.6 375 2.2 2.2z" fill="#fcb144"/><path d="m331.8 375 2.2 2.2z" fill="#faca88"/><path d="m334 375 2.1 2.2z" fill="#f8dcbb"/><path d="m336.1 375 2.2 2.2z" fill="#fef8f1"/><path d="m383.8 375 2.1 2.2z" fill="#f8dcbb"/><path d="m392.4 375 2.2 2.2z" fill="#fcf1e4"/><path d="m427 375 2.2 2.2-2.1-2.2z" fill="#f6f6e4"/><path d="m433.6 375 2.1 2.2z" fill="#8d8d5b"/><path d="m312.3 377.2 2.2 2.2z" fill="#fbfaf2"/><path d="m383.8 377.2 2.1 2.2z" fill="#fbbe66"/><path d="m390.3 377.2 2.1 2.2z" fill="#faca88"/><path d="m427 377.2 2.2 2.2-2.1-2.2z" fill="#e1e18c"/><path d="m433.6 377.2 2.1 2.2z" fill="#49497d"/><path d="m305.8 379.4 2.2 2.1z" fill="#58587b"/><path d="m312.3 379.4 2.2 2.1z" fill="#e5e59d"/><path d="m383.8 379.4 2.1 2.1z" fill="#fe9f11"/><path d="m388.1 379.4 2.2 2.1z" fill="#fdab33"/><path d="m425 379.4 2 2.1z" fill="#fbfaf2"/><path d="m431.4 379.4 2.2 2.1z" fill="#a4a43d"/><path d="m433.6 379.4 2.1 2.1z" fill="#0e0e6e"/><path d="m305.8 381.5 2.2 2.2z" fill="#1b1b74"/><path d="m308 381.5 2.1 2.2z" fill="#a4a43d"/><path d="m312.3 381.5 2.2 2.2z" fill="#d0d045"/><path d="m381.6 381.5 2.2 2.2z" fill="#fbead6"/><path d="m386 381.5 2.1 2.2-2.2-2.2z" fill="#fe9f11"/><path d="m388.1 381.5 2.2 2.2z" fill="#fbead6"/><path d="m425 381.5 2 2.2z" fill="#e5e59d"/><path d="m431.4 381.5 2.2 2.2z" fill="#667"/><path d="m308 383.7 2.1 2.2z" fill="#6e6c70"/><path d="m314.5 383.7 2.1 2.2z" fill="#e5e3af"/><path d="m382.3 385.1.7 1.5z" fill="#faca88"/><path d="m386 383.7 2.1 2.2-2.2-2.2z" fill="#fae3c9"/><path d="m422.8 383.7 2.1 2.2z" fill="#fbfaf2"/><path d="m429.2 383.7 2.2 2.2z" fill="#a4a43d"/><path d="m431.4 383.7 2.2 2.2zm-123.4 2.2 2.1 2.1z" fill="#1b1b74"/><path d="m310.1 385.9 2.2 2.1z" fill="#a4a43d"/><path d="m314.5 385.9 2.1 2.1z" fill="#d0d045"/><path d="m316.6 385.9 2.2 2.1z" fill="#fbfaf2"/><path d="m383.8 385.9 2.1 2.1z" fill="#f9d6aa"/><path d="m422.8 385.9 2.1 2.1z" fill="#e5e59d"/><path d="m429.2 385.9 2.2 2.1zm-119 2.1 2.1 2.2-2.2-2.2z" fill="#6e6c70"/><path d="m316.6 388 2.2 2.2z" fill="#8cbf84"/><path d="m317.6 388c7.5 15.9 34 53.2 54.4 52.5 19.7-.7 42-37.2 50.7-52.5z" fill="#0cf"/><path d="m427 388 2.2 2.2-2.1-2.2z" fill="#a4a43d"/><path d="m429.2 388 2.2 2.2zm-119 2.2 2.1 2.2-2.2-2.2z" fill="#1b1b74"/><path d="m312.3 390.2 2.2 2.2z" fill="#a4a43d"/><path d="m316.6 390.2 2.2 2.2z" fill="#adb333"/><path d="m318.8 390.2 2.2 2.2z" fill="#1ac5b5"/><path d="m420.6 390.2 2.1 2.2z" fill="#68b070"/><path d="m427 390.2 2.2 2.2-2.1-2.2z" fill="#667"/><path d="m312.3 392.4 2.2 2.1z" fill="#58587b"/><path d="m318.8 392.4 2.2 2.1z" fill="#7fb15c"/><path d="m418.4 392.4 2.2 2.1z" fill="#27c2aa"/><path d="m425 392.4-2.2 4.3 2.1-4.3z" fill="#a4a43d"/><path d="m427 392.4 2.2 2.1-2.1-2.1m-114.8 2.1 2.2 2.2z" fill="#0e0e6e"/><path d="m314.5 394.5 4.3 4.4z" fill="#a4a43d"/><path d="m321 394.5 2.1 2.2z" fill="#34be9e"/><path d="m418.4 394.5 2.2 2.2z" fill="#96b247"/><path d="m425 394.5 2 2.2z" fill="#53527c"/><path d="m314.5 396.7 2.1 2.2z" fill="#3a3a7c"/><path d="m321 396.7 2.1 2.2z" fill="#a2b23d"/><path d="m323.1 396.7 2.2 2.2z" fill="#0dc9c1"/><path d="m416.3 396.7 2.1 2.2z" fill="#5bb47c"/><path d="m422.8 396.7 2.1 2.2z" fill="#8d8d5b"/><path d="m316.6 398.9 2.2 2.1z" fill="#737370"/><path d="m323.1 398.9 2.2 2.1z" fill="#74b166"/><path d="m414 398.9 2.2 2.1-2.1-2.1z" fill="#27c2aa"/><path d="m420.6 398.9-2.2 4.3z" fill="#a4a43d"/><path d="m422.8 398.9 2.1 2.1z" fill="#262678"/><path d="m316.6 401 2.2 2.2z" fill="#0e0e6e"/><path d="m318.8 401 4.3 4.3z" fill="#a4a43d"/><path d="m325.3 401 2.2 2.2z" fill="#42bb92"/><path d="m412 401 2 2.2z" fill="#0dc9c1"/><path d="m414 401 2.2 2.2-2.1-2.2z" fill="#96b247"/><path d="m420.6 401 2.1 2.2z" fill="#58587b"/><path d="m318.8 403.2 2.2 2.2z" fill="#3a3a7c"/><path d="m325.3 403.2 2.2 2.2z" fill="#adb333"/><path d="m327.5 403.2 2.1 2.2z" fill="#27c2aa"/><path d="m412 403.2 2 2.2z" fill="#74b166"/><path d="m418.4 403.2 2.2 2.2z" fill="#8d8d5b"/><path d="m321 405.4 2.1 2.1z" fill="#6e6c70"/><path d="m327.5 405.4 2.1 2.1z" fill="#96b247"/><path d="m329.6 405.4 2.2 2.1z" fill="#0dc9c1"/><path d="m409.8 405.4 2.1 2.1z" fill="#42bb92"/><path d="m416.3 405.4-4.4 6.5z" fill="#a4a43d"/><path d="m418.4 405.4 2.2 2.1z" fill="#1b1b74"/><path d="m321 407.5 2.1 2.2z" fill="#0e0e6e"/><path d="m323.1 407.5 2.2 2.2z" fill="#8d8d5b"/><path d="m329.6 407.5 2.2 2.2z" fill="#7fb15c"/><path d="m407.6 407.5 2.1 2.2z" fill="#34be9e"/><path d="m416.3 407.5 2.1 2.2z" fill="#3a3a7c"/><path d="m323.1 409.7 2.2 2.2z" fill="#1b1b74"/><path d="m325.3 409.7 23.8 23.8z" fill="#a4a43d"/><path d="m331.8 409.7 2.2 2.2z" fill="#74b166"/><path d="m405.4 409.7 2.2 2.2z" fill="#27c2aa"/><path d="m407.6 409.7 2.1 2.2z" fill="#adb333"/><path d="m414 409.7 2.2 2.2-2.1-2.2z" fill="#667"/><path d="m325.3 411.9 2.2 2.1z" fill="#32327b"/><path d="m334 411.9 2.1 2.1z" fill="#42bb92"/><path d="m403.3 411.9-8.7 10.8z" fill="#0dc9c1"/><path d="m405.4 411.9 2.2 2.1z" fill="#adb333"/><path d="m412 411.9 2 2.1z" fill="#737370"/><path d="m327.5 414 2.1 2.2z" fill="#49497d"/><path d="m336.1 414 2.2 2.2z" fill="#42bb92"/><path d="m403.3 414 2.1 2.2z" fill="#96b247"/><path d="m409.8 414-2.2 4.3 2.1-4.3z" fill="#8d8d5b"/><path d="m412 414 2 2.2z" fill="#0e0e6e"/><path d="m329.6 416.2 2.2 2.2z" fill="#53527c"/><path d="m338.3 416.2 2.2 2.2z" fill="#42bb92"/><path d="m401.1 416.2 2.2 2.2z" fill="#96b247"/><path d="m409.8 416.2 2.1 2.2z" fill="#0e0e6e"/><path d="m331.8 418.4 2.2 2.1z" fill="#6e6c70"/><path d="m340.5 418.4 2.1 2.1z" fill="#42bb92"/><path d="m399 418.4 2 2.1z" fill="#96b247"/><path d="m405.4 418.4-4.3 6.5z" fill="#a4a43d"/><path d="m407.6 418.4 2.1 2.1z" fill="#262678"/><path d="m334 420.5 2.1 2.2z" fill="#6e6c70"/><path d="m342.6 420.5 2.2 2.2z" fill="#42bb92"/><path d="m396.8 420.5 2.1 2.2z" fill="#96b247"/><path d="m405.4 420.5 2.2 2.2z" fill="#262678"/><path d="m336.1 422.7 2.2 2.2z" fill="#6e6c70"/><path d="m344.8 422.7 2.2 2.2z" fill="#68b070"/><path d="m392.4 422.7 2.2 2.2z" fill="#27c2aa"/><path d="m394.6 422.7 2.2 2.2z" fill="#adb333"/><path d="m403.3 422.7 2.1 2.2z" fill="#262678"/><path d="m338.3 424.9 2.2 2.1z" fill="#667"/><path d="m347 424.9 2.1 2.1-2.2-2.1z" fill="#74b166"/><path d="m390.3 424.9 2.1 2.1z" fill="#34be9e"/><path d="m392.4 424.9 2.2 2.1z" fill="#adb333"/><path d="m399 424.9-2.2 4.3 2.1-4.3z" fill="#8d8d5b"/><path d="m401.1 424.9 2.2 2.1z" fill="#262678"/><path d="m340.5 427 2.1 2.2z" fill="#49497d"/><path d="m349.1 427 2.2 2.2z" fill="#96b247"/><path d="m351.3 427 2.2 2.2z" fill="#0dc9c1"/><path d="m388.1 427 2.2 2.2z" fill="#42bb92"/><path d="m399 427 2 2.2z" fill="#0e0e6e"/><path d="m342.6 429.2 2.2 2.1z" fill="#49497d"/><path d="m351.3 429.2 2.2 2.1z" fill="#a2b23d"/><path d="m353.4 429.2 2.2 2.1z" fill="#27c2aa"/><path d="m386 429.2 2.1 2.1-2.2-2.1z" fill="#74b166"/><path d="m392.4 429.2-6.5 8.6z" fill="#a4a43d"/><path d="m394.6 429.2 2.2 2.1z" fill="#808067"/><path d="m396.8 429.2 2.1 2.1z" fill="#0e0e6e"/><path d="m344.8 431.3 2.2 2.2z" fill="#262678"/><path d="m353.4 431.3 2.2 2.2z" fill="#adb333"/><path d="m355.6 431.3 2.2 2.2z" fill="#42bb92"/><path d="m381.6 431.3 2.2 2.2z" fill="#0dc9c1"/><path d="m383.8 431.3 2.1 2.2z" fill="#96b247"/><path d="m392.4 431.3 2.2 2.2z" fill="#6e6c70"/><path d="m347 433.5 2.1 2.2-2.2-2.2z" fill="#1b1b74"/><path d="m349.1 433.5 2.2 2.2z" fill="#8d8d5b"/><path d="m357.8 433.5 2.1 2.2z" fill="#74b166"/><path d="m360 433.5 2.1 2.2-2.2-2.2z" fill="#0dc9c1"/><path d="m379.4 433.5 2.2 2.2z" fill="#34be9e"/><path d="m381.6 433.5 2.2 2.2z" fill="#adb333"/><path d="m390.3 433.5 2.1 2.2z" fill="#49497d"/><path d="m349.1 435.7 2.2 2.1z" fill="#0e0e6e"/><path d="m351.3 435.7 2.2 2.1z" fill="#6e6c70"/><path d="m353.4 435.7 4.4 4.3z" fill="#a4a43d"/><path d="m360 435.7 2.1 2.1-2.2-2.1z" fill="#96b247"/><path d="m362.1 435.7 2.2 2.1z" fill="#27c2aa"/><path d="m377.3 435.7 2.1 2.1z" fill="#68b070"/><path d="m388.1 435.7 2.2 2.1z" fill="#32327b"/><path d="m353.4 437.8 2.2 2.2z" fill="#49497d"/><path d="m364.3 437.8 2.1 2.2z" fill="#5bb47c"/><path d="m373 437.8 2.1 2.2-2.2-2.2z" fill="#27c2aa"/><path d="m375.1 437.8 2.2 2.2z" fill="#96b247"/><path d="m381.6 437.8-2.2 4.4z" fill="#a4a43d"/><path d="m383.8 437.8 2.1 2.2z" fill="#808067"/><path d="m386 437.8 2.1 2.2-2.2-2.2z" fill="#0e0e6e"/><path d="m355.6 440 2.2 2.2z" fill="#262678"/><path d="m357.8 440 2.1 2.2z" fill="#8d8d5b"/><path d="m366.4 440 2.2 2.2z" fill="#8bb252"/><path d="m368.6 440 2.2 2.2z" fill="#1ac5b5"/><path d="m370.8 440 2.1 2.2z" fill="#5bb47c"/><path d="m381.6 440 2.2 2.2z" fill="#58587b"/><path d="m357.8 442.2 2.1 2.1z" fill="#0e0e6e"/><path d="m360 442.2 2.1 2.1-2.2-2.1z" fill="#667"/><path d="m362.1 442.2 2.2 2.1z" fill="#a4a43d"/><path d="m377.3 442.2 2.1 2.1z" fill="#99994e"/><path d="m379.4 442.2 2.2 2.1zm-17.3 2.1 2.2 2.2z" fill="#32327b"/><path d="m364.3 444.3 2.1 2.2z" fill="#99994e"/><path d="m373 444.3 2.1 2.2-2.2-2.2z" fill="#a4a43d"/><path d="m375.1 444.3 2.2 2.2z" fill="#667"/><path d="m377.3 444.3 2.1 2.2zm-13 2.2 2.1 2.2z" fill="#0e0e6e"/><path d="m366.4 446.5 2.2 2.2z" fill="#667"/><path d="m368.6 446.5 2.2 2.2z" fill="#a4a43d"/><path d="m370.8 446.5 2.1 2.2z" fill="#99994e"/><path d="m373 446.5 2.1 2.2-2.2-2.2z" fill="#32327b"/><path d="m368.6 448.7 2.2 2.1z" fill="#262678"/><path d="m370.8 448.7 2.1 2.1z" fill="#0e0e6e"/><path d="m373 303.6c3.3 7.8 14 16.5 17 20.8-3.8 4.2-4.6 3.8-4 11.7 6.4-6.9 6.6-7.6 10.8-6.5 9.1 9.1 1.6 28.8-6 33-7.6 4.6-6.2 0-17.6 5.6 5.3 4.5 11.3-.6 16.2.8 2.7 3.1-1.2 9 .8 14.4 4.4-.4 3.9-9.2 4.9-12.4 3.2-11.7 22.3-19.9 23.3-30.6 4-2 8.1-.6 13 2.1-2.4-10-10.5-9.9-12.7-13-5.2-8-9.7-17-20.8-19.3-8.3-1.7-7.7.6-13-3-3.4-2.7-13.6-7.6-12-3.6z" fill="#f90"/><path d="m397 312.5a1.8 1.8 0 1 1 -3.5 0 1.8 1.8 0 0 1 3.5 0z" fill="#fff" fill-rule="evenodd"/><path d="m346.2 337c5.4-6.7 8-20.2 10.4-24.8 5.5 1.3 5.5 2.2 12.2-2-9-2.5-9.8-2.3-10.8-6.5 3.8-12.4 24.7-15 32-10.2 7.6 4.6 2.8 5.6 13.2 13 1.5-6.8-5.8-9.7-7-14.7 1.6-3.9 8.6-3 12.5-7.5-2.4-3.6-10 1-13.3 1.5-11.8 2.7-28-10.4-38-6.3-3.5-2.7-4.2-6.9-4-12.5-7.8 6.9-4 14-5.7 17.4-4.6 8.2-10.4 16.5-7.3 27.3 2.3 8.2 4 6.6 3.3 13-.7 4.2-.3 15.5 2.5 12.2z" fill="#f90"/><path d="m342.8 311.5a1.8 1.8 0 0 1 2.4.7 1.8 1.8 0 1 1 -3.1 1.6 1.8 1.8 0 0 1 .7-2.3z" fill="#fff" fill-rule="evenodd"/><path d="m390 341.6c-8.5-1.2-21.5 3.5-26.6 3.8-1.7-5.4-1-5.8-8-9.4 2.5 9 3 9.5 0 12.6-12.6 3.2-25.6-13.4-25.3-22.1 0-9 3.3-5.3 4.3-18-6.5 2.2-5.3 10-9 13.5-4.1.7-7-5.7-12.8-6.7-1.9 4 6 8 8.2 10.5 8.3 8.8 5.5 29.4 14.2 35.8-.5 4.4-3.7 7.2-8.6 10 9.9 3 14-3.9 17.8-4.1 9.4-.4 19.5.3 27.2-8 5.8-6.2 3.5-6.9 9.4-9.6 4-1.5 13.4-7.7 9.1-8.3z" fill="#f90"/><path d="m369.9 357.6a1.8 1.8 0 1 1 1.8-3 1.8 1.8 0 0 1 -1.8 3z" fill="#fff" fill-rule="evenodd"/></g></svg>