<svg xmlns="http://www.w3.org/2000/svg" height="512" width="512"><defs><clipPath id="a"><rect fill-opacity=".67" height="512" width="512"/></clipPath></defs><g clip-path="url(#a)"><g transform="translate(-2)"><rect fill-rule="evenodd" height="256.07" width="429.52" y=".449" x="-165.86" fill="#fff"/><path d="M-165.86.45l-.018 19.219 102.5 63.221 38.565 1.341-141.05-83.781z" fill="#c00"/><path d="M-121.97.45l124.26 77.916v-77.916h-124.26z" fill="#006"/><path d="M18.866.45v99.468h-184.73v56.839h184.73v99.468h56.839v-99.468h184.73v-56.839h-184.73v-99.468h-56.839z" fill="#c00"/><path d="M92.283.45v73.417l121.57-72.848-121.57-.569z" fill="#006"/><path d="M96.12 81.871l34.19-.33 132.82-80.522-35.24.689-131.77 80.163z" fill="#c00"/><path d="M261.78 22.495l-101.46 60.395 100.11.45v89.995h-85.258l84.47 54.942 1.239 27.948-45.116-.647-123.48-72.77v73.417h-89.995v-73.417l-115.83 73.22-52.315.197v255.78h852.58v-511.55l-424.04-.46m-428.54 28.869l-.45 53.121 89.757 1.35-89.307-54.471z" fill="#006"/><path d="M-165.86 173.33v54.471l85.258-53.902-85.258-.569z" fill="#006"/><path d="M162.45 175.58l-35.543-.331 133.97 80.072-.881-18.319-97.55-61.422zm-295.02 81.091l125.62-79.172-32.994.263-125.92 78.791" fill="#c00"/></g><g transform="matrix(2.166 0 0 2.166 -213.91 -525.81)"><path d="M269 356l1 1-1-1z" fill="#49497d"/><path d="M270 356l1 1-1-1z" fill="#0e0e6e"/><path d="M267 357l1 1-1-1z" fill="#262678"/><path d="M268 357l1 1-1-1z" fill="#808067"/><path d="M271 357l1 1-1-1z" fill="#58587b"/><path d="M234 358l1 1-1-1z" fill="#0e0e6e"/><path d="M265 358l1 1-1-1z" fill="#1b1b74"/><path d="M266 358l1 1-1-1z" fill="#6e6c70"/><path d="M235.76 359.81c0 25.838-2.978 54.955 16.28 75.19 3.962 4.163 11.499 13.656 17.96 13.292 6.764-.381 15.462-10.39 19.331-15.292 16.764-22.052 14.099-48.355 14.669-73.95-7.57 3.4-11.34 4.52-17.96 4.5-4.903.504-12.467-2.792-16.99-4.947-2.956 1.974-7.244 4.328-14.95 4.592-8.9.392-11.72-1.117-18.34-3.385z" fill="#cc3"/><path d="M272 358l1 1-1-1z" fill="#99994e"/><path d="M273 358l1 1-1-1z" fill="#49497d"/><path d="M304 358l1 1-1-1z" fill="#0e0e6e"/><path d="M235 359l1 1-1-1z" fill="#a4a43d"/><path d="M236 359l1 1-1-1z" fill="#6e6c70"/><path d="M237 359l1 1-1-1z" fill="#3a3a7c"/><path d="M263 359l1 1-1-1z" fill="#1b1b74"/><path d="M264 359l1 1-1-1z" fill="#6e6c70"/><path d="M265 359l1 1-1-1z" fill="#a4a43d"/><path d="M269 359l1 1-1-1z" fill="#d0d045"/><path d="M273 359l1 1-1-1z" fill="#a4a43d"/><path d="M274 359l1 1-1-1z" fill="#8d8d5b"/><path d="M275 359l1 1-1-1z" fill="#3a3a7c"/><path d="M301 359l1 1-1-1z" fill="#262678"/><path d="M302 359l1 1-1-1z" fill="#53527c"/><path d="M303 359l1 1-1-1z" fill="#8d8d5b"/><path d="M239 360l1 1-1-1z" fill="#737370"/><path d="M240 360l1 1-1-1z" fill="#53527c"/><path d="M241 360l1 1-1-1z" fill="#1b1b74"/><path d="M261 360l1 1-1-1z" fill="#262678"/><path d="M262 360l1 1-1-1z" fill="#6e6c70"/><path d="M263 360l1 1-1-1z" fill="#a4a43d"/><path d="M268 360l1 1-1-1z" fill="#e5e59d"/><path d="M237.81 362.62c-.538 13.573-.125 28.857 1.997 43.38 2.346 7.587 2.032 11.755 5.518 16.302l48.798-.38c2.94-4.784 5.121-12.038 5.402-14.922 2.725-14.667 2.79-30.853 2.855-45.33-4.907 2.608-11.333 4.457-17.57 3.646-5-.381-9.62-1.522-15-4.563-4.667 2.796-6.294 4.072-14 4.399-6 .296-10.86.782-18-2.532z" fill="#fff"/><path d="M270 360l1 1-1-1z" fill="#f2f1d7"/><path d="M271 360l1 1-1-1z" fill="#d9d868"/><path d="M275 360l1 1-1-1z" fill="#a4a43d"/><path d="M276 360l1 1-1-1z" fill="#99994e"/><path d="M277 360l1 1-1-1z" fill="#49497d"/><path d="M278 360l1 1-1-1z" fill="#0e0e6e"/><path d="M298 360l1 1-1-1z" fill="#3a3a7c"/><path d="M299 360l1 1-1-1z" fill="#667"/><path d="M300 360l1 1-1-1z" fill="#99994e"/><path d="M301 360l1 1-1-1m-60 1l1 1-1-1z" fill="#a4a43d"/><path d="M242 361l1 1-1-1z" fill="#99994e"/><path d="M243 361l1 1-1-1z" fill="#6e6c70"/><path d="M244 361l1 1-1-1z" fill="#49497d"/><path d="M245 361l1 1-1-1m13 0l1 1-1-1z" fill="#1b1b74"/><path d="M259 361l1 1-1-1z" fill="#53527c"/><path d="M260 361l1 1-1-1z" fill="#8d8d5b"/><path d="M261 361l1 1-1-1z" fill="#a4a43d"/><path d="M266 361l1 1-1-1z" fill="#e5e59d"/><path d="M267 361l1 1-1-1z" fill="#fbfaf2"/><path d="M272 361l1 1-1-1z" fill="#f2f1d2"/><path d="M273 361l1 1-1-1z" fill="#d9d868"/><path d="M278 361l1 1-1-1z" fill="#a4a43d"/><path d="M279 361l1 1-1-1z" fill="#6e6c70"/><path d="M280 361l1 1-1-1z" fill="#3a3a7c"/><path d="M293 361l1 1-1-1z" fill="#0e0e6e"/><path d="M294 361l1 1-1-1z" fill="#32327b"/><path d="M295 361l1 1-1-1z" fill="#58587b"/><path d="M296 361l1 1-1-1z" fill="#808067"/><path d="M297.67 361.33l.666.333-.666-.333z" fill="#a4a43d"/><path d="M237 362l1 1-1-1z" fill="#dddc7a"/><path d="M238 362l1 1-1-1z" fill="#d0d045"/><path d="M245.67 362.33l.666.333-.666-.333z" fill="#a4a43d"/><path d="M247 362l1 1-1-1z" fill="#808067"/><path d="M248 362l1 1-1-1z" fill="#667"/><path d="M249 362l1 1-1-1z" fill="#58587b"/><path d="M250 362l1 1-1-1z" fill="#49497d"/><path d="M256 362l1 1-1-1z" fill="#737370"/><path d="M257 362l1 1-1-1z" fill="#99994e"/><path d="M258 362l1 1-1-1z" fill="#a4a43d"/><path d="M264 362l1 1-1-1z" fill="#e5e59d"/><path d="M265 362l1 1-1-1z" fill="#fbfaf2"/><path d="M274 362l1 1-1-1z" fill="#f2f1d2"/><path d="M275 362l1 1-1-1z" fill="#d9d868"/><path d="M280.67 362.33l.666.333-.666-.333z" fill="#a4a43d"/><path d="M282 362l1 1-1-1z" fill="#808067"/><path d="M283 362l1 1-1-1z" fill="#667"/><path d="M284 362l1 1-1-1z" fill="#58587b"/><path d="M285 362l1 1-1-1z" fill="#3a3a7c"/><path d="M289.67 362.33l.666.333-.666-.333z" fill="#58587b"/><path d="M291 362l1 1-1-1z" fill="#737370"/><path d="M292 362l1 1-1-1z" fill="#99994e"/><path d="M293 362l1 1-1-1z" fill="#a4a43d"/><path d="M301 362l1 1-1-1z" fill="#dddc7a"/><path d="M302 362l1 1-1-1z" fill="#d0d045"/><path d="M239 363l1 1-1-1z" fill="#f2f1d7"/><path d="M240 363l1 1-1-1z" fill="#e0dea1"/><path d="M241 363l1 1-1-1z" fill="#dddc7a"/><path d="M261 363l1 1-1-1z" fill="#d9d868"/><path d="M262 363l1 1-1-1z" fill="#e5e3af"/><path d="M276 363l1 1-1-1z" fill="#f6f6e4"/><path d="M277 363l1 1-1-1z" fill="#e1e18c"/><path d="M297 363l1 1-1-1z" fill="#d4d456"/><path d="M298 363l1 1-1-1z" fill="#e1e18c"/><path d="M299 363l1 1-1-1z" fill="#eeedc1"/><path d="M243 364l1 1-1-1z" fill="#f2f1d2"/><path d="M244 364l1 1-1-1z" fill="#e0dea1"/><path d="M245 364l1 1-1-1z" fill="#dddc7a"/><path d="M246 364l1 1-1-1z" fill="#d0d045"/><path d="M258 364l1 1-1-1z" fill="#dddc7a"/><path d="M259 364l1 1-1-1z" fill="#e5e3af"/><path d="M260 364l1 1-1-1z" fill="#f6f6e4"/><path d="M279 364l1 1-1-1z" fill="#eeedc1"/><path d="M280 364l1 1-1-1z" fill="#e1e18c"/><path d="M281 364l1 1-1-1z" fill="#d4d456"/><path d="M293 364l1 1-1-1z" fill="#d9d868"/><path d="M294 364l1 1-1-1z" fill="#e1e18c"/><path d="M295 364l1 1-1-1z" fill="#eeedc1"/><path d="M296 364l1 1-1-1z" fill="#f6f6e4"/><path d="M248 365l1 1-1-1z" fill="#f2f1d7"/><path d="M249 365l1 1-1-1z" fill="#f2f1d2"/><path d="M250 365l1 1-1-1z" fill="#eeedc1"/><path d="M254.67 365.33l.666.333-.666-.333z" fill="#f2f1d2"/><path d="M256 365l1 1-1-1z" fill="#fbfaf2"/><path d="M261 365l2 2v-2h-2z" fill="#fef8f1"/><path d="M283 365l1 1-1-1z" fill="#f2f1d7"/><path d="M284 365l1 1-1-1z" fill="#f2f1d2"/><path d="M285 365l1 1-1-1z" fill="#e5e3af"/><path d="M286.67 365.33l.666.333-.666-.333z" fill="#e5e59d"/><path d="M288 365l1 1-1-1z" fill="#e0dea1"/><path d="M289.67 365.33l.666.333-.666-.333z" fill="#f2f1d2"/><path d="M291 365l1 1-1-1z" fill="#fbfaf2"/><path d="M259 366l1 1-1-1z" fill="#fef8f1"/><path d="M260 366l1 1-1-1z" fill="#fbbe66"/><path d="M259 367l1 1-1-1z" fill="#fbc477"/><path d="M261 367l1 1-1-1z" fill="#fcb144"/><path d="M259 368l1 1-1-1z" fill="#fe9f11"/><path d="M261 368l1 1-1-1z" fill="#fea522"/><path d="M258 369l1 1-1-1m4 0l1 1-1-1z" fill="#fae3c9"/><path d="M267 369l1 1-1-1z" fill="#fbead6"/><path d="M268 369l1 1-1-1z" fill="#f9d6aa"/><path d="M272 369l1 1-1-1z" fill="#fae3c9"/><path d="M273 369l1 1-1-1z" fill="#fef8f1"/><path d="M258 370l1 1-1-1z" fill="#f9d099"/><path d="M262 370l1 1-1-1z" fill="#fdab33"/><path d="M264 370l1 1-1-1z" fill="#fcf1e4"/><path d="M265 370l1 1-1-1z" fill="#fbc477"/><path d="M266 370l1 1-1-1z" fill="#fea522"/><path d="M274 370l1 1-1-1z" fill="#fcb755"/><path d="M275 370l1 1-1-1z" fill="#f9d6aa"/><path d="M258 371l1 1-1-1z" fill="#faca88"/><path d="M263 371l1 1-1-1m13 0l1 1-1-1z" fill="#fea522"/><path d="M277 371l1 1-1-1z" fill="#f8dcbb"/><path d="M237 372l1 1-1-1z" fill="#f6f6e4"/><path d="M258 372l1 1-1-1z" fill="#fbc477"/><path d="M278 372l1 1-1-1z" fill="#fbbe66"/><path d="M279 372l1 1-1-1z" fill="#f8dcbb"/><path d="M258 373l1 1-1-1z" fill="#faca88"/><path d="M281 373l1 1-1-1z" fill="#fcb755"/><path d="M282 373l1 1-1-1z" fill="#f8dcbb"/><path d="M257 374l1 1-1-1z" fill="#fef8f1"/><path d="M258 374l1 1-1-1z" fill="#fe9f11"/><path d="M286 374l1 1-1-1z" fill="#fdab33"/><path d="M287 374l1 1-1-1z" fill="#fcb144"/><path d="M288 374l1 1-1-1z" fill="#fbc477"/><path d="M289 374l2 2-2-2z" fill="#f9d6aa"/><path d="M290 374l1 1-1-1z" fill="#fef8f1"/><path d="M257 375l1 1-1-1z" fill="#fcb144"/><path d="M271 375l1 1-1-1z" fill="#fdab33"/><path d="M272 375l1 1-1-1z" fill="#fbc477"/><path d="M276 375l1 1-1-1z" fill="#fbc477"/><path d="M277 375l1 1-1-1z" fill="#fea522"/><path d="M256 376l1 1-1-1z" fill="#fae3c9"/><path d="M269 376l1 1-1-1z" fill="#fcb144"/><path d="M270 376l1 1-1-1z" fill="#fae3c9"/><path d="M278 376l1 1-1-1z" fill="#f8dcbb"/><path d="M279 376l1 1-1-1z" fill="#fdab33"/><path d="M285 376l1 1-1-1z" fill="#fe9f11"/><path d="M286 376l1 1-1-1z" fill="#fcb755"/><path d="M287 376l1 1-1-1z" fill="#f9d099"/><path d="M288 376l1 1-1-1z" fill="#fbead6"/><path d="M256 377l1 1-1-1z" fill="#fcb144"/><path d="M268 377l1 1-1-1z" fill="#fbbe66"/><path d="M280 377l1 1-1-1z" fill="#f9d099"/><path d="M284 377l1 1-1-1z" fill="#fbead6"/><path d="M255 378l1 1-1-1z" fill="#fcf1e4"/><path d="M267 378l1 1-1-1z" fill="#fbbe66"/><path d="M281 378l1 1-1-1z" fill="#f9d099"/><path d="M284 378l1 1-1-1z" fill="#fae3c9"/><path d="M255 379l1 1-1-1z" fill="#fbc477"/><path d="M266 379l1 1-1-1m16 0l1 1-1-1z" fill="#fcb144"/><path d="M284 379l1 1-1-1z" fill="#fbbe66"/><path d="M237 380l1 1-1-1z" fill="#f6f6e4"/><path d="M255 380l1 1-1-1z" fill="#fea522"/><path d="M266 380l1 1-1-1z" fill="#fbead6"/><path d="M282 380l1 1-1-1z" fill="#fcf1e4"/><path d="M285 380l1 1-1-1z" fill="#fef8f1"/><path d="M254 381l1 1-1-1z" fill="#fcf1e4"/><path d="M265 381l1 1-1-1z" fill="#fbbe66"/><path d="M283 381l1 1-1-1z" fill="#faca88"/><path d="M285 381l1 1-1-1z" fill="#f9d099"/><path d="M254 382l1 1-1-1z" fill="#f9d6aa"/><path d="M265 382l1 1-1-1z" fill="#fcf1e4"/><path d="M270 382l1 1-1-1z" fill="#fae3c9"/><path d="M271 382l1 1-1-1z" fill="#fea522"/><path d="M272 382l1 1-1-1z" fill="#fcb144"/><path d="M273 382l1 1-1-1z" fill="#f9d6aa"/><path d="M283 382l1 1-1-1z" fill="#fef8f1"/><path d="M284 382l1 1-1-1z" fill="#fea522"/><path d="M285 382l1 1-1-1z" fill="#fdab33"/><path d="M254 383l-1 3 1-3z" fill="#faca88"/><path d="M264 383l1 1-1-1z" fill="#fea522"/><path d="M265 383l1 1-1-1z" fill="#fef8f1"/><path d="M270 383l1 1-1-1z" fill="#f9d099"/><path d="M274 383l1 1-1-1z" fill="#fdab33"/><path d="M275 383l1 1-1-1z" fill="#fae3c9"/><path d="M284 383l1 1-1-1z" fill="#f8dcbb"/><path d="M285 383l1 1-1-1z" fill="#f90"/><path d="M286.33 383.67l.334.667-.334-.667z" fill="#fbead6"/><path d="M266 384l1 1-1-1z" fill="#fea522"/><path d="M267 384l1 1-1-1z" fill="#fbbe66"/><path d="M268 384l1 1-1-1z" fill="#faca88"/><path d="M269 384l1 1-1-1z" fill="#fcb144"/><path d="M270 384l1 1-1-1z" fill="#fae3c9"/><path d="M271 384l1 1-1-1z" fill="#fe9f11"/><path d="M276 384l1 1-1-1z" fill="#fdab33"/><path d="M277 384l1 1-1-1z" fill="#fbc477"/><path d="M278 384l1 1-1-1z" fill="#faca88"/><path d="M279 384l1 1-1-1z" fill="#f9d6aa"/><path d="M280.67 384.33l.666.333-.666-.333z" fill="#fae3c9"/><path d="M282 384l1 1-1-1z" fill="#fef8f1"/><path d="M285 384l1 1-1-1z" fill="#fbc477"/><path d="M242 385l1 1-1-1z" fill="#fef8f1"/><path d="M243 385l1 1-1-1z" fill="#fcf1e4"/><path d="M269 385l1 1-1-1z" fill="#fcb755"/><path d="M271 385l1 1-1-1z" fill="#fbead6"/><path d="M272 385l1 1-1-1z" fill="#fea522"/><path d="M280 385l1 1-1-1z" fill="#fe9f11"/><path d="M281 385l-1 2 1-2z" fill="#fcb144"/><path d="M283 385l1 1-1-1z" fill="#fe9f11"/><path d="M284 385l1 1-1-1z" fill="#fbbe66"/><path d="M285 385l1 1-1-1z" fill="#fcf1e4"/><path d="M242 386l1 1-1-1z" fill="#fae3c9"/><path d="M243 386l2 2-2-2z" fill="#fe9f11"/><path d="M244 386l1 1-1-1z" fill="#fbead6"/><path d="M253 386l1 1-1-1z" fill="#fbead6"/><path d="M254 386l1 1-1-1z" fill="#fae3c9"/><path d="M263 386l1 1-1-1z" fill="#fe9f11"/><path d="M264 386l1 1-1-1z" fill="#fbc477"/><path d="M265 386l1 1-1-1z" fill="#fea522"/><path d="M268 386l1 1-1-1z" fill="#fbc477"/><path d="M269 386l1 1-1-1z" fill="#fef8f1"/><path d="M273 386l1 1-1-1z" fill="#fbc477"/><path d="M281 386l1 1-1-1z" fill="#fff"/><path d="M282 386l1 1-1-1z" fill="#fdab33"/><path d="M286 386l1 1-1-1z" fill="#fbc477"/><path d="M242 387l1 1-1-1z" fill="#fef8f1"/><path d="M245 387l1 1-1-1z" fill="#fbead6"/><path d="M250 387l1 1-1-1z" fill="#f9d6aa"/><path d="M255 387l1 1-1-1z" fill="#fe9f11"/><path d="M256.67 387.33l.666.333-.666-.333z" fill="#f9d6aa"/><path d="M263 387l1 1-1-1z" fill="#f8dcbb"/><path d="M266 387l1 1-1-1z" fill="#fcf1e4"/><path d="M274 387l1 1-1-1z" fill="#f9d6aa"/><path d="M281 387l1 1-1-1z" fill="#fdab33"/><path d="M287 387l1 1-1-1z" fill="#fcb755"/><path d="M288 387l1 1-1-1z" fill="#fef8f1"/><path d="M234 388l1 1-1-1z" fill="#53527c"/><path d="M243 388l1 1-1-1z" fill="#fcb755"/><path d="M245 388l1 1-1-1z" fill="#fea522"/><path d="M249 388l1 1-1-1z" fill="#fbead6"/><path d="M251 388l1 1-1-1z" fill="#fe9f11"/><path d="M252 388l1 1-1-1z" fill="#fcf1e4"/><path d="M255 388l1 1-1-1z" fill="#fbbe66"/><path d="M256 388l1 1-1-1z" fill="#fbc477"/><path d="M257 388l1 1-1-1z" fill="#fbbe66"/><path d="M262 388l1 1-1-1z" fill="#fea522"/><path d="M275 388l1 1-1-1z" fill="#f9d6aa"/><path d="M288 388l1 1-1-1z" fill="#fcb144"/><path d="M304 388l1 1-1-1z" fill="#8d8d5b"/><path d="M237 389l1 1-1-1z" fill="#e5e3af"/><path d="M243 389l1 1-1-1z" fill="#f8dcbb"/><path d="M246 389l1 1-1-1z" fill="#fdab33"/><path d="M249 389l1 1-1-1z" fill="#fe9f11"/><path d="M251 389l1 1-1-1z" fill="#faca88"/><path d="M255 389l1 1-1-1z" fill="#fcf1e4"/><path d="M262 389l1 1-1-1m14 0l1 1-1-1z" fill="#f9d099"/><path d="M289 389l1 1-1-1z" fill="#fbbe66"/><path d="M244 390l1 1-1-1z" fill="#fea522"/><path d="M247 390l1 1-1-1z" fill="#fdab33"/><path d="M248 390l1 1-1-1z" fill="#fea522"/><path d="M250 390l1 1-1-1z" fill="#fe9f11"/><path d="M251 390l1 1-1-1z" fill="#fef8f1"/><path d="M256 390l1 1-1-1z" fill="#fbbe66"/><path d="M262 390l1 1-1-1z" fill="#fef8f1"/><path d="M277 390l1 1-1-1z" fill="#fbbe66"/><path d="M290 390l1 1-1-1z" fill="#f9d099"/><path d="M244 391l1 1-1-1z" fill="#f9d6aa"/><path d="M250 391l1 1-1-1z" fill="#f9d099"/><path d="M256 391l1 1-1-1z" fill="#fcf1e4"/><path d="M261 391l1 1-1-1m17 0l1 1-1-1z" fill="#fdab33"/><path d="M291 391l1 1-1-1z" fill="#fbead6"/><path d="M245 392l1 1-1-1z" fill="#fea522"/><path d="M249 392l1 1-1-1z" fill="#fe9f11"/><path d="M257 392l1 1-1-1z" fill="#fcb144"/><path d="M261 392l1 1-1-1z" fill="#faca88"/><path d="M278 392l1 1-1-1z" fill="#f8dcbb"/><path d="M291 392l1 1-1-1z" fill="#fcb144"/><path d="M237 393l1 1-1-1z" fill="#d3d079"/><path d="M245 393l1 1-1-1z" fill="#faca88"/><path d="M257 393l1 1-1-1z" fill="#faca88"/><path d="M261 393l1 1-1-1m17 0l1 1-1-1z" fill="#fae3c9"/><path d="M292 393l1 1-1-1z" fill="#f8dcbb"/><path d="M301 393l1 1-1-1z" fill="#f2f1d7"/><path d="M304.33 393.67l.334.667-.334-.667z" fill="#58587b"/><path d="M237.33 394.67l.334.667-.334-.667z" fill="#d9d868"/><path d="M245 394l1 1-1-1z" fill="#f8dcbb"/><path d="M277 394l1 1-1-1z" fill="#f9d6aa"/><path d="M278 394l1 1-1-1z" fill="#fe9f11"/><path d="M292 394l1 1-1-1z" fill="#fcb144"/><path d="M301.33 394.67l.334.667-.334-.667z" fill="#f2f1d2"/><path d="M245 395l1 1-1-1z" fill="#fcf1e4"/><path d="M276 395l1 1-1-1z" fill="#fef8f1"/><path d="M277 395l1 1-1-1z" fill="#fe9f11"/><path d="M280 395l-1 2 1-2z" fill="#fdab33"/><path d="M281 395l1 1-1-1z" fill="#fcb755"/><path d="M293 395l1 1-1-1z" fill="#fea522"/><path d="M294 395l1 1-1-1z" fill="#f9d099"/><path d="M304 395l1 1-1-1z" fill="#53527c"/><path d="M235.33 396.67l.334.666-.334-.666z" fill="#808067"/><path d="M246 396l1 1-1-1m3 0l1 1-1-1z" fill="#fea522"/><path d="M260 396l1 1-1-1z" fill="#fe9f11"/><path d="M276 396l1 1-1-1z" fill="#fae3c9"/><path d="M280 396l1 1-1-1z" fill="#fef8f1"/><path d="M282 396l1 1-1-1z" fill="#fcb144"/><path d="M295 396l1 1-1-1z" fill="#fcb755"/><path d="M296 396l2 2-2-2z" fill="#fef8f1"/><path d="M301.33 396.67l.334.666-.334-.666z" fill="#e5e59d"/><path d="M304.33 396.67l.334.666-.334-.666z" fill="#32327b"/><path d="M246.33 397.67l.334.666-.334-.666z" fill="#fcb755"/><path d="M250 397l1 1-1-1z" fill="#fef8f1"/><path d="M260 397l1 1-1-1z" fill="#fbbe66"/><path d="M276 397l1 1-1-1z" fill="#fbead6"/><path d="M278 397l1 1-1-1z" fill="#fe9f11"/><path d="M279 397l1 1-1-1z" fill="#fcf1e4"/><path d="M282 397l1 1-1-1z" fill="#fbead6"/><path d="M296 397l1 1-1-1z" fill="#fdab33"/><path d="M235 398l1 1-1-1z" fill="#667"/><path d="M238 398l1 1-1-1z" fill="#f6f6e4"/><path d="M250 398l1 1-1-1z" fill="#f9d6aa"/><path d="M258 398l1 1-1-1z" fill="#fdab33"/><path d="M259 398l1 1-1-1z" fill="#fe9f11"/><path d="M260 398l1 1-1-1z" fill="#fcf1e4"/><path d="M277 398l1 1-1-1z" fill="#fea522"/><path d="M278 398l1 1-1-1m5 0l1 1-1-1z" fill="#faca88"/><path d="M297 398l1 1-1-1z" fill="#fcb144"/><path d="M301 398l1 1-1-1z" fill="#dddc7a"/><path d="M235 399l1 1-1-1z" fill="#58587b"/><path d="M238 399l1 1-1-1z" fill="#f2f1d2"/><path d="M246.33 399.67l.334.666-.334-.666z" fill="#fcb144"/><path d="M250 399l1 1-1-1z" fill="#fea522"/><path d="M260 399l1 1-1-1z" fill="#fef8f1"/><path d="M261 399l1 1-1-1z" fill="#fea522"/><path d="M263 399l1 1-1-1z" fill="#fcb144"/><path d="M264 399l1 1-1-1z" fill="#fbead6"/><path d="M277 399l1 1-1-1z" fill="#f8dcbb"/><path d="M278 399l1 1-1-1z" fill="#fcf1e4"/><path d="M283 399l1 1-1-1z" fill="#fef8f1"/><path d="M284 399l1 1-1-1z" fill="#fe9f11"/><path d="M298 399l1 1-1-1z" fill="#fbead6"/><path d="M301 399l1 1-1-1z" fill="#d9d868"/><path d="M235 400l1 1-1-1z" fill="#3a3a7c"/><path d="M238 400l1 1-1-1z" fill="#e5e3af"/><path d="M251 400l1 1-1-1z" fill="#faca88"/><path d="M261 400l1 1-1-1z" fill="#fbead6"/><path d="M264 400l1 1-1-1z" fill="#fe9f11"/><path d="M265 400l1 1-1-1z" fill="#fcf1e4"/><path d="M276 400l1 1-1-1z" fill="#fbead6"/><path d="M277 400l1 1-1-1z" fill="#fae3c9"/><path d="M278 400l1 1-1-1z" fill="#fbead6"/><path d="M284 400l1 1-1-1m8 0l1 1-1-1z" fill="#fbbe66"/><path d="M293 400l1 1-1-1z" fill="#fcf1e4"/><path d="M294 400l1 1-1-1z" fill="#fef8f1"/><path d="M295 400l1 1-1-1z" fill="#f8dcbb"/><path d="M296 400l1 1-1-1z" fill="#fcb755"/><path d="M298 400l1 1-1-1z" fill="#fae3c9"/><path d="M303 400l1 1-1-1z" fill="#808067"/><path d="M235 401l1 1-1-1z" fill="#32327b"/><path d="M236.33 401.67l.334.666-.334-.666z" fill="#a4a43d"/><path d="M238 401l1 1-1-1z" fill="#e5e59d"/><path d="M246 401l1 1-1-1z" fill="#fbc477"/><path d="M252 401l1 1-1-1z" fill="#f9d6aa"/><path d="M262 401l1 1-1-1z" fill="#fbbe66"/><path d="M265 401l1 1-1-1z" fill="#f9d099"/><path d="M274 401l1 1-1-1z" fill="#fae3c9"/><path d="M275 401l1 1-1-1z" fill="#fcb144"/><path d="M279 401l1 1-1-1z" fill="#fae3c9"/><path d="M284 401l1 1-1-1z" fill="#f8dcbb"/><path d="M292 401l1 1-1-1z" fill="#f9d099"/><path d="M297 401l1 1-1-1z" fill="#fbc477"/><path d="M298 401l1 1-1-1z" fill="#fbead6"/><path d="M303 401l1 1-1-1z" fill="#737370"/><path d="M238 402l1 1-1-1z" fill="#d9d868"/><path d="M246 402l1 1-1-1z" fill="#f9d099"/><path d="M253 402l1 1-1-1m9 0l1 1-1-1z" fill="#f9d6aa"/><path d="M265 402l1 1-1-1z" fill="#fbc477"/><path d="M270 402l1 1-1-1z" fill="#fef8f1"/><path d="M271 402l1 1-1-1z" fill="#f8dcbb"/><path d="M272 402l1 1-1-1z" fill="#fbc477"/><path d="M273 402l1 1-1-1z" fill="#fea522"/><path d="M279 402l1 1-1-1z" fill="#fbead6"/><path d="M300 402l1 1-1-1z" fill="#f2f1d2"/><path d="M303 402l1 1-1-1z" fill="#58587b"/><path d="M236 403l1 1-1-1z" fill="#99994e"/><path d="M238 403l1 1-1-1z" fill="#d0d045"/><path d="M254 403l1 1-1-1z" fill="#fcb144"/><path d="M255 403l1 1-1-1z" fill="#fae3c9"/><path d="M262 403l1 1-1-1z" fill="#fef8f1"/><path d="M266 403l1 1-1-1z" fill="#fcb755"/><path d="M267 403l1 1-1-1z" fill="#fbc477"/><path d="M268 403l1 1-1-1z" fill="#fcb144"/><path d="M269 403l1 1-1-1z" fill="#fea522"/><path d="M277 403l1 1-1-1z" fill="#fe9f11"/><path d="M278 403l1 1-1-1z" fill="#f9d6aa"/><path d="M292 403l1 1-1-1z" fill="#fef8f1"/><path d="M300 403l1 1-1-1z" fill="#e0dea1"/><path d="M303 403l1 1-1-1z" fill="#3a3a7c"/><path d="M236 404l1 1-1-1z" fill="#737370"/><path d="M239 404l1 1-1-1z" fill="#fbfaf2"/><path d="M247 404l1 1-1-1z" fill="#fea522"/><path d="M256 404l1 1-1-1z" fill="#fe9f11"/><path d="M257 404l1 1-1-1z" fill="#fcb144"/><path d="M258 404l1 1-1-1z" fill="#fbc477"/><path d="M259 404l1 1-1-1z" fill="#faca88"/><path d="M260 404l1 1-1-1z" fill="#fbc477"/><path d="M261 404l1 1-1-1z" fill="#fcb144"/><path d="M262 404l1 1-1-1z" fill="#fdab33"/><path d="M276 404l1 1-1-1z" fill="#fbc477"/><path d="M277 404l1 1-1-1z" fill="#fef8f1"/><path d="M291 404l1 1-1-1z" fill="#fdab33"/><path d="M300 404l1 1-1-1z" fill="#e1e18c"/><path d="M302.33 404.67l.334.666-.334-.666z" fill="#a4a43d"/><path d="M303 404l1 1-1-1z" fill="#262678"/><path d="M236 405l1 1-1-1z" fill="#58587b"/><path d="M239 405l1 1-1-1z" fill="#f2f1d2"/><path d="M247 405l1 1-1-1z" fill="#faca88"/><path d="M274 405l1 1-1-1z" fill="#fe9f11"/><path d="M275 405l1 1-1-1z" fill="#fbead6"/><path d="M284 405l1 1-1-1z" fill="#fbc477"/><path d="M291 405l1 1-1-1z" fill="#faca88"/><path d="M300 405l1 1-1-1z" fill="#d4d456"/><path d="M236 406l1 1-1-1z" fill="#32327b"/><path d="M239 406l1 1-1-1z" fill="#e5e59d"/><path d="M247 406l1 1-1-1z" fill="#fef8f1"/><path d="M248 406l1 1-1-1z" fill="#fe9f11"/><path d="M274 406l1 1-1-1z" fill="#fbead6"/><path d="M284 406l1 1-1-1z" fill="#fea522"/><path d="M291 406l1 1-1-1z" fill="#fcf1e4"/><path d="M302 406l1 1-1-1z" fill="#808067"/><path d="M236 407l1 1-1-1z" fill="#0e0e6e"/><path d="M237 407l1 1-1-1z" fill="#a4a43d"/><path d="M239 407l1 1-1-1z" fill="#d9d868"/><path d="M248 407l1 1-1-1z" fill="#f8dcbb"/><path d="M283 407l1 1-1-1z" fill="#f9d6aa"/><path d="M290 407l1 1-1-1z" fill="#faca88"/><path d="M299 407l1 1-1-1z" fill="#f2f1d2"/><path d="M302 407l1 1-1-1z" fill="#58587b"/><path d="M237 408l1 1-1-1z" fill="#8d8d5b"/><path d="M249 408l1 1-1-1z" fill="#f9d6aa"/><path d="M269 408l1 1-1-1z" fill="#fdab33"/><path d="M270 408l1 1-1-1z" fill="#fff"/><path d="M271.67 408.33l.666.334-.666-.334z" fill="#fcb144"/><path d="M282 408l-1 2 1-2z" fill="#fef8f1"/><path d="M283 408l1 1-1-1z" fill="#fe9f11"/><path d="M289 408l-1 2 1-2z" fill="#fdab33"/><path d="M299 408l1 1-1-1z" fill="#e5e59d"/><path d="M302 408l1 1-1-1z" fill="#3a3a7c"/><path d="M237 409l1 1-1-1z" fill="#667"/><path d="M240 409l1 1-1-1z" fill="#f2f1d2"/><path d="M250 409l1 1-1-1z" fill="#f9d6aa"/><path d="M269 409l1 1-1-1z" fill="#fe9f11"/><path d="M270 409l1 1-1-1z" fill="#faca88"/><path d="M271 409l1 1-1-1z" fill="#fea522"/><path d="M272 409l1 1-1-1z" fill="#fcf1e4"/><path d="M282 409l1 1-1-1z" fill="#fdab33"/><path d="M289 409l1 1-1-1z" fill="#fef8f1"/><path d="M299 409l1 1-1-1z" fill="#d9d868"/><path d="M301 409l1 1-1-1z" fill="#a4a43d"/><path d="M302 409l1 1-1-1z" fill="#0e0e6e"/><path d="M237 410l1 1-1-1z" fill="#3a3a7c"/><path d="M240 410l1 1-1-1z" fill="#e5e59d"/><path d="M251 410l2 2-2-2z" fill="#fae3c9"/><path d="M252 410l1 1-1-1z" fill="#fe9f11"/><path d="M271 410l1 1-1-1z" fill="#f8dcbb"/><path d="M280 410l1 1-1-1z" fill="#fcf1e4"/><path d="M281 410l1 1-1-1z" fill="#fdab33"/><path d="M287 410l1 1-1-1z" fill="#fcb144"/><path d="M288 410l1 1-1-1z" fill="#fef8f1"/><path d="M298 410l1 1-1-1z" fill="#fbfaf2"/><path d="M301 410l1 1-1-1z" fill="#8d8d5b"/><path d="M237 411l1 1-1-1z" fill="#0e0e6e"/><path d="M238 411l1 1-1-1z" fill="#a4a43d"/><path d="M240 411l1 1-1-1z" fill="#d4d456"/><path d="M270 411l1 1-1-1z" fill="#f9d6aa"/><path d="M279 411l1 1-1-1z" fill="#f9d099"/><path d="M280 411l1 1-1-1z" fill="#fe9f11"/><path d="M286 411l1 1-1-1z" fill="#faca88"/><path d="M298 411l1 1-1-1z" fill="#eeedc1"/><path d="M301 411l1 1-1-1z" fill="#58587b"/><path d="M238 412l1 1-1-1z" fill="#737370"/><path d="M241 412l1 1-1-1z" fill="#f6f6e4"/><path d="M252 412l1 1-1-1z" fill="#fbbe66"/><path d="M268 412l1 1-1-1z" fill="#fcb144"/><path d="M269.33 412.67l.334.666-.334-.666z" fill="#f8dcbb"/><path d="M277 412l1 1-1-1z" fill="#fbbe66"/><path d="M278 412l1 1-1-1z" fill="#fe9f11"/><path d="M284 412l1 1-1-1z" fill="#fbc477"/><path d="M285 412l1 1-1-1z" fill="#fcf1e4"/><path d="M298 412l1 1-1-1z" fill="#d3d079"/><path d="M300 412l1 1-1-1z" fill="#a4a43d"/><path d="M301 412l1 1-1-1z" fill="#262678"/><path d="M238 413l1 1-1-1z" fill="#49497d"/><path d="M241 413l1 1-1-1z" fill="#e0dea1"/><path d="M251 413l1 1-1-1z" fill="#fae3c9"/><path d="M265 413l1 1-1-1z" fill="#fdab33"/><path d="M266 413l1 1-1-1z" fill="#fbc477"/><path d="M267 413l1 1-1-1z" fill="#fbead6"/><path d="M270 413l1 1-1-1z" fill="#fcb144"/><path d="M283 413l1 1-1-1z" fill="#f9d6aa"/><path d="M300 413l1 1-1-1z" fill="#99994e"/><path d="M238 414l1 1-1-1z" fill="#0e0e6e"/><path d="M239 414l1 1-1-1z" fill="#a4a43d"/><path d="M241 414l1 1-1-1z" fill="#d4d456"/><path d="M250 414l1 1-1-1z" fill="#f9d099"/><path d="M251 414l1 1-1-1m5 0l1 1-1-1z" fill="#fe9f11"/><path d="M257 414l1 1-1-1z" fill="#f9d6aa"/><path d="M258 414l1 1-1-1z" fill="#f9d099"/><path d="M262 414l1 1-1-1z" fill="#f9d6aa"/><path d="M263 414l1 1-1-1z" fill="#fae3c9"/><path d="M264 414l1 1-1-1z" fill="#fef8f1"/><path d="M272 414l1 1-1-1z" fill="#fbead6"/><path d="M273 414l1 1-1-1z" fill="#fae3c9"/><path d="M274 414l1 1-1-1z" fill="#faca88"/><path d="M275 414l1 1-1-1z" fill="#fbc477"/><path d="M276 414l1 1-1-1z" fill="#fdab33"/><path d="M281 414l1 1-1-1z" fill="#fe9f11"/><path d="M282 414l1 1-1-1z" fill="#f9d6aa"/><path d="M297 414l1 1-1-1z" fill="#e5e3af"/><path d="M300 414l1 1-1-1z" fill="#667"/><path d="M239 415l1 1-1-1z" fill="#737370"/><path d="M242 415l1 1-1-1z" fill="#f2f1d7"/><path d="M249 415l1 1-1-1z" fill="#fea522"/><path d="M254 415l1 1-1-1z" fill="#fe9f11"/><path d="M255 415l1 1-1-1z" fill="#fbbe66"/><path d="M256 415l1 1-1-1z" fill="#fcf1e4"/><path d="M280 415l1 1-1-1z" fill="#fea522"/><path d="M281 415l1 1-1-1z" fill="#fbead6"/><path d="M297 415l1 1-1-1z" fill="#dddc7a"/><path d="M299 415l1 1-1-1z" fill="#a4a43d"/><path d="M300 415l1 1-1-1z" fill="#262678"/><path d="M239 416l1 1-1-1z" fill="#49497d"/><path d="M240.33 416.67l.334.666-.334-.666z" fill="#a4a43d"/><path d="M242 416l1 1-1-1z" fill="#d3d079"/><path d="M250 416l1 1-1-1z" fill="#f9d099"/><path d="M251 416l1 1-1-1z" fill="#fcb144"/><path d="M252 416l1 1-1-1z" fill="#faca88"/><path d="M253 416l1 1-1-1z" fill="#f8dcbb"/><path d="M254 416l1 1-1-1z" fill="#fef8f1"/><path d="M276 416l1 1-1-1z" fill="#f8dcbb"/><path d="M280 416l1 1-1-1z" fill="#fcf1e4"/><path d="M296 416l1 1-1-1z" fill="#f6f6e4"/><path d="M299 416l1 1-1-1z" fill="#8d8d5b"/><path d="M243 417l1 1-1-1z" fill="#fbfaf2"/><path d="M276 417l1 1-1-1z" fill="#fbbe66"/><path d="M279 417l1 1-1-1z" fill="#faca88"/><path d="M296 417l1 1-1-1z" fill="#e1e18c"/><path d="M299 417l1 1-1-1z" fill="#49497d"/><path d="M240 418l1 1-1-1z" fill="#58587b"/><path d="M243 418l1 1-1-1z" fill="#e5e59d"/><path d="M276 418l1 1-1-1z" fill="#fe9f11"/><path d="M278 418l1 1-1-1z" fill="#fdab33"/><path d="M295 418l1 1-1-1z" fill="#fbfaf2"/><path d="M298 418l1 1-1-1z" fill="#a4a43d"/><path d="M299 418l1 1-1-1z" fill="#0e0e6e"/><path d="M240 419l1 1-1-1z" fill="#1b1b74"/><path d="M241 419l1 1-1-1z" fill="#a4a43d"/><path d="M243 419l1 1-1-1z" fill="#d0d045"/><path d="M275 419l1 1-1-1z" fill="#fbead6"/><path d="M277 419l1 1-1-1z" fill="#fe9f11"/><path d="M278 419l1 1-1-1z" fill="#fbead6"/><path d="M295 419l1 1-1-1z" fill="#e5e59d"/><path d="M298 419l1 1-1-1z" fill="#667"/><path d="M241 420l1 1-1-1z" fill="#6e6c70"/><path d="M244 420l1 1-1-1z" fill="#e5e3af"/><path d="M275.33 420.67l.334.666-.334-.666z" fill="#faca88"/><path d="M277 420l1 1-1-1z" fill="#fae3c9"/><path d="M294 420l1 1-1-1z" fill="#fbfaf2"/><path d="M297 420l1 1-1-1z" fill="#a4a43d"/><path d="M298 420l1 1-1-1m-57 1l1 1-1-1z" fill="#1b1b74"/><path d="M242 421l1 1-1-1z" fill="#a4a43d"/><path d="M244 421l1 1-1-1z" fill="#d0d045"/><path d="M245 421l1 1-1-1z" fill="#fbfaf2"/><path d="M276 421l1 1-1-1z" fill="#f9d6aa"/><path d="M294 421l1 1-1-1z" fill="#e5e59d"/><path d="M297 421l1 1-1-1m-55 1l1 1-1-1z" fill="#6e6c70"/><path d="M245 422l1 1-1-1z" fill="#8cbf84"/><path d="M245.43 422c3.473 7.309 15.757 24.553 25.14 24.217 9.113-.326 19.404-17.151 23.43-24.217h-48.57z" fill="#0cf"/><path d="M296 422l1 1-1-1z" fill="#a4a43d"/><path d="M297 422l1 1-1-1m-55 1l1 1-1-1z" fill="#1b1b74"/><path d="M243 423l1 1-1-1z" fill="#a4a43d"/><path d="M245 423l1 1-1-1z" fill="#adb333"/><path d="M246 423l1 1-1-1z" fill="#1ac5b5"/><path d="M293 423l1 1-1-1z" fill="#68b070"/><path d="M296 423l1 1-1-1z" fill="#667"/><path d="M243 424l1 1-1-1z" fill="#58587b"/><path d="M246 424l1 1-1-1z" fill="#7fb15c"/><path d="M292 424l1 1-1-1z" fill="#27c2aa"/><path d="M295 424l-1 2 1-2z" fill="#a4a43d"/><path d="M296 424l1 1-1-1m-53 1l1 1-1-1z" fill="#0e0e6e"/><path d="M244 425l2 2-2-2z" fill="#a4a43d"/><path d="M247 425l1 1-1-1z" fill="#34be9e"/><path d="M292 425l1 1-1-1z" fill="#96b247"/><path d="M295 425l1 1-1-1z" fill="#53527c"/><path d="M244 426l1 1-1-1z" fill="#3a3a7c"/><path d="M247 426l1 1-1-1z" fill="#a2b23d"/><path d="M248 426l1 1-1-1z" fill="#0dc9c1"/><path d="M291 426l1 1-1-1z" fill="#5bb47c"/><path d="M294 426l1 1-1-1z" fill="#8d8d5b"/><path d="M245 427l1 1-1-1z" fill="#737370"/><path d="M248 427l1 1-1-1z" fill="#74b166"/><path d="M290 427l1 1-1-1z" fill="#27c2aa"/><path d="M293 427l-1 2 1-2z" fill="#a4a43d"/><path d="M294 427l1 1-1-1z" fill="#262678"/><path d="M245 428l1 1-1-1z" fill="#0e0e6e"/><path d="M246 428l2 2-2-2z" fill="#a4a43d"/><path d="M249 428l1 1-1-1z" fill="#42bb92"/><path d="M289 428l1 1-1-1z" fill="#0dc9c1"/><path d="M290 428l1 1-1-1z" fill="#96b247"/><path d="M293 428l1 1-1-1z" fill="#58587b"/><path d="M246 429l1 1-1-1z" fill="#3a3a7c"/><path d="M249 429l1 1-1-1z" fill="#adb333"/><path d="M250 429l1 1-1-1z" fill="#27c2aa"/><path d="M289 429l1 1-1-1z" fill="#74b166"/><path d="M292 429l1 1-1-1z" fill="#8d8d5b"/><path d="M247 430l1 1-1-1z" fill="#6e6c70"/><path d="M250 430l1 1-1-1z" fill="#96b247"/><path d="M251 430l1 1-1-1z" fill="#0dc9c1"/><path d="M288 430l1 1-1-1z" fill="#42bb92"/><path d="M291 430l-2 3 2-3z" fill="#a4a43d"/><path d="M292 430l1 1-1-1z" fill="#1b1b74"/><path d="M247 431l1 1-1-1z" fill="#0e0e6e"/><path d="M248 431l1 1-1-1z" fill="#8d8d5b"/><path d="M251 431l1 1-1-1z" fill="#7fb15c"/><path d="M287 431l1 1-1-1z" fill="#34be9e"/><path d="M291 431l1 1-1-1z" fill="#3a3a7c"/><path d="M248 432l1 1-1-1z" fill="#1b1b74"/><path d="M249 432l11 11-11-11z" fill="#a4a43d"/><path d="M252 432l1 1-1-1z" fill="#74b166"/><path d="M286 432l1 1-1-1z" fill="#27c2aa"/><path d="M287 432l1 1-1-1z" fill="#adb333"/><path d="M290 432l1 1-1-1z" fill="#667"/><path d="M249 433l1 1-1-1z" fill="#32327b"/><path d="M253 433l1 1-1-1z" fill="#42bb92"/><path d="M285 433l-4 5 4-5z" fill="#0dc9c1"/><path d="M286 433l1 1-1-1z" fill="#adb333"/><path d="M289 433l1 1-1-1z" fill="#737370"/><path d="M250 434l1 1-1-1z" fill="#49497d"/><path d="M254 434l1 1-1-1z" fill="#42bb92"/><path d="M285 434l1 1-1-1z" fill="#96b247"/><path d="M288 434l-1 2 1-2z" fill="#8d8d5b"/><path d="M289 434l1 1-1-1z" fill="#0e0e6e"/><path d="M251 435l1 1-1-1z" fill="#53527c"/><path d="M255 435l1 1-1-1z" fill="#42bb92"/><path d="M284 435l1 1-1-1z" fill="#96b247"/><path d="M288 435l1 1-1-1z" fill="#0e0e6e"/><path d="M252 436l1 1-1-1z" fill="#6e6c70"/><path d="M256 436l1 1-1-1z" fill="#42bb92"/><path d="M283 436l1 1-1-1z" fill="#96b247"/><path d="M286 436l-2 3 2-3z" fill="#a4a43d"/><path d="M287 436l1 1-1-1z" fill="#262678"/><path d="M253 437l1 1-1-1z" fill="#6e6c70"/><path d="M257 437l1 1-1-1z" fill="#42bb92"/><path d="M282 437l1 1-1-1z" fill="#96b247"/><path d="M286 437l1 1-1-1z" fill="#262678"/><path d="M254 438l1 1-1-1z" fill="#6e6c70"/><path d="M258 438l1 1-1-1z" fill="#68b070"/><path d="M280 438l1 1-1-1z" fill="#27c2aa"/><path d="M281 438l1 1-1-1z" fill="#adb333"/><path d="M285 438l1 1-1-1z" fill="#262678"/><path d="M255 439l1 1-1-1z" fill="#667"/><path d="M259 439l1 1-1-1z" fill="#74b166"/><path d="M279 439l1 1-1-1z" fill="#34be9e"/><path d="M280 439l1 1-1-1z" fill="#adb333"/><path d="M283 439l-1 2 1-2z" fill="#8d8d5b"/><path d="M284 439l1 1-1-1z" fill="#262678"/><path d="M256 440l1 1-1-1z" fill="#49497d"/><path d="M260 440l1 1-1-1z" fill="#96b247"/><path d="M261 440l1 1-1-1z" fill="#0dc9c1"/><path d="M278 440l1 1-1-1z" fill="#42bb92"/><path d="M283 440l1 1-1-1z" fill="#0e0e6e"/><path d="M257 441l1 1-1-1z" fill="#49497d"/><path d="M261 441l1 1-1-1z" fill="#a2b23d"/><path d="M262 441l1 1-1-1z" fill="#27c2aa"/><path d="M277 441l1 1-1-1z" fill="#74b166"/><path d="M280 441l-3 4 3-4z" fill="#a4a43d"/><path d="M281 441l1 1-1-1z" fill="#808067"/><path d="M282 441l1 1-1-1z" fill="#0e0e6e"/><path d="M258 442l1 1-1-1z" fill="#262678"/><path d="M262 442l1 1-1-1z" fill="#adb333"/><path d="M263 442l1 1-1-1z" fill="#42bb92"/><path d="M275 442l1 1-1-1z" fill="#0dc9c1"/><path d="M276 442l1 1-1-1z" fill="#96b247"/><path d="M280 442l1 1-1-1z" fill="#6e6c70"/><path d="M259 443l1 1-1-1z" fill="#1b1b74"/><path d="M260 443l1 1-1-1z" fill="#8d8d5b"/><path d="M264 443l1 1-1-1z" fill="#74b166"/><path d="M265 443l1 1-1-1z" fill="#0dc9c1"/><path d="M274 443l1 1-1-1z" fill="#34be9e"/><path d="M275 443l1 1-1-1z" fill="#adb333"/><path d="M279 443l1 1-1-1z" fill="#49497d"/><path d="M260 444l1 1-1-1z" fill="#0e0e6e"/><path d="M261 444l1 1-1-1z" fill="#6e6c70"/><path d="M262 444l2 2-2-2z" fill="#a4a43d"/><path d="M265 444l1 1-1-1z" fill="#96b247"/><path d="M266 444l1 1-1-1z" fill="#27c2aa"/><path d="M273 444l1 1-1-1z" fill="#68b070"/><path d="M278 444l1 1-1-1z" fill="#32327b"/><path d="M262 445l1 1-1-1z" fill="#49497d"/><path d="M267 445l1 1-1-1z" fill="#5bb47c"/><path d="M271 445l1 1-1-1z" fill="#27c2aa"/><path d="M272 445l1 1-1-1z" fill="#96b247"/><path d="M275 445l-1 2 1-2z" fill="#a4a43d"/><path d="M276 445l1 1-1-1z" fill="#808067"/><path d="M277 445l1 1-1-1z" fill="#0e0e6e"/><path d="M263 446l1 1-1-1z" fill="#262678"/><path d="M264 446l1 1-1-1z" fill="#8d8d5b"/><path d="M268 446l1 1-1-1z" fill="#8bb252"/><path d="M269 446l1 1-1-1z" fill="#1ac5b5"/><path d="M270 446l1 1-1-1z" fill="#5bb47c"/><path d="M275 446l1 1-1-1z" fill="#58587b"/><path d="M264 447l1 1-1-1z" fill="#0e0e6e"/><path d="M265 447l1 1-1-1z" fill="#667"/><path d="M266 447l1 1-1-1z" fill="#a4a43d"/><path d="M273 447l1 1-1-1z" fill="#99994e"/><path d="M274 447l1 1-1-1m-8 1l1 1-1-1z" fill="#32327b"/><path d="M267 448l1 1-1-1z" fill="#99994e"/><path d="M271 448l1 1-1-1z" fill="#a4a43d"/><path d="M272 448l1 1-1-1z" fill="#667"/><path d="M273 448l1 1-1-1m-6 1l1 1-1-1z" fill="#0e0e6e"/><path d="M268 449l1 1-1-1z" fill="#667"/><path d="M269 449l1 1-1-1z" fill="#a4a43d"/><path d="M270 449l1 1-1-1z" fill="#99994e"/><path d="M271 449l1 1-1-1z" fill="#32327b"/><path d="M269 450l1 1-1-1z" fill="#262678"/><path d="M270 450l1 1-1-1z" fill="#0e0e6e"/><g><path d="M271 383c1.543 3.629 6.49 7.637 7.85 9.601-1.731 1.964-2.077 1.75-1.85 5.399 3.01-3.149 3.064-3.478 5-3 4.241 4.232.759 13.321-2.746 15.297-3.504 2.108-2.868-.073-8.12 2.569 2.408 2.059 5.198-.302 7.478.329 1.239 1.47-.589 4.149.374 6.672 2.015-.194 1.773-4.262 2.242-5.737 1.472-5.404 10.322-9.173 10.772-14.13 1.866-.876 3.731-.274 6 1-1.13-4.644-4.868-4.594-5.87-6.044-2.385-3.645-4.499-7.802-9.593-8.881-3.867-.819-3.578.246-6.056-1.444-1.54-1.202-6.23-3.474-5.48-1.631z" fill="#f90"/><path d="M282.118 387.123c0 .445-.361.806-.806.806-.445 0-.806-.361-.806-.806 0-.445.361-.806.806-.806.445 0 .806.361.806.806z" fill-rule="evenodd" fill="#fff"/></g><g><path d="M258.632 398.397c2.488-3.06 3.721-9.306 4.822-11.426 2.545.613 2.518 1.019 5.638-.886-4.191-1.19-4.506-1.085-4.988-3.019 1.761-5.727 11.423-6.894 14.808-4.718 3.501 2.113 1.275 2.57 6.065 5.979.696-3.091-2.695-4.455-3.203-6.766.721-1.782 3.944-1.417 5.724-3.448-1.113-1.691-4.597.423-6.12.698-5.466 1.223-12.933-4.841-17.526-2.923-1.646-1.241-1.985-3.171-1.919-5.772-3.578 3.169-1.788 6.45-2.602 8.014-2.108 3.811-4.797 7.623-3.371 12.631 1.083 3.802 1.889 3.048 1.552 6.029-.343 1.923-.161 7.131 1.118 5.607z" fill="#f90"/><path d="M257.106 386.706c.393-.208.881-.057 1.089.336.208.393.057.881-.336 1.089-.393.208-.881.057-1.089-.336-.208-.393-.057-.881.336-1.089z" fill-rule="evenodd" fill="#fff"/></g><g><path d="M278.85 400.545c-3.906-.547-9.889 1.63-12.273 1.784-.792-2.495-.43-2.682-3.675-4.366 1.149 4.202 1.403 4.417-.004 5.831-5.812 1.456-11.809-6.21-11.698-10.232-.002-4.089 1.54-2.421 1.98-8.283-3.005 1.004-2.418 4.611-4.133 6.24-1.898.305-3.253-2.642-5.912-3.116-.872 1.827 2.74 3.715 3.763 4.877 3.874 4.045 2.547 13.572 6.564 16.511-.21 2.051-1.687 3.339-3.947 4.628 4.563 1.423 6.445-1.807 8.204-1.918 4.352-.167 9.005.162 12.553-3.649 2.694-2.893 1.632-3.194 4.357-4.447 1.823-.701 6.187-3.551 4.22-3.857z" fill="#f90"/><path d="M269.622 407.911c-.381-.229-.505-.724-.276-1.106.229-.381.724-.505 1.106-.276.381.229.505.724.276 1.106-.229.381-.724.505-1.106.276z" fill-rule="evenodd" fill="#fff"/></g></g></g></svg>