<svg xmlns="http://www.w3.org/2000/svg" xmlns:xlink="http://www.w3.org/1999/xlink" id="flag-icon-css-al" width="512" height="512">
  <path fill="#e41e20" d="M0 0h512v512H0z"/>
  <path id="a" d="M204.9 99.54c-4.98-.09-13.24 1.58-13.06 5.4-13.87-2.37-15.31 3.36-14.5 8.45 1.32-2.02 2.93-3.12 4.16-3.32 1.85-.31 3.79.29 5.76 1.5a23.03 23.03 0 0 1 5.12 4.38c-4.89 1.17-8.67.42-12.5-.25a17.6 17.6 0 0 1-6.12-2.5c-1.57-1.1-2.07-2.14-4.54-4.67-2.92-2.99-6.03-2.15-5.06 2.5 2.24 4.3 5.98 6.23 10.69 7 2.26.38 5.64 1.18 9.47 1.19 3.83 0 8.13-.56 10.46-.07-1.4.89-2.99 2.4-6.14 3.01-3.2.62-8.07-1.9-11.04-2.59.38 2.5 3.53 4.83 9.73 6.05 10.19 2.22 18.66 3.9 24.25 6.94 5.6 3.04 9.13 6.85 11.65 9.83 5.02 5.93 5.28 10.48 5.6 11.48 1.03 9.48-2.27 14.81-8.41 16.45-3.07.82-8.53-.72-10.53-3.07-2-2.35-3.95-6.38-3.4-12.7.55-2.48 3.38-8.94.97-10.27a291.64 291.64 0 0 0-34.4-16.07c-2.67-1.01-4.87 2.62-5.73 4.03-16.6-2.02-31.57-13.25-38.3-25.21-4.6-8.15-12.16.01-10.89 7.7 2.06 8.6 8.6 14.8 16.45 19.2 8.06 4.45 18.13 8.81 28.32 8.58 5.5 1.04 5.44 8.14-1.15 9.48-12.88.08-23.16-.24-32.86-9.6-7.36-6.72-11.5 1.28-9.38 5.82 3.6 13.99 23.56 17.9 43.74 13.38 7.82-1.3 3.14 7.08.93 7.16-8.43 6.05-23.53 11.97-36.83-.06-6.09-4.66-10.2-.74-7.94 5.98 5.9 17.54 28.47 13.86 43.97 5.22 4-2.22 7.61 2.95 2.75 6.88-19.27 13.46-28.9 13.62-37.6 8.45-10.88-4.3-11.84 7.78-5.37 11.74 7.18 4.41 25.46 1.1 38.88-7.33 5.75-4.27 6 2.41 2.37 5.06-15.92 13.75-22.2 17.38-38.79 15.13-8.23-.64-8.1 9.5-1.63 13.48 8.84 5.42 26.1-3.58 39.49-14.7 5.64-3 6.56 1.94 3.77 7.78-8.18 10.33-15.86 16.42-23.26 19.24-7.4 2.82-14.52 2.37-19.55.64-6.15-2.11-6.92 4.27-3.52 10.08 2.05 3.5 10.53 4.62 19.68 1.37 9.15-3.24 18.98-10.85 25.73-19.77 5.87-5.14 5.14 1.76 2.46 6.62-13.51 21.36-25.87 29.28-42.14 27.94-7.22-1.23-8.86 4.38-4.26 9.57 8.08 6.7 18.18 6.48 27-.13 7.86-7.57 22.88-23.88 30.76-32.61 5.55-4.43 7.33-.06 5.7 8.93-1.48 5.15-5.2 10.57-15.3 14.52-6.9 3.94-1.72 9.38 3.46 9.48 2.84.05 8.63-3.28 13.05-8.26 5.82-6.55 6.17-10.95 9.38-21.15 3.03-4.97 8.45-2.65 8.45 2.56-2.6 10.21-4.83 12.05-10.08 16.22-5.03 4.72 3.5 6.3 6.36 4.36 8.3-5.6 11.34-12.84 14.12-19.43 2-4.75 7.81-2.45 5.12 5.32-6.44 18.54-17.02 25.85-35.52 29.6-1.88.33-3.02 1.44-2.37 3.61 2.48 2.58 4.97 4.92 7.45 7.49-11.44 3.33-20.74 5.2-32.19 8.54-5.62-3.68-10.15-6.8-15.77-10.5-1.48-3.46-2.18-8.74-10.47-5.02-5.62-2.59-8.2-1.64-11.33.96 4.5.17 6.46 1.38 8.23 3.43 2.3 6.07 7.62 6.65 13.05 4.93 3.54 2.98 5.43 5.26 8.96 8.25-6.6-.22-11.2-.34-17.79-.54-6.29-6.75-11.3-6.38-15.8-1.09-3.44.53-4.89.6-7.24 4.77 3.7-1.52 6.02-1.97 7.62-.32 6.68 3.87 11.05 3 14.37 0 6.45.4 12.26.73 18.72 1.15-2.38 2.02-5.63 3.09-8 5.12-9.7-2.77-14.75.96-16.45 8.86-1.3 3.2-1.9 6.48-1.35 9.9.94-3.13 2.45-5.81 5.22-7.5 8.64 2.2 11.88-1.33 12.35-6.5 4.16-3.39 10.44-4.14 14.6-7.58 4.85 1.56 7.2 2.52 12.09 4.07 1.74 5.28 5.67 7.38 12.06 6.01 7.61.24 6.27 3.36 6.88 5.86 2.03-3.59 1.97-7.07-2.72-10.24-1.7-4.63-5.48-6.74-10.43-4.06-4.66-1.33-5.88-3.23-10.53-4.55 11.75-3.74 20.08-4.58 31.81-8.32 2.94 2.77 5.27 4.76 8.23 7.23 1.56.93 3.05 1.17 3.96 0 7.36-10.64 10.64-20.02 17.48-27.04 2.6-2.9 5.9-6.82 9.56-7.77 1.83-.48 4.08-.19 5.5 1.37 1.44 1.57 2.57 4.44 2.09 8.74-.69 6.17-2.18 8.11-3.9 11.8-1.74 3.7-3.85 5.98-6.02 8.8-4.35 5.67-10.08 8.96-13.47 11.18-6.79 4.42-9.66 2.48-14.92 2.2-6.79.77-8.6 4.08-3.04 8.64 5.2 2.7 9.87 3.04 13.67 2.34 3.26-.6 7.07-4.8 9.79-7.07 3.06-3.54 8.13.66 4.67 4.77-6.28 7.47-12.57 12.4-20.32 12.28-8.14 1.1-6.62 5.68-1.21 7.91 9.73 4.02 18.51-3.5 22.97-8.45 3.45-3.76 5.9-3.91 5.28 1.92-3.42 10.56-8.09 14.64-15.71 15.17-6.18-.57-6.25 4.2-1.73 7.42 10.3 7.13 17.77-5 21.25-12.35 2.48-6.62 6.3-3.47 6.69 1.98.05 7.3-3.24 13.25-12.07 20.71 6.75 10.75 14.62 21.7 21.38 32.48l20.48-228.15L256 148.27c-2.13-1.97-9.34-10.47-11.23-11.65-.69-.73-1.1-1.25-.1-1.63.98-.37 3.27-.78 4.8-1.06-4.34-4.35-8.06-5.74-16.28-8.12 2-.86 3.95-.36 9.86-.64a32.26 32.26 0 0 0-14.34-10.88c4.46-3.18 5.33-3.39 9.76-7.1-7.67-.55-14.22-2.01-20.8-4-4.17-1.96-9.95-3.6-12.77-3.66zm.73 8.93c4.05 0 6.56 1.39 6.56 3.07 0 1.71-2.5 3.1-6.56 3.1-4.03 0-6.59-1.52-6.59-3.23 0-1.68 2.56-2.94 6.6-2.94z"/>
  <use width="100%" height="100%" transform="matrix(-1 0 0 1 512 0)" xlink:href="#a"/>
</svg>
