<svg xmlns="http://www.w3.org/2000/svg" height="512" width="512">
  <g clip-path="url(#a)">
    <path fill="#006" d="M-512 0h1023.977v511.984h-1023.977z"/>
    <path d="M-512 255.994l1023.977 255.992v-511.984l-1023.977 255.992z" fill-rule="evenodd" fill="#bd1021"/>
    <path d="M511.977 27.428v457.127l-914.265-228.569 914.265-228.569z" fill-rule="evenodd" fill="#fff"/>
    <g stroke="#000">
      <path d="M340.023 313.449s-6.394-5.232 1.162-13.66c-4.069-3.487-.29-10.172-.29-10.172s-6.976-2.617.29-13.37c-5.232-3.487-2.907-11.335-2.907-11.335s-17.148-6.394-.871-12.496c-13.37 5.812-25.868-7.848-25.868-7.848l-19.472.582c-3.303-16.175-28.976-2.128-9.89-48.53-4.941-.872-10.463-2.325-15.985 1.744-5.523 4.068-21.217 12.787-30.518 4.068s6.102-21.217 6.394-21.507c.29-.29 20.635-10.753 23.542-17.728-.29-5.233-6.684-9.301-.872-20.636 6.684-10.753 47.661-20.926 66.274-24.414 9.009-4.069 13.078-11.916 13.078-11.916l2.035 7.557s41.271-12.207 43.306-18.02l.872 5.231c16.275-1.453 36.91-15.403 39.817-9.01 13.66-2.616 39.818-14.241 39.818-14.241s9.009-.291 2.615 9.591c4.069 6.394-1.162 11.916-1.453 11.916-.292 0 1.743 6.394-3.489 9.882 1.746 5.522-3.197 9.882-3.197 9.882s2.326 6.685-6.975 10.172c.872 5.813-5.232 6.975-5.232 6.975s.872 6.104-3.197 8.719c0 4.65-4.65 6.975-4.65 6.975s2.905 1.744-1.164 4.65c-4.068 2.906-46.211 28.773-46.211 28.483 0-.291 30.808 5.522 32.842 6.685l25.286 16.567-23.543 29.063s-26.157-2.905-27.319-1.453 5.522 2.035 6.975 4.359c1.454 2.325 3.779 7.848 8.429 7.266 4.651-.582-8.719 8.429-17.438 9.301 0 3.197 11.044 3.487 13.951.872 2.907-2.617-6.976 7.556-8.138 9.009l13.08-2.035s-2.326 9.591-14.823 12.498c4.94 8.138 2.905 13.37 2.615 13.37s-8.138-8.138-15.695-6.686c2.035 7.848 8.138 15.113 9.883 16.277 1.743 1.162-13.66.871-15.695-3.489s-3.779 10.463 1.743 15.114c-6.393.29-11.916-3.489-11.916-3.489s-3.778 8.719-1.162 13.08c2.617 4.359-9.009-8.72-9.009-8.72l-22.089 9.301-4.941-8.429z" fill-rule="evenodd" fill="#9c3900"/>
      <path d="M169.312 296.146c.518 0 32.089-.519 46.582-8.799 7.246 11.386 17.08 19.15 17.08 19.15l4.658-16.561s11.386.517 12.422 3.105c-1.553 3.104-2.07 7.245-2.07 7.245s7.763.519 8.281 1.553c.518 1.036-2.07 9.833-2.07 9.833l33.124 7.764s2.588-12.939 5.176-11.386c2.588 1.553 13.975 17.597 30.019 18.633l17.08-13.457 3.623 2.071s6.728-14.492 7.764-14.492 2.588 2.07 11.386 2.07c2.588 3.105 3.624 10.351 3.624 10.351s-9.835 9.835-6.729 17.598l3.624 5.692 71.424 17.08s3.624 5.694-2.587 8.799c0 .517-71.942-16.563-71.942-16.563s-6.729 7.764-11.905 6.211l-1.553 3.105 77.634 6.211s5.694 7.246 1.553 9.316c-5.175.517-83.845-5.175-83.845-5.175s-4.658 9.833-9.833 1.553c-3.623 5.692-7.764-1.553-7.764-1.553s-6.728 5.175-7.764-.519c-5.694 4.141-9.316-2.587-9.316-2.587l-33.124-2.071-2.07 3.105s5.693 1.553-3.105 5.177c-8.799 3.623 52.791 2.07 54.344 2.587 1.553.519-4.14 5.177-4.14 5.177s31.571 2.07 37.264-4.658c5.694-6.729-2.07 8.798-2.07 8.798s24.843-1.034 24.843-2.07-.519 7.764-17.597 6.728c10.351 6.729 23.289 10.869 23.289 10.869s-12.939 3.105-27.948-.517c2.587 6.728 13.974 12.939 13.974 12.939s-8.282 7.246-26.915-10.352c5.177 9.316 1.036 12.94.519 11.905-.519-1.036-9.316-13.974-30.019-18.633 12.939 8.281 7.245 11.905 7.245 11.905s-6.728-11.905-17.597 0c-4.141-10.869-20.185-17.08-39.852-18.116-6.211-7.245-9.834-5.175-24.325-9.316-8.281-9.315-20.185-19.667-20.185-19.667s.518-13.974 14.492-12.422c1.553 4.658 1.553 3.105 1.553 3.105s15.527-5.694 20.185 2.07c6.728-11.905 16.044-1.78 17.597 2.36 4.459.654 26.913 1.262 26.913 1.262s-2.588-4.658-1.036-4.14c1.553.517 13.974-4.658 13.457-6.211-.519-1.553-1.036-6.728 1.034-6.211 2.071.517-17.597-2.588-28.466 5.694-3.623-3.624-1.035-13.457-1.035-13.457l-32.089-6.728-1.553 8.281s-9.316 1.553-8.799-.517c.518-2.071-2.07 7.245-2.07 7.245s-12.422-3.105-12.422-3.623 3.623-18.633 3.623-18.116c0 .519-10.351 1.036-24.843 11.905-4.14-12.939-36.747-30.019-36.747-30.536z" fill-rule="evenodd" fill="#ffc221"/>
      <path d="M247.983 300.81l-6.728 30.019" fill="none"/>
      <path d="M254.193 312.195l-2.07 9.833" fill="none"/>
      <path d="M287.318 319.958l-3.105 9.316" fill="none"/>
      <path d="M344.772 383.096c-.517 0-16.561 2.07-18.633 1.553-2.07-.517 25.361 8.281 25.361 11.903" fill="none"/>
      <path d="M315.788 386.731s-16.046-10.351-18.633-9.316c-2.588 1.036 16.044-.517 17.597-2.07" fill="none"/>
      <path d="M282.66 374.825s-16.561.517-18.114-1.036 16.044 11.386 19.15 10.352" fill="none"/>
      <path d="M250.57 367.568c-.518 0-11.387-4.14-16.044-5.177 4.14 4.141 7.246 9.835 17.597 11.905" fill="none"/>
      <path d="M254.711 360.847c-.518-1.036-20.702-7.246-20.702-10.352 4.658 1.553 11.386 3.623 17.597 2.07" fill="none"/>
      <path d="M361.849 337.035l-2.07 9.315" fill="none"/>
      <path d="M209.682 253.707s-21.738 18.631 0 29.5c1.035-7.246 2.588-8.281 2.588-8.281s18.114 6.728 28.983-9.316c-4.658-6.728-12.939-4.14-12.939-4.14s-17.08-.001-18.633-7.764z" fill-rule="evenodd" fill="#ffc221"/>
      <path d="M227.798 261.992l-15.009 12.939" fill="none"/>
      <path d="M274.024 351.858s3.46 3.814.354 8.472" fill="none"/>
      <path d="M346.843 355.676l-5.692.519" fill="none"/>
      <path d="M300.261 352.562l10.351 1.553" fill="none"/>
      <path d="M328.103 325.946s.29 10.463-8.429 10.173c-8.719-.292-5.814.29-5.814.29" fill="none"/>
      <path d="M334.796 324.199s3.487 1.162 2.617 3.779c-.872 2.615.871 10.172-9.301 17.438-10.755 2.325-9.591-9.009-9.591-9.009" fill="none"/>
      <path d="M338.572 327.398s6.394-3.778 7.266 2.326c.871 6.102-5.232 17.438-9.591 19.182-4.361 1.743-9.301-.292-8.72-3.197" fill="none"/>
      <path d="M346.42 330.018s5.814-4.651 7.556 1.453c1.744 6.104-4.65 19.764-7.266 20.054" fill="none"/>
      <path d="M354.55 331.47s2.907-1.453 4.94.29" fill="none"/>
      <path d="M345.251 352.393c-1.162.29-6.104.581-7.847-3.197" fill="none"/>
      <path d="M319.1 342.22c-.29 0-6.102.292-6.102.292" fill="none"/>
      <path d="M341.475 365.187l-.581-9.591-2.325-3.197-4.069 4.069s-.582 9.591-2.325 10.463" fill="none"/>
      <path d="M334.5 356.17c-.29-.581-3.197-6.102-3.197-6.102l-4.941 6.102s-.581 8.72-2.325 9.592" fill="none"/>
      <path d="M326.356 355.874c0-.29-2.035-5.812-2.035-5.812s-5.812 3.197-6.394 5.522c-.581 2.325-.872 8.719-2.325 9.301" fill="none"/>
      <path d="M317.93 354.422s.582-5.232-1.162-5.232c-1.743 0-9.591 7.266-9.881 13.66" fill="none"/>
      <path d="M210.397 253.862s2.906-2.907 3.778-6.394c.872-3.487-1.163-7.266 2.325-10.463 3.488-3.197 49.408-22.669 53.187-26.448 3.778-3.778 10.754-11.916 11.626-13.66.872-1.744 3.488 8.719-4.36 13.37 8.428-2.326 13.951-4.941 17.438-3.779-3.488 4.941-12.788 13.079-17.148 13.079 10.172-3.779 19.472-6.976 22.089-4.941 2.615 2.035-12.498 12.208-18.602 12.788 10.172-2.615 23.833-6.684 25.576-2.325-5.522 1.744-3.779 3.196-15.113 9.591-1.453 1.164-8.719 1.453-8.719 1.453 8.719-.872 20.635-4.359 21.797 2.035-6.975 2.615-9.59 6.104-15.403 7.556-5.813 1.454-19.182 4.069-27.321 7.266-8.138 3.197-20.054 12.498-20.054 12.498s-25.866.872-25.866.581c0-.29-4.941-11.916-5.231-12.206z" fill-rule="evenodd" fill="#fff"/>
      <path d="M222.603 251.833s.291-5.812 2.906-7.847c2.616-2.035 15.695-6.976 18.602-11.335 2.906-4.359-4.36 7.556-3.197 10.753" fill="none"/>
      <path d="M227.834 243.111s6.394 2.326 4.941 7.266" fill="none"/>
      <path d="M235.414 246.507c0 2.649-2.148 4.797-4.797 4.797s-4.797-2.148-4.797-4.797 2.148-4.797 4.797-4.797 4.797 2.148 4.797 4.797z" fill="none"/>
      <path d="M432.158 236.137l50.28 9.591s5.523-6.394 2.617-9.881c7.556-1.743 5.522-11.626 5.522-11.626s8.719-3.778 1.453-12.498c4.943-4.941-1.162-8.719-1.162-8.719s2.035-8.719-4.359-9.591c1.744-6.975-11.044-9.301-11.044-9.301s-26.448 7.266-45.05 7.847c6.104 6.104-2.325 9.882-2.325 9.882s4.941 3.488 3.487 6.394c-1.453 2.907.872 6.104-5.522 8.139 8.429 3.779-.872 10.172-.872 10.172s9.301 6.394 6.976 9.591z" fill-rule="evenodd" fill="#fff"/>
      <path d="M427.212 225.386s44.468 5.232 46.503 5.232 9.881 2.617 11.335 5.232" fill="none"/>
      <path d="M429.537 222.765l61.906 1.453" fill="none"/>
      <path d="M429.833 221.314s58.709-3.487 62.778-9.591" fill="none"/>
      <path d="M431.566 208.526s59-6.394 59.582-5.522" fill="none"/>
      <path d="M429.537 201.26s57.256-9.01 57.837-7.557" fill="none"/>
      <path d="M266.2 164.35s18.02 19.764 16.275 33.133" fill="none"/>
      <path d="M281.313 187.019s5.813 8.428 8.138 9.3 22.671 2.034 23.833 10.754c1.162 5.522-4.359 3.778-3.487 7.847 1.453 5.232 15.113 11.916 29.936 4.069" fill="none"/>
      <path d="M326.074 223.061s12.206 18.02 30.226-1.453" fill="none"/>
      <path d="M346.998 229.458s14.823 7.847 27.029-12.498" fill="none"/>
      <path d="M358.326 231.191s7.266 6.104 22.381-2.033" fill="none"/>
      <path d="M401.639 221.018s22.379 4.65 23.833 6.104" fill="none"/>
      <path d="M410.065 216.087c.29 0 15.695.582 15.695.582" fill="none"/>
      <path d="M400.469 207.364s26.739-1.744 30.227 3.779" fill="none"/>
      <path d="M388.845 198.935s37.493 1.453 39.236 3.488" fill="none"/>
      <path d="M397.271 237.292s6.394-1.743 7.266-.871" fill="none"/>
      <path d="M382.744 252.988s8.429 7.266 19.184 4.069" fill="none"/>
      <path d="M387.394 265.204s9.591 4.359 20.926 1.743" fill="none"/>
      <path d="M390.592 272.461s9.591 6.394 15.985 5.23" fill="none"/>
      <path d="M386.238 276.251s6.684 4.941 6.975 7.556" fill="none"/>
      <path d="M376.939 282.056s2.035 10.462 9.301 14.241" fill="none"/>
      <path d="M371.994 286.706s-3.197 13.66 4.941 22.089" fill="none"/>
      <path d="M363.568 297.456c0 .29-.581 6.394-.29 6.976" fill="none"/>
      <path d="M311.252 244.563l15.695-.872s5.812-2.325 1.743-6.102" fill="none"/>
      <path d="M330.724 241.082c.292 0 14.823 1.162 18.602 5.522 3.778 4.359 8.429 13.078 11.044 14.532 2.617 1.453 3.197-.582 3.197-.582" fill="none"/>
      <path d="M357.171 258.23s-7.847 13.37-1.743 17.439" fill="none"/>
      <path d="M352.803 273.053s-6.975 9.301-1.453 13.951" fill="none"/>
      <path d="M349.9 285.832s-5.522 9.011 1.164 15.113" fill="none"/>
      <path d="M347.463 261.936c-.375.375-6.751 4.875-9.001 3.751" fill="none"/>
      <path d="M340.714 276.181s2.625 2.625 4.875 2.25" fill="none"/>
      <path d="M341.024 289.82l4.189 2.873" fill="none"/>
      <path d="M341.587 300.26l3.624 2.187" fill="none"/>
      <path d="M275.942 157.717s7.641 3.973 13.753 0c6.113-3.973 35.453-18.948 43.094-21.394 7.64-2.445 11.919-16.504 13.447-22.616" fill="none"/>
      <path d="M340.432 130.211l42.789-12.531s7.03-5.807 7.335-16.504" fill="none"/>
      <path d="M387.493 112.79s42.787-4.279 42.787-20.171" fill="none"/>
      <path d="M423.563 103.62s44.927-12.225 49.207-16.809" fill="none"/>
      <path d="M298.246 167.497s27.201-14.059 31.48-15.586c4.278-1.528 14.058-13.753-.612-13.753" fill="none"/>
      <path d="M311.392 172.998c.306 0 22.31-14.365 29.645-16.198 3.973-5.501 1.835-11.308-4.889-10.086" fill="none"/>
      <path d="M342.869 153.133c.612-.306 11.92-.611 7.947 8.252-5.805 4.279-30.868 16.809-30.868 16.809" fill="none"/>
      <path d="M337.064 143.658l47.681-15.894s3.973-8.252-1.833-9.474" fill="none"/>
      <path d="M422.647 103.926c0 .306 6.114 3.667 2.446 9.169-6.724 3.973-38.509 11.614-38.509 11.614" fill="none"/>
      <path d="M470.933 99.037l-44.927 12.531" fill="none"/>
      <path d="M467.566 109.122l-39.119 11.919" fill="none"/>
      <path d="M464.213 118.902l-34.536 10.391" fill="none"/>
      <path d="M457.788 128.682c-.917 0-25.672 7.641-25.672 7.641" fill="none"/>
      <path d="M452.292 136.323l-15.894 6.418" fill="none"/>
      <path d="M448.319 144.88c-.612 0-13.753 5.807-13.753 5.807" fill="none"/>
      <path d="M444.346 151.91l-12.224 5.807" fill="none"/>
      <path d="M423.253 165.053s1.529.611 1.223 2.445" fill="none"/>
      <path d="M392.382 181.862s5.196 1.834.306 6.724c-2.445 3.362-9.474 2.445-13.753 8.558" fill="none"/>
      <path d="M425.705 113.402s6.419 1.528 1.529 9.78c-12.837 4.89-38.815 12.836-38.815 12.836s-1.222 2.139-4.583 3.973c-3.362 1.834-40.342 12.225-40.342 12.225" fill="none"/>
      <path d="M427.846 122.876s7.03 3.056 0 8.252c-7.947 4.584-35.759 13.142-35.759 13.142s-.306 2.445-1.527 3.362c-1.223.917-37.898 13.142-37.898 13.142" fill="none"/>
      <path d="M429.678 131.127s7.335 2.139.917 8.252c-7.641 4.584-32.091 12.836-32.091 12.836s-2.445 3.056-6.418 4.279c-3.973 1.222-29.34 11.614-29.34 11.614" fill="none"/>
      <path d="M431.51 139.379c2.14.917 7.947 1.834.917 7.335-8.251 3.667-28.422 11.614-28.422 11.614l-1.835 3.362-32.09 13.753" fill="none"/>
      <path d="M433.341 147.632s3.056 3.668-3.668 7.946c-7.335 3.973-23.227 10.086-23.227 10.086" fill="none"/>
      <path d="M429.678 156.189s3.362 2.139-.916 5.196c-4.891 2.445-24.145 12.531-24.145 12.531l-12.532 8.252" fill="none"/>
      <path d="M385.661 128.071c0 .306 5.196 4.584 3.362 9.474 4.585 3.362 3.668 7.03 3.668 7.03s6.418 3.667 5.502 8.863c6.418 1.528 6.112 5.196 6.112 5.196l-2.14 3.362s6.418-.306.917 7.946c3.362 1.834 1.835 3.973 1.835 3.973" fill="none"/>
      <path d="M403.076 170.248c-.917 0-22.31 7.946-27.812 12.836" fill="none"/>
      <path d="M351.436 160.774s6.418-.306 5.502 6.724c7.335-2.445 5.806 4.584 5.806 4.584s8.557-3.362 7.03 7.335c5.501-1.222 4.583 4.279 4.583 4.279s4.891-.306 4.891 2.445c3.362-3.056 7.03-1.528 7.03-1.528s2.445-3.362 5.806-2.445" fill="none"/>
      <path d="M357.241 167.192c0 .612-28.73 16.504-28.73 16.504" fill="none"/>
      <path d="M362.736 172.387l-21.7 13.447" fill="none"/>
      <path d="M370.077 179.11c0 .306-18.95 11.308-18.95 11.308" fill="none"/>
      <path d="M374.361 183.389s-13.447 11.003-16.504 10.391" fill="none"/>
      <path d="M378.94 186.751s-7.641 5.807-14.059 8.558" fill="none"/>
      <path d="M386.887 184.307s2.445 3.056-12.836 11.002" fill="none"/>
    </g>
  </g>
</svg>
