<svg xmlns="http://www.w3.org/2000/svg" height="512" width="512" version="1">
  <g>
    <path fill="#006" d="M0 0h512v512h-512z"/>
    <g>
      <path fill="#fff" d="M0 0v27.951l307.037 222.049h38.647v-27.95l-307.037-222.049h-38.647zm345.684 0v27.95l-307.037 222.049h-38.647v-27.95l307.037-222.049h38.647z"/>
      <path fill="#fff" d="M144.035 0v249.999h57.614v-249.999h-57.614zm-144.035 83.333v83.333h345.684v-83.333h-345.684z"/>
      <path fill="#c00" d="M0 100v50h345.684v-50h-345.684zm155.558-100v249.999h34.568v-249.999h-34.568z"/>
      <path fill="#c00" d="M0 249.999l115.228-83.333h25.765l-115.228 83.333h-25.765zm0-249.999l115.228 83.333h-25.765l-89.463-64.699v-18.634zm204.691 83.333l115.228-83.333h25.765l-115.228 83.333h-25.765zm140.993 166.666l-115.228-83.333h25.765l89.463 64.7v18.633z"/>
    </g>
    <path fill-rule="evenodd" fill="#fff" d="M54.886 368.64l40.665 15.399 13.32-41.402 13.32 41.402 40.665-15.399-24.062 36.223 37.397 22.197-43.328 3.767 5.969 43.082-29.962-31.527-29.962 31.527 5.969-43.082-43.328-3.767 37.397-22.197z"/>
    <g fill-rule="evenodd" fill="#fff">
      <path d="M403.807 476.413l-18.823 1.638 2.597 18.711-13.02-13.692-13.02 13.692 2.597-18.711-18.823-1.638 16.247-9.646-10.458-15.736 17.675 6.692 5.782-17.99 5.782 17.99 17.675-6.692-10.458 15.736z"/>
      <path d="M403.807 196.417l-18.823 1.638 2.597 18.711-13.02-13.692-13.02 13.692 2.597-18.711-18.823-1.638 16.247-9.644-10.458-15.738 17.675 6.692 5.782-17.987 5.782 17.987 17.675-6.692-10.458 15.738z"/>
      <path d="M298.808 310.165l-18.823 1.638 2.597 18.711-13.02-13.692-13.02 13.692 2.597-18.711-18.823-1.638 16.247-9.646-10.458-15.736 17.675 6.692 5.782-17.99 5.782 17.99 17.675-6.692-10.458 15.736z"/>
      <path d="M497.129 282.166l-18.83 1.638 2.59 18.711-13.02-13.692-13.02 13.692 2.59-18.711-18.795-1.638 16.275-9.646-10.479-15.736 17.689 6.692 5.74-17.99 5.81 17.99 17.64-6.692-10.43 15.736z"/>
      <path d="M416.56 355.014l-10.29 6.377 2.891-11.753-9.247-7.805 12.075-.889 4.571-11.207 4.571 11.207 12.075.889-9.247 7.805 2.891 11.753z"/>
    </g>
  </g>
</svg>
