<svg viewBox="0 0 512 512" xmlns="http://www.w3.org/2000/svg"><g stroke-width="1pt"><path d="m0 0h512v512h-512z" fill="#006"/><path d="m0 0v28l307 222h38.7v-28l-307-222zm345.7 0v28l-307 222h-38.7v-28l307-222z" fill="#fff"/><path d="m144 0v250h57.6v-250zm-144 83.3v83.4h345.7v-83.4z" fill="#fff"/><path d="m0 100v50h345.7v-50zm155.6-100v250h34.4v-250h-34.5zm-155.6 250 115.2-83.3h25.8l-115.2 83.3zm0-250 115.2 83.3h-25.7l-89.5-64.7zm204.7 83.3 115.2-83.3h25.8l-115.2 83.3zm141 166.7-115.2-83.3h25.7l89.5 64.7z" fill="#c00"/><path d="m54.9 368.6 40.6 15.4 13.4-41.4 13.3 41.4 40.7-15.4-24.1 36.3 37.4 22.2-43.3 3.7 6 43.1-30-31.5-30 31.5 6-43-43.4-3.8 37.5-22.2m325 71.5-19 1.6 2.7 18.8-13-13.7-13 13.7 2.3-18.8-18.8-1.6 16.3-9.6-10.5-15.8 17.7 6.7 5.8-18 5.7 18 17.8-6.7-10.4 15.8m16.2-270.4-18.8 1.6 2.6 18.8-13-13.7-13 13.7 2.4-18.8-18.8-1.6 16.3-9.6-10.5-15.8 17.7 6.7 5.8-18 5.7 18 17.8-6.7-10.4 15.8m-88.8 123.4-18.8 1.6 2.6 18.7-13-13.7-13 13.7 2.5-18.7-18.8-1.6 16.3-9.7-10.5-15.7 17.7 6.7 5.8-18 5.7 18 17.7-6.7-10.4 15.7m214.4-18.3-18.8 1.6 2.6 18.7-13-13.7-13 13.7 2.5-18.7-18.8-1.6 16.3-9.7-10.5-15.7 17.7 6.7 5.8-18 5.8 18 17.6-6.7-10.4 15.7m-64.2 82.5-10.3 6.4 2.9-11.8-9.3-7.8 12-.9 4.7-11.2 4.4 11.3 12.1 1-9.2 7.7 2.9 11.8" fill="#fff" fill-rule="evenodd"/></g></svg>