<svg xmlns="http://www.w3.org/2000/svg" id="flag-icon-css-au" width="512" height="512">
  <g stroke-width="1pt">
    <path fill="#006" d="M0 0h512v512H0z"/>
    <path fill="#fff" d="M0 0v27.95L307.04 250h38.64v-27.95L38.65 0H0zm345.68 0v27.95L38.65 250H0v-27.95L307.04 0h38.64z"/>
    <path fill="#fff" d="M144.03 0v250h57.62V0h-57.62zM0 83.33v83.34h345.68V83.33H0z"/>
    <path fill="#c00" d="M0 100v50h345.68v-50H0zM155.56 0v250h34.57V0h-34.57zM0 250l115.23-83.33h25.76L25.76 250H0zM0 0l115.23 83.33H89.46L0 18.63V0zm204.69 83.33L319.92 0h25.76L230.46 83.33h-25.77zm141 166.67l-115.23-83.33h25.76l89.47 64.7V250z"/>
    <path fill="#fff" fill-rule="evenodd" d="M54.89 368.64l40.66 15.4 13.32-41.4 13.32 41.4 40.67-15.4-24.06 36.22 37.4 22.2-43.33 3.77 5.97 43.08-29.97-31.53-29.96 31.53 5.97-43.09-43.33-3.76 37.4-22.2m324.86 71.55l-18.83 1.64 2.6 18.71-13.02-13.69-13.02 13.7 2.6-18.72-18.82-1.64 16.24-9.64-10.45-15.74 17.67 6.7 5.78-18 5.78 18 17.68-6.7-10.46 15.74m16.25-270.35l-18.83 1.63 2.6 18.71-13.02-13.69-13.02 13.7 2.6-18.72-18.82-1.63 16.24-9.65-10.45-15.74 17.67 6.7 5.78-17.99 5.78 17.99 17.68-6.7-10.46 15.74m-88.75 123.4l-18.82 1.63 2.6 18.71-13.03-13.69-13.02 13.7 2.6-18.72-18.82-1.64 16.24-9.64-10.45-15.74 17.67 6.7 5.78-18 5.78 18 17.68-6.7-10.46 15.74m214.57-18.35l-18.83 1.63 2.59 18.71-13.02-13.69-13.02 13.7 2.59-18.72-18.8-1.63 16.28-9.65-10.48-15.74 17.69 6.7 5.74-18 5.81 18 17.64-6.7-10.43 15.74m-64.33 82.5l-10.29 6.37 2.9-11.75-9.25-7.8 12.07-.9 4.57-11.2 4.57 11.2 12.08.9-9.25 7.8 2.89 11.75"/>
  </g>
</svg>
