<svg xmlns="http://www.w3.org/2000/svg" id="flag-icon-css-aw" width="512" height="512">
  <defs>
    <clipPath id="a">
      <path fill="gray" d="M0 0h512v512H0z"/>
    </clipPath>
  </defs>
  <g clip-path="url(#a)">
    <path fill="#39c" d="M0 0v512h768.01V0H0z"/>
    <path fill="#ff0" d="M0 341.34v28.44h768.01v-28.44H0zm0 56.89v28.44h768.01v-28.44H0z"/>
    <path fill="#9cc" d="M122.06 28.07l2.38 2.38-2.38-2.38zm-2.38 4.76l2.38 2.38-2.38-2.38m4.76 0l2.39 2.38-2.38-2.38z"/>
    <path fill="#ccf" d="M119.69 35.2l2.38 2.39-2.38-2.38m4.76 0l2.38 2.38-2.38-2.38z"/>
    <path fill="#6cc" d="M117.3 39.97l2.39 2.38-2.38-2.38z"/>
    <path fill="#c66" d="M122.06 39.97l2.38 2.38-2.38-2.38z"/>
    <path fill="#6cc" d="M126.83 39.97l2.38 2.38-2.38-2.38z"/>
    <path fill="#ccf" d="M117.3 42.35l2.39 2.38-2.38-2.38zm9.53 0l2.38 2.38-2.38-2.38z"/>
    <path fill="#fcc" d="M119.69 44.73l2.38 2.38-2.38-2.38m4.76 0l2.38 2.38-2.38-2.38z"/>
    <path fill="#6cc" d="M114.92 47.11l2.38 2.38-2.38-2.38z"/>
    <path fill="#c00" stroke="#fff" stroke-width="2.98" d="M121.67 32.9L105 96.16l-63.45 17.23 63.26 16.51 16.87 63.26 16.87-63.26 63.26-16.87-63.26-16.87-16.87-63.26z"/>
    <path fill="#6cc" d="M129.2 47.11l2.39 2.38-2.38-2.38z"/>
    <path fill="#9cf" d="M114.92 49.49l2.38 2.38-2.38-2.38m14.29 0l2.38 2.38-2.38-2.38z"/>
    <path fill="#fcc" d="M117.3 51.87l2.39 2.38-2.38-2.38m9.52 0l2.38 2.38-2.38-2.38z"/>
    <path fill="#69c" d="M112.54 54.25l2.38 2.38-2.38-2.38z"/>
    <path fill="#c33" d="M118.1 55.84l.8 1.58-.8-1.58m9.52 0l.8 1.58-.8-1.58z"/>
    <path fill="#69c" d="M131.59 54.25l2.38 2.38-2.38-2.38z"/>
    <path fill="#9cf" d="M112.54 56.63l2.38 2.38-2.38-2.38m19.05 0l2.38 2.38-2.38-2.38z"/>
    <path fill="#fcc" d="M114.92 59.01l2.38 2.38-2.38-2.38m14.29 0l2.38 2.38-2.38-2.38z"/>
    <path fill="#69c" d="M110.16 61.4l2.38 2.37-2.38-2.38zm23.8 0l2.39 2.37-2.38-2.38z"/>
    <path fill="#9cc" d="M110.16 63.77l2.38 2.38-2.38-2.38m23.8 0l2.39 2.38-2.38-2.38z"/>
    <path fill="#cff" d="M110.16 66.15l2.38 2.38-2.38-2.38m23.8 0l2.39 2.38-2.38-2.38z"/>
    <path fill="#69c" d="M107.78 68.53l2.38 2.38-2.38-2.38z"/>
    <path fill="#fcc" d="M112.54 68.53l2.38 2.38-2.38-2.38m19.05 0l2.38 2.38-2.38-2.38z"/>
    <path fill="#69c" d="M136.35 68.53l2.38 2.38-2.38-2.38z"/>
    <path fill="#9cc" d="M107.78 70.91l2.38 2.38-2.38-2.38z"/>
    <path fill="#c33" d="M113.34 72.5l.79 1.59-.8-1.59m19.05 0l.8 1.59-.8-1.59z"/>
    <path fill="#9cc" d="M136.35 70.91l2.38 2.38-2.38-2.38z"/>
    <path fill="#cff" d="M107.78 73.3l2.38 2.37-2.38-2.38m28.57 0l2.38 2.38-2.38-2.38z"/>
    <path fill="#fcc" d="M110.16 75.67l2.38 2.38-2.38-2.38m23.8 0l2.39 2.38-2.38-2.38z"/>
    <path fill="#9cc" d="M105.4 78.06l2.38 2.38-2.38-2.38z"/>
    <path fill="#c33" d="M110.96 79.64l.79 1.59-.8-1.59m23.81 0l.8 1.59-.8-1.59z"/>
    <path fill="#9cc" d="M138.73 78.06l2.38 2.38-2.38-2.38z"/>
    <path fill="#ccf" d="M105.4 80.44l2.38 2.38-2.38-2.38m33.33 0l2.38 2.38-2.38-2.38z"/>
    <path fill="#fcc" d="M107.78 82.82l2.38 2.38-2.38-2.38m28.57 0l2.38 2.38-2.38-2.38z"/>
    <path fill="#9cc" d="M103.02 85.2l2.38 2.38-2.38-2.38z"/>
    <path fill="#c33" d="M108.58 86.78l.79 1.6-.8-1.6m28.57 0l.8 1.6-.8-1.6z"/>
    <path fill="#9cc" d="M141.11 85.2l2.38 2.38-2.38-2.38z"/>
    <path fill="#ccf" d="M103.02 87.58l2.38 2.38-2.38-2.38m38.09 0l2.38 2.38-2.38-2.38z"/>
    <path fill="#fcc" d="M105.4 89.96l2.38 2.38-2.38-2.38m33.33 0l2.38 2.38-2.38-2.38z"/>
    <path fill="#9cc" d="M100.64 92.34l2.38 2.38-2.38-2.38z"/>
    <path fill="#c33" d="M105.4 92.34l2.38 2.38-2.38-2.38m33.33 0l2.38 2.38-2.38-2.38z"/>
    <path fill="#9cc" d="M143.49 92.34l2.38 2.38-2.38-2.38M93.5 94.72l2.38 2.38-2.38-2.38z"/>
    <path fill="#ccf" d="M95.88 94.72l2.38 2.38-2.38-2.38m52.37 0l2.38 2.38-2.38-2.38z"/>
    <path fill="#9cc" d="M150.63 94.72l2.38 2.38-2.38-2.38M86.36 97.1l2.38 2.38-2.38-2.38z"/>
    <path fill="#ccf" d="M88.74 97.1l2.38 2.38-2.38-2.38z"/>
    <path fill="#fcc" d="M98.26 97.1l2.38 2.38-2.38-2.38z"/>
    <path fill="#c33" d="M100.64 97.1l2.38 2.38-2.38-2.38m42.85 0l2.38 2.38-2.38-2.38z"/>
    <path fill="#fcc" d="M145.87 97.1l2.38 2.38-2.38-2.38z"/>
    <path fill="#ccf" d="M155.39 97.1l2.38 2.38-2.38-2.38z"/>
    <path fill="#9cc" d="M157.77 97.1l2.38 2.38-2.38-2.38z"/>
    <path fill="#69c" d="M76.84 99.48l2.38 2.38-2.38-2.38z"/>
    <path fill="#9cc" d="M79.22 99.48l2.38 2.38-2.38-2.38z"/>
    <path fill="#cff" d="M81.6 99.48l2.38 2.38-2.38-2.38z"/>
    <path fill="#fcc" d="M91.12 99.48l2.38 2.38-2.38-2.38z"/>
    <path fill="#c33" d="M95.09 100.27l1.58.8-1.58-.8m54.75 0l1.58.8-1.58-.8z"/>
    <path fill="#fcc" d="M153.01 99.48l2.38 2.38-2.38-2.38z"/>
    <path fill="#cff" d="M162.53 99.48l2.38 2.38-2.38-2.38z"/>
    <path fill="#9cc" d="M164.91 99.48l2.38 2.38-2.38-2.38z"/>
    <path fill="#69c" d="M167.3 99.48l2.37 2.38-2.38-2.38m-97.6 2.38l2.39 2.38-2.38-2.38z"/>
    <path fill="#9cc" d="M72.08 101.86l2.38 2.38-2.38-2.38z"/>
    <path fill="#cff" d="M74.46 101.86l2.38 2.38-2.38-2.38z"/>
    <path fill="#fcc" d="M83.98 101.86l2.38 2.38-2.38-2.38z"/>
    <path fill="#c33" d="M87.95 102.65l1.58.8-1.58-.8m69.03 0l1.58.8-1.58-.8z"/>
    <path fill="#fcc" d="M160.15 101.86l2.38 2.38-2.38-2.38z"/>
    <path fill="#cff" d="M169.67 101.86l2.38 2.38-2.38-2.38z"/>
    <path fill="#9cc" d="M172.05 101.86l2.38 2.38-2.38-2.38z"/>
    <path fill="#69c" d="M174.43 101.86l2.38 2.38-2.38-2.38m-111.88 2.38l2.39 2.38-2.38-2.38z"/>
    <path fill="#9cf" d="M64.94 104.24l2.38 2.38-2.38-2.38z"/>
    <path fill="#fcc" d="M76.84 104.24l2.38 2.38-2.38-2.38z"/>
    <path fill="#c33" d="M80.8 105.03l1.6.8-1.6-.8m83.32 0l1.59.8-1.59-.8z"/>
    <path fill="#fcc" d="M167.3 104.24l2.37 2.38-2.38-2.38z"/>
    <path fill="#9cf" d="M179.2 104.24l2.38 2.38-2.39-2.38z"/>
    <path fill="#69c" d="M181.57 104.24l2.38 2.38-2.38-2.38z"/>
    <path fill="#6cc" d="M55.41 106.62L57.8 109l-2.38-2.38z"/>
    <path fill="#9cf" d="M57.8 106.62l2.38 2.38-2.38-2.38z"/>
    <path fill="#fcc" d="M67.32 106.62L69.7 109l-2.38-2.38zm109.5 0l2.38 2.38-2.38-2.38z"/>
    <path fill="#9cf" d="M186.34 106.62l2.38 2.38-2.38-2.38z"/>
    <path fill="#6cc" d="M188.72 106.62l2.38 2.38-2.38-2.38M48.27 109l2.38 2.38-2.38-2.38z"/>
    <path fill="#ccf" d="M50.65 109l2.38 2.38-2.38-2.38z"/>
    <path fill="#fcc" d="M60.17 109l2.38 2.38-2.37-2.38z"/>
    <path fill="#c33" d="M64.14 109.8l1.59.79-1.59-.8m116.64 0l1.59.8-1.59-.8z"/>
    <path fill="#fcc" d="M183.96 109l2.38 2.38-2.38-2.38z"/>
    <path fill="#ccf" d="M193.48 109l2.38 2.38-2.38-2.38z"/>
    <path fill="#6cc" d="M195.86 109l2.38 2.38-2.38-2.38z"/>
    <path fill="#9cc" d="M41.13 111.38l2.38 2.38-2.38-2.38z"/>
    <path fill="#ccf" d="M43.51 111.38l2.38 2.38-2.38-2.38z"/>
    <path fill="#fcc" d="M53.03 111.38l2.38 2.38-2.38-2.38zm138.07 0l2.38 2.38-2.38-2.38z"/>
    <path fill="#ccf" d="M200.62 111.38l2.38 2.38-2.38-2.38z"/>
    <path fill="#9cc" d="M203 111.38l2.38 2.38-2.38-2.38m-166.63 2.38l2.38 2.38-2.38-2.38z"/>
    <path fill="#c66" d="M48.27 113.76l2.38 2.38-2.38-2.38zm147.59 0l2.38 2.38-2.38-2.38z"/>
    <path fill="#9cc" d="M207.76 113.76l2.38 2.38-2.38-2.38m-166.63 2.38l2.38 2.38-2.38-2.38z"/>
    <path fill="#ccf" d="M43.51 116.14l2.38 2.38-2.38-2.38z"/>
    <path fill="#fcc" d="M53.03 116.14l2.38 2.38-2.38-2.38m138.07 0l2.38 2.38-2.38-2.38z"/>
    <path fill="#ccf" d="M200.62 116.14l2.38 2.38-2.38-2.38z"/>
    <path fill="#9cc" d="M203 116.14l2.38 2.38-2.38-2.38z"/>
    <path fill="#6cc" d="M48.27 118.52l2.38 2.38-2.38-2.38z"/>
    <path fill="#ccf" d="M50.65 118.52l2.38 2.38-2.38-2.38z"/>
    <path fill="#fcc" d="M60.17 118.52l2.38 2.38-2.37-2.38z"/>
    <path fill="#c33" d="M64.14 119.31l1.59.8-1.59-.8m116.64 0l1.59.8-1.59-.8z"/>
    <path fill="#fcc" d="M183.96 118.52l2.38 2.38-2.38-2.38z"/>
    <path fill="#ccf" d="M193.48 118.52l2.38 2.38-2.38-2.38z"/>
    <path fill="#6cc" d="M195.86 118.52l2.38 2.38-2.38-2.38M55.4 120.9l2.38 2.38-2.38-2.38z"/>
    <path fill="#9cf" d="M57.8 120.9l2.38 2.38-2.38-2.38z"/>
    <path fill="#fcc" d="M67.32 120.9l2.38 2.38-2.38-2.38zm109.5 0l2.38 2.38-2.38-2.38z"/>
    <path fill="#9cf" d="M186.34 120.9l2.38 2.38-2.38-2.38z"/>
    <path fill="#6cc" d="M188.72 120.9l2.38 2.38-2.38-2.38z"/>
    <path fill="#69c" d="M62.55 123.28l2.39 2.38-2.38-2.38z"/>
    <path fill="#9cf" d="M64.94 123.28l2.38 2.38-2.38-2.38z"/>
    <path fill="#fcc" d="M76.84 123.28l2.38 2.38-2.38-2.38z"/>
    <path fill="#c33" d="M80.8 124.08l1.6.79-1.6-.8m83.32 0l1.59.8-1.59-.8z"/>
    <path fill="#fcc" d="M167.3 123.28l2.37 2.38-2.38-2.38z"/>
    <path fill="#9cf" d="M179.2 123.28l2.38 2.38-2.39-2.38z"/>
    <path fill="#69c" d="M181.57 123.28l2.38 2.38-2.38-2.38M69.7 125.66l2.38 2.38-2.38-2.38z"/>
    <path fill="#9cc" d="M72.08 125.66l2.38 2.38-2.38-2.38z"/>
    <path fill="#cff" d="M74.46 125.66l2.38 2.38-2.38-2.38z"/>
    <path fill="#fcc" d="M83.98 125.66l2.38 2.38-2.38-2.38z"/>
    <path fill="#c33" d="M87.95 126.46l1.58.79-1.58-.8m69.03 0l1.58.8-1.58-.8z"/>
    <path fill="#fcc" d="M160.15 125.66l2.38 2.38-2.38-2.38z"/>
    <path fill="#cff" d="M169.67 125.66l2.38 2.38-2.38-2.38z"/>
    <path fill="#9cc" d="M172.05 125.66l2.38 2.38-2.38-2.38z"/>
    <path fill="#69c" d="M174.43 125.66l2.38 2.38-2.38-2.38m-97.6 2.38l2.39 2.38-2.38-2.38z"/>
    <path fill="#9cc" d="M79.22 128.04l2.38 2.38-2.38-2.38z"/>
    <path fill="#cff" d="M81.6 128.04l2.38 2.38-2.38-2.38z"/>
    <path fill="#fcc" d="M91.12 128.04l2.38 2.38-2.38-2.38z"/>
    <path fill="#c33" d="M95.09 128.84l1.58.79-1.58-.8m54.75 0l1.58.8-1.58-.8z"/>
    <path fill="#fcc" d="M153.01 128.04l2.38 2.38-2.38-2.38z"/>
    <path fill="#cff" d="M162.53 128.04l2.38 2.38-2.38-2.38z"/>
    <path fill="#9cc" d="M164.91 128.04l2.38 2.38-2.38-2.38z"/>
    <path fill="#69c" d="M167.3 128.04l2.37 2.38-2.38-2.38z"/>
    <path fill="#9cc" d="M86.36 130.42l2.38 2.38-2.38-2.38z"/>
    <path fill="#ccf" d="M88.74 130.42l2.38 2.38-2.38-2.38z"/>
    <path fill="#fcc" d="M98.26 130.42l2.38 2.38-2.38-2.38z"/>
    <path fill="#c33" d="M100.64 130.42l2.38 2.38-2.38-2.38m42.85 0l2.38 2.38-2.38-2.38z"/>
    <path fill="#fcc" d="M145.87 130.42l2.38 2.38-2.38-2.38z"/>
    <path fill="#ccf" d="M155.39 130.42l2.38 2.38-2.38-2.38z"/>
    <path fill="#9cc" d="M157.77 130.42l2.38 2.38-2.38-2.38M93.5 132.8l2.38 2.38-2.38-2.38z"/>
    <path fill="#ccf" d="M95.88 132.8l2.38 2.38-2.38-2.38m52.37 0l2.38 2.38-2.38-2.38z"/>
    <path fill="#9cc" d="M150.63 132.8l2.38 2.38-2.38-2.38m-49.99 2.38l2.38 2.38-2.38-2.38z"/>
    <path fill="#c33" d="M105.4 135.19l2.38 2.38-2.38-2.38m33.33 0l2.38 2.38-2.38-2.38z"/>
    <path fill="#9cc" d="M143.49 135.19l2.38 2.38-2.38-2.38z"/>
    <path fill="#fcc" d="M105.4 137.56l2.38 2.38-2.38-2.38m33.33 0l2.38 2.38-2.38-2.38z"/>
    <path fill="#ccf" d="M103.02 139.94l2.38 2.38-2.38-2.38z"/>
    <path fill="#c33" d="M108.58 141.53l.79 1.59-.8-1.59m28.57 0l.8 1.59-.8-1.59z"/>
    <path fill="#ccf" d="M141.11 139.94l2.38 2.38-2.38-2.38z"/>
    <path fill="#9cc" d="M103.02 142.33l2.38 2.38-2.38-2.38m38.09 0l2.38 2.38-2.38-2.38z"/>
    <path fill="#fcc" d="M107.78 144.7l2.38 2.39-2.38-2.38m28.57 0l2.38 2.38-2.38-2.38z"/>
    <path fill="#ccf" d="M105.4 147.09l2.38 2.38-2.38-2.38z"/>
    <path fill="#c33" d="M110.96 148.67l.79 1.6-.8-1.6m23.81 0l.8 1.6-.8-1.6z"/>
    <path fill="#ccf" d="M138.73 147.09l2.38 2.38-2.38-2.38z"/>
    <path fill="#9cc" d="M105.4 149.47l2.38 2.38-2.38-2.38m33.33 0l2.38 2.38-2.38-2.38z"/>
    <path fill="#fcc" d="M110.16 151.85l2.38 2.38-2.38-2.38m23.8 0l2.39 2.38-2.38-2.38z"/>
    <path fill="#cff" d="M107.78 154.23l2.38 2.38-2.38-2.38z"/>
    <path fill="#c33" d="M113.34 155.82l.79 1.58-.8-1.58m19.05 0l.8 1.58-.8-1.58z"/>
    <path fill="#cff" d="M136.35 154.23l2.38 2.38-2.38-2.38z"/>
    <path fill="#9cc" d="M107.78 156.6l2.38 2.39-2.38-2.38m28.57 0l2.38 2.38-2.38-2.38z"/>
    <path fill="#69c" d="M107.78 158.99l2.38 2.38-2.38-2.38z"/>
    <path fill="#fcc" d="M112.54 158.99l2.38 2.38-2.38-2.38m19.05 0l2.38 2.38-2.38-2.38z"/>
    <path fill="#69c" d="M136.35 158.99l2.38 2.38-2.38-2.38z"/>
    <path fill="#cff" d="M110.16 161.37l2.38 2.38-2.38-2.38zm23.8 0l2.39 2.38-2.38-2.38z"/>
    <path fill="#9cc" d="M110.16 163.75l2.38 2.38-2.38-2.38m23.8 0l2.39 2.38-2.38-2.38z"/>
    <path fill="#69c" d="M110.16 166.13l2.38 2.38-2.38-2.38m23.8 0l2.39 2.38-2.38-2.38z"/>
    <path fill="#fcc" d="M114.92 168.51l2.38 2.38-2.38-2.38m14.29 0l2.38 2.38-2.38-2.38z"/>
    <path fill="#9cf" d="M112.54 170.89l2.38 2.38-2.38-2.38z"/>
    <path fill="#c33" d="M118.1 172.48l.8 1.59-.8-1.6m9.52 0l.8 1.6-.8-1.6z"/>
    <path fill="#9cf" d="M131.59 170.89l2.38 2.38-2.38-2.38z"/>
    <path fill="#69c" d="M112.54 173.27l2.38 2.38-2.38-2.38m19.05 0l2.38 2.38-2.38-2.38z"/>
    <path fill="#fcc" d="M117.3 175.65l2.39 2.38-2.38-2.38m9.52 0l2.38 2.38-2.38-2.38z"/>
    <path fill="#9cf" d="M114.92 178.03l2.38 2.38-2.38-2.38zm14.29 0l2.38 2.38-2.38-2.38z"/>
    <path fill="#6cc" d="M114.92 180.41l2.38 2.38-2.38-2.38m14.29 0l2.38 2.38-2.38-2.38z"/>
    <path fill="#fcc" d="M119.69 182.8l2.38 2.37-2.38-2.38m4.76 0l2.38 2.38-2.38-2.38z"/>
    <path fill="#ccf" d="M117.3 185.17l2.39 2.38-2.38-2.38m9.52 0l2.38 2.38-2.38-2.38z"/>
    <path fill="#6cc" d="M117.3 187.55l2.39 2.38-2.38-2.38z"/>
    <path fill="#c66" d="M122.06 187.55l2.38 2.38-2.38-2.38z"/>
    <path fill="#6cc" d="M126.83 187.55l2.38 2.38-2.38-2.38z"/>
    <path fill="#ccf" d="M119.69 192.31l2.38 2.38-2.38-2.38m4.76 0l2.38 2.38-2.38-2.38z"/>
    <path fill="#9cc" d="M119.69 194.7l2.38 2.38-2.38-2.39m4.76 0l2.38 2.38-2.38-2.38m-2.38 4.76l2.38 2.38-2.38-2.38z"/>
  </g>
</svg>
