<svg xmlns="http://www.w3.org/2000/svg" height="512" width="512" version="1">
    <g>
        <g fill-rule="evenodd">
            <path fill="#c33" d="M0 170.666h512.004v170.666h-512.004z"/>
            <path fill="#09c" d="M0 0h512.004v170.666h-512.004z"/>
            <path fill="#093" d="M0 341.332h512.004v170.666h-512.004z"/>
        </g>
        <g>
            <g>
                <path fill="#fff" d="M311.248 256.128c.033 41.4-33.54 75-74.94 75-41.4.067-75.025-33.483-75.058-74.883-.1-41.4 33.417-75.05 74.816-75.116 41.4-.132 75.08 33.361 75.179 74.761v.239z"/>
                <path fill="#c33" d="M315.414 256.128c.027 34.04-27.577 61.666-61.617 61.666-34.04.054-61.688-27.528-61.716-61.568-.082-34.04 27.479-61.711 61.519-61.765 34.04-.108 61.732 27.43 61.814 61.47v.197z"/>
            </g>
            <path fill-rule="evenodd" fill="#fff" d="M290.115 285.595l10.217-21.492-22.417-7.975 22.417-7.975-10.217-21.492 21.492 10.217 7.975-22.417 7.975 22.417 21.492-10.217-10.217 21.492 22.417 7.975-22.417 7.975 10.217 21.492-21.492-10.217-7.975 22.417-7.975-22.417z"/>
        </g>
    </g>
</svg>
