<svg xmlns="http://www.w3.org/2000/svg" height="512" width="512" viewBox="0 0 512 512">
  <defs>
    <clipPath id="a">
      <path fill-opacity=".67" d="M0 0h512v512H0z"/>
    </clipPath>
  </defs>
  <g fill-rule="evenodd" clip-path="url(#a)">
    <path fill="#009" d="M0 0h512v512H0z"/>
    <path d="M77 .006l436.91 436.91V.006H77z" fill="#fc0"/>
    <path fill="#FFFFFF" d="M461.41,470.395l-26.123-19.086l-26.849,18.994l10.151-31.164l-26.419-19.246l32.731,0.066l10.177-31.117
        l10.055,31.156l32.74,0.094l-26.195,19.365L461.41,470.395z M538.124,480.842l-32.74-0.094l-10.055-31.156l-10.177,31.117
        l-32.731-0.066l26.419,19.246l-10.151,31.164l26.849-18.994l26.123,19.086l-9.731-30.938L538.124,480.842z M391.804,379.582
        l26.195-19.365l-32.74-0.094l-10.055-31.156l-10.177,31.117l-32.731-0.066l26.419,19.246l-10.151,31.164l26.849-18.994
        l26.123,19.086L391.804,379.582z M331.471,319.166l26.195-19.367l-32.74-0.092l-10.055-31.156l-10.177,31.117l-32.731-0.066
        l26.419,19.244l-10.151,31.166l26.849-18.996l26.123,19.088L331.471,319.166z M271.804,259.5l26.195-19.368l-32.74-0.093
        l-10.055-31.156L245.029,240l-32.732-0.066l26.418,19.246l-10.151,31.166l26.849-18.996l26.123,19.088L271.804,259.5z
         M211.387,199.249l26.195-19.367l-32.74-0.093l-10.055-31.156l-10.177,31.117l-32.731-0.066l26.419,19.245l-10.151,31.166
        l26.849-18.996l26.123,19.088L211.387,199.249z M151.72,139.332l26.195-19.367l-32.74-0.093l-10.055-31.156l-10.177,31.117
        l-32.731-0.066l26.419,19.245l-10.151,31.166l26.849-18.996l26.123,19.088L151.72,139.332z M91.72,79.332l26.195-19.367
        l-32.74-0.093L75.121,28.716L64.944,59.833l-32.731-0.066l26.419,19.245L48.48,110.177l26.849-18.996l26.123,19.088L91.72,79.332
        z M31.72,19.332L57.915-0.035l-32.74-0.093L15.121-31.284L4.944-0.167l-32.731-0.066l26.419,19.245L-11.52,50.177l26.849-18.996
        l26.123,19.088L31.72,19.332z"/>
  </g>
</svg>
