<svg xmlns="http://www.w3.org/2000/svg" height="512" viewBox="0 0 512 512" width="512" version="1">
  <defs>
    <clipPath id="a">
      <path fill-opacity=".67" d="M0 0h512v512H0z"/>
    </clipPath>
  </defs>
  <g fill-rule="evenodd" clip-path="url(#a)">
    <path fill="#009" d="M0 0h512v512H0z"/>
    <path d="M77 .006l436.91 436.91V.006H77z" fill="#fc0"/>
    <g fill="#fff">
      <path d="M39.867 35.49l9.32-28.68 9.32 28.68H88.66L64.265 53.215l9.32 28.68L49.187 64.17 24.79 81.896l9.32-28.68L9.71 35.49M94.48 90.104l9.32-28.68 9.32 28.68h30.155l-24.397 17.725 9.32 28.68-24.398-17.726-24.397 17.726 9.32-28.68-24.397-17.726M149.095 144.717l9.32-28.68 9.318 28.68h30.156l-24.398 17.726 9.32 28.68-24.398-17.725-24.397 17.725 9.32-28.68-24.398-17.726M203.71 199.33l9.318-28.68 9.32 28.68h30.155l-24.397 17.727 9.32 28.68-24.398-17.725-24.397 17.725 9.32-28.68-24.397-17.726M258.322 253.945l9.32-28.68 9.32 28.68h30.154L282.72 271.67l9.32 28.68-24.398-17.725-24.397 17.726 9.32-28.68-24.398-17.725M312.936 308.56l9.32-28.68 9.32 28.68h30.154l-24.397 17.724 9.32 28.68-24.398-17.725-24.397 17.725 9.32-28.68-24.397-17.726M367.55 363.172l9.32-28.68 9.318 28.68h30.156l-24.397 17.726 9.32 28.68-24.398-17.725-24.398 17.725 9.32-28.68-24.398-17.726M422.164 417.786l9.32-28.68 9.318 28.68h30.156l-24.397 17.726 9.32 28.68-24.397-17.725-24.397 17.725 9.32-28.68-24.398-17.726M476.777 472.4l9.32-28.68 9.32 28.68h30.154l-24.396 17.725 9.32 28.68-24.397-17.725-24.397 17.726 9.32-28.68L446.62 472.4"/>
    </g>
  </g>
</svg>
