<svg xmlns="http://www.w3.org/2000/svg" xmlns:xlink="http://www.w3.org/1999/xlink" id="flag-icon-css-bb" width="512" height="512">
  <path fill="#00267f" d="M0-.2h512V512H0z"/>
  <path fill="#ffc726" d="M170.67-.2h170.66V512H170.67z"/>
  <path id="a" d="M256 173.31c-5.55 15.13-11.2 30.87-23.3 42.93 3.76-1.24 10.33-2.35 14.55-2.24v63.61l-17.96 2.67c-.64-.07-.85-1.07-.85-2.43-1.73-19.76-6.4-36.36-11.78-53.53-.38-2.35-7.19-11.3-1.94-9.73.64.09 7.66 2.95 6.55 1.58-9.56-9.9-23.53-17.02-37.1-19.13-1.2-.3-1.9.3-.83 1.68 18 27.71 33.07 60.42 32.94 99.22 7 0 23.96-4.14 30.97-4.14v44.89h8.86l2.02-125.36z"/>
  <use width="100%" height="100%" transform="matrix(-1 0 0 1 512 0)" xlink:href="#a"/>
</svg>
