<?xml version="1.0" standalone="no"?><svg xmlns="http://www.w3.org/2000/svg" style="isolation:isolate" width="512" height="512"><defs><clipPath id="a"><path d="M0 0h512v512H0z"/></clipPath></defs><g clip-path="url(#a)"><path fill="#FFF" d="M-128 0h768v512h-768z"/><path fill="#0F0F0F" d="M42.67 42.67h426.67v426.67H42.67z"/><path fill="#EF2B2D" d="M-128 0h768v149.33h-768z"/><path fill="#21468B" d="M-128 362.67h768V512h-768z"/><path d="M411.7 47.79c.06 12.86-9.95 19-12.37 31.44a13.5 13.5 0 0 0-6-5.07l-.24-.1a10.21 10.21 0 0 0-1.54-.47l-.12-.04-.92-.16h-.06c-.23-.04-.46-.05-.68-.06l-.33-.02h-.4c-.2 0-.4 0-.62.02-.03 0-.07 0-.1.02a10 10 0 0 0-2.99.74c-1.89.74-3.36 1.55-4.6 2.62-1.57 1.36-2.76 3.13-3.95 5.72-1.61 3.63 2.14 2.35 3.93 2.17 12.66-1.58 8.44 15.42 7.34 17.58-1.64 3.2-2.91 5.52-5.28 8.38a60.92 60.92 0 0 1-4.3 4.66l-.87.84-2.06 2.02-1.18 1.2c-16.87 18.21-17.84 20.88-22.72 28a210.9 210.9 0 0 0-6.53 10.5l-.31.53c-.13.2-.26.46-.4.73a124.5 124.5 0 0 0-7.2 17.05c-.06.14-.1.29-.15.43l-.16.51c0 .02 0 .03-.02.04-.3.91-.56 1.81-.8 2.7l-.02.06a51.68 51.68 0 0 0-.95 4.1l-.07-.08c-3.64-4.03-5.49-3.75-9.82-5.9-1.11-.55-1.98-1.09-2.68-1.61a11.5 11.5 0 0 1-.63-.5l-.02-.02c-.19-.16-.37-.32-.52-.48h-.01c-1.07-1.05-1.5-1.95-1.95-2.53l-.03-.04-.15-.17-.07-.08c-.04-.03-.08-.08-.13-.1l-.1-.08a.68.68 0 0 0-.14-.08l-.13-.06-.14-.04c-.03 0-.05-.03-.08-.03a.8.8 0 0 1-.14-.02l-.02-.02c-.06.24-.12.47-.16.7l-.11.55-.2.82-.1.46c-.06.22-.12.45-.16.67l-.53 2.13a36.36 36.36 0 0 0-.64 3.17l-.02.07a24.6 24.6 0 0 0-.2 1.89v.15l-.03.89v.06a18.4 18.4 0 0 0 .04 1.12l.09.88.01.13c.05.34.11.7.18 1.04v.03c.07.34.15.7.24 1.04l.04.14c.1.37.2.74.33 1.13.3.98.65 1.8 1.02 2.5-.97 1.79-1.56 5.21-1.66 7.38v.02c-.12 2.71 1.04 5.97 2.71 8.61.23.34.44.68.68 1a18.72 18.72 0 0 0-1.28 6.73c.01.87.1 1.74.3 2.57.31 1.28.62 2.36 1.01 3.33a11.29 11.29 0 0 0 2.06 3.33l.32.32c.33.33.69.65 1.1.98a39.12 39.12 0 0 0-.05 5.9c.05.63.11 1.22.19 1.8a40.56 40.56 0 0 0 .86 4.03c1.06 3.37 2.28 5.38 4.88 7.35-.2 3.28.13 5.69.9 7.72l.07.18c.17.46.36.9.56 1.33 1.97 4.52 4.3 7.83 6.14 8.9.16.1.34.19.52.28l.33.15c.27 1.44.76 2.84 1.38 4.18.7 1.51 1.58 2.92 2.57 4.16.46.6.89 1.13 1.3 1.64a18.22 18.22 0 0 0 4.37 4.03c.46.25 1.83 1.42 3.09 1.98 1.96 1.02 4.31.49 6.36 2.02 4.89 3.68 8.99 10.66 8.77 17.37-.1 2.96-.57 4.64-3.75 7.38-1.81 1.5-4.23 1.9-7.1.6a16.96 16.96 0 0 1-4.7-3.4 60.44 60.44 0 0 1-3.7-3.97 85.28 85.28 0 0 1-6.6-9.01l-.22-.34c-1.87-2.98-7.91-14.2-9.14-16.49l-.34-.65c-3.47-6.7-7.84-14.4-10.74-20.9-2.73-6.02-7.51-17.02-10.06-23.04-1.58-3.7-4.05-7.84-5.76-11.66-.37-.81-.7-1.6-.98-2.39 2.5.22 5.09.1 7.84-.27a2.58 2.58 0 0 0-.26-.67c-.71-1.3-2.56-2.7-3.93-3.95a9.7 9.7 0 0 1-1.36-1.45c-2.13-3.27-4.5-8.3-6.24-11.16a11.5 11.5 0 0 0 .6-.57c.19-.2.38-.42.58-.66v-.02c.4-.48.8-1.04 1.2-1.65v-.03c.4-.61.79-1.27 1.17-1.96l.4-.77c.05-.12.12-.23.17-.36.13-.23.24-.47.36-.72l.25-.54.3-.68.28-.64.26-.63a23.8 23.8 0 0 0 .54-1.46 37.02 37.02 0 0 0 .48-1.42l.23-.83.1-.37.21-.89.05-.23c.07-.37.14-.73.17-1.05.4-3.74 1.27-14.7 0-17.52 2.21 1.14 4.26 2.83 6.83 3.93.68.3 1.42.53 2.17.72l.59.14c.71.13 1.42.26 2.14.36l.2.04.9.12c1.19.13 2.38.2 3.57.14.26-.03.58-.08.93-.15 1.35-.27 3.13-.85 3.63-1.56-.09-.75-.79-1.31-1.72-1.68a6.35 6.35 0 0 0-.7-.24 5.14 5.14 0 0 1-3.53-2.57 24.5 24.5 0 0 1-2.48-4.9l-.22-.7c-1-2.95-3.11-8.4-4.34-10.88.24-2.7 1.16-3.1 1.56-5.03.28-1.4.23-3.67.11-5.02a14.87 14.87 0 0 0-.7-3.2l-.56-1.65c.13-.27.23-.54.34-.8 1.57-3.92 1.5-7.49 1.08-10.03-.13-.85-.29-1.6-.45-2.18-.1-.42-.29-.82-.53-1.2-.48-.75-1.11-1.44-1.61-2.14v-.12c-.02-.14-.04-.25-.03-.35 0-.27.21-.5 1.47-1.22.28-.16.7-.45 1.16-.77.86-.61 1.82-1.4 2.2-1.98l.29-.38c.42-.58.9-1.23 1.04-1.9.7-3.21.99-4.32 1.1-6.9.1-2.16-.3-4.38-.52-6.49v.04l-.02.1-.01.02c-.2.7-1.8 2.8-2.23 3.23-.8.81-1.74 1.87-3.12 1.93-1.64.05-3.05 0-4.27-.16-1.81-.24-3.22-.69-4.32-1.29a8.1 8.1 0 0 1-2-1.51c1.97-1.4 2.92-3.16 3.78-4.46 1.26-1.93 1.56-5.96 1.33-9.99a42.42 42.42 0 0 0-2.02-10.12c-.3-.8-.72-1.32-1.2-1.65-1.06-.76-2.5-.56-3.89-.28-2.1.4-4.08 1.1-5.88 2.03-.53-.44-1.07-.87-1.59-1.32-10.95-11.28-48.95 1.07-48.95 1.07a28 28 0 0 0-1.7.72l-.77.38A10.86 10.86 0 0 0 238.6 79c-.29.5-.56.93-.84 1.31a5.95 5.95 0 0 1-1.6 1.6c-.55.34-1.2.62-2.07.84-1.26.3-2.48.9-3.7 1.62-1.9 1.14-3.78 2.6-5.72 3.7-1.21.96-2.33 1.04-2.81 2.22-.16.4-.25.92-.25 1.63 0 .81.3 1.56.73 2.16.4.57.92 1 1.4 1.23.17.1.22 1.2.23 2.06v1.03c0 .74.14 1.43.4 2.07a6.62 6.62 0 0 0 2.05 2.72 9.69 9.69 0 0 0 4.05 1.85c1.06.23 2.15.28 3.22.15l.75-.13c-.02.55-.07.91.13 1.48.06.2.15.39.27.63.44.89 2.15 2.97 3.78 4.24-3.08.17-6.08.47-8.7.37-2.26-.1-4.07-.23-5.64-.44a15.02 15.02 0 0 1-7.36-2.8c-.54-.4-1.09-.82-1.67-1.32-.26-.2-.48-.44-.7-.67a7.84 7.84 0 0 1-2.02-6.4c.4-1.8 1.56-3.44 1.1-4.55-.22.09-.43.18-.65.29-3.25 1.58-7.18 5.56-7.5 9.24-.87 10.8 4.25 13.49 9.45 15.13h.02l.14.05c3.15.97 5.9 1.28 8.7 1.36.95.02 1.9.02 2.9 0l1.32-.04c1.6-.05 3.5-.18 5.68-.7l.97-.26c1.5-.49 2.28-.4 3.42 0-.34.41-.66.84-.96 1.27v.01c-.63.9-1.18 1.82-1.7 2.77l-.02.06c-.26.47-.51.97-.76 1.46l-.03.06-.65 1.32-.82 1.64v.02c-.5.99-1.03 1.98-1.6 2.94l-.03.05c-.28.45-.58.92-.9 1.37l-.09.13c-.31.45-.65.9-1.01 1.34 0 .08.05.16.15.23.28.19.9.3 1.59.34.97.08 2.04.08 2.36.08a5 5 0 0 0 1.79-.41l1.34-.54c1.73-.58 3.35-.64 4.62-.58.66.03.94.2 1.05.39.03.03.03.07.05.1v.04c.02 0 .02.01.02.02.02.12.01.23.03.28.23.46 1.04.17.99 1.05a6.3 6.3 0 0 1-.27 1.25l-.76.78c-1.3 1.3-2.67 2.63-3.77 3.8-.26.29-.55.59-.86.9-2.73 2.74-7.25 6.44-10.52 3.09-2.14-2.22 1.8-5.86.62-6.4-.22-.11-.6-.11-1.25.03a13.83 13.83 0 0 0-8.01 4.3 53.3 53.3 0 0 1-2.03-2.58c-1.16-1.55-2.3-3.19-3.5-4.78a40.46 40.46 0 0 0-5.1-5.68c-3.37-3.2-8.16-7.42-10.53-9.96-1.05-1.1-2.43-2.42-3.93-3.83-3.14-2.95-6.81-6.3-9.23-9.01l-.47-.53a95.96 95.96 0 0 1-8.44-12.3c-.2-.38-.35-.72-.47-.97-.03-.09-.06-.17-.1-.24-.82-2.1-1.45-4.25.33-7 .56-.88 1-1.63 1.35-2.4.23-.5.44-1 .6-1.58.3-.75.46-1.56.59-2.49.07-.57.13-1.19.17-1.88a8.95 8.95 0 0 0-.86-4.33 7.48 7.48 0 0 0-.9-1.3l-.31-.37c-.02 0-.03-.03-.04-.04.43-.87.81-1.84 1.11-2.92 1.36-4.7 1.28-10.4-1.98-12.5l-2.64-1.71-.8 3.07c-.1.43-.28.71-.75 1.5-.23.38-.5.83-.81 1.4-.41.71-1.32 1.44-2.26 2.21-.43.35-.87.7-1.3 1.08h-.03c-.44-.23-.94-.45-1.47-.62l-.1-.03a8.61 8.61 0 0 0-1.53-.36c-.06-.01-.12-.03-.19-.03a7 7 0 0 0-1.43-.04l-.18.02c-.2.02-.4.07-.59.11l-.2.07c-.16.06-.32.12-.47.2l-.06.04c-.36.19-.69.42-1 .69-.65.52-1.22 1.14-1.74 1.81-.1-.36-.2-.72-.33-1.06l-.1-.28a14.76 14.76 0 0 0-.44-1.1c-.1-.18-.17-.36-.26-.54a10.1 10.1 0 0 0-.23-.42l-.26-.43c-.09-.15-.17-.3-.27-.44l-.25-.35-.35-.46a1.81 1.81 0 0 0-.2-.23l-.44-.5-.09-.07c-1.84-1.88-4.33-3-7.4-3.27a18.45 18.45 0 0 0-1.91-2.34c-1.84-2-5.86-4.3-9.1-4.53-.34-.03-.9-.07-1.53-.07-1 0-1.89.11-2.65.32l-3.31.97 2.16 2.71c.94 1.18 2.97 4 3.67 7.07a7.13 7.13 0 0 0-.67.51c-.08.07-.16.12-.23.2-.1.07-.18.15-.27.23a4.3 4.3 0 0 0-.18.18l-.28.27-.14.16c-.32.35-.63.71-.92 1.1l-.12.17-.23.33-.14.22-.2.32-.14.25-.17.31-.16.34-.2.43-.14.34-.1.28-.1.3c-.03.1-.05.19-.06.29l-.08.3-.05.28-.04.31c0 .08-.02.16-.03.23a64.17 64.17 0 0 0-.15 8.13 12.36 12.36 0 0 0-.9.33c-.1.03-.18.08-.28.1a10.26 10.26 0 0 0-.9.43l-.63.35-.2.11-.74.5-.28.23c-.14.1-.28.22-.4.33-.13.1-.24.21-.35.32l-.27.26-.37.4-.02.02c-.17 0-.32-.03-.49-.03-1.84 0-3.67.51-5.78 1.6a15 15 0 0 0-4.6 3.9l-1.1 1.57 1.36 1.37c.46.48 5.2 3.68 6.12 4.2l.64.37.07.04-.02.35-.03.74V95c0 .13 0 .24.02.36 0 .13 0 .27.02.4 0 .11.03.23.03.35l.05.37.06.33.06.35.08.32.09.33.1.3c.03.12.08.24.12.34l.1.28c.08.19.16.39.26.57.04.1.09.18.14.27l.17.32.17.28a6.31 6.31 0 0 0 .37.58c.06.11.13.2.2.3l.2.29.24.32.19.24.37.47.1.1c.16.2.33.42.53.63 1.34 1.47 4.2 2.45 7.08 2.74 1.8.17 3.6.08 5.05-.34a6.73 6.73 0 0 0 2-1.3c.09.26.2.5.34.75l.03.04c.41.7 1 1.34 1.62 2.03.33.4.73.71 1.17 1 .87.59 1.95 1.08 3.24 1.88l-.24.14a18.25 18.25 0 0 0-1.04.63l-.52.36-.31.25-.44.37-.28.26a8 8 0 0 0-.38.39l-.23.26a15.46 15.46 0 0 0-.52.68c-.12.16-.23.33-.32.5a8.34 8.34 0 0 0-.46.92l-.08.22-.2.55-.08.3-.12.48-.07.35a8.3 8.3 0 0 0-.09.46l-.05.37-.04.5a40.92 40.92 0 0 0-.05.91l-.01.32v.89l.05.88c-.13.15-.24.3-.34.45a8.5 8.5 0 0 1-3.17 2.63 12.48 12.48 0 0 1-2.56 1.06l-4.83 1.13 3.93 2.98c.72.54 4.52 2.88 8.59 3.47.81.13 1.59.2 2.32.2.9 0 1.73-.1 2.5-.31l.55.4.13.08c.15.1.3.19.47.26l.17.08c.17.08.35.15.53.2l.15.06c.24.06.48.11.75.15.39.02.77 0 1.15-.01.07-.01.14 0 .22-.02.69-.05 1.36-.16 1.98-.33l.22-.07c.2-.06.4-.12.6-.2.09-.03.17-.05.26-.1a6.48 6.48 0 0 0 1.29-.68 8.44 8.44 0 0 0 1.82-2.03c.53-.75 1.07-1.55 1.68-2.25 1.55 2.08 3.97 4.31 4.72 6.26l.02.07c.09.26.16.5.2.76.2 1.28.53 3.72-.79 4.77-.18.16-.4.27-.66.36-2.59.87-3.8-1.83-5.01-2.5l-.02-.01c-1.1 2.86-.58 4.26.28 6.67.13.34.43.74.85 1.18a19.4 19.4 0 0 0 4.87 3.38 5.7 5.7 0 0 0 1.67.58c-2.66 2.1-3.75 5.67-4.45 9.53l-.31 1.99c-.11.66-.18 1.25-.2 1.74-.1 1.61.34 2.24 2.2 1l.26-.2c4.2-2.9 4.36-3.57 6.02-1.6l1.56 1.92.96 1.06c1.47 1.6 3.2 3.31 4.7 4.6 1.5 1.3 4.97 1.64 6.12 1.87-.43 1.1-.99 3.02-1.41 4.91l-.02.1c-.14.6-.26 1.2-.35 1.78-.22 1.34-.71 10.72 1.2 8.03l.24-.38.25-.4a7.58 7.58 0 0 1 1.51-1.63l.38-.3c.67-.49 1.38-.9 2.08-1.12 3-.94 6.18-2.22 6.81-1.4-1.74 3.22-2.95 4.9-2.95 9.12 0 1.05.17 3.1.35 4.03.29 1.34.52 2.16.64 2.45l.01.04.52 1.6c-1.13.51-2.57 1.29-4.19 2.23-6.14 3.55-14.84 9.39-18.58 11.5-5.95 3.45-15.31 10-23.92 7.13a.38.38 0 0 1-.1-.03l-.46-.2-.13-.07-.46-.27-.13-.08c-.13-.1-.27-.2-.4-.32l-.1-.09a8 8 0 0 1-.38-.36l-.1-.1-.32-.35-.15-.17a7.29 7.29 0 0 1-.22-.28c-1.4-1.76-2.66-3.87-6.25-4.65a7.07 7.07 0 0 0-1.28-2.7c-2.46-3.22-7.16-3.9-10.66-3.9-1.8 0-3.35.18-4.04.35l-3.37.85 2.12 2.8c.26.34.48.55.65.71.2.2.51.5 1.58 2.56.28.5.51 1.06.77 1.64l.1.26-.2.11-.5.28-.36.24-.48.33-.28.23c-.27.23-.54.47-.8.73l-.32.32-.33.4a7.3 7.3 0 0 0-.57.78l-.3.47-.2.35c-.14.27-.27.55-.39.84l-.03.08a6.88 6.88 0 0 0-.5 1.76l-.04.28c-.03.23-.05.45-.05.67l-.02.24c0 .3.02.58.05.86v.02c.04.3.1.59.19.87.01.08.04.13.06.2a5.67 5.67 0 0 0 .5 1.14l.21.3.12.17c.18.23.38.46.6.67-1.65.4-2.98 1.32-4.2 2.51-.55.53-1.07 1.1-1.58 1.7-.14.17-.25.33-.35.51-.03.04-.04.08-.07.1a3.65 3.65 0 0 0-.24.56c-.07.19-.12.37-.17.55v.02l-.1.54v.02c-.79.25-1.59.6-2.36 1.04-2.58 1.42-6.12 5.76-7.14 8.76v.05l-.02.04c-.19.64-.7 2.92-.61 4.62l.18 4.08 3.37-2.26c1.13-.77 4.5-1.83 7.88-1.83.09 0 .16 0 .23.02v.03c.02.22.05.42.1.62l.03.13c.05.2.12.39.19.57l.02.04c.08.18.18.35.28.5l.03.05c.12.18.24.33.37.49l.05.05a8 8 0 0 0 .93.87l.12.1.42.32.77.58c1.16.75 3.42 1.4 4.28 1.51a5.93 5.93 0 0 1 2.54 1.02c0 .08.02.14.03.23.03.27.08.54.13.81l.09.42c.1.46.25.94.42 1.4l.17.42a18.16 18.16 0 0 1 .38.83 6.45 6.45 0 0 0 .56 1c-1.42 5.49 2.52 12.2 3.5 13.23l2.8 3 1.06-4c.13-.46.27-.7 2.08-3.47.3-.42.8-.88 1.3-1.37.25-.22.5-.46.76-.72.37.14.72.27 1.03.36l.27.07.2.04c.7.12 2.44.06 3.64-.17.55-.1 1.07-.2 1.59-.32a10.2 10.2 0 0 0 4.23-1.84c.23-.18.45-.38.67-.58 3.18-3.37 4.46-5.04 4.8-8.72.1-.97.13-2.05.11-3.36l2.46-.14c.54-.03 1.06-.08 1.6-.12.25-.03.52-.03.78-.06a7.34 7.34 0 0 0 3.74-1.43l.27-.2c.08.2.16.4.26.57l.06.13c.92 1.57 2.31 2.8 2.83 3.33l.1.07c.02.04.06.06.09.09l.15.11.11.08.18.12.15.09.18.12.35.2.17.1.25.13.21.1c.07.04.14.08.21.1l.27.14.1.04c.27.13.53.25.8.35.28 1.05.28 2.37.28 3.66v1.32a5.3 5.3 0 0 0-.1.5l-.5 3.5 3.37-.94c.24-.07.5-.11.77-.17 1.72-.35 4.32-.87 6.62-4.52.5-.8 1.32-2.34 1.72-4.2l.9-.48.08-.04.34-.2c.04-.04.09-.06.13-.09a4 4 0 0 0 .29-.21l.1-.08c.14-.11.27-.22.39-.34.02 0 .02-.02.04-.04l.33-.35.08-.1a3.76 3.76 0 0 0 .33-.48c.1-.18.22-.36.32-.58.95-1.98 1.09-4.66.94-6.84l-.01-.23c-.03-.53.02-.89.15-1.14.2-.4.6-.52 1.11-.58.38-.04.8-.06 1.28-.15l.59-.12c4.2-.87 5.54-1.49 6.87-.87 2.54 1.28 1.56 6.54-.75 7.88.03.03.13.02.25-.01.5-.12 1.55-.55 2.44-.95a11.16 11.16 0 0 0 1.92-1.06c1.9-1.37 2.77-3.33 3.5-4.27.26-.35.52-.55.79-.54.57 0 .57-.06 1.03.35h.01a1.09 1.09 0 0 1 .22.36c.04.1.07.22.09.33l.03.13.01.2c.02.23.02.46 0 .69v.04l-.02.85c-.03.6-.05 1.28.08 2.13.56 3.38 3.9 9 6.04 10.06.31.16.59.21.83.16 0-2.04.03-2.18.05-2.94l.01-.86c0-1.51 0-2.22.17-3.63.07-.84.1-1.86.3-2.74.12-.52.29-.98.56-1.35 1.05-1.35 3.82-2.57 4.98-3.57.92-.81 3.52-2.91 3.76-3.21.12.37.26.74.39 1.1a14.36 14.36 0 0 0 1.86 3.5l.06.1.26.32a6.53 6.53 0 0 0 .94.99c.99.87 6.12 5.14 6.88 2.75-2.54-4.8-2.6-10.05-.87-11.34 1.4-1.05 2.71-2.01 3.86-2.93 3.2 3.83 16.2 13.46 20.17 15.79 2.14 1.22 16.47 12.68 17.68 13.9a91.04 91.04 0 0 0-9.53-.64c-.33 0-.5.06-.55.19-.1.3.51.92 1.45 1.74.74.66 1.69 1.44 2.62 2.28a81.05 81.05 0 0 1 6.59 6.82c1.68 1.87 3.93 4.39 4.45 6.5l.09.3-1.04-.2c-.4-.07-.74-.12-.9-.16-1.05-.24-2.95-.46-4.43-.63l-1.05-.12a74.91 74.91 0 0 0-4.44-.35c-2.01-.1-4.07-.15-5.9-.18a99.85 99.85 0 0 0-10.4.31c-3.12.24-6.18.58-9.14.97-2.47.17-5.44.83-8.4 1.26-.78.12-1.56.23-2.34.3-.19 0-.37.03-.55.04h-.03c-2.31.16-4.5.04-6.36-.72a.55.55 0 0 0-.1-.04c-2.6-1.06-5.79-2.8-5.79-5.86v-.11l.04-.4.04-.2.1-.32.08-.22a2.85 2.85 0 0 1 .25-.45l.15-.18.16-.2a4.6 4.6 0 0 1 .66-.57 11.2 11.2 0 0 1 1.56-.95c.2-.11.39-.22.57-.34l.15-.09c-1.74-1.29-5.2-1.11-7.5-.7-.44.08-.86.2-1.27.3-1.3.4-2.52.96-3.88 1.62-1.18.6-2.75 2.16-3.94 3.81-.71.98-1.28 2-1.56 2.9-.1.34-.16.66-.17.95 0 1.52.35 3.72 0 3.97-.29.17-.8-.06-1.44-.18a25.48 25.48 0 0 0-2.59-.14h-.17l-1.38-.02h-.02c-.9 0-1.81.02-2.69.06l-.5.01-.7.03c-2.42.1-4.93 1.08-7.3 2.3-1.8.93-3.53 1.99-5.06 2.9-.32.16-.93.59-1.71 1.2l-.28.23-.18.13-.06.05c-3.45 2.79-9.39 8.3-10.33 10.98v.03l-.1.3c-.04.24.07.96.37 1.06.07.02.13.03.21-.01 6.76-3.16 16.64-3.75 24.27-2.17 1.62.36 3.27.6 4.93.8 1.7.2 3.4.36 5.05.52l2.29.24c.94.12 1.87.23 2.75.38l.02.03c.4.78.13 1.6-.38 2.48-.38.67-.9 1.37-1.37 2.1-.26.4-.5.81-.7 1.22a58.47 58.47 0 0 0-3.25 9.07c-.7 2.6-1.08 5.1-1.8 8.13a51.5 51.5 0 0 1-1.08 3.96 5 5 0 0 1-.18.47c-1.4 3.51-5.4 5.6-12.41 6.6a37.54 37.54 0 0 1-4.08.43c-1.1.04-2.14.01-3.16-.07l-.98-.05c-3.27-.17-5.46-.28-5.67-3.74-.05-.89-.17-1.95-.36-3.07a18.86 18.86 0 0 0-1.49-4.97c-.14-.29-.3-.58-.45-.84l-.51-.75a14.84 14.84 0 0 0-1.18-1.48h-.01a7.25 7.25 0 0 0-3.47-2.25c-2.25-5.26-9.7-8.78-11.92-9.2l-3.33-.63.66 3.35.37 1.8c.18.88.18.88.18 1.24l.04 1.04.01.3c.05 1.35.07 2.2-.14 5l-.35.28a13.74 13.74 0 0 0-1.97 2.57l-.38.64-.2.36c-.18.35-.41.94-.88 2.51l-.55-.24-.66-.28a6 6 0 0 0-2.48-.65c-.06 0-.1 0-.16.02-.29 0-.56.03-.82.05l-.27.03c-.28.04-.56.09-.81.15l-.2.04c-.27.07-.52.14-.76.23l-.03.02-.69.3c-.03.03-.08.04-.12.06a7.53 7.53 0 0 0-1.89 1.5c-.02 0-.03.03-.05.04l-.59.66c-.33-.03-.66-.07-1-.09h-.19c-2.83 0-7.6 1.67-9.83 3.41l-.03.04-.05.03c-.34.3-1.26 1.16-2.1 2.63l-1.87 3.2 3.69.27c2.58.18 4.02.54 6.5 2.19-.02.64 0 1.3.05 2 .02.21.03.43.06.64l.04.4c.05.36.1.72.18 1.08l.06.3c.07.35.16.7.25 1.04l.04.13c.12.38.24.76.39 1.12l.1.26c.16.38.32.75.5 1.1 1.56 3.07 4.12 5.26 9.22 4.85-.2.35-.38.7-.54 1.05-.43.89-.72 1.72-.76 2.22a17 17 0 0 0 .11 3.98v.05c-2.15 4.36-1.38 10.24-1.27 10.98l.57 3.83 3.07-2.33c.63-.48.81-.58 2.95-1.65l.91-.47c.19-.1.4-.2.64-.28l.01.02.41.4.19.17.44.33.22.14c.15.1.3.2.47.28.08.04.16.1.25.13l.5.23.28.1.51.17c.1.04.2.05.31.09.17.04.35.09.53.12l.36.06c.24.04.49.08.74.1.22.02.42.04.63.04h.34l.58-.01c.12 0 .23-.02.35-.03l.59-.05.33-.05.6-.12c.1-.02.21-.05.32-.06l.6-.18c.1-.02.2-.05.28-.09.22-.06.41-.14.62-.22l.25-.1.65-.31c.07-.03.12-.05.17-.09a6.06 6.06 0 0 0 1.5-1.06c1.56-1.5 2.67-3.96 4.43-5.13 1.96-1.33 4.13-1.34 6.02-1.04a6.72 6.72 0 0 0 .1 1.86c.24.88.87 2.63 1.68 3.4l.34.32.88.83.88.84c-.07.74-.06 1.48.1 2.44.2 1.16-.06 2.64-.3 4.07l-.04.17c-.1.55-.15.8-.18.89-.1.19-.23.44-.4.88l-1.34 3.5 3.7-.38c2.31-.23 5.35-.94 8.37-4.4.87-1.02 1.82-2.3 2.49-3.73l.51-.2.12-.05c.24-.12.48-.24.7-.39l.13-.08.53-.37.23-.2a7 7 0 0 0 .37-.32c.09-.07.17-.16.25-.24.12-.1.22-.22.32-.33a7.74 7.74 0 0 0 .52-.63l.23-.3.26-.4.2-.3.31-.56c.08-.13.15-.28.22-.42l.22-.44.14-.37.16-.4.13-.39.11-.38.12-.4.09-.37.09-.41.06-.35.05-.42c0-.1.02-.18.03-.26l.04-.46.47-.05h.01c.26-.04.48-.09.7-.14l.12-.02a7.23 7.23 0 0 0 .7-.23 6.01 6.01 0 0 0 1.27-.72c1.34 2.46 3.35 5 5.77 7.14a21.66 21.66 0 0 0 7.16 4.34l.12.04c1.22.4 2.47.66 3.72.72l-.1-.17-1.13-1.58c-1.78-2.53-4.08-5.98-4.08-8.02.37.18.75.38 1.13.6 1.27.74 2.63 1.65 4.18 2.33 1.21.56 2.66.78 4.1.73.34-.02.7-.04 1.04-.1 1.04-.1 2.66-.93 3.4-1.28-1.26-1.11-2.25-1.82-2.76-2.28a213.12 213.12 0 0 1-3-2.93 7.79 7.79 0 0 1-1.51-2.04h.04l.47-.1.25-.06.34-.04.48-.06a5.55 5.55 0 0 1 .74-.07l.47-.04.22-.01c2.74-.17 6.28-.08 9.17-.1h.2l.72-.01h.52l.23-.02.64-.02c.92-.03 1.82-.62 2.55-.98.33-.16.63-.26.86-.25l.72-.01c1.13-.04 2.26-.08 3.3-.2.24-.03.49-.04.72-.08a35.38 35.38 0 0 0 3.16-.8c.55-.16 1.22-.33 1.82-.51l.69-.22c0-.37-.2-.82-.51-1.27l-.03-.04c-.5-.71-1.26-1.45-1.93-2.08l-.7-.64c-.54-.48-1.03-1-1.47-1.6a12.29 12.29 0 0 1-2.3-6.99 23 23 0 0 1-.03-2.98l.08-1.12c0-.52.17-1.86.3-2.39.16-.83.44-2.66.65-3.54l.03-.14c.3-.99.6-2.24.89-3.33.21-.84.4-1.59.56-2.04.24-.83.38-1.81.48-2.81.15-1.66.15-3.33.15-4.31 10.84-.44 28.23-2.18 38.31-6.68-.83 3.92-1.57 7.65-2 9.94l-.2 1.12c-.12.72-.27 1.45-.43 2.2-1.04 5.11-2.58 10.71-5.4 13.93-.94 1.02-3.73 2.65-6.24 3.4a8.3 8.3 0 0 1-2.53.4c-2.55-.12-4.45-4.98-6.47-3.86-.87 5.3.18 10.67 5.51 13.07a17.1 17.1 0 0 0 7.37 1.27h.05c.53-.06 1.03-.18 1.42-.24l.14-.03h.12l.13-.01h.12l.09.01c.03 0 .06.03.09.04l.05.03c.42.43-.53 1.31-1.18 2.3-.15.23-.28.46-.38.69-.3.61-.58 1.4-.84 2.36-1.56 5.64-2.21 16.31.61 21.07.09.14 4.88 9.47 6.67 9.07a.57.57 0 0 0 .16-.07h.02c.3-.24.48-.85.48-1.98 0-6.46 1.5-12.8 5.16-17.75.61-.82 1.27-1.61 2-2.35a20.02 20.02 0 0 0 3.13-4.46 50.56 50.56 0 0 0 2.92-6.56c.64.86 1.89 2.53 2.56 3.4l.4.5c.69.8 1.98 2.4 3.05 3.68l1.23 1.4c4.04 4.33 4.1 5.9.69 11.75-1.73 2.92-4.8 7.02-7.97 11.62-3.24 4.56-7 8.07-10.92 8.71-.42.07-.86.08-1.33.07-2.04-.09-4.5-.88-7.05-.6l-.06.01c-.33.05-.65.1-.95.17l-.37.1-.54.16c-.13.04-.25.1-.37.16a5.8 5.8 0 0 0-1.18.66l-.29.22c-.14.1-.26.22-.4.35l-.22.22c-.16.16-.3.33-.46.52l-.1.13a10 10 0 0 0-.52.75c-.73-.16-1.47-.26-2.26-.26-5.95 0-12.27 5.16-13.07 9.23l-.64 3.23 3.22-.49c1.37-.2 2.09-.3 2.5-.3.21 0 .34.01.7.08.32.06.67.12 1.2.17.32.04.5.13 1.05.43.75.4 1.73.95 3.38 1.34v.02l.01.8.02.3c.01.22.04.43.08.64v.12l.03.05a7.35 7.35 0 0 0 .16.62c0 .04.03.09.04.14.06.17.13.35.21.52l.04.1.31.62.04.08c.7 1.24 1.71 1.5 1.42 2.47-.06.2-.18.42-.36.69l-.07.11c-.51.74-1.01 1.47-1.44 2.25a8.12 8.12 0 0 0-.71 6.38c.09.3.18.58.3.85 0 .03.03.08.06.16l.46 1.18c-.14.25-.3.5-.43.79-1.34 2.7-1.53 8.11-.8 10.77l.04.11c.25.75.85 1.7 1.79 3.08l2.19 3.24 1.74-3.5c1-2.06 2.22-3.36 4.67-5.27.2.13.44.25.67.36l.13.05c.2.1.44.19.67.26l.2.07.68.17.24.06c.23.04.46.08.7.1l.26.03.73.05h.25a8 8 0 0 0 .76 0l.14-.02c.81-.04 1.63-.16 2.44-.34l.41-.1c.19-.04.37-.09.54-.15l.47-.14.5-.17.48-.18.45-.2c.15-.07.32-.14.46-.22l.43-.2c.14-.1.29-.18.44-.26l.37-.23.41-.29.33-.24a6.66 6.66 0 0 0 .63-.55c.56-.53 1.08-1.27 1.6-2l.63-.92c.34-.47.67-.9 1-1.24.22-.24.48-.25.76-.14.6.23 1.26 1.05 1.66 1.41v.01l.24.2c.02.04.06.06.08.08l.18.15.11.09c.56 2.54 2.02 5.33 4.4 8.34l.12.16 2.76 3.6 1.23-4.39c.12-.41.36-.78 1.06-1.75.37-.55.85-1.22 1.43-2.11.25-.4.6-.79.95-1.2.6-.7 1.28-1.49 1.78-2.5l.66-.15.2-.06.46-.14.27-.1.38-.14.28-.12a4.42 4.42 0 0 0 .63-.31c.1-.06.21-.12.33-.17l.28-.17.31-.19.28-.18.3-.2.27-.2c.1-.09.2-.15.29-.24l.26-.2.28-.26.24-.22.32-.31.35-.37c.1-.11.2-.2.28-.32.08-.08.15-.18.22-.27l.23-.28.21-.29.2-.3.21-.3.18-.3.2-.31c.05-.1.1-.2.17-.3a10.96 10.96 0 0 1 .31-.64l.17-.35.14-.3.14-.38.1-.3.14-.38.08-.28a12.46 12.46 0 0 0 .38-1.8c.03-.15.04-.3.06-.46l.02-.26.03-.46.02-.27v-.46l-.01-.27-.03-.49-.02-.24c-.02-.18-.03-.34-.06-.5l-.03-.22-.1-.55-.03-.16-.14-.59v-.04c-.14-.48-.28-.93-.46-1.4-.34-.86-1.33-1.76-2.52-2.47l.2-.14c.44-.3 1.07-.9 1.48-1.22a8.38 8.38 0 0 0 2.13-2.5v-.04c.56.3 1.11.6 1.7.82l.09.04a7.48 7.48 0 0 0 3.61.43l1.29-.14h.13l.52-.08.31-.03a11.4 11.4 0 0 0 2.6-.72l.03.05c.39.67.84 1.26 1.28 1.85.3.4.6.78.86 1.18l1.78 2.58 1.95-2.49c1.57-2 2.33-3.15 2.59-7.58.14-3.05-.77-5.84-2.5-7.69l-.26-.23-.06-.37-.04-.3a12.44 12.44 0 0 0-1.16-2.22c-.15-.16-.22-.3-.22-.46v-.04a.61.61 0 0 1 .08-.23.9.9 0 0 1 .12-.18l.05-.05.2-.18.06-.04.25-.17.07-.05.31-.16.07-.04c.14-.07.26-.13.4-.18l.13-.06.35-.14.33-.12.13-.05a7.86 7.86 0 0 1 .47-.17l1.84-.59.13-.04.27-.08.4-.12a12.57 12.57 0 0 0 3.17-1.81c.52-.42.98-.86 1.28-1.3.12-.17.22-.35.28-.51.05-.06.2-.39.17-.44v-.03a13.16 13.16 0 0 1-3-.68l-.24-.14.3-.1a55.8 55.8 0 0 0 5.26-2.5l.06-.03.03-.01.13-.1c.98-.88 1.85-1.94 2.43-2.75.46-.58.8-.7.52-1.27-.06-.12-.4-.24-.8-.3-.87-.11-2.25-.17-3.3-.29-.26-.03-1.16-.04-2.03-.14h-.04l-.26-.04-.16-.02c-.07 0-.13-.03-.19-.03l-.3-.07c-.03 0-.04 0-.06-.02-.1-.01-.2-.04-.29-.07a.54.54 0 0 0-.08-.03l-.18-.08-.08-.04a.59.59 0 0 1-.13-.09l-.06-.04a.76.76 0 0 1-.1-.13l-.02-.01c-.1-.21.04-.4.3-.59.59-.39 1.76-.71 2.06-.87a14.24 14.24 0 0 0 3.81-2.98c.7-.77 1.05-1.4 1.57-2.22.11-.24.46-1.06.57-1.47 1.4-.24 4.31-2.92 5.89-5.36.39-.6.7-1.19.88-1.71l.07-.23c.13-.39.2-.65.16-.94-.12-.53-.36-.47-.81-.41-1.1.12-2.72.82-3.58.88l-.5-.01-.1-.01a1.5 1.5 0 0 1-.39-.07 1.03 1.03 0 0 1-.21-.09l-.06-.04a.6.6 0 0 1-.12-.11l-.03-.06a.44.44 0 0 1-.05-.14l-.01-.06c0-.06 0-.12.02-.18 0-.02 0-.05.02-.09l.06-.2.04-.1c.05-.06.09-.14.14-.23l.05-.08c.05-.1.12-.19.2-.29l.03-.05c.63-.87 1.69-1.96 2.64-3.1.17-1.7 1.63-3.16 2.49-4.4 1.9-2.74 2.72-3.97 2.83-6.24 0-.65.11-1.18-.47-1.58a2.27 2.27 0 0 0-1.15-.24c-.69.04-1.38.14-2 .21l-.4.04c-.12.02-.26.04-.38.04h-.01c-.25.04-.85.17-1.42.26l-.71.1a12.28 12.28 0 0 1-2.78-.18c-3.47-.46-10.17-5.9-11.9-8.3-1.36-1.8-7.95-7.26-10.87-8.46a2.77 2.77 0 0 0-.52-.18 236.23 236.23 0 0 0 .98-40.73 71.22 71.22 0 0 0 12.94 15.55c6.65 5.96 13.93 11.1 20.05 17.3a57.4 57.4 0 0 1 9.47 12.18 45.2 45.2 0 0 1 3.53 7.98c.17.6.3 1.22.43 1.85.7 3.76.6 7.9.6 11.94 0 1.42-1.06 5.42-.27 6.12.31.27.9.05 1.97-1.04a38.57 38.57 0 0 0 7.5-10.34c.45-.86.9-1.78 1.4-2.75l.08-.17a29.68 29.68 0 0 0 1.6-4.84c.3-1.22.53-2.4.57-3.28 0-.18 0-.34.02-.51.04-1.43.07-2.94.02-4.36l-.03-.87c-.05-.86-.27-1.87-.53-2.86-.36-1.35-.78-2.64-.92-3.39 0-.11 0-.21.02-.3v-.03a1.71 1.71 0 0 1 .05-.26.61.61 0 0 1 .07-.15v-.03a.5.5 0 0 1 .23-.2h.01c.04-.03.09-.03.13-.04h.23l.1.02c.04.02.07.03.11.03l.1.05a2.25 2.25 0 0 1 .38.19l.03.01.18.1.03.02c.27.17.53.36.76.52 1.06.7 2.93 1.33 4.53 1.7.92.21 1.75.35 2.28.35l2.1-.03c1.71-.03 3.4-.12 4.95-.33 4.91-.46 9.7-1.57 13.99-3.67 1.85-.94 3.93-1.87 5.31-3.34.4-.38.73-.8 1.09-1.2a31.05 31.05 0 0 1 .88-.96c.05-.05.23-.24.42-.54l.1-.16c0-.05.06-.14.12-.27l.04-.08.47-.95.01-.05c-.45-.05-.85 0-1.24.06-.54.09-1.06.21-1.64.23h-.3c-2.27-.1-4.74-.41-7.24-.86a98.87 98.87 0 0 1-14.78-3.98l-.05-.04a.86.86 0 0 1-.17-.08l-.06-.04a.33.33 0 0 1-.1-.08l-.03-.05-.05-.1a.12.12 0 0 1-.01-.05.2.2 0 0 1 0-.1v-.06l.05-.12.01-.06.1-.15.02-.03c.52-.7 1.94-1.6 3.46-2.46 1.2-.68 2.47-1.33 3.36-1.82l.43-.23.02-.01c.29-.17.52-.3.64-.4a16.57 16.57 0 0 0 4.23-5.32c.35-.63 1.46-2.96 2.2-4.61.36-.8.63-1.44.68-1.65.27-.9 1.1-2.74 1.42-3.99.04-.11.06-.24.08-.33l.04-.28c.13-1.01.1-1.67-.26-1.83-.45-.2-1.19.07-2.08.59-1.5.88-3.44 2.48-5.27 3.82-.79.57-1.55 1.09-2.24 1.49-.81.45-1.81.92-2.91 1.4a74.33 74.33 0 0 1-7.55 2.8 17.62 17.62 0 0 0-3.58 1.74c-.64.39-1.15.74-1.47.99l-.27.2c2-6.22 3.13-13.51 3.14-17.93.01-4.9-2.13-14-1.87-25.34.15-6.17 1.36-16.65.68-24.13-1.5-7.83-3.32-11.61-8.4-17.14-1.98-2.22-3.18-3.52-3.92-3.69-.95-.22-1.16 1.42-1.29 5.33-.16 6.02-4.55 12.73-6.52 19.46l-.11.37c-9.42-21.75-12.47-31.05-13.56-37.85l-.2-1.32-.01-.18a69.83 69.83 0 0 1-.5-7.54c.23-6.32.58-11.1 1.62-16.25 2.08-10.35 8.16-21.56 12.21-27.36 5.95-8.07 7.86-13.92 22.78-24.2 3.4-1.8 8.18-3.07 12.85-.84a7.67 7.67 0 0 1 2.82 2.47c1.74 2.44 2.4 5.81 2.03 8.46l.1-.05c.32-.1.64-.22.96-.35l.33-.18a6.86 6.86 0 0 0 1.08-.63l.6-.38.42-.33.26-.2.28-.27.35-.3.58-.58.27-.27c.26-.28.5-.57.75-.86l.32-.41c.14-.18.28-.36.4-.55l.34-.48c.13-.17.24-.35.35-.54l.3-.48a25.68 25.68 0 0 0 .76-1.43l.25-.54.23-.54c.06-.17.13-.32.18-.49l.18-.54.14-.5.14-.5c.07-.3.12-.58.16-.86l.05-.46c.01-.15.03-.3.03-.46v-.43l-.04-.43-.04-.39a4.74 4.74 0 0 0-.13-.48l-.06-.24c-.83-2.2-2.1-4.03-3.62-5.42 4.1-2.08 9.51-8.27 9.06-19.17l.1-.17c.17-.36.34-.71.5-1.08l.16-.34.19-.42.3-.69c.14-.33.27-.69.4-1.04.6-1.75.93-3.78 1.16-5.64l.1-.86c.13-1.4-.15-4.59-.52-7.04-.1-.74-.22-1.4-.33-1.95.48-1.33.8-2.5.92-3.34.27-1.94.38-3.99.24-6.04a18.2 18.2 0 0 0-2.87-9v-.01l-.06-.09c-.43-.61-.89-1.21-1.41-1.79.04-.37.06-.7.06-.95 0-7.42-1.73-14.32-7.22-16.95zm-165.6 53.46h.92l.28.03c.2.01.38.04.57.06l.3.06c.17.03.33.07.5.12l.26.1c.16.04.32.1.47.18l.22.1c.18.09.36.19.53.3l.1.05c.19.13.37.28.55.44l.13.13.36.37.15.2c.1.12.19.25.27.37l.15.24.22.4.12.24.2.49c.02.07.06.14.09.2l.22.74.05.21.12.57.05.3c.02.18.05.35.06.53l.03.33.03.46v1.13c0 .37-.03.74-.07 1.12.18 1.12 1.63 1.43 1.72 3.1.02.38-.04.83-.2 1.38a13 13 0 0 0-3-2.09c-3.04-1.53-6.59-1.87-10.16-1.82l.01-.13c.1-1.28.1-3.22.18-4.02l.01-.1c.11-.99.23-2.2.52-2.98.14-.24 1.12-1.78 1.48-2.4.79-.2 1.59-.34 2.4-.4h.16zm-77.03 59.7l.78.99a2 2 0 0 1-.78-.99z" fill="#0F0F0F"/><path d="M318.14 102.14c.07.5.09 1.03.04 1.56-.28 3.29-2.6 6.98-4.37 8.13-3.35 2.3-3.64.59-5.94-.81-1.85-1.12-3.53-2.58-5.74-2.87-1.2.47-.85 1.22.24 1.99 1.1.7 2.55 1.98 3 2.33 1.1.88 5.6 4.44 6.65 6.56a13.2 13.2 0 0 1 1.33 6.08c0 .76 0 2.52-.23 3.15-.47-1.51-9.65-10.8-12.13-10.8-2.02.52-.4 1.58.29 2.27 1.39 1.35 2.94 2.58 3.51 3.16 1.63 1.7 5.33 5.9 6.42 8.3 1.8 2.99 1.9 8.07 1.56 11.51.11-1.16-2.77-4.9-4.5-6.66-1.3-1.41-3.46-3.66-5.43-4.22.24-.2.46-.4.69-.63.52-.52.8-1.34 1.1-2.4.1-.4-.25-.4-.64-.4-1.73.06-3.58.17-4.16-.06-1.1-.4-1.39-.35-2.43-1.35-2.48-2.33-2.66-1.98-1.2-4.67.87-1.94 1.26-3.88 1.54-6.89.12-1.17.2-2.5.3-4.03.3-4.68-1.73-8.76-2.42-10.82 2-.05 3.62-.33 4.98-.73a20.43 20.43 0 0 0 7.97 4.12c2.02.6 4.27.24 5.36.12 1.15-.25 3.4-.9 4.2-1.94zm63.14 172.51c.05-1.4-.16-11.68.3-14.32.58-3.74.81-7.66.7-11.45a33.07 33.07 0 0 0-7.67-18.82c-.53-.65-.58-.35-.64-.17-.52 8.7-5.32 16.83-7.17 24.84-.58 2.51-.46 4.85-.06 7.53.23 1.81 2.83 6.14-.64 5.73-3.27-3.72-3.2-8.95-2.48-13.1-1.44-4.11-6.29-15.05-7-16.7a467.14 467.14 0 0 1-6.23-16.9c-1.35-3.92-1.33-3.67-1.9-6.66-1.46-7.71-.81-16.6-.35-21.74 2.2-22.56 16.23-43.36 32.65-57.62 5.71-3.92 8.03-5.26 15.6-5.26 5.9 0 11.9 5.2 10.97 11.22 2.15-1.34 4.91-6.43 4.75-9.12-.3-4.09-2.43-6.6-6.02-8-1.67-.64-2.77-.7-7.85-.41 3.07-2.98 7.35-2.98 10.9-.82 1.81-2.14 8.96-6.42 8.15-13.63-1.37 1.51-3.18 3-5.7 4.51-1.15.7-3.87 2.57-4.97 2.98-.35.13-1.22.3-1.56.47-.81.4-1.74-.7 0-1.88 5.04-3.47 11.24-6.8 14.03-13.09 1.38-3.1 1.91-6.93 1.06-11.85-.36.7-.75 1.4-1.18 2.1-2.43 3.91-5.66 7.54-7.8 9.29-.8.64-2.26 2.57-3.24 2.8-.28.06-.45-.29-.69-.46-.7-.77 4.22-6.26 5.26-7.48 3.64-4.2 4.44-5.9 6.93-10.29 1.9-3.37 1.5-14.47-1.22-16.77-.48 2.07-1.08 4.1-1.55 4.85-1.05 1.58-7.8 11.74-9.48 13.03-.69.12-1.21-.29-.81-1.12 1.34-2.45 5.03-8 5.55-8.94 2.37-4.2 4.1-7.6 4.33-12.5.18-3.8-.4-7.95-2.08-10.99-1.56 8.5-9.7 15.6-12.74 25.6-.2.67-.4 1.36-.54 2.05-.12.7-.81 7.66-1.56 8.3-.4.34-.94.05-1-1.23-.28-6.42.35-7.65-3.63-10.99-2.14-1.8-6.7-1.3-8.32-.77-1.85.53-4.69 2.81-5.15 4.33.92.47 3.35.47 5.84 1.82 3.64 1.99 4.8 4.67 5.2 8.47.29 2.11.29 3.86.12 6.26-.12 1.8-2.95 8.7-3.99 10.21-3.7 5.32-9.12 12.27-14.15 16.36-1.45 1.17-14.4 16.02-16.3 19.05-2.24 3.45-5.32 7.79-8.14 12.57a110.66 110.66 0 0 0-9.7 21.51c-1.37 4.1-2.41 7.5-2.28 9.7.47.75.77 1.43.6 1.81-.53 1-.94 1.4-1.33.94-.88-.88-1.8-2.05-3.24-3.86-2.08-2.7-7.68-4.62-10.45-6.2-1.98-1.11-3.65-2.86-4-3.22a6.2 6.2 0 0 0-.4 1.45c-.46 1.95-.34 4.45-.17 6.39.24 2.68 1.5 6.72 3.59 8.76 1.21 1.24 3 1.57 5.31 3.04 4.1 2.56 8.9 5.38 6.07 6.2-.46-.12-3.99-2.4-4.62-2.76-1.73-.92-3.99-1.87-5.38-2.8-1.32-.9-2.5-1.64-3.54-2.6-2.04 4.29-.52 10.23 2.04 13.64.93 1.12 3.76 2.87 6.76 4.44 3.3 1.69 6.18 3.92 5.84 5.15-.06.23-.75.76-1.16.46-.8-.64-2.48-1.51-3.98-2.56-2.38-1.58-5.2-2.87-6.13-3.4a7.86 7.86 0 0 1-1.53-1.04c-.47 1.93-.6 4.68-.32 6.37.3 1.87 2.43 4.68 3.59 6.02 2.89 3.56 10.92 5.38 13.17 9.29 1.85 3.22.12 3.5-.11 3.22-.64-.88-2.2-2.63-3.06-3.22-2.25-1.41-6.24-3.22-9.45-5.16-.13 1.06-.2 1.96-.2 2.88 0 1.98.12 3.32.75 5.55.8 2.7 1.39 3.86 2.03 4.74.7.87 1.67 1.4 3.1 2.45 2.5 1.81 5.5 2.57 8.1 3.8 1.62.76 4.16 3.86 4.22 4.97 0 .3-.35 1.1-.75 1.04-.18-.05-1.4-1.51-3.01-2.74-1.04-.83-2.3-1.4-3.58-1.82a49.9 49.9 0 0 1-4.72-1.96c.03 2.46.65 5.08 2.23 8.39 1.27 2.63 2.31 4.85 4.39 5.9 2.6 1.28 6.36 2.04 7.91 3.1.81.52 3.3 2.21 3.47 3.26 0 .24-.3 1.35-.7 1.47-.22.06-3.46-2.75-5.25-3.28-.8-.27-1.84-.51-2.93-.8.58 2.52 2.36 4.63 3.97 6.64 2.18 2.1 3.48 3.58 6.31 4.33 2.84.76 3.24.16 4.6.9 1.38.75.62.41 2.44.61 5.37.54 17.1 1.14 18.41.75 1.31-.39 5.4 2.54 4.56-3.04zm25.66 55.88c-4.5-.82-14.9-4.33-18.72-5.5-1.44-.46-5.9-.23-8.32-.41-2.2-.12-2.6-1.1 1.96-2.1a75.6 75.6 0 0 0 10.34-3.04c.7-.3 1.36-.59 1.97-.9 5.99-3.01 8.4-7.08 10.85-13.17.64-1.64-2.25 1.51-2.36 1.57-1.27.82-3 1.87-4.28 2.16a52.09 52.09 0 0 0-13.58 5.07 39.64 39.64 0 0 0-5.6 3.7c-1 .76-1.68 1-1.91.7-.35-.46.45-2.04 1.1-2.8 3.78-4.62 4.9-13.78 5-20.94-4 .22-7.38-.09-15.25-.28.58 7.16-1.1 11.81-5.35 14.9-5.49 4.04-12.54-1.35-15.02-3.8-1.56-1.57-5.83-6.2-7.22-8.24-9.48-13.96-16.07-28.51-23-42.3-6.48-12.93-11.3-29.07-19.1-40.8a28.82 28.82 0 0 1-4.66-1.6c2.21 4.11 4.99 7.97 7.06 11.94 1.62 3.11 4.8 10.47 5.48 13.69.98 4.31-2.77-1.58-3.93-4.33-1.72-4.27-4.04-7.83-5.2-10.29-1.62-3.3-6-10.7-8.48-13.97-2.25-1.74-3.94-3.75-5.9-5.73-.7 2.33-2.2 7.42-2.83 9.88-.81 3.21-1.62 5.37-.81 9.63.28 1.53 2.94 2.52 2.65 4.39-6.52.23-13.34-9.65-15.53-13.56-1.89-3.45-3.54-9.99-3.92-15.33a35.1 35.1 0 0 1-2.1 3.18c-1.55 1.87-4.96 4.97-8.95 7.7-1.32.78-6.7 2.82-10.45 2.76-2.31 3.56-6.88 5.32-9.3 6.49-1.28.64-2.9 1.4-5.04 1.7-1.61.29-3.28-.48-2.47-2.05 0-.35 2.36-1.7 2.71-2.1.57-.82 1.26-1.94 1.73-2.86a49.96 49.96 0 0 0 2.02-6.9c.87-5.14 1.5-9.7 1.45-14.08-1.97 2.22-4.1 3.1-6.7 4.2-1.97.82-4.57 1.7-7.18 2.1-3.15.46-7.77 0-11.16-1.02-2.72 1.63-5.91 3.64-8.77 5-3.63 1.81-7.56 4.15-11.2 5.9-3.53 1.76-7.46 2.98-5.6 1.4 1.78-1.63 6.99-4.21 7.21-4.38a240.5 240.5 0 0 0 16.16-8.73l-.32-.15c-.92.34-2.43.93-3.47 1.28-.87.23-3.3.47-3.98.59-.83.15-2.12.15-3.4 0-4.75 1.76-21.88 12.8-24.51 14.49-4.16 2.68-10.29 6.31-14.56 7.54-11.16 3.16-14.4.17-15.31-1.1-.81-1.18-.87-2.17-2.43-3.4-1.09-.85-1.81-1.39-2.91-1.63-.07.67-.17 1.37-.38 2.1a5.56 5.56 0 0 1-5.6 4.38 8.24 8.24 0 0 1-6.18-2.98c-.46-.58-.83-1.15-1.15-1.71-.59.21-1.16.44-1.3.54-.86.77-2.07 2.1-2.36 3.1-.39 1.38-.77 4.03 0 5.22.15.23.34.4.58.51.55.24 1.2.46 1.88.67 1.36.1 2.59.38 3.6.91 1.74.31 3.6.5 5.46.45.5-.6.98-1.23 1.48-1.8.12-.11.53-.47.81-.41.24.07.7.41.7.76 0 .37-.23.77-.54 1.13 2.69-.8 6.13-2.94 8.45-2.94 6.3 0-2.36 2.69-4.9 4.03a14.12 14.12 0 0 1-9.06 1.5c.22.6.35 1.28.39 2.07-.12.3-.92.22-.92.22-.24-.05-.58-.35-.64-.58a5.97 5.97 0 0 0-.86-1.58 7.3 7.3 0 0 0-1.5-.97l-1.4-.44a7.14 7.14 0 0 0-1.15-.1c-1.88 0-6.45 1.89-7.26 3.99h.17c4.13 0 7.16 2.8 7.9 7.33a5.68 5.68 0 0 1-1.33 4.65 9 9 0 0 1-5.61 3c.38 1.58 1.5 2.3 3.12 3.06 1.45.72 3.28.44 4.6 1.1.16-.97.42-1.9.78-2.73.78-1.72 2.75-3.45 5.1-5.13-.64-.17-1.11-.44-1.29-.77-.23-.46-.75-1.46.47-1.46.92 0 .86.82 1.38.99.29.1.59.16.9.2 2.3-1.57 4.76-3.1 6.73-4.6 3.42-2.62 5.84-5.84 9.48-8.12 1.9.65.12 2.34-2.25 5.09-2.6 3.02-4.76 5.06-9.7 8.2 1.63.35 3.19.9 3.04 1.61-.11.82-2.3-.64-4.27-.64h-.34c-3.1 1.88-5.28 3.49-6.59 5.96-.79 1.47-1.74 3.7-.91 6.14l.28.68c.97-1.48 2.6-2.9 5.4-3.67a5.7 5.7 0 0 1 6.38 2.36 8.03 8.03 0 0 1 .93 7.15l-.02.05-.02.04c-.16.4-.37.77-.58 1.13 3.2.9 7.44-1.07 10.32-4.48.93-1.11 1.97-3.5 2.2-5.2.4-3.91-.81-4.85-2.37-5.55-.35-2.46 3.5-1.91 4.5 1.16l.55-.02c2.78-.17 6.42-1.01 8.19-2.94.01-1.7.5-3.31 1.45-3.35.7 0 .98.47.52 1.87a4.14 4.14 0 0 0 .4 3.38 8.88 8.88 0 0 0 2.32 2.98c.47.42 1.02.77 1.61 1-.02-.28-.03-.58-.03-.88a5.92 5.92 0 0 1 1.08-4l.16-.23c.6-.86 1.35-1.94 2.85-2.37a6.03 6.03 0 0 1 4.44.22 7.33 7.33 0 0 1 4.43 6.06c1.12-.98 2.02-2.03 2.23-3.77.02-.11.03-.23.03-.35.23-2.7-.35-3.8-1.96-5.43-.35-.42-2.72-1.88-.35-2.23 2.2-.34 2.14.7 5.9.6 1.62 0 2.3-.94 3.46-1.11 1.03-.36 2.2-.7 3.35-.7 1.21 0 3.87.93 4.38 2.1.24.47 1.05 1.22 1.05 1.8 0 .13.34 1.42.34 1.42 2.66-3.04 4.57-4.5 4.75-8.83.11-3.62.98-5.72 2.19-2.92.58 1.34.11 7.83.06 10.58-.01.26.01.6.04.97.31 2.9 1.85 8.72 3.08 9.55-.06-4.14 1.1-9.76 2.78-13.26 1.1-2.46 2.66-7.24 1.61-10.17 1.91-1.46 2.66 2.63 2.25 5.15a30.71 30.71 0 0 1-2.31 7.19c3.18-1.47 5.26-4.1 6.64-5.73.87-1.05 1.5-5.43 1.74-9.65 2.49.94 1.1 5.44.75 7.96-.16 1.46-.64 3.09-.1 4.4.05.16.12.3.21.45.75 1.22 3.52 5.37 5.73 5.96-1.63-2.05-1.68-7.25 0-10.98 1.09-2.51 2.47-8.19 3.05-12.75 1.91-.17 1.16 3.28.99 4.73-.11.94-.47 2.22-.7 3.22-.16.53-.4 1.23-.4 1.87l.05 1.93c.87-1.17 3.3-3.33 4.1-4.14 1.1-1.17 1.56-2.81 2.6-4.8.35-.75 2.09-2.28 2.14-3.27.06-.88-.17-3.9.75-4.2 1.68-.13 1.16 4.2 2.6 6.48l3.81 5.73c.41.58 2.61 2.75 2.2 3.1-1 1.05-4-2.45-4.5-3.16-1-1.35-2.96-4.38-3.48-6.08-.58.77-2.25 4.1-3.17 6.26a9.53 9.53 0 0 1-2.07 2.78c9.7 9.44 20.72 14.93 32.63 24.96 5.73 4.85 11.44 9.42 14.85 16.55.29.64-1.33 1-1.96.12-.52-.65-1.5-1.82-2.08-2.7-1.74-2.8-7.8-5.14-11.5-5.14 1.44.05 12.01 10.4 12.01 16.66.07 5.6-4.67 7.41-.92 14.84.7 1.37 2.39 2.4 3.68 3.06 2.05-7.28 4.45-17.27 5.28-23.63.64-5.32.06-10.47.1-15.73 6.54-1.05 1.86 26.3.82 30.17-3.11 11.92-7.74 23.49-9.42 36.4-.52 4.03-3.29 16.48-5.37 19-2.2 2.7-3.64 3.85-6.52 5.26-.3.17-4.17 2.74-9.82.59 2.31 4.92 6.58 7.03 10.88 6.19 2.53-.5 5.08-2 7.25-4.56 1.62.23-1.62 3.8-2.02 4.26-3.64 4.1-5.67 12.8-5.38 18.94 0 .99.14 2 .32 3 .68-1.76 1.9-5.15 2.16-5.7.76-1.57 1.97-3.15 2.55-4.78.75-2.46 2.82-5.85 4.27-7.96l.37.16s-3.6 5.9-4.07 8.03c0 0-2.06 4.03-2.55 4.8l-2.5 6.6c.21 1.09.46 2.2.6 3.33.23 1.4 2.66 5.31 3.18 5.67-.06-9.25 5.2-15.26 8.2-19.18 3.99-5.14 6.82-15.13 8.5-21.9.11-.48.4-1.82.92-2.57.53-.7 1.45-.94 1.67.64 0 3.33-1 7.81-2.42 12.25a103.9 103.9 0 0 0 4.97 6.28c3 3.44 5.89 6.78 6.35 8 .47 1.11 1.1 2.33 1.05 3.56a13.03 13.03 0 0 1-1.74 5.8c-3.34 5.25-12.65 19.81-18.6 22.56-1.64.73-3.72.82-5.82.83l.15.16c.29.35.7.59.7.99 0 .3-.06.59-.47.59a1.7 1.7 0 0 1-1.5-.7 7.52 7.52 0 0 0-1-1.04c-2.56.03-5 .23-6.6 1.67l.4.28c1.83 1.43 2.44 3.7 1.65 6.05-.94 2.77-4.05 5.73-7.25 5.85-.06.54-.04 1 0 1.4.55 4.1 6.25 1.1 9.48-1.3.44-1.08.61-2.3 1.18-2.87.23-.22.97-1.11 1.62-.63.21.13.21.39.15.68 2.18-2.6 3.78-5.66 5.86-7.93 1.38-1.46 1.9 1.52 1.32 2.51-2.3 3.74-4.85 7.77-8.5 10.6.93.3 1.97 1.02 1.97 1.73.06.47-.4.42-.8.42-.41 0-1.39-.47-1.74-.6a3 3 0 0 0-1.03-.17c-.2 0-.4.05-.6.12-.68.4-1.42.75-2.18 1.06-3.29 1.28-3.82 2.57-5.72 4.8-.76.88-1.2 3.84-.85 5.74 1.68-1.8 3.78-2.85 5.85-2.85 2.16 0 4.1 1.12 5.5 3.17 2.1 3.05 1.6 6.45-1.2 9.1 2.9 1.15 6.66 1.16 10.46-2.95 1.83-1.97 2.09-3.71 2.18-5.83a3.16 3.16 0 0 0-.56-.83c-.29-.3-.86-.7-1.15-1.06-.47-.58-1.8-1.22-1.39-2.04.17-.29 1.22-.34 1.5-.22.29.11.47.35.75.46.16.07.6.44.98.84v-.08c.4-5.15 4.16-7.78 4.85-15.31.12-1.76-.17-7.44 1.92-5.96.8.52.75 2.15.63 3.97 0 .53-.18 3.16-.23 3.98-.12.4-.81 4.2-1.1 5.72-.08.4-.2.9-.38 1.39l1.14-.28c.35-.06.7-.17 1.1-.17.1 0 .1.22.1.35 0 .3-.5.23-.68.3-.17.05-.45.1-.63.17-.07 0-.23.13-.3.13 0 0-.1.04-.17.04-.24.13-.57.2-.88.28a5.8 5.8 0 0 1-.84 1.47c-2.04 2.4-2.4 7.7-.05 9.94l.06-.51a8.23 8.23 0 0 1 4.07-5.63c.9-.54 1.88-.8 2.93-.8 1.97 0 4.06.99 5.57 2.64a7.08 7.08 0 0 1 2 5.05c3.53-1.1 6-4.66 6.38-8.3.35-3.1.7-5.78-2.54-7.35-1.16-.59-4.27.17-2.2-2.7.11 0 .23 0 .33.02 1-.47 2.17-.79 3.13-1.66.82-.73 1.76-1.5 2.31-2.45-.64-.58-1.18-1.22-1.21-1.82-.29-3.5 4.62 1.35 6 1.99 1.04.45 2.53.54 3.98.37.75-.1 1.48-.27 2.14-.5l-.4-.2a3.78 3.78 0 0 0-.5-.18 4.4 4.4 0 0 1-2.69-1.98 6.03 6.03 0 0 1-.97-3.94l.04-.46c.07-.85.16-1.89.97-2.97.37-.47 2.16-2.64 4.54-2.9h.08c.24-.01.49-.04.71-.04.25 0 .48.02.7.03-.82-.81-2.07-.97-3.5-1.09-.87-.11-.99-.29-.99-1.05.06-1.53.17-1.4 1.05-1.4.86-.07 2.19.3 3 .4 2.23.47 6.8-2.52 8.56-2.5h.07c-1.5-3.11-10.75-1.3-10.81-4.45-.06-1.28 6.07-.47 7.57-.53 1.45-.06 11.33-1.93 11.56-3.61-.63-.25-1.76-.34-2.78-.4l-.57-.01c-.53-.07-1.15-.18-1.33-.24-3.35-1.52-5.2-2.28-9.54-2.92-.29-.05-.8-.05-.88-.3-.21-.93.88-.93 4.98-1.23 1.9-.16 5.72-1.05 7.34-1.87a7.03 7.03 0 0 0 2.48-2.63c.46-.99-4.04-.53-5.83-.64-1.5-.18-2.66-.18-4.1-.41-1.33-.23-.69-1.23.23-1.23 2.48 0 5.2.17 7.69-.41 2.08-.47 3.99-.88 5.88-1.75a5.46 5.46 0 0 0 2.5-2.1c.1-.24-.25-.38-.87-.45-1.92-.25-6.35.07-7.06.03-2.77-.11-8.72.24-8.49-1.05.64-.87 3.07-.99 4.97-1.27 3.07-.48 10.63-2.93 10.63-6.79-1.2.24-1.96.47-3.4.47-1.96.06-7.28.64-7.74-.4-.17-.41-.52-.83-.11-1.06.69-.35 3.05-.23 3.22-.23 2.78-.06 5.04-.18 7.52-.76 1.22-.23 2.08-.93 3-1.63.47-.36.87-.88 1.16-1.3.28-.45 1.34-2.47 1.34-2.57-2.2.46-4.4.64-7.46.46-4.57-.34-7.86-3.38-11.1-6.48l-5.37-5.2c-.88-.82-4.23-3.4-4.91-4.04-.46-.4-3.64-2.5-3.87-3.03-.06-1.24.52-4.68.58-5.2.22-2.05.46-4.38.46-6.55.12-4.1.34-8.07.4-12.27.06-8.07-1.08-18.4-2.19-26.58-.31-.8-.6-1.6-.88-2.41-1.55-4.68-3.22-9.17-4.15-13.73-.05-.06-.17-.82.11-.82.24-.05.98-.23 1.1-.17 1.15.48 4.33 10.7 6.07 15.79 1.21 3.44 8.26 14.55 10.86 17.17 3.98 4.04 10 10.23 13.98 13.45 2.77 2.22 13.64 11.21 16.75 15.42 4.05 5.5 6.24 8.89 8.61 13.79 2.08 4.27 1.79 11.35 1.91 16.6.7-.41 2.02-2.63 2.02-2.63.87-1.17 2.72-5.9 3.18-7.02.34-.7 1.1-3.33 1.27-5.2.17-2.39.23-4.79.23-7.13 0-3.62-2.08-8.3-3.7-10.64-1.27-1.81-1.96-3.98-2.77-5.9-.17 0 .64-1.41 1.45-.54 1.38 1.64 2.02 4.4 3.98 5.85a25.63 25.63 0 0 0 8.83 3.98c6.13 1.4 13.18.23 19.25-1.76 2.03-.64 6.7-2.75 6.36-3.5-.18-.42-1.8 0-4-.35zm-86.44 42.72c-.85 0-1.32 1.28-1.84 2.16-.4.52-1.85.88-1.56-1.69.29-2.34 3.11-2.63 5.43-2.98 1.09-.18 1.67-1.82 1.38-3.22a5.1 5.1 0 0 0-.8-1.76c-1.74-1.93-3.88-.52-6.07-1.63-.63-.35-2.08-2.34-2.02-3.45 0-.41.3-.82.92-.88 1.5-.05.8 2.8 4.27 2.76 5.55-.18 6.42 5.6 4.63 8.88-.86 1.58-2.94 1.86-4.34 1.8zm-3.17 6.53c-.34-.4-1.61-1.99-2.13-2.51-.35-.35.28-.94.81-.88.7.12 1.04.7 1.67 1.58.29.47 1.04 1.17.52 1.69-.23.19-.64.36-.87.12zm-1.78 2.99c-.3-.41-1.45-2.17-1.92-2.75-.28-.4.47-1 .99-.93.7.18.93.93 1.45 1.87.24.47.93 1.29.35 1.76-.25.18-.7.3-.87.04zm-1.34 2.52c-.3-.41-1.28-1.7-1.56-2.28-.18-.36.28-.88.7-.83.63.13.8.76 1.26 1.6.24.4.76 1.04.3 1.45-.18.17-.58.23-.7.06zm.29-62.14c-.7 1.41-.7-5.37-.98-10-.23-4.6-.75-9.69-.75-11.8-.29-9.93-4.39-20.75-2.54-20.69 3.07.17 4.45 13.85 4.56 21.68l.18 11.63c0 1.42-.24 8.72-.48 9.18zm-1.62 66.17c-.24.06-.63-.12-.63-.35 0-.48-.06-2.1.06-2.76 0-.35.57-.45.98-.3.4.25.23 1.12.17 2.06-.06.41.06 1.3-.58 1.35zm-1.61-117.88c-.23.11-.81-.17-.81-.46 0-.24.06-.48.17-.71.12-.23.34-.35.52-.53.29-.3.35-.52.81-.52 0 0 .17.11.24.11.18.18.22.41.22.7 0 .42-.75 1.24-1.15 1.4zm-.7-3.4c-.35 0-.75-.22-.75-.58 0-.23.29-.58.4-.76.06 0 .3-.18.35-.3.4-.05.47.24.47.52 0 .23-.23.41-.23.65 0 .07-.12.48-.24.48zm-1.5-3.62c-.18-.17-.35-.23-.35-.46 0-.24-.05-.65.23-.71.75-.28.92.23.75 1-.11.4-.4.46-.63.18zm-.34-2.51c-.24 0-.35 0-.52-.18-.06-.05-.06-.17-.06-.3 0-.34.52-.58.8-.4.18.11.3.52.12.7-.06.07-.23.18-.34.18zm-22.48-1.17c-.75.35-1.15-.35-.93-.88.12-.4 1.51-.8 1.51-.06 0 .41-.3.77-.58.94zm-1.5-3.09c-.29.48-.81.94-1.22.48-.22-.18 0-.59.12-.83.18-.35.64-.88 1.1-.93.18-.06.41.18.41.4 0 .35-.24.59-.41.88zm-3.06-2.4c-.12-.17-.06-.52 0-.7.24-.41.52-.64.93-.47.45.18.28.58.11.93-.18.41-.81.6-1.04.24zm-1.62-2.45c0-.24.05-.53.17-.7.23-.41.58-.29.75 0 .11.17.06.82 0 .93-.23.53-.92.23-.92-.23zm-58.24-43.14c.29 1.12.58 3.75.17 4.86-1.04 3.33-5.6 4.15-8.5 2.4-1.03-.66-4.9.98-5.94 1.21-.63.12-2.43-.64-1.45-1.04 1.62-.71 2.38-1 3.76-1.64.82-.41 3.64-.82 4.57-.41 1.55.76 3.46 1.34 4.73.05 1.56-1.58.35-4.32.35-5.6 0-1 .57-2.76 1.45-2.76.63 0 1.27.12 1.16.93-.07.37-.65.95-.3 2zm-18.25 9.36c-.3.06-1.16 0-1.5 0-.41 0-.76-.47-.88-.64-.22-.36.23-1.16.53-1.16.4 0 .81.74 1.04.74.23 0 .98-.11 1.22 0 .17.17.17.53.1.65a1 1 0 0 1-.51.4zm-3.07 2.1c-.58 0-1.1-.4-1.44-.75a.76.76 0 0 1-.23-.58c0-.76.76-1 1.04-.53.35.53.41.46.81.64.34.12.92.3.58.81-.25.24-.42.41-.76.41zm-3.17 1.99c-.46.3-1.1-.7-1.21-1.11-.17-.47.11-1.4.69-1.34.3.05.3.75.35.93.11.35.8.23.8.82-.06.35-.51.65-.63.7zm-4.17 1.35c-.28-.12-.28-.48-.22-.7.06-.3.58-1.12.92-1.12.23 0 .28.23.47.46.11.12.34.24.47.35.17.11 0 .4-.07.52-.24.49-1.17.7-1.57.49zm124.28-61.31c-.35-.88-1.44-2.8-2.13-4.97-.93-2.8-2.38-6.13-3.19-9.12-.4-.93-1.26-3.86-1.44-4.56a16.38 16.38 0 0 0-2.66-4.84c-1.44-2.01-5.2-5.31-7.34-6.5-1.21.6-2.47 1.02-3.46 1.24-3 .65-7.28-.93-8.73-1.63.41 1.81.7 2.4.64 4.56-.02.47-.08 1.01-.17 1.57-.29 1.69-.85 3.64-1.28 5.26l1.56.28c.04-.26.2-.45.57-.52 1 0 3.13 2.17 3.94 2.87 1.33 1.11 2.54 1.82 3.81 3.1.58.6 1.57 1.64 1.97 2.17 2.54 3.27 5.77 8.17 8.66 11.04 1.48 1.5 6.71 3.9 9.97 4.34.7.1 1.3.1 1.76-.01 0-.6-2.08-3.35-2.48-4.28zm-69.8-88.13c-1.54.98-4.48 2.35-5.84 3.9-.4.53-1.72 2.88-2.71 3.81-.3.3-1.45 1.05-2.83 1.87-.99.65-2.25 1-4.1 1.87-2.32 1.17-4.52 2.52-5.03 3.03-1.27 1.3-3.93 2.53-2.43 3.75.58.52.81.64 1.67.23.93-.41 3.7-1.4 2.5.12-1.16 1.52-3.18 1.75-2.5 3.92.82 2.68 1.44 4.26 4.05 4.73 1.67.3 6.65-.4 11.27-2.46 2.08-.93 4.27-1.46 6.35-.93.92.24 2.43.7 3.64 1.4 1.38.82 2.31 2.28 2.65 2.8.82 1.29.79 3.36.93 5.14.1 1.4.31 2.6 1.1 3.1.29.24.75.59.75 2.29-.06 1.17 0 2.57-.4 3.8-.7 2.22-3 3.92-4.46 3.85-2.19-.06-4.44-.06-6.64-.06-3.81.06-4.67-.4-6.93 2.22-.23.27-.43.56-.63.87-1.35 2.12-2.04 5-2.96 7.2-.05.17-.69 1.57-.51 1.57.8 0 4.27-2.04 4.97-2.8.29-.3 1.5-1.35 1.73-1.59a5.83 5.83 0 0 1 1.39-1.04c1.27 0-.46 2.45-.58 2.69-1.73 2.8 1.27 1.51 2.14.93.4-.23 1.85-1.75 2.31-2.33.23-.24 1.96-2.1 2.02-1.93 1.39-.41.7 1.05.47 1.51-.53 1-6 6.84-1.16 4.28.8-.42 2.77-1.53 3.35-2.16.81-.88 1.27-3.05 2.25-3.45 1.44.46.11 3.67.11 4.37 0 1.93 1.28 6.84 3.24 6.25.25-.08.37-1.06.46-2.15.1-1.24.17-2.62.36-3 1.38-2.62 2.19-4.31 2.3-8.35 0-1.23 1.5-.52 1.68-.3.75.94-.74 4.27-.63 6.5.92.4 2.77-.54 3.35-1.12 1.15-1.17 1.2-3.74.58-5.61a47.96 47.96 0 0 0-2.49-4.86c3.76-1.86 7.57 9.24 12.19 9.24-.34-.36-1.32-3.27-1.55-4.32-.24-1-.18-2.63-.24-4.2-.05-1.59-.22-3.17-.97-4.1-.93-1.17-1.44-1.58-2.31-2.34-1.68-1.46-3.3-2.11-5.6-2.57.23-1.64 3.58-1.11 4.73-.64a10 10 0 0 1 3.46 2.45c.3.3 1.22 1.58 1.34 1.58.36.26.47-.38.42-1.2-.05-.84-.28-1.85-.55-2.13-.7-.7-1.27-1.87-2.08-2.63-1.5-1.35-6.7-3.8-8.66-4.27l-.4-.11c1.9-1.3 4.85-1.81 7.74.64 2.31 1.98 6.6.41 7.1-1.64-4.03-.34-5.94-1.28-8.6-3.27-3-2.28-8.73-2.05-8.55-4.15l.29-.4c7.28.05 9.36.98 12.94 3.84 2.13 1.76 2.65 2.76 5.2-.17 1.04-1.23 1.73 3.69.11 5.62-.8.93-2.43 3.04-4.5 3.09.63.99 2.07 2.46 2.01 5.31l.01.26c.03 1.05.15 2.56-.81 4.01-.47.77-.12 3.16.11 5.44.23 2.75.92 3.5 2.09 4.67.8.76 2.02 1.35 2.71 1.53-1.09 2.33-3.81 2.86-6.41 2.04-1.22-.35-3-.87-3.92-1.87-.82-.83-1.51-1.94-2.32-2.81a7.19 7.19 0 0 1-7.45 7.07c-.44.23-.82 1.58-.94 2.88-.1 1.1-.04 2.15.3 2.5.64.58 1.86 2.27.7 3.27-2.25 1.99-8.1-4.04-8.26-6.96-.64.16-1.2.35-1.77.54-1.84 1.52-4.34 4.13-7.36 7.65-1.85 2.16-2.72 2.63-5.78 4.79-2.89 2.05-5.66 2.87-8.44 2.34-2.77-.52-5.02-2.8-4.68-6.6-.23-.11-3 2.69-3.7 3.86-1.66 2.8-3.05 8.94-.63 11.63.92.93 2.02 1.93 2.94 2.22 1.63.53 4.63.12 6.18-.18 3.13-.64 6.42-4.09 9.77-4.44.75-.05-4.45 4.74-5.2 5.15-2.49 1.16-5.2 2.57-10 2.27a42.17 42.17 0 0 0-7.91 7.83c-3.24 4.2-6.01 8.76-8.15 11.98-.51.77-1.03 1.63-1.56 2.51l-1.56 2.63a25.64 25.64 0 0 1-3.24 4.63c-.4.45-2.48 2.04-.97 2.1 2.3-.24 4.55-1.52 7.04-2.46 4.34-1.64 6.53-3.45 8.9-5.37 4.4-3.69 8.73-7.55 12.6-9.82.17 0 .17 1.34.06 1.63-.18.48-.35.64-.75 1a84.32 84.32 0 0 0-7.4 6.84c-3.24 3.44-6.12 6.07-10.4 7.88-1.8.35 5.49.94 6.47.82a58.76 58.76 0 0 0 8.78-2c2.9-1.22 6.36-4.14 6.83-4.55 1.96-1.57 8.6-12.5 10.56-11.45 0 4.68-5.83 6.6-7.16 17.41-.57 4.85-1.1 13.04-2.83 16.9-1.04 2.34-2.2 3.33.18 2.63 2.02-.6 8.95-7.37 10.45-9.18 3.18-3.92 3.18-11 8.26-15.78 1.74.87-1.96 7.83-2.42 8.94-1.1 2.75-.52.88-2.54 7.42-.46 1.63-1.97 1.98-.23 1.93.87 0 2.08-.41 2.83-.76 2.36-1.23 4.9-3.63 7-5.38a19.91 19.91 0 0 0 3.46-4.09c2.84-4.96 2.84-6.95 3.99-9.93.52-1.4.98-2.04.58-2.28-.58-.23-.76-.35-1.5-.59-6.7-1.98-10.06-11.62-13.4-15.3-.53-.65-5.67-5.03-3.47-5.03 2.36-.06 6.23 5.14 7.86 7.07 2.65 3.1 5.03 7.77 8.66 10.17 2.72 2.16 5.43 2.05 6.82 2.28 2.03.4 6.54-.41 8.32-1.75 2.83-2.1 1.5-1.81-.23-2.45-2.6-1.06-3.92-2.22-4.39-3.1a120.1 120.1 0 0 1-1.61-3.25c-1.89-3.91-2.07-5-3.24-9.55a16.6 16.6 0 0 0-1.97-4.62c-1.27-2.05-9.18-12.5-5.55-13.68.12.53.12 1.11.29 1.58.23.75.92 1.51 1.33 2.1a29.83 29.83 0 0 0 3.75 4.84c1.9 1.87 3.13 5.09 4.16 7.95.22.65 1.38 4.74 1.73 4.56 1.97-3.22 2.7-5.03 4.05-7.54 1.6-2.98 2.48-4.33 2.65-7.42.05-1-.06-2.46-.11-3.05-.35-3.5-1.16-5.02-1.56-6.37-.7-2.16-1.5-3.04-2.09-4.26-1.44-2.92-3.75-5.9-2.42-6.02-.06.41 2.48 1.69 3.12 2.63.86 1.22 2.02 2.45 2.65 3.68a27.36 27.36 0 0 1 2.6 9.35l.17 4.39c0 .18.28-.06.35-.17.51-.7 1.55-2.17 2.08-3.1 1.67-3.22 2.3-3.52 4.21-10.46.23-2.34.17-3.04-.12-4.15-.46-1.8-1.8-3.1-2.94-4.5-.93-1.16-4.92-7.36-2.02-7.19.11 1.59 3.98 5.67 6.87 7.54 1.96 1.23 9.42 2.22 12.6-.11-1.97.17-4.23-.7-5.38-1.3-.57-.29-2.71-2.5-3.11-3.21-1.33-1.52-2.94-8.82-3.93-10.81-.47-1-1.62-3.1-2.6-4.97-.58-.99-1.73-1.87-2.2-2.75-.17-.4-.12-.82.05-1 1.28.35 2.72 1.64 3.93 3.16a15.4 15.4 0 0 1 2.72 4.74c.58 1.63 2.26 5.37 2.9 8.12.1.11.33-.3.45-.4.8-1.74 1.31-4.13 1.51-6.66.35-4.27-.17-8.95-1.63-11.81-.06 0-.92-2.05-.97-2.16-.41-.88-.99-1.76-1.45-2.69-.63-1.24-2.6-3.16-2.37-3.97.35-1 .93-1.46 1.62-.42.45.7 1.27 1.46 1.73 2.16.99 1.34.75.65 3.06 1.12.98.17 6.18-1.29 8.1-4.22 1.96-2.97 3.7-8.64 1.32-14.02-1.21-2.63 1.51-5.72-3.75-4.55-1.4.36-2.37.7-3.42 1.11-1.38.53-2.7 1.28-3.58 2-1.74 1.52-3 3.15-4 4.02-1.09 1.06-1.9-.52-2.47-1.8-.52-1-2.2-2.58-1.79-2.88.29-.18.58-.3.92-.35.24 0 1.67 1.87 2.14 2.34a18.19 18.19 0 0 1 4.14-3.85c-.1-.09-.21-.16-.31-.23-8.77-11.59-45.6.02-45.6.02zm48.48 15.2c.35-3.28-.75-8.6 1.44-10.8a5.45 5.45 0 0 1 3-1.65c2.6-.58 3.07 5.79 1.44 5.84-.11 0-.34-2.44-.45-2.74-.58-1.24-1.8-.47-2.49.3-1.16 1.1-1.16 4.14-1.1 5.9 0 1.93.06 2.62.7 3.44 1.16 1.47 2.77-.4 3.35-1.28l.4.06c0 4.6-6.93 6.71-6.3.93zm-34.33-5.59c-1.68 9.32-13.99 8.45-13.91.4-.99.73-2.1 1.47-2.83 1.86-1.5.81-1.15-1.52-.75-1.75 1.2-.89 2.54-1.58 3.7-2.52a22.22 22.22 0 0 0 3.7-4.14c1.5-.3 3.23 1.75 4.9 2.4 1.62.52 3 1.05 5.2 1.46 1.05.18 2.37.35 4.8.12 2.36-.18 3.4-.3 4.55-.35 1.67 2.68-7.16 2.5-8.78 2.57-.14 0-.34-.03-.58-.05zm-27.37 14.06c0-.4.58-.76.93-.76.85 0 1.21.99.34 1.4-.52.23-1.27 0-1.27-.64zm-3.07-3.27c0-1.17 1.44-.7 1.79.06.35.7-.46.94-1.04.82-.46-.07-.75-.36-.75-.88zm-2.13 4.03c.23-1 2.54-.94 2.03.11-.42.77-2.26.88-2.03-.11zm72.9 62.53c-.21-.64-1.2-2.16-1.78-3.1a42.3 42.3 0 0 0-5.78-7.6l-3.51-3.62c-.27-.33-1.94-2.26-1.8-3.23l-1.56-.28a23.25 23.25 0 0 1-2.89 5.9c-1.16 1.88-4.74 6.6-5.09 7.3-1.5 2.93-2.95 5.86-4.27 8.84-1.16 2.45-1.33 2.63-3.35 4.37-.12 0 .23 1.35.52 1.81.15.28.3.6.48.91.5.99 1.07 2.08 1.54 2.83 1.22 1.8 4 2.8 6.64 2.51 1.1-.12 1.56.3.99 1.17-1.39 2.05-2.72 4.03-5.03 5.31-2.25 1.36-5.38 2-10.28 1.4-.52 1.63-1.15 4.72-1.72 6.24-.04 4.57.87 11.43 2.52 16.05 1.8 5.08 4.8 8.23 7.63 11.8-.35-5.32 3.46-14.33 4.62-18.93 1.04-4.27.63-8.13 1.62-12.33.99-4.15.74-5.26 2.2-4.56.22 2.45-.52 6.02-.52 9.46 0 7.08 2.37 6.72 3.29 8.36 2.54 4.56 12.71 10.3 17.44 9.77-2.31-.47-7.86-12.45-8.43-17.13-.29-2.75-1.33-6.19-1.85-9.4-.8-4.68-4.1-11.29-5.95-15.67-1.44-3.44-6.18-8.41-3.24-8.48 4.4 2.87 13.8 20.57 14.33 31.8.34-.2.7-.76 1.06-1.45.77-1.53 1.46-3.74 1.65-4.34.93-2.39 1.57-4.5 2.08-8.64.41-3.22.58-7.96.12-11.58-.23-1.75-1.04-3.85-1.67-5.5zM273.26 293c0-2.82 1.27-5.09 1.88-7.55-3.13-1.83-12.09-2.09-20.88-2.45-10.99-.46-20 3.4-30.51 3.33-3.87-.4-7.22-1.69-9.99-4.5a6.36 6.36 0 0 1-1.27-1.8 7.23 7.23 0 0 1-.7-3.4c0-.93.59-2.21 1.1-2.92a8.66 8.66 0 0 0-3.21.55c-1.03 1.03-1.23 2.68-1.23 4.19 0 .82.69 3.1 1.03 3.86.24.53 1.16 2.04-.18 2.04-1.87 0-2.95-5.87-3.1-8.27-2.35 1.68-4.23 4.12-4.18 6.92.07 1.81 1.74 5.97-.4 5.97-.92 0-2.71-.94-3.7-1.29-1.61-.65-3.8-.58-5.26-.58-3.46 0-8.66 2.22-11.6 3.74l-.39.2c3.64-.28 8.32.25 11.82.67 1.85.24 4.17.83 6.3 1.06 1.38.18 2.82 0 4.04.35.24.06-.34 1-.92 1-4.05-.13-7.68-.83-11.96-1.35-2.9-.34-8.65-.03-11.9 0-.72.53-1.42 1.08-2.03 1.58-.81.64-1.9 1.8-2.66 2.57-.23.17-1.67 1.81-2.6 2.8a55.72 55.72 0 0 1 18.9-.64c5.38.81 11.15 2.05 17.04 2.28 4.05.23 19.41-3.74 16.58-.76-.58.65-2.03.83-5.66 1.7-3.7.87-8.09.93-10.92 5.5-1.62 2.2-4.8 11.92-5.43 15.01-.4 2.17-.98 5.03-1.5 7.43-.86 3.68-2.37 4.91-4.16 6.53-.8.94-6.18 2.53-8.66 3.22-1.02.27-4.22.51-6.88.61-1.43.06-2.7.06-3.4.03-1.45-.06-2.15.18-5.95-.77 0 0-1.46-.7-2.15-1.63-.55-.8-.85-2.67-1.24-5.07a8.5 8.5 0 0 1-2.28.45c-.18 0-.35-.46-.35-.64 0-.35.53-.58.81-.64.35-.06.86-.53 1.1-.64.14-.06.28-.24.4-.44l-.18-.96c-.43-2.45-1.23-4.32-3.66-5.2-.16 1.7-.93 3.65-2.92 5.65a5.97 5.97 0 0 1-4.3 1.85c-2 0-4.02-.96-5.55-2.65a8.02 8.02 0 0 1-1.6-2.57c-1.04 1.16-1.83 2.92-1.83 4.14 2.96 2.5 5.07 3.17 8.81 4.08.4-.1.63-.3 1.07-.75.23-.25.7-1.17.86-1.17.35 0 .65 0 .8.29.07.11.18.59.07.81-.15.27-.48.87-.87 1.3.53.11 1.08.26 1.67.4 1.05.24 6.42 2.1 3.93 2.87-1.24.4-11.65-1.21-14.4-3.1l.14.89c0 .52.05 1.4-.58 1.51-1.22.3-1.5-1.87-1.68-2.69a6.15 6.15 0 0 0-.97-1.88c-2.9-1.78-6.36-3.1-9.4-1.33a7.99 7.99 0 0 1 4.76 3.28c.89 1.4 1.64 3.8.2 7.2-.8 2.06-2.86 3.31-5.48 3.31a8.96 8.96 0 0 1-4.2-1.09c.06 2.5 1.9 5.11 3.07 6.35 2.49 2.69 5.54 2.56 7.33 2.4 1.66-.22 1.88-1.55 3.26-2.25.2-.37.46-.83.56-1.2.12-.53.17-1.12.47-1.53.23-.3.4-.23.51-.23.52 0 .58 1.05.58 1.52-.06.23-.11.58-.11.87l-.01.17c.69-.02 1.49-.02 2.26-.05l3.87-.29c2.84-.24 7.16-2.92 10.75-3.21.92-.07 3.7-.41 3.18.59-.58 1.04-4.28 1.92-6.41 2.63-1.51.46-3.94 1.75-6.6 2.45-.96.27-1.96.44-2.91.6l.55.33c.12.12.87.83.87 1.12 0 .46-.75.35-1.04.29-.97-.3-1.66-1.15-2.73-1.43-.7.09-1.33.16-1.83.26-2.03.34-2.44.84-3.12 1.29-.11.15-.25.3-.41.46-1.15 1.21-2.78 3-2.78 4.97l.03.42a8.27 8.27 0 0 1 6.07-2.41c.52 0 1.06.03 1.6.11a5.73 5.73 0 0 1 4.84 3.94 7.85 7.85 0 0 1-1.65 7.78 8.3 8.3 0 0 1-2.93 2c.8.49 1.93.74 3.95.9 2.31.1 4.46-.3 6.24-3.34.54-.93 1.13-1.7 1.77-2.33.04-.56-.05-1.13-.09-1.64-.06-.41-.23-1.47-.17-1.7.12-.47.34-.93.87-.93.97 0 .63 1.93.75 2.57.04.06.08.3.1.52.62-.38 1.25-.7 1.92-.93 1.8-.68 3.84-.83 6.05-.79a6.65 6.65 0 0 1 1.7-2.6c2.54-.12-.12 2.74-.18 4.44-.04.62-.07 1.5.04 2.22.06.37.16.7.31.93.4.64 1.16 1.75 1.85 2.21l.02.02c.25-.71.63-1.44 1.31-2.12l.03-.02.04-.05.31-.3c.6-.56 1.33-1.28 2.61-1.63a9.43 9.43 0 0 1 2.12-.26c1.25 0 2.3.29 3.17.84a6.91 6.91 0 0 1 3.2 6.6 7.56 7.56 0 0 0 2.26-2.72 8.86 8.86 0 0 0 .63-5.85c-.28-1.1-.93-2.57.52-2.57.94.52 1.5 1.5 1.73 2.73l.38-.08c.85-.2 1.58-.38 2.25-.83a14.5 14.5 0 0 1-.66-1.87c1.68-2.17 2.6.52 2.82 1.05.58 1.4 1.45 2.28 2.31 3.68 2.31 3.62 4.74 4.97 6.94 6.84 2.54 2.1-.98-3.86-1.1-4.15-.58-1.17-1.03-2.57-1.5-3.68-.8-1.99-2.2-5.43-2.31-7.42-.06-.76.53-.82 1.27-.88 2.49 4.44 5.55 9.3 10.23 11.23 2.7 1.16 2.2.29 1.1-1.05-1.21-1.41-2.31-3.92-3.35-5.97-.58-1.17-3.4-7.66-2.9-7.94 2.32-1.46 3.94 6.36 5.73 6.72 2.2.46 3.5.44 4.56.39-.88-1.66-5.1-5.62-3.63-6.35.82-.37 5.45 4.8 7.52 6.2 1.05-.03 2.11-.03 3.17-.06 1.5 0 2.36 0 3.17-.24.09-.02.18-.05.27-.1-.54-.62-.93-1-1.53-1.71-1.16-1.29-2.14-2.98-3.13-4.39-.3-.4-1.03-1.11-.98-1.52.06-1.52 1.38-.05 1.62.18 1.24 1.21 5.22 5.65 7.26 6.5.87-.18 1.93-.37 3.3-.54 5.1-.7 1.8-1.4.13-2.8-3.6-3.5-4.17-9.23-3.36-12.45.98-3.86 2.08-10.76 2.9-13.9.68-2.88-.07-4.86.62-8.66 3.63.23 6.7.52 11.27-.07 10.43-1.36 21.63-2.78 30.68-7.2a179.38 179.38 0 0 1 2.97-12.16c-4.74-2.59-6.79-5.77-6.79-11.36zm-54.14 48.97c.23.99.64 2.4.64 3.74 0 3.74-4.28 4.85-7.16 3.9-.4-.04-1.63-.87-1.91-.98-1.57-.76-5.55 1.17-5.84.76-.58-.58 1.27-2.05 1.44-2.1a5.7 5.7 0 0 1 3.58-.93c1.74 0 2.6.11 3.48 1.06.75.75 3.52.29 4.04-.82.52-1.05-.58-3.8-.75-4.62-.58-2.56 2.08-4.5 2.77-2.75.24.6-.58 1-.58 1.17 0 .58.24 1.27.29 1.57zm-16.57 9.34c-.53-.1-.05-.99.05-1.22.12-.23 0-.58 0-.76 0-.87.12-2.04.93-1.86.75.17.23 2.8-.06 3.44-.18.4-.47.52-.92.4zm-2.03-1.04c-.17.52-.23 1.99-1.1 1.7-.51-.18-.39-1.12-.39-1.59s.86-1.69 1.33-1.93a5 5 0 0 1 .46.12c.22.16.22.34.18.57-.07.43-.36.77-.48 1.13zm-3.17 1.8c-.4.19-.87-.4-.99-.75-.35-1.18 1.45-1.8 1.5-.76.05.23-.17.53-.22.7 0 .24-.13.7-.29.82zm-3.24.77c-.35.35-.87.59-1.1.59-.17-.07-.35-.47-.23-.76.17-.3.75-.76.97-.94.36-.24 1.4-.24 1.4.12 0 .35-.4.64-1.04.99zm20.8-209.5c-1.16-2.06-2.84-3.87-4.4-5.73-5.14-6.03-11.37-11.17-16.69-16.67-1.67-1.17-13.06-12.86-14.85-15.07-3.47-4.27-7.91-9.53-8.2-14.73a7.54 7.54 0 0 1 1.41-4.54c-.55-.06-1.02-.23-1.3-.54-1.03-1.15 1.64-.87 2.86-1.68.38-.53.73-1.05.96-1.56.75-2.26.7-6.1-.77-7.47a6.82 6.82 0 0 1-2.02 1.52 5.26 5.26 0 0 1-5.1-.26c-2.11-1.2-3.43-3-3.68-5.09a6.85 6.85 0 0 1 1.2-4.6c-2.15-1.65-4-.81-5.75.9-.25.26-.5.52-.74.8.07.44.13.9.16 1.37.19 2.15.87 4.71 1.83 7.25.31.24.65.42 1 .47.7.17 1.97-.06 1.57 1.05-.2.44-.91.6-1.71.58a32.73 32.73 0 0 0 4.6 7.77c.17.23.86 1.06 1.15 1.75.3.77.3 1.46-.92 1.41-1.62-.11-3.58-3.22-5.72-6.6-2.08-3.4-3.75-7.36-3.98-9.24l-.37-2.83-.39.5c-.23.29-1.61 2.16-2.66 1.04-.4-.4 1.16-1.46 1.34-1.86.2-.41.96-1.25 1.42-1.77-.72-4.34-2.08-8.07-6.9-9.28.41 1.22.53 2.4.29 3.5-.32 1.53-1.41 3.65-4.8 5.06-.7.3-1.48.45-2.29.45a7.6 7.6 0 0 1-6.75-4.68c-1.33 1.15-2.59 2.78-2.87 4.6-.17 1.06-.12 2.75-.17 3.93 0 .48.25 2.31.5 3.3 3.24-.27 6.64.67 9.26 3.23.27-.3.56-.63.87-.86.41-.3.76-.53 1.23-.41.4.06.8.29.92.58.11.35-.53.87-.65.94a2.7 2.7 0 0 0-.92.64c-.1.15-.17.33-.24.48 2.42 3.14 1.68 3.11 8.86 8.99 1.27 1.06 3.58 2.33 5.54 3.68 2.03 1.34 3.82 2.51 4.05 2.92.28 1.7-.4 1.52-1.45 1.29-1.1-.24-2.54-1.4-3.81-2.05-1.85-1-7.63-4.44-8.67-5.33a34.38 34.38 0 0 1-4.38-4.46c.03.94.3 1.95-1 1.83-.98-.05-1.38-2.98-1.61-3.56-.4-.92-.67-1.59-.84-2.05-.62-.6-1.26-1.19-1.94-1.7-2.88-2.19-7.89-1.45-10.51.34.4.15.8.32 1.2.52 2.74 1.47 4.4 3.14 4.33 7.02-.22 4.3-3.39 5.51-4.42 5.91-1.11.41-2.1.62-3.06.62-.76 0-1.44-.12-2.06-.34.1 1.13.35 2.26.49 2.64 2.14 4.8 6.58 6.43 11.56 5.78 3.93-.52 2.25-4.6 4.73-3.5.81.34.66 1.3.07 2.37 1.17 2.96 4.76 5.56 7.24 7.05 1.02-.05 1.83.33 3.04.8 0 1.88-1.73.94-3.12 1.47-1.32.52-1.21.46-2.37 1.64-1.5 1.57-2.08 2.22-2.53 3.62-.1.36-.35.92-.28 2.53l.3-.1a8.18 8.18 0 0 1 3.75-.14c.95.17 2.78.5 3.89 2l.03.02.02.04.1.14c.56.82 1.33 1.94 1.16 3.68-.2 2.87-1.24 5.06-2.95 6.42.74.38 1.53.53 2.21.4.17-.03.33-.08.47-.15a12.04 12.04 0 0 0 5.44-5.44 3.06 3.06 0 0 1-.17-.7c-.28-1.16.52-2.45 1.27-1.74 1.33 1.23 2.15 3.1 3.82 5.14 2.54 3.1 4.45 3.92 4.1 8.83a7.47 7.47 0 0 1-1.9 4.15c-1.57 1.75-4.56 1-4.5 1 .22 1.16.57 1.46 1.26 2.21a9.49 9.49 0 0 0 3.88 2.45c1.55.65 3.64.48 5.25.48 1.74-.06 3.41-1.94 4.8-1.29-.41 1.52-1.91 2.05-3.47 2.57-1.8.53-1.5.3-3.23 1.22-4.11 2.22-5.44 5.73-5.96 9.47.58-.7 1.5-.99 1.97-1.17.64-.23 1.2-.29 1.96-.29 1.16 0 2.43 0 3.53-.11 2.07-.3 5.03-2.05 6.81-3.1.87-.59 4.11-1.7 4.11-.12-1.38.23-2.14.93-3 1.69-1.8 1.64-1.56 1.28-2.38 1.8l-2.01 1.18c-.93.52-2.08.88-3.18 1.22.58 2.16 4.22 2.11 9.19 1.75 3-.23 5.89-1.58 6.29-.58-2.37 2.34-8.49 3.45-10.69 3.63.17.29.98 1.29 1.33 1.57.46.41 1.1.88 1.85 1.18 1.67.58 2.7.58 4.56.58 3.3-.06 8.66-1.46 8.38.4-4.74.42-6.77.71-8.09 4.39-1.04 2.91-1.26 5.2-1.16 8.53 1.91-2.1 5.9-2.8 11.61-4.38 1.97-.58 5.95-1.99 7.86-.88-3.7 2.05-5.48 2.86-8.37 7.31-1.5 2.28-1.85 5.61-1.57 8.83.03.36.08.72.15 1.05.19 1 .51 1.94.8 2.85a33.12 33.12 0 0 0 5.58-4.13c1.62-1.53 4.23-5.68 5.25-7.54.7-1.41 2.6-4.5 3.47-6.02 1.1-1.81 2.5-4.1 3.76-5.73 2.36-3.04 6.63-7.77 9.53-10.52-3.19-1.1-4.85-7.03-3.47-12.7-.8-1.25-2-2.6-2.25-2.9-.98-1.16-1.96-1.93-2.71-2.92-1.9-2.4-3.59-3.86-5.15-5.67-3.4-4.03-9.76-8.83-8.96-10.93 1.23-.7 7.64 7 9.83 9.06 3.59 3.26 6.98 7.74 10.07 10.86l.12-.3c-.3-1.5-.62-2.9-1.39-4.24zm-9.07 25c-.23-.12-.7-.65-1.32-.58-.93.11-2.2.58-2.67.64-4.16.24-5.83-3.86-5.48-6.78.17-1.63.8-2.51.75-3.68-.05-.64-.87-.7-1.03-1.63-.41-1.82 2.37-1.17 3 .11.52.94-.17 3.75-.35 4.33-1.15 3.5 1.62 6.31 4.92 4.86 1.61-.7 4.15.58 3.93 2.03-.25 1.4-1.06 1.28-1.75.7zm-10.4-15.01c-.06.29.23 1.34-.76 1.28-.92-.06-.92-1.64-.05-2.51.23-.3.69-.47 1.2-.53.35 0 .53.76.29.88-.22.11-.62.64-.69.88zm-2.6-1.76c-.7.53-1.04-.36-1.16-.88-.11-.41-.11-.94.12-1.22.35-.35 1.1-.53 1.44-.3.23.12.47.47.23.64-.51.41-.05 1.29-.63 1.76zm-3.59-2.98c-.29-.06-.34-.3-.4-.58-.1-.35-.05-.7.24-.94.63-.7 1.5-.53 1.39.46-.07.53-.58 1.29-1.22 1.06zm-2.25-3.04c-.4-.11-.29-.4-.12-.64.12-.18.76-.58 1.1-.7.41-.17.7-.23.75.3.07.23-.17.4-.34.57-.35.35-.86.64-1.4.47zm196.4 149.78c.06-2.23-.53-8.69-1.27-14.98-.95-8.12-2.12-15.97-2.4-14.12-1.78 9.72-3.41 7.65-5.71 7.85-6.35.45-.41 1.2-6.8 1.2-2.03 0-6.73-1.3-9.74-1.77-1.76-.36-4.66.53-4.66 1.08 11.39 6.15 14.51 12.65 15.33 20 .36 3.24 5.72 1.75 15.25.74z" fill="#FC0"/><path d="M173.7 59.07c-.3 1.12-.81 1.7-1.79 3.45-.98 1.75-3.12 2.92-4.73 4.55-2.31 2.17-2.78 5.56.75 7.55 6.12 3.5 9.92-12.86 5.77-15.55zM132.22 53c1.21 1.52 4.1 5.56 4.4 9.88.1 2.34 3.51 4.97 6.23 3.8 5.48-2.28 3.7-6.55.35-10.06-1.62-1.75-5.15-3.62-7.63-3.8a9.88 9.88 0 0 0-3.35.18zm-17.28 34.13a13.3 13.3 0 0 1 3.75-3.16c2.49-1.29 5.2-2.05 8.33-.47 2.19 1.17 3.1 2.16 3.06 4.92-.11 2.22-1.27 3.15-2.94 3.8-2.95 1.1-4.22.06-6.59-1.3-.7-.34-5.44-3.62-5.6-3.79zm18.31 40.1c.47.34 3.93 2.5 7.57 3.03 3.64.58 7.4-.11 7.8-5.72.11-1-.34-1.58-.87-2.34-.52-.7-1.5-.93-2.48-1.1a6.19 6.19 0 0 0-2.77.1 3.4 3.4 0 0 0-2.08 1.35 10.55 10.55 0 0 1-3.99 3.4c-1.5.8-2.89 1.21-3.18 1.27zm-15.02 80.88c.58.75.75.35 2.43 3.56.92 1.7 1.39 3.57 2.83 5.38 1.97 2.45 6.82 3.4 7.8-.53 2.66-10.16-11.44-8.82-13.06-8.41zm50.22 53.82c1.67-.47 3.92-.29 6.06-3.69 1.91-3.1 2.89-7.76-1.5-9.81a3.82 3.82 0 0 0-2.88-.12c-.81.23-1.22.94-1.8 1.76-.58.75-.69 1.63-.63 2.57 0 .93.05 1.58.4 2.51.53 1.58.47 3.4.47 5.08-.02 1.87-.02.88-.12 1.7zm-40.68 9.75c.22-.87.46-1.22 2.42-4.2 1.1-1.59 3.18-2.7 4.05-4.8 1.1-2.98-.87-7.53-4.57-6.49-9.54 2.63-2.94 14.39-1.9 15.5zm-26.46-23.72c1.73-1.17 6.3-2.51 10.57-2.16 2.72.17 6.48-2.1 5.95-5.03-.92-5.67-5.77-6.55-9.93-4.15-2.14 1.17-5.26 5.08-6.07 7.48a15.2 15.2 0 0 0-.52 3.86zm48.88 66.33c.75 3.8.52 2.22.63 4.44.06 1.64.12 2.52-.17 6.08-.29 3.45 4.8 7.54 7.97 4.33 7.63-7.72-5.96-14.39-8.44-14.85zm-26.88 25.3c3.35.24 5.26.82 8.95 3.51 2.03 1.52 6.01 1.76 7-.76 2.02-4.8-1.22-7.54-5.78-7.7-2.25-.07-6.7 1.45-8.55 2.9a8.85 8.85 0 0 0-1.62 2.06zm17.05 35.36c.92-.7 1.22-.8 4.22-2.33 1.73-.88 4.1-1.12 5.65-2.81 2.2-2.28 1.97-7.37-1.85-7.83-9.8-1.29-8.19 11.8-8.02 12.97zm34.55 9.82a9.68 9.68 0 0 0 6.88-3.62c2.42-2.8 4.62-7 .63-9.75-.98-.65-2.49-.53-3.46-.3-.87.24-1.28.76-1.97 1.4-.7.7-.93 1.53-1.04 2.46a7.73 7.73 0 0 0 0 2.57c.3 1.64-.06 3.45-.35 5.08-.34 1.81-.29 1.11-.69 2.16zm74.01 32.5c3.47-.52 2.95-.3 4.97-.06 1.8.18 2.13 1.4 5.6 1.99 3.3.63 8.27-5.1 4.9-7.72-5.88-4.61-14.72 1.98-15.47 5.8zm12.26 35.53c1.5-3.04 3.4-4.68 6.98-7.3 2.77-2.05 3.24-4.5 1.67-6.78-2.77-4.09-7.38-1.87-9.53 2.45-1.03 2.1-1.26 6.84-.63 9.11.18.54.87 1.59 1.5 2.52zm33.1-1.63c.34-1.24 1.09-1.93 2.77-4.5 1.1-1.7 2.88-2.8 3.06-5.15.22-3.15-4.1-6.6-7.06-4.85-7.21 4.38.41 13.44 1.23 14.5zm32-28.41c1.33-1.7 1.91-2.4 2.14-6.32.17-3.73-1.61-7.95-6.47-7.59-1.1.11-2.32 1.17-2.95 1.99-.52.7-.46 1.34-.57 2.34-.13.93.22 1.75.69 2.51.46.82 1.38.82 2.2 1.22 1.44.7 1.79 1.12 2.88 2.93.58 1 1.4 1.86 2.08 2.92z" fill="#FFF"/><path d="M254.06 116.53c-.47 1.23-1.05 2.03-2.77 2.03-.43 0-.9 0-1.4-.04-.46-.43-1.13-1.06-1.83-1.54-1.79-1.22-1.1-.35-3.7-3.1-.25-.26-.52-.49-.79-.7 1.13.07 2.23.22 3.33.35.97.1 6 1.7 7.16 3zm-14.95-3.24c-11.38 1.05-22.08 1.29-26.88-6.13-1.55-2.45-1.67-3.69-1.79-6.96-.46.36-2.88 2.34-3.28 4.73-.29 1.88-.53 3.74.34 5.97.75 2 1.1 2.34 1.91 3.27 1.5 1.81 4.33 3.44 6.7 4.15 4.45 1.34 8.5 1.17 12.48.87 3.73-.32 7.31-.88 10.97-1.33.06-1.6.17-3.38.31-4.67l-.76.1z" fill="#BE1E2C"/><path d="M244.36 116.69l-1.62-1.64c-.11-.17-.58-.82-.86-.64-.34.13-.24 2.42-.16 3.84 1.16-.2 2.52-.19 3.9-.09-.49-.53-.9-1.1-1.26-1.47zm-8.06-12.2l-.03.63c-.03.55.06 1.06.53 1.56.58.53 1.39 1.58 2.14 2.16.75.65.93.05.95-.75.02-.5-.02-1.1-.02-1.52.04-.89.3-2.56.59-3.8-1.42.6-2.8 1.25-4.16 1.73zM259.94 84.32c-2.38-.52-5.67-1.66-7.2-3.34l-.47-.53s-1.5 2-2.73 3.2c-.05.64-.07 1.27.02 1.89.11.82.46 1.52.99 1.99a6.9 6.9 0 0 0 3.06 1.34c1.16.24 1.8.18 2.72-.06 1.38-.3 2.19-.7 2.95-1.52.52-.59.8-1.49.66-2.97zm-1.54.7l.11.4c0 1.05-3.06 2.11-4.1 2.11-2.2 0-3.64-2.52-2.37-4.32.98-1.34 3.19.05 2.55 1-.29.35-.35.46-.29 1.1.11 1.57 4.21.06 4.1-.3z" fill="#F5F5F5"/></g></svg>