<svg xmlns="http://www.w3.org/2000/svg" height="512" width="512"><defs><clipPath id="a"><rect height="175" width="175" y="337" x="60.84" fill="#808080"/></clipPath></defs><g clip-path="url(#a)" fill-rule="evenodd" transform="matrix(2.926 0 0 2.926 -178 -985.97)"><path d="M0 337l146.56 87.5-146.56 87.5z" fill="#00cf00"/><path d="M293.12 337l-146.56 87.5 146.56 87.5z" fill="#00cf00"/><path d="M0 337l146.56 87.5 146.56-87.5z" fill="#f00"/><path d="M0 512l146.56-87.5 146.56 87.5z" fill="#f00"/><path d="M293.12 337h-27.31l-265.81 158.7v16.305h27.31l265.81-158.7z" fill="#fff"/><path d="M197.168 424.496c0 27.948-22.656 50.604-50.604 50.604s-50.604-22.656-50.604-50.604 22.656-50.604 50.604-50.604 50.604 22.656 50.604 50.604z" fill="#fff"/><path d="M0 337v16.305l265.81 158.7h27.31v-16.305l-265.81-158.7z" fill="#fff"/><polygon transform="translate(22.243 299.54)" stroke="#00de00" points="134.28 105.87 127.7 105.98 124.3 111.6 120.91 105.97 114.34 105.83 117.52 100.08 114.36 94.312 120.93 94.199 124.34 88.574 127.73 94.212 134.3 94.352 131.11 100.1" stroke-width="1pt" fill="#f00"/><polygon transform="translate(.199 337.7)" stroke="#00de00" points="134.28 105.87 127.7 105.98 124.3 111.6 120.91 105.97 114.34 105.83 117.52 100.08 114.36 94.312 120.93 94.199 124.34 88.574 127.73 94.212 134.3 94.352 131.11 100.1" stroke-width="1pt" fill="#f00"/><polygon transform="translate(44.827 337.7)" stroke="#00de00" points="134.28 105.87 127.7 105.98 124.3 111.6 120.91 105.97 114.34 105.83 117.52 100.08 114.36 94.312 120.93 94.199 124.34 88.574 127.73 94.212 134.3 94.352 131.11 100.1" stroke-width="1pt" fill="#f00"/></g></svg>