<svg xmlns="http://www.w3.org/2000/svg" id="flag-icon-css-bi" width="512" height="512">
  <defs>
    <clipPath id="a">
      <path fill="gray" d="M60.84 337h175v175h-175z"/>
    </clipPath>
  </defs>
  <g fill-rule="evenodd" clip-path="url(#a)" transform="translate(-178 -985.97) scale(2.9257)">
    <path fill="#00cf00" d="M0 337l146.56 87.5L0 512zm293.12 0l-146.56 87.5L293.12 512z"/>
    <path fill="red" d="M0 337l146.56 87.5L293.12 337zm0 175l146.56-87.5L293.12 512z"/>
    <path fill="#fff" d="M293.12 337h-27.31L0 495.7V512h27.31l265.81-158.7z"/>
    <path fill="#fff" d="M197.17 424.5a50.6 50.6 0 1 1-101.21 0 50.6 50.6 0 0 1 101.2 0z"/>
    <path fill="#fff" d="M0 337v16.3L265.81 512h27.31v-16.3L27.31 337z"/>
    <path fill="red" stroke="#00de00" stroke-width="1pt" d="M156.52 405.41l-6.58.11-3.4 5.62-3.39-5.63-6.57-.14 3.18-5.75-3.16-5.77 6.57-.11 3.41-5.63 3.4 5.64 6.56.14-3.19 5.75zm-22.04 38.16l-6.58.11-3.4 5.62-3.39-5.63-6.57-.14 3.18-5.75-3.16-5.77 6.57-.11 3.41-5.63 3.39 5.64 6.57.14-3.19 5.75zm44.63 0l-6.58.11-3.4 5.62-3.4-5.63-6.56-.14 3.18-5.75-3.16-5.77 6.57-.11 3.4-5.63 3.4 5.64 6.57.14-3.2 5.75z"/>
  </g>
</svg>
