<svg xmlns="http://www.w3.org/2000/svg" height="512" width="512" version="1"><g><rect height="512" width="512" fill="#c00"/><rect height="256" width="512" fill="#006"/><g><path fill="#fff" d="M0 0v28.622l454.757 227.378h57.241v-28.621l-454.757-227.378h-57.241zm511.998 0v28.621l-454.757 227.378h-57.241v-28.621l454.757-227.378h57.241z"/><path fill="#fff" d="M213.333 0v255.999h85.333v-255.999h-85.333zm-213.333 85.333v85.333h511.998v-85.333h-511.998z"/><path fill="#c00" d="M0 102.4v51.2h511.998v-51.2h-511.998zm230.399-102.4v255.999h51.2v-255.999h-51.2z"/><path fill="#c00" d="M0 255.999l170.666-85.333h38.161l-170.666 85.333h-38.161zm0-255.999l170.666 85.333h-38.161l-132.505-66.252v-19.081zm303.171 85.333l170.666-85.333h38.161l-170.666 85.333h-38.161zm208.827 170.666l-170.666-85.333h38.161l132.505 66.253v19.08z"/></g><g transform="matrix(.169 0 0 .138 986.16 438.1)"><path d="M-3655.7 400.08c17.72 2.98 674.45-205.79 673.23-531.49v-1594.5h-1346.5v1594.5c-1.22 325.7 673.23 531.49 673.23 531.49z" fill-rule="evenodd" fill="#fff"/><path d="M-903.54 822.05c1.22 325.7-655.51 534.47-673.23 531.49 0 0-674.45-205.79-673.23-531.49 7.16-10.536 9.96-14.595 10.43-27.844 2.29-6.875 1.64-15.152 1.64-23.02v-23.021c-1.73-5.202-1.64-13.795-1.64-21.376-.22-5.804-1.64-15.454-1.64-16.443 1.28 9.471 3.02 14.092 6.57 1.644 2.51-6.278 3.92-11.441 6.58-19.732.29-8.094 1.64-14.587 1.64-23.02 0-7.972.38-15.559 1.65-21.377 2.53-2.073 4.74-5.722 8.22-3.288-.31 8.369-2.27 12.789-3.29 21.376v46.041c.16 5.439.91 9.983 3.29 13.155.29-8.095 1.64-14.587 1.64-23.021 1.9-5.689 3.07-13.139 6.58-18.088 1.99-7.394 5.22-13.502 8.22-21.376 2.51-7.807 5.04-13.192 6.58-19.732 3.63-4.077 7.64-11.014 11.51-14.799 8.45-5.43 5.95 2.76 3.29 9.866v23.021c5.8 1.657 2.09-2.335 6.58-6.577 1.58-6.083 5.31-14.346 8.22-19.732 2.92-4.739 6.7-9.218 9.86-14.799 3.42-2.102 12.53-8.07 13.16-8.222-3.65 3.824-6.79 9.365-9.87 14.799-1.26 5.818-1.64 13.405-1.64 21.376.6 15.793 3.82 3.08 6.58-3.288 3.35-2.744 1.82-4.597 8.22-4.933 9.69-6.53 6.58.646 4.93 8.221-1.31 7.351-1.64 14.841-1.64 23.021 0 8.924 1.54 12.746 1.64 21.376 0 7.582-.09 16.175 1.65 21.376 1.17 8.881 3.58 12.586 6.57 19.732 2.51 7.252 5.42 11.873 8.22 18.088 6.44 7.893 3.29.717 3.29-8.222v-46.041c3.02-5.157 3.89-11.445 8.22-16.443 1.65-6.019 4.65-10.675 8.23-14.799 2.45-3.909 6.16-8.807 8.22-13.155v23.021c0 8.179.33 15.67 1.64 23.02 2.26 7.619 3.93 12.286 4.94 19.732 4.29 2.78 5.91 6.903 9.86 9.866 1.99-7.598 3.29-14.388 3.29-23.02v-23.021c1.37-7.684 2.92-14.073 4.93-19.732 2.22-6.977 3.68 1.805 4.94 4.933 2.84 6.012 5.79 9.158 9.86 16.443 4.83 3.451 6.08 8.786 9.87 13.155.87 4.034 1.29 13.115 3.29 16.443 1.77-8.002 4.74-12.822 6.57-21.376 4.93-4.831 7.83-8.229 13.16-11.51 8.36-1.611 12.2-3.916 19.73-4.933 10.41 0 8.54 1.064 1.64 6.577-2.61 4.246-6.36 10.867-9.86 14.799-1.02 7.514-2.97 11.212-3.29 19.732.6 8.429 3.02 15.088 4.93 21.376 4.12-4.611 8.7-14.515 11.51-19.732 4.41-5.036 6.44-12.481 9.87-16.443 3.54-4.289 8.13-7 14.8-8.222 4.08-3.065 8.89-3.288 16.44-3.288 15.09 4.827 31.93 3.435 47.69 4.933 12.19 0 19.9-2.238 31.24-4.933 12.34-2.539 25.39-2.794 37.82-4.933 12.52 0 26.39-1.114 37.82 1.644h32.88c11.89 0 23.53-.245 34.53-1.644 13.27 0 26.77.605 39.47-1.645 14.64 0 28.33-1.158 42.75-1.644 19.75 0 38.05-2.356 57.55-3.288 14.92-.634 26.89-5.416 41.11-8.222 9.53-2.169 20.71-1.644 31.24-1.644 12.48 0 22.46 2.218 34.53 3.288 10.27 0 19.68.851 29.6 1.645h101.94999999999999c12.08 0 23.18.743 34.53 1.644 10.31 0 19.66.83 29.6 1.644h26.31c7.22.86 16.21 1.021 23.02 3.289 9.55 0 17.27 1.321 26.31 1.644 8.51.516 15.72 1.644 24.66 1.644 8.26.295 15.31 1.911 23.02 3.289 6.98.943 12.59 2.733 18.09 4.933 4.64 2.197 12.24 5.279 16.44 8.222 9.13 0 13.09-1.725 19.74-3.289 4.58-3.537 9.64-3.654 9.86-6.577-5.07 4.519-9.44 5.577-11.51 13.154-1.03 2.565-4.34 12.035 0 9.866 6.04-3.525 10.35-7.542 13.16-13.154 4.7-6.623 6.86-10.678 11.51-16.444 3.44-6.616 9.21-10.764 13.15-14.798 4.6-6.759 7.28-10.169 3.29 1.644-1.41 7.913-2.72 14.015-3.29 21.376-.94 6.975-2.73 12.587-4.93 18.088 0 5.08-.42 10.399 1.64 13.154 7.59-2.167 15-6.207 19.73-9.866 6.51-1.774 11.97-5.252 18.09-9.866 8.1-2.025 13.33-2.289 14.8-4.933-4.43 4.523-8.65 8.448-13.15 11.511-2.19 4.612-5.98 7.345-4.94 11.51 5.11-1.111 14.94-1.69 19.73-3.289 7.71-2.667 11.16-4.304 19.74-6.577 14.765.192 2.498 2.24-4.94 6.577-4.46 3.036-9.07 7.542-14.8 11.511-3.67 6.82-6.16 12.168-9.86 16.443-1.93 7.157-4.59 12.247-8.22 16.443-1.46 6.188-3.54 11.659-4.94 18.088-1.42 10.552-5.32 13.111 6.58 8.221 5.1-5.562 10.03-10.196 13.16-14.799 3.03-4.728 7.17-10.545 11.51-14.799 2.26-6.386 5.81-8.91 9.86-16.443 3.661-3.837 8.797-9.617 13.157-14.799 3.764-3.59 8.946-7.383 14.798-9.866 9.013-3.004 7.87-8.779 4.933 1.645-3.466 4.196-5.575 9.794-6.577 16.443-3.571 14.821.355 9.164 6.577 4.933 5.341-4.412 3.347-7.48 11.511-9.866 1.801-1.517 10.546-6.293 8.221-1.644-1.116 7.408-3.903 10.798-6.577 16.443-3.615 6.524-6.483 11.714-8.222 18.087-2.909 3.88-5.027 8.337 0 6.578 8.471-1.883 11.08-4.921 16.444-8.222 3.201-7.303 6.352-9.631 9.866-14.799-2.013 8.052-4.9 13.579-6.578 19.732-3.786 4.369-5.751 9.307-8.221 16.443-3.603 7.016-4.821 10.371-4.933 19.732-2.215 7.477-5.063 12.895-1.645 19.732 5.209-5.417 9.865-8.835 13.155-16.443 3.386-4.099 5.154-10.395 6.577-16.443 1.567-6.658 3.942-10.753 4.933-18.088 2.292-6.875 1.645-15.153 1.645-23.021v-23.02c-.094-7.859-2.588-14.365 0-19.732 5.006 5.109 6.258 9.691 9.866 16.443 2.11 8.442 5.844 13.214 6.577 21.376 3.342 4.915 3.839 10.934 6.577 18.088.577 8.072 2.097 15.085 0 21.376-.496 5.291-3.066 9.066 0 13.155 5.308-4.385 5.538-10.919 6.577 3.289 0 7.198.252 14.07.836 21.266z" fill-rule="evenodd" fill-opacity=".996" transform="translate(-2078.9 -953.42)" stroke="#002b00" stroke-width="11.125" fill="#007a0f"/><path d="M-2178.7 685.68c-.62 4.245-1.64 17.061-1.64 26.309 0 8.38.75 14.816 1.64 21.376.55 5.919 1.88 6.805 0 11.51" transform="translate(-2078.9 -953.42)" stroke="#002b00" stroke-width="11.125" fill="none"/><path d="M-2154.1 672.52c.63 4.245 1.65 17.062 1.65 26.309 0 8.736-1.08 14.023-1.65 21.377-.29 8.079-1.64 12.433-1.64 21.376v6.577" transform="translate(-2078.9 -953.42)" stroke="#002b00" stroke-width="11.125" fill="none"/><path d="M-2172.2 759.67c1.55 0 .93 4.205 1.64 9.866.95 6.998 2.51 12.974 4.93 18.088.35 9.411 2.15 11.425 8.23 14.799 5.87 5.788 8.03 9.685 11.51 14.799 4.19.741 4.91 1.85 6.57 4.933" transform="translate(-2078.9 -953.42)" stroke="#002b00" stroke-width="11.125" fill="none"/><path d="M-2229.7 809h1.64c8.48 1.413 20.16 1.238 26.31 3.289 6.33 1.469 13.95 4.538 18.09 8.221 6.65 7.382 9.26 12.74 18.08 16.444 7.4 4.315 14.86 5.888 23.03 8.221 7.59 3.202 12.6 5.624 18.08 8.222 7.81 3.994 14.04 8.476 23.02 9.866h23.02c7.7 0 12.64.26 16.45-3.289l-16.45 3.289c7.7 0 12.64.26 16.45-3.289" transform="translate(-2078.9 -953.42)" stroke="#002b00" stroke-width="11.125" fill="none"/><path d="M-2200.1 927.39h52.620000000000005c3.39 7.075 6.48 9.284 13.16 11.51 5.33 3.905 12.28 6.004 19.73 6.577h3.29" transform="translate(-2078.9 -953.42)" stroke="#002b00" stroke-width="11.125" fill="none"/><path d="M-2185.3 955.35c4.47-.919 17.27-4.287 26.31-4.933 9.62 0 14.8 2.073 19.73 6.577 5.04 3.425 7.99 6.602 14.8 9.866 7.27 2.511 14.62 3.289 23.02 3.289.78 2.319.48 1.644 3.29 1.644" transform="translate(-2078.9 -953.42)" stroke="#002b00" stroke-width="11.125" fill="none"/><path d="M-2163.9 988.23h29.6c5.9 2.794 10.77 3.151 13.15 9.865 6.82 5.741 9.83 9.501 19.73 9.871 3.81 1.97 11.83 1.64 18.09 1.64" transform="translate(-2078.9 -953.42)" stroke="#002b00" stroke-width="11.125" fill="none"/><path d="M-2085 1045.8h29.59c9.66.98 16.51.28 21.38 6.58 5.42 7.8 9.97 6.08 16.44 9.87 5.7 0 9.45 1.18 14.8 1.64" transform="translate(-2078.9 -953.42)" stroke="#002b00" stroke-width="11.125" fill="none"/><path d="M-2014.3 1091.8c4.25.62 17.06 1.64 26.31 1.64 9.08 1.23 9.76 3.39 14.8 9.87 2.74 9.6 7.48 8.92 18.09 9.86 7.2 0 12.97-.53 18.09-1.64" transform="translate(-2078.9 -953.42)" stroke="#002b00" stroke-width="11.125" fill="none"/><path d="M-2149.1 762.96l1.64 1.644c-3.73-3.731-1.93-2.363 1.65 6.578.62 8.063 2.05 12.855 4.93 19.732 3.91 5.609 7.18 10.979 9.87 16.443 2.92 6.68 6.81 11.845 11.51 16.443.69 2.087 1.2 2.593 3.28 3.289" transform="translate(-2078.9 -953.42)" stroke="#002b00" stroke-width="11.125" fill="none"/><path d="M-2114.6 769.54c.84 0 5.23 5.086 8.22 9.866 5.7 4.074 10.23 9.203 14.8 14.799 5.13 3.386 11.11 7.55 18.09 11.51 7.98 2.764 10.74 5.003 18.08 8.222 3.87 3.348 10.82 5.812 16.45 8.222 2.42 0 1.25-.388 3.29 1.644" transform="translate(-2078.9 -953.42)" stroke="#002b00" stroke-width="11.125" fill="none"/><path d="M-2076.8 753.1c-1.8 0 0 4.239 0 9.866 2.75 6.088 7.01 12.119 11.51 18.088 5.21 3.442 10.49 10.505 14.8 16.443 2.65 4.223 5.7 7.31 11.51 9.866" transform="translate(-2078.9 -953.42)" stroke="#002b00" stroke-width="11.125" fill="none"/><path d="M-2037.3 739.94c.06 5.876 1.62 16.938 3.29 26.31 2.86 6.823 4.98 11.276 6.58 18.087 1.03 6.853 3.62 12.832 8.22 18.088 3.77 4.78 10.23 9.499 16.44 11.51 6.35 2.719 10.81 4.826 19.73 4.933 6.56-.886 13-1.644 21.38-1.644h13.16" transform="translate(-2078.9 -953.42)" stroke="#002b00" stroke-width="11.125" fill="none"/><path d="M-1999.5 753.1c.14 5.279-1.4 10.768 4.93 14.799 2.13 6.659 6.84 14.364 11.51 21.376 4.17 5.286 9.96 9.137 18.09 9.866 5.77 1.339 14.5 2.639 21.38 4.933 6.24 4.06 12.78 10.903 21.37 13.155l-21.37-13.155c6.24 4.06 12.78 10.903 21.37 13.155" transform="translate(-2078.9 -953.42)" stroke="#002b00" stroke-width="11.125" fill="none"/><path d="M-1984.7 753.1c4.35 5.551 16.15 17.799 24.67 26.309 5.88 4.862 11.94 8.736 18.08 11.511 7.52 1.163 15.81 4.454 21.38 6.577 3.59 1.537 4.61 3.012 9.86 3.289" transform="translate(-2078.9 -953.42)" stroke="#002b00" stroke-width="11.125" fill="none"/><path d="M-1961.7 733.36l1.65 1.645c-4.68-4.672-2.25-2.142 8.22 6.577 6.14 4.954 8.58 6.281 9.86 14.799 3.02 2.854 3.99 7.924 8.22 4.933-.52-9.732-5.03-13.119 3.29-8.222 3.03 6.332 6.75 11.464 11.51 14.799 3 3.173 6.52 4.743 13.16 4.933" transform="translate(-2078.9 -953.42)" stroke="#002b00" stroke-width="11.125" fill="none"/><path d="M-1790.7 955.35c4.13.516 21.43.566 29.6 3.289 7.35 1.312 14.84 1.644 23.02 1.644 8.32-.308 13.02-2.784 21.38 0 9.59.738 10.67 3.031 18.08 9.866 6.11 4.141 8.73 8.81 13.16 16.443 1.94 1.254 14.26 8.828 4.93 3.289" transform="translate(-2078.9 -953.42)" stroke="#002b00" stroke-width="11.125" fill="none"/><path d="M-1798.9 915.88c5.51 2.905 18.24 10.319 24.66 14.799 8.63 1.917 11.11 4.661 19.74 6.577 8.8-.104 14.34-2.338 21.37-3.288 5.52-1.84 14.39-2.331 21.38 0 7.45 2.581 12.13 4.848 18.09 8.221 3.26 4.078 13.55 11.503 3.28 3.289-2.74-3.837-3.83-4.385-8.22-6.577" transform="translate(-2078.9 -953.42)" stroke="#002b00" stroke-width="11.125" fill="none"/><path d="M-1764.4 912.6c6.03.172 21.04 2.167 31.24 3.288 6.88 2.293 15.55 2.755 23.02 3.289 8.66 1.546 15.09 2.11 21.38 6.577 4.43 2.981 10.56 8.747 14.8 13.155 9.3 4.031 3.64 2.989-3.29-3.289" transform="translate(-2078.9 -953.42)" stroke="#002b00" stroke-width="11.125" fill="none"/><path d="M-1739.7 897.8c6.48 0 16.65 1.448 26.31 3.288 3.82 4.619 9.98 5.905 18.09 8.222 5.73 1.4 9.92 4.725 16.44 8.222" transform="translate(-2078.9 -953.42)" stroke="#002b00" stroke-width="11.125" fill="none"/><path d="M-1616.4 1021.1l1.64-1.64c-3.62 3.62-2.4 1.79 6.58 0 9.97-2.69 19.28-3.77 29.6-1.65 8.04 0 15.89.14 23.02-1.64 3.3-2.48 7.45-1.31 9.86-4.94 4.74-.83 4.58-4.61 4.94 0" transform="translate(-2078.9 -953.42)" stroke="#002b00" stroke-width="11.125" fill="none"/><path d="M-1611.4 1047.4c8.69-.44 26.41-1.55 36.18-8.22 6.37-1.94 12.67-5.53 19.73-6.58 8.38 0 15.17-1.08 23.02-1.64 9.47-.51 17.94-1.65 27.95-1.65h24.67c8.29 0 15.43.74 23.02 1.65 6.47 1.13 14.19 4.91 18.09 8.22 5.84 1.27 12.44 1.88 18.08 0" transform="translate(-2078.9 -953.42)" stroke="#002b00" stroke-width="11.125" fill="none"/><path d="M-1442.1 1193.8c.55-.54 1.09-1.09 1.64-1.64-3.38 3.38-2.34 1.99 4.93-1.64 9.8 0 18.97-.48 27.96-1.65 8.59.28 17.5 1.19 23.02 4.93 7.66 2.47 15.09 3.36 21.37 6.58 8.01 2.96 13.02 4.97 21.38 6.58 4.48 2.24 15.13 1.73 21.38 3.29 8.04 0 15.89.13 23.02-1.65 8.55-1.83 13.37-4.8 21.37-6.57 5.35-5.16 12-8.15 19.74-9.87 3.18-3.85 7.65-8.33 11.51-11.51l-11.51 11.51c3.18-3.85 7.65-8.33 11.51-11.51" transform="translate(-2078.9 -953.42)" stroke="#002b00" stroke-width="11.125" fill="none"/><path d="M-1220.1 787.63c6.1-.419 18.58-2.761 26.31-6.577 6.46-1.821 14.22-5.025 18.09-8.222 6.51-1.777 10.7-4.02 18.09-6.577 6.89-4.925 14.68-9.035 18.08-13.155 9.14-4.185 11.31-6.836 14.8-14.799 1.86-2.481.95-4.152 3.29-4.933" transform="translate(-2078.9 -953.42)" stroke="#002b00" stroke-width="11.125" fill="none"/><path d="M-1083.6 733.36c-.84 0-5.23 5.086-8.22 9.866-5.65 5.273-11.05 12.922-14.8 19.732-4.39 2.986-8.99 7.951-14.8 11.51-7.43 6.356-13 10.315-21.38 14.799-6.2 4.134-11.79 6.457-19.73 8.222-7.7 2.667-11.15 4.304-19.73 6.577" transform="translate(-2078.9 -953.42)" stroke="#002b00" stroke-width="11.125" fill="none"/><path d="M-1049.1 738.3c-.55.548-1.1 1.096-1.64 1.644 4.12-4.126 2.12-2.248-4.94 6.578-5.63 5.145-11.9 12.179-14.8 16.443-4.66 3.108-12.7 11.297-18.08 14.799-7.3 6.078-14.09 8.026-19.73 13.155-8.1 3.121-13.17 6.542-21.38 9.866-4.69 2.222-11.82 3.87-16.44 6.577h-4.94" transform="translate(-2078.9 -953.42)" stroke="#002b00" stroke-width="11.125" fill="none"/><path d="M-1059 797.49c-.54.548-1.09 1.096-1.64 1.644 3.9-3.904 2.04-2.309-3.29 6.577-5.89 4.086-8.52 7.957-14.8 11.511 0 2.192.55 1.644-1.64 1.644" transform="translate(-2078.9 -953.42)" stroke="#002b00" stroke-width="11.125" fill="none"/><path d="M-988.24 769.54c0 .482-3.036 4.807-4.933 9.866-4.54 4.633-6.777 11.236-11.508 16.444-3.62 7.555-6.47 9.195-13.16 16.443-4.38 2.814-11.43 7.306-14.8 11.51-6.74 2.956-11 6.373-18.08 8.222" transform="translate(-2078.9 -953.42)" stroke="#002b00" stroke-width="11.125" fill="none"/><path d="M-1044.2 845.18c6.05-2.192 16.37-7.738 23.02-11.51 5.59-3.013 12.12-7.204 16.45-9.866 2.19-6.174 7.129-9.368 14.797-13.155 3.301-4.854 8.089-7.802 13.154-13.154 5.008-2.754 6.664-6.426 9.866-9.866" transform="translate(-2078.9 -953.42)" stroke="#002b00" stroke-width="11.125" fill="none"/><path d="M-1047.4 853.4c6.91-.059 19.93-.149 27.95-4.933 8.64-2.708 11.64-6.043 19.731-8.222 4.512-3.159 11.571-6.276 16.443-9.866l-16.443 9.866c4.512-3.159 11.571-6.276 16.443-9.866" transform="translate(-2078.9 -953.42)" stroke="#002b00" stroke-width="11.125" fill="none"/><path d="M-919.18 812.29c-3.606 5.99-11.343 19.205-19.732 24.665-3.205 3.879-11.489 7.529-16.444 11.51-5.166 2.447-12.761 5.717-19.732 9.866-7.788 1.669-13.168 3.716-19.731 6.577" transform="translate(-2078.9 -953.42)" stroke="#002b00" stroke-width="11.125" fill="none"/><path d="M-1050.7 897.8c5.66-2.389 16.06-8.195 24.66-11.511 4.1-2.047 8.2-1.644 13.16-1.644" transform="translate(-2078.9 -953.42)" stroke="#002b00" stroke-width="11.125" fill="none"/><path d="M-1012.9 907.66c.57 0 4.97-4.13 9.86-6.578 6.454-4.053 13.696-8.155 19.734-11.51 6.845-1.786 14.331-6.823 23.02-8.222 4.438 2.219 14.728 2.814 21.377 3.289h9.866" transform="translate(-2078.9 -953.42)" stroke="#002b00" stroke-width="11.125" fill="none"/><path d="M-991.53 920.82c7.102-.182 17.88-.319 24.665-4.933 5.422-.929 10.272-2.506 13.155-4.933" transform="translate(-2078.9 -953.42)" stroke="#002b00" stroke-width="11.125" fill="none"/><path d="M-1108.3 998.1c1.36.072 9.17 1.584 13.15 3.291 5.72 2.86 8.51 6.15 14.8 9.86 5.45 4.78 12.54 6.27 21.37 6.58h23.03c9.67-.55 14.08-2.96 23.02-3.29 7.71 0 13.062-1.08 18.084-3.29" transform="translate(-2078.9 -953.42)" stroke="#002b00" stroke-width="11.125" fill="none"/><path d="M-1126.4 1017.8c6.77.18 10.95 1.22 18.09 4.93 8.07 7.02 13.64 11.21 23.02 13.16 7.35.56 12.64 1.64 21.37 1.64 8.05 0 15.9-.13 23.02 1.65 6.36.18 8.03 1.64 14.8 1.64" transform="translate(-2078.9 -953.42)" stroke="#002b00" stroke-width="11.125" fill="none"/><g><path d="M74.995 82.955c-1.044 0-2.29.08-2.907-.291-1.179-.216-1.99-.695-2.616-1.453-1.078-.748-1.423-1.441-2.325-2.325-.29-1.064-.822-1.887-1.453-2.616.02-1.646.309-2.235.872-3.197 1.374-.476 1.918-.86 3.488-1.163.756-.514 1.958-1.025 2.907-1.453-.436-.738-.895-1.183 0-2.035.736-.702 1.574-1.255 2.907-1.453 1.48.135 1.822.696 2.616 1.453 1.422 0 2.809-.024 4.069.291 1.172.32 1.909.722 3.197 1.453 1.181.394 1.726.784 2.325 2.035.935.909.316 1.513.291 2.907-.162 1.92-.791 1.79-1.744 2.616 1.316.674 2.317.818 3.779.872h8.138c1.365-.372 1.548-.817 2.034-2.035.368-.919.881-2.116 1.163-3.197.644-.744.98-1.694 1.744-2.325.524-1.095 1.197-1.946 2.035-2.616.818-1.186 1.522-1.705 2.616-2.325.903-1.058 1.703-1.403 0-1.453-1.389.244-1.977.92-3.488 1.163-.292-.73-.235-1.669.29-2.325.383-1.445 1.13-2.246 1.454-3.488.678-.783.905-1.844 1.453-3.197-.097-1.267-.339-2.374-.581-3.488-.406-1.014-.582-1.907-.582-3.488.292-1.238.568-1.984 1.454-2.616.537-.966 1.133-1.464 2.325-2.035.583-.817 1.396-1.279 2.326-1.744.653-.79 1.42-1.24 2.034-2.325.362-1.02.71-1.997.872-3.197.407-.813.538-2.541.582-3.779-.019-1.543-.195-2.378-.872-3.197-.361-.903-.642-2.141-1.163-2.907 0-1.581.176-2.474.581-3.488.31-1.549.291-1.947.291-1.163v-.291c1.662.978 2.116 1.381 4.07 1.453.815 0 1.34-.082 2.034-.291 1.652.178 2.271.184 2.326-1.744.258-1.035.49.355.581.872.643 1.286.694.468 1.453-.291.477-1.429 1.011-.6 2.035-.291.116-.349.493-.493.872-.872.218 1.09.539 1.999 1.454 2.325 1.467-.269 1.544-.852 1.744-2.325 1.039-.215 1.121-.544 1.162.872.767.159 1.378.493 2.035 0 .258-.646.555-1.207.872-1.744.378 1.702.513 1.968 2.326 2.035.586-.554.837-.872.872-2.035.658.797 1.49 1.326 2.906 1.453 1.171.11 1.016.543 2.326.581.332.702.483 1.955 1.162 2.616 1 .642 2.352.869 2.907.581 0-.809-.109-1.635.291-2.035 1.138-.379 2.128-.089 3.197.291 1.474.402 1.454.752 1.454 2.616-.101 1.404-.272 2.762-.872 3.488-.236 1.086-.265 2.592-.872 3.779-.502 1.624.431 1.713.581 3.488.234.982-.273 2.281-.291 3.779.02 1.613-.006 2.411 1.163 2.907.671.989 1.494 1.477 2.325 2.325.986 1.129 1.43 1.632 2.035 2.616 1.053 1.206 1.206 1.717 2.035 2.907.485.97.936 1.673 1.453 2.907.35 1.048.235 2.411 0 3.488-.931.734-1.396 1.592-1.453 3.197-.41.82-.499 2.416-.581 3.488.284 1.209.875 2.006 1.453 2.907.606.757 1.603 1.543 2.325 2.035.636.733 1.079 1.628 1.744 2.325.383 1.259.852 1.823.872 3.488.243 1.114.484 2.221.582 3.488.676.639.594.872 2.035.872.894.523 1.992.581 3.488.581 1.3.1 2.234.291 3.778.291 1.184 0 2.42-.006 3.198-.291.607-.952.951-2.58 1.453-3.488.098-1.267.34-2.374.582-3.488.685-.719 1.191-1.462 2.034-2.035 1.202-.617 1.964-.816 3.489-.872 1.408.399 2.375.777 3.197-.291 1.128-.308 1.833-.581 3.488-.581 1.722-.43 2.179-.198 2.907.872.238 1.094.47 2.349.872 3.197.661.449 1.693 1.181 2.325 1.744.408.861.582 1.474.582 2.907.523.873.122 1.891 0 2.907-.684.717-1.21 1.517-2.035 2.325-.354.432-.776.752-1.453.872l.581.581-10.17 10.172-106.09-.872-4.945-12.208z" fill-rule="evenodd" fill-opacity=".996" transform="matrix(7.64 0 0 8.987 -4651.04 -1835.63)" stroke="#2b2b2b" stroke-width="1pt" fill="#d40f0f"/><path d="M129.93 29.47l.29.291c-.73-.73-.373-.394.872 1.163v4.069c0 1.655.274 2.36.582 3.488l.872 1.163" transform="matrix(7.64 0 0 8.987 -4651.04 -1835.63)" stroke="#2b2b2b" stroke-width="1pt" fill="none"/><path d="M138.65 29.761v.291c0-.856.05-.374-.872 1.163-.586 1.345-.581 2.152-.291 3.488.307.92.291 2.438.291 3.779l-.291.581" transform="matrix(7.64 0 0 8.987 -4651.04 -1835.63)" stroke="#2b2b2b" stroke-width="1pt" fill="none"/><path d="M144.76 37.318h-.291c.856 0 .374-.05-1.162.872-1.293.812-1.789 1.241-3.198 1.453-.947.928-1.503 1.142-3.197 1.163-.137.41-.085.291-.582.291" transform="matrix(7.64 0 0 8.987 -4651.04 -1835.63)" stroke="#2b2b2b" stroke-width="1pt" fill="none"/><path d="M137.78 42.551v.291c.383-.144 1.727-.515 2.325-.581.728-.602 1.907-.838 2.616-1.453 1.116-.144.758-.544 2.035-.581l-2.035.581c1.116-.144.758-.544 2.035-.581" transform="matrix(7.64 0 0 8.987 -4651.04 -1835.63)" stroke="#2b2b2b" stroke-width="1pt" fill="none"/><path d="M142.14 43.713c.496 0 2.54.085 3.488.291h1.453" transform="matrix(7.64 0 0 8.987 -4651.04 -1835.63)" stroke="#2b2b2b" stroke-width="1pt" fill="none"/><path d="M108.42 50.399h.291c-.785 0-.382.018 1.163-.291 1.301-.1 2.38-.332 3.779-.581 1.553-.389 2.17-.392 3.197-1.453 1.164-.776 1.548-1.455 1.744-2.907.202-.928.326-2.03.872-2.616" transform="matrix(7.64 0 0 8.987 -4651.04 -1835.63)" stroke="#2b2b2b" stroke-width="1pt" fill="none"/><path d="M121.21 46.33v1.454c0 1.496.058 2.594.582 3.488.597 1.248.973 1.795 2.034 2.325l2.907 1.163h.872" transform="matrix(7.64 0 0 8.987 -4651.04 -1835.63)" stroke="#2b2b2b" stroke-width="1pt" fill="none"/><path d="M128.48 53.306h1.454c2.154 0 4.021.232 6.104.291h4.069c1.431-.051 2.579-.291 4.07-.291h2.906" transform="matrix(7.64 0 0 8.987 -4651.04 -1835.63)" stroke="#2b2b2b" stroke-width="1pt" fill="none"/><path d="M121.79 43.423h1.453c1.203-.401 2.817-.357 4.069-.581.517.278.875.624 1.454.872" transform="matrix(7.64 0 0 8.987 -4651.04 -1835.63)" stroke="#2b2b2b" stroke-width="1pt" fill="none"/><path d="M122.96 39.353h.291c-.784 0-.387-.019 1.163.291.718.622 1.426.984 2.616 1.163" transform="matrix(7.64 0 0 8.987 -4651.04 -1835.63)" stroke="#2b2b2b" stroke-width="1pt" fill="none"/><path d="M123.83 36.446h.291c-.784 0-.387-.019 1.163.291.748.763 1.947 1.477 2.616 2.325.636.376 1.017.83 1.744 1.163" transform="matrix(7.64 0 0 8.987 -4651.04 -1835.63)" stroke="#2b2b2b" stroke-width="1pt" fill="none"/><path d="M115.69 53.887v.291c0-.856-.049-.374.872 1.163.097 1.355.211 2.917.872 3.779.192 1.414.234 1.8-.29 2.907-.452 1.016-1.033 2.319-1.744 2.907-.581.854-1.443 1.206-2.035 2.035-.758.53-1.529 1.582-2.035 2.325-1.113 1.241-1.359 1.959-2.325 2.616-.374 1.121-.909 1.664-1.454 2.907-.872 1.028-1.513 2.024-2.034 3.197-.408.951-.465 2.556-.872 3.779v.872" transform="matrix(7.64 0 0 8.987 -4651.04 -1835.63)" stroke="#2b2b2b" stroke-width="1pt" fill="none"/><path d="M112.49 80.048v-1.454c0-1.466.131-2.728.291-4.069.445-1.039.877-2.203 1.162-3.488.598-.879.852-1.78 1.454-2.907.31-1.136.889-2.018 1.744-2.616.364-1.092.827-1.734 1.453-2.907.457-.931 1.373-2.07 1.744-3.488.444-.527.606-1.393.872-2.325" transform="matrix(7.64 0 0 8.987 -4651.04 -1835.63)" stroke="#2b2b2b" stroke-width="1pt" fill="none"/><path d="M123.83 58.247v.291c0-.812.036-.381-.581 1.163-.447 1.246-1.14 2.286-1.453 3.488-.605 1.301-1.014 2.702-1.454 4.069-.232 1.299-.29 2.623-.29 4.069v4.069c0 1.487-.274 2.603-.291 4.07-.371.741-.51 1.524-.291 1.744" transform="matrix(7.64 0 0 8.987 -4651.04 -1835.63)" stroke="#2b2b2b" stroke-width="1pt" fill="none"/><path d="M127.03 59.41c-.275 0-.166.743-.291 1.744-.105 1.371-.291 2.417-.291 4.069-.295 1.379-.704 2.541-.872 3.779-.409 1.382-.813 2.141-.872 3.779.595.875 1.348 1.502 1.744 2.907.47.957 1.018 1.938 1.454 3.197 0 1.578.272 2.253.29 3.779 0 .717-.056 1.166.291 1.744" transform="matrix(7.64 0 0 8.987 -4651.04 -1835.63)" stroke="#2b2b2b" stroke-width="1pt" fill="none"/><path d="M132.84 61.445v.291c0-.812.036-.381-.581 1.163-.92 1.246-1.503 2.334-2.035 3.197-.442 1.376-.943 2.689-.581 4.069.095 1.332.345 2.911.872 3.779.053 1.428.291 2.198.291 3.779.1 1.3.29 2.235.29 3.779 0 1.183-.006 2.42-.29 3.197-.547.234-.407.497-1.163.581" transform="matrix(7.64 0 0 8.987 -4651.04 -1835.63)" stroke="#2b2b2b" stroke-width="1pt" fill="none"/><path d="M129.06 54.468c-.366 0 .169.778.29 1.744.402.669.291 2.09.291 3.197" transform="matrix(7.64 0 0 8.987 -4651.04 -1835.63)" stroke="#2b2b2b" stroke-width="1pt" fill="none"/><path d="M134.29 55.34h.29c-.911 0-.366-.06 1.163 1.163.217.999.436 2.121.581 3.197" transform="matrix(7.64 0 0 8.987 -4651.04 -1835.63)" stroke="#2b2b2b" stroke-width="1pt" fill="none"/><path d="M140.4 54.468v1.454c.299 1.394.581 2.482.581 4.069l-.581-4.069c.299 1.394.581 2.482.581 4.069" transform="matrix(7.64 0 0 8.987 -4651.04 -1835.63)" stroke="#2b2b2b" stroke-width="1pt" fill="none"/><path d="M143.88 54.759h.291c-.856 0-.374-.05 1.162.872v.872" transform="matrix(7.64 0 0 8.987 -4651.04 -1835.63)" stroke="#2b2b2b" stroke-width="1pt" fill="none"/><path d="M142.14 61.735h-.291c.911 0 .352-.076-.872 1.453-.459.918-1.003 1.666-1.453 2.616-.533.987-.737 1.487-.872 2.616" transform="matrix(7.64 0 0 8.987 -4651.04 -1835.63)" stroke="#2b2b2b" stroke-width="1pt" fill="none"/><path d="M137.2 62.317c-.168 0-.508.908-1.162 1.453-.259 1.19-.563 1.956-.582 3.488 0 1.885.351 2.203 1.163 3.488.682.787 1.055 1.506 1.163 2.907v8.138c-.201 1.335-.573 1.987-1.454 2.616-1.115.726-1.256.184-2.034-.872-.272-.897-.653-1.316-.872-2.325" transform="matrix(7.64 0 0 8.987 -4651.04 -1835.63)" stroke="#2b2b2b" stroke-width="1pt" fill="none"/><path d="M144.76 61.735v.291c0-.785.019-.385-.291 1.163-.529 1.309-1.299 2.582-1.744 3.488-.405 1.014-.581 1.907-.581 3.488.244 1.364.529 2.61.581 4.069 0 1.595-.395 2.53-.581 3.779-.57 1.081-1.069 2.44-1.744 3.197l-.291.581" transform="matrix(7.64 0 0 8.987 -4651.04 -1835.63)" stroke="#2b2b2b" stroke-width="1pt" fill="none"/><path d="M148.24 58.538v.291c0-.813.036-.381-.581 1.163-.103 1.446-.419 2.573-.582 3.779-.384.897-1.056 2.595-1.453 3.488-.601.977-.872 1.447-.872 3.197.601 1.03 1.523 1.944 2.616 2.325.447.944.641 2 1.163 3.197.102 1.433.415 2.669.581 4.069v1.163" transform="matrix(7.64 0 0 8.987 -4651.04 -1835.63)" stroke="#2b2b2b" stroke-width="1pt" fill="none"/><path d="M151.44 60.863l-.291.291c.64-.64.317-.425 0 1.163 0 1.482-.192 2.683-.291 4.069-.518 1.038-.995 2.247-1.162 3.488.252 1.381.907 1.687 2.034 2.325.676.645 1.656 1.2 2.616 1.744 1.086.633 1.831 1.351 2.617 2.325.866 1.074 1.409 1.31 2.034 2.616.167 1.235.555 2.402.291 3.488 0 .388.097.291-.291.291" transform="matrix(7.64 0 0 8.987 -4651.04 -1835.63)" stroke="#2b2b2b" stroke-width="1pt" fill="none"/><path d="M153.48 54.178h.291c-.911 0-.35-.074.872 1.453.315 1.26.291 2.647.291 4.069.556.818.773 1.907.872 3.197.306.92.29 2.439.29 3.779-.097 1.134-.459 1.835 0 2.907 1.263.764 2.139 1.608 2.907 2.325 1.069.534 1.492 1.002 2.326 2.035.529.934 1.14 1.92 1.744 2.616.232 1.299.29 2.623.29 4.069 0 1.707.053 2.545-.872 3.488-.44 0-.927.078-.29.291" transform="matrix(7.64 0 0 8.987 -4651.04 -1835.63)" stroke="#2b2b2b" stroke-width="1pt" fill="none"/><path d="M149.41 42.26v1.454c.205 1.381.858 2.296 1.744 3.197.543.799 1.236 1.492 2.035 2.035 1.122.381 1.53.581 2.906.581" transform="matrix(7.64 0 0 8.987 -4651.04 -1835.63)" stroke="#2b2b2b" stroke-width="1pt" fill="none"/><path d="M152.9 50.98h.291c-.785 0-.388-.019 1.162.291.983.492 1.475 1.165 2.326 1.744.246.903.598 2.365 1.163 3.197.207 1.161.38 2.251.872 2.907" transform="matrix(7.64 0 0 8.987 -4651.04 -1835.63)" stroke="#2b2b2b" stroke-width="1pt" fill="none"/><path d="M127.9 44.295v1.454c.835.724 1.55.872 3.197.872 1.3.1 2.235.291 3.779.291h4.07c1.553 0 1.869.023 2.325-1.453.596-.809-.194-1.089-.581-1.744l.581 1.744c.596-.809-.194-1.089-.581-1.744" transform="matrix(7.64 0 0 8.987 -4651.04 -1835.63)" stroke="#2b2b2b" stroke-width="1pt" fill="none"/><path d="M166.56 84.699h.291c-.912 0-.367-.06 1.162 1.163.18.87.548 1.327.872 2.035" transform="matrix(7.64 0 0 8.987 -4651.04 -1835.63)" stroke="#2b2b2b" stroke-width="1pt" fill="none"/><path d="M83.424 73.072h-.291c.856 0 .373-.05-1.163.872-.855.599-1.434 1.48-1.744 2.616-1.014.676-.441 1.125.872 1.163 1.739-.021 2.194-.195 3.197-1.163.705-.528 1.15-1.378.581-2.325l-.581 2.325c.705-.528 1.15-1.378-.872-3.488z" fill-rule="evenodd" transform="matrix(7.64 0 0 8.987 -4651.04 -1835.63)" stroke="#000" stroke-width="1pt"/><path d="M171.21 85.571v.291c0-.784-.019-.386.29 1.163.155.36.263.659.582.872" transform="matrix(7.64 0 0 8.987 -4651.04 -1835.63)" stroke="#2b2b2b" stroke-width="1pt" fill="none"/><path d="M174.12 85.28v1.454c.509.69.963 1.508 1.454 2.035" transform="matrix(7.64 0 0 8.987 -4651.04 -1835.63)" stroke="#2b2b2b" stroke-width="1pt" fill="none"/><path d="M177.02 86.152v.291c0-.856-.05-.374.872 1.163.123.369.213.458.582.581" transform="matrix(7.64 0 0 8.987 -4651.04 -1835.63)" stroke="#2b2b2b" stroke-width="1pt" fill="none"/><path d="M86.912 84.99v1.454c-.217 1.083-.898 1.828-1.453 2.325l1.453-2.325c-.217 1.083-.898 1.828-1.453 2.325" transform="matrix(7.64 0 0 8.987 -4651.04 -1835.63)" stroke="#2b2b2b" stroke-width="1pt" fill="none"/><path d="M90.11 85.862v1.454c-.418.597-.657.946-1.163 1.163" transform="matrix(7.64 0 0 8.987 -4651.04 -1835.63)" stroke="#2b2b2b" stroke-width="1pt" fill="none"/><path d="M92.726 85.28v1.454c-.071.713-.389 1.101-.581 1.744" transform="matrix(7.64 0 0 8.987 -4651.04 -1835.63)" stroke="#2b2b2b" stroke-width="1pt" fill="none"/><path d="M96.505 84.699h.291c-.077.193 0 1.298 0 2.035-.314.584-.776.69-1.163 1.163" transform="matrix(7.64 0 0 8.987 -4651.04 -1835.63)" stroke="#2b2b2b" stroke-width="1pt" fill="none"/><path d="M-3760.522-1602.13h-2.216c.772 2.439 3.109 14.629 4.439 18.286 6.143 5.163 9.367 13.33 13.324 20.898 5.531-7.51 6.662-13.928 6.662-28.735-2.949-10.035-11.911-9.026-22.209-10.449z" fill-rule="evenodd" fill="#2b2b2b"/><path d="M-3500.685-1591.678c-.649 0-6.494 4.822-13.324 7.837-1.65 14.329-.917 15.882 4.439 26.123 10.604-.961 10.841-3.768 13.324-15.674 4.905-7.697 1.459-5.946-4.439-18.286z" fill-rule="evenodd" fill="#2b2b2b"/><path d="M144.18 31.505h-1.163c-1.55-.277-2.404-.367-3.488.581-.334 1.247-.515 2.257.291 2.907.989.242 1.575.646 2.616.872.561-.912 1.018-1.575 1.744-2.616.671-.224.192-.721 0-1.744v1.744c.671-.224.192-.721 0-1.744" transform="matrix(7.64 0 0 8.987 -4651.04 -1835.63)" stroke="#2b2b2b" stroke-width="1pt" fill="none"/><path d="M129.35 31.505l-.29-.291c.659.659.419.342-1.163-.291-1.34 0-2.859-.016-3.779.291-.365.73.441 1.277 1.163 1.744.799.543 1.491 1.236 2.034 2.035.808.594.984 1.426 2.035 1.744.47-.992.877-1.712 1.163-3.197-.183-.548-.664-1.148-1.163-2.035z" transform="matrix(7.64 0 0 8.987 -4651.04 -1835.63)" stroke="#2b2b2b" stroke-width="1pt" fill="none"/><path d="M78.192 71.618c-.336 0-2.424-.019-3.197.291-.802 1.248-.634 1.936.291 2.616.243 1.611.778 1.679 2.616 1.744.772.579 1.506.37 1.744-.581.497-.829.257-1.737-.291-2.325 0-.911.06-.215-1.163-1.744z" fill-rule="evenodd" transform="matrix(7.64 0 0 8.987 -4651.04 -1835.63)" stroke="#000" stroke-width="1pt"/><path d="M72.088 77.141h-.291c.813 0 .327-.089-.291 1.453 0 .898-.074 1.839.291 2.325 1.044 0 2.29.08 2.907-.291.479-1.279.553-2.238-.581-2.616-.384-.577-.989-.569-2.035-.872z" fill-rule="evenodd" transform="matrix(7.64 0 0 8.987 -4651.04 -1835.63)" stroke="#000" stroke-width="1pt"/><path d="M83.134 80.629h-1.454c-.614.53-1.366 1.17-1.744 2.035 1.217.332 1.575.994 2.325 1.744 1.896-.023 2.163-.113 2.325-2.035 0-1.135.042-.448-1.453-1.744z" fill-rule="evenodd" transform="matrix(7.64 0 0 8.987 -4651.04 -1835.63)" stroke="#000" stroke-width="1pt"/><path d="M182.25 82.083h-1.453c-1.363.441-1.622.911-1.744 2.616.853.515 1.938 1.114 3.197 1.453.91.532 2.122.746 3.489.291.566-.92 1.031-1.17 1.162-2.616-.996-.303-2.545-.9-3.197-1.453l3.197 1.453c-.996-.303-2.545-.9-4.651-1.744z" fill-rule="evenodd" transform="matrix(7.64 0 0 8.987 -4651.04 -1835.63)" stroke="#000" stroke-width="1pt"/><path d="M185.16 75.107h-.291c.912 0 .352-.076-.872 1.453-.308 1.42-.059 1.956.582 3.197 1.287.634 1.416 1.609 2.616 2.035.558.558.291-.751.291-1.453.247-1.539.753-1.95.872-3.488-.267-1.089-.616-1.684-1.744-2.035l1.744 2.035c-.267-1.089-.616-1.684-3.198-1.744z" fill-rule="evenodd" transform="matrix(7.64 0 0 8.987 -4651.04 -1835.63)" stroke="#000" stroke-width="1pt"/><path d="M191.85 75.979h-.291c.911 0 .351-.076-.872 1.453-.562.926-.581 2.328-.581 3.779.48 1.296 1.187.495 1.744-.291.985-.67 1.391-.94 1.453-2.616 0-1.373.016-.758-1.453-2.325z" fill-rule="evenodd" transform="matrix(7.64 0 0 8.987 -4651.04 -1835.63)" stroke="#000" stroke-width="1pt"/><path d="M195.92 80.048h-.29c.784 0 .387-.019-1.163.291-.965 1.106-1.697 1.675-2.035 3.197 1.363.296 2.249.092 3.779-.291.624-1.363.692-1.097-.291-3.197z" fill-rule="evenodd" transform="matrix(7.64 0 0 8.987 -4651.04 -1835.63)" stroke="#000" stroke-width="1pt"/><path d="M-3676.606-1547.364h-5.191c-2.04 3.166-.899 6.542 1.04 9.644 1.071 4.137.626 5.726 4.151 7.232 2.515 3.487 5.969 5.255 10.383 6.026 7.161-.757 4.414-2.884 3.111-8.438-2.414-3.235-2.343-6.632-6.232-8.437-1.121-1.965-4.383-3.765-7.262-6.028z" fill-rule="evenodd"/><path d="M-3568.057-1546.679c-.876.246-5.675 2.933-7.772 4.436-3.567 5.641-4.875 7.46-3.34 13.309 3.686 1.963 7.848 3.566 13.34 4.436 5.437-1.394 5.254-4.891 5.556-11.831-1.178-3.661-3.946-5.904-7.783-10.351z" fill-rule="evenodd"/><path d="M-3688.097-1403.683v14.967c2.801 14.483 3.112 19.397 17.23 20.963h103.383c10.826-1.236 9.846-4.193 9.846-17.965 1.62-3.07-1.242-12.65-4.923-17.965-9.734 4.203-12.138 15.091-24.615 17.965-14.183 0-20.847.185-27.076-8.982-7.078-5.573-7.788-16.605-14.769-5.995-7.948 5.841-15.367 8.982-29.537 8.982-15.038 0-15.262-2.019-29.537-11.97z" fill-rule="evenodd"/><path d="M42.73-676.01h.291c-.911 0-.368-.062 1.163 1.163.123.696.291.847.291 1.744" transform="matrix(8.468 0 0 10.301 -4016.94 5486.37)" stroke="#2b2b2b" stroke-width="1.109" fill="none"/><path d="M-3658.776-1457.525h-6.391c1.849 2.872 3.239 17.973 6.391 23.854 31.941 0 16.986-3.337 0-23.854z" fill-rule="evenodd"/><path d="M-3610.846-1450.754h-1.543c4.314 0 2.018-.287-6.174 4.64-2.957 6.277-7.311 9.312-1.543 16.252 6.405.543 9.636 2.316 16.978 2.316v0c0-5.415 0-10.829-7.718-23.207z" fill-rule="evenodd"/><path d="M48.834-675.72h-.291c.784 0 .387-.02-1.163.29-.304.514-.737 1.051-1.163 1.454" transform="matrix(8.468 0 0 10.301 -4017.68 5486.37)" stroke="#2b2b2b" stroke-width="1.109" fill="none"/></g><g stroke="#2b2b2b" stroke-width="1pt"><path d="M-4003.939-723.163c-4.68 0-22.162.406-31.969-2.676-11.986.554-14.341 4.918-23.443 8.046-10.472-.489-16.115-2.685-27.706-2.685-8.332-5.656-14.165-10.196-25.575-10.731-8.503-1.439-16.845-2.676-27.706-2.676-12.425.185-16.917 4.844-25.575 10.722-3.969 7.345-9.057 14.228-14.918 21.462-4.69 8.673-8.795 12.383-17.05 21.453-4.523 8.369-9.236 12.558-12.788 26.823 0 12.364-.116 26.38 2.131 34.869 1.397 13.001 3.927 19.534 4.263 34.86 0 14.09-.743 25.55-4.263 37.554-2.351 13.315-6.402 21.637-10.656 34.869-2.236 8.443-3.599 23.169-4.262 34.869 1.564 11.202 5.86 22.053 8.525 34.86 2.576 12.973 4.665 24.147 8.525 32.184 2.483 10.343 6.18 9.384 6.394 24.138 0 14.56 1.997 20.798 2.131 34.869 3.182 8.009 4.698 21.121 6.394 32.184 5.069 7.751 6.34 15.953 14.919 21.462 1.832-12.909 3.528-22.855 4.262-34.869 1.231-8.673 1.611-23.944 4.263-29.499 2.326 10.731 6.198 16.083 8.525 26.814 4.076 6.21 7.586 18.269 10.656 26.823 4.377 1.504 4.263-.507 4.263-10.731 2.509-9.467 3.917-20.419 6.394-32.184v-10.722c5.271 7.64 8.878 18.14 12.788 26.814 4.005 7.419 8.117 15.04 14.918 21.462 10.249 3.036 8.525.018 8.525-13.416v-37.545c.444 15.086 3.912 18.048 6.394 29.499 5 6.293 7.366 11.709 17.05 13.416 4.211-8.609 8.605-13.148 12.787-24.138 0-14.791.921-23.307 4.263-32.184 6.347-9.91 9.181-13.471 17.05-21.462 8.303-9.319 16.208-18.565 25.575-24.138 5.244-9.513 11.451-15.732 19.181-24.138 8.664-10.104 15.966-21.997 21.313-34.869 6.209-7.815 11.893-21.065 14.918-34.869 5.679-11.202 7.523-24.202 8.525-40.23 4.556-13.084 8.481-25.854 10.656-40.23 0-14.422-.919-26.26-2.131-37.545-5.28-11.165-8.776-24.765-12.788-32.193-2.517-9.928-8.537-21.96-10.656-32.184-5.465-12.872-4.929-17.254-19.181-18.768-6.699 0-5.746-1.043-14.918-5.37z" fill-rule="evenodd" fill-opacity=".996" fill="#d40f0f"/><path d="M-4197.885-664.203v2.685c0-7.243-.139-3.562 2.131 10.722 1.149 10.703 2.131 21.204 2.131 34.869 0 13.674.982 24.166 2.131 34.869 1.061 11.128 2.957 17.135 10.656 24.138" fill="none"/><path d="M-4176.571-599.798c1.503 0 2.295 8.258 6.394 13.416 2.155 9.947 6.012 20.207 10.656 32.184 2.099 13.702 5.08 20.346 8.525 29.499 2 6.293 2.76 14.459 6.394 18.777v-75.099c-1.948-13.73-4.179-22.32-6.394-34.869v-16.092" fill="none"/><path d="M-4136.076-591.771c.4 5.536 3.284 23.27 6.394 32.193 2.846 9.393 6.244 20.41 10.656 26.814.9 6.422 3.056 9.633 6.394 16.092 7.356-7.465 12.904-13.425 14.918-26.814 3.227-9.476 5.663-20.226 6.394-32.193.757-13.342 3.068-23.741 4.263-34.86 0-14.062-.012-24.322-4.263-32.184l4.263 32.184c0-14.062-.012-24.322-4.263-32.184" fill="none"/><path d="M-4080.668-572.948v2.685c0-7.243-.139-3.562 2.131 10.731 1.535 8.876 2.131 19.893 2.131 32.184-2.315 1.938-3.187 7.566-4.263 10.722" fill="none"/><path d="M-4061.48-613.177v13.407c0 11.728.883 27.284-2.131 34.869 0 13.674-.982 24.166-2.131 34.869 2.813 17.697 5.183-1.033 6.394-8.046 2.559-8.452 5.248-22.459 8.525-29.508 1.325-13.997 3.86-21.213 4.262-34.86 2.159-10.869 2.131-22.542 2.131-34.869" fill="none"/><path d="M-4031.646-669.554c.742 0 6.443 6.736 12.787 10.731 1.481 12.364 5.019 16.692 6.394 29.499v13.407" fill="none"/><path d="M-4033.78-688.285c2.736 1.439 12.676 10.159 17.05 13.407 5.847.738 7.909 1.07 8.525 8.046" fill="none"/><path d="M-4035.906-704.432h10.656c5.106.71 4.654 2.685 10.656 2.685" fill="none"/></g><g fill-opacity=".996" fill-rule="evenodd" stroke="#2b2b2b" stroke-width="1pt" fill="#d30f0f"><path d="M-3240.12-687.345h-10.661c-9.531 2.196-12.633 7.917-17.047 16.091l17.047-16.091c-9.531 2.196-12.633 7.917-17.047 16.091"/><path d="M-3235.868-703.491c-.711-.895-1.422-1.79-2.126-2.685 4.692 5.905 3.109 2.925-8.527 0-7.127-1.855-7.794-1.855-14.92 0"/><path d="M-3255.004-722.222h10.661c12.897 1.301 23.33 5.167 36.227 5.361 10.749 0 20.001-1.209 29.834-2.676 6.034-3.801 18.396-2.685 27.707-2.685 12.134 0 17.692 1.633 27.707 5.361 7.288 2.39 18.887 7.123 25.574 10.731 7.024 4.18 13.681 7.197 21.314 13.406 8.16 6.966 10.206 11.432 10.653 26.822-1.136 10.611-2.522 22.633-4.26 34.868.748 13.222 3.043 24.626 4.26 37.543 2.31 11.626 2.134 24.432 2.134 37.553-1.635 9.937-5.088 9.199-8.527 18.776 6.005 4.982 13.359 14.615 17.054 21.452 1.782 12.585 3.879 24.091 4.26 37.543 0 15.049-.279 23.362-4.26 34.868-2.779 12.973-6.1 18.444-8.527 32.183-1.826 10.565-5.345 21.36-8.527 29.507-3.527 6.523-5.954 21.018-8.52 29.498-1.334 12.77-4.597 24.921-8.527 32.183-2.17 10.011-3.248 17.512-10.653 21.461-6.342-1.993-4.267-7.16-4.267-16.091 1.518-10.694 2.39-18.601 0-26.822-6.973-2.067-7.442 4.189-10.653 16.091-4.524 6.117-4.795 14.006-10.661 18.776-7.273 11.081-9.839 7.169-14.913-8.046 0-14.255-1.4-22.873-2.134-34.868-1.144-17.309-2.471 9.66-4.26 13.406-2.412 13.656-6.122 18.389-8.527 29.507-8.762 4.032-12.127 3.931-12.787-10.731 1.701-11.985 2.134-24.202 2.134-37.543-5.352-7.769-5.741-1.652-8.527 5.361-.469 15.879-3.644 17.789-8.527 26.822-7.119 5.296-5.477 5.37-8.527-8.046-3.387-10.168-5.888-14.006-12.787-18.776-6.122-6.68-11.357-8.046-23.44-8.046-11.137-.517-16.563-5.093-25.574-8.046-8.505-3.063-16.775-5.416-21.314-10.731-4.047-7.492-9.883-17.134-14.92-29.498-5.492-12.622-8.102-20.548-8.52-34.868-1.833-12.88-3.035-27.08-4.267-40.228-2.412-18.241-5.983-38.097-8.52-56.32-3.673-14.366-7.244-27.025-8.527-42.913-4.238-11.782-6.569-24.598-8.527-37.553 0-12.364-.117-26.379 2.134-34.858 4.062-9.919 8.718-16.617 12.787-24.146 5.997-9.356 9.957-16.184 19.18-24.137 4.758-7.151 14.151-12.022 21.314-16.091 4.817-2.593 8.094-3.377 17.047-5.361z"/><path d="M-3233.668-657.911v2.685c0-7.898.609-3.146-10.653 5.361-5.822 6.975-11.027 9.365-17.054 18.776-1.364 4.014-4.084 7.298 0 10.731"/><path d="M-3235.868-628.386v2.676c0-7.234-.139-3.562 2.134 10.731.374 12.705 2.134 18.453 2.134 32.183-3.923 8.221-1.62 19.717 2.126 29.507 3.343 11.709 7.589 19.847 10.661 29.498 4.546 1.91 2.126-2.058 2.126-10.731-2.757-10.417-1.642-23.916 0-37.543v-32.183"/><path d="M-3178.312-633.737h-2.126c5.954 0 2.39-.821-2.134 13.416v37.543c-2.244 8.489-2.134 22.504-2.134 34.868-2.266 13.148-3.776 17.032 8.527 21.452 3.211 6.246 7.449 9.854 10.661 16.091 4.047-12.576 8.336-23.953 10.653-37.543 3.409-7.75 4.795-23.63 6.393-34.868 3.512-5.37 7.955-15.279 10.653-21.452"/><path d="M-3122.883-631.062v2.685c0-7.243-.139-3.562 2.134 10.721.161 11.727 2.126 20.243 2.126 32.183-4.194 7.778-4.788 18.721-8.52 29.507-3.732 12.724-6.254 22.569-6.393 37.543 0 9.005-1.906 18.749 4.26 13.416 4.384-11.875 8.116-24.755 10.653-37.553 4.685-11.644 7.281-20.52 10.661-29.498 1.114-11.792 1.32-26.453 4.26-37.553l-4.26 37.553c1.114-11.792 1.32-26.453 4.26-37.553"/><path d="M-3071.707-649.792l-2.126 2.685c4.201-5.287 2.376-3.912 0 8.046 0 12.327 1.1 29.405-2.134 37.543-1.51 15.962-3.343 20.991-10.653 32.183-1.481 4.659-4.253 11.616-6.393 13.416"/><path d="M-3193.196-558.632v2.685c0-7.243.139-3.562-2.134 10.731-4.069 5.905-10.147 17.272-12.787 26.813-1.752.738-5.792 2.685-2.134 2.685"/><path d="M-3199.575-529.107h2.126c-5.954 0-2.398-.84 2.134 13.406l6.393 16.091"/></g><path d="M77.32 201.26c-.275 0-.166.743-.291 1.744v4.07c.189 1.439.683 2.802 1.453 3.488.463.463 1.443 1.204 2.035 1.744 0-1.544.191-2.479.291-3.779.486-.831.637-2.133 1.163-2.907.128-1.667.73-1.681 1.163-3.197.497-.723-.534-.786-1.453-.872-1.085-.255-2.104-.617-2.907-1.163l2.907 1.163c-1.085-.255-2.104-.617-4.36-.291z" fill-opacity=".996" fill-rule="evenodd" transform="matrix(7.332 0 0 9.227 -4606.2 -1868.5)" stroke="#000" stroke-width="1pt" fill="#000f0f"/><path d="M92.435 200.68h-.291c.856 0 .341-.084-.581 1.453 0 1.41.067 2.751.291 3.779.6.726.812 1.919 1.163 2.907.52.32.844-.467 1.163-1.163.589-1.454 1.25-2.135 1.453-3.488.319-1.171.868-1.652 1.163-2.907-.618-1.29-.944-1.849-2.616-2.034-.73.73-.18.202-1.744 1.453z" fill-opacity=".996" fill-rule="evenodd" transform="matrix(7.332 0 0 9.227 -4606.2 -1868.5)" stroke="#000" stroke-width="1pt" fill="#000f0f"/><path d="M168.59 200.39h.29c-.157.421-.29 1.73-.29 2.616-.217 1.216-.45 2.289 0 3.489.834.367 1.373.644 1.744 1.453.679.572.829.87.872-.581.63-1.388.928-1.736 1.744-2.907.577-.987.801-1.656.581-3.198-.751-1.522-1.176-1.701-2.907-2.034-1.823 0-1.797 1.361-2.325 2.616" fill-opacity=".996" fill-rule="evenodd" transform="matrix(7.332 0 0 9.227 -4606.2 -1868.5)" stroke="#000" stroke-width="1pt" fill="#000f0f"/><path d="M182.84 202.13h-.291c.233.608.581 1.864.581 2.907.232 1.299.291 2.624.291 4.07-.173 1.155-.465 1.162.872 1.162.544-1.295.973-2.269 1.744-2.906.372-1.222.815-1.956.872-3.489 0-1.2.09-2.727-.29-3.488-2.109 0-2.041.291-3.779 1.744z" fill-opacity=".996" fill-rule="evenodd" transform="matrix(7.332 0 0 9.227 -4606.2 -1868.5)" stroke="#000" stroke-width="1pt" fill="#000f0f"/><path d="M195.63 195.74h-.291c.812 0 .38-.035-1.163.582-.72.943-1.826 1.415-1.453 2.907 1.453.49 2.267.848 2.907 1.744.925.508 1.596.891 2.034 1.744.531.353.84.906 1.163 1.453-.174-1.463-.479-2.444-.581-3.779-.02-1.646-.31-2.235-.872-3.197-.118-1.055-.425-.815-1.744-1.454z" fill-opacity=".996" fill-rule="evenodd" transform="matrix(7.332 0 0 9.227 -4606.2 -1868.5)" stroke="#000" stroke-width="1pt" fill="#000f0f"/><path d="M197.66 189.92h-.29c.855 0 .373-.05-1.163.872-.651 1.176-.667 2.169-.291 3.197 1.424.212 1.995.83 2.616 1.744.867.867 1.468 1.452 2.326 2.035-.622-1.059-1.178-2.025-1.454-3.197-.048-1.293-.259-2.233-.581-3.198l.581 3.198c-.048-1.293-.259-2.233-1.744-4.651z" fill-opacity=".996" fill-rule="evenodd" transform="matrix(7.332 0 0 9.227 -4606.2 -1868.5)" stroke="#000" stroke-width="1pt" fill="#000f0f"/><path d="M69.472 195.74c-.098 0-.931.537-1.453 1.163-1.414.78-2.175 1.229-2.325 2.907-.051 1.377-.291 2-.291 3.488.412.412.075 1.669.581 1.163.886-.975 1.342-1.861 2.325-2.616.659-.628 1.881-1.288 2.907-1.744 1.626-.473 1.499-.313.581-1.744-.517-.876-1.199-1.351-2.325-2.617z" fill-opacity=".996" fill-rule="evenodd" transform="matrix(7.332 0 0 9.227 -4606.2 -1868.5)" stroke="#000" stroke-width="1pt" fill="#000f0f"/><path d="M67.437 190.22h-.291c.856 0 .373-.05-1.163.872-.728.909-1.626 1.173-2.035 2.325-.677.819-.853 1.654-.872 3.197.027.941.181 1.826.581 2.326.388-1.094.861-1.739 2.035-2.326.722-.467.919-1.093 1.744-1.453.599-.256 1.261-.101 1.453-.872-.191-1.782-.728-2.304-1.453-4.069z" fill-opacity=".996" fill-rule="evenodd" transform="matrix(7.332 0 0 9.227 -4606.2 -1868.5)" stroke="#000" stroke-width="1pt" fill="#000f0f"/><path d="M89.819 181.2v.29c0-.855.05-.374-.872 1.163-1.014.405-1.907.581-3.488.581-.881.661-1.457.457-2.035 1.744-.779.817-1.136 1.269-2.325 1.745-1.34 0-2.859.015-3.779-.291-.976-.527-2.371-.92-3.488-1.163-1.577.019-2.366.391-3.488.872-1.201.283-1.954.653-2.616 1.454-.782.312-.782.779-.872 1.744.415.691.037 1.069.872 1.162.465.569.581.589.581 1.744l.581 4.07c.67 1.595 1.176 1.722 2.325 2.616.997.472 1.71.929 2.907 1.453 1.07.55 2.357.627 3.488.872.929 1.097 1.524 1.532 2.907 2.035 1.426-.215 1.649-.82 2.907-1.163.491-.491 1.255-.089 1.744-.872.427-.823.616-2.682 1.163-3.488.638-1.294 1.513-1.95 2.907-2.325.765-.574 1.649-.645 2.616-.291-.064 1.726-.616 1.797-.872 3.198-.498.922-.818 1.737-.291 2.616 1.215.405 2.679.29 4.069.29 1.876-.316 2.012-.745 2.035-2.616-.277-1.177-.697-1.901-.872-3.197 0-.898-.075-1.839.291-2.326l2.616.582c.497.994.92 1.252 2.035.872.353-.55.893-.953 1.163-1.454.294.8.865 1.516 1.453 1.163.613-1.28 1.039-1.684 2.325-2.035 1.231-.267 2.04-.629 2.907-1.162.88-.542 1.427-1.245 2.326-1.744.616-.962 1.241-1.601 1.453-3.198 0-1.711-.346-2.841-.581-4.36-.648-1.017-.967-2.114-2.035-2.907-.847-.508-2.038-.124-3.198 0-1.3-.1-2.234-.29-3.778-.29-1.491 0-2.639.239-4.07.29h-4.069c-1.687 0-2.571.236-3.779.872-.856 0-.241-.083-1.163 1.454z" fill-rule="evenodd" fill-opacity=".996" transform="matrix(7.332 0 0 9.227 -4606.2 -1868.5)" stroke="#2b2b2b" stroke-width="1pt" fill="#d40f0f"/><path d="M157.55 191.67c.499.125 1.824.771 2.907.872 1.127.059.872.365.872 1.453.417.239.822.911 1.453 1.163.232-.43.702-1.099 1.163-1.453.269.627.575 1.305 1.453 1.744.737-1.398.674-1.721 2.616-1.744 1.222 1.159.858 2.235 0 3.197-.428 1.239-.61 2.314-.872 3.779.569.705 1.325.581 2.616.581.872-.522 2.009-.274 2.616.291 1.745-.087 1.681-.317 1.744-2.035v-4.069c.643-.643 1.335-.816 2.035-.291.726.6 1.075 1.992 1.744 2.907.099 1.278.257 2.453.872 3.197.656 1.369.87 1.68 2.616 1.744 1.522-.018 2.365-.228 3.779-.581 1.301-.238 1.724-.859 2.326-1.744 1.439-.387 1.842-.811 3.488-.872 1.497-.333 1.958-.87 2.906-1.453.626-.723.904-1.807 1.454-2.617.435-1.086.963-1.585 1.163-2.906.119-1.548.746-1.911 1.162-3.198.258-1.029-.256-1.678-1.162-2.325-.746-.647-1.834-.805-2.907-1.163h-8.139c-1.483 0-2.683-.191-4.07-.291-1.172-.676-1.724-1.124-2.616-2.034-1.261-.188-2.458-.898-3.488-1.454-.821-1.018-1.632-1.195-2.325-2.034-1.183-.502-1.789-1.153-3.198-1.744-1.199-.641-1.873-.971-3.488-1.163-1.387-.099-2.587-.291-4.069-.291-1.675 0-2.583.491-3.779.872-1.009 1.066-1.767 1.154-2.035 2.616-.411.823-.291 2.508-.291 3.779.292 1.363.874 2.669 1.163 3.779.115 1.224.291 1.869.291 3.488z" fill-rule="evenodd" fill-opacity=".996" transform="matrix(7.332 0 0 9.227 -4606.2 -1868.5)" stroke="#2b2b2b" stroke-width="1pt" fill="#d40f0f"/><path d="M82.843 189.92c-.633-.093-2.847-.291-4.36-.291-1.166.254-2.076.529-3.488.582-1.069.251-2.182.564-2.907 1.162-.976.092-1.281.403-2.325.582" transform="matrix(7.332 0 0 9.227 -4606.2 -1868.5)" stroke="#2b2b2b" stroke-width="1pt" fill="none"/><path d="M83.134 192.54h-.291c.856 0 .373-.05-1.163.872-1.154 1.008-1.957 1.514-2.616 2.907-.789.657-1.01 1.241-2.035 1.453-.608.646-1.217 1.217-1.744 1.744" transform="matrix(7.332 0 0 9.227 -4606.2 -1868.5)" stroke="#2b2b2b" stroke-width="1pt" fill="none"/><path d="M181.09 193.41h.29c-.812 0-.38-.036 1.163.581 1.216 1.062 1.267 1.595 2.907 1.744 1.532.558 1.696.89 2.325 2.326.212.493.291.915.291 1.744" transform="matrix(7.332 0 0 9.227 -4606.2 -1868.5)" stroke="#2b2b2b" stroke-width="1pt" fill="none"/><path d="M181.67 189.63c.468.18 2.119 1.062 3.197 1.163 1.16.157 2.298.291 3.779.291 1.369.185 2.076.618 3.488 1.162h2.326" transform="matrix(7.332 0 0 9.227 -4606.2 -1868.5)" stroke="#2b2b2b" stroke-width="1pt" fill="none"/><g transform="matrix(.896 0 0 .968 -4129.7 -983.53)"><path d="M520.83-31.396c-1.257 30.996-9.085 49.261-35.434 49.261-17.716 0-35.764-14.533-35.433-32.841.332-18.308 22.568-19.429 37.859-17.924 5.425-14.917-20.142-31.337-91.008-31.337-70.164-.856-124.67 67.913-216.75 65.682-92.078-2.231-132.95-105.689-115.44-131.362-6.861 22.856-22.32 37.052-29.182 59.909-6.861 22.856 24.578 54.695 17.716 77.551l-58.882 59.586s-5.123 54.373-11.984 77.229c0-16.421 31.404-55.358 73.414-55.358 35.433 0 152.45-25.056 159.45 246.31 0 213.657-140.57 222.092-185.51 206.929-.11 25.76 15.589 105.828 87.422 187.771 77.143 82.1 166.25 93.566 183.74 92.425-8.221-22.856-42.01-49.262-10.087-49.559 21.226.297 27.953 42.681 27.953 42.681s34.536-24.321 46.041-12.197c11.109 19.075-35.051 35.498-35.051 35.498s23.432 51.69 53.15 82.1c35.434 43.395 86.746 57.826 106.3 58.41 9.501.287 27.872 7.229 27.211 23.7-1.315 32.788-1.273 48.628-18.419 49.258h127.47c-17.146-.63-17.104-16.47-18.419-49.258-.661-16.47 17.71-23.412 27.211-23.7 19.554-.584 70.866-15.015 106.3-58.41 29.718-30.41 53.15-82.1 53.15-82.1s-46.16-16.424-35.051-35.498c11.505-12.123 46.041 12.197 46.041 12.197s6.727-42.385 27.953-42.681c31.923.297-1.866 26.703-10.087 49.559 17.494 1.14 106.6-10.325 183.75-92.425 71.83-81.943 87.53-162.013 87.42-187.771-44.95 15.16-185.52 6.725-185.52-206.929 6.996-271.363 124.02-246.31 159.45-246.31 42.01 0 73.42 38.937 73.42 55.358 0 4.094 4.05-23.319-3.67-48.265-7.72-24.945-46.31-42.918-56.6-78.226-10.29-35.307 7.72-87.951 0-114.948-7.72-26.993-22.06-32.841-22.06-32.841 17.5 25.669-23.37 129.129-115.45 131.362-92.082 2.231-146.59-66.539-216.75-65.682-70.866 0-96.433 16.42-91.008 31.337 15.291-1.504 37.527-.384 37.859 17.924.331 18.308-17.717 32.841-35.433 32.841-26.349 0-34.177-18.266-35.434-49.261h-81.601z" fill-rule="evenodd" fill="#0068bd"/><g stroke="#000"><path d="M215.15 335.313c0 213.657-140.57 222.092-185.51 206.929-.11 25.76 15.589 105.828 87.422 187.771 77.143 82.1 166.25 93.566 183.74 92.425-8.221-22.856-42.01-49.262-10.087-49.559 21.226.297 27.953 42.681 27.953 42.681s34.536-24.321 46.041-12.197c11.109 19.075-35.051 35.498-35.051 35.498s23.432 51.69 53.15 82.1c35.434 43.395 86.746 57.826 106.3 58.41 9.501.287 27.872 7.229 27.211 23.7-1.315 32.788-1.273 48.628-18.419 49.258h127.47c-17.146-.63-17.104-16.47-18.419-49.258-.661-16.47 17.71-23.412 27.211-23.7 19.554-.584 70.866-15.015 106.3-58.41 29.718-30.41 53.15-82.1 53.15-82.1s-46.16-16.424-35.051-35.498c11.505-12.123 46.041 12.197 46.041 12.197s6.727-42.385 27.953-42.681c31.923.297-1.866 26.703-10.087 49.559 17.494 1.14 106.6-10.325 183.75-92.425 71.83-81.943 87.53-162.013 87.42-187.771-44.95 15.16-176.21 15.347-176.21-198.309-2.107-8.48-2.776-25.292-4.275-33.203-1.499-7.911-35.472 24.808-38.855 24.642-11.423-.333-46.732-30.295-71.856-34.359-11.852-1.755-50.628 30.869-60.175 31.507-12.495.673-28.51-33.342-55.13-29.849-19.595 2.876-35.643 33.867-40.445 29.435-12.349-11.398-25.95-18.557-41.7-21.264-23.548-1.891-36.935 15.211-49.59 29.281-.443-11.488-17.165-22.978-36.213-21.534-13.7-129.75-122.91-262.234-131.79-266.386-6.593-2.444-4.078 12.607-6.117 18.911-16.619-4.228-33.238-8.455-49.858-12.683-3.181 7.493-1.712 14.986-9.545 22.48-19.861-13.854-30.421-40.64-45.631-41.562-5.423 16.507-1.544 50.257-2.316 75.385-12.574-7.753-25.149-15.506-37.724-23.259-1.01 8.2-2.02 16.4-3.031 24.6-1.214 9.853-51.204-26.508-61.016-26.745-9.811-.236-21.479 25.445-30.295 25.307-8.817-.138 56.995 39.836 73.293 220.674z" fill-rule="evenodd" fill="#e8e1cb"/><path d="M199.99 239.81s23.255-30.175 51.16-25.864c27.905 4.31 58.135 99.145 58.135 99.145" fill="none"/><path d="M279.05 114.799c0 4.311 18.603 73.281 34.881 94.835 16.278 21.553 53.485 38.795 72.088 64.659 18.604 25.865 27.905 96.986 27.905 96.986" fill="none"/><path d="M320.91 82.47s6.977 34.485 18.604 60.349 39.532 34.484 53.484 56.038c13.953 21.553 23.255 64.659 23.255 64.659" fill="none"/><path d="M211.61 388.523s32.555-4.311 60.46 30.175c27.906 34.485 32.556 79.746 32.556 79.746" fill="none"/><path d="M813.9 341.105s20.929-2.156 34.881 12.931c13.953 15.087 11.627 25.864 9.302 25.864" fill="none"/><path d="M811.57 362.664s18.603 0 25.579 4.311c6.977 4.311 9.302 25.864 9.302 25.864" fill="none"/><path d="M799.95 384.213c2.325 0 16.278-12.931 25.579-8.622 9.302 4.311 11.627 28.02 11.627 28.02" fill="none"/><path d="M788.32 394.993s16.278-2.155 25.58 4.311l6.976 17.242" fill="none"/><path d="M741.81 394.993c2.325 0 30.23 8.622 41.858 19.398 11.627 10.776 9.301 34.485 9.301 34.485" fill="none"/><path d="M874.36 407.922s6.976-4.311 23.254 8.621c16.278 12.932 18.604 28.02 18.604 28.02" fill="none"/><path d="M872.03 431.631s18.603 2.156 27.905 8.622c9.301 6.466 23.254 21.553 23.254 21.553" fill="none"/><path d="M865.06 459.65s23.255-8.622 32.556-4.311c9.302 4.311 25.58 17.242 25.58 17.242" fill="none"/></g><g transform="matrix(.545 -.222 .233 .491 695.97 290.53)"><path d="M-301.18-134.65v442.91h17.716v-442.91l-8.858-35.433-8.858 35.433z" fill-rule="evenodd" transform="translate(-248.03)" stroke="#000" fill="#b03f00"/><path d="M-301.18-134.65v407.48h17.716v-407.48l-8.858-35.433-8.858 35.433z" fill-rule="evenodd" transform="translate(35.433)" stroke="#000" fill="#b03f00"/><g stroke="#000" fill="none"><path d="M-248.027-99.215l17.717 400.734"/><path d="M-248.033-99.215l53.151 400.734"/><path d="M-248.03-99.215l88.584 400.734"/><path d="M-248.03-99.215l124.01 400.734"/><path d="M-265.75-99.215l-17.717 400.734"/><path d="M-265.75-99.215l-53.151 400.734"/><path d="M-265.75-99.215l-88.584 400.734"/><path d="M-265.75-99.215l-124.01 400.734"/><path d="M-265.75-99.215l-177.16 421.83"/><path d="M-248.03-99.215l177.16 421.83"/><path d="M-407.48 238.248h301.18"/><path d="M-124.02 196.068h-265.75"/><path d="M-372.05 153.889h230.32"/><path d="M-159.45 111.701h-194.88"/><path d="M-336.61 69.518c0 .692 159.45 0 159.45 0"/><path d="M-194.88 27.335h-124.02"/><path d="M-301.18-14.848c.581 0 89.343.041 88.583 0"/><path d="M-283.46-57.032h53.15"/><path d="M-531.49-78.124l17.717 400.734"/><path d="M-531.5-78.124l53.151 400.734"/><path d="M-531.49-78.124l88.584 400.734"/><path d="M-531.49-78.124l124.01 400.734"/><path d="M-549.22-78.124l-17.717 400.734"/><path d="M-549.21-78.124l-53.151 400.734"/><path d="M-549.21-78.124l-88.584 400.734"/><path d="M-549.22-78.124l-124.01 400.734"/><path d="M-549.21-78.123l-177.16 421.83"/><path d="M-531.5-78.123l177.16 421.83"/><path d="M-690.94 259.339h301.18"/><path d="M-407.48 217.159h-265.75"/><path d="M-655.51 174.98h230.32"/><path d="M-442.91 132.792h-194.88"/><path d="M-620.07 90.609c0 .692 159.45 0 159.45 0"/><path d="M-478.34 48.426h-124.02"/><path d="M-584.64 6.243c.581 0 89.343.041 88.583 0"/><path d="M-566.92-35.941h53.15"/></g><g fill-rule="evenodd" stroke="#000" fill="#b03f00"><path d="M-407.48 237.4h372.05v53.149l17.717 17.717h-17.717v35.433h17.717l-17.717 17.716 53.15 70.866-106.3 212.6h-566.93v-283.46h88.583v-70.866h53.149l106.3-53.149z"/><path d="M-566.93 361.42h531.5"/><path d="M-566.93 343.704h531.5"/><path d="M-566.93 308.27h531.5"/><path d="M-513.78 290.554h478.35"/><path d="M-35.433 361.42l-141.73 283.46"/><path d="M-407.48 272.84h230.32"/><path d="M-442.91 255.12c34.35 1.539 407.48 0 407.48 0"/><path d="M-53.15 255.12l-17.716 35.433"/><path d="M-70.866 308.27l-17.717 35.433"/><path d="M-230.32 308.27l-17.716 35.433"/><path d="M-212.6 308.27l-17.717 35.433"/><path d="M-53.15 396.85h-88.582l17.716-35.433"/><path d="M-70.866 432.28h-88.583l18.761-36.853-1.044 1.42"/><path d="M-88.583 467.72h-88.582l17.716-35.434"/><path d="M-106.3 503.15h-88.583l17.717-35.433"/><path d="M-124.02 538.58h-88.582l17.716-35.433"/><path d="M-141.736 574.013h-88.582l17.716-35.433"/><path d="M-53.15 396.85l70.866 35.433"/><path d="M-88.583 467.72l70.866 35.433"/><path d="M-160.45 433.8l-495.32-1.16"/><path d="M-175.57 468.68c-1.162 1.162-480.2-2.326-480.2-2.326"/><path d="M-212.6 538.58c-35.433 0-442.91 0-442.01 1.023"/><path d="M-230.317 574.02s-426.062-1.023-425.196 0"/><path d="M-159.454 609.446h-88.582l17.716-35.433"/><path d="M-177.17 644.88h-88.582l17.716-35.433"/><path d="M-496.06 379.131l-17.717 11.811v23.622h70.866l17.717-11.811"/><path d="M-372.044 379.131l-17.717 11.811v23.622h70.866l17.717-11.811"/><path d="M-496.06 485.431l-17.717 11.811v23.622h70.866l17.717-11.811"/><path d="M-372.044 485.431l-17.717 11.811v23.622h70.866l17.717-11.811"/></g><rect fill-rule="evenodd" height="23.622" width="70.866" y="379.13" x="-496.06"/><rect fill-rule="evenodd" height="23.622" width="70.866" y="379.13" x="-372.05"/><rect fill-rule="evenodd" height="23.622" width="70.866" y="485.43" x="-496.06"/><rect fill-rule="evenodd" height="23.622" width="70.866" y="485.43" x="-372.05"/><rect fill-rule="evenodd" height="17.717" width="88.583" stroke="#000" y="-99.213" x="-301.18" fill="#b03f00"/><rect fill-rule="evenodd" height="17.717" width="88.583" stroke="#000" y="-99.213" x="-584.65" fill="#b03f00"/><g stroke="#000" fill="none"><path d="M-407.48 237.4v-17.717h372.05v17.717"/><path d="M-389.76 219.68v17.717"/><path d="M-372.043 219.68v17.717"/><path d="M-354.327 219.679v17.717"/><path d="M-336.61 219.68v17.717"/><path d="M-318.894 219.681v17.717"/><path d="M-301.177 219.681v17.717"/><path d="M-283.46 219.68v17.717"/><path d="M-265.74 219.68v17.717"/><path d="M-248.03 219.681v17.717"/><path d="M-230.31 219.681v17.717"/><path d="M-212.59 219.68v17.717"/><path d="M-194.88 219.68v17.717"/><path d="M-177.16 219.681v17.717"/><path d="M-159.44 219.681v17.717"/><path d="M-141.73 219.68v17.717"/><path d="M-124.01 219.68v17.717"/><path d="M-106.3 219.679v17.717"/><path d="M-88.58 219.68v17.717"/><path d="M-70.86 219.679v17.717"/><path d="M-53.15 219.679v17.717"/></g></g><g stroke="#000"><path d="M32.92 587.963c-.11 25.76 12.3 60.104 84.133 142.049 77.143 82.1 166.25 93.566 183.74 92.425-8.221-22.856-42.01-49.262-10.087-49.559 21.226.297 27.953 42.681 27.953 42.681s34.536-24.321 46.041-12.197c11.109 19.075-35.051 35.498-35.051 35.498s23.432 51.69 53.15 82.1c35.434 43.395 86.746 57.826 106.3 58.41 9.501.287 27.872 7.229 27.211 23.7-1.315 32.788-1.273 48.628-18.419 49.258h127.47c-17.146-.63-17.104-16.47-18.419-49.258-.661-16.47 17.71-23.412 27.211-23.7 19.554-.584 70.866-15.015 106.3-58.41 29.718-30.41 53.15-82.1 53.15-82.1s-46.16-16.424-35.051-35.498c11.505-12.123 46.041 12.197 46.041 12.197s6.727-42.385 27.953-42.681c31.923.297-1.866 26.703-10.087 49.559 17.494 1.14 106.6-10.325 183.75-92.425 71.83-81.943 87.53-140.677 87.42-166.434-2.81.946-59.78-12.771-69.48-3.974-12.98-9.491-38.09-19.083-57.601-19.431-22.8-.349-43.289 8.545-50.318 23.831-13.606-18.242-53.266-27.396-61.641-26.204-27.333 4.36-44.374 38.295-35.418 80.948-20.641-18.309-27.998-20.109-51.111-20.168-50.423-.112-55.381 83.249-129.14 82.751-58.401-.412-83.079-29.119-100.29-49.864 22.249-17.695 20.85-24.602 6.129-42.417-16.689-16.74-42.762-15.24-60.658 1.673-17.897-16.421-18.059-25.992-35.776-49.262-17.315-22.743-29.608-24.994-61-24.877-31.391.119-55.464 1.672-67.577 32.153-15.402 7.964-37.213 24.622-54.089 21.336-10.298-25.991-43.228-56.183-70.99-56.538s-72.792 52.31-82.747 76.857c-17.683-34.349-36.276-39.048-51.789-39.762-15.512-.714-21.083 23.06-27.181 37.361z" fill-rule="evenodd" fill="#00c8ff"/><path d="M167.72 531.138s16.443 9.144 36.175 36.577l3.289 39.625" fill="none"/><path d="M184.16 546.384s32.886 3.048 46.041 24.385c13.155 21.336 6.577 45.721 6.577 45.721" fill="none"/><path d="M220.34 662.213s23.021-51.817 65.773-30.481c42.752 21.337 39.464 54.866 36.175 54.866h-3.289v3.048" fill="none"/><path d="M263.09 714.024s23.021-9.144 49.33 0l9.866 30.48" fill="none"/><path d="M259.8 726.221s26.309-6.096 42.752 3.048l3.289 24.384" fill="none"/><path d="M200.61 735.36s3.289 24.384 19.732 39.626c16.443 15.24 46.041 21.336 46.041 21.336" fill="none"/><path d="M361.75 747.557c32.886 15.24 39.463 42.673 39.463 42.673" fill="none"/><path d="M374.9 735.36c49.33 0 46.041 27.433 46.041 27.433" fill="none"/><path d="M302.56 589.056s29.598-21.336 69.062 0c39.463 21.337 16.443 48.77 16.443 48.77" fill="none"/><path d="M322.29 552.474s39.464-24.384 72.35 0c32.887 24.384 23.021 42.673 23.021 42.673" fill="none"/><path d="M437.39 567.72s9.865 15.24 19.731 30.48c9.866 15.241 26.31 12.193 26.31 12.193" fill="none"/><path d="M526.18 677.45s23.02 30.481 75.639 36.577c52.618 6.096 98.659-12.193 98.659-12.193" fill="none"/><path d="M526.18 717.073s29.598 27.433 69.061 27.433c39.464 0 95.371-15.24 95.371-15.24" fill="none"/><path d="M526.18 744.508s16.443 24.384 75.639 24.384c59.195 0 85.504-12.192 85.504-12.192" fill="none"/><path d="M522.89 781.081s6.578 12.193 36.175 18.289c29.598 6.096 59.196-9.144 59.196-9.144" fill="none"/><path d="M618.26 805.467s19.732 24.384 46.041 24.384 0-36.576 19.732-42.673c19.732-6.096 49.329 0 49.329 0" fill="none"/><path d="M605.11 842.049s19.732 24.384 49.33 18.289c29.598-6.097 65.773-51.817 65.773-51.817l23.02-15.24" fill="none"/><path d="M388.06 899.959s3.288-15.24 39.464-9.144c36.175 6.096 0 51.817 39.463 51.817 39.464 0 75.639-21.336 98.66-24.384 23.02-3.048 65.772 21.336 88.793 27.433 23.02 6.096 65.773-24.384 65.773-24.384" fill="none"/><path d="M568.94 963.967c3.289 0 13.155-6.097 36.175-3.048 23.021 3.048 49.33 3.048 49.33 3.048" fill="none"/><path d="M559.07 994.451s16.444-6.096 29.598-6.096c13.155 0 9.866 18.286 9.866 18.286" fill="none"/><path d="M483.43 656.114c-3.289 0 16.443 0 26.309 3.047 9.866 3.048 13.154 24.384 13.154 24.384" fill="none"/><path d="M480.14 677.45s13.154-6.096 26.309 0l6.577 27.433" fill="none"/><path d="M470.28 701.835c0-3.047 19.732-9.144 26.309-6.096l6.577 30.48" fill="none"/><path d="M463.7 735.36s16.443-12.192 26.309-12.192l6.577 21.336" fill="none"/><path d="M460.41 762.794l23.021-12.192 9.865 18.288" fill="none"/><path d="M746.52 622.581s13.155-3.048 32.886 0c19.732 3.047 26.31 24.384 26.31 24.384" fill="none"/><path d="M753.1 646.966c0-3.048 19.732-3.048 26.309 0 6.578 3.047 16.444 18.289 16.444 18.289" fill="none"/><path d="M789.27 710.974c-3.288 0 3.289 12.193 6.578 27.433 3.288 15.24-13.155 30.48-13.155 30.48" fill="none"/><path d="M855.05 698.786c-3.288 0 19.732 21.336 23.021 39.625 3.288 18.289-16.444 36.577-16.444 36.577" fill="none"/><path d="M871.49 689.638s23.021 30.48 23.021 45.721c0 15.241-16.443 39.626-16.443 39.626" fill="none"/><path d="M894.51 668.302s9.866 12.193 13.154 27.433c3.289 15.24-6.577 39.625-6.577 39.625" fill="none"/><path d="M924.11 704.885s16.443 18.289 9.866 33.529c-6.578 15.24-19.732 27.433-19.732 27.433" fill="none"/><path d="M950.42 714.024c-3.289 3.047 6.577 21.336 3.288 30.48-3.288 9.144-19.731 24.384-19.731 24.384" fill="none"/><path d="M957 665.253c0 3.047 23.021 21.336 23.021 42.673 0 21.336-13.155 42.673-13.155 42.673" fill="none"/><path d="M865.735 596.003s16.443 3.049 19.732 18.292c3.289 15.244-9.866 30.486-9.866 30.486" fill="none"/><path d="M872.315 568.564s26.309 27.436 32.887 36.582c6.577 9.146-3.289 30.486-3.289 30.486" fill="none"/><path d="M865.735 565.514c3.289 3.049 32.886 3.049 46.041 18.292l6.577 42.68" fill="none"/></g><path d="M503.45 7.085c5.813-4.651 24.417-15.115 59.298-13.953 34.881 1.163 59.299 17.441 59.299 17.441l-2.326-45.346s-23.254-11.627-54.647-11.627l-58.136 6.976-3.488 46.509z" fill-rule="evenodd" stroke="#000" stroke-width="1pt" fill="#ffd400"/><g fill-rule="evenodd" stroke="#000" stroke-width="1.25" fill="#ffd400"><path d="M-17.71 144.432c0 16.378 2.547 26.75 20.264 26.75 17.716 0 24.239-16.534 24.664-28.274.538-14.825 3.489-37.419 38.921-37.419 17.717 0 128.01-10.912 131.3 229.924 3.288 240.835-184.24 191.629-184.24 191.629s-20.175 82.115 90.067 215.528c84.663 96.473 205.54 99.078 205.54 99.078s18.724 38.721 56.289 88.658c54.318 72.213 124.02 56.547 124.02 72.973 0 16.417-17.545 9.196-17.717 24.037.172 18.002 9.363 25.863 26.509 25.233s17.104-16.473 18.419-49.27c.661-16.473-17.71-23.416-27.211-23.703-19.554-.584-70.866-15.017-106.3-58.42-29.718-30.415-53.15-82.114-53.15-82.114s46.16-16.426 35.051-35.504c-11.505-12.125-46.041 12.199-46.041 12.199s-6.727-42.392-27.953-42.688c-31.923.297 1.866 26.707 10.087 49.567-17.494 1.14-106.6-10.327-183.74-92.44-71.832-81.956-87.531-162.04-87.421-187.801 44.945 15.162 185.51 6.726 185.51-206.962-7.02-271.407-124.04-246.35-159.47-246.35-42.01 0-73.414 38.943-73.414 55.367z"/><path d="M1141 144.432c0 16.378-2.547 26.75-20.264 26.75-17.716 0-24.239-16.534-24.664-28.274-.538-14.825-3.489-37.419-38.921-37.419-17.717 0-128.01-10.912-131.3 229.924-3.288 240.835 184.24 191.629 184.24 191.629s20.175 82.115-90.067 215.528c-84.663 96.473-205.54 99.078-205.54 99.078s-18.724 38.721-56.289 88.658c-54.318 72.213-124.02 56.547-124.02 72.973 0 16.417 17.545 9.196 17.717 24.037-.172 18.002-9.363 25.863-26.509 25.233s-17.104-16.473-18.419-49.27c-.661-16.473 17.71-23.416 27.211-23.703 19.554-.584 70.866-15.017 106.3-58.42 29.718-30.415 53.15-82.114 53.15-82.114s-46.16-16.426-35.051-35.504c11.505-12.125 46.041 12.199 46.041 12.199s6.727-42.392 27.953-42.688c31.923.297-1.866 26.707-10.087 49.567 17.494 1.14 106.6-10.327 183.74-92.44 71.832-81.956 87.531-162.04 87.421-187.801-44.945 15.162-185.51 6.726-185.51-206.962 7.02-271.407 124.04-246.35 159.47-246.35 42.01 0 73.414 38.943 73.414 55.367z"/><path d="M999.24-162.792c-26.42 0-22.65 24.766-17.717 39.841 4.933 15.074 35.433 25.852 63.117 9.429-7.642 24.877-27.684 98.54-109.4 100.431-95.371-1.888-103.64-66.556-209.37-67.068-105.73-.512-124.84 14.367-123.44 48.757 1.257 31.001 9.085 49.27 35.434 49.27 17.716 0 35.764-14.535 35.433-32.846-.332-18.311-22.568-19.432-37.859-17.928-5.425-14.919 20.142-31.342 91.008-31.342 70.164-.856 124.67 67.925 216.75 65.693 92.082-2.232 132.95-105.715 115.45-131.384-18.525-31.341-31.256-32.846-59.401-32.846z"/><path d="M124.02-162.792c26.42 0 22.65 24.766 17.717 39.841-4.933 15.074-35.433 25.852-63.117 9.429 7.642 24.877 27.684 98.54 109.4 100.431 95.371-1.888 103.64-66.556 209.37-67.068 105.73-.512 124.84 14.367 123.44 48.757-1.257 31.001-9.085 49.27-35.434 49.27-17.716 0-35.764-14.535-35.433-32.846.332-18.311 22.568-19.432 37.859-17.928 5.425-14.919-20.142-31.342-91.008-31.342-70.164-.856-124.67 67.925-216.75 65.693-92.082-2.232-132.95-105.715-115.45-131.384 18.525-31.341 31.256-32.846 59.401-32.846z"/></g></g><path d="M-1576.8 1353.5c17.72 2.98 674.45-205.79 673.23-531.49v-1594.5h-1346.5v1594.5c-1.22 325.7 673.23 531.49 673.23 531.49z" transform="translate(-2078.9 -953.42)" stroke="#000" stroke-width="11.125" fill="none"/></g></g></svg>