<svg xmlns="http://www.w3.org/2000/svg" height="512" width="512" version="1">
    <g>
        <path fill-rule="evenodd" fill="#229e45" d="M0 0h512v512h-512z"/>
        <g>
            <path d="M261.358 405.394l229.871-149.193-231.263-149.597-230.627 149.956 232.018 148.834z" fill-rule="evenodd" fill="#f8e509"/>
            <path d="M361.507 255.935c0 53.604-43.539 97.059-97.246 97.059-53.708 0-97.246-43.455-97.246-97.059s43.539-97.059 97.246-97.059c53.708 0 97.246 43.455 97.246 97.059z" fill-rule="evenodd" fill="#2b49a3"/>
            <path fill-rule="evenodd" fill="#ffffef" d="M232.415 314.189l-3.006-1.734-3.122 1.544.699-3.469-2.412-2.542 3.448-.404 1.619-3.111 1.445 3.218 3.402.618-2.551 2.388z"/>
            <path fill-rule="evenodd" fill="#ffffef" d="M297.586 330.691l-3.006-1.734-3.122 1.544.699-3.469-2.412-2.542 3.448-.404 1.619-3.111 1.445 3.218 3.402.618-2.551 2.388z"/>
            <path fill-rule="evenodd" fill="#ffffef" d="M269.384 304.293l-2.595-1.498-2.696 1.334.604-2.996-2.082-2.196 2.978-.349 1.398-2.687 1.247 2.779 2.938.534-2.203 2.062z"/>
            <path fill-rule="evenodd" fill="#ffffef" d="M335.262 294.774l-2.549-1.47-2.648 1.309.593-2.94-2.045-2.155 2.924-.342 1.373-2.637 1.225 2.728 2.885.524-2.164 2.024z"/>
            <path fill-rule="evenodd" fill="#ffffef" d="M268.306 275.118l-3.006-1.734-3.122 1.544.699-3.469-2.412-2.542 3.448-.404 1.619-3.111 1.445 3.218 3.402.618-2.551 2.388z"/>
            <path fill-rule="evenodd" fill="#ffffef" d="M188.063 244.992l-3.006-1.734-3.122 1.544.699-3.469-2.412-2.542 3.448-.404 1.619-3.111 1.445 3.218 3.402.618-2.551 2.388z"/>
            <path fill-rule="evenodd" fill="#ffffef" d="M197.713 285.067l-3.006-1.734-3.122 1.544.699-3.469-2.412-2.542 3.448-.404 1.619-3.111 1.445 3.218 3.402.618-2.551 2.388z"/>
            <path fill-rule="evenodd" fill="#ffffef" d="M297.813 230.189l-2.655-1.532-2.758 1.364.617-3.063-2.13-2.245 3.046-.357 1.43-2.747 1.276 2.842 3.005.545-2.254 2.108z"/>
            <path fill-rule="evenodd" fill="#ffffef" d="M292.196 256.246l-2.09-1.206-2.171 1.074.486-2.412-1.677-1.768 2.398-.281 1.126-2.163 1.004 2.238 2.365.43-1.774 1.66z"/>
            <path fill-rule="evenodd" fill="#ffffef" d="M183.372 292.302l-2.005-1.158-2.082 1.031.466-2.316-1.608-1.697 2.3-.27 1.08-2.077.963 2.148 2.269.412-1.702 1.594z"/>
            <path fill-rule="evenodd" fill="#ffffef" d="M335.86 301.503l-1.636-.866-1.699.771.38-1.732-1.312-1.269 1.877-.202.881-1.553.786 1.606 1.851.308-1.388 1.192z"/>
            <path fill-rule="evenodd" fill="#ffffef" d="M183.372 292.302l-2.005-1.158-2.082 1.031.466-2.316-1.608-1.697 2.3-.27 1.08-2.077.963 2.148 2.269.412-1.702 1.594z"/>
            <path fill-rule="evenodd" fill="#ffffef" d="M183.372 292.302l-2.005-1.158-2.082 1.031.466-2.316-1.608-1.697 2.3-.27 1.08-2.077.963 2.148 2.269.412-1.702 1.594z"/>
            <path fill-rule="evenodd" fill="#ffffef" d="M215.305 292.294l-2.005-1.158-2.082 1.031.466-2.316-1.608-1.697 2.3-.27 1.08-2.077.963 2.148 2.269.412-1.702 1.594z"/>
            <path fill-rule="evenodd" fill="#ffffef" d="M211.337 302.917l-2.005-1.158-2.082 1.031.466-2.316-1.608-1.697 2.3-.27 1.08-2.077.963 2.148 2.269.412-1.702 1.594z"/>
            <path fill-rule="evenodd" fill="#ffffef" d="M277.644 283.579l-2.005-1.158-2.082 1.031.466-2.316-1.608-1.697 2.3-.27 1.08-2.077.963 2.148 2.269.412-1.702 1.594z"/>
            <path fill-rule="evenodd" fill="#ffffef" d="M258.187 283.572l-2.005-1.158-2.082 1.031.466-2.316-1.608-1.697 2.3-.27 1.08-2.077.963 2.148 2.269.412-1.702 1.594z"/>
            <path fill-rule="evenodd" fill="#ffffef" d="M205.476 276.796l-1.256-.726-1.305.646.292-1.451-1.008-1.064 1.442-.169.677-1.302.604 1.346 1.422.258-1.067.999z"/>
            <path fill-rule="evenodd" fill="#ffffef" d="M333.181 309.933l-2.005-1.158-2.082 1.031.466-2.316-1.608-1.697 2.3-.27 1.08-2.077.963 2.148 2.269.412-1.702 1.594z"/>
            <path fill-rule="evenodd" fill="#ffffef" d="M317.08 312.104l-1.662-.962-1.726.857.386-1.924-1.333-1.41 1.906-.224.895-1.726.799 1.785 1.88.343-1.41 1.325z"/>
            <path fill-rule="evenodd" fill="#ffffef" d="M324.768 311.83l-1.548-.894-1.608.796.36-1.787-1.242-1.31 1.776-.208.834-1.603.744 1.658 1.752.318-1.314 1.23z"/>
            <path fill-rule="evenodd" fill="#ffffef" d="M346.738 292.688l-1.491-.86-1.549.766.347-1.72-1.196-1.26 1.711-.2.803-1.543.717 1.596 1.688.306-1.266 1.184z"/>
            <path fill-rule="evenodd" fill="#ffffef" d="M316.778 322.885l-1.945-1.063-2.021.946.452-2.126-1.561-1.558 2.232-.248 1.048-1.907.935 1.972 2.202.379-1.651 1.463z"/>
            <path fill-rule="evenodd" fill="#ffffef" d="M316.955 331.608l-1.775-1.063-1.844.946.413-2.126-1.424-1.558 2.036-.248.956-1.907.853 1.972 2.009.379-1.507 1.463z"/>
            <path fill-rule="evenodd" fill="#ffffef" d="M302.348 311.838l-1.491-.86-1.549.766.347-1.72-1.196-1.26 1.711-.2.803-1.543.717 1.596 1.688.306-1.266 1.184z"/>
            <path fill-rule="evenodd" fill="#ffffef" d="M288.554 311.838l-1.491-.86-1.549.766.347-1.72-1.196-1.26 1.711-.2.803-1.543.717 1.596 1.688.306-1.266 1.184z"/>
            <path fill-rule="evenodd" fill="#ffffef" d="M265.131 291.356l-1.491-.86-1.549.766.347-1.72-1.196-1.26 1.711-.2.803-1.543.717 1.596 1.688.306-1.266 1.184z"/>
            <path fill-rule="evenodd" fill="#ffffef" d="M267.6 333.116l-1.262-.729-1.311.649.293-1.457-1.012-1.068 1.447-.17.68-1.307.606 1.352 1.428.259-1.071 1.003z"/>
            <path fill-rule="evenodd" fill="#ffffef" d="M232.415 265.638l-3.006-1.734-3.122 1.544.699-3.469-2.412-2.542 3.448-.404 1.619-3.111 1.445 3.218 3.402.618-2.551 2.388z"/>
            <path d="M355.113 290.934c1.482-3.876 3.394-9.721 4.409-15.086-51.652-45.374-109.232-68.618-181.988-63.836-2.608 5.001-4.696 10.236-6.456 15.901 86.206-8.224 149.395 29.942 184.038 63.021z" fill-rule="evenodd" fill="#fff"/>
            <path d="M331.893 265.425l1.846 1.008c-.29.654-.367 1.227-.236 1.715.136.493.476.922 1.017 1.288.574.392 1.087.563 1.538.517.457-.046.797-.233 1.018-.56.139-.209.196-.429.171-.658-.02-.229-.147-.503-.378-.819-.159-.214-.548-.666-1.166-1.355-.793-.885-1.267-1.631-1.42-2.24-.212-.855-.083-1.633.389-2.333.305-.451.714-.786 1.23-1.005.523-.22 1.093-.27 1.708-.151.619.12 1.269.411 1.945.872 1.107.752 1.775 1.561 2.004 2.426.233.868.091 1.718-.43 2.551l-1.833-1.131c.23-.507.286-.945.166-1.314-.112-.37-.42-.725-.922-1.065-.517-.351-.994-.52-1.43-.506-.282.009-.499.128-.653.357-.142.21-.173.449-.098.718.098.342.509.909 1.238 1.703.727.793 1.223 1.44 1.487 1.942.27.501.393 1.022.367 1.562-.018.539-.217 1.088-.593 1.648-.342.508-.802.886-1.381 1.138-.579.252-1.198.314-1.858.182-.657-.134-1.369-.462-2.134-.983-1.115-.755-1.798-1.595-2.048-2.516-.246-.924-.096-1.923.457-2.992z" fill="#309e3a"/>
            <path d="M323.141 259.68l1.885.931c-.263.665-.318 1.241-.167 1.722.158.487.511.903 1.068 1.247.591.367 1.108.519 1.557.455.457-.065.79-.264.995-.599.133-.214.18-.437.145-.665-.029-.229-.167-.498-.412-.805-.167-.207-.571-.642-1.218-1.306-.828-.853-1.33-1.58-1.508-2.181-.246-.846-.148-1.627.293-2.347.288-.462.684-.813 1.189-1.053.515-.241 1.083-.315 1.701-.222.624.097 1.284.361 1.978.794 1.138.706 1.837 1.488 2.099 2.343.268.859.159 1.713-.325 2.566l-1.879-1.056c.209-.515.249-.954.114-1.318-.128-.366-.449-.708-.963-1.028-.532-.33-1.015-.479-1.449-.447-.282.019-.494.149-.639.384-.131.215-.156.453-.069.72.111.338.545.889 1.305 1.653.758.762 1.281 1.389 1.564 1.88.291.489.434 1.005.43 1.545.005.54-.173 1.096-.525 1.672-.321.519-.769.917-1.335 1.193-.569.275-1.186.361-1.851.256-.659-.108-1.384-.408-2.171-.896-1.143-.712-1.86-1.522-2.147-2.433-.286-.914-.175-1.917.334-3.007z" fill="#309e3a"/>
            <path d="M312.309 256.777l5.548-9.123 6.738 4.129-.939 1.544-4.902-3.005-1.232 2.022 4.562 2.796-.935 1.537-4.562-2.795-1.509 2.483 5.076 3.111-.936 1.538-6.91-4.237z" fill="#309e3a"/>
            <path d="M296.532 243.821l.823-1.602 4.118 2.132-1.941 3.784c-.602.182-1.358.225-2.274.129-.907-.099-1.75-.348-2.529-.752-.99-.512-1.746-1.164-2.269-1.96-.52-.8-.769-1.681-.742-2.647.029-.971.277-1.91.745-2.822.506-.99 1.167-1.761 1.976-2.318.805-.554 1.714-.831 2.721-.831.769-.002 1.605.233 2.509.698 1.176.609 1.965 1.332 2.367 2.169.411.836.486 1.739.227 2.711l-2.08-.626c.106-.535.043-1.033-.19-1.492-.226-.462-.615-.835-1.165-1.12-.837-.433-1.636-.511-2.405-.233-.763.277-1.412.937-1.948 1.983-.58 1.128-.767 2.104-.557 2.928.212.818.721 1.438 1.532 1.858.399.206.839.335 1.319.387.487.05.931.037 1.337-.038l.619-1.206-2.19-1.132z" fill="#309e3a"/>
            <path d="M227.725 226.758l1.551-10.574 3.181.471.856 7.493 2.944-6.934 3.192.471-1.55 10.575-1.976-.292 1.222-8.324-3.312 8.015-2.047-.303-.865-8.632-1.221 8.323-1.976-.291z" fill="#309e3a"/>
            <path d="M216.968 225.508l.995-10.644 7.859.743-.166 1.8-5.72-.539-.222 2.36 5.321.501-.167 1.794-5.322-.502-.269 2.896 5.919.557-.166 1.795-8.062-.761z" fill="#309e3a"/>
            <g>
                <path d="M181.314 218.817c.029-1.088.216-1.997.561-2.727.256-.537.599-1.017 1.026-1.437.432-.421.901-.729 1.406-.924.67-.264 1.439-.384 2.304-.361 1.568.044 2.808.566 3.719 1.567.919 1.002 1.353 2.374 1.306 4.112-.047 1.724-.551 3.063-1.513 4.014-.96.947-2.222 1.399-3.784 1.356-1.584-.043-2.827-.561-3.734-1.553-.908-.997-1.338-2.346-1.292-4.046z" fill="#309e3a"/>
                <path d="M183.535 218.797c-.033 1.209.22 2.136.759 2.777.539.638 1.238.968 2.094.99.855.023 1.566-.267 2.13-.868.568-.607.869-1.53.903-2.769.033-1.224-.211-2.145-.731-2.762-.516-.617-1.217-.937-2.102-.962-.885-.024-1.607.263-2.167.86-.559.592-.855 1.503-.887 2.732z" fill="#f7ffff"/>
            </g>
            <g>
                <path d="M193.981 224.456l.13-10.69 4.524.055c1.139.014 1.963.12 2.473.321.516.195.925.541 1.229 1.036s.452 1.057.444 1.69c-.009.802-.253 1.463-.729 1.982-.476.515-1.182.834-2.118.959.461.277.842.581 1.137.911.301.328.703.912 1.207 1.75l1.275 2.1-2.571-.03-1.526-2.345c-.541-.837-.913-1.364-1.113-1.581-.202-.221-.415-.372-.642-.453-.226-.084-.586-.131-1.081-.136l-.435-.006-.055 4.463-2.15-.026z" fill="#309e3a"/>
                <path d="M196.214 218.313l1.591.019c1.032.013 1.676-.023 1.934-.107.257-.085.46-.233.607-.445s.223-.479.228-.799c.004-.36-.089-.651-.281-.871-.185-.226-.453-.371-.801-.433-.174-.026-.698-.045-1.569-.056l-1.677-.02-.033 2.712z" fill="#fff"/>
            </g>
            <g>
                <path d="M206.144 214.307l3.924.2c.885.046 1.555.148 2.012.308.614.216 1.133.572 1.553 1.066.422.493.731 1.088.93 1.785.197.692.272 1.537.222 2.537-.044.879-.191 1.631-.44 2.256-.306.763-.715 1.372-1.234 1.828-.389.345-.907.603-1.55.775-.481.127-1.119.169-1.912.129l-4.038-.207.534-10.677z" fill="#309e3a"/>
                <path d="M208.205 216.212l-.354 7.072 1.603.081c.599.032 1.034.019 1.303-.035.352-.07.648-.203.886-.4.243-.197.448-.53.616-.998.17-.473.275-1.122.316-1.947s0-1.464-.122-1.913c-.123-.449-.309-.803-.558-1.065-.248-.261-.571-.445-.968-.553-.296-.083-.883-.148-1.758-.192l-.964-.05z" fill="#fff"/>
            </g>
            <g>
                <path d="M258.494 233.376l2.481-10.392 3.355.81c1.27.307 2.087.559 2.448.756.555.299.971.759 1.246 1.38.276.617.314 1.338.117 2.165-.152.638-.394 1.147-.73 1.526-.333.379-.71.65-1.127.815-.412.161-.811.237-1.198.228-.522-.022-1.256-.146-2.202-.375l-1.362-.33-.936 3.92-2.091-.504z" fill="#309e3a"/>
                <path d="M262.65 225.244l-.704 2.949 1.144.276c.825.198 1.388.277 1.691.235.305-.042.561-.16.772-.353.215-.193.36-.443.433-.75.09-.378.055-.716-.107-1.015-.164-.3-.407-.521-.73-.663-.239-.108-.734-.253-1.487-.434l-1.01-.244z" fill="#fff"/>
            </g>
            <g>
                <path d="M268.408 236.326l3.537-10.081 4.268 1.511c1.074.379 1.82.746 2.24 1.101.426.352.703.811.833 1.378s.091 1.148-.119 1.744c-.265.757-.707 1.304-1.323 1.642-.615.334-1.386.409-2.312.227.348.412.611.821.785 1.228.181.409.374 1.092.584 2.047l.537 2.401-2.425-.858-.696-2.713c-.246-.968-.429-1.587-.55-1.857-.12-.273-.274-.485-.463-.635-.187-.154-.513-.313-.981-.478l-.41-.146-1.477 4.21-2.028-.719z" fill="#309e3a"/>
                <path d="M272.473 231.231l1.5.531c.972.344 1.593.518 1.864.52.271.003.511-.071.719-.225.208-.152.364-.381.47-.683.119-.34.124-.645.014-.916-.103-.274-.311-.496-.62-.668-.157-.081-.646-.266-1.468-.557l-1.582-.561-.897 2.559z" fill="#fff"/>
            </g>
            <g>
                <path d="M281.01 235.81c.323-1.04.749-1.864 1.276-2.471.394-.448.851-.816 1.379-1.104.53-.288 1.065-.456 1.602-.507.718-.072 1.489.022 2.317.281 1.499.468 2.551 1.309 3.159 2.522.612 1.214.661 2.652.145 4.313-.511 1.647-1.358 2.797-2.539 3.451-1.18.649-2.518.739-4.011.273-1.512-.472-2.57-1.309-3.176-2.511-.605-1.207-.655-2.623-.151-4.246z" fill="#309e3a"/>
                <path d="M283.158 236.408c-.359 1.154-.366 2.114-.019 2.88.347.759.93 1.267 1.749 1.524.819.255 1.579.171 2.285-.256.712-.428 1.251-1.235 1.618-2.418.363-1.17.377-2.122.042-2.858-.329-.733-.918-1.233-1.764-1.497-.846-.265-1.619-.186-2.318.237-.698.418-1.229 1.214-1.594 2.388z" fill="#fff"/>
            </g>
            <g>
                <path d="M301.684 250.758l4.893-9.497 4.019 2.087c1.01.526 1.699.992 2.067 1.402.372.407.585.901.635 1.48s-.07 1.149-.358 1.711c-.367.713-.88 1.193-1.538 1.443-.655.246-1.428.213-2.32-.097.288.456.491.899.609 1.326.122.43.22 1.132.296 2.108l.199 2.451-2.282-1.186-.316-2.782c-.11-.994-.205-1.632-.288-1.916-.08-.288-.204-.52-.371-.694-.163-.177-.465-.381-.904-.608l-.387-.201-2.042 3.964-1.91-.992z" fill="#309e3a"/>
                <path d="M306.412 246.262l1.413.733c.916.477 1.508.734 1.776.774.267.041.515-.001.743-.123.226-.123.412-.327.56-.613.165-.319.211-.62.14-.904-.066-.285-.24-.535-.522-.748-.144-.102-.603-.355-1.378-.756l-1.489-.773-1.243 2.409z" fill="#fff"/>
            </g>
            <g>
                <path d="M341.09 270.205c.607-.902 1.251-1.567 1.933-1.997.504-.315 1.049-.534 1.635-.658.591-.121 1.15-.128 1.679-.021.707.141 1.42.454 2.137.942 1.298.882 2.064 1.992 2.297 3.329.237 1.34-.131 2.729-1.103 4.171-.963 1.428-2.103 2.285-3.421 2.569-1.317.279-2.622-.021-3.918-.901-1.31-.891-2.083-1.999-2.317-3.325-.232-1.331.128-2.701 1.077-4.109z" fill="#309e3a"/>
                <path d="M342.973 271.387c-.675 1.003-.958 1.919-.847 2.752.115.829.527 1.483 1.235 1.966.71.481 1.463.621 2.261.418.804-.205 1.552-.82 2.244-1.847.683-1.014.97-1.922.861-2.723-.105-.799-.524-1.447-1.258-1.946s-1.495-.647-2.286-.444c-.788.198-1.524.807-2.21 1.825z" fill="#fff"/>
            </g>
            <path d="M246.427 228.95l1.714-7.504 5.542 1.278-.288 1.268-4.032-.928-.384 1.663 3.755.866-.291 1.263-3.75-.863-.468 2.041 4.175.962-.288 1.265-5.685-1.31z" fill="#309e3a"/>
        </g>
    </g>
</svg>
