<svg xmlns="http://www.w3.org/2000/svg" id="flag-icon-css-br" width="512" height="512">
  <g stroke-width="1pt">
    <path fill="#229e45" fill-rule="evenodd" d="M0 0h512v512H0z"/>
    <path fill="#f8e509" fill-rule="evenodd" d="M261.36 405.4l229.87-149.2-231.26-149.6L29.34 256.57l232.02 148.83z"/>
    <path fill="#2b49a3" fill-rule="evenodd" d="M361.52 256c0 53.63-43.54 97.1-97.25 97.1s-97.25-43.47-97.25-97.1 43.54-97.09 97.25-97.09 97.25 43.47 97.25 97.1z"/>
    <path fill="#ffffef" fill-rule="evenodd" d="M232.3 314.16l-3-1.74-3.12 1.55.7-3.47-2.41-2.54 3.44-.4 1.62-3.12 1.45 3.22 3.4.62-2.55 2.38m65.64 20l-3-1.74-3.12 1.55.7-3.47-2.41-2.54 3.44-.4 1.62-3.11 1.45 3.21 3.4.62-2.56 2.39m-27.6-22.87l-2.6-1.5-2.7 1.33.6-3-2.08-2.19 2.98-.35 1.4-2.68 1.25 2.78 2.93.53-2.2 2.06m66.23-6.46l-2.55-1.47-2.64 1.3.59-2.93-2.05-2.16 2.93-.34 1.37-2.64 1.23 2.73 2.88.52-2.16 2.03m-66.6-16.77l-3.01-1.74-3.12 1.55.7-3.47-2.41-2.54 3.44-.4 1.62-3.12 1.45 3.22 3.4.62-2.55 2.39m-79.77-26.64l-3-1.74-3.12 1.55.7-3.47-2.42-2.54 3.45-.4 1.62-3.11 1.44 3.21 3.4.62-2.55 2.39m10.13 43.56l-3-1.73-3.13 1.54.7-3.46-2.4-2.55 3.44-.4 1.62-3.1 1.44 3.2 3.4.63-2.55 2.38m100.61-51.33l-2.65-1.53-2.76 1.36.62-3.07-2.13-2.24 3.05-.36 1.43-2.75 1.27 2.85 3 .54-2.25 2.11m-5.08 29.16l-2.09-1.2-2.17 1.07.48-2.42-1.67-1.77 2.4-.28 1.12-2.16 1 2.24 2.37.43-1.77 1.66M183.48 292.3l-2-1.16-2.1 1.03.47-2.32-1.6-1.7 2.3-.26 1.08-2.08.96 2.15 2.27.41-1.7 1.6m152.6 11.56l-1.64-.87-1.7.77.39-1.73-1.31-1.27 1.87-.2.88-1.55.79 1.6 1.85.31-1.4 1.2"/>
    <path fill="#ffffef" fill-rule="evenodd" d="M183.48 292.3l-2-1.16-2.1 1.03.48-2.32-1.61-1.7 2.3-.26 1.08-2.08.96 2.15 2.27.41-1.7 1.6"/>
    <path fill="#ffffef" fill-rule="evenodd" d="M183.48 292.3l-2-1.16-2.1 1.03.48-2.32-1.61-1.7 2.3-.26 1.08-2.08.96 2.15 2.27.41-1.7 1.6m32.25 2.32l-2-1.16-2.09 1.03.47-2.31-1.61-1.7 2.3-.27 1.08-2.08.96 2.15 2.27.41-1.7 1.6m-3.65 12.95l-2-1.16-2.09 1.03.47-2.31-1.61-1.7 2.3-.27 1.08-2.08.97 2.15 2.27.42-1.7 1.59m66.62-17l-2-1.16-2.1 1.03.47-2.32-1.6-1.7 2.3-.26 1.08-2.08.96 2.15 2.27.4-1.7 1.6m-19.14 2.33l-2-1.16-2.09 1.03.47-2.32-1.61-1.7 2.3-.26 1.08-2.08.96 2.15 2.27.41-1.7 1.6m-52.46-4.46l-1.25-.72-1.3.64.28-1.45-1-1.06 1.44-.17.67-1.3.6 1.34 1.43.26-1.07 1m127.97 34.6l-2-1.15-2.08 1.03.46-2.32-1.6-1.7 2.3-.26 1.07-2.08.97 2.15 2.27.41-1.7 1.6m-15.89 4.45l-1.66-.96-1.72.86.38-1.93-1.33-1.4 1.9-.23.9-1.73.8 1.79 1.88.34-1.41 1.32m7.9 1.76l-1.54-.9-1.6.8.35-1.79-1.24-1.31 1.77-.21.84-1.6.74 1.66 1.75.32-1.31 1.23m22.2-17.36l-1.5-.86-1.54.77.34-1.72-1.2-1.26 1.72-.2.8-1.55.72 1.6 1.68.3-1.26 1.19m-29.55 31.88l-1.95-1.06-2.02.94.45-2.12-1.56-1.56 2.24-.24 1.05-1.91.93 1.97 2.2.38-1.65 1.46m.42 10.86l-1.78-1.06-1.84.95.41-2.13-1.42-1.56 2.04-.24.95-1.9.86 1.96 2 .38-1.5 1.46m-14.43-17.58l-1.5-.86-1.54.77.34-1.72-1.2-1.26 1.72-.2.8-1.55.72 1.6 1.68.3-1.26 1.19m-13.56 1.73L287 311l-1.55.77.35-1.72-1.2-1.26 1.71-.2.8-1.55.72 1.6 1.69.3-1.27 1.19m-23.18-18.75l-1.5-.86-1.54.77.35-1.72-1.2-1.26 1.71-.2.8-1.55.72 1.6 1.69.3-1.27 1.19m2.85 43.48l-1.26-.73-1.31.65.29-1.46-1.02-1.07 1.45-.17.68-1.3.61 1.34 1.43.26-1.07 1M232.3 265.6l-3-1.73-3.12 1.55.7-3.47-2.41-2.54 3.44-.4 1.62-3.12 1.44 3.22 3.4.62-2.55 2.38"/>
    <path fill="#fff" fill-rule="evenodd" d="M355.11 290.93a94.96 94.96 0 0 0 4.41-15.08C307.87 230.47 250.3 207.23 177.53 212c-2.6 5-4.7 10.24-6.45 15.9 86.2-8.22 149.4 29.95 184.04 63.02z"/>
    <path fill="#309e3a" d="M331.9 265.43l1.84 1a2.58 2.58 0 0 0-.24 1.72c.14.49.48.92 1.02 1.29.57.39 1.09.56 1.54.51.45-.04.8-.23 1.01-.56.14-.2.2-.43.17-.66-.02-.23-.14-.5-.37-.82-.16-.2-.55-.66-1.17-1.35a5.86 5.86 0 0 1-1.42-2.24 2.79 2.79 0 0 1 1.62-3.34 2.9 2.9 0 0 1 1.71-.15 5.3 5.3 0 0 1 1.94.87c1.11.76 1.78 1.57 2 2.43.24.87.1 1.72-.42 2.55l-1.84-1.13c.23-.5.3-.94.17-1.31-.1-.37-.42-.73-.92-1.07-.52-.35-1-.52-1.43-.5a.78.78 0 0 0-.65.36.83.83 0 0 0-.1.71c.1.35.5.91 1.24 1.7.72.8 1.22 1.45 1.48 1.95a2.94 2.94 0 0 1-.22 3.2 3.13 3.13 0 0 1-1.38 1.15c-.58.25-1.2.31-1.86.18a6.02 6.02 0 0 1-2.13-.98 4.64 4.64 0 0 1-2.05-2.52c-.25-.92-.1-1.92.45-3zm-8.76-5.75l1.89.93a2.58 2.58 0 0 0-.17 1.72c.16.49.5.9 1.07 1.25.59.37 1.1.52 1.55.46.46-.07.8-.27 1-.6a.96.96 0 0 0 .14-.67c-.03-.23-.16-.5-.4-.8-.18-.21-.58-.64-1.23-1.31a5.91 5.91 0 0 1-1.5-2.18 2.8 2.8 0 0 1 .29-2.35 2.77 2.77 0 0 1 1.19-1.05 2.91 2.91 0 0 1 1.7-.22c.62.1 1.28.36 1.98.8 1.13.7 1.83 1.48 2.1 2.33.26.86.16 1.72-.33 2.57l-1.88-1.06c.21-.51.25-.95.12-1.31-.13-.37-.45-.71-.97-1.03a2.44 2.44 0 0 0-1.45-.45.77.77 0 0 0-.64.39.83.83 0 0 0-.07.72c.12.33.55.88 1.31 1.65.76.76 1.28 1.39 1.56 1.88a2.95 2.95 0 0 1-.1 3.21 3.17 3.17 0 0 1-3.18 1.45 6.1 6.1 0 0 1-2.17-.9 4.65 4.65 0 0 1-2.15-2.43 4.1 4.1 0 0 1 .34-3zm-10.83-2.9l5.55-9.13 6.74 4.13-.94 1.55-4.9-3-1.24 2.01 4.57 2.8-.94 1.54-4.56-2.8-1.51 2.49 5.08 3.1-.94 1.55-6.91-4.24zm-15.78-12.96l.83-1.6 4.11 2.13-1.94 3.79a7.17 7.17 0 0 1-4.8-.62 5.83 5.83 0 0 1-2.27-1.97 4.51 4.51 0 0 1-.74-2.65c.03-.97.27-1.9.74-2.82a6.14 6.14 0 0 1 1.98-2.31c.8-.56 1.71-.83 2.72-.83.77 0 1.6.23 2.5.7a5.06 5.06 0 0 1 2.37 2.16c.41.84.49 1.74.23 2.71l-2.08-.62a2.23 2.23 0 0 0-.19-1.5 2.53 2.53 0 0 0-1.16-1.12 2.9 2.9 0 0 0-2.4-.23c-.77.28-1.42.94-1.95 1.98-.58 1.13-.77 2.1-.56 2.93.21.82.72 1.44 1.53 1.86.4.2.84.34 1.32.39.49.05.93.04 1.33-.04l.62-1.2-2.19-1.14zm-68.8-17.06l1.54-10.58 3.19.47.85 7.5 2.95-6.94 3.19.47-1.55 10.58-1.98-.29 1.22-8.32-3.3 8.01-2.05-.3-.87-8.63-1.22 8.32-1.98-.3zm-10.76-1.25l1-10.65 7.85.75-.16 1.8-5.72-.54-.23 2.36 5.32.5-.16 1.8-5.32-.51-.27 2.9 5.92.55-.17 1.8-8.06-.76z"/>
    <g stroke-opacity=".5">
      <path fill="#309e3a" d="M181.37 218.85c.03-1.09.22-2 .56-2.73.26-.53.6-1.01 1.03-1.43.43-.42.9-.73 1.4-.93a5.83 5.83 0 0 1 2.3-.36c1.58.04 2.82.57 3.73 1.57.92 1 1.35 2.37 1.3 4.11-.04 1.72-.55 3.06-1.5 4.01a4.95 4.95 0 0 1-3.8 1.36 5 5 0 0 1-3.73-1.55c-.9-1-1.34-2.35-1.29-4.05z"/>
      <path fill="#f7ffff" d="M183.6 218.83c-.04 1.21.21 2.14.75 2.78.54.64 1.24.97 2.1.99.85.02 1.56-.27 2.13-.87.56-.6.87-1.53.9-2.77.03-1.22-.21-2.14-.73-2.76a2.7 2.7 0 0 0-2.1-.96c-.89-.03-1.61.26-2.17.86-.56.6-.86 1.5-.89 2.73z"/>
    </g>
    <g stroke-opacity=".5">
      <path fill="#309e3a" d="M193.99 224.37l.13-10.7 4.52.06c1.14.02 1.96.12 2.47.32.52.2.93.54 1.23 1.04s.45 1.06.45 1.69c-.01.8-.26 1.46-.73 1.98-.48.51-1.18.83-2.12.96.46.28.84.58 1.14.9.3.34.7.92 1.2 1.76l1.28 2.1-2.57-.03-1.53-2.35c-.54-.83-.91-1.36-1.11-1.58a1.6 1.6 0 0 0-.64-.45 3.45 3.45 0 0 0-1.08-.13l-.44-.01-.05 4.46-2.15-.02z"/>
      <path fill="#fff" d="M196.22 218.22l1.59.02a8.13 8.13 0 0 0 1.93-.1c.26-.1.46-.24.61-.45s.23-.48.23-.8c0-.36-.09-.65-.28-.87a1.28 1.28 0 0 0-.8-.44c-.18-.02-.7-.04-1.57-.05l-1.68-.02-.03 2.71z"/>
    </g>
    <g stroke-opacity=".5">
      <path fill="#309e3a" d="M206.15 214.2l3.93.2a7.6 7.6 0 0 1 2 .31c.62.22 1.14.57 1.56 1.07.42.5.73 1.08.93 1.78.2.7.27 1.54.22 2.54-.04.88-.2 1.63-.44 2.25-.3.77-.72 1.37-1.23 1.83-.4.35-.91.6-1.55.78-.49.12-1.12.17-1.92.13l-4.04-.21.54-10.68z"/>
      <path fill="#fff" d="M208.21 216.11l-.35 7.07 1.6.08c.6.04 1.03.02 1.3-.03.36-.07.65-.2.89-.4s.45-.53.61-1c.17-.47.28-1.12.32-1.95s0-1.46-.12-1.91c-.12-.45-.3-.8-.56-1.06a2.04 2.04 0 0 0-.96-.56 9.6 9.6 0 0 0-1.76-.19l-.97-.05z"/>
    </g>
    <g stroke-opacity=".5">
      <path fill="#309e3a" d="M258.48 233.3l2.48-10.4 3.36.81c1.27.3 2.09.56 2.45.76.55.3.97.75 1.24 1.38.28.61.32 1.33.12 2.16-.16.64-.4 1.14-.73 1.52-.34.38-.71.65-1.13.82a3.08 3.08 0 0 1-1.2.23c-.52-.02-1.26-.15-2.2-.38l-1.37-.33-.93 3.93-2.1-.5z"/>
      <path fill="#fff" d="M262.64 225.16l-.7 2.95 1.14.27c.82.2 1.39.28 1.69.24a1.4 1.4 0 0 0 1.2-1.1c.1-.39.06-.72-.1-1.02a1.5 1.5 0 0 0-.73-.66c-.24-.11-.74-.26-1.5-.44l-1-.24z"/>
    </g>
    <g stroke-opacity=".5">
      <path fill="#309e3a" d="M268.37 236.26l3.54-10.08 4.27 1.5c1.07.39 1.82.75 2.24 1.1.42.36.7.82.83 1.38s.1 1.15-.12 1.75c-.26.75-.7 1.3-1.32 1.64-.61.33-1.39.41-2.31.23.35.4.6.82.78 1.22.19.41.38 1.1.59 2.05l.53 2.4-2.42-.86-.7-2.7a14.5 14.5 0 0 0-.54-1.87 1.62 1.62 0 0 0-.47-.63 3.44 3.44 0 0 0-.98-.48l-.4-.14-1.48 4.2-2.03-.71z"/>
      <path fill="#fff" d="M272.44 231.16l1.5.53c.97.35 1.6.52 1.86.52.27 0 .51-.07.72-.22.2-.15.37-.38.47-.68.12-.34.13-.65.02-.92a1.3 1.3 0 0 0-.62-.67c-.16-.08-.65-.26-1.47-.55l-1.59-.56-.9 2.55z"/>
    </g>
    <g stroke-opacity=".5">
      <path fill="#309e3a" d="M280.88 235.87a6.83 6.83 0 0 1 1.28-2.47c.39-.45.85-.82 1.37-1.1a4.17 4.17 0 0 1 1.6-.51c.72-.07 1.5.02 2.32.28a5 5 0 0 1 3.16 2.52c.61 1.22.66 2.66.14 4.32a5.6 5.6 0 0 1-2.54 3.45 4.94 4.94 0 0 1-4 .27 5.02 5.02 0 0 1-3.18-2.51 5.55 5.55 0 0 1-.15-4.25z"/>
      <path fill="#fff" d="M283.03 236.47c-.36 1.15-.37 2.11-.02 2.88.35.76.93 1.27 1.75 1.52.81.26 1.58.17 2.28-.25.71-.43 1.25-1.24 1.62-2.42.36-1.17.38-2.12.04-2.86a2.7 2.7 0 0 0-1.76-1.5 2.72 2.72 0 0 0-2.32.24c-.7.42-1.23 1.21-1.6 2.39z"/>
    </g>
    <g stroke-opacity=".5">
      <path fill="#309e3a" d="M301.7 250.75l4.88-9.49 4.02 2.09c1.01.52 1.7.99 2.07 1.4.37.4.58.9.63 1.48s-.07 1.15-.36 1.7c-.36.72-.88 1.2-1.53 1.45-.66.25-1.43.21-2.32-.1.29.46.49.9.6 1.33.13.43.23 1.13.3 2.1l.2 2.46-2.28-1.19-.32-2.78c-.1-1-.2-1.63-.29-1.91a1.61 1.61 0 0 0-.37-.7 3.5 3.5 0 0 0-.9-.6l-.39-.2-2.04 3.95-1.9-.99z"/>
      <path fill="#fff" d="M306.42 246.26l1.41.73c.92.48 1.5.74 1.78.78.26.04.51 0 .74-.13.22-.12.4-.32.56-.6.16-.33.2-.63.14-.91a1.3 1.3 0 0 0-.53-.75c-.14-.1-.6-.35-1.37-.76l-1.5-.77-1.23 2.41z"/>
    </g>
    <g stroke-opacity=".5">
      <path fill="#309e3a" d="M341.19 270.26c.6-.9 1.25-1.57 1.93-2a5.03 5.03 0 0 1 1.64-.65 4.17 4.17 0 0 1 1.68-.02c.7.14 1.42.45 2.14.94a5 5 0 0 1 2.3 3.33c.23 1.34-.14 2.73-1.11 4.17-.96 1.43-2.1 2.28-3.42 2.57a4.97 4.97 0 0 1-3.92-.9c-1.31-.9-2.08-2-2.32-3.33a5.55 5.55 0 0 1 1.08-4.1z"/>
      <path fill="#fff" d="M343.07 271.44c-.67 1-.96 1.92-.84 2.75.11.83.52 1.49 1.23 1.97a2.7 2.7 0 0 0 2.26.42c.8-.2 1.56-.82 2.25-1.85.68-1.01.97-1.92.86-2.72-.1-.8-.52-1.45-1.26-1.95s-1.5-.64-2.28-.44c-.8.2-1.53.8-2.22 1.82z"/>
    </g>
    <path fill="#309e3a" d="M246.43 228.95l1.71-7.5 5.54 1.27-.28 1.27-4.04-.93-.38 1.67 3.75.86-.29 1.27-3.75-.87-.47 2.04 4.18.97-.29 1.26-5.68-1.3z"/>
  </g>
</svg>
