<svg xmlns="http://www.w3.org/2000/svg" height="512" width="512">
  <g>
    <path d="M0 0v512l512-512h-512z" fill-rule="evenodd" fill="#ffca00"/>
    <path d="M0 512h512v-512l-512 512z" fill-rule="evenodd" fill="#ff6500"/>
    <g stroke="#000">
      <path d="M172.819 349.662s-15.851-.546-22.409 7.469c-6.559 8.017-31.814 30.493-33.887 32.068-.94.631-21.136 4.735-21.136 4.735 9.916-9.897 21.007-13.514 30.105-30.848-4.541 8.698-8.012 12.505-13.323 17.288-4.616-2.149-16.593 7.169-26.619 11.555.182-.365 10.995-9.106 16.858-20.263-3.34 2.915-10.967 10.244-14.307 13.158-7.943.757-11.541 9.558-14.576 10.748-18.605 6.047-13.093 2.364-17.308 6.377-1.701 3.327-5.334 5.981-7.549 6.201-17.456 1.727-17.96 7.46-26.885 10.744-5.703 1.667-9.326.055-12.571-2.188 4.373-1.578 9.817-1.202 13.118-4.735 0 0 15.987-19.047 30.607-21.134 8.381-1.458 9.656-6.377 9.656-6.377s-24.778 6.923-28.968 10.567c-3.938 1.121-10.647 2.089-16.58 1.458 10.962-4.034 17.745-9.576 20.77-12.936 1.733-1.924 12.025-2.004 12.025-2.004s17.308-7.471 17.673-7.471l13.118-7.469s-15.304 4.009-15.669 4.009-17.876.727-17.876.546c4.665-5.971 21.476-6.387 23.888-7.834 5.63-5.63 23.138-3.463 23.868-4.192.729-.727-18.402-6.559-26.418-4.919-8.016 1.64-20.223-8.379-20.223-8.379s16.762-2.552 22.228-.183 25.143 7.471 26.237 6.559c1.093-.91 22.674-8.563 25.143-5.829-2.126-4.545-4.809-4.424-4.738-8.382l12.026.548s6.194-8.2 6.01-8.563c-5.623-2.062-6.893-7.765-6.893-7.765 7.208 1.202 9.627.294 9.627.477 0 .181 6.377-7.107 6.377-7.107l4.373-6.923 3.279-14.94c-6.625 3.582-19.313-.181-19.13-.365 13.791-4.836 17.963-11.844 24.23-12.207-2.685-13.612 5.284-18.219 5.284-18.036 0 .181 5.467-11.844 5.467-11.844s-5.841-1.965-16.763 0c10.352-12.286 26.785-7.833 26.785-7.833 3.389-10.894 13.846-6.923 13.846-7.288-2.662-5.933 5.327-8.943 10.519-8.764-.745-4.421-5.483-9.089-7.304-12.794 8.682 5.581 17.726 3.414 22.292 11.537l8.198.911s9.109 1.64 9.292 1.64c.181 0 9.473.911 9.473.911 1.63-4.617-4.123-4.029-2.733-15.304 11.097 5.513 10.333 16.473 19.13 22.713 6.935-.478 9.028 1.95 12.452 5.104 3.995-.847 8.875.924 11.416 4.978-.122-4.297 1.114-10.36 6.561-2.733l10.019-.365s-13.163-19.176-24.778-8.38c3.396-11.719 15.305-10.567 15.305-10.567s-3.096-5.365-2.915-11.296c-6.357-2.542-8.382-13.3-8.563-13.118-.183.182-10.828 2.11-15.669 14.758-9.079-9.867 3.222-22.121 3.947-24.301 1.25-4.668 2.5-9.336 3.752-14.003-.981-4.599-.601-6.88 3.598-10.524-2.8-2.899-1.511-5.661 1.821-7.47-1.126-1.982-.206-3.965.305-5.947l44.511-2.544 10.026 13.775 1.64 7.47-3.827 9.838 11.48 13.664 4.19 4.373 8.744 5.101s8.2 3.462 8.382 3.644c.183.182 9.838 2.551 10.202 2.733.365.182 8.017 4.555 9.292 4.919h24.778l13.119-1.093-.183 21.499-6.923 1.64c-2.983 2.564-3.848 4.062-8.95 7.691-7.065 1.979-12.184 1.601-12.365 1.601-.183 0-7.107-1.823-7.288-2.004-.183-.181-7.836-2.551-7.836-2.551l-12.023-2.915c-4.946-.777-6.923 2.551-7.288 3.097-.365.546-2.369 24.232-2.369 24.232s-4.192 10.748-4.192 10.932c0 .181-3.885 7.185-6.923 9.657-.564 2.896-1.018 5.985-8.015 11.113-1.484 4.635-.282 9.102 4.735 10.021l7.288 2.915 10.932 2.55c4.009.851 8.017 1.702 12.026 2.552l-8.563 18.765-21.134-3.463s-14.03-3.644-14.211-3.644c-.183 0-15.488-8.198-15.488-8.198s-4.919-11.113-4.919-11.296c0-.181-4.373-9.292-4.19-9.838.181-.546.181-5.829.181-6.013 0-.181-14.757-3.096-14.757-3.096l-15.486-1.64-16.944-4.557-12.936-3.825-8.382-2.915-9.292-.729s-12.207 1.821-12.207 2.004c0 .181-10.748 3.096-10.748 3.279 0 .181-6.923 16.215-6.923 16.215l-3.279 12.388 5.1 9.476 1.823 26.418-4.738 9.838 3.279 7.288 6.559 10.751 3.827 7.469-23.875 7.568-3.091-12.305s-8.198-20.221-8.015-20.405c.181-.181.362-6.742.362-6.923z" fill-rule="evenodd" fill="#fff"/>
      <path d="M196.966 320.584c4.962 1.488 5.054-8.265 9.015-11.899 3.144-13.152 20.15-12.693 25.542-3.869-18.031-1.358-11.092 8.774-16.639 13.158 14.183-6.701 27.243-5.536 30.185 3.869-5.701 10.838-11.028 20.925-16.729 31.761-9.083 4.536-13.174-1.669-23.134-7.377l-6.964-1.163c-.257-7.868-1.016-16.61-1.275-24.48z" fill-rule="evenodd" fill="#fff"/>
      <path d="M208.065 381.583s24.262-.759 24.349 10.918c2.218 6.71 9.244 6.194-1.516 23.913.431-22.792-14.188-23.347-24.441-22.82 12.789 1.791 15.066 20.932 9.457 28.245l-41.09-4.183c-5.061-5.593-11.044-18.676 8.471-27.947 8.258-2.711 16.513-5.419 24.769-8.127z" fill-rule="evenodd" fill="#fff"/>
      <path d="M370.47 316.961l6.964-2.708s21.409-26.005 37.927-11.61c-11.338 1.706-20.575 15.397-20.575 15.397 6.146-4.577 29.234-3.133 26.748 17.132-24.718 7.318-25.416 20.283-23.975 35.714-16.454-.277-34.607-8.792-35.368-35.224l8.278-18.701z" fill-rule="evenodd" fill="#fff"/>
      <path d="M459.033 206.832c0 8.955-7.26 16.215-16.215 16.215s-16.215-7.26-16.215-16.215 7.26-16.215 16.215-16.215 16.215 7.26 16.215 16.215z" fill-rule="evenodd" fill="#fff"/>
      <path d="M420.163 236.346c5.969 4.603 13.076 6.284 26.186 7.802 6.905-4.054 19.65-3.89 20.632-12.895 6.884-2.457 8.414-10.757 2.72-13.052-.243-2.435.144-11.885-10.441-12.104 1.422 3.515 2.69 13.158 2.69 13.158-5.517-.649-9.287 8.901-9.287 8.514 0-.193 3.041-15.141-11.691-15.595 5.068 8.473-1.468 15.208-1.468 15.208-1.55-1.935-1.557-5.331-4.403-6.373-7.315-3.079-8.707-12.001-8.395-16.785-3.837 3.24-6.696 6.479-6.554 10.774.057 7.062-.289 13.88.011 21.348z" fill-rule="evenodd" fill="#fff"/>
      <path d="M441.697 150.085c12.477-1.738 23.65-4.998 31.004-10.471 2.373-1.767 22.402 1.582 32.715-4.576-15.63-.901-25.984-3.124-28.768-2.202-8.755 2.556-29.151 8.22-30.75 7.499-.14 1.445-2.621 7.74-4.201 9.751z" fill-rule="evenodd" fill="#fff"/>
      <path d="M445.939 140.22c8.925-2.089 10.968-6.422 16.24-9.585 8.07-3.228 12.553-3.346 20.6-11.664-20.925 2.851-23.274 3.586-23.274 3.586-4.339 2.639-10.31 6.693-15.007 12.844 1.422 1.512 1.337 3.072 1.44 4.82z" fill-rule="evenodd" fill="#fff"/>
      <path d="M444.448 135.344c0-.086 8.166-9.163 8.237-13.048.358-1.305 4.169-3.458 5.602-8.561.931-13.917 2.224-14.222 2.224-14.222 6.556-3.683 5.16-11.665 8.205-17.641 0 0-9.622 10.744-14.998 16.635-1.433 3.096-1.809 11.033-1.896 11.033-1.518 3.583-5.437 4.05-8.446 9.998-1.695 4.511-.282 8.642-2.837 14.515 1.743.031 2.683.46 3.908 1.291z" fill-rule="evenodd" fill="#fff"/>
      <path d="M425.683 349.032c0 12.058-9.775 21.833-21.833 21.833s-21.833-9.775-21.833-21.833 9.775-21.833 21.833-21.833 21.833 9.775 21.833 21.833z" fill-rule="evenodd" fill="#fff"/>
      <path d="M214.641 423.345c0 10.965-8.889 19.854-19.854 19.854s-19.854-8.889-19.854-19.854 8.889-19.854 19.854-19.854 19.854 8.889 19.854 19.854z" fill-rule="evenodd" fill="#fff"/>
      <path d="M250.604 336.728c0 9.459-7.668 17.126-17.126 17.126s-17.126-7.668-17.126-17.126 7.668-17.126 17.126-17.126 17.126 7.668 17.126 17.126z" fill-rule="evenodd" fill="#fff"/>
      <path d="M172.383 356.633c-6.196.365-12.503 2.513-12.319 2.697.181.181 6.742 3.644 5.829 4.738-.91 1.092-9.709 10.888-9.161 10.888 6.607 1.903 15.358-2.144 15.358-2.144s-3.571 5.749-4.162 7.513c5.889-3.171 11.413.972 12.752-2.199l-8.297-21.492z" fill-rule="evenodd" fill="#fff"/>
      <path d="M302.408 299.739c-3.745 2.307-16.339-.287-16.339-.287 3.71 3.843 6.061 6.586 14.619 7.453-6.114 2.772-10.095 6.708-17.247 9.088 11.189 4.786 18.68-3.068 18.68-2.782s2.172 5.123.47 12.012c4.426-1.165 5.467-5.68 8.776-4.735-2.77-6.593-6.187-14.156-8.96-20.749z" fill-rule="evenodd" fill="#fff"/>
      <path d="M372.58 242.001c-.316 2.078-.72 5.802-9.248 10.12 5.579 2.422 14.906-2.866 14.906-2.58s-7.581 13.507 5.446 19.206c-.346-10.202 1.433-18.346 1.433-18.346s4.79 6.588 8.313 14.332c5.628-6.049-2.007-17.486-2.007-17.486-6.212-1.433-12.844-3.814-18.843-5.247z" fill-rule="evenodd" fill="#fff"/>
      <path d="M380.606 182.068s16.866 11.463 16.94 12.996c.071 1.533-1.534 7.885-7.008 10.733 13.14 1.533 14.527-6.717 14.527-6.717s-2.701 9.345-.511 12.12c7.228-4.454 7.01-11.536 7.01-11.536s4.818 7.301 3.724 11.244c1.532-.803 9.856-9.492 2.334-13.726 1.752-5.695 2.41-9.273-3.942-11.828-.681-3.432 1.119-4.527 1.679-6.79 0 0-6.279-1.899-7.008 3.504-.585 1.095-20.185-11.521-20.403-11.595-.067.332-7.343 11.668-7.343 11.595z" fill-rule="evenodd" fill="#fff"/>
      <path d="M385.123 175.163s15.619 8.292 16.642 10.264" fill-rule="evenodd" fill-opacity=".3" fill="#fff"/>
      <path d="M439.724 134.021c-2.071 0-10.319-2.58-15.766 1.433-2.488-3.997-5.16-7.13-13.048-5.446.071-3.571-1.344-3.112-3.231-4.235-1.988-4.332-5.171-6.25-11.322-3.505-5.357-5.51-14.014-5.752-20.093-1.489-9.189-2.726-21.352.453-44.107.198-1.573-.05-9.423 2.766-4.513 9.317-9.45-5.843-13.411 4.904-4.013 6.593 2.293 2.293 4.873 7.166 4.873 7.166s-16.428-11.746-25.455 1.39c-2.926 13.287 11.177 3.774 18.192 8.786 4.203 3.726 8.219 7.596 12.422 11.323 6.976-1.433 12.936-1.477 19.91-1.842-6.306 1.816-11.597 1.173-17.903 2.988 1.518 2.089 4.05 2.789 9.521 2.58l-11.64 4.067c7.13 5.516 16.128 1.893 22.992 2.866-4.352 6.521-13.301 13.417-24.599 10.266 4.864 7.748 14.537 6.757 24.395-3.294 8.253 1.438 13.603 2.449 24.145-1.117.509-.668 8.272-12.219 7.941-13.208 1.413.424 22.776 8.078 24.067 10.452.163-2.946 4.254-5.975-20.639-12.899-4.692-3.816 12.039-8.599 12.039-8.599l-.287 6.88c4.708-2.872 4.958-4.021 6.02-5.733 1.72-1.147 5.446 2.293 5.446 2.293l.209 6.063c2.073-.753 3.231-.903 4.664-2.909l4.183 2.396c4.284.424 11.523-1.6 15.121-7.589-1.628-6.083-.855-7.778 2.383-8.993 5.311-8.654 6.529-16.152-1.908-16.199z" fill-rule="evenodd" fill="#fff"/>
      <path d="M408.33 182.215s-2.63 3.285-2.119 9.638" fill-rule="evenodd" fill-opacity=".3" fill="#fff"/>
      <path d="M332.311 175.773s6.733 10.26 9.031 10.901c2.298.641 18.169 16.78 19.024 17.475 1.016.427 9.886.214 9.886.214-6.52-5.629-11.971-11.578-17.956-17.368 0 0-9.191-4.542-9.244-4.649l-4.917-6.626c-1.55-.499-3.206-1.265-4.648-2.458l-1.176 2.512z" fill-rule="evenodd" fill="#fff"/>
      <path d="M397.53 195.137c2.993-.73 7.155 1.752 7.446 3.87 1.608-.949 5.185-.949 6.499.292.585-.876 3.213-3.213 5.914-2.19" fill-rule="evenodd" fill-opacity=".3" fill="#fff"/>
      <path d="M408.422 182.215s2.188 1.752 5.109.876" fill-rule="evenodd" fill-opacity=".3" fill="#fff"/>
      <path d="M444.127 190.525c3.623-.517 33.286-17.849 40.525 4.053-2.5-18.539-16.123-18.194-16.123-18.194s-.603-8.881-13.106-7.415c8.194 6.036 1.293 10.864.69 11.727-2.128-5.72-3.048-8.68-9.572-11.209 2.617 10.06-2.873 11.411-4.311 16.21-2.901-2.069-5.116-5.863-6.811-8.709-2.3 6.668-.287 10.663 2.328 14.141 2.3-.575 4.426-.718 6.38-.604z" fill-rule="evenodd" fill="#fff"/>
      <path d="M439.312 159.288c1.142 2.092 5.955 8.104-2.49 19.567-2.665-3.707-4.098-5.985-4.098-5.985s-7.198 4.682-6.377 20.761c-2.695-6.457-6.696-14.6 1.608-26.833-5.994 9.648-7.946 10.716-12.532 10.581 7.022-5.007 8.561-10.427 8.696-10.427 1.282.43 9.205.021 15.195-7.665z" fill-rule="evenodd" fill="#fff"/>
      <path d="M433.923 133.198c1.575 5.876-2.754 9.95-6.084 13.088 7.228 14.169-15.974 13.027-7.607-.19" fill-rule="evenodd" fill="#fff"/>
      <path d="M411.289 148.188s-1.711 2.187-.284 5.23" fill-rule="evenodd" fill-opacity=".3" fill="#fff"/>
      <path d="M401.451 148.337c2.073.51 3.798 3.191.447 5.201-1.342.798-8.074-2.329-11.551 4.244" fill-rule="evenodd" fill-opacity=".3" fill="#fff"/>
      <path d="M338.09 135.156c-2.722-.223-4.059 1.16-.803 4.328" fill-rule="evenodd" fill="#fff"/>
      <path d="M340.681 125.83c-3.169-1.383-4.639 1.919-.848 4.551" fill-rule="evenodd" fill="#fff"/>
      <path d="M349.785 126.098c-2.766-2.499-5.176 2.008-.757 3.703" fill-rule="evenodd" fill="#fff"/>
      <path d="M363.567 126.098c-2.899-2.454-3.882 1.115-2.988 2.32" fill-rule="evenodd" fill="#fff"/>
      <path d="M380.674 163.546c0 7.441-6.032 13.473-13.473 13.473s-13.473-6.032-13.473-13.473 6.032-13.473 13.473-13.473 13.473 6.032 13.473 13.473z" fill-rule="evenodd" fill-opacity=".3" fill="#fff"/>
      <path d="M379.895 167.965c-.367-.78-8.645-8.973-11.26-7.859-2.14.093-8.687 14.374-8.4 14.947 6.776 4.779 17.222.563 19.653-7.087z" fill-rule="evenodd" fill-opacity=".3" fill="#fff"/>
      <path d="M375.492 163.658c-1.02-.661-1.802-1.262-2.704.06-.901 1.322-5.827 13.279-5.827 13.279" fill-rule="evenodd" fill-opacity=".3" fill="#fff"/>
      <path d="M390.833 136.649c-9.012-5.047-25.739 2.435-14.621 7.662-9.494-2.884-9.074 5.288-9.074 5.288" fill-rule="evenodd" fill-opacity=".3" fill="#fff"/>
      <path d="M371.525 128.185c3.573-5.306 8.505-7.123 11.734-.471 4.3 5.733 12.383 1.445 12.383 1.445" fill-rule="evenodd" fill-opacity=".3" fill="#fff"/>
      <path d="M346.987 132.588s-4.013 1.863-.284 4.73" fill-rule="evenodd" fill="#fff"/>
      <path d="M367.351 130.152s-3.871.573-2.582 4.73" fill-rule="evenodd" fill="#fff"/>
      <path d="M363.04 137.316c-.142 0-4.013.143-2.722 4.3" fill-rule="evenodd" fill-opacity=".3" fill="#fff"/>
      <path d="M358.591 144.34c-.144.143-4.873-2.007-2.438 4.013" fill-rule="evenodd" fill-opacity=".3" fill="#fff"/>
      <path d="M376.432 120.833c-16.811-10.246-34.634-30.883-59.096-23.017 24.822 4.402 39.975 18.183 40.48 22.44 9.164-.721 11.688-.505 18.616.577z" fill-rule="evenodd" fill="#fff"/>
      <path d="M351.964 120.402c-2.236-2.742-10.679-17.967-27.851-17.678 13.131 6.71 20.997 15.874 21.719 18.183 2.451-.144 4.183-.361 6.132-.505z" fill-rule="evenodd" fill="#fff"/>
      <path d="M337.241 121.051s1.949-14.287 4.763-16.018c2.814-1.732-9.379-3.896-9.235 8.659-10.248-8.37-19.914-6.927-21.503-6.35-1.587.577-24.099-.505-26.769 4.546 16.596-.361 21.357.721 22.872 2.381 10.175-2.598 15.947-1.082 22.73 6.999 3.103-.577 7.141 0 7.141-.216z" fill-rule="evenodd" fill="#fff"/>
      <path d="M321.235 128.554c-4.112-4.041-7.533-6.554-19.877-7.586-1.802-.229-6.556-1.234-9.489-2.226 7.85-5.437 31.676 2.237 34.345 5.772-.793 2.453.174 4.095 1.472 5.683-2.201-1.316-4.135-1.847-6.451-1.642z" fill-rule="evenodd" fill="#fff"/>
      <path d="M329.743 121.5s-6.146-5.626-10.874-5.532c2.743 1.655 5.864 6.383 7.753 8.085 1.325-1.513.993-1.418 3.121-2.553z" fill-rule="evenodd" fill="#fff"/>
      <path d="M317.245 116.251c-.236.095-10.354 6.336 1.041 14.657-.757 5.343 5.577 6.099 5.577 6.099s4.683 7.092 4.683 7.045c-10.063-6.696-18.547-5.068-21.675-2.325-6.1-8.936-16.433-10.394-20.215-11.481-4.729-1.04-17.827-2.128-18.724 9.74-12.578-12.34 7.329-17.636 10.732-17.258 3.403-.615 22.505 3.074 23.735 5.485-1.087-11.3 9.173-17.305 14.846-11.962z" fill-rule="evenodd" fill="#fff"/>
      <path d="M354.899 157.368s-33.572-6.257-44.522 1.203c-10.95 7.46-12.392 18.531-28.277 20.215-15.883 1.685-17.568 4.693-23.464 12.876 8.785-2.768 27.798-8.784 40.913-6.137 5.414-6.07 8.423-8.904 7.941-9.025 4.091-13.477 32.609-18.652 46.086-13.838.241-3.369 1.686-4.934 1.323-5.295z" fill-rule="evenodd" fill="#fff"/>
      <path d="M304.127 152.314l-50.18 1.444c-4.573 1.444-10.106 5.174-10.95 6.257-.842 1.083 2.167-11.792 8.785-11.191 8.542.842 31.887-.12 31.887-.12 7.1-2.647 14.803-5.295 19.494-3.49-1.686 4.212.963 7.1.963 7.1z" fill-rule="evenodd" fill="#fff"/>
      <path d="M395.672 137.617s-13.872-4.218-10.232 10.013c5.586 7.092 13.617-3.431 13.505-4.492" fill-rule="evenodd" fill-opacity=".3" fill="#fff"/>
      <path d="M357.857 153.688c-3.064-5.02-22.207-11.827-28.761-9.53 10.51 4.935 25.528 9.913 26.42 12.636 1.234-2.212 2.257-3.063 2.341-3.106z" fill-rule="evenodd" fill-opacity=".3" fill="#fff"/>
      <path d="M422.342 136.305s-11.571 3.161-15.871.582-14.963-6.401-10.26-14.639" fill-rule="evenodd" fill-opacity=".3" fill="#fff"/>
      <path d="M305.091 139.665s-29.36-.728-34.212 8.068c19.107-4.428 33.18-3.822 33.18-3.822l2.669-2.426-1.637-1.82z" fill-rule="evenodd" fill="#fff"/>
      <path d="M358.637 132.819s-6.786.206-3.495 4.936" fill-rule="evenodd" fill="#fff"/>
      <path d="M420.301 220.592s9.819-.325 10.957-1.623" fill-rule="evenodd" fill="#fff"/>
      <path d="M461.923 219.374s4.137 2.922 7.79-1.217" fill-rule="evenodd" fill="#fff"/>
      <path d="M442.935 220.023s2.759 5.194 9.819 2.921" fill-rule="evenodd" fill="#fff"/>
      <path d="M427.204 231.06s-2.11 5.275 8.278 4.788c2.678 1.623.809 6.817.809 6.817" fill-rule="evenodd" fill="#fff"/>
      <path d="M441.077 206.307s5.843-.324 6.898 2.272" fill-rule="evenodd" fill="#fff"/>
      <path d="M443.256 198.923s1.949.162 2.598 2.516c.649 2.354 3.002 1.136 4.382.081" fill-rule="evenodd" fill="#fff"/>
      <path d="M416.38 349.364c-5.1-4.839-16.085-4.969-10.854 7.063 1.83-5.495 5.231-7.586 10.854-7.063z" fill-rule="evenodd" fill="#fff"/>
      <path d="M414.293 356.542c-1.438-1.046-2.224 1.046-1.832 1.438" fill-rule="evenodd" fill="#fff"/>
      <path d="M417.939 321.226s-7.847-.915-4.708 8.239" fill-rule="evenodd" fill="#fff"/>
      <path d="M394.663 300.588s-1.048 9.285 6.276 10.331" fill-rule="evenodd" fill="#fff"/>
      <path d="M383.954 357.849c0-.131-6.799-3.009-8.893 6.276" fill-rule="evenodd" fill="#fff"/>
      <path d="M377.533 314.439s0 7.845 3.532 10.723" fill-rule="evenodd" fill="#fff"/>
      <path d="M374.666 333.931c-.131 0-11.377 4.447-11.377 10.331" fill-rule="evenodd" fill="#fff"/>
      <path d="M192.999 424.122c0-.131 7.228-7.623 8.806.789-.133 3.153-1.711 6.178-1.711 6.178" fill-rule="evenodd" fill="#fff"/>
      <path d="M199.42 425.957s-4.075-.264-4.6 2.234" fill-rule="evenodd" fill="#fff"/>
      <path d="M217.169 403.346c0-.131-9.203-2.892-10.517 4.206" fill-rule="evenodd" fill="#fff"/>
      <path d="M169.861 408.23s7.623-4.469 11.828.394" fill-rule="evenodd" fill="#fff"/>
      <path d="M232.511 392.751c0-.131-7.052-.048-8.102 4.683" fill-rule="evenodd" fill="#fff"/>
      <path d="M334.65 189.833c-.837.827-.725.873-1.589 1.076-.839.31-1.667.354-2.656.354-.679-.226-1.456-.748-2.124-1.416-.631-.755-.943-1.345-1.238-2.124 0-.545-.232-1.347-.371-1.675.28.559.805 1.451 1.08 2.029.3.941.599 2.031.883 3.009.236 1.097.355 2.128.355 3.363-.179 1.354-.543 2.553-1.062 3.363-.732.39-1.14.591-2.124.708-1.066 0-1.408-.186-2.302-.531-.413-.536-1.266-1.452-1.768-2.124-.257-.994-.472-1.787-.532-2.831-.431-.621-.635-1.168-1.062-1.77l-.709-1.77c-.22-.555-.709-1.131-.949-1.641" fill="none"/>
      <path d="M206.598 393.554s-5.128 4.05-4.272 7.556" fill-rule="evenodd" fill="#fff"/>
      <path d="M234.414 332.371s-8.242 2-4.121 9.242" fill-rule="evenodd" fill="#fff"/>
      <path d="M234.3 336.132s-1.75 5.868 1.124 7.992" fill-rule="evenodd" fill="#fff"/>
      <path d="M238.909 336.499c.126.376-1.124 6.244-2.871 7.244" fill-rule="evenodd" fill="#fff"/>
      <path d="M229.553 313.888s-.374 4.995 1.874 5.871" fill-rule="evenodd" fill="#fff"/>
      <path d="M214.555 299.028s-1.997 5.871 5.495 7.868" fill-rule="evenodd" fill="#fff"/>
      <path d="M200.819 318.383c0 .25 1.997 9.489 5.994 9.239" fill-rule="evenodd" fill="#fff"/>
      <path d="M216.298 336.614s-10.239-5.744-11.239 9.365" fill-rule="evenodd" fill="#fff"/>
      <path d="M393.562 138.8c1.002-.949 4.485-2.085 5.435 3.165.949 5.249-6.121 4.629-6.176 3.791-1.899-.782-1.995-4.889.741-6.956z" fill-rule="evenodd"/>
      <path d="M408.468 126.708s-9.076-1.107-8.237 6.488c5.304 4.691 9.338.053 10.23-2.516.445-1.843.298-3.413-1.993-3.972z" fill-rule="evenodd"/>
      <path d="M283.603 152.974s1.092 8.178-5.451 6.27c-6.542-1.908 10.085 4.089-2.727 6.543-2.658 3.723-2.181 4.362-2.181 4.362s6.985-.704 2.642 8.489c-1.637 4.907 2.456-10.732 15.557-2.745-5.997-5.854-1.681-5.777 6.609-5.471-11.498-1.879-10.904-12.54 5.997-7.36-.023-1.589-3.119-6.336 2.454-8.996 10.904-2.999-22.627-.545-22.9-1.09z" fill="none"/>
      <path d="M280.966 159.579c1.775.846 8.799 14.216 13.622-6.854-2.114-.508-10.916.254-10.916.254.197 3.216-.367 5.331-2.706 6.6z" fill="none"/>
      <path d="M278.604 164.995c-.401.973-1.004 2.583-1.312 3.586 0 .676.002 1.406.119 1.912.092.837.36 1.438.715 2.151.339.48.392.601.956.717.456.263 2.378.269 2.988.359h2.032c.956 0 1.802.009 2.63-.359.587-.168 1.055-.327 1.314-.837.585-.292.569-.585.956-1.195.167-.337.509-.929.718-1.315.275-.424.358-.529.358-1.076.17-.338.122-1.031.122-1.554-.023-.753-.124-1.442-.241-2.151-.115-.383-.298-.628-.596-.478-1.222.482-2.564-.478-3.947-.478-1.319-.198-2.036-.539-3.346-.717-.546 0-3.087.803-3.467 1.434z" fill="none"/>
      <path d="M405.258 216.216h.177c-.521 0-.227-.03.709.531.626.223 1.225.45 1.768.708.321.469.672 1.007 1.064 1.416.211.529.484 1.363.706 1.947 0 .817.096 1.407-.353 1.77-.321.815-.807.892-1.238 1.416-.638.213-1.137.504-1.947.885-.855.23-1.218.506-2.124.708-.943.426-1.564.503-2.656.531l-3.935-.146c.865-.031 3.632-.066 4.288-.208.972 0 1.52.102 2.124.531.796.275 1.248.517 1.947.708.484.193 1.447.28 1.947.531.282.471.816.72.532 1.239-.371.45-1.073.703-1.77.885l-4.44 1.242c-1.669.143 3.353-.399 3.91-.534 1.014-.012 1.644-.129 2.477 0 .754.114 1.44.452 2.124.708.452.601.986.89 1.415 1.593.543.448.697.749.709 1.77-.222.444.193 1.699.133 2.366l-.777 2.329" fill="none"/>
      <path d="M390.925 216.393h.177c-.479 0-.234-.011.709.177.596.418 1.644.578 2.653.885.564.267 1.089.575 1.594.885.518.259 1.192.731 1.591 1.239.725.241.876.676 1.417 1.062.188.854.42 1.305.53 2.124-.071.942-.388 1.128-.706 1.77-.521.353-.839.818-1.594 1.062-.704.282-1.594.514-2.656.708-1.502.286-2.958.603-4.424.708-.729 0-.908.157-1.594.177.887.011 2.062.077 2.656.354 1.108.011 2.369.098 3.185.354 1.612.199 3.158.468 4.779.531.326.529.589.809.709 1.593-.429.314-.727.902-1.062 1.239-.53.325-1.055.661-1.947.885-.979.349-2.068.354-3.185.354h-5.665c-.172-.069-1.415-.177-.709-.177.734.339 2.199.694 3.185.885.676.197 1.059.56 1.417 1.062.429.324 1.08.918 1.415 1.239.277.462.355.755.355 1.593-.085 1.085-.438 1.098-1.241 1.77-.855.56-1.525.676-2.477.885h-2.656c-.711-.191-4.811-2.601-5.336-2.76.727.258 4.639 2.859 4.983 3.645.186.56.177 1.485.177 2.301-.032.86-.138 1.471-.53 1.946-.037.688-.222.532-.885.532l.885-.532c-.037.688-.222.532-.885.532" fill="none"/>
      <path d="M399.777 230.374h.885c.582.396.578.894 1.417 1.062.642.245 1.284.587 1.768.885.259.436.355.628.355 1.416 0 .865.2 2.04-.177 2.478-.307.359-1.422.349-1.947.531-.759.263-1.408.662-2.059.79-.823.162-2.156.076-2.72.448-.791.061-1.36.177-2.3.177-.546 0-.91-.036-1.238-.177.796.277 2.085.596 3.006 1.062.844.238 1.305.614 1.947 1.062.69.511 1.092.787 1.241 1.593.353.519.353 1.196.353 2.123-.195.585-.323 1.429-.532 1.947-.385.571-.848.679-1.415 1.062l-.709.179" fill="none"/>
      <path d="M384.023 216.216c.294.122 1.197.563 1.77.885 1.041.251 1.724.68 2.477.885.392.484.851.685 1.062 1.416.615.802.764 1.223.885 2.124-.076.99-.234 1.19-1.062 1.416-.617.206-1.325.324-2.124.354l-2.124.354c-.5.25-1.527.177-2.3.177-.764.058-2.009.225-2.903.225.995.036 2.488.128 3.609.128 1.08.115 2.144.172 2.656.708.78.295 1.22.929 1.947 1.239.351.518.761.817 1.062 1.416-.245.688-.631.918-1.417 1.062-.5.25-1.525.177-2.3.177-.539-.27-1.653-.177-2.477-.177h-1.947c.729.25 1.906.534 2.832.708.654.374 1.667.686 2.124 1.062.287.443.759.688 1.062 1.239.397.321.475.917.177 1.416-.073.881-.321 1.323-.709 1.77-.56.381-1.057.72-1.947 1.239-1.25.543-2.438.697-3.894.708-.961 0-1.431-.145-2.3-.177-.789-.272-1.786-.381-2.477-.531-.757-.206-1.777-1.804-2.772-1.841.679.088 1.486 1.707 1.711 2.195.25.501.177 1.527.177 2.301-.277.474-.342 1.378-.532 1.947-.034.615-.099 1.43-.353 1.77l.353-1.77c-.034.615-.099 1.43-.353 1.77" fill="none"/>
      <path d="M374.139 211.809c0 .07.615.394 1.03.868.404.635.828 1.356 1.238 1.947.28.805.53 1.189.709 1.947.33.542.475 1.39.532 2.124-.032.826-.103 1.565-.532 2.124-.209.716-.564 1-1.238 1.239-.587.277-1.149.354-2.124.354l-2.724-.097 4.139.097c1.231.078 2.048.182 2.656.708.773.218 1.394.607 1.77 1.062.601.443 1.17.548 1.415 1.239.186.56.177 1.485.177 2.301-.092 1.015-.383 1.037-1.238 1.239h-2.477c-.546-.181-1.564-.266-2.302-.354-.601-.081-1.282-.618-1.802-.79.463.44.376 1.472.388 2.383.135.626.177 1.443.177 2.301-.073.944-.3 1.196-.885 1.593-.94.205-2.325.177-3.538.177-.991-.047-1.809-.177-2.832-.177-1.227 0-2.318-.136-3.451-.266.431.287.422.933.443 1.682.319.532.073 1.151 0 1.77-.06.768-.204 1.288-.532 1.77l-.482.97" fill="none"/>
      <path d="M365.608 209.493l.885.708c.539.432.807.976 1.238 1.593.156.666.381 1.255.53 1.947 0 1.031-.124 1.443-.53 2.124-.676.451-1.486.803-2.477.885-.587.196-1.413.299-2.126.354-.505.168-.443.271-1.142.354 1.133-.04 1.19-.177 2.383-.177.773 0 1.8-.073 2.3.177.793.107 1.364.218 1.77.708.729.199 1.046.519 1.415 1.062.543.369.862.685 1.062 1.416 0 .963-.108 1.506-.353 2.124-.31.616-.601.973-1.238 1.416-.456.394-1.117.49-1.77.708h-2.479c-.651 0 2.133.067 3.364.177.727.133 1.181.429 1.768.708.521.353 1.197.404 1.594.885.647.23.949.698 1.594 1.062.154.358.08.268.353.177" fill="none"/>
      <path d="M358.293 206.461c.869.43 1.346 1.952 1.481 2.854.245.897-.071 1.557-.353 2.478-.858.791-.956 1.046-2.124 1.239-1.004.301-2.098.227-3.009.531-.605.249-1.172.478-1.947.708h-2.479c-.764.45.61.069.885 0 1.378 0 2.798.018 4.07-.177h5.133c.906.136 1.037.446 1.417 1.239.376.456.498 1.232.53 2.124-.037 1.016-.2 1.316-.706 2.124-.509.63-.952.906-1.594 1.416-.828.355-2.046.575-3.185.708-1.362 0-2.825-.08-4.07.177-.94 0-4.694.252-4.366.58.619-.496 3.373-.403 4.366-.403 1.351-.277 2.552-.508 3.894-.531.846-.252 1.876-.343 2.83-.354.931.011 1.649.137 2.126.531.548.457 1.252 1.004 1.591 1.416.679.24.881.697 1.415 1.062.158.724.344 1.191.355 2.124-.22.622-.415 1.27-.709 1.77-.821.587-1.704 1.231-2.832 1.593-.979.38-1.782.496-2.83.531-.904 0-1.596.082-2.302.177l-6.604.097c1.596-.291 6.781-.097 7.845-.097 1.16 0 2.222.141 3.362.177.562.267 1.17.481 1.591.885.599.24 1.11 1.273 1.121 2.346" fill="none"/>
      <path d="M350.221 202.237c.156.315.784 1.559 1.062 2.301.19.767.177 1.612.177 2.478 0 1.107-.25 1.584-.709 2.478-.965.648-1.713 1.274-2.832 1.593-.936.167-1.702.11-2.653 0-.628-.251-1.151-.463-1.594-.885-.672 0 .39.147.709.177.53.361 1.321.571 2.124.885 1.018.412 1.403.735 2.124 1.593.647.522.812.63.885 1.593.449.507.388 1.196.177 1.77-.546.364-1.135.95-1.591 1.416-.798.333-1.087.518-2.124.531-.963-.034-1.461-.289-2.302-.354-.365-.341-.204-.265.355 0 .573.319 1.569.939 1.947 1.416.61.415.784.862 1.062 1.77.339.912.603 1.466 1.062 1.947.032.87.177 1.338.177 2.301-.248.617-.413 1.202-.885 1.593-.197.725-.642 1.017-.885 1.77-.695.409-1.585 1.259-2.124 1.77-.722.24-2.477.421-3.548.434" fill="none"/>
      <path d="M358.178 314.966c.261.615.553 1.293.706 1.947.078.642.177 1.137.177 1.947-.28.534-.342 1.172-.706 1.594-.232.649-.732.892-1.238 1.238-.683.294-1.165.518-2.126.532-.931 0-1.759-.057-2.477-.179-.784-.367-2.582-1.004-2.039-.619.683.22 1.653.706 2.215.975.741.493 1.3.777 1.947 1.591.564.39.784.711.885 1.417-.702.243-1.679.596-2.656.706-.858 0-1.674-.039-2.3-.177-.573-.273-1.059-.541-1.77-.709l1.77.709c-.573-.273-1.059-.541-1.77-.709l-2.408-.979c.475.454 3.165 1.571 3.47 2.22.25.621.408 1.378.532 2.3-.009 1.05-.101 2.247-.353 3.009-.202.734-.525 1.062-.885 1.591h-.355" fill="none"/>
      <path d="M355.702 325.584h.177c-.493 0-.232-.023.709.353.984.617 1.227.871 1.947 1.947.339.75.612.972.709 1.77.298.5.115 1.234 0 1.77-.47.385-.722.885-1.241 1.238-.349.514-.8.821-1.238 1.238-.605.131-.853.312-1.591.353" fill="none"/>
      <path d="M358.362 320.63v.177c0-.521-.03-.227.53.709.732.507.876 1.041 1.062 2.124.209.835.151 1.605 0 2.3-.546.319-1.261.86-2.036.977" fill="none"/>
      <path d="M366.847 324.712h-.177c.477 0 .234-.011-.709.177-.738.248-1.63.177-2.477.177-.656-.232-1.261-.355-1.947-.706-.585-.122-.676-.333-1.417-.355" fill-rule="evenodd" fill="#fff"/>
      <path d="M363.132 331.959h-.177c.479 0 .236.011-.706-.177-.764-.495-2.046-1.362-2.752-1.596" fill-rule="evenodd" fill="#fff"/>
      <path d="M419.957 221.543c-.307.092-3.087.279-3.903.337h-2.477c-.862-.193-1.711-.343-2.656-.354l-1.202-.437" fill-rule="evenodd" fill="#fff"/>
      <path d="M417.457 228.604l2.394-.194c.294 0-3.162.194-3.456.194-.791.141-1.598.177-2.479.177-.553.105-1.814.111-2.3.354h-2.477l-1.062-.177" fill-rule="evenodd" fill="#fff"/>
      <path d="M348.616 312.306c.117.291.885 1.669.885 2.484-.011.931-.117 1.293-.53 1.77-.686.369-1.277.695-2.302.709h-3.185c-.961 0-5.488-1.037-5.767-1.248.828.112 3.823 1.248 4.882 1.248.965.034 1.502.241 2.479.53.94.287 1.564.534 2.3.709.507.296 1.332.346 1.77.709.819.289.715.688 1.062 1.591-.069.897-.275 1.319-.885 1.77-.39.479-1.119.904-1.947 1.238-.842.39-1.805.532-3.009.532h-2.477c-.585-.195-1.429-.323-1.947-.532l1.947.532c-.585-.195-1.429-.323-1.947-.532h-.179c.676.271.8.759 1.064 1.415.062.828.177 1.486.177 2.479-.167.711-.436 1.195-.709 1.77-.312.693-.596 1.172-1.062 1.768-.156.353-.358.642-.532.355" fill="none"/>
      <path d="M339.236 308.591l.353.885c.367.443.495 1.167.709 1.77 0 .858-.041 1.674-.177 2.3-.355.578-.608.922-1.238 1.238-.415.5-.906.642-1.77.709-.509.255-1.433.172-1.947 0-.651-.154-1.328-.344-1.77-.709-.732-.172-1.19-.397-1.591-.885-.654-.163-.523-.53-.179 0 .541.447.564.929.885 1.77.011.929.177 1.339.177 2.3.163.745.271 1.408-.177 1.947-.241.679-.697.881-1.062 1.417-.947.204-1.759.353-2.832.353-.546-.404-1.727-.766-2.124-1.238-.644-.291-1.167-.656-1.591-1.062-.491-.234-2.385-1.784-2.667-2.222.438.417 2.495 2.062 2.844 2.575.477.326.924.748 1.238 1.062l1.417 1.417c.392.695.67.936.706 1.945v2.479c-.011 1.108-.172 1.257-.706 1.947l-.355.353" fill="none"/>
      <path d="M332.517 320.63v.177c0-.555-.037-.222.709.709.612.33 1.316.713 1.947.885.456.394 1.181.39 1.683.883.807.108 1.741.498 2.658.532" fill-rule="evenodd" fill="#fff"/>
      <path d="M331.898 303.982c.271.257 1.516 1.819 1.683 2.66-.011 1.039-.115 1.346-.706 1.77-.587.277-1.149.353-2.124.353-.947-.209-1.53-.805-2.479-1.238-.502-.491-1.135-.667-1.591-1.062-.89-.303-1.043-.491-.179.177.853.463 1.575.901 2.124 1.238.75.523 1.002.605 1.417 1.594.2 1.014.461 1.924.53 3.009.392.576.449 1.227 0 1.77-.436.257-.626.353-1.415.353-.479-.415-.977-.764-1.415-1.062-.349-.255-.823-.743-1.062-1.062-.47-.417-1.073-.734-1.417-1.238-.759-.333-1.108-.688-1.77-1.062-.61-.938-.028-.048.355.353.436.697.766 1.458 1.062 2.124v2.656c-.014.745-.172 1.449-.355 1.947-.901 0-1.594-.083-2.3-.179-.53-.211-1.369-.461-1.947-.706-.826-.459-1.344-.885-1.591-1.594-.422-.482-.787-1.188-1.062-1.591-.351-.445-.488-.651-.885-.885.431.461.832 1.371 1.591 1.947.53.798.981 1.046 1.241 1.947.39.472.447 1.337.53 2.124 0 .773.073 1.8-.177 2.3-.112.832-.367 1.218-.709 1.77-.266.564-.573 1.089-.885 1.591-.236 0-.177-.057-.177.177" fill="none"/>
      <path d="M335.521 301.161v.177c0-.236-.663 1.511-1.415 1.947-.892.172-1.3.353-2.3.353h-2.656l-2.124-.706c-.582-.511-1.137-.688-1.77-1.241-.525-.514-.686-.807-1.323-1.5-.261-.342-.071-.025.793.615.787.727 1.007.922 1.238 1.77.25.502.177 1.527.177 2.3-.037 1-.122 1.323-.885 1.594-.541.316-1.213.353-2.124.353-.454-.392-1.183-.66-1.77-1.238-.511-.337-1.11-1.131-1.591-1.591-.277-.429-1.525-1.945-1.954-2.22.461.312 1.94 2.034 2.484 2.396.369.649.814.97 1.241 1.415.367.621.599 1.213 1.062 1.594l.353 2.124c-.034.943-.19 1.342-.709 1.77-.686.672-.86.699-1.591.353-.608-.422-1.254-.791-1.77-1.238-.66-.181-1.213-.427-1.594-.885-.644-.227-1.098-.727-1.591-1.062-.28-.56-.741-1.066-1.238-1.417l1.238 1.417c-.28-.56-.741-1.066-1.238-1.417l-3.032-3.743c.399.463 3.864 4.336 4.093 4.983.534.427.839 1.057 1.062 1.947.076.715.177 1.339.177 2.124-.47.493-.624.846-1.417 1.062h-2.477c-.979-.037-1.284-.241-2.124-.532-.718-.415-1.03-.67-1.415-1.238-.518-.353-.819-.764-1.417-1.062-.238-.358-.511-.456-.709-.885-.321-.138-.268-.355-.53-.532" fill="none"/>
      <path d="M337.035 297.882c-.057 0-1.277.101-2.22-.087-1.204-.076-2.534-.17-3.188-.709-.936-.323-1.121-.745-1.591-1.238-.518-.624-1.176-1.25-1.594-2.126-.339-.777-.518-1.447-.53-2.477v-2.832c0-.491.335-3.224.092-3.467-.011.97-.447 3.671-.447 4.706 0 .904-.08 1.596-.177 2.302-.413.66-.844 1.41-1.591 2.124-1.03.887-1.913 1.516-3.185 1.77-1.009.298-1.248.188-1.77-.709-.647-.484-.977-1.277-1.062-2.3-.266-.998-.142-2.011 0-3.009l-.089-3.279c0-.413.089 1.172.089 1.332 0 1.043.007 1.653-.532 2.477-.408.906-1.004 1.575-1.591 2.3-.601.621-1.137.876-1.947 1.062-.853 0-1.589.009-2.124-.353-.654-.91-1.819-1.903-2.302-3.009v-6.999c.291.619.355 2.889.355 3.814-.071.913-.447 1.387-.709 2.3-.649.619-1.094 1.156-1.947 1.77-.947.484-1.761.851-2.832 1.062-1.147-.014-1.131-.103-1.591-1.062-.564-.631-.793-1.419-.885-2.3-.245-.851-.427-1.699-.532-2.479-.174-.702-.172-2.293-.353-2.834v1.949c.103.8.342 1.495.353 2.479 0 .871-.06 1.569-.353 2.124-.094.706-.312 2.692-.349 2.656" fill="none"/>
      <path d="M324.032 295.313c.076.383.353 1.562.353 2.479 0 1.039-.046 1.351-.53 2.124-.516.743-.826.706-1.947.706-.968 0-1.626-.108-2.124-.53-.656-.234-.991-.624-1.417-1.238-.484-.587-1.053-1.52-1.415-1.947-.177-.649-.532-2.279-.798-2.839-.186-.842.475 1.438.798 1.954.449.819.915 1.573 1.238 2.3.128.587.177 1.312.177 2.124-.355.5-.729.929-1.062 1.417-.635.211-1.248.342-2.124.353-.775-.117-1.225-.39-1.768-.709-.656-.218-1.009-.592-1.594-.885-.333-.505-1.069-1.27-1.415-1.947-.431-.605-.566-1.543-.885-2.124-.122-.846-.234-1.736-.532-2.3-.115-.894-.287-1.527-.885-1.947-.05-.461-.211-.376-.353-.709" fill="none"/>
      <path d="M310.755 299.579c.057.385.259 1.782.353 2.479-.011 1.016-.227 1.307-.53 1.947-.344.505-.599 1.039-.709 1.768-.468.388-.72.887-1.238 1.241-.275.41-.55.353-1.238.353-.236.073-1.252-.064-1.77-.177" fill="none"/>
      <path d="M309.7 297.629c-.193.899-.548 1.649-.885 2.479-.514.569-.91 1.108-1.238 1.591-.617.248-1.16.355-2.124.355-.484-.33-1.112-.589-1.594-.885l-.885-.355" fill="none"/>
      <path d="M333.045 173.742v.177c0-.441.025-.23-.355.531-.754.856-1.133 1.123-2.124 1.416-1.062.599-2.614.796-4.07.885-1.199.203-2.509.183-3.715.354-.392-.566-1.181-1.059-1.594-1.593-.417-.481-.626-.969-1.062-1.593-.291-.872-.826-1.577-1.062-2.478-.294-.85-.498-1.782-.709-2.655-.103-.777-.289-1.296-.353-2.124-.635-.182-.053.225.177.708.495.742.644 1.547.709 2.655.128.909.177 1.837.177 2.832 0 1.024-.092 1.646-.353 2.301-.612.624-1.02.752-1.947.885-1.066.271-2.355.177-3.541.177-.844-.114-1.131-.408-1.947-.531-.422-.377-1.135-.781-1.591-1.062-.321-.391-.702-.543-.885-.885" fill="none"/>
      <path d="M318.896 174.833l.534.856c0-.495-.021-.232.355.708.349 1.048.142 1.486-.532 2.301-.72.789-1.543 1.472-2.3 2.124-.803.368-1.463.862-2.477 1.062-1.172.147-2.417.206-3.364 0-.681-.387-1.523-1.003-1.947-1.593-.511-.501-.78-.999-1.062-1.593-.158-.583-.362-1.352-.706-1.77l.112.908c.216.643.011.243.064 1.039v2.478c-.335 1.125-.796 2.551-1.062 3.54-.369.542-.686.862-1.417 1.062-.807.481-1.591.944-2.477 1.239-.484.399-1.197.354-2.124.354-.782-.313-.943-.494-1.594-1.239-.454-.357-.56-.578-.885-.885" fill="none"/>
      <path d="M294.657 185.07v.177c0-.554.037-.223-.709.708-.337.551-.787 1.05-1.415 1.593-.406.732-1.282 1.553-1.594 2.301-.752.383-1.864.64-2.83.885-1.016.105-2.043.225-3.009.354-1.417.088-2.791.177-4.249.177-.846-.01-1.708-.157-2.3-.354-.566-.469-.676-.898-.706-1.947-.252-.753-.163-1.5-.532-1.947-.073-.413-.268-.669-.53-.885" fill="none"/>
      <path d="M330.041 181.176v.177c0-.495.021-.231-.353.708-.406.649-1.007 1.404-1.417 1.947-.617.549-1.507 1.41-2.124 1.947-1.046.872-1.887 1.182-3.185 1.416-1.156.15-1.958-.158-3.009-.708-.83-.873-.949-1.13-1.415-2.124-.085-.866-.156-1.569-.532-2.301-.156-.661-.376-1.281-.709-1.77.039-.608.284.366.355.708.193.483.28 1.445.53 1.947v2.478c.243.968.11 1.675 0 2.478-.3 1.013-.463 1.873-1.062 2.301-.69.241-1.665.354-2.653.354-1.209 0-2.539-.043-3.364-.531-.566-.385-1.041-.927-1.768-1.77-.594-.771-1.03-1.172-1.241-1.947-.417-.628-.672-1.322-1.062-1.77-.094-.753.062-.099.355.177.232.489.628 1.373.883 1.947.33.639.695 1.235.885 2.124.47.573.807 1.246.885 2.124.248.545.177 1.655.177 2.478-.156.856-.351 1.105-1.238 1.239-.727.177-1.647-.106-2.477-.531-.617-.308-.975-.601-1.417-1.239-.725-.585-1.163-1.169-1.768-1.947-.41-.431-.816-.864-1.241-1.416-.486-.598-.975-1.031-1.238-1.947l-.709-.885c.427.491.638.932.885 1.77.266.971.518 1.441.532 2.478v2.478c-.17.848-.58.772-1.417.885-.97 0-1.793.064-2.3-.354-.775-.105-1.307-.307-1.77-.708-.736-.192-1.209-.604-1.768-.885-.28-.411-.871-1.19-1.238-1.593-.245-.756-.711-1.074-1.064-1.593-.25-.251-.266-.794-.353-.708.344.406.654 1.28.885 1.77.142.791.177 1.597.177 2.478-.197.925-.53 1.383-.709 2.301l-1.062 2.301c-.644.439-1.153.916-1.945 1.239-1.046.47-2.103.671-3.364.708-.848.283-1.557.1-2.3 0-.576-.273-1.234-.548-1.594-1.062-.456-.21-.599-.439-.885-1.062-.642-.482-.876-1.199-1.238-2.124-.257-.743-.541-1.403-.706-2.124-.303-.69-.491-1.556-.885-2.124l-.177-.708" fill="none"/>
      <path d="M322.244 196.573v.177c0-.477.011-.236-.177.708-.582.905-1.264 1.673-2.124 1.947-.509.255-1.431.172-1.947 0-.803-.412-1.346-.915-1.947-1.593-.468-.857-1.268-1.635-1.77-2.478-.445-.67-.764-1.153-.883-1.947-.383-.45-.658-1.383-.885-1.947-.053-.556-.046-.247-.211-.657.229.833.527 1.223.741 2.249.351 1.084.649 1.652.355 2.831-.144 1.077-.323 1.988-.709 3.009-.234 1.039-.562 1.819-.885 2.478-.163.692-.468 1.303-.885 1.77-.401.441-1.08.558-1.77.708h-2.477c-.754-.102-1.461-.351-2.3-.531-.823-.439-.988-.645-1.594-1.239-.472-.585-.929-1.008-1.238-1.77-.452-.308-1.094-.777-1.417-1.239-.541-.532-.881-.917-1.238-1.77-.165-.761-.342-1.3-.353-2.301-.028-.533.248.852.53 1.77.257.597.447 1.54.709 2.301v2.832c0 .866.016 1.71-.177 2.478-.119.797-.42 1.162-.709 1.77-.505.311-1.048.696-1.768.885-.601.416-1.786.705-2.656.885-.878.23-1.653.354-2.656.354-1.018 0-1.497.011-1.947-.531-.424-.469-1.131-1.406-1.591-1.77-.245-.69-.603-.966-1.238-1.593-.255-.705-.658-1.57-1.062-2.124-.135-.861-.546-1.6-.709-2.301l-.353-.885" fill="none"/>
      <path d="M341.117 195.107c.034.243-.163 1.125-.291 1.641-.388 1.054-.981 1.954-1.77 2.655-.851.512-1.188.813-2.124.885-.431.323-.94.139-1.241-.177-.913-.337-1.454-.883-2.3-1.239-.796-.511-1.213-.815-1.947-1.239-.413-.607-.936-1.291-1.415-1.77-.115-.192-1.131-1.886-.936-1.356.376.556 1.298 1.632 1.644 2.418.427.588.924 1.751 1.415 2.301l1.77 2.124c.397.981.809 1.684.885 2.655.275.535.353 1.47.353 2.301 0 .963-.144 1.431-.177 2.301-.232.576-.456 1.236-.709 1.77-1.069 0-1.926-.178-2.656-.531-.573-.403-.917-.975-1.415-1.77-.349-.977-.947-1.659-1.415-2.655l-1.594-3.363c-.122-.859-.461-1.628-.53-2.655-.193-.321-.25-.418-.355-.771.112.826.177 1.487.177 2.541 0 1.082.062 2.043-.353 2.655-.316.95-.826 1.574-1.415 2.301-.718.452-1.353 1.058-2.302 1.416-1.053.365-1.869.531-3.009.531-1.14-.235-2.257-.346-3.314-.628-1.114-.1-1.908-.169-2.348-.788-.654-.734-1.392-1.545-1.947-2.478-.516-.338-.342-.385-.674-.754.376.586.316.518.498 1.461.335.694.353 1.279.353 2.124-.42.71-.858 1.466-1.415 2.124-.578.707-.876.929-1.77 1.239h-2.656c-.858 0-1.674-.041-2.3-.177-.764-.166-1.653-.516-2.477-.885-.385-.31-2.793-2.304-3.087-2.694" fill="none"/>
      <path d="M297.821 207.014h.177c-.555 0-.213-.046.532.885.534 1.076.881 2.033 1.415 3.008.131 1.092.333 1.993.355 3.186 0 1.256.094 2.435-.355 3.54-1.174 1.14-1.633 1.64-3.185 1.77-1.53.312-1.869.025-2.477-1.416-.443-.905-.78-1.913-1.238-2.832-.236-.674-.92-1.599-1.417-2.478-.271-.549-.651-1.372-1.062-2.124-.314-.823-.5-1.658-.885-2.124-.133-1.301-.248-.567.177 0-.11 1.121.619 4.285-.236 4.712-.585.277-1.197.111-2.174.111" fill="none"/>
      <path d="M343.754 197.678l.096 1.196c0-.536-.009-.235.179.885.064 1.173.344 2.354.706 3.185v2.478c-.277.936-.427 1.367-1.062 2.124-.371.548-.582.708-1.415.708-.569.284-1.8.177-2.656.177-.947-.261-2.162-.336-2.83-.885-.585-.449-1.144-.718-1.484-1.27.248.082.177.504.177.225" fill="none"/>
      <path d="M330.935 209.669v.708-.354-.354c-.154 1.665-.617 2.405-1.594 3.717-.656.77-1.303 1.457-2.3 1.947-1.408.734-2.818.947-4.424 1.062-1.211 0-1.686.048-2.302-.708-.773-.618-1.605-1.481-1.947-2.478-.647-.785-.988-1.811-1.415-2.655-.2-1.007-.569-1.883-.885-2.832-.213-.831.17.57.177 1.239 0 1.4-.222 2.49-.53 3.717-.376 1.118-.732 1.918-1.417 2.832-.693 1.098-1.543 1.506-2.653 2.301-1.692.376-3.222.338-4.956.177-1.114-.342-1.922-.589-2.832-1.239-.835-.261-1.878-.765-2.3-1.239-.862-.352-.562-.151-1.121-.431.128.812-.67 3.623-.826 4.502-.273.958-.388 1.489-1.062 1.947-.709.643-1.362 2.116-2.33 2.515-.729.158-1.635.669-2.557.742-.64.29-1.358.197-1.963.368" fill="none"/>
      <path d="M343.135 208.784c.064.392.353 1.864.353 2.831v3.009c-.055.998-.243 1.836-.353 2.655-.243.851-.615 1.236-1.238 1.77-.933.486-1.543.854-2.479 1.062-1.11 0-1.422-.178-2.3-.708-1.062-.838-1.793-1.507-2.656-2.478-.729-.784-1.213-1.402-1.77-1.947-.122-.929-.429-1.55-.706-2.478-.321-.449-.53-1.006-.885-1.416.326.651.759 1.008 1.238 1.947.553.961.853 2.018 1.238 3.009.312.815.718 1.696 1.241 2.124.371.885.612 1.206.883 2.124.083 1.07.179 2.052.179 3.185-.355 1.026-.745 1.727-1.594 2.301-1.135.676-2.14.873-3.538 1.062-1.504-.008-2.922-.082-4.07-.531-.486-.596-1.605-1.554-2.302-2.301-.587-.971-1.163-1.866-1.768-2.832-.312-.816-.603-1.52-.709-2.301-.19-.569-.255-1.472-.532-1.947-.243-1.322-.177.731-.177 1.239v3.185c-.371 1.526-1.268 2.794-2.3 4.07-1.266 1.015-2.295 1.814-3.894 1.947-1.552 0-2.644.044-3.894-.708-.582-.692-1.47-1.605-2.124-2.478-.596-1.008-1.085-1.673-1.415-2.655-.133-.614-.218-1.541-.355-2.301 0-.719-.073-.128-.128-.719l-.048 1.604c.131 1.167.177 2.324.177 3.54-.415 1.355-.438 1.893-1.945 1.947-1.076-.077-1.39-.281-2.126-.885-.848-.5-1.805-1.205-2.477-1.77-.686-.64-.984-.97-1.608-1.479" fill="none"/>
      <path d="M336.049 222.41h.177c-.521 0-.227-.03.709.531.33.498.963 1.268 1.415 1.947.466.643 1 1.814 1.415 2.301.355.623.697 1.075.885 1.77 0 1.078.142 1.98.179 3.009 0 1.084-.167 1.549-.532 2.301-.566.374-1.39.909-2.3 1.239-.917.12-1.835.177-2.832.177-.952 0-1.784-.073-2.656-.177-.603-.272-1.562-.658-2.124-1.062-.642-.568-1.325-1.538-1.947-2.301-.394-.632-.546-1.258-.706-1.947-.225-.877-.33-1.821-.709-2.478-.128-.593-.287-1.309-.353-.177-.236.469-.179 1.389-.179 2.124-.197.931-.431 1.827-.883 2.655-.674.624-1.128 1.446-2.126 1.77-1.176.744-2.529.901-3.892 1.062-1.048 0-2.257.133-3.188-.177-.594-.282-1.16-.589-1.945-1.062-.881-.554-1.552-1.204-2.126-1.947-.66-.83-.66-1.411-1.062-2.478-.057-1.004-.287-1.602-.353-2.478-.133-.246-.33-.684-.53-.885 0 1.243.165 2.262.53 3.363.06.844.177 1.575.177 2.478-.032.886-.209 1.469-.53 2.124-.64.471-.926.755-1.77 1.062-.839.157-1.722.177-2.656.177-.787-.212-1.39-.683-2.124-.885-.424-.515-.897-.736-1.415-1.593-.587-.888-.709-1.021-.709-2.124.163-.955.355-1.782.355-2.831 0-.993.023-1.541.353-2.301.041-.735.08-.426.08-1.267" fill="none"/>
      <path d="M301.903 231.613h-.177c.521 0 .206-.05-.353.885-.433.818-.649 1.647-1.062 2.124-.2.731-.521 1.047-1.062 1.416-.232.649-.732.893-1.241 1.239-.543.257-1.142.485-1.768.708l1.768-.708c-.543.257-1.142.485-1.768.708" fill="none"/>
      <path d="M357.651 242.056l.94-.534c.521 0-.89.503-1.825 1.065-.534.268-1.667.177-2.477.177-.709-.164-1.864-.429-2.302-.885-.241-.956-.592-1.889-.883-2.832-.284-.823-.427-1.764-.532-2.655-.252-.853-.427-1.569-.709-2.478-.33-1.003-.617-1.966-.883-3.009-.261-.878-.468-1.635-.532-2.478-.374-.302-.413-.87-.532-1.416" fill="none"/>
      <path d="M351.276 240.109c-.128 0-.42.839-.709 1.416-1.156 1.355-2.47 2.433-3.717 3.54-1.101.518-1.952 1.282-3.185 1.415-.511-.463-.711-1.708-.885-2.656-.498-1.673-.752-3.377-1.238-4.954-.44-.793-.874-1.755-1.062-2.478-.303-.637-.41-1.377-.53-1.947.14 1.379.796 2.672 1.062 4.07.216 1.171.353 2.309.353 3.54v3.009c-.2 1.096-.539 2.13-1.238 2.83-.181.112-.897-.381-1.594-.706-1.011-.55-2.188-1.181-2.832-1.594-.676-.979-1.718-2.09-2.477-3.185-.323-1.103-.566-2.027-.709-3.185-.234-1.02-.521-2.458-.885-3.185-.048-.582-.298-.621-.578-.931-.17 1.148-.624 1.831-1.014 2.877-.454.477-1.009.976-1.77 1.593-1.105 1.005-2.339 2.042-3.538 2.832-1.121.71-2.043.993-3.364 1.062-1.261-.039-1.768-.151-2.653-.885-1.461-.908-2.438-2.201-3.717-3.54-.954-1.047-1.316-1.429-1.415-2.832-.06-.768-.209-1.309-.355-2.124 0 .236-.057.177.179.177" fill="none"/>
      <path d="M318.001 242.409c-.053.36-.211 2.002-.353 2.656-.2.732-.468 1.085-1.062 1.415-.431.365-1.268.592-1.77.885-.915.087-1.711.25-2.479.353h-2.653c-.924 0-1.53.016-1.947-.53-.527-.433-1.076-1.335-1.415-1.947-.296-1.002-.365-1.621-.179-2.478 0-1.225.156-2.316.179-3.54l-.089-3.635" fill="none"/>
      <path d="M306.512 245.597v.177c0-.477.011-.234-.177.709-.238.713-.592.965-1.062 1.415-.892.195-1.158-.028-2.126-.353-.619-.5-.777-.933-1.238-1.415-.216-.608-.582-1.073-1.062-1.417 0-.381-.087-.264-.177-.53" fill="none"/>
      <path d="M300.94 244.083c0 .057.083.676.44 1.151.355.777.761 1.546 1.062 2.477v2.832c-.087 1.073-.243 2.302-.709 3.009-.394.564-1.385 1.014-2.3 1.415-.906.449-1.933.498-3.009.532-1.268-.28-2.332-.722-3.541-1.415-1.069-.546-2.142-1.218-3.185-1.77-.488-.424-.952-.638-1.415-1.238-.514-.376-.936-.913-1.417-1.241-.339-.498-.956-.855-1.415-1.415-.445-.319-.754-.789-1.062-1.238" fill="none"/>
      <path d="M355.977 254.127c0 .103-1.676 1.449-2.227 1.724-.688.505-1.848.979-2.832 1.417-1.381.422-2.458.706-3.892.706-.404-.592-1.495-1.323-2.124-2.124-.323-.647-.899-1.663-1.417-2.477-.321-1.02-.699-2.059-1.062-3.009-.31-.915-.589-1.445-.709-2.479-.291-.404-.527-1.617-.619-1.064.582.594.656 1.569.975 2.481 0 1.105.149 2.091.177 3.185-.252.709-.328 1.195-.885 1.594-.39.449-.66.53-1.415.53-.521.312-1.016.014-1.77 0-.926-.273-1.181-.456-1.594-1.062-.521-.365-.881-1.076-1.591-1.594-.449-.832-.711-1.142-1.062-1.945-.232-.649-.427-1.397-.532-2.302 0-.931-.144-1.743-.177-2.653 0-.638.048-2.108-.177-2.484-.133 1.078-.355 2.328-.355 3.546-.156.835-.204 1.816-.353 2.653-.39.897-.945 1.83-1.77 2.656-1.11.628-2.087.876-3.362 1.062-1.342 0-2.568-.163-3.894-.177-.814-.463-1.724-1.092-2.653-1.77-.867-.784-1.97-1.77-2.656-2.3-.218-.617-.654-.988-1.062-1.417-.252-.468-.36-.406.177-.177.461.461 1.213 1.103 1.594 1.77.291.564.709 1.793 1.062 2.3 0 .961.165 1.371.177 2.3-.167.913-.713 1.135-1.77 1.417-1.009 0-1.942-.101-2.653-.353-.848-.355-1.484-.621-1.947-1.064-.454-.307-1.094-.777-1.417-1.238-.67-.706-1.383-1.454-1.947-2.124-.358-.392-.892-1.381-1.238-1.77.172.259.296.305.532.709.633.796.991 1.296 1.415 1.947.337.874.635 1.293.709 2.3 0 .858-.041 1.676-.177 2.302-.202.738-.527 1.165-1.241 1.415-.534.268-1.667.177-2.477.177-.594-.259-1.656-.715-2.3-.885-.41-.5-1.259-1.105-1.77-1.768-.449-.578-.711-1.172-1.238-1.594.456.376.738 1.043 1.238 1.594.273.557.676 1.419.885 2.124.353.782.488 1.637.709 2.477 0 .947-.062 1.789-.179 2.656 0 .926 0 1.603-.353 2.124-.218.793-.624 1.16-1.415 1.768-.848.165-1.202.344-2.124.355-.358-.433-.878-.908-1.417-1.417-.241-.509-.601-1.3-.885-1.768-.349-.569-.713-.869-1.062-1.594-.553-.532-1.197-1.394-1.591-2.3-.447-.67-.899-2.607-1.062-3.355-.243-.163.287.454.353 1.585 0 .943-.055 1.796-.177 2.656.028 1.037.177 1.961.177 3.009-.096.704-.209 1.472-.532 1.947-.436.766-1.275 1.394-2.3 1.768-.385-.539-.839-.706-1.591-.885-.736-.376-1.264-.553-2.124-.883-.814-.592-1.16-.706-1.77-1.594-.578-.546-1.112-1.438-1.417-2.124-.135-.626-.177-1.442-.177-2.3.011-1.112.172-1.816.532-2.656.197-.72.663-1.213 1.238-1.591.502-.502 1.037-.929 1.77-1.064.089-.509.495-.491 0-.53v.53c.089-.509.495-.491 0-.53" fill="none"/>
      <path d="M354.463 267.176c0 .105-.514.433-1.062.709-1.124.358-2.376.085-3.541 0-1.149-.287-1.979-.351-2.477-1.062-.576-.413-1.461-1.325-1.947-1.947-.261-.55-.429-1.192-.53-1.947-.115-.92-.195-1.929-.355-2.832v-2.83c0-.961-.165-1.374-.177-2.302.078-.076.133.445.353.885 0 1.108-.039 2.169-.177 3.185-.096.995-.443 1.637-.709 2.302-.516.64-.805.846-1.591 1.062-.578.344-1.587.498-2.479.53-1.089-.062-1.704-.289-2.3-.885-.869-.69-1.426-1.447-1.947-2.477-.305-.993-.53-1.885-.53-3.009-.122-.787-.064-2.25-.355-2.832-.025-.516.149-1.603-.085-1.86.119.91-.083 2.591.085 3.63 0 1.165-.032 2.289-.177 3.362-.475 1.078-.697 1.658-1.591 2.124-.539.539-1.225.805-2.124 1.062-1.362 0-2.775.101-4.07-.177-.642-.174-1.245-.525-1.947-.709-.484-.408-1.209-.658-1.77-1.238-.651-.713-1.126-1.383-1.415-2.3-.862-1.108-1.5-2.169-1.947-3.362" fill="none"/>
      <path d="M350.381 277.105h-.177c.477 0 .234-.011-.709.177-.922.307-1.759.092-2.656-.177-.599-.264-1.222-.679-1.591-1.062-.617-.757-.858-.959-1.238-1.947-.298-1.218-.355-2.234-.355-3.538.014-1.032.284-1.695.532-2.656.314-.972.741-2.527.741-3.607-.039 1.172-.674 2.951-.741 4.139v2.83c-.284.851-.284 1.635-.709 2.302-.569.807-1.08 1.082-2.124 1.238-1.034-.094-1.043-.394-1.594-1.238-.936-1.128-1.458-2.642-1.768-4.07v-2.832c0-1.183.089-2.247.177-3.362.073-.732.128-.835.128.112.067 1.364.225 2.383.225 3.779-.252 1.037-.658 1.906-1.062 2.656-.757.103-1.353.342-2.3.353-.943 0-1.667-.041-2.3-.353-.443-.743-1.321-1.734-1.77-2.656-.206-.97-.493-1.784-.532-2.83-.22-.443-.277-1.394-.353-1.947.188 1.105.177 2.33.177 3.538-.009 1.126-.041 2.227-.53 2.832-.488.658-1.119.693-1.947.885-.899 0-1.867.085-2.656-.177-.885 0-1.899-.055-2.477-.355-.803-.351-1.094-.61-1.77-1.062-.362-.537-1.064-1.225-1.415-2.124 0-.938.119-1.711.53-2.3.167-.768.333-1.243.709-1.947.358-.853.695-1.229 1.062-1.77.316-.17-.865.796-1.417 1.77-.789.764-1.449 1.481-2.124 2.124-.897.566-1.364.981-2.477 1.062-1.105 0-1.559-.195-2.3-.53-.479-.525-.949-.617-1.062-1.417-.323-.796-.468-1.981-.709-2.653-.011-.998-.17-1.862-.353-2.832-.096-.706-.177-2.101-.177-1.413 0 1.53-.073 2.426.177 3.889v3.009c0 .931-.128 1.488-.355 2.124-.819.112-1.135.342-2.124.355-.876-.234-1.344-.422-1.947-.709-.417-.397-.768-.904-1.238-1.238l1.238 1.238c-.417-.397-1.481-1.348-1.952-1.683" fill="none"/>
      <path d="M344.281 287.287l-5.045-.803c-.952-.236-2.036-.319-2.477-.885-.378-.587-.658-1.307-.885-2.3 0-1.254.096-1.972.706-3.009.463-.915 1.209-1.642 1.594-2.3.511-.644 1.048-1.518 1.415-2.3.355-.555.344-.617.754-1.206.537-.094-1.642 1.188-3.231 2.268-1.227.548-2.268.697-3.717.706-1.092-.238-2.646-.592-3.538-.883-.709-.624-.709-1.605-.709-2.832v-3.185c0-.676.03-.754-.128-1.188-.073 1.007-.275 1.433-.404 2.426-.094 1.158-.289 2.144-.706 3.185-.459.869-1.023 2.041-1.594 2.656-.557.715-1.305 1.112-1.947 1.591-1.192.211-2.185.085-3.362-.177-1.261-.424-1.502-.917-1.947-2.124-.388-1.321-.353-2.777-.353-4.247.039-1.094.275-2.117.53-3.185v-3.009l.339-1.321" fill="none"/>
      <path d="M336.943 286.301c-.431.057-1.878.337-2.832.355-.693.229-1.871.177-2.832.177-1.03-.243-1.536-.252-1.947-.885-.631-.438-.874-.869-1.415-1.238-.261-.523-.555-1.105-.885-1.594-.089-1-.342-1.786-.353-2.832 0-.926-.002-1.603-.355-2.124v-.353" fill="none"/>
      <path d="M326.326 278.16v2.832c0 .929-.14 1.66-.353 2.477-.099.832-.33 1.757-.709 2.302-.422.809-1.016 1.08-1.77 1.415-.86.117-1.094.142-1.768-.177-.617-.167-1.415-.587-1.947-1.062-.924-.383-1.676-.837-2.3-1.417-.775-.543-1.309-1.098-1.77-1.591-.358-.715-.599-1.747-.885-2.3 0-.977.076-1.539.353-2.124.282-.566.651-.986 1.062-1.417.429-.408 1.514-1.199 2.13-1.417" fill="none"/>
      <path d="M314.814 280.82h-.177c.601 0 .227-.034-.885.706-.784.603-1.321.892-2.124 1.241-1.135.266-1.855.353-3.185.353-1.163 0-2.307.011-3.364-.177-.768 0-1.605-.005-2.124-.177-.193-.58-.518-1.17-.885-1.594-.135-.626-.177-1.442-.177-2.3.316-.505.562-1.555.885-1.947.449-.809.748-1.08 1.415-1.594.624-.433 1.112-.644 1.594-1.062.736-.245 1.025-.553 1.77-1.238.711-.644.995-1.096 1.591-1.591.397-.378.926-.881 1.417-1.241.234-.738.64-1.241.706-2.124v-3.362" fill="none"/>
      <path d="M295.253 291.346c-.209-.105-.764-1.126-1.323-1.686-1.236-1.243-2.279-1.83-2.3-3.538.397-.589 1.094-1.05 1.947-1.415.482-.472 1.004-.853 1.594-1.062.67-.147 1.564-.179 2.477-.179.963 0 1.431-.144 2.3-.177.929-.011 1.342-.177 2.302-.177.326-.328.693-.177-.179-.177-.628.287-1.339.353-2.3.353-.782-.339-1.252-.514-2.124-.706-.47-.408-1.043-.543-1.415-1.064-.789-.443-1.032-.837-1.241-1.768-.115-.862-.144-1.243.355-1.947.259-.995.75-1.587 1.238-2.3.585-.599.853-.709 1.947-.709h2.656c.628.112 1.337.179 1.945.353-.842-.241-1.688-1.117-2.477-1.947-.754-.819-.793-1.08-1.238-1.947-.294-1.108-.667-1.741-.709-2.83v-2.656c.17-.954.406-1.342.709-1.947" fill="none"/>
      <path d="M292.34 266.121c-.103.211-.871 1.355-1.062 1.77-.227.635-.355 1.195-.355 2.124-.156.764.007 1.158.179 1.947.516.353.938.727 1.415 1.415.768.369 1.023.725 1.415 1.417.482.326 1.202 1.098 1.507 1.594-.874-.064-1.874-.773-2.745-1.064-.507-.236-1.58-.555-2.124-.883h-3.009c-.943.071-1.128.385-1.77.706-.365.571-.638 1.055-.706 1.947-.197.592-.197 1.532 0 2.124.399.429.913 1.078 1.415 1.417.656.371 1.17.699 1.947 1.238.823.486 1.867.956 2.477 1.415.596.163 1.303.39 1.77.709.431.076.977.177.177.177-.475-.277-1.376-.342-1.947-.53-.837-.14-1.651-.431-2.653-.532-.929 0-1.236-.021-1.594.532-.72.209-.931.64-1.415 1.062-.316.667-.502 1.087-.532 2.124.19.711.374 1.066.532 1.591.131.307.463.952.709 1.153l-.709-1.153" fill="none"/>
      <path d="M284.727 247.89c-.475.122-2.08.617-3.009.885-.631.211-1.073.566-1.591.885-.514.349-.823.803-1.238 1.238-.211.633-.566 1.073-.885 1.594-.277.585-.466 1.101-.532 1.947.014 1.19.413 1.649.885 2.832.608 1.03 1.089 2.234 1.947 2.83.727.447 1.296.777 2.124 1.241.564.154 1.426.56 1.947.885.867.115 1.436.36 1.947.706h-1.415c-.828.032-1.557.147-2.126.532-.605.243-.869.725-1.415 1.062-.2.734-.507 1.046-.709 1.947-.294.587-.135 1.541 0 2.3.369.532.702 1.782 1.062 2.3.381 1.303.741 2.355 1.594 3.364.151.438 1.236 1.114 1.598 1.328-.546-.371-1.903-1.722-2.66-2.392-.447-.566-1.002-.959-1.77-1.238-.936-.358-1.809-.635-2.832-.706-.963 0-1.507.105-2.124.353-.452.392-1.03.596-1.415 1.062-.505.36-.766.938-1.062 1.594.034.952.245 1.429.709 2.124.413.619.715 1.059 1.238 1.415.527.61 1.11.968 1.947 1.415.697.498 1.325.61 2.124 1.062.787.252 1.436.617 2.477 1.062.887.486 3.263 2.211 3.992 2.488.156.234-2.357-1.504-3.107-1.956-.901-.2-1.213-.507-1.947-.709-.92-.424-1.406-.764-2.3-.885-.771-.353-1.78-.555-2.479-.706-1.064 0-1.926-.17-3.009-.177-.764 0-.826.018-1.062.53-.594.459-.931.984-1.415 1.594-.333.587-.715 1.108-1.062 1.591-.257.601-.546 1.353-.709 1.947-.156.725-.342 1.19-.353 2.124" fill="none"/>
      <path d="M269.523 281.508l.179.179c0 .498-.156-.124-.532-1.062-.585-.695-1.328-1.718-2.124-2.479-1.131-.805-2.302-1.621-3.541-2.124-1.076-.509-2.215-1.057-3.362-1.415-1.032-.2-2.098-.177-3.185-.177-1.069.011-1.225.289-1.947.53-.415.468-.8.943-1.062 1.594-.209.518-.337 1.362-.53 1.947 0 .904-.167 1.585-.179 2.477 0 .725.172 1.929-.264 2.218.183-.775.358-2.266.619-3.279-.014-1.066-.333-1.374-.709-2.3l-2.124-2.479c-.612-.777-1.39-1.692-2.124-2.3-.612-.374-1.215-.798-1.77-1.062-.899-.365-1.319-.672-2.3-.709-.42.401-.91.75-1.417 1.062-.521.355-.842.757-1.062 1.417-.323.475-.431 1.293-.53 2.124-.284.814-.353 1.351-.353 2.3-.227.3-.31.752-.355 1.238.105-.791.342-1.493.355-2.477-.14-.915-.495-1.809-.709-3.009-.032-1.22-.264-1.963-.709-2.656-.764-.681-1.465-1.669-2.477-2.3-.883-.424-1.582-.695-2.656-.709-.961.011-1.44.238-2.124.532-.248.617-.353 1.16-.353 2.124.011 1.002.188 1.36.53 1.947.105.782.454 1.374.532 2.3.243.408.177 1.273.177 1.947-.083-.954-.663-1.637-.885-2.477-.22-1.016-.493-1.869-.709-2.656-.388-1.039-.977-1.952-1.591-3.009-.624-.502-.954-1.018-1.77-1.594-.8-.695-1.406-1.105-2.3-1.238h-2.479c-.725.289-.94.564-1.415 1.062-.22.844-.644 1.523-.885 2.124 0 .881.037 1.688.177 2.479.42.438.699.91.885 1.591.298.509.709 2.254.709 3.105-.271-.725-.954-3.091-1.238-3.99-.259-.72-.672-1.594-1.062-2.3-.28-1.014-.688-1.541-1.241-2.3-.449-.693-1.163-1.296-1.947-1.77-.759-.635-1.078-.846-2.124-.885-.91.271-1.085.578-1.947.709-.333.3-.924.521-1.238.885-.167.711-.436 1.195-.709 1.77-.135.626-.177 1.442-.177 2.3.314.463.683 1.144.885 1.77.543.596.773 1.206 1.238 1.947.261.782 1.442 2.639 1.775 3.192-.105.105-1.037-1.348-1.419-1.777-.69-.954-1.032-1.541-1.417-2.656-.456-.596-.998-1.424-1.415-1.768-.582-.683-1.394-1.408-2.3-1.947-.791-.557-1.213-.532-2.302-.532-1.117-.232-1.919.007-2.653.353-.527.537-1.642 1.408-2.124 1.77-.532.676-.793 1.126-1.241 1.594-.236.592-.429 1.195-.53 1.947.076.979.461 1.197.885 2.124.47.362 1.17 1.298 1.591 1.591.339.42 2.518 2.394 1.775 2.394-.321-.472-1.403-1.608-1.952-2.039-.518-.633-1.16-1.181-1.591-1.594-.727-.314-1.314-.599-2.124-.709-1.023-.204-1.669-.321-2.656-.353-.894.08-1.381.523-1.947.885-.319.521-.674.961-.885 1.594-.399.482-.353 1.197-.353 2.124.316.466.647 1.147.885 1.768.539.518.931 1.36 1.591 1.947.702.589 1.314.874 2.124 1.062.871.032 1.339.177 2.302.177.612.039-.296.156-.532.355" fill="none"/>
      <path d="M194.834 284.008l-.177-.177c.443.443.243.229-.709-.532-1.078-.507-2.259-.667-3.538-.706-.975.25-2.034.514-3.009.706-.566.578-.933.821-1.594 1.594-.268.672-.413 1.183-.177 2.124.477.977.679 1.323 1.415 2.124.514.349.938.624 1.594.885 1.339.202 2.653.658 4.07.709 1.023 0 3.564.326 4.527.355 1.197 0-3.029-.179-3.465-.179-1.282 0-2.539.009-3.717.177-1.128.229-2.208.486-3.185 1.062-.807.459-.709.851-.709 1.947.255.631.562 1.066.885 1.591.553.511 1.014.995 1.77 1.241.926.509 1.89.975 3.009 1.062.734.248 3.85-.025 2.761-.087-.566.479-4.387.58-5.417.793-1.092.461-2.261 1.108-3.185 1.417-.2.766-.351 1.323-.177 2.124.381.621.683 1.188 1.238 1.77.443.44.693.686 1.417.883.757.371 1.995.578 3.009.885.787 0 .8-.117 1.238-.353" fill="none"/>
      <path d="M273.949 272.679c0-.06-.353-.587-.709-1.062-.936-1.096-2.518-2.305-3.717-3.364-1.289-.521-2.234-1.144-3.538-1.238-1.098 0-1.452.009-1.77.885-.385.466-.546 1.11-.709 1.947-.365.874-.353 1.695-.353 2.832-.266.53-.225 1.495-.53 1.947-.025.47-.115.771-.179.706-.294-.589.188-1.807.355-2.653 0-1.076.142-1.974.177-3.009-.413-1.612-.557-2.023-1.77-3.362-1.202-1.264-2.062-2.025-3.538-3.009-.775-.2-1.793-.521-2.832-.532-.64.346-1.507.906-2.124 1.415-.621.842-.871 1.378-.885 2.479.128.972.424 1.596.885 2.477.245.624.518 1.422.709 2.302.323.828.456 2.029.883 2.653.119.945.112.608-.177 0-.092-1.199-.472-2.314-.885-3.185-.344-1.291-.725-1.763-1.415-2.832-.683-1.062-.984-1.491-2.124-1.591-.757-.252-1.722-.252-2.479 0-.654.362-.846.58-.883 1.591-.202.603-.268 2.062-.268 2.924 0 .261.899-3.674.621-4.692-.663-1.222-1.408-2.176-2.479-3.188-1.043-1.252-1.988-2.401-3.362-3.185-.961-.284-1.491.138-2.124.709-.826.55-1.468 1.332-1.77 1.947-.2.736-.461 1.16-.885 1.947-.665.83-1.209 3.869-1.325 3.286-.142-.952.204-3.399.443-4.348.099-1.218.206-2.273-.179-3.185-.734-.972-1.376-1.688-2.3-2.124-.615-.672-1.078-.709-2.124-.709-.787.25-1.814.844-2.656 1.415-.516.484-.738.816-.883 1.417-.319.55-.569 1.69-.709 2.3-.183.759-.518 1.47-.532 2.477-.367 1.202-.177-.819-.177-1.415-.282-.851-.142-2.009-.53-2.656-.479-.887-.702-1.094-1.594-1.768-.906-.41-1.367-.709-2.477-.709-.495.346-1.092.569-1.594 1.062-.562.72-1.039 1.436-1.591 2.3-.193.768-.179 1.612-.179 2.479.021.72.149 1.142.179.177v-2.832c-.193-.991-.367-1.449-1.241-1.77-.615-.333-1.445-.353-2.477-.353-.72.255-.933.562-1.062 1.415-.44.619-.532.826-.532 1.77-.25.5-.177 1.527-.177 2.3-.282.378-.321 1.142-.353 0-.06-.887-.287-1.851-.532-2.477-.589-.459-1.401-.972-1.947-1.238-.865 0-1.711-.016-2.477.177-.683.349-.681.887-1.238 1.415-.179.761-.463 1.059-.532 1.947-.161.745-.105 1.346 0 2.124.197.555.493 1.229.355 1.594-.44-.505-1.165-1.429-1.77-2.3-.656-.53-.837-.759-1.77-.885-.761-.06-1.231-.179-2.124-.179-.429.374-.954.748-1.415 1.064-.415.61-.757.741-.885 1.591-.268.534-.181 1.585 0 2.124.431.28.576.635 1.062.885.367.456.92.899 1.238 1.415.211.424.287.211-.353.179-.555-.665-1.277-.917-2.302-1.417-1.103-.197-1.894-.016-3.009.177-.502.727-.846 1.408-.883 2.479.034.943.633 2.323 1.151 2.752" fill="none"/>
      <path d="M280.485 260.273h-.8859999999999999c-1.401-.131-2.66-.342-4.07-.355-1.298 0-2.293.014-3.362.532-1.039.362-1.243.75-1.947 1.415-.452.844-.993 1.543-1.238 2.479-.319.787-.672 1.491-.709 2.477.227 1.355 0-.975 0-1.594.282-1.596.179-3.139-.177-4.777-.339-1.156-.711-2.105-1.238-3.185-.397-.704-.851-1.309-1.77-1.594-.638-.183-1.672-.209-2.3 0-.447.314-1.186 1.16-1.594 1.77-.452.601-1.048 1.514-1.415 2.124-.44.738-.789 1.665-1.062 2.3-.089.514-.218 1.078-.355 1.417-.353-.709-.78-.945-1.768-1.417-.92-.787-1.949-1.504-2.832-1.947-.706-.438-1.715-1.069-2.479-1.415-.543-.378-1.468-.61-2.3-.709-.86 0-2.078-.11-2.653.177-.688.245-.933.628-1.241 1.241-.312.507-1.837 2.273-1.777 2.13 0-.986.869-2.979.539-3.901-.47-.933-.858-1.378-1.062-2.124-.557-.617-.759-1.284-1.415-1.77-.241-.676-.697-.878-1.062-1.415-.787-.335-.881-.67-1.947-.709-.881 0-1.697.142-2.302.353-.658.181-1.211.424-1.591.885-.796.381-.94.711-1.594 1.238-.454.319-1.014 1.007-1.238 1.594-.516.628-.073.805 0 1.77" fill="none"/>
      <path d="M277.48 252.155v-.179c0 .523.032.229-.53-.706-.358-.58-.732-1.039-1.417-1.77-.612-.718-1.03-.709-2.124-.709-.773 0-1.8-.073-2.3.177-.69.264-1.094.931-1.594 1.594-.56.777-1.117 1.339-1.415 1.947-.355.846-.683 1.209-.885 1.947-.447.335-.427.693-1.062.885-.319-.578-.904-.922-1.238-1.417-.791-.273-1.841-1.046-2.656-1.591-.865-.576-1.656-.899-2.477-1.417-.789-.273-1.286-.353-2.3-.353-1.112.05-1.628.307-2.479.885-.773.365-1.307.913-1.947 1.415-.624.433-3.178 4.187-3.818 4.715-.654.615 2.22-2.85 2.756-3.83.413-1.046.709-1.681.709-2.832-.202-1.447-.333-2.779-1.417-3.715-.848-.333-1.853-.523-3.009-.532-.809.11-1.222.358-2.124.532-.679.362-1.355.543-1.947 1.062-.566.349-.867.713-1.591 1.062-.353.518-.878.734-1.238 1.238-.261.112-1.222 1.073-1.335 1.335" fill="none"/>
      <path d="M271.633 248.073h-.177c.521 0 .229.03-.706-.532-.486-.33-.94-.752-1.417-1.238-.995-.252-1.789-.718-2.832-.885-.885-.362-1.88-.706-2.653-.885-.764 0-1.617-.005-2.124.177-.353.518-.764.819-1.062 1.417-.236.498-.401 1.316-.709 1.768-.021.709-.374 1.938-.8 2.222.394-.697 1.114-2.596 1.33-3.814-.273-1.298-.789-2.495-1.415-3.717-.69-.84-1.486-1.663-2.3-2.478-.819-.205-1.734-.177-2.656-.177-1.078 0-1.426.013-1.947.708-.505.398-.949 1.099-1.415 1.416-.507.677-.979.966-1.238 1.948-.36.702-.539 1.227-.709 1.947l.709-1.947c-.36.702-.539 1.227-.709 1.947v.177c.22-.738.69-1.442.709-2.478 0-.916.039-2.007-.177-2.655-.282-.7-.564-1.131-1.241-1.593-.826-.816-1.507-1.365-2.477-1.77-.791-.405-1.61-.466-2.479-.177-.865.363-1.209.676-1.591 1.239-.764.27-.848.594-.885 1.593-.032.96-.161 1.738 0 2.478.119 1.011.41 1.65.709 2.478.385.596.832.949 1.062 1.591.236 0 1.069 1.28 1.069 1.516" fill="none"/>
      <path d="M270.761 247.362c0-.397-.358-2.431-.358-3.364 0-.962-.165-1.373-.177-2.302 0-.643.17-2.043-.264-1.775.032.87.087 2.051.087 3.014-.252.708-.328 1.194-.885 1.593-.573.383-1.468.353-2.477.353-.846-.092-1.915-.147-2.479-.53-.908-.195-1.472-.463-2.124-.885-.605-.344-1.108-.732-1.594-1.062-.204-.754-.573-.947-.706-1.947-.401-.923.532-3.106.277-3.359-.069.904-3.394 2.313-4.348 2.651-.97.329-1.75.354-2.832.354-.72 0-1.472-.004-1.947-.177-.754-.55-1.135-.904-1.77-1.416-.828-.634-1.452-.983-2.3-1.77-.736-.699-1.124-1.34-1.591-1.947-.303-.656-.839-1.739-1.241-2.301-.094-.706-.177-1.399-.177-2.301v2.478c-.353.779-.924 1.584-1.591 2.301-.97.445-1.731.923-2.832 1.062-.612-.341-1.399-.626-1.947-.885-.922-.137-1.248-.415-1.77-1.062-.605-.976-1.142-1.674-1.238-2.831-.271-.483.094-.907.177-1.593 0-.381.087-.263.177-.531" fill="none"/>
      <path d="M217.146 226.125c-.055 1.067-1.603 2.383-1.954 3.19-.287.91-.894 1.445-1.243 2.122-.842.477-1.534.671-2.479 1.062-1.296.046-2.344.315-3.715.354-1.11 0-2.738.309-3.272-.354-.745-.807-2.135-1.882-2.745-2.655-.608-.588.445-2.09.282-2.391" fill="none"/>
      <path d="M177.68 243.531c-.367 1.102-.766 4.716-2.13 6.842-.617.805-1.456 1.112-2.3 1.415-1.004.261-1.791.605-3.009.709-.853.326-1.325.351-2.124.177l-.436-1.156c.658.328.073 1.72.612 2.573.069.906.319 1.158.353 2.124 0 1.043-.039 2.011-.177 3.009-.092.91-.25 1.711-.353 2.477-.534.803.009.122-.702.525-.729.22-1.53.585-2.477.706-.773.193-1.619.349-2.302.443-.965.573-.546.449 0 1.238.638.514.851.697 1.062 1.683.252.498-.268 2.594-.713 3.369-.078.92-.424 1.566-.532 2.477-.294 1.034-.424 2.165-.709 3.185-.177.676-.53 1.472-.706 2.302l-1.417 2.124c-.502.31-1.741.972-2.305 1.243-.151.585 1.034.518 1.419 1.057.573.573.851.956 1.062 1.947.149.984.362 1.575.532 2.3-.112.768-.39 1.736-.885 2.3-.271 1.018-.647 1.546-1.238 1.947-.569.53-1.342.947-2.124 1.062-.546.381-1.468.61-2.3.709-.294.248-1.757 1.362-2.133 1.514" fill="none"/>
      <path d="M240.675 242.762c-.2 0-1.289-.057-1.77-.177-.846-.494-1.78-.354-2.832-.354-.933.178-1.55.332-1.945.885-.417.785-.695 1.374-.709 2.477.011.995.319 1.722.53 2.479.374.449.415 1.213.709 1.768l.445 2.043c-.381-.853-1.17-3.029-1.507-4.167-.19-1.266-.328-1.848-1.238-2.477-1.199-.977-1.807-1.508-3.185-1.77-.959.154-1.699.784-2.479 1.238-.509.596-1.468 1.147-2.124 1.594-.876.761-1.468 1.307-1.77 2.477 0 .904.083 1.596.179 2.302.14.647.323 1.362.53 1.945.236 1.032.456 1.958.532 3.009.179.181.177 1.076.177.885-.424-.58-.656-1.351-.885-2.124-.273-.775-.642-1.52-1.062-2.3-.809-.706-1.014-.768-2.124-1.062-.858 0-1.674.041-2.3.177-.39.321-1.027.626-1.417 1.062-.482.612-.986 1.165-1.238 2.124 0 .904.083 1.596.177 2.3v4.252-2.126" fill="none"/>
      <path d="M239.436 235.153h-.177c.493 0 .232.022-.709-.354-.47-.32-1.264-.412-1.77-.708-1.023-.038-1.832-.177-3.009-.177-1.037.093-1.25.518-1.415 1.593-.248.74-.177 1.631-.177 2.478-.062.941-.248 1.746-.355 2.655-.103.478.122 3.405-.085 3.82-.154-1.035-.809-3.898-1.153-4.705-.605-1.332-1.367-2.333-2.477-3.54-.819-.711-1.245-.533-2.302 0-1.018.13-1.229.358-1.768.708-.534.39-1.08.91-1.417 1.593-.564.446-.89 1.041-1.062 1.77.06.777.294 1.499.532 2.124.165.32 1.791 3.715 1.956 3.999.186.307-1.543-2.775-2.133-3.291-.608-.594-1.202-.531-2.302-.531-1.41.176-2.58.386-3.715 1.062-.605.584-.816 1.105-1.241 1.593-.099.734-.291 1.419-.353 2.3.133.876.413 1.243.885 1.947.161.367 1.319 1.963 1.422 2.396-.681-.376-2.701-1.511-3.722-1.511-1.037.138-1.422.461-1.947 1.238-.369.91-.355 1.786-.355 2.832-.03.871-.177 1.569-.177 2.477l.358 4.628c-.156-.66-.732-4.846-1.064-5.334-.369-.858-.984-1.929-1.77-2.479-.566-.339-1.195-.133-1.77.177-.238.486-.835 1.445-1.238 1.947-.236.887-.518 1.128-.532 2.124l1.424 4.708c0 .261-1.186-2.974-1.248-3.114-.298-.715-.853-1.805-1.238-2.656-.612-.415-.91-.835-1.591-1.238-.647-.475-1.172-.777-1.77-1.062-.871-.248-1.647-.353-2.656-.353-.706.346-1.069.608-1.591 1.415-.248.892-.355 1.621-.355 2.656v2.653c.193.704.479 1.218 1.062 1.77.371.546 1.644 2.238 2.133 2.841.718.718-1.195-1.754-1.601-1.956-.727-.388-1.103-.594-1.947-.709-.5-.25-1.527-.177-2.3-.177-.839.289-2.039.468-2.656.885-.991.371-1.835.424-2.124 1.238.037 1.066.243 1.644.532 2.479.438.809.725 1.422 1.238 1.945.353.521.754.844 1.415 1.064l2.486 1.949c-.548-.33-2.328-.557-3.016-.358-.486.33-1.188.874-1.947 1.415-.768.608-.709 1.03-.709 2.126.064.844.255 1.36.532 1.945.287.608.564 1.041.885 1.77-.122.268 4.187 3.061 4.187 3.298" fill="none"/>
      <path d="M234.483 233.03h-.177c.521 0 .227-.03-.709.531-.8.267-1.58.4-2.3.177-1.053-.124-2.091-.177-3.185-.177-.355-.266-.803-.141-1.062-.531-.72-.317-1.066-.526-1.241-1.239-.408-.681-.791-1.696-1.062-2.478-.385-.721-.674-1.246-1.062-2.124 0 1.081.183 2.024.355 3.008v2.655c-.443.837-.413 1.264-1.417 1.416-.878 0-1.697-.143-2.3-.354-1.387-.336-2.878-.677-4.247-.885-.58-.829-1.234-1.105-2.293-2.116" fill="none"/>
      <path d="M215.725 232.321c-.876.239-1.715.1-2.3.708-.394.593-.908.813-1.062 1.593-.546 1.06-.709 2.44-.709 3.893.202 1.02.803 1.986 1.417 2.655.319.519 1.082 1.62 1.596 2.392.516 1.018-.404-.306-1.066-.623-.858-.978-1.942-1.919-3.185-2.124-1.355-.33-2.433-.452-3.715 0-.904.445-1.098.864-1.241 1.947-.25.501-.177 1.526-.177 2.301.011.977.177 1.841.177 2.83.257.796.151 1.844.355 2.656.321.445.578 2.385.796 2.756-.222-1.103-.743-3.96-1.328-4.88-.431-.633-1.08-1.043-1.77-1.415-.587-.236-1.248-.429-2.124-.532-.862-.216-1.823-.218-2.477 0-1.037.367-1.387.64-1.77 1.415-.151.695-.413 1.525-.709 2.302-.06.791.002 3.41.002 4.35" fill="none"/>
      <path d="M204.396 232.498c0-.252-1.929.773-2.124 1.416-.977.616-1.344 1.264-2.564 1.329-1.199.191-2.229.623-3.538.623h-4.603" fill="none"/>
      <path d="M198.549 235.507v.177c0-.521.03-.227-.532.708-.727.948-.968 1.405-.709 2.655 0 1.024.144 1.845.179 2.832l1.591 3.893c.438.798.296.378-.53.355-.86-.33-1.644-.355-2.656-.355-.938 0-1.809.028-2.656.179-.665.443-1.319.725-2.124 1.062-.498.383-1.374.757-1.768 1.238-.188.56-.179 1.484-.179 2.3.099.725.248 1.284.532 1.77.523.789 1.016 1.321 1.77 2.124.401.383 1.048.793 1.591 1.238.548.165 1.775.887 2.13 1.243-.635-.436-2.972-1.945-3.722-2.658-1.663-.736-3.428-1.355-5.311-1.594-1.121.041-1.94.599-2.653 1.238-.479.688-.72 1.076-1.417 1.417-.548.672-1.108.564-1.238 1.591-.268.805-.025 1.383.177 2.302.335.846.697 1.8 1.062 2.477.537.525.869.947 1.417 1.594.663.578 1.064.991 1.77 1.238.427.408 1.601.842 2.218 1.062-.429.371-1.857.631-2.396.885-.78.66-1.319 1.119-1.768 1.591-.096.706-.179 1.399-.179 2.302-.041.734-.177 1.103-.177 1.945.36.514.844 1.475 1.417 1.947.491.566 1.094.796 1.591 1.241.353.149.571.36.885.53l-.885-.53c.353.149 1.908.449 2.222.619" fill="none"/>
      <path d="M191.279 235.683c-.083 0-.589.59-1.062 1.062-.748.724-.807 1.203-1.238 2.301 0 1.093.007 1.824.709 2.478.422.765 1.078 1.452 1.591 2.124.612.593.881 1.075 1.241 1.77-.353-.518-1.053-1.089-1.594-1.947-.599-.43-1.174-1.211-1.947-1.77-1.053-.381-1.514-.503-2.477-.354-.816.544-1.672.934-2.302 1.593-.725.615-1.392.795-1.768 1.593-.569.406-.672.807-.709 1.77 0 1.131.25 1.617.532 2.653.479.832.894 1.619 1.238 2.126.277.227 1.192 1.475 1.332 1.332-.488-.294-1.589-1.348-2.394-1.511-.667.305-2.057.179-3.009.179-1.048 0-1.681.005-2.479.353-.711.271-1.536.638-2.3 1.238-.952.328-1.495.69-1.591 1.77.156.86.537 1.009 1.238 1.77.775.816 1.491 1.681 2.477 2.3.44.638 1.536 1.445 1.947 1.947.502.229 3.116.174 2.14.174-.777.202-4.169.791-4.795 1.241-.784.75-.961 1.438-1.062 2.656.064 1.098.353 2 .532 3.009.447.915.58 1.61 1.062 2.3.381.587 1.291 1.454 1.77 1.77.764.31 1.938.887 2.832 1.238.472.172 1.27.36 1.945.53h-3.185c-.828.22-1.465.312-1.947.709-.732.245-.906.642-1.415 1.062 0 .97.103 1.52.532 2.124.115.775.548 1.527 1.062 1.947.415.658 1.043 1.231 1.591 1.594.713.621 1.03.766 1.77 1.062.803.108 1.511.413 2.3.53.401.333 1.44.532 1.947.885l-1.947-.885c.401.333 1.44.532 1.947.885l.89.268c-.826.126-2.089.163-3.013.617-1.261.388-2.509.642-3.009 1.415-.796.399-.869.773-1.062 1.594-.073 1.025-.115 1.392.177 2.124.445.64.904 1.069 1.417 1.417.523.438 1.534 1.273 2.3 1.591.881.509 1.493.764 2.124 1.062-.844.14-1.722.177-2.656.177-.576.337-1.032.351-1.415.885-.592.431-.979.846-1.062 1.77-.257.766-.087 1.293.353 2.124.55.415 1.156.991 1.77 1.415.638.298 1.637.676 2.477.885.287.115 1.305.177.355.177-.454.234-1.401.179-2.124.179-.926.083-1.286.422-1.947.885-.566.564-.846.686-.885 1.768 0 1.004.089 1.438.53 1.947.466.977.892 1.282 1.594 1.77.596.362 1.559.502 2.477.53 1.089 0 2.151-.025 3.185.179.447 0 3.935.582 4.002.534" fill="none"/>
      <path d="M174.997 263.644c0 .053-.326.516-.53 1.062-.883.667-.899 1.257-1.947 1.415-.745.163-1.346.105-2.124 0-.316-.443-.933-.913-1.415-1.238-.401-.578-1.057-1.757-1.509-2.128" fill="none"/>
      <path d="M176.511 269.836c-.044.268-.858 1.743-.975 2.302-.672.674-1.658 1.711-2.656 2.302-.75.177-1.3.44-2.3.53-.839.271-1.878.177-2.832.177-.775-.179-1.328-.502-2.124-.885-.342-.422-2.442-2.181-3.018-2.573" fill="none"/>
      <path d="M175.548 272.198c0 .271-.397 4.075-.887 5.781-.429.757-1.059 1.621-1.591 2.477-.569.954-.901 1.475-1.947 1.947-1.176.443-2.344.532-3.717.532-.878-.211-1.977-.766-3.009-1.062-.64-.436-1.488-.956-2.124-1.417-.642-.53-1.408-1.011-1.773-1.77" fill="none"/>
      <path d="M178.896 287.723h-.177c.479 0 .234-.011-.709.177-1.197.177-1.954.069-3.009-.355-.764-.266-1.674-.959-2.477-1.591-.736-.711-1.408-1.376-1.947-1.77-.055-.585-.316-1.059-.709-1.415 0 .892.08 1.66.179 2.477 0 .998-.131 1.777-.355 2.656-.28.984-.67 1.348-1.415 2.124-1.059.22-1.997.353-3.185.353-1.277-.009-2.376-.216-3.541-.353-.64-.291-1.22-.592-1.77-.885" fill="none"/>
      <path d="M178.644 287.883c-.633 1.977-2.862 3.002-3.282 3.545-1.002.243-1.857.521-3.009.532-1.034 0-1.149-.044-1.77-.532-1.025-.342-1.351-.621-1.77-1.238 0-.236.06-.177-.177-.177" fill="none"/>
      <path d="M180.845 298.34l-.177.177c.401-.401.209-.255-.177.709-.55 1.034-1.28 1.204-2.3 1.591-.936-.14-1.3-.482-2.302-1.062-.933-.523-1.64-1.419-2.3-2.3-.534-1.188-.885-2.188-.885-3.538-.245-.555-.33-1.234-.709-1.594v3.717c-.275.828-.312 1.475-.53 2.3-.147 1.078-.369 1.864-.709 2.656-.651.904-1.663 1.128-3.009 1.238-1.08.232-2.346.177-3.538.177-.929-.11-1.486-.289-2.3-.53-.938-.532-1.192-.695-1.947-1.594-.828-.936-1.814-2.119-2.302-3.009-.28-.991-.761-3.976-.975-5.059 0-1.046.099 2.431.092 2.935-.257 1.585-.355 3.11-.355 4.779v2.83c-.183 1.172-.33 1.773-1.062 2.479-.511.573-1.47 1.286-1.947 1.591-.378.461-.871.805-1.591 1.062-.777.427-1.52.603-2.302.709-.427.076-.725.337-1.062 0" fill="none"/>
      <path d="M181.395 305.931c-.42.61-1.222 1.979-1.952 2.13-.775.408-1.979.353-3.185.353-.851-.195-1.745-.149-2.124-.709-1.371-.92-2.628-1.972-3.717-3.185-.477-.612-.933-1.335-1.241-1.947-.408-.14.05.408.179.709.644.947 1.069 1.901 1.238 3.009.227.846.227 1.974 0 2.653-.209.94-.486 1.608-1.238 2.302-.362.449-.952.353-1.77.353-1.144-.144-2.059-.621-3.185-1.062-1.227-.725-1.741-.936-2.3-2.124-.232-1.344-.369-2.75-.532-4.07-.023-.484-.034-2.435-.264-2.665-.252.658-.647 3.112-.975 3.903-.209 1.137-.326 1.493-1.415 1.594-.578.282-1.376 0-2.302 0-.64-.218-1.053-.371-1.415-.709l-.532-.709" fill="none"/>
      <path d="M183.689 308.063h-.177c.521 0 .206-.05-.355.883-.42.631-.55 1.406-.706 2.126.073.959.319 1.197.706 1.768 1.032.624 1.204.885 2.479 1.062 1.385.264 5.63-.092 7.013.174 1.087.156-3.071.8-3.474.887-.683.367-1.429.482-2.124 1.062-.956.738-1.676 1.346-2.3 1.77-.179.683-.353 1.355-.353 2.3.241.603.564 1.149.885 1.77.654.688.855 1.085 1.768 1.417 1.403.05 2.789.165 4.247.177 1.417-.367 3.976-1.002 4.873-1.507.259 0-1.014.383-1.156.445-.594.296-1.181.75-1.947 1.415-.729.365-.972.777-1.415 1.415-.461.592-.647 1.114-1.062 1.594-.124.91-.128 1.174.353 1.947.649.897.809 1.27 1.77 1.415.397.381.988.869 1.591 1.241.424.193 3.043.211 2.848.527-.862.062-4.054.335-4.616.711-.722.255-.933.562-1.062 1.415.037 1.011.225 1.254.706 1.947.323.475.807.938 1.417 1.238.431.413 3.511 1.032 4.086 1.509.743.259-2.582-.268-3.201-.268-.502.25-1.527.177-2.302.177-.314.509-.72.991-1.062 1.591-.319.532-.073 1.151 0 1.77.463.498 1.103 1.557 1.417 2.124.582.397.722.745 1.591 1.062.358.392 3.596 1.635 4.181 1.69" fill="none"/>
      <path d="M190.935 342.393v.179c0-.523.05-.209-.885.353-.431.534-1.101 1.131-1.415 1.591-.165.796.03 1.192.353 1.947.472.381 1.098 1.144 1.417 1.77.823.752 1.383 1.202 1.768 1.77.534.161 2.461.984 3.022 1.332-1-.014-3.476-.913-4.437-.979-1.174 0-1.706.133-2.479.532-.319.518-.672.961-.883 1.591-.22.621-.433 1.215-.532 1.947-.245.761.009 1.179.353 1.77.617.498.878.823 1.594 1.062.511.456 1.124.695 2.124.709.44.22 2.309.087 2.841.087-.612.399-2.497.784-3.194.975-.555.284-1.236.491-1.594.885-.383.599-.672.963-.709 1.945.296.741.745 1.426 1.594 2.126.787.887.865 1.064 1.947 1.415.917.424 4.685.041 5.687.085-.887.133-4.774 1.215-5.687 1.862-.644.459-.679.977 0 1.591.436.777.936 1.179 1.77 1.417.961 0 1.371-.165 2.3-.177.816.096 3.814-.092 4.706-.092-.686.388-4.219.86-5.238.977-.885.305-1.25.333-1.415 1.238 0 .816-.096 1.406.353 1.77.459.809.729.871 1.77.883.514.31 1.215.039 1.947 0h6.125" fill="none"/>
      <path d="M202.768 383.074c.534 0-5.472-7.675-7.928-6.864-1.131.193-1.864.209-2.3 1.062-.635.633-1.266 1.704-1.594 2.653-.085.959-.232 1.727 0 2.656.163.699.576 1.44.709 2.3.195.381.433 1.209.177 1.594-.126-.605-.305-.981-.532-1.77-.209-1.346-.333-2.789-.53-4.07-.553-.417-1.213-1.076-1.947-1.594-.998-.142-1.867-.17-2.656 0-.654.573-.899 1.025-1.591 1.417-.569.188-2.023.314-2.834.353" fill="none"/>
      <path d="M169.7 310.196l.709.885c.433.323.58.638 1.238 1.062.757.573 1.562.885 2.656 1.062 1.08.362 2.231.518 3.362.706.975 0 1.958.016 2.832-.177 1.014 0 1.536-.144 2.477-.177l.713-.268" fill="none"/>
      <path d="M184.4 320.103v.179c0-.479-.011-.234.177.706 0 1.066-.165 1.353-.532 1.947-.773.56-1.637.736-2.653 1.062-1.303-.057-2.428-.289-3.541-.706-.858-.711-1.218-1.199-1.77-2.302-.576-1.752-1.043-3.1-1.062-4.956 0-1.023.028-1.802-.53-2.3-.271-.268-.298.461-.532.885-.078 1.064-.539 1.69-1.062 2.656-.644.621-1.399 1.342-2.3 1.947-.931.206-1.257.365-2.124.177-.578-.686-1.378-1.539-1.77-1.947-.216-.828-.83-1.83-1.238-2.832-.381-.952-.809-1.766-.885-2.832-.355-.979-.284-.844-.53.177-.518 1.121-.67 1.857-1.241 2.832-.741.576-1.419 1.085-2.477 1.417-1.236.186-2.043.094-3.185-.179-.862-.31-1.277-.69-1.77-1.415-.548-.539-.768-.915-.885-1.77-.36-.587-.75-1.857-1.062-2.653-.351-.427-.603-1.248-.709-1.947-.245-.202-.399-.578-.53-.885" fill="none"/>
      <path d="M190.499 323.451c-.025.342-.392 2.697-.798 3.373-.482 1.011-.663 1.376-1.77 1.415-1.098-.177-1.956-.729-2.832-1.415-.732-.924-1.454-1.621-1.945-2.653-.532-.438-.475-.69-.353 0 .564.578.516.56.53 1.591v2.656c-.011.874-.142 1.486-.355 2.124-.335.936-.722 1.401-1.591 2.124-1.009.225-1.176-.142-1.947-.709-.945-.383-1.314-.729-1.947-1.238-.502-.502-1.02-1.114-1.417-1.77-.094-.706-.177-1.399-.177-2.3l.713-3.903c-.135-1.082-.858.917-1.419 1.603-.456.874-1.037 1.555-1.594 1.947-.743.69-1.894 1.004-3.009 1.238-1.048 0-1.892-.161-2.832-.355-.617-.853-.832-1.332-1.238-2.124 0-1.103.161-1.857.353-2.83.186-.922.433-2.506.445-3.458 0-.961-.165 1.046-.445 1.511-.232 1.048-.475 1.103-1.238 1.768-.917.124-1.83.179-2.832.179-1.073 0-2.05.094-3.009.353-.66-.232-1.009-1.163-1.415-1.947-.229-.688-.346-1.342-.353-2.3 0-.913-.211-1.449-.355-2.124-.404.899-.768.97-1.768 1.062-.582 0-1.273.064-1.594-.179-.346-.566-.812-1.089-1.062-1.591l1.062 1.591c-.346-.566-1.614-2.337-1.864-2.839" fill="none"/>
      <path d="M191.829 330.193c0 .17-.094 1.128-.177 1.594-.319.732-.424 1.394-.532 2.3-.009.876-.142 1.488-.353 2.124-.41.562-.899.871-1.415 1.238-1.197 0-1.55-.11-2.479-.706-.775-.628-1.5-1.167-2.124-1.594-.507-.853-1.034-1.52-1.594-2.3l-.624-.624c-.36-.752.399.417.624 1.332.268.933.355 1.757.355 2.83-.032 1.131-.236 2.073-.355 3.188-.479.947-.498 1.153-1.591 1.238-1.156 0-2.259-.016-3.362-.177-1.089-.167-1.908-.468-2.832-1.062-.236-.617-.355-1.397-.355-2.302.014-1.078.264-1.984.355-3.009.378-1.032.523-1.686.885-2.653.289-.388.456-.807.53-1.417-.158 1.098-.743 1.874-1.062 2.832-.562 1.055-1.449 2.137-1.947 3.185-.674.647-.917.904-1.591 1.238-.798-.119-1.163-.42-1.77-.706-.346-.509-.759-.805-1.062-1.594-.56-.789-.697-1.142-.709-2.3 0-.713.057-1.947 0-2.124-.073-.225-.931-3.311-1.156-3.385" fill="none"/>
      <path d="M167.407 327.349c-.275.177-1.436.509-2.3.53h-3.185c-1.034-.094-.938-.484-1.241-1.238-.321-.936-.472-1.702-.53-2.656-.154-.855-.601-.938-.711-1.676-.509.33-.534-.101-1.413.085-1.218.186-2.195.445-3.364.706-1.094.151-2.082.342-3.185.355-1.03 0-1.837.099-2.3-.532-.296-.594-.344-1.417-.353-2.3 0-.995.11-1.958.353-2.656.362-.672.83-1.387 1.415-1.947.333-.486.754-.908 1.241-1.238.365-.537.821-.738 1.062-1.415.424-.351.638-.894.885-1.417" fill="none"/>
      <path d="M143.489 316.48c.316.073 2.669.596 3.194.977.869.484 1.209 1.034 1.768 1.591.28.592.466 1.131.709 1.947.135.674.177 1.573.177 2.479-.33.543-.642 1.449-.885 2.124-.365.539-.69.892-1.415 1.238-.853.656-2.328 1.248-3.541 1.77-.816.096-1.585.177-2.477.177l-2.745.534c-.855 0-2.08-.11-2.653.177-.261 0-.135.041-.355-.177" fill="none"/>
      <path d="M168.645 334.435c-.071 0-.557.569-1.062.883-.417.706-.592 1.119-1.062 1.947-.305.828-.466 1.465-.53 2.302v2.477c.009.929.177 1.339.177 2.3v7.433-2.477" fill="none"/>
      <path d="M170.755 336.912c0 .355-.213 3.27-.002 3.903.057 1.073.36 1.674.709 2.477.553.429 1.286 1.413 1.947 2.124.532.534 1.071.867 1.947 1.062 1.025.204 1.839.355 2.653.179.667-.291 1.683-.862 2.479-1.241.362-.789.887-1.679 1.238-2.653.303-.933.326-1.899.353-1.594.376.305 1.08 1.147 1.417 1.594.75.452 1.486.984 2.124 1.768.663.738 1.734.493 2.747.527" fill="none"/>
      <path d="M172.888 349.823c0-.06 2.085 2.672 2.837 2.672.819.204 1.745.323 2.656.355 1.087-.014 1.922-.284 2.832-.709.736-.78.53-1.94.53-3.185v-2.656c-.021-.725-.243-1.293-.353-1.947.163 1.149.715 2.105 1.062 3.185.394.853 1.633 3.979 2.83 4.162.543.658 1.064.319 1.594-.445.959-.628 1.204-3.575 1.594-4.07 0-.498.128-.461.177-.885" fill="none"/>
      <path d="M172.521 356.542c0 .06 1.376 1.218 2.312 1.78.968.729 1.121.885 2.302.885.8-.151 1.121-.768 1.768-1.417.904-.881 1.112-1.585.885-2.83-.034-.965-.298-2.506-.53-2.121.408.534.789 1.314 1.062 1.766.365.539.624.917 1.415 1.062.466.394 1.137.647 1.947.709.429.321.979.211 1.238-.177.596-.268 1.041-.537 1.417-.885.17-.562.466-.908.706-1.415" fill="none"/>
      <path d="M185.982 355.854v.177c0-.477-.011-.236.177.706.06 1.025.179 1.924.179 3.009-.257 1.062-.424 1.828-1.062 2.479-.601.3-1.663.163-2.479 0-1.069-.482-3.862-2.484-4.247-3.362-.261-.151 2.309 1.791 2.656 2.3.399.615.693 1.071.883 1.77.172.514.296 1.644.179 1.945-.147.965-.484.938-1.241 1.241-.766.19-1.61.177-2.477.177-.789-.108-1.231-.362-1.947-.532l-.268-.179" fill="none"/>
      <path d="M189.353 363.628v.8859999999999999c-.206.816-.3 1.548-.532 2.124-.174.998-.603 1.041-1.238 1.594-.784.195-1.676.209-2.3 0-1.119-.67-1.702-1.027-2.479-1.947-.777-.777.333.445.709 1.062.612.541.975.926 1.062 1.947.211 1.057.252 1.504-.355 2.124-.438.628-1.101.947-2.124 1.238h-2.477c-.936-.209-.844-.482-1.238-1.062" fill="none"/>
      <path d="M191.921 368.948c.044.337-.014 1.83-.089 2.656-.686 1.14-.683 1.19-1.947 1.594-1.02.138-2.073.177-3.185.177-.748-.261-1.293-.764-1.77-1.594-.697-.523-.22.206 0 .709.369.959.681 1.582.885 2.656.062.732.449.956-.353 1.062-.894.252-1.83.353-2.832.353-.773-.105-1.642-.083-2.305-.264" fill="none"/>
      <path d="M185.798 374.887c.064.305.404.904.887 1.328.353.736.826 1.037 1.415 1.415.624.353 1.076.695 1.77.885.981 0 1.408-.186 2.124-.353 1.066-.365 1.101-.55 1.594-1.241.339-.553.594-.936.706-1.768.255-.509.172-1.433 0-1.947-.071-.936-.466-1.254-.706-1.947-.252-.085-.333-.709-.534-.977" fill="none"/>
      <path d="M161.559 328.06l-.177.177c.42-.42.248-.218-.709.355-.862.232-1.213.505-1.591 1.062-.807.445-1.367.842-1.594 1.77v2.477c-.193.644-.177 1.743-.177 2.656 0 .961-.112 1.759-.177 2.653.124.578.468 1.406.268 1.952-.067-.773-.445-1.812-.445-2.658-.323-.47-.679-1.518-1.062-1.947-.511-.443-1.034-.638-1.947-.885-.943-.314-1.566-.195-2.124.353-.406.424-.897 1.126-1.241 1.947-.193.972-.495 1.511-.53 2.477-.2.929-.353 1.491-.177 2.302v2.653l.179 2.747c-.112 1.309-.424-.204-.711-.624-.19-.887-.383-1.61-.885-2.124-.445-.537-1.181-.706-2.124-.706-.904 0-1.408-.211-1.591.53-.261.523-.307 1.711-.355 2.479v4.952999999999999c-.151-.94-.518-1.367-1.062-2.124-.617-.711-1.11-.899-2.3-1.062-1.156-.28-1.727-.172-2.656.355-.89.869-1.477 1.165-1.591 2.124-.36.433-.436 1.245-.532 1.947v2.653c0 .493-.729-.537-1.238-1.238-.594-.816-.947-1.025-1.947-1.062-.679.349-2.029.865-2.653 1.415-.452.365-.355.954-.355 1.77v2.479c-.048.615-.968.615-1.415.177-.656-.323-1.518-.768-2.3-.885-.674-.319-1.236-.392-1.77-.177-.275.894-.532 1.601-.532 2.653-.271.727-.353 1.259-.353 2.124" fill="none"/>
      <path d="M165.985 333.908l2.316-.803c.495 0-2.261.78-3.201 1.156-.715.261-1.488 1.037-2.124 1.77-1.456 1.3-3.22 3.259-4.602 4.779-1.28 1.284-2.19 2.162-3.009 3.538-1.768 1.401-3.077 2.745-4.6 4.426-1.626 1.215-3.231 2.383-4.779 3.715-1.55.775-2.919 1.47-4.602 2.124-1.504.502-2.802 1.17-4.247 1.77-.768.599-1.209.858-2.124 1.238-1.394.8-2.988 1.415-4.07 2.124-.53.36-.897.839-1.77 1.241-.557.651-1.289.917-2.124 1.415-.968.349-1.995.69-3.185 1.062-1.227.42-1.988.771-3.185 1.238-3.254 1.14-6.581 2.447-9.911 3.009-.954.349-1.916.638-2.832.709-1.344.486-3.012.509-4.425.709-.907.238-2.044.527-2.832.706-.91.25-1.801.463-2.478.709-.909.105-1.927.365-2.655.532l-1.947.706c-.404.351-2.082 1.695-2.486 2.043" fill="none"/>
      <path d="M140.508 329.115c.103.339.355 1.41.355 2.302-.144.844-.316 1.899-.709 2.477-.316.793-1.332 1.541-1.947 2.124-.711.156-1.346.3-2.124.532-.913.067-2.981 2.064-3.99 2.137-.589.117-1.319.174-2.126.174-.252-.266-.337-.115-.706-.261.594.424.413.569.53 1.5 0 .945.66 1.885.537 2.745-.218 1.046-1.121 2.316-1.853 2.729-.894.555-1.681.897-2.656 1.241-.871.03-1.571.177-2.477.177-.589 0-1.055-.032-1.417-.177" fill="none"/>
      <path d="M149.887 323.634v1.062c.232 1.16.401 1.97 1.238 2.832.592.793 1.536 1.415 2.477 1.947h2.656c.638-.11 2.057.11 2.752.089" fill="none"/>
      <path d="M151.997 329.482l.358-.092c.443-.445-.294.039-1.243.798-1.066.906-1.525 1.305-1.77 2.656.014 1.016.229 1.307.532 1.947.222.789.654 1.518 1.238 1.947.236 0 .177.06.177-.177" fill="none"/>
      <path d="M140.416 333.724c0 .085.83.433 1.153.885.904.576 2.052 1.601 3.185 2.3 1.103.367 2.128.103 3.185-.353.704-.186 1.225-.44 1.77-1.062l.179-.179" fill="none"/>
      <path d="M143.695 336.568c-.466.823-1.17 1.316-1.241 2.3 0 .906.119 1.683.355 2.3.33.612.718 1.575 1.238 2.124.323.53.656.977 1.062 1.238-.314-.869-1.11-1.543-1.947-2.3-.326-.371-.709-.53-1.062-.177-.908.064-1.525.291-2.124.532-.995.346-1.83.807-2.477 1.238-.649.67-.709 1.039-.709 2.124-.085 1.124-.177 2.204-.177 3.362.273.225.328.392.353.885-.193-.743-.585-1.899-1.062-2.477-.424-.594-.732-.697-1.77-.709-.899.165-.867.608-1.415 1.062-.537.777-.908 1.023-1.238 1.947-.431 1.009-.532 1.862-.532 3.009.236 0 .532 1.841.532 1.605" fill="none"/>
      <path d="M135.715 336.568v.177c0-.472.034-.225-.532.53-.245.832-.353 1.293-.353 2.302.133 1.02.511 1.555.709 2.477.693.826.968 1.209 1.768 1.594.243.243.557.328.709.177" fill="none"/>
      <path d="M130.762 342.92h-.177c.046.117 0 .789 0 1.238 0 .846-.071 1.738.177 2.479.177.72 1.174.993 1.598 1.417" fill="none"/>
      <path d="M121.566 347.346l.355-.358c0-.493-.335.303-.709 1.243-.835.993-1.447 1.775-2.479 2.832-1.087.339-1.775.998-2.832 1.77-1.153.654-2.277 1.032-3.362 1.591-1.184.498-2.557.858-3.893 1.238-1.188.438-2.571.761-3.894.885-.898.31-1.891.527-2.831.709-1.102.383-2.315.842-3.363 1.238-.816.282-1.267.445-1.947.885-1.065.367-2.103 1.076-3.185 1.594-.388.468-1.447 1.114-2.124 1.768-1.104.592-2.231 1.596-3.363 2.124-1.305.832-2.608 1.518-4.07 1.947-1.167.555-2.311.968-3.363 1.594-.796.541-1.611 1.319-2.478 1.947-.54.793-1.22 1.385-1.947 1.947-.573 1.059-1.509 1.874-2.301 2.653-.471.321-1.018.832-1.416 1.241-.543.56-1.066 1.059-1.593 1.415-.519.644-.812.865-1.593 1.238-.486.5-1.09.644 0 .709 1.012-.323 2.246-.326 3.363-.353 1.1-.238 2.377-.362 3.539-.532.987-.126 2.152-.321 3.363-.353 1.288.216 3.183-.346 4.602-.885 1.162-.688 2.236-1.303 3.363-1.947.646-.449 1.205-.651 1.947-1.062.642-.174 1.245-.525 1.947-.709" fill="none"/>
      <path d="M126.336 346.108c0 .218.073 1.268.177 1.77.342 1.094.796 1.933 1.591 2.653.617.362 1.892.266 2.924.266" fill="none"/>
      <path d="M122.621 347.002c-.14 0-.087.417-.353.885 0 .913.124 1.846.353 2.477 1.172.548 1.979.816 3.362.885.844-.064 1.319-.28 1.947-.53.553-.115-.186.427-.709.883-.741.743-1.076 1.371-.706 2.479.371.775 3.24 1.747 3.733 2.218" fill="none"/>
      <path d="M118.906 350.717c-.179.826-.204 1.303.355 1.945.482.399 1.197.355 2.124.355 1.578-.085 3.018-.355 4.6-.355.745 0-.612.101-.885.179-.89.312-1.348.41-1.947.883-.945.388-1.419.83-2.3 1.594-.355.527-.511 1.213-.177 1.77.349.514.789.883 1.415 1.238.663.514.821.798 1.77.885h.353" fill="none"/>
      <path d="M116.521 352.322c-.083.335-.445.883-.445 1.766.073.943.303 1.195.885 1.591.484.399 1.199.355 2.124.355h1.062c-.505.296-1.298.388-1.768.706-.557.381-.83.732-1.062 1.594-.014.988-.17 1.351 0 2.3.385.722.601 1.254 1.062 1.947.346.509 2.105 1.543 2.754 1.773" fill="none"/>
      <path d="M111.652 355.143c-.162.745-.105 1.346 0 2.124.418.468.735 1.073 1.239 1.415.499.413 2.077.163 3.015.174.745.021 1.158.177.177.177-.472.452-1.878 1.007-2.129 1.952-.255.509-.172 1.431 0 1.947.069.901.334 1.225.531 1.945.475.498.693.773 1.415 1.064l-1.415-1.064c.475.498.693.773 1.415 1.064v.177c-.094-.22-.158-.401-.353-.532" fill="none"/>
      <path d="M105.903 356.473c-.424.631-.667.848-.444 1.679.463.647.947 1.33 1.593 1.77 1.028.933 6.595-.394 7.387-.275.241.243-6.746 1.378-7.21 2.928-.192.633-.263 1.69 0 2.479.012 1.016.228 1.307.531 1.947.244.514.423.862 1.062 1.062-.236 0-.177.057-.177-.179" fill="none"/>
      <path d="M99.088 358.674c-.25.775.05 1.128.354 1.77.423.635 1.158 1.454 1.77 1.857.358.206 6.161-.271 6.055-.271-.651.227-5.962 1.596-6.94 2.13-.366.711-.354 1.314-.354 2.3.072.929.137 1.328.885 1.594.499.248 1.471.303 2.124.353l1.248.268" fill="none"/>
      <path d="M94.135 360.715c0 .195-.288 1.043-.18 1.679.248.58.119.963.531 1.238.15.853.397 1.426 1.239 1.594.926 0 1.641.044 2.124-.355.729-.319 1.163-.596 1.77-.883l-1.77.883c.729-.319 1.163-.596 1.77-.883l3.297-.981c-.544.397-4.046 1.821-4.713 2.043-.498.475-.904.553-1.062 1.415-.105.777-.162 1.378 0 2.124.457.436.841.821 1.239 1.238" fill="none"/>
      <path d="M90.415 363.1c-.091.204-.531.993-.531 1.768.086.949.37 1.11.885 1.77h2.478c.69.124 2.689-.715 3.461-.715-.776.17-2.714 1.215-3.107 1.777-.476.19-.476.475-.531 1.062-.274.459-.169 1.307 0 1.77l1.062 1.415" fill="none"/>
      <path d="M85.991 365.577c0 .261.066 1.41.177 1.947.685.53 1.113.881 1.947 1.415l5.421-1.603c.686 0-3.474 1.883-3.651 1.958-.357.58-.637.846-.708 1.77-.323.537-.099 1.344 0 1.945.283.438.571.654 1.062.885-.236 0-.177.06-.177-.177" fill="none"/>
      <path d="M81.389 367.893l-.177.885c-.347.463-.044.897.354 1.241.508.683 1.322.848 2.124 1.062.791.14 1.597.177 2.478.177.669 0 3.206-1.665 3.555-1.961-.586.236-3.446 2.08-4.263 2.314-.991.454-1.257.835-1.593 1.77.037 1.009.314 1.252.708 1.947.358.663 1.892-.053 2.486.342" fill="none"/>
      <path d="M78.027 370.714v.177c0-.521.03-.227-.531.709-.179.823-.233 1.284.354 1.77.434.64.738.933 1.593 1.062.277.119 4.61-2.318 5.075-2.318-.698.477-5.578 3.291-5.96 4.089-.335.693-.354 1.277-.354 2.124" fill="none"/>
      <path d="M73.427 375.323c0 .926-.045 1.64.354 2.124.097.809 1.801.865 2.4 1.149" fill="none"/>
    </g>
  </g>
</svg>
