<svg xmlns="http://www.w3.org/2000/svg" id="flag-icon-css-bt" width="512" height="512">
  <path fill="#ffd520" d="M0 0h512v512H0z"/>
  <path fill="#ff4e12" d="M0 512h512V0z"/>
  <g stroke="#000" stroke-width=".52">
    <g fill="#fff" stroke-width=".41">
      <path d="M281.88 162.5c-3.89-1.38-6.4.63-6.27 5.65.12 5.02 2.76 7.91 6.65 6.03l-.37-11.68z"/>
      <path d="M285.3 153.1c-3.24-2.57-6.26-1.47-7.76 3.33s.08 8.38 4.37 7.84l3.4-11.18z"/>
      <path d="M290.7 143.99c-2.8-3.04-5.95-2.45-8.2 2.05-2.24 4.5-1.26 8.28 3.06 8.44L290.7 144zm-3.54 44.25c-4.77 1.76-5.28 8.29-2.26 12.3 3.01 4.02 8.54 4.78 11.55 0l-9.3-12.3z"/>
      <path d="M281.63 174.43c-4.52-1.51-8.59 4.56-9.29 10.04-.87 6.9-10.67 9.17-5.27 19.59 1.13-6.66 5.53-10.3 9.04-10.55 3.52-.25 8.8-1 11.05-5.27l-5.52-13.81zm14.32 26.87c-5.28 1.25-6.03 8.28-2.26 13.3 3.22 4.3 13.3 3.27 13.05-1l-10.8-12.3zm14.94 42.31c.25-4.52-7.03-6.28-10.54-5.4-3.52.88-10.24-.12-11.8-3.89-1.26 3.01.56 6.28 5.64 7.91 3.85 1.24 3.77 4.02 2.64 5.28 2.89.5 11.43.5 14.06-3.9z"/>
      <path d="M306.75 214.74c-5.15-2.26-8.2 1.18-10.17 4.52-2.89 4.9-11.8-1.38-14.82 5.15 4.09-1.76 8.24 1.99 10.17 3.26 5.53 3.64 16.2 2.51 17.71-6.03l-2.89-6.9z"/>
      <path d="M309.76 220.76c-5.15 3.89-7.15 8.54-7.03 11.68.13 3.14 4.52 10.04 9.3 10.42 2.76-5.65 4.14-17.58-2.27-22.1zm-21.34 24.23c0-1.88 2.76-2.63 4.64-2 1.89.62 4.78 2.5 3.77 4.51l-8.4-2.5zm-28.38-10.3c-.5-2.25 3.14-6.15 8.03-4.01 4.9 2.13 5.53 6.28 3.52 7.9l-11.55-3.88z"/>
      <path d="M271.96 238.84c-.37-1.26 3.15-3.77 9.17-2.26 6.03 1.5 7.5 5.38 7.28 8.41l-16.45-6.15zm-12.55-4.14c3.14-2.39 1.95-6.91-.88-8.3-5.15-2.5-3.26-9.03-6.53-10.29-3.26-1.25-6.4-3.51-6.53-5.77-1.63 3.14-.62 6.02 1.64 8.03s-1.76 10.17 1.13 12.3l11.17 4.03zm-67.3-1.76c-2.64-4.14-8.92-3.39-11.55-.5-2.64 2.89-2.26 7.16.25 9.04l11.3-8.54zm15.07-6.15c-1-5.53-7.66-6.15-11.3-4.77-3.64 1.38-6.16 6.9-3.77 10.92l15.07-6.15z"/>
      <path d="M217.22 226.03c2.39-4.64-2.26-11.55-7.53-12.56-4.4-.83-9.6-.81-11.3-5.14-1.07 3.76 1.76 6.15 5.02 8.28 3.27 2.14-.63 7.66 4.65 10.8l9.16-1.38z"/>
      <path d="M216.72 226.2c-1.1-3.33 1.13-7.76 5.64-7.45 4.52.3 7.09 3.59 5.1 7.69l-10.74-.25z"/>
      <path d="M226.76 226.44c-.62-3.45 2.21-7.52 6.63-6.58 4.43.94 6.5 4.55 3.97 8.33l-10.6-1.75z"/>
      <path d="M236.74 228.03c-.45-3.48 2.58-7.4 6.95-6.24 4.37 1.16 6.27 4.86 3.54 8.51l-10.5-2.27zm-75.77 57.52c-8.41 0-10.47 2-11.68 10.67-1.5 10.8 13.19 12.06 11.68-10.67z"/>
      <path d="M164.74 274.25c-12.94-4.9-19.97 15.57-32.78 11.93 4.59 7.28 15.7.01 19.84.75 7.03 1.26 22.23-1.38 12.94-12.68zm-8.42 28c-6.4-2.89-13.31 6.9-12.05 11.18 1.6 5.42 16.2 1 12.05-11.18zm-29.88 42.2c3.51 1 7.78 3 7.03 9.78-.75 6.78-13.56 20.6-25.11 21.35-11.55.75-15.7 14.69-25.62 10.8 9.3-1.76 9.3-12.3 16.58-15.57-5.28-1.89-8.04 10.05-14.82 10.05-6.78 0-10.04 10.8-18.33 10.04-8.29-.75-9.16 13.14-25.74 13.31-12.68.12-28.38 14.94-34.03 8.54 12.3-1.76 17.27-8.58 24.61-16.08 11.8-12.05 25.12-6.65 29.64-17.32a30.86 30.86 0 0 1-17.83 5.27c-7.73-.16-16.2 12.3-24.87 6.78 5.03-.63 8.3-2.76 13.56-8.29 5.4-5.65 13.33-2 19.6-7.78 9.79-9.04 18.2-1.5 27.62-12.8-2.64-1.26-8.3-.38-13.56 2.38-5.28 2.76-12.06-1.89-18.09 1.38.76-7.4 14.82-3.17 23.61-8.29 9.92-5.77 18.14-4.08 26-3.39-10.93-.06-15.2-10.42-30.27-7.4-6.57 1.3-11.8-9.05-18.33-3.78.19-3.89 7.03-7.03 14.06-3.26 7.03 3.77 9.87-3.3 23.86 5.53 5.78 3.64 15.7-2.27 21.97 1.63-.81-2.39-4.4-3.9-8.6-3.58 2.64-5.4 19.65-4.7 27.06.7z"/>
      <path d="M137.62 336.28c-5.53-4.27-13.19.88-18.46-1.13 0 3.51 1.76 8.79 7.53 10.8 1.76-1.26 9.67-8.17 10.93-9.67z"/>
      <path d="M146.28 324.1c-8.66-4.4-10.17 6.53-16.95 4.27.25 3.14 2.76 7.03 8.29 7.9l8.66-12.17z"/>
      <path d="M151.43 314.18c-12.8-5.02-14.44 7.28-21.97 4.9 1.75 4.27 12.55 6.53 18.08 5.02l3.89-9.92zM169 260.3c-3.39-4.77-10.54-.88-11.67 4.77-1.13 5.65 1.63 13.56 6.4 11.8l5.27-16.57z"/>
      <path d="M177.67 245.24c-5.9-1.38-12.68-.75-11.93 5.02-2.26 1-2.89 8.42 3.26 10.05l8.67-15.07z"/>
      <path d="M181.56 241.35c-5.77-6.78-12.22-6.62-15.82-3.77-6.65 5.28-13.12 2.26-13.3 7.54 4-3.08 7.52.62 10.79-.5 3.26-1.14 5.65 5.14 14.69 2.5l3.64-5.77zm-13.94 101.34c.88 1.63 6.28 2.38 8.92-.38 3.5-3.66-.38-13.81-5.9-14.57-5.53-.75-6.03 11.43-3.02 14.95z"/>
      <path d="M161.34 342.94c7.91 2.88 11.3-3.65 7.03-7.79-1.13 1.38-5.27 6.4-7.03 7.79z"/>
      <path d="M131.71 353.73c-1.5 4.52-9.3 5.28-18.08 19.34-8.79 14.06-17.2 8.16-19.34 17.83 10.55-8.54 18.83-2.87 25.12-11.3 9.54-12.81 17.4-10.97 21.1-19.59 5.26-12.3 28.37-12.05 29.62-31.39-7.78-1.5-32.4 19.34-38.42 25.11zm198.15-189.85c10.04 3.27 10.3 16.32 21.84 20.6 11.56 4.26 12.69 14.56 22.1 12.05-8.79-2.39-8.16-12.56-17.33-15.07-10.75-2.95-14.81-19.34-23.35-21.85m42.82 72.45c1.76 4.02 1.5 11.17-4.77 13.06 3.39 2.13 8.4.12 11.17-4.52-4.14 9.16-1.38 17.45 5.15 19.08-3.14-6.4 3.9-9.41 1.63-13.56 4.15 1.76 7.79 7.41 7.66 10.93 5.4-6.03-4.02-14.07-2.26-19.72l-18.58-5.27zm-65.05 64.54c-6.15-5.4-8.77 1.4-11.8-.95-2.82-2.2-6.6-2.5-8.03-.3 5.27.18 2.7 4.26 12.93 5.26-10.24.7-8.35 12.12-15.2 11.56 7.29 6.9 11.05-6.16 16.96-4.02-1.76.5 2.76 4.65-.38 10.17 5.08-.13 7.15-7.16 7.79-10.8l-2.27-10.92zm-135.48 58.64c-2.26-1.88-8.8-2.77-11.3-1.26-2.51 1.5-1.64 1.88 1.38 2.14 3.01.25 6.9 5.12.37 5.4-3 .12-2 7.4-8.28 7.9 2.57 3.15 9.92 1.07 12.55-2.38-.5 2.83 3.27 5.4 1.76 8.79 4.65.5 1.95-9.42 9.3-8.91-3.02.37-1.76 7.15 3.5 5.4-3.13 1.5-1.5 5.14 2.02 4.26-2.26.76-3.02 3.64.12 5.28 3.02-4.15-.37-18.96-11.42-26.62zm273.48-138.55a17.4 17.4 0 1 0 0-34.8 17.4 17.4 0 0 0 0 34.8z"/>
      <path d="M357.98 237.72c5.28-5.03 13.31-7.54 18.83-3.77 5.53 3.77 23.86 8.29 32.9 2 9.04-6.27 13.31-9.54 17.33-8.78 3.02 4.52 6.66 6.65 11.18 7.03 1.38 1.5 6.28 2.76 9.04 2.38 4.02 1 8.91-.25 12.8-4.52 6.03.88 11.68-3.64 13.82-10.42 6.4-.75 6.78-7.9 2.76-12.68-3.77-.75-.88-13.43-14.57-10.92 5.78 3.51 1.38 10.54 6.16 13.8-3.27 0-7.47 1.39-8.48 6.29 1.26-3.4-.19-5.65-1.07-6.4.13-2.9-6.27-9.99-12.3-7.41 4.33.94 1.88 7.9 5.02 10.54a7.94 7.94 0 0 0-6.03 3.27c-1.63-2.9-7.4-5.9-10.92-6.16 0-1-.19-3-.63-4.01-1.57-3.02-2.89-6.6-2.26-11.18-3.01 3.27-5.52 7.79-7.03 11.05-4.77-3.26-16.57 1.5-22.1 2.76-5.52 1.26-24.1-1.75-28.38-6.27-4.26-4.52-12.55-7.29-20.34-9.55-10.7-3.1-10.8-14.81-22.6-22.85-.25 14.57 21.85 60.77 26.87 65.8zM234.93 348.7a16.83 16.83 0 1 0 0-33.65 16.83 16.83 0 0 0 0 33.65z"/>
      <path d="M194.74 335.78c3.4 4.4 9.17 4.14 11.55 3.76 2.01 5.28 8.42 5.15 11.18 8.04 2.76 2.89 12.18 2.64 14.94 1-2.5-.25-5.77-1.75-8.91-4.4-3.8-3.17-2.01-9.53-5.03-11.8 2.26-2.5 2.64-6.65 2.14-8.28 2.38-1.38 4.14-3.64 4.4-4.77 4.14-.25 7.78-2.39 9.29-4.02 2.13 2 7.53-.63 10.42 2.76.63-8.29-7.28-12.68-12.56-9.92-2.13-1.13-7.78-.37-8.79 1.13-1.76-.75-6.65 1.76-8.91 3.4 2.5-1.39 2.89-5.53 1.88-7.04 2.14-.88 4.52-3.77 4.77-5.9 3.02.5 7.53-1.5 9.54-1-3.26-4.27-8.66-5.78-14.18-5.4-5.72.31-8.16 4.33-8.92 8.66-3.39 2-4.52 8.79-3.26 11.18-1.95-.07-3.77 1.82-4.52 2.88a26.05 26.05 0 0 0-9.1-1.94m1.19-6.85c-1.13-3.26.36-6.2 1.13-8.78 1.94-6.6.75-8.3-5.15-7.41-.5 3.14 2.51 13.43 4.02 16.2z"/>
      <path d="M187.53 291.45c1.5 1.5 6.84 2.2 7.4-2.58.65-5.47-1.56-7.6-6.33-5.46-.38 1.26-.82 6.4-1.07 8.04z"/>
      <path d="M188.66 283.23c2 .81 6.34 2.45 8.73-2.2 2-3.9-.63-6.9-4.77-6.65-1.01 1.13-3.02 5.14-3.96 8.85z"/>
      <path d="M192.36 274c.5 1.5 5.65 6.53 9.42 2.89 3.77-3.64 3.77-9.04-1.88-11.05-1.5.25-6.03 5.52-7.54 8.16z"/>
      <path d="M199.9 265.84c1.12 3.14 4.64 8.54 11.17 6.03 6.53-2.51 3.76-10.67.75-12.3-1.76.12-8.91 3.38-11.93 6.27z"/>
      <path d="M211.82 259.56c-.5 2.76 0 10.3 8.92 10.17 8.91-.12 6.4-10.54 4.14-12.05-3.64 0-9.79.12-13.06 1.88z"/>
      <path d="M225.26 258.05c-1 2.13-3.27 16.18 14.19 12.3 2.25-.5 8.16-13.43-14.2-12.3z"/>
      <path d="M234.8 259.3c-1.76 1.76 2.76 15.95 14.56 13.56 11.8-2.38 1.89-15.82-14.56-13.56z"/>
      <path d="M244.84 261.44c-1.88 3.9.95 15.45 15.51 15.45 13.2 0-.7-15.2-15.5-15.45z"/>
      <path d="M256.27 264.84c-.95 2.15-2.1 14.4 15.07 15.44 12.43.75 9.42-16.83-15.07-15.44z"/>
      <path d="M274.73 269.98c-2.13 3.77-4.4 13.19 14.44 13.94 12.07.48 4.65-13.69-14.44-13.94z"/>
      <path d="M290.43 272.87c-2.77 3.77-.73 11.16 6.27 12.56 8.8 1.75 10.05-6.53 4.02-10.55-6.03-4.02-10.3-2.01-10.3-2.01z"/>
      <path d="M298.97 274.62c-2.01 3.52-.77 12.06 12.55 12.06 2.76 0 13.31-10.8-12.55-12.06zM195.88 438.37a19.53 19.53 0 1 0 0-39.07 19.53 19.53 0 0 0 0 39.07z"/>
      <path d="M339.14 154.34c-1.5 1.5-4.64 6.03-5.27 7.79-6.53 19.58 10.9 34.22 21.1 55.24 8.03 16.58 7.03 42.7-5.53 59.27-4.3 5.67-3.01 7.28-8.54 13.06-2.12 2.21-4.52 5.02-3.76 13.06 3.51-1.26 8.53 2 9.54 4.77 2.51-1.26 6.03-.76 7.28.75 4.27-2 7.79-1 11.55 3.02 3.27-.5 6.78 0 10.05 3.51 1.76-3.52 5.27-4.77 7.78-4.02-.25-4.52 4.27-7.78 8.29-6.02a7.43 7.43 0 0 1 9.54-8.8c4.52-3.51 13.56-3.76 18.08 1.51-8.03-2.26-7.78 6.28-14.56 5.53 1.76 5.02-2.77 7.9-7.28 9.54 2.88-1.38 6.02-3.01 7.03-1.26 2.5-2.2 7.53-1.38 8.79-.25 3.32-1.06 6.53-.25 8.03 3.77 4.52 2.76 7.54 9.8 4.27 15.07-1-5.53-4.77-5.28-6.28-7.54-3.51 1.26-7.03 1.26-8.03-1-2.01 2-8.8 3.77-11.8.75-1.14 4.52-5.03 8.29-9.55 8.29 1.26 3.52-2.26 9.54-5.02 12.56 4.27 2.26 3.01 7.28 2 10.3 6.54 1 1.01 6.77 12.31 10.54-5.52 1.76-16.32 0-17.83-6.78-5.52-.25-9.29-5.78-9.04-11.55-4.27-4.02-4.9-9.8 1-13.81-5.02 1.5-7.78-6.53-15.06-3.27-3.62 1.63-13.18-1.13-13.06-4.52-1.5 2.51-10.67 1.5-11.93-2.76-3.01 1.63-10.04-1.13-9.92-5.27-3.9 1.75-9.16-1.39-8.91-5.4-3.64-.5-4.02-3.77-3.77-6.53-3.27-1.51-2.38-4.65-1.13-8.42-2.26-2.5-1.25-6.02.5-9.29-2.5-2.5-2-5.52-1.25-9.04-12.06-1-27.16-3.91-61.78-14.56-52.23-16.07-66.3 21.6-54.75 45.2 13.33 27.24-1.5 33.15 3.02 53.5 4.77 1 7.28 5.01 7.03 9.28 2.82.13 4.83 2.76 3.83 7.79a8.73 8.73 0 0 1 7.47 2.26c1.76-3.27 7.53-4.02 10.55-.25 6.53-.5 9.8 4.77 9.54 11.3 3.51 6.28 2.26 13.94-1.5 18.83.37-2.64 0-6.4-.13-8.66-.23-4.16-6.03-5.03-5.4-8.42-3.01.25-5.9-1.38-6.9-3.64a6.63 6.63 0 0 1-6.41 1.26c3.39 1.5 6.03 7.53 5.02 11.55 1.76 3.01 1.38 8.54-.75 10.93-1 4.89-4.77 6.65-9.67 4.51 2.76-1.75 3.77-4.9 3.64-7.53-1.76-1.5-2.64-4.4-2.76-6.15-4.9.75-11.68-3.4-12.93-5.03a19.53 19.53 0 0 0-19.53 19.54c-.5-4.02-5.59-7.98-4.96-11.37-3.01-9.3 1.26-17.96 13.56-19.71-1.5-3.52 3.77-7.16 1.76-11.18-2.57-5.13-7.28-11.8-14.31-19.59 4.27-7.28 3.01-17.08.5-23.1-3.6-8.66-7.03-6.53-19.84 7.53-20.87 22.92-48.72 16.58-73.33 31.64-6.54 4-13.06 5.53-6.03-1.5 7.04-7.04 25.62-14.06 37.67-20.1 22.58-11.28 41.69-30.13 49.22-66.8 17.7-86.15 82.87-57.75 124.05-41.68 38.67 15.09 31.65-19.09 12.06-39.68-23.54-24.75-18.84-44.2-7.79-59.77 19.84-2.76 57.89 4.15 50.23 10.8z"/>
      <path d="M409.09 366a21.5 21.5 0 1 0 0-42.99 21.5 21.5 0 0 0 0 42.98z"/>
    </g>
    <g fill="none" stroke-width=".41">
      <path d="M327.1 155.34c-4.78 21.1-.76 30.64 6.27 39.93 14.53 19.2 26.12 63.03 9.54 91.66"/>
      <g stroke-linecap="round">
        <path d="M352.2 262.2c2.01-.75 5.78-3.14 6.66-7.28m-5.15-1.89c.62-3.64 6.27-5.2 6.4-9.1m-6.28-5.1c-.37-3.76 5.65-7.15 4.77-10.92m-8.03-2.63c-.5-2.13 5.02-6.15 3.52-9.54m-7.66-3.64c-1.13-2.39 2.63-5.15 1-7.66m-7.03-2.9c-.38-1.63 1.95-5.2.7-7.34m-6.73-5.08c.5-.63 2.51-2.13 1.7-4.02m-5.84-5.08c.82-.44 3.26-1.2 2.95-3.02"/>
        <path stroke-linejoin="round" d="M204.54 416.76c-5.02-1.75-11.3.76-12.56 5.03m3.77 3.89c.63-4.27 7.16-6.15 9.16-4.14-4.14-2.26-6.15 5.77-2.5 6.02m33.77-101.2c-3 1.5-3.89 7.03 0 11.18m4.52-9.92c-2.13 1.76-2 7.03 1.13 8.28-2.63-1.88 0-5.14 1.89-5.27 1.88-.12 3.13 2.14.87 4.4m172.53 5.01c-7.03-1.88-12.68 6.28-6.28 13.57-.12-7.04 4.9-11.68 11.05-10.43m-2.83 4.87a2.63 2.63 0 0 0-2.7 2.66c0 1.38 1.2 2.7 3.14 2.7 1.26 0 2.26-1.44 2.26-2.57m22.1-156.95c1.13 4.27 7.03 6.02 11.68 5.02m0-2.76c-3.64.12-6.66-3.27-6.4-6.15 0 2.13 4.9 3.14 6.4 1.75"/>
        <path d="M206.3 339.54c-1-2.5 3-5.02 3.13-7.4.13-2.4 4.52-4.27 9.04.25m-2.13-26.75c-.88.38-1.63.88-2.38 1.13M225 319.33c-1.07.06-3.27-.07-4.46-.88m.07 5.65c-.88.44-2.83 1.2-3.96 1.44m-39.12 74.4c-.12 2.26 2.14 5.52 3.4 6.53m6.4-11.93c-1.26 1.88-2 5.15-1.26 7.4m19.96.14c-2.26-1.51-.75-5.4-1-7.91-.25-2.52 2.64-6.53 8.29-3.14m-28.38-3.27c2.26-.37 4.65-.25 6.16.38m22.47-7.54a8.12 8.12 0 0 0-1.38 3.9m11.93-4.15c-1.76 0-3.27 1.26-4.02 2.51m-20.34-66.8c2 .7 7.22 3.9 7.4 7.23m13.94-23.55c-6.15-.13-8.53-6.4-3.89-6.4m14.95 14.8c-2.39 1.01-1.26 5.16 2.13 7.17m-16.83 32.27c-1.2-1.5.38-5.9 4.27-4.59m4.9 50.42c.25-3.83 5.08-6.09 7.03-1.76m-24.86 12.68c-.32-4.2 1.82-5.59 3.7-5.84 1.88-.25 4.58 1.32 5.84 4.08m-46.96 4.9c.25-2.5 2.39-5.14 4.65-4.77m225.13-106.73c-1.64 1.2-2.7 6.53 3.51 7.03m-13.05 1.76c0 .63.82 1.51 1.32 1.89m28.31 8.16c-1.63-1.26-5.84 3.83-2 7.53M381.32 357c-.94-3.58 2.39-4.52 5.53-3.77m-13.56-21.6c1.88-1.25 3.77-2.63 6.15-3.26m-7.16 17.07c0-3.01 1.5-5.52 2.89-6.28m8.16-28.37c-.25 3.64 1.26 7.16 2.39 9.04m27.5-8.79c-1.82.57-3.46 1.26-4.14 2.76m2.13 7.54c.88-.75 1.88-1.63 2.32-2.26m45.14-107.36c0 3.51-4.4 5.4-7.28 3.14m16.83-3.02c1.94 1.5 8.66.07 7.09-3.83m-15.26 24.05c-1.38-.25-3.77-1.76-4.77-3.01m18.58-7.41a7.3 7.3 0 0 1-4.9-.5m-30.76 13.06c1.26 0 4.27-.5 6.34-1.57m-10.1-20.65a5.39 5.39 0 0 0-3.77.75m29.07 5.4c-.44 1.56-1.57 4-2.95 5.08"/>
        <path stroke-linejoin="round" d="M430.18 223.65c3.14-1.38 7.03 9.3 14.56 5.53m.63-11.06c-1 1.38-1.63 3.52-1.76 5.4"/>
      </g>
      <path d="M295.2 201.8c1-.12 2.76-.5 3.14-1.75M165.99 318.7c3.77 2.14 6.4 5.78 4.77 11.18m167.88-139.63c1.13.76 5.4.76 7.78-.12m3.02 2.63c-.13 1.76.38 8.42-3.01 9.8m1.25-.88c3.14 1 9.42.63 11.43-5.15m-4.4 4.9c1.63 2.5 2.13 7.4-2.76 10.04m4.02-5.9c3.64 1.26 12.05 1.38 11.17-5.77m-2.88 5.77c2.51 3.52 13.56 7.66 11.8.38m-21.97 9.79c4.27 1 10.3-1.89 7.78-9.42m12.05 3.77c.63 2.89 14.7 5.9 12.81-.63m-2.63 3.77c2.63 6.03 16.57 5.53 12.18-2.51m-2.26 6.27c2.76 3.39 15.07 1.38 10.17-6.78m-.13 6.66c7.66 5.77 16.57-2.52 6.9-8.54m4.4 6.66c6.78 5.4 15.07-4.4 9.17-7.16m-62.79 4.9c2.14.62 6.66.37 7.66-3.52m-1.7 2.63c-.24 5.72 9.36 7.91 11.81 1.32m-3.2 3.58c1.76 3.77 10.17 5.27 11.55-.12m-1.38 2.5c1.38 3.78 8.67 3.4 10.67-.5m-2.63 2.52c2.26 4.9 11.55 4.9 13.68-2.26m-1.63 3.13c3.64 2.26 11.43 1.38 10.8-5.65m-1.5 5.03c5.4 4.4 13.05.13 9.29-7.28m-.38 13.05c2.89-.5 4.4-6.28 1.38-7.78m-68.3 8.79c6.02-3.27 7.15-8.8 3-14.19m2.14 8.67c3.77 2.26 10.93-.13 12.18-5.65m-7.03 6.27c2.13 2.76 2.51 6.15-.25 9.29m2-5.77c6.66-4.15 14.95 3.51 8.8 8.16m-1.13-8.54c1.5-.37 4.14-3.14 4.4-6.27m-1.4 9.16c2.77-2.89 21.6 3.01 9.68 9.04m-.88-16.95c3.64 1.38 5.52 6.53 0 8.29m4.77 4.27c4.02-4.15 16.58-1.5 12.06 3.77m-3.02-5.41c2.26-7.66 15.7-2.89 11.3.25m-14.06-7.91c.38 1.5.5 5.27-2 7.28m13.3-8.78a6 6 0 0 1-.75 5.14m9.29-5.02c.75 1.38 2 4.02-.76 6.15m-106.72-63.91c.12 7.16 2.64 11.93 12.3 7.4m-9.29 1.14c-4.77 6.4.63 13.31 10.05 6.4m-24.74-3.26c6.53 7.03 18.2 1.88 10.67-8.8m7.91 14.83c-1.25 6.9 4.4 8.28 9.04 5.14m-33.4-10.04c1.2 6.94 8.3 12.43 15.2 8.16m-6.66 1.39c0 9.91 13.7 11.04 16.83.75m-4.9 6.27c4.4 9.04 13.94 5.4 17.08-.12m-26.75-14.32c1.76 4.4 5.27 9.3 13.43 5.65m-38.54-7.78c1.13 3.64 7.66 8.03 15.2 3.01m-10.56 1.64c-4.02 5.9 4.02 11.42 13.69 2.63m-8.91 4.65c1.63 8.29 4.89 14.94 16.7 4.27m-5.91 4.26c4.27 5.28 10.8 8.54 16.95-.37"/>
      <path d="M322.7 200.29c-.38 6.28.87 9.42 5.77 9.17 3.86-.2 7.53-3.27 9.67-6.53m-10.55 6.53c-.12 7.16 5.52 12.81 16.07 5.53m-11.68 2.88c-2 5.4 4.02 14.19 15.82 9.67M307 203.56c-.75 6.9 5.65 11.55 15.95 2.64m-10.93 5.02c.38 5.65 6.78 12.43 16.2 2.63m-11.68 4.53c-.75 9.67 8.16 12.43 15.7 5.02m-29.13-12.18c2 .12 3.64-1.63 4.64-2.89m-.38 9.92c1.76.37 4.78-1.26 5.78-3.27m-1.38 14.7c2.01 2.13 8.8.62 9.67-2.27m-2.13 2.14c3.77 8.79 13.8 8.41 17.95-1.5m-1.88 3.51c1.88 5.15 6.65 8.41 14.44 6.65m-10.68-1.38c-4.39 7.16 1.39 15.57 11.18 7.29m-8.79 3.38c-.5 4.52 3.64 9.67 9.3 10.3m-27.89-23.48c-1.5 10.17 5.78 15.07 14.95 9.67m-25.62-4.77c2.39 1.88 6.66 2.13 10.68.63m4.9 5.9c-2.27 8.54 6.52 14.69 14.05 5.15m-26.23-10.3c.12 4.4 4.4 9.17 11.8 7.79m20.71 8.79c-5.02 3.39-6.03 9.41 1 13.3m-13.3-15.07c.25 5.15 2.64 8.04 8.28 8.54m-15.69-11.17c-7.53 6.9-.12 14.94 8.8 8.16m-3.52 2.13c-2.51 7.91 6.9 12.69 11.92 4.65m-27.5-21.47c-2.75 7.78.76 12.93 7.16 12.43m-17.07-13.94c.37 4.65 4.39 6.28 8.91 5.28m-6.03-.38c-3.39 6.53 1.76 10.05 8.54 7.54m20.6 14.56c-1.13 4.14-.5 7.16 5.64 8.54m-5.27-2.64c-7.41 3.4-8.04 10.55-2.26 15.2m-3.7-23.17c-3.9 3.52-3.15 9.6 1.12 12m-34.08-34.91c-4.27 4.2-.2 15.82 9.22 9.48m15.26 5.2c-5.78 4.77-3.14 13.44 6.4 11.05m-15.94-14.69c-3.02 8.54-.13 11.55 6.65 11.68"/>
      <path d="M295.45 246.37a7.97 7.97 0 0 0-1.5 11.93c2.25 2.51 6.52 1.38 7.9-1.88m-17.2-13.43c-5.78 7.4 0 16.2 8.16 13.56m22.73 8.41c-5.9 2.13-10.4 7.5-6.78 12.18 2.13 2.76 11.43 3.14 14.06-7.53m-17.96-11.56c-3.39 4.9-2.26 9.54 4.02 11.93m-4.4-2.76c-3.63 2.01-6.02 4.4-5.14 8.8m-3.01-16.46c-1.38 5.9.25 9.55 3.89 11.3m-4.02-4.27c-5.65-.38-8.53 2.01-6.65 7.53m.5-6.15c-5.52-2-6.4-6.78-4.02-11.8m-.75 7.41c-6.03.25-8.67 3.26-8.67 7.4"/>
      <path d="M277.11 240.1c-4.4 1.88-5.77 7.78-4.14 11.04 1.63 3.27 6.78 3.52 9.92 1.38m-18.08-17.07c-4.02 4.52.63 13.31 7.79 11.18m-18.09-14.7c-3.76 5.28.38 14.07 10.05 11.56m.5 24.48c-1-6.28 5.53-10.42 13.56-2.26m-3.89-12.68a9.86 9.86 0 0 0-3.14 8.3m-27.37-32.4c-4.15 7.03.88 13.43 9.8 10.92m13.43 6.52c-5.9 5.9-3.9 11.8.5 15.2m-4.27-8.29c-8.91.13-9.42 10.43-2.13 13.69m-4.65-23.98c-3.64 2.5-4.77 9.42 1.5 12.18m-1.75 3.26c-3.76-1.76-8.29.38-7.9 4.77m2.25-4.64c-3.4-8.04-13.31-6.66-12.43 1.63m15.19-11.55c-2.13.37-6.4 1.63-8.04 4.9m.64-13.94c-4.02 4.52-.89 9.91 2.38 11.05m-14.31-23.74c-.75 5.4 1.38 8.04 8.16 7.54m-5.78-.63c-2.64 6.53.88 9.42 7.66 9.04m-6.16-1c-4.01 4.77-1.25 9.92 2.64 12.05m-4.52-6.02c-7.15-.88-8.28 7.4-5.9 11.3"/>
      <path d="M230.65 226.29c-4.39 1.88-6.9 7.4-4.51 10.8 2.38 3.39 7.15 2.26 9.79.5m-8.29 1c-3.64 5.52-.37 9.67 3.52 11.3"/>
      <path d="M213.58 225.66c-2.89 3.01-1.13 9.16 5.9 9.29 5.66.1 8.54-5.27 6.78-9.04m-7.78 9.04c-2.26 5.02-.88 10.42 7.66 9.54m3.64 7.91c-5.27-2.38-12.3 0-9.29 6.28m-.76-15.2c-2.13 3.02-1.38 7.29 1 9.93m-1.37-1.89c-3.52.63-6.9 2.51-4.77 8.04m-.51-4.52c-4.52-1.38-10.3 1.88-6.78 6.53m-.75-4.4c-3.89-.62-8.54 3.52-4.77 7.67m-1.5-3.4c-3.52.88-7.67 4.9-4.03 8.04m21.73-27.75c-5.02 2.26-5.53 7.91-3.14 12.06m-2.14-22.48c-7.53 2.89-7.4 12.93.88 16.07m-3.52-2.26c-4.52 2.63-5.4 7.66-2.38 10.92m-5.53-28.5c-3.01 1-2.76 10.3 5.28 10.05m-13.56-6.91c-6.03 4.02 1.26 14.19 11.05 6.9m-5.4 2.51c-.88 4.15.25 8.67 6.9 9.17m-6.53-3.64c-4.77 1.76-5.65 11.56 3.02 12.3m-18.2-21.21c-6.16 5.65 5.02 10.55 9.16 2.39m-17.7 7.02c-3.02 3.65 7.53 13.19 12.17-2.76m1.13-.25c.25 3.77 2.51 6.03 7.16 6.28m-.12 3.64c-7.41 1.13-9.8 10.43-1.51 12.44m-12.18-13.7c-.25 3.52 3.39 6.41 7.53 5.78m3.77 7.66c-6.78 1.5-7.66 10.3-1.63 9.8m-3.14 8.16c-5.65-1.7-5.78-8.42-.76-10.93"/>
      <path d="M184.7 277.26c-4.77 2.89-2.88 9.8-.37 10.8 2.5 1 4.52-.25 4.77-2.39m-.38 9.67c.5 3.27-11.61 2.01-5.4-8.16m-.07 8.73c-4.08 6.4 2.58 11.61 6.78 6.15m-6.2 1.57c-1.64 5.15 4.58 8.86 8.6 4.84m-22.17-53.06c-2.26 4.65 9.04 6.4 9.8-3.14m-12.94 10.05c-2.26 9.04 14.82 7.16 10.42-4.52m.38 6.03a8.04 8.04 0 0 0 11.3-6.15m-5.15 6.4c.5 2.38 2.64 5.27 4.65 6.15m-12.8-3.76c-.76 4.9 4.14 8.91 9.79 8.53m-8.92-3.76c-2.76 3.77-3.64 11.05 5.02 11.55m-18.2-10.3c-1.39 3.9 6.78 7.91 11.55 1.51m-14.07 8.4c-.69 2.96 6.66 6.91 10.8-5.64m-3.26 6.4c1.76 3.14 7.66 5.65 11.3-.5m-5.9 3.77c-1.51 4.4 2.63 8.54 7.66 7.29m-17.08-8.3c-1 6.29 6.28 9.93 10.8 6.66m-15.57-3.9c-2.14 8.04 8.16 11.06 12.05 5.03m-2.63 2.39c.38 4.52 7.41 8.41 12.93 4.64m-25.49-.87c-.5 2 7.91 4.01 9.17-3.02m-4.27 4.77c2.01 5.15 8.8 6.4 12.68.13m-2.26 2.5c.88 4.78 7.03 7.41 12.43 4.15m2.26 1.89c-1.38 6.4 5.27 11.55 9.42 8.03m-20.1-9.16c-2 7.03 6.79 11.05 11.69 7.15m-22.23-10.67c-.5 6.53 4.65 10.42 10.55 7.53m-21.72-6.9c-1.76 4.27 7.53 7.78 11.92 4.14m-17.7 7.54c2.38 2.76 10.67 0 11.42-6.16m-2.25 4.52c3.01 3.51 10.17 5.4 13.06-2.14m-2.52 3.9c-.12 5.4 9.55 9.3 12.69-.63m11.35 1.95c-.88 2.64 1.2 6.84 5.53 7.34m-13.5-8.97c-.62 3.01 3.77 7.22 8.42 5.52m.88 1.26c-1.26 3.26-.19 7.97 4.2 7.9m-3.76-1.81c-3.27 2.76-1.89 7.66 2.82 7.85m-4.52-3.21c-4.64 3.14-3 10.04 3.14 9.67m-17.2-22.98c0 6.78 8.41 7.79 10.05 1.51m-3.27 4.02c-1.26 4.01 2 7.9 7.16 6.78m-6.15 41.69c1.13 1.63 5.77-1.13 4.52-3.9-1.26-2.76-6.18-1.26-5.65 1.64m4.51-2.77c.63-5.52-5.9-6.4-7.53-1.63m2.38-2.76c1.64-2.76-3.89-6.53-6.15-2.51m2.01-1.64c1.5-4.02-4.77-5.77-5.27-2.13m-1.38-5.28c.75-2 7.78-.75 4.77 3.39m5.4 5.03c2.76-2.51-1.88-7.66-4.77-5.78m23.35 13.44c-2.2.25-4.46 1.69-2.83 6.34 1.13 3.22 5.97 3.39 6.66 1.44"/>
      <path d="M199.08 372.88c-2.13-1.38-6.78.94-4.65 5.46 1.61 3.4 5.65 2.01 6.28.25m-13.63.76c1.07 1.88 6.4 1.07 7.35-1m-3.7-5.22c1.13-.75 3.2.19 3.64 1.13m-4.02-32.08c-3.64 2.39-1.38 9.67 4.27 7.78m-5.4-1.88c-2.89 2.26-.25 9.3 5.15 6.66m-4.27 0c-2 2-.06 7.6 5.15 6.53m-5.9-3.77c-1.13-.5-4.09-.13-5.34 1.75m2.08-27.18c-2.77 2.64-1.45 8.04 3.7 8.48m-4.71-2.96c-3.96 1.95-3.96 9.8 3.95 10.11m-4.26-1.25c-2.2 1.76-1.13 8.54 4.52 7.65m-2.7-.24c-.82.81-.95 2.89-.26 3.76m-2.26-6.34c-2 .06-4.64 1.51-5.33 3.58m-3.64-7.28c.75-2.01 6.97-1.88 7.4 4.02m.63-7.03c-.88.18-2.57 1-3.01 2.7m.31-21.1c-2.7 2.45-4.02 10.17 4.2 11.68m-9.66 4.27c0-2.08 5.59-3.83 7.53-.76m-11.11-10.48c.82 1.57 4.7 3.7 7.1 1.94m-27.32-14.24a6.19 6.19 0 0 0 7.03 6.4c4.15-.5 5.03-4.14 3.77-6.53m-3.14 6.66c-2.76 3.39.63 8.16 3.77 6.78m-.63-9.17c1.64-.63 7.04-1.38 8.67 1.13m-26.12-.13c-1.26 1.89 6.53 3.77 9.16.13m-2.63 1.88c-.25 2.51 1 6.78 7.4 5.02"/>
      <path d="M159.46 334.64c1-2.13-3.76-5.65-7.4-1.75-3.65 3.89.5 8.29 2.76 6.78m-12.06-13.43c-1.88 3.26 5.4 9.23 9.55 3.7"/>
      <path d="M137.93 331.88c-2.64 2.7.63 7.66 4.58 6.16 3.96-1.51 3.58-5.65 2.64-6.72"/>
      <path d="M132.84 336.9c-2.13 1.95-.06 6.54 2.89 6.54s4.77-2.32 4.2-5.28m4.9-1.63c-.38 2.9 3.9 4.9 6.66 2.2m.13-5.28c.37-.63.06-1.7-.57-2.2m-22.79 9.55c-2.44 1.95 2.83 7.35 6.16 2.39m12.74-3.46c-1.57 1.5.94 5.46 3.45 4.27m-12.05-1.5c.38 2.69 5.65 4.7 8.98.56m-6.1 2.13c-.81 1.7.82 4.4 2.83 4.02m47.15 11.5c-1.95 3.82 4.27 8.28 8.79 3.64m-4.27 2.07c-.95 2.07.18 4.96 1.88 6.02m-7.78-1.7c.44-1.88 3.14-3.64 5.59-2.76m-8.86-2.2c.38-1.69 2.64-3.39 4.33-2.94m143.52-75.4c-8.91.12-5.15 14.43 2.51 11.54m-5.4-1c-1.75 2.9 1.64 7.48 5.4 4.78m-1 .56c-2.64 4.4 6.78 11.11 10.55 4.2m-3.01 2.64c.12 4.14 12.18 6.78 10.42-1.5m-1.13 4.51c2.88 4.9 13.68 5.4 12.55-1.88m-2.38 5.02c2.26 3.27 12.8 5.28 12.43-1.5M320.31 275c1.5 3.89 6.65 5.27 12.3 3.01m-15.56-.25c3.51 2.26-1.63 12.55-7.03 8.41m7.03-2c3.89 1.87 8.66.5 10.04-5.03m-2.38 4.26c.37 2.9 4.52 5.15 9.92 4.02m-19.6-1c5.03 4.27-2.26 13.06-5.52 9.04m7.41-5.78c2.39 1.76 8.54.76 9.17-3.89m-2.76 3.9c.5 3 2.89 4.14 6.27 4.26m-14.06-.12c2.51 3.51 8.79 4.52 11.55-.13m-2.77 2.64c-.25 3.39 3.52 6.15 7.41 5.4m-21.09 2.13c3.27 1.63 6.78-4.52 4.02-8.79m-.25 15.32c3.9.25 4.4-5.65.76-8.92m8.16 14.32c3.26-.76 2.26-7.91-5.66-8.54m15.57 13.82c3.14-.88.63-8.8-8.03-8.29m19.96 11.05c2.14-3.26-4.9-8.79-10.67-5.9m16.57 10.42c3.9 1.13 6.53-9.17-5.77-7.54m12.93 7.54c3.4-.88 5.78-7.04-4.14-5.03m11.68 5.53c3 1.51 4.39-7.28-4.78-4.9m-45.83-22.48c3.77 2.14 9.67-.37 9.16-5.14m-1.5 4.15c1.26 2.26.75 6.65-1.63 7.78m2-2.51c2.52 1 5.9.13 7.91-3.9m-3.5 3.9c.74 1.76 1 5.27-.64 7.03m1.26-4.02c2.77 1.5 6.03-.5 7.41-3.39m-1.76 2.51c2.01 1.25 3.77 7.16.38 9.54m1.88-2.76c2.39.13 5.9.13 8.16-2.88m-1.63 1.63c2.14.63 4.65 4.14 3.77 7.28m.12-1.13c2.4-.26 6.53-1.89 7.66-4.78m-1.13 1.89a6.46 6.46 0 0 1 3.14 6.28m0-2.01c2.38-.13 4.52-1.38 5.15-4.02m-.63 1.76c1.76.63 3.9 2.64 4.02 5.02m-.25-1.5c1.76-.26 3.01-1.39 4.14-3.15m4.78-.24c2.26 2.26-.75 9.8-5.4 8.41m-42.82-160.6c-4.65 2.76-17.84 1.89-11.3-9.04m12.55 1.63c-9.16 3.64-20.47-3.39-8.66-11.05m-3.14-2.5c-7.66 0-12.8 12.3-2.5 16.57m-27.26-11.43c-2 3.9 5.15 8.16 10.05 4.27 3.8-3.01 3.51-11.17 1.25-14.31m-15.19 19.33c-2.51 8.29 15.95 8.8 13.06-4.4m-14.06 16.71c.62 6.28 17.7 4.27 12.17-8.41m2.01-3.52c1.38 1.88 5.15 5.15 11.55 4.52m-8.54-13.44c.57 2.26 4.4 4.02 9.3 2.33M125.88 342.62c-4.33 3.08 2.32 7.9 4.77 2.57m-8.17-.19c-4.33 3.08 2.33 7.91 4.78 2.57m-8.36-.24c-4.33 3.08 2.33 7.9 4.77 2.57m-8.53-.43c-4.15 2.2.69 7.6 4.9 2.82m-8.98-.75c-4.15 2.2.69 7.6 4.9 2.82m16.13-9.3c-.06 3.2 6.03 4.53 8.23-.25m-4.4 3.21c-1.88 2.39 1.57 5.34 3.46 4.27m-11.56-4.71c-.19 2.7 5.08 4.27 7.66 1.32m-4.77 1.51c-1.7 2.2 1.64 5.15 3.77 4.27m-10.17-4.65c.19 2.13 3.2 4.58 6.47 3.2m-4.53-.32c-1.25 1.13-.63 3.77 1.13 4.59m-7.66-4.77c-.5 1.94 2.83 5.4 6.22 3.14m-5.53-.88c-2.01 1.57-1.76 3.95.81 4.27m-5.64-4.52c-.25 1.31 1.45 3.45 3.58 3.2m-14.32-3.33c-2 1.07 3.14 6.53 6.34 1.45m-11.3.8c-2.51 1.2 3.7 7.23 6.47 1.08m9.8-1.32c-1.95.44-3.2 3.26-1.58 4.4m-4.77-3.4c-.25 1.14 2.14 3.02 4.08 2.33m-5.7-1.82c-1.9 1.2-.89 4.52 1.31 4.02m-8.04-1.83c-1.75 1.32-.56 3.96 1.89 3.33m1.31-3.51c.07.69 1.64 1.75 2.95 1.32M95.36 359c-2.2.94-2.07 6.46 5.34 3.45m-10.3-1.26c-3.07 1.51-2.07 5.66 4.65 1.7m.56.32c-.81.62-1.7 3.39 1.38 2.32m-7.02-1.01c-1.26 1.13-.44 3.45 2.32 2.57m-8.79-2.19c-2.26 1.32 2.7 3.08 6.03-.44M85 366.54c-1 1-1 3.96 1.64 2.89m-8.04-1.7c-1.5 1.13 1.07 2.64 5.78.57m-3.9 1.06c-1.76 1.45-1.57 3.27 1 2.7m-6.21-1.88c-1.95 1.76.88 2.95 4.27 1.5m-4.2.45c-3.34 1.5-1.89 4.27.18 3.2m110.94 6.4c-.77 1.66 1.76 3.02 4.14 2.64 2.3-.36 4.49-2.25 2.77-4.9m.12 3.27c2.26 1.76 6.27-.25 6.27-2.89"/>
    </g>
    <g fill="#fff" stroke-width=".41">
      <path d="M331.98 116.67c-10.04-5.03-30.88-14.32-36.79-6.78 5.4-2.26 21.22.12 34.28 12.18l2.51-5.4z"/>
      <path d="M338.08 116.14c-11.62-13.53-18.46-10.5-26.81-15.17-7.85-4.37-20.34-5.27-22.77 1.7 11.47-5.59 21.99 3 28.45 4.04 8.88 1.42 13.9 8.29 16.5 11.44l4.63-2.01zm43.75-1.74c-6.03-13.8-18.91-10.2-24.6-16.07-8.3-8.54-29.26-16.45-37.93-10.54 19.09-1 27.22 13.15 37.42 18.08 7.28 3.51 15.07 11.05 25.11 8.54z"/>
      <path d="M359.24 112.9c-10.3-12.8-26.12-24.1-33.4-19.84 9.54.5 12.55 7.16 19.34 11.43 6.77 4.27 3.76 10.42 14.06 8.41zm-48.98 22.6c-10.8-4.01-31.9-6.02-41.69 6.28 16.33 2.77 40.94 1.26 41.7-6.28z"/>
      <path d="M308.26 140.28c-10.8-5.03-19.24 1.99-29.39 1-19.33-1.88-33.14-.75-34.9 8.54 11.05-9.92 29.63-1.76 37.16-3.77 7.54-2 35.41-.25 44.2 3.52-4.52-5.53-11.55-7.03-17.07-9.3zm33.9-28.76c-2.51-8.29-2.39-17.08 10.04-16.45-3.14-3.9-14.69-5.9-16.57 8.66-13.69-10.04-28.63-11.8-31.4-3.14 7.04-6.02 17.96-1.63 31.02 13.19a23.2 23.2 0 0 1 6.9-2.26z"/>
      <path d="M323.33 122.95c-7.79-5.03-18.34-13.19.12-16.45-7.9-4.27-19.46-2.39-18.2 12.18-21.1-8.54-36.25-5.66-39.43 2.76-3.52 9.3 9.54 14.44 11.8 8.54-2.39 1-10.55-1.76-6.28-7.03 4.27-5.28 26.15-1.32 46.96 9.54 5.78 3.01 25.62 2.51 5.03-9.54z"/>
      <path d="M317.8 136.76c-6.01-12.26-25.5-1.13-29.42-13-5.37 17.4 27.7 7.76 29.42 13zm123.93 13.3c4.08 2.04 7.62-1.16 1.37-3.66 4.09 2.03 7.65-1.08 1.4-3.59 4.1 2.03 7.66-1.08 1.4-3.59-1.66 1.68-4.05 7.83-4.17 10.85zm2.13-23.6c9.04-9.54-.75-12.8 10.3-22.6 9.04-8.01 1.72-13.35 10.3-19.59 2.76-2 8.78-6.02 9.29-10.04 3.64 9.04-11.3 10.3-10.3 24.86.64 9.27-5.63 8.46-8.04 24.1-.5 3.27-2.76 10.56-11.55 3.27z"/>
      <path d="M447.88 130.73c5.03-10.8 10.8-10.59 13.56-14.82 5.28-8.03 16.45 1.39 25.87-5.77-1.63 10.17-14.31 6.53-19.84 13.06-5.52 6.53-10.04 9.54-19.59 7.53z"/>
      <path d="M449.14 134.25c8.8-7.03 15.27-2.34 21.35-6.03 15.31-9.3 21.47 1.88 35.15-2.51-3.64 8.79-23.85 1.26-32.64 7.79-8.8 6.52-39.68 12.8-23.86.75zm-25.61 50.1c-.13-4.02-3.9-9.17-9.17-9.8-5.28-.62-7.54-6.15-11.55-6.4-4.02-.25-6.66-8.29-12.19-8.16-5.52.12-7.78 7.28 5.15 13.81 12.94 6.53 27.25 14.06 27.76 10.55zm-16.33 3.39c-5.53.25-6.28 8.29-11.55 8.54 7.28 3.9 12.55-1.76 16.32-6.78l-4.77-1.76z"/>
      <path d="M411.72 188.74c-4.77 4.02-6.15 12.43.76 14.81-4.15-5.7 7.28-8.28 3.76-13.56l-4.52-1.25z"/>
      <path d="M416.49 189c-3.77 7.28 5.9 8.16 3.39 13.68 5.52-1.25 6.4-11.67 1.38-14.44l-4.77.76z"/>
      <path d="M379.57 173.42c9.04-.5 17.31 4.39 22.86 12.3 3.51 5.03 15.31 7.04 19.33 3.02 4.02-4.02 1.76-12.56-8.28-9.8-2.52-4.27-9.8-2.76-13.31-6.27-3.52-3.52-17.08-13.56-20.6.75z"/>
      <path stroke-linecap="round" d="M413.48 178.95c-2.39.5-3.14 4.65-1.64 6.78m6.79-4.27c.75 1.26.25 3.01-.13 3.9m-24.6-11.56c4.64.25 5.52 3.64 10.54 4.9"/>
      <path d="M390.82 162.38c16.05 4.01 28.77 7.53 36.67 12.05 7.9 4.52 20.12 5.77 30.81 2.76 10.7-3.01 31.32-5.77 30.3 7.54 5.61-6.66-1.52-13.82-15.78-15.07.25-6.53-6.73-12.43-11.76-8.54 4.65-.63 8.66 8.03-.5 11.55 1.78-6.53-4.72-12.43-11.47-9.54 4.33 1.25 8.71 8.51-.97 11.3-6.12 1.76-15.03-.5-21.65-4.52-6.62-4.02-43.8-18.59-35.65-7.54z"/>
      <path d="M431.3 155.85c-5.01 2.26-1.75 7.53-9.53 10.54-7.79 3.02-13.19 9.92-11.43 15.82 5.28-11.55 14.57-11.05 17.83-15.57 3.27-4.52 8.04-11.17 3.14-10.8z"/>
      <path d="M432.69 156.6c-.25 9.16-7.47 5.82-4.65 18.7.88 4.02 2.51 10.55-.25 17.08 8.1-5.9 2.9-18.3 6.53-22.98 1.76-2.26 4.02-5.77 4.9-8.79-1.89 5.28-1.76 15.07 3.39 17.58-4.15-9.8 11.17-17.83.63-29.13-1.5 2.76-6.28 7.66-10.55 7.54zm-25.62-9.17c1.26 1.88 2.52 6.66 1.39 9.3 2.5-1.51 6.15-5.4 7.28-8.04 5.15.75 7.16 7.15 2.26 9.92 3.01 0 8.16 0 11.05-3.4-3.51-3.89-14.44-9.91-21.97-7.78z"/>
      <path d="M328.97 129.42c-.8-.74-2.18-1.44-4.64-1.95-7.6-1.56-3.68-8.41 2.8-8.35 13.8-15.07 21.56-3.45 38.38-8.22 5.9-1.67 9.94-1.18 13.14.2 7.54-5.02 16.37-3.61 22.78 2.29.71-1.13 1.67-2 3-2.37 5.9-1.64 10.68 3.4 12.3 9.92 4.6-.85 9.86 1.43 13.32 4.57 4.78-2.46 8.08-2.57 9.29-.04 4.27-2.01 9.8-3.27 12.56 3.5 2.76 6.79-6.53 4.78-8.04 19.1-.93 8.82-10.8 12.3-18.58 7.02-12.45-8.43-24.6-9.79-30.64 3.02-6.02 12.8-10.74 20.25-25.36 16.07-5.27-1.5-12.05.5-16.32 6.28-4.27 5.77-10.8.37-18.58 1 9.79-1.5 6.04-3.97 14.56-4.52 7.79-.5 5.78-7.78 10.8-8.79-19.59 5.03-18.84-2.26-34.9 2.76 7.02-9.04 18.07-4.01 23.6-9.29-14.57-.25-21.08-9.76-27.63-5.77-10.3 6.28-5.77 24.15-32.64 22.6-13.06-.75-21.35 1-29.13 8.79 13.56-28.13 32-12.68 40.93-21.6 5.28-5.27 9.3-9.29 12.06-14.31a5.96 5.96 0 0 1 3.93-3.17c-22.35-7.03-8.84-17.99 13.01-18.74z"/>
      <path stroke-linecap="round" d="M439.33 125.47c.34.7.51 1.62.51 2.75 0 5.53-8.28 5.78-8.78 13.94-.27 4.27-.76 6.65-3.65 6.15-2.88-.5-5.4-5.02-2.63-10.3"/>
      <path d="M333.12 121.2a10.63 10.63 0 0 0-6.03-2.08m51.51-8.05c6.65 2.88 9.9 9.78 19.56 10.12 9.3.33 15.07 13.81 30.63 5.02.43-.23.84-.46 1.24-.66m-28.6-12.16c-1.4 2.2-1.7 5.29-1.33 8m-29.06 20.4c-11.8 0-14.82 6.02-14.82 11.8 0 5.77 5.53 13.3 15.32 13.3 9.8 0 15.07-6.02 15.07-12.55s-6.03-12.56-15.57-12.56z"/>
      <path d="M373.17 166.64c-.25-3.26-6.15-2.76-5.9-5.27s3.26-3.52 3.26-7.03 5.27-3.77 7.03-1c1.76 2.75 7.04 8.15 8.17 5.4m-8.16-5.4a9.65 9.65 0 0 0-.38 12.8m4.14-8.54c-.87 1.89-1.12 4.77-.12 6.53"/>
      <path fill="none" d="M428.23 148.37c9.23.76 10.8-9.41 3.9-10.04m-15.26-17.39c-3.2-4.08-10.55-5.46-10.67 3.2"/>
      <path d="M405.32 134c-3.14-7.79-11.18-8.92-15.45-5.02-3.55 3.24-3.64 11.67 4.02 13.43 2.64-3.14 7.79-7.28 11.43-8.41zm-3.46-4.9c-4.52-4.02-11.17 3.58-5.14 10.55m-80.85 8.47c3.02-.71 7.45.77 14.23 3.96 4.27 2 17.08 6.27 25.11 2-8.28 3.02-14.56-9.54-20.84-8.03-6.28 1.5-17.77 3.83-22.6-.75 11.8.75 18.15-8.6 31.64-.5 3.77 2.25 8.54 3.76 12.8 3.51-11.04-13.31-25.6-4.77-27.11-15.57 6.65 7.16 22.91-1.63 31.2 11.8m-28.82-9.8c-1.55-1.93-.85-3.85-2.51-5.38"/>
    </g>
    <path stroke="none" d="M416.87 120.94c-2.76-2.95-8.79-.63-7.1 5.34 1.33-2.76 4.15-5.09 7.1-5.34zm-17.07 16.09a20.62 20.62 0 0 1 5.52-3.03c-.9-2.24-2.21-3.92-3.72-5.1-1.43-1-5.56 4.56-1.8 8.13z"/>
    <path fill="none" stroke-linecap="round" stroke-width=".41" d="M392.38 126.84c-4.52-3.02-8.66-2.76-10.05-.25-3.26-.13-5.96 2.26-6.09 7.03m6.97 2c-5.4-3.7-12.8-2.31-12.3 5.97m-3.26 4.71c2.63-2.14 6.4-3.64 9.29.12m31.02-8.28c-1 1.38-1.76 3.52-.13 6.78-2-2.64-7.03-2.64-12.43 4.4m24.48-11.55c-6.53.75-6.4 5.02-1.13 6.9m-45.32-22.85c-5.53-1.13-9.55 2.13-1.89 4.9m12.43-8.67c-7.79-1.89-10.92.12-7.41 1.88m-15.07 29.39c-.25 2.76 1.26 6.4 5.78 2.26M363 157.6c0 .75-.12 1.63-.63 2.26m-17.45-39.05c-4.77-1.38-5.65-5.78-.13-5.4m-1.5 15.57c-5.28-1.76-5.28-6.9-.88-6.4m10.67 3.76c-6.15-1.5-6.4-5.77-1.75-5.15m2.5-7.9c-3.26-.25-8.29 3.39.13 5.52m9.04 1.76c-7.66-1.13-7.53 2.01-3.01 4.02m8.79-11.3c-5.9-1.13-7.91 2.38-3.9 3.89M350.2 137c-1.45-1.2-2.64-6.9 4.26-5.21m10.05 3.45c-4.64-1.25-9.04 3.27-4.77 5.9m10.92-11.3c-4.9-.87-9.04.5-6.4 2.27"/>
    <path fill="#fff" stroke-width=".41" d="M416.6 120.94c-2.75.51-5.23 2.13-6.83 5.34"/>
  </g>
</svg>
