<svg xmlns="http://www.w3.org/2000/svg" id="flag-icon-css-by" width="512" height="512">
  <defs>
    <clipPath id="a">
      <path fill-opacity=".67" d="M0 0h496.06v496.06H0z"/>
    </clipPath>
  </defs>
  <g fill-rule="evenodd" clip-path="url(#a)" transform="scale(1.032)">
    <path fill="#b20000" d="M0 0h992.13v329.53H0z"/>
    <path fill="#429f00" d="M0 329.53h992.13v166.54H0z"/>
    <path fill="#fff" d="M0 0h109.84v496.06H0z"/>
    <g fill="#b20000" stroke-width="1pt">
      <path d="M5.23 8.4h5.23v8.41H5.23zm15.7 0h15.69v8.41h-15.7zM26.14 0h5.23V8.4h-5.23zm26.16 0h5.23V8.4H52.3zM73.22 8.4h15.7v8.41h-15.7zM78.47 0h5.23V8.4h-5.23z"/>
      <path d="M15.7 16.81h10.46v8.41H15.7zm15.69 0h10.46v8.41H31.39zm36.61 0h10.46v8.41H68zm15.69 0h10.46v8.41H83.7zm-73.23 8.41h10.46v8.4H10.46zm26.16 0h10.46v8.4H36.62zm26.15 0h10.46v8.4H62.77zm26.15 0h10.46v8.4H88.92zM99.38 8.4h5.23v8.41h-5.23zM5.23 33.63h10.46v8.4H5.23zm36.61 0H52.3v8.4H41.84zm52.32 0h10.46v8.4H94.16zm-83.7 25.22h10.46v8.41H10.46zm5.24 8.41h10.46v8.4H15.7zm20.92-8.41h10.46v8.41H36.62zm-5.23 8.41h10.46v8.4H31.39zm-10.47 8.4h15.7v8.42h-15.7z"/>
      <path d="M26.15 84.07h5.23v8.41h-5.23zm36.62-25.22h10.46v8.41H62.77zM68 67.26h10.46v8.4H68zm20.92-8.41h10.46v8.41H88.92zm-5.23 8.41h10.46v8.4H83.7zm-10.47 8.4h15.7v8.42h-15.7z"/>
      <path d="M78.47 84.07h5.23v8.41h-5.23zm-26.16-8.4h5.23v8.4H52.3zm-52.3 0h5.23v8.4H0zm104.6 0h5.23v8.4h-5.23zM26.15 117.7h5.23v8.4h-5.23zM20.92 126.11h15.7v8.41h-15.7zm-5.22 8.41h26.15v8.41H15.7zm62.77-16.81h5.23v8.4h-5.23z"/>
      <path d="M73.22 126.11h15.7v8.41h-15.7zM68 134.52h26.15v8.41H68zm5.22 42.04h26.16v8.41H73.22zm-10.45-33.63H99.4v8.41H62.77zm-52.31 0h36.61v8.41H10.46zm5.24 42.04h15.69v8.4h-15.7zm-5.24-8.4H36.6v8.4H10.46zm73.23-16.82h26.16v8.4H83.69zm-5.22 25.22h15.69v8.4h-15.7zM20.92 193.38h5.23v8.4h-5.23zm62.77 0h5.23v8.4h-5.23zM0 159.75h26.16v8.4H0zm47.08 16.81h15.7v8.41h-15.7zm5.23 8.41h5.23v8.4H52.3zm-15.7-25.22h36.62v8.4H36.61zM57.54 33.63H68v8.4H57.53zM47.08 42.03h15.7v8.41h-15.7zm-5.24 8.41H52.3v8.41H41.84zm15.7 0h10.45v8.41H57.53zM0 42.04h10.46v8.4H0zm5.22 8.4h10.46v8.41H5.23zm94.15-8.4h10.47v8.4H99.38zm-5.22 8.4h10.46v8.41H94.16zM0 126.11h5.23v8.41H0zm104.6 0h5.24v8.41h-5.23zm-57.52 67.27h15.7v8.4h-15.7zM41.84 201.79H52.3v8.4H41.84zm15.7 0h10.45v8.4H57.53zm-20.92 8.4h10.46v8.41H36.62zm26.15 0h10.46v8.41H62.77zM31.39 218.6h10.46v8.41H31.39zm36.61 0h10.46v8.41H68zm-41.85 8.41H36.6v8.4H26.15zm47.07 0H83.7v8.4H73.22zM15.7 235.42h15.69v8.4h-15.7zm62.77 0h15.69v8.4h-15.7zM88.92 227.01h10.46v8.4H88.92zm5.24-8.41h10.46v8.41H94.16zM99.38 210.2h10.46v8.4H99.38zM10.46 227h10.46v8.4H10.46zm-5.23-8.41h10.46v8.41H5.23z"/>
      <path d="M0 210.2h10.47v8.4H0zm20.92 33.63h5.23v8.4h-5.23zm62.77 0h5.23v8.4h-5.23zM52.31 218.6h5.23v8.41H52.3zm-15.7 25.23h5.24v8.4H36.6zm31.39 0h5.23v8.4H68zm-15.7 0h5.24v8.4H52.3zm-52.3 0h5.24v8.4H0zm104.6 0h5.24v8.4h-5.23zM52.3 126.1h5.24v8.41H52.3zM26.16 42.03h5.23v8.41h-5.23zm52.31 0h5.24v8.41h-5.23zM47.09 100.9h15.7v8.41h-15.7z"/>
      <path d="M36.62 109.3H52.3v8.4H36.6z"/>
      <path d="M41.84 117.7h5.23v8.41h-5.23zM31.39 100.9h10.46v8.41H31.39zM36.62 92.48H52.3v8.41H36.6zM41.84 84.07h5.23v8.41h-5.23zm15.7 8.41h15.68v8.41H57.53zM62.77 84.07H68v8.41h-5.23zM68 100.9h10.46v8.41H68z"/>
      <path d="M57.53 109.3h15.7v8.4h-15.7zM62.77 117.7H68v8.41h-5.23zM83.7 100.9h10.46v8.41H83.7zM88.92 92.48h15.69v8.41H88.9zM99.38 100.89h10.46v8.41H99.38z"/>
      <path d="M88.92 109.3h15.69v8.4H88.9zM94.16 117.7h5.23v8.41h-5.23zm0-33.63h5.23v8.41h-5.23zM0 100.9h10.47v8.41H0zM5.23 92.48h15.7v8.41H5.22zM15.7 100.89h10.46v8.41H15.7z"/>
      <path d="M5.23 109.3h15.7v8.4H5.22zM10.46 117.7h5.23v8.41h-5.23zm0-33.63h5.23v8.41h-5.23zm-5.23 67.27h20.92v8.4H5.23zm26.16 0h20.92v8.4H31.39zm26.14 0h20.92v8.4H57.53zm26.16 0h20.92v8.4H83.7zm-41.85 16.81h26.15v8.41H41.84zm-36.61 0h26.15v8.41H5.23zm73.23 0h26.16v8.41H78.46zm26.15 33.64h5.23v8.4h-5.23zm-104.6 0h5.23v8.4H0zm5.22 285.87h5.23v-8.41H5.23zm15.7 0h15.69v-8.41h-15.7z"/>
      <path d="M26.15 496.06h5.23v-8.41h-5.23zm26.16 0h5.23v-8.41H52.3zm20.91-8.4h15.7v-8.41h-15.7z"/>
      <path d="M78.47 496.06h5.23v-8.41h-5.23zM15.7 479.25h10.46v-8.41H15.7zm15.69 0h10.46v-8.41H31.39zm36.61 0h10.46v-8.41H68zm15.69 0h10.46v-8.41H83.7zm-47.08-8.42h10.46v-8.4H36.61zm26.16 0h10.46v-8.4H62.77zm26.15 0h10.46v-8.4H88.92zm10.46 16.83h5.23v-8.41h-5.23zM5.23 462.43h10.46v-8.4H5.23zM41.84 462.43H52.3v-8.4H41.84zm52.32 0h10.46v-8.4H94.16zm-83.7-25.22h10.46v-8.41H10.46zm5.24-8.41h10.46v-8.41H15.7zm20.92 8.41h10.46v-8.41H36.62zm-5.23-8.41h10.46v-8.41H31.39zm-10.47-8.42h15.7v-8.4h-15.7z"/>
      <path d="M26.15 411.99h5.23v-8.41h-5.23zm36.62 25.22h10.46v-8.41H62.77zM68 428.8h10.46v-8.41H68zm20.92 8.41h10.46v-8.41H88.92zm-5.23-8.41h10.46v-8.41H83.7zm-10.47-8.41h15.7v-8.41h-15.7z"/>
      <path d="M78.47 411.99h5.23v-8.41h-5.23zm-26.16 8.4h5.23v-8.41H52.3zm-52.3 0h5.23v-8.41H0zm104.6 0h5.23v-8.41h-5.23zm-78.46-42.04h5.23v-8.41h-5.23z"/>
      <path d="M20.92 369.95h15.7v-8.41h-15.7zm-5.22-8.41h26.15v-8.41H15.7zm62.77 16.81h5.23v-8.41h-5.23z"/>
      <path d="M73.22 369.95h15.7v-8.41h-15.7zM68 361.54h26.15v-8.41H68zm5.22-42.04h26.16v-8.4H73.22zm-10.45 33.63H99.4v-8.41H62.77zm-52.31 0h36.61v-8.41H10.46zm5.24-42.04h15.69v-8.41h-15.7zm-5.24 8.41H36.6v-8.4H10.46zm73.23 16.81h26.16v-8.4H83.69zm-5.22-25.22h15.69v-8.41h-15.7zM0 336.31h26.16v-8.4H0zm47.08-16.8h15.7v-8.42h-15.7zm5.23-8.42h5.23v-8.41H52.3zm-15.7 25.22h36.62v-8.4H36.61zm20.92 126.12H68v-8.4H57.53zm-10.45-8.41h15.7v-8.4h-15.7zm-5.24-8.41H52.3v-8.41H41.84zm15.7 0h10.45v-8.41H57.53zM0 454.02h10.46v-8.4H0zm5.22-8.41h10.46v-8.41H5.23zm94.15 8.41h10.47v-8.4H99.38zm-5.22-8.41h10.46v-8.41H94.16zM0 369.95h5.23v-8.41H0zm104.6 0h5.24v-8.41h-5.23zm-62.76-75.67H52.3v-8.41H41.84zm15.7 0h10.45v-8.41H57.53zm-20.92-8.41h10.46v-8.41H36.62zm26.15 0h10.46v-8.41H62.77zm-31.38-8.42h10.46v-8.4H31.39zm36.61 0h10.46v-8.4H68z"/>
      <path d="M26.15 269.05H36.6v-8.4H26.15zm47.07 0H83.7v-8.4H73.22zm-57.52-8.4h15.69v-8.42h-15.7zm62.77 0h15.69v-8.42h-15.7zm10.45 8.4h10.46v-8.4H88.92zM94.16 277.45h10.46v-8.4H94.16zm5.22 8.42h10.46v-8.41H99.38zm-88.92-16.82h10.46v-8.4H10.46zM5.23 277.45h10.46v-8.4H5.23zm-5.22 8.42h10.46v-8.41H0zm20.91-33.64h5.23v-8.4h-5.23zm31.39 25.22h5.23v-8.4H52.3zm0 92.5h5.23v-8.41H52.3zm-26.16 84.07h5.23v-8.4h-5.23zm52.32 0h5.23v-8.4h-5.23zm-31.39-58.85h15.7v-8.4h-15.7zm-10.46-8.41H52.3v-8.4H36.6zm5.22-8.41h5.23v-8.41h-5.23zm-10.45 16.82h10.46v-8.4H31.39z"/>
      <path d="M36.62 403.57H52.3v-8.4H36.6zm5.22 8.41h5.23v-8.4h-5.23zm15.7-8.4h15.68v-8.42H57.53zm5.23 8.4H68v-8.4h-5.23z"/>
      <path d="M68 395.17h10.46v-8.4H68zm-10.47-8.41h15.7v-8.4h-15.7zm5.24-8.41H68v-8.41h-5.23zm20.92 16.82h10.46v-8.4H83.7zM88.92 403.57h15.69v-8.4H88.9zM99.38 395.17h10.46v-8.4H99.38zm-10.46-8.41h15.69v-8.4H88.9zm5.24-8.41h5.23v-8.41h-5.23zm0 33.63h5.23v-8.4h-5.23zM0 395.18h10.47v-8.42H0z"/>
      <path d="M5.23 403.57h15.7v-8.4H5.22zM15.7 395.17h10.46v-8.4H15.7zm-10.47-8.41h15.7v-8.4H5.22zm5.23-8.41h5.23v-8.41h-5.23zm0 33.63h5.23v-8.4h-5.23zm-5.23-67.26h20.92v-8.4H5.23zm26.16 0h20.92v-8.4H31.39zm26.14 0h20.92v-8.4H57.53zm26.16 0h20.92v-8.4H83.7zM41.84 327.9h26.15v-8.4H41.84zm-36.61 0h26.15v-8.4H5.23zm73.23 0h26.16v-8.4H78.46zm26.15-33.62h5.23v-8.41h-5.23zm-104.6 0h5.23v-8.41H0zm47.07-42.05h5.23v8.41h-5.23zm10.45 0h5.23v8.41h-5.23zm0-16.81h5.23v8.4h-5.23zm-10.45 0h5.23v8.4h-5.23zM10.46 462.43h10.46v8.41H10.46zm73.23-159.75h5.23v-8.41h-5.23zm-62.77 0h5.23v-8.41h-5.23zm26.16-8.4h15.69v8.4h-15.7z"/>
    </g>
  </g>
</svg>
