<svg xmlns="http://www.w3.org/2000/svg" height="512" width="512">
    <g clip-path="url(#a)">
        <path fill-rule="evenodd" fill="#c60000" d="M-128 0h767.975v511.984h-767.975z"/>
        <path fill-rule="evenodd" fill="#003bb2" d="M-128 73.141h767.975v365.704h-767.975z"/>
        <g>
            <path d="M402.48 256.153c0 80.85-65.543 146.388-146.388 146.388-80.85 0-146.388-65.543-146.388-146.388 0-80.85 65.543-146.388 146.388-146.388 80.85 0 146.388 65.543 146.388 146.388z" fill-rule="evenodd" fill="#fff"/>
            <g>
                <g stroke="#000" fill-rule="evenodd">
                    <path d="M283.001 209.085c1.476.185 3.065.219 4.965 0 1.577.363 2.74 1.028 3.902 1.515.651 1.031 1.563 2.548 2.483 3.334.399 1.251.989 1.775 1.773 3.031.196 1.237.678 2.478 0 3.637-.808.864-2.078 1.368-3.192 1.818-1.47.671-2.33.918-4.256 1.212-1.585.242-3.201.303-4.965.303-1.707-.26-3.023-.502-4.611-.606l-4.965-.606c-1.025-.512-2.349-.933-3.547-1.212-.832-.678-2.036-1.447-3.192-2.121-.892-1.365-1.705-1.857-2.483-3.031-.706-.887-1.042-2.033-1.064-3.637.559-.973 1.483-1.916 2.128-2.727 1.107-.625 2.358-1.454 3.901-2.121 2.084-.063 2.898-.585 4.965-.606h5.32c1.204.103 1.798 1.016 2.837 1.818z" fill="#030"/>
                    <path d="M270.232 254.846c-1.419-6.97-3.547-24.244-3.547-31.821.355-5.758 25.892-25.456 26.602-27.578.709-2.121 13.832-18.183 15.96-23.032-5.32 3.334-14.187 17.88-15.96 19.396-1.773 1.515 3.901-15.153 2.128-20.304-1.773 6.061-4.611 21.516-6.739 23.032-1.064.909-19.507 19.092-21.634 18.486-2.128-.606-7.803-3.637-6.739-5.455s15.251-13.031 15.96-16.971 1.773-13.334 3.192-14.244c1.419-.909 3.547-5.455 5.32-9.092-4.611 1.818-5.32 7.273-7.093 7.576-1.773.303-6.03-6.061-6.03-6.061s2.837 6.97 3.192 8.486c.355 1.515-1.419 11.516-2.483 12.728-1.064 1.212-8.867 9.698-10.286 10.001-1.419.303-5.32-13.94-5.32-16.668s2.837-13.334 0-13.941c-1.773 0-2.128 12.425-3.192 12.425s-3.547-12.425-3.547-12.425-1.418 5.758-.709 9.698c-2.128.303-7.803-7.273-7.803-7.273s10.64 15.759 12.768 16.365c2.128.909 4.256 12.425 3.901 13.031s-10.64-3.03-12.768-4.243c-2.128-1.212-6.384-14.547-6.384-14.547s2.128 13.031-.355 11.213c-2.483-1.818-6.384-3.334-8.512-6.061s-1.064-13.941-1.064-13.941-3.547 10.001-4.965 10.001c-1.419 0-6.029-13.334-6.029-13.334s.709 14.547 2.837 15.456c2.128.909 34.048 19.092 34.404 20.912.355 1.818 4.256 8.788 6.384 10.91-.355 3.94 1.419 29.397 2.128 35.457l6.384 1.818z" fill="#520900"/>
                    <path d="M208.875 169.385c.394 1.168.538 2.211 2.483 2.727 1.077.35 3.196.824 4.256 1.212 1.117.452 2.373 1.018 3.901 1.212 1.149.327 3.106.664 4.611.909 1.585.242 3.201.303 4.965.303 2.036-.311 2.942-.624 4.256-1.515.394-1.235.925-1.789 1.064-3.334.121-1.446.355-2.697.355-4.243l-.709-3.637c-1.188-.995-1.502-1.574-3.547-2.121-1.592-.616-3.047-.606-4.965-.606-1.483.422-3.268.303-4.965.303h-4.965c-1.485.276-2.618.503-3.902 1.212-1.732.668-1.989 1.15-2.837 2.728-.625 1.602-.647 2.806 0 4.849z" fill="#030"/>
                    <path d="M209.583 181.81c0-.506-1.282.489-1.773.909-1.148.687-1.629 1.604-1.773 3.334-.533.944 0 2.496 0 3.94 0 1.671.013 2.836 1.064 3.637 1.192.627 1.766.909 3.901.909h9.93c1.256-.358 2.788-.537 4.256-.909 1.641-.743 2.784-.822 4.611-1.212 1.04-.771 2.478-1.565 4.256-1.818 2.034-.083 3.25-.689 4.611-1.515 1.75-.374 3.33-1.158 4.611-1.818 1.03-.599 1.77-1.35 2.483-2.424.723-1.442.955-2.347-.355-3.94-2.586-.804-1.301-1.673-3.192-2.424-.865-.446-2.881-1.032-3.901-1.515-1.766.112-3.023.488-4.965.606-1.003.429-3.06.303-4.611.303h-5.675c-1.697 0-3.483-.119-4.965.303l-3.547 1.212c-.936.544-2.451.985-3.547 1.515l3.547-1.515c-.936.544-2.451.985-4.965 2.425z" fill="#030"/>
                    <path d="M241.859 158.373c.706 0-1.108.617-1.773 1.032-.854 1.095-.953 2.081-1.419 3.097-.546.895-1.22 2.025-1.419 3.097-.669 1.161-1.039 1.585-1.064 3.097 0 1.19-.019 2.539.355 3.355 1.075.986 2.108 1.546 3.902 2.323 1.535.387 2.66.618 4.256.774h4.965c1.122.272 2.975.258 4.611.258 1.809-.492 2.494-1.117 4.256-1.291 1.941-.128 2.276-.72 3.192-1.807.852-.801 1.208-1.707 1.419-2.839 0-1.302-.16-2.422-.355-3.613-.853-.697-1.502-1.658-2.128-2.839-1.096-1.367-1.097-1.975-2.837-2.581-.847-.842-2.311-1.251-3.192-1.807-1.843-.096-3.241-.263-4.611-.774-1.635 0-3.489-.014-4.611.258-1.285 0-2.225.088-3.547.258z" fill="#030"/>
                    <path d="M267.75 156.353c-.21 0-.868.878-1.419 1.818-.925 1.258-1.049 2.423-1.773 3.334-.283 1.355-.355 2.735-.355 4.243.161 1.513.681 2.061 1.773 2.728 1.643.797 2.421 1.167 4.256 1.515 1.586.104 2.726.303 4.611.303 1.697 0 3.483.119 4.965-.303 1.764 0 3.38-.061 4.965-.303.814-.59 2.565-1.118 3.547-1.515 1.168-1.209 1.727-2.411 2.483-3.334 0-1.788.017-2.833-1.064-4.243-.771-1.163-1.696-1.696-2.838-2.727-1.431-.425-2.637-1.31-4.256-1.515h-14.896z" fill="#030"/>
                    <path d="M294.351 165.445c-1.339.477-1.829.6-2.483 1.818-.984 1.295-1.564 1.904-2.483 2.727-.211 1.213-.776 2.526-1.419 3.334-.195 1.398-.355 2.714-.355 4.243.899 1.18 2.148 2.294 3.547 3.03 1.446.428 2.971 1.08 4.256 1.515 1.654.37 3.185.8 4.965.909 1.537.329 3.23.303 4.965.303 1.577-.293 2.929-.633 4.256-1.515.71-.946 1.524-2.01 1.773-3.637.587-1.504.115-3.469-.709-4.849-.434-1.361-1.068-1.888-2.837-2.728-.979-.883-2.28-1.879-3.192-2.424-1.125-.834-2.586-.938-4.256-1.515-1.809-.343-2.415-.788-4.256-.909l4.256.909c-1.808-.343-2.414-.788-6.029-1.212z" fill="#030"/>
                    <path d="M261.262 177.609c-2.049.488-3.003 1.077-4.479 1.878 0 1.247.294 2.002.448 3.052.932.667 1.922 2.009 2.688 2.583.584.96 1.862 1.711 2.688 2.348 2.069.439 4.168.767 6.271 1.174 2.474 0 4.061.29 6.271.47 1.873.327 4.128.235 6.271.235 2.192 0 4.329-.02 6.271.235 2.072.193 3.604.615 5.823.704 1.275-.064 3.534-.16 5.375-.235 2.062-.491 2.954-.805 4.032-1.643 1.009-.64.896-1.589.896-2.817.431-1.265.563-2.116-.448-3.287-.029-1.264-.489-1.857-.896-3.052-.808-.847-1.519-1.22-3.135-1.643-1.47-.537-3.46-.846-4.927-1.409-1.999-.125-4.239-.289-5.823-.47-1.751-.612-3.21-.923-5.823-.939-2.559-.16-3.765-.319-5.823.235-2.149.081-4.075.306-5.375.704-1.653.067-4.111.138-5.375.47-1.994 0-2.687.182-4.479.235l4.479-.235c-1.994 0-2.687.182-4.927 1.409z" fill="#030"/>
                    <path d="M255.691 198.78c-.916-.115-3.68-.303-5.675-.303-1.863 0-3.378.106-4.965.606-1.699.28-2.957.737-4.256 1.212-1.076.436-2.333.879-3.192 1.515-1.055.613-1.945 1.153-2.837 2.424-.953 1.169-1.053 1.922-1.773 3.334v4.243c.125 1.389.349 2.59 1.064 3.94 1.07.731 2.551.961 3.902 1.212 1.284.239 2.955.505 4.611.606 1.968 0 3.016.085 4.611.606 2.076-.066 2.472-.478 4.256-1.212 1.984-.672 3.165-.921 4.965-1.818 1.102-.742 1.827-1.999 2.483-3.334.999-1.379 1.685-2.709 2.483-3.94.384-1.314.355-2.76.355-4.243-.473-1.139-1.225-1.621-2.128-2.727-.983-.919-1.421-1.628-2.128-2.424l2.128 2.424c-.983-.919-1.421-1.628-3.901-2.121z" fill="#030"/>
                    <path d="M288.77 194.171c1.891.155 3.929.183 6.364 0 2.022.303 3.512.858 5.001 1.266.835.861 2.003 2.128 3.182 2.784.512 1.045 1.267 1.483 2.273 2.531.251 1.033.869 2.07 0 3.037-1.036.721-2.664 1.142-4.091 1.519-1.884.561-2.986.767-5.455 1.012-2.032.202-4.103.253-6.364.253-2.188-.218-3.874-.419-5.91-.506l-6.364-.506c-1.314-.428-3.01-.779-4.546-1.012-1.066-.566-2.61-1.209-4.091-1.772-1.144-1.14-2.185-1.551-3.182-2.531-.905-.741-1.335-1.698-1.364-3.037.717-.812 1.9-1.601 2.728-2.278 1.419-.522 3.023-1.214 5-1.772 2.671-.053 3.714-.489 6.364-.506h6.819c1.543.086 2.305.849 3.637 1.519z" fill="#030"/>
                </g>
                <g fill-rule="evenodd" stroke="#000" stroke-width="3.711" fill="#006a00">
                    <path d="M269.252 304.342l.765-1.206-2.301-.213 1.573-1.648-2.322-.595 2.195-1.694-2.343-.976 2.434-1.137-1.349-1.816 2.508.198-1.163-2.213 2.965.93-.17-3.052 2.189 1.945 1.509-2.793 1.381 2.388 2.338-2.854.946 2.037 3.635-1.992-.888 2.747 3.853-1.817-.659 3.113 3.645-1.802-1.292 2.968 3.741-.085-3.013 1.946 3.172.915-2.816 1.74 2.593 1.724c-7.757 3.957-13.775 5.486-23.124 3.24z"/>
                    <path d="M227.63 303.13l.765-1.206-2.301-.213 1.573-1.648-2.322-.595 2.195-1.694-2.343-.976 2.434-1.137-1.349-1.816 2.508.198-1.163-2.213 2.965.93-.17-3.052 2.189 1.945 1.509-2.793 1.381 2.388 2.338-2.854.946 2.037 3.635-1.992-.888 2.747 3.853-1.817-.659 3.113 3.645-1.802-1.292 2.968 3.741-.085-3.013 1.946 3.172.915-2.816 1.74 2.593 1.724c-7.757 3.957-13.775 5.486-23.124 3.24z"/>
                    <path d="M292.378 303.734l.765-1.206-2.301-.213 1.573-1.648-2.322-.595 2.195-1.694-2.343-.976 2.434-1.137-1.349-1.816 2.508.198-1.163-2.213 2.965.93-.17-3.052 2.189 1.945 1.509-2.793 1.381 2.388 2.338-2.854.946 2.037 3.635-1.992-.888 2.747 3.853-1.817-.659 3.113 3.645-1.802-1.292 2.968 3.741-.085-3.013 1.946 3.172.915-2.816 1.74 2.593 1.724c-7.757 3.957-13.775 5.486-23.124 3.24z"/>
                    <path d="M277.351 313.929l.572-1.352-2.293.276 1.3-1.959-2.37-.097 1.904-2.136-2.448-.469 2.222-1.637-1.596-1.507 2.494-.334-1.473-1.938 3.052.292-.622-2.977 2.441 1.458 1.067-3.075 1.713 2.065 1.872-3.311 1.233 1.811 3.274-2.734-.463 2.899 3.515-2.607-.184 3.212 3.313-2.548-.827 3.203 3.663-.874-2.671 2.557 3.253.233-2.508 2.313 2.805 1.154c-7.032 5.543-12.717 8.324-22.239 8.082z"/>
                    <path d="M307.794 313.424l.765-1.206-2.301-.213 1.573-1.648-2.322-.595 2.195-1.694-2.343-.976 2.434-1.137-1.349-1.816 2.508.198-1.163-2.213 2.965.93-.17-3.052 2.189 1.945 1.509-2.793 1.381 2.388 2.338-2.854.946 2.037 3.635-1.992-.888 2.747 3.853-1.817-.659 3.113 3.645-1.802-1.292 2.968 3.741-.085-3.013 1.946 3.172.915-2.816 1.74 2.593 1.724c-7.757 3.957-13.775 5.486-23.124 3.24z"/>
                    <path d="M290.324 315.243l.765-1.206-2.301-.213 1.573-1.648-2.322-.595 2.195-1.694-2.343-.976 2.434-1.137-1.349-1.816 2.508.198-1.163-2.213 2.965.93-.17-3.052 2.189 1.945 1.509-2.793 1.381 2.388 2.338-2.854.946 2.037 3.635-1.992-.888 2.747 3.853-1.817-.659 3.113 3.645-1.802-1.292 2.968 3.741-.085-3.013 1.946 3.172.915-2.816 1.74 2.593 1.724c-7.757 3.957-13.775 5.486-23.124 3.24z"/>
                    <path d="M210.158 303.13l.765-1.206-2.301-.213 1.573-1.648-2.322-.595 2.195-1.694-2.343-.976 2.434-1.137-1.349-1.816 2.508.198-1.163-2.213 2.965.93-.17-3.052 2.189 1.945 1.509-2.793 1.381 2.388 2.338-2.854.946 2.037 3.635-1.992-.888 2.747 3.853-1.817-.659 3.113 3.645-1.802-1.292 2.968 3.741-.085-3.013 1.946 3.172.915-2.816 1.74 2.593 1.724c-7.757 3.957-13.775 5.486-23.124 3.24z"/>
                    <path d="M195.129 313.326l.572-1.352-2.293.276 1.3-1.959-2.37-.097 1.904-2.136-2.448-.469 2.222-1.637-1.596-1.507 2.494-.334-1.473-1.938 3.052.292-.622-2.977 2.441 1.458 1.067-3.075 1.713 2.065 1.872-3.311 1.233 1.811 3.274-2.734-.463 2.899 3.515-2.607-.184 3.212 3.313-2.548-.827 3.203 3.663-.874-2.671 2.557 3.253.233-2.508 2.313 2.805 1.154c-7.032 5.543-12.717 8.324-22.239 8.082z"/>
                    <path d="M225.576 312.821l.765-1.206-2.301-.213 1.573-1.648-2.322-.595 2.195-1.694-2.343-.976 2.434-1.137-1.349-1.816 2.508.198-1.163-2.213 2.965.93-.17-3.052 2.189 1.945 1.509-2.793 1.381 2.388 2.338-2.854.946 2.037 3.635-1.992-.888 2.747 3.853-1.817-.659 3.113 3.645-1.802-1.292 2.968 3.741-.085-3.013 1.946 3.172.915-2.816 1.74 2.593 1.724c-7.757 3.957-13.775 5.486-23.124 3.24z"/>
                    <path d="M208.103 314.636l.765-1.206-2.301-.213 1.573-1.648-2.322-.595 2.195-1.694-2.343-.976 2.434-1.137-1.349-1.816 2.508.198-1.163-2.213 2.965.93-.17-3.052 2.189 1.945 1.509-2.793 1.381 2.388 2.338-2.854.946 2.037 3.635-1.992-.888 2.747 3.853-1.817-.659 3.113 3.645-1.802-1.292 2.968 3.741-.085-3.013 1.946 3.172.915-2.816 1.74 2.593 1.724c-7.757 3.957-13.775 5.486-23.124 3.24z"/>
                    <path d="M281.873 304.134l-1.823 1.074 4.577.576-3.551 1.385 4.53.957-4.812 1.332 4.483 1.339-5.162.742 2.286 2.013-4.997-.593 1.819 2.377-5.743-1.392-.377 3.052-3.944-2.275-3.692 2.529-2.216-2.586-5.374 2.458-1.422-2.169-7.778 1.399 2.431-2.582-8.175 1.19 2.058-2.981-7.755 1.208 3.296-2.738-7.543-.509 6.517-1.452-6.164-1.409 6.073-1.279-4.809-2.119c16.529-2.693 28.993-3.256 47.266.452z"/>
                </g>
                <path d="M356.34 196.48c0 22.512-18.995 6.66-38.298 6.66-19.302 0-36.632 17.517-39.962.001 0-9.192 25.655-23.313 44.957-23.313 14.308 1.666 36.634-4.196 33.303 16.652z" fill-rule="evenodd" transform="matrix(.291 0 0 .321 211.83 225.34)" stroke="#000" stroke-width="2.5" fill="#510800"/>
                <path d="M356.34 196.48c0 22.512-18.995 6.66-38.298 6.66-19.302 0-36.632 17.517-39.962.001 0-9.192 25.655-23.313 44.957-23.313 14.308 1.666 36.634-4.196 33.303 16.652z" fill-rule="evenodd" transform="matrix(-.291 0 0 .321 309.119 223.88)" stroke="#000" stroke-width="2.5" fill="#ffc600"/>
                <path d="M349.68 188.16c0 13.794-7.082 24.977-15.819 24.977-8.736 0-15.819-11.183-15.819-24.977s7.082-24.977 15.819-24.977c8.736 0 15.819 11.183 15.819 24.977z" fill-rule="evenodd" transform="matrix(.36 0 0 .351 211.05 219.266)" stroke="#000" stroke-width="2.5" fill="#520900"/>
                <g fill-rule="evenodd" stroke="#000" stroke-width="1pt" transform="matrix(-.666 -.125 -.396 .666 473.522 100.021)">
                    <path d="M323.854 237.913c4.351-1.966-24.349-33.243-30.096-48.406-5.748-15.164-5.441-15.609-7.676-22.71l-2.807 1.27c.718 4.603 14.137 40.962 27.379 59.899 3.74 5.432.561 15.658 4.776 13.753l8.424-3.806z" fill="#af8000"/>
                    <path d="M285.048 167.875l-23.046 2.321s-4.303 3.835-2.293 11.826c2.009 7.991 7.986 11.104 7.986 11.104l20.193-16.393-2.841-8.858z" fill="#808080"/>
                    <rect ry="3.532" rx="3.532" transform="matrix(.844 -.297 .284 .885 -19.207 -255.61)" height="19.428" width="7.064" y="534.62" x="175.71" fill="#808080"/>
                </g>
                <path d="M244.77 87.419c7.322-5.947 11.157-3.718 17.649 3.102 9.323 9.815 41.318 58.855 46.313 63.018s4.241-6.417 10.344-1.387c3.032 3.727-10.437 17.026-13.737 14.569-6.411-5.02 3.915-5.374-.354-9.643-4.925-5.133-51.215-40.497-60.282-50.571-5.92-6.577-6.314-13.969.067-19.087z" fill-rule="evenodd" transform="matrix(.763 .171 .355 .565 55.855 72.781)" stroke="#000" stroke-width="1.25" fill="#923d09"/>
                <g stroke="#000">
                    <path d="M189.023 218.376c-2.13.969-5.929 10.1-7.366 10.028-2.281-.105-11.403-16.986-9.941-19.327 1.014-1.806 9.308 9.021 9.844 9.664.092-1.884 2.185-11.178 3.878-13.128 2.003-2.039 4.413-.91 6.551-1.459 1-.623 2.581-3.078 3.258-5.47-1.121-.776-2.099-.543-3.194-2.333-.778-1.455-.326-10.274-.051-11.182 1.821-3.125-.744-1.605 5.346-1.989 8.805-.536 10.395 10.858 4.336 15.503.474 3.488 1.948 4.291 3.143 4.74 1.202.023 5.319-.167 7.61 2.735 4.576 5.377 1.223 6.768 2.103 7.84.983 1.236 2.448 4.342 2.999 6.199 1.435 1.094 13.629-1.094 15.961-.364 2.25.211 7.736 3.464 10.022 5.834-.488 3.097-33.087-1.665-34.15-.547-.815.733.371 11.221-.276 12.034-.227 1.985-15.966 1.277-17.207 1.277-1.035-4.13-2.108-17.861-2.867-20.057z" fill-rule="evenodd" fill="#ffc600"/>
                    <path d="M190.552 185.192c-.255 3.895 1.174.506 6.331.506 9.992-.77 6.482 15.177 6.482 10.255 4.327-2.098 7.398-15.344-4.887-14.83-3.884 0-7.418 1.202-7.927 4.07z" fill-rule="evenodd"/>
                    <path d="M207.762 213.377c0 .368.037 1.743.18 2.553.096.819.332 1.769.54 2.37.074.975.452 1.133.539 2.188.334.497.477 1.302.54 2.188 0 .935-.148 1.655-.18 2.553-.104.78-.348 1.394-.36 2.37 0 .956.001 1.653.36 2.188v1.276" fill="none"/>
                    <path d="M208.663 209.001c-.125 0-.222 4.408-1.259 5.47-.224.703-.988 1.608-1.259 2.188-.361.539-.86 1.176-1.798 1.459h-2.518c-1.001 0-1.614.012-2.338-.365-.321-.175-.547-.404-.719-.729" fill="none"/>
                    <path d="M196.075 217.57h-.18c.503 0 .236-.023-.719.365-.373.556-.814.794-1.439 1.094-.644.321-1.38.365-2.338.365-.907-.078-1.456-.369-1.978-.729-.873-.286-1.04-.643-1.259-1.641v-2.553c.103-.773.299-1.396.54-2.006.091-.276.18-.154.18-.547" fill="none"/>
                    <path d="M181.328 218.846c.092 0 .572.564.899 1.094.555.201.698.814.899 1.276.145.586.36.626.36 1.459.362.812.476 1.535.539 2.37l-.539-2.37c.362.812.476 1.535.539 2.37" fill="none"/>
                    <path d="M191.938 204.26h.18c-.486 0-.237-.012.719.182.392.497 1.038.943 1.618 1.276.643.4 1.159.878 1.798 1.094l-1.798-1.094c.643.4 1.159.878 1.798 1.094" fill="none"/>
                    <path d="M204.706 203.531h-.18c.486 0 .239-.012-.719.182-.634.305-1.026.633-1.618 1.094-.279.424-.704.505-.899 1.276-.34.186-.459.366-.54.912" fill="none"/>
                    <path d="M199.31 198.79h-.899c-.978 0-1.454.149-2.338.182-.764-.093-.947-.38-1.618-.547" fill="none"/>
                    <path d="M195.893 221.4c-.03.145-.357.932-.54 1.276-.328.55-.764 1.076-.899 1.823-.209.636-.33 1.364-.36 2.188-.164.767-.273 1.45.18 2.006.194.721.555 1.247.899 2.006.24 0 .18-.061.18.182" fill="none"/>
                    <path d="M201.65 221.764v.182c0-.492-.012-.242.18.729.248.879.464 1.618.899 2.188.237.721.502.986.54 2.006-.143.338-.18.715-.18 1.276" fill="none"/>
                    <path d="M202.548 229.24v.911c-.196.265-.119.283-.36.365" fill="none"/>
                    <path d="M217.474 220.305v.182c0-.51.056-.205-.899.182-.772.14-1.714.227-2.338.365-.577.287-1.137.762-1.618 1.094-.431.378-1.041.762-1.619 1.094-.649.329-.934.618-1.259 1.276-.196.265-.119.283-.36.365" fill="none"/>
                    <path d="M202.149 189.353c-.041-.04-.831-.419-1.684-.547-.608-.297-1.622-.162-2.244 0" fill="none"/>
                    <path d="M196.543 188.805h-.218c.589 0 .29.012-.872-.182-.912-.254-2.01-.182-3.054-.182-.308.086-.218.053-.218.365" fill="none"/>
                    <path d="M196.76 191.358v.182c0-.51.027-.239-.436.729-.168.649-.461 1.544-.218 2.006.572 0 .749-.06 1.091-.182" fill="none"/>
                    <path d="M193.674 195.93c-.084.396.906.869 2.211 1.056 1.305.187 2.431.018 2.514-.378s-.906-.869-2.211-1.056c-1.305-.187-2.431-.018-2.514.378z" fill-rule="evenodd"/>
                    <path d="M198.363 189.081c-.061.261.656.575 1.602.701.946.126 1.762.018 1.823-.243s-.656-.575-1.602-.701c-.946-.126-1.762-.018-1.823.243z" fill-rule="evenodd"/>
                    <path d="M192.693 188.533c-.061.261.656.575 1.602.701.946.126 1.762.018 1.823-.243s-.656-.575-1.602-.701c-.946-.126-1.762-.018-1.823.243z" fill-rule="evenodd"/>
                    <path d="M202.369 217.114c0 .453.403.821.899.821.497 0 .899-.367.899-.821s-.403-.821-.899-.821c-.497 0-.899.367-.899.821z" fill-rule="evenodd"/>
                    <path d="M190.139 218.483c0 .302.282.547.629.547.348 0 .629-.245.629-.547s-.282-.547-.629-.547c-.348 0-.629.245-.629.547z" fill-rule="evenodd"/>
                    <path d="M194.995 199.155v.182c0-.612-.043-.225.899.729.804.391 1.115.803 1.439 1.459.376.843.506 1.448.54 2.37v1.459" fill="none"/>
                    <path d="M200.93 198.972c-.125 0-.319.498-.54 1.094-.401.479-.656 1.172-.719 2.006 0 .99-.168 1.413-.18 2.37v.729" fill="none"/>
                    <path d="M182.585 220.487c0 .105.562.319.899.729.683.094 1.288.182 2.158.182.132-.201.397-.267.719-.365" fill="none"/>
                </g>
                <g fill-rule="evenodd" stroke="#000" stroke-width="3.75" fill="#fff">
                    <path d="M209.858 231.018l-19.68.236v1.655s-1.856 2.128-2.971 6.857c-1.114 4.729-2.228 22.463-2.228 22.463l-4.827 20.099s2.971 3.074 5.199 2.837c2.228-.237 8.912-1.892 8.912-2.128 0-.236.371-11.349 1.114-18.916.743-7.566 2.228-11.586 5.57-14.896 4.456 6.857 4.827 13.951 4.456 13.951s-.371 5.675-.743 9.931c-.372 4.256.371 10.167.371 10.167l12.996-.473s-.371-5.202-.743-9.221c-.371-4.02-1.504-5.911-1.857-10.404-.39-4.965-.937-7.571-1.485-15.606-.722-6.495-3.275-10.687-3.992-14.66-.194-1.013.093-1.773-.093-1.892z"/>
                    <path d="M200.944 249.461s1.857-1.892 2.599-5.202l.743-4.02"/>
                    <path d="M205.03 258.92l2.228 5.675"/>
                    <path d="M196.492 257.736l-2.6 7.803"/>
                    <path d="M184.977 285.166l2.6-11.587"/>
                    <path d="M209.858 232.201l-19.68.236"/>
                    <path d="M200.574 249.224c0-.236-1.114-4.256-1.114-4.256"/>
                    <path d="M208 232.201l1.857 12.059"/>
                </g>
                <g>
                    <path d="M549.21 538.58c0 136.98-111.05 248.03-248.03 248.03s-248.03-111.05-248.03-248.03 111.05-248.03 248.03-248.03 248.03 111.05 248.03 248.03z" stroke="#006a00" stroke-width="6.25" fill="none" transform="matrix(.494 0 0 .495 107.863 -10.201)"/>
                    <g>
                        <path d="M390.917 230.254c15.449 13.181-3.059 26.362-11.586 26.362-8.528 0-27.036-13.181-11.587-26.362-3.862 13.181 11.586 16.476 11.587 23.068 0-6.591 15.449-9.886 11.586-23.068z" fill-rule="evenodd" fill="#006a00"/>
                        <path d="M336.61 432.28c35.433 124.02-53.149 106.3-53.149 141.73 0-35.433-88.583-17.717-53.15-141.73" stroke="#000" fill="none" transform="matrix(.217 0 0 .186 317.512 149.847)"/>
                    </g>
                    <g>
                        <path d="M245.69 119.747c14.74-13.89 25.742 6.021 24.803 14.51-.939 8.489-16.016 25.424-27.354 8.557 12.614 5.333 17.575-9.673 24.095-8.929-6.52-.744-8.079-16.494-21.544-14.138z" fill-rule="evenodd" fill="#006a00"/>
                        <path d="M336.61 432.28c35.433 124.02-53.149 106.3-53.149 141.73 0-35.433-88.583-17.717-53.15-141.73" stroke="#000" fill="none" transform="matrix(.024 -.217 .184 .02 158.048 183.71)"/>
                    </g>
                    <g>
                        <path d="M284.891 386.771c-10.701 17.291-26.386.938-27.637-7.512-1.252-8.45 9-28.773 24.236-15.449-13.536-1.843-14.51 13.961-20.995 14.953 6.484-.992 11.994 13.819 24.396 8.008z" fill-rule="evenodd" fill="#006a00"/>
                        <path d="M336.61 432.28c35.433 124.02-53.149 106.3-53.149 141.73 0-35.433-88.583-17.717-53.15-141.73" stroke="#000" fill="none" transform="matrix(.033 .215 -.183 .028 353.203 301.956)"/>
                    </g>
                    <g>
                        <path d="M121.94 263.874c-14.528-14.103 4.745-26.024 13.234-25.476 8.489.548 26.062 14.846 9.833 26.964 4.695-12.862-10.47-17.132-10.045-23.688-.425 6.555-16.016 8.84-13.022 22.2z" fill-rule="evenodd" fill="#006a00"/>
                        <path d="M336.61 432.28c35.433 124.02-53.149 106.3-53.149 141.73 0-35.433-88.583-17.717-53.15-141.73" stroke="#000" fill="none" transform="matrix(-.217 -.013 .011 -.185 189.773 348.555)"/>
                    </g>
                    <g>
                        <path d="M379.226 196.897c18 9.284 2.978 26.355-5.315 28.311-8.293 1.956-29.269-6.626-17.22-22.996-.78 13.713 14.988 13.376 16.477 19.79-1.488-6.413 12.791-13.163 6.059-25.105z" fill-rule="evenodd" fill="#006a00"/>
                        <path d="M336.61 432.28c35.433 124.02-53.149 106.3-53.149 141.73 0-35.433-88.583-17.717-53.15-141.73" stroke="#000" fill="none" transform="matrix(.212 -.05 .042 .181 289.685 135.482)"/>
                    </g>
                    <g>
                        <path d="M208.752 128.717c9.567-17.858 26.299-2.539 28.098 5.793 1.799 8.332-7.122 29.18-23.208 16.848 13.642 1.01 13.589-14.775 20.003-16.158-6.413 1.382-12.88-13.022-24.892-6.484z" fill-rule="evenodd" fill="#006a00"/>
                        <path d="M336.61 432.28c35.433 124.02-53.149 106.3-53.149 141.73 0-35.433-88.583-17.717-53.15-141.73" stroke="#000" fill="none" transform="matrix(-.046 -.213 .181 -.039 145.969 217.271)"/>
                    </g>
                    <g>
                        <path d="M324.378 371.192c-4.181 19.843-24.561 9.778-28.629 2.268-4.068-7.511-1.347-30.048 17.574-22.677-13.394 2.835-8.912 18-14.688 21.119 5.775-3.118 16.033 8.929 25.743-.709z" fill-rule="evenodd" fill="#006a00"/>
                        <path d="M336.61 432.28c35.433 124.02-53.149 106.3-53.149 141.73 0-35.433-88.583-17.717-53.15-141.73" stroke="#000" fill="none" transform="matrix(.104 .192 -.163 .088 359.808 268.519)"/>
                    </g>
                    <g>
                        <path d="M129.121 298.361c-18.283-8.717-3.857-26.155 4.358-28.346 8.215-2.191 29.446 5.74 17.965 22.393.319-13.677-15.413-12.88-17.114-19.223 1.701 6.342-12.331 13.482-5.208 25.176z" fill-rule="evenodd" fill="#006a00"/>
                        <path d="M336.61 432.28c35.433 124.02-53.149 106.3-53.149 141.73 0-35.433-88.583-17.717-53.15-141.73" stroke="#000" fill="none" transform="matrix(-.21 .056 -.048 -.179 220.535 356.886)"/>
                    </g>
                    <g>
                        <path d="M360.992 171.262c20.055 2.835 11.45 23.893 4.252 28.47-7.198 4.577-29.835 3.384-23.811-16.033 3.756 13.199 18.549 7.689 22.058 13.253-3.508-5.563 7.778-16.636-2.499-25.69z" fill-rule="evenodd" fill="#006a00"/>
                        <path d="M336.61 432.28c35.433 124.02-53.149 106.3-53.149 141.73 0-35.433-88.583-17.717-53.15-141.73" stroke="#000" fill="none" transform="matrix(.184 -.117 .099 .157 256.236 142.774)"/>
                    </g>
                    <g>
                        <path d="M177.016 146.905c5.032-19.63 24.86-8.73 28.576-1.063 3.716 7.667.018 30.048-18.478 21.898 13.447-2.268 9.656-17.592 15.538-20.463-5.882 2.87-15.555-9.585-25.636-.372z" fill-rule="evenodd" fill="#006a00"/>
                        <path d="M336.61 432.28c35.433 124.02-53.149 106.3-53.149 141.73 0-35.433-88.583-17.717-53.15-141.73" stroke="#000" fill="none" transform="matrix(-.095 -.196 .166 -.082 137.211 247.892)"/>
                    </g>
                    <g>
                        <path d="M352.403 350.125c1.63 20.197-20.727 16.406-26.752 10.382-6.024-6.024-9.816-28.383 10.382-26.752-12.012 6.555-3.419 19.789-8.062 24.432 4.642-4.642 17.876 3.951 24.432-8.062z" fill-rule="evenodd" fill="#006a00"/>
                        <path d="M336.61 432.28c35.433 124.02-53.149 106.3-53.149 141.73 0-35.433-88.583-17.717-53.15-141.73" stroke="#000" fill="none" transform="matrix(.154 .154 -.131 .131 357.17 241.655)"/>
                    </g>
                    <g>
                        <path d="M142.741 326.964c-19.843-4.11-9.934-24.575-2.463-28.683 7.472-4.107 29.995-1.471 22.766 17.521-2.923-13.412-18.035-8.858-21.189-14.635 3.154 5.775-8.805 16.104.886 25.796z" fill-rule="evenodd" fill="#006a00"/>
                        <path d="M336.61 432.28c35.433 124.02-53.149 106.3-53.149 141.73 0-35.433-88.583-17.717-53.15-141.73" stroke="#000" fill="none" transform="matrix(-.191 .105 -.089 -.163 245.482 362.079)"/>
                    </g>
                    <g>
                        <path d="M334.568 147.484c20.126-2.551 17.354 19.975 11.604 26.273-5.75 6.298-27.94 11.109-27.23-9.159 7.104 11.711 19.949 2.516 24.804 6.945-4.854-4.429 3.136-18.053-9.178-24.059z" fill-rule="evenodd" fill="#006a00"/>
                        <path d="M336.61 432.28c35.433 124.02-53.149 106.3-53.149 141.73 0-35.433-88.583-17.717-53.15-141.73" stroke="#000" fill="none" transform="matrix(.147 -.161 .137 .125 225.84 147.64)"/>
                    </g>
                    <g>
                        <path d="M151.105 170.628c-.283-20.268 21.707-14.99 27.301-8.575 5.594 6.416 7.884 28.985-12.1 26.008 12.384-5.74 4.713-19.524 9.638-23.847-4.925 4.323-17.522-5.138-24.839 6.414z" fill-rule="evenodd" fill="#006a00"/>
                        <path d="M336.61 432.28c35.433 124.02-53.149 106.3-53.149 141.73 0-35.433-88.583-17.717-53.15-141.73" stroke="#000" fill="none" transform="matrix(-.143 -.164 .139 -.122 139.129 278.567)"/>
                    </g>
                    <g>
                        <path d="M371.641 321.776c6.378 19.276-16.216 20.95-23.492 16.529-7.276-4.42-16.265-25.282 3.72-28.541-10.099 9.266 1.382 20.091-2.02 25.725 3.401-5.634 18.283-.443 21.792-13.713z" fill-rule="evenodd" fill="#006a00"/>
                        <path d="M336.61 432.28c35.433 124.02-53.149 106.3-53.149 141.73 0-35.433-88.583-17.717-53.15-141.73" stroke="#000" fill="none" transform="matrix(.186 .113 -.096 .158 350.506 215.004)"/>
                    </g>
                    <g>
                        <path d="M165.122 352.729c-20.197 1.275-16.094-20.969-9.992-26.876 6.103-5.907 28.489-9.302 26.575 10.824-6.378-12.101-19.718-3.756-24.29-8.469 4.571 4.712-4.199 17.77 7.707 24.52z" fill-rule="evenodd" fill="#006a00"/>
                        <path d="M336.61 432.28c35.433 124.02-53.149 106.3-53.149 141.73 0-35.433-88.583-17.717-53.15-141.73" stroke="#000" fill="none" transform="matrix(-.157 .151 -.129 -.134 273.373 359.391)"/>
                    </g>
                    <g>
                        <path d="M306.632 129.66c19.205-6.378 20.808 16.216 16.388 23.492-4.42 7.276-25.211 16.265-28.399-3.72 9.195 10.099 20.002-1.382 25.601 2.02-5.599-3.401-.39-18.283-13.589-21.792z" fill-rule="evenodd" fill="#006a00"/>
                        <path d="M336.61 432.28c35.433 124.02-53.149 106.3-53.149 141.73 0-35.433-88.583-17.717-53.15-141.73" stroke="#000" fill="none" transform="matrix(.113 -.187 .159 .096 200.271 150.768)"/>
                    </g>
                    <g>
                        <path d="M132.705 203.441c-7.087-18.992 15.422-21.473 22.854-17.326 7.433 4.147 17.186 24.626-2.657 28.594 9.744-9.602-2.126-19.984 1.063-25.725-3.189 5.74-18.248 1.098-21.26 14.457z" fill-rule="evenodd" fill="#006a00"/>
                        <path d="M336.61 432.28c35.433 124.02-53.149 106.3-53.149 141.73 0-35.433-88.583-17.717-53.15-141.73" stroke="#000" fill="none" transform="matrix(-.19 -.106 .09 -.162 157.732 309.148)"/>
                    </g>
                    <g>
                        <path d="M384.477 297.117c8.433 18.425-13.819 22.676-21.525 19.116-7.706-3.56-18.904-23.262.584-28.789-9.018 10.364 3.561 19.807.797 25.796 2.764-5.988 18.106-2.533 20.144-16.123z" fill-rule="evenodd" fill="#006a00"/>
                        <path d="M336.61 432.28c35.433 124.02-53.149 106.3-53.149 141.73 0-35.433-88.583-17.717-53.15-141.73" stroke="#000" fill="none" transform="matrix(.198 .092 -.078 .168 351.859 193.427)"/>
                    </g>
                    <g>
                        <path d="M202.633 378.151c-18.638 8.008-22.166-14.358-18.372-21.986 3.795-7.628 23.794-18.373 28.683 1.258-10.045-9.266-19.86 3.1-25.743.195 5.882 2.905 1.949 18.177 15.432 20.534z" fill-rule="evenodd" fill="#006a00"/>
                        <path d="M336.61 432.28c35.433 124.02-53.149 106.3-53.149 141.73 0-35.433-88.583-17.717-53.15-141.73" stroke="#000" fill="none" transform="matrix(-.096 .196 -.166 -.082 307.019 347.956)"/>
                    </g>
                    <g>
                        <path d="M392.625 266.619c12.189 16.228-8.644 24.98-16.937 23.102-8.293-1.878-23.458-18.78-5.599-28.204-6.591 11.977 7.724 18.585 6.307 24.999 1.417-6.413 17.15-6.218 16.228-19.896z" fill-rule="evenodd" fill="#006a00"/>
                        <path d="M336.61 432.28c35.433 124.02-53.149 106.3-53.149 141.73 0-35.433-88.583-17.717-53.15-141.73" stroke="#000" fill="none" transform="matrix(.212 .048 -.041 .181 338.531 172.216)"/>
                    </g>
                    <g>
                        <path d="M276.753 122.058c17.433-10.346 23.807 11.394 21.029 19.452-2.777 8.059-21.207 21.296-28.576 2.445 11.144 7.902 19.276-5.634 25.477-3.508-6.201-2.126-4.27-17.787-17.93-18.39z" fill-rule="evenodd" fill="#006a00"/>
                        <path d="M336.61 432.28c35.433 124.02-53.149 106.3-53.149 141.73 0-35.433-88.583-17.717-53.15-141.73" stroke="#000" fill="none" transform="matrix(.071 -.206 .175 .06 177.181 165.46)"/>
                    </g>
                    <g>
                        <path d="M241.107 389.302c-16.583 11.622-24.598-9.622-22.446-17.876 2.152-8.254 19.506-22.838 28.293-4.553-11.711-7.069-18.78 7.051-25.123 5.386 6.343 1.665 5.616 17.451 19.276 17.043z" fill-rule="evenodd" fill="#006a00"/>
                        <path d="M336.61 432.28c35.433 124.02-53.149 106.3-53.149 141.73 0-35.433-88.583-17.717-53.15-141.73" stroke="#000" fill="none" transform="matrix(-.055 .211 -.179 -.047 336.975 338.591)"/>
                    </g>
                    <g>
                        <path d="M123.943 231.71c-11.126-16.937 10.302-24.372 18.478-21.986 8.176 2.386 22.235 20.179 3.738 28.47 7.388-11.534-6.502-19.01-4.659-25.318-1.842 6.307-17.575 5.138-17.557 18.833z" fill-rule="evenodd" fill="#006a00"/>
                        <path d="M336.61 432.28c35.433 124.02-53.149 106.3-53.149 141.73 0-35.433-88.583-17.717-53.15-141.73" stroke="#000" fill="none" transform="matrix(-.209 -.061 .051 -.178 171.792 329.186)"/>
                    </g>
                </g>
                <g stroke="#000">
                    <path d="M329.053 219.766c2.13.969 5.929 10.1 7.366 10.028 2.281-.105 11.403-16.986 9.941-19.327-1.014-1.806-9.308 9.021-9.844 9.664-.092-1.884-2.185-11.178-3.878-13.128-2.003-2.039-4.413-.91-6.551-1.459-1-.623-2.581-3.078-3.258-5.47 1.121-.776 2.099-.543 3.194-2.333.778-1.455.326-10.274.051-11.182-1.821-3.125.744-1.605-5.346-1.989-8.805-.536-10.395 10.858-4.336 15.503-.474 3.488-1.948 4.291-3.143 4.74-1.202.023-5.319-.167-7.61 2.735-4.576 5.377-1.223 6.768-2.103 7.84-.983 1.236-2.448 4.342-2.999 6.199-1.435 1.094-13.629-1.094-15.961-.364-2.25.211-7.736 3.464-10.022 5.834.488 3.097 33.087-1.665 34.15-.547.815.733-.371 11.221.276 12.034.227 1.985 15.966 1.277 17.207 1.277 1.035-4.13 2.108-17.861 2.867-20.057z" fill-rule="evenodd" fill="#520900"/>
                    <path d="M327.356 186.583c.253 3.895-1.167.506-6.293.506-9.932-.77-6.443 15.177-6.443 10.255-4.301-2.098-7.353-15.344 4.857-14.83 3.86 0 7.373 1.202 7.879 4.07z" fill-rule="evenodd"/>
                    <path d="M309.979 214.766c0 .368-.037 1.743-.179 2.553-.096.819-.331 1.769-.537 2.37-.074.975-.45 1.133-.537 2.188-.332.497-.475 1.302-.537 2.188 0 .935.147 1.655.179 2.553.103.78.347 1.394.358 2.37 0 .956-.001 1.653-.358 2.188v1.276" fill="none"/>
                    <path d="M309.082 210.39c.125 0 .221 4.408 1.253 5.47.223.703.983 1.608 1.253 2.188.359.539.856 1.176 1.79 1.459h2.506c.996 0 1.607.012 2.327-.365.319-.175.544-.404.716-.729" fill="none"/>
                    <path d="M321.612 218.959h.179c-.5 0-.235-.023.716.365.371.556.81.794 1.432 1.094.641.321 1.374.365 2.327.365.903-.078 1.449-.369 1.969-.729.869-.286 1.035-.643 1.253-1.641v-2.553c-.103-.773-.298-1.396-.537-2.006-.09-.276-.179-.154-.179-.547" fill="none"/>
                    <path d="M336.29 220.235c-.091 0-.57.564-.895 1.094-.552.201-.695.814-.895 1.276-.144.586-.358.626-.358 1.459-.361.812-.474 1.535-.537 2.37l.537-2.37c-.361.812-.474 1.535-.537 2.37" fill="none"/>
                    <path d="M325.73 205.649h-.179c.484 0 .236-.012-.716.182-.391.497-1.034.943-1.611 1.276-.64.4-1.154.878-1.79 1.094l1.79-1.094c-.64.4-1.154.878-1.79 1.094" fill="none"/>
                    <path d="M313.021 204.92h.179c-.483 0-.238-.012.716.182.631.305 1.022.633 1.611 1.094.278.424.7.505.895 1.276.338.186.457.366.537.912" fill="none"/>
                    <path d="M318.392 200.179h.895c.974 0 1.448.149 2.327.182.761-.093.942-.38 1.611-.547" fill="none"/>
                    <path d="M321.793 222.789c.03.145.355.932.537 1.276.326.55.761 1.076.895 1.823.208.636.328 1.364.358 2.188.164.767.272 1.45-.179 2.006-.193.721-.553 1.247-.895 2.006-.239 0-.179-.061-.179.182" fill="none"/>
                    <path d="M316.063 223.153v.182c0-.492.012-.242-.179.729-.247.879-.462 1.618-.895 2.188-.236.721-.5.986-.537 2.006.142.338.179.715.179 1.276" fill="none"/>
                    <path d="M315.169 230.629v.911c.195.265.118.283.358.365" fill="none"/>
                    <path d="M300.312 221.694v.182c0-.51-.055-.205.895.182.768.14 1.706.227 2.327.365.574.287 1.132.762 1.611 1.094.429.378 1.036.762 1.611 1.094.646.329.93.618 1.253 1.276.195.265.118.283.358.365" fill="none"/>
                    <path d="M316.019 190.738c.041-.04.831-.419 1.684-.547.608-.297 1.622-.162 2.244 0" fill="none"/>
                    <path d="M321.605 190.19h.218c-.589 0-.29.012.872-.182.912-.254 2.01-.182 3.054-.182.308.086.218.053.218.365" fill="none"/>
                    <path d="M321.388 192.743v.182c0-.51-.027-.239.436.729.168.649.461 1.544.218 2.006-.572 0-.749-.06-1.091-.182" fill="none"/>
                    <path d="M324.456 197.324c.084.396-.906.869-2.211 1.056-1.305.187-2.431.018-2.514-.378s.906-.869 2.211-1.056c1.305-.187 2.431-.018 2.514.378z" fill-rule="evenodd"/>
                    <path d="M319.751 190.469c.061.261-.656.575-1.602.701-.946.126-1.762.018-1.823-.243s.656-.575 1.602-.701c.946-.126 1.762-.018 1.823.243z" fill-rule="evenodd"/>
                    <path d="M325.421 189.923c.061.261-.656.575-1.602.701-.946.126-1.762.018-1.823-.243s.656-.575 1.602-.701c.946-.126 1.762-.018 1.823.243z" fill-rule="evenodd"/>
                    <path d="M315.347 218.503c0 .453-.401.821-.895.821s-.895-.367-.895-.821.401-.821.895-.821.895.367.895.821z" fill-rule="evenodd"/>
                    <path d="M327.521 219.872c0 .302-.28.547-.627.547-.346 0-.627-.245-.627-.547s.28-.547.627-.547c.346 0 .627.245.627.547z" fill-rule="evenodd"/>
                    <path d="M322.687 200.544v.182c0-.612.042-.225-.895.729-.801.391-1.11.803-1.432 1.459-.375.843-.504 1.448-.537 2.37v1.459" fill="none"/>
                    <path d="M316.779 200.361c.124 0 .318.498.537 1.094.399.479.653 1.172.716 2.006 0 .99.168 1.413.179 2.37v.729" fill="none"/>
                    <path d="M335.039 221.876c0 .105-.559.319-.895.729-.68.094-1.282.182-2.148.182-.131-.201-.395-.267-.716-.365" fill="none"/>
                </g>
                <g fill-rule="evenodd" stroke="#000" stroke-width="3.75" fill="#fff">
                    <path d="M308.293 232.31l19.68.236v1.655s1.856 2.128 2.971 6.857c1.114 4.729 2.228 22.463 2.228 22.463l4.827 20.099s-2.971 3.074-5.199 2.837c-2.228-.237-8.912-1.892-8.912-2.128 0-.236-.371-11.349-1.114-18.916-.743-7.566-2.228-11.586-5.57-14.896-4.456 6.857-4.827 13.951-4.456 13.951s.371 5.675.743 9.931c.372 4.256-.371 10.167-.371 10.167l-12.996-.473s.371-5.202.743-9.221c.371-4.02 1.504-5.911 1.857-10.404.39-4.965.937-7.571 1.485-15.606.722-6.495 3.275-10.687 3.992-14.66.194-1.013-.093-1.773.093-1.892z"/>
                    <path d="M317.207 250.753s-1.857-1.892-2.599-5.202l-.743-4.02"/>
                    <path d="M313.121 260.212l-2.228 5.675"/>
                    <path d="M321.659 259.028l2.6 7.803"/>
                    <path d="M333.174 286.458l-2.6-11.587"/>
                    <path d="M308.293 233.493l19.68.236"/>
                    <path d="M317.577 250.516c0-.236 1.114-4.256 1.114-4.256"/>
                    <path d="M310.151 233.493l-1.857 12.059"/>
                </g>
                <path d="M349.68 188.16c0 13.794-7.082 24.977-15.819 24.977-8.736 0-15.819-11.183-15.819-24.977s7.082-24.977 15.819-24.977c8.736 0 15.819 11.183 15.819 24.977z" fill-rule="evenodd" transform="matrix(.36 0 0 .351 67.247 219.999)" stroke="#000" stroke-width="2.5" fill="#ffc600"/>
                <g>
                    <g fill-rule="evenodd" stroke="#000">
                        <path d="M216.855 325.994s11.534-4.553 15.378-4.553c3.844 0 3.844 4.553 4.152 4.68l-.308 8.979h-19.223v-9.106z" fill="#00cfe6"/>
                        <path d="M236.078 348.764s0 4.553 3.845 4.553c3.844 0 7.689.127 11.533 0v-13.66h-15.378v9.106z" fill="#00cfe6"/>
                        <path d="M309.122 326.051s-11.534-4.553-15.378-4.553c-3.844 0-3.844 4.553-4.152 4.68l.308 8.979h19.223v-9.106z" fill="#00cfe6"/>
                        <path d="M289.9 348.816s0 4.553-3.845 4.553c-3.844 0-7.689.127-11.533 0v-13.66h15.378v9.106z" fill="#00cfe6"/>
                        <path d="M282.212 348.819s0 4.553 3.844 4.553h-11.534l7.689-4.553z" fill="#fff"/>
                        <path d="M320.683 326.05l-26.894 13.66s9.118 8.558 17.929 9.106c4.482 0 8.965-9.106 8.965-9.106v-13.66z" fill="#00cfe6"/>
                        <path d="M289.9 330.604c-.154-2.277.48-9.107 4.325-9.107h-12.014c-3.845 0-7.689 4.553-7.689 9.107l.308 9.106h15.07v-9.106z" fill="#fff"/>
                        <path d="M243.766 348.767s0 4.553-3.844 4.553h11.534l-7.689-4.553z" fill="#fff"/>
                        <path d="M205.295 325.993l26.894 13.66s-9.118 8.558-17.929 9.106c-4.482 0-8.965-9.106-8.965-9.106v-13.66z" fill="#00cfe6"/>
                        <path d="M236.077 330.547c.154-2.277-.48-9.107-4.325-9.107h12.014c3.845 0 7.689 4.553 7.689 9.107l-.308 9.106h-15.07v-9.106z" fill="#fff"/>
                        <path d="M197.656 325.791c-.024.26 3.821-8.846 11.51-8.846s38.444 18.213 53.799 18.213c15.402 0 42.673-18.648 50.001-18.213 7.329.435 11.614 9.55 11.533 9.106-.081-.444-3.844 13.66-3.844 13.66 0-4.553-3.845-9.106-7.689-9.106-3.845 0-23.067 18.213-50.001 18.213-26.888 0-46.11-18.213-49.956-18.213-3.845 0-7.689 4.553-7.689 9.106l-7.664-13.919z" fill="#fff"/>
                    </g>
                    <path d="M300.62 335.3l-3.341-10.281 3.436-1.575.394 1.214-2.808 1.287 1.023 3.149 2.629-1.205.392 1.205-2.629 1.205 1.137 3.499 2.918-1.338.395 1.214-3.546 1.626z"/>
                    <path d="M286.209 342.004l-3.341-10.281.629-.288 2.947 9.066 2.341-1.073.395 1.214-2.969 1.361z"/>
                    <path d="M281.848 344.05l-3.341-10.281 3.206-1.47.394 1.214-2.577 1.181 1.034 3.182 2.23-1.022.395 1.214-2.23 1.022 1.518 4.67-.629.288z"/>
                    <path d="M243.541 343.467l2.228-10.581 1.296.38-.036 7.942c-.004.738-.011 1.292-.019 1.657.155-.364.39-.895.703-1.593l3.108-6.906 1.159.34-2.228 10.581-.83-.243 1.865-8.856-3.756 8.302-.777-.228.014-9.559-1.896 9.008-.83-.243z"/>
                    <path d="M243.872 331.994l.82.404-2.029 5.816c-.353 1.01-.704 1.779-1.052 2.307-.348.525-.772.884-1.273 1.078-.495.191-1.041.137-1.639-.157-.58-.285-.998-.679-1.254-1.187-.256-.506-.355-1.106-.299-1.797.058-.696.273-1.576.645-2.643l2.029-5.816.82.404-2.027 5.808c-.305.874-.481 1.545-.528 2.009-.042.461.019.863.183 1.208.167.344.426.604.778.777.603.297 1.109.287 1.521-.03.411-.318.837-1.108 1.278-2.372l2.027-5.808z"/>
                    <path d="M226.983 324.729l.613.335-2.252 5.766c-.391 1.002-.756 1.77-1.092 2.304-.335.532-.713.908-1.135 1.129-.417.219-.848.204-1.294-.041-.434-.237-.727-.59-.876-1.064-.151-.473-.165-1.046-.045-1.719.121-.677.388-1.544.801-2.601l2.252-5.766.612.335-2.249 5.759c-.339.867-.552 1.528-.639 1.981-.084.449-.078.834.016 1.157.097.322.276.555.539.699.451.246.857.203 1.221-.132.364-.335.789-1.129 1.279-2.383l2.249-5.759z"/>
                    <path d="M216.049 326.522l.621.207c-.168.516-.265.961-.293 1.339-.023.372.032.716.164 1.032.135.309.334.536.597.68.234.128.469.166.706.115.237-.051.45-.184.637-.395.192-.215.348-.477.468-.785.123-.315.187-.61.193-.887.008-.281-.054-.555-.186-.82-.083-.173-.295-.484-.636-.933-.338-.456-.555-.827-.649-1.116-.124-.37-.168-.77-.134-1.199.037-.429.146-.876.325-1.332.197-.505.447-.938.75-1.301.305-.368.628-.595.972-.683.344-.088.671-.046.982.124.343.188.599.473.766.856.171.38.236.84.197 1.38-.04.541-.169 1.107-.387 1.697l-.625-.226c.215-.649.293-1.184.236-1.605-.055-.422-.261-.729-.617-.924-.371-.203-.698-.204-.984-.003-.282.198-.503.503-.665.918-.139.356-.195.685-.165.982.027.297.242.703.642 1.222.405.513.666.91.78 1.193.165.415.231.864.198 1.347-.032.48-.152.986-.361 1.522-.207.531-.474.994-.799 1.389-.323.389-.669.644-1.037.762-.364.115-.711.08-1.042-.101-.419-.229-.719-.552-.901-.971-.179-.418-.248-.933-.204-1.548.048-.619.197-1.264.45-1.937z"/>
                    <path d="M303.935 327.492c-.554-1.704-.776-3.138-.665-4.294.109-1.162.498-1.897 1.168-2.204.439-.201.908-.156 1.407.136s.973.802 1.422 1.533c.449.724.84 1.598 1.174 2.627.339 1.042.545 2.02.618 2.932.072.91 0 1.663-.218 2.251-.22.584-.537.969-.95 1.158-.447.205-.922.155-1.427-.151-.504-.304-.978-.82-1.422-1.546s-.814-1.541-1.107-2.443zm.655-.276c.402 1.238.874 2.145 1.413 2.719.541.571 1.043.749 1.508.536.474-.217.745-.755.815-1.617.074-.858-.105-1.951-.535-3.273-.272-.838-.575-1.537-.909-2.098-.333-.567-.681-.962-1.045-1.188-.363-.231-.701-.275-1.015-.132-.445.204-.72.712-.827 1.523-.106.806.093 1.984.595 3.53z"/>
                    <path d="M295.098 337.713l-3.341-10.281 2.107-.966c.424-.194.776-.249 1.058-.163.279.082.561.326.845.733.284.408.517.892.701 1.459.237.73.328 1.394.272 1.996-.056.599-.29 1.071-.702 1.416.223.096.404.209.546.337.302.281.624.657.966 1.129l1.736 2.419-.791.363-1.324-1.85c-.385-.535-.69-.936-.915-1.21-.225-.272-.407-.453-.544-.539-.135-.087-.26-.137-.374-.143-.082-.001-.204.036-.366.11l-.729.334 1.484 4.567-.629.288zm-1.238-6.032l1.352-.62c.287-.132.491-.3.613-.499.119-.206.176-.467.169-.786-.009-.324-.067-.653-.175-.984-.158-.485-.369-.848-.636-1.086-.264-.239-.572-.278-.925-.117l-1.504.689 1.106 3.402z"/>
                    <path d="M287.922 335.156c-.554-1.704-.777-3.138-.666-4.293.109-1.163.499-1.897 1.168-2.204.439-.201.908-.156 1.407.136.5.292.973.802 1.422 1.532.448.724.839 1.598 1.174 2.628.339 1.042.545 2.02.618 2.932.072.91 0 1.663-.218 2.251-.221.584-.537.969-.95 1.158-.447.205-.923.156-1.427-.151-.503-.304-.978-.82-1.422-1.546-.444-.726-.814-1.541-1.107-2.443zm.655-.275c.402 1.238.874 2.145 1.413 2.719.541.571 1.043.749 1.508.536.474-.217.746-.756.816-1.618.073-.858-.105-1.951-.535-3.273-.272-.838-.576-1.537-.91-2.098-.333-.567-.681-.962-1.045-1.188-.363-.231-.702-.275-1.015-.132-.445.204-.721.713-.827 1.523-.105.806.093 1.984.595 3.53z"/>
                    <path d="M252.279 345.766l1.285-10.795 2.492.409c.508.083.901.261 1.18.532.282.266.482.641.6 1.126.122.481.153.968.094 1.465-.055.461-.184.882-.386 1.265-.203.383-.475.672-.815.873.379.257.649.633.808 1.129.163.497.206 1.062.132 1.689-.06.504-.182.964-.368 1.381-.181.41-.383.718-.604.921-.221.205-.486.344-.793.417-.304.071-.668.073-1.091.003l-2.533-.415zm1.624-6.116l1.437.236c.39.064.674.067.853.014.236-.072.426-.226.567-.457.145-.231.24-.536.285-.914.043-.358.027-.682-.046-.968-.073-.293-.202-.503-.387-.634-.184-.135-.515-.242-.993-.32l-1.328-.218-.388 3.261zm-.593 4.985l1.654.271c.284.047.486.062.605.048.209-.027.39-.098.543-.212.153-.116.288-.297.406-.542.12-.25.2-.548.24-.891.048-.403.026-.761-.066-1.077-.091-.321-.242-.559-.456-.712-.209-.16-.525-.274-.948-.343l-1.537-.252-.442 3.709z"/>
                    <path d="M260.436 347.706v-10.923h2.971c.596 0 1.05.099 1.361.298.31.195.559.539.745 1.036.186.497.278 1.044.278 1.646 0 .775-.154 1.428-.461 1.961-.307.53-.782.867-1.426 1.012.235.184.413.365.535.543.259.388.504.872.735 1.454l1.166 2.973h-1.115l-.887-2.272c-.259-.658-.473-1.158-.64-1.507-.168-.347-.319-.592-.452-.729-.131-.138-.265-.237-.402-.291-.101-.036-.265-.054-.494-.054h-1.028v4.853h-.887zm.887-6.102h1.906c.405 0 .722-.069.951-.201.229-.14.401-.357.521-.655.119-.303.178-.632.178-.984 0-.515-.115-.941-.347-1.274-.228-.333-.591-.5-1.087-.5h-2.121v3.615z"/>
                    <path d="M268.836 347.247l.908-11.285.942-.198 4.33 10.184-.996.209-1.263-3.096-2.761.581-.232 3.411-.928.195zm1.237-4.816l2.239-.471-1.14-2.832c-.347-.862-.615-1.572-.806-2.133.02.707.005 1.418-.045 2.128l-.247 3.308z"/>
                    <path d="M226.502 336.016l3.898-9.981 1.736.95c.354.194.597.451.73.772.137.317.182.719.138 1.206-.041.485-.151.956-.33 1.415-.167.426-.377.798-.632 1.116s-.535.533-.843.647c.211.33.308.748.291 1.256-.015.509-.137 1.056-.363 1.637-.182.466-.398.876-.65 1.231-.246.349-.48.597-.699.74-.22.145-.454.218-.702.218-.245-.001-.515-.081-.81-.242l-1.765-.966zm2.873-5.453l1.001.548c.272.149.482.215.629.205.195-.015.377-.119.545-.307.17-.187.324-.456.46-.806.129-.331.206-.642.23-.931.026-.295-.012-.524-.114-.69-.099-.17-.316-.346-.649-.528l-.925-.506-1.178 3.015zm-1.8 4.609l1.153.631c.198.108.343.168.435.182.163.021.316-.005.46-.079.145-.076.294-.218.449-.424.157-.211.297-.477.421-.793.146-.373.227-.719.245-1.039.02-.326-.027-.586-.144-.78-.111-.199-.314-.378-.609-.54l-1.071-.586-1.34 3.43z"/>
                </g>
                <g>
                    <path d="M212.6 432.28v106.3c0 70.866 88.583 106.3 88.583 106.3s88.583-35.433 88.583-106.3v-106.3h-177.17z" fill-rule="evenodd" transform="matrix(.435 0 0 .41 129.155 48.233)" stroke="#000" stroke-width="1pt" fill="#00daec"/>
                    <path d="M212.6 432.28v106.3c0 8.858 1.384 17.163 3.806 24.914l84.777-42.631v-88.583h-88.583z" fill-rule="evenodd" transform="matrix(.435 0 0 .41 129.155 48.233)" stroke="#000" stroke-width="1pt" fill="#fff"/>
                    <path d="M212.6 432.28v106.3c0 8.858 1.384 17.163 3.806 24.914l84.777-42.631v-88.583h-88.583z" fill-rule="evenodd" transform="matrix(-.435 0 0 .41 390.956 48.233)" stroke="#000" stroke-width="1pt" fill="#fff300"/>
                    <g fill-rule="evenodd" transform="matrix(.435 0 0 .41 129.155 48.233)" stroke="#000" stroke-width="1.25">
                        <path d="M227.859 458.382c3.836-2.438 6.605.038 11.727 6.368 7.358 9.106 34.796 51.139 38.582 55.249s1.799-3.499 6.417 1.482c2.469 3.337-4.251 9.478-6.711 6.969-4.814-5.047 1.739-2.844-1.599-6.856-3.88-4.774-38.512-40.598-45.744-49.825-4.722-6.024-6.025-11.309-2.673-13.388z" fill="#923d09"/>
                        <rect ry="1.293" rx="2.606" transform="matrix(.756 .655 -.586 .81 0 0)" height="66.045" width="5.212" y="181.35" x="495.52" fill="#af8000"/>
                        <path fill="#b0b0d4" d="M266.771 451.975l24.416 16.333-12.096 14.481-24.416-16.333z"/>
                    </g>
                    <g stroke="#000" fill-rule="evenodd" transform="matrix(.435 0 0 .41 129.155 48.233)">
                        <path d="M385.112 528.567c4.885-2.106-27.333-35.603-33.785-51.842-6.452-16.241-6.108-16.717-8.617-24.322l-3.152 1.36c.806 4.93 15.87 43.87 30.736 64.151 4.198 5.818.63 16.769 5.361 14.729l9.457-4.076z" fill="#af8000"/>
                        <path d="M341.548 453.549l-25.871 2.486s-4.83 4.107-2.574 12.665c2.255 8.558 8.965 11.892 8.965 11.892l22.668-17.557-3.189-9.486z" fill="#808080"/>
                        <rect ry="3.532" rx="3.532" transform="rotate(-18.579)" height="19.428" width="7.064" y="534.62" x="175.71" fill="#808080"/>
                        <path d="M314.669 502.404c4.643 2.878 7.229 6.344 5.777 7.741-1.453 1.397-6.394.195-11.037-2.683-4.643-2.878-7.229-6.344-5.777-7.741s6.394-.195 11.037 2.683z" fill="#cf0000"/>
                        <path d="M371.608 467.492c.201 5.526 1.911 9.514 3.819 8.908 1.908-.607 3.292-5.578 3.091-11.104-.201-5.526-1.911-9.514-3.819-8.908s-3.292 5.578-3.091 11.104z" fill="#cf0000"/>
                        <path fill="#b0b0d4" d="M310.691 508.867l67.745-40.383 8.887 15.418-67.745 40.383z"/>
                    </g>
                    <path d="M231.36 591.4l8.83-7.065s1.767 8.831 7.065 8.831l8.831-7.653s0 7.653 5.887 7.653 10.597-7.653 10.597-7.064c0 .588.588 7.064 5.298 7.064l10.597-6.476s.589 7.654 5.887 7.065c5.299-.589 7.065-8.242 7.653-7.653.589.588 4.121 7.653 8.242 7.064l10.009-6.476s1.177 7.065 5.887 7.065c4.709 0 6.476-6.476 6.476-6.476s2.354 5.298 6.475 5.298l10.597-5.887" transform="matrix(.415 0 0 .41 140.055 55.228)" stroke="#0072ff" stroke-width="1pt" fill="none"/>
                    <path d="M231.95 591.4c3.139-1.374 5.69.196 9.418-7.654 0 4.121 2.945 9.42 8.243 9.42l8.831-7.653s0 7.653 5.887 7.653 10.597-7.653 10.597-7.064c0 .588.588 7.064 5.298 7.064l10.597-6.476s.589 7.654 5.887 7.065c5.299-.589 7.065-8.242 7.653-7.653.589.588 4.121 7.653 8.242 7.064 2.943-.589 10.009-7.065 10.009-7.065" transform="matrix(.435 0 0 .41 140.925 59.569)" stroke="#0072ff" stroke-width="1pt" fill="none"/>
                    <g fill-rule="evenodd">
                        <path d="M305.54 350.62v18.839h14.717l-5.298-18.839h-9.419z" transform="matrix(.343 0 0 .305 167.082 173.304)" stroke="#000" stroke-width="1pt" fill="#fff"/>
                        <path d="M278.772 283.675c-.202.18-8.077 3.963-18.376 3.963s-14.337-1.081-15.347-1.801c-1.01-.721-2.221-2.162-3.433-2.162-1.212 0-2.221.901-2.221.901s2.019.901 3.433 1.981c1.414 1.081 1.817 3.063 1.817 3.063l33.318.36s-.202-1.982-.202-3.062 1.212-2.702 1.01-3.243z"/>
                        <path d="M249.696 270.884h.808v16.753h-.808z"/>
                        <path d="M260.6 268.72h.808v19.096h-.808z"/>
                        <path d="M271.302 271.964h.808v15.673h-.808z"/>
                        <path stroke="#000" stroke-width=".768pt" fill="#fff" d="M299.07 342.37h18.839v8.831h-18.839z" transform="matrix(.343 0 0 .305 165.668 168.276)"/>
                        <path stroke="#000" stroke-width=".826pt" fill="#fff" d="M297.89 350.61h21.782v8.831h-21.782z" transform="matrix(.343 0 0 .305 165.668 168.276)"/>
                        <path stroke="#000" stroke-width=".869pt" fill="#fff" d="M296.71 358.86h24.137v8.831h-24.137z" transform="matrix(.343 0 0 .305 165.668 168.276)"/>
                        <path stroke="#000" stroke-width="1.029pt" fill="#fff" d="M266.17 334.72h23.837v12.527h-23.837z" transform="matrix(.343 0 0 .305 165.668 168.276)"/>
                        <path stroke="#000" stroke-width="1.106pt" fill="#fff" d="M264.68 346.41h27.561v12.527h-27.561z" transform="matrix(.343 0 0 .305 165.668 168.276)"/>
                        <path stroke="#000" stroke-width="1.165pt" fill="#fff" d="M263.19 358.1h30.541v12.527h-30.541z" transform="matrix(.343 0 0 .305 165.668 168.276)"/>
                        <path stroke="#000" stroke-width=".984pt" fill="#fff" d="M260.21 368.28h36.5v15.307h-36.5z" transform="matrix(.343 0 0 .305 165.668 168.276)"/>
                        <path stroke="#000" stroke-width=".763pt" fill="#fff" d="M238.25 342.37h15.763v10.414h-15.763z" transform="matrix(.343 0 0 .305 165.668 168.276)"/>
                        <path stroke="#000" stroke-width=".82pt" fill="#fff" d="M237.26 352.09h18.226v10.414h-18.226z" transform="matrix(.343 0 0 .305 165.668 168.276)"/>
                        <path stroke="#000" stroke-width=".863pt" fill="#fff" d="M236.28 361.81h20.197v10.414h-20.197z" transform="matrix(.343 0 0 .305 165.668 168.276)"/>
                        <path stroke="#000" stroke-width=".73pt" fill="#fff" d="M234.31 370.27h24.137v12.725h-24.137z" transform="matrix(.343 0 0 .305 165.668 168.276)"/>
                        <path d="M220 377.51h9.876l10.597-33.374-20.473 33.374z" stroke="#000" stroke-width=".763pt" fill="#fff" transform="matrix(.343 0 0 .305 165.668 168.276)"/>
                        <path d="M250.08 270.867l.747.328-9.793 13.531-.747-.328z"/>
                    </g>
                    <path d="M231.36 591.4l8.83-7.065s1.767 8.831 7.065 8.831l8.831-7.653s0 7.653 5.887 7.653 10.597-7.653 10.597-7.064c0 .588.588 7.064 5.298 7.064l10.597-6.476s.589 7.654 5.887 7.065c5.299-.589 7.065-8.242 7.653-7.653.589.588 4.121 7.653 8.242 7.064l10.009-6.476s1.177 7.065 5.887 7.065c4.709 0 6.476-6.476 6.476-6.476s2.354 5.298 6.475 5.298l7.065-7.064s1.177 6.476 4.121 6.476c2.943 0 6.476-6.476 6.476-6.476s1.177 8.242 4.121 7.653c2.943-.589 4.121-8.242 4.71-7.653.588.589 4.709 7.064 4.12 7.064" transform="matrix(.41 0 0 .41 136.507 50.164)" stroke="#0072ff" stroke-width="1pt" fill="none"/>
                </g>
            </g>
        </g>
    </g>
</svg>
