<svg xmlns="http://www.w3.org/2000/svg" xmlns:xlink="http://www.w3.org/1999/xlink" xml:space="preserve" id="bz-flag-icons-bz" version="1.1" viewBox="0 0 640 480">
  <defs id="bz-defs4">
    <radialGradient id="bz-a">
      <stop id="bz-stop1" offset="0" stop-color="#ffef5d"/>
      <stop id="bz-stop2" offset="1" stop-color="#ea5700"/>
    </radialGradient>
    <radialGradient id="bz-b">
      <stop id="bz-stop3" offset="0" stop-color="#952d1a"/>
      <stop id="bz-stop4" offset="1" stop-color="#570a00"/>
    </radialGradient>
    <radialGradient xlink:href="#bz-a" id="bz-c" cx="247.1" cy="238.3" r="36" fx="247.1" fy="238.3" gradientTransform="scale(1.22624 .8155)" gradientUnits="userSpaceOnUse"/>
    <radialGradient xlink:href="#bz-a" id="bz-d" cx="322" cy="152.9" r="10.6" fx="322" fy="152.9" gradientTransform="scale(.93615 1.06821)" gradientUnits="userSpaceOnUse"/>
    <radialGradient xlink:href="#bz-b" id="bz-e" cx="364.2" cy="237.8" r="36" fx="364.2" fy="237.8" gradientTransform="scale(1.2242 .81686)" gradientUnits="userSpaceOnUse"/>
    <radialGradient xlink:href="#bz-b" id="bz-f" cx="468.1" cy="156.1" r="10.7" fx="468.1" fy="156.1" gradientTransform="scale(.95596 1.04607)" gradientUnits="userSpaceOnUse"/>
  </defs>
  <g id="bz-g2" fill-rule="evenodd" transform="scale(.64 .8)">
    <path id="bz-path1" fill="#d90f19" d="M0 0h1000v600H0Z"/>
    <path id="bz-path2" fill="#171696" d="M0 60h1000v480H0Z"/>
  </g>
  <circle id="bz-circle2" cx="320" cy="240" r="140" stroke-width=".8" class="bz-F"/>
  <path id="bz-path3" fill="#6f6" stroke-width=".8" d="M345.3 146.6s-1 0-1.8-.7z"/>
  <g id="bz-g9" class="bz-D" transform="translate(-80)scale(.8)">
    <path id="bz-path4" stroke="#060" d="M531.6 183.3s-1.1-.1-2.2-.9" class="bz-C"/>
    <g id="bz-g6" class="bz-B bz-E">
      <path id="bz-path5" d="M528.8 184.5s.6-1.3 1.7-.6c1 .8 1.2 4.1 1.2 4.1l-1.5.8s.8-1.3-1.4-4.3zm-8.6 29.8s.8-1-.3-3.3l1.5-.5s.6 1.8-.1 3.8h-1m26.2-5.2-3.6 2.2 1.8.8 4.4-2.5-2.6-.5m-48.3 14.1c-1 .8-1 2.1-1.6 2.9-.5.8-2 1.8-2 3-.2 1-.3 1.8.2 3.4s2.9 8.2 2 13.3c-1.1 5.2-.7 7.4-.3 8.1.3.8 1.5 2.9 2.1 2.9 1.6-.2.9-.7 1.5-1.6 1.4-2.5 0-21.6-.7-27-.5-4-2.4-7.7-2.6-8l-.8-2.6c-1.4-3.4-3.1-6.3-3.1-13.4 0 0-4.7 1-8.7-8-2-4.6-5.1-4.1-8.7-5.6l1.6-1s3 1.4 4.6 1.4 1-3 1-3l1.5-1.5v6.6c0 3 4.2 7.3 6.7 8.5 1.5.7 3.5-2.4 3-5.4s0-7.1 0-7.1l2 1.2s-.7 1.3-.5 2c.3.8 1.3-.7 2.1-1.4l1 .1-2.3 4c-.8 1.2-.8 6-.8 7.8s.7 6 .7 7.3c0 1 1.8 4.9 3.2 7.3l1.6 3.4c1.2 1.8 1.3 3 2 4.5q.6 1.2 1.4 6.8l.7 7c.3 2.2 2.2.4 4.5-1.2s2.3-5.8 2.3-5.8 1.8-1.5 1.5-.7c-.2 1 1 2 1 2-1.5 3.1-.6 2.8.8 2.7 1.4-.2 6.3-4 6.3-4 .7-.1 3.6-.1 3.2 0-.6.4-1.4 1.8-1.4 1.8l3.3-.4c-1.2.9-5.4 3.3-6.4 3.9a88 88 0 0 1-8.3 4c-2.2 1-6.5 3-6.7 5.2 0 2.2.3 8 0 10l-1 10.3H494s2-7.4-.1-9.4c-2-2-6.6-8.1-9.7-10.2s2-.5 2-.5v-2.1l4.7 5.6s8-7.1 0-16.8c-2.6-3-5.2-7.7-7.2-8.2s-3-1-6.6 0-12.3 1-15.9-4.6l3-.5 2.6-1s-1 3.6 6.2 3.6c7.1 0 8.2 0 7.6-6.7l2-1 1.6 1.5s-1 3.6-.5 5.1 3 2.6 5 4.1q1.4 1 2.2.8c.8-.1 1-.1 2.1-1.3 1.8-1.9 1.4-1.8 3-3.3l1.1-1.5z"/>
      <path id="bz-path6" d="M499.7 218.2c.4-.4 1.1-1.8 1.8-3 1.1-2 2.5-3 4-5.4 1.4-2.2 2-5.4 1.4-7.7l1.3.7.1 3.6s1.8-1.5 2.6-1.9l.8.4s-5.7 6-11 15.4zm-50-19.7c.8 1.3 1.6 3.9 3.9 5.9l1.5-.5s-3.5-4.1-3.5-6l-1.8.6m8.9-2.3s.4 4.8-.8 6.6l1.5-.7s1-3.4.8-5.2zm50-15.3s-.3 6.8 1 11l1.9-.6s-.3-1.2 1.2-1.8a25 25 0 0 0 7-3.5l-.6-1.5s-2.8 2.2-4.1 2.8c-1.3.4-2 1-3 .7-1.1-.3-2.3-2-1.6-5.9zm20.1 31.9s-.4 4.8-.1 7l1.6.3s-.4-5.8.6-6.3l-2-1m7.2 3.6s-1.8 3.1-4 3.4l3.4-.6q.2.1 2.4-2l-1.8-.8"/>
    </g>
    <path id="bz-path7" fill="#338a00" stroke="#030" d="m507 202 1.2.8 1.4.2 3 2.6c1.2 1 1.2-.2 1.2-.2l.8 3h1l-.2 3 1.8-1.5 2 1.9s1.6-1.4 2.3-1.4c.8 0 1-.7 1-.7h.2c-5-2.4-7.2-4.9-5.7-7.4 2.4-4.3 6.5-1.6 7.9-1l18.4 9.9s1.2-.8.4-1.5c-1-.8-1.4-2.7-1-3.5.2-.7 2.3 2.4 3.3 2.7l3.4.7v-1s3 2.1 3 3.2c0 0 2.2-1.2 1.4-1.9-.7-.6 3.3 1.7 3.6 2.9l.9-1c-.1 0 .3-3 1.3-4.4s2-1.8 2-1.8 1-1.6 1.9-1.6c0 0-1-.7-1.3-1.5-.5-.7-1.6-1.1-1.6-1.1s1.4-1 1.8-1.5q.6-.8.7-.7s-2.2-1.8-3.7-2c0 0 0-2.5-2-2.7h.9s-1.4-2.7-2.8-2.8c0 0 .9-1 1.6-1 0 0-1.6-2.1-3.8-1.4l1.5-.5s-1-1.2-4.3-.6c0 0 .3-1.3-1.1-2.4 0 0-1.3.1-1.3 1 0 0-1.1-1-2.5-1-1.5 0 .4 1.6.4 1.6s-1.9-1.3-3-.9c0 0 .5-2.2-.8-3.3 0 0-1.4.7-1.8 1.7l-.3-1s-2 2.3-2.3 1.6c-.3-.3-.6-2-.6-2l-1.1 1.8.2-2.4s-1.4.7-2.4 3.2c0 0-1.3 1.3-1.3 2.4 0 0-1-1.2-2 0-.9 1.3 0 1 0 1s-.4.5-1.4.7l.2.8s-1.2-.7-2.2-.4l.5 1.1s-2.5.2-2.6-1.8c0 0-2-1-2.3.1l-1.5 1s-.5-1-1.4-1.2c-1-.3-.2 1.3-.2 1.3s-.3-1.2-1.4-1.8c-1.1-.4-.2 1-.2 1s-1.5-1.1-.7-2c0 0-1.5 1.2-.8 2.5l-1 .6s-.4-.4-.3-.8c0-.4-1.6 1.1-1.6 1.1s-1-2.4 0-2.4c0 0-1.8-.1-2.1 2 0 0-1.3.1-2.4.5-1.2.4.9 1.2.9 1.2s-1.9-.3-2.9.2l.7.9s-.7-.7-2.3-.1c-1.7.5.4.8.4.8s-1.7-.4-2.6 0c-.9.3.3 1 .3 1s-3.1-1-3.6-.7 1 1.8 1 1.8-1.9.5-2.3 2l1.8.6s-.8.4-1.2 1.1 1.2.4 1.2.4-2.1 1.5-2.1 2.7c0 0 1.5.5 2.6-.7s.4-.7.4-.7l.1.7s2.2-1 2.2-1.5-.4.8-.4.8l2.2-1.2 1.4 1zm-1.8-29.6-.5-2 4.9.5.8-2s2.3 1 3 1.8c0 0 4.5-1.1 5.9-.6l-.6 2s4 .3 5.4.8c1.2.5-.6 1.5-.6 1.5s4.7.6 6.7 1.8 2 2.3 1 2.6l2.6 4s-4.1.6-4.9 1.6c-.7 1-1.5-1-1.5-1l-.7 2.8S524 185 523 184c0 0-1.3 1.6-.5 2.3l-4.7-3s-2-.3-2 1.5l-2.8-3.3-2.6.7s-.7-1-1.7-1.3c-1-.2-.3 1.3-.3 1.3l-1.5-1.8-1.5-1.8s-1.3 1.8-2.4 1.8-1-1.2-.7-2c.2-.8-3-1-3.4 0 0 0-1-3.9 2.6-5zm-18.4 13-1.6 1.6-1-.5-1.9 2-.4-1-1 1.7-1.6-.6-.8 1.2-1.4-.3s-1.2 1.2-2 1.5c-.8.2 0-1.7 0-1.7s-1.1 1.9-2 1.9c-.7 0-.5-.9-.5-.9s-.4 1.2-1.4 1.4c-.8.1-.5-1-.5-1l-1.5 1.2v-1l-.6-.2s.3-1.7 1-2.1-.7-1.5-.7-1.5l.7-.8s-1.9-.5-1.9 0c0 0 1-2.6 2.3-3.1v-2.9s1.4-1.1 2.6-1.2c1.4-.2-.3-2.2-.3-2.2l3-1.8.4-2.2 4.6.4 1-2 3.7 1 3.1-1.7 2.3 2.7 3.4.3v3l4.5 1.6-.8 3s2.9-.8 3.7-.6l.4 3.3s4.8 1.6 5.1 2.4c0 0-1 .7-1.6 1.5l.6 4-.4.5s-1.4-1.3-2.6-1.5l-1 2-1.6-1h-1s-1-1-1.6-1v-1l-1.4.9s-2.1-1-2.1-1.7v-1.6l-2 1.6s-.6-1.2-.5-1.6-.8 1.1-.8 1.1-1.2-2-1-2.4l-.4 1.6s-2.2-.7-2.5-2.2zm-30.4 9.4s4 2 4 3c0 0 1-2.2.5-3l1.5 1.1s.5-1.9-.1-2.5c-.5-.4 3.4-2 4.3.5 0 0 2.3-2.5-2.2-4.6 0 0-.4-1.5 2.3-1 0 0-.1-1-.8-1.4h2.7s-1.7-1.4-4-1.7-.9-.7-1-1.2c-.2-.4 0-2.2 0-2.2s-1.3-.4-2.4.1l.4-.4s-2.5-.7-3.4-.1c0 0-1.4-.6-1.2-2.1 0 0-1.5-.1-2.1 1.4 0 0-1.3 1.5-3.2 1.5-.3 0-1.7-.7-1.7-.7L449 184h-1.8l.6 1s-2.8-.8-3.6 0c0 0 1 1.6.7 2.7 0 0-2.2.4-2.6.8-.6.4.7.6.7.6s-2.5.8-3 1.6l1 .7-1.2 1.5 1 .2-2.5.8c-.9.3 1.5.5 1.5.5l-1.2 1 1.9.3s-1.5 3.8-1.6 5.6c0 0 2.2-2.7 2.8-2.8l-1.7 2.8s3.2-1 3.5-1.5l.6-1v1.6s1.3-1.8 1.5-2.4c0-.7 2 .6 2 .6v-1l2.3.8q.8-.2.7-.3l1.6-.2-.3 1.3s1.2-.7 1.5-1.5c.2-.8.7 0 .7 0l.8-3zm-13 13.4 1.5 3.2c-1.2 0-3 1.5-3 1.5.2 5.2-1 5-1 5 .3.9-.3 2.6-.3 2.6l7.5-4.5.1-.4 9-4.2.2.5 2.6-1.5 1.8 4.8-1.8 1c.1 1.6 2 4.5 2 4.5l2.4-.6 2.5-1 .1 1c0-.4 2.8-1.3 2.8-1.3l1.2 1.2c1 0 2.7-2.4 2.7-2.4l2 .8s.6-1.1.6-2c0-.7 2.5-.7 2.5-.7l1.7 1.2 2.2-1.8s.7 1.3 1.5 1.5c1 .1 3.3 1.9 3.3 1.5s1-2.4 1-2.4l4 1.6c-.5-1.8-1.8-4-1.8-4s1.9-1.5 1.5-2c-.4-.3-1.5 0-1.5 0l1.1-2.2h-1.5l.5-.6-2.5-1 1.3-2.7c-.5-.6-7-2-7-2l1.4-1.4s-.7-1.1-1.5-1.1-4.7 0-5-.3c0-.4-1.6-1.8-1.6-1.8l-2.5 1.8-1.2-.4-2.2.9s0 1.2-.3.3c-.3-.7-2.3-2.7-2.3-2.7-.4.7-3 3.7-3 3.7s-.3 1.6-1.2.5c-1-1.2-3-2.4-3.2-1.5-.3 1-2 2-2.5 1.8-.3-.3-2.4-.1-2.6.4-.1.7-2.4 2.4-2.4 2.4-1.4-.7-3.7-.3-3.7-.3s-.7 1-.8 2l-4.6 1.2zm43 38.5v-2l2.2 1.5 1.3-1.5 1.7 1.7 1-1.7v2.8l2.6-2.3 1.6.7v-2.2s1.8-3 1-3.6l1.5-.5-3.3-3c-.8-.6-1.8-.6-1.8-.6s-2-2-3.3-2.6c-1.3-.5-2 .6-2 .6s-.8-1.5-2.1-1.8c-1.2-.3-1.2 1-1.2 1s-1-1-2.2-1.4c-1.3-.6-.4 1.1-.4 1.1l-4.4-1.3.6 1.3-4-1 .4 1.5-2.9-.5-.2 1.3-4 .7.7 1.4-2.5-1v1.7l-2.9 1 1 1-4.5 2.4c-.8.5 1.5 1.5 1.5 1.5l-4-.6 1.4 1.4-3.6 3.3 2.6 1.8-1.5 2.3 3.8.7 1.5 2.6 3.1-.6v2.9l4.6-3.6s3.3 3 3.6 2c.2-.7.2-3.3.2-3.3h1.6v-2.5l1.2 1 2.1-3 2.8 3.8 2-4.9zm18.5-11.5-.5-4.3-1.3 1.3.6-4.1-2.1-.4.8-4-1.6-.7.4-2 1.5-1 2.8-2.7h6.3l.8-2 4.6.7c.7.9 3.1-1.7 3.1-1.7h1l1 2s3.3-.5 4.8.6l-1.8 2.5 3.4.2 2.2.5 2.4-.7 3-.2.8 1.2h2.9l-1 1.1 3.7 1.8-.7.7s2 .8 3.6.8h.7s.8 1.8-.3 2.5c0 0 1 2.6 3.4 3 2.2.5 2.2.5 2.5 1.1.3.5 0 3-2.5 3v2.6s-2 1.8-2.3 2.6l-1.5-1s-1.4 1.5-1.4 2.5c0 0-3.3-4.4-4.5-4.6-1.4-.2-1 2.5-1 2.5l-3.7-3-.5 2-3-2.5-1.8 1.2-3.2-3.3-3.2.4 1.3-1.6h-3.8l-.8-3.3-.6 2.7-2.2-1.5-3 3.2q-.1.2-.8-1.9c-.5-1.5-1.8 1.8-1.8 1.8l-1-2.4-1.3 2.4s-1-1.8-2.1-2.4c-1-.4-2 2.9-2.3 4.4zm.6 10 .2-1.5 5.4-2.1 4.6-1.7 2.2-1 1 1.7 1.4-2.5 2 2.6 1.2-1.4 1.8 1.3h1.6l.2 2s3.8.3 4.1-.4c.3-.8.8 2.5.8 2.5l3.6.5.7 4s1.8 3.9 1.3 5.4-2-2-2-2-.3 2.8-.6 3.6-4.8-.8-4.8-.8l-2 3.8s-2.1-3-3-3c-1.1 0-1.1 3-1.1 3l-4.4-5c-1.2-1.6-1.5 1.4-1.5 1.4s-2-3.3-2-4.2-1.8-2.1-1.8-2.1-3.1 3.6-5.4 4.5c0 0 .3-2.2-.5-3-.7-.8-3 1.5-3 1.5s-1.6-3.5 0-7.1z"/>
    <path id="bz-path8" stroke="#004b00" d="m530.6 188.6.4 1.9s1.7-.4 2.9-.3c0 0-.3 1.5-.7 2.2 0 0 2.3-.4 3.3.3l-.4 1.1 2.6 1.1-2.4 2s4 1.5 4.7 2.6c0 0-2.6 1.8-3 1.7s0 .8.6 1.6h-2.2s.9 2 .8 2.7-3.6.6-3.6.6m13.7-5.2s.6-3.8-.4-4.7c0 0 2.5 2 4 2.2 1.8 0 0-3.2 0-3.2s2.4 1.3 3.5 1.6c1.1.1-.9-2.4-.9-2.4s.7-1.3 2.6-.1m-44.2-15.1s.1-.9-.2-1.3c-2.3-3.2 2.3 2.3 3.3 2.5m4.4 0s1.5 1.2 2.2 1.2-.4-3-.8-3.5c-.4-.3 2.7 1.3 3.9 1.5s1.3-2 1.3-2 3.5.6 4.3 1.1m-24.4-.7-.4-2.8m-23.6 12.3c-.1-.3 1-2 .5-2.8 0 0 .7.6 1.3.7s.4-2.2.4-2.2l.8.3s2-1 1.6-1.8c-.4-.7 1.3 1.2 1.3 1.2s1.2-1.2 1.2-1.6 1.3 1.1 1.3 1.1 1.4-.3 1.4-1.1 1.8.3 1.8.3.8-1 .7-1.8m-19.2 9.5s.9-2 0-3.3m-23 9.6c0-1 .5-3.5 0-3.9s1 .4 2.1.7m9-.4c-1.1-1.1-1.8-1.7-3.6-1.7m-15.6 8c.2-.6.7-2.2.4-3.2m24.3 50.4 1.3-2.6 1.5 3.6 1-2.3.4.8 2.3-2.5 2.5 3.7m39.6-16 1.6-3.2 2.2 1 1-3 2.3 1.4 1.3-3 2.6.7.2-2s1.8 1 2.2 1.7c.6.8 0-2.5 0-2.5l2.1.9s1.6-1.5-.5-2.4m-8.7 6.3 2.3 3.3 2-2.2 1.6 3.7 2.2-1.3 3.1 1.8 1.5-1.1 3.4 2.5 1.4-3 3 1 2-3.5m-82-8.9s1.3-2.3.8-3.3 2.8 1.8 2.8 1.8.8-2.3.3-3.3 3.8 3 3.8 3 .7-3.5 0-4.3c-.8-.7 4.2 1 4.2 1s2-.5 1.2-1.5 3.3 1.5 3.3 1.5 1-2.6 0-3.5c-1-1 3 1.2 3 1.2l-1.5-2.8 3.4.2-.3-3m29.4 43.9 2.2-1 1.9 1.8 2-3.3 2.6 2.5.4-2.5 2.8 1.1.6-1.5 3 1.6.3-2.2 1.5.4.3-1.5" class="bz-C"/>
    <path id="bz-path9" fill="#358b03" stroke="#060" d="M400.5 362.5c1.4.6 0-4.7.4-6.7.6-2 4.7 5.2 6.7 6.1 2 1 14.8-5 14.8-5l3-5.7 1.7 4.6s3.5-4 4.5-5.6 0 3-1 4.6 3 2 2.5 5.1 4.1-2 4.1-2l11.8 1s2-7.2 5.1-11.2l1 4.5 4.8-5a64 64 0 0 0 40.2 38.3c22-8 33.2-22.2 39-35.6l6.6 6.7s5.2-1.5 6.1-2a69 69 0 0 1 15.1 5.3c1 .8.3-3.3.3-3.3s5.6 1 5.1 4c0 0 1.3-2.8 2.3-3.2s3.5 2.5 4.1 3.6c.5 1 12.5 2.4 14.2 3.5 0 0 1.4 1.5 1.4 2.5l4.5-.2s-1.5.7-1.5 2.3q0 2.4-2.3 3.5c-1.5.8 0 1.4 2 1.6 2.1.3 0 2.8-4 4.3 0 0-1 2.3.7 3 0 0-3.5.4-4-.7 0 0-1.3 2.4-1.3 3.6 0 0-3.8-1.2-4.9-1.8 0 0-1.5 1.5-.4 2.3 0 0-7-.8-8.3-3.3 0 0-2.5.7-2 1.6 0 0-4.8-3.3-6.4-3.3l-1 1.7s-3.3-2-4.4-2c-1 0-.2 1.5-.2 1.5l-4.6-2.9-1.8 2.9s-3.8-1.8-4.9-2.6c-.9-.7-1.2 1.6-2 1.8 0 0-1.5-2-3.6-1.8 0 0-.7 2.6-.4 3.4l-7-1.6c-1-.2-.4 1.3 0 2.3 0 0-4.3-1.2-5.3-2l-.3 2s-3.6-.3-4.3-1l-2.3 3.1H521l-.8 2.8s-5.7-2.2-6.3-.7c-.4 1-.3 2.5-.3 2.5l-4.8-.4-1.4 2.6s-6.4-2.4-7.9-1.5c0 0-3 2-4.3 2.4-1.7-1.7-3-2.3-4.6-2.9-1.7-.2-5.3 2-6.7 1.3 0 0 0-1.8-1-2.3s-2.8-.5-3.5.8l-2.1-3c-1.2-2.2-3 .1-3 .1l-.3-2.5-3.5-.2c-2.1-.3-2.6-2.1-2.6-2.1s-5.4.5-6.2.2l1.4-1.2s-7.5 1.5-9 1c-1.6-.5 1.7-2.6 1.7-2.6l-8.1-2c-1.3-.3-8.7 1.2-9.7 1.2s-1.5-1.7-1.5-1.7-1.8 1.5-3.4 2c0 0-1.2-3-.4-3.3 0 0-4.9 1.3-5.2 2.6 0 0-1.2-2-1-2.9 0 0-2.3 3.6-3.3 4.4-1 .7-.2-1.8-.2-1.8s-2.9 3.6-4 3.9v-2.6s-8 4.4-10.4 3.8c0 0 0-1.8.8-2.3l-5.1-.3q-2-.4-4.1-1c-1.2-.2 1.8-1.5 3.9-1 0 0-5.7-2-7.4-1 0 0-.8-2 2.3-2.8 0 0-4-3.8-6.2-3.6 0 0 2.5-1.5 4.6-.7 0 0-2.3-6.5-3.9-7.2 0 0 5.5-1 7-.2z"/>
  </g>
  <g id="bz-g11" fill="#ffe682" transform="translate(-80)scale(.8)">
    <path id="bz-path10" d="M500 419.4c21.4.2 34-7.6 41-12.3 16.2-10.9 19.7-11.3 22.3-11.1 3 .3 7.5 1.3 7.7 4 .3 4-6.4 5.9-10.1 5.9-4 0-14.1-2.6-14.1-2.6l-2.7 1.8c1.8.9 22.6 7.8 26.6 1.3 4.1-6.7 8.2-17.4 8.2-17.4s-4.6-8.2-14.7-8.2c-10.3 0-20.3 6.5-26.9 11.3s-15 11.5-37.2 11.5-30.7-6.6-37.3-11.5c-6.7-4.8-16.7-11.3-26.8-11.3-10.3 0-14.8 8.2-14.8 8.2s4 10.7 8.1 17.4c4 6.5 24.8-.4 26.6-1.3l-2.5-1.8S443 406 439.3 406c-3.9 0-10.5-1.8-10.3-5.9.2-2.7 4.7-3.7 7.7-4 2.7-.2 6.1.2 22.4 11.1a70 70 0 0 0 41 12.3"/>
    <path id="bz-path11" d="M465.7 394.2s0-1.8-.3-4.5c-.4-3.4-2.4-4.2-4-3.8-1 .4-3.1 3-3.1 3l-3-1.7c.8-.9 5.2-3.5 6.2-3.5s14 5.3 18.3 8.9c1 1 1.8 6.8 1.2 8.7-7-1.8-11.6-4.4-15.3-7zm-6.3 13.3s-2.8 2.8-3 8c0 6.2 4.5 6.5 7.4 6.4 3.5 0 6.4-2 6.3-8.6 0 0-5.8-2.5-10.7-5.8m75-13.3s0-1.8.3-4.5c.4-3.4 2.3-4.2 4-3.8 1 .4 3 3 3 3l3-1.7c-.8-.9-5.1-3.5-6-3.5-1.1 0-14.2 5.3-18.4 8.9-1 1-1.7 6.8-1.2 8.7a44 44 0 0 0 15.3-7zm6.2 13.3s2.9 2.8 3 8c.2 6.2-4.4 6.5-7.3 6.4-3.6 0-6.3-2-6.3-8.6 0 0 5.8-2.5 10.6-5.8"/>
  </g>
  <path id="bz-path12" fill="#171696" stroke-width=".8" d="M282.6 322.7s-8.1 2-11.2 2-8.4-1.4-8.2-4.7c.2-2.1 3.8-3 6.2-3.2 1.8-.1 4.2 0 13.2 5.9m74.8 0s8.2 2 11.3 2c3 0 8.3-1.4 8.1-4.7-.1-2.1-3.7-3-6.1-3.2-1.9-.1-4.2 0-13.3 5.9m-64.8-7.3-2.5-1.8-3.5-2.4s1.7-2.1 2.5-2.4c1.3-.4 3 .2 3.2 3 .3 2.1.3 3.6.3 3.6M287 337c1.5.8 3 .7 4 .6 2.9 0 5.1-1.6 5-6.9 0 0 3.5 1.8 9.2 3.1 0 0 1 1.2 1.1 3.5.2 1.9-1 4-2.6 3.8l-12.8-2.3c-2.8-.5-3.9-1.8-3.9-1.8m60.5-21.5 2.5-1.8 3.4-2.4s-1.7-2.1-2.5-2.4c-1.3-.4-2.8.2-3.1 3zM353 337c-1.4.8-3 .7-4 .6-2.8 0-5-1.6-5-6.9 0 0-3.5 1.8-9.1 3.1 0 0-1 1.2-1.2 3.5-.1 1.9 1.2 4 2.6 3.8l12.9-2.3c2.8-.5 3.8-1.8 3.8-1.8"/>
  <g id="bz-g20" class="bz-C" transform="translate(-80)scale(.8)">
    <g id="bz-g19" class="bz-B bz-M">
      <path id="bz-path13" d="M500 419.4c21.4.2 34-7.6 41-12.3 16.2-10.9 19.7-11.3 22.3-11 3 .2 7.5 1.2 7.7 3.9.3 4-6.4 5.9-10.2 5.9s-14-2.6-14-2.6l-2.7 1.8c1.8.9 22.6 7.8 26.6 1.3 4.1-6.7 8.2-17.4 8.2-17.4s-4.6-8.2-14.7-8.2c-10.3 0-20.3 6.5-26.9 11.3s-15 11.5-37.2 11.5-30.7-6.6-37.3-11.5c-6.7-4.8-16.7-11.3-26.8-11.3a18 18 0 0 0-14.8 8.2s4 10.7 8.1 17.4c4 6.5 24.8-.4 26.6-1.3l-2.5-1.8s-10.3 2.6-14 2.6c-4 0-10.6-1.8-10.4-6 .2-2.6 4.7-3.6 7.7-3.9 2.7-.2 6.1.2 22.4 11.1a70 70 0 0 0 41 12.3z"/>
      <path id="bz-path14" d="M453.3 403.3s-10.2 2.6-14 2.6-10.5-1.8-10.3-6c.2-2.6 4.7-3.6 7.7-3.9 2.3-.2 5.3.1 16.6 7.3zm93.5 0s10.2 2.6 14 2.6 10.5-1.8 10.2-6c-.2-2.6-4.6-3.6-7.7-3.9-2.3-.2-5.2.1-16.5 7.3zm-81.1-9-3-2.3-4.4-3s2-2.7 3.1-3c1.6-.5 3.6.3 4 3.7.3 2.7.3 4.6.3 4.6z" class="bz-G"/>
      <path id="bz-path15" d="M465.7 394.2s0-1.8-.3-4.5c-.4-3.4-2.4-4.2-4-3.8-1 .4-3.1 3-3.1 3l-3-1.7c.8-.9 5.2-3.5 6.2-3.5s14 5.3 18.3 8.9c1 1 1.8 6.8 1.2 8.7-7-1.8-11.6-4.4-15.3-7m-6.3 13.2s-2.8 2.8-3 8c0 6.2 4.5 6.5 7.4 6.4 3.5 0 6.4-2 6.3-8.6 0 0-5.8-2.5-10.7-5.8z"/>
      <path id="bz-path16" d="M461.8 409s-2.3 2.3-2.6 6.2c-.2 3 1.8 4.7 4.3 4.5 3.6-.1 5-5 3.3-7.8z"/>
      <path id="bz-path17" d="M458.8 421c1.8 1.1 3.8 1 5 1 3.5-.2 6.4-2.2 6.3-8.7 0 0 4.3 2.2 11.5 3.9a8 8 0 0 0 1.3 4.3c.3 2.3-1.3 4.9-3.2 4.7l-16-2.8c-3.6-.7-5-2.3-5-2.3zm75.6-26.7 3-2.3 4.4-3s-2.1-2.7-3.2-3c-1.6-.5-3.5.3-3.9 3.7l-.3 4.6z" class="bz-G"/>
      <path id="bz-path18" d="m534.4 394.2.3-4.5c.4-3.4 2.3-4.2 4-3.8 1 .4 3 3 3 3l3-1.7c-.8-.9-5.1-3.5-6-3.5-1.1 0-14.2 5.3-18.4 8.9-1 1-1.7 6.8-1.2 8.7a44 44 0 0 0 15.3-7m6.2 13.2s2.9 2.8 3 8c.2 6.2-4.4 6.5-7.3 6.4-3.6 0-6.3-2-6.3-8.6 0 0 5.8-2.5 10.6-5.8z"/>
      <path id="bz-path19" d="M538.3 409s2.2 2.3 2.6 6.2c.3 3-1.8 4.7-4.4 4.5-3.6-.1-4.9-5-3.3-7.8zm3 12c-1.8 1.1-3.8 1-5 1-3.6-.2-6.3-2.2-6.3-8.7 0 0-4.4 2.2-11.4 3.9 0 0-1.2 1.4-1.4 4.3-.2 2.3 1.4 4.9 3.2 4.7l16-2.8c3.6-.7 4.9-2.3 4.9-2.3z"/>
    </g>
    <path id="bz-path20" stroke="#fff" stroke-width=".7" d="M480.8 418.9s3.1 2.3-.7 5.1m-8.7-6.6 9.6 4.2m-8-2 7 3m-4.5-4.8 5.3 2.3m38.6-1.2s-3.3 2.3.5 5.1m8.8-6.6-9.6 4.2m8-2-7 3m4.5-4.8-5.2 2.3"/>
  </g>
  <path id="bz-path21" stroke-width=".5" d="m274.6 311.7.2.6v.6a2 2 0 0 1-1 1.3q-.6.4-1.6.3-.5 0-.8-.3l-.7-.5-.3.3h-.3l.3-2.3h.4l.1.9.3.7.5.5.7.3h.5a1 1 0 0 0 .8-.5l.1-.4v-.8l-.6-.6-.7-.4-.6-.4q-.5-.3-.7-.8-.3-.4-.1-1l.3-.7.5-.5.7-.2h.8q.4 0 .8.3.3 0 .5.4l.3-.3.4.1-.4 2.1h-.4v-.8l-.3-.7-.4-.5-.7-.3-.7.2q-.4.2-.5.6v.7l.6.6.6.4.6.3.4.4.4.4m9.3 1.3h-.3l-.5-.2-.4.3-.4.7-1.4 2.5a2 2 0 0 1-1.5 1h-.8l-.8-.4-.8-.6-.5-.8-.1-.7q0-.4.2-.7l1.8-3.4.1-.2v-.3l-.3-.3-.2-.1.1-.3 2.4 1.3-.1.3-.3-.1-.3-.1h-.3l-.2.3-1.7 3.1-.2.5v.6q0 .3.2.6 0 .3.6.6l.9.2q.6.1 1.1-.4l.4-.4 1.2-2.4.4-.7v-.5l-.3-.4-.3-.3.1-.2 2.4 1.3zm3.4 5.9.1.6q0 .4-.2.8l-.5.6-.8.2h-.7l-.8-.4-2.7-1.6.2-.2.6.2h.2l.2-.3 2.3-4 .1-.3v-.3l-.3-.2-.2-.2.2-.3 2.6 1.5.6.4.4.5q.3.7 0 1.3-.4.6-1 .7h-.6l-.6-.1.5.5zm-.5-1.5.4-.2.3-.5q.3-.5.2-.8 0-.5-.7-.8l-.3-.2-.3-.1-1.3 2.1.5.3.7.3zm-.5 2.2q.3-.5.1-1 0-.6-.7-1l-.5-.2-.3-.1-1.1 2v.5q0 .2.5.4t1.1.2q.6-.2 1-.8zm14.7 3.3h-.4l-.4-.1-.4.3-.3.7-1.2 2.6q-.1.6-.5.8l-.8.4h-.9l-.8-.2-.9-.6-.5-.7a2 2 0 0 1 0-1.4l1.4-3.5v-.6l-.3-.2-.2-.2.1-.3 2.5 1.1v.3h-.4l-.3-.1h-.3l-.1.3-1.4 3.3-.2.5a1 1 0 0 0 .3 1.2q.2.3.7.5l.9.2q.3 0 .6-.2l.5-.4.3-.4 1-2.5.3-.8v-.5l-.4-.3-.4-.2.2-.3 2.5 1-.2.3m7.2 8.4-2.8-.8v-.3h1.1l.1-.3 1.3-4.6-3.8 4.7h-.2l-.5-6-1.1 3.7-.2.8.1.5.4.3.4.2-.1.3-2.6-.8v-.3h.5q.3 0 .4 0t.3-.3l.4-.8.9-3.2v-.8l-.4-.3-.3-.2v-.3l2.2.6.5 5.2 2.7-3.4.2-.5.2-.2 2 .6v.3l-.7-.1-.2.1-.1.3-1.4 4.5v.3l.2.2.2.2.4.1zm6.8-2 .4.5q0 .3 0 .8l-.2.8-.6.4-.8.3h-.8l-3-.4v-.3h.6l.2-.2.1-.3.6-4.6v-.3l-.2-.2-.3-.2h-.3v-.4l3 .4.8.2q.3 0 .5.3l.4.5q.2.3.1.6a1 1 0 0 1-.6 1q-.2.2-.5.3l-.6.1.6.3q.3 0 .6.4zm-1-1.2.3-.4v-.5q.1-.5-.1-.9-.3-.3-.9-.4h-.7l-.4 2.4h1.3q.3 0 .5-.2zm.3 2.2q0-.6-.2-1-.4-.5-1.1-.5l-.8-.1-.3 2.3.2.4q.2.2.6.3.8 0 1.1-.3.5-.3.5-1.1zm9 2h-1.8l-1.1-1.5-1-1.4h-.7v2.3l.2.2h.3l.4.1v.3h-2.8v-.3h.6l.2-.3v-5.3l-.2-.1-.3-.1h-.3v-.4h3l.8.1q.4 0 .7.3l.5.5.1.7v.6l-.4.5-.5.4-.7.2.8 1.1.8 1 .7.7h.3l.3.1zm-2.5-4.8q0-.6-.4-1-.3-.3-1-.3h-.7v2.8h.6q.6 0 1-.4t.5-1.1zm10 4.4-2.7.2v-.4l.6-.1.2-.2v-.2l-.7-1.4-2.3.2-.2.5-.1.5v.5q0 .1.2.3h.7v.4l-2.4.2v-.4h.2l.6-.5.2-.3.8-2.9 1-2.8h.3l2.6 5.4q0 .2.2.3l.2.2h.3l.3.1zm-2.8-2.5-1.2-2.4-.8 2.5zm12.2-5.2-.3.1-.6-.6-.7-.3h-.3l-.5.2-1 .3.6 2.5.8-.2.5-.2.2-.3.1-.4v-.4l.3-.1.7 2.5h-.3l-.3-.4-.2-.3-.4-.1h-.5l-.8.3.6 2.1.2.3.2.1h.7v.3l-2.7.7v-.3l.3-.1.2-.2q.2 0 .2-.2v-.3l-1.3-4.5v-.3h-.3l-.4-.1h-.3l-.1-.3 5-1.3zm7.4-.5.7 1.8-4.7 2.2-.1-.3.3-.1.2-.2.1-.3v-.2l-2-4.2-.2-.3h-.9l-.2-.2 2.5-1.2.2.3-.3.1-.3.2v.6l1.9 4 .2.3.3.2h.3l.6-.3.3-.1.3-.2.2-.2.1-.2.2-.8v-.8zm3.5-6.5 1.1.6 1 1.1q.4.7.4 1.3v1.3l-.5 1.1-1 .9a3 3 0 0 1-3.5-.3l-1-1-.4-1.4v-1.3l.5-1.1 1-.8q.5-.4 1.1-.4zm1.7 4.4-.1-1a5 5 0 0 0-1.3-2.1l-.8-.6q-.5-.2-.9-.2t-.8.2-.7.7l-.2 1 .1 1 .5 1 .7 1 .8.6 1 .2.8-.3.7-.6zm8.2-4.5-1.5 1-1.7-.6-1.7-.5-.5.3 1.2 1.7.2.2h.5l.3-.2.2.2-2.2 1.6-.2-.2.2-.2.2-.3v-.5l-2.8-3.8q0-.2-.2-.2h-.3q-.2 0-.5.2l-.2-.3 2.5-1.7.7-.4.7-.2.6.1.6.5.3.6v.6l-.2.6-.4.6 1.3.4 1.2.4 1 .1.2-.1.3-.1zm-4.8-2.5q-.3-.5-.8-.6t-1 .3l-.7.4 1.6 2.3.5-.3q.6-.4.7-1t-.3-1.1zm10.2-1.6.6 1.9-5.2 1.9v-.3l.3-.2.2-.2.2-.2v-.3l-1.7-4.4-.1-.2-.3-.1h-.7l-.1-.2 4.8-1.8.5 1.4-.3.2-.6-.6q-.5-.2-.7-.2l-.4.1-.4.2-1 .3 1 2.4.6-.2.5-.3.2-.3v-.8l.3-.1.9 2.4-.3.1-.3-.4-.3-.3h-.8l-.7.3.6 1.8.2.5.3.1h.3l.6-.2h.4l.4-.3q0 0 .3-.2l.2-.2.2-.8v-.7zm5.6-4.5.8 1q.4.6.4 1.3v1.5l-.6 1.1a3 3 0 0 1-2 1.2 3 3 0 0 1-2.5-.6l-.8-1-.4-1.3v-1.5l.6-1.1q.8-1 2.1-1.2h1.3zm-.1 4.7.2-1V311l-.3-1.2-.5-1-.7-.4-1-.1q-.5 0-.8.3l-.6.8-.2 1v1.1l.3 1.2.5.9.7.5q.4.2 1 .1.5 0 .8-.3z" class="bz-B bz-G"/>
  <path id="bz-path22" fill="#9dc9e2" stroke-width=".8" d="M291.8 285.9a54 54 0 0 1-4.6-10.1l32.9-29 32.9 28.9c-1.2 3.3-2.7 7-4.8 10.3l-.3.5-2.5-1s-1 1-1.9 1c-1.1.2-2-1-2-1s-1.5 1.3-3 1c-1.4 0-2-1-2-1s-1.5 1.2-2.6 1c-1-.2-1.7-1-1.7-1s-.9 1.2-2.2 1c-1.2-.2-2.3-1-2.3-1s-2 1-3.2 1c-1.2.3-2.2-1-2.2-1s-1.6 1-2.2 1-3-1-3-1-2.3.8-3.1.8-3.1-1-3.1-1-2.2.6-3.2.6-2.6-.6-2.6-.6-1.8.8-2.8.6l-2-.6s-1.9.8-3.2.6c-1.2-.3-2.6-1-2.6-1s-.3.5-2.6 1z"/>
  <g id="bz-g32" class="bz-B" transform="translate(-80)scale(.8)">
    <g id="bz-g24" class="bz-M">
      <path id="bz-path23" d="M500 267v41.5L459 345c-4-11.6-4.3-22-4.3-26.4V267H500" class="bz-F"/>
      <path id="bz-path24" fill="#ffe682" d="M500 267v41.5l41.1 36.4c4-11.6 4.3-22 4.3-26.4V267H500"/>
    </g>
    <g id="bz-g31" class="bz-D">
      <path id="bz-path25" d="M473.6 348.7c3 1.7 2 1.2 8.4 3.4a60 60 0 0 0 20.1 2.7c7.8 0 12.1-.6 14.6-1.3s3-1.8 3-1.8l-6.3 6.5s-25.5 1.4-30.2-1.6c-1.8-1-5.7-4.1-9.6-7.9z" class="bz-E"/>
      <path id="bz-path26" d="M511 336.6s8.2 4.7 0 13.6m-36.7-1 11.8-11.2-1.3 15m6.1 1.1v-24.9m20.2 25.1v-26.6m-10.2 27v-28.5" class="bz-C bz-K"/>
      <g id="bz-g30" class="bz-G">
        <path id="bz-path27" fill="#d90f19" d="m491 330.6-5.4 1.7 5.3.6v-2.3m10-4-5.6 2.2 5.6.1zm10.2 1.6-5.6 2 5.6.4zm3.3 12c-.3-1 3.3-1 3.3-1s1 3.8 0 6.2l-3-.6s.3-2.5-.3-4.5z"/>
        <g id="bz-g29" class="bz-F">
          <path id="bz-path28" d="m476.1 347.7 10-9.7-.5 5.8s-5.1 3.3-5.1 5.7l-4.4-1.8m5.3 2s1-3 4-4.6l-.4 6zm14.4-16.9s4-.5 7.1 0c0 0-.5 4.1 0 4.9 0 0-5.6-1.3-7.9.7 0 0-.7-3.8.8-5.6zm-8.7 1s4.1-.5 7.2 0c0 0-.8 4.7-.3 5.4 0 0-4.6-2.6-6.9-.5 0 0-1.5-3.1 0-4.8z"/>
          <path id="bz-path29" d="M486.8 339.2s4.1-.5 7.2 0c0 0-.5 4 0 4.8 0 0-5.4-1.2-7.6.8 0 0-1-3.8.4-5.6zm8.2-.8s5.9-.7 9-.2c0 0-1.3 3.3.2 5.6 0 0-6.3-1.7-8.7.3 0 0-2-3.8-.5-5.7zm-8.6 6.4 7.9.6s-.8 5.8-.3 6.5c0 0-6.4-1.5-7.6.6 0 0-2.1-5.3 0-7.7zm8.9 0s6.8-.5 10 0c0 0-1.8 4.4.2 8.2 0 0-9-2.6-10.2-.5 0 0-2-5.3 0-7.7zm10.4-12s4.1-.5 7.2 0c0 0-.5 4.1 0 4.9 0 0-5.6-1.3-8 .7 0 0-.7-3.8.8-5.6zm0 5.6s4.1-.4 7.2 0c0 0-.5 4.1 0 4.9 0 0-5.6-1.2-8 .8 0 0-.7-3.8.8-5.6zm.5 6s4.1-.6 7.2 0c0 0-1 6.3-.5 7 0 0-4.7-2.1-6.9-.2 0 0-1.3-5 .2-6.9z"/>
        </g>
      </g>
      <path id="bz-path30" d="M514.7 344.8s1.3 4.9 3 5.4l-2.3 2.8s-2.7-2-3-4.3c0 0 1.8-2 2.3-3.9z" class="bz-F"/>
    </g>
  </g>
  <path id="bz-path32" fill="#006ac8" stroke-width=".8" d="M348 286.3a52 52 0 0 1-28 22 52 52 0 0 1-28.2-22.3v-.1c2.4-.5 2.7-1 2.7-1s1.4.8 2.6 1 3.3-.6 3.3-.6q.1.1 1.9.6c1 .2 2.8-.6 2.8-.6s1.5.6 2.6.6c1 0 3.2-.6 3.2-.6s2.3 1 3 1c1 0 3.3-.8 3.3-.8s2.3 1 2.9 1 2.2-1 2.2-1 1 1.3 2.2 1c1.3 0 3.2-1 3.2-1s1 .8 2.3 1 2.2-1 2.2-1 .7.8 1.7 1 2.6-1 2.6-1 .6 1 2 1c1.5.3 2.9-1 2.9-1s1 1.2 2.1 1c.9 0 2-1 2-1z"/>
  <g id="bz-g40" class="bz-B" transform="translate(-80)scale(.8)">
    <path id="bz-path33" d="M533.4 360.4c-1.4 0-1.6-.9-1.6-.9s-1.9 1.7-3.7 1.4c-2-.3-2.8-1.6-2.8-1.6s-2 1.7-3.3 1.4c-1.3-.2-2.3-1.2-2.3-1.2s-1.2 1.5-2.8 1.2c-1.6-.2-3-1.2-3-1.2s-2.6 1-4.2 1.4-3-1.6-3-1.6-3.7 1.3-4.4 1.3c-.9 0-3.6-1.3-3.6-1.3s-1.8 1.2-2.8 1.2c-1.1 0-4.2-1.3-4.2-1.3s-2.8.7-4.2.7a12 12 0 0 1-3.3-.7s-2.4 1-3.8.7l-2.4-.7s-2.6 1-4.2.7-3.5-1.3-3.5-1.3-.3.7-3.5 1.3" class="bz-C bz-D"/>
    <g id="bz-g35" fill="#006ac8" stroke-width=".6">
      <path id="bz-path34" d="m471.7 365.4-.7.2.6-.1-.7.2c2.8 4 7 7.7 11.4 10.7s9.4 6.4 18 9c9-3.6 11.3-5 17.2-8.9 5.9-4.3 9-7 12.2-11.3-2.5 1.4-2.2 1.4-3.5 1.3a5 5 0 0 1-2.3-1.3s-1.2 1.4-2.8 1.3c-1.6-.3-3-1.3-3-1.3s-2.2 1.4-4.3 1.3c-1.6 0-2.9-1.5-2.9-1.5s-3.7 1.2-4.5 1.2-3.5-1.2-3.5-1.2-1.8 1.2-2.8 1.2c-1.2 0-4.2-1.4-4.2-1.4s-2.8.8-4.2.8c-1.3 0-3.3-.8-3.3-.8s-2.4 1-3.8.8l-2.4-.8s-2.6 1-4.2.8c-1.6-.3-3.6-1.3-3.6-1.3s-.2.6-2.7 1.1z"/>
      <path id="bz-path35" d="M500.3 385.3c9.2-3.8 11-4.9 16.5-8.3-1 0-3.8-1-2.8-1.2 0 0-1.1 1-2.2 1-1 0-4.1-1.3-4.1-1.3s-2.9.7-4.2.7-3.3-.7-3.3-.7-2.5 1-3.8.7l-2.4-.7s-2.7 1-4.3.7c-1.6-.2-3.5-1.3-3.5-1.3s-2.3 1.3-3.8 1.4a52 52 0 0 0 17.9 9z"/>
    </g>
    <g id="bz-g39" class="bz-D">
      <path id="bz-path36" d="M542 313.8c-.8.6-2.2.8-2.2.8l-5.3-6.4-24.7-30.4 2.5-2.5 22.3 26.1c.7.7 4.6 4.8 8.3 9.6 0 0 .3 1.9-.8 2.8z" class="bz-E"/>
      <path id="bz-path37" d="m518.2 281.7-4-4.8s-3 .4-3.6 2c0 0-2.2 3.6-8 4 0 0 1.7 6.7 8.4 10.3 0 0 2.5-6.9 4.8-8.1 0 0 2.5-1.8 2.4-3.4z" class="bz-H"/>
      <path id="bz-path38" d="M508.2 302.7q-.6-.3-2 .5c-.7.5-1.7.3-1.6-.7.1-.8 0-.7 1-1.4a6 6 0 0 1 4.8-.5l-2.2 2.1m27.1-27c-.2-.6-.4-1.3.3-2.1s.7-2.1-1-1.4c-1.6.6-2.2 2.4-.8 5.2z" class="bz-E"/>
      <path id="bz-path39" d="m507.7 303.3 28-28 7 7.5s-1.4-.6-2-.2c-.5.4.6 1.8.6 1.8s-1.3-.5-2 0c-.6.3 0 2 0 2s-1-1-1.6-.6c-.5.4 0 2.2 0 2.2s-1.5-.5-2 0c-.3.3 0 2 0 2s-1.4-.8-2.2 0c-.8.7.4 1.7.4 1.7s-2-.7-2.7.4.1 2.2.1 2.2-1.5-.8-1.9-.4 0 2.2 0 2.2-1.3-.8-2.2.2c-.8 1 .1 1.9.1 1.9s-1.2-.8-1.9-.4.2 2.2.2 2.2-1.2-.9-2 0c-1 1 0 1.9 0 1.9s-1.1-1-2.2 0c-1 1 0 2 0 2s-1.5-.7-2 0c-.7.8.1 1.9.1 1.9s-1-.7-1.9-.3c-.7.4 0 2 0 2s-1-1.2-1.6-.5c-.5.7.1 2.3.1 2.3s-1-1.3-1.6-.6c-.6.6.4 2 .4 2s-1.9-.8-1.4-.8z" class="bz-H"/>
    </g>
  </g>
  <path id="bz-path40" fill="#4d4d4d" stroke-width=".8" d="m347.3 222.1-1.7 1.8.4 6s.3-1.8.9-.5c0 0 .1-1.5.5-1.3-.3-.1 0-6 0-6m-3.3 3.3-1.3 1.2.4 6s.4-2.3 1-.4l-.1-2zm-13.6 13.5-1.2 1.2.3 3.7s.3-2.4.9-.5l-.2-2z"/>
  <path id="bz-path41" stroke="#4d4d4d" d="M329 223.8c.8.8 3.1 3.9 3.1 3.9m-2-2.2c-.2.4-.5 1.7-1.2 2.4m1.5-2.1c0 .3 0 1.3-1.1 2.3m1.5-1.9q-.2.9-.6 1.3m.8-.8q0 .5-.3.7m-2.5-2.2c-.3.4-2.5 1.8-3.7 2.3m3-1.4c-.2.3-1.6 1.4-2.4 1.7m2.3-.8-1.9 1.3m1.4-.4-1.1 1" class="bz-C bz-N"/>
  <g id="bz-g44" class="bz-B" transform="translate(-80)scale(.8)">
    <path id="bz-path42" d="M461.7 270.5q-.9-.1-2.6 1.4c-2 1.8-2.6 3.6-.1 5.7l12.5 11.4c1.8 1.7 4.3 2 5.4 3l12.7 13q2.6 1.8 1.4 3.5c-1 1.9 0 2.2.3 2.2 1.8.4.8-.7 1-1.2.3-1.2 1.6-2.3 2.5-2.7q1-.4 1.1.2c.6.2 1.1-.6.3-1.5-.7-1-1.7.6-3 .2 0 0-1.8-1.1-2.3-2l-3.3-3.2c-.8-1-4-5.2-8.8-10-1.4-1-1-4.4-2-5.4-.2-.8-9.8-10.3-13.2-13.7q-1-.9-1.9-1z" class="bz-D bz-E"/>
    <path id="bz-path43" stroke-width=".5" d="m462.4 275.6 13 12.9" class="bz-C"/>
    <path id="bz-path44" stroke-width=".5" d="m480 281.5 1.1-2.5c.2-.4 3.7-6 5.4-6.2l11 8c0 .5-4.8 7.6-5.2 7 0 0-12.8-5.3-12.3-6.3z" class="bz-H"/>
  </g>
  <path id="bz-path45" fill="#ccb8c8" stroke-width=".8" d="M309.5 226.7c-1.1-1-3.1-1.9-4.7-3l-.7 1.6c.5.6 7.8 4 9 4.6 0 0-1.4-1.6-3.6-3.2"/>
  <g id="bz-g47" class="bz-B" transform="translate(-80)scale(.8)">
    <path id="bz-path46" stroke-width=".4" d="m481 279.5 4.8 3c2.6 1.9 4.3 4 6.3 5" class="bz-C"/>
    <path id="bz-path47" d="m458.9 313.4 24.8-30.7c.5-.4 2.8-.4 3 2l-23.4 32s-2.7-.3-4.4-3.3z" class="bz-D bz-E"/>
  </g>
  <g id="bz-g49" class="bz-C" transform="translate(-80)scale(.8)">
    <path id="bz-path48" stroke="#4d4d4d" stroke-linecap="square" d="M492.1 286q.6-1.1 1.6-2.8c.9-1.3 1.3-1.5 1.8-2" class="bz-N"/>
    <path id="bz-path49" stroke-width=".9" d="M468.7 267h62.7m5.2 0h8.8v51.5c0 10.3-1.5 51.1-45.3 67-44-15.9-45.4-56.7-45.4-67v-51.6h8.9" class="bz-B"/>
  </g>
  <g id="bz-g54" class="bz-D bz-B" transform="translate(-80)scale(.8)">
    <path id="bz-path50" d="M520.9 199q-1.8 0-3.7 3.1c-2.2 4.3-1.7 6.6 5 9.6l25.5 12.4c5 2.5 6.9.2 9.8 1.4l50 25.6c4.4 1.9 6.8 2.5 6.2 4.7-.1 2.8.9 3.2 1.6 3.4 1 .4 1.9.7 2.1-.6q.2-.3-.4-1.1a3 3 0 0 1-.6-2q0-1 .4-1.4.3-.5 1.5-1.8.6-.6 1.2-.7t1 .3l1.3.9c1.7-.1.2-2.5-1-3.4-2.5-1.2-2.8 1.5-5.4 1.2 0 0-4.8-1.8-6.5-3-3.1-1.7-7.5-3.8-8.5-4.9-3.2-.6-27.3-14.1-41-21-1.4-1.2-2.2-5.7-5.1-7.2-.9-1.2-19.3-9.7-29-14.5q-2.6-1.2-4.4-1z" class="bz-E"/>
    <g id="bz-g52" class="bz-I">
      <path id="bz-path51" d="M560.5 221.6c.6-.3.4.6.5.9q.3 2 .8 3.7c.6 1 .8 1.4 1.7 1.9 1.5.8 6 3.3 9.1 1.3q.4-.1.7-.5s-1.2 4 2.7 5.8l14.7 7.7a9 9 0 0 0 .5 6.1q-.5.8.2 1.4a12 12 0 0 1 3.5 5.6s2.8-1.2 2.8-3-1.2-2.8-1.4-4-1-4.5-.6-5.4 2-1.4 2.6-1.8 1.5.4 1.3 1.2c-.1 1-.8.8-1.5 1 0 0 1 1.8.7 3.1l8.8 4.5-1.6 2.2c-.4.6-1.3 9.4-3.9 13.6s-3.4 3-3.8 3.6l-2 1.8c-.6.5-3.6.8-4.2-.8a8 8 0 0 0-3-4c-1.8-1.3-5.5-5-5.5-6.6 0 0-2.2 6.3-1.9 11.5 0 0-7.8 1.7-15 1.8s-10.8-1.4-10.8-1.4-1-6-.6-7.1c0 0-1.1 3.9-1.9 5.2-1 1.6-2 5-4 5.1-2.1.1-3.8-2-4-2.8v-6.3h-8.1s-3.5 1.4-4.8 1.2c-1-.1-1.7-1.2-.7-1.6l.4-.2c-1 0-2.4.6-2.4.6h-4l.1-.4c.3-1.2 2.4-2.1 4-2.8q2.4-1 4.3-1.3c1.8-.2 3-.1 5.8.4.7 0 3.7.3 5.4 1.2.4.3 1 .4.7-.9s-1.1-5.2.3-7.8c1-1.8.9-3.3.8-4.8-.2-1.6-1-5.2-1-6.8 0-5.4 4-7.5 7.6-8.7 4-1.2 6.7-2.5 6.5-5-.1-2.4.5-6.5.2-8.4"/>
      <path id="bz-path52" d="M576.5 211c.9 3 1 3.8 1 4.8 0 1.2-.4 1.4 0 2.6.6 2.3-.7 4.8-2.3 7.4-.8 1.3-1.3 2.9-2.6 3.6-3.1 2-7-.4-8.9-1.2q-1.5-.8-1.9-2-.5-1.5-.8-3.7c0-.3.1-1.1-.5-.9-1.2-1.3-1-1.9-1.4-2.8-.5-1 .8-2 1.8-1.8a9 9 0 0 1-.2-5.5c.2-.6-.5-2.1.4-1.7 4.3 1.7 9.3 1.3 13.9 1.3.4 0 .7-.8 1.2-.7l.3.5"/>
    </g>
    <path id="bz-path53" d="M576.9 212.5c.5-.4.2-2.2-.3-4-.2-1-1-1.4-2-2.4s-1.4-1-2-1.4c-.6-.2-2-.2-2.6-.4s-2.1-.1-3.5 0c-2 .3-3 .2-4.4 1q-2.2 1-3 3c-.4 1-1.1 2.4-.8 6.4.2 4 1 3.2 1 3.2s1-1.5 1.7-.5l-.3-3.4q-.2-1.6.4-4.2s4.4 1.6 8.5 1.6c2.8 0 6.5-.3 6.6-1z"/>
    <path id="bz-path54" d="M571 217c.6 1.6.1 1.1.4 2.2m-9.6 1.9c0 .7-.6.5-1 .5m16.2-5.8c-.9-.7-2.5-.2-3.2 0-1.5.7-.7 2.1-.2 3.5.2.6 1 1.6.4 2.2-.3.8-.6.4-1.5.5.1-.3-.7 0-1 0-.6 0-.9.4-1.3.2q-.7-.7-.3-1.6m0-4.2c0-.4-1.2-.7-2.5-.8-2-.1-2.3 0-3.9 1.2m10.7 8.3q-.5-.9-2-.3c0-.2-1.4-.4-1.4-.4q-1 0-2 .7m5.2.5c-.8-.5-3-.2-5.2-.2m.2.8c1.6.5 3.2.8 4.9 0" class="bz-C"/>
  </g>
  <g id="bz-g56" class="bz-J bz-B" transform="translate(-80)scale(.8)">
    <path id="bz-path55" d="M576.6 217c-.7-.1-1-.9-3 .3-1 .5 1.8 1.3 1.4 1.2 1.1.2 1.5-.5 1.6-1q.2-.4 0-.5zm-7.8.7c0-.7-1.7-1-2.6-.7s-.6 0-1.5.6c1 .1.7.2 1.5.6s1 .8 2.2.2a1 1 0 0 0 .7-.9z" class="bz-F bz-G"/>
    <path id="bz-path56" d="M575.4 218.1a1 1 0 0 1-.8-.7q0-.8.8-.9.6 0 .6.9 0 .6-.6.7zm-8.2.2q-.7-.1-.7-.8.1-.8.8-.8.6 0 .7.8 0 .7-.8.8z"/>
  </g>
  <g id="bz-g59" class="bz-C bz-D bz-B" transform="translate(-80)scale(.8)">
    <path id="bz-path57" d="M526.7 267q.8-1 1.7-1.3l2-1q1-.3 2-.8m-.3 2.5.8-.5 1-.2.1-.2q1.4 0 2.3-1.2m58.6-8.8c-.9.7-3 2.1-3.2 4.9-.1 1.4-1 2.8-1 2.8M603 256c-.4 1.6-.5 7-5.6 12.6m4.7-20c.4 1 .8 2-.2 2.8m-13.5 10c-1-2.4-4.3-2.2-4.3-4.5"/>
    <path id="bz-path58" d="M583.7 261c.3-2.7.8-4.2.3-8.1-.1-1.2-.3-5.5 0-7.6 0 0-1.5 7.3 3.5 8.7m-32.1 11.7c0-3.7-.9-5.8-.9-5.8-1.1-5.2 1-7.2.2-8.5s-1.9-3.6-.4-8.3c0 0-2.6 9.8 4.2 9.8 7 0 6.6-2.6 6.6-2.6"/>
    <path id="bz-path59" d="M584 245.3c0 2 0 7.9-8.4 7.9-2.6 0-5.3-1.8-6.8-3m-2.1-2.6q.4-2.8.3-6.5m12.7-3.2c-2.3-.3-4.1-.6-8.4-.6m-.3-5.9c-.4 2.1.3 5.4-3.6 5.9m-4-6.6q.6 2.4.7 4m-.2 2.6c-1.6 0-4.6-1-8.4-.3m-1.4 21.3c-.7 1.5-1 3.5-3.3 5.8m29.6-10.7c-.1 1.3 1.7 5.4.3 8.7-1.2 3.3-1 7.1 1 10.3m-6.1-17.7c.8 1.5 2 3 2.4 4.4m-6.2-1.6c0 1 2.6 8.2 4.4 10.2 0 0-3.3 1.3-2.9 6.2m-6.8-19.7c0 1.2.2 1.5-.9 2.3m-2.2 0c-1.3 1.5-5.2 6-4.3 8.6m6.8-6c-.3 1-.3 5.8.6 8.3m2-.2c1 0 2.5.8 2.8 2.6m-8.1-2.9c-1-.3-3.2 1.6-3.2 6.7m-14.6-9.6c2 .6 2.9 1.6 2.3 1q1 .8 2 1.5"/>
  </g>
  <path id="bz-path60" d="M383.2 201.8q-.7 0-.8-.6.1-.5.8-.6t.8.6q-.1.5-.8.6zm-17.2.3q-.7 0-.8-.7.1-.6.8-.6t.8.6q-.1.7-.8.7z" class="bz-B bz-J"/>
  <g id="bz-g67" class="bz-D bz-B" transform="translate(-80)scale(.8)">
    <path id="bz-path61" d="M587.7 291.3c-1.2-7.4-4.7-13.5-4.8-14.1 0 0-3.6.7-9.9 1.3-6.1.7-7.8.4-10.7.2l-6.4-.8s-1.1 2.3-1.2 4.6l-2.3 31.4s-.7 3.4-.7 11.5c0 9-2.5 27.1-2.5 36.8l2.5.5s13.5 1 13.5-.8c0-2 .7-25.3-1.3-39.3 0 0 .5-2.8 1.3-5.1.7-2.3 4-9.4 4-11 0 0 5.4 15 5.6 17.6.3 2.4 1 35.8 1.6 38.6 0 0 7.6 5.9 8.7 6.4s8.4-3.1 8.6-4c.3-1.1-.7-12.4-4.2-31-1.4-6.7-.6-7.9-.6-9.7s-.1-25.6-1.2-33z" class="bz-H"/>
    <path id="bz-path62" d="M574.8 324.1q.8 3.2 3.4 5.4m2.5-50c.3 1.2 2.1 6.8 6.7 10.1m-13.3-9a202 202 0 0 1 5.9 42.3m.3 6.6 1.5 19.4m.7 2.8c.5 1 2.6 9.7 2.6 17.4M555 335.6c.2 1.8 1 14.6-3.3 26.1m17.3-80.2c.2 2 .7 15.5.7 16.6 0 1-1.5 2.5-2.3 2.8 0 0 1.6.5 1.8 5.6m3.8-12A82 82 0 0 0 576 305m-12.3-23.7s-4.5 1-4.8 0c0 0-1.5 27.5-3.6 42.8m10.4-39.3.6 15.4m-2.3 2s-1.8 2.5-1.3 3.8m16.6-26.2-2.8.7m-4.9 1.5c.3.8.6 4.3.6 4.3m-8.2 36.3c-.6.7-1.3 1.8-.7 4" class="bz-C"/>
    <path id="bz-path63" d="M583.6 277s0-3-1.2-4.6c0 0-3.2.7-7.7 1.2q-6.9.8-11.8.5c-3.4-.4-7-1.3-7-1.3s-1 4.5-.4 5.2a57 57 0 0 0 7.8.9c4.1.3 11-.4 13.4-.8 3.2-.3 6-.9 6.9-1z" class="bz-E"/>
    <path id="bz-path64" d="m580.6 277.4-.5-4.6-1 .1.2 4.8zm-20.6-3.8v5.1l-1.2-.2v-5.2zm14.7 0 .3 5h-.6l-.7-5z" class="bz-F"/>
    <g id="bz-g66" class="bz-I">
      <path id="bz-path65" d="M591.2 367q.5 1.8 1 5c0 .5.4 3.1-1 3.2-1 .1-1.4-2.7-1.4-2.7s1 3-.2 3.5c-1.8.3-2-3.4-2-3.4.3 1 1.4 3.7-.2 4-1.7.3-2.2-3.6-2.2-3.6s1.4 4-.3 4c-1.6.1-1.6-3.8-1.6-3.8s.8 4.7-1.4 4.3c-1.3-.2-1.5-1.8-1.8-2.8-.4-1.4-1.3-3.2-.2-6.1.7-2.2.4-2.8.4-2.8l4.8 3.3c1 .6 6-2.2 6-2.2zm-27.8-4.1c.5-.3.4 1.7.6 2.6s-.2 3-3.4 2.9c-3.1-.3-6.3-1-8.3-.5s-4.9.6-6.5.6q-2.4 0-3.4-.4c-.7-.3-2.1.4-2.8.4s-1.7-1-1.6-1.8c0-1.2 1.2-1.2 2.8-1.3s3.7-.5 4.7-.8 3-1.5 5.3-2l5.5.3zm46-114.8c.5.2 1.9-1.9.5-2.8 0 0-.4-1.8-2-2 0 0-1.2-1.7-3-1.4 0 0-2-1.5-2.7-1.4-.9.2-2.8 2.1-2.9 2.8 0 .6 0 1.7.5 2.3q.9.5 1-1s-.4 1.4.8 2.1c1.1.7 1 .1 1.1-.7 0 0 .3 1.6 1 1.8.8.3 1.3-.3 1.9-.3 0 0-1 .7-.3 1.2q1.1.7 1.9-.1c.6-.4.3-1.6 2.3-.5z"/>
      <path id="bz-path66" d="M601 244.6c.4-1.6 2-3 3.7-2.6m-2 4 .6-1.1c.9-1.4 2.7-1.4 4.3-1.7m-2.4 4.2q.7-.7 1.3-1.4 1.5-.7 3-.6" class="bz-G bz-K"/>
    </g>
  </g>
  <path id="bz-path67" stroke-width=".8" d="M400.6 193.5q-1.2 1-1.4 1.7c0 .4 0 1.3.4 1.8q.6.4.8-.6-.1.8.6 1.5c1 .5.8 0 1-.5 0 0 .1 1.2.8 1.4.6.2 1-.3 1.4-.3 0 0-.8.6-.2 1q.8.4 1.5 0c.4-.4.2-1.4 1.8-.5q.4 0 .8-.8l-5.8-4.1z" class="bz-I"/>
  <path id="bz-path68" d="M399.4 194.5c-1.1 2 .4 3.1.9 2-.2 1.8 1.2 1.7 1.7 1.1.5 2 1.3 1 2.1.9-.9 1.7 1.1 1.2 1.6.8.7-1 1-.2 1.5-.3l1-1m-6-4.2q-2 1-2 2.8m3.7-1.7q-2 1-1.9 2.8m4-1.3c-1.2.7-1.3 1.3-1.8 2.1" class="bz-B bz-D bz-I"/>
  <path id="bz-path69" fill="#338a00" stroke="#075400" stroke-width=".4" d="M386 135.7a123 123 0 0 0-22-11c1.2-6.7-3.6-19.6-16.8-13.1 8.2.6 9.1 7.1 11.1 11.2A123 123 0 0 0 327 117c-1.1-4.6-5.7-10.8-11.6-10.7q-4.2-.2-8.9 4.6c7.5-2.1 10.8 2.8 13.9 6a123 123 0 0 0-26.8 3c-3-6.4-13-14.2-21-2.5 7.2-3.4 11.3 1.4 14.9 4a122 122 0 0 0-21.4 8.1v-.1c-3-5.7-18.5-12.6-22.1 3 7.6-7.9 15.2.9 19.7-1.6a123 123 0 0 0-19.6 12.7v-.2c-4.2-4.9-20.8-8.3-21 7.7 5.7-9.1 14.7-2.7 18.7-5.6a124 124 0 0 0-17.7 18.1l-.3-.3c-4.6-4.5-21.4-6.3-20 9.7 4.8-10 14.9-3.8 18.3-7.7q-.7.9-1 2.2a123 123 0 0 0-12.5 21.3c-5.6-3-22.3-.2-16.5 14.7 1.9-10.8 13.2-7.6 15.5-12.3v.1a122 122 0 0 0-7.8 25c-7 .1-18.4 6.7-10.1 18.5-.6-8 5.3-10 9-12.4a124 124 0 0 0-1.2 17.6l.1 5.3c-6.3 2.8-14.6 14.3-1.5 21.4-3.7-6.2-.3-10.5 2-14a122 122 0 0 0 4.5 22.6c-5.9 3.8-12 14.4.5 20.7-4-6.2-.6-10.6 1.6-14.3a123 123 0 0 0 10.1 21.4c-4.7 5-7.8 17.7 6.3 20-5.8-4.8-3.7-10.1-2.7-14.4a124 124 0 0 0 16 19.2c-4.5 5.3-7 18.3 7.5 19.8-7-5.1-3.7-11.5-3.4-16a124 124 0 0 0 23 16.3c-1.3 6.9 2.4 18.6 15.5 13.8-7.1-1.3-8.2-6.5-9.3-10.6a122 122 0 0 0 25.6 9c0 6.9 4.6 16.7 16.6 11.3-7.3-.8-8.6-6-10-10.1a124 124 0 0 0 20.7 1.7h4c1.5 6.8 9.6 16.2 19.8 6.6-7.7 1.8-10.6-3.7-13.6-7a123 123 0 0 0 26.9-5.3C361.8 363 372 368 378 356c-5.8 3.8-10 1.1-13.6-1a123 123 0 0 0 20.4-10c5.2 4.2 20 6 19.8-9-3.8 6.5-9.6 5.3-14 5.1a124 124 0 0 0 19.5-16.8c6.2 3.3 19 3.3 18.1-10.7-3.5 6.7-9.3 5.8-13.7 5.8A123 123 0 0 0 429 298c6.9 1.2 19.4-3.2 13.5-16.3-.9 7.4-6.4 8.7-10.4 10.2a122 122 0 0 0 8.6-25.6c6.9-1.5 16.4-9.5 6.9-19.6 1.4 6.4-2.2 9.4-5.4 12a124 124 0 0 0 1.4-18.9v-2.6c6.6-2.1 15.4-11 4.8-20.2 2.3 7-2 10.4-5.2 13.5A123 123 0 0 0 440 210c6-3.5 12.7-16-1.2-21.4 4.7 6.1 1.2 11-.6 15a122 122 0 0 0-8.6-20.8c5-4.9 8.8-17.6-5.4-20.5 5.6 5.1 3.3 10.4 2.1 14.6a124 124 0 0 0-12.8-17.7c2.6-6.5 1.4-18.7-12.4-16.7 5.8 2.4 6.5 6.7 6.8 10.6a124 124 0 0 0-15.9-13.4c2-6.6-1.5-20.1-15.4-14.9 7.3 1.3 8.3 6.8 9.5 11zM320.5 120h1.8c-4.1 2.5-7.7 10.7-16.6 8.4 9.6 10.8 20.1-1.5 21.3-8.2a120 120 0 0 1 30.8 5.7c-4.6 1.4-10.5 6.7-17.5 1.8 5 13.3 19 5.9 22.7 0a120 120 0 0 1 23.8 12.3c-4.8.2-11.8 6.2-18.8.1 3.6 13.7 18.1 7.8 22.5 2.4a121 121 0 0 1 18 15.9 4 4 0 0 0 1.3 1.9c-4.2-3.2-14 3.9-20.4-4.7.6 15 17.8 11.1 22.3 6.4a120 120 0 0 1 13.1 18.7c-4.1-2.4-13.3-1-16-9.8-4.4 13.8 11.9 16.2 18.2 13.7a119 119 0 0 1 8.8 21.9c-4-2.8-12.6-3.3-13.7-12.2-6.5 12.5 8 17.8 14.9 16.8a120 120 0 0 1 3.4 23.2c-1.6-4.6-11.7-7.7-9.5-17.4-11 10.2 3 20.7 9.6 21v2.1a121 121 0 0 1-2 22.5q-.5.7-.6 1.6c.3-5.2-11.2-9.1-7.7-19.2-12 9 .9 20.8 7.4 21.8a119 119 0 0 1-9.6 26.7c-.3-4.7-7.1-11.4-1.4-18.9-13.8 4.6-6.3 19.1-.5 22.7a120 120 0 0 1-15.6 22.2c1.6-4.5-2.6-13.2 5.6-18.2-15-.7-12.7 16.4-8.4 21.3a121 121 0 0 1-20.8 17.5c1-4.7-1.7-12.7 6.2-17-13.8-1.3-13.6 13.4-10.2 19.6a120 120 0 0 1-22.4 10.6 4 4 0 0 0-2.2 0c5-1.5 4.7-13.5 15.5-13.9-12.9-8-19.5 8.6-18 14.8l.3.6a120 120 0 0 1-27 5c4.3-2 8.4-10.1 17.1-7.2-9.1-11.9-21 1-21.9 7.5h-3.8q-11.5 0-22.5-2-.7-.8-1.5-1.1c4.9 2 12.4-7.5 20.9-1-4.8-14.4-20.6-5.7-23.3 0l-.4 1.2a119 119 0 0 1-29-10.8c4.7 2.3 12.7-6.7 20.8.4-3.7-14.6-19.9-7.2-23.2-1.6a120 120 0 0 1-21-14.9c4.7 1 11.8.2 14.9 7.6 2.9-14.2-13.6-15-19.6-11.9a121 121 0 0 1-17.2-21.2c4 2.6 13.5.5 16.6 9.5 4-14-12.8-15.9-18.8-13a119 119 0 0 1-11-24.6c1.6 4.9 13.5 4.7 13.8 15.3 8.2-12.7-8.4-19.4-14.7-18a120 120 0 0 1-4.5-24.8c3.3 3.5 12.4 4.9 12.3 14.1 8-11.5-5.5-18.6-12.6-18.5v-4.7q0-9.4 1.4-18.5c1.7 4.5 8.6 9.6 4.6 17.6 12.8-7 2.6-20-3.8-22.4a119 119 0 0 1 5.5-19.3c1.5 4.3 3.6 9.3-.9 14.5 12.7-3.4 8.7-15.8 3.7-21.1a120 120 0 0 1 10-18c.4 4.1.4 9-4.8 12.4 12.8.1 12.6-12.3 9.5-18.9a121 121 0 0 1 14.8-15.7c-.2 4.6.2 10.5-6.2 13.9 13 1.4 13.8-11.4 11.2-18.2a120 120 0 0 1 15.5-10.5c-1.2 4.4-2.1 10.3-9 12.2 12.2 4.1 15.9-8.2 14.8-15.4a119 119 0 0 1 22.7-8.6c-3.6 3.2-6 11.6-15 10.8 11.5 9.4 20-5.3 19.7-12a121 121 0 0 1 26.3-2.8z"/>
  <g id="bz-g72" class="bz-B bz-D" transform="translate(-80)scale(.8)">
    <path id="bz-path70" d="M409 367q-.6 1.8-1 5c0 .5-.5 3.1 1 3.2 1 .1 1.2-2.7 1.2-2.7s-1 3 .3 3.5c1.7.3 2-3.4 2-3.4-.3 1-1.4 3.7.2 4 1.7.3 2.2-3.6 2.2-3.6s-1.4 4 .3 4c1.6.1 1.6-3.8 1.6-3.8s-.9 4.7 1.4 4.3c1.2-.2 1.5-1.8 1.8-2.8.4-1.4 1.3-3.2.2-6.1-.7-2.2-.5-2.8-.5-2.8l-4.7 3.3c-1 .6-6-2.2-6-2.2zm27.6-4.1c-.4-.3-.3 1.7-.5 2.6-.1 1 .2 3 3.4 2.9 3.1-.3 6.3-1 8.3-.5s4.9.7 6.5.7q2.4 0 3.4-.5c.7-.3 2.1.4 2.8.4s1.7-1 1.6-1.8c-.1-1.2-1.2-1.2-2.9-1.3-1.5-.2-3.6-.5-4.6-.8s-3-1.5-5.3-2l-5.5.3z" class="bz-L"/>
    <path id="bz-path71" d="m392.6 251 69.1-35.7c.3-1.9-.7-3.3-1.8-4.8-19.8 9.7-37.8 21.5-59.7 28.6-1.3.5-12.2 5-17.8 11.8-1.8 1.8-1.9 4.4-1.9 4.4s.2 3 .8 3.8c0 0 .2.9 1.2 1.5q.2.2 1 .2c.6 0 1.4 0 2.5-2a51 51 0 0 1 6.6-7.7z" class="bz-E"/>
    <path id="bz-path72" d="m448.2 215.7 9-4.3s3 2.3 2.7 4.8c0 0 .7 6 8 10 0 0-6.2 7.7-17 8.4 0 0 1.2-10.2-1-13.1 0 0-.4.3-.3-.2.4-1-.2-4.4-1.6-5.1q0-.3.2-.5z" class="bz-H"/>
  </g>
  <path id="bz-path73" stroke="#4d4b4d" stroke-width=".6" d="M287 173.5c-1.6.6-6.5 3.2-6.5 3.2m4-1.7c0 .8-.4 2.6 0 3.9m-.6-3.6c0 .3-.6 1.7 0 3.5m-.8-3.2q-.3 1 0 2m-.6-1.5v1m4.5-1.2c.2.6 2.3 3.8 3.5 5m-3.2-3.6a15 15 0 0 0 2.2 3.7m-2.3-2.4c.3.8.9 2.1 1.5 2.9m-1.5-1.4a5 5 0 0 0 .9 2" class="bz-C"/>
  <g id="bz-g78" class="bz-D" transform="translate(-80)scale(.8)">
    <g id="bz-g76" class="bz-B">
      <path id="bz-path74" fill="#ad7c59" fill-opacity="1" d="M439.7 221.6c-.2.6-.7.2-.7.4-.4 2-.3 3-.7 4.2-.7 1.3-3 2.6-3 2.5-1.9.5-4.2 2.8-7.9.7q-.2-.1-.5-.5s1 4-2.8 5.8l-14.7 7.7s-1.4 2.6-.5 6.1c.1.6.3 1-.3 1.4a12 12 0 0 0-3.4 5.6s-2.8-1.2-2.8-3 1.1-2.8 1.4-4 1-4.5.7-5.4-2.1-1.4-2.8-1.8-1.3.4-1.2 1.2c0 1 .7.8 1.5 1 0 0-.9 1.8-.8 3.1l-8.6 4.5 1.5 2.1c.4.7 1.2 9.5 3.8 13.7s3.4 3 4 3.6q.8.9 1.9 1.8c.7.5 3.6.8 4.2-.8a8 8 0 0 1 3-4c1.7-1.3 5.4-5 5.4-6.6 0 0 2.2 6.3 2 11.5 0 0 7.9 1.7 15 1.8s10.7-1.4 10.7-1.4 1-6 .6-7.1c0 0 1.2 3.9 2 5.2 1 1.6 2 5 4 5.1s3.8-2 4-2.8v-6.3h8s3.7 1.4 4.8 1.2 1.8-1.2.8-1.6l-.4-.2c1 0 2.4.6 2.4.6h4q0-.2-.2-.4c-.2-1.2-2.3-2.1-3.8-2.8q-2.6-1-4.4-1.3c-1.8-.2-3-.1-5.8.4-.8 0-3.6.3-5.4 1.2-.5.3-1 .4-.8-.9.3-1.3.2-7.3-1.2-9.8a7 7 0 0 1-.8-4.9c.1-1.5.2-6.7 0-8.3-.3-1.5-2.3-3.6-6.1-4-3.6-.5-6.7-3.5-6.9-5.8-.3-2.4.4-6.8.8-8.7"/>
      <path id="bz-path75" d="M423.5 211q-.8 4.3-.5 8.5c0 2 1 4.3 1.9 6.3.5 1.3 1.3 2.9 2.5 3.6 3.4 2.2 6.5-.2 8.3-1a6 6 0 0 0 2.6-2.2c.4-1.1.2-2 .7-4.2l.7-.4c.8-1.4.6-1.9 1.1-2.8.5-1-.5-2-1.7-1.8q1.1-2.8.4-5.5c-.2-.6.5-2.1-.6-1.7-4.2 1.7-9.3 1.3-13.8 1.3-.4 0-.7-.8-1.3-.7l-.3.5" class="bz-L"/>
      <path id="bz-path76" d="M423.2 212.5q-.8-.5 0-3c.6-1.8 0-2 1-3s.8-1.5 1.4-1.8c.7-.2 2.7-.2 3.4-.4a9 9 0 0 1 2.7-.9c1.4-.3 4.3-.2 5.6.6 1.4.7 2.4 2.6 3.2 3.3q1.6 1.2 1.4 7.4c-.3 4-1 3.2-1 3.2s-1.2-1.9-2.2-.3c0 0 0-1.5.2-2.6.1-1.2-.5-3.2.1-4.7 0 0-5.4 1.7-8.1 1.6-2.9-.1-6.9-.8-7-1.5l-.7 2.1"/>
    </g>
    <path id="bz-path77" stroke="#fff" d="M426 209.2c-.4-.6-1.8-2.7-.7-3.3 1-.6.4 2.5 1.9 3.2 0 0-.5 1.4-1.3.1z" class="bz-F"/>
    <path id="bz-path78" d="m429 217-.8 3m9.9 1.4c.2.6.4.3.8.4m.4-3.7c.5-.5 1.1-.3.8 1.2m-16.6-4.6 2.6 1c1.4.5.6 2.6.2 4-.2.6-1 1.7-.6 2.3.5.8 1 .3 2 .4q.2-.5.7-.5c.7 0 1 .5 1.5.3q.8-.7.3-1.6m-.1-4.2c0-.4 1-.7 1.4-.8 2-.4 3.4-.7 5 .4m-5.3 10.4c-1.6.4-3.3.6-4.8-.2m0-.8c.7-.3 1-.7 2-.2l1-.4q1 0 2 .7m-5.1.3c.9-.3 3.1-.3 5 .1" class="bz-B bz-C"/>
  </g>
  <path id="bz-path79" stroke-width=".2" d="M258.8 173.6c.5 0 1.1-.7 2.3.2.9.5-1.4 1-1 1-1 .2-1.3-.4-1.3-.8q-.2-.3 0-.4zm6.2.6c.5-1 1.4-.8 2.1-.6s.5 0 1.2.4c-.8.2-.6.3-1.2.6q-1 .5-1.7.1-.5-.2-.6-.7z" class="bz-B bz-F bz-G"/>
  <path id="bz-path80" d="M259.8 174.5q.5 0 .6-.6t-.6-.7-.6.7q0 .5.6.6zm6.5.1q.5 0 .5-.6a1 1 0 0 0-.6-.6q-.5 0-.5.6t.6.6z" class="bz-B bz-J"/>
  <g id="bz-g83" class="bz-C bz-D bz-B" transform="translate(-80)scale(.8)">
    <path id="bz-path81" d="M473.4 267q-.8-1-1.7-1.3l-2-1q-1-.3-2.1-.8m.4 2.5-.8-.5-1-.2-.1-.2q-1.4 0-2.3-1.2m-58.6-8.8c.9.7 3 2.1 3.1 4.9.2 1.4 1 2.8 1 2.8M397 256c.5 1.6.6 7 5.6 12.6m-4.6-20c-.4 1-.9 2 .2 2.8m13.5 10c1-2.4 4.2-2.2 4.2-4.5"/>
    <path id="bz-path82" d="M416.4 261c-.3-2.7-.8-4.2-.4-8.1.2-1.2.4-5.5 0-7.6 0 0 1.6 7.3-3.4 8.7m32.1 11.7c0-3.7.9-5.8.9-5.8 1.1-5.2-1-7.2-.2-8.5.7-1.2 1.9-3.6.4-8.3 0 0 2.6 9.8-4.2 9.8-7 0-6.7-2.6-6.7-2.6"/>
    <path id="bz-path83" d="M416 245.3c0 2 0 7.9 8.5 7.9 2.6 0 5.3-1.8 6.8-3m2.1-2.6q-.4-2.8-.3-6.5m-12.7-3.2c2.3-.3 4-.6 8.4-.6m.2-5.9c.5 2.1-.2 5.4 3.7 5.9m4-6.6q-.6 2.4-.7 4m.2 2.6c1.6 0 4.6-1 8.4-.3m1.4 21.3c.7 1.5.9 3.5 3.3 5.8m-29.6-10.7c.1 1.3-1.7 5.4-.3 8.7 1.2 3.3 1 7.1-1 10.3m6.1-17.7c-.8 1.5-2 3-2.4 4.4m6.2-1.6c0 1-2.6 8.2-4.4 10.2 0 0 3.3 1.3 2.9 6.2m6.8-19.7c0 1.3-.2 1.5.9 2.3m2.2 0c1.3 1.5 5.2 6 4.3 8.6m-6.8-6c.3 1 .3 5.8-.6 8.3m-2-.2a3 3 0 0 0-2.8 2.6m8.1-2.9c1-.2 3.2 1.6 3.2 6.7m14.6-9.6c-2 .6-2.9 1.6-2.3 1-1 .9-2 1.5-2 1.5"/>
  </g>
  <path id="bz-path84" d="M256.9 201.8q.7 0 .8-.6-.1-.5-.8-.6t-.8.6q.1.5.8.6zm17.2.3q.7 0 .8-.7-.1-.6-.8-.6t-.8.6q.1.6.8.7z" class="bz-B bz-J"/>
  <g id="bz-g91" class="bz-D bz-B" transform="translate(-80)scale(.8)">
    <path id="bz-path85" d="M412.4 291.3c1.2-7.4 4.7-13.5 4.8-14.1 0 0 3.6.8 9.9 1.3 6.1.7 7.8.4 10.7.2l6.3-.7s1.2 2.2 1.3 4.5l2.3 31.4s.7 3.4.7 11.5c0 9 2.5 27.1 2.5 36.8l-2.5.5s-13.5 1-13.5-.8c0-2-.7-25.3 1.3-39.3 0 0-.5-2.8-1.3-5.1-.7-2.3-4-9.4-4-11 0 0-5.4 15-5.6 17.6-.3 2.4-1 35.8-1.6 38.6 0 0-7.7 5.9-8.7 6.4s-8.5-3.1-8.6-4c-.3-1.1.7-12.4 4.2-31 1.4-6.7.6-7.9.6-9.7s.1-25.6 1.2-33z" class="bz-H"/>
    <path id="bz-path86" d="M425.3 324.1q-.8 3.3-3.4 5.4m-2.5-50c-.3 1.2-2.1 6.8-6.7 10.1m13.3-9c-1 3.2-5.1 21.1-5.9 42.3m-.3 6.6-1.5 19.4m-.7 2.8c-.5 1-2.6 9.7-2.6 17.4m30-33.5c-.1 1.8-.9 14.6 3.4 26.1m-17.3-80.2c-.2 2-.7 15.5-.7 16.6 0 1 1.5 2.6 2.3 2.8 0 0-1.6.5-1.8 5.6m-3.8-12a82 82 0 0 1-2.9 10.5m12.3-23.7s4.5 1 4.8 0c0 0 1.5 27.5 3.6 42.8m-10.4-39.3-.6 15.4m2.3 2s1.8 2.5 1.3 3.8m-16.6-26.2 2.8.7m4.9 1.5c-.3.8-.6 4.3-.6 4.3m8.2 36.3c.5.8 1.3 1.8.7 4" class="bz-C"/>
    <path id="bz-path87" d="M416.5 277s0-3 1.2-4.6c0 0 3.2.7 7.7 1.2q6.9.9 11.8.5c3.4-.4 7-1.3 7-1.3s.9 4.5.4 5.2c0 0-3.7.7-7.8 1-4.1.2-11-.5-13.4-.8-3.2-.4-6-1-6.9-1.2z" class="bz-E"/>
    <path id="bz-path88" d="m419.5 277.4.5-4.6 1 .1-.2 4.8zm20.6-3.8v5.1l1.2-.2-.1-5.2zm-14.7 0-.3 5h.6l.7-5z" class="bz-F"/>
    <g id="bz-g90" fill="#ad7c59">
      <path id="bz-path89" d="M389.3 244.7c-.5.3-1-1.9.3-2.7 0 0 .4-1.8 2-2 0 0 1.2-1.7 3-1.6 0 0 2-1.4 2.8-1.2s2.7 2 2.8 2.7c.2.6 0 1.8-.5 2.3s-1-.1-1-.9c0 0 .3 1.4-.8 2s-1 .2-1.1-.6c0 0-.3 1.5-1 1.7-.8.3-1.3-.4-1.9-.4 0 0 1 .8.3 1.4q-1.1.6-1.9-.1c-.5-.5-1-1.7-3-.6z" class="bz-G"/>
      <path id="bz-path90" d="M398.6 241.2c-.5-1.5-2-2.8-3.8-2.7m2 4.1-.6-1.1c-.9-1.4-2.7-1.3-4.2-1.7m2.3 4.2q-.7-.6-1.3-1.4-1.5-.7-3-.6" class="bz-K"/>
    </g>
    <path id="bz-path91" d="M409 367q-.6 1.8-1 5c0 .5-.5 3.1 1 3.2 1 .1 1.2-2.7 1.2-2.7s-.9 3 .3 3.5c1.7.3 2-3.4 2-3.4-.3 1-1.4 3.7.2 4 1.7.3 2.2-3.6 2.2-3.6s-1.4 4 .3 4c1.6.1 1.6-3.8 1.6-3.8s-.9 4.7 1.4 4.3c1.3-.2 1.5-1.8 1.8-2.8.4-1.4 1.3-3.2.2-6.1-.7-2.2-.5-2.8-.5-2.8l-4.7 3.3c-1 .6-6-2.2-6-2.2zm27.6-4.1c-.4-.3-.3 1.7-.5 2.6-.1 1 .2 3 3.4 2.9 3.1-.3 6.3-1 8.3-.5s4.9.7 6.5.7q2.4 0 3.4-.5c.7-.3 2.1.4 2.8.4s1.7-1 1.6-1.8c-.1-1.2-1.2-1.2-2.9-1.3-1.5-.2-3.6-.5-4.6-.8s-3-1.5-5.3-2l-5.5.3z" class="bz-L"/>
  </g>
  <path id="bz-path92" fill="#5ac800" stroke-width=".8" d="M257 295.7v-3.5l1.4 1.2.4-2.7c.6-.1 1.6 1.1 1.6 1.1l-.2-2.7 2.2 2.5s-.1-2 .6-3.3c0 0 1.7 1.5 1.7 3.1 0 1.5 1.4-2 1.4-2l1.2 3.9 1-1.5.9 3 1.8-2.6 1.4 3.1 3.3-.2.4 1.8 1.4-1.6 2 1.2s1.5-.4 2.3-.4c.9 0 1.9 1 1.9 1s.6-1 1.2-1.4 1.4.6 1.7 1.2l1.2-2.2s1.6 1.6 1.8 2.2c0 0 .2-1.8.6-2.4s1 .2 1.4 1l1-3.3s1.1.2 1.9 1.4.8-1.8.8-1.8 1.8 2.4 2.3 4.1c0 0-12.6 4.3-21.5 3.1-10.4-1.3-19-3.3-19-3.3m86.2-.4s.6-1.7 1.5-2.5c0 0 1.5 1.9 1.5 2.5l1.3-.8 1.3 1.2 1.4-1 1.4 1.2 2.5-1 1 1 3.8-.4 1.5.6 1.3-1.8 1.3 1.4 2-2s1 .8 1.3 1.4c0 0 1.7-.9 2-1.5 0 0 1.6-.6 1.9.4 0 0 1-.8.9-1.6s1.1-.2 1.5.8c0 0 .5-1.6 1.7-1.8 0 0 .8 1 .6 2.8 0 0 1.8-1.4 2.6-1.6 0 0 .4 2-.2 4 0 0 2-3.2 2.3-2.1.1.6.6 2.6.1 4l1.7-1 .6 2 1.8-.3s-10.7 1.6-20.9.7a87 87 0 0 1-19.7-4.6m-7.5 7.5c.5-.3-3.4 8-12.8 8.5-13.1.6-24.3-6-24.3-6s1.3-2.2 2.2-2.8c0 0 1.8 1.4 2.4 3.2 0 0 .2-1.2.8-2.2 0 0 2.3 1 2.7 2.5 0 0 .8-1.5 1.4-1.9s1.2 1.6 1.2 2.8c0 0 1.5-1.5 2.3-1.5 0 0 1.6.7 2 3.4 0 0 1.6-1.5 2.1-1.2 0 0 1.8 1.2 1.4 2.8-.2 1 1.8-1 4.3-1.6l2.2 1.6 2.7-3.6s1.6.6 1.6 1.6c0 0 .8-2.9 1.4-3.2s1.5 1 1.5 1.7c0 0 .2-2.2 1.4-2.6 0 0 1.2.8 1.2 1.7 0 0 1.3-2.5 2.3-3.2"/>
  <path id="bz-path93" stroke="#060" d="M257 295.7v-3.5l1.4 1.2.4-2.7c.6-.1 1.6 1.1 1.6 1.1l-.2-2.6 2.2 2.4s-.1-2 .6-3.3c0 0 1.7 1.5 1.7 3.1 0 1.5 1.4-2 1.4-2l1.2 3.9 1-1.5.9 3 1.8-2.6 1.4 3.1 3.3-.2.4 1.8 1.4-1.6 2 1.2s1.5-.4 2.3-.4c.9 0 1.9 1 1.9 1s.6-1 1.2-1.4 1.4.6 1.7 1.2l1.2-2.2s1.6 1.6 1.8 2.2c0 0 .2-1.8.6-2.4s1 .2 1.4 1l1-3.3s1.1.2 1.9 1.4.8-1.8.8-1.8 1.8 2.4 2.3 4.1m45.7-.6s.6-1.7 1.4-2.5c0 0 1.6 1.9 1.6 2.5l1.3-.8 1.3 1.2 1.4-1 1.4 1.2 2.5-1 1 1 3.8-.4 1.5.6 1.3-1.8 1.3 1.4 2-2s1 .8 1.3 1.4c0 0 1.7-.9 2-1.5 0 0 1.6-.6 1.9.4 0 0 1-.7.9-1.6 0-.8 1.1-.2 1.5.9 0 0 .5-1.7 1.7-1.9 0 0 .8 1 .6 2.8 0 0 1.8-1.4 2.6-1.6 0 0 .4 2.1-.2 4 0 0 2-3.2 2.3-2.1.1.6.6 2.6.1 4l1.7-1 .6 2 1.8-.3m-85.3 6.2s1.4-2.3 2.2-3c0 0 1.8 1.5 2.4 3.3 0 0 .2-1.2.9-2.2 0 0 2.2 1 2.6 2.5 0 0 .9-1.5 1.5-1.8.6-.5 1.2 1.5 1.2 2.8 0 0 1.4-1.6 2.3-1.6 0 0 1.5.7 2 3.4 0 0 1.5-1.5 2-1.2 0 0 1.9 1.2 1.4 2.9-.2.9 1.8-1.1 4.4-1.7l2.2 1.7 2.6-3.7s1.7.6 1.7 1.6c0 0 .7-2.9 1.4-3.2s1.4 1 1.4 1.8c0 0 .2-2.2 1.4-2.7 0 0 1.3.8 1.3 1.7 0 0 1.2-2.5 2.2-3.1" class="bz-C bz-D"/>
</svg>
