<svg xmlns="http://www.w3.org/2000/svg" id="flag-icon-css-ca" width="512" height="512">
  <path fill="#fff" d="M81.32 3.02h362.27v512H81.32z" transform="translate(-.18 -3.02)"/>
  <path fill="#bf0a30" d="M-99.82 3.02H81.32v512H-99.82zm543.41 0h181.14v512H443.6zM135.5 250.44l-14.07 4.8 65.46 57.45c4.95 14.77-1.72 19.12-5.97 26.86l71.06-9.02-1.85 71.52 14.72-.43-3.21-70.92 71.13 8.44c-4.4-9.3-8.32-14.24-4.25-29.1l65.41-54.43-11.44-4.14c-9.36-7.22 4.04-34.79 6.06-52.18 0 0-38.2 13.14-40.7 6.26l-9.72-18.68-34.75 38.17c-3.8.9-5.41-.6-6.3-3.81l16.05-79.77-25.42 14.3c-2.13.91-4.26.13-5.66-2.35l-24.44-49.08-25.21 50.95c-1.9 1.83-3.8 2.04-5.38.8L202.8 142.5l14.53 79.15c-1.16 3.14-3.92 4.02-7.18 2.32l-33.22-37.73c-4.34 6.96-7.29 18.33-13.03 20.88-5.74 2.39-24.98-4.82-37.87-7.64 4.4 15.9 18.17 42.3 9.46 50.96z" transform="translate(-.18 -3.02)"/>
</svg>
