<svg xmlns="http://www.w3.org/2000/svg" xmlns:xlink="http://www.w3.org/1999/xlink" id="flag-icon-css-cc" width="512" height="512">
  <defs>
    <path id="a" d="M0-360l69.42 215.84 212.04-80.3L155.99-35.6 350.97 80.1 125.1 99.77l31.1 224.59L0 160l-156.2 164.35 31.1-224.6-225.87-19.64L-156-35.6l-125.47-188.86 212.04 80.3z"/>
    <path id="b" d="M0-210L54.86-75.5l144.86 10.6L88.77 28.85l34.67 141.05L0 93.33l-123.44 76.56 34.67-141.05-110.95-93.73 144.86-10.62z"/>
  </defs>
  <path fill="green" d="M0 0h512v512H0z"/>
  <circle cx="268.22" cy="250.45" r="61.24" fill="#ffe000"/>
  <circle cx="287.32" cy="250.45" r="50.39" fill="green"/>
  <circle cx="75.16" cy="189.2" r="64.16" fill="#ffe000"/>
  <path fill="#802000" stroke="#7b3100" stroke-width="1.36" d="M70.73 237.58h16.02s.73-1.47-.16-2.2c-.88-.74-4.33-.9-3.4-3.5 1.92-5.34 2.18-3.7 3.38-16.37 1.2-12.69 1.78-32.58 1.78-32.58h-2.31s.45 6.19-.89 14.24c-1.33 8.06-1.74 8.77-3.2 14.95-1.47 6.19-1.7 6.72-3.03 10.33-1.33 3.6-1.47 3.78-3.56 7.12-2.09 3.34-1.33 2.09-2.49 4.1-.58 1-1.3.73-1.68 1.46-.39.72-.46 2.45-.46 2.45z"/>
  <path fill="green" d="M82.96 142.46c.13 2.49-.12 5.78-1.15 8.46-1.05 3-2.19 5.97-2.13 9.06-1.66.57-3.37-3.6-4.97-1.15 1.2 3.39 3.98 6.07 5.88 9.11.32.95 3.06 3.42 1.47 4-4-1.38-4.96-6.44-7.44-9.52-2.88-5.17-8.25-8.83-14.24-9.09-2.24.06-9.55-.55-7.65 3.3 2.8 1.9 6.25 3.14 9.02 5.28 2.06.19 5.79 3.63 5.57 4.93-3.62-1.47-5.32-3.23-9.22-4.77-5.29-2.04-12.6-.82-15.53 4.43-.54 1.37-1.35 5.35.37 5.73 2-3.13 4.87-6.63 9.12-5.7 3.34.27-3.72 6.23-1.02 5.03.85-.38 2.83-1.68 4.2-1.81 1.38-.14 2.14.89 3.18 1.03 2.08.28 2.66 1.16 2.46 1.66-.22.6-.89.1-3 .76-1.06.34-1.61 1.27-2.85 1.7-1.23.42-3.8.45-4.76.07-3.35-1.46-8.86-1.2-9.9 3 0 1.85-1.65-.2-2.41.6-.57 2.02-.72 4.09-3.71 3.9-1.82 1.91-3.68 3.89-5.99 5.24 1.36 3.11 6.72-3.12 6.47-.5-2.34 3.2 1.2 3.88 2.76 1.42 2.63-2.78 5.9-6.16 9.81-3.36 1.87 1.76 2.96-.93 4.31-.79.85 2.19 1.93.1 2.9-.5 1.58-.2 1.13 1.97 3.01.63 3.75-2.48 8.37-.4 12.03-2.81 3.9-1.78.55 1.43-.53 2.68-1.71 3.32-.22 7.69-3.94 9.75-1.5 3.96 1.76 9.18-1.56 12.11-.48 1.84 4.27 1.63 5.6 2.38 2.35.1-.1-5.35 2.23-6.08 3.1 1.93 2.96-3.44 2.32-5.1.3-3.77.51-7.88 2.38-11.3 2-4.17 3.84 1.71 1.6 3.36-1.26 3.85-3.1 8.66-.22 12.23.83.19 1.5 2.2 2.58 2.81 1.07.62 2.54-.15 2.8-1.98 1.38-5.5.7-11.42 2.66-16.78 1.38-1.66 3.3-.26 4.16 1.26 2.75 3.2 4.7 7.2 8.03 9.83 3.03 1.42 5.72 3.57 7.12 6.7-.02 2.41 6.85 2.78 4.8.1-1.97-2.61-.67-5.22 1.32-6.96 1.07.27.75-1.65-.09-.89-1.34-.32-1.42-2.77.44-1.6 3.14 1.01-.24-2.28-1.38-2.38-2.65-1.64-5.7-3.54-7-6.4 3.45.04 7.04 1.9 10.57.75 2.83-1.46 5.7.12 6.69 2.61 2.19-.35 1.25-2.54 0-3.27 1.6-.66 2.7-2.03.77-3.24-1.03-1.34 1.37-3.62-1.58-3.53.1-2.25-.79-4.3-3.25-5.09-2.46-2.08-9.68 3.07-9.47-1.62-.72-2.56 2.94-.35 3.96-1.62 1.05-2.7-5.04-2.43-3.03-4.52 1.32-.85 7.48-2.06 2.65-2.97a7.62 7.62 0 0 1-6.38-1.02c-1.73 2.9-6.67-1.57-5.8 3.57-.67 1.94-5.08 6.98-6.28 3.12 1.02-3.02 6.25-4.01 4.63-8.09-.25-2.54-2.36.44-3.36.25-.5-1.58 1.53-3.45 2.94-3.82 2.8 2.15 2.88-2.72 5.55-2.33 1.94-.43-.63-1.26-1.17-1.63.53-1.42 3.52-2.15.59-3.39-2.58-1.92-4.5 1.91-6.63 2.11-2.05-2.3 1.86-3.42 2.93-4.63.06-.9-2.27-.27-1.57-1.06.61-1.1 4.74-1.17 2.8-2.81-2.9-1-6.67-.75-9.46.54-1.77.57-2.28 4.56-3.8 4.4-.72-1.78.23-5.28-2.21-5.8zm13.78 38.91c2.22-.37.04 3.38-1.02 3.32.1-1.34-3.22-1.21-1.16-2.39a6.68 6.68 0 0 1 2.18-.92z"/>
  <g fill="#ffe000" transform="translate(-25.75 103.46) scale(.05833)">
    <use width="100%" height="100%" x="7560" y="4200" xlink:href="#a"/>
    <use width="100%" height="100%" x="6300" y="2205" xlink:href="#a"/>
    <use width="100%" height="100%" x="7560" y="840" xlink:href="#a"/>
    <use width="100%" height="100%" x="8680" y="1869" xlink:href="#a"/>
    <use width="100%" height="100%" x="8064" y="2730" xlink:href="#b"/>
  </g>
</svg>
