<?xml version="1.0" encoding="UTF-8" standalone="no"?>
<!-- Created with Sodipodi ("http://www.sodipodi.com/") -->
<svg id="svg1" xmlns:rdf="http://www.w3.org/1999/02/22-rdf-syntax-ns#" xmlns="http://www.w3.org/2000/svg" height="512" width="512" version="1.1" xmlns:cc="http://creativecommons.org/ns#" xmlns:xlink="http://www.w3.org/1999/xlink" xmlns:dc="http://purl.org/dc/elements/1.1/">
 <metadata id="metadata3075">
  <rdf:RDF>
   <cc:Work rdf:about="">
    <dc:format>image/svg+xml</dc:format>
    <dc:type rdf:resource="http://purl.org/dc/dcmitype/StillImage"/>
   </cc:Work>
  </rdf:RDF>
 </metadata>
 <g id="flag">
  <rect id="rect124" height="512" width="512" y="-4.9738e-14" x="0" stroke-width="1pt" fill="#006"/>
  <g id="g584" stroke-width="1pt" transform="matrix(6.1 0 0 6.1 0 .000022888)">
   <path id="path146" d="m0 0v3.3541l53.292 26.646h6.708v-3.354l-53.292-26.646h-6.708zm60 0v3.354l-53.292 26.646h-6.708v-3.354l53.292-26.646h6.708z" fill="#fff"/>
   <path id="path136" d="m25 0v30h10v-30h-10zm-25 10v10h60v-10h-60z" fill="#fff"/>
   <path id="path141" d="m0 12v6h60v-6h-60zm27-12v30h6v-30h-6z" fill="#c00"/>
   <path id="path150" d="m0 30 20-10h4.472l-20 10h-4.472zm0-30 20 10h-4.472l-15.528-7.7639v-2.2361zm35.528 10 20-10h4.472l-20 10h-4.472zm24.472 20-20-10h4.472l15.528 7.764v2.236z" fill="#c00"/>
  </g>
  <g id="g808" fill-rule="evenodd" fill="#fff" transform="matrix(.76758 0 0 .77858 -234.75 154.37)">
   <polygon id="polygon791" transform="matrix(.81872 .038176 -.037190 .79758 211.47 -51.031)" d="m 659.70147,186.56717 7.73069,-29.84368 -25.29727,-17.61977 30.77193,-1.86988 8.94011,-29.50395 11.28741,28.68803 30.82257,-0.61468 -23.79593,19.60006 10.10929,29.12406 -25.99411,-16.57453 z" points="659.7 186.57 667.43 156.72 642.14 139.1 672.91 137.23 681.85 107.73 693.13 136.42 723.96 135.8 700.16 155.4 710.27 184.53 684.28 167.95"/>
   <polygon id="polygon794" transform="matrix(.75849 .31057 -.30255 .73890 360.23 -215.16)" d="m 659.70147,186.56717 7.73069,-29.84368 -25.29727,-17.61977 30.77193,-1.86988 8.94011,-29.50395 11.28741,28.68803 30.82257,-0.61468 -23.79593,19.60006 10.10929,29.12406 -25.99411,-16.57453 z" points="659.7 186.57 667.43 156.72 642.14 139.1 672.91 137.23 681.85 107.73 693.13 136.42 723.96 135.8 700.16 155.4 710.27 184.53 684.28 167.95"/>
   <polygon id="polygon795" transform="matrix(.78299 -.24225 0.236 .76277 127.08 160.08)" d="m 659.70147,186.56717 7.73069,-29.84368 -25.29727,-17.61977 30.77193,-1.86988 8.94011,-29.50395 11.28741,28.68803 30.82257,-0.61468 -23.79593,19.60006 10.10929,29.12406 -25.99411,-16.57453 z" points="659.7 186.57 667.43 156.72 642.14 139.1 672.91 137.23 681.85 107.73 693.13 136.42 723.96 135.8 700.16 155.4 710.27 184.53 684.28 167.95"/>
   <polygon id="polygon796" transform="matrix(.62728 -.52752 .5139 .61108 136.01 414.06)" d="m 659.70147,186.56717 7.73069,-29.84368 -25.29727,-17.61977 30.77193,-1.86988 8.94011,-29.50395 11.28741,28.68803 30.82257,-0.61468 -23.79593,19.60006 10.10929,29.12406 -25.99411,-16.57453 z" points="659.7 186.57 667.43 156.72 642.14 139.1 672.91 137.23 681.85 107.73 693.13 136.42 723.96 135.8 700.16 155.4 710.27 184.53 684.28 167.95"/>
   <polygon id="polygon797" transform="matrix(.34058 -.74549 .72624 .33179 266.38 664.02)" d="m 659.70147,186.56717 7.73069,-29.84368 -25.29727,-17.61977 30.77193,-1.86988 8.94011,-29.50395 11.28741,28.68803 30.82257,-0.61468 -23.79593,19.60006 10.10929,29.12406 -25.99411,-16.57453 z" points="659.7 186.57 667.43 156.72 642.14 139.1 672.91 137.23 681.85 107.73 693.13 136.42 723.96 135.8 700.16 155.4 710.27 184.53 684.28 167.95"/>
   <polygon id="polygon798" transform="matrix(.015844 -.81945 .79829 .015434 466.71 832.56)" d="m 659.70147,186.56717 7.73069,-29.84368 -25.29727,-17.61977 30.77193,-1.86988 8.94011,-29.50395 11.28741,28.68803 30.82257,-0.61468 -23.79593,19.60006 10.10929,29.12406 -25.99411,-16.57453 z" points="659.7 186.57 667.43 156.72 642.14 139.1 672.91 137.23 681.85 107.73 693.13 136.42 723.96 135.8 700.16 155.4 710.27 184.53 684.28 167.95"/>
   <polygon id="polygon799" transform="matrix(-.31707 -.75580 .73628 -.30888 725.66 902.38)" d="m 659.70147,186.56717 7.73069,-29.84368 -25.29727,-17.61977 30.77193,-1.86988 8.94011,-29.50395 11.28741,28.68803 30.82257,-0.61468 -23.79593,19.60006 10.10929,29.12406 -25.99411,-16.57453 z" points="659.7 186.57 667.43 156.72 642.14 139.1 672.91 137.23 681.85 107.73 693.13 136.42 723.96 135.8 700.16 155.4 710.27 184.53 684.28 167.95"/>
   <polygon id="polygon800" transform="matrix(-.55852 -.59985 .58436 -.54409 956.23 884.09)" d="m 659.70147,186.56717 7.73069,-29.84368 -25.29727,-17.61977 30.77193,-1.86988 8.94011,-29.50395 11.28741,28.68803 30.82257,-0.61468 -23.79593,19.60006 10.10929,29.12406 -25.99411,-16.57453 z" points="659.7 186.57 667.43 156.72 642.14 139.1 672.91 137.23 681.85 107.73 693.13 136.42 723.96 135.8 700.16 155.4 710.27 184.53 684.28 167.95"/>
   <polygon id="polygon801" transform="matrix(-.79561 -.19686 .19178 -.77507 1238.3 669.37)" d="m 659.70147,186.56717 7.73069,-29.84368 -25.29727,-17.61977 30.77193,-1.86988 8.94011,-29.50395 11.28741,28.68803 30.82257,-0.61468 -23.79593,19.60006 10.10929,29.12406 -25.99411,-16.57453 z" points="659.7 186.57 667.43 156.72 642.14 139.1 672.91 137.23 681.85 107.73 693.13 136.42 723.96 135.8 700.16 155.4 710.27 184.53 684.28 167.95"/>
   <polygon id="polygon802" transform="matrix(-.79806 .18671 -.18189 -.77745 1368.5 407.85)" d="m 659.70147,186.56717 7.73069,-29.84368 -25.29727,-17.61977 30.77193,-1.86988 8.94011,-29.50395 11.28741,28.68803 30.82257,-0.61468 -23.79593,19.60006 10.10929,29.12406 -25.99411,-16.57453 z" points="659.7 186.57 667.43 156.72 642.14 139.1 672.91 137.23 681.85 107.73 693.13 136.42 723.96 135.8 700.16 155.4 710.27 184.53 684.28 167.95"/>
   <polygon id="polygon803" transform="matrix(-.42514 .70072 -.68263 -.41416 1277.6 -266.62)" d="m 659.70147,186.56717 7.73069,-29.84368 -25.29727,-17.61977 30.77193,-1.86988 8.94011,-29.50395 11.28741,28.68803 30.82257,-0.61468 -23.79593,19.60006 10.10929,29.12406 -25.99411,-16.57453 z" points="659.7 186.57 667.43 156.72 642.14 139.1 672.91 137.23 681.85 107.73 693.13 136.42 723.96 135.8 700.16 155.4 710.27 184.53 684.28 167.95"/>
   <polygon id="polygon804" transform="matrix(-.68567 .44902 -.43743 -.66796 1454.9 1.4861)" d="m 659.70147,186.56717 7.73069,-29.84368 -25.29727,-17.61977 30.77193,-1.86988 8.94011,-29.50395 11.28741,28.68803 30.82257,-0.61468 -23.79593,19.60006 10.10929,29.12406 -25.99411,-16.57453 z" points="659.7 186.57 667.43 156.72 642.14 139.1 672.91 137.23 681.85 107.73 693.13 136.42 723.96 135.8 700.16 155.4 710.27 184.53 684.28 167.95"/>
   <polygon id="polygon805" transform="matrix(-.81122 .11694 -.11392 -.79028 1496.6 313.7)" d="m 659.70147,186.56717 7.73069,-29.84368 -25.29727,-17.61977 30.77193,-1.86988 8.94011,-29.50395 11.28741,28.68803 30.82257,-0.61468 -23.79593,19.60006 10.10929,29.12406 -25.99411,-16.57453 z" points="659.7 186.57 667.43 156.72 642.14 139.1 672.91 137.23 681.85 107.73 693.13 136.42 723.96 135.8 700.16 155.4 710.27 184.53 684.28 167.95"/>
   <polygon id="polygon806" transform="matrix(-0.802 -0.169 .16464 -.78129 1425 574.38)" d="m 659.70147,186.56717 7.73069,-29.84368 -25.29727,-17.61977 30.77193,-1.86988 8.94011,-29.50395 11.28741,28.68803 30.82257,-0.61468 -23.79593,19.60006 10.10929,29.12406 -25.99411,-16.57453 z" points="659.7 186.57 667.43 156.72 642.14 139.1 672.91 137.23 681.85 107.73 693.13 136.42 723.96 135.8 700.16 155.4 710.27 184.53 684.28 167.95"/>
   <polygon id="polygon807" transform="matrix(-.59473 -.56396 .54940 -.57938 1179.6 862.83)" d="m 659.70147,186.56717 7.73069,-29.84368 -25.29727,-17.61977 30.77193,-1.86988 8.94011,-29.50395 11.28741,28.68803 30.82257,-0.61468 -23.79593,19.60006 10.10929,29.12406 -25.99411,-16.57453 z" points="659.7 186.57 667.43 156.72 642.14 139.1 672.91 137.23 681.85 107.73 693.13 136.42 723.96 135.8 700.16 155.4 710.27 184.53 684.28 167.95"/>
  </g>
 </g>
</svg>
