<svg xmlns="http://www.w3.org/2000/svg" height="512" width="512"><g><rect height="512" width="512" fill="#006"/><g><path d="M0 0v20.46l325.081 162.541h40.919v-20.459l-325.081-162.541h-40.919zm366 0v20.459l-325.081 162.541h-40.919v-20.459l325.081-162.541h40.919z" fill="#fff"/><path d="M152.5 0v183h61v-183h-61zm-152.5 61v61h366v-61h-366z" fill="#fff"/><path d="M0 73.2v36.6h366v-36.6h-366zm164.7-73.2v183h36.6v-183h-36.6z" fill="#c00"/><path d="M0 183l122-61h27.279l-122 61h-27.279zm0-183l122 61h-27.279l-94.721-47.36v-13.64zm216.721 61l122-61h27.279l-122 61h-27.279zm149.279 122l-122-61h27.279l94.721 47.36v13.64z" fill="#c00"/></g><g fill-rule="evenodd" fill="#fff" transform="matrix(.768 0 0 .779 -234.75 154.37)"><polygon transform="matrix(.819 .038 -.037 .798 211.47 -51.031)" points="659.7 186.57 667.43 156.72 642.14 139.1 672.91 137.23 681.85 107.73 693.13 136.42 723.96 135.8 700.16 155.4 710.27 184.53 684.28 167.95"/><polygon transform="matrix(.758 .311 -.303 .739 360.23 -215.16)" points="659.7 186.57 667.43 156.72 642.14 139.1 672.91 137.23 681.85 107.73 693.13 136.42 723.96 135.8 700.16 155.4 710.27 184.53 684.28 167.95"/><polygon transform="matrix(.783 -.242 .236 .763 127.08 160.08)" points="659.7 186.57 667.43 156.72 642.14 139.1 672.91 137.23 681.85 107.73 693.13 136.42 723.96 135.8 700.16 155.4 710.27 184.53 684.28 167.95"/><polygon transform="matrix(.627 -.528 .514 .611 136.01 414.06)" points="659.7 186.57 667.43 156.72 642.14 139.1 672.91 137.23 681.85 107.73 693.13 136.42 723.96 135.8 700.16 155.4 710.27 184.53 684.28 167.95"/><polygon transform="matrix(.341 -.745 .726 .332 266.38 664.02)" points="659.7 186.57 667.43 156.72 642.14 139.1 672.91 137.23 681.85 107.73 693.13 136.42 723.96 135.8 700.16 155.4 710.27 184.53 684.28 167.95"/><polygon transform="matrix(.016 -.819 .798 .015 466.71 832.56)" points="659.7 186.57 667.43 156.72 642.14 139.1 672.91 137.23 681.85 107.73 693.13 136.42 723.96 135.8 700.16 155.4 710.27 184.53 684.28 167.95"/><polygon transform="matrix(-.317 -.756 .736 -.309 725.66 902.38)" points="659.7 186.57 667.43 156.72 642.14 139.1 672.91 137.23 681.85 107.73 693.13 136.42 723.96 135.8 700.16 155.4 710.27 184.53 684.28 167.95"/><polygon transform="matrix(-.559 -.6 .584 -.544 956.23 884.09)" points="659.7 186.57 667.43 156.72 642.14 139.1 672.91 137.23 681.85 107.73 693.13 136.42 723.96 135.8 700.16 155.4 710.27 184.53 684.28 167.95"/><polygon transform="matrix(-.796 -.197 .192 -.775 1238.3 669.37)" points="659.7 186.57 667.43 156.72 642.14 139.1 672.91 137.23 681.85 107.73 693.13 136.42 723.96 135.8 700.16 155.4 710.27 184.53 684.28 167.95"/><polygon transform="matrix(-.798 .187 -.182 -.777 1368.5 407.85)" points="659.7 186.57 667.43 156.72 642.14 139.1 672.91 137.23 681.85 107.73 693.13 136.42 723.96 135.8 700.16 155.4 710.27 184.53 684.28 167.95"/><polygon transform="matrix(-.425 .701 -.683 -.414 1277.6 -266.62)" points="659.7 186.57 667.43 156.72 642.14 139.1 672.91 137.23 681.85 107.73 693.13 136.42 723.96 135.8 700.16 155.4 710.27 184.53 684.28 167.95"/><polygon transform="matrix(-.686 .449 -.437 -.668 1454.9 1.486)" points="659.7 186.57 667.43 156.72 642.14 139.1 672.91 137.23 681.85 107.73 693.13 136.42 723.96 135.8 700.16 155.4 710.27 184.53 684.28 167.95"/><polygon transform="matrix(-.811 .117 -.114 -.79 1496.6 313.7)" points="659.7 186.57 667.43 156.72 642.14 139.1 672.91 137.23 681.85 107.73 693.13 136.42 723.96 135.8 700.16 155.4 710.27 184.53 684.28 167.95"/><polygon transform="matrix(-.802 -.169 .165 -.781 1425 574.38)" points="659.7 186.57 667.43 156.72 642.14 139.1 672.91 137.23 681.85 107.73 693.13 136.42 723.96 135.8 700.16 155.4 710.27 184.53 684.28 167.95"/><polygon transform="matrix(-.595 -.564 .549 -.579 1179.6 862.83)" points="659.7 186.57 667.43 156.72 642.14 139.1 672.91 137.23 681.85 107.73 693.13 136.42 723.96 135.8 700.16 155.4 710.27 184.53 684.28 167.95"/></g></g></svg>