<svg xmlns="http://www.w3.org/2000/svg" xmlns:xlink="http://www.w3.org/1999/xlink" width="512" height="512" viewBox="-5 -5 10.24 10.24">
    <title>
        Flag of the People&apos;s Republic of China
    </title>
    <defs>
        <path id="b" fill="#ffde00" d="M.951-.309l-1.539 1.118.588-1.809.588 1.809-1.539-1.118z"/>
        <clipPath>
            <path d="M-5-15.4h26.667v20h-26.667z"/>
        </clipPath>
        <clipPath id="a">
            <path d="M-5-15.4h20v20h-20z"/>
        </clipPath>
    </defs>
    <g transform="matrix(.512 0 0 .512 -2.44 2.885)" clip-path="url(#a)">
        <path fill="#de2910" d="M-5-15.4h30v20h-30z"/>
        <use height="20" width="30" transform="matrix(3 0 0 3 0 -10.4)" xlink:href="#b"/>
        <use height="20" width="30" transform="matrix(-.514 -.857 .857 -.514 5 -13.4)" xlink:href="#b"/>
        <use height="20" width="30" transform="matrix(-.141 -.99 .99 -.141 7 -11.4)" xlink:href="#b"/>
        <use height="20" width="30" transform="matrix(.275 -.962 .962 .275 7 -8.4)" xlink:href="#b"/>
        <use height="20" width="30" transform="matrix(.625 -.781 .781 .625 5 -6.4)" xlink:href="#b"/>
    </g>
</svg>
