<svg xmlns="http://www.w3.org/2000/svg" height="512" width="512">
  <desc>
    The United States of America flag, produced by Daniel McRae
  </desc>
  <g fill-rule="evenodd" clip-path="url(#a)">
    <path fill="#fff" d="M-123.43 233.05h846.53v205.97h-846.53z"/>
    <path fill="#081873" d="M-122.76 0h845.95v256.64h-845.95z"/>
    <path fill="#081873" d="M-122.52 385.87h852.12v126.13h-852.12z"/>
    <path fill="#de3929" d="M-122.52 302.55h845.95v39.649h-845.95z"/>
    <path fill="#ffce08" d="M130.92 399.168l6.65 20.468h21.521l-17.411 12.65 6.651 20.468-17.411-12.65-17.411 12.65 6.651-20.468-17.411-12.65h21.521z"/>
    <path fill="#ffce08" d="M316.91 250.498l6.65 20.468h21.521l-17.411 12.65 6.651 20.468-17.411-12.65-17.411 12.65 6.651-20.468-17.411-12.65h21.521z"/>
    <path fill="#ffce08" d="M88.271 335.448l6.65 20.468h21.521l-17.411 12.65 6.651 20.468-17.411-12.65-17.411 12.65 6.651-20.468-17.411-12.65h21.521z"/>
    <path fill="#ffce08" d="M316.91 329.458l6.65 20.468h21.521l-17.411 12.65 6.651 20.468-17.411-12.65-17.411 12.65 6.651-20.468-17.411-12.65h21.521z"/>
    <path fill="#ffce08" d="M269.82 188.178l6.65 20.468h21.521l-17.411 12.65 6.651 20.468-17.411-12.65-17.411 12.65 6.651-20.468-17.411-12.65h21.521z"/>
    <path fill="#ffce08" d="M198.74 163.428l6.65 20.468h21.521l-17.411 12.65 6.651 20.468-17.411-12.65-17.411 12.65 6.651-20.468-17.411-12.65h21.521z"/>
    <path fill="#ffce08" d="M127.65 186.788l6.65 20.468h21.521l-17.411 12.65 6.651 20.468-17.411-12.65-17.411 12.65 6.651-20.468-17.411-12.65h21.521z"/>
    <path fill="#ffce08" d="M86.184 250.498l6.65 20.468h21.521l-17.411 12.65 6.651 20.468-17.411-12.65-17.411 12.65 6.651-20.468-17.411-12.65h21.521z"/>
    <path fill="#ffce08" d="M198.74 420.408l6.65 20.468h21.521l-17.411 12.65 6.651 20.468-17.411-12.65-17.411 12.65 6.651-20.468-17.411-12.65h21.521z"/>
    <path fill="#ffce08" d="M274.26 399.168l6.65 20.468h21.521l-17.411 12.65 6.651 20.468-17.411-12.65-17.411 12.65 6.651-20.468-17.411-12.65h21.521z"/>
  </g>
</svg>
