<svg xmlns="http://www.w3.org/2000/svg" xmlns:xlink="http://www.w3.org/1999/xlink" id="flag-icon-css-cy" width="512" height="512">
  <path fill="#fff" d="M0 0h512v512H0z"/>
  <path id="a" fill="#435125" d="M243.03 425.17a.87.87 0 0 1-.3-.2l-.1-.1c-.28-.26-.74-.7-1.35-1.4-1.14-1.3-2.66-3.19-4-4.86-2.66-3.31-4.86-6.17-5.27-6.7l-.68-.88-6.63-2.05-4.84-2.25 2.59-2.9 8.88 3.8 6.63 1.35L250.2 418c-.03.02-1.79 1.49-3.54 3.07-.78.71-1.76 1.62-2.45 2.38-.32.35-.6.7-.8.97a2.18 2.18 0 0 0-.21.4l.76-.47.82.64-1.68.16-.07.02zm-45.52-13.67c-5.78 0-11.5-1.6-16.97-4.75h-.01s.72-1.37 2.46-2.65c1.65-1.22 4.64-2.67 9.47-2.69h.1c5.71 0 12.71 1.95 20.8 5.78-.28.18-6.62 4.31-15.85 4.31l.01.01zm-25.06-5.55c-1.07 0-2.03-.4-2.7-1.14a5.5 5.5 0 0 1-1.22-2.46 12.52 12.52 0 0 1-.3-3.6 3.71 3.71 0 0 1 1.34-.3h.1c2.13 0 3.82 1.86 4.55 3.7.4 1.05.49 1.93.23 2.62s-1.06 1.17-2 1.17zm44.1-5.11c-14.81-2.12-21.09-7.47-23.75-11.6a13.4 13.4 0 0 1-2.25-8.5h.01s.91-.25 2.27-.26c3.94 0 14.02 1.98 23.72 20.35h.01-.02zm-30.36-2.94c-6.33 0-11.15-1.09-14.32-3.24a8.8 8.8 0 0 1-3.15-3.52 5.77 5.77 0 0 1-.5-1.73 19.39 19.39 0 0 1 7.62-1.43c4.9 0 12.33 1.6 20.18 9.2-3.59.47-6.9.72-9.84.72zm-30.64-1.18c-6.68 0-15.84-2.03-21.56-7.75v-.01a66.9 66.9 0 0 1 14.51-1.78c6.26 0 11.05 1.22 14.24 3.6 1.11.84 1.72 1.62 1.86 2.38.11.64-.23 1.32-.9 1.84-1.44 1.08-4 1.66-7.64 1.72l-.51.01zm-21.63-11.09a2.74 2.74 0 0 1-2.11-1 5.02 5.02 0 0 1-.95-2.15c-.35-1.57-.25-3.12-.25-3.13v-.02c.31-.14.66-.22 1.04-.23 1 0 1.74.54 2.21.99a5.94 5.94 0 0 1 1.44 2.25c.32.88.37 1.62.16 2.25-.17.5-.75 1.03-1.54 1.03zm49.95-1.13c-1.07 0-2.03-.4-2.7-1.13a5.5 5.5 0 0 1-1.22-2.46 12.52 12.52 0 0 1-.3-3.6 3.71 3.71 0 0 1 1.33-.3h.1c2.14 0 3.83 1.86 4.55 3.7.41 1.04.5 1.93.24 2.62-.26.7-1.07 1.17-2 1.17zm-24.33-1c-13.43-.48-20.4-4.3-23.88-7.41a15.65 15.65 0 0 1-3.62-4.65 9.92 9.92 0 0 1-.77-2.08h.01s1.27-.46 3.32-.5h.31c4.53 0 13.75 1.9 24.62 14.63v.01zm14.58-1.36c-10.8-1.64-16.92-6.28-20.15-9.89a20.63 20.63 0 0 1-4.45-7.45c.02 0 1.34-.35 3.33-.4a16.2 16.2 0 0 1 .92 0c5.43.12 15.3 2.58 20.35 17.73h.01zm-55.46-5.19c-3.54 0-6.98-.4-10.21-1.22-5.66-1.41-8.08-3.57-9.12-5.13a5.42 5.42 0 0 1-.88-2.17 3.64 3.64 0 0 1-.03-.91l.03-.01s3.75-1.06 8.93-1.13a37.36 37.36 0 0 1 7.92.7 23.16 23.16 0 0 1 13.7 8.65v.01c-.06.01-4.34 1.21-10.35 1.21zm25.08-9.11c-1.09 0-2.05-.4-2.71-1.11a5.53 5.53 0 0 1-1.21-2.48 12.3 12.3 0 0 1-.3-3.58 3.71 3.71 0 0 1 1.33-.3h.1c2.13 0 3.83 1.86 4.55 3.7.4 1.01.47 1.88.2 2.6-.26.7-1.03 1.17-1.96 1.17zm-18.86-2.59c-.08-.02-5.1-1.3-10.21-4.46-4.74-2.9-10.52-8.06-11.23-16.07h.01s.44-.1 1.1-.13h.28c1.41 0 4.3.4 7.8 3.05 4.46 3.4 8.57 9.32 12.25 17.62zm12.31-.45c-.03-.01-3.6-1.44-8.08-5.2-4.17-3.48-10.02-9.77-14.26-19.9 0 0 .97-.52 2.46-.61a3.71 3.71 0 0 1 .26 0h.4c2.05.06 5.18.91 8.66 4.66 3.99 4.3 7.55 11.38 10.58 21.03l.01.03h-.02zm-31.9-.93c-4.12 0-5.53-2.23-5.94-3.2a6.65 6.65 0 0 1-.47-3.15v-.02a9.06 9.06 0 0 1 2.04-.27h.14c3.25 0 5.8 1.65 6.9 3.28.22.32.89 1.44.34 2.32-.45.69-1.45 1.04-3.02 1.04zm-9.12-11.5c-2.3 0-5.8-.13-9.5-.8-3.67-.67-5.75-3.79-6.84-6.28-1.2-2.72-1.53-5.31-1.54-5.34h.01c11.34.33 16.69 3.64 19.19 6.36a9.99 9.99 0 0 1 2.73 5.9c-.02 0-1.62.16-4.05.16zm11.8-11.79a45.62 45.62 0 0 1-2.58-3.6c-1.35-2.1-2.59-4.27-2.59-6.05 0-1.72-.4-5.35-.64-7.36-.31-2.54-.62-4.72-.64-4.9.3.1 7.1 2.65 7.1 9.03 0 6.4-.63 12.81-.64 12.88h-.01zm-8.81-.6c-.07 0-.14 0-.21-.02-2.01-.34-5.55-1.87-9.45-4.11-4.34-2.49-7.86-5.15-9.92-7.5-1.88-2.15-2.99-5.51-3.31-10.01-.23-3.2.04-5.85.07-6.11a3.53 3.53 0 0 1 1.13-.18c1.5.03 3.1.7 5.28 2.2a42.42 42.42 0 0 1 5.54 4.7 84.46 84.46 0 0 1 6.14 6.8l.03.04c.22.4 2.16 3.9 3.67 7.3.96 2.16 1.5 3.72 1.73 4.9.12.68.16 1.12 0 1.53a.77.77 0 0 1-.34.38.92.92 0 0 1-.37.07z"/>
  <use width="100%" height="100%" transform="matrix(-1 0 0 1 462.66 0)" xlink:href="#a"/>
  <path fill="#d47600" d="M468.33 81.47l-2 .8-.8.32-2.43-.14-2.28 1.1-4.04 2.76-.18.13-1.51.4-1.4-.61-.8.36-.27 1.64-.75 1.17-.94.66-3.22.33-2.73 1.4-3.54-.94-1.64.64-3.5 3.15-1.79.85-.62-.04-2.37-.12-1 .33-1.5 1.44-2.83.22-.88.61-1.38 2.79-1.5 1.54-.85.18-.93-.34-.7.12-.31 1.78-.68.75-1.9.65-1.5 1.26-1.33.68-1.78-.04h-.41l-1.77.98-3.34.29-1.38 1.32-.3.28-.65.4-1.06.62-.26.16-1.28-.23-1.49.6-.6-.93-1.04.62-1.37.06-1.7-.76-1.3-.58-.95.13-.33 1.66-.03.18-1 1.32-1.87 1.13-.25.33-2.12 2.74-4.03 4.24-3.4 1.73-3.54 1.07-2.47 2.03-6.49 3.22L357.8 135l-2.1.67-3 .48-5.35 1.97-4.73 1.43-.27.08-.93.28-6.66 2.02-3.1-.33-1.84.67-4.79-.53-3.32.06-2.1.44-3.96 1.9-6.68 3.2-2.21 2.03-3.44 1.8-4.02 1.26.01-1.69-.02-.07-1.4.44-1 .32-3.27.5h-1.82l-1.13-.32-.17.06-6.67 2.2-7.44.71-3.72 1.2-2.79-.05-1.74.52-3.4.42-1.22-.33-.28-.08-10.02.44-4.59-.52-2.19.5-3.66-1.23-5.35-.62-1.25-.38-2.81-.83-1.28.73-.95.1-2.27-.82-.82-.03-1.88.68-1.09-.27-1-.8-2.36-.35-1.43-1.21-8.02 1.06-2.18-.64-7.3-2.12-1.16.05-1.45 1.09-2.17.8-1.9.48-2.56.1-2.99-.8-3.07-1.48-1.14-.27-2.54.25-.77.07-4.67-2.5-6.01-3.76-4.08-1.96-1.53-.24-.2.72.76 2.4.26 2.37-.08 2.18-.04 1.36.38 1.21 1.47 1.63.61 1.64.45 4.51v4.58l-.72 7.3-.24 1.1-.86 3.78-.78 3.48-3.02 9.24-.83 1.15-2.04 1.39-4.63 3.15-3.4 1.96-1.08.45-2.76.2-1.73-.08-2.14-1.16-2.1-.55-2.76-1.98-3.07-.63-3.36-1.95-.88-1.05-1.83-.17-2.54-.76-.93-.29-.65-.19-3.24-.09-3.02-1.39-1.59-.38-2.17-.11-2.28 1.05-1.15.54-1.46-.58-1.05.06-1.2 1.8-.17.29-.82.43-1.03-.01-.8-.02-.87.38-1.17.5-1.03.46-.5.21-.32.06-.55.1-.68.12-1.2-.7-.64-.38-1.08-.22-.58.42-.1 1.97-.54 1.17-1.67 1.48-1.7 1.5-1.19 1.74-3.13 7.16-1.97 2.9-.6.67-2.06 2.26-1.83 1.42-4.2 3.25-3.97 1.49-3.42.7h-1.67l-3.15-.42-2.84-.87-3.11-1.95-3.42-2.74-4.94-4.89-.7-.42-.15-.1-1.56-.99-1.15.03-.45.74-.25 1.08-.21.96-.57 5.43.05.32.3 2.23 3.75 5.25 1.16 2.79.19.32.77 1.3.6 1 .05.1L57 232l-.9 2.16.46 1.45-1.14.89-.21 1.25 3.37 4.22.74 1.87-.82 2.58-1.32 1.43-.36.39.18 1.09 1.55 1.4 2.64 2.34 1.4 3.49 1.07.94 1.24-.27.7.53 1.04-.02 1.03 1.03.67.32 1.06.53.83 1.08.19 3.34 1.55 4.15.03 2.25v.32l.97 1.66.3 1.31-.51 3.47 1.23 1.12 1.34-.28.86.14 1.4 1.16 1.67 2.56 1.64-.24 1.05.5 5.03 4.55 1.15.58.06.03.82.42 1.02 1.03 1.59-1.05.17-.02 1.73-.15.75.5 1.45.99 1.91-.03 4.13 1.27 1.81.46 3.64 2.26 1.54.96.92.74 1.21 1 2.43 1.04 2.08.5 1.13.26.85.33.02-.05h.01l-.02.05 4.5 1.73 2.45.57 2.26.83 1.64.6 1.21.02 1.7-1.43 1.66-.1 1.37.34 1.34-.22 2.12-1.3.42-.62 1.5-.72 5.07-.63 1.49.48 3.8-1.65 2.55.7 2.26-.8 4.93 1.1 1.31.93 1.47 1.67.18.01 1.63.03-.68 1.14 2.15 2.26 1.94 2.94.13.38 1.42 4.15 1.05 1.47.74 2.06.03 1.33-1.14.88-.19.5-.06.18.23.56.43-.24.82-.45 1-.16 1.76.2 1.16.11 1.84-.9 1.22-.62 1.96.85 2.15-.03.9.4 2.55 1.16 1.3.13.5-.32.3-.73-.16-.85-.98-1.13-2.16-2.5-.88-1.3-.68-1.86-.2-2.39-.15-1.6.26-2.12.58-.75.43-1.68.12-.44 1.2-1.6 3.18-2.03 3.4-3.06 2.7-1.78 2.79-1.2.07-.34.31.12 7.08-2.4.12-.02 3.15-.55 21.26 1.5.8-.24.7-1.99.38-.37.26-.24 2.33-1.03 1.1-.15 3.03.75 1.24.3 2-1.11 1.4.02 2.92-1.59 1.8.05.69-.28 3.5-2.52 3.39-.97.88-.47.3-.17 3.47-1.83 2.2-1.69 1.9-1 2.08-.54 5.44-.38 1.1-1.83 2.34-.31 1.42-1.6 1.61-.66 1.16-1.67.98-1.4 1.35-.78 4.36-.28 5.15.64.69-.41 1.16-4.16 1.22-.78 3.29-4.79v-1.75l.01-1.45.54-2.08-.37-3.75.44-3.79 2.04-4.82 1.8-1.95 2.9-1.96 1.48-.64 2.1-.35.3-.06.53-.09 7.2-.1c.1-.07 2.62-.04 2.62-.04l2.4-.03 6.07 1.08.43.08 2.05.66 2.37 1.84 2.5 2.45.47.45 1.63.69.49.21 1.34-.21 1.9-1 1.45-1.21 1.96-1.08.05-.07 1.1-1.66.04-.03h.02-.02l.44-.67 3.8-1.48 4.46-.26.5-.27.28-.15 1.18-1.38 1.1-.01 2.68.96 1.88-.37 1.5.6 1.15-.14 2.19-.26 2.35 1.65 1.37.18 4.83 2.82.25.04.13.03.27.04.58-.17.85-.24.11-.03.1.14.56.78.75.1.89-1.18-.35-.54-.14-.2-1.72-.35-1.55-2.65 1.47-1.59-2.31-2.83-.38-.48-.13-.2-.8-1.2-4.05-6.18-5.28-4.21-1.85-1.48-.66-.52-2.82-2.86-2-2.67-.27-.58-.42-.9-1.2-2.63-2.1-1.62-1.72-1.87-.08-.1-3.53-4.8-.58-.81-.84-.49h-1.76l-.16-.18-.1-.1.06-.06.84-.84.94-.24.41-.93-1.8-5.2-.01-.19-.14-1.66 1.47-7.56.19-.92 2.5-5.09 1.55-1.27 1.69-3.32 1.44-2.12 1.39-1.35.24-.14 2.5-1.52 2.11-.3 2-.27 3.5 1.07 3.33-.06.65-.07 1.51-.17 2.48-.79 1.18-.72.6-.93 1.27-4.26.41-1.35.78-1.47 4.53-5.22 3.43-3.16 7.7-5.64 3.76-2.26 1.92-1.15 17.18-7.63 4.46-4.52 2.32-2.36 4.12-2.76 4.81-1.97 4.14-3.28.9-1.14 1.15-3.67.95-.23.86-1.85.24-.53 3.38-2.38.38-.2L456 94.96l1.91.27 1.02-1.53 3.82-.64.7-.12.95-.48.8-1.36v-.27l.1-3.65.82-.98.45-2.4.42-.56.44-.58 1.08-.76-.2-.45z"/>
</svg>
