<svg xmlns="http://www.w3.org/2000/svg" height="512" width="512">
  <path fill="#fff" d="M-2.086 2.086h512v512h-512z"/>
  <path fill-rule="evenodd" fill="gray" d="M255.14 238.08l1.38-1.816-.717-2.162 2.153.748 1.833-1.35-.047 2.276 1.848 1.332-2.175.657-.693 2.17-1.3-1.87"/>
  <path d="M128.27 257.88h.25c-.668 0-.317-.05.752.765.873.355 1.642.51 3.005.51 1.195.087 2.23.255 3.507.255 1.175.504 1.844.965 2.755 1.274.4.62 1.277 2.007 1.752 2.55.882.66 1.947 1.063 2.755 1.784 1.008.28 1.65.716 2.755 1.53.833.4 1.62.73 2.755 1.274 1.09.383 2.282.897 3.256 1.275.858.205 2.006.556 2.755 1.02 1.065.234 1.958.537 3.257.764 1.326.162 1.995.518 3.255.766 1.132.583 2.014 1.018 3.257 1.53.504.754.937 1.433 2.003 1.783.548.675 1.456.854 2.004 1.53.807.388 1.695.646 2.755 1.02 1.276.092 2.197.46 3.505.51h7.014c1.117.134 2.37.312 3.254.508 1.226 0 2.42.022 3.507-.254 1.403-.017 2.056-.416 3.257-.51 1.34.216 2.25.097 2.755 1.275.83.843 1.335 1.67 1.503 2.803.264.806.25 2.138.25 3.313 0 1.108.007 2.314.25 3.06.798.783 1.42 1.014 2.506 1.274.806.273 2.29.51 3.006 1.02.592.632.882 1.636 1.753 2.294.762.596 2.036.72 3.255.764h3.507c1.095 0 2.547.107 3.256-.254 1.085-.402 1.37-1.148 2.755-1.275 1.305.2 1.278.828 2.254 1.274.62.91 1.21 1.287 2.004 1.784.516.75 1.19 1.33 2.255 1.53 1.305-.135 2.486-.524 3.507-.765.357-.91.794-1.538 1.252-2.295.34-.584.5-.735.5-1.784.375-.762.33-2.312 0-3.314-.047-1.297-.345-1.982-.5-3.314 0-1.235.058-2.41.25-3.313.515-.605.85-1.594 1.253-2.295.683-.834 1.316-1.148 2.254-1.53.793-.268 2.102-.255 3.257-.255.613-.186 1.63-.124 1.252-.51-.326.332-1.572.436-.25.51.718-.496 2.03-.724 2.754-1.02 1.07-.163 1.71-.533 2.755-.763.78-.466 1.653-.688 2.754-1.02.907-.352 1.927-.695 3.006-1.02 1.153-.552 1.864-.863 3.005-1.02.785-.42 1.772-.51 3.006-.51 1.158.756 1.766 1.348 2.756 2.295.473.71.897 1.135 1.252 2.04.802.554 1.23.963 2.755 1.02 1.206 0 1.685.208 2.004-.766.66-.6 1-1.657 1.753-2.295.748-.748 1.67-1.127 2.505-1.53.94-.26 1.7-.607 3.005-.764.87-.323 1.767-.39 2.755.255.736 1.046 1.566 2.112 2.505 3.315.637.42 1.417.51 2.504.51.765-.39 2.343-.256 3.507-.256 1.027.3 1.475.988 2.506 1.275.576.058.887.254 1.503.254 1.83.242 2.593.058 4.006-.255h3.507c1.23.046 1.894.254 3.255.254.76.47 2.066.688 3.006 1.02 1.186.284 1.412.742 2.505 1.274.707.36 2.16.255 3.255.255 1.307-.158 2.176-.385 3.256-.765.95-.236 1.353-.48 1.754-1.274.623-.43 1.482-1.12 2.004-1.785.688-.477 1.285-1.085 1.753-1.785.675-.453 1.81-1.608 2.255-2.294.64-.52 1.324-1.613 1.754-2.294.548-.83 1.242-1.313 1.752-2.55.39-1.19.442-2.125.75-3.313.26-.963.733-1.778 1.003-3.06.51-1.115.917-2.203 1.252-3.058.615-.702 1.023-1.55 1.754-2.294.42-.658.978-.994 1.504-1.53.596-.577 1.496-1.006 2.504-1.273 1.034-.287 1.482-.75 2.003-1.53.948-.32 1.507-.736 2.756-1.02 1.1-.33 2-.54 3.006-.764h3.507c1.262 0 2.35.115 3.505.255 1.142.332 2.213.62 3.256.765.718.345 1.91.976 2.506 1.53.748.502 1.565 1.313 2.004 2.038.327 1 .86 1.443 1.502 2.296.67.886 1.233 1.446 2.505 2.04 1.014.238 1.844.673 3.005.764 1.33 0 2.136.167 3.257.255 1.224 0 2.42.02 3.505-.255 1.094-.643 1.486-.815 2.254-1.785 1.01-.505 1.743-.907 3.005-1.02.83-.183 1.858-.254 3.006-.254.65.455 1.34.626 1.754 1.275.66.476.703.734 1.753.765.717.427 1.77.63 2.755.765h3.506-3.506 3.506c.96-.82 1.253-.727 1.253-1.784.776-.63 1.16-1.518 2.005-2.55.457-.755.895-1.383 1.252-2.293.273-.835.614-2.116.75-3.06.318-.845.616-2.144.753-3.313.303-1.178.5-2.23.5-3.57v-3.568c-.014-1.26-.2-2.14-.5-3.058-.397-1.127-1.06-1.95-1.503-2.804-.742-.597-1.657-1.433-2.254-2.04-1.14-.698-2.002-1.207-3.006-1.784-1.097-.692-2.15-1.292-3.006-1.785-.5-.572-1.317-1.357-1.75-1.784-.345-.697-.345-2.36 0-3.058.028-1.06.14-1.673.75-2.295 1.14-.416 1.902-.965 2.755-1.53.553-.788 1.42-.94 2.504-1.783 1.083-.484 1.698-.738 2.504-1.53 1.172-.398 2.265-1.208 3.256-1.53.536-.66 1.54-1.205 2.755-1.53.87-.6 1.91-1.24 2.755-1.528 1.18-.637 2.056-.86 3.256-1.53 1.225-.31 2.32-.872 3.507-1.274.305-.38.668-.66 1.252-.765 1.56-.094 2.86-.265 3.757-1.02 1.007-.363 1.112-1.1 1.753-1.784.46-.844.964-1.217 1.252-2.294.797-.872.357-1.128-1-1.276-.43-.435-.814.004-1.003-.765-.9-.41-1.134-1.124-1.753-1.785-.378-1.054-.37-1.527.752-2.04.7-.483 1.693-.645 2.255-1.274 1.043-.16 1.836-.618 2.755-1.02 1.36-.098 2.085-.41 3.255-.764.997-.54 1.644-.86 2.505-1.274 1.03-.454 2.258-1.094 3.256-1.53.898-.61 2.04-1.205 3.256-1.53.897-.463 2-.828 3.006-1.274.858-.206 2.005-.556 2.755-1.02 1.154-.223 2.404-.647 3.256-1.02.84-.384 1.826-.87 2.505-1.274 1.038-.456 1.778-1.003 2.756-1.275.593-.575 1.39-.982 2.255-1.275.705-.666 2.204-1.586 3.005-2.04.76-.366 1.648-.74 2.255-1.274.583-.065.418-.188 1-.254 1.827-.56 2.76-.767 3.758-1.784.777-.375 1.575-.78 2.254-1.275.836-.675 1.5-1.286 2.004-2.04.913-.328 1.412-.97 2.255-1.53.874-.354 1.643-.51 3.006-.51 1.096 0 2.548.107 3.257-.254 1.572-.02 1.98-.402 3.005-1.02.34-.972 1.064-1.46 2.004-2.038.554-.515 1.955-1.286 2.505-1.785 1.085-.528 1.553-1.202 2.506-2.04.735-.805 1.656-1.55 2.504-2.038 1.053-.467 1.807-.677 2.755-1.02 1.186-.215 2.378-.437 3.504-.765 1.28-.1 1.733-.48 2.758-.765.71-.688 1.14-1.035 2.003-2.04.424-1.17 1.05-1.6 2.254-1.783 1.21-.645 2.18-.72 3.01-1.53.845-.864 1.43-1.835 2.252-2.805.465-1.1.9-1.76 1-3.06-.017-1.563-.35-1.788-1-2.803-.626-.914-1.02-1.495-1.502-2.295-.78-.45-1.89-.894-2.76-1.274-1.19.093-1.924.366-2.753.765-.85.7-1.44 1.277-2 2.294-.382.82-.64 1.725-1.002 2.804-.477.693-1.615 1.35-2.51 1.784-1.048.467-1.8.677-2.752 1.02-1.186.417-1.74.778-3.005 1.275-.74.357-1.765.905-2.504 1.274-1.09.66-2.133 1.174-3.005 1.53-1.11.64-1.745.993-2.755 1.274-1.138.69-2.24 1.212-3.256 1.784-.843.42-1.665.967-2.756 1.53-.886.196-2.138.374-3.256.51h-3.757c-1.07-.252-2.343-.47-3.505-1.02-1.247-.658-1.858-1.074-2.755-1.785-.55-1.087-.734-1.607-.752-3.06-.778-.395-1.855-.494-3.005-.51-1.27 0-2.45-.047-3.256.51-1.09.166-2.008.615-2.756 1.276-1.152.557-1.905 1.23-2.754 1.783-.882.542-2.024 1.353-3.005 1.785-.92.402-2.363.842-3.506 1.274-1.47.43-2.534.904-4.007 1.02-1.257.58-2.243.75-3.506 1.275-1.282.485-2.188.843-3.506 1.274-.87.45-2.44 1.203-3.256 1.786-1.496.76-2.59 1.407-3.757 2.04-1.17.5-2.02.975-3.255 1.53-.607.55-1.81.98-2.505 1.528-1.117.285-2.4.754-3.005 1.275-.988.12-1.537.384-2.004 1.018-.89 1.09-.5 1.02-1.502 1.02-.856.53-2.186.51-3.506.51-1.336-.036-2.388-.255-3.757-.255-1.175-.214-2.25-.464-3.507-.51h-21.54c-1.332 0-2.137.167-3.258.255-1.246.09-2.217.367-3.255.51-1.13.173-1.645.605-2.505 1.02-.79.38-1.588.765-2.505 1.02-1.23.66-2.644 1.008-4.007 1.274-1.03.485-2.49.745-3.257 1.275-1.174.09-1.942.414-3.255.51-1.116.513-2.035.786-3.006 1.02-.9.304-1.767.494-3.006.51-1.158.158-1.797.49-3.005.764-.43.37-1.115.63-1.752.765-1.472.71-1.954.765-3.507.765h-3.506c-1.67-.165-3.328-.378-5.01-.765-1.713-.084-3.348-.304-5.008-.51h-11.022c-1.323-.048-2.498-.305-3.756-.51-1.18-.214-2.423-.318-3.507-.764-1.558-.083-3.134-.297-4.51-.764-1.252-.227-2.452-.656-3.756-.765-.723-.446-2.142-.594-2.755-1.018-1.145-.09-2.097-.452-2.755-1.02-1.172-.177-1.85-.703-3.006-1.02-1.04-.64-2.296-.855-3.756-1.53-1.244-.27-2.49-.718-3.757-1.02-1-.35-2.216-.685-3.005-1.273-1.107-.31-1.743-.64-3.006-1.02-.59-.536-1.75-1.096-2.504-1.53-.548-.497-1.987-1.35-2.755-1.785-.816-.96-1.64-1.91-2.756-3.06-.773-.86-1.658-1.55-2.503-2.04-1.086-.46-2.316-1.117-3.006-1.528-.947-.263-1.713-.85-2.253-1.53-.854-.492-1.41-.93-2.254-1.53-1.31.506-1.447.256-2.755.256-1.493-.125-2.59-.17-4.007 0-1.224.147-2.422.255-3.757.255h-3.506c-1.585.02-1.84.228-2.254 1.53-.73.815-1.034 1.77-1.754 2.294-.62.797-1.51 1.34-2.506 1.784-1.236.87-1.61 1.185-2.253 2.295-.82.732-1.503 1.78-2.003 2.55-.455.79-.76 1.524-1.002 2.804 0 1.22.098 2.503-.25 3.57 0 1.218.098 2.502-.25 3.568V186.25c.52.78 1.224 1.08 1.502 2.293.37 1.008-.316.647-1.002 1.275H215.93c-1.277 0-2.31-.168-3.507-.255-1.012-.184-2.493-.25-3.255-.51h-3.507c-1.246-.09-2.217-.366-3.256-.51-1.45-.28-2.454-.708-3.757-1.53-1.334-.29-2.352-.8-3.507-1.528-1.244-.332-2.23-.997-3.506-1.275-.86-.414-1.474-.815-2.505-1.275-.606-.844-1.19-1.315-2.504-1.53-1.008-.526-1.862-.51-3.256-.51-1.305.16-2.065.505-3.006.766-1.044.48-2.404.89-3.256 1.275-.85.347-1.625.813-2.505 1.275-.673.882-1.067 1.41-1.503 2.294-.333 0-.25-.085-.25.255-1.35.048-2.768 0-4.257 0-.707.36-2.082.436-3.006.51-.735.577-1.603 1.077-2.255 1.528-.432.88-.734 1.114-.752 2.55.054 1.523.59 1.965 1.002 3.058-.3 1.39-.837 1.506-2.004 1.785-.885.197-2.04.256-3.255.256h-7.514c-1.44 0-2.12.016-2.754-.765-.435-.863-.476-1.964-.75-2.803-.747-1.033-1.08-1.726-2.255-2.55-.258-.79-.878-1.948-1.25-2.803-.403-.862-.713-1.623-1.504-2.295-.833-.787-1.776-1.298-2.505-2.04-.837-.547-1.51-1-3.004-1.02-1.214 0-2.37.06-3.257.255-.61.54-1.632 1.115-2.505 1.785-.692.94-1.306 1.625-2.254 2.55-1.068.996-2.13 1.602-3.005 2.038-.8.408-1.617.91-2.254 1.785-.743.33-1.104.884-1.502 1.784-.653.593-1.028 1.582-1.252 2.55-.41 1.247-.465 2.68-.5 4.078v3.57c-.397.478-.61.988-1.253 1.53-.613.554-1.535 1.162-2.255 1.528-.697.913-1.133 1.45-1.252 2.804 0 1.114-.103 2.593.25 3.314.507.723 1.53 1.22 2.505 1.786.94.338 1.426 1.078 2.005 2.04 1.073.49.94.943 2.254 1.018.794.637 2.015.836 3.005 1.275 1.002.277 1.502.74 2.504 1.018.648.86 1.363 1.418 1.752 2.804.106.89.452 1.784 0 2.55-1.02.618-2.39 1.01-3.005 1.53-.81.043-.75.234-1.252.51-.01 1.703-.234 2.57-.5 3.823-.087 1.14-.252 1.96-.252 3.314v3.568c.533 1.132 1.237 1.343 2.004 2.04.763.554 1 1.208 1.252 2.293.43.998.886 1.83 1.252 2.805.456.977.75 1.863.75 3.314-.124 1.395-.697 1.635-1.752 2.293-.56.69-.376 1.912-.752 3.06 0 1.175-.013 2.507.25 3.313.43.583.326.826.502 1.785z" fill-rule="evenodd" fill="#ffce00"/>
  <g fill-rule="evenodd" fill="#009a00">
    <path d="M156.452 312.238l-.407-.415c.924.94.478.595-.407-1.656-.086-2.387-.654-2.772-2.034-3.727-1.618-.55-2.31-1.252-2.848-2.9-1.034-.868-1.813-2.032-2.44-3.312-1.12-.773-2.09-1.76-2.85-2.9-1.117-.773-2.087-1.76-2.847-2.897-1.547-.55-2.568-1.668-4.477-2.484-1.075-1.042-2.084-1.557-3.662-2.485-1.765-.86-1.866-1.482-4.068-1.655-.673.754-1.74.458-2.034 1.656.09 2.455.57 2.97 1.627 4.97.083 2.262.68 3.327 1.628 4.97 1.155.823 2.045 2.286 3.255 3.313 1.292.894 1.806 1.844 3.662 2.9.97 1.233 2.59 1.895 4.07 2.897 1.82.715 3.31 1.266 4.474 2.07 1.633.392 2.748 1.02 4.07 1.658 1.952.186 2.747.408 5.288 0zM164.998 323.83l-.406-.415c.966.983.505.58-.814-1.656-1.504-1.45-1.83-2.562-4.07-2.9-1.194-.487-3.135-.788-4.474-1.243-2.317 0-3.378-.252-5.29-.828-1.367-.38-3.095-1.055-4.476-1.657-1.636-.248-3.33-.9-4.882-1.242h-5.696c-1.828.438-2.857.457-3.255 2.485.834 1.028 1.935 1.925 2.848 2.9.514 1.818 1.755 2.25 2.848 3.312 1.884.663 2.267 1.16 4.476 1.242 1.873.635 3.235.802 5.29.827 2.18 0 3.747.45 5.696.828 1.623.224 3.216.415 5.29.415 1.767 0 3.693-.01 4.882-.415 2.564-2.087 2.034-2.54 2.034.415l.814.828M178.83 330.04h-.406c1.098 0 .54.027-1.628-.414-2.03-.59-3.18-1.163-5.29-1.243-1.25-.744-2.788-.827-4.882-.827h-5.696c-2.014.157-2.868.67-4.883.827-1.07.637-3.193 1.16-4.475 1.657-1.144.792-2.12 1.777-3.662 2.485.355 2.057 1.477 2.83 2.848 3.727 1.377.56 2.792 1.09 4.882 1.242 2 .076 3.077.414 5.29.414 2.073 0 3.666-.19 5.29-.414 1.35-.65 2.5-1.333 4.475-1.656.985-.87 2.427-1.476 3.662-2.07 1.093-.527 2.58-1.013 3.662-1.657l-3.662 1.657c1.093-.526 2.58-1.012 4.475-3.727zM198.663 339.672v-.352c0 .986.05.462-.814-1.41-1.507-.69-3.314-1.175-4.477-1.764-1.778 0-4.138-.146-5.29.353-2.054.02-3.416.163-5.29.704-1.784.233-2.813.775-4.067 1.41-1.417.663-3.47 1.516-5.29 2.116-1.608.972-2.152 1.54-4.068 2.47-1.207 1.145-2.443 1.834-3.255 2.82-.362 1.19.023 2.594 1.627 3.174 1.014.726 2.572 1.105 4.07 1.41 1.898-.06 3.575-.29 4.88-1.057 2.017-.232 3.215-.744 4.884-1.058 1.428-.44 2.795-.862 4.475-1.06 1.163-.683 3.227-1.274 4.475-1.762 2.044-.718 3.35-1.664 4.883-2.47.73-.732 1.705-1.523 2.848-1.762l-2.848 1.763c.73-.734 1.705-1.525 3.255-3.528zM214.23 347.572c-.076-.018-1.893-.736-3.255-.736-1.206-.638-3.158-.766-4.882-1.47-2.224 0-3.738.224-4.883 1.102-1.69.206-3.203.656-4.476 1.472-1.584.336-3.02.652-4.475 1.47-1.964.746-2.828 1.445-4.07 2.208-.838.917-2.647 1.43-3.662 2.208-.91.998-.91 2.317-.407 3.68 1.043.58 2.824 1.154 4.07 1.84 1.82.292 3.672.366 5.696.366 1.807-.126 3.33-.4 4.476-1.104 2.046-.89 2.59-1.55 4.068-2.575.855-.935 2.285-1.688 3.663-2.207 1.038-.814 2.298-1.408 4.068-1.84.992-.854 1.905-1.68 2.85-2.575 1.137 0 .356.115 1.22-1.838zM231.778 351.192c-.098-.013-2.298-.36-3.662-.36-1.15-.506-3.51-.358-5.29-.358-2.24.074-2.934.482-4.068 1.436-1.154.626-2.546 1.188-3.662 2.153-1.427.77-2.712 1.833-4.07 2.51-1.492.565-2.78 1.21-4.475 1.436-.816.872-2.25 1.626-3.254 2.51-1.117.74-1.59 1.095-1.627 2.87-.83.59-1.39 1.747-1.222 2.154 1.647.746 3.008 1.052 5.29 1.077 2.173.023 3.7.44 5.696 0 2.034-.53 2.847-.903 4.883-1.435 1.038-1.193 1.818-1.992 3.255-2.87.776-1.006 1.705-1.932 3.255-2.51 1.16-.933 2.878-1.96 4.068-2.513.728-.9 2.147-1.854 3.255-2.512.816-1.217 1.047-1.42 1.628-3.588zM233.76 347.848v-12.423c-1.89-1.137-2.173-1.818-2.85-4.14-1.002-1.657-1.768-2.698-2.44-4.143-.943-1.006-1.72-2.312-2.035-4.14-.777-1.534-1.26-3.076-2.848-3.728-1.44-.318-3.317-.414-5.29-.414-2.694.102-2.44.585-2.44 3.313.19 2.12.853 2.676 1.627 4.555.597 1.285 1.246 2.605 2.034 3.727.61 1.372 1.563 3.14 2.44 4.14.714 1.524 1.738 2.904 2.036 4.557 1.115 1.44 1.885 2.7 2.848 3.727.797 1.692 1.396 2.65 2.848 3.312.83 1.266 2.233 1.37 4.07 1.656zM214.23 341.225h.407c-1.137 0-.533.05 1.627-.828.576-1.172.407-3.573.407-5.384 0-2.358-.382-3.36-.813-4.97-.74-1.798-1.344-2.64-1.627-4.555-.61-1.307-1.22-2.625-1.628-4.14-.73-1.096-1.254-2.748-1.627-4.14-1.373-.794-2.642-1.588-4.07-2.072-1.293-.624-2.498-1.554-4.067-2.07-2.042.38-2.272 1.064-2.442 3.312-.47 1.67.175 3.18.814 4.555.672 1.634 1.073 3.29 2.035 4.555.586 1.858 1.183 2.506 1.22 4.556.7 1.22.993 3.014 1.628 4.555.817 1.922 1.577 2.75 2.848 4.14 1.738 1.203 2.334 1.707 5.29 2.485zM197.954 335.84c0-.2 1.292-1.014 2.035-2.072.607-1.238.532-3.755 0-5.384-.773-1.94-1.614-3.395-2.036-4.97-.43-1.31-.407-3.473-.407-5.383-.37-1.738-.982-3.024-1.627-4.968-.526-1.338-1.55-3.012-2.034-4.555-.635-.61-1.352-1.863-2.035-2.485-.794-.662-.822-.828-2.44-.828-2.163.082-3.25.285-4.476 1.656-.428 1.31-.406 3.475-.406 5.384.026 2.282.235 3.36 1.22 4.97.72 1.74 2.227 3.434 3.255 4.968.843 1.454 1.38 2.836 2.44 3.728.278 1.865.967 2.72 1.63 4.14.275 1.866.965 2.72 1.626 4.142 1.064.12.567.385 1.22.828l-1.22-.828c1.064.12.567.385 3.254 1.657zM181.68 323.416c.247-.57 1.758-2.785 2.033-4.14-.028-2.35-.296-3.953-1.628-5.384-.33-1.45-1.128-3.638-1.627-4.97 0-1.91.022-4.073-.407-5.383 0-2.177-.294-3.484-.813-4.97-.92-1.376-1.91-1.78-4.068-2.485-1.752-.594-2.96-.166-4.884.414v5.796c.026 2.192.41 3.757 1.22 4.97.662 1.42 1.3 2.436 2.035 4.14.08 2.252.666 3.415.815 5.384.16 2.118.355 3.214 1.627 4.556 1.733.833 2.26 1.64 3.662 2.07l-3.662-2.07c1.733.833 2.26 1.64 5.697 2.07zM167.036 314.306v-.414c0 1.158-.05.543.814-1.656.44-1.795.407-3.772.407-5.798-.126-1.67-.364-3.596-.814-4.97-.37-2.12-.798-3.445-1.22-5.383-.29-1.682-1.41-3.538-2.035-4.97-.4-1.218-.806-3.76-1.22-4.97-.292-1.547-1.022-2.034-2.442-2.483-1.114-.567-3.768-.567-4.882 0-1.198.422-1.196 1.385-1.627 2.484-.15 2.143-.51 3.726 0 5.798.688 1.198 1.416 2.47 2.034 3.727.8 1.47 1.602 3.676 2.442 4.97.612 2.103.84 3.074 2.034 4.97.44 1.342 1.134 2.956 2.035 4.14.58 1.475 1.425 2.52 2.035 4.142 1.098 0 .275-.027 2.44.414z"/>
    <path d="M250.595 358.463h-6.729c-1.034 1-1.394 1.574-3.188 1.803-.906.798-1.764 1.537-3.188 1.802-1.254.277-2.888.36-4.606.36-2.1-.026-2.82.067-3.188-1.802.034-1.858.12-1.962 1.772-2.163.884-.744 2.366-1.096 3.896-1.442 1.17-.422 2.6-.794 3.896-1.08 1.256-.455 2.454-.918 3.542-1.443-.27-1.1-1.145-.86-2.125-.36-1.273 0-2.79.098-3.543-.36-.883-1.338-1.362-1.776-3.54-1.803-2.07-.025-2.422-.578-4.252-.72-1.752-.023-2.976-.29-4.25-.722-1.87-.136-3.127-.426-4.605-1.082-.475-.483.652-.583 1.417-.72 1.047-.726 2.155-1.017 3.896-1.082h4.96c1.816 0 3.214.297 4.958.36 1.42.5 2.915.763 3.896 1.442 1.282.435 2.09 1.2 2.834 2.163 1.246.346 2.5.773 3.896 1.082 1.633 0 3.484-.02 4.605.36.81 1.376.168 3.63-.355 5.408z"/>
  </g>
  <g fill-rule="evenodd" fill="#009a00">
    <path d="M346.168 312.6l.407-.416c-.924.94-.478.595.407-1.656.086-2.387.654-2.772 2.034-3.727 1.618-.548 2.31-1.25 2.848-2.898 1.034-.87 1.813-2.033 2.44-3.313 1.12-.774 2.09-1.762 2.85-2.9 1.117-.774 2.087-1.76 2.847-2.898 1.547-.55 2.568-1.67 4.477-2.485 1.075-1.042 2.084-1.557 3.662-2.485 1.765-.86 1.866-1.483 4.068-1.656.673.754 1.74.458 2.034 1.656-.09 2.454-.57 2.97-1.627 4.97-.083 2.26-.68 3.326-1.628 4.97-1.155.822-2.045 2.285-3.255 3.312-1.292.894-1.806 1.844-3.662 2.9-.97 1.233-2.59 1.895-4.07 2.897-1.82.716-3.31 1.267-4.474 2.072-1.633.39-2.748 1.02-4.07 1.657-1.952.185-2.747.407-5.288 0zM337.622 324.19l.406-.414c-.966.983-.505.58.814-1.656 1.504-1.45 1.83-2.56 4.07-2.9 1.194-.486 3.135-.787 4.474-1.242 2.317 0 3.378-.252 5.29-.828 1.367-.38 3.095-1.054 4.476-1.656 1.636-.248 3.33-.9 4.882-1.242h5.696c1.828.437 2.857.456 3.255 2.484-.834 1.028-1.935 1.925-2.848 2.9-.514 1.818-1.755 2.25-2.848 3.312-1.884.663-2.267 1.16-4.476 1.242-1.873.636-3.235.803-5.29.828-2.18 0-3.747.45-5.696.828-1.623.224-3.216.415-5.29.415-1.767 0-3.693-.01-4.882-.414-2.564-2.087-2.034-2.54-2.034.415l-.814.83M323.79 330.4h.406c-1.098 0-.54.028 1.628-.413 2.03-.59 3.18-1.163 5.29-1.243 1.25-.744 2.788-.827 4.882-.827h5.696c2.014.157 2.868.67 4.883.827 1.07.637 3.193 1.16 4.475 1.657 1.144.793 2.12 1.778 3.662 2.486-.355 2.057-1.477 2.83-2.848 3.727-1.377.56-2.792 1.09-4.882 1.242-2 .076-3.077.414-5.29.414-2.073 0-3.666-.19-5.29-.415-1.35-.65-2.5-1.333-4.475-1.656-.985-.87-2.427-1.477-3.662-2.072-1.093-.526-2.58-1.012-3.662-1.656l3.662 1.656c-1.093-.526-2.58-1.012-4.475-3.727zM303.957 340.033v-.352c0 .987-.05.463.814-1.41 1.507-.688 3.314-1.174 4.477-1.763 1.778 0 4.138-.146 5.29.353 2.054.02 3.416.164 5.29.705 1.784.233 2.813.775 4.067 1.41 1.417.663 3.47 1.516 5.29 2.116 1.608.973 2.152 1.542 4.068 2.47 1.207 1.146 2.443 1.835 3.255 2.82.362 1.19-.023 2.595-1.627 3.175-1.014.726-2.572 1.105-4.07 1.41-1.898-.06-3.575-.29-4.88-1.057-2.017-.232-3.215-.744-4.884-1.058-1.428-.44-2.795-.86-4.475-1.06-1.163-.682-3.227-1.273-4.475-1.76-2.044-.72-3.35-1.665-4.883-2.47-.73-.733-1.705-1.524-2.848-1.763l2.848 1.763c-.73-.733-1.705-1.524-3.255-3.527zM288.39 347.933c.076-.018 1.893-.736 3.255-.736 1.206-.638 3.158-.766 4.882-1.47 2.224 0 3.738.224 4.883 1.102 1.69.205 3.203.655 4.476 1.47 1.584.337 3.02.653 4.475 1.472 1.964.745 2.828 1.444 4.07 2.207.838.916 2.647 1.428 3.662 2.207.91.998.91 2.317.407 3.68-1.043.58-2.824 1.154-4.07 1.84-1.82.292-3.672.366-5.696.366-1.807-.126-3.33-.4-4.476-1.104-2.046-.892-2.59-1.55-4.068-2.576-.855-.935-2.285-1.688-3.663-2.207-1.038-.814-2.298-1.408-4.068-1.84-.992-.854-1.905-1.68-2.85-2.575-1.137 0-.356.114-1.22-1.84zM270.842 351.553c.098-.013 2.298-.36 3.662-.36 1.15-.506 3.51-.358 5.29-.358 2.24.074 2.934.482 4.068 1.436 1.154.627 2.546 1.19 3.662 2.154 1.427.77 2.712 1.833 4.07 2.51 1.492.565 2.78 1.21 4.475 1.436.816.873 2.25 1.627 3.254 2.512 1.117.74 1.59 1.094 1.627 2.87.83.59 1.39 1.746 1.222 2.153-1.647.746-3.008 1.052-5.29 1.077-2.173.022-3.7.44-5.696 0-2.034-.532-2.847-.904-4.883-1.436-1.038-1.193-1.818-1.992-3.255-2.87-.776-1.006-1.705-1.932-3.255-2.51-1.16-.933-2.878-1.96-4.068-2.513-.728-.9-2.147-1.854-3.255-2.512-.816-1.216-1.047-1.418-1.628-3.587zM268.86 348.21v-12.424c1.89-1.137 2.173-1.818 2.85-4.14 1.002-1.657 1.768-2.698 2.44-4.143.943-1.006 1.72-2.312 2.035-4.14.777-1.534 1.26-3.076 2.848-3.728 1.44-.318 3.317-.414 5.29-.414 2.694.103 2.44.586 2.44 3.314-.19 2.12-.853 2.676-1.627 4.555-.597 1.284-1.246 2.604-2.034 3.726-.61 1.372-1.563 3.14-2.44 4.14-.714 1.524-1.738 2.904-2.036 4.557-1.115 1.44-1.885 2.7-2.848 3.727-.797 1.693-1.396 2.65-2.848 3.313-.83 1.266-2.233 1.37-4.07 1.656zM288.39 341.586h-.407c1.137 0 .533.05-1.627-.828-.576-1.172-.407-3.573-.407-5.384 0-2.358.382-3.36.813-4.97.74-1.798 1.344-2.64 1.627-4.555.61-1.308 1.22-2.626 1.628-4.14.73-1.097 1.254-2.75 1.627-4.142 1.373-.793 2.642-1.587 4.07-2.07 1.293-.625 2.498-1.555 4.067-2.072 2.042.38 2.272 1.065 2.442 3.313.47 1.67-.175 3.18-.814 4.554-.672 1.634-1.073 3.29-2.035 4.555-.586 1.857-1.183 2.505-1.22 4.555-.7 1.22-.993 3.014-1.628 4.555-.817 1.923-1.577 2.752-2.848 4.14-1.738 1.204-2.334 1.708-5.29 2.486zM304.666 336.2c0-.2-1.292-1.013-2.035-2.07-.607-1.24-.532-3.756 0-5.385.773-1.94 1.614-3.395 2.036-4.97.43-1.31.407-3.473.407-5.383.37-1.74.982-3.025 1.627-4.97.526-1.337 1.55-3.01 2.034-4.554.635-.61 1.352-1.863 2.035-2.485.794-.662.822-.828 2.44-.828 2.163.082 3.25.285 4.476 1.656.428 1.31.406 3.476.406 5.385-.026 2.282-.235 3.36-1.22 4.97-.72 1.74-2.227 3.434-3.255 4.968-.843 1.454-1.38 2.836-2.44 3.728-.278 1.866-.967 2.72-1.63 4.142-.275 1.865-.965 2.72-1.626 4.14-1.064.12-.567.386-1.22.83l1.22-.83c-1.064.12-.567.386-3.254 1.658zM320.94 323.777c-.247-.57-1.758-2.785-2.033-4.14.028-2.35.296-3.953 1.628-5.384.33-1.45 1.128-3.638 1.627-4.97 0-1.91-.022-4.073.407-5.383 0-2.176.294-3.483.813-4.97.92-1.375 1.91-1.778 4.068-2.484 1.752-.594 2.96-.166 4.884.414v5.797c-.026 2.192-.41 3.757-1.22 4.97-.662 1.42-1.3 2.436-2.035 4.14-.08 2.252-.666 3.415-.815 5.384-.16 2.12-.355 3.215-1.627 4.557-1.733.833-2.26 1.64-3.662 2.07l3.662-2.07c-1.733.833-2.26 1.64-5.697 2.07zM335.584 314.667v-.414c0 1.158.05.543-.814-1.656-.44-1.795-.407-3.772-.407-5.798.126-1.67.364-3.597.814-4.97.37-2.12.798-3.446 1.22-5.384.29-1.682 1.41-3.538 2.035-4.97.4-1.218.806-3.76 1.22-4.97.292-1.547 1.022-2.034 2.442-2.483 1.114-.567 3.768-.567 4.882 0 1.198.422 1.196 1.385 1.627 2.484.15 2.143.51 3.726 0 5.798-.688 1.198-1.416 2.47-2.034 3.727-.8 1.47-1.602 3.675-2.442 4.97-.612 2.102-.84 3.073-2.034 4.97-.44 1.34-1.134 2.955-2.035 4.14-.58 1.474-1.425 2.518-2.035 4.14-1.098 0-.275-.026-2.44.415z"/>
    <path d="M252.025 358.824h6.729c1.034 1 1.394 1.574 3.188 1.803.906.798 1.764 1.537 3.188 1.802 1.254.276 2.888.36 4.606.36 2.1-.027 2.82.066 3.188-1.803-.034-1.858-.12-1.962-1.772-2.163-.884-.744-2.366-1.096-3.896-1.442-1.17-.423-2.6-.795-3.896-1.082-1.256-.454-2.454-.917-3.542-1.442.27-1.1 1.145-.86 2.125-.36 1.273 0 2.79.098 3.543-.36.883-1.338 1.362-1.776 3.54-1.803 2.07-.025 2.422-.578 4.252-.72 1.752-.023 2.976-.29 4.25-.722 1.87-.136 3.127-.426 4.605-1.082.475-.482-.652-.582-1.417-.72-1.047-.725-2.155-1.016-3.896-1.08h-4.96c-1.816 0-3.214.296-4.958.36-1.42.5-2.915.762-3.896 1.44-1.282.436-2.09 1.2-2.834 2.164-1.246.346-2.5.773-3.896 1.082-1.633 0-3.484-.02-4.605.36-.81 1.376-.168 3.63.355 5.408z"/>
  </g>
</svg>
