<?xml version="1.0" encoding="UTF-8" standalone="no"?>
<!-- Created with Sodipodi ("http://www.sodipodi.com/") -->
<svg id="svg559" xmlns:rdf="http://www.w3.org/1999/02/22-rdf-syntax-ns#" xmlns="http://www.w3.org/2000/svg" height="512" width="512" version="1.1" xmlns:cc="http://creativecommons.org/ns#" xmlns:dc="http://purl.org/dc/elements/1.1/">
 <metadata id="metadata3056">
  <rdf:RDF>
   <cc:Work rdf:about="">
    <dc:format>image/svg+xml</dc:format>
    <dc:type rdf:resource="http://purl.org/dc/dcmitype/StillImage"/>
   </cc:Work>
  </rdf:RDF>
 </metadata>
 <g id="flag">
  <rect id="rect4964" height="512" width="512" y="2.086" x="-2.086" fill="#fff"/>
  <polygon id="polygon565" transform="matrix(.45610 0 0 .45610 -63.823 10.873)" d="m 699.33337,498.1459 3.01619,-3.97839 -1.56739,-4.74007 4.71573,1.63917 4.02372,-2.95543 -0.1017,4.99145 4.05419,2.91351 -4.77859,1.44572 -1.5181,4.75608 -2.85162,-4.09795 z" fill-rule="evenodd" points="699.33 498.15 702.35 494.17 700.78 489.43 705.5 491.07 709.52 488.11 709.42 493.1 713.47 496.02 708.7 497.46 707.18 502.22 704.33 498.12" stroke-width="1pt" fill="#808080"/>
  <path id="path568" d="m128.27 257.88h0.2503c-0.66806 0-0.31706-0.0509 0.75149 0.76487 0.87367 0.35544 1.6424 0.51011 3.0054 0.51011 1.1949 0.0867 2.2289 0.25475 3.5066 0.25475 1.1752 0.50465 1.8445 0.96563 2.7551 1.2744 0.40167 0.6193 1.2777 2.0065 1.7533 2.5494 0.882 0.66053 1.9464 1.0639 2.7551 1.7845 1.0078 0.27963 1.649 0.71573 2.7551 1.5291 0.83253 0.40153 1.6198 0.7321 2.7551 1.275 1.09 0.38334 2.2813 0.89649 3.2557 1.2744 0.85817 0.20562 2.0054 0.55681 2.7551 1.0196 1.0644 0.23534 1.9577 0.53741 3.2563 0.76487 1.326 0.16073 1.9953 0.51738 3.2557 0.76485 1.1317 0.5829 2.0137 1.0178 3.2563 1.5297 0.50418 0.75454 0.93744 1.4333 2.0036 1.7839 0.54767 0.6751 1.4559 0.85464 2.0036 1.5297 0.80691 0.38879 1.6955 0.64659 2.7551 1.0196 1.2771 0.0928 2.1985 0.4622 3.5066 0.51011h3.5066 3.5066c1.118 0.13527 2.3701 0.31359 3.2557 0.50951 1.2259 0 2.4208 0.0212 3.5066-0.25475 1.4017-0.0169 2.0554-0.4161 3.2563-0.51012 1.3397 0.21654 2.2485 0.097 2.7551 1.275 0.83015 0.84492 1.3349 1.6723 1.5024 2.8041 0.26402 0.8061 0.2509 2.1387 0.2509 3.3136 0 1.1076 0.006 2.314 0.2503 3.0594 0.79739 0.78305 1.419 1.0141 2.5048 1.2744 0.80513 0.27295 2.2884 0.51133 3.0054 1.0196 0.59178 0.63204 0.88141 1.6359 1.7533 2.2946 0.76222 0.59564 2.037 0.71999 3.2557 0.76426h3.5066c1.0948 0 2.5477 0.10611 3.2563-0.25475 1.0846-0.40154 1.3695-1.1482 2.7551-1.2744 1.3051 0.20015 1.2783 0.82915 2.2539 1.2744 0.62099 0.91105 1.2098 1.2871 2.0036 1.7845 0.51491 0.74909 1.1883 1.3308 2.2545 1.5297 1.3051-0.13465 2.4857-0.52406 3.5066-0.76485 0.35698-0.90983 0.7944-1.5376 1.2521-2.2946 0.33969-0.58472 0.5006-0.73513 0.5006-1.7845 0.37485-0.76183 0.32837-2.3116 0-3.3136-0.0471-1.2974-0.34506-1.9828-0.5006-3.3142 0-1.2356 0.0579-2.4116 0.2503-3.3136 0.5149-0.60474 0.84983-1.594 1.2527-2.2946 0.68297-0.83401 1.3159-1.1476 2.2539-1.5291 0.79261-0.2687 2.1013-0.25536 3.2563-0.25536 0.61264-0.18681 1.6299-0.12497 1.2521-0.5095-0.32479 0.33057-1.5709 0.43489-0.2503 0.5095 0.71872-0.49616 2.0298-0.72422 2.7551-1.0196 1.0697-0.16377 1.711-0.53376 2.7551-0.76425 0.7807-0.46523 1.6544-0.68784 2.7551-1.0202 0.90705-0.35119 1.9273-0.6945 3.0054-1.0196 1.1532-0.55136 1.8641-0.86253 3.0054-1.0196 0.78546-0.42155 1.7718-0.5095 3.006-0.5095 1.1573 0.75516 1.7646 1.3472 2.7551 2.294 0.4732 0.70906 0.89691 1.1355 1.2521 2.0392 0.80156 0.55499 1.23 0.96441 2.7551 1.0196 1.2062 0 1.6848 0.20987 2.0036-0.76425 0.65913-0.59806 1.0006-1.6559 1.7533-2.2946 0.74732-0.74726 1.6704-1.127 2.5048-1.5291 0.9404-0.26142 1.7002-0.60717 3.0054-0.76487 0.8689-0.32329 1.767-0.39183 2.7551 0.25475 0.7354 1.0451 1.5656 2.112 2.5048 3.3142 0.63706 0.41973 1.4172 0.5095 2.5042 0.5095 0.76461-0.3888 2.3421-0.25475 3.5066-0.25475 1.0256 0.30024 1.4738 0.98807 2.5048 1.2744 0.57629 0.0589 0.88678 0.25475 1.503 0.25475 1.832 0.24201 2.5942 0.0582 4.0072-0.25475h3.5066c1.2306 0.0467 1.8939 0.25475 3.2557 0.25475 0.76104 0.47008 2.0656 0.68844 3.006 1.0202 1.1854 0.28386 1.4118 0.74181 2.5042 1.2744 0.70858 0.36029 2.1615 0.25475 3.2563 0.25475 1.3075-0.15831 2.1764-0.38455 3.2557-0.76486 0.95054-0.23595 1.3528-0.48039 1.7533-1.2744 0.62277-0.43066 1.4821-1.1203 2.0042-1.7845 0.68773-0.47614 1.2849-1.0839 1.7527-1.7845 0.67462-0.4531 1.8087-1.6074 2.2545-2.294 0.64005-0.52163 1.3242-1.614 1.7533-2.2946 0.54947-0.83098 1.2432-1.3126 1.7533-2.5487 0.39036-1.1919 0.44161-2.126 0.7515-3.3142 0.25805-0.96321 0.73183-1.7784 1.0018-3.0588 0.50894-1.1161 0.91657-2.2048 1.2521-3.0594 0.61502-0.70177 1.0226-1.5504 1.7533-2.294 0.41896-0.65933 0.97736-0.99476 1.503-1.5297 0.59654-0.57865 1.4964-1.0069 2.5042-1.2744 1.0346-0.2869 1.4821-0.74848 2.0036-1.5297 0.94698-0.32087 1.5054-0.73636 2.7551-1.0196 1.0989-0.33117 1.9988-0.54164 3.006-0.76486h3.5066c1.2628 0 2.3504 0.11522 3.506 0.25536 1.1418 0.33178 2.2134 0.62111 3.2563 0.76487 0.71694 0.34513 1.9094 0.97593 2.5048 1.5291 0.74792 0.50283 1.565 1.3144 2.0036 2.0392 0.32717 1.0002 0.85935 1.4418 1.5024 2.2946 0.66926 0.88617 1.2324 1.4466 2.5048 2.0392 1.0137 0.23899 1.8439 0.67388 3.0054 0.76486 1.3308 0 2.1359 0.16742 3.2563 0.25475 1.2253 0 2.4208 0.0212 3.5066-0.25475 1.0936-0.64294 1.4857-0.8146 2.2539-1.7845 1.0101-0.50586 1.7438-0.90739 3.006-1.0196 0.82956-0.18378 1.8576-0.25475 3.0054-0.25475 0.65018 0.45371 1.3403 0.62475 1.7533 1.2744 0.65972 0.47554 0.70323 0.73332 1.7533 0.76487 0.71633 0.4264 1.7712 0.6296 2.7551 0.76486h3.506-3.506 3.506c0.96008-0.82067 1.2527-0.72725 1.2527-1.7845 0.77534-0.63202 1.1597-1.5188 2.0036-2.5493 0.45769-0.75636 0.89512-1.3848 1.2521-2.2946 0.27354-0.83522 0.61382-2.1162 0.7515-3.0588 0.31645-0.84554 0.61502-2.1454 0.7515-3.3136 0.30333-1.1779 0.50119-2.2309 0.50119-3.569v-3.5689c-0.0149-1.2604-0.20084-2.1417-0.50119-3.0588-0.39692-1.1264-1.0608-1.9495-1.503-2.8041-0.74137-0.59625-1.6568-1.4321-2.2539-2.0392-1.1389-0.69875-2.0018-1.2076-3.0054-1.7845-1.0972-0.69146-2.1508-1.2914-3.006-1.7845-0.50238-0.57197-1.3188-1.3575-1.7527-1.7845-0.34327-0.69815-0.34327-2.3613 0-3.0588 0.0292-1.0615 0.14004-1.6729 0.75089-2.2946 1.1413-0.4167 1.9023-0.96563 2.7551-1.5297 0.55364-0.78852 1.4214-0.94017 2.5048-1.7839 1.084-0.48402 1.6985-0.73817 2.5048-1.5297 1.1716-0.3979 2.2652-1.2082 3.2557-1.5297 0.53635-0.65993 1.5405-1.2058 2.7551-1.5291 0.86889-0.60229 1.9088-1.2428 2.7551-1.5297 1.1794-0.63628 2.0554-0.8601 3.2563-1.5297 1.2247-0.31115 2.3183-0.87162 3.5066-1.2744 0.30453-0.3791 0.66806-0.65993 1.2521-0.76487 1.559-0.094 2.8588-0.26445 3.7569-1.0196 1.0072-0.36332 1.1115-1.0991 1.7533-1.7845 0.46067-0.84311 0.96366-1.2167 1.2521-2.294 0.79678-0.871 0.35637-1.1264-1.0018-1.275-0.4273-0.43491-0.81288 0.004-1.0018-0.76426-0.89869-0.41064-1.1335-1.1233-1.7533-1.7845-0.37842-1.0536-0.36949-1.5273 0.75149-2.0398 0.69846-0.48281 1.6925-0.64538 2.2545-1.2744 1.0435-0.16013 1.8361-0.61868 2.7551-1.0196 1.3612-0.0989 2.0852-0.41185 3.2557-0.76486 0.99642-0.54165 1.6436-0.85948 2.5048-1.2744 1.0298-0.4537 2.2575-1.0942 3.2557-1.5297 0.8981-0.60897 2.0388-1.2046 3.2563-1.5291 0.89691-0.46401 2-0.82855 3.0054-1.275 0.85818-0.20561 2.0054-0.5562 2.7551-1.0196 1.1544-0.22382 2.4041-0.6478 3.2563-1.0196 0.83792-0.38517 1.8248-0.8698 2.5042-1.2744 1.0375-0.45673 1.7783-1.0032 2.7557-1.275 0.59178-0.57441 1.3892-0.9814 2.2539-1.2744 0.705-0.66599 2.2044-1.5861 3.0054-2.0392 0.75984-0.36636 1.6478-0.73938 2.2545-1.275 0.58284-0.0656 0.41836-0.18863 1.0018-0.25475 1.8254-0.55924 2.7575-0.76729 3.7569-1.7845 0.77653-0.37424 1.5751-0.78062 2.2539-1.2744 0.83551-0.67509 1.5012-1.2865 2.0036-2.0392 0.91181-0.32936 1.4112-0.9723 2.2545-1.5297 0.87366-0.35544 1.643-0.51011 3.0054-0.51011 1.0954 0 2.5477 0.10611 3.2563-0.25475 1.5715-0.0189 1.9804-0.40275 3.0054-1.0196 0.33909-0.97291 1.0632-1.4594 2.0036-2.0392 0.55423-0.51497 1.9553-1.2859 2.5048-1.7845 1.084-0.52831 1.5524-1.2022 2.5048-2.0392 0.73541-0.80551 1.6568-1.5504 2.5042-2.0392 1.053-0.46703 1.8075-0.6769 2.7551-1.0196 1.186-0.21532 2.3778-0.43671 3.5042-0.76486 1.2813-0.10008 1.7342-0.48161 2.7593-0.76487 0.70919-0.68844 1.1383-1.0354 2.0024-2.0392 0.42312-1.1713 1.0489-1.6001 2.2527-1.7845 1.2098-0.64356 2.1812-0.71998 3.0096-1.5297 0.84625-0.86313 1.4303-1.8342 2.2527-2.8041 0.46483-1.0985 0.89988-1.759 1.0012-3.0588-0.0178-1.5643-0.35161-1.7893-1.0012-2.8041-0.62577-0.91347-1.0191-1.4945-1.5018-2.2946-0.78069-0.44885-1.8892-0.89466-2.7593-1.2744-1.1919 0.0934-1.9249 0.36575-2.7533 0.76487-0.85221 0.70116-1.4422 1.2774-2.0024 2.294-0.38141 0.82127-0.63767 1.7256-1.0012 2.8041-0.47677 0.69328-1.615 1.3514-2.509 1.7845-1.0489 0.46705-1.7998 0.67692-2.7533 1.0196-1.1859 0.41731-1.739 0.77821-3.0048 1.275-0.74078 0.35665-1.7658 0.90498-2.5048 1.2744-1.0894 0.65993-2.1329 1.1743-3.0054 1.5297-1.1109 0.64173-1.7456 0.99414-2.7551 1.2744-1.1389 0.68964-2.2414 1.2125-3.2563 1.7845-0.84207 0.42094-1.6639 0.96744-2.7551 1.5297-0.88558 0.19592-2.1383 0.37424-3.2557 0.5095h-3.7575c-1.0703-0.2511-2.3439-0.47007-3.506-1.0196-1.2473-0.65751-1.8576-1.0736-2.7551-1.7845-0.54888-1.0876-0.73422-1.6074-0.7515-3.0588-0.77832-0.39608-1.8552-0.49556-3.0054-0.51011-1.2706 0-2.4488-0.048-3.2563 0.51011-1.0906 0.16499-2.0072 0.61383-2.7551 1.2744-1.1532 0.55803-1.9064 1.2307-2.7551 1.7845-0.88261 0.54165-2.0244 1.3526-3.0054 1.7845-0.92194 0.40214-2.3636 0.84249-3.5066 1.2744-1.4708 0.43005-2.5346 0.90437-4.0072 1.0202-1.2575 0.57865-2.2432 0.75091-3.5066 1.2744-1.2825 0.48525-2.1883 0.84311-3.5066 1.2744-0.86949 0.45006-2.4398 1.2022-3.2563 1.7845-1.4958 0.76122-2.5906 1.4078-3.7569 2.0392-1.1722 0.50102-2.0215 0.97655-3.2557 1.5297-0.60668 0.55013-1.8087 0.9814-2.5048 1.5297-1.1174 0.28446-2.4011 0.75333-3.0054 1.2744-0.9881 0.12073-1.537 0.38576-2.0036 1.0196-0.89273 1.09-0.50239 1.0196-1.503 1.0196-0.85579 0.52891-2.1866 0.5101-3.5066 0.5101-1.3361-0.0364-2.388-0.25535-3.7569-0.25535-1.1752-0.2135-2.2491-0.46402-3.5066-0.50951h-3.5066-3.506-3.5066-4.0078-3.506-3.5066c-1.3308 0-2.1359 0.1674-3.2563 0.25476-1.2462 0.091-2.2176 0.36696-3.2557 0.5101-1.1287 0.17287-1.6448 0.60473-2.5048 1.0196-0.79083 0.38152-1.5882 0.76546-2.5048 1.0196-1.2294 0.66175-2.6442 1.0087-4.0072 1.2744-1.0286 0.48586-2.4893 0.74546-3.2563 1.275-1.174 0.0916-1.9422 0.41427-3.2557 0.5095-1.1156 0.51375-2.0346 0.78731-3.006 1.0196-0.90047 0.3057-1.767 0.49494-3.0054 0.51011-1.1585 0.15952-1.7974 0.49131-3.0054 0.76486-0.42968 0.36817-1.1156 0.63021-1.7533 0.76425-1.4714 0.70967-1.9535 0.76487-3.5066 0.76487h-3.5066c-1.6705-0.16499-3.3284-0.37728-5.009-0.76487-1.7146-0.0837-3.3498-0.30388-5.0096-0.5095h-3.7569-3.7569-3.5066c-1.3236-0.0479-2.4988-0.3057-3.7569-0.51011-1.1776-0.21412-2.422-0.31784-3.506-0.76425-1.5578-0.0837-3.1335-0.29843-4.5084-0.76487-1.2527-0.22745-2.4535-0.65568-3.7569-0.76486-0.72349-0.44703-2.1424-0.59564-2.7551-1.0196-1.1454-0.0898-2.0972-0.45188-2.7551-1.0196-1.1716-0.17711-1.8504-0.70299-3.006-1.0196-1.0405-0.64113-2.2968-0.85584-3.7569-1.5297-1.2438-0.27112-2.4887-0.71875-3.7569-1.0196-0.99882-0.3518-2.2164-0.68661-3.0054-1.2744-1.1073-0.30751-1.7426-0.6393-3.0054-1.0202-0.58998-0.53437-1.7509-1.0942-2.5048-1.5291-0.54768-0.49676-1.9869-1.3502-2.7551-1.7845-0.81586-0.96138-1.6389-1.9094-2.7551-3.0588-0.77474-0.8601-1.6591-1.5516-2.5048-2.0398-1.0858-0.46036-2.3159-1.1185-3.0054-1.5291-0.94876-0.26324-1.7146-0.85038-2.2545-1.5297-0.85399-0.49251-1.4112-0.93165-2.2539-1.5291-1.3087 0.50466-1.4464 0.25475-2.7551 0.25475-1.4929-0.12497-2.5912-0.17166-4.0072 0-1.2247 0.14679-2.4226 0.25476-3.7575 0.25476h-3.506c-1.5846 0.0194-1.8409 0.22806-2.2545 1.5297-0.72885 0.81581-1.0334 1.7711-1.7533 2.294-0.61799 0.79763-1.5095 1.3405-2.5048 1.7845-1.2366 0.8704-1.6097 1.1852-2.2539 2.2946-0.82003 0.73151-1.5036 1.7778-2.0036 2.5487-0.4547 0.79154-0.75983 1.5249-1.0018 2.8041 0 1.2198 0.0983 2.5032-0.2503 3.569 0 1.2198 0.0983 2.5032-0.2509 3.569v3.569 3.5689c0.52205 0.78124 1.2253 1.0809 1.503 2.294 0.37128 1.0075-0.31644 0.64659-1.0018 1.2744h-3.5066-3.5066c-1.2771 0-2.3111-0.16801-3.5066-0.25475-1.0119-0.18378-2.4935-0.2511-3.2557-0.5095h-3.5066c-1.2461-0.091-2.2175-0.36697-3.2563-0.51011-1.4506-0.28143-2.4541-0.70845-3.7569-1.5297-1.3337-0.29054-2.3522-0.80186-3.5066-1.5291-1.2438-0.33178-2.2294-0.99656-3.506-1.275-0.85937-0.41367-1.4738-0.8146-2.5048-1.2744-0.60609-0.84433-1.1907-1.315-2.5048-1.5297-1.0078-0.52649-1.8618-0.5095-3.2557-0.5095-1.3051 0.1577-2.065 0.50343-3.006 0.76486-1.0435 0.48039-2.4041 0.88921-3.2557 1.2744-0.85162 0.34694-1.6252 0.81278-2.5048 1.2744-0.67343 0.88192-1.0674 1.409-1.503 2.2946-0.33372 0-0.2503-0.0849-0.2503 0.25476-1.3492 0.0491-2.7682 0-4.2575 0-0.70681 0.35969-2.0817 0.43733-3.006 0.5101-0.73362 0.57744-1.6013 1.0778-2.2539 1.5291-0.43207 0.87949-0.73422 1.1136-0.7515 2.5493 0.0536 1.5231 0.59118 1.9658 1.0018 3.0588-0.30156 1.3902-0.83732 1.5055-2.0036 1.7845-0.88618 0.19591-2.0417 0.25475-3.2563 0.25475h-3.7569-3.7569c-1.4428 0-2.121 0.0164-2.7551-0.76425-0.43564-0.86434-0.47676-1.9658-0.7515-2.8041-0.74612-1.033-1.0793-1.7262-2.2539-2.5493-0.25863-0.78973-0.87903-1.9488-1.2521-2.8041-0.40168-0.86191-0.71156-1.6231-1.503-2.2946-0.83255-0.7867-1.7759-1.2974-2.5048-2.0392-0.83792-0.54711-1.5107-1.0014-3.0054-1.0196-1.214 0-2.3701 0.0589-3.2563 0.25475-0.61025 0.53923-1.6311 1.1148-2.5042 1.7845-0.69251 0.93954-1.3063 1.625-2.2545 2.5493-1.0686 0.99716-2.1317 1.6025-3.0054 2.0392-0.80037 0.4076-1.6168 0.91043-2.2545 1.7845-0.74375 0.32997-1.1049 0.88375-1.5024 1.7845-0.65375 0.59321-1.0286 1.5813-1.2527 2.5493-0.40823 1.2477-0.46424 2.681-0.50059 4.0785v3.5689c-0.39632 0.47919-0.61027 0.98869-1.2521 1.5297-0.61324 0.5556-1.5352 1.1634-2.2545 1.5291-0.69786 0.91347-1.1329 1.4497-1.2521 2.8041 0 1.1142-0.10367 2.593 0.2503 3.3142 0.50656 0.72179 1.5286 1.2204 2.5048 1.7845 0.93803 0.33846 1.4249 1.0784 2.0036 2.0392 1.0727 0.49009 0.9404 0.9438 2.2539 1.0196 0.7956 0.63627 2.0161 0.83583 3.006 1.2744 1.0024 0.27841 1.5018 0.74182 2.5042 1.0196 0.64899 0.86008 1.3641 1.4181 1.7533 2.8041 0.10546 0.89102 0.45173 1.7839 0 2.5493-1.0203 0.61807-2.3892 1.0117-3.0054 1.5297-0.8105 0.0431-0.7503 0.23473-1.2521 0.5095-0.0103 1.7038-0.23362 2.5724-0.5012 3.8237-0.0858 1.1403-0.2503 1.9598-0.2503 3.3142v3.569c0.53278 1.1324 1.2366 1.3435 2.0036 2.0392 0.76342 0.55499 1.0012 1.2089 1.2521 2.294 0.42968 0.99717 0.88737 1.8287 1.2527 2.8041 0.4565 0.97655 0.7515 1.8627 0.7515 3.3142-0.1251 1.3957-0.69846 1.6359-1.7533 2.294-0.5602 0.69026-0.37605 1.9118-0.7515 3.0594 0 1.1749-0.0137 2.5075 0.2503 3.3136 0.42908 0.58229 0.32479 0.82612 0.5012 1.7845z" fill-rule="evenodd" fill="#ffce00"/>
  <g id="g588" fill-rule="evenodd" transform="matrix(.59595 0 0 .60655 -117.78 -72.873)" fill="#009a00">
   <path id="path569" d="m460.16 634.92l-0.683-0.683c1.55 1.549 0.802 0.981-0.683-2.731-0.145-3.936-1.098-4.57-3.413-6.145-2.715-0.904-3.875-2.064-4.779-4.779-1.736-1.433-3.042-3.351-4.097-5.462-1.876-1.275-3.503-2.903-4.779-4.779-1.876-1.276-3.503-2.903-4.779-4.779-2.594-0.906-4.306-2.751-7.51-4.096-1.803-1.719-3.497-2.567-6.145-4.097-2.963-1.419-3.132-2.446-6.827-2.731-1.13 1.244-2.92 0.755-3.414 2.731 0.15 4.046 0.955 4.894 2.731 8.193 0.138 3.729 1.14 5.484 2.731 8.193 1.939 1.357 3.431 3.769 5.462 5.462 2.168 1.474 3.03 3.04 6.145 4.779 1.627 2.035 4.347 3.126 6.827 4.779 3.054 1.178 5.559 2.087 7.51 3.414 2.74 0.644 4.611 1.681 6.827 2.731 3.277 0.307 4.611 0.673 8.876 0z"/>
   <path id="path570" d="m474.5 654.03l-0.682-0.682c1.621 1.621 0.848 0.958-1.366-2.731-2.524-2.39-3.07-4.221-6.827-4.78-2.006-0.802-5.262-1.298-7.51-2.048-3.887 0-5.668-0.415-8.876-1.365-2.293-0.626-5.194-1.738-7.51-2.731-2.746-0.408-5.589-1.482-8.193-2.048h-9.558c-3.067 0.721-4.793 0.753-5.462 4.096 1.4 1.695 3.248 3.173 4.779 4.779 0.863 2.999 2.946 3.714 4.779 5.462 3.161 1.094 3.803 1.911 7.51 2.048 3.143 1.048 5.428 1.324 8.876 1.366 3.657 0 6.287 0.742 9.558 1.365 2.724 0.368 5.396 0.683 8.876 0.683 2.966 0 6.197-0.017 8.193-0.683 4.302-3.441 3.413-4.188 3.413 0.683 0.456 0.455 0.911 0.91 1.366 1.365"/>
   <path id="path571" d="m497.71 664.27h-0.682c1.843 0 0.907 0.045-2.731-0.682-3.405-0.973-5.339-1.918-8.876-2.049-2.101-1.228-4.68-1.365-8.193-1.365h-9.558c-3.38 0.26-4.813 1.105-8.193 1.365-1.794 1.05-5.358 1.912-7.51 2.731-1.92 1.306-3.559 2.929-6.145 4.097 0.596 3.391 2.479 4.668 4.78 6.144 2.31 0.925 4.685 1.798 8.192 2.049 3.355 0.124 5.163 0.682 8.876 0.682 3.479 0 6.152-0.314 8.876-0.682 2.266-1.074 4.194-2.199 7.51-2.731 1.653-1.433 4.073-2.433 6.144-3.414 1.834-0.868 4.329-1.669 6.145-2.731l-6.145 2.731c1.834-0.868 4.329-1.669 7.51-6.145z"/>
   <path id="path573" d="m529.8 679.98v-0.682c0 1.908 0.085 0.894-1.365-2.731-2.527-1.332-5.559-2.273-7.511-3.414-2.984 0-6.944-0.283-8.875 0.683-3.448 0.041-5.733 0.318-8.876 1.365-2.996 0.452-4.723 1.5-6.827 2.731-2.378 1.283-5.824 2.934-8.876 4.096-2.698 1.881-3.612 2.984-6.827 4.78-2.025 2.219-4.098 3.552-5.462 5.462-0.606 2.304 0.039 5.022 2.731 6.144 1.702 1.406 4.316 2.14 6.827 2.731 3.187-0.118 6.001-0.56 8.193-2.048 3.383-0.448 5.393-1.44 8.193-2.048 2.396-0.851 4.69-1.667 7.51-2.049 1.953-1.324 5.416-2.467 7.51-3.413 3.43-1.389 5.621-3.221 8.193-4.779 1.226-1.419 2.862-2.951 4.779-3.414l-4.779 3.414c1.226-1.419 2.862-2.951 5.462-6.828z" transform="matrix(1 0 0 .85157 1.1887 101.1)"/>
   <path id="path574" d="m557.11 693.63c-0.127-0.032-3.176-1.365-5.461-1.365-2.024-1.184-5.299-1.422-8.193-2.731-3.731 0-6.271 0.418-8.193 2.048-2.838 0.383-5.375 1.217-7.51 2.731-2.658 0.625-5.07 1.21-7.51 2.731-3.294 1.382-4.744 2.679-6.828 4.096-1.405 1.701-4.441 2.652-6.144 4.097-1.529 1.851-1.526 4.299-0.683 6.827 1.748 1.076 4.736 2.144 6.827 3.414 3.052 0.545 6.162 0.682 9.559 0.682 3.031-0.233 5.588-0.741 7.51-2.048 3.434-1.654 4.348-2.876 6.827-4.779 1.434-1.736 3.833-3.133 6.145-4.096 1.742-1.51 3.856-2.614 6.827-3.414 1.663-1.585 3.194-3.117 4.779-4.779 1.909 0 0.598 0.211 2.048-3.414z" transform="matrix(1 0 0 .88839 0 76.96)"/>
   <path id="path575" d="m587.15 696.36c-0.164-0.025-3.855-0.683-6.145-0.683-1.931-0.965-5.891-0.683-8.875-0.683-3.762 0.14-4.925 0.917-6.828 2.731-1.935 1.191-4.271 2.261-6.144 4.097-2.394 1.467-4.551 3.489-6.828 4.779-2.505 1.073-4.664 2.302-7.51 2.731-1.372 1.661-3.778 3.096-5.462 4.779-1.874 1.406-2.669 2.082-2.731 5.462-1.39 1.121-2.329 3.322-2.048 4.096 2.763 1.419 5.047 2.003 8.876 2.049 3.647 0.043 6.208 0.837 9.558 0 3.414-1.012 4.778-1.72 8.193-2.731 1.743-2.271 3.052-3.791 5.462-5.462 1.302-1.915 2.862-3.677 5.462-4.779 1.948-1.772 4.83-3.729 6.827-4.78 1.221-1.709 3.602-3.527 5.462-4.779 1.368-2.315 1.757-2.7 2.731-6.827z" transform="matrix(1 0 0 .86641 -.59437 95.81)"/>
   <path id="path577" d="m589.88 693.63v-10.924-9.558c-3.17-1.875-3.645-2.997-4.779-6.827-1.683-2.73-2.969-4.447-4.097-6.828-1.581-1.659-2.884-3.812-3.414-6.827-1.304-2.528-2.113-5.07-4.779-6.145-2.415-0.525-5.565-0.683-8.875-0.683-4.522 0.168-4.097 0.965-4.097 5.462 0.318 3.497 1.433 4.412 2.731 7.51 1.003 2.118 2.092 4.294 3.414 6.145 1.021 2.262 2.623 5.174 4.096 6.827 1.196 2.511 2.915 4.786 3.414 7.511 1.871 2.374 3.164 4.451 4.779 6.144 1.337 2.791 2.343 4.37 4.779 5.462 1.393 2.088 3.748 2.26 6.828 2.731z"/>
   <path id="path578" d="m557.11 682.71h0.683c-1.908 0-0.894 0.085 2.731-1.365 0.966-1.932 0.683-5.891 0.683-8.876 0-3.887-0.643-5.542-1.366-8.193-1.242-2.965-2.255-4.355-2.731-7.51-1.021-2.156-2.049-4.329-2.731-6.827-1.227-1.806-2.104-4.529-2.73-6.827-2.305-1.306-4.433-2.616-6.828-3.414-2.171-1.028-4.193-2.561-6.827-3.414-3.425 0.627-3.812 1.756-4.097 5.462-0.787 2.754 0.293 5.244 1.366 7.51 1.128 2.694 1.801 5.426 3.414 7.51 0.984 3.063 1.986 4.131 2.048 7.51 1.175 2.01 1.666 4.969 2.731 7.51 1.371 3.171 2.647 4.538 4.779 6.828 2.915 1.982 3.916 2.814 8.875 4.096z"/>
   <path id="path579" d="m529.8 673.83c0-0.327 2.168-1.67 3.414-3.414 1.02-2.041 0.894-6.191 0-8.876-1.295-3.199-2.706-5.597-3.414-8.192-0.72-2.16-0.683-5.728-0.683-8.876-0.623-2.868-1.649-4.988-2.731-8.193-0.882-2.206-2.602-4.966-3.413-7.51-1.065-1.006-2.269-3.071-3.414-4.096-1.335-1.092-1.382-1.366-4.096-1.366-3.629 0.135-5.455 0.47-7.511 2.731-0.719 2.16-0.682 5.728-0.682 8.876 0.045 3.762 0.395 5.541 2.048 8.193 1.206 2.869 3.736 5.663 5.462 8.192 1.415 2.396 2.316 4.675 4.096 6.145 0.464 3.076 1.621 4.484 2.731 6.827 0.464 3.076 1.621 4.484 2.731 6.828 1.786 0.198 0.952 0.634 2.048 1.365l-2.048-1.365c1.786 0.198 0.952 0.634 5.462 2.731z"/>
   <path id="path581" d="m502.49 653.35c0.417-0.939 2.951-4.593 3.413-6.828-0.046-3.872-0.497-6.515-2.731-8.875-0.554-2.389-1.894-5.998-2.731-8.193 0-3.148 0.038-6.716-0.682-8.876 0-3.587-0.496-5.742-1.366-8.193-1.542-2.267-3.203-2.931-6.827-4.096-2.937-0.979-4.967-0.273-8.193 0.683v9.558c0.043 3.613 0.688 6.193 2.048 8.193 1.11 2.342 2.182 4.016 3.414 6.827 0.132 3.711 1.116 5.629 1.365 8.876 0.269 3.491 0.597 5.298 2.731 7.51 2.907 1.374 3.794 2.703 6.145 3.414l-6.145-3.414c2.907 1.374 3.794 2.703 9.559 3.414z"/>
   <path id="path582" d="m477.92 638.33v-0.682c0 1.908-0.084 0.894 1.366-2.731 0.739-2.96 0.682-6.218 0.682-9.559-0.211-2.751-0.61-5.928-1.365-8.192-0.624-3.495-1.339-5.682-2.048-8.876-0.488-2.773-2.366-5.834-3.414-8.193-0.67-2.01-1.353-6.2-2.048-8.193-0.489-2.552-1.715-3.355-4.097-4.096-1.869-0.935-6.323-0.935-8.193 0-2.009 0.696-2.006 2.284-2.73 4.096-0.253 3.533-0.854 6.143 0 9.559 1.155 1.975 2.377 4.071 3.413 6.144 1.342 2.423 2.687 6.059 4.097 8.193 1.027 3.467 1.407 5.068 3.413 8.193 0.738 2.213 1.902 4.873 3.414 6.827 0.972 2.43 2.39 4.152 3.414 6.828 1.842 0 0.461-0.045 4.096 0.682z"/>
   <path id="path583" d="m618.13 711.13h-0.594-2.378-8.321c-1.735 1.648-2.339 2.595-5.349 2.972-1.52 1.317-2.96 2.534-5.349 2.971-2.103 0.458-4.845 0.595-7.727 0.595-3.523-0.043-4.733 0.109-5.349-2.972 0.056-3.063 0.2-3.234 2.972-3.566 1.484-1.226 3.971-1.807 6.538-2.377 1.962-0.697 4.365-1.311 6.538-1.784 2.107-0.748 4.118-1.512 5.943-2.377-0.454-1.815-1.921-1.417-3.566-0.594-2.135 0-4.682 0.162-5.944-0.595-1.483-2.204-2.286-2.927-5.943-2.971-3.47-0.042-4.062-0.953-7.132-1.189-2.94-0.036-4.995-0.476-7.133-1.189-3.138-0.224-5.246-0.702-7.726-1.783-0.797-0.797 1.094-0.962 2.377-1.189 1.758-1.195 3.617-1.675 6.538-1.783h8.321c3.049 0 5.395 0.49 8.321 0.595 2.385 0.825 4.891 1.257 6.538 2.377 2.151 0.717 3.505 1.978 4.755 3.566 2.091 0.571 4.195 1.274 6.538 1.783 2.74 0 5.846-0.032 7.726 0.595 1.361 2.268 0.285 5.986-0.594 8.915z"/>
  </g>
  <g id="g601" fill-rule="evenodd" transform="matrix(-.59595 0 0 .60655 620.4 -72.512)" fill="#009a00">
   <path id="path602" d="m460.16 634.92l-0.683-0.683c1.55 1.549 0.802 0.981-0.683-2.731-0.145-3.936-1.098-4.57-3.413-6.145-2.715-0.904-3.875-2.064-4.779-4.779-1.736-1.433-3.042-3.351-4.097-5.462-1.876-1.275-3.503-2.903-4.779-4.779-1.876-1.276-3.503-2.903-4.779-4.779-2.594-0.906-4.306-2.751-7.51-4.096-1.803-1.719-3.497-2.567-6.145-4.097-2.963-1.419-3.132-2.446-6.827-2.731-1.13 1.244-2.92 0.755-3.414 2.731 0.15 4.046 0.955 4.894 2.731 8.193 0.138 3.729 1.14 5.484 2.731 8.193 1.939 1.357 3.431 3.769 5.462 5.462 2.168 1.474 3.03 3.04 6.145 4.779 1.627 2.035 4.347 3.126 6.827 4.779 3.054 1.178 5.559 2.087 7.51 3.414 2.74 0.644 4.611 1.681 6.827 2.731 3.277 0.307 4.611 0.673 8.876 0z"/>
   <path id="path603" d="m474.5 654.03l-0.682-0.682c1.621 1.621 0.848 0.958-1.366-2.731-2.524-2.39-3.07-4.221-6.827-4.78-2.006-0.802-5.262-1.298-7.51-2.048-3.887 0-5.668-0.415-8.876-1.365-2.293-0.626-5.194-1.738-7.51-2.731-2.746-0.408-5.589-1.482-8.193-2.048h-9.558c-3.067 0.721-4.793 0.753-5.462 4.096 1.4 1.695 3.248 3.173 4.779 4.779 0.863 2.999 2.946 3.714 4.779 5.462 3.161 1.094 3.803 1.911 7.51 2.048 3.143 1.048 5.428 1.324 8.876 1.366 3.657 0 6.287 0.742 9.558 1.365 2.724 0.368 5.396 0.683 8.876 0.683 2.966 0 6.197-0.017 8.193-0.683 4.302-3.441 3.413-4.188 3.413 0.683 0.456 0.455 0.911 0.91 1.366 1.365"/>
   <path id="path604" d="m497.71 664.27h-0.682c1.843 0 0.907 0.045-2.731-0.682-3.405-0.973-5.339-1.918-8.876-2.049-2.101-1.228-4.68-1.365-8.193-1.365h-9.558c-3.38 0.26-4.813 1.105-8.193 1.365-1.794 1.05-5.358 1.912-7.51 2.731-1.92 1.306-3.559 2.929-6.145 4.097 0.596 3.391 2.479 4.668 4.78 6.144 2.31 0.925 4.685 1.798 8.192 2.049 3.355 0.124 5.163 0.682 8.876 0.682 3.479 0 6.152-0.314 8.876-0.682 2.266-1.074 4.194-2.199 7.51-2.731 1.653-1.433 4.073-2.433 6.144-3.414 1.834-0.868 4.329-1.669 6.145-2.731l-6.145 2.731c1.834-0.868 4.329-1.669 7.51-6.145z"/>
   <path id="path605" d="m529.8 679.98v-0.682c0 1.908 0.085 0.894-1.365-2.731-2.527-1.332-5.559-2.273-7.511-3.414-2.984 0-6.944-0.283-8.875 0.683-3.448 0.041-5.733 0.318-8.876 1.365-2.996 0.452-4.723 1.5-6.827 2.731-2.378 1.283-5.824 2.934-8.876 4.096-2.698 1.881-3.612 2.984-6.827 4.78-2.025 2.219-4.098 3.552-5.462 5.462-0.606 2.304 0.039 5.022 2.731 6.144 1.702 1.406 4.316 2.14 6.827 2.731 3.187-0.118 6.001-0.56 8.193-2.048 3.383-0.448 5.393-1.44 8.193-2.048 2.396-0.851 4.69-1.667 7.51-2.049 1.953-1.324 5.416-2.467 7.51-3.413 3.43-1.389 5.621-3.221 8.193-4.779 1.226-1.419 2.862-2.951 4.779-3.414l-4.779 3.414c1.226-1.419 2.862-2.951 5.462-6.828z" transform="matrix(1 0 0 .85157 1.1887 101.1)"/>
   <path id="path606" d="m557.11 693.63c-0.127-0.032-3.176-1.365-5.461-1.365-2.024-1.184-5.299-1.422-8.193-2.731-3.731 0-6.271 0.418-8.193 2.048-2.838 0.383-5.375 1.217-7.51 2.731-2.658 0.625-5.07 1.21-7.51 2.731-3.294 1.382-4.744 2.679-6.828 4.096-1.405 1.701-4.441 2.652-6.144 4.097-1.529 1.851-1.526 4.299-0.683 6.827 1.748 1.076 4.736 2.144 6.827 3.414 3.052 0.545 6.162 0.682 9.559 0.682 3.031-0.233 5.588-0.741 7.51-2.048 3.434-1.654 4.348-2.876 6.827-4.779 1.434-1.736 3.833-3.133 6.145-4.096 1.742-1.51 3.856-2.614 6.827-3.414 1.663-1.585 3.194-3.117 4.779-4.779 1.909 0 0.598 0.211 2.048-3.414z" transform="matrix(1 0 0 .88839 0 76.96)"/>
   <path id="path607" d="m587.15 696.36c-0.164-0.025-3.855-0.683-6.145-0.683-1.931-0.965-5.891-0.683-8.875-0.683-3.762 0.14-4.925 0.917-6.828 2.731-1.935 1.191-4.271 2.261-6.144 4.097-2.394 1.467-4.551 3.489-6.828 4.779-2.505 1.073-4.664 2.302-7.51 2.731-1.372 1.661-3.778 3.096-5.462 4.779-1.874 1.406-2.669 2.082-2.731 5.462-1.39 1.121-2.329 3.322-2.048 4.096 2.763 1.419 5.047 2.003 8.876 2.049 3.647 0.043 6.208 0.837 9.558 0 3.414-1.012 4.778-1.72 8.193-2.731 1.743-2.271 3.052-3.791 5.462-5.462 1.302-1.915 2.862-3.677 5.462-4.779 1.948-1.772 4.83-3.729 6.827-4.78 1.221-1.709 3.602-3.527 5.462-4.779 1.368-2.315 1.757-2.7 2.731-6.827z" transform="matrix(1 0 0 .86641 -.59437 95.81)"/>
   <path id="path608" d="m589.88 693.63v-10.924-9.558c-3.17-1.875-3.645-2.997-4.779-6.827-1.683-2.73-2.969-4.447-4.097-6.828-1.581-1.659-2.884-3.812-3.414-6.827-1.304-2.528-2.113-5.07-4.779-6.145-2.415-0.525-5.565-0.683-8.875-0.683-4.522 0.168-4.097 0.965-4.097 5.462 0.318 3.497 1.433 4.412 2.731 7.51 1.003 2.118 2.092 4.294 3.414 6.145 1.021 2.262 2.623 5.174 4.096 6.827 1.196 2.511 2.915 4.786 3.414 7.511 1.871 2.374 3.164 4.451 4.779 6.144 1.337 2.791 2.343 4.37 4.779 5.462 1.393 2.088 3.748 2.26 6.828 2.731z"/>
   <path id="path609" d="m557.11 682.71h0.683c-1.908 0-0.894 0.085 2.731-1.365 0.966-1.932 0.683-5.891 0.683-8.876 0-3.887-0.643-5.542-1.366-8.193-1.242-2.965-2.255-4.355-2.731-7.51-1.021-2.156-2.049-4.329-2.731-6.827-1.227-1.806-2.104-4.529-2.73-6.827-2.305-1.306-4.433-2.616-6.828-3.414-2.171-1.028-4.193-2.561-6.827-3.414-3.425 0.627-3.812 1.756-4.097 5.462-0.787 2.754 0.293 5.244 1.366 7.51 1.128 2.694 1.801 5.426 3.414 7.51 0.984 3.063 1.986 4.131 2.048 7.51 1.175 2.01 1.666 4.969 2.731 7.51 1.371 3.171 2.647 4.538 4.779 6.828 2.915 1.982 3.916 2.814 8.875 4.096z"/>
   <path id="path610" d="m529.8 673.83c0-0.327 2.168-1.67 3.414-3.414 1.02-2.041 0.894-6.191 0-8.876-1.295-3.199-2.706-5.597-3.414-8.192-0.72-2.16-0.683-5.728-0.683-8.876-0.623-2.868-1.649-4.988-2.731-8.193-0.882-2.206-2.602-4.966-3.413-7.51-1.065-1.006-2.269-3.071-3.414-4.096-1.335-1.092-1.382-1.366-4.096-1.366-3.629 0.135-5.455 0.47-7.511 2.731-0.719 2.16-0.682 5.728-0.682 8.876 0.045 3.762 0.395 5.541 2.048 8.193 1.206 2.869 3.736 5.663 5.462 8.192 1.415 2.396 2.316 4.675 4.096 6.145 0.464 3.076 1.621 4.484 2.731 6.827 0.464 3.076 1.621 4.484 2.731 6.828 1.786 0.198 0.952 0.634 2.048 1.365l-2.048-1.365c1.786 0.198 0.952 0.634 5.462 2.731z"/>
   <path id="path611" d="m502.49 653.35c0.417-0.939 2.951-4.593 3.413-6.828-0.046-3.872-0.497-6.515-2.731-8.875-0.554-2.389-1.894-5.998-2.731-8.193 0-3.148 0.038-6.716-0.682-8.876 0-3.587-0.496-5.742-1.366-8.193-1.542-2.267-3.203-2.931-6.827-4.096-2.937-0.979-4.967-0.273-8.193 0.683v9.558c0.043 3.613 0.688 6.193 2.048 8.193 1.11 2.342 2.182 4.016 3.414 6.827 0.132 3.711 1.116 5.629 1.365 8.876 0.269 3.491 0.597 5.298 2.731 7.51 2.907 1.374 3.794 2.703 6.145 3.414l-6.145-3.414c2.907 1.374 3.794 2.703 9.559 3.414z"/>
   <path id="path612" d="m477.92 638.33v-0.682c0 1.908-0.084 0.894 1.366-2.731 0.739-2.96 0.682-6.218 0.682-9.559-0.211-2.751-0.61-5.928-1.365-8.192-0.624-3.495-1.339-5.682-2.048-8.876-0.488-2.773-2.366-5.834-3.414-8.193-0.67-2.01-1.353-6.2-2.048-8.193-0.489-2.552-1.715-3.355-4.097-4.096-1.869-0.935-6.323-0.935-8.193 0-2.009 0.696-2.006 2.284-2.73 4.096-0.253 3.533-0.854 6.143 0 9.559 1.155 1.975 2.377 4.071 3.413 6.144 1.342 2.423 2.687 6.059 4.097 8.193 1.027 3.467 1.407 5.068 3.413 8.193 0.738 2.213 1.902 4.873 3.414 6.827 0.972 2.43 2.39 4.152 3.414 6.828 1.842 0 0.461-0.045 4.096 0.682z"/>
   <path id="path613" d="m618.13 711.13h-0.594-2.378-8.321c-1.735 1.648-2.339 2.595-5.349 2.972-1.52 1.317-2.96 2.534-5.349 2.971-2.103 0.458-4.845 0.595-7.727 0.595-3.523-0.043-4.733 0.109-5.349-2.972 0.056-3.063 0.2-3.234 2.972-3.566 1.484-1.226 3.971-1.807 6.538-2.377 1.962-0.697 4.365-1.311 6.538-1.784 2.107-0.748 4.118-1.512 5.943-2.377-0.454-1.815-1.921-1.417-3.566-0.594-2.135 0-4.682 0.162-5.944-0.595-1.483-2.204-2.286-2.927-5.943-2.971-3.47-0.042-4.062-0.953-7.132-1.189-2.94-0.036-4.995-0.476-7.133-1.189-3.138-0.224-5.246-0.702-7.726-1.783-0.797-0.797 1.094-0.962 2.377-1.189 1.758-1.195 3.617-1.675 6.538-1.783h8.321c3.049 0 5.395 0.49 8.321 0.595 2.385 0.825 4.891 1.257 6.538 2.377 2.151 0.717 3.505 1.978 4.755 3.566 2.091 0.571 4.195 1.274 6.538 1.783 2.74 0 5.846-0.032 7.726 0.595 1.361 2.268 0.285 5.986-0.594 8.915z"/>
  </g>
 </g>
</svg>
