<svg xmlns="http://www.w3.org/2000/svg" id="flag-icons-dg" version="1.1" viewBox="0 0 512 512">
  <defs id="defs1221">
    <clipPath id="dg-a">
      <path id="path1218" fill-opacity=".7" d="M0 0h682.7v512H0Z"/>
    </clipPath>
  </defs>
  <path id="path1225" fill="#000063" fill-rule="evenodd" d="M512 444c-5.7 7-10.6 23.4-25.9 23.4-30.5 0-38.1-34.6-61-34.6-15.2 0-22.8 34.7-38 34.7-30.6 0-38.2-34.7-61-34.7-15.3 0-22.9 34.7-38 34.7-30.6 0-38.2-34.7-61-34.7-15.3 0-22.9 34.7-38.1 34.7-30.5 0-38.1-34.7-61-34.7-15.3 0-22.9 34.7-38.1 34.7-30.5 0-38.1-34.7-61-34.7-15.2 0-19.7 24.7-28.9 24.7V502c9.2 0 13.7-24.7 29-24.7 22.8 0 30.5 34.7 60.9 34.7 15.3 0 22.9-34.7 38.1-34.7 22.9 0 30.5 34.7 61 34.7 15.2 0 22.8-34.7 38-34.7 22.9 0 30.6 34.7 61 34.7 15.3 0 22.9-34.7 38.1-34.7 22.9 0 30.5 34.7 61 34.7 15.2 0 22.8-34.7 38-34.7 22.9 0 30.6 34.7 61 34.7 15.3 0 20.2-9.8 25.9-16.8zm0-86.6c-5.7 7.1-10.6 23.4-25.9 23.4-30.5 0-38.1-34.6-61-34.6-15.2 0-22.8 34.6-38 34.6-30.6 0-38.2-34.6-61-34.6-15.3 0-22.9 34.6-38 34.6-30.6 0-38.2-34.6-61-34.6-15.3 0-22.9 34.6-38.1 34.6-30.5 0-38.1-34.6-61-34.6-15.3 0-22.9 34.6-38.1 34.6-30.5 0-38.1-34.6-61-34.6-15.2 0-19.7 24.7-28.9 24.7v44.6c9.2 0 13.7-24.7 29-24.7 22.8 0 30.5 34.7 60.9 34.7 15.3 0 22.9-34.7 38.1-34.7 22.9 0 30.5 34.7 61 34.7 15.2 0 22.8-34.7 38-34.7 22.9 0 30.6 34.7 61 34.7 15.3 0 22.9-34.7 38.1-34.7 22.9 0 30.5 34.7 61 34.7 15.2 0 22.8-34.7 38-34.7 22.9 0 30.6 34.7 61 34.7 15.3 0 20.2-9.8 25.9-16.9zm0-86.6c-5.7 7.2-10.6 23.5-25.9 23.5-30.5 0-38.1-34.7-61-34.7-15.2 0-22.8 34.7-38 34.7-30.6 0-38.2-34.7-61-34.7-15.3 0-22.9 34.7-38 34.7-30.6 0-38.2-34.7-61-34.7-15.3 0-22.9 34.7-38.1 34.7-30.5 0-38.1-34.7-61-34.7-15.3 0-22.9 34.7-38.1 34.7-30.5 0-38.1-34.7-61-34.7-15.2 0-19.7 24.8-28.9 24.8v44.5c9.2 0 13.7-24.6 29-24.6 22.8 0 30.5 34.6 60.9 34.6 15.3 0 22.9-34.6 38.1-34.6 22.9 0 30.5 34.6 61 34.6 15.2 0 22.8-34.6 38-34.6 22.9 0 30.6 34.6 61 34.6 15.3 0 22.9-34.6 38.1-34.6 22.9 0 30.5 34.6 61 34.6 15.2 0 22.8-34.6 38-34.6 22.9 0 30.6 34.6 61 34.6 15.3 0 20.2-9.9 25.9-16.9zm0-86.5c-5.7 7-10.6 23.4-25.9 23.4-30.5 0-38.1-34.6-61-34.6-15.2 0-22.8 34.6-38 34.6-30.6 0-38.2-34.6-61-34.6-15.3 0-22.9 34.6-38 34.6-30.6 0-38.2-34.6-61-34.6-15.3 0-22.9 34.6-38.1 34.6-30.5 0-38.1-34.6-61-34.6-15.3 0-22.9 34.6-38.1 34.6-30.5 0-38.1-34.6-61-34.6-15.2 0-19.7 24.7-28.9 24.7v44.6c9.2 0 13.7-24.7 29-24.7 22.8 0 30.5 34.7 60.9 34.7 15.3 0 22.9-34.7 38.1-34.7 22.9 0 30.5 34.7 61 34.7 15.2 0 22.8-34.7 38-34.7 22.9 0 30.6 34.7 61 34.7 15.3 0 22.9-34.7 38.1-34.7 22.9 0 30.5 34.7 61 34.7 15.2 0 22.8-34.7 38-34.7 22.9 0 30.6 34.7 61 34.7 15.3 0 20.2-10 25.9-17zm0-86.6c-5.7 7-10.6 23.5-25.9 23.5-30.5 0-38.1-34.7-61-34.7-15.2 0-22.8 34.7-38 34.7-30.6 0-38.2-34.7-61-34.7-15.3 0-22.9 34.7-38 34.7-30.6 0-38.2-34.7-61-34.7-15.3 0-22.9 34.7-38.1 34.7-30.5 0-38.1-34.7-61-34.7-15.3 0-22.9 34.7-38.1 34.7-30.5 0-38.1-34.7-61-34.7-15.2.1-19.8 25-28.9 25V156c9.2 0 13.7-24.7 29-24.7 22.8 0 30.4 34.6 61 34.6 15.2 0 22.8-34.6 38-34.6 22.9 0 30.5 34.6 61 34.6 15.2 0 22.8-34.6 38-34.6 22.9 0 30.5 34.6 61 34.6 15.3 0 22.9-34.6 38.1-34.6 22.9 0 30.5 34.6 61 34.6 15.2 0 22.8-34.6 38-34.6 22.9 0 30.6 34.6 61 34.6 15.2 0 20.2-9.8 25.9-16.9V98Zm0-86.5c-5.7 7-10.6 23.5-25.9 23.5-30.5 0-38.1-34.7-61-34.7-15.2 0-22.8 34.7-38 34.7-30.6 0-38.2-34.7-61-34.7-15.3 0-22.9 34.7-38 34.7-30.6 0-38.2-34.7-61-34.7-15.3 0-22.9 34.7-38.2 34.7C158.4 34.7 151 0 128 0c-15.3 0-22.8 34.7-38.1 34.7C59.4 34.7 51.8 0 28.9 0 13.8 0 9.2 24.8 0 24.8v44.6c9.2 0 13.7-24.7 29-24.7 22.8 0 30.4 34.7 61 34.7 15.2 0 22.8-34.7 38-34.7 22.9 0 30.5 34.7 61 34.7 15.2 0 22.8-34.7 38-34.7 22.9 0 30.5 34.7 61 34.7 15.3 0 22.9-34.7 38.1-34.7 22.9 0 30.5 34.7 61 34.7 15.2 0 22.8-34.7 38-34.7 22.9 0 30.6 34.7 61 34.7 15.2 0 20.2-9.9 25.9-17z" style="stroke-width:.713901"/>
  <path id="path1237" fill="#a24300" fill-rule="evenodd" stroke="#fff" stroke-width="1.9" d="M377.3 169 374 470.2c0 15.9 14.3 15.9 15.8 0l-3.1-301z"/>
  <path id="path1239" fill="#006d00" fill-rule="evenodd" stroke="#fff" stroke-width="1.7" d="m410.1 281-10-11-2.4 11.1-4.4-16-4 8-.7-17-4 8.1-.8-17-4 8-2.4-20-4 8-2.3-20-4 8-2.4-20-1.1-10 2-4 5.2 2 8.4 7.9 16.7 15.9-10.4-4 16.8 16-10.4-4 16.8 16-10.4-4 15.1 13-10.4-4 15.2 12.9-10.4-4 11.5 14-12-7 2.8 13.1z"/>
  <path id="path1241" fill="none" stroke="#000" stroke-width=".3" d="m410.1 281-44.5-83.8M396 223l-24-13.8-4.9 22"/>
  <path id="path1243" fill="none" stroke="#000" stroke-width=".3" d="m402.3 235-24-13.9-4.9 22.2"/>
  <path id="path1245" fill="none" stroke="#000" stroke-width=".3" d="m408.7 247-24-13.9-5 22.1"/>
  <path id="path1247" fill="none" stroke="#000" stroke-width=".3" d="M413.4 256 391 245l-6.5 19.1"/>
  <path id="path1249" fill="none" stroke="#000" stroke-width=".3" d="m418.2 265-22.4-11-6.5 19.2"/>
  <path id="path1251" fill="none" stroke="#000" stroke-width=".3" d="M419.3 275 399 260l-1.4 21.1"/>
  <path id="path1253" fill="#006d00" fill-rule="evenodd" stroke="#fff" stroke-width="1.8" d="m293.2 138 16.3 6.3-4.7-12.4 14.2 14-1.3-10 11.5 16.8-1.4-10 11.6 16.8-1.4-10.1 15 19-1.4-10 14.9 19-1.4-10 15 19 7.4 9.6.7 5-6.1.5-13-4-25.7-7.9 12.2-1-25.8-8 12.3-1-25.8-8 12.2-1-22.4-5.7 12.2-1-22.4-5.7 12.2-1.1-19.6-8.5 15.6 1.2-10.8-11.8z"/>
  <path id="path1255" fill="none" stroke="#000" stroke-width=".3" d="m293.2 138 95 63m-44.8-11.4 31.2 2.4-9.5-24.6"/>
  <path id="path1257" fill="none" stroke="#000" stroke-width=".3" d="M329.8 180.6 361 183l-9.4-24.6"/>
  <path id="path1259" fill="none" stroke="#000" stroke-width=".3" d="m316.3 171.7 31.2 2.3-9.5-24.6"/>
  <path id="path1261" fill="none" stroke="#000" stroke-width=".3" d="M306.1 165h27.8l-6-22.4"/>
  <path id="path1263" fill="none" stroke="#000" stroke-width=".3" d="M296 158.2h27.8l-6.1-22.3"/>
  <path id="path1265" fill="none" stroke="#000" stroke-width=".3" d="m288.5 148.6 28.5 5.2-12.2-21.9"/>
  <path id="path1267" fill="#006d00" fill-rule="evenodd" stroke="#fff" stroke-width="1.8" d="M482.5 159 469 169l15 1.7-21 5 11.2 3.2-22.6 1.7 11.1 3.3-22.6 1.6 11.1 3.3-26.4 3.3 11.1 3.3-26.4 3.3 11.1 3.4-26.4 3.3L381 207l-5.6-1.6 2-5 9.8-8.3 19.5-16.5-4.2 9.9L422 169l-4.2 9.9 19.5-16.5-4.2 9.9 15.7-14.9-4.2 10 15.6-15-4.1 10 17.4-11.6-8 11.6 17-3.3z"/>
  <path id="path1269" fill="none" stroke="#000" stroke-width=".3" d="m482.5 159-107 46.3m31.2-29.7-16 23.1 30 3.4"/>
  <path id="path1271" fill="none" stroke="#000" stroke-width=".3" d="M422 169 406 192l30 3.3"/>
  <path id="path1273" fill="none" stroke="#000" stroke-width=".3" d="m437.3 162.4-16 23.1 30 3.3"/>
  <path id="path1275" fill="none" stroke="#000" stroke-width=".3" d="m448.8 157.4-12.2 21.5 26.1 5"/>
  <path id="path1277" fill="none" stroke="#000" stroke-width=".3" d="M460.3 152.4 448 174l26 5"/>
  <path id="path1279" fill="none" stroke="#000" stroke-width=".3" d="m473.5 150.8-17.8 19.8H484"/>
  <path id="path1281" fill="#006d00" fill-rule="evenodd" stroke="#fff" stroke-width="1.8" d="m480.4 259.3-17-5 6.1 12-15.7-12.9 2.4 10-13.2-15.9 2.4 10-13.3-15.9 2.4 10-16.8-17.9 2.4 10-16.9-17.8 2.4 9.9-16.9-17.8-8.4-9-1.2-4.9 6-1 13.3 3 26.5 5.8-12 2 26.4 5.9-12 2 26.5 5.8-12 2 22.9 4-12 2 22.8 3.8-12 2 20.4 7h-15.6l12 10.9z"/>
  <path id="path1283" fill="none" stroke="#000" stroke-width=".3" d="M480.4 259.3 379 204m45.8 7.8-31.4.1 12.1 23.8"/>
  <path id="path1285" fill="none" stroke="#000" stroke-width=".3" d="M439.3 219.8H408l12 23.8"/>
  <path id="path1287" fill="none" stroke="#000" stroke-width=".3" d="m453.8 227.6-31.3.2 12 23.7"/>
  <path id="path1289" fill="none" stroke="#000" stroke-width=".3" d="m464.7 233.5-27.8 2.1 8.5 21.8"/>
  <path id="path1291" fill="none" stroke="#000" stroke-width=".3" d="m475.5 239.4-27.7 2.1 8.4 21.8"/>
  <path id="path1293" fill="none" stroke="#000" stroke-width=".3" d="m484 248.3-29-2.8 14.5 20.8"/>
  <path id="path1295" fill="#006d00" fill-rule="evenodd" stroke="#fff" stroke-width="1.7" d="m304.4 265 8.5-11.8-13 1.9 16-9-10.2-.5 18.4-6.6-10.2-.4 18.3-6.5-10.2-.5 21-8.8-10.1-.5 21-8.8-10.2-.4 21.1-8.9 10.5-4.4 5.1.2-.3 5-5.7 9.4-11.6 19 .7-9.7-11.5 19 .6-9.7-11.5 19 .7-9.7L333 259l.6-9.7-8.8 16.7.7-9.8-11.2 14.2 3.4-12.1-13.3 6.7z"/>
  <path id="path1297" fill="none" stroke="#000" stroke-width=".3" d="m304.4 265 76-65M363 233.5l6.7-24-25.9 3.7"/>
  <path id="path1299" fill="none" stroke="#000" stroke-width=".3" d="m352 242.8 6.7-24.2-25.8 3.7"/>
  <path id="path1301" fill="none" stroke="#000" stroke-width=".3" d="M341.1 252 348 228l-25.9 3.7"/>
  <path id="path1303" fill="none" stroke="#000" stroke-width=".3" d="m333 259 4-21.8-23.1 1.4"/>
  <path id="path1305" fill="none" stroke="#000" stroke-width=".3" d="m324.8 266 4-21.9-23 1.5"/>
  <path id="path1307" fill="none" stroke="#000" stroke-width=".3" d="m314.3 270.4 9.1-21.6-23.4 6.3"/>
  <path id="path1309" fill="#006d00" fill-rule="evenodd" stroke="#fff" stroke-width="1.8" d="m458 109-16.4 11-2.6-11.7-9.7 16.2-1.8-7.8-7.8 16.7-1.1-7.7-6.2 17.1-3.5-8.2-6.1 20.8-3.5-8.3-6.1 20.8-3.5-8.2-6.2 20.7-3 10.4 1.7 4.2 6.6-2.2 11.4-8.4 22.7-16.9-13 4.3 22.7-16.8-13.2 4.3 22.8-16.9-13.1 4.3 22.8-13.1-15.6 3.7 24.6-12.7-15 3.9 18-14.3-15.5 7.4z"/>
  <path id="path1311" fill="none" stroke="#000" stroke-width=".3" d="M451.7 115 428 135.3 382.2 195"/>
  <path id="path1313" fill="none" stroke="#000" stroke-width=".3" d="m418 170-26.2 12.4-2.2-19"/>
  <path id="path1315" fill="none" stroke="#000" stroke-width=".3" d="m428 157.6-26.5 12.3-2.2-19"/>
  <path id="path1317" fill="none" stroke="#000" stroke-width=".3" d="m437.4 145-26.3 12.3-2-19"/>
  <path id="path1319" fill="none" stroke="#000" stroke-width=".3" d="m445.3 135.7-24.5 9-2.9-15.4"/>
  <path id="path1321" fill="none" stroke="#000" stroke-width=".3" d="m454.3 126.7-26.3 8.7-1-15.1"/>
  <path id="path1323" fill="none" stroke="#000" stroke-width=".3" d="m457.8 118.2-24.3 12.5 4.7-18.9"/>
  <path id="path1325" fill="#006d00" fill-rule="evenodd" stroke="#fff" stroke-width="1.8" d="m369.3 88.5 7.4 16.7 9.4-8.8-1.7 18.2 6.3-5.9-3.4 17.8 5.6-6.1-5.2 17.3 8-5.4-7.3 20.5 8-5.5-7.4 20.5 8-5.5-7.4 20.5-3.7 10.3-4 2.7-4.3-4.8-4.6-12.3-9.2-24.6 8.6 9.6-9.2-24.6 8.6 9.5-9.2-24.6 8.5 9.6-11.4-21.4 11 10.1-13.2-21.8 10.4 10-6.7-20.3 8.7 13.4z"/>
  <path id="path1327" fill="none" stroke="#000" stroke-width=".3" d="m371.2 96.4 7.8 28 2.9 71.4"/>
  <path id="path1329" fill="none" stroke="#000" stroke-width=".3" d="m366.5 158.5 14.8 22.3 13.4-15.3"/>
  <path id="path1331" fill="none" stroke="#000" stroke-width=".3" d="m365.5 143.4 15.2 22.3 13.4-15.2"/>
  <path id="path1333" fill="none" stroke="#000" stroke-width=".3" d="m365.1 128.4 15 22.3 13.2-15.3"/>
  <path id="path1335" fill="none" stroke="#000" stroke-width=".3" d="m364 117 15.5 18.7 11.8-12"/>
  <path id="path1337" fill="none" stroke="#000" stroke-width=".3" d="m361.8 105.3 17.2 19.1 10-12.4"/>
  <path id="path1339" fill="none" stroke="#000" stroke-width=".3" d="m364 96.4 13.2 21.6 7.4-18.3"/>
  <path id="path1341" fill="#006d00" fill-rule="evenodd" stroke="#fff" stroke-width="1.7" d="m271.2 211.3 21.4-14.8-10.7-5.5 18.7 3.2-6.4-8.5 18.2 6.8-6.5-8.5 18.3 6.8-6.5-8.4 22 7.4-6.4-8.5 21.4 11-6.5-8.4 22 7.4 10.7 5.5 3.2 4.3-4.3 3-11.7 1.6-19 7.8 3.5-6.7L329 210l8.6-5.9-24.1 7 8.5-6-20.3 7.7 9.1-9.6-20.9 11.2 9.1-9.5-17 11.9 9.5-13.2z"/>
  <path id="path1343" fill="none" stroke="#000" stroke-width=".3" d="m278 207.3 22-9.5L312 196l9.8-.1 17 1 15.2.7L384 201"/>
  <path id="path1345" fill="none" stroke="#000" stroke-width=".3" d="m352 210.4 17-10.4-17.3-13.5"/>
  <path id="path1347" fill="none" stroke="#000" stroke-width=".3" d="m333 208.8 20.9-11.1-17.2-13.5"/>
  <path id="path1349" fill="none" stroke="#000" stroke-width=".3" d="m319.5 208.5 19.1-11.5-17.3-12.5m-27 27 17.6-15.4-14.3-7.8"/>
  <path id="path1351" fill="none" stroke="#000" stroke-width=".3" d="m286.4 212.6 13.7-14.8-11-4m16.9 16 17.4-13.8-14-9.5"/>
  <g id="g1473" fill-rule="evenodd" transform="translate(48.1 65.3) scale(.86667)">
    <path id="path1353" fill="#c00" stroke="#000" stroke-width="1pt" d="m541.5 1173.3-1.7-229.1-61.1-107c-15.3-52.6-7.8-78 17-79.8 24.7-1.6 49.2 13.6 84.8 15.3 35.6 1.7 28.9-59.4 81.5-57.7 52.6 1.7 144.3 32.3 222.3 37.4 78.1 5 118.8-27.2 208.8-30.6 90-3.4 113.7 42.4 118.8 42.4 5.1 0 30.6-18.6 56-22 25.5-3.4 34 10.2 34 10.2s-1.7 57.7-13.6 91.6c-11.9 34-54.3 90-56 90-1.7 0-15.3 249.5-15.3 251.2 0 1.7-675.5-6.8-675.5-11.9z" transform="matrix(.13659 0 0 .12573 266.4 208.2)"/>
    <g id="g1387" stroke="#000" stroke-width="1pt">
      <path id="path1355" fill="#fff100" d="M531.5 584.6s-68-52-69.8-177.1c-1-72 34.4-124 123-124 124 0 301.1 53.1 301.1 53.1v17.7s-141.7-53.1-301.2-53.1c-70.8 0-106.3 52-106.3 105.2 0 88.6 71 178.3 71 178.3v141.7h-17.8z" transform="matrix(-.13659 0 0 .12573 508.4 252.7)"/>
      <path id="path1357" fill="#fff" d="M478.4 549.2a17.8 17.8 0 1 1-35.5 0 17.8 17.8 0 0 1 35.5 0z" transform="matrix(-.13659 0 0 .12573 506.2 252.5)"/>
      <path id="path1359" fill="#fff" d="M478.4 549.2a17.8 17.8 0 1 1-35.5 0 17.8 17.8 0 0 1 35.5 0z" transform="matrix(-.13659 0 0 .12573 508.6 247.4)"/>
      <path id="path1361" fill="#fff" d="M478.4 549.2a17.8 17.8 0 1 1-35.5 0 17.8 17.8 0 0 1 35.5 0z" transform="matrix(-.13659 0 0 .12573 509.9 242.2)"/>
      <path id="path1363" fill="#fff" d="M478.4 549.2a17.8 17.8 0 1 1-35.5 0 17.8 17.8 0 0 1 35.5 0z" transform="matrix(-.13659 0 0 .12573 510.8 236.7)"/>
      <path id="path1365" fill="#fff" d="M478.4 549.2a17.8 17.8 0 1 1-35.5 0 17.8 17.8 0 0 1 35.5 0z" transform="matrix(-.13659 0 0 .12573 510.6 230.7)"/>
      <path id="path1367" fill="#fff" d="M478.4 549.2a17.8 17.8 0 1 1-35.5 0 17.8 17.8 0 0 1 35.5 0z" transform="matrix(-.13659 0 0 .12573 502.7 257)"/>
      <path id="path1369" fill="#fff" d="M478.4 549.2a17.8 17.8 0 1 1-35.5 0 17.8 17.8 0 0 1 35.5 0z" transform="matrix(-.13659 0 0 .12573 508.5 225)"/>
      <path id="path1371" fill="#fff" d="M478.4 549.2a17.8 17.8 0 1 1-35.5 0 17.8 17.8 0 0 1 35.5 0z" transform="matrix(-.13659 0 0 .12573 504 220.5)"/>
      <path id="path1373" fill="#fff" d="M478.4 549.2a17.8 17.8 0 1 1-35.5 0 17.8 17.8 0 0 1 35.5 0z" transform="matrix(-.13659 0 0 .12573 498 217.5)"/>
      <path id="path1375" fill="#fff" d="M478.4 549.2a17.8 17.8 0 1 1-35.5 0 17.8 17.8 0 0 1 35.5 0z" transform="matrix(-.13659 0 0 .12573 492 217.1)"/>
      <path id="path1377" fill="#fff" d="M478.4 549.2a17.8 17.8 0 1 1-35.5 0 17.8 17.8 0 0 1 35.5 0z" transform="matrix(-.13659 0 0 .12573 485.5 217.3)"/>
      <path id="path1379" fill="#fff" d="M478.4 549.2a17.8 17.8 0 1 1-35.5 0 17.8 17.8 0 0 1 35.5 0z" transform="matrix(-.13659 0 0 .12573 479 218.2)"/>
      <path id="path1381" fill="#fff" d="M478.4 549.2a17.8 17.8 0 1 1-35.5 0 17.8 17.8 0 0 1 35.5 0z" transform="matrix(-.13659 0 0 .12573 472.6 219)"/>
      <path id="path1383" fill="#fff" d="M478.4 549.2a17.8 17.8 0 1 1-35.5 0 17.8 17.8 0 0 1 35.5 0z" transform="matrix(-.13659 0 0 .12573 465.6 220)"/>
      <path id="path1385" fill="#fff" d="M478.4 549.2a17.8 17.8 0 1 1-35.5 0 17.8 17.8 0 0 1 35.5 0z" transform="matrix(-.13659 0 0 .12573 459.6 221.6)"/>
    </g>
    <path id="path1389" fill="#fff" stroke="#000" stroke-width="1pt" d="M478.4 549.2a17.8 17.8 0 1 1-35.5 0 17.8 17.8 0 0 1 35.5 0z" transform="matrix(.13659 0 0 .12573 268.6 252.5)"/>
    <path id="path1391" fill="#fff" stroke="#000" stroke-width="1pt" d="M478.4 549.2a17.8 17.8 0 1 1-35.5 0 17.8 17.8 0 0 1 35.5 0z" transform="matrix(.13659 0 0 .12573 266.1 247.4)"/>
    <path id="path1393" fill="#fff" stroke="#000" stroke-width="1pt" d="M478.4 549.2a17.8 17.8 0 1 1-35.5 0 17.8 17.8 0 0 1 35.5 0z" transform="matrix(.13659 0 0 .12573 264.9 242.2)"/>
    <path id="path1395" fill="#fff" stroke="#000" stroke-width="1pt" d="M478.4 549.2a17.8 17.8 0 1 1-35.5 0 17.8 17.8 0 0 1 35.5 0z" transform="matrix(.13659 0 0 .12573 264 236.7)"/>
    <path id="path1397" fill="#fff" stroke="#000" stroke-width="1pt" d="M478.4 549.2a17.8 17.8 0 1 1-35.5 0 17.8 17.8 0 0 1 35.5 0z" transform="matrix(.13659 0 0 .12573 264.2 230.7)"/>
    <path id="path1399" fill="#fff" stroke="#000" stroke-width="1pt" d="M478.4 549.2a17.8 17.8 0 1 1-35.5 0 17.8 17.8 0 0 1 35.5 0z" transform="matrix(.13659 0 0 .12573 266.2 225)"/>
    <path id="path1401" fill="#fff" stroke="#000" stroke-width="1pt" d="M478.4 549.2a17.8 17.8 0 1 1-35.5 0 17.8 17.8 0 0 1 35.5 0z" transform="matrix(.13659 0 0 .12573 270.6 220.5)"/>
    <path id="path1403" fill="#fff" stroke="#000" stroke-width="1pt" d="M478.4 549.2a17.8 17.8 0 1 1-35.5 0 17.8 17.8 0 0 1 35.5 0z" transform="matrix(.13659 0 0 .12573 276.7 217.5)"/>
    <path id="path1405" fill="#fff" stroke="#000" stroke-width="1pt" d="M478.4 549.2a17.8 17.8 0 1 1-35.5 0 17.8 17.8 0 0 1 35.5 0z" transform="matrix(.13659 0 0 .12573 282.7 217.1)"/>
    <path id="path1407" fill="#fff" stroke="#000" stroke-width="1pt" d="M478.4 549.2a17.8 17.8 0 1 1-35.5 0 17.8 17.8 0 0 1 35.5 0z" transform="matrix(.13659 0 0 .12573 289.2 217.3)"/>
    <path id="path1409" fill="#fff" stroke="#000" stroke-width="1pt" d="M478.4 549.2a17.8 17.8 0 1 1-35.5 0 17.8 17.8 0 0 1 35.5 0z" transform="matrix(.13659 0 0 .12573 295.7 218.2)"/>
    <path id="path1411" fill="#fff" stroke="#000" stroke-width="1pt" d="M478.4 549.2a17.8 17.8 0 1 1-35.5 0 17.8 17.8 0 0 1 35.5 0z" transform="matrix(.13659 0 0 .12573 302.2 219)"/>
    <path id="path1413" fill="#fff" stroke="#000" stroke-width="1pt" d="M478.4 549.2a17.8 17.8 0 1 1-35.5 0 17.8 17.8 0 0 1 35.5 0z" transform="matrix(.13659 0 0 .12573 309.1 220)"/>
    <path id="path1415" fill="#fff" stroke="#000" stroke-width="1pt" d="M478.4 549.2a17.8 17.8 0 1 1-35.5 0 17.8 17.8 0 0 1 35.5 0z" transform="matrix(.13659 0 0 .12573 315.1 221.6)"/>
    <path id="path1417" fill="#fff" stroke="#000" stroke-width="1pt" d="M478.4 549.2a17.8 17.8 0 1 1-35.5 0 17.8 17.8 0 0 1 35.5 0z" transform="matrix(.13659 0 0 .12573 272 257)"/>
    <path id="path1419" fill="#fff100" stroke="#000" stroke-width="1pt" d="M531.5 584.6s-68-52-69.8-177.1c-1-72 34.4-124 123-124 124 0 301.1 53.1 301.1 53.1v17.7s-141.7-53.1-301.2-53.1c-70.8 0-106.3 52-106.3 105.2 0 88.6 71 178.3 71 178.3v141.7h-17.8z" transform="matrix(.13659 0 0 .12573 266.4 252.7)"/>
    <path id="path1421" fill="#fff100" stroke="#000" stroke-width="3" d="M1240.2 531.5s15.3-35.4 70.9-35.4c37.8 0 70.8 35.4 70.8 70.8v70.9h35.5v-70.9c0-35.4 35.4-70.8 70.8-70.8 53.2 0 70.9 35.4 70.9 35.4s0-106.3-70.9-106.3c-53.1 0-70.8 35.4-70.8 35.4s17.7-53.1 17.7-106.3c0-53.2-35.4-88.6-35.4-88.6 0 6.8-35.5 35.5-35.5 88.6 0 53.1 17.7 106.3 17.7 106.3s-17.7-35.4-70.8-35.4c-70.9 0-70.9 106.3-70.9 106.3z" transform="matrix(.04553 0 0 .0479 299.4 309)"/>
    <path id="path1423" fill="#fff100" stroke="#000" stroke-width="3" d="M1240.2 531.5s15.3-35.4 70.9-35.4c37.8 0 70.8 35.4 70.8 70.8v70.9h35.5v-70.9c0-35.4 35.4-70.8 70.8-70.8 53.2 0 70.9 35.4 70.9 35.4s0-106.3-70.9-106.3c-53.1 0-70.8 35.4-70.8 35.4s17.7-53.1 17.7-106.3c0-53.2-35.4-88.6-35.4-88.6 0 6.8-35.5 35.5-35.5 88.6 0 53.1 17.7 106.3 17.7 106.3s-17.7-35.4-70.8-35.4c-70.9 0-70.9 106.3-70.9 106.3z" transform="matrix(.04553 0 0 .0479 347.8 309)"/>
    <path id="path1425" fill="#fff100" stroke="#000" stroke-width="1pt" d="M531.5 832.7V673.2s35.4 53.2 88.6 53.2c43.5 0 88.6-70.9 88.6-70.9s41.5 53.2 88.6 53.2c42 0 88.5-68.6 88.5-68.6s43.2 68.6 88.6 68.6c45.5 0 88.6-53.2 88.6-53.2s46.3 70.9 106.3 70.9c53.1 0 70.9-53.2 70.9-53.2v159.5z" transform="matrix(.13659 0 0 .12573 266.4 252.7)"/>
    <path id="path1427" fill="#fff100" stroke="#000" stroke-width="1pt" d="M708.7 832.7v-124S815 744 815 832.7z" transform="matrix(.13659 0 0 .12573 242.2 252.7)"/>
    <path id="path1429" fill="#fff100" stroke="#000" stroke-width="1pt" d="M708.7 832.7v-124S815 744 815 832.7z" transform="matrix(-.13659 0 0 .12573 532.5 252.7)"/>
    <path id="path1431" fill="#fff100" stroke="#000" stroke-width="1pt" d="M602.4 832.7C602.4 744 708.7 688 708.7 688S815 744 815 832.7z" transform="matrix(.13659 0 0 .12573 266.4 252.7)"/>
    <path id="path1433" fill="#fff100" stroke="#000" stroke-width="1pt" d="M602.4 832.7C602.4 744 708.7 688 708.7 688S815 744 815 832.7z" transform="matrix(.13659 0 0 .12573 314.8 252.7)"/>
    <path id="path1435" fill="#fff100" stroke="#000" stroke-width="1pt" d="M584.6 847.5c0-88.6 124.1-159.4 124.1-159.4s124 70.8 124 159.4h-248z" transform="matrix(.13659 0 0 .12573 290.6 250.9)"/>
    <path id="path1437" fill="#fff" stroke="#000" stroke-width="1pt" d="M1275.6 655.5c-35.4-17.7-166-35.4-376.3-35.4s-350 17.7-385.5 35.4c-35.4 17.7-35.4 53.2 0 70.9 35.4 17.7 175.3 35.4 385.5 35.4s340.9-17.7 376.3-35.4c35.4-17.7 35.4-53.2 0-70.9z" transform="matrix(.13505 0 0 .12573 265.9 275)"/>
    <path id="path1439" fill="gray" d="M435.8 366.3c0 4.5-40.3 4.5-48.4 4.5-8.8 0-48.4 1.2-48.4-4.5 0-4.4 39.9-4.4 48.4-4.4 8.4 0 48.4.9 48.4 4.4z"/>
    <path id="path1441" fill="#c00" d="M343.8 350.3c0 1.5-1 2.7-2.4 2.7s-2.4-1.2-2.4-2.7c0-1.5 1-2.6 2.4-2.6 1.3 0 2.4 1.2 2.4 2.6zm92 0c0 1.5-1.1 2.7-2.5 2.7-1.3 0-2.4-1.2-2.4-2.7 0-1.5 1.1-2.6 2.4-2.6 1.4 0 2.4 1.2 2.4 2.6z"/>
    <path id="path1443" d="M392.2 349c0 1.4-2.2 2.6-4.8 2.6-2.6 0-4.9-1.2-4.9-2.7 0-1.5 2.2-2.6 4.9-2.6s4.8 1.2 4.8 2.6z"/>
    <path id="path1445" fill="#006300" d="M415.4 349c0 1.4-1.6 2.6-3.6 2.6s-3.6-1.2-3.6-2.7c0-1.5 1.6-2.6 3.6-2.6s3.6 1.2 3.6 2.6zm-49.8 0c0 1.4-1.6 2.6-3.6 2.6s-3.7-1.2-3.7-2.7c0-1.5 1.6-2.6 3.7-2.6 2 0 3.6 1.2 3.6 2.6z"/>
    <path id="path1447" fill="#fff100" stroke="#000" stroke-width="2.2" d="M1257.9 496s35.4-53 70.9-53h35.4v35.3c0 53.2-53.1 71-53.1 71h141.7s-53.2-17.8-53.2-71V443h35.5c35.4 0 70.8 53.2 70.8 53.2V354.3s-35.4 53.2-70.8 53.2h-35.5V372c0-53.1 53.2-70.8 53.2-70.8H1311s53.1 17.7 53.1 70.8v35.5h-35.4c-35.5 0-70.9-53.2-70.9-53.2v141.8z" transform="matrix(.07805 0 0 .07185 279.5 298)"/>
    <path id="path1449" fill="#fff100" stroke="#000" stroke-width="3.3" d="M1381.9 549.2h70.9s-53.2-17.7-53.2-70.9V443h35.4c35.5 0 71 53.2 71 53.2V354.3s-35.5 53.2-71 53.2h-35.4V372c0-53.1 53.2-70.8 53.2-70.8h-70.9z" transform="matrix(.03903 0 0 .06287 285 307.3)"/>
    <path id="path1451" fill="#fff100" stroke="#000" stroke-width="3.3" d="M1381.9 549.2h70.9s-53.2-17.7-53.2-70.9V443h35.4c35.5 0 71 53.2 71 53.2V354.3s-35.5 53.2-71 53.2h-35.4V372c0-53.1 53.2-70.8 53.2-70.8h-70.9z" transform="matrix(-.03903 0 0 .06287 489.7 307.3)"/>
    <path id="path1453" fill="#fff" stroke="#000" stroke-width="1pt" d="M903.5 602.4a17.7 17.7 0 1 1-35.4 0 17.7 17.7 0 0 1 35.4 0z" transform="matrix(.13659 0 0 .12573 266.4 252.7)"/>
    <path id="path1455" fill="#fff100" stroke="#000" stroke-width="2.2" d="M1257.9 496s35.4-53 70.9-53h35.4v35.3c0 53.2-53.1 71-53.1 71h141.7s-53.2-17.8-53.2-71V443h35.5c35.4 0 70.8 53.2 70.8 53.2V354.3s-35.4 53.2-70.8 53.2h-35.5V372c0-53.1 53.2-70.8 53.2-70.8H1311s53.1 17.7 53.1 70.8v35.5h-35.4c-35.5 0-70.9-53.2-70.9-53.2v141.8z" transform="matrix(.07805 0 0 .07185 279.5 251.2)"/>
    <path id="path1457" fill="#fff" stroke="#000" stroke-width="1pt" d="M903.5 602.4a17.7 17.7 0 1 1-35.4 0 17.7 17.7 0 0 1 35.4 0z" transform="matrix(.13659 0 0 .12573 266.6 206.3)"/>
    <path id="path1459" fill="#fff100" stroke="#000" stroke-width="1pt" d="M850.4 655.5h70.9v53.2h-71z" transform="matrix(.13659 0 0 .12573 266.4 208.2)"/>
    <path id="path1461" fill="#fff100" stroke="#000" stroke-width="1pt" d="M850.4 683.3h70.9v202.5h-71z" transform="matrix(.13659 0 0 .12573 266.4 208.2)"/>
    <path id="path1463" fill="#fff" stroke="#000" stroke-width="1pt" d="M478.4 549.2a17.8 17.8 0 1 1-35.5 0 17.8 17.8 0 0 1 35.5 0z" transform="matrix(.13659 0 0 .12573 324.4 246)"/>
    <path id="path1465" fill="#fff" stroke="#000" stroke-width="1pt" d="M478.4 549.2a17.8 17.8 0 1 1-35.5 0 17.8 17.8 0 0 1 35.5 0z" transform="matrix(.13659 0 0 .12573 324.4 240.3)"/>
    <path id="path1467" fill="#fff" stroke="#000" stroke-width="1pt" d="M478.4 549.2a17.8 17.8 0 1 1-35.5 0 17.8 17.8 0 0 1 35.5 0z" transform="matrix(.13659 0 0 .12573 324.4 235)"/>
    <path id="path1469" fill="#fff" stroke="#000" stroke-width="1pt" d="M478.4 549.2a17.8 17.8 0 1 1-35.5 0 17.8 17.8 0 0 1 35.5 0z" transform="matrix(.13659 0 0 .12573 324.4 229.4)"/>
    <path id="path1471" d="M392.5 357.5c0 1-2.2 1.8-5 1.8s-4.8-.8-4.8-1.8 2.2-1.8 4.9-1.8 4.9.8 4.9 1.8zm44.6 4.4c-.3.7-2.7.8-5.4.1-2.7-.6-4.6-1.6-4.4-2.3.3-.7 2.7-.8 5.4-.1 2.7.6 4.6 1.6 4.4 2.3zm-18.7-3c0 .9-2.4 1.4-5.2 1.3-2.7-.2-4.9-1.1-4.8-2 .1-.9 2.5-1.4 5.2-1.2 2.8.2 5 1 4.8 1.9zm-81.8 3c.2.7 2.6.8 5.3.1 2.7-.6 4.7-1.6 4.4-2.3-.3-.7-2.7-.8-5.4-.1-2.6.6-4.6 1.6-4.3 2.3zm19.5-3.4c.1.9 2.5 1.4 5.2 1.2 2.8-.2 5-1 4.8-2 0-.8-2.4-1.4-5.2-1.2-2.7.2-4.9 1-4.8 2z"/>
  </g>
  <path id="path2439" fill="#012169" d="M0 0h256v256H0Z" style="stroke-width:.5"/>
  <path id="path2441" fill="#fff" d="M256 0v32l-95 96 95 93.5V256h-33.5L127 162l-93 94H0v-34l93-93.5L0 37V0h31l96 94 93-94z" style="stroke-width:.5"/>
  <path id="path2443" fill="#c8102e" d="m92 162 5.5 17L21 256H0v-1.5zm62-6 27 4 75 73.5V256ZM256 0l-96 98-2-22 75-76ZM0 .5 96.5 95 67 91 0 24.5Z" style="stroke-width:.5"/>
  <path id="path2445" fill="#fff" d="M88 0v256h80V0ZM0 88v80h256V88Z" style="stroke-width:.5"/>
  <path id="path2447" fill="#c8102e" d="M0 104v48h256v-48ZM104 0v256h48V0Z" style="stroke-width:.5"/>
</svg>
