<?xml version="1.0" encoding="UTF-8" standalone="no"?>
<!-- Created with Sodipodi ("http://www.sodipodi.com/") -->
<svg id="svg378" xmlns:rdf="http://www.w3.org/1999/02/22-rdf-syntax-ns#" xmlns="http://www.w3.org/2000/svg" height="512" width="512" version="1" y="0" x="0" xmlns:cc="http://creativecommons.org/ns#" xmlns:dc="http://purl.org/dc/elements/1.1/">
 <metadata id="metadata9">
  <rdf:RDF>
   <cc:Work rdf:about="">
    <dc:format>image/svg+xml</dc:format>
    <dc:type rdf:resource="http://purl.org/dc/dcmitype/StillImage"/>
   </cc:Work>
  </rdf:RDF>
 </metadata>
 <defs id="defs380">
  <clipPath id="clipPath58492" clipPathUnits="userSpaceOnUse">
   <rect id="rect58494" fill-opacity="0.67" height="708.66" width="708.66" y="-.000065338" x="55.364"/>
  </clipPath>
 </defs>
 <g id="flag" clip-path="url(#clipPath58492)" fill-rule="evenodd" transform="matrix(.72249 0 0 .72249 -40 .000047206)">
  <rect id="rect149" height="708.66" width="1063" y="-0.000062" x="0" stroke-width="1pt" fill="#0c0"/>
  <rect id="rect280" height="354.33" width="1063" y="0" x="0" stroke-width="1pt" fill="#69f"/>
  <path id="path279" d="m0 0 609.96 353.88-609.96 353.42v-707.3z" transform="matrix(.86847 0 0 1 0 -.000030518)" stroke-width="1pt" fill="#fffefe"/>
  <path id="path205" d="m266.19 534.45-10.408-7.432-10.357 7.505 3.852-12.196-10.338-7.531 12.79-0.105 3.967-12.159 4.052 12.131 12.79 0.016-10.285 7.602 3.937 12.169z" transform="matrix(4.0987 0 0 4.132 -869.84 -1804.1)" stroke-width=".11287" fill="#f00"/>
 </g>
</svg>
