<svg xmlns="http://www.w3.org/2000/svg" height="512" width="512" version="1"><defs><clipPath id="a"><rect fill-opacity=".67" height="512" width="512"/></clipPath></defs><g fill-rule="evenodd" clip-path="url(#a)"><rect height="512" width="1027.5" x="-258.27" fill="#108c00"/><rect height="50.162" width="1032.6" y="178.16" x="-260" fill="#ffd600"/><rect height="512" width="48.432" x="181.08" fill="#ffd600"/><rect height="512" width="48.432" x="227.78"/><rect height="50.162" width="1032.6" y="226.59" x="-260"/><rect height="50.162" width="1032.6" y="276.76" x="-260" fill="#fff"/><rect height="512" width="48.432" x="276.22" fill="#fff"/><rect transform="scale(-1)" ry="137.51" width="273.75" y="-393.87" x="-394.56" height="275.03" fill="#e72910"/><g transform="matrix(.353 0 0 .353 82.476 178.92)"><path d="M475.897-118.95c0-.731 15.885-45.306 15.885-45.306l14.441 44.575s48.376 1.462 48.376.731l-38.267 29.23s18.05 51.152 17.329 49.691c-.722-1.462-41.878-30.692-41.878-30.692s-41.877 29.23-41.155 29.23l15.884-48.229-37.544-28.501 46.931-.731z"/><g><path d="M477.996-116.633c0-.633 13.749-39.261 13.749-39.261l12.499 38.628s41.871 1.267 41.871.633l-33.122 25.33s15.623 44.327 14.999 43.061c-.625-1.267-36.247-26.597-36.247-26.597s-36.246 25.33-35.621 25.33l13.748-41.794-32.496-24.698 40.621-.633z" fill="#ffe700"/><path d="M483.82-110.226c0-.365 7.924-22.641 7.924-22.641l7.204 22.275s24.133.73 24.133.365l-19.09 14.607s9.005 25.562 8.645 24.832c-.36-.73-20.891-15.338-20.891-15.338s-20.891 14.607-20.531 14.607l7.924-24.101-18.73-14.243 23.413-.365z" fill="#108c00"/></g></g><g transform="matrix(.353 0 0 .353 188.84 253.8)"><path d="M475.897-118.95c0-.731 15.885-45.306 15.885-45.306l14.441 44.575s48.376 1.462 48.376.731l-38.267 29.23s18.05 51.152 17.329 49.691c-.722-1.462-41.878-30.692-41.878-30.692s-41.877 29.23-41.155 29.23l15.884-48.229-37.544-28.501 46.931-.731z"/><g><path d="M477.996-116.633c0-.633 13.749-39.261 13.749-39.261l12.499 38.628s41.871 1.267 41.871.633l-33.122 25.33s15.623 44.327 14.999 43.061c-.625-1.267-36.247-26.597-36.247-26.597s-36.246 25.33-35.621 25.33l13.748-41.794-32.496-24.698 40.621-.633z" fill="#ffe700"/><path d="M483.82-110.226c0-.365 7.924-22.641 7.924-22.641l7.204 22.275s24.133.73 24.133.365l-19.09 14.607s9.005 25.562 8.645 24.832c-.36-.73-20.891-15.338-20.891-15.338s-20.891 14.607-20.531 14.607l7.924-24.101-18.73-14.243 23.413-.365z" fill="#108c00"/></g></g><g transform="matrix(.353 0 0 .353 157.84 372.65)"><path d="M475.897-118.95c0-.731 15.885-45.306 15.885-45.306l14.441 44.575s48.376 1.462 48.376.731l-38.267 29.23s18.05 51.152 17.329 49.691c-.722-1.462-41.878-30.692-41.878-30.692s-41.877 29.23-41.155 29.23l15.884-48.229-37.544-28.501 46.931-.731z"/><g><path d="M477.996-116.633c0-.633 13.749-39.261 13.749-39.261l12.499 38.628s41.871 1.267 41.871.633l-33.122 25.33s15.623 44.327 14.999 43.061c-.625-1.267-36.247-26.597-36.247-26.597s-36.246 25.33-35.621 25.33l13.748-41.794-32.496-24.698 40.621-.633z" fill="#ffe700"/><path d="M483.82-110.226c0-.365 7.924-22.641 7.924-22.641l7.204 22.275s24.133.73 24.133.365l-19.09 14.607s9.005 25.562 8.645 24.832c-.36-.73-20.891-15.338-20.891-15.338s-20.891 14.607-20.531 14.607l7.924-24.101-18.73-14.243 23.413-.365z" fill="#108c00"/></g></g><g transform="matrix(.353 0 0 .353 9.132 372.65)"><path d="M475.897-118.95c0-.731 15.885-45.306 15.885-45.306l14.441 44.575s48.376 1.462 48.376.731l-38.267 29.23s18.05 51.152 17.329 49.691c-.722-1.462-41.878-30.692-41.878-30.692s-41.877 29.23-41.155 29.23l15.884-48.229-37.544-28.501 46.931-.731z"/><g><path d="M477.996-116.633c0-.633 13.749-39.261 13.749-39.261l12.499 38.628s41.871 1.267 41.871.633l-33.122 25.33s15.623 44.327 14.999 43.061c-.625-1.267-36.247-26.597-36.247-26.597s-36.246 25.33-35.621 25.33l13.748-41.794-32.496-24.698 40.621-.633z" fill="#ffe700"/><path d="M483.82-110.226c0-.365 7.924-22.641 7.924-22.641l7.204 22.275s24.133.73 24.133.365l-19.09 14.607s9.005 25.562 8.645 24.832c-.36-.73-20.891-15.338-20.891-15.338s-20.891 14.607-20.531 14.607l7.924-24.101-18.73-14.243 23.413-.365z" fill="#108c00"/></g></g><g transform="matrix(.353 0 0 .353 -18.025 250.74)"><path d="M475.897-118.95c0-.731 15.885-45.306 15.885-45.306l14.441 44.575s48.376 1.462 48.376.731l-38.267 29.23s18.05 51.152 17.329 49.691c-.722-1.462-41.878-30.692-41.878-30.692s-41.877 29.23-41.155 29.23l15.884-48.229-37.544-28.501 46.931-.731z"/><g><path d="M477.996-116.633c0-.633 13.749-39.261 13.749-39.261l12.499 38.628s41.871 1.267 41.871.633l-33.122 25.33s15.623 44.327 14.999 43.061c-.625-1.267-36.247-26.597-36.247-26.597s-36.246 25.33-35.621 25.33l13.748-41.794-32.496-24.698 40.621-.633z" fill="#ffe700"/><path d="M483.82-110.226c0-.365 7.924-22.641 7.924-22.641l7.204 22.275s24.133.73 24.133.365l-19.09 14.607s9.005 25.562 8.645 24.832c-.36-.73-20.891-15.338-20.891-15.338s-20.891 14.607-20.531 14.607l7.924-24.101-18.73-14.243 23.413-.365z" fill="#108c00"/></g></g><g transform="matrix(-.353 0 0 -.353 492.65 132.14)"><path d="M475.897-118.95c0-.731 15.885-45.306 15.885-45.306l14.441 44.575s48.376 1.462 48.376.731l-38.267 29.23s18.05 51.152 17.329 49.691c-.722-1.462-41.878-30.692-41.878-30.692s-41.877 29.23-41.155 29.23l15.884-48.229-37.544-28.501 46.931-.731z"/><g><path d="M477.996-116.633c0-.633 13.749-39.261 13.749-39.261l12.499 38.628s41.871 1.267 41.871.633l-33.122 25.33s15.623 44.327 14.999 43.061c-.625-1.267-36.247-26.597-36.247-26.597s-36.246 25.33-35.621 25.33l13.748-41.794-32.496-24.698 40.621-.633z" fill="#ffe700"/><path d="M483.82-110.226c0-.365 7.924-22.641 7.924-22.641l7.204 22.275s24.133.73 24.133.365l-19.09 14.607s9.005 25.562 8.645 24.832c-.36-.73-20.891-15.338-20.891-15.338s-20.891 14.607-20.531 14.607l7.924-24.101-18.73-14.243 23.413-.365z" fill="#108c00"/></g></g><g transform="matrix(-.353 0 0 -.353 535.35 248.28)"><path d="M475.897-118.95c0-.731 15.885-45.306 15.885-45.306l14.441 44.575s48.376 1.462 48.376.731l-38.267 29.23s18.05 51.152 17.329 49.691c-.722-1.462-41.878-30.692-41.878-30.692s-41.877 29.23-41.155 29.23l15.884-48.229-37.544-28.501 46.931-.731z"/><g><path d="M477.996-116.633c0-.633 13.749-39.261 13.749-39.261l12.499 38.628s41.871 1.267 41.871.633l-33.122 25.33s15.623 44.327 14.999 43.061c-.625-1.267-36.247-26.597-36.247-26.597s-36.246 25.33-35.621 25.33l13.748-41.794-32.496-24.698 40.621-.633z" fill="#ffe700"/><path d="M483.82-110.226c0-.365 7.924-22.641 7.924-22.641l7.204 22.275s24.133.73 24.133.365l-19.09 14.607s9.005 25.562 8.645 24.832c-.36-.73-20.891-15.338-20.891-15.338s-20.891 14.607-20.531 14.607l7.924-24.101-18.73-14.243 23.413-.365z" fill="#108c00"/></g></g><g transform="matrix(-.353 0 0 -.353 429.46 333.25)"><path d="M475.897-118.95c0-.731 15.885-45.306 15.885-45.306l14.441 44.575s48.376 1.462 48.376.731l-38.267 29.23s18.05 51.152 17.329 49.691c-.722-1.462-41.878-30.692-41.878-30.692s-41.877 29.23-41.155 29.23l15.884-48.229-37.544-28.501 46.931-.731z"/><g><path d="M477.996-116.633c0-.633 13.749-39.261 13.749-39.261l12.499 38.628s41.871 1.267 41.871.633l-33.122 25.33s15.623 44.327 14.999 43.061c-.625-1.267-36.247-26.597-36.247-26.597s-36.246 25.33-35.621 25.33l13.748-41.794-32.496-24.698 40.621-.633z" fill="#ffe700"/><path d="M483.82-110.226c0-.365 7.924-22.641 7.924-22.641l7.204 22.275s24.133.73 24.133.365l-19.09 14.607s9.005 25.562 8.645 24.832c-.36-.73-20.891-15.338-20.891-15.338s-20.891 14.607-20.531 14.607l7.924-24.101-18.73-14.243 23.413-.365z" fill="#108c00"/></g></g><g transform="matrix(-.353 0 0 -.353 329.97 248.28)"><path d="M475.897-118.95c0-.731 15.885-45.306 15.885-45.306l14.441 44.575s48.376 1.462 48.376.731l-38.267 29.23s18.05 51.152 17.329 49.691c-.722-1.462-41.878-30.692-41.878-30.692s-41.877 29.23-41.155 29.23l15.884-48.229-37.544-28.501 46.931-.731z"/><g><path d="M477.996-116.633c0-.633 13.749-39.261 13.749-39.261l12.499 38.628s41.871 1.267 41.871.633l-33.122 25.33s15.623 44.327 14.999 43.061c-.625-1.267-36.247-26.597-36.247-26.597s-36.246 25.33-35.621 25.33l13.748-41.794-32.496-24.698 40.621-.633z" fill="#ffe700"/><path d="M483.82-110.226c0-.365 7.924-22.641 7.924-22.641l7.204 22.275s24.133.73 24.133.365l-19.09 14.607s9.005 25.562 8.645 24.832c-.36-.73-20.891-15.338-20.891-15.338s-20.891 14.607-20.531 14.607l7.924-24.101-18.73-14.243 23.413-.365z" fill="#108c00"/></g></g><g transform="matrix(-.353 0 0 -.353 366.69 133.85)"><path d="M475.897-118.95c0-.731 15.885-45.306 15.885-45.306l14.441 44.575s48.376 1.462 48.376.731l-38.267 29.23s18.05 51.152 17.329 49.691c-.722-1.462-41.878-30.692-41.878-30.692s-41.877 29.23-41.155 29.23l15.884-48.229-37.544-28.501 46.931-.731z"/><g><path d="M477.996-116.633c0-.633 13.749-39.261 13.749-39.261l12.499 38.628s41.871 1.267 41.871.633l-33.122 25.33s15.623 44.327 14.999 43.061c-.625-1.267-36.247-26.597-36.247-26.597s-36.246 25.33-35.621 25.33l13.748-41.794-32.496-24.698 40.621-.633z" fill="#ffe700"/><path d="M483.82-110.226c0-.365 7.924-22.641 7.924-22.641l7.204 22.275s24.133.73 24.133.365l-19.09 14.607s9.005 25.562 8.645 24.832c-.36-.73-20.891-15.338-20.891-15.338s-20.891 14.607-20.531 14.607l7.924-24.101-18.73-14.243 23.413-.365z" fill="#108c00"/></g></g><g transform="matrix(1.036 0 0 1.036 -250.6 359.43)"><g transform="matrix(.164 -.016 .012 .184 429.84 -215.63)" stroke="#000" stroke-width="2.5" fill="#009200"><ellipse rx="30.805" ry="189.82" transform="matrix(1.405 -.006 .008 1 -534.29 263.72)" cy="586.13" cx="680.21"/><ellipse rx="30.805" ry="189.82" transform="matrix(1.486 -.006 .009 1 -547.22 267.05)" cy="586.13" cx="680.21"/><ellipse rx="30.805" ry="189.82" transform="matrix(1.189 -.006 .007 1.105 -364.93 214.1)" cy="586.13" cx="680.21"/></g><g stroke="#000" transform="translate(72.865 -9.797)"><path d="M385.284-38.662c6.074-.252 3.436-3.503 6.503-5.231 3.067-1.728 7.429-.584 8.738 1.575 1.309 2.16.259 4.279 1.944 4.308 1.686.029 47.534-1.893 49.186-.083 1.653 1.809 1.924 5.376.213 6.771-1.712 1.395-59.675 2.04-61.671.581-1.996-1.459-4.919-7.564-4.912-7.92z" fill="#a95600"/><path d="M417.677-34.196c-.11 4.582 6.666 3.284 6.759 7.11-.205 4.056-11.361.248-11.468-7.172.464-7.412 11.385-11.075 11.52-6.842.1 3.519-6.7 2.322-6.81 6.904z" fill="#ff0"/><path d="M421.677-34.143c-.11 4.582 6.666 3.284 6.759 7.11-.205 4.056-11.361.248-11.468-7.172.464-7.412 11.385-11.075 11.52-6.842.1 3.519-6.7 2.322-6.81 6.904z" fill="#ff0"/><path d="M425.967-34.305c-.11 4.582 6.666 3.284 6.759 7.11-.205 4.056-11.361.248-11.468-7.172.464-7.412 11.385-11.075 11.52-6.842.1 3.519-6.7 2.322-6.81 6.904z" fill="#ff0"/><path d="M429.967-34.252c-.11 4.582 6.666 3.284 6.759 7.11-.205 4.056-11.361.248-11.468-7.172.464-7.412 11.385-11.075 11.52-6.842.1 3.519-6.7 2.322-6.81 6.904z" fill="#ff0"/><ellipse rx="3.534" ry="3.403" transform="matrix(1.095 .016 -.024 1.154 -75.571 4.678)" cy="-41.086" cx="478.38" fill="#a95600"/></g><g transform="matrix(.995 -.101 .101 .995 66.684 66.338)" stroke="#000" stroke-width="2.5" fill="#009200"><ellipse rx="20.814" ry="24.144" transform="matrix(.166 -.008 .002 .315 369.8 -361.65)" cy="905" cx="427.11"/><ellipse rx="20.814" ry="24.144" transform="matrix(.166 -.008 .002 .315 364.04 -362.7)" cy="905" cx="427.11"/><ellipse rx="20.814" ry="24.144" transform="matrix(.166 -.008 .002 .315 360.64 -370.55)" cy="905" cx="427.11"/><ellipse rx="20.814" ry="24.144" transform="matrix(.16 -.009 .002 .348 369.3 -399.35)" cy="905" cx="427.11"/><ellipse rx="20.814" ry="24.144" transform="matrix(.16 -.008 .002 .326 377.41 -379.07)" cy="905" cx="427.11"/><ellipse rx="20.814" ry="24.144" transform="matrix(.16 -.008 .002 .326 373.22 -382.21)" cy="905" cx="427.11"/><ellipse rx="20.814" ry="24.144" transform="matrix(.16 -.008 .002 .326 367.99 -386.66)" cy="905" cx="427.11"/><ellipse rx="20.814" ry="24.144" transform="matrix(.16 -.008 .002 .326 363.01 -389.54)" cy="905" cx="427.11"/></g><path d="M173.17 346.35s-54.198 64.893-21.252 208.82c33.958 144.59 178.96 189.78 178.96 189.78s26.496-47.423 1.726-164.04c-39.96-169.85-116.14-234.56-116.14-234.56h-43.293z" transform="matrix(.177 .032 -.031 .182 461.79 -208.61)" stroke="#000" stroke-width="2.5" fill="#804bff"/><g transform="matrix(.997 .078 -.078 .997 60.532 -11.76)" stroke="#000" stroke-width="2.5" fill="#009200"><ellipse rx="20.814" ry="24.144" transform="matrix(.166 -.008 .002 .315 369.8 -361.65)" cy="905" cx="427.11"/><ellipse rx="20.814" ry="24.144" transform="matrix(.166 -.008 .002 .315 364.04 -362.7)" cy="905" cx="427.11"/><ellipse rx="20.814" ry="24.144" transform="matrix(.166 -.008 .002 .315 360.64 -370.55)" cy="905" cx="427.11"/><ellipse rx="20.814" ry="24.144" transform="matrix(.16 -.009 .002 .348 369.3 -399.35)" cy="905" cx="427.11"/><ellipse rx="20.814" ry="24.144" transform="matrix(.16 -.008 .002 .326 377.41 -379.07)" cy="905" cx="427.11"/><ellipse rx="20.814" ry="24.144" transform="matrix(.16 -.008 .002 .326 373.22 -382.21)" cy="905" cx="427.11"/><ellipse rx="20.814" ry="24.144" transform="matrix(.16 -.008 .002 .326 367.99 -386.66)" cy="905" cx="427.11"/><ellipse rx="20.814" ry="24.144" transform="matrix(.16 -.008 .002 .326 363.01 -389.54)" cy="905" cx="427.11"/></g><ellipse rx="58.28" ry="186.49" stroke="#000" transform="matrix(.157 -.061 .064 .148 369.61 -145.05)" cy="606.11" cx="624.42" stroke-width="1pt" fill="#c90000"/><g stroke="#000" fill="#009200" transform="matrix(1 .018 -.018 1 -34.814 -4.628)"><ellipse rx="10.823" ry="12.905" transform="matrix(.395 0 0 .293 445.07 -230.53)" cy="356.75" cx="218.13"/><ellipse rx="10.823" ry="12.905" transform="matrix(.354 0 0 .293 457.17 -235.92)" cy="356.75" cx="218.13"/><ellipse rx="10.823" ry="12.905" transform="matrix(.354 0 0 .293 452 -235.92)" cy="356.75" cx="218.13"/><ellipse rx="10.823" ry="12.905" transform="matrix(.371 0 0 .275 449.48 -233.46)" cy="356.75" cx="218.13"/><ellipse rx="10.823" ry="12.905" transform="matrix(.371 0 0 .275 448.95 -237.93)" cy="356.75" cx="218.13"/><ellipse rx="10.823" ry="12.905" transform="matrix(.354 0 0 .293 447.01 -238.85)" cy="356.75" cx="218.13"/><ellipse rx="10.823" ry="12.905" transform="matrix(.354 0 0 .287 448.08 -241.58)" cy="356.75" cx="218.13"/><ellipse rx="10.823" ry="12.905" transform="matrix(.395 0 0 .293 432.77 -243.48)" cy="356.75" cx="218.13"/><ellipse rx="10.823" ry="12.905" transform="matrix(.371 0 0 .275 445.92 -243.48)" cy="356.75" cx="218.13"/><ellipse rx="10.823" ry="12.905" transform="matrix(.354 0 0 .287 444.16 -246.97)" cy="356.75" cx="218.13"/><ellipse rx="10.823" ry="12.905" transform="matrix(.354 0 0 .293 436.14 -243.17)" cy="356.75" cx="218.13"/><ellipse rx="10.823" ry="12.905" transform="matrix(.354 0 0 .287 437.42 -243.88)" cy="356.75" cx="218.13"/><ellipse rx="10.823" ry="12.905" transform="matrix(.354 0 0 .287 438.99 -247.02)" cy="356.75" cx="218.13"/></g><g stroke="#000" fill="#009200" transform="matrix(.18 -.005 .004 .185 420.99 -216.8)"><ellipse rx="67.438" ry="205.64" transform="matrix(.976 -.308 .363 .874 -245.81 324.4)" cy="564.48" cx="528.68"/><ellipse rx="13.321" ry="40.796" transform="matrix(.918 -.397 .397 .918 -210.48 304.49)" cy="646.07" cx="528.68"/><path d="M525.08 687.527c54.99 68.186 46.845 110.423 40.129 146.175-16.805-41.814-25.888-68.112-80.874-136.293-54.99-68.186-25.671-114.373-21.214-138.985 7.995 21.595 6.977 60.928 61.969 129.114z"/><path d="M528.92 741.605c54.99 68.186 46.845 110.423 40.129 146.175-16.805-41.814-25.888-68.112-80.874-136.293-54.99-68.186-25.671-114.373-21.214-138.985 7.995 21.595 6.977 60.928 61.969 129.114z"/><path d="M529.608 785.099c56.384 67.038 49.111 109.434 43.133 145.317-17.663-41.458-27.286-67.564-83.666-134.597-56.384-67.038-28.022-113.819-24.074-138.518 8.438 21.425 8.232 60.771 64.616 127.81z"/><ellipse rx="13.321" ry="40.796" transform="matrix(1.81 -.401 .699 1.635 -915.63 -221.01)" cy="646.07" cx="528.68"/><ellipse rx="13.321" ry="40.796" transform="matrix(1.626 -.231 .542 1.353 -739.49 -91.775)" cy="646.07" cx="528.68"/><ellipse rx="13.321" ry="40.796" transform="matrix(1.63 -.197 .513 1.363 -750.62 -91.826)" cy="646.07" cx="528.68"/><ellipse rx="13.321" ry="40.796" transform="matrix(1.314 -.201 .469 1.01 -531.06 47.568)" cy="646.07" cx="528.68"/><ellipse rx="13.321" ry="40.796" transform="matrix(1.326 -.13 .403 1.033 -517.87 12.211)" cy="646.07" cx="528.68"/><path d="M426.618 584.121c15.792 40.035 21.728 75.841 13.245 79.918-8.482 4.076-28.185-25.114-43.977-65.149"/><ellipse rx="13.321" ry="40.796" transform="matrix(1.326 -.13 .403 1.033 -519.53 -34.412)" cy="646.07" cx="528.68"/><ellipse rx="13.321" ry="40.796" transform="matrix(1.329 -.105 .38 1.04 -533.98 -40.121)" cy="646.07" cx="528.68"/><path d="M398.778 529.599c15.607 27.174 23.763 52.399 18.202 56.303-5.56 3.903-22.742-14.988-38.349-42.162"/><path d="M410.434 512.109c15.607 27.174 23.763 52.399 18.202 56.303-5.56 3.903-22.742-14.988-38.349-42.162"/><path d="M460.842 517.13c21.764 37.131 33.139 71.599 25.383 76.932-7.754 5.333-31.714-20.48-53.478-57.611"/><path d="M427.918 497.132c15.607 29.962 23.763 57.775 18.202 62.079-5.56 4.303-22.742-16.525-38.349-46.487"/></g><g stroke="#000" stroke-width="2.5" fill="#804bff"><path d="M499.664-134.623c-1.952 1.978-.037 5.66 1.753 6.987 2.007 1.818 13.277 13.698 21.218 3.654-6.367-.098-18.258-15.047-22.97-10.641z"/><path d="M498.266-140.5c-1.952 1.978-.037 5.66 1.753 6.987 2.007 1.818 13.277 13.698 21.218 3.654-6.367-.098-18.258-15.047-22.97-10.641z"/><path d="M496.491-146.118c-1.952 1.978-.037 5.66 1.753 6.987 2.007 1.818 13.277 13.698 21.218 3.654-6.367-.098-18.258-15.047-22.97-10.641z"/><path d="M492.621-152.552c-1.952 1.978-.037 5.66 1.753 6.987 2.007 1.818 13.277 13.698 21.218 3.654-6.367-.098-18.258-15.047-22.97-10.641z"/></g><g transform="matrix(1 .018 -.018 1 12.04 10.605)"><path d="M211.17 247.3c21.773-12.065 56.618-9.749 79.734 11.165 19.36 16.943 45.307 75.194 70.322 92.834-20.227.019-31.298-5.769-42.241-15.18-28.767 15.442-38.127 16.724-63.89 15.632-35.881-1.334-62.459-17.654-68.178-40.604-6.166-21.804 4.925-52.498 24.253-63.847z" transform="matrix(.209 -.041 .047 .181 407.8 -213.64)" stroke="#000" stroke-width="2.5" fill="#804bff"/><ellipse rx="14.154" ry="14.986" stroke="#000" transform="matrix(.245 0 0 .134 401.82 -215.18)" cy="323.04" cx="287.23" stroke-width="2.5" fill="#f00"/><ellipse rx="23.254" ry="15.895" stroke="#000" transform="matrix(.194 -.076 .068 .173 398.66 -208.06)" cy="348.26" cx="204.58" stroke-width="2.5" fill="#ff0"/><ellipse rx="5.828" ry="5.828" transform="matrix(.214 0 0 .185 411.29 -233.74)" cy="333.86" cx="283.9"/><path d="M516.8 260.29c4.425 18.107-6.674 43.083-33.133 52.609-26.775 13.173-46.079 41.831-55.641 88.017-47.244-103.27-23.107-148.28 20.6-160.35 37.377-14.363 60.42-13.371 68.174 19.72z" transform="matrix(.092 .001 -.003 .085 417.85 -191.49)" stroke="#000" stroke-width="6.56" fill="#ff0"/><ellipse rx="4.71" ry="4.71" transform="matrix(.187 -.013 .014 .191 418.69 -234.98)" cy="362.39" cx="198.98"/></g></g></g></svg>