<svg xmlns="http://www.w3.org/2000/svg" height="512" width="512" version="1"><g><g fill-rule="evenodd" transform="scale(.688 1.032)"><rect height="496.06" width="744.09" fill="#ffe800"/><rect height="248.03" width="744.09" y="248.03" fill="#00148e"/><rect height="124.02" width="744.09" y="372.05" fill="#da0010"/></g><g transform="matrix(.938 0 0 1.125 -97.293 -73.425)"><g fill-rule="evenodd"><path d="M331.262 282.083l-58.382 51.233-1.028-1.1 58.382-51.233 1.028 1.1z"/><path d="M372.09 290.726l-76.267 67.07-1.337-1.055 76.267-67.07 1.337 1.055z"/><path d="M478.35 60.236v88.583l17.717 88.583 17.717-88.583v-88.583h-35.434z" transform="matrix(-.055 -.046 -.071 .06 327.836 375.511)" stroke="#000" stroke-width="4.104" fill="#808080"/><path d="M478.35 60.236v88.583l17.717 88.583 17.717-88.583v-88.583h-35.434z" transform="matrix(-.055 -.046 -.071 .06 308.167 349.313)" stroke="#000" stroke-width="4.104" fill="#808080"/></g><g transform="matrix(.47 0 0 .414 122.21 80.334)"><path d="M301.18 272.84s-17.716 336.61 53.15 336.61l106.3-35.433-.86-185.03-158.59-116.15z" fill-rule="evenodd" transform="matrix(.768 0 0 1.045 107.43 -80.403)" stroke="#000" stroke-width="1pt" fill="#ffdf00"/><path d="M344.46 304.2c-.001 17.717-7.846 269.82 27.587 269.82l88.583-17.717-.86-167.31-115.31-84.79z" fill-rule="evenodd" transform="matrix(.768 0 0 1.045 107.43 -80.403)" stroke="#000" stroke-width="1pt" fill="#0000c4"/><path d="M367.52 321.16c-.001 17.717 4.525 217.42 39.958 217.42h53.15l-.859-149.59-92.249-67.833z" fill-rule="evenodd" transform="matrix(.768 0 0 1.045 107.43 -80.403)" stroke="#000" stroke-width="1pt" fill="#e10000"/><path d="M336.611 204.63l124.018 124.02 2.186-2.664-124.018-124.02-2.186 2.664z" fill-rule="evenodd"/><path d="M301.18 272.84s-35.433 336.61 70.866 336.61c88.583 0 88.583-53.15 106.3-53.15l-17.72-124.02-159.45-159.44z" fill-rule="evenodd" stroke="#000" stroke-width="1pt" fill="#ffdf00"/><g stroke="#000"><path d="M379.497 331.925c.748-.05 26.775-54.741 91.164-89.019" fill="none"/><path d="M374.414 278.766c9.03 4.116 14.712 8.83 19.879 14.329-10.359-2.105-15.681-2.934-24.711-7.05s-15.868-10.41-21.303-15.504c6.734 2.032 17.105 4.109 26.135 8.225z" fill-rule="evenodd" fill="#005b00"/><path d="M402.902 310.76c.614 1.151-.067 2.704-1.522 3.468s-3.131.452-3.745-.699.067-2.704 1.522-3.468 3.131-.452 3.745.699z" fill-rule="evenodd" fill="#f00"/><path d="M425.14 243.195c-3.953 9.774-8.293 16.213-13.298 22.235 2.252-10.855 3.188-16.397 7.141-26.17s9.718-17.608 14.381-23.848c-2.043 7.146-4.27 18.01-8.223 27.784z" fill-rule="evenodd" fill="#005b00"/><path d="M417.637 242.97c-.961 9.556-3.046 16.943-5.788 24.444-.722-9.27-1.269-13.869-.308-23.425s3.904-18.847 6.307-26.292c.006 6.455.751 15.716-.21 25.272z" fill-rule="evenodd" fill="#005b00"/><path d="M425.432 256.186c-5.367 5.676-9.881 8.059-14.635 9.549 4.757-7.974 7.066-12.212 12.433-17.888s11.132-8.196 15.763-10.15c-3.447 4.812-8.193 12.813-13.561 18.489z" fill-rule="evenodd" fill="#005b00"/><path d="M383.467 272.822c5.821 6.927 8.564 13.49 10.534 20.718-7.81-5.23-11.931-7.654-17.752-14.581s-8.853-15.47-11.224-22.356c4.789 4.088 12.621 9.292 18.442 16.219z" fill-rule="evenodd" fill="#005b00"/><path d="M363.241 313.878c7.797 5.966 11.944 12.097 15.28 19.03-9.881-3.915-15.047-5.643-22.845-11.608s-12.564-14.039-16.322-20.56c6.185 3.288 16.089 7.172 23.886 13.138z" fill-rule="evenodd" fill="#005b00"/><path d="M399.129 310.711c-5.966 9.393-12.439 15.721-19.88 21.714 3.493-10.26 4.963-15.482 10.929-24.875s14.552-17.13 21.494-23.299c-3.12 6.8-6.578 17.066-12.543 26.459z" fill-rule="evenodd" fill="#005b00"/><path d="M409.448 319.632c-9.937 6.51-18.563 9.838-27.763 12.426 8.475-8.414 12.546-12.828 22.483-19.338s21.012-10.29 29.918-13.262c-6.251 5.229-14.701 13.664-24.638 20.174z" fill-rule="evenodd" fill="#005b00"/><path d="M475.616 236.959c-4.189 4.805-7.957 7.761-12.03 10.41 3.41-5.596 5.027-8.479 9.216-13.284s9.054-8.342 12.971-11.151c-2.571 3.616-5.968 9.22-10.157 14.025z" fill-rule="evenodd" fill="#005b00"/><path d="M471.061 235.811c-2.43 5.059-5.086 8.808-8.144 12.539 1.399-5.107 1.983-7.664 4.413-12.723s5.956-9.735 8.807-13.477c-1.262 3.496-2.646 8.602-5.076 13.661z" fill-rule="evenodd" fill="#005b00"/><path d="M473.189 243.948c-4.225 2.412-7.312 3.15-10.364 3.375 4.319-3.727 6.486-5.735 10.711-8.146s8.065-3.071 11.137-3.563c-2.941 2.179-7.259 5.922-11.484 8.334z" fill-rule="evenodd" fill="#005b00"/><path d="M418.17 277.305c-7.779 4.479-14.127 6.984-20.729 9.084 7.134-5.523 10.626-8.398 18.405-12.877s15.843-7.402 22.316-9.713c-5.091 3.492-12.212 9.027-19.991 13.506z" fill-rule="evenodd" fill="#005b00"/><path d="M443.627 275.719c-10.372 5.875-19.16 8.627-28.443 10.591 9.112-7.904 13.524-12.076 23.896-17.951s21.609-8.911 30.639-11.283c-6.63 4.842-15.72 12.769-26.092 18.644z" fill-rule="evenodd" fill="#005b00"/><path d="M375.563 370.505c.685-.36-5.619-51.594 36.324-104.527" fill="none"/><path d="M441.822 258.782c.614 1.151-.067 2.704-1.522 3.468s-3.131.452-3.745-.699.067-2.704 1.522-3.468 3.131-.452 3.745.699z" fill-rule="evenodd" fill="#f00"/><path d="M460.286 248.465c.614 1.151-.067 2.704-1.522 3.468s-3.131.452-3.745-.699.067-2.704 1.522-3.468 3.131-.452 3.745.699z" fill-rule="evenodd" fill="#f00"/><path d="M395.21 280.999c.464.866-.378 2.211-1.879 3.004s-3.094.734-3.558-.133.378-2.211 1.879-3.004 3.094-.734 3.558.133z" fill-rule="evenodd" fill="#f00"/><path d="M400.548 278.805c.464.866-.378 2.211-1.879 3.004s-3.094.734-3.558-.133.378-2.211 1.879-3.004 3.094-.734 3.558.133z" fill-rule="evenodd" fill="#f00"/><path d="M397.481 283.511c.464.866-.378 2.211-1.879 3.004s-3.094.734-3.558-.133.378-2.211 1.879-3.004 3.094-.734 3.558.133z" fill-rule="evenodd" fill="#f00"/><path d="M417.374 280.717c.683 1.281-.071 3.008-1.685 3.857s-3.476.499-4.159-.782.071-3.008 1.685-3.857 3.476-.499 4.159.782z" fill-rule="evenodd" fill="#f00"/><path d="M421.308 276.862c.683 1.281-.071 3.008-1.685 3.857s-3.476.499-4.159-.782.071-3.008 1.685-3.857 3.476-.499 4.159.782z" fill-rule="evenodd" fill="#f00"/><path d="M422.297 278.716c.683 1.281-.071 3.008-1.685 3.857s-3.476.499-4.159-.782.071-3.008 1.685-3.857 3.476-.499 4.159.782z" fill-rule="evenodd" fill="#f00"/></g><path d="M336.61 308.27c-.001 17.717-35.433 212.6 53.15 265.75 35.433 17.716 88.582-17.717 88.582 0l-17.71-141.74-124.02-124.01z" fill-rule="evenodd" stroke="#000" stroke-width="1pt" fill="#0000c4"/><path d="M372.05 343.7c-.001 17.717-17.716 159.45 35.433 194.88 35.433 35.433 124.02 25.822 124.02 25.822l-70.87-132.12-88.58-88.58z" fill-rule="evenodd" stroke="#000" stroke-width="1pt" fill="#e10000"/><path d="M298.333 272.832l162.298 162.001 2.846-2.55-162.298-162.001-2.846 2.55z" fill-rule="evenodd"/><path d="M460.63 184.25l17.716 35.433v17.717c-.865-1.305 0 17.716-17.716 17.716-17.717 0-17.717-35.433-17.717-35.433s-17.716 35.433-17.716 70.866l17.716 53.15s-2.611-36.703 17.717-35.433c20.328 1.271 17.716 17.716 17.716 17.716v35.433h17.717v-141.73l17.717-35.433-27.136-53.15-26.014 53.15z" fill-rule="evenodd" transform="matrix(.232 -.229 .178 .177 131.38 328.08)" stroke="#000" stroke-width="1pt" fill="#cececc"/><path d="M557.82 95.669l-26.323 70.866 17.717 53.15-35.433-17.716 35.433 53.149v35.433h17.716v-35.433l35.433-53.149-35.433 17.716 17.717-53.15-26.827-70.866z" fill-rule="evenodd" transform="matrix(.179 -.259 .239 .15 178.7 314.58)" stroke="#000" stroke-width="1pt" fill="#cececc"/><path d="M422.53 136.96c0 2.068-1.958 3.746-4.371 3.746-2.412 0-4.371-1.678-4.371-3.746s1.959-3.747 4.371-3.747c2.413 0 4.371 1.679 4.371 3.747zm-6.244 7.909c0 35.801 20.917 187.81 22.582 191.56.139 4.44-4.718 6.383-7.077.833-6.551-17.342-20.744-159.91-21.333-193.22-.244-13.734 3.761-14.801 8.326-14.57 3.759.209 8.325 3.725 8.325 7.909 0 4.996-5.828 8.742-10.823 7.493z" fill-rule="evenodd" transform="matrix(.686 0 0 .503 58.427 129.68)" stroke="#000" stroke-width="1pt" fill="#e10000"/><path d="M422.53 136.96c0 2.068-1.958 3.746-4.371 3.746-2.412 0-4.371-1.678-4.371-3.746s1.959-3.747 4.371-3.747c2.413 0 4.371 1.679 4.371 3.747zm-6.244 7.909c31.488 61.415 48.722 166.77 50.387 170.52.139 4.44-4.718 6.383-7.077.833-2.479-3.315-12.667-100.18-49.138-172.18-.244-13.734 3.761-14.801 8.326-14.57 3.759.209 8.325 3.725 8.325 7.909 0 4.996-5.828 8.742-10.823 7.493z" fill-rule="evenodd" transform="matrix(.648 .147 -.258 .475 113.74 78.375)" stroke="#000" stroke-width="1pt" fill="#0000c4"/><path d="M422.53 136.96c0 2.068-1.958 3.746-4.371 3.746-2.412 0-4.371-1.678-4.371-3.746s1.959-3.747 4.371-3.747c2.413 0 4.371 1.679 4.371 3.747zm-6.244 7.909c0 35.801 20.917 187.81 22.582 191.56.139 4.44-4.718 6.383-7.077.833-6.551-17.342-20.744-159.91-21.333-193.22-.244-13.734 3.761-14.801 8.326-14.57 3.759.209 8.325 3.725 8.325 7.909 0 4.996-5.828 8.742-10.823 7.493z" fill-rule="evenodd" transform="matrix(.877 0 0 .818 -58.633 151.18)" stroke="#000" stroke-width="1pt" fill="#e10000"/><path d="M422.53 136.96c0 2.068-1.958 3.746-4.371 3.746-2.412 0-4.371-1.678-4.371-3.746s1.959-3.747 4.371-3.747c2.413 0 4.371 1.679 4.371 3.747zm-6.244 7.909c31.488 61.415 48.722 166.77 50.387 170.52.139 4.44-4.718 6.383-7.077.833-2.479-3.315-12.667-100.18-49.138-172.18-.244-13.734 3.761-14.801 8.326-14.57 3.759.209 8.325 3.725 8.325 7.909 0 4.996-5.828 8.742-10.823 7.493z" fill-rule="evenodd" transform="matrix(.827 .24 -.33 .772 12.05 67.705)" stroke="#000" stroke-width="1pt" fill="#0000c4"/></g><g fill-rule="evenodd"><path d="M412.828 282.083l58.382 51.233 1.028-1.1-58.382-51.233-1.028 1.1z"/><path d="M372 290.726l76.267 67.07 1.337-1.055-76.267-67.07-1.337 1.055z"/><path d="M478.35 60.236v88.583l17.717 88.583 17.717-88.583v-88.583h-35.434z" transform="matrix(.055 -.046 .071 .06 416.254 375.511)" stroke="#000" stroke-width="4.104" fill="#808080"/><path d="M478.35 60.236v88.583l17.717 88.583 17.717-88.583v-88.583h-35.434z" transform="matrix(.055 -.046 .071 .06 435.923 349.313)" stroke="#000" stroke-width="4.104" fill="#808080"/></g><g fill-rule="evenodd" transform="matrix(.47 0 0 .414 122.21 80.334)"><path d="M301.18 272.84s-17.716 336.61 53.15 336.61l106.3-35.433-.86-185.03-158.59-116.15z" transform="matrix(-.768 0 0 1.045 955.56 -80.403)" stroke="#000" fill="#ffdf00"/><path d="M344.46 304.2c-.001 17.717-7.846 269.82 27.587 269.82l88.583-17.717-.86-167.31-115.31-84.79z" transform="matrix(-.768 0 0 1.045 955.56 -80.403)" stroke="#000" fill="#0000c4"/><path d="M367.52 321.16c-.001 17.717 4.525 217.42 39.958 217.42h53.15l-.859-149.59-92.249-67.833z" transform="matrix(-.768 0 0 1.045 955.56 -80.403)" stroke="#000" fill="#e10000"/><path d="M726.379 204.63l-124.018 124.02-2.186-2.664 124.018-124.02 2.186 2.664z"/><g stroke="#000" fill="#005b00"><path d="M631.063 297.993s35.432 42.038 52.496 74.752c17.063 32.715 36.952 82.789 36.952 82.789s-11.332-49.425-32.821-88.822c-28.129-49.426-56.631-65.862-56.626-68.719z"/><path d="M624.525 266.311s38.096 50.501 55.477 88.146 36.714 94.281 36.714 94.281-9.397-54.594-31.426-100.077c-29.001-57.245-60.993-79.299-60.764-82.351z"/><path d="M661.585 216.196s27.856 77.034 36.412 124.629c8.554 47.594 13.871 113.121 13.871 113.121s5.115-54.921-6.361-113.343c-15.858-74.669-45.041-122.009-43.92-124.406z"/><path d="M633.185 211.278s36.872 68.707 51.049 115.474c14.175 46.768 27.267 114.379 27.267 114.379s-1.457-61.443-19.827-118.364c-24.662-72.155-59.316-108.359-58.487-111.489z"/><path d="M682.387 231.836s19.573 74.289 24.708 118.773c5.134 44.484 7.007 104.673 7.007 104.673s6.126-48.883-.961-103.647c-10.014-70.187-31.742-117.811-30.753-119.798z"/><path d="M629.113 236.329s36.99 59.337 52.161 100.817c15.169 41.48 30.319 102.186 30.319 102.186s-4.2-56.21-23.687-106.583c-25.963-63.719-59.404-93.465-58.791-96.419z"/><path d="M623.562 275.871s37.978 47.167 55.194 83.361c17.215 36.195 36.252 91.291 36.252 91.291s-9.046-53.978-30.882-97.612c-28.768-54.798-60.816-73.953-60.563-77.04z"/><path d="M628.402 253.39s35.441 53.764 50.881 92.863c15.439 39.099 31.875 97.319 31.875 97.319s-6.636-55.301-26.315-102.632c-26.04-59.684-56.819-84.526-56.439-87.55z"/><path d="M670.542 218.13s23.189 75.603 28.892 121.698c5.702 46.095 7.116 109.097 7.116 109.097s8.352-52.125.38-108.776c-11.375-72.489-37.646-119.807-36.387-122.018z"/><path d="M640.175 199.588s33.365 71.806 45.17 119.693c11.803 47.887 21.477 116.445 21.477 116.445s1.635-61.357-13.846-119.741c-20.998-74.135-53.783-113.352-52.798-116.396z"/><path d="M690.204 238.269s14.852 70.827 17.207 112.833c2.354 42.006.503 98.529.503 98.529s9.096-45.435 5.437-97.196c-5.614-66.395-24.25-112.364-23.145-114.166z"/><path d="M633.019 223.494s34.96 62.481 48.047 105.527c13.085 43.045 24.746 105.625 24.746 105.625s-.358-57.363-17.38-109.701c-22.926-66.281-56.278-98.486-55.41-101.451z"/></g><path d="M301.18 272.84s-35.433 336.61 70.866 336.61c88.583 0 88.583-53.15 106.3-53.15l-17.72-124.02-159.45-159.44z" transform="matrix(-1 0 0 1 1063 0)" stroke="#000" fill="#ffdf00"/><path d="M336.61 308.27c-.001 17.717-35.433 212.6 53.15 265.75 35.433 17.716 88.582-17.717 88.582 0l-17.71-141.74-124.02-124.01z" transform="matrix(-1 0 0 1 1063 0)" stroke="#000" fill="#0000c4"/><path d="M372.05 343.7c-.001 17.717-17.716 159.45 35.433 194.88 35.433 35.433 124.02 25.822 124.02 25.822l-70.87-132.12-88.58-88.58z" transform="matrix(-1 0 0 1 1063 0)" stroke="#000" fill="#e10000"/><path d="M764.667 272.832l-162.298 162.001-2.846-2.55 162.298-162.001 2.846 2.55z"/><path d="M460.63 184.25l17.716 35.433v17.717c-.865-1.305 0 17.716-17.716 17.716-17.717 0-17.717-35.433-17.717-35.433s-17.716 35.433-17.716 70.866l17.716 53.15s-2.611-36.703 17.717-35.433c20.328 1.271 17.716 17.716 17.716 17.716v35.433h17.717v-141.73l17.717-35.433-27.136-53.15-26.014 53.15z" transform="matrix(-.232 -.229 -.178 .177 931.61 328.08)" stroke="#000" fill="#cececc"/><path d="M557.82 95.669l-26.323 70.866 17.717 53.15-35.433-17.716 35.433 53.149v35.433h17.716v-35.433l35.433-53.149-35.433 17.716 17.717-53.15-26.827-70.866z" transform="matrix(-.179 -.259 -.239 .15 884.3 314.58)" stroke="#000" fill="#cececc"/><path d="M422.53 136.96c0 2.068-1.958 3.746-4.371 3.746-2.412 0-4.371-1.678-4.371-3.746s1.959-3.747 4.371-3.747c2.413 0 4.371 1.679 4.371 3.747zm-6.244 7.909c0 35.801 20.917 187.81 22.582 191.56.139 4.44-4.718 6.383-7.077.833-6.551-17.342-20.744-159.91-21.333-193.22-.244-13.734 3.761-14.801 8.326-14.57 3.759.209 8.325 3.725 8.325 7.909 0 4.996-5.828 8.742-10.823 7.493z" transform="matrix(-.686 0 0 .503 1004.6 129.68)" stroke="#000" fill="#e10000"/><path d="M422.53 136.96c0 2.068-1.958 3.746-4.371 3.746-2.412 0-4.371-1.678-4.371-3.746s1.959-3.747 4.371-3.747c2.413 0 4.371 1.679 4.371 3.747zm-6.244 7.909c31.488 61.415 48.722 166.77 50.387 170.52.139 4.44-4.718 6.383-7.077.833-2.479-3.315-12.667-100.18-49.138-172.18-.244-13.734 3.761-14.801 8.326-14.57 3.759.209 8.325 3.725 8.325 7.909 0 4.996-5.828 8.742-10.823 7.493z" transform="matrix(-.648 .147 .258 .475 949.25 78.375)" stroke="#000" fill="#0000c4"/><path d="M422.53 136.96c0 2.068-1.958 3.746-4.371 3.746-2.412 0-4.371-1.678-4.371-3.746s1.959-3.747 4.371-3.747c2.413 0 4.371 1.679 4.371 3.747zm-6.244 7.909c0 35.801 20.917 187.81 22.582 191.56.139 4.44-4.718 6.383-7.077.833-6.551-17.342-20.744-159.91-21.333-193.22-.244-13.734 3.761-14.801 8.326-14.57 3.759.209 8.325 3.725 8.325 7.909 0 4.996-5.828 8.742-10.823 7.493z" transform="matrix(-.877 0 0 .818 1121.6 151.18)" stroke="#000" fill="#e10000"/><path d="M422.53 136.96c0 2.068-1.958 3.746-4.371 3.746-2.412 0-4.371-1.678-4.371-3.746s1.959-3.747 4.371-3.747c2.413 0 4.371 1.679 4.371 3.747zm-6.244 7.909c31.488 61.415 48.722 166.77 50.387 170.52.139 4.44-4.718 6.383-7.077.833-2.479-3.315-12.667-100.18-49.138-172.18-.244-13.734 3.761-14.801 8.326-14.57 3.759.209 8.325 3.725 8.325 7.909 0 4.996-5.828 8.742-10.823 7.493z" transform="matrix(-.827 .24 .33 .772 1050.9 67.705)" stroke="#000" fill="#0000c4"/></g><g fill-rule="evenodd" stroke="#000" stroke-width="1pt"><path d="M347.068 369.095c8.328 4.407 17.434 3.42 24.984 0v-58.631h-16.656c8.328 21.987 8.328 43.974-8.328 58.631z" fill="#e10000"/><path d="M359.255 310.231c0 41.191-12.018 50.346-12.018 58.581 5.014 0 8.339-3.835 12.018-9.154 5.014-8.238 5.498-50.071 5.014-49.43h-5.014z" fill="#0000c4"/><path d="M349.228 310.231c-.229 24.073-12.677 46.332-10.329 51.262 2.681 4.406 10.329-10.069 20.356-1.831 5.014-8.238 5.498-50.071 5.014-49.43h-15.041z" fill="#0000c4"/><path d="M350.427 310.303c0 27.46-11.517 29.285-11.517 36.608 5.014 0 11.491-4.003 11.517-3.655 5.014-5.492 5.498-33.381 5.014-32.953h-5.014z" fill="#ffdf00"/><path d="M340.4 310.303c-.229 16.049-12.376 29.668-10.028 32.953 2.681 2.937 10.028-5.492 20.055 0 5.014-5.492 5.498-33.381 5.014-32.953h-15.041z" fill="#ffdf00"/><path d="M397.07 369.324c-8.327 4.41-17.432 3.416-24.98-.006v-58.672h16.654c-8.327 22.004-8.327 44.008 8.327 58.676z" fill="#e10000"/><path d="M384.845 310.235c0 41.191 12.018 50.346 12.018 58.581-5.014 0-8.339-3.835-12.018-9.154-5.014-8.238-5.498-50.071-5.014-49.43h5.014z" fill="#0000c4"/><path d="M394.872 310.235c.229 24.073 12.677 46.332 10.329 51.262-2.681 4.406-10.329-10.069-20.356-1.831-5.014-8.238-5.498-50.071-5.014-49.43h15.041z" fill="#0000c4"/><path d="M393.677 310.311c0 27.46 11.517 29.285 11.517 36.608-5.014 0-11.491-4.003-11.517-3.655-5.014-5.492-5.498-33.381-5.014-32.953h5.014z" fill="#ffdf00"/><path d="M403.704 310.303c.229 16.049 12.376 29.668 10.028 32.953-2.681 2.937-10.028-5.492-20.055 0-5.014-5.492-5.498-33.381-5.014-32.953h15.041z" fill="#ffdf00"/></g><g stroke="#000" fill-rule="evenodd" transform="matrix(.47 0 0 .414 122.21 80.334)"><path d="M397.455 570.796l-18.506 12.885 18.506 12.885 9.253-6.442 4.626 6.442 4.626 12.885 4.626-12.885 4.626-6.442 248.024-.001v-12.885l-248.024.001-4.626-6.442c0-6.442.971-12.885 4.626-12.885l18.505-.001c0-6.442-9.253-19.327-27.757-19.327-18.505 0-27.757 12.885-27.757 19.327l18.505.001c3.656 0 4.626 6.442 4.626 12.885l-4.631 6.442-9.253-6.442z" fill="#908f8a"/><rect transform="matrix(.476 0 0 .444 353.49 559.05)" height="17.717" width="336.61" y="95.671" x="204.35" fill="#b74d00"/><rect transform="matrix(.476 0 0 .444 353.49 559.05)" height="17.717" width="336.61" y="77.955" x="204.35" fill="#b74d00"/><rect transform="matrix(.476 0 0 .444 353.49 559.05)" height="17.717" width="336.61" y="60.237" x="204.35" fill="#b74d00"/><rect transform="matrix(.476 0 0 .444 353.49 559.05)" height="17.717" width="336.61" y="42.522" x="204.35" fill="#b74d00"/><rect transform="matrix(.476 0 0 .444 353.49 559.05)" height="17.717" width="336.61" y="24.805" x="204.35" fill="#b74d00"/><rect transform="matrix(.476 0 0 .444 353.49 559.05)" height="17.717" width="336.61" y="7.089" x="204.35" fill="#b74d00"/><rect transform="matrix(.476 0 0 .444 353.49 559.05)" height="17.717" width="336.61" y="-10.628" x="204.35" fill="#b74d00"/><path d="M459.239 554.331l59.056 55.119h8.437l-59.056-55.119h-8.437z" fill="#908f8a"/><path d="M459.239 609.449l59.056-55.119h8.437l-59.056 55.119h-8.437z" fill="#908f8a"/><path d="M459.234 554.331v55.119h8.437v-55.119h-8.437z" fill="#908f8a"/><path d="M535.169 554.331l59.056 55.119h8.437l-59.056-55.119h-8.437z" fill="#908f8a"/><path d="M535.169 609.449l59.056-55.119h8.437l-59.056 55.119h-8.437z" fill="#908f8a"/><path d="M594.22 554.331v55.119h8.436v-55.119h-8.436z" fill="#908f8a"/><path d="M535.16 554.331v55.119h8.436v-55.119h-8.436z" fill="#908f8a"/><path d="M518.294 554.331v55.119h8.437v-55.119h-8.437z" fill="#908f8a"/></g><g transform="matrix(.47 0 0 .414 122.21 80.334)"><g stroke="#000" stroke-width="1pt" fill="#ffdf00" fill-rule="evenodd"><path d="M655.51 396.85c0 88.016-55.559 159.45-124.02 159.45-68.456 0-124.02-71.433-124.02-159.45 0-88.015 55.559-159.45 124.02-159.45 68.457 0 124.02 71.433 124.02 159.45zm-17.717.001c0 78.236-47.622 141.73-106.3 141.73-58.677 0-106.3-63.496-106.3-141.73 0-78.237 47.622-141.73 106.3-141.73 58.677 0 106.3 63.496 106.3 141.73z"/><path d="M579.75 249.94c-14.836-8.072-31.144-12.537-48.258-12.537s-33.422 4.465-48.257 12.537l6.893 16.323c12.716-7.175 26.695-11.144 41.364-11.144s28.648 3.969 41.364 11.144l6.894-16.323z"/><path d="M579.955 543.76c-14.836 8.072-31.144 12.537-48.258 12.537s-33.422-4.465-48.257-12.537l6.893-16.323c12.716 7.175 26.695 11.144 41.364 11.144s28.648-3.969 41.364-11.144l6.894 16.323z"/></g><path d="M637.8 396.85c0 78.277-47.592 141.73-106.3 141.73-58.707 0-106.3-63.456-106.3-141.73 0-78.277 47.592-141.73 106.3-141.73 58.707 0 106.3 63.456 106.3 141.73z" fill-rule="evenodd" fill="#a7cfff"/><path d="M637.8 396.85c1.133 26.658-4.634 39.635-11.89 67.356-1.912 2.979-10.966-6.537-16.447-11.236s-7.812 4.239-14.537-3.046c-6.725-7.284-11.049 2.058-15.983-4.095s-51.301-7.056-51.366-7.585c4.591-2.276 28.269.152 24.474-11.193-4.3-11.722-31.094-.352-34.692-15.365-2.44-14.907-53.566-15.543-57.219-19.225 1.444 5.664 39.728 8.049 38.814 22.57-.833 5.915-37.693 7.644-41.247 12.651-3.045 6.295 28.927-1.707 30.114 6.032-.078 3.185-4.705.068-21.358 4.99-8.326 2.46 15.454 10.329 6.41 14.637-9.045 4.307-28.261 6.187-27.433 7.997 2.94 8.908 44.693 19.536 40.535 21.065-14.754 6.559-22.552 10.872-29.627 14.652-19.24-25.653-31.146-61.087-31.146-100.2 31.716-11.405 24.968-13.735 83.645-13.735s77.981 2.33 128.95 13.735z" fill-rule="evenodd" stroke="#000" stroke-width="1pt" fill="#afff7b"/><path d="M637.8 396.85c-8.07 0-16.454 3.399-25.07 3.399-8.617 0-17.465-3.398-26.466-3.398s-19.287 4.531-28.512 4.531c-9.224 0-17.388-4.531-26.676-4.531-9.287 0-18.566 3.398-27.755 3.398s-18.289-3.398-27.219-3.398-17.691 3.398-26.201 3.398-16.77-3.399-24.699-3.399c0-19.559 2.976-38.197 8.358-55.151 27.075 2.002 11.042-15.715 27.075-15.715 8.655 0 17.434 1.859 25.238 9.788 2.447 0 14.479-11.373 27.912-9.788 13.432 1.586 8.492 27.272 26.371 28.637 9.062 6.796 14.392 11.133 26.778 13.871 17.717 1.606 68.351-2.5 68.705-.194 1.417 9.223 2.161 18.772 2.161 28.552z" fill-rule="evenodd" stroke="#000" stroke-width="1pt" fill="#fff"/><path d="M549.85 473.94c0-5.664 13.512-9.462 13.512-18.524s-11.914-9.349-12.379-17.86c-.2-3.461 10.319-7.046 14.914-7.335s8.493 7.42 8.493 9.119-4.662-4.192-8.578-4.378-12.313.631-12.313 2.33c0 3.399 14.851 7.598 13.718 18.925-1.132 11.327-12.71 14.657-12.71 18.055l5.056 12.86s-9.713-7.529-9.713-13.192z" fill-rule="evenodd" transform="matrix(.351 0 0 .78 355.49 112.99)" stroke="#000" stroke-width="1pt"/><path d="M549.85 473.94c0-5.664 13.512-9.462 13.512-18.524s-11.949-9.348-12.379-17.86c-.947-3.962 11.813-6.544 16.408-6.833s9.986 7.921 9.986 9.62-5.409-5.195-9.325-5.381-14.553.631-14.553 2.33c0 3.399 14.851 7.598 13.718 18.925-1.132 11.327-12.71 14.657-12.71 18.055l5.056 12.86s-9.713-7.529-9.713-13.192z" fill-rule="evenodd" transform="matrix(-.351 0 0 .78 746.95 112.36)" stroke="#000" stroke-width="1pt"/><path d="M553.684 445.951c0 2.161-1.115 3.913-2.491 3.913-1.376 0-2.491-1.752-2.491-3.913s1.115-3.913 2.491-3.913c1.376 0 2.491 1.752 2.491 3.913z" fill-rule="evenodd"/><rect fill-rule="evenodd" height="31.638" width=".801" y="458.05" x="586.7"/><rect fill-rule="evenodd" height="31.638" width=".801" y="455.65" x="593.91"/><rect fill-rule="evenodd" transform="matrix(.008 -1 .987 .161 0 0)" height="6.9" width=".8" y="597.92" x="-376.42"/><path d="M497.26 478.07s26.052 11.328 31.716 18.124c5.664 6.797 3.398 6.796 3.398 6.796l57.769 2.266c0-3.398 10.194-3.399 12.46-11.328 2.265-7.929 2.265-10.194 2.265-10.194l-18.123 5.664 1.132-10.194-15.858-.001-2.265 10.195-33.982-1.133 2.266-27.186-6.796 1.133-1.133 26.053c-1.133 0-31.717-7.929-32.849-10.195z" fill-rule="evenodd" transform="translate(-4.531 1.133)" stroke="#000" stroke-width="1pt" fill="#b74d00"/><path d="M440.53 316.28s37.645-11.214 92.11-10.413 92.11 12.815 91.309 12.815l-10.413-18.422s-38.446-10.412-81.697-11.213c-43.252-.801-80.897 8.01-80.096 8.811l-11.213 18.422z" fill-rule="evenodd" stroke="#fede00" stroke-width="1pt" fill="#fede00"/><rect fill-rule="evenodd" transform="rotate(-1.049)" height="12.815" width="23.228" y="301.17" x="502.2" fill="#38a9f9"/><path d="M454.038 298.896l-8.19 12.622 27.682-3.228-2.223-12.621-17.269 3.227z" fill-rule="evenodd" fill="#38a9f9"/><rect fill-rule="evenodd" transform="rotate(-4.757)" height="12.815" width="23.228" y="332.64" x="451.6" fill="#38a9f9"/><rect fill-rule="evenodd" transform="matrix(-.998 -.063 -.063 .998 0 0)" height="12.815" width="23.228" y="256.52" x="-578.71" fill="#38a9f9"/><path d="M611.233 300.763l8.423 15.711-25.074-5.858 2.79-12.507 13.86 2.655z" fill-rule="evenodd" fill="#38a9f9"/><rect fill-rule="evenodd" transform="matrix(-.992 -.128 -.128 .992 0 0)" height="12.815" width="23.228" y="218.17" x="-624.16" fill="#38a9f9"/><polygon fill="#ffdf00" fill-rule="evenodd" stroke="#000" stroke-width="1pt" points="532.64 323.49 530.06 310.02 522.52 321.48 525.29 308.05 513.95 315.75 521.65 304.4 508.22 307.18 519.67 299.64 506.2 297.06 519.67 294.48 508.22 286.95 521.65 289.72 513.95 278.37 525.29 286.07 522.52 272.64 530.06 284.1 532.64 270.63 535.21 284.1 542.75 272.64 539.98 286.07 551.33 278.37 543.62 289.72 557.06 286.95 545.6 294.48 559.07 297.06 545.6 299.64 557.06 307.18 543.62 304.4 551.33 315.75 539.98 308.05 542.75 321.48 535.21 310.02"/><path d="M547.05 293.86c0 9.29-6.634 16.82-14.818 16.82s-14.818-7.531-14.818-16.82c0-9.29 6.634-16.82 14.818-16.82s14.818 7.531 14.818 16.82z" fill-rule="evenodd" transform="matrix(.973 0 0 .833 14.786 51.779)" stroke="#000" stroke-width="1pt" fill="#ffdf00"/><path d="M532.639 293.053c0 .885-2.152 1.602-4.806 1.602s-4.806-.717-4.806-1.602 2.152-1.602 4.806-1.602 4.806.717 4.806 1.602z" fill-rule="evenodd"/><path d="M543.049 293.052c0 .885-1.614 1.602-3.604 1.602s-3.604-.717-3.604-1.602c0-.885 1.614-1.602 3.604-1.602s3.604.717 3.604 1.602z" fill-rule="evenodd"/><path d="M529.43 297.86l.801.801c-1.902-1.902-.996-1.126 1.602 3.203 2.393-.495 3.091-1.39 4.806-2.403" transform="matrix(.959 -.284 .284 .959 -62.241 163.46)" stroke="#000" stroke-width="1pt" fill="none"/><path d="M527.83 304.27l.801.801c-1.902-1.902-1.124-.995 3.204 1.602 4.027.544 8.092-1.196 10.412-4.005" transform="translate(-1.602)" stroke="#000" stroke-width="1pt" fill="none"/><path d="M468.56 330.7s1.602 12.815-8.81 28.834c-10.413 16.019-8.811 10.413-8.811 10.413s4.806 8.81 4.005 8.81l-8.009-8.009-8.811 8.81s8.01-13.616 7.209-13.616l-2.403-4.806 6.407-2.403s9.612-16.82 9.612-16.019l-28.835 18.422 38.446-30.436z" fill-rule="evenodd" fill="#b7e1ff"/><path d="M474.97 335.51c-.801 0 4.005 12.816 8.01 19.223 4.004 6.408 4.004 14.418 4.004 14.418l13.617 6.407-17.621-24.829 11.213 4.004-19.223-19.223z" fill-rule="evenodd" fill="#b7e1ff"/><path d="M474.97 369.15s9.611 9.611 10.412 12.815l.801 10.412-4.004-8.009-5.607 7.208s4.005-11.213 3.204-12.014l-6.408 4.005s2.403-6.408 2.403-7.209 0-4.806-.801-7.208z" fill-rule="evenodd" fill="#b7e1ff"/><path d="M426.91 391.57c3.203-2.402 9.611-4.004 9.611-4.004s-4.005 6.407-4.806 6.407-3.203 0-4.805-2.403z" fill-rule="evenodd" fill="#b7e1ff"/><path d="M537.44 356.33s20.824 12.015 20.824 12.816l-13.616-5.607-7.208-7.209z" fill-rule="evenodd" fill="#b7e1ff"/><path d="M499.8 331.5c1.602.801 30.436 23.227 29.635 23.227s-12.815-6.407-12.815-5.606v5.606l-6.408-12.815-1.602 4.806-8.81-15.218z" fill-rule="evenodd" fill="#b7e1ff"/><path d="M507 367.54l8.01 15.218 8.009-1.602s-15.218-13.616-16.019-13.616z" fill-rule="evenodd" fill="#b7e1ff"/><path d="M531.84 357.93c0 2.403.801 14.417.801 14.417s4.806 4.005 4.806 3.204-4.806-16.82-5.607-17.621z" fill-rule="evenodd" fill="#b7e1ff"/></g><g><path d="M261.478 147.211s16.861-7.787 36.058-13.586 40.731-9.61 43.576-9.61c5.688 0 15.439 11.929 17.064 11.929s8.126-3.314 16.252-3.314 13.001 5.302 14.627 5.302h14.626c1.625 0-4.875-13.254 0-12.592 2.438.331 23.159 2.982 42.458 8.201s46.694 14.432 46.694 14.432-44.774 4.991-56.647 3.515c-1.625.663-.081 8.766-2.358 5.201-3.741-.713-17.474-2.5-19.912-2.5s-6.984 2.299-13.484 3.624c-6.501 1.326-14.626 3.314-14.626 3.314l10.563 13.917-13.001 5.302s-8.126-15.905-11.376-15.905-4.875 11.266-8.938 10.604c-4.063-.663-5.688-10.604-8.938-13.254-3.25-2.651-20.387-3.616-26.889-4.941-6.501-1.326-16.992-2.349-22.68-3.674-5.688-1.326-11.376 3.314-13.814 3.314-2.438 0 3.25-3.976.813-4.639s-4.063 1.988-5.688 1.988-18.689-2.651-20.314-3.314c-1.625-.663 4.063-3.314 2.438-3.314h-6.501z" fill-rule="evenodd" fill="#984000"/><path d="M462.91-64.94c0 21.151-20.501 38.298-45.791 38.298s-45.791-17.147-45.791-38.298 20.501-38.298 45.791-38.298 45.791 17.147 45.791 38.298z" fill-rule="evenodd" transform="matrix(.176 0 0 .177 301.013 151.864)" stroke="#772600" stroke-width="3.706" fill="#808080"/><path d="M284.74-59.945c6.661-6.661 14.987-16.651 36.633-16.651 4.996-1.665 4.996-11.656 16.651-11.656 11.656 0 8.326 9.991 16.652 13.321 8.325 3.33 76.596-3.33 76.596-3.33s6.66 4.995 6.66 11.656c0 6.66-4.995 11.656-6.66 11.656s-68.271-4.995-73.266-3.33c-4.995 1.665-8.326 3.33-19.982 3.33-11.655 0-14.986-11.656-23.311-11.656-8.326 0-16.652-1.665-29.973 6.66z" fill-rule="evenodd" transform="matrix(.22 0 0 .214 279.879 154.636)" stroke="#772600" stroke-width="5.25" fill="#984000"/><path d="M487.88-76.597h26.642c9.572.114 12.873 3.005 21.647 3.33h23.312c8.475-.314 12.951-2.295 21.647-3.33 14.504-.175 9.555-1.306 6.66-9.991-2.625-6.564-2.949-9.61-6.66-13.321-1.396-7.946-4.655-10.772-4.996-19.982-1.527-7.026-4.342-11.752-1.665-19.982 3.84 5.647 5.387 7.97 14.986 8.326 10.045 0 13.937-.206 19.982 3.33 4.663 4.891 10.886 3.331 19.982 3.331 7.677 1.405 8.96 5.312 14.986 8.325 7.103 3.936 11.694 4.996 21.646 4.996 7.968 1.422 14.88 2.578 19.982 4.995 4.25 5.08 10.951 6.338 19.982 6.66 5.049 0 8.949-.524 13.321-1.665 7.677.369 15.473 0 24.977 0 6.162 7.209 7.586 9.862 18.316 9.991 7.338 5.154 13.527 6.035 19.982 8.326h24.977c8.928.687 11.789 4.35 19.981 6.661 8.114 3.767 15.721 6.35 21.647 8.326 5.891 1.281 13.574 1.665 21.646 1.665 6.183 3.175 13.609 3.459 18.317 6.661 6.89 1.476 16.302 3.214 21.647 4.995 8.816 1.168 12.187 3.942 19.981 4.995 6.703 1.915-2.224 3.56-6.66 4.995-9.827-.364-10.537-3.946-19.982-4.995-5.023-2.938-12.639-2.548-19.981-4.995h-1.666c6.6 3.904 12.948 6.422 9.991 13.321-8.492 0-15.367-1.098-23.312-1.665-8.384-1.616-12.226-3.33-21.646-3.33 9.395-2.264 11.855.27 18.316 3.33 2.396 8.059-2.725 4.995-11.656 4.995-7.608-2.731-12.173-5.984-21.647-6.66h-19.981c9.89.366 11.977 4.099 18.316 8.326.518 2.59-.132 2.472-4.995 3.33-5.16-4.478-11.889-6.013-19.982-8.326-7.879-.281-16.217-.966-23.311-3.33-4.867-.304-4.116-6.178 6.66 3.33 6.533 3.843 8.833 6.946 8.326 9.991-8.576-2.144-12.825-5.58-18.317-8.326-7.736-2.855-14.128-3.33-23.312-3.33-8.609-2.266.894-3.573 6.661 4.995 12.379 8.768-1.633 5.006-6.661 3.33-7.507-2.145-15.284-5.185-21.646-6.66-5.046-1.442-9.441-2.855-14.986-3.33 8.631.785 11.571 3.823 14.986 9.991 8.755 6.031-.384 3.1-8.326 1.665-5.071-4.402-11.487-6.658-14.986-11.656-8.351-4.176-8.563-8.982-3.33 1.665 1.363 3.407 1.111 10.795 1.665 11.656-6.136-6.626-4.825-8.326-11.656-8.326-4.634-3.244-11.496-5.766-14.986-9.991-6.436-.603-6.842-2.899-13.321-4.995 5.341 6.274 12.389 12.479 16.651 18.316 7.597 4.242 9.7 8.061 14.986 11.656 2.14 3.638 7.904 6.656 1.665 1.665-7.144-7.043-12.46-8.67-23.312-13.321-6.149-4.959-8.37-7.045-14.986-11.656-9.003-2.904-5.508-4.543 0 4.995 6.318 5.769 11.169 12.23 16.652 16.651 3.767 4.907 10.136 10.118 14.986 13.321 1.501 2.252 5.991 2.664 0 3.33-5.091-4.598-12.398-7.531-18.317-11.656-8.302-2.342-12.191-6.653-18.316-11.656-3.9-5.85-10.382-10.381-14.986-14.986-9.631-3.769 1.899 3.637 4.995 8.326 2.153 6.069 4.788 11.035 6.661 16.651 2.78 5.561-8.47-1.327-11.656-3.33-7.321-4.157-12.674-6.937-21.647-8.326-5.98-1.3-13.602-2.468-19.982-3.33-7.614-2.05 4.042 4.801 8.326 11.656 8.418 7.908-8.332 1.425-13.321 0-8.223-1.645-16.287-1.665-24.977-1.665-10.67.628-3.05 1.946 0 6.66 3.287 2.528 5.637 7.854 4.995 9.991-7.032-.95-13.025-3.022-21.646-3.33-6.962 2.321-15.345 1.665-23.312 1.665-.381 4.191 1.444.655 4.995 4.995 5.763 2.341 9.585 5.178 8.326 8.326h-48.289c-5.29 1.448 1.14.704 5 6.664-2.161 5.402-4.95 3.33-11.656 3.33-4.545-1.818-13.598-2.636-18.317-4.995-4.689 0-4.336-1.222-8.325-1.665 14.035 9.928 7.073 7.45 14.986 14.986 1.367.456 4.524 1.665 1.665 1.665" transform="matrix(.22 0 0 .214 279.879 157.485)" stroke="#772600" stroke-width="3.5" fill="none"/><path d="M371.32 73.265c-.997 0-3.199-5.375-6.66-9.991-2.327-6.049-5.392-2.588-8.326-11.656.348-9.402.684-11.094 0-19.982-6.863-4.783-9.714-6.271-14.986-14.986-8.46-7.079 1.236-19.063 2.845-27.849-7.375-1.639-11.001 11.476-22.341 16.193-8.155 5.492-.911-11.354-4.891-21.188-2.775-13.872-10.826 6.956-13.911 12.862-5.467 3.717-7.128 8.541-14.986 1.665 0-5.145 4.937-19.489 2.845-22.279-7.814 3.814-18.087 15.49-26.157 17.283-8.131-1.768 1.769-14.828 1.769-24.518-2.937-.979-14.695 25.756-19.519 26.003-4.824.247-2.713-25.993-4.972-25.428-3.542 4.959-10.649 15.429-15.576 18.948-9.454-1.22 1.398-17.435 2.845-23.427 1.629-7.168-8.904 13.751-14.501 15.102-4.101 3.554-12.237 6.072-14.986 6.661 3.239-6.132 19.076-18.713 17.935-22.279-9.21.341-23.311 12.557-31.256 13.953-5.192 0-12.388 1.758-13.321 1.665.448-7.926 19.418-14.65 22.445-19.465-9.306 1.494-27.186 9.706-32.436 16.135-6.145 1.336-13.943 3.02-19.982 0 .897-7.475 14.856-21.998 17.936-26.758-8.396 3.698-12.642 6.59-21.647 8.326-1.652 1.652-6.524 5.231-4.995 1.665 2.655-6.945 6.675-10.11 9.99-14.986-7.45 1.364-10.28 5.634-18.316 9.991-5.094.222-19.646 14.854-24.596 15.102-11.449 8.382-16.009 9.807-28.307 13.321-7.587 1.355-11.259 2.934-14.986 6.661 3.796-6.688 9.597-13.093 14.986-16.651 3.676-5.567 7.121-10.195 14.986-13.321 1.897-2.318 7.188-2.905 1.665-3.33-4.746 4.237-12.696 8.966-16.651 11.656-5.101 3.207-11.01 6.481-13.321 4.996 2.617-7.198 7.436-8.902 11.656-14.986 8.809-5.606.042-1.915-6.66 0-4.338 3.866-12.122 6.726-18.316 9.991-7.114 1.856-11.704 6.132-19.982 8.326 0 2.375 2.365-4.248 3.33-6.66 6.831-7.409 8.657-9.476 16.651-11.656 1.912-2.867 4.419-1.665-1.665-1.665-4.514 4.023-10.811 6.212-16.651 9.991-5.891 1.281-13.574 1.665-21.647 1.665-10.355 1.243-9.46 2.025 0-3.33 5.357-5.042 9.769-3.775 9.991-9.991-6.255 4.532-13.869 7.86-21.647 11.656-6.434.189-8.134 1.665-14.986 1.665 3.298-3.416 5.277-7.634 9.991-9.991 6.896-7.662-4.377-1.477-6.66 0h-24.977c-4.465 5.582-.229.051 3.33-3.33 4.306-2.239 8.756-5.154 8.326-6.661-4.972 4.315-10.726 6.298-14.986 9.991-4.639 1.392-9.991 2.084-9.991 3.33 3.627-5.346 9.525-8.576 13.321-13.321 5.612-1.22 10.396-2.935 11.656-4.995h-6.661000000000001c8.399 0 15.628-.75 23.312-1.665 13.263-2.211-1.159-3.33-8.326-3.33-1.39-2.548 4.112-3.988 9.991-4.996 5.024-2.38 11.233-4.493 16.651-6.66 5.256-1.433 12.706-5.809 13.321-6.66l-9.991 1.665c7.447-.573 12.8-1.665 21.647-1.665 8.028-2.58 14.906-5.411 21.647-8.326 2.936-3.589 4.239-3.33-3.33-3.33 6.713-2.158 16.238-3.193 21.647-4.995 7.872-1.687 14.899-4.253 19.982-6.661 4.876-3.315 7.689-7.175 13.321-9.99 6.527 4.438 6.601 4.995 18.317 4.995 9.409-.112 15.171-2.373 19.981-6.661 7.207-1.965 8.482-5.429 16.651-6.66 7.444 1.329 15.029 1.665 23.312 1.665 8.096-2.12 15.677-6.011 21.647-9.991 5.093-2.502 11.139-6.121 16.651-8.326 6.07 3.133 10.843 5.651 18.317 6.661 7.727-1.149 11.746-4.869 18.316-6.661 3.577-4.329 8.777-6.632 14.986-8.325 9.671-4.748 8.913 1.574 13.321 6.66 4.895 5.133 11.373 2.681 18.317 4.996 3.83 5.893 6.646 9.914 11.656 13.321 3.889 4.708 8.508 6.034 16.651 6.66 2.967 3.957.601 6.811 6.661 8.326 2.388 2.529 6.518 3.606 9.99 4.995" transform="matrix(.22 0 0 .214 279.879 157.485)" stroke="#772600" stroke-width="3.5" fill="none"/><path d="M468.74 30.803v.833c0-2.327-.103-1.091 1.665 3.33.595 3.641-.809 3.219-2.498 5.828-.286 3.723-.832 6.4-.832 10.823-.537 3.612-2.571 7.04-4.163 9.991-1.604 3.132-8.555 4.869-8.326 9.158-3.99 1.14-4.084-1.444-4.162-5.828-2.386-2.727-3.212-6.467-4.996-9.991-1.108-3.476-3.469-6.032-4.995-9.991-2.459-3.786-4.546-4.875-6.661-9.158-.826-2.066-.682-4.618-2.497-5.828-2.72-3.438-4.489-3.99-9.159-4.163-3.592.845-4.971 2.416-8.325 3.33-2.57.857-7.57.581-10.824 1.665-.808 1.314 1.6 1.941 2.498 4.995-2.135 1.764-2.926 4.883-4.163 7.493-1.965 2.486-3.283 3.705-4.163 7.493 1.363 2.316.201 5.386-1.665 7.493-.574 3.864-2.434 5.873-3.33 9.158-2.686 1.827-3.652 3.538-5.828 6.66-1.914 2.679-3.636 2.498-8.326 2.498-3.667-1-4.181-2.988-7.493-4.163-.352-1.056-.608-1.313-1.665-1.665" transform="matrix(.22 0 0 .214 279.879 157.485)" stroke="#782600" stroke-width="3.125" fill="none"/><path d="M362.028 171.38s-.366 3.327-2.931 5.545l-7.876 4.806s7.143-2.834 7.876-2.218c.733.616-4.579 5.545-4.579 5.545s6.96-5.175 7.876-5.175 2.931 5.052 3.663 4.929c.733-.123-1.648-6.408-1.282-7.393.366-.986 0-6.284 0-6.284l-2.747.246z" fill-rule="evenodd" fill="#812e00"/><path d="M378.526 170.912s-.366 3.552-2.931 5.92l-7.876 5.13s7.143-3.026 7.876-2.368c.733.658-4.579 5.919-4.579 5.919s6.96-5.525 7.876-5.525 2.931 5.393 3.663 5.262c.733-.132-1.648-6.84-1.282-7.893.366-1.052 0-6.709 0-6.709l-2.747.263z" fill-rule="evenodd" fill="#812e00"/><path d="M355.504 138.689c0 .662-.778 1.199-1.738 1.199s-1.738-.537-1.738-1.199.778-1.199 1.738-1.199 1.738.537 1.738 1.199z" fill-rule="evenodd" fill="#812e00"/></g></g></g></svg>