<svg xmlns="http://www.w3.org/2000/svg" id="flag-icon-css-ec" width="512" height="512">
  <g fill-rule="evenodd" stroke-width="1pt">
    <path fill="#ffe800" d="M0 0h512v511.98H0z"/>
    <path fill="#00148e" d="M0 256h512v255.98H0z"/>
    <path fill="#da0010" d="M0 384h512v128H0z"/>
  </g>
  <g fill-rule="evenodd">
    <path d="M213.47 244.16l-54.66 57.73-.96-1.24 54.66-57.73.96 1.24zm38.08 9.43L180.02 329l-1.26-1.19 71.54-75.4 1.25 1.18z"/>
    <path fill="gray" stroke="#000" stroke-width="4.1" d="M478.35 60.24v88.58l17.72 88.58 17.71-88.58V60.24h-35.43z" transform="matrix(-.052 -.05 -.067 .068 210.06 348.86)"/>
    <path fill="gray" stroke="#000" stroke-width="4.1" d="M478.35 60.24v88.58l17.72 88.58 17.71-88.58V60.24h-35.43z" transform="matrix(-.052 -.05 -.067 .068 191.62 319.4)"/>
  </g>
  <path fill="#ffdf00" fill-rule="evenodd" stroke="#000" stroke-width="1pt" d="M301.18 272.84s-17.72 336.61 53.15 336.61 106.3-35.43 106.3-35.43l-.86-185.03-158.59-116.15z" transform="matrix(.34 0 0 .486 64.65 -20.46)"/>
  <path fill="#0000c4" fill-rule="evenodd" stroke="#000" stroke-width="1pt" d="M344.46 304.2c0 17.72-7.85 269.82 27.59 269.82s88.58-17.72 88.58-17.72l-.86-167.3-115.31-84.8z" transform="matrix(.34 0 0 .486 64.65 -20.46)"/>
  <path fill="#e10000" fill-rule="evenodd" stroke="#000" stroke-width="1pt" d="M367.52 321.16c0 17.72 4.53 217.42 39.96 217.42h53.15l-.86-149.59-92.25-67.83z" transform="matrix(.34 0 0 .486 64.65 -20.46)"/>
  <path fill-rule="evenodd" d="M165.66 112.22l54.66 57.73.96-1.24-54.66-57.73-.96 1.24z"/>
  <path fill="#ffdf00" fill-rule="evenodd" stroke="#000" stroke-width="1pt" d="M301.18 272.84s-35.43 336.61 70.87 336.61c88.58 0 88.58-53.15 106.3-53.15l-17.72-124.02-159.45-159.44z" transform="matrix(.44 0 0 .465 17.3 16.97)"/>
  <g stroke="#000">
    <path fill="none" stroke-width="2.31" d="M269.59 155.24c1.13 0 28.32-94.02 118.94-147.25" transform="matrix(.29 -.02 -.038 .265 112.02 135.87)"/>
    <path fill="#005b00" fill-rule="evenodd" stroke-width="1pt" d="M421.37-20.33c0 18.14-4.57 31.72-11.33 45.31-5.62-18.12-9.06-27.17-9.06-45.3s6.83-35.12 12.46-48.71c2.23 12.46 7.93 30.57 7.93 48.7z" transform="matrix(.105 -.166 .22 .105 142.77 218.9)"/>
    <path fill="red" fill-rule="evenodd" stroke-width="1pt" d="M454.22-169.28c0 4.07-3.8 7.36-8.5 7.36s-8.5-3.3-8.5-7.36 3.81-7.36 8.5-7.36 8.5 3.3 8.5 7.36z" transform="matrix(.137 -.076 .067 .132 144.08 218.38)"/>
    <path fill="#005b00" fill-rule="evenodd" stroke-width="1pt" d="M421.37-20.33c0 18.14-4.57 31.72-11.33 45.31-5.62-18.12-9.06-27.17-9.06-45.3s6.83-35.12 12.46-48.71c2.23 12.46 7.93 30.57 7.93 48.7z" transform="matrix(.133 .09 -.096 .25 146.64 97.41)"/>
    <path fill="#005b00" fill-rule="evenodd" stroke-width="1pt" d="M421.37-20.33c0 18.14-4.57 31.72-11.33 45.31-5.62-18.12-9.06-27.17-9.06-45.3s6.83-35.12 12.46-48.71c2.23 12.46 7.93 30.57 7.93 48.7z" transform="matrix(.132 -.023 -.023 .245 145.37 144.86)"/>
    <path fill="#005b00" fill-rule="evenodd" stroke-width="1pt" d="M421.37-20.33c0 18.14-4.57 31.72-11.33 45.31-5.62-18.12-9.06-27.17-9.06-45.3s6.83-35.12 12.46-48.71c2.23 12.46 7.93 30.57 7.93 48.7z" transform="matrix(.048 .19 -.13 .146 182.1 58.96)"/>
    <path fill="#005b00" fill-rule="evenodd" stroke-width="1pt" d="M421.37-20.33c0 18.14-4.57 31.72-11.33 45.31-5.62-18.12-9.06-27.17-9.06-45.3s6.83-35.12 12.46-48.71c2.23 12.46 7.93 30.57 7.93 48.7z" transform="matrix(.156 -.14 .14 .178 123.44 206.61)"/>
    <path fill="#005b00" fill-rule="evenodd" stroke-width="1pt" d="M421.37-20.33c0 18.14-4.57 31.72-11.33 45.31-5.62-18.12-9.06-27.17-9.06-45.3s6.83-35.12 12.46-48.71c2.23 12.46 7.93 30.57 7.93 48.7z" transform="matrix(.164 -.17 .19 .153 112.35 237.57)"/>
    <path fill="#005b00" fill-rule="evenodd" stroke-width="1pt" d="M421.37-20.33c0 18.14-4.57 31.72-11.33 45.31-5.62-18.12-9.06-27.17-9.06-45.3s6.83-35.12 12.46-48.71c2.23 12.46 7.93 30.57 7.93 48.7z" transform="matrix(.194 .072 -.145 .24 108.73 136.1)"/>
    <path fill="#005b00" fill-rule="evenodd" stroke-width="1pt" d="M421.37-20.33c0 18.14-4.57 31.72-11.33 45.31-5.62-18.12-9.06-27.17-9.06-45.3s6.83-35.12 12.46-48.71c2.23 12.46 7.93 30.57 7.93 48.7z" transform="matrix(.114 .158 -.242 .167 144.75 102.65)"/>
    <path fill="#005b00" fill-rule="evenodd" stroke-width="1pt" d="M421.37-20.33c0 18.14-4.57 31.72-11.33 45.31-5.62-18.12-9.06-27.17-9.06-45.3s6.83-35.12 12.46-48.71c2.23 12.46 7.93 30.57 7.93 48.7z" transform="matrix(.06 .066 -.102 .123 199.23 102.12)"/>
    <path fill="#005b00" fill-rule="evenodd" stroke-width="1pt" d="M421.37-20.33c0 18.14-4.57 31.72-11.33 45.31-5.62-18.12-9.06-27.17-9.06-45.3s6.83-35.12 12.46-48.71c2.23 12.46 7.93 30.57 7.93 48.7z" transform="matrix(.08 .004 -.06 .13 189.73 127.6)"/>
    <path fill="#005b00" fill-rule="evenodd" stroke-width="1pt" d="M421.37-20.33c0 18.14-4.57 31.72-11.33 45.31-5.62-18.12-9.06-27.17-9.06-45.3s6.83-35.12 12.46-48.71c2.23 12.46 7.93 30.57 7.93 48.7z" transform="matrix(-.007 .11 -.103 .062 226.93 85.88)"/>
    <path fill="#005b00" fill-rule="evenodd" stroke-width="1pt" d="M421.37-20.33c0 18.14-4.57 31.72-11.33 45.31-5.62-18.12-9.06-27.17-9.06-45.3s6.83-35.12 12.46-48.71c2.23 12.46 7.93 30.57 7.93 48.7z" transform="matrix(.05 .087 -.19 .115 176.6 111.9)"/>
    <path fill="#005b00" fill-rule="evenodd" stroke-width="1pt" d="M421.37-20.33c0 18.14-4.57 31.72-11.33 45.31-5.62-18.12-9.06-27.17-9.06-45.3s6.83-35.12 12.46-48.71c2.23 12.46 7.93 30.57 7.93 48.7z" transform="matrix(.098 .168 -.252 .15 166.29 77.57)"/>
    <path fill="none" stroke-width="2.37" d="M269.59 155.24c1.13 0 28.32-94.02 118.94-147.25" transform="matrix(.266 -.148 .107 .21 94.38 196.6)"/>
    <path fill="red" fill-rule="evenodd" stroke-width="1pt" d="M454.22-169.28c0 4.07-3.8 7.36-8.5 7.36s-8.5-3.3-8.5-7.36 3.81-7.36 8.5-7.36 8.5 3.3 8.5 7.36z" transform="matrix(.137 -.076 .067 .132 161.24 194.18)"/>
    <path fill="red" fill-rule="evenodd" stroke-width="1pt" d="M454.22-169.28c0 4.07-3.8 7.36-8.5 7.36s-8.5-3.3-8.5-7.36 3.81-7.36 8.5-7.36 8.5 3.3 8.5 7.36z" transform="matrix(.137 -.076 .067 .132 169.37 189.38)"/>
    <path fill="red" fill-rule="evenodd" stroke-width="1pt" d="M454.22-169.28c0 4.07-3.8 7.36-8.5 7.36s-8.5-3.3-8.5-7.36 3.81-7.36 8.5-7.36 8.5 3.3 8.5 7.36z" transform="matrix(.14 -.08 .05 .1 135.93 200.28)"/>
    <path fill="red" fill-rule="evenodd" stroke-width="1pt" d="M454.22-169.28c0 4.07-3.8 7.36-8.5 7.36s-8.5-3.3-8.5-7.36 3.81-7.36 8.5-7.36 8.5 3.3 8.5 7.36z" transform="matrix(.14 -.08 .05 .1 138.28 199.26)"/>
    <path fill="red" fill-rule="evenodd" stroke-width="1pt" d="M454.22-169.28c0 4.07-3.8 7.36-8.5 7.36s-8.5-3.3-8.5-7.36 3.81-7.36 8.5-7.36 8.5 3.3 8.5 7.36z" transform="matrix(.14 -.08 .05 .1 136.93 201.45)"/>
    <path fill="red" fill-rule="evenodd" stroke-width="1pt" d="M454.22-169.28c0 4.07-3.8 7.36-8.5 7.36s-8.5-3.3-8.5-7.36 3.81-7.36 8.5-7.36 8.5 3.3 8.5 7.36z" transform="matrix(.152 -.084 .074 .147 144.92 210.72)"/>
    <path fill="red" fill-rule="evenodd" stroke-width="1pt" d="M454.22-169.28c0 4.07-3.8 7.36-8.5 7.36s-8.5-3.3-8.5-7.36 3.81-7.36 8.5-7.36 8.5 3.3 8.5 7.36z" transform="matrix(.152 -.084 .074 .147 146.66 208.93)"/>
    <path fill="red" fill-rule="evenodd" stroke-width="1pt" d="M454.22-169.28c0 4.07-3.8 7.36-8.5 7.36s-8.5-3.3-8.5-7.36 3.81-7.36 8.5-7.36 8.5 3.3 8.5 7.36z" transform="matrix(.152 -.084 .074 .147 147.1 209.79)"/>
  </g>
  <path fill="#0000c4" fill-rule="evenodd" stroke="#000" stroke-width="1pt" d="M336.61 308.27c0 17.72-35.43 212.6 53.15 265.75 35.43 17.72 88.58-17.72 88.58 0l-17.7-141.74L336.6 308.27z" transform="matrix(.44 0 0 .465 17.3 16.97)"/>
  <path fill="#e10000" fill-rule="evenodd" stroke="#000" stroke-width="1pt" d="M372.05 343.7c0 17.72-17.72 159.45 35.43 194.88 35.44 35.43 124.02 25.82 124.02 25.82l-70.87-132.12-88.58-88.58z" transform="matrix(.44 0 0 .465 17.3 16.97)"/>
  <path fill-rule="evenodd" d="M148.79 143.96l71.53 75.41 1.26-1.19-71.54-75.4-1.25 1.18z"/>
  <path fill="#cececc" fill-rule="evenodd" stroke="#000" stroke-width="1pt" d="M460.63 184.25l17.72 35.43v17.72c-.87-1.3 0 17.72-17.72 17.72s-17.72-35.44-17.72-35.44-17.71 35.44-17.71 70.87 17.71 53.15 17.71 53.15-2.6-36.7 17.72-35.43c20.33 1.27 17.72 17.71 17.72 17.71v35.43h17.71V219.68l17.72-35.43-27.14-53.15-26.01 53.15z" transform="matrix(.102 -.107 .08 .082 75.2 169.68)"/>
  <path fill="#cececc" fill-rule="evenodd" stroke="#000" stroke-width="1pt" d="M557.82 95.67l-26.32 70.86 17.71 53.15-35.43-17.71 35.44 53.15v35.43h17.71v-35.43l35.43-53.15-35.43 17.72 17.72-53.15-26.83-70.87z" transform="matrix(.08 -.12 .105 .07 96.06 163.4)"/>
  <path fill="#e10000" fill-rule="evenodd" stroke="#000" stroke-width="1pt" d="M422.53 136.96c0 2.07-1.96 3.75-4.37 3.75s-4.37-1.68-4.37-3.75 1.96-3.75 4.37-3.75 4.37 1.68 4.37 3.75zm-6.24 7.91c0 35.8 20.91 187.81 22.58 191.56.14 4.44-4.72 6.38-7.08.83-6.55-17.34-20.74-159.9-21.33-193.22-.25-13.73 3.76-14.8 8.32-14.57 3.76.21 8.33 3.73 8.33 7.91 0 5-5.83 8.74-10.82 7.5z" transform="matrix(.303 0 0 .234 43.05 77.33)"/>
  <path fill="#0000c4" fill-rule="evenodd" stroke="#000" stroke-width="1pt" d="M422.53 136.96c0 2.07-1.96 3.75-4.37 3.75s-4.37-1.68-4.37-3.75 1.96-3.75 4.37-3.75 4.37 1.68 4.37 3.75zm-6.24 7.91c31.48 61.41 48.72 166.77 50.38 170.52.14 4.44-4.72 6.38-7.07.83-2.48-3.31-12.67-100.18-49.14-172.18-.25-13.73 3.76-14.8 8.32-14.57 3.76.21 8.33 3.73 8.33 7.91 0 5-5.83 8.74-10.83 7.5z" transform="matrix(.285 .07 -.114 .22 67.43 53.45)"/>
  <path fill="#e10000" fill-rule="evenodd" stroke="#000" stroke-width="1pt" d="M422.53 136.96c0 2.07-1.96 3.75-4.37 3.75s-4.37-1.68-4.37-3.75 1.96-3.75 4.37-3.75 4.37 1.68 4.37 3.75zm-6.24 7.91c0 35.8 20.91 187.81 22.58 191.56.14 4.44-4.72 6.38-7.08.83-6.55-17.34-20.74-159.9-21.33-193.22-.25-13.73 3.76-14.8 8.32-14.57 3.76.21 8.33 3.73 8.33 7.91 0 5-5.83 8.74-10.82 7.5z" transform="matrix(.387 0 0 .38 -8.55 87.34)"/>
  <path fill="#0000c4" fill-rule="evenodd" stroke="#000" stroke-width="1pt" d="M422.53 136.96c0 2.07-1.96 3.75-4.37 3.75s-4.37-1.68-4.37-3.75 1.96-3.75 4.37-3.75 4.37 1.68 4.37 3.75zm-6.24 7.91c31.48 61.41 48.72 166.77 50.38 170.52.14 4.44-4.72 6.38-7.07.83-2.48-3.31-12.67-100.18-49.14-172.18-.25-13.73 3.76-14.8 8.32-14.57 3.76.21 8.33 3.73 8.33 7.91 0 5-5.83 8.74-10.83 7.5z" transform="matrix(.365 .112 -.145 .36 22.6 48.48)"/>
  <g fill-rule="evenodd">
    <path d="M289.63 244.16l54.66 57.73.97-1.24-54.66-57.73-.97 1.24zm-38.08 9.43L323.09 329l1.25-1.19-71.53-75.4-1.26 1.18z"/>
    <path fill="gray" stroke="#000" stroke-width="4.1" d="M478.35 60.24v88.58l17.72 88.58 17.71-88.58V60.24h-35.43z" transform="matrix(.052 -.05 .067 .068 293.04 348.86)"/>
    <path fill="gray" stroke="#000" stroke-width="4.1" d="M478.35 60.24v88.58l17.72 88.58 17.71-88.58V60.24h-35.43z" transform="matrix(.052 -.05 .067 .068 311.49 319.4)"/>
  </g>
  <g fill-rule="evenodd" stroke-width="1pt">
    <path fill="#ffdf00" stroke="#000" d="M301.18 272.84s-17.72 336.61 53.15 336.61 106.3-35.43 106.3-35.43l-.86-185.03-158.59-116.15z" transform="matrix(-.34 0 0 .486 438.46 -20.46)"/>
    <path fill="#0000c4" stroke="#000" d="M344.46 304.2c0 17.72-7.85 269.82 27.59 269.82s88.58-17.72 88.58-17.72l-.86-167.3-115.31-84.8z" transform="matrix(-.34 0 0 .486 438.46 -20.46)"/>
    <path fill="#e10000" stroke="#000" d="M367.52 321.16c0 17.72 4.53 217.42 39.96 217.42h53.15l-.86-149.59-92.25-67.83z" transform="matrix(-.34 0 0 .486 438.46 -20.46)"/>
    <path d="M337.45 112.22l-54.66 57.73-.96-1.24 54.66-57.73.96 1.24z"/>
    <g fill="#005b00" stroke="#000">
      <path d="M428.17-16.93s81.56 90.62 111.01 154.05c29.45 63.43 54.37 156.32 54.37 156.32s2.27-86.08-36.25-163.1C505.2 32.9 425.9-12.4 428.17-16.94z" transform="matrix(.124 -.056 .06 .266 243.64 183.89)"/>
      <path d="M428.17-16.93s81.56 90.62 111.01 154.05c29.45 63.43 54.37 156.32 54.37 156.32s2.27-86.08-36.25-163.1C505.2 32.9 425.9-12.4 428.17-16.94z" transform="matrix(.148 -.04 .052 .294 230.03 162.45)"/>
      <path d="M428.17-16.93s81.56 90.62 111.01 154.05c29.45 63.43 54.37 156.32 54.37 156.32s2.27-86.08-36.25-163.1C505.2 32.9 425.9-12.4 428.17-16.94z" transform="matrix(.175 .107 -.022 .3 233.8 77.03)"/>
      <path d="M428.17-16.93s81.56 90.62 111.01 154.05c29.45 63.43 54.37 156.32 54.37 156.32s2.27-86.08-36.25-163.1C505.2 32.9 425.9-12.4 428.17-16.94z" transform="matrix(.186 .023 .012 .333 217.13 111.38)"/>
      <path d="M428.17-16.93s81.56 90.62 111.01 154.05c29.45 63.43 54.37 156.32 54.37 156.32s2.27-86.08-36.25-163.1C505.2 32.9 425.9-12.4 428.17-16.94z" transform="matrix(.136 .126 -.028 .268 259.09 75.2)"/>
      <path d="M428.17-16.93s81.56 90.62 111.01 154.05c29.45 63.43 54.37 156.32 54.37 156.32s2.27-86.08-36.25-163.1C505.2 32.9 425.9-12.4 428.17-16.94z" transform="matrix(.17 0 .026 .304 221.8 131.72)"/>
      <path d="M428.17-16.93s81.56 90.62 111.01 154.05c29.45 63.43 54.37 156.32 54.37 156.32s2.27-86.08-36.25-163.1C505.2 32.9 425.9-12.4 428.17-16.94z" transform="matrix(.15 -.054 .05 .29 229.01 173.21)"/>
      <path d="M428.17-16.93s81.56 90.62 111.01 154.05c29.45 63.43 54.37 156.32 54.37 156.32s2.27-86.08-36.25-163.1C505.2 32.9 425.9-12.4 428.17-16.94z" transform="matrix(.15 -.025 .038 .298 230.93 150.53)"/>
      <path d="M428.17-16.93s81.56 90.62 111.01 154.05c29.45 63.43 54.37 156.32 54.37 156.32s2.27-86.08-36.25-163.1C505.2 32.9 425.9-12.4 428.17-16.94z" transform="matrix(.168 .115 -.038 .285 240.29 74.1)"/>
      <path d="M428.17-16.93s81.56 90.62 111.01 154.05c29.45 63.43 54.37 156.32 54.37 156.32s2.27-86.08-36.25-163.1C505.2 32.9 425.9-12.4 428.17-16.94z" transform="matrix(.184 .04 -.004 .333 220.51 98.36)"/>
      <path d="M428.17-16.93s81.56 90.62 111.01 154.05c29.45 63.43 54.37 156.32 54.37 156.32s2.27-86.08-36.25-163.1C505.2 32.9 425.9-12.4 428.17-16.94z" transform="matrix(.128 .128 -.043 .25 265.86 77.48)"/>
      <path d="M428.17-16.93s81.56 90.62 111.01 154.05c29.45 63.43 54.37 156.32 54.37 156.32s2.27-86.08-36.25-163.1C505.2 32.9 425.9-12.4 428.17-16.94z" transform="matrix(.18 .01 .006 .31 218.66 121.27)"/>
    </g>
    <path fill="#ffdf00" stroke="#000" d="M301.18 272.84s-35.43 336.61 70.87 336.61c88.58 0 88.58-53.15 106.3-53.15l-17.72-124.02-159.45-159.44z" transform="matrix(-.44 0 0 .465 485.82 16.97)"/>
    <path fill="#0000c4" stroke="#000" d="M336.61 308.27c0 17.72-35.43 212.6 53.15 265.75 35.43 17.72 88.58-17.72 88.58 0l-17.7-141.74L336.6 308.27z" transform="matrix(-.44 0 0 .465 485.82 16.97)"/>
    <path fill="#e10000" stroke="#000" d="M372.05 343.7c0 17.72-17.72 159.45 35.43 194.88 35.44 35.43 124.02 25.82 124.02 25.82l-70.87-132.12-88.58-88.58z" transform="matrix(-.44 0 0 .465 485.82 16.97)"/>
    <path d="M354.33 143.96l-71.54 75.41-1.25-1.19 71.53-75.4 1.26 1.18z"/>
    <path fill="#cececc" stroke="#000" d="M460.63 184.25l17.72 35.43v17.72c-.87-1.3 0 17.72-17.72 17.72s-17.72-35.44-17.72-35.44-17.71 35.44-17.71 70.87 17.71 53.15 17.71 53.15-2.6-36.7 17.72-35.43c20.33 1.27 17.72 17.71 17.72 17.71v35.43h17.71V219.68l17.72-35.43-27.14-53.15-26.01 53.15z" transform="matrix(-.102 -.107 -.08 .082 427.91 169.68)"/>
    <path fill="#cececc" stroke="#000" d="M557.82 95.67l-26.32 70.86 17.71 53.15-35.43-17.71 35.44 53.15v35.43h17.71v-35.43l35.43-53.15-35.43 17.72 17.72-53.15-26.83-70.87z" transform="matrix(-.08 -.12 -.105 .07 407.06 163.4)"/>
    <path fill="#e10000" stroke="#000" d="M422.53 136.96c0 2.07-1.96 3.75-4.37 3.75s-4.37-1.68-4.37-3.75 1.96-3.75 4.37-3.75 4.37 1.68 4.37 3.75zm-6.24 7.91c0 35.8 20.91 187.81 22.58 191.56.14 4.44-4.72 6.38-7.08.83-6.55-17.34-20.74-159.9-21.33-193.22-.25-13.73 3.76-14.8 8.32-14.57 3.76.21 8.33 3.73 8.33 7.91 0 5-5.83 8.74-10.82 7.5z" transform="matrix(-.303 0 0 .234 460.08 77.33)"/>
    <path fill="#0000c4" stroke="#000" d="M422.53 136.96c0 2.07-1.96 3.75-4.37 3.75s-4.37-1.68-4.37-3.75 1.96-3.75 4.37-3.75 4.37 1.68 4.37 3.75zm-6.24 7.91c31.48 61.41 48.72 166.77 50.38 170.52.14 4.44-4.72 6.38-7.07.83-2.48-3.31-12.67-100.18-49.14-172.18-.25-13.73 3.76-14.8 8.32-14.57 3.76.21 8.33 3.73 8.33 7.91 0 5-5.83 8.74-10.83 7.5z" transform="matrix(-.285 .07 .114 .22 435.68 53.45)"/>
    <path fill="#e10000" stroke="#000" d="M422.53 136.96c0 2.07-1.96 3.75-4.37 3.75s-4.37-1.68-4.37-3.75 1.96-3.75 4.37-3.75 4.37 1.68 4.37 3.75zm-6.24 7.91c0 35.8 20.91 187.81 22.58 191.56.14 4.44-4.72 6.38-7.08.83-6.55-17.34-20.74-159.9-21.33-193.22-.25-13.73 3.76-14.8 8.32-14.57 3.76.21 8.33 3.73 8.33 7.91 0 5-5.83 8.74-10.82 7.5z" transform="matrix(-.387 0 0 .38 511.65 87.34)"/>
    <path fill="#0000c4" stroke="#000" d="M422.53 136.96c0 2.07-1.96 3.75-4.37 3.75s-4.37-1.68-4.37-3.75 1.96-3.75 4.37-3.75 4.37 1.68 4.37 3.75zm-6.24 7.91c31.48 61.41 48.72 166.77 50.38 170.52.14 4.44-4.72 6.38-7.07.83-2.48-3.31-12.67-100.18-49.14-172.18-.25-13.73 3.76-14.8 8.32-14.57 3.76.21 8.33 3.73 8.33 7.91 0 5-5.83 8.74-10.83 7.5z" transform="matrix(-.365 .112 .145 .36 480.49 48.48)"/>
  </g>
  <g fill-rule="evenodd" stroke="#000" stroke-width="1pt">
    <path fill="#e10000" d="M478.35 698.03c17.72 10.65 37.09 8.27 53.15 0V556.3h-35.43c17.71 53.15 17.71 106.3-17.72 141.73z" transform="matrix(.44 0 0 .465 17.3 16.97)"/>
    <path fill="#0000c4" d="M513.78 609.45c0 88.58-42.47 108.27-42.47 125.98 17.72 0 29.47-8.25 42.47-19.68 17.72-17.72 19.43-107.68 17.72-106.3h-17.72z" transform="matrix(.265 0 0 .524 103.23 -43.23)"/>
    <path fill="#0000c4" d="M478.35 609.45c-.81 51.77-44.8 99.64-36.5 110.24 9.48 9.47 36.5-21.65 71.93-3.94 17.72-17.71 19.43-107.68 17.72-106.3h-53.15z" transform="matrix(.265 0 0 .524 103.23 -43.23)"/>
    <path fill="#ffdf00" d="M513.78 609.45c0 88.58-40.7 94.47-40.7 118.09 17.72 0 40.6-12.91 40.7-11.79 17.72-17.72 19.43-107.68 17.72-106.3h-17.72z" transform="matrix(.265 0 0 .35 94.95 63.15)"/>
    <path fill="#ffdf00" d="M478.35 609.45c-.81 51.77-43.73 95.7-35.43 106.3 9.47 9.47 35.43-17.72 70.86 0 17.72-17.72 19.43-107.68 17.72-106.3h-53.15z" transform="matrix(.265 0 0 .35 94.95 63.15)"/>
    <path fill="#e10000" d="M478.35 698.03c17.72 10.65 37.09 8.25 53.15-.01V556.3h-35.43c17.71 53.15 17.71 106.3-17.72 141.72z" transform="matrix(-.44 0 0 .465 485.82 16.97)"/>
    <path fill="#0000c4" d="M513.78 609.45c0 88.58-42.47 108.27-42.47 125.98 17.72 0 29.47-8.25 42.47-19.68 17.72-17.72 19.43-107.68 17.72-106.3h-17.72z" transform="matrix(-.265 0 0 .524 399.89 -43.22)"/>
    <path fill="#0000c4" d="M478.35 609.45c-.81 51.77-44.8 99.64-36.5 110.24 9.48 9.47 36.5-21.65 71.93-3.94 17.72-17.71 19.43-107.68 17.72-106.3h-53.15z" transform="matrix(-.265 0 0 .524 399.89 -43.22)"/>
    <path fill="#ffdf00" d="M513.78 609.45c0 88.58-40.7 94.47-40.7 118.09 17.72 0 40.6-12.91 40.7-11.79 17.72-17.72 19.43-107.68 17.72-106.3h-17.72z" transform="matrix(-.265 0 0 .35 408.17 63.15)"/>
    <path fill="#ffdf00" d="M478.35 609.45c-.81 51.77-43.73 95.7-35.43 106.3 9.47 9.47 35.43-17.72 70.86 0 17.72-17.72 19.43-107.68 17.72-106.3h-53.15z" transform="matrix(-.265 0 0 .35 408.17 63.15)"/>
  </g>
  <g fill-rule="evenodd" stroke="#000">
    <path fill="#908f8a" stroke-width="4.47" d="M198.56 77.95l-89.68 35.44 89.68 35.43 44.84-17.72 22.42 17.72 22.42 35.43 22.42-35.43 22.41-17.72h1201.9V95.67H333.07l-22.42-17.72c0-17.71 4.7-35.43 22.42-35.43h89.68c0-17.72-44.84-53.15-134.51-53.15-89.68 0-134.51 35.43-134.51 53.15h89.67c17.72 0 22.42 17.71 22.42 35.43l-22.44 17.72-44.84-17.72z" transform="matrix(.09 0 0 .17 174.42 269.46)"/>
    <path fill="#b74d00" stroke-width="1.84" d="M204.35 95.67h336.61v17.72H204.35zM204.35 77.95h336.61v17.72H204.35zm0-17.71h336.61v17.71H204.35zM204.35 42.52h336.61v17.72H204.35zm0-17.72h336.61v17.72H204.35z" transform="matrix(.21 0 0 .207 173.1 277.19)"/>
    <path fill="#b74d00" stroke-width="1.84" d="M204.35 7.09h336.61v17.72H204.35zm0-17.72h336.61V7.1H204.35z" transform="matrix(.21 0 0 .207 173.1 277.19)"/>
    <path fill="#908f8a" stroke-width="3.25" d="M423.23 60.24l137.8 124.02h19.69L442.92 60.24h-19.69z" transform="matrix(.19 0 0 .207 139.76 262.53)"/>
    <path fill="#908f8a" stroke-width="3.25" d="M423.23 60.24l137.8 124.02h19.69L442.92 60.24h-19.69z" transform="matrix(.19 0 0 -.207 139.76 313.11)"/>
    <path fill="#908f8a" stroke-width="3.09" d="M425.2 60.24v124.02h17.72V60.24H425.2z" transform="matrix(.21 0 0 .207 130.46 262.53)"/>
    <path fill="#908f8a" stroke-width="3.25" d="M423.23 60.24l137.8 124.02h19.69L442.92 60.24h-19.69z" transform="matrix(.19 0 0 .207 173.23 262.53)"/>
    <path fill="#908f8a" stroke-width="3.25" d="M423.23 60.24l137.8 124.02h19.69L442.92 60.24h-19.69z" transform="matrix(.19 0 0 -.207 173.23 313.11)"/>
    <path fill="#908f8a" stroke-width="3.09" d="M425.2 60.24v124.02h17.72V60.24H425.2z" transform="matrix(.21 0 0 .207 189.96 262.53)"/>
    <path fill="#908f8a" stroke-width="3.09" d="M425.2 60.24v124.02h17.72V60.24H425.2z" transform="matrix(.21 0 0 .207 163.93 262.53)"/>
    <path fill="#908f8a" stroke-width="3.09" d="M425.2 60.24v124.02h17.72V60.24H425.2z" transform="matrix(.21 0 0 .207 156.49 262.53)"/>
  </g>
  <g fill="#ffdf00" fill-rule="evenodd" stroke="#000" stroke-width="1pt">
    <path d="M655.51 396.85c0 88.02-55.56 159.45-124.02 159.45s-124.02-71.43-124.02-159.45c0-88.02 55.56-159.45 124.02-159.45s124.02 71.43 124.02 159.45zm-17.72 0c0 78.24-47.62 141.73-106.3 141.73-58.67 0-106.3-63.5-106.3-141.73 0-78.24 47.63-141.73 106.3-141.73 58.68 0 106.3 63.5 106.3 141.73z" transform="matrix(.44 0 0 .465 17.3 16.97)"/>
    <path d="M579.75 249.94c-14.84-8.07-31.14-12.54-48.26-12.54s-33.42 4.47-48.26 12.54l6.9 16.32c12.71-7.17 26.7-11.14 41.36-11.14s28.65 3.97 41.37 11.14l6.89-16.32z" transform="matrix(.44 0 0 .465 17.3 16.97)"/>
    <path d="M579.75 249.94c-14.84-8.07-31.14-12.54-48.26-12.54s-33.42 4.47-48.26 12.54l6.9 16.32c12.71-7.17 26.7-11.14 41.36-11.14s28.65 3.97 41.37 11.14l6.89-16.32z" transform="matrix(.44 0 0 -.465 17.39 386.41)"/>
  </g>
  <path fill="#a7cfff" fill-rule="evenodd" d="M297.93 201.5c0 36.4-20.94 65.9-46.77 65.9-25.83 0-46.78-29.5-46.78-65.9 0-36.4 20.94-65.9 46.78-65.9 25.83 0 46.77 29.5 46.77 65.9z"/>
  <path fill="#afff7b" fill-rule="evenodd" stroke="#000" stroke-width="1pt" d="M637.8 396.85c1.13 26.66-4.63 39.63-11.89 67.36-1.91 2.98-10.97-6.54-16.45-11.24s-7.8 4.24-14.53-3.05c-6.73-7.28-11.05 2.06-15.99-4.1s-51.3-7.05-51.36-7.58c4.59-2.27 28.27.15 24.47-11.19-4.3-11.72-31.1-.35-34.69-15.36-2.44-14.91-53.57-15.55-57.22-19.23 1.45 5.67 39.73 8.05 38.82 22.57-.84 5.92-37.7 7.65-41.25 12.65-3.05 6.3 28.93-1.7 30.11 6.03-.07 3.19-4.7.07-21.35 5-8.33 2.46 15.45 10.33 6.4 14.63-9.04 4.31-28.25 6.19-27.43 8 2.94 8.9 44.7 19.54 40.54 21.07-14.76 6.55-22.55 10.87-29.63 14.65-19.24-25.66-31.15-61.09-31.15-100.2 31.72-11.4 24.97-13.74 83.65-13.74s77.98 2.33 128.95 13.74z" transform="matrix(.44 0 0 .465 17.3 16.97)"/>
  <path fill="#fff" fill-rule="evenodd" stroke="#000" stroke-width="1pt" d="M637.8 396.85c-8.07 0-16.45 3.4-25.07 3.4-8.62 0-17.47-3.4-26.47-3.4s-19.28 4.53-28.5 4.53c-9.23 0-17.4-4.53-26.68-4.53-9.3 0-18.57 3.4-27.76 3.4s-18.29-3.4-27.22-3.4-17.69 3.4-26.2 3.4-16.77-3.4-24.7-3.4c0-19.56 2.98-38.2 8.36-55.15 27.08 2 11.04-15.72 27.08-15.72 8.65 0 17.43 1.86 25.23 9.8 2.45 0 14.48-11.38 27.92-9.8 13.43 1.59 8.49 27.28 26.37 28.64 9.06 6.8 14.39 11.13 26.78 13.87 17.71 1.6 68.35-2.5 68.7-.2a188.21 188.21 0 0 1 2.16 28.56z" transform="matrix(.44 0 0 .465 17.3 16.97)"/>
  <path fill-rule="evenodd" stroke="#000" stroke-width="1pt" d="M549.85 473.94c0-5.66 13.51-9.46 13.51-18.52s-11.91-9.35-12.38-17.86c-.2-3.46 10.32-7.05 14.92-7.34s8.49 7.42 8.49 9.12-4.66-4.2-8.58-4.38-12.31.63-12.31 2.33c0 3.4 14.85 7.6 13.72 18.93-1.14 11.32-12.71 14.65-12.71 18.05s5.05 12.86 5.05 12.86-9.71-7.53-9.71-13.19z" transform="matrix(.155 0 0 .363 173.98 69.56)"/>
  <path fill-rule="evenodd" stroke="#000" stroke-width="1pt" d="M549.85 473.94c0-5.66 13.51-9.46 13.51-18.52s-11.95-9.35-12.38-17.86c-.94-3.97 11.82-6.55 16.41-6.84s9.99 7.92 9.99 9.62-5.41-5.2-9.33-5.38-14.55.63-14.55 2.33c0 3.4 14.85 7.6 13.72 18.93-1.14 11.32-12.71 14.65-12.71 18.05s5.05 12.86 5.05 12.86-9.71-7.53-9.71-13.19z" transform="matrix(-.155 0 0 .363 346.52 69.27)"/>
  <path fill-rule="evenodd" d="M261.34 224.54c0 1.01-.5 1.82-1.1 1.82-.6 0-1.1-.8-1.1-1.82s.5-1.82 1.1-1.82c.6 0 1.1.82 1.1 1.82zm14.1 5.42h.36v14.71h-.36zm3.18-1.12h.35v14.72h-.35z"/>
  <path fill-rule="evenodd" d="M276.15 236.91v-.37l3 .52v.37z"/>
  <path fill="#b74d00" fill-rule="evenodd" stroke="#000" stroke-width="1pt" d="M497.26 478.07s26.05 11.33 31.72 18.12c5.66 6.8 3.4 6.8 3.4 6.8l57.76 2.27c0-3.4 10.2-3.4 12.46-11.33 2.27-7.93 2.27-10.2 2.27-10.2l-18.12 5.67 1.13-10.2h-15.86l-2.27 10.2-33.98-1.13 2.27-27.2-6.8 1.14-1.13 26.05c-1.14 0-31.72-7.93-32.85-10.2z" transform="matrix(.44 0 0 .465 15.3 17.5)"/>
  <path fill="#fede00" fill-rule="evenodd" stroke="#fede00" stroke-width="1pt" d="M440.53 316.28s37.65-11.21 92.11-10.41 92.11 12.81 91.31 12.81-10.41-18.42-10.41-18.42-38.45-10.41-81.7-11.21c-43.25-.8-80.9 8-80.1 8.8l-11.21 18.43z" transform="matrix(.44 0 0 .465 17.3 16.97)"/>
  <path fill="#38a9f9" fill-rule="evenodd" d="M241.04 152.85l10.23-.2.1 5.96-10.23.2zm-23.62 3.25l-3.61 5.87 12.2-1.5-.98-5.88-7.61 1.5zm10.4-2.26l10.2-.9.47 5.94-10.2.9zm36.86-.61l-10.22-.69-.36 5.95 10.22.69zm22.02 3.73l3.71 7.32-11.05-2.73 1.23-5.82 6.11 1.23zm-8.86-2.12l-10.15-1.38-.72 5.91 10.15 1.38z"/>
  <path fill="#ffdf00" fill-rule="evenodd" stroke="#000" stroke-width="1pt" d="M532.64 323.49l-2.58-13.47-7.54 11.46 2.77-13.43-11.34 7.7 7.7-11.35-13.43 2.78 11.45-7.54-13.47-2.58 13.47-2.58-11.45-7.53 13.43 2.77-7.7-11.35 11.34 7.7-2.77-13.43 7.54 11.46 2.58-13.47 2.57 13.47 7.54-11.46-2.77 13.43 11.35-7.7-7.71 11.35 13.44-2.77-11.46 7.53 13.47 2.58-13.47 2.58 11.46 7.54-13.44-2.78 7.71 11.35-11.35-7.7 2.77 13.43-7.54-11.46z" transform="matrix(.44 0 0 .465 17.3 16.97)"/>
  <path fill="#ffdf00" fill-rule="evenodd" stroke="#000" stroke-width="1pt" d="M547.05 293.86c0 9.29-6.63 16.82-14.82 16.82s-14.82-7.53-14.82-16.82 6.64-16.82 14.82-16.82 14.82 7.53 14.82 16.82z" transform="matrix(.43 0 0 .388 23.81 41.07)"/>
  <path fill-rule="evenodd" d="M252.06 153.38c0 .4-.95.74-2.12.74s-2.12-.33-2.12-.74.95-.75 2.12-.75 2.12.33 2.12.74zm4.59 0c0 .4-.71.74-1.59.74s-1.59-.33-1.59-.75c0-.4.71-.74 1.59-.74s1.59.33 1.59.74z"/>
  <path fill="none" stroke="#000" stroke-width="1pt" d="M529.43 297.86l.8.8c-1.9-1.9-1-1.13 1.6 3.2 2.4-.5 3.1-1.39 4.8-2.4" transform="matrix(.423 -.132 .125 .446 -10.14 93.05)"/>
  <path fill="none" stroke="#000" stroke-width="1pt" d="M527.83 304.27l.8.8c-1.9-1.9-1.12-1 3.2 1.6 4.03.55 8.1-1.2 10.42-4" transform="matrix(.44 0 0 .465 16.59 16.97)"/>
  <path fill="#b7e1ff" fill-rule="evenodd" d="M223.46 170.74s.7 5.96-3.87 13.41c-4.59 7.45-3.88 4.84-3.88 4.84s2.11 4.1 1.76 4.1-3.52-3.73-3.52-3.73l-3.88 4.1s3.52-6.33 3.17-6.33-1.06-2.23-1.06-2.23l2.82-1.12s4.23-7.82 4.23-7.45-12.69 8.57-12.69 8.57l16.92-14.16zm2.82 2.24c-.35 0 1.76 5.96 3.53 8.94 1.76 2.98 1.76 6.7 1.76 6.7l5.99 2.98-7.75-11.54 4.93 1.86-8.46-8.94zm0 15.64s4.23 4.47 4.58 5.96.36 4.84.36 4.84l-1.76-3.72-2.47 3.35s1.76-5.21 1.4-5.59-2.81 1.87-2.81 1.87 1.05-2.98 1.05-3.36 0-2.23-.35-3.35zm-21.14 10.43c1.4-1.12 4.23-1.87 4.23-1.87s-1.77 2.98-2.12 2.98-1.4 0-2.11-1.11zm48.63-16.39s9.16 5.59 9.16 5.96-5.99-2.6-5.99-2.6l-3.17-3.36zm-16.56-11.54c.7.37 13.39 10.8 13.04 10.8s-5.64-2.98-5.64-2.61v2.6l-2.82-5.95-.7 2.23-3.88-7.07zm3.17 16.75l3.52 7.08 3.52-.75s-6.7-6.33-7.04-6.33zm10.93-4.47c0 1.12.35 6.7.35 6.7s2.11 1.87 2.11 1.5-2.11-7.82-2.46-8.2z"/>
  <path fill="#984000" fill-rule="evenodd" d="M147.85 92.22s15.84-8.76 33.87-15.29c18.03-6.53 38.25-10.81 40.92-10.81 5.35 0 14.5 13.42 16.03 13.42 1.53 0 7.63-3.73 15.26-3.73s12.21 5.97 13.74 5.97h13.74c1.52 0-4.58-14.92 0-14.17 2.29.37 21.75 3.35 39.87 9.23 18.13 5.87 43.86 16.24 43.86 16.24s-42.05 5.61-53.2 3.95c-1.53.75-.08 9.86-2.22 5.85-3.51-.8-16.4-2.81-18.7-2.81s-6.56 2.59-12.66 4.08a373.6 373.6 0 0 0-13.74 3.73l9.92 15.66-12.2 5.96s-7.64-17.9-10.7-17.9-4.57 12.68-8.39 11.93c-3.81-.74-5.34-11.93-8.4-14.9-3.05-2.99-19.14-4.08-25.25-5.57-6.1-1.49-15.96-2.64-21.3-4.13-5.34-1.5-10.68 3.73-12.97 3.73-2.29 0 3.05-4.48.76-5.22s-3.81 2.23-5.34 2.23c-1.53 0-17.55-2.98-19.08-3.73-1.52-.74 3.82-3.72 2.3-3.72h-6.11z"/>
  <path fill="gray" fill-rule="evenodd" stroke="#772600" stroke-width="3.71" d="M462.91-64.94c0 21.15-20.5 38.3-45.79 38.3s-45.8-17.15-45.8-38.3 20.5-38.3 45.8-38.3 45.79 17.15 45.79 38.3z" transform="matrix(.165 0 0 .2 184.85 97.5)"/>
  <path fill="#984000" fill-rule="evenodd" stroke="#772600" stroke-width="5.25" d="M284.74-59.95c6.66-6.65 14.99-16.64 36.63-16.64 5-1.67 5-11.66 16.65-11.66 11.66 0 8.33 9.99 16.66 13.32 8.32 3.33 76.6-3.33 76.6-3.33s6.65 5 6.65 11.66-5 11.65-6.66 11.65-68.27-5-73.26-3.33c-5 1.67-8.33 3.33-19.99 3.33-11.65 0-14.98-11.65-23.3-11.65-8.33 0-16.66-1.67-29.98 6.66z" transform="matrix(.206 0 0 .24 165.05 100.62)"/>
  <path fill="none" stroke="#772600" stroke-width="3.5" d="M487.88-76.6h26.64c9.57.12 12.88 3 21.65 3.33h23.3c8.49-.31 12.96-2.3 21.66-3.33 14.5-.17 9.55-1.3 6.66-9.99-2.63-6.56-2.95-9.6-6.66-13.32-1.4-7.94-4.66-10.77-5-19.98-1.53-7.03-4.34-11.75-1.66-19.98 3.84 5.65 5.38 7.97 14.98 8.32 10.05 0 13.94-.2 19.98 3.33 4.67 4.9 10.89 3.33 19.99 3.33 7.67 1.41 8.96 5.32 14.98 8.33 7.1 3.94 11.7 5 21.65 5 7.97 1.42 14.88 2.57 19.98 4.99 4.25 5.08 10.95 6.34 19.98 6.66 5.05 0 8.95-.52 13.32-1.66 7.68.37 15.47 0 24.98 0 6.16 7.2 7.59 9.86 18.32 9.99 7.33 5.15 13.52 6.03 19.98 8.32h24.97c8.93.69 11.8 4.35 19.98 6.66a200.86 200.86 0 0 0 21.65 8.33c5.9 1.28 13.58 1.66 21.65 1.66 6.18 3.18 13.6 3.46 18.31 6.66 6.9 1.48 16.3 3.22 21.65 5 8.82 1.17 12.19 3.94 19.98 5 6.7 1.9-2.22 3.55-6.66 4.99-9.82-.36-10.53-3.95-19.98-5-5.02-2.94-12.64-2.54-19.98-5h-1.67c6.6 3.91 12.95 6.43 10 13.33-8.5 0-15.37-1.1-23.32-1.67-8.38-1.61-12.22-3.33-21.64-3.33 9.4-2.26 11.85.27 18.31 3.33 2.4 8.06-2.72 5-11.65 5-7.61-2.73-12.18-5.98-21.65-6.66h-19.98c9.89.37 11.97 4.1 18.31 8.33.52 2.59-.13 2.47-5 3.33-5.15-4.48-11.88-6.02-19.97-8.33-7.88-.28-16.22-.97-23.31-3.33-4.87-.3-4.12-6.18 6.66 3.33 6.53 3.84 8.83 6.95 8.32 9.99-8.57-2.14-12.82-5.58-18.32-8.32-7.73-2.86-14.12-3.33-23.3-3.33-8.62-2.27.89-3.58 6.65 4.99 12.38 8.77-1.63 5-6.66 3.33-7.5-2.14-15.28-5.18-21.64-6.66-5.05-1.44-9.44-2.85-14.99-3.33 8.63.79 11.57 3.82 14.99 9.99 8.75 6.03-.39 3.1-8.33 1.67-5.07-4.4-11.49-6.66-14.99-11.66-8.35-4.18-8.56-8.98-3.33 1.67 1.37 3.4 1.11 10.79 1.67 11.65-6.14-6.62-4.83-8.32-11.66-8.32-4.63-3.25-11.5-5.77-14.98-10-6.44-.6-6.84-2.9-13.32-4.99 5.34 6.27 12.39 12.48 16.65 18.32 7.6 4.24 9.7 8.06 14.98 11.65 2.14 3.64 7.9 6.66 1.67 1.67-7.14-7.05-12.46-8.67-23.31-13.32-6.15-4.96-8.37-7.05-14.99-11.66-9-2.9-5.5-4.54 0 5 6.32 5.77 11.17 12.23 16.65 16.65 3.77 4.9 10.14 10.12 14.99 13.32 1.5 2.25 5.99 2.66 0 3.33-5.1-4.6-12.4-7.53-18.32-11.66-8.3-2.34-12.19-6.65-18.31-11.65-3.9-5.85-10.39-10.38-15-14.99-9.62-3.77 1.9 3.64 5 8.33 2.16 6.06 4.8 11.03 6.66 16.65 2.78 5.56-8.47-1.33-11.65-3.33-7.32-4.16-12.67-6.94-21.65-8.33-5.98-1.3-13.6-2.47-19.98-3.33-7.61-2.05 4.04 4.8 8.33 11.66 8.41 7.9-8.34 1.42-13.32 0-8.23-1.65-16.3-1.67-24.98-1.67-10.67.63-3.05 1.95 0 6.66 3.29 2.53 5.64 7.86 5 10-7.04-.96-13.03-3.03-21.65-3.34-6.96 2.32-15.35 1.67-23.31 1.67-.38 4.19 1.44.65 5 5 5.75 2.33 9.58 5.17 8.32 8.32h-48.29c-5.29 1.45 1.14.7 5 6.66-2.16 5.4-4.95 3.33-11.65 3.33-4.55-1.81-13.6-2.63-18.32-5-4.7 0-4.34-1.21-8.33-1.66 14.04 9.93 7.08 7.45 14.99 14.99 1.37.46 4.52 1.66 1.66 1.66m-109.9 53.28c-1 0-3.2-5.37-6.66-9.99-2.33-6.05-5.4-2.59-8.33-11.65.35-9.4.69-11.1 0-19.98-6.86-4.79-9.71-6.27-14.98-14.99-8.46-7.08 1.23-19.06 2.84-27.85-7.37-1.64-11 11.48-22.34 16.2-8.15 5.49-.9-11.36-4.89-21.2-2.77-13.87-10.82 6.96-13.9 12.87-5.48 3.72-7.14 8.54-15 1.66 0-5.14 4.94-19.49 2.85-22.28-7.82 3.82-18.09 15.5-26.16 17.29-8.13-1.77 1.77-14.83 1.77-24.52-2.94-.98-14.7 25.75-19.52 26s-2.71-26-4.97-25.43c-3.54 4.96-10.65 15.43-15.58 18.95-9.45-1.22 1.4-17.43 2.85-23.43 1.63-7.16-8.9 13.75-14.5 15.1-4.1 3.56-12.24 6.08-14.99 6.67 3.24-6.13 19.08-18.72 17.94-22.28-9.21.34-23.31 12.55-31.26 13.95-5.19 0-12.39 1.76-13.32 1.66.45-7.92 19.42-14.65 22.45-19.46-9.31 1.5-27.2 9.7-32.44 16.13-6.15 1.34-13.95 3.02-19.98 0 .9-7.47 14.85-22 17.93-26.75-8.4 3.7-12.64 6.59-21.65 8.32-1.65 1.65-6.52 5.23-4.99 1.67 2.66-6.95 6.68-10.11 9.99-14.99-7.45 1.36-10.28 5.63-18.32 10-5.09.21-19.64 14.85-24.6 15.1-11.44 8.38-16 9.8-28.3 13.31C65.67-15.3 62-13.72 58.27-10c3.8-6.68 9.6-13.09 15-16.65 3.67-5.56 7.11-10.2 14.98-13.32 1.9-2.32 7.18-2.9 1.66-3.33-4.74 4.24-12.7 8.97-16.65 11.66-5.1 3.2-11 6.48-13.32 5 2.62-7.2 7.44-8.9 11.66-15 8.8-5.6.04-1.9-6.66 0-4.34 3.88-12.13 6.73-18.32 10-7.11 1.86-11.7 6.13-19.98 8.33 0 2.37 2.36-4.25 3.33-6.66 6.83-7.41 8.66-9.48 16.65-11.66 1.91-2.87 4.42-1.66-1.66-1.66-4.52 4.02-10.81 6.2-16.65 9.98-5.9 1.29-13.58 1.67-21.65 1.67-10.36 1.24-9.46 2.03 0-3.33 5.35-5.04 9.77-3.77 9.99-9.99C10.39-40.43 2.78-37.1-5-33.3c-6.43.19-8.13 1.66-14.98 1.66 3.3-3.41 5.27-7.63 9.99-9.99 6.9-7.66-4.38-1.48-6.66 0h-24.98c-4.46 5.58-.23.05 3.33-3.33 4.3-2.24 8.76-5.15 8.33-6.66-4.98 4.31-10.73 6.3-14.99 10-4.64 1.38-9.99 2.07-9.99 3.32 3.63-5.35 9.52-8.58 13.32-13.32 5.61-1.22 10.4-2.94 11.66-5H-53.3h16.65c8.4 0 15.63-.75 23.32-1.66 13.26-2.21-1.16-3.33-8.33-3.33-1.39-2.55 4.11-3.99 10-5 5.01-2.38 11.22-4.49 16.64-6.66 5.26-1.43 12.7-5.8 13.32-6.66-5.01.27-4.97 1.4-9.99 1.67 7.45-.57 12.8-1.67 21.65-1.67 8.03-2.58 14.9-5.4 21.65-8.32 2.93-3.6 4.24-3.33-3.33-3.33 6.7-2.16 16.23-3.2 21.64-5a94.07 94.07 0 0 0 19.98-6.66c4.88-3.31 7.7-7.17 13.32-9.99 6.53 4.44 6.6 5 18.32 5 9.41-.12 15.17-2.38 19.98-6.66 7.21-1.97 8.49-5.43 16.65-6.66 7.45 1.32 15.03 1.66 23.32 1.66 8.1-2.12 15.67-6.01 21.64-9.99 5.1-2.5 11.14-6.12 16.65-8.33 6.07 3.14 10.85 5.65 18.32 6.66 7.73-1.14 11.75-4.86 18.32-6.66 3.58-4.33 8.78-6.63 14.99-8.32 9.67-4.75 8.9 1.57 13.32 6.66 4.9 5.13 11.37 2.68 18.31 5 3.83 5.89 6.65 9.9 11.66 13.31 3.89 4.71 8.5 6.04 16.65 6.66 2.97 3.96.6 6.82 6.66 8.33 2.39 2.53 6.52 3.6 10 5" transform="matrix(.206 0 0 .24 165.05 103.83)"/>
  <path fill="none" stroke="#782600" stroke-width="3.13" d="M468.74 30.8v.84c0-2.33-.1-1.1 1.67 3.33.59 3.64-.81 3.22-2.5 5.82-.29 3.73-.83 6.4-.83 10.83-.54 3.6-2.57 7.04-4.17 9.99-1.6 3.13-8.55 4.87-8.32 9.16-4 1.14-4.09-1.45-4.17-5.83-2.38-2.73-3.2-6.47-5-10-1.1-3.47-3.46-6.02-4.99-9.98-2.46-3.79-4.54-4.88-6.66-9.16-.82-2.07-.68-4.62-2.5-5.83-2.71-3.44-4.48-3.99-9.15-4.16-3.6.84-4.97 2.41-8.33 3.33-2.57.85-7.57.58-10.82 1.66-.81 1.32 1.6 1.94 2.5 5-2.14 1.76-2.93 4.88-4.17 7.5-1.96 2.48-3.28 3.7-4.16 7.49 1.36 2.31.2 5.38-1.67 7.49-.57 3.86-2.43 5.87-3.33 9.16-2.68 1.82-3.65 3.54-5.82 6.66-1.92 2.68-3.64 2.5-8.33 2.5-3.67-1-4.18-3-7.5-4.17-.34-1.05-.6-1.31-1.66-1.66" transform="matrix(.206 0 0 .24 165.05 103.83)"/>
  <path fill="#812e00" fill-rule="evenodd" d="M242.23 119.4s-.34 3.74-2.75 6.23-7.4 5.4-7.4 5.4 6.71-3.18 7.4-2.5c.68.7-4.3 6.24-4.3 6.24s6.53-5.82 7.4-5.82 2.74 5.68 3.43 5.54c.69-.14-1.55-7.2-1.2-8.3.34-1.12 0-7.07 0-7.07l-2.58.28zm15.47-.51s-.35 4-2.75 6.66-7.4 5.78-7.4 5.78 6.71-3.4 7.4-2.67c.68.74-4.3 6.67-4.3 6.67s6.53-6.22 7.4-6.22 2.74 6.07 3.43 5.92c.69-.15-1.55-7.7-1.2-8.89.34-1.18 0-7.55 0-7.55l-2.58.3zm-21.66-36.26c0 .74-.73 1.35-1.63 1.35s-1.63-.6-1.63-1.35.73-1.35 1.63-1.35 1.63.6 1.63 1.35z"/>
</svg>
