<svg xmlns="http://www.w3.org/2000/svg" height="512" width="512"><defs><clipPath id="a"><rect fill-opacity=".67" height="496.06" width="496.06" x="124.02"/></clipPath></defs><g fill-rule="evenodd" clip-path="url(#a)" transform="matrix(1.032 0 0 1.032 -128 0)"><rect height="166.54" width="744.09" y="162.99" fill="#fff"/><rect height="166.54" width="744.09" y="329.53"/><rect height="162.99" width="744.09" fill="#f00"/><g transform="translate(23.212 409.22)"><path d="M322.44-322.44h7.087l3.75 60.236-7.294 7.087-7.086-7.087 3.543-60.236z" transform="matrix(.606 -.032 .057 .759 164.05 95.207)" stroke="#fff" stroke-width="1pt" fill="#d7b900"/><path d="M322.44-322.44h7.087l3.75 60.236-7.294 7.087-7.086-7.087 3.543-60.236z" transform="matrix(.606 .023 -.041 .759 123.88 77.449)" stroke="#fff" stroke-width="1pt" fill="#d7b900"/><g stroke="#fff" stroke-width="4.824" fill="#d7b900"><path d="M398.314-203.655l4.73 84.153-9.461-6.732-4.73-77.421h9.461z"/><path d="M388.865-203.654l4.73 77.421-9.461-6.732-4.73-70.69h9.461z"/><path d="M379.413-203.643l4.731 70.69-9.461-6.732-4.731-63.956h9.461z"/><path d="M369.965-203.639l4.73 63.958-9.461-6.732-4.73-57.224h9.461z"/></g><g stroke="#fff" stroke-width="4.824" fill="#d7b900"><path d="M283.213-203.713l-4.199 84.153 8.398-6.732 4.199-77.421h-8.398z"/><path d="M291.623-203.712l-4.199 77.421 8.398-6.732 4.199-70.69h-8.398z"/><path d="M300.023-203.701l-4.199 70.69 8.398-6.732 4.199-63.956h-8.398z"/><path d="M308.792-202.811l-4.199 63.958 8.398-6.732 4.199-57.224h-8.398z"/></g><path d="M181.73 256.05c-1.004-1.312 19.847-18.646 55.28-18.646 53.15 0 61.307 18.646 96.741 18.646h152.02c35.433 0 45.723-18.646 98.872-18.646 35.433 0 52.168 18.293 53.149 18.646 0 0-17.716-.93-53.149-.93s-49.3 39.04-85.052 38.222c-26.788.818-144.23 0-179.66 0-35.433 0-47.486-37.292-82.92-37.292-35.433 0-56.284-1.312-55.28 0z" transform="matrix(.256 0 0 .19 236.01 -252.36)" stroke="#d7b900" stroke-width="4.824" fill="#fff"/><path d="M400.39-109.84v3.543l3.543 3.543-3.543 3.543v3.543c-14.174 7.087-28.849 7.087-42.52 7.087-13.67 0-28.346 0-46.063-7.087v-3.543l-3.543-3.543 3.543-3.543v-3.543c14.173 3.543 28.347 7.086 46.063 7.086 17.717 0 28.347-3.543 42.52-7.086z" transform="matrix(1.323 0 0 1.204 -129.91 19.854)" stroke="#d7b900" stroke-width="1pt" fill="#fff"/><g transform="matrix(-1.063 .285 .305 .992 760.82 -100.29)" stroke="#d7b900" fill="#fff"><rect transform="matrix(-.564 -.826 -.888 .459 0 0)" rx="2.395" ry="4.505" height="40.13" width="4.789" y="-406.53" x="-73.159"/><g><path d="M385.002-129.014l.939 8.38-5.262-5.12.939 8.38-5.262-5.12.939 8.38c-2.291-3.108-4.871-8.068-6.377-13.924 1.996-8.594 6.184-11.149 13.284-9.408 2.307 3.919 4.55 8.843 6.201 13.5l-5.401-5.067z"/><path d="M381.729-136.123l.939 8.38-5.262-5.12.939 8.38-5.262-5.12.939 8.38c-2.291-3.108-4.871-8.068-6.377-13.924 1.996-8.594 6.184-11.149 13.284-9.408 2.307 3.919 4.55 8.843 6.201 13.5l-5.401-5.067z"/><path d="M378.455-143.233l.939 8.38-5.262-5.12.939 8.38-5.262-5.12.939 8.38c-2.291-3.108-4.871-8.068-6.377-13.924 1.996-8.594 6.184-11.149 13.284-9.408 2.307 3.919 4.55 8.843 6.201 13.5l-5.401-5.067z"/><path d="M374.338-151.987l.939 8.38-5.262-5.12.939 8.38-5.262-5.12.939 8.38c-2.291-3.108-4.871-8.068-6.377-13.924 1.996-8.594 6.184-11.149 13.284-9.408 2.307 3.919 4.55 8.843 6.201 13.5l-5.401-5.067z"/><path d="M371.065-159.094l.939 8.38-5.262-5.12.939 8.38-5.262-5.12.939 8.38c-2.291-3.108-4.871-8.068-6.377-13.924 1.996-8.594 6.184-11.149 13.284-9.408 2.307 3.919 4.55 8.843 6.201 13.5l-5.401-5.067z"/><path d="M367.792-166.204l.939 8.38-5.262-5.12.939 8.38-5.262-5.12.939 8.38c-2.291-3.108-4.871-8.068-6.377-13.924 1.996-8.594 6.184-11.149 13.284-9.408 2.307 3.919 4.55 8.843 6.201 13.5l-5.401-5.067z"/></g><path d="M372.185-109.28c.954 2.161 1.17 4.344.483 4.876s-2.018-.789-2.973-2.95-1.17-4.344-.483-4.876 2.018.789 2.973 2.95z"/><path d="M386.245-116.423c.954 2.412 1.17 4.849.483 5.443s-2.018-.881-2.973-3.293-1.17-4.849-.483-5.443 2.018.881 2.973 3.293z"/><path d="M399.931-123.414c1.024 2.329 1.256 4.681.518 5.254s-2.167-.85-3.191-3.179-1.256-4.681-.518-5.254 2.167.85 3.191 3.179z"/></g><path d="M268.29 261.84s32.89-42.159 32.89-95.309c0 .001 70.866.001 70.866 0 0 53.15 34.308 95.309 35.434 88.584-17.717 0-53.15-17.717-70.866-53.15-17.716 35.434-50.608 59.875-68.324 59.875z" transform="matrix(.308 0 0 .19 235.41 -246.38)" stroke="#d7b900" stroke-width="4.824" fill="#fff"/><path d="M253.46 240.41s47.939-58.726 47.939-111.88v-74.584c0-17.717 23.97-18.646 35.955-18.646 17.717 0 35.954.929 35.954 18.646v74.584c0 53.149 47.94 111.88 47.94 111.88-35.433 0-54.193-39.151-71.909-74.584 0 17.717 4.993 53.862-12.724 71.579-17.716-17.717-11.246-53.862-11.246-71.579-17.717 35.433-36.475 74.584-71.909 74.584z" transform="matrix(.296 0 0 .19 239.56 -245.85)" stroke="#d7b900" stroke-width="4.824" fill="#fff"/><path d="M283.12 77.953h53.149c0 17.716 0 35.433-17.716 35.433-17.717 0-35.433-17.717-35.433-35.433z" transform="matrix(.242 .077 -.054 .118 258.11 -271.54)" stroke="#d7b900" stroke-width="5.909" fill="#fff"/><path d="M183.96 42.52c11.811 0 11.811 17.716 11.811 35.433-17.716 0-29.528-17.717-47.244 0 0-19.559 0-35.433 17.716-35.433h17.717z" transform="matrix(.363 .116 -.054 .118 267.48 -266.15)" stroke="#d7b900" stroke-width="4.824" fill="#fff"/><path d="M336.61 69.094c0 4.892-3.966 8.858-8.858 8.858s-8.858-3.966-8.858-8.858 3.966-8.858 8.858-8.858 8.858 3.966 8.858 8.858z" transform="matrix(.242 .077 -.081 .178 263.94 -273.76)" stroke="#d7b900" stroke-width="4.824" fill="#fff"/><path d="M322.44-322.44h7.087l3.75 60.236-7.294 7.087-7.086-7.087 3.543-60.236z" transform="matrix(.607 0 0 .76 141.13 85.239)" stroke="#fff" stroke-width="1pt" fill="#d7b900"/><g transform="matrix(1.159 .303 -.356 .987 -126.74 -108.64)" stroke="#d7b900" fill="#fff"><rect transform="matrix(-.564 -.826 -.888 .459 0 0)" rx="2.395" ry="4.505" height="40.13" width="4.789" y="-406.53" x="-73.159"/><g><path d="M385.002-129.014l.939 8.38-5.262-5.12.939 8.38-5.262-5.12.939 8.38c-2.291-3.108-4.871-8.068-6.377-13.924 1.996-8.594 6.184-11.149 13.284-9.408 2.307 3.919 4.55 8.843 6.201 13.5l-5.401-5.067z"/><path d="M381.729-136.123l.939 8.38-5.262-5.12.939 8.38-5.262-5.12.939 8.38c-2.291-3.108-4.871-8.068-6.377-13.924 1.996-8.594 6.184-11.149 13.284-9.408 2.307 3.919 4.55 8.843 6.201 13.5l-5.401-5.067z"/><path d="M378.455-143.233l.939 8.38-5.262-5.12.939 8.38-5.262-5.12.939 8.38c-2.291-3.108-4.871-8.068-6.377-13.924 1.996-8.594 6.184-11.149 13.284-9.408 2.307 3.919 4.55 8.843 6.201 13.5l-5.401-5.067z"/><path d="M374.338-151.987l.939 8.38-5.262-5.12.939 8.38-5.262-5.12.939 8.38c-2.291-3.108-4.871-8.068-6.377-13.924 1.996-8.594 6.184-11.149 13.284-9.408 2.307 3.919 4.55 8.843 6.201 13.5l-5.401-5.067z"/><path d="M371.065-159.094l.939 8.38-5.262-5.12.939 8.38-5.262-5.12.939 8.38c-2.291-3.108-4.871-8.068-6.377-13.924 1.996-8.594 6.184-11.149 13.284-9.408 2.307 3.919 4.55 8.843 6.201 13.5l-5.401-5.067z"/><path d="M367.792-166.204l.939 8.38-5.262-5.12.939 8.38-5.262-5.12.939 8.38c-2.291-3.108-4.871-8.068-6.377-13.924 1.996-8.594 6.184-11.149 13.284-9.408 2.307 3.919 4.55 8.843 6.201 13.5l-5.401-5.067z"/></g><path d="M372.185-109.28c.954 2.161 1.17 4.344.483 4.876s-2.018-.789-2.973-2.95-1.17-4.344-.483-4.876 2.018.789 2.973 2.95z"/><path d="M386.245-116.423c.954 2.412 1.17 4.849.483 5.443s-2.018-.881-2.973-3.293-1.17-4.849-.483-5.443 2.018.881 2.973 3.293z"/><path d="M399.931-123.414c1.024 2.329 1.256 4.681.518 5.254s-2.167-.85-3.191-3.179-1.256-4.681-.518-5.254 2.167.85 3.191 3.179z"/></g><g><path d="M301.18 290.55c0 194.88 35.433 177.17 106.3 248.03 70.866-70.866 106.3-53.15 106.3-248.03-35.434 0-70.867 0-106.3-17.716-35.432 17.716-70.866 17.716-106.3 17.716z" transform="matrix(.247 0 0 .19 238.604 -252.016)" stroke="#d7b900" stroke-width="4.824" fill="#fff"/><path d="M314.665-195.497c0 33.909 8.114 30.828 24.343 43.157 16.228-12.331 24.343-9.248 24.343-43.157-8.114 0-16.229 0-24.343-3.083-8.114 3.083-16.228 3.083-24.343 3.083z" fill="#d7b900"/><path d="M330.338-194.89v35.453l8.717 5.151 8.717-5.151v-35.453c-3.109-.391-6.11-1.1-8.703-1.915-2.883.868-5.82 1.551-8.73 1.915z" fill="#fff"/></g></g></g></svg>