<svg xmlns="http://www.w3.org/2000/svg" id="flag-icon-css-eh" width="512" height="512">
  <defs>
    <clipPath id="a">
      <path fill-opacity=".67" d="M0 0h512v512H0z"/>
    </clipPath>
  </defs>
  <g fill-rule="evenodd" clip-path="url(#a)">
    <path d="M-180 0H844v256H-180z"/>
    <path fill="#107b00" d="M-180 256H844v256H-180z"/>
    <path fill="#fff" d="M-180 169.31H844v176.13H-180z"/>
    <path fill="#f0f" d="M309.98 195.55c-45.2-19.42-84.1 20.64-84.06 58.09.04 39.15 38.02 80.92 86.17 62.43-34.1-10.04-48.16-35.22-48.15-60.68-.25-25.22 15.88-54.54 46.04-59.84z"/>
    <path fill="#ff1800" d="M363.14 294.21l-25.83-18.86-26 18.9 9.97-30.4-26-18.88 31.98.07 9.93-30.55 9.82 30.43h32.12l-25.93 18.74"/>
    <path fill="red" d="M314.34 315.65c-50.52 17.54-88.55-20.48-89.22-59.46-.66-38.97 37.6-79.16 89.48-60.86-29.36 4.35-50.92 30.08-51.17 59.17-.2 22 12.8 53.34 50.91 61.15zM-179.98 0l348.61 256.62L-180 512V2.62l.02-2.62z"/>
  </g>
</svg>
