<svg xmlns="http://www.w3.org/2000/svg" height="512" width="512"><defs><clipPath id="a"><rect fill-opacity=".67" height="512" width="512"/></clipPath></defs><g fill-rule="evenodd" clip-path="url(#a)"><g transform="translate(42)"><rect height="512" width="591.45" x="-90" fill="#be0027"/><path d="M-90 512l591.45-.32-.03-255.68-591.42 256z" fill="#b4d7f4"/><path d="M-90 0l591.45.321-.03 255.68-591.42-256z" fill="#239e46"/></g><path d="M148.76 351.44c-8.705 2.404-13.695 9.157-13.568 15.529l42.847-.172c.385-6.847-5.248-13.179-13.823-15.673 41.951-.867 78.396-16.581 85.018-26.663-6.554-2.844-14.131 1.733-19.533.68 12.825-5.928 51.251-30.799 45.004-57.462-4.856 14.81-19.567 27.063-25.833 30.353 14.354-21.796 33.954-44.487 16.949-62.059.859 10.184-6.472 21.393-9.709 22.235 8.326-23.029 16.271-51.944-1.77-71.005 2.369 6.889 1.412 26.324-1.85 27.197-1.004-15.66-3.677-48.598-20.169-48.13 5.238 4.663 7.53 17.39 7.646 30.245-3.759-8.806-8.03-15.437-17.166-21.94-7.391-14.174-20.541-25.918-33.692-34.331 1.476 10.317 2.698 18.457 17.103 29.157-7.51-.467-15.019-14.705-23.046-15.1-6.385-.308-11.395 5.785-21.828 2.279 1.155 3.444 6.023 4.969 7.05 7.517-2.235 1.543-7.54-.241-11.95-2.538 6.067 8.264 15.468 13.124 23.449 11.484 9.491-1.825 19.667-.86 29.373 4.663-2.479 1.273-12.127 1.265-18.319.49 5.628 5.698 9.403 9.475 19.189 9.413 8.741-.057 13.323-4.663 15.568-1.81 5.482 6.496 9.172 12.989 13.758 20.637-10.13 1.119-7.076-11.457-18.358-17.89-6.339 13.12 7.291 28.674 16.569 35.139.125 9.861 1.566 18.113 5.749 25.621 2.82 5.294 6.465 10.712 5.09 22.659-5.554-4.045-10.982-17.688-8.985-28.518-6.952 1.896-9.67 14.12-6.393 20.274 2.448 4.684 4.081 13.65 1.258 17.657-2.751 3.734-3.039 3.316-3.003 11.33.098 4.796-2.58 10.466-6.944 14.42.911-3.378 1.95-9.191.94-12.825-3.449 5.851-12.101 11.905-14.826 18.194-2.675 6.305-3.354 17.224-16.302 19.743-16.658 3.306-22.407 6.193-33.125 10.579-1.19-8.141 2.371-25.118 9.178-24.15 6.647 1.183 26.799-6.944 19.59-23.921-1.424 5.351-6.173 10.573-11.308 10.804 5.548-7.197 15.448-14.651 10.627-26.711-2.68 5.127-6.896 11.279-13.289 14.741 6.853-13.133.796-17.062-7.342-6.246-3.074 4.173-4.93 12.535-6.883 23.156-3.196-8.638-2.985-20.008-6.773-29.241-3.957-9.984 5.251-12.621 9.585-11.819 10.61 2.833 28.343 2.831 27.025-14.698-4.583 5.929-12.619 7.761-21.298 5.626 9.747-7.117 17.442-20.505 6.581-27.494-.362 7.412-6.098 15.722-13.756 19.549-1.792-6.254-1.792-12.891-.256-20.167-4.276 4.501-7.399 13.866-9.883 24.512-.187-10.523 1.804-18.106 3.28-23.767 2.238-8.269 7.8-2.889 16.315-2.279 8.2.465 19.49-4.066 17.333-15.186-2.8 4.399-8.547 6.111-14.42 5.646 7.07-4.283 19.387-11.893 12.632-23.6-2.838 4.434-3.757 8.226-11.97 9.586 2.151-4.948 2.508-11.944 8.883-14.716-11.372-2.264-17.883 5.199-21.193 16.887-1.342-8.104-2.939-11.087-3.257-17.015 6.147-6.827 6.791-20.183-6.518-23.17-.79 6.889-.555 8.531.958 14.141-6.247-3.711-15.052-5.759-20.914-.511 3.971 4.286 10.119 8.059 19.594 3.385-2.238 7.322-8.059 6.069-16.058 3.277 4.889 9.183 11.059 10.815 17.868 9.757 3.565 9.399 3.722 16.541-6.696 30.23.482-8.507-.123-14.844-6.881-21.722-5.792-5.672-10.499.242-1.448 12.853-5.49-4.044-11.705-12.25-13.576-20.455-1.81 10.137-.18 22.084 5.431 28.782-2.654 2.836-5.672-.301-10.137-7.24 1.689 22.205 11.162 26.49 23.894 21.54.362 12.188.362 23.473 1.086 38.196-7.424-10.679-16.835-18.645-22.086-20.636-1.629 5.974 4.527 13.756 7.966 18.101-5.249-1.086-16.654-9.775-16.654-9.775-1.147 9.896 11.647 19.068 19.913 23.17-9.714-.423-14-4.103-20.275-10.137.121 27.455 29.747 22.687 35.299 18.463.724 13.517 1.756 29.142 2.481 42.659-8.376-1.461-7.717-3.98-14.883-4.643-19.89-.775-35.668-23.876-40.893-40.87-1.499 2.797-.31 5.723-1.681 9.159-3.229-8.341-7.355-19.114-12.888-24.127 1.409 4.863 1.558 9.804 1.068 18.892-1.899-5.888-3.665-7.694-3.793-14.606.121-5.307 5.12-9.223 4.843-16.687-.205-5.449-5.176-17.261-5.906-26.404-2.407 9.411-3.917 19.331-7.604 25.158 1.832-10.05 1.244-16.985 4.343-23.749 3.58-7.12 6.624-13.477 4.24-20.664-2.286 2.775-1.499 5.297-7.242 12.041-1.247-7.333 7.425-19.071 15.842-23.79 5.936-3.128 13.418-14.315 8.544-21.982-5.582 4.009-8.089 9.426-15.974 18.681 5.625-21.987 20.239-27.74 37.736-27.815 3.872-.018 11.677-1.416 13.867-6.539-4.932 1.904-10.763 2.146-15.951 1.108 3.776-5.544 11.729-4.823 19.14-4.856 5.813-.028 14.888-.816 18.557-9.095-7.091 3.072-18.15 3.711-25.113 1.535 11.074-5.738 28.42-6.355 37.316-13.885-10.14-7.568-35.514 1.763-51.541 12.755 4.479-4.096 11.559-11.362 15.465-17.228-8.765-4.202-30.933 20.355-38.57 34.947-7.253 4.096-10.155 10.517-12.971 14.998 3.865-13.06 4.275-22.536 7.499-33.291-24.863 8.559-14.529 54.498-19.937 65.488.637-12.134.121-27.722-4.875-35.76-7.658 5.843-8.276 40.229-1.086 68.857-2.596-7.661-7.497-14.813-9.069-24.137-11.334 20.672 6.644 45.059 21.678 64.324-11.318-5.895-22.508-18.575-29.859-29.204 2.029 36.998 40.665 44.686 46.664 53.779-8.141-3.79-23.705-11.289-30.31-3.431 10.752 2.482 19.328 5.351 26.238 9.881 10.027 12.519 29.014 17.995 62.082 19.377z" fill="#f3e295"/></g></svg>