<?xml version="1.0" encoding="UTF-8"?>
<svg id="Layer_1" data-name="Layer 1" xmlns="http://www.w3.org/2000/svg" viewBox="0 0 450 450">
  <defs>
    <style>
      .cls-1 {
        fill: #f7d419;
      }

      .cls-2 {
        fill: #4169b2;
      }
    </style>
  </defs>
  <rect class="cls-2" width="452" height="450"/>
  <g>
    <path class="cls-1" d="M101.47,233.59l1.63,3.64-11.45,20.5-3.46,3.91h11.25l-1.83-4.38,2.17-3.91,7.79,6.88,7.72-6.88,2.17,3.91-1.83,4.38h11.25l-3.39-3.91-11.52-20.5,1.69-3.64h-12.2Zm6.1,5.93l4.88,8.76-4.88,4.38-4.95-4.38,4.95-8.76Z"/>
    <path class="cls-1" d="M146.02,222.76c1.97,3.58,4.74,6.61,8.05,8.79l-1.3,121.39c-1.5,.28-11.47,10.4-11.9,12.1-.18,.84-.31,1.72-.31,2.56,0,5.68,4.43,10.28,9.93,10.28,2.86,0,5.64-1.3,7.52-3.58,2.51,2.33,5.73,3.58,9.04,3.58s6.58-1.26,9.04-3.58c1.88,2.28,4.65,3.58,7.52,3.58,5.5,0,9.93-4.61,9.93-10.28,0-.84-.09-1.72-.31-2.51-.25-1.05-10.74-11.93-11.9-12.14l-1.3-121.39c3.36-2.23,6.13-5.26,8.1-8.79l67.91-.56c.49,4.16,8.94,15.35,13.11,15.35,4.43,0,8.01-3.77,8.01-8.33,0-2.7-1.21-5.16-3.31-6.75-1.83-1.4-.9-4.42,1.39-4.42,.81,0,1.57,.42,2.01,1.16,.72,.19,1.43,.28,2.15,.28,3.22,0,6.08-1.95,7.38-4.98,.54-1.35,.85-2.79,.85-4.23s-.31-2.84-.85-4.19c-1.3-3.02-4.16-5.02-7.38-5.02-.72,0-1.43,.14-2.15,.33-1.25,2.09-4.34,1.16-4.34-1.3,0-.74,.36-1.49,.94-1.95,2.1-1.58,3.31-4.09,3.31-6.75,0-4.61-3.58-8.33-8.01-8.33-4.17,0-12.62,11.2-13.11,15.35l-67.91-.58c-2.14-3.91-5.23-7.15-8.99-9.38l-.64-83.57c3.8-.49,14.72-9.69,14.72-13.63,0-4.56-3.58-8.33-8.01-8.33-2.55,0-4.97,1.3-6.44,3.44-1.34,1.91-4.25,.93-4.25-1.44,0-.84,.4-1.63,1.07-2.05,.22-.74,.31-1.54,.31-2.28,0-3.3-1.88-6.33-4.79-7.63-1.3-.6-2.68-.88-4.07-.88s-2.77,.28-4.03,.88c-2.95,1.3-4.83,4.33-4.83,7.63,0,.79,.09,1.54,.31,2.28,.67,.42,1.12,1.21,1.12,2.05,0,1.35-1.07,2.47-2.37,2.47-.76,0-1.43-.37-1.88-1.02-1.52-2.14-3.94-3.44-6.49-3.44-4.43,0-8.01,3.77-8.01,8.33s10.77,13.19,14.76,13.63l-.67,83.56c-3.71,2.23-6.8,5.44-8.95,9.35l-67.96,.61c-.46-3.92-9.34-15.35-13.11-15.35-4.43,0-8.01,3.72-8.01,8.33,0,2.65,1.25,5.16,3.31,6.75,.58,.47,.94,1.21,.94,1.95,0,1.35-1.03,2.47-2.33,2.47-.81,0-1.57-.42-1.97-1.16-.72-.19-1.48-.33-2.19-.33-3.18,0-6.08,2-7.34,5.02-.58,1.3-.85,2.75-.85,4.19s.27,2.88,.85,4.23c1.25,3.02,4.16,4.98,7.34,4.98,.72,0,1.48-.09,2.19-.33,1.25-2.05,4.3-1.12,4.3,1.3,0,.79-.36,1.54-.94,2-2.06,1.54-3.31,4.05-3.31,6.75,0,4.56,3.58,8.33,8.01,8.33,3.75,0,12.65-11.46,13.11-15.35l67.96,.56h0s0,.02,0,.02Z"/>
    <path class="cls-1" d="M105.36,222.45l4.38,.05v11.07h-4.38v-11.12Z"/>
    <path class="cls-1" d="M221.71,235.61c1.21,.93,1.97,2.33,2.1,3.91,.09,.6,.13,1.21,.13,1.86,0,2.93-.72,5.82-2.06,8.38-2.06,4.05-7.65,3.77-9.35-.42-.72-1.81-1.07-3.77-1.03-5.72,.18-4.28,2.55-8.19,6.26-10.05h-10.02c.54,.51,.81,1.16,.81,1.91,0,.23,0,.46-.09,.7-.81,2.98-1.21,6.09-1.21,9.21,0,1.54,.09,3.02,.31,4.56,.63,5.12,4.88,8.98,9.89,8.98,3.94,0,7.52-2.42,9.08-6.14,1.61,3.77,5.19,6.14,9.13,6.14,5.01,0,9.26-3.86,9.89-9.03,.18-1.54,.31-3.02,.31-4.51,0-3.12-.45-6.19-1.25-9.21-.22-.93,.05-1.95,.72-2.61h-9.99c3.71,1.91,6.08,5.77,6.22,10.05v.47c0,1.77-.31,3.58-.98,5.26-1.7,4.19-7.29,4.47-9.35,.47-1.65-3.16-2.33-6.75-1.97-10.33,.18-1.54,.94-2.93,2.15-3.86h-9.71s.01,0,.01,0Z"/>
    <path class="cls-1" d="M224.36,222.49l4.43-.05v13.16h-4.43v-13.11Z"/>
  </g>
</svg>