<svg xmlns="http://www.w3.org/2000/svg" id="flag-icons-es-cn" viewBox="0 0 900 900">
	<title>es-cn-svg</title>
	<rect fill="#fff" width="450" height="900" x="0" y="0" />
	<rect fill="#fc0" width="450" height="900" x="450" y="0" />
	<rect fill="#0077c8" width="300" height="900" x="300" y="0" />
	<g>
		<path fill="#fff" fill-rule="evenodd" d="m575.9 527.8c0 0.6-0.1 2.1-0.1 2.1 0 3.1 1.7 5.8 4.3 6.9 1.4 0.5 2.4 1.8 2.5 3.4l0.1 2.6c0 5.2-1.5 10.3-4.4 14.7-1.6 2.5-2.7 5.2-3.2 8.2-1.2 5.6-5.7 8.1-9.4 8.1h-10.9c-2.2 0-3.9-1.8-3.9-4 0-6.9 4.7-12.4 10.7-13.7 1.2-1.6 2-3.4 2-5.5 0-3.5-1.9-6.7-4.9-8.1-5.2-2.4-8.8-7.2-10.2-13-2.2 0.5-2.7 0.9-2.8 2.1 0.2 0.2 0.3 0.4 0.3 0.4l1 2.8q0.2 0.6 0.2 1.1c0 1.4-0.9 2.3-2.3 3.1-2.4 1.2-6.2 7.1-8 11.5-1.7 3.7-5 6.1-8.8 6.1h-9.4c-2.2 0-3.9-1.8-3.9-4 0-6.8 4.4-12.7 10.5-14 1.9-0.5 3.3-2.4 3.3-4.7 0-1.3-0.4-2.5-1.2-3.4-1.9-2.1-3.9-5.3-1.9-11.9 2.1-6.5 6.7-9.4 10.7-12-3.4-3.6-7.2-6.8-11.6-9-7.3-3.5-12.8-10.2-15.3-18.4-1.3-1.3-4.4-4.4-4.4-4.4 0 0 0-0.1-0.1-0.1v47.7c0 34-52.6 34.4-54.8 34.4-2.2 0-54.8-0.4-54.8-34.4v-47.6c-0.2 0.2-3.1 3.2-4.4 4.4-2.5 8.2-8 14.9-15.3 18.4-4.3 2.2-8.2 5.4-11.6 9 4 2.6 7.7 6 9.8 12.5 2 6.5 0.9 9.3-1 11.4-0.8 0.9-1.2 2.1-1.2 3.4 0 2.3 1.4 4.2 3.3 4.7 6.1 1.4 10.5 7.3 10.5 14 0 2.2-1.7 4-3.9 4h-9.3c-3.8 0-7.2-2.3-8.9-6.2-1.8-4.3-5.6-10.2-8-11.4-1.4-0.7-2.5-2.1-2.1-3.4 0.4-1.3 0.9-1 1.4-3.7 0-1.5-0.4-1.8-2.9-2.3-1.4 5.7-5 10.6-10.3 13-2.9 1.3-4.8 4.5-4.8 8.1 0 2 0.8 3.8 2 5.4 6 1.3 10.7 6.8 10.7 13.7 0 2.3-1.7 4.1-3.9 4.1h-10.9c-3.7 0-8.2-2.6-9.4-8.3-0.5-2.9-1.6-5.6-3.3-8.3-2.8-4.2-4.3-9.3-4.3-14.5l0.1-2.6c0.1-1.6 1.1-2.8 2.5-3.4 2.6-1 4.3-3.8 4.3-6.9 0 0-0.1-1.8-0.1-2.1-6.5 2.2-13.8 0.6-18.8-4.9-7.1-7.8-7.7-21 0-28.2 0 0 3.1-2.3 4.9-2.3 1.8 0 4.9 2.2 4.9 2.2 1.3 1.4 2 3.3 2 5.1 0 1.8-0.7 3.6-2 5-1 1.1-1.5 2.6-1.5 4.1 0 1.4 0.5 2.9 1.5 4 0.9 1 2.1 1.6 3.4 1.6 0.4 0 1.4-0.5 1.7-1.9 1.7-7.5 5.9-14.1 11.9-18.5 11.5-8.6 18.4-22.8 18.4-38.1l-0.1-7.4v-3.3c0 0-0.1-13.1-0.1-13.2 0-11.6 7.3-21.8 18.1-24.9 0 0 4.6-1.4 6.9-1.3 1.9 0.1 3.8 1 5.6 1.8l0.1 0.1c1.8-0.7 4.4-1.7 4.4-1.7l2.5-0.7c0.6-0.1 1.6-0.3 1.6-0.3 2-0.3 4 0.5 5.6 2.7 0.4 0.7 1.4 2.3 1.4 6.6 0 1.2-0.3 3.2-0.5 4.9 0.9-0.2 1.8-0.7 2.7-0.7 4.8 0 8.7 3.3 10.2 7.8h5.8c-3.2-6.5-6.3-12.4-7.1-13.3l-3.2-0.2c-1.4-0.1-2.7-1-3.3-2.3q-0.4-0.8-0.4-1.7c0-0.4 0.2-0.8 0.3-1.2-1.7-1.5-3-3.5-3-6 0 0 0.2-0.6 0.3-0.8-1.7-1.5-2.9-3.5-2.9-5.8q0-1.4 0.5-2.8c0.2-0.6 0.7-1 1-1.5-0.3-0.9-0.5-1.9-0.5-2.8 0-1.9 0.7-3.9 2-5.4 0.8-0.9 1.7-1.5 2.7-1.9 0.5-2.4 1.7-4.5 3.9-5.6 1.2-0.6 2.4-0.7 3.7-0.6 1.3-1.9 3.1-3.3 5.4-3.5 1 0 2 0.4 2.9 0.7 0.4-0.4 1-1.1 1-1.1l5.8-0.4c0.8 0.3 1.3 0.9 2 1.4 0.9-0.5 1.9-1.1 1.9-1.1 0 0 0.5 0.2 0.7 0.2 1.3-2.3 3.3-4 6-4 1 0 1.8 0.5 2.7 0.9 1.2-1 2.7-1.7 4.3-1.7 0.3 0 0.4 0.2 0.6 0.2v-3.7c0-1.7 1.2-2.9 2.7-3.5 0.5-1.6 1.8-3 3.5-3h3.7c1.8 0 3 1.4 3.5 3 1.5 0.6 2.7 1.8 2.7 3.5v3.7c0.2 0 0.4-0.2 0.6-0.2 1.6 0 3.1 0.7 4.3 1.6 0.9-0.3 1.7-0.8 2.7-0.8 2.8 0 4.7 1.7 6.1 4 0.1 0 0.6-0.2 0.6-0.2 0 0 0.9 0.6 2 1.1 0.6-0.5 1.2-1.1 2-1.4l5.8 0.4c0 0 0.4 0.5 0.9 1.1 1-0.3 1.9-0.7 2.9-0.7 2.4 0.2 4.2 1.6 5.5 3.5 1.2-0.1 2.5 0 3.6 0.6 2.2 1.1 3.4 3.2 3.9 5.6 1 0.4 2 1 2.7 1.9 1.4 1.5 2 3.4 2 5.4 0 0.9-0.2 1.8-0.5 2.7 0.4 0.6 0.9 1 1.1 1.6q0.5 1.4 0.5 2.8c0 2.4-1.3 4.3-3 5.8 0.1 0.2 0.3 0.8 0.3 0.8 0 2.6-1.3 4.6-3.1 6 0.1 0.4 0.3 0.8 0.3 1.2q0 0.9-0.4 1.7c-0.6 1.3-1.8 2.2-3.2 2.3 0 0-3.3 0.2-3.5 0.1-0.6 0.9-3.6 6.8-6.8 13.4h5.6c1.5-4.5 5.5-7.8 10.2-7.8 0.9 0 1.8 0.5 2.7 0.7-0.2-1.6-0.5-3.3-0.5-4.6 0-3.1 0.6-5.5 1.7-7.4 1.3-1.7 3.3-2.6 5.3-2.2 0 0 0.9 0.2 1.5 0.3l2.6 0.7c0 0 2.6 1 4.4 1.6 0.1 0.1 0.1 0 0.2 0 1.7-0.8 3.6-1.7 5.5-1.8 2.5-0.2 7.2 1.4 7.4 1.5 10.4 2.9 17.6 13.1 17.6 24.7l-0.2 23.9c0 15.3 6.9 29.5 18.4 38.1 6 4.4 10.2 11 11.9 18.6 0.3 1.3 1.3 1.8 1.7 1.8 1.3 0 2.5-0.6 3.4-1.6 2-2.2 2-5.9 0-8.1-2.6-2.8-3-7.9 0-10.1 0 0 3.1-2.2 4.9-2.2 7.3 0.3 9.4 10.1 10.3 16.4 0 5.1-1.8 10.2-5.4 14.1-5 5.5-12.3 7.1-18.8 4.9zm-211.7-172.5q-0.2-0.7-0.2-1.3c0-1.1 0.4-2.1 1.2-2.9 1.2-1.1 2.9-1.3 4.3-0.6q2.3 1 5.3 1.1c4.3 0.1 16.2-2.2 19.3-8.1 0.2-7.3 5.2-13.5 12.3-14.9 14.1-2.7 28.6-4 43.7-4 14.4 0 28.9 1.3 43.3 4 6.9 1.4 11.8 7.6 12.1 14.9 3.1 5.9 15 8.2 19.3 8.1q3-0.1 5.2-1.1c1.5-0.7 3.2-0.5 4.3 0.6 0.8 0.8 1.3 1.8 1.3 2.9q0 0.6-0.3 1.3l-1 2.7c-1.8 4.2-5.1 7.2-8.8 9.4 1.1 1.3 2.5 2.3 4.9 3.2 1.4 0.7 2.4 2.1 2.4 3.8q0 0 0 0.1c-0.1 1.7-1.2 3.2-2.7 3.7-6.4 2-34.5 3.2-52.7-15.8-0.8-0.9-1.2-2.2-1.2-3.4 0-0.7 0.1-1.3 0.4-1.9l0.1-0.2c-8.9-1.2-17.9-2-27.2-2-8.9 0-17.8 0.8-26.7 2l0.2 0.2c0.3 0.6 0.4 1.2 0.4 1.9 0 1.2-0.5 2.5-1.3 3.4-18.1 19-46.3 17.8-52.6 15.8-1.6-0.5-2.7-2-2.7-3.7q0-0.1 0-0.1c0-1.7 0.9-3.1 2.4-3.8 2.4-0.9 3.8-1.9 4.9-3.2-3.8-2.2-7-5.2-8.9-9.3zm61.8 25.9q-0.2-0.3-0.3-0.5-0.1 0-0.1 0l-0.2 0.4c0.2 0 0.4 0 0.6 0.1zm48.7-0.1l-0.1-0.4c-0.1 0.2-0.2 0.3-0.3 0.5 0.1-0.1 0.3-0.1 0.4-0.1zm-39.7-10.5q0 0 0 0.1 0.2-0.2 0.3-0.5c-0.1 0.1-0.2 0.3-0.3 0.4zm-80.5 161.3q-0.1 0 0 0zm46.6-147.8q0-0.1 0-0.1 0 0 0 0.1zm0 0zm98.1 0q0 0 0-0.1 0 0.1 0 0.1zm0 0z" />
		<path fill="#fc0" d="m415.7 403.4c-2.8-1.6-6.5-7.1-6.5-10 0-5 5.7-9.1 12.8-9.1l2.8-1.2 1.3-4.4c0 0-15.9-2.1-20.2 5.8-4.4 7.8-2.1 13-0.3 17.1 1.8 4.2 6 6.3 6 6.3z" />
		<path fill="none" stroke="#000" stroke-width="2.2" fill-rule="evenodd" d="m415.7 403.4c-2.8-1.6-6.5-7.1-6.5-10 0-5 5.7-9.1 12.8-9.1l2.8-1.2 1.3-4.4c0 0-15.9-2.1-20.2 5.8-4.4 7.8-2.1 13-0.3 17.1 1.8 4.2 6 6.3 6 6.3z" />
		<path fill="#fc0" d="m432.3 390.4c-0.9-1-1.5-2.3-1.5-3.6 0-3.6 4.1-6.5 9-6.5 1.8 0 5.4 0.4 6.8 1l0.4-7.5c0 0-13.4-1.6-18.5 4.5-5.2 6.2-3.9 12.2-3.4 13.6 0.4 1.4 1.3 3.4 1.3 3.4l7.3-2.3z" />
		<path fill="none" stroke="#000" stroke-width="2.2" fill-rule="evenodd" d="m432.3 390.4c-0.9-1-1.5-2.3-1.5-3.6 0-3.6 4.1-6.5 9-6.5 1.8 0 5.4 0.4 6.8 1l0.4-7.5c0 0-13.4-1.6-18.5 4.5-5.2 6.2-3.9 12.2-3.4 13.6 0.4 1.4 1.3 3.4 1.3 3.4l7.3-2.3z" />
		<path fill="#fc0" d="m484.4 403.4c2.8-1.6 6.5-7.1 6.5-10 0-5-5.7-9.1-12.8-9.1l-2.8-1.2-1.3-4.4c0 0 15.9-2.1 20.2 5.8 4.4 7.8 2.1 13 0.3 17.1-1.8 4.2-5.9 6.3-5.9 6.3z" />
		<path fill="none" stroke="#000" stroke-width="2.2" fill-rule="evenodd" d="m484.4 403.4c2.8-1.6 6.5-7.1 6.5-10 0-5-5.7-9.1-12.8-9.1l-2.8-1.2-1.3-4.4c0 0 15.9-2.1 20.2 5.8 4.4 7.8 2.1 13 0.3 17.1-1.8 4.2-5.9 6.3-5.9 6.3z" />
		<path fill="#fc0" d="m467.8 390.4c0.9-1 1.5-2.3 1.5-3.6 0-3.6-4.1-6.5-9-6.5-1.8 0-5.4 0.4-6.8 1l-0.4-7.5c0 0 13.4-1.6 18.5 4.5 5.2 6.2 3.9 12.2 3.5 13.6-0.5 1.4-1.3 3.4-1.3 3.4l-7.4-2.3z" />
		<path fill="none" stroke="#000" stroke-width="2.2" fill-rule="evenodd" d="m467.8 390.4c0.9-1 1.5-2.3 1.5-3.6 0-3.6-4.1-6.5-9-6.5-1.8 0-5.4 0.4-6.8 1l-0.4-7.5c0 0 13.4-1.6 18.5 4.5 5.2 6.2 3.9 12.2 3.5 13.6-0.5 1.4-1.3 3.4-1.3 3.4l-7.4-2.3z" />
		<path fill="#da291c" d="m414.3 403.5c8.4-8.9 21.3-14.6 35.9-14.6 14.5 0 27.4 5.7 35.8 14.6l-10 28.2h-52.2z" />
		<path fill="none" stroke="#000" stroke-linecap="round" stroke-linejoin="round" stroke-width="2.1" fill-rule="evenodd" d="m414.3 403.5c8.4-8.9 21.3-14.6 35.9-14.6 14.5 0 27.4 5.7 35.8 14.6l-10 28.2h-52.2z" />
		<path fill="#ecd21c" d="m456.8 399.2l-6.7-4.5-6.6 4.5 2.6-23.2h8.1z" />
		<path fill="#fc0" stroke="#000" stroke-width="2.1" d="m456.8 399.2l-6.7-4.5-6.6 4.5 2.6-23.2h8.1z" />
		<path fill="#fff" d="m450.2 384.5c-1.3 0-2.4-1.1-2.4-2.5 0-1.4 1.1-2.5 2.4-2.5 1.3 0 2.3 1.1 2.3 2.5 0 1.4-1 2.5-2.3 2.5z" />
		<path fill="none" stroke="#000" fill-rule="evenodd" d="m450.2 384.5c-1.3 0-2.4-1.1-2.4-2.5 0-1.4 1.1-2.5 2.4-2.5 1.3 0 2.3 1.1 2.3 2.5 0 1.4-1 2.5-2.3 2.5z" />
		<path fill="#fff" d="m450.2 390.4c-1.7 0-3-1.4-3-3.2 0-1.7 1.3-3.1 3-3.1 1.6 0 3 1.4 3 3.1 0 1.8-1.4 3.2-3 3.2z" />
		<path fill="none" stroke="#000" fill-rule="evenodd" d="m450.2 390.4c-1.7 0-3-1.4-3-3.2 0-1.7 1.3-3.1 3-3.1 1.6 0 3 1.4 3 3.1 0 1.8-1.4 3.2-3 3.2z" />
		<path fill="#fff" d="m450.2 398.1c-2.1 0-3.8-1.8-3.8-4.1 0-2.2 1.7-4 3.8-4 2.1 0 3.7 1.8 3.7 4 0 2.3-1.6 4.1-3.7 4.1z" />
		<path fill="none" stroke="#000" fill-rule="evenodd" d="m450.2 398.1c-2.1 0-3.8-1.8-3.8-4.1 0-2.2 1.7-4 3.8-4 2.1 0 3.7 1.8 3.7 4 0 2.3-1.6 4.1-3.7 4.1z" />
		<path fill="#fff" d="m405.6 405.5c-2 0-3.7-1.7-3.7-3.9 0-2.2 1.7-3.9 3.7-3.9 2.1 0 3.7 1.7 3.7 3.9 0 2.2-1.6 3.9-3.7 3.9z" />
		<path fill="none" stroke="#000" fill-rule="evenodd" d="m405.6 405.5c-2 0-3.7-1.7-3.7-3.9 0-2.2 1.7-3.9 3.7-3.9 2.1 0 3.7 1.7 3.7 3.9 0 2.2-1.6 3.9-3.7 3.9z" />
		<path fill="#fff" d="m424.7 388.8c-2 0-3.7-1.8-3.7-4 0-2.1 1.7-3.9 3.7-3.9 2.1 0 3.7 1.8 3.7 3.9 0 2.2-1.6 4-3.7 4z" />
		<path fill="none" stroke="#000" fill-rule="evenodd" d="m424.7 388.8c-2 0-3.7-1.8-3.7-4 0-2.1 1.7-3.9 3.7-3.9 2.1 0 3.7 1.8 3.7 3.9 0 2.2-1.6 4-3.7 4z" />
		<path fill="#fff" d="m425.8 396.2c-2 0-3.7-1.8-3.7-4 0-2.1 1.7-3.9 3.7-3.9 2 0 3.7 1.8 3.7 3.9 0 2.2-1.7 4-3.7 4z" />
		<path fill="none" stroke="#000" fill-rule="evenodd" d="m425.8 396.2c-2 0-3.7-1.8-3.7-4 0-2.1 1.7-3.9 3.7-3.9 2 0 3.7 1.8 3.7 3.9 0 2.2-1.7 4-3.7 4z" />
		<path fill="#fff" d="m406.5 396.5c0.7-2.1-0.2-4.3-2.1-5.1-1.9-0.8-4.1 0.2-4.8 2.3-0.7 2 0.2 4.2 2.1 5 2 0.8 4.1-0.2 4.8-2.2z" />
		<path fill="none" stroke="#000" fill-rule="evenodd" d="m406.5 396.5c0.7-2.1-0.2-4.3-2.1-5.1-1.9-0.8-4.1 0.2-4.8 2.3-0.7 2 0.2 4.2 2.1 5 2 0.8 4.1-0.2 4.8-2.2z" />
		<path fill="#fff" d="m406.8 390.5c1.3-1.5 1.3-4-0.2-5.5-1.5-1.5-3.8-1.4-5.2 0.2-1.4 1.6-1.4 4.1 0.1 5.5 1.5 1.5 3.9 1.4 5.3-0.2z" />
		<path fill="none" stroke="#000" fill-rule="evenodd" d="m406.8 390.5c1.3-1.5 1.3-4-0.2-5.5-1.5-1.5-3.8-1.4-5.2 0.2-1.4 1.6-1.4 4.1 0.1 5.5 1.5 1.5 3.9 1.4 5.3-0.2z" />
		<path fill="#fff" d="m409.9 385.7c1.8-0.9 2.6-3.2 1.8-5.2-0.9-1.9-3.1-2.8-5-1.9-1.8 0.9-2.6 3.3-1.7 5.2 0.8 2 3 2.9 4.9 1.9z" />
		<path fill="none" stroke="#000" fill-rule="evenodd" d="m409.9 385.7c1.8-0.9 2.6-3.2 1.8-5.2-0.9-1.9-3.1-2.8-5-1.9-1.8 0.9-2.6 3.3-1.7 5.2 0.8 2 3 2.9 4.9 1.9z" />
		<path fill="#fff" d="m414.6 382.8c-2 0-3.7-1.8-3.7-3.9 0-2.2 1.7-4 3.7-4 2.1 0 3.7 1.8 3.7 4 0 2.1-1.6 3.9-3.7 3.9z" />
		<path fill="none" stroke="#000" fill-rule="evenodd" d="m414.6 382.8c-2 0-3.7-1.8-3.7-3.9 0-2.2 1.7-4 3.7-4 2.1 0 3.7 1.8 3.7 4 0 2.1-1.6 3.9-3.7 3.9z" />
		<path fill="#fff" d="m420.3 381.3c1.9 0.7 4-0.4 4.6-2.5 0.7-2-0.4-4.2-2.3-4.9-1.9-0.7-4 0.4-4.7 2.5-0.6 2 0.4 4.2 2.4 4.9z" />
		<path fill="none" stroke="#000" fill-rule="evenodd" d="m420.3 381.3c1.9 0.7 4-0.4 4.6-2.5 0.7-2-0.4-4.2-2.3-4.9-1.9-0.7-4 0.4-4.7 2.5-0.6 2 0.4 4.2 2.4 4.9z" />
		<path fill="#fff" d="m426.2 381.4c1.6 1.4 3.9 1.1 5.2-0.6 1.3-1.6 1.1-4.1-0.5-5.5-1.6-1.4-3.9-1.1-5.2 0.5-1.3 1.7-1.1 4.2 0.5 5.6z" />
		<path fill="none" stroke="#000" fill-rule="evenodd" d="m426.2 381.4c1.6 1.4 3.9 1.1 5.2-0.6 1.3-1.6 1.1-4.1-0.5-5.5-1.6-1.4-3.9-1.1-5.2 0.5-1.3 1.7-1.1 4.2 0.5 5.6z" />
		<path fill="#fff" d="m434.5 378.4c-2 0-3.7-1.8-3.7-3.9 0-2.2 1.7-4 3.7-4 2 0 3.7 1.8 3.7 4 0 2.1-1.7 3.9-3.7 3.9z" />
		<path fill="none" stroke="#000" fill-rule="evenodd" d="m434.5 378.4c-2 0-3.7-1.8-3.7-3.9 0-2.2 1.7-4 3.7-4 2 0 3.7 1.8 3.7 4 0 2.1-1.7 3.9-3.7 3.9z" />
		<path fill="#fff" d="m441.5 377.6c-2 0-3.6-1.7-3.6-3.9 0-2.2 1.6-3.9 3.6-3.9 2.1 0 3.7 1.7 3.7 3.9 0 2.2-1.6 3.9-3.7 3.9z" />
		<path fill="none" stroke="#000" fill-rule="evenodd" d="m441.5 377.6c-2 0-3.6-1.7-3.6-3.9 0-2.2 1.6-3.9 3.6-3.9 2.1 0 3.7 1.7 3.7 3.9 0 2.2-1.6 3.9-3.7 3.9z" />
		<path fill="#fff" d="m494.6 405.5c-2 0-3.7-1.7-3.7-3.9 0-2.2 1.7-3.9 3.7-3.9 2.1 0 3.7 1.7 3.7 3.9 0 2.2-1.6 3.9-3.7 3.9z" />
		<path fill="none" stroke="#000" fill-rule="evenodd" d="m494.6 405.5c-2 0-3.7-1.7-3.7-3.9 0-2.2 1.7-3.9 3.7-3.9 2.1 0 3.7 1.7 3.7 3.9 0 2.2-1.6 3.9-3.7 3.9z" />
		<path fill="#fff" d="m475.6 388.8c-2.1 0-3.7-1.8-3.7-4 0-2.1 1.6-3.9 3.7-3.9 2 0 3.7 1.8 3.7 3.9 0 2.2-1.7 4-3.7 4z" />
		<path fill="none" stroke="#000" fill-rule="evenodd" d="m475.6 388.8c-2.1 0-3.7-1.8-3.7-4 0-2.1 1.6-3.9 3.7-3.9 2 0 3.7 1.8 3.7 3.9 0 2.2-1.7 4-3.7 4z" />
		<path fill="#fff" d="m474.5 396.2c-2 0-3.7-1.8-3.7-4 0-2.1 1.7-3.9 3.7-3.9 2 0 3.7 1.8 3.7 3.9 0 2.2-1.7 4-3.7 4z" />
		<path fill="none" stroke="#000" fill-rule="evenodd" d="m474.5 396.2c-2 0-3.7-1.8-3.7-4 0-2.1 1.7-3.9 3.7-3.9 2 0 3.7 1.8 3.7 3.9 0 2.2-1.7 4-3.7 4z" />
		<path fill="#fff" d="m493.8 396.5c-0.7-2.1 0.2-4.3 2.1-5.1 1.9-0.8 4.1 0.2 4.8 2.3 0.7 2-0.2 4.2-2.2 5-1.9 0.8-4-0.2-4.7-2.2z" />
		<path fill="none" stroke="#000" fill-rule="evenodd" d="m493.8 396.5c-0.7-2.1 0.2-4.3 2.1-5.1 1.9-0.8 4.1 0.2 4.8 2.3 0.7 2-0.2 4.2-2.2 5-1.9 0.8-4-0.2-4.7-2.2z" />
		<path fill="#fff" d="m493.5 390.5c-1.4-1.5-1.3-4 0.2-5.5 1.5-1.5 3.8-1.4 5.2 0.2 1.4 1.6 1.4 4.1-0.1 5.5-1.5 1.5-3.9 1.4-5.3-0.2z" />
		<path fill="none" stroke="#000" fill-rule="evenodd" d="m493.5 390.5c-1.4-1.5-1.3-4 0.2-5.5 1.5-1.5 3.8-1.4 5.2 0.2 1.4 1.6 1.4 4.1-0.1 5.5-1.5 1.5-3.9 1.4-5.3-0.2z" />
		<path fill="#fff" d="m490.4 385.7c-1.8-0.9-2.6-3.2-1.8-5.2 0.9-1.9 3.1-2.8 5-1.9 1.8 0.9 2.6 3.3 1.8 5.2-0.9 2-3.1 2.9-5 1.9z" />
		<path fill="none" stroke="#000" fill-rule="evenodd" d="m490.4 385.7c-1.8-0.9-2.6-3.2-1.8-5.2 0.9-1.9 3.1-2.8 5-1.9 1.8 0.9 2.6 3.3 1.8 5.2-0.9 2-3.1 2.9-5 1.9z" />
		<path fill="#fff" d="m485.7 382.8c-2.1 0-3.7-1.8-3.7-3.9 0-2.2 1.6-4 3.7-4 2 0 3.7 1.8 3.7 4 0 2.1-1.7 3.9-3.7 3.9z" />
		<path fill="none" stroke="#000" fill-rule="evenodd" d="m485.7 382.8c-2.1 0-3.7-1.8-3.7-3.9 0-2.2 1.6-4 3.7-4 2 0 3.7 1.8 3.7 4 0 2.1-1.7 3.9-3.7 3.9z" />
		<path fill="#fff" d="m480 381.3c-1.9 0.7-4-0.4-4.6-2.5-0.7-2 0.4-4.2 2.3-4.9 1.9-0.7 4 0.4 4.7 2.5 0.6 2-0.4 4.2-2.4 4.9z" />
		<path fill="none" stroke="#000" fill-rule="evenodd" d="m480 381.3c-1.9 0.7-4-0.4-4.6-2.5-0.7-2 0.4-4.2 2.3-4.9 1.9-0.7 4 0.4 4.7 2.5 0.6 2-0.4 4.2-2.4 4.9z" />
		<path fill="#fff" d="m474.1 381.4c-1.6 1.4-3.9 1.1-5.2-0.6-1.3-1.6-1-4.1 0.5-5.5 1.6-1.4 3.9-1.1 5.2 0.5 1.3 1.7 1.1 4.2-0.5 5.6z" />
		<path fill="none" stroke="#000" fill-rule="evenodd" d="m474.1 381.4c-1.6 1.4-3.9 1.1-5.2-0.6-1.3-1.6-1-4.1 0.5-5.5 1.6-1.4 3.9-1.1 5.2 0.5 1.3 1.7 1.1 4.2-0.5 5.6z" />
		<path fill="#fff" d="m465.8 378.4c-2 0-3.7-1.8-3.7-3.9 0-2.2 1.7-4 3.7-4 2 0 3.7 1.8 3.7 4 0 2.1-1.7 3.9-3.7 3.9z" />
		<path fill="none" stroke="#000" fill-rule="evenodd" d="m465.8 378.4c-2 0-3.7-1.8-3.7-3.9 0-2.2 1.7-4 3.7-4 2 0 3.7 1.8 3.7 4 0 2.1-1.7 3.9-3.7 3.9z" />
		<path fill="#fff" d="m458.8 377.6c-2.1 0-3.7-1.7-3.7-3.9 0-2.2 1.6-3.9 3.7-3.9 2 0 3.7 1.7 3.7 3.9 0 2.2-1.7 3.9-3.7 3.9z" />
		<path fill="none" stroke="#000" fill-rule="evenodd" d="m458.8 377.6c-2.1 0-3.7-1.7-3.7-3.9 0-2.2 1.6-3.9 3.7-3.9 2 0 3.7 1.7 3.7 3.9 0 2.2-1.7 3.9-3.7 3.9z" />
		<path fill="#000" fill-rule="evenodd" d="m495.5 408.8l-3.3 0.2c0 0-1.8 0.1-3 1.4-0.9 1-10 19.7-10 19.7l-1.6-0.6c-9.1-4-18.1-5.9-27.5-5.9-9.3 0-18.3 1.9-27.5 5.8l-1.5 0.7c0 0-9.2-18.7-10.1-19.7-1.2-1.3-3-1.4-3-1.4l-3.3-0.2 1.8-2.9c1.1-1.7 2.6-2.6 4.2-2.8q1 0 1.9 0.2c0 0 0.1 0 0.1-0.1l1-0.5 0.9 0.6c0.2 0.1 0.4 0.3 0.5 0.5q0.1 0 0.1-0.1l1-0.5c0 0 0.8 0.5 0.9 0.6 0.9-0.5 1.9-0.7 2.8-0.7l1.3 0.1c0 0 0 0.1 0 0.2 0.7-0.8 1.6-1.3 2.6-1.6 0-0.1 0.2-1.2 0.2-1.2l1-0.3q0.1 0 0.2 0c0-0.3 0-0.5 0-0.8l0.3-1.2 1-0.2c0.3-1.1 0.8-2.1 1.5-2.8l0.8-1 1.2 0.5c0.9 0.4 1.7 1.1 2.3 2 0.1 0 1.1-0.2 1.1-0.2l0.7 1q0.2 0.3 0.4 0.7 0 0 0.1-0.1l1.1-0.1c0 0 0.5 0.9 0.6 0.9 1-0.1 2 0.1 2.9 0.5 0 0 0.3 0.1 0.6 0.2 0.3-0.2 0.7-0.5 0.7-0.5 0.8-0.6 1.9-0.9 3-1q0-0.1 0-0.1l0.4-1.1 1.1-0.1q0.1 0 0.2 0 0.1-0.4 0.3-0.9l0.5-1 1.1-0.1c0.5-1 1.2-1.9 2-2.6l1-0.7 1.1 0.7c0.8 0.7 1.5 1.6 2 2.6l1.1 0.1 0.5 1q0.2 0.5 0.3 0.9 0.1 0 0.2 0l1.1 0.1 0.4 1.1q0 0 0 0.1c1.1 0.1 2.2 0.4 3 1 0 0 0.3 0.3 0.7 0.5 0.2-0.1 0.5-0.2 0.5-0.2 0.8-0.4 1.9-0.6 2.9-0.5l0.6-0.9 1.1 0.1q0.1 0.1 0.1 0.1 0.2-0.4 0.4-0.7l0.7-1 1 0.2c0.7-0.9 1.5-1.6 2.4-2l1.1-0.5 0.9 1c0.7 0.7 1.2 1.7 1.4 2.8 0.1 0 1.1 0.2 1.1 0.2l0.2 1.2c0.1 0.3 0.1 0.5 0.1 0.8q0.1 0 0.1 0l1.1 0.3c0 0 0.2 1.1 0.2 1.2 1 0.3 1.9 0.8 2.6 1.6 0-0.1 0-0.2 0-0.2l1.3-0.1c0.9 0 1.9 0.2 2.8 0.7 0.1-0.1 0.9-0.6 0.9-0.6l1 0.5q0 0.1 0 0.1c0.2-0.2 0.3-0.4 0.6-0.5l0.9-0.6 1 0.5c0 0.1 0 0.1 0.1 0.1q0.9-0.2 1.8-0.2c1.7 0.2 3.2 1.1 4.2 2.8zm-24.9-3.1l0.7 0.2 0.6 0.2c0.2 0.1 0.6 0.2 0.9 0.3-0.1-0.1-0.2-0.4-0.2-0.4 0 0 1.2-0.5 1.6-0.7-0.4 0-1.7-0.1-1.7-0.1 0 0 0-0.3 0-0.5-0.4 0.3-0.9 0.5-1.9 1zm-1.5-4q0.1 0.7 0.4 2.4c0.5-1 0.9-1.7 1.1-2-0.1 0-0.4 0-0.4 0 0 0 0-1.4 0-1.9-0.2 0.5-0.7 1.8-0.7 1.8 0 0-0.3-0.2-0.4-0.3zm-4.5 1.5c0.3 0.4 1.3 1.4 1.3 1.4 0 0-0.2 0.1-0.3 0.2q0.5 0.1 0.9 0.1l0.6 0.1 0.7 0.1c-0.7-0.9-1.1-1.3-1.4-1.7 0 0.2-0.1 0.5-0.1 0.5 0 0-1.3-0.5-1.7-0.7zm-13.2 0.3h0.2l0.8 0.1h0.6c0.4 0.1 0.8 0.1 1.2 0.1-0.1-0.1-0.3-0.4-0.3-0.4l1.8-1.2v-0.1q0 0-0.1 0l-2 0.4c0 0 0-0.4 0-0.7-0.5 0.4-1.1 0.9-2.2 1.8zm-1.7-3.8c0 0-0.3-0.2-0.5-0.2 0.1 0.3 0.5 1.4 0.9 2.8 0.5-1.4 0.9-2.5 1-2.8-0.2 0-0.5 0.2-0.5 0.2l-0.4-2.2q0-0.1-0.1-0.1 0 0 0 0.1zm-3.3 3.6c0 0-0.2 0.3-0.3 0.5q0.6-0.1 1.2-0.1l0.6-0.1c0 0 1 0 1.1 0-1.1-0.9-1.8-1.5-2.2-1.8 0 0.2 0 0.6 0 0.6l-2.1-0.3zm-14 1.9c0.1-0.1 0.2-0.1 0.2-0.1l0.6-0.1h0.5q0.4-0.1 0.9-0.2l-0.3-0.2c0 0 1-1 1.3-1.3-0.4 0.1-1.7 0.6-1.7 0.6 0 0 0-0.3-0.1-0.5-0.3 0.4-0.7 0.9-1.4 1.8zm-2.4-3c0 0-0.3-0.1-0.4-0.1 0.2 0.4 0.6 1 1.2 2q0.2-1.7 0.3-2.3c-0.1 0-0.4 0.2-0.4 0.2 0 0-0.5-1.3-0.7-1.7 0 0.5 0 1.9 0 1.9zm-4 3.1c0.4 0.2 1.6 0.7 1.6 0.7 0 0-0.1 0.3-0.1 0.4 0.3-0.1 0.6-0.2 0.8-0.3l0.6-0.1 0.7-0.2c-0.9-0.5-1.5-0.8-1.9-1 0 0.1 0.1 0.4 0.1 0.4 0 0-1.3 0.1-1.8 0.1zm-8.7 4.5c0-0.1-0.3-0.1-0.3-0.1 0 0 0.4-1 0.7-1.5-0.5 0.4-1.2 1-1.2 1 0 0-0.2-0.2-0.2-0.3-0.2 0.4-0.3 0.8-0.6 1.5q0.1 0.1 0.2 0.2c0.5-0.3 1-0.6 1-0.6q0.1-0.1 0.4-0.2zm67.2 0.6c-0.2-0.7-0.4-1.1-0.5-1.5-0.1 0.1-0.2 0.3-0.2 0.3 0 0-0.8-0.6-1.2-1 0.2 0.5 0.6 1.5 0.6 1.5 0 0-0.2 0-0.3 0.1q0.3 0.1 0.5 0.2c0 0 0.5 0.3 1 0.6 0-0.1 0.1-0.1 0.1-0.2zm-34.8-10.7z" />
		<path fill="#4c86c7" d="m448.6 379.9c-2.7-0.9-4.3-4-3.5-7 0.8-2.9 3.8-4.6 6.6-3.7 2.8 0.8 4.4 4 3.5 6.9-0.8 3-3.8 4.7-6.6 3.8z" />
		<path fill="none" stroke="#000" fill-rule="evenodd" d="m448.6 379.9c-2.7-0.9-4.3-4-3.5-7 0.8-2.9 3.8-4.6 6.6-3.7 2.8 0.8 4.4 4 3.5 6.9-0.8 3-3.8 4.7-6.6 3.8z" />
		<path fill="#fc0" d="m450.1 414.9c-10.7 0-21.2 2.2-31.2 6.4l3.1 6.3c9-3.9 18.2-6 28.1-6 10 0 19.2 2.1 28.3 6l3.1-6.2c-10.1-4.3-20.6-6.5-31.4-6.5z" />
		<path fill="#ecd21c" d="m492.1 407c-1.5-2.4-3.9-2.2-4.7-1.3q-0.4-0.5-0.8-0.8c-0.7 0.5-1 1.3-1.2 2.3-0.3-0.8-0.7-1.4-1.3-1.8q-0.4 0.4-0.7 0.9c-0.9-0.9-2-1.3-3-1.2-0.3 1-0.3 2.2 0.3 3.3q-0.6 0.2-1 0.6c0.3 1.3 1.6 2.1 2.8 2.7-0.6 1.1-1.8 2.8-2.3 3.7-1.1-0.4-1.9-1.4-1.9-2.7q0-0.6 0.2-1.1 0.1-0.2 0.1-0.5c0-0.6-0.4-1.2-0.9-1.4-0.7-0.3-1.5 0.1-1.8 0.8-0.5 1.3-1.7 2.1-3 2.1-1.7 0-3.2-1.5-3.2-3.3l0.3-1.7q0.4 0.1 0.8 0.2c1.6 0.5 3.5 1.2 4.7 0.3q0-0.6-0.3-1.1c1.2-0.5 2-1.3 2.5-2.3-0.7-0.8-1.8-1.3-3-1.4 0-0.3 0-0.7-0.1-1.1-0.6-0.2-1.4 0-2 0.3 0.4-0.8 0.8-1.7 0.6-2.6q-0.6-0.1-1.1 0c-0.1-1.3-0.5-2.5-1.2-3.3-0.9 0.4-1.8 1.3-2.3 2.5q-0.4-0.3-1-0.4c-0.5 0.7-0.5 1.7-0.4 2.7q-0.7-1.1-1.8-1.2-0.3 0.5-0.4 1c-1.2-0.4-2.4-0.4-3.3 0 0.1 1.1 0.5 2.3 1.4 3.2q-0.4 0.3-0.7 0.9c0.8 1.3 2.8 1.4 4.4 1.6q0.3 0.1 0.5 0.1l-0.2 1.3q-0.1 0.2-0.2 0.4c-0.5 1.4-1.7 2.3-3 2.3-1.8 0-3.2-1.5-3.2-3.4 0-0.8-0.6-1.5-1.4-1.5h-0.2c-0.6 0-1.1 0.4-1.3 1.1-0.4 1.5-1.6 2.5-3.1 2.5-1.7 0-3.2-1.5-3.2-3.4v-0.8q0.4 0 0.8 0c1.7 0.2 3.8 0.5 4.9-0.7q-0.1-0.6-0.5-1.1c1.1-0.7 1.8-1.8 2-2.9-0.8-0.7-2.1-0.9-3.3-0.7q0-0.7-0.3-1.2c-0.7-0.1-1.4 0.3-2.1 0.8 0.4-1 0.5-2 0.2-2.8q-0.6-0.1-1.2 0.1c-0.3-1.3-0.9-2.4-1.8-3.1-0.9 0.7-1.6 1.8-1.9 3.1q-0.5-0.2-1.1-0.1c-0.4 0.8-0.2 1.8 0.1 2.8-0.7-0.5-1.4-0.9-2.1-0.8q-0.2 0.5-0.3 1.2c-1.2-0.2-2.4 0-3.3 0.7 0.2 1.1 1 2.2 2 2.9q-0.4 0.5-0.5 1.1c1.1 1.2 3.2 0.9 4.9 0.7q0.4 0 0.7 0v0.8c0 1.9-1.4 3.4-3.2 3.4-1.4 0-2.7-1-3.1-2.5-0.1-0.7-0.7-1.1-1.3-1.1h-0.2c-0.8 0-1.4 0.7-1.4 1.5 0 1.9-1.4 3.4-3.2 3.4-1.3 0-2.5-0.9-3-2.3q0-0.2-0.2-0.4l-0.2-1.3q0.2 0 0.5-0.1c1.6-0.2 3.6-0.3 4.4-1.6q-0.3-0.6-0.7-0.9c0.9-0.9 1.4-2.1 1.4-3.2-0.9-0.4-2.1-0.4-3.3 0q-0.1-0.5-0.4-1-1.1 0.2-1.8 1.2c0.1-1 0.1-2-0.4-2.7q-0.5 0.1-1 0.4c-0.5-1.2-1.4-2.1-2.3-2.5-0.7 0.8-1.1 2-1.1 3.3q-0.6-0.1-1.2 0c-0.1 0.9 0.2 1.8 0.7 2.6-0.7-0.3-1.4-0.5-2.1-0.3-0.1 0.4-0.1 0.8-0.1 1.1-1.2 0.1-2.2 0.6-2.9 1.4 0.4 1 1.3 1.8 2.4 2.3q-0.3 0.5-0.3 1.1c1.2 0.9 3.1 0.2 4.7-0.3q0.4-0.1 0.8-0.2l0.3 1.7c0 1.8-1.5 3.3-3.2 3.3-1.3 0-2.5-0.8-3-2.1-0.3-0.7-1.1-1.1-1.8-0.8-0.5 0.2-0.9 0.8-0.9 1.4q0 0.3 0.1 0.5 0.2 0.5 0.2 1.1c0 1.3-0.8 2.3-1.9 2.7-0.5-0.9-1.7-2.6-2.3-3.7 1.2-0.6 2.5-1.4 2.8-2.7q-0.4-0.4-0.9-0.6c0.5-1.1 0.5-2.3 0.2-3.3-1-0.1-2.1 0.3-2.9 1.2q-0.4-0.5-0.8-0.9c-0.6 0.4-1 1-1.3 1.8-0.1-1-0.5-1.8-1.2-2.3q-0.4 0.3-0.8 0.8c-0.8-0.9-3.2-1.1-4.7 1.3 0 0 2.4 0.1 4.2 2.1 1.1 1.1 1.9 2.3 2.4 3.1q0 0.2 0.1 0.3l3.1 5.2c0.2 0.5 0.7 0.9 1.3 0.9 2.4 0 4.4-1.7 5.1-3.9 0.9 0.5 1.9 0.9 3 0.9 2.2 0 4.1-1.3 5.2-3.3 1 1 2.4 1.6 3.8 1.6 2.2 0 4.1-1.2 5.1-3 1.1 1.1 2.5 1.7 4.1 1.7 1.8 0 3.5-0.9 4.6-2.3 1.1 1.4 2.8 2.3 4.6 2.3 1.6 0 3-0.6 4.1-1.7 1 1.8 2.9 3 5.1 3 1.4 0 2.8-0.6 3.8-1.6 1.1 2 3 3.3 5.2 3.3 1.1 0 2.1-0.4 3-0.9 0.7 2.2 2.8 3.9 5.1 3.9 0.6 0 1.1-0.4 1.3-0.9l3.1-5.2q0.1-0.1 0.1-0.3c0.5-0.8 1.4-2 2.4-3.1 1.8-2 4.2-2.1 4.2-2.1z" />
		<path fill="#be0027" d="m461.3 418.8c0-1.1-0.8-1.9-1.8-1.9-1 0-1.9 0.8-1.9 1.9 0 1.1 0.9 1.9 1.9 1.9 1 0 1.8-0.8 1.8-1.9z" />
		<path fill="none" stroke="#000" fill-rule="evenodd" d="m461.3 418.8c0-1.1-0.8-1.9-1.8-1.9-1 0-1.9 0.8-1.9 1.9 0 1.1 0.9 1.9 1.9 1.9 1 0 1.8-0.8 1.8-1.9z" />
		<path fill="#be0027" d="m476.3 422.1c0-1-0.8-1.9-1.9-1.9-1 0-1.8 0.9-1.8 1.9 0 1.1 0.8 2 1.8 2 1.1 0 1.9-0.9 1.9-2z" />
		<path fill="none" stroke="#000" fill-rule="evenodd" d="m476.3 422.1c0-1-0.8-1.9-1.9-1.9-1 0-1.8 0.9-1.8 1.9 0 1.1 0.8 2 1.8 2 1.1 0 1.9-0.9 1.9-2z" />
		<path fill="#be0027" d="m442.9 418.8c0-1.1-0.9-1.9-1.9-1.9-1 0-1.8 0.8-1.8 1.9 0 1.1 0.8 1.9 1.8 1.9 1 0 1.9-0.8 1.9-1.9z" />
		<path fill="none" stroke="#000" fill-rule="evenodd" d="m442.9 418.8c0-1.1-0.9-1.9-1.9-1.9-1 0-1.8 0.8-1.8 1.9 0 1.1 0.8 1.9 1.8 1.9 1 0 1.9-0.8 1.9-1.9z" />
		<path fill="none" stroke="#000" fill-rule="evenodd" d="m427.9 422.1c0-1-0.8-1.9-1.8-1.9-1 0-1.9 0.9-1.9 1.9 0 1.1 0.9 2 1.9 2 1 0 1.8-0.9 1.8-2z" />
		<path fill="#be0027" d="m450.2 416.4l-5.3 1.9 5.3 1.9 5.4-1.9z" />
		<path fill="none" stroke="#000" fill-rule="evenodd" d="m450.2 416.4l-5.3 1.9 5.3 1.9 5.4-1.9z" />
		<path fill="#be0027" d="m480.9 422.8l-1.4 3.6-2.2-3z" />
		<path fill="none" stroke="#000" fill-rule="evenodd" d="m480.9 422.8l-1.4 3.6-2.2-3z" />
		<path fill="#be0027" d="m419.3 422.8l1.4 3.6 2.2-3z" />
		<path fill="none" stroke="#000" fill-rule="evenodd" d="m419.3 422.8l1.4 3.6 2.2-3z" />
		<path fill="#4c86c7" d="m437.2 419.4c0.2 1.1-0.5 2.1-1.5 2.3l-3.6 0.8c-1 0.2-2-0.5-2.2-1.5-0.2-1 0.5-2.1 1.5-2.3l3.6-0.8c1-0.2 2 0.5 2.2 1.5z" />
		<path fill="none" stroke="#000" fill-rule="evenodd" d="m437.2 419.4c0.2 1.1-0.5 2.1-1.5 2.3l-3.6 0.8c-1 0.2-2-0.5-2.2-1.5-0.2-1 0.5-2.1 1.5-2.3l3.6-0.8c1-0.2 2 0.5 2.2 1.5z" />
		<path fill="#4c86c7" d="m463.3 419.4c-0.2 1.1 0.5 2.1 1.5 2.3l3.6 0.8c1 0.2 2-0.5 2.2-1.5 0.2-1-0.5-2.1-1.5-2.3l-3.6-0.8c-1-0.2-2 0.5-2.2 1.5z" />
		<path fill="none" stroke="#000" fill-rule="evenodd" d="m463.3 419.4c-0.2 1.1 0.5 2.1 1.5 2.3l3.6 0.8c1 0.2 2-0.5 2.2-1.5 0.2-1-0.5-2.1-1.5-2.3l-3.6-0.8c-1-0.2-2 0.5-2.2 1.5z" />
		<path fill="#fff" d="m451.9 402.2c0-1.1-0.8-1.9-1.8-1.9-1 0-1.9 0.8-1.9 1.9 0 1.1 0.9 1.9 1.9 1.9 1 0 1.8-0.8 1.8-1.9z" />
		<path fill="none" stroke="#000" fill-rule="evenodd" d="m451.9 402.2c0-1.1-0.8-1.9-1.8-1.9-1 0-1.9 0.8-1.9 1.9 0 1.1 0.9 1.9 1.9 1.9 1 0 1.8-0.8 1.8-1.9z" />
		<path fill="#fff" d="m471.1 404.3c0-1.1-0.8-1.9-1.8-1.9-1 0-1.9 0.8-1.9 1.9 0 1.1 0.9 1.9 1.9 1.9 1 0 1.8-0.8 1.8-1.9z" />
		<path fill="none" stroke="#000" fill-rule="evenodd" d="m471.1 404.3c0-1.1-0.8-1.9-1.8-1.9-1 0-1.9 0.8-1.9 1.9 0 1.1 0.9 1.9 1.9 1.9 1 0 1.8-0.8 1.8-1.9z" />
		<path fill="#fff" d="m488 411.2c0-1.1-0.8-1.9-1.8-1.9-1 0-1.9 0.8-1.9 1.9 0 1 0.9 1.9 1.9 1.9 1 0 1.8-0.9 1.8-1.9z" />
		<path fill="none" stroke="#000" fill-rule="evenodd" d="m488 411.2c0-1.1-0.8-1.9-1.8-1.9-1 0-1.9 0.8-1.9 1.9 0 1 0.9 1.9 1.9 1.9 1 0 1.8-0.9 1.8-1.9z" />
		<path fill="#fff" d="m429.1 404.3c0-1.1 0.8-1.9 1.8-1.9 1 0 1.9 0.8 1.9 1.9 0 1.1-0.9 1.9-1.9 1.9-1 0-1.8-0.8-1.8-1.9z" />
		<path fill="none" stroke="#000" fill-rule="evenodd" d="m429.1 404.3c0-1.1 0.8-1.9 1.8-1.9 1 0 1.9 0.8 1.9 1.9 0 1.1-0.9 1.9-1.9 1.9-1 0-1.8-0.8-1.8-1.9z" />
		<path fill="#fff" d="m412.2 411.2c0-1.1 0.8-1.9 1.9-1.9 1 0 1.8 0.8 1.8 1.9 0 1-0.8 1.9-1.8 1.9-1.1 0-1.9-0.9-1.9-1.9z" />
		<path fill="none" stroke="#000" fill-rule="evenodd" d="m412.2 411.2c0-1.1 0.8-1.9 1.9-1.9 1 0 1.8 0.8 1.8 1.9 0 1-0.8 1.9-1.8 1.9-1.1 0-1.9-0.9-1.9-1.9z" />
		<path fill="#fc0" d="m452 373.3v-7.1h2.3v-3.9h-2.3v-2.5h-3.7v2.5h-2.3v3.9h2.3v7.1h-3.3v2.6h10.2v-2.6z" />
		<path fill="none" stroke="#000" fill-rule="evenodd" d="m452 373.3v-7.1h2.3v-3.9h-2.3v-2.5h-3.7v2.5h-2.3v3.9h2.3v7.1h-3.3v2.6h10.2v-2.6z" />
		<path fill="#0077c8" d="m399 430.3h101.9v92c0 30.4-50.9 30.4-50.9 30.4 0 0-51 0-51-30.4z" />
		<path fill="none" stroke="#000" stroke-linecap="round" stroke-linejoin="round" stroke-width="3.3" fill-rule="evenodd" d="m399 430.3h101.9v92c0 30.4-50.9 30.4-50.9 30.4 0 0-51 0-51-30.4z" />
		<path fill="#c88242" d="m358.1 507.6c5.3 2.2 9.7 6.2 12.7 11.3v0.1c0.6 1.1 1 2.4 1 3.7 0 2-0.8 3.8-1.9 5l-0.1 0.1c-1.3 1.6-2.2 3.7-2.2 6.1 0 4.2 2.7 7.7 6.3 8.6h0.1c4.2 0.9 7.4 5.1 7.4 10.1h-9.3c-2.1 0-4.2-1.2-5.3-3.8-1.7-4.2-6.1-11.5-9.8-13.4 0.1-0.8 1.4-2.7 1.4-3.5 0-5.9-3.7-5.7-8.8-7l-1.6-0.3c0 0 1-4.1 3.4-8.6 2.4-4.5 6.7-8.4 6.7-8.4z" />
		<path fill="none" stroke="#000" stroke-linecap="round" stroke-linejoin="round" stroke-width="2.1" fill-rule="evenodd" d="m358.1 507.6c5.3 2.2 9.7 6.2 12.7 11.3v0.1c0.6 1.1 1 2.4 1 3.7 0 2-0.8 3.8-1.9 5l-0.1 0.1c-1.3 1.6-2.2 3.7-2.2 6.1 0 4.2 2.7 7.7 6.3 8.6h0.1c4.2 0.9 7.4 5.1 7.4 10.1h-9.3c-2.1 0-4.2-1.2-5.3-3.8-1.7-4.2-6.1-11.5-9.8-13.4 0.1-0.8 1.4-2.7 1.4-3.5 0-5.9-3.7-5.7-8.8-7l-1.6-0.3c0 0 1-4.1 3.4-8.6 2.4-4.5 6.7-8.4 6.7-8.4z" />
		<path fill="#c88242" d="m379.8 447l13.3-21.2 0.1-0.1c1.2-1.9 3.3-3.2 5.6-3.2 3.9 0 7 3.4 7 7.7h-7l-5.5 10.8-3.6 16-2 3.1-0.1 0.4" />
		<path fill="none" stroke="#000" stroke-linecap="round" stroke-linejoin="round" stroke-width="2.1" fill-rule="evenodd" d="m379.8 447l13.3-21.2 0.1-0.1c1.2-1.9 3.3-3.2 5.6-3.2 3.9 0 7 3.4 7 7.7h-7l-5.5 10.8-3.6 16-2 3.1-0.1 0.4" />
		<path fill="#c88242" d="m328 521.1q-0.2 1.5-0.2 3.1 0 2 0.3 4v0.1q0.1 0.8 0.1 1.6c0 4.9-2.8 9-6.8 10.6v0.1q-0.1 1.1-0.1 2.2c0 4.6 1.3 8.8 3.6 12.3l0.1 0.2c1.9 2.8 3.2 6 3.8 9.5 0.8 3.6 3.5 5 5.5 5h11c0-5.7-4.2-10.3-9.4-10.3h-0.1c-2-2.3-3.3-5.4-3.3-8.9 0-5.3 3-9.8 7.2-11.7l0.1-0.1c5-2.3 8.5-7.7 8.5-14v-0.1c4.4-13.6 13.6-24.7 25.4-30.7l0.1-0.1c8.7-4.1 14.8-13.7 14.8-24.8 0-8.5-3.6-16.1-9.3-21.1 0 0 0.1-9.9 0.1-12.3 1.2-1.1 2.2-1.9 5.1-4.3 3.9-3.2 6.6-5.4 7.5-10.1 0.5-3 2-13-1.8-12.4-3.9 0.6-9.5 3.1-9.5 3.1-2.2-1-2.8-2.2-5.3-2.2-1.7 0-4.8 0.9-6.4 1.3-8.5 2.4-14.7 10.9-14.7 20.9l0.1 23.9c0 17.2-7.9 32.3-20 41.3v0.1c-5.1 3.7-8.8 9.4-10.3 16.1l-0.1 0.2c-0.7 3-3.2 4.7-5.4 4.7-2.3 0-4.5-0.9-6.2-2.8-3.4-3.7-3.4-9.8 0-13.6 1.1-1.2 1.1-3.3 0-4.5-1.2-1.3-3.1-1.3-4.2 0-5.7 6.2-5.7 16.5 0 22.7 5.4 6 14 6.3 19.8 1 0.3-3 1-5.8 2.2-8.4-1.2 2.6-1.9 5.4-2.2 8.4z" />
		<path fill="none" stroke="#000" stroke-linecap="round" stroke-linejoin="round" stroke-width="2.1" fill-rule="evenodd" d="m328 521.1q-0.2 1.5-0.2 3.1 0 2 0.3 4v0.1q0.1 0.8 0.1 1.6c0 4.9-2.8 9-6.8 10.6v0.1q-0.1 1.1-0.1 2.2c0 4.6 1.3 8.8 3.6 12.3l0.1 0.2c1.9 2.8 3.2 6 3.8 9.5 0.8 3.6 3.5 5 5.5 5h11c0-5.7-4.2-10.3-9.4-10.3h-0.1c-2-2.3-3.3-5.4-3.3-8.9 0-5.3 3-9.8 7.2-11.7l0.1-0.1c5-2.3 8.5-7.7 8.5-14v-0.1c4.4-13.6 13.6-24.7 25.4-30.7l0.1-0.1c8.7-4.1 14.8-13.7 14.8-24.8 0-8.5-3.6-16.1-9.3-21.1 0 0 0.1-9.9 0.1-12.3 1.2-1.1 2.2-1.9 5.1-4.3 3.9-3.2 6.6-5.4 7.5-10.1 0.5-3 2-13-1.8-12.4-3.9 0.6-9.5 3.1-9.5 3.1-2.2-1-2.8-2.2-5.3-2.2-1.7 0-4.8 0.9-6.4 1.3-8.5 2.4-14.7 10.9-14.7 20.9l0.1 23.9c0 17.2-7.9 32.3-20 41.3v0.1c-5.1 3.7-8.8 9.4-10.3 16.1l-0.1 0.2c-0.7 3-3.2 4.7-5.4 4.7-2.3 0-4.5-0.9-6.2-2.8-3.4-3.7-3.4-9.8 0-13.6 1.1-1.2 1.1-3.3 0-4.5-1.2-1.3-3.1-1.3-4.2 0-5.7 6.2-5.7 16.5 0 22.7 5.4 6 14 6.3 19.8 1 0.3-3 1-5.8 2.2-8.4-1.2 2.6-1.9 5.4-2.2 8.4z" />
		<path fill="#c88242" d="m360.4 424.9c0 0-1.4 4.5 0.6 9 1.4 3.1 4.2 4.9 7.1 4.9 1.8-2.6 2.3-6.1 0.9-9.2-0.1-0.3-3.3-7.4-3.3-7.4" />
		<path fill="none" stroke="#000" stroke-linecap="round" stroke-linejoin="round" stroke-width="2.1" fill-rule="evenodd" d="m360.4 424.9c0 0-1.4 4.5 0.6 9 1.4 3.1 4.2 4.9 7.1 4.9 1.8-2.6 2.3-6.1 0.9-9.2-0.1-0.3-3.3-7.4-3.3-7.4" />
		<path fill="#000" d="m377.8 418.4c-0.9 0.4-1.8 0.5-2.6 0.3 0.5-0.7 1.2-1.4 2.1-1.8z" />
		<path fill="none" stroke="#000" stroke-width="2.1" fill-rule="evenodd" d="m377.8 418.4c-0.9 0.4-1.8 0.5-2.6 0.3 0.5-0.7 1.2-1.4 2.1-1.8z" />
		<path fill="#c88242" d="m377.7 465.3c5.8 3.3 12.2-0.1 15.3-5.6 1.2-2 0.6-5.2 1.2-7.1v-0.2c0.7-2 2.6-3.6 4.7-3.6v16c0 0-1.4 1.5-5 5.5-3.6 3.9-7.6 9.6-11.8 8.3-4.2-1.3-17.9-4.8-17.9-4.8" />
		<path fill="none" stroke="#000" stroke-linecap="round" stroke-linejoin="round" stroke-width="2.1" fill-rule="evenodd" d="m377.7 465.3c5.8 3.3 12.2-0.1 15.3-5.6 1.2-2 0.6-5.2 1.2-7.1v-0.2c0.7-2 2.6-3.6 4.7-3.6v16c0 0-1.4 1.5-5 5.5-3.6 3.9-7.6 9.6-11.8 8.3-4.2-1.3-17.9-4.8-17.9-4.8" />
		<path fill="#000" d="m386.5 409.3c0 3.5 2.6 6.4 5.8 6.4v-4.1c0-1.7-0.5-2.5-2.1-2.3h-1.8z" />
		<path fill="none" stroke="#000" stroke-width="1.1" fill-rule="evenodd" d="m386.5 409.5c0 3.5 2.6 6.4 5.8 6.4v-4.2c0-1.6-0.5-2.5-2.1-2.2h-1.8z" />
		<path fill="#000" d="m392.1 420.1c0 0-3.9 4.3-8.8 5.7" />
		<path fill="none" stroke="#000" stroke-linecap="round" stroke-linejoin="round" stroke-width="2.1" fill-rule="evenodd" d="m392.1 420.1c0 0-3.9 4.3-8.8 5.7" />
		<path fill="#fff" d="m465.6 540.9l-11.9-13.6c-2.1-2.4-5.5-2.4-7.6 0l-11.9 13.6z" />
		<path fill="none" stroke="#000" stroke-width="2.2" fill-rule="evenodd" d="m465.6 540.9l-11.9-13.6c-2.1-2.4-5.5-2.4-7.6 0l-11.9 13.6z" />
		<path fill="#fff" d="m443.1 458.7l-12-13.6c-2.1-2.4-5.4-2.4-7.5 0l-11.9 13.6z" />
		<path fill="none" stroke="#000" stroke-width="2.2" fill-rule="evenodd" d="m443.1 458.7l-12-13.6c-2.1-2.4-5.4-2.4-7.5 0l-11.9 13.6q15.7 0 31.4 0z" />
		<path fill="#fff" d="m488.3 458.7l-11.9-13.6c-2.1-2.4-5.5-2.4-7.6 0l-11.9 13.6z" />
		<path fill="none" stroke="#000" stroke-width="2.2" fill-rule="evenodd" d="m488.3 458.7l-11.9-13.6c-2.1-2.4-5.5-2.4-7.6 0l-11.9 13.6q15.7 0 31.4 0z" />
		<path fill="#fff" d="m443.1 485.9l-12-13.6c-2.1-2.4-5.4-2.4-7.5 0l-11.9 13.6z" />
		<path fill="none" stroke="#000" stroke-width="2.2" fill-rule="evenodd" d="m443.1 485.9l-12-13.6c-2.1-2.4-5.4-2.4-7.5 0l-11.9 13.6q15.7 0 31.4 0z" />
		<path fill="#fff" d="m488.3 485.9l-11.9-13.6c-2.1-2.4-5.5-2.4-7.6 0l-11.9 13.6z" />
		<path fill="none" stroke="#000" stroke-width="2.2" fill-rule="evenodd" d="m488.3 485.9l-11.9-13.6c-2.1-2.4-5.5-2.4-7.6 0l-11.9 13.6q15.7 0 31.4 0z" />
		<path fill="#fff" d="m443.1 513.5l-12-13.6c-2.1-2.4-5.4-2.4-7.5 0l-11.9 13.6z" />
		<path fill="none" stroke="#000" stroke-width="2.2" fill-rule="evenodd" d="m443.1 513.5l-12-13.6c-2.1-2.4-5.4-2.4-7.5 0l-11.9 13.6z" />
		<path fill="#fff" d="m488.3 513.5l-11.9-13.6c-2.1-2.4-5.5-2.4-7.6 0l-11.9 13.6z" />
		<path fill="none" stroke="#000" stroke-width="2.2" fill-rule="evenodd" d="m488.3 513.5l-11.9-13.6c-2.1-2.4-5.5-2.4-7.6 0l-11.9 13.6z" />
		<path fill="#768692" d="m501.7 345c4 8.3 18.3 10.7 23.1 10.6 2.4-0.1 4.7-0.5 6.8-1.4q-0.4 1.1-0.9 2.2c-2 4.6-5.9 8.2-10.7 9.6 1.6 5 5.1 6.8 8.9 8.4-4.2 1.3-31.5 3.7-49.1-15.2" />
		<path fill="none" stroke="#000" stroke-linecap="round" stroke-linejoin="round" stroke-width="2.2" fill-rule="evenodd" d="m501.7 345c4 8.3 18.3 10.7 23.1 10.6 2.4-0.1 4.7-0.5 6.8-1.4q-0.4 1.1-0.9 2.2c-2 4.6-5.9 8.2-10.7 9.6 1.6 5 5.1 6.8 8.9 8.4-4.2 1.3-31.5 3.7-49.1-15.2" />
		<path fill="#768692" d="m397.8 345c-3.9 8.3-18.3 10.7-23.1 10.6-2.4-0.1-4.7-0.5-6.7-1.4q0.3 1.1 0.8 2.2c2 4.6 5.9 8.2 10.7 9.6-1.6 5-5.1 6.8-8.8 8.4 4.1 1.3 31.4 3.7 49-15.2" />
		<path fill="none" stroke="#000" stroke-linecap="round" stroke-linejoin="round" stroke-width="2.2" fill-rule="evenodd" d="m397.8 345c-3.9 8.3-18.3 10.7-23.1 10.6-2.4-0.1-4.7-0.5-6.7-1.4q0.3 1.1 0.8 2.2c2 4.6 5.9 8.2 10.7 9.6-1.6 5-5.1 6.8-8.8 8.4 4.1 1.3 31.4 3.7 49-15.2" />
		<path fill="#768692" d="m482.6 354.4l-2.8 5c0 0 3.3 0.9 6.7 1.7 3.4 0.9 5 0.2 7.4-2.5 2.8-3.3 5.8-8.2 5.8-8.2l0.1-0.1c1.2-1.8 1.8-4 1.8-6.4 0-5.6-3.9-10.3-9-11.4h-0.1c-13.8-2.6-27.9-3.9-42.4-3.9h-0.6c-14.5 0-28.7 1.3-42.4 3.9h-0.2c-5.1 1.1-9 5.8-9 11.4 0 2.4 0.7 4.6 1.9 6.4v0.1c0 0 3 4.9 5.8 8.2 2.4 2.7 4.1 3.4 7.5 2.5 3.4-0.8 6.6-1.7 6.6-1.7l-2.8-5-0.4-0.8-5.4 0.8c12.5-2.3 25.3-3.5 38.4-3.5h0.6c13.1 0 25.9 1.2 38.3 3.5l-5.3-0.8z" />
		<path fill="none" stroke="#000" stroke-linecap="round" stroke-linejoin="round" stroke-width="2.2" fill-rule="evenodd" d="m482.6 354.4l-2.8 5c0 0 3.3 0.9 6.7 1.7 3.4 0.9 5 0.2 7.4-2.5 2.8-3.3 5.8-8.2 5.8-8.2l0.1-0.1c1.2-1.8 1.8-4 1.8-6.4 0-5.6-3.9-10.3-9-11.4h-0.1c-13.8-2.6-27.9-3.9-42.4-3.9h-0.6c-14.5 0-28.7 1.3-42.4 3.9h-0.2c-5.1 1.1-9 5.8-9 11.4 0 2.4 0.7 4.6 1.9 6.4v0.1c0 0 3 4.9 5.8 8.2 2.4 2.7 4.1 3.4 7.5 2.5 3.4-0.8 6.6-1.7 6.6-1.7l-2.8-5-0.4-0.8-5.4 0.8c12.5-2.3 25.3-3.5 38.4-3.5h0.6c13.1 0 25.9 1.2 38.3 3.5l-5.3-0.8z" />
		<path fill="#000" fill-rule="evenodd" d="m416.7 348.8c-2.2 0.5-4.5-0.4-5.3-3.9-0.6-3.1 1.2-5.4 3.3-5.9 2.2-0.4 4.5 0.4 5.3 4 0.6 3.1-1.2 5.4-3.3 5.8zm-1.9-8.5c-1 0.2-1.7 1.1-1 4.1 0.6 3 1.8 3.4 2.8 3.2 1-0.2 1.7-1.1 1-4.2-0.6-3-1.7-3.4-2.8-3.1z" />
		<path fill="#000" d="m433.1 345.6c-0.4 0.2-1.3 0.7-2.2 0.8-3 0.4-5.4-1.4-5.8-4.2-0.4-3.1 1.6-5.3 4.7-5.7 0.5-0.1 1.3-0.1 1.8 0 0.1 0 0.2 0.1 0.2 0.2l0.3 2.2q0 0.2-0.2 0.2l-0.5 0.1q-0.2 0-0.3-0.1l-0.2-0.8c-0.2-0.4-0.6-0.6-1.3-0.5-1.9 0.3-2.4 2-2.1 3.7 0.2 2 1.4 3.7 3.7 3.4 0.5 0 1.1-0.3 1.4-0.5 0.1-0.1 0.2 0 0.3 0.1l0.2 0.8c0.1 0.1 0.1 0.3 0 0.3z" />
		<path fill="#000" d="m445.9 344.7c0 0.2 0 0.3-0.1 0.3l-7.1 0.4q-0.2 0-0.2-0.2v-0.4q0-0.2 0.2-0.3l0.6-0.2c0.2 0 0.3-0.1 0.3-0.4l-0.4-6.6c0-0.3-0.1-0.4-0.3-0.4l-0.7-0.1q-0.2-0.1-0.2-0.2v-0.5q0-0.2 0.2-0.2l6.8-0.4c0.1 0 0.2 0.1 0.2 0.2l0.1 1.9q0 0.2-0.2 0.2h-0.4q-0.2 0-0.3-0.2l-0.1-0.5q-0.1-0.3-0.5-0.3l-2.2 0.1c-0.1 0-0.2 0.1-0.2 0.2l0.2 2.3c0 0.1 0 0.2 0.1 0.2l3.1-0.2q0.2 0 0.2 0.2v0.8q0 0.2-0.1 0.2l-3.1 0.2q-0.1 0-0.1 0.2l0.1 2.5c0 0.4 0.2 0.5 0.5 0.5l2.1-0.1c0.3 0 0.5-0.2 0.5-0.5l0.1-0.5q0.1-0.2 0.2-0.2h0.5q0.2 0 0.2 0.2z" />
		<path fill="#000" fill-rule="evenodd" d="m461.3 345.1l-4-0.1q-0.2 0-0.2-0.2v-0.5c0-0.1 0.1-0.2 0.2-0.2l0.7-0.1c0.2 0 0.3-0.2 0.2-0.5l-0.3-1c0-0.1-0.1-0.2-0.2-0.2l-3.3-0.1c-0.1 0-0.1 0.1-0.2 0.2l-0.4 1c-0.1 0.3 0 0.5 0.2 0.5l0.7 0.1q0.2 0.1 0.2 0.3v0.4c-0.1 0.1-0.1 0.2-0.3 0.2l-3.2-0.1q-0.3 0-0.3-0.2l0.1-0.4q-0.1-0.2 0.2-0.2l0.4-0.2c0.1 0 0.2-0.1 0.4-0.4l3.4-8.1c0 0 0-0.1 0.1-0.1h2q0 0.1 0.1 0.2l2.7 8.2c0.2 0.3 0.2 0.4 0.4 0.5l0.4 0.1q0.2 0.1 0.2 0.3v0.4q0 0.2-0.2 0.2zm-4.7-6.9c-0.2-0.7-0.3-1.1-0.3-1.4-0.1 0.2-0.2 0.8-0.4 1.4l-1.1 2.7c0 0.1 0 0.1 0.1 0.1l2.4 0.1q0.2 0 0.1-0.2z" />
		<path fill="#000" d="m476.6 337.9l-0.7 0.1c-0.1 0-0.2 0.1-0.2 0.4l-0.9 7.9c0 0.1-0.1 0.1-0.2 0.1l-1.1-0.1c-0.2 0-0.2 0-0.3-0.1l-3.1-5.5c-0.2-0.4-0.5-1.1-0.5-1.2h-0.1l-0.5 4.8c0 0.3 0.1 0.4 0.2 0.4l0.8 0.3q0.2 0 0.2 0.2l-0.1 0.4q0 0.2-0.2 0.2l-3.6-0.4q-0.2 0-0.2-0.2v-0.4c0-0.1 0.1-0.2 0.2-0.2l0.7-0.1c0.2 0 0.3-0.1 0.3-0.4l0.8-6.5c0-0.3-0.1-0.5-0.2-0.5l-0.7-0.2c-0.1-0.1-0.2-0.2-0.2-0.3l0.1-0.4q0-0.2 0.2-0.2l2.9 0.3c0.2 0 0.3 0.1 0.4 0.3l2.2 4.3c0.4 0.6 0.6 1 0.7 1.3l0.5-4c0-0.3-0.1-0.4-0.2-0.5l-0.8-0.2q-0.2-0.1-0.2-0.3l0.1-0.4q0-0.2 0.2-0.2l3.6 0.4q0.2 0.1 0.2 0.3v0.4c0 0.1-0.1 0.2-0.3 0.2z" />
		<path fill="#000" fill-rule="evenodd" d="m484.9 348.3c-2.1-0.4-4-2.1-3.3-5.7 0.6-3.1 3.2-4.5 5.3-4.1 2.2 0.5 4 2.1 3.3 5.7-0.6 3.1-3.2 4.5-5.3 4.1zm1.6-8.6c-1-0.2-2 0.4-2.6 3.4-0.6 3 0.3 3.8 1.4 4 1 0.3 2-0.3 2.6-3.4 0.6-3-0.3-3.8-1.4-4z" />
		<path fill="#c09b5a" d="m542 507.6c-5.3 2.2-9.7 6.2-12.7 11.3v0.1c-0.6 1.1-1 2.4-1 3.7 0 2 0.7 3.8 1.9 5l0.1 0.1c1.3 1.6 2.2 3.7 2.2 6.1 0 4.2-2.7 7.7-6.3 8.6-4.3 0.9-7.5 5.1-7.5 10.1h9.3c2.1 0 4.2-1.2 5.3-3.8 1.7-4.2 6.1-11.5 9.8-13.4-0.1-0.7-1.4-2.7-1.4-3.5 0-5.9 3.7-5.7 8.8-7l1.6-0.3c0 0-0.9-4-3.4-8.6-2.4-4.4-6.7-8.4-6.7-8.4z" />
		<path fill="none" stroke="#000" stroke-linecap="round" stroke-linejoin="round" stroke-width="2.1" fill-rule="evenodd" d="m542 507.6c-5.3 2.2-9.7 6.2-12.7 11.3v0.1c-0.6 1.1-1 2.4-1 3.7 0 2 0.7 3.8 1.9 5l0.1 0.1c1.3 1.6 2.2 3.7 2.2 6.1 0 4.2-2.7 7.7-6.3 8.6-4.3 0.9-7.5 5.1-7.5 10.1h9.3c2.1 0 4.2-1.2 5.3-3.8 1.7-4.2 6.1-11.5 9.8-13.4-0.1-0.7-1.4-2.7-1.4-3.5 0-5.9 3.7-5.7 8.8-7l1.6-0.3c0 0-0.9-4-3.4-8.6-2.4-4.4-6.7-8.4-6.7-8.4z" />
		<path fill="#c09b5a" d="m520.3 447l-13.3-21.2-0.1-0.1c-1.2-1.9-3.3-3.2-5.6-3.2-3.9 0-7 3.4-7 7.6h7l5.5 10.9 3.6 16 2 3.1 0.1 0.4" />
		<path fill="#c88242" stroke="#000" stroke-linecap="round" stroke-linejoin="round" stroke-width="2.1" d="m520.3 447l-13.3-21.2-0.1-0.1c-1.2-1.9-3.3-3.2-5.6-3.2-3.9 0-7 3.4-7 7.6h7l5.5 10.9 3.6 16 2 3.1 0.1 0.4" />
		<path fill="#c88242" d="m572.1 521.1q0.1 1.5 0.1 3.1 0 2-0.2 4v0.1q-0.1 0.8-0.1 1.6c0 4.8 2.8 9 6.8 10.6v0.1q0.1 1.1 0.1 2.2c0 4.6-1.4 8.8-3.7 12.2l-0.1 0.3c-1.8 2.8-3.1 6-3.7 9.5-0.8 3.6-3.5 5-5.6 5h-10.9c0-5.7 4.2-10.3 9.3-10.3h0.1c2.1-2.3 3.3-5.4 3.3-8.9 0-5.3-2.9-9.8-7.2-11.7v-0.1c-5-2.3-8.5-7.7-8.5-14l-0.1-0.2c-4.3-13.5-13.6-24.6-25.4-30.6v-0.1c-8.7-4.1-14.8-13.7-14.8-24.8 0-8.5 3.6-16.1 9.2-21 0 0 0-10 0-12.4-1.2-1.1-2.2-1.9-5.2-4.3-3.9-3.2-6.5-5.4-7.4-10.1-0.5-3-2.1-13 1.8-12.4 3.8 0.6 9.4 3.1 9.4 3.1 2.3-1 2.9-2.2 5.4-2.2 1.7 0 4.8 0.9 6.3 1.3 8.5 2.4 14.8 10.9 14.8 20.9l-0.2 23.9c0 17.2 7.9 32.4 20 41.4h0.1c5 3.7 8.8 9.4 10.3 16.1v0.2c0.7 3 3.3 4.8 5.5 4.8 2.2 0 4.5-1 6.2-2.9 3.4-3.7 3.4-9.8 0-13.6-1.2-1.2-1.2-3.3 0-4.5 1.1-1.3 3-1.3 4.2 0 5.7 6.2 5.7 16.5 0 22.7-5.4 6-14.1 6.3-19.8 1-0.3-3-1.1-5.8-2.2-8.4 1.1 2.6 1.9 5.4 2.2 8.4z" />
		<path fill="none" stroke="#000" stroke-linecap="round" stroke-linejoin="round" stroke-width="2.1" fill-rule="evenodd" d="m572.1 521.1q0.1 1.5 0.1 3.1 0 2-0.2 4v0.1q-0.1 0.8-0.1 1.6c0 4.8 2.8 9 6.8 10.6v0.1q0.1 1.1 0.1 2.2c0 4.6-1.4 8.8-3.7 12.2l-0.1 0.3c-1.8 2.8-3.1 6-3.7 9.5-0.8 3.6-3.5 5-5.6 5h-10.9c0-5.7 4.2-10.3 9.3-10.3h0.1c2.1-2.3 3.3-5.4 3.3-8.9 0-5.3-2.9-9.8-7.2-11.7v-0.1c-5-2.3-8.5-7.7-8.5-14l-0.1-0.2c-4.3-13.5-13.6-24.6-25.4-30.6v-0.1c-8.7-4.1-14.8-13.7-14.8-24.8 0-8.5 3.6-16.1 9.2-21 0 0 0-10 0-12.4-1.2-1.1-2.2-1.9-5.2-4.3-3.9-3.2-6.5-5.4-7.4-10.1-0.5-3-2.1-13 1.8-12.4 3.8 0.6 9.4 3.1 9.4 3.1 2.3-1 2.9-2.2 5.4-2.2 1.7 0 4.8 0.9 6.3 1.3 8.5 2.4 14.8 10.9 14.8 20.9l-0.2 23.9c0 17.2 7.9 32.4 20 41.4h0.1c5 3.7 8.8 9.4 10.3 16.1v0.2c0.7 3 3.3 4.8 5.5 4.8 2.2 0 4.5-1 6.2-2.9 3.4-3.7 3.4-9.8 0-13.6-1.2-1.2-1.2-3.3 0-4.5 1.1-1.3 3-1.3 4.2 0 5.7 6.2 5.7 16.5 0 22.7-5.4 6-14.1 6.3-19.8 1-0.3-3-1.1-5.8-2.2-8.4 1.1 2.6 1.9 5.4 2.2 8.4z" />
		<path fill="#c88242" d="m539.7 424.9c0 0 1.4 4.5-0.6 9-1.3 3.1-4.2 4.9-7.1 4.9-1.8-2.6-2.3-6.1-0.9-9.2 0.2-0.3 3.3-7.4 3.3-7.4" />
		<path fill="none" stroke="#000" stroke-linecap="round" stroke-linejoin="round" stroke-width="2.1" fill-rule="evenodd" d="m539.7 424.9c0 0 1.4 4.5-0.6 9-1.3 3.1-4.2 4.9-7.1 4.9-1.8-2.6-2.3-6.1-0.9-9.2 0.2-0.3 3.3-7.4 3.3-7.4" />
		<path fill="#c0a151" d="m522.3 418.4c0.9 0.4 1.8 0.4 2.5 0.3-0.4-0.7-1.1-1.4-2-1.8z" />
		<path fill="none" stroke="#000" stroke-width="2.1" fill-rule="evenodd" d="m522.3 418.4c0.9 0.4 1.8 0.4 2.5 0.3-0.4-0.7-1.1-1.4-2-1.8z" />
		<path fill="#c88242" d="m522.4 465.3c-5.8 3.3-12.2 0-15.4-5.6-1.1-2-0.5-5.2-1.1-7.1l-0.1-0.1c-0.7-2.1-2.5-3.7-4.6-3.7l-0.1 16c0 0 1.4 1.5 5.1 5.5 3.6 4 7.6 9.6 11.7 8.3 4.2-1.3 17.9-4.8 17.9-4.8" />
		<path fill="none" stroke="#000" stroke-linecap="round" stroke-linejoin="round" stroke-width="2.1" fill-rule="evenodd" d="m522.4 465.3c-5.8 3.3-12.2 0-15.4-5.6-1.1-2-0.5-5.2-1.1-7.1l-0.1-0.1c-0.7-2.1-2.5-3.7-4.6-3.7l-0.1 16c0 0 1.4 1.5 5.1 5.5 3.6 4 7.6 9.6 11.7 8.3 4.2-1.3 17.9-4.8 17.9-4.8" />
		<path fill="#000" d="m513.6 409.3c0 3.5-2.6 6.4-5.8 6.4v-4.1c0-1.7 0.5-2.6 2-2.3h1.9z" />
		<path fill="none" stroke="#000" stroke-width="1.1" fill-rule="evenodd" d="m513.6 409.5c0 3.5-2.6 6.4-5.8 6.4v-4.1c0-1.7 0.5-2.6 2-2.3h1.9z" />
		<path fill="none" stroke="#000" stroke-linecap="round" stroke-linejoin="round" stroke-width="2.1" fill-rule="evenodd" d="m508 420.1c0 0 3.9 4.3 8.7 5.7" />
		<path fill="#fff" d="m425.8 423.6c-0.2-0.1-0.5-0.2-0.7-0.4-0.3-0.3-0.4-0.6-0.4-0.9-0.1-0.6 0.4-1.3 1-1.4 0.2-0.1 0.5-0.1 0.7 0 0.6 0.1 1 0.7 1 1.3 0 0.8-0.8 1.5-1.6 1.4z" />
		<path fill="#fff" d="m440.7 420.2q-0.4-0.1-0.7-0.5c-0.4-0.4-0.4-1.1-0.1-1.6 0.6-1 2-0.8 2.4 0.3 0 0.2 0 0.6 0 0.9-0.3 0.6-1 1-1.6 0.9z" />
		<path fill="#fff" d="m474.2 423.6c-0.5-0.1-0.9-0.5-1.1-1 0-0.2 0-0.6 0-0.8 0.1-0.4 0.5-0.8 0.9-0.9 0.2-0.1 0.5-0.1 0.7-0.1 0.4 0.1 0.7 0.4 0.9 0.8 0.1 0.1 0.1 0.4 0.1 0.6 0 0.2 0 0.4-0.1 0.6-0.3 0.5-0.9 0.9-1.4 0.8z" />
		<path fill="#fff" d="m459.2 420.2c-0.2 0-0.4-0.1-0.5-0.2-0.8-0.6-0.8-1.9 0.2-2.4 0.4-0.2 0.9-0.2 1.3 0.1 0.9 0.6 0.7 2-0.3 2.4-0.2 0.1-0.5 0.1-0.7 0.1z" />
		<path fill="#c88242" d="m520.7 549.2c1.3-3 1.9-3.6 5.7-5.4 4-1.9 6-3.8 6.9-7 0.8-2.9 0.3-5.9-1.7-9.2-2.2-3.8-2.4-4.8-1.2-7.6 1.3-2.9 5.7-7.7 9-9.6l2.2-1.3 1.9 2.3c2.3 2.7 6.3 10.8 5.9 11.9-0.1 0.4-1.2 0.9-2.4 1.1-4.8 1-6.8 3.6-6.2 8.1 0.3 2.2 0.2 2.7-1.1 3.9-1.8 1.7-5.2 6.8-7.1 10.7-0.9 1.7-2 3.3-2.6 3.7-0.6 0.3-3.1 0.6-5.6 0.6h-4.6z" />
	</g>
</svg>