<?xml version="1.0" encoding="UTF-8"?>
<svg id="Layer_1" data-name="Layer 1" xmlns="http://www.w3.org/2000/svg" viewBox="0 0 450 450">
  <defs>
    <style>
      .cls-1, .cls-2, .cls-3 {
        fill: none;
      }

      .cls-1, .cls-2, .cls-3, .cls-4, .cls-5, .cls-6, .cls-7, .cls-8, .cls-9, .cls-10, .cls-11 {
        stroke-miterlimit: 3.78;
        stroke-width: .94px;
      }

      .cls-1, .cls-4, .cls-5, .cls-11 {
        stroke: #010101;
      }

      .cls-2, .cls-6, .cls-7, .cls-8, .cls-9, .cls-10 {
        stroke: #1a2f2e;
      }

      .cls-3 {
        stroke: #121f1f;
      }

      .cls-12 {
        fill: #fff;
      }

      .cls-13, .cls-5, .cls-6 {
        fill: #da1f27;
      }

      .cls-4, .cls-7 {
        fill: #fbdd03;
      }

      .cls-8 {
        fill: #752d64;
      }

      .cls-9 {
        fill: #e8e7e7;
      }

      .cls-10 {
        fill: #1a2f2e;
      }

      .cls-11 {
        fill: #274da1;
      }
    </style>
  </defs>
  <rect class="cls-13" x="1" y=".46" width="450" height="450"/>
  <rect class="cls-12" x="1" y="225" width="224" height="225.46"/>
  <rect class="cls-12" x="225" y=".46" width="226" height="224.54"/>
  <g>
    <g id="lion">
      <path class="cls-8" d="M83.99,302.52c-3.8-5.29-11.82-8.88-9.59-16.58-1.05,0-.63-7.5-.89-8.19l-4.65-2.76,.3,4.93-7.32-1.58-.09,7.31-1.98,2.47,2.47,5.08c.1-.05,.1,1.53,3.36,1.43,0,0-.59,1.6,1.58,4.56-.71,5.67,3.67,8.16,6.03,12.22,2.61-3.2,4.4-6.68,10.78-8.88h0Z"/>
      <path class="cls-8" d="M115.3,260.5c-3.21-2.65-10.37,1.8-5.46,3.35-1.03,.98-.56,1.95,0,2.93l7.41,4.05c-1.07,1.64-.77,3.39,1.4,5.3-.91,2.65-2.77,2-5.18-.56h-4.34c-3.16,1.49-2.2,2.98-.84,4.47-3.06,3.2-.52,6.32,3.5,2.09l2.66,2.51c-.49,5.49-14.16,7.94-8.95,.7-8.03-2.8-7.15,3.42-3.89,8.35-4.26,.5-12.98,2.53-7.3-4.3-9.5,.97-9.01,8.07-2.24,11.58-6.59,1.3-13.37,1.05-18.88,10.89-5.66,5.01-8.18-.05-7.23,1.48,1.58,2.54,4.94,8.43,9.52,1.49-1.51,16.85-6.86,17.04-7.41,15.88-.57-1.21,2.02,9.29,7.85-1.5,3.96,11.29-.9,9.62-2.03,10.09-1.22,.51,2.19,6.01,8.54-1.36l4.76-6.28c-6.29,6.03-9.52,20.9-19.6,17.33l-2.94,1.4,1.13,3.74,5.04,1.95c-4.66-.87-7.09,.04-6.15,3.63,2.21,4.09,6.01,8.99,5.88,.98-.08,5.2,2.44,6.32,4.9,7.54,3.35,.74,3.11-4.94,.84-5.02-.09-3.08,.86-5.18,3.64-5.58,2.77,3.19,3.41-.5,4.48-2.65,3.8,.4,3.5-.86,4.2-4.47l7.41-2.37c5.43,8.66,15.44,8.82,26.02,7.95,2.91,1.3,3.58,2.61,3.36,3.91-17.58,7.01-11.79-9.51-35.53,5.3-.79,.23-1.59,.56-2.38-.7-.97,1.84-1.95,3.42,1.26,5.58,1.15,3.54,.42,6.46-4.34,8.09,3.22,6,5.92,4.11,8.39-1.4,.73,4.08,3.97,8.74-.56,11.58,2.13,1.69,4.25,2.95,6.01,.28l-.08,4.1c-11.68,9.11-11.78-5.22-14.13-2.37-.7,1.56-.86,3.88-3,3.29-4.87,2.83,2.31,4.4,3.78,6.56l-5.74-3.77-3.08,.14c.44,1.28,.88,2.57-.14,3.49,.19,2.56-.19,5.4,5.04,5.44,1.88,1.33,3.72,2.68,3.78,4.75,7.86-.6,7.02-3.37,9.51-5.3,1.21,6.37,3.95-3.1,5.95-4.98,1.23,.52,1.51,2.77,.91,4.38,3.5-4.88,8.26-10.81,9.89-16.44-1.55-1.18-2.23-2.48-3.04-5.15-3.36-10.38,6.09-12.38,17.9-14.93-5.66,4.52-14.06,14.09-8.81,21.63,.41,2.63,1.12,5.43-1.47,6.36,2.98,2.06,4.38-1.58,5.1-3.79,1.76,2.95,7.88,7.68,7.25,11.34,.76,.76,5.6-1.74,3.78-6.14,3.74-.72,5.39-1.64,10.95-3.58,4.97,.85,11.54,15.52-.14,10.47-1.58-1.31-3.46-1.79-6.15-.14,.52,1.04,.53,2.58-.14,4.19-.11,4.33,6.32-.63,7.69-.42-10.37,3.38-4.44,1.4-3.22,7.26,2.66,3.87,4.44-1.62,10.77-5.3l-1.96,1.81,.28,6.98c8.75,.56,7.54-8.46,10.53-12.76,.68-.97,2.22-1.6,3.03-2.29-4.5-.3-8.53-6.95-4.77-10.1-2.78-2.5-8.56-4.67-5.33-8.5-4.55-3.92-3.76-5.48-11.47-.56-2.87-1.9-6.75-4-4.43-6.82,6.53-4.69,6.92-9.89,9.23-14.93,39.82-14.43-20.85-58.11,5.81-60.89,.53,4.49-.47,9.08,1.32,13.57,3.17,1.22,5.32,1.81,6.43,4.75l2.22,5.72c-.12-3.27,1.79-7.26-.28-9.81-2.33-2.87-1.83-5.06-1.82-7.06,1.48-3.57-.23-5.1-.58-6.76-6-6.79-8.59-5.34-11.08-4.31-8.82,3.65-9.12,14.77-3.08,23.57,12.71,18.5,18.42,34.41,.09,35.78-5.17-6.7-18.67-6.75-21.98-32.39,.34-3.11,2.45-3.12,4.2-3.77l2.52-1.95c-6.99-4.29,1.73-17.45,7.83-10.05-.3-5.21-.71-13.82,2.08-18.26,.6-1.19,2.24,.72,3.47,1.42-1.73-1.89-2.48-13.69,3.96-9.53,2.27-.62,2.01-2.94,1.59-2.2-1.07,1.88-4.47-.54-4.72-7.04-2.52-5.22-7.27-11-10.85-13.78-3.1-.43-5.99-1.95-9.79,1.12h-3.08l-1.26,.98c-.23-1.35-2.13-1.37-4.2-1.26h0Z"/>
      <path class="cls-2" d="M61.83,285.46c3.29,1.22,5.69,3.2,7.23,5.9"/>
      <path class="cls-2" d="M68.96,279.92c-.12,2.24-1.46,4.47,.99,6.71"/>
      <path class="cls-2" d="M125.17,261.63s2.82,2.93,3.08,7.68"/>
      <path class="cls-9" d="M125.59,262.81s-6.31,5.09,2.22,5.23c1.06-2-2.22-5.23-2.22-5.23Z"/>
      <path class="cls-2" d="M110.77,262.33c.36,2.23,2.27,2.79,2.38,2.79"/>
      <path class="cls-2" d="M135.95,274.61s3.8,2.7,1.56,6.33"/>
      <path class="cls-2" d="M120.89,271.54c.17,1.73,2.87,4.84,5.12,5.72"/>
      <path class="cls-2" d="M118.46,300.01c-2.69,5.32,.97,4.5,2.89,3.81,1.32-.47,1.12,6.35-6.8,3.86-3.46-2.47-2.2-6.86-.21-9.14"/>
      <path class="cls-2" d="M114.26,307.41c-.61,7.61-4.14,17.35-12.03,9.91,7.48,.9,3.78-9,4.69-14.54,0,0-3.05,9.9-10.29,8.96-6.02-.79-3.43-6.85-3.5-6.84,0,0,5.33,3.39,6.71-.56,1.54-4.38,4.48-8.23,4.48-8.23"/>
      <path class="cls-2" d="M126.36,301.1c.86,2.78,.7,5.06-1.6,6.58"/>
      <path class="cls-2" d="M85.87,313.83s-4.54,8.08-.48,9.89"/>
      <path class="cls-2" d="M97.9,320.53s-.7,7.26,1.4,7.54c2.1,.28-5.87,2.37-6.01-8.37"/>
      <path class="cls-2" d="M157.07,313.41c.77,1.07,.41,2.95,0,3.21"/>
      <path class="cls-2" d="M125.42,359.95c2.54,2.41,.01,4.07-.69,4.63"/>
      <path class="cls-2" d="M122.52,317.6c.05,1.7-.08,3.46,2.94,4.05"/>
      <path class="cls-6" d="M113.01,274.75s-2.52-4.05-9.65-.56c-7.13,3.49-9.24-1.67-9.24-4.05s3.64-2.93,3.64-2.93c0,0-1.54,6,5.74,4.19,7.27-1.81,10.07,1.12,10.07,1.12l2.11,4.53-2.66-2.29h0Z"/>
      <path class="cls-10" d="M126.87,264.04c-.15,.08-3.04,2.58,.98,2.25"/>
      <path class="cls-2" d="M94.82,348.13c6.71-2.74,7.98-7.28,6.31-12.5"/>
      <path class="cls-2" d="M72.02,366.57l3.96,1.58"/>
      <path class="cls-2" d="M81.12,393.78c1.89,.25,2.77-1.16,3.56-2.74"/>
      <path class="cls-2" d="M75.59,396.96c.61,.94,1.89,1.56,.4,3.55"/>
      <path class="cls-2" d="M135.72,404.07c1.57,1.07,1.83,2.52,.79,4.34"/>
      <path class="cls-2" d="M138.15,411.01c3.24,1.5,2.42,3,2.49,4.51"/>
      <path class="cls-2" d="M150.43,414.7c2.31-.09,3.01,1.02,3.89,2"/>
      <path class="cls-7" d="M146.72,264.03l-2.32,.18s-2.28,1.61-1.12,3.35c1.15,1.73,1.94,1.13,2.64,.15,.57-.8,.67-2.07,.67-2.07l4.8,.94-2.1,3.77c-1.11-.17-1.96-.8-2.4-.54,.12,.02-3.2,.36-1.94,1.62s5.67,.38,5.67,.38l1.84,4.01c0-.56-6.41-2.46-7.78-1.45-.14-1.99-9.32-13.74-11.05-14.52l1.3-7.5,2.89,3.15s-.94,1.09-1.67,1.68c-.78,.62-.99,2.01,.05,2.31,.89,.26,1.95,.32,2.36-.16,.68-.82,.55-2.46,.55-2.46l3.24-.9,.28,3.77-2.52,.7s-.74,.98,.28,2.37c1.11,1.53,2.4,1.24,2.78,.4,.35-.78,.44-1.93,.44-1.93,0,0,2.94-.65,3.5-1.07-.02,.72-.58,4-.39,3.82h0Z"/>
      <path class="cls-6" d="M65.27,350.67c-.22-.2-2.31,.48-3.08,1.56-.35,.49,1.11,.97,3.36,1.84,1.03-1.76,1.22-2.13-.28-3.4Z"/>
      <path class="cls-6" d="M64.85,359.15l-1.61,4.07s3.61,.32,4.17,.32c1.14-.01-1.01-5.31-2.56-4.39Z"/>
      <path class="cls-6" d="M72.21,366.57l.02,4.05,3.2-2.51c-.52-2.18-1.86-1.88-3.22-1.54h0Z"/>
      <path class="cls-6" d="M81.31,393.78s3.34-.9,3.36-2.93c.03-3.13,.59,1.14-2.83-.71-3.06-1.66-.67,3.93-.53,3.64h0Z"/>
      <path class="cls-6" d="M75.47,400.66c1.65-1.02,.76-2.32,.87-3.51-1.86,.63-3.71,1.26-4.07,3.01,1.12,.36,2.27,.87,3.2,.5h0Z"/>
      <path class="cls-6" d="M81.75,406.53c2,1.04,2.21,2.3,2.76,3.52l-3.78,.7,1.02-4.22Z"/>
      <path class="cls-6" d="M136.32,404.26c1.05,.4,1.71,4.54,0,4.34-1.18-.14-2.77-.59-2.77-.59,0,0,2.18-4.93,2.77-3.75Z"/>
      <path class="cls-6" d="M138.67,411.17c-.06-1.12,3.8,2.76,2.48,4.46-.93,1.19-6.02-1.5-6.02-1.5l3.54-2.96Z"/>
      <path class="cls-6" d="M149.64,414.33c0-.54,5.47,.97,5.27,2.76-.13,1.19-5.18,1.81-5.18,1.81l-.09-4.57Z"/>
      <path class="cls-6" d="M69.61,279.71s1.96,.69,3.44-2.17l-4.1-2.16,.66,4.33h0Z"/>
      <path class="cls-6" d="M62.08,282.24c3.3,.25,3.26-1.34,3.63-2.99l-4.06-.84,.43,3.83Z"/>
      <path class="cls-6" d="M59.69,288.01l-2.57,3.94,4.95,.69c-.3-1.43,.13-2.48-2.38-4.64Z"/>
      <path class="cls-3" d="M132.53,282.55c1.23,1.82,.86,3.63,0,5.45,0,0-5.45,4.88,.14,6.53,0,0-5.59,2.73-6.74-5.52,0,0-5.45,8.32-10.54,1.79,0,0,4.8-.29,5.09-4.59"/>
      <path class="cls-3" d="M82.2,338.17s-1.13-8.5,2.16-8.79"/>
      <path class="cls-5" d="M81.27,405.75s.93-1.15,1.51-1.15"/>
    </g>
    <g id="castle">
      <path class="cls-4" d="M98.97,30.19l26.24,.09,5.18,4.65v12.53l-2.86,2.15-.09,28.82h6.87l.27-14.86-1.87-2.77-.09-9.04,3.66-4.48,15.35,.09,3.93,4.57,.09,8.77-2.32,3.67-.09,18.17,10,5.28-.18,13.61-3.21,5.01v54.07l8.48,7.25,.09,17.46-17.05,11.28H73.08l-17.05-11.19v-17.54l7.94-6.36,.36-54.78-3.04-4.98v-13.64l9.46-5.73,.09-18.26-3.04-3.13-.18-8.59,4.2-4.92h15.89l4.02,4.48v9.22l-2.41,2.95,.09,14.77,7.68-.09-.18-28.64-3.04-2.86-.27-11.64,5.36-5.37h0Z"/>
      <path class="cls-1" d="M99.33,196.05l.18-29s11.78-19.16,25.35,.18l.4,29.18"/>
      <path class="cls-1" d="M56.21,167.95l16.87,6.89,26.33,.09"/>
      <path class="cls-1" d="M167.89,168.01l-16.85,6.76-26.07,.18"/>
      <path class="cls-1" d="M56.12,173.85l16.78,7.8,26.26,.02"/>
      <path class="cls-1" d="M55.98,179.52l16.79,9.49,26.13,.13"/>
      <path class="cls-1" d="M64.7,171.42l-.25,6.2"/>
      <path class="cls-1" d="M60.4,175.85l-.13,6.2"/>
      <path class="cls-1" d="M68.74,179.39v7.09"/>
      <path class="cls-1" d="M64.7,184.21l-.13,6.58"/>
      <path class="cls-1" d="M61.41,101.92l15.4-6.08,70.07-.13,16.03,5.7"/>
      <path class="cls-1" d="M64.44,106.6l15.65-4.81,64.38,.13,15.4,4.56"/>
      <path class="cls-1" d="M64.19,115.47l15.65-3.29,64.76,.13,15.15,3.29"/>
      <path class="cls-1" d="M64.32,125.21l15.91-2.03h63.63l15.91,1.9"/>
      <path class="cls-1" d="M63.84,133.32l16.22,1.31,63.9,.03,16.31-1.34"/>
      <path class="cls-1" d="M64.33,142.7l15.8,2.6,64.18,.09,15.53-2.33"/>
      <path class="cls-1" d="M64.16,152.19l16.43,3.58h63.38l15.89-3.94"/>
      <path class="cls-1" d="M64.16,161.14l15.89,4.83,19.91,.04"/>
      <path class="cls-1" d="M124.05,165.8l19.98,.07,16.36-5.62"/>
      <path class="cls-1" d="M71.21,82.01l5.85-3.54"/>
      <path class="cls-1" d="M68.17,60.53l3.3-3.13,15.71-.09,4.37,3.58"/>
      <path class="cls-1" d="M70.85,69.93l3.48-2.69h11.07l4.02,2.77"/>
      <path class="cls-1" d="M71.03,76.02l4.37-3.4,9.91,.09,4.37,3.58"/>
      <path class="cls-1" d="M152.8,82.15l-5.62-3.4"/>
      <path class="cls-1" d="M98.97,30.45l.18,13.43,2.32,3.58v30.97"/>
      <path class="cls-1" d="M125.22,30.36l-.18,13.43-2.32,3.58v30.97"/>
      <path class="cls-1" d="M94.06,47.19l4.73-3.49,26.16,.27,5.27,3.58"/>
      <path class="cls-1" d="M97.1,49.97l4.02-2.33,21.65,.13,4.69,2.37"/>
      <path class="cls-1" d="M97.1,58.11l4.11-2.6,21.34,.27,4.82,2.51"/>
      <path class="cls-1" d="M96.83,65.54l4.55-2.42,21.25,.18,4.73,2.51"/>
      <path class="cls-1" d="M97.19,73.42l3.66-2.15,21.96,.18,4.28,2.51"/>
      <path class="cls-1" d="M153.01,64.34l-4.11-2.78h-10.62l-3.57,3.13"/>
      <path class="cls-1" d="M153.1,70.42l-3.48-2.69h-11.07l-4.02,2.78"/>
      <path class="cls-1" d="M152.92,76.51l-4.37-3.4-9.91,.09-4.11,2.77"/>
      <path class="cls-1" d="M168.24,173.32l-17.14,8.41h-25.53"/>
      <path class="cls-1" d="M125.39,188.89h25.62l17.32-9.67"/>
      <path class="cls-1" d="M159.85,171.44l.09,5.73"/>
      <path class="cls-1" d="M155.75,179.67l.09,6.53"/>
      <path class="cls-1" d="M164.05,175.2l.09,6.27"/>
      <path class="cls-1" d="M159.76,184.06l.2,6.58"/>
      <path class="cls-1" d="M137.89,174.75l-.09,6.8"/>
      <path class="cls-1" d="M131.55,181.64v7.25"/>
      <path class="cls-1" d="M144.14,181.64v7.25"/>
      <path class="cls-1" d="M137.8,189.07l.09,7.43"/>
      <path class="cls-1" d="M85.4,174.84v6.62"/>
      <path class="cls-1" d="M79.24,181.55v7.43"/>
      <path class="cls-1" d="M92.81,181.64l.09,7.52"/>
      <path class="cls-1" d="M85.58,189.07v7.16"/>
      <path class="cls-1" d="M64.51,171.17l7.14-7.7"/>
      <path class="cls-1" d="M67.55,162.04l-.09-9.22"/>
      <path class="cls-1" d="M75.76,154.52v9.85"/>
      <path class="cls-1" d="M72.01,154.07v-10.47"/>
      <path class="cls-1" d="M67.73,143.24l.18-9.85"/>
      <path class="cls-1" d="M76.03,134.38l-.09,9.94"/>
      <path class="cls-1" d="M72.1,124l-.09,9.76"/>
      <path class="cls-1" d="M67.99,114.42l-.09,10.38"/>
      <path class="cls-1" d="M76.03,113.16l.09,10.38"/>
      <path class="cls-1" d="M71.83,104.39v9.31"/>
      <path class="cls-1" d="M156.16,161.86l-.09-9.31"/>
      <path class="cls-1" d="M148.22,154.34v9.85"/>
      <path class="cls-1" d="M152.15,153.81v-9.88"/>
      <path class="cls-1" d="M156.21,143.47v-9.98"/>
      <path class="cls-1" d="M148.1,134.11l-.06,10.74"/>
      <path class="cls-1" d="M152.15,123.91v9.83"/>
      <path class="cls-1" d="M156,114.87l.07,9.76"/>
      <path class="cls-1" d="M147.95,112.99l-.03,10.64"/>
      <path class="cls-1" d="M152.15,104.26v9.26"/>
      <path class="cls-1" d="M85.27,174.71l5.68-8.73"/>
      <path class="cls-1" d="M133.12,165.85l4.92,8.99"/>
      <path class="cls-1" d="M151.93,163.06l7.7,8.23"/>
      <path class="cls-1" d="M96,155.34l.04,10.51"/>
      <path class="cls-1" d="M112.11,155.43l.05,2.82"/>
      <path class="cls-1" d="M128.58,155.47v10.25"/>
      <path class="cls-1" d="M122.52,145.22l.13,10"/>
      <path class="cls-1" d="M101.43,144.96l-.13,10.51"/>
      <path class="cls-1" d="M111.53,134.2l-.1,10.76"/>
      <path class="cls-1" d="M90.7,134.2v10.51"/>
      <path class="cls-1" d="M122.87,123.44l-.1,10.76"/>
      <path class="cls-1" d="M122.52,101.79l-.02,10.25"/>
      <path class="cls-1" d="M101.18,101.41l-.02,10.76"/>
      <path class="cls-1" d="M111.87,112.48l.04,10.33"/>
      <path class="cls-1" d="M101.31,123.32v10.76"/>
      <path class="cls-1" d="M90.83,134.33v10.76"/>
      <path class="cls-1" d="M133.75,134.45v11.01"/>
      <path class="cls-1" d="M66.57,84.79v6.71"/>
      <path class="cls-1" d="M71.83,81.57v7.7"/>
      <path class="cls-1" d="M76.03,47.33l.04,4.12"/>
      <path class="cls-1" d="M80.05,47.37v4.12"/>
      <path class="cls-1" d="M84.06,47.46v3.94"/>
      <path class="cls-1" d="M139.86,47.46v4.12"/>
      <path class="cls-1" d="M144.14,47.55v4.12"/>
      <path class="cls-1" d="M148.25,47.64v4.02"/>
      <path class="cls-1" d="M72.9,196.23l.36-21.3,7.14-9.13-.36-64.09-2.86-5.55v-17.81s9.1-.02,9.1-.02l-.03,8.7,3.29,.06-.07-8.69,8.6,.05,.04,8.71h3.17l-.09-8.69,9.37,.04v8.69h3.17l.04-8.76h8.7s-.04,8.75-.04,8.75h3.17l-.04-8.83,9.23,.1,.04,8.69,3.06-.04-.07-8.72,9.47,.06-.04,16.9-3.04,6.44-.09,64.05,6.78,8.77,.27,21.8"/>
      <path class="cls-1" d="M71.92,47.19v10.2l3.04,3.76,.09,17.9"/>
      <path class="cls-1" d="M87.63,47.1l.09,10.38-2.05,3.85-.18,17.37"/>
      <path class="cls-1" d="M70.94,63.84l4.11-2.78h10.62l3.57,3.13"/>
      <path class="cls-1" d="M152.02,47.69v10.2l-3.04,3.76-.09,17.9"/>
      <path class="cls-1" d="M136.31,47.6l-.09,10.38,2.05,3.85,.18,17.37"/>
      <path class="cls-1" d="M132.93,60.62l3.04-2.69,15.71-.09,4.02,3.04"/>
      <path class="cls-1" d="M105.49,30.36l-.06,5.55"/>
      <path class="cls-1" d="M111.65,30.29l-.04,5.53"/>
      <path class="cls-1" d="M118.52,30.45v5.67"/>
      <path class="cls-1" d="M152.53,82.1l.09,7.52"/>
      <path class="cls-1" d="M157.98,84.97l-.09,6.71"/>
      <path class="cls-11" d="M109.37,71.61l-.08-12.75s2.24-5.81,5.26,0l.02,12.76h-5.2Z"/>
      <path class="cls-11" d="M91.44,134.49l-.11-18.33s3.08-8.36,7.22,0l.03,18.35h-7.13s0-.01,0-.01Z"/>
      <path class="cls-11" d="M125.82,134.4l-.11-18.33s3.04-8.36,7.13,0l.03,18.35h-7.04s0-.01,0-.01Z"/>
      <path class="cls-11" d="M104.25,169.08s2.79-6.02,8.16-6.15c0,0,4.55-.15,7.69,5.89v27.51l-15.98-.07,.13-27.19h0Z"/>
    </g>
    <g id="lion-2" data-name="lion">
      <path class="cls-8" d="M314.42,80.21c-3.8-5.29-11.82-8.88-9.59-16.58-1.05,0-.63-7.5-.89-8.19l-4.65-2.76,.3,4.93-7.32-1.58-.09,7.31-1.98,2.47,2.47,5.08c.1-.05,.1,1.53,3.36,1.43,0,0-.59,1.6,1.58,4.56-.71,5.67,3.67,8.16,6.03,12.22,2.61-3.2,4.4-6.68,10.78-8.88h0Z"/>
      <path class="cls-8" d="M345.72,38.2c-3.21-2.65-10.37,1.8-5.46,3.35-1.03,.98-.56,1.95,0,2.93l7.41,4.05c-1.07,1.64-.77,3.39,1.4,5.3-.91,2.65-2.77,2-5.18-.56h-4.34c-3.16,1.49-2.2,2.98-.84,4.47-3.06,3.2-.52,6.32,3.5,2.09l2.66,2.51c-.49,5.49-14.16,7.94-8.95,.7-8.03-2.8-7.15,3.42-3.89,8.35-4.26,.5-12.98,2.53-7.3-4.3-9.5,.97-9.01,8.07-2.24,11.58-6.59,1.3-13.37,1.05-18.88,10.89-5.66,5.01-8.18-.05-7.23,1.48,1.58,2.54,4.94,8.43,9.52,1.49-1.51,16.85-6.86,17.04-7.41,15.88-.57-1.21,2.02,9.29,7.85-1.5,3.96,11.29-.9,9.62-2.03,10.09-1.22,.51,2.19,6.01,8.54-1.36l4.76-6.28c-6.29,6.03-9.52,20.9-19.6,17.33l-2.94,1.4,1.13,3.74,5.04,1.95c-4.66-.87-7.09,.04-6.15,3.63,2.21,4.09,6.01,8.99,5.88,.98-.08,5.2,2.44,6.32,4.9,7.54,3.35,.74,3.11-4.94,.84-5.02-.09-3.08,.86-5.18,3.64-5.58,2.77,3.19,3.41-.5,4.48-2.65,3.8,.4,3.5-.86,4.2-4.47l7.41-2.37c5.43,8.66,15.44,8.82,26.02,7.95,2.91,1.3,3.58,2.61,3.36,3.91-17.58,7.01-11.79-9.51-35.53,5.3-.79,.23-1.59,.56-2.38-.7-.97,1.84-1.95,3.42,1.26,5.58,1.15,3.54,.42,6.46-4.34,8.09,3.22,6,5.92,4.11,8.39-1.4,.73,4.08,3.97,8.74-.56,11.58,2.13,1.69,4.25,2.95,6.01,.28l-.08,4.1c-11.68,9.11-11.78-5.22-14.13-2.37-.7,1.56-.86,3.88-3,3.29-4.87,2.83,2.31,4.4,3.78,6.56l-5.74-3.77-3.08,.14c.44,1.28,.88,2.57-.14,3.49,.19,2.56-.19,5.4,5.04,5.44,1.88,1.33,3.72,2.68,3.78,4.75,7.86-.6,7.02-3.37,9.51-5.3,1.21,6.37,3.95-3.1,5.95-4.98,1.23,.52,1.51,2.77,.91,4.38,3.5-4.88,8.26-10.81,9.89-16.44-1.55-1.18-2.23-2.48-3.04-5.15-3.36-10.38,6.09-12.38,17.9-14.93-5.66,4.52-14.06,14.09-8.81,21.63,.41,2.63,1.12,5.43-1.47,6.36,2.98,2.06,4.38-1.58,5.1-3.79,1.76,2.95,7.88,7.68,7.25,11.34,.76,.76,5.6-1.74,3.78-6.14,3.74-.72,5.39-1.64,10.95-3.58,4.97,.85,11.54,15.52-.14,10.47-1.58-1.31-3.46-1.79-6.15-.14,.52,1.04,.53,2.58-.14,4.19-.11,4.33,6.32-.63,7.69-.42-10.37,3.38-4.44,1.4-3.22,7.26,2.66,3.87,4.44-1.62,10.77-5.3l-1.96,1.81,.28,6.98c8.75,.56,7.54-8.46,10.53-12.76,.68-.97,2.22-1.6,3.03-2.29-4.5-.3-8.53-6.95-4.77-10.1-2.78-2.5-8.56-4.67-5.33-8.5-4.55-3.92-3.76-5.48-11.47-.56-2.87-1.9-6.75-4-4.43-6.82,6.53-4.69,6.92-9.89,9.23-14.93,39.82-14.43-20.85-58.11,5.81-60.89,.53,4.49-.47,9.08,1.32,13.57,3.17,1.22,5.32,1.81,6.43,4.75l2.22,5.72c-.12-3.27,1.79-7.26-.28-9.81-2.33-2.87-1.83-5.06-1.82-7.06,1.48-3.57-.23-5.1-.58-6.76-6-6.79-8.59-5.34-11.08-4.31-8.82,3.65-9.12,14.77-3.08,23.57,12.71,18.5,18.42,34.41,.09,35.78-5.17-6.7-18.67-6.75-21.98-32.39,.34-3.11,2.45-3.12,4.2-3.77l2.52-1.95c-6.99-4.29,1.73-17.45,7.83-10.05-.3-5.21-.71-13.82,2.08-18.26,.6-1.19,2.24,.72,3.47,1.42-1.73-1.89-2.48-13.69,3.96-9.53,2.27-.62,2.01-2.94,1.59-2.2-1.07,1.88-4.47-.54-4.72-7.04-2.52-5.22-7.27-11-10.85-13.78-3.1-.43-5.99-1.95-9.79,1.12h-3.08l-1.26,.98c-.23-1.35-2.13-1.37-4.2-1.26h0Z"/>
      <path class="cls-2" d="M292.26,63.16c3.29,1.22,5.69,3.2,7.23,5.9"/>
      <path class="cls-2" d="M299.38,57.61c-.12,2.24-1.46,4.47,.99,6.71"/>
      <path class="cls-2" d="M355.6,39.32s2.82,2.93,3.08,7.68"/>
      <path class="cls-9" d="M356.02,40.5s-6.31,5.09,2.22,5.23c1.06-2-2.22-5.23-2.22-5.23Z"/>
      <path class="cls-2" d="M341.19,40.02c.36,2.23,2.27,2.79,2.38,2.79"/>
      <path class="cls-2" d="M366.37,52.3s3.8,2.7,1.56,6.33"/>
      <path class="cls-2" d="M351.32,49.23c.17,1.73,2.87,4.84,5.12,5.72"/>
      <path class="cls-2" d="M348.89,77.7c-2.69,5.32,.97,4.5,2.89,3.81,1.32-.47,1.12,6.35-6.8,3.86-3.46-2.47-2.2-6.86-.21-9.14"/>
      <path class="cls-2" d="M344.69,85.1c-.61,7.61-4.14,17.35-12.03,9.91,7.48,.9,3.78-9,4.69-14.54,0,0-3.05,9.9-10.29,8.96-6.02-.79-3.43-6.85-3.5-6.84,0,0,5.33,3.39,6.71-.56,1.54-4.38,4.48-8.23,4.48-8.23"/>
      <path class="cls-2" d="M356.78,78.8c.86,2.78,.7,5.06-1.6,6.58"/>
      <path class="cls-2" d="M316.29,91.52s-4.54,8.08-.48,9.89"/>
      <path class="cls-2" d="M328.32,98.22s-.7,7.26,1.4,7.54c2.1,.28-5.87,2.37-6.01-8.37"/>
      <path class="cls-2" d="M387.49,91.1c.77,1.07,.41,2.95,0,3.21"/>
      <path class="cls-2" d="M355.84,137.65c2.54,2.41,.01,4.07-.69,4.63"/>
      <path class="cls-2" d="M352.94,95.29c.05,1.7-.08,3.46,2.94,4.05"/>
      <path class="cls-6" d="M343.43,52.44s-2.52-4.05-9.65-.56c-7.13,3.49-9.24-1.67-9.24-4.05s3.64-2.93,3.64-2.93c0,0-1.54,6,5.74,4.19,7.27-1.81,10.07,1.12,10.07,1.12l2.11,4.53-2.66-2.29h0Z"/>
      <path class="cls-10" d="M357.3,41.73c-.15,.08-3.04,2.58,.98,2.25"/>
      <path class="cls-2" d="M325.24,125.82c6.71-2.74,7.98-7.28,6.31-12.5"/>
      <path class="cls-2" d="M302.45,144.26l3.96,1.58"/>
      <path class="cls-2" d="M311.55,171.47c1.89,.25,2.77-1.16,3.56-2.74"/>
      <path class="cls-2" d="M306.01,174.65c.61,.94,1.89,1.56,.4,3.55"/>
      <path class="cls-2" d="M366.15,181.76c1.57,1.07,1.83,2.52,.79,4.34"/>
      <path class="cls-2" d="M368.57,188.7c3.24,1.5,2.42,3,2.49,4.51"/>
      <path class="cls-2" d="M380.86,192.39c2.31-.09,3.01,1.02,3.89,2"/>
      <path class="cls-7" d="M377.14,41.72l-2.32,.18s-2.28,1.61-1.12,3.35c1.15,1.73,1.94,1.13,2.64,.15,.57-.8,.67-2.07,.67-2.07l4.8,.94-2.1,3.77c-1.11-.17-1.96-.8-2.4-.54,.12,.02-3.2,.36-1.94,1.62s5.67,.38,5.67,.38l1.84,4.01c0-.56-6.41-2.46-7.78-1.45-.14-1.99-9.32-13.74-11.05-14.52l1.3-7.5,2.89,3.15s-.94,1.09-1.67,1.68c-.78,.62-.99,2.01,.05,2.31,.89,.26,1.95,.32,2.36-.16,.68-.82,.55-2.46,.55-2.46l3.24-.9,.28,3.77-2.52,.7s-.74,.98,.28,2.37c1.11,1.53,2.4,1.24,2.78,.4,.35-.78,.44-1.93,.44-1.93,0,0,2.94-.65,3.5-1.07-.02,.72-.58,4-.39,3.82h0Z"/>
      <path class="cls-6" d="M295.7,128.36c-.22-.2-2.31,.48-3.08,1.56-.35,.49,1.11,.97,3.36,1.84,1.03-1.76,1.22-2.13-.28-3.4Z"/>
      <path class="cls-6" d="M295.28,136.84l-1.61,4.07s3.61,.32,4.17,.32c1.14-.01-1.01-5.31-2.56-4.39Z"/>
      <path class="cls-6" d="M302.64,144.26l.02,4.05,3.2-2.51c-.52-2.18-1.86-1.88-3.22-1.54h0Z"/>
      <path class="cls-6" d="M311.73,171.48s3.34-.9,3.36-2.93c.03-3.13,.59,1.14-2.83-.71-3.06-1.66-.67,3.93-.53,3.64h0Z"/>
      <path class="cls-6" d="M305.9,178.35c1.65-1.02,.76-2.32,.87-3.51-1.86,.63-3.71,1.26-4.07,3.01,1.12,.36,2.27,.87,3.2,.5h0Z"/>
      <path class="cls-6" d="M312.17,184.22c2,1.04,2.21,2.3,2.76,3.52l-3.78,.7,1.02-4.22Z"/>
      <path class="cls-6" d="M366.74,181.96c1.05,.4,1.71,4.54,0,4.34-1.18-.14-2.77-.59-2.77-.59,0,0,2.18-4.93,2.77-3.75Z"/>
      <path class="cls-6" d="M369.09,188.86c-.06-1.12,3.8,2.76,2.48,4.46-.93,1.19-6.02-1.5-6.02-1.5l3.54-2.96Z"/>
      <path class="cls-6" d="M380.07,192.02c0-.54,5.47,.97,5.27,2.76-.13,1.19-5.18,1.81-5.18,1.81l-.09-4.57Z"/>
      <path class="cls-6" d="M300.03,57.41s1.96,.69,3.44-2.17l-4.1-2.16,.66,4.33h0Z"/>
      <path class="cls-6" d="M292.51,59.94c3.3,.25,3.26-1.34,3.63-2.99l-4.06-.84,.43,3.83Z"/>
      <path class="cls-6" d="M290.11,65.71l-2.57,3.94,4.95,.69c-.3-1.43,.13-2.48-2.38-4.64Z"/>
      <path class="cls-3" d="M362.95,60.24c1.23,1.82,.86,3.63,0,5.45,0,0-5.45,4.88,.14,6.53,0,0-5.59,2.73-6.74-5.52,0,0-5.45,8.32-10.54,1.79,0,0,4.8-.29,5.09-4.59"/>
      <path class="cls-3" d="M312.62,115.86s-1.13-8.5,2.16-8.79"/>
      <path class="cls-5" d="M311.7,183.45s.93-1.15,1.51-1.15"/>
    </g>
    <g id="castle-2" data-name="castle">
      <path class="cls-4" d="M322.97,252.49l26.24,.09,5.18,4.65v12.53l-2.86,2.15-.09,28.82h6.87l.27-14.86-1.87-2.77-.09-9.04,3.66-4.48,15.35,.09,3.93,4.57,.09,8.77-2.32,3.67-.09,18.17,10,5.28-.18,13.61-3.21,5.01v54.07l8.48,7.25,.09,17.46-17.05,11.28h-78.29l-17.05-11.19v-17.54l7.94-6.36,.36-54.78-3.04-4.98v-13.64l9.46-5.73,.09-18.26-3.04-3.13-.18-8.59,4.2-4.92h15.89l4.02,4.48v9.22l-2.41,2.95,.09,14.77,7.68-.09-.18-28.64-3.04-2.86-.27-11.64,5.36-5.37h0Z"/>
      <path class="cls-1" d="M323.33,418.36l.18-29s11.78-19.16,25.35,.18l.4,29.18"/>
      <path class="cls-1" d="M280.21,390.25l16.87,6.89,26.33,.09"/>
      <path class="cls-1" d="M391.89,390.32l-16.85,6.76-26.07,.18"/>
      <path class="cls-1" d="M280.12,396.16l16.78,7.8,26.26,.02"/>
      <path class="cls-1" d="M279.98,401.83l16.79,9.49,26.13,.13"/>
      <path class="cls-1" d="M288.7,393.73l-.25,6.2"/>
      <path class="cls-1" d="M284.4,398.16l-.13,6.2"/>
      <path class="cls-1" d="M292.74,401.7v7.09"/>
      <path class="cls-1" d="M288.7,406.51l-.13,6.58"/>
      <path class="cls-1" d="M285.41,324.23l15.4-6.08,70.07-.13,16.03,5.7"/>
      <path class="cls-1" d="M288.44,328.91l15.65-4.81,64.38,.13,15.4,4.56"/>
      <path class="cls-1" d="M288.19,337.77l15.65-3.29,64.76,.13,15.15,3.29"/>
      <path class="cls-1" d="M288.32,347.52l15.91-2.03h63.63l15.91,1.9"/>
      <path class="cls-1" d="M287.84,355.62l16.22,1.31,63.9,.03,16.31-1.34"/>
      <path class="cls-1" d="M288.33,365.01l15.8,2.6,64.18,.09,15.53-2.33"/>
      <path class="cls-1" d="M288.16,374.5l16.43,3.58h63.38l15.89-3.94"/>
      <path class="cls-1" d="M288.16,383.45l15.89,4.83,19.91,.04"/>
      <path class="cls-1" d="M348.05,388.11l19.98,.07,16.36-5.62"/>
      <path class="cls-1" d="M295.21,304.32l5.85-3.54"/>
      <path class="cls-1" d="M292.17,282.84l3.3-3.13,15.71-.09,4.37,3.58"/>
      <path class="cls-1" d="M294.85,292.24l3.48-2.69h11.07l4.02,2.77"/>
      <path class="cls-1" d="M295.03,298.32l4.37-3.4,9.91,.09,4.37,3.58"/>
      <path class="cls-1" d="M376.8,304.46l-5.62-3.4"/>
      <path class="cls-1" d="M322.97,252.76l.18,13.43,2.32,3.58v30.97"/>
      <path class="cls-1" d="M349.22,252.67l-.18,13.43-2.32,3.58v30.97"/>
      <path class="cls-1" d="M318.06,269.5l4.73-3.49,26.16,.27,5.27,3.58"/>
      <path class="cls-1" d="M321.1,272.28l4.02-2.33,21.65,.13,4.69,2.37"/>
      <path class="cls-1" d="M321.1,280.42l4.11-2.6,21.34,.27,4.82,2.51"/>
      <path class="cls-1" d="M320.83,287.85l4.55-2.42,21.25,.18,4.73,2.51"/>
      <path class="cls-1" d="M321.19,295.73l3.66-2.15,21.96,.18,4.28,2.51"/>
      <path class="cls-1" d="M377.01,286.64l-4.11-2.78h-10.62l-3.57,3.13"/>
      <path class="cls-1" d="M377.1,292.73l-3.48-2.69h-11.07l-4.02,2.78"/>
      <path class="cls-1" d="M376.92,298.82l-4.37-3.4-9.91,.09-4.11,2.77"/>
      <path class="cls-1" d="M392.24,395.63l-17.14,8.41h-25.53"/>
      <path class="cls-1" d="M349.39,411.2h25.62l17.32-9.67"/>
      <path class="cls-1" d="M383.85,393.75l.09,5.73"/>
      <path class="cls-1" d="M379.75,401.98l.09,6.53"/>
      <path class="cls-1" d="M388.05,397.51l.09,6.27"/>
      <path class="cls-1" d="M383.76,406.37l.2,6.58"/>
      <path class="cls-1" d="M361.89,397.06l-.09,6.8"/>
      <path class="cls-1" d="M355.55,403.95v7.25"/>
      <path class="cls-1" d="M368.14,403.95v7.25"/>
      <path class="cls-1" d="M361.8,411.38l.09,7.43"/>
      <path class="cls-1" d="M309.4,397.15v6.62"/>
      <path class="cls-1" d="M303.24,403.86v7.43"/>
      <path class="cls-1" d="M316.81,403.95l.09,7.52"/>
      <path class="cls-1" d="M309.58,411.38v7.16"/>
      <path class="cls-1" d="M288.51,393.48l7.14-7.7"/>
      <path class="cls-1" d="M291.55,384.35l-.09-9.22"/>
      <path class="cls-1" d="M299.76,376.83v9.85"/>
      <path class="cls-1" d="M296.01,376.38v-10.47"/>
      <path class="cls-1" d="M291.73,365.55l.18-9.85"/>
      <path class="cls-1" d="M300.03,356.69l-.09,9.94"/>
      <path class="cls-1" d="M296.1,346.3l-.09,9.76"/>
      <path class="cls-1" d="M291.99,336.73l-.09,10.38"/>
      <path class="cls-1" d="M300.03,335.47l.09,10.38"/>
      <path class="cls-1" d="M295.83,326.7v9.31"/>
      <path class="cls-1" d="M380.16,384.17l-.09-9.31"/>
      <path class="cls-1" d="M372.22,376.65v9.85"/>
      <path class="cls-1" d="M376.15,376.11v-9.88"/>
      <path class="cls-1" d="M380.21,365.77v-9.98"/>
      <path class="cls-1" d="M372.1,356.42l-.06,10.74"/>
      <path class="cls-1" d="M376.15,346.22v9.83"/>
      <path class="cls-1" d="M380,337.17l.07,9.76"/>
      <path class="cls-1" d="M371.95,335.29l-.03,10.64"/>
      <path class="cls-1" d="M376.15,326.57v9.26"/>
      <path class="cls-1" d="M309.27,397.02l5.68-8.73"/>
      <path class="cls-1" d="M357.12,388.16l4.92,8.99"/>
      <path class="cls-1" d="M375.93,385.37l7.7,8.23"/>
      <path class="cls-1" d="M320,377.65l.04,10.51"/>
      <path class="cls-1" d="M336.11,377.74l.05,2.82"/>
      <path class="cls-1" d="M352.58,377.78v10.25"/>
      <path class="cls-1" d="M346.52,367.52l.13,10"/>
      <path class="cls-1" d="M325.43,367.27l-.13,10.51"/>
      <path class="cls-1" d="M335.53,356.51l-.1,10.76"/>
      <path class="cls-1" d="M314.7,356.51v10.51"/>
      <path class="cls-1" d="M346.87,345.75l-.1,10.76"/>
      <path class="cls-1" d="M346.52,324.1l-.02,10.25"/>
      <path class="cls-1" d="M325.18,323.72l-.02,10.76"/>
      <path class="cls-1" d="M335.87,334.79l.04,10.33"/>
      <path class="cls-1" d="M325.31,345.62v10.76"/>
      <path class="cls-1" d="M314.83,356.64v10.76"/>
      <path class="cls-1" d="M357.75,356.76v11.01"/>
      <path class="cls-1" d="M290.57,307.1v6.71"/>
      <path class="cls-1" d="M295.83,303.87v7.7"/>
      <path class="cls-1" d="M300.03,269.64l.04,4.12"/>
      <path class="cls-1" d="M304.05,269.68v4.12"/>
      <path class="cls-1" d="M308.06,269.77v3.94"/>
      <path class="cls-1" d="M363.86,269.77v4.12"/>
      <path class="cls-1" d="M368.14,269.86v4.12"/>
      <path class="cls-1" d="M372.25,269.95v4.02"/>
      <path class="cls-1" d="M296.9,418.54l.36-21.3,7.14-9.13-.36-64.09-2.86-5.55v-17.81s9.1-.02,9.1-.02l-.03,8.7,3.29,.06-.07-8.69,8.6,.05,.04,8.71h3.17l-.09-8.69,9.37,.04v8.69h3.17l.04-8.76h8.7s-.04,8.75-.04,8.75h3.17l-.04-8.83,9.23,.1,.04,8.69,3.06-.04-.07-8.72,9.47,.06-.04,16.9-3.04,6.44-.09,64.05,6.78,8.77,.27,21.8"/>
      <path class="cls-1" d="M295.92,269.5v10.2l3.04,3.76,.09,17.9"/>
      <path class="cls-1" d="M311.63,269.41l.09,10.38-2.05,3.85-.18,17.37"/>
      <path class="cls-1" d="M294.94,286.15l4.11-2.78h10.62l3.57,3.13"/>
      <path class="cls-1" d="M376.02,269.99v10.2l-3.04,3.76-.09,17.9"/>
      <path class="cls-1" d="M360.31,269.9l-.09,10.38,2.05,3.85,.18,17.37"/>
      <path class="cls-1" d="M356.93,282.93l3.04-2.69,15.71-.09,4.02,3.04"/>
      <path class="cls-1" d="M329.49,252.67l-.06,5.55"/>
      <path class="cls-1" d="M335.65,252.6l-.04,5.53"/>
      <path class="cls-1" d="M342.52,252.76v5.67"/>
      <path class="cls-1" d="M376.53,304.41l.09,7.52"/>
      <path class="cls-1" d="M381.98,307.28l-.09,6.71"/>
      <path class="cls-11" d="M333.37,293.92l-.08-12.75s2.24-5.81,5.26,0l.02,12.76h-5.2Z"/>
      <path class="cls-11" d="M315.44,356.8l-.11-18.33s3.08-8.36,7.22,0l.03,18.35h-7.13s0-.01,0-.01Z"/>
      <path class="cls-11" d="M349.82,356.71l-.11-18.33s3.04-8.36,7.13,0l.03,18.35h-7.04s0-.01,0-.01Z"/>
      <path class="cls-11" d="M328.25,391.39s2.79-6.02,8.16-6.15c0,0,4.55-.15,7.69,5.89v27.51l-15.98-.07,.13-27.19h0Z"/>
    </g>
  </g>
</svg>