<?xml version="1.0" encoding="utf-8"?>
<!-- Generator: Adobe Illustrator 27.0.0, SVG Export Plug-In . SVG Version: 6.00 Build 0)  -->
<svg version="1.1" id="Layer_1" xmlns="http://www.w3.org/2000/svg" xmlns:xlink="http://www.w3.org/1999/xlink" x="0px" y="0px"
	 viewBox="0 0 450 450" style="enable-background:new 0 0 450 450;" xml:space="preserve">
<style type="text/css">
	.st0{fill:#0FAB4B;}
	.st1{fill:#010101;}
	.st2{fill:#FFFFFF;}
	.st3{fill-rule:evenodd;clip-rule:evenodd;fill:#EC2227;stroke:#010101;stroke-width:0.22;stroke-miterlimit:10;}
	.st4{fill-rule:evenodd;clip-rule:evenodd;fill:#E9C11E;stroke:#010101;stroke-width:0.22;stroke-miterlimit:10;}
	
		.st5{fill-rule:evenodd;clip-rule:evenodd;fill:#E9C11E;stroke:#010101;stroke-width:0.22;stroke-linecap:round;stroke-linejoin:round;}
	
		.st6{fill-rule:evenodd;clip-rule:evenodd;fill:#E3E4E5;stroke:#010101;stroke-width:0.22;stroke-linecap:round;stroke-linejoin:round;}
	
		.st7{fill-rule:evenodd;clip-rule:evenodd;fill:#EC2227;stroke:#010101;stroke-width:0.22;stroke-linecap:round;stroke-linejoin:round;}
	.st8{fill:#00904D;stroke:#010101;stroke-width:0.22;stroke-linecap:round;stroke-linejoin:round;}
	.st9{fill:none;stroke:#010101;stroke-width:0.66;stroke-miterlimit:10;}
	.st10{fill:none;}
	.st11{fill-rule:evenodd;clip-rule:evenodd;fill:#1172BA;stroke:#010101;stroke-width:0.22;stroke-miterlimit:12.5;}
	.st12{fill-rule:evenodd;clip-rule:evenodd;fill:#E3E4E5;stroke:#010101;stroke-width:0.22;stroke-miterlimit:12.5;}
	.st13{fill-rule:evenodd;clip-rule:evenodd;fill:#E9C11E;stroke:#010101;stroke-width:0.66;stroke-miterlimit:12.5;}
	.st14{fill-rule:evenodd;clip-rule:evenodd;fill:#EC2227;stroke:#010101;stroke-width:0.66;stroke-miterlimit:12.5;}
	.st15{fill:none;stroke:#010101;stroke-width:0.66;stroke-miterlimit:12.5;}
	.st16{fill-rule:evenodd;clip-rule:evenodd;fill:#EC2227;stroke:#010101;stroke-width:0.19;stroke-miterlimit:10;}
	.st17{fill-rule:evenodd;clip-rule:evenodd;fill:#E9C11E;stroke:#010101;stroke-width:0.43;}
	.st18{fill-rule:evenodd;clip-rule:evenodd;fill:#E3E4E5;stroke:#010101;stroke-width:0.43;}
	.st19{fill-rule:evenodd;clip-rule:evenodd;fill:#E3E4E5;stroke:#010101;stroke-width:0.82;}
	.st20{fill-rule:evenodd;clip-rule:evenodd;fill:#E9C11E;stroke:#010101;stroke-width:0.82;}
	.st21{fill-rule:evenodd;clip-rule:evenodd;fill:#E9C11E;stroke:#010101;stroke-width:0.5;}
	.st22{fill:none;stroke:#010101;stroke-width:0.5;}
	.st23{fill:none;stroke:#010101;stroke-width:0.5;stroke-linecap:round;stroke-linejoin:round;}
	
		.st24{fill-rule:evenodd;clip-rule:evenodd;fill:#1172BA;stroke:#010101;stroke-width:0.5;stroke-linecap:round;stroke-linejoin:round;}
	
		.st25{fill-rule:evenodd;clip-rule:evenodd;fill:#E9C11E;stroke:#010101;stroke-width:0.5;stroke-linecap:round;stroke-linejoin:round;}
	.st26{fill-rule:evenodd;clip-rule:evenodd;fill:#E3E4E5;stroke:#010101;stroke-width:0.66;stroke-miterlimit:12.5;}
	.st27{fill-rule:evenodd;clip-rule:evenodd;fill:#E3E4E5;stroke:#010101;stroke-width:0.22;stroke-miterlimit:10;}
	.st28{fill-rule:evenodd;clip-rule:evenodd;fill:#00904D;stroke:#010101;stroke-width:0.22;stroke-miterlimit:10;}
</style>
<g id="layer1">
	<g id="g7732">
		<rect id="black_stripe" y="-0.3" class="st0" width="450" height="150.2"/>
		<rect id="gold_stripe" y="300.1" class="st1" width="450" height="150.2"/>
		<rect id="red_stripe" y="149.9" class="st2" width="450" height="150.2"/>
	</g>
	<g id="g8876">
		<g id="g3999">
			<g id="g3882">
				<path id="path3880" class="st3" d="M114.2,170.6l19.7,3.3h32l19.1-3.5l-16.4-4.2h-37.3C131.3,166.2,114.2,170.6,114.2,170.6z"/>
				<path id="path3828" class="st4" d="M124.8,143.7l-4.7,5.4l-7.4-1.3l-4.5,4.2l-6.9-1.3c2.8,7.6,7.3,12.1,9.3,20.2l20.4-4.5h37.4
					l20.4,4.5c2-8.1,6.5-12.6,9.3-20.2l-6.9,1.3l-4.5-4.2l-7.4,1.3l-4.6-5.4l-5.6,4.3l-7.1-3.9l-6.2,2.6l-4.5-1.7v-1.2l-1.5,0.6
					l-1.5-0.6v1.2l-4.5,1.7l-6.3-2.6l-7.1,3.9L124.8,143.7L124.8,143.7z"/>
				<path id="path5465" class="st5" d="M186.7,169.3c-0.1,0-0.2,0-0.3,0c-24,4.1-48.5,3.6-73.3,0c-0.7-0.1-1.3,0.1-1.8,0.6
					c-0.4,0.5-0.5,1.2-0.3,1.9c0.3,0.6,0.8,1.1,1.5,1.1c25.1,3.7,50,4.2,74.5,0c1-0.1,1.6-1,1.6-2
					C188.5,170.1,187.7,169.3,186.7,169.3L186.7,169.3z"/>
				<path id="path5461" class="st5" d="M149.7,163.5c-14.4,0-28.8,2-39.1,6c-0.7,0.2-1.1,0.8-1.2,1.4c-0.1,0.7,0.2,1.4,0.7,1.8
					s1.3,0.5,1.9,0.2c19-7.4,56.4-7.4,75.6,0c0.9,0.4,2-0.1,2.4-1.1s-0.1-2-1.1-2.4C178.6,165.5,164.1,163.5,149.7,163.5
					L149.7,163.5z"/>
				<path id="path5463" class="st5" d="M149.6,149.9c-16.7,0-33.3,2.4-45.1,7.3c-0.5,0.2-0.8,0.6-0.9,1.1c-0.1,0.5,0.2,1,0.6,1.3
					c0.4,0.3,1,0.4,1.4,0.1c11.1-4.7,27.5-7.1,44-7.1c16.4,0,32.9,2.4,44.2,7.1c0.5,0.2,1,0.1,1.4-0.2s0.6-0.8,0.6-1.3
					c-0.1-0.5-0.4-0.9-0.9-1.1C183,152.2,166.3,149.8,149.6,149.9L149.6,149.9z"/>
				<path id="path5469" class="st5" d="M149.7,120.1l-0.1,0.2c-1.3,1.9-6.4,2.1-6.6,4.8c-0.2,3,5,3.6,3.9,5.3
					c-1,1.6-2.3-3.2-5.7-2.3c-3.4,0.8-0.5,4.5-3.5,6.5c2.6,1.3,2.1,6.4,5.4,5.1c1.9-1.4,3.9-3.4,5.3-1.8c0.3,1.5,0,3.1-0.6,4.7
					c-1.5,1.3-2.9,1.9-4.3,2c-1.6,0.1-3.3-0.6-5.2-2.3c-0.4-0.3-0.9-0.5-1.3-0.4c-0.5,0.1-0.9,0.4-1.2,0.8c-1,1.6-2.6,3-4.2,3.3
					s-3.5-0.1-5.8-3.1c0,0,0,0,0,0c-0.6-1.3-0.5-2.6-0.3-3.4c3-1.2,3.9,3.2,6.7,1.8c3-1.5,0.5-4.9,3.6-6.7c-2.2-0.7-1.9-6.9-4.8-6.2
					c-2.9,0.7-2.9,6.2-5.6,4.9c-1.8-1.2,2.8-2.3,2.6-5.8c-0.1-2.9-5.4-0.8-6.2-4.4c-0.9,3.3-6.3,2.9-5.6,6.5c0.6,3,4.7,3.8,3.7,5.1
					c-1.7,1.7-4.7-3.1-6.3-2.3s-0.5,6.8-2.2,7.8c2.5,0.6,3.7,4.9,6.3,3.6c2.7-1.3,2.2-4.4,4.6-3.6c0.2,1.5,0.6,2.8,0.3,4.5
					c-0.9,1.8-4.3,4.7-9.3,1.1c-0.5-0.4-1.1-0.4-1.7-0.2s-0.9,0.8-0.9,1.4c-0.2,2.1-1.6,3.3-3.4,3.6c-1.8,0.3-4-0.4-5.6-3
					c0.2-0.5,0.7-1,1.4-1.3c1.1-0.4,2.2,0.5,4.1,0.4c2.1-0.4-0.5-4.5,1.2-6.5c-2.9-0.7-2.5-4.4-7.2-3.3c-2.4,1.8-0.3,4.5-1.6,4.7
					c-1.4,0.2-1.1-3.3-2.9-4.6c-1.9-1.4-6.6-1.9-6,3.6c5.4-1.4,6.1,3.9,7.9,7.5c0,0.3,0,0.6,0.2,0.9c2.2,3.8,5.8,5.4,9.1,4.9
					c2.4-0.4,4.6-1.9,5.6-4.2c5.1,2.5,9.8,0.6,11.7-2.5c2.3,2,4.9,2.7,7.1,2.3c2.2-0.4,4-1.8,5.3-3.3c1.9,1.4,4,2.2,6.1,2.1
					c2.1-0.1,4.2-1,6-2.5c1.8,1.5,3.8,2.4,6,2.5c2.1,0.1,4.2-0.6,6.1-2.1c1.3,1.6,3.1,2.9,5.3,3.3c2.2,0.4,4.8-0.2,7.1-2.3
					c1.9,3.1,6.7,5,11.7,2.5c1,2.3,3.2,3.9,5.6,4.2c3.2,0.5,6.9-1.1,9.1-4.9c0.2-0.3,0.3-0.6,0.3-0.9c1.9-3.6,2.6-9,7.9-7.5
					c0.6-5.5-4.1-4.9-6-3.6c-1.9,1.4-1.6,4.8-2.9,4.6c-1.4-0.2,0.8-2.9-1.6-4.7c-4.6-1.1-4.2,2.6-7.2,3.3c1.7,2-0.9,6.1,1.2,6.5
					c1.9,0.1,3-0.8,4.1-0.4c0.7,0.4,1.1,0.8,1.4,1.3c-1.6,2.6-3.8,3.3-5.6,3.1c-1.9-0.3-3.3-1.5-3.5-3.6c0-0.6-0.4-1.1-0.9-1.4
					s-1.2-0.2-1.6,0.2c-4.9,3.6-8.2,0.9-9.2-0.9c-0.3-1.7,0.1-3.1,0.3-4.6c2.4-0.7,1.9,2.3,4.6,3.6c2.6,1.3,3.9-3,6.4-3.6
					c-1.7-1-0.6-7-2.2-7.8c-1.6-0.8-4.6,4-6.3,2.3c-1-1.4,3.1-2.1,3.7-5.1c0.7-3.6-4.8-3.2-5.6-6.4c-0.9,3.7-6.1,1.6-6.2,4.4
					c-0.1,3.5,4.5,4.5,2.6,5.8c-2.7,1.3-2.7-4.2-5.6-4.9c-2.8-0.7-2.6,5.5-4.8,6.2c3.1,1.8,0.6,5.1,3.6,6.7c2.8,1.4,3.7-3,6.7-1.8
					c0.1,0.8,0.2,2-0.3,3.3c0,0-0.1,0.1-0.1,0.1c-2.4,3-4.2,3.5-5.9,3.1s-3.2-1.8-4.2-3.3c-0.3-0.4-0.7-0.7-1.2-0.8s-1,0.1-1.3,0.4
					c-1.9,1.8-3.6,2.4-5.2,2.3c-1.4-0.1-2.8-0.7-4.3-2c-0.6-1.6-0.9-3.2-0.6-4.7c1.4-1.6,3.4,0.4,5.3,1.8c3.3,1.3,2.8-3.8,5.4-5.1
					c-3-2-0.1-5.6-3.5-6.5c-3.4-0.9-4.7,3.9-5.7,2.3c-1-1.8,4.2-2.3,3.9-5.3c-0.2-2.7-5.3-2.8-6.6-4.8L149.7,120.1L149.7,120.1z"/>
				<path id="path5482" class="st6" d="M114.3,145.3c0,1.3-1.1,2.4-2.4,2.4s-2.4-1.1-2.4-2.4s1.1-2.4,2.4-2.4S114.3,144,114.3,145.3
					L114.3,145.3z"/>
				<path id="path5484" class="st6" d="M189.9,145.3c0,1.3-1.1,2.4-2.4,2.4s-2.4-1.1-2.4-2.4s1.1-2.4,2.4-2.4S189.9,144,189.9,145.3
					L189.9,145.3z"/>
				<path id="path5486" class="st6" d="M164.5,141.4c0,1.3-1.1,2.4-2.4,2.4s-2.4-1.1-2.4-2.4s1.1-2.4,2.4-2.4S164.5,140,164.5,141.4
					L164.5,141.4z"/>
				<path id="path5488" class="st6" d="M139.8,141.4c0,1.3-1.1,2.4-2.4,2.4s-2.4-1.1-2.4-2.4s1.1-2.4,2.4-2.4S139.8,140,139.8,141.4
					L139.8,141.4z"/>
				<path id="path3769" class="st7" d="M152.1,133.6c0,1.3-1.1,2.4-2.4,2.4s-2.4-1.1-2.4-2.4s1.1-2.4,2.4-2.4
					S152.1,132.3,152.1,133.6L152.1,133.6z"/>
				<path id="path3767" class="st7" d="M125.9,136.6c0,1.3-1.1,2.4-2.4,2.4s-2.4-1.1-2.4-2.4s1.1-2.4,2.4-2.4
					S125.9,135.3,125.9,136.6L125.9,136.6z"/>
				<path id="path3778" class="st7" d="M173.6,136.6c0,1.3,1.1,2.4,2.4,2.4s2.4-1.1,2.4-2.4s-1.1-2.4-2.4-2.4
					S173.6,135.3,173.6,136.6L173.6,136.6z"/>
				<path id="path3795" class="st7" d="M97.5,143.2c-0.9,0.3-1.5,1.2-1.5,2.2c0,1.3,1.1,2.4,2.4,2.4c0.4,0,0.7-0.1,1-0.2
					c0-0.1,0-0.1,0-0.2c0-0.5-0.1-1-0.3-1.6c-0.1-0.3-0.2-0.5-0.3-0.8c-0.1-0.3-0.2-0.5-0.4-0.8s-0.3-0.5-0.5-0.8
					C97.7,143.4,97.6,143.3,97.5,143.2L97.5,143.2z"/>
				<path id="path3799" class="st7" d="M202,143.2c0.9,0.3,1.5,1.2,1.5,2.2c0,1.3-1.1,2.4-2.4,2.4c-0.4,0-0.7-0.1-1-0.2
					c0-0.1,0-0.1,0-0.2c0-0.5,0.1-1,0.3-1.6c0.1-0.3,0.2-0.5,0.3-0.8c0.1-0.3,0.2-0.5,0.4-0.8s0.3-0.5,0.5-0.8
					C201.7,143.4,201.9,143.3,202,143.2L202,143.2z"/>
				<path id="path3842" class="st3" d="M143.4,158l6.4,3.7l6.4-3.7l-6.4-3.7L143.4,158z"/>
				<path id="path3832" class="st3" d="M107.2,162.5l0.1,3.2l2.8,2.4l3.8-5.4L107.2,162.5L107.2,162.5z"/>
				<path id="path3834" class="st5" d="M118.6,159.6c0,1-0.8,1.9-1.9,1.9s-1.9-0.8-1.9-1.9s0.8-1.9,1.9-1.9S118.6,158.6,118.6,159.6
					z"/>
				<path id="path3836" class="st5" d="M120.8,164.2c0,1-0.8,1.9-1.9,1.9s-1.9-0.8-1.9-1.9s0.8-1.9,1.9-1.9S120.8,163.1,120.8,164.2
					z"/>
				<path id="path3838" class="st5" d="M139.5,156.4c-0.2,1-1.2,1.7-2.2,1.5s-1.7-1.2-1.5-2.2s1.2-1.7,2.2-1.5
					S139.7,155.3,139.5,156.4z"/>
				<path id="path3840" class="st5" d="M139.8,161.6c-0.2,1-1.2,1.7-2.2,1.5s-1.7-1.2-1.5-2.2s1.2-1.7,2.2-1.5
					S140,160.6,139.8,161.6z"/>
				<path id="rect3844" class="st8" d="M124.1,157.3l6.4-0.8c1.1-0.1,2.2,0.7,2.3,1.8l0.2,1.5c0.1,1.1-0.7,2.2-1.8,2.3l-6.4,0.8
					c-1.1,0.1-2.2-0.7-2.3-1.8l-0.2-1.5C122.1,158.5,122.9,157.4,124.1,157.3z"/>
				<path id="path3856" class="st3" d="M192.2,162.5l-0.1,3.2l-2.8,2.4l-3.8-5.4L192.2,162.5L192.2,162.5z"/>
				<path id="path3858" class="st5" d="M180.8,159.6c0,1,0.8,1.9,1.9,1.9s1.9-0.8,1.9-1.9s-0.8-1.9-1.9-1.9S180.8,158.6,180.8,159.6
					z"/>
				<path id="path3860" class="st5" d="M178.6,164.2c0,1,0.8,1.9,1.9,1.9s1.9-0.8,1.9-1.9s-0.8-1.9-1.9-1.9S178.6,163.1,178.6,164.2
					z"/>
				<path id="path3862" class="st5" d="M159.9,156.4c0.2,1,1.2,1.7,2.2,1.5s1.7-1.2,1.5-2.2s-1.2-1.7-2.2-1.5
					S159.7,155.3,159.9,156.4z"/>
				<path id="path3864" class="st5" d="M159.6,161.6c0.2,1,1.2,1.7,2.2,1.5s1.7-1.2,1.5-2.2s-1.2-1.7-2.2-1.5
					S159.4,160.6,159.6,161.6z"/>
				<path id="rect3866" class="st8" d="M166.4,159.8l0.2-1.5c0.1-1.1,1.2-1.9,2.3-1.8l6.4,0.8c1.1,0.1,1.9,1.2,1.8,2.3l-0.2,1.5
					c-0.1,1.1-1.2,1.9-2.3,1.8l-6.4-0.8C167,162,166.2,160.9,166.4,159.8z"/>
			</g>
			<path id="path3914" class="st9" d="M149.7,120.1l-0.1,0.2c-1.3,1.9-6.4,2.1-6.6,4.8c-0.2,3,5,3.6,3.9,5.3c-1,1.6-2.3-3.2-5.7-2.3
				c-3.4,0.8-0.5,4.5-3.5,6.5c2.6,1.3,2.1,6.4,5.4,5.1c1.9-1.4,3.9-3.4,5.3-1.8c0.3,1.5,0,3.1-0.6,4.7c-1.5,1.3-2.9,1.9-4.3,2
				c-1.4,0.1-2.8-0.4-4.4-1.7c0.4-0.4,0.6-0.9,0.6-1.5c0-1.3-1.1-2.4-2.4-2.4s-2.4,1.1-2.4,2.4c0,0.6,0.2,1.2,0.6,1.6
				c-1,1.4-2.4,2.6-3.9,2.9c-1.6,0.3-3.5-0.1-5.8-3.1c0,0,0,0,0,0c-0.6-1.3-0.5-2.6-0.3-3.4c3-1.2,3.9,3.2,6.7,1.8
				c3-1.5,0.5-4.9,3.6-6.7c-2.2-0.7-1.9-6.9-4.8-6.2c-2.9,0.7-2.9,6.2-5.6,4.9c-1.8-1.2,2.8-2.3,2.6-5.8c-0.1-2.9-5.4-0.8-6.2-4.4
				c-0.9,3.3-6.3,2.9-5.6,6.5c0.6,3,4.7,3.8,3.7,5.1c-1.7,1.7-4.7-3.1-6.3-2.3s-0.5,6.8-2.2,7.8c2.5,0.6,3.7,4.9,6.3,3.6
				c2.7-1.3,2.2-4.4,4.6-3.6c0.2,1.5,0.6,2.8,0.3,4.5c-0.8,1.7-3.9,4.4-8.5,1.6c0.1-0.2,0.1-0.5,0.1-0.8c0-1.3-1.1-2.4-2.4-2.4
				s-2.4,1.1-2.4,2.4c0,0.9,0.5,1.6,1.2,2c-0.4,1.7-1.7,2.8-3.4,3c-1.8,0.3-4-0.4-5.6-3c0.2-0.5,0.7-1,1.4-1.3
				c1.1-0.4,2.2,0.5,4.1,0.4c2.1-0.4-0.5-4.5,1.2-6.5c-2.9-0.7-2.5-4.4-7.2-3.3c-2.4,1.8-0.3,4.5-1.6,4.7c-1.4,0.2-1.1-3.3-2.9-4.6
				c-1.9-1.4-6.6-1.9-6,3.6c3.5-0.9,5,1,6.1,3.4c-0.5,0.4-0.9,1.1-0.9,1.8c0,1.3,1.1,2.4,2.4,2.4c0.1,0,0.2,0,0.3,0
				c0,0.3,0.1,0.6,0.2,0.9c0.8,1.5,1.9,2.6,3.1,3.4c0.8,1.9,1.6,3.6,2.5,5.2c-0.4,0.2-0.7,0.6-0.7,1.1c-0.1,0.5,0.2,1,0.6,1.3
				c0.4,0.3,1,0.4,1.4,0.1c0.1,0,0.1,0,0.1-0.1c0.5,0.9,1.1,1.9,1.6,2.8h-0.2l0.1,3.2l2.5,2.2c0.2,0.5,0.4,1.1,0.5,1.7
				c-0.5,0.3-0.8,0.8-0.9,1.3c-0.1,0.7,0.2,1.4,0.7,1.8s1.3,0.5,1.9,0.2c0,0,0,0,0.1,0c0.2,0.1,0.3,0.1,0.5,0.1
				c25.1,3.7,50,4.2,74.5,0c0.2,0,0.3-0.1,0.5-0.1c0,0,0.1,0,0.1,0c0.9,0.4,2-0.1,2.4-1.1c0.3-0.9,0-1.8-0.8-2.3
				c0.2-0.6,0.4-1.2,0.6-1.8l2.4-2.1l0.1-3.2h-0.1c0.5-0.9,1-1.9,1.5-2.8c0.1,0,0.1,0,0.2,0.1c0.5,0.2,1,0.1,1.4-0.2
				c0.4-0.3,0.6-0.8,0.6-1.3c-0.1-0.4-0.3-0.8-0.7-1.1c0.9-1.6,1.8-3.4,2.6-5.2c1.1-0.8,2.2-1.9,3-3.4c0.2-0.3,0.2-0.6,0.2-0.9
				c0.1,0,0.2,0,0.3,0c1.3,0,2.4-1.1,2.4-2.4c0-0.7-0.3-1.4-0.9-1.8c1.1-2.4,2.7-4.4,6.1-3.4c0.6-5.5-4.1-4.9-6-3.6
				c-1.9,1.4-1.6,4.8-2.9,4.6c-1.4-0.2,0.8-2.9-1.6-4.7c-4.6-1.1-4.2,2.6-7.2,3.3c1.7,2-0.9,6.1,1.2,6.5c1.9,0.1,3-0.8,4.1-0.4
				c0.7,0.4,1.1,0.8,1.4,1.3c-1.6,2.6-3.8,3.3-5.6,3.1c-1.7-0.2-3-1.3-3.4-3c0.7-0.4,1.2-1.2,1.2-2.1c0-1.3-1.1-2.4-2.4-2.4
				s-2.4,1.1-2.4,2.4c0,0.3,0,0.5,0.1,0.7c-4.5,2.8-7.6,0.3-8.5-1.4c-0.3-1.7,0.1-3.1,0.3-4.6c2.4-0.7,1.9,2.3,4.6,3.6
				c2.6,1.3,3.9-3,6.4-3.6c-1.7-1-0.6-7-2.2-7.8c-1.6-0.8-4.6,4-6.3,2.3c-1-1.4,3.1-2.1,3.7-5.1c0.7-3.6-4.8-3.2-5.6-6.4
				c-0.9,3.7-6.1,1.6-6.2,4.4c-0.1,3.5,4.5,4.5,2.6,5.8c-2.7,1.3-2.7-4.2-5.6-4.9c-2.8-0.7-2.6,5.5-4.8,6.2c3.1,1.8,0.6,5.1,3.6,6.7
				c2.8,1.4,3.7-3,6.7-1.8c0.1,0.8,0.2,2-0.3,3.3c0,0-0.1,0.1-0.1,0.1c-2.4,3-4.2,3.5-5.9,3.1c-1.5-0.3-2.9-1.5-3.9-2.9
				c0.4-0.4,0.7-1,0.7-1.6c0-1.3-1.1-2.4-2.4-2.4s-2.4,1.1-2.4,2.4c0,0.6,0.2,1.1,0.5,1.5c-1.6,1.3-3.1,1.8-4.4,1.7
				c-1.4-0.1-2.8-0.7-4.3-2c-0.6-1.6-0.9-3.2-0.6-4.7c1.4-1.6,3.4,0.4,5.3,1.8c3.3,1.3,2.8-3.8,5.4-5.1c-3-2-0.1-5.6-3.5-6.5
				c-3.4-0.9-4.7,3.9-5.7,2.3c-1-1.8,4.2-2.3,3.9-5.3c-0.2-2.7-5.3-2.8-6.6-4.8L149.7,120.1L149.7,120.1z"/>
		</g>
		<g id="g8693">
			<path id="path4560" class="st10" d="M100.1,181.2c0,23.9-0.1,47.8,0.1,71.7c0.8,21.5,17.2,41,38.2,45.6
				c19.4,4.7,41.1-3.8,52.1-20.5c6.6-9.4,9-21,8.4-32.2v-64.5L100.1,181.2L100.1,181.2z"/>
			<path id="path5459" class="st11" d="M124,292.6c0.2,0.1,0.5,0.3,0.7,0.4C124.5,292.9,124.3,292.8,124,292.6
				C124,292.7,124,292.7,124,292.6z"/>
			<path id="path5457" class="st11" d="M163.9,297.5C163.9,297.5,163.8,297.6,163.9,297.5c-0.5,0-0.8,0-1.1-0.1
				c-0.3-0.1-0.6-0.2-0.9-0.3s-0.5-0.3-0.7-0.4s-0.4-0.3-0.6-0.4c-0.4-0.3-0.6-0.4-0.8-0.5c-0.2-0.1-0.4-0.2-0.5-0.2s-0.3,0-0.5,0.2
				c-0.2,0.1-0.5,0.3-0.8,0.5c-0.2,0.1-0.4,0.3-0.6,0.4c-0.2,0.1-0.5,0.3-0.7,0.4s-0.6,0.3-0.9,0.3c-0.3,0.1-0.7,0.1-1.1,0.1
				s-0.7,0-1.1-0.1c-0.3-0.1-0.6-0.2-0.9-0.3c-0.3-0.1-0.5-0.3-0.7-0.4c-0.2-0.1-0.4-0.3-0.6-0.4c-0.4-0.3-0.6-0.4-0.8-0.5
				c-0.2-0.1-0.4-0.2-0.5-0.2s-0.3,0-0.5,0.2c-0.2,0.1-0.5,0.3-0.8,0.5c-0.2,0.1-0.4,0.3-0.6,0.4c-0.2,0.1-0.5,0.3-0.7,0.4
				c-0.3,0.1-0.6,0.3-0.9,0.3c-0.3,0.1-0.7,0.1-1.1,0.1s-0.7,0-1.1-0.1c-0.3-0.1-0.6-0.2-0.9-0.3c-0.3-0.1-0.5-0.3-0.7-0.4
				c-0.2-0.1-0.4-0.3-0.6-0.4c-0.4-0.3-0.6-0.4-0.8-0.5c-0.2-0.1-0.4-0.2-0.5-0.2s-0.3,0-0.5,0.2c-0.2,0.1-0.5,0.3-0.8,0.5
				c-0.2,0.1-0.4,0.3-0.6,0.4c-0.2,0.1-0.5,0.3-0.7,0.4s-0.6,0.3-0.9,0.3c-0.3,0.1-0.7,0.1-1.1,0.1s-0.7,0-1.1-0.1
				c-0.3-0.1-0.6-0.2-0.9-0.3c-0.3-0.1-0.5-0.3-0.7-0.4c-0.2-0.1-0.4-0.3-0.6-0.4c-0.4-0.3-0.6-0.4-0.8-0.5
				c-0.2-0.1-0.4-0.2-0.5-0.2s-0.3,0-0.5,0.2c-0.1,0.1-0.3,0.2-0.4,0.3c4.5,1.9,9.2,3.2,14.1,3.6
				C151.1,300.2,157.6,299.5,163.9,297.5L163.9,297.5z"/>
			<path id="path5455" class="st11" d="M168.9,295.7c-0.2-0.1-0.4-0.2-0.5-0.2s-0.3,0-0.5,0.2c-0.2,0.1-0.5,0.3-0.8,0.5
				c-0.2,0.1-0.4,0.3-0.6,0.4C167.3,296.3,168.1,296,168.9,295.7L168.9,295.7z"/>
			<path id="path5453" class="st12" d="M172.5,294c-0.2-0.1-0.4-0.2-0.7-0.5c-0.4-0.3-0.8-0.6-1.3-0.9c-0.3-0.1-0.6-0.2-0.9-0.3
				s-0.7-0.1-1.1-0.1s-0.7,0-1.1,0.1s-0.6,0.2-0.9,0.3c-0.5,0.3-1,0.6-1.3,0.9c-0.4,0.3-0.6,0.4-0.8,0.5c-0.2,0.1-0.4,0.2-0.5,0.2
				s-0.3,0-0.5-0.2c-0.2-0.1-0.5-0.3-0.8-0.5c-0.4-0.3-0.8-0.6-1.3-0.9c-0.3-0.1-0.6-0.2-0.9-0.3s-0.7-0.1-1.1-0.1s-0.7,0-1.1,0.1
				c-0.3,0.1-0.6,0.2-0.9,0.3c-0.3,0.1-0.5,0.3-0.7,0.4s-0.4,0.3-0.6,0.4c-0.4,0.3-0.6,0.4-0.8,0.5c-0.2,0.1-0.4,0.2-0.5,0.2
				s-0.3,0-0.5-0.2c-0.2-0.1-0.5-0.3-0.8-0.5s-0.8-0.6-1.3-0.9c-0.3-0.1-0.6-0.2-0.9-0.3c-0.3-0.1-0.7-0.1-1.1-0.1s-0.7,0-1.1,0.1
				c-0.3,0.1-0.6,0.2-0.9,0.3c-0.5,0.3-1,0.6-1.3,0.9c-0.4,0.3-0.6,0.4-0.8,0.5c-0.2,0.1-0.4,0.2-0.5,0.2s-0.3,0-0.5-0.2
				c-0.2-0.1-0.5-0.3-0.8-0.5c-0.4-0.3-0.8-0.6-1.3-0.9c-0.3-0.1-0.6-0.2-0.9-0.3c-0.3-0.1-0.7-0.1-1.1-0.1s-0.7,0-1.1,0.1
				c-0.3,0.1-0.6,0.2-0.9,0.3c-0.3,0.1-0.5,0.3-0.7,0.4s-0.4,0.3-0.6,0.4c-0.4,0.3-0.6,0.4-0.8,0.5c-0.2,0.1-0.4,0.2-0.5,0.2
				s-0.3,0-0.5-0.2c-0.2-0.1-0.5-0.3-0.8-0.5s-0.8-0.6-1.3-0.9c-0.3-0.1-0.6-0.2-0.9-0.3c-0.3-0.1-0.7-0.1-1.1-0.1s-0.7,0-1.1,0.1
				c-0.3,0.1-0.6,0.2-0.9,0.3c-0.5,0.3-1,0.6-1.3,0.9c-0.4,0.3-0.6,0.4-0.8,0.5c-0.2,0.1-0.3,0.1-0.4,0.1c1.2,0.6,2.4,1.2,3.7,1.8
				c0.1-0.1,0.3-0.2,0.4-0.3c0.2-0.1,0.4-0.2,0.5-0.2s0.3,0,0.5,0.2c0.2,0.1,0.5,0.3,0.8,0.5c0.2,0.1,0.4,0.3,0.6,0.4
				c0.2,0.1,0.5,0.3,0.7,0.4c0.3,0.1,0.6,0.3,0.9,0.3c0.3,0.1,0.7,0.1,1.1,0.1s0.7,0,1.1-0.1c0.3-0.1,0.6-0.2,0.9-0.3
				s0.5-0.3,0.7-0.4s0.4-0.3,0.6-0.4c0.4-0.3,0.6-0.4,0.8-0.5c0.2-0.1,0.4-0.2,0.5-0.2s0.3,0,0.5,0.2c0.2,0.1,0.5,0.3,0.8,0.5
				c0.2,0.1,0.4,0.3,0.6,0.4c0.2,0.1,0.5,0.3,0.7,0.4c0.3,0.1,0.6,0.3,0.9,0.3c0.3,0.1,0.7,0.1,1.1,0.1s0.7,0,1.1-0.1
				c0.3-0.1,0.6-0.2,0.9-0.3c0.3-0.1,0.5-0.3,0.7-0.4c0.2-0.1,0.4-0.3,0.6-0.4c0.4-0.3,0.6-0.4,0.8-0.5c0.2-0.1,0.4-0.2,0.5-0.2
				s0.3,0,0.5,0.2c0.2,0.1,0.5,0.3,0.8,0.5c0.2,0.1,0.4,0.3,0.6,0.4c0.2,0.1,0.5,0.3,0.7,0.4c0.3,0.1,0.6,0.3,0.9,0.3
				c0.3,0.1,0.7,0.1,1.1,0.1s0.7,0,1.1-0.1c0.3-0.1,0.6-0.2,0.9-0.3s0.5-0.3,0.7-0.4s0.4-0.3,0.6-0.4c0.4-0.3,0.6-0.4,0.8-0.5
				c0.2-0.1,0.4-0.2,0.5-0.2s0.3,0,0.5,0.2c0.2,0.1,0.5,0.3,0.8,0.5c0.2,0.1,0.4,0.3,0.6,0.4s0.5,0.3,0.7,0.4s0.6,0.3,0.9,0.3
				c0.3,0.1,0.7,0.1,1.1,0.1c0,0,0.1,0,0.1,0c0.9-0.3,1.7-0.6,2.6-0.9c0,0,0,0,0,0c0.2-0.1,0.4-0.3,0.6-0.4c0.4-0.3,0.6-0.4,0.8-0.5
				c0.2-0.1,0.4-0.2,0.5-0.2s0.3,0.1,0.5,0.2l0,0C170.1,295.2,171.3,294.6,172.5,294L172.5,294z"/>
			<path id="path5451" class="st11" d="M179.5,289.5c-0.1-0.1-0.3-0.2-0.4-0.3c-0.4-0.3-0.6-0.4-0.8-0.5c-0.2-0.1-0.4-0.2-0.5-0.2
				s-0.3,0-0.5,0.2c-0.2,0.1-0.5,0.3-0.8,0.5c-0.4,0.3-0.8,0.6-1.3,0.9c-0.3,0.1-0.6,0.2-0.9,0.3s-0.7,0.1-1.1,0.1s-0.7,0-1.1-0.1
				c-0.3-0.1-0.6-0.2-0.9-0.3c-0.5-0.3-1-0.6-1.3-0.9c-0.4-0.3-0.6-0.4-0.8-0.5c-0.2-0.1-0.4-0.2-0.5-0.2s-0.3,0-0.5,0.2
				c-0.2,0.1-0.5,0.3-0.8,0.5c-0.4,0.3-0.8,0.6-1.3,0.9c-0.3,0.1-0.6,0.2-0.9,0.3c-0.3,0.1-0.7,0.1-1.1,0.1s-0.7,0-1.1-0.1
				c-0.3-0.1-0.6-0.2-0.9-0.3c-0.3-0.1-0.5-0.3-0.7-0.4s-0.4-0.3-0.6-0.4c-0.4-0.3-0.6-0.4-0.8-0.5c-0.2-0.1-0.4-0.2-0.5-0.2
				s-0.3,0-0.5,0.2c-0.2,0.1-0.5,0.3-0.8,0.5c-0.2,0.1-0.4,0.3-0.6,0.4s-0.5,0.3-0.7,0.4c-0.3,0.1-0.6,0.2-0.9,0.3
				c-0.3,0.1-0.7,0.1-1.1,0.1s-0.7,0-1.1-0.1s-0.6-0.2-0.9-0.3c-0.5-0.3-1-0.6-1.3-0.9s-0.6-0.4-0.8-0.5c-0.2-0.1-0.4-0.2-0.5-0.2
				s-0.3,0-0.5,0.2c-0.2,0.1-0.5,0.3-0.8,0.5s-0.8,0.6-1.3,0.9c-0.3,0.1-0.6,0.2-0.9,0.3c-0.3,0.1-0.7,0.1-1.1,0.1s-0.7,0-1.1-0.1
				c-0.3-0.1-0.6-0.2-0.9-0.3c-0.5-0.3-1-0.6-1.3-0.9c-0.4-0.3-0.6-0.4-0.8-0.5c-0.2-0.1-0.4-0.2-0.5-0.2s-0.3,0-0.5,0.2
				c-0.2,0.1-0.5,0.3-0.8,0.5c-0.2,0.1-0.4,0.3-0.6,0.4s-0.5,0.3-0.7,0.4c-0.3,0.1-0.6,0.2-0.9,0.3c-0.3,0.1-0.7,0.1-1.1,0.1
				s-0.7,0-1.1-0.1c-0.3-0.1-0.6-0.2-0.9-0.3c-0.5-0.3-1-0.6-1.3-0.9c-0.4-0.3-0.6-0.4-0.8-0.5c-0.2-0.1-0.4-0.2-0.5-0.2
				s-0.3,0-0.5,0.2c-0.2,0.1-0.5,0.3-0.8,0.5c-0.4,0.3-0.8,0.6-1.3,0.9c-0.3,0.1-0.6,0.2-0.9,0.3c-0.3,0.1-0.7,0.1-1.1,0.1
				s-0.7,0-1.1-0.1c-0.3-0.1-0.6-0.2-0.9-0.3c-0.5-0.3-1-0.6-1.3-0.9c-0.4-0.3-0.6-0.4-0.8-0.5c-0.2-0.1-0.4-0.2-0.5-0.2
				s-0.3,0-0.5,0.2c-0.2,0.1-0.5,0.3-0.8,0.5c-0.2,0.2-0.6,0.4-0.8,0.5c1.3,1,2.7,2,4.1,2.8c0,0,0,0,0,0c0.3,0.1,0.4,0.3,0.7,0.4
				c0.7,0.4,1.4,0.8,2.1,1.1c0.1,0,0.3,0,0.4-0.1c0.2-0.1,0.5-0.3,0.8-0.5c0.4-0.3,0.8-0.6,1.3-0.9c0.3-0.1,0.6-0.2,0.9-0.3
				c0.3-0.1,0.7-0.1,1.1-0.1s0.7,0,1.1,0.1c0.3,0.1,0.6,0.2,0.9,0.3c0.5,0.3,1,0.6,1.3,0.9s0.6,0.4,0.8,0.5c0.2,0.1,0.4,0.2,0.5,0.2
				s0.3,0,0.5-0.2c0.2-0.1,0.5-0.3,0.8-0.5c0.2-0.1,0.4-0.3,0.6-0.4s0.5-0.3,0.7-0.4c0.3-0.1,0.6-0.2,0.9-0.3
				c0.3-0.1,0.7-0.1,1.1-0.1s0.7,0,1.1,0.1c0.3,0.1,0.6,0.2,0.9,0.3c0.5,0.3,1,0.6,1.3,0.9c0.4,0.3,0.6,0.4,0.8,0.5
				c0.2,0.1,0.4,0.2,0.5,0.2s0.3,0,0.5-0.2c0.2-0.1,0.5-0.3,0.8-0.5c0.4-0.3,0.8-0.6,1.3-0.9c0.3-0.1,0.6-0.2,0.9-0.3
				c0.3-0.1,0.7-0.1,1.1-0.1s0.7,0,1.1,0.1c0.3,0.1,0.6,0.2,0.9,0.3c0.5,0.3,1,0.6,1.3,0.9s0.6,0.4,0.8,0.5c0.2,0.1,0.4,0.2,0.5,0.2
				s0.3,0,0.5-0.2c0.2-0.1,0.5-0.3,0.8-0.5c0.2-0.1,0.4-0.3,0.6-0.4s0.5-0.3,0.7-0.4c0.3-0.1,0.6-0.2,0.9-0.3
				c0.3-0.1,0.7-0.1,1.1-0.1s0.7,0,1.1,0.1s0.6,0.2,0.9,0.3c0.5,0.3,1,0.6,1.3,0.9c0.4,0.3,0.6,0.4,0.8,0.5c0.2,0.1,0.4,0.2,0.5,0.2
				s0.3,0,0.5-0.2c0.2-0.1,0.5-0.3,0.8-0.5c0.4-0.3,0.8-0.6,1.3-0.9c0.3-0.1,0.6-0.2,0.9-0.3s0.7-0.1,1.1-0.1s0.7,0,1.1,0.1
				s0.6,0.2,0.9,0.3c0.5,0.3,1,0.6,1.3,0.9c0.3,0.2,0.5,0.4,0.7,0.5C174.9,292.7,177.3,291.2,179.5,289.5L179.5,289.5z"/>
			<path id="path5449" class="st12" d="M182.3,287.2c-0.1,0-0.3,0-0.4-0.1c-0.2-0.1-0.5-0.3-0.8-0.5c-0.2-0.1-0.4-0.3-0.6-0.4
				s-0.5-0.3-0.7-0.4c-0.3-0.1-0.6-0.2-0.9-0.3s-0.7-0.1-1.1-0.1s-0.7,0-1.1,0.1s-0.6,0.2-0.9,0.3c-0.5,0.3-1,0.6-1.3,0.9
				c-0.4,0.3-0.6,0.4-0.8,0.5c-0.2,0.1-0.4,0.2-0.5,0.2s-0.3,0-0.5-0.2c-0.2-0.1-0.5-0.3-0.8-0.5s-0.8-0.6-1.3-0.9
				c-0.3-0.1-0.6-0.2-0.9-0.3s-0.7-0.1-1.1-0.1s-0.7,0-1.1,0.1s-0.6,0.2-0.9,0.3c-0.5,0.3-1,0.6-1.3,0.9c-0.4,0.3-0.6,0.4-0.8,0.5
				c-0.2,0.1-0.4,0.2-0.5,0.2s-0.3,0-0.5-0.2c-0.2-0.1-0.5-0.3-0.8-0.5c-0.4-0.3-0.8-0.6-1.3-0.9c-0.3-0.1-0.6-0.2-0.9-0.3
				s-0.7-0.1-1.1-0.1s-0.7,0-1.1,0.1c-0.3,0.1-0.6,0.2-0.9,0.3c-0.3,0.1-0.5,0.3-0.7,0.4s-0.4,0.3-0.6,0.4c-0.4,0.3-0.6,0.4-0.8,0.5
				c-0.2,0.1-0.4,0.2-0.5,0.2s-0.3,0-0.5-0.2c-0.2-0.1-0.5-0.3-0.8-0.5s-0.8-0.6-1.3-0.9c-0.3-0.1-0.6-0.2-0.9-0.3
				c-0.3-0.1-0.7-0.1-1.1-0.1s-0.7,0-1.1,0.1c-0.3,0.1-0.6,0.2-0.9,0.3c-0.5,0.3-1,0.6-1.3,0.9c-0.4,0.3-0.6,0.4-0.8,0.5
				c-0.2,0.1-0.4,0.2-0.5,0.2s-0.3,0-0.5-0.2c-0.2-0.1-0.5-0.3-0.8-0.5c-0.4-0.3-0.8-0.6-1.3-0.9c-0.3-0.1-0.6-0.2-0.9-0.3
				c-0.3-0.1-0.7-0.1-1.1-0.1s-0.7,0-1.1,0.1c-0.3,0.1-0.6,0.2-0.9,0.3c-0.3,0.1-0.5,0.3-0.7,0.4s-0.4,0.3-0.6,0.4
				c-0.4,0.3-0.6,0.4-0.8,0.5c-0.2,0.1-0.4,0.2-0.5,0.2s-0.3,0-0.5-0.2c-0.2-0.1-0.5-0.3-0.8-0.5s-0.8-0.6-1.3-0.9
				c-0.3-0.1-0.6-0.2-0.9-0.3c-0.3-0.1-0.7-0.1-1.1-0.1s-0.7,0-1.1,0.1c-0.3,0.1-0.6,0.2-0.9,0.3c-0.5,0.3-1,0.6-1.3,0.9
				c-0.4,0.3-0.6,0.4-0.8,0.5c-0.2,0.1-0.4,0.2-0.5,0.2s-0.3,0-0.5-0.2c-0.2-0.1-0.5-0.3-0.8-0.5c-0.4-0.3-0.8-0.6-1.3-0.9
				c-0.3-0.1-0.6-0.2-0.9-0.3s-0.7-0.1-1.1-0.1s-0.7,0-1.1,0.1s-0.6,0.2-0.9,0.3c-0.3,0.1-0.5,0.3-0.7,0.4s-0.4,0.3-0.6,0.4
				c-0.4,0.3-0.6,0.4-0.8,0.5c-0.2,0.1-0.4,0.2-0.5,0.2s-0.3,0-0.5-0.2c-0.2-0.1-0.5-0.3-0.8-0.5c-0.1-0.1-0.2-0.1-0.3-0.2
				c1.3,1.2,2.7,2.4,4.1,3.5c0.3-0.2,0.6-0.4,0.8-0.5c0.4-0.3,0.6-0.4,0.8-0.5c0.2-0.1,0.4-0.2,0.5-0.2s0.3,0,0.5,0.2
				c0.2,0.1,0.5,0.3,0.8,0.5c0.4,0.3,0.8,0.6,1.3,0.9c0.3,0.1,0.6,0.2,0.9,0.3c0.3,0.1,0.7,0.1,1.1,0.1s0.7,0,1.1-0.1
				c0.3-0.1,0.6-0.2,0.9-0.3c0.5-0.3,1-0.6,1.3-0.9c0.4-0.3,0.6-0.4,0.8-0.5c0.2-0.1,0.4-0.2,0.5-0.2s0.3,0,0.5,0.2
				c0.2,0.1,0.5,0.3,0.8,0.5c0.4,0.3,0.8,0.6,1.3,0.9c0.3,0.1,0.6,0.2,0.9,0.3c0.3,0.1,0.7,0.1,1.1,0.1s0.7,0,1.1-0.1
				c0.3-0.1,0.6-0.2,0.9-0.3c0.3-0.1,0.5-0.3,0.7-0.4s0.4-0.3,0.6-0.4c0.4-0.3,0.6-0.4,0.8-0.5c0.2-0.1,0.4-0.2,0.5-0.2
				s0.3,0,0.5,0.2c0.2,0.1,0.5,0.3,0.8,0.5c0.4,0.3,0.8,0.6,1.3,0.9c0.3,0.1,0.6,0.2,0.9,0.3c0.3,0.1,0.7,0.1,1.1,0.1s0.7,0,1.1-0.1
				c0.3-0.1,0.6-0.2,0.9-0.3c0.5-0.3,1-0.6,1.3-0.9s0.6-0.4,0.8-0.5c0.2-0.1,0.4-0.2,0.5-0.2s0.3,0,0.5,0.2c0.2,0.1,0.5,0.3,0.8,0.5
				s0.8,0.6,1.3,0.9c0.3,0.1,0.6,0.2,0.9,0.3s0.7,0.1,1.1,0.1s0.7,0,1.1-0.1c0.3-0.1,0.6-0.2,0.9-0.3c0.3-0.1,0.5-0.3,0.7-0.4
				s0.4-0.3,0.6-0.4c0.4-0.3,0.6-0.4,0.8-0.5c0.2-0.1,0.4-0.2,0.5-0.2s0.3,0,0.5,0.2c0.2,0.1,0.5,0.3,0.8,0.5
				c0.2,0.1,0.4,0.3,0.6,0.4s0.5,0.3,0.7,0.4c0.3,0.1,0.6,0.2,0.9,0.3c0.3,0.1,0.7,0.1,1.1,0.1s0.7,0,1.1-0.1
				c0.3-0.1,0.6-0.2,0.9-0.3c0.5-0.3,1-0.6,1.3-0.9c0.4-0.3,0.6-0.4,0.8-0.5c0.2-0.1,0.4-0.2,0.5-0.2s0.3,0,0.5,0.2
				c0.2,0.1,0.5,0.3,0.8,0.5c0.4,0.3,0.8,0.6,1.3,0.9c0.3,0.1,0.6,0.2,0.9,0.3c0.3,0.1,0.7,0.1,1.1,0.1s0.7,0,1.1-0.1
				s0.6-0.2,0.9-0.3c0.5-0.3,1-0.6,1.3-0.9c0.4-0.3,0.6-0.4,0.8-0.5c0.2-0.1,0.4-0.2,0.5-0.2s0.3,0,0.5,0.2c0.2,0.1,0.5,0.3,0.8,0.5
				c0.1,0.1,0.3,0.2,0.4,0.3C180.4,288.8,181.4,288,182.3,287.2L182.3,287.2z"/>
			<path id="path5447" class="st11" d="M187.6,281.8C187.6,281.8,187.5,281.8,187.6,281.8c-0.3-0.2-0.5-0.2-0.6-0.2s-0.3,0-0.5,0.2
				c-0.2,0.1-0.5,0.3-0.8,0.5c-0.2,0.1-0.4,0.3-0.6,0.4c-0.2,0.1-0.5,0.3-0.7,0.4c-0.3,0.1-0.6,0.3-0.9,0.3
				c-0.3,0.1-0.7,0.1-1.1,0.1s-0.7,0-1.1-0.1c-0.3-0.1-0.6-0.2-0.9-0.3s-0.5-0.3-0.7-0.4s-0.4-0.3-0.6-0.4c-0.4-0.3-0.6-0.4-0.8-0.5
				c-0.2-0.1-0.4-0.2-0.5-0.2s-0.3,0-0.5,0.2c-0.2,0.1-0.5,0.3-0.8,0.5c-0.2,0.1-0.4,0.3-0.6,0.4c-0.2,0.1-0.5,0.3-0.7,0.4
				c-0.3,0.1-0.6,0.3-0.9,0.3c-0.3,0.1-0.7,0.1-1.1,0.1s-0.7,0-1.1-0.1c-0.3-0.1-0.6-0.2-0.9-0.3c-0.3-0.1-0.5-0.3-0.7-0.4
				c-0.2-0.1-0.4-0.3-0.6-0.4c-0.4-0.3-0.6-0.4-0.8-0.5c-0.2-0.1-0.4-0.2-0.5-0.2s-0.3,0-0.5,0.2c-0.2,0.1-0.5,0.3-0.8,0.5
				c-0.2,0.1-0.4,0.3-0.6,0.4s-0.5,0.3-0.7,0.4c-0.3,0.1-0.6,0.3-0.9,0.3c-0.3,0.1-0.7,0.1-1.1,0.1s-0.7,0-1.1-0.1
				c-0.3-0.1-0.6-0.2-0.9-0.3s-0.5-0.3-0.7-0.4s-0.4-0.3-0.6-0.4c-0.4-0.3-0.6-0.4-0.8-0.5c-0.2-0.1-0.4-0.2-0.5-0.2s-0.3,0-0.5,0.2
				c-0.2,0.1-0.5,0.3-0.8,0.5c-0.2,0.1-0.4,0.3-0.6,0.4c-0.2,0.1-0.5,0.3-0.7,0.4s-0.6,0.3-0.9,0.3c-0.3,0.1-0.7,0.1-1.1,0.1
				s-0.7,0-1.1-0.1c-0.3-0.1-0.6-0.2-0.9-0.3c-0.3-0.1-0.5-0.3-0.7-0.4c-0.2-0.1-0.4-0.3-0.6-0.4c-0.4-0.3-0.6-0.4-0.8-0.5
				c-0.2-0.1-0.4-0.2-0.5-0.2s-0.3,0-0.5,0.2c-0.2,0.1-0.5,0.3-0.8,0.5c-0.2,0.1-0.4,0.3-0.6,0.4c-0.2,0.1-0.5,0.3-0.7,0.4
				c-0.3,0.1-0.6,0.3-0.9,0.3c-0.3,0.1-0.7,0.1-1.1,0.1s-0.7,0-1.1-0.1c-0.3-0.1-0.6-0.2-0.9-0.3c-0.3-0.1-0.5-0.3-0.7-0.4
				c-0.2-0.1-0.4-0.3-0.6-0.4c-0.4-0.3-0.6-0.4-0.8-0.5c-0.2-0.1-0.4-0.2-0.5-0.2s-0.3,0-0.5,0.2c-0.2,0.1-0.5,0.3-0.8,0.5
				c-0.2,0.1-0.4,0.3-0.6,0.4c-0.2,0.1-0.5,0.3-0.7,0.4s-0.6,0.3-0.9,0.3c-0.3,0.1-0.7,0.1-1.1,0.1s-0.7,0-1.1-0.1
				c-0.3-0.1-0.6-0.2-0.9-0.3c-0.3-0.1-0.5-0.3-0.7-0.4c-0.2-0.1-0.4-0.3-0.6-0.4c-0.4-0.3-0.6-0.4-0.8-0.5
				c-0.2-0.1-0.4-0.2-0.5-0.2s-0.3,0-0.5,0.2c-0.2,0.1-0.5,0.3-0.8,0.5c-0.2,0.1-0.4,0.3-0.6,0.4c-0.2,0.1-0.5,0.3-0.7,0.4
				s-0.6,0.3-0.9,0.3c-0.3,0.1-0.7,0.1-1.1,0.1s-0.7,0-1.1-0.1c-0.3-0.1-0.6-0.2-0.9-0.3c-0.3-0.1-0.5-0.3-0.7-0.4
				c-0.2-0.1-0.4-0.3-0.6-0.4c-0.4-0.3-0.6-0.4-0.8-0.5c-0.2-0.1-0.4-0.2-0.5-0.2s-0.3,0-0.5,0.2c-0.2,0.1-0.5,0.3-0.8,0.5
				c-0.2,0.1-0.4,0.3-0.6,0.4c-0.2,0.1-0.5,0.3-0.7,0.4c-0.3,0.1-0.6,0.3-0.9,0.3c-0.3,0.1-0.7,0.1-1.1,0.1s-0.7,0-1.1-0.1
				c-0.3-0.1-0.6-0.2-0.9-0.3s-0.5-0.3-0.7-0.4s-0.4-0.3-0.6-0.4c-0.4-0.3-0.6-0.4-0.8-0.5c-0.2-0.1-0.4-0.2-0.5-0.2s-0.3,0-0.5,0.2
				c-0.1,0.1-0.4,0.2-0.6,0.4c1.3,1.5,2.6,2.9,4.1,4.2c0.1,0.1,0.2,0.1,0.3,0.2c0.4,0.3,0.6,0.4,0.8,0.5c0.2,0.1,0.4,0.2,0.5,0.2
				s0.3,0,0.5-0.2c0.2-0.1,0.5-0.3,0.8-0.5c0.2-0.1,0.4-0.3,0.6-0.4s0.5-0.3,0.7-0.4c0.3-0.1,0.6-0.2,0.9-0.3s0.7-0.1,1.1-0.1
				s0.7,0,1.1,0.1s0.6,0.2,0.9,0.3c0.5,0.3,1,0.6,1.3,0.9c0.4,0.3,0.6,0.4,0.8,0.5c0.2,0.1,0.4,0.2,0.5,0.2s0.3,0,0.5-0.2
				c0.2-0.1,0.5-0.3,0.8-0.5c0.4-0.3,0.8-0.6,1.3-0.9c0.3-0.1,0.6-0.2,0.9-0.3c0.3-0.1,0.7-0.1,1.1-0.1s0.7,0,1.1,0.1
				c0.3,0.1,0.6,0.2,0.9,0.3c0.5,0.3,1,0.6,1.3,0.9s0.6,0.4,0.8,0.5c0.2,0.1,0.4,0.2,0.5,0.2s0.3,0,0.5-0.2c0.2-0.1,0.5-0.3,0.8-0.5
				c0.2-0.1,0.4-0.3,0.6-0.4s0.5-0.3,0.7-0.4c0.3-0.1,0.6-0.2,0.9-0.3c0.3-0.1,0.7-0.1,1.1-0.1s0.7,0,1.1,0.1
				c0.3,0.1,0.6,0.2,0.9,0.3c0.5,0.3,1,0.6,1.3,0.9c0.4,0.3,0.6,0.4,0.8,0.5c0.2,0.1,0.4,0.2,0.5,0.2s0.3,0,0.5-0.2
				c0.2-0.1,0.5-0.3,0.8-0.5c0.4-0.3,0.8-0.6,1.3-0.9c0.3-0.1,0.6-0.2,0.9-0.3c0.3-0.1,0.7-0.1,1.1-0.1s0.7,0,1.1,0.1
				c0.3,0.1,0.6,0.2,0.9,0.3c0.5,0.3,1,0.6,1.3,0.9s0.6,0.4,0.8,0.5c0.2,0.1,0.4,0.2,0.5,0.2s0.3,0,0.5-0.2c0.2-0.1,0.5-0.3,0.8-0.5
				c0.2-0.1,0.4-0.3,0.6-0.4s0.5-0.3,0.7-0.4c0.3-0.1,0.6-0.2,0.9-0.3c0.3-0.1,0.7-0.1,1.1-0.1s0.7,0,1.1,0.1s0.6,0.2,0.9,0.3
				c0.5,0.3,1,0.6,1.3,0.9c0.4,0.3,0.6,0.4,0.8,0.5c0.2,0.1,0.4,0.2,0.5,0.2s0.3,0,0.5-0.2c0.2-0.1,0.5-0.3,0.8-0.5
				c0.4-0.3,0.8-0.6,1.3-0.9c0.3-0.1,0.6-0.2,0.9-0.3s0.7-0.1,1.1-0.1s0.7,0,1.1,0.1s0.6,0.2,0.9,0.3c0.5,0.3,1,0.6,1.3,0.9
				s0.6,0.4,0.8,0.5c0.2,0.1,0.4,0.2,0.5,0.2s0.3,0,0.5-0.2c0.2-0.1,0.5-0.3,0.8-0.5c0.4-0.3,0.8-0.6,1.3-0.9
				c0.3-0.1,0.6-0.2,0.9-0.3s0.7-0.1,1.1-0.1s0.7,0,1.1,0.1s0.6,0.2,0.9,0.3c0.3,0.1,0.5,0.3,0.7,0.4s0.4,0.3,0.6,0.4
				c0.4,0.3,0.6,0.4,0.8,0.5c0.2,0.1,0.3,0.1,0.4,0.1C184.2,285.6,185.9,283.7,187.6,281.8L187.6,281.8z"/>
			<path id="path4937" class="st11" d="M100.2,241.3c0,4.6,0.1,9.3,0.2,13.9c0.7,8.8,4.2,17.2,9.4,24.3c0.3-0.2,0.7-0.5,1.2-0.8
				c0.3-0.1,0.6-0.2,0.9-0.3c0.3-0.1,0.7-0.1,1.1-0.1s0.7,0,1.1,0.1c0.3,0.1,0.6,0.2,0.9,0.3s0.5,0.3,0.7,0.4s0.4,0.3,0.6,0.4
				c0.4,0.3,0.6,0.4,0.8,0.5c0.2,0.1,0.4,0.2,0.5,0.2s0.3,0,0.5-0.2c0.2-0.1,0.5-0.3,0.8-0.5c0.2-0.1,0.4-0.3,0.6-0.4
				s0.5-0.3,0.7-0.4c0.3-0.1,0.6-0.2,0.9-0.3c0.3-0.1,0.7-0.1,1.1-0.1s0.7,0,1.1,0.1c0.3,0.1,0.6,0.2,0.9,0.3c0.5,0.3,1,0.6,1.3,0.9
				c0.4,0.3,0.6,0.4,0.8,0.5c0.2,0.1,0.4,0.2,0.5,0.2s0.3,0,0.5-0.2c0.2-0.1,0.5-0.3,0.8-0.5c0.4-0.3,0.8-0.6,1.3-0.9
				c0.3-0.1,0.6-0.2,0.9-0.3c0.3-0.1,0.7-0.1,1.1-0.1s0.7,0,1.1,0.1c0.3,0.1,0.6,0.2,0.9,0.3c0.5,0.3,1,0.6,1.3,0.9s0.6,0.4,0.8,0.5
				c0.2,0.1,0.4,0.2,0.5,0.2s0.3,0,0.5-0.2c0.2-0.1,0.5-0.3,0.8-0.5c0.2-0.1,0.4-0.3,0.6-0.4s0.5-0.3,0.7-0.4
				c0.3-0.1,0.6-0.2,0.9-0.3c0.3-0.1,0.7-0.1,1.1-0.1s0.7,0,1.1,0.1c0.3,0.1,0.6,0.2,0.9,0.3c0.5,0.3,1,0.6,1.3,0.9
				c0.4,0.3,0.6,0.4,0.8,0.5c0.2,0.1,0.4,0.2,0.5,0.2s0.3,0,0.5-0.2c0.2-0.1,0.5-0.3,0.8-0.5c0.4-0.3,0.8-0.6,1.3-0.9
				c0.3-0.1,0.6-0.2,0.9-0.3c0.3-0.1,0.7-0.1,1.1-0.1s0.7,0,1.1,0.1c0.3,0.1,0.6,0.2,0.9,0.3c0.5,0.3,1,0.6,1.3,0.9s0.6,0.4,0.8,0.5
				c0.2,0.1,0.4,0.2,0.5,0.2s0.3,0,0.5-0.2c0.2-0.1,0.5-0.3,0.8-0.5c0.2-0.1,0.4-0.3,0.6-0.4s0.5-0.3,0.7-0.4
				c0.3-0.1,0.6-0.2,0.9-0.3c0.3-0.1,0.7-0.1,1.1-0.1s0.7,0,1.1,0.1c0.3,0.1,0.6,0.2,0.9,0.3c0.5,0.3,1,0.6,1.3,0.9
				c0.4,0.3,0.6,0.4,0.8,0.5c0.2,0.1,0.4,0.2,0.5,0.2s0.3,0,0.5-0.2c0.2-0.1,0.5-0.3,0.8-0.5c0.4-0.3,0.8-0.6,1.3-0.9
				c0.3-0.1,0.6-0.2,0.9-0.3c0.3-0.1,0.7-0.1,1.1-0.1s0.7,0,1.1,0.1c0.3,0.1,0.6,0.2,0.9,0.3c0.5,0.3,1,0.6,1.3,0.9s0.6,0.4,0.8,0.5
				c0.2,0.1,0.4,0.2,0.5,0.2s0.3,0,0.5-0.2c0.2-0.1,0.5-0.3,0.8-0.5c0.4-0.3,0.8-0.6,1.3-0.9c0.3-0.1,0.6-0.2,0.9-0.3
				c0.3-0.1,0.7-0.1,1.1-0.1s0.7,0,1.1,0.1c0.3,0.1,0.6,0.2,0.9,0.3c0.3,0.1,0.5,0.3,0.7,0.4s0.4,0.3,0.6,0.4
				c0.4,0.3,0.6,0.4,0.8,0.5c0.2,0.1,0.4,0.2,0.5,0.2s0.3,0,0.5-0.2c0.2-0.1,0.5-0.3,0.8-0.5c0.4-0.3,0.8-0.6,1.3-0.9
				c0.3-0.1,0.6-0.2,0.9-0.3c0.3-0.1,0.7-0.1,1.1-0.1s0.7,0,1.1,0.1c0.3,0.1,0.6,0.2,0.9,0.3c0.3,0.1,0.4,0.3,0.7,0.4
				c0.7-1,1.3-1.9,1.9-2.9c6.6-10.2,7.9-22.6,7.3-34.5v-0.4L100.2,241.3L100.2,241.3z"/>
			<path id="path4942" class="st13" d="M149.4,181.2h-49.4c0.1,20-0.1,40.1,0.1,60.1h49.3V181.2z"/>
			<path id="path2273" class="st14" d="M149.4,181.2v60.1h49.4v-60.1H149.4z"/>
			<path id="path4172" class="st15" d="M100.1,181.2c0,23.9-0.1,47.8,0.1,71.7c0.8,21.5,17.2,41,38.2,45.6
				c19.4,4.7,41.1-3.8,52.1-20.5c6.6-9.4,9-21,8.4-32.2v-64.5L100.1,181.2L100.1,181.2z"/>
			<path id="path4930" class="st15" d="M100.1,181.2c0.1,24.7-0.2,49.3,0.2,74c1.9,22.7,21.5,42.5,44.2,44.4
				c18.4,1.9,37.4-7.4,47-23.3c6.6-10.2,7.9-22.6,7.3-34.5v-60.5L100.1,181.2L100.1,181.2z"/>
			<g id="g4944">
				<path id="path2400" class="st16" d="M120.3,201.9c-3,0-4-2.4-4.6-3.9c-2.8,1.1-6.3-5-5.4-6.7c-0.7,0.8-1.8,1.6-1.2,2.4
					c-1.2-0.6-1.8-0.4-2,0c-1,1.4,1.1,2.6,0.6,3.9h-1.2c0.9,0.5,1.9,1,1.6,2.3c0.3,0.9-0.6,1.8,1.3,2.8c0.3-2.7,2.8-4.4,2.4-0.8
					c1.4,0.3,1.9,0.3,2.6,1.7c1.2,0.5,4.2,2.3,4.4,4.2c-2.9,3.8-5.5,1.5-7.9-2.3c-0.7,1.4-1.2,2.8-3.6,1.9c0.9,1.4,1.3,2.3,0.5,3.2
					c1.1,1.3,1.2,1.8,0.6,2.6c-0.7,0.9,0.6,2.1,1.6,3c-0.1-4.3,4.2-5.5,6.3,1.5c2.4-4.5,4.2-1.4,6.2-2.7c1.3-0.3,5.5,4.7,3.2,5.2
					c-10.3,2.5-4.2,5.2-3.6,9.4c-2.3,0.2-3.9,0.7-3.7,1.7c-1,0.8-2.2,1.4-1.9,3.3l8.7-0.2c1.3-0.9-0.2-2.8-1.1-4.5
					c-1-5.3,1.5-5.2,3.3-2.1c-0.1-1.5,0.1-2.7,2.7-1.7l5.8-1.6c3.8-11.9-4.5-9.1-4.7-17.6c0.8,0.6,1.6,0.8,2.5,0.4
					c-0.8-0.5-1.5-1.2-1.9-2.1c0.9,0.5,1.7,1.1,2.6,0.6c-1.2-0.5-1.4-2-1.5-3.5c1.5-0.7,1.9-2.7,2.4-4.6c-0.9,0.4-1.9,0.7-2.9-0.4
					c0.6-0.4,1.3-0.4,1.9-1.9c-0.5,0-1,0.2-2-0.6c1-0.6,1.5-1.6,1.7-2.8c-0.6,0.2-1.2,0.5-2.4,0.3c-0.1-1.4-1.4-1.9-3.2-2l0.6-1.9
					c-2.3,2.2-5.5,0.4-5.7,2.2c-0.9,0.1-2.7,0.2-4.1,0.4c0.2,1-0.4,2.2,0.9,3.1c1.3-1.4,2.3-1.5,2.9,0.7c0.5,2.2-1.4,1.3-2.9,1.1
					c-0.4,2,0,3.5,4.2,2.3C124.5,200.4,120.1,199.4,120.3,201.9L120.3,201.9z"/>
				<path id="path2402" class="st16" d="M128.3,222.5c3.7,1.3-2.3,6.1,5.8,8.7c0.1,2-4.4,1.9-4,3.1l1.1,0.7c-1,2.1,3.7,1.4,5.8,2
					l4.9-4.5c-4.9-2.4-7.3-5.9-5.6-11.4"/>
				<path id="path2404" class="st16" d="M135.1,220.8c2,0.4,3.9,0.1,4.4-4.5c0.1-5.6-5.3-8.6-4.4-14.7c0.2-2.3,1.8-7.8,6.5-6.6
					c3.5,1.7-0.3,6.6,4.8,8.6c-1-0.2-1.8,0.1-3.1-1.1c-0.1,1.6,1,2.6,2.2,3.4c-2.1,0.2-5.1-0.2-4.9-7.1c0.3-3.6-3.6-0.9-4,3.2
					c-0.3,3.1,5,8.3,4.3,14.2c-0.2,4.9-2.1,6-4.4,6.3"/>
				<path id="path2406" class="st16" d="M114.6,191c3.2,0.7,2.1,2.7,3.7,3.2c2.1,0.6,3.3,1.5,4.7,2.6c-4.1-2.2-5.7-0.2-6.7-1.3
					C115.3,194.4,116.5,192.3,114.6,191L114.6,191z"/>
				<path id="path2408" class="st16" d="M123.3,191.3c-0.6,0.4,0.2,0.8,0.7,0.8c0.7,0,1.2,0.7,1.5,1.4c-0.8-0.4-1.6-0.7-2.2-0.8
					c-0.3-0.3-0.4-0.6,0-0.9"/>
				<path id="path2410" class="st16" d="M126.6,199.9c0.5,0.6,0.9,1.4,1.2,3.2c0.4-0.7,0.9-1.3,0.5-2.6"/>
				<path id="path2412" class="st16" d="M128.2,198.6c1.9,0.9,2.5,2.3,3.1,3.6c0-1.2,0.5-2.4-0.7-3.9"/>
				<path id="path2427" class="st16" d="M120.3,201.9c0.4,1.2-0.5,2-1,3c1.3,0.2,2.4-0.1,3.5-0.5c-1.4,2.2-2.6,3-4.7,3.8
					c0.7,0.5,1.6,1,3.3,1.2c0.1,1.1-0.4,2.1-0.9,3.1c2.3-0.6,4.1-1.8,5.4-3.6c0.4,1.5,1,2.9,2.6,4c0.1-1.4,0.2-2.9,1.4-4.2"/>
				<path id="path2429" class="st16" d="M124.4,205.3c-0.1,1.2-0.5,2.1-1,2.8c0.7,0.1,1.3,0,1.8-0.5"/>
				<path id="path2431" class="st16" d="M126.4,204.8c0.9,1,1.8,2,2.1,3.6c0.5-1,0.9-2.1,0.5-3.4"/>
			</g>
			<g id="g5367">
				<g id="g5149">
					<path id="path5151" class="st17" d="M114.6,280.7l3.5-4.1l-0.2-20.6c-2.7-2.6-2.5-4.3-3-6.4l-0.1-3.2l14.3-0.1l-0.1,3.2
						c-0.5,2.1-0.3,3.9-3,6.4l-0.2,20.6l3.5,4.1C129.4,280.7,114.6,280.7,114.6,280.7z"/>
					<path id="path5153" class="st17" d="M118,276.7l7.6-0.1"/>
					<path id="path5155" class="st17" d="M114.9,248.2l14.1,0"/>
					<path id="path5157" class="st17" d="M119.1,256.1l0,18.5"/>
					<path id="path5159" class="st17" d="M120.8,256.1l0.1,18.6"/>
					<path id="path5161" class="st17" d="M122.4,256l0.1,18.6"/>
					<path id="path5163" class="st17" d="M124.1,256.1l0.1,18.6"/>
					<path id="path5165" class="st17" d="M118.2,250.1c0.8,0.2,0.9,2.5,2,2"/>
					<path id="path5167" class="st17" d="M116.8,250.7v0.7c0,0.2,0.1,0.4,0.1,0.5c0.1,0.2,0.2,0.2,0.4,0.3c0.2,0.1,0.3,0.2,0.5,0.3
						c0.1,0.1,0.4,0.3,0.4,0.4"/>
					<path id="path5169" class="st17" d="M124.8,249.3c0.2,0.2,0.3,0.3,0.4,0.6c0.1,0.2,0,0.6,0,0.8c0,0.3-0.2,0.4-0.4,0.5
						c-0.1,0.1-0.4,0.2-0.5,0.3c-0.2,0.1-0.2,0.3-0.2,0.5c-0.1,0.2-0.1,0.4-0.1,0.6c0,0.2,0,0.4,0,0.5"/>
					<path id="path5171" class="st17" d="M124,254.7c0,0,0.7,0,0.8,0c0.3-0.1,0.7-0.2,0.9-0.4c0.2-0.1,0.4-0.3,0.5-0.5
						c0.1-0.2,0.1-0.3,0.1-0.6c0-0.2,0-0.4,0-0.7v-1.3"/>
					<path id="path5173" class="st17" d="M127,249.2c0-0.2,0,0.4,0,0.7c0,0,0,0.1,0,0.1"/>
					<path id="path5175" class="st17" d="M121,254c0,0.1,0,0.5,0,0.6c0,0.1-0.4,0.1-0.6,0.1H120"/>
					<path id="path5177" class="st17" d="M118.5,253.9c-0.2,0,0,0.4,0,0.6v0.2"/>
					<path id="path5179" class="st17" d="M121.6,249.8c0,0.1-0.1,0.5,0.1,0.7c0.1,0.1,0.4,0.1,0.4,0.1"/>
					<path id="path5181" class="st17" d="M122.7,251.6c0.2,0.1-0.4-0.1-0.6,0c0,0-0.2,0.4-0.2,0.5c-0.1,0.1-0.4,0.1-0.6,0.1h-0.1"/>
					<path id="path5183" class="st17" d="M122.4,252.9c0,0,0.1,0.4,0.1,0.5"/>
					<path id="path5185" class="st17" d="M115.6,249.1c-0.2,0,0.1,0.4,0.2,0.6"/>
				</g>
				<g id="g5187">
					<path id="path5189" class="st17" d="M169.7,280.7l3.5-4.1l-0.2-20.6c-2.7-2.6-2.5-4.3-3-6.4l-0.1-3.2l14.3-0.1l-0.1,3.2
						c-0.5,2.1-0.3,3.9-3,6.4l-0.2,20.6l3.5,4.1L169.7,280.7L169.7,280.7z"/>
					<path id="path5191" class="st17" d="M173.1,276.7l7.6-0.1"/>
					<path id="path5193" class="st17" d="M170,248.2l14.1,0"/>
					<path id="path5195" class="st17" d="M174.2,256.1l0,18.5"/>
					<path id="path5197" class="st17" d="M175.9,256.1l0.1,18.6"/>
					<path id="path5199" class="st17" d="M177.6,256l0.1,18.6"/>
					<path id="path5201" class="st17" d="M179.3,256.1l0.1,18.6"/>
					<path id="path5203" class="st17" d="M173.3,250.1c0.8,0.2,0.9,2.5,2,2"/>
					<path id="path5205" class="st17" d="M171.9,250.7v0.7c0,0.2,0.1,0.4,0.1,0.5c0.1,0.2,0.1,0.2,0.4,0.3c0.2,0.1,0.3,0.2,0.5,0.3
						c0.1,0.1,0.4,0.3,0.4,0.4"/>
					<path id="path5207" class="st17" d="M180,249.3c0.2,0.2,0.3,0.3,0.4,0.6c0.1,0.2,0,0.6,0,0.8c0,0.3-0.2,0.4-0.4,0.5
						c-0.1,0.1-0.4,0.2-0.5,0.3c-0.1,0.1-0.2,0.3-0.2,0.5c-0.1,0.2-0.1,0.4-0.1,0.6c0,0.2,0,0.4,0,0.5"/>
					<path id="path5209" class="st17" d="M179.1,254.7c0,0,0.7,0,0.9,0c0.3-0.1,0.7-0.2,0.9-0.4c0.2-0.1,0.4-0.3,0.5-0.5
						c0.1-0.2,0.1-0.3,0.1-0.6c0-0.2,0-0.4,0-0.7v-1.3"/>
					<path id="path5211" class="st17" d="M182.1,249.2c0-0.2,0,0.4,0,0.7c0,0,0,0.1,0,0.1"/>
					<path id="path5213" class="st17" d="M176.2,254c0,0.1,0,0.5,0,0.6c0,0.1-0.4,0.1-0.6,0.1h-0.4"/>
					<path id="path5215" class="st17" d="M173.6,253.9c-0.2,0,0,0.4,0,0.6v0.2"/>
					<path id="path5217" class="st17" d="M176.7,249.8c0,0.1-0.1,0.5,0.1,0.7c0.1,0.1,0.4,0.1,0.4,0.1"/>
					<path id="path5219" class="st17" d="M177.8,251.6c0.1,0.1-0.4-0.1-0.6,0c0,0-0.1,0.4-0.2,0.5c-0.1,0.1-0.4,0.1-0.6,0.1h-0.1"/>
					<path id="path5221" class="st17" d="M177.6,252.9c0,0,0.1,0.4,0.1,0.5"/>
					<path id="path5223" class="st17" d="M170.8,249.1c-0.2,0,0.1,0.4,0.2,0.6"/>
				</g>
				<g id="g5225">
					<path id="path5227" class="st18" d="M126.2,258c-3.3,2.4-6.9,3.8-10.7,4.3c-1.4,4.1-0.2,8.9,2.5,9.6l0-1.9
						c4.5-0.8,6.3-2.2,8.2-3.8C127.1,262.3,127,258.9,126.2,258L126.2,258z"/>
					<path id="path5229" class="st17" d="M118,270l-1.9,0.4"/>
				</g>
				<g id="g5231">
					<path id="path5233" class="st18" d="M172.9,258c3.4,1.9,6.6,4,10.7,4.3c1.4,4.1,0.2,8.9-2.5,9.6l0-1.7
						c-4.4-0.5-6.3-2.5-8.2-3.9C172,262.3,172.1,258.9,172.9,258L172.9,258z"/>
					<path id="path5235" class="st17" d="M181,270.2l1.9,0.2"/>
				</g>
				<path id="path5237" class="st19" d="M149.5,275c1.3,0,4-0.4,5.2-1.5c2-1.6,4.4-1.1,7.6-0.1c3.3,1.1,6.7,2.3,10.8,1.9l0-8.6
					c-2.9,0.4-7.8-0.6-11.8-2.3c-3.4-1.4-5.2-1.4-7.9,0.2c-1.4,1.1-2.8,1.5-3.9,1.7c-1.1-0.1-2.5-0.6-3.9-1.7
					c-2.7-1.5-4.5-1.5-7.9-0.2c-4,1.7-8.9,2.7-11.7,2.3l0,8.6c4.2,0.4,7.4-0.8,10.8-1.9c3.2-1,5.7-1.6,7.6,0.1
					C145.5,274.6,148.2,275,149.5,275L149.5,275z"/>
				<path id="path5253" class="st20" d="M143.1,272.7v-9.1"/>
				<path id="path5255" class="st20" d="M155,263.6l0.2,9.3"/>
			</g>
			<path id="path5445" class="st12" d="M189.6,279.1c-0.2-0.1-0.4-0.3-0.7-0.4c-0.3-0.1-0.6-0.2-0.9-0.3c-0.3-0.1-0.7-0.1-1.1-0.1
				s-0.7,0-1.1,0.1c-0.3,0.1-0.6,0.2-0.9,0.3c-0.5,0.3-1,0.6-1.3,0.9c-0.4,0.3-0.6,0.4-0.8,0.5c-0.2,0.1-0.4,0.2-0.5,0.2
				s-0.3,0-0.5-0.2c-0.2-0.1-0.5-0.3-0.8-0.5c-0.2-0.1-0.4-0.3-0.6-0.4s-0.5-0.3-0.7-0.4c-0.3-0.1-0.6-0.2-0.9-0.3
				c-0.3-0.1-0.7-0.1-1.1-0.1s-0.7,0-1.1,0.1c-0.3,0.1-0.6,0.2-0.9,0.3c-0.5,0.3-1,0.6-1.3,0.9c-0.4,0.3-0.6,0.4-0.8,0.5
				c-0.2,0.1-0.4,0.2-0.5,0.2s-0.3,0-0.5-0.2c-0.2-0.1-0.5-0.3-0.8-0.5s-0.8-0.6-1.3-0.9c-0.3-0.1-0.6-0.2-0.9-0.3
				c-0.3-0.1-0.7-0.1-1.1-0.1s-0.7,0-1.1,0.1c-0.3,0.1-0.6,0.2-0.9,0.3c-0.5,0.3-1,0.6-1.3,0.9c-0.4,0.3-0.6,0.4-0.8,0.5
				c-0.2,0.1-0.4,0.2-0.5,0.2s-0.3,0-0.5-0.2c-0.2-0.1-0.5-0.3-0.8-0.5c-0.4-0.3-0.8-0.6-1.3-0.9c-0.3-0.1-0.6-0.2-0.9-0.3
				c-0.3-0.1-0.7-0.1-1.1-0.1s-0.7,0-1.1,0.1c-0.3,0.1-0.6,0.2-0.9,0.3c-0.3,0.1-0.5,0.3-0.7,0.4s-0.4,0.3-0.6,0.4
				c-0.4,0.3-0.6,0.4-0.8,0.5c-0.2,0.1-0.4,0.2-0.5,0.2s-0.3,0-0.5-0.2c-0.2-0.1-0.5-0.3-0.8-0.5s-0.8-0.6-1.3-0.9
				c-0.3-0.1-0.6-0.2-0.9-0.3c-0.3-0.1-0.7-0.1-1.1-0.1s-0.7,0-1.1,0.1c-0.3,0.1-0.6,0.2-0.9,0.3c-0.5,0.3-1,0.6-1.3,0.9
				c-0.4,0.3-0.6,0.4-0.8,0.5c-0.2,0.1-0.4,0.2-0.5,0.2s-0.3,0-0.5-0.2c-0.2-0.1-0.5-0.3-0.8-0.5c-0.4-0.3-0.8-0.6-1.3-0.9
				c-0.3-0.1-0.6-0.2-0.9-0.3c-0.3-0.1-0.7-0.1-1.1-0.1s-0.7,0-1.1,0.1c-0.3,0.1-0.6,0.2-0.9,0.3c-0.3,0.1-0.5,0.3-0.7,0.4
				s-0.4,0.3-0.6,0.4c-0.4,0.3-0.6,0.4-0.8,0.5c-0.2,0.1-0.4,0.2-0.5,0.2s-0.3,0-0.5-0.2c-0.2-0.1-0.5-0.3-0.8-0.5s-0.8-0.6-1.3-0.9
				c-0.3-0.1-0.6-0.2-0.9-0.3c-0.3-0.1-0.7-0.1-1.1-0.1s-0.7,0-1.1,0.1c-0.3,0.1-0.6,0.2-0.9,0.3c-0.5,0.3-1,0.6-1.3,0.9
				c-0.4,0.3-0.6,0.4-0.8,0.5c-0.2,0.1-0.4,0.2-0.5,0.2s-0.3,0-0.5-0.2c-0.2-0.1-0.5-0.3-0.8-0.5c-0.4-0.3-0.8-0.6-1.3-0.9
				c-0.3-0.1-0.6-0.2-0.9-0.3c-0.3-0.1-0.7-0.1-1.1-0.1s-0.7,0-1.1,0.1c-0.3,0.1-0.6,0.2-0.9,0.3c-0.3,0.1-0.5,0.3-0.7,0.4
				s-0.4,0.3-0.6,0.4c-0.4,0.3-0.6,0.4-0.8,0.5c-0.2,0.1-0.4,0.2-0.5,0.2s-0.3,0-0.5-0.2c-0.2-0.1-0.5-0.3-0.8-0.5
				c-0.2-0.1-0.4-0.3-0.6-0.4s-0.5-0.3-0.7-0.4s-0.6-0.2-0.9-0.3c-0.3-0.1-0.7-0.1-1.1-0.1s-0.7,0-1.1,0.1c-0.3,0.1-0.6,0.2-0.9,0.3
				c-0.5,0.2-0.8,0.5-1.2,0.8c0.7,0.9,1.3,1.8,2.1,2.6c0.2-0.1,0.4-0.3,0.6-0.4c0.2-0.1,0.4-0.2,0.5-0.2s0.3,0,0.5,0.2
				c0.2,0.1,0.5,0.3,0.8,0.5c0.2,0.1,0.4,0.3,0.6,0.4c0.2,0.1,0.5,0.3,0.7,0.4s0.6,0.3,0.9,0.3c0.3,0.1,0.7,0.1,1.1,0.1
				s0.7,0,1.1-0.1c0.3-0.1,0.6-0.2,0.9-0.3c0.3-0.1,0.5-0.3,0.7-0.4c0.2-0.1,0.4-0.3,0.6-0.4c0.4-0.3,0.6-0.4,0.8-0.5
				c0.2-0.1,0.4-0.2,0.5-0.2s0.3,0,0.5,0.2c0.2,0.1,0.5,0.3,0.8,0.5c0.2,0.1,0.4,0.3,0.6,0.4c0.2,0.1,0.5,0.3,0.7,0.4
				c0.3,0.1,0.6,0.3,0.9,0.3c0.3,0.1,0.7,0.1,1.1,0.1s0.7,0,1.1-0.1c0.3-0.1,0.6-0.2,0.9-0.3s0.5-0.3,0.7-0.4
				c0.2-0.1,0.4-0.3,0.6-0.4c0.4-0.3,0.6-0.4,0.8-0.5c0.2-0.1,0.4-0.2,0.5-0.2s0.3,0,0.5,0.2c0.2,0.1,0.5,0.3,0.8,0.5
				c0.2,0.1,0.4,0.3,0.6,0.4c0.2,0.1,0.5,0.3,0.7,0.4c0.3,0.1,0.6,0.3,0.9,0.3c0.3,0.1,0.7,0.1,1.1,0.1s0.7,0,1.1-0.1
				c0.3-0.1,0.6-0.2,0.9-0.3s0.5-0.3,0.7-0.4s0.4-0.3,0.6-0.4c0.4-0.3,0.6-0.4,0.8-0.5c0.2-0.1,0.4-0.2,0.5-0.2s0.3,0,0.5,0.2
				c0.2,0.1,0.5,0.3,0.8,0.5c0.2,0.1,0.4,0.3,0.6,0.4c0.2,0.1,0.5,0.3,0.7,0.4c0.3,0.1,0.6,0.3,0.9,0.3c0.3,0.1,0.7,0.1,1.1,0.1
				s0.7,0,1.1-0.1c0.3-0.1,0.6-0.2,0.9-0.3c0.3-0.1,0.5-0.3,0.7-0.4c0.2-0.1,0.4-0.3,0.6-0.4c0.4-0.3,0.6-0.4,0.8-0.5
				c0.2-0.1,0.4-0.2,0.5-0.2s0.3,0,0.5,0.2c0.2,0.1,0.5,0.3,0.8,0.5c0.2,0.1,0.4,0.3,0.6,0.4c0.2,0.1,0.5,0.3,0.7,0.4
				c0.3,0.1,0.6,0.3,0.9,0.3c0.3,0.1,0.7,0.1,1.1,0.1s0.7,0,1.1-0.1c0.3-0.1,0.6-0.2,0.9-0.3s0.5-0.3,0.7-0.4s0.4-0.3,0.6-0.4
				c0.4-0.3,0.6-0.4,0.8-0.5c0.2-0.1,0.4-0.2,0.5-0.2s0.3,0,0.5,0.2c0.2,0.1,0.5,0.3,0.8,0.5c0.2,0.1,0.4,0.3,0.6,0.4
				s0.5,0.3,0.7,0.4s0.6,0.3,0.9,0.3c0.3,0.1,0.7,0.1,1.1,0.1s0.7,0,1.1-0.1c0.3-0.1,0.6-0.2,0.9-0.3c0.3-0.1,0.5-0.3,0.7-0.4
				s0.4-0.3,0.6-0.4c0.4-0.3,0.6-0.4,0.8-0.5c0.2-0.1,0.4-0.2,0.5-0.2s0.3,0,0.5,0.2c0.2,0.1,0.5,0.3,0.8,0.5
				c0.2,0.1,0.4,0.3,0.6,0.4c0.2,0.1,0.5,0.3,0.7,0.4c0.3,0.1,0.6,0.3,0.9,0.3c0.3,0.1,0.7,0.1,1.1,0.1s0.7,0,1.1-0.1
				c0.3-0.1,0.6-0.2,0.9-0.3c0.3-0.1,0.5-0.3,0.7-0.4c0.2-0.1,0.4-0.3,0.6-0.4c0.4-0.3,0.6-0.4,0.8-0.5c0.2-0.1,0.4-0.2,0.5-0.2
				s0.3,0,0.5,0.2c0.2,0.1,0.5,0.3,0.8,0.5c0.2,0.1,0.4,0.3,0.6,0.4c0.2,0.1,0.5,0.3,0.7,0.4s0.6,0.3,0.9,0.3
				c0.3,0.1,0.7,0.1,1.1,0.1s0.7,0,1.1-0.1c0.3-0.1,0.6-0.2,0.9-0.3c0.3-0.1,0.5-0.3,0.7-0.4c0.2-0.1,0.4-0.3,0.6-0.4
				c0.4-0.3,0.6-0.4,0.8-0.5c0.2-0.1,0.4-0.2,0.5-0.2s0.3,0,0.5,0.2c0,0,0.1,0,0.1,0.1C188.3,281,189,280.1,189.6,279.1L189.6,279.1
				z"/>
			<g id="g4271">
				<path id="path4031" class="st21" d="M172.6,187.9v10.9h-1.7V190h-4.2v13.7l1.7,1.2v13.6l-3.3,4V235H186v-12.6l-3.3-4v-13.6
					l1.7-1.2V190h-4.2v8.8h-1.7v-10.9H172.6z"/>
				<path id="path4053" class="st22" d="M185.9,231.1h-20.8"/>
				<path id="path4055" class="st22" d="M185.9,229.5h-20.8"/>
				<path id="path4057" class="st22" d="M185.9,227.3h-20.8"/>
				<path id="path4059" class="st22" d="M185.9,225.1h-20.8"/>
				<path id="path4061" class="st22" d="M185.9,222.9h-20.8"/>
				<path id="path4063" class="st23" d="M184.5,220.6h-17.9"/>
				<path id="path4065" class="st22" d="M182.8,218.4h-14.5"/>
				<path id="path4067" class="st22" d="M182.8,216.6h-14.5"/>
				<path id="path4069" class="st22" d="M182.8,214.5h-14.5"/>
				<path id="path4071" class="st22" d="M182.8,212.4h-14.5"/>
				<path id="path4073" class="st22" d="M182.8,210.4h-14.5"/>
				<path id="path4075" class="st22" d="M182.8,208.3h-14.5"/>
				<path id="path4077" class="st22" d="M182.8,206.3h-14.5"/>
				<path id="path4079" class="st22" d="M182.8,204.8h-14.5"/>
				<path id="path4081" class="st22" d="M169.9,229.5v-2.2"/>
				<path id="path4083" class="st22" d="M169.9,225v-2.2"/>
				<path id="path4085" class="st22" d="M169.9,220.7v-2.2"/>
				<path id="path4089" class="st22" d="M174.3,225v-2.2"/>
				<path id="path4091" class="st22" d="M174.3,220.7v-2.2"/>
				<path id="path4095" class="st22" d="M176.6,225v-2.2"/>
				<path id="path4097" class="st22" d="M176.6,220.7v-2.2"/>
				<path id="path4099" class="st22" d="M181.1,229.5v-2.2"/>
				<path id="path4101" class="st22" d="M181.1,225v-2.2"/>
				<path id="path4103" class="st22" d="M181.1,220.7v-2.2"/>
				<g id="g4113">
					<path id="path4105" class="st22" d="M168.2,222.8v-2.2"/>
					<path id="path4107" class="st22" d="M173.1,222.8v-2.2"/>
					<path id="path4109" class="st22" d="M178,222.8v-2.2"/>
					<path id="path4111" class="st22" d="M182.9,222.8v-2.2"/>
				</g>
				<g id="g4119">
					<path id="path4121" class="st22" d="M168.2,227.2V225"/>
					<path id="path4123" class="st22" d="M173.1,227.2V225"/>
					<path id="path4125" class="st22" d="M178,227.2V225"/>
					<path id="path4127" class="st22" d="M182.9,227.2V225"/>
				</g>
				<path id="path4051" class="st24" d="M175.4,225.5c-1.1,0-1.9,1-1.9,2v7.5h3.8v-7.5C177.3,226.4,176.5,225.5,175.4,225.5
					L175.4,225.5z"/>
				<path id="rect4036" class="st25" d="M175.4,224.3c-1.7,0-3,1.5-3,3.2v7.5h1.6v-7.5c0-1.1,0.7-1.8,1.4-1.8s1.4,0.7,1.4,1.8v7.5
					h1.6v-7.5C178.4,225.9,177.2,224.3,175.4,224.3z"/>
				<g id="g4141">
					<path id="path4131" class="st22" d="M175.6,218.4v-1.6"/>
					<path id="path4129" class="st22" d="M172,218.4v-1.7"/>
					<path id="path4133" class="st22" d="M179.2,218.4v-1.6"/>
				</g>
				<g id="g4146">
					<path id="path4148" class="st22" d="M175.6,214.4v-1.9"/>
					<path id="path4150" class="st22" d="M172,214.4v-1.9"/>
					<path id="path4152" class="st22" d="M179.2,214.4v-1.9"/>
				</g>
				<path id="path4156" class="st22" d="M175.6,210.4v-2"/>
				<g id="g4162">
					<path id="path4164" class="st22" d="M175.6,206.2v-1.5"/>
					<path id="path4166" class="st22" d="M172,206.2v-1.4"/>
					<path id="path4168" class="st22" d="M179.2,206.2v-1.4"/>
				</g>
				<path id="path4047" class="st24" d="M172.2,207.6c-0.8,0-1.4,0.7-1.4,1.5v4.6h2.8v-4.6C173.6,208.4,173,207.6,172.2,207.6
					L172.2,207.6z"/>
				<path id="path4049" class="st24" d="M179.1,207.6c-0.8,0-1.4,0.7-1.4,1.5v4.6h2.8v-4.6C180.5,208.4,179.9,207.6,179.1,207.6
					L179.1,207.6z"/>
				<g id="g4177">
					<path id="path4173" class="st22" d="M173.5,216.6v-2"/>
					<path id="path4175" class="st22" d="M177.6,216.6v-2"/>
				</g>
				<g id="g4181">
					<path id="path4183" class="st22" d="M173.5,208.4v-2"/>
					<path id="path4185" class="st22" d="M177.6,208.4v-2"/>
				</g>
				<path id="path4187" class="st22" d="M184.2,203.7h-17.5"/>
				<path id="path4189" class="st22" d="M184.4,202.9h-17.7"/>
				<path id="path4191" class="st22" d="M184.4,200.9h-17.7"/>
				<path id="path4193" class="st22" d="M184.4,198.8h-17.7"/>
				<path id="path4195" class="st22" d="M180.2,196.9h4.1"/>
				<path id="path4197" class="st22" d="M180.2,194.8h4.1"/>
				<path id="path4199" class="st22" d="M180.2,192.6h4.1"/>
				<path id="path4201" class="st22" d="M166.7,196.9h4.1"/>
				<path id="path4203" class="st22" d="M166.7,194.8h4.1"/>
				<path id="path4205" class="st22" d="M166.7,192.6h4.1"/>
				<path id="path4207" class="st22" d="M172.6,196.9h5.8"/>
				<path id="path4209" class="st22" d="M172.6,194.8h5.8"/>
				<path id="path4211" class="st22" d="M172.6,192.6h5.8"/>
				<path id="path4213" class="st22" d="M172.6,190.6h5.8"/>
				<path id="path4215" class="st22" d="M168.8,190v1.4"/>
				<path id="path4217" class="st22" d="M182.3,190v1.4"/>
				<g id="g4223">
					<path id="path4219" class="st22" d="M174.6,187.8v1.4"/>
					<path id="path4221" class="st22" d="M176.4,187.8v1.4"/>
				</g>
				<path id="path4227" class="st22" d="M168.8,192.5v2.3"/>
				<path id="path4229" class="st22" d="M182.3,192.5v2.3"/>
				<path id="path4231" class="st22" d="M168.8,197v1.8"/>
				<path id="path4233" class="st22" d="M182.3,197v1.8"/>
				<path id="path4235" class="st22" d="M168.8,200.9v2.1"/>
				<path id="path4237" class="st22" d="M182.3,200.9v2.1"/>
				<path id="path4239" class="st22" d="M170.9,198.8v2"/>
				<path id="path4241" class="st22" d="M180.2,198.8v2"/>
				<path id="path4243" class="st22" d="M178.5,198.8v2"/>
				<path id="path4245" class="st22" d="M172.6,198.8v2"/>
				<path id="path4247" class="st22" d="M175.5,190.6v2"/>
				<g id="g4249">
					<path id="path4251" class="st22" d="M174.6,192.6v2.1"/>
					<path id="path4253" class="st22" d="M176.4,192.6v2.1"/>
				</g>
				<path id="path4255" class="st22" d="M175.5,194.8v2"/>
				<g id="g4257">
					<path id="path4259" class="st22" d="M174.6,196.8v2"/>
					<path id="path4261" class="st22" d="M176.4,196.8v2"/>
				</g>
				<path id="path4263" class="st22" d="M175.5,198.9v2"/>
				<g id="g4265">
					<path id="path4267" class="st22" d="M174.6,200.9v2"/>
					<path id="path4269" class="st22" d="M176.4,200.9v2"/>
				</g>
			</g>
			<path id="path4146" class="st26" d="M131.8,219.2c0,8.6,0,17.1,0,25.7c0.3,7.7,6.2,14.7,13.7,16.3c7,1.7,14.8-1.4,18.7-7.4
				c2.4-3.4,3.2-7.5,3-11.6v-23.1H131.8L131.8,219.2z"/>
			<g id="g5145">
				<path id="path5141" class="st27" d="M147.7,241.7c-0.8,4.6-2.4,8.9-4.9,12.7c3.1-1.8,5.4-2.6,2.8,2.6c2.6-3.1,4.6-3.7,5.7,0.8
					c-0.3-4.6,2.1-4.3,4.8-3.4c-5.8-3.1-4.4-8.2-5.3-12.6L147.7,241.7L147.7,241.7z"/>
				<path id="path5143" class="st28" d="M148.8,241.9c1.3,1.4,2.1,1.1,2.9-0.5c1.2-1.6,2-1.3,3.1,0.1c1,2,2.9,0.5,3.9,1.5
					c1.4,0.2,2-0.4,1.7-1.9c0-2,1.2-1.9,2.2-2.2c1.6-0.5,2.1-2.2-0.1-2.6c-1.5-0.6-2.1-1.4-0.4-3c1.1-1.9,0.5-3.2-1.7-3.2
					c-1.9,1.5-1.6-0.7-1.5-2.3c-0.6-1.8-1.8-0.9-2.9,0.1c-0.9,1.2-1,0.3-1.7-0.3c0.8-2.1-1.1-2.2-2.8-1.9l0,0
					c-0.6-1.8-1.2-3.6-3.3-1.6c-1.6-0.8-2.9-0.9-3.4,1.6c-0.4,1.4-1,1.9-1.9,1.5c-1.4-0.3-2.8-0.5-3.2,1c-0.1,1-0.9,1-1.7,1
					c-1.7-0.2-2.2,1-2,3.2c-1.4,0.8-2.2,2.7,0.5,3.2c-0.1,1.9-0.7,3.7,0.7,4.7c-0.4,2,0.2,3.5,2.2,1.6c1.6-1.9,1.6-1.2,2.5-0.5
					c1.5,1.8,1.9,1.2,3.1,1.5C146.7,243.1,148,243,148.8,241.9L148.8,241.9z"/>
			</g>
		</g>
	</g>
</g>
</svg>
