<?xml version="1.0" encoding="utf-8"?>
<!-- Generator: Adobe Illustrator 27.0.0, SVG Export Plug-In . SVG Version: 6.00 Build 0)  -->
<svg version="1.1" id="Layer_1" xmlns="http://www.w3.org/2000/svg" xmlns:xlink="http://www.w3.org/1999/xlink" x="0px" y="0px"
	 viewBox="0 0 450 450" style="enable-background:new 0 0 450 450;" xml:space="preserve">
<style type="text/css">
	.st0{fill:#9D202E;}
	.st1{fill:#FBB715;stroke:#010101;stroke-width:0.69;}
	.st2{fill:#FBB715;stroke:#010101;stroke-width:0.75;}
	.st3{fill:#FBB715;stroke:#010101;stroke-width:0.7;stroke-linejoin:round;}
</style>
<rect class="st0" width="450" height="450"/>
<g>
	<g id="castle">
		<path class="st1" d="M33.7,102.1l13.7-45.7h28.1l13.7,45.7H70.9V82.4l-0.1-1l-0.1-1l-0.2-0.9l-0.4-0.9l-0.4-0.8l-0.5-0.8l-0.5-0.7
			l-0.6-0.7l-0.7-0.7l-0.8-0.5l-0.8-0.5l-0.8-0.4l-0.9-0.4l-0.9-0.2l-1-0.1l-0.9-0.1h-0.6L60.5,73H60l-0.5,0.1l-0.9,0.2l-0.9,0.4
			L57,74.1l-0.8,0.5l-0.8,0.5l-0.6,0.7l-0.7,0.7l-0.5,0.7l-0.5,0.8l-0.4,0.8l-0.4,0.9l-0.2,0.9L52.1,81v0.5L52,81.9v20.2L33.7,102.1
			"/>
		<path class="st1" d="M49.8,38.3V47h3.6V30.5h-9.3v7.7H49.8"/>
		<path class="st1" d="M57.6,47v-8.7h7.7V47h0.8V25h-9.3v22L57.6,47"/>
		<path class="st1" d="M73.2,47v-8.7h5.6v-7.7h-9.3V47L73.2,47"/>
		<path class="st1" d="M49.8,38.3V47h7.8v-8.7h7.7V47h7.9v-8.7H81v15.1H42V38.3H49.8"/>
		<path class="st2" d="M41.8,29.7h13.8v-5.2H41.8V29.7z"/>
		<path class="st2" d="M54.5,24.1h13.8v-5.4H54.5C54.5,18.7,54.5,24.1,54.5,24.1z"/>
		<path class="st2" d="M67.3,29.7h13.9v-5.2H67.3V29.7z"/>
	</g>
	<g id="castle-2">
		<path class="st1" d="M99.1,102.1l13.7-45.7h28.1l13.7,45.7h-18.3V82.4l-0.1-1l-0.1-1l-0.2-0.9l-0.4-0.9l-0.4-0.8l-0.5-0.8
			l-0.5-0.7l-0.6-0.7l-0.7-0.7l-0.8-0.5l-0.8-0.5l-0.8-0.4l-0.9-0.4l-0.9-0.2l-1-0.1l-0.9-0.1h-0.6l-0.4,0.1h-0.5l-0.5,0.1l-0.9,0.2
			l-0.9,0.4l-0.8,0.4l-0.8,0.5l-0.8,0.5l-0.6,0.7l-0.7,0.7l-0.5,0.7l-0.5,0.8l-0.4,0.8l-0.4,0.9l-0.2,0.9l-0.1,0.5v0.5l-0.1,0.5
			v20.2L99.1,102.1"/>
		<path class="st1" d="M115.2,38.3V47h3.6V30.5h-9.3v7.7H115.2"/>
		<path class="st1" d="M123,47v-8.7h7.7V47h0.8V25h-9.3v22L123,47"/>
		<path class="st1" d="M138.7,47v-8.7h5.6v-7.7h-9.3V47L138.7,47"/>
		<path class="st1" d="M115.2,38.3V47h7.8v-8.7h7.7V47h7.9v-8.7h7.7v15.1h-39V38.3H115.2"/>
		<path class="st2" d="M107.2,29.7H121v-5.2h-13.8V29.7z"/>
		<path class="st2" d="M120,24.1h13.8v-5.4H120C120,18.7,120,24.1,120,24.1z"/>
		<path class="st2" d="M132.7,29.7h13.9v-5.2h-13.9V29.7z"/>
	</g>
	<g id="castle-3">
		<path class="st1" d="M33.7,197.8l13.7-45.7h28.1l13.7,45.7H70.9v-19.7l-0.1-1l-0.1-1l-0.2-0.9l-0.4-0.9l-0.4-0.8l-0.5-0.8
			l-0.5-0.7l-0.6-0.7l-0.7-0.7l-0.8-0.5l-0.8-0.5l-0.8-0.4l-0.9-0.4l-0.9-0.2l-1-0.1l-0.9-0.1h-0.6l-0.4,0.1H60l-0.5,0.1l-0.9,0.2
			l-0.9,0.4l-0.8,0.4l-0.8,0.5l-0.8,0.5l-0.6,0.7l-0.7,0.7l-0.5,0.7l-0.5,0.8l-0.4,0.8l-0.4,0.9l-0.2,0.9l-0.1,0.5v0.5l-0.1,0.5
			v20.2L33.7,197.8"/>
		<path class="st1" d="M49.8,134v8.7h3.6v-16.4h-9.3v7.7L49.8,134"/>
		<path class="st1" d="M57.6,142.7V134h7.7v8.7h0.8v-22h-9.3v22H57.6"/>
		<path class="st1" d="M73.2,142.7V134h5.6v-7.7h-9.3v16.5L73.2,142.7"/>
		<path class="st1" d="M49.8,134v8.7h7.8V134h7.7v8.7h7.9V134H81v15.1H42V134H49.8"/>
		<path class="st2" d="M41.8,125.4h13.8v-5.2H41.8V125.4z"/>
		<path class="st2" d="M54.5,119.8h13.8v-5.4H54.5C54.5,114.4,54.5,119.8,54.5,119.8z"/>
		<path class="st2" d="M67.3,125.4h13.9v-5.2H67.3V125.4z"/>
	</g>
	<g id="castle-4">
		<path class="st1" d="M99.1,197.8l13.7-45.7h28.1l13.7,45.7h-18.3v-19.7l-0.1-1l-0.1-1l-0.2-0.9l-0.4-0.9l-0.4-0.8l-0.5-0.8
			l-0.5-0.7l-0.6-0.7l-0.7-0.7l-0.8-0.5l-0.8-0.5l-0.8-0.4l-0.9-0.4l-0.9-0.2l-1-0.1l-0.9-0.1h-0.6l-0.4,0.1h-0.5l-0.5,0.1L124,169
			l-0.9,0.4l-0.8,0.4l-0.8,0.5l-0.8,0.5l-0.6,0.7l-0.7,0.7l-0.5,0.7l-0.5,0.8l-0.4,0.8l-0.4,0.9l-0.2,0.9l-0.1,0.5v0.5l-0.1,0.5
			v20.2L99.1,197.8"/>
		<path class="st1" d="M115.2,134v8.7h3.6v-16.4h-9.3v7.7L115.2,134"/>
		<path class="st1" d="M123,142.7V134h7.7v8.7h0.8v-22h-9.3v22H123"/>
		<path class="st1" d="M138.7,142.7V134h5.6v-7.7h-9.3v16.5L138.7,142.7"/>
		<path class="st1" d="M115.2,134v8.7h7.8V134h7.7v8.7h7.9V134h7.7v15.1h-39V134H115.2"/>
		<path class="st2" d="M107.2,125.4H121v-5.2h-13.8V125.4z"/>
		<path class="st2" d="M120,119.8h13.8v-5.4H120C120,114.4,120,119.8,120,119.8z"/>
		<path class="st2" d="M132.7,125.4h13.9v-5.2h-13.9V125.4z"/>
	</g>
</g>
<g>
	<path id="crown" class="st3" d="M322.1,332.7c0-1.6-0.6-3.1-1.2-4.6c-1-2.3-2.4-4.4-3.8-6.4c1.4,0.5,2.9,0.9,4.3,1.4
		c1.2,0.6,2.5,1.2,3.5,2.1c0.6,0.5,1.1,1,1.4,1.7c0.1,0.7,0,1.5-0.7,1.9c-0.4,0.5-1.1,0.7-1.7,0.9c0.1,0.8,0.5,1.6,0.9,2.2
		c0.8,0.7,1.8,0.9,2.8,0.8c1.5-0.2,2.8-1.1,3.5-2.4c0.5-0.7,0.6-1.2,1-0.1c0.4,0.6,1,1.3,1.6,1.8c1,0.8,2.3,1,3.6,0.9
		c0.8,0,1.6-0.2,2.2-0.6c0.7-0.7,0.6-1.8,0.3-2.7c-0.4-0.5-1.2-0.7-1.8-0.5c-0.6-0.1-1.7,0.7-1-0.3c0.1-0.8,0.6-1.4,1.2-1.9
		c0.4-0.4,1.1-0.6,1.5-0.7c0.6-1.1,1.2-2.4,2.4-3c1,0,1.6,0.9,2.1,1.6c0.4,0.5,0.5,1.5,1.1,1.5c0.9,0.3,1.7,0.9,2,1.8
		c0.2,0.4,1,1.7,0.2,1.2c-0.7-0.1-1.4-0.4-2-0.1c-0.7,0.2-0.9,0.8-0.9,1.5c-0.1,0.9,0.4,1.8,1.3,2c1,0.3,2.1,0.4,3.2,0.1
		c1-0.2,1.9-0.6,2.5-1.4c0.6-0.5,1-1.3,1.4-2c0.6,1,1.2,2.1,2.3,2.7c1.2,0.7,2.9,0.9,4.2,0.1c0.8-0.6,1.1-1.6,1.3-2.6
		c-0.7-0.2-1.2-0.5-1.8-1c-1.1-0.7-0.6-2.2,0.2-3c0.9-0.9,2-1.6,3.1-2.1c1-0.5,2-1,3.1-1.2c0.7-0.3,1.5-0.5,2.2-0.7
		c-1,1.2-1.7,2.6-2.6,3.8c-0.9,1.7-1.9,3.4-2.2,5.3c-0.4,1.7-0.1,3.5-0.2,5.2v7.4h-40.5L322.1,332.7"/>
	<path id="crown-2" class="st3" d="M266.3,361.1c0-1.6-0.6-3.1-1.2-4.6c-1-2.3-2.4-4.4-3.8-6.4c1.4,0.5,2.9,0.9,4.3,1.4
		c1.2,0.6,2.5,1.2,3.5,2.1c0.6,0.5,1.1,1,1.4,1.7c0.1,0.7,0,1.5-0.7,1.9c-0.4,0.5-1.1,0.7-1.7,0.9c0.1,0.8,0.5,1.6,0.9,2.2
		c0.8,0.7,1.8,0.9,2.8,0.8c1.5-0.2,2.8-1.1,3.5-2.4c0.5-0.7,0.6-1.2,1-0.1c0.4,0.6,1,1.3,1.6,1.8c1,0.8,2.3,1,3.6,0.9
		c0.8,0,1.6-0.2,2.2-0.6c0.7-0.7,0.6-1.8,0.3-2.7c-0.4-0.5-1.2-0.7-1.8-0.5c-0.6-0.1-1.7,0.7-1-0.3c0.1-0.8,0.6-1.4,1.2-1.9
		c0.4-0.4,1.1-0.6,1.5-0.7c0.6-1.1,1.2-2.4,2.4-3c1,0,1.6,0.9,2.1,1.6c0.4,0.5,0.5,1.5,1.1,1.5c0.9,0.3,1.7,0.9,2,1.8
		c0.2,0.4,1,1.7,0.2,1.2c-0.7-0.1-1.4-0.4-2-0.1c-0.7,0.2-0.9,0.8-0.9,1.5c-0.1,0.9,0.4,1.8,1.3,2c1,0.3,2.1,0.4,3.2,0.1
		c1-0.2,1.9-0.6,2.5-1.4c0.6-0.5,1-1.3,1.4-2c0.6,1,1.2,2.1,2.3,2.7c1.2,0.7,2.9,0.9,4.2,0.1c0.8-0.6,1.1-1.6,1.3-2.6
		c-0.7-0.2-1.2-0.5-1.8-1c-1.1-0.7-0.6-2.2,0.2-3c0.9-0.9,2-1.6,3.1-2.1c1-0.5,2-1,3.1-1.2c0.7-0.3,1.5-0.5,2.2-0.7
		c-1,1.2-1.7,2.6-2.6,3.8c-0.9,1.7-1.9,3.4-2.2,5.3c-0.4,1.7-0.1,3.5-0.2,5.2v7.4h-40.5L266.3,361.1"/>
	<path id="crown-3" class="st3" d="M322.1,361.1c0-1.6-0.6-3.1-1.2-4.6c-1-2.3-2.4-4.4-3.8-6.4c1.4,0.5,2.9,0.9,4.3,1.4
		c1.2,0.6,2.5,1.2,3.5,2.1c0.6,0.5,1.1,1,1.4,1.7c0.1,0.7,0,1.5-0.7,1.9c-0.4,0.5-1.1,0.7-1.7,0.9c0.1,0.8,0.5,1.6,0.9,2.2
		c0.8,0.7,1.8,0.9,2.8,0.8c1.5-0.2,2.8-1.1,3.5-2.4c0.5-0.7,0.6-1.2,1-0.1c0.4,0.6,1,1.3,1.6,1.8c1,0.8,2.3,1,3.6,0.9
		c0.8,0,1.6-0.2,2.2-0.6c0.7-0.7,0.6-1.8,0.3-2.7c-0.4-0.5-1.2-0.7-1.8-0.5c-0.6-0.1-1.7,0.7-1-0.3c0.1-0.8,0.6-1.4,1.2-1.9
		c0.4-0.4,1.1-0.6,1.5-0.7c0.6-1.1,1.2-2.4,2.4-3c1,0,1.6,0.9,2.1,1.6c0.4,0.5,0.5,1.5,1.1,1.5c0.9,0.3,1.7,0.9,2,1.8
		c0.2,0.4,1,1.7,0.2,1.2c-0.7-0.1-1.4-0.4-2-0.1c-0.7,0.2-0.9,0.8-0.9,1.5c-0.1,0.9,0.4,1.8,1.3,2c1,0.3,2.1,0.4,3.2,0.1
		c1-0.2,1.9-0.6,2.5-1.4c0.6-0.5,1-1.3,1.4-2c0.6,1,1.2,2.1,2.3,2.7c1.2,0.7,2.9,0.9,4.2,0.1c0.8-0.6,1.1-1.6,1.3-2.6
		c-0.7-0.2-1.2-0.5-1.8-1c-1.1-0.7-0.6-2.2,0.2-3c0.9-0.9,2-1.6,3.1-2.1c1-0.5,2-1,3.1-1.2c0.7-0.3,1.5-0.5,2.2-0.7
		c-1,1.2-1.7,2.6-2.6,3.8c-0.9,1.7-1.9,3.4-2.2,5.3c-0.4,1.7-0.1,3.5-0.2,5.2v7.4h-40.5L322.1,361.1"/>
	<path id="crown-4" class="st3" d="M377.8,361.1c0-1.6-0.6-3.1-1.2-4.6c-1-2.3-2.4-4.4-3.8-6.4c1.4,0.5,2.9,0.9,4.3,1.4
		c1.2,0.6,2.5,1.2,3.5,2.1c0.6,0.5,1.1,1,1.4,1.7c0.1,0.7,0,1.5-0.7,1.9c-0.4,0.5-1.1,0.7-1.7,0.9c0.1,0.8,0.5,1.6,0.9,2.2
		c0.8,0.7,1.8,0.9,2.8,0.8c1.5-0.2,2.8-1.1,3.5-2.4c0.5-0.7,0.6-1.2,1-0.1c0.4,0.6,1,1.3,1.6,1.8c1,0.8,2.3,1,3.6,0.9
		c0.8,0,1.6-0.2,2.2-0.6c0.7-0.7,0.6-1.8,0.3-2.7c-0.4-0.5-1.2-0.7-1.8-0.5c-0.6-0.1-1.7,0.7-1-0.3c0.1-0.8,0.6-1.4,1.2-1.9
		c0.4-0.4,1.1-0.6,1.5-0.7c0.6-1.1,1.2-2.4,2.4-3c1,0,1.6,0.9,2.1,1.6c0.4,0.5,0.5,1.5,1.1,1.5c0.9,0.3,1.7,0.9,2,1.8
		c0.2,0.4,1,1.7,0.2,1.2c-0.7-0.1-1.4-0.4-2-0.1c-0.7,0.2-0.9,0.8-0.9,1.5c-0.1,0.9,0.4,1.8,1.3,2c1,0.3,2.1,0.4,3.2,0.1
		c1-0.2,1.9-0.6,2.5-1.4c0.6-0.5,1-1.3,1.4-2c0.6,1,1.2,2.1,2.3,2.7c1.2,0.7,2.9,0.9,4.2,0.1c0.8-0.6,1.1-1.6,1.3-2.6
		c-0.7-0.2-1.2-0.5-1.8-1c-1.1-0.7-0.6-2.2,0.2-3c0.9-0.9,2-1.6,3.1-2.1c1-0.5,2-1,3.1-1.2c0.7-0.3,1.5-0.5,2.2-0.7
		c-1,1.2-1.7,2.6-2.6,3.8c-0.9,1.7-1.9,3.4-2.2,5.3c-0.4,1.7-0.1,3.5-0.2,5.2v7.4h-40.5L377.8,361.1"/>
	<path id="crown-5" class="st3" d="M291.5,389.9c0-1.6-0.6-3.1-1.2-4.6c-1-2.3-2.4-4.4-3.8-6.4c1.4,0.5,2.9,0.9,4.3,1.4
		c1.2,0.6,2.5,1.2,3.5,2.1c0.6,0.5,1.1,1,1.4,1.7c0.1,0.7,0,1.5-0.7,1.9c-0.4,0.5-1.1,0.7-1.7,0.9c0.1,0.8,0.5,1.6,0.9,2.2
		c0.8,0.7,1.8,0.9,2.8,0.8c1.5-0.2,2.8-1.1,3.5-2.4c0.5-0.7,0.6-1.2,1-0.1c0.4,0.6,1,1.3,1.6,1.8c1,0.8,2.3,1,3.6,0.9
		c0.8,0,1.6-0.2,2.2-0.6c0.7-0.7,0.6-1.8,0.3-2.7c-0.4-0.5-1.2-0.7-1.8-0.5c-0.6-0.1-1.7,0.7-1-0.3c0.1-0.8,0.6-1.4,1.2-1.9
		c0.4-0.4,1.1-0.6,1.5-0.7c0.6-1.1,1.2-2.4,2.4-3c1,0,1.6,0.9,2.1,1.6c0.4,0.5,0.5,1.5,1.1,1.5c0.9,0.3,1.7,0.9,2,1.8
		c0.2,0.4,1,1.7,0.2,1.2c-0.7-0.1-1.4-0.4-2-0.1c-0.7,0.2-0.9,0.8-0.9,1.5c-0.1,0.9,0.4,1.8,1.3,2c1,0.3,2.1,0.4,3.2,0.1
		c1-0.2,1.9-0.6,2.5-1.4c0.6-0.5,1-1.3,1.4-2c0.6,1,1.2,2.1,2.3,2.7c1.2,0.7,2.9,0.9,4.2,0.1c0.8-0.6,1.1-1.6,1.3-2.6
		c-0.7-0.2-1.2-0.5-1.8-1c-1.1-0.7-0.6-2.2,0.2-3c0.9-0.9,2-1.6,3.1-2.1c1-0.5,2-1,3.1-1.2c0.7-0.3,1.5-0.5,2.2-0.7
		c-1,1.2-1.7,2.6-2.6,3.8c-0.9,1.7-1.9,3.4-2.2,5.3c-0.4,1.7-0.1,3.5-0.2,5.2v7.4h-40.5L291.5,389.9"/>
	<path id="crown-6" class="st3" d="M352.6,389.9c0-1.6-0.6-3.1-1.2-4.6c-1-2.3-2.4-4.4-3.8-6.4c1.4,0.5,2.9,0.9,4.3,1.4
		c1.2,0.6,2.5,1.2,3.5,2.1c0.6,0.5,1.1,1,1.4,1.7c0.1,0.7,0,1.5-0.7,1.9c-0.4,0.5-1.1,0.7-1.7,0.9c0.1,0.8,0.5,1.6,0.9,2.2
		c0.8,0.7,1.8,0.9,2.8,0.8c1.5-0.2,2.8-1.1,3.5-2.4c0.5-0.7,0.6-1.2,1-0.1c0.4,0.6,1,1.3,1.6,1.8c1,0.8,2.3,1,3.6,0.9
		c0.8,0,1.6-0.2,2.2-0.6c0.7-0.7,0.6-1.8,0.3-2.7c-0.4-0.5-1.2-0.7-1.8-0.5c-0.6-0.1-1.7,0.7-1-0.3c0.1-0.8,0.6-1.4,1.2-1.9
		c0.4-0.4,1.1-0.6,1.5-0.7c0.6-1.1,1.2-2.4,2.4-3c1,0,1.6,0.9,2.1,1.6c0.4,0.5,0.5,1.5,1.1,1.5c0.9,0.3,1.7,0.9,2,1.8
		c0.2,0.4,1,1.7,0.2,1.2c-0.7-0.1-1.4-0.4-2-0.1c-0.7,0.2-0.9,0.8-0.9,1.5c-0.1,0.9,0.4,1.8,1.3,2c1,0.3,2.1,0.4,3.2,0.1
		c1-0.2,1.9-0.6,2.5-1.4c0.6-0.5,1-1.3,1.4-2c0.6,1,1.2,2.1,2.3,2.7c1.2,0.7,2.9,0.9,4.2,0.1c0.8-0.6,1.1-1.6,1.3-2.6
		c-0.7-0.2-1.2-0.5-1.8-1c-1.1-0.7-0.6-2.2,0.2-3c0.9-0.9,2-1.6,3.1-2.1c1-0.5,2-1,3.1-1.2c0.7-0.3,1.5-0.5,2.2-0.7
		c-1,1.2-1.7,2.6-2.6,3.8c-0.9,1.7-1.9,3.4-2.2,5.3c-0.4,1.7-0.1,3.5-0.2,5.2v7.4h-40.5L352.6,389.9"/>
	<path id="crown-7" class="st3" d="M322.1,418.3c0-1.6-0.6-3.1-1.2-4.6c-1-2.3-2.4-4.4-3.8-6.4c1.4,0.5,2.9,0.9,4.3,1.4
		c1.2,0.6,2.5,1.2,3.5,2.1c0.6,0.5,1.1,1,1.4,1.7c0.1,0.7,0,1.5-0.7,1.9c-0.4,0.5-1.1,0.7-1.7,0.9c0.1,0.8,0.5,1.6,0.9,2.2
		c0.8,0.7,1.8,0.9,2.8,0.8c1.5-0.2,2.8-1.1,3.5-2.4c0.5-0.7,0.6-1.2,1-0.1c0.4,0.6,1,1.3,1.6,1.8c1,0.8,2.3,1,3.6,0.9
		c0.8,0,1.6-0.2,2.2-0.6c0.7-0.7,0.6-1.8,0.3-2.7c-0.4-0.5-1.2-0.7-1.8-0.5c-0.6-0.1-1.7,0.7-1-0.3c0.1-0.8,0.6-1.4,1.2-1.9
		c0.4-0.4,1.1-0.6,1.5-0.7c0.6-1.1,1.2-2.4,2.4-3c1,0,1.6,0.9,2.1,1.6c0.4,0.5,0.5,1.5,1.1,1.5c0.9,0.3,1.7,0.9,2,1.8
		c0.2,0.4,1,1.7,0.2,1.2c-0.7-0.1-1.4-0.4-2-0.1c-0.7,0.2-0.9,0.8-0.9,1.5c-0.1,0.9,0.4,1.8,1.3,2c1,0.3,2.1,0.4,3.2,0.1
		c1-0.2,1.9-0.6,2.5-1.4c0.6-0.5,1-1.3,1.4-2c0.6,1,1.2,2.1,2.3,2.7c1.2,0.7,2.9,0.9,4.2,0.1c0.8-0.6,1.1-1.6,1.3-2.6
		c-0.7-0.2-1.2-0.5-1.8-1c-1.1-0.7-0.6-2.2,0.2-3c0.9-0.9,2-1.6,3.1-2.1c1-0.5,2-1,3.1-1.2c0.7-0.3,1.5-0.5,2.2-0.7
		c-1,1.2-1.7,2.6-2.6,3.8c-0.9,1.7-1.9,3.4-2.2,5.3c-0.4,1.7-0.1,3.5-0.2,5.2v7.4h-40.5L322.1,418.3"/>
</g>
</svg>
