<svg xmlns="http://www.w3.org/2000/svg" id="flag-icons-es-md" viewBox="0 0 800 800">
	<rect fill="#c60b1e" width="800" height="800" x="0" y="0" />
	<path fill="#fff" d="m545.4 393.8l14.3 44h46.3l-37.5 27.2 14.3 43.9-37.4-27.1-37.4 27.1 14.3-43.9-37.4-27.2h46.2z"/>
	<path fill="#fff" d="m400 393.8l14.3 44h46.3l-37.5 27.2 14.3 43.9-37.4-27.1-37.4 27.1 14.3-43.9-37.4-27.2h46.2z"/>
	<path fill="#fff" d="m254.4 393.8l14.3 44h46.3l-37.5 27.2 14.3 43.9-37.4-27.1-37.4 27.1 14.3-43.9-37.4-27.2h46.2z"/>
	<path fill="#fff" d="m618.2 290.8l14.3 44h46.3l-37.5 27.2 14.3 43.9-37.4-27.1-37.4 27.1 14.3-43.9-37.4-27.2h46.2z"/>
	<path fill="#fff" d="m472.8 290.8l14.3 44h46.3l-37.5 27.2 14.3 43.9-37.4-27.1-37.4 27.1 14.3-43.9-37.4-27.2h46.2z"/>
	<path fill="#fff" d="m327.2 290.8l14.3 44h46.3l-37.5 27.2 14.3 43.9-37.4-27.1-37.4 27.1 14.3-43.9-37.4-27.2h46.2z"/>
	<path fill="#fff" d="m181.8 290.8l14.3 44h46.2l-37.4 27.2 14.3 43.9-37.4-27.1-37.4 27.1 14.3-43.9-37.4-27.2h46.2z"/>
</svg>