<?xml version="1.0" encoding="UTF-8"?>
<svg id="Layer_1" data-name="Layer 1" xmlns="http://www.w3.org/2000/svg" viewBox="0 0 450 450">
  <defs>
    <style>
      .cls-1, .cls-2, .cls-3, .cls-4, .cls-5 {
        fill: none;
      }

      .cls-6 {
        stroke-width: .16px;
      }

      .cls-6, .cls-7, .cls-8, .cls-9, .cls-10, .cls-11, .cls-12, .cls-13, .cls-14, .cls-15, .cls-16, .cls-2, .cls-17, .cls-18, .cls-19, .cls-20, .cls-21, .cls-22, .cls-23, .cls-4, .cls-24, .cls-25, .cls-26, .cls-27, .cls-5 {
        stroke: #010101;
      }

      .cls-6, .cls-8, .cls-28, .cls-13, .cls-14, .cls-29, .cls-15, .cls-21, .cls-23, .cls-25, .cls-30, .cls-27 {
        fill: #e9c11e;
      }

      .cls-6, .cls-11, .cls-13, .cls-21, .cls-23, .cls-24, .cls-25 {
        stroke-linejoin: round;
      }

      .cls-6, .cls-13, .cls-21 {
        stroke-linecap: round;
      }

      .cls-7, .cls-8, .cls-28, .cls-9, .cls-10, .cls-12, .cls-14, .cls-15, .cls-16, .cls-17, .cls-18, .cls-19, .cls-20, .cls-22, .cls-26, .cls-31, .cls-30, .cls-27 {
        fill-rule: evenodd;
      }

      .cls-7, .cls-8, .cls-28, .cls-9, .cls-2, .cls-3, .cls-21, .cls-23, .cls-24, .cls-25 {
        stroke-width: .5px;
      }

      .cls-7, .cls-18, .cls-26 {
        fill: #00904d;
      }

      .cls-28, .cls-3 {
        stroke: #15140e;
      }

      .cls-9, .cls-10, .cls-11, .cls-12, .cls-16, .cls-20, .cls-24 {
        fill: #e3e4e5;
      }

      .cls-10 {
        stroke-width: .95px;
      }

      .cls-11 {
        stroke-width: 1.23px;
      }

      .cls-12 {
        stroke-width: 1.02px;
      }

      .cls-13 {
        stroke-width: .3px;
      }

      .cls-14 {
        stroke-miterlimit: 1.07;
        stroke-width: .27px;
      }

      .cls-15 {
        stroke-width: .27px;
      }

      .cls-15, .cls-4 {
        stroke-miterlimit: 1.04;
      }

      .cls-16 {
        stroke-width: .92px;
      }

      .cls-17 {
        stroke-width: 3.1px;
      }

      .cls-17, .cls-19, .cls-22 {
        fill: #ec2227;
      }

      .cls-18, .cls-19, .cls-20 {
        stroke-width: .94px;
      }

      .cls-22 {
        stroke-width: .92px;
      }

      .cls-23 {
        isolation: isolate;
        opacity: .96;
      }

      .cls-4 {
        stroke-width: .19px;
      }

      .cls-26 {
        stroke-width: .77px;
      }

      .cls-31 {
        fill: #da1f27;
      }

      .cls-27 {
        stroke-width: .23px;
      }

      .cls-5 {
        stroke-width: .72px;
      }
    </style>
  </defs>
  <path class="cls-31" d="M0-.09H450V449.91H0V-.09Z"/>
  <g>
    <g>
      <path class="cls-22" d="M224.97,142.76c8.05,0,15.98,.79,20.43,1.62,5.52,.64,7.87,2.3,11.83,2.64,3.77,.32,24.18,10.36,20.78,23.86l-2.03,4.9-8.55,3.64-1.33,1-.96,3.21-39.89-5.51-36.72,5.25-1.81-2.86-1.95-.25c-2.78,.66-8.15-3.41-10.33-4.95l-2.09-1.37s-2.02-.28,.15-3.06c-5.69-4.08,9.51-23.04,20.34-23.86,3.46-.26,8.18-1.8,12.28-2.73,5.63-1.11,11.82-1.53,19.87-1.53h0Z"/>
      <g>
        <path class="cls-13" d="M178.82,182.35c29.94-13.89,63.94-13.22,91.75-.72-2.15,3.29-4.19,7.28-3.49,10.57-28.4-11.13-50.74-13.97-84.01,.2,.18-4.35-1.03-8.9-4.25-10.06Z"/>
        <path class="cls-27" d="M224.55,159.33s0,.03,0,.03h-.21s.03,1.01,0,2.12c-.01,.56-.01,1.15-.07,1.64s-.18,.89-.24,1c-.57,1.03-1.26,2.21-2.12,3.06s-1.85,1.67-3.19,1.53c-2.91-.29-4.63-1.97-5.58-3.33-.28-.4-.37-.71-.51-1.06,0-.15,.1-.35,.1-.48,0-.37-.02-.69-.1-.96s-.14-.53-.51-.71l-.24-.13-.24,.1c-.4,.16-.49,.51-.51,.77s0,.52,.07,.84c.05,.21,.26,.48,.34,.71-.05,.52-.07,1.03-.31,1.64-.64,1.64-2.02,3.62-4.9,4.07-2.16,.34-4.03-1.09-5.35-2.37-.66-.64-1.17-1.29-1.47-1.8-.02-.04-.01-.06-.03-.1-.11-.32-.1-.67-.31-.96l-.31-.42-.45,.26c-.28,.16-.31,.41-.31,.55,0,.14,.03,.27,.07,.39,.07,.21,.19,.44,.34,.71,.01,.02,.02,.04,.03,.06,.23,.87,.22,1.8-.21,2.77-.58,1.33-1.72,2.85-2.91,3.43-1.83,.89-3.15,.67-4.42,.3s-2.51-1.23-3.94-2.41l-.99-.84,.1,1.25c.2,2.46-.19,3.69-.96,4.5s-2.06,1.91-3.73,2.58c-1.45,.59-3.35-.72-4.9-1.68-.78-.48-1.45-.99-1.92-1.42-.23-.21-.4-.39-.51-.51-.06-.06-.09-.11-.1-.13,.01,.03,.08,.08,0,.32l-1.03-.29c-.09,.26,0,.33,.03,.39,.03,.06,.04,.09,.07,.13,.05,.08,.1,.14,.17,.23,.15,.16,.36,.38,.62,.61,.51,.46,1.25,1.02,2.09,1.54,1.68,1.05,3.91,2.59,5.93,1.78,1.65-.66,3.41-.67,4.42-1.74,.84-.9,7.59-2.74,9.59-3.71,1.49-.72,7.95-1.97,10.59-2.38,3.27-.51,8.93-1.77,12.09-1.45,1.71,.17,11.04,.17,12.75,0,3.17-.32,8.83,.93,12.09,1.45,2.64,.42,19.22,5.16,20.06,6.06,1.01,1.08,2.89,1.12,4.54,1.78,2.02,.81,4.24-.73,5.93-1.78,.84-.52,1.58-1.08,2.09-1.54,.26-.23,.47-.45,.62-.61,.07-.08,.12-.15,.17-.23,.03-.04,.04-.07,.07-.13,.03-.06,.12-.13,.03-.39l-1.03,.29c-.08-.24-.01-.29,0-.32-.01,.02-.05,.07-.1,.13-.11,.12-.28,.3-.51,.51-.47,.42-1.14,.93-1.92,1.42-1.55,.96-3.45,2.26-4.9,1.68-1.67-.67-2.97-1.76-3.73-2.58-.77-.82-1.16-2.04-.96-4.5l.1-1.25-.99,.84c-1.43,1.18-2.67,2.05-3.94,2.41-1.27,.36-2.59,.58-4.42-.3-1.19-.58-2.33-2.1-2.91-3.43-.42-.96-.44-1.89-.21-2.77,.01-.03,.02-.04,.03-.06,.15-.27,.27-.49,.34-.71,.04-.12,.07-.25,.07-.39,0-.14-.02-.39-.31-.55l-.45-.26-.31,.42c-.2,.29-.19,.65-.31,.96-.02,.04-.01,.06-.03,.1-.3,.51-.81,1.16-1.47,1.8-1.32,1.28-3.19,2.71-5.35,2.37-2.88-.45-4.26-2.43-4.9-4.07-.24-.61-.26-1.12-.31-1.64,.09-.23,.3-.5,.34-.71,.07-.32,.1-.58,.07-.84s-.12-.61-.51-.77l-.24-.1-.24,.13c-.37,.18-.43,.43-.51,.71s-.1,.6-.1,.96c0,.14,.09,.33,.1,.48-.15,.36-.24,.67-.51,1.06-.96,1.36-2.67,3.04-5.58,3.33-1.34,.14-2.32-.69-3.19-1.53-.86-.85-1.56-2.02-2.12-3.06-.06-.11-.18-.5-.24-1-.06-.49-.06-1.08-.07-1.64-.03-1.12,0-2.12,0-2.12h-.21s0-.03,0-.03h-.89Z"/>
        <path class="cls-6" d="M225.08,169.44c-11.15,0-22.16,2.12-30.63,4.63-4.24,1.25-7.83,2.62-10.5,3.84-1.33,.61-2.44,1.19-3.29,1.74s-1.18,.72-2.08,1.68c-.7,.79-.49,1.56,.13,2.03,.71,.54,1.33,.14,2.39-.65,.04,0,.16-.19,.85-.63s1.71-1,2.97-1.58c2.51-1.15,6.03-2.46,10.17-3.68,8.29-2.45,19.12-4.52,29.98-4.52s21.24,1.92,29.17,4.26c3.96,1.17,7.3,2.45,9.8,3.63,2.51,1.17,4.26,2.41,4.52,2.73,.58,.73,1.51,1.63,2.07,.88s.54-1.96-.04-2.68c-1.12-1.39-2.88-2.33-5.53-3.58s-6.11-2.59-10.17-3.79c-8.13-2.4-18.68-4.31-29.82-4.31Z"/>
        <path class="cls-27" d="M224.55,159.33s0,.03,0,.03h-.21s.03,1.01,0,2.12c-.01,.56-.01,1.15-.07,1.64s-.18,.89-.24,1c-.57,1.03-1.26,2.21-2.12,3.06s-1.85,1.46-3.19,1.33c-2.91-.29-4.63-1.77-5.58-3.13-.28-.4-.37-.71-.51-1.06,0-.15,.1-.35,.1-.48,0-.37-.02-.69-.1-.96s-.14-.53-.51-.71l-.24-.13-.24,.1c-.4,.16-.49,.51-.51,.77s0,.52,.07,.84c.05,.21,.26,.48,.34,.71-.05,.52-.07,1.03-.31,1.64-.64,1.64-2.02,3.62-4.9,4.07-2.16,.34-4.03-1.09-5.35-2.37-.66-.64-1.17-1.29-1.47-1.8-.02-.04-.01-.06-.03-.1-.11-.32-.1-.67-.31-.96l-.31-.42-.45,.26c-.28,.16-.31,.41-.31,.55,0,.14,.03,.27,.07,.39,.07,.21,.19,.44,.34,.71,.01,.02,.02,.04,.03,.06,.23,.87,.22,1.8-.21,2.77-.58,1.33-1.72,2.85-2.91,3.43-1.83,.89-3.15,.67-4.42,.3s-2.51-1.23-3.94-2.41l-.99-.84,.1,1.25c.2,2.46-.19,3.69-.96,4.5s-2.06,1.8-3.73,2.48c-1.45,.59-3.35-.61-4.9-1.58-.78-.48-1.45-.99-1.92-1.42-.23-.21-.4-.39-.51-.51-.06-.06-.09-.11-.1-.13,.01,.03,.08,.08,0,.32l-1.03-.29c-.09,.26,0,.33,.03,.39,.03,.06,.04,.09,.07,.13,.05,.08,.1,.14,.17,.23,.15,.16,.36,.38,.62,.61,.51,.46,1.25,1.02,2.09,1.54,1.68,1.05,3.91,2.49,5.93,1.67,1.65-.66,3.1-1.66,4.11-2.73,.84-.9,1.16-2.32,1.16-4.21,1.14,.88,2.26,1.64,3.49,1.99,1.54,.44,3.24,.57,5.24-.4,1.49-.72,2.72-2.4,3.39-3.94,.24-.54,.3-1.1,.38-1.67,.18,.2,.27,.38,.48,.58,1.46,1.42,3.7,3.07,6.34,2.66,3.27-.51,4.99-2.85,5.72-4.75,.06-.15,.02-.27,.07-.42,1.12,1.54,3.13,3.19,6.3,3.51,1.71,.17,3.07-.66,4.08-1.65s1.72-2.23,2.3-3.28c.58,1.05,1.29,2.29,2.3,3.28,1.01,.99,2.37,1.82,4.08,1.65,3.17-.32,5.18-1.97,6.3-3.51,.05,.15,0,.27,.07,.42,.74,1.89,2.46,4.13,5.72,4.64,2.64,.42,4.88-1.14,6.34-2.55,.21-.2,.3-.38,.48-.58,.08,.57,.14,1.13,.38,1.67,.68,1.54,1.91,3.02,3.39,3.74,2,.97,3.7,1.05,5.24,.6,1.23-.35,2.36-1.11,3.49-1.99,0,1.9,.32,3.32,1.16,4.21,1.01,1.08,2.46,2.07,4.11,2.73,2.02,.81,4.24-.63,5.93-1.67,.84-.52,1.58-1.08,2.09-1.54,.26-.23,.47-.45,.62-.61,.07-.08,.12-.15,.17-.23,.03-.04,.04-.07,.07-.13,.03-.06,.12-.13,.03-.39l-1.03,.29c-.08-.24-.01-.29,0-.32-.01,.02-.05,.07-.1,.13-.11,.12-.28,.3-.51,.51-.47,.42-1.14,.93-1.92,1.42-1.55,.96-3.45,2.16-4.9,1.58-1.67-.67-2.97-1.66-3.73-2.48s-1.16-2.04-.96-4.5l.1-1.25-.99,.84c-1.43,1.18-2.67,2.05-3.94,2.41-1.27,.36-2.59,.38-4.42-.51-1.19-.58-2.33-1.9-2.91-3.22-.42-.96-.44-1.89-.21-2.77,.01-.03,.02-.04,.03-.06,.15-.27,.27-.49,.34-.71,.04-.12,.07-.25,.07-.39,0-.14-.02-.39-.31-.55l-.45-.26-.31,.42c-.2,.29-.19,.65-.31,.96-.02,.04-.01,.06-.03,.1-.3,.51-.81,1.16-1.47,1.8-1.32,1.28-3.19,2.6-5.35,2.26-2.88-.45-4.26-2.33-4.9-3.97-.24-.61-.26-1.12-.31-1.64,.09-.23,.3-.5,.34-.71,.07-.32,.1-.58,.07-.84s-.12-.61-.51-.77l-.24-.1-.24,.13c-.37,.18-.43,.43-.51,.71s-.1,.6-.1,.96c0,.14,.09,.33,.1,.48-.15,.36-.24,.67-.51,1.06-.96,1.36-2.67,2.83-5.58,3.13-1.34,.14-2.32-.48-3.19-1.33-.86-.85-1.56-2.02-2.12-3.06-.06-.11-.18-.5-.24-1-.06-.49-.06-1.08-.07-1.64-.03-1.12,0-2.12,0-2.12h-.21s0-.03,0-.03h-.89Z"/>
      </g>
      <g>
        <path class="cls-11" d="M182.98,168.07c0,1.41,1.21,2.54,2.71,2.54s2.71-1.14,2.71-2.54h0c0-1.41-1.21-2.54-2.71-2.54s-2.71,1.14-2.71,2.54Z"/>
        <path class="cls-11" d="M261.6,168.07c0,1.41,1.21,2.54,2.71,2.54s2.71-1.14,2.71-2.54h0c0-1.41-1.21-2.54-2.71-2.54s-2.71,1.14-2.71,2.54Z"/>
      </g>
      <g>
        <path class="cls-20" d="M260.74,182.57c0-1.07-.81-1.93-1.8-1.93s-1.81,.87-1.81,1.93,.81,1.94,1.81,1.94,1.8-.87,1.8-1.94Z"/>
        <path class="cls-20" d="M189.26,182.57c0-1.07,.81-1.93,1.8-1.93s1.81,.87,1.81,1.93-.81,1.94-1.81,1.94-1.8-.87-1.8-1.94Z"/>
        <g>
          <path class="cls-18" d="M269.41,188l-1.02-2.47-4.21-.16,2.71,3.3,2.52-.68Z"/>
          <path class="cls-18" d="M180.59,188l1.02-2.47,4.21-.16-2.71,3.3-2.52-.68Z"/>
        </g>
      </g>
      <g>
        <g>
          <g>
            <g>
              <path class="cls-25" d="M250.29,132.1c34.05-6.74,35.08,24.2,27.88,36.96l-1.57-1.01c.65-3.42,3.75-11.25-.08-17.75-6.5-11.05-17.45-14.56-25.72-14.38l-.51-3.82Z"/>
              <path class="cls-25" d="M250.18,131.2c32.81-2.97,37.72,25.27,30.52,38.03l-2.65-2.07c1.57-1.54,3.66-10.22,.91-16.31-6.03-13.37-18.85-16.55-28.28-15.83l-.51-3.82Z"/>
              <path class="cls-25" d="M249.44,131.9c32.43-6.61,35.78,20.78,36.32,32.93l-5.15,4.22c.02-.82,0-3.68-.06-4.52-.05-.71-.17,.58,.11-.08,5.31-11.35-5.11-33.68-30.18-30.47l-1.04-2.08Z"/>
            </g>
            <g>
              <path class="cls-24" d="M266.59,132.6c0,1.39-1.2,2.51-2.68,2.51s-2.68-1.13-2.68-2.51h0c0-1.39,1.2-2.51,2.68-2.51s2.68,1.13,2.68,2.51Z"/>
              <path class="cls-24" d="M261.32,131.71c0,1.18-1.01,2.13-2.27,2.13s-2.27-.95-2.27-2.13h0c0-1.18,1.01-2.13,2.27-2.13s2.27,.95,2.27,2.13Z"/>
              <path class="cls-24" d="M256.63,131.96c0,1.04-.9,1.89-2.01,1.89s-2.01-.84-2.01-1.89h0c0-1.04,.9-1.89,2.01-1.89s2.01,.84,2.01,1.89Z"/>
              <path class="cls-24" d="M252.73,132.2c0,.88-.76,1.6-1.7,1.6s-1.7-.72-1.7-1.6h0c0-.88,.76-1.6,1.7-1.6s1.7,.72,1.7,1.6Z"/>
            </g>
          </g>
          <g>
            <g>
              <path class="cls-25" d="M199.71,132.1c-34.05-6.74-35.08,24.2-27.88,36.96l1.57-1.01c-2.1-6.47-2.85-12.57,.08-17.75,6.3-11.16,17.45-14.56,25.72-14.38l.51-3.82Z"/>
              <path class="cls-25" d="M199.82,131.2c-32.81-2.97-37.72,25.27-30.52,38.03l2.65-2.07c-2.07-2.16-3.33-10.38-.91-16.31,5.52-13.56,18.85-16.55,28.28-15.83l.51-3.82Z"/>
              <path class="cls-25" d="M200.56,131.9c-32.43-6.61-35.78,20.78-36.32,32.93l5.15,4.22c-.02-.82,0-3.68,.06-4.52,.05-.71,.17,.58-.11-.08-5.31-11.35,5.11-33.68,30.18-30.47l1.04-2.08Z"/>
            </g>
            <path class="cls-9" d="M226.69,130.11c-.02-.78-.75-1.4-1.62-1.39-.88,.01-1.58,.66-1.57,1.44,.02,.79,.75,1.41,1.62,1.39,.88-.01,1.58-.66,1.56-1.45Z"/>
            <g>
              <g>
                <path class="cls-24" d="M161.92,164.93c0,1.95,1.68,3.52,3.75,3.52s3.75-1.58,3.75-3.52h0c0-1.95-1.68-3.52-3.75-3.52s-3.75,1.58-3.75,3.52Z"/>
                <path class="cls-24" d="M161.32,158.28c0,1.81,1.57,3.28,3.5,3.28s3.5-1.47,3.5-3.28h0c0-1.81-1.57-3.28-3.5-3.28s-3.5,1.47-3.5,3.28Z"/>
                <path class="cls-24" d="M162.06,152.01c0,1.71,1.47,3.09,3.29,3.09s3.29-1.38,3.29-3.09h0c0-1.71-1.47-3.09-3.29-3.09s-3.29,1.38-3.29,3.09Z"/>
                <g>
                  <path class="cls-24" d="M164.52,146.41c0,1.65,1.43,2.99,3.19,2.99s3.19-1.34,3.19-2.99h0c0-1.65-1.43-2.99-3.19-2.99s-3.19,1.34-3.19,2.99Z"/>
                  <path class="cls-24" d="M168.13,141.41c0,1.65,1.43,2.99,3.19,2.99s3.19-1.34,3.19-2.99h0c0-1.65-1.43-2.99-3.19-2.99s-3.19,1.34-3.19,2.99Z"/>
                  <path class="cls-24" d="M172.39,136.92c0,1.65,1.43,2.99,3.19,2.99s3.19-1.34,3.19-2.99h0c0-1.65-1.43-2.99-3.19-2.99s-3.19,1.34-3.19,2.99Z"/>
                </g>
                <g>
                  <path class="cls-24" d="M178.02,134.1c0,1.49,1.29,2.71,2.88,2.71s2.88-1.21,2.88-2.71h0c0-1.49-1.29-2.71-2.88-2.71s-2.88,1.21-2.88,2.71Z"/>
                  <path class="cls-24" d="M183.41,132.6c0,1.39,1.2,2.51,2.68,2.51s2.68-1.13,2.68-2.51h0c0-1.39-1.2-2.51-2.68-2.51s-2.68,1.13-2.68,2.51Z"/>
                  <path class="cls-24" d="M188.68,131.71c0,1.18,1.01,2.13,2.27,2.13s2.27-.95,2.27-2.13h0c0-1.18-1.01-2.13-2.27-2.13s-2.27,.95-2.27,2.13Z"/>
                  <path class="cls-24" d="M193.37,131.96c0,1.04,.9,1.89,2.01,1.89s2.01-.84,2.01-1.89h0c0-1.04-.9-1.89-2.01-1.89s-2.01,.84-2.01,1.89Z"/>
                  <path class="cls-24" d="M197.27,132.2c0,.88,.76,1.6,1.7,1.6s1.7-.72,1.7-1.6h0c0-.88-.76-1.6-1.7-1.6s-1.7,.72-1.7,1.6Z"/>
                </g>
              </g>
              <g>
                <path class="cls-25" d="M219.68,133.49l1.39-4.87c-29.63,1.6-31.54,14.4-30.46,27.99l9.52,1.74c-.27-1.86-.41-1.63-.35-3.54,.41-13.66,3.86-20.67,19.9-21.32h0Z"/>
                <path class="cls-25" d="M219.83,131.91l1.24-3.3c-27.74,1.73-29.94,14.55-28.89,27.77l7.68,2.17c-1.68-11.8-3.99-25.65,19.97-26.64Z"/>
                <g>
                  <path class="cls-24" d="M191.69,150.92c0,1.95,1.68,3.52,3.75,3.52s3.75-1.58,3.75-3.52h0c0-1.95-1.68-3.52-3.75-3.52s-3.75,1.58-3.75,3.52Z"/>
                  <path class="cls-24" d="M192.51,145.2c0,1.84,1.59,3.34,3.55,3.34s3.55-1.49,3.55-3.34h0c0-1.84-1.59-3.34-3.55-3.34s-3.55,1.49-3.55,3.34Z"/>
                  <path class="cls-24" d="M194.61,139.29c0,1.84,1.59,3.34,3.55,3.34s3.55-1.49,3.55-3.34h0c0-1.84-1.59-3.34-3.55-3.34s-3.55,1.49-3.55,3.34Z"/>
                  <path class="cls-24" d="M199.18,134.73c0,1.48,1.28,2.68,2.86,2.68s2.86-1.2,2.86-2.68h0c0-1.48-1.28-2.68-2.86-2.68s-2.86,1.2-2.86,2.68Z"/>
                  <path class="cls-24" d="M203.41,132.3c0,1.33,1.15,2.4,2.56,2.4s2.56-1.08,2.56-2.4h0c0-1.33-1.15-2.4-2.56-2.4s-2.56,1.08-2.56,2.4Z"/>
                  <path class="cls-24" d="M208.1,130.9c0,1.2,1.03,2.17,2.31,2.17s2.31-.97,2.31-2.17h0c0-1.2-1.03-2.17-2.31-2.17s-2.31,.97-2.31,2.17Z"/>
                  <path class="cls-24" d="M212.63,130.56c0,1.07,.92,1.93,2.06,1.93s2.06-.87,2.06-1.93h0c0-1.07-.92-1.93-2.06-1.93s-2.06,.87-2.06,1.93Z"/>
                  <path class="cls-24" d="M216.76,130.29c0,.86,.74,1.56,1.66,1.56s1.66-.7,1.66-1.56h0c0-.86-.74-1.56-1.66-1.56s-1.66,.7-1.66,1.56Z"/>
                  <path class="cls-24" d="M220.23,130.27c0,.76,.66,1.37,1.46,1.37s1.46-.61,1.46-1.37h0c0-.76-.66-1.37-1.46-1.37s-1.46,.61-1.46,1.37Z"/>
                </g>
                <g>
                  <path class="cls-25" d="M229.95,133.49l-1.39-4.87c29.63,1.6,31.54,14.4,30.46,27.99l-9.52,1.74c.27-1.86,.41-1.63,.35-3.54-.41-13.66-3.86-20.67-19.9-21.32h0Z"/>
                  <path class="cls-25" d="M229.8,131.91l-1.24-3.3c27.74,1.73,29.94,14.55,28.89,27.77l-7.68,2.17c1.68-11.8,3.99-25.65-19.97-26.64Z"/>
                  <g>
                    <path class="cls-24" d="M257.94,150.92c0,1.95-1.68,3.52-3.75,3.52s-3.75-1.58-3.75-3.52h0c0-1.95,1.68-3.52,3.75-3.52s3.75,1.58,3.75,3.52Z"/>
                    <path class="cls-24" d="M257.12,145.2c0,1.84-1.59,3.34-3.55,3.34s-3.55-1.49-3.55-3.34h0c0-1.84,1.59-3.34,3.55-3.34s3.55,1.49,3.55,3.34Z"/>
                    <path class="cls-24" d="M255.02,139.29c0,1.84-1.59,3.34-3.55,3.34s-3.55-1.49-3.55-3.34h0c0-1.84,1.59-3.34,3.55-3.34s3.55,1.49,3.55,3.34Z"/>
                    <path class="cls-24" d="M250.45,134.73c0,1.48-1.28,2.68-2.86,2.68s-2.86-1.2-2.86-2.68h0c0-1.48,1.28-2.68,2.86-2.68s2.86,1.2,2.86,2.68Z"/>
                    <path class="cls-24" d="M246.23,132.3c0,1.33-1.15,2.4-2.56,2.4s-2.56-1.08-2.56-2.4h0c0-1.33,1.15-2.4,2.56-2.4s2.56,1.08,2.56,2.4Z"/>
                    <path class="cls-24" d="M241.54,130.9c0,1.2-1.03,2.17-2.31,2.17s-2.31-.97-2.31-2.17h0c0-1.2,1.03-2.17,2.31-2.17s2.31,.97,2.31,2.17Z"/>
                    <path class="cls-24" d="M237,130.56c0,1.07-.92,1.93-2.06,1.93s-2.06-.87-2.06-1.93h0c0-1.07,.92-1.93,2.06-1.93s2.06,.87,2.06,1.93Z"/>
                    <path class="cls-24" d="M232.87,130.29c0,.86-.74,1.56-1.66,1.56s-1.66-.7-1.66-1.56h0c0-.86,.74-1.56,1.66-1.56s1.66,.7,1.66,1.56Z"/>
                    <path class="cls-24" d="M229.4,130.27c0,.76-.66,1.37-1.46,1.37s-1.46-.61-1.46-1.37h0c0-.76,.66-1.37,1.46-1.37s1.46,.61,1.46,1.37Z"/>
                  </g>
                </g>
              </g>
            </g>
          </g>
        </g>
        <g>
          <g>
            <path class="cls-24" d="M288.08,164.93c0,1.95-1.68,3.52-3.75,3.52s-3.75-1.58-3.75-3.52h0c0-1.95,1.68-3.52,3.75-3.52s3.75,1.58,3.75,3.52Z"/>
            <path class="cls-24" d="M288.68,158.28c0,1.81-1.57,3.28-3.5,3.28s-3.5-1.47-3.5-3.28h0c0-1.81,1.57-3.28,3.5-3.28s3.5,1.47,3.5,3.28Z"/>
            <path class="cls-24" d="M287.94,152.01c0,1.71-1.47,3.09-3.29,3.09s-3.29-1.38-3.29-3.09h0c0-1.71,1.47-3.09,3.29-3.09s3.29,1.38,3.29,3.09Z"/>
            <g>
              <path class="cls-24" d="M285.48,146.41c0,1.65-1.43,2.99-3.19,2.99s-3.19-1.34-3.19-2.99h0c0-1.65,1.43-2.99,3.19-2.99s3.19,1.34,3.19,2.99Z"/>
              <path class="cls-24" d="M281.87,141.41c0,1.65-1.43,2.99-3.19,2.99s-3.19-1.34-3.19-2.99h0c0-1.65,1.43-2.99,3.19-2.99s3.19,1.34,3.19,2.99Z"/>
              <path class="cls-24" d="M277.61,136.92c0,1.65-1.43,2.99-3.19,2.99s-3.19-1.34-3.19-2.99h0c0-1.65,1.43-2.99,3.19-2.99s3.19,1.34,3.19,2.99Z"/>
            </g>
            <path class="cls-24" d="M271.98,134.1c0,1.49-1.29,2.71-2.88,2.71s-2.88-1.21-2.88-2.71h0c0-1.49,1.29-2.71,2.88-2.71s2.88,1.21,2.88,2.71Z"/>
          </g>
          <g>
            <path class="cls-23" d="M231.43,139.48c0,8.68-2.86,15.71-6.39,15.71s-6.39-7.03-6.39-15.71,2.86-15.71,6.39-15.71,6.39,7.03,6.39,15.71Z"/>
            <path class="cls-23" d="M229.88,139.48c0,7.25-2.16,13.13-4.83,13.13s-4.83-5.88-4.83-13.13h0c0-7.25,2.16-13.13,4.83-13.13s4.83,5.88,4.83,13.13Z"/>
          </g>
        </g>
        <g>
          <g>
            <path class="cls-9" d="M223.31,130.11c.02-.78,.75-1.4,1.62-1.39,.88,.01,1.58,.66,1.57,1.44-.02,.79-.75,1.41-1.62,1.39-.88-.01-1.58-.66-1.56-1.45Z"/>
            <path class="cls-9" d="M222.78,132.51c.02-1.04,.99-1.87,2.17-1.85,1.17,.02,2.11,.88,2.09,1.92-.02,1.05-.99,1.88-2.17,1.86-1.17-.02-2.11-.88-2.09-1.93h0Z"/>
            <path class="cls-9" d="M222.04,135.64c.03-1.41,1.34-2.52,2.92-2.5,1.58,.03,2.85,1.18,2.82,2.59-.03,1.42-1.34,2.54-2.93,2.51-1.58-.03-2.85-1.18-2.82-2.61Z"/>
            <path class="cls-9" d="M221.74,138.87c.03-1.61,1.48-2.89,3.22-2.86,1.75,.03,3.15,1.36,3.12,2.98-.03,1.63-1.48,2.91-3.23,2.88-1.75-.03-3.14-1.36-3.11-2.99Z"/>
          </g>
          <path class="cls-9" d="M221.45,141.47c.03-1.76,1.61-3.15,3.51-3.12,1.91,.03,3.43,1.48,3.4,3.24-.03,1.78-1.61,3.17-3.52,3.14-1.9-.03-3.42-1.48-3.39-3.26Z"/>
          <path class="cls-24" d="M229.77,130.27c0,.76-.66,1.37-1.46,1.37s-1.46-.61-1.46-1.37h0c0-.76,.66-1.37,1.46-1.37s1.46,.61,1.46,1.37Z"/>
          <path class="cls-24" d="M231.2,126.9c0,3.22-2.77,5.82-6.2,5.83s-6.2-2.6-6.21-5.82h0c0-3.22,2.77-5.83,6.2-5.84s6.2,2.6,6.21,5.82h0Z"/>
          <path class="cls-9" d="M220.88,146.61c.04-2.05,1.87-3.67,4.09-3.63,2.23,.04,4,1.73,3.96,3.78-.04,2.08-1.87,3.7-4.1,3.66-2.22-.04-3.99-1.73-3.95-3.8h0Z"/>
        </g>
        <path class="cls-25" d="M231.2,126.9c0,3.22-2.77,5.82-6.2,5.83s-6.2-2.6-6.21-5.82h0c0-3.22,2.77-5.83,6.2-5.84s6.2,2.6,6.21,5.82h0Z"/>
      </g>
      <g>
        <path class="cls-8" d="M194.88,153.47c-.91,1.39-1.54,1.58-1.53,3.08,0,0-.32-.22-1.29-.25-.96-.03-1.6,.28-1.6,.28,0,0,.86,1.01,1.19,1.35,.33,.34,1.02,1.53,1.92,2.45,0,0-2-.03-2.38-.1-.47-.09-1.77-.21-1.77-.21,0,0,.11,.7,.68,1.49,.58,.79,.94,.93,.94,.93-1.27,1.17-1.02,1.46-1.63,3.01,1.45,.95,1.65,1.58,3.17,1.62,0,0-.21,.31-.21,1.27,0,.95,.34,1.59,.34,1.59,0,0,1-.81,1.33-1.13,.34-.32,1.51-.96,2.42-1.82,.45-.44,.4-.07,2.11-2.49,0,0,1.97,.71,3.24,.93,1.27,.22,2.62,.12,3.09,.21,.47,.09,1.77,.22,1.77,.22,0,0-.11-.71-.69-1.49-.58-.79-.93-.93-.93-.93,1.22-.84,1.01-1.47,1.63-3.03-1.45-.96-1.41-1.32-3.17-1.61,0,0,.21-.31,.2-1.27,0-.96-.34-1.59-.34-1.59,0,0-.99,.8-1.33,1.12-.27,.26-1.11,.74-1.9,1.38,0,0,.03-2.61,.1-3.07,.07-.46,.15-1.75,.15-1.75,0,0-.7,.08-1.48,.62-.78,.54-.91,.9-.91,.9-1.23-1.3-1.51-1.06-3.11-1.72Z"/>
        <path class="cls-9" d="M194.89,162.6c-.5-1.51,.32-3.09,1.83-3.54s3.15,.42,3.65,1.93-.32,3.1-1.83,3.54c-1.51,.44-3.15-.42-3.65-1.94Z"/>
      </g>
      <g>
        <path class="cls-8" d="M255.12,153.47c.91,1.39,1.54,1.58,1.53,3.08,0,0,.32-.22,1.29-.25,.96-.03,1.6,.28,1.6,.28,0,0-.86,1.01-1.19,1.35-.33,.34-1.02,1.53-1.92,2.45,0,0,2-.03,2.38-.1,.47-.09,1.77-.21,1.77-.21,0,0-.11,.7-.68,1.49-.58,.79-.94,.93-.94,.93,1.27,1.17,1.02,1.46,1.63,3.01-1.45,.95-1.65,1.58-3.17,1.62,0,0,.21,.31,.21,1.27,0,.95-.34,1.59-.34,1.59,0,0-1-.81-1.33-1.13-.34-.32-1.51-.96-2.42-1.82-.45-.44-.4-.07-2.11-2.49,0,0-1.97,.71-3.24,.93-1.27,.22-2.62,.12-3.09,.21-.47,.09-1.77,.22-1.77,.22,0,0,.11-.71,.69-1.49,.58-.79,.93-.93,.93-.93-1.22-.84-1.01-1.47-1.63-3.03,1.45-.96,1.41-1.32,3.17-1.61,0,0-.21-.31-.2-1.27,0-.96,.34-1.59,.34-1.59,0,0,.99,.8,1.33,1.12,.27,.26,1.11,.74,1.9,1.38,0,0-.03-2.61-.1-3.07-.07-.46-.15-1.75-.15-1.75,0,0,.7,.08,1.48,.62,.78,.54,.91,.9,.91,.9,1.23-1.3,1.51-1.06,3.11-1.72Z"/>
        <path class="cls-9" d="M255.11,162.6c.5-1.51-.32-3.09-1.83-3.54s-3.15,.42-3.65,1.93,.32,3.1,1.83,3.54,3.15-.42,3.65-1.94Z"/>
      </g>
      <g>
        <path class="cls-14" d="M163.19,167.56c1.8-.19,4.31-1.74,5.75-1.07,0,0-.05-.38,.4-1.25,.45-.86,1.06-1.28,1.06-1.28,0,0,.55,1.2,.71,1.64,.17,.44,.97,1.56,1.42,2.76,0,0,.96-1.77,1.08-2.14,.15-.45,.68-1.65,.68-1.65,0,0,.62,.4,1.09,1.25,.48,.85,.43,1.24,.43,1.24,1.76-.6,1.91-.25,3.71-.11,.2,1.69,.7,2.15,0,3.5,0,0,.41-.05,1.33,.37,.92,.42,1.37,1,1.37,1,0,0-1.27,.52-1.74,.67-.47,.16-1.67,.9-2.95,1.32-.65,.21-.26,.32-3.45,.76-.08-.27-1.19-1.07-3.25-.49-1.68-1.11-9.06-6.94-7.64-6.52Z"/>
        <path class="cls-16" d="M174.01,170.5c-1.21-1.11-3.14-1.08-4.31,.05s-1.16,2.95,.05,4.05c1.21,1.11,3.14,1.08,4.32-.05,1.17-1.13,1.15-2.95-.06-4.05Z"/>
        <path class="cls-14" d="M286.81,167.56c-1.8-.19-4.31-1.74-5.75-1.07,0,0,.05-.38-.4-1.25-.45-.86-1.06-1.28-1.06-1.28,0,0-.55,1.2-.71,1.64-.17,.44-.97,1.56-1.42,2.76,0,0-.96-1.77-1.08-2.14-.15-.45-.68-1.65-.68-1.65,0,0-.62,.4-1.09,1.25-.48,.85-.43,1.24-.43,1.24-1.76-.6-1.91-.25-3.71-.11-.2,1.69-.7,2.15,0,3.5,0,0-.41-.05-1.33,.37-.92,.42-1.37,1-1.37,1,0,0,1.27,.52,1.74,.67,.47,.16,1.67,.9,2.95,1.32,.65,.21,.26,.32,3.45,.76,.08-.27,1.19-1.07,3.25-.49,1.68-1.11,9.06-6.94,7.64-6.52Z"/>
        <path class="cls-16" d="M275.99,170.5c1.21-1.11,3.14-1.08,4.31,.05s1.16,2.95-.05,4.05-3.14,1.08-4.32-.05-1.15-2.95,.06-4.05Z"/>
      </g>
      <path class="cls-19" d="M247.62,181l3.81,.86c.97,.22,1.97-.29,2.22-1.13,.24-.85-.35-1.72-1.32-1.94l-3.83-.87-3.9-.88c-.97-.22-1.95,.28-2.19,1.14-.24,.85,.37,1.73,1.33,1.94l3.88,.88Z"/>
      <path class="cls-19" d="M202.65,181l-3.81,.86c-.97,.22-1.97-.29-2.22-1.13-.24-.85,.35-1.72,1.32-1.94l3.83-.87,3.9-.88c.97-.22,1.95,.28,2.19,1.14,.24,.85-.37,1.73-1.33,1.94l-3.88,.88Z"/>
      <g>
        <path class="cls-12" d="M211.15,177.3c0-1.04,.79-1.89,1.76-1.89s1.76,.85,1.76,1.89-.79,1.89-1.76,1.89-1.76-.85-1.76-1.89Z"/>
        <path class="cls-12" d="M238.85,177.3c0-1.04-.79-1.89-1.76-1.89s-1.76,.85-1.76,1.89,.79,1.89,1.76,1.89,1.76-.85,1.76-1.89Z"/>
      </g>
      <g>
        <path class="cls-11" d="M208.8,161.09c0,1.41,1.21,2.54,2.71,2.54s2.71-1.14,2.71-2.54h0c0-1.41-1.21-2.54-2.71-2.54s-2.71,1.14-2.71,2.54Z"/>
        <path class="cls-11" d="M235.78,161.09c0,1.41,1.21,2.54,2.71,2.54s2.71-1.14,2.71-2.54h0c0-1.41-1.21-2.54-2.71-2.54s-2.71,1.14-2.71,2.54Z"/>
      </g>
      <g>
        <g>
          <path class="cls-15" d="M225.01,147.74c-1.31,1.08-1.97,1.08-2.44,2.51,0,0-.24-.3-1.15-.6-.91-.3-1.62-.18-1.62-.18,0,0,.5,1.2,.71,1.62,.21,.42,.49,1.74,1.05,2.88,0,0-1.9-.59-2.24-.76-.42-.21-1.63-.7-1.63-.7,0,0-.12,.7,.18,1.61,.3,.91,.6,1.15,.6,1.15-1.58,.77-1.43,1.11-2.51,2.42,1.08,1.31,1.08,1.97,2.51,2.44,0,0-.3,.24-.6,1.15-.3,.91-.18,1.62-.18,1.62,0,0,1.21-.49,1.63-.7,.42-.21,1.74-.49,2.88-1.06,.57-.29,.4,.04,2.8-1.79,0,0,1.66,1.23,2.8,1.79,1.14,.56,2.46,.85,2.88,1.06,.42,.21,1.62,.7,1.62,.7,0,0,.12-.71-.18-1.62-.3-.91-.6-1.15-.6-1.15,1.43-.46,1.43-1.13,2.51-2.44-1.08-1.32-.93-1.66-2.51-2.42,0,0,.3-.24,.6-1.15,.3-.91,.18-1.61,.18-1.61,0,0-1.2,.48-1.62,.7-.35,.17-1.29,.4-2.25,.78,0,0,.85-2.48,1.07-2.9,.21-.42,.7-1.62,.7-1.62,0,0-.7-.12-1.61,.18-.92,.3-1.15,.6-1.15,.6-.77-1.58-1.11-1.43-2.42-2.51Z"/>
          <path class="cls-10" d="M222.13,156.46c0-1.59,1.28-2.87,2.87-2.87s2.87,1.28,2.87,2.87-1.29,2.87-2.87,2.87-2.87-1.28-2.87-2.87Z"/>
        </g>
        <g>
          <path class="cls-4" d="M222.81,151.49l1.08,2.38"/>
          <path class="cls-4" d="M227.19,151.44l-1.08,2.38"/>
          <path class="cls-4" d="M225,149.96v3.57"/>
          <path class="cls-4" d="M223.92,151.09l.65,2.66"/>
          <path class="cls-4" d="M226.08,151.09l-.65,2.66"/>
          <path class="cls-5" d="M219.98,158.62l2.54-1.01"/>
          <path class="cls-5" d="M219.91,154.51l2.54,1.01"/>
          <path class="cls-5" d="M218.34,156.57h3.81"/>
          <path class="cls-5" d="M219.54,157.58l2.83-.61"/>
          <path class="cls-5" d="M219.54,155.55l2.83,.61"/>
          <path class="cls-5" d="M230.02,158.62l-2.54-1.01"/>
          <path class="cls-5" d="M230.09,154.51l-2.54,1.01"/>
          <path class="cls-5" d="M231.66,156.57h-3.81"/>
          <path class="cls-5" d="M230.46,157.58l-2.83-.61"/>
          <path class="cls-5" d="M230.46,155.55l-2.83,.61"/>
          <path class="cls-5" d="M219.98,158.62l2.54-1.01"/>
          <path class="cls-5" d="M219.91,154.51l2.54,1.01"/>
          <path class="cls-5" d="M218.34,156.57h3.81"/>
          <path class="cls-5" d="M219.54,157.58l2.83-.61"/>
          <path class="cls-5" d="M219.54,155.55l2.83,.61"/>
          <path class="cls-5" d="M230.02,158.62l-2.54-1.01"/>
          <path class="cls-5" d="M230.09,154.51l-2.54,1.01"/>
          <path class="cls-5" d="M231.66,156.57h-3.81"/>
          <path class="cls-5" d="M230.46,157.58l-2.83-.61"/>
          <path class="cls-5" d="M230.46,155.55l-2.83,.61"/>
          <path class="cls-5" d="M194.01,157.79l1.64,1.78"/>
          <path class="cls-5" d="M198.15,156.47l-.25,2.58"/>
          <path class="cls-5" d="M195.59,155.7l1.17,3.4"/>
          <path class="cls-5" d="M194.93,157.08l1.36,2.15"/>
          <path class="cls-5" d="M196.99,156.46l.23,2.48"/>
          <path class="cls-5" d="M193.64,165.38l2.08-1.69"/>
          <path class="cls-5" d="M191.41,163.9l3.62-1.1"/>
          <path class="cls-5" d="M192.22,162.59l2.6-.21"/>
          <path class="cls-5" d="M203.2,162.49l-2.75-.23"/>
          <path class="cls-5" d="M204.08,160.07l-3.62,1.1"/>
          <path class="cls-5" d="M203.28,161.38l-2.89,.24"/>
          <path class="cls-5" d="M193.64,165.38l2.08-1.69"/>
          <path class="cls-5" d="M192.24,161.49l2.44,.21"/>
          <path class="cls-5" d="M191.41,163.9l3.62-1.1"/>
          <path class="cls-5" d="M192.89,164.52l2.25-1.25"/>
          <path class="cls-5" d="M203.2,162.49l-2.75-.23"/>
          <path class="cls-5" d="M201.92,158.57l-1.89,1.54"/>
          <path class="cls-5" d="M204.08,160.07l-3.62,1.1"/>
          <path class="cls-5" d="M203.28,161.38l-2.89,.24"/>
          <path class="cls-5" d="M202.61,159.44l-2.32,1.29"/>
          <path class="cls-5" d="M256.1,157.79l-1.64,1.78"/>
          <path class="cls-5" d="M251.95,156.47l.25,2.58"/>
          <path class="cls-5" d="M254.52,155.7l-1.17,3.4"/>
          <path class="cls-5" d="M255.18,157.08l-1.36,2.15"/>
          <path class="cls-5" d="M253.12,156.46l-.23,2.48"/>
          <path class="cls-5" d="M256.47,165.38l-2.08-1.69"/>
          <path class="cls-5" d="M258.7,163.9l-3.62-1.1"/>
          <path class="cls-5" d="M257.89,162.59l-2.6-.21"/>
          <path class="cls-5" d="M246.91,162.49l2.75-.23"/>
          <path class="cls-5" d="M246.02,160.07l3.62,1.1"/>
          <path class="cls-5" d="M246.83,161.38l2.89,.24"/>
          <path class="cls-5" d="M256.47,165.38l-2.08-1.69"/>
          <path class="cls-5" d="M257.87,161.49l-2.44,.21"/>
          <path class="cls-5" d="M258.7,163.9l-3.62-1.1"/>
          <path class="cls-5" d="M257.22,164.52l-2.25-1.25"/>
          <path class="cls-5" d="M246.91,162.49l2.75-.23"/>
          <path class="cls-5" d="M248.19,158.57l1.89,1.54"/>
          <path class="cls-5" d="M246.02,160.07l3.62,1.1"/>
          <path class="cls-5" d="M246.83,161.38l2.89,.24"/>
          <path class="cls-5" d="M247.5,159.44l2.32,1.29"/>
          <path class="cls-5" d="M166.72,170.45l2.26,1.01"/>
          <path class="cls-5" d="M169.95,167.69l.88,2.45"/>
          <path class="cls-5" d="M167.27,167.94l2.53,2.67"/>
          <path class="cls-5" d="M167.26,169.46l2.17,1.46"/>
          <path class="cls-5" d="M168.88,168.11l1.28,2.19"/>
          <path class="cls-5" d="M177.64,171.94l-2.73,.37"/>
          <path class="cls-5" d="M177.89,169.4l-3.25,1.86"/>
          <path class="cls-5" d="M177.43,170.85l-2.76,.86"/>
          <path class="cls-5" d="M177.64,171.94l-2.73,.37"/>
          <path class="cls-5" d="M175.42,168.41l-1.46,1.91"/>
          <path class="cls-5" d="M177.89,169.4l-3.25,1.86"/>
          <path class="cls-5" d="M177.43,170.85l-2.76,.86"/>
          <path class="cls-5" d="M176.31,169.11l-1.93,1.77"/>
          <path class="cls-5" d="M283.41,170.45l-2.26,1.01"/>
          <path class="cls-5" d="M280.18,167.69l-.88,2.45"/>
          <path class="cls-5" d="M282.86,167.94l-2.53,2.67"/>
          <path class="cls-5" d="M282.87,169.46l-2.17,1.46"/>
          <path class="cls-5" d="M281.25,168.11l-1.28,2.19"/>
          <path class="cls-5" d="M272.49,171.94l2.73,.37"/>
          <path class="cls-5" d="M272.23,169.4l3.25,1.86"/>
          <path class="cls-5" d="M272.69,170.85l2.76,.86"/>
          <path class="cls-5" d="M272.49,171.94l2.73,.37"/>
          <path class="cls-5" d="M274.71,168.41l1.46,1.91"/>
          <path class="cls-5" d="M272.23,169.4l3.25,1.86"/>
          <path class="cls-5" d="M272.69,170.85l2.76,.86"/>
          <path class="cls-5" d="M273.82,169.11l1.93,1.77"/>
        </g>
      </g>
      <path class="cls-26" d="M224.99,179.3l-7.16-2.85,7.16-2.85,7.17,2.85-7.17,2.85Z"/>
      <g>
        <path class="cls-21" d="M221.57,111.14s3.46,3.5,2.42,4.7c-1.06,1.22-5.08-1.78-5.08-1.78v4.93s3.76-2.71,5.08-1.78v15.58h1.87v-15.58c1.32-.93,5.08,1.78,5.08,1.78v-4.93s-4.02,3-5.08,1.78c-1.04-1.2,2.42-4.7,2.42-4.7h-6.71Z"/>
        <path class="cls-21" d="M224.02,121.12v11.55h1.96v-11.55s-1.96,0-1.96,0Z"/>
        <path class="cls-8" d="M231.02,126.1c-1.47-.31-4.07-.63-6.11-.64-2.07-.03-4.39,.31-5.94,.64-.06,.3-.22,.69-.22,1s.16,.54,.22,.84c1.91-.4,3.03-.64,5.98-.63,3.4,.01,6.02,.52,6.07,.66,.06-.31,.24-.58,.24-.91s-.18-.68-.24-.98Z"/>
        <path class="cls-21" d="M225.3,180.95c-11.15,0-22.16,2.21-30.63,4.82-4.24,1.3-6.35,2.73-9.01,4-.73,.35-1.38,.68-1.98,1.01,0,0,0-.02-.02-.02-1.97,.87-2.14,2.64,0,3.35,0,0,.01,0,.02,0,.59,.33,1.25,.66,1.98,1.01,2.66,1.27,7.19,3.39,9.01,4,8.23,2.73,19.48,4.82,30.63,4.82s21.7-1.99,29.82-4.49c4.06-1.25,6.02-2.65,8.68-3.95,.95-.46,1.78-.89,2.51-1.31,2.12-.94,2.06-2.59,0-3.5-.73-.42-1.56-.84-2.51-1.31-2.66-1.3-4.62-2.69-8.68-3.94-8.13-2.5-18.69-4.49-29.82-4.49h0Z"/>
        <g>
          <path class="cls-8" d="M213.62,201.34v-17.45"/>
          <path class="cls-8" d="M211.57,200.86v-16.98"/>
          <path class="cls-8" d="M209.63,200.62v-16.26"/>
          <path class="cls-8" d="M207.71,200.14v-15.31"/>
          <path class="cls-8" d="M205.99,200.15v-15.32"/>
          <path class="cls-8" d="M202.73,199.32l-.05-13.79m1.59,14.03v-14.62"/>
          <path class="cls-8" d="M199.71,198.52v-12.39m1.53,12.86l-.05-13.45"/>
          <path class="cls-8" d="M195.66,197.34v-10.15m1.33,10.63v-11.1m1.37,11.34v-11.46"/>
          <path class="cls-8" d="M194.24,196.99v-9.45"/>
          <path class="cls-8" d="M192.92,196.52v-8.75"/>
          <path class="cls-8" d="M191.5,195.93v-7.57"/>
          <path class="cls-8" d="M188.6,194.88l-.05-5.1m1.53,5.8v-6.51"/>
          <path class="cls-8" d="M187.11,194.3v-4.18"/>
          <path class="cls-8" d="M185.75,193.85v-3.23"/>
          <path class="cls-8" d="M184.26,193.15v-1.94"/>
          <path class="cls-8" d="M182.73,192.44v-.29"/>
          <path class="cls-8" d="M221.79,201.69v-18.64m-3.48,18.28l.05-18.04m-2.58,17.8v-17.44"/>
          <path class="cls-8" d="M236.38,201.1v-17.22"/>
          <path class="cls-8" d="M238.43,200.86v-16.97"/>
          <path class="cls-8" d="M240.37,200.86v-16.98"/>
          <path class="cls-8" d="M242.29,200.62v-16.28"/>
          <path class="cls-8" d="M244.01,200.15v-15.32"/>
          <path class="cls-8" d="M247.27,199.81l.05-14.51m-1.59,14.51v-14.86"/>
          <path class="cls-8" d="M250.29,198.53v-12.4m-1.53,13.34l.05-13.93"/>
          <path class="cls-8" d="M254.34,197.82v-10.63m-1.33,10.87v-11.34m-1.37,11.57v-11.93"/>
          <path class="cls-8" d="M255.76,197.47v-9.93"/>
          <path class="cls-8" d="M257.08,196.77v-8.99"/>
          <path class="cls-8" d="M258.5,196.41v-8.05"/>
          <path class="cls-8" d="M261.4,195.36l.05-6.06m-1.53,6.52v-7.23"/>
          <path class="cls-8" d="M262.89,194.77v-4.89"/>
          <path class="cls-8" d="M264.25,194.09v-3.71"/>
          <path class="cls-8" d="M265.74,193.62v-2.42"/>
          <path class="cls-8" d="M267.27,192.92v-1.25"/>
          <path class="cls-8" d="M228.21,201.93v-18.64m3.48,18.52l-.05-18.52m2.58,18.28v-17.93"/>
        </g>
        <path class="cls-21" d="M225.3,180.95c-11.15,0-22.16,2.21-30.63,4.82-4.24,1.3-9.56,4.29-10.99,5.02,0,0,0-.02-.02-.02-1.89,.87-2.14,2.64,0,3.35,0,0,.01,0,.02,0,.59,.33,6.68,3.49,10.99,5.01,8.35,2.94,19.48,4.82,30.63,4.82s21.7-1.99,29.82-4.49c4.06-1.25,6.02-2.65,8.68-3.95,.95-.46,1.78-.89,2.51-1.31,2.12-.94,2.06-2.59,0-3.5-.73-.42-1.56-.84-2.51-1.31-2.66-1.3-4.62-2.69-8.68-3.94-8.13-2.5-18.69-4.49-29.82-4.49h0Zm0,2.98c10.87,0,21.24,2,29.16,4.44,3.96,1.22,5.82,2.55,8.32,3.78,.2,.1,.39,.2,.59,.29-.19,.1-.38,.2-.59,.3-2.51,1.22-4.36,2.57-8.32,3.78-7.93,2.44-18.3,4.43-29.16,4.43-10.86,0-21.69-2.16-29.98-4.71-4.11-1.27-6.12-2.61-8.63-3.8,2.51-1.19,4.51-2.54,8.63-3.81,8.29-2.55,19.12-4.71,29.98-4.71Z"/>
      </g>
      <path class="cls-17" d="M165.63,193.2s.16,114.02,.43,116.33c.31,2.72,1.81,4.15,2.82,5.06,1.72,1.55,15.21,7.48,28.2,12.4,3.14,1.19,10.54,4.14,16.44,6.55,3.68,1.5,7.07,2.83,9.19,3.61,2.03,.57,3.41,.55,4.53,0,2.19-.79,5.67-2.15,9.25-3.61,5.9-2.41,13.3-5.36,16.44-6.55,12.99-4.92,26.47-10.85,28.19-12.4,1.01-.91,2.81-1.41,2.82-5.06l.43-116.33h-118.74Z"/>
    </g>
    <g>
      <g>
        <g>
          <path class="cls-30" d="M224.95,299.57v1.5c.31,.01,1.18,.17,1.19,.84l-1.19,3.64v8.96c.54,1.14,.96,2.32,1.24,3.54-.07,.57-.42,.94-1.24,.98v1.22c.66,.07,1.29-.05,1.91-.16,.75-.31,1.01-.79,1.29-1.3,.23-.52,.09-1,0-1.46l-1.14-3,.02-.93v-8.42c.4-1.13,.83-2.25,.95-3.41-.23-1.08-1.47-2.1-3.03-2h0Z"/>
          <path class="cls-3" d="M224.86,320.27c.66,.07,1.38-.07,2.01-.18,.75-.31,1.01-.79,1.29-1.29,.23-.52,.09-.99,0-1.46l-1.14-2.99,.02-.93v-8.41c.4-1.13,.83-2.25,.95-3.41-.23-1.08-1.47-2.09-3.03-2m0,1.5c.32,.01,1.18,.17,1.19,.84l-1.12,3.63v8.97c.55,1.14,.9,2.28,1.18,3.51-.07,.56-.45,.93-1.27,.96"/>
        </g>
        <g>
          <path class="cls-30" d="M219.35,257.08h-1.51c-.01,.31-.17,1.17-.85,1.17l-3.66-1.17h-9c-1.14,.53-2.33,.95-3.56,1.23-.57-.07-.95-.41-.98-1.23h-1.22c-.07,.65,.05,1.27,.16,1.89,.31,.74,.79,1,1.3,1.28,.53,.22,1,.09,1.47,0l3.01-1.13,.94,.02h8.46c1.13,.4,2.26,.83,3.43,.94,1.09-.23,2.11-1.45,2.01-3h0Z"/>
          <path class="cls-3" d="M198.57,257.03c-.07,.66,.06,1.32,.18,1.94,.31,.74,.79,1,1.3,1.28,.53,.22,1,.09,1.47,0l3.01-1.13,.94,.02h8.46c1.13,.4,2.26,.83,3.43,.94,1.09-.23,2.11-1.45,2.01-3m-1.51,0c-.01,.31-.17,1.17-.85,1.17l-3.65-1.11h-9.03c-1.14,.54-2.29,.86-3.52,1.14-.57-.07-.95-.41-.98-1.23"/>
        </g>
        <path class="cls-30" d="M176.45,207.14v1.78c.51-.02,1.13,.18,1.16,.92l-1.16,4.39v6.66l2.08-.05v-7.29c.4-1.33,.84-2.66,.96-4.03,0-1.3-1.38-2.4-3.04-2.39Z"/>
      </g>
      <path class="cls-3" d="M178.59,221.01l.02-7.35c.4-1.33,.84-2.66,.96-4.03,0-1.3-1.4-2.4-3.06-2.39m-.02,1.8c.52-.02,1.17,.16,1.21,.91l-1.11,4.39-.02,6.87"/>
      <path class="cls-1" d="M178.52,220.91l.02-7.35c.4-1.33,.84-2.66,.96-4.03,0-1.3-1.4-2.4-3.06-2.39m-.02,1.8c.52-.02,1.17,.16,1.21,.91l-1.11,4.39-.02,6.87"/>
      <path class="cls-30" d="M176.27,219.2v5.48c.57,1.41,1.01,2.87,1.31,4.38-.07,.7-.44,1.15-1.31,1.19v1.5c.7,.08,1.36-.04,2.02-.18,.79-.38,1.06-.97,1.36-1.6,.24-.65,.1-1.23,0-1.81l-1.21-3.71,.02-5.3-2.19,.04h0Z"/>
      <path class="cls-3" d="M176.5,231.7c.67,.08,1.32-.05,1.95-.18,.75-.37,1.01-.94,1.29-1.55,.23-.63,.09-1.19,0-1.75l-1.15-3.58v-5.12m-2.02,.02v5.32c.53,1.36,.93,2.75,1.21,4.22-.07,.68-.44,1.1-1.27,1.14"/>
      <path class="cls-30" d="M176.48,228.07v1.83c-.32,.02-1.18,.21-1.19,1.03l1.19,4.44v10.93c-.54,1.39-.96,2.83-1.25,4.33,.07,.69,.42,1.15,1.24,1.19v1.49c-.66,.08-1.29-.06-1.92-.2-.75-.37-1.01-.96-1.29-1.58-.23-.64-.09-1.22,0-1.78l1.15-3.66-.02-1.14v-10.28c-.4-1.38-.84-2.75-.95-4.16,.23-1.32,1.47-2.56,3.04-2.44h0Z"/>
      <path class="cls-3" d="M176.56,253.34c-.67,.08-1.38-.09-2.01-.22-.75-.37-1.01-.96-1.29-1.58-.23-.64-.09-1.22,0-1.78l1.15-3.66-.02-1.14v-10.28c-.4-1.38-.84-2.75-.95-4.16,.23-1.32,1.47-2.56,3.04-2.44m0,1.83c-.32,.02-1.18,.21-1.19,1.03l1.13,4.44v10.97c-.55,1.39-.9,2.79-1.18,4.29,.07,.69,.49,1.13,1.31,1.17"/>
      <path class="cls-30" d="M176.38,228.06v1.84c.51-.02,1.13,.19,1.16,.95l-1.16,4.54v6.89l2.08-.05v-7.54c.4-1.38,.84-2.75,.95-4.16,0-1.35-1.38-2.48-3.04-2.47h0Z"/>
      <path class="cls-3" d="M178.45,242.29l.02-7.6c.4-1.38,.84-2.75,.95-4.16,0-1.35-1.4-2.48-3.06-2.47m-.02,1.86c.52-.02,1.17,.17,1.21,.94l-1.11,4.53-.02,7.1"/>
      <g>
        <g>
          <path class="cls-30" d="M176.58,288.67v5.19c-.53,1.33-.95,2.72-1.22,4.15,.07,.66,.41,1.09,1.22,1.13v1.43c-.65,.08-1.27-.04-1.88-.17-.73-.36-.99-.92-1.27-1.52-.22-.61-.09-1.17,0-1.71l1.12-3.51-.02-5.03,2.04,.04h0Z"/>
          <path class="cls-3" d="M176.61,300.58c-.65,.08-1.29-.05-1.91-.18-.73-.36-.99-.92-1.27-1.52-.22-.61-.09-1.17,0-1.71l1.12-3.51v-5.02m1.98,.02v5.22c-.52,1.33-.91,2.7-1.19,4.14,.07,.66,.43,1.08,1.24,1.12"/>
        </g>
        <g>
          <path class="cls-30" d="M176.58,278.2v1.52c-.5-.02-1.11,.15-1.14,.79l1.14,3.76v5.7l-2.05-.04v-6.24c-.4-1.14-.82-2.28-.94-3.45,0-1.12,1.35-2.05,2.99-2.04Z"/>
          <path class="cls-3" d="M174.55,289.99l-.02-6.29c-.4-1.14-.82-2.28-.94-3.45,0-1.12,1.38-2.05,3.01-2.04m.02,1.54c-.51-.02-1.15,.14-1.19,.77l1.09,3.75,.02,5.88"/>
        </g>
        <path class="cls-30" d="M176.51,271.08v4.38c-.53,1.12-.95,2.29-1.23,3.5,.07,.56,.42,.92,1.23,.95v1.2c-.65,.07-1.27-.03-1.89-.14-.74-.3-.99-.78-1.27-1.28-.22-.52-.09-.98,0-1.44l1.13-2.96-.02-4.24,2.05,.03h0Z"/>
      </g>
      <path class="cls-3" d="M176.54,281.12c-.65,.07-1.3-.04-1.92-.15-.74-.3-.99-.78-1.27-1.28-.22-.52-.09-.98,0-1.44l1.13-2.96v-4.23m1.99,.02v4.4c-.52,1.12-.91,2.28-1.19,3.49,.07,.56,.43,.91,1.25,.94"/>
      <path class="cls-30" d="M176.41,261.35v1.44c.31,.01,1.17,.17,1.17,.8l-1.17,3.48v8.56c.53,1.09,.95,2.21,1.23,3.39-.07,.54-.41,.9-1.23,.93v1.16c.65,.06,1.27-.05,1.89-.15,.74-.29,1-.75,1.27-1.24,.22-.5,.09-.95,0-1.4l-1.13-2.86,.02-.89v-8.05c.4-1.08,.82-2.15,.94-3.26-.23-1.03-1.45-2-2.99-1.91h0Z"/>
      <path class="cls-3" d="M176.41,281.11c.66,.06,1.27-.05,1.89-.15,.74-.29,1-.75,1.27-1.24,.22-.5,.09-.95,0-1.4l-1.13-2.86,.02-.89v-8.05c.4-1.08,.82-2.15,.94-3.26-.23-1.03-1.45-2-2.99-1.91m0,1.44c.31,.01,1.17,.17,1.17,.8l-1.11,3.47v8.59c.54,1.09,.89,2.19,1.17,3.36-.07,.54-.41,.9-1.23,.93"/>
      <g>
        <path class="cls-30" d="M269.2,206.07l-1.05,1.25c.4,.32,.75,.85,.34,1.4l-3.45,2.37-3.91,4.71,1.59,1.29,4.28-5.16c1.09-.68,2.19-1.35,3.08-2.24,.77-.92,.38-2.57-.87-3.63Z"/>
        <g>
          <path class="cls-3" d="M262.66,217.25l4.33-5.19c1.09-.68,2.19-1.35,3.08-2.24,.77-.92,.36-2.59-.89-3.64m-1.07,1.26c.4,.32,.78,.86,.37,1.41l-3.41,2.39-4.05,4.85"/>
          <path class="cls-1" d="M262.66,217.13l4.33-5.19c1.09-.68,2.19-1.35,3.08-2.24,.77-.92,.36-2.59-.89-3.64m-1.07,1.26c.4,.32,.78,.86,.37,1.41l-3.41,2.39-4.05,4.85"/>
        </g>
      </g>
      <path class="cls-30" d="M261.99,214.49l-3.22,3.88c-.4,1.36-.92,2.67-1.59,3.94-.47,.45-1.01,.53-1.68,0l-.88,1.06c.48,.51,1.04,.84,1.62,1.16,.81,.23,1.37-.01,1.96-.27,.56-.31,.8-.81,1.06-1.28l1.27-3.39,3.13-3.74-1.66-1.36h0Z"/>
      <path class="cls-3" d="M254.82,223.48c.45,.48,1.02,.8,1.56,1.11,.77,.22,1.31-.02,1.88-.27,.54-.3,.77-.78,1.02-1.24l1.24-3.26,3.01-3.62m-1.53-1.28l-3.13,3.76c-.39,1.31-.91,2.55-1.56,3.77-.45,.43-.98,.5-1.62,0"/>
      <g>
        <g>
          <g>
            <path class="cls-30" d="M244.31,235.95l-1.08,1.28c-.25-.19-1.04-.62-1.52-.06l-1.69,3.87-6.43,7.63c-1.24,.62-2.41,1.34-3.51,2.21-.35,.53-.35,1.08,.26,1.64l-.87,1.04c-.56-.38-.96-.88-1.37-1.39-.36-.75-.22-1.33-.07-1.94,.2-.59,.64-.91,1.05-1.24l3.04-1.81,.65-.81,6.04-7.17c.5-1.22,.97-2.46,1.71-3.53,.96-.77,2.65-.83,3.79,.27Z"/>
            <path class="cls-28" d="M229.53,253.63c-.56-.38-1.02-.96-1.42-1.46-.36-.75-.22-1.33-.07-1.94,.2-.59,.64-.91,1.05-1.24l3.04-1.81,.65-.81,6.04-7.17c.5-1.22,.97-2.46,1.71-3.53,.96-.77,2.65-.83,3.79,.27m-1.08,1.28c-.25-.19-1.04-.62-1.52-.06l-1.74,3.83-6.45,7.65c-1.24,.62-2.34,1.37-3.44,2.23-.35,.53-.29,1.1,.33,1.67"/>
          </g>
          <g>
            <path class="cls-30" d="M249.36,229.81l-3.18,3.77c-.4,1.32-.91,2.6-1.58,3.83-.46,.44-.99,.52-1.66,0l-.87,1.04c.47,.49,1.02,.81,1.59,1.13,.8,.22,1.35-.01,1.93-.26,.55-.3,.79-.79,1.04-1.25l1.26-3.3,3.09-3.64s-1.64-1.32-1.64-1.32Z"/>
            <path class="cls-3" d="M242.05,238.44c.47,.49,1.05,.82,1.62,1.14,.8,.22,1.35-.01,1.93-.26,.55-.3,.79-.79,1.04-1.25l1.26-3.3,3.08-3.64m-1.59-1.3l-3.2,3.78c-.4,1.32-.93,2.57-1.59,3.8-.46,.44-1,.5-1.67-.01"/>
          </g>
          <g>
            <path class="cls-30" d="M256.99,220.91l-1.08,1.28c-.25-.19-1.04-.62-1.52-.06l-1.69,3.87-6.43,7.63c-1.24,.62-2.41,1.34-3.51,2.21-.35,.53-.35,1.08,.26,1.64l-.87,1.04c-.56-.38-.96-.88-1.37-1.39-.36-.75-.22-1.33-.07-1.94,.2-.59,.64-.91,1.05-1.24l3.04-1.81,.65-.81,6.04-7.17c.5-1.22,.97-2.46,1.71-3.53,.96-.77,2.65-.83,3.79,.27Z"/>
            <path class="cls-3" d="M242.2,238.58c-.56-.38-1.02-.96-1.42-1.46-.36-.75-.22-1.33-.07-1.94,.2-.59,.64-.91,1.05-1.24l3.04-1.81,.65-.81,6.04-7.17c.5-1.22,.97-2.46,1.71-3.53,.96-.77,2.65-.83,3.79,.27m-1.08,1.28c-.25-.19-1.04-.62-1.52-.06l-1.74,3.83-6.45,7.65c-1.24,.62-2.34,1.37-3.44,2.23-.35,.53-.29,1.1,.33,1.67"/>
          </g>
        </g>
        <path class="cls-30" d="M256.92,220.84l-1.09,1.28c.42,.32,.77,.87,.35,1.43l-3.57,2.41-4.05,4.8,1.64,1.32,4.43-5.26c1.12-.7,2.26-1.38,3.19-2.28,.8-.94,.39-2.62-.9-3.7h0Z"/>
      </g>
      <path class="cls-3" d="M250.15,232.11l4.48-5.29c1.12-.7,2.26-1.38,3.19-2.28,.8-.94,.37-2.64-.92-3.71m-1.11,1.28c.42,.32,.81,.88,.38,1.44l-3.53,2.44-4.19,4.94"/>
      <path class="cls-30" d="M244.24,235.88l-1.09,1.28c.42,.32,.77,.87,.35,1.43l-3.57,2.41-4.05,4.8,1.64,1.32,4.43-5.26c1.12-.7,2.26-1.38,3.19-2.28,.8-.94,.39-2.62-.9-3.7h0Z"/>
      <path class="cls-3" d="M237.48,247.16l4.48-5.29c1.12-.7,2.26-1.38,3.19-2.28,.8-.94,.37-2.64-.92-3.71m-1.11,1.28c.42,.32,.81,.88,.38,1.44l-3.53,2.44-4.19,4.94"/>
      <path class="cls-30" d="M187.69,214.29l3.32,3.95c.41,1.39,.95,2.73,1.64,4.01,.48,.46,1.04,.54,1.74,0l.91,1.08c-.49,.52-1.08,.85-1.67,1.18-.84,.24-1.41-.01-2.02-.27-.58-.31-.82-.82-1.09-1.31l-1.32-3.46-3.23-3.81,1.72-1.39h0Z"/>
      <path class="cls-3" d="M195.09,223.45c-.47,.49-1.05,.82-1.62,1.13-.8,.22-1.35-.02-1.94-.28-.55-.3-.79-.8-1.05-1.26l-1.29-3.33-3.11-3.68m1.58-1.3l3.24,3.83c.41,1.33,.94,2.6,1.61,3.84,.46,.44,1.01,.51,1.67,0"/>
      <g>
        <g>
          <g>
            <path class="cls-30" d="M205.65,235.95l1.08,1.28c.25-.19,1.04-.62,1.52-.06l1.69,3.87,6.41,7.63c1.23,.62,2.4,1.34,3.5,2.21,.35,.53,.35,1.08-.26,1.64l.87,1.04c.56-.38,.96-.88,1.37-1.39,.36-.75,.22-1.33,.07-1.94-.2-.59-.64-.91-1.05-1.24l-3.03-1.81-.65-.81-6.03-7.17c-.5-1.22-.97-2.46-1.7-3.53-.95-.77-2.64-.83-3.78,.27Z"/>
            <path class="cls-28" d="M220.4,253.63c.56-.38,1.01-.96,1.42-1.46,.36-.75,.22-1.33,.07-1.94-.2-.59-.64-.91-1.05-1.24l-3.03-1.81-.65-.81-6.03-7.17c-.5-1.22-.97-2.46-1.7-3.53-.95-.77-2.64-.83-3.78,.27m1.08,1.28c.25-.19,1.04-.62,1.52-.06l1.73,3.83,6.44,7.65c1.23,.62,2.33,1.37,3.43,2.23,.35,.53,.29,1.1-.33,1.67"/>
          </g>
          <g>
            <path class="cls-30" d="M200.6,229.81l3.17,3.77c.4,1.32,.91,2.6,1.57,3.83,.46,.44,.99,.52,1.65,0l.87,1.04c-.47,.49-1.02,.81-1.59,1.13-.8,.22-1.35-.01-1.93-.26-.55-.3-.79-.79-1.04-1.25l-1.26-3.3-3.09-3.64s1.63-1.32,1.63-1.32Z"/>
            <path class="cls-3" d="M207.9,238.44c-.47,.49-1.05,.82-1.61,1.14-.8,.22-1.35-.01-1.93-.26-.55-.3-.79-.79-1.04-1.25l-1.26-3.3-3.07-3.64m1.58-1.3l3.2,3.78c.4,1.32,.92,2.57,1.58,3.8,.46,.44,1,.5,1.66-.01"/>
          </g>
          <g>
            <path class="cls-30" d="M192.99,220.91l1.08,1.28c.25-.19,1.04-.62,1.52-.06l1.69,3.87,6.41,7.63c1.23,.62,2.4,1.34,3.5,2.21,.35,.53,.35,1.08-.26,1.64l.87,1.04c.56-.38,.96-.88,1.37-1.39,.36-.75,.22-1.33,.07-1.94-.2-.59-.64-.91-1.05-1.24l-3.03-1.81-.65-.81-6.03-7.17c-.5-1.22-.97-2.46-1.7-3.53-.95-.77-2.64-.83-3.78,.27Z"/>
            <path class="cls-3" d="M207.75,238.58c.56-.38,1.01-.96,1.42-1.46,.36-.75,.22-1.33,.07-1.94-.2-.59-.64-.91-1.05-1.24l-3.03-1.81-.65-.81-6.03-7.17c-.5-1.22-.97-2.46-1.7-3.53-.95-.77-2.64-.83-3.78,.27m1.08,1.28c.25-.19,1.04-.62,1.52-.06l1.73,3.83,6.44,7.65c1.23,.62,2.33,1.37,3.43,2.23,.35,.53,.29,1.1-.33,1.67"/>
          </g>
        </g>
        <path class="cls-30" d="M179.84,205.39l1.1,1.31c.26-.2,1.06-.63,1.55-.06l1.72,3.96,6.55,7.8c1.26,.63,2.45,1.37,3.57,2.25,.36,.54,.36,1.1-.27,1.68l.89,1.06c.57-.38,.98-.9,1.4-1.42,.37-.76,.22-1.36,.07-1.99-.2-.61-.65-.93-1.07-1.27l-3.09-1.85-.66-.83-6.15-7.33c-.51-1.25-.99-2.52-1.74-3.6-.97-.79-2.69-.85-3.86,.28h0Z"/>
      </g>
      <path class="cls-3" d="M195,223.5c.57-.39,.98-.91,1.39-1.42,.36-.77,.22-1.36,.07-2-.2-.61-.65-.93-1.07-1.27l-3.08-1.85-.66-.83-6.13-7.36c-.5-1.26-.98-2.53-1.73-3.62-.97-.79-2.68-.85-3.84,.28m1.09,1.31c.26-.2,1.06-.64,1.55-.06l1.76,3.93,6.54,7.85c1.25,.63,2.37,1.4,3.48,2.28,.36,.54,.36,1.1-.27,1.68"/>
      <path class="cls-30" d="M193.06,220.84l1.09,1.28c-.42,.32-.77,.87-.35,1.43l3.56,2.41,4.04,4.8-1.64,1.32-4.42-5.26c-1.12-.7-2.26-1.38-3.18-2.28-.79-.94-.39-2.62,.9-3.7h0Z"/>
      <path class="cls-3" d="M199.81,232.11l-4.47-5.29c-1.12-.7-2.26-1.38-3.18-2.28-.79-.94-.37-2.64,.92-3.71m1.11,1.28c-.42,.32-.81,.88-.38,1.44l3.52,2.44,4.18,4.94"/>
      <path class="cls-30" d="M205.71,235.88l1.09,1.28c-.42,.32-.77,.87-.35,1.43l3.56,2.41,4.04,4.8-1.64,1.32-4.42-5.26c-1.12-.7-2.26-1.38-3.18-2.28-.79-.94-.39-2.62,.9-3.7h0Z"/>
      <path class="cls-3" d="M212.47,247.16l-4.47-5.29c-1.12-.7-2.26-1.38-3.18-2.28-.79-.94-.37-2.64,.92-3.71m1.11,1.28c-.42,.32-.81,.88-.38,1.44l3.52,2.44,4.18,4.94"/>
      <path class="cls-30" d="M213.12,268.34l-3.23,3.39c-.42,1.26-.95,2.47-1.63,3.62-.46,.38-1,.41-1.65-.17l-.89,.93c.46,.53,1.01,.91,1.57,1.28,.79,.31,1.34,.13,1.93-.06,.55-.24,.8-.7,1.06-1.13l1.31-3.13,3.14-3.27-1.61-1.48h0Z"/>
      <path class="cls-3" d="M205.93,276.24c.44,.51,.98,.88,1.52,1.23,.76,.29,1.29,.11,1.85-.07,.53-.23,.77-.67,1.02-1.09l1.28-3.01,3.02-3.16m-1.49-1.38l-3.14,3.29c-.41,1.21-.94,2.35-1.6,3.46-.45,.37-.97,.38-1.59-.16"/>
      <g>
        <path class="cls-30" d="M207.97,274.04l-1.04,1.1c-.24-.21-.98-.69-1.45-.2l-1.67,3.48-6.23,6.55c-1.18,.46-2.31,1.03-3.37,1.73-.34,.46-.35,.98,.22,1.57l-.84,.89c-.53-.41-.9-.93-1.28-1.44-.33-.74-.18-1.27-.04-1.84,.2-.54,.62-.79,1.02-1.06l2.91-1.4,.63-.7,5.85-6.16c.49-1.1,.96-2.22,1.68-3.15,.92-.63,2.53-.52,3.59,.63Z"/>
        <path class="cls-28" d="M193.64,289.24c-.53-.41-.95-1-1.33-1.51-.33-.74-.18-1.27-.04-1.84,.2-.54,.62-.79,1.02-1.06l2.91-1.4,.63-.7,5.85-6.16c.49-1.1,.96-2.22,1.68-3.15,.92-.63,2.53-.52,3.59,.63m-1.04,1.1c-.24-.21-.98-.69-1.45-.2l-1.71,3.44-6.25,6.57c-1.18,.46-2.24,1.06-3.3,1.76-.34,.46-.29,1.01,.29,1.6"/>
      </g>
      <g>
        <path class="cls-30" d="M220.41,261.06l-1.04,1.1c-.24-.21-.98-.69-1.45-.2l-1.67,3.48-6.23,6.55c-1.18,.46-2.31,1.03-3.37,1.73-.34,.46-.35,.98,.22,1.57l-.84,.89c-.53-.41-.9-.93-1.28-1.44-.33-.74-.18-1.27-.04-1.84,.2-.54,.62-.79,1.02-1.06l2.91-1.4,.63-.7,5.85-6.16c.49-1.1,.96-2.22,1.68-3.15,.92-.63,2.53-.52,3.59,.63h0Z"/>
        <path class="cls-3" d="M205.99,276.29c-.53-.41-.9-.93-1.28-1.44-.33-.74-.18-1.27-.04-1.84,.2-.54,.62-.79,1.02-1.06l2.91-1.4,.63-.7,5.85-6.16c.49-1.1,.96-2.22,1.68-3.15,.92-.63,2.53-.52,3.59,.63m-1.04,1.1c-.24-.21-.98-.69-1.45-.2l-1.71,3.44-6.25,6.57c-1.18,.46-2.24,1.06-3.3,1.76-.34,.46-.35,.98,.22,1.57"/>
        <path class="cls-30" d="M207.91,273.97l-1.06,1.1c.39,.35,.72,.89,.31,1.38l-3.43,1.92-3.92,4.13,1.54,1.4,4.29-4.52c1.08-.55,2.17-1.07,3.06-1.84,.77-.8,.41-2.43-.8-3.57Z"/>
        <path class="cls-3" d="M201.3,283.92l4.34-4.54c1.08-.55,2.17-1.07,3.06-1.84,.77-.8,.4-2.45-.81-3.59m-1.07,1.1c.39,.35,.75,.91,.34,1.39l-3.39,1.95-4.06,4.25"/>
      </g>
      <g>
        <path class="cls-30" d="M188.06,294.62l-3.54,3.43c-.46,1.27-1.05,2.49-1.79,3.65-.51,.39-1.1,.41-1.81-.16l-.97,.94c.5,.54,1.1,.91,1.72,1.29,.87,.31,1.47,.13,2.11-.06,.61-.24,.88-.7,1.16-1.14l1.44-3.15,3.44-3.3s-1.76-1.49-1.76-1.49Z"/>
        <path class="cls-3" d="M179.92,302.46c.5,.54,1.13,.93,1.74,1.3,.87,.31,1.47,.13,2.11-.06,.61-.24,.88-.7,1.16-1.14l1.44-3.15,3.43-3.31m-1.71-1.46l-3.57,3.44c-.46,1.27-1.06,2.47-1.8,3.62-.51,.39-1.11,.39-1.82-.18"/>
      </g>
      <path class="cls-30" d="M195.62,286.9l-1.06,1.1c.39,.35,.72,.89,.31,1.38l-3.43,1.92-3.92,4.13,1.54,1.4,4.29-4.52c1.08-.55,2.17-1.07,3.06-1.84,.77-.8,.41-2.43-.8-3.57Z"/>
      <path class="cls-3" d="M189.01,296.85l4.34-4.54c1.08-.55,2.17-1.07,3.06-1.84,.77-.8,.4-2.45-.81-3.59m-1.07,1.1c.39,.35,.75,.91,.34,1.39l-3.39,1.95-4.06,4.25"/>
      <g>
        <path class="cls-30" d="M200.58,281.68l-3.08,3.24c-.4,1.21-.91,2.36-1.56,3.45-.44,.37-.95,.39-1.57-.16l-.85,.89c.44,.51,.96,.86,1.49,1.22,.75,.29,1.28,.12,1.84-.06,.53-.23,.76-.66,1.01-1.07l1.25-2.98,2.99-3.12s-1.53-1.41-1.53-1.41Z"/>
        <path class="cls-3" d="M193.5,289.09c.44,.51,.98,.88,1.52,1.23,.75,.29,1.28,.12,1.84-.06,.53-.23,.76-.66,1.01-1.07l1.25-2.98,2.98-3.13m-1.49-1.38l-3.1,3.25c-.4,1.21-.92,2.33-1.57,3.43-.44,.37-.96,.37-1.58-.17"/>
      </g>
      <path class="cls-30" d="M236.88,268.34l3.23,3.39c.42,1.26,.95,2.47,1.63,3.62,.46,.38,1,.41,1.65-.17l.89,.93c-.46,.53-1.01,.91-1.57,1.28-.79,.31-1.34,.13-1.93-.06-.55-.24-.8-.7-1.06-1.13l-1.31-3.13-3.14-3.27,1.61-1.48h0Z"/>
      <path class="cls-3" d="M244.07,276.24c-.44,.51-.98,.88-1.52,1.23-.76,.29-1.29,.11-1.85-.07-.53-.23-.77-.67-1.02-1.09l-1.28-3.01-3.02-3.16m1.49-1.38l3.14,3.29c.41,1.21,.94,2.35,1.6,3.46,.45,.37,.97,.38,1.59-.16"/>
      <g>
        <path class="cls-30" d="M242.03,274.04l1.04,1.1c.24-.21,.98-.69,1.45-.2l1.67,3.48,6.23,6.55c1.18,.46,2.31,1.03,3.37,1.73,.34,.46,.35,.98-.22,1.57l.84,.89c.53-.41,.9-.93,1.28-1.44,.33-.74,.18-1.27,.04-1.84-.2-.54-.62-.79-1.02-1.06l-2.91-1.4-.63-.7-5.85-6.16c-.49-1.1-.96-2.22-1.68-3.15-.92-.63-2.53-.52-3.59,.63Z"/>
        <path class="cls-3" d="M256.36,289.24c.53-.41,.95-1,1.33-1.51,.33-.74,.18-1.27,.04-1.84-.2-.54-.62-.79-1.02-1.06l-2.91-1.4-.63-.7-5.85-6.16c-.49-1.1-.96-2.22-1.68-3.15-.92-.63-2.53-.52-3.59,.63m1.04,1.1c.24-.21,.98-.69,1.45-.2l1.71,3.44,6.25,6.57c1.18,.46,2.24,1.06,3.3,1.76,.34,.46,.29,1.01-.29,1.6"/>
      </g>
      <g>
        <path class="cls-30" d="M229.59,261.06l1.04,1.1c.24-.21,.98-.69,1.45-.2l1.67,3.48,6.23,6.55c1.18,.46,2.31,1.03,3.37,1.73,.34,.46,.35,.98-.22,1.57l.84,.89c.53-.41,.9-.93,1.28-1.44,.33-.74,.18-1.27,.04-1.84-.2-.54-.62-.79-1.02-1.06l-2.91-1.4-.63-.7-5.85-6.16c-.49-1.1-.96-2.22-1.68-3.15-.92-.63-2.53-.52-3.59,.63h0Z"/>
        <path class="cls-3" d="M244.01,276.29c.53-.41,.9-.93,1.28-1.44,.33-.74,.18-1.27,.04-1.84-.2-.54-.62-.79-1.02-1.06l-2.91-1.4-.63-.7-5.85-6.16c-.49-1.1-.96-2.22-1.68-3.15-.92-.63-2.53-.52-3.59,.63m1.04,1.1c.24-.21,.98-.69,1.45-.2l1.71,3.44,6.25,6.57c1.18,.46,2.24,1.06,3.3,1.76,.34,.46,.35,.98-.22,1.57"/>
        <path class="cls-30" d="M242.09,273.97l1.06,1.1c-.39,.35-.72,.89-.31,1.38l3.43,1.92,3.92,4.13-1.54,1.4-4.29-4.52c-1.08-.55-2.17-1.07-3.06-1.84-.77-.8-.41-2.43,.8-3.57Z"/>
        <path class="cls-3" d="M248.7,283.92l-4.34-4.54c-1.08-.55-2.17-1.07-3.06-1.84-.77-.8-.4-2.45,.81-3.59m1.07,1.1c-.39,.35-.75,.91-.34,1.39l3.39,1.95,4.06,4.25"/>
      </g>
      <g>
        <path class="cls-30" d="M261.89,294.62l3.43,3.51c.44,1.31,1.02,2.55,1.74,3.74,.49,.4,1.06,.42,1.75-.17l.94,.96c-.49,.55-1.07,.94-1.66,1.32-.84,.31-1.43,.13-2.05-.06-.59-.25-.85-.72-1.13-1.16l-1.4-3.23-3.34-3.38s1.71-1.52,1.71-1.52Z"/>
        <path class="cls-3" d="M269.79,302.64c-.49,.55-1.1,.95-1.69,1.33-.84,.31-1.43,.13-2.05-.06-.59-.25-.85-.72-1.13-1.16l-1.4-3.23-3.29-3.46m1.62-1.42l3.46,3.52c.44,1.31,1.03,2.53,1.75,3.71,.49,.4,1.07,.4,1.76-.19"/>
      </g>
      <path class="cls-30" d="M254.38,286.9l1.06,1.1c-.39,.35-.72,.89-.31,1.38l3.43,1.92,3.92,4.13-1.54,1.4-4.29-4.52c-1.08-.55-2.17-1.07-3.06-1.84-.77-.8-.41-2.43,.8-3.57Z"/>
      <path class="cls-3" d="M260.99,296.85l-4.34-4.54c-1.08-.55-2.17-1.07-3.06-1.84-.77-.8-.4-2.45,.81-3.59m1.07,1.1c-.39,.35-.75,.91-.34,1.39l3.39,1.95,4.06,4.25"/>
      <g>
        <g>
          <g>
            <path class="cls-30" d="M249.42,281.68l3.08,3.24c.4,1.21,.91,2.36,1.56,3.45,.44,.37,.95,.39,1.57-.16l.85,.89c-.44,.51-.96,.86-1.49,1.22-.75,.29-1.28,.12-1.84-.06-.53-.23-.76-.66-1.01-1.07l-1.25-2.98-2.99-3.12s1.53-1.41,1.53-1.41Z"/>
            <path class="cls-3" d="M256.5,289.09c-.44,.51-.98,.88-1.52,1.23-.75,.29-1.28,.12-1.84-.06-.53-.23-.76-.66-1.01-1.07l-1.25-2.98-2.98-3.13m1.49-1.38l3.1,3.25c.4,1.21,.92,2.33,1.57,3.43,.44,.37,.96,.37,1.58-.17"/>
          </g>
          <g>
            <path class="cls-28" d="M274.38,206.83v1.86c-.31,.02-1.16,.22-1.17,1.04l1.17,4.5v11.07c-.53,1.41-.95,2.86-1.22,4.38,.07,.7,.41,1.17,1.22,1.21v1.51c-.65,.08-1.26-.06-1.88-.2-.73-.38-.99-.97-1.27-1.6-.22-.65-.09-1.23,0-1.8l1.13-3.7-.02-1.15v-10.4c-.4-1.39-.82-2.78-.94-4.21,.23-1.34,1.45-2.59,2.98-2.47h0Z"/>
            <path class="cls-28" d="M274.38,232.38c-.65,.08-1.27-.06-1.89-.2-.73-.38-.99-.97-1.27-1.6-.22-.65-.09-1.23,0-1.8l1.13-3.7-.02-1.15v-10.4c-.4-1.39-.82-2.78-.94-4.21,.23-1.34,1.45-2.59,2.98-2.47m0,1.86c-.31,.02-1.16,.22-1.17,1.04l1.11,4.49v11.11c-.54,1.41-.88,2.83-1.16,4.34,.07,.7,.41,1.17,1.22,1.21"/>
          </g>
          <g>
            <path class="cls-30" d="M274.21,228.93v1.82c.5-.02,1.11,.18,1.14,.94l-1.14,4.48v6.8l2.04-.05v-7.44c.4-1.36,.82-2.71,.94-4.11,0-1.33-1.35-2.44-2.98-2.43Z"/>
            <path class="cls-3" d="M276.31,243l.02-7.5c.4-1.36,.82-2.71,.94-4.11,0-1.33-1.38-2.44-3.01-2.43m-.02,1.83c.51-.02,1.15,.17,1.19,.92l-1.09,4.47-.02,7.01"/>
          </g>
          <g>
            <path class="cls-30" d="M274.28,219.84v5.47c.53,1.41,.95,2.86,1.22,4.38-.07,.7-.41,1.15-1.22,1.19v1.5c.65,.08,1.27-.04,1.89-.18,.73-.38,.99-.97,1.27-1.6,.22-.65,.09-1.23,0-1.8l-1.13-3.7,.02-5.3-2.04,.04h0Z"/>
            <path class="cls-3" d="M274.26,232.36c.65,.08,1.29-.05,1.91-.19,.73-.38,.99-.97,1.27-1.6,.22-.65,.09-1.23,0-1.8l-1.13-3.7v-5.29m-1.99,.02v5.5c.52,1.41,.91,2.85,1.19,4.36-.07,.7-.43,1.14-1.24,1.18"/>
          </g>
          <g>
            <path class="cls-30" d="M274.15,261.1v1.56c.31,.02,1.17,.18,1.17,.87l-1.17,3.77v9.28c.53,1.18,.95,2.4,1.23,3.67-.07,.59-.41,.98-1.23,1.01v1.26c.65,.07,1.27-.05,1.89-.17,.74-.32,1-.82,1.27-1.34,.22-.54,.09-1.03,0-1.51l-1.13-3.1,.02-.97v-8.72c.4-1.17,.82-2.33,.94-3.53-.23-1.12-1.45-2.17-2.99-2.07h0Z"/>
            <path class="cls-28" d="M274.15,282.51c.66,.07,1.27-.05,1.89-.17,.74-.32,1-.82,1.27-1.34,.22-.54,.09-1.03,0-1.51l-1.13-3.1,.02-.97v-8.72c.4-1.17,.82-2.33,.94-3.53-.23-1.12-1.45-2.17-2.99-2.07m0,1.56c.31,.02,1.17,.18,1.17,.87l-1.11,3.77v9.31c.54,1.18,.89,2.37,1.17,3.64-.07,.59-.41,.98-1.23,1.01"/>
          </g>
        </g>
        <path class="cls-30" d="M274.32,279.53v1.53c-.5-.02-1.11,.15-1.15,.79l1.15,3.76v5.71l-2.05-.04v-6.25c-.4-1.14-.82-2.28-.94-3.45,0-1.12,1.36-2.05,2.99-2.05h0Z"/>
      </g>
      <path class="cls-3" d="M272.28,291.33l-.02-6.3c-.4-1.14-.82-2.28-.94-3.45,0-1.12,1.38-2.05,3.02-2.05m.02,1.54c-.51-.02-1.16,.14-1.19,.78l1.1,3.76,.02,5.89"/>
      <g>
        <g>
          <g>
            <path class="cls-30" d="M274.24,272v4.59c-.53,1.18-.95,2.4-1.23,3.67,.07,.59,.42,.96,1.23,1v1.26c-.66,.07-1.27-.03-1.89-.15-.74-.32-1-.82-1.27-1.34-.22-.54-.09-1.03,0-1.51l1.13-3.1-.02-4.44,2.05,.04h0Z"/>
            <path class="cls-3" d="M274.27,282.52c-.66,.07-1.3-.04-1.92-.16-.74-.32-1-.82-1.27-1.34-.22-.54-.09-1.03,0-1.51l1.13-3.1v-4.44m1.99,.02v4.61c-.52,1.18-.91,2.39-1.19,3.66,.07,.59,.43,.96,1.25,.99"/>
          </g>
          <g>
            <path class="cls-30" d="M274.21,241.7v5.09c.53,1.31,.95,2.66,1.23,4.08-.07,.65-.42,1.07-1.23,1.11v1.4c.65,.08,1.27-.04,1.89-.17,.73-.35,.99-.91,1.27-1.49,.22-.6,.09-1.15,0-1.68l-1.13-3.45,.02-4.93-2.04,.04h0Z"/>
            <path class="cls-3" d="M274.22,253.47c.65,.08,1.3-.05,1.91-.18,.73-.35,.99-.91,1.27-1.49,.22-.6,.09-1.15,0-1.68l-1.13-3.45v-4.93m-1.99,.02v5.12c.52,1.31,.91,2.65,1.19,4.06-.07,.65-.43,1.06-1.25,1.1"/>
          </g>
          <g>
            <path class="cls-30" d="M274.32,290.26v4.33c-.53,1.11-.95,2.26-1.23,3.46,.07,.55,.42,.91,1.23,.94v1.19c-.66,.07-1.27-.03-1.89-.14-.74-.3-1-.77-1.27-1.27-.22-.51-.09-.97,0-1.43l1.13-2.93-.02-4.19,2.05,.03h0Z"/>
            <path class="cls-3" d="M274.34,300.19c-.66,.07-1.3-.04-1.92-.15-.74-.3-1-.77-1.27-1.27-.22-.51-.09-.97,0-1.43l1.13-2.93v-4.19m1.99,.02v4.35c-.52,1.11-.92,2.25-1.19,3.45,.07,.55,.44,.9,1.25,.93"/>
          </g>
          <g>
            <path class="cls-30" d="M250.48,203.81h-1.55c-.02,.29-.18,1.1-.87,1.11l-3.75-1.11h-9.24c-1.17,.51-2.39,.9-3.65,1.16-.58-.06-.97-.39-1.01-1.16h-1.26c-.07,.62,.05,1.2,.17,1.79,.32,.7,.81,.94,1.34,1.21,.54,.21,1.03,.09,1.51,0l3.09-1.07,.96,.02h8.69c1.16,.38,2.32,.78,3.52,.89,1.12-.22,2.16-1.38,2.06-2.84h0Z"/>
            <path class="cls-3" d="M229.03,203.83c-.03,.62,.07,1.26,.18,1.84,.32,.7,.81,.94,1.34,1.21,.54,.21,1.03,.09,1.51,0l3.09-1.07,.96,.02h8.69c1.16,.38,2.32,.78,3.52,.89,1.12-.22,2.16-1.38,2.06-2.84m-1.55,0c-.02,.29-.18,1.1-.87,1.11l-3.75-1.05h-9.27c-1.17,.51-2.36,.84-3.63,1.11-.58-.06-.96-.42-.99-1.2"/>
          </g>
          <g>
            <path class="cls-30" d="M257.65,203.68h-4.47c-1.15-.51-2.34-.9-3.57-1.17-.57,.06-.94,.39-.97,1.17h-1.23c-.07-.62,.03-1.21,.15-1.79,.31-.7,.79-.94,1.31-1.21,.53-.21,1-.09,1.47,0l3.02,1.07,4.32-.02-.04,1.94h0Z"/>
            <path class="cls-3" d="M247.4,203.77c-.07-.62,.04-1.23,.15-1.82,.31-.7,.79-.94,1.31-1.21,.53-.21,1-.09,1.47,0l3.02,1.07h4.32m-.02,1.89h-4.49c-1.15-.49-2.32-.87-3.56-1.13-.57,.06-.93,.41-.96,1.18"/>
          </g>
        </g>
        <path class="cls-30" d="M268.27,203.75h-1.52c.02-.48-.15-1.05-.79-1.09l-3.75,1.09h-5.69l.04-1.94h6.23c1.14-.38,2.27-.78,3.44-.89,1.11,0,2.05,1.29,2.04,2.84h0Z"/>
      </g>
      <path class="cls-3" d="M256.51,201.82h6.28c1.14-.39,2.27-.8,3.44-.91,1.11,0,2.05,1.31,2.04,2.86m-1.53,.02c.02-.49-.14-1.1-.77-1.13l-3.75,1.04h-5.87"/>
      <g>
        <path class="cls-30" d="M250.44,203.78h-1.56c.02-.48-.16-1.05-.8-1.08l-3.84,1.08h-5.82l.04-1.94h6.37c1.16-.38,2.32-.78,3.52-.89,1.14,0,2.09,1.28,2.08,2.84Z"/>
        <path class="cls-3" d="M238.34,202h6.42c1.16-.39,2.32-.79,3.52-.91,1.14,0,2.09,1.31,2.08,2.86m-1.57,.02c.02-.49-.14-1.09-.79-1.13l-3.83,1.04h-6"/>
      </g>
      <g>
        <path class="cls-30" d="M199.15,203.37h1.6c.02,.29,.18,1.1,.89,1.11l3.87-1.11h9.51c1.21,.51,2.46,.9,3.76,1.16,.6-.06,1-.39,1.04-1.16h1.29c.07,.62-.05,1.2-.17,1.79-.33,.7-.84,.94-1.38,1.21-.56,.21-1.06,.09-1.55,0l-3.18-1.07-.99,.02h-8.95c-1.2,.38-2.39,.78-3.62,.89-1.15-.22-2.23-1.37-2.12-2.83h0Z"/>
        <path class="cls-3" d="M221.05,203.28c.07,.62-.07,1.3-.19,1.89-.32,.7-.83,.94-1.37,1.21-.55,.21-1.05,.09-1.55,0l-3.17-1.07-.99,.02h-8.91c-1.19,.38-2.39,.78-3.61,.89-1.15-.22-2.22-1.38-2.12-2.84m1.59,0c.02,.29,.18,1.1,.89,1.11l3.85-1.05h9.51c1.2,.51,2.42,.84,3.72,1.11,.6-.06,.98-.43,1.01-1.21"/>
        <path class="cls-30" d="M191.29,203.59h4.75c1.22-.51,2.48-.9,3.8-1.16,.61,.06,1,.39,1.03,1.16h1.3c.07-.62-.04-1.21-.15-1.79-.33-.7-.84-.94-1.39-1.21-.56-.21-1.07-.09-1.57,0l-3.21,1.07-4.6-.02,.04,1.94h0Z"/>
        <path class="cls-3" d="M201.99,203.66c.07-.62-.05-1.23-.16-1.82-.33-.7-.84-.94-1.39-1.21-.56-.21-1.07-.09-1.57,0l-3.21,1.07h-4.59m.02,1.89h4.77c1.22-.49,2.47-.87,3.79-1.13,.61,.06,.99,.41,1.02,1.18"/>
      </g>
      <g>
        <g>
          <path class="cls-30" d="M199.14,203.46h1.62c-.02-.48,.16-1.05,.84-1.08l3.99,1.08h6.05l-.04-1.94h-6.62c-1.21-.38-2.42-.78-3.66-.89-1.18,0-2.18,1.28-2.17,2.83Z"/>
          <path class="cls-2" d="M211.65,201.51h-6.68c-1.21-.39-2.42-.79-3.66-.91-1.18,0-2.18,1.31-2.17,2.86m1.63,.02c-.02-.49,.15-1.09,.82-1.13l3.98,1.04h6.24"/>
        </g>
        <g>
          <path class="cls-29" d="M180.41,203.59h1.56c-.02-.48,.16-1.05,.81-1.08l3.86,1.08h5.85l-.04-1.94h-6.4c-1.17-.38-2.34-.78-3.54-.89-1.15,0-2.1,1.28-2.1,2.83h0Z"/>
          <path class="cls-2" d="M192.43,201.73h-6.42c-1.16-.39-2.32-.8-3.52-.91-1.14,0-2.09,1.31-2.08,2.86m1.57,.02c-.02-.49,.14-1.1,.79-1.13l3.83,1.04h6"/>
        </g>
        <g>
          <path class="cls-30" d="M250.88,314.34l-1.6,.68c.1,.28,.25,1.11-.45,1.42l-4.32,.62-9.55,4.08c-1.01,.99-2.11,1.9-3.31,2.7-.63,.2-1.16,.06-1.5-.64l-1.3,.55c.18,.61,.53,1.11,.89,1.61,.6,.51,1.22,.52,1.86,.54,.64-.04,1.1-.37,1.55-.67l2.77-2.37,1-.4,8.98-3.83c1.35-.16,2.71-.3,3.99-.72,1.07-.69,1.69-2.24,1-3.57Z"/>
          <path class="cls-3" d="M228.79,323.69c.18,.61,.59,1.17,.94,1.67,.6,.51,1.22,.52,1.86,.54,.64-.04,1.1-.37,1.55-.67l2.77-2.37,1-.4,8.98-3.83c1.35-.16,2.71-.3,3.99-.72,1.07-.69,1.69-2.24,1-3.57m-1.6,.68c.1,.28,.25,1.11-.45,1.42l-4.29,.67-9.58,4.1c-1.01,.99-2.11,1.83-3.31,2.63-.63,.2-1.17,0-1.51-.71"/>
        </g>
        <g>
          <path class="cls-30" d="M199.12,314.12l1.6,.68c-.1,.28-.25,1.11,.45,1.42l4.32,.62,9.55,4.08c1.01,.99,2.11,1.9,3.31,2.7,.63,.2,1.16,.06,1.5-.64l1.3,.55c-.18,.61-.53,1.11-.89,1.61-.6,.51-1.22,.52-1.86,.54-.64-.04-1.1-.37-1.55-.67l-2.77-2.37-1-.4-8.98-3.83c-1.35-.16-2.71-.3-3.99-.72-1.07-.69-1.69-2.24-1-3.57Z"/>
          <path class="cls-3" d="M221.21,323.47c-.18,.61-.59,1.17-.94,1.67-.6,.51-1.22,.52-1.86,.54-.64-.04-1.1-.37-1.55-.67l-2.77-2.37-1-.4-8.98-3.83c-1.35-.16-2.71-.3-3.99-.72-1.07-.69-1.69-2.24-1-3.57m1.6,.68c-.1,.28-.25,1.11,.45,1.42l4.29,.67,9.58,4.1c1.01,.99,2.11,1.83,3.31,2.63,.63,.2,1.17,0,1.51-.71"/>
        </g>
        <path class="cls-25" d="M225,317.12c-3.99,0-7.23,3.24-7.23,7.23s3.24,7.23,7.23,7.23,7.23-3.24,7.23-7.23-3.24-7.23-7.23-7.23Zm0,1.73c3.04,0,5.5,2.47,5.5,5.51s-2.46,5.5-5.5,5.5-5.5-2.46-5.5-5.5,2.46-5.51,5.5-5.51Z"/>
        <g>
          <g>
            <path class="cls-30" d="M230.85,257.25h1.5c.01,.31,.17,1.17,.84,1.18l3.63-1.18h8.94c1.14,.54,2.31,.95,3.54,1.23,.56-.07,.94-.41,.97-1.23h1.22c.07,.65-.05,1.27-.16,1.89-.31,.74-.79,1-1.29,1.28-.52,.22-.99,.09-1.46,0l-2.99-1.13-.93,.02h-8.4c-1.13,.4-2.25,.83-3.4,.94-1.08-.23-2.09-1.46-1.99-3h0Z"/>
            <path class="cls-3" d="M251.49,257.21c.07,.66-.06,1.32-.17,1.94-.31,.74-.79,1-1.29,1.28-.52,.22-.99,.09-1.46,0l-2.99-1.13-.93,.02h-8.4c-1.13,.4-2.25,.83-3.4,.94-1.08-.23-2.09-1.46-1.99-3m1.5,0c.01,.31,.17,1.17,.84,1.18l3.63-1.11h8.97c1.14,.54,2.27,.87,3.49,1.14,.56-.07,.94-.41,.97-1.23"/>
          </g>
          <g>
            <path class="cls-30" d="M224.92,263.11v1.54c.31,.02,1.18,.18,1.19,.86l-1.19,3.73v9.17c.54,1.17,.96,2.37,1.24,3.63-.07,.58-.42,.97-1.24,1v1.25c.66,.07,1.29-.05,1.91-.17,.75-.31,1.01-.81,1.29-1.33,.23-.54,.09-1.02,0-1.5l-1.14-3.07,.02-.95v-8.63c.4-1.16,.83-2.31,.95-3.49-.23-1.11-1.47-2.15-3.03-2.05h0Z"/>
            <path class="cls-28" d="M224.92,284.29c.66,.07,1.29-.05,1.92-.17,.75-.31,1.01-.81,1.29-1.33,.23-.54,.09-1.02,0-1.5l-1.14-3.07,.02-.95v-8.63c.4-1.16,.83-2.31,.95-3.49-.23-1.11-1.47-2.15-3.03-2.05m0,1.54c.31,.02,1.18,.18,1.19,.86l-1.12,3.72v9.21c.55,1.17,.9,2.34,1.18,3.6-.07,.58-.42,.97-1.24,1"/>
          </g>
          <g>
            <path class="cls-30" d="M224.92,239.94v5.15c.54,1.32,.96,2.69,1.24,4.12-.07,.66-.42,1.08-1.24,1.12v1.41c.66,.08,1.28-.04,1.91-.17,.74-.36,1-.92,1.29-1.51,.22-.61,.09-1.16,0-1.7l-1.14-3.48,.02-4.98-2.07,.04h0Z"/>
            <path class="cls-3" d="M224.89,251.75c.66,.08,1.31-.05,1.94-.18,.74-.36,1-.92,1.29-1.51,.22-.61,.09-1.16,0-1.7l-1.14-3.48v-4.98m-2.01,.02v5.18c.53,1.32,.92,2.68,1.2,4.11-.07,.66-.44,1.08-1.26,1.11"/>
          </g>
          <path class="cls-28" d="M224.88,248.07c-4.65-.06-9.25,2.93-9.42,9.14,.45,12.4,18.91,12.95,19.08,0-.32-5.98-5.01-9.08-9.66-9.14Zm-.23,2.03c3.77-.11,7.68,2.34,7.94,7.2-.13,10.21-14.66,9.78-15.01,0,.12-4.74,3.53-7.1,7.07-7.2Z"/>
          <g>
            <path class="cls-30" d="M236.68,244.85l-3.18,3.77c-.4,1.32-.91,2.6-1.58,3.83-.46,.44-.99,.52-1.66,0l-.87,1.04c.47,.49,1.02,.81,1.59,1.13,.8,.22,1.35-.01,1.93-.26,.55-.3,.79-.79,1.04-1.25l1.26-3.3,3.09-3.64s-1.64-1.32-1.64-1.32Z"/>
            <path class="cls-3" d="M229.37,253.49c.47,.49,1.05,.82,1.62,1.14,.8,.22,1.35-.01,1.93-.26,.55-.3,.79-.79,1.04-1.25l1.26-3.3,3.08-3.64m-1.59-1.3l-3.2,3.78c-.4,1.32-.93,2.57-1.59,3.8-.46,.44-1,.5-1.67-.01"/>
          </g>
          <g>
            <path class="cls-30" d="M213.26,244.85l3.17,3.77c.4,1.32,.91,2.6,1.57,3.83,.46,.44,.99,.52,1.65,0l.87,1.04c-.47,.49-1.02,.81-1.59,1.13-.8,.22-1.35-.01-1.93-.26-.55-.3-.79-.79-1.04-1.25l-1.26-3.3-3.09-3.64s1.63-1.32,1.63-1.32Z"/>
            <path class="cls-3" d="M220.55,253.49c-.47,.49-1.05,.82-1.61,1.14-.8,.22-1.35-.01-1.93-.26-.55-.3-.79-.79-1.04-1.25l-1.26-3.3-3.07-3.64m1.58-1.3l3.2,3.78c.4,1.32,.92,2.57,1.58,3.8,.46,.44,1,.5,1.66-.01"/>
          </g>
        </g>
        <g>
          <path class="cls-30" d="M229.66,260.99l1.06,1.1c-.39,.35-.72,.89-.31,1.38l3.43,1.92,3.92,4.13-1.54,1.4-4.29-4.52c-1.08-.55-2.17-1.07-3.06-1.84-.77-.8-.41-2.43,.8-3.57Z"/>
          <g>
            <path class="cls-3" d="M236.27,271.06l-4.34-4.54c-1.08-.55-2.17-1.07-3.06-1.84-.77-.8-.4-2.45,.81-3.59m1.07,1.1c-.39,.35-.75,.91-.34,1.39l3.39,1.95,4.06,4.25"/>
            <path class="cls-1" d="M236.26,270.94l-4.34-4.54c-1.08-.55-2.17-1.07-3.06-1.84-.77-.8-.4-2.45,.81-3.59m1.07,1.1c-.39,.35-.75,.91-.34,1.39l3.39,1.95,4.06,4.25"/>
          </g>
        </g>
        <g>
          <g>
            <path class="cls-30" d="M224.92,227.68v1.75c.51-.02,1.12,.18,1.16,.91l-1.16,4.32v6.56l2.07-.05v-7.18c.4-1.31,.83-2.62,.95-3.97,0-1.28-1.37-2.36-3.02-2.35Z"/>
            <path class="cls-3" d="M226.97,241.24l.02-7.24c.4-1.31,.83-2.62,.95-3.97,0-1.28-1.39-2.36-3.04-2.35m-.02,1.77c.52-.02,1.17,.16,1.2,.89l-1.11,4.32-.02,6.77"/>
          </g>
          <g>
            <path class="cls-30" d="M224.99,219.36v5.09c.54,1.31,.96,2.66,1.24,4.07-.07,.65-.42,1.07-1.24,1.1v1.4c.66,.08,1.28-.04,1.91-.17,.74-.35,1-.9,1.29-1.49,.22-.6,.09-1.14,0-1.68l-1.14-3.44,.02-4.92-2.07,.04h0Z"/>
            <path class="cls-3" d="M224.96,231.03c.66,.08,1.31-.05,1.94-.18,.74-.35,1-.9,1.29-1.49,.22-.6,.09-1.14,0-1.68l-1.14-3.44v-4.92m-2.01,.02v5.11c.53,1.31,.92,2.65,1.2,4.06-.07,.65-.44,1.06-1.26,1.1"/>
          </g>
          <g>
            <path class="cls-30" d="M225.08,207.27v1.73c-.31,.02-1.18,.2-1.18,.97l1.18,4.18v10.29c-.54,1.31-.96,2.66-1.24,4.07,.07,.65,.42,1.09,1.24,1.12v1.4c-.66,.08-1.28-.06-1.91-.19-.74-.35-1-.9-1.29-1.49-.22-.6-.09-1.14,0-1.68l1.14-3.44-.02-1.07v-9.67c-.4-1.3-.83-2.59-.95-3.92,.23-1.24,1.47-2.41,3.02-2.3h0Z"/>
            <path class="cls-3" d="M225.08,231.02c-.66,.08-1.28-.06-1.91-.19-.74-.35-1-.9-1.29-1.49-.22-.6-.09-1.14,0-1.68l1.14-3.44-.02-1.07v-9.67c-.4-1.3-.83-2.59-.95-3.92,.23-1.24,1.47-2.41,3.02-2.3m0,1.73c-.31,.02-1.18,.2-1.18,.97l1.12,4.18v10.32c-.54,1.31-.9,2.63-1.18,4.04,.07,.65,.42,1.09,1.24,1.12"/>
          </g>
          <g>
            <path class="cls-30" d="M225.01,227.69v1.75c-.31,.02-1.18,.2-1.18,.98l1.18,4.23v10.42c-.54,1.32-.96,2.69-1.24,4.12,.07,.66,.42,1.1,1.24,1.13v1.42c-.66,.08-1.28-.06-1.91-.19-.74-.36-1-.92-1.29-1.51-.22-.61-.09-1.16,0-1.7l1.14-3.48-.02-1.08v-9.79c-.4-1.31-.83-2.62-.95-3.97,.23-1.26,1.47-2.44,3.02-2.32h0Z"/>
            <path class="cls-3" d="M225.11,251.76c-.66,.08-1.38-.08-2-.21-.74-.36-1-.92-1.29-1.51-.22-.61-.09-1.16,0-1.7l1.14-3.48-.02-1.08v-9.79c-.4-1.31-.83-2.62-.95-3.97,.23-1.26,1.47-2.44,3.02-2.32m0,1.75c-.31,.02-1.18,.2-1.18,.98l1.12,4.23v10.45c-.54,1.32-.9,2.66-1.18,4.09,.07,.66,.45,1.09,1.27,1.12"/>
          </g>
          <g>
            <path class="cls-30" d="M225.05,309.85v4.54c-.54,1.17-.96,2.37-1.24,3.63,.07,.58,.42,.95,1.24,.98v1.25c-.66,.07-1.29-.03-1.92-.15-.75-.31-1.01-.81-1.29-1.33-.23-.54-.09-1.02,0-1.5l1.14-3.07-.02-4.39,2.07,.04h0Z"/>
            <path class="cls-3" d="M225.07,320.25c-.66,.07-1.31-.04-1.94-.16-.75-.31-1.01-.81-1.29-1.33-.23-.54-.09-1.02,0-1.5l1.14-3.07v-4.39m2.02,.02v4.56c-.53,1.17-.93,2.36-1.21,3.62,.07,.58,.44,.95,1.26,.98"/>
          </g>
          <g>
            <path class="cls-30" d="M224.99,281.35v1.54c.31,.02,1.18,.18,1.19,.86l-1.19,3.73v9.17c.54,1.17,.96,2.37,1.24,3.63-.07,.58-.42,.97-1.24,1v1.25c.66,.07,1.29-.05,1.91-.17,.75-.31,1.01-.81,1.29-1.33,.23-.54,.09-1.02,0-1.5l-1.14-3.07,.02-.95v-8.63c.4-1.16,.83-2.31,.95-3.49-.23-1.11-1.47-2.15-3.03-2.05h0Z"/>
            <path class="cls-3" d="M224.89,302.55c.66,.07,1.38-.07,2.01-.18,.75-.31,1.01-.81,1.29-1.33,.23-.54,.09-1.02,0-1.5l-1.14-3.07,.02-.95v-8.63c.4-1.16,.83-2.31,.95-3.49-.23-1.11-1.47-2.15-3.03-2.05m0,1.54c.31,.02,1.18,.18,1.19,.86l-1.12,3.72v9.21c.55,1.17,.9,2.34,1.18,3.6-.07,.58-.45,.96-1.27,.99"/>
          </g>
          <g>
            <path class="cls-30" d="M225.08,281.35v1.54c-.51-.02-1.12,.16-1.16,.8l1.16,3.81v5.78l-2.08-.04v-6.33c-.4-1.16-.83-2.31-.95-3.49,0-1.13,1.37-2.08,3.03-2.07Z"/>
            <path class="cls-3" d="M223.02,293.29l-.02-6.38c-.4-1.16-.83-2.31-.95-3.49,0-1.13,1.4-2.08,3.05-2.07m.02,1.56c-.52-.02-1.17,.14-1.2,.78l1.11,3.8,.02,5.96"/>
          </g>
          <g>
            <path class="cls-30" d="M225.01,273.89v4.54c-.54,1.17-.96,2.37-1.24,3.63,.07,.58,.42,.95,1.24,.98v1.25c-.66,.07-1.29-.03-1.92-.15-.75-.31-1.01-.81-1.29-1.33-.23-.54-.09-1.02,0-1.5l1.14-3.07-.02-4.39,2.07,.04h0Z"/>
            <path class="cls-3" d="M225.04,284.29c-.66,.07-1.31-.04-1.94-.16-.75-.31-1.01-.81-1.29-1.33-.23-.54-.09-1.02,0-1.5l1.14-3.07v-4.39m2.02,.02v4.56c-.53,1.17-.93,2.36-1.21,3.62,.07,.58,.44,.95,1.26,.98"/>
          </g>
          <g>
            <path class="cls-30" d="M225.08,292.14v4.54c-.54,1.17-.96,2.37-1.24,3.63,.07,.58,.42,.95,1.24,.98v1.25c-.66,.07-1.29-.03-1.92-.15-.75-.31-1.01-.81-1.29-1.33-.23-.54-.09-1.02,0-1.5l1.14-3.07-.02-4.39,2.07,.04h0Z"/>
            <path class="cls-3" d="M225.11,302.54c-.66,.07-1.31-.04-1.94-.16-.75-.31-1.01-.81-1.29-1.33-.23-.54-.09-1.02,0-1.5l1.14-3.07v-4.39m2.02,.02v4.56c-.53,1.17-.93,2.36-1.21,3.62,.07,.58,.44,.95,1.26,.98"/>
          </g>
          <g>
            <path class="cls-30" d="M225.05,299.6v1.48c-.51-.02-1.13,.15-1.16,.76l1.16,3.64v5.53l-2.08-.04v-6.05c-.4-1.11-.84-2.21-.95-3.34,0-1.08,1.37-1.99,3.03-1.98Z"/>
            <path class="cls-3" d="M222.99,311.01l-.02-6.1c-.4-1.11-.84-2.21-.95-3.34,0-1.08,1.4-1.99,3.06-1.98m.02,1.49c-.52-.02-1.17,.14-1.21,.75l1.11,3.64,.02,5.7"/>
          </g>
          <g>
            <path class="cls-30" d="M225.01,263.1v1.54c-.51-.02-1.12,.16-1.16,.8l1.16,3.81v5.78l-2.08-.04v-6.33c-.4-1.16-.83-2.31-.95-3.49,0-1.13,1.37-2.08,3.03-2.07Z"/>
            <path class="cls-3" d="M222.95,275.04l-.02-6.38c-.4-1.16-.83-2.31-.95-3.49,0-1.13,1.4-2.08,3.05-2.07m.02,1.56c-.52-.02-1.17,.14-1.2,.78l1.11,3.8,.02,5.96"/>
          </g>
        </g>
      </g>
      <g>
        <g>
          <path class="cls-7" d="M227.98,252.11c1.81,2.59,.28,.31,2.07,3.01-.09,5.04,.07,.54-.1,5.41-2.37,2.46-.21,.2-2.55,2.68-4.47-.1-.25,.01-4.81-.15-2.46-2.16-.3-.42-2.84-2.79-.06-5.03-.02-.4-.03-5.47,2.08-2.11,.51-.6,2.59-2.7,2.17-.04,3.24-.01,5.65,.02Z"/>
          <path class="cls-7" d="M223.65,254.7l-1.28-2.63"/>
          <path class="cls-7" d="M226.25,254.7l1.56-2.48"/>
          <path class="cls-7" d="M227.32,256.25l2.56-1.15"/>
          <path class="cls-7" d="M227.25,259.14l2.6,1.3"/>
          <path class="cls-7" d="M226.01,260.59l1.33,2.53"/>
          <path class="cls-7" d="M223.79,260.51l-1.11,2.41"/>
          <path class="cls-7" d="M222.4,258.92l-2.5,1.33"/>
          <path class="cls-7" d="M222.51,256.07l-2.67-1.3"/>
        </g>
        <path class="cls-7" d="M226.78,253.71c1.11,1.82,.17,.21,1.27,2.11-.05,3.54,.04,.38-.06,3.79-1.45,1.72-.13,.14-1.56,1.87-2.74-.08-.15,0-2.94-.11-1.51-1.51-.18-.3-1.74-1.96-.04-3.53-.01-.28-.02-3.83,1.27-1.47,.31-.42,1.58-1.89,1.33-.02,1.98,0,3.46,.02h0Z"/>
      </g>
      <g>
        <g>
          <g>
            <path class="cls-30" d="M259.16,257.21h4.34c1.12-.54,2.27-.95,3.47-1.23,.55,.07,.91,.42,.94,1.23h1.19c.07-.66-.03-1.28-.14-1.9-.3-.74-.77-1-1.27-1.28-.51-.22-.98-.09-1.43,0l-2.94,1.13-4.2-.02,.03,2.06h0Z"/>
            <path class="cls-3" d="M269.12,257.24c.07-.66-.04-1.3-.15-1.93-.3-.74-.77-1-1.27-1.28-.51-.22-.98-.09-1.43,0l-2.94,1.13h-4.2m.02,2h4.36c1.12-.52,2.26-.92,3.46-1.2,.55,.07,.91,.44,.94,1.25"/>
          </g>
          <g>
            <path class="cls-30" d="M248.66,257.21h1.5c-.02-.51,.15-1.11,.78-1.15l3.71,1.15h5.63l-.04-2.06h-6.16c-1.13-.4-2.25-.83-3.4-.94-1.1,0-2.03,1.36-2.02,3Z"/>
            <path class="cls-3" d="M260.29,255.17l-6.21-.02c-1.13-.4-2.25-.83-3.4-.94-1.1,0-2.03,1.38-2.02,3.03m1.52,.02c-.02-.51,.14-1.16,.76-1.19l3.71,1.1,5.81,.02"/>
          </g>
          <g>
            <path class="cls-30" d="M230.84,257.35h1.5c-.02-.51,.15-1.11,.78-1.15l3.71,1.15h5.63l-.04-2.06h-6.16c-1.13-.4-2.25-.83-3.4-.94-1.1,0-2.03,1.36-2.02,3Z"/>
            <path class="cls-3" d="M242.47,255.31l-6.21-.02c-1.13-.4-2.25-.83-3.4-.94-1.1,0-2.03,1.38-2.02,3.03m1.52,.02c-.02-.51,.14-1.16,.76-1.19l3.71,1.1,5.81,.02"/>
          </g>
          <g>
            <path class="cls-30" d="M241.35,257.35h4.42c1.14-.54,2.31-.95,3.54-1.23,.56,.07,.93,.42,.96,1.23h1.21c.07-.66-.03-1.28-.14-1.9-.31-.74-.79-1-1.29-1.28-.52-.22-.99-.09-1.46,0l-2.99,1.13-4.28-.02,.03,2.06h0Z"/>
            <path class="cls-3" d="M251.49,257.37c.07-.66-.04-1.3-.15-1.92-.31-.74-.79-1-1.29-1.28-.52-.22-.99-.09-1.46,0l-2.99,1.13h-4.27m.02,2h4.44c1.14-.52,2.3-.92,3.52-1.2,.56,.07,.92,.44,.95,1.25"/>
          </g>
          <g>
            <path class="cls-30" d="M219.35,257.17h-1.51c.02-.5-.15-1.11-.78-1.15l-3.73,1.15h-5.67l.04-2.06h6.2c1.13-.4,2.26-.83,3.43-.94,1.11,0,2.04,1.36,2.03,3Z"/>
            <path class="cls-3" d="M207.64,255.13l6.25-.02c1.13-.4,2.26-.83,3.43-.94,1.11,0,2.04,1.38,2.03,3.02m-1.53,.02c.02-.51-.14-1.16-.77-1.19l-3.73,1.1-5.84,.02"/>
          </g>
          <g>
            <path class="cls-30" d="M190.84,257.03h-4.54c-1.17-.53-2.37-.95-3.63-1.23-.58,.07-.95,.42-.98,1.23h-1.25c-.07-.66,.03-1.28,.15-1.9,.31-.74,.81-1,1.33-1.28,.54-.22,1.02-.09,1.5,0l3.07,1.13,4.39-.02-.04,2.05h0Z"/>
            <path class="cls-3" d="M180.44,257.06c-.07-.66,.04-1.3,.16-1.92,.31-.74,.81-1,1.33-1.28,.54-.22,1.02-.09,1.5,0l3.07,1.13h4.39m-.02,2h-4.56c-1.17-.52-2.36-.92-3.62-1.2-.58,.07-.95,.44-.98,1.25"/>
          </g>
          <g>
            <path class="cls-30" d="M201.42,257.03h-1.51c.02-.5-.15-1.11-.78-1.15l-3.73,1.15h-5.67l.04-2.06h6.2c1.13-.4,2.26-.83,3.43-.94,1.11,0,2.04,1.36,2.03,3Z"/>
            <path class="cls-3" d="M189.71,254.99l6.25-.02c1.13-.4,2.26-.83,3.43-.94,1.11,0,2.04,1.38,2.03,3.02m-1.53,.02c.02-.51-.14-1.16-.77-1.19l-3.73,1.1-5.84,.02"/>
          </g>
          <g>
            <path class="cls-30" d="M208.77,257.17h-4.45c-1.14-.53-2.33-.95-3.56-1.23-.57,.07-.93,.42-.97,1.23h-1.22c-.07-.66,.03-1.28,.15-1.9,.31-.74,.79-1,1.3-1.28,.53-.22,1-.09,1.47,0l3.01,1.13,4.3-.02-.04,2.05h0Z"/>
            <path class="cls-3" d="M198.57,257.2c-.07-.66,.04-1.3,.15-1.92,.31-.74,.79-1,1.3-1.28,.53-.22,1-.09,1.47,0l3.01,1.13h4.3m-.02,2h-4.47c-1.14-.52-2.31-.92-3.55-1.2-.57,.07-.93,.44-.96,1.25"/>
          </g>
        </g>
        <path class="cls-25" d="M273.29,250.05c-3.99,0-7.23,3.24-7.23,7.23s3.24,7.23,7.23,7.23,7.23-3.24,7.23-7.23-3.24-7.23-7.23-7.23Zm0,1.73c3.04,0,5.5,2.47,5.5,5.51s-2.46,5.5-5.5,5.5-5.5-2.46-5.5-5.5,2.46-5.51,5.5-5.51Z"/>
        <g>
          <g>
            <path class="cls-30" d="M274.24,261.09v1.56c-.5-.02-1.11,.16-1.14,.81l1.14,3.85v5.84l-2.05-.04v-6.4c-.4-1.17-.82-2.33-.94-3.53,0-1.14,1.36-2.1,2.99-2.09Z"/>
            <path class="cls-3" d="M272.21,273.16l-.02-6.45c-.4-1.17-.82-2.33-.94-3.53,0-1.14,1.38-2.1,3.02-2.09m.02,1.58c-.51-.02-1.15,.14-1.19,.79l1.1,3.85,.02,6.03"/>
          </g>
          <g>
            <g>
              <path class="cls-30" d="M274.31,228.94v1.78c-.31,.02-1.16,.21-1.17,.99l1.17,4.3v10.59c-.53,1.34-.95,2.74-1.23,4.19,.07,.67,.41,1.12,1.22,1.15v1.44c-.65,.08-1.27-.06-1.88-.19-.73-.36-.99-.93-1.27-1.53-.22-.62-.09-1.18,0-1.73l1.13-3.54-.02-1.1v-9.95c-.4-1.33-.82-2.66-.94-4.03,.23-1.28,1.45-2.48,2.99-2.36h0Z"/>
              <path class="cls-3" d="M274.37,253.48c-.65,.08-1.34-.08-1.96-.21-.73-.36-.99-.93-1.27-1.53-.22-.62-.09-1.18,0-1.73l1.13-3.54-.02-1.1v-9.95c-.4-1.33-.82-2.66-.94-4.03,.23-1.28,1.45-2.48,2.99-2.36m0,1.78c-.31,.02-1.16,.21-1.17,.99l1.11,4.3v10.62c-.54,1.34-.89,2.7-1.16,4.16,.07,.67,.47,1.12,1.28,1.15"/>
            </g>
            <g>
              <path class="cls-30" d="M248.66,257.11h1.49c.01,.31,.17,1.17,.83,1.18l3.6-1.18h8.86c1.13,.54,2.29,.95,3.5,1.23,.56-.07,.93-.41,.96-1.23h1.21c.07,.65-.05,1.27-.16,1.9-.3,.74-.78,1-1.28,1.28-.52,.22-.99,.09-1.44,0l-2.96-1.13-.92,.02h-8.33c-1.12,.4-2.23,.83-3.37,.94-1.07-.23-2.07-1.46-1.98-3h0Z"/>
              <path class="cls-3" d="M269.13,257.04c.07,.66-.06,1.35-.17,1.98-.3,.74-.78,1-1.28,1.28-.52,.22-.99,.09-1.44,0l-2.96-1.13-.92,.02h-8.33c-1.12,.4-2.23,.83-3.37,.94-1.07-.23-2.07-1.46-1.98-3m1.49,0c.01,.31,.17,1.17,.83,1.18l3.6-1.11h8.89c1.13,.54,2.26,.89,3.48,1.17,.56-.07,.91-.49,.95-1.31"/>
            </g>
          </g>
        </g>
        <path class="cls-25" d="M272.22,196.44c-3.99,0-7.23,3.24-7.23,7.23s3.24,7.23,7.23,7.23,7.23-3.24,7.23-7.23-3.24-7.23-7.23-7.23Zm0,1.73c3.04,0,5.5,2.47,5.5,5.51s-2.46,5.5-5.5,5.5-5.5-2.46-5.5-5.5,2.46-5.51,5.5-5.51Z"/>
        <g>
          <g>
            <path class="cls-30" d="M274.28,206.82v1.86c.5-.02,1.11,.19,1.14,.96l-1.14,4.59v6.97l2.04-.05v-7.63c.4-1.39,.82-2.78,.94-4.21,0-1.37-1.35-2.51-2.98-2.5Z"/>
            <path class="cls-3" d="M276.31,221.23v-7.69c.41-1.39,.84-2.78,.95-4.21,0-1.37-1.37-2.51-3-2.5m-.02,1.88c.51-.02,1.15,.17,1.18,.95l-1.09,4.59-.02,7.19"/>
          </g>
          <path class="cls-30" d="M269.27,206.14l-1.04,1.25c-.25-.19-1.01-.61-1.47-.06l-1.63,3.8-6.21,7.48c-1.19,.6-2.33,1.32-3.39,2.16-.34,.52-.34,1.06,.25,1.61l-.84,1.02c-.54-.37-.93-.87-1.33-1.36-.35-.73-.21-1.3-.07-1.91,.19-.58,.62-.89,1.02-1.22l2.93-1.77,.63-.79,5.84-7.04c.48-1.2,.94-2.42,1.65-3.46,.92-.76,2.56-.81,3.66,.27h0Z"/>
        </g>
      </g>
      <path class="cls-3" d="M254.89,223.53c-.54-.37-.93-.87-1.33-1.36-.35-.73-.21-1.3-.07-1.91,.19-.58,.62-.89,1.02-1.22l2.93-1.77,.63-.79,5.84-7.04c.48-1.2,.94-2.42,1.65-3.46,.92-.76,2.56-.81,3.66,.27m-1.04,1.25c-.25-.19-1.01-.61-1.47-.06l-1.68,3.76-6.24,7.51c-1.19,.6-2.26,1.34-3.32,2.18-.34,.52-.34,1.06,.25,1.61"/>
      <g>
        <g>
          <path class="cls-30" d="M268.26,203.66h-1.51c-.02,.29-.18,1.1-.85,1.11l-3.67-1.11h-9.03c-1.15,.51-2.34,.9-3.57,1.17-.57-.06-.95-.39-.98-1.16h-1.23c-.07,.62,.05,1.2,.16,1.79,.31,.7,.79,.94,1.31,1.21,.53,.21,1,.09,1.47,0l3.02-1.07,.94,.02h8.49c1.14,.38,2.27,.78,3.44,.89,1.09-.22,2.11-1.38,2.02-2.84h0Z"/>
          <path class="cls-2" d="M247.41,203.59c-.07,.62,.05,1.21,.16,1.79,.31,.7,.79,.94,1.31,1.21,.53,.21,1,.09,1.47,0l3.02-1.07,.94,.02h8.49c1.14,.38,2.27,.78,3.44,.89,1.09-.22,2.11-1.38,2.02-2.84m-1.51,0c-.02,.29-.18,1.1-.85,1.11l-3.67-1.05h-9.07c-1.15,.51-2.31,.84-3.55,1.11-.57-.06-.95-.39-.98-1.16"/>
        </g>
        <path class="cls-25" d="M176.5,250.05c-3.99,0-7.23,3.24-7.23,7.23s3.24,7.23,7.23,7.23,7.23-3.24,7.23-7.23-3.24-7.23-7.23-7.23Zm0,1.73c3.04,0,5.5,2.47,5.5,5.51s-2.46,5.5-5.5,5.5-5.5-2.46-5.5-5.5,2.46-5.51,5.5-5.51Z"/>
        <g>
          <path class="cls-30" d="M201.41,256.94h-1.52c-.02,.31-.18,1.17-.85,1.17l-3.69-1.17h-9.08c-1.15,.53-2.35,.95-3.59,1.23-.57-.07-.96-.41-.99-1.23h-1.24c-.07,.65,.05,1.27,.16,1.89,.31,.74,.8,1,1.32,1.28,.53,.22,1.01,.09,1.48,0l3.04-1.13,.95,.02h8.54c1.14,.4,2.29,.83,3.46,.94,1.1-.23,2.13-1.45,2.03-3h0Z"/>
          <path class="cls-3" d="M180.43,256.86c-.07,.66,.06,1.35,.18,1.97,.31,.74,.8,1,1.32,1.28,.53,.22,1.01,.09,1.48,0l3.04-1.13,.95,.02h8.54c1.14,.4,2.29,.83,3.46,.94,1.1-.23,2.13-1.45,2.03-3m-1.52,0c-.02,.31-.18,1.17-.85,1.17l-3.69-1.11h-9.12c-1.15,.54-2.32,.89-3.57,1.17-.57-.07-.94-.49-.97-1.3"/>
        </g>
        <g>
          <path class="cls-30" d="M270.36,306.19l-1.64,.7c-.18-.47-.6-.93-1.29-.67l-3.61,2.72-6.14,2.58-.75-1.85,6.72-2.83c1.07-.87,2.14-1.77,3.35-2.4,1.2-.51,2.73,.28,3.35,1.74Z"/>
          <g>
            <path class="cls-3" d="M256.77,309.68l6.77-2.86c1.07-.87,2.14-1.77,3.35-2.4,1.2-.51,2.74,.3,3.36,1.77m-1.65,.71c-.18-.47-.6-.97-1.29-.71l-3.62,2.68-6.33,2.68"/>
            <path class="cls-1" d="M256.89,309.71l6.77-2.86c1.07-.87,2.14-1.77,3.35-2.4,1.2-.51,2.74,.3,3.36,1.77m-1.65,.71c-.18-.47-.6-.97-1.29-.71l-3.62,2.68-6.33,2.68"/>
          </g>
        </g>
        <g>
          <path class="cls-30" d="M179.82,305.83l1.64,.72c.18-.48,.6-.96,1.29-.69l3.61,2.8,6.15,2.66,.75-1.9-6.73-2.91c-1.08-.9-2.14-1.82-3.35-2.47-1.2-.52-2.74,.29-3.36,1.8Z"/>
          <g>
            <path class="cls-3" d="M193.43,309.43l-6.78-2.95c-1.08-.9-2.14-1.82-3.35-2.47-1.2-.52-2.74,.31-3.37,1.82m1.65,.74c.18-.48,.6-1,1.29-.73l3.62,2.76,6.33,2.76"/>
            <path class="cls-1" d="M193.31,309.46l-6.78-2.95c-1.08-.9-2.14-1.82-3.35-2.47-1.2-.52-2.74,.31-3.37,1.82m1.65,.74c.18-.48,.6-1,1.29-.73l3.62,2.76,6.33,2.76"/>
          </g>
        </g>
        <g>
          <path class="cls-25" d="M273.5,297.12c-3.99,0-7.23,3.24-7.23,7.23s3.24,7.23,7.23,7.23,7.23-3.24,7.23-7.23-3.24-7.23-7.23-7.23Zm0,1.73c3.04,0,5.5,2.47,5.5,5.51s-2.46,5.5-5.5,5.5-5.5-2.46-5.5-5.5,2.46-5.51,5.5-5.51Z"/>
          <path class="cls-25" d="M176.5,297.12c-3.99,0-7.23,3.24-7.23,7.23s3.24,7.23,7.23,7.23,7.23-3.24,7.23-7.23-3.24-7.23-7.23-7.23Zm0,1.73c3.04,0,5.5,2.47,5.5,5.51s-2.46,5.5-5.5,5.5-5.5-2.46-5.5-5.5,2.46-5.51,5.5-5.51Z"/>
        </g>
        <g>
          <path class="cls-30" d="M274.22,279.54v1.5c.31,.01,1.17,.17,1.17,.84l-1.17,3.63v8.94c.53,1.14,.95,2.31,1.23,3.54-.07,.56-.41,.94-1.23,.97v1.22c.65,.07,1.27-.05,1.89-.16,.74-.31,1-.79,1.27-1.29,.22-.52,.09-.99,0-1.46l-1.13-2.99,.02-.93v-8.41c.4-1.13,.82-2.25,.94-3.41-.23-1.08-1.45-2.09-2.99-2h0Z"/>
          <path class="cls-2" d="M274.15,300.2c.66,.07,1.34-.07,1.96-.18,.74-.31,1-.79,1.27-1.29,.22-.52,.09-.99,0-1.46l-1.13-2.99,.02-.93v-8.41c.4-1.13,.82-2.25,.94-3.41-.23-1.08-1.45-2.09-2.99-2m0,1.5c.31,.01,1.17,.17,1.17,.84l-1.11,3.63v8.97c.54,1.14,.89,2.28,1.17,3.51-.07,.56-.47,.94-1.28,.97"/>
        </g>
        <path class="cls-25" d="M176.5,196.44c-3.99,0-7.23,3.24-7.23,7.23s3.24,7.23,7.23,7.23,7.23-3.24,7.23-7.23-3.24-7.23-7.23-7.23Zm0,1.73c3.04,0,5.5,2.47,5.5,5.51s-2.46,5.5-5.5,5.5-5.5-2.46-5.5-5.5,2.46-5.51,5.5-5.51Z"/>
        <path class="cls-30" d="M180.38,203.5h1.58c.02,.29,.18,1.1,.89,1.11l3.84-1.11h9.44c1.2,.51,2.44,.9,3.74,1.16,.6-.06,1-.39,1.03-1.16h1.29c.07,.62-.05,1.2-.17,1.79-.32,.7-.83,.94-1.37,1.21-.55,.21-1.05,.09-1.54,0l-3.16-1.07-.98,.02h-8.88c-1.19,.38-2.38,.78-3.6,.89-1.14-.22-2.21-1.37-2.11-2.83h0Z"/>
      </g>
      <path class="cls-3" d="M202.12,203.42c.07,.62-.07,1.27-.19,1.85-.32,.7-.82,.94-1.36,1.21-.55,.21-1.04,.09-1.53,0l-3.14-1.07-.98,.02h-8.81c-1.18,.38-2.36,.78-3.57,.89-1.13-.22-2.19-1.38-2.09-2.84m1.57,0c.02,.29,.18,1.11,.88,1.11l3.81-1.05h9.41c1.19,.51,2.4,.84,3.68,1.11,.59-.06,.97-.44,1-1.21"/>
      <g>
        <g>
          <path class="cls-30" d="M179.86,205.34l1.14,1.32c-.43,.33-.81,.9-.36,1.47l3.72,2.49,4.22,4.96-1.71,1.36-4.62-5.43c-1.17-.72-2.36-1.42-3.32-2.36-.83-.97-.41-2.71,.94-3.82Z"/>
          <g>
            <path class="cls-3" d="M186.92,217.1l-4.67-5.46c-1.17-.72-2.36-1.42-3.32-2.36-.83-.97-.39-2.73,.96-3.83m1.16,1.32c-.43,.33-.84,.91-.4,1.48l3.68,2.52,4.37,5.11"/>
            <path class="cls-1" d="M186.91,216.98l-4.67-5.46c-1.17-.72-2.36-1.42-3.32-2.36-.83-.97-.39-2.73,.96-3.83m1.16,1.32c-.43,.33-.84,.91-.4,1.48l3.68,2.52,4.37,5.11"/>
          </g>
        </g>
        <path class="cls-25" d="M225,196.44c-3.99,0-7.23,3.24-7.23,7.23s3.24,7.23,7.23,7.23,7.23-3.24,7.23-7.23-3.24-7.23-7.23-7.23Zm0,1.73c3.04,0,5.5,2.47,5.5,5.51s-2.46,5.5-5.5,5.5-5.5-2.46-5.5-5.5,2.46-5.51,5.5-5.51Z"/>
        <g>
          <g>
            <path class="cls-30" d="M224.99,207.26v1.73c.51-.02,1.12,.17,1.16,.9l-1.16,4.27v6.48l2.07-.05v-7.09c.4-1.3,.83-2.59,.95-3.92,0-1.27-1.37-2.33-3.02-2.32Z"/>
            <path class="cls-3" d="M227.04,220.66l.02-7.15c.4-1.3,.83-2.59,.95-3.92,0-1.27-1.39-2.33-3.04-2.32m-.02,1.75c.52-.02,1.17,.16,1.2,.88l-1.11,4.27-.02,6.68"/>
          </g>
          <path class="cls-30" d="M210.44,203.46h4.62c1.19-.51,2.42-.9,3.7-1.16,.59,.06,.97,.39,1,1.16h1.27c.07-.62-.03-1.21-.15-1.79-.32-.7-.82-.94-1.35-1.21-.55-.21-1.04-.09-1.53,0l-3.13,1.07-4.47-.02s.04,1.94,.04,1.94Z"/>
          <path class="cls-30" d="M190.93,310.83l4.94,2.11c1.48,.04,2.96,.22,4.44,.54,.6,.33,.87,.83,.59,1.61l1.36,.58c.34-.58,.47-1.2,.59-1.84-.05-.83-.48-1.3-.94-1.81-.5-.46-1.08-.56-1.63-.69l-3.79-.38-4.78-2.06-.77,1.93h0Z"/>
        </g>
      </g>
      <path class="cls-3" d="M202.3,315.45c.32-.55,.44-1.17,.56-1.77-.05-.79-.47-1.25-.92-1.73-.48-.44-1.04-.54-1.58-.67l-3.66-.38-4.62-1.98m-.73,1.78l4.8,2.06c1.43,.05,2.83,.24,4.26,.56,.58,.32,.83,.81,.56,1.55"/>
      <g>
        <path class="cls-30" d="M210.31,319l4.72,2.02c1.41,.04,2.83,.21,4.24,.52,.58,.32,.83,.79,.56,1.53l1.3,.55c.32-.55,.44-1.14,.56-1.75-.05-.79-.46-1.24-.9-1.72-.47-.44-1.03-.54-1.56-.66l-3.62-.36-4.56-1.97-.74,1.83h0Z"/>
        <path class="cls-3" d="M221.12,323.64c.32-.55,.45-1.17,.56-1.77-.05-.79-.46-1.24-.9-1.72-.47-.44-1.03-.54-1.56-.66l-3.62-.36-4.56-1.96m-.73,1.79l4.74,2.04c1.41,.04,2.81,.23,4.22,.54,.58,.32,.82,.81,.55,1.54"/>
      </g>
      <path class="cls-30" d="M179.98,305.87l1.61,.69c-.1,.28-.26,1.12,.46,1.43l4.36,.62,9.63,4.1c1.02,1,2.13,1.91,3.34,2.72,.63,.2,1.17,.06,1.52-.65l1.31,.56c-.18,.62-.54,1.11-.89,1.62-.61,.52-1.23,.53-1.88,.54-.65-.04-1.11-.37-1.57-.68l-2.79-2.38-1.01-.41-9.05-3.86c-1.36-.16-2.74-.3-4.02-.72-1.08-.7-1.7-2.26-1.01-3.59h0Z"/>
      <path class="cls-3" d="M202.32,315.32c-.18,.63-.54,1.13-.9,1.65-.61,.53-1.23,.54-1.89,.55-.65-.04-1.11-.38-1.57-.69l-2.8-2.43-1.02-.42-9.09-3.93c-1.37-.16-2.75-.3-4.04-.74-1.08-.71-1.71-2.3-1.01-3.66m1.62,.7c-.1,.29-.26,1.14,.46,1.46l4.35,.69,9.7,4.2c1.02,1.02,2.13,1.87,3.35,2.7,.64,.2,1.18,.07,1.52-.66"/>
      <path class="cls-30" d="M199.08,314.2l1.6,.7c.17-.46,.58-.93,1.27-.67l3.53,2.71,6.01,2.57,.73-1.84-6.58-2.81c-1.05-.87-2.09-1.76-3.28-2.39-1.18-.51-2.68,.28-3.28,1.73h0Z"/>
      <path class="cls-3" d="M212.27,317.7l-6.63-2.85c-1.05-.87-2.09-1.76-3.28-2.39-1.18-.51-2.68,.3-3.29,1.76m1.61,.71c.17-.46,.58-.96,1.27-.71l3.54,2.66,6.2,2.66"/>
      <path class="cls-30" d="M259.32,311.02l-5.05,2.12c-1.51,.04-3.03,.22-4.54,.55-.62,.34-.89,.84-.6,1.61l-1.39,.58c-.34-.58-.48-1.21-.6-1.84,.05-.84,.49-1.31,.96-1.82,.51-.46,1.1-.57,1.67-.69l3.87-.38,4.88-2.07,.79,1.94h0Z"/>
      <path class="cls-3" d="M247.71,315.66c-.33-.55-.45-1.18-.57-1.78,.05-.8,.48-1.25,.94-1.74,.49-.44,1.06-.54,1.61-.67l3.73-.38,4.71-1.99m.75,1.79l-4.9,2.07c-1.46,.05-2.89,.24-4.35,.56-.6,.32-.85,.82-.57,1.56"/>
      <g>
        <path class="cls-30" d="M239.69,319.22l-4.72,2.02c-1.41,.04-2.83,.21-4.24,.52-.58,.32-.83,.79-.56,1.53l-1.3,.55c-.32-.55-.44-1.14-.56-1.75,.05-.79,.46-1.24,.9-1.72,.47-.44,1.03-.54,1.56-.66l3.62-.36,4.56-1.97,.74,1.83h0Z"/>
        <path class="cls-3" d="M228.88,323.87c-.32-.55-.45-1.17-.56-1.77,.05-.79,.46-1.24,.9-1.72,.47-.44,1.03-.54,1.56-.66l3.62-.36,4.56-1.96m.73,1.79l-4.74,2.04c-1.41,.04-2.81,.23-4.22,.54-.58,.32-.82,.81-.55,1.54"/>
      </g>
      <path class="cls-30" d="M270.32,306.11l-1.63,.69c.1,.28,.26,1.12-.46,1.43l-4.41,.62-9.75,4.1c-1.03,1-2.15,1.91-3.38,2.72-.64,.2-1.19,.06-1.53-.65l-1.33,.55c.18,.62,.55,1.11,.91,1.61,.62,.52,1.24,.53,1.9,.54,.66-.04,1.12-.37,1.59-.68l2.83-2.38,1.02-.41,9.16-3.85c1.38-.16,2.77-.3,4.08-.72,1.09-.7,1.72-2.25,1.02-3.58h0Z"/>
      <path class="cls-3" d="M247.69,315.59c.18,.62,.55,1.11,.91,1.61,.62,.52,1.24,.53,1.9,.54,.66-.04,1.12-.37,1.59-.68l2.83-2.38,1.02-.41,9.16-3.85c1.38-.16,2.77-.3,4.08-.72,1.09-.7,1.72-2.25,1.02-3.58m-1.63,.69c.1,.28,.26,1.12-.46,1.43l-4.39,.67-9.78,4.12c-1.03,1-2.15,1.84-3.38,2.65-.64,.2-1.19,.06-1.53-.65"/>
      <path class="cls-30" d="M250.92,314.42l-1.6,.7c-.17-.46-.58-.93-1.27-.67l-3.53,2.71-6.01,2.57-.73-1.84,6.58-2.81c1.05-.87,2.09-1.76,3.28-2.39,1.18-.51,2.68,.28,3.28,1.73h0Z"/>
      <path class="cls-3" d="M237.73,317.93l6.63-2.85c1.05-.87,2.09-1.76,3.28-2.39,1.18-.51,2.68,.3,3.29,1.76m-1.61,.71c-.17-.46-.58-.96-1.27-.71l-3.54,2.66-6.2,2.66"/>
      <g>
        <g>
          <path class="cls-30" d="M220.34,260.99l-1.06,1.1c.39,.35,.72,.89,.31,1.38l-3.43,1.92-3.92,4.13,1.54,1.4,4.29-4.52c1.08-.55,2.17-1.07,3.06-1.84,.77-.8,.41-2.43-.8-3.57Z"/>
          <g>
            <path class="cls-3" d="M213.73,271.06l4.34-4.54c1.08-.55,2.17-1.07,3.06-1.84,.77-.8,.4-2.45-.81-3.59m-1.07,1.1c.39,.35,.75,.91,.34,1.39l-3.39,1.95-4.06,4.25"/>
            <path class="cls-1" d="M213.74,270.94l4.34-4.54c1.08-.55,2.17-1.07,3.06-1.84,.77-.8,.4-2.45-.81-3.59m-1.07,1.1c.39,.35,.75,.91,.34,1.39l-3.39,1.95-4.06,4.25"/>
          </g>
        </g>
        <g>
          <path class="cls-30" d="M176.38,240.92v5.41c.54,1.39,.96,2.83,1.25,4.33-.07,.69-.42,1.14-1.25,1.17v1.48c.67,.08,1.29-.04,1.92-.18,.75-.37,1.01-.96,1.29-1.58,.23-.64,.09-1.22,0-1.78l-1.15-3.66,.02-5.23-2.08,.04h0Z"/>
          <path class="cls-3" d="M176.35,253.32c.67,.08,1.32-.05,1.95-.19,.75-.37,1.01-.96,1.29-1.58,.23-.64,.09-1.22,0-1.78l-1.15-3.66v-5.23m-2.02,.02v5.44c.53,1.39,.93,2.81,1.21,4.31-.07,.69-.44,1.13-1.27,1.17"/>
        </g>
        <g>
          <path class="cls-30" d="M176.51,261.34v1.4c-.5-.02-1.11,.14-1.14,.73l1.14,3.46v5.26l-2.05-.04v-5.75c-.4-1.05-.82-2.1-.94-3.18,0-1.03,1.36-1.89,2.99-1.88Z"/>
          <path class="cls-3" d="M174.48,272.2l-.02-5.8c-.4-1.05-.82-2.1-.94-3.18,0-1.03,1.38-1.89,3.02-1.88m.02,1.42c-.51-.02-1.16,.13-1.19,.71l1.1,3.46,.02,5.42"/>
        </g>
        <path class="cls-30" d="M176.48,278.28v1.62c.31,.02,1.16,.19,1.17,.91l-1.17,3.92v9.64c.53,1.22,.95,2.49,1.23,3.81-.07,.61-.41,1.02-1.22,1.05v1.31c.65,.07,1.27-.05,1.89-.17,.74-.33,.99-.85,1.27-1.4,.22-.56,.09-1.07,0-1.57l-1.13-3.23,.02-1v-9.07c.4-1.21,.82-2.43,.94-3.67-.23-1.17-1.45-2.26-2.99-2.15h0Z"/>
        <path class="cls-3" d="M176.4,300.56c.66,.07,1.36-.08,1.97-.2,.74-.33,.99-.85,1.27-1.4,.22-.57,.09-1.08,0-1.58l-1.13-3.24,.02-1.01v-9.09c.4-1.22,.82-2.43,.94-3.68-.23-1.17-1.45-2.26-2.99-2.16m0,1.62c.31,.02,1.16,.19,1.17,.91l-1.11,3.93v9.71c.54,1.23,.89,2.47,1.17,3.8-.07,.61-.48,1-1.29,1.03"/>
        <g>
          <path class="cls-30" d="M195.68,287.03l-1.11,1.15c-.25-.22-1.04-.72-1.54-.21l-1.77,3.65-6.61,6.87c-1.26,.48-2.45,1.08-3.57,1.82-.36,.48-.37,1.03,.24,1.65l-.9,.94c-.56-.43-.96-.97-1.36-1.51-.35-.77-.2-1.33-.04-1.93,.21-.56,.66-.83,1.08-1.11l3.09-1.47,.67-.73,6.21-6.45c.52-1.16,1.02-2.33,1.78-3.3,.98-.66,2.68-.54,3.81,.66h0Z"/>
          <path class="cls-3" d="M180.48,302.95c-.56-.43-1.01-1.05-1.41-1.59-.35-.77-.2-1.33-.04-1.93,.21-.56,.66-.83,1.08-1.11l3.09-1.47,.67-.73,6.21-6.45c.52-1.16,1.02-2.33,1.78-3.3,.98-.66,2.68-.54,3.81,.66m-1.11,1.15c-.25-.22-1.04-.72-1.54-.21l-1.82,3.6-6.63,6.89c-1.26,.48-2.38,1.11-3.5,1.84-.36,.48-.31,1.06,.3,1.68"/>
        </g>
        <g>
          <path class="cls-30" d="M176.55,207.15v1.77c-.32,.02-1.18,.21-1.19,.99l1.19,4.3v10.58c-.54,1.34-.96,2.74-1.25,4.19,.07,.67,.42,1.12,1.24,1.15v1.44c-.66,.08-1.29-.06-1.92-.19-.75-.36-1.01-.93-1.29-1.53-.23-.62-.09-1.18,0-1.73l1.15-3.54-.02-1.1v-9.95c-.4-1.33-.84-2.66-.96-4.03,.23-1.28,1.47-2.48,3.04-2.36h0Z"/>
          <path class="cls-3" d="M176.58,231.69c-.67,.08-1.29-.06-1.92-.19-.75-.36-1.01-.93-1.29-1.53-.23-.62-.09-1.18,0-1.73l1.15-3.54-.02-1.1v-9.95c-.4-1.33-.84-2.66-.96-4.03,.23-1.28,1.47-2.48,3.04-2.36m0,1.77c-.32,.02-1.18,.21-1.19,.99l1.13,4.3v10.62c-.55,1.34-.9,2.7-1.18,4.15,.07,.67,.42,1.12,1.24,1.15"/>
        </g>
        <g>
          <path class="cls-30" d="M254.32,287.03l1.1,1.15c.25-.22,1.03-.72,1.52-.21l1.76,3.66,6.56,6.88c1.25,.48,2.43,1.08,3.55,1.82,.36,.48,.37,1.03-.24,1.65l.89,.94c.56-.43,.95-.97,1.35-1.51,.35-.78,.19-1.34,.04-1.93-.21-.57-.66-.83-1.08-1.12l-3.07-1.47-.67-.73-6.17-6.47c-.52-1.16-1.01-2.34-1.77-3.31-.97-.66-2.66-.55-3.78,.66h0Z"/>
          <path class="cls-3" d="M269.42,302.99c.56-.43,1-1.05,1.4-1.59,.35-.78,.19-1.34,.04-1.93-.21-.57-.66-.83-1.08-1.12l-3.07-1.47-.67-.73-6.17-6.47c-.52-1.16-1.01-2.34-1.77-3.31-.97-.66-2.66-.55-3.78,.66m1.1,1.15c.25-.22,1.03-.72,1.52-.21l1.8,3.61,6.59,6.9c1.25,.48,2.36,1.11,3.48,1.85,.36,.48,.31,1.06-.3,1.68"/>
        </g>
      </g>
      <g>
        <path class="cls-3" d="M221.08,203.49c.07-.62-.04-1.23-.16-1.82-.32-.7-.83-.94-1.36-1.21-.55-.21-1.04-.09-1.53,0l-3.14,1.07h-4.49m.02,1.89h4.67c1.19-.49,2.42-.87,3.7-1.13,.59,.06,.97,.41,1,1.18"/>
        <g>
          <path class="cls-30" d="M239.56,203.81h-4.57c-1.17-.51-2.39-.9-3.65-1.16-.58,.06-.96,.39-.99,1.16h-1.25c-.07-.62,.03-1.21,.15-1.79,.32-.7,.81-.94,1.34-1.21,.54-.21,1.03-.09,1.51,0l3.09,1.07,4.42-.02-.04,1.94h0Z"/>
          <path class="cls-3" d="M229.06,203.96c-.07-.62,.04-1.23,.16-1.82,.32-.7,.81-.94,1.34-1.21,.54-.21,1.03-.09,1.51,0l3.09,1.07h4.42m-.02,1.89h-4.59c-1.17-.49-2.38-.87-3.64-1.13-.58,.06-.95,.41-.98,1.18"/>
        </g>
      </g>
    </g>
  </g>
</svg>