<?xml version="1.0" encoding="utf-8"?>
<!-- Generator: Adobe Illustrator 27.0.0, SVG Export Plug-In . SVG Version: 6.00 Build 0)  -->
<svg version="1.1" id="Layer_1" xmlns="http://www.w3.org/2000/svg" xmlns:xlink="http://www.w3.org/1999/xlink" x="0px" y="0px"
	 viewBox="0 0 450 450" style="enable-background:new 0 0 450 450;" xml:space="preserve">
<style type="text/css">
	.st0{fill:#D42E27;}
	.st1{fill:#059B49;}
	.st2{fill:#FFFFFF;}
</style>
<path class="st0" d="M0,0v450h450V0H0z"/>
<polygon class="st1" points="450,0 389.4,0 226.4,162.9 63.3,0 0.1,0 0,0.1 0,58.3 165.5,223.7 0,389.1 0,447.2 2.8,450 60.7,450 
	226.4,284.5 392,450 450,450 450,450 450,386.3 287.2,223.7 450,61 "/>
<polygon class="st2" points="450,180.8 269.4,180.8 269.4,0 183.4,0 183.4,180.8 1.3,180.8 1.3,266.8 183.4,266.8 183.4,448.7 
	269.4,448.7 269.4,266.8 450,266.8 "/>
</svg>
