<svg xmlns="http://www.w3.org/2000/svg" id="flag-icons-es-vc" viewBox="0 0 900 900">
	<rect fill="#0072bc" width="400" height="900" x="0" y="0" />
	<rect fill="#fcdd09" width="500" height="900" x="400" y="0" />
	<rect fill="#da121a" width="500" height="100" x="400" y="100" />
	<rect fill="#da121a" width="500" height="100" x="400" y="300" />
	<rect fill="#da121a" width="500" height="100" x="400" y="500" />
	<rect fill="#da121a" width="500" height="100" x="400" y="700" />
	<rect fill="#da121a" width="100" height="900" x="350" y="0" />
	<g id="florons">
		<path fill="#fcdd09" stroke="#000" d="m205.4 820.6c0 0-40.7 90.5-59 47.1 0 0 5.3 2.1 9.3-2 3.5-3.6 3.1-7-1-12.1-4.5-5.5-17.3-3.1-19.9 3.4-5.8 14.8 7.9 34.5 20.6 33.6 33.1-2.3 36.8-37.9 58.8-68.3 1.4-1.9-8.8-1.7-8.8-1.7z" />
		<path fill="#fcdd09" stroke="#000" d="m206.1 716.3c0 0-40.8-90.5-59-47.1 0 0 5.3-2.1 9.2 2 3.6 3.6 3.2 7-1 12.1-4.4 5.4-17.3 3-19.8-3.4-5.9-14.9 7.9-34.5 20.5-33.6 33.1 2.2 36.9 37.9 58.9 68.3 1.3 1.8-8.8 1.7-8.8 1.7z" />
		<path fill="#fcdd09" stroke="#000" d="m343.2 737.6c-5.9 11.3-53.9 29.6-53.9 29.6 0 0 46.9 17.8 53.3 29.8l0.6 17.6c-23.9-32.6-47.6-35.6-66-36.6-13.1-0.7-11.9 7-9.5 10 21.4 27.4-6.2 35.2-10.5 57.8-0.2 1.2-3.4-3.8-4.4-10.4-0.7-4.3 0.6-10.7 0.6-10.7-9.5 16-21.6 3.2-29 19 0 0-1.5-2.5-2.3-3.2-2.1-2-8.9-1-9.9-19-0.1-0.6-7.8 1.4-7.8 1.4 4.3-14.8 42.1-31.4 32.3-41-11.2-11-12 23.3-29.4 25.6-1 0.1 2.6-9.9 2.6-9.9-8.2 0.4-11.8 9.9-12.7 15.5l-1.9-5.2c-7.9-4.4 1.9-26.7-1.7-30.6-2.8-2.9-12.1 9.3-16.2 11.3-4 2-26.8 2-15.6 15.9 0.9 1.1-2.3-6.2 3-7.2 5.8-1.1 5.6 5.8 5.6 6.5-0.1 2.8-5.2 9.8-13.3 5.8-0.5-0.2-15.7-11.2 4.1-27 0 0-12.1 7.4-24.9-5.9-2.7-2.8-6.4-6.4-10.8-9.2 4.4-2.8 7.7-6.1 10.4-9 12.7-13.3 24.8-6 24.8-6-19.8-15.6-4.7-26.7-4.2-27 8.1-3.9 13.3 3 13.3 5.9 0 0.6 0.3 7.5-5.6 6.4-5.2-0.9-2.1-8.3-3-7.1-11.1 13.9 11.7 13.8 15.7 15.8 4.1 2 13.5 14.2 16.2 11.2 3.6-3.8-6.3-26.1 1.6-30.6l1.9-5.1c1 5.5 4.6 15 12.7 15.4 0 0-3.6-10-2.6-9.9 17.4 2.3 18.4 36.5 29.5 25.5 9.8-9.7-28.1-26.1-32.5-40.9 0 0 7.8 2 7.8 1.4 1-18 7.8-17 9.9-19 0.8-0.8 2.3-3.3 2.3-3.3 7.5 15.8 19.5 3 29.1 18.9 0 0-1.4-6.4-0.7-10.7 1-6.6 4.2-11.5 4.4-10.4 4.3 22.6 32 30.3 10.7 57.7-2.4 3.1-3.6 10.8 9.5 10 18.4-1 42.1-4.1 65.9-36.8z" />
		<path fill="none" stroke="#000" fill-rule="evenodd" d="m195.3 807.9c2.6-22.1 21.2-29.3 20.8-40.1-0.5-10.9-19.3-22.2-21.4-40.7m26.5 90.8c-3.3 6.4-4.2 13.5 0 22.2zm31-50.2c-1.1-20.9-23-33.6-31.2-49.5l0.2 99.7c8.3-16 32.1-27.6 31-50.2zm-31.2-49.5v-23.2c-4.5 8.9-3.5 16.4 0 23.2zm67.8 49.2h-163.2" />
		<path fill="#fcdd09" stroke="#000" d="m273.9 598.4c-5.2-14.3-20.3-18.2-28.8-18.5-9.7-0.3-24.7 12.8-33.9 18.5-8.1 5.1-23-1.6-25.3-7.3-5.3-12.9 3-15.4 6.9-14.6 0 0-4.8 9.3 3.2 8.1 5.1-0.8 6.4-8.3 5.5-11.4-1.6-6-10.1-5.3-13.5-4.3-11 3.3-9.1 18.6-5.5 24.5 5.5 8.8 19.1 10.1 27.7 8.8 13.1-1.9 23.9-15.5 31.7-15.1 2.1 0.1 4.2 7.3 2.2 7.6-13.3 2.5-11.5 11.9-11.5 11.9v0.1c0 0-1.8 9.4 11.5 11.8 2 0.4-0.6 7.7-2.7 7.8-7.8 0.4-18.1-13.4-31.2-15.3-8.6-1.3-22.2 0.1-27.7 8.8-3.6 5.9-5.5 21.3 5.5 24.5 3.4 1 11.9 1.7 13.5-4.3 0.9-3-0.4-10.6-5.5-11.3-8.1-1.2-3.2 8-3.2 8-3.9 0.8-12.2-1.7-6.9-14.5 2.3-5.8 17.1-12.5 25.3-7.4 9.2 5.7 24.2 18.9 33.9 18.5 8.5-0.3 23.6-4.1 28.8-18.5v-16.4q0 0 0 0z" />
		<path fill="#fcdd09" stroke="#000" d="m340.3 589c-1.9 9.5-25.6 17.7-25.6 17.7 0 0 23.4 12.1 26.7 22.1l-0.6 11.5c-7.5-25.9-36.6-27.9-36.6-27.9 6.1 8.8 11.6 20.9-3.3 32.9 0 0 4.4-11.1 2.2-13.8 0 0-2 7-10.4 13.4-3.5 2.7-12.8 2.3-17 4.8l3.6-11.4c-4.4 9.3-16.9 10.5-16.9 10.5-0.7-3.1-0.3-10.8 3.5-16.7 7.3-11.1 5.5-19 5.5-19-6.2 13.8-30.7 15.1-35.4 11.6-0.6-0.5 5.5-6.5 5.5-6.5-2.2 0.4-8.3-4-8.2-5.3 0.2-1.7 4.3-5.6 5-6.7 0 0-4.7-3.8-4.8-5.6-0.2-1.2 6-5.6 8.2-5.2 0 0-6.1-6.1-5.5-6.5 4.6-3.5 29.1-2.3 35.4 11.6 0 0 1.8-7.9-5.5-19-3.9-5.9-4.2-13.6-3.5-16.8 0 0 12.5 1.3 16.9 10.5l-3.6-11.3c4.2 2.5 13.5 2 17 4.7 8.3 6.5 10.3 13.5 10.3 13.5 2.3-2.7-2.1-13.9-2.1-13.9 14.9 12 9.4 24.2 3.3 32.9 0 0 29.1-2 36.6-27.9z" />
		<path fill="#fcdd09" stroke="#000" d="m202.4 609.7c-8 0.3-19 5.9-28.9 4.5-7.2-1.1-20.1-9.6-20.1-9.6 0 0 13-6.8 19.5-8.3 10.6-2.4 21.2 6.8 29.2 7 1.6 0.1 1.9 6.4 0.3 6.4z" />
		<path fill="#fcdd09" stroke="#000" d="m202.6 593.6c4.5-1 3.6 12.7 3.6 12.7 0 1.9 0.5 12-3.6 12.9-4.7-0.6-3.5-13-3.5-13 0 0-0.5-12.8 3.5-12.6z" />
		<path fill="#fcdd09" stroke="#000" d="m232.5 606.1l82.8 0.6m-36.6 33l11.9-33.2m0 0l-11.6-32.6" />
		<path fill="#fcdd09" stroke="#000" d="m206.1 499.2c0 0-40.8 90.6-59 47.2 0 0 5.3 2 9.2-2 3.6-3.7 3.2-7.1-1-12.2-4.4-5.4-17.3-3-19.8 3.5-5.9 14.8 7.9 34.4 20.5 33.6 33.1-2.3 36.9-37.9 58.9-68.4 1.3-1.8-8.8-1.7-8.8-1.7z" />
		<path fill="#fcdd09" stroke="#000" d="m206.8 394.9c0 0.1-40.8-90.5-59-47.1 0 0 5.2-2 9.2 2 3.5 3.7 3.2 7.1-1 12.2-4.5 5.4-17.3 3-19.9-3.5-5.8-14.8 7.9-34.4 20.6-33.6 33.1 2.3 36.8 37.9 58.9 68.4 1.3 1.8-8.8 1.7-8.8 1.7z" />
		<path fill="#fcdd09" stroke="#000" d="m343.8 416.2c-5.9 11.4-53.8 29.7-53.8 29.7 0 0 46.9 17.8 53.2 29.8l0.6 17.5c-23.9-32.5-47.5-35.5-66-36.5-13.1-0.7-11.8 6.9-9.4 10 21.4 27.4-6.3 35.1-10.5 57.8-0.2 1.1-3.4-3.9-4.5-10.4-0.7-4.3 0.7-10.7 0.7-10.7-9.5 15.9-21.6 3.2-29 19 0 0-1.5-2.5-2.3-3.2-2.1-2.1-9-1-10-19 0-0.6-7.8 1.4-7.8 1.4 4.3-14.9 42.2-31.4 32.3-41.1-11.1-10.9-12 23.3-29.4 25.7-1 0.1 2.6-9.9 2.6-9.9-8.1 0.4-11.7 9.9-12.6 15.4l-2-5.1c-7.8-4.5 1.9-26.8-1.6-30.6-2.8-3-12.1 9.3-16.2 11.3-4 1.9-26.8 1.9-15.7 15.9 0.9 1.1-2.2-6.2 3-7.2 5.9-1.1 5.7 5.8 5.6 6.4 0 2.9-5.2 9.8-13.3 5.9-0.4-0.2-15.6-11.3 4.2-27 0 0-12.1 7.4-24.9-5.9-2.7-2.9-6.4-6.5-10.8-9.2 4.4-2.8 7.6-6.2 10.3-9 12.7-13.4 24.9-6 24.9-6-19.9-15.7-4.7-26.8-4.3-27 8.1-4 13.3 3 13.4 5.8 0 0.7 0.2 7.5-5.6 6.5-5.3-1-2.1-8.3-3-7.2-11.1 14 11.7 13.9 15.7 15.9 4.1 1.9 13.4 14.2 16.2 11.2 3.6-3.8-6.3-26.1 1.6-30.6l1.9-5.2c0.9 5.6 4.6 15 12.7 15.5 0 0-3.6-10.1-2.6-9.9 17.4 2.2 18.4 36.4 29.4 25.5 9.9-9.7-28-26.1-32.4-41 0 0 7.8 2.1 7.8 1.4 0.9-18 7.8-17 9.9-19 0.8-0.7 2.3-3.2 2.3-3.2 7.4 15.7 19.5 3 29 18.8 0 0-1.3-6.3-0.7-10.6 1.1-6.6 4.2-11.6 4.5-10.4 4.3 22.6 32 30.3 10.6 57.7-2.3 3.1-3.5 10.7 9.6 10 18.4-1.1 42.1-4.1 65.8-36.8z" />
		<path fill="none" stroke="#000" fill-rule="evenodd" d="m195.9 486.6c2.6-22.2 21.3-29.4 20.8-40.2-0.4-10.8-19.2-22.1-21.3-40.6m26.4 90.8c-3.3 6.4-4.1 13.4 0.1 22.1zm30.9-50.1c-1-20.9-22.9-33.7-31.1-49.5l0.2 99.6c8.3-15.9 32.1-27.6 30.9-50.1zm-31.1-49.5l-0.1-23.2c-4.4 8.9-3.5 16.3 0.1 23.2zm67.8 49.2h-163.3" />
		<path fill="#fcdd09" stroke="#000" d="m204.8 181.2c0 0-40.8 90.6-59 47.2 0 0 5.2 2 9.2-2 3.6-3.7 3.2-7.1-1-12.2-4.5-5.4-17.3-3-19.9 3.5-5.8 14.8 8 34.4 20.6 33.6 33.1-2.3 36.8-37.9 58.9-68.4 1.3-1.8-8.8-1.7-8.8-1.7z" />
		<path fill="#fcdd09" stroke="#000" d="m205.4 77c0 0-40.7-90.6-59-47.2 0 0 5.3-2 9.3 2 3.5 3.7 3.1 7.1-1 12.2-4.5 5.4-17.3 3-19.9-3.5-5.8-14.8 7.9-34.4 20.6-33.6 33.1 2.3 36.8 37.9 58.8 68.4 1.4 1.8-8.8 1.7-8.8 1.7z" />
		<path fill="#fcdd09" stroke="#000" d="m342.5 98.2c-5.9 11.4-53.8 29.7-53.8 29.7 0 0 46.9 17.8 53.2 29.8l0.6 17.5c-23.9-32.5-47.5-35.5-66-36.5-13.1-0.7-11.9 6.9-9.5 10 21.4 27.4-6.2 35.1-10.5 57.8-0.2 1.1-3.4-3.9-4.4-10.4-0.7-4.3 0.7-10.7 0.7-10.7-9.6 15.9-21.7 3.2-29 19 0 0-1.6-2.5-2.4-3.2-2.1-2.1-8.9-1-9.9-19 0-0.6-7.8 1.4-7.8 1.4 4.3-14.9 42.1-31.4 32.3-41.1-11.1-10.9-12 23.3-29.4 25.7-1 0.1 2.6-9.9 2.6-9.9-8.1 0.4-11.7 9.9-12.7 15.4l-1.9-5.1c-7.9-4.5 1.9-26.8-1.7-30.6-2.8-3-12.1 9.3-16.1 11.3-4 2-26.8 2-15.7 15.9 0.9 1.1-2.3-6.3 3-7.2 5.8-1.1 5.6 5.8 5.6 6.4 0 2.9-5.2 9.8-13.3 5.9-0.5-0.2-15.7-11.3 4.1-27 0 0-12.1 7.4-24.8-5.9-2.8-2.9-6.4-6.5-10.8-9.2 4.4-2.8 7.6-6.1 10.3-9 12.7-13.4 24.9-6 24.9-6-19.9-15.7-4.8-26.8-4.3-27 8.1-4 13.3 3 13.4 5.8 0 0.7 0.2 7.5-5.6 6.5-5.3-1-2.2-8.3-3-7.2-11.2 14 11.6 13.9 15.7 15.9 4 1.9 13.4 14.2 16.2 11.2 3.5-3.8-6.3-26.1 1.5-30.6l1.9-5.2c1 5.6 4.6 15 12.8 15.5 0 0-3.7-10.1-2.7-9.9 17.4 2.2 18.4 36.4 29.5 25.5 9.8-9.7-28.1-26.1-32.4-41 0 0 7.7 2.1 7.8 1.4 0.9-18 7.7-17 9.8-19 0.8-0.7 2.3-3.2 2.3-3.2 7.5 15.7 19.5 3 29.1 18.8 0 0-1.3-6.3-0.7-10.6 1-6.6 4.2-11.6 4.4-10.4 4.4 22.6 32 30.3 10.7 57.7-2.4 3.1-3.6 10.8 9.5 10 18.5-1.1 42.1-4.1 65.9-36.8z" />
		<path fill="none" stroke="#000" fill-rule="evenodd" d="m194.6 168.6c2.6-22.2 21.2-29.4 20.8-40.2-0.4-10.8-19.2-22.1-21.4-40.6m26.5 90.8c-3.3 6.4-4.1 13.4 0 22.1zm31-50.1c-1-20.9-23-33.7-31.1-49.5l0.1 99.6c8.3-15.9 32.1-27.6 31-50.1zm-31.1-49.5l-0.1-23.2c-4.5 8.9-3.5 16.3 0.1 23.2zm67.8 49.2h-163.3" />
		<path fill="#fcdd09" stroke="#000" d="m273.2 279.1c-5.1-14.4-20.2-18.2-28.8-18.5-9.6-0.4-24.7 12.8-33.9 18.5-8.1 5-22.9-1.6-25.3-7.4-5.2-12.8 3-15.3 6.9-14.5 0 0-4.8 9.2 3.3 8 5.1-0.7 6.3-8.3 5.5-11.3-1.7-6-10.1-5.3-13.5-4.3-11 3.2-9.2 18.6-5.5 24.5 5.4 8.7 19 10.1 27.7 8.8 13-1.9 23.8-15.5 31.6-15.2 2.1 0.1 4.2 7.3 2.2 7.7-13.3 2.4-11.5 11.8-11.5 11.8v0.2c0 0-1.8 9.3 11.5 11.8 2 0.3-0.6 7.7-2.7 7.8-7.8 0.3-18.1-13.4-31.1-15.3-8.7-1.3-22.3 0.1-27.7 8.8-3.7 5.9-5.5 21.3 5.5 24.5 3.4 1 11.8 1.7 13.5-4.3 0.8-3.1-0.4-10.6-5.5-11.4-8.1-1.1-3.3 8.1-3.3 8.1-3.9 0.8-12.1-1.7-6.9-14.6 2.4-5.7 17.2-12.4 25.3-7.3 9.2 5.7 24.3 18.8 33.9 18.5 8.6-0.3 23.7-4.2 28.8-18.5z" />
		<path fill="#fcdd09" stroke="#000" d="m339.6 269.7c-1.9 9.5-25.5 17.6-25.5 17.6 0 0 23.3 12.2 26.7 22.2l-0.6 11.5c-7.5-25.9-36.7-27.9-36.7-27.9 6.2 8.8 11.7 20.9-3.2 32.9 0 0 4.3-11.2 2.1-13.9 0 0-2 7-10.4 13.5-3.5 2.7-12.7 2.3-17 4.8l3.6-11.4c-4.3 9.2-16.8 10.5-16.8 10.5-0.8-3.2-0.4-10.9 3.5-16.8 7.2-11.1 5.5-19 5.5-19-6.3 13.9-30.8 15.2-35.4 11.7-0.6-0.5 5.5-6.5 5.5-6.5-2.3 0.3-8.4-4-8.3-5.3 0.2-1.8 4.3-5.6 5-6.7 0 0-4.6-3.9-4.8-5.6-0.1-1.3 6-5.6 8.2-5.3 0 0-6.1-6-5.5-6.5 4.7-3.5 29.2-2.2 35.4 11.7 0 0 1.8-7.9-5.5-19.1-3.8-5.9-4.2-13.5-3.5-16.7 0 0 12.5 1.3 16.9 10.5l-3.6-11.4c4.2 2.5 13.5 2.1 17 4.8 8.4 6.5 10.4 13.5 10.4 13.5 2.2-2.7-2.2-13.9-2.2-13.9 14.9 12 9.4 24.1 3.3 32.9 0 0 29.1-2 36.6-27.9z" />
		<path fill="#fcdd09" stroke="#000" d="m201.7 290.4c-8 0.3-19 5.9-28.9 4.4-7.2-1.1-20.1-9.6-20.1-9.6 0 0 13-6.7 19.5-8.2 10.6-2.4 21.3 6.8 29.3 7 1.6 0 1.8 6.4 0.2 6.4z" />
		<path fill="#fcdd09" stroke="#000" d="m201.9 274.2c4.5-1 3.6 12.8 3.6 12.8 0 1.9 0.6 12-3.6 12.8-4.7-0.6-3.4-12.9-3.4-12.9 0 0-0.5-12.8 3.4-12.7z" />
		<path fill="#fcdd09" stroke="#000" d="m231.8 286.8l82.8 0.6m-36.5 32.9l11.8-33.1m0 0l-11.6-32.6" />
		<path fill="#fcdd09" stroke="#000" d="m342.1 702.5c-8.1-22-37.9-19.6-37.9-19.6 0 0 29.6 0.2 37.1-25.7z" />
		<path fill="#fcdd09" stroke="#000" d="m342.1 834.5c-8.1 22-37.9 19.6-37.9 19.6 0 0 29.6-0.2 37.1 25.6z" />
		<path fill="#fcdd09" stroke="#000" d="m341.1 511.5c-8.1 22-37.9 19.6-37.9 19.6 0 0 29.6-0.2 37.1 25.6z" />
		<path fill="#fcdd09" stroke="#000" d="m342.1 383.5c-8.1-22-37.9-19.6-37.9-19.6 0 0 29.6 0.2 37.1-25.6z" />
		<path fill="#fcdd09" stroke="#000" d="m342.1 190.5c-8.1 22-37.9 19.6-37.9 19.6 0 0 29.6-0.2 37.1 25.6z" />
		<path fill="#fcdd09" stroke="#000" d="m342.1 63.5c-8.1-22-37.9-19.6-37.9-19.6 0 0 29.6 0.2 37.1-25.6z" />
		<path fill="#fcdd09" d="m351.1-1.5v903h-11v-903z" />
		<path fill="#000" fill-rule="evenodd" d="m351.6 902h-12v-904h12zm-11-903v902h10v-902z" />
		<path fill="#fcdd09" stroke="#000" d="m273.8 854.7c0 0 12.2 9.8 20.3 7.9 0 0-9.4 9.1-1.6 16.3 0 0 2.4-9.4 13.6-11.2 9.5-1.4 13.3-9.2 13.1-13v0.2c0.2-3.8-3.6-11.6-13.1-13-11.2-1.8-13.6-11.2-13.6-11.2-7.8 7.2 1.6 16.3 1.6 16.3-8.1-1.9-20.3 7.7-20.3 7.7z" />
		<path fill="#fcdd09" stroke="#000" d="m274.5 681.4c0 0 12.2 9.8 20.3 7.9 0 0-9.4 9.1-1.6 16.2 0 0 2.3-9.3 13.6-11.1 9.4-1.5 13.3-9.2 13.1-13v0.1c0.2-3.7-3.7-11.5-13.1-13-11.3-1.7-13.6-11.1-13.6-11.1-7.8 7.1 1.6 16.3 1.6 16.3-8.1-1.9-20.3 7.7-20.3 7.7z" />
		<path fill="#fcdd09" stroke="#000" d="m273.8 531.4c0 0 12.2 9.8 20.3 7.9 0 0-9.4 9.1-1.6 16.2 0 0 2.4-9.3 13.6-11.1 9.5-1.5 13.3-9.2 13.1-13v0.1c0.2-3.7-3.6-11.5-13.1-13-11.2-1.7-13.6-11.1-13.6-11.1-7.8 7.1 1.6 16.3 1.6 16.3-8.1-1.9-20.3 7.7-20.3 7.7z" />
		<path fill="#fcdd09" stroke="#000" d="m274.5 364.1c0 0 12.2 9.7 20.3 7.9 0 0-9.4 9.1-1.6 16.2 0 0 2.3-9.4 13.6-11.1 9.4-1.5 13.3-9.3 13.1-13v0.1c0.2-3.7-3.7-11.5-13.1-13-11.3-1.8-13.6-11.1-13.6-11.1-7.8 7.1 1.6 16.2 1.6 16.2-8.1-1.8-20.3 7.8-20.3 7.8z" />
		<path fill="#fcdd09" stroke="#000" d="m274.5 210.1c0 0 12.2 9.7 20.3 7.8 0 0-9.4 9.2-1.6 16.3 0 0 2.3-9.4 13.6-11.1 9.4-1.5 13.3-9.3 13.1-13v0.1c0.2-3.7-3.7-11.5-13.1-13-11.3-1.8-13.6-11.1-13.6-11.1-7.8 7.1 1.6 16.2 1.6 16.2-8.1-1.9-20.3 7.8-20.3 7.8z" />
		<path fill="#fcdd09" stroke="#000" d="m275.1 43.4c0 0 12.2 9.8 20.3 7.9 0 0-9.3 9.1-1.6 16.2 0 0 2.4-9.3 13.6-11.1 9.5-1.5 13.3-9.2 13.2-13v0.1c0.1-3.7-3.7-11.5-13.2-13-11.2-1.7-13.6-11.1-13.6-11.1-7.7 7.1 1.6 16.3 1.6 16.3-8.1-1.9-20.3 7.7-20.3 7.7z" />
	</g>
	<g id="perles">
		<path fill="#fff" stroke="#000" stroke-miterlimit="10" stroke-width=".8" d="m397.8 865.3c-8.3 0-15-6.7-15-15 0-8.3 6.7-15 15-15 8.3 0 15 6.7 15 15 0 8.3-6.7 15-15 15z" />
		<path fill="#fff" stroke="#000" stroke-miterlimit="10" stroke-width=".8" d="m397.8 665.3c-8.3 0-15-6.7-15-15 0-8.3 6.7-15 15-15 8.3 0 15 6.7 15 15 0 8.3-6.7 15-15 15z" />
		<path fill="#fff" stroke="#000" stroke-miterlimit="10" stroke-width=".8" d="m397.8 465.3c-8.3 0-15-6.7-15-15 0-8.3 6.7-15 15-15 8.3 0 15 6.7 15 15 0 8.3-6.7 15-15 15z" />
		<path fill="#fff" stroke="#000" stroke-miterlimit="10" stroke-width=".8" d="m397.8 265.3c-8.3 0-15-6.7-15-15 0-8.3 6.7-15 15-15 8.3 0 15 6.7 15 15 0 8.3-6.7 15-15 15z" />
		<path fill="#fff" stroke="#000" stroke-miterlimit="10" stroke-width=".8" d="m397.8 65.3c-8.3 0-15-6.7-15-15 0-8.3 6.7-15 15-15 8.3 0 15 6.7 15 15 0 8.3-6.7 15-15 15z" />
		<path fill="#fcdd09" stroke="#000" stroke-miterlimit="10" stroke-width=".8" d="m372.9 151.2l24.9-24.9 24.8 24.9-24.8 24.8z" />
		<path fill="#da121a" stroke="#000" stroke-miterlimit="10" stroke-width=".8" d="m374.8 151.4l7.4 7.4h7.9v7.9l7.5 7.5h0.3l7.5-7.5v-7.9h7.9l7.5-7.4v-0.4l-7.5-7.5h-7.9v-7.8l-7.5-7.5h-0.3l-7.5 7.5v7.8h-7.9l-7.4 7.5z" />
		<path fill="#fcdd09" stroke="#000" stroke-miterlimit="10" stroke-width=".8" d="m387.3 131.4c1.2 1.1 0 4.1-2.6 6.7-2.6 2.6-5.6 3.7-6.7 2.6-1.1-1.1 0.1-4.1 2.6-6.7 2.6-2.5 5.6-3.7 6.7-2.6z" />
		<path fill="#fcdd09" stroke="#000" stroke-miterlimit="10" stroke-width=".8" d="m408.2 131.4c-1.1 1.1 0.1 4.1 2.7 6.7 2.5 2.6 5.5 3.7 6.7 2.6 1.1-1.1-0.1-4.1-2.7-6.7-2.6-2.5-5.6-3.7-6.7-2.6z" />
		<path fill="#fcdd09" stroke="#000" stroke-miterlimit="10" stroke-width=".8" d="m408.2 170.9c-1.1-1.1 0.1-4.1 2.7-6.7 2.5-2.6 5.5-3.7 6.7-2.6 1.1 1.1-0.1 4.1-2.7 6.7-2.6 2.6-5.6 3.7-6.7 2.6z" />
		<path fill="#fcdd09" stroke="#000" stroke-miterlimit="10" stroke-width=".8" d="m387.3 170.9c-1.1 1.2-4.1 0-6.7-2.6-2.5-2.6-3.7-5.6-2.6-6.7 1.1-1.1 4.1 0.1 6.7 2.6 2.6 2.6 3.8 5.6 2.6 6.7z" />
		<path fill="#fcdd09" stroke="#000" stroke-miterlimit="10" stroke-width=".8" d="m389.9 122.9c0-1.3 2.9-2.5 6.2-2.8 0.7-0.1 1.7-0.9 1.7-0.9 0 0 0.9 0.8 1.4 0.9 3.6 0.2 6.5 1.4 6.5 2.8 0 1.5-3.5 2.8-7.9 2.8-4.3 0-7.9-1.3-7.9-2.8z" />
		<path fill="#fcdd09" stroke="#000" stroke-miterlimit="10" stroke-width=".8" d="m405.7 179.5c0 1.3-2.9 2.5-6.2 2.8-0.7 0.1-1.6 0.9-1.6 0.9 0 0-1-0.9-1.5-0.9-3.6-0.3-6.5-1.5-6.5-2.8 0-1.6 3.6-2.8 7.9-2.8 4.4 0 7.9 1.2 7.9 2.8z" />
		<path fill="#fcdd09" stroke="#000" stroke-miterlimit="10" stroke-width=".8" d="m369.5 159.1c-1.3 0-2.5-2.9-2.8-6.2-0.1-0.7-0.9-1.7-0.9-1.7 0 0 0.9-0.9 0.9-1.4 0.3-3.6 1.4-6.5 2.8-6.5 1.6 0 2.8 3.5 2.8 7.9 0 4.3-1.2 7.9-2.8 7.9z" />
		<path fill="#fcdd09" stroke="#000" stroke-miterlimit="10" stroke-width=".8" d="m426.1 143.3c1.3 0 2.5 2.9 2.8 6.2 0.1 0.7 0.9 1.6 0.9 1.6 0 0-0.8 1-0.9 1.5-0.2 3.6-1.4 6.5-2.8 6.5-1.5 0-2.8-3.6-2.8-7.9 0-4.4 1.3-7.9 2.8-7.9z" />
		<path fill="#fcdd09" stroke="#000" stroke-miterlimit="10" stroke-width=".8" d="m397.8 389.2c-2.5 0-4.5-2-4.5-4.5 0-2.5 2-4.5 4.5-4.5 2.5 0 4.5 2 4.5 4.5 0 2.5-2 4.5-4.5 4.5z" />
		<path fill="#fcdd09" stroke="#000" stroke-miterlimit="10" stroke-width=".8" d="m397.8 318.7c-2.5 0-4.5-2.1-4.5-4.5 0-2.5 2-4.5 4.5-4.5 2.5 0 4.5 2 4.5 4.5 0 2.4-2 4.5-4.5 4.5z" />
		<path fill="#fcdd09" stroke="#000" stroke-miterlimit="10" stroke-width=".8" d="m397.8 379.1c-9.3 0-16.8-13.2-16.8-29.6 0-16.4 7.5-29.6 16.8-29.6 9.2 0 16.7 13.2 16.7 29.6 0 16.4-7.5 29.6-16.7 29.6z" />
		<path fill="#078930" stroke="#000" stroke-miterlimit="10" stroke-width=".8" d="m411.9 349.2c0-14-5.6-25.5-12.6-26.8-0.5-0.1-1.5 1.7-1.5 1.7 0 0-0.9-1.8-1.4-1.7-7.1 1.4-12.6 12.9-12.6 26.8q0 0.1 0 0.2 0 0 0 0.1c0 14 5.6 25.5 12.6 26.9 0.5 0.1 1.5-1.8 1.5-1.8 0 0 0.9 1.9 1.4 1.8 7.1-1.4 12.6-12.9 12.6-26.9q0-0.1 0-0.1 0-0.1 0-0.2z" />
		<path fill="#fcdd09" stroke="#000" stroke-miterlimit="10" stroke-width=".8" d="m417.5 351.8c-1.3 0-2.3-1.1-2.3-2.3 0-1.2 1-2.2 2.3-2.2 1.2 0 2.2 1 2.2 2.2 0 1.2-1 2.3-2.2 2.3z" />
		<path fill="#fcdd09" stroke="#000" stroke-miterlimit="10" stroke-width=".8" d="m378 351.8c-1.2 0-2.2-1.1-2.2-2.3 0-1.2 1-2.2 2.2-2.2 1.3 0 2.3 1 2.3 2.2 0 1.2-1 2.3-2.3 2.3z" />
		<path fill="#fcdd09" stroke="#000" stroke-miterlimit="10" stroke-width=".8" d="m409.9 377.9c-1.2 0-2.2-1-2.2-2.2 0-1.3 1-2.3 2.2-2.3 1.2 0 2.2 1 2.2 2.3 0 1.2-1 2.2-2.2 2.2z" />
		<path fill="#fcdd09" stroke="#000" stroke-miterlimit="10" stroke-width=".8" d="m385.6 377.9c-1.2 0-2.3-1-2.3-2.2 0-1.3 1.1-2.3 2.3-2.3 1.2 0 2.2 1 2.2 2.3 0 1.2-1 2.2-2.2 2.2z" />
		<path fill="#fcdd09" stroke="#000" stroke-miterlimit="10" stroke-width=".8" d="m377.3 367.7c-2.5 0-4.5-2-4.5-4.5 0-2.5 2-4.5 4.5-4.5 2.5 0 4.5 2 4.5 4.5 0 2.5-2 4.5-4.5 4.5z" />
		<path fill="#fcdd09" stroke="#000" stroke-miterlimit="10" stroke-width=".8" d="m418.3 367.5c-2.5 0-4.5-2-4.5-4.5 0-2.4 2-4.5 4.5-4.5 2.5 0 4.5 2.1 4.5 4.5 0 2.5-2 4.5-4.5 4.5z" />
		<path fill="#fcdd09" stroke="#000" stroke-miterlimit="10" stroke-width=".8" d="m385.7 325.4c-1.2 0-2.2-1-2.2-2.3 0-1.2 1-2.2 2.2-2.2 1.3 0 2.3 1 2.3 2.2 0 1.3-1 2.3-2.3 2.3z" />
		<path fill="#fcdd09" stroke="#000" stroke-miterlimit="10" stroke-width=".8" d="m410 325.4c-1.2 0-2.2-1-2.2-2.3 0-1.2 1-2.2 2.2-2.2 1.3 0 2.3 1 2.3 2.2 0 1.3-1 2.3-2.3 2.3z" />
		<path fill="#fcdd09" stroke="#000" stroke-miterlimit="10" stroke-width=".8" d="m418.3 340.1c-2.5 0-4.5-2-4.5-4.5 0-2.4 2-4.5 4.5-4.5 2.5 0 4.5 2.1 4.5 4.5 0 2.5-2 4.5-4.5 4.5z" />
		<path fill="#fcdd09" stroke="#000" stroke-miterlimit="10" stroke-width=".8" d="m377.3 340.3c-2.5 0-4.5-2-4.5-4.5 0-2.5 2-4.5 4.5-4.5 2.5 0 4.5 2 4.5 4.5 0 2.5-2 4.5-4.5 4.5z" />
		<path fill="#fcdd09" stroke="#000" stroke-width=".8" d="m422.6 550.6l-24.8 24.9-24.8-24.9 24.8-24.8z" />
		<path fill="#da121a" stroke="#000" stroke-miterlimit="10" stroke-width=".8" d="m374.8 551l7.4 7.5h7.9v7.9l7.5 7.4h0.3l7.5-7.4v-7.9h7.9l7.5-7.5v-0.3l-7.5-7.5h-7.9v-7.9l-7.5-7.5h-0.3l-7.5 7.5v7.9h-7.9l-7.4 7.5z" />
		<path fill="#fcdd09" stroke="#000" stroke-width=".8" d="m387.3 531.1c1.1 1.1 0 4.1-2.6 6.7-2.6 2.5-5.6 3.7-6.7 2.6-1.1-1.1 0.1-4.1 2.6-6.7 2.6-2.6 5.6-3.8 6.7-2.6z" />
		<path fill="#fcdd09" stroke="#000" stroke-width=".8" d="m408.2 531.1c1.1-1.2 4.1 0 6.7 2.6 2.6 2.6 3.8 5.6 2.6 6.7-1.1 1.1-4.1-0.1-6.7-2.7-2.5-2.5-3.7-5.5-2.6-6.6z" />
		<path fill="#fcdd09" stroke="#000" stroke-width=".8" d="m408.2 570.6c-1.1-1.1 0-4.1 2.6-6.7 2.6-2.6 5.6-3.8 6.7-2.6 1.1 1.1-0.1 4.1-2.6 6.6-2.6 2.6-5.6 3.8-6.7 2.7z" />
		<path fill="#fcdd09" stroke="#000" stroke-width=".8" d="m387.4 570.6c-1.1 1.1-4.1-0.1-6.7-2.6-2.6-2.6-3.8-5.6-2.7-6.7 1.2-1.2 4.2 0 6.7 2.6 2.6 2.6 3.8 5.6 2.7 6.7z" />
		<path fill="#fcdd09" stroke="#000" stroke-width=".8" d="m389.9 522.5c0-1.3 2.9-2.4 6.2-2.8 0.7 0 1.7-0.9 1.7-0.9 0 0 0.9 0.9 1.4 0.9 3.6 0.3 6.5 1.5 6.5 2.8 0 1.6-3.5 2.8-7.9 2.8-4.3 0-7.9-1.2-7.9-2.8z" />
		<path fill="#fcdd09" stroke="#000" stroke-width=".8" d="m405.7 579.2c0 1.2-2.9 2.4-6.2 2.8-0.7 0-1.6 0.8-1.6 0.8 0 0-1-0.8-1.5-0.8-3.6-0.3-6.5-1.5-6.5-2.8 0-1.6 3.6-2.8 7.9-2.8 4.4 0 7.9 1.2 7.9 2.8z" />
		<path fill="#fcdd09" stroke="#000" stroke-width=".8" d="m369.5 558.8c-1.3 0-2.5-2.9-2.8-6.3-0.1-0.6-0.9-1.6-0.9-1.6 0 0 0.9-1 0.9-1.5 0.3-3.6 1.4-6.5 2.8-6.5 1.6 0 2.8 3.6 2.8 8 0 4.3-1.2 7.9-2.8 7.9z" />
		<path fill="#fcdd09" stroke="#000" stroke-width=".8" d="m426.1 542.9c1.3 0 2.5 2.9 2.8 6.3 0.1 0.6 0.9 1.6 0.9 1.6 0 0-0.8 1-0.9 1.5-0.2 3.6-1.4 6.4-2.8 6.4-1.5 0-2.8-3.5-2.8-7.9 0-4.3 1.3-7.9 2.8-7.9z" />
		<path fill="#fcdd09" stroke="#000" stroke-width=".8" d="m397.8 786c-2.5 0-4.5-2-4.5-4.5 0-2.5 2-4.5 4.5-4.5 2.5 0 4.5 2 4.5 4.5 0 2.5-2 4.5-4.5 4.5z" />
		<path fill="#fcdd09" stroke="#000" stroke-width=".8" d="m397.8 715.5c-2.5 0-4.5-2-4.5-4.5 0-2.5 2-4.5 4.5-4.5 2.5 0 4.5 2 4.5 4.5 0 2.5-2 4.5-4.5 4.5z" />
		<path fill="#fcdd09" stroke="#000" stroke-width=".8" d="m397.8 775.9c-9.3 0-16.8-13.2-16.8-29.6 0-16.4 7.5-29.6 16.8-29.6 9.2 0 16.7 13.2 16.7 29.6 0 16.4-7.5 29.6-16.7 29.6z" />
		<path fill="#078930" stroke="#000" stroke-width=".8" d="m411.9 746c0-13.9-5.6-25.4-12.6-26.8-0.5-0.1-1.5 1.7-1.5 1.7 0 0-0.9-1.8-1.4-1.7-7.1 1.4-12.6 12.9-12.6 26.8q0 0.1 0 0.2 0 0 0 0.1c0 14 5.6 25.5 12.6 26.9 0.5 0.1 1.5-1.8 1.5-1.8 0 0 0.9 1.9 1.4 1.8 7.1-1.4 12.6-12.9 12.6-26.9q0-0.1 0-0.1 0-0.1 0-0.2z" />
		<path fill="#fcdd09" stroke="#000" stroke-width=".8" d="m417.5 748.6c-1.3 0-2.3-1-2.3-2.3 0-1.2 1-2.2 2.3-2.2 1.2 0 2.2 1 2.2 2.2 0 1.3-1 2.3-2.2 2.3z" />
		<path fill="#fcdd09" stroke="#000" stroke-width=".8" d="m378 748.6c-1.2 0-2.2-1-2.2-2.3 0-1.2 1-2.2 2.2-2.2 1.3 0 2.3 1 2.3 2.2 0 1.3-1 2.3-2.3 2.3z" />
		<path fill="#fcdd09" stroke="#000" stroke-width=".8" d="m409.9 774.7c-1.2 0-2.2-1-2.2-2.2 0-1.3 1-2.3 2.2-2.3 1.2 0 2.2 1 2.2 2.3 0 1.2-1 2.2-2.2 2.2z" />
		<path fill="#fcdd09" stroke="#000" stroke-width=".8" d="m385.6 774.7c-1.2 0-2.3-1-2.3-2.2 0-1.3 1.1-2.3 2.3-2.3 1.2 0 2.2 1 2.2 2.3 0 1.2-1 2.2-2.2 2.2z" />
		<path fill="#fcdd09" stroke="#000" stroke-width=".8" d="m377.3 764.5c-2.5 0-4.5-2-4.5-4.5 0-2.5 2-4.5 4.5-4.5 2.5 0 4.5 2 4.5 4.5 0 2.5-2 4.5-4.5 4.5z" />
		<path fill="#fcdd09" stroke="#000" stroke-width=".8" d="m418.3 764.3c-2.5 0-4.5-2-4.5-4.5 0-2.4 2-4.4 4.5-4.4 2.5 0 4.5 2 4.5 4.4 0 2.5-2 4.5-4.5 4.5z" />
		<path fill="#fcdd09" stroke="#000" stroke-width=".8" d="m385.7 722.2c-1.2 0-2.2-1-2.2-2.2 0-1.3 1-2.3 2.2-2.3 1.3 0 2.3 1 2.3 2.3 0 1.2-1 2.2-2.3 2.2z" />
		<path fill="#fcdd09" stroke="#000" stroke-width=".8" d="m410 722.2c-1.2 0-2.2-1-2.2-2.2 0-1.3 1-2.3 2.2-2.3 1.3 0 2.3 1 2.3 2.3 0 1.2-1 2.2-2.3 2.2z" />
		<path fill="#fcdd09" stroke="#000" stroke-width=".8" d="m418.3 736.9c-2.5 0-4.5-2-4.5-4.4 0-2.5 2-4.5 4.5-4.5 2.5 0 4.5 2 4.5 4.5 0 2.4-2 4.4-4.5 4.4z" />
		<path fill="#fcdd09" stroke="#000" stroke-width=".8" d="m377.3 737.1c-2.5 0-4.5-2-4.5-4.5 0-2.5 2-4.5 4.5-4.5 2.5 0 4.5 2 4.5 4.5 0 2.5-2 4.5-4.5 4.5z" />
	</g>
</svg>