<?xml version="1.0" encoding="UTF-8" standalone="no"?>
<svg width="512px" height="512px" viewBox="0 0 512 512" version="1.1" xmlns="http://www.w3.org/2000/svg" xmlns:xlink="http://www.w3.org/1999/xlink" xmlns:sketch="http://www.bohemiancoding.com/sketch/ns">
    <!-- Generator: Sketch 3.3.2 (12043) - http://www.bohemiancoding.com/sketch -->
    <title>1x1</title>
    <desc>Created with Sketch.</desc>
    <defs></defs>
    <g id="Page-1" stroke="none" stroke-width="1" fill="none" fill-rule="evenodd" sketch:type="MSPage">
        <g id="1x1" sketch:type="MSArtboardGroup">
            <g id="Flag_of_Europe" sketch:type="MSLayerGroup" transform="translate(-87.000000, 0.000000)">
                <rect id="Rectangle-path" fill="#003399" sketch:type="MSShapeGroup" x="0" y="0" width="685" height="512"></rect>
                <g id="Group" transform="translate(138.585648, 53.211852)" fill="#FFCC00" sketch:type="MSShapeGroup">
                    <g id="s-link" transform="translate(153.173611, 0.951111)">
                        <g id="s">
                            <g id="c" transform="translate(25.370370, 25.362963)">
                                <path d="M21.140004,1.33872076 L21.140004,26.7016837 L33.8251892,26.7016837 L21.140004,1.33872076 Z" id="t" transform="translate(27.482597, 14.020202) rotate(18.000000) translate(-27.482597, -14.020202) "></path>
                                <g id="t-link" transform="translate(25.370370, 25.362963) scale(-1, 1) translate(-25.370370, -25.362963) ">
                                    <path d="M21.140004,1.33872076 L21.140004,26.7016837 L33.8251892,26.7016837 L21.140004,1.33872076 Z" id="t" transform="translate(27.482597, 14.020202) rotate(18.000000) translate(-27.482597, -14.020202) "></path>
                                </g>
                            </g>
                            <g id="a">
                                <g id="c-link" transform="translate(50.740741, 50.725926) rotate(72.000000) translate(-50.740741, -50.725926) translate(25.370370, 25.362963)">
                                    <g id="c">
                                        <path d="M21.140004,1.33872076 L21.140004,26.7016837 L33.8251892,26.7016837 L21.140004,1.33872076 Z" id="t" transform="translate(27.482597, 14.020202) rotate(18.000000) translate(-27.482597, -14.020202) "></path>
                                        <g id="t-link" transform="translate(25.370370, 25.362963) scale(-1, 1) translate(-25.370370, -25.362963) ">
                                            <path d="M21.140004,1.33872076 L21.140004,26.7016837 L33.8251892,26.7016837 L21.140004,1.33872076 Z" id="t" transform="translate(27.482597, 14.020202) rotate(18.000000) translate(-27.482597, -14.020202) "></path>
                                        </g>
                                    </g>
                                </g>
                                <g id="c-link" transform="translate(50.740741, 50.725926) rotate(144.000000) translate(-50.740741, -50.725926) translate(25.370370, 25.362963)">
                                    <g id="c">
                                        <path d="M21.140004,1.33872076 L21.140004,26.7016837 L33.8251892,26.7016837 L21.140004,1.33872076 Z" id="t" transform="translate(27.482597, 14.020202) rotate(18.000000) translate(-27.482597, -14.020202) "></path>
                                        <g id="t-link" transform="translate(25.370370, 25.362963) scale(-1, 1) translate(-25.370370, -25.362963) ">
                                            <path d="M21.140004,1.33872076 L21.140004,26.7016837 L33.8251892,26.7016837 L21.140004,1.33872076 Z" id="t" transform="translate(27.482597, 14.020202) rotate(18.000000) translate(-27.482597, -14.020202) "></path>
                                        </g>
                                    </g>
                                </g>
                            </g>
                            <g id="a-link" transform="translate(50.740741, 50.725926) scale(-1, 1) translate(-50.740741, -50.725926) ">
                                <g id="a">
                                    <g id="c-link" transform="translate(50.740741, 50.725926) rotate(72.000000) translate(-50.740741, -50.725926) translate(25.370370, 25.362963)">
                                        <g id="c">
                                            <path d="M21.140004,1.33872076 L21.140004,26.7016837 L33.8251892,26.7016837 L21.140004,1.33872076 Z" id="t" transform="translate(27.482597, 14.020202) rotate(18.000000) translate(-27.482597, -14.020202) "></path>
                                            <g id="t-link" transform="translate(25.370370, 25.362963) scale(-1, 1) translate(-25.370370, -25.362963) ">
                                                <path d="M21.140004,1.33872076 L21.140004,26.7016837 L33.8251892,26.7016837 L21.140004,1.33872076 Z" id="t" transform="translate(27.482597, 14.020202) rotate(18.000000) translate(-27.482597, -14.020202) "></path>
                                            </g>
                                        </g>
                                    </g>
                                    <g id="c-link" transform="translate(50.740741, 50.725926) rotate(144.000000) translate(-50.740741, -50.725926) translate(25.370370, 25.362963)">
                                        <g id="c">
                                            <path d="M21.140004,1.33872076 L21.140004,26.7016837 L33.8251892,26.7016837 L21.140004,1.33872076 Z" id="t" transform="translate(27.482597, 14.020202) rotate(18.000000) translate(-27.482597, -14.020202) "></path>
                                            <g id="t-link" transform="translate(25.370370, 25.362963) scale(-1, 1) translate(-25.370370, -25.362963) ">
                                                <path d="M21.140004,1.33872076 L21.140004,26.7016837 L33.8251892,26.7016837 L21.140004,1.33872076 Z" id="t" transform="translate(27.482597, 14.020202) rotate(18.000000) translate(-27.482597, -14.020202) "></path>
                                            </g>
                                        </g>
                                    </g>
                                </g>
                            </g>
                        </g>
                    </g>
                    <g id="s-link" transform="translate(153.173611, 305.306667)">
                        <g id="s">
                            <g id="c" transform="translate(25.370370, 25.362963)">
                                <path d="M21.140004,1.33872076 L21.140004,26.7016837 L33.8251892,26.7016837 L21.140004,1.33872076 Z" id="t" transform="translate(27.482597, 14.020202) rotate(18.000000) translate(-27.482597, -14.020202) "></path>
                                <g id="t-link" transform="translate(25.370370, 25.362963) scale(-1, 1) translate(-25.370370, -25.362963) ">
                                    <path d="M21.140004,1.33872076 L21.140004,26.7016837 L33.8251892,26.7016837 L21.140004,1.33872076 Z" id="t" transform="translate(27.482597, 14.020202) rotate(18.000000) translate(-27.482597, -14.020202) "></path>
                                </g>
                            </g>
                            <g id="a">
                                <g id="c-link" transform="translate(50.740741, 50.725926) rotate(72.000000) translate(-50.740741, -50.725926) translate(25.370370, 25.362963)">
                                    <g id="c">
                                        <path d="M21.140004,1.33872076 L21.140004,26.7016837 L33.8251892,26.7016837 L21.140004,1.33872076 Z" id="t" transform="translate(27.482597, 14.020202) rotate(18.000000) translate(-27.482597, -14.020202) "></path>
                                        <g id="t-link" transform="translate(25.370370, 25.362963) scale(-1, 1) translate(-25.370370, -25.362963) ">
                                            <path d="M21.140004,1.33872076 L21.140004,26.7016837 L33.8251892,26.7016837 L21.140004,1.33872076 Z" id="t" transform="translate(27.482597, 14.020202) rotate(18.000000) translate(-27.482597, -14.020202) "></path>
                                        </g>
                                    </g>
                                </g>
                                <g id="c-link" transform="translate(50.740741, 50.725926) rotate(144.000000) translate(-50.740741, -50.725926) translate(25.370370, 25.362963)">
                                    <g id="c">
                                        <path d="M21.140004,1.33872076 L21.140004,26.7016837 L33.8251892,26.7016837 L21.140004,1.33872076 Z" id="t" transform="translate(27.482597, 14.020202) rotate(18.000000) translate(-27.482597, -14.020202) "></path>
                                        <g id="t-link" transform="translate(25.370370, 25.362963) scale(-1, 1) translate(-25.370370, -25.362963) ">
                                            <path d="M21.140004,1.33872076 L21.140004,26.7016837 L33.8251892,26.7016837 L21.140004,1.33872076 Z" id="t" transform="translate(27.482597, 14.020202) rotate(18.000000) translate(-27.482597, -14.020202) "></path>
                                        </g>
                                    </g>
                                </g>
                            </g>
                            <g id="a-link" transform="translate(50.740741, 50.725926) scale(-1, 1) translate(-50.740741, -50.725926) ">
                                <g id="a">
                                    <g id="c-link" transform="translate(50.740741, 50.725926) rotate(72.000000) translate(-50.740741, -50.725926) translate(25.370370, 25.362963)">
                                        <g id="c">
                                            <path d="M21.140004,1.33872076 L21.140004,26.7016837 L33.8251892,26.7016837 L21.140004,1.33872076 Z" id="t" transform="translate(27.482597, 14.020202) rotate(18.000000) translate(-27.482597, -14.020202) "></path>
                                            <g id="t-link" transform="translate(25.370370, 25.362963) scale(-1, 1) translate(-25.370370, -25.362963) ">
                                                <path d="M21.140004,1.33872076 L21.140004,26.7016837 L33.8251892,26.7016837 L21.140004,1.33872076 Z" id="t" transform="translate(27.482597, 14.020202) rotate(18.000000) translate(-27.482597, -14.020202) "></path>
                                            </g>
                                        </g>
                                    </g>
                                    <g id="c-link" transform="translate(50.740741, 50.725926) rotate(144.000000) translate(-50.740741, -50.725926) translate(25.370370, 25.362963)">
                                        <g id="c">
                                            <path d="M21.140004,1.33872076 L21.140004,26.7016837 L33.8251892,26.7016837 L21.140004,1.33872076 Z" id="t" transform="translate(27.482597, 14.020202) rotate(18.000000) translate(-27.482597, -14.020202) "></path>
                                            <g id="t-link" transform="translate(25.370370, 25.362963) scale(-1, 1) translate(-25.370370, -25.362963) ">
                                                <path d="M21.140004,1.33872076 L21.140004,26.7016837 L33.8251892,26.7016837 L21.140004,1.33872076 Z" id="t" transform="translate(27.482597, 14.020202) rotate(18.000000) translate(-27.482597, -14.020202) "></path>
                                            </g>
                                        </g>
                                    </g>
                                </g>
                            </g>
                        </g>
                    </g>
                    <g id="l" transform="translate(0.000000, 0.951111)">
                        <g id="s-link" transform="translate(0.951389, 152.177778)">
                            <g id="s">
                                <g id="c" transform="translate(25.370370, 25.362963)">
                                    <path d="M21.140004,1.33872076 L21.140004,26.7016837 L33.8251892,26.7016837 L21.140004,1.33872076 Z" id="t" transform="translate(27.482597, 14.020202) rotate(18.000000) translate(-27.482597, -14.020202) "></path>
                                    <g id="t-link" transform="translate(25.370370, 25.362963) scale(-1, 1) translate(-25.370370, -25.362963) ">
                                        <path d="M21.140004,1.33872076 L21.140004,26.7016837 L33.8251892,26.7016837 L21.140004,1.33872076 Z" id="t" transform="translate(27.482597, 14.020202) rotate(18.000000) translate(-27.482597, -14.020202) "></path>
                                    </g>
                                </g>
                                <g id="a">
                                    <g id="c-link" transform="translate(50.740741, 50.725926) rotate(72.000000) translate(-50.740741, -50.725926) translate(25.370370, 25.362963)">
                                        <g id="c">
                                            <path d="M21.140004,1.33872076 L21.140004,26.7016837 L33.8251892,26.7016837 L21.140004,1.33872076 Z" id="t" transform="translate(27.482597, 14.020202) rotate(18.000000) translate(-27.482597, -14.020202) "></path>
                                            <g id="t-link" transform="translate(25.370370, 25.362963) scale(-1, 1) translate(-25.370370, -25.362963) ">
                                                <path d="M21.140004,1.33872076 L21.140004,26.7016837 L33.8251892,26.7016837 L21.140004,1.33872076 Z" id="t" transform="translate(27.482597, 14.020202) rotate(18.000000) translate(-27.482597, -14.020202) "></path>
                                            </g>
                                        </g>
                                    </g>
                                    <g id="c-link" transform="translate(50.740741, 50.725926) rotate(144.000000) translate(-50.740741, -50.725926) translate(25.370370, 25.362963)">
                                        <g id="c">
                                            <path d="M21.140004,1.33872076 L21.140004,26.7016837 L33.8251892,26.7016837 L21.140004,1.33872076 Z" id="t" transform="translate(27.482597, 14.020202) rotate(18.000000) translate(-27.482597, -14.020202) "></path>
                                            <g id="t-link" transform="translate(25.370370, 25.362963) scale(-1, 1) translate(-25.370370, -25.362963) ">
                                                <path d="M21.140004,1.33872076 L21.140004,26.7016837 L33.8251892,26.7016837 L21.140004,1.33872076 Z" id="t" transform="translate(27.482597, 14.020202) rotate(18.000000) translate(-27.482597, -14.020202) "></path>
                                            </g>
                                        </g>
                                    </g>
                                </g>
                                <g id="a-link" transform="translate(50.740741, 50.725926) scale(-1, 1) translate(-50.740741, -50.725926) ">
                                    <g id="a">
                                        <g id="c-link" transform="translate(50.740741, 50.725926) rotate(72.000000) translate(-50.740741, -50.725926) translate(25.370370, 25.362963)">
                                            <g id="c">
                                                <path d="M21.140004,1.33872076 L21.140004,26.7016837 L33.8251892,26.7016837 L21.140004,1.33872076 Z" id="t" transform="translate(27.482597, 14.020202) rotate(18.000000) translate(-27.482597, -14.020202) "></path>
                                                <g id="t-link" transform="translate(25.370370, 25.362963) scale(-1, 1) translate(-25.370370, -25.362963) ">
                                                    <path d="M21.140004,1.33872076 L21.140004,26.7016837 L33.8251892,26.7016837 L21.140004,1.33872076 Z" id="t" transform="translate(27.482597, 14.020202) rotate(18.000000) translate(-27.482597, -14.020202) "></path>
                                                </g>
                                            </g>
                                        </g>
                                        <g id="c-link" transform="translate(50.740741, 50.725926) rotate(144.000000) translate(-50.740741, -50.725926) translate(25.370370, 25.362963)">
                                            <g id="c">
                                                <path d="M21.140004,1.33872076 L21.140004,26.7016837 L33.8251892,26.7016837 L21.140004,1.33872076 Z" id="t" transform="translate(27.482597, 14.020202) rotate(18.000000) translate(-27.482597, -14.020202) "></path>
                                                <g id="t-link" transform="translate(25.370370, 25.362963) scale(-1, 1) translate(-25.370370, -25.362963) ">
                                                    <path d="M21.140004,1.33872076 L21.140004,26.7016837 L33.8251892,26.7016837 L21.140004,1.33872076 Z" id="t" transform="translate(27.482597, 14.020202) rotate(18.000000) translate(-27.482597, -14.020202) "></path>
                                                </g>
                                            </g>
                                        </g>
                                    </g>
                                </g>
                            </g>
                        </g>
                        <g id="s-link" transform="translate(127.803241, 71.113882) rotate(216.000000) translate(-127.803241, -71.113882) translate(77.062500, 20.387956)">
                            <g id="s">
                                <g id="c" transform="translate(25.370370, 25.362963)">
                                    <path d="M21.140004,1.33872076 L21.140004,26.7016837 L33.8251892,26.7016837 L21.140004,1.33872076 Z" id="t" transform="translate(27.482597, 14.020202) rotate(18.000000) translate(-27.482597, -14.020202) "></path>
                                    <g id="t-link" transform="translate(25.370370, 25.362963) scale(-1, 1) translate(-25.370370, -25.362963) ">
                                        <path d="M21.140004,1.33872076 L21.140004,26.7016837 L33.8251892,26.7016837 L21.140004,1.33872076 Z" id="t" transform="translate(27.482597, 14.020202) rotate(18.000000) translate(-27.482597, -14.020202) "></path>
                                    </g>
                                </g>
                                <g id="a">
                                    <g id="c-link" transform="translate(50.740741, 50.725926) rotate(72.000000) translate(-50.740741, -50.725926) translate(25.370370, 25.362963)">
                                        <g id="c">
                                            <path d="M21.140004,1.33872076 L21.140004,26.7016837 L33.8251892,26.7016837 L21.140004,1.33872076 Z" id="t" transform="translate(27.482597, 14.020202) rotate(18.000000) translate(-27.482597, -14.020202) "></path>
                                            <g id="t-link" transform="translate(25.370370, 25.362963) scale(-1, 1) translate(-25.370370, -25.362963) ">
                                                <path d="M21.140004,1.33872076 L21.140004,26.7016837 L33.8251892,26.7016837 L21.140004,1.33872076 Z" id="t" transform="translate(27.482597, 14.020202) rotate(18.000000) translate(-27.482597, -14.020202) "></path>
                                            </g>
                                        </g>
                                    </g>
                                    <g id="c-link" transform="translate(50.740741, 50.725926) rotate(144.000000) translate(-50.740741, -50.725926) translate(25.370370, 25.362963)">
                                        <g id="c">
                                            <path d="M21.140004,1.33872076 L21.140004,26.7016837 L33.8251892,26.7016837 L21.140004,1.33872076 Z" id="t" transform="translate(27.482597, 14.020202) rotate(18.000000) translate(-27.482597, -14.020202) "></path>
                                            <g id="t-link" transform="translate(25.370370, 25.362963) scale(-1, 1) translate(-25.370370, -25.362963) ">
                                                <path d="M21.140004,1.33872076 L21.140004,26.7016837 L33.8251892,26.7016837 L21.140004,1.33872076 Z" id="t" transform="translate(27.482597, 14.020202) rotate(18.000000) translate(-27.482597, -14.020202) "></path>
                                            </g>
                                        </g>
                                    </g>
                                </g>
                                <g id="a-link" transform="translate(50.740741, 50.725926) scale(-1, 1) translate(-50.740741, -50.725926) ">
                                    <g id="a">
                                        <g id="c-link" transform="translate(50.740741, 50.725926) rotate(72.000000) translate(-50.740741, -50.725926) translate(25.370370, 25.362963)">
                                            <g id="c">
                                                <path d="M21.140004,1.33872076 L21.140004,26.7016837 L33.8251892,26.7016837 L21.140004,1.33872076 Z" id="t" transform="translate(27.482597, 14.020202) rotate(18.000000) translate(-27.482597, -14.020202) "></path>
                                                <g id="t-link" transform="translate(25.370370, 25.362963) scale(-1, 1) translate(-25.370370, -25.362963) ">
                                                    <path d="M21.140004,1.33872076 L21.140004,26.7016837 L33.8251892,26.7016837 L21.140004,1.33872076 Z" id="t" transform="translate(27.482597, 14.020202) rotate(18.000000) translate(-27.482597, -14.020202) "></path>
                                                </g>
                                            </g>
                                        </g>
                                        <g id="c-link" transform="translate(50.740741, 50.725926) rotate(144.000000) translate(-50.740741, -50.725926) translate(25.370370, 25.362963)">
                                            <g id="c">
                                                <path d="M21.140004,1.33872076 L21.140004,26.7016837 L33.8251892,26.7016837 L21.140004,1.33872076 Z" id="t" transform="translate(27.482597, 14.020202) rotate(18.000000) translate(-27.482597, -14.020202) "></path>
                                                <g id="t-link" transform="translate(25.370370, 25.362963) scale(-1, 1) translate(-25.370370, -25.362963) ">
                                                    <path d="M21.140004,1.33872076 L21.140004,26.7016837 L33.8251892,26.7016837 L21.140004,1.33872076 Z" id="t" transform="translate(27.482597, 14.020202) rotate(18.000000) translate(-27.482597, -14.020202) "></path>
                                                </g>
                                            </g>
                                        </g>
                                    </g>
                                </g>
                            </g>
                        </g>
                        <g id="s-link" transform="translate(71.957605, 126.117623) rotate(144.000000) translate(-71.957605, -126.117623) translate(20.582605, 74.757623)">
                            <g id="s" transform="translate(0.940271, -0.005436)">
                                <g id="c" transform="translate(25.370370, 25.362963)">
                                    <path d="M21.140004,1.33872076 L21.140004,26.7016837 L33.8251892,26.7016837 L21.140004,1.33872076 Z" id="t" transform="translate(27.482597, 14.020202) rotate(18.000000) translate(-27.482597, -14.020202) "></path>
                                    <g id="t-link" transform="translate(25.370370, 25.362963) scale(-1, 1) translate(-25.370370, -25.362963) ">
                                        <path d="M21.140004,1.33872076 L21.140004,26.7016837 L33.8251892,26.7016837 L21.140004,1.33872076 Z" id="t" transform="translate(27.482597, 14.020202) rotate(18.000000) translate(-27.482597, -14.020202) "></path>
                                    </g>
                                </g>
                                <g id="a" transform="translate(0.000000, 0.000000)">
                                    <g id="c-link" transform="translate(50.740741, 50.725926) rotate(72.000000) translate(-50.740741, -50.725926) translate(25.370370, 25.362963)">
                                        <g id="c">
                                            <path d="M21.140004,1.33872076 L21.140004,26.7016837 L33.8251892,26.7016837 L21.140004,1.33872076 Z" id="t" transform="translate(27.482597, 14.020202) rotate(18.000000) translate(-27.482597, -14.020202) "></path>
                                            <g id="t-link" transform="translate(25.370370, 25.362963) scale(-1, 1) translate(-25.370370, -25.362963) ">
                                                <path d="M21.140004,1.33872076 L21.140004,26.7016837 L33.8251892,26.7016837 L21.140004,1.33872076 Z" id="t" transform="translate(27.482597, 14.020202) rotate(18.000000) translate(-27.482597, -14.020202) "></path>
                                            </g>
                                        </g>
                                    </g>
                                    <g id="c-link" transform="translate(50.740741, 50.725926) rotate(144.000000) translate(-50.740741, -50.725926) translate(25.370370, 25.362963)">
                                        <g id="c">
                                            <path d="M21.140004,1.33872076 L21.140004,26.7016837 L33.8251892,26.7016837 L21.140004,1.33872076 Z" id="t" transform="translate(27.482597, 14.020202) rotate(18.000000) translate(-27.482597, -14.020202) "></path>
                                            <g id="t-link" transform="translate(25.370370, 25.362963) scale(-1, 1) translate(-25.370370, -25.362963) ">
                                                <path d="M21.140004,1.33872076 L21.140004,26.7016837 L33.8251892,26.7016837 L21.140004,1.33872076 Z" id="t" transform="translate(27.482597, 14.020202) rotate(18.000000) translate(-27.482597, -14.020202) "></path>
                                            </g>
                                        </g>
                                    </g>
                                </g>
                                <g id="a-link" transform="translate(51.057870, 50.408889) scale(-1, 1) translate(-51.057870, -50.408889) translate(18.710648, 18.071111)">
                                    <g id="a" transform="translate(-0.000000, 0.000000)">
                                        <g id="c-link" transform="translate(32.664352, 32.654815) rotate(72.000000) translate(-32.664352, -32.654815) translate(7.293981, 7.291852)">
                                            <g id="c">
                                                <path d="M21.140004,1.33872076 L21.140004,26.7016837 L33.8251892,26.7016837 L21.140004,1.33872076 Z" id="t" transform="translate(27.482597, 14.020202) rotate(18.000000) translate(-27.482597, -14.020202) "></path>
                                                <g id="t-link" transform="translate(25.370370, 25.362963) scale(-1, 1) translate(-25.370370, -25.362963) ">
                                                    <path d="M21.140004,1.33872076 L21.140004,26.7016837 L33.8251892,26.7016837 L21.140004,1.33872076 Z" id="t" transform="translate(27.482597, 14.020202) rotate(18.000000) translate(-27.482597, -14.020202) "></path>
                                                </g>
                                            </g>
                                        </g>
                                        <g id="c-link" transform="translate(39.596384, 41.923465) rotate(144.000000) translate(-39.596384, -41.923465) translate(26.752634, 27.181243)">
                                            <g id="c" transform="translate(0.000000, 0.951111)">
                                                <path d="M8.77194844,1.33872076 L8.77194844,26.7016837 L21.4571336,26.7016837 L8.77194844,1.33872076 Z" id="t" transform="translate(15.114541, 14.020202) rotate(18.000000) translate(-15.114541, -14.020202) "></path>
                                                <g id="t-link" transform="translate(10.782407, 14.266667) scale(-1, 1) translate(-10.782407, -14.266667) translate(0.317130, -0.000000)">
                                                    <path d="M4.01500399,1.33872076 L4.01500399,26.7016837 L16.7001892,26.7016837 L4.01500399,1.33872076 Z" id="t" transform="translate(10.357597, 14.020202) rotate(18.000000) translate(-10.357597, -14.020202) "></path>
                                                </g>
                                            </g>
                                        </g>
                                    </g>
                                </g>
                            </g>
                        </g>
                        <g id="s-link" transform="translate(72.086040, 278.992593) rotate(72.000000) translate(-72.086040, -278.992593) translate(21.345300, 228.266667)">
                            <g id="s">
                                <g id="c" transform="translate(25.370370, 25.362963)">
                                    <path d="M21.140004,1.33872076 L21.140004,26.7016837 L33.8251892,26.7016837 L21.140004,1.33872076 Z" id="t" transform="translate(27.482597, 14.020202) rotate(18.000000) translate(-27.482597, -14.020202) "></path>
                                    <g id="t-link" transform="translate(25.370370, 25.362963) scale(-1, 1) translate(-25.370370, -25.362963) ">
                                        <path d="M21.140004,1.33872076 L21.140004,26.7016837 L33.8251892,26.7016837 L21.140004,1.33872076 Z" id="t" transform="translate(27.482597, 14.020202) rotate(18.000000) translate(-27.482597, -14.020202) "></path>
                                    </g>
                                </g>
                                <g id="a">
                                    <g id="c-link" transform="translate(50.740741, 50.725926) rotate(72.000000) translate(-50.740741, -50.725926) translate(25.370370, 25.362963)">
                                        <g id="c">
                                            <path d="M21.140004,1.33872076 L21.140004,26.7016837 L33.8251892,26.7016837 L21.140004,1.33872076 Z" id="t" transform="translate(27.482597, 14.020202) rotate(18.000000) translate(-27.482597, -14.020202) "></path>
                                            <g id="t-link" transform="translate(25.370370, 25.362963) scale(-1, 1) translate(-25.370370, -25.362963) ">
                                                <path d="M21.140004,1.33872076 L21.140004,26.7016837 L33.8251892,26.7016837 L21.140004,1.33872076 Z" id="t" transform="translate(27.482597, 14.020202) rotate(18.000000) translate(-27.482597, -14.020202) "></path>
                                            </g>
                                        </g>
                                    </g>
                                    <g id="c-link" transform="translate(50.740741, 50.725926) rotate(144.000000) translate(-50.740741, -50.725926) translate(25.370370, 25.362963)">
                                        <g id="c">
                                            <path d="M21.140004,1.33872076 L21.140004,26.7016837 L33.8251892,26.7016837 L21.140004,1.33872076 Z" id="t" transform="translate(27.482597, 14.020202) rotate(18.000000) translate(-27.482597, -14.020202) "></path>
                                            <g id="t-link" transform="translate(25.370370, 25.362963) scale(-1, 1) translate(-25.370370, -25.362963) ">
                                                <path d="M21.140004,1.33872076 L21.140004,26.7016837 L33.8251892,26.7016837 L21.140004,1.33872076 Z" id="t" transform="translate(27.482597, 14.020202) rotate(18.000000) translate(-27.482597, -14.020202) "></path>
                                            </g>
                                        </g>
                                    </g>
                                </g>
                                <g id="a-link" transform="translate(50.740741, 50.725926) scale(-1, 1) translate(-50.740741, -50.725926) ">
                                    <g id="a">
                                        <g id="c-link" transform="translate(50.740741, 50.725926) rotate(72.000000) translate(-50.740741, -50.725926) translate(25.370370, 25.362963)">
                                            <g id="c">
                                                <path d="M21.140004,1.33872076 L21.140004,26.7016837 L33.8251892,26.7016837 L21.140004,1.33872076 Z" id="t" transform="translate(27.482597, 14.020202) rotate(18.000000) translate(-27.482597, -14.020202) "></path>
                                                <g id="t-link" transform="translate(25.370370, 25.362963) scale(-1, 1) translate(-25.370370, -25.362963) ">
                                                    <path d="M21.140004,1.33872076 L21.140004,26.7016837 L33.8251892,26.7016837 L21.140004,1.33872076 Z" id="t" transform="translate(27.482597, 14.020202) rotate(18.000000) translate(-27.482597, -14.020202) "></path>
                                                </g>
                                            </g>
                                        </g>
                                        <g id="c-link" transform="translate(50.740741, 50.725926) rotate(144.000000) translate(-50.740741, -50.725926) translate(25.370370, 25.362963)">
                                            <g id="c">
                                                <path d="M21.140004,1.33872076 L21.140004,26.7016837 L33.8251892,26.7016837 L21.140004,1.33872076 Z" id="t" transform="translate(27.482597, 14.020202) rotate(18.000000) translate(-27.482597, -14.020202) "></path>
                                                <g id="t-link" transform="translate(25.370370, 25.362963) scale(-1, 1) translate(-25.370370, -25.362963) ">
                                                    <path d="M21.140004,1.33872076 L21.140004,26.7016837 L33.8251892,26.7016837 L21.140004,1.33872076 Z" id="t" transform="translate(27.482597, 14.020202) rotate(18.000000) translate(-27.482597, -14.020202) "></path>
                                                </g>
                                            </g>
                                        </g>
                                    </g>
                                </g>
                            </g>
                        </g>
                        <g id="s-link" transform="translate(127.803241, 334.693525) rotate(72.000000) translate(-127.803241, -334.693525) translate(77.062500, 283.967599)">
                            <g id="s">
                                <g id="c" transform="translate(25.370370, 25.362963)">
                                    <path d="M21.140004,1.33872076 L21.140004,26.7016837 L33.8251892,26.7016837 L21.140004,1.33872076 Z" id="t" transform="translate(27.482597, 14.020202) rotate(18.000000) translate(-27.482597, -14.020202) "></path>
                                    <g id="t-link" transform="translate(25.370370, 25.362963) scale(-1, 1) translate(-25.370370, -25.362963) ">
                                        <path d="M21.140004,1.33872076 L21.140004,26.7016837 L33.8251892,26.7016837 L21.140004,1.33872076 Z" id="t" transform="translate(27.482597, 14.020202) rotate(18.000000) translate(-27.482597, -14.020202) "></path>
                                    </g>
                                </g>
                                <g id="a">
                                    <g id="c-link" transform="translate(50.740741, 50.725926) rotate(72.000000) translate(-50.740741, -50.725926) translate(25.370370, 25.362963)">
                                        <g id="c">
                                            <path d="M21.140004,1.33872076 L21.140004,26.7016837 L33.8251892,26.7016837 L21.140004,1.33872076 Z" id="t" transform="translate(27.482597, 14.020202) rotate(18.000000) translate(-27.482597, -14.020202) "></path>
                                            <g id="t-link" transform="translate(25.370370, 25.362963) scale(-1, 1) translate(-25.370370, -25.362963) ">
                                                <path d="M21.140004,1.33872076 L21.140004,26.7016837 L33.8251892,26.7016837 L21.140004,1.33872076 Z" id="t" transform="translate(27.482597, 14.020202) rotate(18.000000) translate(-27.482597, -14.020202) "></path>
                                            </g>
                                        </g>
                                    </g>
                                    <g id="c-link" transform="translate(50.740741, 50.725926) rotate(144.000000) translate(-50.740741, -50.725926) translate(25.370370, 25.362963)">
                                        <g id="c">
                                            <path d="M21.140004,1.33872076 L21.140004,26.7016837 L33.8251892,26.7016837 L21.140004,1.33872076 Z" id="t" transform="translate(27.482597, 14.020202) rotate(18.000000) translate(-27.482597, -14.020202) "></path>
                                            <g id="t-link" transform="translate(25.370370, 25.362963) scale(-1, 1) translate(-25.370370, -25.362963) ">
                                                <path d="M21.140004,1.33872076 L21.140004,26.7016837 L33.8251892,26.7016837 L21.140004,1.33872076 Z" id="t" transform="translate(27.482597, 14.020202) rotate(18.000000) translate(-27.482597, -14.020202) "></path>
                                            </g>
                                        </g>
                                    </g>
                                </g>
                                <g id="a-link" transform="translate(50.740741, 50.725926) scale(-1, 1) translate(-50.740741, -50.725926) ">
                                    <g id="a">
                                        <g id="c-link" transform="translate(50.740741, 50.725926) rotate(72.000000) translate(-50.740741, -50.725926) translate(25.370370, 25.362963)">
                                            <g id="c">
                                                <path d="M21.140004,1.33872076 L21.140004,26.7016837 L33.8251892,26.7016837 L21.140004,1.33872076 Z" id="t" transform="translate(27.482597, 14.020202) rotate(18.000000) translate(-27.482597, -14.020202) "></path>
                                                <g id="t-link" transform="translate(25.370370, 25.362963) scale(-1, 1) translate(-25.370370, -25.362963) ">
                                                    <path d="M21.140004,1.33872076 L21.140004,26.7016837 L33.8251892,26.7016837 L21.140004,1.33872076 Z" id="t" transform="translate(27.482597, 14.020202) rotate(18.000000) translate(-27.482597, -14.020202) "></path>
                                                </g>
                                            </g>
                                        </g>
                                        <g id="c-link" transform="translate(50.740741, 50.725926) rotate(144.000000) translate(-50.740741, -50.725926) translate(25.370370, 25.362963)">
                                            <g id="c">
                                                <path d="M21.140004,1.33872076 L21.140004,26.7016837 L33.8251892,26.7016837 L21.140004,1.33872076 Z" id="t" transform="translate(27.482597, 14.020202) rotate(18.000000) translate(-27.482597, -14.020202) "></path>
                                                <g id="t-link" transform="translate(25.370370, 25.362963) scale(-1, 1) translate(-25.370370, -25.362963) ">
                                                    <path d="M21.140004,1.33872076 L21.140004,26.7016837 L33.8251892,26.7016837 L21.140004,1.33872076 Z" id="t" transform="translate(27.482597, 14.020202) rotate(18.000000) translate(-27.482597, -14.020202) "></path>
                                                </g>
                                            </g>
                                        </g>
                                    </g>
                                </g>
                            </g>
                        </g>
                    </g>
                    <g id="l-link" transform="translate(305.395833, 203.854815) scale(-1, 1) translate(-305.395833, -203.854815) translate(203.914352, 0.951111)">
                        <g id="l">
                            <g id="s-link" transform="translate(0.000000, 152.177778)">
                                <g id="s">
                                    <g id="c" transform="translate(25.370370, 25.362963)">
                                        <path d="M21.140004,1.33872076 L21.140004,26.7016837 L33.8251892,26.7016837 L21.140004,1.33872076 Z" id="t" transform="translate(27.482597, 14.020202) rotate(18.000000) translate(-27.482597, -14.020202) "></path>
                                        <g id="t-link" transform="translate(25.370370, 25.362963) scale(-1, 1) translate(-25.370370, -25.362963) ">
                                            <path d="M21.140004,1.33872076 L21.140004,26.7016837 L33.8251892,26.7016837 L21.140004,1.33872076 Z" id="t" transform="translate(27.482597, 14.020202) rotate(18.000000) translate(-27.482597, -14.020202) "></path>
                                        </g>
                                    </g>
                                    <g id="a">
                                        <g id="c-link" transform="translate(50.740741, 50.725926) rotate(72.000000) translate(-50.740741, -50.725926) translate(25.370370, 25.362963)">
                                            <g id="c">
                                                <path d="M21.140004,1.33872076 L21.140004,26.7016837 L33.8251892,26.7016837 L21.140004,1.33872076 Z" id="t" transform="translate(27.482597, 14.020202) rotate(18.000000) translate(-27.482597, -14.020202) "></path>
                                                <g id="t-link" transform="translate(25.370370, 25.362963) scale(-1, 1) translate(-25.370370, -25.362963) ">
                                                    <path d="M21.140004,1.33872076 L21.140004,26.7016837 L33.8251892,26.7016837 L21.140004,1.33872076 Z" id="t" transform="translate(27.482597, 14.020202) rotate(18.000000) translate(-27.482597, -14.020202) "></path>
                                                </g>
                                            </g>
                                        </g>
                                        <g id="c-link" transform="translate(50.740741, 50.725926) rotate(144.000000) translate(-50.740741, -50.725926) translate(25.370370, 25.362963)">
                                            <g id="c">
                                                <path d="M21.140004,1.33872076 L21.140004,26.7016837 L33.8251892,26.7016837 L21.140004,1.33872076 Z" id="t" transform="translate(27.482597, 14.020202) rotate(18.000000) translate(-27.482597, -14.020202) "></path>
                                                <g id="t-link" transform="translate(25.370370, 25.362963) scale(-1, 1) translate(-25.370370, -25.362963) ">
                                                    <path d="M21.140004,1.33872076 L21.140004,26.7016837 L33.8251892,26.7016837 L21.140004,1.33872076 Z" id="t" transform="translate(27.482597, 14.020202) rotate(18.000000) translate(-27.482597, -14.020202) "></path>
                                                </g>
                                            </g>
                                        </g>
                                    </g>
                                    <g id="a-link" transform="translate(50.740741, 50.725926) scale(-1, 1) translate(-50.740741, -50.725926) ">
                                        <g id="a">
                                            <g id="c-link" transform="translate(50.740741, 50.725926) rotate(72.000000) translate(-50.740741, -50.725926) translate(25.370370, 25.362963)">
                                                <g id="c">
                                                    <path d="M21.140004,1.33872076 L21.140004,26.7016837 L33.8251892,26.7016837 L21.140004,1.33872076 Z" id="t" transform="translate(27.482597, 14.020202) rotate(18.000000) translate(-27.482597, -14.020202) "></path>
                                                    <g id="t-link" transform="translate(25.370370, 25.362963) scale(-1, 1) translate(-25.370370, -25.362963) ">
                                                        <path d="M21.140004,1.33872076 L21.140004,26.7016837 L33.8251892,26.7016837 L21.140004,1.33872076 Z" id="t" transform="translate(27.482597, 14.020202) rotate(18.000000) translate(-27.482597, -14.020202) "></path>
                                                    </g>
                                                </g>
                                            </g>
                                            <g id="c-link" transform="translate(50.740741, 50.725926) rotate(144.000000) translate(-50.740741, -50.725926) translate(25.370370, 25.362963)">
                                                <g id="c">
                                                    <path d="M21.140004,1.33872076 L21.140004,26.7016837 L33.8251892,26.7016837 L21.140004,1.33872076 Z" id="t" transform="translate(27.482597, 14.020202) rotate(18.000000) translate(-27.482597, -14.020202) "></path>
                                                    <g id="t-link" transform="translate(25.370370, 25.362963) scale(-1, 1) translate(-25.370370, -25.362963) ">
                                                        <path d="M21.140004,1.33872076 L21.140004,26.7016837 L33.8251892,26.7016837 L21.140004,1.33872076 Z" id="t" transform="translate(27.482597, 14.020202) rotate(18.000000) translate(-27.482597, -14.020202) "></path>
                                                    </g>
                                                </g>
                                            </g>
                                        </g>
                                    </g>
                                </g>
                            </g>
                            <g id="s-link" transform="translate(126.851852, 71.113882) rotate(216.000000) translate(-126.851852, -71.113882) translate(76.111111, 20.387956)">
                                <g id="s">
                                    <g id="c" transform="translate(25.370370, 25.362963)">
                                        <path d="M21.140004,1.33872076 L21.140004,26.7016837 L33.8251892,26.7016837 L21.140004,1.33872076 Z" id="t" transform="translate(27.482597, 14.020202) rotate(18.000000) translate(-27.482597, -14.020202) "></path>
                                        <g id="t-link" transform="translate(25.370370, 25.362963) scale(-1, 1) translate(-25.370370, -25.362963) ">
                                            <path d="M21.140004,1.33872076 L21.140004,26.7016837 L33.8251892,26.7016837 L21.140004,1.33872076 Z" id="t" transform="translate(27.482597, 14.020202) rotate(18.000000) translate(-27.482597, -14.020202) "></path>
                                        </g>
                                    </g>
                                    <g id="a">
                                        <g id="c-link" transform="translate(50.740741, 50.725926) rotate(72.000000) translate(-50.740741, -50.725926) translate(25.370370, 25.362963)">
                                            <g id="c">
                                                <path d="M21.140004,1.33872076 L21.140004,26.7016837 L33.8251892,26.7016837 L21.140004,1.33872076 Z" id="t" transform="translate(27.482597, 14.020202) rotate(18.000000) translate(-27.482597, -14.020202) "></path>
                                                <g id="t-link" transform="translate(25.370370, 25.362963) scale(-1, 1) translate(-25.370370, -25.362963) ">
                                                    <path d="M21.140004,1.33872076 L21.140004,26.7016837 L33.8251892,26.7016837 L21.140004,1.33872076 Z" id="t" transform="translate(27.482597, 14.020202) rotate(18.000000) translate(-27.482597, -14.020202) "></path>
                                                </g>
                                            </g>
                                        </g>
                                        <g id="c-link" transform="translate(50.740741, 50.725926) rotate(144.000000) translate(-50.740741, -50.725926) translate(25.370370, 25.362963)">
                                            <g id="c">
                                                <path d="M21.140004,1.33872076 L21.140004,26.7016837 L33.8251892,26.7016837 L21.140004,1.33872076 Z" id="t" transform="translate(27.482597, 14.020202) rotate(18.000000) translate(-27.482597, -14.020202) "></path>
                                                <g id="t-link" transform="translate(25.370370, 25.362963) scale(-1, 1) translate(-25.370370, -25.362963) ">
                                                    <path d="M21.140004,1.33872076 L21.140004,26.7016837 L33.8251892,26.7016837 L21.140004,1.33872076 Z" id="t" transform="translate(27.482597, 14.020202) rotate(18.000000) translate(-27.482597, -14.020202) "></path>
                                                </g>
                                            </g>
                                        </g>
                                    </g>
                                    <g id="a-link" transform="translate(50.740741, 50.725926) scale(-1, 1) translate(-50.740741, -50.725926) ">
                                        <g id="a">
                                            <g id="c-link" transform="translate(50.740741, 50.725926) rotate(72.000000) translate(-50.740741, -50.725926) translate(25.370370, 25.362963)">
                                                <g id="c">
                                                    <path d="M21.140004,1.33872076 L21.140004,26.7016837 L33.8251892,26.7016837 L21.140004,1.33872076 Z" id="t" transform="translate(27.482597, 14.020202) rotate(18.000000) translate(-27.482597, -14.020202) "></path>
                                                    <g id="t-link" transform="translate(25.370370, 25.362963) scale(-1, 1) translate(-25.370370, -25.362963) ">
                                                        <path d="M21.140004,1.33872076 L21.140004,26.7016837 L33.8251892,26.7016837 L21.140004,1.33872076 Z" id="t" transform="translate(27.482597, 14.020202) rotate(18.000000) translate(-27.482597, -14.020202) "></path>
                                                    </g>
                                                </g>
                                            </g>
                                            <g id="c-link" transform="translate(50.740741, 50.725926) rotate(144.000000) translate(-50.740741, -50.725926) translate(25.370370, 25.362963)">
                                                <g id="c">
                                                    <path d="M21.140004,1.33872076 L21.140004,26.7016837 L33.8251892,26.7016837 L21.140004,1.33872076 Z" id="t" transform="translate(27.482597, 14.020202) rotate(18.000000) translate(-27.482597, -14.020202) "></path>
                                                    <g id="t-link" transform="translate(25.370370, 25.362963) scale(-1, 1) translate(-25.370370, -25.362963) ">
                                                        <path d="M21.140004,1.33872076 L21.140004,26.7016837 L33.8251892,26.7016837 L21.140004,1.33872076 Z" id="t" transform="translate(27.482597, 14.020202) rotate(18.000000) translate(-27.482597, -14.020202) "></path>
                                                    </g>
                                                </g>
                                            </g>
                                        </g>
                                    </g>
                                </g>
                            </g>
                            <g id="s-link" transform="translate(71.134651, 126.814815) rotate(144.000000) translate(-71.134651, -126.814815) translate(20.393911, 76.088889)">
                                <g id="s">
                                    <g id="c" transform="translate(25.370370, 25.362963)">
                                        <path d="M21.140004,1.33872076 L21.140004,26.7016837 L33.8251892,26.7016837 L21.140004,1.33872076 Z" id="t" transform="translate(27.482597, 14.020202) rotate(18.000000) translate(-27.482597, -14.020202) "></path>
                                        <g id="t-link" transform="translate(25.370370, 25.362963) scale(-1, 1) translate(-25.370370, -25.362963) ">
                                            <path d="M21.140004,1.33872076 L21.140004,26.7016837 L33.8251892,26.7016837 L21.140004,1.33872076 Z" id="t" transform="translate(27.482597, 14.020202) rotate(18.000000) translate(-27.482597, -14.020202) "></path>
                                        </g>
                                    </g>
                                    <g id="a">
                                        <g id="c-link" transform="translate(50.740741, 50.725926) rotate(72.000000) translate(-50.740741, -50.725926) translate(25.370370, 25.362963)">
                                            <g id="c">
                                                <path d="M21.140004,1.33872076 L21.140004,26.7016837 L33.8251892,26.7016837 L21.140004,1.33872076 Z" id="t" transform="translate(27.482597, 14.020202) rotate(18.000000) translate(-27.482597, -14.020202) "></path>
                                                <g id="t-link" transform="translate(25.370370, 25.362963) scale(-1, 1) translate(-25.370370, -25.362963) ">
                                                    <path d="M21.140004,1.33872076 L21.140004,26.7016837 L33.8251892,26.7016837 L21.140004,1.33872076 Z" id="t" transform="translate(27.482597, 14.020202) rotate(18.000000) translate(-27.482597, -14.020202) "></path>
                                                </g>
                                            </g>
                                        </g>
                                        <g id="c-link" transform="translate(50.740741, 50.725926) rotate(144.000000) translate(-50.740741, -50.725926) translate(25.370370, 25.362963)">
                                            <g id="c">
                                                <path d="M21.140004,1.33872076 L21.140004,26.7016837 L33.8251892,26.7016837 L21.140004,1.33872076 Z" id="t" transform="translate(27.482597, 14.020202) rotate(18.000000) translate(-27.482597, -14.020202) "></path>
                                                <g id="t-link" transform="translate(25.370370, 25.362963) scale(-1, 1) translate(-25.370370, -25.362963) ">
                                                    <path d="M21.140004,1.33872076 L21.140004,26.7016837 L33.8251892,26.7016837 L21.140004,1.33872076 Z" id="t" transform="translate(27.482597, 14.020202) rotate(18.000000) translate(-27.482597, -14.020202) "></path>
                                                </g>
                                            </g>
                                        </g>
                                    </g>
                                    <g id="a-link" transform="translate(50.740741, 50.725926) scale(-1, 1) translate(-50.740741, -50.725926) ">
                                        <g id="a">
                                            <g id="c-link" transform="translate(50.740741, 50.725926) rotate(72.000000) translate(-50.740741, -50.725926) translate(25.370370, 25.362963)">
                                                <g id="c">
                                                    <path d="M21.140004,1.33872076 L21.140004,26.7016837 L33.8251892,26.7016837 L21.140004,1.33872076 Z" id="t" transform="translate(27.482597, 14.020202) rotate(18.000000) translate(-27.482597, -14.020202) "></path>
                                                    <g id="t-link" transform="translate(25.370370, 25.362963) scale(-1, 1) translate(-25.370370, -25.362963) ">
                                                        <path d="M21.140004,1.33872076 L21.140004,26.7016837 L33.8251892,26.7016837 L21.140004,1.33872076 Z" id="t" transform="translate(27.482597, 14.020202) rotate(18.000000) translate(-27.482597, -14.020202) "></path>
                                                    </g>
                                                </g>
                                            </g>
                                            <g id="c-link" transform="translate(50.740741, 50.725926) rotate(144.000000) translate(-50.740741, -50.725926) translate(25.370370, 25.362963)">
                                                <g id="c">
                                                    <path d="M21.140004,1.33872076 L21.140004,26.7016837 L33.8251892,26.7016837 L21.140004,1.33872076 Z" id="t" transform="translate(27.482597, 14.020202) rotate(18.000000) translate(-27.482597, -14.020202) "></path>
                                                    <g id="t-link" transform="translate(25.370370, 25.362963) scale(-1, 1) translate(-25.370370, -25.362963) ">
                                                        <path d="M21.140004,1.33872076 L21.140004,26.7016837 L33.8251892,26.7016837 L21.140004,1.33872076 Z" id="t" transform="translate(27.482597, 14.020202) rotate(18.000000) translate(-27.482597, -14.020202) "></path>
                                                    </g>
                                                </g>
                                            </g>
                                        </g>
                                    </g>
                                </g>
                            </g>
                            <g id="s-link" transform="translate(71.134651, 278.992593) rotate(72.000000) translate(-71.134651, -278.992593) translate(20.393911, 228.266667)">
                                <g id="s">
                                    <g id="c" transform="translate(25.370370, 25.362963)">
                                        <path d="M21.140004,1.33872076 L21.140004,26.7016837 L33.8251892,26.7016837 L21.140004,1.33872076 Z" id="t" transform="translate(27.482597, 14.020202) rotate(18.000000) translate(-27.482597, -14.020202) "></path>
                                        <g id="t-link" transform="translate(25.370370, 25.362963) scale(-1, 1) translate(-25.370370, -25.362963) ">
                                            <path d="M21.140004,1.33872076 L21.140004,26.7016837 L33.8251892,26.7016837 L21.140004,1.33872076 Z" id="t" transform="translate(27.482597, 14.020202) rotate(18.000000) translate(-27.482597, -14.020202) "></path>
                                        </g>
                                    </g>
                                    <g id="a">
                                        <g id="c-link" transform="translate(50.740741, 50.725926) rotate(72.000000) translate(-50.740741, -50.725926) translate(25.370370, 25.362963)">
                                            <g id="c">
                                                <path d="M21.140004,1.33872076 L21.140004,26.7016837 L33.8251892,26.7016837 L21.140004,1.33872076 Z" id="t" transform="translate(27.482597, 14.020202) rotate(18.000000) translate(-27.482597, -14.020202) "></path>
                                                <g id="t-link" transform="translate(25.370370, 25.362963) scale(-1, 1) translate(-25.370370, -25.362963) ">
                                                    <path d="M21.140004,1.33872076 L21.140004,26.7016837 L33.8251892,26.7016837 L21.140004,1.33872076 Z" id="t" transform="translate(27.482597, 14.020202) rotate(18.000000) translate(-27.482597, -14.020202) "></path>
                                                </g>
                                            </g>
                                        </g>
                                        <g id="c-link" transform="translate(50.740741, 50.725926) rotate(144.000000) translate(-50.740741, -50.725926) translate(25.370370, 25.362963)">
                                            <g id="c">
                                                <path d="M21.140004,1.33872076 L21.140004,26.7016837 L33.8251892,26.7016837 L21.140004,1.33872076 Z" id="t" transform="translate(27.482597, 14.020202) rotate(18.000000) translate(-27.482597, -14.020202) "></path>
                                                <g id="t-link" transform="translate(25.370370, 25.362963) scale(-1, 1) translate(-25.370370, -25.362963) ">
                                                    <path d="M21.140004,1.33872076 L21.140004,26.7016837 L33.8251892,26.7016837 L21.140004,1.33872076 Z" id="t" transform="translate(27.482597, 14.020202) rotate(18.000000) translate(-27.482597, -14.020202) "></path>
                                                </g>
                                            </g>
                                        </g>
                                    </g>
                                    <g id="a-link" transform="translate(50.740741, 50.725926) scale(-1, 1) translate(-50.740741, -50.725926) ">
                                        <g id="a">
                                            <g id="c-link" transform="translate(50.740741, 50.725926) rotate(72.000000) translate(-50.740741, -50.725926) translate(25.370370, 25.362963)">
                                                <g id="c">
                                                    <path d="M21.140004,1.33872076 L21.140004,26.7016837 L33.8251892,26.7016837 L21.140004,1.33872076 Z" id="t" transform="translate(27.482597, 14.020202) rotate(18.000000) translate(-27.482597, -14.020202) "></path>
                                                    <g id="t-link" transform="translate(25.370370, 25.362963) scale(-1, 1) translate(-25.370370, -25.362963) ">
                                                        <path d="M21.140004,1.33872076 L21.140004,26.7016837 L33.8251892,26.7016837 L21.140004,1.33872076 Z" id="t" transform="translate(27.482597, 14.020202) rotate(18.000000) translate(-27.482597, -14.020202) "></path>
                                                    </g>
                                                </g>
                                            </g>
                                            <g id="c-link" transform="translate(50.740741, 50.725926) rotate(144.000000) translate(-50.740741, -50.725926) translate(25.370370, 25.362963)">
                                                <g id="c">
                                                    <path d="M21.140004,1.33872076 L21.140004,26.7016837 L33.8251892,26.7016837 L21.140004,1.33872076 Z" id="t" transform="translate(27.482597, 14.020202) rotate(18.000000) translate(-27.482597, -14.020202) "></path>
                                                    <g id="t-link" transform="translate(25.370370, 25.362963) scale(-1, 1) translate(-25.370370, -25.362963) ">
                                                        <path d="M21.140004,1.33872076 L21.140004,26.7016837 L33.8251892,26.7016837 L21.140004,1.33872076 Z" id="t" transform="translate(27.482597, 14.020202) rotate(18.000000) translate(-27.482597, -14.020202) "></path>
                                                    </g>
                                                </g>
                                            </g>
                                        </g>
                                    </g>
                                </g>
                            </g>
                            <g id="s-link" transform="translate(126.851852, 334.693525) rotate(72.000000) translate(-126.851852, -334.693525) translate(76.111111, 283.967599)">
                                <g id="s">
                                    <g id="c" transform="translate(25.370370, 25.362963)">
                                        <path d="M21.140004,1.33872076 L21.140004,26.7016837 L33.8251892,26.7016837 L21.140004,1.33872076 Z" id="t" transform="translate(27.482597, 14.020202) rotate(18.000000) translate(-27.482597, -14.020202) "></path>
                                        <g id="t-link" transform="translate(25.370370, 25.362963) scale(-1, 1) translate(-25.370370, -25.362963) ">
                                            <path d="M21.140004,1.33872076 L21.140004,26.7016837 L33.8251892,26.7016837 L21.140004,1.33872076 Z" id="t" transform="translate(27.482597, 14.020202) rotate(18.000000) translate(-27.482597, -14.020202) "></path>
                                        </g>
                                    </g>
                                    <g id="a">
                                        <g id="c-link" transform="translate(50.740741, 50.725926) rotate(72.000000) translate(-50.740741, -50.725926) translate(25.370370, 25.362963)">
                                            <g id="c">
                                                <path d="M21.140004,1.33872076 L21.140004,26.7016837 L33.8251892,26.7016837 L21.140004,1.33872076 Z" id="t" transform="translate(27.482597, 14.020202) rotate(18.000000) translate(-27.482597, -14.020202) "></path>
                                                <g id="t-link" transform="translate(25.370370, 25.362963) scale(-1, 1) translate(-25.370370, -25.362963) ">
                                                    <path d="M21.140004,1.33872076 L21.140004,26.7016837 L33.8251892,26.7016837 L21.140004,1.33872076 Z" id="t" transform="translate(27.482597, 14.020202) rotate(18.000000) translate(-27.482597, -14.020202) "></path>
                                                </g>
                                            </g>
                                        </g>
                                        <g id="c-link" transform="translate(50.740741, 50.725926) rotate(144.000000) translate(-50.740741, -50.725926) translate(25.370370, 25.362963)">
                                            <g id="c">
                                                <path d="M21.140004,1.33872076 L21.140004,26.7016837 L33.8251892,26.7016837 L21.140004,1.33872076 Z" id="t" transform="translate(27.482597, 14.020202) rotate(18.000000) translate(-27.482597, -14.020202) "></path>
                                                <g id="t-link" transform="translate(25.370370, 25.362963) scale(-1, 1) translate(-25.370370, -25.362963) ">
                                                    <path d="M21.140004,1.33872076 L21.140004,26.7016837 L33.8251892,26.7016837 L21.140004,1.33872076 Z" id="t" transform="translate(27.482597, 14.020202) rotate(18.000000) translate(-27.482597, -14.020202) "></path>
                                                </g>
                                            </g>
                                        </g>
                                    </g>
                                    <g id="a-link" transform="translate(50.740741, 50.725926) scale(-1, 1) translate(-50.740741, -50.725926) ">
                                        <g id="a">
                                            <g id="c-link" transform="translate(50.740741, 50.725926) rotate(72.000000) translate(-50.740741, -50.725926) translate(25.370370, 25.362963)">
                                                <g id="c">
                                                    <path d="M21.140004,1.33872076 L21.140004,26.7016837 L33.8251892,26.7016837 L21.140004,1.33872076 Z" id="t" transform="translate(27.482597, 14.020202) rotate(18.000000) translate(-27.482597, -14.020202) "></path>
                                                    <g id="t-link" transform="translate(25.370370, 25.362963) scale(-1, 1) translate(-25.370370, -25.362963) ">
                                                        <path d="M21.140004,1.33872076 L21.140004,26.7016837 L33.8251892,26.7016837 L21.140004,1.33872076 Z" id="t" transform="translate(27.482597, 14.020202) rotate(18.000000) translate(-27.482597, -14.020202) "></path>
                                                    </g>
                                                </g>
                                            </g>
                                            <g id="c-link" transform="translate(50.740741, 50.725926) rotate(144.000000) translate(-50.740741, -50.725926) translate(25.370370, 25.362963)">
                                                <g id="c">
                                                    <path d="M21.140004,1.33872076 L21.140004,26.7016837 L33.8251892,26.7016837 L21.140004,1.33872076 Z" id="t" transform="translate(27.482597, 14.020202) rotate(18.000000) translate(-27.482597, -14.020202) "></path>
                                                    <g id="t-link" transform="translate(25.370370, 25.362963) scale(-1, 1) translate(-25.370370, -25.362963) ">
                                                        <path d="M21.140004,1.33872076 L21.140004,26.7016837 L33.8251892,26.7016837 L21.140004,1.33872076 Z" id="t" transform="translate(27.482597, 14.020202) rotate(18.000000) translate(-27.482597, -14.020202) "></path>
                                                    </g>
                                                </g>
                                            </g>
                                        </g>
                                    </g>
                                </g>
                            </g>
                        </g>
                    </g>
                </g>
            </g>
        </g>
    </g>
</svg>