<svg xmlns="http://www.w3.org/2000/svg" id="flag-icon-css-fj" width="512" height="512">
  <path fill="#68bfe5" d="M0 0v512.08h511.99v-85.2h.01V.08H321.95V0H0z"/>
  <g stroke-miterlimit="4.8">
    <path fill="#fff" d="M310.24 254.06v136.36c0 44.6 80.58 71.08 80.58 71.08s80.59-26.49 80.59-71.08V254.06z"/>
    <path fill="#d21034" d="M379.65 301.97v61.4h-69.4v22.34h69.4v71.53l11.17 4.26 11.17-4.26v-71.53h69.41v-22.34H402v-61.4z"/>
    <path fill="#d21034" d="M310.24 254.06h161.17v52.66H310.24z"/>
    <g stroke-miterlimit="3">
      <g fill="#fff" stroke="#000" stroke-width=".81" transform="translate(-207.55 158.36) scale(.66486)">
        <ellipse cx="798.23" cy="192.21" stroke-width=".8" rx="13.62" ry="10.96"/>
        <ellipse cx="798.23" cy="186.53" rx="12.11" ry="6.12"/>
        <ellipse cx="798.23" cy="198.77" rx="12.11" ry="6.12"/>
        <ellipse cx="798.23" cy="192.21" rx="12.11" ry="6.12"/>
      </g>
      <path fill="#ffd100" stroke="#000" stroke-width=".8" d="M467.42 296.27l-1.32-3.64s-3.62-1.47-3.9-3.4c-.63-5.1-2.46-7.02-5.2-7.75a5.97 5.97 0 0 0-4.56.45c-.83 1.2-4.94 1.2-7.22 1.28-2.29.1-2.33-1-2.33-1-1.77.02-2.52-1.28-2.52-1.28-1.16-2.32-2.02-3.19-2.6-3.48 2.97.04 5.2-1.32 8.55-4.83 3.65-3.84 6.26-2.36 6.26-2.36-1.78 3.59.59 3.27.59 3.27 4.84-2.47.63-8.68-.83-8.4-1.46.27-1.87-.71-1.87-.71.04 1.11-1.63 1.55-1.63 1.55 1.25-7.1-2.98-8.97-2.98-8.97-.64.64-1 1.91-1 1.91-1.2 4.3-5.12 3.66-9.51 1.56-4.38-2.1-16.08 2.19-19.73 3.65-3.65 1.46-10.32 3.75-16.35.36-6.03-3.38-7.5-2.74-9.87-2.1-2.37.64-6.57 1.65-8.12.83-1.56-.83-3.33-.88-3.33-.88.42-.23-.24-1.22-.24-1.22-1.82-2.47.24-3.98.24-3.98s-3.4.96-2.05 6.76l.63.87s.45 1.83 1.46 2.37l-.04.4s.86-.4 1.13.8c.28 1.18 1.56.08 2.1-.92 0 0-.91 5.3 5.67 6.58 0 0-.74-.83-.46-1.37.27-.55-.82-1.01-.73-1.83.1-.82-1.64-1.19-.27-1.83 1.36-.64 2-1.92 4.93-.18 2.92 1.73 5.2 1.37 5.2 1.37s-1.77-3.66-.8-3.66c.99 0 5.4 5.47 7.58 5.2 2.18-.26 6.38-2.73 8.48-1.82 0 0 .18-1.1 8.22-2.46 8.04-1.37 17.96-5.38 21.67-1.87 0 0 .44 2.78 1.99 3.51 0 0-.28 5.76-10.23 2.56l-3.6-.95s-.56-1.75-19.5 3.12c0 0-1.1.39-1.84.94-.73.54-1.74-.28-5.48 1.09s-17.72 5.94-26.3 4.3l-.02.02c-1.89-.57-3.66-.28-3.73-.57-.1-.37 1 .09 1 .09-.63-.73-.9-.8-.9-.8-7.22-.78-5.95-4.04-5.95-4.04l.37 1c1.19-1.55-.46-5.2-.46-5.2h-.07a3.78 3.78 0 0 0-.07-.33l.6-.4c3.47-2.93 7.5-3.48 7.5-3.48-2.39-2.92-7.41-1.37-7.41-1.37.1-3.56-1.37-7.67-1.37-7.67-4.93.55-7.76 4.66-7.76 4.66-.19-3.66-4.85-5.76-4.85-5.76 1.74 2.1.64 7.13.64 7.13l.19.09h-.46l-.1 1.08-.18-.08s-1.73.64-3.74 5.21c0 0-.2 1.08-.98 2.05v-.37s-2.25 2.94-7.44 0c0 0-7.04-4.18-9.52-4.02-2.48.15-4.1 1.31-3.95 2 0 0-5.65-.46-7.59 2.8 0 0-4.25 1.54-.61 5.03 0 0 .48 1.5 1.54 2.32 0 0-.15-3.18.62-2.24 0 0 .2.3.58.53.1.44.45 1.68 1.2 2.31l.55-.17c.08-.8.25-1.8.43-2.22l.18.03-.07.06 1 1.54 1.16-.62c.55-.07 1.24.47 1.24.47l1.32-1.08c0-.02-.02-.02-.02-.03 1.3.22 1.65-2.3 1.65-2.3 1.16.3 2.25-.03 3.18-.6.56 2.09 5.18 4.32 5.18 4.32l.2-.01c-.4.25-.63.43-.63.43 2.1 1.47 6.03 1.1 6.03 1.1-1.64.64-1.41 3.68-1.41 3.68-.96.4-1.05 1.34-1.05 1.34 3.2 1.28 5.38.22 5.38.22.17 1.04-.09 1.15-.09 1.15-1.27 2.74-1.82 5.4-1.82 5.4l.09.02c-.04.07-.1.14-.12.22 0 0-5.58 1.93-8.05 4.64 0 0-.24-.77-.93-.77-.7 0-2.87-1.78-3.88-2.1-1-.3-2.47.32-2.86-.15-.35-.42-.2-3.59-.86-4.1h.01l-.7-1.93c-.46 1-2.4.77-2.4.77a21.9 21.9 0 0 0-.8.58c-.38.02-.82-.12-.82-.12-.2.04-.4.6-.54 1.14a12.04 12.04 0 0 0-.24.18v-.54c-.38.3-1.16-.16-1.47-.16-.15 0-.34.45-.49.9-.79.15-1.83.19-1.83.19-.3.15-.08 2.55-.08 2.55-2.24 1.24-1.16 3.1-1.16 3.1 1.24 6.04 11.54 3.33 12.31 4.1.77.78 2.55.93 3.48.93.93 0 2.1 2.25 3.41 2.48 1.32.23 0-1.78 6.1-3.24 6.1-1.46 8.14-3.96 8.14-3.96 1.91-.37 2.45-2.7 2.59-3.63.02.43.07.9.14 1.45.27 2.1-1.18 2.87-1.18 2.87l5.29-1.59c2.1-.54 1.83-2.37 1.83-2.37 2 5.75 5.66 6.12 5.66 6.12.73-2.2.64-2.84.64-2.84l1.64-.09c.07-1.23-1.02-2.14-1.66-2.56l2.58 1.56 1-.18c0 .91 1.37 1.73 1.37 1.73l.18-1.18c1.2 1.55 3.38 1 3.38 1a7.34 7.34 0 0 0-.19-.85c4.68 2.89 12.16-.8 12.16-.8 2 .46 2.28-.73 2.28-.73 2.28.28 2.81-1.28 2.81-1.28 5.38-.47 9.16-4.29 9.16-4.29 2.65-.18 2.73-2.07 2.73-2.07s2.66.52 5.22-2.68c5.93-8.5 14.81-4.07 14.81-4.07l-5.13.33c-13.43-.1-7.86 9.04-7.86 9.04l.82-.1c1.28.28 5.67 3.75 4.05 6.34l-.09.13c-2.74 3.74-7.8.17-9.25-3-1.47-3.19-4.39-2.46-4.39-2.46s-7.58 1.28-4.47 7.31h.11c.06 1.48.98 3.15 3.68 4.82 1.52 2.15 6.52 2.37 10.18 1.58 1.71-.38 10.71-4.25 10.71-4.25.66-1.96 2.9-1.5 4.91-4.34 2.01-2.83-2.83-3.84-3.93-5.39-1.1-1.55.28-1.28.28-1.28 4.38 2.38 4.75-5.2 4.75-5.2a6.57 6.57 0 0 0 4.3 5.57c2.37-2.38.63-7.22.63-7.22 5.67 10.14 9.1 8.53 9.1 8.53-3.05-1.9-1.52-4.42-1.52-4.42 2.74 10.78 13.98 1.37 13.98 1.37-.55 1.55 0 2.47 1 3.47s2.2 1.46 1.65 3.3c-.55 1.82-5.75 1.45-5.75 1.45s-5.12-.27-4.66 4.02c.27 1 3.65 1.37 4.93 1.1 0 0-.53.11 1.36.37.64.08 1.4.1 2.18.07 2.18-.07 4.5-.44 4.5-.44 2.92-.64 2.47-1.65 2.47-1.65 4.47-.82 4.93-3.84 4.93-3.84z"/>
      <path d="M318.99 277.57s.24-.57.69-.63c.35-.06.77.2 1.22.74l.24-.18c-.01-.02-1.2-1.76-.73-2.99.21-.55.74-.92 1.57-1.1l-.07-.3c-.93.2-1.53.64-1.79 1.3a2.09 2.09 0 0 0-.13.75c0 .6.21 1.2.43 1.67a1.15 1.15 0 0 0-.79-.2c-.46.07-.68.4-.8.62zm140.98 23.92c-3.05.49-7.53.75-7.89-.17-.06-.16-.07-.82 2.43-2.45l-.3-.45c-2.08 1.36-2.92 2.34-2.63 3.1.64 1.65 7.18.7 8.49.5zm-58.38 1.76c-.7-1.06-.38-2.52.93-4.33l-.43-.32c-1.46 2.01-1.77 3.68-.94 4.95z"/>
      <path d="M397.47 298.66c.07 1.84 1.37 3.55 3.86 5.07l.28-.45c-2.33-1.43-3.54-2.99-3.6-4.64-.1-2.53 2.58-4.49 2.6-4.5l-.3-.44c-.12.08-2.94 2.13-2.84 4.96zm52.05.68c-.83 1.24-.55 2.74-.54 2.8l.52-.1c0-.02-.24-1.35.47-2.4a3.05 3.05 0 0 1 2.06-1.22l-.1-.52c-1.08.2-1.9.69-2.4 1.44zm-119.25-23.37l-.17-.04-.02.17c0 .01-.24 1.63-.97 2.08a.76.76 0 0 1-.69.04l-1.24-.76c-.25-.22-.47-.38-.83-.28a1.8 1.8 0 0 1-.34-1.32c.09-.73.6-1.44 1.52-2.1l-.17-.24c-1 .71-1.56 1.49-1.66 2.3-.1.96.44 1.6.47 1.64l.07.08.1-.04c.28-.13.36-.05.63.19l1.35.81c.34.13.66.1.95-.06.76-.46 1.02-1.79 1.09-2.15 3.24.7 5.85-3.25 5.96-3.42l-.26-.17c-.02.05-2.68 4.08-5.8 3.27z"/>
      <path d="M322.5 275.36c-.16.66-.05 1.3.32 1.92.36.58.71.9 1.08.94.45.06.8-.27 1.12-.56.23-.22.45-.42.63-.4l.28.19.24-.2-.5-.3c-.31-.02-.58.22-.86.49-.28.25-.56.52-.87.48-.27-.04-.55-.3-.86-.8a2.16 2.16 0 0 1-.29-1.68c.35-1.45 2.08-2.51 2.1-2.52l-.16-.26c-.07.04-1.85 1.13-2.23 2.7zm-4.46 20.65c.15-.56.58-1.03 1.27-1.42-.13.02.68.68 1.38.6l.45-.24c.18.16 1.4 1.26 1.4 2.65 0 .3-.06.6-.2.9l.3.12c.88-2.1-1.35-3.95-1.37-3.97l-.08-.06-.14.09-.4.21c-.56.06-1.3-.54-1.31-.55-.94.41-1.42.95-1.6 1.6zm10.32-5.34c-.67.05-2.53.4-3.13 1.37-.22.35-.26.74-.1 1.16l.25.65c.58 1.55 1.18 3.16 1.83 3.53l.15-.27c-.55-.3-1.16-1.94-1.7-3.37l-.24-.65a.94.94 0 0 1 .06-.88c.5-.8 2.17-1.18 2.9-1.24.43-.03.57 1.54.66 2.48l.3-.03c-.12-1.38-.25-2.81-.98-2.75z"/>
      <path d="M323.26 292.2c-.39.35-.31.87-.3.9 0 .14.17 4.03 2.02 4.83l.12-.28c-1.67-.72-1.84-4.55-1.84-4.58 0-.03-.06-.41.2-.65.29-.25.85-.26 1.62-.05l.08-.3c-.9-.24-1.53-.2-1.9.13z"/>
      <path d="M321.8 292.52c-.82.57-.79 2.19-.78 2.26h.3c0-.03-.03-1.54.65-2.01.26-.18.6-.19 1-.02l.11-.28c-.5-.21-.94-.2-1.28.05z"/>
      <g transform="translate(-207.55 158.36) scale(.66486)">
        <path d="M862.33 169.49c.02.04 1.31 2.94 1.31 5.3 0 .42-.2.72-.3 1.09-.04-.14-.5-1.37-.5-1.37l-.38.99c-.02.05-.53 1.38.38 2.88 1.2 1.98 4.19 3.24 8.88 3.76l.07.06a.85.85 0 0 0-.39.13l-.18.16.02.4c.12.48.68.5 1.78.55.2 0 .5.05.7.07l.57.15-.1-.11c1.07.07 2.28.34 3.58.83l-1 .25 1.17.46c.09.03 8.65 3.47 12.2 6.3-1.01.87-5.3 4.08-12.74 2.25l-1.25-.31.84.96c.06.06 4.9 5.62 5.9 8.99-1.68.02-8.18-.04-10.45-1.97l-.59.53c.03.05 3.12 4.58 3.8 8.1-.88.12-3 .21-4.25-1.43l-.57-.75-.32 2.04c-.6-.46-1.36-1.14-1.36-1.87v-.48l-1.84.34-3.76-2.29a7.97 7.97 0 0 0-.6-.36l-.04-.02-.03-.02-.39.7.58.35c.8.53 2.18 1.67 2.32 3.2l-2.44.13.04.42v.07c0 .25-.08 1.3-.85 3.68-1.15-.28-5.37-1.74-7.85-8.87l-.78.19.01.26c0 .65-.23 2.28-2.46 2.86l-6.45 1.94a4.5 4.5 0 0 0 .82-2.68c0-.26-.02-.54-.05-.84a20.3 20.3 0 0 1-.22-2.62c0-1.5.36-2.4 1.4-3.03l-.36-.72c-.1.04-9.62 3.82-14.34 2.25.22-.92 1.02-4.16 2.63-7.61l-.21.2c.31-.14.63-.62.36-2.17l-.08-.53-.49.23c-.03.02-3.05 1.37-7.41-.23.09-.36.32-1 1.23-1.38l.27-.11-.03-.3v-.52c0-1.18.18-3.94 1.87-4.6l-.18-.78c-.05 0-5.16.41-8.25-1.31.8-.56 2.52-1.6 4.5-1.88l.32-.04.02-.32a5.93 5.93 0 0 0-.5-2.3c1.18.33 2.6.62 3.1.25l.16-.13-.14-3.1-.8.04.12 2.56c-.5.03-1.8-.23-3.04-.62l-1.23-.4.8 1.03a4 4 0 0 1 .73 2.33 12.68 12.68 0 0 0-5.07 2.33l-.41.34.44.3c2.4 1.67 6.15 1.82 8.08 1.77-1.14 1.28-1.33 3.43-1.33 4.5v.38a3.13 3.13 0 0 0-1.57 2.18l-.03.3.28.12c4.13 1.64 6.94.85 7.9.5 0 .13.04.3.04.39 0 .38-.07.5-.07.5-2.03 4.24-2.88 8.28-2.89 8.32l-.07.33.32.13c3.83 1.53 10.7-.56 13.75-1.64-.4.7-.63 1.47-.63 2.43 0 .81.1 1.72.23 2.73.03.26.05.5.05.73 0 2.28-1.54 3.14-1.62 3.18l.3.74 7.96-2.4c1.84-.47 2.54-1.56 2.83-2.48 3.14 7.44 8.06 8.11 8.28 8.14l.32.03.1-.3c.77-2.3.95-3.45.98-4.02a439.55 439.55 0 0 0 2.46-.13l.02-.36v-.18c0-.66-.2-1.24-.48-1.76l1.37.83 1.32-.24c.35 1.33 1.93 2.37 2.13 2.5l.51.3.27-1.73c1.96 1.75 4.75 1.23 4.88 1.2l.36-.1-.06-.35c-.4-2.69-2.2-5.88-3.26-7.6 3.49 1.6 9.85 1.48 10.16 1.47l.48-.02-.1-.46c-.56-2.83-4.1-7.28-5.57-9.04 8.2 1.54 12.6-2.72 12.8-2.91l.29-.3-.32-.29c-2.76-2.4-9.11-5.19-11.67-6.25l.9-.23-.89-.5c-2.13-1.2-4.4-1.34-5.92-1.4l-.01-.02c-.97-1.11-1.46-1.29-1.59-1.32-5.55-.6-7.58-2.16-8.32-3.36-.06-.1-.03-.17-.07-.26l.24-.32c.54-.7.73-1.63.73-2.62 0-2.55-1.3-5.46-1.37-5.62l-.74.33z"/>
        <path d="M836.8 167.86c-.02.08-.6 3.12-3.2 4.54-1.94 1.07-4.52.99-7.64-.26l-.35-.14.04.37a5 5 0 0 0 1.9 3.18c1.4 1.09 3.4 1.47 5.92 1.2-.84 1-3.54 4.45-3.54 7.8 0 .17 0 .35.02.53.35.24 4.58 1.39 6.55-1.12.07 1.08.38 4.52 1.72 5.87.74.73.91 1.8.91 2.66 0 .77-.14 1.37-.14 1.38l-.16.61.52-.37c.16-.12 4.05-2.97 5.3-6.7 0 0 .62-.95 1.82-1.33-.02.16-.04.33-.04.56 0 1.44.63 4.06 4.83 5.67l.35.13-.03-.36a7.13 7.13 0 0 1-.03-.73c0-1.05.14-3 1.15-4 .66-.66.86-1.4.86-2.05 0-.5-.11-.91-.23-1.22.85.22 2.86.87 3.67 2.4 1.19 2.22 5.34.45 5.52.37l-.14-.43c-.02 0-1.75.39-2.84-.36a2.11 2.11 0 0 1-.87-1.51l-.2-2.31c-.03-1.05-.18-1.71-.7-2.27.55-.05 1.65-.03 2.11 1 .74 1.61 3.26 1.77 3.36 1.78l.86.05-.72-.47c-.03-.02-2.2-1.46-1.82-3.34l.3-1.37c.6-2.48 1.6-6.64.79-9.19l-.44.14c.2.64.28 1.4.28 2.2 0 2.26-.64 4.94-1.07 6.74l-.32 1.4a2.6 2.6 0 0 0-.05.53c0 1.22.8 2.15 1.4 2.7-.73-.15-1.76-.5-2.14-1.36-.6-1.33-2.23-1.39-3-1.23l-.55.1.46.31c.73.49.75 1.06.8 2.3l.2 2.35c.11.8.47 1.42 1.06 1.83.51.35 1.12.4 1.67.44-1.24.32-2.93.52-3.54-.62-1.14-2.13-4.29-2.7-4.42-2.73l-.48-.08.24.42c.03.04.36.65.36 1.42 0 .55-.17 1.17-.73 1.74-1.12 1.12-1.3 3.16-1.3 4.3 0 .21.02.24.02.38-3.6-1.51-4.23-3.75-4.23-5.02 0-.54.1-.9.12-.94l.1-.36-.36.07c-1.75.28-2.47 1.7-2.5 1.77-1 2.99-3.71 5.36-4.7 6.14a6.88 6.88 0 0 0 .07-.9c0-.93-.2-2.12-1.05-2.97-1.43-1.43-1.62-5.97-1.62-6.02l-.03-.82-.4.72c-1.58 2.83-6.2 1.47-6.25 1.46-.2-3.58 3.87-8.16 3.91-8.21l.43-.47-.63.09c-2.65.38-4.71.03-6.12-1.06a4.63 4.63 0 0 1-1.65-2.5c3.08 1.15 5.66 1.21 7.65.11 2.77-1.53 3.38-4.67 3.4-4.8 2.92-6.6 5.46-7.65 5.49-7.66l-.16-.43c-.12.04-2.74 1.07-5.77 7.95z"/>
        <path d="M843.45 158.07h-.2l-2.36 3.25.7.07c12.83 1.25 19.62 8.99 19.68 9.07l.3.34 2.33-2.53-.17-.26c-6.51-10.24-20.14-9.94-20.28-9.94zm.22.8c1.59 0 13.27.37 19.19 9.33l-1.28 1.4c-1.39-1.44-7.96-7.58-19.24-8.9a631.23 631.23 0 0 1 1.33-1.83z"/>
        <path d="M841.6 164.84c-1.1 1.5-2.11 3.7-2.11 4.74 0 .2.03.36.12.45l.06.03c-1.34 1.2-2.13 3.2-2.13 5.46 0 1.24.22 2.54.68 3.77l.25.7c1.26 3.42 2.35 6.38 7.8 4.64 5.24-1.68 5.44-2.01 6.76-4.19l.35-.56c.72-1.17 1.5-1.4 2.34-1.66 1-.3 2.03-.6 2.94-2.4l.88-1.32c.96-1.31 2.15-2.94 2.29-5.02l-.46-.03c-.13 1.95-1.28 3.51-2.2 4.78l-.92 1.38a3.65 3.65 0 0 1-2.66 2.17 3.9 3.9 0 0 0-2.6 1.85l-.36.57c-1.27 2.1-1.43 2.37-6.5 4-5.03 1.6-5.95-.9-7.23-4.37l-.25-.7c-1.43-3.82-.31-7.67 1.55-9.05l.64-.48-.89.1-.02-.13c0-.62.68-2.6 2.04-4.46 1.16-1.58 3.89-3.14 3.92-3.16l-.23-.4c-.12.07-2.85 1.63-4.06 3.29z"/>
        <path d="M839.16 178.65c.9.62 2.17.58 3.7 0 0 .54.12 1.7 1.07 2.54 1.12.99 2.96 1.18 5.5.57l-.1-.44c-2.38.56-4.1.4-5.1-.47-1.07-.95-.92-2.45-.91-2.47l.04-.39-.37.16c-1.53.66-2.74.7-3.57.12-1.5-1.04-1.38-3.75-1.38-3.79l-.46-.02c0 .13-.13 3 1.58 4.19z"/>
        <path d="M842.07 174.99c-.66.16-.83.7-.83 1.13 0 .1.01.2.03.28.11 1.18 1.4 1.97 2.56 2.3 1.13.33 2.53.36 3.08-.35.22-.28.38-.8-.1-1.61-1.75-2.98-4.58-1.81-4.74-1.75zm1.89 3.27c-1.02-.29-2.14-.95-2.23-1.93-.03-.1-.14-.75.44-.9h.05a3.25 3.25 0 0 1 4.19 1.54c.28.48.33.85.13 1.1-.34.44-1.45.52-2.58.2zm-1.94-3.25l.05-.02-.05.02zm1.63 5.97c-.3 2.51-.11 2.57.07 2.63l.16.05.18-.21 1.45-1.92-1.83-.87-.03.32zm.42.38l.74.34-.85 1.11c.01-.37.06-.9.11-1.45zm-4.21-2.4l-.1 2.38 2-2.42-1.89-.2-.01.24zm.45.27l.55.06-.58.7.03-.76z"/>
        <path d="M838.53 178.2c.02.03 1.48 2.9 1.75 3.95.16.66 1.01 1.42 2.02 1.8 1.01.37 1.96.31 2.66-.18l1.33-1.1c.44-.43.58-.55.94-.48l.08-.46c-.6-.1-.9.18-1.34.6l-1.27 1.06c-.78.55-1.74.32-2.24.12-.95-.35-1.63-1.02-1.74-1.48-.28-1.09-1.72-3.92-1.78-4.04l-.41.21zm1.91-8.6c-1.62.75-2.3 2.71-2.33 2.8l.43.15c0-.02.66-1.87 2.1-2.53a2.9 2.9 0 0 1 2.34.02l.17-.42c-.98-.4-1.89-.4-2.71-.02zm10.89 5.16c.13.1 3.19 2.41 1.43 5.24l.39.25c1.98-3.2-1.51-5.83-1.55-5.86l-.27.37zm-9.2.45s-.48 1.73 1.96 2.34c0 0-2.3-.02-2.44-.61-.15-.6.02-1.9.48-1.73zm7.44 2.07c0 .15-.12.27-.27.27a.28.28 0 0 1-.27-.27c0-.15.12-.27.27-.27.15 0 .27.12.27.27zm.27 1.08c0 .15-.12.27-.27.27a.27.27 0 0 1-.27-.27.27.27 0 0 1 .27-.27c.15 0 .27.12.27.27z"/>
        <circle cx="848.01" cy="177.82" r=".27"/>
        <path d="M848.75 179.45a.27.27 0 1 1-.54 0c0-.15.12-.28.27-.28.15 0 .27.13.27.28zm-7.1-7.32a.27.27 0 0 1-.55 0c0-.15.13-.27.27-.27.16 0 .28.12.28.27z"/>
        <circle cx="841.65" cy="173.22" r=".27"/>
        <circle cx="840.09" cy="172.68" r=".27"/>
        <path d="M840.83 174.3a.28.28 0 0 1-.28.27.27.27 0 0 1 0-.54.28.28 0 0 1 .28.27zm4.74-9.55s3.52 2.17.13 6.23c0 0 1.67-1.24 1.84-3.36.18-2.13-1.2-3.82-1.97-2.87zm13.5 5.84c-1.13.58-2.76-.5-3.58-1.51-.81-1.02-2.5-1.28-3.55.58-1.05 1.86-2.56 2.56-2.56 2.56s1.48-.87 3-2.5c1.51-1.63 2.38-.32 3.87.46 1.48.79 1.72.96 2.76.55l.06-.14z"/>
        <path d="M858.78 170.86a1.7 1.7 0 0 1-2.21-.09c-.9-.73-1.66-1.72-2.8-1.13-1.13.58-3.29 2.2-3.29 2.2s3.5-2.4 4.17-1.88c.67.52 2.24 1.8 3.2 1.43.96-.39.93-.53.93-.53z"/>
        <path d="M856.1 172.34c-1.1-.84-2.21.99-3.14.76-.93-.24-1.7-1.78-1.7-1.78s.88 1.63 2.1 1.25c1.23-.37 2.07-1.13 2.83-.55.75.58-.09.32-.09.32z"/>
        <path d="M854.37 172.57c-2.18.23-2.4-1.81-2.4-1.83 0 0 .69 1.78 2.62 1.45l-.22.38z"/>
        <path d="M854.3 171.18c.14.55.11.8-.47.8-.6 0-.99-.2-.99-.76 0-.57 1.37-.4 1.46-.04zm-7.84-3.03a.7.7 0 0 1-.7.69c-.39 0-.46-.26-.46-.64s.07-.73.46-.73.7.3.7.68z"/>
        <path d="M844.05 165.71s3.74.04 1.89 4.72c0 0 1.42-2.33.53-4-.9-1.68-2.3-1.26-2.3-1.26s-.35.32-.12.54z"/>
        <path d="M843.94 167.58c-.01.94.62 1.9 1.86 2.88l.28-.36c-1.12-.88-1.69-1.72-1.68-2.51 0-.79.61-1.25.62-1.26l-.28-.37c-.03.03-.79.6-.8 1.62z"/>
        <path d="M844.77 168.37c.16.54.58.95 1.24 1.21l.17-.42c-.52-.21-.85-.52-.97-.92-.24-.8.4-1.72.41-1.73l-.37-.27c-.04.05-.78 1.12-.48 2.13zm5.13 2.6s.7 1.51-.32 3.14c-1.02 1.63-1 1.55-1 1.55s1.23-2.24.77-3.18c-.47-.93.55-1.51.55-1.51zm14.55 15.79c3.84.72 12.51 7.52 12.6 7.59l.5-.64c-.37-.28-8.92-6.98-12.95-7.74l-.15.79zm3.41 9.59c.26 3.41 3.97 5.53 4.13 5.61l.39-.7c-.04-.01-3.5-2-3.72-4.97l-.8.06zm-9.21.71c0 3.82 3.58 8.45 3.74 8.65l.63-.5c-.03-.04-3.57-4.6-3.57-8.15h-.8zm-12.15.43c.63 1.26.57 1.9.4 2.21-.19.36-.58.41-.6.42l.1.8c.3-.04.89-.24 1.2-.82.39-.7.26-1.7-.38-2.96l-.72.35z"/>
      </g>
      <g fill="#fff" stroke="#000" stroke-width=".36">
        <path stroke-width=".24" d="M318.93 277.12s.15 1.7 1.47 2.72c0 0-.16-1.86.23-2.64 0 0-.7-.77-1.7-.08zm2.62 1.09s.31 1.54 1.24 2.24l.55-.15s.23-1.94.54-2.17c.3-.23-1.32.7-2.33.08z"/>
        <path stroke-width=".24" d="M323.88 278.13l1 1.55 1.17-.62-.24-1.86s-.7-.16-1.93.93z"/>
        <path stroke-width=".24" d="M328.6 278.44l-1.32 1.08s-.7-.54-1.24-.46l.24-1.7s.93-.7 2.32 1.08zm-9.37 16.02s-.23-2.4.08-2.55c0 0 .93.3 1.32-.08 0 0 .54 1.94.38 2.71-.15.77-1.08.47-1.78-.08zm5.97-2.48s-.08-2 .3-2.24c0 0 1.94.23 2.4-.78l.7 1.94s-2.17-.23-3.4 1.08z"/>
        <path stroke-width=".23" d="M323.1 292.37s.4-2.09.78-2.17c0 0 1 .31 1.32-.08l-.08 2.56s.08-1.08-2.01-.31zm-2.24.31s.46-1.86.78-1.86c.3 0 1.08.47 1.47.16v1.4s-1.7-.4-1.94 1.93l-.3-1.63z"/>
      </g>
    </g>
    <g fill="#00a651" stroke="#000" stroke-width=".78">
      <path stroke-width=".52" d="M351.04 331.22s5.26 4.9 3.88 9.15c0 0 3.39-7.27-.25-9.4-3.63-2.13-3.76-.5-3.63.25z"/>
      <path fill="#964b36" stroke-width=".52" d="M344.4 335.98s-1.38 1.88.12 3.26c0 0-1.62 2.38-.37 4.38 0 0-1 2.13-.75 4.39 0 0-.88 3.5 1 5.14 0 0 2 1 2.88.12 0 0 1.76-2.63.63-5.39 0 0 1.25-2.25-.13-5.13 0 0 .38-1.63-.75-3.51 0 0 .75-1.25.12-2.26 0 0-2.5-2.63-2.75-1z"/>
      <path stroke-width=".52" d="M345.9 329.84s-6.26-12.03-10.65-12.53c-4.39-.5-4.64-4.76-4.64-4.76s.5 2 4.01 2 10.28 4.89 11.03 8.65c.75 3.76 1.5 3.26 1.5 3.26l-1.25 3.38z"/>
      <path stroke-width=".52" d="M345.9 328.96s2.26-15.16 12.16-15.41 6.64.75 9.02-.88c0 0-6.64 3.51-10.78 4.01-4.13.5-7.52 8.52-7.4 10.03.13 1.5-2.25 4.38-3.37 3.38-1.13-1 .37-1.13.37-1.13z"/>
      <path stroke-width=".52" d="M348.15 334.6s2.26-6 6.14-4c0 0-3-5.77-8.4-.75 0 0 2.39 3.25 2.26 4.76zm-7.52-6.02s3.26 13.41-1.75 17.55c0 0 .12-6.89-2.88-11.03-3-4.13 3-8.64 4.63-6.52z"/>
      <path stroke-width=".52" d="M341.01 330.97s5.9 5.64 6.27 7.52c.38 1.88 1.75-5.64-1-7.77-2.76-2.13-5.77-2.5-5.77-2.5l.5 2.75z"/>
      <path fill="#964b36" stroke-width=".52" d="M330.15 345.75s.53 2.37 1.99 2.83c0 0 .07 1.76 1.37 2.29 0 0-.69 1.45.46 2.37 0 0-.23 2.9.84 3.51 0 0 2.6-.15 3.51-.92 0 0 .54-1.9-.91-3.82 0 0 .23-1.83-1.23-2.82 0 0 .46-2.45-1.37-3.36 0 0-.3-2-1.45-2.98 0 0-2.22 3.13-3.21 2.9z"/>
      <path stroke-width=".52" d="M333.05 342.85s-7.72-2.83-12 1.22c0 0 6.57.92 7.41 2.22.84 1.3 4.9-2.14 4.59-3.44z"/>
      <path stroke-width=".52" d="M330.68 347.66s-.6-.53-1.37-1.07c-.77-.53-7.26-2.3-8.18 3.97 0 0-2.37-6.18 1.07-7.03 3.44-.84 6.19 1.15 8.48 4.13m-5.08-12.8s2.38 5.13 3.26 5.39c.88.24 1.5-.63 1.5-.63s-3.13-4.64-4.76-4.77zm-1.75-7.9s-2.01-6.64-4.39-4.88c-2.38 1.75-1.75 6.51-1.75 6.51s-4.77-4.88-2.01-8.77c2.76-3.88 8.15.38 8.15 7.14z"/>
      <path fill="#964b36" stroke-width=".52" d="M329.24 340.62s0 1.25.88 1.63c.87.37 2.5 1 2.5.25s-1.25-3.64-1.75-3.26c-.5.38-1.38.37-1.63 1.38z"/>
      <path stroke-width=".52" d="M327.74 332.85s-.25-5.76 3.5-7.9c0 0 .76.14 1.13-1 0 0-3 7.27-2.13 10.9l-.12.51"/>
      <path stroke-width=".52" d="M328.49 325.83s6.76-14.03 15.04-9.15c0 0-8.65 1.76-11.78 7.9l-3.14 4.63-.12-3.38z"/>
      <path stroke-width=".52" d="M324.85 330.97s-2-9.4-3.26-10.65c-1.25-1.25-3.38-2.63-5.89-.5 0 0 4.39-3.89 9.02-.63 4.64 3.26 3.64 8.4 3.64 8.4l-.5 6.52-3.14-2.89"/>
      <path stroke-width=".52" d="M332.12 342.12s-8.27-15.66-13.66-4.5c0 0-1 2.87.12 4 0 0-3-2.25-1.63-7.77 1.38-5.5 10.53-3 13.16 1.5 2.63 4.52 3.39 6.78 3 7.02-.37.26-1-.25-1-.25zm23.3 4.52s6.02-12.41 9.53-6.77c0 0 1 2.75-.5 3.88 0 0-2.38-2.88-4.51.63-2.13 3.5-1.25 3.26-1.25 3.26s-2.26.63-3.26-1z"/>
      <path stroke-width=".52" d="M364.44 343.75s3.26 1.75 2.14 5.26c0 0 4.38-8.4-1.63-9.15 0 0 1.13 2.64-.5 3.89zm.38-8.52s7.9 2.26 8.15 5.64c0 0 1.38-6.52-3.14-8.52 0 0-5.38.88-5 2.88z"/>
      <path stroke-width=".52" d="M368.33 324.83c3.39-6.64 7.65 2.13 7.65 2.13s1.5-6.9-2.76-8.15-7.02 14.66-7.02 14.66l-5.01 1.13s1.38-13.9 8.9-15.16l.87.13"/>
      <path stroke-width=".52" d="M362.31 328.84s-4.76-9.78-8.01-10.78c-3.26-1 1.75-2.5 3.76-.62 2 1.87 5.76 4.26 5.38 9.27l-1.12 2.13zm-4.88 13.4s1.38-6.63 5.13-8.64c3.76-2 7.27-1.25 7.27-1.25s-4.5 1-5.26 3.26c-.75 2.25-2 2.38-2 2.38l-5.14 4.26z"/>
      <path fill="#964b36" stroke-width=".52" d="M355.43 346.64s-2.13 4-1.63 4.63c0 0-2.26 3.26-1.38 4.89 0 0 2.26 1.75 3.26 1 0 0 2.63-3.63 1.88-5.64 0 0 1.75-2.38 1.13-3.88 0 0-2.63.12-3.26-1z"/>
      <path fill="#000" stroke="none" d="M344.4 339.48c.15.07 1.41.68 2.26.4l.61-.52-.48-.24c-.31.62-1.69.1-2.15-.12l-.24.48zm-.2 3.88l-.1.53c.1.02 2.64.51 3.86-.56l-.36-.4c-1.01.9-3.38.44-3.4.43zm-.65 4.43l-.31.44c.03.02 2.98 2.12 4.87-.17l-.4-.34c-1.58 1.9-4.05.15-4.16.07zm-11.47.64l.1.29c.11-.05 2.62-1.05 2.78-2.88l-.3-.03c-.15 1.64-2.56 2.61-2.58 2.62zm1.41 2.29l.02.3c.1 0 2.41-.18 2.82-1.8l-.3-.07c-.35 1.4-2.51 1.57-2.54 1.57zm.48 2.36l-.02.31c.12 0 2.7.14 3.58-1.3l-.26-.15c-.78 1.28-3.27 1.15-3.3 1.15zm19.63-1.62c.05.05 1.17 1.15 2.47 1.1a2.3 2.3 0 0 0 1.68-.86l-.4-.35c-.38.43-.81.66-1.3.68-1.06.04-2.06-.93-2.07-.95l-.38.38z"/>
    </g>
    <g fill="#964b36" stroke="#000" stroke-width=".28">
      <path d="M431.42 360.62a1.1 1.1 0 0 0-.4.27l.4-.27zm9.22-2.3c-.1-.23-.15-.13-.27-.24-.17-.13-.27-.58-.41-.74-.1-.1-.2 0-.29-.03-.21-.48-.47-.98-.7-1.43a.4.4 0 0 0 .07-.22 7.61 7.61 0 0 0-.12-.4c-.06-.1-.16-.04-.22-.2-.07-.15-.02-.46-.04-.65-.02-.15-.08-.24-.07-.46 0-.18.1-.4.1-.57-.01-.1-.13-.34-.17-.42-.15-.36-.27-.7-.29-1.14-.02-.4.06-.65.1-1 .03-.41-.2-.61-.2-1 .01-.29.14-.62.17-.88.05-.36.05-.89.02-1.26-.02-.35-.12-.56-.07-.96.02-.1.06-.18.07-.31V345.55c0-.18.02-.4 0-.57-.01-.15-.1-.3-.1-.43 0-.2.13-.3.1-.57-.02-.2-.05-.25-.1-.42-.08-.33-.02-.66-.07-1-.03-.18-.08-.23-.1-.42-.02-.23.05-.3.07-.47.03-.16.05-.37.03-.54-.03-.2-.12-.34-.1-.56l-.07 2.5c-.06-2.18-.15-4.22-.15-4.22l-3.34-1.56s-.28 6.12-.2 6.98c.06.85.34 6.7.2 7.4-.14.72-.5 4.28-.5 4.28s-1.63 1.14-2.26 2.42c-.64 1.28-.5 1.71-.72 1.71l1.59-.25-1.18.8a.72.72 0 0 1 .73.1c.03.03.2.18.23.18.06 0 .15-.16.22-.19.25-.08.46.38.7.35.12-.02.29-.15.39-.29.08-.11.12-.31.2-.39.09-.07.28.01.37.01h.7c.31 0 .56-.44.85-.69.27-.22.46-.3.75-.28.31.02.6.31.9.33.25.01.42.04.61-.21.13-.18.23-.44.36-.62l.78-.12c.16.06.32.13.45.13.2-.01.41-.04.61 0 .08 0 .23.18.3.14.03-.03.1-.27.15-.35-.02-.1-.05-.33-.08-.41z"/>
      <path d="M433.89 360.51c.2 0 .38-.04.55.1l.08.16a.17.17 0 0 0 .17.02c.11.08.13.12.26.15.11.02.24 0 .36 0 .14 0 .21.05.35.1.24.1.4.01.6-.14.24-.17.33-.04.56.18.17.17.13.15.29.04a1.72 1.72 0 0 1 .07-.15l.24-.07c.12-.06.25-.05.37-.1.13-.05.22-.19.35-.16.12.02.25.12.36.15a.75.75 0 0 1 .24.12c.16-.32.51-.42.74-.58.23-.16.45.04.7.04.14 0 .2-.08.3-.11.1-.04.23.01.33-.03.11-.04.13-.15.26-.16.22-.03.48.34.7.4.13.05.72.18.63-.25-.08-.41-.45-.13-.53-.41-.04-.17.04-.4 0-.59a.7.7 0 0 0-.35-.4c-.14-.04-.22.1-.34 0-.1-.1-.13-.44-.22-.57-.1.08-.18.16-.33.13-.17-.04-.15-.1-.28-.26-.28-.35-.44.2-.7.12-.19-.06-.37-.55-.52-.75-.08-.11-.31-.45-.43-.38-.2.13-.02.5-.12.67-.08.12-.34 0-.43.02-.15.03-.18.07-.3.25-.21.36-.34.65-.68.61-.16-.02-.28-.18-.44-.12-.17.06-.27.24-.45.26a.98.98 0 0 1-.42-.03c-.13-.06-.28-.3-.4-.37a.15.15 0 0 0-.15-.03l-.2-.1c-.2-.07-.19-.06-.27.21-.05.17-.07.34-.13.5-.06.14-.2.3-.27.4-.14.15-.21.1-.4.16-.15.05-.35.28-.43-.02-.12-.45.33-1.13-.17-1.01-.13.03-.21.06-.3.25-.08.22 0 .37-.05.62-.05.3-.64.83-.52 1.1.08.2.34-.1.41-.05.12.08.09.28.17.4.18.28.7-.41.74-.04m-2.14-2.7l-.01-.12c-.14-.03-.3-.18-.43-.18s-.36.29-.45.43c-.26.43-.19 1.01-.62 1-.1 0-.36-.07-.45 0-.16.11-.06.45-.06.69 0 .22.1 0-.02.28-.03.08-.14.1-.17.2-.08.38.23.26.36.26h1.05c.21 0 .34-.07.53-.15.13-.04.4-.04.52-.15a2.21 2.21 0 0 0 .18-.41c.03-.14-.03-.32 0-.44.06-.2.25-.13.29-.41.09-.7-.66-.18-.54-.86"/>
    </g>
    <g stroke="#000" stroke-width=".52">
      <path d="M440.16 338.72c0 .9-.61 1.63-1.38 1.63-.75 0-1.38-.73-1.38-1.63 0-.9.63-1.63 1.38-1.63.77 0 1.38.73 1.38 1.63zm-4.5-2c0 .9-.62 1.62-1.38 1.62-.76 0-1.38-.72-1.38-1.62 0-.9.62-1.63 1.38-1.63.76 0 1.38.73 1.38 1.63z"/>
      <path d="M438.04 337.34c0 .9-.62 1.63-1.38 1.63-.76 0-1.38-.73-1.38-1.63 0-.9.62-1.63 1.38-1.63.76 0 1.38.73 1.38 1.63z"/>
      <path d="M435.73 338.83c0 .9-.62 1.63-1.38 1.63-.76 0-1.38-.73-1.38-1.63 0-.9.62-1.63 1.38-1.63.76 0 1.38.73 1.38 1.63z"/>
      <path d="M437.87 340.07c0 .9-.62 1.63-1.38 1.63-.76 0-1.38-.73-1.38-1.63 0-.9.62-1.62 1.38-1.62.76 0 1.38.72 1.38 1.62z"/>
    </g>
    <path fill="#00a651" stroke="#000" stroke-width=".52" d="M438.54 322.3s13.9-19.42 28.82.76c0 0 .12 2-1.26 4.13l-.37-1.63-.88.25-.25-1-1.63-.12.5-2.13-1.76 1.37.26-1.5-2 2 .24-4.26-2.13 3.64.25-2.5-.75 1.12-.45-1.46-.68 1.46-1-.75v1l-1.75-1.5-.63 2-.88-2.13-.25 1.5-.88-1.75-.12 1.88-2.88-1.25.62 1.75-1.37-1 .25 1-1.88-.37.12 1.12-2-.37.38 1-2.76-.37 1 1.12-.28.46s15.06-4.97 16.07 13.83l-2.76 1.38.75-1.5-.75-.5-2.25-1.76.62-2.38-.75.25-.13-1.38-.37.25-.88-1.38-.25.5-.63-1.63-.62 1.13-.38-2.75-1 1.75-.13-1-.37.63-1.26-1.5-.37 1-.5-.76-.38.88-1.38-1.26v1.01l-.87-.75-.38.5-2.13-1.13-.13 1-1.12-1-.38 1s13.66 7.77 9.4 20.43l-.76 1.63-.24-4.26-1.26 2.25.88-4.88-.88.87-.13-1.88-1.12 1.88-.38-2.13-.5.63-.75-3.26-.63 1.38-1-3.64-.75 1.5-.5-3.12-.5 1.88-1.51-2.76-.25 1.12-.87-2.25-.5.75s-2.51-.12-3.26-.75c-.76-.62-2.89 3.76-2.89 3.76l.25-2.63-.87 1.75v-1.75l-1.63 5.26-.38-3.76-.88 3.26-.37-1-.25 1.38-.5-.5-.44 1.47-.82-.6v2l-.75-1-.63 3.01-.37-1.25v1.38l-.63-.75-.63 3-.87-1.25-.13 2.13.38 1.63-1-.5.37 2.63s-3.88-7.27.76-14.29c4.63-7 10.9-8.89 10.9-8.89l-.63-.62-.13-.63-3.76 1.88.13-1.13-1 .87-.25-1.25-.63 1.13-.12-.5-.88 1.38-.5-2-.63 2.37-.6-1.66-1.28 3.54v-2.63l-1 2.76-.38-3-.75 3.5v-3.14l-1.13 3.14-.75-3-.5 2.87-.75-2.25-.76 3.38-1.12-3-.63 4.5-.75-1.75-.13 3.26-.87-2 .87 4.25-1.12-1.63.37 2.63-1.62-2.88.12 3.39-.88-1.13-.38 1.25s-.37-13.03 8.52-15.54c8.9-2.5 14.67.76 14.67.76l-3.38-2.76.37-.88h-1.25l.5-1-2.63.13.75-1-2 .24v-.62l-1.26 1 .5-1.13-1.75 1.13-.1-1.67-.9 1.42-.5-1.5-4.01 4 1.12-4.13-.75.88-.12-.88-1.13 1.75-.25-1.25-.5 1.5-.38-1.75-.87 1.75-.88-1.62-.38 2.13-.63-1.13-.75 1.63-1-1-.13 1-2-.88.5 1.5-1.5-1.25-.38 2-.87-1-.63 2.51-.63-2.38-.62 1.88s7.83-20.14 27.66-7c0 0 2.16 2.11 2.66 3.61s.13.26.13.26l-.38-13.91.75 6.01.5-2.13-.12 3.13 2-4.38s-2.38 7.27-1.5 9.9c0 0 .88-8.4 3.88-9.4l-2.75 6.01.87-.12-.62 1.25h.75l-.91 1.99-.47 1.02.5 1 .76-.76z"/>
    <path d="M436.47 330.47l.4.36c.05-.06 1.3-1.38 3.37.38l.35-.4c-2.5-2.11-4.1-.36-4.12-.34zm-.6-6.82l-.08.48.96-.4-.66 1.15 1.44-.48-1.79 2.34.43.33 2.84-3.72-1.76.59.75-1.34-1.52.66.31-1.91-.53-.09-.4 2.4z"/>
    <path d="M433.22 323.8l.61 1.36-.98-.4 2.9 5.12.36-.47-.58 1.5.5.2 1.25-3.22-.46-.26-1 1.29-1.75-3.09.8.32-.8-1.76 1.08.68v-1.91h-.53v.94l-1.77-1.1.37.8zm-1.83 6.43l.22.49c.78-.34 1.43-.4 1.92-.16.57.27.74.87.74.87l.52-.14c0-.03-.23-.83-1.03-1.2-.63-.31-1.43-.26-2.37.14zm2.25 5.41l-.44-2.8.53-.08.44 2.8zm3.85-.46l-.72-2.14.51-.17.72 2.14zm1.41 1.59l-.54-2.14.52-.13.54 2.14z"/>
    <path fill="#00a651" stroke="#000" stroke-width=".52" d="M331.92 401.06s-2.35-1.07-3.42-.29c-1.06.79-.92 1.93-1.85 1.86 0 0 3.56.78 4.35-.15.78-.92.92-1.2.92-1.2m.44.77s-1.55 2.06-1.02 3.27c.54 1.21 1.68 1.32 1.41 2.2 0 0 1.53-3.3.8-4.26-.74-.96-.98-1.16-.98-1.16m-2.82-5.78s-2.47.77-2.74 2.06c-.29 1.3.58 2.05-.16 2.61 0 0 3.18-1.78 3.15-3a8.8 8.8 0 0 0-.1-1.51m1.3.7s1.17-2.31.43-3.41c-.73-1.1-1.88-1.01-1.77-1.93 0 0-.94 3.52-.05 4.34.9.82 1.18.98 1.18.98m-2.21-.83s.06-2.57-1.08-3.25c-1.14-.67-2.14-.1-2.44-.97 0 0 .68 3.58 1.85 3.94 1.16.35 1.48.37 1.48.37m4.4 4.2s2.7-.92 2.92 2c.22 2.92-.14 1.93-.14 1.93s-1.42-3.14-2.99-3.64l.22-.28z"/>
    <path d="M332.31 402.1l.28 2.26.38-.05-.28-2.2.92-4.86-.37-.07-.93 4.91z"/>
    <path d="M329.85 401.37l-.13.36c1.3.46 3.1-.96 3.18-1.02l-.24-.3c-.02.01-1.72 1.35-2.81.96zm3.39-2.85l-6.05-3.06.24-.47 6.05 3.06z"/>
    <path d="M328.85 397.84l-.38-.38 1.22-1.21.37.38zm2.12-.6l-1.28-2.77.48-.22 1.28 2.77zm1.8 3.4l.03.54c1.64-.1 2.04.96 2.05.97l.52-.11c-.06-.3-.72-1.52-2.6-1.4z"/>
    <path fill="#fff" stroke="#000" stroke-width=".67" d="M360.53 401.88c2.01-1.13 2.42-5.1 2.42-5.1-.48 1.47-4.2 2.92-4.2 2.92 2.75-1.7 6.05-9.37 6.05-9.37-.88 2.75-8.07 5-12.67 7.59-4.6 2.58-2.18 10.01-2.18 10.01-1.29-.89-3.8-4.84-4.27-8.32-.5-3.47-1.86-4.84-5.01-5.24-3.15-.4-5 3.15-5 3.15l-4.69 2.42 4.76.16s3.4 1.13 3.4 3.8c0 2.66-2.99 13.32 1.93 19.3 3.43 4.14 16.07 6.53 16.07 6.53"/>
    <path fill="#fff" stroke="#000" stroke-width=".67" d="M351.25 410.11s.96-4.76 4.11-4.6c3.15.16 4.04-3.55 5.9-4.12 1.85-.56 11.46-3.14 12.5-7.75 0 0-.88 7.6-9.68 11.39 0 0 7.1-2.35 7.91-3.88 0 0-3.15 6.78-10.82 7.83 0 0 7.19-.56 8.24-2.5 0 0-3.23 4.28-8.56 4.84 0 0 4.93 2.02 6.22.32 0 0-2.67 3.15-5.98 3.4l.9.24s-3.16 3.71-6.63 1.2c-3.47-2.5-3.55.66-3.55.66"/>
    <path fill="#fff" stroke="#000" stroke-width=".67" d="M358.41 417.29s4.06 6.78 4.46 10.41c0 0 7.75 8.56 10.66 9.05 0 0-1.38.56-3.88-1.54 0 0 2.1 2.18 2.5 2.26.4.09-1.7-.16-2.02-.73 0 0 .9 1.3 1.46 1.46l-.57-.16s-1.05-.16-1.53-.57c-.49-.4-.16 1.05-.16 1.05s-1.21-.32-1.62-.73c-.4-.4.17.9.17.9l-1.05-.25-.73.48s-.08.49-.57.09c-.48-.4-1.37 0-1.37 0s-.65.56-.97.16c-.32-.4-1.54 1.55-1.54 1.55l-5.09-12.27"/>
    <path d="M363.24 439.55l-6.43-12.23.68-.35 6.42 12.22zm5.6-.83l-10.98-12.3.57-.51 10.99 12.3zm2.52-1.08l-12.55-11.69.52-.56 12.55 11.69z"/>
    <g transform="translate(-207.55 158.36) scale(.66486)">
      <path d="M823.44 360.84s-1.23-2.2-2.3-1.38c-1.07.83-1.69.98-1.87.92 0 0 1.07.06 1.68-.52.62-.59 1.66-.22 2.49.98zm-6.66-1.01l.69 1.42c-.07 0-.77 2.26-.77 2.26l.55.17.75-2.45c0-.22-.7-1.65-.7-1.65l-.52.25z"/>
      <path d="M823.16 360.5s-.92 1.07-2.18.77l-1.25-.31 1.78.1c.7.02 1.62-.34 1.65-.56z"/>
      <path d="M822.86 360.72s-1.13-1.2-1.9-.86c0 0 1.35-.43 2.12.73l-.22.13z"/>
      <path d="M822.67 360.5s-1.29.89-2.7-.09l-.09-.07.19-.05s1.78.73 2.6.21z"/>
      <circle cx="821.57" cy="360.28" r=".38"/>
    </g>
    <path d="M339.37 420.45s-.66 1.22-.32 1.95c.35.74 1.93 1.12 2.13 2.1.22.97.74.97 1.47.84l.88-.18s-3.08-1.64-3.88-4.3l-.28-.41z"/>
    <g fill="#964b36" stroke="#000" stroke-width=".48">
      <path stroke-width=".32" d="M438.75 395.62s5.6-7.38 10.56-5.45c4.97 1.94 8.2 2.88 8.2 2.88s.09 4.97-2.55 4.97c-2.64 0-5.16-4.97-7.56-3.5-2.4 1.48-4.38 3.5-4.53 4.2-.16.7-6.36.85-4.12-3.1z"/>
      <path stroke-width=".52" d="M417.51 431.2s-1.55 1.62-.85 2.02c.7.38 2.1-.09 2.1-.63s-.93-1.55-1.25-1.4z"/>
      <path stroke-width=".52" d="M416.27 432.75s-2.86-1.63-5.11 2.24c-2.25 3.88-4.11 10.16-5.43 11.01-1.32.85 12.8-6.2 12.95-9.14 0 0 .93-3.8-.54-3.73-1.48.08-1.55.24-1.87-.38z"/>
      <path stroke-width=".32" d="M416.66 433.21s-2.94.7-3.56 4.88c-.62 4.2-4.73 6.36-4.97 6.52m49.38-51.56s-4.48 1.56-3.7 4.66"/>
    </g>
    <path fill="#fff200" stroke="#000" stroke-width=".32" d="M423.1 402.13s.15-10.63 8.83-10.16c1.64.15.86 2.09.86 2.09s1.88-1.31 2.73.77c0 0 2.74-1.23 3.05 1.48 0 0 2.97-.39 2.58 2.02 0 0 2.03-.47 1.96 1.24 0 0 2.34-.93 2.1 1.47 0 0 2.59-1.7 2.2 1.4 0 0 2.66-1.87 3.59 1.23.94 3.1-2.66 9.7-6.17 11.4"/>
    <path d="M447.21 402.77c.01.08 1.17 8.31-3.5 11.32l.17.26c4.83-3.12 3.65-11.54 3.63-11.63l-.3.05zm-5.62 9l.22.23c2.95-2.88 3.59-10.62 3.61-10.95l-.3-.03c0 .08-.65 7.96-3.53 10.76zm-2.76-1.83l.3.02c.39-4.78 4.13-10.25 4.17-10.31l-.25-.17c-.04.05-3.83 5.6-4.22 10.46zm-2.16-1.4l.3.03c.53-5.77 4.34-10.1 4.38-10.14l-.22-.2c-.04.04-3.92 4.44-4.46 10.31zm-3.03-1.93l.3.01c.3-6.81 4.78-10.16 4.82-10.19l-.18-.25c-.04.04-4.63 3.46-4.94 10.43zm-2.8-1.7h.32c-.23-6.2 4.54-9.92 4.59-9.96l-.18-.24c-.05.04-4.95 3.85-4.72 10.2zm-5.02-2.26l.3.04a10.2 10.2 0 0 1 6.86-8.48l-.08-.3a10.5 10.5 0 0 0-7.08 8.74z"/>
    <path fill="#00a651" stroke="#000" stroke-width=".32" d="M417.98 415s-1.47-9.85 4.42-12.95c0 0 1.09-.23 1.7 1.16 0 0 3.1-1.31 3.18 1.32 0 0 1.55-1.24 1.94.46 0 0 3.33-.7 2.71 1.79 0 0 2.8-.78 2.56 1.62 0 0 2.8-1 2.33 1.09 0 0 2.94-.7 2.25 1.7 0 0 3.64-.38 2.56 2.18 0 0 2.7-.7 2.09 1.4 0 0 3.56.61 1.93 2.86-1.62 2.25-5.73 5.66-9.76 7.13"/>
    <path fill="#00a651" stroke="#000" stroke-width=".32" d="M414.8 424.92s-2.4-8.22 2.17-10.32c0 0 .85-.23 1 .63 0 0 1.02-1.32 1.8-.16 0 0 2.32-1.08 2.86.62 0 0 1.55-1.32 2.33.62 0 0 1.47-.62 1.47.93 0 0 2.02-.85 2.02 1 0 0 1.93-.77 1.54 1.33 0 0 2.95.46 2.1 1.86 0 0 2.64.7 1.63 1.78 0 0 2.86-.31 1.31 1.63 0 0 2.17-.7.93 1.7-1.24 2.4-5.11 5.04-7.83 5.35"/>
    <path fill="#00a651" stroke="#000" stroke-width=".32" d="M417.67 431.43s-5.12-4.96-2.71-6.44c0 0 1.08.3 1.47 1.4 0 0 1.24-1.79 1.94.07 0 0 1.86-.62 1.86.63l1.47 1.08s1.7-.15 1.4.93c0 0 1.86-.23 1.78.78 0 0 1.63.07 1.47 1.16 0 0 2.79.46 1.55 1.86 0 0-4.88 1-8.3-.39 0 0-1.78-.62-1.93-1.08z"/>
    <path d="M435.21 423.23l.11.28c3.03-1.17 8.3-8.35 8.52-8.66l-.25-.18c-.05.08-5.43 7.42-8.38 8.56zm-1.72-1.31l.15.26c2.64-1.47 7.89-8.42 8.1-8.72l-.24-.18c-.05.07-5.43 7.2-8.01 8.64zm-1.5-.61l.2.23c2.79-2.31 6.84-9.95 7.01-10.27l-.27-.15c-.04.08-4.2 7.91-6.94 10.19zm-1.37-1.77l.3.05c.54-3.86 5.96-9.94 6.01-10l-.23-.2c-.22.25-5.54 6.2-6.08 10.15zm-10.85-4.69l.3-.03c-.45-5.45 4.11-11.46 4.16-11.52l-.25-.18c-.04.06-4.68 6.16-4.22 11.73zm2.87.48l.3-.05c-.75-4.38 4.4-10.6 4.46-10.65l-.23-.2c-.22.26-5.3 6.38-4.53 10.9zm4.41 1.6h.3c-.14-5 4.65-10 4.7-10.05l-.22-.2c-.05.04-4.93 5.14-4.78 10.26zm-10.53 9.05l.29-.1c-1.74-4.62 1.28-10.52 1.3-10.58l-.27-.14c-.03.06-3.1 6.08-1.32 10.82zm2.01.3l.29-.1c-1.52-4.7 1.05-10.99 1.08-11.05l-.28-.12c-.03.06-2.64 6.47-1.1 11.27zm8.31 4.7l.1.28c4.95-1.78 8.19-6.29 8.22-6.33l-.25-.18c-.03.04-3.21 4.48-8.07 6.22zm-1.02-1.08l.13.28c3.94-1.78 7.62-6.75 7.66-6.8l-.25-.18c-.04.05-3.67 4.95-7.54 6.7zm-.95-.38l.17.25c3.09-2.23 7.05-7.96 7.1-8.02l-.26-.17c-.04.05-3.97 5.74-7.02 7.94zm-4.95-2.88l.3-.04c-.68-4.93 2.51-10.78 2.54-10.83l-.26-.15c-.04.06-3.28 6-2.58 11.02zm2.15 1.34l.2.23c3.19-2.88 4.27-10.62 4.31-10.95l-.3-.04c-.01.08-1.11 7.96-4.21 10.76z"/>
    <path d="M424.25 428.9l.18.25c4.49-3.25 5.7-9.5 5.72-9.55l-.3-.06c-.01.06-1.2 6.18-5.6 9.36zm.52-13.45c0 .29.01.58.04.88l-3.41 11.02.3.09 3.4-11.09c-.52-5.36 4.2-11.2 4.24-11.26l-.24-.2c-.04.06-4.33 5.39-4.33 10.56z"/>
    <path d="M428.33 418.15c-.04.15-1.08 7.72-5.17 10.52l.18.25c4.2-2.87 5.22-10.34 5.26-10.65 1.8-2.16 5.98-9.72 6.03-9.8l-.27-.14c-.04.07-4.2 7.61-6.03 9.82zm-12.05 8.27c.03.16.7 3.92 1.49 5.25l.26-.16c-.75-1.28-1.44-5.1-1.45-5.14l-.3.05zm1.93.05c.03 1.87.04 4.94-.06 5.21l.28.11c.16-.39.1-4.5.09-5.33h-.31z"/>
    <path d="M418.38 431.83l.28.13c1.31-2.86 1.71-4.82 1.72-4.84l-.3-.06c0 .01-.4 1.95-1.7 4.77z"/>
    <path d="M418.68 431.92l.15.26a6.58 6.58 0 0 0 3.02-3.97l-.3-.07c0 .03-.56 2.44-2.88 3.78zM419.13 432.13l.03.3c2.38-.23 4-3.13 4.07-3.25l-.27-.15c-.01.03-1.61 2.88-3.83 3.1z"/>
    <path d="M419.37 432.28l.02.3c3.82-.23 5.54-2.51 5.61-2.61l-.24-.18c-.02.02-1.72 2.27-5.4 2.5z"/>
    <path d="M419.64 432.36l-.06.3c.2.05 5.08 1.08 6.75-1.46l-.26-.17c-1.55 2.37-6.38 1.34-6.43 1.33z"/>
    <path fill="none" stroke="#000" stroke-width="2.79" d="M310.24 254.06v136.36c0 44.6 80.58 71.08 80.58 71.08s80.59-26.49 80.59-71.08V254.06z"/>
  </g>
  <path fill="#002868" d="M0 0v209.76h312.48V0H0z"/>
  <path fill="#fff" d="M0 0v23.45l121.3 81.43L0 186.3v23.46h34.94l121.3-81.43 121.3 81.43h34.94V186.3l-121.3-81.42 121.3-81.43V0h-34.94l-121.3 81.43L34.94 0H0z" color="#000" font-family="sans-serif" font-weight="400" overflow="visible" white-space="normal" style="line-height:normal;text-indent:0;text-align:start;text-decoration-line:none;text-decoration-style:solid;text-decoration-color:#000;text-transform:none;block-progression:tb;isolation:auto;mix-blend-mode:normal"/>
  <path fill="#ce1126" d="M0 0v14.87l169.72 84.86L0 184.59v14.87h29.73l169.73-84.86 169.72 84.86h29.74v-14.87L229.19 99.73l169.73-84.86V0h-29.74L199.46 84.86 29.73 0H0z" color="#000" font-family="sans-serif" font-weight="400" overflow="visible" transform="scale(.78332 1.05163)" white-space="normal" style="line-height:normal;text-indent:0;text-align:start;text-decoration-line:none;text-decoration-style:solid;text-decoration-color:#000;text-transform:none;block-progression:tb;isolation:auto;mix-blend-mode:normal"/>
  <path fill="#fff" d="M130.2 0v69.92H0v69.92h130.2v69.92h52.08v-69.92h130.2V69.92h-130.2V0H130.2z" color="#000" font-family="sans-serif" font-weight="400" overflow="visible" white-space="normal" style="line-height:normal;text-indent:0;text-align:start;text-decoration-line:none;text-decoration-style:solid;text-decoration-color:#000;text-transform:none;block-progression:tb;isolation:auto;mix-blend-mode:normal"/>
  <path fill="#ce1126" d="M140.61 0v83.9H0v41.95h140.61v83.9h31.25v-83.9h140.62V83.9H171.86V0h-31.25z" color="#000" font-family="sans-serif" font-weight="400" overflow="visible" white-space="normal" style="line-height:normal;text-indent:0;text-align:start;text-decoration-line:none;text-decoration-style:solid;text-decoration-color:#000;text-transform:none;block-progression:tb;isolation:auto;mix-blend-mode:normal"/>
</svg>
