<svg xmlns="http://www.w3.org/2000/svg" height="512" width="512">
    <g>
        <path d="M0 0v512h512v-512h-512z" fill-rule="evenodd" fill="#67b1ff"/>
        <g>
            <path fill-rule="evenodd" fill="#0000b4" d="M0 0h313.472v207.603h-313.472z"/>
            <g>
                <path fill="#fff" d="M0 0v23.21l278.451 184.39h35.049v-23.21l-278.451-184.39h-35.049zm313.5 0v23.21l-278.451 184.39h-35.049v-23.21l278.451-184.39h35.049z"/>
                <path fill="#fff" d="M130.625 0v207.6h52.25v-207.6h-52.25zm-130.625 69.2v69.2h313.5v-69.2h-313.5z"/>
                <path fill="#c00" d="M0 83.04v41.52h313.5v-41.52h-313.5zm141.075-83.04v207.6h31.35v-207.6h-31.35z"/>
                <path fill="#c00" d="M0 207.6l104.5-69.2h23.366l-104.5 69.2h-23.366zm0-207.6l104.5 69.2h-23.366l-81.134-53.726v-15.474zm185.634 69.2l104.5-69.2h23.366l-104.5 69.2h-23.366zm127.866 138.4l-104.5-69.2h23.366l81.134 53.727v15.473z"/>
            </g>
        </g>
        <g fill-rule="evenodd">
            <path d="M303.303 239.874v129c16.631 90.3 45.735 103.2 83.156 129 37.421-25.8 66.525-38.7 83.156-129v-129h-166.313z" fill="#fff"/>
            <path d="M375.371 239.874l.174 250.683 11.088 7.279 11.088-7.481-.174-250.477h-22.175z" fill="#da0000"/>
            <path d="M303.303 370.236l8.317 35.137 150.116-.098 7.881-35.038h-166.313z" fill="#da0000"/>
            <path fill="#da0000" d="M303.303 239.874h166.313v90.3h-166.313z"/>
            <g transform="matrix(.229 0 0 .314 237.141 370.154)">
                <rect rx="23.225" ry="27.989" height="55.978" width="46.45" stroke="#000" y="-281.68" x="306.09" stroke-width=".75" fill="#f6efec"/>
                <path d="M850.4-296.57s47.641-3.573 64.315-22.63c16.675-19.056-11.314-53.596 6.551-57.169 7.146-.596 17.27 1.787 25.011 11.314-1.191-7.145-5.955-11.314-7.741-15.481-6.551-5.957-13.102-5.361-22.63-5.361-6.551 1.192-7.742-1.192-18.46-13.697-5.36-5.955-5.36-20.842-1.192-30.966-12.505 9.528-10.123 22.628-8.932 25.606 2.977 13.102 5.955 16.675 5.955 22.631-3.573-1.787-10.124-17.271-44.068-19.653-33.945-2.382-119.7 23.821-158.41 23.821-38.709 0-94.687-16.079-94.687-16.079s14.292-11.315-2.978-16.079c-17.269-4.764-55.382 16.675-66.102 4.764-7.741-11.315-4.764-8.933-5.955-14.292-2.977 1.786-4.764 8.933-.595 18.461 4.168 9.528 6.55 6.55 5.955 6.55-.596 0-13.697 0-14.888 4.765-1.191 3.572-2.978 7.741 3.573 20.842 2.382-13.101-6.55-14.887 13.101-16.078 19.653-1.191 33.349 7.742 50.023 10.719 16.675 2.978 16.675-7.146 17.27-6.551.596.596 51.214 14.293 97.664 11.315 46.45-2.977 121.49-28.585 156.02-23.225 34.54 5.359 57.17 30.371 57.765 53.596-.595 14.292-15.483 21.438-27.393 23.82-14.292 2.382-47.641 5.956-47.641 5.956l18.461 13.101z" transform="matrix(.88 0 0 .698 113.77 -89.63)" stroke="#000" stroke-width=".875" fill="#ff0"/>
                <path d="M683.06-248.92c-.596 0-32.754.596-42.282 14.292-9.528 13.697-13.697 26.799-13.101 26.799.595 0 21.438-11.315 21.438-11.315s-15.483 22.629-7.146 42.877c8.337 20.247-22.01 19.056-39.507 19.651-7.742-5.955-32.473-16.079-41.292-17.865-5.507-2.084-16.321-2.353-27.616 10.347-6.653 7.831 9.888-7.37 26.295-6.178 1.774 1.786 2.916 3.574 3.232 7.741-8.742-.595-17.84-10.719-28.559 10.124 10.719-7.146 12.059-6.997 17.493-7.444 7.239-.536 6.309 3.276 6.011 3.276-1.191 0-4.145.595-8.617 4.764-2.382 2.977-8.337 9.528-7.146 9.528s4.752-3.573 10.327-6.551c3.484-2.382 6.793-2.382 17.322.596 57.765 13.696 88.731 3.573 92.304-1.787 1.787-2.381-33.349-69.675 60.147-87.54-1.191-.596-39.303-10.719-39.303-11.315z" transform="matrix(.855 0 0 1 231.25 -38.113)" stroke="#000" stroke-width=".5" fill="#ff0"/>
                <path d="M472.84-212.6c32.753 27.394 253.69-29.18 281.68-48.832 16.079-11.315 44.068-19.652 44.068 19.056 7.146-26.203 7.147-32.753 7.147-32.158.595.596 11.314 10.125 20.843 42.283 2.382-28.586-4.169-45.26-.596-42.878 2.382-2.382 2.382 14.292 21.438 37.517-4.168-18.46-5.359-26.798-5.359-26.798s35.731 34.54 55.978 39.304c20.248 4.764 49.428-9.528 58.361-1.191 8.932 8.338 24.418 23.225 23.818 35.136-.59 11.91-33.347 1.786-36.92 11.314-3.573 9.529 2.382 9.529 2.382 9.529s2.977 7.146 5.36 13.101c1.786-4.169-1.787-13.102 4.764-13.697 4.764.595 4.764 8.337 5.955 12.506 1.389-4.764-.199-14.292 4.169-14.292 4.764-.993 5.359 7.543 8.932 13.1v-13.1c13.698-4.169 25.604-4.764 27.394-13.697 1.78-8.933-20.846-29.18-26.206-42.282-5.356-13.101 4.17-18.461-5.952-25.607-10.123-7.146-48.832 11.315-66.697 4.169-17.866-7.146-10.72-58.361-78.013-69.675-67.293-11.315-249.52 59.551-281.68 62.529-32.158 2.977-71.461-10.124-71.461-10.124l.595 54.787z" stroke="#000" stroke-width=".625" fill="#ff0"/>
                <path d="M420.43-263.22s-28.585-37.518-51.81-41.091c-23.225-2.977-45.855 14.293-50.619 11.911-4.764-2.383-6.55.596-9.528 5.955-2.978 5.36.596 8.932.595 8.337 1.191 0 4.169-8.933 5.361-9.528 1.191-.596-5.956 10.72 1.191 11.91 2.382.596 3.573-8.337 6.551-11.911.595.596-4.765 12.507-1.787 13.102 2.977.596 6.551-11.91 11.91-14.888 7.742-5.359 19.056-7.147 33.349-7.146 14.292 4.169 43.472 38.708 46.45 38.112l8.337-4.763z" transform="matrix(.984 .227 .179 -1.246 64.173 -655.73)" stroke="#000" stroke-width=".5" fill="#ff0"/>
                <path d="M420.43-263.22s-28.585-37.518-51.81-41.091c-23.225-2.977-45.855 14.293-50.619 11.911-4.764-2.383-6.55.596-9.528 5.955-2.978 5.36.596 8.932.595 8.337 1.191 0 4.169-8.933 5.361-9.528 1.191-.596-5.956 10.72 1.191 11.91 2.382.596 3.573-8.337 6.551-11.911.595.596-4.765 12.507-1.787 13.102 2.977.596 6.551-11.91 11.91-14.888 7.742-5.359 19.056-7.147 33.349-7.146 14.292 4.169 43.472 38.708 46.45 38.112l8.337-4.763z" transform="matrix(1 0 0 1.129 11.315 42.241)" stroke="#000" stroke-width=".5" fill="#ff0"/>
                <path d="M417.46-267.98l-31.562 15.483 23.225 5.956-16.675 19.057 23.821-7.742-1.786 25.607 13.697-16.674 8.932 23.225 9.528-17.27 11.315 19.056 4.764-18.461 13.697 18.461 4.764-25.011 16.675 15.483-2.382-26.203 20.247 6.551-12.506-20.248s22.034-1.191 20.843-1.191-16.674-13.101-30.371-16.674l-76.226.595z" stroke="#000" stroke-width=".5" fill="#ff0"/>
                <path d="M417.46-267.98l-31.562 15.483 23.225 5.956-16.675 19.057 23.821-7.742-1.786 25.607 13.697-16.674 8.932 23.225 9.528-17.27 11.315 19.056 4.764-18.461 13.697 18.461 4.764-25.011 16.675 15.483-2.382-26.203 20.247 6.551-12.506-20.248s22.034-1.191 20.843-1.191-16.674-13.101-30.371-16.674l-76.226.595z" transform="matrix(.548 0 0 .566 205.56 -123.01)" stroke="#000" stroke-width=".808" fill="#ff0"/>
                <path d="M443.061-316.81s-8.932-7.146-12.505 0c-3.574 7.147 7.741 4.169 7.741 5.36s-7.741 9.528-7.741 19.057c0 9.528 5.955 25.607 5.955 27.989s2.382 8.932 10.719 11.314 11.315-7.741 13.101-8.932c1.787-1.191 13.102 1.786 17.27-8.337 4.169-10.124 4.169-28.585 4.169-28.585s7.146 5.359 7.146-5.36h-7.742s1.191-11.314-17.27-16.674-20.247 5.36-20.843 4.168z" stroke="#000" stroke-width=".5" fill="#ff0"/>
                <path d="M441.48-317.31c-2.38-4.827-9.14-23.321-9.14-23.321l16.205 6.943c-5.53-1.374-10.25-2.179-9.654-2.179.595 0 7.146 8.933 7.146 8.933 6.451-.374 12.903 1.774 20.843 3.503 0 0 6.55-7.286 5.955-7.286-.596 0-3.573-1.192-3.573-1.192l14.888-6.83-4.764 9.213h-2.978l-5.955 6.69c6.699 1.261 9.975 2.242 16.525 6.445 5.807-.84 10.72-3.851 13.846-6.129-5.21-1.437-7.592-2.558-6.997-2.558.596 0 21.885 1.121 21.885 1.121s-20.889 12.916-33.093 17.65c-11.289-3.246-39.948-9.216-41.139-11.003z" transform="matrix(.942 -.016 .033 1.416 35.5 137.73)" stroke="#000" stroke-width=".54" fill="#ff0"/>
                <rect transform="matrix(.904 .427 -.994 -.108 0 0)" rx="6.865" ry="3.077" height="6.153" width="13.731" y="-1416.1" x="-1065.8"/>
                <rect transform="matrix(.904 .427 -.994 -.108 0 0)" rx="6.865" ry="3.077" height="6.153" width="13.731" y="-1419.6" x="-1050"/>
                <rect transform="matrix(.947 .322 -.997 -.078 0 0)" rx="12.761" ry="5.97" height="11.94" width="25.522" y="-1636.5" x="-1253.9"/>
                <rect transform="matrix(.935 .354 -.996 -.086 0 0)" rx="5.781" ry="2.674" height="5.349" width="11.562" y="-1565.8" x="-1186.4"/>
                <rect transform="matrix(.329 -.944 .136 .991 0 0)" rx="4.931" ry="2.046" height="4.093" width="9.861" y="734.39" x="1061.7"/>
            </g>
            <g stroke="#000" transform="matrix(.887 0 0 1.032 -306.51 114.94)">
                <path d="M741.331 322.943c1.741 6.589.852 0-1.002 10.204 1.146-3.04 2.781-4.777 3.436-4.775.982 0 1.472-.001 3.436 1.953-1.799-3.474-4.908-2.605-4.744-7.815-.163-1.193-1.046.113-1.125.433z" fill="#ff7300"/>
                <rect transform="matrix(.818 -.575 .197 .98 0 0)" rx=".685" ry=".506" height="18.038" width="1.369" y="717.59" x="708.8" fill="#b2802e"/>
                <path d="M736.275 309.244c.621-.459 5.216-10.852 27.075-9.324-12.42 5.197-20.12 16.201-21.983 16.659-1.366.459-4.347-5.655-5.092-7.335z" fill="#fff"/>
                <g fill="#007500">
                    <path d="M723.443 297.196l2.935 5.157-4.181-5.047-.19-2.038 1.436 1.928z"/>
                    <path d="M722.302 297.482l-.472 3.739-1.276-4.537 1.146-.704.602 1.502z"/>
                    <path d="M724.269 294.419l4.929 2.576-4.087-1.275-2.666-1.504 1.823.204z"/>
                    <path d="M724.693 295.061l7.485 2.14-5.867-.217-1.982-.324.364-1.599z"/>
                    <path d="M724.402 293.497l-4.582.726 1.601-2.894 3.479 1.233-.498.935z"/>
                    <path d="M720.518 291.139l-5.835-2.409 4.883.725 4.137 2.407-3.186-.723z"/>
                    <path d="M720.698 293.632l-6.216-3.514 5.531 2.014 4.593 3.55-3.908-2.049z"/>
                    <path d="M716.107 290.193l-3.591-5.326 5.611 6.011 1.748 2.516-3.768-3.201z"/>
                    <path d="M721.48 288.66l-.101-3.43 2.726 5.035.239 1.748-2.864-3.353z"/>
                    <path d="M719.911 292.277l2.709-2.082-.137 3.744-1.218.347-1.355-2.009z"/>
                    <path d="M728.094 293.98l1.978 2.919-2.712-2.883-1.3-2 2.034 1.964z"/>
                    <path d="M722.569 293.049l1.971 3.676-2.865-3.981-.398-1.115 1.291 1.42z"/>
                    <path d="M722.886 295.967l5.196 2.272-4.384-1.33-1.918-1 1.106.058z"/>
                    <path d="M722.304 294.718l-4.763-1.422 3.59.585 1.876.693-.703.143z"/>
                    <path d="M720.136 292.68l1.441-.935-.753 1.4.083.676-.771-1.142z"/>
                    <path d="M719.021 288.357l-3.049-3.815 2.577 2.741 3.142 3.003-2.671-1.928z"/>
                    <path d="M717.322 293.8l-.872 1.013-.273-1.94 2.905 1.293-1.76-.365z"/>
                    <path d="M722.424 295.026l1.295 3.838-2.113-3.977-.198-1.214 1.016 1.353z"/>
                </g>
                <path d="M765.541 304.121c-3.392 1.481-5.054 2.186-6.77 2.476.874.496 2.817.195 5.033.988-1.975.057-5.627 2.056-7.146 2.105 1.05.836 4.796.031 5.485.249-2.003.165-5.226 2.224-7.233 2.224-.919.932 4.67-.638 6.913 1.121-2.319-.158-6.825 1.612-9.267 1.185 1.862 1.448 5.186-.156 7.959 1.413-.803.117-7.237 1.073-9.514.618 1.361.904 5.464.754 6.472 1.558-1.698-.295-6.207.957-7.776.46 1.413 1.35 5.669.589 6.451 1.402-2.782 1.287-6.998.26-8.937.609 1.3.807 2.374 1.623 3.525 2.379 1.68 1.564 6.921 5.965 10.052 7.286-3.466-.602-4.675-.681-6.915-.924l5.096 7.168c-2.127-1.52-5.875-4.392-8.364-5.874-5.512-3.582-9.485-2.962-13.302-5.994-5.363-6.9-8.341-15.124-8.609-17.317-.269-2.192-.504-6.123-5.396-4.075 4.723-.807 6.707-8.047 7.076-7.757.169.124.605 4.839 1.715 6.743.739 1.366 7.027 6.041 8.069 6.29 9.365-7.383 16.961-8.291 25.383-4.331z" fill="#fff"/>
            </g>
            <g stroke="#000" stroke-width=".25" transform="matrix(.887 0 0 1.032 -304.052 114.94)">
                <rect transform="rotate(44.687)" rx="1.391" ry="5.563" height="11.127" width="2.782" y="-352.62" x="802.37" fill="#e4cc00"/>
                <path d="M795.019 334.335c-.21-1.173-.347-1.765.245-3.303.864-1.083 1.317-2.043 2.893-3.164 1.709-.563 2.286-.055 4.528-2.134.721-1.37 1.819-2.405 2.445-3.882 1.461-2.177 1.951-3.252 3.119-4.927 1.552-1.741 2.801-3.302 3.709-4.636.969-1.71 1.839-2.767 3.245-4.173.569-1.604 1.789-2.794 3.245-4.172 1.113-2.033 3.247-4.361 4.173-6.027 1.641-1.88 2.283-2.697 3.708-4.636 1.255-.828 3.372-2.644 5.1-3.245 2.359-.989 3.621-1.969 5.173-.464 1.027 1.027 2.873 2.68 1.59 3.9-.675.748-1.78.841-3.054.273-1.309-.848-1.946-3.315-3.709-1.391-1.274 1.455-1.927 2.616-3.709 4.172-.886 1.304-1.525 2.279-2.318 4.173-1.048 1.209-1.914 2.568-2.781 4.636-1.124.928-2.093 2.77-2.782 4.172-1.112 1.166-1.915 2.364-2.782 4.173-1.751 1.677-2.405 3.095-3.709 4.172-.861 1.82-2.217 3.558-3.245 4.636-.812 1.32-1.618 2.695-2.318 4.173-1.475 1.505-1.54 1.83-3.709 4.172-1.806 2.355-1.198 2.071-4.026 4.801-1.548.51-3.103.684-5.031-1.299z" fill="#006000"/>
                <rect transform="rotate(22.168)" rx="1.391" ry="5.563" height="11.127" width="2.782" y="-20.84" x="862.29" fill="#e4cc00"/>
                <rect transform="rotate(24.033)" rx="1.391" ry="5.563" height="11.127" width="2.782" y="-48.488" x="863.44" fill="#e4cc00"/>
                <rect transform="rotate(35.806)" rx="1.391" ry="5.563" height="11.127" width="2.782" y="-224.52" x="840.48" fill="#e4cc00"/>
                <rect transform="rotate(49.526)" rx="1.391" ry="5.563" height="11.127" width="2.782" y="-420.33" x="773.6" fill="#e4cc00"/>
                <rect transform="rotate(45.459)" rx="1.391" ry="5.563" height="11.127" width="2.782" y="-363.86" x="799.69" fill="#e4cc00"/>
                <rect transform="rotate(35.806)" rx="1.391" ry="5.563" height="11.127" width="2.782" y="-224.23" x="844.16" fill="#e4cc00"/>
                <rect transform="rotate(35.806)" rx="1.391" ry="5.563" height="11.127" width="2.782" y="-224.62" x="842.29" fill="#e4cc00"/>
                <g transform="translate(-6.311 -1.115) rotate(35.848)" fill="#e4cc00">
                    <rect rx="1.391" ry="5.563" height="11.127" width="2.782" y="-244.57" x="838.79"/>
                    <rect rx="1.391" ry="5.563" height="11.127" width="2.782" y="-244.68" x="840.85"/>
                    <rect rx="1.391" ry="5.563" height="11.127" width="2.782" y="-244.66" x="843"/>
                    <rect rx="1.391" ry="5.563" height="11.127" width="2.782" y="-244.7" x="845.3"/>
                    <rect rx="1.391" ry="5.563" height="11.127" width="2.782" y="-244.54" x="847.15"/>
                    <rect rx="1.391" ry="5.563" height="11.127" width="2.782" y="-245.75" x="857.84"/>
                    <rect rx="1.391" ry="5.563" height="11.127" width="2.782" y="-245.32" x="856.37"/>
                    <rect rx="1.391" ry="5.563" height="11.127" width="2.782" y="-245.1" x="854.94"/>
                    <rect rx="1.391" ry="5.563" height="11.127" width="2.782" y="-245.02" x="852.83"/>
                    <rect rx="1.391" ry="5.563" height="11.127" width="2.782" y="-244.68" x="850.76"/>
                    <rect rx="1.391" ry="5.563" height="11.127" width="2.782" y="-244.64" x="848.96"/>
                </g>
                <rect transform="matrix(.879 .477 -.477 .879 -.392 0)" rx="1.391" ry="5.563" height="11.127" width="2.782" y="-115.05" x="859.81" fill="#e4cc00"/>
                <g transform="translate(-11.95 5.765) rotate(35.848)" fill="#e4cc00">
                    <rect rx="1.391" ry="5.563" height="11.127" width="2.782" y="-244.57" x="838.79"/>
                    <rect rx="1.391" ry="5.563" height="11.127" width="2.782" y="-244.68" x="840.85"/>
                    <rect rx="1.391" ry="5.563" height="11.127" width="2.782" y="-244.66" x="843"/>
                    <rect rx="1.391" ry="5.563" height="11.127" width="2.782" y="-244.7" x="845.3"/>
                    <rect rx="1.391" ry="5.563" height="11.127" width="2.782" y="-244.54" x="847.15"/>
                    <rect rx="1.391" ry="5.563" height="11.127" width="2.782" y="-245.75" x="857.84"/>
                    <rect rx="1.391" ry="5.563" height="11.127" width="2.782" y="-245.32" x="856.37"/>
                    <rect rx="1.391" ry="5.563" height="11.127" width="2.782" y="-245.1" x="854.94"/>
                    <rect rx="1.391" ry="5.563" height="11.127" width="2.782" y="-245.02" x="852.83"/>
                    <rect rx="1.391" ry="5.563" height="11.127" width="2.782" y="-244.68" x="850.76"/>
                    <rect rx="1.391" ry="5.563" height="11.127" width="2.782" y="-244.64" x="848.96"/>
                </g>
            </g>
            <g stroke="#000" transform="matrix(.857 0 0 .933 -285.805 138.829)">
                <rect transform="rotate(18.815)" rx="1.432" ry=".678" height="24.19" width="2.864" y="-28.09" x="774.89" fill="#b2802e"/>
                <rect rx="1.432" ry=".678" height="24.19" width="2.864" y="221.74" x="727.44" fill="#b2802e"/>
                <rect rx="1.432" ry=".678" height="24.19" width="2.864" y="221.28" x="707.97" fill="#b2802e"/>
                <g fill="#004500">
                    <path d="M720.484 209.646c3.502-.947 6.166 1.009 7.306 5.259.016.386.83.448.818.34-.606-7.217 7.279-13.157 12.303-2.953.501 1.617-2.395-.808-4.232-2.664-2.305-2.576-5.426.551-5.63 7.257-.21 1.52-.49 4.848-.49 4.848s-2.59-.306-2.654-.397c-.063-.09-2.152-8.317-5.96-9.166-2.842-.39-2.085 1.205-5.455 1.884-3.146.269-3.057-.15-.714-1.101 2.031-.098 3.357-2.857 4.707-3.307z"/>
                    <path d="M720.885 213.878c3.554-.729 6.092 1.388 6.965 5.7-.008.386.801.499.796.39-.157-7.241 11.074-7.452 15.454 3.043.4 1.645-.381 1.515-2.099-.452-2.141-2.714-10.4-7.484-11.02-.803-.304 1.504-.79 4.809-.79 4.809s-2.566-.466-2.624-.56c-.058-.094-1.631-8.435-5.379-9.517-2.812-.565-3.662 1.772-7.068 2.241-3.157.074-3.042-.339-.644-1.143.452-.066 5.034-3.342 6.41-3.708z"/>
                    <path d="M722.029 218.938c3.602-.441 5.964 1.873 6.49 6.242-.039.384.758.562.762.453.423-7.231 7.645-3.274 10.512 6.646.387 1.062-2.247-1.087-3.803-3.186-1.918-2.877-3.371-8.101-4.524-1.491-.424 1.475-1.173 4.73-1.173 4.73s-2.522-.671-2.572-.769c-.05-.098-.952-8.539-4.603-9.92-2.759-.789-4.387 5.844-7.822 6.039-3.154-.18-3.007-.582-.551-1.191.456-.029 5.881-7.299 7.283-7.554z"/>
                </g>
                <g fill="#004500">
                    <path d="M700.658 208.761c3.493-.973 6.17.961 7.339 5.196.019.385.833.441.82.334-.657-7.203 6.915-9.92 12.008.233.512 1.611-2.381-.738-4.23-2.579-2.322-2.555-5.17-2.735-5.326 3.964-.2 1.52-.456 4.846-.456 4.846s-2.591-.286-2.655-.376c-.064-.089-2.21-8.29-6.021-9.109-2.843-.368-2.914-.287-6.278.417-3.142.293-3.057-.127-.721-1.094.446-.097 4.174-1.372 5.521-1.832z"/>
                    <path d="M701.494 212.757c3.55-.754 6.106 1.34 7.013 5.637-.005.385.805.492.799.384-.212-7.227 7.521-9.469 11.985.974.412 1.639-2.334-.883-4.068-2.834-2.163-2.693-4.997-3.048-5.567 3.626-.293 1.504-.754 4.807-.754 4.807s-2.571-.446-2.63-.539c-.058-.093-1.697-8.408-5.455-9.46-2.818-.543-2.895-.467-6.3.028-3.158.098-3.047-.315-.653-1.136.452-.069 4.256-1.111 5.63-1.487z"/>
                    <path d="M702.619 218.418c3.599-.471 5.978 1.823 6.538 6.186-.036.384.763.555.766.447.368-7.232 8.255-8.857 11.866 1.925.28 1.67-2.255-1.067-3.827-3.153-1.94-2.86-4.736-3.44-5.839 3.178-.413 1.478-1.137 4.739-1.137 4.739s-2.527-.649-2.578-.747c-.051-.098-1.017-8.529-4.679-9.878-2.765-.766-2.847-.696-6.28-.473-3.155-.153-3.011-.557-.56-1.186.456-.033 4.33-.771 5.73-1.037z"/>
                </g>
                <g fill="#004500">
                    <path d="M741.153 206.185c3.614.295 5.458 3.035 5.091 7.413-.116.368.629.702.655.597 1.874-6.987 11.303-9.9 12.573 1.388-.077 1.689-1.979-1.569-3.078-3.936-1.296-3.201-5.291-1.318-7.754 4.914-.713 1.357-2.103 4.39-2.103 4.39s-2.333-1.164-2.362-1.271c-.029-.106.793-8.544-2.501-10.63-2.541-1.328-2.369.427-5.77-.075-3.05-.811-2.825-1.176-.298-1.276 1.943.595 4.125-1.549 5.548-1.515z"/>
                    <path d="M740.177 210.502c3.591.519 5.263 3.368 4.625 7.718-.138.36.585.74.617.636 2.305-6.86 12.946-3.255 13.514 8.095-.181 1.682-.872 1.295-1.823-1.136-1.096-3.276-7.253-10.558-10.099-4.488-.796 1.311-2.373 4.253-2.373 4.253s-2.257-1.307-2.28-1.415c-.023-.108 1.321-8.481-1.839-10.769-2.455-1.484-4.046.425-7.411-.288-2.996-.999-2.748-1.349-.219-1.292.448.091 5.869-1.436 7.288-1.314z"/>
                    <path d="M739.394 215.637c3.54.806 4.978 3.781 3.992 8.066-.167.348.523.785.564.684 2.849-6.654 8.305-.488 7.64 9.808.004 1.13-1.746-1.783-2.499-4.283-.83-3.355-.426-8.757-3.752-2.934-.899 1.243-2.707 4.05-2.707 4.05s-2.146-1.485-2.16-1.594c-.014-.109 1.999-8.35-.969-10.884-2.329-1.677-6.11 4.008-9.409 3.027-2.907-1.237-2.632-1.566-.114-1.306.439.127 8.009-4.87 9.415-4.634z"/>
                </g>
            </g>
            <g stroke="#000" transform="matrix(.887 0 0 1.032 -306.51 114.94)">
                <rect rx="1.432" ry=".678" height="24.19" width="2.864" y="222.49" x="826.05" fill="#b2802e"/>
                <g fill="#007500">
                    <path d="M824.345 227.207l-12.579 6.607 8.086-8.009 8.103-1.467-3.61 2.869z"/>
                    <path d="M825.529 226.997l-17.475 1.726 15.235-4.277 6.703.924-4.463 1.627z"/>
                    <path d="M833.112 226.537l4.845 7.389-7.698-5.599-2.144-4.065 4.997 2.275z"/>
                    <path d="M832.563 223.221l14.907 10.163-17.927-7.068-4.982-2.542 8.002-.552z"/>
                    <path d="M822.468 225.419l-17.857-4.963 17.566.126 5.904 4.855-5.613-.018z"/>
                    <path d="M820.172 223.066l-8.478-8.356 12.649 6.2 3.007 6.354-7.178-4.199z"/>
                    <path d="M821.582 218.919l-4.968-9.49 9.174 7.775-.4 7.584-3.806-5.869z"/>
                    <path d="M827.419 218.335l11.187-7.497-7.641 10.29-5.118 3.602 1.571-6.395z"/>
                    <path d="M834.481 218.25l14.376-2.202-12.759 6.286-6.721 1.344 5.104-5.428z"/>
                    <path d="M831.198 221.033l17.58 1.926-16.419 2.123-5.389-1.225 4.228-2.824z"/>
                    <path d="M828.872 227.427l-6.097 4.117 3.608-4.956 4.353-2.756-1.864 3.595z"/>
                    <path d="M825.517 226.367l-9.358 4.566 7.795-5.81 3.481-1.148-1.919 2.392z"/>
                    <path d="M833.453 222.726l6.994 7.52-8.43-5.981-1.887-2.876 3.323 1.336z"/>
                    <path d="M823.719 221.804l-9.236-6.485 9.037 4.596 3.068 2.634-2.868-.745z"/>
                    <path d="M829.01 224.884l8.605 1.116-8.385-.024-2.618.512 2.399-1.604z"/>
                    <path d="M828.141 218.654l6.527-5.929-3.433 4.715-2.729 5.541-.365-4.327z"/>
                    <path d="M825.71 221.037l-7.081-.403 7.347-1.516 3.818 4.216-4.084-2.298z"/>
                    <path d="M825.289 225.994l-12.23 3.867 10.186-4.918 4.551-.973-2.506 2.024z"/>
                </g>
            </g>
        </g>
    </g>
</svg>
