<svg xmlns="http://www.w3.org/2000/svg" id="flag-icon-css-fm" width="512" height="512">
  <defs>
    <clipPath id="a">
      <path fill-opacity=".67" d="M244.16 0h496.06v496.06H244.16z"/>
    </clipPath>
  </defs>
  <g fill-rule="evenodd" stroke-width="1pt" clip-path="url(#a)" transform="translate(-252) scale(1.032)">
    <path fill="#6797d6" d="M0 0h992.13v496.06H0z"/>
    <path fill="#fff" d="M507.85 84.45l38.87-.03-31.47 21.48 12.04 34.79-31.43-21.53-31.43 21.52 12.04-34.78-31.46-21.49 38.87.04 11.98-34.8m11.99 362.97l38.87.02-31.47-21.47 12.04-34.8-31.43 21.54-31.43-21.53 12.04 34.78-31.46 21.5 38.87-.05 11.98 34.8m-149.78-217.3l37.17-11.4-23.82 29.74 21.69 29.75-36.35-11.4L321 296.57l1.35-36.78-36.37-11.35 37.19-11.33 1.28-36.79m321.1 29.78l-37.17-11.39 23.82 29.74-21.69 29.75 36.35-11.4 23.77 29.77-1.35-36.78 36.37-11.35-37.19-11.33-1.28-36.79"/>
  </g>
</svg>
