<svg xmlns="http://www.w3.org/2000/svg" height="512" width="512">
    <g fill-rule="evenodd" clip-path="url(#a)">
        <path fill="#6797d6" d="M-252 0h1023.977v511.984h-1023.977z"/>
        <path fill="#fff" d="M271.898 87.13l40.09-.027-32.454 22.162 12.418 35.898-32.415-22.215-32.415 22.21 12.424-35.892-32.449-22.173 40.09.037 12.356-35.914z"/>
        <path fill="#fff" d="M271.898 425.891l40.09.027-32.454-22.162 12.418-35.898-32.415 22.215-32.415-22.21 12.424 35.892-32.449 22.173 40.09-.037 12.356 35.914z"/>
        <path fill="#fff" d="M105.403 237.338l38.382-11.783-24.592 30.724 22.398 30.706-37.542-11.75-24.54 30.759 1.392-37.987-37.562-11.699 38.401-11.722 1.321-37.988z"/>
        <path fill="#fff" d="M414.057 237.338l-38.382-11.783 24.592 30.724-22.398 30.706 37.542-11.75 24.54 30.759-1.392-37.987 37.562-11.699-38.401-11.722-1.321-37.988z"/>
    </g>
</svg>
