<svg xmlns="http://www.w3.org/2000/svg" id="flag-icon-css-gb-wls" width="512" height="512">
  <path fill="#00ab39" d="M0 256h512v256H0z"/>
  <path fill="#fff" d="M0 0h512v256H0z"/>
  <g stroke="#000" stroke-width="1.17">
    <path fill="#d21034" d="M339.46 113.21l-.02.04c.02 0 .04-.02.06-.04h-.04zm-.02.04c-33.99 18.8-64.41 38.35-94.32 63.28-14.35 12.53-10.3 22.53-10.85 33.79.46 7.56-1.64 14.59-6.29 18.82l-31.92 6.47-3.05-8.83c.98-4.51 4.71-6.73 12.57-3.9.62-5.8-4.05-8.17-9.52-10.18-1.87-1.46-4.2-2.59-3.9-7.6-.92-11.37 17.32.8 17.48.8.17 0-.6-11.46-8.98-13.76-4.57-1.62-6.5-6.43-4.76-10 3.65-7.3 10.54.57 15.8.85-.2-4.76-1.56-8.15-5.65-12-2.21-1.35-7.63-2.37-7.77-4.65-.12-3.09 5.08-4.41 12.22-3.56-1.5-4.33-6.3-7.13-12.9-9.17l-3.9-6.79c-1.84-3.42-2.67-3.51 1.61-10 3.85-2.49 8.96-6 12.81-8.5l-4.25-.5c.57-4.65.63-6.2 1.7-13.91-4.12 5.64-9.28 4.63-13.92 6.95 0 0-13.23 2.35-17.49 7.97l-33.26-1.69c-7.05.99-13.07 2.98-14.25 9.84-16.13 1.63-33.02.2-45.32 15.62 8.37-.4 15.7-2.4 25.11-1.18 0 0 8.02.15 9.68 8.64.17.34 2.72.34 2.72.34 1.02.8 2.03 1.6 3.05 2.38l1.18-3.23 2.73 1.87.85-3.56 2.7 1.87.19-4.25 3.56 2.55v-5.6s13.13-.03 17.14 8.32c.17.17-36.87 6.8-72.65 3.74l10.35-5.1c-13.04-2.66-25.31-5.05-36.82-14.1 4.34 16.36 26.8 35.57 31.39 35.49 0 .17-4.41-7.97-4.41-7.97l38.87 1.68c1.42 4.3.8 9.12 4.25 12.91 0 0-2.14 7.11 2.62 10 .17.35 5.7-14.4 5.7-14.4s1.69 3.96 3.4 6.6c2.46-12.7 16.28-14.76 16.28-14.76s2.89 6.62 2.89 6.79c-4.32.63-9.7 9.43-6.8 14.25-2.89.06-8.03 8.58-6.44 13.24-2.43 2.42-8.5 5.65-6.95 15.8-4.77 1.02-7.6 9.75-6.12 19-7.39 6.88-5.57 19.5 1.01 24.6-2.73 2.44-4.42 4.31-4.4 7.3-2.6-.96-5-.15-6.13 1.55-3.18-3.27-7.76-6.13-11.02-3.07-.84-3.86-5.87-8.12-11.38-7.62.32-4.08-1.8-9.12-7.63-10.88 0 0-1.18-19.1-6.97-25.3-.57-3.46.33-5.81 5.1-8.65 4.77-2.55 5.78-4.52 5.43-11.72 1.88-4.8 3.3-9.71-2.54-13.05.18 5.73-1.58 8.48-3.9 11.02-2.78-.4-3.75 2.84-5.61 4.25-2.62-3.52 5.5-8.98-.51-16.81-.34-.34-4.2-10.23-13.75-10 4.54 2.65 6.46 7.12 6.45 11.7-3.01 8.5-4.54 15.05-1.53 24.79-3.96-5.94-6.21-17.23-9.5-19.2-2.87-.55-4.28-7.36-15.45-5.42 4.82 1.3 6.35 4.97 7.65 8.31-2.95 1.53-1.49 5.55.67 8.32-.41 6.52 3.5 10.32 9.33 12.75l-2.88 26.63c-2.32-.3-5.9 8.74-7.3 9-2.27 1.42-6.24 5.22-1.7 6.3-1.34 4.87-2.6 7.8-9.85 8.82 0 0 7.67 4.54 14.03-3.24 6.81-.17 4.57-8.3 7.86-11.87 0-.17 1.87-1.35 4.6-8.5 1.19 6.39 7.75 25.95 22.57 35.66 12.92 13.83 23.53 26.89 23.42 45.32 5.04-4.7 8.05-12.12 10.37-19.2 7-2.43 17.04-3.36 25.98-2.96-1.53 3.23-3.25 6.32-1.04 8.42-6.24 2.14-7.6 6.67-5.1 11.2-6.58 4.47-7.01 7.34-7.12 14.76-12.17 15.6-19.68 15.08-31.73 11.04-3.96-2.33-10.09-5.67-12.91-3.9-5.21-3.48-12.7-4-13.93 3.9 3.9-3.24 6.24-2.62 9.35.5-.62 1.6-1.15 3.17 1.18 4.07l-3.05 3.4c-5.6-.86-13.13-.82-15.1 7.3 2.88-2.39 9.26-2.95 14.41-.67l2.89 1.01.34 3.9s-7.63-1.17-9.67 11.2c7.15-7.6 12.22-5.6 12.22-5.6 2.75 4.03 12.9 3.43 20.2-3.22 10.26-5.73 13.25 2.51 19.87-2.88 5.49-4.1 11.98-1.37 16.45 3.4 5.15 1.92 10.54 3.52 14.78 0 0 0 5.18-3.31 10.35 2.03.05-6.02-4.21-9.22-10-9.34l-1.71-1.7c-5.44-1.14-11.54-.68-16.29-3.4 2.24-8.5 5.5-16.2 11.87-22.75 7.87-8.43 13.66-12.26 23.59-25.17-.38 7.3 5.2 15.4 8.15 22.81 0 0 5.93-9.47 6.8-17.16.16 0 7.42-3.78 10.52-7 6.55 4.07 17.21-3.24 24.1-9.28 4.24 1.6 7.46 1.49 12.4 0-3.96 8.06 2.29 15.53 12.22 18.66.92 7.12 8.1 8.6 19 8.66.47 4.19 6.96 4.76 6.96 4.76-4.1 1.91-6.24 3.83-6.1 8.15-4.2.03-7.39 1.09-8.5 5.94-5.77.1-11.66.54-16.63 3.4-5.32-.83-11.79-3.04-15.96-7.3-2.15-1.82-2.69-4.43-6.44-5.43-2.39-2.82-5.23-2.19-6.12.5-2.47-1.92-11.7-2.81-13.24 5.94 4.3-3.15 8.17-4.36 10.88-.5-1.47 2.66 3.59 4.2 7.97 5.26 3.1.2 8.62 3.02 10.35 7.8-4.01 1.22-10.08.82-14.1-2.21-3.56-2.98-8.37-2.63-11.01-.67-3.67-2.34-12.41 2.07-12.75 9.15 3.68-3.38 7.03-5 10.37-2.87-1.66.4-1.03.56-.86 1.52l8.48 4.92c-4.16 1.1-8.07 2.76-6.26 10.51 0 0 3.39-6.7 11.02-4.22.17-.17 1.05 2.39 3.23.67 3.3-3.76 10.86-5.44 17.49-6.1 5.32-.64 10.63-2.2 15.27.83 4.12-2.12 8.72-3.55 13.42-.16 5.54 1.75 9.6 8.22 16.63 5.26 3.5-2.42 7.8-2.54 12.22 2.38.05-6.2-4.6-8.29-11.2-9.67l-4.58-2.73c-4.24-.62-8.5.13-12.75-1.87 22.21-5.74 37.78-18.13 48.74-35.8l10.5 3.72c2.5.16 2.69 1.02 7.81 2.56.2-7.56-3.05-15.34-16.63-16.12l-17.83-6.8c-3.78-3.98-5.5-12.45-.67-17.48 4.72-4.2 5.55-3.7 8.66-8.82 3.8-.35 7.36 3.56 10.86 3.56 1.66 4.93 11.24 9.3 17.32 7.8 3.81 3.38 11.07 5.25 19.01 2.54 4.51 3.95 10.39 5.6 17.3 2.55 1.84 1.83 5.72 3.3 10.2 2.38.33 0 2.25 4.9 7.13 6.62-2.13 2.07-.82 11.04 1.36 14.25-1.5 3.45-1.96 7.13-.7 10.7-4.91 3.16-5.91 5.51-3.71 10.86-6.44 10.35-14.15 11.53-21.4 8.33l-7.8-4.94-8.31-8.13c-1.42-1.33-4.34-1.74-4.94 1.18 0 0-10.67-2.38-11.53 6.63 4.42-4.31 10.7-.52 10.7-.35 0 .17-1.5 1.19-.35 2.91.26-.22 7.79 2.81 14.5 5.7 3.64 1.37 4.44 1.8 6.03 2.66-1.75-.8-3.8-1.71-6.04-2.67-4.08-1.55-8.06-2.78-9.23-2.48-3.8-.35-7.83-.82-9.67 2.03-4.09 1.73-10.47 3.12-10.2 10.7 2.77-4.52 6.55-4.33 11.37-3.9-.11.33-.2.67-.32 1.01 5.23 2.39 4.24-.65 9.13-1.1 4.08-.37 9.87 1.1 12.93 2.12-3.85 1.13-9.08.66-11.55 3.4-.45.9-2.04.53-1.34 2.7 0 0-7.5-.2-9.52 10.18 7.63-4.88 13.41-4.73 13.58-4.73.17 0 2.38.5 2.38.5s9.17-6.12 9.33-6.12c.17 0 8.88-3.85 12.9.51 3.5 1.73 7.25 1.84 10.87-.34 7.14-3.1 13.81-3.32 20.37 1.04l5.94 3.55 2.54-1.7s6.72-1.9 11.65 4.08c-2.04-10.35-9.43-10.7-9.43-10.7-.57-.5-1.15-1-1.71-1.52-3.5-1.35-7-2.73-10.51-4.08-1.53-3.8-5.38-6.81-1.55-11.37 3.92-19.47 8.6-34.09 1.02-53.82 7.07 3.06 12.36 12.5 21.23 9.17 0-7.92-29.17-22.96-51.44-35.05 36.5-1.86 80.35-28.8 63.5-63.04l7.96-24.79c3.76 7.56 11.36 13.33 18.18 15.78-5.62-10.73-8.85-43.55-5.61-66.2-14.7 18.17-30.95 34.29-48.2 50.67 8.48 1.98 15.9.58 24.1-.43-2.32 4.75-4.57 9.52-6.89 14.27-22.43-13.13-48.76-3.28-48.96 14.25.77 20.45 26.05 23.35 40.63 16.23-2.9 18.64-45.73 11.77-45.73 11.77-15.22-5.25-29.68-4.35-45.66-4.23 3.32-10.22 21.76-19.29 35.82-15.29-19.68-22.06 2.78-49.45 29.87-57.88-29.53-9.74-4.1-32.24 17.99-48.37 0 0-63.54 26.74-69.33 26.66-18.08-1.36-13.15-22.75-6.26-34.26zm-199.43 25.68c1.48.01 3.22.15 4.6.5 2.86.7 6.35 1.1 6.3 1.94-1.33 2.22-4.59 4.9-7.79 4.74-3.2-.16-5.05-2.08-6.12-6.9.33-.17 1.53-.28 3.01-.28zm267.46 75.4c4.16-.07 9.16 1.7 14.03 6.86-2.35 6.75-22.67 10.22-24.03.23-.41-3.02 3.91-7.02 10-7.1z"/>
    <path fill="none" stroke-linejoin="round" d="M161 197.9l3.08 4.5m-.14.13s0 6.03 1.26 6.17m-2.8 3.22c.14.14 3.22 5.32 3.22 5.32m-8.82 1.4c.14 0 3.92 4.35 3.92 4.35m3.28-3.37c0 .14 3.58 6.87 3.86 6.87m-8.54-2.24s1.26 8.12 2.38 7.84m-7.68 7.05l3.62 5.43m3.08-11.21s1.96 7.7 3.5 7m1.54-11.63c.14.14 3.65 5.19 4.63 4.49m-.84 1.96l3.36 6.72m-8.97-1.54c.14.28 2.8 7.99 2.8 7.99m-9.24-3.92s2.52 8.54 4.76 7.14m-5.74 4.2s.14 4.49 2.38 4.77m1.54-7c0 .13 2.24 3.22 2.24 3.22m4.16-8.56l1.86 2.95m4.07-8.4l2.8 3.5m-15.8-43.68c.14 3.78 6.14-1.33 8.52-4.56m-11.07 17.7s6.58-4.63 11.63-11.64m-13.74 22.7c4.63-1.26 13.13-11.55 14.82-17.01M154.13 237c1.27.56 17.16-10.89 17.58-19.3m-18 28.13c0-.14 14.53-3.7 20.56-19.68m-21.34 31.77s23.2-13.91 24.46-24.14m156.65 47.5s-1.5 12-13.55 13.82m17.33 7.61c.14-.14 11.49-12.6 8.55-16.39m17.8 4.34s-.15 8.7-7.3 14.72m21.44-12.2s.28 10.51-4.2 14.72m17.24-8.4s-5.03 9.83-6.85 10.81m6.63 6.62s6.61 1.65 8.71-2.7m-7 16.98s6.12 1.1 8.92-4.78m-9.57 15.8s4.95 4.16 8.3-1.3m-79.33-79.67s-.56 21.3 29.42 25.64c33.49 9.25 49.32 4.35 51.28 41.9-1.26 14.29-3.03 30.43-13.4 24.26m-99.1-72.18s4.76 8.55 10.5 7.99c7.57-2.25 10.38 2.38 10.38 2.38m-41.34-1.82s12.61 6.16 23.4-3.79m-22-5.04c1.12 14.71-16.95 23.12-24.1 21.72m24.96 34.65c.14 0 9.8-5.79 7.83-9.85m-27.04 1.26c.28-.28 16.25-1.82 19.2-7.57m-26.63-15.97c0-.14 22.67.06 24.21 4.26m5.92-17.71s-22.14 37.83 18.77 37.83m-42.17-38.4s-4.77 14.16-11.5 18.92m-12.04-23.82s8.22 15.91-.05 23.76m-21.39-19.27c.14.28 2.67 22.56-2.94 28.86m-7.7-28.16s.84 14.15-3.36 19.2c-4.21 5.04.98 15.51.98 15.51m-51.07 6.8s3 5.29 7.2 3.46m-2.1-14.99s6.73 2.94 8.97 1.82m-1.68-25.64s-9.95 2.8-6.16 14.57c5.74 4.63 11.35 3.93 11.35 3.93m-24.8 31.52c-.14 0 1.12 9.25 7.56 2.25 4.49-9.4 18.64-35.87 21.86-44.98m6.59-4.34s-6.87-5.33-6.59 2.1c-.14 4.62 2.1 5.74 2.1 5.74.28 3.37 3.23 8.13 5.6 3.79.99-4.2-.7-6.03-.7-6.03m3.93-7.57c-6.16-.42-9.53 13.18 2.38 4.63m4.07-9.25s-1.54 2.1-3.93-.14c-1.26-2.24-5.74 10.09 2.1 10.5 1.4-3.63 5.75-4.61 5.75-4.61m3.64-11.63s-3.5 1.68-4.76 1.4c-4.2.98-3.36 10.79 1.96 10.23 1.82-2.1 3.78-5.05 3.78-5.05m-34.02-19.4c-.14 0-13.9 21.64 7.68 27.38m167.01-59.97s-8.4 7.15-.56 18.64c-26.06-.42-40.07 11.63-41.2 19.75-33.2-2.38-27.17 7.43-37.96 10.65-14.43-12.05-35.6-5.32-34.2 6.73-9.66-13.6-24.51-7-26.33-3.64-1.82 3.36-1.12-16.68-1.12-16.68s-9.67 4.35-16.4 12.33c.14-5.32 0-14 0-16.81-8.08 1.63-15.88 1.73-24.24 1.54m-21.85-6.17s12.04 6.73 26.9-2.38m-27.89-21.86s9.4 8.41 27.05 5.75M132 225.1s2.1 6.86 22.28 7.29m-15.45-23.17s7.6 9.3 17.83 7.89m-11.35-21.16s2.94 5.05 14.15 5.89m-7.57-20.6s5.9 6.45 12.62 5.33m22.4-57.71s2.6-2.6 6.95-1.3m-8.83 15.05s-8.11-.29-7.53-3.47c.58-3.62 8.54-6.23 8.54-6.23s10.57-6.8 12.16-9.12m-47.78 37.06l10.28 19.7 4.92-7.4 2.61 5.08 4.2-7.39 7.24 4.64-2.75-8.98 6.08-.43s-1.6-4.35-7.1-5.22a153 153 0 0 1 6.52-4.48s-2.9-3.33-7.38-3.48c1.44-1.59 3.47-5.5 3.33-5.5-.15 0-4.5-1.01-4.5-1.01s10.29 3.33 18.25-1.3m-19.68-15.93c.14.15-.58 4.06-2.75 6.37m-36.92 4.5s6.36-1.76 11.12-.77c4.71.97 11.03 2.64 11.03 2.64s7.53-1 10-2.75M117 144.22s-.87 3.04-1.16 5.07c0 1.45-4.63 3.33-4.63 3.33M119.9 138s4.05 5.06 4.2 7.96c.14 2.9-3.05 5.07-3.05 5.07m-43 21.57l-4.2-6.8 3.77-1.31m76.25 101.96c-3.36-4.34 2.52-71.04 15-88.4-4.35 31.38 10.08 63.46 13.72 63.32m-66.62-81.97s5.68 2.18 17.45-7.14m15.9 22.56l8.44.1m253.4-52.38s-140.65 65.73-142.7 69.2c23.75-7.16 124.48-23.95 126.94-22.51-5.94 1.43-128.17 29.48-133.9 36.24 30.5-1.03 94.39 9.82 104.42 20.26-21.7-4.91-86.61-14.53-106.47-10.23 14.54 3.48 70.23 39.51 70.23 45.25-8.4-8-75.35-35.63-78-32.97 15.34 9.21 37.05 43.4 37.05 51.8-4.5-7.17-43.2-48.73-45.45-46.07 4.1 5.74 12.2 54.8 8.06 57.07 0-5.94-15.02-48.88-16.25-50.1-3.07.81-22.22 52.39-18.43 57.18-2.46-17.2.41-53.09 5.12-51.66-8.4 1.23-35.18 36.55-32.32 42.08.82-8.8 2.02-14.64 17.17-43.92-16.79 1.02-51.6 22.93-57.53 30.71 4.7-13.92 34.19-37.47 47.09-39.1m60.71-51.24c14.87-8.25 60.8-25.08 91.45-37.44m-120.3 81.84s10.13-.15 20.27-27.65c9.98-37.64 89.17-79.62 90.77-87.44M94.02 266.77s-2.36 5.02-5.25 6.46m16.6 1.14s-3.14 6.1-3.86 9m14.73-6.02s2.64 8.33.47 12.24m-30.73-33.86c-7.97 4.49 4.52 32.85 42.31 35.6m-6.08-15.35s-1.01 5.07 6.08 15.2c-2.03 11.3 8.59 20.17 12.79 21.62M119.16 174.2c0-.14 1.16-3.04 1.16-3.04l1.29 3.35 2.07-.05 1.37-3.36 1.13 3.37h2.07l1.27-3.74 1.92 3.54 1.64.08 1.28-4.31 2.66 3.09.96-.38.83-4.31 2.62 3.02.75-.44 1.21-4.25 2.18 3.16 1.1-.36 1.01-3.57 2.02 3.28m-32.87 5.3l15.79-.23c5.02-.08 13.3-7.04 22.57-4.87m-71.65 38.9s2.6 5.64 6.23 2.45m-12.3 1.3s-5.08 13.62 1 16.8m-8.25-31.85s0 3.18 6.66-1.74M49.52 268.6s5.36 1.6 4.49 5.65m-2.47-68.2s3.33 1.6 6.52-3.32m28.8 159.98c5.22-.3 6.34 2.06 11.08 2.06 5.47.17 10.79-2.06 17.74-3.95m44.73 12.6c-.14 0-2.46 4.92-.43 7.38m-73.84-6.95s8.25-6.8 12.6-2.6c4.2 1.44 6.5 1.15 6.5 1.15M90.5 354.45s2.02 5.21-4.78 4.5m-2.03 7.52s4.34 2.75-.58 6.37m3.19 4.92s5.94.87 2.46 5.65m189.27-41.71s16.12 1.66 16.86 2.87c1.85-1.95 16.24-13.6-1.45-15.27-2.96 12.13-15.13 12.58-15.41 12.4zm-5.75 8.06c6.02 4.81 3.56 7.7 22.46-5m-31.07 11.02s8.89 9.54 15.37-2.04m-32.33 5.46l-12.04 6.3m-21.68 8.9s7.32-6.3 10.75-2.97c3.43 3.34 17.97-2.87 17.97-2.87m-23.25-21.49s2.5 5-2.32 5.65m-7.22 10s2.54 4.71-2.38 6m8.03 6.8s7.6.36 4.9 6.1m66.15-7.13s-4.17 3.52-1.1 7.5m61.6-32.79s4.82 2.32-.93 6.3m-4.81 8.34s3.61 3.8 1.2 6.95m8.9 7.6s5 1.38 4.44 5.55m65.59-9.26s-4.17 3.05-1.95 7.04m-72.3-128.8c10-1.2 24.36 21.03 31.68 25.38m43.77-56.88s5.07 4.43.6 15.1m8.8-32.12c1.4 1.1 6.85 4 10.45 10.74m3.45-44.02c0 .09-7.04 18.99-7.04 18.99m14.92-19.92s-1.4 16.86-3.43 20.29M421.5 221.2c-2.34 6.75-22.66 10.2-24.03.21-.7-5.08 12.04-12.93 24.03-.2z"/>
    <path stroke-linejoin="round" d="M139.85 138.99l7.82 1.44s-5.5 7.39-7.82-1.44z"/>
  </g>
</svg>
