<svg xmlns="http://www.w3.org/2000/svg" xmlns:xlink="http://www.w3.org/1999/xlink" id="flag-icon-css-gd" width="512" height="512">
  <defs>
    <g id="c">
      <g id="b">
        <path id="a" fill="#fcd116" d="M0-1v1h.5" transform="rotate(18 0 -1)"/>
        <use width="100%" height="100%" transform="scale(-1 1)" xlink:href="#a"/>
      </g>
      <use width="100%" height="100%" transform="rotate(72)" xlink:href="#b"/>
      <use width="100%" height="100%" transform="rotate(144)" xlink:href="#b"/>
      <use width="100%" height="100%" transform="rotate(-144)" xlink:href="#b"/>
      <use width="100%" height="100%" transform="rotate(-72)" xlink:href="#b"/>
    </g>
  </defs>
  <path fill="#ce1126" d="M0 .05h512v512H0z"/>
  <path fill="#007a5e" d="M71.68 71.68h368.64v368.64H71.68z"/>
  <path fill="#fcd116" d="M71.68 71.73h368.64L71.68 440.37h368.64z"/>
  <circle cx="255.91" cy="256.05" r="61.44" fill="#ce1126"/>
  <use width="100%" height="100%" transform="translate(255.91 256.05) scale(56.32)" xlink:href="#c"/>
  <use width="100%" height="100%" x="-100" transform="translate(-16.35 -.1)" xlink:href="#d"/>
  <use id="d" width="100%" height="100%" transform="translate(256 35.89) scale(33.28)" xlink:href="#c"/>
  <use width="100%" height="100%" x="100" transform="translate(16.35)" xlink:href="#d"/>
  <path fill="#ce1126" d="M99.8 256.75c7.69 14.32 22.64 29.9 35.7 35.38.2-14.54-4.95-33.18-12-48.03l-23.7 12.65z"/>
  <path fill="#fcd116" d="M86.77 207.63c11.14 23.23-28.9 78.65 37.81 91.63-8.23-11.23-13.53-29.76-11.53-44.64 14 5.32 28.73 20.9 34.68 32.82 17.46-63.4-44.78-59.55-60.96-79.8z"/>
  <use width="100%" height="100%" x="-100" transform="translate(-16.35 442.09)" xlink:href="#d"/>
  <use width="100%" height="100%" transform="translate(256 478.08) scale(33.28)" xlink:href="#c"/>
  <use width="100%" height="100%" x="100" transform="translate(16.35 442.19)" xlink:href="#d"/>
</svg>
