<svg xmlns="http://www.w3.org/2000/svg" height="512" width="512" xmlns:xlink="http://www.w3.org/1999/xlink" viewBox="0 0 170.66667 170.66667"><defs><g id="c"><clipPath id="a"><path d="M-109 104a104 104 0 0 0 0-208h218a104 104 0 0 0 0 208z"/></clipPath><path id="b" clip-path="url(#a)" d="M-55 74a55 55 0 0 1 110 0v-148a55 55 0 0 1-110 0z"/><use xlink:href="#b" transform="rotate(90)" height="200" width="300"/></g></defs><g><rect height="170.67" width="170.67" fill="#fff"/><g transform="matrix(.535 0 0 .535 5.108 47.576)"><rect height="200" width="300" y="-29.333" fill="#fff"/><path fill="#f00" d="M130-29.333v80h-130v40h130v80h40v-80h130v-40h-130v-80h-40z"/><use xlink:href="#c" transform="translate(64.45 10.117)" height="200" width="300" fill="#f00"/><use xlink:href="#c" transform="translate(235.55 131.22)" height="200" width="300" fill="#f00"/><use xlink:href="#c" transform="translate(235.55 10.117)" height="200" width="300" fill="#f00"/><use xlink:href="#c" transform="translate(64.45 131.22)" height="200" width="300" fill="#f00"/></g></g></svg>