<svg xmlns="http://www.w3.org/2000/svg" height="512" width="512" version="1">
  <g clip-path="url(#a)">
    <g fill-rule="evenodd">
      <path fill="#3e9a00" d="M0 0h767.975v171.886h-767.975z"/>
      <path fill="#fff" d="M0 171.886h767.975v168.222h-767.975z"/>
      <path fill="#e32118" d="M0 340.108h767.975v171.886h-767.975z"/>
      <path d="M0 0v511.934l255.917-255.967-255.917-255.967z" fill="#5567e4"/>
    </g>
    <g>
      <path d="M283.46 148.82v442.91c0 35.433 17.716 70.866 53.149 70.866h70.866c17.717 0 35.433 35.433 35.433 35.433s16.938-35.433 35.433-35.433h70.867c35.433 0 53.149-35.433 53.149-70.866v-442.91h-318.9z" fill-rule="evenodd" transform="matrix(.238 0 0 .186 269.546 179.743)" stroke="#000" stroke-width="3.791" fill="#ccc"/>
      <g>
        <g>
          <path d="M215.38 731.79c-18.021 0-35.738-17.717-35.738-35.433v-88.583c15.502 15.502 88.583 70.866 70.867 88.583-17.717 17.716-35.737 0-35.433 0l.304 35.433z" fill-rule="evenodd" transform="matrix(.239 0 0 .186 267.851 160.285)" stroke="#000" stroke-width="1pt" fill="#ccc"/>
          <path d="M319.408 289.826h8.504l-4.252 19.772c-4.125-.619-4.267 0-6.65-3.295 0-3.296 0-13.826 2.398-16.476z" fill-rule="evenodd" fill="#ccc"/>
          <path d="M215.38 731.79c-18.021 0-35.738-17.717-35.738-35.433v-88.583c15.502 15.502 88.583 70.866 70.867 88.583-17.717 17.716-35.737 0-35.433 0l.304 35.433z" fill-rule="evenodd" transform="matrix(-.239 0 0 .186 481.406 160.285)" stroke="#000" stroke-width="1pt" fill="#ccc"/>
          <path d="M429.958 289.826h-8.504l4.252 19.772c4.125-.619 4.267 0 6.65-3.295 0-3.296 0-13.826-2.398-16.476z" fill-rule="evenodd" fill="#ccc"/>
          <path d="M513.78 1140.9c-.001-17.71-35.433-53.14-35.433-70.86s35.433 17.72 106.3 17.72c70.866 0 106.3-88.588 88.582-106.3 17.717 35.434 17.717 70.864 17.717 88.584 0 35.43-35.433 70.86-106.3 70.86h-70.866z" fill-rule="evenodd" transform="matrix(.239 0 0 .186 268.443 107.249)" stroke="#000" stroke-width="1pt" fill="#ccc"/>
          <path d="M513.78 1140.9c-.001-17.71-35.433-53.14-35.433-70.86s35.433 17.72 106.3 17.72c70.866 0 106.3-88.588 88.582-106.3 17.717 35.434 17.717 70.864 17.717 88.584 0 35.43-35.433 70.86-106.3 70.86h-70.866z" fill-rule="evenodd" transform="matrix(-.239 0 0 .186 480.156 107.249)" stroke="#000" stroke-width="1pt" fill="#ccc"/>
          <path d="M357.675 316.182c0-3.294 8.504-6.591 8.504-9.886v16.476h-8.504v-6.59z" fill-rule="evenodd" fill="#ccc"/>
          <path d="M391.689 316.182c0-3.294-8.504-6.591-8.504-9.886v16.476h8.504v-6.59z" fill-rule="evenodd" fill="#ccc"/>
          <path d="M371.17 1034.6c0 17.71 141.73 17.71 141.73 0v70.87c0 17.71-141.73 17.71-141.73 0v-70.87z" fill-rule="evenodd" transform="matrix(.239 0 0 .186 268.652 123.723)" stroke="#000" stroke-width="1pt" fill="#ccc"/>
          <path d="M249.63 696.36h-35.433c-17.717 17.716 17.717 106.3 88.583 106.3s106.3-35.433 106.3-17.717l-35.433 53.15s141.73 17.717 141.73 0-35.433-35.433-35.433-53.15c0-17.716 35.433 17.717 106.3 17.717 70.866 0 106.3-88.583 88.583-106.3h-35.433" transform="matrix(.239 0 0 .186 268.06 160.285)" stroke="#000" stroke-width="1.25" fill="none"/>
        </g>
        <path d="M426.661 314.203l-4.348-7.312.763-.308 4.348 7.312-.763.308z"/>
        <path d="M424.435 312.39l.915-.01c.236.876.246 1.603.026 2.18-.218.573-.638.963-1.261 1.171-.644.215-1.249.224-1.816.029-.565-.2-1.108-.579-1.628-1.136-.518-.559-.953-1.201-1.307-1.922-.386-.788-.604-1.513-.654-2.176-.049-.668.071-1.226.36-1.674.29-.452.699-.766 1.225-.942.597-.199 1.194-.174 1.791.075.596.25 1.145.696 1.647 1.341l-.665.491c-.408-.504-.805-.837-1.192-1-.387-.163-.779-.177-1.179-.044-.459.153-.775.42-.948.801-.17.381-.203.827-.097 1.34.105.51.279 1.014.523 1.512.315.642.664 1.18 1.046 1.613.384.428.79.708 1.218.842.429.132.825.139 1.189.017.443-.148.738-.435.887-.86.148-.425.121-.974-.082-1.646z"/>
        <path d="M418.999 317.355l-2.866-7.806.812-.203 2.866 7.806-.812.203z"/>
        <path d="M413.263 318.068l-.741-7.146-2.108.15-.099-.956 5.072-.361.099.956-2.117.151.741 7.146-.846.06z"/>
        <path d="M405.356 316.259l.803-.088c.038.407.126.743.263 1.006.141.26.357.471.649.634.293.159.622.239.987.239.324 0 .611-.061.859-.183.249-.122.433-.289.553-.501.123-.215.184-.448.184-.7 0-.255-.059-.478-.176-.667-.117-.193-.31-.354-.578-.484-.173-.085-.554-.216-1.144-.395-.591-.181-1.004-.352-1.241-.512-.307-.204-.536-.456-.688-.757-.149-.304-.223-.643-.223-1.017 0-.412.092-.795.276-1.151.184-.36.453-.632.807-.817.353-.185.747-.278 1.179-.278.477 0 .896.098 1.259.294.365.194.646.478.842.857.195.378.301.806.316 1.284l-.816.078c-.044-.515-.193-.905-.447-1.167-.251-.264-.624-.395-1.118-.395-.515 0-.89.121-1.127.362-.233.237-.351.524-.351.862 0 .292.084.533.25.723.164.189.591.383 1.28.584.693.196 1.168.368 1.425.517.374.218.651.496.829.834.178.333.267.718.267 1.156 0 .434-.098.844-.293 1.229-.196.382-.478.68-.846.896-.365.211-.777.317-1.236.317-.582 0-1.07-.108-1.464-.323-.392-.215-.7-.538-.926-.968-.222-.434-.339-.923-.351-1.468z"/>
        <path d="M403.226 310.597l.851.03-.257 4.71c-.045.82-.154 1.467-.326 1.944-.173.477-.458.86-.858 1.151-.396.286-.904.42-1.524.398-.602-.021-1.088-.171-1.456-.447-.369-.277-.621-.667-.758-1.17-.137-.506-.181-1.191-.134-2.055l.257-4.71.85.03-.257 4.704c-.039.708-.016 1.233.069 1.574.086.337.25.601.492.791.245.191.549.292.915.305.625.022 1.081-.141 1.367-.492.285-.35.456-1.037.512-2.061l.257-4.704z"/>
        <path d="M392.543 316.1l.767-.134c.021.623.113 1.05.277 1.279.163.23.39.345.68.345.213 0 .397-.061.552-.183.155-.126.262-.295.32-.507.059-.215.088-.556.088-1.023v-5.616h.851v5.556c0 .682-.066 1.21-.198 1.585-.129.374-.334.66-.618.856-.28.197-.611.295-.991.295-.564 0-.997-.206-1.298-.618-.298-.411-.441-1.023-.429-1.835z"/>
        <path d="M378.086 329.508v-1.129l3.292-5.885c.233-.418.456-.782.667-1.091h-3.586v-1.085h4.603v1.085l-3.608 6.375-.391.646h4.104v1.084h-5.082z"/>
        <path d="M331.251 318.337l2.026-9.041.835.128-2.026 9.041-.835-.128z"/>
        <path d="M322.121 314.785l5.287-8.103.768.34-1.178 7.676 4.151-6.362.718.318-5.287 8.103-.768-.34 1.181-7.682-4.154 6.367-.718-.317z"/>
        <path d="M326.427 305.867l.602.493-4.567 3.768c-.795.656-1.477 1.134-2.048 1.435-.571.301-1.139.462-1.705.483-.56.02-1.06-.149-1.499-.509-.426-.349-.647-.74-.663-1.172-.015-.433.159-.895.525-1.388.369-.495.973-1.088 1.81-1.779l4.567-3.768.602.493-4.562 3.763c-.687.566-1.158 1.014-1.413 1.344-.249.327-.373.637-.37.928.003.293.135.545.394.757.443.363.932.477 1.469.344.537-.134 1.302-.61 2.294-1.429l4.562-3.763z"/>
        <path d="M336.035 318.953l.296-9.19 2.214.049c.5.011.88.063 1.14.157.364.13.672.356.921.68.326.416.562.947.708 1.589.149.639.211 1.369.184 2.187-.023.699-.099 1.316-.231 1.852-.131.537-.291.981-.482 1.332-.189.347-.395.621-.614.82-.217.195-.477.343-.782.441-.302.097-.647.142-1.036.133l-2.32-.051zm.886-1.065l1.372.03c.424.009.758-.04 1.001-.148.246-.107.444-.262.595-.463.21-.284.379-.667.507-1.149.129-.486.205-1.077.228-1.77.031-.962-.056-1.701-.262-2.221-.203-.523-.459-.875-.769-1.058-.223-.13-.588-.201-1.094-.213l-1.351-.03-.226 7.021z"/>
        <path d="M341.728 318.977l2.469-9.19h.916l2.631 9.19h-.969l-.75-2.783h-2.688l-.706 2.783h-.903zm1.855-3.773h2.179l-.671-2.545c-.204-.774-.356-1.408-.456-1.905-.082.588-.198 1.173-.346 1.755l-.706 2.696z"/>
        <path d="M348.422 318.977v-9.19h2.214c.5 0 .881.044 1.145.132.368.122.682.341.942.659.339.409.592.934.759 1.573.17.636.254 1.363.254 2.181 0 .699-.057 1.317-.171 1.856-.114.539-.26.986-.438 1.341-.178.351-.374.629-.587.833-.21.2-.466.353-.767.458-.299.104-.642.156-1.03.156h-2.32zm.851-1.084h1.372c.424 0 .756-.057.995-.17.242-.112.436-.272.579-.476.202-.289.358-.675.469-1.16.115-.489.172-1.08.172-1.774 0-.962-.111-1.699-.333-2.214-.219-.518-.487-.864-.803-1.04-.228-.125-.595-.188-1.1-.188h-1.351v7.021z"/>
        <path d="M366.621 329.508v-9.19h2.425c.427 0 .752.03.977.088.316.076.581.219.794.433.213.209.384.503.513.884.132.38.198.798.198 1.254 0 .781-.174 1.443-.522 1.987-.348.539-.977.809-1.886.809h-1.648v3.736h-.851zm.851-4.821h1.662c.549 0 .94-.145 1.17-.439.231-.292.346-.704.346-1.235 0-.385-.069-.712-.206-.984-.135-.276-.313-.458-.535-.546-.144-.054-.408-.081-.794-.081h-1.644v3.284z"/>
        <path d="M371.905 329.508l2.469-9.19h.916l2.631 9.19h-.969l-.75-2.783h-2.688l-.706 2.783h-.903zm1.854-3.773h2.179l-.67-2.545c-.204-.774-.357-1.408-.456-1.905-.082.588-.198 1.173-.346 1.755l-.706 2.696z"/>
        <path d="M428.925 313.61l-4.302-7.872.677-.409 8.071 5.593-.716.433-2.409-1.715-1.986 1.201 1.333 2.365-.667.404zm-1.145-3.608l1.61-.974-2.192-1.575c-.667-.478-1.203-.878-1.607-1.2.331.47.636.953.914 1.447l1.275 2.301z"/>
      </g>
      <path d="M419.16 331.78c.065 32.968 19.893 131.63-37.678 284.94-4.262 11.127 7.064 16.484 16.484 18.839 9.419 2.355 14.129-9.419 14.129-11.774s2.355 18.839 11.774 16.484c9.42-2.355 18.839-16.484 18.839-16.484s4.71 21.194 16.484 21.194l11.774-25.904c0 2.355 8.164 22.235 17.583 22.235 9.42 0 23.929-8.76 15.548-23.144-59.832-100.72-56.68-267.54-56.68-286.38 0-18.839 27.784-53.068 55.418-53.889l-10.675-16.756c-6.96 2.135-15.28 3.669-29.409 15.443l-22.398 24.589v-80.065h-23.548l2.355 73.001s-8.051-9.439-20.095-19.932c-11.401-9.934-31.972-9.199-44.637-7.118l-1.204 15.989c14.969 3.123 34.067-3.068 43.487 11.061 11.774 11.774 22.414 21.259 22.449 37.677z" fill-rule="evenodd" transform="matrix(.147 0 0 .149 312.002 202.059)" stroke="#000" stroke-width="5.029" fill="#682900"/>
      <path d="M310.55 312.21v-.832c0 1.976-.067 1.101.833-2.498.777-2.848 2.407-5.523 4.163-7.493 3.04-1.014 7.441.053 10.823-.833 2.278-3.268 5.828 4.267 5.828-.833 4.343-.311 4.399-4.559 5.828-6.66 4.054-.5 4.963-5.44 8.326-2.497 2.756 1.305.406-.833 4.996-.833 2.713.663 4.131 2.32 6.66.832.62-2.851 1.399-6.268 1.665-9.99-1.177-2.356-.832-7.184-.832-10.824 2.274-3.032 6.262 2.476 9.99 1.665 1.018-3.562 4.146-3.466 2.498-6.66-.308-4.007-1.08-6.503 0-10.823 1.314-3.704 3.228-3.607 6.66-5.828 1.093-3.277-.122-6.03.833-9.991 3.901-.115 3.832-1.132 4.163-4.995 1.26-2.661 2.858-5.356 4.995-7.493 1.968-2.382 4.303-2.147 5.828-5.828 1.308-3.271 1.311-4.751 4.995-5.828 2.696-1.269 4.833-1.411 6.661-3.331 1.732-3.056 3.174-5.486 5.828-9.158 2.63-1.772 15.237 1.665 19.149 1.665 2.118-2.669 5.397-6.859 7.493-8.326 3.587-1.916 4.961-2.497 9.99-2.497 4.288 1.27 6.082 2.794 10.824 1.665 1.932-2.706 3.816-3.965 8.325-2.498 3.433 2.221 5.347 2.124 6.661 5.828 1.946 4.615 1.508 6.192 6.661 6.661 5.181.185 5.709 1.442 9.158 4.162 5.248 2.25 4.995.982 4.995 5.828 3.721 0 4.052-.44 4.163 3.331 2.294.713 4.907 2.718 6.661 4.162 2.093 2.416 2.629 3.929 7.493 4.163 3.591-1.508 4.75-1.496 4.995-5.828 2.75-.982 3.212-3.635 4.163-6.66 2.108-2.885 3.474-3.331 8.325-3.331 4.279 1.773 4.139 3.568 3.331 7.494 2.664.551 3.764.239 4.163 3.33 1.407 2.346 1.039 5.15-.833 6.66 2.132 1.568 3.369 4.256 4.163 7.493-1.411 2.352-.547 5.809 0 8.326 2.912 1.456 4.415 2.809 8.325 4.163 1.983 1.68 6.199 3.441 9.991 4.163 4.481-.606 5.961-.568 9.991 1.665 2.084 2.993 2.235 6.771 4.163 8.326 2.175 1.843 5.818 2.649 7.493 4.995 2.778 2.03 3.594 4.281 7.493 4.995 1.471 2.228 4.634 5.896 5.828 8.326.941 2.694 1.361 7.413 2.498 10.823v11.656c-.158 4.304-.833 6.916-.833 11.656-.74 2.384-1.665 3.3-1.665 6.661-1.582 3.526-2.931 6.489-4.995 9.158-.941 4.235-2.473 6.223-4.163 9.991.052 4.369.832 6.304.832 10.823-1.81 2.69-3.887 4.647-7.493 6.661-2.724 3.187-4.368 4.426-4.995 9.158-1.566 2.705-1.443 2.498-4.995 2.498-4.2 0-7.814.375-11.656.832-3.378 0-4.64.356-6.661-1.665-3.988-1.804-7.345-1.91-11.656-.833-2.325-1.594-3.258-2.497-7.493-2.497-3.161.427-5.965.832-9.991.832-2.495-2.789-3.897-3.33-8.325-3.33-2.356 1.178-7.184.833-10.824.833-3.821-1.043-4.313-2.63-5.828-5.828-2.605-1.235-3.635-3.039-7.493-3.331-3.639 0-8.468.345-10.823-.832-2.723-.327-5.586-1.027-7.493-2.498-1.556-2.288-3.54-4.272-5.828-5.828-3.698 0-5.864.355-7.493-1.665-2.732-2.157-4.891-5.564-8.326-7.493-3.062-2.43-5.136-3.916-6.661-8.326 0-3.943.78-4.874-3.33-4.995-2.755 2.812-4.009 3.33-9.158 3.33-3.389 0-6.931-.018-9.158-.832-3.681-2.09-5.028-3.013-9.158-3.331-2.585 1.645-6.008 3.547-9.991 4.163-3.405 1.966-5.437 2.379-6.661 5.828-3.145 2.568-4.989 4.078-9.158 5.828-2.316 2.209-4.526 2.591-5.828 6.661-.792 3.366-1.665 5.369-1.665 9.99.59 4.368.361 6.237-1.665 9.991-1.741 2.486-4.757 3.7-7.493 5.828-4.116.494-4.548.186-7.493-1.665-2.933-.977-6.266-1.78-9.991-2.498-4.496-.866-6.017-1.961-8.326-4.162l8.326 4.162c-4.496-.866-6.017-1.961-8.326-4.162-5.064-3.583-6.063-5.398-11.656-5.828-5.198.061-7.429.318-8.325 4.995 2.961.789.609 2.554-.833 3.33-2.078 1.852-5.411 3.368-8.326 4.163-1.328 1.328-1.072-1.101-3.33-1.665-3.448-1.842-4.89-3.226-8.326-4.163-1.683-2.971-3.584-5.274-5.828-8.326-1.734-2.818-3.382-3.838-5.828-6.66-1.169-1.754-4.159-1.829-5.827-3.33-1.001-3.002-3.169-8.57-2.498-11.656 1.679-1.586 2.632-7.243 4.995-8.326 3.367-2.525 4.635-.223 9.159 0 4.259 0-5.866-6.71-1.665-6.66 3.92-.666 4.387-2.595 5.827-4.996h9.991z" fill-rule="evenodd" transform="matrix(.203 0 0 .153 285.616 190.044)" stroke="#000" stroke-width="4.464" fill="#009200"/>
      <path d="M382.98 253.1c.878.713 4.684 2.498 8.326 2.498 3.976.728 4.843 2.216 5.828 5.828 2.174 1.304 3.55 1.665 7.493 1.665 4.359.871 4.322 2.212 7.493 4.995" transform="matrix(.203 0 0 .186 285.616 179.124)" stroke="#006800" stroke-width="4.05" fill="none"/>
      <path d="M358.84 299.72c1.812.266 8.154.832 12.488.832 3.333-1.924 4.912-3.24 7.493-4.995 3.943 0 5.32.361 7.494 1.665l9.158 1.665c0 1.11-.278.833.832.833" transform="matrix(.203 0 0 .186 285.616 179.124)" stroke="#006800" stroke-width="4.05" fill="none"/>
      <path d="M391.31 286.4c.065-.025 3.252-1.946 5.828-2.498 2.835-1.976 5.946-2.939 9.158-4.163 2.117-.46 7.102-.448 8.326-.832" transform="matrix(.203 0 0 .186 285.616 179.124)" stroke="#006800" stroke-width="4.05" fill="none"/>
      <path d="M432.1 273.91v.833c0-2.327-.104-1.091 1.665 3.33.874 4.078 1.949 7.526 3.33 10.823 2.455 3.83 4.058 5.547 7.493 7.493 2.939 2.316 5.164 4.724 8.326 5.828 2.202 1.963 5.106 3.584 8.325 4.996 4.271 0 7.558.686 11.656.832h2.498" transform="matrix(.203 0 0 .186 285.616 179.124)" stroke="#006800" stroke-width="4.05" fill="none"/>
      <path d="M477.06 227.29v.833c0-2.247.055-1.105-.832 3.33-1.257 2.654-2.705 5.124-4.163 7.493-3.915 1.419-5.374 4.277-6.661 7.493-1.372 2.231-3.505 5.17-4.995 7.493-2.589 3.211-3.622 4.242-8.326 5.828" transform="matrix(.203 0 0 .186 285.616 179.124)" stroke="#006800" stroke-width="4.05" fill="none"/>
      <path d="M510.36 244.77c0 .244-1.537 2.434-2.498 4.996-1.653 2.436-2.075 6.861-2.497 9.99 0 3.618.021 7.557.832 9.991 2.516 3.121 3.158 4.764 7.493 6.661l-7.49-6.66c2.516 3.121 3.158 4.764 7.493 6.661" transform="matrix(.203 0 0 .186 285.616 179.124)" stroke="#006800" stroke-width="4.05" fill="none"/>
      <path d="M571.14 273.91v.833c0-2.61.217-1.006-4.163 2.497-3.252 2.999-5.572 5.416-8.325 7.493-4.732 1.255-5.455 1.182-9.991.833h-7.493" transform="matrix(.203 0 0 .186 285.616 179.124)" stroke="#006800" stroke-width="4.05" fill="none"/>
      <path d="M582.8 337.19h-.832c2.327 0 1.089-.103-3.331 1.665-3.692.923-7.879.982-10.823 0-2.966-1.681-5.955-3.055-8.326-5.828-1.241-.93-1.42-1.306-2.497-1.665" transform="matrix(.203 0 0 .186 285.616 179.124)" stroke="#006800" stroke-width="4.05" fill="none"/>
      <path d="M553.66 363v-.833c0 2.61.217 1.006-4.163-2.498-1.872-2.753-3.748-3.794-7.493-6.66-3.236-3.913-3.659-5.481-4.995-9.991-.356-3.323-1.455-6.734 0-9.158" transform="matrix(.203 0 0 .186 285.616 179.124)" stroke="#006800" stroke-width="4.05" fill="none"/>
      <path d="M492.05 348.84c1.81 0 8.56-.159 11.656-.833 2.418-1.643 5.094-2.746 8.326-4.162 1.764-4.36 3.27-5.809 3.33-10.824" transform="matrix(.203 0 0 .186 285.616 179.124)" stroke="#006800" stroke-width="4.05" fill="none"/>
      <path d="M441.26 323.87c-.652-1.483-3.544-7.436-4.995-10.823-.065-3.638-.833-6.285-.833-9.991" transform="matrix(.203 0 0 .186 285.616 179.124)" stroke="#006800" stroke-width="4.05" fill="none"/>
      <path d="M328.86 350.51c.839.126 4.375.403 6.66 0 3.635-1.861 7.022-2.205 10.823-2.498 1.933-1.159 5.086-1.031 6.661-2.497 3.474-2.316 3.937-4.645 5.828-8.326l.832-4.163" transform="matrix(.203 0 0 .186 285.616 179.124)" stroke="#006800" stroke-width="4.05" fill="none"/>
      <path d="M383.81 338.02c-1.828 0-8.658.125-12.489-.833-1.967-1.273-3.363-3.364-4.995-4.995 1.11 0 .833.277.833-.833" transform="matrix(.203 0 0 .186 285.616 179.124)" stroke="#006800" stroke-width="4.05" fill="none"/>
      <path d="M393.8 313.88c.353-.106 4.485-1.665 7.493-1.665 1.79-1.158 4.76-2.237 7.493-3.33 1.481-.797 2.504-1.787 4.163-2.498" transform="matrix(.203 0 0 .186 285.616 179.124)" stroke="#006800" stroke-width="4.05" fill="none"/>
      <path d="M293.06 347.18h.833c-2.249 0-1.1.053 3.33-.833 5.18-.32 8.666-2.111 12.489-3.33 2.496-2.318 5.939-4.635 8.325-5.828 0-1.423-.341-1.274.833-1.665" transform="matrix(.203 0 0 .186 285.616 179.124)" stroke="#006800" stroke-width="4.05" fill="none"/>
      <path d="M504.54 301.39h.833c-2.328 0-1.09-.103 3.33 1.665 3.517 1.346 6.695 1.781 9.991 2.498 2.993.731 4.127 1.665 8.325 1.665 4.19 1.826 5.104 2.397 8.326 4.995 2.465 1.168 4.221 1.665 8.326 1.665 2.178-1.206 6.161-2.609 8.325-3.33 1.211-.908 1.293-.55 1.665-1.665" transform="matrix(.203 0 0 .186 285.616 179.124)" stroke="#006800" stroke-width="4.05" fill="none"/>
      <path d="M430.94 469.54v18.839c0 6.017-.557 11.277-2.355 16.484 0 5.875-.077 11.554-2.355 15.306-.401 5.618-1.177 10.479-1.177 16.484-1.705 5.116-1.504 12.044-2.355 17.662-.738 5.508-1.393 12.06-2.355 16.484-1.754 3.684-4.745 10.349-7.064 12.951-.288 5.085-1.532 7.588 0 11.775 1.641 4.922 1.177 10.85 1.177 16.484 1.537 4.611 1.178 10.004 1.178 15.306" transform="matrix(.203 0 0 .186 288.32 178.504)" stroke="#000" stroke-width="1pt" fill="none"/>
      <path d="M436.82 493.08c.358 2.361 2.118 10.873 2.355 16.484v25.904c0 6.299.532 11.851 1.178 17.661-.084 6.943-1.346 9.54-4.71 15.307l-2.355 16.484c-1.641 4.923-1.177 10.85-1.177 16.484 1.404 6.322 3.703 7.453 4.709 12.951 0 3.359.321 5.066 1.178 7.065" transform="matrix(.203 0 0 .186 288.32 178.504)" stroke="#000" stroke-width="1pt" fill="none"/>
      <path d="M447.42 535.47c0 2.155-.14 12.532 1.178 16.484 0 6.023 1.106 10.544 1.177 16.484-.714 5.281-1.453 9.084-4.71 11.774-2.144 4.358-3.314 8.235-3.532 14.129 3.043 2.13 6.349 8.079 9.419 10.597 2.567 5.361 4.956 5.59 5.888 11.774 2.458 2.732-1.733 4.154 0 5.887 1.91 2.548.687 1.469 0 3.533" transform="matrix(.203 0 0 .186 288.32 178.504)" stroke="#000" stroke-width="1pt" fill="none"/>
      <path fill-rule="evenodd" transform="matrix(.161 0 0 .147 369.234 198.555)" stroke="#000" stroke-width="3.125" fill="#ffd100" d="M47.102-26.644l14.175-26.642-14.175-26.642 30.16-1.046 15.986-25.596 15.982 25.596 30.16 1.046-14.17 26.642 14.17 26.642-30.16 1.045-15.982 25.597-15.986-25.597z"/>
      <path fill-rule="evenodd" transform="matrix(.161 0 0 .147 349.431 198.555)" stroke="#000" stroke-width="3.125" fill="#ffd100" d="M47.102-26.644l14.175-26.642-14.175-26.642 30.16-1.046 15.986-25.596 15.982 25.596 30.16 1.046-14.17 26.642 14.17 26.642-30.16 1.045-15.982 25.597-15.986-25.597z"/>
      <path fill-rule="evenodd" transform="matrix(.159 -.019 .021 .146 332.468 203.707)" stroke="#000" stroke-width="3.125" fill="#ffd100" d="M47.102-26.644l14.175-26.642-14.175-26.642 30.16-1.046 15.986-25.596 15.982 25.596 30.16 1.046-14.17 26.642 14.17 26.642-30.16 1.045-15.982 25.597-15.986-25.597z"/>
      <path fill-rule="evenodd" transform="matrix(-.159 -.019 -.021 .146 417.775 203.216)" stroke="#000" stroke-width="3.125" fill="#ffd100" d="M47.102-26.644l14.175-26.642-14.175-26.642 30.16-1.046 15.986-25.596 15.982 25.596 30.16 1.046-14.17 26.642 14.17 26.642-30.16 1.045-15.982 25.597-15.986-25.597z"/>
      <path fill-rule="evenodd" transform="matrix(-.152 -.049 -.053 .139 432.998 213.465)" stroke="#000" stroke-width="3.125" fill="#ffd100" d="M47.102-26.644l14.175-26.642-14.175-26.642 30.16-1.046 15.986-25.596 15.982 25.596 30.16 1.046-14.17 26.642 14.17 26.642-30.16 1.045-15.982 25.597-15.986-25.597z"/>
      <path fill-rule="evenodd" transform="matrix(.152 -.049 .053 .139 316.71 212.483)" stroke="#000" stroke-width="3.125" fill="#ffd100" d="M47.102-26.644l14.175-26.642-14.175-26.642 30.16-1.046 15.986-25.596 15.982 25.596 30.16 1.046-14.17 26.642 14.17 26.642-30.16 1.045-15.982 25.597-15.986-25.597z"/>
    </g>
  </g>
</svg>
