<svg xmlns="http://www.w3.org/2000/svg" id="flag-icon-css-gq" width="512" height="512">
  <path fill="#e32118" d="M0 0h512v512H0z"/>
  <path fill="#fff" d="M0 0h512v341.33H0z"/>
  <path fill="#3e9a00" d="M0 0h512v170.67H0z"/>
  <path fill="#0073ce" d="M0 0v512l160-256z"/>
  <g stroke="#000">
    <path fill="#fff" stroke-width="1.02" d="M215 204.54h81.7v85.6c0 28.8-37.54 6.6-40.74 21.97-5.55-15.79-40.75 7.04-40.75-23.68 0-29.87-.2-83.89-.2-83.89z"/>
    <path fill="#73452b" stroke-width=".21" d="M261.72 298.45s-1.07 1.07-2.99.22c-1.92-.86-2.13-54.83-2.13-54.83 4.27-4.7 7.68-6.19 7.68-6.19l2.56 2.14c-9.6 4.9-8.75 11.94-7.9 24.1.22 4.48.22 10.24 1.29 15.79 1.5 7.04 4.48 13.01 4.7 17.5.2 2.77-3.2 1.27-3.2 1.27z"/>
    <path fill="#73452b" stroke-width=".21" d="M255.1 236.37h3.85c-3.2 30.94-.43 49.28-.43 58.24 0 2.99 1.7 4.06 1.5 4.06-3.85 4.26-5.77-.22-5.77-.22z"/>
    <path fill="#a36629" stroke-width=".21" d="M249.13 298.45c-3.62 1.71-4.05-1.7-3.84-2.13 7.9-16 11.31-51.2 4.06-55.04l.42-3.41c2.78.85 5.34 4.48 5.34 4.48 1.06 39.46 0 55.68-.64 56.32-3.84 4.05-5.34-.64-5.55-1.07"/>
    <path fill="none" stroke-width=".21" d="M248.92 297.81c-.64-3.41 5.55-12.16 5.12-21.33m5.33 7.47c1.92 5.33 2.78 10.02 2.35 14.5"/>
    <path fill="#009a3b" stroke-width=".21" d="M267.7 221.87c1.27-1.5 1.27-1.5 3.62-1.5.43-3.2 5.76-3.2 6.19.86 4.26-.86 5.12 1.7 3.41 4.26 4.05-1.06 7.68 0 6.61 4.7 7.26 1.92 4.48 7.04 1.28 8.1-.42 3.2-3.4 4.27-7.46 2.99-5.12 3.63-8.1 2.35-10.46-1.28-5.76.85-6.18-.43-8.74-3.63-4.48 1.92-5.34 1.92-9.18-.42-.2 2.98-1.28 2.13-3.2 1.92.22 3.84-1.28 5.54-4.69 4.26 2.56 5.34-4.05 7.68-7.25 3.2-2.99.22-3.2-.64-4.7-1.7-1.28 4.26-5.97 3.62-6.82 1.28-5.98-.86-5.34-4.06-.43-4.27.43-3.41 3.41-2.77 5.33-2.35.22-2.13 1.5-1.7 2.56-1.28-.64-1.49-.2-2.34 1.71-2.77-2.77-3.63-1.07-4.9 1.7-6.19-1.49-3.41 1.07-3.2 3-3.41-.22-3.63.85-4.27 4.69-4.7-.43-1.27.21-2.34 2.34-2.34-1.28-3.63.43-4.46 4.27-3.84.64-5.27 11.95-2.77 11.1 4.48 3.2.43 4.26 1.07 5.11 3.63z"/>
    <path fill="none" stroke-width=".21" d="M244.87 219.95c.85.42 1.92 0 2.13 2.34 1.7-2.98 3.84-1.28 3.84 2.14m11.73-6.19c-.85 1.28-4.05 1.28-3.62 4.7-1.07-1.5-3.2-1.93-4.06-.43m12.8-.64c0 .85-.2 3.41-1.06 4.69m14.3-1.07c.2.22-3 0-4.49 1.07m12.37 11.73c-.85-.42-2.56-1.49-3.84.22 0-.86 0-3.2-2.34-3.2m-1.28 5.97c0-2.13-.43-2.77-.86-3.41m-6.18.42c-1.7-1.28-3.42.64-3.42 1.71m-8.96-3.63c0-.85-.64-2.56.86-3.2m-25.18 12.16c.43-2.13 1.92-2.13 1.71-3.2-.21-1.7-2.13-3.2-4.48-.85m4.48.85c1.28-.42 2.56-.21 2.99.43m-6.62-8.32c.86-.85 3-.64 4.27 0m0-5.12c1.07 0 2.99-.43 3.63 1.5 2.34-3.63 4.05-3.2 4.48-2.35m4.26-.43c1.71-.64 4.7 1.07 6.4 4.05.86-2.34 2.14-1.92 3.42-2.13m8.1 2.13c2.78-1.28 4.48 1.28 5.34 2.35 1.28-1.7 2.34-1.7 3.62-1.7M244.44 237c.64-1.06 2.13-1.28 3.2-.64-.21-1.92 1.07-2.77 1.92-2.34"/>
    <path fill="gold" stroke-width=".75" d="M253.19 192.56l-4.7.2-2.34 4.21-2.56-4.01-4.7.2 2.14-4.23-2.56-4.01 4.9-.22 2.14-4.2 2.56 4.01 4.7-.19-2.14 4.22zm-20.06 1.55l-4.69 1.15-1.28 4.55-3.41-3.42-4.48 1.11 1.28-4.54-3.2-3.46 4.48-1.13 1.28-4.56 3.41 3.41 4.7-1.1-1.5 4.56zm-19.4 4l-4.28 2.1-.2 4.74-4.06-2.6-4.27 2.09.43-4.74-4.06-2.62 4.27-2.14.43-4.73 3.84 2.6 4.26-2.09-.2 4.74zm45.64-5.56l4.7.22 2.13 4.2 2.56-4.01 4.7.2-2.14-4.23 2.56-4.01-4.7-.22-2.34-4.2-2.56 4.01-4.7-.19 2.14 4.22zm20.06 1.56l4.48 1.15 1.28 4.55 3.41-3.42 4.48 1.11-1.28-4.54 3.41-3.46-4.69-1.13-1.28-4.56-3.41 3.41-4.48-1.1 1.28 4.56zm19.2 4l4.26 2.1.22 4.74 4.05-2.6 4.27 2.09-.22-4.74 3.84-2.62-4.26-2.14-.22-4.73-4.05 2.6-4.27-2.09.43 4.74z"/>
    <g fill="#fff" stroke-width=".75">
      <path d="M304.39 288.43l5.33 7.68 4.9-7.26-3.4-6.18zm-33.92 22.4l.42 7.68s2.14 0 4.06-.64c1.7-.64 3.2-1.92 3.2-1.92l-.22-4.06zm-28.59 0l-.43 7.46s-1.92 0-3.84-.42c-1.7-.43-3.2-1.5-3.2-1.5l-2.13-5.12zm-34.35-22.4L202 296.1l-5.98-9.82 4.48-4.69z"/>
      <path d="M234.2 326.19c0 7.25 43.95 7.25 43.95 0v-10.24c0 5.33-43.95 4.26-43.95 0z"/>
      <path d="M194.95 302.5c3.84 19.63 39.25 20.06 39.25 20.06v-6.61c-.85-2.56.64-3.42 6.4-4.27 2.35-.21 1.28-3.63 1.28-3.63s-15.36 2.78-26.24-1.49c-14.72-5.97-16.85-17.5-16.85-17.5s-1.07 8.97-3.84 13.45zm122.24 0c-3.63 19.63-39.04 20.06-39.04 20.06v-6.61c.64-2.56-.86-3.42-6.62-4.27-2.34-.21-1.06-3.63-1.06-3.63s15.36 2.78 26.24-1.49c14.5-5.97 16.21-17.5 16.21-17.5s1.5 8.97 4.27 13.45z"/>
      <path d="M197.72 295.04c-9.81-5.33-2.13-10.88-1.28-26.67 1.5 9.6 12.37 13.66 11.1 19.84-4.49.22-6.62-6.61-8.75.86l-1.07 5.97zm116.7 0c9.8-5.55 1.7-10.88.85-26.67-1.5 9.6-12.16 13.66-10.88 19.84 4.26.22 6.4-6.61 8.53.86l1.5 5.76z"/>
    </g>
    <path stroke="none" d="M203.7 302.3l1.06.85-2.35 2.56c-.94 1.02-1.16 1.7-.51 2.32.81.78 1.38.5 2.22-.4l2.56-2.78.85.86-2.55 2.98c-1.4 1.62-2.68 1.25-3.76.24-.94-.88-1.48-2.16-.1-3.72l2.58-2.9zm4.26 3.62l1.07.64-.22 5.12 2.35-3.63 1.07.64-3.42 5.55-1.28-.64.22-5.12-2.35 3.63-1.07-.64zm1.92 8.96l2.99-5.97 1.06.64-2.77 5.76zm4.7-5.12l-2.36 6.18 2.35.86c2.2.8 3.23-.17 3.93-2.02.7-1.89.4-3.28-1.8-4.16l-2.13-.86zm.84 1.5c2.2.77 2.34 1.6 1.74 3.12-.58 1.44-1.13 2-3.23.92l1.49-4.04zm6.2.85l-3.85 5.76 1.49.43.86-1.5 2.56.64.21 1.5 1.49.2-1.49-6.82-1.28-.21zm.42 1.5l.42 2.55-1.7-.21 1.28-2.35zm3.22-.95l-.23 6.61 2.51.05c2.34.05 3-1.2 3.06-3.18.05-2.01-.69-3.23-3.05-3.35l-2.29-.13zm1.28 1.15c2.34 0 2.74.75 2.66 2.39-.08 1.55-.42 2.26-2.75 1.91l.1-4.3zm21.1 8.11v6.82h1.5v-2.56s1.28.08 2.34-.2c.84-.22 1.42-.76 1.44-2.08.02-1.3-.74-1.98-2.04-1.98h-3.24zm1.5 1.06l1.5.02c1.26 0 1.02 1.9.04 1.9h-1.54v-1.92zm6.18-1.06l-2.78 6.82h1.5l.64-1.7h2.78l.64 1.7h1.48l-2.77-6.82h-1.5zm.64 1.5l1.06 2.56h-1.92l.86-2.56zm3.63 4.05l3.62-4.48h-3.2v-1.07h5.12v1.07l-3.84 4.48h3.84v1.28h-5.54zm21.54-13.23l1.28-.21.64 3.84c.23 1.36-.4 2.3-1.36 2.65-1.11.41-2.52.04-2.69-1.8l1.07-.21c.25 1.1.69 1.2 1.2 1.02.4-.14.62-.78.5-1.45zm2.14-.38l1.26-.24.58 3.2c.25 1.36.68 1.94 1.57 1.79 1.1-.2 1.23-.82 1-2.03l-.8-3.41 1.3-.2.86 3.55c.5 2.07-.58 2.9-2.04 3.17-1.27.23-2.61-.09-3.05-2.13zm6.61 2.94l1.07-.43c.52.94 1.34.9 1.97.61.88-.39.98-1.16.55-1.42-.62-.37-2.1.16-2.9-.13-.96-.35-1.37-.89-1.32-1.72.06-1 .93-1.54 1.88-1.83 1.07-.33 2.12-.22 2.8 1.08l-1.28.43c-.41-.7-.95-.67-1.42-.45-.4.2-1.02.54-.7 1.11.28.47 1.85.17 2.68.2.85.04 1.54.6 1.66 1.43.16 1.14-.27 1.76-1.6 2.28-1.63.64-3.1-.08-3.39-1.16zm5.76-5.33l-1.7.85-.43-1.07 4.7-1.92.42.86-1.7.85 1.91 4.7-1.07.63zm2.77-2.35l1.07-.64 2.99 5.55-1.07.64zm7.26.43l1.28-.43a2.6 2.6 0 0 1-2.51 3.52c-3.24-.07-3.59-3.63-3.08-4.8.85-1.98 3.25-1.94 4.3-.85l-1.06.85c-.68-.87-2.18-.32-2.28.48-.17 1.3.4 2.51 1.57 3.09 1 .48 2.51-.74 1.78-1.86zm-.64-4.48l1.06-.86 3.84 5.12-1.06.86zm4.05-3.2l-1.06.85 2.34 6.4 1.06-1.06-.64-1.28 1.92-1.71 1.28.64 1.08-.85-5.98-3zm.42 1.5l2.14 1.06-1.28 1.28-.86-2.35z"/>
  </g>
</svg>
