<svg xmlns="http://www.w3.org/2000/svg" xmlns:xlink="http://www.w3.org/1999/xlink" id="flag-icon-css-gs" width="512" height="512">
  <defs>
    <linearGradient id="b">
      <stop offset="0" stop-color="#d5dfff"/>
      <stop offset="1" stop-color="#fff"/>
    </linearGradient>
    <linearGradient id="a">
      <stop offset="0" stop-color="#474747"/>
      <stop offset="1" stop-color="#f50"/>
    </linearGradient>
    <linearGradient id="d" x1="109.34" x2="110.94" y1="218.47" y2="173.45" gradientTransform="matrix(1.51 0 0 .652 40.51 0)" gradientUnits="userSpaceOnUse" xlink:href="#a"/>
    <linearGradient id="e" x1="125.91" x2="126.02" y1="316.38" y2="337.23" gradientTransform="matrix(1.232 0 0 .8 40.51 0)" gradientUnits="userSpaceOnUse">
      <stop offset="0" stop-color="#b50000"/>
      <stop offset="1" stop-color="#ffc500"/>
    </linearGradient>
    <linearGradient id="f" x1="407.87" x2="456.4" y1="149.38" y2="147.35" gradientTransform="matrix(.56 0 0 1.76 40.51 0)" gradientUnits="userSpaceOnUse" xlink:href="#b"/>
    <linearGradient id="g" x1="215.83" x2="228.97" y1="102.99" y2="102.99" gradientTransform="matrix(.74 0 0 1.33 40.51 0)" gradientUnits="userSpaceOnUse" xlink:href="#a"/>
    <linearGradient id="h" x1="117.6" x2="78.22" y1="1040.4" y2="1003.7" gradientTransform="matrix(2.563 0 0 .384 40.51 0)" gradientUnits="userSpaceOnUse" xlink:href="#b"/>
    <linearGradient id="i" x1="264.72" x2="255.03" y1="245.98" y2="226.38" gradientTransform="matrix(.886 0 0 1.11 40.51 0)" gradientUnits="userSpaceOnUse" xlink:href="#b"/>
    <clipPath id="c">
      <path fill-opacity=".67" d="M0 0h512v512H0z"/>
    </clipPath>
  </defs>
  <g clip-path="url(#c)">
    <g stroke-width="1pt">
      <path fill="#006" d="M0 0h1023.98v511.98H0z"/>
      <path fill="#fff" d="M0 0v28.62l454.75 227.37h57.24v-28.62L57.24 0H0zm511.99 0v28.62L57.24 255.99H0v-28.62L454.75 0h57.24z"/>
      <path fill="#fff" d="M213.33 0v256h85.33V0h-85.33zM0 85.33v85.33h511.99V85.33H0z"/>
      <path fill="#c00" d="M0 102.4v51.2h511.99v-51.2H0zM230.4 0v256h51.2V0h-51.2zM0 256l170.66-85.34h38.16L38.16 256H0zM0 0l170.66 85.33H132.5L0 19.08V0zm303.16 85.33L473.83 0h38.16L341.32 85.33h-38.16zM512 255.99l-170.67-85.33h38.16l132.5 66.25V256z"/>
    </g>
    <path fill="#6a4c2d" fill-rule="evenodd" stroke="#000" stroke-width="1.15" d="M333.75 379.95s-2.88 7.6-4.52 7.6c-1.65 0-7.61-3.28-7.61-3.28s-4.32 6.99-6.58 7.4c-2.27.41-8.23-1.03-8.23-1.03s-5.76 0-5.96-.82c-.21-.82.2-2.47.2-2.47s-8.22 6.58-10.08 6.17c-1.85-.41-8.02-8.23-8.02-8.23l-1.03 4.13-11.72-.42-10.28-6.58s-5.76 9.46-5.97 9.26c-.2-.21-10.07 2.26-10.07 2.26l-.62-1.85-6.58-3.91s5.14-7.2 5.14-7.4c0-.21-2.47-1.03-2.47-1.03l-3.7 3.08-7.6 4.94-7.62-3.5 3.3-6.17.4-4.52 5.97-9.05 73-70.95 36 66.42-5.35 19.95z"/>
    <path fill="#fff" fill-rule="evenodd" stroke="#000" stroke-width="1.15" d="M385.62 384.25l19-.68-8.09-4 72.41-2.73-10.23-3.9-9.06-12.28-37.52-2.82s-2.83-2.15-7.4-1.07c-.2-2.93-3.71-6.73-3.71-6.73l-23.1-1.75-14.42 9.84 9.74 24.95 12.38 1.17z"/>
    <path fill="url(#d)" fill-rule="evenodd" stroke="#000" stroke-width="1pt" d="M121.32 150.76l2.22-7.56s3.9-6.56 3.9-9.45c0-2.9 2.89-6.34 2.89-6.34s8.9-2.56 10.78 2.89c9.57-14.46 20.8-.67 20.8-.67l3.11-3.67 6.34-7.78s9 8.45 9.12 9.9 1.56.44 1.56.44l9.78-.78s4.65 3.63 3.67 10.56c3.45 2.04 6.56 14.01 6.56 14.01l-80.73-1.55z" transform="matrix(.86 0 0 .86 207.27 41.7)"/>
    <path fill="#656263" fill-rule="evenodd" stroke="#000" stroke-width="1.15" d="M385.5 248.72c1.45-.9 6.03-2.34 5.47-9.04-.56-6.69-6.36-7.47-9.6-7.25-3.23.23-6.13 3.01-6.13 3.01l-10.7-6.8s5.35-33.8 11.04-35.91c5.4-3.9 6.36-5.58 6.36-6.47s-2.01-3.12-2.01-3.12L345.02 179 312 182.9s-2.56 3.9-2.23 5.47.45 3.23 6.36 7.8c6.54 5.03 11.04 33.91 11.04 33.91s-9.26 4.58-9.82 4.02c-.55-.56-3.34-1.12-4.8-.9-1.44.23-6.24 2.68-6.24 9.04 0 6.36 4.8 10.04 4.8 10.04s31.56-3.68 36.25 5.02c4.57-10.49 34.57-6.8 38.14-8.59z"/>
    <path fill-rule="evenodd" stroke="#000" stroke-linejoin="round" stroke-opacity=".98" stroke-width="1.07" d="M419.51 213.59s.35-3.67 2.97-5.42c2.62-1.74 20.09-2.62 24.28 0s5.76 15.55 5.76 15.55 2.62 4.54 2.8 7.86.52 5.59.52 5.59 13.98 18.17 14.15 34.59c1.58 11.18 1.23 41.05-3.14 52.4-.18 14.15-6.12 23.41-6.12 23.41s1.4 2.44 1.23 5.07c-.18 2.62-1.58 5.06-1.58 5.06l20.44 10.13-7.5-2.8s7.68 6.47 7.5 6.3c-.17-.18-8.56-4.02-8.56-4.02l5.07 5.06c-.18-.17-12.4-5.59-12.4-5.59s5.76 5.42 5.41 5.24l-9.26-4.36s5.6 5.94 5.42 5.59-8.04-3.5-8.04-3.5l.35 2.97s-6.29-.35-6.29-5.06c-3.14-1.75-5.24-4.2-5.24-4.2l-14.5-2.44-16.41-49.09 3.84-82.97 1.05-4.2-1.75-11.17z"/>
    <path fill="#fb0" fill-rule="evenodd" stroke="#000" stroke-width="1.14" d="M408.54 478.75s-8.41-17.7-12.6-17.94c-3.8-7.22 13.14-66.2 45.9-69.55 18 1.48 1.48 20.76-10.36 14.83 1.48 5.19 7.4 12.6 7.4 12.6s-23.44 10.14-30.35 60.06z"/>
    <path fill="#fb0" fill-rule="evenodd" stroke="#000" stroke-width="1.15" d="M295.77 481.33s6.96-20.14 11.19-20.38c4.23-.25-11.19-67.13-44.75-67.63-18.15 1.5-1.49 20.89 10.44 14.92-1.49 5.22-7.46 12.68-7.46 12.68s23.62 10.2 30.58 60.41z"/>
    <path fill="#00713d" fill-rule="evenodd" stroke="#000" stroke-width="1.15" d="M326.56 355.54c-.08-.16-8.33 2.59-2.99 11.56.4-3.47 4.12-5.58 4.12-5.58s-5.66 6.72.33 12.38c.72-5.34 4.12-7.04 4.12-7.04s-4.2 12.38.08 14.88c.49-4.93 3.64-7.11 3.64-7.11s-3.8 11.08-.4 13.58c.4-4.2 3.23-6.06 3.23-6.06s-1.7 11.48 2.75 12.29c.08-4.04 3.32-8 3.32-8s-1.46 9.37 5.5 9.78c.08-3.56 1.37-7.6 1.37-7.6s3.16 9.94 7.77 8.33c-.08-2.91.08-8.41 0-8.41s2.9 9.46 8.4 7.68c-.8-2.67.33-5.82.33-5.82s2.91 5.9 8.17 3.96c.89-1.78-.24-5.26-.24-5.26s7.68 7.93 10.03 3.16c2.34-4.78-6.15-6.4-6.15-6.4h5.74s-1.86-4.84-9.62-5.9c2.67-1.21 5.42-.32 5.42-.32s-1.62-6.07-9.55-6.71c3.08-1.06 6.47-.33 6.47-.33s-1.05-5.74-9.78-7.36c1.37-1.53 5.1-1.05 5.1-1.05s-3.48-5.42-7.45-5.1-39.79-3.63-39.7-3.55z"/>
    <path fill="none" stroke="#3ec26d" stroke-linecap="round" stroke-width="1.07" d="M361.9 384.74s3.15 1.53 3.07 2.9m-1.2-5.4s4.04 2.82 3.96 4.93m-.41-6.4s3.23 2.02 3.4 5.18m2.01-3.88s1.62 3.48 1.05 4.13m2.2-2.27c.24 2.75-.25 2.99-.25 2.99m-39.63-20.38s3.8 2.42 3.48 5.82m-3.72-2.9s1.78 1.7 1.37 2.83m3.32-5.66s2.51 3.47 1.7 5.9m2.59-3.64s1.13 2.18.08 3.4m1.94-2.35s1.37 2.18.16 2.9m-1.7 4.3s3.56.8 4.05 3.47m-1.95-5.9s3.72.24 4.13 4.2m.81-5.58c.08 0 2.5 4.29 2.1 5.66m2.67-5.25s.97 4.12.25 5.42m2.82-3.8l.08 4.76m-4.76-11.23s2.34.89 2.18 3.15m0-5.26s2.98 1.7 2.66 4.93m.82-6.3s2.58 3.08 1.61 6.47m2.91-5.74s-.97 3.8-.57 5.33m3.32-2.75s-1.7 1.3-.8 2.92m-13.91 11.88s.56 2.91 0 3.4m-3.73-5.09s1.86 3.23 1.22 4.85m-5.18-5.01s2.1 2.42 2.02 4.36m-5.25-3.88s1.94 1.86 1.78 2.9m-3.48-.07s1.86 1.94 1.78 2.34"/>
    <path fill="#fff" fill-rule="evenodd" stroke="#000" stroke-width="1.15" d="M300.89 252.21l26.75-.48s17.67 0 19.58 5.74c3.35-7.65 18.63-7.17 18.63-7.17l27.7-.95.49 66.87c-5.42 25.95-24.2 44.26-44.9 52.06-24.69-7.96-40.29-28.82-45.38-52.54l-2.87-63.53z"/>
    <path fill="#006b00" fill-rule="evenodd" stroke="#000" stroke-width="1.15" d="M310.42 251.96l38.96 103.84 35.2-106.1c-10.92.7-34.34-1.72-37.26 8.25-4.5-8.92-29.15-5.33-36.9-5.99z"/>
    <path fill="#ffc900" fill-rule="evenodd" stroke="#006b00" stroke-linecap="round" stroke-width=".59" d="M336.94 308.18c1.5.78 1.46-28.18 3.43-29.08.56-2.4.84-3.45 1.54-6-1.68-3-9.28-2.84-12.09-.3a74.53 74.53 0 0 0 1.83 5.4c3.8 6.15 3.04 30.63 5.29 29.98z"/>
    <path fill="#cdad56" fill-rule="evenodd" stroke="#000" stroke-linejoin="round" stroke-width="1.07" d="M326.5 84.31s2.75-3.13 2.88-3.88c.12-.75 12.51-1.25 19.9-15.01 4.12-7.26 0-3 0-3l-.26-3.5s5.13-4.89 3.26-7.51c-1.88-2.63-1.26 3.37-4.26 3.25-3-.13-1.38-6.5-1.38-6.5s-.25-.76-1.12-1.13c-1.25.12-.88 2.37-2 2.62-1.13.25-2.13-5.25-2.13-5.25s-1.88-2.5-3.5 5.38c.87 8.38 6.25 6.75 6.25 12.26 0 5.5-4.75 9.76-6.13 9.88-1.37.13-.87-4.63-.87-4.63s-.75-2.25-1.25-2.25 2.75-.5 2.25-6.76c-1.13-7.5-2 1.75-4 1.38s-.5-6.88.24-7.63-.87-3.88-5.25 4.13c-.38 3.88-.88-1-1.75-.75-1.5 3.13-1.25 5.38.87 8.26 3.13 2.87 5.13 5.75 5 7.25-.12 1.5-1.74 4.88-4 4.88s.13-4.13 0-5.5c-.12-1.38-3.87-6.38-3.87-6.38s-2.63-4.26-2.38-4.38c.25-.13-.25-.75-1.5 3.62s-2.76-2.87-2.76-2.87-1.75 5.38 2 8.63c-2.87-.38-3.12.75-3.12.75 0 1.5 3.88 2.13 4.38 4.75s-4 4.13-4 4.13 1.87 2.63 7.12-2.5c.13 3.25-2 5.5-2 5.5 1.75.8 3.13.72 3.38 2.76z"/>
    <path fill="#cdad56" fill-rule="evenodd" stroke="#000" stroke-linejoin="round" stroke-width=".94" d="M309.33 84.31s-2.33-3.47-2.44-4.15c-.1-.69-11.5.86-16.9-13.04-3.5-6.6 0-2.73 0-2.73l.22-3.19s-3.73-4.56-2.14-6.95c1.6-2.4.94 3.07 2.99 3.08 2.55-.11 1.17-5.92 1.17-5.92s.2-.68.95-1.02c1.07.11 1.5 3.54 2.46 3.76.95.23 2.93-4.03 3.55-4.9.88-.13.85-3.53 2.23 3.64-.75 7.63-7.07 6.15-7.07 11.16 0 5 4.04 8.88 5.2 9 1.18.1.75-4.22.75-4.22s.64-2.05 1.07-2.05c.42 0-3.72.8-3.3-4.9.96-5.33 3.08.35 4.78 0 1.7-.34-.2-5.63.3-6.44.1-.8 2.61-4.28 3.58 3.38.32 3.53 2.24-3.04 2.99-2.8 1.27 2.84-.57 6.64-2.37 9.26-2.66 2.62-3.86 5.49-3.75 6.85.1 1.37.73 3.06 2.65 3.06 1.91 0 .64-2.38.75-3.63.1-1.25 3.3-5.3 3.3-5.3.62-1 .1-2.87.76-3.74 1.04.01 1.46-1.43 2.53 2.55 1.06 3.99 2.33-2.62 2.33-2.62s1.5 4.9-1.7 7.86c2.45-.34 2.66.68 2.66.68 0 1.37-1.17 1.94-1.6 4.33-.42 2.39 1.28 3.76 1.28 3.76s-1.6 2.39-6.06-2.28a7.77 7.77 0 0 0 1.7 5c-1.48.73-2.65.65-2.87 2.51z"/>
    <path fill="#ffc900" fill-rule="evenodd" d="M378.08 267.45c-2.33-2.12-2.6-.27-3.75-.74-.56-.24-1-.76-1.5-1.24-.42-.44-.92-.62-1.48-.85l-.64 1.88c-.21.62.6 1.66.57 2.6-.16 1.4-.73 2.55-2.48 3.03.5-1 .78-1.04.63-2.25-.07-.6-1.76-1.67-1.55-2.24.3-.92.83-1.99.44-2.9-.72.49-1.66.23-2.38.53-.6.27-.64 1.4-1.48 1.86-.87.4-2.77.2-4.35-.7.97-.73 1.77-.24 2.74-.97.48-.37.46-1.94.95-2.31s1.64-.76 2.13-1.13c-.44-.5-.41-1.28-.85-1.78s-2.37-.39-2.8-.89c-.88-.99-.71-2.3-1.59-3.3 2.26.82 1.93 1.92 2.5 1.84 1.07-.52 2.14-.62 2.7-.38.56.23 1.63 1.63 2.19 1.87.21-.63.52-1.43.73-2.05.21-.63-.95-1.71-.74-2.34.43-1.25 1.48-2.36 1.9-3.61.15 1.2.36 2.22.5 3.43.08.6 1.27.92 1.35 1.52.07.6-.62 2-.55 2.61.65-.13 1.59-.04 2.24-.17.65-.13 1.08-1.64 1.72-1.77a8.39 8.39 0 0 1 3.56.07c-.97.9-1.73.85-2.33 1.68-.49.37.18 1.58-1.22 2.43-.53.3-1.91-.06-2.4.3l1.31 1.5s2.4.73 2.83 1.22c.88 1 1.34 2.18 1.1 3.25zm-59.91 1.02c2.33-2.11 2.6-.27 3.75-.74.56-.23 1-.76 1.5-1.24.42-.43.92-.62 1.48-.85l.64 1.88s-.6 1.66-.57 2.6c.16 1.4.73 2.56 2.48 3.03-.5-.99-.78-1.04-.63-2.24.07-.6 1.76-1.68 1.55-2.25-.3-.92-.83-1.98-.44-2.9.72.5 1.66.23 2.38.53.6.27.64 1.4 1.48 1.86.87.4 2.77.2 4.35-.7-.97-.73-1.77-.23-2.74-.97-.48-.37-.46-1.94-.95-2.31-.48-.37-1.64-.76-2.13-1.13.44-.5.41-1.28.85-1.78s2.37-.39 2.8-.88c.88-1 .71-2.3 1.59-3.3-2.26.81-1.93 1.91-2.5 1.83-1.07-.51-2.14-.62-2.7-.38s-1.63 1.63-2.2 1.87c-.2-.63-.51-1.42-.72-2.05-.22-.63.95-1.71.74-2.34-.43-1.25-1.48-2.36-1.9-3.61-.16 1.2-.36 2.22-.5 3.43-.08.6-1.27.92-1.35 1.52-.07.6.62 2 .55 2.61-.65-.13-1.6-.04-2.24-.17-.65-.13-1.08-1.63-1.73-1.76a8.35 8.35 0 0 0-3.55.07c.97.9 1.73.84 2.33 1.67.49.37-.19 1.58 1.22 2.44.52.3 1.9-.06 2.4.3l-1.32 1.5c-.43.49-2.39.72-2.83 1.22-.87.99-1.33 2.18-1.1 3.24z"/>
    <path fill="#ffc900" fill-rule="evenodd" stroke="#006b00" stroke-linecap="round" stroke-linejoin="round" stroke-width=".59" d="M376 274.14c-2.12 1.65-15.75 5.1-15.9 16.94-.13 11.84 2.4 14.54-.13 14.84-4.93 0-5.63-13.2-5.49-19.04.14-5.85.28-4.95.28-4.95s3.38.9 3.1 3.75c-.28 2.85 3.37-7.04 2.1-9.74 2.25 2.25 5.2 1.35 5.2 1.2 0-.15-1.68-1.95-2.38-3.3-.7-1.35 2.53.75 2.53.75s.14-2.25-2.67-2.1c-3.66 0 .56-1.2.56-1.2s2.1 1.95 3.51-.15c-1.54-1.65-3.8-2.55-3.8-2.55s-1.96-3.74-4.63-4.5c-3.1-.74-2.67 1.36-6.19 1.06-.7 1.34-.7 1.5.7 1.94-2.39 1.65-1.12 4.95-1.12 4.95s3.8-1.65 3.65 1.05c-.14 2.7-2.25 2.25-3.65.6-1.27-.75-1.69.75-1.69.75l1.97 2.1s-3.8-.15-4.78 2.4c2.11-.15 3.24.45 3.24.45s-4.36 1.95-4.79 3c-.42 1.05-.56-1.2-.7-1.2-.14 0-4.21-1.5-4.21-1.5l-1.41 6.48s2.81 2.8 4.36 1.9c1.55-.9 4.36-3.59 6.04-2.84-4.92 3.75-9.84 9.15-12.5 9.9-.71-.6-3.1-3-4.09-1.8-.98 1.2-.28 2.7.99 2.55 1.26-.15-4.08 1.2-2.95 3.44 1.12 2.25.98 2.1 1.97 1.5.98-.6-.85-.75 2.8-1.8 3.66-1.05 3.52-2.1 3.52-2.1s-.7 1.65-2.67 2.1c-1.97.45-3.51.45-3.1 1.05.43.6 1.27 1.65 1 2.25-.29.6 4.07-3.15 5.2-.15 2.95-.15 4.92-3.75 3.5-5.85.15 2.25 1.56 3 .71 4.05s6.61-3.45 2.95-6.14c.99 2.25 1.13 4.04 1.13 4.04s1.69-.15 2.1-.75c.43-.6-.84 1.65-.27 2.1.56.45 3.23 3 2.1 4.8-.7-1.05-.84-2.7-1.68-2.55-.84.15-4.36 2.7-6.47 2.85s2.53 7.8 2.53 7.8-3.23-.46-3.65-.16c-.42.3-2.53-2.7-2.95-.9-.7 2.25.7 1.35.7 1.35s-1.83-.9-2.81.15c-.99 1.05-1.97 2.1-1.27 2.55.7.45 3.8.45 4.22.3s-3.52.3-3.8.75c-.28.45-.84 2.1 0 2.7s2.96-.3 3.1-.75c.14-.45.28 1.65.28 1.65s3.65.3 3.65-3.45.28 2.7.28 2.7 3.66.6 3.8-3.15.42 2.55.42 2.55 2.39-.75 2.39-1.35c0-.6-.14 7.5-1.83 9.74-2.67-1.8-4.36 1.2-4.36 1.2s.14 4.35-.14 5.4c-.28 1.05 1.83-.6 1.97-1.05.14-.45 2.67-1.65 2.81-1.95l.85-1.8s-.57 2.1-1.55 2.4-1.97 1.35-1.55 2.25c.42.9 1.97 1.5 2.53 2.4.57.9 2.53-5.25 2.53-5.25l.14 1.35s2.53-.6 2.82-1.8c.28-1.2-2.67-2.25-.28-4.2 2.39-1.94 0 1.8 0 1.8s.84 2.85 1.4 2.85 1.97-5.4.56-6.74c-1.4-1.35 2.11 1.65 2.11 1.65s1.97-5.55-.14-6.3-3.1-1.05-3.1-1.05 1.13-1.5.57-1.65 2.95 3.3 3.51 2.4 1.41-3.6-2.67-5.1c-4.08-1.5-.14-5.7-.14-5.7s2.53 3 4.36 1.36c1.83-1.65-.14-1.65-.14-1.65s5.2-3.3 5.34-4.95c-.98-.15-2.67.15-2.67.15s2.95-1.95 2.25-5.1a3.5 3.5 0 0 1-2.67 1.65s2.53-2.55 2.1-4.94c-1.54 1.2-1.4 2.1-2.38 1.8s-2.67-9.75 1.26-10.35c3.94-.6 1.83 4.65 1.97 4.65.14 0 5.9-2.4 0-6.3 1.4-.45 4.36 2.25 4.36 2.25s-1.27-6.6-7.6-2.55c1.55-1.64 2.54-2.7 3.8-2.4 1.27.3 5.77-.14 5.77-1.5-1.13-.9-3.52.46-4.78 0-1.27-.44 9-1.2 8.15-6.29z"/>
    <path fill="none" stroke="#006b00" stroke-linecap="round" stroke-width="1.25" d="M481.3 118.54s12.25-6.43 18.37 1.53m4.9 12.25c-.3 0-4.29 3.98-5.2 3.98m13.47 8.88s11.33.92 18.68-10.41" transform="matrix(.46 0 0 .49 110.33 220.12)"/>
    <path fill="none" stroke="#006b00" stroke-linecap="round" stroke-width="1.25" d="M525.08 141.81s.92 6.12 2.76 6.12-3.07 1.53-4.9.3c2.14 2.76 3.37 7.66 0 9.5" transform="matrix(.46 0 0 .49 110.33 220.12)"/>
    <path fill="#e80000" fill-rule="evenodd" stroke="#006b00" stroke-linecap="round" stroke-width="1.25" d="M519.26 218.97s-3.98 4.29-8.88 4.6" transform="matrix(.46 0 0 .49 110.33 220.12)"/>
    <path fill="none" stroke="#006b00" stroke-linecap="round" stroke-width="1.25" d="M523.86 199.37s-2.45-12.25-.92-15.31c.92-3.98 4.9-5.51 7.96-10.71m-8.27 17.14s-3.06 7.35-16.53 4.9m20.21-23.27s.92 9.8-11.33 6.12m-3.68-50.2s-4.9 4.29-3.06 10.1" transform="matrix(.46 0 0 .49 110.33 220.12)"/>
    <path fill="#006b00" fill-rule="evenodd" d="M353.73 277.6s2.96-1.2 3.52-1.8c.56-.6 1.55-1.8 1.83-2.7.28-.9-1.97-2.25-.85-4.2.7-.9 1.7-1.05 3.38 0 1.69 1.05-1.55-3.3-3.23-3.45s-2.82 1.2-3.24.9c-.42-.3.14 1.2-.56 1.2s1.4 1.2 1.26 1.95c-.14.75 2.25 3.3 2.11 3.9-.14.6-3.51 4.05-4.22 4.2z"/>
    <path fill="#ffc900" fill-rule="evenodd" stroke="#ffc900" stroke-linecap="round" stroke-linejoin="round" stroke-width="1.25" d="M534.27 97.11c2.8-.63 3.24.07 2.75 2.45-1.3-.66-1.79-1.22-2.75-2.45z" transform="matrix(.46 0 0 .49 110.33 220.12)"/>
    <path fill="#e80000" fill-rule="evenodd" stroke="#006b00" stroke-linejoin="round" stroke-width="1.25" d="M514.71 233.52s-1.03 6.41 1.49 6.95c-.13-2.48.54-4.18 1.16-4.84-.54-.25-2.52-2.07-2.65-2.11zm-5.68-7.89c-2.32-.33-6.23 1.59-5.1 3.91 1.88-1.62 3.62.14 4.94-1.52.4-.45.29-1.81.16-2.39zm-.02-4.58s-3.65-.58-4.16 1.95c2.52-.32 3.28-.6 4.11-.06.24-.54.01-1.76.05-1.89z" transform="matrix(.46 0 0 .49 110.33 220.12)"/>
    <path fill="#e80000" fill-rule="evenodd" stroke="#006b00" stroke-linejoin="round" stroke-width="1pt" d="M493.54 184.94s2.19.83 2.81 3.06c1.74-1.07 2.56-5.83-2.81-3.06zm-5.42 5.45c.08-.04 4.59-2.77 5.04-.17-.95.95-1.36 1.57-2.1 1.78-.58 0-1.74-1.78-2.94-1.61zm-.45 8.85c.08-.04 2.9-2.52 3.97-.87 1.07 1.65-.87 1.57-.87 1.57s-1-.45-3.1-.7zm-3.97-49.28c-.04 0-3.6-1.36-5.08 1.12 2.35.29 3.18 1.11 4.25 1.94-.29-1.03-.78-2.6.83-3.06zm-6.9 18.56s.17-4.18 2.15-5.87c1.12.62 1.45 1.61 2.19 2.85-1.49.33-3.47.41-4.34 3.02zm9.5-2.98s-3.93 1.82-2.65 3.8c1.29-1.36 2.7-.95 2.7-.99s0-2.77-.05-2.81z" transform="matrix(.46 0 0 .49 110.33 220.12)"/>
    <path fill="#ffc900" fill-rule="evenodd" stroke="#006b00" stroke-linejoin="round" stroke-width="1pt" d="M480.64 125.6c-1.4 1.57 1.74 5 5.04 4.5.83-3.71-4.21-5.66-5.04-4.5z" transform="matrix(.46 0 0 .49 110.33 220.12)"/>
    <path fill="none" d="M331.18 278.13c-.31.86.95 2.06 1.67 1.72.3-.88-1.34-2.4-1.67-1.72z"/>
    <path fill="#e80000" fill-rule="evenodd" stroke="#006b00" stroke-linejoin="round" stroke-width="1pt" d="M484.28 122.75s.62 2.94 3.47 2.15c-.45-2.27-2.44-3.97-2.44-3.97-.12.66.42 1.7-1.03 1.82zm1.9 8.52s1.57 1.7 4.67-1.78c-1.4.42-3.88-.82-3.88-.82s0 2.4-.79 2.6z" transform="matrix(.46 0 0 .49 110.33 220.12)"/>
    <path fill="#ffc900" fill-rule="evenodd" stroke="#006b00" stroke-linejoin="round" stroke-width="1pt" d="M480.46 118.86c-1.4 1.57.58 3.76 3.89 3.27.83-3.72-3.06-4.43-3.89-3.27z" transform="matrix(.46 0 0 .49 110.33 220.12)"/>
    <path fill="url(#e)" fill-rule="evenodd" d="M144.62 266.62s7.04-2.01 10.77 1 3.74.3 3.74.3 5.45 2 7.03 1.57-1.15.15 1-1.15c2.16-1.29-4.3.3-4.87-2.44-1.01-1.72.14-3.88-2.16-3.16-1.58-2 1-3.44.43-5.6-1.58 1.15-2.44-.43-3.73 2.44-3.02-.57-.43-4.74-3.74-5.17 0 3.02-2.44 3.16-2.58 4.88-1.44 1.01-7.76 4.74-5.89 7.33z" transform="matrix(.86 0 0 .86 207.27 41.7)"/>
    <path fill="#c01500" fill-rule="evenodd" stroke="#000" stroke-width="1.15" d="M261.99 467.9c3.92-.95 25.2 4.7 33.4 13.49-1.74-15.66-6.08-27.66-6.08-27.66s-12.68-3.62-14.42-1.88c-2.55 2.7-10.22 10.75-12.9 16.05zm-6.49-72.34c-1.49.24-2.98 1.24-4.47 3.73-1.74 4.22-2.99 14.91-5.47 17.4-2.49 2.48-4.73 2.73-4.73 4.97 0 2.24.25 7.46 6.96 9.45 6.72.25 17.4-10.7 17.4-10.7s5.48-5.96 7.71-12.42c-12.92 4.47-22.12-7.46-17.4-12.43z"/>
    <path fill="#c01500" fill-rule="evenodd" stroke="#000" stroke-width="1.14" d="M442.47 465.4c-3.9-.94-25.42 4.67-33.56 13.42 1.73-15.57 6.04-27.5 6.04-27.5 1.5-.41 12.44-3.6 14.17-1.87 2.53 2.68 10.69 10.68 13.35 15.95zm6.03-71.92c1.48.25 2 2.2 3.21 4.67 1.73 4.2 3.5 10.32 5.98 12.79 2.46 2.47 4.68 6.13 4.68 8.36 0 2.22-.52 5.23-7.18 7.2-6.66.25-16.31-8.3-16.31-8.3s-5.43-5.94-7.65-12.36c12.83 4.45 21.14-7 17.27-12.36z"/>
    <path fill="#fb0" fill-rule="evenodd" stroke="#000" stroke-width="1.15" d="M248.04 454.23s13.43 9.2 13.68 13.43c36.05-53.45 128.03-70.11 180.5-3.73 6.95-9.2 14.16-12.18 14.16-12.18-55.19-72.1-165.08-63.15-208.34 2.48z"/>
    <g fill="#1e5aa6" fill-rule="evenodd" stroke="#000">
      <path stroke-width="1.15" d="M384.93 249.86l5.26-.12-9.4 11.89 11.28 13.14-22.16 27.92 20.9 25.17c-2.29 5.63-4.96 10.77-8.5 15.4l-12.03-13.27 21.79-27.17-17.9-20.28 10.76-32.68zm-75.12 2.38l-5.63.12 10.51 11.4-11.14 13.9 23.16 25.16-19.16 25.66c2.3 5.64 5.6 11.9 9.14 16.53l11.4-14.4-23.41-26.04 17.15-21.78-12.02-30.55z"/>
      <path stroke-width="1.15" d="M335.85 319.84l-8.26 11.02 29.55 34.18c5.21-2.63 9.3-5.63 13.77-9.26L355.5 338l6.26-18.4 9.01 10.38-28.17 35.94c-4.71-2-9.93-5.14-14.65-9.02l14.9-18.9-7-18.16zm-9.14-17.15l5.39 6.76-3.51-9.14-1.88 2.38z"/>
      <path stroke-width="1.11" d="M365.27 308.67c.12-.12 4.35-5.76 4.35-5.76l-1.65-2.25-2.7 8.01z"/>
    </g>
    <text x="-328.34" y="362.4" font-family="Timmons" font-size="14" font-weight="bold" transform="matrix(.56 -.65 .65 .56 207.27 41.7)">
      <tspan x="-328.34" y="362.4">L</tspan>
    </text>
    <text x="-292.33" y="384.27" font-family="Timmons" font-size="14" font-weight="bold" transform="matrix(.6 -.6 .6 .6 207.27 41.7)">
      <tspan x="-292.33" y="384.27">E</tspan>
    </text>
    <text x="-239.78" y="451.68" font-family="Timmons" font-size="14" font-weight="bold" transform="matrix(.66 -.47 .5 .65 207.27 41.7)">
      <tspan x="-239.78" y="451.68">O</tspan>
    </text>
    <text x="-188.53" y="429.96" font-family="Timmons" font-size="14" font-weight="bold" transform="matrix(.7 -.48 .48 .7 207.27 41.7)">
      <tspan x="-188.53" y="429.96">T</tspan>
    </text>
    <text x="-115.43" y="451.48" font-family="Timmons" font-size="14" font-weight="bold" transform="matrix(.78 -.37 .37 .78 207.27 41.7)">
      <tspan x="-115.43" y="451.48">E</tspan>
    </text>
    <text x="-94.11" y="453.05" font-family="Timmons" font-size="14" font-weight="bold" transform="matrix(.8 -.35 .35 .8 207.27 41.7)">
      <tspan x="-94.11" y="453.05">R</tspan>
    </text>
    <text x="-68.37" y="454.98" font-family="Timmons" font-size="14" font-weight="bold" transform="matrix(.8 -.32 .32 .8 207.27 41.7)">
      <tspan x="-68.37" y="454.98">R</tspan>
    </text>
    <text x="112.02" y="445.67" font-family="Timmons" font-size="14" font-weight="bold" transform="matrix(.86 -.07 .07 .86 207.27 41.7)">
      <tspan x="112.02" y="445.67">R</tspan>
    </text>
    <text x="180.22" y="430.79" font-family="Timmons" font-size="14" font-weight="bold" transform="matrix(.86 0 0 .86 207.27 41.7)">
      <tspan x="180.22" y="430.79">R</tspan>
    </text>
    <text x="414.76" y="275.22" font-family="Timmons" font-size="14" font-weight="bold" transform="matrix(.75 .43 -.43 .75 207.27 41.7)">
      <tspan x="414.76" y="275.22">R</tspan>
    </text>
    <text x="483.88" y="193.05" font-family="Timmons" font-size="14" font-weight="bold" transform="rotate(39.9 46.5 307.19) scale(.86)">
      <tspan x="483.88" y="193.05">E</tspan>
    </text>
    <text x="309.12" y="414.03" font-family="Timmons" font-size="14" font-weight="bold" transform="matrix(.83 .16 -.13 .82 207.27 41.7)">
      <tspan x="309.12" y="414.03">O</tspan>
    </text>
    <text x="105.06" y="459.27" font-family="Timmons" font-size="14" font-weight="bold" transform="matrix(.78 -.1 .12 .84 207.27 41.7)">
      <tspan x="105.06" y="459.27">O</tspan>
    </text>
    <text x="-45.71" y="455.83" font-family="Timmons" font-size="14" font-weight="bold" transform="matrix(.8 -.3 .3 .8 207.27 41.7)">
      <tspan x="-45.71" y="455.83">A</tspan>
    </text>
    <text x="518.35" y="144.72" font-family="Timmons" font-size="14" font-weight="bold" transform="matrix(.6 .6 -.6 .6 207.27 41.7)">
      <tspan x="518.35" y="144.72">A</tspan>
    </text>
    <text x="271.19" y="388.3" font-family="Timmons" font-size="14" font-weight="bold" transform="matrix(.84 .17 -.17 .84 207.27 41.7)">
      <tspan x="271.19" y="388.3">A</tspan>
    </text>
    <text x="40.32" y="455.17" font-family="Timmons" font-size="14" font-weight="bold" transform="matrix(.85 -.16 .16 .85 207.27 41.7)">
      <tspan x="40.32" y="455.17">M</tspan>
    </text>
    <text x="94.43" y="448.08" font-family="Timmons" font-size="14" font-weight="bold" transform="matrix(.86 -.1 .1 .86 207.27 41.7)">
      <tspan x="94.43" y="448.08">P</tspan>
    </text>
    <text x="155.09" y="437.61" font-family="Timmons" font-size="14" font-weight="bold" transform="matrix(.86 0 0 .86 207.27 41.7)">
      <tspan x="155.09" y="437.61">P</tspan>
    </text>
    <text x="405.13" y="276.67" font-family="Timmons" font-size="14" font-weight="bold" transform="rotate(29.3 24.12 418.1) scale(.86)">
      <tspan x="405.13" y="276.67">P</tspan>
    </text>
    <text x="232.09" y="409.79" font-family="Timmons" font-size="14" font-weight="bold" transform="matrix(.85 .1 -.1 .85 207.27 41.7)">
      <tspan x="232.09" y="409.79">I</tspan>
    </text>
    <text x="530.39" y="132.09" font-family="Timmons" font-size="14" font-weight="bold" transform="matrix(.6 .63 -.63 .6 207.27 41.7)">
      <tspan x="530.39" y="132.09">T</tspan>
    </text>
    <text x="464.16" y="218.52" font-family="Timmons" font-size="14" font-weight="bold" transform="rotate(36.4 39.4 333.9) scale(.87)">
      <tspan x="464.16" y="218.52">T</tspan>
    </text>
    <text x="313.73" y="361.96" font-family="Timmons" font-size="14" font-weight="bold" transform="matrix(.83 .24 -.24 .83 207.27 41.7)">
      <tspan x="313.73" y="361.96">M</tspan>
    </text>
    <text x="513.7" y="123.25" font-family="Timmons" font-size="14" font-weight="bold" transform="matrix(.58 .64 -.64 .58 207.27 41.7)">
      <tspan x="513.7" y="123.25">G</tspan>
    </text>
    <path fill="none" stroke="#fff700" stroke-linecap="round" stroke-width="1.15" d="M427.38 214.5s5.19-4.44 8.9-4.56m-8.15 3.95c.12-.12 31-4.45 31.99-5.43m-31.87 5.68c.12-.12 34.58-2.97 34.58-2.97m-34.7 3.09s36.68-1.73 38.9.12m-39.03-.24s35.94.25 36.56 1.11m-36.43-1.11l34.58 2.84m-34.95-2.6c.12 0 35.2 3.1 38.66 7.54m1.84 6.3c-.12-.13-11.98-14.2-40.63-13.96m.13.25s19.88 1.36 26.18 8.27m-25.81-8.52s12.84-2.47 26.3 13.71"/>
    <path fill="url(#f)" fill-rule="evenodd" stroke="#000" stroke-width="1pt" d="M247.4 217.74s20.72.81 20.72 2.84-15.44 5.9-15.64 14.43c-.2 8.53 11.78 9.14 12.6 19.9.8 10.77-9.35 12.4-11.38 15.24-2.03 1.42-6.9 16.65-6.3 25.59.61 8.94 3.25 39.2 7.92 45.3 3.66 2.84 9.14 11.98 15.03 9.14 5.9-2.85 1.83-13.2 1.22-16.05s2.44-7.52 2.44-11.78c0-4.27-2.23-7.72-2.03-8.74.2-1.01 16.45 3.86 15.44 19.91-1.02 16.05-7.52 11.17-7.52 11.17s2.03 19.7-3.05 22.34c-9.14 4.88-15.84-1.01-15.84-1.01l.86 4-6.96-3.6s-8.93-12.8-10.96-18.48-4.47-31.08-3.66-36.56c.81-5.49 1.42-37.58 1.02-39.2s-2.03-28.44-1.02-32.5c1.02-4.06 7.31-21.94 7.11-21.94z" transform="matrix(.86 0 0 .86 207.27 41.7)"/>
    <path fill="#ff7000" fill-rule="evenodd" stroke="#000" stroke-width="1.15" d="M400.82 224.42s12.4-12.06 19.57-10.66c3.66 0 .17 2.62.17 2.62s6.29.52 7.16 3.32c.18 1.22-2.97 1.57-2.97 1.57s2.62.52 2.8 2.8-26.55.52-26.73.35z"/>
    <path fill="none" stroke="#000" stroke-width="1.15" d="M401.52 223.89s13.27-1.75 18.86-7.34m-5.41 3.68s9.78-.35 9.78 1.05"/>
    <path fill="#fff" fill-rule="evenodd" stroke="#000" stroke-linejoin="round" stroke-width="1.07" d="M449.73 363.12s8.38-1.92 10.65-4.9c1.4-1.04 8.74 11.01-10.65 4.9z"/>
    <path fill="none" stroke="#fff" stroke-linecap="round" stroke-width="1.07" d="M447.46 293.77s1.05 6.46-1.92 10.83c-1.58 1.74-6.3 4.71-6.3 6.8 0 2.1 1.75 4.9 1.4 7.35s-2.97 4.89-2.79 6.98c0 2.1 2.97 13.28 2.62 13.45m-8.38-66.37s-6.64 2.27-8.03 8.9"/>
    <path fill="#c75b00" fill-rule="evenodd" stroke="#000" stroke-width="1.15" d="M429.29 220.23s2.27 6.29 9.6.35c-4.71-6.47-9.6-.18-9.6-.35z"/>
    <path fill-rule="evenodd" d="M434.87 220.09c0 .33-.36.6-.8.6s-.78-.27-.78-.6c0-.34.35-.62.79-.62s.79.28.79.62z"/>
    <path fill="#fff" fill-rule="evenodd" stroke="#000" stroke-width="1.15" d="M369.3 205.63s13.91 15.06 22.92 14.9c1.63 4.42-4.09 8.53-6.38 10.5-4.58-1.48-8.73.26-19.36-12.83.65-8.35 2.99-12.24 2.82-12.57zm18.83-35.02c1.8-5.57 5.4-9.99 8.5-10.48-.8-4.25 6.56-23.08 28-30.28 1.3 9.66-9.17 19.15-9.17 19.15s31.6-5.4 37.97-13.42c-.65 3.6-7.03 26.03-40.75 25.86 12.77 12.11-4.1 21.77-11.3 18.82 13.26-10.14-3.76-16.2-13.25-9.65z"/>
    <path fill="#cccccd" fill-rule="evenodd" stroke="#ccc" stroke-width="1.15" d="M398.93 162.75c6.38-4.09 8.67-4.09 13.91-3.27-3.76.49-3.76.66-3.76.66s-.33.49 1.96 2.62c-2.62-.66-4.9-2.13-12.1 0z"/>
    <path fill="none" stroke="#000" stroke-width="1.15" d="M396.47 160.13s12.6-6.71 19.64-11.3"/>
    <path fill="#00f" fill-rule="evenodd" stroke="#000" stroke-width="1.15" d="M385.67 231s17.35 4.75 19.31-20.13c-3.76-10.8-9-34.04-.98-40.75-7.37-5.08-15.39.16-15.39.16-.49 1.15-7.03 10.48 1.8 26.84-20.95-5.56-12.44 14.24-12.44 14.24.82-3.1 11.95-6.05 14.73 9.82 1.15 3.93-7.52 9.99-7.03 9.82z"/>
    <path fill="#00f" fill-rule="evenodd" stroke="#000" stroke-width="1.15" d="M405.15 211.03s18.33-9.82 17.84-32.9c-15.55.33-21.12 20.47-21.12 20.47l3.28 12.43z"/>
    <path fill="#fff" fill-rule="evenodd" stroke="#000" stroke-width="1.15" d="M322.98 209.89s-13.58 11.79-21.27 8.02c-5.73 3.44-12.44-2.62-12.44-2.62s7.85 28.97 36 8.02c-.49-6.38-1.96-12.93-2.29-13.42z"/>
    <path fill="#00f" fill-rule="evenodd" stroke="#000" stroke-width="1.15" d="M301.54 217.41c1.15-6.05 5.9-9 9.66-3.27 5.07.98 10.15-19.8-7.86-16.36 5.08-27.17-10.14-37.32-10.14-37.32s-5.4 30.11-2.95 35.68c2.46 5.56-3.6-10.31-23.08-14.73-.32 22.75 21.77 33.39 21.77 33.39s6.22 5.72 12.6 2.62z"/>
    <path fill="none" stroke="#000" stroke-width="1.15" d="M303.34 197.61s-8.51 7.2-6.55 17.02m-6.38-18s-1.96 7.04 2.3 17.02m-3.6 2.3s3.92-6.39 12.43 1.8"/>
    <path fill="#fff" fill-rule="evenodd" stroke="#000" stroke-width="1.15" d="M290.74 171.75c0-.16-12.93 0-5.24 13.1-5.72 1.8-18.5-6.55-9.65-17.68-28.97-.66-40.76-14.57-40.76-27.34 8.51 8.84 28.8 5.24 36.01 10.64-8.84-8.18-7.04-19.47-7.04-19.47s24.72 7.36 29.14 29.3c-1.48 4.25-2.13 11.78-2.46 11.45z"/>
    <path fill="none" stroke="#000" stroke-width="1.15" d="M270.86 149.9c4.77 4.86 17.02 6.3 23.24 11.7"/>
    <path fill="#cccccd" fill-rule="evenodd" stroke="#ccc" stroke-width=".81" d="M276.5 164.22s10.15-1.3 13.09 2.3c-3.97 0-5.3-.99-11.03 1.14 1.62-.82 1.18-2.29 2.06-2.29s-3.68-1.14-4.12-1.14z"/>
    <path fill="#923f00" fill-rule="evenodd" stroke="#000" stroke-width="1.15" d="M327.08 84.84s5.56-4.9 11.62-.49c-2.74 8.18-12.6 5.08-12.6 5.08s.32 4.09-.66 6.05c1.98 1.49 3.6 6.39 3.6 6.39s10.15-2.46 12.28 1.96c3.88-.54 6.7 0 6.7 0s7.86-1.96 10.65-1.96c2.78 0 11.62 2.29 12.43 3.93.82 1.63 3.77 12.6 5.73 12.43 1.97-.16-4.74 2.62-6.54-.16-1.8-2.78-1.31 3.6-1.31 3.6s5.56 5.9 6.22 7.2c.65 1.31-3.44 11.95-.33 19.31-2.73.26-2.95 3.11-2.95 3.11-.15 3.25-4.25 4.1-4.25 4.1l-.98-4.42-2.79 1.63 1.15-3.43s3.76-9.17 4.09-12.11c.33-2.95-3.44-8.19-6.38-8.19s-5.08 9.33-5.08 9.33-1.47 7.04-.98 7.7c.5.65-1.96-2.3-1.96-2.3s-1.31 4.26-2.3 5.57c-.98 1.3-3.1 1.8-3.1 1.8s-1.48-4.26-.99-5.9c.5-1.63 8.02-8.01 7.37-12.6-.66-4.58 0-3.43-.17-3.6-.16-.16-3.92-3.43-4.09-5.23-.16-1.8-4.9 2.29-11.13.98-1.9 3.32-2.12 11.62-2.12 11.62s-.66 9.98.65 11.13c1.31 1.14-3.27 3.6-3.27 3.6l-3.28 4.42s-1.14-2.79-1.14-2.62c0 .16-2.3 1.63-2.3 1.63l1.32-3.27c-.08-2.48 3.18-9.24 3.18-14.97s.42-11.87.42-11.87-6.06-.33-5.9 5.89c.17 6.22-1.47 6.55-1.14 8.35.33 1.8 1.96 6.87 1.47 8.34-.49 1.48-2.45 1.97-2.45 1.97l-.5.82s-6.05 2.78-5.89 3.92c.17 1.15-.16-3.27-.16-3.27l-.33-4.75s3.6-2.29 3.6-8.02c0-5.73-.83-6.54-.66-7.85.16-1.3 1-6.06.83-6.55-.17-.49-3.44 1.31-4.42 1.31s1.8-3.44 2.13-5.9c.32-2.45-3.28 2.3-6.22-.48 1.37-3.02 3.43-3.93 3.76-6.22s-2.29 1.96-4.58.33c.19-2.2 2.45-4.1 2.45-4.1s-1.86-.22-2.62 0c-1.47-.49 1.64-2.78 1.8-6.05.17-3.28-1.8-4.58-1.8-4.75 0-.16-3.27-2.94-3.76-4.09-.49-1.14-.49-2.45-.49-2.45s-5.4 3.92-11.78-4.42c5.84-5 12.1-1.31 12.1-1.31s1.64-4.59 9.17-4.26c7.53.33 9 4.58 8.68 4.1z"/>
    <path fill="#00f" fill-rule="evenodd" stroke="#000" stroke-width="1.15" d="M368.25 169.5c.14 0 13.9.41 14.04 7.77.14 7.36-4.22 5.45-4.36 5.45s-10.09-1.22-10.09-1.22l.41-12z"/>
    <path fill="#fffeff" fill-rule="evenodd" stroke="#000" stroke-width="1.15" d="M354.89 167.46s17.17-.14 16.22 7.36c-.95 7.5-5.32 6-5.32 6l-8.31-.69-2.6-12.67z"/>
    <path fill="#00f" fill-rule="evenodd" stroke="#000" stroke-width="1.15" d="M345.21 166.64l9.95.82s6 .82 5.73 6.54c-.27 5.73-6.14 5.86-6.14 5.86l-9.67-.54.13-12.68z"/>
    <path fill="#fff" fill-rule="evenodd" stroke="#000" stroke-width="1.15" d="M321.9 169.5c-.13 0-13.9.41-14.03 7.77-.14 7.36 4.22 5.45 4.36 5.45s10.09-1.22 10.09-1.22l-.41-12z"/>
    <path fill="#00f" fill-rule="evenodd" stroke="#000" stroke-width="1.15" d="M335.26 167.46s-17.17-.14-16.22 7.36c.96 7.5 5.32 6 5.32 6l8.31-.69 2.6-12.67z"/>
    <path fill="#fff" fill-rule="evenodd" stroke="#000" stroke-width="1.15" d="M344.95 166.64l-9.95.82s-6 .82-5.73 6.54c.28 5.73 6.14 5.86 6.14 5.86l9.67-.54-.13-12.68z"/>
    <path fill="#5e0043" fill-rule="evenodd" stroke="#000" stroke-width="1.15" d="M371.59 249.4s7.16-10.55 10.17-9.42c2.63.88.63 9.04-.63 9.8l-9.54-.38zm-49.05 1.88c-2.26-3.14-5.52-11.8-8.53-9.41-2.64.88-.63 9.04.63 9.79l7.9-.38z"/>
    <path fill="none" stroke="#000" stroke-width="1.15" d="M327.28 230.43s13.95 8.59 18.52 8.8c4.57.23 19.07-11.15 19.07-11.15"/>
    <path fill="#5e0043" fill-rule="evenodd" stroke="#000" stroke-width="1.15" d="M328.63 196.75l2.67-3.35 13.39 6.8 13.6-6.02 2.68 2.8-15.17 10.7-17.17-10.93z"/>
    <path fill="#474747" fill-rule="evenodd" stroke="#474747" stroke-linejoin="round" stroke-width="1.07" d="M318 196.57c1.08 1.37 9.73 11.89 11.3 20.59 1.56 8.7-.9-11.93-.9-11.93s10.71 5.24 11.05 8.58c.33 3.35 5.12-.22 5.34-.8l-31-20.13 4.2 3.69zm52.9-.6s-11.27 14.83-9.93 31c-2.33-7.74-.45-20.52-.45-20.52l-2.45 1.56s-2.57 10.93-5.8 12.6c-.55-1.3-.45-1.78-.45-1.78s-3.46 4.46-4.13 4.91c-.67.45.23 15.06.23 15.06s1.16 10.59 2.5 10.48c-1.53.74-3.4 1.9-3.4 1.9l-1.38-28.28 3.17-3.17s4.24-5.13 4.57-10.15c-1.84 1.56-3.9 2-3.9 2s-.56 7.14-2.23 8.15c-1.68 1-1.72 2.86-1.72 2.86l-.4-9.33 25.76-17.29z"/>
    <path fill="none" stroke="#000" stroke-linecap="round" stroke-width="1.07" d="M345.13 213.14l2.17 44.61"/>
    <path fill="none" stroke="#000" stroke-width="1.15" d="M317.7 234.44s5.12 3.02 7.02 12.16c16.73-1.22 21.97 4.69 21.97 4.69s13.72-6.58 20.08-5.36c2.23-4.68 8.6-10.7 8.6-10.7"/>
    <path fill="#b4b6b9" fill-rule="evenodd" stroke="#000" stroke-width="1.15" d="M310.7 190.72l34.43 22.53 31.01-20.86s6.47-3.57 5.91-6.13-2.79-1.56-3.9-1.12c-1.12.45-32.46 22.65-32.46 22.65l-33.35-21.08s-2.45-.78-2.9.78.92 2.45 1.25 3.23z"/>
    <path fill="#474747" fill-rule="evenodd" stroke="#474747" stroke-linejoin="round" stroke-width="1.07" d="M372.28 184.87s-8.81-3.74-8.81-.5c0 3.25.25 3.58 1.66 5.66 1.41 2.07-1.08 3.4-1.08 3.4l-.83-2.32c-.5-1.42-5.24-2.41-5.65-4.08-.42-1.66 1-4.32-1.83-4.65-2.83-.34-5.57 1.16-6.15 4.4-.59 3.25-4.24 10.81-4.24 10.81l.5-17.2c6.2.44 17.73 1.8 26.6 2.82-2.66-.42 1 .16.9 1.08-.24.75-1.16.83-1.07.58zm-31.18-4.32c-1.58 0-9.47.91-11.47 2.07-2 1.17 3.24 3 2.58 4.58-.67 1.58-.75 4.74-3.24 4.07-2.5-.66-10.9-4.82-11.14-6.23-.25-1.42-2-1.5-2-1.5s24.1-3.24 25.27-3z"/>
    <path fill="none" stroke="#000" stroke-width="1.15" d="M344.9 178.57l-.06 21.14m-16.21-46.05s-9.66 15.69-9.85 16.16"/>
    <path fill="url(#g)" fill-rule="evenodd" stroke="#000" stroke-width="1pt" d="M161.8 129.74s4.9 6.67 4.34 8.56c2 1.56 4.22 7.79 4.22 7.79" transform="matrix(.86 0 0 .86 207.27 41.7)"/>
    <path fill="none" stroke="#000" stroke-width="1.15" d="M362.67 152.32s-9.08 12.82-8.8 13.77"/>
    <path fill-rule="evenodd" d="M316.21 91.43c-.2.71-1.36 1-2.58.62s-2.05-1.26-1.85-1.98c.2-.72 1.37-1 2.6-.62s2.04 1.26 1.83 1.98zm3.68-.26c.2.72 1.36 1 2.58.62s2.05-1.26 1.85-1.97c-.21-.72-1.37-1-2.6-.62s-2.04 1.26-1.83 1.97z"/>
    <path fill="#ff7000" fill-rule="evenodd" stroke="#000" stroke-linejoin="round" stroke-width="1.15" d="M426.13 356.57s-3.37.63-3.26.95-9.8.63-10 .31c-.21-.31-1.48 1.69-1.48 1.69l1.58-.95s2.42 2.53 3.16 2.32c.74-.21-.31.94-.1 1.15.2.21.94-.42.94-.42l16.36-.27-7.2-4.78z"/>
    <path fill="#ff7000" fill-rule="evenodd" stroke="#000" stroke-linejoin="round" stroke-width="1.07" d="M432.23 361.66l-13.36.39s-3.37 3.05-3.58 3.79 2.2.95 2.2.95l.75 2.52 1.68-.63s11.36 1.7 21.79-.63c5.27-1.84 6.19-4.05 2.5-5.4-3.68-1.34-11.88-.93-11.98-.99z"/>
    <path fill="url(#h)" fill-rule="evenodd" stroke="#000" stroke-width="1pt" d="M208.37 403.93l27.97-1.25-5.2-4.41 75.64-3.06-2.6-6-84.71 3.4 10.19 4.75-22.88.68.68 2.38-6-.23s6.68 2.6 6.9 3.74z" transform="matrix(.86 0 0 .86 207.27 41.7)"/>
    <path fill="url(#i)" fill-rule="evenodd" stroke="#000" stroke-width="1pt" d="M239.73 249.42c-2.22-1.11-12-2.44-22.88 4.67l.44 25.1s16-8.66 23.77-6.66c-.44-7.78-.44-17.78-1.33-23.11z" transform="matrix(.86 0 0 .86 207.27 41.7)"/>
    <path fill="none" stroke="#000" stroke-width="1.15" d="M280.43 321.76l-56.72 56.31m82-55.9l-46.03 60.63m43.98-76.45l-61.45 74.4m-1.85-1.04l5.96-6.98m69.05-28.98l-23.84 32.89m-1.03 4.31l.62 12.53m35.14-38.22l-25.28 31.65m20.77-2.47l10.27-16.85m-6.37-3.29l-12.33 13.98m8.63-27.13l-8.42 10.28m-2.47-25.28s-25.7 37.6-25.28 40.69m22.6-45.62c-.62.41-22.2 28.98-22.2 28.98m-1.22 9.03l-3.91 4.73m-4.93 7.2l-5.96 7.8"/>
    <path fill="#8a9396" fill-rule="evenodd" stroke="#2b2b2b" stroke-width="1.15" d="M277.63 235.2s-1.74 5.47 0 8.2 12.68 24.86 12.68 24.86 7.46-9.2 10.19-9.44c2.73-.25 1.49 23.86 1.49 23.86s-4.47 4.23-7.2 3.98c-2.74-.25 6.7 9.45 6.46 17.65s-12.43 48.98-16.91 49.73c-4.47.74 1.99-7.46 1.74-9.7-.25-2.24-1.5-.74-2.49-3.23-1-2.49 1.5-6.22 1-8.7s-2.74-2-2.98-3.73 1.49-2.24 1.24-4.23c-.25-1.99-2.99-1.49-2.74-3.23s.5-1 .25-4.23c-.25-3.23-.74 2.24-3.48 2.5-2.73.24-4.97 6.45-4.97 6.45s-5.47 7.71-10.94 4.23c3.23 6.96.75 9.95-.5 10.2s1 5.46-1.99 5.71 2.24 11.69-1.24 12.68c3.73 1.74.75 3.98.75 3.98s-8.62.72-6.71 11.93c-25.36-8.93-37.8-24.34-37.54-40 .24-15.67 5.22-29.84 17.4-35.06 3.48-12.93 9.44-26.85 9.44-26.85s-.99-5.72-.24-9.45c.74-3.73 4.22-7.45 4.22-7.45s-.5-8.95-.24-13.43c.24-4.47 1.99-6.46 2.23-8.95.25-2.48-.74-15.16 1.74-17.4 2.49-2.24 7.21-2 9.7-3.48 2.48-1.5 5.72-4.23 8.95-3.98s5.97 2.49 5.97 2.49 12.18 0 12.92 4.72c.75 4.72-2.48 6.46-2.48 6.46s1.74 6.72-5.72 12.93z"/>
    <path fill="#cecfcf" fill-rule="evenodd" stroke="#2b2b2b" stroke-width="1.15" d="M266.85 218.1c.4.72-.5 1.96-1.98 2.76s-3.01.88-3.4.15c-.4-.72.5-1.95 1.98-2.76s3.01-.87 3.4-.15z"/>
    <path fill-rule="evenodd" d="M264.79 219.35c0 .46-.42.83-.93.83-.5 0-.92-.37-.92-.83 0-.45.41-.82.92-.82s.93.37.93.83z"/>
    <path fill="none" stroke="#2b2b2b" stroke-width=".54" d="M282.93 227.46s3.02 13.48-.6 22.8m1.52-28.7s5.9 7.8 5.13 17.48m-4.56-19.19c.2 0 4.94 4.18 4.75 7.03m-3.6-8.74s3.22 2.28 3.98 4.56"/>
    <path fill="none" stroke="#000" stroke-width="1.15" d="M284.04 216.8s-11.59 18.82-10.07 30.6"/>
    <path fill="none" stroke="#2b2b2b" stroke-width=".54" d="M284.8 216.24s-15.39 9.12-18.24 38.95"/>
    <path fill="none" stroke="#000" stroke-width="1.15" d="M283.1 221.75l-6.09 4.56"/>
    <path fill="none" stroke="#2b2b2b" stroke-width=".54" d="M260.86 256.9s8.55-35.53 23.75-40.66"/>
    <path fill="#2b2b2b" fill-rule="evenodd" stroke="#2b2b2b" stroke-width="1.15" d="M290.5 268.88s8.18-10.26 10.08-9.88c1.9.38 1.33 23.75 1.33 23.75s-6.08 4.56-7.42 4.37c-1.33-.19 6.85 11.02 6.66 15.2-.2 4.18-.38 4.18-.38 4.18s0-2.47-1.9-6.46c-1.9-3.99-.76-8.55-13.12-18.62-3.04-6.27 6.08 3.8 7.98 2.28 1.9-1.52-3.42-14.63-3.23-14.82z"/>
    <path fill="none" stroke="#2b2b2b" stroke-width="1.15" d="M275.98 211.09s-3.44.93-3.9 2.34c-.47 1.4-2.5 2.8-3.6 2.34a18.9 18.9 0 0 1-3.12-2.19"/>
    <path fill="#2b2b2b" fill-rule="evenodd" stroke="#2b2b2b" stroke-linejoin="round" stroke-width="1.07" d="M256.46 223.1s-5.16 5.16-2.66 5.79c2.5.62 5.16-4.06 5.16-4.06s0 7.96 2.18 6.71 8.6-5.78 8.6-5.78 2.18-.15 2.65 0c.47.16 5.93 4.84 9.52 3.13-2.03 5.3-4.37 5.93-4.37 5.93s-3.75 4.84-8.6 3.75c-4.83-1.1-6.08-3.12-6.08-3.12s-4.06.3-5.3-1.57c-1.26-1.87-1.73-2.96-1.73-2.96s-2.34 2.34-2.96 1.25c-.63-1.1 0-7.5 3.59-9.06z"/>
    <path fill="none" stroke="#2b2b2b" stroke-width="1.15" d="M285.66 215.93s-9.53-2.81-12.8 1.87c-3.28 4.69-2.5 7.34-.78 7.81"/>
    <path fill-rule="evenodd" d="M287.13 215.66c0 1.12-.8 2.03-1.8 2.03s-1.8-.9-1.8-2.03.81-2.03 1.8-2.03 1.8.9 1.8 2.03z"/>
    <path fill="#2b2b2b" fill-rule="evenodd" stroke="#2b2b2b" stroke-width="1.15" d="M259.4 239.96s3.9 5.98 8.52 7.62-3.21 3.07-7.84-.07c-3.36-4.56-2.47-7.84-2.47-7.84s.9-.9 1.8.3zm33.25 35.26s-10.9-15.16-14.05-15.98c-3.13-.82 2.4-1.5 5.75 1.72 3.37 3.21-.9-5.23-.9-5.23l9.2 19.5z"/>
    <path fill="#2b2b2b" fill-rule="evenodd" stroke="#2b2b2b" stroke-linejoin="round" stroke-width="1.07" d="M258.36 362.84c4.19-1.12 22.41 10.46 26.52 13.37 4.1 2.92 12.7 1.05 12.7 1.05s-3.96 2.39-6.43 2.99 7.32.6 7.32.6-23.3 6.42-46.98-6.06c-2.17-9.7 5.08-11.87 6.87-11.95z"/>
    <path fill="#2b2b2b" fill-rule="evenodd" stroke="#2b2b2b" stroke-width="1.15" d="M285.03 278.96s-3.06-.6-4.63-2.4c-1.57-1.79-3.81-6.2-6.13-8.06s-13.9-8.22-18.07-7.77c-4.19.45-5.46-.45-5.98-.97-.52-.52-2.24.22-1.94 2.39.3 2.17-3.21 6.95-1.94 9.19 1.27 2.24 7.24 11.35 8.44 11.65 1.2.3.44 5.3.44 5.3s5.3 5.38 6.65 5.68c1.35.3 2.7 1.27 2.54 2.54-.15 1.27-5.82 8.22-5.82 8.22s-6.13 3.2-6.2 5c-.08 1.8 1.49 5.53 6.35 6.72 4.85 1.2 17.92.23 18.6-.9.67-1.11 1.71-7.84 1.26-8.5-.44-.68-3.66-2.7-5.3-2.4-1.64.3-3.14 1.65-2.99 1.94.15.3-2.31 1.57-2.31.38s4.85-6.58 5.3-6.13c.45.45 7.32 1.12 8.6 4.56s1.26 5.9 4.85 5.53c3.58-.38 8.59-3.66 9.04-10.54.45-6.87-4.04-11.5-5.16-12.17-1.12-.67-4.85-2.91-5.15-3.96-.3-1.05-1.05-4.48-.45-5.3z"/>
    <path fill="#2b2b2b" fill-rule="evenodd" stroke="#2b2b2b" stroke-width="1.15" d="M220.42 309.29s11.57-2.99 14.56-2.91c2.99.07 14.27 5.3 17.56 8.51 3.28 3.21 10 10.83 14.41 10.16 4.4-.67 5.68-1.57 5.68-1.57l-1.72 3.29s-3.58.97-5.38.52c-1.79-.45-5.3-1.57-8.81-5-3.51-3.44-14.34-12.7-23.53-12.03-9.19.67-14.5 9.71-14.5 9.71s.08-4.4.46-5.38c.37-.97-1.95 2.1-1.95 2.1l3.22-7.4z"/>
    <path fill="#2b2b2b" fill-rule="evenodd" stroke="#2b2b2b" stroke-width="1.15" d="M263.07 318.25c.07.07 2.91.82 7.69.82s7.32-2.09 7.32-2.09l-.3-1.87.75-2.61s3.66 3.73 3.58 4.48c-.07.75-1.5 1.05-1.5 1.05l-.51-1.8-1.27 1.57s-6.95 5.53-10.76 4.7c-3.8-.81-7.32-3.28-6.35-3.88s1.5-.37 1.35-.37zm-16.88 9.79s-4.19-.08-6.05.82c-1.87.9-2.54 2.01-3.81 1.86-1.27-.15-2.24-1.79-1.87-2.46.52-1.04 2.99-2.39 7.7-2.02s4.03 1.8 4.03 1.8zm14.64 11.35c0-.23-.3-6.13-2.62-8.52a7 7 0 0 0-6.42-2.09c-1.27.3 4.7 2.92 5.3 4.63.6 1.72 2.54 6.5 2.02 7.7-.53 1.2-1.5-3.36-5.16-4.63s-8.74-.6-7.69 1.04 5.16.15 7.25 3.66 3.66 7.25 3.66 7.25l.67-2.54 1.87-.52.22-4.86.9-1.12z"/>
    <path fill="#2b2b2b" fill-rule="evenodd" stroke="#2b2b2b" stroke-linejoin="round" stroke-width="1.07" d="M257.84 358.5l-3.81-7.61s-1.2-4.86-4.4-6.2c-3.22-1.35-7.48-1.12-7.55.52-.08 1.65 6.87 3.74 7.32 4.63.45.9.22 2.4-.38 2.47-.6.07-3.66-1.12-5.23-.75-1.56.37-2.46 2.4-4.78 1.8-2.31-.6-4.25-8-3.36-8.75.9-.74-1.71 1.35-2.24-.6-.52-1.93.75-7.98-.15-8.73s-5.23-3.36-5.3-3.89c-.07-.52.23-29.73 24.65-5.52-10.46-12.4-14.57-11.06-16.5-11.13-1.43 0-10.91.82-13.3 12.92-2.4 12.1-5.23 4.56-5.23 4.56s-.52 5.22 2.02 6.72-1.2 5.82-1.2 5.82-4.56-11.13-3.88-15.98c-.9 3.88-.83 13.52 4.93 24.05 6.72 7.1 13.07 13.67 29.95 21.07 8.89-13.6 8.44-15.24 8.44-15.4z"/>
    <path fill="#8a9396" fill-rule="evenodd" stroke="#2b2b2b" stroke-linejoin="round" stroke-width="1.07" d="M241.85 358.58s4.93.6 6.28 3.14c1.34 2.54 1.94 6.43 1.94 6.43.82-1.65 1.2-3.07 2.84-4.26s2.84-1.35 2.76-2.24c-.07-.9-5.23-6.35-7.84-6.65-2.61-.3-7.17 2.84-7.17 2.84s-.82 1.2 1.2.75z"/>
    <path fill="none" stroke="#8a9396" stroke-linecap="round" stroke-width="1.07" d="M253.11 371.43s12.78 5.83 33.82 6.2"/>
    <path fill="none" stroke="#2b2b2b" stroke-linecap="round" stroke-width="1.07" d="M295.76 312.13s-1.1 10.72-9.34 31.88"/>
    <path fill="none" stroke="#2b2b2b" stroke-width="1.15" d="M294.12 318.72s-2.47 7.7-9.34 13.47"/>
  </g>
</svg>
