<svg xmlns="http://www.w3.org/2000/svg" height="512" width="512">
  <g fill-rule="evenodd" stroke-width="1pt">
    <path fill="#06f" d="M0 0h512.003v511.994H0z"/>
    <path fill="#fff" d="M170.67 0h170.67v512.004H170.67z"/>
  </g>
  <path d="M401.82 305.02c-1.76-1.83-11.128-4.69-17.788-5.264-5.755-.454-9.467-4.238-12.877-4.612-9.856-9.91-22.74-13.697-31.167-32.99-1.602-5.79-2.74-12.84-2.912-19.585 3.18-22.53 5.238-21.923 9.985-36.82" transform="matrix(-1.03 0 0 1.03 668.04 2.02)" stroke="#000" stroke-width=".5" fill="none"/>
  <path d="M271.53 313.614c.176 1.716 5.417 8.043 14.47 6.93-.81-1.746-2.777-3-5.597-5.627-1.292-1.33-8.94-2.114-8.874-1.303zM282.304 311.816c-1.053.092-1.99.718-.19 2.298 3.034 2.55 13.92 4.896 15.56 1.66-4.82-.65-8.03-1.672-8.526-1.654-2.238-.732-5.123-2.466-6.844-2.304z" fill-rule="evenodd" fill="#0c5c1d"/>
  <path d="M276.875 311.037c2.195-1.51 3.896-1.385 5.316-1.683 3.638-.252 6.126.248 7.648.877 2.253.97 5.535 3.4 5.95 5.163-3.344-.063-5.56-2.587-9.868-3.544-2.197-.19-6.258-.473-9.045-.813zM271.064 310.378c6.344-3.905 12.36-11.062 12.976-18.542-7.923 6.2-13.295 15.152-12.976 18.542z" fill-rule="evenodd" fill="#0c5c1d"/>
  <path d="M274.646 310.304c5.364-2.327 12.632-7.54 13.515-18.38-7.36 4.632-9.714 11.483-13.514 18.38zM285.968 305.08c-.414-3.06 6.934-19.05 11.222-23.165.468 6.155-5.518 23.44-11.222 23.164zM285.74 305.693c1.116 4.742 13.246 5.973 17.16.414-4.874-.814-10.902-1.287-17.16-.414zM291.073 302.437c4.96 3.126 17.054.936 24.1-4.65-10.525-3.172-23.557 2.876-24.1 4.65zM300.634 295.6c.787-3.445 10.992-10.25 17.573-9.873-4.18 5.674-5.614 4.703-7.792 7.22-1.488 1.867-6.682 3.238-9.78 2.654zM303.99 287.772c-3.61-1.37-2.805-11.792-.39-16.044 2.447 5.74 3.1 14.686.39 16.044zM308.973 283.922c-4.807-2.674-3.074-15.75-.513-19.417 2.01 3.905 3.063 17.517.513 19.417zM310.815 283.806c2.783-4.383 12.48-4.572 16.734-2.878-4.627 4.527-11.75 4.754-16.735 2.878zM313.68 280.99c-4.006-6.262-1.52-9.58.926-17.335 1.183 6.584.23 13.532-.926 17.335zM318.757 267.102c.69-5.805 5.948-8.547 11.927-10.543-1.24 4.273-3.82 8.9-11.927 10.542z" fill-rule="evenodd" fill="#0c5c1d"/>
  <path d="M317.328 270.27c-6.258-1.073-6.55-7.042-6.42-12.88 1.786 3.215 6.066 7.357 6.42 12.88zM315.738 260.15c1.48-3.627-1.12-13.437-7.51-17.05.1 6.006 4.19 13.47 7.51 17.05zM319.284 258.037c.916-2.164 1.51-3.264 2.89-6.02 2.4-5.033.85-3.347 4.09-9.438 1.75 6.798-1.752 14.913-6.98 15.457zM319.708 239.826c-4.332 2.376-8.724.836-14.737-3.98 4.962-.448 9.413 1.936 14.738 3.98zM318.513 237.41c2.59-8.602 4.114-10.067 6.24-19.405-5.316 4.304-8.05 13.63-6.24 19.405zM317.538 236.84c-5.834-4.237-7.206-9.046-13.92-10.8.14 2.405 9.795 12.444 13.92 10.8z" fill-rule="evenodd" fill="#0c5c1d"/>
  <path d="M316.03 230.946c-3.724-4.635-5.78-8.418-11.297-11.768.883 5.654 7.06 13.87 11.298 11.768zM308.968 220.608c1.183-6.467-6.826-10.758-9.604-14.075-.314 5.714 4.687 12.438 9.604 14.075z" fill-rule="evenodd" fill="#0c5c1d"/>
  <path d="M308.92 213.165c1.857-5.827-3.364-9.775-5.964-12.747.416 5.686 1.276 11.552 5.963 12.747zM316.483 224.737c2.3-3.755.99-12.37-.497-15.997-1.857 1.988-2.745 15.318.497 15.997z" fill-rule="evenodd" fill="#0c5c1d"/>
  <path d="M312.922 217.1c2.606-4.604 1.145-9.523-.384-13.146-1.687 5.377-2.91 10.552.384 13.147zM318.234 253.582c3.865-.496 6.602-8.557 3.94-15.766-2.477 6.416-2.472 9.47-3.94 15.766z" fill-rule="evenodd" fill="#0c5c1d"/>
  <path d="M317.245 239.308c4.81.246 7.842-3.91 10.392-11.18-3.96 2.543-5.91 9.264-10.392 11.18zM320.495 255.556c-4.4 1.053-9.36-10.47-5.955-16.963 3.734 7.442 4.577 10.563 5.955 16.963zM315.81 272.45c.603-4.398 10.043-5.517 14.783-4.55-3.792 3.046-11.506 4.93-14.784 4.55z" fill-rule="evenodd" fill="#0c5c1d"/>
  <path d="M313.572 279.434c2.68-2.34 6.922.184 13.723-13.082-9.15 5.22-12.665 11.297-13.723 13.082z" fill-rule="evenodd" fill="#0c5c1d"/>
  <path d="M399.56 306.24c-1.412-2.005-8.867-4.168-15.527-4.742-5.755.242-11.032-1.107-15.833-3.568-9.857-9.91-20.828-16.48-29.254-35.773-1.602-5.79-2.568-11.102-2.74-17.846 3.18-22.53 3.5-24.703 12.247-39.6" transform="matrix(1.03 0 0 1.03 -152.51 .76)" stroke="#000" stroke-width=".5" fill="none"/>
  <path d="M238.037 313.754c-.178 1.715-6.18 7.027-14.47 6.93.81-1.746 8.962-3.616 11.18-6.77.657-.95 3.355-.97 3.29-.16zM231.95 311.32c1.042-.174 1.608.34-.19 1.92-3.036 2.55-8.21 3.752-15.814 5.083 2.534-2.553 8.664-4.716 9.16-4.697 2.237-.733 4.868-1.96 6.844-2.305z" fill-rule="evenodd" fill="#0c5c1d"/>
  <path d="M236.365 311.05c-.8-1.763-1.61-2.654-3.03-2.952-3.638-.252-6.507.374-7.648.877-1.238.716-5.154 3.27-5.57 5.035 2.964-.825 4.927-3.095 9.234-3.67 2.07-.698 4.99-.6 7.015.71zM244.465 309.122c-6.345-3.905-10.33-8.905-10.946-16.385 7.922 6.2 11.264 12.995 10.945 16.385z" fill-rule="evenodd" fill="#0c5c1d"/>
  <path d="M240.504 310.194c-6-2.58-8.19-7.413-12.373-15.336 7.49 3.744 10.605 7.676 12.374 15.336zM227.024 307.5c1.302-5.345-.97-13.21-4.876-17.072-.342 6.028.82 16.08 4.876 17.072z" fill-rule="evenodd" fill="#0c5c1d"/>
  <path d="M224.96 306.086c-1.115 4.742-13.5 4.83-17.16.414 3.733.837 11.918.998 17.16-.414zM221.667 302.323c-3.82 2.87-19.21-1.856-19.406-4.524 2.024-.254 18.864 2.748 19.407 4.523z" fill-rule="evenodd" fill="#0c5c1d"/>
  <path d="M220.553 301.33c2.232-4.408-3.905-18.354-6.36-18.243 1.45 10.432 4.073 15.174 6.36 18.242zM216.538 297.645c-1.422-3.32-12.134-8.982-17.573-9.875 4.435 4.66 7.288 4.005 8.808 6.966 1.107 1.994 5.92 2.35 8.765 2.91z" fill-rule="evenodd" fill="#0c5c1d"/>
  <path d="M214.526 295.137c1.115-4.184.557-5.858-2.177-8.87-.28 4.406.28 6.136 2.176 8.87zM210.51 290.464c3.013-1.974 1.172-12.072-1.506-14.894-.557 7.28-1.283 13.71 1.507 14.894zM205.154 282.918c5.19-1.785 1.17-11.436-.502-15.228-2.01 3.904 1.507 5.968.502 15.228zM204.205 283.558c-4.306-4.128-11.97-4.445-16.226-2.75 5.132 1.734 13.017 2.85 16.225 2.75zM199.687 274.352c-1.126-4.295-10.633-4.277-15.223-2.75 4.13 2.57 12.014 3.52 15.223 2.75z" fill-rule="evenodd" fill="#0c5c1d"/>
  <path d="M202.682 281.096c-2.68-2.34-6.922.184-13.724-13.082 9.15 5.22 12.666 11.297 13.724 13.082z" fill-rule="evenodd" fill="#0c5c1d"/>
  <path d="M201.594 281.256c4.005-6.262 1.518-9.58-.927-17.334-1.183 6.584-.23 13.53.927 17.334zM195.495 266.99c-1.198-5.68-6.583-8.548-12.054-9.275 1.496 2.878 5.6 3.95 12.055 9.274z" fill-rule="evenodd" fill="#0c5c1d"/>
  <path d="M196.43 269.876c6.324-.575 7.087-6.503 7.416-12.334-2.033 3.065-6.627 6.856-7.415 12.334zM196.372 262.416c3.69.37 8.294-7.647 6.65-14.093-3.01 7.14-3.277 9.646-6.65 14.093zM194.803 255.598c3.89-.233 7.164-8.09 4.995-15.463-1.8 6.817-.978 9.806-4.995 15.463zM194.12 259.118c-.936-2.274-2.716-3.004-3.55-5.972-1.51-5.31-4.383-6.148-3.944-10.297 6.685 7.78 8.45 12.432 7.495 16.268zM194.453 253.296c-1.677-15.045 1.304-8.643-5.213-22.827 9.707 8.694 7.024 22.238 5.213 22.826z" fill-rule="evenodd" fill="#0c5c1d"/>
  <path d="M194.9 246.93c-.325-4.804 3.783-7.903 11.01-10.57-2.478 4.002-9.168 6.06-11.01 10.57zM196.626 235.904c-2.59-8.603-4.114-10.068-6.24-19.406 5.316 4.304 8.05 13.63 6.24 19.406zM199.005 235.58c5.834-4.236 7.206-9.045 13.92-10.8-.142 2.406-9.796 12.445-13.92 10.8z" fill-rule="evenodd" fill="#0c5c1d"/>
  <path d="M198.61 231.596c3.723-4.634 5.78-8.418 11.296-11.768-.882 5.654-7.058 13.87-11.297 11.768zM207.103 217.055c.19-6.572 8.917-9.102 12.324-11.767-.882 5.654-7.173 11.19-12.324 11.767z" fill-rule="evenodd" fill="#0c5c1d"/>
  <path d="M206.394 212.54c-1.16-6.006 4.488-9.314 7.42-11.96-1.08 5.597-2.625 11.322-7.42 11.96zM198.667 222.21c-2.3-3.754-.99-12.368.496-15.997 1.857 1.988 2.745 15.32-.496 15.998zM202.68 216.898c-1.92-4.93.234-9.59 2.267-12.955.898 5.564 1.363 10.86-2.268 12.955z" fill-rule="evenodd" fill="#0c5c1d"/>
  <path d="M233.6 298.336c17.485-17.102 32.69-31.925 57.016-47.205-39.38 30.673-38.163 33.068-54.736 48.46-.684-.57-1.597-.683-2.28-1.254z" fill-rule="evenodd" fill="#6f8593"/>
  <path d="M202.48 302.37l6.516 7.16 19.744-29.973 8.31-8.828-2.012-2.928-12.76 12.473-1.468 2.924-18.33 19.17zM310.253 302.827l-8.34 7.386-18.603-30.2-10.818-11.793 2.924-2.014 14.356 14.525 1.468 2.925 19.013 19.172z" fill-rule="evenodd" fill="#6a0d06"/>
  <path d="M283.295 284.55c.17-1.084 1.594-3.193-1.598-6.044.076-1.52 1.634-3.097 2.852-3.876 1.024 0 3.99 2.07 5.3 4.39.743 1.615 1.122 4.123.172 6.042-.704 1.064-1.52 2.3-2.395 2.794-.418.303-1.35.208-2.11-.115-1.197-.607-2.11-2.355-2.222-3.19z" fill-rule="evenodd" fill="#bbcdcd"/>
  <path d="M243.394 231.2l-14.56-14.693-.87.035-.304.97-.467 1.35-1.725 1.62-22.74-21.324 21.385 23.324 1.01.012 3.12-3.247 1.313.305 10.723 12.557 3.114-.91zM262.395 318.767c26.642-43.264 49.85-73.08 7.336-111.31-1.59-1.602-7.082-6.67-10.522-7.763-.478-3.097 1.87-7.987-4.13-8.392-2.55.135-3.808 1.046-3.757 3.35.006 1.788.952 2.572.465 4.172-.18.8-2.167 2.625-2.045 4.952.772 4.958 2.687 6.17 3.268 6.877 1.04 1.034 1.662 1.763 4.717 3.024.34.406 1.24 1.165 1.704 1.675 5.613 1.2 10.73.588 14.357 2.396 1.58.487 4.117 3.17 4.942 4.514 10.242 11.23 14.675 29.252-.988 48.28 3.137.256 10.647-12.6 12.362-23.515-2.4 16.282-7.71 21.968-10.342 26.834 5.26-3.504 9.496-15.845 10.482-18.38-4.172 22.464-25.775 50.202-39.367 56.025 12.303-2.852 20.557-15.11 24.934-19.504-4.262 8.792-13.03 21.232-13.415 26.773z" fill-rule="evenodd"/>
  <path d="M280.704 299.476c-17.03-17.216-44.207-43.213-57.702-46.064 21.02 13.57 39.532 31.812 55.42 47.32.685-.572 1.598-.685 2.282-1.256z" fill-rule="evenodd" fill="#6f8593"/>
  <path d="M270.04 232.345l16.015-15.836.873.034.302.97.468 1.35 1.724 1.62 22.74-21.324-21.385 23.324-1.01.012-3.12-3.247-1.313.304L271.7 234.66l-1.66-2.315z" fill-rule="evenodd"/>
  <path d="M227.675 226.498c.837-4.56 2.242-7.867 6.956-8.665 12.354-.533 23.796-.61 36.72-.343 3.686 2.927-.153 8.932-3.992 9.237 5.892 10.184 13.95 17.976 15.053 29.986.38 6.31-1.84 10.4-4.074 12.67-16.982.415-25.21 2.53-39.405 3.63-3.965.476-6.946-4.136-6.908-7.976.023-3.968 1.654-7.07 6.064-7.62 1.368-.148 3.273-.058 4.984-.02-3.307-9.88-16.08-21.587-15.395-30.9z" fill-rule="evenodd" fill="#e3cf6e"/>
  <path d="M249.973 202.194c-1.465 4.705 2.217 8.747 2.798 9.453 1.042 1.034 1.72 1.877 4.776 3.138.338.407 4.71 2.9 5.336 3.49 4.65 1.218 7.12-.87 12.414.428-1.363-3.364-15.507-17.162-25.323-16.51z" fill-rule="evenodd" fill="#336446"/>
  <path d="M250.092 204.33c-1.424 2.328 2.338 7.9 2.92 8.607 1.04 1.034 1.718 1.877 4.773 3.138.34.407 1.853 1.173 2.075 1.44l4.004.733c-1.362-3.365-9.1-15.004-13.772-13.917z" fill-rule="evenodd" fill="#402e08"/>
  <path d="M251.602 196.376l-.952.693 1.385.69-.433-1.384z" fill-rule="evenodd"/>
  <path d="M249.73 205.962c.773 4.957 2.62 6.306 3.24 6.974 1 1.072 1.76 1.756 4.816 3.138 1.226 1.012 1.692 1.294 2.64 1.803l3.235.48c-1.36-3.363-9.428-11.028-13.93-12.395z" fill-rule="evenodd" fill="#8c361d"/>
  <path d="M228.81 284.146c-.17-1.084-1.595-3.192 1.598-6.043-.077-1.52-1.634-3.097-2.852-3.877-1.026 0-3.99 2.07-5.302 4.39-.742 1.616-1.122 4.123-.17 6.043.703 1.063 1.52 2.298 2.393 2.793.418.303 1.35.208 2.11-.115 1.197-.608 2.11-2.356 2.223-3.192z" fill-rule="evenodd" fill="#bbcdcd"/>
  <path d="M231.09 299.936c-1.444 1.672-7.106 4.94-8.21 6.044-.912 1.216 1.255 2.89 2.623 3.078 2.433-1.824 4.865-4.333 7.07-5.814 3.074-2.84 2.87-3.073 7.87-1.597-.724-2.66-5.78-4.75-8.668-5.358-4.866.53-7.11 2.544-8.097 5.357 3.23-2.433 5.436-3.61 7.413-1.71z" fill-rule="evenodd" fill="#d4be72"/>
  <path d="M284.13 284.478c.09-.52.383-.8.392-1.822 1.066 1.533 1.575 2.313 2.96 4.26-.5.667-1.22.353-1.898.03-.633-.406-1.54-1.712-1.453-2.468zM228.12 284.136c-.092-.52-.384-.8-.393-1.823-1.066 1.534-1.575 2.314-2.96 4.26.5.668 1.22.353 1.898.03.633-.405 1.54-1.712 1.454-2.467z" fill-rule="evenodd" fill="#fff"/>
  <path d="M282.19 301.076c1.445 1.673 7.107 4.94 8.21 6.044.913 1.216-1.253 2.89-2.622 3.08-2.433-1.826-4.865-4.335-7.07-5.816-2.518-3.025-3.61-2.888-7.87-1.597.724-2.66 5.78-4.75 8.668-5.358 4.866.53 7.11 2.545 8.097 5.357-3.23-2.433-5.436-3.61-7.413-1.71z" fill-rule="evenodd" fill="#d4be72"/>
  <path d="M242.99 257.438c1.21 1.734 2.218 5.562 2.38 8.022.215 4.756-4.61 7.175-6.25 6.974-3.117-.377-5.672-2.728-5.927-6.37.497-4.245 2.284-6.598 5.24-6.773 1.938.338 4.114 2.65 4.114 5.444-.053 2.312-.712 4.622-2.137 4.676-3.467-.268-3.266-2.27-3.83-3.346-.148-.792-.272-2.938.12-3.466.52-.642 2.904-1.49 4.072.16 1.263 1.29-1.867-.684-3.103.2-.633.902-.216 2.366-.042 2.944.216.578.19 2.486 2.58 2.38.875-.134 1.183-1.924 1.25-3.67.136-1.195-1.545-3.6-3.225-4.11-1.17-.19-4.03 2.202-3.91 5.562.23 3.817 3.36 5.133 5.04 4.878 1.705-.457 5.267-1.8 5.12-5.603-.377-4.194-1.158-5.928-2.5-7.943.523 0 .484 0 1.008.04zM267.99 227.81l-.728-1.17H251.62c-4.435.403-11.19 1.075-13.514 2.082-5.953 2.93-7.574-2.243-7.897-3.533-.347-1.184.392-3.32 1.548-4.072.457-.874 3.012-1.83 4.557-1.253 1.748.74 2.507 2.944 2.23 4.436-.526 2.22-4.722 3.59-3.23 1.332.188-.992.944-3.75-.387-5.725l-1.218.242c1.693 3.523.14 5.27.06 6.278-.08 1.694 1.367 1.546 2.488 1.503.765-.04 2.058-1.008 2.582-1.533.63-.55.728-1.617.805-2.86.198-3.282-2.808-5.618-4.837-5.322-6.168 1.532-6.317 6.678-4.92 9.352.78 1.343 1.68 2.164 3.186 2.943 1.263.377 3.173.16 4.676-.404 2.976-1.068 7.798-2.015 13.805-2.163l16.434-.134z" fill-rule="evenodd"/>
  <g stroke-width="1pt" fill="#8c361d">
    <path d="M257.056 235.713l.646.942-.097.01c-.207-.21-.377-.36-.512-.446-.135-.09-.283-.156-.444-.2-.09-.023-.22-.025-.39-.007l-.272.03 1.84 2.682c.123.178.21.288.26.33.05.043.118.078.2.106.084.027.177.034.282.023l.12-.013.066.095-1.91.204-.065-.096.122-.013c.106-.01.178-.038.22-.08.03-.03.038-.074.025-.135-.01-.043-.073-.152-.193-.327l-1.84-2.683-.264.028c-.246.026-.39.095-.434.205-.06.156-.023.364.112.625l-.103.01-.646-.94 3.276-.35zM247.568 236.942l.97 1.416.074-.007c.23-.024.352-.11.36-.26.01-.15-.064-.362-.22-.635l.1-.01 1.25 1.82-.1.012c-.16-.196-.317-.354-.473-.473-.156-.12-.294-.196-.415-.23-.122-.034-.27-.042-.444-.023l.674.98c.13.192.22.31.265.35.046.04.102.072.168.095.065.022.15.028.254.017l.218-.024c.34-.036.562-.14.663-.313.102-.172.093-.417-.028-.734l.1-.01.594 1.124-3.154.335-.065-.096.122-.013c.106-.01.18-.037.22-.08.03-.03.037-.073.022-.134-.008-.043-.073-.152-.192-.327l-1.57-2.29c-.107-.156-.18-.253-.212-.288-.06-.058-.124-.1-.195-.128-.1-.04-.21-.054-.328-.042l-.122.013-.064-.095 3.053-.325.705 1.03-.1.01c-.226-.246-.423-.418-.594-.518-.168-.1-.356-.166-.563-.2-.12-.02-.32-.014-.595.015l-.377.04zM244.448 240.687l.066.095-1.907.204-.065-.096.12-.012c.106-.012.18-.04.22-.08.03-.03.037-.075.022-.136-.008-.043-.072-.152-.192-.326l-1.57-2.29c-.12-.177-.207-.287-.258-.33-.05-.04-.117-.076-.2-.102-.083-.028-.175-.036-.277-.026l-.12.014-.066-.095 1.908-.203.065.094-.12.013c-.107.012-.18.04-.22.082-.03.03-.04.074-.025.136.008.042.072.152.19.326l1.57 2.288c.123.178.21.288.26.33.05.043.12.078.2.106.084.026.177.033.28.022l.12-.013zM241.46 239.797l.702 1.236-3.238.345-.065-.095.12-.013c.105-.01.178-.038.218-.08.03-.03.038-.074.023-.135-.007-.043-.07-.152-.19-.327l-1.57-2.288c-.123-.178-.21-.288-.26-.33s-.116-.077-.198-.103c-.084-.028-.176-.037-.278-.026l-.122.014-.064-.095 1.944-.208.065.095-.16.017c-.104.01-.177.038-.217.08-.03.03-.04.075-.026.136.008.043.073.152.193.327l1.52 2.216c.122.178.21.29.266.338.054.046.12.078.2.095.056.01.17.007.342-.01l.304-.034c.192-.02.33-.07.416-.148.085-.08.125-.193.122-.343 0-.152-.053-.368-.156-.65l.11-.013zM263.69 238.74l-.065-.095.12-.013c.107-.01.177-.035.21-.072.036-.04.05-.086.038-.144-.01-.038-.074-.146-.197-.326l-1.57-2.288c-.122-.178-.208-.288-.258-.33s-.117-.077-.2-.103c-.083-.03-.176-.038-.278-.027l-.12.013-.066-.095 1.633-.172c.436-.047.825-.028 1.167.057.42.104.81.287 1.17.55.36.262.66.57.905.925.166.244.28.474.34.69.057.214.067.396.03.545-.04.147-.118.27-.234.37-.115.1-.28.185-.498.255-.095.032-.26.06-.495.086l-1.633.174zm-.86-3.43l1.862 2.715c.098.144.166.23.203.262.036.03.077.053.123.067.066.02.145.025.236.015.3-.032.46-.154.486-.366.034-.286-.14-.706-.52-1.26-.305-.447-.623-.795-.953-1.047-.26-.196-.506-.322-.74-.378-.167-.04-.4-.043-.697-.01zM261.252 237.938l-1.29.137.08.356c.027.118.066.214.117.288.065.097.156.165.27.202.068.023.2.03.4.024l.066.095-1.214.128-.065-.095c.118-.033.19-.096.218-.188.025-.095.01-.28-.05-.56l-.598-2.914.05-.005 3.272 2.713c.31.257.53.416.66.477.096.047.204.07.32.065l.066.095-1.765.19-.064-.097.072-.008c.143-.015.23-.044.26-.088.02-.03.014-.072-.022-.124-.02-.03-.047-.062-.08-.093-.015-.015-.086-.077-.213-.184l-.49-.412zm-.222-.18l-1.365-1.14.262 1.258 1.103-.118zM252.364 238.247l.668.974c.13.19.222.307.28.354.058.045.127.08.208.102.08.023.204.025.372.007l.065.095-1.867.2-.065-.096c.168-.018.272-.045.31-.08.04-.037.056-.08.047-.132-.008-.05-.076-.17-.205-.358l-1.55-2.257c-.128-.19-.22-.305-.28-.35-.056-.048-.126-.082-.207-.105s-.205-.025-.37-.007l-.066-.095 1.695-.18c.44-.047.782-.053 1.027-.016.244.036.485.126.722.27.234.142.425.318.57.528.175.257.223.48.145.667-.052.12-.17.217-.356.294l1.684 1.085c.22.14.366.226.44.26.11.044.214.064.315.06l.064.094-1.148.12-2.263-1.46-.24.027zm-1.17-1.707l1.045 1.524.152-.016c.25-.027.42-.068.515-.124.094-.057.136-.147.13-.267-.008-.122-.074-.274-.2-.458-.182-.266-.382-.454-.6-.567-.215-.113-.467-.154-.756-.124l-.287.03zM245.823 238.665c.4.04.706.108.92.202.308.134.547.325.717.574.18.262.218.49.114.685-.128.236-.45.38-.967.436l-1.854.198-.065-.094c.17-.02.272-.045.312-.08.04-.038.055-.082.046-.132-.008-.05-.077-.17-.206-.358l-1.55-2.258c-.128-.188-.22-.304-.278-.35-.06-.047-.127-.082-.208-.104-.08-.023-.205-.025-.372-.008l-.065-.094 1.75-.186c.417-.045.737-.04.96.012.222.052.432.144.63.274.197.13.35.274.46.434.113.167.153.324.115.47-.038.142-.19.27-.46.38zm-1.027.035c.255-.027.423-.075.506-.142.084-.068.125-.154.122-.26-.004-.107-.06-.237-.164-.39-.106-.155-.224-.277-.356-.368-.13-.092-.272-.158-.426-.196-.154-.04-.36-.043-.62-.014l.938 1.37zm.138.2l.765 1.116.085.13c.063.09.135.16.216.2.083.042.172.057.27.047.143-.015.254-.06.333-.132.08-.073.113-.17.1-.293-.017-.123-.073-.256-.17-.397-.112-.163-.25-.304-.418-.424-.168-.122-.34-.2-.512-.237-.173-.038-.397-.04-.67-.01z"/>
  </g>
  <g stroke-width="1pt" fill="#8c361d">
    <path d="M258.655 241.242l.917 1.416.074-.007c.232-.024.355-.11.37-.26.015-.15-.05-.362-.197-.635l.102-.01 1.18 1.82-.104.01c-.15-.195-.3-.352-.453-.47-.15-.12-.285-.197-.405-.23-.12-.035-.268-.043-.443-.024l.635.98c.124.192.208.31.252.35.045.04.1.072.165.095.064.022.148.027.252.016l.22-.022c.34-.036.567-.14.674-.312.11-.173.11-.418 0-.735l.1-.01.552 1.123-3.166.336-.06-.096.12-.013c.107-.01.18-.037.222-.08.032-.03.04-.074.03-.134-.008-.044-.068-.152-.18-.327l-1.483-2.29c-.1-.156-.168-.253-.2-.288-.057-.058-.12-.1-.19-.128-.1-.04-.208-.055-.328-.042l-.12.013-.062-.095 3.065-.325.667 1.03-.104.01c-.214-.246-.405-.42-.572-.518-.164-.1-.35-.166-.556-.2-.12-.02-.32-.014-.596.015l-.38.04zM249.72 241.978l1.714-.182.156.69-1.443.154.087.36c.636-.043 1.21.053 1.72.29.42.195.74.46.955.792.137.214.21.43.214.65.004.216-.074.393-.234.53-.162.133-.38.215-.658.244-.3.032-.563.003-.792-.086-.16-.063-.272-.143-.334-.24-.048-.072-.06-.14-.04-.203.023-.063.073-.098.15-.107.07-.007.15 0 .24.02s.26.077.51.175c.157.06.283.1.38.12.07.014.14.017.21.01.147-.016.24-.08.275-.194.04-.113.012-.242-.08-.385-.197-.302-.513-.53-.952-.683-.44-.155-.9-.207-1.38-.155l-.22.025-.48-1.824zM247.867 242.097l1.843 2.845c.138.214.236.35.295.407.058.055.13.1.217.13s.2.04.34.024l.083-.01.06.096-1.927.205-.062-.095.098-.01c.157-.017.257-.046.3-.087.046-.04.06-.093.046-.155-.016-.063-.095-.204-.237-.423l-1.167-1.803c-.105-.16-.178-.26-.22-.298-.042-.04-.094-.07-.157-.093-.063-.023-.123-.032-.18-.026-.092.01-.187.05-.283.117l-.108-.086.968-.727.09-.01zM255.35 245.097l-.06-.094.12-.014c.108-.012.18-.036.214-.072.037-.04.05-.087.043-.145-.007-.037-.07-.146-.186-.326L254 242.16c-.116-.18-.197-.29-.246-.33s-.114-.078-.196-.104c-.082-.028-.174-.037-.276-.026l-.122.013-.062-.094 1.64-.175c.437-.047.826-.027 1.166.057.415.104.797.287 1.146.55.35.262.642.57.87.925.16.244.264.475.315.69.05.214.053.396.01.545-.046.147-.128.27-.248.372-.12.098-.288.183-.508.254-.098.03-.264.06-.5.085l-1.64.174zm-.727-3.43l1.757 2.715c.093.144.158.23.193.262.036.03.076.053.12.067.066.02.145.026.237.017.3-.032.467-.154.5-.366.044-.285-.112-.705-.47-1.26-.29-.446-.594-.794-.916-1.046-.25-.196-.494-.322-.726-.377-.164-.04-.396-.043-.695-.01z"/>
  </g>
  <g stroke-width="1pt" fill="#8c361d">
    <path d="M274.138 245.327l.987 1.416.072-.007c.23-.025.35-.112.358-.262.008-.15-.07-.36-.23-.634l.104-.01 1.267 1.82-.1.012c-.16-.197-.32-.354-.478-.473-.157-.12-.296-.197-.417-.23-.123-.035-.27-.043-.445-.025l.684.98c.133.192.223.31.27.35.046.04.103.072.17.095.064.022.15.028.253.017l.217-.024c.34-.036.56-.14.66-.313.1-.172.09-.417-.035-.734l.1-.01.605 1.122-3.148.336-.067-.095.12-.014c.107-.01.18-.038.22-.08.03-.03.036-.074.02-.135-.01-.042-.073-.15-.195-.326l-1.594-2.288c-.11-.157-.182-.254-.216-.29-.06-.057-.125-.1-.196-.127-.102-.04-.212-.055-.33-.043l-.12.013-.066-.095 3.05-.325.715 1.03-.1.01c-.23-.246-.428-.42-.6-.518-.168-.1-.357-.166-.564-.2-.12-.02-.32-.014-.596.015l-.376.04zM263.88 248.667l-.61-2.4 1.484-.157.066.095-.118.012c-.108.012-.18.04-.22.08-.028.03-.036.075-.024.134.01.044.074.152.194.324l1.598 2.294c.124.178.21.288.262.33.05.043.118.078.203.106.084.026.176.033.28.022l.117-.012.066.095-1.902.202-.067-.095.118-.013c.107-.012.18-.04.22-.08.028-.03.036-.075.022-.136-.01-.043-.074-.152-.195-.326l-1.797-2.58.814 3.324-.065.007-3.614-3 1.708 2.45c.12.172.198.276.234.315.083.083.182.147.297.194.117.045.258.058.424.04l.067.095-1.245.133-.067-.095.038-.004c.08-.005.148-.026.2-.06.05-.033.08-.075.084-.123s-.01-.114-.047-.196c-.01-.02-.07-.106-.177-.262l-1.534-2.2c-.123-.177-.21-.286-.26-.326-.05-.043-.116-.077-.2-.102-.085-.03-.178-.037-.28-.026l-.115.012-.066-.094 1.49-.16 2.62 2.185zM257.628 247.085l.987 1.416.073-.006c.23-.025.35-.112.357-.262.008-.15-.07-.36-.228-.634l.102-.01 1.268 1.82-.102.01c-.16-.195-.318-.352-.476-.47-.157-.12-.296-.197-.417-.23-.122-.035-.27-.043-.444-.024l.682.98c.134.19.224.308.27.35.047.04.103.07.17.094.065.022.15.027.254.016l.217-.023c.34-.035.56-.14.66-.31.1-.174.09-.42-.036-.736l.1-.01.606 1.122-3.15.336-.065-.095.12-.013c.106-.01.178-.038.218-.08.03-.03.038-.075.022-.135-.01-.045-.074-.153-.196-.328l-1.594-2.288c-.11-.157-.182-.254-.215-.29-.06-.057-.125-.1-.197-.127-.1-.04-.21-.055-.33-.042l-.12.013-.066-.095 3.05-.325.716 1.03-.102.01c-.227-.246-.426-.42-.597-.518-.17-.1-.358-.166-.566-.2-.12-.02-.32-.014-.596.015l-.376.04zM258.22 250.442l.066.096-1.905.203-.065-.094.12-.013c.106-.012.18-.04.218-.08.03-.03.038-.075.022-.136-.01-.043-.075-.152-.196-.326l-1.595-2.288c-.124-.177-.21-.288-.262-.33-.05-.043-.118-.077-.202-.103-.082-.03-.174-.038-.276-.027l-.12.013-.067-.094 1.905-.203.065.093-.12.013c-.106.01-.18.04-.218.08-.03.03-.04.075-.025.136.01.043.074.153.195.327l1.595 2.287c.124.178.21.288.262.33.052.043.12.078.203.106.084.026.176.033.278.022l.12-.013zM253.652 247.297l.656.94-.097.01c-.207-.21-.38-.36-.515-.445-.136-.088-.285-.155-.447-.198-.09-.024-.22-.026-.39-.008l-.27.03 1.87 2.682c.123.178.21.29.26.33.054.043.12.078.204.106.084.026.178.033.28.022l.122-.013.066.095-1.907.204-.066-.095.12-.013c.107-.01.18-.04.218-.08.03-.03.04-.075.025-.136-.01-.043-.074-.152-.196-.326l-1.87-2.684-.263.028c-.244.027-.388.095-.43.206-.06.155-.02.363.118.624l-.103.01-.656-.94 3.272-.35zM244.784 248.455l.986 1.416.073-.006c.23-.025.35-.112.358-.262.008-.15-.068-.36-.227-.634l.1-.01 1.27 1.82-.102.012c-.158-.196-.317-.354-.475-.473-.156-.12-.295-.196-.416-.23-.124-.034-.27-.042-.445-.023l.682.98c.134.19.224.308.27.35.047.04.104.07.17.094.065.022.15.028.254.017l.22-.024c.34-.035.56-.14.658-.31.1-.174.09-.42-.035-.736l.1-.01.605 1.122-3.15.336-.065-.095.12-.013c.107-.01.18-.038.218-.08.032-.03.04-.074.024-.135-.01-.044-.074-.153-.196-.328l-1.595-2.288c-.11-.157-.18-.254-.215-.29-.06-.057-.125-.1-.196-.127-.1-.04-.212-.054-.33-.042l-.12.013-.067-.095 3.05-.325.717 1.03-.103.01c-.228-.246-.427-.418-.598-.518-.17-.1-.358-.166-.566-.2-.12-.02-.32-.014-.596.015l-.376.04zM242.614 248.385l.837 1.156-.11.013c-.253-.285-.545-.505-.87-.66-.327-.155-.61-.22-.846-.196-.182.02-.294.082-.337.188-.04.104-.02.216.065.337.054.078.12.144.2.2.108.074.246.145.416.212.123.047.388.126.792.237.566.156.986.315 1.258.476.27.163.485.358.645.588.203.29.258.553.167.79-.09.233-.32.37-.685.408-.114.013-.23.013-.348.002-.118-.012-.275-.04-.472-.085-.11-.026-.192-.035-.248-.03-.046.005-.084.028-.112.068-.028.04-.034.096-.017.17l-.1.01-.915-1.313.1-.01c.336.36.684.626 1.043.797.36.17.67.24.93.212.2-.02.324-.09.37-.207.048-.117.022-.245-.074-.383-.058-.083-.136-.16-.236-.232-.1-.072-.218-.137-.36-.196-.14-.06-.37-.133-.682-.22-.44-.12-.77-.226-.992-.32-.222-.094-.42-.205-.592-.33-.17-.128-.313-.273-.427-.436-.193-.277-.25-.524-.173-.74.077-.22.278-.346.602-.38.118-.013.242-.01.372.004.1.012.228.04.387.083.16.042.266.06.314.055.046-.005.073-.023.08-.053.01-.03-.012-.1-.06-.206l.08-.01zM249.63 249.773l.672.964c.13.19.226.306.284.353.058.045.127.08.21.102.082.022.206.025.37.007l.067.094-1.852.198-.065-.095c.17-.018.273-.045.31-.08.04-.037.055-.082.045-.132-.008-.05-.078-.17-.21-.358l-1.572-2.257c-.13-.19-.225-.305-.284-.35-.058-.048-.128-.083-.21-.105s-.204-.025-.37-.008l-.067-.094 1.588-.17c.524-.055.96-.006 1.312.147.35.154.62.364.806.63.157.227.218.428.184.604-.035.176-.16.308-.38.393-.144.06-.423.112-.837.156zm-1.187-1.703l1.048 1.503c.062-.003.108-.006.14-.01.217-.023.343-.103.375-.238.03-.137-.044-.336-.225-.596-.18-.26-.37-.442-.572-.55-.202-.107-.42-.147-.655-.122l-.11.012zM268.44 247.473c.398.04.706.107.922.202.31.134.55.325.723.573.182.262.222.49.12.685-.125.236-.446.38-.96.436l-1.852.196-.067-.095c.168-.017.272-.044.31-.078.04-.038.055-.082.045-.132-.007-.05-.077-.17-.208-.358l-1.573-2.258c-.133-.188-.227-.305-.286-.35-.058-.047-.127-.082-.208-.104-.08-.023-.205-.026-.37-.008l-.067-.095 1.745-.186c.417-.043.738-.04.96.014.224.052.435.143.633.274.2.13.353.274.464.434.117.167.158.324.122.47-.037.142-.188.27-.455.38zm-1.027.035c.254-.027.422-.075.504-.142.084-.068.123-.155.118-.26-.005-.107-.06-.237-.167-.39-.107-.155-.228-.277-.36-.368-.132-.092-.275-.158-.428-.196-.154-.04-.36-.043-.622-.014l.955 1.37zm.14.2l.777 1.116.086.13c.065.09.138.16.22.2.082.042.17.057.268.047.143-.015.254-.058.333-.13.078-.075.11-.174.095-.295-.017-.123-.074-.256-.173-.398-.115-.162-.255-.303-.424-.423-.17-.122-.34-.2-.514-.237-.174-.037-.397-.04-.67-.01zM271.302 247.447l.68.975c.13.188.225.305.283.352.06.045.128.08.21.102.08.023.204.025.37.007l.068.095-1.865.2-.067-.096c.17-.018.273-.045.313-.08.04-.037.053-.08.044-.132-.01-.05-.08-.17-.21-.358l-1.573-2.257c-.13-.188-.226-.305-.284-.35-.058-.047-.128-.082-.208-.104-.08-.022-.206-.025-.372-.007l-.066-.095 1.692-.18c.442-.047.784-.053 1.03-.016s.485.126.723.27c.237.142.43.318.575.528.18.257.23.48.154.667-.05.12-.17.217-.354.294l1.697 1.086c.22.14.368.226.442.258.11.045.216.065.316.06l.067.095-1.146.12-2.278-1.46-.24.027zm-1.19-1.707l1.064 1.525.153-.017c.248-.026.42-.068.513-.124.092-.057.134-.146.125-.267-.007-.122-.075-.274-.203-.457-.185-.265-.387-.454-.606-.567-.217-.113-.47-.154-.76-.123l-.287.03z"/>
  </g>
  <g stroke-width="1pt" fill="#8c361d">
    <path d="M268.307 251.247l1.34 2.845c.1.214.176.35.224.407.048.055.113.1.195.13s.194.04.335.024l.085-.01.045.096-1.964.205-.046-.095.1-.01c.16-.017.265-.046.317-.087.05-.042.075-.094.07-.156-.003-.062-.057-.203-.16-.422l-.85-1.803c-.076-.16-.132-.26-.166-.298-.035-.04-.082-.07-.14-.092-.06-.025-.117-.034-.176-.028-.093.01-.195.048-.303.117l-.092-.086 1.098-.728.09-.01zM267.66 255.036l-2.197.23-.026-.058c.32-.817.492-1.363.513-1.636.024-.273-.023-.533-.14-.78-.084-.18-.214-.322-.388-.427-.176-.108-.35-.152-.522-.134-.283.03-.44.185-.472.465l-.117-.023c-.055-.34-.02-.597.108-.776.13-.178.324-.28.588-.31.19-.018.38.004.576.07.194.066.37.167.525.3.155.134.262.263.32.387.108.228.15.466.123.714-.036.336-.232.82-.59 1.45l.807-.083c.198-.02.323-.042.374-.064.055-.02.092-.052.114-.092.02-.042.034-.124.04-.25l.1-.01.265 1.028zM259.854 252.128l1.34 2.845c.102.214.176.35.224.407.048.057.113.1.195.13.082.032.193.04.335.025l.085-.01.045.096-1.965.206-.045-.095.1-.01c.16-.016.264-.045.317-.086.05-.04.075-.093.07-.156-.003-.062-.058-.203-.16-.42l-.85-1.805c-.076-.16-.13-.26-.167-.298-.035-.04-.083-.07-.14-.092-.06-.025-.117-.034-.176-.028-.094.01-.195.05-.303.117l-.093-.087 1.097-.727.09-.01zM254.512 252.97l.667 1.415.073-.008c.237-.024.376-.11.416-.26.04-.15.012-.362-.086-.635l.105-.01.858 1.82-.105.012c-.116-.196-.24-.354-.37-.473-.13-.12-.25-.195-.365-.228-.115-.035-.26-.043-.44-.024l.463.98c.092.19.155.308.192.35.038.04.088.07.148.094.06.022.145.028.25.017l.224-.025c.348-.036.592-.14.73-.313.14-.172.184-.417.13-.734l.102-.01.352 1.122-3.224.336-.045-.095.123-.012c.108-.01.187-.038.236-.08.035-.03.053-.074.05-.135.002-.044-.04-.152-.12-.327l-1.08-2.288c-.073-.157-.123-.254-.15-.29-.046-.057-.102-.1-.166-.127-.092-.04-.2-.053-.32-.04l-.124.012-.045-.095 3.123-.325.485 1.03-.105.01c-.17-.246-.332-.42-.48-.518-.148-.1-.32-.166-.522-.2-.117-.02-.317-.014-.6.015l-.384.04zM250.527 256.824l-.044-.095.123-.014c.11-.01.184-.035.226-.07.044-.04.067-.088.068-.146 0-.037-.043-.146-.128-.325l-1.078-2.29c-.084-.177-.146-.287-.187-.33-.04-.04-.1-.076-.178-.102-.078-.028-.17-.036-.273-.026l-.124.013-.045-.094 1.67-.174c.446-.047.832-.028 1.156.057.398.103.747.286 1.05.55.304.26.54.57.707.924.116.244.18.474.193.69.013.214-.016.396-.086.545-.07.146-.176.27-.313.37-.136.1-.32.184-.553.255-.1.032-.272.06-.512.085l-1.67.174zm-.123-3.43l1.278 2.715c.068.143.117.23.147.262.03.03.065.052.108.066.062.02.14.026.234.016.306-.032.494-.153.563-.366.096-.286.014-.706-.248-1.26-.21-.447-.453-.795-.73-1.047-.217-.195-.437-.32-.66-.377-.157-.04-.387-.04-.693-.008zM263.5 253.41c.347.152.608.3.782.446.175.143.31.315.404.515.132.282.13.53-.005.75-.134.216-.395.345-.784.385-.37.04-.694-.016-.976-.164-.28-.148-.48-.344-.594-.588-.088-.187-.107-.356-.058-.508.05-.153.185-.3.402-.446-.395-.18-.665-.332-.813-.457-.146-.124-.26-.274-.342-.45-.11-.233-.1-.448.027-.646.13-.2.378-.32.747-.358.355-.037.665.013.93.15.266.136.45.314.553.533.078.163.094.314.05.45-.045.136-.152.266-.322.39zm-.27-.11c.027-.092.032-.193.016-.302-.018-.11-.056-.228-.116-.354-.104-.223-.236-.388-.394-.495-.12-.083-.248-.118-.383-.104-.123.013-.208.066-.255.16-.047.09-.042.197.016.32.06.125.167.25.327.375.16.124.424.258.79.4zm-.296.6c-.034.053-.054.1-.06.143-.008.064 0 .154.025.272.024.117.065.24.124.363.076.16.162.294.258.4.094.102.193.174.297.213.104.04.2.055.285.047.134-.014.226-.072.275-.172.048-.102.034-.232-.04-.39-.157-.333-.545-.624-1.166-.876z"/>
  </g>
</svg>
