<svg xmlns="http://www.w3.org/2000/svg" id="flag-icon-css-gu" width="512" height="512">
  <path fill="#be0027" fill-rule="evenodd" d="M0 0h512v512H0z"/>
  <path fill="#3b5aa3" fill-rule="evenodd" d="M20.48 20.48h470v471.04h-470z"/>
  <path fill="#cbe0e5" fill-rule="evenodd" d="M251.86 396.13c1.82 1 4.7.94 6.31.08 103.36-54.99 103.42-205.78.15-260a7.5 7.5 0 0 0-6.61.09c-100.72 55.1-101 204.19.15 259.84z"/>
  <path fill="#add2d9" fill-rule="evenodd" d="M251.86 398.85c1.6 1.31 4.85 1.18 6.31.08 76.17-57.03 76.62-92.58 73.24-92.57l-150.75.08c-2.3 0 1.33 36.08 71.2 92.4z"/>
  <path fill="#fdf9a1" fill-rule="evenodd" d="M192.6 334.61c6.54-1.7 14.43-2.15 20.86 1.29 5.72 2.98 9.03 2.95 15.19 3.04 6.44.08 11.5 4.82 18.47 5 12.83.34 18.24 6.7 8.26 6.71-4.71.01-14.82-3.14-19.7-2.46-10.19 1.05-16.65 3.3-26.25 13.97l11.09 7.6c9.59-3.91 11.2-8.3 16.5-8.48 6-.2 8.04-3.91 14.98-3.92 7.88 1.43 18.55-.98 24.8-2.38 11.1-2.58 5.82-10.33-.9-13.14-5.44-2.3-15.61-.08-21.93-2.38-4.78-1.85-.85-4.84 1.72-5.48 2.6-.47 5.38.37 8.6.9 5.77.5 13-.06 18.06-.85 10.46-1.62 10.02-4.7 15.07-4.77a16.03 16.03 0 0 0 9-3.08c2.95-1.98 6.01-6.02 9.59-5.87l9.57.4-13.48 30.31-38.08 38.75-19.71 7.48-43.35-28.21-21.85-33.52 3.49-.91z"/>
  <path fill="#179a3b" fill-rule="evenodd" d="M242.41 305.14l87.03-.4 1.53-7.71s-3.1-.47-5.61-.61c-3.13-.2-8.48 3.26-12.07 3.24-2.54-.02-5.45-4.56-7.99-4.46-4.43-.04-4.83 3.95-9 4.06-3.38-.12-4.82-2.7-9.19-2.44-4.58.26-4.24 2.78-10.02 2.64-7.65-.2-10.72-6.83-16.83-6.9-10.21-.12-10.54 9.74-17.85 12.58z"/>
  <path fill="#fdf9a1" fill-rule="evenodd" d="M242.41 307l89.58-.46v-2.43l-91.62.46 2.04 2.43z"/>
  <path fill="#a79270" fill-rule="evenodd" d="M279.22 333.92c1.38 5.29 2.83 7.09 8.4 8.44 5.5 1.35 13.88-4 8.67-9.18-4.96-4.81-10.18-6.04-14.62-10.37-9.35-9.24-23.45-31.88-23.46-47.85-.01-13.71-1.33-41.85-1.34-68.5 0-1.74-5.21 4.83-5.2 6.59.24 23.51.2 41.29 1.16 65 1.48 17.33 9.75 29 17.01 39.54 3.26 5.05 7.96 10.5 9.38 16.33z"/>
  <text x="465.11" y="269.49" fill="#bd0728" stroke="#fff" stroke-width="1.64" font-family="helvetica" font-size="25.61" transform="translate(-256.29 5.09)">
    <tspan>G</tspan>
  </text>
  <text x="488.06" y="269.61" fill="#bd0728" stroke="#fff" stroke-width="1.64" font-family="helvetica" font-size="25.61" transform="translate(-256.29 5.09)">
    <tspan>U</tspan>
  </text>
  <text x="516.05" y="269.59" fill="#bd0728" stroke="#fff" stroke-width="1.64" font-family="helvetica" font-size="25.61" transform="translate(-256.29 5.09)">
    <tspan>A</tspan>
  </text>
  <text x="539.53" y="269.54" fill="#bd0728" stroke="#fff" stroke-width="1.64" font-family="helvetica" font-size="25.61" transform="translate(-256.29 5.09)">
    <tspan>M</tspan>
  </text>
  <path fill="#239e46" fill-rule="evenodd" d="M211.9 207.31c-1.16 2.23 2.71-.65 3.59-.96 5.01-1.79 6.98-8.12 15.62-4.3 6.8 2.93 15.93 1.22 11.15 4.2-5.9 3.53-17.63 7.44-17.87 24.94.98 1.71 1.06 1.44 1.88-.39 1.78-4.08 10.3-15.16 14.5-14.24 1.7.44 6.68-5 6.8-3.45.45 4.37-6.77 13.21-6.69 25.05.02 2.74 3.39 3.63 5.02 1.7 1.61-1.7 2.52-3.46 5.35-5.7 5-4.1 3.62-21.5 4.24-20.69 3.54 4.59 4.08 17.52 9.36 22.82 4.38 4.4 7.92 2.3 6.97-3.82-1.9-12.27-7.7-8.77-10.47-21.46-.56-2.47-.7-4.7 2.58-3.67 4 1.16 6.35 3.02 9.33 7.53 2.98 4.3 8.58 8.43 11.81 10.97 5.64 4.33 7.63.55 4.93-5.02-2.98-6.24-9.7-11.42-15.8-13.68-4.63-1.6-6.28-1.75-10.36-2.53-1.13-.24-2.3-2.57-.29-3.85 4.32-2.64 9.49-5.62 14.73-5.77 5.04-.13 9.04 3.91 12.57 4.93 7.06 1.85 7.02-2.63 3.91-5.95-2.55-2.8-7.95-7.5-13-6.88-10.18 1.24-9.53.96-15.78 5.1-2.29 1.35-4.83 2.84-3.88 1.2 2.28-4.1.15-3.4 3.68-7.58 2.75-3.06 4.76-5.27 7.48-6.04 2.59-.62 6-3.36 7.06-4.76 2.53-3.5.35-5.5-3.57-4.33-3.4.94-5.23 3.2-7.57 3.83-5.48 1.72-9.9 14.27-10.58 16.04-.87 2.13-1.84 1.07-1.66-.72.8-8.86 1.54-23.69-1.59-29.79-4.7-9-4.27-4.8-6.08-.53-2.72 6.78-1.77 13.1-.06 19.76.75 3.32 3.53 7.1 4.03 9.7.36 2.04-1.2-.64-2.09-1.87-2.95-4.52-5.12-7.58-9.93-10.04-3.29-2.08-12.15-2.36-15.23-1.42-1.34.41 1.48 2.32 2.67 3.27 3.23 2.56 9.35 3.36 13.46 5.9 3.54 2.17 6.23 3.56 7.4 6.57.49 2.23 1.2 5.54-.26 5.46-3.85-.23-9.85-3.56-22.15-2.19-6.28.83-11.73 6.2-15.21 12.66z"/>
  <path fill-rule="evenodd" d="M238.71 319.84h3.57v5.95h-3.57z"/>
  <path fill="#fdf9ff" fill-rule="evenodd" d="M220.99 280.21c14.15 19.6 36.84 31.02 37.3 39.93-14.34-.06-29.87 0-44.21-.05 10.15-12.21 16.34-20.46 6.9-39.88z"/>
  <path fill="#a68861" fill-rule="evenodd" d="M208.12 320.58c19.23 4.29 42.19 6.65 56.85-.6.12 4.29-4.77 10.46-8.77 10.46h-36.9c4.28-.62 6.73-1.92 13.7-2.29l-19.59.24c-2.16.08-6.01-5.73-5.29-7.81z"/>
  <path fill="#be0027" fill-rule="evenodd" d="M251.73 405.93a8.06 8.06 0 0 0 6.79.09c111.1-59.14 111.16-221.3.16-279.62a8.07 8.07 0 0 0-7.11.09c-108.26 59.26-108.55 219.59.16 279.44zm.55-13.35c1.7.94 4.4.9 5.92.07 93-54.73 94.14-199.32.14-251.15-1.8-1.32-4.41-.9-6.2.08-89.07 52.67-94.03 191.3.14 251z"/>
  <text x="465.11" y="269.49" fill="#bd0728" font-family="helvetica" font-size="25.61" transform="translate(-256.29 5.09)">
    <tspan>G</tspan>
  </text>
  <text x="488.06" y="269.61" fill="#bd0728" font-family="helvetica" font-size="25.61" transform="translate(-256.29 5.09)">
    <tspan>U</tspan>
  </text>
  <text x="516.05" y="269.59" fill="#bd0728" font-family="helvetica" font-size="25.61" transform="translate(-256.29 5.09)">
    <tspan>A</tspan>
  </text>
  <text x="539.53" y="269.54" fill="#bd0728" font-family="helvetica" font-size="25.61" transform="translate(-256.29 5.09)">
    <tspan>M</tspan>
  </text>
</svg>
