<svg xmlns="http://www.w3.org/2000/svg" height="512" width="512" version="1"><g><rect height="512" width="512" fill="#006"/><g><path fill="#fff" d="M0 0v19.214l234.011 152.639h29.455v-19.213l-234.011-152.639h-29.455zm263.466 0v19.213l-234.011 152.639h-29.455v-19.213l234.011-152.639h29.455z"/><path fill="#fff" d="M109.777 0v171.852h43.911v-171.852h-43.911zm-109.777 57.284v57.284h263.466v-57.284h-263.466z"/><path fill="#c00" d="M0 68.741v34.37h263.466v-34.37h-263.466zm118.56-68.741v171.852h26.347v-171.852h-26.347z"/><path fill="#c00" d="M0 171.852l87.822-57.284h19.637l-87.822 57.284h-19.637zm0-171.852l87.822 57.284h-19.637l-68.185-44.475v-12.809zm156.007 57.284l87.822-57.284h19.637l-87.822 57.284h-19.637zm107.459 114.568l-87.822-57.284h19.637l68.185 44.475v12.809z"/></g><polygon fill-rule="evenodd" transform="matrix(4.184 0 0 4.184 -56.416 238.54)" points="30 49 26.095 53.109 26.873 47.494 21.226 47.003 26.1 44.11 22.964 39.389 28.264 41.396 30 36 30 36 31.736 41.396 37.036 39.389 33.9 44.11 38.774 47.003 33.127 47.494 33.905 53.109" fill="#fff"/><g fill-rule="evenodd" transform="matrix(6.186 0 0 6.186 -176.26 145.71)" fill="#fff"><polygon points="90 51.905 88.14 53.861 88.511 51.188 85.822 50.954 88.143 49.576 86.649 47.328 89.174 48.284 90 45.714 90 45.714 90.826 48.284 93.351 47.328 91.857 49.576 94.178 50.954 91.489 51.188 91.86 53.861"/><polygon points="90 11.905 88.14 13.861 88.511 11.188 85.822 10.954 88.143 9.5762 86.649 7.3279 89.174 8.2839 90 5.7143 90 5.7143 90.826 8.2839 93.351 7.3279 91.857 9.5762 94.178 10.954 91.489 11.188 91.86 13.861"/><polygon points="75 28.155 73.14 30.111 73.511 27.438 70.822 27.204 73.143 25.826 71.649 23.578 74.174 24.534 75 21.964 75 21.964 75.826 24.534 78.351 23.578 76.857 25.826 79.178 27.204 76.489 27.438 76.86 30.111"/><polygon points="103.33 24.155 101.47 26.111 101.84 23.438 99.155 23.204 101.48 21.826 99.983 19.578 102.51 20.534 103.33 17.964 103.33 17.964 104.16 20.534 106.68 19.578 105.19 21.826 107.51 23.204 104.82 23.438 105.19 26.111"/><polygon points="94.943 32.843 93.622 31.728 95.347 31.601 96 30 96 30 96.653 31.601 98.378 31.728 97.057 32.843 97.47 34.522 96 33.611 94.53 34.522"/></g></g></svg>