<svg xmlns="http://www.w3.org/2000/svg" id="flag-icon-css-hm" width="512" height="512">
  <g stroke-width="1pt">
    <path fill="#006" d="M0 0h512v512H0z"/>
    <path fill="#fff" d="M0 0v19.21l234.01 152.64h29.46v-19.21L29.46 0H0zm263.47 0v19.21L29.46 171.85H0v-19.21L234.01 0h29.46z"/>
    <path fill="#fff" d="M109.78 0v171.85h43.9V0h-43.9zM0 57.28v57.29h263.47V57.28H0z"/>
    <path fill="#c00" d="M0 68.74v34.37h263.47V68.74H0zM118.56 0v171.85h26.35V0h-26.35zM0 171.85l87.82-57.28h19.64l-87.82 57.28H0zM0 0l87.82 57.28H68.2L0 12.81V0zm156 57.28L243.84 0h19.64l-87.83 57.28h-19.63zm107.47 114.57l-87.83-57.28h19.64l68.19 44.47v12.81z"/>
    <path fill="#fff" fill-rule="evenodd" d="M69.11 443.57l-16.34 17.2 3.26-23.5-23.63-2.06 20.4-12.1-13.13-19.76 22.18 8.4 7.26-22.58 7.27 22.58 22.17-8.4-13.12 19.76 20.4 12.1-23.64 2.06 3.26 23.49m295.07 6.06l-11.5 12.1 2.3-16.54-16.64-1.44 14.36-8.53-9.25-13.9 15.62 5.9 5.11-15.9 5.11 15.9 15.63-5.9-9.25 13.9 14.36 8.53-16.63 1.44 2.3 16.54m-11.51-259.56l-11.51 12.1 2.3-16.54-16.64-1.44 14.36-8.53-9.25-13.9 15.62 5.9 5.11-15.89 5.11 15.9 15.63-5.92-9.25 13.91 14.36 8.53-16.63 1.44 2.3 16.54M287.72 319.9l-11.5 12.1 2.29-16.54-16.64-1.44 14.36-8.53-9.24-13.9 15.62 5.91 5.1-15.9 5.12 15.9 15.62-5.92-9.24 13.91 14.36 8.53-16.64 1.44 2.3 16.54m163.75-36.85l-11.5 12.1 2.28-16.53-16.6-1.45 14.38-8.52-9.26-13.91 15.63 5.91 5.07-15.9 5.14 15.9 15.59-5.91-9.22 13.9 14.35 8.53-16.64 1.45 2.29 16.53m-63.4 41.65l-8.17-6.9 10.67-.78 4.04-9.9 4.04 9.9 10.68.78-8.18 6.9 2.56 10.39-9.1-5.64-9.09 5.64"/>
  </g>
</svg>
