<svg xmlns="http://www.w3.org/2000/svg" height="512" width="512" version="1"><defs><clipPath id="a"><rect fill-opacity=".67" height="494.61" width="494.61" y="2.603" x="218.92"/></clipPath></defs><g fill-rule="evenodd" clip-path="url(#a)" transform="matrix(1.035 0 0 1.035 -226.62 -2.695)"><rect height="208.93" width="959.78" y="136.96" fill="#fff"/><rect transform="matrix(-1.547 0 0 -1.547 0 -233.71)" height="107.96" width="618.06" y="-472.52" x="-619.34" fill="#087bce"/><rect transform="matrix(-1.547 0 0 -1.547 0 -233.71)" height="104.98" width="620.86" y="-257.75" x="-620.86" fill="#087bce"/><polygon transform="matrix(.333 -.002 -.004 .316 304.57 139.65)" points="533.77 391.48 476.5 433.15 498.45 365.81 441.12 324.21 511.95 324.28 533.78 256.9 555.61 324.28 626.44 324.23 569.1 365.81 591.04 433.16 591.04 433.16" fill="#087bce"/><polygon transform="matrix(.333 -.002 -.004 .316 442.66 175.2)" points="533.77 391.48 476.5 433.15 498.45 365.81 441.12 324.21 511.95 324.28 533.78 256.9 555.61 324.28 626.44 324.23 569.1 365.81 591.04 433.16 591.04 433.16" fill="#087bce"/><polygon transform="matrix(.333 -.002 -.004 .316 442.66 101.37)" points="533.77 391.48 476.5 433.15 498.45 365.81 441.12 324.21 511.95 324.28 533.78 256.9 555.61 324.28 626.44 324.23 569.1 365.81 591.04 433.16 591.04 433.16" fill="#087bce"/><polygon transform="matrix(.333 -.002 -.004 .316 137.77 175.2)" points="533.77 391.48 476.5 433.15 498.45 365.81 441.12 324.21 511.95 324.28 533.78 256.9 555.61 324.28 626.44 324.23 569.1 365.81 591.04 433.16 591.04 433.16" fill="#087bce"/><polygon transform="matrix(.333 -.002 -.004 .316 137.77 101.37)" points="533.77 391.48 476.5 433.15 498.45 365.81 441.12 324.21 511.95 324.28 533.78 256.9 555.61 324.28 626.44 324.23 569.1 365.81 591.04 433.16 591.04 433.16" fill="#087bce"/></g></svg>