<svg xmlns="http://www.w3.org/2000/svg" height="512" width="512" version="1">
  <g fill-rule="evenodd" clip-path="url(#a)">
    <path fill="#fff" d="M-226.62 139.086h993.564v216.284h-993.564z"/>
    <path fill="#087bce" d="M764.943 511.874h-989.514v-172.844h989.514z"/>
    <path fill="#087bce" d="M767.377 168.027h-993.997v-168.073h993.997z"/>
    <path fill="#087bce" d="M271.256 268.817l-19.925 13.741 7.842-22.064-19.612-13.489 24.436-.119 7.801-22.077 7.262 21.99 24.437-.158-19.949 13.711 7.3 21.98z"/>
    <path fill="#087bce" d="M414.207 305.618l-19.925 13.741 7.842-22.064-19.612-13.489 24.436-.119 7.801-22.077 7.262 21.99 24.437-.158-19.949 13.711 7.3 21.98z"/>
    <path fill="#087bce" d="M414.207 229.189l-19.925 13.741 7.842-22.064-19.612-13.489 24.436-.119 7.801-22.077 7.262 21.99 24.437-.158-19.949 13.711 7.3 21.98z"/>
    <path fill="#087bce" d="M98.585 305.618l-19.925 13.741 7.842-22.064-19.612-13.489 24.436-.119 7.801-22.077 7.262 21.99 24.437-.158-19.949 13.711 7.3 21.98z"/>
    <path fill="#087bce" d="M98.585 229.189l-19.925 13.741 7.842-22.064-19.612-13.489 24.436-.119 7.801-22.077 7.262 21.99 24.437-.158-19.949 13.711 7.3 21.98z"/>
  </g>
</svg>
