<svg xmlns="http://www.w3.org/2000/svg" viewBox="0 0 512 512" height="512" width="512" version="1">
  <defs>
    <clipPath id="a">
      <path fill-opacity=".67" d="M218.92 2.603h494.61v494.61H218.92z"/>
    </clipPath>
  </defs>
  <g fill-rule="evenodd" clip-path="url(#a)" transform="matrix(1.04 0 0 1.04 -226.62 -2.69)" stroke-width="1pt">
    <path fill="#fff" d="M0 136.96h959.78v208.93H0z"/>
    <path fill="#087bce" d="M957.996 497.184H1.98V330.19h956.016zM960.347 164.978H0V2.595h960.347zM481.092 262.515l-19.243 13.263 7.56-21.32-18.96-13.054 23.612-.093 7.522-21.33 7.033 21.26 23.612-.13-19.267 13.235 7.07 21.25M619.182 298.065l-19.243 13.263 7.56-21.32-18.96-13.054 23.612-.093 7.522-21.33 7.033 21.26 23.612-.13-19.267 13.235 7.07 21.25M619.182 224.235l-19.243 13.263 7.56-21.32-18.96-13.054 23.612-.093 7.522-21.33 7.033 21.26 23.612-.13-19.267 13.235 7.07 21.25M314.292 298.065l-19.243 13.263 7.56-21.32-18.96-13.054 23.612-.093 7.522-21.33 7.033 21.26 23.612-.13-19.267 13.235 7.07 21.25M314.292 224.235l-19.243 13.263 7.56-21.32-18.96-13.054 23.612-.093 7.522-21.33 7.033 21.26 23.612-.13-19.267 13.235 7.07 21.25"/>
  </g>
</svg>
