<?xml version="1.0" encoding="UTF-8" standalone="no"?>
<!-- Created with Sodipodi ("http://www.sodipodi.com/") -->
<svg id="svg557" xmlns:rdf="http://www.w3.org/1999/02/22-rdf-syntax-ns#" xmlns="http://www.w3.org/2000/svg" height="512" width="512" version="1" y="0" x="0" xmlns:cc="http://creativecommons.org/ns#" xmlns:xlink="http://www.w3.org/1999/xlink" xmlns:dc="http://purl.org/dc/elements/1.1/">
 <metadata id="metadata3779">
  <rdf:RDF>
   <cc:Work rdf:about="">
    <dc:format>image/svg+xml</dc:format>
    <dc:type rdf:resource="http://purl.org/dc/dcmitype/StillImage"/>
   </cc:Work>
  </rdf:RDF>
 </metadata>
 <defs id="defs559">
  <clipPath id="clipPath3618" clipPathUnits="userSpaceOnUse">
   <rect id="rect3620" fill-opacity="0.67" height="512" width="512" y="0" x="0"/>
  </clipPath>
 </defs>
 <g id="flag" clip-path="url(#clipPath3618)">
  <rect id="rect675" fill-rule="evenodd" height="181.5" width="998.76" y="144.7" x="-248.62" stroke-width="1pt" fill="#fff"/>
  <g id="g1089" transform="matrix(1.0814 0 0 1.0814 -248.56 -3.1546)">
   <rect id="rect714" fill-rule="evenodd" height="187.64" width="925.36" y="288.73" x=".78548" stroke-width="1pt" fill="#003e9f"/>
   <rect id="rect713" fill-rule="evenodd" height="157.34" width="926.85" y="2.9171" x="-1.3302" stroke-width="1pt" fill="#d61517"/>
   <path id="path683" d="m99.546 313.18c91.172-33.06 192.26-50.898 291.06-51.152 98.801-0.254 199.56 15.548 299.12 51.915l74.111-152.4-52.091-92.492s-92.938 38.91-93.701 38.91-65.53-72.656-65.53-72.656l-83.17 51.224-78.1-60.883-73.47 59.944-85.76-50.53-62.56 75.781-93.776-40.874-50.202 91.644 74.064 151.57z" fill-rule="evenodd" transform="matrix(.26544 0 0 .26040 359.68 74.414)" stroke="#e5141d" stroke-linecap="round" stroke-width="4" fill="#fff"/>
   <path id="path680" d="m103.35 305.55-55.297-148.75 51.57-83.743 86.837 38.303 28.36 156.41c-41.446 10.136-62.637 16.965-111.47 37.787z" fill-rule="evenodd" transform="matrix(.21501 .15270 -.15566 .21093 537.56 64.727)" stroke="#0084fd" stroke-width="1pt" fill="#00a7bd"/>
   <path id="path671" d="m103.49 305.85-62.857-142.21 47.171-83.138 91.736 35.968 39.06 153.8c-40.482 9.638-69.466 18.331-115.1 35.578z" stroke-opacity=".99608" transform="matrix(.26212 .041034 -.041828 .25715 402.39 62.167)" stroke-width="1pt" fill="none"/>
   <path id="path672" d="m103.49 305.85-63.373-145.84 50.173-78.251 89.981 31.708 37.199 154.81c-40.175 10.938-68.342 20.333-113.98 37.58z" fill-rule="evenodd" transform="matrix(.25199 .081833 -.083416 .24721 448.13 56.569)" stroke="#0084fd" stroke-width="1pt" fill="#00a7bd"/>
   <path id="path670" d="m103.12 305.58-67.324-145.16 44.991-80.129 93.263 41.379 39.41 149.75c-42.583 8.976-65.133 16.31-110.34 34.153z" stroke-opacity=".99608" fill-rule="evenodd" transform="matrix(.26544 0 0 .26040 359.68 74.414)" stroke="#0084fd" stroke-width="1pt" fill="#00a7bd"/>
   <path id="path561" d="m82.188 225.18c21.198 4.375 36.302 4.532 55.312-0.781 22.709-9.479 30.73-22.24 38.125-32.5 3.438 21.667-0.156 41.302-26.093 55.156-23.282 10.938-54.688 4.063-67.344-21.875z" fill-rule="evenodd" transform="matrix(.26544 0 0 .26040 359.68 74.414)" stroke="#fff" stroke-width="1pt" fill="#fff"/>
   <g id="g591" stroke-width="1pt" transform="matrix(.26544 0 0 .26040 359.68 74.414)">
    <path id="path568" d="m410.94 120.56-4.063 1.016 0.156 7.5-5 1.094-3.497 6.614 2.159 2.044c0.111 0.221-1.703 4.892-1.625 4.892s1.323 1.762 1.323 1.762l1.328 4.063 3.359 0.468 0.86 4.766 5.312 0.859 4.922 3.516 0.312 2.188 5.625 0.156 3.829 1.25 13.359-1.563 1.797-2.812 0.156-3.828 7.188-0.235 0.657-6.105h3.809l-0.474-6.875 3.177 0.286-0.82-3.295-1.975-2.683-0.39-4.218-5.625-5.625-1.25-7.344s-3.594-1.641-3.594-1.719-0.234-4.922-0.234-4.922l4.062-5.703-0.39-2.265-3.75-0.079-2.813 2.344s-3.75 0.391-3.75 0.469v1.719s0.938 3.203 0.938 3.281-4.297 0-4.297 0l-0.157-5.078-6.093-3.047s-5.703 3.906-5.703 3.984-0.313 4.532-0.313 4.532l-2.734 0.781-2.813-4.219-4.922-1.875-2.656-0.156-0.078 3.281 5.156 6.797-0.468 3.984z" stroke-opacity=".99608" fill-opacity=".99608" fill-rule="evenodd" stroke="#544b20" fill="#faf703"/>
    <path id="path570" d="m449.23 148.04-1.105-4.088" stroke="#544b20" fill="none"/>
    <path id="path571" d="m452.33 141.3-1.878-2.762" stroke="#544b20" fill="none"/>
    <path id="path576" d="m400.84 138.21 5.856-0.332 1.105 5.303 1.988 1.768 0.332 9.723 1.878 0.773 0.553-3.867 4.53-0.331 0.883 7.844-1.104 0.995 0.442 1.215 5.413-0.11s1.216-2.1 1.326-2.1c0.111 0 3.094-0.331 3.094-0.221 0 0.111 1.215 2.321 1.215 2.321l0.884-2.984s2.873-1.215 2.873-1.104c0 0.11 2.32 3.756 2.32 3.756l3.977-0.552-2.43-2.32-0.995-5.083 5.524-2.983 2.21 3.757s2.099 0.11 1.989 0c-0.111-0.111-2.431-4.309-2.431-4.309v-8.839l4.199-5.745 5.855-0.663v-2.431l-5.855-5.414-1.547-7.513-3.315-1.657-0.884 0.994-3.646 0.332 3.646 5.414v3.535l1.658 0.884-0.332 9.723s-4.088 0.552-4.088 0.663c0 0.11-0.331 5.413-0.331 5.413l-2.541 2.542s-1.437 5.082-1.547 5.082c-0.111 0-2.431 3.093-2.431 3.093l-4.53 0.111s-2.651-2.541-2.651-2.652c0-0.11-0.442-3.756-0.442-3.756s-1.768-0.553-1.879-0.553c-0.11 0-0.994-4.088-0.994-4.088l-3.094-1.767-0.22-2.431-2.984-1.326s-0.331-2.21-0.442-2.32c-0.11-0.111-1.436-0.994-1.546-0.994-0.111 0-0.111-6.077-0.111-6.077l2.652-0.442-1.485-1.94-0.504-1.706v-1.768l2.21-2.21s-3.978-0.552-3.978-0.442c0 0.111-3.866 1.768-3.866 1.658 0.11 0-0.111 7.181-0.111 7.181l-4.53 1.437-3.646 5.855 1.878 1.658z" stroke-opacity=".99999" fill-rule="evenodd" stroke="#544b21" fill="#544b20"/>
    <path id="path577" d="m423.71 148.04 2.983-1.768-0.111-3.425-2.872-0.663-1.106-1.105 3.205 0.553 3.977-0.332 1.326-0.663c-0.552 1.437-0.994 1.326-1.105 1.326-0.11 0-2.209 1.105-2.209 1.105l0.11 3.315s6.85 0.883 6.74 0.883c-0.111 0 0 1.326-0.221 1.326s-7.071-1.547-7.071-1.547l-4.309 2.652 0.663-1.657z" fill-rule="evenodd" stroke="#544b20" fill="#544b20"/>
    <path id="path578" d="m440.95 127.49-3.977 3.093-2.541 4.53-1.326 0.221-3.867-5.193-4.419 0.111s-2.431 6.076-2.431 6.187c0 0.11-1.768-0.221-1.768-0.221l-4.64-5.082s-1.437-2.542-1.216-2.542 11.601 0.111 11.601 0.111l-0.11-5.524s-1.768-0.553-2.652-1.105c0.663-0.221 6.298-0.221 6.298-0.221l-2.431 1.657v4.751l10.054 0.11 3.425-0.883z" fill-rule="evenodd" stroke="#544b20" fill="#544b20"/>
    <rect id="rect579" fill-rule="evenodd" fill-opacity=".99608" ry="1.3258" height="2.6516" width="2.6516" y="130.14" x="419.51" fill="#796a3a"/>
    <rect id="rect580" fill-rule="evenodd" ry="1.3258" height="2.6516" width="2.6516" y="129.59" x="432.11" fill="#7a6b3a"/>
    <path id="path581" d="m413.55 121.3c4.198-1.694 7.181-3.056 12.374-3.535 4.898-0.516 8.692 0.184 13.037 0.994" stroke="#544b20" fill="none"/>
    <path id="path584" d="m415.87 112.35h-3.425l-4.862-5.193 2.763 0.332 3.204 1.436 2.32 3.425z" fill-rule="evenodd" stroke="#544b20" fill="#544b20"/>
    <path id="path585" d="m436.53 110.36 7.734-5.965-2.541-0.332-2.873 2.651-3.425 0.553 1.105 3.093z" fill-rule="evenodd" stroke="#544b20" fill="#544b20"/>
    <path id="path586" d="m431.97 111.46-12.123 0.451 0.11-1.326 4.42-0.442 0.552-1.767s1.326-0.11 1.326 0c0 0.111 0.994 1.657 0.994 1.657l4.309 0.773 0.412 0.654z" fill-rule="evenodd" stroke="#544b20" fill="#544b20"/>
    <path id="path587" d="m431.34 106.83-4.198 0.11-0.332-2.32 4.53 2.21z" fill-rule="evenodd" stroke="#544b20" fill="#544b20"/>
    <path id="path588" d="m424.26 104.73-0.332 2.319-4.087 0.663 4.419-2.982z" fill-rule="evenodd" stroke="#544b20" fill="#544b20"/>
    <path id="path589" d="m401.06 147.04 2.099-5.303-1.878-3.646-1.878 5.414 1.657 3.535z" fill-rule="evenodd" stroke="#544b20" fill="#544b20"/>
    <path id="path590" d="m405.37 149.81 2.541-6.298-4.861 5.082 2.32 1.216z" fill-rule="evenodd" transform="translate(-.11047 .11044)" stroke="#544b20" fill="#544b20"/>
   </g>
   <g id="g576" stroke-width="1pt" transform="matrix(.26544 0 0 .26040 341.88 74.989)">
    <path id="path579" d="m410.94 120.56-4.063 1.016 0.156 7.5-5 1.094-3.497 6.614 2.159 2.044c0.111 0.221-1.703 4.892-1.625 4.892s1.323 1.762 1.323 1.762l1.328 4.063 3.359 0.468 0.86 4.766 5.312 0.859 4.922 3.516 0.312 2.188 5.625 0.156 3.829 1.25 13.359-1.563 1.797-2.812 0.156-3.828 7.188-0.235 0.657-6.105h3.809l-0.474-6.875 3.177 0.286-0.82-3.295-1.975-2.683-0.39-4.218-5.625-5.625-1.25-7.344s-3.594-1.641-3.594-1.719-0.234-4.922-0.234-4.922l4.062-5.703-0.39-2.265-3.75-0.079-2.813 2.344s-3.75 0.391-3.75 0.469v1.719s0.938 3.203 0.938 3.281-4.297 0-4.297 0l-0.157-5.078-6.093-3.047s-5.703 3.906-5.703 3.984-0.313 4.532-0.313 4.532l-2.734 0.781-2.813-4.219-4.922-1.875-2.656-0.156-0.078 3.281 5.156 6.797-0.468 3.984z" stroke-opacity=".99608" fill-opacity=".99608" fill-rule="evenodd" stroke="#544b20" fill="#faf703"/>
    <path id="path580" d="m449.23 148.04-1.105-4.088" stroke="#544b20" fill="none"/>
    <path id="path591" d="m452.33 141.3-1.878-2.762" stroke="#544b20" fill="none"/>
    <path id="path592" d="m400.84 138.21 5.856-0.332 1.105 5.303 1.988 1.768 0.332 9.723 1.878 0.773 0.553-3.867 4.53-0.331 0.883 7.844-1.104 0.995 0.442 1.215 5.413-0.11s1.216-2.1 1.326-2.1c0.111 0 3.094-0.331 3.094-0.221 0 0.111 1.215 2.321 1.215 2.321l0.884-2.984s2.873-1.215 2.873-1.104c0 0.11 2.32 3.756 2.32 3.756l3.977-0.552-2.43-2.32-0.995-5.083 5.524-2.983 2.21 3.757s2.099 0.11 1.989 0c-0.111-0.111-2.431-4.309-2.431-4.309v-8.839l4.199-5.745 5.855-0.663v-2.431l-5.855-5.414-1.547-7.513-3.315-1.657-0.884 0.994-3.646 0.332 3.646 5.414v3.535l1.658 0.884-0.332 9.723s-4.088 0.552-4.088 0.663c0 0.11-0.331 5.413-0.331 5.413l-2.541 2.542s-1.437 5.082-1.547 5.082c-0.111 0-2.431 3.093-2.431 3.093l-4.53 0.111s-2.651-2.541-2.651-2.652c0-0.11-0.442-3.756-0.442-3.756s-1.768-0.553-1.879-0.553c-0.11 0-0.994-4.088-0.994-4.088l-3.094-1.767-0.22-2.431-2.984-1.326s-0.331-2.21-0.442-2.32c-0.11-0.111-1.436-0.994-1.546-0.994-0.111 0-0.111-6.077-0.111-6.077l2.652-0.442-1.485-1.94-0.504-1.706v-1.768l2.21-2.21s-3.978-0.552-3.978-0.442c0 0.111-3.866 1.768-3.866 1.658 0.11 0-0.111 7.181-0.111 7.181l-4.53 1.437-3.646 5.855 1.878 1.658z" stroke-opacity=".99999" fill-rule="evenodd" stroke="#544b21" fill="#544b20"/>
    <path id="path593" d="m423.71 148.04 2.983-1.768-0.111-3.425-2.872-0.663-1.106-1.105 3.205 0.553 3.977-0.332 1.326-0.663c-0.552 1.437-0.994 1.326-1.105 1.326-0.11 0-2.209 1.105-2.209 1.105l0.11 3.315s6.85 0.883 6.74 0.883c-0.111 0 0 1.326-0.221 1.326s-7.071-1.547-7.071-1.547l-4.309 2.652 0.663-1.657z" fill-rule="evenodd" stroke="#544b20" fill="#544b20"/>
    <path id="path594" d="m440.95 127.49-3.977 3.093-2.541 4.53-1.326 0.221-3.867-5.193-4.419 0.111s-2.431 6.076-2.431 6.187c0 0.11-1.768-0.221-1.768-0.221l-4.64-5.082s-1.437-2.542-1.216-2.542 11.601 0.111 11.601 0.111l-0.11-5.524s-1.768-0.553-2.652-1.105c0.663-0.221 6.298-0.221 6.298-0.221l-2.431 1.657v4.751l10.054 0.11 3.425-0.883z" fill-rule="evenodd" stroke="#544b20" fill="#544b20"/>
    <rect id="rect595" fill-rule="evenodd" fill-opacity=".99608" ry="1.3258" height="2.6516" width="2.6516" y="130.14" x="419.51" fill="#796a3a"/>
    <rect id="rect596" fill-rule="evenodd" ry="1.3258" height="2.6516" width="2.6516" y="129.59" x="432.11" fill="#7a6b3a"/>
    <path id="path597" d="m413.55 121.3c4.198-1.694 7.181-3.056 12.374-3.535 4.898-0.516 8.692 0.184 13.037 0.994" stroke="#544b20" fill="none"/>
    <path id="path600" d="m415.87 112.35h-3.425l-4.862-5.193 2.763 0.332 3.204 1.436 2.32 3.425z" fill-rule="evenodd" stroke="#544b20" fill="#544b20"/>
    <path id="path601" d="m436.53 110.36 7.734-5.965-2.541-0.332-2.873 2.651-3.425 0.553 1.105 3.093z" fill-rule="evenodd" stroke="#544b20" fill="#544b20"/>
    <path id="path602" d="m431.97 111.46-12.123 0.451 0.11-1.326 4.42-0.442 0.552-1.767s1.326-0.11 1.326 0c0 0.111 0.994 1.657 0.994 1.657l4.309 0.773 0.412 0.654z" fill-rule="evenodd" stroke="#544b20" fill="#544b20"/>
    <path id="path603" d="m431.34 106.83-4.198 0.11-0.332-2.32 4.53 2.21z" fill-rule="evenodd" stroke="#544b20" fill="#544b20"/>
    <path id="path604" d="m424.26 104.73-0.332 2.319-4.087 0.663 4.419-2.982z" fill-rule="evenodd" stroke="#544b20" fill="#544b20"/>
    <path id="path605" d="m401.06 147.04 2.099-5.303-1.878-3.646-1.878 5.414 1.657 3.535z" fill-rule="evenodd" stroke="#544b20" fill="#544b20"/>
    <path id="path606" d="m405.37 149.81 2.541-6.298-4.861 5.082 2.32 1.216z" fill-rule="evenodd" transform="translate(-.11047 .11044)" stroke="#544b20" fill="#544b20"/>
   </g>
   <path id="path673" d="m103.35 305.55-58.07-148.45 52.68-79.85 88.34 35.07 29.41 156.08c-40.76 10.493-63.478 17.573-112.36 37.149z" stroke-opacity=".99608" fill-rule="evenodd" transform="matrix(.23818 .11495 -.11717 .23366 492.03 57.353)" stroke="#001071" stroke-width="1pt" fill="#001070"/>
   <g id="g607" stroke-width="1pt" transform="matrix(.26544 0 0 .26040 351.11 90.442)">
    <path id="path608" d="m410.94 120.56-4.063 1.016 0.156 7.5-5 1.094-3.497 6.614 2.159 2.044c0.111 0.221-1.703 4.892-1.625 4.892s1.323 1.762 1.323 1.762l1.328 4.063 3.359 0.468 0.86 4.766 5.312 0.859 4.922 3.516 0.312 2.188 5.625 0.156 3.829 1.25 13.359-1.563 1.797-2.812 0.156-3.828 7.188-0.235 0.657-6.105h3.809l-0.474-6.875 3.177 0.286-0.82-3.295-1.975-2.683-0.39-4.218-5.625-5.625-1.25-7.344s-3.594-1.641-3.594-1.719-0.234-4.922-0.234-4.922l4.062-5.703-0.39-2.265-3.75-0.079-2.813 2.344s-3.75 0.391-3.75 0.469v1.719s0.938 3.203 0.938 3.281-4.297 0-4.297 0l-0.157-5.078-6.093-3.047s-5.703 3.906-5.703 3.984-0.313 4.532-0.313 4.532l-2.734 0.781-2.813-4.219-4.922-1.875-2.656-0.156-0.078 3.281 5.156 6.797-0.468 3.984z" stroke-opacity=".99608" fill-opacity=".99608" fill-rule="evenodd" stroke="#544b20" fill="#faf703"/>
    <path id="path609" d="m449.23 148.04-1.105-4.088" stroke="#544b20" fill="none"/>
    <path id="path610" d="m452.33 141.3-1.878-2.762" stroke="#544b20" fill="none"/>
    <path id="path611" d="m400.84 138.21 5.856-0.332 1.105 5.303 1.988 1.768 0.332 9.723 1.878 0.773 0.553-3.867 4.53-0.331 0.883 7.844-1.104 0.995 0.442 1.215 5.413-0.11s1.216-2.1 1.326-2.1c0.111 0 3.094-0.331 3.094-0.221 0 0.111 1.215 2.321 1.215 2.321l0.884-2.984s2.873-1.215 2.873-1.104c0 0.11 2.32 3.756 2.32 3.756l3.977-0.552-2.43-2.32-0.995-5.083 5.524-2.983 2.21 3.757s2.099 0.11 1.989 0c-0.111-0.111-2.431-4.309-2.431-4.309v-8.839l4.199-5.745 5.855-0.663v-2.431l-5.855-5.414-1.547-7.513-3.315-1.657-0.884 0.994-3.646 0.332 3.646 5.414v3.535l1.658 0.884-0.332 9.723s-4.088 0.552-4.088 0.663c0 0.11-0.331 5.413-0.331 5.413l-2.541 2.542s-1.437 5.082-1.547 5.082c-0.111 0-2.431 3.093-2.431 3.093l-4.53 0.111s-2.651-2.541-2.651-2.652c0-0.11-0.442-3.756-0.442-3.756s-1.768-0.553-1.879-0.553c-0.11 0-0.994-4.088-0.994-4.088l-3.094-1.767-0.22-2.431-2.984-1.326s-0.331-2.21-0.442-2.32c-0.11-0.111-1.436-0.994-1.546-0.994-0.111 0-0.111-6.077-0.111-6.077l2.652-0.442-1.485-1.94-0.504-1.706v-1.768l2.21-2.21s-3.978-0.552-3.978-0.442c0 0.111-3.866 1.768-3.866 1.658 0.11 0-0.111 7.181-0.111 7.181l-4.53 1.437-3.646 5.855 1.878 1.658z" stroke-opacity=".99999" fill-rule="evenodd" stroke="#544b21" fill="#544b20"/>
    <path id="path612" d="m423.71 148.04 2.983-1.768-0.111-3.425-2.872-0.663-1.106-1.105 3.205 0.553 3.977-0.332 1.326-0.663c-0.552 1.437-0.994 1.326-1.105 1.326-0.11 0-2.209 1.105-2.209 1.105l0.11 3.315s6.85 0.883 6.74 0.883c-0.111 0 0 1.326-0.221 1.326s-7.071-1.547-7.071-1.547l-4.309 2.652 0.663-1.657z" fill-rule="evenodd" stroke="#544b20" fill="#544b20"/>
    <path id="path613" d="m440.95 127.49-3.977 3.093-2.541 4.53-1.326 0.221-3.867-5.193-4.419 0.111s-2.431 6.076-2.431 6.187c0 0.11-1.768-0.221-1.768-0.221l-4.64-5.082s-1.437-2.542-1.216-2.542 11.601 0.111 11.601 0.111l-0.11-5.524s-1.768-0.553-2.652-1.105c0.663-0.221 6.298-0.221 6.298-0.221l-2.431 1.657v4.751l10.054 0.11 3.425-0.883z" fill-rule="evenodd" stroke="#544b20" fill="#544b20"/>
    <rect id="rect614" fill-rule="evenodd" fill-opacity=".99608" ry="1.3258" height="2.6516" width="2.6516" y="130.14" x="419.51" fill="#796a3a"/>
    <rect id="rect615" fill-rule="evenodd" ry="1.3258" height="2.6516" width="2.6516" y="129.59" x="432.11" fill="#7a6b3a"/>
    <path id="path616" d="m413.55 121.3c4.198-1.694 7.181-3.056 12.374-3.535 4.898-0.516 8.692 0.184 13.037 0.994" stroke="#544b20" fill="none"/>
    <path id="path619" d="m415.87 112.35h-3.425l-4.862-5.193 2.763 0.332 3.204 1.436 2.32 3.425z" fill-rule="evenodd" stroke="#544b20" fill="#544b20"/>
    <path id="path620" d="m436.53 110.36 7.734-5.965-2.541-0.332-2.873 2.651-3.425 0.553 1.105 3.093z" fill-rule="evenodd" stroke="#544b20" fill="#544b20"/>
    <path id="path621" d="m431.97 111.46-12.123 0.451 0.11-1.326 4.42-0.442 0.552-1.767s1.326-0.11 1.326 0c0 0.111 0.994 1.657 0.994 1.657l4.309 0.773 0.412 0.654z" fill-rule="evenodd" stroke="#544b20" fill="#544b20"/>
    <path id="path622" d="m431.34 106.83-4.198 0.11-0.332-2.32 4.53 2.21z" fill-rule="evenodd" stroke="#544b20" fill="#544b20"/>
    <path id="path623" d="m424.26 104.73-0.332 2.319-4.087 0.663 4.419-2.982z" fill-rule="evenodd" stroke="#544b20" fill="#544b20"/>
    <path id="path624" d="m401.06 147.04 2.099-5.303-1.878-3.646-1.878 5.414 1.657 3.535z" fill-rule="evenodd" stroke="#544b20" fill="#544b20"/>
    <path id="path625" d="m405.37 149.81 2.541-6.298-4.861 5.082 2.32 1.216z" fill-rule="evenodd" transform="translate(-.11047 .11044)" stroke="#544b20" fill="#544b20"/>
   </g>
   <path id="path628" d="m476.9 225.82-4.136 4.931 0.318 4.136 8.59-0.159c2.757-0.663 3.446-1.644 3.977-2.784 0.848-1.405 0.265-2.174 0.477-4.056l-9.226-2.068z" stroke-opacity=".99652" fill-rule="evenodd" transform="matrix(.26544 0 0 .26040 359.68 74.414)" stroke="#a0210c" stroke-width="1pt" fill="#a0210c"/>
   <path id="path629" d="m476.58 226.14-3.5 3.34v3.818l7.636-0.159c2.757-0.663 3.127-1.167 3.658-2.306 0.848-1.406 0.584-1.379 0.796-3.261l-8.59-1.432z" stroke-opacity=".99652" fill-rule="evenodd" transform="matrix(.26544 0 0 .26040 365.26 77.563)" stroke="#a0210c" stroke-width="1pt" fill="#a0210c"/>
   <path id="path630" d="m476.9 225.98-3.977 4.136 0.159 3.181 8.113 0.318c2.757-0.663 2.332-0.53 3.181-1.988 0.848-1.405 0.584-1.697 0.796-3.579l-8.272-2.068z" stroke-opacity=".99652" fill-rule="evenodd" transform="matrix(.26544 0 0 .26040 374.08 74.829)" stroke="#a0210c" stroke-width="1pt" fill="#a0210c"/>
   <path id="path631" d="m477.85 225.51-4.613 3.976v3.977l8.59 0.796c2.757-0.663 2.969-1.485 3.659-2.466 0.848-1.405 0.424-1.538 0.636-3.42l-8.272-2.863z" stroke-opacity=".99652" fill-rule="evenodd" transform="matrix(.26544 0 0 .26040 380.12 76.9)" stroke="#a0210c" stroke-width="1pt" fill="#a0210c"/>
   <path id="path632" d="m497.1 131.02 16.225 10.976c3.05-2.579 9.395-1.016 11.88-0.301 4.462 1.187 7.607 3.88 11.504 4.596 7.128 1.826 15.668 3.087 22.136 2.371 6.469-0.715 11.902-4.161 16.677-6.666v-1.59h-3.181c-5.164 1.894-12.4 1.998-17.941 1.256s-7.034-3.274-15.305-5.71l-0.636-1.591c10.04 0.486 12.079 0.221 16.282-1.647 4.109-1.112 5.96-3.543 8.28-5.222l-0.065-1.88-3.023-0.159c-3.894 2.644-6.376 3.122-12.342 2.565-5.429-0.56-10.319-3.71-13.961-3.776-3.863 0.03-3.681-1.851-7.417-2.036-5.939-0.53-12.358 0.277-17.978 1.656-6.734 2.068-7.742 3.817-11.135 7.158z" fill-rule="evenodd" transform="matrix(.26544 0 0 .26040 359.68 74.414)" stroke="#000" stroke-width="1pt" fill="#a0210c"/>
   <path id="path633" d="m500.25 128.58c1.553 0.36 3.295 0.816 4.565 1.553 1.271 0.737 0.942 0.722 2.307 1.741-0.219-1.317-0.157-1.223-1.035-2.258-0.879-1.036-2.323-1.977-3.483-2.825l-2.354 1.789z" fill-rule="evenodd" transform="matrix(.26544 0 0 .26040 359.68 74.414)" stroke="#000" stroke-width="1pt"/>
   <path id="path634" d="m513.81 140.44c0.031-1.427-0.69-2.667-1.224-3.906-0.533-1.239-0.973-2.291-1.977-3.53 1.255 0.36 1.946 0.909 3.013 2.211 1.066 1.303 1.004 2.605 1.223 4.471l-1.035 0.754z" fill-rule="evenodd" transform="matrix(.26544 0 0 .26040 359.68 74.414)" stroke="#000" stroke-width="1pt"/>
   <path id="path635" d="m516.91 123.03c0.377 0.989 1.116 1.668 1.742 3.778 0.541 1.917 0.799 4.6 0.799 4.6-0.204-1.428 0.157-3.044-0.047-4.472-0.204-1.427-0.973-2.667-1.177-4.095l-1.317 0.189z" fill-rule="evenodd" transform="matrix(.26544 0 0 .26040 359.68 74.414)" stroke="#000" stroke-width="1pt"/>
   <path id="path636" d="m529.81 123.88 0.659 7.908 0.754-7.437-1.413-0.471z" fill-rule="evenodd" transform="matrix(.26544 0 0 .26040 359.76 74.414)" stroke="#000" stroke-width="1pt"/>
   <path id="path637" d="m526.7 140.35c0.314-1.286 0.251-2.573 0.094-3.86-0.157-1.286-0.597-2.384-1.036-3.859 1.255 1.098 1.758 2.479 2.448 3.954 0 1.474-0.376 2.76-1.506 3.765z" fill-rule="evenodd" transform="matrix(.26544 0 0 .26040 359.73 74.39)" stroke="#000" stroke-width="1pt"/>
   <path id="path638" d="m540.45 137.06c0.047 0 0.401 2.683-0.199 4.613s-1.024 2.071-2.154 3.107c1.506-1.129 2.824-1.506 3.295-2.73 0.471-1.883-0.754-4.707-0.942-4.99z" fill-rule="evenodd" transform="matrix(.26544 0 0 .26040 359.71 74.341)" stroke="#000" stroke-width="1pt"/>
   <path id="path639" d="m542.05 133.86c-0.941 0.157-1.129-3.829-1.694-5.743 0.408-0.22 0.816-0.157 1.224 0.753 0.439 0.534 0.313 3.327 0.47 4.99z" fill-rule="evenodd" transform="matrix(.26544 0 0 .26040 359.91 74.512)" stroke="#000" stroke-width="1pt"/>
   <path id="path640" d="m552.22 133.01 0.377-3.295 1.035-0.094v2.824c0 0.095-1.317 0.659-1.412 0.565z" fill-rule="evenodd" transform="matrix(.26544 0 0 .26040 359.68 74.316)" stroke="#000" stroke-width="1pt"/>
   <path id="path641" d="m551.56 141.86c0.597 1.004 1.663 2.197 1.789 3.295s-0.22 1.632-1.035 3.295l1.506 0.094c0.815-1.333 1.067-2.29 0.942-3.341-0.126-1.052-0.629-2.103-1.695-2.966l-1.507-0.377z" fill-rule="evenodd" transform="matrix(.26544 0 0 .26040 359.66 74.316)" stroke="#000" stroke-width="1pt"/>
   <path id="path642" d="m562.57 142.7 0.376 4.612 1.224-0.659-0.282-3.953h-1.318z" fill-rule="evenodd" transform="matrix(.26544 0 0 .26040 359.71 74.316)" stroke="#000" stroke-width="1pt"/>
   <path id="path643" d="m496.09 131.83c-3.672 1.083-5 3.151-6.797 4.938l-10.346-5.341c-1.678 1.419-2.324 3.446-1.517 5.521 0.807 2.074 4.053 5.321 6.361 6.926-0.578 2.865-1.43 5.027-2.439 7.54-1.125 2.825-3.54 6.394-3.61 7.54-0.138 1.312-0.558 4.123 1.367 4.872 1.926 0.749 8.118-0.519 10.184-0.38-0.336 1.127-1.14 3.098-0.866 3.944s0.829 1.128 2.51 1.177c-0.484 1.047-1.529 2.374-1.028 2.999 1.298 1.001 2.785 0.828 4.036 0.75-1.973 2.332-6.902 6.82-8.501 8.825-1.692 2.332-1.837 4.851 1.442 4.604-1.22 1.378-2.393 2.709-2.206 3.899 0.282 1.425 0.985 2.381 3.329 1.555-1.387 3.197-0.476 6.066 0.013 9.403-1.184 2.525-0.681 4.863-0.975 7.763-2.412 1.392-2.712 3.206-4.28 6.005-1.414 3.03-4.046 3.857-5.506 10.358l9.465 2.406c0.348-1.337 1.586-2.205 1.934-3.541 0.347-1.337 0.32-3.002 0.151-4.48 1.878-2.772 5.678-8.498 6.899-11.551 2.067-1.125 3.57-1.829 5.121-1.829s2.538 0.938 4.183 1.829c-0.728 2.573-2.769 5.379-2.887 8.984v9.947c-0.412 2.471-3.169 2.504-4.332 9.946l8.503 2.246c1.444-2.503 3.731-2.848 4.331-3.85l0.614-10.334c1.082-4.878 7.792-8.911 7.889-14.211 2.408-0.033 3.317 0.217 4.272-0.285 1.283-0.455 1.723-1.191 2.725-2.115 0.386 1.595 1.617 1.735 2.66 1.735 1.042 0 3.116-1.5 3.972-2.11 0.602 0.865 0.921 1.683 2.179 1.985s4.813-0.24 6.259-0.595l-6.987 11.652c-0.261 1.123 0.088 1.824-0.454 3.135-0.508 1.177-1.532 1.744-1.993 2.828l7.921 1.929 1.264-3.4c1.679-0.721 3.031-1.114 3.913-2.21s0.874-3.178 1.381-4.368c2.706-2.002 6.959-6.349 9.946-9.946 2.028 0.349 4.9 2.058 5.99 4.612 0.153 2.74 0.351 7.779-0.856 11.27l-5.134 8.182-0.582 1.342 8.082 2.935 5.134-4.011 0.2-5.721c2.579-4.642 6.269-7.179 9.786-10.106 0-0.161 0.375-6.144 0.234-6.378-0.869-0.674-1.456-0.269-1.763-1.506-0.306-1.236-0.097-4.63 0.066-5.96 0.508-0.642 1.579-1.379 1.524-1.927-1.399-1.565-0.971-5.616-0.542-8.775-0.105-3.597 4.715-7.85 5.454-9.946l0.301-3.776c-0.493-0.928-1.219-1.481-1.243-2.269-0.023-0.787 0.937-2.091 1.524-2.926l1.022-1.777-0.16-9.305c-0.286-1.005-1.135-2.572-1.937-2.733-0.803-0.16-1.98 0.759-2.876 1.77l-4.645 3.495c-2.227 0.694-4.173 0.967-8.088-0.027l-5.972 0.121c-3.136 0.893-4.772 1.037-7.721-0.274l-3.536 0.058c-1.102 0.612-2.627 1.597-3.823 1.833-1.195 0.235-2.813 0.283-4.009-0.091-9.128 0.626-6.861 1.298-9.47 1.877-2.095-0.405-1.423-1.466-9.566-1.544l-3.228-0.963c-4.073-2.751-7.209-7.143-9.922-12.192 8.484-2.477 12.044-5.049 14.618-10.949l-11.997 0.457-16.965-11.491z" fill-rule="evenodd" transform="matrix(.26544 0 0 .26040 359.68 74.414)" stroke="#544b20" stroke-width="1pt" fill="#dc9103"/>
   <path id="path644" d="m491.65 147.82 3.397 1.467c0.415 0.503 1.219 1.083 1.751 1.117 0.531 0.033 0.984-0.519 1.438-0.915l3.127-1.669c-1.853-0.273-2.418-1.445-4.388-1.445s-3.355 1.054-5.325 1.445z" fill-rule="evenodd" transform="matrix(.26544 0 0 .26040 359.74 74.18)" stroke="#000" stroke-width="1pt"/>
   <path id="path645" d="m506.77 147.78c1.104 0.664 3.107 1.992 4.758 1.992 1.807-0.156 1.778-1.445 4.366-2.304l3.796-3.128c-2.29 0.026-7.237 0.483-9.956 1.33-2.29 0.612-2.822 1.537-2.964 2.11z" fill-rule="evenodd" transform="matrix(.26544 0 0 .26040 359.68 74.414)" stroke="#000" stroke-width="1pt"/>
   <path id="path646" d="m497.93 187.57c-0.001 0.286-0.471 0.495-0.707 0.156-0.291-4.058-1.168-6.905-2.396-10.065 1.386 2.404 2.537 6.293 3.103 9.909z" fill-rule="evenodd" transform="matrix(.26544 0 0 .26040 359.72 74.465)" stroke="#000" stroke-width="1pt"/>
   <path id="path647" d="m507.27 204.53c-1.544 0.16-2.152-0.072-3.696 0.088-0.17-4.083-0.185-8.752-0.16-11.663 0.589 0.074 2.311 1.906 3.33 4.793 0.266 2.13 0.65 4.534 0.526 6.782z" fill-rule="evenodd" transform="matrix(.26544 0 0 .26040 359.82 74.384)" stroke="#000" stroke-width="1pt"/>
   <path id="path648" d="m518.03 188.2c0.696 0.195 1.666 0.196 1.893-0.273 0.295-0.87-0.583-1.818-0.912-2.883-1.145-2.287-1.78-4.768-2.259-5.843-0.504-0.324-1.047-0.295-0.927 0.241 0.657 2.034 1.783 7.974 2.205 8.758z" fill-rule="evenodd" transform="matrix(.26544 0 0 .26040 359.68 74.414)" stroke="#000" stroke-width="1pt"/>
   <path id="path649" d="m528.98 186.97c0.075 0.493-1.569-0.224-1.846-0.785-0.024-1.089-2.237-9.054-1.871-9.362 0.465-0.232 1.907 2.662 2.372 3.994 0.109 0.788 1.079 3.685 1.345 6.153z" fill-rule="evenodd" transform="matrix(.26544 0 0 .26040 359.68 74.414)" stroke="#000" stroke-width="1pt"/>
   <path id="path650" d="m527.42 203.38c-0.039 0.557 1.25 0.099 1.758-0.32 1.473-2.347 3.298-4.811 3.834-5.751 0.323-1.005 1.935-7.4 1.438-7.349-0.176-0.185-1.578 3.172-3.388 6.485-1.883 3.374-3.662 6.612-3.642 6.935z" fill-rule="evenodd" transform="matrix(.26544 0 0 .26040 359.68 74.414)" stroke="#000" stroke-width="1pt"/>
   <path id="path651" d="m538.4 199.95c-0.536 0.263 1.076-5.529 1.204-6.555 0.295-1.622 0.706-4.533 1.352-8.303 0.789 5.265-0.142 10.921-2.556 14.858z" fill-rule="evenodd" transform="matrix(.26544 0 0 .26040 359.68 74.414)" stroke="#000" stroke-width="1pt"/>
   <path id="path652" d="m544.98 182.22c-0.352 0.313-5.066-7.63-4.633-7.669 0.121-0.352 3.951 4.971 4.498 5.908 0.228 0.444 0.454 1.122 0.135 1.761z" fill-rule="evenodd" transform="matrix(.26544 0 0 .26040 359.68 74.414)" stroke="#000" stroke-width="1pt"/>
   <path id="path653" d="m556.01 188.12c-0.352-0.271-0.211-2.807-0.909-5.592-0.697-2.785-1.883-5.469-1.648-6.231 0.22-0.401 0.987-0.216 1.598 0.32 0.291 1.515 0.972 7.328 1.771 11.109-0.011 0.366-0.411 0.615-0.812 0.394z" fill-rule="evenodd" transform="matrix(.26544 0 0 .26040 359.68 74.414)" stroke="#000" stroke-width="1pt"/>
   <path id="path654" d="m563.72 181.06c-0.377-0.409 1.024 2.727 2.044 6.453 1.02 3.727 1.542 10.31 1.79 9.842 0.701-0.474 0.582-1.065 1.674-1.305 1.091-0.239 5.152 0.146 4.916-0.132-2.512-2.281-4.829-4.172-6.56-6.648-1.73-2.476-2.875-5.734-3.864-8.21z" fill-rule="evenodd" transform="matrix(.26544 0 0 .26040 359.68 74.414)" stroke="#000" stroke-width="1pt"/>
   <path id="path655" d="m573.22 215.04c-0.788 0.579-2.279 1.04-2.715 0.799-2.395-5.077-3.736-8.396-7.069-13.825-0.859-1.289-2.997-1.09-2.876-1.598 0.08-0.586 1.201-0.351 1.926-1.201 0.725-0.849 0.82-1.924 1.269-2.314-0.98 2.343 1.594 5.936 3.036 8.787 0.959 0.266 1.722 0.26 2.173 0.838 0.107 0.274-1.037 0.468-0.891 1.445l2.432 4.992c0.792 0.606 2.013 0.94 3.195 1.118 0.309 0.28-0.242 0.678-0.48 0.959z" fill-rule="evenodd" transform="matrix(.26544 0 0 .26040 359.68 74.414)" stroke="#000" stroke-width="1pt"/>
   <path id="path674" d="m103.35 305.55-54.018-150.12 52.498-82.94l87.297 39.844 26.314 156.26c-40.492 10.303-63.322 16.657-112.09 36.959z" stroke-opacity=".99608" transform="matrix(.21652 .15064 -.15355 .21241 536.74 64.477)" stroke-width="1pt" fill="none"/>
   <path id="path656" d="m578.2 170.66c1.503 0.085 2.861 0.219 3.307-0.56 0.919-1.929 1.452-3.519 0.833-4.773-2.356 0.193-4.136 1.299-5.098 3.416 0.031 0.735 0.205 1.278 0.958 1.917z" fill-rule="evenodd" transform="matrix(.26544 0 0 .26040 359.68 74.414)" stroke="#000" stroke-width="1pt"/>
   <path id="path681" d="m602.95 169.21c23.293 5.016 44.856 10.724 66.419 17.815 21.562 7.091 42.087 15.566 62.958 24.733l-34.939 71.953c-19.502-7.565-38.758-13.663-58.015-20.004-19.256-6.342-38.023-11.951-57.524-18.048l21.101-76.449z" fill-rule="evenodd" transform="matrix(.26544 0 0 .26040 359.68 74.414)" stroke="#fdfcfc" stroke-width="1pt" fill="#fdfcfc"/>
   <path id="path682" d="m598.31 186.21s32.532 7.399 64.056 17.734c31.524 10.334 62.283 23.603 62.161 23.603-0.245 0-19.814 41.095-19.814 41.095-18.997-7.705-38.974-14.922-58.705-21.404-19.732-6.482-39.463-12.719-59.684-17.489l11.986-43.539z" fill-rule="evenodd" transform="matrix(.26544 0 0 .26040 359.68 74.414)" stroke="#e6151e" stroke-width="1pt" fill="#e6151e"/>
   <path id="path657" d="m601.01 206.31c3.2-1.822 5.367-2.314 7.09-5.317l11.52 0.001 0.149 4.282c2.831 1.379 4.48 2.906 7.311 4.284 2.831 1.379 6.844 2.609 9.675 3.988l24.814 2.216c3.323 0.541 8.124 1.969 11.004 3.692 2.88 1.724 4.727 3.89 6.278 6.647 5.095 1.822 10.192 2.905 15.435 3.693 5.244 0.787 11.816 1.132 16.912 1.329 2.511 0.887 2.511 2.216 1.329 3.545 0 0-2.807 3.877-10.469 3.914s-16.34-4.357-20.106-3.766c0.148 2.363 4.136 7.238 8.715 9.158l-0.147 11.224-2.069 1.921-2.215-1.477c1.773-2.658 1.181-5.761 0.443-8.419-1.699-2.511-1.92-3.545-5.095-3.692-3.767-0.74-6.5-1.774-11.3-5.171l-1.773 0.296c-1.034 1.871-2.068 3.151-4.431 4.283l-4.874-0.295s-11.226-2.511-11.226-2.659c0-0.147-0.148-1.772 0.148-1.92 0.295-0.148 3.84-0.147 4.135-0.147 2.364 0.738 7.386 0.738 7.386 0.738l-0.148-4.284 7.533-0.443c-1.526-5.317-2.019-8.715-9.01-9.896l-21.861 0.591 0.296 3.102c-5.465-0.739-15.361-0.871-20.416 0.836-2.954 0.296-7.205 1.822-9.125 1.822l-2.216-0.59c-1.477-0.443-1.477-0.886-0.886-2.216 9.453-0.739 10.931-1.477 13.737-2.806 0.148-0.886-1.034-2.807-1.477-2.955-5.908-0.295-10.635 0.148-12.259-0.147-2.511-0.739-5.909-2.068-5.909-2.216s-0.443-2.363-0.295-2.363c0.147 0 3.841 1.034 3.987 1.034 3.989 0.738 10.931 0.443 12.556-0.443l0.148-3.25c-0.148-1.477-1.182-2.806-1.478-2.954-0.295-0.148-6.499-0.886-8.715-0.886-3.594-0.64-3.052-2.462-3.101-4.284z" stroke-opacity=".99608" fill-rule="evenodd" transform="matrix(.26544 0 0 .26040 359.68 74.414)" stroke="#010001" stroke-width="1pt"/>
   <path id="path658" d="m648.72 232.6c3.348 1.083 5.81 1.427 10.783 1.772l7.533-0.443c-1.526-5.317-2.019-8.715-9.01-9.896l-21.861 0.591 0.296 3.102c6.647 2.51 9.896 3.889 12.259 4.874z" stroke-opacity=".99608" fill-rule="evenodd" fill-opacity=".99608" transform="matrix(.26544 0 0 .26040 359.68 74.414)" stroke="#010001" stroke-width="1pt" fill="#fdfdfd"/>
   <path id="path679" d="m101.18 306.6-63.57-141.57 47.267-83.313 91.45 34.667 40.201 154.53c-42.015 10.284-68.887 19.038-115.35 35.686z" fill-rule="evenodd" fill-opacity=".99608" transform="matrix(.26185 .042682 -.043508 .25688 403.49 61.862)" stroke="#011171" stroke-width="1pt" fill="#011171"/>
   <path id="path563" d="m78.281 151.27 13.75 12.344-3.9062 19.844 19.063-6.719 14.062 12.344 3.125-18.281 15.625-5.157-11.875-13.125 3.906-18.124s-18.75 5.624-18.75 5.468-12.499-12.187-12.656-12.031c-0.156 0.156-4.0625 17.187-4.0625 17.187l-18.281 6.25z" stroke-opacity=".99608" fill-rule="evenodd" fill-opacity=".99608" transform="matrix(.26544 0 0 .26040 359.68 74.414)" stroke="#fdc605" stroke-width="1pt" fill="#fbfd10"/>
   <path id="path565" d="m78.594 151.42 61.25 14.064-15.782 5.468-14.218-11.719s11.562 29.375 11.406 29.219-13.437-11.407-13.906-11.875l2.344-17.344s-21.25 24.063-21.25 23.907c0-0.157 4.0625-19.688 4.0625-19.688l-13.898-12.03z" fill-rule="evenodd" transform="matrix(.26544 0 0 .26040 359.68 74.414)" stroke-width="1pt" fill="#ffc500"/>
   <path id="path566" d="m96.406 145.02 13.594 13.28l-9.375-30.781-4.2188 17.499z" fill-rule="evenodd" transform="matrix(.26544 0 0 .26040 359.68 74.414)" stroke-width="1pt" fill="#ffc500"/>
   <path id="path567" d="m113.13 140.02c0.156 0.156-3.282 17.968-3.126 17.968 1.562-1.875 22.031-23.594 21.876-23.594-0.157 0-18.438 5.782-18.75 5.626z" fill-rule="evenodd" transform="matrix(.26544 0 0 .26040 359.68 74.414)" stroke-width="1pt" fill="#ffc500"/>
   <path id="path666" d="m78.281 151.27 13.75 12.344-3.9062 19.844 19.063-6.719 14.062 12.344 3.125-18.281 15.625-5.157-11.875-13.125 3.906-18.124s-18.75 5.624-18.75 5.468-12.499-12.187-12.656-12.031c-0.156 0.156-4.0625 17.187-4.0625 17.187l-18.281 6.25z" stroke-opacity=".99608" fill-rule="evenodd" fill-opacity=".99608" transform="matrix(.20620 .16399 -.16716 .20228 546.72 62.466)" stroke="#fdc605" stroke-width="1pt" fill="#fbfd10"/>
   <path id="path667" d="m78.594 151.42 61.25 14.064-15.782 5.468-14.218-11.719s11.562 29.375 11.406 29.219-13.437-11.407-13.906-11.875l2.344-17.344s-21.25 24.063-21.25 23.907c0-0.157 4.0625-19.688 4.0625-19.688l-13.898-12.03z" fill-rule="evenodd" transform="matrix(.20620 .16399 -.16716 .20228 546.72 62.466)" stroke-width="1pt" fill="#ffc500"/>
   <path id="path668" d="m96.406 145.02 13.594 13.28l-9.375-30.781-4.2188 17.499z" fill-rule="evenodd" transform="matrix(.20620 .16399 -.16716 .20228 546.72 62.466)" stroke-width="1pt" fill="#fdc605"/>
   <path id="path669" d="m113.13 140.02c0.156 0.156-3.282 17.968-3.126 17.968 1.562-1.875 22.031-23.594 21.876-23.594-0.157 0-18.438 5.782-18.75 5.626z" fill-rule="evenodd" transform="matrix(.20620 .16399 -.16716 .20228 546.72 62.466)" stroke-width="1pt" fill="#fdc605"/>
   <path id="path675" d="m175.37 121.34c21.456-10.454 45.538-18.61 70.935-22.167 24.41-3.5582 48.84-3.8664 73.908-3.8117 0 0 3.284 39.132 3.284 39.461-19.704 0.164-34.388-0.209-69.147 4.374-34.564 4.886-48.802 9.073-69.82 17.283l-9.16-35.14z" fill-rule="evenodd" transform="matrix(.26544 0 0 .26040 359.68 74.414)" stroke="#e6141d" stroke-width="1pt" fill="#e6141d"/>
   <path id="path677" d="m193.74 190.62c-0.329 0 10.855 41.397 10.855 41.397 20.635-5.309 41.598-9.305 62.561-12.315s43.257-4.725 63.563-6.093l-3.595-40.376c-21.401-1.314-45.792-1.314-67.85 1.641-22.058 2.956-43.476 8.193-65.534 15.746z" fill-rule="evenodd" fill-opacity=".99608" transform="matrix(.26544 0 0 .26040 359.68 74.414)" stroke="#e6141d" stroke-width="1pt" fill="#e6141d"/>
   <path id="path688" d="m95.246 318.45h598.87v391.42c-15.22 152.44-158.96 266.38-290.3 265.51-141.79 6.31-298.57-111.99-309.88-266.82l1.3048-390.12z" fill-rule="evenodd" transform="matrix(.26544 0 0 .26040 359.68 74.414)" stroke="#e5141d" stroke-width="4" fill="#fff"/>
   <path id="path689" d="m95.246 318.45h598.87v391.42c-15.22 152.44-158.96 266.38-290.3 265.51-141.79 6.31-298.57-111.99-309.88-266.82l1.3048-390.12z" fill-rule="evenodd" transform="matrix(.25438 0 0 .24955 364.04 81.437)" stroke="#e5141d" stroke-width="4" fill="#d61517"/>
   <rect id="rect693" stroke-width="1pt" fill-rule="evenodd" ry="0" transform="matrix(.26544 0 0 .26040 359.68 74.414)" width="110.6" y="334.03" x="452.68" height="122.35" fill="#fff"/>
   <rect id="rect694" stroke-width="1pt" fill-rule="evenodd" ry="0" transform="matrix(.26544 0 0 .26040 359.39 74.414)" width="110.6" y="334.03" x="225.6" height="122.35" fill="#fff"/>
   <rect id="rect695" stroke-width="1pt" fill-rule="evenodd" ry="0" transform="matrix(.26544 0 0 .26040 359.68 74.414)" width="112.08" y="460.43" x="109.11" height="119.42" fill="#fff"/>
   <rect id="rect696" stroke-width="1pt" fill-rule="evenodd" ry="0" transform="matrix(.26544 0 0 .26040 359.68 74.414)" width="109.49" y="460.43" x="339.51" height="119.42" fill="#fff"/>
   <rect id="rect697" stroke-width="1pt" fill-rule="evenodd" ry="0" transform="matrix(.26544 0 0 .26040 359.68 74.414)" width="112.83" y="460.43" x="566.58" height="119.42" fill="#fff"/>
   <rect id="rect698" stroke-width="1pt" fill-rule="evenodd" ry="0" transform="matrix(.26544 0 0 .26040 359.68 74.414)" width="110.6" y="583.52" x="452.68" height="121.25" fill="#fff"/>
   <rect id="rect699" stroke-width="1pt" fill-rule="evenodd" ry="0" transform="matrix(.26544 0 0 .26040 359.68 74.414)" width="110.6" y="583.52" x="224.5" height="121.25" fill="#fff"/>
   <rect id="rect700" stroke-width="1pt" fill-rule="evenodd" ry="0" transform="matrix(.26544 0 0 .26040 359.68 74.319)" width="109.49" y="708.81" x="339.51" height="121.25" fill="#fff"/>
   <path id="path705" d="m567.28 709.5 0.028 119.12 67.341 0.089c30.721-45.75 41.242-90.313 44.131-119.18-0.498 0-111.06-0.054-111.5-0.026z" fill-rule="evenodd" transform="matrix(.26544 0 0 .26040 359.68 74.414)" stroke="#fff" stroke-width="1pt" fill="#fff"/>
   <path id="path706" d="m453.36 834.44 0.017 119.54c47.9-10.147 86.914-33.282 109.25-50.264l0.009-69.323-109.27 0.048z" fill-rule="evenodd" transform="matrix(.26544 0 0 .26040 359.68 74.414)" stroke="#fff" stroke-width="1pt" fill="#fff"/>
   <path id="path708" d="m225.34 834.21-0.158 67.544c37.624 27.974 80.592 44.345 109.21 50.64l0.019-118.14-109.07-0.044z" fill-rule="evenodd" transform="matrix(.26544 0 0 .26040 359.68 74.414)" stroke="#fff" stroke-width="1pt" fill="#fff"/>
   <path id="path710" d="m109.32 709.34c3.572 46.8 23.131 90.209 44.144 119.57l67.057-0.115 0.012-119.5-111.21 0.051z" fill-rule="evenodd" transform="matrix(.26544 0 0 .26040 359.68 74.414)" stroke="#fff" stroke-width="1pt" fill="#fff"/>
  </g>
 </g>
</svg>
