<svg xmlns="http://www.w3.org/2000/svg" xmlns:xlink="http://www.w3.org/1999/xlink" id="flag-icon-css-hr" width="512" height="512">
  <path fill="#171796" d="M0 0h512v512H0z"/>
  <path fill="#fff" d="M0 0h512v341.33H0z"/>
  <path fill="red" d="M0 0h512v170.67H0z"/>
  <path fill="red" d="M256.03 388.43c54.74 0 99.53-44.8 99.53-99.53V170.63H156.5V288.9c0 54.74 44.79 99.53 99.53 99.53z"/>
  <path fill="#fff" d="M256.03 386.83c53.7 0 97.63-43.94 97.63-97.63V172.54H158.4V289.2c0 53.7 43.93 97.63 97.63 97.63z"/>
  <g fill="red">
    <path d="M199.6 176.21h-37.56v41.28h37.57zm0 82.56h37.58V217.5h-37.57zm-37.56 30.2c0 3.75.23 7.45.66 11.08h36.9v-41.28h-37.56v30.2zm112.72-30.2h-37.58v41.28h37.58zm0 82.56h37.57v-41.28h-37.58zm37.57 22.58a95.14 95.14 0 0 0 21.45-22.58h-21.45v22.58zm-112.72-22.58h37.57v-41.28h-37.57zm-21.49 0a95.11 95.11 0 0 0 21.5 22.6v-22.6h-21.5zm84.4 41.28a93.4 93.4 0 0 0 12.23-1.67v-39.61h-37.57v39.62a92.86 92.86 0 0 0 12.2 1.66c4.38.27 8.76.25 13.13 0zM349.2 300.05c.43-3.65.67-7.36.67-11.12v-30.15h-37.54v41.28h36.87zm-74.44-41.28h37.57V217.5h-37.58zm0-82.56h-37.58v41.28h37.58zm75.1 41.28v-41.28h-37.53v41.28z"/>
  </g>
  <path fill="#fff" d="M351.97 169.42l23.3-52.81-17.75-28.66-29.4 10.88-20.65-23.6-27.2 15.6L256 70.95l-24.26 19.86-27.2-15.59-20.65 23.6-29.41-10.88-17.75 28.66L160 169.43a232.26 232.26 0 0 1 96-20.66c34.17 0 66.66 7.39 95.97 20.65z"/>
  <path fill="#0093dd" d="M184.54 101.16l-.04.05-29.16-10.8-16.32 26.36 6.25 14.2 15.84 35.96a234.31 234.31 0 0 1 36.88-12.76l-13.45-53z"/>
  <path fill="#fff" stroke="#000" stroke-width=".3" d="M182.86 127.22a14.14 14.14 0 0 1 1.64 6.61c0 7.85-6.4 14.26-14.26 14.26a14.3 14.3 0 0 1-13.99-11.53 14.34 14.34 0 0 0 12.48 7.3 14.35 14.35 0 0 0 14.13-16.64z"/>
  <path d="M169.8 107.5l-.05.23-1 5.12 3.93 3.43.18.16-.22.07-4.93 1.7-1.01 5.12-.05.23-.18-.16-3.93-3.41-4.93 1.68-.23.08.05-.24 1-5.11-3.93-3.43-.18-.16.23-.08 4.92-1.7 1.01-5.11.05-.24.18.16 3.93 3.42 4.93-1.68z"/>
  <path fill="#f7db17" d="M163.88 114.76l3.68 3.21 4.6-1.58zm.03-.16l8.28 1.62-3.66-3.2zm-8.89-1.74l8.28 1.62-3.68-3.2zm8.25 1.78l-8.28-1.62 3.66 3.2zm.46-.3l5.55-6.37-4.61 1.57zm-5.95 6.83l5.54-6.37-4.61 1.59zm5.67-6.26l-5.55 6.36 4.61-1.57zm5.95-6.83l-5.54 6.36 4.61-1.58zm-5.99 6.27l-2.74-7.98-.94 4.78zm2.94 8.58l-2.74-7.99-.94 4.8zm-2.58-8.04l2.74 7.98.94-4.77zm-2.94-8.57l2.74 7.98.93-4.79z"/>
  <path fill="#171796" d="M232 93.23l-.05.04-26.98-15.46-20.43 23.35 13.45 53a234.43 234.43 0 0 1 38.53-6.43L232 93.23z"/>
  <path fill="red" d="M194.65 141.01a247.73 247.73 0 0 1 40.75-6.8l-1.15-13.78a261.92 261.92 0 0 0-43 7.18l3.4 13.4zm-6.76-26.64a275.15 275.15 0 0 1 45.23-7.55L232 93.3a288.77 288.77 0 0 0-47.45 7.92l3.34 13.15z"/>
  <g transform="translate(-256) scale(.00253)">
    <path fill="#0093dd" d="M212105 36890l-23 13-9517-7794-9497 7778 1788 21560c2543-210 5113-322 7709-322 2608 0 5190 113 7744 325l1795-21560z"/>
    <g id="a">
      <path d="M202545 46585c-18-2-44 10-69 45-186 250-359 469-545 720-195 61-242 180-167 348-261-26-291 193-302 432-250-379-522-482-814-307-11-230-187-338-439-392-180-10-319-65-436-145-60-42-110-64-170-106-126-88-226-5-172 74 267 434 535 868 802 1302-14 80 6 151 88 204 47 133 93 265 140 397-11 38-21 75-32 113-221-105-443-118-664-133-170-8-287-50-361-137-54-63-91-26-92 82-3 534 162 1014 599 1492-231 4-462 11-694 21-79 6-95 39-73 104 126 304 339 579 822 766-208 112-327 285-357 520-9 224-75 382-212 455-60 32-81 65-24 106 253 185 565 193 895 112-157 270-226 553-198 850 208 56 412 15 614-52-29 61-44 175-52 309-7 115-41 229-104 343-32 33-65 84 4 102 336 91 648 52 915-47 0 243 2 487 76 727 18 58 70 102 125 26 155-214 322-396 527-517 31 90 75 168 156 215 96 55 147 170 153 343 0 30-2 60 35 90 149 7 514-380 589-597 206 121 284 246 439 461 55 76 99 29 128-25 62-243 67-481 66-724 267 99 579 138 915 47 69-19 36-70 4-102-62-114-105-250-113-365-9-133-14-226-43-287 202 68 405 108 614 52 29-297-53-579-211-850 330 80 655 73 908-112 57-41 35-74-24-106-136-73-203-231-212-455-30-235-149-409-357-520 483-187 696-463 822-766 22-66 6-99-73-104-231-10-480-24-711-27 437-478 606-961 604-1495-1-108-38-146-92-82-74 87-179 137-348 146-222 15-435 24-656 128-11-38-21-75-32-113 46-132 106-260 153-393 82-53 102-123 88-204 267-434 513-868 781-1302 54-79-46-162-171-74-60 42-110 64-170 106-117 80-257 134-437 145-251 54-417 167-428 397-293-175-564-73-814 307-11-239-41-457-302-432 75-168 17-291-178-352-186-250-458-470-644-720-31-35-51-47-69-45z"/>
      <g fill="#f7db17">
        <path d="M205075 47978c-51-26-124 17-162 95s-33 170 19 196c40 20 84-6 119-56l22-36c2-3 4-6 5-9 38-78 49-163-2-188zm-5008 0c52-26 124 17 162 95s39 165-13 191-103-24-141-102-60-158-9-184zm4539 905c-32 0-59 27-59 59s26 59 59 59 59-26 59-59c0-32-26-59-59-59zm-4032 0c-32 0-59 26-59 59 0 32 26 59 59 59s59-26 59-59-26-59-59-59zm4294-304c-754-91-1506-133-2260-133s-1509 41-2269 115c-26 8-21 90 14 86 756-73 1507-113 2256-113 743 0 1485 40 2228 129 39 4 54-80 32-84z"/>
        <path d="M200319 48495c768-75 1530-117 2289-116 754 0 1507 42 2261 133l111-184c-32 10-62 9-90-5-76-38-92-161-36-274 56-114 164-175 240-138 39 19 62 62 68 114l446-739c-204 130-328 214-581 252-281 41-409 139-368 307 38 156-57 133-201 54-314-171-541 71-652 353-73 186-159 181-168-13-4-70 0-131-7-200-21-223-89-286-216-224-161 78-175 25-137-58 28-60 86-128 66-221-9-67-66-92-151-98-182-244-467-483-649-727-182 244-374 483-556 727-86 5-142 30-152 98-20 93 52 157 80 217 38 82 23 135-137 57-127-61-186-3-207 220-7 69-10 139-13 209-9 194-95 199-168 13-111-282-352-524-667-353-145 79-203 102-182-54 23-172-107-266-388-307-253-37-377-122-581-252l419 682c12-25 29-45 53-57 76-38 184 24 240 138 56 113 40 237-36 274-10 5-21 8-32 10l100 163zm4389 911c-7 3-7 4-24 11-46 19-80 66-134 124-57 60-128 125-211 188-12 10-25 19-44-6s-7-35 6-44c80-62 149-124 204-182 30-32 56-63 77-92-95-11-190-21-284-30-79 24-157 55-222 95-59 35-107 77-137 125-8 14-16 27-44 11-27-16-19-30-11-44 35-58 91-107 158-147 33-20 69-38 106-54-107-9-214-18-321-25-22 13-42 29-61 47-20 19-39 42-56 67-9 13-18 26-44 8s-18-31-8-44c19-29 41-54 64-77l9-9c-80-5-161-10-241-14-2 2-5 5-8 7-21 18-40 38-55 59s-28 43-38 67c-6 15-12 29-41 18-29-12-23-26-17-41 12-29 27-55 45-81 8-11 18-22 27-33-115-5-230-9-344-12-4 5-9 8-14 11-25 15-47 32-66 51s-35 40-48 63c-8 14-16 28-43 12-28-16-20-29-12-43 16-28 35-54 59-77 7-7 14-13 21-19-122-2-244-4-365-4-120 0-240 1-360 3 8 7 15 13 22 20 23 23 42 49 59 77 8 14 16 27-12 43s-35 2-44-12c-13-23-29-44-48-63s-41-36-66-51c-6-3-12-7-15-12-115 2-230 6-345 11 11 11 20 23 29 35 19 25 33 52 45 81 6 15 12 29-17 41s-35-3-41-18c-9-24-22-46-38-67-15-21-34-41-55-59-4-3-7-6-10-10-81 4-162 8-243 13 4 4 9 8 13 12 24 23 45 48 64 77 9 13 18 26-8 44s-35 5-44-8c-18-26-36-48-56-67s-41-35-64-49c-1-1-3-2-5-3-110 7-220 14-330 23 43 18 85 38 122 61 67 40 124 89 158 147 8 14 16 27-11 44-27 16-35 3-44-11-29-48-78-90-137-125-72-44-159-77-246-102h-2c-90 7-179 15-268 24 22 33 51 68 86 106 55 58 124 120 204 182 13 9 25 19 6 44s-32 15-44 6c-83-64-155-128-211-188-37-38-99-111-135-140-196-90-354-127-575-147-153-14-318-9-458-79 36 85 75 164 126 229 53 68 120 121 209 147 8 2 21 16 22 25 28 157 84 286 169 386 52 60 114 110 188 149-75-81-132-166-172-251-67-142-90-286-77-420 1-16 3-32 34-29 32 3 30 19 29 35-11 123 9 256 72 387 56 118 159 237 291 346 24 19 0 63-29 55-154-44-290-123-383-231-89-104-149-237-180-397-94-32-165-90-222-164-47-60-85-131-118-205 28 428 182 801 456 1137 61 75 165 182 255 216 92 35 95 100-20 101-34 1-69 1-105 1 84 31 164 66 233 105 127 73 217 162 224 273 1 16 2 32-29 34-32 2-33-14-34-29-6-86-82-160-192-223-113-65-259-117-402-160-154 0-312-1-459 3 39 28 80 57 131 84 82 44 188 86 343 122 89 21 166 52 233 91 71 42 130 93 177 150 10 12 20 25-5 45s-34 8-45-5c-42-52-95-98-159-135-61-36-133-64-216-84-161-38-272-81-358-128-75-40-131-82-184-123 180 393 450 573 835 689 23 7 43 13 61 19 3 1 6 1 9 2 86 21 175 40 266 55 92 15 166 28 261 37 16 1 32 3 29 34-3 32-19 30-34 29-99-9-174-22-266-38-58-10-115-21-171-33-26 6-64 9-107 12-232 14-420 225-435 494 0 5 0 11-1 16 88-80 179-157 273-212 117-68 239-103 364-69 15 4 31 8 22 39-8 31-23 27-39 22-106-28-212 3-316 63-108 63-213 158-315 253-24 147-82 285-205 377 61 34 104 65 163 45 86-39 172-78 261-108 91-31 184-52 282-57 16-1 32-1 33 31s-14 32-31 33c-91 4-179 24-264 53-75 26-149 58-222 91 221 47 460-1 667-79 60-22 105-42 133-41 51-30 112-53 172-79 66-28 132-51 182-57 16-2 32-4 35 28 4 32-12 33-28 35-112 13-127 21-222 79 0 21-66 57-126 96-36 24-70 52-87 67-95 86-144 181-188 287-29 70-52 145-68 224 55-108 121-211 201-303 94-108 208-201 345-265 14-7 29-13 42 15 13 29-1 35-15 42-129 60-236 147-324 250-90 103-161 222-219 345-31 64-8 1-42 86 110-122 212-224 323-307 132-100 283-157 418-133 15 3 31 6 26 37s-21 28-37 26c-116-21-250 32-369 121-121 92-244 223-366 361 184 26 366-26 542-85 91-30 183-135 239-152 19-24 38-46 57-67 33-37 67-71 102-100 12-10 24-20 45 4s8 34-4 45c-33 28-65 60-96 94-32 35-62 73-92 113-6 8-13 17-24 16-60 70-151 162-172 240-57 210-25 370-122 576 71-38 128-81 175-134 53-60 94-135 128-230 37-104 95-195 167-270 75-77 165-136 261-172 15-5 30-11 41 19s-4 35-19 41c-87 32-169 86-238 157-66 68-119 151-153 247-37 102-81 183-141 250-44 50-95 91-156 127 52-3 78-10 121-7 79-6 211-66 279-119 66-51 116-120 154-206 6-15 13-29 42-16s23 27 16 42c-42 96-99 174-173 231-56 43-121 75-196 93 161-5 311-42 467-100 65-24 87-168 127-208 32-58 66-112 105-158 47-56 101-101 164-127 15-6 29-12 41 18 12 29-3 35-17 41-52 21-98 60-139 108-36 42-68 93-98 147 10 73-51 228-53 305-7 205-2 409 53 612 53-71 107-134 162-192 0-5 0-10 1-15 18-106 33-219 40-332 7-112 7-223-6-329-2-16-4-32 27-35 32-4 34 12 35 28 14 111 14 226 7 340-6 90-16 180-30 269 54-51 53-51 77-103 37-80 59-159 67-237 9-80 5-157-13-230-4-15-7-31 24-38s35 8 38 24c19 80 25 165 14 252-8 65-24 132-49 199 56-42 114-82 178-122-4-75-5-153-3-227 2-68 7-134 18-190 4-20 7-40 47-33s37 27 33 48c-9 50-14 111-16 177-2 78 0 162 4 243 5 82 49 185 125 230 103 62 158 163 186 274 16-145 17-280 3-400-17-143-55-267-114-368-8-14-16-27 12-44 27-16 35-2 43 12 63 110 104 241 122 393 17 146 13 310-13 488 102-82 381-258 352-594-7-27-16-52-28-75-7-14-14-28 14-42s35 0 42 14c17 33 30 69 39 110 5 24 8 49 11 76 13-7 45-43 51-39 24 16 58 38 80 54-21-60-35-120-42-178-10-87-5-172 14-252 4-15 7-31 38-24s27 23 24 38c-18 73-22 151-13 230 9 77 31 157 67 237 4 8 8 16 5 25 24 21 47 42 70 65-13-84-22-170-28-255-8-115-7-230 7-341 2-16 4-32 35-28s29 20 27 35c-13 106-13 217-6 329 7 113 22 225 40 332 1 2 1 5 1 7 54 59 95 120 152 196 55-203 73-407 66-612-2-76-69-227-65-302-30-55-63-107-100-151-41-49-87-87-139-108-15-6-29-12-18-41 12-29 27-24 41-18 62 26 117 71 164 127 38 45 72 98 103 154 57 7 78 179 143 212 154 57 298 94 453 100-75-19-140-50-195-93-74-57-131-135-173-231-6-15-13-29 16-42s35 2 42 16c38 86 88 156 154 206 85 66 289 124 400 127-61-37-113-78-157-128-59-67-104-148-141-250-34-95-87-179-153-247-68-71-150-124-238-157-15-6-29-11-19-41 11-29 26-24 41-19 96 36 186 94 261 172 72 74 130 166 167 270 34 95 75 169 128 230 47 54 105 98 177 135-98-207-66-367-122-577-35-129-232-277-193-320 45-51 133 88 248 127 175 59 357 111 540 85-122-138-244-269-366-361-119-90-237-140-352-120-16 3-31 6-37-26-5-31 10-34 26-37 135-24 269 32 401 132 111 84 201 175 311 298-18-47 0-14-30-77-59-123-130-241-220-345-89-102-196-189-324-250-14-7-28-13-15-42 13-28 28-22 42-15 137 65 251 157 345 265 81 93 147 198 203 307-15-81-39-157-68-227-44-106-93-201-188-287-62-56-209-140-208-179-29-15-33-11-63-24-61-26-121-46-164-52-16-2-32-4-28-35 4-32 19-30 35-28 50 6 115 28 182 56 33 14 66 43 98 60 53 4 139 47 208 74 206 78 446 126 666 79-73-33-147-65-223-91-85-29-172-49-264-53-16-1-32-1-31-33s17-31 33-31c98 4 191 26 282 57 89 30 175 69 261 108 59 27 101-7 163-45-123-92-181-230-205-376l-2-2c-102-95-207-190-315-253-104-60-210-91-316-63-15 4-31 8-39-22-8-31 7-35 22-39 125-33 247 1 364 69 94 55 186 132 274 213 0-6-1-11-1-17-15-270-203-480-435-494-78-5-189 21-186-32 4-59 97-44 234-86 385-116 655-296 836-690-54 41-110 83-186 124-86 47-198 91-358 128-82 19-154 48-216 84-64 38-117 84-159 135-10 12-20 25-45 5s-14-32-5-45c47-57 106-108 177-150 67-39 145-70 233-91 155-36 261-78 343-122 51-27 92-55 131-84-148-4-305-3-459-3-143 44-289 96-402 160-110 63-186 136-192 223-1 16-2 32-34 29-32-2-31-18-29-34 8-111 97-200 224-273 69-39 149-74 233-105-35 0-70 0-104-1-116-2-112-66-20-101 90-34 190-141 251-216 271-334 412-714 456-1130-33 72-69 140-115 198-57 73-128 131-222 164-31 160-91 293-180 397-92 108-216 185-369 230-29 8-52-35-29-55 132-109 221-226 278-344 62-131 83-264 72-387-1-16-3-32 29-35 31-3 33 13 34 29 12 134-10 278-78 420-40 85-97 170-172 251 73-39 136-89 187-149 85-100 141-229 170-386 1-8 14-22 22-25 89-27 155-79 209-147 51-65 90-143 126-228-140 69-304 64-457 78-213 19-369 68-554 152z"/>
        <path d="M204649 49231c-680-88-1359-113-2041-114-684 0-1369 40-2058 112-20 6-15 33-14 46 2 28 37 35 121 27 643-60 1285-93 1932-93 674 0 1351 21 2038 102 33 9 77-85 22-81z"/>
        <path fill-rule="evenodd" d="M200570 49160c683-71 1362-110 2038-110 675 0 1349 40 2025 127l31-127c-17 9-37 15-58 15-67 0-123-55-123-123s55-123 123-123c51 0 94 31 113 75l60-170c-724-84-1446-122-2171-122-729 0-1459 38-2193 107l58 164c22-32 59-54 101-54 68 0 123 55 123 123s-55 123-123 123c-12 0-25-2-36-6l33 94-2 7zm3067-416c-68 0-123 55-123 123s55 123 123 123 123-55 123-123-55-123-123-123zm0 64c-33 0-59 27-59 59s26 59 59 59c32 0 59-27 59-59s-26-59-59-59zm-1082-91c-67 0-123 55-123 123s55 123 123 123 123-55 123-123-55-123-123-123zm0 64c-32 0-59 26-59 59s26 59 59 59 59-26 59-59c0-32-26-59-59-59zm-1064-40c-68 0-123 55-123 123s55 123 123 123c67 0 123-55 123-123s-55-123-123-123zm0 64c-33 0-59 26-59 59s26 59 59 59c32 0 59-26 59-59 0-32-26-59-59-59z"/>
      </g>
      <path d="M202601 47974c-14-68-49-129-100-175-51-47-116-78-187-88-33-4-39-58-7-68 60-20 114-67 157-133 45-69 79-157 95-256 5-34 64-35 69-1 15 84 51 153 97 208 55 66 125 112 193 138 31 12 25 63-8 68-59 9-105 42-141 87-50 62-81 145-100 221-8 33-62 31-69-2zm33-118c20-52 47-103 81-146 28-34 60-64 99-84-51-30-100-70-143-120-28-34-53-73-73-116-19 59-45 112-75 158-31 47-67 86-108 116 50 19 95 47 134 82 34 31 63 68 85 110zm799 5115l-515 206c-17 7-35 14-48-21-14-34 4-41 21-48l515-206c17-7 35-14 48 21 14 34-4 41-21 48zm59-326l-604 328c-16 9-33 18-51-15s-1-42 15-51l604-328c16-9 33-18 51 15s1 42-15 51zm-1826-65l604 328c16 9 33 18 15 51s-34 24-51 15l-604-328c-16-9-33-18-15-51s34-24 51-15zm51 322l515 206c18 7 35 14 21 48-14 35-31 28-49 21l-515-206c-17-7-34-14-21-48 14-35 31-28 48-21zm224 434c137 33 261 48 358 31 88-16 155-60 191-146v-493c-107-1-212-15-303-41-109-31-170-98-201-178-41-107-27-235-4-329 5-18 9-36 45-27s32 27 27 45c-20 82-33 194 1 284 23 60 69 110 152 133 91 25 198 38 307 38 107 0 214-13 304-40 82-24 148-69 192-123s65-117 57-176c-5-36-24-62-49-80-34-24-82-35-128-37-47-2-94 7-142 16-25 5-50 9-77 13-19 2-37 5-42-32s14-40 32-42c23-3 48-8 73-12 52-10 105-20 159-18 60 2 121 18 168 51 42 29 72 72 80 131 11 80-16 163-73 233-53 65-131 119-229 147-83 24-178 38-274 42v483c3 5 3 11 2 16 37 82 102 125 188 141 97 18 221 2 358-31 18-5 36-9 45 27 8 37-9 41-28 45-146 35-279 51-388 32-92-17-165-58-215-132-49 74-124 115-215 132-109 20-242 4-388-32-18-4-37-8-28-45 8-36 27-32 45-27zm356 210l402-9c19 0 38-1 38 37 1 38-18 38-37 38l-402 9c-19 0-37 1-38-37s18-38 37-38zm593-3082c151-125 293-227 423-297 133-72 254-111 359-106 19 1 37 1 36 39-1 37-20 37-39 36-92-4-200 32-322 97-125 67-263 166-410 289-14 12-29 24-53-5s-9-41 5-53zm-605 56c-141-130-298-240-445-314-139-71-268-108-363-100-19 2-37 4-40-34-4-37 15-39 34-40 110-10 252 31 404 107 152 77 315 191 461 325 14 13 28 25 2 53-25 27-39 15-53 2zm-213 1004c37-83 83-155 136-219 53-63 112-119 174-170 14-12 29-24 52 5 24 29 9 41-5 53-59 48-114 101-164 160-49 59-91 125-125 201-8 17-15 34-49 19s-27-32-19-49zm371-1734c49 66 88 139 114 223 26 82 40 175 39 279 5 80 6 165-7 249-13 86-42 170-97 246-43 60-101 97-165 113-53 13-109 10-164-7 29 100 51 208 6 308-8 18-33 27-51 18-43-22-86-43-128-62s-84-36-127-51l-1-1c-95-37-173-73-236-112-65-39-115-80-150-124l1 2c-44-49-72-106-88-170-14-55-20-114-22-174-72-39-138-78-194-116-64-43-118-87-161-131-13-14-26-27 1-53s40-12 53 1c39 40 89 80 150 121 60 40 128 81 204 121 124 13 247 51 370 109 106 50 211 115 317 192 13 7 19 16 27 20 8 6 16 13 25 19 51 22 104 28 152 16 47-11 90-39 122-84 48-66 72-139 84-214 12-77 11-157 6-234v-2c1-97-12-183-35-258-24-76-58-142-102-201-11-15-22-30 7-52s41-7 52 7zm-375 1047c-104-77-207-141-311-190-105-49-210-83-314-98 2 48 8 93 18 135 13 52 35 99 71 138l1 1c30 37 73 72 130 107 60 36 134 71 225 106l-1-1c45 16 89 34 133 54 31 14 61 28 93 44 19-83-10-179-37-267-2-8-5-15-9-29zm776-1003c-44 59-79 125-102 201-24 76-36 161-35 258v2c-5 77-6 158 6 234 12 75 37 148 84 214 32 45 75 72 122 84 48 12 101 6 152-16 8-6 17-13 25-19 6-4 13-12 27-20 105-77 211-143 317-192 123-58 246-95 370-109 75-40 144-80 204-121s111-81 149-121c13-13 26-27 53-1s14 39 0 53c-43 44-97 88-161 131-57 38-122 77-194 116-2 61-8 119-22 174-16 63-44 121-88 170l1-2c-35 44-85 85-150 124-63 38-141 75-237 112l-1 1c-43 15-85 32-127 51-43 19-85 40-128 62-18 9-43 0-51-18-45-100-23-208 6-308-55 18-111 20-164 7-64-15-122-53-165-113-55-76-84-160-97-246-13-85-12-169-7-249-1-104 13-196 39-279 26-84 65-158 114-223 11-15 22-30 52-7 30 22 19 37 7 52zm940 715c-105 15-209 49-314 98-104 49-207 113-311 190-4 13-6 21-8 29-27 88-56 184-37 267 31-15 62-30 93-44 44-20 87-38 133-54l-1 1c91-35 165-70 225-106 58-34 100-70 131-107l1-1c35-39 57-86 71-138 11-42 16-87 19-135z"/>
      <path fill-rule="evenodd" d="M203459 50602c-119 0-216 97-216 216s97 217 216 217 216-97 216-217c0-119-97-216-216-216zm0 69c-81 0-147 66-147 147s66 147 147 147 147-66 147-147-66-147-147-147zm0 60c-48 0-87 39-87 87s39 87 87 87 87-39 87-87-39-87-87-87zm-1697-124c119 0 217 97 217 216s-97 217-217 217c-119 0-216-97-216-217 0-119 97-216 216-216zm0 69c81 0 147 66 147 147s-66 147-147 147-147-66-147-147 66-147 147-147zm0 60c48 0 87 39 87 87s-39 87-87 87-87-39-87-87 39-87 87-87z"/>
    </g>
    <use width="100%" height="100%" transform="rotate(-2.17 -55532.79 156275.84)" xlink:href="#a"/>
    <use width="100%" height="100%" transform="rotate(2.18 459865.85 156275.76)" xlink:href="#a"/>
  </g>
  <path fill="#171796" d="M328.13 101.29l-.07.02-20.49-23.42-26.94 15.44-4.55 54.55a234.55 234.55 0 0 1 38.56 6.45l13.48-53.04z"/>
  <path d="M285.94 104.65c.94-.23 1.86-.28 2.76.27.39.16.69.37.87.64.41-.33.83-.63 1.27-.88a7.07 7.07 0 0 1 1.92-1.09 8.02 8.02 0 0 1 2.9-.87 13.4 13.4 0 0 1 3.07-.12c.85.05 1.67.28 2.46.74l2.14 1.06c.75.42 1.5.8 2.26 1.12.96.38 2.03.5 3.18.55.56.02 1.11.02 1.65-.13.44-.11.71.17.23.46-3.54 2.17-6.32.24-8.68-.62a17.18 17.18 0 0 1 2.27 1.81c.9.87 1.91 1.75 3.7 2.56a8.9 8.9 0 0 0 3.76.9 9.45 9.45 0 0 0 1.66-.12c.3-.05.43-.02.43.13 0 .11-.02.32-.2.44-.91.62-1.77.78-2.73.84-1.83.11-3.78-.49-5.57-1.44-1.43-.77-2.4-1.7-3.53-2.55a8 8 0 0 0-3.17-1.52 6.35 6.35 0 0 0-3.12.1c.29.05.53.18.67.35.5.29 1.12.42 2.03.52.47.06.32.38-.4.77-.44.57-1.01.87-1.77.8-1.04.69-1.41.27-1.76-.18a3.12 3.12 0 0 1-.25.84.64.64 0 0 1-.02.45c.17.26.25.51.2.78a.66.66 0 0 0 .23.42c.21.2.35.43.38.7 0 .2.1.35.25.48.21.18.43.33.64.6.63.22.92.7 1.03 1.33.47.15.67.5.76.9.27.12.52.26.66.5.97 0 1.92 0 2.81.1.83.08 1.51.6 2.12 1.27.4.07.82.09 1.25 0 .43-.2.9-.35 1.4-.4a7.78 7.78 0 0 1 2.46.08c.54.13.96.42 1.3.8.5.57 1.27.5 1.92.22a2.9 2.9 0 0 1 2.53.03c.38-.15.77-.22 1.16-.18.33-.36.68-.45 1.04-.46.6-.02 1.02.07.9.83-.02.2-.14.4-.3.47-.27.59-.79.76-1.44.7-.07.4-.24.7-.5.9.3.93.01 1.3-.67 1.29-.15.26-.36.43-.73.38a1.47 1.47 0 0 1-.93.55c.04.24.14.35.31.61.47.71-.23 1-.88 1 .17.48.19.95.13 1.41.66.4.75.82.14 1.23.44.77.27 1.34-.56 1.76-.01.43-.05.87-.34 1.1-.2.18-.48.2-.3.52.34.56.27 1.26-.23 1.28-.1-.01-.2 0-.21.17 0 .06-.05.12-.15.18-.6.32-1.16.69-1.67 1.1-.08.06-.15.1-.23.03-.37.81-1.07 1.64-1.84 2.47a1.56 1.56 0 0 1-1.04 1.24c-.04.2-.16.3-.34.35.32.36.44.7.13 1.04-.38.42-.89.83-1.4.96-1.06.27-1.73.22-2.16-.19-.38-.36-.23-.64 0-.75-.65.05-.79-.3-.77-.76.04-.24.12-.2.35-.2.36.01.68-.18 1.02-.3a2 2 0 0 1 .52-.57c.12-.75.6-1.16 1.23-1.41.52-.2 1.02-.7 1.5-1.34l.89-1.53a1.32 1.32 0 0 1-.27-.82 1.58 1.58 0 0 1-.6-.55c-.46-.03-.65-.24-.72-.53a1.1 1.1 0 0 1-.35-.05c-.23.15-.46.28-.74.27a7.36 7.36 0 0 1-1.17.97c-.14.38-.41.54-.75.58-.95.12-1.53 1.31-2.05 1.8-.22.15-.35.43-.44.76-.05.63-.15 1.12-.5 1.13-.3-.01-.36-.04-.37-.08a1.27 1.27 0 0 0-.4.02c.26.29.3.64.06.96-.24.3-.58.4-.9.43a3.83 3.83 0 0 1-1.75-.23c-.5-.2-.55-.49-.53-.77-.35-.17-.42-.34-.39-.5.05-.21.25-.32.5-.25.2-.1.42-.17.63-.21a5.57 5.57 0 0 1 1.95-1.5 3.2 3.2 0 0 1 .73-.66c.08-.6.47-1.07.95-1.5a2.16 2.16 0 0 1 .23-.65c-.02-.13.01-.2.02-.31-.2-.37-.32-.8-.17-1.16a1.4 1.4 0 0 1-.05-.58c-1.15.68-1.5.45-1.64-.1-.42.35-.81.51-1.1 0-.4.13-.8.26-1.21.1-.27.1-.54.2-.84.22a3.26 3.26 0 0 1-.52.73 3 3 0 0 1-.52 1.55 9.79 9.79 0 0 1-.75 1.66c0 .17-.02.35-.11.53.09.63-.13.94-.48 1.1a2.57 2.57 0 0 1-.44.77l-.03.25c.14.38.16.75-.22 1.12-.3.2-.63.4-.95.56-.39.18-.74.1-1.06-.02-.57-.2-.52-.4-.45-.6a.69.69 0 0 1-.56 0l-.36-.26c-.12-.22-.16-.42.14-.58.37-.16.62-.29.92-.59.1-.22.23-.4.4-.44.18-.42.4-.7.7-.77.22-.52.45-1.08.72-1.57.1-.15.17-.3.12-.48 0-.14.01-.27.13-.35.06-.05.18-.1.03-.18a1.45 1.45 0 0 1 .18-1.23c.3-.45.63-1.54.31-2.08a3 3 0 0 1-.08-.92c-.1 0-.19.01-.3-.06-.24-.15-.44-.01-.62.26-.14.34-.27.64-.4.64-.13.87-.56 1.55-1.01 1.73-.1.4-.17.8-.11 1.2.04.44 0 .74-.2.8-.23.05-.44.18-.57.53-.03.1-.07.22-.08.36.31.32.22.72-.08 1.01-.67.66-1.5.56-2.37.3-.64-.25-.8-.51-.73-.78-.9-.08-.72-.77.03-.98a3.7 3.7 0 0 0 1.98-1.47c.05-.87.25-1.46.72-1.55.04-.54.21-1.02.44-1.47.23-.42.38-.87.3-1.42-.5-.31-.53-.63-.07-.96.15-.1.13-.18-.05-.27-.3-.03-.27-.32-.25-.6-.01-.14-.08-.21-.22-.22-.67-.1-.5-.37-.21-.67.12-.14.2-.34.07-.42-.1-.06-.17-.3-.2-.5-.41-.3-.23-.63 0-.93-.23-.2-.34-.49-.37-.83-.77-.03-1.05-.42-.64-.99.18-.24.4-.47.67-.69.18-.28.35-.57.27-.85-.22-.56.48-.98 1.08-1.42a.94.94 0 0 1-.13-.44c-.34-.32-.25-.63.12-.92a1.15 1.15 0 0 1-.14-.44c-.84.16-.83-.34-.44-1.15-.49-.28-.35-.78.53-1.54.02-.17.05-.3.1-.4a2.04 2.04 0 0 0-1.07.33c-.34.22-.67.19-1 .05a1.6 1.6 0 0 0-.45-.44.66.66 0 0 1-.24-.67c-.99.06-1.18-.68-.58-1.11.33-.26.57-.54.66-.84.27-.68.84-1.14 1.4-1.62a2 2 0 0 1 .1-.59c-.25-.16-.5-.28-.79-.3-.1-.26-.29-.53-.61-.68-.19-.12-.25-.22-.13-.47-.53-.47-.4-.76-.26-1.03z"/>
  <g fill="#f7db17">
    <path d="M303.94 130.2h-.2a9.02 9.02 0 0 1-.84.75c-.24-.29-.6.03-.25.2l-.18.12c-.12.31-.23.44-.57.5a1.77 1.77 0 0 0-.16.03 3.15 3.15 0 0 1 .01-.38c.02-.16.04-.3.08-.45 0-.03.01-.06-.04-.07-.06-.01-.06.01-.07.04a4.6 4.6 0 0 0-.1.89c-.86.28-1.36 1.18-1.95 1.82-.26.22-.39.53-.48.85-.05.17-.07.94-.24.96h-.27c-.1-.15-.22-.15-.38-.01a6 6 0 0 0-1.07.04c-.22.23.39.14.71.34.15.1.21.27.15.5-.3.71-1.94.49-2.5.2-.25-.14-.26-.3-.25-.51l.35-.03c.2-.03.39-.08.58-.2.06-.02.11-.05.05-.16s-.12-.08-.17-.05c-.16.1-.33.14-.5.16-.17.03-.34.03-.51.02h-.05c-.1-.05-.17-.12-.13-.18.05-.05.2 0 .23.02.26-.12.48-.2.76-.25a5.66 5.66 0 0 1 1.97-1.53c.24-.29.5-.52.82-.72.1-.7.45-1.07.95-1.53.06-.28.13-.49.27-.74-.03-.16 0-.26 0-.42-.19-.36-.3-.68-.15-1.09-.1-.3-.08-.5-.05-.77a.37.37 0 0 0 0-.15 6.64 6.64 0 0 1 .9-.61c-.02.27 0 .56.05.86-.1.1-.16.18-.21.28a.57.57 0 0 0-.08.3c0 .02 0 .05.05.05.06 0 .06-.03.06-.06a.46.46 0 0 1 .06-.24 1.26 1.26 0 0 1 .2-.25.11.11 0 0 0 .02-.03c.26-.01.52-.15.78-.36.24-.2.47-.44.7-.7v1.14a2.5 2.5 0 0 0-.58.75c0 .02-.02.05.03.07.05.03.06 0 .07-.02.14-.28.32-.5.52-.7h.01c.06 0 .06-.02.06-.05l.1-.1c.27-.2.56-.34.88-.47-.05.34-.07.66-.02.98a1.59 1.59 0 0 0 .58.96z"/>
    <path d="M287.41 120.57c.04-.08.15-.18.19-.17h.02c.12-.23.24-.43.37-.62a4.25 4.25 0 0 1 .53-.64c.02-.02.04-.04.08 0s.01.06 0 .08a4.17 4.17 0 0 0-.52.62 6.21 6.21 0 0 0-.37.6c.04.06.06.14.04.19.04.35.08.54.24.74a.22.22 0 0 1 .05-.03c.06-.16.15-.3.26-.42.13-.14.29-.27.48-.37a2 2 0 0 0 .33-.34 1.54 1.54 0 0 0 .2-.35c0-.02.02-.05.07-.03.05.02.04.05.03.08a1.7 1.7 0 0 1-.22.37 2.13 2.13 0 0 1-.35.36c-.18.1-.34.22-.46.35a1.33 1.33 0 0 0-.23.35c.08.06.12.22.04.32-.23.33-.5.53-.07.81a.68.68 0 0 0 .2.55c.1.1.1.46-.15.72-.23.23-.05.17.18.2l.06.02a2.72 2.72 0 0 1 .3-.46c.1-.14.22-.27.34-.39.17-.16.3-.35.4-.53.1-.18.15-.36.16-.54 0-.03 0-.06.06-.05.06 0 .06.03.05.06 0 .19-.07.39-.17.58a2.25 2.25 0 0 1-.42.56c-.12.12-.23.24-.34.38a2.77 2.77 0 0 0-.28.44c.28.17.19.48.23.76.06 0 .1.02.15.04a23.88 23.88 0 0 0 .18-.28l.26-.41c.01-.03.03-.05.07-.02.05.03.04.05.02.07l-.26.42-.17.26v.02c.17.14.18.4-.03.6-.43.31-.3.41.09.66.05.38.05.67-.03.99v.03l.03.31.03.32c0 .03 0 .05-.05.06-.06 0-.06-.02-.06-.05l-.03-.32v-.08l-.07.15c-.29.62-.58 1.13-.64 1.82-.68.17-.58.84-.62 1.43a4.15 4.15 0 0 1-2.02 1.6c-.16.04-.56.14-.6.35 0 .07.27.23.44.14.48-.46.72-.2.17.26-.04.09 0 .18.09.27.49.44 1.71.58 2.27.23.4-.25.62-.54.27-.93.02-.56.24-1.1.82-1.26.07-.12.05-.36.02-.49-.06-.48.02-.91.14-1.38.02-.05.06-.1.16-.13.22-.04.65-.69.78-1.3.04-.14.06-.28.08-.42.04-.22.12-.25.23-.13.1-.14.1-.22.16-.38.23-.33.56-.6.94-.41a3.24 3.24 0 0 1-.18-.89c-.03-.37 0-.75.12-1.1.01-.05.03-.1.12-.09l.33-.78c.1-.27.22-.53.33-.8.01-.02.02-.05.07-.03.05.02.04.05.03.08l-.33.79-.33.78c.04.04.03.08.01.13a2.91 2.91 0 0 0 .14 2.02c.02.03.04.06.03.09.18.1.18.13.17.37 0 .19.02.38.07.6.36.67-.02 1.79-.37 2.35-.17.27-.21.58-.14.89.21.2.07.43-.12.57-.02.05 0 .11 0 .16a.9.9 0 0 1-.17.58c-.3.54-.52 1.1-.76 1.66-.43.12-.52.37-.7.78-.24.07-.27.14-.37.37a2.89 2.89 0 0 1-.94.63c-.3.14 0 .28.2.42.2.15.46-.17.62-.4.17-.27.35-.19.24.02a2.1 2.1 0 0 0-.23.72c-.07.18.62.32.74.32.42.02.96-.4 1.29-.6.27-.28.23-.53.1-.87l.01-.02a2.1 2.1 0 0 1-.5-.05 3.66 3.66 0 0 1-.6-.2c-.03 0-.06-.02-.04-.07.02-.05.05-.04.08-.03.2.08.38.15.58.19.16.03.32.05.5.04l.02-.26c.22-.27.38-.54.5-.86.46-.22.46-.45.4-.95a.95.95 0 0 0 .12-.55c.3-.55.56-1.11.77-1.7.37-.5.55-.96.5-1.55.04-.22.12-.35.29-.35.12-.17.23-.34.33-.54a.3.3 0 0 0 .06.01.09.09 0 0 1 0-.04 1.8 1.8 0 0 1 .11-.35.85.85 0 0 1 .15-.24.98.98 0 0 0 .08-.49 1.18 1.18 0 0 0-.17-.47.53.53 0 0 1-.12-.2c-.02-.08 0-.15.07-.23.02-.02.04-.04.08 0s.02.06 0 .08c-.05.04-.05.08-.04.12.01.05.06.1.1.16v.01c.1.17.17.34.19.52.02.18 0 .37-.09.55v.02a.77.77 0 0 0-.15.22c-.04.09-.07.2-.1.33v.02c.25 0 .48-.09.73-.21l.02-.01c.13-.1.26-.26.37-.46.1-.17.17-.38.21-.62.01-.02.01-.05.07-.04.05 0 .05.04.05.06a2.16 2.16 0 0 1-.23.65c-.08.16-.19.3-.29.4.4.11.76 0 1.14-.13-.05-.54-.04-.95.01-1.27.07-.35.19-.6.34-.79.01-.02.03-.04.07 0 .05.03.03.05.01.07-.14.17-.25.4-.3.74-.06.3-.07.7-.02 1.22h.02c.17.27.25.47.58.26.12-.08.25-.16.35-.27.04-.04.03-.06.06-.1.31-.33.63-.65.95-.93.32-.28.64-.52.95-.71.03-.02.05-.03.08.02.03.04 0 .06-.02.07-.31.2-.62.43-.94.7-.27.24-.54.5-.8.79l.02.26c.03.37.1.6.63.4.3-.12.33-.13.6-.3.14-.08.25-.15.33-.17a9.86 9.86 0 0 1 1.03-.69c.03-.2.08-.4.14-.59.17-.48.44-.93.8-1.36v-.01a2.61 2.61 0 0 0 .72-.55c.19-.21.33-.45.44-.7 0-.03.02-.05.07-.03.05.02.04.04.03.07a2.64 2.64 0 0 1-.46.73c-.2.22-.43.41-.73.57a4.26 4.26 0 0 0-.89 1.82l.03.04c.03.05 0 .06-.02.07a.07.07 0 0 0-.02.01c-.03.28-.03.57.02.86.24 0 .48-.14.72-.33.25-.2.51-.5.77-.78l.01-.02c.06-.21.15-.39.25-.54a1.02 1.02 0 0 1 .43-.35c.02 0 .05-.02.07.03.02.05 0 .06-.03.08a.92.92 0 0 0-.38.3c-.1.15-.18.33-.24.53v1.18l.03-.03a3.61 3.61 0 0 1 .99-.52c.03-.02.08.02.07.06-.06.35-.09.7-.03 1.03.06.3.2.58.47.84a2.97 2.97 0 0 1 .5-.66 4.33 4.33 0 0 1 .33-.3l.24-.23.24-.23c.02-.02.04-.04.08 0 .04.05.02.07 0 .08l-.24.23-.24.23a3.32 3.32 0 0 0-.3.26v.31l.01.17c.24.06.37.07.61.06.08.47.12.54.53.55a3.46 3.46 0 0 1 .01-.49 2.1 2.1 0 0 1 .13-.52c0-.03.02-.05.07-.03.05.02.04.04.03.07-.06.15-.1.32-.12.5a3.31 3.31 0 0 0-.01.47h.03c.16.34.35.5.7.65a1.84 1.84 0 0 0 .21-.45c.05-.17.07-.34.06-.51 0-.03 0-.06.05-.06.06 0 .06.02.06.05a1.51 1.51 0 0 1-.06.55 2.02 2.02 0 0 1-.27.54c0 .01-.02.03-.04.03.02.2.05.34.12.48l.16-.31a1.83 1.83 0 0 1 .3-.4c.02-.02.04-.04.08 0s.02.06 0 .08a1.85 1.85 0 0 0-.28.37 4.66 4.66 0 0 0-.2.39l.15.2c-.65 1.12-1.34 2.66-2.62 3.16-.66.26-.95.6-1.08 1.3a2.27 2.27 0 0 0-.59.66c-.43.14-.81.36-1.28.34 0 .3.1.43.4.43.58-.29.7-.34.76-.3.07.06-.08.47-.56.8-.07.05-.07.08-.03.16.4.63 1.46.4 2.03.25.4-.1 1.13-.58 1.34-.99.07-.19-.1-.43-.28-.62-.81.12-.66-.66.04-.33.23-.07.26-.08.33-.34.62-.24.88-.5 1.02-1.16a11.6 11.6 0 0 0 1.7-2.18c.13-.15.2-.42.16-.56.11-.13.18-.3.22-.45.04-.16.06-.32.06-.48 0-.03 0-.06.05-.06.06 0 .06.03.06.06a1.88 1.88 0 0 1-.07.51 4.12 4.12 0 0 1-.13.4c.05.1.07.16.15.14.55-.44 1.1-.74 1.68-1.1.04-.25.2-.37.44-.38.1 0 .14-.03.17-.12.14-.35-.03-.58-.2-.86-.15-.43.12-.53.4-.73.28-.2.25-.77.27-1.09l-.04-.16a2.8 2.8 0 0 0-.1-.34c0-.03 0-.06.04-.07.06-.02.06 0 .07.03.05.12.08.24.1.36l.03.13c.27-.14.56-.3.66-.6.1-.34-.09-.65-.25-.94a10.21 10.21 0 0 1-.63.28c-.03 0-.05.02-.07-.03-.02-.06 0-.07.03-.08a10.91 10.91 0 0 0 .73-.32c.12-.08.24-.17.33-.28.2-.28-.33-.53-.5-.65v-.02l-.8-.72c-.01-.02-.03-.04 0-.08s.06-.03.08 0l.73.66c.04-.41.05-.8-.08-1.22l-.14-.39a1.2 1.2 0 0 1-.5-.42 1.1 1.1 0 0 1-.18-.53c0-.03 0-.06.06-.06.05 0 .05.03.06.05a.98.98 0 0 0 .15.48c.1.14.23.27.44.37.22.12.68.06.95-.07.37-.21-.12-.64-.23-.89-.08-.18-.1-.36-.14-.55l.1-.02a1.07 1.07 0 0 0-.14-.16.64.64 0 0 0-.2-.12c-.03 0-.06-.02-.04-.07.02-.05.05-.04.07-.03a.76.76 0 0 1 .24.14c.07.06.14.13.2.22a1.64 1.64 0 0 0 .1-.02c.37-.07.58-.28.8-.54a3.84 3.84 0 0 0-.4-.41l-.46-.39c-.02-.02-.04-.03 0-.08.03-.04.05-.02.08 0l.46.39a4.46 4.46 0 0 1 .43.48c.34.03.4-.03.56-.34a1.63 1.63 0 0 0-.2-.43 2.67 2.67 0 0 0-.33-.42c-.02-.02-.04-.04 0-.08.04-.03.06-.01.08 0 .13.14.25.29.34.43.1.15.17.3.22.47.16 0 .32 0 .46-.07.3-.18.04-.8-.03-1.05h.01a2.95 2.95 0 0 0-.12-.08l-.2-.13c-.03-.02-.05-.03-.02-.08.03-.05.05-.03.07-.02l.21.13.15.1.07-.05c.22-.17.3-.4.36-.64.1-.36.12-.2.55-.27.46-.07.7-.12.97-.65.15-.07.22-.13.25-.3.04-.32.02-.49-.35-.51-.5-.04-.81.06-1.15.4l.13.2c.02.02.03.04-.01.08s-.06 0-.08-.02l-.13-.2a2.6 2.6 0 0 0-1.26.2 2.1 2.1 0 0 0-.13-.06c.1.12.17.24.22.35.07.16.11.32.12.47 0 .02 0 .05-.06.05-.05 0-.05-.02-.06-.05a1.1 1.1 0 0 0-.1-.42 1.97 1.97 0 0 0-.32-.47 2.8 2.8 0 0 0-1.03-.2l.17.17.22.21c.02.02.04.04 0 .08s-.06.02-.08 0a8.74 8.74 0 0 1-.22-.21 14.57 14.57 0 0 1-.24-.24 2.99 2.99 0 0 0-.9.24 3.06 3.06 0 0 1-.63.19c.16.14.29.3.39.5.1.19.19.4.24.64 0 .03.01.05-.04.06-.06.02-.06-.01-.07-.04a2.32 2.32 0 0 0-.23-.6 2.02 2.02 0 0 0-.38-.5l-.02-.04a1.9 1.9 0 0 1-.56 0l.23.37c0 .03.02.05-.03.07-.05.03-.06 0-.07-.02l-.21-.44a1.54 1.54 0 0 1-.5-.2 8.65 8.65 0 0 1 .2 1.6c-.01.04 0 .06-.06.06s-.06-.02-.06-.05a8.38 8.38 0 0 0-.07-.95 5.02 5.02 0 0 0-.16-.76 1.77 1.77 0 0 1-.23-.2 2.24 2.24 0 0 0-.6-.48 1.01 1.01 0 0 1-.23.77c-.02.03-.03.05-.08.01-.04-.03-.02-.05 0-.07a.9.9 0 0 0 .18-.77 3.34 3.34 0 0 0-1.12-.27 6.92 6.92 0 0 1 .59.93.87.87 0 0 1 .28.45c.05.17.06.36.07.54 0 .03 0 .06-.06.06-.05 0-.05-.03-.05-.05a2.23 2.23 0 0 0-.06-.51.76.76 0 0 0-.26-.41.1.1 0 0 1-.02-.02 6.33 6.33 0 0 0-.28-.5 4.92 4.92 0 0 0-.35-.5 5.33 5.33 0 0 0-.4 0l.06.09c.04.08.08.16.09.26 0 .03 0 .05-.05.06-.06 0-.06-.02-.06-.05a.53.53 0 0 0-.08-.22.72.72 0 0 0-.12-.15c-.28.01-.55.03-.82.06a5.54 5.54 0 0 1 1.07 2.41c0 .03 0 .06-.05.06-.05.01-.06-.01-.06-.04a5.15 5.15 0 0 0-.39-1.28 5.47 5.47 0 0 0-.7-1.14h-.05a3.67 3.67 0 0 0-.64.12 2.1 2.1 0 0 1 .49.41c.02.02.03.04-.01.08-.04.03-.06.01-.08 0a1.68 1.68 0 0 0-.22-.23 2.56 2.56 0 0 0-.32-.22 5.1 5.1 0 0 0-.33.12l-.18.06a4.88 4.88 0 0 1 1.12 1.13c.01.03.03.05-.02.08-.04.03-.06 0-.08-.02a4.05 4.05 0 0 0-.56-.66 4.98 4.98 0 0 0-.6-.5 2.74 2.74 0 0 1-.69.06c.15.28.27.57.36.85.1.31.18.62.2.94 0 .03 0 .05-.05.06-.06 0-.06-.02-.06-.05a3.77 3.77 0 0 0-.2-.91c-.1-.3-.23-.6-.38-.9-.14 0-.28-.02-.42-.04a9.96 9.96 0 0 1 .39 1.77c0 .03 0 .06-.05.07-.06 0-.06-.02-.06-.05-.04-.33-.1-.65-.17-.97a9.9 9.9 0 0 0-.24-.86c-.4-.44-.84-.86-1.38-1.08a1.82 1.82 0 0 1 .4 1.2c0 .02 0 .05-.06.05-.05 0-.05-.03-.05-.06a1.74 1.74 0 0 0-.13-.71 1.79 1.79 0 0 0-.38-.56 2.08 2.08 0 0 0-.38-.08 16.68 16.68 0 0 0-1.07-.07c.28.25.5.48.47.75 0 .03 0 .06-.06.05-.05 0-.05-.03-.05-.06.02-.25-.23-.48-.53-.75l-.64-.01c.12.12.22.24.3.36.11.16.19.32.23.48v.01c.02.25.08.47.2.65.1.18.26.32.47.42.03.02.05.03.03.08-.02.05-.05.04-.07.02a1.17 1.17 0 0 1-.53-.46 1.6 1.6 0 0 1-.21-.69 1.34 1.34 0 0 0-.21-.45 2.8 2.8 0 0 0-.37-.42h-.7c.09.28.16.57.2.86.06.36.09.73.1 1.1 0 .03 0 .06-.06.06s-.06-.03-.06-.06a7.63 7.63 0 0 0-.08-1.08 4.91 4.91 0 0 0-.23-.88h-.06a1.07 1.07 0 0 0-.52-.47c0 .03 0 .05-.02.08a.64.64 0 0 1-.1.22c-.01.03-.03.05-.08.02-.04-.03-.03-.05-.01-.08a.53.53 0 0 0 .1-.28l-.12-.05c-.11-.48-.22-.68-.6-.84 0 .13 0 .27-.03.41-.03.17-.09.35-.2.51 0 .03-.02.05-.07.02-.05-.03-.03-.05-.02-.08a1.3 1.3 0 0 0 .18-.47 2.51 2.51 0 0 0 .03-.43l-.07-.02c-.1-.67-.22-1.04-.91-1.3a1.9 1.9 0 0 1 0 .26c0 .15-.03.3-.1.46 0 .02-.01.05-.06.03-.05-.02-.04-.05-.03-.07.05-.15.08-.29.08-.43a2.03 2.03 0 0 0-.02-.39c-.14-.17-.35-.32-.53-.5a2.53 2.53 0 0 1-.1.73c-.08.3-.22.6-.41.9-.02.01-.03.04-.08.01-.04-.03-.03-.05-.01-.08a3.27 3.27 0 0 0 .4-.86c.07-.27.1-.55.08-.82a1.11 1.11 0 0 1-.19-.28l-.01.04-.08.18c-.02.02-.03.05-.08.03-.05-.02-.04-.05-.03-.08l.08-.18.07-.14-.02-.1a.8.8 0 0 0-.29-.51 1.58 1.58 0 0 1-.27.5c-.02.02-.03.04-.08.01-.04-.03-.02-.05 0-.08a1.47 1.47 0 0 0 .26-.53 1.04 1.04 0 0 1-.16-.26.85.85 0 0 1-.1.18 1.2 1.2 0 0 1-.22.21c-.02.02-.04.04-.07 0-.04-.05-.02-.06 0-.08l.2-.2a.7.7 0 0 0 .1-.18c.03-.1.04-.04.01-.2.06-.3-.06-.5-.22-.76a.08.08 0 0 1 0-.02.95.95 0 0 0-.33.1c-.15.06-.32.16-.49.28-.02.01-.04.03-.07-.02-.04-.05-.01-.06.01-.08.18-.12.35-.22.5-.29a.96.96 0 0 1 .43-.1.4.4 0 0 0 .01-.24c-.5.2-.9.28-1.22.3a1.75 1.75 0 0 1-.81-.12c-.03-.02-.05-.03-.03-.08.02-.05.05-.04.07-.03.2.09.44.14.76.12.32-.02.7-.1 1.2-.3.1-.21.17-.4.22-.6a1.82 1.82 0 0 1-.54.03h-.03c-.03 0-.06 0-.06-.05 0-.06.03-.06.06-.06h.03c.19 0 .38.01.56-.05l.03-.2c.03-.22.29-.27.47-.07.15.16.3.33.44.4.3.14.65.02.9-.18l-.23-.08c-.03 0-.06-.01-.04-.07.02-.05.05-.04.07-.03l.29.1a.87.87 0 0 0 .07-.08c.62.06 1.03-.07 1.43-.48a7.4 7.4 0 0 1-.95-.03c-.3-.04-.55-.1-.74-.19-.02-.01-.05-.02-.02-.07.02-.05.05-.04.07-.03.17.09.41.15.7.18a7.45 7.45 0 0 0 1.05.03l.11-.13c.17-.07.34-.15.47-.3a5.7 5.7 0 0 1-2.08-.56c-.17-.19-.44-.3-.73-.37a2.4 2.4 0 0 0-1.43.3l-.31-.3c-.17-.03-.33-.12-.5-.14-.22-.02-.45.02-.67 0-.03 0-.06-.01-.05-.07 0-.05.03-.05.06-.04.22.02.46-.02.68 0 .21.03.42.12.63.15a4.8 4.8 0 0 1 1.83-.4 6.06 6.06 0 0 1 1.84-.23l-.02-.02c-.07-.08-.04-.11 0-.15.34-.34.42-.65.3-.94-.1-.3-.4-.57-.83-.82-.45.05-.88-.07-1.36-.02-.3.03-.6.1-.88.2.24.08.45.22.62.42.21.25.37.6.45 1.03 0 .05.01.1-.09.12-.1.02-.1-.03-.12-.08-.07-.4-.2-.7-.4-.93-.2-.29-.66-.4-.8-.46-.48.05-.95.1-1.36.21-.3.08-.58.19-.79.35.31-.07.63-.05.91.09.27.13.5.38.64.78.01.05.03.1-.07.13s-.12-.02-.13-.07c-.12-.34-.3-.55-.53-.66-.43-.22-1.34-.03-1.72.26a4.51 4.51 0 0 0-.67.63c-.04.05-.08.1-.17.01-.1-.08-.06-.13-.01-.17.23-.26.46-.5.7-.67a2 2 0 0 1 .72-.35 2.1 2.1 0 0 1 1.06-.57c.43-.1.9-.16 1.4-.2-.15-.3-.33-.48-.54-.57-.23-.1-.5-.12-.77-.09-.6.2-1.12.52-1.62.88h.13c.15.01.28-.01.4.04.06.01.1.03.07.13-.04.12-.37.04-.48.04-.13-.01-.27 0-.43.04-.02 0-.05.01-.07 0-.61.38-1.05.77-1.57 1.2l-.08.03c-.46-.02-.77.04-.96.19-.17.13-.18.33-.15.6-.08.26-.17.54-.2.83-.53.46-1.13.92-1.4 1.59-.06.2-.17.37-.3.52.11.02.2.05.27.1a.42.42 0 0 1 .07.07 2.46 2.46 0 0 1 .05-.34c.04-.15.1-.3.17-.41.02-.03.03-.05.08-.02.04.03.03.05.01.08-.06.1-.12.24-.15.38a2.65 2.65 0 0 0-.07.55c0 .05-.1.06-.11 0a.3.3 0 0 0-.12-.21.56.56 0 0 0-.29-.1 3.36 3.36 0 0 1-.37.34c-.1.1-.2.18-.23.32-.02.25.28.29.57.3.64.04.13.41.48.73.17.12.33.26.45.43.25.1.4.07.57 0 .03-.44 0-.67.19-.67h.02a.82.82 0 0 1 .19-.4c.02-.03.04-.05.08-.02.04.04.02.06 0 .08a.86.86 0 0 0-.12.22.8.8 0 0 0-.05.18c.03.07.03.2.02.43.37-.18.7-.23 1.08-.25.7-.82 1-.6.38-.01l-.1.19a1.5 1.5 0 0 0-.2.64c-.17.15-1.05.88-.72 1.15.23-.04.37-.03.28.15-.1.23-.44.7-.33.97.04.1.19.08.33.05l.03-.03a6.37 6.37 0 0 0 .7-.65c.22-.25.43-.53.6-.85.02-.04.05-.09.11-.07a9.68 9.68 0 0 1 .24-.76l.32-.79a.06.06 0 0 1 .1 0c.09.13.18.23.28.3a.42.42 0 0 0 .24.1c.08 0 .17-.04.25-.1.1-.06.18-.15.28-.28.01-.03.03-.05.08-.02.04.04.03.06.01.08a1.24 1.24 0 0 1-.3.32.52.52 0 0 1-.32.1.54.54 0 0 1-.3-.1 1.21 1.21 0 0 1-.26-.26l-.27.69a10.02 10.02 0 0 0-.25.77c.06.04.03.09.01.14a4.42 4.42 0 0 1-.64.9c-.2.2-.4.4-.6.56.03.2.08.37.16.55.39-.33.74-.66 1.06-1a6.38 6.38 0 0 0 .8-1.08c.01-.02.03-.05.07-.02.05.03.04.05.02.07a6.05 6.05 0 0 1-.37.57c.03.04 0 .05-.01.07-.04.03-.07.16-.08.33-.01.23 0 .52.03.72 0 .03 0 .06-.05.07-.06 0-.06-.02-.06-.05a4.47 4.47 0 0 1-.03-.74c0-.06 0-.12.02-.17a10.11 10.11 0 0 1-1.34 1.32c0 .03.02.05.03.07-.34.24-.61.33-.24.66l.38-.27.41-.3c.02-.01.04-.03.08.02.03.04 0 .06-.02.08l-.4.29-.4.28a.67.67 0 0 0 .1.38.56.56 0 0 1 .09 0l.85-.62c.02-.02.04-.03.07.01.04.05.01.06 0 .08l-.83.6a.76.76 0 0 1-.1.13c-.28.2-1.25.8-1.15 1.21.24-.06.47-.14.7-.26.22-.12.45-.28.66-.5.02-.01.04-.03.08 0 .04.04.02.06 0 .09a2.73 2.73 0 0 1-.7.5v.25c0 .03 0 .05-.06.05s-.06-.03-.06-.06l.01-.11v-.06c-.2.09-.4.16-.6.21.09.4-.12.73-.33 1.07-.12.1-1.09.88-.68 1.11.1.06.23.08.35.1z"/>
    <path d="M287.85 106.89c-.2-.12-.46-.27-.72-.32a1.54 1.54 0 0 0-.54-.6c-.18-.12-.18-.11-.11-.25.21-.02.3-.08.3-.14.11 0 .21.02.3.05.08.03.16.08.2.15.02.02.04.04.08 0 .05-.02.03-.05.01-.07a.58.58 0 0 0-.26-.19 1.1 1.1 0 0 0-.4-.05h-.03a.8.8 0 0 0-.36-.05c-.14-.14-.26-.3-.2-.5l.03.02.31.1a.6.6 0 0 1 .21.15c.02.02.04.04.08 0s.02-.06 0-.08a.8.8 0 0 0-.24-.17 1.9 1.9 0 0 0-.24-.09 3.09 3.09 0 0 1 2.33.3c.39.15.57.34.79.63l-.22.18c-.49-.01-.85.05-1.07.23-.2.15-.24.42-.25.7z"/>
  </g>
  <path d="M304.45 129.99c-.17.1-.3.17-.47.2a.08.08 0 0 0 .02-.02c.1-.2.23-.38.37-.55l.06-.06v.2l.02.24zm2.09 4.48c-.11.17-.25.32-.4.46a4.26 4.26 0 0 1-.51.38c-.03.02-.05.03-.08-.01-.03-.05-.01-.06.01-.08.18-.11.35-.24.5-.37.15-.14.28-.28.38-.44.02-.03.03-.05.08-.02.05.03.03.06.02.08zm1.38-1.65l-.2.32c-.02.02-.04.05-.09.02-.04-.03-.03-.06-.01-.08l.2-.32c.02-.02.04-.04.09-.01.04.03.03.05.01.07zm-.75-.1a1.14 1.14 0 0 1-.66.81c-.03 0-.05.02-.08-.03-.02-.05 0-.07.03-.08.2-.09.33-.2.43-.32.09-.13.14-.27.17-.41 0-.03.01-.06.07-.04.05.01.05.04.04.06zm1.35-1.66a1 1 0 0 0-.14.19c-.04.07-.08.15-.1.23-.02.03-.03.06-.08.04-.05-.02-.04-.05-.03-.07a1.21 1.21 0 0 1 .27-.47c.02-.02.04-.03.08 0s.02.06 0 .08zm1.11.1l-.15.48c-.06.16-.13.32-.22.48-.01.03-.03.05-.08.02s-.03-.05-.02-.07c.1-.16.16-.31.22-.46l.15-.47c0-.03.01-.05.06-.04.06.02.05.04.04.07zm-.5-6.48c.34.5.42 1.03.43 1.55.04-.18.08-.38.14-.57v-.01c.15-.2.24-.41.28-.61.05-.2.05-.4.01-.6 0-.03 0-.05.05-.06.05-.01.06.01.06.04.04.21.04.43 0 .65a1.8 1.8 0 0 1-.3.64 14.13 14.13 0 0 0-.23 1.06v.06c-.02.06-.12.05-.12 0v-.13c.01-.66.02-1.32-.4-1.95-.02-.02-.04-.04 0-.08.05-.03.07 0 .08.02zm-.84 1.09l-.02.13v.13c0 .02-.01.05-.07.05-.05-.01-.05-.04-.05-.06l.01-.13.01-.13c0-.03.01-.06.06-.05.06 0 .06.03.05.06zm-.24 1.47a6.31 6.31 0 0 1 .26 1.47 1.05 1.05 0 0 1 .08-.1 1.26 1.26 0 0 1 .36-.3c.02-.02.05-.03.07.02.03.05 0 .06-.02.07a1.12 1.12 0 0 0-.32.27.75.75 0 0 0-.16.35c0 .05-.11.04-.11-.01 0-.3-.02-.6-.07-.9a6.3 6.3 0 0 0-.2-.84c0-.02-.01-.05.04-.06.06-.02.06 0 .07.03zm1.18.53a3.8 3.8 0 0 1 .06 1.27c0 .03 0 .05-.06.05-.06-.01-.05-.04-.05-.07.03-.19.03-.38.02-.6a3.85 3.85 0 0 0-.08-.63c0-.03-.02-.05.04-.06.05-.02.06.01.06.04zm1-.19c.04.2.06.41.05.6-.01.2-.05.39-.13.57a1.27 1.27 0 0 0-.04.62c.04.22.12.43.22.64 0 .03.02.05-.03.08-.05.02-.07 0-.08-.03a2.71 2.71 0 0 1-.22-.67 1.39 1.39 0 0 1 .05-.68 1.45 1.45 0 0 0 .12-.53 2.32 2.32 0 0 0-.05-.58c0-.03-.01-.05.04-.06.06-.01.06.01.07.04zm.49-1.67l-.08.32-.08.31c0 .03-.01.06-.07.04-.05 0-.04-.04-.04-.06l.08-.32.08-.32c.01-.03.01-.05.07-.04.05.01.05.04.04.07zm-.5-2.77l.09.29c0 .02.01.05-.04.06-.05.02-.06 0-.07-.03l-.09-.3c0-.02-.01-.04.04-.06.05-.01.06.01.07.04zm.26-2.11l-.01.83a.83.83 0 0 0-.25.4 1.46 1.46 0 0 0-.01.63c0 .03 0 .06-.05.07-.05 0-.06-.02-.06-.05a1.52 1.52 0 0 1 0-.67.92.92 0 0 1 .29-.46l-.02-.36v-.39c0-.02 0-.05.05-.05s.05.02.05.05zm-2.1-.73c.33.2.6.44.8.72.2.28.3.6.29.98a.06.06 0 0 1-.08.05l-.55-.23c.12.78.1 1.41-.08 1.9a1.71 1.71 0 0 1-1 1.04.06.06 0 0 1-.07-.06 3.98 3.98 0 0 0 .13-1.8c0-.02-.01-.05.05-.06.05 0 .06.02.06.05.05.3.06.61.04.92a4.1 4.1 0 0 1-.14.8c.39-.19.67-.5.82-.93.18-.49.2-1.13.06-1.94 0-.05.04-.08.08-.06l.56.24a1.47 1.47 0 0 0-.27-.83 2.73 2.73 0 0 0-.76-.7c-.03-.01-.05-.03-.02-.08.03-.04.05-.03.08-.01zm5.48-1.08l-.05.1-.04.12c0 .02-.02.05-.07.03-.05-.02-.04-.05-.03-.07l.05-.11.04-.11c.01-.03.02-.05.07-.03.05.02.04.04.03.07zm-1.29-.03a.78.78 0 0 1 .27.17c.07.07.12.15.17.24 0 .03.02.05-.03.08-.05.02-.06 0-.07-.03a.83.83 0 0 0-.15-.2.63.63 0 0 0-.23-.15c-.02-.01-.05-.02-.03-.07.02-.05.05-.04.07-.03zm-1.91.55c.14.15.23.33.28.54.05.2.05.42.03.66 0 .03 0 .06-.06.05-.06 0-.06-.03-.05-.06a1.87 1.87 0 0 0-.03-.63 1.1 1.1 0 0 0-.25-.48c-.02-.02-.04-.04 0-.08s.06-.02.08 0zm-6.46.62l-.03.22a6.97 6.97 0 0 0-.02.22c0 .03 0 .05-.06.05-.05 0-.05-.03-.05-.06l.02-.22.03-.22c0-.03 0-.05.06-.05.05 0 .05.03.05.06zm1.2-.63l.09.31.03.1c0 .02.01.05-.04.06-.05.02-.06 0-.07-.03l-.03-.1a14.53 14.53 0 0 0-.1-.3c0-.03 0-.06.05-.08.05-.01.06.01.06.04zm2.45 1.65l.03.14a1 1 0 0 1 0 .13c0 .03 0 .06-.06.05-.06 0-.06-.03-.05-.06a.9.9 0 0 0 0-.12.59.59 0 0 0-.02-.11c-.01-.03-.02-.06.03-.07.06-.02.06 0 .07.04zm.85-1.87a.36.36 0 0 1 .1.17.25.25 0 0 1-.02.18c-.02.02-.03.05-.08.02-.05-.03-.03-.05-.02-.08a.15.15 0 0 0 .01-.1.27.27 0 0 0-.07-.12c-.02-.02-.03-.04 0-.08.04-.03.06-.02.08 0zm-5.87.3c0 .13.02.25.07.37.04.12.1.23.2.33.13.15.2.3.23.44.04.15.04.29.05.43 0 .03 0 .05-.05.06-.06 0-.06-.03-.06-.06a2.18 2.18 0 0 0-.04-.4.92.92 0 0 0-.2-.4 1.13 1.13 0 0 1-.24-.36 1.2 1.2 0 0 1-.07-.42c0-.03 0-.05.06-.05.05 0 .05.02.05.05zm2.38 1.6a2 2 0 0 1 .23.72c.03.24.02.49-.03.75-.05.3.02.58.18.85.15.25.38.5.69.72a3.05 3.05 0 0 1-.14-.96 1.79 1.79 0 0 1 .38-1.05 1.5 1.5 0 0 0 .24-.44c.05-.15.08-.3.1-.45 0-.02 0-.05.06-.04.05 0 .05.03.05.06-.02.15-.05.3-.1.47a1.62 1.62 0 0 1-.26.47 1.7 1.7 0 0 0-.36.98c-.01.34.06.7.18 1.07.01.05-.04.1-.08.07a2.8 2.8 0 0 1-.86-.85 1.34 1.34 0 0 1-.19-.92c.04-.25.06-.48.03-.71a1.93 1.93 0 0 0-.22-.7c-.02-.02-.03-.04.02-.07.05-.02.06 0 .08.03zm-.96 1.45c0 .27-.07.53-.2.8-.1.2-.24.4-.4.61a3.22 3.22 0 0 0 .25-.1 2.36 2.36 0 0 0 .74-.53l.32-.38c.01-.02.03-.05.08-.01.04.03.02.05 0 .07a3.83 3.83 0 0 1-.32.4 2.65 2.65 0 0 1-.28.25 26.13 26.13 0 0 1 .07.37c0 .02.01.05-.04.06-.06.01-.06-.01-.07-.04l-.04-.2-.03-.12a2.52 2.52 0 0 1-.39.23l-.45.18c-.05.01-.1-.05-.06-.1a3.89 3.89 0 0 0 .52-.75c.12-.24.19-.49.19-.74 0-.02 0-.05.06-.05.05 0 .05.03.05.05zm-1.16-.09v.25c0 .03 0 .06-.05.06-.06 0-.06-.03-.06-.06v-.25c0-.03 0-.05.06-.05s.05.02.05.05z"/>
  <path d="M302.36 121.35c.15.37.2.72.14 1.04-.06.33-.21.63-.44.91h-.01c-.22.2-.39.43-.5.68a2.79 2.79 0 0 0-.2.55c.06-.08.12-.16.2-.23.14-.15.3-.26.54-.33a5.09 5.09 0 0 0 1.23-.97c.02-.02.04-.04.08 0 .04.03.02.05 0 .08-.18.2-.37.38-.59.55a5.12 5.12 0 0 1-.67.44h-.02a1.1 1.1 0 0 0-.5.3c-.13.14-.24.3-.34.48-.03.04-.11.01-.1-.04.05-.31.14-.61.26-.88.13-.27.3-.5.53-.7.22-.27.36-.56.42-.86.05-.3.01-.63-.13-.98-.01-.03-.02-.05.03-.08.05-.02.06 0 .07.03zm2.36 3.78c-.03.1.04.2.2.4l.1.12c.2.27.27.57.27.89 0 .3-.05.63-.11.94-.01.05-.1.05-.11 0a1.91 1.91 0 0 0-.41-.92 3.66 3.66 0 0 0-.85-.74c-.02-.02-.04-.03-.01-.08s.05-.03.07-.02c.35.23.65.48.87.77.17.21.3.45.38.7.04-.22.06-.44.06-.65a1.37 1.37 0 0 0-.25-.82 3.59 3.59 0 0 0-.1-.13c-.18-.22-.26-.33-.2-.49 0-.02.01-.05.06-.03.06.02.05.04.04.07zm1.01-.06l.12.13.13.13c.02.02.04.04 0 .08-.05.04-.07.02-.08 0l-.13-.14-.12-.13c-.02-.02-.04-.04 0-.08.04-.03.06-.01.08 0zm1.23.4l-.23.74-.23.74c0 .03-.01.05-.07.03-.05-.01-.04-.04-.03-.06l.23-.74.23-.75c0-.02.02-.05.07-.04.05.02.04.05.03.07zm.7 4.14a.26.26 0 0 0 0 .18c.01.03.02.06-.03.07-.05.02-.06 0-.07-.03a.37.37 0 0 1 0-.27c.01-.02.02-.05.07-.03.05.02.04.05.03.07zm-.73-1.22l-.1.39-.1.4c-.01.02-.02.04-.07.03-.05-.01-.05-.04-.04-.07l.1-.39.1-.39c.01-.03.01-.05.07-.04.05.01.05.04.04.07zm-1.06 0l.1.1c.02.01.04.03 0 .07-.04.04-.06.02-.08 0l-.1-.1c-.02-.02-.04-.03 0-.07.04-.04.06-.02.08 0zm-1.24-.6a5.74 5.74 0 0 1-.16.44c0 .03-.01.05-.07.03-.05-.01-.04-.04-.03-.07a5.74 5.74 0 0 1 .16-.44c0-.03.01-.05.07-.03.05.01.04.04.03.07zm-1.78 1.88a.74.74 0 0 0-.15.24 1.34 1.34 0 0 0-.06.27c0 .02-.01.05-.06.04-.06 0-.05-.03-.05-.06l.07-.29a.82.82 0 0 1 .17-.27c.02-.02.04-.04.08 0 .04.03.02.05 0 .07zm-5.09 4.99a.7.7 0 0 1-.1.17 1.28 1.28 0 0 1-.18.16c-.02.02-.04.04-.08 0-.03-.05 0-.07.01-.09a.87.87 0 0 0 .25-.29c.01-.02.02-.05.07-.03.05.02.04.05.03.07zm.8-.43a.38.38 0 0 1-.11.15.65.65 0 0 1-.17.1c-.03 0-.06.02-.07-.04-.02-.05 0-.06.03-.07a.46.46 0 0 0 .14-.08.3.3 0 0 0 .08-.1c0-.02.02-.05.07-.03.05.03.04.05.03.08zm1.06-.64a.51.51 0 0 1-.07.09.56.56 0 0 1-.11.09c-.03.02-.05.03-.08-.02s0-.06.02-.07a.4.4 0 0 0 .14-.14c.02-.03.03-.05.08-.02.05.03.03.05.02.07zm1.59-4.14c-.05.15-.09.3-.1.44-.02.15 0 .3.02.44 0 .03.01.05-.04.07-.05 0-.06-.02-.06-.05a1.5 1.5 0 0 1-.03-.47c.01-.16.05-.31.1-.47.01-.03.02-.05.07-.03.06.01.05.04.04.07zm1.08-11.01a.93.93 0 0 1-.1.36c-.05.12-.14.24-.25.36-.01.02-.04.04-.08 0s-.02-.05 0-.07c.1-.11.18-.23.24-.33a.82.82 0 0 0 .08-.33c0-.03 0-.05.06-.05.05 0 .05.03.05.06zm-1.1-.98c.1.17.15.34.18.5.04.17.04.34.03.51 0 .03 0 .05-.06.05-.05 0-.05-.03-.05-.06a1.88 1.88 0 0 0-.03-.47 1.56 1.56 0 0 0-.17-.48c-.01-.02-.03-.04.02-.07.05-.03.06 0 .07.02zm-1.47 1.82a1.61 1.61 0 0 1-.43-.45.7.7 0 0 1-.1-.46c0-.03 0-.06.06-.05.05.01.05.04.04.06a.59.59 0 0 0 .09.4c.08.13.22.27.4.4.03.02.05.04.02.09-.04.04-.06.03-.08 0zm1.62 2.75v.24c0 .03 0 .06-.05.06-.06 0-.06-.03-.06-.06v-.24c0-.03 0-.05.06-.05.05 0 .05.02.05.05zm-2.07-2.09c.33.31.52.68.62 1.1.07.25.1.52.1.8h.01c.15-.05.27-.18.34-.39a2.9 2.9 0 0 0 .15-.95c.11-.19.18-.38.23-.57.05-.2.07-.39.09-.58 0-.05.07-.07.1-.03.19.27.36.55.49.85.13.3.21.61.25.96 0 .02 0 .05-.05.06-.06 0-.06-.03-.06-.05a3.1 3.1 0 0 0-.24-.93 4.13 4.13 0 0 0-.4-.7 3.1 3.1 0 0 1-.07.45 2.07 2.07 0 0 1-.24.59c0 .4-.05.71-.14.94-.09.25-.22.4-.4.46H300l-.02.42c0 .03 0 .06-.06.05-.06 0-.06-.03-.05-.06.03-.46.02-.9-.08-1.3a2.11 2.11 0 0 0-.6-1.03c-.01-.02-.03-.04 0-.08s.06-.02.08 0zm1.21 5.2l-.07.44-.06.43c0 .03-.01.06-.07.05-.05-.01-.05-.04-.04-.07l.07-.43.07-.44c0-.03 0-.05.06-.05.05.01.05.04.04.07zm-2.33.99l.06.33c0 .03.01.05-.04.06-.06.01-.06-.02-.07-.04l-.06-.33c0-.03-.01-.06.05-.07.05 0 .06.02.06.05zm2.02-2.68c-.03.22-.09.43-.17.64a2.37 2.37 0 0 1-.37.6c-.2.21-.3.44-.33.67-.03.24 0 .48.07.73 0 .03.01.06-.04.07-.06.02-.06 0-.07-.04a2.02 2.02 0 0 1-.07-.77c.03-.25.14-.5.35-.74a2.2 2.2 0 0 0 .52-1.17c0-.03 0-.06.06-.05.05.01.05.04.05.07zm-.53-.78c.04.21 0 .42-.08.63-.1.2-.23.41-.41.62h-.01c-.19.16-.32.34-.43.52a4.38 4.38 0 0 0-.26.56c-.01.03-.02.05-.08.03-.05-.02-.04-.04-.03-.07.08-.2.16-.39.27-.58.11-.19.26-.37.45-.54a2.24 2.24 0 0 0 .4-.58 1 1 0 0 0 .07-.57c0-.03-.01-.06.05-.07.05 0 .06.02.06.05zm-2.57 1.22c.06.42 0 .79-.17 1.1-.15.33-.4.6-.71.84-.02.02-.04.04-.08 0-.03-.05-.01-.07.01-.09.3-.23.54-.5.69-.8.15-.3.2-.64.15-1.04 0-.03 0-.05.05-.06.05 0 .06.02.06.05zm-3.29 1.82l.1.2.1.2c0 .03.02.05-.03.08-.05.02-.06 0-.07-.03l-.1-.2-.1-.2c0-.03-.02-.05.03-.08.05-.02.06 0 .07.03zm-1.3.02c0 .25.02.5.08.74s.16.47.33.69c.09.18.13.35.17.52.02.12.04.25.04.38.16-.17.28-.34.37-.52.1-.21.16-.43.16-.65 0-.03 0-.05.06-.05.05 0 .05.03.05.05a1.67 1.67 0 0 1-.17.7c-.1.22-.27.43-.48.63-.03.04-.09.01-.09-.03a3.47 3.47 0 0 0-.05-.5 1.94 1.94 0 0 0-.15-.47 2.07 2.07 0 0 1-.35-.72 2.88 2.88 0 0 1-.08-.77c0-.03 0-.05.05-.05s.06.02.06.05zm.18 4.45a2.8 2.8 0 0 1 .19-.81c0-.03.02-.05.07-.03.05.02.04.04.03.07a2.7 2.7 0 0 0-.18.78c0 .03 0 .05-.06.05s-.06-.03-.05-.06zm-.16 1.24l.07-.49c0-.03.01-.06.07-.05.05.01.05.04.04.06l-.07.5c0 .02 0 .05-.06.05-.05-.01-.05-.04-.05-.07zm-.85 2.08c.08-.08.16-.18.23-.28a4.64 4.64 0 0 0 .22-.36c.01-.02.03-.04.08-.02.05.03.03.05.02.08a4.1 4.1 0 0 1-.22.36 2.1 2.1 0 0 1-.25.3c-.02.02-.04.04-.08 0s-.02-.06 0-.08zm-1.23-6.97v.2c0 .03 0 .06-.06.06s-.05-.03-.05-.05v-.2c0-.04 0-.06.05-.06.06 0 .06.02.06.05zm-2.08 4.8l-.01-.15-.01-.15c0-.03 0-.06.05-.06s.06.02.06.05v.15l.02.16c0 .02 0 .05-.06.05-.05 0-.05-.02-.05-.05zm5.23-8.54c-.1.37-.19.75-.18 1.08 0 .31.1.58.32.72.26.17.38.43.5.68l.01.05c.04-.13.06-.26.08-.39a1.72 1.72 0 0 0-.01-.46c0-.03-.01-.05.05-.06.05-.01.06.01.06.04a2.66 2.66 0 0 1-.11 1.04c-.02.05-.08.05-.1.01a6.35 6.35 0 0 1-.09-.18c-.1-.24-.21-.48-.45-.64-.26-.17-.37-.46-.37-.81-.01-.34.07-.73.18-1.11 0-.03.02-.05.07-.04.05.02.05.04.04.07zm-.37-1.4c.04.29.03.55-.02.82a4.28 4.28 0 0 1-.25.8 2.57 2.57 0 0 0-.18 1.07c.02.37.12.72.28 1.07.01.02.03.05-.02.07-.05.03-.07 0-.08-.03a2.7 2.7 0 0 1-.1-2.22c.1-.27.2-.53.24-.79.05-.25.06-.5.02-.78 0-.02 0-.05.05-.06.05 0 .06.02.06.05zm-2.43 3.46a.84.84 0 0 0-.06.5c.03.17.1.34.2.52.02.02.03.05-.01.07-.05.03-.07 0-.08-.02a1.6 1.6 0 0 1-.22-.55.94.94 0 0 1 .07-.56c.02-.03.03-.05.08-.03.05.02.03.05.02.07zm-1.06-.38c.02.1.02.22.01.33 0 .1-.03.2-.07.3a.42.42 0 0 0-.04.28c.02.1.07.2.14.3.01.02.03.04-.02.07-.04.04-.06.01-.08-.01a.91.91 0 0 1-.15-.34.52.52 0 0 1 .05-.36.81.81 0 0 0 .06-.25 1.18 1.18 0 0 0 0-.3c-.01-.03-.02-.05.04-.06.05-.01.06.02.06.05zm6.2-9.18a2.47 2.47 0 0 0 .33 1.57c.02.02.03.05-.02.07-.04.03-.06 0-.07-.02-.14-.24-.25-.5-.3-.77a2.49 2.49 0 0 1-.05-.86c0-.03 0-.05.06-.05s.06.04.05.06zm-.78.75a4.14 4.14 0 0 1 .54 1.84c0 .02 0 .05-.05.05s-.05-.02-.06-.05a4.02 4.02 0 0 0-.52-1.78c-.02-.03-.03-.05.02-.08s.06 0 .07.02zm-3.85.12c-.37.53-.53.96-.56 1.33-.03.37.07.68.21.97a2.46 2.46 0 0 1-.03 1.76c0 .03-.01.05-.07.03-.05-.02-.04-.04-.03-.07.1-.28.16-.56.17-.84a2.4 2.4 0 0 0-.14-.83c-.15-.3-.25-.63-.22-1.02.03-.4.2-.84.58-1.39.02-.02.04-.05.08-.02.05.04.03.06.01.08zm3.6-1.52a.78.78 0 0 1-.06.49c-.07.15-.18.29-.35.42a.86.86 0 0 0-.32.52c-.05.22-.04.47.01.75 0 .03.01.05-.04.06-.06.01-.06-.01-.07-.04-.05-.3-.06-.56-.01-.8a.97.97 0 0 1 .36-.57c.15-.12.25-.25.31-.38a.68.68 0 0 0 .05-.42c0-.03-.01-.06.05-.07.05-.01.06.02.06.04zm-3.81.33c.07.23.07.46 0 .7a1.67 1.67 0 0 1-.4.66v.01c-.2.17-.33.38-.4.61a3.08 3.08 0 0 0-.12.8c0 .02 0 .05-.06.05s-.06-.03-.06-.06c.02-.29.05-.56.13-.82a1.4 1.4 0 0 1 .42-.66c.2-.2.33-.42.39-.63a1.08 1.08 0 0 0 0-.63c-.01-.03-.02-.05.03-.07.05-.01.06.01.07.04zm2.17.11a.81.81 0 0 0 0 .25.55.55 0 0 0 .1.22c.01.03.03.05-.02.08-.04.03-.06.01-.08-.01a.67.67 0 0 1-.1-.27.87.87 0 0 1 0-.28c0-.03 0-.06.06-.05.05 0 .05.03.04.06zm-.1-.57a.91.91 0 0 0-.46.42c-.1.2-.17.46-.19.78l.02.04c.1.14.18.31.23.5.05.22.07.45.06.71 0 .03 0 .06-.06.05-.06 0-.05-.03-.05-.05a2.59 2.59 0 0 0-.06-.68 1.3 1.3 0 0 0-.2-.45c-.4.39-.61.81-.62 1.27a2.8 2.8 0 0 0 .54 1.57c.01.03.03.05-.02.08s-.06.01-.07-.01a2.91 2.91 0 0 1-.56-1.64c.01-.5.23-.95.68-1.36.02-.35.08-.63.2-.86a1 1 0 0 1 .52-.47c.03-.01.05-.02.07.03.02.05 0 .06-.03.07zm-.62-.8v.12c-.04.26-.06.56-.26.74a.89.89 0 0 0-.24.34c-.05.12-.07.26-.09.41 0 .03 0 .06-.06.05-.06 0-.05-.04-.05-.07a1.82 1.82 0 0 1 .1-.44.98.98 0 0 1 .26-.38c.17-.15.2-.43.22-.67l.02-.12c0-.03 0-.05.06-.05.05.01.05.04.05.07zm6.05 6.45c.06.13.12.28.15.42.04.14.06.3.05.45 0 .02 0 .05-.06.05s-.05-.03-.05-.06a1.53 1.53 0 0 0-.04-.41 2.08 2.08 0 0 0-.15-.4c-.02-.03-.03-.05.02-.08.05-.02.06 0 .08.03zm.02 1.98c.04.23.05.46 0 .7a2.43 2.43 0 0 1-.25.7l-.25.6c-.02.03-.03.05-.08.03-.05-.02-.04-.04-.03-.07l.26-.6c.13-.24.2-.46.25-.69a1.7 1.7 0 0 0-.01-.65c0-.03-.01-.05.04-.06.05-.02.06.01.07.04zm-1.26-1.85a2.71 2.71 0 0 1 .67 2.68c0 .03-.02.06-.07.04-.05-.01-.05-.04-.04-.06a2.61 2.61 0 0 0-.65-2.59c-.02-.02-.03-.04 0-.08.05-.03.07-.01.09.01zm-.12 2.23a5.69 5.69 0 0 1-.92 1.41 2.69 2.69 0 0 0-.58 1c-.01.05-.1.04-.1-.02a1.54 1.54 0 0 0-.06-.5 2 2 0 0 0-.22-.5c-.2-.3-.29-.6-.27-.9.01-.3.13-.6.35-.89a2.77 2.77 0 0 0 .26-.62c.06-.21.1-.42.1-.63 0-.03 0-.06.06-.05.06 0 .05.03.05.06a2.79 2.79 0 0 1-.38 1.3c-.2.29-.32.57-.33.84-.02.28.07.56.25.84a2.17 2.17 0 0 1 .3.78 2.83 2.83 0 0 1 .5-.78 5.41 5.41 0 0 0 .9-1.38c.02-.03.03-.05.08-.03.05.02.04.05.02.07zm-3.3-1.06a3.08 3.08 0 0 0 .08.77c.05.24.14.47.27.68.01.02.03.04-.02.07-.05.03-.06 0-.07-.01a2.4 2.4 0 0 1-.29-.7 3.2 3.2 0 0 1-.08-.81c0-.03 0-.06.06-.06s.06.03.05.06zm-1.88 1v.33c0 .03 0 .05-.05.05-.06 0-.06-.02-.06-.05v-.33c0-.02 0-.05.06-.05.05 0 .05.03.05.05zm.63-1.71a1.53 1.53 0 0 1-.37 1.05c-.02.02-.04.05-.08 0-.05-.03-.03-.05 0-.07a1.37 1.37 0 0 0 .26-.47 1.46 1.46 0 0 0 .07-.51c0-.03 0-.06.06-.06.05 0 .05.03.05.05zm-1.7 3.33a3.5 3.5 0 0 1-.3-1.84 2.1 2.1 0 0 1 .6-1.18c.2-.2.38-.4.5-.66.1-.25.16-.55.12-.96 0-.03 0-.06.05-.06.05-.01.05.02.06.05.04.43-.02.75-.14 1.02-.12.27-.3.48-.5.7a2 2 0 0 0-.58 1.1c-.07.48 0 1.06.3 1.8 0 .02.02.04-.03.06-.05.02-.07 0-.08-.03zm-.97-1.24a.77.77 0 0 0-.05.37c0 .12.06.24.13.37.02.02.03.04-.02.07-.04.03-.06 0-.07-.02a1 1 0 0 1-.15-.41.89.89 0 0 1 .05-.42c.01-.02.02-.05.07-.03.06.02.04.04.04.07zm4.8-3.41c.2.28.31.57.34.87.02.3-.05.62-.22.95-.01.02-.03.05-.07.02-.05-.03-.04-.05-.03-.07.17-.3.23-.6.2-.89a1.61 1.61 0 0 0-.31-.82c-.02-.02-.03-.04.01-.07.05-.04.06-.01.08 0zm1.5-1.18a2.56 2.56 0 0 1 .07 1.79c-.01.05-.1.04-.1-.02a1.9 1.9 0 0 0-.18-.75 1.63 1.63 0 0 0-.46-.57c-.02-.02-.04-.03 0-.08.03-.04.05-.02.08 0a1.7 1.7 0 0 1 .63 1.07c.04-.18.05-.37.04-.55a2.4 2.4 0 0 0-.18-.85c-.01-.02-.02-.05.03-.07.05-.02.06 0 .07.03zm.89-1.21c.2.2.34.45.42.77.08.31.12.68.1 1.1-.02.19-.03.36 0 .52.01.16.06.31.14.44.02.02.03.05-.01.08-.05.03-.07 0-.08-.02a1.13 1.13 0 0 1-.17-.48 2.43 2.43 0 0 1 0-.54 3.75 3.75 0 0 0-.08-1.07c-.08-.3-.21-.54-.4-.73-.02-.02-.04-.03 0-.08.04-.04.06-.02.08 0zm-2.36-.24c-.13.16-.21.34-.25.55-.04.2-.03.43 0 .68.01.03.02.05-.04.06-.05.01-.06-.01-.06-.04a2.16 2.16 0 0 1 0-.72c.03-.23.12-.43.26-.6.02-.02.04-.04.08 0 .04.03.03.05 0 .07zm-4.64 3.12a2.1 2.1 0 0 1-.37 1.15c-.21.3-.5.55-.85.75-.02.01-.05.03-.08-.02s0-.06.02-.08c.33-.2.62-.43.82-.72a2 2 0 0 0 .35-1.08c0-.03 0-.06.06-.06s.06.03.06.06zm-.12-1.6c.03.18.02.35-.02.51a2.32 2.32 0 0 1-.19.5c0 .03-.02.05-.07.03-.05-.03-.04-.05-.02-.08.08-.16.14-.31.18-.47a1.25 1.25 0 0 0 .02-.46c0-.03-.01-.06.05-.07.05 0 .06.02.06.05zm3.14-.22v.15l.05.82.01.07c0 .03 0 .06-.05.06h-.02l-.04.02c-.06 0-.06-.03-.06-.06v-.9l-.01-.22c0-.03 0-.06.05-.06s.06.02.06.05v.02l.01.04zm.76-1.4c-.22.27-.31.53-.32.79 0 .25.08.5.2.76.25.42.34.84.31 1.26-.02.42-.16.84-.35 1.26 0 .02-.02.05-.07.03-.05-.03-.04-.05-.03-.08.19-.4.32-.8.34-1.21a1.97 1.97 0 0 0-.3-1.2v-.01c-.13-.27-.21-.54-.2-.82 0-.28.1-.56.33-.85.02-.02.04-.05.08-.01.05.03.03.05.01.08zm-4.87-8.68c.37-.28.73-.44 1.1-.48.38-.04.77.05 1.19.24h.84c.03 0 .06 0 .06.05s-.03.05-.06.05h-.43l-.38.01v.01c-.46.4-.84.61-1.18.69a1.13 1.13 0 0 1-.93-.2c-.03-.03-.06-.05-.02-.1.04-.06.07-.04.1-.02.24.17.51.24.82.18.3-.07.64-.25 1.03-.59a2 2 0 0 0-1.02-.19c-.35.04-.69.2-1.03.46-.03.02-.06.04-.1-.02-.04-.05-.01-.07.01-.1z"/>
  <path d="M290.18 107.81a.28.28 0 0 1 0 .56.28.28 0 0 1-.28-.28c0-.16.13-.28.28-.28zm1.92 1.68c.2-.1.35-.21.48-.33a2.3 2.3 0 0 0 .31-.34c.02-.02.04-.05.08-.01.05.03.03.05.01.08-.09.12-.2.24-.33.36a2.44 2.44 0 0 1-.5.34c-.03.01-.05.03-.07-.02-.03-.05 0-.06.02-.07zm3.95-1.63a.56.56 0 0 1 .3 0c.1.03.2.09.3.17.02.01.05.03.01.07-.03.05-.05.03-.08.01a.71.71 0 0 0-.25-.14.5.5 0 0 0-.25 0c-.03 0-.06.01-.07-.04-.02-.06 0-.06.03-.07zm-2.26.09a.91.91 0 0 1 .4-.45c.19-.1.42-.14.7-.12.02 0 .05 0 .05.06s-.04.06-.06.06c-.26-.03-.47 0-.64.1a.78.78 0 0 0-.35.4c-.01.02-.03.05-.08.02-.05-.02-.04-.04-.02-.07zm.25.37a.45.45 0 0 1 .13-.26.59.59 0 0 1 .28-.15c.03-.01.06-.02.07.04.02.05-.01.06-.04.06a.47.47 0 0 0-.23.13.37.37 0 0 0-.1.2c0 .03 0 .05-.06.04-.05 0-.05-.03-.04-.06zm-3.76 1.25l-.15.3a.88.88 0 0 0-.05.36c0 .02 0 .05-.05.05-.06 0-.06-.02-.06-.05-.01-.15.01-.28.05-.4.04-.11.1-.22.17-.32.01-.02.03-.05.07-.02.05.03.04.05.02.08zm1.08.48v.17c0 .03 0 .05-.05.05-.06 0-.06-.02-.06-.05v-.17c0-.03 0-.05.06-.05.05 0 .05.02.05.05zm-.7-1.2c.11.04.22.06.33.06.11 0 .23-.01.34-.04.03 0 .05-.01.07.04 0 .06-.02.06-.04.07a1.52 1.52 0 0 1-.37.04 1.06 1.06 0 0 1-.37-.07c-.03 0-.05-.02-.03-.07.02-.05.04-.04.07-.03zm.7-2.02a.34.34 0 0 0-.23.07.4.4 0 0 0-.14.2c0 .03-.01.05-.07.04-.05-.02-.04-.05-.03-.07a.53.53 0 0 1 .18-.26.46.46 0 0 1 .29-.1c.03 0 .05 0 .05.06s-.02.06-.05.06zm-1.13.11a.85.85 0 0 0-.2.12.27.27 0 0 0-.09.12c0 .03-.01.05-.07.03-.05-.01-.04-.04-.03-.07a.4.4 0 0 1 .12-.17.92.92 0 0 1 .23-.13c.03-.01.05-.02.07.03.03.05 0 .06-.03.07zm-.69.02a.88.88 0 0 0-.17.16.72.72 0 0 0-.12.2c0 .02-.01.05-.07.03-.05-.02-.04-.05-.03-.07a.79.79 0 0 1 .13-.23.96.96 0 0 1 .2-.18c.02-.02.04-.03.08.01.03.05 0 .06-.02.08zm-.88.71a1.82 1.82 0 0 0-.4.42c-.02.02-.04.04-.09.01-.04-.03-.02-.05 0-.08a2.19 2.19 0 0 1 .42-.44c.02-.02.04-.03.08.01.03.05 0 .06-.02.08zm.08.98l-.16.17-.16.18c-.02.02-.04.04-.08 0s-.02-.06 0-.08l.16-.17.16-.18c.02-.02.04-.04.08 0s.02.06 0 .08zm-.9.26v.35c0 .02 0 .05-.05.05s-.05-.03-.05-.05v-.35c0-.02 0-.05.05-.05s.06.03.06.05zm1.16 1.51l-.06.57v.05c0 .03 0 .06-.06.05-.06 0-.06-.03-.05-.06v-.05l.05-.57c0-.02.01-.05.06-.05.06 0 .06.04.05.06zm-.68-.5a22.1 22.1 0 0 1-.01.37c0 .03 0 .06-.06.05-.06 0-.05-.03-.05-.05l.01-.37c0-.03 0-.06.06-.05.05 0 .05.03.05.05zm-.63-4.79a.78.78 0 0 1 .5.5c.01.03.02.05-.03.07-.06.02-.06-.01-.07-.03a.7.7 0 0 0-.17-.27.74.74 0 0 0-.27-.17c-.02 0-.05-.02-.03-.07.02-.05.05-.04.07-.03zm5.51 7.19a1.75 1.75 0 0 1 .02 1.44c0 .02-.01.05-.06.03-.05-.02-.04-.05-.03-.08.09-.22.14-.45.13-.67a1.69 1.69 0 0 0-.16-.68c0-.02-.02-.05.03-.07.05-.02.07 0 .08.03zm-1.79 2.07c.08-.27.19-.5.32-.72.13-.21.28-.4.43-.6a1.9 1.9 0 0 0 .37-1.52c0-.03-.01-.05.04-.06.06-.01.06.01.07.04.05.28.04.57-.02.86a1.97 1.97 0 0 1-.37.75c-.15.2-.3.39-.42.6a2.8 2.8 0 0 0-.31.69c-.01.03-.02.05-.07.04-.05-.02-.05-.04-.04-.07zm-2.31-.6c.04-.1.1-.2.17-.27a.96.96 0 0 1 .28-.2c.02-.01.05-.02.07.02.02.05 0 .07-.03.08a.85.85 0 0 0-.25.17.61.61 0 0 0-.14.23c-.01.03-.02.05-.07.03-.05-.01-.04-.04-.03-.07zm-.45-.17c.09-.1.17-.21.27-.3.1-.1.22-.18.35-.23.02 0 .05-.02.07.03.02.06 0 .07-.03.07-.12.05-.22.12-.31.2-.1.1-.18.2-.26.3-.02.02-.04.05-.08 0-.05-.02-.03-.05-.01-.07zm2.4-2.37a.72.72 0 0 0 .27.07.88.88 0 0 0 .26-.04c.03 0 .05-.01.07.04.01.05-.02.06-.04.07a.85.85 0 0 1-.6-.04c-.03-.01-.06-.02-.04-.07.03-.05.05-.04.08-.03zm-1.2-.15l.09-.1v-.01c.02-.02.04-.04.09-.01.04.04.02.06 0 .08l-.01.01a2.94 2.94 0 0 1-.09.1c-.01.02-.03.04-.08 0-.04-.03-.02-.05 0-.07zm25.77 7.43l.14.18.1.21c0 .03.01.05-.04.07-.06.02-.06-.01-.07-.04a.81.81 0 0 0-.09-.18.85.85 0 0 0-.12-.17c-.02-.02-.04-.04 0-.08.04-.03.06-.01.08 0zm-28.6 13.42c.11.11.24.22.38.29.14.06.3.1.46.1.03 0 .06 0 .06.06s-.03.06-.06.06a1.14 1.14 0 0 1-.5-.13 1.88 1.88 0 0 1-.42-.3c-.02-.01-.04-.03 0-.07.04-.04.06-.03.08 0z"/>
  <g fill="red">
    <path d="M308.6 106.32a8.78 8.78 0 0 0 1.77-.08c-.55.4-1.26.67-2.03.8a.82.82 0 0 0 .29-.36.46.46 0 0 0-.03-.36zm-1.51-.15c.41.07.84.11 1.26.14l.02.03c.07.1.09.18.06.27-.04.1-.13.21-.3.32-.03.03-.08.06-.02.14a6.01 6.01 0 0 1-1.3.03.19.19 0 0 0 .05-.04.97.97 0 0 0 .28-.5.67.67 0 0 0-.05-.4zm-11.2-3.22c.72-.1 1.44-.12 2.18-.1.24.1.42.24.53.43.12.21.17.5.12.84-.01.05-.02.1.09.12.1.01.1-.04.11-.1.06-.39 0-.7-.14-.96a1.12 1.12 0 0 0-.27-.32l.2.01c.85.05 1.5.3 2.25.66a.14.14 0 0 1 .01.02c.16.16.21.33.19.51-.03.18-.14.38-.32.59-.03.04-.07.08.02.14.07.07.1.03.14 0 .2-.24.33-.48.37-.7a.74.74 0 0 0-.04-.38c.62.31 1.25.6 1.87.93l.03.02a.12.12 0 0 0 .01.04c.05.18.03.33-.05.46-.1.13-.26.25-.5.34-.06.02-.1.03-.07.13.04.1.09.08.14.06.28-.1.49-.25.6-.42a.67.67 0 0 0 .12-.48c.4.22.81.45 1.23.65.07.15.09.28.03.4-.06.13-.2.25-.43.36-.05.02-.1.05-.05.14.05.1.1.07.14.05.27-.14.44-.3.52-.46a.58.58 0 0 0 .05-.37l.44.18a8.75 8.75 0 0 0 1.41.37.5.5 0 0 1 .12.4.8.8 0 0 1-.23.4c-.03.03-.07.07 0 .14l.04.03c-1.58-.16-3-.92-4.46-1.49l-.53-.2c-.54-.2-1.1-.48-1.64-.7a.17.17 0 0 0-.07-.04l-.11-.04-.07-.02a9.05 9.05 0 0 0-1.5-.35 6.53 6.53 0 0 0-1.74-.02l-.1-.01c.05-.31.01-.58-.14-.82a1.34 1.34 0 0 0-.5-.45z"/>
    <path d="M293.3 103.64a9.27 9.27 0 0 1 2.22-.64c.34.14.57.3.7.5.12.2.15.43.1.69a4.48 4.48 0 0 0-1.95.24c-.17-.35-.4-.57-.66-.68a1.33 1.33 0 0 0-.4-.1zm7.96 4.03a10.05 10.05 0 0 0-.6-.35 7.39 7.39 0 0 0-3.24-.92l.03-.03c.4-.4.5-.8.36-1.16a1.8 1.8 0 0 0-.7-.77c.39-.02.74 0 1.13.06a8.74 8.74 0 0 1 1.94.53c.16.35.2.66.13.93s-.28.5-.61.7c-.05.02-.1.04-.04.13.05.1.1.07.14.04.39-.22.62-.5.71-.82.07-.26.05-.55-.06-.87.44.2.85.44 1.13.7.36.25.72.5 1.08.77 0 .45-.13.7-.35.84-.23.14-.56.16-.93.12-.05 0-.1 0-.12.1z"/>
    <path d="M303.43 109.3c-.66-.51-1.3-1.05-1.99-1.51.38.03.72 0 .98-.16.25-.15.42-.42.44-.86.42.32.81.66 1.2 1.02.18.18.37.36.57.53v.01c.04.17.06.3.05.42a.49.49 0 0 1-.12.28.58.58 0 0 1-.3.17 1.9 1.9 0 0 1-.71.03c-.05 0-.1-.01-.12.08z"/>
    <path d="M305.7 110.8a12.28 12.28 0 0 1-.66-.37c-.5-.3-.97-.64-1.44-1 .29.03.53.02.72-.04a.8.8 0 0 0 .39-.22.69.69 0 0 0 .17-.4.98.98 0 0 0 0-.23 11.4 11.4 0 0 0 2.25 1.52.21.21 0 0 0 0 .06c.03.2-.08.34-.3.42-.24.1-.61.14-1.04.17-.05 0-.1 0-.1.08z"/>
    <path d="M308.12 111.75a12.69 12.69 0 0 1-2.19-.84c.4-.02.74-.07.98-.17.28-.1.45-.28.44-.56.45.23.9.43 1.36.59.08.18.08.33 0 .45-.09.15-.29.28-.53.39-.05.02-.1.04-.06.13z"/>
    <path d="M313.17 111.23c.07 0 .47-.11.26.04-1.48.98-3.37.97-5.15.52.28-.13.5-.28.62-.46.08-.14.1-.3.06-.48a9.44 9.44 0 0 0 1.73.4.4.4 0 0 1-.1.26c-.09.12-.25.23-.5.35-.06.02-.1.04-.06.13.04.1.09.08.14.06.29-.13.48-.27.59-.4a.58.58 0 0 0 .14-.39 9.58 9.58 0 0 0 2.28-.03zm-10.28 25.63c-.11.12-.2.25-.3.4-.43.14-.81.36-1.28.34 0 .3.1.43.4.43.58-.29.7-.34.76-.3.07.06-.08.47-.56.8-.07.05-.07.08-.03.16.4.63 1.46.4 2.02.25.41-.1 1.14-.58 1.34-.99.08-.18-.1-.43-.27-.62-.45.06-.6-.14-.53-.29-.48-.16-1-.2-1.55-.18zm-16.18-5.1c-.33.27-.7.48-1.12.62-.16.06-.55.15-.6.36 0 .07.27.23.44.14.48-.46.72-.2.17.26-.04.09 0 .19.09.27.49.44 1.71.59 2.27.24.41-.26.62-.54.27-.94 0-.09 0-.17.02-.26l-.68-.07-.41-.24-.45-.38zm10.65 3.7l-.13.02c-.22.24.39.15.71.35.15.1.21.26.15.5-.3.71-1.94.49-2.5.2-.25-.14-.26-.3-.25-.51.12 0 .23-.01.35-.03.2-.03.39-.08.58-.2.06-.02.11-.06.05-.16-.06-.11-.11-.08-.17-.05a1.38 1.38 0 0 1-.5.16c-.17.03-.34.03-.51.02h-.05c-.1-.05-.17-.12-.13-.18.05-.05.2 0 .23.02.26-.12.48-.2.76-.25l.11-.12c.5.05.98.12 1.3.24zm-7.64-.43c-.1.06-.14.15-.21.31a2.89 2.89 0 0 1-.93.63c-.3.14-.01.28.2.42.2.15.45-.17.61-.4.18-.27.35-.19.24.01-.13.23-.22.55-.23.72-.07.18.63.32.75.33.42.02.95-.4 1.28-.6.28-.28.24-.53.11-.87v-.02a2.1 2.1 0 0 1-.5-.05 3.66 3.66 0 0 1-.6-.2c-.02-.01-.05-.02-.03-.08.01-.03.03-.04.05-.03l-.73-.17zm2.96-28.16h.34c.22.03.43.13.64.15a4.82 4.82 0 0 1 1.83-.4 6.06 6.06 0 0 1 1.84-.23l-.02-.02c-.07-.07-.04-.11 0-.15.34-.34.41-.65.3-.94-.1-.29-.4-.56-.83-.82-.45.06-.88-.07-1.36-.01-.3.03-.6.1-.88.2.24.08.45.22.62.42.21.25.36.6.44 1.02.01.05.02.1-.08.12-.1.03-.11-.03-.12-.08-.07-.39-.21-.7-.4-.92-.2-.29-.66-.4-.8-.46-.48.05-.95.1-1.36.2-.31.09-.58.2-.79.36.31-.07.63-.05.91.08.27.14.5.38.63.79.02.04.04.1-.06.13s-.12-.02-.13-.07c-.12-.34-.31-.55-.53-.66-.44-.22-1.34-.03-1.72.25a4.51 4.51 0 0 0-.67.64c-.02.02-.05.05-.08.05.82.06 1.65.1 2.29.36zm-2.43-.46c-.02-.04.01-.08.04-.11.23-.26.46-.49.7-.67.24-.17.48-.3.72-.35.26-.28.63-.45 1.07-.56.42-.11.9-.17 1.39-.22a1.13 1.13 0 0 0-.54-.56c-.23-.1-.5-.11-.77-.08-.6.2-1.12.52-1.62.87h.13c.15.01.29 0 .4.04.06.02.1.04.07.13-.04.12-.37.05-.48.04a1.42 1.42 0 0 0-.43.04c-.02 0-.05.02-.07 0-.53.33-.93.67-1.35 1.03.32.11.57.24.74.4z"/>
  </g>
  <path fill="#0093dd" d="M351.44 167.07l22.14-50.2-16.33-26.36-29.13 10.78-13.48 53.04a234.2 234.2 0 0 1 36.8 12.74z"/>
  <path fill="#fff" d="M323.2 120.64a268.71 268.71 0 0 1 42.27 14.63l-8.55 19.37A247.61 247.61 0 0 0 318 141.17z"/>
  <path fill="red" d="M358.3 151.53l5.7-12.93a265.34 265.34 0 0 0-41.68-14.43l-3.37 13.23a251.82 251.82 0 0 1 39.55 13.69l-.2.44z"/>
  <path d="M326.42 134.24c.39-.24.8-.18 1.2-.11.33-.13.72-.17 1.13-.15a2.07 2.07 0 0 1 .62-.21c.12-.1.13-.2.01-.31a.66.66 0 0 1-.17-.38c-.65-.38-.9-.96-1.15-1.54-.37-.1-.55-.23-.59-.37a35.58 35.58 0 0 1-.54-.05c-.85.1-1.07-.19-1.37-.41a1.01 1.01 0 0 1-.62-.49l-.28-.35c-.23-.3-.16-.7.2-.67.24.03.49.03.71-.07.27-.12.67-.11.97-.09.35-.02.58-.25.93-.57l-.01-.42c-.05-.15.02-.21.21-.2.47.02.74.24.93.55.54.1.96.35 1.25.8.72 0 1.2.28 1.26.54.04.2-.17.42-.5.66l.01.14c.2.17.32.34.39.5.4.16.78.36 1.14.67 1.03-.12 2.75.62 5.09 2.11 1.51.27 2.98.7 4.4 1.3l.89.03c2.53-.37 4.99-.08 7.26 1.66.86.1 1.64.37 2.38.68a5.8 5.8 0 0 0 1.69.37c.92.09 1.85.31 2.78.75 1.04.23 2.01.56 2.61 1.28.43.52.33 1-.22 1.2-.33.69-.98.72-1.96.37-.68.13-1.42-.41-2.1-.92-.94-.3-1.8-.84-2.65-1.42a3.46 3.46 0 0 0-1.33-.64c-.34-.07-.65-.11-.85 0-.1.07-.09.1 0 .18.24.2.4.5.46.85.05.32 0 .68.01 1.07.02.4.27.7.68.95.28.18.61.36 1.1.43.23.04.3.18.29.35.13.62.24 1.24.47 1.8.06.16.18.24.37.37.62.45.3.95-.27 1.06-.5.44-.93.74-1.44.86-.4.13-.58-.03-.71-.23a.52.52 0 0 1-.48-.27c-.5-.36-.07-1 1.12-.73.03-.14.13-.18.23-.18a1.6 1.6 0 0 1 .02-.97c-.1-.07-.2-.16-.35-.2a3 3 0 0 1-1.16-.64c-.6-.58-1.56-1.06-2.48-1.54-.76-.04-1.32-.39-1.92-.68l-.8-.01c-.24-.08-.43 0-.57.17-.24.29-.51.24-.84.2-.38-.04-.75-.01-1.13-.02-.18.05-.37.1-.57.1-.42-.02-.83-.02-1.11.22-.23.24-.47.22-.7.13-.17-.08-.3-.17-.37-.26-.3-.06-.49-.13-.55-.22-.5-.14-.63-.28-.61-.42-.66-.15-.34-.67.08-.69.5-.02.96.08 1.45.15.41.11.92.04 1.26-.26.21-.2.3-.37.56-.51a4.1 4.1 0 0 1-1.93-.5c-1.24-.78-2.23-.97-3.02-.3-.21.11-.38.16-.6.07a1.14 1.14 0 0 0-.62-.03c-.45.1-.9.05-1.34-.11a4.36 4.36 0 0 1-1.97.06c-.55.3-.95.33-1.21.1a9.13 9.13 0 0 1-.7-.42c-.34-.06-.5-.14-.51-.26-.45-.05-.5-.22-.5-.4-.19-.21-.12-.38.07-.51.33-.14.68-.2 1.06 0 .23.11.4.22.54.33.26-.03.48 0 .67.07.14-.22.54-.23.98-.2.22-.16.49-.26.82-.29l-.02-.16c-.45-.11-.67-.43-.9-.76a3.13 3.13 0 0 1-1.65-.6c-.4.04-.72-.1-1.03-.28-.26.02-.54.03-.8-.04a2.73 2.73 0 0 1-1.5 0c-.33.03-.6 0-.87-.03-.3.36-.66.42-1.04.24a1.61 1.61 0 0 0-.89-.54c-.28-.1-.37-.22-.42-.35-.35-.22-.28-.43.06-.59.25-.12.57-.15 1.05.1.15.05.33.1.53.1z"/>
  <path fill="#fff" d="M343.1 139.33c-.03-.06-.1-.2-.35-.06-.8-.04-1.68-.03-2.35-.42-.69-.41-1.4-.84-2.17-.8a1.93 1.93 0 0 1 .84-.46c.44-.11.96-.12 1.54-.03.81.13 1.52.3 2.07.5.53.2.91.45 1.07.77a.43.43 0 0 0 .05.05 3.72 3.72 0 0 1 .86.76c-.25.03-.51 0-.77-.04a3.07 3.07 0 0 1-.79-.28z"/>
  <path d="M344.93 101.1l.04.24 1 5.16-3.96 3.46-.19.16.23.08 4.97 1.72 1.01 5.16.05.23.18-.16 3.98-3.44 4.97 1.7.23.08-.04-.23-1-5.17 3.96-3.45.19-.16-.23-.08-4.97-1.72-1.01-5.16-.05-.24-.18.16-3.98 3.44-4.97-1.7z"/>
  <path fill="#f7db17" d="M342.5 109.9l3.7-3.23 4.66 1.6zm8.98-1.74l3.71-3.23 4.65 1.6zm8.39-1.46l-3.7 3.23-4.66-1.6zm-8.98 1.74l-3.71 3.23-4.65-1.6zm-5.44-6.86l4.65 1.6.94 4.83zm6 6.9l4.66 1.6.93 4.83zm5.47 6.54l-4.65-1.6-.94-4.83zm-6-6.9l-4.66-1.6-.93-4.83zm3.22-8.14l.94 4.82-3.71 3.23zm-2.98 8.64l.94 4.84-3.71 3.22zm-2.93 8l-.94-4.82 3.71-3.23zm2.98-8.64l-.94-4.84 3.71-3.22z"/>
</svg>
