<?xml version="1.0" encoding="UTF-8" standalone="no"?>
<svg xmlns="http://www.w3.org/2000/svg" height="512" width="512" version="1">
  <defs>
    <clipPath id="a">
      <path fill-opacity=".67" d="M0 0h512v512H0z"/>
    </clipPath>
  </defs>
  <g clip-path="url(#a)">
    <path fill-rule="evenodd" fill="#fff" d="M-248.62 144.7h998.76v181.5h-998.76z"/>
    <g transform="matrix(1.08 0 0 1.08 -248.56 -3.15)">
      <path fill-rule="evenodd" fill="#003e9f" d="M.785 288.73h925.36v187.64H.785z"/>
      <path fill-rule="evenodd" fill="#d61517" d="M-1.33 2.917h926.85v157.34H-1.33z"/>
      <path d="M99.546 313.18c91.172-33.06 192.26-50.898 291.06-51.152 98.8-.254 199.56 15.548 299.12 51.915l74.11-152.4-52.09-92.492s-92.938 38.91-93.7 38.91-65.53-72.655-65.53-72.655l-83.17 51.224-78.1-60.884-73.47 59.944-85.76-50.53-62.56 75.78-93.777-40.873-50.203 91.644L99.54 313.18z" fill-rule="evenodd" transform="matrix(.27 0 0 .26 359.68 74.41)" stroke="#e5141d" stroke-linecap="round" stroke-width="4" fill="#fff"/>
      <path d="M103.35 305.55L48.053 156.8l51.57-83.743 86.837 38.303 28.36 156.41c-41.446 10.136-62.637 16.965-111.47 37.787z" fill-rule="evenodd" transform="matrix(.22 .15 -.16 .2 537.56 64.73)" stroke="#0084fd" stroke-width="1pt" fill="#00a7bd"/>
      <path d="M416.724 145.063l-10.528-39.15 15.842-19.442 22.54 13.015 3.807 41.152c-11.015.817-18.976 1.863-31.66 4.426z" fill="none"/>
      <path d="M103.49 305.85L40.117 160.01 90.29 81.76l89.98 31.707 37.2 154.81c-40.175 10.938-68.342 20.333-113.98 37.58z" fill-rule="evenodd" transform="matrix(.25 .08 -.08 .25 448.13 56.57)" stroke="#0084fd" stroke-width="1pt" fill="#00a7bd"/>
      <path d="M103.12 305.58L35.796 160.42l44.99-80.13 93.264 41.38 39.41 149.75c-42.583 8.976-65.133 16.31-110.34 34.153z" stroke-opacity=".996" fill-rule="evenodd" transform="matrix(.27 0 0 .26 359.68 74.41)" stroke="#0084fd" stroke-width="1pt" fill="#00a7bd"/>
      <path d="M82.188 225.18c21.198 4.375 36.302 4.532 55.312-.78 22.71-9.48 30.73-22.24 38.125-32.5 3.438 21.666-.156 41.3-26.093 55.155-23.282 10.938-54.688 4.063-67.344-21.875z" fill-rule="evenodd" transform="matrix(.27 0 0 .26 359.68 74.41)" stroke="#fff" stroke-width="1pt" fill="#fff"/>
      <g stroke-width="1pt" transform="matrix(.27 0 0 .26 359.68 74.41)">
        <path d="M410.94 120.56l-4.063 1.016.156 7.5-5 1.094-3.497 6.614 2.16 2.044c.11.22-1.704 4.892-1.626 4.892s1.323 1.762 1.323 1.762l1.328 4.063 3.36.468.86 4.766 5.312.858 4.922 3.516.312 2.188 5.625.156 3.83 1.25 13.36-1.563 1.796-2.812.156-3.828 7.188-.235.657-6.105h3.81l-.475-6.875 3.177.286-.82-3.295-1.976-2.682-.39-4.218-5.625-5.625-1.25-7.344s-3.595-1.64-3.595-1.718-.234-4.922-.234-4.922l4.063-5.703-.39-2.265-3.75-.08-2.813 2.345s-3.75.39-3.75.47v1.718s.938 3.203.938 3.28-4.297 0-4.297 0l-.156-5.077-6.093-3.047s-5.702 3.907-5.702 3.985-.313 4.532-.313 4.532l-2.734.78-2.812-4.218-4.922-1.876-2.656-.156-.078 3.28 5.156 6.798-.468 3.984z" stroke-opacity=".996" fill-opacity=".996" fill-rule="evenodd" stroke="#544b20" fill="#faf703"/>
        <path d="M449.23 148.04l-1.105-4.088M452.33 141.3l-1.878-2.762" stroke="#544b20" fill="none"/>
        <path d="M400.84 138.21l5.856-.332 1.105 5.303 1.99 1.77.33 9.722 1.88.773.552-3.867 4.53-.33.883 7.843-1.104.996.443 1.215 5.413-.11s1.216-2.1 1.326-2.1c.11 0 3.094-.33 3.094-.22 0 .11 1.215 2.32 1.215 2.32l.885-2.983s2.873-1.215 2.873-1.104c0 .11 2.32 3.756 2.32 3.756l3.977-.553-2.43-2.32-.995-5.083 5.524-2.983 2.21 3.758s2.1.11 1.99 0c-.112-.11-2.432-4.31-2.432-4.31v-8.838l4.2-5.745 5.854-.663v-2.43l-5.855-5.415-1.546-7.513-3.315-1.657-.885.994-3.646.333 3.645 5.414v3.535l1.658.884-.332 9.723s-4.087.55-4.087.662c0 .11-.33 5.413-.33 5.413l-2.542 2.542s-1.436 5.082-1.546 5.082c-.11 0-2.43 3.092-2.43 3.092l-4.53.11s-2.652-2.54-2.652-2.65c0-.11-.442-3.757-.442-3.757s-1.768-.553-1.88-.553c-.11 0-.993-4.088-.993-4.088l-3.094-1.767-.22-2.43-2.984-1.327s-.332-2.21-.443-2.32c-.11-.11-1.436-.994-1.546-.994-.11 0-.11-6.077-.11-6.077l2.652-.443-1.485-1.94-.504-1.706v-1.767l2.21-2.21s-3.978-.552-3.978-.442c0 .112-3.866 1.77-3.866 1.66.11 0-.112 7.18-.112 7.18l-4.53 1.437-3.646 5.855 1.878 1.658z" fill-rule="evenodd" stroke="#544b21" fill="#544b20"/>
        <path d="M423.71 148.04l2.983-1.768-.11-3.425-2.873-.663-1.106-1.105 3.205.552 3.976-.332 1.326-.663c-.552 1.437-.994 1.326-1.105 1.326-.11 0-2.21 1.105-2.21 1.105l.11 3.315s6.85.883 6.74.883c-.11 0 0 1.326-.22 1.326s-7.07-1.547-7.07-1.547l-4.31 2.652.663-1.657zM440.95 127.49l-3.977 3.093-2.54 4.53-1.327.22-3.867-5.192-4.42.112s-2.43 6.076-2.43 6.187c0 .11-1.77-.222-1.77-.222l-4.64-5.082s-1.436-2.542-1.215-2.542 11.6.11 11.6.11l-.11-5.523s-1.767-.552-2.65-1.104c.662-.22 6.297-.22 6.297-.22l-2.43 1.656v4.75l10.053.11 3.425-.882z" fill-rule="evenodd" stroke="#544b20" fill="#544b20"/>
        <rect fill-rule="evenodd" fill-opacity=".996" ry="1.326" height="2.652" width="2.652" y="130.14" x="419.51" fill="#796a3a"/>
        <rect fill-rule="evenodd" ry="1.326" height="2.652" width="2.652" y="129.59" x="432.11" fill="#7a6b3a"/>
        <path d="M413.55 121.3c4.198-1.694 7.18-3.056 12.374-3.535 4.898-.516 8.692.184 13.037.994" stroke="#544b20" fill="none"/>
        <path d="M415.87 112.35h-3.425l-4.862-5.193 2.763.332 3.204 1.435 2.32 3.425zM436.53 110.36l7.734-5.965-2.54-.332-2.874 2.65-3.425.554 1.105 3.093zM431.97 111.46l-12.123.45.11-1.325 4.42-.442.552-1.767s1.325-.11 1.325 0 .994 1.657.994 1.657l4.308.773.412.654zM431.34 106.83l-4.198.11-.332-2.32 4.53 2.21zM424.26 104.73l-.332 2.32-4.087.662 4.42-2.982zM401.06 147.04l2.1-5.303-1.88-3.646-1.877 5.415 1.657 3.535zM405.26 149.92l2.54-6.298-4.86 5.082 2.32 1.216z" fill-rule="evenodd" stroke="#544b20" fill="#544b20"/>
      </g>
      <g stroke-width="1pt" transform="matrix(.27 0 0 .26 341.88 74.99)">
        <path d="M410.94 120.56l-4.063 1.016.156 7.5-5 1.094-3.497 6.614 2.16 2.044c.11.22-1.704 4.892-1.626 4.892s1.323 1.762 1.323 1.762l1.328 4.063 3.36.468.86 4.766 5.312.858 4.922 3.516.312 2.188 5.625.156 3.83 1.25 13.36-1.563 1.796-2.812.156-3.828 7.188-.235.657-6.105h3.81l-.475-6.875 3.177.286-.82-3.295-1.976-2.682-.39-4.218-5.625-5.625-1.25-7.344s-3.595-1.64-3.595-1.718-.234-4.922-.234-4.922l4.063-5.703-.39-2.265-3.75-.08-2.813 2.345s-3.75.39-3.75.47v1.718s.938 3.203.938 3.28-4.297 0-4.297 0l-.156-5.077-6.093-3.047s-5.702 3.907-5.702 3.985-.313 4.532-.313 4.532l-2.734.78-2.812-4.218-4.922-1.876-2.656-.156-.078 3.28 5.156 6.798-.468 3.984z" stroke-opacity=".996" fill-opacity=".996" fill-rule="evenodd" stroke="#544b20" fill="#faf703"/>
        <path d="M449.23 148.04l-1.105-4.088M452.33 141.3l-1.878-2.762" stroke="#544b20" fill="none"/>
        <path d="M400.84 138.21l5.856-.332 1.105 5.303 1.99 1.77.33 9.722 1.88.773.552-3.867 4.53-.33.883 7.843-1.104.996.443 1.215 5.413-.11s1.216-2.1 1.326-2.1c.11 0 3.094-.33 3.094-.22 0 .11 1.215 2.32 1.215 2.32l.885-2.983s2.873-1.215 2.873-1.104c0 .11 2.32 3.756 2.32 3.756l3.977-.553-2.43-2.32-.995-5.083 5.524-2.983 2.21 3.758s2.1.11 1.99 0c-.112-.11-2.432-4.31-2.432-4.31v-8.838l4.2-5.745 5.854-.663v-2.43l-5.855-5.415-1.546-7.513-3.315-1.657-.885.994-3.646.333 3.645 5.414v3.535l1.658.884-.332 9.723s-4.087.55-4.087.662c0 .11-.33 5.413-.33 5.413l-2.542 2.542s-1.436 5.082-1.546 5.082c-.11 0-2.43 3.092-2.43 3.092l-4.53.11s-2.652-2.54-2.652-2.65c0-.11-.442-3.757-.442-3.757s-1.768-.553-1.88-.553c-.11 0-.993-4.088-.993-4.088l-3.094-1.767-.22-2.43-2.984-1.327s-.332-2.21-.443-2.32c-.11-.11-1.436-.994-1.546-.994-.11 0-.11-6.077-.11-6.077l2.652-.443-1.485-1.94-.504-1.706v-1.767l2.21-2.21s-3.978-.552-3.978-.442c0 .112-3.866 1.77-3.866 1.66.11 0-.112 7.18-.112 7.18l-4.53 1.437-3.646 5.855 1.878 1.658z" fill-rule="evenodd" stroke="#544b21" fill="#544b20"/>
        <path d="M423.71 148.04l2.983-1.768-.11-3.425-2.873-.663-1.106-1.105 3.205.552 3.976-.332 1.326-.663c-.552 1.437-.994 1.326-1.105 1.326-.11 0-2.21 1.105-2.21 1.105l.11 3.315s6.85.883 6.74.883c-.11 0 0 1.326-.22 1.326s-7.07-1.547-7.07-1.547l-4.31 2.652.663-1.657zM440.95 127.49l-3.977 3.093-2.54 4.53-1.327.22-3.867-5.192-4.42.112s-2.43 6.076-2.43 6.187c0 .11-1.77-.222-1.77-.222l-4.64-5.082s-1.436-2.542-1.215-2.542 11.6.11 11.6.11l-.11-5.523s-1.767-.552-2.65-1.104c.662-.22 6.297-.22 6.297-.22l-2.43 1.656v4.75l10.053.11 3.425-.882z" fill-rule="evenodd" stroke="#544b20" fill="#544b20"/>
        <rect fill-rule="evenodd" fill-opacity=".996" ry="1.326" height="2.652" width="2.652" y="130.14" x="419.51" fill="#796a3a"/>
        <rect fill-rule="evenodd" ry="1.326" height="2.652" width="2.652" y="129.59" x="432.11" fill="#7a6b3a"/>
        <path d="M413.55 121.3c4.198-1.694 7.18-3.056 12.374-3.535 4.898-.516 8.692.184 13.037.994" stroke="#544b20" fill="none"/>
        <path d="M415.87 112.35h-3.425l-4.862-5.193 2.763.332 3.204 1.435 2.32 3.425zM436.53 110.36l7.734-5.965-2.54-.332-2.874 2.65-3.425.554 1.105 3.093zM431.97 111.46l-12.123.45.11-1.325 4.42-.442.552-1.767s1.325-.11 1.325 0 .994 1.657.994 1.657l4.308.773.412.654zM431.34 106.83l-4.198.11-.332-2.32 4.53 2.21zM424.26 104.73l-.332 2.32-4.087.662 4.42-2.982zM401.06 147.04l2.1-5.303-1.88-3.646-1.877 5.415 1.657 3.535zM405.26 149.92l2.54-6.298-4.86 5.082 2.32 1.216z" fill-rule="evenodd" stroke="#544b20" fill="#544b20"/>
      </g>
      <path d="M103.35 305.55L45.28 157.1l52.68-79.85 88.34 35.07 29.41 156.08c-40.76 10.493-63.478 17.573-112.36 37.15z" stroke-opacity=".996" fill-rule="evenodd" transform="matrix(.24 .1 -.12 .23 492.03 57.35)" stroke="#001071" stroke-width="1pt" fill="#001070"/>
      <g stroke-width="1pt" transform="matrix(.27 0 0 .26 351.11 90.44)">
        <path d="M410.94 120.56l-4.063 1.016.156 7.5-5 1.094-3.497 6.614 2.16 2.044c.11.22-1.704 4.892-1.626 4.892s1.323 1.762 1.323 1.762l1.328 4.063 3.36.468.86 4.766 5.312.858 4.922 3.516.312 2.188 5.625.156 3.83 1.25 13.36-1.563 1.796-2.812.156-3.828 7.188-.235.657-6.105h3.81l-.475-6.875 3.177.286-.82-3.295-1.976-2.682-.39-4.218-5.625-5.625-1.25-7.344s-3.595-1.64-3.595-1.718-.234-4.922-.234-4.922l4.063-5.703-.39-2.265-3.75-.08-2.813 2.345s-3.75.39-3.75.47v1.718s.938 3.203.938 3.28-4.297 0-4.297 0l-.156-5.077-6.093-3.047s-5.702 3.907-5.702 3.985-.313 4.532-.313 4.532l-2.734.78-2.812-4.218-4.922-1.876-2.656-.156-.078 3.28 5.156 6.798-.468 3.984z" stroke-opacity=".996" fill-opacity=".996" fill-rule="evenodd" stroke="#544b20" fill="#faf703"/>
        <path d="M449.23 148.04l-1.105-4.088M452.33 141.3l-1.878-2.762" stroke="#544b20" fill="none"/>
        <path d="M400.84 138.21l5.856-.332 1.105 5.303 1.99 1.77.33 9.722 1.88.773.552-3.867 4.53-.33.883 7.843-1.104.996.443 1.215 5.413-.11s1.216-2.1 1.326-2.1c.11 0 3.094-.33 3.094-.22 0 .11 1.215 2.32 1.215 2.32l.885-2.983s2.873-1.215 2.873-1.104c0 .11 2.32 3.756 2.32 3.756l3.977-.553-2.43-2.32-.995-5.083 5.524-2.983 2.21 3.758s2.1.11 1.99 0c-.112-.11-2.432-4.31-2.432-4.31v-8.838l4.2-5.745 5.854-.663v-2.43l-5.855-5.415-1.546-7.513-3.315-1.657-.885.994-3.646.333 3.645 5.414v3.535l1.658.884-.332 9.723s-4.087.55-4.087.662c0 .11-.33 5.413-.33 5.413l-2.542 2.542s-1.436 5.082-1.546 5.082c-.11 0-2.43 3.092-2.43 3.092l-4.53.11s-2.652-2.54-2.652-2.65c0-.11-.442-3.757-.442-3.757s-1.768-.553-1.88-.553c-.11 0-.993-4.088-.993-4.088l-3.094-1.767-.22-2.43-2.984-1.327s-.332-2.21-.443-2.32c-.11-.11-1.436-.994-1.546-.994-.11 0-.11-6.077-.11-6.077l2.652-.443-1.485-1.94-.504-1.706v-1.767l2.21-2.21s-3.978-.552-3.978-.442c0 .112-3.866 1.77-3.866 1.66.11 0-.112 7.18-.112 7.18l-4.53 1.437-3.646 5.855 1.878 1.658z" fill-rule="evenodd" stroke="#544b21" fill="#544b20"/>
        <path d="M423.71 148.04l2.983-1.768-.11-3.425-2.873-.663-1.106-1.105 3.205.552 3.976-.332 1.326-.663c-.552 1.437-.994 1.326-1.105 1.326-.11 0-2.21 1.105-2.21 1.105l.11 3.315s6.85.883 6.74.883c-.11 0 0 1.326-.22 1.326s-7.07-1.547-7.07-1.547l-4.31 2.652.663-1.657zM440.95 127.49l-3.977 3.093-2.54 4.53-1.327.22-3.867-5.192-4.42.112s-2.43 6.076-2.43 6.187c0 .11-1.77-.222-1.77-.222l-4.64-5.082s-1.436-2.542-1.215-2.542 11.6.11 11.6.11l-.11-5.523s-1.767-.552-2.65-1.104c.662-.22 6.297-.22 6.297-.22l-2.43 1.656v4.75l10.053.11 3.425-.882z" fill-rule="evenodd" stroke="#544b20" fill="#544b20"/>
        <rect fill-rule="evenodd" fill-opacity=".996" ry="1.326" height="2.652" width="2.652" y="130.14" x="419.51" fill="#796a3a"/>
        <rect fill-rule="evenodd" ry="1.326" height="2.652" width="2.652" y="129.59" x="432.11" fill="#7a6b3a"/>
        <path d="M413.55 121.3c4.198-1.694 7.18-3.056 12.374-3.535 4.898-.516 8.692.184 13.037.994" stroke="#544b20" fill="none"/>
        <path d="M415.87 112.35h-3.425l-4.862-5.193 2.763.332 3.204 1.435 2.32 3.425zM436.53 110.36l7.734-5.965-2.54-.332-2.874 2.65-3.425.554 1.105 3.093zM431.97 111.46l-12.123.45.11-1.325 4.42-.442.552-1.767s1.325-.11 1.325 0 .994 1.657.994 1.657l4.308.773.412.654zM431.34 106.83l-4.198.11-.332-2.32 4.53 2.21zM424.26 104.73l-.332 2.32-4.087.662 4.42-2.982zM401.06 147.04l2.1-5.303-1.88-3.646-1.877 5.415 1.657 3.535zM405.26 149.92l2.54-6.298-4.86 5.082 2.32 1.216z" fill-rule="evenodd" stroke="#544b20" fill="#544b20"/>
      </g>
      <path d="M476.9 225.82l-4.136 4.93.318 4.137 8.59-.16c2.757-.662 3.446-1.643 3.977-2.783.847-1.405.264-2.174.476-4.056l-9.226-2.068z" stroke-opacity=".997" fill-rule="evenodd" transform="matrix(.27 0 0 .26 359.68 74.41)" stroke="#a0210c" stroke-width="1pt" fill="#a0210c"/>
      <path d="M476.58 226.14l-3.5 3.34v3.818l7.636-.16c2.757-.662 3.127-1.166 3.658-2.305.848-1.406.584-1.38.796-3.26l-8.59-1.433z" stroke-opacity=".997" fill-rule="evenodd" transform="matrix(.27 0 0 .26 365.26 77.56)" stroke="#a0210c" stroke-width="1pt" fill="#a0210c"/>
      <path d="M476.9 225.98l-3.977 4.136.16 3.18 8.112.32c2.757-.664 2.332-.53 3.18-1.99.85-1.404.585-1.696.797-3.578l-8.272-2.068z" stroke-opacity=".997" fill-rule="evenodd" transform="matrix(.27 0 0 .26 374.08 74.83)" stroke="#a0210c" stroke-width="1pt" fill="#a0210c"/>
      <path d="M477.85 225.51l-4.613 3.976v3.977l8.59.796c2.757-.664 2.97-1.486 3.66-2.467.847-1.405.423-1.538.635-3.42l-8.272-2.863z" stroke-opacity=".997" fill-rule="evenodd" transform="matrix(.27 0 0 .26 380.12 76.9)" stroke="#a0210c" stroke-width="1pt" fill="#a0210c"/>
      <path d="M497.1 131.02l16.225 10.976c3.05-2.58 9.395-1.016 11.88-.3 4.462 1.186 7.607 3.88 11.504 4.595 7.127 1.827 15.667 3.088 22.135 2.372 6.47-.715 11.902-4.16 16.677-6.666v-1.59h-3.18c-5.165 1.894-12.4 1.998-17.942 1.256s-7.034-3.274-15.305-5.71l-.636-1.59c10.04.485 12.078.22 16.28-1.648 4.11-1.112 5.96-3.543 8.28-5.222l-.064-1.88-3.023-.16c-3.894 2.645-6.376 3.123-12.342 2.566-5.428-.56-10.318-3.71-13.96-3.776-3.863.03-3.68-1.85-7.417-2.036-5.94-.53-12.358.277-17.978 1.656-6.734 2.068-7.742 3.817-11.135 7.158z" fill-rule="evenodd" transform="matrix(.27 0 0 .26 359.68 74.41)" stroke="#000" stroke-width="1pt" fill="#a0210c"/>
      <path d="M500.25 128.58c1.553.36 3.295.816 4.565 1.553 1.27.737.942.722 2.307 1.74-.22-1.316-.157-1.222-1.035-2.257-.88-1.036-2.323-1.977-3.483-2.825l-2.354 1.79zM513.81 140.44c.03-1.427-.69-2.667-1.224-3.906-.533-1.24-.973-2.29-1.977-3.53 1.254.36 1.945.91 3.012 2.21 1.066 1.304 1.004 2.606 1.223 4.472l-1.035.754zM516.91 123.03c.377.99 1.116 1.668 1.742 3.778.54 1.917.8 4.6.8 4.6-.205-1.428.156-3.044-.048-4.472-.204-1.427-.973-2.667-1.177-4.095l-1.317.19z" fill-rule="evenodd" transform="matrix(.27 0 0 .26 359.68 74.41)" stroke="#000" stroke-width="1pt"/>
      <path d="M529.81 123.88l.66 7.908.753-7.437-1.413-.47z" fill-rule="evenodd" transform="matrix(.27 0 0 .26 359.76 74.41)" stroke="#000" stroke-width="1pt"/>
      <path d="M526.7 140.35c.314-1.286.25-2.573.094-3.86-.157-1.286-.597-2.384-1.036-3.86 1.255 1.1 1.758 2.48 2.448 3.955 0 1.474-.376 2.76-1.506 3.765z" fill-rule="evenodd" transform="matrix(.27 0 0 .26 359.73 74.39)" stroke="#000" stroke-width="1pt"/>
      <path d="M540.45 137.06c.047 0 .4 2.683-.2 4.613s-1.023 2.07-2.153 3.107c1.506-1.13 2.824-1.506 3.295-2.73.47-1.883-.754-4.707-.942-4.99z" fill-rule="evenodd" transform="matrix(.27 0 0 .26 359.71 74.34)" stroke="#000" stroke-width="1pt"/>
      <path d="M542.05 133.86c-.94.157-1.13-3.83-1.694-5.743.408-.22.816-.157 1.224.753.44.534.313 3.327.47 4.99z" fill-rule="evenodd" transform="matrix(.27 0 0 .26 359.91 74.51)" stroke="#000" stroke-width="1pt"/>
      <path d="M552.22 133.01l.377-3.295 1.035-.094v2.825c0 .095-1.317.66-1.412.565z" fill-rule="evenodd" transform="matrix(.27 0 0 .26 359.68 74.32)" stroke="#000" stroke-width="1pt"/>
      <path d="M551.56 141.86c.597 1.004 1.663 2.197 1.79 3.295s-.22 1.632-1.036 3.295l1.506.094c.815-1.333 1.067-2.29.942-3.34-.126-1.053-.63-2.104-1.695-2.967l-1.507-.377z" fill-rule="evenodd" transform="matrix(.27 0 0 .26 359.66 74.32)" stroke="#000" stroke-width="1pt"/>
      <path d="M562.57 142.7l.376 4.612 1.224-.66-.282-3.952h-1.318z" fill-rule="evenodd" transform="matrix(.27 0 0 .26 359.71 74.32)" stroke="#000" stroke-width="1pt"/>
      <path d="M496.09 131.83c-3.672 1.083-5 3.15-6.797 4.938l-10.346-5.34c-1.678 1.418-2.324 3.445-1.517 5.52.807 2.074 4.053 5.32 6.36 6.926-.577 2.865-1.43 5.027-2.438 7.54-1.125 2.825-3.54 6.394-3.61 7.54-.138 1.312-.558 4.123 1.367 4.872 1.925.75 8.117-.52 10.183-.38-.336 1.127-1.14 3.098-.866 3.944s.83 1.128 2.51 1.177c-.484 1.047-1.53 2.374-1.028 3 1.297 1 2.784.827 4.035.75-1.973 2.33-6.902 6.82-8.5 8.824-1.693 2.333-1.838 4.852 1.44 4.605-1.22 1.378-2.392 2.71-2.205 3.9.282 1.424.985 2.38 3.33 1.554-1.388 3.196-.477 6.065.012 9.402-1.184 2.525-.68 4.863-.975 7.763-2.412 1.392-2.712 3.206-4.28 6.005-1.414 3.03-4.046 3.857-5.506 10.358l9.466 2.406c.348-1.337 1.586-2.205 1.934-3.54.347-1.338.32-3.003.15-4.48 1.88-2.773 5.68-8.5 6.9-11.552 2.067-1.125 3.57-1.83 5.12-1.83s2.54.94 4.184 1.83c-.728 2.573-2.77 5.38-2.887 8.984v9.947c-.412 2.47-3.17 2.504-4.332 9.946l8.503 2.245c1.444-2.503 3.73-2.848 4.33-3.85l.615-10.334c1.082-4.877 7.792-8.91 7.89-14.21 2.407-.033 3.316.217 4.27-.285 1.284-.455 1.724-1.19 2.726-2.115.385 1.595 1.616 1.735 2.66 1.735 1.04 0 3.115-1.5 3.97-2.11.603.865.922 1.683 2.18 1.985s4.813-.24 6.26-.595l-6.988 11.652c-.26 1.123.088 1.824-.454 3.135-.508 1.177-1.532 1.744-1.993 2.828l7.92 1.93 1.265-3.4c1.68-.722 3.03-1.115 3.913-2.21s.874-3.18 1.38-4.37c2.707-2 6.96-6.348 9.947-9.945 2.028.35 4.9 2.058 5.99 4.612.153 2.74.35 7.78-.856 11.27l-5.134 8.182-.582 1.34 8.082 2.936 5.134-4.01.2-5.722c2.58-4.642 6.27-7.18 9.786-10.106 0-.16.375-6.144.234-6.378-.87-.674-1.456-.27-1.763-1.506-.305-1.236-.096-4.63.067-5.96.508-.642 1.58-1.38 1.524-1.927-1.398-1.565-.97-5.616-.54-8.775-.106-3.597 4.714-7.85 5.453-9.946l.3-3.776c-.492-.928-1.218-1.48-1.242-2.27-.022-.786.938-2.09 1.525-2.925l1.022-1.777-.16-9.305c-.286-1.005-1.135-2.572-1.937-2.733-.803-.16-1.98.76-2.876 1.77l-4.645 3.495c-2.228.694-4.174.967-8.09-.027l-5.97.12c-3.137.894-4.773 1.038-7.722-.273l-3.536.058c-1.102.612-2.627 1.597-3.823 1.833-1.196.235-2.814.283-4.01-.09-9.128.625-6.86 1.297-9.47 1.876-2.095-.405-1.423-1.466-9.566-1.544l-3.228-.963c-4.073-2.75-7.21-7.143-9.922-12.192 8.484-2.477 12.044-5.05 14.618-10.95l-11.997.458-16.965-11.49z" fill-rule="evenodd" transform="matrix(.27 0 0 .26 359.68 74.41)" stroke="#544b20" stroke-width="1pt" fill="#dc9103"/>
      <path d="M491.65 147.82l3.397 1.467c.415.503 1.22 1.083 1.75 1.117.532.033.985-.52 1.44-.915l3.126-1.67c-1.853-.273-2.418-1.445-4.388-1.445s-3.355 1.054-5.325 1.445z" fill-rule="evenodd" transform="matrix(.27 0 0 .26 359.74 74.18)" stroke="#000" stroke-width="1pt"/>
      <path d="M506.77 147.78c1.104.664 3.107 1.992 4.758 1.992 1.807-.156 1.778-1.445 4.366-2.304l3.796-3.128c-2.29.026-7.237.483-9.956 1.33-2.29.612-2.822 1.537-2.964 2.11z" fill-rule="evenodd" transform="matrix(.27 0 0 .26 359.68 74.41)" stroke="#000" stroke-width="1pt"/>
      <path d="M497.93 187.57c0 .286-.47.495-.707.156-.29-4.058-1.168-6.905-2.396-10.065 1.386 2.405 2.537 6.294 3.103 9.91z" fill-rule="evenodd" transform="matrix(.27 0 0 .26 359.72 74.47)" stroke="#000" stroke-width="1pt"/>
      <path d="M507.27 204.53c-1.544.16-2.152-.072-3.696.088-.17-4.083-.185-8.752-.16-11.663.59.074 2.31 1.906 3.33 4.793.266 2.13.65 4.534.526 6.782z" fill-rule="evenodd" transform="matrix(.27 0 0 .26 359.82 74.38)" stroke="#000" stroke-width="1pt"/>
      <path d="M518.03 188.2c.696.195 1.666.196 1.893-.273.295-.87-.583-1.818-.912-2.883-1.144-2.287-1.78-4.768-2.258-5.843-.504-.323-1.047-.294-.927.242.657 2.034 1.783 7.974 2.205 8.758zM528.98 186.97c.075.493-1.57-.224-1.846-.785-.024-1.09-2.237-9.054-1.87-9.362.464-.232 1.906 2.662 2.37 3.994.11.788 1.08 3.685 1.346 6.153zM527.42 203.38c-.04.557 1.25.1 1.758-.32 1.473-2.347 3.298-4.81 3.834-5.75.323-1.006 1.935-7.4 1.438-7.35-.176-.185-1.578 3.172-3.388 6.485-1.883 3.374-3.662 6.612-3.642 6.935zM538.4 199.95c-.536.263 1.076-5.53 1.204-6.555.295-1.622.706-4.533 1.352-8.303.79 5.265-.142 10.92-2.556 14.858zM544.98 182.22c-.352.313-5.066-7.63-4.633-7.67.12-.35 3.95 4.972 4.498 5.91.228.443.454 1.12.135 1.76zM556.01 188.12c-.352-.27-.21-2.807-.91-5.592-.696-2.785-1.882-5.47-1.647-6.23.22-.402.987-.217 1.598.32.292 1.514.973 7.327 1.772 11.108-.01.366-.41.615-.812.394zM563.72 181.06c-.377-.41 1.024 2.727 2.044 6.453 1.02 3.727 1.542 10.31 1.79 9.842.7-.474.582-1.065 1.674-1.305 1.09-.24 5.152.146 4.916-.132-2.512-2.28-4.83-4.172-6.56-6.648-1.73-2.476-2.875-5.734-3.864-8.21zM573.22 215.04c-.788.58-2.28 1.04-2.715.8-2.395-5.078-3.736-8.397-7.07-13.826-.858-1.29-2.996-1.09-2.875-1.598.08-.586 1.2-.35 1.926-1.2.725-.85.82-1.925 1.27-2.315-.98 2.344 1.593 5.937 3.035 8.788.96.266 1.723.26 2.174.838.107.274-1.037.468-.89 1.445l2.43 4.993c.793.606 2.014.94 3.196 1.118.31.28-.242.68-.48.96z" fill-rule="evenodd" transform="matrix(.27 0 0 .26 359.68 74.41)" stroke="#000" stroke-width="1pt"/>
      <path d="M512.2 144.948l11.355-40.025 24.102-9.71 12.784 21.615-18.295 37.155c-10.35-3.91-16.268-6-29.945-9.035z" fill="none"/>
      <path d="M578.2 170.66c1.503.085 2.86.22 3.307-.56.92-1.93 1.452-3.52.833-4.773-2.356.193-4.136 1.3-5.098 3.416.03.735.205 1.278.958 1.917z" fill-rule="evenodd" transform="matrix(.27 0 0 .26 359.68 74.41)" stroke="#000" stroke-width="1pt"/>
      <path d="M602.95 169.21c23.293 5.016 44.856 10.724 66.42 17.815 21.56 7.09 42.086 15.566 62.957 24.733l-34.94 71.953c-19.5-7.564-38.757-13.662-58.014-20.003-19.256-6.342-38.023-11.95-57.524-18.048l21.1-76.45z" fill-rule="evenodd" transform="matrix(.27 0 0 .26 359.68 74.41)" stroke="#fdfcfc" stroke-width="1pt" fill="#fdfcfc"/>
      <path d="M598.31 186.21s32.532 7.4 64.056 17.734c31.524 10.334 62.283 23.603 62.16 23.603-.244 0-19.813 41.095-19.813 41.095-18.997-7.705-38.974-14.922-58.705-21.404-19.732-6.482-39.463-12.72-59.684-17.49l11.986-43.538z" fill-rule="evenodd" transform="matrix(.27 0 0 .26 359.68 74.41)" stroke="#e6151e" stroke-width="1pt" fill="#e6151e"/>
      <path d="M601.01 206.31c3.2-1.822 5.367-2.314 7.09-5.317h11.52l.15 4.283c2.83 1.38 4.48 2.906 7.31 4.284 2.83 1.38 6.844 2.61 9.675 3.988l24.814 2.216c3.322.54 8.123 1.97 11.003 3.692 2.88 1.724 4.727 3.89 6.278 6.647 5.096 1.822 10.193 2.905 15.436 3.693 5.244.787 11.816 1.132 16.912 1.33 2.51.886 2.51 2.215 1.33 3.544 0 0-2.808 3.877-10.47 3.914s-16.34-4.357-20.106-3.766c.148 2.363 4.136 7.238 8.715 9.158l-.147 11.224-2.07 1.92-2.214-1.476c1.773-2.658 1.18-5.76.443-8.42-1.7-2.51-1.92-3.544-5.096-3.69-3.767-.74-6.5-1.775-11.3-5.172l-1.773.296c-1.033 1.87-2.067 3.15-4.43 4.283l-4.874-.294s-11.226-2.51-11.226-2.66c0-.146-.148-1.77.148-1.92.295-.147 3.84-.146 4.135-.146 2.364.738 7.386.738 7.386.738l-.15-4.284 7.534-.443c-1.526-5.316-2.02-8.714-9.01-9.895l-21.86.59.295 3.103c-5.466-.74-15.362-.87-20.417.836-2.954.296-7.205 1.822-9.125 1.822l-2.216-.59c-1.477-.443-1.477-.886-.886-2.216 9.453-.74 10.93-1.477 13.737-2.806.148-.886-1.034-2.807-1.477-2.955-5.908-.296-10.635.147-12.26-.148-2.51-.74-5.908-2.068-5.908-2.216s-.443-2.363-.295-2.363c.147 0 3.84 1.034 3.987 1.034 3.99.738 10.93.443 12.556-.443l.148-3.25c-.148-1.477-1.182-2.806-1.478-2.954-.295-.148-6.5-.886-8.715-.886-3.593-.64-3.05-2.462-3.1-4.284z" stroke-opacity=".996" fill-rule="evenodd" transform="matrix(.27 0 0 .26 359.68 74.41)" stroke="#010001" stroke-width="1pt"/>
      <path d="M648.72 232.6c3.348 1.083 5.81 1.427 10.783 1.772l7.533-.443c-1.526-5.318-2.02-8.716-9.01-9.897l-21.86.59.295 3.103c6.648 2.51 9.897 3.89 12.26 4.874z" stroke-opacity=".996" fill-rule="evenodd" fill-opacity=".996" transform="matrix(.27 0 0 .26 359.68 74.41)" stroke="#010001" stroke-width="1pt" fill="#fdfdfd"/>
      <path d="M101.18 306.6L37.61 165.03l47.267-83.313 91.45 34.667 40.2 154.53c-42.014 10.284-68.886 19.038-115.35 35.686z" fill-rule="evenodd" fill-opacity=".996" transform="matrix(.26 .04 -.04 .26 403.49 61.86)" stroke="#011171" stroke-width="1pt" fill="#011171"/>
      <path d="M78.28 151.27l13.75 12.344-3.905 19.844 19.063-6.72 14.062 12.345 3.125-18.28L140 165.644l-11.875-13.125 3.906-18.124s-18.75 5.624-18.75 5.468-12.498-12.187-12.655-12.03c-.156.155-4.063 17.186-4.063 17.186l-18.28 6.25z" stroke-opacity=".996" fill-rule="evenodd" fill-opacity=".996" transform="matrix(.27 0 0 .26 359.68 74.41)" stroke="#fdc605" stroke-width="1pt" fill="#fbfd10"/>
      <path d="M380.542 113.844l16.258 3.662-4.19 1.424-3.773-3.052s3.07 7.65 3.028 7.61-3.567-2.97-3.692-3.093l.623-4.517s-5.64 6.266-5.64 6.226c0-.04 1.077-5.127 1.077-5.127l-3.69-3.133zM385.27 112.177l3.608 3.458-2.488-8.015-1.12 4.557zM389.71 110.875c.04.04-.872 4.68-.83 4.68.414-.49 5.847-6.145 5.806-6.145-.04 0-4.894 1.506-4.977 1.465z" fill-rule="evenodd" fill="#ffc500"/>
      <path d="M78.28 151.27l13.75 12.344-3.905 19.844 19.063-6.72 14.062 12.345 3.125-18.28L140 165.644l-11.875-13.125 3.906-18.124s-18.75 5.624-18.75 5.468-12.498-12.187-12.655-12.03c-.156.155-4.063 17.186-4.063 17.186l-18.28 6.25z" stroke-opacity=".996" fill-rule="evenodd" fill-opacity=".996" transform="matrix(.2 .16 -.17 .2 546.72 62.47)" stroke="#fdc605" stroke-width="1pt" fill="#fbfd10"/>
      <path d="M537.615 105.984l10.28 12.89-4.17-1.483-.973-4.7s-2.526 7.837-2.532 7.78-.864-4.51-.882-4.683l3.382-3.124s-8.404 1.383-8.378 1.352c.026-.032 4.13-3.317 4.13-3.317l-.856-4.712z" fill-rule="evenodd" fill="#ffc500"/>
      <path d="M542.357 107.61l.584 4.916 3.213-7.764-3.795 2.848zM546.642 109.34c.006.06-3.68 3.098-3.648 3.123.635-.123 8.486-1.16 8.454-1.185-.032-.026-4.768-1.854-4.806-1.937z" fill-rule="evenodd" fill="#fdc605"/>
      <path d="M175.37 121.34c21.456-10.454 45.538-18.61 70.935-22.167 24.41-3.558 48.84-3.866 73.908-3.812 0 0 3.284 39.133 3.284 39.462-19.704.164-34.388-.21-69.147 4.374-34.564 4.886-48.802 9.073-69.82 17.283l-9.16-35.14z" fill-rule="evenodd" transform="matrix(.27 0 0 .26 359.68 74.41)" stroke="#e6141d" stroke-width="1pt" fill="#e6141d"/>
      <path d="M193.74 190.62c-.33 0 10.855 41.397 10.855 41.397 20.635-5.31 41.598-9.305 62.56-12.315s43.258-4.725 63.564-6.093l-3.596-40.377c-21.4-1.314-45.792-1.314-67.85 1.64-22.058 2.957-43.476 8.194-65.534 15.747z" fill-rule="evenodd" fill-opacity=".996" transform="matrix(.27 0 0 .26 359.68 74.41)" stroke="#e6141d" stroke-width="1pt" fill="#e6141d"/>
      <path d="M95.246 318.45h598.87v391.42c-15.22 152.44-158.96 266.38-290.3 265.51-141.79 6.31-298.57-111.99-309.88-266.82l1.305-390.12z" fill-rule="evenodd" transform="matrix(.27 0 0 .26 359.68 74.41)" stroke="#e5141d" stroke-width="4" fill="#fff"/>
      <path d="M95.246 318.45h598.87v391.42c-15.22 152.44-158.96 266.38-290.3 265.51-141.79 6.31-298.57-111.99-309.88-266.82l1.305-390.12z" fill-rule="evenodd" transform="matrix(.25 0 0 .25 364.04 81.44)" stroke="#e5141d" stroke-width="4" fill="#d61517"/>
      <rect fill-rule="evenodd" ry="0" transform="matrix(.27 0 0 .26 359.68 74.41)" width="110.6" y="334.03" x="452.68" height="122.35" fill="#fff"/>
      <rect fill-rule="evenodd" ry="0" transform="matrix(.27 0 0 .26 359.39 74.41)" width="110.6" y="334.03" x="225.6" height="122.35" fill="#fff"/>
      <rect fill-rule="evenodd" ry="0" transform="matrix(.27 0 0 .26 359.68 74.41)" width="112.08" y="460.43" x="109.11" height="119.42" fill="#fff"/>
      <rect fill-rule="evenodd" ry="0" transform="matrix(.27 0 0 .26 359.68 74.41)" width="109.49" y="460.43" x="339.51" height="119.42" fill="#fff"/>
      <rect fill-rule="evenodd" ry="0" transform="matrix(.27 0 0 .26 359.68 74.41)" width="112.83" y="460.43" x="566.58" height="119.42" fill="#fff"/>
      <rect fill-rule="evenodd" ry="0" transform="matrix(.27 0 0 .26 359.68 74.41)" width="110.6" y="583.52" x="452.68" height="121.25" fill="#fff"/>
      <rect fill-rule="evenodd" ry="0" transform="matrix(.27 0 0 .26 359.68 74.41)" width="110.6" y="583.52" x="224.5" height="121.25" fill="#fff"/>
      <rect fill-rule="evenodd" ry="0" transform="matrix(.27 0 0 .26 359.68 74.32)" width="109.49" y="708.81" x="339.51" height="121.25" fill="#fff"/>
      <path d="M567.28 709.5l.028 119.12 67.34.09c30.722-45.75 41.243-90.314 44.132-119.18-.498 0-111.06-.055-111.5-.027zM453.36 834.44l.017 119.54c47.9-10.147 86.914-33.282 109.25-50.264l.01-69.323-109.27.048zM225.34 834.21l-.158 67.544c37.624 27.974 80.592 44.345 109.21 50.64l.02-118.14-109.07-.044zM109.32 709.34c3.572 46.8 23.13 90.21 44.144 119.57l67.057-.115.013-119.5-111.21.05z" fill-rule="evenodd" transform="matrix(.27 0 0 .26 359.68 74.41)" stroke="#fff" stroke-width="1pt" fill="#fff"/>
    </g>
  </g>
</svg>
