<svg viewBox="0 0 512 512" xmlns="http://www.w3.org/2000/svg" xmlns:xlink="http://www.w3.org/1999/xlink"><path d="m0 0h512v512h-512z" fill="#d21034"/><path d="m0 0h512v256h-512z" fill="#00209f"/><g fill="#f1b517" stroke="#000" stroke-width=".2"><path d="m175.2 191.6h161.6v128.6h-161.6z" fill="#fff" stroke="none"/><path d="m288.5 284.6-33 1-32.8.3s-16.8 6.3-23.7 7.7-6 3.6-11.3 4.8c-4.3 1-4.8 1.3-7.3 1.4-1.5.1-3.3 1.3-5.2 2.6v17.8h161.6v-17a31.8 31.8 0 0 0 -5.2-2.1c-2.3-.8-4-1.7-8.2-2.7-5.3-1.2-4.4-3.4-11.3-4.8s-23.6-9-23.6-9z" fill="#016a16" stroke="#016a16" stroke-width=".3"/><g transform="matrix(1.70667 0 0 1.70667 -170.7 0)"><g><g id="a"><path d="m244.5 143.5h1.4l2.6 10.7-.6 3.4-3.4-14z"/><path d="m243 136.3 1 8.3h1l-2-8.2z" fill="#fff"/><path d="m245.7 154.6-4.3-11.5 1.6-.1 5 14z"/><path d="m239.4 136.5 1.8 8h1.4z" fill="#fff"/><path d="m241.9 150.6-2.5-5.5 1-.2 4.7 9z"/><path d="m236 138.8 2.9 7.6h1.4l-4.2-7.6z" fill="#fff"/><path d="m242.3 151.4-11.5-12.5c-3.6 2.8-2.9 8-2.9 8l13 10.2 1.3-5.7z" fill="#0a328c"/><path d="m248.9 158.2-8.5-8.6c-3.6.2-.8 5.5-.6 6.2l9 7.7v-5.3z" fill="#d20014"/><path d="m248.1 156.8-17.5-18.8-.7.5 18.6 20.6zm-18.5-20-.4-.5v-.9l-3.6-2.3 1.6 3.7 1.3.2.3.4z"/><path d="m227.7 138.1a8.4 8.4 0 0 1 2.7-2.2l1 1.5-2.2 1.8-1.5-1z"/><path d="m225.8 141.3.6 1c.4-.1 4-3.5 4-3.5h2.7l.7-.9c-2-2-3.7.3-3.7.3l-4.3 3z" fill="#0a328c" stroke="#0a328c"/><path d="m228 143c0-1 1.8-3.2 2-3.3 1.3.4 2.5 1.2 3.9-1.8-1.2 1.4-3.5 0-3.5 0l-1 .8v.4l-3 2.8 1.5 1.1z" fill="#d20014" stroke="#d20014"/><path d="m237.3 154.7-14.4-11.4c-2.5 2.5-.4 10.2-.4 10.2l14 7.6.7-6.4z" fill="#0a328c"/><path d="m249.2 164-11.9-9.6c-4 .6-.8 6.5-.6 7.2l12.5 6.8v-4.5z" fill="#d20014"/><path d="m248.7 162-25.6-19.2-.5.6 26.8 21zm-26.8-20.2-.4-.4-.2-.8-4-1.7 2.3 3.3h1.3l.4.4z"/><path d="m220.3 143.4a8.2 8.2 0 0 1 2.3-2.6l1.2 1.3-1.8 2.1z"/><path d="m219 146.6v1.1c.4-.2 3.7-3.7 3.7-3.7l2.5-.5.6-.8c-1.8-2.1-3.7.7-3.7.7l-3.2 3.2z" fill="#0a328c" stroke="#0a328c"/><path d="m221 148.5c-.2-1 1.2-3.8 1.4-4 1.6.5 3 1.2 3.5-2-1 1.6-3.5.4-3.5.4l-.8 1v.5l-2.5 3.3z" fill="#d20014" stroke="#d20014"/><path d="m236.2 161.7a2783.3 2783.3 0 0 1 -18.5-10.5c-1.3 2.3-.1 5.5.5 6 0 1.5-.6 2.3.7 5.5.4 2 1.3 3.9 2.7 5 1.6 6.4 8.2 6.9 10.7 1.6l4-7.6z" fill="#0a328c"/><path d="m248.3 168.5-12.5-7.3c-4 .5 0 8 .3 8.7l12.2 4.3z" fill="#d20014"/><path d="m246.2 165.8-28.3-15-.5.6 30 16.7zm-29.7-15.8-.5-.3-.3-.8-4.1-1 2.7 2.9 1.2-.2.6.3z"/><path d="m215.2 151.8c.4-1 .8-1.9 1.8-3l1.4 1.1-1.4 2.4z"/><path d="m214.1 155.2.6 1.2 3-4.6 2.5-.9.5-1c-2-1.8-3.5 1.4-3.5 1.4z" fill="#0a328c" stroke="#0a328c"/><path d="m216.8 156.8c-.2-1 .5-4.2.7-4.3 1.5.5 2.8.6 3.2-2.6-1 1.5-3.3 1-3.3 1l-.7 1 .1.4-2 4z" fill="#d20014" stroke="#d20014"/></g><use height="100%" transform="matrix(-1 0 0 1 499.9 0)" width="100%" xlink:href="#a"/></g><g><path d="m248.8 125.6-.5 9h2.9l-.4-9 3-.3-.3-3.6-7.5.3v3.2z" fill="#016a16" stroke="#016a16"/><g id="b" fill="#016a16"><path d="m249.8 121.9c-7.8-7.8-13.9-4-15.3-2.9 1 .2 1.8-.4 2.3-.5l-1 1.2s2.5-1 2.8-1c-.4.3-.8 1-.8 1 .2 0 1.6-1.1 1.8-1.1-.4.4-.5 1.5-.5 1.5l1.2-.5c.3.2-.1.6.1.6 2-.2 4.7 1.7 5 2.3"/><path d="m247.9 123.3c-.8-1.8-15.6-5-18.6.3 1.2.3 2.3-1 2.3-1v1.2l1.9-1.6-.7 1.6 1.5-1.3v1.3l2-2-.3 1.1 1.7-.7-.2 1"/><path d="m247.2 123.6c-3.8-2.5-9.6-.8-9.6-.8-3.8 2-5.8 1.7-6.2 5.6.3-.1 1.3-1.4 1.3-1.4l.8 1.5.2-2.1.6 1.7 1-2.8.2 1.9 1.4-1.9.6.6.6-1.5.6 1s1-.6 1.5-.3l1-1.2.3.9 1-1 .3.7.9-.8v.6h3"/><path d="m246.4 124c-2.7 0-10.3 2.9-12.2 5.8a13.3 13.3 0 0 1 1.3-.6l.3 1.2.5-1.2.1 1c.3-.8.6-.8 1.2-.1l.2-1.1.3 1 .5-1.1s.3 1.2.5 1.2c0 0 .8-2.2 1.2-2.3l.1 1.4.5-1.4.5 1v-1.4l.6 1s.2-1 .6-1.2l.8.7 3.4-2.5"/><path d="m246.9 124.7c-3.5 1.3-6.7 6.2-6.4 8.2 1.5-2 1.2-1.7 1.9.6 0 0 .2-2 .5-2.2l.5 1.4.1-1.9h.5l-.1-1.1.7.5c-.2-.7-.3-.9.4-1.5 0 0-1 .1-.2-1.5l.7.6s-.2-.7 0-1l2.6-.8"/><path d="m247.2 125-1.3 2.6.7.2-1.6 1.1 1.3-.1s-2 .7-2.2 2.7l2-1s-1.7 1.8-2 2.9l1.3-1s-1.2 1.2-1 3l.9-1c-.2 2.3-.2 2.5.8 4.2 0 0-.2-2.6 0-3l2.3 2.4-1.2-3.3s1.4 2 2.2 1.9l-1.8-2.7 1.8 1.4-2-3 1.8.6s-1.3-1.7-1.2-2.8l1.3 1.4s-.5-1.5-.4-2l.7.1-1.3-1.4.9-.2-.1-1 .6-.1v-1.1m-1.1 0c-2.2 3-1.1 7.5-2.4 9.9"/></g><use height="100%" transform="matrix(-1 0 0 1 499.9 0)" width="100%" xlink:href="#b"/><path d="m251 166.5s1.1-10 1.1-14.2c0-3.4-.8-10.8-.8-10.8h-3.3s-.5 7.4-.4 10.8c0 4.2 1.1 14.2 1.1 14.2z"/><path d="m247.7 142h4l-.5-2.7h-2.9l-.6 2.6z"/><path d="m248 139.8h3.5l-.7-2.7h-2.2l-.7 2.7z"/><path d="m248.2 137.7h3l-.6-2.7h-1.9z"/><path d="m250.7 134.7h-2l-.3 1h2.5zm.4 29.7h-2.6m2.8-2h-3m3.4-2h-3.8m4-2.1h-4m4-2.2h-4.1m4.2-2h-4.4m4.4-1.7h-4.6m4.6-2.2h-4.6m4.5-2.1h-4.5m4.3-2.2h-4.1m3.9-2h-3.7"/><path d="m250 119c-.8-.3-2.3-1.3-1.9-1.9l.7-1.2c1-2.2 0-1.4 0-2-.2-.8 3.8-.2 3.8 1.3 0 .5-.3.2-.2 2.6l-.8 1.5a3.5 3.5 0 0 1 -1.7-.2z" fill="#0a328c" stroke="#0a328c"/><path d="m250.4 125-1-.9.3-7.1 1 .3-.3 7.6z"/><path d="m251.7 119.3c.6-.4 1-1.5.6-2.1-1-1.3-1.7-.8-3.4-1.4-.3.4-1 1-.9 1.6 2.3 1 1.4.2 2.2.3.4 0 .6.5 1.5 1.5z" fill="#d20014" stroke="#d20014"/></g><g><use height="100%" transform="matrix(1 0 0 -1 0 320.4)" width="100%" xlink:href="#c"/><path d="m238.4 161.8c0 1.2-.9 2.3-1.9 2.3s-1.8-1-1.8-2.4v-1.2h3.7v1.2z" fill="#016a16" stroke="#fff" stroke-linecap="round"/><ellipse cx="236.5" cy="160.1" fill="#fff" rx="1.8" ry=".9" stroke="none"/><path d="m236.1 161-.3-3.2h1.4l-.2 3.3h-.9z" fill="#016a16" stroke="#f1b517"/><path id="c" d="m238.5 160.1c-.2.5-1 .9-2 .9s-1.7-.4-2-.9a.8.8 0 0 0 0 .4c0 .7.9 1.2 2 1.2 1.2 0 2.1-.5 2.1-1.2a.8.8 0 0 0 0-.4z" fill="#016a16" stroke="#fff" stroke-linecap="round"/><g id="d"><path d="m246 172.8-7-2.2-3.1-5.3-10.9-.5.4 4 9.3 1.7.8 1.6 10.7 3z"/><path d="m238.7 174.3-11.2-16.5-.5.5 11 16.4z" fill="#503200"/><path d="m228.6 158.5-1.2-2c-.3-.4-.6-.5-1.1-.2-.5.2-.4.7-.2 1.1l1 1.9z" fill="#fff"/><path d="m240 164.1-22.5-2.3-.6 3.3 22.4 2.3z"/><path d="m217 161-.5 4.5h1l.6-4.1-1-.4zm3.8.7-.2 4.1h.6l.5-3.5-.8-.6zm15.3 1.8-.6 3.8h1.1l.5-3.8zm3.3.1-.7 4.4 1.2.2.4-2.3c0 .5.5.8 1 .8.6 0 1-.5 1-1 0-.6-.4-1-1-1a1 1 0 0 0 -1 .6l.3-1.6zm-8 .7-3.2 3.5.4.4 4-2.7-1.3-1.2zm-7.4 8.7 3.1-3.5-.3-.4-4 2.7zm8.1-.9-3.7-2.9-.4.3 3 3.8zm-9.3-6.7 3.9 2.8.4-.3-3-3.8zm4.2-2.3.4 4.6h.5l1.2-4.5zm1.2 11-.3-4.5h-.6l-.7 4.6h1.6zm5.1-6-4.8.4v.5l4.8.6v-1.6zm-11.4 1.5 4.7-.7v-.4l-4.8-.5v1.6z"/><ellipse cx="227.7" cy="168.6" rx="1.3" ry="1.2"/><path d="m234.4 168.6c0 3.5-3 6.5-6.7 6.5a6.6 6.6 0 0 1 -6.7-6.5c0-3.6 3-6.5 6.7-6.5a6.6 6.6 0 0 1 6.7 6.5zm-1.3 0a5.3 5.3 0 0 1 -5.4 5.2 5.3 5.3 0 0 1 -5.4-5.3 5.3 5.3 0 0 1 5.4-5.1 5.3 5.3 0 0 1 5.4 5.2z" fill-rule="evenodd" stroke-linecap="round"/><path d="m223.5 165.3-1-.8m8.5 0 1-1m1 9.2-1.1-.9m-8.4 1.9 1-1m21.7-10.6 1.1 6-.9.4-1-6.3h.8z"/><path d="m245.6 161.4c-.5-.3-1.2.1-2.4-1.3-1.9 1.7 0 2 .2 3.7.5.2.9-1.4 2.3-1.5l2.3-.2-.5-.7h-2z" fill="#fff"/><path d="m246.4 162.5-.2-1.7c-.3-.7-1-.1-1 .2l.2 1.7z" fill="#fff"/><path d="m240.8 167.4v1.6c-.6.2-.5.6-.5 1.2v4.7c-.1.4-.7.4-1 .6-.3.3-.2.8 1 1l1 .1c1.5-.3 1.8-.8 1-1-.3-.2-.9-.4-1-.6v-1.2h1c.2 0 .7-.6.7-1.1v-2.5c0-1.4-1-1.6-1.4-1.5v-1.3zm1.6 2.7c0-.4-.6-.8-.8-.8s-.7.5-.7.9v1c0 .4.3 1.6.9 1.7.2 0 .6-.4.6-.8z" fill-rule="evenodd"/><path d="m234.3 172.3c-.7-.2-.7 1.2-.7 1.2h1c.5.2.8.8.6 1.2-.3.2-2.2-.5-2.3 0 .3 1.9 2.9 2.6 3.8 1.8.9-.9 1.1-3-1.8-3.7zm.6.6-.3.6" fill="#fff"/><path d="m215 173-1-4m2.1 3.8-1.5-3.1m4 2.3-3.3-1.8m4.8 1.4-6.2-2.7"/><path d="m210.2 166-2.6.1c-.2.1.5.9.4 1.1-.6 1.1-4.4 1-4.7.8-.5-.5 3.5-.8 3.6-1 0-.4-.6-1.2-.5-1.7 0-.7 1.7-1 1.7-1z" fill="#d20014" stroke="#d20014"/><path d="m213.2 168-5-4.2s-.3-.2-.5 0 0 .4 0 .4l5.4 4.4.1-.5z" fill="#503200"/><path d="m218.2 172.2-4.2-3.6-.3-1-.8.6c-.3.2-.6.8-.6.8h1.1l3.6 3.4 1.1-.2z"/><ellipse cx="232.5" cy="177.1" rx=".7" ry=".7"/><ellipse cx="230.6" cy="175.7" rx=".7" ry=".7"/><ellipse cx="228.1" cy="176.6" rx=".7" ry=".7"/><ellipse cx="224.2" cy="177.4" rx=".7" ry=".7"/><ellipse cx="222.5" cy="177.6" rx=".7" ry=".7"/><ellipse cx="220.8" cy="177.6" rx=".7" ry=".7"/><ellipse cx="219.2" cy="177.6" rx=".7" ry=".7"/><ellipse cx="220" cy="176.3" rx=".7" ry=".7"/><ellipse cx="221.6" cy="176.4" rx=".7" ry=".7"/><ellipse cx="223.1" cy="176.2" rx=".7" ry=".7"/><ellipse cx="222.4" cy="175" rx=".7" ry=".7"/><ellipse cx="220.8" cy="174.9" rx=".7" ry=".7"/><path d="m236.5 178c0-.3-.8-.2-.8-.6s1.2 0 1.3.3c.7-.6 1-.2 1.4 0 .6-.8 1.3-.8 2-.2.4-.4 1.4-.3 1.7.2.7-.6 1.3-.5 1.7 0 .2-.3.5-.3.7 0 .3-.7 1.2-.5 1.6 0 .3-.4.7-.1 1.1.1.3-.2.8-.2.8 0 0 .4-.6.3-.6.6 0 .2.4 0 .4.4 0 .3-.6.4-.7 0-.3.4-1.1.2-1.2-.2a.8.8 0 0 1 -1.2 0c-.3.2-.7.2-.8 0-.5.5-1.4.4-1.7-.2h-.3a1 1 0 0 1 -1.5 0c-.9.6-1.4.4-1.9 0-.5.7-1.4.7-1.5 0-.4.3-1.2.4-1.2 0 0-.2.7-.1.7-.4zm1.6.1c0 .2-.2.3-.4.3s-.4-.1-.4-.3.1-.2.4-.2.4.1.4.2zm1.9-.2c0 .2-.3.3-.6.3s-.5-.1-.5-.3c0-.1.2-.3.5-.3s.5.2.5.3zm3.5.2c0 .2-.2.3-.5.3s-.4-.1-.4-.3c0-.1.2-.3.4-.3s.5.1.5.3zm-1.9 0c0 .2-.2.3-.5.3s-.4-.1-.4-.4c0-.2.2-.4.4-.4s.5.2.5.4zm4 0c0 .1-.1.3-.3.3-.3 0-.5-.2-.5-.4s.2-.3.5-.3c.2 0 .4.1.4.3zm-1.2 0c0 .2 0 .3-.2.3s-.3-.1-.3-.3.1-.2.3-.2zm2.4.1c0 .2 0 .4-.3.4-.1 0-.3-.2-.3-.4s.2-.3.3-.3c.2 0 .3.1.3.3z" fill-rule="evenodd"/></g><use height="100%" transform="matrix(-1 0 0 1 499.9 0)" width="100%" xlink:href="#d"/><path d="m249.8 165.7c-2.5 0-4.5 1-4.5 2.1 0 .2 0 .4.2.6.5.6 2.3 1 4.4 1 2 0 3.6-.3 4.2-.9.2-.2.3-.4.3-.7 0-1.1-2-2-4.6-2z" fill="#0a328c" stroke="#0a328c"/><path d="m254.4 168v7c0 .9-2 1.5-4.5 1.5s-4.6-.6-4.6-1.5v-7c0 .8 2 1.5 4.5 1.5 2.6 0 4.6-.7 4.6-1.5z"/><path d="m245.3 168v1l2.2 7 1.8-5.4 2 5.5 1.3-5.2 1.8 3.5v-1.9l-1.6-3.4a8.3 8.3 0 0 1 -.6.2l-1 3.8-1.5-3.6a14.5 14.5 0 0 1 -.7 0l-1.5 3.6-1.6-4.4c-.4-.2-.6-.5-.6-.7z" fill="#d20014" stroke="#d20014"/><path d="m254.4 173.7v1.3c0 .9-2 1.5-4.5 1.5s-4.6-.6-4.6-1.5v-1.3c0 .9 2 1.5 4.5 1.5 2.6 0 4.6-.6 4.6-1.5z" fill="#0a328c" stroke="#0a328c"/><path d="m251.7 175-1.1.2v1.3l1.2-.1v-1.3zm-4.8-.1v1.3l1.1.2v-1.3a8.9 8.9 0 0 1 -1.1-.2zm-1.6-1.2v1.3c0 .3.2.5.5.7v-1.3c-.3-.2-.5-.4-.5-.7zm9.1.2c0 .2-.4.5-.8.7v1.3c.5-.2.8-.5.8-.9v-1z"/><path d="m254.4 168v7c0 .9-2 1.5-4.5 1.5s-4.6-.6-4.6-1.5v-7" fill="none"/><path d="m253.4 167.5c0 .5-1.6 1-3.5 1-2 0-3.6-.5-3.6-1s1.6-.9 3.5-.9c2 0 3.6.4 3.6 1z" fill="#fff" stroke="#fff"/><path d="m248.7 168.2.2 1.2h1l.1-1.2zm4.1-.3-1 .2.1 1.2 1-.2v-1.1zm-5.4-2-.7.3.1 1 .6-.2v-1zm2.4-.3h-.3l.2 1.2h.6l.2-1.2a9.7 9.7 0 0 0 -.7 0zm2.7.4-.1 1 .7.3v-1a5.3 5.3 0 0 0 -.6-.3zm-6.5 2.8.2-1.3-1-.5v1.5zm8.4-.3v-1.3l-.8.3zm9.3-8.5c.8 0 2 1 2.1 2.5 0 1-1.7 1-1.7 1 0 .5-1 .9-1.8 1-.8 0 .2-1.5.2-1.5-.5-1.3.2-2.7.2-2.7z"/><path d="m262.5 163h.8s0 .3.2.3.3-.4.3-.4h1.2"/><path d="m264.1 160.9c.7-.5.1-1.5-.4-1.5h-1c-.6 0-1.4.6-1.3 1 0 .5.4.7.8.6.2 0 .6-.6.8-.6.3 0 1 .6 1.1.5z" fill="#d20014" stroke="#f1b517"/><path d="m214.2 174.8c-.6.1-.7.8-.5 1.5-2.6.7-5 1.7-7.4 2.4-.1-.5 1.2-1.8 1.2-1.8.3.1.6.9.6.9 0-1.6 1.6-2.6 1.6-2.6-1-.2-3.7 1-4 1.4 0 0 1-.2 1.2 0 0 0-2.2 2.3-2.3 3 .4.7 4 1.3 4 1.3 0 .2-1 1-1 1 1.5.2 3.7-.8 4.3-1.4 0 0-1.7-.2-3-1.3 0 0 .2.7 0 1 0 0-2-.6-2.3-1 0 0 5-1.2 7.4-2 .1.5.6 1.3 1.2 1.1.3-.1.2-.8 0-1.4a.8.8 0 0 0 .6.2c.4 0 .7-.3.7-.7s-.3-.7-.7-.7a.8.8 0 0 0 -.7.5c-.1-.5-.4-1.4-.8-1.3zm2 1.6c0 .2-.2.3-.4.3a.3.3 0 0 1 -.4-.3c0-.2.2-.4.4-.4s.3.2.3.4z" fill-rule="evenodd"/><path d="m293 177.9c.2-.4 0-2.2 0-2.2-.5 0-1 .7-1 .7.5-1.6-.8-4-.8-4 .9.1 3.9 3 4 3.6 0 0-1.3-.5-1.5-.4.3 1.5 1.3 2.2 1.7 3 0 0-1.7.3-1.6 1.8h-1.1c-.4-.5.1-1.3.1-1.3l-7.7-3.2c-.5-.2-1.6-.8-1.4-1.4.1-.5 2 .3 2.4.5l7 2.9z"/><path d="m285.6 176.5 1-1.6c.3-.5-.4-1-.9-.4l-1 1.5c-.4.9.5 1.1 1 .5z"/></g></g><g fill="#fff" stroke-width=".3"><path d="m224.2 307.8-.1-3-3.8.1-.2 3.4z"/><path d="m196.7 312.2-5-2.8c20.7 1.9 25-5.4 30-5.8 3-.2 3.5 3.4-2.4 1.7l1.5 3.8s-14.8 8.3-29.2 5l5-2zm90.5-4.4v-3h4.7l.2 3.4-5-.4z"/><path d="m315.6 311.4 4.8-2.6c-23.8.8-18.4-3.9-30.3-5.2-3-.3-5.4 3.7 2.4 1.7l-1.5 3.8h3.7a35 35 0 0 0 26.3 4.1z"/><path d="m219.2 305.3v5.4s13.2 5 36.7 5c23.6 0 36.7-5 36.7-5v-5.4s-10 4.6-36.7 4.6c-26.6 0-36.7-4.6-36.7-4.6z"/></g><path d="m221.1 310.8 1.2-4 .5.2-1 3.4 2 .6-.1.5-2.6-.8zm3.9-1.8v-.8l.2-.6.6.1-.2.7-.3.7h-.3zm5.6-.3.6.2-.5 2.3c0 .4-.2.7-.4 1l-.6.4a2 2 0 0 1 -1 0 2 2 0 0 1 -1-.4 1.1 1.1 0 0 1 -.3-.6v-1l.5-2.4.6.1-.5 2.3c-.1.4-.1.7 0 .8 0 .2 0 .4.2.5l.5.2h1c.2-.2.3-.5.4-1zm.6 4.3.7-4h.6l1.7 3.6.5-3.2.5.1-.7 4h-.5l-1.7-3.6-.5 3.2h-.6zm4.4.7.6-4h.5l-.6 4zm1.6-1.8a2.2 2.2 0 0 1 .7-1.5 2 2 0 0 1 1.6-.4c.4 0 .7.1 1 .3.3.3.5.5.6.9.1.3.2.7.1 1.1a2.4 2.4 0 0 1 -.4 1c-.2.4-.5.6-.8.7a2.2 2.2 0 0 1 -1 .2 2 2 0 0 1 -1-.4c-.4-.2-.6-.5-.7-.9a2.2 2.2 0 0 1 -.1-1zm.6 0c-.1.6 0 1 .2 1.3.3.3.6.5 1 .5s.8 0 1.1-.3.5-.6.5-1.2a2 2 0 0 0 0-.9 1.3 1.3 0 0 0 -.5-.6 1.4 1.4 0 0 0 -.7-.3c-.4 0-.7 0-1 .3-.4.2-.6.7-.6 1.3zm3.9 2.5.3-4.1h.6l2 3.4.2-3.2h.6l-.4 4.2h-.5l-2-3.5-.3 3.2zm6 .4.1-4.1 3 .1-.1.5h-2.3v1.2h2l-.1.5h-2v1.8zm3 .1 1.8-4h.6l1.7 4.1h-.7l-.5-1.3h-1.6l-.5 1.3h-.6zm1.3-1.6h1.5l-.4-1.1a10.9 10.9 0 0 1 -.3-.9c0 .3-.2.5-.3.8zm3.3 1.7v-4.1h.6v4.1zm2.6 0v-3.6h-1.4v-.5h3.3v.4h-1.4l.1 3.7zm4.2-.1-.2-4.1h.6l.1 3.6 2.1-.1v.5h-2.6zm2.9-.1 1.3-4.2h.6l2 3.9h-.6l-.6-1.2-1.8.2-.3 1.2h-.6zm1-1.8h1.5l-.5-1.2a11 11 0 0 1 -.4-.8 5.3 5.3 0 0 1 -.2.8l-.3 1.2zm5 1.3-.4-4 2.8-.4v.5l-2.2.3.1 1.2 2-.2v.5l-1.9.2.2 1.8-.5.1zm3.2-2.3c-.1-.7 0-1.3.3-1.7a2 2 0 0 1 1.4-.8 2 2 0 0 1 1 .2c.4 0 .7.3.9.6a2.5 2.5 0 0 1 .3 2.2 1.7 1.7 0 0 1 -.6.8c-.3.2-.7.4-1 .4a2 2 0 0 1 -1.1-.1 1.9 1.9 0 0 1 -.8-.7 2.3 2.3 0 0 1 -.4-1zm.5-.1c.1.5.3.9.6 1 .3.3.7.4 1.1.4s.8-.3 1-.6.3-.7.2-1.3a2 2 0 0 0 -.3-.8 1.3 1.3 0 0 0 -.6-.5 1.4 1.4 0 0 0 -.8-.1 1.4 1.4 0 0 0 -1 .5c-.2.3-.2.8-.1 1.4zm4.5 1.4-.8-4 1.9-.4h.9c.2 0 .4.1.5.3.2.1.3.3.3.6a1 1 0 0 1 -.2.7c-.1.2-.4.4-.8.5l.4.2.6.4.9 1-.7.1-.7-.7a8 8 0 0 0 -.5-.5 1.3 1.3 0 0 0 -.3-.2.9.9 0 0 0 -.3 0h-1l.4 1.9h-.6zm.1-2.4 1.2-.2c.3 0 .5 0 .6-.2a.6.6 0 0 0 .3-.6.6.6 0 0 0 -.3-.5h-.7l-1.3.2zm6.7-.4h.6c0 .4-.1.8-.4 1.1-.2.3-.6.5-1 .6a2 2 0 0 1 -1.1 0 1.7 1.7 0 0 1 -.9-.7 2.7 2.7 0 0 1 -.4-1v-1.1c0-.4.2-.7.5-.9a2 2 0 0 1 1-.4 1.8 1.8 0 0 1 1 0c.4.2.7.4.9.8l-.5.2a1.3 1.3 0 0 0 -.6-.5 1.2 1.2 0 0 0 -.7 0c-.4 0-.6.1-.8.3a1 1 0 0 0 -.3.7 2.5 2.5 0 0 0 .4 1.6c.2.3.4.4.6.5.3 0 .5.1.8 0 .3 0 .5-.1.7-.4.2-.2.3-.5.2-.8zm1.6 1-1.1-3.9 3-.8v.5l-2.4.7.4 1.2 2.2-.6.2.4-2.3.6.4 1.4 2.5-.7.2.5-3 .8z" fill="#000" stroke="none"/></g></svg>