<svg xmlns="http://www.w3.org/2000/svg" xmlns:xlink="http://www.w3.org/1999/xlink" id="flag-icon-css-ht" width="512" height="512">
  <path fill="#d21034" d="M0 0h512v512H0z"/>
  <path fill="#00209f" d="M0 0h512v256H0z"/>
  <g fill="#f1b517" stroke="#000" stroke-width=".18">
    <path fill="#fff" stroke="none" d="M175.24 191.63h161.52v128.58H175.24z"/>
    <path fill="#016a16" stroke="#016a16" stroke-width=".31" d="M288.5 284.61l-32.96.96-32.81.37s-16.86 6.24-23.75 7.64c-6.87 1.4-5.98 3.65-11.3 4.84-4.25.95-4.74 1.25-7.24 1.42-1.52.1-3.38 1.26-5.2 2.54v17.83h161.52v-16.96a31.76 31.76 0 0 0-5.13-2.19c-2.37-.8-3.97-1.69-8.23-2.64-5.31-1.19-4.42-3.45-11.3-4.84-6.88-1.4-23.6-8.97-23.6-8.97z"/>
    <g transform="translate(-170.67) scale(1.70667)">
      <g id="a">
        <path d="M244.53 143.51l1.4-.03 2.55 10.75-.54 3.38-3.41-14.1z"/>
        <path fill="#fff" d="M243.06 136.35l.96 8.28 1.02-.07-1.98-8.21z"/>
        <path d="M245.72 154.59l-4.3-11.54 1.6-.1 5.02 14.1-2.32-2.46z"/>
        <path fill="#fff" d="M239.42 136.48l1.77 8.02h1.43l-3.2-8.02z"/>
        <path d="M241.9 150.55l-2.51-5.43 1.09-.23 4.6 9-3.17-3.34z"/>
        <path fill="#fff" d="M236.08 138.78l2.8 7.62h1.42l-4.22-7.62z"/>
        <path fill="#0a328c" d="M242.25 151.36l-11.44-12.48c-3.57 2.83-2.9 8.02-2.9 8.02l12.95 10.17 1.39-5.7z"/>
        <path fill="#d20014" d="M248.86 158.24l-8.48-8.6c-3.59.13-.74 5.48-.56 6.15l9.04 7.74v-5.3z"/>
        <path d="M248.14 156.76l-17.54-18.78-.69.48 18.56 20.62-.33-2.32zm-18.55-19.99l-.39-.44.04-.9-3.62-2.3 1.62 3.64 1.23.22.38.45.74-.67z"/>
        <path d="M227.74 138.11a8.4 8.4 0 0 1 2.65-2.2l1 1.46-2.15 1.82-1.5-1.08z"/>
        <path fill="#0a328c" stroke="#0a328c" d="M225.81 141.28l.59 1.02c.36-.13 4.03-3.45 4.03-3.45l2.63-.08.76-.84c-1.93-2.08-3.75.3-3.75.3l-4.26 3.05z"/>
        <path fill="#d20014" stroke="#d20014" d="M227.91 143c.14-.91 1.88-3.2 2.13-3.29 1.3.4 2.51 1.14 3.83-1.83-1.14 1.46-3.47-.03-3.47-.03l-1 .84.02.4-3.05 2.84 1.54 1.08z"/>
        <path fill="#0a328c" d="M237.25 154.67l-14.36-11.4c-2.46 2.5-.42 10.22-.42 10.22l14.04 7.61.74-6.43z"/>
        <path fill="#d20014" d="M249.17 163.92l-11.82-9.47c-4.04.57-.87 6.5-.63 7.16l12.48 6.77-.04-4.46z"/>
        <path d="M248.7 162l-25.56-19.18-.58.6 26.83 20.95-.7-2.37zm-26.77-20.2l-.46-.37-.12-.88-3.98-1.66 2.25 3.31 1.25.01.46.38.6-.78z"/>
        <path d="M220.35 143.43a8.24 8.24 0 0 1 2.22-2.6l1.25 1.26-1.8 2.15-1.67-.8z"/>
        <path fill="#0a328c" stroke="#0a328c" d="M218.93 146.64l.16 1.06c.33-.19 3.56-3.73 3.56-3.73l2.58-.47.53-.84c-1.8-2.1-3.71.7-3.71.7l-3.12 3.28z"/>
        <path fill="#d20014" stroke="#d20014" d="M220.97 148.54c-.12-.98 1.22-3.86 1.46-3.98 1.54.46 2.89 1.16 3.46-2.07-.9 1.62-3.46.37-3.46.37l-.86.98.12.53-2.61 3.37 1.9.8z"/>
        <path fill="#0a328c" d="M236.22 161.65a2783.3 2783.3 0 0 1-18.51-10.44c-1.34 2.25-.13 5.52.45 6.03.04 1.5-.6 2.3.71 5.44.39 2.03 1.33 3.91 2.7 5.02 1.67 6.42 8.22 6.85 10.75 1.63l3.9-7.68z"/>
        <path fill="#d20014" d="M248.35 168.51l-12.55-7.35c-4.03.56.09 8.05.33 8.7l12.12 4.31.1-5.66z"/>
        <path d="M246.24 165.85l-28.35-15.1-.48.68 29.9 16.64-1.07-2.23zm-29.71-15.91l-.52-.3-.26-.86-4.2-1.04 2.76 2.94 1.24-.18.51.3.47-.86z"/>
        <path d="M215.23 151.78c.33-.9.78-1.83 1.77-2.9l1.44 1.05-1.43 2.4-1.78-.55z"/>
        <path fill="#0a328c" stroke="#0a328c" d="M214.1 155.18l.6 1.17c.3-.23 3-4.58 3-4.58l2.49-.82.47-1.01c-2-1.85-3.5 1.34-3.5 1.34l-3.06 3.9z"/>
        <path fill="#d20014" stroke="#d20014" d="M216.77 156.84c-.2-1 .49-4.2.7-4.35 1.56.47 2.86.6 3.22-2.62-.9 1.53-3.32.95-3.32.95l-.71 1.09.15.38-2.06 3.95 2.02.6z"/>
      </g>
      <use width="100%" height="100%" transform="matrix(-1 0 0 1 499.86 0)" xlink:href="#a"/>
    </g>
    <g transform="translate(-170.67) scale(1.70667)">
      <path fill="#016a16" stroke="#016a16" d="M248.76 125.6l-.47 9.07h2.9l-.42-8.99 3.02-.42-.34-3.58-7.5.29.04 3.25 2.77.38z"/>
      <g id="b" fill="#016a16">
        <path d="M249.82 121.9c-7.77-7.77-13.88-3.98-15.34-2.9.97.18 1.83-.42 2.28-.48-.28.35-.87 1.23-.87 1.23s2.4-1.14 2.67-1.03c-.35.27-.73.93-.73.93.18.07 1.53-1.06 1.8-1.08-.41.47-.54 1.53-.54 1.53l1.17-.54c.3.21-.09.63.18.6 1.94-.15 4.68 1.78 5.05 2.38"/>
        <path d="M247.9 123.32c-.81-1.85-15.6-5-18.56.24 1.16.3 2.27-.97 2.27-.97l-.1 1.17 1.97-1.51-.7 1.56 1.56-1.27-.05 1.27 1.92-2.1-.25 1.22 1.72-.73-.2 1.02"/>
        <path d="M247.24 123.61c-3.8-2.53-9.66-.83-9.66-.83-3.74 2.1-5.74 1.72-6.22 5.61.35-.14 1.36-1.36 1.36-1.36l.76 1.51.25-2.15.61 1.66.91-2.73.2 1.86 1.42-1.86.66.54.6-1.42.56.93s.96-.59 1.52-.25l1.06-1.22.26.88.9-1.07.36.78.91-.83-.05.59 3.13.05"/>
        <path d="M246.38 124.05c-2.64-.05-10.23 2.81-12.19 5.8a13.29 13.29 0 0 1 1.27-.63l.38 1.2.48-1.2.1.93c.29-.72.61-.8 1.16-.05l.2-1.12.3 1.07.5-1.17s.33 1.27.51 1.22c0 0 .84-2.2 1.22-2.3l.1 1.37.5-1.36.46 1.02.1-1.46.5 1.12s.27-1.1.66-1.32l.76.69 3.38-2.43"/>
        <path d="M246.89 124.68c-3.52 1.35-6.67 6.18-6.43 8.22 1.56-1.94 1.23-1.67 1.93.56 0 0 .26-1.95.53-2.18l.46 1.44.17-1.89.47.02-.12-1.18.7.53c-.17-.68-.34-.9.38-1.49 0 0-.92.12-.2-1.53l.68.65s-.12-.72.12-1l2.49-.86"/>
        <path d="M247.23 125.04l-1.33 2.53.68.2-1.53 1.15 1.3-.13s-1.99.73-2.23 2.67l2.02-.89s-1.7 1.74-1.95 2.8l1.16-1.02s-1.12 1.21-.95 3.06l.85-.96c-.2 2.24-.14 2.44.89 4.15 0 0-.27-2.63.03-2.96l2.25 2.33-1.26-3.32s1.4 2.1 2.25 1.91l-1.77-2.7 1.74 1.42-1.98-2.96 1.84.55s-1.33-1.67-1.23-2.73l1.27 1.39s-.48-1.58-.34-2.04l.64.13-1.26-1.45.85-.17-.1-.95.62-.2-.04-1.05m-1.09 0c-2.18 2.96-1.06 7.53-2.35 9.87"/>
      </g>
      <use width="100%" height="100%" transform="matrix(-1 0 0 1 499.86 0)" xlink:href="#b"/>
      <path d="M250.94 166.53s1.2-9.94 1.2-14.22c0-3.37-.82-10.84-.82-10.84h-3.42s-.52 7.43-.44 10.8c.1 4.27 1.18 14.26 1.18 14.26h2.3z"/>
      <path d="M247.67 141.95h3.96l-.46-2.66h-2.87l-.63 2.66z"/>
      <path d="M247.93 139.82h3.54l-.67-2.67h-2.18l-.7 2.67z"/>
      <path d="M248.16 137.66h2.95l-.5-2.67h-1.88l-.58 2.66z"/>
      <path d="M250.71 134.67h-2.06l-.21.97h2.44l-.17-.97zm.42 29.7h-2.62m2.77-1.95h-2.94m3.32-1.98h-3.72m3.92-2.15h-3.9m3.92-2.15h-4.1m4.26-1.97h-4.45m4.46-1.79h-4.65m4.63-2.16h-4.65m4.49-2.14h-4.5m4.3-2.17h-4.07m3.87-1.95h-3.68"/>
      <path fill="#0a328c" stroke="#0a328c" d="M249.91 119.04c-.69-.32-2.25-1.3-1.78-1.9l.7-1.21c1.02-2.28-.01-1.4-.12-2.1-.1-.69 3.87-.16 3.93 1.39.01.43-.3.18-.26 2.61l-.75 1.46a3.53 3.53 0 0 1-1.72-.24z"/>
      <path d="M250.4 124.93l-1-.83.28-7.1.96.28-.25 7.65z"/>
      <path fill="#d20014" stroke="#d20014" d="M251.67 119.25c.62-.37 1.03-1.45.65-2.09-1.01-1.28-1.67-.75-3.38-1.33-.34.36-1.05 1.06-.9 1.58 2.24 1.05 1.37.15 2.12.28.4.07.65.55 1.51 1.56z"/>
    </g>
    <g transform="translate(-170.67) scale(1.70667)">
      <use width="100%" height="100%" transform="matrix(1 0 0 -1 0 320.37)" xlink:href="#c"/>
      <path fill="#016a16" stroke="#fff" stroke-linecap="round" d="M238.36 161.75c0 1.3-.82 2.35-1.82 2.35s-1.82-1.05-1.82-2.35v-1.28h3.64v1.28z"/>
      <ellipse cx="236.54" cy="160.06" fill="#fff" stroke="none" rx="1.81" ry=".9"/>
      <path fill="#016a16" stroke="#f1b517" d="M236.13 161.07l-.31-3.3h1.38l-.23 3.3h-.84z"/>
      <path id="c" fill="#016a16" stroke="#fff" stroke-linecap="round" stroke-width=".24" d="M238.54 160.12c-.27.5-1.06.85-2 .85s-1.73-.36-2-.85a.76.76 0 0 0-.1.36c0 .67.94 1.2 2.1 1.2 1.15 0 2.09-.53 2.09-1.2a.75.75 0 0 0-.1-.36z"/>
      <g id="d">
        <path d="M246.03 172.79l-7.06-2.2-3.07-5.25-10.9-.53.38 3.94 9.28 1.77.88 1.58 10.67 2.97-.18-2.28z"/>
        <path fill="#503200" d="M238.66 174.25l-11.15-16.4-.54.42 11.06 16.46.63-.48z"/>
        <path fill="#fff" d="M228.55 158.5l-1.19-2c-.22-.36-.56-.48-1.06-.22-.48.26-.43.76-.24 1.12l1.1 1.85 1.4-.75z"/>
        <path d="M239.99 164.13l-22.5-2.29-.55 3.27 22.39 2.25.66-3.23z"/>
        <path d="M217.09 161l-.58 4.54h.94l.66-4.15-1.02-.4zm3.75.74l-.25 4.08.58.07.48-3.63-.8-.52zm15.24 1.75l-.54 3.84 1.1-.04.43-3.8h-.99zm3.36.11l-.78 4.43 1.24.18.35-2.33c.1.47.53.83 1.04.83.6 0 1.07-.47 1.07-1.04 0-.56-.48-1.02-1.07-1.02a.98.98 0 0 0-.94.68l.23-1.66-1.15-.07zm-8.12.72l-3.1 3.48.36.42 3.97-2.7-1.23-1.2zm-7.2 8.68l3.1-3.48-.36-.43-3.97 2.71 1.23 1.2zm8.1-.87l-3.76-2.91-.4.27 2.97 3.76 1.19-1.12zm-9.28-6.72l3.81 2.81.47-.35-3-3.75-1.28 1.3zm4.15-2.32l.36 4.58.52-.02 1.2-4.46-2.08-.1zm1.25 11.1l-.36-4.57-.57-.06-.69 4.63h1.62zm5.06-6.16l-4.8.5-.07.46 4.85.64.02-1.6zM222 169.6l4.67-.74.1-.36-4.84-.54.06 1.64z"/>
        <ellipse cx="227.69" cy="168.55" rx="1.27" ry="1.23"/>
        <path fill-rule="evenodd" stroke-linecap="round" d="M234.44 168.55c0 3.59-3.02 6.5-6.75 6.5a6.63 6.63 0 0 1-6.74-6.5c0-3.6 3.02-6.5 6.74-6.5a6.63 6.63 0 0 1 6.75 6.5zm-1.35 0a5.3 5.3 0 0 1-5.4 5.2 5.3 5.3 0 0 1-5.4-5.2 5.3 5.3 0 0 1 5.4-5.2 5.3 5.3 0 0 1 5.4 5.2z"/>
        <path d="M223.48 165.26l-1.06-.8m8.61.03l.9-.92m1.04 9.13l-1.11-.87m-8.38 1.87l.95-1.02m21.77-10.56l1.15 5.89-.94.5-1.01-6.3.8-.09z"/>
        <path fill="#fff" d="M245.6 161.36c-.54-.22-1.24.16-2.38-1.29-1.88 1.73-.1 1.98.18 3.69.53.22.86-1.32 2.3-1.48l2.3-.2-.53-.73s-1.48.04-1.88.01z"/>
        <path fill="#fff" d="M246.36 162.52l-.21-1.76c-.24-.62-1-.08-1 .28l.2 1.62 1-.14z"/>
        <path fill-rule="evenodd" d="M240.76 167.37l.02 1.64c-.53.18-.45.58-.43 1.17l.02 4.77c-.2.31-.78.33-1.06.58-.27.24-.24.73 1.02 1.04l.98.04c1.48-.33 1.79-.82 1.05-1.1-.4-.14-.92-.32-1.12-.55l.03-1.14.97.04c.26 0 .75-.66.77-1.19v-2.47c-.03-1.4-1.08-1.56-1.38-1.54l.02-1.29h-.88zm1.63 2.73c.02-.4-.55-.75-.78-.76-.23-.01-.74.46-.75.86v1c.03.37.32 1.61.91 1.7.28.05.64-.4.64-.76l-.02-2.04z"/>
        <path fill="#fff" d="M234.28 172.33c-.64-.26-.63 1.17-.63 1.17l1 .01c.44.2.79.84.5 1.16-.22.26-2.17-.44-2.3-.04.34 1.94 2.92 2.69 3.85 1.84.9-.83 1.14-3.05-1.82-3.63l-.6-.51zm.59.53l-.3.64"/>
        <path d="M214.94 173.06l-.96-4.05m2.13 3.81l-1.48-3.15m4.03 2.32l-3.34-1.79m4.78 1.43l-6.19-2.69"/>
        <path fill="#d20014" stroke="#d20014" d="M210.22 166.01s-2.26-.03-2.66.13c-.16.06.56.82.41 1.11-.56 1.08-4.39.93-4.7.7-.51-.4 3.57-.75 3.6-1.03.03-.32-.6-1.15-.5-1.66.12-.66 1.78-.9 1.78-.9l2.06 1.65z"/>
        <path fill="#503200" d="M213.23 168.05l-5.1-4.22s-.22-.24-.41-.04c-.19.2.07.44.07.44l5.26 4.35.18-.53z"/>
        <path d="M218.15 172.22l-4.16-3.61-.27-1.03s-.63.42-.86.64c-.23.22-.58.82-.58.82l1.13.05 3.6 3.3 1.14-.17z"/>
        <ellipse cx="232.53" cy="177.06" rx=".74" ry=".71"/>
        <ellipse cx="230.64" cy="175.72" rx=".74" ry=".71"/>
        <ellipse cx="228.09" cy="176.59" rx=".74" ry=".71"/>
        <ellipse cx="224.15" cy="177.44" rx=".74" ry=".71"/>
        <ellipse cx="222.49" cy="177.64" rx=".74" ry=".71"/>
        <ellipse cx="220.85" cy="177.64" rx=".74" ry=".71"/>
        <ellipse cx="219.18" cy="177.59" rx=".74" ry=".71"/>
        <ellipse cx="219.99" cy="176.32" rx=".74" ry=".71"/>
        <ellipse cx="221.6" cy="176.4" rx=".74" ry=".71"/>
        <ellipse cx="223.14" cy="176.2" rx=".74" ry=".71"/>
        <ellipse cx="222.36" cy="174.96" rx=".74" ry=".71"/>
        <ellipse cx="220.85" cy="174.94" rx=".74" ry=".71"/>
        <path fill-rule="evenodd" d="M236.47 177.99c0-.32-.77-.18-.77-.55 0-.41 1.17-.11 1.34.25.66-.6.94-.16 1.34.02.58-.85 1.3-.82 1.98-.2.4-.44 1.41-.3 1.76.2.67-.66 1.26-.5 1.72-.02.18-.34.46-.27.65-.02.36-.63 1.24-.44 1.62-.02.33-.37.67-.08 1.11.19.3-.28.78-.23.78.05 0 .29-.63.19-.63.47 0 .26.46.13.46.45 0 .26-.68.35-.78-.05-.23.44-1.07.27-1.15-.14a.78.78 0 0 1-1.24-.06c-.29.23-.63.26-.8.03-.5.55-1.38.44-1.68-.17l-.3.01a.91.91 0 0 1-1.51 0c-.86.6-1.37.41-1.84.01-.55.67-1.38.62-1.57 0-.37.27-1.14.33-1.14.02 0-.3.65-.2.65-.47zm1.66.15c0 .14-.2.26-.44.26s-.44-.12-.44-.26.2-.26.44-.26.43.12.43.26zm1.82-.22c0 .18-.24.32-.53.32-.29 0-.52-.14-.52-.32 0-.17.23-.3.52-.3.3 0 .53.13.53.3zm3.57.2c0 .17-.21.32-.47.32s-.48-.14-.48-.32c0-.17.21-.32.48-.32s.47.15.47.32zm-1.9-.08c0 .22-.21.4-.47.4s-.46-.18-.46-.4c0-.22.2-.4.46-.4s.46.18.46.4zm4.06 0c0 .2-.19.37-.42.37-.23 0-.41-.16-.41-.36 0-.2.18-.36.41-.36.23 0 .42.16.42.36zm-1.25.09c0 .13-.12.23-.27.23-.14 0-.26-.1-.26-.23s.12-.23.26-.23c.15 0 .27.1.27.23zm2.42.1c0 .18-.13.32-.3.32-.16 0-.3-.14-.3-.33 0-.18.14-.33.3-.33.17 0 .3.15.3.33z"/>
      </g>
      <use width="100%" height="100%" transform="matrix(-1 0 0 1 499.86 0)" xlink:href="#d"/>
      <g stroke-width=".23">
        <path fill="#0a328c" stroke="#0a328c" d="M249.84 165.72c-2.52 0-4.55.94-4.55 2.1 0 .2.05.39.17.57.54.63 2.3 1.09 4.4 1.09 1.95 0 3.62-.4 4.27-.97.17-.22.26-.45.26-.7 0-1.15-2.04-2.1-4.55-2.1z"/>
        <path stroke-width=".19" d="M254.43 167.98v7.06c0 .83-2.05 1.5-4.58 1.5s-4.57-.67-4.57-1.5v-7.06c0 .83 2.05 1.5 4.57 1.5 2.53 0 4.58-.67 4.58-1.5z"/>
        <path fill="#d20014" stroke="#d20014" stroke-width=".18" d="M245.28 167.98v1.08l2.22 6.85 1.77-5.27 1.95 5.47 1.43-5.16 1.78 3.47v-1.92l-1.66-3.36a8.25 8.25 0 0 1-.6.13l-1.02 3.81-1.45-3.6a14.52 14.52 0 0 1-.71-.03l-1.46 3.63-1.66-4.37c-.37-.21-.59-.46-.59-.73z"/>
        <path fill="#0a328c" stroke="#0a328c" stroke-width=".19" d="M254.43 173.72v1.32c0 .83-2.05 1.5-4.58 1.5s-4.57-.67-4.57-1.5v-1.32c0 .83 2.05 1.5 4.57 1.5 2.53 0 4.58-.67 4.58-1.5z"/>
        <path stroke-width=".19" d="M251.74 175.09c-.38.05-.77.1-1.19.11l.01 1.32c.42-.02.82-.06 1.19-.12l-.01-1.31zm-4.87-.23l-.01 1.3c.35.1.75.2 1.18.25v-1.31a8.9 8.9 0 0 1-1.17-.24zm-1.59-1.14v1.32c0 .25.19.47.5.68l.03-1.3c-.33-.21-.53-.44-.53-.7zm9.15.14h-.03c-.08.27-.38.52-.83.73l.01 1.31c.53-.24.85-.54.85-.86v-1.18z"/>
        <path fill="none" stroke-width=".19" d="M254.43 168.03v7c0 .84-2.05 1.5-4.58 1.5s-4.57-.66-4.57-1.5v-7"/>
        <path fill="#fff" stroke="#fff" stroke-width=".19" d="M253.4 167.52c0 .5-1.6.9-3.55.9-1.95 0-3.53-.4-3.53-.9s1.58-.9 3.53-.9c1.96 0 3.54.4 3.54.9z"/>
        <path d="M248.7 168.19l.16 1.25c.3.02.62.04.95.04l.23-1.29h-1.34zm4.1-.3l-.91.24.06 1.18c.3-.05.6-.11.86-.19v-1.23zm-5.4-1.91c-.26.07-.5.16-.72.26l.12.95.58-.19.02-1.02zm2.44-.37h-.36l.2 1.19.6-.01.24-1.16a9.73 9.73 0 0 0-.68-.02zm2.67.41l-.12 1.04.69.24.07-1.01a5.26 5.26 0 0 0-.64-.27z"/>
        <path stroke-width=".18" d="M246 168.8l.18-1.29-.94-.5.03 1.46.72.33zm8.4-.28l.04-1.29-.88.27.84 1.02z"/>
      </g>
      <path d="M263.69 160.03c.83-.12 2.06 1.02 2.13 2.43.06 1.12-1.69 1.06-1.69 1.06-.09.46-1.05.88-1.84.92-.76.03.2-1.43.2-1.43-.47-1.26.16-2.75.16-2.75l1.04-.23z"/>
      <path d="M262.5 162.95l.8-.03s.06.41.2.43c.17.02.33-.4.33-.4l1.22-.03"/>
      <path fill="#d20014" stroke="#f1b517" d="M264.13 160.86c.68-.5.09-1.48-.39-1.49l-1.1.03c-.51.01-1.38.57-1.27 1.06.1.42.39.62.83.54.2-.03.63-.56.83-.57.28-.01.88.59 1.1.43z"/>
      <path fill-rule="evenodd" d="M214.24 174.85c-.62.08-.73.8-.5 1.44-2.68.76-5.08 1.74-7.45 2.41-.1-.47 1.17-1.84 1.17-1.84.34.16.59.93.59.93.08-1.58 1.64-2.63 1.64-2.63-.93-.12-3.73.97-4.07 1.41 0 0 1.09-.12 1.25 0 0 0-2.14 2.31-2.23 3 .33.75 4.02 1.31 4.02 1.31-.05.2-1.08.93-1.08.93 1.47.32 3.68-.72 4.34-1.35 0 0-1.72-.14-3.07-1.23 0 0 .28.68.11 1 0 0-2.1-.6-2.32-.95 0-.03 4.97-1.32 7.37-2 .09.43.57 1.24 1.14 1.05.37-.13.25-.87.12-1.4a.77.77 0 0 0 .5.2c.42 0 .77-.34.77-.74 0-.41-.35-.74-.77-.74a.76.76 0 0 0-.72.5c-.1-.45-.34-1.35-.8-1.3zm1.9 1.53c0 .2-.17.35-.37.35a.35.35 0 0 1-.36-.35c0-.19.16-.34.36-.34.2 0 .36.15.36.34z"/>
      <path d="M293.07 177.88c.18-.36-.16-2.2-.16-2.2-.38.03-.89.67-.89.67.48-1.5-.86-4.03-.86-4.03.9.19 3.94 3.12 4.1 3.65 0 0-1.33-.47-1.53-.41.22 1.5 1.26 2.2 1.65 2.99 0 0-1.73.38-1.55 1.82l-1.13.02c-.39-.48.15-1.28.15-1.28l-7.74-3.24c-.5-.2-1.62-.72-1.45-1.32.17-.6 2.02.26 2.47.4l6.94 2.93z"/>
      <path d="M285.63 176.54l.91-1.67c.33-.44-.34-.92-.82-.36l-1.02 1.53c-.45.83.5 1.06.94.5z"/>
    </g>
    <g fill="#fff" stroke-width=".31">
      <path d="M224.2 307.82l-.1-3.1-3.77.2-.22 3.4 4.1-.5z"/>
      <path d="M196.67 312.19l-5.03-2.82c20.76 1.9 25-5.34 30.02-5.73 3.09-.24 3.57 3.41-2.4 1.67l1.54 3.83s-14.75 8.3-29.24 4.87l5.11-1.82zm90.48-4.37l.1-3.1 4.61.1.22 3.39-4.93-.38z"/>
      <path d="M315.63 311.43l4.74-2.59c-23.79.71-18.37-3.9-30.28-5.2-3.07-.33-5.38 3.62 2.41 1.68l-1.54 3.82h3.74c8.1 5.34 19.04 5.82 26.28 4.1l-5.35-1.81z"/>
      <path d="M219.17 305.34v5.38s13.19 4.9 36.72 4.9c23.64 0 36.73-4.9 36.73-4.9v-5.38s-9.98 4.6-36.73 4.6c-26.64 0-36.72-4.6-36.72-4.6z"/>
    </g>
    <path fill="#000" stroke="none" d="M221.14 310.75l1.16-3.94.54.15-1.02 3.47 2 .56-.13.46-2.55-.7zm3.82-1.73l.06-.78.17-.66.58.14-.17.66-.33.71-.31-.07zm5.67-.27l.55.11-.49 2.32c-.08.4-.2.71-.34.93-.15.22-.36.38-.64.48-.28.1-.62.11-1.02.03-.39-.07-.7-.2-.91-.38a1.14 1.14 0 0 1-.42-.66c-.05-.27-.03-.62.06-1.04l.49-2.32.55.1-.5 2.32c-.06.35-.08.62-.05.8.03.17.12.32.26.44.15.13.34.21.58.26.4.08.7.04.92-.1.2-.14.37-.47.47-.97l.5-2.32zm.62 4.29l.69-4.05.57.1 1.66 3.52.54-3.18.53.08-.69 4.05-.57-.1-1.66-3.52-.54 3.18-.53-.08zm4.34.65l.58-4.06.56.08-.59 4.06-.55-.08zm1.6-1.79a2.2 2.2 0 0 1 .75-1.52c.42-.34.93-.48 1.52-.42.4.05.73.17 1.02.39.3.21.5.49.63.83.13.34.17.71.12 1.12a2.36 2.36 0 0 1-.4 1.08c-.2.3-.48.52-.81.66a2.2 2.2 0 0 1-1.06.14 2.05 2.05 0 0 1-1.03-.4c-.3-.22-.5-.5-.62-.84a2.24 2.24 0 0 1-.12-1.04zm.57.07c-.06.5.03.9.28 1.2.24.32.56.5.98.54.41.05.78-.05 1.08-.3.3-.26.5-.65.55-1.18a2.03 2.03 0 0 0-.07-.89 1.3 1.3 0 0 0-.44-.63 1.42 1.42 0 0 0-.73-.28c-.4-.05-.75.05-1.07.28-.31.23-.5.65-.58 1.26zm3.94 2.42l.35-4.09.57.05 1.95 3.38.28-3.2.53.04-.34 4.08-.58-.04-1.95-3.39-.27 3.21-.54-.04zm5.96.41l.18-4.1 2.87.13-.03.48-2.3-.1-.06 1.27 2 .09-.03.48-1.99-.08-.08 1.86-.56-.03zm3.13.14l1.7-4.07.61.01 1.66 4.13-.64-.01-.47-1.25-1.78-.03-.49 1.23-.6-.01zm1.26-1.66l1.44.02-.43-1.14a10.9 10.9 0 0 1-.28-.85c-.06.26-.14.52-.24.77l-.5 1.2zm3.26 1.72l.01-4.1h.56v4.1h-.57zm2.63 0l-.05-3.62-1.4.02v-.49l3.36-.04v.48l-1.4.02.06 3.61-.57.01zm4.17-.1l-.2-4.1.57-.03.17 3.61 2.09-.09.02.48-2.65.12zm2.86-.13l1.33-4.2.6-.04 2.04 3.97-.64.04-.59-1.2-1.77.12-.37 1.27-.6.04zm1.1-1.76l1.44-.1-.53-1.1a11 11 0 0 1-.36-.83 5.25 5.25 0 0 1-.17.8l-.38 1.22zm4.99 1.29l-.47-4.07 2.85-.3.05.47-2.29.25.15 1.26 1.98-.21.06.48-1.98.21.2 1.85-.55.06zm3.11-2.34c-.1-.67.01-1.23.33-1.66.32-.43.77-.69 1.36-.77a2.09 2.09 0 0 1 1.1.12c.33.14.6.36.82.65.2.3.34.65.4 1.06.06.41.03.8-.1 1.14a1.72 1.72 0 0 1-.61.84c-.3.2-.62.34-.99.39a2.06 2.06 0 0 1-1.1-.13 1.85 1.85 0 0 1-.82-.66 2.27 2.27 0 0 1-.39-.98zm.57-.07c.08.49.27.86.58 1.1.32.24.68.34 1.1.28.41-.06.74-.25.96-.57.23-.32.3-.74.23-1.26a2.05 2.05 0 0 0-.3-.84 1.33 1.33 0 0 0-.6-.5 1.44 1.44 0 0 0-.77-.1 1.45 1.45 0 0 0-.96.52c-.25.3-.33.76-.23 1.37zm4.46 1.38l-.75-4.04 1.85-.32c.37-.07.66-.08.87-.04.2.04.39.14.54.3.15.16.24.36.28.58a1 1 0 0 1-.15.77c-.15.23-.43.41-.82.53.16.05.29.1.38.15.18.11.37.26.56.45l.93.97-.7.12-.7-.74a7.93 7.93 0 0 0-.51-.49 1.31 1.31 0 0 0-.33-.22.87.87 0 0 0-.28-.06c-.06 0-.17.01-.3.04l-.65.1.34 1.8-.56.1zm.13-2.35l1.2-.21c.25-.05.44-.1.57-.18a.63.63 0 0 0 .33-.68.61.61 0 0 0-.3-.43c-.17-.1-.41-.12-.72-.07l-1.33.23.26 1.34zm6.71-.45l.58.01c-.01.46-.14.84-.39 1.13-.24.3-.58.5-1.01.58-.45.1-.83.1-1.15-.02a1.74 1.74 0 0 1-.82-.63 2.74 2.74 0 0 1-.47-1.02c-.1-.42-.1-.8 0-1.14.09-.35.27-.64.54-.86.26-.23.58-.38.94-.46a1.8 1.8 0 0 1 1.12.08c.33.14.6.38.8.73l-.52.24a1.3 1.3 0 0 0-.57-.55 1.19 1.19 0 0 0-.73-.05c-.32.07-.57.2-.75.4-.18.2-.28.42-.31.69a2.5 2.5 0 0 0 .41 1.65c.16.23.36.39.61.47.25.07.5.09.75.03.3-.07.55-.2.72-.42.17-.22.26-.5.25-.86zm1.56 1.11l-1.14-3.94 2.96-.8.14.47-2.42.65.35 1.2 2.26-.6.14.46-2.27.6.4 1.35 2.5-.67.14.46-3.05.82z"/>
  </g>
</svg>
