<svg xmlns="http://www.w3.org/2000/svg" id="flag-icon-css-il" width="512" height="512">
  <defs>
    <clipPath id="a">
      <path fill-opacity=".67" d="M0 0h512v512H0z"/>
    </clipPath>
  </defs>
  <g fill-rule="evenodd" clip-path="url(#a)">
    <path fill="#fff" d="M619.43 512H-112V0h731.43z"/>
    <path fill="#00c" d="M619.43 115.23H-112V48h731.43zm0 350.45H-112v-67.23h731.43zm-483-274.9l110.12 191.54 112.49-190.75-222.61-.79z"/>
    <path fill="#fff" d="M225.75 317.81l20.95 35.5 21.4-35.35-42.35-.15z"/>
    <path fill="#00c" d="M136.02 320.58l110.13-191.54 112.48 190.75-222.61.79z"/>
    <path fill="#fff" d="M225.75 191.61l20.95-35.5 21.4 35.35-42.35.15zm-43.78 79.5l-21.64 35.98 40.9-.12-19.26-35.86zm-21.27-66.5l41.23.29-19.84 36.26-21.39-36.55zm151.24 66.91l20.83 35.58-41.71-.54 20.88-35.04zm20.45-66.91l-41.23.29L311 241.16l21.39-36.55zm-114.27-.04l-28.4 51.52 28.8 50.3 52.74 1.2 32.04-51.5-29.61-51.93-55.57.4z"/>
  </g>
</svg>
