<svg xmlns="http://www.w3.org/2000/svg" id="flag-icon-css-im" width="512" height="512">
  <defs>
    <clipPath id="a">
      <path fill-opacity=".67" d="M148.24 0h744.09v744.09H148.24z"/>
    </clipPath>
  </defs>
  <g clip-path="url(#a)" transform="matrix(.7 0 0 .7 -102 0)">
    <path fill="#ba0000" fill-rule="evenodd" d="M1063 744.09H0V0h1063z"/>
    <path fill="#ffef00" fill-opacity=".99" fill-rule="evenodd" stroke="#000" stroke-width="3.2" d="M556.65 546.47c.29-.88.88-9.95.58-9.95s-13.75-15.8-13.45-15.8 17.26 3.8 17.26 3.22c0-.58 6.72-16.67 6.72-16.96 0-.3 8.2 19.6 8.2 19.6l16.66 7.3-11.7 9.66s2.64 18.72 2.64 19.01c0 .3-11.7-11.11-11.7-11.11l-12.87 1.46s-1.76-5.85-2.34-6.44z"/>
    <path fill="#fff" fill-rule="evenodd" stroke="#000" stroke-width="3.83" d="M466.03 300.69c-11.12 5.72-53.77 54.48-59.62 62.08-4.9 11.04-14.49 25-24.36 34-10.54 7.97-16.4 18.86-14.95 29.18-.12 12.83 7.08 21.57 12.81 30.6 3.4 4.13 7.96 6.8 12.81 7.12 9.96 1.31 10.84 4.38 15.82 6.28 19.63 26.72 48.91 46.43 70 62.04 13.44 7.08 22.8 14.17 26 18.04 6.17 11.79 5.04 23.28 4.19 28.93l-15.66 59.07c-2.63 16.1 11.35 12.47 12.1 9.26 6.31-8.2 15.73-2.44 29.18-49.82l18.5-24.91s7.12-2.85 7.12-3.56c10.83-13 2.58-20.43-3.56-22.77l-13.52-4.99s-15.66-15.65-16.37-15.65c-7.44-21.65-43.96-67.85-52.44-74.29-5.87-6.12-8.67-8.73-14.24-12.13-8.57-4.1-11.34-5.43-16.58-7.53-4.37-1.75-1.26-6.55 1.52-8.74 28.92-15.75 51.85-33.25 79.6-51.04l4.28-2.85-9.97-56.93-46.26-16.37c-2.42 1.66-4.26 3.32-6.4 4.98z"/>
    <path fill="#ffec00" fill-rule="evenodd" d="M504.73 600.45c.15-.58 28.95-5.85 28.95-5.85s-3.36 10.68-3.5 10.68l-28.67 8.62 3.22-13.45z"/>
    <path fill="none" stroke="#000" stroke-width="3.2" d="M429.65 491.98c5.56-14.77 20.99-26.47 31.35-29.7"/>
    <path fill="none" stroke="#000" stroke-width="3.54" d="M503.7 600.69c1.86-.52 10.11-2.93 12.52-3.31 2.56-.6 5.12-1.27 7.59-2.07 2.84-.58 4.63-1.11 7.58-1.65 2.32-.89 4.6-1.5 7.09-2.07m-40 26.91c.24-.32 2.2-2.06 3.62-2.9 1.66-.52 7.33-2.93 9.48-3.3 2.3-.6 4.57-1.28 6.78-2.07 2.54-.58 4.13-1.12 6.77-1.66a44.29 44.29 0 0 1 6.33-2.07"/>
    <path fill="none" stroke="#000" stroke-width="3.2" d="M510.18 496.16h-.4c1.29 0 .5-.11-1.25 2.06-.62 1.68-5.93 5.38-9.93 5.38-1.93.2-4.9.41-6.82.41-.55 0-1.31-.4-1.86-.4m19.85 77.74h2.07c2.15 0 4.3.38 6.2.41 2.08 0 4.14.59 6.21.59 2.09.3 4.6.2 6.76.5 2.43.09 4.37.56 6.89.56 2.03.08 3.13.42 5.38.42l-5.38-.41c2.03.07 3.13.41 5.38.41m-47.58 48c.22-.33 2.02-2.06 3.3-2.9 1.52-.52 6.72-2.93 8.7-3.3 2.09-.6 4.18-1.28 6.2-2.08 2.33-.58 3.78-1.11 6.2-1.65 1.9-.89 3.77-1.49 5.8-2.07m8.55-59.91c-1.17 3.4.34 4.25.97 5.71 1.1 1.42 3.88 3.59 8.28 4.97 1.7.45 3 .9 4.96 1.65 1.3.12 1.94.45 2.9.83M370.78 435.35h.41c-1.3 0-.52.08 1.66-1.66 1.34-1.5 2.46-2.18 3.72-3.72m20.98 34.83c.27 0 24.06-11.98 26.6-14.55 1.8-1.3 3.16-2.68 5.35-4.16 1.4-.73 2.4-1.67 3.72-2.48 1.1-1.58 2.52-2.54 3.31-3.99 1.46-1.26.83-2.64 2.02-4.16.56-1.56 1.6-4.2 1.95-5.62m30.3 17.79c.13.85-.38 3.49-.35 5.5-.08 2.32-3.07 9.5-6.69 11.65"/>
    <path fill="none" stroke="#000" stroke-width="3.2" d="M428.07 447.36c.14 0 3.76 1.18 9.8 3.04 7.3 2.62 22.44 12.17 23.95 13.48 1.53 1.21 4.28 2.29 5.33 3.72 1.65 1.43 2.85 3.07 4.14 4.55 1.5 1.85 2.8 3.4 3.72 4.97 4.6 3.73 16.97 29.56 17.37 31.02a62.84 62.84 0 0 1 2.07 4.55c.92 1.06 1.54 2.55 2.48 4.14.87 2.05 1.83 3 2.9 4.55 1.37.95 3.21 2.76 4.96 3.72 1.86 1.6 3.61 2.24 4.96 3.31 1.95.83 23.75 14.61 24.77 15.3 1.99 1.6 8.07 7.9 3.8 12.48-1.81 1.55-3.44 3.6-5 4.48-1.57 1.58-3.76 2.29-5.57 3.1-9.82 2.9-14.83 1.87-16.76 1.87h-2.07m-129-167c2.8 1.1 1.67.28 4.18 1.43 1.69.74 2.8.76 4.46 1.36 1.76.57 6.68 1.45 9.04 3.83 1.74 1.56 3.06 2.89 4.97 4.03 2.25 1.56 3.88 2.25 6.67 3.41 2.36.88 5 1.86 7.38 1.95 2.47.14 3.07.02 5.44.02h5.8-5.8 5.8"/>
    <path fill="#ffe606" fill-rule="evenodd" stroke="#000" stroke-width="3.2" d="M379.27 426.24c6.2-.4 16.55 1.45 16.75 1.45l13.65-.2c7.17-.7 8.76-3.45 9.93-5.38 2.69-4.14 4.55-5.59 6.62-8.69 3.3-2.48 7.86 3.31 8.07 3.31 11.58 10.96 2.27 24.4 1.65 24.82-5.8 5.3-7.03 5.65-10.55 2.27-3.52-4.13-4.55-6-7.44-7.44-5.59-2.7-17.17-.62-17.38-.62-.2 0-6 2.27-6 2.27-2.82 1.04-4.62 3.52-9.5 4.34-4.97.35-6.63-.13-9.1-4.13-3.32-5.17-1.67-11.38 3.3-12z"/>
    <path fill="#ffef00" fill-opacity=".99" fill-rule="evenodd" stroke="#000" stroke-width="3.2" d="M703.11 175.36c-.9.18-9.1 4.11-8.95 4.37s-7.03 19.72-7.18 19.46-5.14-16.9-5.65-16.62c-.5.3-17.83 2.31-18.08 2.45-.25.15 13.07-16.74 13.07-16.74l-1.8-18.11 14.15 5.47s15.03-11.47 15.28-11.62c.26-.14-3.95 15.65-3.95 15.65l7.58 10.5s-4.24 4.4-4.46 5.2z"/>
    <path fill="#fff" fill-rule="evenodd" stroke="#000" stroke-width="3.83" d="M533.29 374.8c10.43 6.89 73.84 20.17 83.33 21.55 12.03-1.14 28.9.37 41.57 4.57 12.12 5.28 24.49 5.05 32.76-1.27 11.25-6.19 15.34-16.74 20.4-26.17 1.94-4.98 2.02-10.26-.07-14.65-3.74-9.32-1.5-11.6-2.28-16.87 13.67-30.2 16.5-65.39 19.77-91.42-.4-15.2 1.19-26.81 2.99-31.5 7.25-11.16 17.83-15.8 23.16-17.83l59.17-15.3c15.31-5.6 5.3-16 2.13-15.09-10.23-1.48-9.83-12.5-57.72-1.01l-30.78-3.93s-5.97-4.8-6.6-4.46c-16.63-3.06-19.07 7.76-18.1 14.27l2.28 14.22s-5.97 21.32-5.62 21.94c-15.22 17.1-37.88 71.99-39.33 82.53-.69 9.91-4.43 8.12-3.43 17.76.04 7.53-.84 2.83 1.68 18.34.61 4.67-5.1 4.3-8.37 2.96-27.9-17.5-54.4-28.91-83.5-44.38l-4.58-2.33-44.74 36.59 8.4 48.34c2.63 1.3 4.99 2.1 7.48 3.14z"/>
    <path fill="#ffec00" fill-rule="evenodd" d="M775.61 194.16c-.58.16-19.29-22.37-19.29-22.37s10.96-2.3 11.03-2.17l21.57 20.75-13.3 3.8z"/>
    <path fill="none" stroke="#000" stroke-width="3.2" d="M717.86 312.77c-15.6 2.4-33.36-5.32-41.25-12.78"/>
    <path fill="none" stroke="#000" stroke-width="3.54" d="M776.33 194.94c-1.37-1.36-7.51-7.38-9.02-9.29a95.77 95.77 0 0 0-5.52-5.6c-1.9-2.2-3.24-3.49-5.16-5.8a53.86 53.86 0 0 1-5.28-5.16m43.06 21.67a21 21 0 0 1-4.3-1.73c-1.26-1.19-6.14-4.96-7.52-6.64a79.42 79.42 0 0 0-5.13-4.9c-1.75-1.93-3-3.05-4.76-5.1a43.94 43.94 0 0 1-4.9-4.5"/>
    <path fill="none" stroke="#000" stroke-width="3.2" d="M682.03 240.52l.2.36c-.63-1.13-.34-.38 2.42.07 1.76-.28 7.59 2.53 9.55 6.02a76 76 0 0 1 3.7 5.74c.27.48.28 1.35.56 1.83m58.03-55.41l-.2-.36-.81-1.45c-1.05-1.87-1.77-3.93-2.68-5.6-1.01-1.81-1.52-3.9-2.53-5.7-.77-1.97-2.08-4.11-2.87-6.15-1.12-2.15-1.65-4.08-2.89-6.27-.93-1.81-1.17-2.93-2.27-4.9l2.27 4.9c-.93-1.81-1.17-2.93-2.27-4.9m65.15 17.96c-.39-.04-2.78-.75-4.14-1.47-1.2-1.07-5.85-4.42-7.14-5.95a68.3 68.3 0 0 0-4.85-4.39c-1.65-1.75-2.83-2.75-4.48-4.6a38.32 38.32 0 0 1-4.64-4.03m-56.42 21.9c3.54-.65 3.54-2.38 4.5-3.65.7-1.65 1.23-5.13.28-9.64-.44-1.7-.68-3.06-1-5.14-.52-1.2-.55-1.91-.69-2.93m-31.47 225.06l-.2-.36c.63 1.13.33.41-2.26-.63-1.96-.43-3.1-1.08-5.06-1.42m20.08-35.35c-.14-.24-22.24-15.1-25.72-16.06-2.02-.93-3.89-1.44-6.25-2.62-1.33-.87-2.64-1.28-3.99-2.03-1.92-.18-3.45-.95-5.1-.93-1.82-.65-2.7.57-4.62.28-1.63.28-4.44.65-5.85 1.06m.66-35.13c.68-.53 3.23-1.38 4.96-2.4 2.06-1.07 9.8-1.98 13.43.12"/>
    <path fill="none" stroke="#000" stroke-width="3.2" d="M679.74 336.01c-.06-.12-.81-3.85-2.16-10.04-1.28-7.63-.39-25.52.02-27.47.3-1.93-.1-4.85.63-6.48.44-2.13 1.28-3.98 1.94-5.83.87-2.22 1.6-4.1 2.5-5.68 1-5.84 17.46-29.28 18.54-30.34a62.74 62.74 0 0 1 2.95-4.04c.47-1.32 1.47-2.6 2.39-4.19 1.37-1.76 1.7-3.06 2.54-4.75.16-1.66.83-4.16.81-6.15.48-2.41.19-4.25.46-5.95-.24-2.11 1.1-27.87 1.2-29.09.42-2.52 2.93-10.9 9.02-9.43 2.24.82 4.82 1.23 6.35 2.15 2.15.6 3.84 2.17 5.44 3.35 7.34 7.14 8.88 12 9.83 13.69l1.01 1.8m-82.46 193.45l-.2-.36c.55.98.24.5-.45-1.64-.19-1.84-.75-4.32-1.04-6.06-.37-1.81-1.22-3.88-.99-5.14-.65-1.84-.24-3.36-.06-5.18.51-2.28.74-3.93.8-6.15.26-2.73.06-4.66.21-7.24-.72-2.12-.86-3.9-1.96-6.01-.97-2.03-1.72-3.9-2.88-5.97l-2.84-5.05 2.84 5.05-2.84-5.05"/>
    <path fill="#ffe606" fill-rule="evenodd" stroke="#000" stroke-width="3.2" d="M685.25 388.9c-3.4-5.21-6.85-15.13-6.95-15.31l-6.87-11.8c-4.12-5.92-7.3-5.95-9.55-6.02-4.92-.32-7.1-1.23-10.82-1.52-3.78-1.66-.96-8.47-1.07-8.65 3.88-15.47 20.16-13.94 20.83-13.6 7.46 2.44 8.37 3.36 7.15 8.08-1.89 5.09-3 6.9-2.84 10.13.39 6.19 7.87 15.27 7.97 15.45.1.18 4.92 4.11 4.92 4.11 2.29 1.96 5.33 2.3 8.45 6.17 2.73 4.16 3.13 5.84.86 9.96-2.89 5.42-9.1 7.02-12.08 3z"/>
    <path fill="#ffef00" fill-opacity=".99" fill-rule="evenodd" stroke="#000" stroke-width="3.2" d="M301.2 245.15c.65.66 8.43 5.36 8.56 5.1s20.35-4.93 20.22-4.67-11.33 13.57-10.8 13.84c.51.27 11.69 13.65 11.95 13.78.26.14-21.17-1.76-21.17-1.76l-14.17 11.43-3.17-14.83s-17.83-6.3-18.09-6.43c-.26-.13 15.26-5.26 15.26-5.26l4.63-12.1s6 1.15 6.79.9z"/>
    <path fill="#fff" fill-rule="evenodd" stroke="#000" stroke-width="3.83" d="M561.08 277.96c.04-12.5-23.57-72.81-27.63-81.51-7.54-9.44-15.51-24.38-18.94-37.29-2.22-13.03-9.19-23.24-19.01-26.7-11.34-6.03-22.4-3.67-33.06-2.74-5.23 1.11-9.7 3.93-12.22 8.1-5.76 8.22-8.88 7.6-12.86 11.14-32.77 5.1-63.75 22.01-87.32 33.54-12.48 8.66-23.08 13.7-27.99 14.75-13.3.05-22.98-6.25-27.6-9.6l-45.22-41.12c-13.06-9.75-16.3 4.32-13.78 6.47 4.36 9.37-5.08 15.08 30.77 48.85l13.58 27.9s-.76 7.63-.12 7.96c6.54 15.6 16.94 11.7 21.85 7.33l10.65-9.7s21.1-6.68 21.44-7.31c22.63 3.37 80.96-7.75 90.58-12.31 8.67-4.86 9.22-.74 16.73-6.86 6.28-4.16 2.83-.85 14.43-11.45 3.57-3.07 6.4 1.9 7.06 5.38.64 32.93 5.61 61.34 8.61 94.17l.56 5.1 55.12 17.4 35.85-33.51c-.36-2.92-.99-5.32-1.47-7.99z"/>
    <path fill="#ffec00" fill-rule="evenodd" d="M277.21 174.2c.45.4-8.15 28.39-8.15 28.39s-7.92-7.9-7.85-8.04l5.55-29.41 10.46 9.05z"/>
    <path fill="none" stroke="#000" stroke-width="3.2" d="M408.08 157.54c10.55 11.74 13.82 30.82 11.9 41.5"/>
    <path fill="none" stroke="#000" stroke-width="3.54" d="M277.48 173.17c-.4 1.89-2.06 10.33-2.84 12.63a95.62 95.62 0 0 0-1.66 7.7c-.8 2.79-1.14 4.62-2.02 7.49-.28 2.46-.8 4.77-1.43 7.24m-5.46-47.9c.18.36.81 2.9.9 4.54-.3 1.72-.77 7.87-1.43 9.95a78.7 78.7 0 0 0-1.28 6.96c-.66 2.53-.92 4.19-1.66 6.78a44.12 44.12 0 0 1-1.08 6.56"/>
    <path fill="none" stroke="#000" stroke-width="3.2" d="M367.26 227.09l.19-.37c-.6 1.15-.13.5-1.26-2.05-1.2-1.32-2.04-7.74-.2-11.29.7-1.8 1.89-4.53 2.78-6.25.25-.49.97-.97 1.22-1.46m-78.15-18.2l-.19.37-.76 1.47c-.99 1.9-2.32 3.64-3.23 5.31-.95 1.84-2.42 3.4-3.38 5.24-1.22 1.72-2.3 4-3.56 5.77-1.2 2.11-2.51 3.62-3.67 5.85-1 1.77-1.81 2.59-2.85 4.59l2.85-4.59c-1 1.77-1.81 2.59-2.85 4.59m-20.67-64.35c.18.35.9 2.74 1.05 4.27-.24 1.59-.5 7.32-1.07 9.24-.44 2.13-.8 4.3-1.02 6.45-.56 2.34-.76 3.88-1.4 6.27a38.4 38.4 0 0 1-.83 6.1m49.23 35.2c-2.47-2.6-3.93-1.65-5.52-1.77-1.76.3-4.97 1.78-8.22 5.05a46.42 46.42 0 0 1-3.75 3.65c-.7 1.1-1.3 1.51-2.07 2.18m205.53-96.96l-.2.36c.6-1.15.17-.5.71 2.24.72 1.88.8 3.19 1.6 5.01m-40.59 2.57c-.12.24-.45 26.88.66 30.31.33 2.2.92 4.04 1.23 6.67 0 1.58.37 2.9.48 4.45.9 1.7 1.1 3.4 2.02 4.77.45 1.88 1.96 1.96 2.76 3.71 1.13 1.22 2.98 3.36 4.1 4.32m-29.75 18.7c-.82-.29-2.93-1.95-4.72-2.84-2.03-1.15-7.03-7.11-7.27-11.31"/>
    <path fill="none" stroke="#000" stroke-width="3.2" d="M448.4 176.7c-.06.12-2.77 2.79-7.21 7.3-5.68 5.26-21.14 14.3-23 15.04-1.78.8-4 2.74-5.76 3.01-2.02.81-4.03 1.12-5.94 1.58-2.33.49-4.31.91-6.12 1.01-5.43 2.37-34.06 1.45-35.54 1.13a63.6 63.6 0 0 1-5-.26c-1.35.32-2.97.19-4.8.3-2.23-.19-3.5.24-5.38.47-1.48.77-3.93 1.58-5.59 2.69-2.27.92-3.66 2.17-5.22 2.88-1.64 1.35-23.91 14.34-25 14.92-2.33 1.03-10.72 3.53-12.83-2.37-.54-2.33-1.6-4.72-1.67-6.5-.68-2.12-.3-4.4-.18-6.38 1.95-10.05 5.17-14.01 6.06-15.73l.96-1.83m207-36.99l-.18.37c.51-.99.27-.47-1.13 1.28-1.44 1.16-3.2 3-4.5 4.19-1.32 1.3-2.58 3.14-3.76 3.64-1.19 1.55-2.68 2.04-4.3 2.9-2.2.81-3.7 1.52-5.6 2.68-2.41 1.29-3.92 2.51-6.16 3.8-1.38 1.76-2.78 2.85-3.96 4.93-1.16 1.92-2.32 3.57-3.41 5.68l-2.67 5.14 2.67-5.14-2.67 5.14m17.08 106.27l.38-.73c-.7 1.35-.46 1 .2-1.3.01-2.74.67-6.07.7-8.5.4-2.56.82-5.34.85-7.94-.16-3.04-.15-5.77-.6-8.7-.04-2.7-.36-5.5-.44-8.15a35.45 35.45 0 0 0-.81-7.41c-.05-1.9-.17-4.52-.63-6.86.24-1.84-.28-3.53-.67-5-.71-2.84-.99-4.5-1.74-7.43-.45-1.57-.89-3.58-1.57-5.94-.24-2.24-1.44-5.14-1.93-7.06a19.74 19.74 0 0 1-1.59-5.02c-.7-1.56-1.68-3.45-1.95-5.21-.73-1.34-1.51-3.43-2.32-5.4-.7-1.63-1.22-3.62-1.96-5.21-.75-2-1.66-3.72-2.13-5.77-.72-.7-.88-1.46-1.27-2.05"/>
    <path fill="#ffe606" fill-rule="evenodd" stroke="#000" stroke-width="3.2" d="M489.63 143.12c-2.5 5.7-8.91 14.02-9 14.2l-6.11 12.2c-2.7 6.7-.98 9.37.2 11.3 2.43 4.29 2.86 6.6 4.66 9.87.67 4.08-6.56 5.46-6.66 5.64-15.06 5.22-22.7-9.23-22.79-9.97-2.04-7.59-1.77-8.85 2.84-10.4 5.3-1.22 7.42-1.28 10.04-3.19 4.96-3.71 8.46-14.95 8.56-15.13.1-.18.74-6.37.74-6.37.39-2.99-.99-5.72.53-10.44 1.98-4.57 3.18-5.81 7.87-6.18 6.11-.55 10.86 3.78 9.12 8.47z"/>
    <path fill="#ffef00" fill-opacity=".99" fill-rule="evenodd" stroke="#000" stroke-width="3.2" d="M469.84 290.15c-2.28-2.07 42.81 16.34 49.01 16.55 8.48-3.1 43.44-32.68 43.44-32.68.34 2.9 1.58 10.41 4.96 12-13.51 10.96-25.78 21.5-39.3 32.46.97 17.38-2.2 35.78 6.62 55.22 0 0-10.54.21-10.54 0-9.31-9.3-12.62-54.18-12.62-54.18-14.82-6.62-29.65-13.03-44.47-19.65 2.14-1.38 3.86-5.65 2.9-9.72z"/>
    <path fill="none" stroke="#000" stroke-width="3.2" d="M512.74 336.15c.72-.52-8.13 4.11-10.4 5.28-40.97 21.85-62.05 53.63-63.36 54.83-.71 1.36-2.01 3.16-3.2 4.93-.97 1.48-2.34 3.02-3.25 4.52a87.87 87.87 0 0 1-5.34 6.7c-.18.97.69-.34.4.3m113.14-102.53c-.8-.4 7.38 5.35 9.45 6.84 38.17 26.43 76.08 30.64 77.74 31.26 1.53 0 3.73.34 5.85.6 1.76.17 3.76.69 5.5.81 2.12.32 6.38 1.1 8.4 1.68.95-.29-.61-.45.1-.5"/>
  </g>
</svg>
