<svg xmlns="http://www.w3.org/2000/svg" height="512" width="512" version="1">
    <g clip-path="url(#a)">
        <path fill-rule="evenodd" fill="#ba0000" d="M629.344 511.934h-731.344v-511.934h731.344z"/>
        <path d="M280.992 375.986c.2-.605.603-6.843.402-6.843s-9.458-10.867-9.257-10.867 11.873 2.617 11.873 2.213c0-.402 4.628-11.47 4.628-11.672 0-.2 5.635 13.484 5.635 13.484l11.47 5.032-8.05 6.64s1.812 12.88 1.812 13.082c0 .2-8.05-7.648-8.05-7.648l-8.855 1.007s-1.207-4.025-1.608-4.427z" fill-rule="evenodd" fill-opacity=".988" stroke="#000" stroke-width="NaN" fill="#ffef00"/>
        <path d="M218.64 206.885c-7.647 3.937-36.994 37.483-41.019 42.715-3.372 7.596-9.968 17.204-16.761 23.39-7.252 5.486-11.282 12.981-10.283 20.077-.081 8.83 4.87 14.842 8.814 21.056 2.334 2.838 5.475 4.673 8.814 4.896 6.85.904 7.458 3.013 10.887 4.319 13.505 18.388 33.652 31.948 48.162 42.689 9.249 4.875 15.68 9.749 17.884 12.411 4.248 8.111 3.466 16.021 2.884 19.907-3.59 13.548-7.182 27.096-10.773 40.644-1.812 11.068 7.807 8.579 8.325 6.366 4.341-5.635 10.819-1.678 20.076-34.278 4.243-5.713 8.488-11.426 12.731-17.138 0 0 4.898-1.959 4.898-2.448 7.447-8.941 1.777-14.059-2.45-15.669l-9.303-3.428s-10.773-10.773-11.262-10.773c-5.119-14.892-30.247-46.684-36.083-51.111-4.04-4.21-5.962-6.004-9.797-8.346-5.896-2.82-7.799-3.737-11.411-5.179-3.007-1.207-.866-4.508 1.046-6.017 19.902-10.834 35.678-22.874 54.775-35.116l2.937-1.959-6.855-39.173-31.829-11.264c-1.67 1.142-2.937 2.286-4.407 3.428z" fill-rule="evenodd" stroke="#000" stroke-width="2.636535" fill="#fff"/>
        <path d="M245.27 413.129c.101-.402 19.922-4.025 19.922-4.025s-2.314 7.346-2.415 7.346l-19.72 5.936 2.213-9.257z" fill-rule="evenodd" fill="#ffec00"/>
        <path d="M193.614 338.496c3.823-10.163 14.437-18.209 21.567-20.429" stroke="#000" stroke-width="NaN" fill="none"/>
        <path d="M244.559 413.295c1.279-.36 6.961-2.018 8.615-2.276 1.765-.413 3.523-.876 5.22-1.423 1.959-.4 3.185-.769 5.22-1.139 1.593-.608 3.169-1.025 4.873-1.423m-27.517 18.517c.165-.222 1.516-1.415 2.486-1.992 1.142-.36 5.048-2.018 6.526-2.276 1.577-.413 3.146-.876 4.661-1.423 1.751-.4 2.845-.769 4.663-1.139 1.423-.608 2.83-1.025 4.351-1.423" stroke="#000" stroke-width="NaN" fill="none"/>
        <path d="M249.023 341.373h-.284c.891 0 .344-.074-.855 1.423-.426 1.15-4.08 3.699-6.83 3.699-1.327.142-3.367.284-4.696.284l-1.281-.284" stroke="#000" stroke-width="NaN" fill="none"/>
        <path d="M248.742 399.988h1.421c1.476 0 2.957.263 4.27.284l4.27.403c1.436.203 3.167.137 4.653.349 1.666.056 3.004.385 4.737.385 1.398.053 2.152.286 3.701.286l-3.701-.286c1.398.053 2.152.286 3.701.286" stroke="#000" stroke-width="NaN" fill="none"/>
        <path d="M239.055 434.718c.152-.222 1.389-1.415 2.276-1.992 1.046-.36 4.623-2.018 5.977-2.276 1.443-.413 2.88-.876 4.268-1.423 1.603-.4 2.605-.769 4.27-1.139 1.304-.608 2.592-1.025 3.984-1.423" stroke="#000" stroke-width="NaN" fill="none"/>
        <path d="M265.718 385.243c-.805 2.337.238 2.924.669 3.932.75.977 2.666 2.466 5.693 3.415 1.167.314 2.065.622 3.415 1.139.894.083 1.334.306 1.992.569" stroke="#000" stroke-width="NaN" fill="none"/>
        <path d="M153.115 299.535h.284c-.893 0-.357.058 1.139-1.139.924-1.033 1.696-1.501 2.56-2.56" stroke="#000" stroke-width="NaN" fill="none"/>
        <path d="M171.53 319.801c.19 0 16.556-8.248 18.304-10.011 1.238-.898 2.175-1.845 3.681-2.865.965-.504 1.658-1.15 2.562-1.708.752-1.089 1.734-1.747 2.276-2.744 1.005-.871.574-1.815 1.389-2.865.385-1.074 1.106-2.884 1.341-3.868" stroke="#000" stroke-width="NaN" fill="none"/>
        <path d="M221.93 307.982c.089.588-.261 2.402-.236 3.782-.056 1.6-2.114 6.543-4.602 8.019" stroke="#000" stroke-width="NaN" fill="none"/>
        <path d="M192.523 307.8c.096 0 2.587.81 6.751 2.091 5.012 1.802 15.436 8.371 16.47 9.275 1.056.831 2.946 1.574 3.67 2.56 1.132.979 1.962 2.108 2.846 3.131 1.04 1.268 1.926 2.341 2.56 3.415 3.165 2.567 11.68 20.342 11.953 21.345.478.939 1.069 2.246 1.423 3.131.631.727 1.06 1.755 1.708 2.846.595 1.415 1.261 2.06 1.994 3.131.942.655 2.212 1.898 3.415 2.56 1.283 1.098 2.486 1.544 3.415 2.278 1.342.57 16.342 10.052 17.037 10.526 1.37 1.101 5.554 5.437 2.617 8.591-1.246 1.066-2.369 2.478-3.433 3.081-1.084 1.086-2.594 1.572-3.84 2.134-6.757 1.997-10.199 1.281-11.528 1.281h-1.423" stroke="#000" stroke-width="NaN" fill="none"/>
        <path d="M159.397 274.277c1.921.752 1.146.197 2.875.984 1.162.509 1.927.522 3.07.939 1.212.388 4.597.998 6.224 2.632 1.193 1.078 2.104 1.989 3.415 2.775 1.551 1.069 2.67 1.546 4.592 2.347 1.622.607 3.435 1.279 5.075 1.337 1.704.099 2.113.015 3.747.015h7.97-3.985" stroke="#000" stroke-width="NaN" fill="none"/>
        <path d="M158.951 293.27c4.268-.284 11.383.997 11.525.997l9.392-.142c4.934-.476 6.024-2.372 6.83-3.701 1.85-2.845 3.131-3.842 4.554-5.976 2.276-1.708 5.409 2.276 5.551 2.276 7.967 7.543 1.564 16.791 1.137 17.075-3.984 3.653-4.838 3.89-7.257 1.565-2.42-2.846-3.131-4.126-5.123-5.123-3.842-1.85-11.811-.426-11.954-.426-.142 0-4.126 1.565-4.126 1.565-1.946.711-3.179 2.42-6.546 2.987-3.415.238-4.554-.094-6.262-2.845-2.276-3.557-1.139-7.827 2.278-8.253z" fill-rule="evenodd" stroke="#000" stroke-width="NaN" fill="#ffe606"/>
        <path d="M381.839 120.691c-.625.122-6.261 2.827-6.163 3.003s-4.838 13.57-4.937 13.395-3.537-11.633-3.889-11.435c-.35.197-12.267 1.586-12.443 1.685-.174.098 8.993-11.52 8.993-11.52l-1.234-12.465 9.733 3.764s10.341-7.891 10.516-7.99c.174-.098-2.723 10.766-2.723 10.766l5.217 7.226s-2.918 3.024-3.071 3.571z" fill-rule="evenodd" fill-opacity=".988" stroke="#000" stroke-width="NaN" fill="#ffef00"/>
        <path d="M264.978 257.908c7.18 4.737 50.804 13.882 57.337 14.827 8.274-.782 19.882.259 28.604 3.15 8.336 3.633 16.844 3.474 22.541-.874 7.738-4.256 10.552-11.518 14.037-18.001 1.33-3.425 1.391-7.062-.051-10.083-2.568-6.415-1.028-7.978-1.569-11.607 9.412-20.783 11.36-44.991 13.614-62.903-.282-10.451.815-18.447 2.056-21.672 4.989-7.678 12.268-10.872 15.941-12.269l40.71-10.525c10.537-3.844 3.653-11.01 1.47-10.376-7.039-1.023-6.764-8.609-39.719-.704l-21.179-2.701s-4.108-3.31-4.534-3.07c-11.443-2.11-13.126 5.34-12.459 9.814l1.57 9.79s-4.112 14.67-3.872 15.096c-10.473 11.76-26.066 49.525-27.065 56.782-.473 6.82-3.049 5.588-2.359 12.216.025 5.18-.577 1.946 1.151 12.618.421 3.212-3.505 2.964-5.758 2.036-19.197-12.041-37.424-19.894-57.454-30.543l-3.147-1.601c-10.263 8.39-20.527 16.782-30.79 25.171l5.778 33.266c1.814.896 3.432 1.44 5.148 2.162z" fill-rule="evenodd" stroke="#000" stroke-width="2.636535" fill="#fff"/>
        <path d="M431.722 133.63c-.4.109-13.271-15.395-13.271-15.395s7.538-1.582 7.587-1.494l14.838 14.282-9.154 2.607z" fill-rule="evenodd" fill="#ffec00"/>
        <path d="M391.974 215.233c-10.733 1.647-22.949-3.663-28.377-8.79" stroke="#000" stroke-width="NaN" fill="none"/>
        <path d="M432.215 134.169c-.941-.939-5.17-5.079-6.206-6.395-1.225-1.336-2.49-2.641-3.799-3.853-1.309-1.512-2.231-2.4-3.551-3.993-1.311-1.091-2.446-2.26-3.629-3.551m29.626 14.915c-.274-.036-1.976-.628-2.955-1.191-.874-.819-4.233-3.412-5.182-4.574-1.133-1.172-2.305-2.313-3.525-3.366-1.207-1.33-2.064-2.103-3.278-3.507-1.228-.943-2.28-1.965-3.373-3.095" stroke="#000" stroke-width="NaN" fill="none"/>
        <path d="M367.33 165.521l.139.248c-.437-.777-.233-.263 1.659.048 1.212-.192 5.224 1.744 6.572 4.141.774 1.087 1.898 2.796 2.549 3.955l.38 1.256" stroke="#000" stroke-width="NaN" fill="none"/>
        <path d="M418.565 137.043l-.139-.248-.557-.991c-.723-1.287-1.22-2.707-1.844-3.861l-1.741-3.92c-.527-1.352-1.432-2.828-1.976-4.227-.767-1.48-1.136-2.807-1.986-4.319-.639-1.245-.805-2.016-1.564-3.367l1.564 3.367c-.639-1.245-.805-2.016-1.564-3.367" stroke="#000" stroke-width="NaN" fill="none"/>
        <path d="M453.587 128.47c-.268-.024-1.914-.517-2.852-1.008-.827-.736-4.025-3.041-4.913-4.095-1.067-1.055-2.175-2.081-3.332-3.023-1.134-1.202-1.947-1.894-3.085-3.164-1.169-.839-2.163-1.757-3.193-2.775" stroke="#000" stroke-width="NaN" fill="none"/>
        <path d="M397.393 129.47c2.432-.444 2.432-1.64 3.1-2.511.484-1.133.843-3.533.187-6.636-.298-1.171-.47-2.104-.681-3.535-.366-.82-.387-1.313-.48-2.015" stroke="#000" stroke-width="NaN" fill="none"/>
        <path d="M377.854 269.629l-.139-.248c.437.778.225.283-1.551-.435-1.353-.299-2.139-.743-3.487-.977" stroke="#000" stroke-width="NaN" fill="none"/>
        <path d="M386.498 243.646c-.093-.166-15.304-10.391-17.696-11.051-1.389-.639-2.674-.992-4.301-1.805-.913-.594-1.815-.882-2.744-1.397-1.318-.122-2.373-.655-3.507-.64-1.252-.449-1.863.389-3.178.193-1.125.191-3.056.449-4.029.727" stroke="#000" stroke-width="NaN" fill="none"/>
        <path d="M351.497 205.501c.469-.366 2.222-.949 3.413-1.647 1.422-.735 6.739-1.363 9.245.082" stroke="#000" stroke-width="NaN" fill="none"/>
        <path d="M365.749 231.226c-.047-.084-.562-2.652-1.485-6.91-.885-5.252-.267-17.558.015-18.903.207-1.328-.072-3.339.434-4.454.298-1.467.876-2.743 1.334-4.016.596-1.528 1.097-2.826 1.722-3.906.687-4.017 12.009-20.15 12.751-20.879.584-.877 1.434-2.033 2.032-2.775.325-.907 1.011-1.784 1.645-2.883.942-1.212 1.177-2.109 1.752-3.272.109-1.142.57-2.858.559-4.232.328-1.656.128-2.924.312-4.093-.161-1.45.755-19.171.828-20.01.288-1.734 2.018-7.506 6.207-6.491 1.54.564 3.321.851 4.368 1.483 1.478.413 2.641 1.491 3.742 2.302 5.052 4.912 6.114 8.263 6.766 9.422l.697 1.241" stroke="#000" stroke-width="NaN" fill="none"/>
        <path d="M352.678 275.949l-.139-.248c.377.67.168.336-.31-1.132-.126-1.263-.515-2.97-.711-4.17-.255-1.247-.839-2.667-.681-3.535-.446-1.266-.165-2.312-.046-3.566.355-1.569.515-2.704.559-4.232.173-1.876.034-3.205.141-4.978-.494-1.459-.595-2.681-1.348-4.139-.67-1.394-1.183-2.684-1.984-4.109l-1.953-3.474 1.953 3.474-1.953-3.474" stroke="#000" stroke-width="NaN" fill="none"/>
        <path d="M369.534 267.612c-2.339-3.581-4.709-10.411-4.778-10.535l-4.726-8.118c-2.833-4.068-5.019-4.089-6.573-4.141-3.386-.218-4.883-.847-7.441-1.042-2.604-1.148-.666-5.83-.736-5.954 2.671-10.642 13.871-9.591 14.328-9.359 5.137 1.683 5.762 2.312 4.921 5.559-1.296 3.504-2.063 4.751-1.955 6.976.27 4.255 5.416 10.505 5.486 10.63.07.124 3.386 2.83 3.386 2.83 1.573 1.348 3.667 1.585 5.811 4.243 1.881 2.86 2.149 4.016.588 6.853-1.986 3.727-6.265 4.828-8.311 2.059z" fill-rule="evenodd" stroke="#000" stroke-width="NaN" fill="#ffe606"/>
        <g>
            <path d="M105.209 168.584c.445.456 5.795 3.69 5.888 3.511s14.004-3.385 13.911-3.206-7.796 9.331-7.438 9.517c.356.185 8.046 9.395 8.225 9.488.178.092-14.564-1.215-14.564-1.215l-9.753 7.86-2.182-10.205s-12.266-4.33-12.445-4.423c-.178-.092 10.499-3.619 10.499-3.619l3.189-8.323s4.128.785 4.67.613z" fill-rule="evenodd" fill-opacity=".988" stroke="#000" stroke-width="NaN" fill="#ffef00"/>
            <path d="M284.026 191.201c.031-8.601-16.212-50.111-19-56.094-5.186-6.494-10.674-16.777-13.031-25.658-1.526-8.965-6.32-15.996-13.078-18.381-7.799-4.142-15.417-2.52-22.75-1.884-3.595.763-6.671 2.705-8.408 5.565-3.96 5.662-6.112 5.23-8.852 7.671-22.544 3.509-43.866 15.138-60.087 23.064-8.59 5.961-15.881 9.422-19.258 10.15-9.157.031-15.816-4.309-18.997-6.617-10.368-9.432-20.736-18.865-31.105-28.296-8.988-6.71-11.213 2.974-9.487 4.453 3 6.45-3.498 10.375 21.167 33.618l9.341 19.199s-.519 5.25-.085 5.475c4.502 10.73 11.658 8.058 15.035 5.049l7.331-6.676s14.526-4.594 14.752-5.029c15.576 2.322 55.714-5.318 62.333-8.457 5.965-3.339 6.345-.51 11.513-4.718 4.32-2.858 1.944-.583 9.926-7.874 2.457-2.112 4.4 1.309 4.858 3.702.44 22.657 3.853 42.208 5.915 64.8l.384 3.51c12.641 3.992 25.284 7.983 37.925 11.974l24.668-23.055c-.244-2.008-.675-3.661-1.011-5.491z" fill-rule="evenodd" stroke="#000" stroke-width="2.636535" fill="#fff"/>
            <path d="M88.713 119.76c.31.275-5.611 19.536-5.611 19.536s-5.453-5.44-5.406-5.53l3.823-20.238 7.195 6.232z" fill-rule="evenodd" fill="#ffec00"/>
            <path d="M178.76 108.32c7.257 8.078 9.505 21.207 8.189 28.558" stroke="#000" stroke-width="NaN" fill="none"/>
            <path d="M88.893 119.053c-.27 1.302-1.418 7.108-1.951 8.695-.447 1.757-.846 3.53-1.143 5.289-.548 1.923-.786 3.181-1.396 5.158-.195 1.695-.551 3.285-.983 4.981m-3.748-32.957c.12.249.557 1.998.622 3.125-.207 1.18-.536 5.411-.988 6.841-.36 1.59-.673 3.196-.886 4.793-.452 1.738-.629 2.879-1.139 4.663-.116 1.544-.395 2.984-.742 4.517" stroke="#000" stroke-width="NaN" fill="none"/>
            <path d="M150.665 156.168l.131-.252c-.411.791-.092.339-.869-1.415-.824-.909-1.403-5.326-.135-7.767.486-1.244 1.3-3.119 1.913-4.299l.843-1.006" stroke="#000" stroke-width="NaN" fill="none"/>
            <path d="M98.775 128.898l-.131.252-.524 1.009c-.68 1.31-1.596 2.503-2.221 3.658l-2.326 3.603c-.843 1.181-1.582 2.748-2.455 3.969-.818 1.453-1.726 2.488-2.526 4.027-.692 1.217-1.246 1.778-1.96 3.153l1.96-3.153c-.692 1.217-1.246 1.778-1.96 3.153" stroke="#000" stroke-width="NaN" fill="none"/>
            <path d="M72.419 104.292c.126.237.616 1.885.718 2.938-.163 1.095-.34 5.034-.735 6.354-.298 1.471-.55 2.959-.704 4.444-.384 1.607-.519 2.666-.957 4.314-.061 1.438-.285 2.773-.573 4.192" stroke="#000" stroke-width="NaN" fill="none"/>
            <path d="M104.035 150.761c-1.703-1.792-2.705-1.137-3.799-1.219-1.213.216-3.418 1.229-5.655 3.478-.817.891-1.503 1.546-2.585 2.506-.486.756-.886 1.043-1.423 1.506" stroke="#000" stroke-width="NaN" fill="none"/>
            <path d="M232.006 90.339l-.131.252c.411-.792.113-.344.486 1.536.491 1.296.55 2.197 1.092 3.453" stroke="#000" stroke-width="NaN" fill="none"/>
            <path d="M205.532 97.339c-.088.169-.312 18.496.447 20.859.226 1.513.634 2.781.845 4.588.002 1.089.257 2.002.334 3.061.62 1.17.751 2.344 1.386 3.285.31 1.294 1.346 1.346 1.902 2.553.776.837 2.05 2.311 2.815 2.973" stroke="#000" stroke-width="NaN" fill="none"/>
            <path d="M192.788 147.516c-.563-.192-2.011-1.339-3.248-1.953-1.394-.787-4.832-4.892-4.995-7.781" stroke="#000" stroke-width="NaN" fill="none"/>
            <path d="M206.505 121.502c-.044.085-1.911 1.922-4.968 5.027-3.909 3.617-14.544 9.84-15.824 10.342-1.225.554-2.754 1.889-3.964 2.076-1.39.554-2.775.77-4.091 1.083-1.604.338-2.965.63-4.211.698-3.737 1.626-23.437.989-24.453.768-1.053-.009-2.487-.086-3.435-.18-.937.225-2.046.131-3.313.203-1.53-.124-2.409.17-3.697.326-1.015.534-2.704 1.088-3.847 1.85-1.565.632-2.516 1.495-3.596 1.981-1.125.928-16.454 9.869-17.196 10.268-1.609.709-7.385 2.423-8.83-1.638-.372-1.598-1.107-3.244-1.152-4.467-.464-1.463-.2-3.026-.124-4.392 1.343-6.918 3.565-9.642 4.177-10.821l.656-1.263" stroke="#000" stroke-width="NaN" fill="none"/>
            <path d="M251.084 107.942l-.131.252c.354-.682.189-.325-.777.88-.988.797-2.203 2.058-3.1 2.879-.903.896-1.772 2.163-2.585 2.506-.815 1.067-1.843 1.404-2.959 1.991-1.507.562-2.544 1.05-3.847 1.85-1.664.883-2.7 1.727-4.242 2.608-.95 1.213-1.917 1.966-2.724 3.395-.8 1.324-1.598 2.46-2.352 3.911l-1.837 3.537 1.837-3.537-1.837 3.537" stroke="#000" stroke-width="NaN" fill="none"/>
            <path d="M238.269 204.876l.263-.506c-.485.934-.315.689.141-.888.005-1.892.454-4.181.473-5.849.285-1.767.574-3.675.592-5.465-.107-2.093-.103-3.969-.416-5.989-.024-1.858-.241-3.786-.296-5.606-.034-1.804-.168-3.349-.559-5.1-.036-1.311-.117-3.11-.435-4.717.171-1.265-.189-2.43-.458-3.444-.49-1.951-.679-3.089-1.194-5.111-.309-1.083-.615-2.467-1.081-4.09-.169-1.537-.991-3.532-1.325-4.857-.457-.975-.917-2.294-1.094-3.453-.478-1.07-1.16-2.376-1.345-3.586-.504-.923-1.04-2.358-1.597-3.717-.48-1.116-.833-2.491-1.344-3.584-.515-1.382-1.145-2.562-1.466-3.969-.493-.478-.605-1.002-.87-1.413" stroke="#000" stroke-width="NaN" fill="none"/>
            <path d="M234.876 98.405c-1.715 3.919-6.132 9.642-6.197 9.768l-4.204 8.401c-1.852 4.598-.672 6.439.136 7.768 1.672 2.953 1.966 4.549 3.204 6.796.466 2.807-4.513 3.751-4.579 3.877-10.367 3.594-15.623-6.353-15.678-6.862-1.406-5.219-1.221-6.087 1.956-7.162 3.642-.836 5.105-.877 6.908-2.185 3.412-2.557 5.823-10.285 5.889-10.413.066-.126.513-4.383.513-4.383.266-2.054-.682-3.937.367-7.186 1.363-3.141 2.183-3.998 5.411-4.246 4.206-.38 7.471 2.597 6.275 5.826z" fill-rule="evenodd" stroke="#000" stroke-width="NaN" fill="#ffe606"/>
        </g>
        <path d="M221.288 199.646c-1.566-1.422 29.457 11.241 33.726 11.385 5.836-2.134 29.885-22.484 29.885-22.484.237 1.992 1.09 7.162 3.414 8.254-9.296 7.543-17.74 14.799-27.037 22.341.665 11.954-1.517 24.62 4.554 37.996 0 0-7.256.141-7.256 0-6.404-6.404-8.682-37.284-8.682-37.284l-30.595-13.519c1.471-.95 2.657-3.889 1.993-6.69z" fill-rule="evenodd" fill-opacity=".987" stroke="#000" stroke-width="NaN" fill="#ffef00"/>
        <path d="M250.806 231.298c.496-.36-5.596 2.83-7.161 3.631-28.184 15.035-42.688 36.904-43.593 37.731-.487.932-1.384 2.174-2.205 3.392-.661 1.02-1.609 2.077-2.234 3.109-.864 1.196-2.679 3.557-3.67 4.606-.124.676.47-.231.276.218" stroke="#000" stroke-width="NaN" fill="none"/>
        <path d="M270.065 213.429c-.547-.277 5.077 3.682 6.504 4.706 26.261 18.187 52.344 21.081 53.492 21.507 1.051.007 2.567.236 4.024.409 1.21.12 2.582.48 3.787.564 1.458.22 4.389.754 5.775 1.157.656-.2-.42-.312.067-.345" stroke="#000" stroke-width="NaN" fill="none"/>
    </g>
</svg>
