<svg xmlns="http://www.w3.org/2000/svg" height="512" width="512" version="1"><defs><clipPath id="a"><rect fill-opacity=".67" height="744.09" width="744.09" x="148.24"/></clipPath></defs><g clip-path="url(#a)" transform="matrix(.688 0 0 .688 -102 0)"><rect fill-rule="evenodd" transform="scale(-1)" height="744.09" width="1063" y="-744.09" x="-1063" fill="#ba0000"/><path d="M238.86 224.5c.121-.366.365-4.14.243-4.14s-5.722-6.574-5.6-6.574 7.183 1.583 7.183 1.339c0-.243 2.8-6.939 2.8-7.061 0-.121 3.409 8.157 3.409 8.157l6.939 3.044-4.87 4.017s1.096 7.792 1.096 7.914c0 .121-4.87-4.627-4.87-4.627l-5.357.609s-.73-2.435-.973-2.678z" fill-rule="evenodd" fill-opacity=".988" transform="matrix(2.402 0 0 2.402 -17.213 7.104)" stroke="#000" stroke-width="1pt" fill="#ffef00"/><path d="M201.14 122.2c-4.626 2.382-22.38 22.676-24.815 25.841-2.04 4.595-6.03 10.408-10.14 14.15-4.387 3.319-6.825 7.853-6.221 12.146-.049 5.342 2.946 8.979 5.332 12.738 1.412 1.717 3.312 2.827 5.332 2.962 4.144.547 4.512 1.823 6.586 2.613 8.17 11.124 20.358 19.327 29.136 25.825 5.595 2.949 9.486 5.898 10.819 7.508 2.57 4.907 2.097 9.692 1.745 12.043l-6.517 24.588c-1.096 6.696 4.723 5.19 5.036 3.851 2.626-3.409 6.545-1.015 12.145-20.737l7.702-10.368s2.963-1.185 2.963-1.481c4.505-5.409 1.075-8.505-1.482-9.479l-5.628-2.074s-6.517-6.517-6.813-6.517c-3.097-9.009-18.298-28.242-21.829-30.92-2.444-2.547-3.607-3.632-5.927-5.049-3.567-1.706-4.718-2.261-6.903-3.133-1.819-.73-.524-2.727.633-3.64 12.04-6.554 21.584-13.838 33.137-21.244l1.777-1.185-4.147-23.698-19.255-6.814c-1.01.691-1.777 1.383-2.666 2.074z" fill-rule="evenodd" transform="matrix(2.402 0 0 2.402 -17.213 7.104)" stroke="#000" stroke-width="1.595" fill="#fff"/><path d="M504.73 600.449c.147-.584 28.955-5.85 28.955-5.85s-3.363 10.677-3.51 10.677l-28.662 8.627 3.217-13.454z" fill-rule="evenodd" fill="#ffec00"/><path d="M186 201.82c2.313-6.148 8.734-11.016 13.047-12.359" transform="matrix(2.402 0 0 2.402 -17.213 7.104)" stroke="#000" stroke-width="1pt" fill="none"/><path d="M216.82 247.07c.774-.218 4.211-1.221 5.212-1.377 1.068-.25 2.131-.53 3.158-.861 1.185-.242 1.927-.465 3.158-.689.964-.368 1.917-.62 2.948-.861m-16.647 11.202c.1-.134.917-.856 1.504-1.205.691-.218 3.054-1.221 3.948-1.377.954-.25 1.903-.53 2.82-.861 1.059-.242 1.721-.465 2.821-.689.861-.368 1.712-.62 2.632-.861" transform="matrix(2.402 0 0 2.402 -17.213 7.104)" stroke="#000" stroke-width="1.106pt" fill="none"/><path d="M219.52 203.56h-.172c.539 0 .208-.045-.517.861-.258.696-2.468 2.238-4.132 2.238-.803.086-2.037.172-2.841.172l-.775-.172" transform="matrix(2.402 0 0 2.402 -17.213 7.104)" stroke="#000" stroke-width="1pt" fill="none"/><path d="M219.35 239.02h.8599999999999999c.893 0 1.789.159 2.583.172l2.583.244c.869.123 1.916.083 2.815.211 1.008.034 1.817.233 2.866.233.846.032 1.302.173 2.239.173l-2.239-.173c.846.032 1.302.173 2.239.173" transform="matrix(2.402 0 0 2.402 -17.213 7.104)" stroke="#000" stroke-width="1pt" fill="none"/><path d="M213.49 260.03c.092-.134.84-.856 1.377-1.205.633-.218 2.797-1.221 3.616-1.377.873-.25 1.742-.53 2.582-.861.97-.242 1.576-.465 2.583-.689.789-.368 1.568-.62 2.41-.861" transform="matrix(2.402 0 0 2.402 -17.213 7.104)" stroke="#000" stroke-width="1pt" fill="none"/><path d="M229.62 230.1c-.487 1.414.144 1.769.405 2.379.454.591 1.613 1.492 3.444 2.066.706.19 1.249.376 2.066.689.541.05.807.185 1.205.344" transform="matrix(2.402 0 0 2.402 -17.213 7.104)" stroke="#000" stroke-width="1pt" fill="none"/><path d="M161.5 178.25h.172c-.54 0-.216.035.689-.689.559-.625 1.026-.908 1.549-1.549" transform="matrix(2.402 0 0 2.402 -17.213 7.104)" stroke="#000" stroke-width="1pt" fill="none"/><path d="M172.64 190.51c.115 0 10.016-4.99 11.073-6.056.749-.543 1.316-1.116 2.227-1.733.584-.305 1.003-.696 1.55-1.033.455-.659 1.049-1.057 1.377-1.66.608-.527.347-1.098.84-1.733.233-.65.669-1.745.811-2.34" transform="matrix(2.402 0 0 2.402 -17.213 7.104)" stroke="#000" stroke-width="1pt" fill="none"/><path d="M203.13 183.36c.054.356-.158 1.453-.143 2.288-.034.968-1.279 3.958-2.784 4.851" transform="matrix(2.402 0 0 2.402 -17.213 7.104)" stroke="#000" stroke-width="1pt" fill="none"/><path d="M185.34 183.25c.058 0 1.565.49 4.084 1.265 3.032 1.09 9.338 5.064 9.964 5.611.639.503 1.782.952 2.22 1.549.685.592 1.187 1.275 1.722 1.894.629.767 1.165 1.416 1.549 2.066 1.915 1.553 7.066 12.306 7.231 12.913.289.568.647 1.359.861 1.894.382.44.641 1.062 1.033 1.722.36.856.763 1.246 1.206 1.894.57.396 1.338 1.148 2.066 1.549.776.664 1.504.934 2.066 1.378.812.345 9.886 6.081 10.307 6.368.829.666 3.36 3.289 1.583 5.197-.754.645-1.433 1.499-2.077 1.864-.656.657-1.569.951-2.323 1.291-4.088 1.208-6.17.775-6.974.775h-.861" transform="matrix(2.402 0 0 2.402 -17.213 7.104)" stroke="#000" stroke-width="1pt" fill="none"/><path d="M165.3 162.97c1.162.455.693.119 1.739.595.703.308 1.166.316 1.857.568.733.235 2.781.604 3.765 1.592.722.652 1.273 1.203 2.066 1.679.938.647 1.615.935 2.778 1.42.981.367 2.078.774 3.07.809 1.031.06 1.278.009 2.267.009h2.411" transform="matrix(2.402 0 0 2.402 -17.213 7.104)" stroke="#000" stroke-width="1pt" fill="none"/><path d="M165.03 174.46c2.582-.172 6.886.603 6.972.603l5.682-.086c2.985-.288 3.644-1.435 4.132-2.239 1.119-1.721 1.894-2.324 2.755-3.615 1.377-1.033 3.272 1.377 3.358 1.377 4.82 4.563.946 10.158.688 10.33-2.41 2.21-2.927 2.353-4.39.947-1.464-1.722-1.894-2.496-3.099-3.099-2.324-1.119-7.145-.258-7.232-.258-.086 0-2.496.947-2.496.947-1.177.43-1.923 1.464-3.96 1.807-2.066.144-2.755-.057-3.788-1.721-1.377-2.152-.689-4.735 1.378-4.993z" fill-rule="evenodd" transform="matrix(2.402 0 0 2.402 -17.213 7.104)" stroke="#000" stroke-width="1pt" fill="#ffe606"/><path d="M238.86 224.5c.121-.366.365-4.14.243-4.14s-5.722-6.574-5.6-6.574 7.183 1.583 7.183 1.339c0-.243 2.8-6.939 2.8-7.061 0-.121 3.409 8.157 3.409 8.157l6.939 3.044-4.87 4.017s1.096 7.792 1.096 7.914c0 .121-4.87-4.627-4.87-4.627l-5.357.609s-.73-2.435-.973-2.678z" fill-rule="evenodd" fill-opacity=".988" transform="matrix(-1.177 -2.094 2.094 -1.177 514.2 939.91)" stroke="#000" stroke-width="1pt" fill="#ffef00"/><path d="M201.14 122.2c-4.626 2.382-22.38 22.676-24.815 25.841-2.04 4.595-6.03 10.408-10.14 14.15-4.387 3.319-6.825 7.853-6.221 12.146-.049 5.342 2.946 8.979 5.332 12.738 1.412 1.717 3.312 2.827 5.332 2.962 4.144.547 4.512 1.823 6.586 2.613 8.17 11.124 20.358 19.327 29.136 25.825 5.595 2.949 9.486 5.898 10.819 7.508 2.57 4.907 2.097 9.692 1.745 12.043l-6.517 24.588c-1.096 6.696 4.723 5.19 5.036 3.851 2.626-3.409 6.545-1.015 12.145-20.737l7.702-10.368s2.963-1.185 2.963-1.481c4.505-5.409 1.075-8.505-1.482-9.479l-5.628-2.074s-6.517-6.517-6.813-6.517c-3.097-9.009-18.39-28.426-21.921-31.104-3.456-2.271-2.043-3.264-5.743-4.865-2.739-1.522-.855-.881-6.995-3.133-1.819-.73-.524-2.727.633-3.64 12.04-6.554 21.584-13.838 33.137-21.244l1.777-1.185-4.147-23.698-19.255-6.814c-1.01.691-1.777 1.383-2.666 2.074z" fill-rule="evenodd" transform="matrix(-1.177 -2.094 2.094 -1.177 514.2 939.91)" stroke="#000" stroke-width="1.595" fill="#fff"/><path d="M775.614 194.163c-.581.158-19.289-22.372-19.289-22.372s10.955-2.3 11.027-2.173l21.567 20.756-13.304 3.789z" fill-rule="evenodd" fill="#ffec00"/><path d="M186 201.82c2.313-6.148 8.734-11.016 13.047-12.359" transform="matrix(-1.177 -2.094 2.094 -1.177 514.2 939.91)" stroke="#000" stroke-width="1pt" fill="none"/><path d="M216.82 247.07c.774-.218 4.211-1.221 5.212-1.377 1.068-.25 2.131-.53 3.158-.861 1.185-.242 1.927-.465 3.158-.689.964-.368 1.917-.62 2.948-.861m-16.647 11.202c.1-.134.917-.856 1.504-1.205.691-.218 3.054-1.221 3.948-1.377.954-.25 1.903-.53 2.82-.861 1.059-.242 1.721-.465 2.821-.689.861-.368 1.712-.62 2.632-.861" transform="matrix(-1.177 -2.094 2.094 -1.177 514.2 939.91)" stroke="#000" stroke-width="1.106pt" fill="none"/><path d="M219.52 203.56h-.172c.539 0 .208-.045-.517.861-.258.696-2.468 2.238-4.132 2.238-.803.086-2.037.172-2.841.172l-.775-.172" transform="matrix(-1.177 -2.094 2.094 -1.177 514.2 939.91)" stroke="#000" stroke-width="1pt" fill="none"/><path d="M219.35 239.02h.8599999999999999c.893 0 1.789.159 2.583.172l2.583.244c.869.123 1.916.083 2.815.211 1.008.034 1.817.233 2.866.233.846.032 1.302.173 2.239.173l-2.239-.173c.846.032 1.302.173 2.239.173" transform="matrix(-1.177 -2.094 2.094 -1.177 514.2 939.91)" stroke="#000" stroke-width="1pt" fill="none"/><path d="M213.49 260.03c.092-.134.84-.856 1.377-1.205.633-.218 2.797-1.221 3.616-1.377.873-.25 1.742-.53 2.582-.861.97-.242 1.576-.465 2.583-.689.789-.368 1.568-.62 2.41-.861" transform="matrix(-1.177 -2.094 2.094 -1.177 514.2 939.91)" stroke="#000" stroke-width="1pt" fill="none"/><path d="M229.62 230.1c-.487 1.414.144 1.769.405 2.379.454.591 1.613 1.492 3.444 2.066.706.19 1.249.376 2.066.689.541.05.807.185 1.205.344" transform="matrix(-1.177 -2.094 2.094 -1.177 514.2 939.91)" stroke="#000" stroke-width="1pt" fill="none"/><path d="M161.5 178.25h.172c-.54 0-.216.035.689-.689.559-.625 1.026-.908 1.549-1.549" transform="matrix(-1.177 -2.094 2.094 -1.177 514.2 939.91)" stroke="#000" stroke-width="1pt" fill="none"/><path d="M172.64 190.51c.115 0 10.016-4.99 11.073-6.056.749-.543 1.316-1.116 2.227-1.733.584-.305 1.003-.696 1.55-1.033.455-.659 1.049-1.057 1.377-1.66.608-.527.347-1.098.84-1.733.233-.65.669-1.745.811-2.34" transform="matrix(-1.177 -2.094 2.094 -1.177 514.2 939.91)" stroke="#000" stroke-width="1pt" fill="none"/><path d="M203.13 183.36c.054.356-.158 1.453-.143 2.288-.034.968-1.279 3.958-2.784 4.851" transform="matrix(-1.177 -2.094 2.094 -1.177 514.2 939.91)" stroke="#000" stroke-width="1pt" fill="none"/><path d="M185.34 183.25c.058 0 1.565.49 4.084 1.265 3.032 1.09 9.338 5.064 9.964 5.611.639.503 1.782.952 2.22 1.549.685.592 1.187 1.275 1.722 1.894.629.767 1.165 1.416 1.549 2.066 1.915 1.553 7.066 12.306 7.231 12.913.289.568.647 1.359.861 1.894.382.44.641 1.062 1.033 1.722.36.856.763 1.246 1.206 1.894.57.396 1.338 1.148 2.066 1.549.776.664 1.504.934 2.066 1.378.812.345 9.886 6.081 10.307 6.368.829.666 3.36 3.289 1.583 5.197-.754.645-1.433 1.499-2.077 1.864-.656.657-1.569.951-2.323 1.291-4.088 1.208-6.17.775-6.974.775h-.861" transform="matrix(-1.177 -2.094 2.094 -1.177 514.2 939.91)" stroke="#000" stroke-width="1pt" fill="none"/><path d="M165.63 163.1h.172c-.465 0-.227-.011.689.172.703.308 1.719.609 2.41.861.733.235 1.655.348 2.066.689.8.14 1.268.598 1.894 1.033.722.652 1.273 1.073 2.066 1.549.938.647 1.68.968 2.583 1.55.916.172 1.59.481 2.582.516.934.06 1.766.172 2.755.172h2.411" transform="matrix(-1.177 -2.094 2.094 -1.177 514.2 939.91)" stroke="#000" stroke-width="1pt" fill="none"/><path d="M165.03 174.46c2.582-.172 6.886.603 6.972.603l5.682-.086c2.985-.288 3.644-1.435 4.132-2.239 1.119-1.721 1.894-2.324 2.755-3.615 1.377-1.033 3.272 1.377 3.358 1.377 4.82 4.563.946 10.158.688 10.33-2.41 2.21-2.927 2.353-4.39.947-1.464-1.722-1.894-2.496-3.099-3.099-2.324-1.119-7.145-.258-7.232-.258-.086 0-2.496.947-2.496.947-1.177.43-1.923 1.464-3.96 1.807-2.066.144-2.755-.057-3.788-1.721-1.377-2.152-.689-4.735 1.378-4.993z" fill-rule="evenodd" transform="matrix(-1.177 -2.094 2.094 -1.177 514.2 939.91)" stroke="#000" stroke-width="1pt" fill="#ffe606"/><g><path d="M238.86 224.5c.121-.366.365-4.14.243-4.14s-5.722-6.574-5.6-6.574 7.183 1.583 7.183 1.339c0-.243 2.8-6.939 2.8-7.061 0-.121 3.409 8.157 3.409 8.157l6.939 3.044-4.87 4.017s1.096 7.792 1.096 7.914c0 .121-4.87-4.627-4.87-4.627l-5.357.609s-.73-2.435-.973-2.678z" fill-rule="evenodd" fill-opacity=".988" stroke="#000" stroke-width="1pt" fill="#ffef00" transform="matrix(-1.107 2.132 -2.132 -1.107 1044.3 -15.63)"/><path d="M201.14 122.2c-4.626 2.382-22.38 22.676-24.815 25.841-2.04 4.595-6.03 10.408-10.14 14.15-4.387 3.319-6.825 7.853-6.221 12.146-.049 5.342 2.946 8.979 5.332 12.738 1.412 1.717 3.312 2.827 5.332 2.962 4.144.547 4.512 1.823 6.586 2.613 8.17 11.124 20.358 19.327 29.136 25.825 5.595 2.949 9.486 5.898 10.819 7.508 2.57 4.907 2.097 9.692 1.745 12.043l-6.517 24.588c-1.096 6.696 4.723 5.19 5.036 3.851 2.626-3.409 6.545-1.015 12.145-20.737l7.702-10.368s2.963-1.185 2.963-1.481c4.505-5.409 1.075-8.505-1.482-9.479l-5.628-2.074s-6.517-6.517-6.813-6.517c-3.097-9.009-18.39-28.426-21.921-31.104-3.456-2.271-2.043-3.264-5.743-4.865-2.739-1.522-.855-.881-6.995-3.133-1.819-.73-.524-2.727.633-3.64 12.04-6.554 21.584-13.838 33.137-21.244l1.777-1.185-4.147-23.698-19.255-6.814c-1.01.691-1.777 1.383-2.666 2.074z" fill-rule="evenodd" stroke="#000" stroke-width="1.595" fill="#fff" transform="matrix(-1.107 2.132 -2.132 -1.107 1044.3 -15.63)"/><path d="M277.264 174.151c.451.399-8.15 28.39-8.15 28.39s-7.925-7.904-7.857-8.034l5.55-29.41 10.457 9.054z" fill-rule="evenodd" fill="#ffec00"/><path d="M186 201.82c2.313-6.148 8.734-11.016 13.047-12.359" stroke="#000" stroke-width="1pt" fill="none" transform="matrix(-1.107 2.132 -2.132 -1.107 1044.3 -15.63)"/><path d="M216.82 247.07c.774-.218 4.211-1.221 5.212-1.377 1.068-.25 2.131-.53 3.158-.861 1.185-.242 1.927-.465 3.158-.689.964-.368 1.917-.62 2.948-.861m-16.647 11.202c.1-.134.917-.856 1.504-1.205.691-.218 3.054-1.221 3.948-1.377.954-.25 1.903-.53 2.82-.861 1.059-.242 1.721-.465 2.821-.689.861-.368 1.712-.62 2.632-.861" stroke="#000" stroke-width="1.106pt" fill="none" transform="matrix(-1.107 2.132 -2.132 -1.107 1044.3 -15.63)"/><path d="M219.52 203.56h-.172c.539 0 .208-.045-.517.861-.258.696-2.468 2.238-4.132 2.238-.803.086-2.037.172-2.841.172l-.775-.172" stroke="#000" stroke-width="1pt" fill="none" transform="matrix(-1.107 2.132 -2.132 -1.107 1044.3 -15.63)"/><path d="M219.35 239.02h.8599999999999999c.893 0 1.789.159 2.583.172l2.583.244c.869.123 1.916.083 2.815.211 1.008.034 1.817.233 2.866.233.846.032 1.302.173 2.239.173l-2.239-.173c.846.032 1.302.173 2.239.173" stroke="#000" stroke-width="1pt" fill="none" transform="matrix(-1.107 2.132 -2.132 -1.107 1044.3 -15.63)"/><path d="M213.49 260.03c.092-.134.84-.856 1.377-1.205.633-.218 2.797-1.221 3.616-1.377.873-.25 1.742-.53 2.582-.861.97-.242 1.576-.465 2.583-.689.789-.368 1.568-.62 2.41-.861" stroke="#000" stroke-width="1pt" fill="none" transform="matrix(-1.107 2.132 -2.132 -1.107 1044.3 -15.63)"/><path d="M229.62 230.1c-.487 1.414.144 1.769.405 2.379.454.591 1.613 1.492 3.444 2.066.706.19 1.249.376 2.066.689.541.05.807.185 1.205.344" stroke="#000" stroke-width="1pt" fill="none" transform="matrix(-1.107 2.132 -2.132 -1.107 1044.3 -15.63)"/><path d="M161.5 178.25h.172c-.54 0-.216.035.689-.689.559-.625 1.026-.908 1.549-1.549" stroke="#000" stroke-width="1pt" fill="none" transform="matrix(-1.107 2.132 -2.132 -1.107 1044.3 -15.63)"/><path d="M172.64 190.51c.115 0 10.016-4.99 11.073-6.056.749-.543 1.316-1.116 2.227-1.733.584-.305 1.003-.696 1.55-1.033.455-.659 1.049-1.057 1.377-1.66.608-.527.347-1.098.84-1.733.233-.65.669-1.745.811-2.34" stroke="#000" stroke-width="1pt" fill="none" transform="matrix(-1.107 2.132 -2.132 -1.107 1044.3 -15.63)"/><path d="M203.13 183.36c.054.356-.158 1.453-.143 2.288-.034.968-1.279 3.958-2.784 4.851" stroke="#000" stroke-width="1pt" fill="none" transform="matrix(-1.107 2.132 -2.132 -1.107 1044.3 -15.63)"/><path d="M185.34 183.25c.058 0 1.565.49 4.084 1.265 3.032 1.09 9.338 5.064 9.964 5.611.639.503 1.782.952 2.22 1.549.685.592 1.187 1.275 1.722 1.894.629.767 1.165 1.416 1.549 2.066 1.915 1.553 7.066 12.306 7.231 12.913.289.568.647 1.359.861 1.894.382.44.641 1.062 1.033 1.722.36.856.763 1.246 1.206 1.894.57.396 1.338 1.148 2.066 1.549.776.664 1.504.934 2.066 1.378.812.345 9.886 6.081 10.307 6.368.829.666 3.36 3.289 1.583 5.197-.754.645-1.433 1.499-2.077 1.864-.656.657-1.569.951-2.323 1.291-4.088 1.208-6.17.775-6.974.775h-.861" stroke="#000" stroke-width="1pt" fill="none" transform="matrix(-1.107 2.132 -2.132 -1.107 1044.3 -15.63)"/><path d="M165.63 163.1h.172c-.465 0-.227-.011.689.172.703.308 1.719.609 2.41.861.733.235 1.655.348 2.066.689.8.14 1.268.598 1.894 1.033.722.652 1.273 1.073 2.066 1.549.938.647 1.68.968 2.583 1.55.916.172 1.59.481 2.582.516.934.06 1.766.172 2.755.172h2.411" stroke="#000" stroke-width="1pt" fill="none" transform="matrix(-1.107 2.132 -2.132 -1.107 1044.3 -15.63)"/><path d="M221.24 142.95h-.345c.637 0 .458-.023-.516.172-1.017.525-2.371.922-3.272 1.377-1.028.34-2.133.717-3.099 1.206-1.094.641-2.102 1.162-3.099 1.893-.991.531-1.965 1.185-2.927 1.722-.959.521-1.751 1.024-2.582 1.722-.694.385-1.637.93-2.411 1.549-.727.261-1.252.779-1.721 1.206-.911.807-1.469 1.226-2.411 2.066-.495.468-1.153 1.018-1.894 1.721-.778.519-1.62 1.517-2.238 2.066-.396.517-.976 1.132-1.549 1.55-.441.555-.952 1.285-1.55 1.722-.355.528-.976 1.216-1.55 1.894-.465.569-1.105 1.142-1.549 1.721-.598.662-1.056 1.329-1.722 1.894-.119.398-.369.604-.516.861" stroke="#000" stroke-width="1pt" fill="none" transform="matrix(-1.107 2.132 -2.132 -1.107 1044.3 -15.63)"/><path d="M165.03 174.46c2.582-.172 6.886.603 6.972.603l5.682-.086c2.985-.288 3.644-1.435 4.132-2.239 1.119-1.721 1.894-2.324 2.755-3.615 1.377-1.033 3.272 1.377 3.358 1.377 4.82 4.563.946 10.158.688 10.33-2.41 2.21-2.927 2.353-4.39.947-1.464-1.722-1.894-2.496-3.099-3.099-2.324-1.119-7.145-.258-7.232-.258-.086 0-2.496.947-2.496.947-1.177.43-1.923 1.464-3.96 1.807-2.066.144-2.755-.057-3.788-1.721-1.377-2.152-.689-4.735 1.378-4.993z" fill-rule="evenodd" stroke="#000" stroke-width="1pt" fill="#ffe606" transform="matrix(-1.107 2.132 -2.132 -1.107 1044.3 -15.63)"/></g><path d="M469.84 290.15c-2.276-2.067 42.811 16.337 49.014 16.546 8.481-3.102 43.433-32.676 43.433-32.676.345 2.895 1.584 10.409 4.961 11.996-13.51 10.962-25.782 21.508-39.293 32.468.966 17.373-2.205 35.78 6.618 55.221 0 0-10.546.205-10.546 0-9.307-9.307-12.618-54.185-12.618-54.185l-44.465-19.648c2.138-1.38 3.861-5.652 2.896-9.722z" fill-rule="evenodd" fill-opacity=".987" stroke="#000" stroke-width="2.402pt" fill="#ffef00"/><path d="M512.74 336.15c.721-.523-8.133 4.113-10.407 5.277-40.961 21.85-62.04 53.634-63.354 54.835-.708 1.354-2.011 3.16-3.204 4.929-.96 1.483-2.338 3.018-3.246 4.518-1.255 1.738-3.893 5.17-5.334 6.694-.18.982.683-.336.401.317" stroke="#000" stroke-width="2.402pt" fill="none"/><path d="M540.73 310.18c-.795-.402 7.378 5.351 9.453 6.84 38.166 26.431 76.072 30.638 77.741 31.257 1.528.01 3.73.343 5.848.595 1.759.175 3.753.698 5.503.82 2.119.32 6.378 1.096 8.393 1.681.954-.29-.611-.453.098-.502" stroke="#000" stroke-width="2.402pt" fill="none"/></g></svg>