<?xml version="1.0" encoding="utf-8"?>
<!-- Generator: Adobe Illustrator 22.0.1, SVG Export Plug-In . SVG Version: 6.00 Build 0)  -->
<svg version="1.1" id="Layer_1" xmlns="http://www.w3.org/2000/svg" xmlns:xlink="http://www.w3.org/1999/xlink" x="0px" y="0px"
	 viewBox="0 0 512 512" style="enable-background:new 0 0 512 512;" xml:space="preserve">
<style type="text/css">
	.st0{fill:#0071BC;}
	.st1{fill:#FFFFFF;stroke:#000000;stroke-width:1.9349;}
	.st2{fill:none;stroke:#000000;stroke-width:1.9349;}
	.st3{fill:#F7DF73;stroke:#000000;stroke-width:2.4186;stroke-linejoin:round;}
	.st4{fill:#F7DF73;stroke:#000000;stroke-width:2.429;stroke-linejoin:round;}
	.st5{fill:#8C1800;}
	.st6{fill:#8C1800;stroke:#8C1800;stroke-width:2.4186;}
	.st7{fill:#8C1800;stroke:#8C1800;stroke-width:2.429;}
	.st8{fill:none;stroke:#8C1800;stroke-width:3.1442;stroke-linecap:round;}
	.st9{fill:none;stroke:#8C1800;stroke-width:2.9023;stroke-linecap:round;}
	.st10{fill:none;stroke:#8C1800;stroke-width:2.6605;stroke-linecap:round;}
	.st11{fill:none;stroke:#8C1800;stroke-width:2.4186;stroke-linecap:round;}
	.st12{fill:none;stroke:#8C1800;stroke-width:1.4512;stroke-linecap:round;}
	.st13{fill:none;stroke:#8C1800;stroke-width:3.1577;stroke-linecap:round;}
	.st14{fill:none;stroke:#8C1800;stroke-width:2.9148;stroke-linecap:round;}
	.st15{fill:none;stroke:#8C1800;stroke-width:2.6719;stroke-linecap:round;}
	.st16{fill:none;stroke:#8C1800;stroke-width:2.429;stroke-linecap:round;}
	.st17{fill:none;stroke:#8C1800;stroke-width:1.4574;stroke-linecap:round;}
	.st18{fill:#217900;stroke:#000000;stroke-width:1.9349;stroke-linejoin:round;}
	.st19{fill:none;stroke:#6B18B5;stroke-width:1.9349;stroke-linejoin:round;}
	.st20{fill:none;stroke:#6B18B5;stroke-linejoin:round;}
	.st21{fill:#6B18B5;}
	.st22{fill:#FFD200;stroke:#EF8A10;stroke-width:1.9349;}
	.st23{fill:#FFD200;stroke:#EF8A10;stroke-width:2.4186;}
	.st24{fill:#DE2010;stroke:#000000;stroke-width:2.3828;}
	.st25{fill:#DE2010;stroke:#000000;stroke-width:2.1334;}
	.st26{fill:#FFE300;}
	.st27{fill:#FFD200;stroke:#EF8A10;stroke-width:1.008;}
	.st28{fill:#217900;stroke:#000000;stroke-width:2.4186;stroke-linejoin:round;}
	.st29{fill:#8C8A8C;stroke:#000000;stroke-width:1.9349;}
	.st30{fill:none;stroke:#000000;stroke-width:1.9349;stroke-linecap:round;}
	.st31{fill:#FFFFFF;stroke:#000000;stroke-width:2.0159;stroke-linejoin:round;}
</style>
<rect class="st0" width="512" height="512"/>
<rect x="-0.4" y="124" class="st0" width="512.4" height="256.5"/>
<g>
	<g>
		<path class="st1" d="M286.1,325.7c0,0,9-9.5,17.6-7.7c2.6-10,12.4-10.8,12.4-10.8s-1-11.1,11.6-13.5c0.3-7.5,8-13.7,8-13.7
			s-1.6-11.7,6.4-14.4c-4.8-9.3,1.6-16,1.6-16.2c-0.1-0.2-8.2-14.6-1-18.8c-7.7-6.5-5.2-13.8-5.2-13.8s-8.4-2.2-5.4-12.2
			c-6.9-1.2-8.3-12.4-8.3-12.4s-10.6,2.2-11.9-7.1c-7,1.1-7.8-5.8-7.9-5.8s-13.9,3.7-16.7-6.7c-5.4,2.8-7.7-2.2-7.7-2.2
			s-7.7,3.8-12.3-3.5c-9.2,5.7-14.3-0.3-14.3-0.3s-12,8-16,1.8c-7.1,7.2-13.4,4.1-13.4,4.1s-5.4,9.5-14,7.1c-2,8.8-11.9,9-11.9,9
			s1,7.8-10.9,9.9c-1.6,9.2-7.8,10.7-7.8,10.7s0.6,8.9-5,11.8c2,5-3.2,11.2-3.2,11.2s5.5,6.9-2,14.7c7.3,1.9,2,14.4,2,14.4
			s10,4.5,3.7,12.8c7.2,2.3,4.9,8,5,11.4c4.6,2.1,8.6,1,6.7,10.3c14.1,1.6,7.4,9.3,7.4,9.3s6.6,0.3,4,5.4c12-0.3,13.7,9,13.7,9
			s11.2-2.9,12.6,1.4c1.5,4.3-4.8,33.5-4.8,33.5s-9.4,0-16.4-7.5c-16.4-0.4-12.8-11.2-13.1-11.2s-5.4,2-8.1-7
			c-11,2.2-10.6-7-10.7-7.1c-0.1-0.1-4.9-2.2-3.1-6.8c-11.3,1-10.5-10-10.5-10c-2.5-1-3.4-3.3-3-5.6c-1.5-0.5-11.5-0.7-6.3-13.9
			c-9.6-5.8-3.6-12.5-3.6-12.5s-13.2-6.8-3-14.7c-7.6-11.2,0.6-16.9,0.6-16.9s-10.5-10.7,0.2-18.3c-1.7-16.3,8-20.1,8-20.1
			s-5.1-13.2,8.7-18.8c0.9-13.4,10.5-13.7,10.5-13.7s0.3-10.6,15.5-9.6c2.9-9.5,13.3-7.6,13.3-7.6s3.2-11.5,17.3-6
			c7.2-14,17.8-6.8,17.8-6.8s6.7-4.4,10.1-3c4.3-7.4,13.4-0.3,19.3,1.1c2.1-0.8,9.8-6.6,15.6,0.7c7.8-5.1,14.4,4.1,14.4,4.1
			s10.7-5.4,15.7,7c22.7-2.1,19.5,12.8,19.5,12.8s17.9-4.1,14,13.7c16.3,1.1,14.6,11.8,14.6,11.8s10.3,7.8,5.8,14.8
			c9.2,0.4,5.8,9.3,5.8,9.3s7,2.7,1.2,13.6c13.4,10.7,2.6,21.4,2.5,21.3c-0.1-0.1,7.2,8.6,0.6,18.7c2,15.9-6.1,20-6.1,20
			s2.1,10.3-6.9,13.2c-0.2,12.1-11.6,13.6-11.6,13.6s3,5.3-8.3,10.8c-0.4,8.1-12.3,8.7-12.3,8.7s-1.1,14.9-16.2,10.9
			c-3.7,11.9-21.3,8.4-21.6,8.2C289.2,351.3,286.1,325.8,286.1,325.7L286.1,325.7z"/>
		<path class="st2" d="M307.1,338.3c0,0-1.3,2.6,4,4.8"/>
		<path class="st2" d="M317.8,332.2c0,0,6-1.4,10,0"/>
		<path class="st2" d="M335.6,317.2c0,0.1-0.8,2.7,3.9,6.4"/>
		<path class="st2" d="M339,310.5c0,0,3.5,2.6,9.3,2.5"/>
		<path class="st2" d="M303.7,318c0,0,0.2,6.8-3.3,10"/>
		<path class="st2" d="M315.4,307.6c0,0,5.7,1.4,10.5-0.9"/>
		<path class="st2" d="M352.3,297.6c0,0,1.2,1.7,7.6,1.4"/>
		<path class="st2" d="M327.5,293.6c0.2,0.1,7.5,2.5,12.1,0.3"/>
		<path class="st2" d="M342,265.7c0,0,0.3-0.4,2.6,7.5"/>
		<path class="st2" d="M347.7,243.4c0,0-0.3,4.2-3.7,6.1"/>
		<path class="st2" d="M369.3,226.2c0,0-4.9,4-4,5.6"/>
		<path class="st2" d="M344.8,223.3c0,0,2.6,4.3-1.6,7.3"/>
		<path class="st2" d="M332.4,204.8c0,0,4.4-0.2,6.4,3.6"/>
		<path class="st2" d="M341.6,176.9c0,0.1,0.9,0.9-0.8,2.7"/>
		<path class="st2" d="M310.1,177.3c0,0,2.4,3.7,2,8.2"/>
		<path class="st2" d="M323.8,164.8c1-0.1,4.5-1.6,4.5-1.6"/>
		<path class="st2" d="M308.6,150.1c-0.1,0-1.3,4.6,0.9,6.3"/>
		<path class="st2" d="M302.9,171.1c0,4.9,3.9,3.7,1.2,8.4"/>
		<path class="st2" d="M293.4,167c-0.1,0-6.2,4.7-6.2,5.5"/>
		<path class="st2" d="M277.6,164.5c0,0,2.6,2.6,2,6.1"/>
		<path class="st2" d="M256.4,161.4c-0.1,0.2-2.2,4.6-3.6,5.4"/>
		<path class="st2" d="M237.7,161.5c0.1,0,2.1,4.1-0.5,7.1"/>
		<path class="st2" d="M204.5,178.5c0.1,0.2,5.2,1,5.2,1"/>
		<path class="st2" d="M191.7,190.4c0.1-0.1,6.3-2,6.3-2"/>
		<path class="st2" d="M181.7,198.1c0.2,0,4.3,0.7,5.3,0.2"/>
		<path class="st2" d="M178.8,201.9c0,0,1.3,0.7,0.2,7.6"/>
		<path class="st2" d="M158.8,183.9l2.5,3.7"/>
		<path class="st2" d="M150.4,202.9c0-0.1,2.5,3.7,5.7,4.4"/>
		<path class="st2" d="M169.8,222.2c0.1,0,4-0.8,4.6-1.2"/>
		<path class="st2" d="M168,236.1c0.1,0-0.1-2.6,3.1-4.3"/>
		<path class="st2" d="M163.8,242.5c0,0.1,3,3.8,5,4.3"/>
		<path class="st2" d="M162.1,249.6c0.3-0.1,3.5-2.9,7.2-2.7"/>
		<path class="st2" d="M161.1,259.1c0,0,0.1,3.2,9.5,2.4"/>
		<path class="st2" d="M162,270.3c0-0.1,2.8-6.4,8.4-8.7"/>
		<path class="st2" d="M169.6,278.3c0,0,0.8-2.7,5.5-4.5"/>
		<path class="st2" d="M174.8,288.9c0,0,3.4-2.8,4.6-3.2"/>
		<path class="st2" d="M179,297.1c0,0,2.1,2.2,7.2-1.5"/>
		<path class="st2" d="M154.3,298.8c0.6-0.1,8.1-1.8,10.7,2.1"/>
		<path class="st2" d="M157.3,305c0,0,7.9-1,8.9-0.2"/>
		<path class="st2" d="M185.5,306.6c0,0-1,2.2,8.7-1.4"/>
		<path class="st2" d="M197.6,310.5c-1.7,3,0.4,5.3-1.8,6.7"/>
		<path class="st2" d="M167.9,314.6c0.3-0.2,3.6-1.3,3.1-6.1"/>
		<path class="st2" d="M170.9,321.7c0.4-0.1,5.9-2.5,7-1.2"/>
		<path class="st2" d="M181.6,328.6c0,0,0.7-4.8,2.3-5.3"/>
		<path class="st2" d="M189.8,335.9c0,0,4.5-0.1,6.5-1.5"/>
		<path class="st2" d="M198.5,319.6c0.1,0.1,4.2,2.3,12.9,0.1"/>
		<path class="st2" d="M201.8,339.2c0,0,1.2,6.3,1.1,7.7"/>
		<path class="st2" d="M324.1,192.3l3.4,0"/>
		<path class="st2" d="M270.1,162.4c0,0-1.3,3.9-3.1,4.9"/>
		<path class="st2" d="M233.4,140.2c0.1,0.1,0.4,3.2-1.5,5.9"/>
		<path class="st2" d="M215,147.2c0,0.1,0.8,3.5-4.6,4.6"/>
	</g>
	<g>
		<g>
			<path class="st3" d="M288.1,340.1c0,0,51.3-14.5,66.8-77.4c-9,64.6-65.1,85.1-65.1,85.1L288.1,340.1L288.1,340.1z"/>
			<path class="st4" d="M220.9,338.7c0,0-50.8-14.7-66.1-78.8c8.9,65.8,64.5,86.6,64.5,86.6L220.9,338.7L220.9,338.7z"/>
		</g>
		<g>
			<path class="st5" d="M293.4,344c1.6,0,5.5-4.3,7.8-4.8c2.3-0.5,2.5-2.8-0.1-2.8c-2.6-0.1-4.8,2.9-4.8,2.9s-2.3,1.9-4.6,2.2
				C289.3,341.7,290.8,344.6,293.4,344L293.4,344z"/>
			<path class="st5" d="M304.3,336c0,0-1.6-0.6,2.5-2.2c4.1-1.6,3.8-3.4,5.2-4.2c1.3-0.8,4.2-2.8,4.8-1.6c0.6,1.2-3,3.5-3.8,3.8
				c-0.8,0.3-4.9,4-6.1,4.3C305.6,336.5,304.8,336.3,304.3,336L304.3,336z"/>
			<path class="st5" d="M215.7,342.7c-1.6,0-5.5-4.4-7.7-4.9c-2.2-0.5-2.5-2.8,0.1-2.9c2.6-0.1,4.8,3,4.8,3s2.2,2,4.5,2.2
				C219.8,340.4,218.3,343.3,215.7,342.7L215.7,342.7z"/>
			<path class="st5" d="M204.9,334.6c0,0,1.6-0.6-2.5-2.2c-4-1.6-3.8-3.5-5.1-4.2c-1.3-0.8-4.1-2.8-4.7-1.6c-0.6,1.2,3,3.6,3.8,3.8
				c0.8,0.3,4.9,4.1,6,4.4C203.6,335.1,204.4,334.9,204.9,334.6L204.9,334.6z"/>
			<path class="st6" d="M322.9,322c0,0-5.3,3.1-4.6,3.8c0.8,0.8,5.5-2.9,5.6-3C324,322.7,325.9,320.4,322.9,322L322.9,322z"/>
			<path class="st7" d="M186.4,320.3c0,0,5.3,3.1,4.5,3.9c-0.7,0.8-5.5-3-5.5-3.1C185.4,321.1,183.5,318.7,186.4,320.3L186.4,320.3z
				"/>
		</g>
		<g>
			<path class="st8" d="M330.8,314.2c-3.5,3.9-3.5,3.8-3.5,3.8"/>
			<path class="st9" d="M336.1,307.7l-3.3,4.1"/>
			<path class="st10" d="M341.3,299.4l-3.8,6"/>
			<path class="st11" d="M345.8,290.9l-3.1,6.2"/>
			<path class="st11" d="M347.8,286.4l-1,2.2"/>
			<path class="st12" d="M350,280.5l-0.8,2.6"/>
			<path class="st13" d="M178.6,312.3c3.5,4,3.5,3.9,3.5,3.9"/>
			<path class="st14" d="M173.4,305.8l3.3,4.2"/>
			<path class="st15" d="M168.2,297.3l3.7,6.1"/>
			<path class="st16" d="M163.8,288.6l3.1,6.3"/>
			<path class="st16" d="M161.8,284.1l1,2.2"/>
			<path class="st17" d="M159.6,278l0.8,2.6"/>
		</g>
	</g>
	<g>
		<g>
			<path class="st18" d="M176.8,183c0,0,3.8,3.3,3.1,8.2c-0.7,4.9-3.5,11.8-3,16.9c0.3,2,0.2,5.7,0.2,5.7s-3.4-4.9-3.5-10
				c0-5.2,3.7-10.1,3.7-13.9C177.4,186,176.8,183,176.8,183L176.8,183z"/>
			<path class="st18" d="M175,184.5c0,0-4.9,4.7-5.6,9.3c-0.5,2.4-0.7,13.4-0.7,18.3c-0.1,1.5-0.7,7.4-0.9,9.6
				c-0.1,2.2,3.6-3.7,3.9-8.4c-0.1-4.9-0.1-15.3,0.4-16.8c0.4-2,0.3-4.2,1-6.2C174,187.4,175,184.6,175,184.5L175,184.5z"/>
		</g>
		<g>
			<path class="st19" d="M142.6,216c0,0,3.4,4.6,4,7.3c0.6,2.7,1.7,7.9,3.2,10.1c1.5,2.1,9.8,14.1,10.2,19.1
				c0.1,3.3-3.4,8.9-8.7,8.9c-3.3-0.1-11.7-2.2-12-9.5c-0.3-7.2,2.6-7.4,2.9-11.8C142.5,235.7,142.6,216.1,142.6,216L142.6,216z"/>
			<path class="st20" d="M200.2,152.8c0,0-3.5,0.2-6.1,1.7c-2.1,1.3-5.6,3.1-8,6.5c-6.2,4.9-15.6,7.1-18.6,11.2
				c-1.8,2.7-1.7,9.4,2.8,12.2c2.8,1.6,11.2,4.2,15.2-1.8c4-6,1.6-7.7,3.6-11.6C192.3,161.9,200.2,152.8,200.2,152.8L200.2,152.8z"
				/>
			<path class="st20" d="M284.4,144c0,0-2.6-2.3-5.5-3.2c-2.4-0.6-6.3-0.3-10.3-0.7c-7.8-1.1-15.9-6.8-20.9-6.1
				c-3.2,0.6-7.9,5.3-6.8,10.4c0.8,3.2,4.3,9.6,11.5,8.3c7.1-1.3,7.1-2.8,11.3-4.1C273.9,142.8,284.3,144,284.4,144L284.4,144z"/>
			<path class="st20" d="M367.9,225.1c0.6-1.3-0.5-3.8-1.3-6.8c-0.7-2.3-1.9-5.9-4.6-9.1c-3.2-7.2-2.7-17.1-5.9-21
				c-2.2-2.4-8.7-3.9-12.5-0.2c-2.3,2.4-6.7,9.8-1.9,15.2c4.8,5.4,7,3.3,10.3,6.2C360.1,214.8,364,224.2,367.9,225.1L367.9,225.1z"
				/>
			<path class="st20" d="M365.1,288.2c1.1-1.5,3-4.4,2.8-6.8c-0.2-1.9,0.9-7.7,1-10.2c0.7-7.9,5.6-14.3,4.3-21.1
				c-0.8-3.2-5.4-7.7-10.5-6.4c-3.1,1-10.1,4.8-8.5,11.8c1.6,7,3.9,6.9,5.4,11.1C363.9,275.1,361.1,285.3,365.1,288.2z"/>
		</g>
		<g>
			<path class="st21" d="M252.5,137.8c0-1.1-1.2-2-2.8-2s-2.8,0.9-2.8,2c0,1.1,1.2,2,2.8,2S252.5,138.9,252.5,137.8z"/>
			<path class="st21" d="M253.6,142.4c0-1.1-1.3-1.9-2.9-1.9s-2.9,0.9-2.9,1.9c0,1.1,1.3,1.9,2.9,1.9S253.6,143.5,253.6,142.4z"/>
			<path class="st21" d="M257.2,136.9c0,0-3.3,2.5-1.9,3.4c1.4,1,5.1-2.1,5.1-2.1S257.2,136.9,257.2,136.9z"/>
			<path class="st21" d="M353.7,193.3c0-0.7-0.3-1.3-0.9-1.7c-0.5-0.4-1.2-0.4-1.7,0c-0.5,0.4-0.9,1-0.9,1.7c0,0.7,0.3,1.3,0.9,1.7
				c0.5,0.4,1.2,0.4,1.7,0C353.4,194.6,353.7,194,353.7,193.3z"/>
			<path class="st21" d="M352.5,188.6c0-1.2-0.8-2.1-1.8-2.1c-1,0-1.8,0.9-1.8,2.1c0,1.2,0.8,2.1,1.8,2.1
				C351.6,190.7,352.5,189.7,352.5,188.6z"/>
			<path class="st21" d="M353.3,198.1c0-0.6-0.3-1.1-0.7-1.1c-0.4,0-0.7,0.5-0.7,1.1s0.3,1.1,0.7,1.1
				C353,199.2,353.3,198.7,353.3,198.1z"/>
			<path class="st21" d="M356.2,189.6c0-0.7-0.3-1.3-0.7-1.3c-0.4,0-0.7,0.6-0.7,1.3c0,0.7,0.3,1.3,0.7,1.3
				C355.9,190.8,356.2,190.3,356.2,189.6z"/>
			<path class="st21" d="M348.3,190.5c0-0.6-0.3-1-0.7-1c-0.4,0-0.7,0.5-0.7,1s0.3,1,0.7,1C348,191.5,348.3,191,348.3,190.5z"/>
			<path class="st21" d="M349.6,197.2c0-0.9-0.7-1.6-1.5-1.6c-0.8,0-1.5,0.7-1.5,1.6c0,0.9,0.7,1.6,1.5,1.6
				C348.9,198.8,349.6,198.1,349.6,197.2z"/>
			<path class="st21" d="M345.6,194.2c0-0.8-0.6-1.4-1.3-1.4c-0.7,0-1.3,0.6-1.3,1.4c0,0.8,0.6,1.4,1.3,1.4
				C345.1,195.6,345.6,195,345.6,194.2z"/>
			<path class="st21" d="M345,190.2c0-0.4-0.2-0.8-0.5-1c-0.3-0.2-0.8-0.2-1.1,0c-0.3,0.2-0.5,0.6-0.5,1c0,0.4,0.2,0.8,0.5,1
				c0.3,0.2,0.8,0.2,1.1,0C344.8,191,345,190.6,345,190.2z"/>
			<path class="st21" d="M362.9,210.5c-1.6-2.1-4.2-3-5.8-2c-1.6,1-1.5,3.6,0.1,5.7c1.6,2.1,4.2,3,5.8,2
				C364.5,215.2,364.5,212.7,362.9,210.5z"/>
			<path class="st21" d="M367.5,249.9c0.3-2.6-1-4.9-2.9-5.2c-1.9-0.2-3.7,1.7-4,4.3c-0.3,2.6,1,4.9,2.9,5.2
				C365.4,254.4,367.1,252.5,367.5,249.9z"/>
			<path class="st21" d="M368.4,272.8c0.5-2.6-0.5-5-2.4-5.4c-1.9-0.4-3.8,1.4-4.3,4c-0.5,2.6,0.5,5,2.4,5.4
				C365.9,277.2,367.9,275.4,368.4,272.8L368.4,272.8z"/>
			<path class="st21" d="M372.8,251.4c0-1-0.7-1.9-1.6-1.9c-0.9,0-1.6,0.8-1.6,1.9c0,1,0.7,1.9,1.6,1.9
				C372.1,253.2,372.8,252.4,372.8,251.4z"/>
			<path class="st21" d="M369,255.7l-3.2,3.6c0,0-3,0.1-2.9,1.1c0.2,1,4.1,3.9,4.1,5.1c0,1.2,2.7-0.3,2.7-0.3s2.2-6.5,2.2-6.6
				c0,0-0.1-4.5-1.3-4.5C369.4,254.2,369.1,255.6,369,255.7L369,255.7z"/>
			<path class="st21" d="M157.9,254.2c0-0.8-0.7-1.5-1.5-1.5c-0.8,0-1.5,0.7-1.5,1.5c0,0.8,0.7,1.5,1.5,1.5
				C157.2,255.8,157.9,255.1,157.9,254.2L157.9,254.2z"/>
			<path class="st21" d="M159.3,249.6c0-0.9-0.7-1.6-1.5-1.6c-0.8,0-1.5,0.7-1.5,1.6s0.7,1.6,1.5,1.6
				C158.6,251.2,159.3,250.4,159.3,249.6z"/>
			<path class="st21" d="M146.8,227.4c-0.6-1.3-1.8-2-2.7-1.6c-0.9,0.4-1.2,1.8-0.6,3.1c0.6,1.3,1.8,2,2.7,1.6
				C147.1,230,147.4,228.6,146.8,227.4z"/>
			<path class="st21" d="M150.6,241.2c-0.8-1.7-2.4-2.6-3.7-2.1c-1.2,0.5-1.6,2.3-0.8,4c0.8,1.7,2.4,2.6,3.7,2.1
				S151.4,242.9,150.6,241.2z"/>
			<path class="st21" d="M154.6,251.3c0.3-2.1-0.6-4-1.9-4.3c-1.3-0.3-2.6,1.2-2.8,3.3s0.6,4,1.9,4.3S154.4,253.4,154.6,251.3z"/>
			<path class="st21" d="M148.1,252.8c0.8-1.9,0.5-4-0.7-4.6s-2.8,0.4-3.6,2.4c-0.8,1.9-0.5,4,0.7,4.6
				C145.7,255.8,147.3,254.7,148.1,252.8z"/>
			<path class="st21" d="M145.2,248.5c0-1-0.8-1.8-1.7-1.8c-0.9,0-1.7,0.8-1.7,1.8s0.8,1.8,1.7,1.8
				C144.4,250.2,145.2,249.4,145.2,248.5z"/>
			<path class="st21" d="M143.8,244c0-0.9-0.7-1.6-1.5-1.6s-1.5,0.7-1.5,1.6s0.7,1.6,1.5,1.6C143.1,245.7,143.8,244.9,143.8,244z"/>
			<path class="st21" d="M145.2,235.6c0-1.5-0.7-2.7-1.5-2.7c-0.8,0-1.5,1.2-1.5,2.7s0.7,2.7,1.5,2.7
				C144.6,238.3,145.2,237.1,145.2,235.6z"/>
			<path class="st21" d="M149.8,234.9c0.2-1.5-0.3-2.8-1.1-2.9c-0.8-0.1-1.6,1-1.8,2.5c-0.2,1.5,0.3,2.8,1.1,2.9
				C148.8,237.5,149.6,236.4,149.8,234.9z"/>
			<path class="st21" d="M182.4,169.9c0.6-2.1,0-4.2-1.4-4.7c-1.4-0.5-3,0.8-3.6,2.9c-0.6,2.1,0,4.2,1.4,4.7
				C180.2,173.3,181.8,172,182.4,169.9z"/>
			<path class="st21" d="M176.2,179.3c1.8-1.5,2.6-3.7,1.7-4.8c-0.9-1.1-3-0.7-4.8,0.8s-2.6,3.7-1.7,4.8
				C172.2,181.2,174.4,180.9,176.2,179.3z"/>
			<path class="st21" d="M172.6,174.1c1.8-1.3,2.6-3.2,1.7-4.1c-0.8-0.9-3-0.6-4.8,0.7c-1.8,1.3-2.6,3.2-1.7,4.1
				C168.6,175.7,170.8,175.4,172.6,174.1z"/>
			<path class="st21" d="M186.5,165c1.2-0.9,1.7-2.2,1.2-2.9c-0.6-0.7-2-0.4-3.2,0.5c-1.2,0.9-1.7,2.2-1.2,2.9
				C183.8,166.1,185.3,165.9,186.5,165z"/>
			<path class="st21" d="M179.2,173.8c0.8-1.3,0.9-2.7,0.1-3.1c-0.8-0.4-2,0.3-2.9,1.6c-0.8,1.3-0.9,2.7-0.1,3.1
				C177.1,175.8,178.4,175.1,179.2,173.8z"/>
			<path class="st21" d="M189.7,168.3c1.3-1.1,1.8-2.5,1.1-3.2c-0.7-0.7-2.3-0.4-3.6,0.7c-1.3,1.1-1.8,2.5-1.1,3.2
				C186.8,169.8,188.4,169.4,189.7,168.3z"/>
			<path class="st21" d="M170.8,181.1c1.2-0.1,2.1-0.7,2.1-1.4c-0.1-0.7-1.1-1.2-2.4-1.1c-1.2,0.1-2.1,0.7-2.1,1.4
				C168.5,180.7,169.6,181.2,170.8,181.1L170.8,181.1z"/>
			<path class="st21" d="M193.7,161.6c0.8-1.3,0.9-2.7,0.1-3.1c-0.8-0.4-2,0.3-2.9,1.6c-0.8,1.3-0.9,2.7-0.1,3.1
				C191.6,163.5,192.9,162.8,193.7,161.6z"/>
		</g>
		<g>
			<path class="st22" d="M283.8,169.1c0,0,6.4-3,8.2-8.5c1.8-5.5-5.6-5.6-6.5-3.8c-1,1.8,0.8,6.1,0.4,7.3
				C285.4,165.2,282.8,168,283.8,169.1L283.8,169.1z"/>
			<path class="st23" d="M227,171.1c0,0,4.2-5.7,3.1-11.4c-1.1-5.7-7.6-2.2-7.6-0.2s3.7,4.9,3.9,6.2
				C226.5,166.9,225.6,170.6,227,171.1L227,171.1z"/>
			<path class="st23" d="M215.7,174.5c0,0,4.2-5.7,3.1-11.4c-1.1-5.7-7.6-2.2-7.6-0.2s3.7,4.9,3.9,6.2
				C215.2,170.3,214.3,174,215.7,174.5L215.7,174.5z"/>
			<path class="st23" d="M203.2,178.3c0,0,4.2-5.7,3.1-11.4c-1.1-5.7-7.6-2.2-7.6-0.2s3.7,4.9,3.9,6.2
				C202.7,174.2,201.8,177.9,203.2,178.3L203.2,178.3z"/>
			<path class="st23" d="M194.4,187.1c0,0,4.2-5.7,3.1-11.4c-1.1-5.7-7.6-2.2-7.6-0.2s3.7,4.9,3.9,6.2
				C194,183,193,186.7,194.4,187.1L194.4,187.1z"/>
			<path class="st23" d="M185.2,195.6c0,0,4.2-5.7,3.1-11.4s-7.6-2.2-7.6-0.2s3.7,4.9,3.9,6.2C184.7,191.5,183.8,195.2,185.2,195.6
				L185.2,195.6z"/>
			<path class="st22" d="M206.4,146.2c0,0-5.5,4.4-6,10.2c-0.5,5.8,6.7,4.1,7.2,2.2c0.5-1.9-2.2-5.7-2.1-7
				C205.8,150.3,207.6,147,206.4,146.2L206.4,146.2z"/>
			<path class="st22" d="M224.9,140.5c0,0-5.5,4.4-6,10.2c-0.5,5.8,6.7,4.1,7.2,2.2c0.5-1.9-2.2-5.7-2.1-7
				C224.3,144.6,226.2,141.3,224.9,140.5L224.9,140.5z"/>
			<path class="st22" d="M156,190.5c0,0,1.2,7,6,10.2c4.8,3.2,6.8-3.9,5.4-5.3c-1.4-1.4-6.1-0.8-7.1-1.6
				C159.3,193,157.3,189.8,156,190.5L156,190.5z"/>
			<path class="st22" d="M146.7,214.1c0,0,0.1,7.1,4.3,11c4.3,3.9,7.4-2.8,6.2-4.4c-1.2-1.6-5.9-1.8-6.8-2.7
				C149.6,217.2,148.1,213.6,146.7,214.1L146.7,214.1z"/>
			<path class="st22" d="M168.1,240.5c0,0-2.5-6.6-7.9-8.8c-5.4-2.2-5.9,5.2-4.2,6.3c1.7,1.1,6.2-0.4,7.3,0.1
				C164.3,238.6,166.9,241.4,168.1,240.5L168.1,240.5z"/>
			<path class="st22" d="M163.6,229.1c0,0,4.3-5.6,3.3-11.3c-1-5.7-7.5-2.3-7.6-0.3c0,2,3.6,5,3.7,6.2
				C163.3,224.9,162.3,228.6,163.6,229.1L163.6,229.1z"/>
			<path class="st22" d="M296.9,174.8c0,0,6.4-3,8.2-8.5c1.8-5.5-5.6-5.6-6.5-3.8c-1,1.8,0.8,6.1,0.4,7.3
				C298.5,170.9,295.9,173.7,296.9,174.8L296.9,174.8z"/>
			<path class="st22" d="M316.3,184.5c0,0,3.8-6,2.3-11.6c-1.5-5.6-7.7-1.6-7.5,0.4c0.1,2,4,4.7,4.3,5.9
				C315.6,180.3,314.9,184.1,316.3,184.5L316.3,184.5z"/>
			<path class="st22" d="M369.2,239.4c0,0-2.5-6.6-7.9-8.8c-5.4-2.2-5.9,5.2-4.2,6.3c1.7,1.1,6.2-0.4,7.3,0.1
				C365.5,237.5,368.1,240.3,369.2,239.4L369.2,239.4z"/>
			<path class="st22" d="M343.3,243.5c0,0,0.1-7.1,4.5-10.9c4.3-3.9,7.3,2.9,6.1,4.5c-1.2,1.6-5.9,1.7-6.8,2.6
				C346.2,240.5,344.7,244,343.3,243.5L343.3,243.5z"/>
			<path class="st22" d="M339.2,168.6c0,0-6.6-2.5-11.8,0c-5.2,2.5-0.1,7.9,1.8,7.3c1.9-0.5,3.8-4.9,4.9-5.3
				C335.3,170.2,339.1,170.1,339.2,168.6L339.2,168.6z"/>
			<path class="st22" d="M324.1,156c0,0-6.6-2.5-11.8,0c-5.2,2.5-0.1,7.9,1.8,7.3c1.9-0.5,3.8-4.9,4.9-5.3
				C320.2,157.5,324,157.4,324.1,156L324.1,156z"/>
			<path class="st22" d="M301.5,143.9c0,0-5.6,4.3-6.2,10.1c-0.6,5.8,6.6,4.2,7.2,2.3c0.6-1.9-2.2-5.8-2-7
				C300.8,148.1,302.7,144.8,301.5,143.9L301.5,143.9z"/>
			<path class="st22" d="M286.9,140.4c0,0-2.6,6.6,0,11.8c2.5,5.2,7.9,0.1,7.3-1.8c-0.5-1.9-4.8-3.8-5.3-5
				C288.4,144.3,288.3,140.5,286.9,140.4L286.9,140.4z"/>
			<path class="st22" d="M245.2,165.8c0,0,4.6-5.4,3.9-11.2c-0.7-5.8-7.4-2.7-7.5-0.7c-0.1,2,3.3,5.2,3.4,6.4
				C245.1,161.6,243.9,165.2,245.2,165.8L245.2,165.8z"/>
		</g>
		<g>
			<path class="st24" d="M359.5,242.9c-0.3-2.1-1.3-3.9-2.6-4.8c-1.4-0.9-2.9-0.7-4,0.5c-1.1,1.2-1.6,3.2-1.4,5.3
				c0.3,2.1,1.3,3.9,2.6,4.8c1.4,0.9,2.9,0.7,4-0.5C359.2,247,359.7,245,359.5,242.9L359.5,242.9z"/>
			<path class="st24" d="M358.6,232.5c-0.3-2.1-1.3-3.9-2.6-4.8c-1.4-0.9-2.9-0.7-4,0.5c-1.1,1.2-1.6,3.2-1.4,5.3
				c0.3,2.1,1.3,3.9,2.6,4.8c1.4,0.9,2.9,0.7,4-0.5C358.4,236.5,358.9,234.5,358.6,232.5L358.6,232.5z"/>
			<path class="st24" d="M356.5,221.3c-0.4-2-1.6-3.8-3-4.5c-1.4-0.8-2.9-0.4-3.9,0.8c-1,1.3-1.3,3.3-0.9,5.4c0.4,2,1.6,3.8,3,4.5
				c1.4,0.8,2.9,0.4,3.9-0.8C356.6,225.4,356.9,223.4,356.5,221.3L356.5,221.3z"/>
			<path class="st24" d="M352.6,209.7c-0.9-1.9-2.5-3.2-4.1-3.6c-1.6-0.4-2.9,0.3-3.6,1.8c-0.6,1.5-0.4,3.5,0.5,5.4
				c0.9,1.9,2.5,3.2,4.1,3.6c1.6,0.4,2.9-0.3,3.6-1.8C353.8,213.6,353.6,211.5,352.6,209.7z"/>
			<path class="st24" d="M348.5,200.4c-0.9-1.9-2.5-3.2-4.1-3.6c-1.6-0.4-2.9,0.3-3.6,1.8c-0.6,1.5-0.4,3.5,0.5,5.4
				c0.9,1.9,2.5,3.2,4.1,3.6c1.6,0.4,2.9-0.3,3.6-1.8C349.6,204.3,349.5,202.2,348.5,200.4z"/>
			<path class="st24" d="M342.6,191c-1.1-1.8-2.8-3-4.4-3.2c-1.6-0.2-2.9,0.6-3.4,2.1s-0.1,3.6,1,5.3c1.1,1.8,2.8,3,4.4,3.2
				c1.6,0.2,2.9-0.6,3.4-2.1C344.1,194.8,343.7,192.7,342.6,191z"/>
			<path class="st24" d="M336.1,181.9c-1.3-1.7-3-2.7-4.7-2.8c-1.6-0.1-2.8,0.8-3.2,2.4c-0.4,1.6,0.2,3.6,1.5,5.2
				c1.3,1.7,3,2.7,4.7,2.8c1.6,0.1,2.8-0.8,3.2-2.4C337.9,185.6,337.4,183.6,336.1,181.9z"/>
			<path class="st24" d="M328.3,173.5c-1.5-1.5-3.4-2.3-5-2.1c-1.6,0.2-2.7,1.3-2.8,2.9c-0.1,1.6,0.7,3.5,2.2,5
				c1.5,1.5,3.4,2.3,5,2.1c1.6-0.2,2.7-1.3,2.8-2.9C330.7,176.8,329.8,174.9,328.3,173.5L328.3,173.5z"/>
			<path class="st24" d="M319.6,165.7c-1.6-1.3-3.6-1.9-5.2-1.6c-1.6,0.3-2.6,1.5-2.5,3.1c0,1.6,1,3.4,2.7,4.7
				c1.6,1.3,3.6,1.9,5.2,1.6c1.6-0.3,2.6-1.5,2.5-3.1S321.2,167,319.6,165.7z"/>
			<path class="st24" d="M310.3,159.5c-1.8-1-3.9-1.3-5.4-0.7c-1.5,0.6-2.3,1.9-2,3.5s1.6,3.2,3.4,4.2c1.8,1,3.9,1.3,5.4,0.7
				c1.5-0.6,2.3-1.9,2-3.5S312.1,160.5,310.3,159.5z"/>
			<path class="st24" d="M299.9,154c-1.9-0.9-4-1-5.4-0.3c-1.5,0.7-2.1,2.1-1.6,3.7c0.4,1.6,1.9,3,3.8,3.9c1.9,0.9,4,1,5.4,0.3
				c1.5-0.7,2.1-2.1,1.6-3.7C303.2,156.4,301.8,154.9,299.9,154L299.9,154z"/>
			<path class="st24" d="M289.7,149.9c-1.9-0.7-4-0.7-5.4,0.1c-1.4,0.8-1.9,2.2-1.4,3.8c0.5,1.5,2.1,2.9,4,3.6
				c1.9,0.7,4,0.7,5.4-0.1c1.4-0.8,1.9-2.2,1.4-3.8C293.2,152,291.7,150.6,289.7,149.9z"/>
			<path class="st24" d="M279.4,146.7c-2-0.6-4.1-0.4-5.4,0.5c-1.3,0.9-1.8,2.4-1.1,3.8c0.7,1.5,2.3,2.7,4.3,3.3
				c2,0.6,4.1,0.4,5.4-0.5c1.3-0.9,1.8-2.4,1.1-3.8C283,148.5,281.4,147.2,279.4,146.7z"/>
			<path class="st24" d="M268,144.7c-2.1-0.3-4.1,0.3-5.3,1.4c-1.2,1.1-1.4,2.6-0.5,4c0.9,1.4,2.7,2.4,4.8,2.6
				c2.1,0.3,4.1-0.3,5.3-1.4c1.2-1.1,1.4-2.6,0.5-4C271.8,146,270,145,268,144.7z"/>
			<path class="st24" d="M256.7,144.1c-2.1-0.1-4,0.6-5.1,1.8c-1.1,1.2-1.2,2.7-0.2,4c1,1.3,2.9,2.1,5,2.2c2.1,0.1,4-0.6,5.1-1.8
				c1.1-1.2,1.2-2.7,0.2-4C260.7,145,258.8,144.2,256.7,144.1L256.7,144.1z"/>
			<path class="st24" d="M246.4,144.5c-2.1-0.1-4,0.6-5.1,1.8c-1.1,1.2-1.2,2.7-0.2,4c1,1.3,2.9,2.1,5,2.2c2.1,0.1,4-0.6,5.1-1.8
				c1.1-1.2,1.2-2.7,0.2-4C250.4,145.4,248.5,144.5,246.4,144.5L246.4,144.5z"/>
			<path class="st24" d="M234.3,145.9c-2,0.5-3.7,1.6-4.5,3.1c-0.7,1.4-0.4,2.9,0.9,3.9c1.3,1,3.3,1.3,5.4,0.8
				c2-0.5,3.7-1.6,4.5-3.1c0.7-1.4,0.4-2.9-0.9-3.9C238.4,145.7,236.4,145.4,234.3,145.9z"/>
			<path class="st24" d="M223.3,148.6c-2,0.6-3.6,1.9-4.2,3.4c-0.6,1.5-0.2,3,1.2,3.8c1.4,0.9,3.4,1,5.4,0.4c2-0.6,3.6-1.9,4.2-3.4
				s0.2-3-1.2-3.8C227.4,148.2,225.3,148,223.3,148.6z"/>
			<path class="st24" d="M213.3,152.9c-1.9,0.9-3.3,2.3-3.8,3.9c-0.4,1.6,0.2,2.9,1.7,3.6c1.5,0.7,3.5,0.6,5.4-0.3
				c1.9-0.9,3.3-2.3,3.8-3.9c0.4-1.6-0.2-2.9-1.7-3.6C217.3,152,215.2,152.1,213.3,152.9z"/>
			<path class="st24" d="M203.3,158.1c-1.8,1-3.1,2.6-3.4,4.2c-0.3,1.6,0.4,2.9,2,3.5c1.5,0.6,3.6,0.3,5.4-0.7
				c1.8-1,3.1-2.6,3.4-4.2c0.3-1.6-0.4-2.9-2-3.5S205.1,157,203.3,158.1z"/>
			<path class="st24" d="M193.8,164.5c-1.7,1.2-2.8,2.9-2.9,4.6c-0.1,1.6,0.8,2.9,2.3,3.3c1.6,0.4,3.6-0.1,5.3-1.3
				c1.7-1.2,2.8-2.9,2.9-4.6s-0.8-2.9-2.3-3.3C197.5,162.8,195.5,163.3,193.8,164.5z"/>
			<path class="st24" d="M185.1,171.1c-1.6,1.3-2.6,3.2-2.5,4.8c0,1.6,1,2.8,2.6,3c1.6,0.3,3.6-0.4,5.1-1.8c1.6-1.3,2.6-3.2,2.5-4.8
				c0-1.6-1-2.8-2.6-3C188.6,169.1,186.7,169.8,185.1,171.1z"/>
			<path class="st24" d="M177.4,179.2c-1.5,1.5-2.3,3.4-2.2,5c0.1,1.6,1.2,2.7,2.8,2.9c1.6,0.2,3.5-0.7,5-2.1c1.5-1.5,2.3-3.4,2.2-5
				c-0.1-1.6-1.2-2.7-2.8-2.9C180.7,176.9,178.8,177.7,177.4,179.2z"/>
			<path class="st24" d="M170.7,188.2c-1.4,1.6-2,3.5-1.8,5.1c0.3,1.6,1.4,2.6,3,2.6c1.6,0,3.4-0.9,4.8-2.5c1.4-1.6,2-3.5,1.8-5.1
				c-0.3-1.6-1.4-2.6-3-2.6C173.9,185.6,172.1,186.6,170.7,188.2z"/>
			<path class="st24" d="M164.6,197.4c-1.2,1.7-1.6,3.7-1.2,5.3c0.4,1.6,1.7,2.4,3.3,2.3c1.6-0.2,3.3-1.3,4.5-3
				c1.2-1.7,1.6-3.7,1.2-5.3c-0.4-1.6-1.7-2.4-3.3-2.3S165.8,195.6,164.6,197.4z"/>
			<path class="st24" d="M159.5,207.8c-0.9,1.9-1,4-0.3,5.4c0.7,1.5,2.1,2.1,3.6,1.7c1.6-0.4,3.1-1.9,3.9-3.8c0.9-1.9,1-4,0.3-5.4
				c-0.7-1.5-2.1-2.1-3.6-1.7C161.9,204.5,160.4,205.9,159.5,207.8z"/>
			<path class="st24" d="M155.5,218.7c-0.7,2-0.6,4,0.2,5.4c0.8,1.4,2.3,1.9,3.8,1.3c1.5-0.6,2.9-2.1,3.6-4.1c0.7-2,0.6-4-0.2-5.4
				c-0.8-1.4-2.3-1.9-3.8-1.3C157.6,215.1,156.2,216.7,155.5,218.7z"/>
			<path class="st25" d="M152.1,239.3c-0.2,1.7,0.4,3.3,1.5,4.2s2.7,1,4,0.3c1.3-0.7,2.3-2.2,2.5-3.9c0.2-1.7-0.4-3.3-1.5-4.2
				c-1.1-0.9-2.7-1-4-0.3C153.2,236.1,152.2,237.6,152.1,239.3L152.1,239.3z"/>
			<path class="st24" d="M153,229.7c-0.5,2-0.1,4.1,0.8,5.4c1,1.3,2.5,1.6,3.9,0.9c1.4-0.7,2.6-2.4,3.1-4.5c0.5-2,0.1-4.1-0.8-5.4
				c-1-1.3-2.5-1.6-3.9-0.9C154.6,225.9,153.4,227.6,153,229.7z"/>
		</g>
		<g>
			<path class="st26" d="M351.2,224.7c1.3-1.4,2.4-1.7,3.9-1.2c-0.5-3.6-1.7-4.8-3-4.4C350.7,219.5,350.1,221.4,351.2,224.7
				L351.2,224.7z"/>
			<path class="st26" d="M353.1,235.5c1.4-1.3,2.6-1.6,4-0.9c-0.3-3.6-1.3-4.9-2.7-4.6C353,230.3,352.2,232.1,353.1,235.5
				L353.1,235.5z"/>
			<path class="st26" d="M348.5,214.9c0.9-1.6,1.9-2.3,3.5-2.2c-1.4-3.3-2.8-4.2-4-3.4C346.7,210,346.6,211.9,348.5,214.9
				L348.5,214.9z"/>
			<path class="st26" d="M343.7,205c0.9-1.6,1.9-2.3,3.5-2.2c-1.4-3.3-2.8-4.2-4-3.4C341.9,200.1,341.8,202.1,343.7,205L343.7,205z"
				/>
			<path class="st26" d="M332.2,187c0.6-1.8,1.5-2.6,3.1-2.7c-1.9-3.1-3.5-3.7-4.5-2.8C329.6,182.5,329.8,184.4,332.2,187L332.2,187
				z"/>
			<path class="st26" d="M324.6,179.2c0.5-1.8,1.4-2.6,3-2.9c-2-3-3.6-3.6-4.6-2.6C321.9,174.7,322.2,176.7,324.6,179.2L324.6,179.2
				z"/>
			<path class="st26" d="M308.8,165.8c0-1.9,0.5-3,2-3.6c-2.9-2.2-4.5-2.3-5.2-1C304.8,162.4,305.7,164.2,308.8,165.8L308.8,165.8z"
				/>
			<path class="st26" d="M317,172c0.3-1.8,1.1-2.8,2.6-3.2c-2.4-2.7-4.1-3-5-1.9C313.7,168,314.2,169.8,317,172L317,172z"/>
			<path class="st26" d="M299.4,160.6c-0.2-1.8,0.2-3,1.6-3.8c-3.1-1.9-4.7-1.8-5.3-0.5C295.1,157.6,296.1,159.3,299.4,160.6
				L299.4,160.6z"/>
			<path class="st26" d="M289.8,156.4c-0.5-1.8-0.2-3,1-4c-3.3-1.4-4.9-1.1-5.3,0.3C285.1,154.1,286.3,155.6,289.8,156.4
				L289.8,156.4z"/>
			<path class="st26" d="M279.4,153.2c-0.6-1.7-0.4-3,0.7-4.1c-3.4-1.2-5-0.7-5.3,0.7C274.6,151.3,275.9,152.7,279.4,153.2
				L279.4,153.2z"/>
			<path class="st26" d="M269.2,151.2c-0.8-1.7-0.7-2.9,0.4-4.1c-3.5-0.9-5.1-0.3-5.2,1.1C264.3,149.7,265.7,151,269.2,151.2
				L269.2,151.2z"/>
			<path class="st26" d="M258.5,150.4c-0.9-1.6-1-2.8-0.1-4.1c-3.6-0.5-5.1,0.2-5.1,1.6C253.4,149.4,254.9,150.5,258.5,150.4
				L258.5,150.4z"/>
			<path class="st26" d="M237.4,152c-1.3-1.3-1.6-2.5-1-4c-3.6,0.3-4.9,1.4-4.5,2.8C232.2,152.2,234,152.9,237.4,152L237.4,152z"/>
			<path class="st26" d="M247.7,150.6c-1.1-1.5-1.3-2.7-0.5-4.1c-3.6-0.1-5,0.7-4.9,2.2C242.6,150.1,244.3,151.1,247.7,150.6
				L247.7,150.6z"/>
			<path class="st26" d="M227.2,154.2c-1.5-1.1-2-2.3-1.6-3.8c-3.5,0.9-4.6,2.1-4.1,3.4C222.1,155.2,224,155.6,227.2,154.2
				L227.2,154.2z"/>
			<path class="st26" d="M207.7,163.2c-1.7-0.8-2.4-1.9-2.3-3.4c-3.3,1.5-4.1,2.9-3.3,4.1C202.8,165.1,204.8,165.2,207.7,163.2
				L207.7,163.2z"/>
			<path class="st26" d="M217.1,158.4c-1.5-1-2.1-2.1-1.9-3.7c-3.4,1.1-4.5,2.4-3.8,3.7C212,159.7,214,160,217.1,158.4L217.1,158.4z
				"/>
			<path class="st26" d="M190.2,175.3c-1.8-0.5-2.7-1.3-3-2.9c-2.9,2.2-3.4,3.7-2.4,4.7C185.8,178.2,187.8,177.9,190.2,175.3
				L190.2,175.3z"/>
			<path class="st26" d="M198.5,168.5c-1.8-0.6-2.6-1.5-2.7-3.1c-3.1,1.9-3.7,3.5-2.8,4.5C194,171.1,195.9,170.9,198.5,168.5
				L198.5,168.5z"/>
			<path class="st26" d="M182.7,182.7c-1.8-0.3-2.8-1.1-3.2-2.6c-2.7,2.4-3.1,4-2,4.9C178.7,185.9,180.6,185.4,182.7,182.7
				L182.7,182.7z"/>
			<path class="st26" d="M176.1,191.3c-1.9-0.1-2.9-0.8-3.4-2.3c-2.5,2.7-2.7,4.3-1.5,5.1C172.4,194.9,174.2,194.2,176.1,191.3
				L176.1,191.3z"/>
			<path class="st26" d="M170.5,200.1c-1.9,0.1-3-0.4-3.7-1.7c-2,3-2,4.7-0.7,5.3C167.4,204.3,169.1,203.3,170.5,200.1L170.5,200.1z
				"/>
			<path class="st26" d="M165.7,209.5c-1.8,0.4-3,0-3.9-1.2c-1.6,3.2-1.4,4.9,0,5.3C163.1,214,164.6,212.9,165.7,209.5L165.7,209.5z
				"/>
			<path class="st26" d="M161.7,219.2c-1.7,0.7-3,0.5-4.1-0.6c-1.1,3.5-0.6,5,0.8,5.3C159.9,224.1,161.3,222.7,161.7,219.2
				L161.7,219.2z"/>
			<path class="st26" d="M159.1,230c-1.7,0.8-2.9,0.7-4.1-0.3c-0.9,3.5-0.3,5.1,1.2,5.2C157.6,234.9,158.9,233.5,159.1,230
				L159.1,230z"/>
			<path class="st26" d="M158.1,238.9c-1.6,0.8-2.8,0.9-4.1,0.3c-0.5,2.9,0.3,4,1.7,3.9C157.1,243,158.2,241.7,158.1,238.9
				L158.1,238.9z"/>
			<path class="st26" d="M339.4,196.3c0.6-1.7,1.6-2.6,3.1-2.7c-1.9-3.1-3.4-3.8-4.5-2.8C336.9,191.7,337.1,193.6,339.4,196.3
				L339.4,196.3z"/>
			<path class="st26" d="M354.3,246.5c1.4-1.3,2.6-1.6,4-0.9c-0.3-3.6-1.3-4.9-2.7-4.6C354.2,241.3,353.4,243.1,354.3,246.5
				L354.3,246.5z"/>
		</g>
		<path class="st27" d="M331.6,200.3c0,0,3.8-6,2.3-11.6c-1.5-5.6-7.7-1.6-7.5,0.4c0.1,2,4,4.7,4.3,5.9
			C330.8,196.2,330.1,200,331.6,200.3L331.6,200.3z"/>
		<g>
			<path class="st18" d="M340.1,187.7c0,0-4.1,4-3.4,9c0.7,4.9,3.8,11,3.3,16.1c-0.6,5.1-1.5,8.5-1.5,8.5s4.8-5.4,4.8-10.6
				c0-5.2-3.3-12-3.3-15.8C340,191,340.2,187.6,340.1,187.7L340.1,187.7z"/>
			<path class="st18" d="M347.6,204.3c0,0-3.2,2.3-2.9,7.7c0.3,5.4,5.9,15.2,5.9,15.2s4,8.3,3.9,10.5c-0.1,2.2,0.7-2.1,0.4-6.8
				c-0.4-4.8-6.5-15.2-6.5-15.2s-1.3-2.2-1.2-5.7C347.3,206.3,347.7,204.3,347.6,204.3L347.6,204.3z"/>
			<path class="st28" d="M259.5,150.7c0,0,13.6,0.5,13.7,9.3c0,1.4,0,3-0.5,6.9c2.7-1.5,4.5-5.5,4.1-8.1
				C276.9,149.9,264.7,143.8,259.5,150.7L259.5,150.7z"/>
			<path class="st28" d="M250.9,150.3c0,0,11-2.3,11,6.5c0.1,8.8-3.5,10.2-3.5,10.2s8.4-1.8,8.4-10.7
				C267,147.3,256.1,143.4,250.9,150.3L250.9,150.3z"/>
			<path class="st28" d="M357.3,251.1c0.3,3.9,4.1,7.7,2.6,14.6c-1.9,7.8-8.7,26.4-7.6,29.6c-2-2.8-1.7-5.4-1.8-9.2
				c-0.2-3.9,5.6-18.2,6.1-23.1C356.6,258.7,357.1,252.7,357.3,251.1L357.3,251.1z"/>
			<path class="st28" d="M357.3,251.2c0,0,6.3,8,6,14.3c-0.3,6.3-3.9,13.7-2.7,17c-2-2.8-2.5-4.5-2.7-8.4c-0.2-3.9,3.1-8.1,2.4-12.3
				C359.7,257.5,357.2,251.2,357.3,251.2L357.3,251.2z"/>
			<path class="st28" d="M151,253c-0.3,3.9-3.2,7.5-1.7,14.4c1.9,7.8,8.8,17.7,7.7,29.1c2-2.8,2.6-5.9,2.8-9.7
				c0.2-3.9-7.6-16.9-8.1-21.8C151.6,260.5,151.2,254.5,151,253L151,253z"/>
			<path class="st28" d="M151,253c0,0-6.1,7.7-5.8,14c0.1,4.2,7.8,21.8,6.6,25c2-2.8,2.6-2.4,2.5-6.6c-2.3-10.7-6.3-17.6-5.6-21.8
				C149.4,259.4,151.1,253,151,253L151,253z"/>
		</g>
	</g>
	<g>
		<path class="st29" d="M270.1,177.3c0,0,10.9,0.7,11.5,7c0.5,6.3-2.6,10.1-2.6,10.1s1.4,13.5-9.3,17.5c-11.5,1.4-29.5,0.3-29.5,0.3
			s-5.3,1.3-7.4-9.6c-2.1-10.9-2.8-18.7-2.8-18.7s1.1-6.1,8.8-6.5C246.5,177,270,177.5,270.1,177.3L270.1,177.3z"/>
		<path class="st30" d="M278.9,194.3c0,0-5.9,7.3-5.3,10.3"/>
		<path class="st29" d="M271,211.5c1.5,1.2,2.8,2.6,3.1,7.1c0.3,4.5,0.6,9,0.6,9l7.7,68.9l6.7,49.8l0.5,7.7c0,0-1.6,5.7-6.1,6.1
			c-3.3,6.9-21.1,8.9-22.9,8.8c-1.6-0.1-7.3-2.4-10.7-2.1c-3.4,0.3-9.4,2.6-12.1,2.2c-2.7-0.4-8.7-2.4-9.8-6.8
			c-7.5-2.4-8.7-8.1-8.7-8.1l8.1-57.6l7.9-72.9c0,0,0.9-9.7,4.8-11.2C244.1,212.2,265.1,212.9,271,211.5L271,211.5z"/>
		<path class="st2" d="M229.7,311.3l-1.6,51"/>
		<path class="st2" d="M279.2,318l4.5,42"/>
		<path class="st31" d="M255.7,182.4l15.3,47l49.4,0l-39.9,29l15.3,47l-40-29l-40,29l15.3-47l-39.9-29l49.4,0L255.7,182.4z"/>
	</g>
</g>
</svg>
