<svg xmlns="http://www.w3.org/2000/svg" height="512" width="512" version="1">
  <defs>
    <clipPath id="a">
      <path fill-opacity=".67" d="M177.17 0h708.66v708.66H177.17z"/>
    </clipPath>
  </defs>
  <g fill-rule="evenodd" clip-path="url(#a)" transform="matrix(.72 0 0 .72 -128 0)" stroke-width="1pt">
    <path fill="#fff" d="M0 0h1063v708.66H0z"/>
    <path fill="#329203" d="M0 472.44h1063v236.22H0z"/>
    <path fill="#e77300" d="M0 0h1063v236.22H0z"/>
    <g transform="matrix(.37 0 0 .37 398.44 219.6)">
      <ellipse cx="362.9" rx="305" cy="367.47" ry="305" fill="#08399c"/>
      <path d="M627.202 299.034c1.67 6.092 2.02 9.344 3.234 15.172-11.958 3.7-18.182 11.67-16.74 19.646 1.194 7.184 6.51 17.406 21.476 15.23.386 5.94.562 9.354.577 15.67-45.206.11-92.852-2.497-137.315-6.44-32.8-2.838-40.606 6.267-57.66 7.712-19.787 1.62-35.372.442-76.244 2.05 40.065-8.258 55.806-13.26 74.355-16.257 17.853-2.77 24.73 3.693 57.955-9.227 41.964-16.68 86.76-31.607 130.363-43.556z" fill="#fff"/>
      <path d="M297.476 104.974c6.103-1.63 9.357-1.96 15.193-3.135 3.622 11.98 11.55 18.257 19.536 16.865 7.192-1.146 17.447-6.395 15.37-21.376 5.942-.348 9.356-.502 15.673-.476-.184 45.204-3.1 92.832-7.33 137.27-3.053 32.78 6 40.644 7.336 57.707 1.49 19.798.212 35.375 1.556 76.258-8-40.117-12.9-55.89-15.775-74.46-2.655-17.87 3.853-24.703-8.85-58.012-16.41-42.07-31.045-86.964-42.71-130.643z" fill="#fff"/>
      <path d="M366.94 96.534c6.315-.016 9.546.497 15.49.853.438 12.51 6.498 20.604 14.574 21.3 7.246.73 18.503-1.722 20.324-16.736 5.834 1.185 9.174 1.91 15.274 3.55-11.734 43.654-26.73 88.954-42.18 130.832-11.332 30.91-4.59 40.83-7.66 57.666-3.62 19.52-8.84 34.253-17.993 74.12 2.522-40.83 1.818-57.33 3.784-76.017 2.002-17.954 10.04-22.897 6.275-58.347-5.108-44.868-7.78-92.01-7.89-137.22z" fill="#fff"/>
      <path d="M436.97 106.324c6.107 1.616 9.095 2.946 14.744 4.825-2.807 12.198.957 21.583 8.58 24.342 6.81 2.577 18.32 3.115 23.956-10.92 5.33 2.65 8.37 4.214 13.84 7.374-22.613 39.143-48.802 79.03-74.545 115.497-18.93 26.935-14.98 38.258-22.296 53.73-8.54 17.924-17.387 30.808-36.527 66.958 12.983-38.79 16.565-54.914 23.292-72.46 6.57-16.827 15.615-19.526 21.133-54.746 6.656-44.664 16.252-90.897 27.823-134.6z" fill="#fff"/>
      <path d="M502.09 133.88c5.48 3.137 8.025 5.194 12.997 8.468-5.863 11.06-4.65 21.098 2 25.733 5.914 4.25 16.893 7.743 25.964-4.36 4.466 3.938 6.998 6.233 11.466 10.698-31.956 31.974-67.56 63.743-101.848 92.322-25.247 21.13-24.353 33.09-35.418 46.147-12.88 15.11-24.755 25.27-52.583 55.25 22.564-34.12 30.19-48.772 41.22-63.984 10.694-14.56 20.128-14.83 34.557-47.43 17.967-41.43 39.18-83.613 61.647-122.845z" fill="#fff"/>
      <path d="M557.594 177.014c4.49 4.44 6.42 7.083 10.386 11.523-8.507 9.184-9.913 19.197-4.675 25.384 4.625 5.627 14.338 11.82 26.213 2.455 3.304 4.952 5.163 7.82 8.334 13.283-39.095 22.695-81.663 44.257-122.142 63.073-29.826 13.94-32.034 25.728-46.08 35.506-16.328 11.295-30.414 18.067-65.008 39.894 30.57-27.183 41.7-39.384 56.267-51.254 14.075-11.325 23.262-9.165 45.578-36.965 28.004-35.426 59.338-70.75 91.127-102.896z" fill="#fff"/>
      <path d="M600.99 234.423c3.166 5.465 4.335 8.52 6.993 13.847-10.62 6.626-14.61 15.917-11.182 23.263 2.985 6.643 10.73 15.173 24.648 9.257 1.886 5.645 2.926 8.9 4.55 15.006-43.685 11.623-90.423 21.24-134.423 28.756-32.44 5.61-37.67 16.404-53.792 22.147-18.722 6.606-34.093 9.437-73.206 21.407 36.638-18.194 50.585-27.042 67.758-34.666 16.558-7.226 24.854-2.728 53.692-23.686 36.33-26.822 75.845-52.668 114.964-75.33zM101.735 435.23c-1.632-6.102-1.963-9.357-3.14-15.192 11.98-3.627 18.254-11.557 16.86-19.543-1.15-7.19-6.4-17.445-21.382-15.362-.35-5.943-.503-9.357-.48-15.674 45.205.168 92.834 3.07 137.272 7.285 32.782 3.04 40.643-6.016 57.705-7.357 19.797-1.497 35.375-.223 76.256-1.58-40.114 8.01-55.885 12.916-74.453 15.8-17.87 2.66-24.705-3.846-58.01 8.87-42.066 16.42-86.953 31.07-130.63 42.752z" fill="#fff"/>
      <path d="M636.095 368.354c.06 6.316-.432 9.55-.747 15.495-12.507.523-20.56 6.638-21.2 14.72-.682 7.25 1.847 18.49 16.873 20.21-1.143 5.84-1.844 9.185-3.443 15.297-43.734-11.437-89.134-26.125-131.117-41.29-30.988-11.122-40.86-4.31-57.717-7.268-19.545-3.488-34.313-8.607-74.24-17.488 40.844 2.245 57.34 1.428 76.04 3.267 17.968 1.88 22.966 9.884 58.39 5.877 44.832-5.412 91.955-8.404 137.163-8.823z" fill="#fff"/>
      <path d="M626.757 438.53c-1.577 6.117-2.887 9.114-4.73 14.775-12.216-2.728-21.576 1.097-24.286 8.737-2.532 6.828-2.995 18.34 11.076 23.886-2.616 5.347-4.16 8.396-7.283 13.887-39.29-22.358-79.347-48.287-115.98-73.792-27.058-18.756-38.355-14.73-53.874-21.946-17.98-8.423-30.92-17.186-67.195-36.09 38.875 12.73 55.022 16.208 72.61 22.82 16.87 6.462 19.628 15.487 54.883 20.777 44.707 6.365 91 15.66 134.78 26.947z" fill="#fff"/>
      <path d="M599.554 503.95c-3.106 5.5-5.147 8.057-8.39 13.05-11.097-5.798-21.127-4.526-25.722 2.152-4.213 5.94-7.64 16.94 4.516 25.94-3.91 4.486-6.19 7.033-10.63 11.528-32.163-31.764-64.146-67.177-92.93-101.294-21.282-25.12-33.236-24.154-46.36-35.14-15.185-12.79-25.418-24.603-55.563-52.25 34.256 22.357 48.952 29.894 64.23 40.833 14.623 10.607 14.95 20.04 47.636 34.272 41.537 17.718 83.848 38.678 123.215 60.91z" fill="#fff"/>
      <path d="M556.32 560.136c-4.424 4.508-7.058 6.448-11.484 10.43-9.216-8.473-19.233-9.843-25.4-4.582-5.61 4.646-11.768 14.382-2.357 26.223-4.94 3.322-7.8 5.19-13.253 8.383-22.84-39.01-44.56-81.497-63.527-121.906-14.05-29.773-25.846-31.937-35.676-45.947-11.356-16.285-18.18-30.347-40.136-64.858 27.296 30.466 39.54 41.552 51.463 56.074 11.378 14.034 9.252 23.23 37.136 45.44 35.53 27.872 70.97 59.074 103.235 90.743z" fill="#fff"/>
      <path d="M499.532 603.484c-5.447 3.198-8.496 4.384-13.807 7.072-6.686-10.584-16-14.52-23.326-11.05-6.627 3.022-15.113 10.814-9.117 24.7-5.635 1.918-8.885 2.976-14.98 4.635-11.87-43.618-21.754-90.3-29.52-134.257-5.794-32.41-16.617-37.575-22.45-53.665-6.715-18.684-9.634-34.04-21.825-73.084 18.402 36.534 27.328 50.43 35.05 67.56 7.32 16.517 2.87 24.84 23.992 53.557 27.027 36.177 53.098 75.545 75.983 114.535z" fill="#fff"/>
      <path d="M433.788 630.413c-6.09 1.674-9.342 2.028-15.17 3.246-3.71-11.957-11.683-18.175-19.66-16.726-7.182 1.2-17.4 6.522-15.212 21.488-5.94.39-9.353.568-15.67.59-.145-45.206 2.426-92.854 6.334-137.32 2.814-32.802-6.298-40.6-7.756-57.653-1.635-19.787-.47-35.372-2.11-76.244 8.29 40.058 13.304 55.795 16.316 74.342 2.784 17.85-3.674 24.732 9.272 57.947 16.713 41.95 31.673 86.736 43.656 130.33z" fill="#fff"/>
      <path d="M362.995 639.354c-6.316.03-9.548-.476-15.49-.82-.467-12.51-6.544-20.59-14.622-21.27-7.247-.714-18.5 1.762-20.288 16.78-5.836-1.17-9.178-1.888-15.282-3.515 11.642-43.68 26.543-89.012 41.904-130.923 11.266-30.935 4.502-40.838 7.538-57.682 3.58-19.528 8.766-34.272 17.834-74.158-2.437 40.834-1.698 57.334-3.624 76.025-1.964 17.96-9.993 22.92-6.15 58.36 5.2 44.858 7.972 91.994 8.18 137.204z" fill="#fff"/>
      <path d="M292.956 629.706c-6.11-1.603-9.1-2.926-14.754-4.792 2.78-12.206-1.004-21.582-8.632-24.325-6.817-2.563-18.327-3.076-23.933 10.97-5.336-2.638-8.38-4.194-13.856-7.342 22.528-39.192 48.63-79.138 74.293-115.66 18.872-26.977 14.895-38.29 22.178-53.78 8.5-17.94 17.32-30.845 36.38-67.037-12.898 38.82-16.445 54.952-23.133 72.512-6.535 16.842-15.572 19.56-21.013 54.793-6.558 44.68-16.053 90.932-27.528 134.662z" fill="#fff"/>
      <path d="M227.558 602.174c-5.485-3.13-8.032-5.185-13.008-8.452 5.85-11.068 4.625-21.105-2.032-25.73-5.92-4.243-16.903-7.72-25.96 4.392-4.47-3.932-7.004-6.223-11.478-10.683 31.916-32.013 67.478-63.828 101.732-92.45 25.22-21.163 24.31-33.12 35.36-46.193 12.86-15.125 24.72-25.302 52.51-55.316-22.52 34.15-30.125 48.81-41.136 64.037-10.677 14.573-20.11 14.857-34.498 47.474-17.914 41.453-39.073 83.664-61.49 122.925z" fill="#fff"/>
      <path d="M171.45 558.54c-4.483-4.448-6.41-7.093-10.366-11.54 8.522-9.17 9.945-19.18 4.718-25.376-4.616-5.633-14.32-11.844-26.21-2.497-3.295-4.957-5.15-7.828-8.31-13.297 39.13-22.63 81.735-44.12 122.244-62.87 29.85-13.888 32.076-25.672 46.14-35.427 16.345-11.268 30.443-18.016 65.073-39.786-30.615 27.132-41.767 39.315-56.353 51.16-14.095 11.3-23.278 9.126-45.64 36.89-28.062 35.38-59.455 70.65-91.297 102.744z" fill="#fff"/>
      <path d="M128.318 501.363c-3.165-5.467-4.332-8.522-6.988-13.85 10.623-6.622 14.615-15.91 11.19-23.26-2.98-6.643-10.722-15.176-24.643-9.264-1.884-5.648-2.923-8.904-4.545-15.01 43.69-11.606 90.432-21.206 134.435-28.705 32.443-5.6 37.675-16.39 53.8-22.127 18.724-6.6 34.096-9.426 73.214-21.38-36.643 18.18-50.594 27.022-67.77 34.64-16.56 7.22-24.855 2.72-53.7 23.667-36.34 26.808-75.865 52.64-114.994 75.288z" fill="#fff"/>
      <path d="M232.296 130.998c5.48-3.14 8.542-4.294 13.88-6.927 6.576 10.654 15.847 14.687 23.21 11.295 6.657-2.952 15.224-10.655 9.374-24.603 5.655-1.86 8.916-2.883 15.028-4.477 11.413 43.74 20.806 90.523 28.11 134.56 5.455 32.466 16.223 37.746 21.89 53.896 6.516 18.754 9.274 34.138 21.055 73.31-18.018-36.726-26.798-50.715-34.34-67.925-7.147-16.592-2.61-24.867-23.43-53.804-26.645-36.457-52.302-76.096-74.777-115.323z" fill="#fff"/>
      <path d="M93.285 364.414c.013-6.317.54-9.545.925-15.485 12.512-.383 20.634-6.405 21.37-14.478.763-7.242-1.637-18.51-16.643-20.4 1.21-5.83 1.95-9.166 3.62-15.26 43.6 11.94 88.828 27.147 130.634 42.793 30.86 11.476 40.808 4.78 57.63 7.93 19.504 3.71 34.212 8.998 74.036 18.337-40.817-2.714-57.32-2.087-76-4.14-17.944-2.086-22.85-10.148-58.317-6.547-44.892 4.897-92.046 7.348-137.256 7.248z" fill="#fff"/>
      <path d="M103.254 294.958c1.632-6.102 2.97-9.087 4.863-14.73 12.192 2.838 21.587-.9 24.366-8.516 2.595-6.804 3.164-18.31-10.856-23.986 2.665-5.323 4.235-8.358 7.41-13.82 39.083 22.716 78.902 49.01 115.3 74.85 26.886 19 38.22 15.078 53.673 22.436 17.9 8.586 30.76 17.467 66.86 36.702-38.756-13.085-54.87-16.71-72.398-23.482-16.81-6.616-19.486-15.667-54.69-21.278-44.648-6.773-90.855-16.49-134.53-28.177z" fill="#fff"/>
      <path d="M131.104 229.69c3.158-5.47 5.224-8.006 8.515-12.967 11.04 5.903 21.08 4.727 25.74-1.908 4.27-5.9 7.8-16.865-4.268-25.98 3.953-4.45 6.257-6.975 10.738-11.427 31.86 32.07 63.502 67.786 91.96 102.177 21.04 25.32 33.002 24.47 46.02 35.582 15.063 12.933 25.182 24.844 55.062 52.78-34.04-22.686-48.664-30.363-63.837-41.447-14.52-10.748-14.76-20.182-47.306-34.727-41.366-18.114-83.475-39.477-122.627-62.084z" fill="#fff"/>
      <path d="M175.912 172.92c4.49-4.442 7.153-6.343 11.638-10.258 9.09 8.608 19.085 10.126 25.33 4.958 5.677-4.563 11.98-14.207 2.745-26.185 4.988-3.25 7.877-5.075 13.375-8.186 22.26 39.344 43.347 82.15 61.71 122.834 13.608 29.98 25.37 32.318 34.992 46.473 11.113 16.45 17.727 30.612 39.17 65.446-26.842-30.87-38.92-42.136-50.626-56.833-11.168-14.2-8.906-23.363-36.457-45.987-35.113-28.395-70.086-60.12-101.878-92.264z" fill="#fff"/>
    </g>
  </g>
</svg>
