<svg xmlns="http://www.w3.org/2000/svg" id="flag-icon-css-io" width="512" height="512">
  <defs>
    <clipPath id="a">
      <path fill-opacity=".67" d="M0 0h512v512H0z"/>
    </clipPath>
  </defs>
  <g clip-path="url(#a)">
    <g fill-rule="evenodd">
      <path fill="#fff" d="M0 0h1023.98v511.98H0z"/>
      <path fill="#000063" d="M1023.98 445.23c-11.48 6.9-21.33 23.03-51.82 23.03-60.94 0-76.18-33.96-121.9-33.96-30.47 0-45.7 33.96-76.18 33.96-60.95 0-76.19-33.96-121.9-33.96-30.48 0-45.72 33.96-76.2 33.96-60.94 0-76.18-33.96-121.9-33.96-30.47 0-45.7 33.96-76.18 33.96-60.95 0-76.19-33.96-121.9-33.96-30.48 0-45.72 33.96-76.2 33.96-60.94 0-76.18-33.96-121.9-33.96-30.47 0-39.61 24.2-57.9 24.2v43.73c18.29 0 27.43-24.2 57.9-24.2 45.72 0 60.96 33.96 121.9 33.96 30.48 0 45.72-33.97 76.2-33.97 45.7 0 60.95 33.97 121.9 33.97 30.47 0 45.71-33.97 76.19-33.97 45.71 0 60.95 33.97 121.9 33.97 30.47 0 45.71-33.97 76.19-33.97 45.71 0 60.95 33.97 121.9 33.97 30.47 0 45.71-33.97 76.18-33.97 45.72 0 60.96 33.97 121.9 33.97 30.49 0 40.34-9.63 51.82-16.53v-50.23zm0-84.92c-11.48 6.9-21.33 23.04-51.82 23.04-60.94 0-76.18-33.96-121.9-33.96-30.47 0-45.7 33.96-76.18 33.96-60.95 0-76.19-33.96-121.9-33.96-30.48 0-45.72 33.96-76.2 33.96-60.94 0-76.18-33.96-121.9-33.96-30.47 0-45.7 33.96-76.18 33.96-60.95 0-76.19-33.96-121.9-33.96-30.48 0-45.72 33.96-76.2 33.96-60.94 0-76.18-33.96-121.9-33.96-30.47 0-39.61 24.2-57.9 24.2v43.72c18.29 0 27.43-24.2 57.9-24.2 45.72 0 60.96 33.96 121.9 33.96 30.48 0 45.72-33.96 76.2-33.96 45.7 0 60.95 33.96 121.9 33.96 30.47 0 45.71-33.96 76.19-33.96 45.71 0 60.95 33.96 121.9 33.96 30.47 0 45.71-33.96 76.19-33.96 45.71 0 60.95 33.96 121.9 33.96 30.47 0 45.71-33.96 76.18-33.96 45.72 0 60.96 33.96 121.9 33.96 30.49 0 40.34-9.62 51.82-16.52V360.3zm0-84.9c-11.48 6.9-21.33 23.03-51.82 23.03-60.94 0-76.18-33.97-121.9-33.97-30.47 0-45.7 33.97-76.18 33.97-60.95 0-76.19-33.97-121.9-33.97-30.48 0-45.72 33.97-76.2 33.97-60.94 0-76.18-33.97-121.9-33.97-30.47 0-45.7 33.97-76.18 33.97-60.95 0-76.19-33.97-121.9-33.97-30.48 0-45.72 33.97-76.2 33.97-60.94 0-76.18-33.97-121.9-33.97-30.47 0-39.61 24.2-57.9 24.2v43.73c18.29 0 27.43-24.2 57.9-24.2 45.72 0 60.96 33.96 121.9 33.96 30.48 0 45.72-33.96 76.2-33.96 45.7 0 60.95 33.96 121.9 33.96 30.47 0 45.71-33.96 76.19-33.96 45.71 0 60.95 33.96 121.9 33.96 30.47 0 45.71-33.96 76.19-33.96 45.71 0 60.95 33.96 121.9 33.96 30.47 0 45.71-33.96 76.18-33.96 45.72 0 60.96 33.96 121.9 33.96 30.49 0 40.34-9.62 51.82-16.52V275.4zm0-84.92c-11.48 6.9-21.33 23.04-51.82 23.04-60.94 0-76.18-33.97-121.9-33.97-30.47 0-45.7 33.97-76.18 33.97-60.95 0-76.19-33.97-121.9-33.97-30.48 0-45.72 33.97-76.2 33.97-60.94 0-76.18-33.97-121.9-33.97-30.47 0-45.7 33.97-76.18 33.97-60.95 0-76.19-33.97-121.9-33.97-30.48 0-45.72 33.97-76.2 33.97-60.94 0-76.18-33.97-121.9-33.97-30.47 0-39.61 24.2-57.9 24.2v43.73c18.29 0 27.43-24.2 57.9-24.2 45.72 0 60.96 33.96 121.9 33.96 30.48 0 45.72-33.96 76.2-33.96 45.7 0 60.95 33.96 121.9 33.96 30.47 0 45.71-33.96 76.19-33.96 45.71 0 60.95 33.96 121.9 33.96 30.47 0 45.71-33.96 76.19-33.96 45.71 0 60.95 33.96 121.9 33.96 30.47 0 45.71-33.96 76.18-33.96 45.72 0 60.96 33.96 121.9 33.96 30.49 0 40.34-9.62 51.82-16.52v-50.24zm0-84.9c-11.48 6.9-21.33 23.03-51.82 23.03-60.94 0-76.18-33.97-121.9-33.97-30.47 0-45.7 33.97-76.18 33.97-60.95 0-76.19-33.97-121.9-33.97-30.48 0-45.72 33.97-76.2 33.97-60.94 0-76.18-33.97-121.9-33.97-30.47 0-45.7 33.97-76.18 33.97-60.95 0-76.19-33.97-121.9-33.97-30.48 0-45.72 33.97-76.2 33.97-60.94 0-76.18-33.97-121.9-33.97-30.47 0-39.61 24.2-57.9 24.2v43.73c18.29 0 27.43-24.2 57.9-24.2 45.72 0 60.96 33.96 121.9 33.96 30.48 0 45.72-33.96 76.2-33.96 45.7 0 60.95 33.96 121.9 33.96 30.47 0 45.71-33.96 76.19-33.96 45.71 0 60.95 33.96 121.9 33.96 30.47 0 45.71-33.96 76.19-33.96 45.71 0 60.95 33.96 121.9 33.96 30.47 0 45.71-33.96 76.18-33.96 45.72 0 60.96 33.96 121.9 33.96 30.49 0 40.34-9.62 51.82-16.52v-50.24zm0-84.92c-11.48 6.9-21.33 23.04-51.82 23.04-60.94 0-76.18-33.97-121.9-33.97-30.47 0-45.7 33.97-76.18 33.97-60.95 0-76.19-33.97-121.9-33.97-30.48 0-45.72 33.97-76.2 33.97-60.94 0-76.18-33.97-121.9-33.97-30.47 0-45.7 33.97-76.18 33.97-60.95 0-76.19-33.97-121.9-33.97-30.48 0-45.72 33.97-76.2 33.97-60.94 0-76.18-33.97-121.9-33.97-30.47 0-39.61 24.2-57.9 24.2v43.73c18.29 0 27.43-24.2 57.9-24.2 45.72 0 60.96 33.96 121.9 33.96 30.48 0 45.72-33.96 76.2-33.96 45.7 0 60.95 33.96 121.9 33.96 30.47 0 45.71-33.96 76.19-33.96 45.71 0 60.95 33.96 121.9 33.96 30.47 0 45.71-33.96 76.19-33.96 45.71 0 60.95 33.96 121.9 33.96 30.47 0 45.71-33.96 76.18-33.96 45.72 0 60.96 33.96 121.9 33.96 30.49 0 40.34-9.62 51.82-16.52V20.67z"/>
    </g>
    <g stroke-width="1pt">
      <path fill="#000063" fill-rule="evenodd" d="M0 .06h261.31v157.9H0z"/>
      <path fill="#fff" d="M0 .06v17.66l232.1 140.25h29.22V140.3L29.22.06H0zm261.32 0v17.66L29.22 157.97H0V140.3L232.1.06h29.22z"/>
      <path fill="#fff" d="M108.88.06v157.9h43.55V.07h-43.55zM0 52.7v52.63h261.32V52.7H0z"/>
      <path fill="#c00" d="M0 63.23V94.8h261.32V63.23H0zM117.6.05v157.9h26.12V.07H117.6zM0 157.96l87.1-52.63h19.48l-87.1 52.64H0zM0 .07L87.1 52.7H67.64L0 11.83V.06zM154.73 52.7L241.83.06h19.49L174.2 52.7h-19.48zm106.59 105.27l-87.11-52.64h19.48l67.63 40.87v11.77z"/>
    </g>
    <path fill="#a24300" fill-rule="evenodd" stroke="#fff" stroke-width="6.93" d="M814.96-301.18l-17.72 708.66c0 37.3 80.1 37.3 88.58 0l-17.71-708.66h-53.15z" transform="matrix(.2064 0 0 .4902 211.63 267.44)"/>
    <path fill="#006d00" fill-rule="evenodd" stroke="#fff" stroke-width="8.25" d="M496.06 549.21l17.72 70.87 35.43-53.15-17.72 88.58 35.44-35.43-35.44 88.58 35.44-35.43-35.44 88.58 35.44-35.43-35.44 106.3 35.44-35.44-35.44 106.3 35.44-35.43-35.44 106.3-17.71 53.15-17.72 17.72-17.72-17.72-17.71-53.15-35.44-106.3 35.44 35.43-35.44-106.3 35.44 35.44-35.44-106.3 35.44 35.43-35.44-88.58 35.44 35.43-35.44-88.58 35.44 35.43-17.72-88.58 35.43 53.15 17.72-70.87z" transform="matrix(-.2354 .06743 -.1035 -.19501 591.31 322.55)"/>
    <path fill="none" stroke="#000" stroke-width="1pt" d="M496.06 549.21v496.07M425.2 868.11l70.86 106.3 70.87-106.3" transform="matrix(-.2354 .06743 -.1035 -.19501 591.31 322.55)"/>
    <path fill="none" stroke="#000" stroke-width="1pt" d="M425.2 797.24l70.87 106.3 70.86-106.3" transform="matrix(-.2354 .06743 -.1035 -.19501 591.31 322.55)"/>
    <path fill="none" stroke="#000" stroke-width="1pt" d="M425.2 726.38l70.87 106.3 70.86-106.3" transform="matrix(-.2354 .06743 -.1035 -.19501 591.31 322.55)"/>
    <path fill="none" stroke="#000" stroke-width="1pt" d="M425.2 673.23l70.87 88.58 70.86-88.58" transform="matrix(-.2354 .06743 -.1035 -.19501 591.31 322.55)"/>
    <path fill="none" stroke="#000" stroke-width="1pt" d="M425.2 620.08l70.87 88.58 70.86-88.58" transform="matrix(-.2354 .06743 -.1035 -.19501 591.31 322.55)"/>
    <path fill="none" stroke="#000" stroke-width="1pt" d="M442.91 566.93l53.15 106.3 53.15-106.3" transform="matrix(-.2354 .06743 -.1035 -.19501 591.31 322.55)"/>
    <path fill="#006d00" fill-rule="evenodd" stroke="#fff" stroke-width="8.25" d="M496.06 549.21l17.72 70.87 35.43-53.15-17.72 88.58 35.44-35.43-35.44 88.58 35.44-35.43-35.44 88.58 35.44-35.43-35.44 106.3 35.44-35.44-35.44 106.3 35.44-35.43-35.44 106.3-17.71 53.15-17.72 17.72-17.72-17.72-17.71-53.15-35.44-106.3 35.44 35.43-35.44-106.3 35.44 35.44-35.44-106.3 35.44 35.43-35.44-88.58 35.44 35.43-35.44-88.58 35.44 35.43-17.72-88.58 35.43 53.15 17.72-70.87z" transform="matrix(.17703 -.18126 .22077 .14638 73.83 93.53)"/>
    <path fill="none" stroke="#000" stroke-width="1pt" d="M496.06 549.21v496.07M425.2 868.11l70.86 106.3 70.87-106.3" transform="matrix(.17703 -.18126 .22077 .14638 73.83 93.53)"/>
    <path fill="none" stroke="#000" stroke-width="1pt" d="M425.2 797.24l70.87 106.3 70.86-106.3" transform="matrix(.17703 -.18126 .22077 .14638 73.83 93.53)"/>
    <path fill="none" stroke="#000" stroke-width="1pt" d="M425.2 726.38l70.87 106.3 70.86-106.3" transform="matrix(.17703 -.18126 .22077 .14638 73.83 93.53)"/>
    <path fill="none" stroke="#000" stroke-width="1pt" d="M425.2 673.23l70.87 88.58 70.86-88.58" transform="matrix(.17703 -.18126 .22077 .14638 73.83 93.53)"/>
    <path fill="none" stroke="#000" stroke-width="1pt" d="M425.2 620.08l70.87 88.58 70.86-88.58" transform="matrix(.17703 -.18126 .22077 .14638 73.83 93.53)"/>
    <path fill="none" stroke="#000" stroke-width="1pt" d="M442.91 566.93l53.15 106.3 53.15-106.3" transform="matrix(.17703 -.18126 .22077 .14638 73.83 93.53)"/>
    <path fill="#006d00" fill-rule="evenodd" stroke="#fff" stroke-width="8.25" d="M496.06 549.21l17.72 70.87 35.43-53.15-17.72 88.58 35.44-35.43-35.44 88.58 35.44-35.43-35.44 88.58 35.44-35.43-35.44 106.3 35.44-35.44-35.44 106.3 35.44-35.43-35.44 106.3-17.71 53.15-17.72 17.72-17.72-17.72-17.71-53.15-35.44-106.3 35.44 35.43-35.44-106.3 35.44 35.44-35.44-106.3 35.44 35.43-35.44-88.58 35.44 35.43-35.44-88.58 35.44 35.43-17.72-88.58 35.43 53.15 17.72-70.87z" transform="matrix(.1135 .2156 -.24917 .1076 581.76 -57.78)"/>
    <path fill="none" stroke="#000" stroke-width="1pt" d="M496.06 549.21v496.07M425.2 868.11l70.86 106.3 70.87-106.3" transform="matrix(.1135 .2156 -.24917 .1076 581.76 -57.78)"/>
    <path fill="none" stroke="#000" stroke-width="1pt" d="M425.2 797.24l70.87 106.3 70.86-106.3" transform="matrix(.1135 .2156 -.24917 .1076 581.76 -57.78)"/>
    <path fill="none" stroke="#000" stroke-width="1pt" d="M425.2 726.38l70.87 106.3 70.86-106.3" transform="matrix(.1135 .2156 -.24917 .1076 581.76 -57.78)"/>
    <path fill="none" stroke="#000" stroke-width="1pt" d="M425.2 673.23l70.87 88.58 70.86-88.58" transform="matrix(.1135 .2156 -.24917 .1076 581.76 -57.78)"/>
    <path fill="none" stroke="#000" stroke-width="1pt" d="M425.2 620.08l70.87 88.58 70.86-88.58" transform="matrix(.1135 .2156 -.24917 .1076 581.76 -57.78)"/>
    <path fill="none" stroke="#000" stroke-width="1pt" d="M442.91 566.93l53.15 106.3 53.15-106.3" transform="matrix(.1135 .2156 -.24917 .1076 581.76 -57.78)"/>
    <path fill="#006d00" fill-rule="evenodd" stroke="#fff" stroke-width="8.25" d="M496.06 549.21l17.72 70.87 35.43-53.15-17.72 88.58 35.44-35.43-35.44 88.58 35.44-35.43-35.44 88.58 35.44-35.43-35.44 106.3 35.44-35.44-35.44 106.3 35.44-35.43-35.44 106.3-17.71 53.15-17.72 17.72-17.72-17.72-17.71-53.15-35.44-106.3 35.44 35.43-35.44-106.3 35.44 35.44-35.44-106.3 35.44 35.43-35.44-88.58 35.44 35.43-35.44-88.58 35.44 35.43-17.72-88.58 35.43 53.15 17.72-70.87z" transform="matrix(-.15682 .19451 -.23555 -.12827 705.85 197.8)"/>
    <path fill="none" stroke="#000" stroke-width="1pt" d="M496.06 549.21v496.07M425.2 868.11l70.86 106.3 70.87-106.3" transform="matrix(-.15682 .19451 -.23555 -.12827 705.85 197.8)"/>
    <path fill="none" stroke="#000" stroke-width="1pt" d="M425.2 797.24l70.87 106.3 70.86-106.3" transform="matrix(-.15682 .19451 -.23555 -.12827 705.85 197.8)"/>
    <path fill="none" stroke="#000" stroke-width="1pt" d="M425.2 726.38l70.87 106.3 70.86-106.3" transform="matrix(-.15682 .19451 -.23555 -.12827 705.85 197.8)"/>
    <path fill="none" stroke="#000" stroke-width="1pt" d="M425.2 673.23l70.87 88.58 70.86-88.58" transform="matrix(-.15682 .19451 -.23555 -.12827 705.85 197.8)"/>
    <path fill="none" stroke="#000" stroke-width="1pt" d="M425.2 620.08l70.87 88.58 70.86-88.58" transform="matrix(-.15682 .19451 -.23555 -.12827 705.85 197.8)"/>
    <path fill="none" stroke="#000" stroke-width="1pt" d="M442.91 566.93l53.15 106.3 53.15-106.3" transform="matrix(-.15682 .19451 -.23555 -.12827 705.85 197.8)"/>
    <path fill="#006d00" fill-rule="evenodd" stroke="#fff" stroke-width="8.25" d="M496.06 549.21l17.72 70.87 35.43-53.15-17.72 88.58 35.44-35.43-35.44 88.58 35.44-35.43-35.44 88.58 35.44-35.43-35.44 106.3 35.44-35.44-35.44 106.3 35.44-35.43-35.44 106.3-17.71 53.15-17.72 17.72-17.72-17.72-17.71-53.15-35.44-106.3 35.44 35.43-35.44-106.3 35.44 35.44-35.44-106.3 35.44 35.43-35.44-88.58 35.44 35.43-35.44-88.58 35.44 35.43-17.72-88.58 35.43 53.15 17.72-70.87z" transform="matrix(-.15547 -.16616 .17678 -.15123 275.84 396.09)"/>
    <path fill="none" stroke="#000" stroke-width="1pt" d="M496.06 549.21v496.07M425.2 868.11l70.86 106.3 70.87-106.3" transform="matrix(-.15547 -.16616 .17678 -.15123 275.84 396.09)"/>
    <path fill="none" stroke="#000" stroke-width="1pt" d="M425.2 797.24l70.87 106.3 70.86-106.3" transform="matrix(-.15547 -.16616 .17678 -.15123 275.84 396.09)"/>
    <path fill="none" stroke="#000" stroke-width="1pt" d="M425.2 726.38l70.87 106.3 70.86-106.3" transform="matrix(-.15547 -.16616 .17678 -.15123 275.84 396.09)"/>
    <path fill="none" stroke="#000" stroke-width="1pt" d="M425.2 673.23l70.87 88.58 70.86-88.58" transform="matrix(-.15547 -.16616 .17678 -.15123 275.84 396.09)"/>
    <path fill="none" stroke="#000" stroke-width="1pt" d="M425.2 620.08l70.87 88.58 70.86-88.58" transform="matrix(-.15547 -.16616 .17678 -.15123 275.84 396.09)"/>
    <path fill="none" stroke="#000" stroke-width="1pt" d="M442.91 566.93l53.15 106.3 53.15-106.3" transform="matrix(-.15547 -.16616 .17678 -.15123 275.84 396.09)"/>
    <path fill="#006d00" fill-rule="evenodd" stroke="#fff" stroke-width="8.25" d="M460.63 549.21l28.64 70.87 42.23-53.15-10.19 88.58 27.9-35.43-17.71 88.58 25.24-35.43-25.24 88.58 35.43-35.43-35.43 106.3 35.43-35.44-35.43 106.3 35.43-35.43-35.43 106.3-17.72 53.15-17.72 17.72-17.71-17.72-17.72-53.15-35.43-106.3 35.43 35.43-35.43-106.3 35.43 35.44-35.43-106.3 35.43 35.43-45.62-88.58 45.62 35.43-53.15-88.58 42.97 35.43-25.25-88.58 35.43 53.15V549.2z" transform="matrix(-.27108 -.06397 -.15704 .20433 684.12 -32.23)"/>
    <path fill="none" stroke="#000" stroke-width="1pt" d="M467.21 584.65l28.86 124.02v336.62" transform="matrix(-.27108 -.06397 -.15704 .20433 684.12 -32.23)"/>
    <path fill="none" stroke="#000" stroke-width="1pt" d="M436.23 885.83l59.83 88.58 60.68-88.58" transform="matrix(-.27108 -.06397 -.15704 .20433 684.12 -32.23)"/>
    <path fill="none" stroke="#000" stroke-width="1pt" d="M434.53 814.96l61.53 88.58 60.68-88.58" transform="matrix(-.27108 -.06397 -.15704 .20433 684.12 -32.23)"/>
    <path fill="none" stroke="#000" stroke-width="1pt" d="M435.38 744.1l60.68 88.58 59.84-88.58" transform="matrix(-.27108 -.06397 -.15704 .20433 684.12 -32.23)"/>
    <path fill="none" stroke="#000" stroke-width="1pt" d="M432.84 690.94l63.23 70.87 53.15-70.87" transform="matrix(-.27108 -.06397 -.15704 .20433 684.12 -32.23)"/>
    <path fill="none" stroke="#000" stroke-width="1pt" d="M425.2 637.8l70.87 70.86 45.4-70.86" transform="matrix(-.27108 -.06397 -.15704 .20433 684.12 -32.23)"/>
    <path fill="none" stroke="#000" stroke-width="1pt" d="M436.12 593.24l53.15 86.89 35.33-95.48" transform="matrix(-.27108 -.06397 -.15704 .20433 684.12 -32.23)"/>
    <g>
      <path fill="#006d00" fill-rule="evenodd" stroke="#fff" stroke-width="8.25" d="M460.63 549.21l28.64 70.87 42.23-53.15-10.19 88.58 27.9-35.43-17.71 88.58 25.24-35.43-25.24 88.58 35.43-35.43-35.43 106.3 35.43-35.44-35.43 106.3 35.43-35.43-35.43 106.3-17.72 53.15-17.72 17.72-17.71-17.72-17.72-53.15-35.43-106.3 35.43 35.43-35.43-106.3 35.43 35.44-35.43-106.3 35.43 35.43-45.62-88.58 45.62 35.43-53.15-88.58 42.97 35.43-25.25-88.58 35.43 53.15V549.2z" transform="matrix(.27011 .06695 .00989 .24471 240.77 -138.42)"/>
      <path fill="none" stroke="#000" stroke-width="1pt" d="M467.21 584.65l28.86 124.02v336.62" transform="matrix(.27011 .06695 .00989 .24471 240.77 -138.42)"/>
      <path fill="none" stroke="#000" stroke-width="1pt" d="M436.23 885.83l59.83 88.58 60.68-88.58" transform="matrix(.27011 .06695 .00989 .24471 240.77 -138.42)"/>
      <path fill="none" stroke="#000" stroke-width="1pt" d="M434.53 814.96l61.53 88.58 60.68-88.58" transform="matrix(.27011 .06695 .00989 .24471 240.77 -138.42)"/>
      <path fill="none" stroke="#000" stroke-width="1pt" d="M435.38 744.1l60.68 88.58 59.84-88.58" transform="matrix(.27011 .06695 .00989 .24471 240.77 -138.42)"/>
      <path fill="none" stroke="#000" stroke-width="1pt" d="M432.84 690.94l63.23 70.87 53.15-70.87" transform="matrix(.27011 .06695 .00989 .24471 240.77 -138.42)"/>
      <path fill="none" stroke="#000" stroke-width="1pt" d="M425.2 637.8l70.87 70.86 45.4-70.86" transform="matrix(.27011 .06695 .00989 .24471 240.77 -138.42)"/>
      <path fill="none" stroke="#000" stroke-width="1pt" d="M436.12 593.24l53.15 86.89 35.33-95.48" transform="matrix(.27011 .06695 .00989 .24471 240.77 -138.42)"/>
    </g>
    <g>
      <path fill="#006d00" fill-rule="evenodd" stroke="#fff" stroke-width="8.25" d="M354.33 531.5l88.58 88.58 17.72-53.15v88.59l35.43-35.44-17.71 88.59 35.43-35.44-17.72 88.59 35.44-35.44-17.72 106.3 35.43-35.43-35.43 106.3 35.43-35.43-17.72 106.3-17.71 53.15-17.72 17.72-17.71-17.72-17.72-53.15-53.15-82.3 35.43 11.43-35.43-106.3 35.43 35.44-53.15-106.3 35.44 35.43-53.15-88.59 53.15 35.44-70.87-88.58 53.15 35.43-70.87-70.87 70.87 35.44-53.15-88.59z" transform="matrix(.03453 -.23456 .24402 .04167 115.46 229.54)"/>
      <path fill="none" stroke="#000" stroke-width="1pt" d="M378.96 560.02l63.95 95.5 17.72 53.15 8.86 45.2 8.85 78.81 9.32 70.87 8.4 141.74" transform="matrix(.03453 -.23456 .24402 .04167 115.46 229.54)"/>
      <path fill="none" stroke="#000" stroke-width="1pt" d="M425.2 903.54l63.66 70.87 50.75-88.59" transform="matrix(.03453 -.23456 .24402 .04167 115.46 229.54)"/>
      <path fill="none" stroke="#000" stroke-width="1pt" d="M417.08 814.96l70.58 88.58 50.75-88.58" transform="matrix(.03453 -.23456 .24402 .04167 115.46 229.54)"/>
      <path fill="none" stroke="#000" stroke-width="1pt" d="M407.48 752.44l70.87 80.23 45.95-88.58M372.05 637.8l88.58 70.87 25.83-70.87" transform="matrix(.03453 -.23456 .24402 .04167 115.46 229.54)"/>
      <path fill="none" stroke="#000" stroke-width="1pt" d="M360.62 602.36l82.3 53.15 10.51-53.15m-63.67 88.58l81.1 70.87 33.94-70.87" transform="matrix(.03453 -.23456 .24402 .04167 115.46 229.54)"/>
    </g>
    <g fill-rule="evenodd">
      <path fill="#c00" stroke="#000" stroke-width="1pt" d="M541.46 1173.3l-1.7-229.13-61.1-106.94c-15.28-52.62-7.75-78.08 16.97-79.78 24.73-1.7 49.23 13.58 84.87 15.28 35.65 1.7 28.86-59.4 81.47-57.71 52.62 1.7 144.28 32.25 222.37 37.34 78.07 5.1 118.8-27.16 208.77-30.55 89.97-3.4 113.73 42.43 118.82 42.43s30.54-18.67 56-22.06c25.46-3.4 33.95 10.18 33.95 10.18s-1.7 57.71-13.58 91.66c-11.87 33.95-54.31 89.96-56 89.96-1.7 0-15.28 249.52-15.28 251.21 0 1.7-675.55-6.79-675.55-11.88z" transform="matrix(.13659 0 0 .12573 266.36 208.19)"/>
      <g stroke="#000" stroke-width="1pt">
        <path fill="#fff100" d="M531.5 584.65s-67.98-52.1-69.81-177.17c-1.06-71.93 34.38-124.02 122.96-124.02 124.02 0 301.18 53.15 301.18 53.15v17.72s-141.73-53.15-301.18-53.15c-70.87 0-106.3 52.08-106.3 105.24 0 88.58 70.86 178.23 70.86 178.23v141.73H531.5V584.65z" transform="matrix(-.13659 0 0 .12573 508.36 252.74)"/>
        <path fill="#fff" d="M478.35 549.21a17.72 17.72 0 1 1-35.43 0 17.72 17.72 0 0 1 35.43 0z" transform="matrix(-.13659 0 0 .12573 506.17 252.53)"/>
        <path fill="#fff" d="M478.35 549.21a17.72 17.72 0 1 1-35.43 0 17.72 17.72 0 0 1 35.43 0z" transform="matrix(-.13659 0 0 .12573 508.59 247.43)"/>
        <path fill="#fff" d="M478.35 549.21a17.72 17.72 0 1 1-35.43 0 17.72 17.72 0 0 1 35.43 0z" transform="matrix(-.13659 0 0 .12573 509.85 242.24)"/>
        <path fill="#fff" d="M478.35 549.21a17.72 17.72 0 1 1-35.43 0 17.72 17.72 0 0 1 35.43 0z" transform="matrix(-.13659 0 0 .12573 510.78 236.7)"/>
        <path fill="#fff" d="M478.35 549.21a17.72 17.72 0 1 1-35.43 0 17.72 17.72 0 0 1 35.43 0z" transform="matrix(-.13659 0 0 .12573 510.55 230.68)"/>
        <path fill="#fff" d="M478.35 549.21a17.72 17.72 0 1 1-35.43 0 17.72 17.72 0 0 1 35.43 0z" transform="matrix(-.13659 0 0 .12573 502.69 257)"/>
        <path fill="#fff" d="M478.35 549.21a17.72 17.72 0 1 1-35.43 0 17.72 17.72 0 0 1 35.43 0z" transform="matrix(-.13659 0 0 .12573 508.49 225)"/>
        <path fill="#fff" d="M478.35 549.21a17.72 17.72 0 1 1-35.43 0 17.72 17.72 0 0 1 35.43 0z" transform="matrix(-.13659 0 0 .12573 504.08 220.51)"/>
        <path fill="#fff" d="M478.35 549.21a17.72 17.72 0 1 1-35.43 0 17.72 17.72 0 0 1 35.43 0z" transform="matrix(-.13659 0 0 .12573 498.05 217.53)"/>
        <path fill="#fff" d="M478.35 549.21a17.72 17.72 0 1 1-35.43 0 17.72 17.72 0 0 1 35.43 0z" transform="matrix(-.13659 0 0 .12573 492.03 217.1)"/>
        <path fill="#fff" d="M478.35 549.21a17.72 17.72 0 1 1-35.43 0 17.72 17.72 0 0 1 35.43 0z" transform="matrix(-.13659 0 0 .12573 485.54 217.31)"/>
        <path fill="#fff" d="M478.35 549.21a17.72 17.72 0 1 1-35.43 0 17.72 17.72 0 0 1 35.43 0z" transform="matrix(-.13659 0 0 .12573 479.04 218.17)"/>
        <path fill="#fff" d="M478.35 549.21a17.72 17.72 0 1 1-35.43 0 17.72 17.72 0 0 1 35.43 0z" transform="matrix(-.13659 0 0 .12573 472.55 219.02)"/>
        <path fill="#fff" d="M478.35 549.21a17.72 17.72 0 1 1-35.43 0 17.72 17.72 0 0 1 35.43 0z" transform="matrix(-.13659 0 0 .12573 465.6 220.09)"/>
        <path fill="#fff" d="M478.35 549.21a17.72 17.72 0 1 1-35.43 0 17.72 17.72 0 0 1 35.43 0z" transform="matrix(-.13659 0 0 .12573 459.57 221.58)"/>
      </g>
      <path fill="#fff" stroke="#000" stroke-width="1pt" d="M478.35 549.21a17.72 17.72 0 1 1-35.43 0 17.72 17.72 0 0 1 35.43 0z" transform="matrix(.13659 0 0 .12573 268.55 252.53)"/>
      <path fill="#fff" stroke="#000" stroke-width="1pt" d="M478.35 549.21a17.72 17.72 0 1 1-35.43 0 17.72 17.72 0 0 1 35.43 0z" transform="matrix(.13659 0 0 .12573 266.13 247.43)"/>
      <path fill="#fff" stroke="#000" stroke-width="1pt" d="M478.35 549.21a17.72 17.72 0 1 1-35.43 0 17.72 17.72 0 0 1 35.43 0z" transform="matrix(.13659 0 0 .12573 264.87 242.24)"/>
      <path fill="#fff" stroke="#000" stroke-width="1pt" d="M478.35 549.21a17.72 17.72 0 1 1-35.43 0 17.72 17.72 0 0 1 35.43 0z" transform="matrix(.13659 0 0 .12573 263.94 236.7)"/>
      <path fill="#fff" stroke="#000" stroke-width="1pt" d="M478.35 549.21a17.72 17.72 0 1 1-35.43 0 17.72 17.72 0 0 1 35.43 0z" transform="matrix(.13659 0 0 .12573 264.17 230.68)"/>
      <path fill="#fff" stroke="#000" stroke-width="1pt" d="M478.35 549.21a17.72 17.72 0 1 1-35.43 0 17.72 17.72 0 0 1 35.43 0z" transform="matrix(.13659 0 0 .12573 266.23 225)"/>
      <path fill="#fff" stroke="#000" stroke-width="1pt" d="M478.35 549.21a17.72 17.72 0 1 1-35.43 0 17.72 17.72 0 0 1 35.43 0z" transform="matrix(.13659 0 0 .12573 270.63 220.51)"/>
      <path fill="#fff" stroke="#000" stroke-width="1pt" d="M478.35 549.21a17.72 17.72 0 1 1-35.43 0 17.72 17.72 0 0 1 35.43 0z" transform="matrix(.13659 0 0 .12573 276.66 217.53)"/>
      <path fill="#fff" stroke="#000" stroke-width="1pt" d="M478.35 549.21a17.72 17.72 0 1 1-35.43 0 17.72 17.72 0 0 1 35.43 0z" transform="matrix(.13659 0 0 .12573 282.69 217.1)"/>
      <path fill="#fff" stroke="#000" stroke-width="1pt" d="M478.35 549.21a17.72 17.72 0 1 1-35.43 0 17.72 17.72 0 0 1 35.43 0z" transform="matrix(.13659 0 0 .12573 289.18 217.31)"/>
      <path fill="#fff" stroke="#000" stroke-width="1pt" d="M478.35 549.21a17.72 17.72 0 1 1-35.43 0 17.72 17.72 0 0 1 35.43 0z" transform="matrix(.13659 0 0 .12573 295.67 218.17)"/>
      <path fill="#fff" stroke="#000" stroke-width="1pt" d="M478.35 549.21a17.72 17.72 0 1 1-35.43 0 17.72 17.72 0 0 1 35.43 0z" transform="matrix(.13659 0 0 .12573 302.17 219.02)"/>
      <path fill="#fff" stroke="#000" stroke-width="1pt" d="M478.35 549.21a17.72 17.72 0 1 1-35.43 0 17.72 17.72 0 0 1 35.43 0z" transform="matrix(.13659 0 0 .12573 309.12 220.09)"/>
      <path fill="#fff" stroke="#000" stroke-width="1pt" d="M478.35 549.21a17.72 17.72 0 1 1-35.43 0 17.72 17.72 0 0 1 35.43 0z" transform="matrix(.13659 0 0 .12573 315.15 221.58)"/>
      <path fill="#fff" stroke="#000" stroke-width="1pt" d="M478.35 549.21a17.72 17.72 0 1 1-35.43 0 17.72 17.72 0 0 1 35.43 0z" transform="matrix(.13659 0 0 .12573 272.03 257)"/>
      <path fill="#fff100" stroke="#000" stroke-width="1pt" d="M531.5 584.65s-67.98-52.1-69.81-177.17c-1.06-71.93 34.38-124.02 122.96-124.02 124.02 0 301.18 53.15 301.18 53.15v17.72s-141.73-53.15-301.18-53.15c-70.87 0-106.3 52.08-106.3 105.24 0 88.58 70.86 178.23 70.86 178.23v141.73H531.5V584.65z" transform="matrix(.13659 0 0 .12573 266.36 252.74)"/>
      <path fill="#fff100" stroke="#000" stroke-width="2.99" d="M1240.2 531.5s15.35-35.43 70.86-35.43c37.79 0 70.87 35.43 70.87 70.86v70.87h35.43v-70.87c0-35.47 35.44-70.86 70.87-70.86 53.15 0 70.87 35.43 70.87 35.43s0-106.3-70.87-106.3c-53.15 0-70.87 35.43-70.87 35.43s17.72-53.15 17.72-106.3-35.43-88.58-35.43-88.58c0 6.79-35.44 35.43-35.44 88.58s17.72 106.3 17.72 106.3-17.72-35.43-70.87-35.43c-70.86 0-70.86 106.3-70.86 106.3z" transform="matrix(.04553 0 0 .0479 299.43 309.06)"/>
      <path fill="#fff100" stroke="#000" stroke-width="2.99" d="M1240.2 531.5s15.35-35.43 70.86-35.43c37.79 0 70.87 35.43 70.87 70.86v70.87h35.43v-70.87c0-35.47 35.44-70.86 70.87-70.86 53.15 0 70.87 35.43 70.87 35.43s0-106.3-70.87-106.3c-53.15 0-70.87 35.43-70.87 35.43s17.72-53.15 17.72-106.3-35.43-88.58-35.43-88.58c0 6.79-35.44 35.43-35.44 88.58s17.72 106.3 17.72 106.3-17.72-35.43-70.87-35.43c-70.86 0-70.86 106.3-70.86 106.3z" transform="matrix(.04553 0 0 .0479 347.83 309.06)"/>
      <path fill="#fff100" stroke="#000" stroke-width="1pt" d="M531.5 832.68V673.23s35.43 53.15 88.58 53.15c43.5 0 88.58-70.87 88.58-70.87s41.52 53.15 88.59 53.15c42.02 0 88.51-68.57 88.51-68.57s43.21 68.57 88.65 68.57c45.44 0 88.58-53.15 88.58-53.15s46.3 70.87 106.3 70.87c53.15 0 70.87-53.15 70.87-53.15v159.45H531.5z" transform="matrix(.13659 0 0 .12573 266.36 252.74)"/>
      <path fill="#fff100" stroke="#000" stroke-width="1pt" d="M708.66 832.68V708.66s106.3 35.43 106.3 124.02h-106.3z" transform="matrix(.13659 0 0 .12573 242.16 252.74)"/>
      <path fill="#fff100" stroke="#000" stroke-width="1pt" d="M708.66 832.68V708.66s106.3 35.43 106.3 124.02h-106.3z" transform="matrix(-.13659 0 0 .12573 532.55 252.74)"/>
      <path fill="#fff100" stroke="#000" stroke-width="1pt" d="M602.36 832.68c0-88.58 106.37-144.6 106.37-144.6s106.23 56.02 106.23 144.6h-212.6z" transform="matrix(.13659 0 0 .12573 266.36 252.74)"/>
      <path fill="#fff100" stroke="#000" stroke-width="1pt" d="M602.36 832.68c0-88.58 106.37-144.6 106.37-144.6s106.23 56.02 106.23 144.6h-212.6z" transform="matrix(.13659 0 0 .12573 314.76 252.74)"/>
      <path fill="#fff100" stroke="#000" stroke-width="1pt" d="M584.65 847.53c0-88.58 124.08-159.45 124.08-159.45s123.95 70.87 123.95 159.45H584.65z" transform="matrix(.13659 0 0 .12573 290.56 250.87)"/>
      <path fill="#fff" stroke="#000" stroke-width="1pt" d="M1275.6 655.51c-35.43-17.72-166.02-35.43-376.28-35.43s-350.1 17.71-385.53 35.43c-35.43 17.72-35.43 53.15 0 70.87 35.43 17.71 175.28 35.43 385.54 35.43s340.84-17.72 376.28-35.43c35.43-17.72 35.43-53.15 0-70.87z" transform="matrix(.13505 0 0 .12573 265.9 275.01)"/>
      <path fill="gray" d="M435.76 366.34c0 4.46-40.26 4.46-48.4 4.46-8.8 0-48.4 1.2-48.4-4.46 0-4.45 39.93-4.45 48.4-4.45 8.47 0 48.4.9 48.4 4.45z"/>
      <path fill="#c00" d="M343.8 350.34c0 1.46-1.09 2.64-2.42 2.64-1.34 0-2.42-1.18-2.42-2.64s1.08-2.63 2.42-2.63c1.33 0 2.42 1.18 2.42 2.63zm91.95 0c0 1.46-1.08 2.64-2.42 2.64-1.33 0-2.42-1.18-2.42-2.64s1.09-2.63 2.42-2.63c1.34 0 2.42 1.18 2.42 2.63z"/>
      <path d="M392.2 348.93c0 1.46-2.17 2.64-4.84 2.64s-4.84-1.18-4.84-2.64 2.16-2.63 4.84-2.63 4.84 1.18 4.84 2.63z"/>
      <path fill="#006300" d="M415.41 348.93c0 1.46-1.63 2.64-3.63 2.64s-3.63-1.18-3.63-2.64 1.63-2.63 3.63-2.63 3.63 1.18 3.63 2.63zm-49.83 0c0 1.46-1.63 2.64-3.63 2.64s-3.63-1.18-3.63-2.64 1.62-2.63 3.63-2.63c2 0 3.63 1.18 3.63 2.63z"/>
      <path fill="#fff100" stroke="#000" stroke-width="2.19" d="M1257.9 496.06s35.44-53.15 70.87-53.15h35.43v35.43c0 53.15-53.15 70.87-53.15 70.87h141.74s-53.15-17.72-53.15-70.87v-35.43h35.43c35.43 0 70.87 53.15 70.87 53.15V354.33s-35.44 53.15-70.87 53.15h-35.43v-35.43c0-53.15 53.15-70.87 53.15-70.87h-141.74s53.15 17.72 53.15 70.87v35.43h-35.43c-35.43 0-70.87-53.15-70.87-53.15v141.73z" transform="matrix(.07805 0 0 .07185 279.5 297.93)"/>
      <path fill="#fff100" stroke="#000" stroke-width="3.31" d="M1381.9 549.21h70.87s-53.15-17.72-53.15-70.87v-35.43h35.43c35.43 0 70.87 53.15 70.87 53.15V354.33s-35.44 53.15-70.87 53.15h-35.43v-35.43c0-53.15 53.15-70.87 53.15-70.87h-70.87v248.03z" transform="matrix(.03903 0 0 .06287 285.03 307.31)"/>
      <path fill="#fff100" stroke="#000" stroke-width="3.31" d="M1381.9 549.21h70.87s-53.15-17.72-53.15-70.87v-35.43h35.43c35.43 0 70.87 53.15 70.87 53.15V354.33s-35.44 53.15-70.87 53.15h-35.43v-35.43c0-53.15 53.15-70.87 53.15-70.87h-70.87v248.03z" transform="matrix(-.03903 0 0 .06287 489.69 307.31)"/>
      <path fill="#fff" stroke="#000" stroke-width="1pt" d="M903.54 602.36a17.72 17.72 0 1 1-35.43 0 17.72 17.72 0 0 1 35.43 0z" transform="matrix(.13659 0 0 .12573 266.36 252.74)"/>
      <path fill="#fff100" stroke="#000" stroke-width="2.19" d="M1257.9 496.06s35.44-53.15 70.87-53.15h35.43v35.43c0 53.15-53.15 70.87-53.15 70.87h141.74s-53.15-17.72-53.15-70.87v-35.43h35.43c35.43 0 70.87 53.15 70.87 53.15V354.33s-35.44 53.15-70.87 53.15h-35.43v-35.43c0-53.15 53.15-70.87 53.15-70.87h-141.74s53.15 17.72 53.15 70.87v35.43h-35.43c-35.43 0-70.87-53.15-70.87-53.15v141.73z" transform="matrix(.07805 0 0 .07185 279.5 251.15)"/>
      <path fill="#fff" stroke="#000" stroke-width="1pt" d="M903.54 602.36a17.72 17.72 0 1 1-35.43 0 17.72 17.72 0 0 1 35.43 0z" transform="matrix(.13659 0 0 .12573 266.6 206.34)"/>
      <path fill="#fff100" stroke="#000" stroke-width="1pt" d="M850.39 655.51h70.87v53.15h-70.87z" transform="matrix(.13659 0 0 .12573 266.36 208.19)"/>
      <path fill="#fff100" stroke="#000" stroke-width="1pt" d="M850.39 683.3h70.87v202.53h-70.87z" transform="matrix(.13659 0 0 .12573 266.36 208.19)"/>
      <path fill="#fff" stroke="#000" stroke-width="1pt" d="M478.35 549.21a17.72 17.72 0 1 1-35.43 0 17.72 17.72 0 0 1 35.43 0z" transform="matrix(.13659 0 0 .12573 324.44 246.06)"/>
      <path fill="#fff" stroke="#000" stroke-width="1pt" d="M478.35 549.21a17.72 17.72 0 1 1-35.43 0 17.72 17.72 0 0 1 35.43 0z" transform="matrix(.13659 0 0 .12573 324.44 240.3)"/>
      <path fill="#fff" stroke="#000" stroke-width="1pt" d="M478.35 549.21a17.72 17.72 0 1 1-35.43 0 17.72 17.72 0 0 1 35.43 0z" transform="matrix(.13659 0 0 .12573 324.44 234.92)"/>
      <path fill="#fff" stroke="#000" stroke-width="1pt" d="M478.35 549.21a17.72 17.72 0 1 1-35.43 0 17.72 17.72 0 0 1 35.43 0z" transform="matrix(.13659 0 0 .12573 324.44 229.37)"/>
      <path d="M392.5 357.48c0 1-2.2 1.81-4.92 1.81s-4.92-.8-4.92-1.8 2.2-1.82 4.92-1.82c2.71 0 4.92.81 4.92 1.81zm44.57 4.42c-.28.69-2.67.75-5.35.13-2.69-.61-4.64-1.67-4.37-2.35.27-.7 2.67-.75 5.35-.13 2.68.61 4.64 1.67 4.37 2.35zm-18.63-3c-.11.88-2.44 1.44-5.2 1.25-2.78-.2-4.93-1.07-4.83-1.95.11-.88 2.44-1.44 5.21-1.25 2.77.2 4.92 1.07 4.82 1.95zm-81.87 3c.27.69 2.67.75 5.35.13 2.68-.61 4.64-1.67 4.36-2.35-.27-.7-2.66-.75-5.35-.13-2.68.61-4.64 1.67-4.36 2.35zm19.56-3.43c.1.88 2.44 1.44 5.2 1.25 2.77-.2 4.93-1.07 4.82-1.95-.1-.88-2.44-1.44-5.2-1.24-2.77.19-4.93 1.06-4.82 1.94z"/>
    </g>
  </g>
</svg>
