<svg xmlns="http://www.w3.org/2000/svg" height="512" width="512"><g fill-rule="evenodd" transform="matrix(.667 0 0 1 86.916 1.954)"><rect height="512" width="768" y="-1.954" x="-130.37" fill="#fff"/><rect height="170.67" width="768" y="339.38" x="-130.37"/><rect height="170.67" width="768" y="-1.954" x="-130.37" fill="#f30000"/></g><g fill-rule="evenodd" fill="#005623" transform="matrix(.827 0 0 .827 43.799 43.035)"><polygon points="566.56 405.84 531.24 380.29 496.09 406.19 509.47 364.69 473.98 339.27 517.58 339.17 530.8 297.57 544.36 339 588.01 338.71 552.8 364.41" transform="matrix(.722 0 0 .722 127.03 -1.955)"/><path d="M180.61 229.79c.262 29.417 0 48.328 0 54.369-3.152 3.677-6.304 7.617-8.668 10.768-1.05-.788-1.313-.788-1.313-2.364 0-1.576-.262-40.186 0-54.369 4.728-2.364 7.88-8.931 9.981-8.405zm-10.769-.525c2.364-3.94 4.99-7.88 6.829-9.718 1.839 1.05 1.576 3.94 1.839 4.727-1.839 2.627-6.304 6.829-7.617 8.142-.525-.788 0-.525-1.05-3.151zm13.133-33.62c-16.022 10.506-34.146 23.114-40.712 28.629-6.567 5.516-8.93 8.931-8.93 18.386 0 9.456.262 20.225-.525 25.215-.788 4.99-3.152 10.243-8.931 5.516-5.779-4.727-9.98-9.455-12.607-11.556-2.626-2.102-7.354-4.991-13.658.525-6.304 5.516-35.721 36.509-41.237 39.923-5.516 3.414-6.566 4.203-10.506 6.304 8.142.525 17.335 1.05 24.689-.525 9.718-7.092 21.013-23.114 24.69-27.054 3.678-3.94 7.354-12.344 15.497-3.151 8.142 9.193 7.88 9.455 11.819 12.344 3.94 2.889 8.931 2.364 12.345-3.414 3.414-5.779 3.677-8.405 4.99-17.861 1.313-9.455 2.101-21.275 4.203-26.528 2.101-5.253 6.304-10.506 13.395-14.709 7.092-4.202 8.405-4.465 9.981-5.253 3.151-6.041 10.769-20.225 13.92-23.639 1.313-1.576 1.577-2.364 1.577-3.152zm-71.18 95.606c-3.94-2.626-5.253-4.728-7.354-4.465-2.101.263-6.566 6.304-9.193 7.88 3.414 2.889 6.567 5.516 9.193 4.991 2.627-.526 4.465-6.304 7.354-8.405z"/><path d="M444.58 217.45c-5.516 1.313-8.405 8.668-13.133 13.658-.525 14.709-.525 60.411-.525 66.452 4.728-5.516 7.617-8.668 11.032-10.769.788-24.427 3.677-58.571 2.626-69.341zm-26.003-.262c-6.566 4.202-8.142 8.405-13.658 13.133-.262 17.598.525 42.55-.788 45.964-1.313 3.414-4.203 10.506-11.294 9.718-7.092-.788-9.193-2.101-9.193-9.455s1.576-54.369 1.576-61.987c-5.516 2.627-10.243 10.769-14.183 14.184 0 18.385.788 41.761.262 46.752-.525 4.99-2.626 13.133-11.557 12.87-8.93-.262-13.658-4.728-13.658-9.98 0-5.253-.262-39.661.263-45.702-7.88 5.516-26.265 16.547-29.943 30.73-3.677 14.183 2.102 18.386 7.354 15.759 5.253-2.626 7.617-4.99 10.506-7.091.788 8.93 1.05 18.648 9.98 24.427 8.931 5.779 20.225 3.678 24.427.525 4.202-3.151 5.779-5.253 6.829-6.829 7.88 6.041 19.436 9.193 27.054 2.626 7.617-6.566 11.819-13.133 12.607-20.487.788-7.354 4.466-45.177 3.414-55.157zm-82.473 35.721c-7.88 3.678-11.294 9.193-9.193 12.607 2.101 3.414 6.304-.525 9.193-1.839-.525-5.253 0-8.142 0-10.769zm50.692-55.682c-1.839 6.041-3.151 4.99-5.516 5.253-2.364.262-3.94-2.102-5.779-4.203-1.839.262-2.101.788-3.414 1.313 4.202 6.041 7.354 8.667 12.344 7.354 4.99-1.313 5.253-5.779 5.253-8.142-.788-.525-1.05-.788-2.889-1.576zm-4.465-7.617c-2.364.788-2.889 1.313-3.678 3.414 1.313 2.889 3.152 4.465 4.991 3.678 1.838-.788 2.101-3.94 1.05-4.728-1.05-.788-.525-1.313-2.364-2.364z"/><polygon points="566.56 405.84 531.24 380.29 496.09 406.19 509.47 364.69 473.98 339.27 517.58 339.17 530.8 297.57 544.36 339 588.01 338.71 552.8 364.41" transform="matrix(.722 0 0 .722 -386.72 -1.955)"/><polygon points="566.56 405.84 531.24 380.29 496.09 406.19 509.47 364.69 473.98 339.27 517.58 339.17 530.8 297.57 544.36 339 588.01 338.71 552.8 364.41" transform="matrix(.722 0 0 .722 -130.37 -1.954)"/></g></svg>