<svg xmlns="http://www.w3.org/2000/svg" id="flag-icon-css-ir" width="512" height="512">
  <defs>
    <clipPath id="a">
      <path fill-opacity=".67" d="M185.98 0h496.06v496.06H185.98z"/>
    </clipPath>
  </defs>
  <g fill-rule="evenodd" clip-path="url(#a)" transform="translate(-191.96) scale(1.0321)">
    <path fill="#fff" d="M0 0h868.11v496.06H0z"/>
    <path fill="#da0000" d="M0 333.13h868.11v162.93H0z"/>
    <g fill="#fff" stroke-width="1pt">
      <path d="M165.03 340.04h47.54v3.27h-47.54zm7.08 16.35h3.27v3.18h-3.27zm40.58-.1v3.27h-9.5v-3.27zm5.11-16.25h3.27v19.53h-3.27z"/>
      <path d="M236.73 356.29v3.27h-18v-3.27zm-33.54-7.64h3.27v10.92h-3.27z"/>
      <path d="M234.05 340.04h3.27v19.53h-3.27zm-8.18 0h3.27v19.53h-3.27zm-43.4 7.77v3.27H165.1v-3.27zm38.07 0v3.27H203.2v-3.27z"/>
      <path d="M203.19 348.65h3.27v10.92h-3.27z"/>
      <path d="M203.19 348.65h3.27v10.92h-3.27z"/>
      <path d="M203.19 348.65h3.27v10.92h-3.27zm-38.08 0h3.27v10.92h-3.27zm27.91 0h3.27v10.92h-3.27zm-13.82 0h3.27v10.92h-3.27z"/>
      <path d="M195.32 356.29v3.27h-14.67v-3.27zm.97-8.48v3.27H187v-3.27z"/>
    </g>
    <g fill="#fff" stroke-width="1pt">
      <path d="M86.94 340.04h47.54v3.27H86.94zm7.09 16.35h3.27v3.18h-3.27zm40.58-.1v3.27h-9.5v-3.27zm5.1-16.25H143v19.53h-3.27z"/>
      <path d="M158.64 356.29v3.27h-18v-3.27zm-33.53-7.64h3.27v10.92h-3.27z"/>
      <path d="M155.97 340.04h3.27v19.53h-3.28zm-8.18 0h3.27v19.53h-3.27zm-43.4 7.77v3.27H87.02v-3.27zm38.07 0v3.27H125.1v-3.27z"/>
      <path d="M125.1 348.65h3.28v10.92h-3.27z"/>
      <path d="M125.1 348.65h3.28v10.92h-3.27z"/>
      <path d="M125.1 348.65h3.28v10.92h-3.27zm-38.07 0h3.27v10.92h-3.27zm27.9 0h3.28v10.92h-3.27zm-13.82 0h3.27v10.92h-3.27z"/>
      <path d="M117.23 356.29v3.27h-14.66v-3.27zm.98-8.48v3.27h-9.3v-3.27z"/>
    </g>
    <g fill="#fff" stroke-width="1pt">
      <path d="M242.47 340.04H290v3.27h-47.55zm7.08 16.35h3.27v3.18h-3.27zm40.58-.1v3.27h-9.5v-3.27zm5.11-16.25h3.27v19.53h-3.27z"/>
      <path d="M314.17 356.29v3.27h-18v-3.27zm-33.54-7.64h3.27v10.92h-3.27z"/>
      <path d="M311.49 340.04h3.27v19.53h-3.27zm-8.18 0h3.27v19.53h-3.27zm-43.4 7.77v3.27h-17.36v-3.27zm38.07 0v3.27h-17.35v-3.27z"/>
      <path d="M280.63 348.65h3.27v10.92h-3.27z"/>
      <path d="M280.63 348.65h3.27v10.92h-3.27z"/>
      <path d="M280.63 348.65h3.27v10.92h-3.27zm-38.08 0h3.27v10.92h-3.27zm27.91 0h3.28v10.92h-3.28zm-13.82 0h3.27v10.92h-3.27z"/>
      <path d="M272.76 356.29v3.27h-14.67v-3.27zm.98-8.48v3.27h-9.3v-3.27z"/>
    </g>
    <g fill="#fff" stroke-width="1pt">
      <path d="M789.27 340.04h47.55v3.27h-47.55zm7.1 16.35h3.27v3.18h-3.28zm40.57-.1v3.27h-9.5v-3.27zm5.11-16.25h3.27v19.53h-3.27z"/>
      <path d="M860.98 356.29v3.27h-18v-3.27zm-33.54-7.64h3.27v10.92h-3.27z"/>
      <path d="M858.3 340.04h3.27v19.53h-3.27zm-8.18 0h3.27v19.53h-3.27zm-43.4 7.77v3.27h-17.36v-3.27zm38.07 0v3.27h-17.35v-3.27z"/>
      <path d="M827.44 348.65h3.27v10.92h-3.27z"/>
      <path d="M827.44 348.65h3.27v10.92h-3.27z"/>
      <path d="M827.44 348.65h3.27v10.92h-3.27zm-38.08 0h3.28v10.92h-3.28zm27.91 0h3.28v10.92h-3.28zm-13.82 0h3.27v10.92h-3.27z"/>
      <path d="M819.57 356.29v3.27H804.9v-3.27zm.97-8.48v3.27h-9.3v-3.27z"/>
    </g>
    <g fill="#fff" stroke-width="1pt">
      <path d="M320.4 340.04h47.55v3.27H320.4zm7.1 16.35h3.26v3.18h-3.27zm40.57-.1v3.27h-9.5v-3.27zm5.11-16.25h3.27v19.53h-3.27z"/>
      <path d="M392.1 356.29v3.27h-18v-3.27zm-33.53-7.64h3.27v10.92h-3.27z"/>
      <path d="M389.43 340.04h3.27v19.53h-3.27zm-8.18 0h3.27v19.53h-3.27zm-43.4 7.77v3.27h-17.36v-3.27zm38.07 0v3.27h-17.35v-3.27z"/>
      <path d="M358.57 348.65h3.27v10.92h-3.27z"/>
      <path d="M358.57 348.65h3.27v10.92h-3.27z"/>
      <path d="M358.57 348.65h3.27v10.92h-3.27zm-38.08 0h3.27v10.92h-3.27zm27.91 0h3.27v10.92h-3.27zm-13.82 0h3.27v10.92h-3.27z"/>
      <path d="M350.7 356.29v3.27h-14.67v-3.27zm.98-8.48v3.27h-9.3v-3.27z"/>
    </g>
    <g fill="#fff" stroke-width="1pt">
      <path d="M398.63 340.04h47.54v3.27h-47.55zm7.08 16.35H409v3.18h-3.28zm40.58-.1v3.27h-9.5v-3.27zm5.11-16.25h3.27v19.53h-3.27z"/>
      <path d="M470.33 356.29v3.27h-18v-3.27zm-33.54-7.64h3.27v10.92h-3.27z"/>
      <path d="M467.65 340.04h3.27v19.53h-3.27zm-8.18 0h3.27v19.53h-3.27zm-43.4 7.77v3.27H398.7v-3.27zm38.07 0v3.27H436.8v-3.27z"/>
      <path d="M436.79 348.65h3.27v10.92h-3.27z"/>
      <path d="M436.79 348.65h3.27v10.92h-3.27z"/>
      <path d="M436.79 348.65h3.27v10.92h-3.27zm-38.08 0H402v10.92h-3.28zm27.91 0h3.27v10.92h-3.27zm-13.82 0h3.27v10.92h-3.27z"/>
      <path d="M428.92 356.29v3.27h-14.67v-3.27zm.97-8.48v3.27h-9.3v-3.27z"/>
    </g>
    <path fill="#239f40" d="M0 0h868.11v162.93H0z"/>
    <g fill="#fff" stroke-width="1pt">
      <path d="M477.3 340.04h47.55v3.27H477.3zm7.1 16.35h3.27v3.18h-3.28zm40.57-.1v3.27h-9.5v-3.27zm5.11-16.25h3.27v19.53h-3.27z"/>
      <path d="M549 356.29v3.27h-18v-3.27zm-33.53-7.64h3.27v10.92h-3.27z"/>
      <path d="M546.33 340.04h3.27v19.53h-3.27zm-8.18 0h3.27v19.53h-3.27zm-43.4 7.77v3.27h-17.36v-3.27zm38.07 0v3.27h-17.35v-3.27z"/>
      <path d="M515.47 348.65h3.27v10.92h-3.27z"/>
      <path d="M515.47 348.65h3.27v10.92h-3.27z"/>
      <path d="M515.47 348.65h3.27v10.92h-3.27zm-38.08 0h3.28v10.92h-3.28zm27.91 0h3.27v10.92h-3.27zm-13.82 0h3.27v10.92h-3.27z"/>
      <path d="M507.6 356.29v3.27h-14.67v-3.27zm.97-8.48v3.27h-9.3v-3.27z"/>
    </g>
    <g fill="#fff" stroke-width="1pt">
      <path d="M555.53 340.04h47.55v3.27h-47.55zm7.1 16.35h3.27v3.18h-3.28zm40.57-.1v3.27h-9.5v-3.27zm5.11-16.25h3.27v19.53h-3.27z"/>
      <path d="M627.24 356.29v3.27h-18v-3.27zm-33.54-7.64h3.27v10.92h-3.27z"/>
      <path d="M624.56 340.04h3.27v19.53h-3.27zm-8.18 0h3.27v19.53h-3.27zm-43.4 7.77v3.27h-17.36v-3.27zm38.07 0v3.27H593.7v-3.27z"/>
      <path d="M593.7 348.65h3.27v10.92h-3.27z"/>
      <path d="M593.7 348.65h3.27v10.92h-3.27z"/>
      <path d="M593.7 348.65h3.27v10.92h-3.27zm-38.08 0h3.28v10.92h-3.28zm27.91 0h3.28v10.92h-3.28zm-13.82 0h3.27v10.92h-3.27z"/>
      <path d="M585.83 356.29v3.27h-14.67v-3.27zm.97-8.48v3.27h-9.3v-3.27z"/>
    </g>
    <g fill="#fff" stroke-width="1pt">
      <path d="M633.75 340.04h47.55v3.27h-47.54zm7.1 16.35h3.27v3.18h-3.28zm40.57-.1v3.27h-9.5v-3.27zm5.11-16.25h3.27v19.53h-3.27z"/>
      <path d="M705.46 356.29v3.27h-18v-3.27zm-33.54-7.64h3.27v10.92h-3.27z"/>
      <path d="M702.78 340.04h3.27v19.53h-3.27zm-8.18 0h3.27v19.53h-3.27zm-43.4 7.77v3.27h-17.36v-3.27zm38.07 0v3.27h-17.35v-3.27z"/>
      <path d="M671.92 348.65h3.27v10.92h-3.27z"/>
      <path d="M671.92 348.65h3.27v10.92h-3.27z"/>
      <path d="M671.92 348.65h3.27v10.92h-3.27zm-38.08 0h3.27v10.92h-3.27zm27.91 0h3.27v10.92h-3.27zm-13.82 0h3.27v10.92h-3.27z"/>
      <path d="M664.05 356.29v3.27h-14.67v-3.27zm.98-8.48v3.27h-9.3v-3.27z"/>
    </g>
    <g fill="#fff" stroke-width="1pt">
      <path d="M712.43 340.04h47.55v3.27h-47.55zm7.1 16.35h3.27v3.18h-3.28zm40.57-.1v3.27h-9.5v-3.27zm5.11-16.25h3.27v19.53h-3.27z"/>
      <path d="M784.14 356.29v3.27h-18v-3.27zm-33.54-7.64h3.27v10.92h-3.27z"/>
      <path d="M781.46 340.04h3.27v19.53h-3.27zm-8.18 0h3.27v19.53h-3.27zm-43.4 7.77v3.27h-17.36v-3.27zm38.07 0v3.27H750.6v-3.27z"/>
      <path d="M750.6 348.65h3.27v10.92h-3.27z"/>
      <path d="M750.6 348.65h3.27v10.92h-3.27z"/>
      <path d="M750.6 348.65h3.27v10.92h-3.27zm-38.08 0h3.28v10.92h-3.28zm27.91 0h3.28v10.92h-3.28zm-13.82 0h3.27v10.92h-3.27z"/>
      <path d="M742.73 356.29v3.27h-14.67v-3.27zm.98-8.48v3.27h-9.3v-3.27z"/>
    </g>
    <g fill="#fff" stroke-width="1pt">
      <path d="M7.92 340.04h47.54v3.27H7.92zm7.09 16.35h3.27v3.18H15zm40.57-.1v3.27h-9.5v-3.27zm5.12-16.25h3.27v19.53H60.7z"/>
      <path d="M79.62 356.29v3.27h-18v-3.27zm-33.54-7.64h3.28v10.92h-3.28z"/>
      <path d="M76.94 340.04h3.28v19.53h-3.28zm-8.17 0h3.27v19.53h-3.27zm-43.41 7.77v3.27H8.01v-3.27zm38.08 0v3.27H46.08v-3.27z"/>
      <path d="M46.08 348.65h3.28v10.92h-3.28z"/>
      <path d="M46.08 348.65h3.28v10.92h-3.28z"/>
      <path d="M46.08 348.65h3.28v10.92h-3.28zm-38.07 0h3.27v10.92H8zm27.9 0h3.28v10.92h-3.27zm-13.82 0h3.27v10.92H22.1z"/>
      <path d="M38.21 356.29v3.27H23.55v-3.27zm.98-8.48v3.27h-9.3v-3.27z"/>
    </g>
    <g fill="#fff" stroke-width="1pt">
      <path d="M165.03 138.97h47.54v3.28h-47.54zm7.08 16.36h3.27v3.18h-3.27zm40.58-.1v3.27h-9.5v-3.27zm5.11-16.25h3.27v19.53h-3.27z"/>
      <path d="M236.73 155.23v3.27h-18v-3.27zm-33.54-7.64h3.27v10.92h-3.27z"/>
      <path d="M234.05 138.97h3.27v19.54h-3.27zm-8.18 0h3.27v19.54h-3.27zm-43.4 7.78v3.27H165.1v-3.27zm38.07 0v3.27H203.2v-3.27z"/>
      <path d="M203.19 147.59h3.27v10.92h-3.27z"/>
      <path d="M203.19 147.59h3.27v10.92h-3.27z"/>
      <path d="M203.19 147.59h3.27v10.92h-3.27zm-38.08 0h3.27v10.92h-3.27zm27.91 0h3.27v10.92h-3.27zm-13.82 0h3.27v10.92h-3.27z"/>
      <path d="M195.32 155.23v3.27h-14.67v-3.27zm.97-8.48v3.27H187v-3.27z"/>
    </g>
    <g fill="#fff" stroke-width="1pt">
      <path d="M86.94 138.97h47.54v3.28H86.94zm7.09 16.36h3.27v3.18h-3.27zm40.58-.1v3.27h-9.5v-3.27zm5.1-16.25H143v19.53h-3.27z"/>
      <path d="M158.64 155.23v3.27h-18v-3.27zm-33.53-7.64h3.27v10.92h-3.27z"/>
      <path d="M155.97 138.97h3.27v19.54h-3.28zm-8.18 0h3.27v19.54h-3.27zm-43.4 7.78v3.27H87.02v-3.27zm38.07 0v3.27H125.1v-3.27z"/>
      <path d="M125.1 147.59h3.28v10.92h-3.27z"/>
      <path d="M125.1 147.59h3.28v10.92h-3.27z"/>
      <path d="M125.1 147.59h3.28v10.92h-3.27zm-38.07 0h3.27v10.92h-3.27zm27.9 0h3.28v10.92h-3.27zm-13.82 0h3.27v10.92h-3.27z"/>
      <path d="M117.23 155.23v3.27h-14.66v-3.27zm.98-8.48v3.27h-9.3v-3.27z"/>
    </g>
    <g fill="#fff" stroke-width="1pt">
      <path d="M242.47 138.97H290v3.28h-47.55zm7.08 16.36h3.27v3.18h-3.27zm40.58-.1v3.27h-9.5v-3.27zm5.11-16.25h3.27v19.53h-3.27z"/>
      <path d="M314.17 155.23v3.27h-18v-3.27zm-33.54-7.64h3.27v10.92h-3.27z"/>
      <path d="M311.49 138.97h3.27v19.54h-3.27zm-8.18 0h3.27v19.54h-3.27zm-43.4 7.78v3.27h-17.36v-3.27zm38.07 0v3.27h-17.35v-3.27z"/>
      <path d="M280.63 147.59h3.27v10.92h-3.27z"/>
      <path d="M280.63 147.59h3.27v10.92h-3.27z"/>
      <path d="M280.63 147.59h3.27v10.92h-3.27zm-38.08 0h3.27v10.92h-3.27zm27.91 0h3.28v10.92h-3.28zm-13.82 0h3.27v10.92h-3.27z"/>
      <path d="M272.76 155.23v3.27h-14.67v-3.27zm.98-8.48v3.27h-9.3v-3.27z"/>
    </g>
    <g fill="#fff" stroke-width="1pt">
      <path d="M789.27 138.97h47.55v3.28h-47.55zm7.1 16.36h3.27v3.18h-3.28zm40.57-.1v3.27h-9.5v-3.27zm5.11-16.25h3.27v19.53h-3.27z"/>
      <path d="M860.98 155.23v3.27h-18v-3.27zm-33.54-7.64h3.27v10.92h-3.27z"/>
      <path d="M858.3 138.97h3.27v19.54h-3.27zm-8.18 0h3.27v19.54h-3.27zm-43.4 7.78v3.27h-17.36v-3.27zm38.07 0v3.27h-17.35v-3.27z"/>
      <path d="M827.44 147.59h3.27v10.92h-3.27z"/>
      <path d="M827.44 147.59h3.27v10.92h-3.27z"/>
      <path d="M827.44 147.59h3.27v10.92h-3.27zm-38.08 0h3.28v10.92h-3.28zm27.91 0h3.28v10.92h-3.28zm-13.82 0h3.27v10.92h-3.27z"/>
      <path d="M819.57 155.23v3.27H804.9v-3.27zm.97-8.48v3.27h-9.3v-3.27z"/>
    </g>
    <g fill="#fff" stroke-width="1pt">
      <path d="M320.4 138.97h47.55v3.28H320.4zm7.1 16.36h3.26v3.18h-3.27zm40.57-.1v3.27h-9.5v-3.27zm5.11-16.25h3.27v19.53h-3.27z"/>
      <path d="M392.1 155.23v3.27h-18v-3.27zm-33.53-7.64h3.27v10.92h-3.27z"/>
      <path d="M389.43 138.97h3.27v19.54h-3.27zm-8.18 0h3.27v19.54h-3.27zm-43.4 7.78v3.27h-17.36v-3.27zm38.07 0v3.27h-17.35v-3.27z"/>
      <path d="M358.57 147.59h3.27v10.92h-3.27z"/>
      <path d="M358.57 147.59h3.27v10.92h-3.27z"/>
      <path d="M358.57 147.59h3.27v10.92h-3.27zm-38.08 0h3.27v10.92h-3.27zm27.91 0h3.27v10.92h-3.27zm-13.82 0h3.27v10.92h-3.27z"/>
      <path d="M350.7 155.23v3.27h-14.67v-3.27zm.98-8.48v3.27h-9.3v-3.27z"/>
    </g>
    <g fill="#fff" stroke-width="1pt">
      <path d="M398.63 138.97h47.54v3.28h-47.55zm7.08 16.36H409v3.18h-3.28zm40.58-.1v3.27h-9.5v-3.27zm5.11-16.25h3.27v19.53h-3.27z"/>
      <path d="M470.33 155.23v3.27h-18v-3.27zm-33.54-7.64h3.27v10.92h-3.27z"/>
      <path d="M467.65 138.97h3.27v19.54h-3.27zm-8.18 0h3.27v19.54h-3.27zm-43.4 7.78v3.27H398.7v-3.27zm38.07 0v3.27H436.8v-3.27z"/>
      <path d="M436.79 147.59h3.27v10.92h-3.27z"/>
      <path d="M436.79 147.59h3.27v10.92h-3.27z"/>
      <path d="M436.79 147.59h3.27v10.92h-3.27zm-38.08 0H402v10.92h-3.28zm27.91 0h3.27v10.92h-3.27zm-13.82 0h3.27v10.92h-3.27z"/>
      <path d="M428.92 155.23v3.27h-14.67v-3.27zm.97-8.48v3.27h-9.3v-3.27z"/>
    </g>
    <g fill="#fff" stroke-width="1pt">
      <path d="M477.3 138.97h47.55v3.28H477.3zm7.1 16.36h3.27v3.18h-3.28zm40.57-.1v3.27h-9.5v-3.27zm5.11-16.25h3.27v19.53h-3.27z"/>
      <path d="M549 155.23v3.27h-18v-3.27zm-33.53-7.64h3.27v10.92h-3.27z"/>
      <path d="M546.33 138.97h3.27v19.54h-3.27zm-8.18 0h3.27v19.54h-3.27zm-43.4 7.78v3.27h-17.36v-3.27zm38.07 0v3.27h-17.35v-3.27z"/>
      <path d="M515.47 147.59h3.27v10.92h-3.27z"/>
      <path d="M515.47 147.59h3.27v10.92h-3.27z"/>
      <path d="M515.47 147.59h3.27v10.92h-3.27zm-38.08 0h3.28v10.92h-3.28zm27.91 0h3.27v10.92h-3.27zm-13.82 0h3.27v10.92h-3.27z"/>
      <path d="M507.6 155.23v3.27h-14.67v-3.27zm.97-8.48v3.27h-9.3v-3.27z"/>
    </g>
    <g fill="#fff" stroke-width="1pt">
      <path d="M555.53 138.97h47.55v3.28h-47.55zm7.1 16.36h3.27v3.18h-3.28zm40.57-.1v3.27h-9.5v-3.27zm5.11-16.25h3.27v19.53h-3.27z"/>
      <path d="M627.24 155.23v3.27h-18v-3.27zm-33.54-7.64h3.27v10.92h-3.27z"/>
      <path d="M624.56 138.97h3.27v19.54h-3.27zm-8.18 0h3.27v19.54h-3.27zm-43.4 7.78v3.27h-17.36v-3.27zm38.07 0v3.27H593.7v-3.27z"/>
      <path d="M593.7 147.59h3.27v10.92h-3.27z"/>
      <path d="M593.7 147.59h3.27v10.92h-3.27z"/>
      <path d="M593.7 147.59h3.27v10.92h-3.27zm-38.08 0h3.28v10.92h-3.28zm27.91 0h3.28v10.92h-3.28zm-13.82 0h3.27v10.92h-3.27z"/>
      <path d="M585.83 155.23v3.27h-14.67v-3.27zm.97-8.48v3.27h-9.3v-3.27z"/>
    </g>
    <g fill="#fff" stroke-width="1pt">
      <path d="M633.75 138.97h47.55v3.28h-47.54zm7.1 16.36h3.27v3.18h-3.28zm40.57-.1v3.27h-9.5v-3.27zm5.11-16.25h3.27v19.53h-3.27z"/>
      <path d="M705.46 155.23v3.27h-18v-3.27zm-33.54-7.64h3.27v10.92h-3.27z"/>
      <path d="M702.78 138.97h3.27v19.54h-3.27zm-8.18 0h3.27v19.54h-3.27zm-43.4 7.78v3.27h-17.36v-3.27zm38.07 0v3.27h-17.35v-3.27z"/>
      <path d="M671.92 147.59h3.27v10.92h-3.27z"/>
      <path d="M671.92 147.59h3.27v10.92h-3.27z"/>
      <path d="M671.92 147.59h3.27v10.92h-3.27zm-38.08 0h3.27v10.92h-3.27zm27.91 0h3.27v10.92h-3.27zm-13.82 0h3.27v10.92h-3.27z"/>
      <path d="M664.05 155.23v3.27h-14.67v-3.27zm.98-8.48v3.27h-9.3v-3.27z"/>
    </g>
    <g fill="#fff" stroke-width="1pt">
      <path d="M712.43 138.97h47.55v3.28h-47.55zm7.1 16.36h3.27v3.18h-3.28zm40.57-.1v3.27h-9.5v-3.27zm5.11-16.25h3.27v19.53h-3.27z"/>
      <path d="M784.14 155.23v3.27h-18v-3.27zm-33.54-7.64h3.27v10.92h-3.27z"/>
      <path d="M781.46 138.97h3.27v19.54h-3.27zm-8.18 0h3.27v19.54h-3.27zm-43.4 7.78v3.27h-17.36v-3.27zm38.07 0v3.27H750.6v-3.27z"/>
      <path d="M750.6 147.59h3.27v10.92h-3.27z"/>
      <path d="M750.6 147.59h3.27v10.92h-3.27z"/>
      <path d="M750.6 147.59h3.27v10.92h-3.27zm-38.08 0h3.28v10.92h-3.28zm27.91 0h3.28v10.92h-3.28zm-13.82 0h3.27v10.92h-3.27z"/>
      <path d="M742.73 155.23v3.27h-14.67v-3.27zm.98-8.48v3.27h-9.3v-3.27z"/>
    </g>
    <g fill="#fff" stroke-width="1pt">
      <path d="M7.92 138.97h47.54v3.28H7.92zm7.09 16.36h3.27v3.18H15zm40.57-.1v3.27h-9.5v-3.27zm5.12-16.25h3.27v19.53H60.7z"/>
      <path d="M79.62 155.23v3.27h-18v-3.27zm-33.54-7.64h3.28v10.92h-3.28z"/>
      <path d="M76.94 138.97h3.28v19.54h-3.28zm-8.17 0h3.27v19.54h-3.27zm-43.41 7.78v3.27H8.01v-3.27zm38.08 0v3.27H46.08v-3.27z"/>
      <path d="M46.08 147.59h3.28v10.92h-3.28z"/>
      <path d="M46.08 147.59h3.28v10.92h-3.28z"/>
      <path d="M46.08 147.59h3.28v10.92h-3.28zm-38.07 0h3.27v10.92H8zm27.9 0h3.28v10.92h-3.27zm-13.82 0h3.27v10.92H22.1z"/>
      <path d="M38.21 155.23v3.27H23.55v-3.27zm.98-8.48v3.27h-9.3v-3.27z"/>
    </g>
    <path fill="#d90000" stroke-width="1pt" d="M119.3 328.94h5.86v10.18h-5.86zm155.54 0h5.86v10.18h-5.86zm-274.88 0h5.86v10.18H-.04zm78.94 0h5.86v10.18H78.9zm78.38 0h5.86v10.18h-5.86zm38.78 0h5.86v10.18h-5.86zm39.59 0h5.86v10.18h-5.86zm77.97 0h5.86v10.18h-5.86zm196.74 0h5.86v10.18h-5.86zm-157.15 0h5.86v10.18h-5.86zm38.79 0h5.86v10.18H392zm39.18 0h5.86v10.18h-5.86zm39.19 0h5.86v10.18h-5.86zm313.09 0h5.86v10.18h-5.86zm-235.12 0h5.86v10.18h-5.86zm39.59 0h5.86v10.18h-5.86zm40 0h5.86v10.18h-5.86zm37.57 0h5.86v10.18h-5.86zm39.99 0h5.86v10.18h-5.86zm39.19 0h5.86v10.18h-5.86zm115.95 0h5.86v10.18h-5.86zm-37.57 0h5.86v10.18h-5.86zm-783.75 0h5.86v10.18H39.3z"/>
    <path fill="#239e3f" stroke-width="1pt" d="M119.3 157.55h5.86v10.18h-5.86zm155.54 0h5.86v10.18h-5.86zm-274.88 0h5.86v10.18H-.04zm78.94 0h5.86v10.18H78.9zm78.38 0h5.86v10.18h-5.86zm38.78 0h5.86v10.18h-5.86zm39.59 0h5.86v10.18h-5.86zm77.97 0h5.86v10.18h-5.86zm196.74 0h5.86v10.18h-5.86zm-157.15 0h5.86v10.18h-5.86zm38.79 0h5.86v10.18H392zm39.18 0h5.86v10.18h-5.86zm39.19 0h5.86v10.18h-5.86zm313.09 0h5.86v10.18h-5.86zm-235.12 0h5.86v10.18h-5.86zm39.59 0h5.86v10.18h-5.86zm40 0h5.86v10.18h-5.86zm37.57 0h5.86v10.18h-5.86zm39.99 0h5.86v10.18h-5.86zm39.19 0h5.86v10.18h-5.86zm115.95 0h5.86v10.18h-5.86zm-37.57 0h5.86v10.18h-5.86zm-783.75 0h5.86v10.18H39.3z"/>
    <g fill="#da0000">
      <path d="M457.08 191.36c8.19 10.04 33.44 65.55-15.24 101.91-22.89 17.22-8.72 18.1-8.04 20.99 36.79-19.54 48.8-46.02 48.52-69.73-.28-23.71-12.85-44.67-25.24-53.17z"/>
      <path d="M461.95 188.78c18.17 9.3 57.7 56.08 15.15 108.85 26.44-5.87 60.05-83.73-15.15-108.85zm-55.8 0c-18.16 9.3-57.7 56.08-15.14 108.85-26.44-5.87-60.05-83.73 15.15-108.85z"/>
      <path d="M410.96 191.36c-8.2 10.04-33.44 65.55 15.24 101.91 22.88 17.22 8.71 18.1 8.04 20.99-36.79-19.54-48.8-46.02-48.52-69.73.28-23.71 12.85-44.67 25.24-53.17z"/>
      <path d="M480.72 309.2c-14.4.23-32.55-1.98-46.01-8.98 2.22 4.31 4.06 7.03 6.28 11.34 12.83 1.18 30.55 2.65 39.73-2.36zm-92.02 0c14.4.23 32.55-1.98 46-8.98-2.2 4.31-4.05 7.03-6.27 11.34-12.84 1.18-30.55 2.65-39.73-2.36zm26.4-134.4c2.93 7.75 10.58 8.88 18.77 4.31 5.97 3.59 15.2 3.81 18.39-3.94 2.42 19.17-17.74 14.64-18.49 10.89-7.5 7.25-21.47 3.06-18.66-11.26z"/>
      <path d="M434.4 321.27l7.58-8.65 1.08-116.44-9.01-7.93-9.01 7.57 1.8 117.16 7.57 8.29z"/>
    </g>
  </g>
</svg>
