<svg xmlns="http://www.w3.org/2000/svg" height="512" width="512">
    <g clip-path="url(#a)" fill-rule="evenodd">
        <path fill="#fff" d="M-191.96 0h895.976v511.984h-895.976z"/>
        <path fill="#da0000" d="M-191.96 343.823h895.976v168.16h-895.976z"/>
        <g fill="#fff">
            <path d="M-21.626 351.019h49.079v3.377h-49.079z"/>
            <path d="M-14.309 367.907h3.377v3.28h-3.377z"/>
            <path d="M27.581 367.8v3.377h-9.809v-3.377z"/>
            <path d="M32.857 351.019h3.377v20.164h-3.377z"/>
            <path d="M52.395 367.8v3.377h-18.588v-3.377z"/>
            <path d="M17.772 359.911h3.377v11.272h-3.377z"/>
            <path d="M49.63 351.019h3.377v20.164h-3.377z"/>
            <path d="M41.186 351.019h3.377v20.164h-3.377z"/>
            <path d="M-3.621 359.045v3.377h-17.913v-3.377z"/>
            <path d="M35.685 359.045v3.377h-17.913v-3.377z"/>
            <path d="M17.772 359.911h3.377v11.272h-3.377z"/>
            <path d="M17.772 359.911h3.377v11.272h-3.377z"/>
            <path d="M17.772 359.911h3.377v11.272h-3.377z"/>
            <path d="M-21.536 359.911h3.377v11.272h-3.377z"/>
            <path d="M7.277 359.911h3.377v11.272h-3.377z"/>
            <path d="M-6.998 359.911h3.377v11.272h-3.377z"/>
            <path d="M9.646 367.8v3.377h-15.142v-3.377z"/>
            <path d="M10.654 359.045v3.377h-9.6v-3.377z"/>
        </g>
        <g fill="#fff">
            <path d="M-102.218 351.019h49.079v3.377h-49.079z"/>
            <path d="M-94.901 367.907h3.377v3.28h-3.377z"/>
            <path d="M-53.011 367.8v3.377h-9.809v-3.377z"/>
            <path d="M-47.735 351.019h3.377v20.164h-3.377z"/>
            <path d="M-28.197 367.8v3.377h-18.588v-3.377z"/>
            <path d="M-62.82 359.911h3.377v11.272h-3.377z"/>
            <path d="M-30.962 351.019h3.377v20.164h-3.377z"/>
            <path d="M-39.406 351.019h3.377v20.164h-3.377z"/>
            <path d="M-84.213 359.045v3.377h-17.913v-3.377z"/>
            <path d="M-44.907 359.045v3.377h-17.913v-3.377z"/>
            <path d="M-62.82 359.911h3.377v11.272h-3.377z"/>
            <path d="M-62.82 359.911h3.377v11.272h-3.377z"/>
            <path d="M-62.82 359.911h3.377v11.272h-3.377z"/>
            <path d="M-102.128 359.911h3.377v11.272h-3.377z"/>
            <path d="M-73.315 359.911h3.377v11.272h-3.377z"/>
            <path d="M-87.59 359.911h3.377v11.272h-3.377z"/>
            <path d="M-70.946 367.8v3.377h-15.142v-3.377z"/>
            <path d="M-69.938 359.045v3.377h-9.6v-3.377z"/>
        </g>
        <g fill="#fff">
            <path d="M58.3 351.019h49.079v3.377h-49.079z"/>
            <path d="M65.617 367.907h3.377v3.28h-3.377z"/>
            <path d="M107.507 367.8v3.377h-9.809v-3.377z"/>
            <path d="M112.783 351.019h3.377v20.164h-3.377z"/>
            <path d="M132.321 367.8v3.377h-18.588v-3.377z"/>
            <path d="M97.698 359.911h3.377v11.272h-3.377z"/>
            <path d="M129.556 351.019h3.377v20.164h-3.377z"/>
            <path d="M121.112 351.019h3.377v20.164h-3.377z"/>
            <path d="M76.305 359.045v3.377h-17.913v-3.377z"/>
            <path d="M115.611 359.045v3.377h-17.913v-3.377z"/>
            <path d="M97.698 359.911h3.377v11.272h-3.377z"/>
            <path d="M97.698 359.911h3.377v11.272h-3.377z"/>
            <path d="M97.698 359.911h3.377v11.272h-3.377z"/>
            <path d="M58.39 359.911h3.377v11.272h-3.377z"/>
            <path d="M87.203 359.911h3.377v11.272h-3.377z"/>
            <path d="M72.928 359.911h3.377v11.272h-3.377z"/>
            <path d="M89.572 367.8v3.377h-15.142v-3.377z"/>
            <path d="M90.58 359.045v3.377h-9.6v-3.377z"/>
        </g>
        <g fill="#fff">
            <path d="M622.662 351.019h49.079v3.377h-49.079z"/>
            <path d="M629.979 367.907h3.377v3.28h-3.377z"/>
            <path d="M671.869 367.8v3.377h-9.809v-3.377z"/>
            <path d="M677.145 351.019h3.377v20.164h-3.377z"/>
            <path d="M696.683 367.8v3.377h-18.588v-3.377z"/>
            <path d="M662.06 359.911h3.377v11.272h-3.377z"/>
            <path d="M693.918 351.019h3.377v20.164h-3.377z"/>
            <path d="M685.474 351.019h3.377v20.164h-3.377z"/>
            <path d="M640.667 359.045v3.377h-17.913v-3.377z"/>
            <path d="M679.973 359.045v3.377h-17.913v-3.377z"/>
            <path d="M662.06 359.911h3.377v11.272h-3.377z"/>
            <path d="M662.06 359.911h3.377v11.272h-3.377z"/>
            <path d="M662.06 359.911h3.377v11.272h-3.377z"/>
            <path d="M622.752 359.911h3.377v11.272h-3.377z"/>
            <path d="M651.565 359.911h3.377v11.272h-3.377z"/>
            <path d="M637.29 359.911h3.377v11.272h-3.377z"/>
            <path d="M653.934 367.8v3.377h-15.142v-3.377z"/>
            <path d="M654.942 359.045v3.377h-9.6v-3.377z"/>
        </g>
        <g fill="#fff">
            <path d="M138.741 351.019h49.079v3.377h-49.079z"/>
            <path d="M146.058 367.907h3.377v3.28h-3.377z"/>
            <path d="M187.948 367.8v3.377h-9.809v-3.377z"/>
            <path d="M193.224 351.019h3.377v20.164h-3.377z"/>
            <path d="M212.762 367.8v3.377h-18.588v-3.377z"/>
            <path d="M178.139 359.911h3.377v11.272h-3.377z"/>
            <path d="M209.997 351.019h3.377v20.164h-3.377z"/>
            <path d="M201.553 351.019h3.377v20.164h-3.377z"/>
            <path d="M156.746 359.045v3.377h-17.913v-3.377z"/>
            <path d="M196.052 359.045v3.377h-17.913v-3.377z"/>
            <path d="M178.139 359.911h3.377v11.272h-3.377z"/>
            <path d="M178.139 359.911h3.377v11.272h-3.377z"/>
            <path d="M178.139 359.911h3.377v11.272h-3.377z"/>
            <path d="M138.831 359.911h3.377v11.272h-3.377z"/>
            <path d="M167.644 359.911h3.377v11.272h-3.377z"/>
            <path d="M153.369 359.911h3.377v11.272h-3.377z"/>
            <path d="M170.013 367.8v3.377h-15.142v-3.377z"/>
            <path d="M171.021 359.045v3.377h-9.6v-3.377z"/>
        </g>
        <g fill="#fff">
            <path d="M219.472 351.019h49.079v3.377h-49.079z"/>
            <path d="M226.789 367.907h3.377v3.28h-3.377z"/>
            <path d="M268.679 367.8v3.377h-9.809v-3.377z"/>
            <path d="M273.955 351.019h3.377v20.164h-3.377z"/>
            <path d="M293.493 367.8v3.377h-18.588v-3.377z"/>
            <path d="M258.87 359.911h3.377v11.272h-3.377z"/>
            <path d="M290.728 351.019h3.377v20.164h-3.377z"/>
            <path d="M282.284 351.019h3.377v20.164h-3.377z"/>
            <path d="M237.477 359.045v3.377h-17.913v-3.377z"/>
            <path d="M276.783 359.045v3.377h-17.913v-3.377z"/>
            <path d="M258.87 359.911h3.377v11.272h-3.377z"/>
            <path d="M258.87 359.911h3.377v11.272h-3.377z"/>
            <path d="M258.87 359.911h3.377v11.272h-3.377z"/>
            <path d="M219.562 359.911h3.377v11.272h-3.377z"/>
            <path d="M248.375 359.911h3.377v11.272h-3.377z"/>
            <path d="M234.1 359.911h3.377v11.272h-3.377z"/>
            <path d="M250.744 367.8v3.377h-15.142v-3.377z"/>
            <path d="M251.752 359.045v3.377h-9.6v-3.377z"/>
        </g>
        <path fill="#239f40" d="M-191.96 0h895.976v168.16h-895.976z"/>
        <g fill="#fff">
            <path d="M300.678 351.019h49.079v3.377h-49.079z"/>
            <path d="M307.995 367.907h3.377v3.28h-3.377z"/>
            <path d="M349.885 367.8v3.377h-9.809v-3.377z"/>
            <path d="M355.161 351.019h3.377v20.164h-3.377z"/>
            <path d="M374.699 367.8v3.377h-18.588v-3.377z"/>
            <path d="M340.076 359.911h3.377v11.272h-3.377z"/>
            <path d="M371.934 351.019h3.377v20.164h-3.377z"/>
            <path d="M363.49 351.019h3.377v20.164h-3.377z"/>
            <path d="M318.683 359.045v3.377h-17.913v-3.377z"/>
            <path d="M357.989 359.045v3.377h-17.913v-3.377z"/>
            <path d="M340.076 359.911h3.377v11.272h-3.377z"/>
            <path d="M340.076 359.911h3.377v11.272h-3.377z"/>
            <path d="M340.076 359.911h3.377v11.272h-3.377z"/>
            <path d="M300.768 359.911h3.377v11.272h-3.377z"/>
            <path d="M329.581 359.911h3.377v11.272h-3.377z"/>
            <path d="M315.306 359.911h3.377v11.272h-3.377z"/>
            <path d="M331.95 367.8v3.377h-15.142v-3.377z"/>
            <path d="M332.958 359.045v3.377h-9.6v-3.377z"/>
        </g>
        <g fill="#fff">
            <path d="M381.419 351.019h49.079v3.377h-49.079z"/>
            <path d="M388.736 367.907h3.377v3.28h-3.377z"/>
            <path d="M430.626 367.8v3.377h-9.809v-3.377z"/>
            <path d="M435.902 351.019h3.377v20.164h-3.377z"/>
            <path d="M455.44 367.8v3.377h-18.588v-3.377z"/>
            <path d="M420.817 359.911h3.377v11.272h-3.377z"/>
            <path d="M452.675 351.019h3.377v20.164h-3.377z"/>
            <path d="M444.231 351.019h3.377v20.164h-3.377z"/>
            <path d="M399.424 359.045v3.377h-17.913v-3.377z"/>
            <path d="M438.73 359.045v3.377h-17.913v-3.377z"/>
            <path d="M420.817 359.911h3.377v11.272h-3.377z"/>
            <path d="M420.817 359.911h3.377v11.272h-3.377z"/>
            <path d="M420.817 359.911h3.377v11.272h-3.377z"/>
            <path d="M381.509 359.911h3.377v11.272h-3.377z"/>
            <path d="M410.322 359.911h3.377v11.272h-3.377z"/>
            <path d="M396.047 359.911h3.377v11.272h-3.377z"/>
            <path d="M412.691 367.8v3.377h-15.142v-3.377z"/>
            <path d="M413.699 359.045v3.377h-9.6v-3.377z"/>
        </g>
        <g fill="#fff">
            <path d="M462.15 351.019h49.079v3.377h-49.079z"/>
            <path d="M469.467 367.907h3.377v3.28h-3.377z"/>
            <path d="M511.357 367.8v3.377h-9.809v-3.377z"/>
            <path d="M516.633 351.019h3.377v20.164h-3.377z"/>
            <path d="M536.171 367.8v3.377h-18.588v-3.377z"/>
            <path d="M501.548 359.911h3.377v11.272h-3.377z"/>
            <path d="M533.406 351.019h3.377v20.164h-3.377z"/>
            <path d="M524.962 351.019h3.377v20.164h-3.377z"/>
            <path d="M480.155 359.045v3.377h-17.913v-3.377z"/>
            <path d="M519.461 359.045v3.377h-17.913v-3.377z"/>
            <path d="M501.548 359.911h3.377v11.272h-3.377z"/>
            <path d="M501.548 359.911h3.377v11.272h-3.377z"/>
            <path d="M501.548 359.911h3.377v11.272h-3.377z"/>
            <path d="M462.24 359.911h3.377v11.272h-3.377z"/>
            <path d="M491.053 359.911h3.377v11.272h-3.377z"/>
            <path d="M476.778 359.911h3.377v11.272h-3.377z"/>
            <path d="M493.422 367.8v3.377h-15.142v-3.377z"/>
            <path d="M494.43 359.045v3.377h-9.6v-3.377z"/>
        </g>
        <g fill="#fff">
            <path d="M543.356 351.019h49.079v3.377h-49.079z"/>
            <path d="M550.673 367.907h3.377v3.28h-3.377z"/>
            <path d="M592.563 367.8v3.377h-9.809v-3.377z"/>
            <path d="M597.839 351.019h3.377v20.164h-3.377z"/>
            <path d="M617.377 367.8v3.377h-18.588v-3.377z"/>
            <path d="M582.754 359.911h3.377v11.272h-3.377z"/>
            <path d="M614.612 351.019h3.377v20.164h-3.377z"/>
            <path d="M606.168 351.019h3.377v20.164h-3.377z"/>
            <path d="M561.361 359.045v3.377h-17.913v-3.377z"/>
            <path d="M600.667 359.045v3.377h-17.913v-3.377z"/>
            <path d="M582.754 359.911h3.377v11.272h-3.377z"/>
            <path d="M582.754 359.911h3.377v11.272h-3.377z"/>
            <path d="M582.754 359.911h3.377v11.272h-3.377z"/>
            <path d="M543.446 359.911h3.377v11.272h-3.377z"/>
            <path d="M572.259 359.911h3.377v11.272h-3.377z"/>
            <path d="M557.984 359.911h3.377v11.272h-3.377z"/>
            <path d="M574.628 367.8v3.377h-15.142v-3.377z"/>
            <path d="M575.636 359.045v3.377h-9.6v-3.377z"/>
        </g>
        <g fill="#fff">
            <path d="M-183.775 351.019h49.079v3.377h-49.079z"/>
            <path d="M-176.458 367.907h3.377v3.28h-3.377z"/>
            <path d="M-134.568 367.8v3.377h-9.809v-3.377z"/>
            <path d="M-129.292 351.019h3.377v20.164h-3.377z"/>
            <path d="M-109.754 367.8v3.377h-18.588v-3.377z"/>
            <path d="M-144.377 359.911h3.377v11.272h-3.377z"/>
            <path d="M-112.519 351.019h3.377v20.164h-3.377z"/>
            <path d="M-120.963 351.019h3.377v20.164h-3.377z"/>
            <path d="M-165.77 359.045v3.377h-17.913v-3.377z"/>
            <path d="M-126.464 359.045v3.377h-17.913v-3.377z"/>
            <path d="M-144.377 359.911h3.377v11.272h-3.377z"/>
            <path d="M-144.377 359.911h3.377v11.272h-3.377z"/>
            <path d="M-144.377 359.911h3.377v11.272h-3.377z"/>
            <path d="M-183.685 359.911h3.377v11.272h-3.377z"/>
            <path d="M-154.872 359.911h3.377v11.272h-3.377z"/>
            <path d="M-169.147 359.911h3.377v11.272h-3.377z"/>
            <path d="M-152.503 367.8v3.377h-15.142v-3.377z"/>
            <path d="M-151.495 359.045v3.377h-9.6v-3.377z"/>
        </g>
        <g fill="#fff">
            <path d="M-21.626 143.505h49.079v3.377h-49.079z"/>
            <path d="M-14.309 160.393h3.377v3.28h-3.377z"/>
            <path d="M27.581 160.286v3.377h-9.809v-3.377z"/>
            <path d="M32.857 143.505h3.377v20.164h-3.377z"/>
            <path d="M52.395 160.286v3.377h-18.588v-3.377z"/>
            <path d="M17.772 152.397h3.377v11.272h-3.377z"/>
            <path d="M49.63 143.505h3.377v20.164h-3.377z"/>
            <path d="M41.186 143.505h3.377v20.164h-3.377z"/>
            <path d="M-3.621 151.531v3.377h-17.913v-3.377z"/>
            <path d="M35.685 151.531v3.377h-17.913v-3.377z"/>
            <path d="M17.772 152.397h3.377v11.272h-3.377z"/>
            <path d="M17.772 152.397h3.377v11.272h-3.377z"/>
            <path d="M17.772 152.397h3.377v11.272h-3.377z"/>
            <path d="M-21.536 152.397h3.377v11.272h-3.377z"/>
            <path d="M7.277 152.397h3.377v11.272h-3.377z"/>
            <path d="M-6.998 152.397h3.377v11.272h-3.377z"/>
            <path d="M9.646 160.286v3.377h-15.142v-3.377z"/>
            <path d="M10.654 151.531v3.377h-9.6v-3.377z"/>
        </g>
        <g fill="#fff">
            <path d="M-102.218 143.505h49.079v3.377h-49.079z"/>
            <path d="M-94.901 160.393h3.377v3.28h-3.377z"/>
            <path d="M-53.011 160.286v3.377h-9.809v-3.377z"/>
            <path d="M-47.735 143.505h3.377v20.164h-3.377z"/>
            <path d="M-28.197 160.286v3.377h-18.588v-3.377z"/>
            <path d="M-62.82 152.397h3.377v11.272h-3.377z"/>
            <path d="M-30.962 143.505h3.377v20.164h-3.377z"/>
            <path d="M-39.406 143.505h3.377v20.164h-3.377z"/>
            <path d="M-84.213 151.531v3.377h-17.913v-3.377z"/>
            <path d="M-44.907 151.531v3.377h-17.913v-3.377z"/>
            <path d="M-62.82 152.397h3.377v11.272h-3.377z"/>
            <path d="M-62.82 152.397h3.377v11.272h-3.377z"/>
            <path d="M-62.82 152.397h3.377v11.272h-3.377z"/>
            <path d="M-102.128 152.397h3.377v11.272h-3.377z"/>
            <path d="M-73.315 152.397h3.377v11.272h-3.377z"/>
            <path d="M-87.59 152.397h3.377v11.272h-3.377z"/>
            <path d="M-70.946 160.286v3.377h-15.142v-3.377z"/>
            <path d="M-69.938 151.531v3.377h-9.6v-3.377z"/>
        </g>
        <g fill="#fff">
            <path d="M58.3 143.505h49.079v3.377h-49.079z"/>
            <path d="M65.617 160.393h3.377v3.28h-3.377z"/>
            <path d="M107.507 160.286v3.377h-9.809v-3.377z"/>
            <path d="M112.783 143.505h3.377v20.164h-3.377z"/>
            <path d="M132.321 160.286v3.377h-18.588v-3.377z"/>
            <path d="M97.698 152.397h3.377v11.272h-3.377z"/>
            <path d="M129.556 143.505h3.377v20.164h-3.377z"/>
            <path d="M121.112 143.505h3.377v20.164h-3.377z"/>
            <path d="M76.305 151.531v3.377h-17.913v-3.377z"/>
            <path d="M115.611 151.531v3.377h-17.913v-3.377z"/>
            <path d="M97.698 152.397h3.377v11.272h-3.377z"/>
            <path d="M97.698 152.397h3.377v11.272h-3.377z"/>
            <path d="M97.698 152.397h3.377v11.272h-3.377z"/>
            <path d="M58.39 152.397h3.377v11.272h-3.377z"/>
            <path d="M87.203 152.397h3.377v11.272h-3.377z"/>
            <path d="M72.928 152.397h3.377v11.272h-3.377z"/>
            <path d="M89.572 160.286v3.377h-15.142v-3.377z"/>
            <path d="M90.58 151.531v3.377h-9.6v-3.377z"/>
        </g>
        <g fill="#fff">
            <path d="M622.662 143.505h49.079v3.377h-49.079z"/>
            <path d="M629.979 160.393h3.377v3.28h-3.377z"/>
            <path d="M671.869 160.286v3.377h-9.809v-3.377z"/>
            <path d="M677.145 143.505h3.377v20.164h-3.377z"/>
            <path d="M696.683 160.286v3.377h-18.588v-3.377z"/>
            <path d="M662.06 152.397h3.377v11.272h-3.377z"/>
            <path d="M693.918 143.505h3.377v20.164h-3.377z"/>
            <path d="M685.474 143.505h3.377v20.164h-3.377z"/>
            <path d="M640.667 151.531v3.377h-17.913v-3.377z"/>
            <path d="M679.973 151.531v3.377h-17.913v-3.377z"/>
            <path d="M662.06 152.397h3.377v11.272h-3.377z"/>
            <path d="M662.06 152.397h3.377v11.272h-3.377z"/>
            <path d="M662.06 152.397h3.377v11.272h-3.377z"/>
            <path d="M622.752 152.397h3.377v11.272h-3.377z"/>
            <path d="M651.565 152.397h3.377v11.272h-3.377z"/>
            <path d="M637.29 152.397h3.377v11.272h-3.377z"/>
            <path d="M653.934 160.286v3.377h-15.142v-3.377z"/>
            <path d="M654.942 151.531v3.377h-9.6v-3.377z"/>
        </g>
        <g fill="#fff">
            <path d="M138.741 143.505h49.079v3.377h-49.079z"/>
            <path d="M146.058 160.393h3.377v3.28h-3.377z"/>
            <path d="M187.948 160.286v3.377h-9.809v-3.377z"/>
            <path d="M193.224 143.505h3.377v20.164h-3.377z"/>
            <path d="M212.762 160.286v3.377h-18.588v-3.377z"/>
            <path d="M178.139 152.397h3.377v11.272h-3.377z"/>
            <path d="M209.997 143.505h3.377v20.164h-3.377z"/>
            <path d="M201.553 143.505h3.377v20.164h-3.377z"/>
            <path d="M156.746 151.531v3.377h-17.913v-3.377z"/>
            <path d="M196.052 151.531v3.377h-17.913v-3.377z"/>
            <path d="M178.139 152.397h3.377v11.272h-3.377z"/>
            <path d="M178.139 152.397h3.377v11.272h-3.377z"/>
            <path d="M178.139 152.397h3.377v11.272h-3.377z"/>
            <path d="M138.831 152.397h3.377v11.272h-3.377z"/>
            <path d="M167.644 152.397h3.377v11.272h-3.377z"/>
            <path d="M153.369 152.397h3.377v11.272h-3.377z"/>
            <path d="M170.013 160.286v3.377h-15.142v-3.377z"/>
            <path d="M171.021 151.531v3.377h-9.6v-3.377z"/>
        </g>
        <g fill="#fff">
            <path d="M219.472 143.505h49.079v3.377h-49.079z"/>
            <path d="M226.789 160.393h3.377v3.28h-3.377z"/>
            <path d="M268.679 160.286v3.377h-9.809v-3.377z"/>
            <path d="M273.955 143.505h3.377v20.164h-3.377z"/>
            <path d="M293.493 160.286v3.377h-18.588v-3.377z"/>
            <path d="M258.87 152.397h3.377v11.272h-3.377z"/>
            <path d="M290.728 143.505h3.377v20.164h-3.377z"/>
            <path d="M282.284 143.505h3.377v20.164h-3.377z"/>
            <path d="M237.477 151.531v3.377h-17.913v-3.377z"/>
            <path d="M276.783 151.531v3.377h-17.913v-3.377z"/>
            <path d="M258.87 152.397h3.377v11.272h-3.377z"/>
            <path d="M258.87 152.397h3.377v11.272h-3.377z"/>
            <path d="M258.87 152.397h3.377v11.272h-3.377z"/>
            <path d="M219.562 152.397h3.377v11.272h-3.377z"/>
            <path d="M248.375 152.397h3.377v11.272h-3.377z"/>
            <path d="M234.1 152.397h3.377v11.272h-3.377z"/>
            <path d="M250.744 160.286v3.377h-15.142v-3.377z"/>
            <path d="M251.752 151.531v3.377h-9.6v-3.377z"/>
        </g>
        <g fill="#fff">
            <path d="M300.678 143.505h49.079v3.377h-49.079z"/>
            <path d="M307.995 160.393h3.377v3.28h-3.377z"/>
            <path d="M349.885 160.286v3.377h-9.809v-3.377z"/>
            <path d="M355.161 143.505h3.377v20.164h-3.377z"/>
            <path d="M374.699 160.286v3.377h-18.588v-3.377z"/>
            <path d="M340.076 152.397h3.377v11.272h-3.377z"/>
            <path d="M371.934 143.505h3.377v20.164h-3.377z"/>
            <path d="M363.49 143.505h3.377v20.164h-3.377z"/>
            <path d="M318.683 151.531v3.377h-17.913v-3.377z"/>
            <path d="M357.989 151.531v3.377h-17.913v-3.377z"/>
            <path d="M340.076 152.397h3.377v11.272h-3.377z"/>
            <path d="M340.076 152.397h3.377v11.272h-3.377z"/>
            <path d="M340.076 152.397h3.377v11.272h-3.377z"/>
            <path d="M300.768 152.397h3.377v11.272h-3.377z"/>
            <path d="M329.581 152.397h3.377v11.272h-3.377z"/>
            <path d="M315.306 152.397h3.377v11.272h-3.377z"/>
            <path d="M331.95 160.286v3.377h-15.142v-3.377z"/>
            <path d="M332.958 151.531v3.377h-9.6v-3.377z"/>
        </g>
        <g fill="#fff">
            <path d="M381.419 143.505h49.079v3.377h-49.079z"/>
            <path d="M388.736 160.393h3.377v3.28h-3.377z"/>
            <path d="M430.626 160.286v3.377h-9.809v-3.377z"/>
            <path d="M435.902 143.505h3.377v20.164h-3.377z"/>
            <path d="M455.44 160.286v3.377h-18.588v-3.377z"/>
            <path d="M420.817 152.397h3.377v11.272h-3.377z"/>
            <path d="M452.675 143.505h3.377v20.164h-3.377z"/>
            <path d="M444.231 143.505h3.377v20.164h-3.377z"/>
            <path d="M399.424 151.531v3.377h-17.913v-3.377z"/>
            <path d="M438.73 151.531v3.377h-17.913v-3.377z"/>
            <path d="M420.817 152.397h3.377v11.272h-3.377z"/>
            <path d="M420.817 152.397h3.377v11.272h-3.377z"/>
            <path d="M420.817 152.397h3.377v11.272h-3.377z"/>
            <path d="M381.509 152.397h3.377v11.272h-3.377z"/>
            <path d="M410.322 152.397h3.377v11.272h-3.377z"/>
            <path d="M396.047 152.397h3.377v11.272h-3.377z"/>
            <path d="M412.691 160.286v3.377h-15.142v-3.377z"/>
            <path d="M413.699 151.531v3.377h-9.6v-3.377z"/>
        </g>
        <g fill="#fff">
            <path d="M462.15 143.505h49.079v3.377h-49.079z"/>
            <path d="M469.467 160.393h3.377v3.28h-3.377z"/>
            <path d="M511.357 160.286v3.377h-9.809v-3.377z"/>
            <path d="M516.633 143.505h3.377v20.164h-3.377z"/>
            <path d="M536.171 160.286v3.377h-18.588v-3.377z"/>
            <path d="M501.548 152.397h3.377v11.272h-3.377z"/>
            <path d="M533.406 143.505h3.377v20.164h-3.377z"/>
            <path d="M524.962 143.505h3.377v20.164h-3.377z"/>
            <path d="M480.155 151.531v3.377h-17.913v-3.377z"/>
            <path d="M519.461 151.531v3.377h-17.913v-3.377z"/>
            <path d="M501.548 152.397h3.377v11.272h-3.377z"/>
            <path d="M501.548 152.397h3.377v11.272h-3.377z"/>
            <path d="M501.548 152.397h3.377v11.272h-3.377z"/>
            <path d="M462.24 152.397h3.377v11.272h-3.377z"/>
            <path d="M491.053 152.397h3.377v11.272h-3.377z"/>
            <path d="M476.778 152.397h3.377v11.272h-3.377z"/>
            <path d="M493.422 160.286v3.377h-15.142v-3.377z"/>
            <path d="M494.43 151.531v3.377h-9.6v-3.377z"/>
        </g>
        <g fill="#fff">
            <path d="M543.356 143.505h49.079v3.377h-49.079z"/>
            <path d="M550.673 160.393h3.377v3.28h-3.377z"/>
            <path d="M592.563 160.286v3.377h-9.809v-3.377z"/>
            <path d="M597.839 143.505h3.377v20.164h-3.377z"/>
            <path d="M617.377 160.286v3.377h-18.588v-3.377z"/>
            <path d="M582.754 152.397h3.377v11.272h-3.377z"/>
            <path d="M614.612 143.505h3.377v20.164h-3.377z"/>
            <path d="M606.168 143.505h3.377v20.164h-3.377z"/>
            <path d="M561.361 151.531v3.377h-17.913v-3.377z"/>
            <path d="M600.667 151.531v3.377h-17.913v-3.377z"/>
            <path d="M582.754 152.397h3.377v11.272h-3.377z"/>
            <path d="M582.754 152.397h3.377v11.272h-3.377z"/>
            <path d="M582.754 152.397h3.377v11.272h-3.377z"/>
            <path d="M543.446 152.397h3.377v11.272h-3.377z"/>
            <path d="M572.259 152.397h3.377v11.272h-3.377z"/>
            <path d="M557.984 152.397h3.377v11.272h-3.377z"/>
            <path d="M574.628 160.286v3.377h-15.142v-3.377z"/>
            <path d="M575.636 151.531v3.377h-9.6v-3.377z"/>
        </g>
        <g fill="#fff">
            <path d="M-183.775 143.505h49.079v3.377h-49.079z"/>
            <path d="M-176.458 160.393h3.377v3.28h-3.377z"/>
            <path d="M-134.568 160.286v3.377h-9.809v-3.377z"/>
            <path d="M-129.292 143.505h3.377v20.164h-3.377z"/>
            <path d="M-109.754 160.286v3.377h-18.588v-3.377z"/>
            <path d="M-144.377 152.397h3.377v11.272h-3.377z"/>
            <path d="M-112.519 143.505h3.377v20.164h-3.377z"/>
            <path d="M-120.963 143.505h3.377v20.164h-3.377z"/>
            <path d="M-165.77 151.531v3.377h-17.913v-3.377z"/>
            <path d="M-126.464 151.531v3.377h-17.913v-3.377z"/>
            <path d="M-144.377 152.397h3.377v11.272h-3.377z"/>
            <path d="M-144.377 152.397h3.377v11.272h-3.377z"/>
            <path d="M-144.377 152.397h3.377v11.272h-3.377z"/>
            <path d="M-183.685 152.397h3.377v11.272h-3.377z"/>
            <path d="M-154.872 152.397h3.377v11.272h-3.377z"/>
            <path d="M-169.147 152.397h3.377v11.272h-3.377z"/>
            <path d="M-152.503 160.286v3.377h-15.142v-3.377z"/>
            <path d="M-151.495 151.531v3.377h-9.6v-3.377z"/>
        </g>
        <g fill="#d90000">
            <path d="M-68.842 339.484h6.048v10.504h-6.048z"/>
            <path d="M91.675 339.484h6.048v10.504h-6.048z"/>
            <path d="M-192.003 339.484h6.048v10.504h-6.048z"/>
            <path d="M-110.536 339.484h6.048v10.504h-6.048z"/>
            <path d="M-29.649 339.484h6.048v10.504h-6.048z"/>
            <path d="M10.372 339.484h6.048v10.504h-6.048z"/>
            <path d="M51.229 339.484h6.048v10.504h-6.048z"/>
            <path d="M131.696 339.484h6.048v10.504h-6.048z"/>
            <path d="M334.732 339.484h6.048v10.504h-6.048z"/>
            <path d="M172.551 339.484h6.048v10.504h-6.048z"/>
            <path d="M212.582 339.484h6.048v10.504h-6.048z"/>
            <path d="M253.016 339.484h6.048v10.504h-6.048z"/>
            <path d="M293.46 339.484h6.048v10.504h-6.048z"/>
            <path d="M616.571 339.484h6.048v10.504h-6.048z"/>
            <path d="M373.925 339.484h6.048v10.504h-6.048z"/>
            <path d="M414.782 339.484h6.048v10.504h-6.048z"/>
            <path d="M456.062 339.484h6.048v10.504h-6.048z"/>
            <path d="M494.834 339.484h6.048v10.504h-6.048z"/>
            <path d="M536.104 339.484h6.048v10.504h-6.048z"/>
            <path d="M576.548 339.484h6.048v10.504h-6.048z"/>
            <path d="M696.21 339.484h6.048v10.504h-6.048z"/>
            <path d="M657.436 339.484h6.048v10.504h-6.048z"/>
            <path d="M-151.394 339.484h6.048v10.504h-6.048z"/>
        </g>
        <g fill="#239e3f">
            <path d="M-68.842 162.592h6.048v10.504h-6.048z"/>
            <path d="M91.675 162.592h6.048v10.504h-6.048z"/>
            <path d="M-192.003 162.592h6.048v10.504h-6.048z"/>
            <path d="M-110.536 162.592h6.048v10.504h-6.048z"/>
            <path d="M-29.649 162.592h6.048v10.504h-6.048z"/>
            <path d="M10.372 162.592h6.048v10.504h-6.048z"/>
            <path d="M51.229 162.592h6.048v10.504h-6.048z"/>
            <path d="M131.696 162.592h6.048v10.504h-6.048z"/>
            <path d="M334.732 162.592h6.048v10.504h-6.048z"/>
            <path d="M172.551 162.592h6.048v10.504h-6.048z"/>
            <path d="M212.582 162.592h6.048v10.504h-6.048z"/>
            <path d="M253.016 162.592h6.048v10.504h-6.048z"/>
            <path d="M293.46 162.592h6.048v10.504h-6.048z"/>
            <path d="M616.571 162.592h6.048v10.504h-6.048z"/>
            <path d="M373.925 162.592h6.048v10.504h-6.048z"/>
            <path d="M414.782 162.592h6.048v10.504h-6.048z"/>
            <path d="M456.062 162.592h6.048v10.504h-6.048z"/>
            <path d="M494.834 162.592h6.048v10.504h-6.048z"/>
            <path d="M536.104 162.592h6.048v10.504h-6.048z"/>
            <path d="M576.548 162.592h6.048v10.504h-6.048z"/>
            <path d="M696.21 162.592h6.048v10.504h-6.048z"/>
            <path d="M657.436 162.592h6.048v10.504h-6.048z"/>
            <path d="M-151.394 162.592h6.048v10.504h-6.048z"/>
        </g>
        <g fill="#da0000">
            <path d="M279.747 197.432c8.452 10.36 34.508 67.646-15.729 105.171-23.616 17.774-8.993 18.672-8.294 21.66 37.962-20.164 50.361-47.485 50.073-71.958-.289-24.474-13.264-46.098-26.05-54.868z"/>
            <path d="M284.773 194.769c18.747 9.599 59.547 57.874 15.634 112.333 27.285-6.056 61.975-86.408-15.634-112.333z"/>
            <path d="M227.198 194.769c-18.747 9.599-59.547 57.874-15.634 112.333-27.285-6.056-61.975-86.408 15.634-112.333z"/>
            <path d="M232.151 197.432c-8.452 10.36-34.508 67.646 15.729 105.171 23.616 17.774 8.993 18.672 8.294 21.66-37.962-20.164-50.361-47.485-50.073-71.958.289-24.474 13.264-46.098 26.05-54.868z"/>
            <path d="M304.144 319.043c-14.859.235-33.591-2.047-47.482-9.266l6.477 11.7c13.249 1.222 31.532 2.734 41.005-2.433z"/>
            <path d="M209.179 319.043c14.859.235 33.591-2.047 47.482-9.266l-6.477 11.7c-13.249 1.222-31.532 2.734-41.005-2.433z"/>
            <path d="M236.434 180.342c3.01 8.001 10.908 9.164 19.362 4.453 6.161 3.697 15.688 3.931 18.974-4.066 2.498 19.782-18.304 15.102-19.079 11.23-7.744 7.486-22.162 3.162-19.258-11.617z"/>
            <path d="M256.352 331.499l7.812-8.929 1.117-120.166-9.3-8.185-9.3 7.812 1.86 120.909 7.812 8.556z"/>
        </g>
    </g>
</svg>
