<svg viewBox="0 0 512 512" xmlns="http://www.w3.org/2000/svg" xmlns:xlink="http://www.w3.org/1999/xlink"><defs><path id="a" d="m-28.6 47.5 1.8 1 46.7-81c2.7-.6 4.2-3.2 5.7-5.8 1-1.8 5-8.7 6.7-17.7a58 58 0 0 0 -11.9 14.7c-1.5 2.6-3 5.2-2.3 7.9z" stroke-miterlimit="10"/></defs><path d="m0 0h512v512h-512z" fill="#fff"/><path d="m0 0h512v153.6h-512z"/><path d="m0 358.4h512v153.6h-512z" fill="#060"/><g id="b" transform="matrix(3.2 0 0 3.2 255.8 256)"><use height="100%" stroke="#000" width="100%" xlink:href="#a"/><use fill="#fff" height="100%" width="100%" xlink:href="#a"/></g><use height="100%" transform="matrix(-1 0 0 1 511.7 0)" width="100%" xlink:href="#b"/><path d="m255.8 102.4c-19.2 0-51.2 51.2-60.8 76.8h-195v153.6h195c9.7 25.6 41.7 76.8 60.9 76.8s51.2-51.2 60.8-76.8h195.3v-153.6h-195.4c-9.6-25.6-41.6-76.8-60.8-76.8z" fill="#b00"/><path id="c" d="m316.6 332.8a220 220 0 0 0 16-76.8 220 220 0 0 0 -16-76.8 220 220 0 0 0 -16 76.8 220 220 0 0 0 16 76.8"/><use height="100%" transform="matrix(-1 0 0 1 511.7 0)" width="100%" xlink:href="#c"/><g fill="#fff" transform="matrix(3.2 0 0 3.2 255.8 256)"><ellipse rx="4" ry="6"/><path id="d" d="m1 5.8s4 8 4 21-4 21-4 21z"/><use height="100%" transform="scale(-1)" width="100%" xlink:href="#d"/><use height="100%" transform="scale(-1 1)" width="100%" xlink:href="#d"/><use height="100%" transform="scale(1 -1)" width="100%" xlink:href="#d"/></g></svg>