<svg xmlns="http://www.w3.org/2000/svg" xml:space="preserve" id="flag-icons-kg" viewBox="0 0 512 512">
  <path fill="red" stroke-width="1.20078" d="M0 0h512v512H0Z"/>
  <path fill="#ff0" fill-rule="evenodd" stroke-width="1.5502" d="m278.1 156.4 2.9-55.5q0-.5-.4-.5t-.6.4l-14.2 53.4-.1.6a6.3 6.3 0 1 0 12.4 1.6m15.3 4.7 11.6-54.4q0-.4-.3-.6-.4 0-.6.3L281.6 157l-.2.5a6.3 6.3 0 1 0 12 3.6m14.4 7 20-51.8a.5.5 0 0 0-.9-.5l-30.1 46.4-.3.5a6.3 6.3 0 1 0 11.3 5.4m13.1 9.2 27.9-48a.5.5 0 0 0-.8-.6l-37 41-.4.5a6.3 6.3 0 1 0 10.3 7.1m11.5 11.1 35-43.1q.3-.3 0-.7a1 1 0 0 0-.7 0l-43 34.8-.4.4a6.3 6.3 0 1 0 9.1 8.6m9.7 12.8 41.3-37.2q.2-.2 0-.6a1 1 0 0 0-.6-.2l-48 27.8-.4.3a6.3 6.3 0 1 0 7.7 9.9m7.5 14.1 46.6-30.2a.5.5 0 0 0-.5-.9l-51.6 19.9-.5.2a6.3 6.3 0 1 0 6 11m5.2 15.2 50.8-22.6a.5.5 0 0 0-.3-.9L351 218.5l-.5.2a6.3 6.3 0 1 0 4.2 11.8m2.8 15.8 53.7-14.3q.4 0 .3-.6-.1-.3-.5-.4l-55.3 2.9h-.5a6.3 6.3 0 1 0 2.3 12.4m.2 16 55.3-5.8a.5.5 0 0 0 0-1l-55-5.7h-.6a6.3 6.3 0 1 0 .3 12.5m-2.2 15.8 55.5 2.9a.5.5 0 0 0 .1-1l-53.4-14.2-.6-.1a6.3 6.3 0 1 0-1.6 12.4m-4.7 15.3 54.4 11.6q.4 0 .6-.3 0-.5-.3-.6L355 281.6l-.5-.2a6.3 6.3 0 1 0-3.6 12m-7 14.4 51.8 20q.4.1.7-.2 0-.4-.2-.7l-46.4-30.1-.5-.3a6.3 6.3 0 1 0-5.4 11.3m-9.2 13.1 48 27.9a.5.5 0 0 0 .6-.8l-41-37-.5-.4a6.3 6.3 0 1 0-7.1 10.3m-11.1 11.5 43.1 35a.5.5 0 0 0 .7-.7l-34.8-43-.4-.4a6.3 6.3 0 1 0-8.6 9.1m-12.8 9.7 37.2 41.3a.5.5 0 0 0 .8-.6l-27.8-48-.3-.4a6.3 6.3 0 1 0-9.9 7.7m-14.1 7.5 30.2 46.6q.3.3.7.2.3-.3.2-.7l-19.9-51.6-.2-.5a6.3 6.3 0 1 0-11 6m-15.2 5.2 22.6 50.8q0 .3.6.3.4-.2.3-.6L293.5 351l-.2-.5a6.3 6.3 0 1 0-11.8 4.2m-15.8 2.8 14.3 53.7q0 .4.6.3.4-.1.4-.5l-2.9-55.3v-.5a6.3 6.3 0 1 0-12.4 2.3m-16 .2 5.8 55.3a.5.5 0 0 0 1 0l5.7-55v-.6a6.3 6.3 0 1 0-12.5.3m-15.8-2.2-2.9 55.5a.5.5 0 0 0 1 .1l14.2-53.4.1-.6a6.3 6.3 0 1 0-12.4-1.6m-15.3-4.7L207 405.3a.5.5 0 0 0 1 .3l22.4-50.6.2-.5a6.3 6.3 0 1 0-12-3.6m-14.4-7-20 51.8q-.1.4.2.7.4 0 .7-.2l30.1-46.4.3-.5a6.3 6.3 0 1 0-11.3-5.4m-13.1-9.2-27.9 48a.5.5 0 0 0 .8.6l37-41 .4-.5a6.3 6.3 0 1 0-10.3-7.1m-11.5-11.1-35 43.1q-.3.3 0 .7t.7 0l43-34.8.4-.4a6.3 6.3 0 1 0-9.1-8.6m-9.7-12.8L128.6 348a.5.5 0 0 0 .6.8l48-27.8.4-.3a6.3 6.3 0 1 0-7.7-9.9m-7.5-14.1-46.6 30.2a.5.5 0 0 0 .5.9l51.6-19.9.5-.2a6.3 6.3 0 1 0-6-11m-5.2-15.2-50.8 22.6q-.3 0-.3.6.2.4.6.3l54.2-11.5.5-.2a6.3 6.3 0 1 0-4.2-11.8m-2.8-15.8L100.7 280a.5.5 0 0 0 .2 1l55.3-2.9h.5a6.3 6.3 0 1 0-2.3-12.4m-.2-16-55.3 5.8a.5.5 0 0 0 0 1l55 5.7h.6a6.3 6.3 0 1 0-.3-12.5m2.2-15.8-55.5-2.9a.5.5 0 0 0-.1 1l53.4 14.2.6.1a6.3 6.3 0 1 0 1.6-12.4m4.7-15.3L106.7 207q-.4 0-.6.3 0 .4.3.6l50.6 22.5.5.2a6.3 6.3 0 1 0 3.6-12m7-14.4-51.8-20a.5.5 0 0 0-.5.9l46.4 30.1.5.3a6.3 6.3 0 1 0 5.4-11.3m9.2-13.1-48-27.9a1 1 0 0 0-.7.2q-.2.4 0 .6l41.2 37 .4.4a6.3 6.3 0 1 0 7.1-10.3m11.1-11.5-43.1-35a.5.5 0 0 0-.7.7l34.8 43 .4.4a6.3 6.3 0 1 0 8.6-9.1m12.8-9.7L164 128.6h-.6q-.4.2-.2.6l27.8 48 .3.4a6.3 6.3 0 1 0 9.9-7.7m14.1-7.5-30.2-46.6a.5.5 0 0 0-.9.5l19.9 51.6.2.5a6.3 6.3 0 1 0 11-6m15.2-5.2-22.6-50.8a.5.5 0 0 0-.9.3l11.5 54.2.2.5a6.3 6.3 0 1 0 11.8-4.2m15.8-2.8L232 100.7q0-.4-.6-.3-.3.1-.4.5l2.9 55.3v.5a6.3 6.3 0 1 0 12.4-2.3m16-.2-5.8-55.3a.5.5 0 0 0-1 0l-5.7 55v.6a6.3 6.3 0 1 0 12.5-.3m-6.3 6.6a95.2 95.2 0 1 1 0 190.4 95.2 95.2 0 0 1 0-190.4m0 11.4a83.8 83.8 0 1 1 0 167.6 83.8 83.8 0 0 1 0-167.6m-70 109c8.6-18 20.5-33.8 34.1-47.1q3.3 2 6.4 4.4a165 165 0 0 0-36.4 51.5q-2.3-4.2-4-8.9m75.8-43.2 5.8 5 6-4.7-5.7-5q-3 2.2-6 4.7m-12.3-9.3 6.3 4.6q3-2.4 6.3-4.6L256 224zm.6 19.5q3 2.5 5.7 5.4l5.7-5.4-5.7-5.2q-3 2.4-5.7 5.2m-12-10 6 4.9q2.9-2.7 5.8-5-3-2.6-6.1-4.8zm37.5-18q-3-2.5-6.3-4.6-3.6 2-7.2 4.3 3.3 2.2 6.5 4.5 3.4-2.2 7-4.2m11.1 9.2-5.7-5-6.7 4.3 5.8 4.9zm-38.3-17.8 7.5-4.5 7.5 4.5-7.5 4.4zm-12.2 8.6q3-2.5 6.3-4.6 3.6 2 7.2 4.3-3.2 2.2-6.5 4.5zm-11.1 9.2 5.7-5 6.7 4.3-5.8 4.9zm-35-11q11.7 4.7 23 11.4c-11.5 11-22 24.3-30.5 39.9a75 75 0 0 1 7.6-51.3m6.3-9.7q13.8 4.5 27.3 11.8l-5.7 4.8a191 191 0 0 0-25.2-11.6zm8-8.9q15.6 4.1 31.1 12l-6.4 4.6a196 196 0 0 0-29.1-12zm11.7-9 .6.3.9.2a155 155 0 0 1 31.7 12.2l-8 4.6a199 199 0 0 0-32.2-12.4q3.3-2.6 7-4.9m73-3.6-.7.3A199 199 0 0 0 256 200a199 199 0 0 0-32-12.4l-.6-.2q-.4 0-.8-.3a75 75 0 0 1 66.8 0m13.3 8.6-.7.2q-16 4.5-31.5 12.1l-8-4.6a154 154 0 0 1 33.3-12.6 75 75 0 0 1 7 4.9m9 8.6q-14.8 4.6-29 12l-6.5-4.6q15.6-7.9 31.1-12zm7.2 9.3q-12.9 4.7-25.2 11.6l-5.7-4.8q13.6-7.5 27.3-11.8zm10.3 56c-8.5-15.6-19-28.8-30.6-40q11.4-6.6 23-11.3a75 75 0 0 1 7.6 51.3M322 290a165 165 0 0 0-36.4-51.5q3.1-2.3 6.4-4.4a166 166 0 0 1 34 47q-1.7 4.6-4 9m-11.7 16c-9.1-23.6-22-42.6-37-57.9l6-5c15.6 15.4 28.7 34 37.3 55.3q-3 4-6.3 7.5M296 317.6l-1-2.7a169 169 0 0 0-33.5-55.7l5.7-5.6a161 161 0 0 1 36.3 58.6q-3.6 3-7.5 5.4m-72.4 4.3 1-3c6.8-20.3 17.9-38.4 31.4-53.7a159 159 0 0 1 31.5 53.7l1 3a75 75 0 0 1-65 0m-15-9.7a161 161 0 0 1 36.3-58.6q3 2.7 5.7 5.6a169 169 0 0 0-33.6 55.7l-1 2.7q-3.8-2.4-7.4-5.4m-13-13.7c8.6-21.3 21.7-39.9 37.4-55.2q3 2.3 6 5c-15.1 15.2-28 34.2-37 57.7a75 75 0 0 1-6.4-7.5"/>
</svg>
