<svg xmlns="http://www.w3.org/2000/svg" height="512" width="512"><defs><clipPath id="a"><rect fill-opacity=".67" height="416.25" width="416.25" x="104.06"/></clipPath></defs><g clip-path="url(#a)" fill-rule="evenodd" transform="matrix(1.23 0 0 1.23 -128 0)"><rect height="416.25" width="625" fill="#be0027"/><path d="M189.795 212.303c11.104-13.504 34.105-.324 52.881-10.048-22.242 1.223-34.365-10.674-51.937-9.006 18.207-11.184 33.707 3.658 54.065-2.308-26.963-2.268-25.794-14.321-50.311-16.033 21.778-9.288 32.549 9.553 53.882 5.268-25.143-5.804-28.491-20.614-47.185-23.749 27.323-4.124 25.542 12.027 52.327 14-27.187-11.662-20.061-21.786-42.8-30.668 25.444-.601 23.757 17.033 49.535 21.658-22.068-14-19.342-26.776-37.519-36.773 21.564.39 23.669 22.462 45.677 29.301-19.632-15.577-14.469-28.71-31.433-42.62 21.449 5.031 18.326 24.073 40.665 36.22-16.555-18.386-10.203-31.548-24.645-46.598 20.629 6.644 12.792 24.74 34.198 41.946-12.271-20.207-4.695-33.094-16.771-50.142 19.153 9.891 9.879 28.35 27.66 46.794-8.37-20.738.012-33.619-8.542-51.983 16.383 12.241 6.639 31.969 19.855 50.789-4.818-25.95 6.375-30.219 2.892-52.945 12.444 15.276-1.465 30.553 8.088 53.056-1.163-25.59 12.434-31.54 10.076-52.085 12.332 18.41-6.916 34.432 1.134 54.149 2.082-24.279 18.036-30.566 18.284-49.459 9.701 17.343-11.472 29.814-8.035 52.808 6.967-25.362 23.964-28.496 25.969-45.548 5.882 20.063-17.288 29.39-15.933 51.626 6.901-22.549 28.146-25.194 32.489-41.849 2.68 21.225-18.212 24.993-24.093 48.442 10.985-19.138 30.197-20.708 38.847-35.844-.679 20.987-24.263 23.739-31.502 43.391 13.597-16.674 30.642-13.78 44.239-28.564-1.435 18.942-25.441 17.871-38.218 37.482 14.744-13.603 36.938-9.527 48.235-21.239-.548 16.754-30.006 15.495-43.898 30.47 17.134-9.386 38.826-3.873 51.401-12.591-2.298 14.689-33.394 11.256-48.256 22.72 20.496-5.679 36.322 3.097 52.927-3.248-8.081 14.298-36.287 5.248-51.262 14.543 17.787-3.012 36.687 7.764 52.918 4.307-5.335 12.358-36.243-.747-52.918 6.941 19.926-.175 32.847 12.548 51.327 11.706-10.051 11.189-37.225-4.197-53.057-1.569 19.316 3.996 34.073 20.001 48.719 20.772-12.019 9.229-34.489-11.786-52.734-9.118 18.784 5.028 34.565 26.399 45.344 26.868-11.613 7.936-34.566-18.263-50.292-17.332 19.102 8.634 27.863 30.499 40.404 33.573-15.527 4.982-30.786-23.753-47.471-24.749 19.326 12.189 20.418 30.827 35.298 39.124-15.656 3.827-26.799-28.59-43.299-31.326 15.844 11.648 18.234 36.528 28.74 44.396-15.94.842-21.7-33.1-38.037-37.949 13.996 11.69 10.645 37.055 21.527 47.855-16.605-3.406-14.465-32.957-31.802-42.908 12.455 15.707 6.119 38.085 14.237 50.679-16.155-6.535-9.138-32.981-24.561-47.959 8.414 16.734-.629 36.249 6.006 52.427-14.758-7.198-4.832-38.523-16.143-50.947 5.199 19.338-4.39 35.341-.525 52.677-15.088-17.5 2.29-35.112-10.797-52.946 3.474 20.469-10.842 34.712-8.591 51.845-11.964-13.975 6.427-36.401-2.868-54.046 2.001 20.125-16.484 37.754-15.215 50.429-9.738-16.233 10.811-35.432 5.309-53.889-1.159 19.164-19.813 29.578-23.326 47.036-6.27-19.259 15.905-33.18 13.991-52.105-6.35 18.004-24.375 25.222-30.725 42.67-5.199-19.205 21.068-29.403 21.762-49.609-8.119 18.95-29.692 23.111-36.811 37.613-2.658-19.105 27.485-27.647 28.607-45.751-9.704 17.383-33.307 18.088-41.455 31.913-1.235-19.037 30.554-21.395 35.545-41.32-9.661 14.86-35.556 12.932-46.33 25.013 1.699-17.66 36.087-18.752 41.567-34.633-12.783 12.331-36.554 7.221-49.939 17.002 7.45-17.345 39.705-13.668 46.997-26.233-14.279 7.45-39.576.228-52.029 7.678 11.318-16.427 36.424-6.614 50.633-17.926-23.112 3.368-36.996-5.829-52.992-1.572z" fill="#ff0"/><path d="M393.427 208.211c0 44.551-36.115 80.665-80.665 80.665-44.551 0-80.665-36.115-80.665-80.665 0-44.551 36.115-80.665 80.665-80.665 44.551 0 80.665 36.115 80.665 80.665z" fill="#ff0"/><path d="M383.049 208.369c0 38.733-31.399 70.13-70.13 70.13-38.733 0-70.13-31.399-70.13-70.13 0-38.733 31.399-70.13 70.13-70.13 38.733 0 70.13 31.399 70.13 70.13z" fill="#be0027"/><path d="M373.3 208.527c0 33.261-26.963 60.224-60.224 60.224-33.261 0-60.224-26.963-60.224-60.224 0-33.261 26.963-60.224 60.224-60.224 33.261 0 60.224 26.963 60.224 60.224z" fill="#ff0"/><path d="M261.815 169.063c16.667-.367 37.424 1.153 51.104 12.108 14.519-9.068 31.711-13.261 49.218-11.636l8.963 16.353c-12.999-1.311-25.683.525-40.727 6.605 19.184 15.2 28.776 34.803 28.147 58.652l-7.862 8.49c3.197-23.167-9.015-49.006-26.732-62.582 14.414 20.809 23.011 39.573 20.6 65.413l-8.177 5.189c3.773-22.8-1.571-49.532-18.397-65.099 9.696 14.257 19.393 39.836 13.365 65.885l-9.277 3.774c6.762-21.332 2.515-48.012-8.806-63.998-11.216 16.092-14.886 40.673-8.492 63.369l-8.648-2.516c-4.612-24.425 1.783-51.996 12.895-66.356-11.322 6.552-22.015 34.645-19.028 63.369l-7.547-3.46c-3.669-21.438 6.027-49.321 19.97-65.414-15.83 9.959-28.671 34.385-26.417 60.697l-7.076-5.346c-2.778-22.958 10.483-46.072 26.102-59.91-13.156-5.871-24.425-7.024-40.726-6.762l7.548-16.825z" fill="#be0027"/></g></svg>