<svg xmlns="http://www.w3.org/2000/svg" xmlns:xlink="http://www.w3.org/1999/xlink" id="flag-icon-css-kh" width="512" height="512">
  <path fill="#032ea1" d="M0 0h512v512H0z"/>
  <path fill="#e00025" d="M0 128h512v256H0z"/>
  <g fill="#fff" stroke="#000" stroke-width=".96" transform="matrix(1.28 0 0 1.28 5.94 -556.72)">
    <g stroke-linejoin="bevel">
      <path d="M139.02 623.46h113.8v43.79h-113.8z"/>
      <path d="M246.95 647.64h3.59v16.5h-3.59zm-107.93-8.15h113.8v5.09h-113.8zm0-6.9h113.8v4.49h-113.8z"/>
      <path stroke-width=".94" d="M139.02 625.7h113.8v4.35h-113.8z"/>
      <path d="M168.98 647.64h3.59v16.5h-3.59zm48.99 0h3.59v16.5h-3.59zm-78.05 0h3.59v16.5h-3.59zm7.03 0h3.59v16.5h-3.59zm7.5 0h3.59v16.5h-3.59zm7.5 0h3.59v16.5h-3.59zm62.82 0h3.59v16.5h-3.59zm7.5 0h3.59v16.5h-3.59zm7.5 0h3.59v16.5h-3.59z"/>
      <path stroke-linejoin="miter" d="M94.5 669.55a9.34 9.34 0 0 0 4.43-5.32H292a9.34 9.34 0 0 0 4.43 5.32z"/>
    </g>
    <path d="M193 556.8s-.14-4.11 2.25-4.16c2.4.05 2.25 4.16 2.25 4.16zm-12.49 54.54v-5.54c-.08-2.76-2.76-2.96-2.84-4.98 0 0-.34-3.03.45-4.41 1.09 4.05 3.06 3.3 3.06 1.64 0-1.45-1.12-2.8-3.4-6.33-.74-1.13-.29-4.66.74-5.92.4 3.07.85 4.54 2.17 4.54.8 0 1.46-.53 1.46-2.07 0-1.95-1.32-2.94-1.97-4.72a5.03 5.03 0 0 1 1.02-5.38c.54 3.03.38 4.24 1.73 4.24 2.71-.86 0-4.79-.58-5.78-.67-1.16.9-3.46.9-3.46.86 2.69 1.13 2.91 2.06 2.66 1.18-.32 1.03-2.06-.4-3.46-.91-.9-.81-2.22.16-3.28.97 1.9 2.22 1.8 2.34.66l-.78-4.4h17.25l-.86 4.26c-.24 1.21 1.4 1.48 2.42-.52.97 1.06 1.07 2.39.16 3.28-1.43 1.4-1.58 3.14-.4 3.46.92.25 1.2.03 2.06-2.66 0 0 1.4 1.57.9 3.46-.58.99-3.3 4.92-.58 5.78 1.35 0 1.18-1.21 1.73-4.24a5.03 5.03 0 0 1 1.02 5.38c-.65 1.78-1.97 2.77-1.97 4.72 0 1.54.65 2.07 1.46 2.07 1.32 0 1.77-1.47 2.17-4.54 1.02 1.26 1.48 4.8.75 5.92-2.3 3.53-3.41 4.88-3.41 6.33 0 1.66 1.97 2.4 3.05-1.64.8 1.38.46 4.4.46 4.4-.08 2.03-2.76 2.23-2.84 5v5.53zm7.22-46.02l-.4-3.13h15.84l-.4 3.13zm1.06-3.19l-.34-2.57h13.6l-.34 2.57zm2.16-2.66l-.23-2.57h9.06l-.23 2.57zm33.02 110.08c-2.03-.78-4.98-2.92-4.98-5.07v-24.3l2.64-3.36h-52.77l2.52 3.36v24.3c0 2.15-2.02 4.29-4.05 5.07z"/>
    <path stroke-linejoin="bevel" d="M178.24 647.64h3.59v16.5h-3.59zm30.32 0h3.59v16.5h-3.59z"/>
    <path d="M167.91 609.17v27.66h54.02v-5.96l.08-21.7a4.2 4.2 0 0 0-2.6 2.87v11.78h-48.75v-11.78s-.54-2-2.75-2.87z"/>
    <path d="M214.6 669.55c-1.77-.78-5.61-2.92-5.61-5.07v-27.2c.38-1.51 2.43-2.4 3.76-3.35h-35.82c1.7.9 3.6 1.65 4.28 3.36v27.2c0 2.14-3.04 4.28-4.8 5.06z"/>
    <path d="M219.41 634.22v-19.59h-4.91v-1.9h-38.84v1.9h-4.91v19.59zm-12.55 35.33c-1.73-.78-4.25-2.92-4.25-5.07v-23.21l1.42-2.11h-17.69l1.42 2.1v23.22c0 2.15-2.52 4.29-4.25 5.07z"/>
    <path stroke-width=".98" d="M190.71 639.16h8.97v30.38h-8.97z"/>
    <path stroke-linejoin="bevel" d="M204.38 632.48c.02-2 5.84-2.1 8.83-3.8h-35.95c3 1.7 8.68 1.85 8.68 3.8l1.21 3.88 14.89.6z"/>
    <path d="M211.41 611.34c0-4.9.2-6.79 1.71-6.79v15.58c-3.69 1.34-6.33 6.05-6.33 6.05h-23.2s-2.64-4.7-6.33-6.05v-15.58c1.86 0 1.87 1.98 1.87 6.79zm1.71-2.01c0-5.62 4.85-6.25 4.85-6.25v5c-1.84-.08-2.74 1.58-2.74 4.04 0 2.47 1.5 2.51 1.5 2.51v14.19h-3.61z"/>
    <path d="M177.28 609.33c0-5.62-4.85-6.25-4.85-6.25v5c1.84-.08 2.74 1.58 2.74 4.04 0 2.47-1.5 2.51-1.5 2.51v14.19h3.61z"/>
    <g fill="none" stroke-width=".8">
      <path d="M186.84 570.62h17.13m-19.16 5.35h20.92m-22.95 6.49h24.9m-27.02 7.93h29.54m-30.22 9.04h30.43"/>
      <path stroke-width=".96" d="M170.75 628.92h48.66m-33.22.01h18.04v6.63h-18.04z"/>
    </g>
    <path d="M183.93 614.24c2.99 3.59 2.71 9.68 2.68 13.27h17.34c-.03-3.59-.31-9.68 2.68-13.27zm9.75-41.13l-2.38-1.22v-3.5c.97.3 2.07.41 2.17 1.96.34-2.21.95-2.1 1.9-2.96.97.86 1.58.75 1.92 2.96.1-1.55 1.2-1.67 2.16-1.96v3.5l-2.37 1.22z"/>
    <path d="M193.52 578.85l-3.95-2.71v-3.23c1.39.32 2.94.46 3.1 2.15.47-2.42 1.34-3.67 2.7-4.62 1.37.95 2.24 2.2 2.72 4.62.15-1.7 1.7-1.82 3.1-2.15v3.23l-3.96 2.71z"/>
    <path d="M193.24 587.8l-4.54-3.98v-4.74c1.6.47 3.38.66 3.55 3.16.56-3.56 1.56-5.4 3.12-6.8 1.57 1.4 2.57 3.24 3.13 6.8.17-2.5 1.96-2.69 3.55-3.16v4.73l-4.54 3.99zm8.37 5.29l-4.1 5.68h-4.65l-4.1-5.68zm-15.22 9.53c2.05 1.12 2.81 3.36 3.03 7.55h11.55c.22-4.2.98-6.43 3.03-7.55z"/>
    <path stroke-linejoin="bevel" d="M204.17 593.09v-5.7a5.22 5.22 0 0 0-3.78 3.26c0-1.9-2.49-6.26-5.2-8.43-2.73 2.43-5.26 6.38-5.2 8.43-.47-1.5-1.84-2.72-3.79-3.26v5.7z"/>
    <path stroke-linejoin="bevel" d="M205.04 602.62v-5.7c-2.14.54-3.52 1.69-4.14 3.26 0-1.9-2.73-6.26-5.7-8.43-3 2.43-5.77 6.38-5.71 8.43-.51-1.5-2-2.72-4.14-3.26v5.7z"/>
    <path stroke-linejoin="bevel" d="M207.44 614.32v-6.58c-2.66.69-4.31 2.66-5.15 3.8 0-3.56-4.02-8.99-7.1-10.76-3.16 1.82-7.1 7.43-7.1 10.76-.86-1.14-2.5-3.11-5.15-3.8v6.58z"/>
    <path stroke-linejoin="bevel" d="M206 628.92v-6.76c-2.35.92-3.05 3.18-3.79 4.72.3-6.86-3.86-14.23-7.02-16.1-3.16 1.87-7.4 9.4-7.02 16.1-.76-1.53-1.44-3.8-3.79-4.72v6.76z"/>
    <path d="M204.36 639.16v-6.76c-2.46.58-2.61 1.49-3.4 3 .3-4.1-2.6-8.77-5.76-10.64-3.17 1.87-6.07 6.55-5.78 10.64-.78-1.51-.88-2.42-3.4-3v6.76z"/>
    <g id="a">
      <path d="M98.94 664.23v-20.44c-.67-2.6-2.88-4.9-4.54-5.37v-17.99l3.74 2.02 4.27 18.81v22.97z"/>
      <path d="M98.94 664.31v-20.52c-.67-2.6-2.88-4.9-4.54-5.37v-19.24c2.5 0 3.74 3.27 3.74 3.27l4.27 18.81v22.9z"/>
      <path d="M96.28 669.55c1.73-.78 4.24-2.92 4.24-5.07v-25.55l-1.18-2.1h43.52l-1.7 2.1v25.55c0 2.15 1.73 4.29 3.46 5.07z"/>
      <path d="M135.84 669.55c-1.73-.78-4.25-2.92-4.25-5.07v-24.3l3.62-3.36h-29.59l3.62 3.36v24.3c0 2.15-2.52 4.29-4.25 5.07z"/>
      <path d="M131.69 669.55c-1.73-.78-4.25-2.92-4.25-5.07v-21.97l2.37-3.35h-18.8l2.37 3.36v21.96c0 2.15-2.52 4.29-4.25 5.07z"/>
      <path d="M115.92 639.16h8.98v30.4h-8.98z"/>
      <path stroke-linejoin="bevel" d="M103.7 647.64h3.59v16.5h-3.59zm30.75 0h3.59v16.5h-3.59zm-33.81-27.82h4.32v16.9h-4.32zm0-3.18h4.3v3.14h-4.3z"/>
      <path stroke-linejoin="bevel" stroke-width="1.03" d="M136.17 623.46h6.16v13.05h-6.16z"/>
      <path d="M104.89 636.6v-28.94c1.23 0 1.42 4.24 4.25 4.24 1.47 0 1.31-1.76.49-3.19-.73-1.27-1.64-3.02-.4-6.28.83 2.5 3.1 3.3 2.68 1.73-.72-2.7-2.8-3.13-1.23-7.3.53 3.47 2.77 3.32 2.23 1.3-.61-2.28-1.88-3.22-.32-6.43.87 3.65 2.05 3.43 2.05 1.17 0-3.35-.13-6.96 4.2-8.3 0 0 .25-3.06 1.82-3.06 1.56 0 1.81 3.06 1.81 3.06 4.33 1.34 4.2 4.95 4.2 8.3 0 2.26 1.18 2.48 2.05-1.17 1.56 3.21.3 4.15-.31 6.43-.54 2.02 1.69 2.18 2.23-1.3 1.56 4.17-.52 4.6-1.24 7.3-.42 1.56 1.85.77 2.7-1.73 1.22 3.26.32 5.02-.41 6.28-.83 1.43-.99 3.2.49 3.2 2.82 0 3.01-4.25 4.24-4.25v28.94zm-6.77-21.86v22.08h2.51v-22.14c-.9-.45-1.75-.52-2.5.06z"/>
      <path d="M98.2 629.03c3.12 1.6 6.2 3.43 6.98 7.8H98.2zm43.17-6.61v14.4h2.04v-14.44c-.64-.3-1.5-.34-2.04.04z"/>
      <path d="M143.41 628.92c-3.11 1.6-6.2 3.43-6.97 7.8h6.97zm-20.58-33.65l1.81-1.52v-1.96c-.66.07-1.02.3-1.51.94a5.01 5.01 0 0 0-2.56-2.93 4.93 4.93 0 0 0-2.57 2.88c-.49-.64-.85-.82-1.51-.89v1.96l1.81 1.52z"/>
      <path d="M123.8 600.16l.84-1.82v-2.54c-.66.06-1.02.3-1.51.94a5.06 5.06 0 0 0-2.56-2.97 4.97 4.97 0 0 0-2.57 2.93c-.49-.65-.85-.84-1.51-.9v2.53l.84 1.83z"/>
      <path d="M123.93 606.79l2.7-3.29v-3.24c-1 .11-1.53.5-2.26 1.6-.62-2.22-1.98-2.7-3.8-3.78-1.83 1.08-3.19 1.48-3.8 3.7-.74-1.1-1.28-1.4-2.26-1.52v3.24l2.7 3.29z"/>
      <path d="M124.72 613.3s3.14-2.74 3.33-4.24v-3.47c-1.22.14-2.37.46-3.27 1.88-.77-2.87-1.96-3.67-4.21-5.06-2.25 1.4-3.45 2.2-4.21 5.06-.9-1.42-2.05-1.74-3.27-1.88v3.47c.4 1.5 3.33 4.24 3.33 4.24z"/>
      <path d="M126.06 625.32s4.3-4.76 4.4-6.62v-5.4c-1.61.22-3.13 1.33-4.32 3.55-1.01-4.48-2.6-7.6-5.57-9.77-2.98 2.17-4.56 5.3-5.57 9.77-1.2-2.22-2.71-3.33-4.32-3.55v5.4c.3 1.86 4.4 6.62 4.4 6.62z"/>
      <path d="M126.06 632.43s3.68-3.74 4.4-5.37v-5.4c-1.61.22-3.13 1.33-4.32 3.55-1.01-4.48-2.6-7.04-5.57-9.2-2.98 2.16-4.56 4.72-5.57 9.2-1.2-2.22-2.71-3.33-4.32-3.55v5.4c.93 1.63 4.4 5.37 4.4 5.37z"/>
      <path d="M127.54 636.56c-1.07-4.67-2-8.13-7.16-11.64-5.17 3.5-6.1 6.97-7.17 11.64z"/>
      <path d="M130.2 639.16v-6.76c-2.35.92-4.47 2.28-5.25 3.8-.87-3.76-2.56-5.42-4.65-7.69-2.1 2.28-3.5 3.93-4.38 7.68-.78-1.51-2.9-2.87-5.25-3.8v6.77z"/>
    </g>
    <use width="100%" height="100%" transform="matrix(-1 0 0 1 390.74 0)" xlink:href="#a"/>
    <path d="M72.7 694.25h245.32v12.53H72.7z"/>
    <path d="M66.23 706.76h258.26v12.51H66.23zm19.35-31.25h219.56v8.11H85.58z"/>
    <path d="M79.16 683.56h232.4v10.62H79.16zm10.25-14.28h211.9v6.17H89.4z"/>
    <path stroke-width="1.04" d="M112.41 669.31h16v49.94h-16z"/>
    <path stroke-width="1.04" d="M115.95 669.31h8.92v49.94h-8.92zM187.08 669.31h16v49.94h-16z"/>
    <path stroke-width="1.04" d="M190.73 669.31h8.92v49.94h-8.92zM262.19 669.31h16v49.94h-16z"/>
    <path stroke-width="1.04" d="M265.73 669.31h8.92v49.94h-8.92z"/>
    <path fill="none" d="M98.94 664.23H292M115.8 712.97h9.24m-9.24-6.25h9.24m-9.24-6.25h9.24m-9.24-6.25h9.24m-9.24-6.25h9.24m-9.24-6.25h9.24m-9.24-6.25h9.24m65.74 37.51h8.6m-8.6-6.25h8.6m-8.6-6.26h8.6m-8.6-6.25h8.6m-8.6-6.25h8.6m-8.6-6.26h8.6m-8.6-6.25h8.6m66.2 37.51h9.24m-9.24-6.25h9.24m-9.24-6.25h9.24m-9.24-6.25h9.24m-9.24-6.25h9.24m-9.24-6.25h9.24m-9.24-6.25h9.24"/>
  </g>
</svg>
