<svg xmlns="http://www.w3.org/2000/svg" height="512" width="512" version="1"><defs><clipPath id="a"><rect fill-opacity=".67" height="496.06" width="496.06" x="124.02"/></clipPath></defs><g fill-rule="evenodd" clip-path="url(#a)" transform="matrix(1.032 0 0 1.032 -128 0)"><rect height="496.06" width="744.09" fill="#1b0073"/><rect height="248.03" width="744.09" y="124.02" fill="#e60006"/><g stroke="#e60000" fill="#fff"><rect transform="translate(0 354.33)" height="50.992" width="315.35" y="-113.98" x="214.37"/><path d="M214.149 291.344l-5.093 11.998h325.984l-5.093-11.998h-315.797z"/><path d="M463.265 291.345l-6.179 11.998h74.154l-6.179-11.998h-61.795z"/><path d="M481.14 291.345l-3.112 11.998h37.347l-3.112-11.998h-31.122z"/><path d="M486.661 291.345l-2.011 11.998h24.137l-2.011-11.998h-20.114z"/><path d="M339.564 291.344l-6.496 11.998h77.952l-6.496-11.998h-64.96z"/><rect height="11.998" width="318.9" y="239.58" x="212.6"/><g transform="translate(0 354.33)"><rect height="50.792" width="62.5" y="-113.87" x="462.79"/><rect height="26.986" width="6.25" y="-90.068" x="507.5"/><rect height="26.986" width="6.25" y="-90.068" x="480"/></g><g><path d="M355.519 291.344l-3.263 11.998h39.157l-3.263-11.998h-32.63z"/><path d="M361.811 291.344l-2.047 11.998h24.559l-2.047-11.998h-20.465z"/><rect transform="translate(0 354.33)" height="50.992" width="65.854" y="-113.98" x="338.8"/><rect transform="translate(0 354.33)" height="26.986" width="6.25" y="-90.072" x="391.27"/><rect transform="translate(0 354.33)" height="26.986" width="6.254" y="-90.075" x="347.78"/><rect transform="translate(0 354.33)" height="63.32" width="31.89" y="-126.32" x="356.1"/><rect transform="translate(0 354.33)" height="26.986" width="6.25" y="-90.074" x="380.02"/><rect transform="translate(0 354.33)" height="26.986" width="6.254" y="-90.073" x="359.03"/><path d="M358.18 238.186l13.471 19.453 14.264-19.453h-27.735z"/></g><rect transform="translate(0 354.33)" height="62.99" width="17.717" y="-113.98" x="487.59"/><rect transform="translate(0 354.33)" height="62.99" width="11.799" y="-113.98" x="490.54"/><g><path d="M218.372 291.345l-6.18 11.998h74.16l-6.18-11.998h-61.8z"/><path d="M233.225 291.345l-2.905 11.998h34.866l-2.905-11.998h-29.055z"/><path d="M238.399 291.345l-1.854 11.998h22.246l-1.854-11.998h-18.538z"/><rect transform="translate(0 354.33)" height="50.992" width="62.008" y="-113.98" x="217.91"/><rect transform="translate(0 354.33)" height="26.986" width="6.25" y="-90.066" x="230"/><rect transform="translate(0 354.33)" height="26.986" width="6.25" y="-90.065" x="258.75"/><rect transform="translate(0 354.33)" height="62.99" width="17.717" y="-113.98" x="239.17"/><rect transform="translate(0 354.33)" height="62.99" width="11.799" y="-113.98" x="242.11"/></g><rect height="11.998" width="325.98" y="228.35" x="209.06"/><g transform="matrix(1 0 0 .847 0 54.377)"><g transform="matrix(1.047 0 0 1.041 -36.796 -6.024)"><rect height="17.5" width="406.25" y="328.56" x="187.5"/><rect height="17.5" width="327.5" y="284.81" x="226.25"/><rect height="17.5" width="337.5" y="288.56" x="221.25"/><rect height="17.5" width="406.25" y="328.56" x="187.5"/><rect height="17.5" width="356.25" y="298.56" x="212.5"/><rect height="17.5" width="381.25" y="311.06" x="200"/></g><g transform="matrix(.945 0 0 1.02 -32.48 1.183)"><rect height="62.5" width="18.75" y="283.56" x="287.5"/><rect height="62.5" width="12.5" y="283.56" x="290.62"/></g><g transform="matrix(.945 0 0 1.02 215.55 1.183)"><rect height="62.5" width="18.75" y="283.56" x="287.5"/><rect height="62.5" width="12.5" y="283.56" x="290.62"/></g></g><rect height="113.98" width="14.239" y="240.35" x="365.5"/><g><path d="M466.83 240.87l.174-31.25s3.173 6.126 27.849 7.467c23.354-.793 27.222-4.539 28.28-7.859l-.967 31.758-55.336-.116z"/><g><path d="M482.896 204.289l-7.644-6.135c2.549-1.591 7.28 1.137 7.28 1.137s2.548-7.045 13.47-10c10.921 2.955 13.469 10 13.469 10s4.732-2.728 7.281-1.137l-7.645 6.136h-26.21z"/><path d="M478.835 220.186l-9.928-8.589c3.31-2.227 9.456 1.591 9.456 1.591s3.309-9.864 17.494-14c14.184 4.137 17.494 14 17.494 14s6.146-3.819 9.456-1.591l-9.929 8.591h-34.042z"/></g><g><path d="M496.043 156.248c.313 0 11.894 20.659 0 20.972-11.894.313 0-20.346 0-20.972z"/><path d="M486.034 182.506l-5.876-3.211c1.959-.833 5.596.595 5.596.595s1.959-3.687 10.354-5.233c8.395 1.546 10.353 5.233 10.353 5.233s3.638-1.427 5.597-.595l-5.877 3.211h-20.147z"/><path d="M490.982 185.13l-.144-2.617s1.007-3.687 5.323-5.233c4.316 1.546 5.323 5.233 5.323 5.233l-.144 2.617h-10.358z"/><path d="M485.891 193.11l-.288-3.5s2.014-4.932 10.646-7c8.632 2.068 10.646 7 10.646 7l-.288 3.5h-20.715z"/><path d="M485.891 198.36l-.288-3.5s2.014-4.932 10.646-7c8.632 2.068 10.646 7 10.646 7l-.288 3.5h-20.715z"/><path d="M486.034 214.113l-5.876-8.589c1.959-2.227 5.596 1.591 5.596 1.591s1.959-9.864 10.354-14c8.395 4.137 10.353 14 10.353 14s3.638-3.819 5.597-1.591l-5.877 8.591h-20.147z"/><path d="M486.034 224.611l-5.876-8.589c1.959-2.227 5.596 1.591 5.596 1.591s1.959-9.864 10.354-14c8.395 4.137 10.353 14 10.353 14s3.638-3.819 5.597-1.591l-5.877 8.591h-20.147z"/><path d="M485.891 240.362l-.288-8.75s2.014-12.33 10.646-17.5c8.632 5.171 10.646 17.5 10.646 17.5l-.288 8.75h-20.715z"/><path d="M486.034 240.355l-5.876-6.442c1.959-1.67 5.596 1.194 5.596 1.194s1.959-7.398 10.354-10.5c8.395 3.102 10.353 10.5 10.353 10.5s3.638-2.864 5.597-1.194l-5.877 6.443h-20.147z"/></g></g><g><g><path d="M235.225 202.048l-7.644-6.135c2.549-1.591 7.28 1.137 7.28 1.137s2.548-7.045 13.47-10c10.921 2.955 13.469 10 13.469 10s4.732-2.728 7.281-1.137l-7.645 6.136h-26.21z"/><path d="M231.164 217.945l-9.928-8.589c3.31-2.227 9.456 1.591 9.456 1.591s3.309-9.864 17.494-14c14.184 4.137 17.494 14 17.494 14s6.146-3.819 9.456-1.591l-9.929 8.591h-34.042z"/></g><path d="M221.281 240.87l.174-31.25s3.173 6.126 27.849 7.467c23.354-.793 27.222-4.539 28.28-7.859l-.967 31.758-55.336-.116z"/><g><path d="M248.009 156.248c.313 0 11.894 20.659 0 20.972-11.894.313 0-20.346 0-20.972z"/><path d="M238 182.506l-5.876-3.211c1.959-.833 5.596.595 5.596.595s1.959-3.687 10.354-5.233c8.395 1.546 10.353 5.233 10.353 5.233s3.638-1.427 5.597-.595l-5.877 3.211h-20.147z"/><path d="M242.948 185.13l-.144-2.617s1.007-3.687 5.323-5.233c4.316 1.546 5.323 5.233 5.323 5.233l-.144 2.617h-10.358z"/><path d="M237.857 193.11l-.288-3.5s2.014-4.932 10.646-7c8.632 2.068 10.646 7 10.646 7l-.288 3.5h-20.715z"/><path d="M237.857 198.36l-.288-3.5s2.014-4.932 10.646-7c8.632 2.068 10.646 7 10.646 7l-.288 3.5h-20.715z"/><path d="M238 214.113l-5.876-8.589c1.959-2.227 5.596 1.591 5.596 1.591s1.959-9.864 10.354-14c8.395 4.137 10.353 14 10.353 14s3.638-3.819 5.597-1.591l-5.877 8.591h-20.147z"/><path d="M238 224.611l-5.876-8.589c1.959-2.227 5.596 1.591 5.596 1.591s1.959-9.864 10.354-14c8.395 4.137 10.353 14 10.353 14s3.638-3.819 5.597-1.591l-5.877 8.591h-20.147z"/><path d="M237.857 240.362l-.288-8.75s2.014-12.33 10.646-17.5c8.632 5.171 10.646 17.5 10.646 17.5l-.288 8.75h-20.715z"/><path d="M238 240.355l-5.876-6.442c1.959-1.67 5.596 1.194 5.596 1.194s1.959-7.398 10.354-10.5c8.395 3.102 10.353 10.5 10.353 10.5s3.638-2.864 5.597-1.194l-5.877 6.443h-20.147z"/></g></g><g><rect ry="6.449" height="12.898" width="85.039" y="226.28" x="329.53"/><path d="M415.79 233.86l.546-42.52s-1.64 10.43-6.561 10.43h-75.46c-4.921 0-6.562-10.43-6.562-10.43l.546 42.52h87.49z"/><g><path d="M399.076 214.536l.164-14.7s9.423-1.721 8.115-5.357c-1.308-3.635-12.642 4.584-12.642 4.584h-45.336s-11.334-8.219-12.642-4.584c-1.308 3.635 8.115 5.357 8.115 5.357l.163 14.7h54.06z"/><path d="M404.485 226.536l.197-14.7s11.307-1.721 9.738-5.357c-1.57-3.635-15.17 4.584-15.17 4.584h-54.403s-13.601-8.219-15.17-4.584c-1.569 3.635 9.738 5.357 9.738 5.357l.196 14.7h64.872z"/><path d="M380.534 152.407l.053-6.684s3.062-.783 2.637-2.436c-.425-1.653-3.548-4.792-8.035-8.112-3.158-1.541 4.064-6.876-2.739-7.232-6.243.198-.705 6.086-2.739 7.469-5.049 3.082-9.013 6.222-9.438 7.875-.425 1.653 2.638 2.436 2.638 2.436l.053 6.684h17.57z"/><path d="M391.019 189.753l.116-12.036s6.667-1.409 5.742-4.386c-.925-2.977-8.944 3.753-8.944 3.753h-32.075s-8.019-6.73-8.944-3.753c-.925 2.977 5.742 4.386 5.742 4.386l.115 12.036h38.247z"/><path d="M395.027 199.573l.139-12.036s8.009-1.409 6.898-4.386c-1.112-2.977-10.745 3.753-10.745 3.753h-38.536s-9.634-6.73-10.745-3.753c-1.111 2.977 6.898 4.386 6.898 4.386l.139 12.036h45.951z"/><path d="M384.27 171.89l.075-8.169s4.311-.956 3.713-2.977c-.598-2.02-5.784 2.547-5.784 2.547h-20.741s-5.185-4.568-5.784-2.547c-.598 2.02 3.713 2.977 3.713 2.977l.075 8.169h24.732z"/><path d="M386.918 178.56l.09-8.169s5.183-.956 4.463-2.977c-.719-2.02-6.953 2.547-6.953 2.547h-24.935s-6.234-4.568-6.953-2.547c-.719 2.02 4.463 2.977 4.463 2.977l.09 8.169h29.733z"/><path d="M380.894 158.107l.053-6.684s3.062-.783 2.637-2.436c-.425-1.653-4.109 2.084-4.109 2.084h-14.734s-3.684-3.737-4.109-2.084c-.425 1.653 2.637 2.436 2.637 2.436l.053 6.684h17.57z"/><path d="M382.666 163.567l.064-6.684s3.675-.783 3.165-2.436c-.51-1.653-4.93 2.084-4.93 2.084h-17.681s-4.42-3.737-4.93-2.084c-.51 1.653 3.165 2.436 3.165 2.436l.064 6.684h21.083z"/></g><g><path d="M366.393 163.877l-3.26-3.681c1.087-.955 3.105.682 3.105.682s1.087-4.227 5.745-6c4.658 1.773 5.745 6 5.745 6s2.018-1.637 3.105-.682l-3.261 3.682h-11.179z"/><path d="M364.208 169.876l-4.568-3.681c1.523-.955 4.351.682 4.351.682s1.523-4.227 8.049-6c6.526 1.773 8.049 6 8.049 6s2.828-1.637 4.351-.682l-4.569 3.682h-15.663z"/><path d="M362.94 180.37l-5.213-4.908c1.738-1.273 4.965.909 4.965.909s1.738-5.636 9.185-8c7.447 2.364 9.185 8 9.185 8s3.227-2.182 4.965-.909l-5.213 4.909h-17.873z"/><path d="M360.746 193.265l-6.521-6.135c2.174-1.591 6.21 1.137 6.21 1.137s2.174-7.045 11.49-10c9.316 2.955 11.489 10 11.489 10s4.037-2.728 6.211-1.137l-6.521 6.136h-22.358z"/><path d="M359.219 203.9l12.434 15.489 13.166-15.489h-25.599z"/><path d="M358.551 205.526l-7.829-6.83c2.61-1.771 7.456 1.266 7.456 1.266s2.609-7.844 13.794-11.134c11.184 3.29 13.794 11.134 13.794 11.134s4.846-3.037 7.456-1.266l-7.829 6.832h-26.842z"/><path d="M358.18 220.998l13.471 19.464 14.264-19.464h-27.735z"/><path d="M357.624 223.083l-8.492-8.589c2.831-2.227 8.087 1.591 8.087 1.591s2.831-9.864 14.963-14c12.132 4.137 14.962 14 14.962 14s5.257-3.819 8.088-1.591l-8.493 8.591h-29.115z"/><path d="M357.624 240.357l-8.492-8.589c2.831-2.227 8.087 1.591 8.087 1.591s2.831-9.864 14.963-14c12.132 4.137 14.962 14 14.962 14s5.257-3.819 8.088-1.591l-8.493 8.591h-29.115z"/></g></g><g transform="translate(0 354.33)"><rect height="26.986" width="6.25" y="-90.07" x="285.34"/><rect height="26.986" width="6.25" y="-90.072" x="306.59"/><rect height="26.986" width="6.25" y="-90.073" x="296.59"/><rect height="26.986" width="6.25" y="-90.071" x="410.14"/><rect height="26.986" width="6.25" y="-90.073" x="452.64"/><rect height="26.986" width="6.25" y="-90.074" x="431.39"/><rect height="26.986" width="6.25" y="-90.075" x="421.39"/><rect height="26.986" width="6.25" y="-90.075" x="441.39"/><rect height="26.986" width="6.25" y="-90.071" x="327.84"/><rect height="26.986" width="6.25" y="-90.073" x="316.59"/></g></g></g></svg>