<svg xmlns="http://www.w3.org/2000/svg" height="512" width="512">
  <g clip-path="url(#a)">
    <path fill-rule="evenodd" fill="#e73e2d" d="M-164.281 0h835.768v306.486h-835.768z"/>
    <path d="M204.273 282.06c-19.434-15.173-55.63-10.041-61.592-51.282 27.715 21.468 22.684-1.227 64.077 19.227l-2.486 32.055z" fill-rule="evenodd" stroke="#d8aa3f" stroke-width="1.665" fill="#fec74a"/>
    <path d="M209.512 263.307c-13.853-20.397-49.881-26.598-42.924-67.684 19.808 28.926 21.97 5.78 55.109 37.931l-12.185 29.753z" fill-rule="evenodd" stroke="#d8aa3f" stroke-width="1.665" fill="#fec74a"/>
    <path d="M215.803 250.249c-5.004-24.15-35.934-43.659-13.793-78.975 7.247 34.311 18.096 13.744 36.433 56.133l-22.64 22.842z" fill-rule="evenodd" stroke="#d8aa3f" stroke-width="1.665" fill="#fec74a"/>
    <path d="M230.333 237.568c2.652-24.512-20.785-52.569 11.122-79.371-3.638 34.868 12.998 18.631 17.43 64.589l-28.552 14.781z" fill-rule="evenodd" stroke="#d8aa3f" stroke-width="1.665" fill="#fec74a"/>
    <path d="M243.361 227.58c12.454-21.275 2.558-56.463 42.636-67.851-17.592 30.318 4.23 22.317-10.539 66.055l-32.096 1.796z" fill-rule="evenodd" stroke="#d8aa3f" stroke-width="1.665" fill="#fec74a"/>
    <path d="M262.106 229.935c18.562-16.225 20.342-52.735 61.964-50.818-26.304 23.17-3.07 22.506-30.956 59.299l-31.009-8.481z" fill-rule="evenodd" stroke="#d8aa3f" stroke-width="1.665" fill="#fec74a"/>
    <path d="M278.508 239.528c22.511-10.064 34.933-44.453 74.168-30.4-31.953 14.433-9.543 20.619-47.008 47.613l-27.16-17.213z" fill-rule="evenodd" stroke="#d8aa3f" stroke-width="1.665" fill="#fec74a"/>
    <path d="M292.34 254.709c24.436-3.325 46.032-32.833 79.732-8.308-34.726 4.861-14.959 17.103-58.51 32.469l-21.223-24.161z" fill-rule="evenodd" stroke="#d8aa3f" stroke-width="1.665" fill="#fec74a"/>
    <path d="M379.669 259.747l-112.059 2.492 4.714 30.191 107.346-32.684z" fill-rule="evenodd" stroke="#d8aa3f" stroke-width="1.665" fill="#fec74a"/>
    <path d="M362.971 218.057l-103.808 39.825 17.373 33.362 86.435-73.188z" fill-rule="evenodd" stroke="#d8aa3f" stroke-width="1.665" fill="#fec74a"/>
    <path d="M280.772 280.627l53.697-97.546-82.384 76.718 28.687 20.828z" fill-rule="evenodd" stroke="#d8aa3f" stroke-width="1.665" fill="#fec74a"/>
    <path d="M381.86 573.24l-13.513-82.602-15.405 82.535 28.918.067z" fill-rule="evenodd" transform="matrix(1.264 .418 -.415 1.256 34.91 -607.47)" stroke="#d8aa3f" stroke-width="1.254" fill="#fec74a"/>
    <path d="M272.977 263.692l-18.034-110.242-19.988 110.724 38.022-.482z" fill-rule="evenodd" stroke="#d8aa3f" stroke-width="1.665" fill="#fec74a"/>
    <path d="M263.848 253.994l-52.308-92.04 20.107 111.889 32.201-19.85z" fill-rule="evenodd" stroke="#d8aa3f" stroke-width="1.6652369999999999" fill="#fec74a"/>
    <path d="M255.561 253.489l-81.106-68.467 57.675 97.993 23.431-29.525z" fill-rule="evenodd" stroke="#d8aa3f" stroke-width="1.665" fill="#fec74a"/>
    <path d="M146 218.481l87.116 71.86 13.371-37.618-100.487-34.242z" fill-rule="evenodd" stroke="#d8aa3f" stroke-width="1.665" fill="#fec74a"/>
    <path d="M231.895 260.765l-102.293-1.418 101.87 33.985.422-32.567z" fill-rule="evenodd" stroke="#d8aa3f" stroke-width="1.665" fill="#fec74a"/>
    <path d="M315.206 279.358c0 33.901-27.482 61.383-61.383 61.383s-61.383-27.482-61.383-61.383 27.482-61.383 61.383-61.383 61.383 27.482 61.383 61.383z" fill-rule="evenodd" stroke="#d8aa3f" stroke-width="1.665361" fill="#fec74a"/>
    <path fill-rule="evenodd" fill="#005989" d="M-165.122 303.39h839.892v208.604h-839.892z"/>
    <path d="M-165.594 453.941c15.618 7.227 37.994 25.317 61.927 25.301 40.045-.26 41.111-27.423 81.676-26.131 40.67 1.035 33.314 29.632 88.23 29.489 45.373-.119 60.031-34.663 99.142-30.524 28.965-1.491 40.82 32.711 85.34 33.145 46.176.987 63.131-37.277 92.097-34.11 30.858 0 40.967 30.818 84.259 31.041 55.14.278 64.834-32.076 99.33-30.006 24.552-.518 43.913 23.712 79.893 24.316 28.709.489 52.744-21.212 68.981-28.972l.803-36.824c-17.017 6.327-42.389 27.072-67.762 27.299-36.511 1.336-59.098-23.944-84.471-23.716-30.399.273-42.514 31.282-94.083 31.282-47.112 0-57.922-31.282-88.323-31.282-29.714.228-38.818 34.023-90.26 33.397-41.964-.505-58.314-32.26-88.03-32.032-31.502 0-64.077 30.878-98.958 29.388-48.144-2.034-58.546-29.388-90.047-29.388-23.543 0-48.952 25.633-77.315 26.061-28.208.434-59.897-25.506-62.831-26.061l.402 38.327z" fill-rule="evenodd" fill="#fff"/>
    <path d="M-165.594 381.008c15.618 7.227 37.994 25.317 61.927 25.301 40.045-.26 41.111-27.423 81.676-26.131 40.67 1.035 33.314 29.632 88.23 29.489 45.373-.119 60.031-34.663 99.142-30.524 28.965-1.491 40.82 32.711 85.34 33.145 46.176.987 63.131-37.277 92.097-34.11 30.858 0 40.967 30.818 84.259 31.041 55.14.278 64.834-32.076 99.33-30.006 24.552-.518 43.913 23.712 79.893 24.316 28.709.489 52.744-21.212 68.981-28.972l.803-36.824c-17.017 6.327-42.389 27.072-67.762 27.299-36.511 1.336-59.098-23.944-84.471-23.716-30.399.273-42.514 31.282-94.083 31.282-47.112 0-57.922-31.282-88.323-31.282-29.714.228-38.818 34.023-90.26 33.397-41.964-.505-58.314-32.26-88.03-32.032-31.502 0-64.077 30.878-98.958 29.388-48.144-2.034-58.546-29.388-90.047-29.388-23.543 0-48.952 25.633-77.315 26.061-28.208.434-59.897-25.506-62.831-26.061l.402 38.327z" fill-rule="evenodd" fill="#fff"/>
    <path d="M-165.581 308.867c15.607 7.227 37.965 25.317 61.88 25.301 40.015-.26 41.081-27.423 81.614-26.131 40.639 1.035 33.289 29.632 88.164 29.489 45.339-.119 59.986-34.663 99.068-30.524 28.943-1.491 40.789 32.711 85.277 33.145 46.141.987 63.084-37.277 92.028-34.11 30.835 0 40.936 30.818 84.196 31.041 55.099.278 64.786-32.076 99.256-30.006 24.534-.518 43.88 23.712 79.834 24.316 28.688.489 52.705-21.212 68.929-28.972l.802-36.824c-17.004 6.327-42.357 27.072-67.711 27.299-36.484 1.336-59.054-23.944-84.407-23.716-30.377.273-42.482 31.282-94.012 31.282-47.077 0-57.879-31.282-88.257-31.282-29.692.228-38.789 34.023-90.193 33.397-41.932-.505-58.27-32.26-87.964-32.032-31.478 0-64.029 30.878-98.885 29.388-48.108-2.034-58.502-29.388-89.98-29.388-23.526 0-48.915 25.633-77.257 26.061-28.187.434-59.852-25.506-62.784-26.061l.402 38.327z" fill-rule="evenodd" fill="#fff"/>
    <path d="M136.794 75.92c61.044-4.18 49.918-9.393 74.488-13.315 30.962 4.257 34.503 23.002 51.755 34.503 0 0-6.484 21.925-27.704 18.821-2.853-8.795 10.272-11.514-27.495-34.537-21.957-1.307-61.245 3.853-71.044-5.472z" fill-rule="evenodd" stroke="#d8aa3f" stroke-width="NaN" fill="#ffc84b"/>
    <path d="M326.082 109.914l-43.976 1.81v10.865c29.662.948 35.009-3.018 43.976-12.675z" fill-rule="evenodd" stroke="#d8aa3f" stroke-width="NaN" fill="#ffc84b"/>
    <path stroke-linejoin="round" d="M174.822 108.034c7.664-3.92 11.477-2.32 18.117-2.579 4.57 8.277 8.882 9.054 18.884 10.089 15.262 21.471 36.733 21.729 39.836 21.729 29.921-.777 39.406-21.729 59.496-24.057h21.212c-3.535-6.035-6.295-9.485-13.969-9.83-15.78-.862-36.214-.43-54.063 3.622l-25.092 6.208c-7.33-3.535-25.264-22.332-36.733-21.987-6.725 1.81-6.725 4.139-10.089 6.725-6.467 2.76-12.935 1.437-17.6 10.081z" fill-rule="evenodd" stroke="#d8aa3f" stroke-width="1.665" fill="#ffc84b"/>
    <path d="M204.965 98.749c0 1.752-1.42 3.173-3.172 3.173-1.752 0-3.172-1.42-3.172-3.173s1.42-3.173 3.172-3.173c1.752 0 3.172 1.42 3.172 3.173z" fill-rule="evenodd" stroke="#d8aa3f" stroke-width="1.6642299999999997" fill="#ffc84b"/>
    <path d="M225.532 107.781c44.924-54.15 84.157-47.511 135.291-51.218 1.725 6.295 1.122 15.694-23.281 24.057-33.369 4.915-93.125 40.095-93.384 40.095-11.125-.517-18.885-12.157-18.625-12.934z" fill-rule="evenodd" stroke="#d8aa3f" stroke-width="NaN" fill="#ffc84b"/>
    <path d="M317.826 72.497l33.132 1.436" stroke="#d9a43e" stroke-linecap="round" stroke-width="NaN" fill="none"/>
    <path d="M314.23 77.904l24.15 1.97" stroke="#d9a43e" stroke-linecap="round" stroke-width="NaN" fill="none"/>
  </g>
</svg>
