<svg xmlns="http://www.w3.org/2000/svg" height="512" width="512"><defs><clipPath id="a"><rect fill-opacity=".67" height="416.25" width="416.25"/></clipPath></defs><g clip-path="url(#a)" fill-rule="evenodd" transform="scale(1.23 1.23)"><rect height="104.06" width="625" fill="#ff0"/><rect height="104.06" width="625" y="104.06" fill="#fff"/><rect height="104.06" width="625" y="208.12" fill="#be0027"/><rect height="104.06" width="625" y="312.19" fill="#3b5aa3"/><path d="M0 0v416.238l310.45-207.533-310.45-208.705z" fill="#239e46"/><path d="M127.81 114.98c-69.183-3.51-100.7 51.6-100.63 94.2-.159 50.38 47.582 91.93 91.71 89.43-23.794-11.26-52.85-42.82-53.117-89.64-.244-42.423 23.977-79.31 62.038-93.99z" fill="#fff"/><polygon points="126.77 160.21 117.02 152.58 105.2 156.3 109.44 144.66 102.26 134.57 114.64 135 122.01 125.05 125.42 136.96 137.17 140.9 126.89 147.83" fill="#fff"/><polygon points="126.77 160.21 117.02 152.58 105.2 156.3 109.44 144.66 102.26 134.57 114.64 135 122.01 125.05 125.42 136.96 137.17 140.9 126.89 147.83" transform="translate(-.207 42.327)" fill="#fff"/><polygon points="126.77 160.21 117.02 152.58 105.2 156.3 109.44 144.66 102.26 134.57 114.64 135 122.01 125.05 125.42 136.96 137.17 140.9 126.89 147.83" transform="translate(0 85.069)" fill="#fff"/><polygon points="126.77 160.21 117.02 152.58 105.2 156.3 109.44 144.66 102.26 134.57 114.64 135 122.01 125.05 125.42 136.96 137.17 140.9 126.89 147.83" transform="translate(-.207 128.23)" fill="#fff"/></g></svg>