<svg xmlns="http://www.w3.org/2000/svg" height="512" width="512" version="1">
    <g fill-rule="evenodd" clip-path="url(#a)">
        <path fill="#ffe900" d="M-108.032.218h737.495v511.19h-737.495z"/>
        <path d="M-108.241.239l.856 368.514 573.872-368.754-574.724.24z" fill="#35a100"/>
        <path d="M630.666 511.533l-1.306-383.252-578.998 383.541 580.303-.289z" fill="#c70000"/>
        <path d="M-107.871 396.535l.486 115.361 125.226-.165 611.636-410.057-.687-100.302-123.756-1.134-612.928 396.296z"/>
        <path fill="#fff" d="M457.899 185.241l-44.133-1.551-17.378 41.291-9.829-42.229-44.14-1.489 38.058-24.542-9.906-42.208 33.352 27.058 38.02-24.604-17.444 41.269z"/>
        <path fill="#fff" d="M182.644 364.158l-44.133-1.551-17.378 41.291-9.829-42.229-44.14-1.489 38.058-24.542-9.906-42.208 33.352 27.058 38.02-24.604-17.444 41.269z"/>
    </g>
</svg>
