<svg xmlns="http://www.w3.org/2000/svg" id="flag-icon-css-kn" width="512" height="512">
  <defs>
    <clipPath id="a">
      <path fill-opacity=".67" d="M151.69-.35h745.12v745.12H151.69z"/>
    </clipPath>
  </defs>
  <g fill-rule="evenodd" clip-path="url(#a)" transform="translate(-104.23 .24) scale(.68714)">
    <path fill="#ffe900" d="M-5.3 0h1073.5v744.09H-5.3z"/>
    <path fill="#35a100" d="M-5.84 0l1.25 536.41L830.74-.35-5.83 0z"/>
    <path fill="#c70000" d="M1069.5 744.09l-1.9-557.75-842.62 558.17 844.52-.42z"/>
    <path d="M-5.3 576.85l.7 167.92 182.29-.24 890.3-596.88-1-146L886.85 0-5.33 576.85z"/>
    <path fill="#fff" d="M818.05 269.09l-64.23-2.24L728.54 327l-14.31-61.51-64.23-2.15 55.38-35.77-14.43-61.48 48.54 39.4 55.32-35.85-25.37 60.12zM417.47 529.47l-64.23-2.24-25.28 60.15-14.31-61.51-64.23-2.15 55.38-35.77-14.43-61.48 48.54 39.4 55.32-35.85-25.37 60.12z"/>
  </g>
</svg>
