<svg xmlns="http://www.w3.org/2000/svg" height="512" width="512" version="1">
  <g clip-path="url(#a)">
    <path fill="#006" d="M0 0h1024v512h-1024z"/>
    <path fill-rule="evenodd" fill="#006" d="M0 0h512v256h-512z"/>
    <g>
      <path fill="#fff" d="M0 0v28.622l454.757 227.378h57.241v-28.621l-454.757-227.378h-57.241zm511.998 0v28.621l-454.757 227.378h-57.241v-28.621l454.757-227.378h57.241z"/>
      <path fill="#fff" d="M213.333 0v255.999h85.333v-255.999h-85.333zm-213.333 85.333v85.333h511.998v-85.333h-511.998z"/>
      <path fill="#c00" d="M0 102.4v51.2h511.998v-51.2h-511.998zm230.399-102.4v255.999h51.2v-255.999h-51.2z"/>
      <path fill="#c00" d="M0 255.999l170.666-85.333h38.161l-170.666 85.333h-38.161zm0-255.999l170.666 85.333h-38.161l-132.505-66.252v-19.081zm303.171 85.333l170.666-85.333h38.161l-170.666 85.333h-38.161zm208.827 170.666l-170.666-85.333h38.161l132.505 66.253v19.08z"/>
    </g>
    <g>
      <path d="M307.91 185.907c-1.133.685-3.4 2.739-5.666 2.054-2.266-.685-7.366-9.588-13.032-8.218-5.666 1.369-9.066 3.424-11.332 3.424-2.267 0-8.499 2.054-8.499 7.533 0 5.479.567 9.588 1.7 9.588s2.833-3.424 2.833-3.424.566 6.848 4.533 6.848 12.465.685 13.032 2.74c.567 2.054-3.966 6.848-2.833 10.958 1.133 4.109 6.233 10.957 6.233 10.957s-7.366 5.479-7.366 8.903l1.133 6.849-32.863 1.369s-2.267 97.25-1.133 104.785c1.133 7.53 3.966 26.022 3.966 26.022s-7.366-2.395-13.599 3.769c-6.233 6.164-28.046 16.776-28.613 21.57-.567 4.794-2.55 8.905-.283 12.329 2.266 3.424 10.241 12.727 7.932 12.329-7.607-1.312-10.437-12.119-15.581-16.094-5.054-3.902-15.014-3.082-16.148 1.025-1.133 4.111-.567 10.958 0 12.329.567 1.37 6.799 23.286 8.499 28.08s19.547 11.983 27.48 11.299c15.014.342 21.814-6.505 22.38-5.818.567.683 32.302 33.41 97.455 33.556 50.717.112 88.956-32.873 88.956-32.186 0 .683 20.964 6.847 28.33 4.794 7.366-2.057 18.131-6.851 20.398-11.645 2.267-4.794 8.499-29.45 9.066-33.556.567-4.111 0-8.905-5.099-10.275s-7.932-1.029-10.765.342-3.683 5.139-7.932 11.986c-2.266 2.057-8.216 7.534-6.516 6.164s5.383-11.641 5.949-15.068c.566-3.424 2.266-9.588-1.7-13.011-3.966-3.424-10.041-4.823-16.998-9.929-6.606-4.527-11.898-11.986-15.865-11.986-3.966 0-8.499-2.053-7.932-2.053.566 0 5.109-9.95 3.975-20.221-1.133-10.275.557-108.533-.009-108.533-.566 0-28.33 2.055-28.33.685s2.266-10.958 0-17.121c-2.266-6.164-11.899-10.273-9.066-11.642 2.833-1.37 15.298-4.794 14.732-10.273-.567-5.479-8.499-4.794-11.899-6.848-3.4-2.055-13.599-11.642-14.732-11.642-1.133 0 29.462-18.491 27.197-18.491-2.266 0-14.165-3.424-18.131-1.369 0-3.424 16.432-13.697 13.599-15.067-2.833-1.37-15.865-2.74-12.465-3.424 3.4-.685 4.533-8.903 3.966-8.903-.567 0-14.732 2.055-14.732 2.055s-3.4-4.794-4.533-4.794c-1.133 0-6.233 2.739-6.233 2.739l-2.833-7.533-6.233 4.109-2.833-3.424s-5.099 1.37-5.099 0c.214-.049-.587-3.439-1.388-3.439-.801 0-6.41 4.358-6.611 4.116-.2-.242-6.41-8.959-6.41-8.717 0 .242-4.407 16.465-4.608 16.465-.2 0-4.407.484-4.607.726-.201.242-22.437-12.833-22.236-12.591.2.242 5.809 12.591 5.809 12.591s-4.808 2.664-4.808 2.906.801 5.569.801 5.569l-14.826-5.086s5.609 11.38 5.209 11.38c-.401 0-11.018.484-10.817.484.2 0 5.008 9.443 5.008 9.443l-1.803 5.569s15.957 11.261 14.824 11.946zm94.622 238.33c1.417 2.053 9.065 11.641 7.932 11.641-1.133 0-20.114 12.67-27.764 15.068-7.649 2.395-32.579 6.847-31.163 6.505 1.417-.342 22.387-11.824 30.886-17.3 8.499-5.477 20.107-15.231 20.107-15.914zm-118.424-.346c-1.133 1.37-6.516 11.986-6.516 11.986s15.581 10.958 27.197 15.068c11.615 4.107 31.446 5.477 30.313 5.135-1.133-.342-24.931-10.958-31.73-16.435-6.799-5.481-18.981-15.756-19.265-15.756z" fill-rule="evenodd" fill="#fff"/>
      <g fill-rule="evenodd" stroke="#6d6666" fill="#fec500">
        <path d="M296.724 170.395s9.928 7.182 12.197 8.892 9.644 9.235 10.211 8.893c.568-.342 4.538-4.104 4.538-4.104s-8.226-7.867-13.331-9.577-13.615-3.42-13.615-4.104z"/>
        <path d="M295.306 162.529c.851 0 16.452 9.577 21.274 14.365s6.808 10.945 7.375 10.945c.567 0 7.942-1.368 7.658-1.368-.284 0-3.404-12.313-10.495-16.075-7.091-3.762-25.529-7.867-25.813-7.867z"/>
        <path d="M368.771 137.786c-.284 0-3.12 10.261-3.971 13.339-.851 3.078-2.269 9.577-2.269 9.577s-12.481 1.368-11.914-.342c.568-1.71 19.005-22.574 18.154-22.574z"/>
        <path d="M298.142 150.215s14.75 11.971 19.856 18.812c5.106 6.84 10.211 18.812 10.495 18.812.284 0 13.899-3.42 13.899-3.078s-15.884-19.153-23.543-24.968-20.423-8.893-20.707-9.577z"/>
        <path d="M313.46 147.021s7.375 13.681 8.793 18.47c1.418 4.788 5.673 17.101 5.673 17.101h11.63s-5.673-15.391-11.913-22.916-13.899-11.971-14.183-12.655z"/>
        <path d="M317.428 139.496c.284 1.026 10.779 12.997 13.332 20.864 2.553 7.867 4.538 17.786 4.538 17.786l10.211-3.078s-9.077-20.18-14.75-25.652c-5.673-5.472-12.764-9.234-13.332-9.919z"/>
        <path d="M402.242 171.764s-21.274 2.736-28.932 5.131l-11.914 11.287s9.928 4.446 10.495 3.762 6.524-7.867 13.048-10.603c6.524-2.736 17.87-9.235 17.303-9.577z"/>
        <path d="M401.39 155.003c-.568.342-17.586 17.102-22.976 22.574-5.389 5.472-10.495 11.287-11.062 11.629-.567.342-11.062-1.71-10.495-2.394.568-.684 15.601-15.391 25.529-21.89 9.928-6.499 18.154-9.235 19.005-9.919z"/>
        <path d="M397.136 143.031c-1.702 2.394-18.437 18.812-22.976 24.626l-11.913 16.075s-8.793-4.789-8.226-6.841c.567-2.052 12.48-14.023 20.99-20.864 8.509-6.841 22.976-12.313 22.125-12.997z"/>
        <path d="M380.118 141.662c-.284.342-10.211 12.997-12.197 16.417-1.985 3.42-7.942 18.47-7.942 18.47s-8.793-9.235-8.793-9.577 11.062-14.365 17.586-19.838 11.63-4.446 11.346-5.472z"/>
        <path d="M355.526 160.35c0 2.404-1.616 4.353-3.61 4.353-1.994 0-3.61-1.949-3.61-4.353s1.616-4.353 3.61-4.353c1.994 0 3.61 1.949 3.61 4.353z"/>
        <path d="M362.747 166.157c0 2.137-1.616 3.87-3.61 3.87-1.994 0-3.61-1.732-3.61-3.87s1.616-3.87 3.61-3.87c1.994 0 3.61 1.732 3.61 3.87z"/>
        <path d="M346.701 161.802c0 2.137-1.976 3.87-4.413 3.87-2.437 0-4.413-1.732-4.413-3.87s1.976-3.87 4.413-3.87c2.437 0 4.413 1.732 4.413 3.87z"/>
        <path d="M358.334 169.785c0 4.141-2.245 7.497-5.014 7.497s-5.014-3.357-5.014-7.497c0-4.141 2.245-7.497 5.014-7.497s5.014 3.357 5.014 7.497z"/>
        <path d="M344.697 170.026c0 3.206-2.245 5.804-5.014 5.804s-5.014-2.599-5.014-5.804c0-3.206 2.245-5.804 5.014-5.804s5.014 2.599 5.014 5.804z"/>
        <path d="M337.876 174.623c0 2.805-1.706 5.079-3.811 5.079s-3.811-2.274-3.811-5.079c0-2.805 1.706-5.079 3.811-5.079s3.811 2.274 3.811 5.079z"/>
        <path d="M365.955 174.136c0 3.339-2.604 6.046-5.817 6.046-3.212 0-5.817-2.707-5.817-6.046 0-3.339 2.604-6.046 5.817-6.046 3.212 0 5.817 2.707 5.817 6.046z"/>
        <path d="M351.917 165.429c0 2.004-2.065 3.628-4.613 3.628-2.548 0-4.613-1.624-4.613-3.628s2.065-3.628 4.613-3.628c2.548 0 4.613 1.624 4.613 3.628z"/>
        <path d="M352.718 173.412c0 2.939-2.874 5.321-6.418 5.321s-6.418-2.382-6.418-5.321c0-2.939 2.874-5.321 6.418-5.321s6.418 2.382 6.418 5.321z"/>
        <path d="M369.164 182.843c0 3.606-2.694 6.53-6.017 6.53s-6.017-2.924-6.017-6.53 2.694-6.53 6.017-6.53c3.323 0 6.017 2.924 6.017 6.53z"/>
        <path d="M336.272 181.15c0 2.404-1.527 4.353-3.41 4.353s-3.41-1.949-3.41-4.353 1.527-4.353 3.41-4.353 3.41 1.949 3.41 4.353z"/>
        <path d="M360.339 180.426c0 3.072-2.335 5.563-5.215 5.563s-5.215-2.49-5.215-5.563c0-3.072 2.335-5.563 5.215-5.563s5.215 2.49 5.215 5.563z"/>
        <path d="M343.893 180.185c0 2.671-2.065 4.837-4.613 4.837-2.548 0-4.613-2.166-4.613-4.837s2.065-4.837 4.613-4.837c2.548 0 4.613 2.166 4.613 4.837z"/>
        <path d="M351.917 181.632c0 2.939-2.155 5.321-4.814 5.321-2.659 0-4.814-2.382-4.814-5.321 0-2.939 2.155-5.321 4.814-5.321 2.659 0 4.814 2.382 4.814 5.321z"/>
        <path d="M331.055 149.708c1.203 0 9.628 3.386 9.628 3.386s-10.43 4.837-8.825 4.353 11.633-1.935 10.831-1.935c-.802 0-8.825 9.19-6.418 8.706 2.407-.483 7.221-6.288 7.622-6.288.401 0 5.215 9.19 5.616 8.706l.401-9.19c.401 0 10.029 5.804 9.226 5.321-.802-.484-6.418-7.255-6.017-7.255.401 0 13.238 1.451 12.436.967-.802-.483-8.424-4.837-8.424-4.837s5.616-6.288 4.413-6.288-10.43 6.288-9.628 5.804c.802-.483 10.029-13.059 10.029-13.059l-9.226 5.321s1.605-7.739.802-7.256c-.802.484-7.221 10.158-7.622 10.158l-2.006-9.674s.401 10.641-2.005 11.125c-2.407.484-10.831 2.419-10.831 1.935z"/>
      </g>
      <g fill-rule="evenodd">
        <path d="M304.875 227.841c.2.967 6.619 18.381 16.447 17.897s13.839-3.386 13.438-3.628c-.401-.242-4.613-3.144-7.02-9.432-2.407-6.288-2.808-8.949-2.808-8.949l-20.057 4.111z" fill="#00389b"/>
        <path d="M339.975 221.069s7.221 17.171 10.43 19.589c3.209 2.419 10.63 4.353 13.84 4.112 3.209-.242 7.02 0 7.02 0s-3.209-1.693-5.817-11.125l-3.41-12.576h-22.063z" fill="#00389b"/>
        <path d="M384.101 227.357s-1.404 12.576 0 15.72 8.424 8.949 8.424 8.949 8.424-1.209 8.624-8.949c.201-7.739-2.808-14.995-2.808-14.995l-14.241-.726z" fill="#00389b"/>
        <path d="M288.94 21.015s1.163 4.651 0 8.139-11.046 12.79-11.046 20.348 11.627 30.812 47.091 31.394c35.463.581 80.229-19.185 79.647-19.767-.58-.581-84.88-56.974-86.04-56.393-1.16.582-29.65 17.441-29.65 16.279z" stroke="#000" stroke-width="1pt" fill="#005120" transform="matrix(.345 0 0 .416 198.185 196.565)"/>
        <path d="M523.23 61.129s7.557 20.348 10.464 22.674c2.907 2.325 4.07 6.976 4.651 6.976l48.835 10.464s4.651-13.371-2.325-23.836c-6.977-10.465-33.138-37.789-33.138-37.789l-28.49 21.511z" stroke="#000" stroke-width="1pt" fill="#005120" transform="matrix(.345 0 0 .416 198.185 196.565)"/>
        <path d="M556.37 36.13c1.162 0 12.79 9.883 22.092 4.651 9.301-5.232 24.417-19.185 24.417-19.185s-12.79 4.07-22.092 3.488c-9.302-.582-23.836 11.627-24.417 11.046z" stroke="#000" stroke-width="1pt" fill="#005120" transform="matrix(.345 0 0 .416 198.185 196.565)"/>
        <path d="M287.2 23.34s-3.488-9.883-12.79-10.465c-9.302-.581-26.162 1.163-31.975-3.488-5.814-4.651-7.558-15.697-10.465-15.116-2.907.581-10.465 0-11.046 0s-3.488-9.302 4.651-13.953 15.116-.581 19.766-4.07c4.651-3.488 11.628-5.814 20.93-6.395 9.302-.581 24.417 11.628 31.394 14.534 6.976 2.907 22.092 6.395 27.905 3.488 5.814-2.907 38.371-15.697 49.998-16.278 11.627-.581 36.045-1.163 45.347-.581 9.302.581 45.928 5.232 56.974 10.465 11.046 5.232 69.764 25.58 77.903 30.231 8.139 4.651 26.162 11.627 26.162 11.627s-31.976 31.394-47.672 36.626c-15.697 5.232-65.695 13.372-95.345 11.627-29.65-1.744-52.904-4.651-75.578-16.278-22.68-11.626-47.1-22.672-48.26-28.486-1.16-5.813-.58-13.371-.58-13.371l-27.324 9.883z" stroke="#000" stroke-width="1pt" fill="#005120" transform="matrix(.345 0 0 .416 198.185 196.565)"/>
        <path d="M251.15-14.449c-1.163.581-6.976 2.907-5.814 4.07 1.163 1.163 3.489 4.651 10.465 4.069 6.977-.581 14.534-4.651 14.534-4.651s-8.72-4.07-19.185-3.488z" stroke="#000" stroke-width="1pt" fill="#005120" transform="matrix(.345 0 0 .416 198.185 196.565)"/>
        <path d="M250.57-13.286v6.395s8.139 2.325 8.139.581c0-1.744.581-5.814-1.163-5.814s-6.395-.581-6.976-1.163z" stroke="#000" stroke-width="1pt" transform="matrix(.345 0 0 .416 198.185 196.565)"/>
        <path d="M331.95-8.453c2.056-3.7 0-8.633 11.922-14.388 11.921-5.755 32.681-4.111 32.681-4.111s-5.96 4.522-6.166 9.249c-.205 4.728.411 6.783.411 6.783s-11.305-3.7-19.938-1.439-18.704 4.522-18.91 3.905z" stroke="#000007" stroke-width="1pt" fill="#001707" transform="matrix(.345 0 0 .416 198.185 196.565)"/>
        <path d="M385.4-28.596c-1.233.617-10.277 10.688-9.25 13.772 1.028 3.083 13.155 10.483 17.061 9.866 3.905-.617 21.787-9.249 22.815-13.566 1.028-4.316 1.85-10.072.411-11.305-1.439-1.233-30.832 1.644-31.037 1.233z" stroke="#000007" stroke-width="1pt" fill="#001707" transform="matrix(.345 0 0 .416 198.185 196.565)"/>
        <path d="M424.66-30.24c-2.261 2.261-1.439 13.155-.617 14.388.822 1.233 15.005 15.416 18.088 16.238 3.083.822 25.899-1.439 27.749-3.905s7.399-12.949 5.755-15.416c-1.645-2.467-6.578-5.755-21.788-9.044s-24.254-2.878-29.187-2.261z" stroke="#000007" stroke-width="1pt" fill="#001707" transform="matrix(.345 0 0 .416 198.185 196.565)"/>
        <path d="M482.82-16.469c3.7 1.85 25.282 12.333 38.026 20.76 12.743 8.427 17.882 18.088 21.582 18.91 3.7.822 18.704-8.222 19.321-10.688.617-2.467-18.293-15.621-31.037-21.582s-47.892-6.783-47.892-7.4z" stroke="#000007" stroke-width="1pt" fill="#001707" transform="matrix(.345 0 0 .416 198.185 196.565)"/>
        <path d="M478.3-7.63c-1.85 1.644 23.021 45.014 27.748 46.453 4.728 1.439 33.093-8.427 32.682-11.716-.41-3.288-7.81-9.866-25.28-19.526-17.47-9.661-31.65-16.033-35.15-15.21z" stroke="#000007" stroke-width="1pt" fill="#001707" transform="matrix(.345 0 0 .416 198.185 196.565)"/>
        <path d="M447.47 8.196c-3.905 2.261-10.071 41.109-6.166 42.959 3.905 1.85 52.003-4.728 53.853-9.044 1.849-4.316-19.733-38.642-26.105-38.642-6.371 0-17.882 1.644-21.582 4.728z" stroke="#000007" stroke-width="1pt" fill="#001707" transform="matrix(.345 0 0 .416 198.185 196.565)"/>
        <path d="M397.73-.025c-5.14 4.728-4.11 40.903-1.85 43.164 2.261 2.261 30.831 9.661 33.914 6.989 3.084-2.672 7.195-43.37 4.317-46.453-2.878-3.083-10.894-10.483-17.06-11.099-6.167-.617-16.444 5.961-19.321 7.4z" stroke="#000007" stroke-width="1pt" fill="#001707" transform="matrix(.345 0 0 .416 198.185 196.565)"/>
        <path d="M333.19-.642c-4.728 3.7-4.933 13.36.205 15.005 5.139 1.644 17.882 7.194 29.804 12.333 11.922 5.139 18.705 11.305 22.199 11.099 3.494-.206 6.783-36.381 3.083-38.437-3.7-2.055-14.594-3.7-24.871-3.289-10.277.411-25.282 1.439-30.42 3.289z" stroke="#000007" stroke-width="1pt" fill="#001707" transform="matrix(.345 0 0 .416 198.185 196.565)"/>
      </g>
      <path d="M240.17 388c2.906-2.829 7.426-9.745 13.559-10.059 6.134-.315 12.592 5.344 12.592 5.344s6.457 26.406 6.134 26.406l-10.977 7.544c-.323 0-4.52-10.374-8.394-9.432-3.874.944-3.551 15.089-4.197 14.147-.646-.944-17.111-20.433-16.465-21.062.646-.629 8.071-11.945 7.748-12.888z" fill-opacity=".996" fill-rule="evenodd" fill="#d40f0f"/>
      <path d="M410.646 384.54c1.937-.314 10.654-6.916 16.788-6.601 6.135.314 9.687 3.143 12.915 5.972 3.228 2.829 7.103 10.059 7.103 10.059s-7.748 21.376-8.394 21.376-3.875 1.887-4.521.315-2.582-6.602-6.457-7.231c-3.873-.629-4.843 6.916-4.843 6.916l-12.591-30.806z" fill-opacity=".996" fill-rule="evenodd" fill="#d40f0f"/>
      <path d="M414.841 391.149c0 1.887 11.946 31.437 31.317 37.094 19.37 5.659 25.505-5.344 27.764-9.115 2.26-3.773 10.332-3.458 10.332-3.458s-1.937 27.664-5.166 31.121c-3.228 3.458-5.812 11.002-23.89 11.316-18.078.315-34.545-16.974-40.032-22.004-5.49-5.03-12.593-18.231-15.498-24.205-2.904-5.972 15.497-20.117 15.174-20.747z" fill-rule="evenodd" fill-opacity=".996" fill="#fddc59"/>
      <path d="M204.335 449.924c.323 0 8.717 9.117 20.985 8.173 12.269-.942 33.254-8.173 42.939-20.747 9.685-12.573 14.528-26.091 14.528-26.091s-14.205-25.148-14.528-25.148c-.323 0-1.614 8.173-4.197 13.517-2.583 5.344-9.685 20.432-21.631 25.149-11.946 4.715-11.946 6.601-16.788 5.972-4.843-.629-17.434-8.173-17.434-8.488 0-.314-6.134 14.775-6.134 14.775s-1.291 9.745 2.26 12.888z" fill-opacity=".996" fill-rule="evenodd" fill="#fddc59"/>
      <path d="M239.952 387.126c-.913 0-23.742 12.448-22.829 17.783.913 5.334 39.266 80.91 121.447 81.798 82.183.89 132.411-68.463 128.756-80.021-3.652-11.557-29.22-24.895-29.22-24.895s6.391 5.334 5.479 12.448c-.914 7.113-29.222 68.463-100.448 66.686-71.227-1.779-105.014-56.015-105.014-62.239 0-6.223 3.653-9.78 1.826-11.559z" fill-rule="evenodd" fill-opacity=".996" fill="#fddc59"/>
      <path d="M462.617 442.074c1.938-1.572 13.884-34.265 20.663-33.322 6.781.944 4.521 10.687 3.875 13.203-.646 2.514-7.426 25.148-7.426 25.148s.324-5.344-4.197-6.601c-4.519-1.257-11.946 2.201-12.915 1.572z" fill-opacity=".996" fill-rule="evenodd" fill="#d40f0f"/>
      <path d="M204.335 450.257c0-1.777-5.479-8.002.913-9.78 6.392-1.777 14.611 1.779 14.611 1.779s-4.566-13.338-10.045-24.007c-5.479-10.669-7.305-8.89-11.871-7.113-4.566 1.779-4.455 6.485-1.715 13.597 2.739 7.113 8.108 27.303 8.108 25.524z" fill-rule="evenodd" fill-opacity=".996" fill="#d40f0f"/>
      <g>
        <path fill-rule="evenodd" fill="#fdc400" d="M279.577 389.569l7.92-26.876-21.996-16.894 27.548-.636 8.985-26.522 9.108 26.477 27.548.511-21.921 16.997 8.039 26.835-22.651-15.971z"/>
        <path d="M428.634 249.494v103.27c.204 50.471-51.343 94.667-85.57 103.27-34.231-8.603-85.774-52.799-85.57-103.266v-103.27h171.141z" fill-rule="evenodd" fill="#fff"/>
        <path d="M177.16 325.98l.421 160.73s2.386-3.288 35.012-1.284c32.627 2.004 35.433 35.433 70.867 35.433l70.866-35.433s35.433 35.433 70.866 35.433 35.433-35.433 70.866-35.433 35.433 35.433 72.87 37.459c33.429-2.026 33.429-37.459 69.062-39.463l35.233 2.004v-159.45h-496.06z" fill-rule="evenodd" fill-opacity=".996" transform="matrix(.345 0 0 .402 196.185 118.428)" stroke="#000" stroke-width="1pt" fill="#d40f0f"/>
        <path d="M257.49 334.974v21.366h12.224c11.256.806 12.224 14.244 24.449 14.244 12.224 0 12.224-14.244 24.449-14.244s12.224 14.244 24.449 14.244 12.225-14.244 24.449-14.244 11.533 13.43 24.449 14.244c11.533-.814 12.155-13.438 24.449-14.244h12.224v-21.366h-12.224c-12.224 0-12.224 14.244-24.449 14.244-12.224 0-12.224-14.244-24.449-14.244s-12.224 14.244-24.449 14.244c-12.224 0-12.224-14.244-24.449-14.244s-12.224 14.244-24.449 14.244-12.224-14.244-24.449-14.244h-12.224z" fill-rule="evenodd" fill-opacity=".996" fill="#0062bb"/>
        <path d="M261.178 377.716l8.537 21.366c11.256.806 12.224 14.244 24.449 14.244 12.224 0 12.224-14.244 24.449-14.244s12.224 14.244 24.449 14.244 12.225-14.244 24.449-14.244 11.533 13.43 24.449 14.244c11.533-.814 11.872-13.438 24.165-14.244l8.821-21.697-8.537.33c-12.224 0-12.224 14.244-24.449 14.244-12.224 0-12.224-14.244-24.449-14.244s-12.224 14.244-24.449 14.244c-12.224 0-12.224-14.244-24.449-14.244s-12.224 14.244-24.449 14.244-12.224-14.244-24.449-14.244h-8.537z" fill-rule="evenodd" fill-opacity=".996" fill="#0062bb"/>
        <path d="M343.064 456.072c12.225 0 40.234-21.366 39.948-21.366.284 0-3.275-14.244-15.5-14.244s-12.224 14.244-24.449 14.244c-12.224 0-12.224-14.244-24.449-14.244s-15.345 14.244-15.372 14.244c-.568 0 27.596 21.366 39.82 21.366z" fill-rule="evenodd" fill-opacity=".996" fill="#0062bb"/>
        <g>
          <path d="M90.849 117.57c.822 0 8.222 1.233 13.565.822 5.344-.411 7.4-2.467 7.4-2.878v-1.233h6.988s1.233 5.755.411 6.166-2.878 2.056-3.289 2.056 0-2.878-.822-2.056l-1.233 2.056s-.822-1.234-1.233-1.234l-1.233 1.234s0-1.234-.412-1.234c-.411 0-2.466 2.056-2.466 2.056l-2.055-1.645s-1.234 2.056-1.645 2.056l-2.877-1.644-4.111 2.466s0-3.7-.822-3.289c-.822.411-5.344.411-5.344.411s-1.233 2.467-1.644 2.467-2.055-2.055-1.644-2.055 1.233-1.234.822-1.645l-2.466-.411s-.822-2.878-.411-2.878l2.055.412v-2.467h2.055l.411 2.467z" fill-rule="evenodd" fill-opacity=".996" transform="matrix(1.683 0 0 1.465 126.598 126.587)" stroke="#000" stroke-width=".625" fill="#fdc400"/>
          <path d="M98.248 94.136c-.411 0-3.289 3.289-2.878 6.988.411 3.7 7.4 9.044 7.4 9.044s3.7-1.644 4.933 0 1.233 6.577.822 6.577-5.344 1.234-5.344.411c0-.822 0-1.644-.411-1.644l-4.933.411.411-1.644-4.111-.822 1.644-1.645s-6.577-2.877-6.166-2.877l2.878-1.644-4.933-3.289h2.878s-4.111-3.289-3.7-3.289c.411 0 2.466.411 2.466.411l-1.233-3.288h1.233l-1.233-2.466 2.055-.822 1.233 2.055-.411-4.933 2.877.411v4.111s1.233-2.466 1.233-2.878c0-.411 3.7 1.644 3.289.822z" fill-rule="evenodd" fill-opacity=".996" transform="matrix(1.683 0 0 1.465 126.598 126.587)" stroke="#000" stroke-width=".625" fill="#fdc400"/>
          <path d="M399.522 301.84c-.866.753-3.462 2.408-3.462 2.408s5.886-.451 5.712-.451-2.076-1.506-2.25-1.957z" fill-opacity=".996" fill-rule="evenodd"/>
          <path d="M404.541 304.697c-.345.451-1.384 5.119-.692 4.817.692-.3 3.461-3.764 3.461-3.764l-2.768-1.053z" fill-opacity=".996" fill-rule="evenodd"/>
          <path d="M412.489 305.298c.864.753 4.845 4.215 4.326 3.462-.519-.752-1.039-3.914-1.384-4.064-.347-.151-2.597.902-2.942.602z" fill-opacity=".996" fill-rule="evenodd"/>
          <path d="M342.755 300.331c-.519.151-4.845 3.012-4.845 3.012s7.268-1.206 6.921-1.206c-.345 0-2.25-1.354-2.076-1.806z" fill-opacity=".996" fill-rule="evenodd"/>
          <path d="M347.251 303.95c-.692.602-2.942 4.817-2.076 4.667.866-.151 4.673-2.861 4.673-2.861l-2.597-1.806z" fill-opacity=".996" fill-rule="evenodd"/>
          <path d="M344.473 298.075c-.519-.151-4.154-1.657-3.981-1.657l4.847-1.053-.866 2.71z" fill-opacity=".996" fill-rule="evenodd"/>
          <path d="M275.947 296.127l-5.192-3.614 6.577 1.806-1.385 1.808z" fill-opacity=".996" fill-rule="evenodd"/>
          <path d="M271.448 298.529c-.692 0-7.269 3.613-7.096 3.613s9.172.151 8.999 0c-.173-.149-1.558-3.311-1.904-3.613z" fill-opacity=".996" fill-rule="evenodd"/>
          <path d="M275.6 303.803c-.692.302-5.884 3.764-5.538 3.764.346 0 7.788.151 7.788 0s-2.077-3.613-2.25-3.764z" fill-opacity=".996" fill-rule="evenodd"/>
          <path d="M274.908 266.308s-1.904-4.216-1.731-4.216c.173 0 4.846 3.312 4.846 3.312l-3.115.903z" fill-opacity=".996" fill-rule="evenodd"/>
          <path d="M280.1 261.039c0-.15.519-2.71.519-2.71s4.673 3.162 4.5 3.162c-.173 0-4.673 0-5.019-.452z" fill-opacity=".996" fill-rule="evenodd"/>
          <path d="M287.37 262.996c0-.151.519-3.914.519-3.914s4.327 5.119 3.981 5.27c-.346.151-4.154-.753-4.5-1.355z" fill-opacity=".996" fill-rule="evenodd"/>
          <path d="M137.26 110.86c0 .206 4.316 3.7 4.419 4.522.102.822-7.811 1.028-7.811 1.028s-2.261-1.747-2.98-1.645c-.72.103-1.028 1.85-1.028 1.85l1.85 1.028-3.494.205 1.028 1.953 2.672-.206-.617 1.85s1.644 1.234 1.953 1.028c.308-.205 1.336-2.055 2.158-2.364.822-.308 2.569-.308 2.569-.308s-1.336 2.261-.719 2.261c.616 0 3.391-2.364 3.391-2.364s.617 2.158.719 2.158c.103 0 2.056-2.466 2.056-2.466s0 1.953.308 1.953l3.186-2.467s2.261 2.878 2.569 2.672c.309-.205.617-3.083.925-3.083s2.261-.308 2.261-.411-1.233-1.131-1.439-2.569c-.205-1.439.206-4.83.103-4.83s-13.874.513-14.079.205z" fill-rule="evenodd" fill-opacity=".996" transform="matrix(1.683 0 0 1.465 125.449 126.918)" stroke="#000" stroke-width=".625" fill="#fdc400"/>
          <path d="M115.37 104.6h40.286c4.111 0 7.81-1.644 7.81-4.111 0-2.466-6.577-2.877-9.043-2.055-2.467.822-13.155 5.755-17.677 5.344s-8.632-3.289-9.043-6.166c-.412-2.878 2.055-5.344 6.577-5.344s10.277 1.644 11.51 1.233 4.111-3.7 5.344-4.111c1.233-.411 4.933-.822 4.933-.822l-1.644 1.233 5.344-1.233s-4.111 4.522-8.222 5.755c-4.111 1.233-12.743.822-16.032.822s-4.933-.411-4.522 2.055c.411 2.466 2.878 4.111 4.933 3.699 2.056-.411 8.222-2.466 8.222-2.466l-1.645-1.233 7.4-.411s-.411-1.233 0-1.233l4.111.411s-2.467-1.233-2.056-1.233 2.056 0 5.344.411c3.289.411 10.277 1.644 9.866 4.933-.411 3.289-2.877 6.166-5.755 6.166s-5.344-.822-5.344.412c0 1.233 3.289 2.055 5.344 2.055s4.522-1.644 4.933-1.644 1.233 2.466 1.644 2.466l2.878-.822-1.644 4.522 2.877.822s-1.644 1.644-1.233 1.644 2.877 0 2.877.411-3.288 2.878-3.288 3.289l2.466 1.644s-1.644 2.467-2.055 2.056l-2.056-2.467s-.411 1.645-1.233 1.645l-2.466-.411s1.233-2.467.822-2.467-2.467 1.644-2.467 1.233l-1.232-1.236s3.288-1.336 3.288-3.289c0-1.952-1.336-3.905-7.296-4.213-5.961-.309-6.064 1.438-10.483 1.233-4.419-.206-4.419-1.953-7.708-1.953-3.288 0-13.463 4.111-18.19 4.008-4.727-.102-10.688-.411-10.483-.616.206-.206 3.906-9.661 4.008-9.966z" fill-rule="evenodd" fill-opacity=".996" transform="matrix(1.683 0 0 1.465 125.449 126.918)" stroke="#000" stroke-width=".625" fill="#fdc400"/>
          <path d="M106.88 102.46c-.411.206-4.008.72-4.214 4.522-.205 3.803.309 3.803.72 3.597.411-.205 1.233-3.494 1.233-3.494s-1.233 4.522.103 5.55c1.336 1.027 2.775 1.438 2.775 1.438l.513-3.597s-1.027 3.495 1.439 4.728c2.467 1.233 3.392.308 3.186-.617-.205-.925-.925-3.288-.925-3.288s1.953 2.158 2.056 2.363c.102.206 1.027 1.85 3.494 1.131 2.466-.72.719-2.364.719-2.364l-2.98-2.46s3.083 3.185 4.419 2.055-1.028-3.597-.925-3.494 1.953 3.494 2.672 1.336-1.13-2.775-1.747-4.83c-.617-2.056-1.131-2.261-.514-3.495.617-1.233.72-3.596.72-3.596s2.569.617 2.363-1.542c-.205-2.158-2.775-2.672-3.288-2.775-.514-.103-.412-2.261-.617-2.158-.206.103-1.85 1.336-1.85 1.336s-1.439-3.392-1.747-3.186-1.953 1.953-3.186 2.055c-1.233.103-1.953 1.85-1.953 1.85s-4.316-2.055-4.213 1.336c.103 3.392 2.569 2.569 2.569 2.672s-.411 4.728-.822 4.933z" fill-rule="evenodd" fill-opacity=".996" transform="matrix(1.683 0 0 1.465 126.598 126.587)" stroke="#000" stroke-width=".625" fill="#fdc400"/>
          <path d="M310.686 268.986c.833-.255 2.057-1.318 3.476-1.19s3.692 1.216 2.567 1.811c-1.127.595-1.958.85-3.231.551-1.271-.299-2.249-.938-2.811-1.173z" fill-opacity=".996" fill-rule="evenodd"/>
          <path d="M324.945 268.835c-.833-.255-2.057-1.318-3.476-1.19s-3.692 1.216-2.567 1.811c1.127.595 1.958.85 3.231.551 1.271-.299 2.249-.938 2.811-1.173z" fill-opacity=".996" fill-rule="evenodd"/>
          <path d="M110.99 103.17c.103.514.411 4.831.616 4.522.206-.308 1.748-4.419 1.645-4.419s-2.158.103-2.261-.103z" fill-rule="evenodd" fill-opacity=".996" transform="matrix(1.683 0 0 1.465 126.832 126.659)" stroke="#000" stroke-width=".375" fill="#000039"/>
          <path d="M109.96 103.17c.049-1.215.822-1.13 2.467-.925 1.644.206 2.466 1.028 2.363 1.234-.102.205-1.438.719-2.569.616-1.336-.411-2.298.089-2.261-.925z" transform="matrix(1.683 0 0 1.465 126.832 126.873)" stroke="#000" stroke-width=".75" fill="none"/>
          <path d="M112.43 100.08l-.206 1.953" transform="matrix(1.683 0 0 1.465 126.832 126.873)" stroke="#000" stroke-width="1pt" fill="none"/>
          <path d="M119.32 94.844s1.336.617 1.131 1.233c-.206.617-1.131.925-1.131.925" transform="matrix(1.683 0 0 1.465 126.832 126.873)" stroke="#000" stroke-width="1pt" fill="none"/>
          <path d="M108.12 94.33c-.308.103-.719.308-.925 1.131-.205.822.925 1.336.925 1.336" transform="matrix(1.683 0 0 1.465 126.832 126.873)" stroke="#000" stroke-width="1pt" fill="none"/>
          <path d="M111.19 136.13s-1.454 1.454 1.017 1.454l.727-1.308" transform="matrix(1.683 0 0 1.465 127.076 71.938)" stroke="#000" stroke-width="1pt" fill="none"/>
        </g>
        <path fill-rule="evenodd" fill="#fdc400" d="M323.734 437.978l7.2-23.636-19.996-14.858 25.044-.559 8.168-23.325 8.28 23.285 25.044.449-19.928 14.948 7.308 23.601-20.592-14.046z"/>
        <path fill-rule="evenodd" fill-opacity=".996" fill="#003017" d="M327.044 431.659l5.994-18.777-16.647-11.803 20.849-.444 6.8-18.53 6.893 18.498 20.849.357-16.59 11.875 6.084 18.749-17.143-11.158z"/>
        <path fill-rule="evenodd" fill="#fdc400" d="M282.385 390.383l7.11-22.376-19.746-14.066 24.731-.53 8.066-22.082 8.176 22.044 24.731.425-19.679 14.152 7.217 22.343-20.335-13.297z"/>
        <path fill-rule="evenodd" fill-opacity=".996" fill="#003017" d="M285.738 384.133l5.922-17.757-16.447-11.162 20.599-.42 6.718-17.523 6.81 17.494 20.599.337-16.391 11.23 6.011 17.73-16.937-10.552z"/>
        <path fill-rule="evenodd" fill="#fdc400" d="M365.316 390.383l7.2-22.376-19.996-14.066 25.044-.53 8.168-22.082 8.28 22.044 25.044.425-19.928 14.152 7.308 22.343-20.592-13.297z"/>
        <path fill-rule="evenodd" fill-opacity=".996" fill="#003017" d="M368.921 384.133l6.012-17.757-16.697-11.162 20.912-.42 6.82-17.523 6.914 17.494 20.912.337-16.64 11.23 6.102 17.73-17.194-10.552z"/>
      </g>
      <path d="M223.666 402.987c9.009 38.769 47.029 67.544 98.239 74.348 65.776 8.74 128.526-24.586 140.065-74.387" fill="none"/>
      <path d="M223.818 408.976l12.358-6.979 1.163 2.54-4.847 2.737 1.604 3.503 4.847-2.737 1.163 2.54-12.358 6.979-1.163-2.54 5.601-3.163-1.604-3.503-5.601 3.163-1.163-2.54m5.173 10.808l11.538-8.537 3.948 6.582-1.918 1.419-2.526-4.21-2.667 1.973 2.351 3.919-1.828 1.353-2.351-3.919-3.177 2.35 2.585 4.31-1.948 1.441-4.008-6.682m8.04 12.397l10.178-10.455 1.742 2.092-3.992 4.101 2.402 2.885 3.992-4.101 1.742 2.092-10.178 10.455-1.742-2.092 4.613-4.739-2.402-2.885-4.613 4.739-1.742-2.092m13.291 6.191l1.651 1.609 3.002-5.667-4.653 4.058m-6.457 1.93l11.49-9.289 2.606 2.538-6.772 13.885-2.091-2.037 1.783-3.41-2.234-2.176-2.798 2.421-1.983-1.932m10.025 9.31l6.847-10.369-2.396-1.951 1.352-2.048 6.875 5.6-1.352 2.048-2.396-1.951-6.847 10.369-2.083-1.697m5.623 4.493l7.222-13.143 2.19 1.485-2.833 5.155 3.02 2.047 2.833-5.155 2.19 1.485-7.222 13.143-2.19-1.485 3.273-5.957-3.02-2.047-3.273 5.957-2.19-1.485m13.576 8.587l5.827-13.971 6.576 3.383-.954 2.286-4.231-2.177-1.377 3.302 3.994 2.055-.931 2.232-3.994-2.055-2.566 6.151-2.344-1.206m12.859-2.122c-.809 2.368-1.196 3.913-1.16 4.634.044.717.402 1.218 1.076 1.501.662.279 1.216.17 1.662-.326.453-.5 1.089-1.947 1.907-4.34s1.208-3.947 1.169-4.662c-.038-.715-.391-1.213-1.059-1.494-.668-.281-1.229-.169-1.685.338-.456.507-1.092 1.956-1.91 4.35m-2.466-1.04c.522-1.527 1.003-2.718 1.443-3.573.442-.862.879-1.465 1.312-1.81.6-.496 1.208-.774 1.826-.834.618-.06 1.353.089 2.206.449s1.492.79 1.918 1.29c.426.5.718 1.158.876 1.973.113.59.076 1.365-.112 2.327-.182.964-.533 2.207-1.052 3.727-.518 1.514-.997 2.702-1.439 3.564-.44.855-.876 1.463-1.307 1.823-.605.494-1.217.77-1.834.831-.618.06-1.353-.089-2.206-.449s-1.492-.79-1.918-1.29c-.426-.5-.715-1.157-.867-1.97-.117-.577-.085-1.348.097-2.312.184-.97.537-2.219 1.059-3.746m11.925-3.271l2.476.819-2.667 9.947c-.305 1.137-.388 1.951-.251 2.442.145.486.537.835 1.175 1.046.633.209 1.125.149 1.476-.18.357-.327.69-1.069 1-2.225l2.656-9.908 2.442.808-2.731 10.186c-.265.99-.512 1.698-.739 2.124-.219.421-.493.765-.822 1.032-.495.4-1.072.633-1.728.701-.655.061-1.385-.041-2.191-.307-1.519-.502-2.494-1.221-2.925-2.157-.424-.94-.392-2.32.096-4.141l2.731-10.186m6.631 18.156l3.027-15.025 2.592.644 1.406 11.384 2.047-10.526 2.381.592-3.027 15.025-2.574-.64-1.428-11.41-2.051 10.545-2.372-.59m13.552.766l1.13.196c.575.1.985.124 1.229.072.244-.052.45-.178.618-.378.293-.354.538-.864.735-1.532.198-.674.404-1.768.618-3.283.208-1.475.3-2.559.276-3.251-.024-.692-.154-1.234-.39-1.626-.124-.197-.3-.349-.528-.456-.221-.113-.581-.212-1.079-.299l-1.094-.19-1.515 10.747m-2.815 1.808l2.145-15.212 4.1.713c.836.145 1.489.34 1.959.584.476.245.849.573 1.119.984.407.604.652 1.321.735 2.152.09.825.017 2.074-.219 3.747-.305 2.16-.588 3.676-.851 4.548-.262.865-.6 1.582-1.014 2.151-.402.571-.903.933-1.502 1.085-.592.147-1.578.1-2.96-.14l-3.513-.611m10.723 1.762l1.333-15.326 7.088.76-.222 2.548-4.534-.486-.308 3.543 4.22.453-.211 2.428-4.22-.453-.367 4.22 4.642.498-.225 2.588-7.195-.772m11.711-1.241l1.143.046c.582.023.991-.007 1.228-.091.237-.084.428-.236.573-.457.253-.39.442-.929.566-1.618.125-.695.212-1.809.261-3.341.048-1.492.024-2.58-.074-3.265-.098-.684-.285-1.205-.562-1.563-.144-.179-.335-.307-.573-.383-.232-.083-.599-.134-1.103-.154l-1.107-.044-.352 10.871m-2.602 2.167l.499-15.387 4.147.166c.846.034 1.515.141 2.007.32.499.18.904.456 1.216.829.469.546.789 1.225.961 2.039.178.808.24 2.057.185 3.749-.071 2.185-.19 3.728-.357 4.628-.167.894-.426 1.65-.776 2.27-.338.62-.797 1.045-1.375 1.276-.572.224-1.556.308-2.954.252l-3.554-.142m15.443.201l-.55-15.386 2.582-.114.55 15.386-2.582.114m6.895-.405l-.947-12.815-2.961.27-.187-2.531 8.497-.775.187 2.531-2.961.27.947 12.815-2.575.235m9.095-16.509l2.546-.491 1.6 10.225c.183 1.169.434 1.939.754 2.31.325.364.816.482 1.472.355.65-.126 1.067-.422 1.25-.891.188-.469.19-1.298.004-2.487l-1.594-10.186 2.51-.485 1.639 10.471c.159 1.018.223 1.774.19 2.267-.028.486-.135.929-.322 1.331-.283.603-.706 1.097-1.266 1.483-.562.379-1.257.649-2.085.808-1.561.301-2.722.14-3.484-.484-.757-.632-1.282-1.884-1.575-3.755l-1.639-10.471m13.793 3.905l1.05-.284c.781-.211 1.293-.528 1.534-.95.24-.428.269-1.054.089-1.876-.182-.829-.453-1.363-.814-1.601-.357-.247-.94-.26-1.751-.041l-1.085.293.978 4.459m-.578 9.068l-3.281-14.961 4.356-1.178c1.329-.36 2.358-.288 3.086.215.728.503 1.257 1.506 1.586 3.008.324 1.477.253 2.662-.212 3.556-.46.886-1.329 1.502-2.606 1.847l-1.828.495 1.391 6.344-2.493.674m9.901-10.841c.689 2.414 1.25 3.892 1.681 4.432.435.532.996.677 1.683.435.675-.238 1.048-.705 1.12-1.402.076-.705-.235-2.277-.932-4.717s-1.26-3.927-1.689-4.461c-.43-.534-.985-.681-1.665-.441-.681.24-1.058.715-1.132 1.427-.074.711.238 2.287.934 4.727m-2.514.886c-.445-1.557-.733-2.822-.867-3.796-.135-.98-.13-1.755.016-2.324.193-.802.514-1.44.965-1.913.45-.473 1.11-.863 1.98-1.169.87-.306 1.611-.41 2.225-.312.614.099 1.21.413 1.79.943.418.384.823 1.018 1.214 1.901.396.881.816 2.097 1.259 3.647.441 1.544.729 2.806.864 3.786.133.974.132 1.751-.005 2.33-.199.804-.523 1.443-.973 1.916-.45.473-1.11.863-1.98 1.169-.87.306-1.611.41-2.225.312-.614-.098-1.207-.414-1.781-.946-.415-.371-.82-.998-1.217-1.879-.398-.888-.82-2.11-1.264-3.667m12.672 3.52l-5.158-14.293 2.465-1.097 6.958 8.503-3.674-9.965 2.265-1.008 5.158 14.293-2.448 1.09-6.99-8.511 3.681 9.984-2.256 1.004m16.057-7.884l-5.409-11.368-2.627 1.542-1.068-2.245 7.538-4.424 1.068 2.245-2.627 1.542 5.409 11.368-2.284 1.341m6.103-3.637l-7.403-13.019 2.169-1.522 2.904 5.106 2.991-2.098-2.904-5.106 2.169-1.522 7.403 13.019-2.169 1.522-3.355-5.901-2.991 2.098 3.355 5.901-2.169 1.522m9.248-6.658l-8.355-12.287 5.682-4.766 1.389 2.042-3.635 3.049 1.931 2.84 3.384-2.838 1.324 1.947-3.384 2.838 2.3 3.383 3.721-3.121 1.411 2.074-5.769 4.839m7.132-13.212l1.843-2.011.625.706c.597.675 1.08 1.055 1.449 1.138.369.074.739-.092 1.112-.498.39-.425.588-.857.596-1.295.012-.443-.171-.878-.55-1.306-.29-.328-.609-.531-.956-.61-.352-.084-.927-.054-1.726.089l-1.6.288c-1.369.26-2.345.307-2.929.141-.58-.171-1.144-.565-1.69-1.183-.816-.922-1.209-1.914-1.18-2.974.03-1.06.477-2.062 1.341-3.006.916-1 1.864-1.488 2.844-1.464s1.931.556 2.852 1.597l.208.249.126.157-1.747 1.906-.259-.292c-.526-.594-.99-.924-1.393-.989-.403-.065-.805.122-1.208.561-.295.322-.442.674-.441 1.056.001.372.153.73.456 1.072.408.461 1.239.559 2.493.293l.032-.007 1.69-.344c1.195-.257 2.131-.288 2.808-.093.673.19 1.334.652 1.982 1.384.883.998 1.308 2.049 1.274 3.152-.034 1.103-.529 2.175-1.483 3.217-.993 1.084-1.986 1.607-2.979 1.569-.989-.043-2-.649-3.035-1.818-.109-.124-.282-.337-.517-.641l-.038-.043m10.728-4.325l-10.626-9.89 4.574-6.062 1.766 1.644-2.926 3.878 2.457 2.286 2.723-3.61 1.684 1.567-2.723 3.61 2.926 2.723 2.995-3.97 1.794 1.67-4.643 6.154m2.698-13.785l1.227-2.023-5.442-2.589 4.215 4.612m2.542 6.869l-9.753-11.48 1.936-3.193 13.259 5.7-1.554 2.562-3.272-1.532-1.66 2.737 2.517 2.775-1.474 2.43m1.646-12.521l1.18-2.553.793.452c.758.432 1.324.624 1.698.575.371-.058.676-.345.914-.861.249-.54.316-1.019.199-1.437-.114-.425-.411-.774-.892-1.048-.368-.21-.729-.292-1.081-.245-.357.043-.895.273-1.613.687l-1.437.833c-1.226.725-2.139 1.11-2.741 1.157-.599.041-1.245-.137-1.94-.533-1.036-.591-1.69-1.394-1.962-2.411-.272-1.017-.131-2.124.423-3.322.587-1.269 1.349-2.063 2.286-2.383.937-.32 1.99-.146 3.16.521l.268.164.164.105-1.118 2.419-.328-.187c-.667-.381-1.201-.531-1.602-.453-.401.079-.73.397-.988.954-.189.409-.229.795-.12 1.157.107.353.352.639.737.858.518.295 1.334.098 2.45-.592l.028-.017 1.507-.917c1.061-.661 1.941-1.017 2.639-1.069.693-.054 1.451.153 2.273.622 1.121.639 1.822 1.488 2.101 2.547.28 1.059.114 2.249-.497 3.571-.636 1.376-1.431 2.219-2.384 2.529-.95.305-2.082.083-3.396-.666-.139-.079-.363-.222-.672-.428l-.048-.027"/>
    </g>
  </g>
</svg>
