<svg xmlns="http://www.w3.org/2000/svg" height="512" width="512">
  <g fill-rule="evenodd" clip-path="url(#a)">
    <g>
      <path fill="#e4104d" d="M0 255.824h768.571v256.19h-768.571z"/>
      <path fill="#8a85ff" d="M0 0h768.571v255.829h-768.571z"/>
    </g>
    <g>
      <g>
        <path d="M150.008 154.99l50.194-.19s18.536-22.258 8.723-36.84c-9.813-14.583-48.286-.461-48.441-.461-.156 0-.312-7.828-9.813-7.982-9.502.154-9.657 7.982-9.813 7.982-.156 0-38.63-14.122-48.441.461-9.813 14.583 8.723 36.84 8.723 36.84l48.873.19z" fill="#f3ef7d"/>
        <path d="M150 155.068l48.157-.185s17.784-21.631 8.369-35.803c-9.415-14.172-46.327-.448-46.476-.448-.149 0-.299-7.608-9.415-7.757-9.116.149-9.265 7.757-9.415 7.757-.15 0-37.062-13.724-46.476.448-9.415 14.172 8.369 35.803 8.369 35.803l46.889.185z"/>
      </g>
      <g fill="#f3ef7d">
        <path d="M206.029 124.822h-.571v6.849h.571z"/>
        <path d="M203.952 121.105h-.571v14.084h.571z"/>
        <path d="M201.969 119.178h-.67v18.527h.67z"/>
        <path d="M199.428 117.824h-.726v22.159h.726z"/>
        <path d="M196.546 117.031h-.726v24.834h.726z"/>
        <path d="M193.602 116.069h-.72v27.06h.72z"/>
        <path d="M191.102 115.859h-.726v28.202h.726z"/>
        <path d="M188.592 115.859h-.726v28.995h.726z"/>
        <path d="M185.451 115.921h-.67v30.243h.67z"/>
        <path d="M182.507 116.213h-.825v30.26h.825z"/>
        <path d="M179.284 116.955h-.825v29.813h.825z"/>
        <path d="M176.134 118.112h-.776v28.868h.776z"/>
        <path d="M172.838 119.436h-.726v27.333h.726z"/>
        <path d="M170.111 120.327h-.726v25.501h.726z"/>
        <path d="M167.208 122.051h-.621v22.998h.621z"/>
        <path d="M164.667 124.282h-.522v19.653h.522z"/>
        <path d="M162.384 126.463h-.621v15.986h.621z"/>
        <path d="M160.153 129.804h-.558v10.205h.558z"/>
      </g>
      <g fill="#f3ef7d">
        <path d="M94.991 124.137h.571v6.849h-.571z"/>
        <path d="M97.068 120.42h.571v14.084h-.571z"/>
        <path d="M99.051 118.493h.67v18.527h-.67z"/>
        <path d="M101.592 117.139h.726v22.159h-.726z"/>
        <path d="M104.474 116.346h.726v24.834h-.726z"/>
        <path d="M107.418 115.384h.72v27.06h-.72z"/>
        <path d="M109.918 115.174h.726v28.202h-.726z"/>
        <path d="M112.428 115.174h.726v28.995h-.726z"/>
        <path d="M115.569 115.236h.67v30.243h-.67z"/>
        <path d="M118.513 115.528h.825v30.26h-.825z"/>
        <path d="M121.736 116.27h.825v29.813h-.825z"/>
        <path d="M124.886 117.427h.776v28.868h-.776z"/>
        <path d="M128.182 118.751h.726v27.333h-.726z"/>
        <path d="M130.909 119.642h.726v25.501h-.726z"/>
        <path d="M133.812 121.366h.621v22.998h-.621z"/>
        <path d="M136.353 123.597h.522v19.653h-.522z"/>
        <path d="M138.636 125.778h.621v15.986h-.621z"/>
        <path d="M140.867 129.119h.558v10.205h-.558z"/>
      </g>
      <path d="M149.706 93.057l-.066-1.037c0-.207-1.447-1.382-1.447-4.354 0-2.971 1.25-4.146 1.907-4.146s2.105.967 2.171 4.077c.066 3.11-1.447 4.284-1.447 4.284l-.132 1.244 1.118.069c.066 0 1.447-1.244 4.999-1.106s3.749 1.659 3.815 2.142c.066.484-.526 1.935-4.078 1.935-3.552 0-4.604-1.727-4.67-1.727l-1.118-.069v.898s1.381 1.106 1.315 4.768c-.066 3.662-1.447 3.87-1.842 3.87-.526 0-1.644-.207-1.71-3.801.132-3.662 1.052-4.699 1.052-4.768v-.898h-.987s-1.052.898-4.67.967c-3.617.069-3.815-1.037-3.881-1.659-.066-.622.658-1.728 3.815-1.797 3.157-.069 4.67 1.106 4.67 1.106h1.184z" fill="#f3ef7d"/>
      <g transform="matrix(.345 0 0 .367 72.032 73.514)" fill="#f3ef7d">
        <rect rx="5.828" ry="5.828" height="11.656" width="11.656" y="105.59" x="188.99"/>
        <rect rx="5.828" ry="5.828" height="11.656" width="11.656" y="103.23" x="177.22"/>
        <rect rx="5.828" ry="5.828" height="11.656" width="11.656" y="99.703" x="164.86"/>
        <rect rx="5.828" ry="5.828" height="11.656" width="11.656" y="96.759" x="152.49"/>
        <rect rx="5.828" ry="5.828" height="11.656" width="11.656" y="94.404" x="139.54"/>
        <rect rx="5.828" ry="5.828" height="11.656" width="11.656" y="92.638" x="126.59"/>
        <rect rx="5.828" ry="5.828" height="11.656" width="11.656" y="91.461" x="114.23"/>
        <rect rx="5.828" ry="5.828" height="11.656" width="11.656" y="90.872" x="101.27"/>
        <rect rx="5.828" ry="5.828" height="11.656" width="11.656" y="92.638" x="88.911"/>
        <rect rx="5.828" ry="5.828" height="11.656" width="11.656" y="94.404" x="75.96"/>
        <rect rx="5.828" ry="5.828" height="11.656" width="11.656" y="98.525" x="64.185"/>
        <rect rx="5.828" ry="5.828" height="11.656" width="11.656" y="106.18" x="53"/>
        <rect rx="5.828" ry="5.828" height="11.656" width="11.656" y="116.78" x="45.346"/>
        <rect rx="5.828" ry="5.828" height="11.656" width="11.656" y="127.96" x="40.637"/>
        <rect rx="5.828" ry="5.828" height="11.656" width="11.656" y="140.32" x="38.871"/>
        <rect rx="5.828" ry="5.828" height="11.656" width="11.656" y="153.28" x="39.459"/>
        <rect rx="5.828" ry="5.828" height="11.656" width="11.656" y="165.64" x="42.403"/>
        <rect rx="5.828" ry="5.828" height="11.656" width="11.656" y="178" x="47.113"/>
        <rect rx="5.828" ry="5.828" height="11.656" width="11.656" y="188.6" x="52.411"/>
      </g>
      <g transform="matrix(-.345 0 0 .367 229.372 73.514)" fill="#f3ef7d">
        <rect rx="5.828" ry="5.828" height="11.656" width="11.656" y="105.59" x="188.99"/>
        <rect rx="5.828" ry="5.828" height="11.656" width="11.656" y="103.23" x="177.22"/>
        <rect rx="5.828" ry="5.828" height="11.656" width="11.656" y="99.703" x="164.86"/>
        <rect rx="5.828" ry="5.828" height="11.656" width="11.656" y="96.759" x="152.49"/>
        <rect rx="5.828" ry="5.828" height="11.656" width="11.656" y="94.404" x="139.54"/>
        <rect rx="5.828" ry="5.828" height="11.656" width="11.656" y="92.638" x="126.59"/>
        <rect rx="5.828" ry="5.828" height="11.656" width="11.656" y="91.461" x="114.23"/>
        <rect rx="5.828" ry="5.828" height="11.656" width="11.656" y="90.872" x="101.27"/>
        <rect rx="5.828" ry="5.828" height="11.656" width="11.656" y="92.638" x="88.911"/>
        <rect rx="5.828" ry="5.828" height="11.656" width="11.656" y="94.404" x="75.96"/>
        <rect rx="5.828" ry="5.828" height="11.656" width="11.656" y="98.525" x="64.185"/>
        <rect rx="5.828" ry="5.828" height="11.656" width="11.656" y="106.18" x="53"/>
        <rect rx="5.828" ry="5.828" height="11.656" width="11.656" y="116.78" x="45.346"/>
        <rect rx="5.828" ry="5.828" height="11.656" width="11.656" y="127.96" x="40.637"/>
        <rect rx="5.828" ry="5.828" height="11.656" width="11.656" y="140.32" x="38.871"/>
        <rect rx="5.828" ry="5.828" height="11.656" width="11.656" y="153.28" x="39.459"/>
        <rect rx="5.828" ry="5.828" height="11.656" width="11.656" y="165.64" x="42.403"/>
        <rect rx="5.828" ry="5.828" height="11.656" width="11.656" y="178" x="47.113"/>
        <rect rx="5.828" ry="5.828" height="11.656" width="11.656" y="188.6" x="52.411"/>
      </g>
      <g transform="matrix(1.033 0 0 1.033 -16.926 228.784)">
        <path d="M227.04-79.384l-11.104 32.803s-18.359-7.676-52.782-7.676c-34.424 0-50.108 6.716-50.108 6.716l-16.15-32.234c14.366-2.671 18.745 9.571 18.745 9.571s.978-14.296 12.261-16.833c9.531-1.651 17.953 10.713 17.953 10.713s1.985-13.914 16.07-14.296c14.085.382 16.07 14.296 16.07 14.296s8.422-12.364 17.953-10.712c11.283 2.537 12.261 16.833 12.261 16.833s4.379-12.243 18.829-9.182z" fill="#f3ef7d"/>
        <rect transform="translate(13.258 -218.32)" rx="51.429" ry="8.13" height="16.261" width="102.86" y="162.27" x="100.1"/>
        <g transform="matrix(.334 0 0 .355 86.116 -150.31)">
          <rect rx="3.434" ry="4.651" height="9.301" width="6.868" y="175.06" x="228.46"/>
          <rect rx="3.434" ry="4.651" height="9.301" width="6.868" y="177.41" x="237.82"/>
          <rect rx="3.434" ry="4.651" height="9.301" width="6.868" y="175.06" x="219.87"/>
          <rect rx="3.434" ry="4.651" height="9.301" width="6.868" y="182.12" x="203.48"/>
          <rect rx="3.434" ry="4.651" height="9.301" width="6.868" y="177.41" x="211.28"/>
          <rect rx="3.434" ry="4.651" height="9.301" width="6.868" y="189.19" x="197.23"/>
          <rect rx="3.434" ry="4.651" height="9.301" width="6.868" y="182.71" x="245.63"/>
          <rect rx="3.434" ry="4.651" height="9.301" width="6.868" y="189.19" x="252.65"/>
        </g>
        <g transform="matrix(.33 .055 -.052 .351 129.39 -157.7)">
          <rect rx="3.434" ry="4.651" height="9.301" width="6.868" y="175.06" x="228.46"/>
          <rect rx="3.434" ry="4.651" height="9.301" width="6.868" y="177.41" x="237.82"/>
          <rect rx="3.434" ry="4.651" height="9.301" width="6.868" y="175.06" x="219.87"/>
          <rect rx="3.434" ry="4.651" height="9.301" width="6.868" y="182.12" x="203.48"/>
          <rect rx="3.434" ry="4.651" height="9.301" width="6.868" y="177.41" x="211.28"/>
          <rect rx="3.434" ry="4.651" height="9.301" width="6.868" y="189.19" x="197.23"/>
          <rect rx="3.434" ry="4.651" height="9.301" width="6.868" y="182.71" x="245.63"/>
          <rect rx="3.434" ry="4.651" height="9.301" width="6.868" y="189.19" x="252.65"/>
        </g>
        <g transform="matrix(.328 -.064 .06 .349 42.896 -131.04)">
          <rect rx="3.434" ry="4.651" height="9.301" width="6.868" y="175.06" x="228.46"/>
          <rect rx="3.434" ry="4.651" height="9.301" width="6.868" y="177.41" x="237.82"/>
          <rect rx="3.434" ry="4.651" height="9.301" width="6.868" y="175.06" x="219.87"/>
          <rect rx="3.434" ry="4.651" height="9.301" width="6.868" y="182.12" x="203.48"/>
          <rect rx="3.434" ry="4.651" height="9.301" width="6.868" y="177.41" x="211.28"/>
          <rect rx="3.434" ry="4.651" height="9.301" width="6.868" y="189.19" x="197.23"/>
          <rect rx="3.434" ry="4.651" height="9.301" width="6.868" y="182.71" x="245.63"/>
          <rect rx="3.434" ry="4.651" height="9.301" width="6.868" y="189.19" x="252.65"/>
        </g>
        <rect transform="matrix(.976 -.216 .192 .981 13.258 -218.32)" rx="1.15" ry="1.647" height="3.295" width="2.299" y="155.25" x="57.043"/>
        <rect transform="matrix(.976 -.216 .192 .981 13.258 -218.32)" rx="1.15" ry="1.647" height="3.295" width="2.299" y="156.09" x="60.179"/>
        <rect transform="matrix(.976 -.216 .192 .981 13.258 -218.32)" rx="1.15" ry="1.647" height="3.295" width="2.299" y="157.96" x="62.792"/>
        <rect transform="matrix(.976 -.216 .192 .981 13.258 -218.32)" rx="1.15" ry="1.647" height="3.295" width="2.299" y="160.26" x="65.144"/>
        <g transform="matrix(.309 .134 -.126 .329 148.87 -220.32)">
          <rect rx="3.434" ry="4.651" height="9.301" width="6.868" y="285.4" x="359.08"/>
          <rect rx="3.434" ry="4.651" height="9.301" width="6.868" y="292.46" x="342.69"/>
          <rect rx="3.434" ry="4.651" height="9.301" width="6.868" y="287.75" x="350.49"/>
          <rect rx="3.434" ry="4.651" height="9.301" width="6.868" y="299.53" x="336.44"/>
        </g>
        <path d="M154.13-76.395c8.052 6.396 8.196 18.409 8.196 18.409s-1.294-12.637 7.333-17.785c-4.457 1.404-4.314 1.092-6.758.936l-.575-4.056s-.431 2.028-1.294 3.9c-1.869.624-2.301.624-6.902-1.404z"/>
        <path d="M122.316-71.72c9.241 4.201 12.039 15.841 12.039 15.841s-4.054-11.958 3.191-19.121c-4.021 2.48-3.951 2.141-6.361 2.601l-1.457-3.799s.03 2.079-.395 4.115c-1.679 1.074-2.098 1.182-7.019.363z"/>
        <path d="M187.687-75.48c6.304 8.325 3.635 19.998 3.635 19.998s1.701-12.582 11.261-15.287c-4.646.181-4.434-.083-6.765-.88l.391-4.081s-.892 1.85-2.165 3.436c-1.957.11-2.374-.004-6.357-3.185z"/>
        <path d="M104.919-65.762c6.947 3.425 10.554 13.578 10.554 13.578s-4.514-10.397-.584-16.908c-2.398 2.299-2.399 1.998-3.985 2.473l-1.55-3.298s.322 1.827.326 3.63c-.996.994-1.267 1.101-4.761.524z"/>
        <path d="M211.656-70.23c1.328 8.02-4.445 16.97-4.445 16.97s5.442-9.882 12.713-10.172c-3.144-.779-2.913-.952-4.186-2.064l1.659-3.237s-1.226 1.325-2.614 2.359c-1.336-.301-1.574-.477-3.125-3.855z"/>
      </g>
      <g transform="matrix(1.033 0 0 1.033 -16.926 228.784)">
        <rect transform="translate(13.258 -218.32)" rx="3.362" ry="3.51" height="7.02" width="6.724" y="97.304" x="145.26" fill="#f3ef7d"/>
        <path d="M161.658-121.016h.704v7.02h-.704z"/>
        <rect transform="translate(13.258 -218.32)" rx="1.553" ry="1.756" height="3.512" width="3.106" y="119.51" x="147.36" fill="#f3ef7d"/>
        <rect transform="translate(13.258 -218.32)" rx="1.454" ry="1.651" height="3.303" width="2.909" y="115.96" x="147.36" fill="#f3ef7d"/>
        <rect transform="translate(13.258 -218.32)" rx="1.454" ry="1.547" height="3.094" width="2.909" y="112.61" x="147.36" fill="#f3ef7d"/>
        <rect transform="translate(13.258 -218.32)" rx="1.258" ry="1.233" height="2.467" width="2.516" y="109.9" x="147.56" fill="#f3ef7d"/>
        <rect transform="translate(13.258 -218.32)" rx="1.258" ry="1.442" height="2.885" width="2.516" y="106.76" x="147.56" fill="#f3ef7d"/>
        <rect transform="translate(13.258 -218.32)" rx="1.061" ry="1.024" height="2.049" width="2.123" y="104.46" x="147.76" fill="#f3ef7d"/>
        <path d="M165.368-117.9l.004.735-6.724.041-.004-.735z"/>
        <rect transform="translate(13.258 -218.32)" rx="1.946" ry="2.07" height="4.139" width="3.892" y="123.07" x="146.97" fill="#f3ef7d"/>
      </g>
    </g>
  </g>
</svg>
