<svg xmlns="http://www.w3.org/2000/svg" viewBox="78 141 512 512">
  <path fill="#FFB700" d="M78 141h512v512H78z"/>
  <path fill="#005641" d="M109.8 168.7h69.1v456.5h-69.1z"/>
  <path fill="#8D2029" d="M267.1 170.9h298.8v452.3H267.1z"/>
  <path fill="#FFB700" stroke="#000" stroke-width="2.126" d="M528.1 576.7s3.9 7.9 8.1 11.1c6.3 4.8 19.3 4.4 24.8 10 6.6 6.5-.5 15.2-.5 15.9l.4 4.6s-4.5.1-6.3.3c-2.8.4-3.9 2.7-9.2 2.4-13.2-.9-12.7-12.7-13.4-22.9-.7-3.9-2.2-8.9-3.1-12.8-.7-3.3-.8-8.6-.8-8.6z"/>
  <g stroke="#000" stroke-width="5.56">
    <path fill="#FFB700" d="M356 503.4l2.5-1.4 1.1 1.4c1.4 1.9 5.3 1.9 7.9 0l2-1.5 1.7 1.5c2.2 1.9 6.3 1.9 8.9 0 1.8-1.4 2.1-1.4 3.3-.4.7.6 2.8 1.3 4.7 1.6 3.3.4 3.4.4 5.4-2.5 1.6-2.5 1.9-3.5 1.5-5.8-.3-1.6-.5-4.1-.6-5.7-.1-2.8-.1-2.8 3.9-4.2 2.2-.8 4.8-1.8 5.7-2.3 1.6-.9 6.1-6.1 6.1-7.1 0-.3-1.7-.7-3.9-.9-8.4-.9-9.9-5.5-4.4-13.9 8.9-13.7 14.3-27.1 14.4-35.6 0-3.8.2-5.1.7-4.3 2 3.4-1.6 17.6-7 27.8l-2.2 4.1 2.1-.5c1.1-.3 7.9-3.1 15-6.3 19.4-8.8 26.1-10.5 38.6-10 10.5.4 15 2.5 22.4 10.3 3.9 4.1 7.7 7.1 14.7 11.4 14.8 9.2 15.4 10.1 16.1 20.9.7 11 .4 11.6-8 13.5-7.1 1.6-11.6 4.9-12.8 9.5-.6 2.5.7 2.5 4.3.2l2.6-1.7 1.2 1.7c1.5 2.2 4.8 2.2 7.5 0l2.1-1.7 2.1 1.7c3.3 2.6 7.6 2 8.8-1.3.2-.6.9-.4 2.1.7 2.4 2.1 8.5 3 9.1 1.3.3-.6-.2-2.2-1.1-3.4-3.6-5.3-4.7-7.9-4.7-10.8-.1-4 1.1-6 5.7-9.3 5.6-4 7.3-9.1 3.1-9.1-2.6 0-5.3-2.3-6.9-6.1-3.4-7.7-2.7-16.2 2.4-30.5 5.2-14.5 5.8-17.2 5.8-26.9 0-7.8-.2-9.2-2-13.5-1.1-2.6-3.3-6.5-4.9-8.7l-2.9-3.9 3.8-3.1c11.5-9.5 9.2-25.1-4.7-31.2-4.2-1.8-5.3-2-12.7-2-4.5 0-11.3.6-15.1 1.3-3.9.7-10.6 1.3-15.1 1.3-7.2 0-8.5-.1-11.3-1.6-2.9-1.5-3.4-2.3-4-5.9-.1-.7-.6-1.5-1.1-1.6-1-.3-5.6 3.7-6.2 5.4-.3.9-.6.8-1.6-.3-.6-.8-1.6-2.5-2-3.9-1.2-3.5.3-6.1 4.4-8.1l3.2-1.5-1.9-1.2c-3.9-2.4-10.5-.8-12.8 3.2-.7 1.1-1.4 2-1.6 2-.2 0-1.5-1.1-2.8-2.4-5-4.9-3.3-12.1 3.4-14.3 3.6-1.2 6.7-.3 7.4 2.1 1 3.6 4.1-1.1 3.6-5.5-.4-2.9-.3-3 1.7-3 2.8 0 8.6 3.6 10.4 6.4 2.1 3.3 2 8.4-.4 12.3l-1.8 3 2.4-.5c3.5-.7 6.9-2.9 8.6-5.5 1.8-2.8 2-8.2.4-11.1-1.6-2.8-1.4-3.3.9-2.3 3.9 1.6 6 3.4 7.6 6.5 1.4 2.8 1.5 3.5.7 6.3-.5 1.8-1.5 4.1-2.3 5.2-1.3 1.7-1.3 2-.3 2 1.9 0 5.8-1.8 7.2-3.3.7-.7 1.7-2.6 2.3-4.1l1-2.7 1.2 2.1c1.6 3 4.8 5.6 8.6 7.3 4.1 1.8 5.9 1.9 3.7.2-1.5-1.1-4.2-9-3.3-9.8.5-.5 6.1 3.9 12.5 9.7 6.1 5.5 9.9 7.3 15.5 7.3 7.1 0 11.3-6.2 8.1-12.1-1.9-3.4-6-3.9-8.5-1-1.1 1.3-1.4 2.4-1.1 3.8.4 1.7.2 2-1.3 2-2.1 0-6.2-2.7-13.4-8.7-11.1-9.2-24.5-17.1-34.3-19.9-6.2-1.8-19.6-2.6-25.9-1.4-6.9 1.3-15 5.2-19.4 9.4-7.8 7.4-8 17.4-.3 26.4l2.2 2.6-1.5 2.3c-2.2 3.3-2 7.8.5 11.2 1.1 1.5 2.1 2.7 2.4 2.7.2 0 .5-.9.6-2.1.2-2.9 1.5-4.8 3.6-5.6 1.9-.7 3.2-.4 12 3.2 9.3 3.7 24.5 4 40.7.7 7.9-1.6 17.3-1.5 21.4.2 7.6 3.2 9.3 11.4 3.8 17.6-2.4 2.7-4.7 3.8-12.5 5.9-5.9 1.6-7.3 1.7-20.8 1.6-11.5-.1-15.6.1-20.3 1.1-5.1 1.1-8.2 1.2-23.2.8l-17.3-.4 1.9 1.6c1.1.9 2.5 1.9 3.3 2.4 1.3.7 1.3.9-.7 1.6-1.1.4-3.7.8-5.6.8h-3.6l-.5 3c-.3 1.7-.2 3.6 0 4.3.4 1 .3 1.2-.8.8-.7-.3-2.8-.8-4.6-1.2-1.8-.4-4.2-1.2-5.4-1.7-1.9-1-2.2-.9-2.9.3-.6 1.1-6.7 5.6-7.5 5.6-.1 0-.3-.9-.4-1.9-.1-1.1-1-3.8-1.9-6.1-1-2.3-2-4.8-2.3-5.6-.4-1.2-.6-1.2-1.1-.3-.3.6-.8 2.1-1.1 3.5-.3 1.3-1.2 3.5-2 4.8l-1.5 2.4-1-2.1c-1.1-2.2-2.8-4.5-3.5-4.5-.2 0-.6.7-.8 1.6-.5 1.8-4.7 6.8-5.7 6.8-.4 0-.7-1.4-.7-3.1s-.3-3.1-.7-3.1-.7.4-.7 1c0 1.3-3.6 5.3-4.8 5.3-.5 0-1.4.5-1.9 1-1.3 1.5-2.4 1.3-1.8-.4.3-.8.1-2.6-.4-4s-1-3-1.1-3.4c-.2-.5-1.5-.4-4.2.5-4.4 1.4-5.8 1.2-3.6-.6.8-.6 2.1-2.9 2.8-5 .7-2.1 1.7-3.9 2.3-4.1.8-.2.8.1-.2 1.3-.7.9-1.2 2.1-1.2 2.7 0 .6-.5 2-1.1 3.1-.6 1.1-1 2.1-.9 2.3.1.1 1.8-.5 3.7-1.4l3.4-1.6v1.5c0 .8.4 3 .9 4.8l.9 3.3 2.3-1.1c2.4-1.1 4.7-5 4.7-8.1 0-1.5.9-1.3 1.2.3.1.5.6 2.2 1.2 3.9l1 3.1 1.6-1.9c.9-1.1 2-3.1 2.5-4.6.8-2.6 2.1-3.7 2.1-1.8 0 1.3 3.7 6.2 4.4 5.8.3-.2 1-2 1.5-4 1-4.2 2.7-7 3.7-6.4.4.2.5.7.3 1-.2.3.6 3 1.9 6.1 1.2 3 2.5 6 2.8 6.7.5 1.1.9 1 3.5-1.4 1.7-1.5 3.2-3.1 3.3-3.6.3-.8.6-.8 2.2.2 2.2 1.3 9.4 3.5 10 3 .2-.2.4-2.1.5-4.2l.1-3.9 2.1.4c1.2.2 3.6.2 5.4 0l3.3-.5-2.9-2c-1.6-1.1-3.2-2.5-3.6-3.2-.4-.7-1.8-1.3-3.5-1.4-4.4-.4-12.2-4.7-12.2-6.8 0-.4 1.1.3 2.4 1.5 2.9 2.7 7 4.4 10.5 4.4h2.7l-1.6-2.2c-.9-1.3-1.8-3.6-2-5.6-.3-3.1-.6-3.6-3.9-5.9-2-1.4-4.4-3.4-5.4-4.5l-1.8-2.1-.9 2.4c-.5 1.3-1.1 2.4-1.4 2.4-.3 0-1.2-.8-2.2-1.7-1-1-1.9-1.7-2.2-1.7-.2 0-1.1 1.3-1.9 2.9l-1.4 2.9-1.1-1.7c-.6-.9-2.1-2.5-3.2-3.6-1.2-1.1-1.8-1.9-1.4-1.9.4 0 1.8 1.1 3.2 2.4l2.4 2.4 1-1.8c.6-1.1.8-2.7.5-4-.4-1.9-.3-2 .4-.8.5.8 1.9 2.2 3.2 3.3l2.3 1.9 1.6-2.9c1.6-2.9 1.6-2.9 2.3-1.2 1 2.3 8 8 13.9 11.4.9.5.5-1.3-1.2-5.3-.4-1.1-.8-3-.8-4.3 0-1.9-.6-2.8-3-4.7-3.6-2.7-4.7-4.6-5.4-9-.3-1.8-.9-3.7-1.4-4.4-.7-.9-.8-.4-.7 2.9.1 2.2-.2 5-.6 6.1l-.9 2.1-.7-1.7c-.4-1-2-2.6-3.7-3.7-1.6-1.1-2.8-2.1-2.6-2.4.2-.2 1.9.8 3.8 2.2 2.8 2.2 3.4 2.4 3.8 1.4.5-1.1 0-6-.9-9.4-.4-1.7-.4-1.7 1.7.4 1.6 1.6 2.4 3.4 3.1 6.6.8 4.1 1.3 4.8 5.1 8.1 2.3 2 4.3 3.5 4.4 3.4.1-.1.4-5.3.6-11.5.4-11.9-.1-14.7-2.9-18.3l-1.5-1.9 2.3-2.5c3-3.2 4.4-5.8 5-9.4l.5-2.9-2.6 2.5c-2.1 2-3.1 2.5-5.6 2.5-2.4 0-3.4-.4-5-2.2-2-2.1-5.5-4.1-8.8-5.1-1.2-.4-1.7-.2-1.7.6 0 .6-.7 2.4-1.5 4l-1.5 2.8-3.2-3.2c-2-1.9-4.3-3.4-6-3.9-4.4-1.2-4.7-1-4.7 2.2 0 5-2.1 5.9-6 2.6-2.9-2.5-5.4-3.1-10.9-2.5l-4.3.5.8 1.9c.6 1.6.5 2.3-.9 4.1-2.2 3-5.2 4.3-9.6 4.3-2.1 0-4.7.4-5.7 1-1.1.5-3.8 1.1-6 1.3-2.2.2-4.6.6-5.3.8-1.1.4-1.2.1-.8-2.3.5-3.7-2-6.4-6-6.4-5.2 0-7.6 4.6-5.6 10.8.4 1.2.9 3 1.1 4.1.2 1.1 2.6 4.1 5.4 7 2.8 2.8 5.4 5.6 5.8 6.4.4.8 1.8 2 3.1 2.7l2.4 1.3-.3-2.5c-.3-2.8.3-3.2 1.7-1.3.5.7 1.9 1.8 3 2.5 1.8 1.1 2 1.1 2 .2 0-.6.4-2 .8-3l.8-2 1.4 2.7c.8 1.5 3.2 4.8 5.5 7.4 4.4 5.1 7 10.7 5.7 12-.6.5-2.1.5-5.2-.1-2.4-.5-5.4-.7-6.7-.6-2.5.4-2.7 0-1.2-1.9 1.6-2.1 1.4-2.4-1.8-2.4-3.7 0-13-1.8-16.6-3.2-3.5-1.4-4.3-1-5.3 2.3-.5 1.5-1.3 4.2-1.9 6l-1 3.3 3.8-.4c2.1-.2 4.7-.7 5.9-1 1.2-.4 2.3-.5 2.4-.4.1.1-.4 1.4-1.2 2.8l-1.4 2.6 2.3-.5c1.3-.3 3.2-.9 4.3-1.4 1.9-.9 2-.8 3.5 1.5 1.8 2.9 3.3 2.8 3.6-.3.3-3.2 1.4-2.7 3.4 1.5 1.9 4.1 3.9 5.5 4.3 3.1.1-.8 1.2-2.1 2.3-2.9 2.3-1.6 4-1.1 5 1.4 1 2.6-1.3 5.3-7.9 9.3-13.3 8-21 19-23.2 33.1-2 12.6 4.2 25.7 16.7 35.1 6 4.5 15.4 9.2 14.8 7.4-2.6-7.7-2.5-22.3.1-24.8.4-.4.3 1.2-.3 3.4-2.1 8.3-1.2 15 4.1 30.6 4.8 14.1 4.1 20.1-2.7 24.1-2.2 1.3-3.6 1.5-9.5 1.4-6.4-.1-7.1.1-9.1 1.7-2 1.6-4.6 6.8-4.6 9.2-.3.9 1.2.8 4.1-.9zM459.4 503.1l2.7-1.7 1.8 1.7c2.4 2.3 5.2 2.2 7.4-.1 1-1 1.9-1.7 2-1.6.1.2.5.9 1 1.7.6 1 1.7 1.5 3.8 1.6 2.5.2 3.2-.1 4.2-1.5l1.2-1.7 2.6 1.7c7.2 4.6 11-.2 7.8-9.9-1.6-4.9-.7-7.7 4.5-13.9 2.2-2.6 4-5.5 4.1-6.3 0-1.3-.4-1.5-3.4-1.4-2.8.1-3.7-.2-5.2-1.9-2.4-2.7-2.3-5.7.4-9.1l2.2-2.7-3.8-2.6c-2.1-1.4-5.9-4.8-8.5-7.5-5.7-6.1-11.3-9-18.8-9.6l-5-.4v3.8c0 4.8 2.3 9.5 8.5 17.4 7.1 9 7.5 10.4 7.8 22.1l.2 9.9-2 1.9c-1.8 1.8-2.7 2-8.6 2.3-5.7.3-6.9.6-8.5 2.1-2.2 2-2.9 3-3.6 5.7-.4 1.6-.2 1.9.9 1.9 1.1-.1 2.9-.9 4.3-1.9zM307.8 477.5c.6-.9 1.1-2.2 1.1-3.1 0-1.3.6-1.6 3.3-2l3.3-.5-2.2-1.8c-2.6-2.1-2.9-3.7-.6-3.7s6.2-2.4 6.8-4.2c.3-.8.1-1.9-.4-2.5-1.3-1.5-3.7-1.3-4.2.4-.5 1.8-1.3 1.8-3.1 0-2.8-2.6-2.8-8.1-.1-11.2 1.3-1.5 1.3-1.6-.4-3.1-1.7-1.7-3-4.9-2.2-5.7.3-.2 1.6-.1 3.1.4 2 .7 2.8.7 3.7 0 2.5-2-.2-4.5-4.3-4-1.6.2-2.3 0-2.5-.8-.2-.6-1.6-1.5-3.2-1.9-2.9-.7-2.9-.7-2.9 1.3 0 2.2-1.2 2.6-3.6 1.2-1.9-1.1-3.8-.3-3.8 1.8 0 1.9 1.9 2.8 5.3 2.6 2.6-.2 2.7 1.8.2 4.6l-1.8 2 1.4 2c2.1 3 1.9 8.1-.4 10.6l-1.8 2-1.2-1.6c-1.6-2.2-3.9-2-4.5.3-.4 1.5-.1 2.2 1.8 3.8 1.3 1.1 3.2 2 4.2 2 2.5 0 2.4 2-.2 3.9l-2 1.5 3.1.5c1.7.3 3.1.8 3.1 1.1 0 1.3 2.2 5.5 2.9 5.5.6.1 1.4-.6 2.1-1.4zM348.5 459.8c2.8-1.1 9-6.3 9-7.6 0-.4-1.7-2.3-3.8-4.2-4.4-4-9.1-10.6-10.4-14.5-.6-2-3.7-5.5-12.5-14l-11.6-11.3-3.4.8c-1.8.5-4.1.9-5 .9-1.6 0-1.5.1.5 1.7l2.2 1.7 3.1-1.7c3-1.7 3.1-1.7 3.4-.3.2.8-.2 2.1-1.1 3.1-.8 1-1.3 2-1 2.4.2.4-.5 1.1-1.7 1.7-2.2 1.1-3.7 4.6-2 4.6 1.6 0 5-4.2 4.6-5.6-.2-.7-.1-1.5.2-1.7 1.3-.8 1.2 2.5-.1 4.2-.8 1-1.3 2-1 2.4.2.4-.5 1.1-1.7 1.7-2.2 1.1-3.7 4.6-2 4.6 1.7 0 5-4 4.6-5.5-.2-.8-.1-1.6.2-1.8.9-.5 1.4 2.1.6 3.4-.4.7-.4 1.6 0 2.4.7 1.3 0 3.9-1.4 4.7-.6.3-.2 1 1.2 2.1 2.1 1.6 2.1 1.7 2.1 8.6 0 5.8.2 7.2 1.3 8.2 1.2 1.1 1.3 1.1 1.3.1 0-1.2 2.1-2.6 3.8-2.6.5 0 3.6 2.6 6.9 5.9 3.3 3.2 6.8 6 7.8 6.2 1 .2 2 .4 2.4.4.5.1 2-.4 3.5-1zM313 432c0-1.9-3.8-3.8-8.4-4.3-3.7-.4-3.8-.4-3.8 1.5 0 1.5.6 2.1 3.1 3.2 4.1 1.7 9.1 1.5 9.1-.4zM317.2 431.8c1.9-1.7 2.7-3.7 1.6-3.7-1.3 0-4.7 3.1-4.7 4.2 0 1.9.6 1.7 3.1-.5zM313.2 426.3c.2-1-.5-1.7-2.4-2.6-4.2-1.9-9.2-2.8-10.4-1.8-2.2 1.7-.7 4.1 2.8 4.5 1.4.2 3.4.6 4.4 1 2.7 1.1 5.3.6 5.6-1.1zM313.2 420.7c.2-1.5-.7-2-8.5-4.8-5.8-2-8.4-1.1-6.5 2.4.6 1.2 1.7 1.8 4.2 2.2 1.8.3 4.3.8 5.5 1.2 3.2 1.1 5 .7 5.3-1z"/>
    <path fill="#FFB700" d="M317.1 415.5c1.2-1.2 2.1-2.6 2.1-3.1 0-1.7-4.6 1.3-5.2 3.4-.7 2.5.4 2.4 3.1-.3zM313.2 415.1c.3-1.7-2.6-3.2-8.1-4.4-4.1-.9-5.9-.4-5.6 1.5.2 1 1.5 1.8 5.4 3 6.1 1.9 8 1.9 8.3-.1zM318.6 407.2c7.1-3.2 7.7-11.2 1-13.3-2.8-.9-4.6-.4-5.6 1.5-.8 1.4-.3 4.1.8 4.1.4 0 .7.5.7 1.1 0 2.8-10.9 4-15.3 1.8-1.6-.8-2.2-2.9-.9-2.9 1 0 1.6-2.1 1.2-3.6-.7-2-2.7-2.7-5.7-2-6.7 1.7-6.5 9.6.3 12.9 5.5 2.8 17.7 3 23.5.4z"/>
    <path fill="#FFB700" d="M314.2 401.1c.4-.4.2-1-.5-1.5-1.5-1.2-1.4-3 .2-5 1.2-1.5 1.4-3.8 1.8-26.8.7-39.6 3.7-69.4 7.6-76.5 1.5-2.8 1.3-2.9-2.7-.1-5.1 3.5-9.1 8.1-12.5 14.6-6.6 12.3-8.8 28.9-8.8 64.3 0 20.1.1 22.7 1.3 24.6 1.1 1.8 1.1 2.5.4 4.4-.5 1.2-.7 2.4-.5 2.6 1.5 1.2 12.1.9 13.7-.6zM374.1 363.3c.2-.3-.3-2.1-1.1-3.8-1.3-2.8-1.8-3.2-3.6-3.2-5.7 0-15-2.6-24.5-6.8-5.5-2.5-7.4-3-8.1-2.4-1.7 1.6 1.1 5.4 5.4 7.4 3.8 1.8 14.6 3.9 19.5 3.9 2.8 0 2.9.1 1.3 2.5l-1.2 1.7 3.2.1c1.8 0 4.2.3 5.4.6 3.2.7 3.2.7 3.7 0z"/>
    <path d="M407.6 381.1c0-1-3-3.8-6.1-5.6-2.4-1.4-2.8-1.4-2.8-.3 0 1.7-1.6 6.1-2.2 6.1-.3 0-.8-.9-1.1-1.9-.3-1-1.4-3.1-2.6-4.6l-2.1-2.7-1.6 2.5c-1.5 2.3-4.1 4.6-5.3 4.6-.3 0-.3-1.2-.1-2.7.2-1.6.1-2.9-.4-3.2-.5-.3-.8-.2-.8.2 0 .9-3.6 5-4.4 5-.3 0-.8-1.2-1-2.6-.2-1.4-.6-3.7-.8-5.1-.2-1.3.3-.4 1.1 2l1.6 4.5 1.7-2.7c1-1.5 1.7-3.1 1.7-3.6s.3-.7.7-.5c.4.2.9 2 1.2 4l.5 3.6 1.9-2.1c1.1-1.2 2.3-2.7 2.7-3.4.8-1.3.9-1.3 2.5.1.9.8 2.3 2.6 3.1 4.1.8 1.5 1.6 2.6 1.7 2.4.1-.1.4-1.7.6-3.4.2-1.7.4-3.2.4-3.3.1-.4 5.8 3.2 7.9 5.1 1.3 1.2 2.6 2 2.8 1.8.2-.2.4-2 .4-3.9 0-3-.3-3.8-2.2-5.5-2.1-1.9-2.2-1.9-3-.5-1 1.8-2.2 1.8-2.2 0 0-1.3-4-6.3-5.1-6.3-.3 0-1.1 1.1-1.9 2.4-.8 1.3-1.6 2.4-1.8 2.4-1 0-6.7-6.3-6.7-7.5 0-.9.4-.7 1.4.8.8 1.2 2.3 2.9 3.4 3.8 2.2 1.9 3 1.5 3.9-2.2.2-1.1.7-1.9.9-1.9.9 0 5.9 5.2 6.6 7l.7 1.7.5-1.9c.6-2.3 1.4-2.4 2.4-.3.4.9 2.6 2.8 4.7 4.1l3.9 2.5.8-2.5c.4-1.4 1-2.2 1.3-1.8.4.6-.6 4.8-1.4 5.7-.1.1-1.4-.6-2.8-1.7l-2.6-1.9v3.4c0 1.9-.2 4.1-.5 5-.2 1.9-1.5 2.4-1.5.8zM388 354.1c-4.7-3.9-5.4-4.8-5.3-6.7l.1-2 .3 1.9c.2 1.1 1.4 2.8 3 4l2.7 2.1 1.7-1.9c.9-1.1 1.7-2.3 1.7-2.8 0-1.3.3-1.1 3.4 1.6 2.8 2.4 2.9 2.5 3.3.9.2-.9.2-2.5-.2-3.7-.9-3.2-.7-3.6.7-1.7.7.9 1.8 2.3 2.5 3 1.2 1.2 1.2 1.2 1.7-.3.2-.9.5-2.5.5-3.6v-2l2.5 2.9c2.4 2.7 2.6 2.8 3.3 1.5.4-.8.8-2.6.8-4 0-1.9.2-2.4.7-1.6.8 1.2.2 4.5-1.2 7.3l-1.1 2-1.4-2.2c-1.8-2.8-2.4-2.7-3.5.3-1.1 2.8-1.8 3.1-2.8.9-.7-1.4-.8-1.2-1.3 1.7l-.5 3.3-3.2-2.5-3.2-2.5-1.5 1.7c-.8.9-1.5 2-1.5 2.5-.3.8-1 .9-2.2-.1zM429.6 339.5c-1.7-1.5-2.9-3-2.6-3.3.3-.3.6-.3.7-.2.1.2 1.5 1.6 3.1 3.3 3.7 3.8 2.9 3.9-1.2.2zM374.1 333.8c-1.6-2.1-1.4-3.5.4-5.8 1.4-1.6 2-1.9 4.4-1.6 1.5.2 4.8 1.5 7.3 3 2.9 1.7 5.9 2.8 8.2 3.1 2 .2 3.6.3 3.6.2 0-.1-.8-1.5-1.8-3-2.4-3.6-2.3-4 .4-1.8 2.8 2.2 6.1 2.9 13.6 2.6l3.6-.1-2.1-2.1c-3-2.9-2-3.2 1.2-.4 3.1 2.7 2.9 2.8-3.6 3.5-2.7.3-5.7.1-8.1-.5-3.7-.9-3.8-.9-3.1.3.4.7 1 1.3 1.4 1.3.4 0 .7.4.7.8 0 1.3-7.9.2-11.7-1.7-8.6-4.4-9.7-4.7-11.8-4.1-1.1.4-2.3 1.4-2.7 2.5-1.3 3.5 3.7 6.3 5.7 3.1.6-.9.5-1.5-.6-2.6-1.4-1.5-1.3-1.7.6-1 1.4.5 1.6 3.8.3 5-1.2 1.4-4.6 1-5.9-.7zM408.1 325.1c-1.1-1-.2-1.3 4.6-1.4 6-.1 9.6-1.1 13.9-3.8 3.4-2.2 4.4-1.7 1.1.5-3 2-7.6 3.6-12.1 4.1-2.2.2-4.6.6-5.5.7-.8.2-1.7.1-2-.1z"/>
  </g>
  <path fill="#FFB700" d="M356 503.4l2.5-1.4 1.1 1.4c1.4 1.9 5.3 1.9 7.9 0l2-1.5 1.7 1.5c2.2 1.9 6.3 1.9 8.9 0 1.8-1.4 2.1-1.4 3.3-.4.7.6 2.8 1.3 4.7 1.6 3.3.4 3.4.4 5.4-2.5 1.6-2.5 1.9-3.5 1.5-5.8-.3-1.6-.5-4.1-.6-5.7-.1-2.8-.1-2.8 3.9-4.2 2.2-.8 4.8-1.8 5.7-2.3 1.6-.9 6.1-6.1 6.1-7.1 0-.3-1.7-.7-3.9-.9-8.4-.9-9.9-5.5-4.4-13.9 8.9-13.7 14.3-27.1 14.4-35.6 0-3.8.2-5.1.7-4.3 2 3.4-1.6 17.6-7 27.8l-2.2 4.1 2.1-.5c1.1-.3 7.9-3.1 15-6.3 19.4-8.8 26.1-10.5 38.6-10 10.5.4 15 2.5 22.4 10.3 3.9 4.1 7.7 7.1 14.7 11.4 14.8 9.2 15.4 10.1 16.1 20.9.7 11 .4 11.6-8 13.5-7.1 1.6-11.6 4.9-12.8 9.5-.6 2.5.7 2.5 4.3.2l2.6-1.7 1.2 1.7c1.5 2.2 4.8 2.2 7.5 0l2.1-1.7 2.1 1.7c3.3 2.6 7.6 2 8.8-1.3.2-.6.9-.4 2.1.7 2.4 2.1 8.5 3 9.1 1.3.3-.6-.2-2.2-1.1-3.4-3.6-5.3-4.7-7.9-4.7-10.8-.1-4 1.1-6 5.7-9.3 5.6-4 7.3-9.1 3.1-9.1-2.6 0-5.3-2.3-6.9-6.1-3.4-7.7-2.7-16.2 2.4-30.5 5.2-14.5 5.8-17.2 5.8-26.9 0-7.8-.2-9.2-2-13.5-1.1-2.6-3.3-6.5-4.9-8.7l-2.9-3.9 3.8-3.1c11.5-9.5 9.2-25.1-4.7-31.2-4.2-1.8-5.3-2-12.7-2-4.5 0-11.3.6-15.1 1.3-3.9.7-10.6 1.3-15.1 1.3-7.2 0-8.5-.1-11.3-1.6-2.9-1.5-3.4-2.3-4-5.9-.1-.7-.6-1.5-1.1-1.6-1-.3-5.6 3.7-6.2 5.4-.3.9-.6.8-1.6-.3-.6-.8-1.6-2.5-2-3.9-1.2-3.5.3-6.1 4.4-8.1l3.2-1.5-1.9-1.2c-3.9-2.4-10.5-.8-12.8 3.2-.7 1.1-1.4 2-1.6 2-.2 0-1.5-1.1-2.8-2.4-5-4.9-3.3-12.1 3.4-14.3 3.6-1.2 6.7-.3 7.4 2.1 1 3.6 4.1-1.1 3.6-5.5-.4-2.9-.3-3 1.7-3 2.8 0 8.6 3.6 10.4 6.4 2.1 3.3 2 8.4-.4 12.3l-1.8 3 2.4-.5c3.5-.7 6.9-2.9 8.6-5.5 1.8-2.8 2-8.2.4-11.1-1.6-2.8-1.4-3.3.9-2.3 3.9 1.6 6 3.4 7.6 6.5 1.4 2.8 1.5 3.5.7 6.3-.5 1.8-1.5 4.1-2.3 5.2-1.3 1.7-1.3 2-.3 2 1.9 0 5.8-1.8 7.2-3.3.7-.7 1.7-2.6 2.3-4.1l1-2.7 1.2 2.1c1.6 3 4.8 5.6 8.6 7.3 4.1 1.8 5.9 1.9 3.7.2-1.5-1.1-4.2-9-3.3-9.8.5-.5 6.1 3.9 12.5 9.7 6.1 5.5 9.9 7.3 15.5 7.3 7.1 0 11.3-6.2 8.1-12.1-1.9-3.4-6-3.9-8.5-1-1.1 1.3-1.4 2.4-1.1 3.8.4 1.7.2 2-1.3 2-2.1 0-6.2-2.7-13.4-8.7-11.1-9.2-24.5-17.1-34.3-19.9-6.2-1.8-19.6-2.6-25.9-1.4-6.9 1.3-15 5.2-19.4 9.4-7.8 7.4-8 17.4-.3 26.4l2.2 2.6-1.5 2.3c-2.2 3.3-2 7.8.5 11.2 1.1 1.5 2.1 2.7 2.4 2.7.2 0 .5-.9.6-2.1.2-2.9 1.5-4.8 3.6-5.6 1.9-.7 3.2-.4 12 3.2 9.3 3.7 24.5 4 40.7.7 7.9-1.6 17.3-1.5 21.4.2 7.6 3.2 9.3 11.4 3.8 17.6-2.4 2.7-4.7 3.8-12.5 5.9-5.9 1.6-7.3 1.7-20.8 1.6-11.5-.1-15.6.1-20.3 1.1-5.1 1.1-8.2 1.2-23.2.8l-17.3-.4 1.9 1.6c1.1.9 2.5 1.9 3.3 2.4 1.3.7 1.3.9-.7 1.6-1.1.4-3.7.8-5.6.8h-3.6l-.5 3c-.3 1.7-.2 3.6 0 4.3.4 1 .3 1.2-.8.8-.7-.3-2.8-.8-4.6-1.2-1.8-.4-4.2-1.2-5.4-1.7-1.9-1-2.2-.9-2.9.3-.6 1.1-6.7 5.6-7.5 5.6-.1 0-.3-.9-.4-1.9-.1-1.1-1-3.8-1.9-6.1-1-2.3-2-4.8-2.3-5.6-.4-1.2-.6-1.2-1.1-.3-.3.6-.8 2.1-1.1 3.5-.3 1.3-1.2 3.5-2 4.8l-1.5 2.4-1-2.1c-1.1-2.2-2.8-4.5-3.5-4.5-.2 0-.6.7-.8 1.6-.5 1.8-4.7 6.8-5.7 6.8-.4 0-.7-1.4-.7-3.1s-.3-3.1-.7-3.1-.7.4-.7 1c0 1.3-3.6 5.3-4.8 5.3-.5 0-1.4.5-1.9 1-1.3 1.5-2.4 1.3-1.8-.4.3-.8.1-2.6-.4-4s-1-3-1.1-3.4c-.2-.5-1.5-.4-4.2.5-4.4 1.4-5.8 1.2-3.6-.6.8-.6 2.1-2.9 2.8-5 .7-2.1 1.7-3.9 2.3-4.1.8-.2.8.1-.2 1.3-.7.9-1.2 2.1-1.2 2.7 0 .6-.5 2-1.1 3.1-.6 1.1-1 2.1-.9 2.3.1.1 1.8-.5 3.7-1.4l3.4-1.6v1.5c0 .8.4 3 .9 4.8l.9 3.3 2.3-1.1c2.4-1.1 4.7-5 4.7-8.1 0-1.5.9-1.3 1.2.3.1.5.6 2.2 1.2 3.9l1 3.1 1.6-1.9c.9-1.1 2-3.1 2.5-4.6.8-2.6 2.1-3.7 2.1-1.8 0 1.3 3.7 6.2 4.4 5.8.3-.2 1-2 1.5-4 1-4.2 2.7-7 3.7-6.4.4.2.5.7.3 1-.2.3.6 3 1.9 6.1 1.2 3 2.5 6 2.8 6.7.5 1.1.9 1 3.5-1.4 1.7-1.5 3.2-3.1 3.3-3.6.3-.8.6-.8 2.2.2 2.2 1.3 9.4 3.5 10 3 .2-.2.4-2.1.5-4.2l.1-3.9 2.1.4c1.2.2 3.6.2 5.4 0l3.3-.5-2.9-2c-1.6-1.1-3.2-2.5-3.6-3.2-.4-.7-1.8-1.3-3.5-1.4-4.4-.4-12.2-4.7-12.2-6.8 0-.4 1.1.3 2.4 1.5 2.9 2.7 7 4.4 10.5 4.4h2.7l-1.6-2.2c-.9-1.3-1.8-3.6-2-5.6-.3-3.1-.6-3.6-3.9-5.9-2-1.4-4.4-3.4-5.4-4.5l-1.8-2.1-.9 2.4c-.5 1.3-1.1 2.4-1.4 2.4-.3 0-1.2-.8-2.2-1.7-1-1-1.9-1.7-2.2-1.7-.2 0-1.1 1.3-1.9 2.9l-1.4 2.9-1.1-1.7c-.6-.9-2.1-2.5-3.2-3.6-1.2-1.1-1.8-1.9-1.4-1.9.4 0 1.8 1.1 3.2 2.4l2.4 2.4 1-1.8c.6-1.1.8-2.7.5-4-.4-1.9-.3-2 .4-.8.5.8 1.9 2.2 3.2 3.3l2.3 1.9 1.6-2.9c1.6-2.9 1.6-2.9 2.3-1.2 1 2.3 8 8 13.9 11.4.9.5.5-1.3-1.2-5.3-.4-1.1-.8-3-.8-4.3 0-1.9-.6-2.8-3-4.7-3.6-2.7-4.7-4.6-5.4-9-.3-1.8-.9-3.7-1.4-4.4-.7-.9-.8-.4-.7 2.9.1 2.2-.2 5-.6 6.1l-.9 2.1-.7-1.7c-.4-1-2-2.6-3.7-3.7-1.6-1.1-2.8-2.1-2.6-2.4.2-.2 1.9.8 3.8 2.2 2.8 2.2 3.4 2.4 3.8 1.4.5-1.1 0-6-.9-9.4-.4-1.7-.4-1.7 1.7.4 1.6 1.6 2.4 3.4 3.1 6.6.8 4.1 1.3 4.8 5.1 8.1 2.3 2 4.3 3.5 4.4 3.4.1-.1.4-5.3.6-11.5.4-11.9-.1-14.7-2.9-18.3l-1.5-1.9 2.3-2.5c3-3.2 4.4-5.8 5-9.4l.5-2.9-2.6 2.5c-2.1 2-3.1 2.5-5.6 2.5-2.4 0-3.4-.4-5-2.2-2-2.1-5.5-4.1-8.8-5.1-1.2-.4-1.7-.2-1.7.6 0 .6-.7 2.4-1.5 4l-1.5 2.8-3.2-3.2c-2-1.9-4.3-3.4-6-3.9-4.4-1.2-4.7-1-4.7 2.2 0 5-2.1 5.9-6 2.6-2.9-2.5-5.4-3.1-10.9-2.5l-4.3.5.8 1.9c.6 1.6.5 2.3-.9 4.1-2.2 3-5.2 4.3-9.6 4.3-2.1 0-4.7.4-5.7 1-1.1.5-3.8 1.1-6 1.3-2.2.2-4.6.6-5.3.8-1.1.4-1.2.1-.8-2.3.5-3.7-2-6.4-6-6.4-5.2 0-7.6 4.6-5.6 10.8.4 1.2.9 3 1.1 4.1.2 1.1 2.6 4.1 5.4 7 2.8 2.8 5.4 5.6 5.8 6.4.4.8 1.8 2 3.1 2.7l2.4 1.3-.3-2.5c-.3-2.8.3-3.2 1.7-1.3.5.7 1.9 1.8 3 2.5 1.8 1.1 2 1.1 2 .2 0-.6.4-2 .8-3l.8-2 1.4 2.7c.8 1.5 3.2 4.8 5.5 7.4 4.4 5.1 7 10.7 5.7 12-.6.5-2.1.5-5.2-.1-2.4-.5-5.4-.7-6.7-.6-2.5.4-2.7 0-1.2-1.9 1.6-2.1 1.4-2.4-1.8-2.4-3.7 0-13-1.8-16.6-3.2-3.5-1.4-4.3-1-5.3 2.3-.5 1.5-1.3 4.2-1.9 6l-1 3.3 3.8-.4c2.1-.2 4.7-.7 5.9-1 1.2-.4 2.3-.5 2.4-.4.1.1-.4 1.4-1.2 2.8l-1.4 2.6 2.3-.5c1.3-.3 3.2-.9 4.3-1.4 1.9-.9 2-.8 3.5 1.5 1.8 2.9 3.3 2.8 3.6-.3.3-3.2 1.4-2.7 3.4 1.5 1.9 4.1 3.9 5.5 4.3 3.1.1-.8 1.2-2.1 2.3-2.9 2.3-1.6 4-1.1 5 1.4 1 2.6-1.3 5.3-7.9 9.3-13.3 8-21 19-23.2 33.1-2 12.6 4.2 25.7 16.7 35.1 6 4.5 15.4 9.2 14.8 7.4-2.6-7.7-2.5-22.3.1-24.8.4-.4.3 1.2-.3 3.4-2.1 8.3-1.2 15 4.1 30.6 4.8 14.1 4.1 20.1-2.7 24.1-2.2 1.3-3.6 1.5-9.5 1.4-6.4-.1-7.1.1-9.1 1.7-2 1.6-4.6 6.8-4.6 9.2-.3.9 1.2.8 4.1-.9zM459.4 503.1l2.7-1.7 1.8 1.7c2.4 2.3 5.2 2.2 7.4-.1 1-1 1.9-1.7 2-1.6.1.2.5.9 1 1.7.6 1 1.7 1.5 3.8 1.6 2.5.2 3.2-.1 4.2-1.5l1.2-1.7 2.6 1.7c7.2 4.6 11-.2 7.8-9.9-1.6-4.9-.7-7.7 4.5-13.9 2.2-2.6 4-5.5 4.1-6.3 0-1.3-.4-1.5-3.4-1.4-2.8.1-3.7-.2-5.2-1.9-2.4-2.7-2.3-5.7.4-9.1l2.2-2.7-3.8-2.6c-2.1-1.4-5.9-4.8-8.5-7.5-5.7-6.1-11.3-9-18.8-9.6l-5-.4v3.8c0 4.8 2.3 9.5 8.5 17.4 7.1 9 7.5 10.4 7.8 22.1l.2 9.9-2 1.9c-1.8 1.8-2.7 2-8.6 2.3-5.7.3-6.9.6-8.5 2.1-2.2 2-2.9 3-3.6 5.7-.4 1.6-.2 1.9.9 1.9 1.1-.1 2.9-.9 4.3-1.9zM307.8 477.5c.6-.9 1.1-2.2 1.1-3.1 0-1.3.6-1.6 3.3-2l3.3-.5-2.2-1.8c-2.6-2.1-2.9-3.7-.6-3.7s6.2-2.4 6.8-4.2c.3-.8.1-1.9-.4-2.5-1.3-1.5-3.7-1.3-4.2.4-.5 1.8-1.3 1.8-3.1 0-2.8-2.6-2.8-8.1-.1-11.2 1.3-1.5 1.3-1.6-.4-3.1-1.7-1.7-3-4.9-2.2-5.7.3-.2 1.6-.1 3.1.4 2 .7 2.8.7 3.7 0 2.5-2-.2-4.5-4.3-4-1.6.2-2.3 0-2.5-.8-.2-.6-1.6-1.5-3.2-1.9-2.9-.7-2.9-.7-2.9 1.3 0 2.2-1.2 2.6-3.6 1.2-1.9-1.1-3.8-.3-3.8 1.8 0 1.9 1.9 2.8 5.3 2.6 2.6-.2 2.7 1.8.2 4.6l-1.8 2 1.4 2c2.1 3 1.9 8.1-.4 10.6l-1.8 2-1.2-1.6c-1.6-2.2-3.9-2-4.5.3-.4 1.5-.1 2.2 1.8 3.8 1.3 1.1 3.2 2 4.2 2 2.5 0 2.4 2-.2 3.9l-2 1.5 3.1.5c1.7.3 3.1.8 3.1 1.1 0 1.3 2.2 5.5 2.9 5.5.6.1 1.4-.6 2.1-1.4zM348.5 459.8c2.8-1.1 9-6.3 9-7.6 0-.4-1.7-2.3-3.8-4.2-4.4-4-9.1-10.6-10.4-14.5-.6-2-3.7-5.5-12.5-14l-11.6-11.3-3.4.8c-1.8.5-4.1.9-5 .9-1.6 0-1.5.1.5 1.7l2.2 1.7 3.1-1.7c3-1.7 3.1-1.7 3.4-.3.2.8-.2 2.1-1.1 3.1-.8 1-1.3 2-1 2.4.2.4-.5 1.1-1.7 1.7-2.2 1.1-3.7 4.6-2 4.6 1.6 0 5-4.2 4.6-5.6-.2-.7-.1-1.5.2-1.7 1.3-.8 1.2 2.5-.1 4.2-.8 1-1.3 2-1 2.4.2.4-.5 1.1-1.7 1.7-2.2 1.1-3.7 4.6-2 4.6 1.7 0 5-4 4.6-5.5-.2-.8-.1-1.6.2-1.8.9-.5 1.4 2.1.6 3.4-.4.7-.4 1.6 0 2.4.7 1.3 0 3.9-1.4 4.7-.6.3-.2 1 1.2 2.1 2.1 1.6 2.1 1.7 2.1 8.6 0 5.8.2 7.2 1.3 8.2 1.2 1.1 1.3 1.1 1.3.1 0-1.2 2.1-2.6 3.8-2.6.5 0 3.6 2.6 6.9 5.9 3.3 3.2 6.8 6 7.8 6.2 1 .2 2 .4 2.4.4.5.1 2-.4 3.5-1zM313 432c0-1.9-3.8-3.8-8.4-4.3-3.7-.4-3.8-.4-3.8 1.5 0 1.5.6 2.1 3.1 3.2 4.1 1.7 9.1 1.5 9.1-.4zM317.2 431.8c1.9-1.7 2.7-3.7 1.6-3.7-1.3 0-4.7 3.1-4.7 4.2 0 1.9.6 1.7 3.1-.5zM313.2 426.3c.2-1-.5-1.7-2.4-2.6-4.2-1.9-9.2-2.8-10.4-1.8-2.2 1.7-.7 4.1 2.8 4.5 1.4.2 3.4.6 4.4 1 2.7 1.1 5.3.6 5.6-1.1zM313.2 420.7c.2-1.5-.7-2-8.5-4.8-5.8-2-8.4-1.1-6.5 2.4.6 1.2 1.7 1.8 4.2 2.2 1.8.3 4.3.8 5.5 1.2 3.2 1.1 5 .7 5.3-1z"/>
  <path fill="#FFB700" d="M317.1 415.5c1.2-1.2 2.1-2.6 2.1-3.1 0-1.7-4.6 1.3-5.2 3.4-.7 2.5.4 2.4 3.1-.3zM313.2 415.1c.3-1.7-2.6-3.2-8.1-4.4-4.1-.9-5.9-.4-5.6 1.5.2 1 1.5 1.8 5.4 3 6.1 1.9 8 1.9 8.3-.1zM318.6 407.2c7.1-3.2 7.7-11.2 1-13.3-2.8-.9-4.6-.4-5.6 1.5-.8 1.4-.3 4.1.8 4.1.4 0 .7.5.7 1.1 0 2.8-10.9 4-15.3 1.8-1.6-.8-2.2-2.9-.9-2.9 1 0 1.6-2.1 1.2-3.6-.7-2-2.7-2.7-5.7-2-6.7 1.7-6.5 9.6.3 12.9 5.5 2.8 17.7 3 23.5.4z"/>
  <path fill="#FFB700" d="M314.2 401.1c.4-.4.2-1-.5-1.5-1.5-1.2-1.4-3 .2-5 1.2-1.5 1.4-3.8 1.8-26.8.7-39.6 3.7-69.4 7.6-76.5 1.5-2.8 1.3-2.9-2.7-.1-5.1 3.5-9.1 8.1-12.5 14.6-6.6 12.3-8.8 28.9-8.8 64.3 0 20.1.1 22.7 1.3 24.6 1.1 1.8 1.1 2.5.4 4.4-.5 1.2-.7 2.4-.5 2.6 1.5 1.2 12.1.9 13.7-.6zM374.1 363.3c.2-.3-.3-2.1-1.1-3.8-1.3-2.8-1.8-3.2-3.6-3.2-5.7 0-15-2.6-24.5-6.8-5.5-2.5-7.4-3-8.1-2.4-1.7 1.6 1.1 5.4 5.4 7.4 3.8 1.8 14.6 3.9 19.5 3.9 2.8 0 2.9.1 1.3 2.5l-1.2 1.7 3.2.1c1.8 0 4.2.3 5.4.6 3.2.7 3.2.7 3.7 0z"/>
  <path d="M407.6 381.1c0-1-3-3.8-6.1-5.6-2.4-1.4-2.8-1.4-2.8-.3 0 1.7-1.6 6.1-2.2 6.1-.3 0-.8-.9-1.1-1.9-.3-1-1.4-3.1-2.6-4.6l-2.1-2.7-1.6 2.5c-1.5 2.3-4.1 4.6-5.3 4.6-.3 0-.3-1.2-.1-2.7.2-1.6.1-2.9-.4-3.2-.5-.3-.8-.2-.8.2 0 .9-3.6 5-4.4 5-.3 0-.8-1.2-1-2.6-.2-1.4-.6-3.7-.8-5.1-.2-1.3.3-.4 1.1 2l1.6 4.5 1.7-2.7c1-1.5 1.7-3.1 1.7-3.6s.3-.7.7-.5c.4.2.9 2 1.2 4l.5 3.6 1.9-2.1c1.1-1.2 2.3-2.7 2.7-3.4.8-1.3.9-1.3 2.5.1.9.8 2.3 2.6 3.1 4.1.8 1.5 1.6 2.6 1.7 2.4.1-.1.4-1.7.6-3.4.2-1.7.4-3.2.4-3.3.1-.4 5.8 3.2 7.9 5.1 1.3 1.2 2.6 2 2.8 1.8.2-.2.4-2 .4-3.9 0-3-.3-3.8-2.2-5.5-2.1-1.9-2.2-1.9-3-.5-1 1.8-2.2 1.8-2.2 0 0-1.3-4-6.3-5.1-6.3-.3 0-1.1 1.1-1.9 2.4-.8 1.3-1.6 2.4-1.8 2.4-1 0-6.7-6.3-6.7-7.5 0-.9.4-.7 1.4.8.8 1.2 2.3 2.9 3.4 3.8 2.2 1.9 3 1.5 3.9-2.2.2-1.1.7-1.9.9-1.9.9 0 5.9 5.2 6.6 7l.7 1.7.5-1.9c.6-2.3 1.4-2.4 2.4-.3.4.9 2.6 2.8 4.7 4.1l3.9 2.5.8-2.5c.4-1.4 1-2.2 1.3-1.8.4.6-.6 4.8-1.4 5.7-.1.1-1.4-.6-2.8-1.7l-2.6-1.9v3.4c0 1.9-.2 4.1-.5 5-.2 1.9-1.5 2.4-1.5.8zM388 354.1c-4.7-3.9-5.4-4.8-5.3-6.7l.1-2 .3 1.9c.2 1.1 1.4 2.8 3 4l2.7 2.1 1.7-1.9c.9-1.1 1.7-2.3 1.7-2.8 0-1.3.3-1.1 3.4 1.6 2.8 2.4 2.9 2.5 3.3.9.2-.9.2-2.5-.2-3.7-.9-3.2-.7-3.6.7-1.7.7.9 1.8 2.3 2.5 3 1.2 1.2 1.2 1.2 1.7-.3.2-.9.5-2.5.5-3.6v-2l2.5 2.9c2.4 2.7 2.6 2.8 3.3 1.5.4-.8.8-2.6.8-4 0-1.9.2-2.4.7-1.6.8 1.2.2 4.5-1.2 7.3l-1.1 2-1.4-2.2c-1.8-2.8-2.4-2.7-3.5.3-1.1 2.8-1.8 3.1-2.8.9-.7-1.4-.8-1.2-1.3 1.7l-.5 3.3-3.2-2.5-3.2-2.5-1.5 1.7c-.8.9-1.5 2-1.5 2.5-.3.8-1 .9-2.2-.1zM429.6 339.5c-1.7-1.5-2.9-3-2.6-3.3.3-.3.6-.3.7-.2.1.2 1.5 1.6 3.1 3.3 3.7 3.8 2.9 3.9-1.2.2zM374.1 333.8c-1.6-2.1-1.4-3.5.4-5.8 1.4-1.6 2-1.9 4.4-1.6 1.5.2 4.8 1.5 7.3 3 2.9 1.7 5.9 2.8 8.2 3.1 2 .2 3.6.3 3.6.2 0-.1-.8-1.5-1.8-3-2.4-3.6-2.3-4 .4-1.8 2.8 2.2 6.1 2.9 13.6 2.6l3.6-.1-2.1-2.1c-3-2.9-2-3.2 1.2-.4 3.1 2.7 2.9 2.8-3.6 3.5-2.7.3-5.7.1-8.1-.5-3.7-.9-3.8-.9-3.1.3.4.7 1 1.3 1.4 1.3.4 0 .7.4.7.8 0 1.3-7.9.2-11.7-1.7-8.6-4.4-9.7-4.7-11.8-4.1-1.1.4-2.3 1.4-2.7 2.5-1.3 3.5 3.7 6.3 5.7 3.1.6-.9.5-1.5-.6-2.6-1.4-1.5-1.3-1.7.6-1 1.4.5 1.6 3.8.3 5-1.2 1.4-4.6 1-5.9-.7zM408.1 325.1c-1.1-1-.2-1.3 4.6-1.4 6-.1 9.6-1.1 13.9-3.8 3.4-2.2 4.4-1.7 1.1.5-3 2-7.6 3.6-12.1 4.1-2.2.2-4.6.6-5.5.7-.8.2-1.7.1-2-.1z"/>
  <path fill="#FF5B00" d="M178.9 168.7H248v456.5h-69.1z"/>
  <path fill="#FFB700" stroke="#000" stroke-width="2.126" d="M303.9 576.7s-.2 5.3-.9 8.6c-.9 3.9-2.4 8.9-3.1 12.8-.7 10.2-.2 22-13.4 22.9-5.2.3-6.3-2-9.2-2.4-1.9-.3-6.3-.3-6.3-.3l.4-4.6c.1-.7-7.1-9.4-.5-15.9 5.5-5.5 18.5-5.2 24.8-10 4.3-3.2 8.2-11.1 8.2-11.1zM528.1 217s.2-5.3.9-8.6c.9-3.9 2.4-8.9 3.1-12.8.7-10.2.2-22 13.4-22.9 5.2-.3 6.3 2 9.2 2.4 1.9.3 6.3.3 6.3.3l-.4 4.6c-.1.7 7.1 9.4.5 15.9-5.5 5.5-18.5 5.2-24.8 10-4.4 3.2-8.2 11.1-8.2 11.1zM303.9 217s-3.9-7.9-8.1-11.1c-6.3-4.8-19.3-4.4-24.8-10-6.6-6.5.5-15.2.5-15.9l-.4-4.6s4.5-.1 6.3-.3c2.8-.4 3.9-2.7 9.2-2.4 13.2.9 12.7 12.7 13.4 22.9.7 3.9 2.2 8.9 3.1 12.8.6 3.3.8 8.6.8 8.6z"/>
</svg>
