<svg xmlns="http://www.w3.org/2000/svg" height="512" width="512">
    <g fill-rule="evenodd" clip-path="url(#a)">
        <path fill="#fff" d="M0 .084h767.87v511.92h-767.87z"/>
        <path fill="#006" d="M0 0h232.74v232.75h-232.74z"/>
        <path fill="#c00" d="M0 464.87h767.89v47.127h-767.89z"/>
        <path fill="#c00" d="M0 465.43h767.89v46.574h-767.89z"/>
        <path fill="#c00" d="M0 372.52h767.89v46.21h-767.89z"/>
        <path fill="#c00" d="M0 279.26h765.96v46.7h-765.96z"/>
        <path fill="#c00" d="M232.67.055h535.17v46.494h-535.17z"/>
        <path fill="#c00" d="M232.67 186.06h535.17v46.796h-535.17z"/>
        <path fill="#c00" d="M232.67 93.361h535.17v46.494h-535.17z"/>
        <path d="M166.35 177.47l-50.71-30.98-50.465 31.29 18.769-50.85-50.373-31.394 62.321-.438 19.328-50.691 19.744 50.574 62.321.067-50.115 31.693 19.184 50.732z" fill="#fff"/>
    </g>
</svg>
