<svg xmlns="http://www.w3.org/2000/svg" id="flag-icon-css-ls" width="512" height="512">
  <path fill="#fff" d="M0 0h512v512H0z"/>
  <path fill="#009543" d="M0 358.4h512V512H0z"/>
  <path fill="#00209f" d="M0 0h512v153.6H0z"/>
  <path stroke="#000" stroke-width="1.71" d="M257.6 163.1c-2.92.07-5.77 3.3-5.77 3.3l.25 34.53-10.9 11.42h8.83l-.08 19.8-52.2 70.3-7.72-2.66-13.5 28.77s33.37 20.9 81.8 20.33c53.15-.64 82.03-21.29 82.03-21.29l-13.94-28.4-6.83 2.96-52.88-69.94-.07-20.39h8.82l-12-11.28.07-34.4s-3-3.1-5.91-3.05z"/>
  <path fill="none" stroke="#000" stroke-width="8.53" d="M275.8 245.78h-36.1s-13.1-27.61-10.98-46.91c2.16-19.66 13.4-28.95 28.33-29.12 17.65-.2 26.9 8.65 29.7 28.33 2.77 19.5-10.95 47.7-10.95 47.7z"/>
  <path fill="#fff" d="M194.5 311.59c-.6.78-4.93 9.44-4.93 9.44l7.48-1.58-2.56-7.86zm4.32 11.2l-7.87 2.57 9.44 3.73-1.57-6.3zm3.54-11l3.93 11.6 9.64-2.75-2.55-5.51-11.02-3.35zm6.1 15.73l1.37 4.72 12.8 3.15-5.12-10.82-9.05 2.95zm14.16-9.84l4.53 10.82 9.64-3.73-3.15-4.73-11.02-2.36zm6.3 14.76l1.57 4.13 14.95 2.16-6.3-9.83-10.22 3.54zm14.36-11.6l5.5 9.63 13.97-5.11-1.57-3.74-17.9-.79zm8.06 13.17l2.95 5.12 17.31-.6-6.49-9.63-13.77 5.11zm18.3-12.78l4.72 8.06 11.01-5.31-2.95-4.33-12.78 1.58zm18.1 6.1l-11.02 5.5 2.95 4.72 14.75-2.36-6.69-7.87zm3.54-8.47l5.7 7.09 9.25-7.28-3.15-3.35-11.8 3.54zm16.91 3.74l-8.85 6.7 2.36 4.12 12.2-3.15-5.7-7.67zm12.2-13.97l2.16 3.15-6.1 9.05-6.29-8.06 10.23-4.13zm4.13 7.87l3.74 7.48-7.48 2.56-.59-3.54 4.33-6.5z"/>
</svg>
