<?xml version="1.0" encoding="UTF-8" standalone="no"?>
<svg
   xmlns:dc="http://purl.org/dc/elements/1.1/"
   xmlns:cc="http://creativecommons.org/ns#"
   xmlns:rdf="http://www.w3.org/1999/02/22-rdf-syntax-ns#"
   xmlns:svg="http://www.w3.org/2000/svg"
   xmlns="http://www.w3.org/2000/svg"
   xmlns:sodipodi="http://sodipodi.sourceforge.net/DTD/sodipodi-0.dtd"
   xmlns:inkscape="http://www.inkscape.org/namespaces/inkscape"
   height="512"
   width="512"
   viewBox="0 0 512 512"
   id="svg2"
   version="1.1"
   inkscape:version="0.91 r13725"
   sodipodi:docname="ls.svg">
  <metadata
     id="metadata25">
    <rdf:RDF>
      <cc:Work
         rdf:about="">
        <dc:format>image/svg+xml</dc:format>
        <dc:type
           rdf:resource="http://purl.org/dc/dcmitype/StillImage" />
      </cc:Work>
    </rdf:RDF>
  </metadata>
  <sodipodi:namedview
     pagecolor="#ffffff"
     bordercolor="#666666"
     borderopacity="1"
     objecttolerance="10"
     gridtolerance="10"
     guidetolerance="10"
     inkscape:pageopacity="0"
     inkscape:pageshadow="2"
     inkscape:window-width="1385"
     inkscape:window-height="855"
     id="namedview23"
     showgrid="false"
     inkscape:zoom="0.4609375"
     inkscape:cx="256"
     inkscape:cy="256"
     inkscape:window-x="55"
     inkscape:window-y="1"
     inkscape:window-maximized="1"
     inkscape:current-layer="svg2" />
  <defs
     id="defs4">
    <clipPath
       id="a">
      <path
         d="M73.828-44h300v300h-300z"
         id="path7" />
    </clipPath>
  </defs>
  <path
     style="fill:#ffffff"
     inkscape:connector-curvature="0"
     id="path11"
     d="m 0,-1.8e-6 512,0 L 512,512.00001 l -512,0 z" />
  <path
     style="fill:#009543"
     inkscape:connector-curvature="0"
     id="path13"
     d="m 0,358.40001 512,0 0,153.6 -512,0 z" />
  <path
     style="fill:#00209f"
     inkscape:connector-curvature="0"
     id="path15"
     d="m 0,-1.8e-6 512,0 L 512,153.6 0,153.6 Z" />
  <path
     style="stroke:#000000;stroke-width:1.70754743"
     inkscape:connector-curvature="0"
     id="path17"
     d="m 257.59709,163.10443 c -2.9184,0.0631 -5.76512,3.29386 -5.76512,3.29386 l 0.25259,34.5327 -10.90219,11.42101 8.82347,0 -0.0734,19.80075 -52.20864,70.30272 -7.71754,-2.66752 -13.4912,28.77611 c 0,0 33.36533,20.89131 81.7937,20.32128 53.15073,-0.63147 82.02923,-21.28555 82.02923,-21.28555 l -13.94005,-28.40576 -6.82667,2.9696 -52.87765,-69.9392 -0.0734,-20.39125 8.82347,0 -12.00982,-11.28107 0.0717,-34.4047 c 0,0 -2.99008,-3.10613 -5.90848,-3.04298 z" />
  <path
     style="fill:none;stroke:#000000;stroke-width:8.53385639"
     inkscape:connector-curvature="0"
     id="path19"
     d="m 275.8004,245.77707 -36.10112,0 c 0,0 -13.10379,-27.60875 -10.97899,-46.90944 2.16235,-19.65397 13.39392,-28.95019 28.32726,-29.11574 17.65546,-0.19626 26.90901,8.65281 29.70453,28.32897 2.76992,19.49696 -10.95339,47.6945 -10.95339,47.6945 z" />
  <path
     style="fill:#ffffff"
     inkscape:connector-curvature="0"
     id="path21"
     d="m 194.49139,311.58614 c -0.59051,0.78506 -4.91862,9.44128 -4.91862,9.44128 l 7.4752,-1.57355 -2.55658,-7.86773 z m 4.3281,11.2128 -7.86773,2.55658 9.44128,3.7376 -1.57355,-6.29418 z m 3.53963,-11.01654 3.93557,11.60534 9.63926,-2.75286 -2.5583,-5.50912 -11.01653,-3.34506 z m 6.09963,15.73718 1.37557,4.72064 12.78805,3.1488 -5.11488,-10.82027 -9.04874,2.95083 z m 14.16192,-9.83552 4.52608,10.82026 9.63925,-3.7376 -3.1488,-4.72234 -11.01483,-2.36032 z m 6.29589,14.75413 1.57355,4.13013 14.9504,2.16406 -6.29419,-9.83552 -10.22976,3.54133 z m 14.35989,-11.60704 5.50912,9.63925 13.96566,-5.11488 -1.57355,-3.7376 -17.90123,-0.78506 z m 8.06571,13.18059 2.95083,5.11488 17.31072,-0.59051 -6.49216,-9.63925 -13.76939,5.11488 z m 18.29547,-12.78635 4.72064,8.064 11.01653,-5.31115 -2.95253,-4.3281 -12.78464,1.57525 z m 18.09749,6.09621 -11.01653,5.50912 2.95082,4.72064 14.75414,-2.36032 -6.69014,-7.86773 z m 3.54133,-8.45824 5.70368,7.08267 9.24673,-7.27893 -3.1488,-3.34507 -11.80161,3.54133 z m 16.91649,3.7376 -8.85249,6.69014 2.36203,4.13013 12.19584,-3.14709 -5.70538,-7.67318 z m 12.19754,-13.96736 2.16235,3.1488 -6.09792,9.04875 -6.29419,-8.06571 10.22976,-4.13013 z m 4.13014,7.86944 3.7376,7.4752 -7.4752,2.5583 -0.59051,-3.54134 4.32811,-6.49216 z" />
</svg>
