<svg xmlns="http://www.w3.org/2000/svg" height="512" width="512" version="1"><g fill-rule="evenodd"><rect height="512" width="512" fill="#eb0013"/><path d="M296.81 313.37l-133.4 93.29 34.373-105.26 17.854 12.931-12.81 38.45 86.999-62.695 6.984 23.284zm13.684-60.925l46.566 156.5-87.443-65.253 17.986-12.747 31.118 23.349-32.522-102.72 24.295.874zm-55.199-31.074l163.91.193-89.323 64.423-7.146-20.854 33.212-22.235-108.35 1.529 7.704-23.057zm-46.343 41.839l51.901-156.73 35.721 107.75-22.043.279-13.158-41.272-32.922 104.49-19.5-14.516zm26.599 56.326l-132.23-97.057 111.62-.863-6.511 21.059-41.429-.167 88.359 62.936-19.809 14.092z" fill="#0b5035"/></g></svg>