<svg xmlns="http://www.w3.org/2000/svg" id="flag-icons-me" viewBox="0 0 512 512">
  <path fill="#d3ae3b" d="M0 0h512v512H0z"/>
  <path fill="#c40308" d="M25.6 25.6h460.8v460.8H25.6z"/>
  <path fill="#b96b29" d="M367.4 251.8c3-.8 13.5-3.9 20.8-9.8s8.8-10.7 9.4-13.3.8-4.6-1-3.2c-2 1.5-7.7 6-11.6 8.2a43 43 0 0 1-9.6 3.7c-2 .6-3.8 1-1.7.2s8.6-3.1 13.7-8.2c5.1-5.2 9.2-12.8 9.3-17.6 0-4.7-.3-4.3-1.8-3.1s-6.9 7.8-10 10.3a96 96 0 0 1-10.3 7.3c-2.4 1.4-5.8 3-1-.2s13.8-11 17.5-21 3-16 3-17c-.1-1-1-3-1.8-1.1s-6.9 14-11.8 19.2c-4.8 5.2-3.7 4.2-4.8 5s-3 2.3-.5-.6c2.3-3 7.2-9.7 9.7-16.5a55 55 0 0 0 3.3-17.3c0-3.9-1.6-9.2-2.4-10.8s-1.5-2.8-1.7-1-4.2 13.8-6.3 19.6a75 75 0 0 1-7.1 13.7c-.8 1.2-3 3.8-.7-.6a83 83 0 0 0 7.5-29.4 47 47 0 0 0-2.8-22.3c-1.6-3.3-3.1-4.5-3.1-4.5s.3 8.3-2.2 20.3-6.1 18.2-6.1 18.2-1.5 1.8-.5-1.1c.7-2 2.2-6.2 2.8-13.4.7-7.5.8-16.1-1.4-23.4-2.4-8-6.5-12-6.5-12-1.2 11.4-1 26-5.2 38-.7-.7-1.8-2-2.2.7a67 67 0 0 1-7.4 20.6c-5.2 9.4-7.3 10.6-7.3 10.6l-1.6-3.5c-.7-1.3-1-2-2-.2-.8 1.7-3.7 8.3-10 15.6s-9.8 10.8-9.6 16.2c.2 5.5 3 8.3 6.9 10.7 3.8 2.5 4.5 3.9 3.9 6.8-.6 3-4 4-7 4.1s-6.7-.1-8 .6c-1.3.8-1.4 2.7-2.8 4-1.3 1.4-1.9 2.1-3.1 2.3l-1 .2c-.4-14.4 5.2-20.8 5.2-20.8L291 217.7l-2.4 1.1-.4-.7a12 12 0 0 1-2.8-8.3c.8.1 2.3.7 3.8.4 1.4-.3.3-1.7-.1-3a28 28 0 0 1-.2-10.3s2.3 2.4 3.7 2.4 1.3-1.4 1.5-3a12 12 0 0 1 3.2-6.9s2.5 1.7 5.3 1.7c2.9 0 6.7-.7 9.7-3.6s3-3.6 3-3.6 5.6 2 10 2.2c4.2.2 8.8-.5 11-5s-.6-8.8-1.1-9.5-2-1.3-2 0 .1 4.7-2.5 6.4-4.6 1.6-7.1.8a22 22 0 0 0-14-.3c.2-.2 3.4-3.5 6.6-4.5s5.1.4 6.2 1.6c1 1.3 2 3.4 2.8.4.9-3 .4-6.4-1-8.6a8 8 0 0 0-7.7-3.2q-4.5.6-4.3.8c.2.2-1.6-4.6-5.7-5.4-5-1-10.5.8-14.8 3.2 0 0-3.4.8-6.8-.2a22 22 0 0 1-5.9-2.9l1.2-3.7 2-.7c1-.4.8-.8 1-1.6s-2-2.4-2-2.4-.3-2.6 3.1-4.3l3-1.5s2 .3 2.9-.2q1-1 .8-1c-.2 0 1.5-.5 2-1.4q.9-1.6.3-3.3c-.4-1-1-1.3-.4-1.8a5 5 0 0 0 1.2-2.5v-1s1.2-.5 1.1-2.3-1-2.4-1.6-2.6l-.9-.1s0-1.1-1-2.5l-1.5-2c-.1 0 .7-.5.3-1.7a3 3 0 0 0-2-2.1c-.7-.3-1.6 0-1.6 0l-4-2.3-1.5-.8s0-1.1-.5-1.7-1.5-.9-2-.9l-1.2.3c-.2.1-4.5-1.1-6.4-1.4s-2-.5-2-.5-4-1.9-5.5-2.2l-2-.5s1.6-2 1.7-4.2a6 6 0 0 0-3-5.4l-1.7-.8V99l3 .3.2-4.8-3 .4.5-3h-6.2l.5 2.9-3-.2.3 4.8 3-.4-.2 1.8s-1.1.2-2.1.9a6 6 0 0 0-2.9 5.1 9 9 0 0 0 1.5 4.3l-2 .4c-1.5.3-5.6 2.2-5.6 2.2s0 .2-2 .5l-6.3 1.4s-.6-.3-1.2-.3-1.6.3-2 .9c-.5.6-.5 1.7-.5 1.7l-1.6.8-4 2.3s-.8-.3-1.6 0a3 3 0 0 0-2 2.1c-.3 1.2.3 1.7.3 1.7s-.6.6-1.5 2-1 2.5-1 2.5l-.9.1c-.5.2-1.5.9-1.5 2.6-.1 1.8 1 2.2 1 2.2l.1 1q.2 1.7 1.1 2.6c.6.5 0 .7-.3 1.8a4 4 0 0 0 .2 3.3c.6.9 2 1.4 2 1.4s0 .4.9 1 2.8.2 2.8.2-.4-.3 3 1.4c3.4 1.8 3.1 4.4 3.1 4.4s-2 1.5-2 2.4c.2.8 0 1.2 1 1.6l2 .7 1.2 3.7c-1.3.9-3.5 2.3-5.8 3-3.4 1-6.8.1-6.8.1a23 23 0 0 0-14.8-3.2c-4.1.8-5.8 5.4-5.8 5.4s-1.1-.5-4.3-.8a8 8 0 0 0-7.6 3.2 11 11 0 0 0-1 8.6c.8 3 1.7 1 2.8-.4 1-1.2 3-2.6 6.2-1.6a19 19 0 0 1 6.5 4.5s-.5-.4-4-.9c-4-.5-7.4.4-10 1.2-2.4.8-4.4.9-7-.8-2.7-1.7-2.6-5.1-2.6-6.4s-1.4-.7-1.9 0-3.3 4.9-1.1 9.4 6.8 5.3 11 5c4.4-.2 10-2.2 10-2.2s0 .8 3 3.7 6.8 3.6 9.6 3.6 5.3-1.7 5.3-1.7a12 12 0 0 1 3.3 7c.2 1.5 0 3 1.5 3s3.6-2.5 3.6-2.5l.4 2.4c.2 1.7-.1 6.5-.5 7.8-.4 1.4-1.5 2.8 0 3 1.3.4 2.9-.2 3.7-.3a12 12 0 0 1-2.8 8.3l-.4.7-2.3-1.1-15.7 18.3s5.6 6.4 5.3 20.9v-.1l-1.2-.2c-1.2-.2-1.8-1-3.1-2.3s-1.4-3.2-2.8-4-5-.5-8-.6-6.4-1.1-7-4c-.5-3 .1-4.4 4-6.9 3.8-2.4 6.6-5.2 6.8-10.7s-3.3-9-9.6-16.2c-6.3-7.3-9.2-13.9-10-15.6-1-1.7-1.3-1-2 .2l-1.6 3.5s-2-1.2-7.2-10.6a67 67 0 0 1-7.5-20.7c-.4-2.6-1.4-1.3-2.2-.6-4.2-12-4-26.7-5.1-38 0 0-4.2 4-6.6 12a64 64 0 0 0-1.4 23.4c.6 7.2 2.1 11.5 2.8 13.4 1 2.9-.5 1.1-.5 1.1s-3.6-6.3-6-18.2c-2.6-12-2.3-20.3-2.3-20.3s-1.4 1.2-3.1 4.5a47 47 0 0 0-2.8 22.3c.6 12.2 5.1 25 7.5 29.4s.2 1.8-.7.5c-.8-1.2-5-7.8-7.1-13.6A242 242 0 0 1 128 165c-.3-1.8-1-.6-1.8 1s-2.4 7-2.4 10.8a55 55 0 0 0 3.3 17.3 68 68 0 0 0 9.8 16.5c2.3 3 .5 1.4-.6.6s0 .1-4.8-5a98 98 0 0 1-11.8-19.2c-.8-1.9-1.7.1-1.7 1.2-.1 1-.8 6.9 2.9 16.9a49 49 0 0 0 17.6 21c4.8 3.2 1.3 1.6-1.1.2A96 96 0 0 1 127 219c-3-2.5-8.4-9.2-9.9-10.3s-1.8-1.6-1.7 3.2c0 4.7 4 12.3 9.2 17.4 5 5.2 11.7 7.5 13.7 8.3s.4.4-1.7-.2a43 43 0 0 1-9.6-3.7c-3.9-2.2-9.6-6.7-11.5-8.2s-1.6.6-1 3.2c.5 2.5 2 7.3 9.3 13.3s17.8 9 20.8 9.8.9.9.9.9l-7.3-1.5c-6-1.4-15.3-6.2-17.8-7.8s-2.8-2.1-2.5 1.2 3.9 10.3 9.5 13.6a53 53 0 0 0 18.3 5.1c2.6.2 2 .5.8.6a55 55 0 0 1-20.6-3.5l-.5-2.1c-.2-1.3-.9-1-1.3-.8-.4.3-.6.5-2 1.2s-1.5-.1-1.5-.6l-.4-3.1q0-1.3-1.2-.7l-5 2c-1 .6 0 1.5.6 2.6l1.5 2.8-3.8 1c-1 .2-.7.9-.4 1.5l2 4.9c.4 1 1.2.4 1.2.4l3-1.8 1 4c-.1 0-1.4.3-2.9 1.3s-1 2.4.7 2.9c1.8.5 3.8 1.4 6.1 5.6s2.9 11.6 4.3 23.4 9 17.8 10 18.5c1 .8.4 1.4.4 1.4s-1 1.5-.6 3.7a6 6 0 0 0 3.5 4c1 .4.8 1.5.8 1.5s-.6 2.5 0 7c.5 4.7 4.2 9.9 5.3 10.8 1 .8 1 1.3 1 1.7-.2.3-.9 0-2.1 1q-2.1 1.5-3.6 4c-.9 1.6-.6 2.5-.3 4.7s3.6 4.3 3.6 4.3-.6.1-.8 1.8q0 2.6 2.6 4.6c1.4 1.2 4.2 1.8 4.2 1.8l.4 2.4c.2 1 2 2 3.2 2.6s3.5.3 4.4-.2q1.5-.5 2.2 1c.6 1 .4 4.7.4 6.2s-.9 3-.4 3.8 2 .2 3.4-.6 1.7-.2 3 .6 3.3 1.6 3.8 1.5c.5 0 .3-1.4.3-2.5s.2-3.7.7-4c.2-.2 2.4-.4 4-1q1.5-.4 2-1.5c0-.7-1.1-.7-3.6-2-2.4-1.3-2.8-2-4.4-3-1.5-1-.8-1.4-.8-1.9s.7-1 1-1.5.2-2 .2-2l1.8-1.9 2.2-2.4c.8-.6 2-3.8 2.9-4.9.8-1 2.6-2.1 3.7-3.5s4-3.7 5.8-4.8c1.7-1.2 6.3-3.3 6.3-3.3s-.1 2.7 1 4c1.3 1.4 2.8-1 8-4.7s9.3-5 9.3-5l2.5 3.5c1.4 1.7 2.7-.1 9.1-9 5-7 11.8-13.4 14.4-15.8l1.4.6-.4 1.2c-.6 1.8-1.5 3-2.8 5.6s-3.2 3.1-5.4 6.6a17 17 0 0 0-2.7 9.3c-.2 3.6 1.8 4.3 1.8 4.3s-3.3 3.2-4.2 5.5c-1 2.4-1.5 7.2-1.5 7.2s-.5.2-1.7 2.6c-1.2 2.5-3.3 2.8-6.4 6-3.1 3-6.6 4.4-8.2 5.3-1.6 1-1.2 2-.7 3.2s2.6 2.5 5.2 3.4c2.6 1 3.5.6 5.2.6 1.8-.1.4 1.3-.3 2-.8.8-1.7 3.3-1.6 6.2.2 2.9 2.3 2.2 5 1.8 2.6-.5 5.7-1.8 5.7-1.8l-.3.8c-.3.8-.4 1.4-.4 3.7q0 3.3 1 4c.7.6 2-.7 3-1s2.5-1.2 4.9-1.7c2.3-.6 3.2-1.6 3.2-1.6s-.6.7-.7 2.4a19 19 0 0 0 .3 5.4 10 10 0 0 0 3 4.6c1.6 1.5 2 .8 3.2-1s3.6-4.2 3.6-4.2l1.8 5.8c1.6 5.2 6.9 9.5 6.9 9.5s5.3-4.3 6.9-9.5l1.8-5.9s2.4 2.4 3.6 4.2 1.5 2.5 3.1 1a10 10 0 0 0 3-4.5c.4-1.4.5-3.8.4-5.4-.2-1.7-.8-2.4-.8-2.4s.9 1 3.3 1.6c2.3.5 4 1.4 4.9 1.7s2.3 1.6 3 1q1-.7 1-4a9 9 0 0 0-.5-3.7l-.3-.8s3.1 1.3 5.8 1.8 4.8 1 5-1.8a11 11 0 0 0-1.6-6.2c-.8-.7-2.2-2.1-.4-2 1.8 0 2.7.4 5.2-.6 2.6-1 4.8-2.2 5.3-3.4.4-1.3.9-2.2-.8-3.2-1.6-1-5-2.3-8.1-5.4-3.1-3-5.3-3.4-6.5-5.9-1.1-2.4-1.6-2.6-1.6-2.6s-.6-4.8-1.5-7.2c-1-2.3-4.2-5.5-4.2-5.5s2-.7 1.8-4.3c-.3-3.5-.6-5.9-2.8-9.3s-4.1-4-5.4-6.6-2.2-3.8-2.8-5.6l-.3-1.2 1.9-.8c2.5 2.4 9.3 8.8 14.4 15.9 6.4 8.9 7.6 10.7 9 9 1.5-1.8 2.6-3.5 2.6-3.5s4 1.3 9.2 5 6.8 6 8 4.8q.8-1.4.8-2.8l6.5 2 6 2.4c4.6 2 5.1 3 8.7 5.8 3.7 2.9 8.8 2.6 13.7 1.1s17.8-5.8 23-8c5.3-2.3 9-4.2 9.5-5.3a17 17 0 0 0 1.2-5c0-1-1.2-2.6-1.6-2.9q-.4-.5 0-1.7c0-.7-.3-2.6-1.1-3.5-.8-1-.7-1.2-.6-3.8a16 16 0 0 0-9-14.2s-.2-.7-.6-1l-1.2-.7v-3.8q.1-.8.7-.4c.4.2 1 1 1.9 1.2q1.3.2 1.6-1.4c.1-1 .9-3 1.2-4s0-1.1-.5-1.2c-.4-.2-1.7-.3-2.3-.4q-.8-.1-.5-.6l1.2-2c.8-1.3 0-1.3-.7-1.6l-5.2-1.5c-1-.1-1.2.7-1.2 1v3c.1.6-.5.4-.9.2l-1.8-1.2q-1-.5-1.4.7l-1.3 4.6q-.4 1.5.2 1.8h3c1 0 .5.5.5.5l-1.5 2.5q-.5 1-1.8.8h-2.2s-5.7.2-9.8 3.3a17 17 0 0 0-6 7.1c-.6 1.5-1.3 1.2-2 1.7s-2.4 2.5-2.4 3.6.4 1.8-1.4 3-3.3 6.3-.8 9c2.4 2.6 3.4 5.2 4.1 6.5s0 1.8-.6 1.8a274 274 0 0 1-12.2-9c-2.4-1.7-.7-1.5-.7-1.5s.6 0 2-.5q2.3-1 .3-1.8c-1.4-.5-4.2-2-5-2.8-.6-.7-1-1.5.4-2.3s4.5-2.7 2-3.4l-7.6-1.8c-2.4-.7-2.6-1.4-2.6-1.4l1.5-2.2s1.3-1.8-.2-2-5-.7-8.3-2a20 20 0 0 1-12-13.5v-.1c1.3 2.4 4.1 6.9 8.4 7 5.8.2 6.5-1.6 5.1-3.5-1.3-2-2.8-3.7-3.2-4.2s-.5-1.4 1 0c1.6 1.5 4.5 6.4 13.2 5.8 8.8-.6 8.8-2.3 8.8-2.8 0-1.7-1.8-2-2.9-3-.5-.5-.8-1.3 1-.7 1.7.7 6 1.5 12 .2 2.3-.5 8.5-3.2 9-6.3 0 0-3.8-.2-6.6-1.4s-4.4-2.1-1.5-1.6 8.6 1.8 13.6.1c2.9-1 6.7-3.3 6.7-7.6 0 0-5.4-1.2-7.4-1.9S355 288 355 288s7.8 2.4 14.8-1.1c7-3.6 7.3-8.5 7.3-9.6q-.1-1.6-.2-1.5c-.1.1-6.4 1.6-11.1 1.5-4.8 0-6.3-.4-6.3-.4s13.4-.4 20-4.5c6.8-4.1 7.2-12.2 7.2-12.2s-7.6 2.7-12.4 3.3a55 55 0 0 1-8.9.4c-1.1 0-1.8-.4.8-.6 2.6 0 12.7-1.8 18.4-5a22 22 0 0 0 9.4-13.7c.4-3.3 0-2.7-2.5-1.2a77 77 0 0 1-25 9.3s-2.4-.1.6-1zm-240.1 15.4-2.7 1.5-1.4-2.8q-.3-1 .3-1l2.3-.4h.4zm81.9 48a22 22 0 0 1-9.4 7.6c-3.2 1.4-6.8 1.8-8.2 2-1.5.3-.3 2-.3 2l1.6 2.3s-.2.6-2.6 1.3l-7.7 1.9c-2.4.6.7 2.6 2 3.4 1.5.7 1.1 1.5.4 2.3a18 18 0 0 1-4.9 2.7q-2 .8.2 1.8c1.4.6 5.3 1.3 5.3 1.3l-2.5 2c-2.3 1.7-6.5 3-9.2 3q-4.1.4-12.6.1l-6-.3-.6-4.6a23 23 0 0 0-3.3-8.3l-4-5.3.3-1.6c.2-1 0-1.9-.5-3.5-.7-1.7-3.9-4.1-3.9-4.1l-.1-3.5c0-1.7-1.2-8.2-2.2-11.3-1-3-6-11.1-8.3-15a42 42 0 0 1-4.6-21l.5-1.3a14 14 0 0 0 3.7 3.3c6.7 4 20 4.5 20 4.5s-1.4.4-6.1.4c-4.8 0-11.2-1.5-11.2-1.5s-.2.3-.2 1.5.3 6 7.3 9.6 14.8 1 14.8 1-.7.6-2.6 1.3l-7.4 1.9c0 4.3 3.7 6.6 6.6 7.6 5 1.7 10.7.5 13.6 0s1.3.3-1.5 1.5-6.7 1.4-6.7 1.4c.6 3.1 6.8 5.8 9.2 6.3 5.9 1.3 10.2.5 12-.2s1.4.2.9.7c-1 1-2.9 1.3-2.9 3 0 .5 0 2.2 8.8 2.8s11.7-4.3 13.2-5.7 1.4-.7 1-.1-1.9 2.3-3.2 4.2-.7 3.7 5.2 3.5c4.3-.1 7-4.7 8.3-7l.3.4-2.5 5.6zM280 125l-1.2-2.2s3.3 1.5 5.3 3.8 1.9 3.4 2.2 4.5c.3 1 0 3-.3 5q-.5 2.7 0 3.7l.8 1s-1.5.3-2.9.9c-1.3.5-3.1 1-4.1.2q-1.6-1.2-.7-2c.6-.5 3-1.2 3.3-5.2s-1.6-8.2-2.4-9.7m-18 11c.7-2 1-3.8.4-7.7-.4-3.3-1-6.1-1.2-9.7 0 0 2.4.6 6 3.8 3.4 3.2 4.2 6.5 4.2 8 0 1.7-.8 3.7-1 5.2s.5 3 .5 3-1.3.5-2.5 1.3-2 1.3-3.7 1.2c-1.8 0-2.8-.9-3.9-1.4q-1.6-.8-1.7-.7c-.1.1 2-1.1 2.8-3zm-17.2-13.6a15 15 0 0 1 6-3.8c-.2 3.6-.8 6.4-1.3 9.7-.6 4-.3 5.8.5 7.7.7 1.9 2.8 3 2.8 3l-1.7.7c-1 .5-2 1.3-3.9 1.4-1.7.1-2.5-.4-3.7-1.2s-2.5-1.3-2.5-1.3.6-1.4.5-3c-.1-1.5-1-3.5-1-5.1s.8-5 4.3-8.1M232.2 142c-1 .8-2.8.3-4.2-.2l-2.9-1 .8-1q.5-.9 0-3.6c-.3-2-.5-4-.3-5 .3-1.1.3-2.3 2.3-4.5s5.2-3.8 5.2-3.8L232 125c-.8 1.5-2.7 5.6-2.4 9.7s2.7 4.7 3.3 5.2q.9.8-.6 2zm46.8 33.7c-3.5 2-5.5 1.5-5.3 3 .1 1.3 3.2 2.4 3.2 2.4s-3.2 3.4-5.6 5c-2.5 1.5-5.4 2.5-5.4 2.5s-1 .1-.4 1.7a6 6 0 0 0 2.3 3l1.2.6s-4.3 4.6-6.2 6.1a16 16 0 0 1-4.5 2.6c-1.6.7-.8 3.2-.4 4.3a6 6 0 0 0 2.4 3c.8.2 1 .7.1 2.3l-4.4 6-4.4-6c-1-1.6-.7-2.1 0-2.4.8-.2 2.1-1.7 2.5-2.9.3-1 1.1-3.6-.4-4.3a16 16 0 0 1-4.5-2.6c-2-1.5-6.3-6-6.3-6l1.2-.7a6 6 0 0 0 2.4-3c.5-1.6-.5-1.7-.5-1.7s-2.8-1-5.3-2.5c-2.5-1.6-5.7-5-5.7-5s3.1-1 3.3-2.5c.1-1.4-1.8-1-5.3-2.9s-4.6-4.3-4.6-4.3 4-1.3 6-5.4a7 7 0 0 0 .8-3.8h.2c6.4 2.2 13.9 3 20.6 3s14.2-.8 20.6-3h.2q-.3 1.7.8 3.8c2 4 6 5.4 6 5.4s-1.2 2.4-4.6 4.3"/>
  <path fill="#d4af3a" d="M300 253.6c0-10.9 5-17.7 5-17.7l-13.7-15.6c-12.9 5-24.8 5.3-35.3 0-10.6 5.3-22.4 5-35.4 0L207 236s5 6.8 5 17.7-2 19-3.3 24.2-2.2 15 .6 22c2.7 7 5.7 13.2 17.8 18.2 12 5.1 18.4 7.7 22.6 11.2 4.2 3.6 6.3 6.4 6.3 6.4s2.1-2.9 6.3-6.4c4.2-3.4 10.5-6 22.6-11.2 12-5 15-11.2 17.9-18.2s1.7-16.8.5-22-3.3-13.3-3.3-24.2z"/>
  <path fill="#b96b29" d="M295.7 258a30 30 0 0 1 4.3-19.4L288.3 225c-9 5-21.4 4.3-32.3-.7-10.8 5-23.3 5.7-32.2.7L212 238.6s6 9.1 4.3 19.5-5.4 26.8-4.5 33.4c1 6.7 5.7 14.5 10.5 18.5a61 61 0 0 0 17.2 9.4 49 49 0 0 1 12.5 7.2c2.4 1.8 4 3.4 4 3.4s1.5-1.6 3.9-3.4c2.3-1.8 7.3-5.4 12.4-7.2a62 62 0 0 0 17.3-9.3 33 33 0 0 0 10.4-18.6c1-6.7-2.7-23-4.4-33.4z"/>
  <path fill="#1d5e91" d="M294.6 259.3a35 35 0 0 1 3.3-20.2l-10.5-11.7c-8.8 4.6-19.6 3.4-31.4-.7-11.7 4-22.5 5.3-31.4.7l-10.5 11.7s5 9 3.4 20.2-4.3 23.9-3.8 31.3l.2 1.6h9.5s.6-.7 1.6-1.1l1.4-.8c-.1 0 .2-2 1.4-2.3q1.5-.5 2.1-.4c.6.1.8-.1 1.4-.7s2-2 2.7-3.9 1-2.7 1-4 .5-3.2.5-3.2-.2-.6-1.2-.3c-1 .4-1.1-.6-1.2-1.6s0-2.9.5-3.8l.8-1.2-.4-1.6s-6.1 1.3-7.2-3.5l-1.4-7.5q0-.7-1.1-.7c-1.1 0-2.5-.5-3.8-3-1.2-2.4-1.3-3.4-1-4.4s1-.6 1.3-.3c.2.3 1.8 2.7 2.5 2 .6-.6.3-.6-.6-2.5-1-1.8-.6-2.4-.5-3.3 0-1-.3-2.2-.3-2.7s.5-.9 1-.6l1.4 1c.2.2.3.7.9.4.5-.3.2-2 .2-2.5q.1-1 1.4-.6a2 2 0 0 1 1.2 2q-.1 1 .4 1.1c.3 0 .7-.9.7-1.5s.4-1.5 1-.7.7 1.8.5 3 .2.6-.2 2.6-.6 3-.5 4.5 0 2.4.8 4.2c.8 2 1.4 4.1 2.8 4.2h1.8s1.6-3 2.8-3.8 3-.8 4.2-1q1.7-.1 1.7-.7.2-.4-1.9-.6c-1.4-.2-2.7-.6-2.7-1.7s.2-2.1-.7-2.2c-1 0-3.4-.8-4.2-2.4s-.7-1.9-.6-2.7 1.2-2.6 2-1 1.1 1.8 1.7 2.2c.6.3 1.4.4 1-.7a5 5 0 0 1-.5-2.6q.1-1.2 1.3-1.3l3.6-1 1.1-.3s.1-.7 1.4-1.1a10 10 0 0 1 3.2-.5c1 0 1.6.2 2.9-.4a6 6 0 0 1 3-.7 4 4 0 0 1 2.1.8c.6.4.4 1 .4 1.5s.1.8 1 .8q1.2-.1 2.4.4c1.2.5 2 .7 1.2 1.6-.7.8-.7 1.8-1.2 1.8q-.4.1-.6.7-.4.5.2.9c.5.3.5.6 1.2 1.3s1.8 1.3.7 2.4c-1 1-3 2-3 2s-1 .4.2 1.2c1.3.6 1.8 2.1 2.3 2.4l1.2.8c.3.1.2 1.2.2 1.2l-1.5.8q-1.5.6-2.8.7-1.3-.2-1 .8l1.2 2.2.4 1.3s1.4.3 2.6.3 1.9 0 4.6-.3 3.6-.4 6.3 0c2.7.2 3.1.1 3.8.4l1.4.6s3.8 0 6-.5c2-.5 2.5-1.8 2.2-2.5s-.3-1.8-3.9-2.3-5.1-.3-8-.9c-2.9-.5-7.4-2-8.2-5.6s2.1-5.2 3.6-5.9 4.6-1.8 6.1-2.4a14 14 0 0 1 7-.8c2.8.4 4.5 1.2 5.6.5s2-.2 1.8.9c-.2 1-1.3 3-4.5 4s-7 1.1-9.1.5c-2.1-.5-3.7-1.3-5-.9s-2.6 2-1.3 4c1.4 1.8 8.4 2.4 10.3 2.6s8.8-.3 10.8 3.1c2 3.5.4 7.3-2 8.2a30 30 0 0 1-6 1.7l-1.8.2s.8 1.9.8 2.6-.1 2.2.8 2.8 2 1 3.5.8 3.3.8 3.4 2.2c0 1.3.5 3.1.6 5.8.2 2.6 0 4.8 0 4.8s0 1-.4 2l-2.2 4.7h10.2l.1-1.6c.5-7.5-2.1-20.2-3.8-31.4z"/>
  <path fill="#6d8c3e" d="M215 297.1c2 5.8 6.2 11.5 12.5 15.3 8.7 5.3 12.4 4.6 20.7 10 8.2 5.3 7.7 6.2 7.8 6.2s-.4-1 7.8-6.3c8.3-5.3 12-4.6 20.7-9.9a29 29 0 0 0 12.4-15.3z"/>
  <path fill="#d4af3a" d="M222.2 253c1 1 1.6 1.3 3 1.1 1.5-.1 1.8 1 2 2 .3 1.2.3 3.9 1.4 6.3 1 2.5 4.4 2.6 4.4 2.6q.3-2 1-4c.2-.3.6-1.4-.6-1.4s-1.2-.5-2-1.7a23 23 0 0 1-2.4-6.3c-.4-2 .3-5 .6-6.1q.5-1.8 0-2c-.4-.3-1.2 0-1.2 0s.3.9 0 1c-.4.2-.7-.5-1-1.2-.2-.7-.5-.6-1-.5q-.7.1-.1 1c.3.5.1 1.4.1 1.4l-1.5-1c-.4-.2-1.5.2-1.6.8 0 .6.4 2 1.4 2.9s1 2.4.6 3.1c-.3.8-1.7.7-2 .3a1 1 0 0 0-1.2 0c-.4.5-.8.7.1 1.7m-.5-2.6-.8-.7-.6-.8v.9c0 .6.6 1.2.6 1.2zm2-6.8q.8-.2.5-.8l-1-1.2h-.6l.4 1.4q.1.9.7.6m2.6-2.1q-.1.7.4.4.7-.5.4-1.1c-.2-.4-.7-.7-.7-.7l-.3-.2zm3.7.6-.2-1s0 .5-.2.9q-.4.3 0 .5.3.3.4-.4m5.8 25c.7 1.7 2.5-1 4.2-3 1.7-2.2 1.6-.6 1.4 1.2a8 8 0 0 0 1.1 4.7c.7 1.2 1.3.5 1.5-.3.3-.8.5-2.6 1-3.4.7-.9 1.2-.1 1.3.6a8 8 0 0 0 1.7 3.3c.9 1 1.3-.3 1.5-1.5l.9-3.7c.2-.7 1-.1 1-.1l1.7 1.6c1 1 1.2-.6 1.3-1.4.1-.9-.2-2.7.2-3 .3-.3 1.2.4 2.7 1.1s1.4-.7 1.2-1.4a8 8 0 0 0-2.1-3.6c-1.2-1-1.4-2.2-1-2.7s1.8 0 2.7-.2q1.1 0 2-.3c.7-.1.7-.8.7-.8s-.5-.8-1.5-1.7-1.5-1.5-2.7-1.8c-1.1-.2-2.7 0-2.7 0l-.2-.3q-.4-.4-.7 0l-1.3 1.2q-.6.6-1 .4c-.3-.1.3-.5.3-.5s.6-.5 1.1-1.6q.9-1.8.3-2.7c-.4-.5-1.7 0-2.3 0q-1 .1-1.2-.2c0-.4.7-.2 1.5-.3s1.4-1.1 1.7-2q.3-1 1-.2c.7.8 1 .4 1 0l1.1-2c.6-.8 1-2 .3-2.7s-2.1-.7-2.7-.2q-.9.6-1.2 2.2c-.1 1.3-.5.6-.5.2s-.5-1-.3-1.5 0-1 0-1 0-1.1-1.2-1.4a9 9 0 0 0-3.7.4c-1.2.3-1 1.3-1 1.3l-1.8.1-3 .8q-1.3.2-1.2.7l.2 1.2s.7 0 1 .2q.6.5-.2.8-.6.1-.6.8 0 .9.7.7.7-.1 2.5.5c1 .5 1.4 1.5 1.3 2-.2.6-1.7 1.3-2.5 1.3s-1 .2-1 .7 1 .5 1 .5l2.7.2c1.9.3 2.2.6 3 1.4s.2.9-.2 1q-.7.6-1.6 1-.8.6-1.6.8c-.5.1-2 0-4.5 1s-3.4 4.5-3.4 4.5l1.5-.8 4-2.1c1.3-.8 1.3.4.6 1.6s.6 1 1 .6.9-.7 2.2-1.4.8.4.8.4-.4.8-.5 2.7c-.1 1.8 1.9 0 2.7-1.1 1-1.2 1.3 0 .7 1.3s-2 2.4-2.7 2.4-1.3-.7-1.4-1.2.3-1.8-.2-2.1-1.7 0-2.7.6-1.1.1-1.4-.4.4-.7.2-1q-.5-.3-1.2.2l-3 1.5c-1.7 1-1.6 1.4-1.6 2.7s.3 1.6 1 3.3z"/>
  <path fill="#d4af3a" d="m252.5 239.1 1-.5 1.6-.3c.8 0 .6-.5.5-.9q-.2-.5-1.5-.5c-1.3 0-1.6.5-2.1.7-.6.3-1.3.4-1.3.4l.5.7q.7.9 1.3.4m4 4 .9-.2 1.3-.6c.7-.3 1-.4 1.4-1.1s-.5-.8-1.6-1.1q-1.7-.4-1.9.5.1.6-.5 1.8c-.6 1.2 0 .7.4.7m-.3 1c-1.1 0-2.4 1.7-2.9 2s-.2.6-.2.6a7 7 0 0 0 .7 3.1h.8q.8 0 1.7-.7a4 4 0 0 1 2-.8 6 6 0 0 0 2.3-.9c1-.5-.5-1.4-1.6-2.3a4 4 0 0 0-2.8-1m-15 3.9q1.5-.3 1.4-1 0-1-1.6-1c-2.8.3-5.5-.7-6-3.5 0 0-1 1.7.8 3.7 1.7 1.9 4.6 1.9 5.5 1.8zm-9.4 43.7.5.5h4.3q.9-.5.7-1.3l1-5c.7-2.8 1.7-4.8 2.1-6 .4-1.1-.4-1.5-.7-2.2s-.8-2-.9-2.6-1.1-.6-1.7-.5-.6 1-.7 1.7c0 .9-.5 3.4-.9 5.5-.4 2.2-2.8 5-3.5 5.7q-1 .9-1.7.9-1.1 0-2 .3-1.2.5-1 1.7c0 .6 1 1 1 1l1-.9q.6-.4 1.7-.6 1 0 .5.5c-.3.3-.2.4.3 1.3m-6.5-.2q-.5.1-.7.7h2.8l-.3-.7c-.3-.4-1.2-.2-1.8 0"/>
  <path fill="#d4af3a" d="m229 291.4-.9.8h3q.3-.5-.2-1c-.7-.5-1.4 0-1.8.2zm26-1.2q-.4 0-1 .6t-.7 1.2v.2h1.3v-.2q0-.5.7-1.2c.6-.4 0-.6-.2-.6zm2.5 1.3q0-.6-.4-.7c-.3 0-.8.6-1.2.8l-.5.6h2z"/>
  <path fill="#d4af3a" d="M269 277.7c1-.6.8-.8.9-1.5q0-1-.3-1.1c-.4-.3-1.8-.9-3-.9s-3.6.3-4.6 1c-.9.5-1.3 2.8-1.3 4q0 1.3.5 1.2c.5-.1.9-.8.9-.8l1.9 2.7c.7 1 .4 1.5 0 2.3-.3.8-1.4 3-2.4 3.5s-1.6 0-2.8-.1q-1.4-.3-2.3.8c-.7.6 0 1.1.3 1.1q.7-.1 1.4.5c.3.4 0 1.3 0 1.8h5.5c.9-.4 1.6-1.7 1.8-2.4.3-.8 1.5-1.9 2-2.4.7-.6.7-1 .7-2.1a5 5 0 0 0-.7-2.7 5 5 0 0 1-.7-2.8c.1-.7 1.3-1.5 2.2-2.1"/>
  <path fill="#d4af3a" d="M260 264q.7 1-.5 1.2-1.1.3-3 .2c-1.9-.1-1.1 0-1.2.7a5 5 0 0 1-.8 2.9c-.8 1-1.7.5-2.2.2q-.9-.6-1 .4l-1.2 2.2c-.6 1-1 1-1.4 1-.4-.2-.8-.8-1.2-.8q-.7-.2-1.7-1.9c-.6-1-1 .1-1.4 1q-.5 1.4-1.6 1.4c-.8-.1-1.7-1.6-2.1-2.5q-.6-1.7-1.4-1.7c-.7 0-1.9 1.4-2.6 1.8q-1 .6-1.3-.2-.6-.6-1.3 1.3-.5 1.8.7 2.4c.6.3 1.8-.6 2.7-1.1.8-.6 1.2-.4 2-.4s.8 1.4 1.2 3.4c.4 2.1 1.6 2.4 1.6 2.4s.4.3 1.3-1.2c1-1.6 1-3.2 2-3.2s1 .2 1.8 1.5c1 1.2 1.7 2.1 2.2 1.2s1-2.3 1.6-2.8c.5-.5 1-.6.5.3s-1 1.8.4 1.5c1.2-.4 6-2.4 8-2.8l5-.5 4.4-.3c1 0 1 0 1.1-.8 0-.7-.5-.5-2.4-.5q-2.8 0-4.6.4-2.1.3-1.8-.2c.3-.3.7-.6 2.2-.8l6.4-.4c1.7 0 1.1.4 1 1.6-.1 1 .1 2.7.2 3.7s.2 1.4 1 2.8c1 1.5 4 2.4 5 2.8.9.5.7 0 .7-.8q.1-1.2 1.5-.4 1.4.6 3 1c1 .3 1 .5 1 1l.3 2.5c.1 1 0 1.3-.4 2l-2.1 2.4s-.8 0-2.5.4-2.2 1.2-2.4 1.9.3.9.4 1.1v.9h.4l.6-1c.6-.7 2-.9 3-.4q.9.6.6 1.4h3.9l2-4.2c.5-.9.7-1.5.7-2.8s.2-6.2 0-6.4 0-1.1 0-2.5c-.1-1.4 0-2.4-2.6-2.7-2.5-.2-3.3-1.3-4.2-2.2-.9-.8-.6-2.8-1.3-5.2s-2.4-2.8-5.4-3.4a25 25 0 0 0-7.5-.5c-2.2.2-5 .6-6.6.4s-1.2.3-.7 1.2z"/>
  <path fill="#d4af3a" d="m274.5 291.6-.6.6h2.6l-.2-.8q-.7-.6-1.8.2m4.7-.1-1 .7h2.7v-.3c0-.4-.9-.9-1.7-.4M214 293l.6 2.5h82.8l.6-2.5zm55.8-39.6c2.7 1.8 11 1.9 14.9 2.6s3.6 3.8 2.4 5.4c-1.2 1.5-6.7 1.7-7.7 1.8.6.4 1.4 1.6 1.4 1.6l2.2-.2a12 12 0 0 0 6.5-2.2c2-1.7 1.9-4.3.1-6.1s-4.6-2-7.6-2.3l-8.5-1.1q-5-1-4.9-3.8c0-2 1.8-3 3-3.3 1.4-.4 3.4-1 5.3-.3s4 .8 7.6.3 4.4-3 4.4-3-.4.3-2.3.3-3.1-.7-6.5-.8c-3.3 0-4.5 1.2-6 1.7-1.6.6-5.8 1-7 3.7s.1 4 2.8 5.7z"/>
  <ellipse cx="248.1" cy="241" fill="#b96b29" rx="1.6" ry="1.5"/>
  <path fill="#b96b29" d="M281.6 243.7c-2-.2-4.8.3-4.8.3s.6.4 1.3.4q.9-.1 3.9.3c2 .3 3.5-.6 3.5-.6z"/>
  <path fill="#1d5e91" d="M262 282.2q-.6-1-1.2-.2c-.6.5-1.2-1.2-1.3-2.3l.4-4.4s-2.8.5-4.3 1-3 .7-4.2 1q-1.7.6-2.5.4l-3.1-.2c-1.1 0-1 .2-2.1 1.3-1.1 1-1.4 1.7-2.3 3.7q-1 2.8-1.4 6.4-.3 2.4-.7 3.3h13l.5-1.4a3 3 0 0 1 1.5-1.4q.9-.2 1.2-.8.6-.9 1.6-1.4 1.2-.4 3 .2c1 .3 1.4-.5 1.7-.9l1-1.7c.6-.8.2-1.4.2-1.4s-.5-.4-1-1.2m20.8.4q-.1-1-.5-1-.8 0-1.9-.5c-.6-.3-.6 1.5-.6 1.5s-1.5.1-3.2 0c-1.7-.3-3.8-1.8-4.5-2.3-.7-.6-1.5-1.7-1.5-1.7l-1 .8q-1 .6-1 2.5c-.1 1 1.2 2.4 1.3 3.5.1 1-1.2 3.3-1.8 4.1-.4.6-1 2-1.3 2.7h6.2l.7-1c.6-.7 1.7-.9 1.7-.9l.3-.8q.2-1 2.4-1.9c1.6-.6 3.4-.7 3.4-.7s.8-.6 1.3-1.5.2-2 0-2.8"/>
  <path fill="#d4af3a" d="M230.6 351.6c1.2.4 3.4-.4 4.5-1.8 1-1.3 1.4-3.3 2.2-4.5l1.4-2s-.2 2-1.2 4.5a17 17 0 0 0-1 7.3c.5 2.8 2.4 3.3 3.5 3q1.3-.7 3.2-3.6l1-2c.7-1.5 1.4-3.8 1.7-3.7.7.1.3 1.7 0 2.8-.6 2.2-1.6 5.4-1.7 7.3-.1 2 .1 5.5 2 5.7 2 .1 3-1.6 4.1-5.6s1.3-5.2 1.8-5.2.5 2.7.5 3.9a20 20 0 0 0 1.7 7.9c1 .8 1.7.7 1.7.7s.8.1 1.7-.7c1-.9 1.7-6.7 1.7-7.9s0-3.9.5-3.9.7 1.3 1.8 5.2c1 4 2 5.7 4 5.6s2.2-3.7 2.1-5.6c0-2-1.1-5.2-1.7-7.4q-.6-3.3 1.7.8l1.4 2.7q1.5 2.4 2.8 3c1.1.3 3-.2 3.5-3 .4-3-1.7-11.2-1.7-11.2l.9 1.4c.8 1.2 1.2 3.2 2.2 4.5 1.1 1.4 3.3 2.2 4.5 1.8s1.3-2.5.4-6.4-4.3-6.1-6.8-9.2c-2.3-2.9-4-8-4.3-8.7a29 29 0 0 0-8.4 6l-6.3 6.6s-1-1.3-6.2-6.7a29 29 0 0 0-8.5-6c-.2.7-2.4 5.6-4.7 8.4-1.1 1.5-2.7 2.6-3.9 4a13 13 0 0 0-2.5 5.6q-1.3 5.8.5 6.4z"/>
  <path fill="#d4af3a" d="m230.5 364.8 2.3-2s1-1 .8.8c-.3 1.7-.9 5.3-.5 6.8.4 1.6.6 3 2.5 1.8s2.3-1.9 3.2-2.8c1-1 2-1.4 1.7.1-.2 1.5-1 3.8-.6 6.9q.6 4.6 3.8.9a34 34 0 0 0 3.7-6.3c.6-1.3 1.8-2.4 1.8 0 0 5.1 1.2 12.6 6.8 14.5 5.7-2 6.8-9.4 6.8-14.5 0-2.4 1.2-1.3 1.8 0a35 35 0 0 0 3.7 6.3q3.2 3.8 3.8-1c.4-3-.3-5.3-.6-6.8s.8-1 1.7-.1 1.4 1.6 3.3 2.8 2-.2 2.4-1.8c.4-1.5-.2-5-.5-6.8s.9-.8.9-.8l2.2 2c1.5 1.3 3.6 1.4 3.6 1.4s1-5.3-1.3-8.5l-3-4.3s-1.3 0-2.2-.4l-2-1.1v3l3.4 3.3c.7.8 2 2.1 0 .9l-3.3-2.6s-.4 2.7-1.2 3.4-1.9.8-2.3.6l-.5-.2-.1 1s1.7 3.2 2 4.5q.2 1.8-1-.5c-.8-1.7-2.3-3.8-3-5-.7-1-1.7-1.8-1.6-.4.1 1.5-.5 4.1-1 5l-.8 1.4 1.2 4.4c.1.6 0 1.4-.6.5s-2.2-4.5-2.2-4.5-2.3 0-3-.7c-.6-.6-1.6-3.1-1.6-3.1s-.9 3.1-1.6 4.1-2.6 2-2.6 2l-.2 6.5q0 1.4-.6 1.4t-.6-1.4l-.2-6.4s-1.8-1-2.5-2c-.8-1-1.7-4.2-1.7-4.2s-1 2.5-1.6 3.1-3 .7-3 .7-1.6 3.7-2.2 4.5c-.6 1-.7.1-.5-.6 0-.6 1.1-4.3 1.1-4.3l-.8-1.3a13 13 0 0 1-1-5c.1-1.5-1-.8-1.6.4-.7 1.1-2.2 3.2-3 4.9q-1.1 2.4-.9.5c.3-1.3 2-4.5 2-4.5l-.2-1-.4.2c-.5.2-1.6 0-2.4-.6s-1.1-3.4-1.1-3.4l-3.4 2.6c-2 1.2-.6 0 0-.9l3.4-3.3v-3s-1 .7-2 1l-2.2.5-3 4.3c-2.2 3.2-1.3 8.5-1.3 8.5s2.1 0 3.6-1.4m27.5 35.7-2-2.5q.3 0-1.9 2.5c-1.4 1.7-4.8 4.3-4.8 4.3A17 17 0 0 0 256 417c2.2-1.4 3.5-3.3 4.9-5.3 1.6-2.4 1.9-6.9 1.9-6.9s-3.4-2.6-4.8-4.3"/>
  <path fill="#b96b29" d="M255.3 406c.1 1 0 3.6.7 3.6s.5-2.6.7-3.6l.1-3.5h-1.7s0 2.4.2 3.5"/>
  <path fill="#d4af3a" d="M256 161.4a54 54 0 0 1-17-2.2l-4.2 1a55 55 0 0 0 21.2 3.4c9.3-.1 14.7-1 21.1-3.5l-4.2-.9a54 54 0 0 1-17 2.2zm21.9-5-4-2.7c-.7-.4-.1-1.4 0-1.8a18 18 0 0 1 5-1.7c1.6-.4 1.4-.8 1.4-.8s-1-1.1-7.2-1.8-17.1-.5-17.1-.5-11-.2-17.1.5-7.2 1.8-7.2 1.8-.3.4 1.4.8 4.8 1.3 5 1.7c0 .4.6 1.4 0 1.8l-4 2.7c-.5.4-.5 1 .2 1 .8 0 .8 0 3-.4a101 101 0 0 1 37.5 0c2 .5 2.1.5 2.9.4s.7-.6.2-1"/>
  <path fill="#d4af3a" d="M270.8 159c-4.2-.5-7-1-14.8-1s-10.6.5-14.8 1c2.6 1 7 1.6 14.8 1.6s12.2-.5 14.8-1.6m-19.4-61 3.5-.4-.2 3 3.2-.2-.3-2.9 3.5.5.2-2.8-3.7.3.6-3h-4l.7 3-3.5-.3zm10.4 7.2h-4.4v-3.7l-1.3-.1H255v3.8h-4.5a5 5 0 0 0-.2 2.1H262v-.6l-.3-1.5z"/>
  <path fill="#1d5e91" d="M256.1 112c2.6 0 4.8-1.5 5.6-3.6h-11.2c.8 2.1 3 3.6 5.6 3.6m2.4-10.2v2.6h3a6 6 0 0 0-3-2.6m-4.8 0a6 6 0 0 0-2.9 2.6h3z"/>
  <path fill="#b96b29" d="m259.5 149.3-3.5-1.6-3.5 1.8c-1.3.6-1.1.4-1.5 1.4q-.5 1.1.6 1.4l4.4 2.3 4.9-2.3c.9-.4.7-.9.5-1.6q-.3-.8-2-1.4z"/>
  <path fill="#d4af3a" d="m259.9 150.4-4-1.8-3.7 1.8 3.9 2zm-4-15s-.3 1.4-.7 2q-.7.7-.6 1.8c.1.7.9 1.1 1.4 1.1s1.2-.4 1.4-1.1q0-1-.7-1.8c-.4-.6-.7-2-.7-2z"/>
  <circle cx="256" cy="141.7" r=".7" fill="#d4af3a"/>
  <path fill="#d4af3a" d="M253.4 138s1.3-1.4 1.7-2.3l.9-1.6.8 1.6c.5.9 1.7 2.3 1.7 2.3s1.8-1 2.8-4.3c1-3.4-.3-7-.7-10.8l-.8-10.4a8 8 0 0 1-3.8 1.1 8 8 0 0 1-3.8-1.1s-.4 6.6-.9 10.4-1.7 7.4-.7 10.8 2.8 4.3 2.8 4.3"/>
  <ellipse cx="256" cy="130.4" fill="#b96b29" rx="3" ry="2.9"/>
  <ellipse cx="256" cy="123.5" fill="#b96b29" rx="2.9" ry="2.8"/>
  <ellipse cx="256" cy="117" fill="#b96b29" rx="2.8" ry="2.7"/>
  <circle cx="256" cy="129.9" r="1.6" fill="#d4af3a"/>
  <ellipse cx="256" cy="123" fill="#d4af3a" rx="1.6" ry="1.5"/>
  <ellipse cx="256" cy="116.5" fill="#d4af3a" rx="1.4" ry="1.3"/>
  <path fill="#b96b29" d="M255.9 358.5q.3 0 .2-1.4l.4-4.3c.2-1.2-.3-1.2-.7-1-.3 0-.5 1-.5 1.5l.2 4.4q0 .8.4.8"/>
  <path fill="#d4af3a" d="M224.4 383c1.4-.8 2.6-1.7 5.6-3.8a13 13 0 0 0 4.2-4.2h-1q-1.1-.2-1.2-1.7l.2-4.4c.2-2-.3-3.5-.3-3.5s-1.3 1.2-3.3 2.3-2.8.5-2.8.5l-.5-2-2 4c-1.2 2-4.5 4.4-6.8 6.2a31 31 0 0 1-6.9 4.2c-1.9.7-.8 1.6-.8 1.6s2 2 7 2.8c5 1 7.3-1 8.6-2"/>
  <path fill="#d4af3a" d="M241.9 381.1c-1.8-.2-2.9-.8-3.2-2.8-.2-1.2 0-6 0-6l-1.2 1.2c-.7.9-2.2 1-2.2 1s-.2.7-.9 1.8a10 10 0 0 1-3.2 3.5l-5 3.4a30 30 0 0 1-4.5 3.3 8 8 0 0 0-3.8 5q-1 3.6 1.8 3.2c2-.2 2.2 0 5.4-.8s7.7-4.4 11-6.5c3.4-2 5.8-6.3 5.8-6.3"/>
  <path fill="#d4af3a" d="M250.7 384s-1.3-1.7-1.8-3.6l-1.5-5.8-1.5 3.5c-1 2.3-3 2.9-3 2.9s0 1-1.5 2.9a23 23 0 0 1-6 5 23 23 0 0 0-7 5.6c-1.6 2.3-1.7 4.7-1 5.7.8 1 1.9-.2 3.4-1 1.5-.7 5.9-1.4 12-4.6s7.9-10.6 7.9-10.6"/>
  <path fill="#d4af3a" d="M253.3 397.5c1.7-2.5 2-8.5 2-8.5l-1.5-1-2.3-3.1-2 4a16 16 0 0 1-4 4.6c-2.2 2.1-5.2 4.1-6.5 6.3s-.6 6.7.2 8.1c.9 1.5 2 1 3.3-.2l3.9-3.4c2.2-1.9 5.3-4.3 7-6.8z"/>
  <path fill="#b96b29" d="M233.6 347a23 23 0 0 1 2.7-5l1.3-2.5s-2.1 2-3 3.4a15 15 0 0 0-1.7 4.2q-.6 2.4.7 0zm8.5 1.6.5-2s.4-1.2.2-1.3q-.5 0-1.7 2.7c-.6 2-1.5 4.8-1.3 5 .1 0 2-3.2 2.3-4.4m6.7 5.4.4-1s.7-2.1.7-2.6-.2-1-.8.2q-.7 1.8-.7 2.7c-.2.5-.8 2.2-.6 2.4s.6-.9 1-1.7M228 374.4l-.9-.5-1.3 1.5-2.2 2a9 9 0 0 1-2.8 2.4q-2.1 1-1.7 1.1c.3.3 1.2-.3 1.2-.3s.4 0 2.1-1 2-1.6 3.1-2.5c1.1-1 2.5-2.7 2.5-2.7m7.3 8.7c.7-.7 1.3-1.2 1-1.5q-.6-.6-1.4.1l-3 2.8-2.2 1.7c-.7.6-2.4 1.5-3.2 1.9-.8.5 0 .5 0 .5l1.3-.5 2.6-1.1 1.8-1.1zm8.4 5.8c.6-1.1 0-.8-1-.4-.8.3-2.8 2.5-4 3.3l-3.1 1.7c-1 .5-1 .7-1 1q.2.3.9 0l1.8-1 1-.2q.8-.1 2.6-1.7 2-1.3 2.8-2.7m4 7.7c-1.6.9-4.1 2.9-4.8 4.2q-1.1 2.1-.9 2.6c.2.2 1-.3 1.3-.8l1-1.4s2.5-2.5 3.4-3a9 9 0 0 0 2.9-3.3c.3-1 0-1.5 0-1.5s-1.5 2.3-3 3.2z"/>
  <path fill="#c52126" d="M208 181.3a24 24 0 0 0-19-1.6q-3.4 1-6 .2c-2.8-.7-5-3.2-5.7-6.3 0 0-2.6 3.3 0 6.8a8 8 0 0 0 4.6 3.2c5.5 1 10.8-2.3 15.3-2.6 4.4-.2 7.8 2.5 7.8 2.5s1 .9 2.5 0q2.3-1.2.5-2.3z"/>
  <path fill="#d4af3a" d="m192.3 338.7-1.3-.2-2.8-.9q-.9-.4-1.7.3c-.8.7-4.4 2.9-4.4 2.9h6.5c2.2 0 3.7-2.2 3.7-2.2z"/>
  <path fill="#d4af3a" d="M210.5 337.6v-.7l-.8-1.8s-1 .6-2 1.6c-1.3 1.3-2.6 3.2-3.2 4-1.1 1.3-2.6 2.6-1.3.4s1.7-3.2 2.7-4.6l1.7-2.2-3.7-.6c-2.7-.3-4.4-1.4-5.6-2.1l-3.5-2s-4.6 2-6.3 2.4c-1.8.5-2.8.7-1.1 1.5s3.1 1.1 4 1.6c.7.6 3.3 1.4 4.8 1.4 1.6 0 4.2 0 3.2 1q-1.6 1.8-3.3 6.4a22 22 0 0 0-1.2 7.4l.2 2.7s1.9-2.1 7-5.3 7-4.3 7.9-4.7 1.4-.4 1.2-1.6z"/>
  <path fill="#d4af3a" d="m230 322.1-1-.4h-.2c-.6.4-3.7 2.4-5 4.5s-2.5 2.2-1.1 0a19 19 0 0 1 3.5-4.4l1-1a56 56 0 0 1-7.8-4.5c-.3.7-1 2-1.7 2.7-1 1.1-3.5 2.1-3.5 2.1s2-2 2.6-3.5l.8-2.6a34 34 0 0 1-5.1-4.9 19 19 0 0 1-4.4 7.9c-4 4.5-12 6.7-12 6.7s-2.8.3-.5 1c2.2.5 3.8 1.5 8.3.8 4.4-.8 4.7-1 5.3-1.2s2.2 0 0 .8-7.4 1.6-9.3 1.4c-2-.1-4.7-.6-1.9 1s4 2 5.7 2 2.5.6 4.2.6 2.1-.3 3.3-.6q1.9-.2 2 .7c.1.9-1.6 1.8-1.6 5q0 5 .6 6.4c.3 1 1 2.5 1.5 3.4.5 1 .7 1.8 1.1 0 .5-2 1.6-4.7 2-6.6s.7-1.9.8-2.9 1.2-1.6.8.1l-1.4 5.5c-.4 1.5-1.2 4.4.2 2.1 1.5-2.2 6.8-8.3 7.7-9.3q1.4-1.6 2.3-3c.6-.9 2.5-2 3.4-3.4.8-1.2 3.2-3.5 4.2-4.3L230 322zm-74.2-137.7c.1 3.3 3.8 9.6 5.8 13 2.1 3.3 2.7 4.6 2.3 4.8-.3.3-1.2-1.5-2.3-3l-5.2-7.6c-1.9-2.6-4.6-9-5-9.5-.3-.6-.5-1-1.4-.2-1 .7-2.7 7.6-.6 12.3 2.2 4.8 5.4 8.2 6.7 9.8 1.4 1.7 3.2 4.2 2.9 4.5s-.8-.5-2.4-2.2l-6.2-6.8a49 49 0 0 1-4-6.5q-.5-.7-1-.1c-.5.6-1.4 2-1 5.7.5 5.2 3.3 8.2 5.7 10.9 2.4 2.6 4.8 4.8 4.5 5.2-.4.3-2.9-1.9-4.6-3.5s-6-5.7-6.8-6.9c-1-1.1-2.3-.6-2.2 4 0 4.4 5 9 7 11.5 2.2 2.5 4.7 4 4.5 4.5s-2.3-.8-3.6-1.7c-1.4-1-6.4-4.2-7.4-5-1-.6-1.5.7-.3 5 1.3 4.3 5 7.7 7.2 9.3s5.8 3.5 5.6 4q-.5.6-3.8-1.1c-2-1-4.5-2-6.3-2.5s-1.8.8-1.8.8-.4 3.7 2.3 6.6a14 14 0 0 0 8.5 4.6c2.8.5 3.3.6 3.2 1q0 .6-1 .5c-.7 0-3.3.3-5.7.3s-3.7.6-3.7 1.7c0 1-.1 2.5 3.5 4.9 3.7 2.4 7.7 2.8 9.5 3.1s1.7.5 1.4 1-1.2.5-3.9.8c-2.7.2-4.3 1.3-4.7 2-.4.8.2 2.9 2.4 4.4q3.1 2.2 9.4 1.7c4.3-.3 5.3-.3 5.5.4.1.7-1.3.9-3.4 1.3-2.2.3-3.8.3-5 1.3s-.3 3 1.7 4.6c2.1 1.5 7.2 1.5 9.4 1.3 2.1-.1 5.4-.9 5.6-.3s-1.5 1.4-3.8 2.2-2.8 1.3-3.2 2.2-.1 1.8 2.5 2.8c2.7 1 6.5 1 8.5 0q3-1.3 3.5-.8.3.4-.5 1.2a10 10 0 0 1-4.3 2.4c-2.2.6-2.5.6-3.2 2.4s1.2 3.2 5.2 3.3c4 .2 9.3-1.4 11-2.4q2.4-1.4 2.7-.9.6.5-.7 1.2c-.8.7-3.5 2.6-4.9 3s-1.5 1.3-1.5 2.3-.4 2.8 3.2 3.6 7.8.2 11.6-2.5a9 9 0 0 0 2.4-2.2c-.3-3.7-.1-6.2.3-8.5a14 14 0 0 1-3.6-.9c-2.2-.8-3-2.8-3.5-4q-.8-1.3-2.1-.7-1.2.6-3 .6a8 8 0 0 1-5.6-3c-1.8-2.2-1.5-4.3-1.6-5.4 0-1-1.7-.3-2.6-.3s-3.3-.3-5.6-1.9-2.3-3.7-2.5-4.6-1.2-1.4-1.9-1.7-1.8-.6-3.4-1.8-2.1-3.8-2.2-4.7c0-.8-1-1-4.2-2.6s-3-5-2.8-6.4c.1-1.4 1.6-2.5 1.6-3s-1-.6-2.1-1.3c-1-.6-3.8-1.7-3.9-5.7 0-4 2.6-4.4 2.6-4.4l-1.6-.9c-1-.6-4-2.6-4-5s1.1-3.4 1.9-4 3-1.1 3-1.1-1.4-1-2-2.8-.8-4.1.6-5.8c1.3-1.6 3.6-1.6 4.8-1.6s2.3.7 2.7.3.5-.6.1-1.6-.5-3.2-.2-4c.4-.8.5-2.3 3.5-3.3s6.3 1 7.3 1.6.6-.8.6-1.8-2-3.5-4.4-7a78 78 0 0 1-10.8-25.1c-.4-1.8-1-1-1-1s-.8.3-2.4 4.5a27 27 0 0 0-1.8 11.2"/>
  <path fill="#d4af3a" d="M209.6 257.5a8 8 0 0 1-6-3.8c-1.9-2.7-4.6-3.3-9.4-3.2s-7-2.2-8.2-5.5c-1.2-3.4.2-7.1 5-9.5 5-2.4 7.1-5.1 7.3-9.2.2-4.2-4.9-9.3-9.9-15.1s-9-14-9-14-1.5 1.9-1.5 3.8c0 2 .8 4 0 4.5-.7.6-1-.8-4-2s-5.3-1.5-7.1.6 0 5.8 1.7 7.5 3 3 2.5 3.7-3-1-3.7-1.6c-.9-.5-2.8-2.6-5.7-2.4-2.8.3-3.8 1.1-4 3.5-.4 2.4 2.5 4.6 4.3 5.5q2.9 1.4 2.1 2c-.4.5-.9 0-1.7-.2s-3.1-.5-4.6 0-3.9 2.6-1.7 5c2.2 2.6 6.8 3.5 7.8 3.7s1.3-.1 1.4.6c.1.8-1.9.8-4.4.9s-3.2 2.4-2.8 4.3c.3 1.8 4.5 3.8 6.8 4.2s3 0 3.3.7q.3.8-1.6 1.2c-1.3.4-3.8.7-4.2 2.7s-.6 3 1.4 4.7c1.9 1.8 5 1.5 6 1.3s2-1.2 2.9-.3c.9 1-.8 1.7-2.4 2.8s-1.5 3.2 1.2 4.7a8 8 0 0 0 6.4.5c1.1-.3 2.6-2 3.3-1 .8 1.1-2.3 1.5-3.6 3-1.2 1.6-.8 4.2 1.8 5.8s6.8.4 7.5-.2q1.3-1.2 2.2-.4c.6.6-.2 2-.8 3.3-.5 1.3-1.5 5 2.3 6.6 3.9 1.4 7.4-1.9 8-2.5q1-1 1.8-.5c.6.3.3.8-.1 1.5a4 4 0 0 0 1.3 5.3 7 7 0 0 0 5 1q1-3 2-7.6h-.5c-.4 0-.4.5-.4.7q0 .4-.3.4c-.3 0-.3.2-.8.6q-.8.6-1.2.5c-.2-.2 1-.8 1.3-1.2q.8-.7 1-1.5 0-.6 1-1.3l.5-.5q.7-3.2 1.3-7.7l.4-5.9zM131.1 200c4 8.3 9.9 13 9.9 13s-.8-2.1-1.1-3.5-.1-3-.1-3-1.5-2-4.1-6c-2.7-4.2-4.2-10.3-4.2-10.3s2.5 6.1 4.5 9.3a50 50 0 0 0 4.2 6s.8-3 1.3-3q.8-.2 1.5.9.8.7.9.5l-1.7-3q-.9-1-1.6-2.3c-1.6-2.4-4.9-7-6.6-11.6s-5.4-16.1-6-19.5-1.3-1.6-2 1a29 29 0 0 0-.9 11.3 57 57 0 0 0 6 20.2m5.3 22.4 3.8 2.7-.6-1.9-.3-3-3.1-2.7a44 44 0 0 1-6-6.4c-3-3.8-.6-1.5 2 1.3s7.4 6.8 7.4 6.8v-1q0-1.2.7-2c.5-.6.3-.6-2.5-2.7a80 80 0 0 1-18.7-26.1s-1.6 9.5 4.2 20 11.5 13.9 13 15zm30.4 60c3.2-1.2 2.3-4.3 2.3-4.4l-3.7 1.3c-1.8.7-6.2 2-8 2s-1.7-.2-1.8-.4c0-.3 1.4 0 3.9-.5s6.9-2.8 7.7-3.3q1.1-.7-.5-.7a5 5 0 0 1-2.5-1c-.4-.3-1.6.2-4.5.9a53 53 0 0 1-23 .8c-.6-.2-1.4.2.8 3.9s10 5.7 15.4 5.6c5.3 0 10.7-3 13.9-4.1zm-14.3-7.6c5.5 0 7.6-1.6 7.6-1.6s0-.3-.7-1.4c-.8-1.1-.6-3-.6-3l-3.7.5q-3.5.8-8 .2c-2.9-.6-1.6-.9.7-.6 2.4.3 7-.6 8.4-1 1.4-.6.8-1-.2-1.4s-3.6-2-3.6-2-6.8.8-13 .1-10.2-2.3-11.5-2.5-1.2.3-1.2.3-.4.6 1.8 4a18 18 0 0 0 10 6.6 54 54 0 0 0 14 1.8m-1.4-13-.6-1.4c-.3-1.2.6-2 .6-2s-1.3-.4-5.4-1c-4.1-.4-4.4-.8-7-1.3-2.4-.6-4.1-1.3-4.1-1.6q0-.3 2.4.7c1.4.5 7.8 1.2 10.5 1.6q4 .6 4.6.4c.5-.3 2.2-.7 2.2-.7l-2.6-.6a9 9 0 0 1-3.4-1.4c-.8-.5-1-.6-4.4-1s-6.1-1.5-12.2-3.7-10.6-4.8-11.8-5.8-1.2-.3-.8 1c.3 1.2.3 2.8 3.3 6.4s4.6 5.1 12.3 8c7.7 2.8 16.4 2.4 16.4 2.4M128.3 243a43 43 0 0 0 16.5 6.8c.3-.4-.4-2 0-3 .4-1.2 1.1-1.2 2.7-1.3 1.7 0 .6-.4.2-.4l-3.2-.8c-2.7-.7-5.5-1-9.2-2.5-3.8-1.4-5-2.5-4.8-2.7 0-.3 1.7.9 5.2 2.2s7.5 1.8 9.7 2.3.3-.5-.7-1.1-2.5-2.9-2.5-2.9-2.5-.4-6.5-1.6q-5.8-1.7-10.6-4.5l-3.5-2.3-5.5-4c-1.3-1-1-.2-.8.4s1.1 3.5 3.3 6.6 2.8 4 9.7 8.8m-1.2-13.5c6.8 5.3 12.5 7 13.5 7.4s1-.1.7-.7c-.2-.6-.3-2.4-.3-2.4l-5-3c-2.8-1.5-5.7-3.6-7.7-5s-.8-1.2-.2-.7 3.4 2 6 3.8l7 4.1s0-.9.6-1.4c.6-.6 2-.4 2-.4l-1.1-1.4c-.5-.7-2.7-1.4-5.2-2.6a62 62 0 0 1-10.2-7.2c-3.3-2.8-9.7-9.8-10.1-10.3q-.7-.9-.8.2c0 .7-.3 1.2.4 4.4s3.7 9.9 10.4 15.2m23.8-50.3 2.2 3.8 1.5 2.5V184a12 12 0 0 1 0-3.7q.3-1.3.2-2.4-.1-1.4-.4-2c-.2-1-1.2-4.9-1.7-7.7a62 62 0 0 1-.9-10.2c0-3.5.5-1.7.5 0s.2 4.3.8 8.3c.5 4 2.2 10 2.2 10s0-.9.6-2.2l2-4.5c1.1-2.4.4-2 .4-2s-2.4-11.3-3-16.6-1.6-19.4-1.6-19.4c-3.5 3.5-6 12.6-6.5 21.3-.3 6.5.7 12.5 1 15a38 38 0 0 0 2.7 11.3m-7.6 17.8q0-4 2.3-5s-1.4-2.6-2.7-6.3a49 49 0 0 1-2-8.2c-.9-6-1.6-12.3.2-2 1.8 10.2 4 13.8 4 13.8l2.6 4.3a18 18 0 0 1-.3-5.3c0-2 .3-4.8 1-7 0 0-3.2-6.3-5.2-13.9a87 87 0 0 1-3.4-24.1s-3.3 2.4-4.4 14.8a74 74 0 0 0 3.8 28.8l4 10zm35.4 94.5-2-1.3c-1.5-1-1-4-1-4l-1.6 1.1q-1.7 1.3-4 2.3L167 291q-1.4.4 0-.5c.9-.5 1.1-.8 3.2-1.6 2-.8 6.1-4.4 6.1-4.4l-2.6-.1c-1.7-.1-3.9-1-3.9-1s-1.7 1.6-8.5 4.5c-6.8 3-12.6 3.7-12.6 3.7s.7 3.5 4 4.7c2.7 1.1 6.5 1.9 13.8.1a47 47 0 0 0 12.3-4.8zm9 7c.6-2.9-1-4.9-1-4.9l-1.4 1.1c-1 1-2.6 2.7-5.4 4.1-2.9 1.5-4 1.4-1.2-.1s6.9-5.7 6.9-5.7l-1.1-.4c-1-.4-3 .3-10.6 4.9-7.7 4.6-12.2 4.8-12.2 4.8s3.4 4.1 12.7 3.8c9.4-.3 12.7-4.7 13.3-7.6m17.6-3.4s-1 1.5-2.4 2.4c-1.4 1-5 1.5-5 1.5l-1 1.3a15 15 0 0 1-3.9 4.3c-1.6 1.2-4.2 2-4.3 1.7-.2-.3 1.5-1 3-2 1.7-.9 3-2.7 4.2-4 1-1.2-.5-1-.5-1h-3.7c-1.8-.2-1.5 0-2 .8q-.6 1.1-2.6 3.2l-4.7 5.4c-1 1.3-.2 1.6-.2 1.6s.4.8 4.6 1.3c2.5.2 5.3 0 8.2-1.8a25 25 0 0 0 5.6-4.8c5-5.4 4.7-9.9 4.7-9.9m2.2 11.3-1.5 1.9s.7-2.2 1.3-3.3l1-1.4a28 28 0 0 1-1.7-5c-.5 1.5-1.9 5.8-3.7 8.6-2.1 3.5-4 4.7-2.8 5.6q2.2 1.7 6.4-.2a7 7 0 0 0 3.7-5.3l-1.3-2.3q-.5.3-1.3 1.4z"/>
  <ellipse cx="206.9" cy="169.2" fill="#d4af3a" rx="1.9" ry="1.8"/>
  <path fill="#d4af3a" d="M203 165.9c1.7 0 2.6-.9 4.5-.7a28 28 0 0 1 9.1 3.6 16 16 0 0 0 10.5.9q1.5-.6 3-1.5c4.6-2.5 3.5-7.6 3.5-7.6a18 18 0 0 1-11.4 3.5l1 .8c.6.7 1.8 1.5 1.4 1.8s-2-1.3-3.4-2.3a21 21 0 0 0-7-3.4c-3.4-1-7.4-1.1-10 .3-2.7 1.5-2.9 3.3-2.5 4q.4.7 1.2.6zm49.2 37c-.8-.2-2.2-.5-4-2.2a76 76 0 0 1-6.7-7.3q-.9-1.5 1-2.3c1.2-.5 2-2 2-2s-2.7-1.1-4.5-2.4-6-5.2-6.6-6.1c-.6-1-.3-1.1.5-1.4 1-.3 1.1-1 1.1-1s-2-1.1-3.8-2.6l-4.3-4c-2.7 1.2-7 .7-9.3.3-4.1-.7-7.1-2.4-7.1-2.4l-.7 1.9c-.5 1.3-2.4 2-4.3.7-2-1.2-1.5-4-1.5-4s-1.5-.9-4.7-2q-4.6-1.9-8.2-.2c-2.6 1.2-3.8 4.7-3.8 7.3 0 2.7 1.4 1.6 1.6 1.2s1-2.3 4.1-2.8c3.3-.5 6.2 1 9.8 4s4.5 3.3 6.3 5.2c1.9 1.9.4 3-2.7 4-3.2 1-7.2-1-7.4-1-.6.3 1.4 3.1 4.1 4.2 2.7 1 6.2.3 8.9-.7 1.8-.8 2.2 0 2.7.5 3 3.2 3.7 6 4.2 9.7a4 4 0 0 0 2.8-3.3c.1-.6.3-1.9 1.3-1 1 1 1.9 6.3 1.9 8.7 0 2.5-.8 5.7-.8 5.7l.8-.1q.7-.2 2.5-1.2c1.1-.7 1.2 0 1.2 1.4s.4 3.8 2.2 8.3c1.7 4.4 4.3 5.9 4.3 5.9s.5-.9 1-2.7c.5-1.7 1-5.2 1-8.2s-.9-9.4-.9-9.4 3.7 4.4 7.5 5.5 7.6.5 9.2-1.4.1-2.6-.7-2.8"/>
  <path fill="#d4af3a" d="M227.2 214.5s-1.2 2.5-1.8 3.4c-.6 1-.9 1-.9 1s1.2 1 2.8 1.6l3.2.8s-1.9-2.6-2.5-4.4zm22.9-1.5-1-2.3a16 16 0 0 1-8.7-1.8s1.8 3.6 3.5 4.8c1.8 1.3 2 1.3 2 1.3s-1.7.3-4-2c-2.4-2.3-3.5-5-3.5-5s.6 6.2-.4 10l-1.1 4.2s5 1 10.5-.6 6-2 6-2 .6-.2-.3-1.4a30 30 0 0 1-3-5.2"/>
  <path fill="#b96b29" d="m240 199.4-1.9-2.4s-.6.6 0 1.4 2.9 3 4.5 4a12 12 0 0 0 3.3 1.2v-.3s-4.2-2-5.9-3.9m-6.8 12.9-.4-9c0-1-.7-.8-.7-.8l-.8.4 1.6 11.3c.2 1.2.8 1.1 1.1 1-.6-.2-.7-2.6-.8-3zm-10.4-33.6c-.6-.6-2-1-.7.5s3.2 3.4 3.7 5 .8 3.5 0 3c-1-.3-1.6-.3-2.5-1.1-1-.8-2.8-2.1-3.5-2.3-.7-.3-2 0-1 1.1a26 26 0 0 0 4.2 3.7l4.2 2.9 2.1 1.4s-1-6.4-2.7-9.1a28 28 0 0 0-3.8-5zm-34.1 105.9c-1.3 1-3 1.4-3 1.4s-.8 0-.8.2 1 0 1.9-.1c1-.2 2.3-1.2 2.8-1.5s1.2-.8 1-1.5c-.3-.6-.7.5-2 1.5zm11 5.9-2.4 2-1.4.6q-1 .6-.9.7 0 .2 1 0c1-.2 2.9-1.8 3.6-2.5q1.1-.8.7-1-.3-.4-.6.2M155 211.1q.7 1 1 1 .4-.3-.5-1.1l-.8-1-1.2-1.6c-.4-.4-1.1-.7-.3.4zm-3.4 7.4 1.5 1.4q.8 1.1 1.2 1c.3-.4-.8-1-1.3-1.7l-1.5-1.5-1.4-.8zm1.3 12c.8 1 2 1.2 2.2.8q.3-.4-.8-1a24 24 0 0 1-4-2.7q-.6-.7-1-.6c0 .1 1.2 1.6 1.6 1.8zm2.4 9.7q.2-.6-.6-.6l-1.7-.2s-1.4-.5-1.5-.3c0 .3 1.2.8 1.7 1a3 3 0 0 1 1.5.4q.5.2.6-.3m1 10.4c-1.4 0-2.7-.3-2.8-.1s.7.6 1.4.8c.8.3 2.2.4 3.2.4s1.1-.1 1-.6c0-.5-1.2-.5-2.7-.5zm11.8 11.5c-.2-.3-.7 0-1.6 0-.8.3-2.2.5-3 .5l-2.5-.1-1 .2q.2.3 3.2.4c1.8.2 3-.2 4-.3q1.3-.3 1-.7zm4.9 8.1q-1.4.5-2.3.4l-2.4.3s-.8.2-.7.5q.2.3 1.1-.1h2.5q1.7-.1 2.7-.6c.8-.1 1.6-.5 1.2-1s-1.2.1-2.1.5m9.5 6.2-2.6 1.9-1.2.7c-.8.4-.7.6-.6.8s.6-.3 1-.5 2-1.2 2.7-1.8 1.7-1 1.6-1.5q-.2-.6-1 .4zm-15.8-79.8 1.8 2.5c1.6 2 .8 0 .4-.5s-2.8-3.9-3.7-4.8c-.8-1-.9-.5-.5.1zm-3.4 10.5q.3-.1-1.3-1.6l-2.8-3.6s-.5-1.1-.7-1 .7 1.9 1.4 2.6c.8.8 1.8 2.3 2.3 2.9q.7 1 1 .7zm4.5 19.7c0-.6-1.9-.5-2.7-.7l-2.3-.5s-1.8-.3-1.8 0q-.1.3 1.3.6l3.5.8c1.1.1 2 .4 2-.2m-4.5-10.7 2.6 1.9c.7.3 1.2.8 1.6.4q.4-.5-1.4-1.1l-1.5-1-1.2-.5c-.5-.3-1.4-.6-.1.3m10.5-7-1.4-1s-1-.8-1-.5c-.3.3 1 1.1 1.5 1.7s1.7 2 2.2 1.7-.5-1.2-1.3-1.9m-6.9 27.5-1.7.4c-.6.2-.7.5.5.5s1.7-.3 3-.5q1.6-.3 1.3-.8t-1.3-.1zm1.9 10c-.1.1.8 0 1.4-.3l2.7-1.1c.8-.2.8-.4.8-.8s-.8-.1-1.8.2-2.2 1.3-2.2 1.3zm12.8 6q1.2-.9.7-1.3-.3-.4-1.3.4l-2 1.5-1.3.6q-1.1.5-1 1c.2.2 1.3 0 1.9-.6.5-.4 2-1.1 3-1.7zm6 8c.3-.4 1.4-.8 1.9-1.1s.8-1.4.4-1.6c-.4-.1-.6.5-1.5 1.1l-3.7 2.5-.7.3q-1 .6.2.5c.7-.1 1-.1 1.9-.7q1.1-.9 1.5-1m9 7.5c.7-.3 1.8-1.3 2.3-1.8s1.2-1.1.8-1.4q-.6-.4-1.4.7c-.7.5-2.3 2.2-2.3 2.2l-1.1.8c-.9.7 0 .6.3.3q.4-.4 1.3-.8z"/>
  <path fill="#d4af3a" d="m232.3 150.9-2.7 2.2 3.3 1.4 3.6-2.5z"/>
  <ellipse cx="244.4" cy="151.6" fill="#b96b29" rx="3.4" ry="3.3"/>
  <ellipse cx="244.4" cy="150.8" fill="#d4af3a" rx="2.1" ry="2"/>
  <path fill="#d4af3a" d="M237.3 140.2c.9.3 2 .2 2 .2s.4-1.6-.5-2.3l-2-1.8-.7-.6v2.1c-.1.8.3 2 1.2 2.4"/>
  <circle cx="239.1" cy="141.8" r=".6" fill="#d4af3a"/>
  <path fill="#d4af3a" d="m234.4 141.2-.8 1s.7 0 1.2.4q1 .7 2 .7a1 1 0 0 0 .9-1.2q-.1-.8-1.6-1.3c-1.1-.4-1.4 0-1.7.4"/>
  <path fill="#d4af3a" d="M236.8 145.2c-2.1.2-5-2.2-5-2.2q-.4 3-3.3 3.3h.2s1.7 1 3.7 1.2q1.3.2 2.7-.2a10 10 0 0 0 3.2-1c1.3-.8.9-2.9.9-2.9s-.2 1.6-2.4 1.8m-8.4-2.1c-.9-.4-2.2-1-2.8-1s-1.3-.2-1.2.8 1.2 1.5 2.2 1.6q1.4-.1 2.2-.7 1-.4-.4-.7m-6.7-3.7c-1-.7-1.9-.9-1.9-.9s-.6 1.7-.2 2.7 1 1.3 2 1.3 2.3-.5 1.9-1.2a5 5 0 0 0-1.8-2z"/>
  <ellipse cx="222.5" cy="144.1" fill="#d4af3a" rx=".8" ry=".5"/>
  <path fill="#d4af3a" d="M224.6 135.8c-.6-2.9-.5-6 2.2-9.9s7.4-5.5 7.4-5.5l1.6-1.9c1.5-1.6 4.5-3.6 4.5-3.6l-5.5 1.5v.1a2.4 2.4 0 0 1-2.4 2.5 2 2 0 0 1-1.4-.4 24 24 0 0 0-5.6 3.1q.4.6.4 1.3a2.4 2.4 0 0 1-2.5 2.5q-.6 0-1-.3l-.4.5-1.7 4a3 3 0 0 1 1 2.1c0 1.4-.9 2.5-2 2.5v1.6q-.2 1.2 1.7 1.7c1.4.4 3.3 2.8 3.3 2.8.1 0 1.1-1.8.4-4.6"/>
  <path fill="#d4af3a" d="M233.2 117.6q.8-.7.2-1.4-.8-.5-1.7.1c-.9.6-.6 1-.2 1.4q.8.5 1.7-.1m-9 6.1q.8-.9.2-1.8-.9-.7-1.9.2-1 1-.2 1.7c.4.5 1.3.4 1.9 0z"/>
  <circle cx="218.8" cy="131.4" r="1.4" fill="#d4af3a"/>
  <path fill="#d4af3a" d="M248.9 112q-1.2.2-4.1 1.7c1.4 0 2.5.9 2.5 2s-1.3 2.4-2.6 2.4a2.4 2.4 0 0 1-2.4-2.3q0-.5.2-.8l-1.9 1.2c-4.4 3-5.5 4.5-7.7 8.5s-3 8.6-2 11.2c1 2.7 4.4 3.2 4.5 3.2q-.2 0-.5-.9l.3-1.7v-2.2s.8-.1 1.3.4l1.5 1.8 1.7 1.6s.7-1 .7-2.2-.8-2.5-1-4.6 1-5.8 3-8.6a24 24 0 0 1 7-5.7 2 2 0 0 0 1.4-2l.3-2c0-1.3-1-1.2-2.2-1"/>
  <path fill="#d4af3a" d="M244.5 116.8q1.4-.2 1.5-1.4-.1-1-1.4-1.1-1.3.1-1.4 1.1 0 1.2 1.3 1.4m6.6 26c1 .4 2.2.2 2.8-.2q1-.8 0-1.9a2 2 0 0 0-2.2-.2l-2 1.4s.3.5 1.4.9"/>
  <path fill="#d4af3a" d="M254.5 144c-.4.6-.7 1-1.9 1s-2.5 0-3.2-.8l-1.3-1.9h-1.4s-.4 1.9-1 2.4-2.7.6-3.6 0c-.9-.8-1.7-1.6-1.9-1.5q-.3.3 1 1.6c1.3 1.3 1.5 1.3 3 1.3h8.5s1.8.1 2.3-1q.7-1.5.2-1.9-.2-.2-.7.8"/>
  <path fill="#d4af3a" d="M241.5 142.6c1.3.7 2 .2 2.5-.3l.5-.9s-1.2-.4-1.8-.8q-.8-.5-1.5-.6l-.7.2s-.2 1.6 1 2.4"/>
  <circle cx="235.4" cy="130" r="2.8" fill="#b96b29"/>
  <path fill="#b96b29" d="M240.3 120.2c-1.1-.7-2.8-.4-3.7.7s-.8 2.7.4 3.5c1.1.7 2.8.4 3.7-.7s.7-2.7-.4-3.5"/>
  <circle cx="235.3" cy="129.6" r="1.6" fill="#d4af3a"/>
  <path fill="#d4af3a" d="M239.1 120.5q-1.2-.2-2 .8-.6 1.2 1 1.6c1.8.3 2.6-2 1-2.4m-43.4 219.8s-4.3 2-5.7 2.4l-1.8.4s-3 2.7-5.1 4a19 19 0 0 1-7.6 2.7c-3.5.3-12.9.2-17.1 0-4.2 0-6.8 1-8.7 3s-2.2 5 0 7.2c2.4 2.3 5 1.1 5.8-.2.9-1.4.4-3.2 0-4-.3-.8.8-1 2-1.1a26 26 0 0 1 11.4 2.5c1.4.7.6.8-.4.6l-3.7-1.2a15 15 0 0 0-4.3-1c-1 0-.7.6-.4 1l1 1.7-.4 2 .5 1 .9-1.5c.2-.6 0-1.6.2-2q.4-1 1.8.2a7 7 0 0 1 1.8 3.8c.4 2-.3 3.5-.3 3.5s.9.7 1 1.2c.2.5-.2 2.4-.2 2.4s.6.4 1.2-.7l1.3-3.8c.2-.7.6-2 1.5-1a8 8 0 0 1 1.6 2.7l.2 1s1.9-1.8 2.5-2.9a18 18 0 0 1 3.8-4.2c1.8-1.5 5-4.5 6.5-5.5l6.8-4c1.2-.7 1.4-.7 1.6-2.8s1.3-4 1.8-5.4zm-70.1-78.7c0-.3-.8-1.6-1-2.2s-.8-.3-.8-.3-1.4.8-2.4 1.1q-1.3.3-1.3-.6l-.5-3.4c-.2-1.2-.4-1.1-.9-1l-2.6 1c-.9.5-.6.9-.3 1.4l1.8 3.4c.5.7 0 1-.5 1.3l-2.4.7c-1 .4-1 .6-.9 1l1.2 2.5c.4.6.8.2.8.2s1.1-1 2-1.5c1-.5 1.1-.3 1.4.4l1.5 5.2q.3.9 1.1.4l1.8-.5c.5-.2.7-1.3.7-1.3l-2.6-4.8c-.6-1 0-1.2.4-1.2l2.7-.5c1-.3.8-1 .8-1.3m23.8 103c-.2-.9 0-1.8-.7-2.5a9 9 0 0 1-2-3.2c-.2-1.1.4-1.7.3-2.3q-.3-1-1.9 0c-.8.7-2 1.4-2 3.4s.8 4.5 3.6 5.3c2.9.9 2.8.3 2.7-.7m2.8-1s-.5-.3-.8.2-.2.8.5 2 1.2 1.5 2.1 2 .3-.5.2-.9q0-.5-.3-1-.3-.2-.3-1.4c0-1.2-1.4-.8-1.4-.8z"/>
  <path fill="#d4af3a" d="M155.7 373.3c.6-.8 1-1 2.3-1.6s3.7-.9 4.5-1 2.6-1.6 2.3-3.2q-.7-2.2-2.5-2.4-1.6-.5-2.2.2a4 4 0 0 1-2 1.5c-1.2.4-1.3.8-2 1s-.2.6-.8 1.1-1.4 0-2.3-.2-1-.5-2-.5l-3.6-.2h-.7q-.7-.2-1 .7c-.2.6.1 2.2.8 3 .6.8 2.7 1.2 4 1.6l3.3.8c1.3.2 1.4 0 2-.8zm13 1.3c1.1-.7.5-2 .2-2.8s-1.8-1-2.6-1-1.2 0-1.7.4q-.5.6-2.1 1.3c-1.2.3-2.1.8-3.7 1.4s-2.1 1.7-2.8 2.2c-.7.4-2 0-2 0s-1-.3-1.3 0q-.4.4.6 1.5c1 1.1 1.9.6 3.3 1s1.6.1 2.2-.2l1.9-1.8c1-.6 3-.7 4-.8 1.1-.1 3-.4 4-1.2m0-4.9c.5.5 1 1 1.5.3s1-2.1.6-3l-1-1.6-1.2 3.1c-.4.7-.3.8.1 1.2m-4.3-7.4c0-1.4-1-3-1-3s-.3 1.2-.9 2.3l-1.2 1.7 2 .4c.5 0 1.1 0 1.1-1.4m-8 3q2.1-.6 3-1.5c.5-.5 1-2 .5-2.7s-1.5-1.6-2-1.6h-.7s-.5 1.4-1 2.1-1.3 1.2-1.3 2.1 0 1.9 1.5 1.6m3-6.8q0-1.1-.7-2l-.8-.8-.2 1.7-.2.7.8.6c.4.1 1 .5 1-.2zM141 320.4l1-6.3c-.7-6.3-4-12.3-6.6-16.5a79 79 0 0 1-6.5-14 40 40 0 0 1-2-10.7c0-2.5 1-3.8 1-3.8s.5-.6 0-1c-.3-.5-1 0-1.7.6a8 8 0 0 0-1.6 2.8l-.3 1.2s-1.4-.3-3.5-.2q-3.2.2-3.3.8c0 .5.3.9 1.9 1.5s2.5 1 3.3 2c.8.8 2.8 5.5 3.4 7.7a109 109 0 0 1 2.4 13 52 52 0 0 0 4.4 15.3c.7 1.6 4.7 9.1 8.1 7.6m4 11.1c-1.5.8-1.5 6.8-.8 10 .6 3 3.7 6.9 4.6 8 1 1 1.1 1 1.6.7l.7-.3s1.3-.4 2.3-1.2.6-2.6.4-4.3-1.4-5-3.8-9-3.6-4.7-5-3.9m1.5-4.8c0-2-1.7-3.4-3.6-3.4q-1.5 0-2.2.6c-2 1.8-.8 6.3 2 6.3 1 0 2.3-.2 3-1 .7-.5.9-1.6.9-2.5zm28.3 56.2a13 13 0 0 1-5.7-4.4c-.3-.8-.3-.8-1.4-.5s-2.7.4-3.8.4c-1.2 0 .1 1.4 1 2.6.7 1.3.5 5.4.5 5.4l-.2 1q-.2.9.3 1.2.3.2 1.3-1.1c.8-1 2.3-3.5 2.3-3.5l1.6.3c1.3.3 3.3.2 4.4-.1 1-.4.5-1.1-.2-1.3z"/>
  <path fill="#d4af3a" d="M169.8 386.1q-.7-.1-1 .3l-.7 1.4q-.1.6.3 1l.7.6s.5.5 1 .7.5-.5.5-1l.3-2q-.1-.9-1-1z"/>
  <path fill="#1d5e91" d="M378.6 345.8c-1.4-.3-2-.9-2-.9s-.5 0-1 .8-2.1 2-2.1 2-2.4.6-2.8 2.2.9 2.3 2 2c1.2-.1 4-.7 5.2-2.2 1.2-1.4 1.4-2.3 1.7-2.8.2-.6.3-.8-1-1.1m3.8-13.2c-1-3.7-3.3-8.3-7.9-10.6l-2.2 8c-.5 2-.5 1.9 1 2.2l7 1.7c1 .3 2.6 1 2-1.4zm-22-3.5c1.2.2 1-.2 1.4-1.7l2.3-8.7s-4.8-.2-9 1.8-6.1 5.8-6.1 5.8 1 .5 4 1.1zm-11.2 10-2.3-.5s1 4.2 2.8 6.5 3.8 3.4 7.5 3.5c3.7 0 6.5-2 7-3.6l1.2-2.8s-6.7-.9-9.5-1.5q-4.1-1.1-6.7-1.6"/>
  <path fill="#d4af3a" d="m348 336.5 16.5 3.3q1.9.5 2.5.2c.3-.4.5-.6 1.7-1s1.1-1.7 1.1-1.7l.5-2.3c0-1.2.7-1.5 2 0 1.4 1.3 1.7 3.4 2 5.3.2 2 3.3 2.5 4.5 2.7s1.8-.2 2.5-1.3a16 16 0 0 0 1.3-5c.2-1.4 0-1.3-1.5-1.7l-9.9-2.3c-1.2-.3-1-1.1-.8-2l3-9.9a21 21 0 0 0-8.1-2.4s-2 9.2-2.5 10.6-1.3 1.4-2.7 1.2l-12-2.8-1 2a17 17 0 0 0-1.1 5.6c0 1.2.4 1.2 2 1.5"/>
  <path fill="#d4af3a" d="M384.3 344.8c-1.4-.9-2.4-1.2-3.2.6-.7 1.7-.8 4.2-2.6 6s-4.4 3.6-7 3.4-4-.8-3.4-3.7 4.5-3.9 5.5-5.4a3.4 3.4 0 0 0-.7-4.5c-1.4-1.2-3.3-1.4-3.9-1a8 8 0 0 0-2.9 3.9c-.8 2.2-1.3 4-3 5.4a13 13 0 0 1-9.5 2c-3.4-.8-4.7-1.8-6-5.2s-2.7-9-3.4-9.6-1.6-1-3 0c-1.5 1-1.6 2.6-1.8 3.8s0 2.6 1.5 4.4c1.4 1.8 3 3.5 3.5 5.4.6 1.8 2.2 4.6-.1 4.7s-3.4.2-5.1-1.5c-1.8-1.7-8.7-6.4-10.6-8l-2.7-2q-4.8-.1-9.6-3.5s1.9 4.7 2.2 6.5q.5 2.6.3 2.7l9.7 5a177 177 0 0 1 11 6c2.7 1.8 5 4.3 9.7 3.3 4.8-1 14.5-3.9 17.6-4.8 3.1-1 11.7-3 14.9-5.3s3.5-2 4-4.2q.8-3.1-1.4-4.3zm-18.4-33 2.4-.3c1.6-.2 1 1.4.7 2q-.3 1-1.4 2.9c-.7 1.1.2 1.3.7 1.5l2.4.6c1.3.3 1-.6 1.1-1.1 0-.5.1-3 .3-4 0-1 1-.7 1.3-.5l1.8 1q1 .3 1-.4l.8-2.2c.3-1-.3-.8-1-.8h-2.6c-1 0-.4-1-.4-1l1.4-2.3c.6-1 .4-1.1-.2-1.3l-3-.7q-.8-.2-.8.3v2.9q.2 1-1 1.1c-1 0-1.5-.5-2.3-1.3s-1-.5-1.1-.2l-.8 3.3q-.2.9.7.5m5.2 23.3s-.1 1.8-.3 2.4c-.2.7-.6 1.6.1 1.9q1.2.6 2 .4c.4 0 .2-1 0-1.7a7 7 0 0 0-1.3-2.4zm11.2 7.3q.5.8 1.1.9.8.3 1-.6a3 3 0 0 0-.5-2.4c-.6-.7-.9-1.3-1.2-.2q-.7 1.7-.4 2.3m-39.1-7.4 1.5.4s0-1.7.3-3c.2-1.2.7-2 .3-2q-.6 0-1 .9c-.4.5-1.3.6-1.6 2.1-.3 1.4.2 1.5.5 1.6"/>
  <circle cx="350.8" cy="331.9" r="2.5" fill="#b96b29"/>
  <circle cx="357.8" cy="333.6" r="2.5" fill="#b96b29"/>
  <circle cx="378.3" cy="338" r="2.5" fill="#b96b29"/>
  <circle cx="364.9" cy="335.3" r="2.5" fill="#b96b29"/>
  <circle cx="366.7" cy="329.2" r="2.5" fill="#b96b29"/>
  <circle cx="368.5" cy="323.1" r="2.5" fill="#b96b29"/>
  <circle cx="351" cy="331.7" r="1.2" fill="#d4af3a"/>
  <circle cx="358" cy="333.4" r="1.3" fill="#d4af3a"/>
  <circle cx="378.5" cy="337.7" r="1.3" fill="#d4af3a"/>
  <circle cx="365.1" cy="335.1" r="1.3" fill="#d4af3a"/>
  <circle cx="366.9" cy="328.9" r="1.3" fill="#d4af3a"/>
  <circle cx="368.7" cy="322.8" r="1.3" fill="#d4af3a"/>
  <path fill="#d4af3a" d="M287.5 383c-1.4-.8-2.5-1.7-5.6-3.8s-4.1-4.2-4.1-4.2h1q1-.2 1.2-1.7l-.3-4.4c-.2-2 .3-3.5.3-3.5s1.3 1.2 3.3 2.3 2.8.5 2.8.5l.5-2 2 4c1.3 2 4.5 4.4 6.9 6.2 2.3 1.7 4.9 3.6 6.8 4.2 2 .7.8 1.6.8 1.6s-2 2-6.9 2.8c-5 1-7.4-1-8.7-2"/>
  <path fill="#d4af3a" d="M270 381.1c1.8-.2 3-.8 3.3-2.8.2-1.2-.1-6-.1-6l1.2 1.2c.7.9 2.2 1 2.2 1s.2.7 1 1.8a10 10 0 0 0 3.2 3.5l5 3.4a30 30 0 0 0 4.5 3.3 8 8 0 0 1 3.8 5q1 3.6-1.9 3.2c-2-.2-2.1 0-5.3-.8s-7.8-4.4-11-6.5c-3.4-2-5.8-6.3-5.8-6.3z"/>
  <path fill="#d4af3a" d="M261.2 384s1.4-1.7 1.9-3.6l1.4-5.8 1.5 3.5c1.1 2.3 3 2.9 3 2.9s0 1 1.6 2.9a23 23 0 0 0 6 5c2.3 1.4 5.3 3.3 6.9 5.6s1.8 4.7 1 5.7-1.8-.2-3.4-1c-1.5-.7-5.9-1.4-11.9-4.6s-8-10.6-8-10.6"/>
  <path fill="#d4af3a" d="M258.6 397.5c-1.6-2.5-1.9-8.5-1.9-8.5l1.4-1c.8-.8 2.4-3.1 2.4-3.1l2 4c1.1 1.9 1.6 2.6 3.9 4.6 2.2 2.1 5.3 4.1 6.6 6.3s.6 6.7-.3 8.1c-.8 1.5-2 1-3.3-.2l-3.8-3.4c-2.3-1.9-5.3-4.3-7-6.8"/>
  <path fill="#b96b29" d="M278.4 347c-1-1.8-1.9-4-2.7-5l-1.4-2.5s2.2 2 3 3.4a15 15 0 0 1 1.8 4.2q.5 2.4-.7 0zm-8.5 1.6-.6-2s-.3-1.2-.1-1.3q.5 0 1.7 2.7c.6 2 1.5 4.8 1.3 5-.2 0-2-3.2-2.3-4.4M263 354l-.4-1s-.6-2.1-.6-2.6.2-1 .7.2q.8 1.8.8 2.7c.1.5.8 2.2.6 2.4s-.7-.9-1-1.7zm20.9 20.4.9-.5 1.3 1.5q1.3 1 2.2 2a9 9 0 0 0 2.9 2.4q2 1 1.6 1.1c-.2.3-1.2-.3-1.2-.3s-.4 0-2-1-2.1-1.6-3.2-2.5zm-7.3 8.7c-.6-.7-1.3-1.2-1-1.5q.6-.6 1.5.1l3 2.8 2.1 1.7c.8.6 2.4 1.5 3.2 1.9.9.5.1.5.1.5l-1.3-.5-2.6-1.1-1.8-1.1zm-8.4 5.8c-.5-1.1 0-.8 1-.4.9.3 2.9 2.5 4 3.3l3.2 1.7c1.4.7 1 .7 1 1q-.2.3-1 0l-1.7-1-1.1-.2q-.8-.1-2.6-1.7-1.8-1.3-2.8-2.7m-3.9 7.7c1.5.9 4 2.9 4.7 4.2q1.2 2.1 1 2.6c-.3.2-1-.3-1.3-.8l-1-1.4s-2.6-2.5-3.5-3a9 9 0 0 1-2.8-3.3c-.4-1-.1-1.5-.1-1.5s1.6 2.3 3 3.2"/>
  <path fill="#c52126" d="M304 181.3a24 24 0 0 1 19-1.6q3.3 1 6 .2a8 8 0 0 0 5.6-6.3s2.6 3.3 0 6.8a8 8 0 0 1-4.6 3.2c-5.4 1-10.8-2.3-15.3-2.6-4.3-.2-7.7 2.5-7.7 2.5s-1 .9-2.5 0q-2.4-1.2-.5-2.3z"/>
  <path fill="#d4af3a" d="m319.6 338.7 1.3-.2c.8-.1 2.4-.6 2.8-.9q1-.4 1.7.3c.5.5 4.4 2.9 4.4 2.9h-6.4c-2.3 0-3.8-2.2-3.8-2.2z"/>
  <path fill="#d4af3a" d="M301.4 337.6v-.7l.9-1.8s1 .6 2 1.6c1.2 1.3 2.6 3.2 3.2 4 1 1.3 2.6 2.6 1.3.4s-1.7-3.2-2.8-4.6l-1.7-2.2 3.7-.6c2.7-.3 4.4-1.4 5.6-2.1l3.5-2s4.6 2 6.4 2.4c1.7.5 2.7.7 1 1.5-1.6.9-3 1.1-3.9 1.6a11 11 0 0 1-4.9 1.4c-1.5 0-4.2 0-3.1 1q1.6 1.8 3.3 6.4a22 22 0 0 1 1.2 7.4l-.2 2.7s-2-2.1-7-5.3-7-4.3-8-4.7-1.4-.4-1.2-1.6z"/>
  <path fill="#d4af3a" d="m282 322.1 1-.4h.2c.6.4 3.7 2.4 5 4.5 1.2 2 2.4 2.2 1 0a19 19 0 0 0-3.4-4.4l-1.1-1q3.8-1.7 7.8-4.5c.4.7 1 2 1.8 2.7 1 1.1 3.4 2.1 3.4 2.1s-1.9-2-2.5-3.5q-.7-1.6-.9-2.6a34 34 0 0 0 5.2-4.9 19 19 0 0 0 4.4 7.9c4 4.5 12 6.7 12 6.7s2.8.3.5 1c-2.3.5-3.9 1.5-8.3.8-4.4-.8-4.7-1-5.3-1.2s-2.2 0 0 .8 7.3 1.6 9.3 1.4c2-.1 4.7-.6 1.8 1-2.8 1.4-4 2-5.7 2s-2.4.6-4.1.6-2.1-.3-3.3-.6q-1.9-.2-2 .7c-.1.9 1.6 1.8 1.5 5a28 28 0 0 1-.6 6.4c-.3 1-1 2.5-1.5 3.4-.4 1-.6 1.8-1 0-.6-2-1.6-4.7-2-6.6-.5-1.8-.7-1.9-.9-2.9s-1.2-1.6-.7.1l1.4 5.5c.3 1.5 1.2 4.4-.3 2.1-1.4-2.2-6.8-8.3-7.7-9.3q-1.3-1.6-2.2-3c-.7-.9-2.5-2-3.4-3.4a30 30 0 0 0-4.2-4.3zm74.2-137.7c-.2 3.3-3.8 9.6-5.9 13-2 3.3-2.6 4.6-2.3 4.8s1.2-1.5 2.4-3 3.3-5 5.2-7.6c1.8-2.6 4.5-9 5-9.5.3-.6.4-1 1.3-.2 1 .7 2.8 7.6.6 12.3s-5.3 8.2-6.7 9.8-3.1 4.2-2.9 4.5.8-.5 2.5-2.2l6.1-6.8c1.4-1.7 3.4-5.2 4.1-6.5q.5-.7.8-.1c.7.6 1.6 2 1.2 5.7-.6 5.2-3.3 8.2-5.7 10.9-2.5 2.6-4.9 4.8-4.5 5.2.3.3 2.8-1.9 4.5-3.5s6-5.7 6.9-6.9c1-1.1 2.3-.6 2.2 4 0 4.4-5 9-7.1 11.5s-4.7 4-4.5 4.5 2.3-.8 3.7-1.7c1.3-1 6.4-4.2 7.4-5 1-.6 1.5.7.2 5s-5 7.7-7.2 9.3-5.8 3.5-5.6 4q.5.6 3.8-1.1c2-1 4.6-2 6.4-2.5s1.8.8 1.8.8.3 3.7-2.3 6.6a14 14 0 0 1-8.5 4.6c-2.9.5-3.3.6-3.2 1q0 .6 1 .5c.6 0 3.3.3 5.7.3s3.7.6 3.7 1.7c0 1 0 2.5-3.6 4.9s-7.7 2.8-9.4 3.1-1.8.5-1.4 1c.3.5 1.1.5 3.8.8 2.7.2 4.4 1.3 4.7 2 .4.8-.2 2.9-2.4 4.4s-5 2-9.3 1.7-5.4-.3-5.5.4c-.2.7 1.3.9 3.4 1.3 2.1.3 3.8.3 5 1.3s.3 3-1.8 4.6c-2 1.5-7.2 1.5-9.3 1.3s-5.5-.9-5.7-.3 1.6 1.4 3.8 2.2 2.8 1.3 3.3 2.2 0 1.8-2.6 2.8-6.5 1-8.5 0q-2.9-1.3-3.4-.8t.4 1.2q1.1 1.4 4.4 2.4c2.2.6 2.4.6 3.2 2.4s-1.2 3.2-5.2 3.3a25 25 0 0 1-11-2.4c-1.8-1-2.4-1.2-2.7-.9q-.5.5.6 1.2c.9.7 3.6 2.6 5 3s1.4 1.3 1.4 2.3.4 2.8-3.2 3.6-7.8.2-11.6-2.5a9 9 0 0 1-2.4-2.2c.3-3.7.2-6.2-.3-8.5q1.3 0 3.7-.9c2.1-.8 3-2.8 3.5-4q.8-1.3 2-.7 1.4.6 3 .6a8 8 0 0 0 5.6-3c1.9-2.2 1.5-4.3 1.6-5.4 0-1 1.8-.3 2.6-.3s3.4-.3 5.7-1.9 2.3-3.7 2.5-4.6 1.1-1.4 1.8-1.7 1.9-.6 3.4-1.8c1.6-1.3 2.2-3.8 2.3-4.7 0-.8 1-1 4.2-2.6s2.9-5 2.8-6.4-1.7-2.5-1.7-3 1-.6 2.2-1.3c1-.6 3.7-1.7 3.8-5.7s-2.6-4.4-2.6-4.4l1.6-.9c1.1-.6 4-2.6 4-5s-1-3.4-1.8-4-3-1.1-3-1.1 1.4-1 2-2.8c.5-1.8.7-4.1-.6-5.8-1.4-1.6-3.6-1.6-4.9-1.6s-2.2.7-2.7.3-.5-.6 0-1.6.5-3.2 0-4c-.3-.8-.3-2.3-3.4-3.3-3-1-6.3 1-7.3 1.6s-.6-.8-.6-1.8 2.1-3.5 4.5-7a79 79 0 0 0 10.7-25.1c.4-1.8 1.1-1 1.1-1s.7.3 2.4 4.5a27 27 0 0 1 1.8 11.2"/>
  <path fill="#d4af3a" d="M302.3 257.5a8 8 0 0 0 6-3.8c2-2.7 4.7-3.3 9.5-3.2s7-2.2 8.1-5.5c1.2-3.4-.1-7.1-5-9.5s-7.1-5.1-7.3-9.2c-.2-4.2 4.9-9.3 10-15.1s9-14 9-14 1.4 1.9 1.4 3.8c0 2-.7 4 0 4.5.8.6 1-.8 4-2 3-1.4 5.3-1.5 7.2.6s0 5.8-1.7 7.5-3 3-2.6 3.7c.5.7 3-1 3.8-1.6.8-.5 2.8-2.6 5.6-2.4 2.9.3 3.9 1.1 4.1 3.5.3 2.4-2.5 4.6-4.4 5.5q-2.7 1.4-2 2c.4.5.8 0 1.7-.2s3-.5 4.6 0c1.4.6 3.8 2.6 1.6 5-2.2 2.6-6.8 3.5-7.7 3.7s-1.4-.1-1.5.6c0 .8 2 .8 4.4.9s3.2 2.4 2.9 4.3-4.5 3.8-6.8 4.2-3.1 0-3.3.7q-.4.8 1.5 1.2c1.9.4 3.8.7 4.3 2.7s.5 3-1.4 4.7c-2 1.8-5 1.5-6 1.3s-2-1.2-3-.3c-.9 1 .9 1.7 2.5 2.8 1.5 1 1.4 3.2-1.2 4.7a8 8 0 0 1-6.5.5c-1-.3-2.6-2-3.3-1-.7 1.1 2.3 1.5 3.6 3 1.3 1.6.8 4.2-1.8 5.8-2.5 1.5-6.8.4-7.5-.2q-1.2-1.2-2.2-.4c-.5.6.3 2 .8 3.3s1.6 5-2.3 6.6c-3.8 1.4-7.3-1.9-8-2.5q-1-1-1.8-.5-.7.5.2 1.5a4 4 0 0 1-1.3 5.3 7 7 0 0 1-5 1q-1-3-2.1-7.6h.5c.4 0 .5.5.5.7q-.1.4.2.4t.8.6q.8.6 1.2.5c.3-.2-1-.8-1.3-1.2s-1-1-1-1.5-.3-.7-1-1.3l-.4-.5-1.3-7.7-.5-5.9zM381 200c-4.1 8.3-10 13-10 13l1.2-3.5c.3-1.4 0-3 0-3l4.2-6c2.7-4.2 4.1-10.3 4.1-10.3s-2.5 6.1-4.4 9.3-4.2 6-4.2 6-.8-3-1.4-3q-.8-.2-1.4.9-.9.7-1 .5l1.8-3 1.6-2.3c1.5-2.4 4.8-7 6.5-11.6s5.4-16.1 6-19.5c.7-3.4 1.3-1.6 2 1a31 31 0 0 1 1 11.3 57 57 0 0 1-6 20.2m-5.3 22.4-3.8 2.7.6-1.9.3-3 3-2.7c1.3-1.1 2.9-2.5 6-6.4 3.1-3.8.6-1.5-2 1.3a97 97 0 0 1-7.3 6.8v-1a3 3 0 0 0-.8-2c-.5-.6-.2-.6 2.5-2.7a73 73 0 0 0 18.7-26.1s1.6 9.5-4.2 20-11.5 13.9-13 15m-30.5 60c-3.1-1.2-2.3-4.3-2.3-4.4l3.8 1.3c1.8.7 6.2 2 8 2s1.7-.2 1.7-.4-1.3 0-3.8-.5-7-2.8-7.7-3.3q-1.2-.7.4-.7 1.9-.3 2.5-1c.5-.3 1.6.2 4.5.9a53 53 0 0 0 23 .8c.6-.2 1.4.2-.8 3.9s-10 5.7-15.3 5.6c-5.4 0-10.8-3-14-4.1zm14.3-7.6c-5.5 0-7.6-1.6-7.6-1.6s0-.3.8-1.4.6-3 .6-3l3.6.5q3.5.8 8 .2c4.5-.6 1.7-.9-.7-.6s-6.9-.6-8.3-1c-1.5-.6-.9-1 .1-1.4s3.7-2 3.7-2 6.7.8 13 .1 10.2-2.3 11.5-2.5c1.2-.2 1.2.3 1.2.3s.3.6-1.8 4a18 18 0 0 1-10 6.6 54 54 0 0 1-14 1.8zm1.5-13 .5-1.4c.4-1.2-.6-2-.6-2s1.3-.4 5.4-1c4.2-.4 4.4-.8 7-1.3s4.2-1.3 4.1-1.6q0-.3-2.3.7c-1.5.5-7.9 1.2-10.6 1.6q-3.9.6-4.6.4c-.5-.3-2.1-.7-2.1-.7l2.5-.6a9 9 0 0 0 3.4-1.4c.8-.5 1-.6 4.4-1s6.1-1.5 12.2-3.7 10.6-4.8 11.9-5.8c1.2-1 1.1-.3.8 1-.4 1.2-.3 2.8-3.4 6.4-3 3.6-4.5 5.1-12.3 8s-16.3 2.4-16.3 2.4m22.8-18.8a43 43 0 0 1-16.5 6.8c-.4-.4.4-2 0-3-.4-1.2-1.1-1.2-2.8-1.3-1.6 0-.6-.4-.2-.4s.5 0 3.2-.8c2.7-.7 5.5-1 9.3-2.5 3.7-1.4 4.9-2.5 4.8-2.7s-1.8.9-5.2 2.2-7.6 1.8-9.8 2.3-.3-.5.8-1.1c1-.6 2.5-2.9 2.5-2.9s2.4-.4 6.4-1.6q5.8-1.7 10.7-4.5 1.7-1 3.4-2.3l5.5-4c1.4-1 1-.2.8.4s-1 3.5-3.2 6.6-2.9 4-9.7 8.8m1.1-13.5c-6.7 5.3-12.5 7-13.5 7.4s-.9-.1-.7-.7.3-2.4.3-2.4l5.1-3c2.7-1.5 5.7-3.6 7.6-5 2-1.3.8-1.2.2-.7s-3.3 2-6 3.8l-7 4.1s0-.9-.6-1.4c-.5-.6-2-.4-2-.4l1.2-1.4c.4-.7 2.6-1.4 5.1-2.6a62 62 0 0 0 10.3-7.2c3.3-2.8 9.7-9.8 10-10.3q.8-.9.8.2c0 1.1.3 1.2-.4 4.4s-3.7 9.9-10.4 15.2M361 179.3l-2.2 3.8-1.4 2.5q-.2 0 0-1.5v-3.7l-.3-2.4q.1-1.4.5-2l1.6-7.7c.5-2.7 1-6.7 1-10.2s-.6-1.7-.6 0-.2 4.3-.7 8.3-2.2 10-2.2 10-.1-.9-.7-2.2q-.8-2.1-2-4.5c-1.2-2.4-.4-2-.4-2s2.4-11.3 3-16.6 1.6-19.4 1.6-19.4c3.5 3.5 6 12.6 6.5 21.3.4 6.5-.7 12.5-1 15q-.8 7.2-2.7 11.3m7.7 17.8q0-4-2.4-5s1.5-2.6 2.7-6.3a35 35 0 0 0 2-8.2c1-6 1.6-12.3-.2-2a44 44 0 0 1-4 13.8l-2.6 4.3c.4-2 .5-3.2.4-5.3a34 34 0 0 0-1-7s3.2-6.3 5.2-13.9a88 88 0 0 0 3.4-24.1s3.2 2.4 4.3 14.8a74 74 0 0 1-3.8 28.8c-1.6 4.5-4 10-4 10zm-35.5 94.5 2-1.3c1.6-1 1.1-4 1.1-4l5.5 3.4 3.3 1.3c1 .3.7 0-.1-.5s-1-.8-3.1-1.6c-2-.8-6.2-4.4-6.2-4.4l2.7-.1c1.7-.1 3.8-1 3.8-1s1.7 1.6 8.5 4.5c6.9 3 12.7 3.7 12.7 3.7s-.8 3.5-4 4.7c-2.8 1.1-6.5 1.9-13.8.1a47 47 0 0 1-12.4-4.8m-9 7c-.5-2.9 1.1-4.9 1.1-4.9l1.4 1.1c1 1 2.5 2.7 5.4 4.1 2.8 1.5 3.9 1.4 1.1-.1s-6.8-5.7-6.8-5.7l1-.4c1.1-.4 3 .3 10.7 4.9a29 29 0 0 0 12.2 4.8s-3.5 4.1-12.8 3.8-12.7-4.7-13.3-7.6m-17.6-3.4s1 1.5 2.4 2.4c1.4 1 5 1.5 5 1.5l1 1.3c.7 1 2.3 3.2 3.9 4.3 1.6 1.2 4.2 2 4.4 1.7.1-.3-1.5-1-3.1-2s-3-2.7-4.1-4 .4-1 .4-1h3.8c1.8-.2 1.4 0 2 .8q.6 1.1 2.5 3.2l4.7 5.4c1 1.3.3 1.6.3 1.6s-.5.8-4.7 1.3c-2.5.2-5.3 0-8.2-1.8a25 25 0 0 1-5.6-4.8c-5-5.4-4.7-9.9-4.7-9.9m-2.2 11.3 1.6 1.9s-.7-2.2-1.4-3.3l-.9-1.4a28 28 0 0 0 1.7-5c.4 1.5 1.8 5.8 3.6 8.6 2.2 3.5 4 4.7 2.8 5.6-1.2 1-3.6 1.2-6.3-.2s-3.4-3.5-3.8-5.3l1.3-2.3q.5.3 1.4 1.4"/>
  <ellipse cx="-305" cy="169.2" fill="#d4af3a" rx="1.9" ry="1.8" transform="scale(-1 1)"/>
  <path fill="#d4af3a" d="M309 165.9c-1.7 0-2.7-.9-4.6-.7a28 28 0 0 0-9 3.6 16 16 0 0 1-10.5.9q-1.5-.6-3-1.5c-4.6-2.5-3.5-7.6-3.5-7.6a18 18 0 0 0 11.3 3.5l-1 .8c-.6.7-1.8 1.5-1.4 1.8s2-1.3 3.4-2.3a21 21 0 0 1 7-3.4c3.5-1 7.4-1.1 10 .3 2.7 1.5 3 3.3 2.6 4q-.3.7-1.3.6m-49.3 37c.8-.2 2.2-.5 4-2.2a78 78 0 0 0 6.8-7.3q.9-1.5-1-2.3c-1.2-.5-2.1-2-2.1-2s2.7-1.1 4.5-2.4c1.9-1.4 6.1-5.2 6.7-6.1.6-1 .3-1.1-.6-1.4s-1-1-1-1 1.9-1.1 3.7-2.6l4.3-4c2.8 1.2 7 .7 9.4.3 4.1-.7 7.1-2.4 7.1-2.4l.7 1.9c.5 1.3 2.4 2 4.3.7 1.9-1.2 1.4-4 1.4-4s1.6-.9 4.7-2q4.6-1.9 8.3-.2c2.5 1.2 3.8 4.7 3.8 7.3 0 2.7-1.4 1.6-1.7 1.2s-.9-2.3-4.1-2.8-6.1 1-9.8 4-4.5 3.3-6.3 5.2-.4 3 2.8 4 7.2-1 7.3-1c.6.3-1.4 3.1-4 4.2-2.8 1-6.3.3-9-.7-1.8-.8-2.1 0-2.6.5-3 3.2-3.8 6-4.3 9.7a4 4 0 0 1-2.8-3.3c0-.6-.3-1.9-1.3-1s-1.8 6.3-1.8 8.7c0 2.5.7 5.7.7 5.7l-.7-.1q-.7-.2-2.5-1.2c-1.2-.7-1.3 0-1.3 1.4s-.4 3.8-2.2 8.3c-1.7 4.4-4.3 5.9-4.3 5.9s-.5-.9-1-2.7c-.5-1.7-.9-5.2-.9-8.2s.8-9.4.8-9.4-3.6 4.4-7.4 5.5-7.6.5-9.2-1.4-.2-2.6.6-2.8"/>
  <path fill="#d4af3a" d="M284.8 214.5s1.1 2.5 1.7 3.4c.7 1 1 1 1 1s-1.2 1-2.9 1.6l-3.2.8s2-2.6 2.6-4.4zm-22.9-1.5.9-2.3a16 16 0 0 0 8.7-1.8s-1.8 3.6-3.5 4.8c-1.8 1.3-2 1.3-2 1.3s1.7.3 4.1-2 3.4-5 3.4-5-.5 6.2.4 10l1.2 4.2s-5 1-10.5-.6-6-2-6-2-.7-.2.2-1.4a30 30 0 0 0 3.1-5.2"/>
  <path fill="#b96b29" d="m272 199.4 1.8-2.4s.6.6.1 1.4c-.5.9-3 3-4.6 4a13 13 0 0 1-3.3 1.2v-.3s4.2-2 6-3.9m6.7 12.9.4-9c0-1 .7-.8.7-.8l.9.4-1.7 11.3c-.1 1.2-.7 1.1-1 1 .6-.2.7-2.6.7-3zm10.4-33.6c.7-.6 2.1-1 .7.5-1.3 1.5-3.1 3.4-3.7 5-.5 1.6-.8 3.5 0 3 1-.3 1.6-.3 2.6-1.1s2.7-2.1 3.5-2.3c.7-.3 2 0 1 1.1a26 26 0 0 1-4.3 3.7l-4.2 2.9-2 1.4s.9-6.4 2.6-9.1a28 28 0 0 1 3.8-5zm34.2 105.9c1.3 1 3 1.4 3 1.4s.7 0 .7.2-.9 0-1.9-.2c-1-.1-2.3-1.1-2.7-1.5s-1.2-.8-1-1.4.6.5 1.9 1.5m-11 5.9 2.4 1.9 1.3.7 1 .7h-1c-.8-.1-3-1.8-3.6-2.5q-1.1-.8-.8-1 .4-.4.7.2M357 211q-.8 1-1.1 1-.4-.3.5-1.2l.9-.9s.7-1.2 1.1-1.6 1.1-.7.3.3l-1.8 2.4zm3.3 7.4L359 220q-.8 1.1-1.2 1c-.3-.4.8-1 1.2-1.7l1.5-1.5 1.4-.9-1.5 1.7zm-1.2 12c-.9 1-2.1 1.2-2.3.8q-.3-.4.8-1a24 24 0 0 0 4-2.7q.6-.7 1-.6c.1.1-1.2 1.5-1.6 1.8l-2 1.7zm-2.5 9.7q-.2-.6.7-.6l1.6-.2s1.4-.5 1.5-.3-1.1.8-1.7 1q-.9 0-1.5.4-.5.2-.6-.3m-1 10.4c1.5 0 2.8-.4 2.9-.1q-.1.3-1.5.8c-.8.3-2.2.4-3.1.4q-1.4 0-1.1-.7c0-.4 1.3-.4 2.8-.4M343.8 262q.4-.2 1.6.2c.9.2 2.2.4 3 .4l2.5-.1 1 .2q-.2.2-3.1.4c-1.9.2-3.1-.2-4-.3q-1.3-.3-1-.8m-4.9 8.2 2.4.4 2.3.3s.8.1.7.4-.4 0-1 0h-2.6l-2.7-.6c-.7-.1-1.6-.5-1.2-1s1.2.1 2.1.5m-9.4 6.1 3.7 2.7q1 .5.7.8c-.2.2-.7-.3-1.1-.5l-2.7-1.8c-.7-.6-1.7-1.1-1.5-1.6q.1-.4.9.5zm15.7-79.7-1.8 2.4c-1.6 2-.7.2-.3-.4l3.6-4.8c.8-1 1-.5.5.1zm3.5 10.5c-.3-.3.3-.5 1.2-1.7l2.8-3.5s.5-1.1.7-1-.6 1.9-1.4 2.6-1.7 2.2-2.3 2.9q-.7 1-1 .7m-4.6 19.7c0-.6 1.9-.5 2.7-.7l2.4-.5s1.7-.3 1.8 0q0 .3-1.4.5-1.7.5-3.5.8c-1 .2-2 .4-2-.1m4.6-10.7q-1.8 1.4-2.7 1.8c-.7.4-1.2 1-1.5.5q-.4-.5 1.3-1.2l1.6-.8 1.1-.6c.5-.3 1.4-.7.2.3m-10.6-7 1.4-1s1-.8 1.1-.5-1 1.1-1.6 1.6-1.6 2-2.2 1.8c-.5-.3.6-1.2 1.3-1.9m7 27.5 1.6.4q1.2.4-.5.5c-1.7.1-1.7-.3-2.9-.5q-1.7-.3-1.4-.8t1.3-.1zm-2 9.9c.1.2-.8 0-1.4-.2s-1.9-1-2.7-1.1q-.9-.3-.7-.8c0-.5.8-.1 1.8.2s2.2 1.3 2.2 1.3.8.4.9.6zm-12.7 6q-1.3-.8-.8-1.2.4-.5 1.3.4l2 1.5 1.3.6c.5.3 1.2.7 1 1-.1.2-1.2 0-1.8-.6zm-6 8-2-1c-.4-.4-.7-1.4-.3-1.6.3-.1.6.5 1.4 1 .8.7 3.7 2.6 3.7 2.6l.8.3c.8.3.4.6-.2.5q-1 0-2-.7zm-9 7.6c-.7-.3-1.8-1.3-2.4-1.8s-1.2-1.1-.8-1.4q.6-.4 1.5.6l2.2 2.3s.3 0 1.1.8c1 .7 0 .6-.3.3s-.5-.5-1.3-.8"/>
  <path fill="#d4af3a" d="m279 154.5-3.6-2.5 4.3-1.1 2.7 2.2z"/>
  <ellipse cx="-267.5" cy="151.6" fill="#b96b29" rx="3.4" ry="3.3" transform="scale(-1 1)"/>
  <ellipse cx="-267.5" cy="150.8" fill="#d4af3a" rx="2.1" ry="2" transform="scale(-1 1)"/>
  <path fill="#d4af3a" d="M274.7 140.2c-1 .3-2 .2-2 .2s-.4-1.6.4-2.3l2.1-1.8.6-.6.1 2.1c0 .8-.3 2-1.2 2.4"/>
  <circle cx="-272.8" cy="141.8" r=".6" fill="#d4af3a" transform="scale(-1 1)"/>
  <path fill="#d4af3a" d="m277.5 141.2.9 1s-.7 0-1.3.4q-1 .7-2 .7a1 1 0 0 1-.8-1.2q0-.8 1.6-1.3c1-.4 1.4 0 1.6.4"/>
  <path fill="#d4af3a" d="M275.1 145.2c2.2.2 5-2.2 5-2.2q.5 3 3.3 3.3h-.2s-1.7 1-3.7 1.2q-1.3.2-2.6-.2a11 11 0 0 1-3.2-1c-1.3-.8-1-2.9-1-2.9s.3 1.6 2.4 1.8m8.4-2.1q1.7-.8 2.8-1c.5 0 1.3-.2 1.2.8s-1.2 1.5-2.2 1.6q-1.4-.1-2.2-.7-1-.4.4-.7m6.8-3.7q1.7-1 1.8-.9c.1.1.6 1.7.3 2.7s-1.1 1.3-2 1.3c-1 0-2.3-.5-2-1.2q.6-1 1.9-2z"/>
  <ellipse cx="-289.4" cy="144.1" fill="#d4af3a" rx=".8" ry=".5" transform="scale(-1 1)"/>
  <path fill="#d4af3a" d="M287.3 135.8c.6-2.9.5-6-2.2-9.9s-7.3-5.5-7.3-5.5l-1.7-1.9a33 33 0 0 0-4.5-3.6l5.5 1.5v.1a2.4 2.4 0 0 0 2.4 2.5 2 2 0 0 0 1.4-.4c1.1.2 4.7 2.3 5.7 3.1l-.4 1.3a2.4 2.4 0 0 0 2.4 2.5l1.1-.3.3.5 1.8 4a3 3 0 0 0-1 2.1c0 1.4.8 2.5 2 2.5v1.6q.2 1.2-1.8 1.7c-1.4.4-3.3 2.8-3.3 2.8-.1 0-1-1.8-.4-4.6"/>
  <path fill="#d4af3a" d="M278.8 117.6q-.8-.7-.2-1.4.7-.5 1.6.1c.9.6.6 1 .2 1.4q-.7.5-1.6-.1m9 6.1q-1-.9-.2-1.8.8-.7 1.8.2 1 1 .2 1.7-.7.7-1.8 0z"/>
  <circle cx="-293.2" cy="131.4" r="1.4" fill="#d4af3a" transform="scale(-1 1)"/>
  <path fill="#d4af3a" d="M263 112q1.2.2 4.1 1.7c-1.4 0-2.5.9-2.5 2s1.3 2.4 2.7 2.4 2.3-1.2 2.3-2.3q0-.5-.2-.8l2 1.2c4.4 3 5.4 4.5 7.6 8.5s3 8.6 2 11.2c-.9 2.7-4.4 3.2-4.4 3.2s.4-.4.4-.9l-.2-1.7c-.2-1 0-2.2 0-2.2s-.9-.1-1.3.4l-1.6 1.8-1.6 1.6s-.7-1-.7-2.2.8-2.5 1-4.6-1-5.8-3-8.6a24 24 0 0 0-7-5.7 2 2 0 0 1-1.5-2l-.2-2c-.1-1.3 1-1.2 2.2-1z"/>
  <path fill="#d4af3a" d="M267.5 116.8q-1.4-.2-1.5-1.4.1-1 1.4-1.1 1.3.1 1.4 1.1 0 1.2-1.3 1.4m-6.6 26a3 3 0 0 1-2.8-.2q-1-.8-.1-1.9a2 2 0 0 1 2.3-.2l2 1.4s-.3.5-1.4.9"/>
  <path fill="#d4af3a" d="M257.5 144c.4.6.6 1 1.8 1s2.5 0 3.3-.8l1.3-1.9h1.3s.5 1.9 1 2.4c.7.5 2.7.6 3.6 0 1-.8 1.7-1.6 1.9-1.5q.3.3-1 1.6c-1.3 1.3-1.5 1.3-3 1.3h-8.5s-1.7.1-2.2-1q-.7-1.5-.3-1.9.2-.2.8.8"/>
  <path fill="#d4af3a" d="M270.4 142.6c-1.3.7-2 .2-2.4-.3l-.6-.9s1.2-.4 1.8-.8q.8-.5 1.6-.6l.6.2s.3 1.6-1 2.4"/>
  <circle cx="-276.6" cy="130" r="2.8" fill="#b96b29" transform="scale(-1 1)"/>
  <path fill="#b96b29" d="M271.6 120.2a3 3 0 0 1 3.8.7c.9 1.2.7 2.7-.4 3.5a3 3 0 0 1-3.7-.7c-1-1.2-.8-2.7.3-3.5"/>
  <circle cx="-276.7" cy="129.6" r="1.6" fill="#d4af3a" transform="scale(-1 1)"/>
  <path fill="#d4af3a" d="M272.8 120.5q1.4-.2 2 .8.6 1.2-1 1.6c-1.8.3-2.6-2-1-2.4"/>
</svg>
