<?xml version="1.0" encoding="UTF-8" standalone="no"?>
<svg xmlns="http://www.w3.org/2000/svg" height="512" width="512">
    <g fill-rule="evenodd" stroke-width="1pt">
        <path fill="#c4272f" d="M0 0h511.983v512H0z"/>
        <path fill="#015197" d="M170.666 0h170.666v512H170.666z"/>
    </g>
    <g fill-rule="evenodd" fill-opacity=".867" fill="#f9cf02">
        <path d="M83.133 189.458c7.41.215 8.55-2.356 8.55-4.926v-8.783c0-1.072 2.85-2.143 2.85-4.07 0-1.93-1.425-4.07-1.995-5.356-.855 3.213-2.28 6.426-4.845 7.498-1.14-2.57-1.425-3.428-.855-4.713.57-1.286 0-3.214-1.14-5.142-.855 4.07-3.42 5.14-3.705 6.426-.285 1.285-1.14 4.927-2.85 3-1.71-1.93-2.85-4.285-3.705-6.856-1.71 5.14-.855 6.212-.285 7.07.57.856 1.14 3.426 1.14 4.497 0 1.07-1.14 5.355-.57 6.64.57 1.286.855 5.14 7.41 4.713zM103.757 208c0 7.757-8.367 14.045-18.688 14.045S66.38 215.757 66.38 208s8.367-14.046 18.687-14.046 18.687 6.29 18.687 14.046z"/>
        <path d="M111.137 213.55c-9.866 13.783-28.866 17.614-42.955 8.374-3.714-2.435-6.43-5.162-9.014-8.654 2.33 9.91 9.394 16.923 19.168 19.427 14.386 3.685 29.082-4.893 32.8-19.148zM56.475 322.148h55.6v11.567h-55.6zM59.193 240.4l24.796 15.047 25.08-15.046H59.192zM59.193 256.69h50.16v11.568h-50.16zM59.193 341.127l24.796 11.78 25.08-11.78H59.192zM21.67 240.57h24.204v111.84H21.67zM121.238 240.57h24.204v111.84h-24.204zM67.146 279.857c7.4-5.477 18.457-9.58 22.432-5.14 3.997 4.592 4.946 8.694 4.07 12.385-1.182 3.204-6.495 7.03-10.42 5-4.513-2.13-11.71 5.25-12.537 9.323-1.077 4.347-1.183 9.515.058 14.31-11.82-13.78-12.624-29.726-3.6-35.88zm20.098 6.81c-2.04 1.2-5.005-.02-6.62-2.72-1.616-2.7-.376-3.704 1.662-4.903 2.04-1.198 4.108-2.14 5.724.56 1.616 2.7 1.272 5.864-.766 7.062zm11.418 24.478c-7.308 5.612-19.347 7.78-23.363 3.388-4.04-4.545-.695-10.283.132-14 1.14-3.232 6.4-6.063 10.338-4.087 4.52 2.064 11.78-6.035 10.922-11.225 1.022-4.376-.38-5.12-2.51-11.544 11.945 13.64 13.396 31.154 4.48 37.47zm-16.285-8.64c2.016-1.234 4.443-.603 6.085 2.08 1.643 2.684 1.53 4.793-.485 6.028-2.018 1.234-5.18 1.13-6.822-1.553-1.643-2.684-.795-5.32 1.222-6.555z"/>
    </g>
</svg>
