<svg viewBox="0 0 512 512" xmlns="http://www.w3.org/2000/svg"><path d="m0 0h512v512h-512z" fill="#c4272f"/><path d="m170.7 0h170.6v512h-170.6z" fill="#015197"/><circle cx="85.6" cy="215.3" fill="#f9cf02" r="28"/><circle cx="85.6" cy="202.5" fill="#c4272f" r="30.5"/><g fill="#f9cf02"><path d="m73 169.5a12.7 12.7 0 0 0 25.3 0c0-5.1-3.1-5.8-3.1-7.7s1.9-4.4-2-7.6c2 3.2-1.2 3.8-1.2 7s1.2 3.2 1.2 5.7a2.5 2.5 0 0 1 -5 0c0-2.5 2.5-5 2.5-8.9 0-3.8-.6-5-2.5-8.2-2-3.2-5.1-5.8-2.6-8.3-3.8 1.3-1.9 6.4-1.9 9.5 0 3.2-2.5 5.1-2.5 9 0 3.7 1.9 4.4 1.9 7a2.5 2.5 0 0 1 -5.1 0c0-2.6 1.3-2.6 1.3-5.8s-3.2-3.8-1.3-7c-3.8 3.2-1.9 5.7-1.9 7.6 0 2-3.2 2.6-3.2 7.7z" fill-rule="evenodd"/><circle cx="85.6" cy="207.6" r="20.4"/><path d="m29.6 248.3v122.2h25.5v-122.2zm86.6 0v122.2h25.4v-122.2zm-56 20.4v10.2h50.8v-10.2zm0 71.3v10h50.8v-10zm0-91.7h50.8l-25.5 15.3zm0 107h50.8l-25.5 15.2z"/><circle cx="85.6" cy="309.4" r="27" stroke="#c4272f" stroke-width="3"/></g><path d="m85.6 282.4a13.5 13.5 0 0 1 0 27 13.5 13.5 0 1 0 0 27" fill="none" stroke="#c4272f" stroke-width="3"/><circle cx="85.6" cy="295.9" fill="#c4272f" r="5.1"/><circle cx="85.6" cy="322.9" fill="#c4272f" r="5.1"/></svg>