<svg xmlns="http://www.w3.org/2000/svg" height="512" width="512">
    <g fill-rule="evenodd">
        <path fill="#d61517" d="M0 0h511.983v512h-511.983z"/>
        <path fill="#018edf" d="M170.666 0h170.666v512h-170.666z"/>
    </g>
    <g fill-rule="evenodd" fill-opacity=".867" fill="#ffd700">
        <path d="M83.133 189.458c7.41.214 8.55-2.356 8.55-4.927v-8.782c0-1.071 2.85-2.142 2.85-4.07 0-1.928-1.425-4.07-1.995-5.355-.855 3.213-2.28 6.426-4.845 7.498-1.14-2.57-1.425-3.427-.855-4.713.57-1.285 0-3.213-1.14-5.141-.855 4.07-3.42 5.141-3.705 6.426-.285 1.285-1.14 4.927-2.85 2.999-1.71-1.928-2.85-4.284-3.705-6.854-1.71 5.141-.855 6.212-.285 7.068.57.857 1.14 3.427 1.14 4.498 0 1.071-1.14 5.355-.57 6.641.57 1.285.855 5.141 7.41 4.712z"/>
        <path d="M103.851 207.955c0 7.753-8.374 14.038-18.704 14.038s-18.704-6.285-18.704-14.038 8.374-14.038 18.704-14.038 18.704 6.285 18.704 14.038z"/>
        <path d="M111.137 213.55c-9.866 13.783-28.867 17.614-42.955 8.374-3.714-2.435-6.43-5.161-9.014-8.653 2.33 9.908 9.393 16.923 19.167 19.427 14.387 3.685 29.082-4.893 32.802-19.148z"/>
        <path d="M56.475 322.148h55.601v11.567h-55.601z"/>
        <path d="M59.193 240.401l24.795 15.046 25.08-15.046h-49.875z"/>
        <path d="M59.193 256.691h50.161v11.567h-50.161z"/>
        <path d="M59.193 341.127l24.795 11.781 25.08-11.781h-49.875z"/>
        <path d="M21.671 240.57h24.204v111.841h-24.204z"/>
        <path d="M121.238 240.57h24.204v111.841h-24.204z"/>
        <path d="M67.146 279.857c7.4-5.477 18.456-9.58 22.432-5.14 3.996 4.593 4.946 8.695 4.07 12.386-1.183 3.203-6.496 7.029-10.422 4.998-4.511-2.128-11.709 5.25-12.536 9.325-1.078 4.347-1.184 9.515.057 14.309-11.82-13.781-12.624-29.725-3.601-35.878zm20.098 6.81c-2.039 1.199-5.005-.02-6.62-2.719-1.616-2.7-.376-3.705 1.662-4.904 2.039-1.198 4.108-2.139 5.724.561 1.616 2.7 1.272 5.864-.767 7.062zm11.418 24.479c-7.308 5.612-19.347 7.779-23.363 3.388-4.038-4.545-.695-10.283.133-14 1.139-3.232 6.4-6.062 10.338-4.087 4.521 2.064 11.781-6.035 10.923-11.224 1.022-4.378-.38-5.123-2.511-11.545 11.946 13.641 13.396 31.154 4.481 37.469zm-16.285-8.64c2.017-1.235 4.443-.603 6.086 2.08 1.643 2.683 1.531 4.792-.486 6.028-2.017 1.234-5.179 1.13-6.822-1.554-1.643-2.683-.795-5.319 1.222-6.554z"/>
    </g>
</svg>
