<?xml version="1.0" encoding="UTF-8" standalone="no"?>
<!-- Created with Sodipodi ("http://www.sodipodi.com/") -->
<svg id="svg378" xmlns:rdf="http://www.w3.org/1999/02/22-rdf-syntax-ns#" xmlns="http://www.w3.org/2000/svg" height="512" width="512" version="1.1" xmlns:cc="http://creativecommons.org/ns#" xmlns:dc="http://purl.org/dc/elements/1.1/">
 <metadata id="metadata3619">
  <rdf:RDF>
   <cc:Work rdf:about="">
    <dc:format>image/svg+xml</dc:format>
    <dc:type rdf:resource="http://purl.org/dc/dcmitype/StillImage"/>
   </cc:Work>
  </rdf:RDF>
 </metadata>
 <g id="flag" fill-rule="evenodd" transform="matrix(.50106 0 0 1 0 15.937)" stroke-width="1pt">
  <rect id="rect171" height="512" width="1021.8" y="-15.937" x="0" fill="#d61517"/>
  <rect id="rect403" height="512" width="340.61" y="-15.937" x="340.61" fill="#018edf"/>
 </g>
 <g id="g6961" fill-rule="evenodd" fill-opacity=".86667" fill="#ffd700" transform="matrix(.58220 0 0 .58220 -17.756 118.89)">
  <path id="path226" d="m173.29 121.21c12.727 0.36775 14.685-4.0474 14.685-8.4625v-15.085c0-1.8395 4.8948-3.6789 4.8948-6.9908 0-3.3112-2.4474-6.9901-3.426-9.198-1.4688 5.5191-3.9162 11.038-8.3227 12.878-1.9581-4.4151-2.4474-5.8868-1.4679-8.0948 0.97858-2.2072 0-5.5184-1.9581-8.8295-1.4688 6.9901-5.8744 8.8303-6.3637 11.037-0.49025 2.2072-1.9581 8.4625-4.8958 5.1506-2.9367-3.3112-4.8948-7.3578-6.3637-11.773-2.9377 8.8295-1.4688 10.67-0.48929 12.141 0.97858 1.4717 1.9581 5.8868 1.9581 7.7263 0 1.8394-1.9581 9.198-0.97955 11.406 0.97955 2.2072 1.4688 8.8295 12.728 8.094z" stroke-width="1pt"/>
  <path id="path227" d="m221.01 236.08c0 21.656-17.556 39.212-39.212 39.212s-39.212-17.556-39.212-39.212 17.556-39.212 39.212-39.212 39.212 17.556 39.212 39.212z" transform="matrix(.81858 0 0 .61524 27.799 7.811)" stroke-width="1pt"/>
  <path id="path232" d="m221.39 162.59c-16.946 23.674-49.582 30.254-73.781 14.383-6.3789-4.1821-11.044-8.8652-15.482-14.863 4.0021 17.019 16.134 29.067 32.922 33.368 24.711 6.3293 49.952-8.405 56.341-32.889z" stroke-width="1pt"/>
  <rect id="rect233" height="19.868" width="95.502" y="349.12" x="127.5" stroke-width="1pt"/>
  <path id="path235" d="m132.17 208.71 42.589 25.843 43.078-25.843h-85.667z" stroke-width="1pt"/>
  <rect id="rect249" height="19.868" width="86.157" y="236.69" x="132.17" stroke-width="1pt"/>
  <path id="path250" d="m132.17 381.72 42.589 20.235 43.078-20.235h-85.667z" stroke-width="1pt"/>
  <rect id="rect251" height="192.1" width="41.573" y="209" x="67.72" stroke-width="1pt"/>
  <rect id="rect612" height="192.1" width="41.573" y="209" x="238.74" stroke-width="1pt"/>
  <path id="path633" d="m145.83 276.48c12.711-9.4076 31.701-16.454 38.53-8.8294 6.8642 7.8882 8.495 14.935 6.9912 21.275-2.0312 5.5019-11.157 12.073-17.901 8.585-7.7486-3.6554-20.111 9.0183-21.532 16.016-1.852 7.4661-2.0338 16.343 0.0979 24.578-20.302-23.67-21.683-51.057-6.1855-61.625zm34.52 11.697c-3.5018 2.0594-8.5961-0.0335-11.371-4.6705-2.7756-4.6374-0.64529-6.3632 2.8554-8.423 3.5028-2.0578 7.0568-3.6735 9.832 0.96311 2.775 4.6378 2.185 10.072-1.3167 12.13zm19.612 42.045c-12.552 9.6391-33.231 13.361-40.128 5.819-6.9364-7.8068-1.1931-17.662 0.22792-24.047 1.9565-5.552 10.993-10.413 17.756-7.0203 7.7654 3.5459 20.235-10.365 18.761-19.279 1.755-7.5194-0.65304-8.7987-4.313-19.83 20.519 23.43 23.01 53.51 7.6966 64.357zm-27.972-14.84c3.4642-2.1209 7.6313-1.036 10.453 3.5731 2.8218 4.6091 2.6293 8.2312-0.83435 10.353-3.4647 2.12-8.8954 1.9407-11.717-2.6684-2.8218-4.6091-1.3657-9.1367 2.0984-11.258z" stroke-width=".625"/>
 </g>
</svg>
