<svg xmlns="http://www.w3.org/2000/svg" height="512" width="512"><g fill-rule="evenodd" transform="matrix(.501 0 0 1 0 15.937)"><rect height="512" width="1021.8" y="-15.937" fill="#d61517"/><rect height="512" width="340.61" y="-15.937" x="340.61" fill="#018edf"/></g><g fill-rule="evenodd" fill-opacity=".867" fill="#ffd700" transform="matrix(.582 0 0 .582 -17.756 118.89)"><path d="M173.29 121.21c12.727.368 14.685-4.047 14.685-8.463v-15.085c0-1.839 4.895-3.679 4.895-6.991 0-3.311-2.447-6.99-3.426-9.198-1.469 5.519-3.916 11.038-8.323 12.878-1.958-4.415-2.447-5.887-1.468-8.095.979-2.207 0-5.518-1.958-8.829-1.469 6.99-5.874 8.83-6.364 11.037-.49 2.207-1.958 8.463-4.896 5.151-2.937-3.311-4.895-7.358-6.364-11.773-2.938 8.829-1.469 10.67-.489 12.141.979 1.472 1.958 5.887 1.958 7.726 0 1.839-1.958 9.198-.98 11.406.98 2.207 1.469 8.829 12.728 8.094z"/><path d="M208.713 153.057c0 13.324-14.371 24.125-32.098 24.125s-32.098-10.801-32.098-24.125 14.371-24.125 32.098-24.125 32.098 10.801 32.098 24.125z"/><path d="M221.39 162.59c-16.946 23.674-49.582 30.254-73.781 14.383-6.379-4.182-11.044-8.865-15.482-14.863 4.002 17.019 16.134 29.067 32.922 33.368 24.711 6.329 49.952-8.405 56.341-32.889z"/><rect height="19.868" width="95.502" y="349.12" x="127.5"/><path d="M132.17 208.71l42.589 25.843 43.078-25.843h-85.667z"/><rect height="19.868" width="86.157" y="236.69" x="132.17"/><path d="M132.17 381.72l42.589 20.235 43.078-20.235h-85.667z"/><rect height="192.1" width="41.573" y="209" x="67.72"/><rect height="192.1" width="41.573" y="209" x="238.74"/><path d="M145.83 276.48c12.711-9.408 31.701-16.454 38.53-8.829 6.864 7.888 8.495 14.935 6.991 21.275-2.031 5.502-11.157 12.073-17.901 8.585-7.749-3.655-20.111 9.018-21.532 16.016-1.852 7.466-2.034 16.343.098 24.578-20.302-23.67-21.683-51.057-6.186-61.625zm34.52 11.697c-3.502 2.059-8.596-.034-11.371-4.67-2.776-4.637-.645-6.363 2.855-8.423 3.503-2.058 7.057-3.674 9.832.963 2.775 4.638 2.185 10.072-1.317 12.13zm19.612 42.045c-12.552 9.639-33.231 13.361-40.128 5.819-6.936-7.807-1.193-17.662.228-24.047 1.956-5.552 10.993-10.413 17.756-7.02 7.765 3.546 20.235-10.365 18.761-19.279 1.755-7.519-.653-8.799-4.313-19.83 20.519 23.43 23.01 53.51 7.697 64.357zm-27.972-14.84c3.464-2.121 7.631-1.036 10.453 3.573 2.822 4.609 2.629 8.231-.834 10.353-3.465 2.12-8.895 1.941-11.717-2.668-2.822-4.609-1.366-9.137 2.098-11.258z"/></g></svg>