<svg xmlns="http://www.w3.org/2000/svg" id="flag-icon-css-mp" width="512" height="512">
  <defs>
    <clipPath id="a">
      <path fill-opacity=".67" d="M248.03 0h496.06v496.06H248.03z"/>
    </clipPath>
  </defs>
  <g clip-path="url(#a)" transform="translate(-256) scale(1.0321)">
    <path fill="#0071bc" fill-rule="evenodd" d="M0 0h992.13v496.06H0z"/>
    <path fill="#fff" fill-rule="evenodd" stroke="#000" stroke-width="1.92" d="M553.43 392.43s17.5-18.5 34.31-14.97c5.05-19.51 24.06-21.02 24.06-21.02s-1.85-21.53 22.53-26.24c.68-14.64 15.48-26.75 15.48-26.75s-3.03-22.7 12.45-27.92c-9.42-18 3.2-31.12 3.02-31.45-.16-.34-15.98-28.43-1.85-36.5-14.97-12.62-10.09-26.92-10.09-26.92s-16.31-4.2-10.43-23.71c-13.45-2.36-16.14-24.06-16.14-24.06s-20.7 4.21-23.22-13.79c-13.62 2.19-15.13-11.27-15.3-11.27-.17 0-27.08 7.24-32.47-13.12-10.42 5.39-14.97-4.2-14.97-4.2s-14.97 7.4-23.88-6.9c-17.83 11.1-27.75-.5-27.75-.5s-23.38 15.47-31.12 3.53c-13.8 13.96-26.07 7.9-26.07 7.9s-10.43 18.5-27.25 13.8c-3.87 17.15-23.21 17.49-23.21 17.49s2.02 15.14-21.2 19.17c-3.02 17.83-15.13 20.86-15.13 20.86s1.18 17.33-9.76 22.88c3.87 9.75-6.22 21.7-6.22 21.7s10.76 13.45-3.87 28.59c14.13 3.7 3.87 28.09 3.87 28.09s19.5 8.74 7.23 24.9c13.96 4.53 9.59 15.64 9.76 22.2 8.91 4.03 16.82 2.01 12.95 20.01 27.42 3.03 14.46 18.17 14.46 18.17s12.79.5 7.74 10.6c23.38-.51 26.74 17.49 26.74 17.49s21.7-5.72 24.56 2.69c2.86 8.4-9.42 65.1-9.42 65.1s-18.33 0-31.95-14.64c-31.96-.84-24.9-21.87-25.4-21.87s-10.6 3.87-15.81-13.62c-21.37 4.37-20.7-13.62-20.86-13.8-.17-.16-9.59-4.37-6.06-13.28-22.03 2.02-20.35-19.51-20.35-19.51-4.82-1.96-6.61-6.45-5.89-10.93-2.86-1.01-22.37-1.35-12.27-27.08-18.67-11.27-7.07-24.22-7.07-24.22s-25.73-13.3-5.89-28.6c-14.8-21.87 1.18-32.8 1.18-32.8s-20.52-20.86.34-35.66c-3.37-31.62 15.47-39.19 15.47-39.19s-9.92-25.73 16.99-36.5c1.68-26.07 20.52-26.74 20.52-26.74s.5-20.7 30.1-18.67c5.73-18.5 25.91-14.8 25.91-14.8s6.23-22.37 33.64-11.61c13.96-27.25 34.65-13.29 34.65-13.29s13.12-8.58 19.68-5.89c8.33-14.31 26.07-.55 37.53 2.22 4.16-1.62 18.99-12.81 30.43 1.32 15.13-9.93 28.09 7.9 28.09 7.9s20.85-10.6 30.6 13.63c44.25-4.04 37.85 24.9 37.85 24.9s34.82-7.92 27.25 26.73c31.63 2.2 28.43 23.05 28.43 23.05s20.02 15.14 11.27 28.76c17.83.84 11.27 18 11.27 18s13.62 5.21 2.35 26.4c26.07 20.86 5.05 41.55 4.88 41.38-.17-.16 13.96 16.82 1.18 36.34 3.87 30.95-11.78 38.85-11.78 38.85s4.04 20.02-13.45 25.74c-.34 23.54-22.54 26.4-22.54 26.4s5.89 10.23-16.15 21c-.87 15.76-23.88 17.02-23.88 17.02s-2.19 28.93-31.46 21.2c-7.1 23.2-41.37 16.3-42.05 15.97-.67-.34-6.56-49.79-6.56-49.96z"/>
    <path fill="#217900" fill-rule="evenodd" stroke="#000" stroke-linejoin="round" stroke-width="1.92" d="M340.86 114.83c.09 0 7.42 6.36 6.05 15.94-1.37 9.59-6.9 22.91-5.8 32.84.69 3.98.43 11.1.43 11.1s-6.65-9.44-6.73-19.53 7.2-19.7 7.2-27.14-1.32-13.38-1.15-13.21zm-3.64 2.86s-9.62 9.19-10.86 18.11c-.92 4.6-1.27 26.04-1.38 35.56-.21 2.92-1.42 14.44-1.68 18.63-.26 4.2 7.08-7.15 7.5-16.4-.23-9.56-.23-29.71.74-32.74.86-3.9.67-8.2 2.01-12.1 1.77-5.42 3.76-10.97 3.67-11.06z"/>
    <g fill="#ffd200" fill-rule="evenodd" stroke="#ef8a10">
      <path stroke-width="1.92" d="M548.88 87.68s12.47-5.76 16.04-16.48-10.8-10.81-12.7-7.4c-1.9 3.4 1.62 11.88.72 14.12-.9 2.24-5.98 7.66-4.06 9.76z"/>
      <path stroke-width="2.56" d="M438.31 91.59s8.1-11.1 6-22.2c-2.1-11.1-14.7-4.2-14.7-.3 0 3.9 7.2 9.6 7.5 12 .3 2.4-1.5 9.6 1.2 10.5zm-21.9 6.6s8.1-11.1 6-22.2c-2.1-11.1-14.7-4.2-14.7-.3 0 3.9 7.2 9.6 7.5 12 .3 2.4-1.5 9.6 1.2 10.5zm-24.29 7.5s8.1-11.1 6-22.2c-2.1-11.1-14.7-4.2-14.7-.3 0 3.9 7.2 9.6 7.5 12 .3 2.4-1.5 9.6 1.2 10.5zm-17.1 17.09s8.1-11.1 6-22.2c-2.1-11.1-14.7-4.2-14.7-.3 0 3.9 7.2 9.6 7.5 12 .3 2.4-1.5 9.6 1.2 10.5zm-18 16.5s8.1-11.1 6-22.2c-2.1-11.1-14.69-4.2-14.69-.3 0 3.9 7.2 9.6 7.5 12 .3 2.4-1.5 9.6 1.2 10.5z"/>
      <path stroke-width="1.92" d="M398.4 43.18s-10.78 8.5-11.74 19.76c-.96 11.25 13.02 8 14.07 4.24 1.05-3.75-4.35-11.18-4-13.57.36-2.4 4.03-8.84 1.67-10.43zm36-11.1s-10.79 8.5-11.75 19.76c-.96 11.25 13.03 8 14.08 4.24 1.04-3.75-4.36-11.18-4-13.57.36-2.4 4.03-8.84 1.67-10.43zm-134.13 97.16s2.28 13.55 11.68 19.8 13.28-7.57 10.49-10.3-11.9-1.56-13.82-3.02c-1.93-1.46-5.82-7.78-8.35-6.48zm-17.98 46s.12 13.74 8.42 21.4c8.3 7.66 14.3-5.39 11.98-8.52s-11.5-3.42-13.18-5.16c-1.67-1.75-4.51-8.6-7.22-7.72zm41.48 51.4s-4.9-12.84-15.36-17.11c-10.45-4.28-11.52 10.04-8.25 12.16 3.27 2.12 11.97-.81 14.15.24 2.17 1.05 7.23 6.48 9.46 4.7zm-8.62-22.21s8.31-10.94 6.43-22.08c-1.88-11.13-14.61-4.48-14.69-.58-.07 3.9 7.01 9.73 7.27 12.14.25 2.4-1.7 9.56 1 10.52zM574.37 98.77s12.47-5.75 16.04-16.47-10.8-10.82-12.7-7.41c-1.9 3.4 1.62 11.89.72 14.13-.9 2.24-5.98 7.65-4.06 9.75zm37.72 18.82s7.34-11.62 4.5-22.55c-2.84-10.93-14.94-3.2-14.68.69.26 3.89 7.82 9.1 8.28 11.46.46 2.38-.85 9.68 1.9 10.4zm102.97 106.9s-4.92-12.83-15.38-17.1c-10.46-4.26-11.51 10.07-8.24 12.18 3.28 2.12 11.97-.83 14.15.22 2.18 1.05 7.25 6.47 9.47 4.7zm-50.35 7.96s.28-13.73 8.68-21.29c8.4-7.55 14.23 5.57 11.87 8.67-2.36 3.1-11.54 3.27-13.24 5-1.69 1.73-4.62 8.54-7.31 7.62zM656.6 86.8s-12.85-4.88-23 .08-.16 15.29 3.6 14.26c3.76-1.03 7.35-9.48 9.59-10.4 2.23-.93 9.65-1.1 9.8-3.94zm-29.4-24.6s-12.84-4.87-22.98.09c-10.15 4.95-.17 15.28 3.59 14.25 3.76-1.03 7.35-9.48 9.59-10.4 2.23-.92 9.65-1.1 9.8-3.93zM583.4 38.75s-10.89 8.38-11.99 19.62c-1.1 11.24 12.93 8.16 14.03 4.42 1.09-3.75-4.22-11.24-3.83-13.62.38-2.4 4.13-8.8 1.8-10.42zm-28.54-6.86s-4.97 12.8-.08 22.99c4.89 10.18 15.28.27 14.28-3.5s-9.43-7.42-10.34-9.66c-.9-2.24-1.02-9.66-3.86-9.83zM473.9 81.24s8.88-10.48 7.59-21.7c-1.3-11.22-14.36-5.26-14.64-1.37-.28 3.9 6.49 10.1 6.61 12.51.13 2.42-2.19 9.47.44 10.56z"/>
    </g>
    <path fill="#8c8a8c" fill-rule="evenodd" stroke="#000" stroke-width="1.92" d="M522.23 103.74s21.29 1.34 22.33 13.55-5.06 19.65-5.06 19.65 2.68 26.35-18.16 34.09c-22.33 2.68-57.32.6-57.32.6s-10.27 2.53-14.44-18.76c-4.17-21.29-5.36-36.33-5.36-36.33s2.09-11.9 17.12-12.65c15.04-.74 60.74.15 60.89-.15z"/>
    <path fill="none" stroke="#000" stroke-linecap="round" stroke-width="1.92" d="M539.35 136.79s-11.46 14.3-10.27 20.1"/>
    <path fill="#8c8a8c" fill-rule="evenodd" stroke="#000" stroke-width="1.92" d="M524.02 170.28c2.83 2.38 5.5 5.06 6.1 13.85l1.2 17.56 14.88 133.98 13.1 96.92.9 15.03s-3.13 11.02-11.91 11.91c-6.4 13.4-41.1 17.27-44.52 17.12-3.12-.15-14.14-4.76-20.84-4.17-6.7.6-18.3 5.06-23.52 4.32-5.2-.74-16.97-4.76-19.05-13.25-14.6-4.61-16.97-15.78-16.97-15.78l15.78-112.1 15.33-141.72s1.78-18.9 9.38-21.73c7.89-.75 48.68.74 60.14-1.94z"/>
    <path fill="none" stroke="#000" stroke-width="1.92" d="M443.63 364.26l-3.13 99.15m99.45-86.05l8.78 81.73"/>
    <path fill="none" stroke="#000" d="M285.28 312.74l-.33 1.14m412.17-4.73l.33 1.14"/>
    <path fill="none" stroke="#6b18b5" stroke-linejoin="round" stroke-width="1.92" d="M274.24 178.89s6.52 9.03 7.7 14.21c1.16 5.19 3.34 15.4 6.18 19.57 2.84 4.18 19.07 27.43 19.9 37.13.17 6.35-6.69 17.22-16.89 17.39-6.35-.17-22.74-4.35-23.41-18.4-.67-14.04 5.01-14.38 5.68-22.9.67-8.54.84-46.83.84-47z"/>
    <path fill="none" stroke="#6b18b5" stroke-linejoin="round" d="M386.28 55.92s-6.75.48-11.95 3.3c-4.03 2.48-10.85 6.05-15.62 12.66-12.13 9.46-30.37 13.87-36.13 21.72-3.44 5.35-3.23 18.2 5.4 23.64 5.52 3.16 21.7 8.1 29.56-3.56 7.87-11.65 3.19-14.9 7.05-22.53 6.37-17.5 21.6-35.09 21.69-35.23zm163.8-17.06s-5.04-4.52-10.68-6.3c-4.59-1.16-12.23-.65-20.13-1.43-15.23-2.13-30.93-13.15-40.57-11.82-6.24 1.25-15.32 10.34-13.23 20.32 1.57 6.16 8.46 18.62 22.3 16.17 13.86-2.45 13.74-5.48 21.9-8.01 19.93-11.18 40.25-8.9 40.41-8.93zm162.44 157.88c1.14-2.6-.96-7.48-2.44-13.2-1.45-4.51-3.6-11.5-8.88-17.72-6.26-14.05-5.19-33.3-11.43-40.77-4.36-4.63-16.88-7.51-24.24-.44-4.39 4.6-13.07 19.11-3.65 29.55 9.43 10.44 13.54 6.5 20.02 12.09 15.46 10.38 23.03 28.59 30.62 30.49zm-5.54 122.67c2.11-2.92 5.9-8.56 5.44-13.25-.35-3.72 1.7-14.98 1.93-19.9 1.4-15.3 10.98-27.74 8.38-41.04-1.55-6.17-10.58-14.97-20.45-12.4-6.08 1.87-19.61 9.32-16.5 23.03 3.13 13.71 7.56 13.49 10.5 21.52 8.4 16.62 3.02 36.36 10.7 42.04z"/>
    <path fill="none" stroke="#000" stroke-width="1.92" d="M594.29 416.76s-2.6 5 7.79 9.38m12.98-21.16s11.58-2.8 19.37 0m15.17-29.16c0 .2-1.6 5.2 7.59 12.38m-1-25.35s6.79 5 18.17 4.8m-86.66 9.77s.4 13.18-6.39 19.37m29.15-39.74s11.18 2.8 20.37-1.8m51.32-17.56s2.4 3.4 14.78 2.8m-63.1-10.59c.4.2 14.58 4.8 23.56.6m4.79-54.91s.6-.8 5 14.58m5.98-57.91s-.6 8.19-7.19 11.78m49.32-45.33s-9.58 7.79-7.79 10.98m-39.93-16.57s5 8.39-3.2 14.18m-20.96-50.12s8.59-.4 12.38 6.99m-28.55-31.35h6.59m27.55-29.95c0 .2 1.8 1.8-1.6 5.2m-59.7-4.4s4.6 7.19 3.8 15.97m22.76-40.33c2-.2 8.79-3.2 8.79-3.2m-38.34-25.36c-.2 0-2.6 8.99 1.8 12.18M586.1 91.7c0 9.58 7.59 7.19 2.4 16.37M567.53 83.7c-.2 0-11.98 9.19-11.98 10.78m-18.77-15.77s5 5 3.8 11.78M522.2 74.72s-2.6 7.58-5.99 9.58m-20.57-11.58c-.2.4-4.2 8.98-6.99 10.58m-29.35-10.38c.2 0 4 7.99-1 13.78m-7.39-55.11c.2.2.8 6.19-3 11.38m-32.94 2.2c0 .2 1.6 6.78-8.98 8.98m-11.38 51.91c.2.4 10.18 2 10.18 2m-35.14 21.17c.2-.2 12.18-3.8 12.18-3.8m-31.55 18.77c.4 0 8.39 1.4 10.38.4m-15.97 6.99s2.6 1.4.4 14.78m-39.34-49.92l4.8 7.19m-21.17 29.75c0-.2 4.8 7.19 11.18 8.59m26.56 28.95c.2 0 7.79-1.6 8.98-2.4m-12.38 29.55c.2 0-.2-5 5.99-8.39m-14.18 20.77c0 .2 5.79 7.39 9.78 8.39m-13.17 5.39c.6-.2 6.79-5.6 13.98-5.2m-15.98 23.77s.2 6.19 18.57 4.6m-16.77 17.16c0-.2 5.4-12.38 16.37-16.97m-1.59 32.55s1.6-5.2 10.78-8.79m-.6 29.35s6.59-5.4 8.98-6.19m-.79 22.17s4 4.2 13.98-3m-62.11 6.39c1.2-.2 15.77-3.6 20.77 4m-14.97 7.98s15.37-2 17.37-.4m37.54 3.6s-2 4.2 16.97-2.8m6.59 10.39c-3.4 5.79.8 10.38-3.6 12.98m-54.11-5c.6-.4 6.99-2.6 5.99-11.78m-.2 25.56c.8-.2 11.38-4.8 13.58-2.4m7.19 15.78s1.4-9.38 4.4-10.38m11.57 24.55s8.79-.2 12.58-3m4.39-28.74c.2.2 8.19 4.4 25.16.2m-18.77 37.93s2.4 12.18 2.2 14.98"/>
    <g fill="#de2010" fill-rule="evenodd" stroke="#000" stroke-width="1pt">
      <path d="M232.84 119.03c0-2.1-.8-4.06-2.09-5.11-1.3-1.06-2.88-1.06-4.18 0s-2.09 3-2.08 5.11c0 2.1.79 4.06 2.08 5.11 1.3 1.06 2.89 1.06 4.18 0s2.1-3 2.09-5.11z" transform="matrix(1.84875 -.23108 .23809 1.90478 237.27 58.34)"/>
      <path d="M232.84 119.03c0-2.1-.8-4.06-2.09-5.11-1.3-1.06-2.88-1.06-4.18 0s-2.09 3-2.08 5.11c0 2.1.79 4.06 2.08 5.11 1.3 1.06 2.89 1.06 4.18 0s2.1-3 2.09-5.11z" transform="matrix(1.84875 -.23108 .23809 1.90478 235.62 38.06)"/>
      <path d="M232.84 119.03c0-2.1-.8-4.06-2.09-5.11-1.3-1.06-2.88-1.06-4.18 0s-2.09 3-2.08 5.11c0 2.1.79 4.06 2.08 5.11 1.3 1.06 2.89 1.06 4.18 0s2.1-3 2.09-5.11z" transform="matrix(1.8213 -.39265 .40456 1.87649 218.08 57.38)"/>
      <path d="M232.84 119.03c0-2.1-.8-4.06-2.09-5.11-1.3-1.06-2.88-1.06-4.18 0s-2.09 3-2.08 5.11c0 2.1.79 4.06 2.08 5.11 1.3 1.06 2.89 1.06 4.18 0s2.1-3 2.09-5.11z" transform="matrix(1.66103 -.84397 .86954 1.71136 192.54 159.48)"/>
      <path d="M232.84 119.03c0-2.1-.8-4.06-2.09-5.11-1.3-1.06-2.88-1.06-4.18 0s-2.09 3-2.08 5.11c0 2.1.79 4.06 2.08 5.11 1.3 1.06 2.89 1.06 4.18 0s2.1-3 2.09-5.11z" transform="matrix(1.66103 -.84397 .86954 1.71136 184.52 141.32)"/>
      <path d="M232.84 119.03c0-2.1-.8-4.06-2.09-5.11-1.3-1.06-2.88-1.06-4.18 0s-2.09 3-2.08 5.11c0 2.1.79 4.06 2.08 5.11 1.3 1.06 2.89 1.06 4.18 0s2.1-3 2.09-5.11z" transform="matrix(1.5836 -.9816 1.01134 1.63158 174.26 164.6)"/>
      <path d="M232.84 119.03c0-2.1-.8-4.06-2.09-5.11-1.3-1.06-2.88-1.06-4.18 0s-2.09 3-2.08 5.11c0 2.1.79 4.06 2.08 5.11 1.3 1.06 2.89 1.06 4.18 0s2.1-3 2.09-5.11z" transform="matrix(1.48128 -1.1301 1.16435 1.52616 167.18 194.12)"/>
      <path d="M232.84 119.03c0-2.1-.8-4.06-2.09-5.11-1.3-1.06-2.88-1.06-4.18 0s-2.09 3-2.08 5.11c0 2.1.79 4.06 2.08 5.11 1.3 1.06 2.89 1.06 4.18 0s2.1-3 2.09-5.11z" transform="matrix(1.30182 -1.3329 1.37328 1.34126 168.96 246.93)"/>
      <path d="M232.84 119.03c0-2.1-.8-4.06-2.09-5.11-1.3-1.06-2.88-1.06-4.18 0s-2.09 3-2.08 5.11c0 2.1.79 4.06 2.08 5.11 1.3 1.06 2.89 1.06 4.18 0s2.1-3 2.09-5.11z" transform="matrix(1.17368 -1.44698 1.49084 1.20925 167.75 274.11)"/>
      <path d="M232.84 119.03c0-2.1-.8-4.06-2.09-5.11-1.3-1.06-2.88-1.06-4.18 0s-2.09 3-2.08 5.11c0 2.1.79 4.06 2.08 5.11 1.3 1.06 2.89 1.06 4.18 0s2.1-3 2.09-5.11z" transform="matrix(.91718 -1.62175 1.6709 .94498 187.99 334.22)"/>
      <path d="M232.84 119.03c0-2.1-.8-4.06-2.09-5.11-1.3-1.06-2.88-1.06-4.18 0s-2.09 3-2.08 5.11c0 2.1.79 4.06 2.08 5.11 1.3 1.06 2.89 1.06 4.18 0s2.1-3 2.09-5.11z" transform="matrix(.76579 -1.6985 1.74996 .78897 193.62 359.94)"/>
      <path d="M232.84 119.03c0-2.1-.8-4.06-2.09-5.11-1.3-1.06-2.88-1.06-4.18 0s-2.09 3-2.08 5.11c0 2.1.79 4.06 2.08 5.11 1.3 1.06 2.89 1.06 4.18 0s2.1-3 2.09-5.11z" transform="matrix(.65019 -1.74601 1.79893 .66988 194.89 377.2)"/>
      <path d="M232.84 119.03c0-2.1-.8-4.06-2.09-5.11-1.3-1.06-2.88-1.06-4.18 0s-2.09 3-2.08 5.11c0 2.1.79 4.06 2.08 5.11 1.3 1.06 2.89 1.06 4.18 0s2.1-3 2.09-5.11z" transform="matrix(.51503 -1.79055 1.84481 .53064 200.75 397.83)"/>
      <path d="M232.84 119.03c0-2.1-.8-4.06-2.09-5.11-1.3-1.06-2.88-1.06-4.18 0s-2.09 3-2.08 5.11c0 2.1.79 4.06 2.08 5.11 1.3 1.06 2.89 1.06 4.18 0s2.1-3 2.09-5.11z" transform="matrix(.23314 -1.8485 1.90451 .2402 237.11 442.12)"/>
      <path d="M232.84 119.03c0-2.1-.8-4.06-2.09-5.11-1.3-1.06-2.88-1.06-4.18 0s-2.09 3-2.08 5.11c0 2.1.79 4.06 2.08 5.11 1.3 1.06 2.89 1.06 4.18 0s2.1-3 2.09-5.11z" transform="matrix(.07476 -1.86165 1.91806 .07702 250.49 463.37)"/>
      <path d="M232.84 119.03c0-2.1-.8-4.06-2.09-5.11-1.3-1.06-2.88-1.06-4.18 0s-2.09 3-2.08 5.11c0 2.1.79 4.06 2.08 5.11 1.3 1.06 2.89 1.06 4.18 0s2.1-3 2.09-5.11z" transform="matrix(.07476 -1.86165 1.91806 .07702 230.44 464.08)"/>
      <path d="M232.84 119.03c0-2.1-.8-4.06-2.09-5.11-1.3-1.06-2.88-1.06-4.18 0s-2.09 3-2.08 5.11c0 2.1.79 4.06 2.08 5.11 1.3 1.06 2.89 1.06 4.18 0s2.1-3 2.09-5.11z" transform="matrix(-.41519 -1.81629 1.87134 -.42776 326.57 516.39)"/>
      <path d="M232.84 119.03c0-2.1-.8-4.06-2.09-5.11-1.3-1.06-2.88-1.06-4.18 0s-2.09 3-2.08 5.11c0 2.1.79 4.06 2.08 5.11 1.3 1.06 2.89 1.06 4.18 0s2.1-3 2.09-5.11z" transform="matrix(-.56358 -1.77586 1.82969 -.58066 344.7 530.51)"/>
      <path d="M232.84 119.03c0-2.1-.8-4.06-2.09-5.11-1.3-1.06-2.88-1.06-4.18 0s-2.09 3-2.08 5.11c0 2.1.79 4.06 2.08 5.11 1.3 1.06 2.89 1.06 4.18 0s2.1-3 2.09-5.11z" transform="matrix(-.77108 -1.69608 1.74749 -.79446 383.3 545.76)"/>
      <path d="M232.84 119.03c0-2.1-.8-4.06-2.09-5.11-1.3-1.06-2.88-1.06-4.18 0s-2.09 3-2.08 5.11c0 2.1.79 4.06 2.08 5.11 1.3 1.06 2.89 1.06 4.18 0s2.1-3 2.09-5.11z" transform="matrix(-.91296 -1.62412 1.67333 -.94064 405.7 556.37)"/>
      <path d="M232.84 119.03c0-2.1-.8-4.06-2.09-5.11-1.3-1.06-2.88-1.06-4.18 0s-2.09 3-2.08 5.11c0 2.1.79 4.06 2.08 5.11 1.3 1.06 2.89 1.06 4.18 0s2.1-3 2.09-5.11z" transform="matrix(-1.08406 -1.5153 1.56121 -1.1169 440.48 564.5)"/>
      <path d="M232.84 119.03c0-2.1-.8-4.06-2.09-5.11-1.3-1.06-2.88-1.06-4.18 0s-2.09 3-2.08 5.11c0 2.1.79 4.06 2.08 5.11 1.3 1.06 2.89 1.06 4.18 0s2.1-3 2.09-5.11z" transform="matrix(-1.20839 -1.41812 1.4611 -1.245 464.32 570.02)"/>
      <path d="M232.84 119.03c0-2.1-.8-4.06-2.09-5.11-1.3-1.06-2.88-1.06-4.18 0s-2.09 3-2.08 5.11c0 2.1.79 4.06 2.08 5.11 1.3 1.06 2.89 1.06 4.18 0s2.1-3 2.09-5.11z" transform="matrix(-1.30696 -1.32783 1.36808 -1.34656 483.3 576.8)"/>
      <path d="M232.84 119.03c0-2.1-.8-4.06-2.09-5.11-1.3-1.06-2.88-1.06-4.18 0s-2.09 3-2.08 5.11c0 2.1.79 4.06 2.08 5.11 1.3 1.06 2.89 1.06 4.18 0s2.1-3 2.09-5.11z" transform="matrix(-1.41352 -1.21378 1.25056 -1.45636 509.16 580.77)"/>
      <path d="M232.84 119.03c0-2.1-.8-4.06-2.09-5.11-1.3-1.06-2.88-1.06-4.18 0s-2.09 3-2.08 5.11c0 2.1.79 4.06 2.08 5.11 1.3 1.06 2.89 1.06 4.18 0s2.1-3 2.09-5.11z" transform="matrix(-1.5349 -1.05613 1.08813 -1.5814 544.92 576.82)"/>
      <path d="M232.84 119.03c0-2.1-.8-4.06-2.09-5.11-1.3-1.06-2.88-1.06-4.18 0s-2.09 3-2.08 5.11c0 2.1.79 4.06 2.08 5.11 1.3 1.06 2.89 1.06 4.18 0s2.1-3 2.09-5.11z" transform="matrix(-1.69349 -.77677 .8003 -1.74482 606.25 551.5)"/>
      <path d="M232.84 119.03c0-2.1-.8-4.06-2.09-5.11-1.3-1.06-2.88-1.06-4.18 0s-2.09 3-2.08 5.11c0 2.1.79 4.06 2.08 5.11 1.3 1.06 2.89 1.06 4.18 0s2.1-3 2.09-5.11z" transform="matrix(-1.75693 -.62003 .63882 -1.81018 632.44 543.95)"/>
      <path d="M232.84 119.03c0-2.1-.8-4.06-2.09-5.11-1.3-1.06-2.88-1.06-4.18 0s-2.09 3-2.08 5.11c0 2.1.79 4.06 2.08 5.11 1.3 1.06 2.89 1.06 4.18 0s2.1-3 2.09-5.11z" transform="matrix(-1.85518 -.13795 .1773 -1.53226 703.46 438.74)"/>
      <path d="M232.84 119.03c0-2.1-.8-4.06-2.09-5.11-1.3-1.06-2.88-1.06-4.18 0s-2.09 3-2.08 5.11c0 2.1.79 4.06 2.08 5.11 1.3 1.06 2.89 1.06 4.18 0s2.1-3 2.09-5.11z" transform="matrix(-1.81654 -.41408 .42661 -1.8716 666.6 524.7)"/>
    </g>
    <path fill="#ffe300" fill-rule="evenodd" d="M679.93 195.92c2.47-2.64 4.76-3.39 7.66-2.42-1.02-6.97-3.22-9.33-5.9-8.5-2.7.85-3.9 4.43-1.76 10.92zm3.77 21.01c2.66-2.45 5-3.02 7.82-1.84-.5-7.02-2.51-9.54-5.25-8.9-2.74.62-4.22 4.1-2.57 10.74zm-8.92-40.2c1.72-3.18 3.74-4.48 6.8-4.29-2.76-6.48-5.5-8.2-7.88-6.7-2.38 1.48-2.65 5.25 1.08 11zm-9.35-19.12c1.72-3.18 3.74-4.48 6.8-4.29-2.76-6.48-5.5-8.2-7.88-6.7-2.38 1.48-2.65 5.25 1.08 11zM643 122.57c1.18-3.41 2.98-5.03 6.02-5.33-3.76-5.95-6.74-7.2-8.85-5.35s-1.77 5.62 2.83 10.68zm-14.66-15.27c1.05-3.46 2.78-5.14 5.81-5.55-3.98-5.8-7-6.95-9.04-5.02-2.04 1.94-1.56 5.69 3.23 10.57zm-30.83-26.01c-.06-3.61 1.07-5.74 3.82-7.07-5.58-4.3-8.8-4.46-10.15-1.99-1.35 2.47.27 5.89 6.33 9.06zm16.04 12.03c.56-3.57 2.04-5.48 4.99-6.3-4.75-5.2-7.9-5.92-9.66-3.72-1.75 2.2-.75 5.84 4.67 10.02zm-34.34-22.13c-.44-3.59.47-5.82 3.07-7.43-5.99-3.69-9.22-3.52-10.3-.93-1.09 2.6.88 5.83 7.23 8.36zm-18.7-8.16c-.95-3.49-.37-5.83 1.98-7.8-6.46-2.8-9.63-2.16-10.33.56-.7 2.72 1.7 5.64 8.35 7.24zm-20.15-6.25c-1.24-3.39-.86-5.77 1.31-7.93-6.67-2.24-9.78-1.34-10.25 1.43-.46 2.77 2.18 5.48 8.94 6.5zm-19.79-3.83c-1.48-3.3-1.28-5.7.73-8-6.81-1.76-9.85-.64-10.11 2.16-.27 2.8 2.56 5.3 9.38 5.84zm-20.96-1.6c-1.81-3.13-1.86-5.54-.1-8.04-6.96-1.04-9.86.39-9.84 3.2.03 2.81 3.1 5.01 9.94 4.84zm-41.04 3.09c-2.51-2.6-3.14-4.93-2.04-7.78-7 .67-9.47 2.76-8.77 5.48.7 2.72 4.22 4.12 10.81 2.3zm20.2-2.66c-2.14-2.91-2.45-5.3-.97-7.98-7.03-.28-9.76 1.45-9.43 4.24.33 2.8 3.62 4.65 10.4 3.74zm-40.02 6.94c-2.86-2.2-3.82-4.42-3.13-7.4-6.84 1.67-8.98 4.08-7.9 6.67 1.09 2.6 4.77 3.47 11.03.73zM400.8 76.17c-3.23-1.63-4.59-3.62-4.48-6.67-6.4 2.94-8.04 5.72-6.48 8.06 1.56 2.34 5.33 2.5 10.96-1.4zm18.3-9.35c-3-2-4.12-4.15-3.64-7.17-6.7 2.15-8.67 4.7-7.41 7.22 1.26 2.5 5 3.13 11.05-.05zm-52.34 33.05c-3.5-.92-5.24-2.58-5.77-5.6-5.64 4.21-6.68 7.28-4.66 9.24 2 1.96 5.74 1.33 10.43-3.64zM383 86.57c-3.41-1.18-5.02-2.98-5.32-6.02-5.95 3.75-7.22 6.72-5.37 8.84 1.86 2.11 5.62 1.78 10.69-2.81zm-30.67 27.51c-3.56-.6-5.45-2.1-6.26-5.04-5.23 4.7-5.98 7.84-3.8 9.61 2.18 1.78 5.84.81 10.06-4.57zm-12.93 16.78c-3.6-.27-5.62-1.59-6.69-4.46-4.79 5.17-5.25 8.36-2.91 9.93 2.33 1.57 5.88.27 9.6-5.47zm-10.82 17.16c-3.6.29-5.8-.71-7.3-3.38-3.93 5.83-3.9 9.06-1.35 10.26 2.54 1.19 5.86-.64 8.65-6.88zm-9.5 18.33c-3.53.75-5.84.05-7.67-2.4-3.15 6.29-2.7 9.49-.02 10.34 2.68.85 5.73-1.39 7.69-7.94zm-7.6 18.81c-3.37 1.3-5.76.97-7.95-1.16-2.12 6.72-1.16 9.8 1.62 10.22 2.78.41 5.43-2.28 6.33-9.06zm-5.09 20.95c-3.27 1.52-5.68 1.36-8.01-.62-1.66 6.84-.5 9.85 2.3 10.08 2.8.23 5.27-2.63 5.71-9.46zm-2.07 17.45c-3.08 1.63-5.49 1.83-8 .6-.92 5.57.54 7.77 3.35 7.57 2.8-.2 4.94-2.77 4.65-8.17zm352.76-82.99c1.23-3.4 3.05-4.98 6.1-5.24-3.67-6-6.63-7.3-8.77-5.49-2.14 1.83-1.85 5.6 2.67 10.73zM686 238.23c2.66-2.45 5-3.02 7.82-1.84-.5-7.02-2.51-9.54-5.25-8.9-2.74.62-4.22 4.1-2.57 10.74z"/>
    <path fill="#217900" fill-rule="evenodd" stroke="#000" stroke-linejoin="round" stroke-width="1.92" d="M658.45 123.94c-.09 0-7.96 7.87-6.59 17.46 1.37 9.58 7.45 21.4 6.33 31.32-1.1 9.92-2.9 16.51-2.9 16.51s9.24-10.52 9.32-20.62c.09-10.1-6.33-23.36-6.33-30.8s.34-14.04.17-13.87zm14.63 32.17s-6.16 4.54-5.56 14.98c.6 10.44 11.38 29.6 11.38 29.6s7.87 16.18 7.62 20.37c-.26 4.2 1.45-4.02.68-13.26-.77-9.24-12.67-29.61-12.67-29.61s-2.56-4.2-2.3-11.13c.25-6.93.93-10.86.85-10.95z"/>
    <path fill="#6b18b5" fill-rule="evenodd" d="M487.93 26.75c0-2.16-2.43-3.91-5.43-3.91s-5.43 1.75-5.43 3.9c0 2.17 2.43 3.92 5.43 3.92s5.43-1.75 5.43-3.91zm2.32 9.1c0-2.07-2.5-3.75-5.59-3.75-3.08 0-5.59 1.68-5.59 3.75s2.5 3.75 5.6 3.75c3.08 0 5.58-1.68 5.58-3.75zm6.94-10.78s-6.39 4.8-3.75 6.7c2.63 1.92 9.9-4.14 9.9-4.14l-6.15-2.56zm187.69 109.66c0-1.36-.64-2.62-1.67-3.3a3 3 0 0 0-3.36 0 3.93 3.93 0 0 0-1.67 3.3c0 1.36.64 2.62 1.67 3.3a3 3 0 0 0 3.36 0 3.93 3.93 0 0 0 1.67-3.3zm-2.44-9.13c0-2.27-1.57-4.11-3.5-4.11s-3.5 1.84-3.5 4.11 1.56 4.11 3.5 4.11 3.5-1.84 3.5-4.11zm1.68 18.57c0-1.18-.61-2.13-1.37-2.13-.76 0-1.37.95-1.37 2.13s.61 2.13 1.37 2.13c.76 0 1.37-.95 1.37-2.13zm5.63-16.6c0-1.35-.61-2.44-1.37-2.44-.76 0-1.37 1.1-1.37 2.44s.61 2.44 1.37 2.44c.76 0 1.37-1.1 1.37-2.44zm-15.38 1.68c0-1.1-.61-1.98-1.37-1.98-.76 0-1.37.89-1.37 1.98s.61 1.98 1.37 1.98c.76 0 1.37-.89 1.37-1.98zm2.44 13.1c0-1.77-1.3-3.2-2.9-3.2s-2.89 1.43-2.89 3.2c0 1.77 1.3 3.2 2.9 3.2s2.89-1.43 2.89-3.2zm-7.62-5.79c0-1.51-1.09-2.74-2.44-2.74-1.34 0-2.43 1.23-2.43 2.74s1.09 2.74 2.43 2.74c1.35 0 2.44-1.23 2.44-2.74zm-1.21-7.77c0-.82-.4-1.57-1.07-1.98a2.01 2.01 0 0 0-2.13 0 2.32 2.32 0 0 0-1.06 1.98c0 .82.4 1.57 1.06 1.98a2.01 2.01 0 0 0 2.13 0 2.32 2.32 0 0 0 1.07-1.98zm34.71 39.49c-3.15-4.15-8.18-5.9-11.25-3.9-3.06 1.99-3 6.97.14 11.12 3.15 4.15 8.19 5.9 11.25 3.9 3.07-1.99 3-6.97-.14-11.12zm8.94 76.59c.61-5.1-1.88-9.58-5.55-10.02-3.67-.44-7.15 3.33-7.76 8.43-.6 5.1 1.88 9.58 5.55 10.02 3.68.44 7.15-3.34 7.76-8.43zm1.89 44.58c1.05-5.02-1.04-9.7-4.66-10.46-3.63-.76-7.41 2.7-8.46 7.72-1.05 5.03 1.04 9.71 4.66 10.47 3.63.75 7.41-2.7 8.46-7.73zm8.59-41.73c0-2.02-1.36-3.65-3.05-3.65s-3.04 1.63-3.04 3.65 1.36 3.65 3.04 3.65 3.05-1.63 3.05-3.65zm-7.46 8.38l-6.24 7.08s-5.87.15-5.56 2.06c.3 1.9 8.07 7.61 8 9.9-.08 2.28 5.17-.54 5.17-.54s4.19-12.71 4.19-12.79c0-.08-.23-8.83-2.51-8.68-2.29.15-2.9 2.8-3.05 2.97zm-410.68-2.8a2.97 2.97 0 1 0-5.94 0 2.97 2.97 0 0 0 5.94 0zm2.8-9.08c0-1.73-1.33-3.14-2.97-3.14s-2.97 1.4-2.97 3.14 1.33 3.14 2.97 3.14 2.97-1.4 2.97-3.14zm-24.4-43.18c-1.11-2.5-3.44-3.89-5.18-3.11-1.75.78-2.27 3.44-1.15 5.93 1.11 2.5 3.43 3.9 5.18 3.11 1.75-.78 2.26-3.43 1.15-5.93zm7.37 26.9c-1.53-3.24-4.72-5.04-7.12-4.03s-3.1 4.45-1.58 7.7 4.72 5.03 7.12 4.02 3.11-4.45 1.58-7.69zm7.89 19.73c.5-4.04-1.18-7.76-3.74-8.3-2.57-.54-5.04 2.3-5.54 6.35-.5 4.04 1.18 7.76 3.74 8.3 2.56.53 5.04-2.3 5.54-6.35zm-12.66 2.88c1.58-3.75 1-7.79-1.33-9s-5.48.83-7.06 4.58-1 7.79 1.32 9 5.48-.83 7.07-4.58z"/>
    <path fill="#6b18b5" fill-rule="evenodd" d="M279.2 242.07c0-1.92-1.48-3.47-3.3-3.47s-3.3 1.55-3.3 3.47 1.47 3.47 3.3 3.47 3.3-1.55 3.3-3.47zm-2.64-8.58a3.06 3.06 0 0 0-2.97-3.14c-1.64 0-2.97 1.4-2.97 3.14s1.33 3.14 2.97 3.14 2.97-1.4 2.97-3.14zm2.81-16.51c0-2.92-1.3-5.28-2.89-5.28-1.6 0-2.89 2.36-2.89 5.28s1.3 5.28 2.9 5.28 2.88-2.36 2.88-5.28zm8.89-1.27c.39-2.9-.58-5.4-2.17-5.62-1.58-.2-3.17 1.97-3.56 4.86-.38 2.89.59 5.4 2.17 5.62 1.58.2 3.18-1.97 3.56-4.86zM351.6 89.33c1.18-4.1-.04-8.2-2.71-9.2-2.68-.97-5.8 1.55-6.98 5.65-1.18 4.1.04 8.2 2.71 9.2 2.68.97 5.8-1.55 6.98-5.65zm-12.03 18.23c3.53-3 5.04-7.16 3.37-9.28-1.67-2.12-5.89-1.4-9.41 1.6s-5.04 7.16-3.37 9.28c1.67 2.12 5.88 1.4 9.41-1.6zm-7.02-10.12c3.49-2.57 4.98-6.14 3.33-7.96s-5.82-1.2-9.3 1.37c-3.5 2.58-4.99 6.15-3.34 7.97s5.82 1.2 9.31-1.38zm27.06-17.8c2.35-1.79 3.36-4.28 2.25-5.55-1.12-1.27-3.93-.84-6.28.96s-3.36 4.29-2.25 5.56c1.12 1.27 3.93.84 6.28-.96z"/>
    <path fill="#6b18b5" fill-rule="evenodd" d="M345.5 96.89c1.61-2.49 1.72-5.17.24-5.99-1.47-.82-3.98.53-5.58 3.02s-1.72 5.17-.25 5.99c1.48.82 3.98-.53 5.59-3.02zm20.36-10.65c2.53-2.14 3.52-4.96 2.2-6.31-1.31-1.36-4.43-.73-6.96 1.4s-3.52 4.97-2.2 6.32c1.31 1.35 4.43.72 6.96-1.42zm-36.79 24.85c2.37-.12 4.15-1.3 3.99-2.63-.16-1.34-2.21-2.32-4.58-2.2-2.37.11-4.15 1.29-3.99 2.63.17 1.33 2.21 2.32 4.58 2.2zm44.54-38.06c1.61-2.5 1.72-5.17.24-6-1.47-.81-3.98.54-5.58 3.03s-1.72 5.16-.25 5.98c1.48.82 3.98-.53 5.59-3.01z"/>
    <path fill="#ffd200" fill-rule="evenodd" stroke="#ef8a10" d="M641.8 148.49s7.34-11.62 4.5-22.55c-2.84-10.93-14.94-3.2-14.68.69.26 3.89 7.82 9.1 8.28 11.47.46 2.37-.85 9.67 1.9 10.4z"/>
    <path fill="#217900" fill-rule="evenodd" stroke="#000" stroke-linejoin="round" stroke-width="2.4" d="M501.67 51.88s26.44 1.03 26.61 18.14c-.08 2.66 0 5.82-.94 13.44 5.22-2.82 8.73-10.7 8.05-15.75.08-17.37-23.62-29.26-33.72-15.83z"/>
    <path fill="#217900" fill-rule="evenodd" stroke="#000" stroke-linejoin="round" stroke-width="2.4" d="M484.9 51.11s21.3-4.45 21.48 12.67c.17 17.11-6.76 19.85-6.76 19.85s16.34-3.5 16.43-20.88c.08-17.37-21.05-25.07-31.15-11.64z"/>
    <path fill="#f7df73" fill-rule="evenodd" stroke="#000" stroke-linejoin="round" stroke-width="2.56" d="M557.28 420.34s99.74-28.17 129.86-150.58c-17.49 125.65-126.62 165.48-126.62 165.48l-3.23-14.9z"/>
    <path fill="#8c1800" fill-rule="evenodd" d="M567.52 427.96c3.08 0 10.7-8.43 15.09-9.4 4.38-.98 4.86-5.36-.17-5.52-5.03-.17-9.4 5.67-9.4 5.67s-4.39 3.74-8.93 4.22c-4.54.5-1.62 6.17 3.4 5.03z"/>
    <path fill="#8c1800" fill-rule="evenodd" stroke="#8c1800" stroke-width="2.56" d="M624.95 385.12s-10.38 6-8.92 7.46c1.46 1.46 10.7-5.68 10.87-5.84.16-.16 3.9-4.7-1.95-1.62z"/>
    <path fill="#8c1800" fill-rule="evenodd" d="M588.77 412.4s-3.09-1.14 4.86-4.22c7.95-3.09 7.47-6.65 10.06-8.12 2.6-1.46 8.12-5.35 9.25-3.08s-5.84 6.82-7.46 7.3c-1.62.49-9.57 7.8-11.85 8.44-2.27.65-3.89.33-4.86-.32z"/>
    <path fill="none" stroke="#8c1800" stroke-linecap="round" stroke-width="3.12" d="M640.37 369.88c-6.82 7.62-6.82 7.46-6.82 7.46"/>
    <path fill="none" stroke="#8c1800" stroke-linecap="round" stroke-width="2.88" d="M650.6 357.38l-6.5 7.95"/>
    <path fill="none" stroke="#8c1800" stroke-linecap="round" stroke-width="2.64" d="M660.81 341.16l-7.3 11.68"/>
    <path fill="none" stroke="#8c1800" stroke-linecap="round" stroke-width="2.4" d="M669.4 324.61l-6 12.01m9.9-20.78l-1.94 4.22"/>
    <path fill="none" stroke="#8c1800" stroke-linecap="round" stroke-width="1.44" d="M677.68 304.32l-1.62 5.03"/>
    <path fill="#f7df73" fill-rule="evenodd" stroke="#000" stroke-linejoin="round" stroke-width="1pt" d="M160.26 215.97s51.96-14.68 67.65-78.44c-9.11 65.45-65.96 86.2-65.96 86.2l-1.69-7.76z" transform="matrix(-1.9021 0 0 1.9542 731.39 -4.33)"/>
    <path fill="#8c1800" fill-rule="evenodd" d="M416.42 425.47c-3.05 0-10.61-8.59-14.95-9.58-4.34-.99-4.82-5.45.16-5.61 4.98-.17 9.33 5.78 9.33 5.78s4.34 3.8 8.84 4.3c4.5.49 1.6 6.27-3.38 5.11z"/>
    <path fill="#8c1800" fill-rule="evenodd" stroke="#8c1800" stroke-width="1pt" d="M195.51 197.62s-5.41 3.13-4.65 3.89c.76.76 5.58-2.96 5.66-3.04.09-.09 2.03-2.46-1.01-.85z" transform="matrix(-1.9021 0 0 1.9542 731.39 -4.33)"/>
    <path fill="#8c1800" fill-rule="evenodd" d="M395.37 409.63s3.05-1.16-4.83-4.3c-7.88-3.14-7.4-6.77-9.97-8.26-2.57-1.49-8.04-5.45-9.16-3.14s5.79 6.94 7.4 7.44c1.6.5 9.48 7.92 11.73 8.59 2.25.66 3.86.33 4.83-.33z"/>
    <path fill="none" stroke="#8c1800" stroke-linecap="round" stroke-width="1.63" d="M203.54 189.68c-3.55 3.97-3.55 3.89-3.55 3.89" transform="matrix(-1.9021 0 0 1.9542 731.39 -4.33)"/>
    <path fill="none" stroke="#8c1800" stroke-linecap="round" stroke-width="1.5" d="M208.87 183.17l-3.38 4.14" transform="matrix(-1.9021 0 0 1.9542 731.39 -4.33)"/>
    <path fill="none" stroke="#8c1800" stroke-linecap="round" stroke-width="1.38" d="M214.19 174.72l-3.8 6.09" transform="matrix(-1.9021 0 0 1.9542 731.39 -4.33)"/>
    <path fill="none" stroke="#8c1800" stroke-linecap="round" stroke-width="1.25" d="M218.67 166.1l-3.13 6.25m5.16-10.82l-1.01 2.2" transform="matrix(-1.9021 0 0 1.9542 731.39 -4.33)"/>
    <path fill="none" stroke="#8c1800" stroke-linecap="round" stroke-width=".75" d="M222.98 155.53l-.84 2.62" transform="matrix(-1.9021 0 0 1.9542 731.39 -4.33)"/>
    <path fill="#217900" fill-rule="evenodd" stroke="#000" stroke-linejoin="round" stroke-width="2.4" d="M691.89 247.23c.49 7.68 8 15.03 5.07 28.43-3.76 15.19-17 51.3-14.7 57.66-3.93-5.39-3.28-10.45-3.6-17.97-.33-7.51 10.94-35.45 11.92-44.92 0-8.5.82-20.1 1.31-23.2z"/>
    <path fill="#217900" fill-rule="evenodd" stroke="#000" stroke-linejoin="round" stroke-width="2.4" d="M691.89 247.39s12.25 15.52 11.6 27.77c-.65 12.26-7.52 26.63-5.23 33-3.92-5.39-4.9-8.82-5.23-16.33-.32-7.52 6.05-15.85 4.74-24.02-1.3-8.17-6.04-20.42-5.88-20.42zm-401.38 3.43c-.49 7.68-6.2 14.54-3.27 27.94 3.76 15.19 17.16 34.47 15.03 56.52 3.92-5.39 5.07-11.43 5.4-18.95.32-7.51-14.87-32.84-15.85-42.31 0-8.5-.82-20.1-1.31-23.2z"/>
    <path fill="#217900" fill-rule="evenodd" stroke="#000" stroke-linejoin="round" stroke-width="2.4" d="M290.51 250.99s-11.93 15.03-11.27 27.28c.16 8.17 15.19 42.32 12.9 48.69 3.92-5.4 5.07-4.74 4.9-12.9-4.4-20.92-12.25-34.32-10.94-42.49 1.3-8.16 4.57-20.58 4.4-20.58z"/>
    <path fill="#fff" stroke="#000" stroke-dashoffset="1" stroke-linecap="square" stroke-linejoin="round" stroke-width="1.49" d="M99.96 125.78l22.17 68.23h71.74l-58.04 42.18L158 304.42l-58.04-42.15-58.04 42.16 22.16-68.23-58.04-42.17H77.8z" transform="matrix(1.3389 0 0 1.3391 360.43 -54.9)"/>
  </g>
</svg>
