<svg xmlns="http://www.w3.org/2000/svg" height="512" width="512" version="1">
  <g clip-path="url(#a)">
    <path fill-rule="evenodd" fill="#0071bc" d="M-256 0h1023.977v511.984h-1023.977z"/>
    <g>
      <path d="M315.195 405.027s18.055-19.096 35.414-15.451c5.208-20.137 24.825-21.7 24.825-21.7s-1.91-22.221 23.263-27.081c.694-15.104 15.972-27.602 15.972-27.602s-3.125-23.436 12.847-28.817c-9.722-18.576 3.298-32.117 3.125-32.464-.174-.347-16.492-29.338-1.91-37.672-15.451-13.02-10.416-27.776-10.416-27.776s-16.84-4.34-10.764-24.478c-13.888-2.43-16.665-24.825-16.665-24.825s-21.353 4.34-23.957-14.236c-14.061 2.257-15.624-11.631-15.797-11.631-.174 0-27.95 7.465-33.505-13.541-10.763 5.555-15.451-4.34-15.451-4.34s-15.451 7.638-24.652-7.118c-18.401 11.457-28.644-.521-28.644-.521s-24.13 15.972-32.116 3.646c-14.236 14.409-26.908 8.159-26.908 8.159s-10.764 19.096-28.124 14.235c-3.993 17.708-23.957 18.055-23.957 18.055s2.083 15.624-21.873 19.791c-3.125 18.401-15.624 21.527-15.624 21.527s1.215 17.881-10.069 23.609c3.993 10.069-6.423 22.395-6.423 22.395s11.111 13.888-3.993 29.512c14.583 3.819 3.993 28.992 3.993 28.992s20.137 9.027 7.465 25.693c14.409 4.687 9.895 16.145 10.069 22.916 9.201 4.166 17.36 2.083 13.368 20.659 28.297 3.125 14.929 18.749 14.929 18.749s13.193.521 7.986 10.937c24.13-.521 27.602 18.055 27.602 18.055s22.395-5.903 25.346 2.778c2.951 8.68-9.722 67.184-9.722 67.184s-18.923 0-32.984-15.103c-32.984-.868-25.693-22.568-26.214-22.568-.521 0-10.937 3.993-16.319-14.061-22.048 4.514-21.353-14.061-21.527-14.235-.174-.174-9.895-4.514-6.25-13.715-22.741 2.083-21.005-20.137-21.005-20.137-4.977-2.025-6.828-6.655-6.076-11.284-2.951-1.042-23.089-1.389-12.673-27.949-19.269-11.632-7.291-24.998-7.291-24.998s-26.561-13.715-6.076-29.512c-15.277-22.568 1.215-33.852 1.215-33.852s-21.18-21.527.347-36.804c-3.472-32.637 15.972-40.449 15.972-40.449s-10.242-26.561 17.533-37.672c1.736-26.908 21.18-27.602 21.18-27.602s.521-21.353 31.074-19.269c5.902-19.096 26.734-15.277 26.734-15.277s6.423-23.089 34.72-11.979c14.409-28.124 35.762-13.715 35.762-13.715s13.541-8.854 20.312-6.076c8.597-14.775 26.9-.573 38.734 2.286 4.289-1.668 19.596-13.223 31.402 1.359 15.624-10.243 28.992 8.159 28.992 8.159s21.527-10.936 31.596 14.061c45.657-4.167 39.06 25.693 39.06 25.693s35.936-8.159 28.124 27.602c32.637 2.257 29.338 23.784 29.338 23.784s20.659 15.624 11.631 29.685c18.401.868 11.631 18.576 11.631 18.576s14.061 5.382 2.43 27.256c26.908 21.527 5.208 42.88 5.035 42.706-.174-.174 14.409 17.36 1.215 37.498 3.993 31.942-12.152 40.102-12.152 40.102s4.166 20.659-13.888 26.561c-.347 24.304-23.263 27.256-23.263 27.256s6.076 10.557-16.665 21.668c-.897 16.263-24.652 17.566-24.652 17.566s-2.257 29.86-32.464 21.873c-7.331 23.957-42.706 16.84-43.4 16.492-.694-.347-6.77-51.386-6.77-51.56z" fill-rule="evenodd" stroke="#000" stroke-width="1.98144" fill="#fff"/>
      <path stroke-linejoin="round" d="M95.802 118.516c.088 0 7.656 6.563 6.243 16.456-1.413 9.892-7.126 23.643-5.978 33.888.702 4.107.436 11.467.436 11.467s-6.86-9.748-6.949-20.17 7.429-20.318 7.429-28.002-1.358-13.815-1.181-13.638z" fill-rule="evenodd" stroke="#000" stroke-width="1.98144" fill="#217900"/>
      <path stroke-linejoin="round" d="M92.045 121.468s-9.931 9.48-11.21 18.693c-.944 4.749-1.311 26.877-1.422 36.697-.223 3.013-1.472 14.908-1.737 19.235-.265 4.328 7.305-7.388 7.738-16.926-.237-9.874-.237-30.671.767-33.796.893-4.018.698-8.457 2.079-12.486 1.827-5.592 3.873-11.328 3.785-11.417z" fill-rule="evenodd" stroke="#000" stroke-width="1.98144" fill="#217900"/>
      <g fill-rule="evenodd" stroke="#ef8a10" fill="#ffd200">
        <path d="M310.462 90.481s12.874-5.939 16.554-16.998-11.142-11.166-13.1-7.651c-1.958 3.515 1.67 12.268.736 14.582-.935 2.314-6.172 7.9-4.19 10.067z"/>
        <path d="M196.359 94.517s8.357-11.453 6.191-22.906c-2.167-11.453-15.167-4.334-15.167-.31s7.429 9.905 7.738 12.381c.309 2.476-1.548 9.905 1.238 10.834z"/>
        <path d="M173.763 101.327s8.357-11.453 6.191-22.906c-2.167-11.453-15.167-4.334-15.167-.31s7.429 9.905 7.738 12.381c.309 2.476-1.548 9.905 1.238 10.834z"/>
        <path d="M148.692 109.065s8.357-11.453 6.191-22.906c-2.167-11.453-15.167-4.334-15.167-.31s7.429 9.905 7.738 12.381c.309 2.476-1.548 9.905 1.238 10.834z"/>
        <path d="M131.049 126.708s8.357-11.453 6.191-22.906c-2.167-11.453-15.167-4.334-15.167-.31s7.429 9.905 7.738 12.381c.309 2.476-1.548 9.905 1.238 10.834z"/>
        <path d="M112.477 143.733s8.357-11.453 6.191-22.906c-2.167-11.453-15.167-4.334-15.167-.31s7.429 9.905 7.738 12.381c.309 2.476-1.548 9.905 1.238 10.834z"/>
        <path d="M155.178 44.558s-11.13 8.783-12.123 20.396c-.993 11.613 13.443 8.253 14.525 4.377 1.082-3.876-4.491-11.538-4.124-14.006.368-2.468 4.155-9.124 1.721-10.768z"/>
        <path d="M192.321 33.104s-11.13 8.783-12.123 20.396c-.993 11.613 13.443 8.253 14.525 4.377 1.082-3.876-4.491-11.538-4.124-14.006.368-2.468 4.155-9.124 1.721-10.768z"/>
        <path d="M53.903 133.374s2.351 13.982 12.057 20.436c9.706 6.454 13.699-7.82 10.821-10.632s-12.276-1.609-14.264-3.118c-1.987-1.509-6.003-8.029-8.614-6.686z"/>
        <path d="M35.353 180.849s.115 14.177 8.681 22.082c8.566 7.905 14.762-5.56 12.363-8.791s-11.869-3.526-13.593-5.33c-1.724-1.804-4.661-8.876-7.451-7.961z"/>
        <path d="M78.15 233.886s-5.06-13.244-15.848-17.659c-10.788-4.415-11.89 10.366-8.514 12.556 3.376 2.19 12.353-.842 14.599.246 2.246 1.088 7.468 6.689 9.763 4.857z"/>
        <path d="M69.26 210.966s8.579-11.288 6.636-22.782c-1.944-11.493-15.08-4.628-15.158-.605-.078 4.023 7.235 10.048 7.496 12.53.261 2.482-1.74 9.873 1.027 10.855z"/>
        <path d="M336.77 101.934s12.874-5.939 16.554-16.998-11.142-11.166-13.1-7.651c-1.958 3.515 1.67 12.268.736 14.582-.935 2.314-6.172 7.9-4.19 10.067z"/>
        <path d="M375.697 121.351s7.573-11.986 4.645-23.269c-2.928-11.282-15.423-3.31-15.154.705.269 4.015 8.075 9.386 8.549 11.836.474 2.45-.882 9.986 1.96 10.727z"/>
        <path d="M481.957 231.667s-5.078-13.237-15.872-17.637-11.876 10.382-8.497 12.568c3.379 2.185 12.352-.859 14.599.226s7.476 6.679 9.769 4.844z"/>
        <path d="M429.996 239.888s.295-14.175 8.96-21.971c8.665-7.796 14.69 5.746 12.251 8.947-2.439 3.201-11.912 3.375-13.66 5.157-1.747 1.782-4.772 8.816-7.551 7.866z"/>
        <path d="M421.636 89.57s-13.254-5.035-23.726.081c-10.474 5.116-.173 15.773 3.709 14.71 3.881-1.063 7.59-9.781 9.897-10.735 2.307-.953 9.962-1.124 10.122-4.056z"/>
        <path d="M391.307 64.188s-13.254-5.035-23.726.081c-10.474 5.116-.173 15.773 3.709 14.71 3.881-1.063 7.59-9.781 9.897-10.735 2.307-.953 9.962-1.124 10.122-4.056z"/>
        <path d="M346.081 39.984s-11.236 8.646-12.372 20.246c-1.135 11.601 13.34 8.417 14.47 4.555 1.13-3.862-4.349-11.592-3.952-14.056.398-2.464 4.266-9.072 1.853-10.746z"/>
        <path d="M316.623 32.898s-5.124 13.219-.079 23.726c5.045 10.508 15.771.279 14.734-3.609-1.037-3.888-9.73-7.656-10.667-9.969-.937-2.313-1.057-9.969-3.988-10.149z"/>
        <path d="M233.084 83.839s9.165-10.817 7.833-22.397c-1.332-11.58-14.813-5.421-15.105-1.407-.292 4.014 6.691 10.417 6.821 12.909.129 2.492-2.261 9.767.45 10.895z"/>
      </g>
      <path d="M282.994 107.07s21.971 1.383 23.047 13.982l-5.224 20.282s2.766 27.196-18.745 35.185c-23.047 2.766-59.154.615-59.154.615s-10.602 2.612-14.904-19.359c-4.302-21.971-5.531-37.49-5.531-37.49s2.151-12.292 17.67-13.06c15.519-.768 62.688.154 62.841-.154z" fill-rule="evenodd" stroke="#000" stroke-width="1.98144" fill="#8c8a8c"/>
      <path d="M300.663 141.181s-11.831 14.75-10.602 20.742" stroke="#000" stroke-linecap="round" stroke-width="1.98144" fill="none"/>
      <path d="M284.841 175.746c2.919 2.458 5.685 5.224 6.299 14.289.615 9.065 1.229 18.131 1.229 18.131l15.365 138.281 13.521 100.025.922 15.519s-3.226 11.37-12.291 12.291c-6.607 13.828-42.407 17.823-45.941 17.67-3.227-.154-14.597-4.917-21.511-4.302-6.914.614-18.899 5.224-24.276 4.456-5.378-.768-17.516-4.917-19.667-13.674-15.057-4.763-17.516-16.287-17.516-16.287l16.287-115.698 15.825-146.269s1.844-19.513 9.68-22.433c8.143-.768 50.243.768 62.074-1.997z" fill-rule="evenodd" stroke="#000" stroke-width="1.98144" fill="#8c8a8c"/>
      <path d="M201.871 375.953l-3.227 102.33" stroke="#000" stroke-width="1.98144" fill="none"/>
      <path d="M301.282 389.473l9.065 84.353" stroke="#000" stroke-width="1.98144" fill="none"/>
      <path stroke="#000" d="M38.437 322.779l-.337 1.18" fill="none" stroke-width="1.032"/>
      <path stroke="#000" d="M463.498 319.074l.337 1.18" fill="none" stroke-width="1.032"/>
      <path stroke-linejoin="round" d="M27.043 184.632s6.732 9.321 7.94 14.671c1.208 5.351 3.452 15.88 6.386 20.194 2.934 4.315 19.677 28.307 20.54 38.318.173 6.559-6.904 17.778-17.433 17.95-6.559-.172-23.474-4.487-24.165-18.987-.69-14.499 5.178-14.844 5.869-23.646.69-8.803.863-48.329.863-48.501z" stroke="#6b18b5" stroke-width="1.98144" fill="none"/>
      <path stroke-linejoin="round" d="M142.68 57.712s-6.969.497-12.335 3.406c-4.157 2.564-11.199 6.252-16.12 13.075-12.516 9.757-31.346 14.31-37.285 22.416-3.555 5.515-3.336 18.778 5.571 24.395 5.694 3.26 22.389 8.361 30.511-3.669 8.122-12.03 3.287-15.374 7.27-23.254 6.572-18.064 22.299-36.221 22.388-36.368z" stroke="#6b18b5" fill="none" stroke-width="1.032"/>
      <path stroke-linejoin="round" d="M311.738 40.104s-5.205-4.661-11.027-6.492c-4.733-1.203-12.616-.68-20.774-1.48-15.716-2.204-31.919-13.57-41.872-12.197-6.435 1.282-15.811 10.666-13.651 20.971 1.619 6.358 8.73 19.218 23.022 16.685 14.293-2.533 14.169-5.651 22.601-8.271 20.566-11.532 41.533-9.176 41.701-9.215z" stroke="#6b18b5" fill="none" stroke-width="1.032"/>
      <path stroke-linejoin="round" d="M479.392 203.055c1.173-2.682-.988-7.723-2.523-13.63-1.49-4.651-3.715-11.87-9.156-18.287-6.466-14.493-5.358-34.368-11.8-42.08-4.499-4.775-17.427-7.748-25.018-.451-4.532 4.744-13.493 19.725-3.766 30.5 9.727 10.773 13.966 6.715 20.66 12.474 15.957 10.718 23.771 29.507 31.603 31.473z" stroke="#6b18b5" fill="none" stroke-width="1.032"/>
      <path stroke-linejoin="round" d="M473.674 329.663c2.179-3.017 6.081-8.832 5.617-13.674-.367-3.835 1.758-15.463 1.99-20.536 1.442-15.805 11.335-28.633 8.645-42.364-1.591-6.365-10.914-15.444-21.103-12.789-6.273 1.924-20.239 9.609-17.018 23.762s7.794 13.919 10.818 22.214c8.683 17.149 3.127 37.521 11.052 43.385z" stroke="#6b18b5" fill="none" stroke-width="1.032"/>
      <path d="M357.367 430.138s-2.679 5.152 8.037 9.686" stroke="#000" stroke-width="1.98144" fill="none"/>
      <path d="M378.803 417.98s11.953-2.885 19.99 0" stroke="#000" stroke-width="1.98144" fill="none"/>
      <path d="M414.452 387.884c0 .206-1.649 5.358 7.831 12.777" stroke="#000" stroke-width="1.98144" fill="none"/>
      <path d="M421.254 374.497s7.007 5.152 18.753 4.946" stroke="#000" stroke-width="1.98144" fill="none"/>
      <path d="M350.565 389.535s.412 13.601-6.595 19.99" stroke="#000" stroke-width="1.98144" fill="none"/>
      <path d="M374.056 368.511s11.541 2.885 21.021-1.855" stroke="#000" stroke-width="1.98144" fill="none"/>
      <path d="M448.047 348.53s2.473 3.503 15.25 2.885" stroke="#000" stroke-width="1.98144" fill="none"/>
      <path d="M398.176 340.49c.412.206 15.044 4.946 24.318.618" stroke="#000" stroke-width="1.98144" fill="none"/>
      <path d="M427.436 284.436s.618-.824 5.152 15.044" stroke="#000" stroke-width="1.98144" fill="none"/>
      <path d="M438.768 239.716s-.618 8.449-7.419 12.159" stroke="#000" stroke-width="1.98144" fill="none"/>
      <path d="M482.251 205.089s-9.892 8.037-8.037 11.335" stroke="#000" stroke-width="1.98144" fill="none"/>
      <path d="M432.999 199.319s5.152 8.655-3.297 14.632" stroke="#000" stroke-width="1.98144" fill="none"/>
      <path d="M408.063 162.225s8.862-.412 12.777 7.213" stroke="#000" stroke-width="1.98144" fill="none"/>
      <path d="M391.374 137.084h6.801" stroke="#000" stroke-width="1.98144" fill="none"/>
      <path d="M426.61 106.172c0 .206 1.855 1.855-1.649 5.358" stroke="#000" stroke-width="1.98144" fill="none"/>
      <path d="M363.343 106.998s4.74 7.419 3.916 16.487" stroke="#000" stroke-width="1.98144" fill="none"/>
      <path d="M390.755 81.854c2.061-.206 9.068-3.297 9.068-3.297" stroke="#000" stroke-width="1.98144" fill="none"/>
      <path d="M360.257 52.383c-.206 0-2.679 9.274 1.855 12.571" stroke="#000" stroke-width="1.98144" fill="none"/>
      <path d="M348.914 94.631c0 9.892 7.831 7.419 2.473 16.899" stroke="#000" stroke-width="1.98144" fill="none"/>
      <path d="M329.748 86.387c-.206 0-12.365 9.48-12.365 11.128" stroke="#000" stroke-width="1.98144" fill="none"/>
      <path d="M298.011 81.236s5.152 5.152 3.916 12.159" stroke="#000" stroke-width="1.98144" fill="none"/>
      <path d="M282.973 77.113s-2.679 7.831-6.182 9.892" stroke="#000" stroke-width="1.98144" fill="none"/>
      <path d="M255.56 75.052c-.206.412-4.328 9.274-7.213 10.923" stroke="#000" stroke-width="1.98144" fill="none"/>
      <path d="M218.054 75.259c.206 0 4.122 8.243-1.03 14.22" stroke="#000" stroke-width="1.98144" fill="none"/>
      <path d="M209.395 32.599c.206.206.824 6.388-3.091 11.746" stroke="#000" stroke-width="1.98144" fill="none"/>
      <path d="M172.301 46.613c0 .206 1.649 7.007-9.274 9.274" stroke="#000" stroke-width="1.98144" fill="none"/>
      <path d="M151.287 109.465c.206.412 10.51 2.061 10.51 2.061" stroke="#000" stroke-width="1.98144" fill="none"/>
      <path d="M125.526 133.378c.206-.206 12.571-3.916 12.571-3.916" stroke="#000" stroke-width="1.98144" fill="none"/>
      <path d="M105.534 148.829c.412 0 8.656 1.443 10.716.412" stroke="#000" stroke-width="1.98144" fill="none"/>
      <path d="M99.765 156.456s2.679 1.443.412 15.25" stroke="#000" stroke-width="1.98144" fill="none"/>
      <path d="M59.575 120.188l4.946 7.419" stroke="#000" stroke-width="1.98144" fill="none"/>
      <path d="M42.679 158.314c0-.206 4.946 7.419 11.541 8.862" stroke="#000" stroke-width="1.98144" fill="none"/>
      <path d="M81.631 197.059c.206 0 8.037-1.649 9.274-2.473" stroke="#000" stroke-width="1.98144" fill="none"/>
      <path d="M78.122 225.08c.206 0-.206-5.152 6.182-8.656" stroke="#000" stroke-width="1.98144" fill="none"/>
      <path d="M69.669 237.858c0 .206 5.976 7.625 10.098 8.656" stroke="#000" stroke-width="1.98144" fill="none"/>
      <path d="M66.17 252.08c.618-.206 7.007-5.771 14.426-5.358" stroke="#000" stroke-width="1.98144" fill="none"/>
      <path d="M64.106 271.246s.206 6.389 19.166 4.74" stroke="#000" stroke-width="1.98144" fill="none"/>
      <path d="M65.964 293.705c0-.206 5.564-12.777 16.899-17.517" stroke="#000" stroke-width="1.98144" fill="none"/>
      <path d="M81.218 309.785s1.649-5.358 11.128-9.068" stroke="#000" stroke-width="1.98144" fill="none"/>
      <path d="M91.725 331.005s6.801-5.564 9.274-6.388" stroke="#000" stroke-width="1.98144" fill="none"/>
      <path d="M100.178 347.498s4.122 4.328 14.426-3.091" stroke="#000" stroke-width="1.98144" fill="none"/>
      <path d="M50.503 350.997c1.237-.206 16.28-3.709 21.433 4.122" stroke="#000" stroke-width="1.98144" fill="none"/>
      <path d="M56.489 363.361s15.869-2.061 17.93-.412" stroke="#000" stroke-width="1.98144" fill="none"/>
      <path d="M113.162 366.664s-2.061 4.328 17.517-2.885" stroke="#000" stroke-width="1.98144" fill="none"/>
      <path d="M137.478 374.497c-3.503 5.976.824 10.716-3.71 13.396" stroke="#000" stroke-width="1.98144" fill="none"/>
      <path d="M77.915 382.734c.618-.412 7.213-2.679 6.182-12.159" stroke="#000" stroke-width="1.98144" fill="none"/>
      <path d="M83.891 396.956c.824-.206 11.746-4.946 14.014-2.473" stroke="#000" stroke-width="1.98144" fill="none"/>
      <path d="M105.328 410.765s1.443-9.686 4.534-10.716" stroke="#000" stroke-width="1.98144" fill="none"/>
      <path d="M121.811 425.39s9.068-.206 12.984-3.091" stroke="#000" stroke-width="1.98144" fill="none"/>
      <path d="M139.325 392.631c.206.206 8.449 4.534 25.967.206" stroke="#000" stroke-width="1.98144" fill="none"/>
      <path d="M145.92 431.985s2.473 12.571 2.267 15.457" stroke="#000" stroke-width="1.98144" fill="none"/>
      <g fill-rule="evenodd" stroke="#000" stroke-width="1pt" fill="#de2010">
        <path d="M462.432 238.809c-.515-4.146-2.513-7.79-5.241-9.557-2.727-1.767-5.768-1.387-7.976.995s-3.247 6.405-2.725 10.55c.515 4.146 2.513 7.79 5.241 9.557 2.727 1.767 5.768 1.387 7.976-.995s3.247-6.405 2.725-10.55z"/>
        <path d="M460.728 217.875c-.515-4.146-2.513-7.79-5.241-9.557-2.727-1.767-5.768-1.387-7.976.995s-3.247 6.405-2.725 10.55c.515 4.146 2.513 7.79 5.241 9.557 2.727 1.767 5.768 1.387 7.976-.995s3.247-6.405 2.725-10.55z"/>
        <path d="M456.456 195.478c-.876-4.086-3.185-7.54-6.057-9.06-2.871-1.52-5.868-.874-7.859 1.693s-2.675 6.666-1.792 10.75c.876 4.086 3.185 7.54 6.057 9.06 2.871 1.52 5.868.874 7.859-1.693s2.675-6.666 1.792-10.75z"/>
        <path d="M448.581 171.983c-1.888-3.726-5.001-6.475-8.165-7.212-3.163-.737-5.895.651-7.165 3.641s-.886 7.126 1.009 10.849c1.888 3.726 5.001 6.475 8.165 7.212 3.163.737 5.895-.651 7.165-3.641s.886-7.126-1.009-10.849z"/>
        <path d="M440.307 153.241c-1.888-3.726-5.001-6.475-8.165-7.212-3.163-.737-5.895.651-7.165 3.641s-.886 7.126 1.009 10.849c1.888 3.726 5.001 6.475 8.165 7.212 3.163.737 5.895-.651 7.165-3.641s.886-7.126-1.009-10.849z"/>
        <path d="M428.59 134.44c-2.198-3.553-5.534-6.03-8.749-6.497-3.215-.467-5.819 1.148-6.831 4.235s-.277 7.176 1.928 10.726c2.198 3.553 5.534 6.03 8.749 6.497 3.215.467 5.819-1.148 6.831-4.235s.277-7.176-1.928-10.726z"/>
        <path d="M415.64 116.307c-2.532-3.324-6.092-5.466-9.338-5.62-3.246-.154-5.683 1.705-6.392 4.874s.417 7.169 2.955 10.488c2.532 3.324 6.092 5.466 9.338 5.62 3.246.154 5.683-1.705 6.392-4.874s-.417-7.169-2.955-10.488z"/>
        <path d="M399.763 99.181c-2.985-2.921-6.817-4.524-10.049-4.205-3.232.319-5.373 2.513-5.614 5.752s1.452 7.033 4.443 9.949c2.985 2.921 6.817 4.524 10.049 4.205 3.232-.319 5.373-2.513 5.614-5.752s-1.452-7.033-4.443-9.949z"/>
        <path d="M382.303 83.801c-3.243-2.635-7.207-3.879-10.398-3.265-3.19.614-5.12 2.994-5.063 6.241s2.094 6.869 5.342 9.498c3.243 2.635 7.207 3.879 10.398 3.265 3.19-.614 5.12-2.994 5.063-6.241s-2.094-6.869-5.342-9.498z"/>
        <path d="M363.739 71.187c-3.634-2.059-7.749-2.628-10.793-1.491-3.044 1.136-4.553 3.804-3.959 6.998s3.202 6.427 6.839 8.48c3.634 2.059 7.749 2.628 10.793 1.491 3.044-1.136 4.553-3.804 3.959-6.998s-3.202-6.427-6.839-8.48z"/>
        <path d="M342.757 60.174c-3.807-1.72-7.957-1.912-10.884-.503-2.927 1.408-4.186 4.202-3.303 7.328s3.776 6.108 7.586 7.822c3.807 1.72 7.957 1.912 10.884.503 2.927-1.408 4.186-4.202 3.303-7.328s-3.776-6.108-7.586-7.822z"/>
        <path d="M322.303 51.934c-3.913-1.461-8.065-1.373-10.891.228-2.826 1.601-3.896 4.474-2.805 7.533s4.175 5.841 8.09 7.295c3.913 1.461 8.065 1.373 10.891-.228 2.826-1.601 3.896-4.474 2.805-7.533s-4.175-5.841-8.09-7.295z"/>
        <path d="M301.706 45.497c-4.014-1.159-8.15-.757-10.847 1.055-2.697 1.812-3.545 4.757-2.224 7.726s4.61 5.507 8.626 6.66c4.014 1.159 8.15.757 10.847-1.055 2.697-1.812 3.545-4.757 2.224-7.726s-4.61-5.507-8.626-6.66z"/>
        <path d="M278.735 41.52c-4.143-.527-8.166.509-10.551 2.715s-2.769 5.247-1.008 7.976 5.401 4.731 9.545 5.251c4.143.527 8.166-.509 10.551-2.715s2.769-5.247 1.008-7.976-5.401-4.731-9.545-5.251z"/>
        <path d="M256.018 40.307c-4.173-.17-8.093 1.205-10.281 3.606-2.188 2.401-2.31 5.463-.322 8.031s5.786 4.251 9.959 4.414c4.173.17 8.093-1.205 10.281-3.606 2.188-2.401 2.31-5.463.322-8.031s-5.786-4.251-9.959-4.414z"/>
        <path d="M235.329 41.04c-4.173-.17-8.093 1.205-10.281 3.606-2.188 2.401-2.31 5.463-.322 8.031s5.786 4.251 9.959 4.414c4.173.17 8.093-1.205 10.281-3.606 2.188-2.401 2.31-5.463.322-8.031s-5.786-4.251-9.959-4.414z"/>
        <path d="M211.236 44.07c-4.073.926-7.497 3.278-8.981 6.167s-.802 5.876 1.789 7.834 6.696 2.59 10.768 1.657c4.073-.926 7.497-3.278 8.981-6.167s.802-5.876-1.789-7.834-6.696-2.59-10.768-1.657z"/>
        <path d="M188.975 49.389c-3.983 1.26-7.2 3.887-8.44 6.889-1.239 3.003-.312 5.924 2.433 7.663s6.889 2.03 10.869.763c3.983-1.26 7.2-3.887 8.44-6.889 1.239-3.003.312-5.924-2.433-7.663s-6.889-2.03-10.869-.763z"/>
        <path d="M168.863 58.138c-3.804 1.726-6.685 4.718-7.558 7.846-.873 3.128.396 5.918 3.328 7.316s7.081 1.192 10.881-.54c3.804-1.726 6.685-4.718 7.558-7.846.873-3.128-.396-5.918-3.328-7.316s-7.081-1.192-10.881.54z"/>
        <path d="M148.941 68.35c-3.644 2.044-6.261 5.272-6.865 8.464-.604 3.192.898 5.863 3.938 7.007s7.157.584 10.798-1.467c3.644-2.044 6.261-5.272 6.865-8.464.604-3.192-.898-5.863-3.938-7.007s-7.157-.584-10.798 1.467z"/>
        <path d="M129.81 81.145c-3.4 2.428-5.65 5.921-5.902 9.161-.253 3.239 1.531 5.732 4.678 6.538s7.179-.197 10.574-2.631c3.4-2.428 5.65-5.921 5.902-9.161.253-3.239-1.531-5.732-4.678-6.538s-7.179.197-10.574 2.631z"/>
        <path d="M112.345 94.655c-3.183 2.707-5.13 6.377-5.108 9.625.022 3.248 2.009 5.58 5.213 6.116s7.136-.805 10.314-3.517c3.183-2.707 5.13-6.377 5.108-9.625-.022-3.248-2.009-5.58-5.213-6.116s-7.136.805-10.314 3.517z"/>
        <path d="M96.76 110.803c-2.98 2.928-4.659 6.729-4.405 9.968.255 3.238 2.405 5.422 5.639 5.727s7.061-1.314 10.036-4.248c2.98-2.928 4.659-6.729 4.405-9.968-.255-3.238-2.405-5.422-5.639-5.727s-7.061 1.314-10.036 4.248z"/>
        <path d="M83.429 128.696c-2.725 3.167-4.081 7.095-3.556 10.301.525 3.206 2.85 5.203 6.099 5.238s6.927-1.898 9.647-5.07c2.725-3.167 4.081-7.095 3.556-10.301-.525-3.206-2.85-5.203-6.099-5.238s-6.927 1.898-9.647 5.07z"/>
        <path d="M71.233 147.213c-2.371 3.439-3.3 7.489-2.436 10.621.864 3.132 3.388 4.869 6.622 4.557s6.684-2.627 9.049-6.07c2.371-3.439 3.3-7.489 2.436-10.621-.864-3.132-3.388-4.869-6.622-4.557s-6.684 2.627-9.049 6.07z"/>
        <path d="M60.988 168.025c-1.745 3.796-1.964 7.946-.575 10.884 1.389 2.937 4.175 4.216 7.308 3.353s6.134-3.736 7.873-7.535c1.745-3.796 1.964-7.946.575-10.884-1.389-2.937-4.175-4.216-7.308-3.353s-6.134 3.736-7.873 7.535z"/>
        <path d="M52.997 189.985c-1.393 3.938-1.235 8.089.415 10.888 1.649 2.799 4.539 3.819 7.579 2.676s5.768-4.276 7.154-8.216c1.393-3.938 1.235-8.089-.415-10.888-1.649-2.799-4.539-3.819-7.579-2.676s-5.768 4.276-7.154 8.216z"/>
        <path d="M45.886 231.522c-.39 3.334.778 6.529 3.062 8.381 2.284 1.852 5.336 2.078 8.006.594s4.551-4.454 4.933-7.788c.39-3.334-.778-6.529-3.062-8.381-2.284-1.852-5.336-2.078-8.006-.594s-4.551 4.454-4.933 7.788z"/>
        <path d="M47.755 212.212c-.932 4.071-.297 8.176 1.664 10.766 1.961 2.59 4.949 3.27 7.838 1.785s5.239-4.91 6.164-8.983c.932-4.071.297-8.176-1.664-10.766-1.961-2.59-4.949-3.27-7.838-1.785s-5.239 4.91-6.164 8.983z"/>
      </g>
      <path d="M445.756 202.209c2.545-2.725 4.913-3.495 7.909-2.501-1.057-7.187-3.331-9.626-6.102-8.761-2.771.865-4.025 4.56-1.808 11.262z" fill-rule="evenodd" fill="#ffe300"/>
      <path d="M449.647 223.893c2.743-2.525 5.162-3.115 8.075-1.898-.512-7.247-2.596-9.85-5.424-9.195-2.828.654-4.357 4.244-2.651 11.093z" fill-rule="evenodd" fill="#ffe300"/>
      <path d="M440.44 182.403c1.77-3.281 3.864-4.628 7.014-4.428-2.847-6.683-5.666-8.464-8.126-6.924-2.46 1.541-2.734 5.433 1.112 11.352z" fill-rule="evenodd" fill="#ffe300"/>
      <path d="M430.79 162.669c1.77-3.281 3.864-4.628 7.014-4.428-2.847-6.683-5.666-8.464-8.126-6.924-2.46 1.541-2.734 5.433 1.112 11.352z" fill-rule="evenodd" fill="#ffe300"/>
      <path d="M407.64 126.504c1.219-3.523 3.07-5.189 6.212-5.498-3.885-6.139-6.953-7.444-9.133-5.528s-1.826 5.802 2.922 11.025z" fill-rule="evenodd" fill="#ffe300"/>
      <path d="M392.51 110.744c1.085-3.567 2.872-5.301 5.999-5.729-4.114-5.988-7.229-7.176-9.336-5.178-2.107 1.997-1.605 5.867 3.336 10.907z" fill-rule="evenodd" fill="#ffe300"/>
      <path d="M360.69 83.899c-.066-3.728 1.1-5.928 3.944-7.298-5.758-4.43-9.088-4.6-10.477-2.052-1.389 2.549.28 6.076 6.533 9.349z" fill-rule="evenodd" fill="#ffe300"/>
      <path d="M377.245 96.311c.581-3.683 2.11-5.648 5.147-6.505-4.904-5.36-8.154-6.104-9.963-3.835-1.809 2.27-.777 6.032 4.816 10.34z" fill-rule="evenodd" fill="#ffe300"/>
      <path d="M341.803 73.476c-.45-3.701.482-6.01 3.169-7.666-6.184-3.812-9.514-3.638-10.633-.96-1.119 2.679.905 6.015 7.463 8.625z" fill-rule="evenodd" fill="#ffe300"/>
      <path d="M322.502 65.05c-.975-3.599-.383-6.017 2.04-8.04-6.666-2.888-9.937-2.239-10.661.572-.724 2.811 1.756 5.823 8.621 7.469z" fill-rule="evenodd" fill="#ffe300"/>
      <path d="M301.706 58.607c-1.276-3.503-.891-5.963 1.352-8.184-6.886-2.313-10.091-1.39-10.574 1.472-.483 2.862 2.243 5.654 9.222 6.712z" fill-rule="evenodd" fill="#ffe300"/>
      <path d="M281.28 54.652c-1.526-3.402-1.32-5.883.756-8.261-7.036-1.809-10.165-.656-10.44 2.233-.275 2.89 2.646 5.477 9.683 6.028z" fill-rule="evenodd" fill="#ffe300"/>
      <path d="M259.647 52.994c-1.871-3.225-1.923-5.715-.104-8.294-7.185-1.07-10.178.401-10.151 3.303.026 2.903 3.2 5.173 10.256 4.991z" fill-rule="evenodd" fill="#ffe300"/>
      <path d="M217.29 56.184c-2.593-2.679-3.243-5.082-2.101-8.025-7.231.694-9.781 2.843-9.056 5.653.725 2.811 4.352 4.249 11.157 2.371z" fill-rule="evenodd" fill="#ffe300"/>
      <path d="M238.139 53.44c-2.207-3.005-2.526-5.475-.996-8.235-7.259-.291-10.076 1.493-9.737 4.376.338 2.883 3.737 4.799 10.733 3.859z" fill-rule="evenodd" fill="#ffe300"/>
      <path d="M196.834 60.604c-2.95-2.279-3.938-4.565-3.23-7.641-7.057 1.724-9.272 4.216-8.152 6.893 1.12 2.678 4.916 3.581 11.381.747z" fill-rule="evenodd" fill="#ffe300"/>
      <path d="M157.666 78.613c-3.33-1.676-4.735-3.732-4.624-6.887-6.6 3.035-8.301 5.903-6.691 8.318 1.609 2.416 5.508 2.58 11.316-1.432z" fill-rule="evenodd" fill="#ffe300"/>
      <path d="M176.553 68.965c-3.102-2.068-4.247-4.28-3.754-7.397-6.92 2.211-8.956 4.851-7.652 7.444 1.304 2.593 5.154 3.23 11.406-.047z" fill-rule="evenodd" fill="#ffe300"/>
      <path d="M122.533 103.073c-3.606-.946-5.409-2.664-5.958-5.772-5.823 4.344-6.889 7.503-4.811 9.53 2.077 2.027 5.925 1.376 10.769-3.758z" fill-rule="evenodd" fill="#ffe300"/>
      <path d="M139.294 89.355c-3.521-1.225-5.184-3.079-5.488-6.22-6.145 3.875-7.455 6.941-5.542 9.124 1.912 2.184 5.799 1.835 11.03-2.904z" fill-rule="evenodd" fill="#ffe300"/>
      <path d="M107.64 117.742c-3.677-.614-5.629-2.161-6.458-5.206-5.404 4.855-6.178 8.098-3.925 9.928s6.025.831 10.383-4.722z" fill-rule="evenodd" fill="#ffe300"/>
      <path d="M94.295 135.061c-3.718-.278-5.801-1.641-6.904-4.599-4.941 5.325-5.417 8.626-3.007 10.243 2.41 1.618 6.076.281 9.911-5.645z" fill-rule="evenodd" fill="#ffe300"/>
      <path d="M83.127 152.771c-3.717.295-5.984-.733-7.526-3.487-4.067 6.019-4.033 9.354-1.403 10.583 2.629 1.23 6.047-.653 8.93-7.096z" fill-rule="evenodd" fill="#ffe300"/>
      <path d="M73.322 171.69c-3.647.775-6.029.049-7.915-2.481-3.252 6.496-2.785 9.798-.018 10.675 2.767.878 5.911-1.432 7.934-8.194z" fill-rule="evenodd" fill="#ffe300"/>
      <path d="M65.479 191.104c-3.478 1.343-5.945 1.004-8.208-1.196-2.182 6.929-1.197 10.115 1.673 10.544 2.871.429 5.61-2.35 6.535-9.348z" fill-rule="evenodd" fill="#ffe300"/>
      <path d="M60.225 212.726c-3.38 1.573-5.864 1.4-8.27-.643-1.713 7.06-.517 10.173 2.375 10.408 2.893.236 5.44-2.721 5.895-9.764z" fill-rule="evenodd" fill="#ffe300"/>
      <path d="M58.089 230.736c-3.182 1.685-5.662 1.885-8.263.61-.947 5.754.569 8.028 3.46 7.822 2.892-.205 5.101-2.861 4.803-8.433z" fill-rule="evenodd" fill="#ffe300"/>
      <path d="M422.172 145.082c1.273-3.504 3.149-5.142 6.294-5.403-3.791-6.197-6.839-7.548-9.048-5.666-2.209 1.883-1.914 5.773 2.754 11.068z" fill-rule="evenodd" fill="#ffe300"/>
      <path d="M452.021 245.877c2.743-2.525 5.162-3.115 8.075-1.898-.512-7.247-2.596-9.85-5.424-9.195-2.828.654-4.357 4.244-2.651 11.093z" fill-rule="evenodd" fill="#ffe300"/>
      <path stroke-linejoin="round" d="M423.586 127.918c-.088 0-8.214 8.126-6.801 18.017 1.413 9.892 7.684 22.081 6.536 32.326-1.148 10.245-3.003 17.046-3.003 17.046s9.539-10.864 9.627-21.286c.088-10.422-6.536-24.112-6.536-31.796s.353-14.484.177-14.308z" fill-rule="evenodd" stroke="#000" stroke-width="1.98144" fill="#217900"/>
      <path stroke-linejoin="round" d="M438.686 161.121s-6.359 4.681-5.741 15.457c.618 10.775 11.746 30.559 11.746 30.559s8.126 16.693 7.861 21.021c-.265 4.328 1.502-4.151.707-13.69s-13.072-30.559-13.072-30.559-2.65-4.328-2.385-11.482c.265-7.154.972-11.217.883-11.306z" fill-rule="evenodd" stroke="#000" stroke-width="1.98144" fill="#217900"/>
      <path d="M247.593 27.607c.001-2.23-2.508-4.038-5.602-4.038s-5.603 1.808-5.602 4.038c-.001 2.23 2.508 4.038 5.602 4.038s5.603-1.808 5.602-4.038z" fill-rule="evenodd" fill="#6b18b5"/>
      <path d="M249.987 36.999c0-2.139-2.582-3.872-5.767-3.872-3.185 0-5.767 1.734-5.767 3.872s2.582 3.872 5.767 3.872c3.185 0 5.767-1.734 5.767-3.872z" fill-rule="evenodd" fill="#6b18b5"/>
      <path d="M257.15 25.877s-6.591 4.943-3.872 6.921c2.719 1.977 10.216-4.284 10.216-4.284l-6.344-2.636z" fill-rule="evenodd" fill="#6b18b5"/>
      <path d="M450.865 139.055c.002-1.405-.657-2.705-1.727-3.408-1.071-.703-2.39-.703-3.461 0-1.071.703-1.729 2.003-1.727 3.408-.002 1.405.657 2.705 1.727 3.408 1.071.703 2.39.703 3.461 0 1.071-.703 1.729-2.003 1.727-3.408z" fill-rule="evenodd" fill="#6b18b5"/>
      <path d="M448.346 129.632c0-2.344-1.618-4.244-3.615-4.244s-3.615 1.9-3.615 4.244 1.618 4.244 3.615 4.244 3.615-1.9 3.615-4.244z" fill-rule="evenodd" fill="#6b18b5"/>
      <path d="M450.08 148.798c0-1.215-.633-2.2-1.415-2.2-.781 0-1.415.985-1.415 2.2s.633 2.2 1.415 2.2c.781 0 1.415-.985 1.415-2.2z" fill-rule="evenodd" fill="#6b18b5"/>
      <path d="M455.891 131.665c0-1.389-.633-2.515-1.415-2.515-.781 0-1.415 1.126-1.415 2.515s.633 2.515 1.415 2.515c.781 0 1.415-1.126 1.415-2.515z" fill-rule="evenodd" fill="#6b18b5"/>
      <path d="M440.017 133.399c0-1.128-.633-2.043-1.415-2.043-.781 0-1.415.915-1.415 2.043 0 1.128.633 2.043 1.415 2.043.781 0 1.415-.915 1.415-2.043z" fill-rule="evenodd" fill="#6b18b5"/>
      <path d="M442.536 146.919c.001-1.823-1.337-3.302-2.986-3.302s-2.987 1.478-2.986 3.302c-.001 1.823 1.337 3.302 2.986 3.302s2.987-1.478 2.986-3.302z" fill-rule="evenodd" fill="#6b18b5"/>
      <path d="M434.671 140.944c0-1.562-1.126-2.829-2.515-2.829-1.389 0-2.515 1.267-2.515 2.829s1.126 2.829 2.515 2.829c1.389 0 2.515-1.267 2.515-2.829z" fill-rule="evenodd" fill="#6b18b5"/>
      <path d="M433.422 132.924c.001-.843-.418-1.623-1.099-2.044-.681-.422-1.521-.422-2.202 0s-1.1 1.201-1.099 2.044c-.001.843.418 1.623 1.099 2.044.681.422 1.521.422 2.202 0s1.1-1.201 1.099-2.044z" fill-rule="evenodd" fill="#6b18b5"/>
      <path d="M469.246 173.682c-3.246-4.285-8.444-6.09-11.609-4.033-3.165 2.058-3.099 7.199.148 11.483 3.246 4.285 8.444 6.09 11.609 4.032 3.165-2.057 3.099-7.199-.148-11.483z" fill-rule="evenodd" fill="#6b18b5"/>
      <path d="M478.473 252.73c.629-5.258-1.935-9.888-5.728-10.342-3.792-.454-7.377 3.44-8.006 8.698-.629 5.258 1.935 9.888 5.728 10.342 3.792.454 7.377-3.44 8.006-8.698z" fill-rule="evenodd" fill="#6b18b5"/>
      <path d="M480.424 298.741c1.081-5.184-1.074-10.018-4.813-10.797-3.739-.78-7.646 2.791-8.727 7.974-1.081 5.184 1.074 10.018 4.813 10.797 3.739.78 7.646-2.791 8.727-7.974z" fill-rule="evenodd" fill="#6b18b5"/>
      <path d="M489.29 255.672c0-2.083-1.407-3.772-3.143-3.772s-3.143 1.689-3.143 3.772c0 2.083 1.407 3.772 3.143 3.772s3.143-1.689 3.143-3.772z" fill-rule="evenodd" fill="#6b18b5"/>
      <path d="M481.59 264.321l-6.444 7.309s-6.051.157-5.737 2.122c.314 1.965 8.33 7.859 8.252 10.216-.079 2.358 5.344-.55 5.344-.55s4.322-13.124 4.322-13.203c0-.079-.236-9.116-2.593-8.959-2.358.157-2.996 2.898-3.143 3.065z" fill-rule="evenodd" fill="#6b18b5"/>
      <path d="M57.727 261.431c0-1.694-1.373-3.067-3.067-3.067-1.694 0-3.067 1.373-3.067 3.067s1.373 3.067 3.067 3.067 3.067-1.373 3.067-3.067z" fill-rule="evenodd" fill="#6b18b5"/>
      <path d="M60.617 252.059c0-1.788-1.373-3.237-3.067-3.237s-3.067 1.449-3.067 3.237 1.373 3.237 3.067 3.237c1.694 0 3.067-1.449 3.067-3.237z" fill-rule="evenodd" fill="#6b18b5"/>
      <path d="M35.434 207.493c-1.15-2.578-3.546-4.015-5.35-3.21-1.805.805-2.335 3.548-1.185 6.126 1.15 2.578 3.546 4.015 5.35 3.21 1.805-.805 2.335-3.548 1.185-6.126z" fill-rule="evenodd" fill="#6b18b5"/>
      <path d="M43.041 235.257c-1.58-3.341-4.871-5.204-7.35-4.161s-3.208 4.598-1.628 7.94 4.871 5.204 7.35 4.161 3.208-4.598 1.628-7.94z" fill-rule="evenodd" fill="#6b18b5"/>
      <path d="M51.184 255.62c.512-4.174-1.217-8.007-3.863-8.563-2.645-.556-5.205 2.377-5.717 6.55-.512 4.174 1.217 8.007 3.863 8.563 2.645.556 5.205-2.377 5.717-6.551z" fill-rule="evenodd" fill="#6b18b5"/>
      <path d="M38.118 258.593c1.636-3.873 1.024-8.034-1.368-9.294s-5.657.86-7.293 4.733-1.024 8.034 1.368 9.294 5.657-.86 7.293-4.733z" fill-rule="evenodd" fill="#6b18b5"/>
      <path d="M32.162 249.84c0-1.976-1.526-3.578-3.408-3.578s-3.408 1.602-3.408 3.578 1.526 3.578 3.408 3.578 3.408-1.602 3.408-3.578z" fill-rule="evenodd" fill="#6b18b5"/>
      <path d="M29.438 240.985c0-1.788-1.373-3.237-3.067-3.237-1.694 0-3.067 1.449-3.067 3.237s1.373 3.237 3.067 3.237 3.067-1.449 3.067-3.237z" fill-rule="evenodd" fill="#6b18b5"/>
      <path d="M32.338 223.945c0-3.011-1.335-5.452-2.982-5.452-1.647 0-2.982 2.441-2.982 5.452s1.335 5.452 2.982 5.452 2.982-2.441 2.982-5.452z" fill-rule="evenodd" fill="#6b18b5"/>
      <path d="M41.513 222.634c.397-2.985-.604-5.581-2.236-5.798-1.632-.217-3.278 2.026-3.675 5.011-.397 2.985.604 5.581 2.236 5.798 1.632.217 3.278-2.026 3.675-5.011z" fill-rule="evenodd" fill="#6b18b5"/>
      <path d="M106.886 92.201c1.215-4.227-.038-8.476-2.799-9.489-2.761-1.014-5.985 1.592-7.2 5.819-1.215 4.227.038 8.476 2.799 9.489 2.761 1.014 5.985-1.592 7.2-5.819z" fill-rule="evenodd" fill="#6b18b5"/>
      <path d="M94.47 111.013c3.642-3.099 5.198-7.385 3.475-9.573-1.723-2.187-6.071-1.448-9.713 1.652s-5.198 7.385-3.475 9.573c1.723 2.187 6.071 1.448 9.713-1.652z" fill-rule="evenodd" fill="#6b18b5"/>
      <path d="M87.225 100.571c3.601-2.661 5.14-6.34 3.436-8.218s-6.004-1.243-9.605 1.418c-3.601 2.661-5.14 6.34-3.436 8.218s6.004 1.243 9.605-1.418z" fill-rule="evenodd" fill="#6b18b5"/>
      <path d="M115.153 82.206c2.429-1.857 3.466-4.424 2.317-5.734-1.149-1.31-4.049-.867-6.477.989s-3.466 4.424-2.317 5.734c1.149 1.31 4.049.867 6.477-.989z" fill-rule="evenodd" fill="#6b18b5"/>
      <path d="M100.591 100c1.661-2.567 1.772-5.333.249-6.179-1.523-.846-4.104.548-5.765 3.115s-1.772 5.333-.249 6.179c1.523.846 4.104-.548 5.765-3.115z" fill-rule="evenodd" fill="#6b18b5"/>
      <path d="M121.604 89.003c2.612-2.201 3.629-5.117 2.273-6.512-1.356-1.396-4.573-.743-7.185 1.458s-3.629 5.117-2.273 6.512c1.356 1.396 4.573.743 7.185-1.458z" fill-rule="evenodd" fill="#6b18b5"/>
      <path d="M83.633 114.656c2.442-.122 4.284-1.338 4.116-2.716-.168-1.378-2.284-2.397-4.725-2.275-2.441.122-4.284 1.338-4.116 2.716.168 1.378 2.284 2.397 4.725 2.275z" fill-rule="evenodd" fill="#6b18b5"/>
      <path d="M129.603 75.37c1.661-2.567 1.772-5.333.249-6.179-1.523-.846-4.104.548-5.765 3.115s-1.772 5.333-.249 6.179c1.523.846 4.104-.548 5.765-3.115z" fill-rule="evenodd" fill="#6b18b5"/>
      <path d="M406.402 153.257s7.574-11.988 4.645-23.271c-2.928-11.284-15.425-3.31-15.156.706.269 4.015 8.076 9.387 8.55 11.838.474 2.45-.882 9.988 1.96 10.728z" fill-rule="evenodd" stroke="#ef8a10" fill="#ffd200" stroke-width="1.032"/>
      <path stroke-linejoin="round" d="M261.774 53.547s27.292 1.06 27.468 18.724c-.088 2.738 0 6.006-.972 13.866 5.388-2.914 9.009-11.04 8.302-16.251.088-17.93-24.377-30.206-34.799-16.34z" fill-rule="evenodd" stroke="#000" stroke-width="2.4768" fill="#217900"/>
      <path stroke-linejoin="round" d="M244.465 52.753s21.992-4.593 22.168 13.072c.177 17.664-6.977 20.49-6.977 20.49s16.87-3.621 16.957-21.55c.088-17.93-21.727-25.878-32.149-12.012z" fill-rule="evenodd" stroke="#000" stroke-width="2.4768" fill="#217900"/>
      <g>
        <path stroke-linejoin="round" d="M319.139 433.789s102.929-29.075 134.009-155.398c-18.046 129.664-130.667 170.77-130.667 170.77l-3.342-15.373z" fill-rule="evenodd" stroke="#000" stroke-width="NaN" fill="#f7df73"/>
        <path d="M329.698 441.653c3.181 0 11.052-8.707 15.573-9.712 4.521-1.005 5.023-5.526-.167-5.693-5.191-.167-9.712 5.861-9.712 5.861s-4.521 3.851-9.21 4.354c-4.689.502-1.675 6.363 3.516 5.191z" fill-rule="evenodd" fill="#8c1800"/>
        <path d="M388.969 397.437s-10.717 6.195-9.21 7.703c1.507 1.507 11.052-5.861 11.219-6.028.167-.168 4.019-4.856-2.009-1.675z" fill-rule="evenodd" stroke="#8c1800" stroke-width="NaN" fill="#8c1800"/>
        <path d="M351.627 425.587s-3.182-1.172 5.023-4.354c8.205-3.181 7.703-6.865 10.382-8.372 2.679-1.507 8.372-5.526 9.544-3.181s-6.028 7.033-7.703 7.535c-1.675.502-9.88 8.038-12.224 8.707-2.344.67-4.019.335-5.023-.335z" fill-rule="evenodd" fill="#8c1800"/>
        <path d="M404.877 381.708c-7.033 7.87-7.033 7.703-7.033 7.703" stroke="#8c1800" stroke-linecap="round" stroke-width="3.219125" fill="none"/>
        <path d="M415.435 368.812l-6.698 8.205" stroke="#8c1800" stroke-linecap="round" stroke-width="2.9715000000000003" fill="none"/>
        <path d="M425.974 352.072l-7.535 12.056" stroke="#8c1800" stroke-linecap="round" stroke-width="2.723875" fill="none"/>
        <path d="M434.849 334.996l-6.196 12.391" stroke="#8c1800" stroke-linecap="round" stroke-width="2.4762500000000003" fill="none"/>
        <path d="M438.871 325.943l-2.009 4.354" stroke="#8c1800" stroke-linecap="round" stroke-width="2.4762500000000003" fill="none"/>
        <path d="M443.387 314.057l-1.675 5.191" stroke="#8c1800" stroke-linecap="round" stroke-width="1.4857500000000001" fill="none"/>
      </g>
      <g>
        <path stroke-linejoin="round" d="M160.26 215.97s51.958-14.677 67.647-78.444c-9.11 65.454-65.96 86.204-65.96 86.204l-1.687-7.76z" fill-rule="evenodd" stroke="#000" stroke-width="1pt" fill="#f7df73" transform="matrix(-1.963 0 0 2.017 498.794 -4.472)"/>
        <path d="M173.741 439.147c-3.153 0-10.951-8.866-15.431-9.889-4.48-1.023-4.978-5.626.166-5.797 5.144-.17 9.624 5.967 9.624 5.967s4.48 3.921 9.126 4.433c4.646.512 1.659 6.478-3.484 5.285z" fill-rule="evenodd" fill="#8c1800"/>
        <path d="M195.51 197.62s-5.41 3.127-4.649 3.888c.761.761 5.579-2.958 5.663-3.043.085-.085 2.029-2.451-1.014-.845z" fill-rule="evenodd" stroke="#8c1800" stroke-width="1pt" fill="#8c1800" transform="matrix(-1.963 0 0 2.017 498.794 -4.472)"/>
        <path d="M152.01 422.789s3.153-1.193-4.978-4.433c-8.13-3.239-7.633-6.99-10.287-8.525-2.655-1.534-8.296-5.626-9.458-3.239s5.973 7.161 7.633 7.672c1.659.512 9.79 8.184 12.113 8.866 2.323.682 3.982.341 4.978-.341z" fill-rule="evenodd" fill="#8c1800"/>
        <path d="M203.54 189.68c-3.55 3.973-3.55 3.888-3.55 3.888" stroke="#8c1800" stroke-linecap="round" stroke-width="1.625" fill="none" transform="matrix(-1.963 0 0 2.017 498.794 -4.472)"/>
        <path d="M208.87 183.17l-3.381 4.142" stroke="#8c1800" stroke-linecap="round" stroke-width="1.5" fill="none" transform="matrix(-1.963 0 0 2.017 498.794 -4.472)"/>
        <path d="M214.19 174.72l-3.804 6.086" stroke="#8c1800" stroke-linecap="round" stroke-width="1.375" fill="none" transform="matrix(-1.963 0 0 2.017 498.794 -4.472)"/>
        <path d="M218.67 166.1l-3.127 6.255" stroke="#8c1800" stroke-linecap="round" stroke-width="1.25" fill="none" transform="matrix(-1.963 0 0 2.017 498.794 -4.472)"/>
        <path d="M220.7 161.53l-1.014 2.198" stroke="#8c1800" stroke-linecap="round" stroke-width="1.25" fill="none" transform="matrix(-1.963 0 0 2.017 498.794 -4.472)"/>
        <path d="M222.98 155.53l-.845 2.62" stroke="#8c1800" stroke-linecap="round" stroke-width=".75" fill="none" transform="matrix(-1.963 0 0 2.017 498.794 -4.472)"/>
      </g>
      <path stroke-linejoin="round" d="M458.1 255.166c.506 7.925 8.262 15.511 5.227 29.338-3.878 15.681-17.535 52.945-15.175 59.52-4.047-5.564-3.372-10.792-3.71-18.548-.337-7.756 11.297-36.589 12.309-46.368 0-8.768.843-20.739 1.349-23.943z" fill-rule="evenodd" stroke="#000" stroke-width="2.4768" fill="#217900"/>
      <path stroke-linejoin="round" d="M458.1 255.331s12.646 16.018 11.971 28.665c-.674 12.646-7.756 27.484-5.396 34.059-4.047-5.564-5.058-9.105-5.396-16.861-.337-7.756 6.239-16.356 4.89-24.786-1.349-8.431-6.239-21.077-6.07-21.077z" fill-rule="evenodd" stroke="#000" stroke-width="2.4768" fill="#217900"/>
      <path stroke-linejoin="round" d="M43.835 258.871c-.506 7.925-6.407 15.006-3.372 28.833 3.878 15.681 17.705 35.578 15.512 58.34 4.047-5.565 5.227-11.803 5.564-19.559.337-7.756-15.344-33.891-16.356-43.67 0-8.768-.843-20.739-1.349-23.943z" fill-rule="evenodd" stroke="#000" stroke-width="2.4768" fill="#217900"/>
      <path stroke-linejoin="round" d="M43.835 259.047s-12.309 15.512-11.635 28.159c.169 8.431 15.681 43.67 13.32 50.247 4.047-5.564 5.227-4.89 5.058-13.32-4.553-21.582-12.646-35.409-11.297-43.839 1.349-8.431 4.721-21.245 4.553-21.245z" fill-rule="evenodd" stroke="#000" stroke-width="2.4768" fill="#217900"/>
      <path stroke-linejoin="round" d="M254.143 117.172l30.642 94.295 99.149.004-80.211 58.282 30.635 94.298-80.213-58.251-80.217 58.265 30.636-94.294-80.211-58.279h99.149z" stroke-dashoffset="1" stroke="#000" stroke-linecap="square" stroke-width="2.064708" fill="#fff"/>
    </g>
  </g>
</svg>
