<?xml version="1.0" encoding="utf-8"?>
<!-- Generator: Adobe Illustrator 16.0.0, SVG Export Plug-In . SVG Version: 6.00 Build 0)  -->
<!DOCTYPE svg PUBLIC "-//W3C//DTD SVG 1.1//EN" "http://www.w3.org/Graphics/SVG/1.1/DTD/svg11.dtd">
<svg version="1.1"
	 id="svg378" xmlns:rdf="http://www.w3.org/1999/02/22-rdf-syntax-ns#" xmlns:cc="http://creativecommons.org/ns#" xmlns:dc="http://purl.org/dc/elements/1.1/"
	 xmlns="http://www.w3.org/2000/svg" xmlns:xlink="http://www.w3.org/1999/xlink" x="0px" y="0px" width="512px" height="512px"
	 viewBox="0 0 512 512" enable-background="new 0 0 512 512" xml:space="preserve">
<rect y="0" fill="#21428E" width="512" height="512"/>
<g>
	<polygon fill="#FFFFFF" points="294.666,512 217.333,512 217.333,294.049 0,294.049 0,216.496 217.333,216.496 217.333,0 
		294.666,0 294.666,216.496 512,216.496 512,294.049 294.666,294.049 	"/>
</g>
<path id="path8" fill="#FFFFFF" d="M75.092,31.698C70.067,34,66.09,37.35,66.09,39.025c0,1.884,2.931,1.884-0.837,3.141
	c-3.559,1.256-13.189,2.93-19.889,2.722c-2.303,0-7.746-1.465-9.211-1.465c-1.675,0.209,7.118,3.768,3.769,2.93
	c-4.606-1.256-7.327-1.674-3.769,0.629c2.722,1.675,8.793,1.675,17.376,0.627c3.35-0.419,12.143-2.303,15.283-2.721
	c2.093-0.209,2.093,1.675,3.349,1.675c11.305,0.627,31.403,0.209,40.195-1.047c7.328-1.046,10.049-0.627,12.142,1.885
	c4.188,4.815-0.209,9.001-12.142,11.514c-14.654,3.14-20.725,5.862-26.378,11.933c-13.608,14.655,2.303,31.193,32.031,33.497
	c17.376,1.465,28.681,4.814,25.959,7.537c-1.047,1.046-12.561,2.721-25.75,3.768c-28.681,2.303-41.452,6.281-52.338,16.749
	c-6.071,5.861-8.165,9.42-8.165,14.235c0,6.7,0,6.7-11.095,6.7c-5.862,0-14.026-0.837-17.795-2.094
	c-5.862-1.465-6.699-1.465-4.606,1.046c4.188,5.025,16.12,9.421,25.96,9.421c7.536,0,11.723,1.465,18.423,6.28
	c13.398,9.84,28.681,13.607,54.012,13.398c33.287-0.209,52.338-9.002,52.338-23.866c0-11.095-12.561-17.586-38.729-19.888
	c-13.189-1.256-39.149,0.837-50.454,4.186c-2.093,0.629,0.209-0.837,5.234-3.349c6.071-2.931,16.12-5.025,29.728-6.281
	c30.146-2.512,43.754-9.211,43.754-21.772c0-12.142-13.398-19.051-42.08-21.772c-28.262-2.512-30.356-7.537-6.49-14.864
	c16.958-5.024,25.542-12.561,25.542-22.819c0-15.701-8.583-20.935-37.265-22.4C86.816,27.72,82.629,28.139,75.092,31.698z
	 M90.166,36.094c-0.628,1.046-2.303,2.094-3.35,2.094c-1.256,0-1.465-1.047-0.837-2.094C86.606,34.837,88.281,34,89.328,34
	C90.584,34,90.793,34.837,90.166,36.094z M150.668,153.331c3.978,1.465,5.443,2.93,4.187,4.187c-3.56,3.559-26.587,6.7-40.614,5.653
	c-15.492-1.465-32.24-6.49-27.215-8.583C101.052,149.143,137.898,148.516,150.668,153.331z"/>
<g>
	<path id="path8_1_" fill="#FFFFFF" d="M382.42,31.698c-5.023,2.303-9.002,5.653-9.002,7.327c0,1.884,2.932,1.884-0.836,3.141
		c-3.559,1.256-13.189,2.93-19.889,2.722c-2.303,0-7.746-1.465-9.211-1.465c-1.676,0.209,7.117,3.768,3.768,2.93
		c-4.605-1.256-7.328-1.674-3.768,0.629c2.721,1.675,8.793,1.675,17.375,0.627c3.35-0.419,12.143-2.303,15.283-2.721
		c2.094-0.209,2.094,1.675,3.35,1.675c11.305,0.627,31.402,0.209,40.195-1.047c7.326-1.046,10.049-0.627,12.143,1.885
		c4.186,4.815-0.209,9.001-12.143,11.514c-14.654,3.14-20.725,5.862-26.379,11.933c-13.607,14.655,2.303,31.193,32.031,33.497
		c17.377,1.465,28.682,4.814,25.959,7.537c-1.047,1.046-12.561,2.721-25.75,3.768c-28.68,2.303-41.451,6.281-52.338,16.749
		c-6.07,5.861-8.164,9.42-8.164,14.235c0,6.7,0,6.7-11.096,6.7c-5.861,0-14.027-0.837-17.795-2.094
		c-5.861-1.465-6.699-1.465-4.605,1.046c4.188,5.025,16.119,9.421,25.959,9.421c7.537,0,11.725,1.465,18.424,6.28
		c13.398,9.84,28.682,13.607,54.012,13.398c33.287-0.209,52.338-9.002,52.338-23.866c0-11.095-12.561-17.586-38.729-19.888
		c-13.189-1.256-39.15,0.837-50.455,4.186c-2.094,0.629,0.209-0.837,5.234-3.349c6.07-2.931,16.119-5.025,29.727-6.281
		c30.148-2.512,43.756-9.211,43.756-21.772c0-12.142-13.398-19.051-42.08-21.772c-28.262-2.512-30.355-7.537-6.49-14.864
		c16.957-5.024,25.541-12.561,25.541-22.819c0-15.701-8.584-20.935-37.264-22.4C394.145,27.72,389.959,28.139,382.42,31.698z
		 M397.494,36.094c-0.627,1.046-2.303,2.094-3.35,2.094c-1.256,0-1.465-1.047-0.838-2.094c0.629-1.257,2.303-2.094,3.35-2.094
		C397.914,34,398.123,34.837,397.494,36.094z M457.996,153.331c3.98,1.465,5.443,2.93,4.188,4.187
		c-3.559,3.559-26.586,6.7-40.613,5.653c-15.492-1.465-32.24-6.49-27.217-8.583C408.381,149.143,445.227,148.516,457.996,153.331z"
		/>
</g>
<g>
	<path id="path8_2_" fill="#FFFFFF" d="M75.092,328.515c-5.025,2.302-9.002,5.652-9.002,7.329c0,1.884,2.931,1.884-0.837,3.14
		c-3.559,1.256-13.189,2.932-19.889,2.721c-2.303,0-7.746-1.465-9.211-1.465c-1.675,0.209,7.118,3.767,3.769,2.93
		c-4.606-1.254-7.327-1.673-3.769,0.627c2.722,1.677,8.793,1.677,17.376,0.629c3.35-0.419,12.143-2.302,15.283-2.721
		c2.093-0.208,2.093,1.673,3.349,1.673c11.305,0.629,31.403,0.211,40.195-1.046c7.328-1.046,10.049-0.627,12.142,1.884
		c4.188,4.816-0.209,9.004-12.142,11.517c-14.654,3.14-20.725,5.86-26.378,11.934c-13.608,14.651,2.303,31.191,32.031,33.493
		c17.376,1.467,28.681,4.816,25.959,7.54c-1.047,1.046-12.561,2.721-25.75,3.767c-28.681,2.304-41.452,6.281-52.338,16.75
		c-6.071,5.858-8.165,9.419-8.165,14.233c0,6.702,0,6.702-11.095,6.702c-5.862,0-14.026-0.84-17.795-2.096
		c-5.862-1.465-6.699-1.465-4.606,1.048c4.188,5.022,16.12,9.418,25.96,9.418c7.536,0,11.723,1.467,18.423,6.281
		c13.398,9.84,28.681,13.608,54.012,13.398c33.287-0.208,52.338-9,52.338-23.867c0-11.094-12.561-17.585-38.729-19.887
		c-13.189-1.257-39.149,0.837-50.454,4.188c-2.093,0.627,0.209-0.838,5.234-3.351c6.071-2.929,16.12-5.022,29.728-6.279
		c30.146-2.512,43.754-9.212,43.754-21.772c0-12.142-13.398-19.05-42.08-21.773c-28.262-2.512-30.356-7.535-6.49-14.864
		c16.958-5.025,25.542-12.561,25.542-22.818c0-15.702-8.583-20.936-37.265-22.4C86.816,324.537,82.629,324.956,75.092,328.515z
		 M90.166,332.91c-0.628,1.048-2.303,2.096-3.35,2.096c-1.256,0-1.465-1.048-0.837-2.096c0.628-1.256,2.303-2.094,3.35-2.094
		C90.584,330.817,90.793,331.655,90.166,332.91z M150.668,450.151c3.978,1.462,5.443,2.927,4.187,4.183
		c-3.56,3.561-26.587,6.702-40.614,5.654c-15.492-1.467-32.24-6.491-27.215-8.583C101.052,445.961,137.898,445.333,150.668,450.151z
		"/>
</g>
<g>
	<path id="path8_3_" fill="#FFFFFF" d="M382.42,328.515c-5.023,2.302-9.002,5.652-9.002,7.329c0,1.884,2.932,1.884-0.836,3.14
		c-3.559,1.256-13.189,2.932-19.889,2.721c-2.303,0-7.746-1.465-9.211-1.465c-1.676,0.209,7.117,3.767,3.768,2.93
		c-4.605-1.254-7.328-1.673-3.768,0.627c2.721,1.677,8.793,1.677,17.375,0.629c3.35-0.419,12.143-2.302,15.283-2.721
		c2.094-0.208,2.094,1.673,3.35,1.673c11.305,0.629,31.402,0.211,40.195-1.046c7.326-1.046,10.049-0.627,12.143,1.884
		c4.186,4.816-0.209,9.004-12.143,11.517c-14.654,3.14-20.725,5.86-26.379,11.934c-13.607,14.651,2.303,31.191,32.031,33.493
		c17.377,1.467,28.682,4.816,25.959,7.54c-1.047,1.046-12.561,2.721-25.75,3.767c-28.68,2.304-41.451,6.281-52.338,16.75
		c-6.07,5.858-8.164,9.419-8.164,14.233c0,6.702,0,6.702-11.096,6.702c-5.861,0-14.027-0.84-17.795-2.096
		c-5.861-1.465-6.699-1.465-4.605,1.048c4.188,5.022,16.119,9.418,25.959,9.418c7.537,0,11.725,1.467,18.424,6.281
		c13.398,9.84,28.682,13.608,54.012,13.398c33.287-0.208,52.338-9,52.338-23.867c0-11.094-12.561-17.585-38.729-19.887
		c-13.189-1.257-39.15,0.837-50.455,4.188c-2.094,0.627,0.209-0.838,5.234-3.351c6.07-2.929,16.119-5.022,29.727-6.279
		c30.148-2.512,43.756-9.212,43.756-21.772c0-12.142-13.398-19.05-42.08-21.773c-28.262-2.512-30.355-7.535-6.49-14.864
		c16.957-5.025,25.541-12.561,25.541-22.818c0-15.702-8.584-20.936-37.264-22.4C394.145,324.537,389.959,324.956,382.42,328.515z
		 M397.494,332.91c-0.627,1.048-2.303,2.096-3.35,2.096c-1.256,0-1.465-1.048-0.838-2.096c0.629-1.256,2.303-2.094,3.35-2.094
		C397.914,330.817,398.123,331.655,397.494,332.91z M457.996,450.151c3.98,1.462,5.443,2.927,4.188,4.183
		c-3.559,3.561-26.586,6.702-40.613,5.654c-15.492-1.467-32.24-6.491-27.217-8.583C408.381,445.961,445.227,445.333,457.996,450.151
		z"/>
</g>
</svg>
