<svg xmlns="http://www.w3.org/2000/svg" height="512" width="512"><g fill-rule="evenodd" transform="scale(.688 1.032)"><rect height="496.06" width="372.05" x="372.05" fill="#ce0000"/><rect height="496.06" width="372.05" fill="#fff"/></g><g transform="matrix(.35 0 0 .35 40.728 -25.527)"><path d="M183.107 381.661c0 2.314-2.62 4.189-5.852 4.189s-5.852-1.876-5.852-4.189c0-2.314 2.62-4.189 5.852-4.189s5.852 1.876 5.852 4.189z" fill-rule="evenodd" fill="#f1eeee"/><path d="M.06 361.429v106.304h106.302c0 17.712 17.718 35.431 35.436 35.431v106.298h106.296v-106.298c17.718 0 35.436-17.718 35.436-35.431h106.302v-106.304h-106.302c0-17.712-17.718-35.431-35.436-35.431v-106.298h-106.296v106.298c-17.718 0-35.436 17.718-35.436 35.431h-106.302z" fill-rule="evenodd" fill="#c00"/><path d="M3.6 364.969v99.212h106.302c0 17.712 17.712 35.437 35.43 35.437v106.298h99.216v-106.298c17.718 0 35.43-17.724 35.43-35.437h106.302v-99.212h-106.302c0-17.712-17.712-35.437-35.43-35.437v-106.298h-99.216v106.298c-17.718 0-35.43 17.724-35.43 35.437h-106.302z" fill-rule="evenodd" fill="#ffe600"/><path d="M7.04 368.509v92.132h106.296c0 17.712 17.718 35.431 35.436 35.431v106.298h92.124v-106.298c17.718 0 35.436-17.718 35.436-35.431h106.296v-92.132h-106.296c0-17.712-17.718-35.431-35.436-35.431v-106.298h-92.124v106.298c-17.718 0-35.436 17.718-35.436 35.431h-106.296z" fill-rule="evenodd" fill="#707070"/><path d="M10.58 372.049v85.039h106.296c0 17.712 17.718 35.437 35.436 35.437v106.298h85.038v-106.298c17.718 0 35.436-17.724 35.436-35.437h106.296v-85.039h-106.296c0-17.712-17.718-35.431-35.436-35.431v-106.298h-85.038v106.298c-17.718 0-35.436 17.718-35.436 35.431h-106.296z" fill-rule="evenodd" fill="#a0a0a0"/><g fill-rule="evenodd" transform="matrix(.707 -.707 .707 .707 -304.01 361.65)"><path d="M347.238 299.413c0 8.806-14.278 15.945-31.889 15.945s-31.889-7.139-31.889-15.945c0-8.806 14.278-15.945 31.889-15.945s31.889 7.139 31.889 15.945z" fill="#d0d0d0"/><path d="M336.615 299.413c0 8.806-9.519 15.945-21.26 15.945s-21.26-7.139-21.26-15.945c0-8.806 9.519-15.945 21.26-15.945s21.26 7.139 21.26 15.945z" fill="#808080"/><path d="M301.178 290.548h3.543l3.544 10.63 3.543-10.63h3.544l-7.086 21.26-7.086-21.26z" fill="#d0d0d0"/><rect height="21.26" width="3.543" y="290.55" x="322.44" fill="#d0d0d0"/></g><g fill-rule="evenodd" transform="matrix(.707 .707 -.707 .707 247.8 -84.327)"><path d="M347.238 299.413c0 8.806-14.278 15.945-31.889 15.945s-31.889-7.139-31.889-15.945c0-8.806 14.278-15.945 31.889-15.945s31.889 7.139 31.889 15.945z" fill="#d0d0d0"/><path d="M336.615 299.413c0 8.806-9.519 15.945-21.26 15.945s-21.26-7.139-21.26-15.945c0-8.806 9.519-15.945 21.26-15.945s21.26 7.139 21.26 15.945z" fill="#808080"/><path d="M301.178 290.548h3.543l3.544 10.63 3.543-10.63h3.544l-7.086 21.26-7.086-21.26z" fill="#d0d0d0"/><rect height="21.26" width="3.543" y="290.55" x="322.44" fill="#d0d0d0"/></g><g fill-rule="evenodd" transform="matrix(-.707 .707 -.707 -.707 693.78 467.48)"><path d="M347.238 299.413c0 8.806-14.278 15.945-31.889 15.945s-31.889-7.139-31.889-15.945c0-8.806 14.278-15.945 31.889-15.945s31.889 7.139 31.889 15.945z" fill="#d0d0d0"/><path d="M336.615 299.413c0 8.806-9.519 15.945-21.26 15.945s-21.26-7.139-21.26-15.945c0-8.806 9.519-15.945 21.26-15.945s21.26 7.139 21.26 15.945z" fill="#808080"/><path d="M301.178 290.548h3.543l3.544 10.63 3.543-10.63h3.544l-7.086 21.26-7.086-21.26z" fill="#d0d0d0"/><rect height="21.26" width="3.543" y="290.55" x="322.44" fill="#d0d0d0"/></g><g fill-rule="evenodd" transform="matrix(-.707 -.707 .707 -.707 141.97 913.46)"><path d="M347.238 299.413c0 8.806-14.278 15.945-31.889 15.945s-31.889-7.139-31.889-15.945c0-8.806 14.278-15.945 31.889-15.945s31.889 7.139 31.889 15.945z" fill="#d0d0d0"/><path d="M336.615 299.413c0 8.806-9.519 15.945-21.26 15.945s-21.26-7.139-21.26-15.945c0-8.806 9.519-15.945 21.26-15.945s21.26 7.139 21.26 15.945z" fill="#808080"/><path d="M301.178 290.548h3.543l3.544 10.63 3.543-10.63h3.544l-7.086 21.26-7.086-21.26z" fill="#d0d0d0"/><rect height="21.26" width="3.543" y="290.55" x="322.44" fill="#d0d0d0"/></g><path d="M269.29 414.57c0 41.095-34.107 74.409-76.181 74.409s-76.181-33.314-76.181-74.409 34.107-74.409 76.181-74.409 76.181 33.314 76.181 74.409z" transform="matrix(.977 0 0 1 6.263 0)" stroke="#707070" stroke-width="1pt" fill="none"/><path d="M269.29 414.57c0 41.095-34.107 74.409-76.181 74.409s-76.181-33.314-76.181-74.409 34.107-74.409 76.181-74.409 76.181 33.314 76.181 74.409z" transform="matrix(.744 0 0 .762 51.172 98.707)" stroke="#707070" stroke-width="1pt" fill="none"/><path d="M170.08 474.8c0 1.957-1.586 3.543-3.543 3.543s-3.543-1.586-3.543-3.543 1.586-3.543 3.543-3.543 3.543 1.586 3.543 3.543z" fill-rule="evenodd" fill="#d0d0d0"/><path d="M226.773 474.8c0 1.957-1.586 3.543-3.543 3.543s-3.543-1.586-3.543-3.543 1.586-3.543 3.543-3.543 3.543 1.586 3.543 3.543z" fill-rule="evenodd" fill="#d0d0d0"/><path d="M192.522 474.801v3.695h-4.725c-4.725 0-4.725 3.695 0 3.695h4.725v3.694c.016 3.83 4.123 4.292 4.424.299l.3-3.993h4.725c4.724 0 4.724-3.695 0-3.695h-4.725v-3.695c0-3.694-4.724-3.694-4.724 0z" fill-rule="evenodd" fill="#d0d0d0"/><path d="M180.71 162.99v7.087s-3.362 5.423-24.803 7.086h-24.803c.559 6.181 4.732 17.896 3.543 31.89.835 16.291-4.103 31.042-4.103 31.042.56.848-2.018 1.279-6.527.848 3.543-3.544 3.134-13.795 3.543-28.347.409-14.553-13.527-36.456-10.63-42.519l63.78-7.087z" fill-rule="evenodd" transform="matrix(.33 0 0 .296 117.56 374.28)" stroke="#707070" stroke-width="1pt" fill="#d0d0d0"/><path d="M272.84 162.26c20.858-1.077 55.859-.843 55.859-.843s8.253 18.502 7.91 28.723-3.181 18.919-7.077 14.57 1.805-3.531 2.498-14.57c.692-11.039-6.661-22.479-6.661-22.479s-14.962 7.302-37.466 5.828c-22.503-1.474-12.541-10.791-15.063-11.229z" fill-rule="evenodd" transform="matrix(.33 0 0 .296 115.22 366.9)" stroke="#707070" stroke-width="1pt" fill="#d0d0d0"/><path d="M312.21 273.91c20.858-1.077 34.551 2.498 34.551 2.498s8.253 18.502 7.91 28.723-3.181 18.919-7.077 14.57 1.805-3.531 2.498-14.57c.692-11.039-6.661-22.479-6.661-22.479s-14.962 7.302-37.466 5.828c-22.503-1.474-16.084-2.975-18.606-3.413s-3.131 6.958-37.176 7.992c-34.044 1.033-51.407-7.992-51.407-7.992s-3.362 5.423-24.803 7.086h-24.803c.559 6.181 4.732 17.896 3.543 31.89.835 16.291-4.103 31.042-4.103 31.042.56.848-2.018 1.279-6.527.848 3.543-3.544 3.134-13.795 3.543-28.347.409-14.553-13.527-36.456-10.63-42.519s18.333-.395 21.26-3.544c2.926-3.149-13.749-25.333-10.63-46.063 3.12-20.731 20.792-14.886 42.52-14.173 21.727.712 69.865 7.003 81.496 0 11.632-7.003 6.598-32.929 17.717-49.606 7.086-10.63 17.716-14.173 28.346-14.173 7.087 0 17.717 28.346 17.717 35.433l-3.544 3.543h-3.543v3.543c-8.088.907-9.216-7.732-14.173-14.173-2.13 9.984 7.086 42.52 7.086 63.78 0 17.716-6.622 25.525-7.038 24.276z" fill-rule="evenodd" transform="matrix(.33 0 0 .296 104.56 339.3)" stroke="#707070" stroke-width="1pt" fill="#d0d0d0"/><path d="M209.06 131.1c.294 7.062-27.384 22.895-29.637 29.164s7.036 9.744 4.163 13.321c-2.872 3.578-5.24 2.251-5.828 2.914-.588.664-10.407-24.56-10.407-24.56s25.961-13.084 24.977-18.733-19.171-9.085-22.479-23.312c-3.309-14.227-1.474-41.71-4.163-47.456-2.689-5.747-34.552-11.23-34.579-19.92-.027-8.69 32.75-32.541 36.293-36.085 3.543-3.543 7.087 3.543 3.543 7.087-3.543 3.543-29.206 25.455-29.206 28.998 0 3.543 21.26 7.087 28.347 7.087 7.086 0 10.63-3.543 10.63-7.087.042-3.066-7.087-3.543-7.087-10.63 0-7.087 3.543-10.63 10.63-10.63 3.543 0 10.356 4.537 10.63 10.63.274 6.093-6.305 6.609-7.087 10.63-.781 4.021 7.087 7.087 14.173 7.087 7.087 0 31.282 20.608 34.825 24.152 3.544 3.543 7.087 3.543 3.544 7.087-3.543 3.543-1.468 7.738-5.012 4.195-3.017-3.423-3.543-7.087-3.543-7.087-.306-3.22-26.27-17.716-29.814-14.173-3.543 3.543 0 46.064 0 49.606 0 7.086 7.381 7.062 7.087 17.716z" fill-rule="evenodd" transform="matrix(.33 0 0 .296 116.1 372.43)" stroke="#707070" stroke-width="1pt" fill="#d0d0d0"/><rect fill-rule="evenodd" height="14.662" width="14.045" y="386.9" x="170.23" fill="#a7a7a7"/><rect transform="matrix(.554 .832 -.882 .471 0 0)" fill-rule="evenodd" rx="1.27" ry=".57" height="1.139" width="87.553" y="64.582" x="405.61" fill="#808080"/><path d="M180.71 42.52c0 3.914-3.173 7.087-7.087 7.087s-7.087-3.173-7.087-7.087 3.173-7.087 7.087-7.087 7.087 3.173 7.087 7.087z" fill-rule="evenodd" transform="matrix(.33 0 0 .296 114.05 362.81)" stroke="#707070" stroke-width="1pt" fill="#d0d0d0"/><path d="M214.7 394.443c0 .868-5.434 1.886-11.705 1.886s-11.704-1.019-11.704-1.886c0-.868 5.434 1.258 11.704 1.258s11.705-2.125 11.705-1.258z" fill-rule="evenodd" fill="#808080"/><rect fill-rule="evenodd" height="4.189" width="11.704" y="401.56" x="171.4" fill="#a7a7a7"/><path d="M209.453 391.243c-1.135 2.126-2.212 3.643-2.405 3.388-.193-.255.57-2.184 1.705-4.31 1.135-2.126 2.212-3.643 2.405-3.388.193.255-.57 2.184-1.705 4.31z" fill-rule="evenodd" fill="#808080"/><path d="M212.432 396.74c-1.292 1.134-2.369 1.868-2.406 1.639-.036-.228.982-1.333 2.274-2.467 1.292-1.134 2.369-1.868 2.406-1.639.036.228-.982 1.333-2.274 2.467z" fill-rule="evenodd" fill="#808080"/><path d="M210.927 394.09c.953 1.733 1.581 3.2 1.403 3.277-.178.076-1.095-1.268-2.048-3.001-.953-1.733-1.581-3.2-1.403-3.277.178-.076 1.095 1.268 2.048 3.001z" fill-rule="evenodd" fill="#808080"/><path d="M210.017 403.13c0 .289-3.668.524-8.193.524s-8.193-.234-8.193-.524c0-.289 3.668-.524 8.193-.524 4.525 0 8.193.234 8.193.524z" fill-rule="evenodd" fill="#808080"/><path d="M183.107 402.081c0 .289-2.62.524-5.852.524s-5.852-.234-5.852-.524c0-.289 2.62-.524 5.852-.524s5.852.234 5.852.524z" fill-rule="evenodd" fill="#808080"/><path d="M375.49 171.92s8.938 36.133 47.04 36.633 51.215-10.838 35.8-29.972-44.084-13.182-40.379 3.33-10.752 22.019-14.154 10.407c-3.401-11.611-17.045-45.99 7.493-48.289 24.539-2.299 76.511-14.817 89.501 9.159 12.991 23.975-14.675 45.707 6.244 50.786 20.92 5.079 23.893-5.809 59.896-9.094 36.004-3.286 49.742 11.102 62.076 9.094 12.334-2.007 10.59-37.258.832-46.207-9.758-8.95-28.5-10.586-33.303-20.398-4.802-9.812-17.87-1.825-16.651-12.905s18.53 7.625 18.733 1.966c.006-.177 2.858-3.93 3.434-4.878-2.178-.828-3.421.512-5.056 1.948 1.775-2.36 1.665-3.448 2.26-5.378-.31-.727-2.461 2.734-2.825 2.011s2.505-5.632 1.206-3.852c-.45.513-3.872 3.329-3.91 1.389.058-.787 1.789-2.813 1.177-3.912-.493-.914-3.093 1.064-3.428 1.29 1.487-3.309 1.382-3.269-.048-5.721-1.249-2.452-2.16-2.395-4.2.374.849-3.979 1.08-4.821-.969-6.329-1.685-1.521-1.76-2.956-3.856 4.162.798-7.618-1.343-7.95-.454-11.562.529-3.312 3.323-4.709 7.927-3.978 8.945.13 13.728 17.954 16.651 17.9 2.924-.054 6.196-18.882 18.733-11.24 12.537 7.643 14.085 9.202 20.398 13.738 6.313 4.535-4.435 11.457-.833 20.398 3.602 8.94 28.229 38.804 21.231 69.935-6.999 31.131-25.026 36.055-26.642 49.538-1.617 13.483 57.067 7.951 72.017 12.489 14.949 4.537 24.375 23.11 24.977 26.225l-26.226 2.914s-13.776-11.837-46.624-12.904c-32.847-1.068-45.355-23.109-57.651-25.871s-38.501 4.63-53.149 3.543c-14.649-1.087-29.488-4.943-38.976-7.086-9.489-2.142-56.693 35.433-56.529 44.184-9.84-.621-33.009-2.709-32.054-1.665.955 1.043 4.152-17.038 22.214-20.216 18.061-3.179 35.645-17.573 35.062-27.025-.583-9.451 3.487-41.876 4.995-55.782s8.27-20.616 6.661-27.891c-1.609-7.274-22.244-14.778-42.045-14.57-19.801.209-41.77 2.057-44.959 9.991-3.188 7.934-.781 30.964 3.331 28.308 4.111-2.657-.994-17.712 3.33-20.815 4.324-3.102 15.405-5.843 25.809-6.244 10.405-.401 28.494 14.729 28.308 19.565-.186 4.837 5.821 20.934-2.498 27.059-8.318 6.124-25.332 8.862-41.628 7.493-16.297-1.369-32.786-10.674-38.715-16.651-5.928-5.977-9.574-24.145-9.574-25.394z" fill-rule="evenodd" transform="matrix(.216 0 0 .13 76.265 416.17)" stroke="#808080" stroke-width="1pt" fill="#d0d0d0"/><path d="M209.473 431.552c0 .519-.42.939-.939.939-.519 0-.939-.42-.939-.939 0-.519.42-.939.939-.939.519 0 .939.42.939.939z" fill-rule="evenodd"/><path d="M253.616 417.966l4.558.983 7.613-5.21-.59 2.735-3.966 2.649c-.739.486-1.471.931-2.192 1.334.452.632.953 1.385 1.5 2.265l2.454 3.973-.565 2.619-4.739-8.117-4.558-.983.485-2.249z" fill="#d0d0d0"/><path d="M245.86 384.453l8.816-4.061-2.395-5.201 1.18-.544 5.763 12.512-1.18.544-2.405-5.221-8.816 4.061-.962-2.09z" fill="#d0d0d0"/><path d="M232.197 367.837l8.117-7.433 1.593 1.74-.209 12.567 6.373-5.835 1.489 1.626-8.117 7.433-1.593-1.74.213-12.573-6.378 5.841-1.488-1.625z" fill="#d0d0d0"/><path d="M196.728 353.512l1.331-10.925 2.282.278-1.174 9.635 8.498 1.035-.157 1.29-10.78-1.313z" fill="#d0d0d0"/><path d="M179.281 355.09l-1.97-10.829 2.263-.412 1.737 9.55 8.421-1.532.233 1.278-10.684 1.943z" fill="#d0d0d0"/><path d="M147.024 370.994l-.807-1.008 5.743-4.608 2.553 3.188c-.527 1.152-1.167 2.216-1.922 3.193-.76.973-1.634 1.857-2.621 2.647-1.331 1.066-2.689 1.857-4.067 2.372-1.378.506-2.617.639-3.72.4-1.101-.239-1.991-.781-2.667-1.625-.669-.836-1.019-1.835-1.049-2.997-.025-1.171.339-2.348 1.093-3.529.755-1.181 1.808-2.313 3.16-3.395.981-.785 1.946-1.392 2.898-1.822.956-.437 1.803-.658 2.541-.659.738 0 1.456.193 2.153.585l-1.394 1.577c-.555-.275-1.082-.416-1.585-.423-.502-.008-1.095.138-1.774.439-.682.297-1.368.719-2.053 1.268-.82.656-1.464 1.305-1.934 1.944-.474.635-.793 1.231-.956 1.784-.158.55-.214 1.06-.171 1.531.08.809.369 1.523.867 2.144.613.766 1.331 1.242 2.158 1.426.833.179 1.747.075 2.742-.311.996-.387 1.943-.94 2.837-1.656.777-.622 1.461-1.324 2.051-2.103.588-.784.987-1.438 1.198-1.958l-1.281-1.6-3.99 3.194z" fill="#d0d0d0"/><path d="M146.675 450.122l-8.974 6.372-6.789-9.56 1.059-.752 5.457 7.685 2.779-1.973-4.723-6.65 1.059-.752 4.723 6.65 4.076-2.895 1.332 1.875z" fill="#d0d0d0"/><path d="M133.445 435.804c1.276-.36 2.131-1.184 2.562-2.473.425-1.295.407-2.759-.054-4.395-.47-1.665-1.227-2.929-2.271-3.793-1.047-.871-2.251-1.114-3.615-.729-.862.243-1.549.687-2.058 1.332-.517.639-.825 1.453-.926 2.441-.107.984-.006 2.026.306 3.13.442 1.565 1.166 2.82 2.169 3.76.997.934 2.293 1.176 3.887.726zm.623 2.287c-1.758.496-3.345.14-4.757-1.072-1.418-1.209-2.46-2.994-3.125-5.35-.436-1.544-.596-3.003-.479-4.375s.504-2.498 1.16-3.382c.649-.889 1.503-1.484 2.563-1.783 1.074-.303 2.131-.231 3.173.213 1.041.447 1.958 1.235 2.75 2.365.789 1.134 1.388 2.426 1.798 3.879.445 1.575.6 3.052.469 4.425-.132 1.377-.524 2.503-1.177 3.376-.653.874-1.445 1.442-2.373 1.704z" fill="#d0d0d0"/><path d="M134.99 415.752l-11.003-.248.174-7.705c.035-1.55.161-2.724.381-3.525.213-.803.574-1.439 1.086-1.908.512-.47 1.069-.7 1.675-.687.78.018 1.429.432 1.947 1.242.517.811.83 2.051.937 3.721.198-.603.392-1.061.579-1.373.405-.663.907-1.289 1.506-1.877l3.063-2.954-.065 2.892-2.341 2.249c-.676.656-1.193 1.197-1.554 1.624-.36.427-.613.812-.762 1.156-.147.337-.252.683-.316 1.038-.042.26-.068.686-.081 1.277l-.06 2.669 4.885.11-.052 2.299zm-6.095-2.438l.112-4.944c.024-1.05-.024-1.873-.147-2.468-.126-.596-.337-1.052-.631-1.366-.298-.317-.625-.477-.98-.485-.52-.012-.955.28-1.304.873-.349.585-.538 1.52-.567 2.808l-.124 5.501 3.64.082z" fill="#d0d0d0"/><path d="M159.468 364.898l.075-12.872 2.127-1.273 11.756 5.79-2.248 1.346-3.451-1.818-6.236 3.732.074 3.839-2.097 1.255zm1.982-6.453l5.056-3.026-3.12-1.685c-.952-.51-1.695-.952-2.231-1.324.173.718.265 1.48.275 2.284l.021 3.751z" fill="#d0d0d0"/><path d="M214.606 355.002l11.876-4.965 2.001 1.458-.731 13.085-2.118-1.543.324-3.887-5.874-4.28-3.505 1.57-1.974-1.438zm6.715-.699l4.762 3.47.328-3.532c.099-1.074.215-1.931.348-2.57-.595.438-1.26.821-1.995 1.146l-3.443 1.486z" fill="#d0d0d0"/><path d="M250.748 395.276l10.704-2.561 1.793 7.495c.36 1.506.537 2.674.529 3.506-.002.828-.19 1.535-.565 2.122-.375.585-.856.948-1.445 1.089-.759.182-1.492-.053-2.199-.706-.706-.65-1.325-1.771-1.854-3.359-.038.635-.108 1.129-.21 1.478-.223.744-.55 1.475-.979 2.196l-2.21 3.638-.673-2.812 1.691-2.77c.487-.807.849-1.463 1.089-1.966.239-.504.386-.943.442-1.314.057-.361.071-.722.042-1.081-.026-.263-.109-.682-.247-1.258l-.621-2.594-4.752 1.137-.535-2.238zm6.515.807l1.15 4.807c.245 1.023.501 1.807.771 2.352.274.544.593.929.958 1.161.368.228.725.301 1.071.218.506-.121.852-.512 1.039-1.175.188-.655.133-1.609-.167-2.862l-1.28-5.349-3.541.847z" fill="#d0d0d0"/></g></svg>