<svg xmlns="http://www.w3.org/2000/svg" height="512" width="512" version="1"><defs><clipPath id="a"><rect fill-opacity=".67" height="708.66" width="708.66" x="179.71"/></clipPath></defs><g fill-rule="evenodd" clip-path="url(#a)" transform="matrix(.722 0 0 .722 -129.84 0)"><rect height="708.66" width="1063" fill="#f41408"/><rect height="236.22" width="1063" y="472.44" fill="#21873b"/><rect height="236.22" width="1063"/><path d="M401.415 214.037c30.876-75.192 116.965-111.159 192.157-80.283 37.867 15.549 64.692 42.361 80.258 80.228l-272.415.056z" fill="#f31509"/><path d="M365.47 223.756c-32.459-2.415-66.953-9.858-72.581-11.907-5.628-2.05-5.845-5.473-5.152-8.094.694-2.622 4.286-5.598 8.48-4.489 7.864 2.08 39.846 10.539 69.253 24.489z" fill="#f31509"/><path d="M537.98 92.623c-5.825-32.023-7.295-67.28-6.727-73.242.568-5.963 3.827-7.033 6.538-7.021 2.712.012 6.496 2.74 6.477 7.079-.036 8.135-.181 41.216-6.288 73.186z" fill="#f31509"/><path d="M553.951 93.365c-3.059-32.404-1.503-67.657-.426-73.549 1.077-5.892 4.416-6.679 7.116-6.435 2.701.244 6.237 3.287 5.846 7.608-.733 8.102-3.712 41.048-12.536 72.378z" fill="#f31509"/><path d="M568.423 95.328c-.383-32.546 4.069-67.551 5.627-73.335 1.558-5.784 4.95-6.293 7.621-5.828 2.672.466 5.946 3.789 5.201 8.063-1.397 8.014-7.077 40.604-18.449 71.101z" fill="#f31509"/><path d="M583.668 98.737c2.482-32.454 9.996-66.932 12.057-72.556 2.061-5.624 5.485-5.834 8.104-5.135 2.62.699 5.589 4.297 4.471 8.489-2.097 7.86-10.622 39.824-24.633 69.203z" fill="#f31509"/><path d="M598.672 103.518c5.353-32.105 15.898-65.78 18.45-71.199 2.552-5.419 5.981-5.324 8.528-4.395 2.548.929 5.186 4.776 3.7 8.852-2.786 7.643-14.115 38.724-30.678 66.742z" fill="#f31509"/><path d="M612.679 109.367c8.078-31.53 21.464-64.18 24.47-69.361 3.006-5.181 6.414-4.793 8.873-3.65 2.459 1.143 4.758 5.202 2.93 9.136-3.429 7.377-17.374 37.375-36.272 63.875z" fill="#f31509"/><path d="M626.448 116.581c10.808-30.702 27.001-62.054 30.449-66.952 3.448-4.898 6.809-4.213 9.158-2.859 2.35 1.354 4.285 5.599 2.118 9.358-4.062 7.048-20.58 35.71-41.726 60.454z" fill="#f31509"/><path d="M639.479 124.928c13.443-29.643 32.306-59.465 36.168-64.044 3.862-4.579 7.15-3.603 9.372-2.05 2.223 1.554 3.78 5.951 1.295 9.507-4.661 6.667-23.613 33.781-46.836 56.588z" fill="#f31509"/><path d="M651.74 134.386c15.979-28.356 37.373-56.418 41.62-60.642 4.247-4.224 7.438-2.965 9.516-1.224 2.079 1.742 3.246 6.258.46 9.584-5.225 6.235-26.472 31.591-51.596 52.284z" fill="#f31509"/><path d="M663.165 144.905c18.398-26.85 42.165-52.933 46.765-56.769 4.6-3.836 7.669-2.304 9.586-.387 1.918 1.917 2.687 6.518-.38 9.587-5.75 5.754-29.134 29.154-55.971 47.57z" fill="#f31509"/><path d="M673.643 156.429c20.682-25.132 46.646-49.03 51.565-52.448 4.919-3.418 7.841-1.622 9.583.455 1.743 2.078 2.104 6.729-1.22 9.517-6.233 5.227-31.579 26.486-59.929 42.476z" fill="#f31509"/><path d="M682.669 168.237c22.714-23.313 50.587-44.953 55.775-47.947 5.188-2.994 7.949-.96 9.511 1.256 1.563 2.217 1.534 6.881-2.012 9.381-6.649 4.687-33.686 23.749-63.275 37.31z" fill="#f31509"/><path d="M690.835 181.036c24.625-21.284 54.248-40.46 59.672-42.999 5.425-2.539 8.002-.276 9.369 2.065 1.367 2.342.939 6.987-2.807 9.175-7.025 4.101-35.594 20.78-66.235 31.76z" fill="#f31509"/><path d="M698.408 195.629c26.49-18.913 57.761-35.264 63.397-37.29 5.637-2.026 7.994.466 9.138 2.924 1.145 2.459.288 7.044-3.645 8.875-7.375 3.433-37.365 17.396-68.891 25.491z" fill="#f31509"/><path d="M704.183 209.713c28.015-16.571 60.573-30.179 66.362-31.714 5.79-1.535 7.924 1.15 8.853 3.697.929 2.548-.317 7.043-4.393 8.53-7.642 2.788-38.72 14.126-70.824 19.488z" fill="#f31509"/><path d="M708.846 224.643c29.366-14.038 62.996-24.724 68.898-25.744 5.903-1.019 7.792 1.844 8.493 4.462.701 2.62-.936 6.988-5.127 8.11-7.858 2.104-39.814 10.66-72.265 13.172z" fill="#f31509"/><path d="M522.354 93.228c-8.762-31.347-13.486-66.317-13.472-72.306.014-5.99 3.16-7.357 5.861-7.596 2.701-.239 6.722 2.128 7.104 6.449.717 8.103 3.632 41.056.508 73.454z" fill="#f31509"/><path d="M506.988 95.212c-11.464-30.463-19.224-64.886-19.732-70.854-.509-5.968 2.506-7.605 5.175-8.079 2.67-.474 6.882 1.533 7.64 5.805 1.421 8.01 7.202 40.582 6.918 73.129z" fill="#f31509"/><path d="M491.714 98.573c-14.104-29.334-24.866-62.94-25.898-68.84-1.032-5.9 1.826-7.796 4.443-8.503 2.618-.707 6.99.921 8.121 5.109 2.121 7.853 10.749 39.79 13.334 72.235z" fill="#f31509"/><path d="M477.329 103.067c-16.544-28.031-30.12-60.602-31.65-66.393-1.53-5.791 1.158-7.923 3.705-8.85 2.549-.927 7.043.324 8.526 4.401 2.781 7.645 14.089 38.733 19.419 70.842z" fill="#f31509"/><path d="M463.258 108.827c-18.884-26.511-35.201-57.799-37.221-63.438-2.02-5.639.475-7.993 2.934-9.134 2.46-1.142 7.045-.281 8.871 3.654 3.425 7.379 17.355 37.384 25.416 68.919z" fill="#f31509"/><path d="M449.05 116.162c-21.195-24.702-40.264-54.394-42.783-59.828-2.52-5.434-.247-8.003 2.099-9.362 2.347-1.359 6.991-.914 9.165 2.841 4.076 7.04 20.652 35.669 31.52 66.349z" fill="#f31509"/><path d="M436.106 124.357c-23.248-22.78-44.809-50.715-47.788-55.911-2.979-5.196-.937-7.952 1.283-9.508 2.221-1.556 6.886-1.514 9.376 2.039 4.668 6.662 23.653 33.753 37.13 63.381z" fill="#f31509"/><path d="M423.986 133.476c-25.107-20.713-48.973-46.706-52.384-51.629-3.412-4.923-1.612-7.843.467-9.583 2.08-1.74 6.731-2.096 9.515 1.231 5.22 6.239 26.447 31.612 42.403 59.981z" fill="#f31509"/><path d="M412.2 144.08c-26.854-18.392-52.942-42.154-56.779-46.753-3.837-4.599-2.305-7.668-.389-9.586 1.917-1.919 6.518-2.688 9.587.378 5.755 5.749 29.161 29.127 47.582 55.961z" fill="#f31509"/><path d="M402.03 154.955c-28.301-16.077-56.289-37.568-60.498-41.83-4.209-4.262-2.94-7.448-1.191-9.52 1.749-2.073 6.27-3.225 9.585-.427 6.217 5.246 31.499 26.581 52.105 51.777z" fill="#f31509"/><path d="M392.279 167.391c-29.618-13.497-59.406-32.416-63.977-36.286-4.572-3.87-3.59-7.157-2.033-9.376 1.558-2.22 5.958-3.769 9.509-1.277 6.659 4.673 33.738 23.676 56.501 46.94z" fill="#f31509"/><path d="M383.549 180.856c-30.715-10.769-62.089-26.922-66.991-30.364-4.902-3.442-4.222-6.804-2.871-9.154 1.351-2.351 5.594-4.292 9.355-2.13 7.053 4.053 35.737 20.534 60.507 41.649z" fill="#f31509"/><path d="M376.302 194.54c-31.537-8.051-64.199-21.408-69.382-24.41-5.184-3.002-4.798-6.41-3.658-8.869 1.141-2.46 5.198-4.763 9.134-2.937 7.38 3.423 37.39 17.342 63.907 36.217z" fill="#f31509"/><path d="M370.489 208.26c-32.101-5.38-65.767-15.952-71.184-18.509-5.417-2.557-5.319-5.985-4.388-8.532.931-2.547 4.781-5.182 8.856-3.693 7.641 2.792 38.712 14.147 66.717 30.734z" fill="#f31509"/><path d="M365.47 223.756c-32.459-2.415-66.953-9.858-72.581-11.907-5.628-2.05-5.845-5.473-5.152-8.094.694-2.622 4.286-5.598 8.48-4.489 7.864 2.08 39.846 10.539 69.253 24.489z" fill="#f31509"/><rect height="19.174" width="527.66" y="214.74" x="275.33"/></g></svg>