<svg xmlns="http://www.w3.org/2000/svg" height="512" width="512"><g fill-rule="evenodd" transform="matrix(.571 0 0 1 0 15.937)"><rect height="512" width="896" y="-15.937" fill="#fff"/><rect height="512" width="300.03" y="-15.937" fill="#0b7226"/><rect height="512" width="298.3" y="-15.937" x="597.7" fill="#bc0000"/></g><g transform="matrix(.422 0 0 .422 -24.916 315.31)"><path d="M398.4-85.658c.194-.252 8.762-15.253 7.746-12.836 3.947 3.024 11.154.158 5.925-6.644l4.152-7.601c2.875-5.385-3.283-7.706-5.719-3.982l-4.417 7.401c-7.758-3.683-8.268 4.979-4.556 6.492-1.647 2.332-4.452 6.174-6.098 8.506.988 2.888 1.978 5.776 2.967 8.664z" fill-rule="evenodd" fill="#9c4314"/><path d="M397.37-89.011c-.255-.189-15.376-8.544-12.945-7.563 2.969-3.989 0-11.154-6.726-5.829-2.77-1.235-4.891-2.812-7.66-4.045-5.425-2.797-7.658 3.392-3.901 5.774l7.464 4.312c-3.573 7.809 5.096 8.197 6.555 4.464 2.356 1.614 11.48 6.903 13.835 8.517l3.378-5.63z" fill-rule="evenodd" fill="#9c4314"/><path d="M452.07 2.647c.05-.314.439-17.585.697-14.976 4.911.779 9.883-5.174 2.045-8.664l.031-8.661c-.037-6.104-6.557-5.212-6.925-.778l-.359 8.612c-8.576.457-4.899 8.316-.914 7.878-.338 2.835-.974 7.549-1.311 10.384l6.736 6.205z" fill-rule="evenodd" fill="#9c4314"/><path d="M449.57.186c-.314-.045-17.589-.189-14.984-.485.71-4.922-5.313-9.808-8.691-1.921-3.023.233-5.639-.143-8.662.091-6.102.124-5.118 6.63-.68 6.935l8.617.237c.578 8.568 8.385 4.78 7.89.802l14.543 1.522 1.967-7.181z" fill-rule="evenodd" fill="#9c4314"/><path d="M628.31 59.395s5.925 7.998 8.591 8.294c8.294.592 74.057 0 74.057 0l2.37-1.481 4.147-7.11 11.849-7.998c14.812-3.555 28.142-7.109 42.954-9.479-1.185-8.788-10.071-6.912-14.811-10.368-1.481-1.383-1.186-2.765-.297-4.148l32.882-15.107v-3.555c-23.304 2.765-44.83 7.306-69.911 8.294l-85.611 35.252-6.22 7.406z" fill-rule="evenodd" stroke="#000" stroke-width="2.5" fill="#42b2f3"/><path d="M391.62-97.904h-.297c1.486 0 .305.099 0-3.555" stroke="#000" stroke-width="1pt" fill="none"/><path d="M392.89-93.966c-4.443-15.7-11.624-29.458-28.381-33.525-3.142-.715-5.374-9.689-.138-9.27l3.022.622c2.933 1.048 7.499-1.265 5.614-6.257 0-.592-5.593-10.52-5.593-10.816-1.047-1.134.898-7.499 5.925-4.147 2.37 1.555 4.74 5.206 8.157 5.924 1.257-.21 2.088-4.111 1.879-7.131 0-.296.296-10.239.296-10.239-1.191-5.991 4.111-9.049 8.366-4.566l.261 2.978c.975 1.983 2.16 2.292 3.554.296l5.629-5.629c3.342-1.242 5.428-2.484 5.628 4.444 0 0-4.611 5.78-6.792 7.875-1.134 1.675-3.597 3.953.679 5.21.296 0 6.113.838 6.113.838 3.98 1.654 4.399 6.032 1.467 6.43 0 0-3.103 3.62-8.549 6.639-1.676 1.345-3.055 2.963-1.589 4.812 3.142 1.221 2.142.051 7.501.051 4.522-1.047 4.103 10.026-4.066 9.276-2.445.584-5.671.342-6.996 4.249-.592 3.043-.738 8.885-.738 10.367-.507 7.051.529 16.83.529 17.126.592 5.036-1.185 3.258-1.778 4.443z" fill-rule="evenodd" stroke="#286726" stroke-width="4.625" fill="#008d00"/><path d="M441.38-3.632c-.578-.737-15.423-17.004-32.57-15.176-3.199.388-8.329-7.306-3.259-8.68l3.894-.224c2.695-1.891-2.179-7.708-4.38-5.688-.199-.557-5.878 1.216-8.286.727-7.451-.714-10.706-9.04-5.262-12.197 3.385 1.293 9.785 1.413 13.244.935 3.42-1.041 1.836-4.154-1.477-4.619-4.715-.698-23.735-5.333-22.056-7.64-3.144-5.238-.023-9.277 5.495-6.494 4.555 2.762 5.086 1.211 3.977-.85-1.35-3.916-2.647-2.977-2.846-6.376-.336-2.19.376-4.17 3.607-2.793 1.363-1.148 3.606 7.053 12.074 3.944 1.567 1.309 2.9-8.873 8.778-7.324 4.405 1.363 1.395 5.944 2.256 12.411.705 4.26 4.961 3.282 5.546 1.07-.922-9.787 8.645-9.958 9.739-6.652.909 2.417 1.726 9.001.569 15.19-.63 3.146-.131 9.39 1.874 10.635 3.369.089 1.194-.675 3.512-4.162 3.903-2.512 9.973 6.585 2.869 11.153-7.492 1.615 4.246 30.162 5.235 31.755-1.085 1.168-2.374-.26-2.533 1.055z" fill-rule="evenodd" stroke="#286726" stroke-width="4.625" fill="#008d00"/><path d="M533.4 72.726c0-.318-2.321-17.436-1.657-14.9 4.972 0 8.95-6.658.662-8.877l-1.326-8.559c-.993-6.023-7.293-4.121-6.961.316l.994 8.562c-8.398 1.795-3.536 8.981.332 7.924.11 2.853.22 7.608.331 10.461l7.625 5.073z" fill-rule="evenodd" fill="#9c4314"/><path d="M533.1 70.707c-.317.004-17.401 2.568-14.875 1.868-.07-4.972-6.784-8.855-8.885-.536-2.949.704-5.591.742-8.54 1.447-6.008 1.078-4.017 7.35.414 6.956l8.548-1.116c1.913 8.372 9.03 3.408 7.918-.444 2.852-.15 11.751-.624 14.602-.775l.818-7.4z" fill-rule="evenodd" fill="#9c4314"/><path d="M527.27-22.91c41.812 24.682 52.557 21.098 50.812 10.163 2.004 0 2.437 1.745 8.373-2.629-.827 16.17 16.78 25.466 27.513 23.515 9.686.625 8.436 13.435 8.436 13.435l-3.231 31.512-.442-1.562c-11.916-2.834-35.392-3.168-44.184-5.065 40.303-27.494-30.995-28.247-37.373-29.184-4.816-.625-1.379-5.311 1.432-6.561 22.183-4.374-20.851-25.381-19.731-27.88-2.628-1.562.184-2.812.184-2.812l8.211-2.932z" fill-rule="evenodd" stroke="#000" stroke-width="2.625" fill="#33b1e9"/><path d="M631.68-1.998c-7.27 0-13.122 5.852-13.122 13.122-2.187 9.998-1.875 24.057 0 37.491 0 7.269 5.852 13.122 13.122 13.122 28.951 3.124 60.09 2.187 86.854 0 7.27 0 13.122-5.853 13.122-13.122 3.437-11.872 2.499-24.369 0-37.491 0-7.27-5.852-13.122-13.122-13.122-28.951-1.25-58.528-2.812-86.854 0z" fill-rule="evenodd" stroke="#000" stroke-width="3.75" fill="#983d25"/><path stroke-linejoin="round" d="M533.89-358.88l-19.817 17.163c-8.139 3.598-16.987 8.08-10.617 27.249-3.716 24.595 16.102 28.487 33.442 23.356l6.698-17.137c-7.668-1.179-11.77 1.507-18.73 1.035-4.778-.766-5.131-4.364-3.362-6.723l21.763-10.97-.531-1.416c-6.193 3.185-10.615 4.247-17.162 6.901-5.191 1.829-6.665-4.837-4.601-7.786 0 0 13.447-19.286 13.447-19.463 1.126-4.056.346-10.885-.53-12.209z" fill-rule="evenodd" stroke="#000003" stroke-linecap="round" stroke-width="2.5" fill="#268728"/><path d="M275.88 473.6c0 5.734-4.649 10.383-10.383 10.383-5.734 0-10.383-4.649-10.383-10.383 0-5.734 4.649-10.383 10.383-10.383 5.734 0 10.383 4.649 10.383 10.383z" fill-rule="evenodd" transform="translate(313.41 -495.3)" stroke="#000" stroke-width="2.5" fill="#fff"/><path d="M275.88 473.6c0 5.734-4.649 10.383-10.383 10.383-5.734 0-10.383-4.649-10.383-10.383 0-5.734 4.649-10.383 10.383-10.383 5.734 0 10.383 4.649 10.383 10.383z" fill-rule="evenodd" transform="matrix(.943 0 0 .943 279.93 -429.08)" stroke="#000" stroke-width="2.651" fill="#fff"/><path d="M275.88 473.6c0 5.734-4.649 10.383-10.383 10.383-5.734 0-10.383-4.649-10.383-10.383 0-5.734 4.649-10.383 10.383-10.383 5.734 0 10.383 4.649 10.383 10.383z" fill-rule="evenodd" transform="matrix(.943 0 0 .943 523.18 -407.13)" stroke="#000" stroke-width="2.625" fill="#fff"/><path stroke-linejoin="round" d="M534.83-345.8c.235 5.886.394 13.278.394 15.53-.25-5.505-2.178-9.913-2.892-12.08.858-1.413 2.248-3.45 2.498-3.45z" fill-rule="evenodd" stroke="#000" stroke-width="1pt" fill="#ba4600"/><path d="M275.88 473.6c0 5.734-4.649 10.383-10.383 10.383-5.734 0-10.383-4.649-10.383-10.383 0-5.734 4.649-10.383 10.383-10.383 5.734 0 10.383 4.649 10.383 10.383z" fill-rule="evenodd" transform="matrix(.943 0 0 .943 370.71 -395.26)" stroke="#000" stroke-width="3.818" fill="#973100"/><path d="M275.88 473.6c0 5.734-4.649 10.383-10.383 10.383-5.734 0-10.383-4.649-10.383-10.383 0-5.734 4.649-10.383 10.383-10.383 5.734 0 10.383 4.649 10.383 10.383z" fill-rule="evenodd" transform="matrix(.943 0 0 .943 473.94 -395.26)" stroke="#000" stroke-width="3.818" fill="#973100"/><path d="M275.88 473.6c0 5.734-4.649 10.383-10.383 10.383-5.734 0-10.383-4.649-10.383-10.383 0-5.734 4.649-10.383 10.383-10.383 5.734 0 10.383 4.649 10.383 10.383z" fill-rule="evenodd" transform="matrix(.943 0 0 .943 473.94 -442.73)" stroke="#000" stroke-width="3.818" fill="#973100"/><path d="M275.88 473.6c0 5.734-4.649 10.383-10.383 10.383-5.734 0-10.383-4.649-10.383-10.383 0-5.734 4.649-10.383 10.383-10.383 5.734 0 10.383 4.649 10.383 10.383z" fill-rule="evenodd" transform="matrix(.943 0 0 .943 371.3 -442.73)" stroke="#000" stroke-width="3.818" fill="#973100"/><path d="M534.86 78.038c-.578-.737-4.974-13.199-29.823-13.741-3.495-.205-5.712.8-12.792.31-4.102.337-2.495-4.552-.869-6.311 2.695-1.891-9.601-.969-13.827-.468-4.262-.245-7.129-.971-9.536-1.46-7.452-.714-11.812-5.947-6.368-9.104 2.281-2.242 11.553.308 15.012-.17 3.42-1.041 2.941-6.805-.373-7.27-4.715-.698-25.28-2.24-23.602-4.547-3.144-5.238-2.232-7.951 5.937-6.936 4.555 2.762 4.423-.777 3.314-2.838-1.35-3.916-8.833-4.523-9.032-7.922-1.219-8.155 4.132-9.252 7.363-7.875 1.363-1.148-6.115-7.527 2.353-10.636 2.104-.66 6.434-.146 7.894 7.588 4.405 1.363 1.361-5.075 7.337-7.692 5.123-2.147-.341 22.944 5.767 22.72 5.264 2.142 4.227-13.714 8.634-10.629 9.525-2.443 4.915 30.433 9.06 28.448 6.881 6.018 7.601-5.412 9.606-4.167 3.369.089 5.612.209 3.733 7.768-1.399 5.883.694 7.247 1.764 9.606 6.436 14.183 16.094 14.051 19.318 20.578 1.038 9.651-.711 3.433-.87 4.748z" fill-rule="evenodd" stroke="#286726" stroke-width="4.625" fill="#008d00"/><path d="M653.86 99.854c-11.881 9.761-24.224 16.082-28.743 26.243 5.415-.729 7.507-1.633 11.547-1.124 4.375-9.789 18.134-15.017 26.257-22.932l-9.061-2.187z" fill-rule="evenodd" stroke="#000" stroke-width="2.5" fill="#009400"/><path d="M685.64 100.9c10.743 9.924 24.061 15.595 28.743 26.081-5.415-.729-7.673-1.469-10.901-.636-4.375-9.789-18.78-15.505-26.903-23.42l9.061-2.025z" fill-rule="evenodd" stroke="#000" stroke-width="2.5" fill="#009400"/><path d="M677.52 102.92c13.018 7.811 18.213 13.433 26.232 23.431-3.853.232-9.258 1.979-11.236 3.125-9.686-12.601-17.184-17.079-25.307-24.994l10.311-1.562z" fill-rule="evenodd" stroke="#000" stroke-width="2.5" fill="#fff"/><path d="M554.63-320.04c-5.214 1.434-7.465 5.831-7.939 9.932-19.212 13.457-5.248 39.947 12.568 34.445-13.182-19.741 0-30.892 14.663-23.972 4.443 3.259 7.541 10.055 7.96 9.636 2.789-6.047 13.825-11.312 13.825-11.312s8.89 1.194 10.494-4.557c1.012-3.678 9.196-18.903 9.196-18.903l-28.488-5.865-19.69-.419-10.473 4.608-2.116 6.407z" stroke-opacity=".772" fill-rule="evenodd" stroke="#000" stroke-width="2.5" fill="#ffba00"/><path d="M666.9 103.55c13.018 7.811 18.988 15.124 27.007 25.122-3.529 1.041-4.721 6.849-6.699 7.995-6.25-12.601-16.584-23.34-27.519-34.067l7.211.95z" fill-rule="evenodd" stroke="#000" stroke-width="2.5" fill="#d40000"/><path d="M661.98 102.04c-13.018 7.811-17.562 12.784-25.581 22.782 3.853.233 8.607 2.628 10.585 3.774 9.686-12.601 17.184-17.079 25.307-24.994l-10.311-1.562z" fill-rule="evenodd" stroke="#000" stroke-width="2.5" fill="#fff"/><path d="M672.6 102.67c-13.018 7.811-18.499 15.608-26.518 25.606 6.453 4.621 4.882 4.903 6.21 7.511 6.25-12.601 19.996-23.015 30.931-33.742l-10.623.625z" fill-rule="evenodd" stroke="#000" stroke-width="2.5" fill="#d40000"/><path d="M203.69 472.45c0 5.002-7.22 9.058-16.127 9.058s-16.127-4.055-16.127-9.058 7.22-9.058 16.127-9.058 16.127 4.055 16.127 9.058z" fill-rule="evenodd" transform="matrix(1.039 .339 -.312 1.13 462.42 -620.98)" stroke="#000" stroke-width="2.243" fill="#973000"/><path d="M651.45 86.275l-32.038 22.495c-1.927 1.645 6.505 3.371 9.596 1.859l25.022-18.056 5.665-3.163-8.245-3.135z" fill-rule="evenodd" stroke="#005e00" stroke-width="2.5" fill="#008d2b"/><path d="M203.69 472.45c0 5.002-7.22 9.058-16.127 9.058s-16.127-4.055-16.127-9.058 7.22-9.058 16.127-9.058 16.127 4.055 16.127 9.058z" fill-rule="evenodd" transform="matrix(.882 -.346 .415 .928 208.12 -324.73)" stroke="#000" stroke-width="2.549" fill="#973000"/><path d="M747.16-17.632c.49-25.749 23.067-3.205 31.932-13.813 20.831-24.55 22.616-26.419 41.019-23.756 49.325 19.382-2.16 64.204-52.571 43.794l-20.38-6.225z" fill-rule="evenodd" stroke="#000" stroke-width="2.628" fill="#008d00"/><g fill-rule="evenodd" transform="translate(315.19 -492.21)" fill="#6d390b"><path d="M617.987 389.725c-.658 2.877-4.022 4.405-7.514 3.413s-5.789-4.13-5.131-7.007 4.022-4.405 7.514-3.413 5.789 4.13 5.131 7.007z"/><rect transform="rotate(40.944)" height="4.823" width="15.887" y="-110.5" x="720.08"/></g><path d="M858.7-65.687l2.62 3.671 9.053-7.888-2.619-3.67-9.054 7.887z" fill-rule="evenodd" fill="#6d390b"/><path d="M631.68-2.311c15.309 4.687 26.556 60.299 41.553 65.297" stroke="#000" stroke-linecap="round" stroke-width="3.75" fill="none"/><path d="M646.36-2.623c15.309 4.687 26.244 60.299 41.241 65.297" stroke="#000" stroke-linecap="round" stroke-width="3.75" fill="none"/><path d="M660.73-3.248c15.309 4.687 26.556 60.611 41.553 65.609" stroke="#000" stroke-linecap="round" stroke-width="3.75" fill="none"/><path d="M203.69 472.45c0 5.002-7.22 9.058-16.127 9.058s-16.127-4.055-16.127-9.058 7.22-9.058 16.127-9.058 16.127 4.055 16.127 9.058z" fill-rule="evenodd" transform="matrix(.882 -.346 .415 .928 431.82 -363.47)" stroke="#000" stroke-width="2.243" fill="#973000"/><path d="M865.9-52.92c.767 2.969-.563 6.82-5.787 8.169-5.224 1.35-10.128-.685-10.895-3.655s2.258-7.239 7.483-8.589c5.223-1.349 8.431 1.105 9.199 4.075z" fill-rule="evenodd" stroke="#000" stroke-width="2.388" fill="#dc0000"/><path d="M636 89.428c-7.746 1.571-25.401 5.397-33.098 20.828-1.396 2.904-13.012 5.155-11.438.143 1.815-2.624 2.463-2.852 4.279-5.475-.142-3.289-7.668-2.317-7.151.625-.577-.131-4.217.572-5.926 2.337-4.616 5.893-12.495 5.631-12.222-.656 2.913-2.155 4.388-4.224 5.849-7.395.965-3.442-5.769-4.675-7.946-2.133-4.609 2.411-7.502 5.866-12.986 8.541-6.107 2.197-11.975-1.719-6.658-4.869 4.781-2.349.797-7.779-1.537-7.955-4.026-.973-20.523 1.811-23.493.148-2.323-.305-6.57-6.415-1.595-7.506 4.507-1.471 12.032 1.65 13.975-7.159 1.947-14.834 25.487 7.588 21.664 1.397-8.624-12.753 6.055-15.748 10.487-7.064 1.806 3.921 10.769 9.734 13.368 8.642 4.886.54-9.065-12.352 2.012-14.455 2.526.537 7.032.729 10.142 5.038 2.311 2.226 2.804 11.389 11.45 12.148 1.89-2.79.075-1.369-1.614-5.201-.014-4.641 7.662-4.262 10.942 3.592 3.249 5.997 20.399 1.924 36.091 2.285 5.029-.822 13.118 3.598-14.595 4.144z" fill-rule="evenodd" stroke="#286026" stroke-width="4.625" fill="#008d00"/><path d="M848.53-53.47c2.761 4.241 2.703 10.962-4.758 15.819s-16.198 4.251-18.959.01c-2.761-4.242-.273-12.509 7.188-17.366 7.46-4.856 13.767-2.705 16.529 1.537z" fill-rule="evenodd" stroke="#000" stroke-width="2.5" fill="#dc0000"/><path d="M853.87-71.056c2.585 1.649 4.237 5.373 1.334 9.921-2.902 4.549-7.877 6.403-10.463 4.753-2.585-1.65-3.282-6.836-.38-11.385 2.902-4.547 6.922-4.939 9.509-3.289z" fill-rule="evenodd" stroke="#000" stroke-width="2.388" fill="#dc0000"/><path d="M861.73-63.343c1.673 2.57 1.638 6.644-2.884 9.587-4.522 2.944-9.818 2.577-11.491.006s-.166-7.581 4.357-10.525c4.521-2.943 8.344-1.639 10.018.932z" fill-rule="evenodd" stroke="#000" stroke-width="2.388" fill="#dc0000"/><path d="M878.55-78.571c1.259 1.933 1.232 4.999-2.17 7.213-3.402 2.215-7.387 1.939-8.646.004-1.259-1.934-.125-5.704 3.278-7.919 3.402-2.214 6.278-1.233 7.538.702z" fill-rule="evenodd" stroke="#000" stroke-width="1.796" fill="#d90000"/><path d="M663.58 77.588c-6.655.78-10.444 1.191-11.723 6.006-.71 3.27-.142 7.542.426 11.212 0 4.214 5.318 7.006 11.511 8.208h10.657c4.487 0 12.789-4.394 12.789-8.608.663-2.382.639-6.227.639-8.831 0-7.087-5.003-7.524-11.258-8.187l-13.041.2z" fill-rule="evenodd" stroke="#000" stroke-width="2.5" fill="#fff"/><path d="M900.18-6.121c-.736-24.596-7.216-60.238 22.976-72.462 3.895-1.016 5.302 1.179 3.976 4.419l-26.952 68.043z" fill-rule="evenodd" stroke="#286326" stroke-width="4.125" fill="#008f00"/><path d="M939.2-56.203c5.375-10.11 18.657-12.656 23.344-12.343-9.269 9.477-18.538 32.701-23.745 40.303-7.498 12.914-29.368 22.078-42.489 29.681 14.684-19.996 28.206-37.646 42.89-57.641z" fill-rule="evenodd" stroke="#286326" stroke-width="4.125" fill="#008c00"/><path d="M664.15 77.465s-6.666 1.185-6.814 1.185l-5.184 3.258s-1.037 6.369-1.037 6.517l1.185 7.258 3.111 4.295 8.146 2.814.593-25.327z" fill-rule="evenodd" stroke="#000" stroke-width="1pt" fill="#009400"/><path d="M896.21 1.391c.883-.884 17.281-78.198 44.626-87.355 4.418 5.744 2.287 18.229.52 24.857-8.395 28.867-28.798 48.653-45.146 62.498z" fill-rule="evenodd" stroke="#286326" stroke-width="4.125" fill="#008d00"/><g fill-rule="evenodd" transform="matrix(-.804 -.594 -.594 .804 1685.2 -40.01)" fill="#6d390b"><path d="M617.987 389.725c-.658 2.877-4.022 4.405-7.514 3.413s-5.789-4.13-5.131-7.007 4.022-4.405 7.514-3.413 5.789 4.13 5.131 7.007z"/><rect transform="rotate(40.944)" height="4.823" width="15.887" y="-110.5" x="720.08"/></g><g fill-rule="evenodd" transform="matrix(1.004 .372 -.361 1.035 410.2 -647.81)" fill="#6d390b"><path d="M617.987 389.725c-.658 2.877-4.022 4.405-7.514 3.413s-5.789-4.13-5.131-7.007 4.022-4.405 7.514-3.413 5.789 4.13 5.131 7.007z"/><rect transform="rotate(40.944)" height="4.823" width="15.887" y="-110.5" x="720.08"/></g><g fill-rule="evenodd" transform="matrix(-.834 .671 -.703 -.841 1699.1 -80.203)" fill="#6d390b"><path d="M617.987 389.725c-.658 2.877-4.022 4.405-7.514 3.413s-5.789-4.13-5.131-7.007 4.022-4.405 7.514-3.413 5.789 4.13 5.131 7.007z"/><rect transform="rotate(40.944)" height="4.823" width="15.887" y="-110.5" x="720.08"/></g><path d="M884.32 24.431c16.801-9.104 6.274 3.669 5.229 10.662-4.964 17.257-9.604 17.367-15.442 20.308-8.706 7.941-36.601 4.089-49.564 7.362 16.247-11.798 43.53-26.535 59.777-38.332z" fill-rule="evenodd" stroke="#286326" stroke-width="3.356" fill="#008c00"/><path d="M859.17 20.429c7.015-5.567 8.167-17.859 7.699-22.118-6.358 9.081-22.631 19.059-27.845 24.309-8.929 7.687-14.411 28.252-19.218 40.728 13.666-14.711 25.699-28.208 39.364-42.919z" fill-rule="evenodd" stroke="#286326" stroke-width="3.356" fill="#008c00"/><path d="M771.81 91.038c10.988-3.224 29.715 4.895 32.769 8.465-13.257-.003-34.738 9.203-43.814 10.794-14.476 3.666-54.624-18.985-68.998-22.22 23.995-1.209 55.481 6.439 80.043 2.961z" fill-rule="evenodd" stroke="#286326" stroke-width="4.125" fill="#008c00"/><path d="M688.17 88.703l32.038 22.495c1.927 1.645-6.505 3.371-9.596 1.859l-25.022-18.056-5.665-3.163 8.245-3.135z" fill-rule="evenodd" stroke="#004500" stroke-width="2.5" fill="#00602b"/><path d="M818.41 62.778c1.127-.426 45.863-60.822 73.674-58.324 1.671 6.628-5.095 16.578-9.25 21.618-18.717 21.686-44.528 30.986-64.424 36.706z" fill-rule="evenodd" stroke="#286326" stroke-width="3.939" fill="#008c00"/><g fill-rule="evenodd" transform="matrix(.71 .801 -.806 .743 688.26 -730.62)" fill="#6d390b"><path d="M617.987 389.725c-.658 2.877-4.022 4.405-7.514 3.413s-5.789-4.13-5.131-7.007 4.022-4.405 7.514-3.413 5.789 4.13 5.131 7.007z"/><rect transform="rotate(40.944)" height="4.823" width="15.887" y="-110.5" x="720.08"/></g><g fill-rule="evenodd" transform="matrix(-1.06 .153 -.177 -1.081 1548.5 405.75)" fill="#6d390b"><path d="M617.987 389.725c-.658 2.877-4.022 4.405-7.514 3.413s-5.789-4.13-5.131-7.007 4.022-4.405 7.514-3.413 5.789 4.13 5.131 7.007z"/><rect transform="rotate(40.944)" height="4.823" width="15.887" y="-110.5" x="720.08"/></g><path d="M445.1-140.67c1.31-1.955 4.331-3.241 8.094-1.132 3.763 2.107 5.355 5.801 4.044 7.758-1.311 1.956-5.542 2.547-9.306.439-3.763-2.107-4.143-5.108-2.832-7.065z" fill-rule="evenodd" stroke="#000" stroke-width="1.867" fill="#dc0000"/><path d="M764.14 82.968c18.474-4.885 17.374-13.781 26.006-21.561-19.981-2.924-35.919 4.148-44.456 8.844-13.484 8.695-16.972 18.135-28.655 24.636 19.917-2.543 28.891-5.403 47.105-11.919z" fill-rule="evenodd" stroke="#286326" stroke-width="3.356" fill="#008c00"/><path d="M703.89 88.373c52.838 3.986 44.419-17.465 102.33-16.936-.855 6.782-11.912 15.29-17.616 18.474-25.323 13.391-66.934 19.664-84.71-1.538z" fill-rule="evenodd" stroke="#286326" stroke-width="3.939" fill="#008c00"/><path d="M677.04 77.317l.148 24.883 6.813-2.666s2.814-4.444 2.814-4.74 1.185-6.073 1.185-6.221l-.592-7.109-5.184-3.407-5.184-.74z" fill-rule="evenodd" stroke="#000" stroke-width="1pt" fill="#d40000"/><rect fill-rule="evenodd" transform="matrix(-.673 -.74 .763 -.646 0 0)" height="3.769" width="12.563" y="441.79" x="-178.21" fill="#6d390b"/><path d="M446.42-148.02c1.434-2.495 4.741-4.137 8.86-1.445 4.12 2.69 5.862 7.405 4.427 9.902s-6.067 3.252-10.187.561c-4.119-2.69-4.535-6.52-3.1-9.018z" fill-rule="evenodd" stroke="#000" stroke-width="2.207" fill="#dc0000"/><path d="M469.7-158.43c2.408.099 5.021 2.229 4.885 7.074-.135 4.843-2.753 8.545-5.164 8.446s-4.964-3.795-4.829-8.64c.135-4.843 2.696-6.977 5.108-6.88z" fill-rule="evenodd" stroke="#000" stroke-width="2.006" fill="#dc0000"/><path d="M457.85-156.5c2.73-.717 6.288.495 7.569 5.3 1.283 4.804-.555 9.326-3.286 10.042s-6.687-2.053-7.97-6.859c-1.282-4.804.956-7.767 3.687-8.483z" fill-rule="evenodd" stroke="#000" stroke-width="2.199" fill="#dc0000"/><path stroke-linejoin="round" d="M525.91-79.442c-8.239-20.946-30.722-55.718-53.624-38.96-25.415 21.924 11.591 56.416 43.151 54.461l10.473-15.501z" fill-rule="evenodd" stroke="#000" stroke-linecap="round" stroke-width="2.5" fill="#008d00"/><path d="M460.52-140.84c4.401-2.96 11.46-3.028 16.704 4.661 5.243 7.69 4.773 16.813.373 19.773-4.402 2.961-13.131.523-18.375-7.166-5.243-7.688-3.104-14.306 1.298-17.268z" fill-rule="evenodd" stroke="#000" stroke-width="2.617" fill="#dc0000"/><path d="M444.24-175.83c2.006-1.35 5.226-1.38 7.617 2.126 2.39 3.506 2.177 7.668.169 9.018-2.006 1.349-5.987.238-8.379-3.269-2.39-3.505-1.415-6.524.593-7.875z" fill-rule="evenodd" stroke="#000" stroke-width="1.88" fill="#dc0000"/><path d="M595.88-54.518c-10.351-18.416-38.6-41.447-67.375-26.713-34.027 23.883 13.726 59.655 62.596 42.017 4.385-4.543.393-10.761 4.779-15.304z" fill-rule="evenodd" stroke="#000" stroke-width="2.628" fill="#008d00"/><path d="M691.81-43.626c-10.351-18.416-65.83-39.353-89.997-21.686-30.257 33.937 14.145 57.56 73.907 40.76 4.385-4.543 11.704-14.531 16.09-19.074z" fill-rule="evenodd" stroke="#000" stroke-width="2.628" fill="#008d00"/><path stroke-linejoin="round" d="M476.34-112.42c.296 0 6.221 7.405 6.221 7.405l-.297-10.368" stroke="#000" stroke-linecap="round" stroke-width="2.5" fill="none"/><path stroke-linejoin="round" d="M486.71-97.904l6.221 6.221" stroke="#000" stroke-linecap="round" stroke-width="2.5" fill="none"/><path stroke-linejoin="round" d="M508.63-102.05l.593 7.109 3.85-.296" stroke="#000" stroke-linecap="round" stroke-width="2.5" fill="none"/><path stroke-linejoin="round" d="M508.63-78.353c-1.481-.888-6.517-5.036-6.517-5.036" stroke="#000" stroke-linecap="round" stroke-width="2.5" fill="none"/><path stroke-linejoin="round" d="M494.11-77.76l-8.295-2.666" stroke="#000" stroke-linecap="round" stroke-width="2.5" fill="none"/><path d="M478.41-93.461l-7.998-2.666" stroke="#000" stroke-width="2.5" fill="none"/><path stroke-linejoin="round" d="M463.31-98.2h-6.814" stroke="#000" stroke-linecap="round" stroke-width="2.5" fill="none"/><path stroke-linejoin="round" d="M495.3-120.71v-8.887" stroke="#000" stroke-linecap="round" stroke-width="1pt" fill="none"/><path stroke-linejoin="round" d="M483.45-72.724c-.888 0-12.441-.593-12.441-.593" stroke="#000" stroke-linecap="round" stroke-width="2.5" fill="none"/><path stroke-linejoin="round" d="M504.19-64.726l-8.887 2.962" stroke="#000" stroke-linecap="round" stroke-width="2.5" fill="none"/><path stroke-linejoin="round" d="M517.52-96.423c.296-.296 7.406-3.851 7.406-3.851" stroke="#000" stroke-linecap="round" stroke-width="2.5" fill="none"/><path stroke-linejoin="round" d="M497.37-106.5c0-.296-2.37-9.775-2.37-9.775" stroke="#000" stroke-linecap="round" stroke-width="2.5" fill="none"/><path d="M663.43 77.44c-6.655.78-10.444 1.191-11.723 6.006-.71 3.27-.142 7.542.426 11.212 1.185 6.14 5.318 7.006 11.511 8.208h10.657c4.487 0 11.752-2.913 12.937-8.46.811-2.826.491-6.375.491-8.979-.592-6.495-5.003-7.524-11.258-8.187l-13.041.2z" stroke="#000" stroke-width="2.5" fill="none"/><path d="M664.16 77.449l-.21 24.716" stroke="#000" stroke-width="2.5" fill="none"/><path d="M677.15 77.449l-.21 24.716" stroke="#000" stroke-width="2.5" fill="none"/><path d="M944.45-133.92c3.907-12.849-9.62-15.887-12.631-23.102-6.177 12.088-4.013 24.396-2.919 30.871 2.532 10.51 11.849 17.775 13.394 26.653 2.73-13.253 2.291-21.378 2.156-34.422z" fill-rule="evenodd" stroke="#286326" stroke-width="2.246" fill="#008c00"/><path d="M962.35-145.85c.263-7.031 9.434-12.066 13.13-13.176-2.291 13.673 1.825 20.095.737 25.701-.818 9.154-17.586 23.141-24.713 30.913 3.614-15.016 7.231-28.423 10.846-43.438z" fill-rule="evenodd" stroke="#286326" stroke-width="2.985" fill="#008c00"/><path d="M943.04-91.049c.448-.841-6.978-65.352 11.625-78.738 4.874 2.863 6.47 12.096 6.83 17.16 1.029 22.236 1.758 33.534-18.455 61.578z" fill-rule="evenodd" stroke="#286326" stroke-width="3.195" fill="#008c00"/><path d="M569.91-92.582c5.322 1.689 10.011 7.494 7.133 16.929-2.879 9.435-7.335 15.503-14.33 13.396-9.094-2.107-10.724-10.536-7.848-19.971 2.878-9.434 9.721-12.041 15.045-10.354z" fill-rule="evenodd" stroke="#000" stroke-width="2.764" fill="#dc0000"/><path d="M578.91-102.22c1.691 1.186 2.702 3.678.639 6.496-2.062 2.818-5.445 3.792-7.135 2.605-1.692-1.188-2.025-4.582.036-7.402 2.062-2.817 4.768-2.888 6.46-1.699z" fill-rule="evenodd" stroke="#000" stroke-width="3.168" fill="#dc0000"/><path d="M564.92-105.12c2.02-.429 4.533.529 5.189 3.959.658 3.429-.935 6.569-2.955 6.997-2.022.429-4.733-1.64-5.393-5.07-.656-3.429 1.136-5.458 3.159-5.886z" fill-rule="evenodd" stroke="#000" stroke-width="3.168" fill="#dc0000"/><path d="M570.79-97.632c1.979.594 3.723 2.641 2.652 5.965-1.07 3.324-3.974 5.313-5.952 4.719-1.98-.595-3.365-3.712-2.296-7.037 1.07-3.323 3.616-4.242 5.596-3.647z" fill-rule="evenodd" stroke="#000" stroke-width="3.168" fill="#dc0000"/><path d="M573.66-109.52c1.651.449 3.107 1.998 2.213 4.513-.893 2.516-3.316 4.021-4.967 3.571-1.652-.45-2.807-2.809-1.915-5.325.892-2.514 3.017-3.209 4.669-2.759z" fill-rule="evenodd" stroke="#000" stroke-width="2.517" fill="#dc0000"/><path d="M582.33-94.385c1.807 1.242 2.818 3.607.447 5.976-2.371 2.37-6.116 2.935-7.922 1.693-1.808-1.243-2.04-4.366.33-6.737 2.368-2.369 5.337-2.175 7.145-.932z" fill-rule="evenodd" stroke="#000" stroke-width="3.17" fill="#dc0000"/><path d="M559.59-99.569c1.839-.221 4.002.871 4.303 4.07.303 3.2-1.378 5.94-3.217 6.161-1.841.221-4.088-1.906-4.392-5.105-.302-3.198 1.465-4.905 3.306-5.126z" fill-rule="evenodd" stroke="#000" stroke-width="2.877" fill="#dc0000"/><path d="M532.03 66.801v0z" stroke="#000" stroke-width="1pt" fill="none"/><path d="M770.94-57.08c10.368 5.53 6.813 18.465-.593 21.921-.395-8.492-5.825-11.059-13.922-13.033 4.246-2.37 8.788-10.073 14.515-8.888z" fill-rule="evenodd" stroke="#000" stroke-width="2.5" fill="#fff"/><path d="M671.93-5.357c3.814-56.218 46.53-63.037 74.84-53.306 41.457 30.083-.586 55.077-62.643 56.698l-12.197-3.392z" fill-rule="evenodd" stroke="#000" stroke-width="2.628" fill="#008d00"/><path d="M684.35-68.516c-13.26-.535-17.262 12.403-12.06 19.155 5.279-7.102 12.033-6.539 21.037-4.104-2.758-4.205-2.73-13.148-8.977-15.051z" fill-rule="evenodd" stroke="#000" stroke-width="2.657" fill="#fff"/><path d="M691.27-51.693c-10.368 5.53-8.16 18.465-.754 21.921.395-8.492 5.825-11.059 13.922-13.033-4.246-2.37-7.441-10.073-13.168-8.888z" fill-rule="evenodd" stroke="#000" stroke-width="2.5" fill="#fff"/><path stroke-linejoin="round" d="M772.31-56.013c.12-4.626-3.53-8.625-7.81-9.271-5.158-.628-10.108 2.933-15.267-.837-.628-.419-12.609-10.76-16.047-15.578-3.438-1.885-10.643-5.419-10.643-5.419-4.246 5.53-7.235 11.897-13.366 15.542-3.049 1.221-4.213 2.651-9.776 2.197-5.751-2.688-12.08-4.069-15.368-1.15 2.798 5.541 2.035 12.55.853 17.882 2.074 1.185 4.357-.234 6.849.323 7.682.204 5.728 8.456 8.591 12.011 8.091 2.2 12.203-1.675 13.381-8.273 2.14-3.366 8.678-3.802 13.33-5.073 5.036-.972 11.329-2.573 15.946.016 3.812 2.025 6.368 4.47 8.294 8.59 0 0 6.071.542 12.146-.592.209-3.647-.539-10.282 8.887-10.368z" fill-rule="evenodd" stroke="#000" stroke-linecap="round" stroke-width="2.5" fill="#f6aa00"/><path d="M718.66-81.316l.296 13.331c1.58 4.838 12.343 4.344 13.626 1.184l-.296-15.107" stroke="#000" stroke-width="2.5" fill="none"/><path d="M722.21-52.877c2.324-.787 3.185-7.249 3.185-7.249" stroke="#000" stroke-linecap="round" stroke-width="2.5" fill="none"/><path d="M731.69-54.655l.592-5.332" stroke="#000" stroke-linecap="round" stroke-width="2.5" fill="none"/><path d="M741.47-54.656l-.888-5.627" stroke="#000" stroke-linecap="round" stroke-width="2.5" fill="none"/><path d="M715.7-58.802c-.359.2-5.035-5.628-3.554-5.036" stroke="#000" stroke-linecap="round" stroke-width="2.5" fill="none"/><path d="M707.1-50.211c.593 0-7.738-8.627-6.257-8.035" stroke="#000" stroke-linecap="round" stroke-width="2.5" fill="none"/><path d="M699.4-66.208c-.216-.661-.592-3.851.889-3.259" stroke="#000" stroke-linecap="round" stroke-width="2.5" fill="none"/><path d="M717.97-68.191c-12.655 10.924-24.573 6.327-26.291 15.513" stroke="#000" stroke-linecap="round" stroke-width="2.5" fill="none"/><path d="M749.3-62.017c.443-.535 1.966-3.363.372-3.357" stroke="#000" stroke-linecap="round" stroke-width="2.5" fill="none"/><path stroke-linejoin="round" d="M546.06-56.613c.165-.245 9.617-1.026 9.617-1.026l-8.767-5.543" stroke="#000" stroke-linecap="round" stroke-width="2.5" fill="none"/><path stroke-linejoin="round" d="M603.65-47.171c.165-.245 9.617-1.026 9.617-1.026l-7.508-8.69" stroke="#000" stroke-linecap="round" stroke-width="2.5" fill="none"/><path stroke-linejoin="round" d="M626.94-45.597c-.464-1.504 9.932.233 9.617-1.026l-6.564-7.116" stroke="#000" stroke-linecap="round" stroke-width="2.5" fill="none"/><path stroke-linejoin="round" d="M614.51-78.743c.296 0 6.221 7.405 6.221 7.405l-.297-10.368" stroke="#000" stroke-linecap="round" stroke-width="2.5" fill="none"/><path stroke-linejoin="round" d="M792.89-29.309c.225.192-.056 10.562-.056 10.562l6.804-7.379" stroke="#000" stroke-linecap="round" stroke-width="2.5" fill="none"/><path stroke-linejoin="round" d="M716.96-31.985c.202.216-1.144 9.604-1.144 9.604l10.145-5.382" stroke="#000" stroke-linecap="round" stroke-width="2.5" fill="none"/><path stroke-linejoin="round" d="M539.16-80.097l6.221 6.221" stroke="#000" stroke-linecap="round" stroke-width="2.5" fill="none"/><path stroke-linejoin="round" d="M527.83-69.736l6.221 6.221" stroke="#000" stroke-linecap="round" stroke-width="2.5" fill="none"/><path stroke-linejoin="round" d="M570.26-53.608l8.763-.782" stroke="#000" stroke-linecap="round" stroke-width="2.5" fill="none"/><path stroke-linejoin="round" d="M556.34-44.946l8.775-.623" stroke="#000" stroke-linecap="round" stroke-width="2.5" fill="none"/><path stroke-linejoin="round" d="M619.78-64.88l6.221 6.221" stroke="#000" stroke-linecap="round" stroke-width="2.5" fill="none"/><path stroke-linejoin="round" d="M645.68-61.642l6.221 6.221" stroke="#000" stroke-linecap="round" stroke-width="2.5" fill="none"/><path stroke-linejoin="round" d="M597.44-72.974l6.221 6.221" stroke="#000" stroke-linecap="round" stroke-width="2.5" fill="none"/><path stroke-linejoin="round" d="M532.04-92.724l6.221 6.221" stroke="#000" stroke-linecap="round" stroke-width="2.5" fill="none"/><path stroke-linejoin="round" d="M601.55-16.999l5.755-6.655" stroke="#000" stroke-linecap="round" stroke-width="2.5" fill="none"/><path stroke-linejoin="round" d="M630.69-11.495l5.755-6.655" stroke="#000" stroke-linecap="round" stroke-width="2.5" fill="none"/><path stroke-linejoin="round" d="M518.78-45.514l8.763-.782" stroke="#000" stroke-linecap="round" stroke-width="2.5" fill="none"/><path stroke-linejoin="round" d="M535.37-51.757c-1.431.079 4.437-.378 6.056.27l-8.653-6.191" stroke="#000" stroke-linecap="round" stroke-width="2.663" fill="none"/><path stroke-linejoin="round" d="M546.3-33.211l8.763-.782" stroke="#000" stroke-linecap="round" stroke-width="2.5" fill="none"/><path stroke-linejoin="round" d="M650.23-41.708l8.775-.623" stroke="#000" stroke-linecap="round" stroke-width="2.5" fill="none"/><path stroke-linejoin="round" d="M635.34-29.405l8.775-.623" stroke="#000" stroke-linecap="round" stroke-width="2.5" fill="none"/><path stroke-linejoin="round" d="M645.91-74.534c.296 0 6.221 7.405 6.221 7.405l-.297-10.368" stroke="#000" stroke-linecap="round" stroke-width="2.5" fill="none"/><path stroke-linejoin="round" d="M731.29-48.044l-6.221 6.221" stroke="#000" stroke-linecap="round" stroke-width="2.5" fill="none"/><path stroke-linejoin="round" d="M751.69-41.245l-6.221 6.221" stroke="#000" stroke-linecap="round" stroke-width="2.5" fill="none"/><path stroke-linejoin="round" d="M742.62-23.761l-6.221 6.221" stroke="#000" stroke-linecap="round" stroke-width="2.5" fill="none"/><path stroke-linejoin="round" d="M815.79-22.143l-6.221 6.221" stroke="#000" stroke-linecap="round" stroke-width="2.5" fill="none"/><path stroke-linejoin="round" d="M777.27-26.675l-6.221 6.221" stroke="#000" stroke-linecap="round" stroke-width="2.5" fill="none"/><path stroke-linejoin="round" d="M815.15-63.908l-6.221 6.221" stroke="#000" stroke-linecap="round" stroke-width="2.5" fill="none"/><path stroke-linejoin="round" d="M844.58-21.853l-8.759-.835" stroke="#000" stroke-linecap="round" stroke-width="2.5" fill="none"/><path stroke-linejoin="round" d="M771.03-2.335l.425-8.789" stroke="#000" stroke-linecap="round" stroke-width="2.5" fill="none"/><path stroke-linejoin="round" d="M798.79-42.117l4.477-7.575" stroke="#000" stroke-linecap="round" stroke-width="2.5" fill="none"/><path stroke-linejoin="round" d="M812.71-33.699l4.477-7.575" stroke="#000" stroke-linecap="round" stroke-width="2.5" fill="none"/><path stroke-linejoin="round" d="M824.3-9.603c-.193.225-9.672-.074-9.672-.074l6.795 4.954" stroke="#000" stroke-linecap="round" stroke-width="2.5" fill="none"/><path stroke-linejoin="round" d="M692.68-12.235c.202.216-1.144 9.604-1.144 9.604l10.145-5.382" stroke="#000" stroke-linecap="round" stroke-width="2.5" fill="none"/><path stroke-linejoin="round" d="M614.64-29.408c1.155-.857 7.018-2.681 6.703-3.94l-6.24-2.26" stroke="#000" stroke-linecap="round" stroke-width="2.5" fill="none"/><path stroke-linejoin="round" d="M878.81-88.656c4.11 3.19 11.042-33.11 9.98-44.47 0-.75-1.29-24.839 3.754-42.048 3.185-5.794 3.3-49.202-1.478-60.616 3.806-.321 8.418-1.553 8.986-6.205-17.58 6.508-21.755-37.157-38.67-62.233-16.517-25.147-37.017-39.808-58.312-55.067 1.661-4.269 4.118-8.273 7.372-12.277-26.149 13.098-66.897-34.326-127.02-30.783-13.553 1.35-19.938 2.169-23.404 10.42-11.178.948-22.623 3.488-22.652 18.239.022 3.534 3.23 9.988 10.419 10.071 9.852 2.836 17.845.629 24.512 14.349l1.766 14.182s-8.819-11.171-13.642-13.029c1.28-1.858-.759-3.133 2.957-6.006-4.512-2.61-12.589-.486-12.589-.486s-17.465-8.221-31.534-6.007c0-1.501-2.692-11.39-2.692-11.39-2.488 6.966-7.984 6.59-8.79 13.203l-5.035-15.327c-4.937 6.742-3.504 14.015-5.256 21.022-1.957 1.593-5.86 1.682-6.844-2.831-.5-5.506-1.178-6.057-1.147-12.624-3.564 6.211-7.836 9.236-9.277 19.96l-3.797-11.835c.19 13.947-11.839 22.316-23.232 32.107-3.2 5.923.501 6.006.751 9.009l6.006 3.004 10.776-.751c1.752 2.252.319 2.387 4.991 3.843 12.513 3.504 28.174-11.542 40.46 12.098-5.658 4.709-11.316 15.79-9.541 17.845 2.252 0-4.521 3.185 4.633.265-9.556 9.291-16.031 21.508-16.031 22.259-1.062 2.608 3.851-.353 2.824 4.387 1.343-3.555 2.272-.296 2.272-.296-21.809 23.591-.729 48.889-3.079 62.516 3.626 5.84 4.078-.11 8.611-.757 3.837 16.715 14.81 26.852 21.567 40.119-3.489-1.07-10.422-1.45-14.176.14.319 6.29 6.006 12.27 10.511 17.77-3.253 1-6.257 2-9.51 3.01-6.757 3.5-11.248 7.18-16.004 12.43-3.171 7.66 15.136 9.52 23.91 10.81-.796 2.75-1.917 6.21-.324 9.23 13.803 1.33 29.753-2.75 29.753-3.5 0-.76 3.458-2.699 3.458-2.699 1.858 3.72 5.946 4.819 7.758 4.289 2.609 0 6.659-10.39 4.801-18.35 5.005 6 9.715 15.56 14.72 21.57 1.516 1.59 3.474.42 4.725-.65 4.255 6.76 10.128 13.52 14.383 20.27 2.252 2.58 1.767 1.63 4.815 1.82 2.783-.9 5.153-1.27 6.609-6.67 0 0 .923.838 2.236 3.815 3.36 2.39 5.733-3.356 7.591-5.216 1.062-2.56 5.205.501 5.205-.999l3.989 6.4c2.298-.85 4.58-5.9 4.755-11.26 2.283 4.7 2.988 4.31 4.74 5.57 1.502-1.26 1.973-6.16 3.475-7.41-.324-2.59 18.033 17.7 18.784 17.7 1.812 1.32 12.187 4.5 14.31.79 5.18 3.46 19.119 5.6 21.379.04 11.474 4.9 24.976-.59 24.407-6.07 10.464 4.18 26.776 1.39 26.776.64 1.858-.22 6.902-5.12 2.124-8.83-34.787-24.28-86.563-64.48-106.48-74.158 0-7.167-5.422-33.02-11.262-40.141-1.062-3.671 1.329-8.208 4.78-7.943 13.537 12.658 18.458 11.452 25.624 13.492 7.758 6.12 10.543 15.463 18.301 23.972 3.656 1.168 7.977 4.871 6.854 1.261-4.842-12.151-10.695-23.913-25.19-39.711 7.508 3.754 19.806 13.698 28.11 20.903 5.536 9.123 7.091 16.389 12.096 27.901 3.628 2.301 7.334 10.784 6.803 3.754-.796-13.225-10.071-34.225-10.071-35.727 14.744 11.763 14.591 29.994 19.035 41.147 3.85 5.66 5.787 13.18 7.38 11.42 1.858-2.57-4.377-34.411-4.377-34.411l-2.503-12.544c10.974 6.316 14.811 30.419 19.946 59.295.015 4.6 1.888 9.64 1.638 12.64 2.355 2.91 5.067 10.94 4.945 6.15 0 0 .008-46.976-3.178-57.768-.796-5.749 1.411-15.153 1.411-15.153 4.004 19.521 8.274 40.631 12.278 60.151v14.27c2.002 2 4.004 4 6.006 6.01 1.251-11.77 2.503-23.53 3.754-35.29 0 0-4.505-41.296-4.505-42.046v-12.013c-.091-4.232 3.799-3.421 6.363 1.373l.971 28.659c1.752 11.757 2.972 20.337 3.928 35.287.47 12.25.941 41.22 3.535 40.72z" stroke-opacity=".772" fill-rule="evenodd" stroke="#000" stroke-width="2.5" fill="#9c4314"/><path stroke-linejoin="round" d="M684.33-20.749c-.564-1.323-.97-7.45-2.268-7.437l-3.653 5.541" stroke="#000" stroke-linecap="round" stroke-width="2.5" fill="none"/><path stroke-linejoin="round" d="M794.12-54.184l-.747 6.197" stroke="#000" stroke-linecap="round" stroke-width="2.5" fill="none"/><path stroke-linejoin="round" d="M739.51-8.472c-1.428.175-7.426-1.137-7.774.113l4.308 5.049" stroke="#000" stroke-linecap="round" stroke-width="2.5" fill="none"/><path d="M647.7-147.35v11.332c.331 1.606.324 3.395.324 5.18.203 1.372.683 3.02 1.295 4.533.089 1.92.624 3.18 1.295 4.857.138 1.655.703 3.071 1.295 4.533.14 1.662.678 2.534.971 3.885.469 1.555 1.038 2.568 1.619 3.561.422.422.583.842.971.971" stroke="#000" stroke-width="1pt" fill="none"/><path d="M622.44-107.53c0-.525-.082-2.115.648-3.238 1.146-1.629 2.066-2.639 3.561-4.209 1.768-1.125 3.03-2.459 4.533-3.885 1.612-1.029 2.422-1.938 3.885-2.914.898-.916 1.935-1.37 2.914-1.943 1.114-.547 1.925-1.356 3.561-1.618.988-.494 3.036-.324 4.533-.324 1.545 0 2.085-.297 3.562-.324" stroke="#000" stroke-width="1pt" fill="none"/><path d="M857.8-220c5.004 3.628 10.512 11.514 12.764 25.777" stroke-opacity=".772" stroke="#000" stroke-linecap="round" stroke-width="2.5" fill="none"/><path d="M829.66-215.14c7.257 6.507 11.353 13.583 16.768 29.531" stroke-opacity=".772" stroke="#000" stroke-linecap="round" stroke-width="2.5" fill="none"/><path d="M812.13-207.36c4.421 5.047 7.091 10.344 9.511 16.642" stroke-opacity=".772" fill-rule="evenodd" stroke="#000" stroke-linecap="round" stroke-width="2.5" fill="#00c600"/><path d="M782.1-223.88c5.756 6.632 15.015 16.768 19.771 27.028" stroke-opacity=".772" fill-rule="evenodd" stroke="#000" stroke-linecap="round" stroke-width="2.5" fill="#00c600"/><path d="M659.86-393.24c.42 28.847 42.645 21.812 46.2 48.917 8.081 29.579 4.712 48.688-7.108 58.081-6.712 6.91-1.579 17.653.419 23.17 10.974 27.814 27.546 32.292 34.672 56.301" stroke-opacity=".772" stroke="#000" stroke-width="2.5" fill="none"/><path d="M644.07-373.55c0-.554.991-1.521 1.971-1.97 4.203-1.37 6.787-1.45 11.086-1.724 3.695 0 7.143.163 10.838.739" stroke-opacity=".772" stroke="#000" stroke-linecap="round" stroke-width="2.5" fill="none"/><path d="M698.74-108.75l14.68 23.88" stroke-opacity=".772" stroke="#000" stroke-width="2.5" fill="none"/><path d="M745.53-144.28l78.597 60.19" stroke-opacity=".772" stroke="#000" stroke-width="2.5" fill="none"/><path d="M743.44-127.77l57.436 50.42" stroke-opacity=".772" stroke="#000" stroke-width="2.5" fill="none"/><path d="M635.36-190.31c7.564 15.018 28.94 34.966 41.766 38.146.438-9.646-.109-13.372-1.644-20.059" stroke-opacity=".772" stroke="#000" stroke-width="2.5" fill="none"/><path d="M659.7-198.86c7.564 15.018 14.47 31.022 34.531 40.121 2.083-14.58-2.411-34.421-13.483-54.591" stroke-opacity=".772" stroke="#000" stroke-width="2.5" fill="none"/><path d="M663.24-219c6.906 4.166 13.154 6.028 17.759 6.577 2.083-14.58 3.907-30.007-7.988-50.882" stroke-opacity=".772" stroke="#000" stroke-width="2.5" fill="none"/><path d="M636.68-210.37c10.195 11.072 18.416 11.619 23.021 12.168 3.398-9.976 4.824-31.134.658-53.935" stroke-opacity=".772" stroke="#000" stroke-width="2.5" fill="none"/><path d="M610.27-201.49c10.15 13.137 33.552 38.07 46.143 47.132.438-2.09 1.088-3.062.921-9.747" stroke-opacity=".772" stroke="#000" stroke-width="2.5" fill="none"/><path d="M783.62-345.77c10.874 12.536 52.835 54.722 61.142 74.467 14.339 32.273 40.78 38.409 47.37 34.796" stroke-opacity=".772" stroke="#000" stroke-width="2.5" fill="none"/><path d="M711.72-171.38c3.776 15.441 10.633 43.531 20.513 47.971 1.701-1.66 3.139-4.73 2.972-11.42" stroke-opacity=".772" stroke="#000" stroke-width="2.5" fill="none"/><path d="M654.71-258.89c4.437 4.518 5.442 8.632 10.047 9.181 5.609-4.588 15.488-30.162 11.939-49.039" stroke-opacity=".772" stroke="#000" stroke-width="2.5" fill="none"/><path d="M631.43-259.59c2.086 10.16 4.031 18.741 11.222 18.82 11.957-9.995 15.488-32.369 11.939-51.246" stroke-opacity=".772" stroke="#000" stroke-width="2.5" fill="none"/><path d="M626.8-205.84l-5.384-11.832" stroke-opacity=".772" stroke="#000" stroke-width="2.5" fill="none"/><path d="M742.97-110.09l36.042 32.74" stroke-opacity=".772" stroke="#000" stroke-width="2.5" fill="none"/><path d="M725.81-123.26l11.122 31.31" stroke-opacity=".772" stroke="#000" stroke-width="2.5" fill="none"/><path d="M676.8-151.93c7.564 15.02 23.678 36.7 36.504 39.88.438-2.08.194-3.89.027-10.57" stroke-opacity=".772" stroke="#000" stroke-width="2.5" fill="none"/><path d="M657.28-154.94c7.564 15.01 29.791 39.48 42.617 46.65.438-2.08 2.309-2.48 2.142-9.16" stroke-opacity=".772" stroke="#000" stroke-width="2.5" fill="none"/><path d="M712.64-112.68l16.059 26.63" stroke-opacity=".772" stroke="#000" stroke-width="2.5" fill="none"/><path d="M693.43-179.51c6.906 4.166 14.155 7.657 18.76 8.206.704-16.235-4.956-42.419-16.576-62.467" stroke-opacity=".772" stroke="#000" stroke-width="2.5" fill="none"/><path d="M613.51-264.65c-2.052 7.678-1.767 16.071 5.424 16.15 19.956-8.615 8.041-17.198 25.179-46.28" stroke-opacity=".772" stroke="#000" stroke-width="2.5" fill="none"/><path d="M639.84-317.47c7.564 15.018 9.781 25.229 21.567 29.087 2.359-1.064 8.227-27.609-11.671-49.158" stroke-opacity=".772" stroke="#000" stroke-width="2.5" fill="none"/><path d="M664.08-304.95c3.886 4.518 9.58 5.598 14.185 5.32 4.505-9.001-5.128-34.499-17.811-47.686" stroke-opacity=".772" stroke="#000" stroke-width="2.5" fill="none"/><path d="M775.54-325.74c9.495 13.363 51.155 60.01 69.01 74.901 4.013-.512 9.949 4.471 4.394-12.389" stroke-opacity=".772" stroke="#000" stroke-width="2.5" fill="none"/><path d="M770.86-296.23c9.495 13.363 26.882 35.987 44.737 50.878 4.488 1.675 8.831 1.137 10.258-.03 1.53-1.475.137-12.066.532-22.84" stroke-opacity=".772" stroke="#000" stroke-width="2.5" fill="none"/><path d="M759.55-279.4c10.874 11.984 25.227 25.781 42.806 41.775 4.488 1.675 8.367 1.741 8.879-.03.427-1.751 1.241-1.309.256-12.083" stroke-opacity=".772" stroke="#000" stroke-width="2.5" fill="none"/><path d="M744.38-257.89c10.874 11.984 20.814 20.816 30.67 23.018 4.764.572 7.264.638 7.776-1.133.427-1.751.137-10.135-.02-19.806" stroke-opacity=".772" stroke="#000" stroke-width="2.5" fill="none"/><path d="M728.93-241.89c10.874 11.984 10.884 16.954 20.74 19.156 4.764.572 8.292-.055 9.155-1.684 1.531-3.406 2.068-7.101 1.911-16.772" stroke-opacity=".772" stroke="#000" stroke-width="2.5" fill="none"/><path d="M724.52-320.23c10.953 1.993 11.86-7.476 10.972-14.251-1.078-8.493-7.084-12.21-14.197-10.425" stroke-opacity=".772" stroke="#000" stroke-linecap="round" stroke-width="2.5" fill="none"/><path d="M718.45-282.72c5.161 1.993 11.646 1.866 14.006-4.045 1.906-4.497 1.191-15.52-5.921-13.735" stroke-opacity=".772" stroke="#000" stroke-linecap="round" stroke-width="2.5" fill="none"/><path d="M726.17-300.64c9.85.614 10.771-3.883 10.42-9.562-.39-6.619-4.877-11.658-11.99-9.873" stroke-opacity=".772" stroke="#000" stroke-linecap="round" stroke-width="2.5" fill="none"/><path d="M735.75-326.38c14.383-8.658 55.818 26.062 24.304 37.117" stroke-opacity=".772" stroke="#000" stroke-width="2.5" fill="none"/><path d="M732.7-301.78c14.383-8.658 46.06 19.667 13.942 30.7" stroke-opacity=".772" stroke="#000" stroke-width="2.5" fill="none"/><path d="M727.31-282.24c16.059.558 34.538 26.333 3.053 29.485" stroke-opacity=".772" stroke="#000" stroke-width="2.5" fill="none"/><path d="M708.39-268.47c5.161 1.993 8.143 3.285 12.749-.693 1.817-1.668 4.216-9.317-2.569-13.561" stroke-opacity=".772" stroke="#000" stroke-linecap="round" stroke-width="2.5" fill="none"/><path d="M573.93-299.62c5.431-7.01 18.707-11.479 23.249-2.197" stroke-opacity=".772" stroke="#000" stroke-width="2.5" fill="none"/><path d="M718.08-267.22c9.356 3.073 24.24 29.099-.757 31.754" stroke-opacity=".772" stroke="#000" stroke-width="2.5" fill="none"/><path d="M706.15-384.95c10.789 2.04 16.236 19.472 24.836 20.816 15.725 2.345-2.031-18.199-5.435-20.51" stroke-opacity=".772" stroke="#000" stroke-linecap="round" stroke-width="2.5" fill="none"/><path d="M547.07-310.44c4.839.197 9.381-.692 12.442-6.419" stroke-opacity=".772" stroke="#000" stroke-width="2.5" fill="none"/><path d="M595.04-260.47c2.688 5.012 9.597 3.009 15.307-.467 7.811-4.467 1.228-20.16 19.847-33.542" stroke-opacity=".772" stroke="#000" stroke-width="2.5" fill="none"/><path d="M604.93-194.38c10.15 13.136 29.405 32.737 41.404 43.272.438-2.08 2.385-3.14 2.218-9.83" stroke-opacity=".772" stroke="#000" stroke-width="2.5" fill="none"/><path d="M645.95-152l23.083 32.07" stroke-opacity=".772" stroke="#000" stroke-width="2.5" fill="none"/><path d="M694.09-159.73c3.776 15.436 18.79 39.886 28.67 44.326 1.701-1.67 2.843-8.29 2.676-14.98" stroke-opacity=".772" stroke="#000" stroke-width="2.5" fill="none"/><path d="M688.72-115.52l-1.41 14.31" stroke-opacity=".772" stroke="#000" stroke-width="2.5" fill="none"/><path d="M723.28-187.08c3.776 15.439 9.448 53.011 18.143 59.821 1.701-1.66 5.213-32.874 5.046-39.561" stroke-opacity=".772" stroke="#000" stroke-width="2.5" fill="none"/><path d="M711.61-188.14c5.129.612 8.118.595 12.131.551.704-16.235-6.329-35.318-17.949-55.366" stroke-opacity=".772" stroke="#000" stroke-width="2.5" fill="none"/><path d="M740.21-228.23l-.801 16.416" stroke-opacity=".772" fill-rule="evenodd" stroke="#000" stroke-linecap="round" stroke-width="2.5" fill="#00c600"/><path d="M682.24-235.25c5.425 2.093 9.303 2.77 13.612 2.43 4.453-21.986-6.757-22.009-20.726-37.552" stroke-opacity=".772" stroke="#000" stroke-width="2.5" fill="none"/><path d="M744.66-381.4c10.789 2.04 3.948 18.177 18.615 23.186 12.312 4.104 5.375-12.866 1.971-15.177" stroke-opacity=".772" stroke="#000" stroke-linecap="round" stroke-width="2.5" fill="none"/><path d="M728.62-345.15c7.784-5.662 35.613 2.176 45.03 10.086 2.697 2.515 6.815 12.555-5.979 21.786" stroke-opacity=".772" stroke="#000" stroke-width="2.5" fill="none"/><path d="M581.18-331.85c22.34-21.8 32.701-19.318 58.278-3.238 3.67.863 7.663.108 10.037-1.295 1.295-3.13.061-6.319-1.619-8.741-11.44-8.202-19.965-10.577-30.758-9.066" stroke-opacity=".772" stroke="#000" stroke-width="2.5" fill="none"/><path d="M613.33-250.95c-5.023 7.404-9.131 23.507-.647 41.442.337 2.064 2.504 4.128.323 5.504-4.18 2.106-6.07 5.586-8.418 9.066" stroke-opacity=".772" stroke="#000" stroke-width="2.5" fill="none"/><path d="M743.52-136.46c.153-27.165-3.816-48.837-14.652-68.45" stroke-opacity=".772" stroke="#000" stroke-width="2.5" fill="none"/><path d="M696.59-242.22c3.587-.381 8.089.611 10.302-.457 1.069-3.968-1.984-8.853-3.205-12.592 2.06-.229 4.579-.229 6.181-.687.916-3.434 0-8.242 0-12.363" stroke-opacity=".772" stroke="#000" stroke-width="2.5" fill="none"/><path d="M562.4-319.55c.863-6.044 6.259-12.735 12.303-16.188 2.914-1.619 4.857.324 6.152.97 1.619 2.591.647 7.447 0 9.39-1.619 3.238-4.856 5.828-10.684 8.094l-7.771-2.266z" stroke-opacity=".772" fill-rule="evenodd" stroke="#000" stroke-width="2.5" fill="#fff"/><path d="M614.21-204.29c1.295.647 14.245 14.893 14.245 14.893h7.771l.647-21.692" stroke-opacity=".772" stroke="#000" stroke-width="2.5" fill="none"/><path stroke-linejoin="round" d="M635.25-246.05c-2.59 8.526-1.619 17.052 0 25.578" stroke-opacity=".772" stroke="#000" stroke-linecap="round" stroke-width="2.5" fill="none"/><path d="M618.38-205.84l3.034-11.832" stroke-opacity=".772" stroke="#000" stroke-width="2.5" fill="none"/><path d="M623.92-250.59c-3.886 7.123-4.991 18.825-2.97 27.321" stroke-opacity=".772" stroke="#000" stroke-width="2.5" fill="none"/><path d="M729.76-203.25l-7.326.147" stroke-opacity=".772" stroke="#000" stroke-width="2.5" fill="none"/><path d="M467.29-230.77c1.029 3.172-2.432 1.469-3.175 2.361-3.637 1.284-9.405-3.173-13.047-13.95 1.777-3.017 12.225-9.504 15.578-8.108 0 0 6.574 2.505 7.362 5.251-1.261 4.006-6.941 14.892-6.718 14.446z" fill-rule="evenodd" stroke="#000" stroke-width="2.5" fill="#9f3000"/><path d="M729.76-203.25l.121-14.423" stroke-opacity=".772" stroke="#000" stroke-width="2.5" fill="none"/><path d="M741.67-127.47l2.057 35.19" stroke-opacity=".772" stroke="#000" stroke-width="2.5" fill="none"/><path d="M467.05-229.54c7.099 6.676 18.253 2.198 20.028 18.508.761 9.127-12.169 27.38 0 43.859 4.31 6.339 15.466 13.184 15.466 13.184 5.832 6.507 7.605 18.085 11.408 27.127 8.028 12.001 19.099 14.62 27.888 11.663 0 0 28.902-12.93 28.902-13.184 0-.253-14.704-19.775-14.704-19.521 0 .253-16.48 13.944-16.733 13.944-1.775-.254-11.408.76-14.958-11.409-.253-15.55-7.942-24.159-20.282-30.423-6.253-4.734-11.239-12.253-5.831-22.817 3.126-9.635 6.254-25.86-4.817-36.762-7.099-4.733-12.17-8.451-19.776-9.888-10.056 3.803-9.971 2.789-6.591 15.719z" fill-rule="evenodd" stroke="#000" stroke-width="2.5" fill="#238700"/><path d="M609.97-365.26c-3.886 7.122-3.531 11.392-2.884 18.515" stroke-opacity=".772" stroke="#000" stroke-width="2.5" fill="none"/><path d="M590.25-330.23h9.065c2.411-.064 3.442-.979 5.181-2.266 1.168-.66 2.408-1.654 3.561-2.59.959-.687 2.113-1.493 3.238-1.943 1.836 0 3.272.135 4.856.648 1.465.615 2.67 1.494 3.885 2.266 1.212.485 2.308.648 4.209.648 1.976 0 4.048-.092 5.828.324 1.712.114 3.627.49 4.857.971 1.567.988 2.511 2.167 3.561 3.238.062 1.719.627 2.771.648 4.532 0 1.505.17 3.545-.324 4.533 0 1.863-.297 3.187-.648 4.533-1.19 1.118-1.62 1.982-3.237 2.266-1.272.999-3.178.971-5.181.971h-5.18c-1.125-.937-2.488-1.912-3.885-3.237-.752-1.741-1.248-2.308-2.914-2.914-1.4-.219-3.065-.324-4.856-.324-1.582 0-2.899.11-3.886-.647-.895-.852-2.182-1.299-3.561-1.619-1.468-.416-3.198-.324-4.857-.324h-2.59" stroke-opacity=".772" stroke="#000" stroke-width="2.5" fill="none"/><path d="M598.67-327.32l.324.324c-.735-.734-.466-.381 1.295.324 2.144.495 4.449.903 6.799.971 2.228 0 4.254.273 6.475.324 1.549 0 3.179.127 4.533-.324" stroke-opacity=".772" stroke="#000" stroke-width="2.5" fill="none"/><path d="M619.39-332.5h-.324c1.015 0 .391-.084-.971 1.619-.132 1.849-.528 2.869.324 4.533 1.055.351 2.841 1.135 3.561 1.942 1.042.745.971 1.414.971 3.238-.623 1.012-1.182 1.826-1.942 3.238-.407 1.017-.937 2.383-1.295 3.561-.37 1.479-.628 2.886-.648 4.533v3.237" stroke-opacity=".772" stroke="#000" stroke-width="2.5" fill="none"/><path d="M736.59-370.2c.361.691 6.567 13.085 14.279 5.224 1.143-1.34 1.542-2.313 1.542-4.598 0-1.192-.163-2.578-.458-3.561" stroke-opacity=".772" stroke="#000" stroke-width="2.5" fill="none"/><path d="M549.75-120.93c3.734 5.204 10.521 2.524 11.882-1.641-4.647.302-6.423-2.443-8.063-6.648-.993 2.41-4.865 5.302-3.819 8.289z" fill-rule="evenodd" stroke="#000" stroke-width="1.357" fill="#fff"/><path d="M769.35-358.63c0 .24 6.576 6.288 16.525 6.288 2.4 0 13.807-2.881 17.442-7.949" stroke-opacity=".772" stroke="#000" stroke-width="2.5" fill="none"/><path d="M783.13-352.8c.147.971.458 4.514.458 6.868-.03 2.495.568 4.581-.373 6.661-1.022 2.651-2.159 3.711-4.664 4.621-2.039.923-2.472.039-4.743.123" stroke-opacity=".772" stroke="#000" stroke-width="2.5" fill="none"/><path d="M728.37-365.33c0 .153 7.016 16.818 9.322 18.509" stroke-opacity=".772" stroke="#000" stroke-width="2.5" fill="none"/><path d="M554.31-123.97c3.734 5.204 10.521 2.524 11.882-1.641-4.647.302-6.423-2.443-8.063-6.648-.993 2.41-4.865 5.302-3.819 8.289z" fill-rule="evenodd" stroke="#000" stroke-width="1.357" fill="#fff"/><path d="M561.4-127.01c3.734 5.204 10.521 2.524 11.882-1.641-4.647.302-6.423-2.443-8.063-6.648-.993 2.41-4.865 5.302-3.819 8.289z" fill-rule="evenodd" stroke="#000" stroke-width="1.357" fill="#fff"/><path d="M688.35-373.86h2.289c7.275-1.227 31.718 3.282 35.964 7.781" stroke-opacity=".772" stroke="#000" stroke-width="2.5" fill="none"/><path d="M692.93-255.73l.189 2.649c.902.903-.137-2.439-.647-4.481-.763-1.821-.916-3.021-.916-5.494v-1.832" stroke-opacity=".772" stroke="#000" stroke-width="2.5" fill="none"/><path d="M647.23-147.96v11.33c.331 1.61.324 3.4.324 5.18.203 1.38.683 3.02 1.295 4.54.089 1.92.624 3.18 1.295 4.85.138 1.66.703 3.08 1.295 4.54.14 1.66.678 2.53.971 3.88.469 1.56 1.038 2.57 1.619 3.56.422.43.833 2.6 1.221 2.72" stroke-opacity=".772" stroke="#000" stroke-width="2.5" fill="none"/><path d="M627.48-167.06v8.742c.422 2.147.496 4.417.971 6.477.176 1.85.622 3.43.972 5.18.154 1.73 2.227 7.87 2.914 9.39.766 1.43 1.898 2.92 2.59 3.88 1.294.4 2.349.86 3.885.97h4.533c1.818-.35 2.442-.54 3.237-1.94.437-.87.411-1.48.972-1.94" stroke-opacity=".772" stroke="#000" stroke-width="2.5" fill="none"/><path d="M621.98-108.13c0-.53-.082-2.12.648-3.24 1.146-1.63 2.066-2.64 3.561-4.21 1.768-1.13 6.168-7.18 19.426-10.68 1.545 0 2.085-.3 3.562-.33" stroke-opacity=".772" stroke="#000" stroke-width="2.5" fill="none"/><path d="M623.55-137.51c.108.11 7.246 3.84 10.949 4" stroke-opacity=".772" stroke="#000" stroke-width="2.5" fill="none"/><path d="M643.94-124.97h0z" stroke="#000" stroke-width="1pt" fill="none"/><path d="M640.76-125.32c-1.061-.707-35.388-10.616-34.68-10.616l-12.563 9.024 32.734 11.147 13.094-9.555h1.415z" fill-rule="evenodd" stroke="#000" stroke-width="2.5" fill="#ffbc00"/><path d="M607.96-136.2c2.169-5.505 1.585-12.762-5.505-17.266-16.181-9.926-43.373-9.092-48.544 2.502-5.589-.751-8.425 3.754-9.259 8.258-14.43 3.92-1.081 20.593 2.502 21.266 4.848 1.658 6.173.441 7.007-1.144 2.699.665 6.4-2.222 7.33-4.211 3.427.632 6.031.569 6.096-2.868 9.82 9.203 23.355 15.575 24.859 3.722l15.514-10.259z" fill-rule="evenodd" stroke="#000" stroke-width="2.5" fill="#f7b200"/><path d="M544.67-142.96c-.918 6.423 3.396 13.346 10.236 20.019" stroke="#000" stroke-width="2.5" fill="none"/><path d="M553.66-150.97c-.918 6.423.917 17.349 7.757 24.022" stroke="#000" stroke-width="2.5" fill="none"/><path d="M563.8-157.87c-6.281 5.275-2.858 21.596 3.982 28.269" stroke="#000" stroke-width="2.5" fill="none"/><path stroke-linejoin="round" d="M580.6-291.29c14.494 19.195-5.773 40.403-23.484 52.624-20.879 16.421-32.153 48.432 4.668 50.398 13.295-.245 27.735-1.422 35.861 8.99 8.125 10.412 8.423 29.646-12.043 41.973-2.005-1.77-4.986-7.049-7.206-8.658-2.221-1.609-3.682.454-5.687-1.316-.708-6.606 10.088-16.436-.121-18.813-13.212 2.241-59.461 2.434-58.871-41.683 1.015-9.832 6.271-20.868 14.705-32.096 8.435-11.229 31.558-25.152 33.777-31.248 3.561-5.264-2.95-15.509-8.14-16.925-4.246-11.325 14.509-23.416 26.541-3.246z" fill-rule="evenodd" stroke="#000100" stroke-width="2.5" fill="#288800"/><path d="M548.4-257.32l.5 25.774" stroke="#000" stroke-width="2.5" fill="none"/><path d="M534.89-247.06l27.525 4.004" stroke="#000" stroke-width="2.5" fill="none"/><path d="M555.16-263.07l23.271 4.754" stroke="#000" stroke-width="2.5" fill="none"/><path d="M530.66-242.57l19.379 11.477" stroke-opacity=".642" stroke="#000" stroke-width="2.5" fill="none"/><path d="M516.85-218.33l15.132 16.077" stroke-opacity=".642" stroke="#000" stroke-width="2.5" fill="none"/><path d="M530.83-241.51l2.569 38.017" stroke-opacity=".642" stroke="#000" stroke-width="2.5" fill="none"/><path d="M520.39-225.58l24.863.506" stroke-opacity=".642" stroke="#000" stroke-width="2.5" fill="none"/><path d="M494.38-161.36c3.849-3.647 7.868-8.882 10.355-14.003" stroke="#000" stroke-width="2.5" fill="none"/><path d="M502.17-154.81c5.201-3.219 11.876-5.756 18.495-7.103" stroke="#000" stroke-width="2.5" fill="none"/><path d="M511.72-132.69c4.509-3.758 9.359-7.742 12.676-12.975" stroke="#000" stroke-width="2.5" fill="none"/><path d="M511.9-131.83c7.934-.193 15.982-1.009 23.803-2.449" stroke="#000" stroke-width="2.5" fill="none"/><path d="M526.06-116.24c5.902-2.222 11.294-5.636 15.664-9.049" stroke="#000" stroke-width="2.5" fill="none"/><path d="M485-169.32c4.575-3.694 9.151-7.898 12.875-12.273" stroke="#000" stroke-width="2.5" fill="none"/><path d="M481.64-181.17c4.974-1.335 9.834-3.862 14.071-6.218" stroke="#000" stroke-width="2.5" fill="none"/><path d="M483.38-193.51c4.023-1.56 8.727-2.211 13.09-2.466" stroke="#000" stroke-width="2.5" fill="none"/><path d="M487.13-204.88c4.867-.479 8.146-.183 13.014 1.34" stroke="#000" stroke-width="2.5" fill="none"/><path d="M487.94-212.11c4.027-2.161 8.554-3.57 13.082-2.978" stroke="#000" stroke-width="2.5" fill="none"/><path d="M485.94-217.45l14.023-9.575" stroke="#000" stroke-width="2.5" fill="none"/><path d="M483.46-221.41l11.943-11.839" stroke="#000" stroke-width="2.5" fill="none"/><path d="M480.07-223.05l8.751-14.946" stroke="#000" stroke-width="2.5" fill="none"/><path d="M514.98-311.4l-.109 21.3" stroke="#000" stroke-width="2.5" fill="none"/><path d="M536.53-308c-3.141 6.136-7.537 13.395-13.188 18.814" stroke="#000" stroke-width="2.5" fill="none"/><path d="M520.63-312.12c-6.256-.5-12.167 2.888-16.922 6.892" stroke="#000" stroke-width="2.5" fill="none"/><path stroke-linejoin="round" d="M553.98-295.86c10.398 3.825 24.202 9.084 22.767 39.619 8.605-9.322 12.549-22.408 1.613-38.901-7.35-7.948-18.106-9.622-24.38-.718z" fill-rule="evenodd" fill-opacity=".994" stroke="#000" stroke-linecap="round" stroke-width="1pt" fill="#9d4600"/><path d="M558.67-285.68c.418-5.916 8.694-13.235 13.056-14.848" stroke="#000" stroke-width="2.5" fill="none"/><path d="M561.85-280.33c2.18-7.56 11.606-13.564 15.968-15.177" stroke="#000" stroke-width="2.5" fill="none"/><path d="M562.05-269.61c4.026.062 19.264-8.388 22.75-13.42" stroke="#000" stroke-width="2.5" fill="none"/><path d="M563.3-275.25c4.899-3.406 14.102-11.115 18.464-12.728" stroke="#000" stroke-width="2.5" fill="none"/><path d="M576.75-269.08c3.668-2.089 4.922-1.576 8.767-5.532" stroke="#000" stroke-width="2.5" fill="none"/><path d="M553.98-295.68c10.457 3.406 23.244 11.115 22.408 39.439" stroke="#000" stroke-width="2.5" fill="none"/><path d="M519.17-186.24l14.231-17.252" stroke-opacity=".642" stroke="#000" stroke-width="2.5" fill="none"/><path d="M520.94-182.69l12.71-.012" stroke-opacity=".642" stroke="#000" stroke-width="2.5" fill="none"/><path d="M513.85-199.93l17.781 10.129" stroke-opacity=".642" stroke="#000" stroke-width="2.5" fill="none"/><path d="M537.79-201.65c-3.404-.315-5.358-.964-8.316-2.059 1.394 22.915 3.679 24.09 7.302 32.735 10.835 6.869 29.585 5.265 37.522 3.55.853 1.199 5.544 7.021 2.659 8.713-3.11 1.951-4.373 5.732-4.485 11.845 1.837 2.069 3.752.272 5.621 1.603s4.071 6.042 5.802 10.096c0 0 23.042-15.837 19.305-30.736-2.453-13.996-11.916-18.761-11.916-18.761-13.378-6.689-32.182-2.253-39.043-4.817-8.534-1.895-13.904-9.271-14.451-12.169z" fill-rule="evenodd" stroke="#000" stroke-width="1pt" fill="#9d4600"/><path d="M575.75-161.22c11.541-5.268 23.744-5.699 27.056-5.214" stroke="#000" stroke-width="2.5" fill="none"/><path d="M530.61-191.83c2.505-1.467 6.192-4.597 10.439-4.531" stroke="#000" stroke-width="2.5" fill="none"/><path d="M551.84-166.59c2.05-12.14 7.253-20.338 9.933-22.388" stroke="#000" stroke-width="2.5" fill="none"/><path d="M558.77-165.64c2.05-12.14 7.725-20.811 10.405-22.861" stroke="#000" stroke-width="2.5" fill="none"/><path d="M566.5-166.43c2.05-12.14 7.253-20.022 9.933-22.072" stroke="#000" stroke-width="2.5" fill="none"/><path d="M572.33-167.38c2.05-12.14 8.829-18.13 11.509-20.18" stroke="#000" stroke-width="2.5" fill="none"/><path d="M576.21-163.94c2.05-12.14 12.361-18.885 15.041-20.935" stroke="#000" stroke-width="2.5" fill="none"/><path d="M576.53-162.05c7.028-10.108 18.579-15.019 21.877-15.731" stroke="#000" stroke-width="2.5" fill="none"/><path d="M544.58-168.16c2.05-12.14 7.41-18.761 10.09-20.811" stroke="#000" stroke-width="2.5" fill="none"/><path d="M537.65-170.37c2.05-12.14 8.357-18.288 11.037-20.338" stroke="#000" stroke-width="2.5" fill="none"/><path d="M573.66-145.43c5.447-4.286 9.151 9.556 9.421 11.234s1.288 3.387 4 4.954" stroke="#000" stroke-width="2.5" fill="none"/><path d="M533.39-178.73c2.208-6.149 7.096-12.927 9.776-14.977" stroke="#000" stroke-width="2.5" fill="none"/><path d="M563.26-157.31c-7.071 11.231 1.09 21.147 10.245 17.17-1.051-7.762-3.036-12.692 4.043-20.158-5.02.297-9.526-1.48-14.288 2.988z" fill-rule="evenodd" stroke="#000" stroke-width="2.657" fill="#fff"/><path d="M536.59-239.89l3.345 16.499" stroke="#000" stroke-width="2.5" fill="none"/><path d="M539.94-224.73l-6.02 20.289" stroke="#000" stroke-width="2.5" fill="none"/><path d="M575.5-160.16c12.452-2.428 24.418.001 27.525 1.246" stroke="#000" stroke-width="2.5" fill="none"/><path d="M574.03-158.17c12.763-.185 23.894 5.028 26.638 7.077" stroke="#000" stroke-width="2.689" fill="none"/><path d="M574.16-155.8c12.279 2.793 17.782 9.019 19.929 11.649" stroke="#000" stroke-width="2.671" fill="none"/><path d="M573.31-152.97c11.016 6.1 13.495 11.105 14.825 14.229" stroke="#000" stroke-width="2.671" fill="none"/><rect fill-rule="evenodd" transform="rotate(-13.197)" height="28.102" width="6.076" y="-2.196" x="402.17" fill="#296526"/><path d="M440.25-1.505l12.42 14.145 4.639-3.924-11.66-14.652-5.399 4.43z" fill-rule="evenodd" fill="#296526"/><path d="M819.38 58.927l-15.388 10.842 3.407 5.03 15.811-10.032-3.83-5.84z" fill-rule="evenodd" fill="#296526"/><path d="M900.56-8.755l-13.727 12.881 4.074 4.506 14.259-12.137-4.606-5.25z" fill-rule="evenodd" fill="#296526"/><path d="M944.08-99.626l-4.993 12.325 2.729 3.534 5.372-11.727-3.108-4.132z" fill-rule="evenodd" fill="#296526"/><path d="M537.48-169.7c-6.667-10.971-7.511-22.448-7.848-33.672 3.544 1.688 6.329 2.616 8.354 2.025" stroke="#000" stroke-width="2.5" fill="none"/><path d="M514.26-312.04c-5.49-13.725.848-21.161 7.694-27.678" stroke="#000" stroke-width="2.5" fill="none"/><path d="M523.206-343.54c1.155 1.463.452 4.115-1.57 5.922-2.022 1.808-4.598 2.087-5.753.624-1.155-1.463-.452-4.115 1.57-5.922 2.022-1.808 4.598-2.087 5.753-.624z" fill-rule="evenodd"/><path d="M487.66-239.05c-1.148 0-21.033-2.677-21.033-2.677" stroke="#000" stroke-width="3.25" fill="none"/><path d="M479.25-224.52c0-.765-13.002-16.826-13.002-16.826" stroke="#000" stroke-width="3.25" fill="none"/></g></svg>