<svg xmlns="http://www.w3.org/2000/svg" id="flag-icons-my" viewBox="0 0 512 512" fill="none"><path fill="#C00" d="M0 0h512v36.571H0z"/><path fill="#fff" d="M0 36.571h512v36.571H0z"/><path fill="#C00" d="M0 73.143h512v36.571H0z"/><path fill="#fff" d="M0 109.714h512v36.571H0z"/><path fill="#C00" d="M0 146.286h512v36.571H0z"/><path fill="#fff" d="M0 182.857h512v36.571H0z"/><path fill="#C00" d="M0 219.429h512V256H0z"/><path fill="#fff" d="M0 256h512v36.571H0z"/><path fill="#C00" d="M0 292.571h512v36.571H0z"/><path fill="#fff" d="M0 329.143h512v36.571H0z"/><path fill="#C00" d="M0 365.714h512v36.571H0z"/><path fill="#fff" d="M0 402.286h512v36.571H0z"/><path fill="#C00" d="M0 438.857h512v36.571H0z"/><path fill="#fff" d="M0 475.429h512V512H0z"/><path fill="#006" d="M0 0h256v292.571H0V0Z"/><path fill="#FC0" d="m165.983 92.926 4.8 32.56 18.4-27.2-9.92 31.36 28.4-16.64-22.48 24 32.8-2.56-30.64 11.84 30.64 11.84-32.8-2.56 22.48 24-28.4-16.64 9.84 31.44-18.4-27.28-4.8 32.56-4.72-32.56-18.4 27.2 9.92-31.36-28.4 16.64 22.4-24-32.8 2.56 30.72-11.84-30.64-11.84 32.8 2.56-22.48-24 28.4 16.64-9.92-31.44 18.4 27.28 4.8-32.56Zm-26.64 1.36a56.883 56.883 0 0 0-73.049 24.879 56.882 56.882 0 0 0 45.466 83.82 56.886 56.886 0 0 0 27.583-4.699 64 64 0 1 1 0-104Z"/></svg>