<svg xmlns="http://www.w3.org/2000/svg" id="flag-icons-my" viewBox="0 0 512 512">
  <path id="path833" fill="#fff" d="M0 0h512v512H0Z" style="stroke-width:.0538748"/>
  <path id="path835" stroke="#c00" stroke-width="26.7" d="M0 13.3h512m0 75.1H0m0 75h512m0 75.1H0"/>
  <path id="path837" fill="#006" d="M0 0h256v298.7H0Z" style="stroke-width:.0528079"/>
  <path id="path839" stroke="#c00" stroke-width="26.4" d="M0 307.8h512m0 76.2H0m0 76.2h512"/>
  <path id="path841" fill="#fc0" d="m172.5 86.8 5.6 38.2 21.6-32-11.6 36.8 33.3-19.4-26.4 28.1 38.5-3-36 13.8 36 14-38.5-3.1 26.4 28L188 169l11.6 36.7-21.6-31.9-5.6 38.1-5.6-38-21.5 31.8 11.5-36.7-33.2 19.4 26.3-28.1-38.4 3 36-13.9-36-13.9 38.4 3.1-26.3-28.1 33.2 19.4L145.4 93l21.5 32zm-31.2 1.6a66.7 66.7 0 1 0 0 121.9 75 75 0 1 1 0-121.9z" style="stroke-width:.0520834"/>
</svg>
