<svg xmlns="http://www.w3.org/2000/svg" height="512" width="512" version="1">
    <g fill-rule="evenodd">
        <path fill="#e80008" d="M0 0h512.002v512.005h-512.002z"/>
        <path fill="#fff" d="M0 36.573h512.002v36.572h-512.002z"/>
        <path fill="#fff" d="M0 109.717h512.002v36.572h-512.002z"/>
        <path fill="#fff" d="M0 182.859h512.002v36.572h-512.002z"/>
        <path fill="#fff" d="M0 256.004h512.002v36.572h-512.002z"/>
        <path fill="#fff" d="M0 329.148h512.002v36.572h-512.002z"/>
        <path fill="#fff" d="M0 402.293h512.002v36.572h-512.002z"/>
        <path fill="#fff" d="M0 475.438h512.002v36.572h-512.002z"/>
    </g>
    <g fill-rule="evenodd">
        <path fill="#000689" d="M-.962-.666h261.852v151.014h-261.852z"/>
        <g fill="#fe0">
            <path d="M131.975 127.69c-28.173 15.677-63.395 5.084-78.619-23.311-15.223-28.396-4.713-63.895 23.461-79.238 17.42-9.487 36.553-9.675 53.936-.344-9.809-2.361-18.569-2.234-28.087.593-27.726 8.236-43.664 37.836-35.575 66.071 8.088 28.234 37.155 44.464 64.88 36.228z"/>
            <path d="M122.191 39.415l29.355 17.52-9.846-32.735 18.843 28.522 5.335-33.767 4.599 33.876 19.456-28.113-10.551 32.519 29.727-16.889-23.617 24.721 34.111-2.317-32.005 12.027 31.737 12.711-34.05-3.048 23.078 25.22-29.355-17.52 9.846 32.736-18.843-28.523-5.335 33.765-4.599-33.875-19.456 28.115 10.551-32.522-29.727 16.889 23.617-24.721-34.111 2.317 32.005-12.027-31.737-12.711 34.05 3.048z"/>
        </g>
    </g>
</svg>
