<svg viewBox="0 0 150 150" fill="none" xmlns="http://www.w3.org/2000/svg">
<rect width="150" height="10.7143" fill="#CC0000"/>
<rect y="10.7142" width="150" height="10.7143" fill="white"/>
<rect y="21.4286" width="150" height="10.7143" fill="#CC0000"/>
<rect y="32.1428" width="150" height="10.7143" fill="white"/>
<rect y="42.8572" width="150" height="10.7143" fill="#CC0000"/>
<rect y="53.5714" width="150" height="10.7143" fill="white"/>
<rect y="64.2858" width="150" height="10.7143" fill="#CC0000"/>
<rect y="75" width="150" height="10.7143" fill="white"/>
<rect y="85.7142" width="150" height="10.7143" fill="#CC0000"/>
<rect y="96.4286" width="150" height="10.7143" fill="white"/>
<rect y="107.143" width="150" height="10.7143" fill="#CC0000"/>
<rect y="117.857" width="150" height="10.7143" fill="white"/>
<rect y="128.571" width="150" height="10.7143" fill="#CC0000"/>
<rect y="139.286" width="150" height="10.7143" fill="white"/>
<path d="M0 0H75V85.7143H0V0Z" fill="#000066"/>
<path d="M48.6278 27.2244L50.034 36.7634L55.4247 28.7947L52.5184 37.9822L60.8387 33.1072L54.2528 40.1384L63.8622 39.3884L54.8856 42.8572L63.8622 46.3259L54.2528 45.5759L60.8387 52.6072L52.5184 47.7322L55.4012 56.9431L50.0106 48.9509L48.6043 58.49L47.2215 48.9509L41.8309 56.9197L44.7372 47.7322L36.4168 52.6072L42.9793 45.5759L33.37 46.3259L42.37 42.8572L33.3934 39.3884L43.0028 40.1384L36.4168 33.1072L44.7372 37.9822L41.8309 28.7712L47.2215 36.7634L48.6278 27.2244ZM40.8231 27.6228C38.2861 26.4982 35.5085 26.025 32.7423 26.2461C29.976 26.4672 27.3088 27.3756 24.9827 28.8889C22.6566 30.4022 20.7452 32.4724 19.4221 34.9117C18.0989 37.351 17.4059 40.0821 17.4059 42.8572C17.4059 45.6322 18.0989 48.3633 19.4221 50.8026C20.7452 53.2419 22.6566 55.3122 24.9827 56.8255C27.3088 58.3388 29.976 59.2472 32.7423 59.4683C35.5085 59.6894 38.2861 59.2162 40.8231 58.0916C38.0212 60.1019 34.7192 61.3006 31.2803 61.5558C27.8413 61.811 24.3985 61.1129 21.3306 59.5382C18.2627 57.9635 15.6885 55.5732 13.891 52.6302C12.0936 49.6873 11.1426 46.3056 11.1426 42.8572C11.1426 39.4087 12.0936 36.0271 13.891 33.0841C15.6885 30.1412 18.2627 27.7509 21.3306 26.1762C24.3985 24.6015 27.8413 23.9034 31.2803 24.1586C34.7192 24.4138 38.0212 25.6125 40.8231 27.6228Z" fill="#FFCC00"/>
</svg>
