<svg xmlns="http://www.w3.org/2000/svg" height="512" width="512" version="1"><defs><clipPath id="a"><rect fill-opacity=".67" height="512" width="512"/></clipPath></defs><g fill-rule="evenodd" clip-path="url(#a)"><rect height="512" width="512" fill="#fff"/><g><path d="M-108.238.239l.856 368.58 573.98-368.82-574.84.239z" fill="#3662a2"/><path d="M630.69 511.53l-1.347-383.25-578.98 383.54 580.33-.283z" fill="#38a100"/><path d="M-107.868 396.61l.487 115.39 125.25-.16 611.76-410.14-.69-100.32-123.76-1.141-613.05 396.37z" fill="#c70000"/></g><g><polygon points="223.81 249.35 185.84 228.38 165.9 266.9 143.51 229.75 106.98 253.15 106.16 209.78 62.824 211.77 83.799 173.8 45.275 153.86 82.424 131.47 59.031 94.937 102.4 94.117 100.41 50.785 138.38 71.759 158.32 33.235 180.71 70.385 217.24 46.991 218.06 90.362 261.39 88.367 240.42 126.34 278.94 146.28 241.79 168.67 265.19 205.2 221.82 206.02" transform="matrix(.624 .024 -.025 .624 20.58 22.369)" fill="#ffe700"/><path d="M167.768 119.933c0 27.247-22.261 49.336-49.721 49.336s-49.721-22.089-49.721-49.336 22.261-49.336 49.721-49.336 49.721 22.089 49.721 49.336z" fill="#3662a2"/><path d="M156.976 119.932c0 21.5-17.429 38.929-38.929 38.929s-38.929-17.429-38.929-38.929 17.429-38.929 38.929-38.929 38.929 17.429 38.929 38.929z" fill="#ffe700"/></g></g></svg>