<?xml version="1.0" encoding="UTF-8" standalone="no"?>
<svg id="svg378" xmlns:rdf="http://www.w3.org/1999/02/22-rdf-syntax-ns#" xmlns="http://www.w3.org/2000/svg" height="512" width="512" version="1" y="0" x="0" xmlns:cc="http://creativecommons.org/ns#" xmlns:dc="http://purl.org/dc/elements/1.1/">
 <metadata id="metadata2993">
  <rdf:RDF>
   <cc:Work rdf:about="">
  <dc:format>image/svg+xml</dc:format>
  <dc:type rdf:resource="http://purl.org/dc/dcmitype/StillImage"/>
   </cc:Work>
  </rdf:RDF>
 </metadata>
 <defs id="defs380">
  <clipPath id="clipPath9157" clipPathUnits="userSpaceOnUse">
   <rect id="rect9159" fill-opacity="0.67" height="496.06" width="496.06" y="-.000011173" x="44.568"/>
  </clipPath>
 </defs>
 <g id="flag" clip-path="url(#clipPath9157)" fill-rule="evenodd" transform="matrix(1.0321 0 0 1.0321 -46 .000011531)">
  <g id="g2490" transform="matrix(.77905 0 0 1 .00065043 -248.03)">
   <rect id="rect149" transform="scale(-1)" height="496.06" width="744.09" y="-744.09" x="-744.09" fill="#fff"/>
   <rect id="rect148" transform="scale(-1)" height="165.35" width="744.09" y="-413.39" x="-744.09" fill="#ff7000"/>
   <rect id="rect585" transform="scale(-1)" height="165.35" width="744.09" y="-744.09" x="-744.09" fill="#36a100"/>
  </g>
  <path id="path578" d="m580.68 372.84c0 38.554-31.254 69.808-69.808 69.808s-69.808-31.254-69.808-69.808 31.254-69.808 69.808-69.808 69.808 31.254 69.808 69.808z" transform="matrix(.68523 0 0 .68523 -60.22 -7.4509)" fill="#ff7000"/>
 </g>
</svg>
