<svg xmlns="http://www.w3.org/2000/svg" id="flag-icon-css-nf" width="512" height="512">
  <g fill-rule="evenodd" stroke-width="1pt">
    <path fill="#fff" d="M155.83 0H356.2v512H155.83z"/>
    <path fill="#198200" d="M0 0h155.83v512H0zm356.19 0H512v512H356.19z"/>
  </g>
  <g fill-rule="evenodd" stroke="#000" stroke-linejoin="round">
    <path fill="#198200" stroke-linecap="round" stroke-width=".74" d="M242.96 332.36v41.02l16.58.17s-5.3-35.73-2.4-40.51c2.92-4.79 5.65-4.1 5.65-4.1s10.77 3.24 11.97 2.73c1.2-.51-.17-4.1 5.64-3.59 1.88-.68.85-3.93 2.56-4.1 1.71-.17 34.7 9.23 41.88.34-1.88-4.96-8.38-.34-10.08-.17-1.54 0-8.04-3.08-11.8 0-3.42-2.56-18.97-4.27-18.97-4.27-2.06-2.06 37.09 1.02 39.31-.52 4.62-4.61-8.54-4.1-10.6-2.56-3.64-2.22-8.22-2.05-11-.51-1.35-3.2-14.07-1.83-21.13-2.74-2.26-1.32-1.88-2.08-.34-2.9 14.75.62 29.44 2.54 44.27 1.88 4-5.23-5.05-7.19-10.6-2.74-3.26-5.36-9.91-.17-14.36-.68-4.44-.52-2.4-5.99 3.25-5.13 5.64.85 15.73-.34 17.6-2.9 1.89-2.57-1.12-5.18-10.42-2.74-3.15-3.08-10.09 0-13.33 1.02-4.32-2.4-14.36-.34-17.78.52-3.35-2.08 17.6-5.47 17.6-5.47 8.1-.15 12.66-1.54 15.22-2.23 12.23-6.55-.18-7.25-6.6-2.48-3.98-3.11-7.76.26-11.35 1.46s-10.43 2.05-10.43 1.54c0-.52 9.75-6.5 9.75-6.5s11.96-.85 14.36-1.2c2.39-.34 14.64-6.62-2.06-2.39-5.8.52-9.23.17-11.45.34-12.89-1.33 1.2-2.56 1.2-2.56s18.24-1.68 18.46-2.56c.36-7.12-14.87-3.76-15.04-3.76.04-5.09-14.2.17-14.2 0-2.71-1.6 1.55-3.25 1.55-3.25 3.76-.91 9.38-1.18 10.85-2.38 0 0 10.62-.1 11.88-2.92-2.6-7.19-22.47 1.27-25.13 2.56-3.59 0 2.4-5.8 2.57-5.98.17-.17 16.4-.85 24.1-11.28.53-6.35-9.06 3.59-9.06 3.59-.72-8.23-10.43.51-16.07 1.2-5.64.68-5.8-2.57-1.88-3.08 3.93-.52 8.38-.17 10.6-6.16 2.22-5.98 8.89.35 10.09-1.88 1.2-2.22-2.4-4.1-2.4-4.1s4.96-5.13-3.07-4.96c-8.04.17-18.47-1.02-18.47-1.02s8.38-3.25 16.24-3.08c7.87.17 3.6-5.64-3.93-5.64-7.52 0-11.45-2.56-11.45-2.56l12.82-4.79-.86-3.59s7.53-5.98-3.07-4.62c-10.6 1.37-11.8 1.54-11.8 1.54s-21.2 3.25-21.36 3.25c-.17 0-5.82-1.7-.35-3.08 5.47-1.36 24.79-5.3 27.7-4.27 2.9 1.03-.35-7.18-10.6-8.2-10.26-1.03-16.58 2.56-16.58 2.56s-6.67-2.4-.52-4.44c6.16-2.05 15.9.68 15.9.68s10.94-3.25 1.88-4.62c-9.06-1.36-11.91 1.23-16.07 1.37-1.65-2.07 14.23-2.56 15.22-4.27-1.68-3.08-11.51 0-17.27 0-2.45-1.04-2.6-2.72.17-3.76 5.87-.23 11.38.11 17.25-.11-.17-3.14.02-6.84-.15-9.98-7.45-1.36-16.18.98-20.36.79 1.12-3.42 17.2-4.3 18.99-5.23 3.72-4.65-15.73 0-15.9 0-3.39-.5-3.17-2.65-1.02-3.93 4.95-.57 16.07.72 15.23-2.64-.65-3.15-7.71-1.47-10.62-.78-2.9.68-7.18.17-7.18.17-1.86-2.5 16.75-1.49 16.58-3.42-.24-2.22-11.8-.68-15.72-.51-3.07-2.12 14.75-3.52 15.04-3.76.64-5.69-11.96 0-14.36 0-2.4 0-1.2-3.6-1.2-3.6s4.96-2.22 4.8-2.56c-.18-.34-3.77-1.54-4.11-1.54-.34 0 0-3.93 0-3.93s4.1-3.07 3.76-3.93c-.34-.85-4.79.68-4.79.68v-3.41s3.25-.35 3.6-1.88c.34-1.54-3.94-1.71-3.94-1.71l-1.7-17.95-1.55 16.75-5.64.85s3.93 2.23 4.62 4.45c.68 2.22-4.79 1.54-4.79 1.54s4.45 3.76 4.79 5.13c.34 1.36-6.16 1.7-6.16 1.7s5.47 3.94 5.82 6.16c.34 2.22 0 3.42 0 3.42s-9.06-7.87-14.88-5.64c-3.02 1.57 6.92 2.3 13.5 8.03 0 1.28-15.98-3.9-16.57-.68.37.89 17.06 3.29 18.29 5.47-6.1.22-18.7-1.34-18.3.68-1.27 2.33 11.92 1 17.44 2.9 1.62 1.85 1.45 3.4-1.36 3.6-5.33-2.55-17.24-4.45-17.27-1.2.07.87 12.31.3 16.75 3.25-5.92 1.34-26.02-2.75-26.15-.75.58.93 3.76 5.02 9.23 4.85 5.47-.17 18.12 2.22 18.97 3.93.86 1.71-16.4-3.59-22.9-.51s18.63 1.2 22.73 4.96-8.2-.35-8.2-.35-17.1-2.39-19.66-1.2c-2.56 1.2-5.47 3.94-5.47 3.94s1.71 3.42 3.42 2.73c1.7-.68-.51 2.06-.51 2.06s23.93 5.8 29.23 10.94c5.3 5.12-30.43-8.04-30.43-8.04s-14.36 5.3.85 5.64c-1.75 2.56.86 4.1.86 4.1s25.3 5.3 27.86 9.4c2.57 4.1-17.26-3.93-21.7-6.15-4.45-2.22-17.1 1.37-16.93 2.22.17.86 6.15 2.06 6.32 3.6.17 1.53-7.35 2.04-7.35 3.41s31.97 8.04 40.52 15.22-25.13-8.55-25.13-8.55 1.88 2.56 0 3.25c-1.88.68-8.55-9.58-19.49-3.25-2 2.6 9.55 4.67 12.48 4.96-1 2.57-1.88 3.42 2.22 5.98 4.1 2.56-8.03-3.76-8.03-3.42 0 .34.85 4.45.85 4.45-3.78-3.08-8.36-4.01-12.65-.86 0 0-.17 3.08 4.28 4.96-2.43 4.96 2.73 3.42 10.94 8.03-12.2-3.19-13.16 2.74-4.45 4.1 8.72 1.37 32.65 2.23 38.3 9.58 5.63 7.35-8.02-2.82-9.58-3.08-.34.17-.68 3.76-.68 3.76-3.65-2.11-7.01-4-11.37-4.9-.34.68-.26 1.65-.6 2.34-3.96-2.86-7.41-4.85-13.16-5.13l-.69 2.73s-4.78-5.98-14.18 0c-5.25 3.77 19.83 1.37 23.93 5.82 4.1 4.44.85 5.12.85 5.12l-10.25-3.76s-12.14-2.22-15.56.51c-3.42 2.74 49.92 9.4 51.45 16.76 1.04 3.98-12.53-4.19-24.27-7.7l-1.37 3.94s-4.66-4.69-9.91-5.47c-.17 0 1.02 4.61 1.02 4.61s-13.16-6.15-19.82-2.9c-6.67 3.24 23.24 4.95 25.98 8.03 2.73 3.08-9.06-2.05-10.09 0-1.02 2.05-15.55-3.76-15.38-1.03.17 2.74 2.05 4.28 2.05 4.28s30.26 2.9 31.28 6.5c1.03 3.58-16.75-2.06-16.75-2.06s-1.71 2.57-.34 3.76c1.37 1.2-10.26-6.84-9.23-1.54-3.77-1.5-13.5-6.15-12.14-2.56 1.37 3.6 27.52 8.72 27.52 8.72s-11.45.85-10.94 3.76c-14.73-8.98-14.36-3.25-14.01-3.08.34.17-18.98-4.78-4.45 3.08 14.53 7.86 7.86 6.5 8.04 6.67.17.17 1.53 3.93 1.2 3.93-.35 0-9.92-5.13-13.17-5.47-3.25-.35-18.63 4.27-2.22 11.45 16.4 7.18 26.5-1.71 35.55-.68 9.06 1.02 13.34 2.56 12.48 5.47-.85 2.9-9.25-9.53-18.1 1.22-10.05-1.99-16.88-3.14-11.69 4.25-16.42-6.14-26.45 1.88-5.76 5.12 20.32.6 32.82-4.95 32.82-4.95s3.41 6.32 8.37 1.88c4.96-4.45 5.13 1.7 5.3 1.7.17 0 4.79-2.04 4.79-2.04h1.2z"/>
    <path fill="#fff" stroke-linecap="round" stroke-width=".79" d="M244.96 308.08v-2.86s-6.45-1.14-9.6-.5c-1.87-1.07-3.63-2.48-5.86-1.29-.43.93 4.08 3.37 5.59 3.37 1.76 1.11 9.87 1.43 9.87 1.28zm-.07 4.66s-6.46-2.36-9.03.36c.42 2.89 7.6 4.3 9.1 3.5 1.5-.78 0-3.72-.07-3.86zm10.88 1.14v2s7.73 1.51 9.1-.14c1.35-1.64-6.16-2.72-9.1-1.86zm-.36-7.98l.29 2.26s6.66 1.5 9.23-2.15c2.58-3.65-5.85.03-9.51-.11zm.36-7.76v1.5s5.01.79 6.16-1.36c1.14-2.15-6.02 0-6.16-.14zm-10.47-4.63c-.77-1.1-3.49-3.82-10.79-4.6-5.07-.02 9.16 7.46 10.8 4.6zm10.33-7.61s-.29 2.07-.22 2.07c.07 0 17.18-5.08 21.19-4.72 3.58-1.01 4.3-3.5 4.15-3.5-3.05-2.24-17.82 1.78-25.12 6.15zm.35-6.09c-.07.36-.21 2-.21 2s12.1-2.36 15.32-4.65c3.22-2.29-14.96 2.72-15.1 2.65zm-.5-5.94v2.02s8.08-.24 9.74-1.87c1.06-1.63-7.12-.23-9.74-.15zm16.85 16.95s4.2.59 4.99-.63c-.16-2.16-4.99.7-4.99.63zm-16.49-24.46c-.07.35.07 4.43.07 4.43s19.4-6.15 20.62-7.3c1.21-1.14 3.91-4.59-20.69 2.87zm-.57-6.16v3.22s7.8-.57 11.38-3.5c3.58-2.94-11.38.35-11.38.28zm-9.38-7.3l.5 2.94s-25.7-8.3-25.62-8.3c.07 0-1.3-4.24 25.12 5.36zm.43-10.3c-.07.28-.07 2.78-.14 2.71-.07-.07-17.82-7.44-18.47-6.8-2.36-5.52 18.61 4.23 18.61 4.08zm8.66 4.57l.29 2.5s10.88-2.28 11.53-3.36c.64-1.07-11.81.93-11.81.86zm.26 5.8c.1.61.31 2.58.31 2.58s4.37-.36 5.01-1.36c.65-1-5.32-1.15-5.32-1.22zm-.69-13.24l.07 2.43s11.96-2.36 13.25-3.5c1.28-1.15-13.53 1.07-13.32 1.07zm.07-6.59c0 .15-.43 2.44-.14 2.44.28 0 14.53-2.44 16.75-4.44 2.22-2-16.4 2.22-16.6 2zm-.21-11.59v2.5s9.23-1.93 10.95-3.86-10.95 1.5-10.95 1.36zm-1.58-16.9l.22 3.8s12.38-1.72 14.17-3.8c1.79-2.07-14.46 0-14.39 0zm-5.72-28.41v2.36s-5.87-.29-4.44-1.29c1.43-1 4.44-.86 4.44-1.07zm5.44 3.15l.14 3.22s7.6-.71 8.16-1.93c.58-1.22-8.16-1.29-8.3-1.29zm-.43 4.65s.14 2 .28 2 3.01-.2 3.65-1-3.65-.85-3.93-1zm-6.44 9.16c0 .22.21 3.08.07 3-.14-.06-16.6-4.79-18.11-4.72-1.5.08-1.93-3.79 18.04 1.72zm1.35 5.37c0 .58.36 3.58-.21 3.44-.57-.14-11.17-3.5-10.1-4.5 1.08-1.01 10.31 1.28 10.31 1.06zm-.92 22.62l.07 2.72s-18.47-5.59-19.11-6.52c-.65-.93-2.43-5.3 19.04 3.8zm.71 6.66c0 .07.15 2.58.07 2.58s-25.12-8.8-25.12-8.8-2-6.6 25.05 6.22z"/>
    <path fill="#fff" stroke-width=".79" d="M217.05 314.73l-.09 2.74s-4.88-1.37-6.42-4.11c2.82-.77 6.6 1.46 6.5 1.37z"/>
  </g>
</svg>
