<?xml version="1.0" encoding="UTF-8" standalone="no"?>
<svg id="svg3336" xmlns:rdf="http://www.w3.org/1999/02/22-rdf-syntax-ns#" xmlns="http://www.w3.org/2000/svg" height="512" width="512" version="1.1" xmlns:cc="http://creativecommons.org/ns#" xmlns:xlink="http://www.w3.org/1999/xlink" xmlns:dc="http://purl.org/dc/elements/1.1/">
 <metadata id="metadata3594">
  <rdf:RDF>
   <cc:Work rdf:about="">
    <dc:format>image/svg+xml</dc:format>
    <dc:type rdf:resource="http://purl.org/dc/dcmitype/StillImage"/>
    <dc:title/>
   </cc:Work>
  </rdf:RDF>
 </metadata>
 <defs id="defs3338">
  <linearGradient id="cap1" y2="283.42" gradientUnits="userSpaceOnUse" x2="500.63" y1="289.05" x1="498.74">
   <stop id="stop3341" stop-color="#510000" offset="0"/>
   <stop id="stop3343" stop-color="#8a0000" offset=".3"/>
   <stop id="stop3345" stop-color="#a00" offset="1"/>
  </linearGradient>
  <linearGradient id="cap2" y2="287.45" gradientUnits="userSpaceOnUse" x2="502.93" y1="291.37" x1="501.44">
   <stop id="stop3348" stop-color="#ff2a2a" offset="0"/>
   <stop id="stop3350" stop-color="#f00" offset="1"/>
  </linearGradient>
  <linearGradient id="mountain" y2="317.65" gradientUnits="userSpaceOnUse" x2="484.76" y1="311.71" x1="484.76">
   <stop id="stop3353" stop-color="#F5F549" offset="0"/>
   <stop id="stop3355" stop-color="#97C924" offset="1"/>
  </linearGradient>
  <linearGradient id="seafgrad">
   <stop id="stop3358" stop-color="#025" offset="0"/>
   <stop id="stop3360" stop-color="#04a" offset=".5"/>
   <stop id="stop3362" stop-color="#025" offset="1"/>
  </linearGradient>
  <linearGradient id="seabgrad" y2="317.49" xlink:href="#seafgrad" gradientUnits="userSpaceOnUse" x2="634.41" y1="317.49" x1="444.51"/>
  <clipPath id="shield">
   <path id="path3366" d="m500 226.38-63.702 110.33h127.4z"/>
  </clipPath>
  <linearGradient id="linearGradient3822" y2="317.65" xlink:href="#mountain" gradientUnits="userSpaceOnUse" x2="484.76" y1="311.71" x1="484.76"/>
  <linearGradient id="linearGradient3826" y2="1440.2" xlink:href="#seafgrad" gradientUnits="userSpaceOnUse" x2="124.97" gradientTransform="scale(4.4572 .22436)" y1="1440.2" x1="98.901"/>
  <linearGradient id="linearGradient4242" y2="3054.2" xlink:href="#seafgrad" gradientUnits="userSpaceOnUse" x2="61.745" gradientTransform="scale(9.1241 .10960)" y1="3054.2" x1="47.855"/>
 </defs>
 <rect id="rect3368" height="512" width="512" y="0" x="0" fill="#0067c6"/>
 <rect id="rect3370" height="170.67" width="512" y="170.67" x="0" fill="#fff"/>
 <g id="g3886" transform="matrix(1.1637 0 0 1.159 -336.72 -91.071)">
  <g id="text" fill="#c8a400" transform="matrix(.69444 0 0 .69445 162.14 91.129)">
   <path id="path3373" d="m410 299.33c3.3263 0.22223 6.6527 0.44445 9.979 0.66668 0.0329-0.48587 0.064-0.97205 0.0981-1.4577-1.3082-0.0873-2.6164-0.17511-3.9247-0.26198 0.0986-1.6033 0.23297-3.2047 0.3036-4.8094 1.3883-1.0041 2.7776-2.007 4.1615-3.0172 0.0412-0.61599 0.0823-1.232 0.12346-1.848l-4.3884 3.1859c-0.14757-1.0379-0.72165-2.1073-1.7646-2.4679-0.91323-0.33059-2.0317-0.3884-2.8231 0.26424-1.0033 0.738-1.1836 2.0586-1.3139 3.2078-0.17463 2.177-0.29658 4.36-0.45091 6.5375zm1.5194-1.3622c0.12006-1.6376 0.19451-3.2792 0.35147-4.9136 0.12284-0.80837 0.27116-1.7421 0.97877-2.2569 0.63951-0.42451 1.5846-0.10865 1.8462 0.61403 0.52201 1.2467 0.29033 2.6216 0.22338 3.9302-0.0632 0.94689-0.12655 1.8938-0.18977 2.8407-1.0698-0.0707-2.1415-0.14232-3.2101-0.21445z"/>
   <path id="path3375" d="m411.3 284.01c3.246 0.75791 6.492 1.5158 9.7381 2.2737l2.2131-9.4782-1.3836-0.32306c-0.62753 2.6876-1.2551 5.3752-1.8826 8.0628-0.98811-0.2308-1.9763-0.4614-2.9644-0.69221 0.56551-2.4219 1.131-4.8439 1.6965-7.2658l-1.3766-0.32142c-0.5655 2.4219-1.131 4.8439-1.6965 7.2658-0.87427-0.20424-1.7486-0.40821-2.6229-0.61249 0.60401-2.5868 1.208-5.1737 1.812-7.7605-0.46355-0.10824-0.92711-0.21647-1.3907-0.32471-0.71415 3.0587-1.4283 6.1174-2.1425 9.176z"/>
   <path id="path3377" d="m414.81 270.93c3.1484 1.0949 6.2968 2.1899 9.4451 3.2848 0.15992-0.45982 0.31983-0.91964 0.47975-1.3795-1.2384-0.4307-2.4768-0.86135-3.7152-1.2921 0.48491-1.4288 1.0162-2.8425 1.4621-4.284 0.31982-1.1769 0.56684-2.5527-0.12567-3.6471-0.56233-0.80874-1.5622-1.3277-2.5494-1.2964-1.0886 0.0466-1.9754 0.84759-2.4583 1.7755-0.71429 1.3421-1.1137 2.818-1.6346 4.2399-0.30127 0.86629-0.60255 1.7326-0.90382 2.5989zm1.8252-0.91156c0.50573-1.4172 0.96234-2.8528 1.5095-4.2545 0.34032-0.74874 0.75526-1.6371 1.6168-1.8754 0.70884-0.16219 1.4517 0.38249 1.5132 1.1086 0.17309 1.3358-0.4107 2.5967-0.82087 3.8366-0.25986 0.74722-0.51973 1.4944-0.77958 2.2417-1.013-0.35237-2.026-0.70467-3.0391-1.0569z"/>
   <path id="path3379" d="m420.02 258.83c1.7808 1.0329 3.5465 2.0926 5.3375 3.1073 1.0102 0.54316 2.2914 0.85386 3.3473 0.24536 1.4406-0.79757 2.343-2.2707 3.051-3.7071 0.55788-1.2103 0.96223-2.714 0.25161-3.9506-0.76525-1.235-2.1561-1.8026-3.3437-2.5402-1.1524-0.67405-2.3048-1.3481-3.4572-2.0222-0.2446 0.4182-0.4892 0.83639-0.7338 1.2546 1.6941 0.99759 3.4004 1.9752 5.0865 2.9859 0.80638 0.49107 1.4745 1.3805 1.3356 2.3686-0.15909 1.178-0.83235 2.2118-1.5033 3.1639-0.5532 0.77126-1.4826 1.3938-2.469 1.1852-1.0291-0.19727-1.8651-0.87054-2.7694-1.3571-1.1331-0.66277-2.2662-1.3255-3.3993-1.9883-0.24459 0.41819-0.48923 0.83643-0.7338 1.2546z"/>
   <path id="path3381" d="m427.23 247.06c2.6473 2.0256 5.2946 4.0512 7.9418 6.0768 1.2324-1.609 2.46-3.2225 3.7014-4.8237 0.71204-1.0218 1.3678-2.3506 0.88541-3.6042-0.43852-0.99742-1.466-1.7695-2.5672-1.8208-0.49731-0.0682-1.1458 0.30822-1.4149 0.47419 0.28305-1.0658-0.58942-2.0679-1.5719-2.3504-1.1818-0.42013-2.3805 0.33763-3.1622 1.1784-0.9204 1.0011-1.6889 2.1285-2.5307 3.1946-0.42725 0.55838-0.85449 1.1168-1.2817 1.6751zm2.0143-0.29772c0.92943-1.1906 1.8092-2.4218 2.783-3.5763 0.45282-0.50395 1.1794-1.0748 1.8816-0.70532 0.64009 0.27772 0.79787 1.0851 0.49233 1.6663-0.48521 1.0398-1.2862 1.8828-1.954 2.8054-0.36367 0.47529-0.72737 0.95057-1.091 1.4259-0.70398-0.53866-1.408-1.0773-2.1119-1.616zm3.2359 2.476c0.96434-1.2336 1.8726-2.5129 2.8901-3.7034 0.51954-0.54354 1.1724-1.2286 1.997-1.0723 0.70444 0.16212 1.2166 0.92689 0.97341 1.6363-0.39626 1.3091-1.376 2.3114-2.1643 3.396-0.4137 0.54068-0.82742 1.0813-1.2411 1.622-0.81839-0.62621-1.6368-1.2524-2.4552-1.8786z"/>
   <path id="path3383" d="m436.23 236.46 6.8675 7.2689 5.8826-5.5577-0.97575-1.0328-4.7055 4.4456-0.12052 0.11387-0.0869-0.092-5.8049-6.1442z"/>
   <path id="path3385" d="m445.04 228.75 6.0954 7.9276 1.1892-0.91429-6.0954-7.9276z"/>
   <path id="path3387" d="m453.99 222.67c-0.98774 0.61544-1.7842 1.335-2.3978 2.1755-0.6112 0.83726-0.94122 1.7105-0.98884 2.6224-0.0476 0.91165 0.19536 1.7945 0.73286 2.6572 0.49251 0.79046 1.1527 1.4038 1.9762 1.8442 0.82023 0.43856 1.7056 0.60098 2.676 0.49235 0.96511-0.10804 2.0551-0.53501 3.2688-1.2913 1.1655-0.72616 1.9914-1.5623 2.5003-2.5248 0.48822-0.92337 0.62578-1.9036 0.41645-2.9473l-1.383 0.5422c0.36225 1.9986-0.92658 2.9588-2.3699 3.8748-2.2587 1.374-4.4597 1.2745-5.8083-0.78982-1.3983-2.3278 0.12974-4.2509 2.0517-5.4996 1.3639-0.85119 2.7079-1.4332 3.9872-0.61857l1.0826-0.9642c-0.74564-0.51452-1.5921-0.75257-2.5556-0.6994-1.0116 0.0558-2.0682 0.42819-3.1887 1.1263z"/>
   <path id="path3389" d="m465.81 216.77-1.047 11.206 1.5574-0.62791 0.31478-3.4742 0.006-0.003 5.0583-2.0394 2.6364 2.2843 1.5574-0.62791-8.5265-7.3458-1.5574 0.62791zm1.3684 1.1486 3.3246 2.8779-3.7234 1.5012 0.39877-4.3791z"/>
   <path id="path3391" d="m487.73 210.59c0.20805 3.3268 0.41609 6.6537 0.62414 9.9805 1.8044-0.12174 3.6118-0.20647 5.414-0.35597 1.4176-0.16233 2.9388-0.53067 3.9077-1.6588 1.2513-1.3881 1.4288-3.4619 0.88129-5.1886-0.4596-1.5208-1.8274-2.6711-3.3756-2.9629-1.5244-0.29289-3.0784-0.0617-4.6138 0.008-0.94594 0.0591-1.8919 0.11841-2.8378 0.1774zm1.5393 1.3273c1.4365-0.0757 2.8707-0.21585 4.3097-0.22392 0.81646-0.0241 1.6286 0.21461 2.2879 0.70072 1.0007 0.68405 1.588 1.9155 1.4567 3.125-0.0712 1.3898-1.0933 2.6686-2.4441 3.0204-0.77283 0.19999-1.5759 0.25601-2.3671 0.34365-0.93214 0.0583-1.8643 0.11665-2.7964 0.17483-0.14939-2.3802-0.29825-4.7605-0.44654-7.1407z"/>
   <path id="path3393" d="m501.66 210l-0.57069 9.9837 9.7173 0.55547c0.027-0.47284 0.0541-0.94567 0.0811-1.4185-2.7554-0.1572-5.5107-0.31562-8.2662-0.47205 0.0573-1.0131 0.11603-2.0261 0.17328-3.0391 2.4831 0.14086 4.966 0.28372 7.4491 0.42535 0.0269-0.47043 0.0538-0.94086 0.0807-1.4113-2.483-0.14163-4.966-0.28449-7.4491-0.42535 0.0507-0.89637 0.10241-1.7927 0.15347-2.689 2.6521 0.15053 5.3042 0.30305 7.9562 0.45434 0.0272-0.47524 0.0543-0.95049 0.0815-1.4257-3.1356-0.17925-6.2711-0.35851-9.4067-0.53776z"/>
   <path id="path3395" d="m527.77 214.17-3.6161 9.3233 1.286 0.4988 2.867-7.3919 0.14904-0.38427 0.15998 0.42657 3.4482 9.9188 1.684 0.65315 3.6161-9.3233-1.2893-0.50007-2.8657 7.3885-0.1464 0.37752-0.158-0.42191-3.454-9.9134z"/>
   <path id="path3397" d="m541.21 219.94-4.5458 8.907-1.3361-0.68187 4.5458-8.907z"/>
   <path id="path3399" d="m548.75 224.36c-0.97142-0.64089-1.9577-1.0645-2.9776-1.2715-1.0159-0.20614-1.9472-0.14174-2.7958 0.19546-0.84836 0.3371-1.5494 0.92626-2.1091 1.7747-0.51289 0.77738-0.79492 1.6332-0.85151 2.5654-0.0563 0.92841 0.16547 1.8009 0.66904 2.6374 0.50084 0.83202 1.3436 1.6444 2.5373 2.432 1.1462 0.75621 2.2506 1.1579 3.3377 1.2189 1.0429 0.0584 1.9911-0.22553 2.8523-0.85122l-1.0698-1.0306c-1.6652 1.1631-3.0756 0.39239-4.5102-0.53714-2.1911-1.4795-3.019-3.5213-1.7056-5.6081 1.5321-2.242 3.9174-1.6556 5.8541-0.43 1.3426 0.88435 2.4323 1.863 2.2257 3.3655l1.328 0.58161c0.15651-0.89231 0.0197-1.7609-0.43062-2.6143-0.47283-0.89607-1.252-1.701-2.354-2.428z"/>
   <path id="path3401" d="m558.27 231.54-10.454 4.1698 1.2681 1.1007 3.2365-1.3015 0.005 0.005 4.1188 3.5751-0.83343 3.3874 1.2681 1.1007 2.6582-10.936-1.2682-1.1007zm-0.39961 1.7412-1.0486 4.2704-3.0318-2.6316 4.0804-1.6388z"/>
   <path id="path3403" d="m565.82 238.49l-7.716 6.363c0.30955 0.37576 0.6199 0.75094 0.92896 1.1271 1.0116-0.83421 2.0232-1.6684 3.0347-2.5026 1.0288 1.2336 2.0292 2.4914 3.0795 3.7066-0.32075 1.6831-0.6431 3.3659-0.95647 5.0504 0.39278 0.4763 0.78555 0.95259 1.1783 1.4289 0.33526-1.7763 0.67051-3.5526 1.0058-5.3288 0.86447 0.70788 2.1276 1.0633 3.1602 0.50203 0.88803-0.42012 1.6704-1.2277 1.7162-2.2566 0.10773-1.3787-0.87542-2.4962-1.6624-3.5187-1.2557-1.5241-2.5136-3.0474-3.7689-4.5713zm-0.17038 2.0335c1.0802 1.3343 2.2144 2.6267 3.246 3.9989 0.47574 0.70741 1.0686 1.7014 0.52294 2.528-0.44979 0.70689-1.4347 0.64494-2.0391 0.18646-1.2247-0.82376-2.0334-2.0869-2.9893-3.1837-0.40756-0.49424-0.81514-0.98846-1.2227-1.4827 0.82739-0.68229 1.6549-1.3647 2.4822-2.047z"/>
   <path id="path3405" d="m577.52 254.4-11.243 0.51528 0.83758 1.4554 3.4843-0.16949 0.003 0.006 2.7204 4.7271-1.8971 2.9274 0.83758 1.4554 6.094-9.4618-0.83758-1.4554zm-0.94796 1.5142-2.3896 3.6912-2.0025-3.4795 4.3921-0.21167z"/>
   <path id="path3407" d="m583.94 267.64c-0.62517-1.6966-1.6112-3.4337-3.2799-4.2824-1.8566-0.93284-4.328-0.47908-5.6446 1.1557-1.147 1.3592-1.2056 3.2812-0.89925 4.9518 0.36199 1.9179 1.2413 3.7441 2.563 5.1854-0.24899 0.0895-0.49798 0.17897-0.74697 0.26846 0.15949 0.44375 0.31898 0.88751 0.47847 1.3313l4.6843-1.6836c-0.60724-1.6861-1.2145-3.3722-1.8217-5.0583-0.36076 0.12966-0.72152 0.25931-1.0823 0.38897 0.44666 1.2427 0.89326 2.4855 1.34 3.7282-0.52894 0.19019-1.0579 0.38024-1.5869 0.57038-1.3999-1.2026-2.181-2.9803-2.5864-4.7482-0.30073-1.3266-0.3127-2.9166 0.69375-3.9606 1.1545-1.2009 3.2012-1.5738 4.587-0.54964 1.3668 1.0002 2.1383 2.6215 2.5281 4.233 0.26694 1.06 0.22329 2.32-0.58098 3.1471-0.22477 0.16883 0.13155 0.40385 0.19251 0.60544 0.12747 0.21048 0.25493 0.42097 0.3824 0.63145 0.84766-0.66844 1.3601-1.7142 1.3436-2.7967 0.0283-1.0643-0.20642-2.1206-0.56409-3.1178z"/>
   <path id="path3409" d="m586.81 275.45-5.5926 1.0879c-1.0379 0.20191-1.8158 0.53072-2.3346 0.96809-0.51784 0.43655-0.84913 1.0522-1.0089 1.871-0.15808 0.81019-0.13548 1.8029 0.0969 3.0108 0.002 0.009 0.004 0.0182 0.005 0.0277 0.23733 1.207 0.58855 2.1357 1.0388 2.8276 0.45504 0.69917 0.99299 1.1458 1.6367 1.3564 0.64489 0.21099 1.4893 0.2242 2.5272 0.0223l5.5926-1.0879-0.27754-1.4267-5.4575 1.0616c-2.45 0.47659-3.2752-0.81293-3.696-3.0187-0.002-0.009-0.003-0.0183-0.005-0.0277-0.43677-2.2026-0.15514-3.7075 2.2948-4.1841l5.4575-1.0616-0.27752-1.4267z"/>
   <path id="path3411" d="m589.88 292.47-10.348-4.4252 0.12129 1.6748 3.2113 1.3626 0.00051 0.007 0.39395 5.4397-2.9814 1.8111 0.1213 1.6748 9.6023-5.8701-0.1213-1.6748zm-1.5122 0.95131-3.7571 2.2847-0.28998-4.0041 4.0471 1.7195z"/>
   <rect id="rect3413" transform="matrix(-.96705 .25458 .25458 .96705 0 0)" height="6.3" width="1.5" y="414.2" x="-322.94"/>
   <rect id="rect3415" transform="rotate(14.749)" height="6.3" width="1.5" y="159.61" x="644.14"/>
   <path id="path3417" d="m433.22 343.99-11.181 1.2862 0.93557 1.3944 3.4644-0.40839 0.004 0.006 3.0386 4.5291-1.6916 3.0508 0.93557 1.3944 5.4297-9.858-0.93556-1.3944zm-0.84172 1.5758-2.1305 3.8466-2.2367-3.3338 4.3672-0.51281z"/>
   <path id="path3419" d="m437.5 350.1-7.1271 6.6648 0.95177 1.0178 6.0063-5.6166-3.151 8.67 1.0915 1.1672 8.6112-2.614-5.898 5.5154 0.95176 1.0178 7.1271-6.6648-1.4457-1.546-8.751 2.6144 3.2765-8.4686z"/>
   <path id="path3421" d="m447.88 360.69c-2.0052 2.6628-4.0104 5.3256-6.0155 7.9883l7.7751 5.855c0.2849-0.37833 0.5698-0.75667 0.8547-1.135-2.2047-1.6602-4.4094-3.3205-6.6141-4.9806 0.61036-0.8106 1.2208-1.6211 1.8312-2.4317l5.9603 4.4883c0.28345-0.37641 0.5669-0.75281 0.85035-1.1292l-5.9603-4.4883c0.54002-0.71722 1.0802-1.4344 1.6202-2.1516 2.1221 1.5979 4.2441 3.1959 6.3661 4.7939 0.28635-0.38026 0.5727-0.76052 0.85905-1.1408l-7.5271-5.6682z"/>
   <path id="path3423" d="m457.66 367.85l-4.71 8.8228c0.42937 0.22948 0.85923 0.45816 1.2883 0.68814 0.61751-1.1566 1.2349-2.3134 1.8525-3.47 1.4211 0.74871 2.8254 1.5302 4.2594 2.2538 0.34467 1.6784 0.68772 3.3571 1.0397 5.0339l1.6338 0.87221c-0.36674-1.77-0.73349-3.5401-1.1002-5.3102 1.069 0.32516 2.3722 0.17258 3.1131-0.73977 0.62944-0.70484 1.058-1.6933 0.75635-2.6393-0.35132-1.3034-1.6342-1.9859-2.717-2.6173-1.8029-0.96908-3.6118-1.9287-5.416-2.8944zm0.61719 1.9451c1.5071 0.8222 3.0482 1.5848 4.5247 2.4607 0.68458 0.46205 1.5532 1.0947 1.4672 2.0265-0.0761 0.81768-0.95762 1.2541-1.7034 1.0806-1.4592-0.24188-2.69-1.1122-3.9896-1.7612-0.60467-0.32278-1.2093-0.64561-1.814-0.96836 0.50503-0.94608 1.0101-1.8922 1.5151-2.8382z"/>
   <path id="path3425" d="m468.96 373.76-3.7786 9.2586 1.3888 0.5668 3.7786-9.2586z"/>
   <path id="path3427" d="m477.98 376.87c-1.1045-0.36671-2.167-0.51975-3.2056-0.45482-1.0346 0.0647-1.9172 0.36866-2.6492 0.91462-0.73176 0.5458-1.2558 1.2968-1.576 2.2614-0.29347 0.88389-0.34361 1.7836-0.15626 2.6985 0.18663 0.9112 0.62734 1.6961 1.3308 2.3732 0.69968 0.67346 1.7245 1.2392 3.0817 1.6898 1.3032 0.43271 2.4741 0.5339 3.5397 0.31054 1.0223-0.21431 1.8643-0.73475 2.5335-1.5626l-1.3006-0.71755c-1.3061 1.5555-2.8682 1.1774-4.495 0.65224-2.5-0.85988-3.8297-2.6167-3.1031-4.973 0.89751-2.5628 3.3532-2.6159 5.5417-1.9351 1.5262 0.50545 2.8326 1.1676 3.0232 2.6723l1.4334 0.2169c-0.0805-0.90234-0.43816-1.7056-1.0946-2.4129-0.68925-0.74259-1.6507-1.3176-2.9036-1.7336z"/>
   <path id="path3429" d="m488.03 379.12-6.5402 9.1591 1.6619 0.24047 2.0192-2.8446 0.007 0.001 5.3977 0.78104 1.13 3.3003 1.6619 0.24048-3.6757-10.637-1.6619-0.24047zm0.60512 1.6809 1.4264 4.1594-3.9732-0.57492 2.5469-3.5845z"/>
   <path id="path3431" d="m511.47 379.19c-1.1427 0.22076-2.1441 0.60727-3.018 1.1722-0.87056 0.56274-1.4915 1.2598-1.8626 2.0941-0.37102 0.83409-0.46045 1.7454-0.26766 2.7434 0.17666 0.91443 0.57327 1.7236 1.1844 2.4297 0.6087 0.70328 1.3772 1.1721 2.322 1.4183 0.93976 0.24486 2.1104 0.23669 3.5145-0.0346 1.3482-0.26047 2.4188-0.74526 3.2388-1.4616 0.7866-0.6872 1.2662-1.5531 1.4446-2.6025l-1.4854 0.0108c-0.37773 1.9957-1.925 2.4305-3.6007 2.7687-2.601 0.47368-4.6203-0.40766-5.1399-2.8181-0.47161-2.6742 1.6439-3.9223 3.8856-4.3997 1.5783-0.30613 3.0416-0.36804 3.9442 0.85082l1.3562-0.51239c-0.51183-0.74748-1.2168-1.273-2.1354-1.5685-0.96449-0.31025-2.0844-0.34112-3.3806-0.0907z"/>
   <path id="path3433" d="m518.15 378.01l2.8444 9.5869c3.1104-0.92283 6.2207-1.8456 9.3311-2.7685-0.13471-0.45405-0.26943-0.90809-0.40414-1.3621-2.6459 0.78505-5.2918 1.57-7.9377 2.3551-0.28864-0.97278-0.57724-1.9456-0.86588-2.9184 2.3843-0.70751 4.7687-1.4149 7.153-2.1223-0.13403-0.45173-0.26805-0.90347-0.40208-1.3552-2.3844 0.70745-4.7687 1.4148-7.153 2.1223-0.25541-0.86072-0.51069-1.7215-0.76615-2.5822 2.5467-0.75567 5.0934-1.5112 7.6401-2.2668-0.1354-0.45636-0.27079-0.91271-0.40619-1.3691l-9.0334 2.6802z"/>
   <path id="path3435" d="m528.97 374.61c1.3994 3.0253 2.7989 6.0507 4.1984 9.076l1.2519-0.57911c-1.1672-2.5233-2.3344-5.0466-3.5017-7.5699 3.2371 1.4682 6.4549 2.9794 9.6846 4.4642 0.21532 0.18677 0.43059 0.0619 0.64586-0.0532l1.259-0.5824c-1.3994-3.0253-2.7989-6.0507-4.1984-9.076-0.41837 0.19353-0.83673 0.38706-1.2551 0.58059l3.4971 7.56c-3.3236-1.5069-6.629-3.0544-9.9456-4.5771-0.54537 0.25228-1.0908 0.50455-1.6361 0.75683z"/>
   <path id="path3437" d="m539.95 369.45 0.7834 1.1903 3.5716-2.3506 0.13556-0.0892 0.0676 0.10271 4.6466 7.0602 1.2141-0.79904-4.6466-7.0602-0.0676-0.10271 0.13849-0.0912 3.5892-2.3622-0.7834-1.1903z"/>
   <path id="path3439" d="m550.01 362.56l6.7774 7.3547c0.35826-0.32963 0.71559-0.66044 1.0744-0.98933-0.88853-0.9642-1.777-1.9284-2.6656-2.8926 1.1753-1.0949 2.3759-2.1632 3.5318-3.2786 1.6982 0.22782 3.3962 0.45717 5.0953 0.67753 0.45399-0.41836 0.90799-0.83671 1.362-1.2551-1.792-0.23715-3.584-0.4743-5.376-0.71145 0.65931-0.90206 0.94479-2.1828 0.32762-3.183-0.46831-0.86361-1.3177-1.6004-2.3476-1.5896-1.3825-0.0318-2.4444 1.0113-3.422 1.8532-1.4528 1.3374-2.9049 2.6777-4.3573 4.0142zm2.0398 0.0584c1.273-1.1518 2.501-2.3555 3.8145-3.4609 0.6802-0.51389 1.6401-1.1605 2.4954-0.66105 0.73053 0.41027 0.7228 1.3971 0.29822 2.0258-0.75622 1.2694-1.9746 2.1471-3.0183 3.163-0.46989 0.433-0.93977 0.866-1.4097 1.299-0.72675-0.78859-1.4537-1.5775-2.1802-2.366z"/>
   <path id="path3441" d="m561.64 350.92 4.4734 10.327 1.0632-1.2998-1.3955-3.1971 0.004-0.005 3.4532-4.2215 3.4103 0.73412 1.0632-1.2998-11.009-2.3375-1.0632 1.2998zm1.7522 0.34857 4.2992 0.9234-2.5419 3.1074-1.7573-4.0308z"/>
   <path id="path3443" d="m566 345.25 8.3904 5.4407 4.403-6.7901-1.1921-0.77303-3.522 5.4315-0.0902 0.13913-0.10617-0.0688-7.0921-4.5989z"/>
  </g>
  <g id="g3445" clip-path="url(#shield)" transform="matrix(.69444 0 0 .69445 162.14 91.129)">
   <g id="rays">
    <path id="path3448" d="m500 226.41-31.479 54.536-15.42 26.702h93.797l-14.714-25.484-32.184-55.753z" fill="#fff"/>
    <g id="rays5">
     <g id="ray">
      <path id="path3452" opacity=".62041" d="m500 226.41-2.3566 4.0816 2.3566 54.977 2.3566-54.977z" stroke="#17c0eb" stroke-width=".12869" fill="#17c0eb"/>
      <path id="path3454" d="m500 277.48c-0.044 0-0.0891 0.002-0.1335 0.003l0.1335 3.1112 0.13351-3.1112c-0.0443-0.00097-0.0892-0.003-0.13351-0.003z" fill="#fff"/>
     </g>
     <use id="use3456" xlink:href="#ray" transform="matrix(.30902 .95106 -.95106 .30902 616.99 -278.28)" height="100%" width="100%" y="0" x="0"/>
     <use id="use3458" xlink:href="#ray" transform="matrix(-.80902 .58779 -.58779 -.80902 1072.3 222.52)" height="100%" width="100%" y="0" x="0"/>
     <use id="use3460" xlink:href="#ray" transform="matrix(-.80902 -.58779 .58779 -.80902 736.72 810.31)" height="100%" width="100%" y="0" x="0"/>
     <use id="use3462" xlink:href="#ray" transform="matrix(.30902 -.95106 .95106 .30902 73.997 672.78)" height="100%" width="100%" y="0" x="0"/>
    </g>
    <use id="use3464" xlink:href="#rays5" transform="matrix(.99027 .13917 -.13917 .99027 44.595 -66.809)" height="100%" width="100%" y="0" x="0"/>
    <use id="use3466" xlink:href="#rays5" transform="matrix(.96126 .27564 -.27564 .96126 98.054 -126.76)" height="100%" width="100%" y="0" x="0"/>
    <use id="use3468" xlink:href="#rays5" transform="matrix(.91355 .40674 -.40674 .91355 159.34 -178.69)" height="100%" width="100%" y="0" x="0"/>
    <use id="use3470" xlink:href="#rays5" transform="matrix(.84805 .52992 -.52992 .84805 227.25 -221.58)" height="100%" width="100%" y="0" x="0"/>
    <use id="use3472" xlink:href="#rays5" transform="matrix(.76604 .64279 -.64279 .76604 300.47 -254.61)" height="100%" width="100%" y="0" x="0"/>
    <use id="use3474" xlink:href="#rays5" transform="matrix(.66913 .74314 -.74314 .66913 377.58 -277.12)" height="100%" width="100%" y="0" x="0"/>
    <use id="use3476" xlink:href="#rays5" transform="matrix(.55919 .82904 -.82904 .55919 457.07 -288.68)" height="100%" width="100%" y="0" x="0"/>
    <use id="use3478" xlink:href="#rays5" transform="matrix(.43837 .89879 -.89879 .43837 537.39 -289.07)" height="100%" width="100%" y="0" x="0"/>
   </g>
   <g id="rainbow">
    <path id="path3481" d="m500 265.84c-11.067 0-21.195 4.0514-28.969 10.75l-14.65 25.41c-0.50136 2.6704-0.75 5.434-0.75 8.25h5.0312c0-21.726 17.617-39.344 39.344-39.344 21.726 0 39.344 17.617 39.344 39.344h5.0312c0-2.8134-0.24954-5.5819-0.75-8.25l-14.656-25.406c-7.7729-6.6966-17.904-10.75-28.969-10.75z" fill="#f00"/>
    <path id="path3483" d="m500 266.66c-11.764 0-22.439 4.6749-30.281 12.25l-12.031 20.844c-0.83351 3.3661-1.2812 6.8762-1.2812 10.5h4.25c0-21.726 17.617-39.344 39.344-39.344 21.726 0 39.344 17.617 39.344 39.344h4.25c0-3.6249-0.44735-7.1641-1.2812-10.531l-12.031-20.812c-7.841-7.5746-18.518-12.25-30.281-12.25z" fill="#f60"/>
    <path id="path3485" d="m500 267.47c-12.702 0-24.101 5.5222-31.938 14.312l-8.7188 15.094c-1.384 4.2085-2.125 8.7035-2.125 13.375h3.4375c0-21.726 17.617-39.344 39.344-39.344 21.726 0 39.344 17.617 39.344 39.344h3.4375c0-4.6731-0.74037-9.1653-2.125-13.375l-8.719-15.095c-7.836-8.788-19.237-14.312-31.938-14.312z" fill="#ff0"/>
    <path id="path3487" d="m500 268.25c-14.55 0-27.372 7.4141-34.906 18.656l-2.8125 4.875c-2.735 5.574-4.282 11.842-4.282 18.469h2.6562c0-21.726 17.617-39.344 39.344-39.344 21.726 0 39.344 17.617 39.344 39.344h2.6562c0-6.6156-1.5558-12.871-4.2812-18.438l-2.844-4.937c-7.536-11.227-20.337-18.625-34.875-18.625z" fill="#0f0"/>
    <path id="path3489" d="m500 269.06c-22.747 0-41.188 18.44-41.188 41.188h1.8438c0-21.726 17.617-39.344 39.344-39.344 21.726 0 39.344 17.617 39.344 39.344h1.8438c0-22.747-18.44-41.188-41.188-41.188z" fill="#0cf"/>
    <path id="path3491" d="m500 269.84c-22.306 0-40.375 18.1-40.375 40.406h1.3438c0-21.559 17.472-39.031 39.031-39.031s39.031 17.472 39.031 39.031h1.375c0-22.306-18.1-40.406-40.406-40.406z" fill="#00f"/>
    <path id="path3493" d="m500 270.66c-21.864 0-39.589 17.725-39.589 39.589 0 0.24501 0.003 0.48981 0.007 0.73377h0.8008c-0.005-0.24405-0.007-0.48864-0.007-0.73377 0-21.422 17.366-38.788 38.788-38.788s38.788 17.366 38.788 38.788c0 0.24513-0.002 0.48972-0.007 0.73377h0.79727c0.004-0.24396 0.007-0.48876 0.007-0.73377 0-21.864-17.721-39.589-39.585-39.589z" fill="#800080"/>
   </g>
   <g id="cap">
    <path id="path3496" d="m500.4 288.13c-0.64444-0.12422-1.2256-0.48362-1.7753-0.60947-0.75553 0.72433-0.83505 1.4562-0.73118 2.0793 0.26291 0.13958 0.31133 0.353 0.87825 0.86011s0.49599 0.7732 0.46178 1.9654c-0.0144 0.50237 0.0702 1.5806 0.57906 1.682 0.54856 0.1093 0.93237-0.34645 1.0899-1.1605 0.15297-0.79058 0.4179-1.2158 0.69822-1.7018 0.30651-1.8522-0.19317-2.508-1.2008-3.1151z" fill="#510000"/>
    <path id="path3498" d="m497.17 283.52c-0.5954 0.015-1.5285 1.0122-1.9431 0.4754-0.2385-0.30879-0.2787-0.90191-0.037-1.4001 0.55866-1.1514 1.1245-1.716 2.1674-2.3305 2.3777-1.4008 3.8889-0.95056 5.074 1.0627 1.0982 1.7729 2.152 3.7299 2.2461 5.3719 0.0291 0.50093 0.28239 1.4078-0.15623 1.8598-1.3478 1.3892-4.5961-1.4351-6.4972-0.9882-0.63913 0.15025-1.3773 0.6166-1.9805 0.21781-0.46922-0.31025-0.0771-0.99697 0.27265-1.2941 0.61215-0.52003 1.501-2.3652 1.3801-3.1644-0.0677-0.44682-0.08 0.17838-0.52586 0.18962z" fill="#f00"/>
    <path id="path3500" d="m496.93 282.55c-1.0833 0.4452-0.96582 1.0762-1.5094 1.5902 0.15386 0.0578 0.7653 0.31056 1.3634-0.30126 0.25817-0.21386 0.54788-0.29339 0.67713-0.36245-0.30513 0.22158-0.52326 0.55469-0.68366 0.68484-0.40495 0.32861-1.0346 1.0824-1.341 1.8461-0.30631 0.76368-0.43013 1.6729-0.37506 1.782 0.0551 0.1091 0.42587 0.77878 1.5653 1.2316 2.031 0.80708 2.4171 2.4386 4.4777 2.4386 1.6134 0 1.3544-1.0558 2.6458-0.83159 1.1192 0.19425 1.714-0.69654 0.63574-1.2318-1.371-0.46864-4.0919-0.19196-5.3725 0.0332-0.41337-4.0836-0.0551-2.6498-0.15181-4.4052-0.0968-1.7554-0.62285-1.8606 0.0724-3.2812-0.57778 0.87239-1.2768 0.73447-2.004 0.807z" fill="url(#cap1)"/>
    <path id="path3502" d="m500.94 279.8c-0.0401 0.22319-0.0767 0.51644-0.0555 0.6 0.087 0.33854 0.17464 0.69288 0.27745 0.99375 0.11493 0.33621 0.16173 0.57942 0.24047 0.92812 0.0812 0.35981 0.40101 0.50003 0.69364 0.72188 0.36987 0.28044 0.0839 1.0376 0.31445 1.0688 0.18399 0.025 0.48828-1.0713 0.49017-1.2469 0-0.23637-0.001-0.42692-0.037-0.64687-0.1351-0.29493-0.27167-0.58548-0.42543-0.87188-0.002-0.004-0.007-0.006-0.009-0.009-0.0604-0.11211-0.12197-0.22206-0.19422-0.32812-0.21674-0.3182-0.48469-0.61247-0.78613-0.8625-0.0186-0.0154-0.0367-0.0318-0.0555-0.0469-0.0843-0.0645-0.17013-0.13028-0.25896-0.1875-0.0629-0.0405-0.12933-0.0758-0.19422-0.1125z" fill="#ff2a2a"/>
    <path id="path3504" d="m501.25 287.4c-0.71834-0.18768-1.4258-0.54264-2.0371-0.72519-1.2005-0.3585-2.4799-1.1341-3.3655-0.81346-0.31696 0.14032-0.28927 0.45588-0.39018 0.90946-0.0419 0.53363-0.59621 1.3195-0.13634 1.0624 0.68545-0.38318 2.4907 0.73271 3.0954 1.1062 0.28651 0.17693 0.89218 0.52377 1.0815 1.0217 0.18934 0.49792 0.092 1.7559 0.0412 2.2955-0.0533 0.56606 0.11902 1.835 0.68594 1.987 0.61122 0.16378 1.078-0.32245 1.3158-1.2298 0.23091-0.8812 0.40519-1.3872 0.75742-1.9153 0.35223-0.52801 0.75591-0.75584 1.3198-0.86236 0.56393-0.10651 1.3823 0.46186 1.3823-0.20334 0-0.43694-0.38382-0.85479-0.22071-1.4537 0.12846-0.47174-0.40137-0.37766-0.84179-0.57224-1.0359-0.31872-1.9694-0.41916-2.6878-0.60684z" fill="url(#cap2)"/>
    <path id="path3506" d="m498.36 288.9c-0.32675-0.17761-2.3152-1.4778-3.0428-1.071-0.22993 0.12854-0.31747-0.0162-0.32062-0.25731-0.004-0.24106 0.10913-0.59399 0.18399-0.86612 0.0749-0.27214 0.19591-0.79179 0.5164-1.0619 0.68731-0.5793 2.2686 0.57503 3.1082 0.88679-0.0717 0.4352-0.47012 2.3552-0.44516 2.3696z" fill="#910000"/>
    <path id="path3508" d="m501.76 291.36c0.91566-1.6029 1.5076-1.3969 2.6134-1.3736 0.36843 0.008 0.47628-0.32925 0.39238-0.66749-0.278 0.62397-1.6621-0.069-2.415 0.26261-1.5725 0.69255-1.2803 3.7698-2.0263 4.0703 0.77552 0.65117 1.1236-1.7457 1.4356-2.2918z" fill="#ff3a3a"/>
   </g>
   <g id="seab">
    <path id="path3511" d="m453.1 307.64-9.9554 17.237h113.71l-9.9554-17.237h-93.797z" fill="#fff"/>
    <g fill="url(#seabgrad)">
     <g id="wavesb3">
      <path id="waveb1" fill="url(#seabgrad)" d="m449.7 321.36c-1.6578 0-3.1973 0.16736-4.7096 0.35278l-0.48684 0.84666c2.4334-0.21658 4.6972-0.64924 7.1403-0.70908 3.2935 0.0801 6.2835 0.82902 9.7861 0.82902 1.5179 0.0147 3.027-0.0297 4.5262 0 3.4992 0 6.4885-0.74896 9.7826-0.82902 3.2958 0.0801 6.304 0.82902 9.8038 0.82902 1.5177 0.005 3.1775-0.0238 4.5297 0 3.4992 0 6.4743-0.74896 9.765-0.82902 3.2929 0.0801 6.2692 0.82902 9.7685 0.82902 1.5304 0.0148 3.033-0.0299 4.5438 0 3.4992 0 6.4904-0.74896 9.7861-0.82902 3.2963 0.0795 6.2811 0.82902 9.7826 0.82902 1.5162 0.0145 3.0311-0.0297 4.5298 0 3.4987 0 6.4748-0.74896 9.765-0.82902 2.5508 0.062 4.9209 0.51761 7.486 0.72319l-0.51507-0.89252c-1.4029-0.16829-2.8346-0.32103-4.3674-0.32103-1.5292-0.0208-3.0364 0.0308-4.5473 0-3.4992 0-6.4737 0.74842-9.765 0.82902-3.2963-0.0801-6.2835-0.82902-9.7861-0.82902-1.5127-0.0209-3.0301 0.0312-4.5262 0-3.4992 0-6.4926 0.74897-9.7861 0.82902-3.2941-0.0801-6.2834-0.82902-9.7826-0.82902-1.5219-0.0207-3.0419 0.0308-4.5473 0-3.4992 0-6.4754 0.74897-9.765 0.82902-3.294-0.0801-6.2692-0.82902-9.7685-0.82902-1.5228-0.0213-3.0263 0.0313-4.5262 0-3.5026 0-6.4898 0.74897-9.7861 0.82902-3.294-0.0806-6.2834-0.82902-9.7826-0.82902-1.5202-0.0209-3.0433 0.0313-4.5473 0z"/>
      <use id="use3515" xlink:href="#waveb1" height="100%" width="100%" y="-1.1132812" x="0" fill="url(#seabgrad)"/>
      <use id="use3517" xlink:href="#waveb1" height="100%" width="100%" y="-2.2304688" x="0" fill="url(#seabgrad)"/>
     </g>
     <use id="use3519" xlink:href="#wavesb3" height="100%" width="100%" y="-3.34375" x="0"/>
     <use id="use3521" xlink:href="#wavesb3" height="100%" width="100%" y="-6.6914062" x="0"/>
     <path id="path3523" d="m453.23 307.46-0.12347 0.21519h93.79l-0.12348-0.21519h-93.543zm-0.21872 0.37746-0.127 0.21873h94.235l-0.127-0.21873h-93.981zm-0.20109 0.34572-0.20461 0.35631h94.792l-0.2046-0.35631h-94.383zm-0.3175 0.55033-0.25047 0.43392h95.519l-0.25048-0.43392h-95.018zm-0.39864 0.69144-0.25047 0.43392h96.316l-0.25047-0.43392h-95.815zm-0.39864 0.69144-0.24695 0.43039h97.106l-0.24693-0.43039h-96.612zm-0.39864 0.69144-0.25048 0.43039h97.911l-0.25048-0.43039h-97.41zm-0.43039 0.74436-0.30339 0.52916h98.877l-0.30339-0.52916h-98.27z"/>
     <path id="path3525" d="m457.36 312.29c3.4502 0.6621 3.7818 0 3.7818 0zm81.503 0s0.3316 0.6621 3.7818 0z"/>
    </g>
   </g>
   <g id="mountains" fill="#ccd11e">
    <g id="mountain1">
     <path id="path3529" d="m530.63 297.04c-1.7088 0-2.2316 0.86208-2.2316 0.86208-2.7368 10.576-11.808 21.333-22.601 21.333h-8.0802v10.768c0 0.003 0.0112 0 0.017 0h61.498l-6.1865-10.954c-9.7078-1.4488-17.64-11.373-20.167-21.147-0.0003 0-0.54017-0.86208-2.249-0.86208z" fill="url(#linearGradient3822)"/>
     <path id="path3531" d="m530.63 297.46c-0.78411 0-1.2601 0.18069-1.5384 0.35499-0.26383 0.16497-0.31454 0.2757-0.32096 0.28758 0 0.007-0.0151 0.01-0.0176 0.0168-1.3997 5.3224-4.3519 10.668-8.3337 14.706-4.012 4.0697-9.0697 6.8293-14.605 6.8293h-7.6748v9.9227h60.856l-5.68-10.058c-4.6876-0.61173-8.9731-3.163-12.458-6.6942-3.9857-4.0383-6.9321-9.3835-8.3337-14.706 0 0-0.0164-0.0165-0.017-0.0168-0.007-0.012-0.0696-0.10431-0.33797-0.27057-0.28308-0.17556-0.75393-0.372-1.538-0.372z" fill="#97c924"/>
     <path id="path3533" d="m530.63 297.46c0.14713 0 0.27966 0.0211 0.4057 0.0341 0.0238 3.0173 0 8.1091 0 10.801-0.0287 2.3401-0.83034 4.2225-2.0118 6.4408-0.54742 1.5541-0.98612 0.96232-2.3493 2.8567-1.8316 0.65398-3.1867 0.90876-5.1384 1.2166-2.5175 0.39758-8.1216 0.75027-10.887 0.13523 3.6411-1.0672 6.9608-3.2694 9.771-6.1195 0.74649-0.7573 1.4594-1.5595 2.1297-2.4001 1.1181-1.4005 2.1275-2.9129 3.0092-4.4794 0.35269-0.6264 0.68645-1.249 0.99749-1.8933 0.46683-0.9661 0.88335-1.9506 1.2512-2.941 0.12279-0.3305 0.24396-0.66588 0.35485-0.99747 0.22233-0.66372 0.41706-1.3296 0.59179-1.995 0.002-0.006 0.0151-0.0103 0.0168-0.0168 0.006-0.0119 0.0579-0.12225 0.32077-0.28724 0.13578-0.0849 0.3316-0.17039 0.57502-0.23692 0.005-0.001 0.0124 0.001 0.0168 0 0.25153-0.0665 0.55446-0.11793 0.9461-0.11793z" fill="#ede71f"/>
     <path id="path3535" d="m529.94 298.9c-0.41166 6.0341-2.2774 13.192-6.6443 17.811-1.6066 1.3366-3.66 2.55-5.6458 2.2546 6.7704-5.5104 10.885-13.947 12.29-20.065z" fill="#c6cb24"/>
     <path id="path3537" d="m524.49 309.28c-1.0018 2.7214-4.7878 6.7465-8.84 10.045-1.1506 0.0352-1.7597 0.10115-2.8042 0.0379 2.4678-0.22502 8.2217-5.0826 11.644-10.083z" fill="#9ecb34"/>
    </g>
    <use id="use3539" xlink:href="#mountain1" height="100%" width="100%" y="0" x="-15.340665"/>
    <g id="mountain3" fill="#c6cb24">
     <path id="path3542" d="m502.22 297.91c2.7346 10.576 11.79 21.333 22.583 21.333h8.0885v10.768c0 0.003-0.0144 0-0.017 0h-65.795c-0.006 0-0.0167 0.003-0.0167 0v-10.768h8.0715c10.793 0 19.863-10.758 22.6-21.333 0 0 0.53408-0.86562 2.2429-0.86562s2.2429 0.86562 2.2429 0.86562z" fill="url(#linearGradient3822)"/>
     <path id="path3544" d="m499.98 297.46c0.78378 0 1.2546 0.19644 1.5384 0.372 0.26865 0.16626 0.33123 0.25869 0.33829 0.27057l0.017 0.0168c1.4016 5.3228 4.3481 10.668 8.3338 14.706 4.0165 4.0697 9.0867 6.8293 14.623 6.8293h7.6405v9.9224h-64.98v-9.9224h7.6745c5.5356 0 10.593-2.7599 14.605-6.8293 3.9818-4.0383 6.9337-9.3838 8.3337-14.706 0.003-0.007 0.0151-0.01 0.017-0.0168 0.006-0.012 0.0575-0.12228 0.32096-0.28758 0.2786-0.1743 0.75458-0.35499 1.5384-0.35499z" fill="#97c924"/>
     <path id="path3546" d="m499.26 297.53c-0.0864 0.0162-0.16714 0.0347-0.24243 0.0546-0.004 0.001-0.0128-0.001-0.0176 0-0.24288 0.0665-0.43572 0.15144-0.5715 0.23636-0.26398 0.16499-0.31454 0.27385-0.32103 0.28575-0.002 0.006-0.016 0.0111-0.0176 0.0176-0.17526 0.66535-0.37034 1.333-0.59266 1.9967-0.11089 0.33159-0.23352 0.66433-0.35631 0.99484-0.36838 0.99044-0.782 1.9761-1.2488 2.9422-0.31158 0.64425-0.64567 1.268-0.99836 1.8944-0.88173 1.5665-1.8911 3.0763-3.0092 4.4768-0.67076 0.84061-1.3843 1.6451-2.1308 2.4024-2.8096 2.8502-6.1279 5.0499-9.7684 6.1172 2.7647 0.61504 4.0315-0.056 6.5485-0.45356 1.9522-0.30779 4.2109-0.5631 6.0431-1.2171 1.3637-1.8943 0.89896-1.2999 1.4464-2.854 1.1809-2.2184 2.9054-4.2218 3.3338-6.6816 1.6186-3.0215 1.903-8.6137 1.903-10.213z" fill="#ede71f"/>
     <path id="path3548" d="m499.28 298.9c-0.41166 6.0341-2.2768 13.192-6.6438 17.811-1.6066 1.3366-3.66 2.55-5.6458 2.2546 6.7704-5.5104 10.885-13.947 12.29-20.065z"/>
     <path id="path3550" d="m493.83 309.28c-1.002 2.7214-4.7881 6.7468-8.8402 10.045-1.1503 0.035-1.7595 0.10077-2.8042 0.0375 2.4679-0.2253 8.2224-5.0827 11.644-10.083z" fill="#9ecb34"/>
     <path id="path3552" d="m500.95 297.58c0.004 0.001 0.0128-0.001 0.0176 0 0.24288 0.0665 0.43572 0.15144 0.5715 0.23636 0.26398 0.16499 0.31454 0.27385 0.32103 0.28575 0.002 0.006 0.016 0.0111 0.0176 0.0176 0.17526 0.66535 0.37034 1.333 0.59266 1.9967 0.11089 0.33159 0.23352 0.66433 0.35631 0.99484 0.36838 0.99044 0.782 1.9761 1.2488 2.9422 0.31158 0.64425 0.64567 1.268 0.99836 1.8944 0.88173 1.5665 1.8911 3.0763 3.0092 4.4768 0.67076 0.84061 1.3843 1.6451 2.1308 2.4024 2.8096 2.8502 6.1279 5.445 9.7684 6.5123-7.2449 0.0274-10.389-0.63-13.022-4.0166-2.6332-3.3866-3.606-4.8682-4.1405-6.9364-0.53451-2.0683-2.0254-6.5704-1.8699-10.806z" fill="#ede71f"/>
     <path id="path3554" d="m501.48 298.9c0.41166 6.0341 2.2209 12.006 6.5874 16.625 1.6066 1.3366 3.66 2.5499 5.6458 2.2546-7.3348-5.0019-10.829-12.762-12.233-18.88z"/>
    </g>
    <g id="mountain4">
     <path id="path3557" d="m484.75 297.04c-1.7091 0-2.2483 0.86208-2.2483 0.86208-2.5224 9.7465-11.825 22.318-21.496 23.811l-4.7898 8.2898h49.014v-11.349c-8.8247-2.3707-15.889-11.629-18.248-20.752-0.00034 0-0.52284-0.86208-2.2316-0.86208z" fill="url(#linearGradient3822)"/>
     <path id="path3559" d="m484.75 297.46c-0.7841 0-1.255 0.19644-1.5384 0.372-0.26864 0.16626-0.33123 0.25869-0.33797 0.27057-0.00033 0-0.017 0.0168-0.017 0.0168-1.4016 5.3228-4.6775 10.704-8.0797 14.989-3.4023 4.2842-9.7197 8.6182-14.042 9.0764l-4.2827 7.3937h48.06v-10.694c-3.554-1.0906-6.7992-3.2664-9.5523-6.0586-3.9818-4.0383-6.9337-9.3838-8.3337-14.706-0.002-0.007-0.0154-0.01-0.017-0.0168-0.006-0.012-0.0578-0.12228-0.32128-0.28758-0.27891-0.1743-0.7549-0.35499-1.5387-0.35499z" fill="#97c924"/>
     <path id="path3561" d="m483.44 298.9c-0.61721 9.0433-5.6533 20.454-11.34 22.419-1.8543 0.64154-5.0983 0.86441-6.2273 1.0088 9.9489-4.7315 15.828-15.854 17.568-23.428z" fill="#93bc30"/>
     <path id="path3563" d="m484.75 297.46c-0.14713 0-0.27966 0.0211-0.4057 0.0341-0.0233 3.0173 0 8.1091 0 10.801 0.0292 2.3401 0.83088 4.2225 2.0118 6.4408 0.0687 0.1942 0.13577 0.35377 0.20285 0.49009 0.41003 1.0856 0.7135 1.4627 2.2822 2.6538 4.9869 3.7865 11.17 4.3529 14.808 4.0402-1.1398-0.89849-2.3579-1.7153-3.4317-2.4677 1.7115-0.0552 3.3511-0.24883 4.5136-0.5074-3.6405-1.0672-6.9608-3.2694-9.7704-6.1195-0.48955-0.49658-0.94501-1.0218-1.4032-1.5552-0.20826-0.29156-0.50091-0.69725-0.59178-0.81139-1.1181-1.4005-2.2628-2.947-3.1445-4.5135-0.35269-0.6264-0.6859-1.249-0.99748-1.8933-0.46683-0.9661-0.88282-1.9506-1.2512-2.941-0.1228-0.3305-0.24397-0.66588-0.35486-0.99747-0.22232-0.66372-0.41652-1.3296-0.59178-1.995-0.002-0.006-0.0152-0.0103-0.0168-0.0168-0.006-0.0119-0.0573-0.12225-0.32132-0.28724-0.13578-0.0849-0.3316-0.17039-0.57502-0.23692-0.005-0.001-0.0124 0.001-0.0168 0-0.25153-0.0665-0.55446-0.11793-0.9461-0.11793z" fill="#ede71f"/>
     <path id="path3565" d="m485.45 298.9c0.41166 6.0341 2.2774 13.192 6.6438 17.811 1.6066 1.3366 3.66 2.55 5.6458 2.2546-6.7704-5.5099-10.885-13.947-12.29-20.065z"/>
     <path id="path3567" d="m489.61 307.25c2.369 5.8369 8.37 11.289 14.543 14.954 1.1503 0.035 1.4912 0.003 2.5362-0.06-4.4183-2.3709-11.538-5.7538-17.08-14.894z" fill="#9ecb34"/>
    </g>
    <use id="use3569" xlink:href="#mountain4" height="100%" width="100%" y="0" x="-15.429624" fill="#c6cb24"/>
   </g>
   <g id="seaf">
    <path id="path3572" d="m556.5 324.69c-0.57438 0.20274-4.4212-0.18918-6.4329-0.0441l-1.2794 0.33561c-1.1235-0.008-2.2382 0.0249-3.3302 0-3.6022 0-6.6495 0.94833-10.075 0.94896-3.4327 0-6.47-0.94896-10.075-0.94896-1.1191-0.008-2.2336 0.025-3.3302 0-3.6015 0-6.6463 0.94896-10.075 0.94896-3.4292 0-6.4733-0.94896-10.075-0.94896-1.1309-0.007-2.2416 0.0238-3.3479 0-3.6018 0-6.6322 0.94896-10.058 0.94896-3.4288 0-6.4559-0.94896-10.058-0.94896-0.26736 0-0.51646 0.009-0.77612 0.0177-0.17781-0.004-0.37669-0.0177-0.55739-0.0177-0.11972 0-0.22152-0.003-0.33867 0-0.11714-0.003-0.23659 0-0.35631 0-0.18069 0-0.3443 0.0138-0.52212 0.0177-0.25964-0.008-0.51195-0.0177-0.77963-0.0177-3.6054 0-6.6424 0.94929-10.075 0.94896-3.4291 0-6.4736-0.94896-10.075-0.94896-0.2619 0-0.52159 0.01-0.77611 0.0177-0.1807-0.004-0.33885-0.0177-0.52212-0.0177-0.12421 0-0.25198-0.003-0.37394 0-0.11715-0.003-0.23659 0-0.35631 0-0.1807 0-0.36162 0.0138-0.53975 0.0177-0.25902-0.008-0.50844-0.0177-0.77612-0.0177-2.8788 0-6.2181 0.60744-8.9359 0.8502l-6.2724 10.858 62.971-0.007 64.375 0.007z" fill="#fff"/>
    <path id="path3574" d="m547.99 323.11c-0.19914 0-0.3979 0-0.5962 0.007-3.2402 0.0945-5.5641 1.1148-11.201 1.1148-5.6366 0-6.2181-1.0186-12.584-0.87843-5.9467 0.13098-8.4422 1.2612-11.67 1.2171-3.2276-0.0441-8.4727-0.69756-12.51-0.27513-4.0368 0.4224-8.8283 1.2839-11.973 1.2911-3.9083-0.0174-7.8196-0.73101-11.906-0.32454-4.0867 0.40647-5.997 1.4999-11.063 1.4852-4.3552-0.0126-9.0829-0.69768-12.746-0.69498-3.4348 0.003-7.2666 0.95724-10.086 1.4429l-0.84314 1.464c2.247-0.26058 8.5515-1.2182 10.802-1.2771 2.3442-0.0613 10.717 0.48306 15.335 0.32457 4.6183-0.15849 5.1587-1.1712 10.619-1.1712 3.801 0 6.666 0.39864 10.566 0.39864 2.4341 0 4.6432-1.2418 8.3432-1.2418 0.93595-0.0267 1.8645-0.0608 2.794-0.0914 3.1186-0.51522 8.3834 0.0449 12.047 0.23274 3.3153 0.17289 5.4573-0.61554 8.9147-0.73023 1.4958-0.0682 2.9974-0.0659 4.4732-0.1483 3.4606-0.11481 6.4222 0.64053 9.6802 0.62442 3.25-0.20046 6.4035-0.9225 9.8601-1.0372 1.5112-0.0717 2.9979-0.0723 4.4909-0.1482 2.2862-0.0758 5.8358 0.0784 8.2726 0.50094l-0.83962-1.4499c-2.3795-0.0756-5.3119-0.63528-8.1809-0.63501z" fill="url(#linearGradient3826)"/>
    <g id="wavesf3">
     <path id="wavef1" fill="url(#linearGradient4242)" d="m450.31 334.75c-3.4571 0-6.4022 0.85314-9.6521 0.94542-1.2107-0.0338-2.3665-0.18372-3.5348-0.34572l-0.49037 0.8502c0.48641 0.0323 0.97518 0.0635 1.4887 0.0635 1.5012 0.0181 2.9903-0.0362 4.4733 0 3.4571 0 6.382-0.85251 9.6344-0.94545 3.254 0.0923 6.2055 0.94545 9.6662 0.94545 1.5011 0.0185 2.9922-0.0362 4.4733 0 3.4574 0 6.4121-0.85317 9.6662-0.94545 3.256 0.0923 6.2302 0.94545 9.6874 0.94545 1.4952 0.018 2.9932-0.0361 4.4698 0 3.4574 0 6.4013-0.85317 9.6521-0.94545 3.2534 0.0923 6.1914 0.94545 9.6485 0.94545 1.5128 0.0184 2.9993-0.0362 4.4909 0 3.4571 0 6.4105-0.85317 9.6662-0.94545 3.2576 0.0917 6.21 0.94545 9.6697 0.94545 1.4954 0.018 2.9921-0.0361 4.4698 0 3.4571 0 6.401-0.85317 9.6521-0.94545 3.253 0.0923 6.209 0.94545 9.6662 0.94545 1.4993 0.0181 2.9955-0.0361 4.4732 0 0.60565 0 1.1964-0.0342 1.778-0.0776l-0.46213-0.79728c-1.0641 0.14412-2.1338 0.27615-3.235 0.3069-3.2544-0.0923-6.195-0.94542-9.6521-0.94542-1.5106-0.0196-2.9978 0.0292-4.4909 0-3.4571 0-6.3968 0.85314-9.6485 0.94542-3.2569-0.0916-6.2058-0.94542-9.6662-0.94542-1.496-0.0198-2.9929 0.0297-4.4732 0-3.4571 0-6.4124 0.85314-9.6662 0.94542-3.2544-0.0923-6.209-0.94542-9.6662-0.94542-1.5033-0.0196-3.0035 0.0292-4.4909 0-3.4571 0-6.3987 0.85314-9.6485 0.94542-3.2541-0.0923-6.195-0.94542-9.6521-0.94542-1.5058-0.02-2.9897 0.0296-4.4732 0-3.4604 0-6.4092 0.8538-9.6662 0.94542-3.2544-0.0923-6.2087-0.94542-9.6662-0.94542-1.5022-0.0201-3.0058 0.0298-4.4909 0z"/>
     <use id="use3578" xlink:href="#wavef1" height="100%" width="100%" y="-1.2894435" x="0"/>
     <use id="use3580" xlink:href="#wavef1" height="100%" width="100%" y="-2.5745997" x="0"/>
    </g>
    <use id="use3582" xlink:href="#wavesf3" height="100%" width="100%" y="-3.8671875" x="0"/>
    <use id="use3584" xlink:href="#wavesf3" height="100%" width="100%" y="-7.7286534" x="0"/>
   </g>
   <path id="path3586" d="m443.85 324.7-2.4271 4.191c2.839-0.47073 7.1022-1.7031 10.634-1.7057 3.6629-0.003 8.0819 0.90279 12.437 0.91545 5.0661 0.0147 6.9764-1.0787 11.063-1.4852 4.0867-0.40644 7.9979 0.52761 11.906 0.54507 3.145-0.007 7.9365-1.0892 11.973-1.5117 4.0368-0.42243 7.7372 0.29346 12.603 0.3687 4.8658 0.0753 5.6296-1.1796 11.576-1.3106 6.3654-0.14022 6.947 0.8784 12.584 0.8784 4.2415 0.22824 7.8828-0.8541 11.666-1.1218 3.7835-0.26772 5.5383 0.043 8.3044 0.10938l-1.838-3.2526c-0.0306 0-0.0608 0.003-0.0917 0.004l-101.25 2.2256z" fill="#97c924"/>
   <path id="path3588" d="m550.07 324.65s2.7101 0.1485 3.8475 0.27558c1.1374 0.12711 2.9545 0.25356 2.9545 0.25356l-0.36909-0.48504c-0.57438 0.20274-4.4212-0.18918-6.4329-0.0441z" fill="#fff"/>
  </g>
  <path id="path3590" d="m509.36 247.29-22.321 38.671-22.818 39.513 44.651-0.005 45.626 0.005-22.328-38.669-22.81-39.515zm0 2.0848 21.909 37.953 21.424 37.103-43.821-0.003-42.848 0.003 21.916-37.948z" fill="#c8a400"/>
 </g>
</svg>
