<svg xmlns="http://www.w3.org/2000/svg" xmlns:xlink="http://www.w3.org/1999/xlink" id="flag-icon-css-ni" width="512" height="512">
  <defs>
    <linearGradient id="f" x1="498.74" x2="500.63" y1="289.06" y2="283.42" gradientUnits="userSpaceOnUse">
      <stop offset="0" stop-color="#510000"/>
      <stop offset=".3" stop-color="#8a0000"/>
      <stop offset="1" stop-color="#a00"/>
    </linearGradient>
    <linearGradient id="g" x1="501.44" x2="502.93" y1="291.37" y2="287.45" gradientUnits="userSpaceOnUse">
      <stop offset="0" stop-color="#ff2a2a"/>
      <stop offset="1" stop-color="red"/>
    </linearGradient>
    <linearGradient id="b" x1="484.76" x2="484.76" y1="311.71" y2="317.65" gradientUnits="userSpaceOnUse">
      <stop offset="0" stop-color="#F5F549"/>
      <stop offset="1" stop-color="#97C924"/>
    </linearGradient>
    <linearGradient id="a">
      <stop offset="0" stop-color="#025"/>
      <stop offset=".5" stop-color="#04a"/>
      <stop offset="1" stop-color="#025"/>
    </linearGradient>
    <linearGradient id="h" x1="444.51" x2="634.41" y1="317.49" y2="317.49" gradientUnits="userSpaceOnUse" xlink:href="#a"/>
    <clipPath id="c">
      <path d="M500 226.38L436.3 336.7h127.4z"/>
    </clipPath>
    <linearGradient id="o" x1="444.51" x2="634.41" y1="317.49" y2="317.49" gradientUnits="userSpaceOnUse" xlink:href="#a"/>
    <linearGradient id="p" x1="444.51" x2="634.41" y1="317.49" y2="317.49" gradientUnits="userSpaceOnUse" xlink:href="#a"/>
    <linearGradient id="q" x1="444.51" x2="634.41" y1="317.49" y2="317.49" gradientUnits="userSpaceOnUse" xlink:href="#a"/>
    <linearGradient id="r" x1="444.51" x2="634.41" y1="317.49" y2="317.49" gradientUnits="userSpaceOnUse" xlink:href="#a"/>
    <linearGradient id="u" x1="484.76" x2="484.76" y1="311.71" y2="317.65" gradientUnits="userSpaceOnUse" xlink:href="#b"/>
    <linearGradient id="x" x1="98.9" x2="124.97" y1="1440.15" y2="1440.15" gradientTransform="scale(4.45715 .22436)" gradientUnits="userSpaceOnUse" xlink:href="#a"/>
    <linearGradient id="j" x1="444.51" x2="634.41" y1="317.49" y2="317.49" gradientUnits="userSpaceOnUse" xlink:href="#a"/>
    <linearGradient id="l" x1="444.51" x2="634.41" y1="317.49" y2="317.49" gradientUnits="userSpaceOnUse" xlink:href="#a"/>
    <linearGradient id="m" x1="444.51" x2="634.41" y1="317.49" y2="317.49" gradientUnits="userSpaceOnUse" xlink:href="#a"/>
    <linearGradient id="i" x1="444.51" x2="634.41" y1="317.49" y2="317.49" gradientUnits="userSpaceOnUse" xlink:href="#a"/>
    <linearGradient id="s" x1="484.76" x2="484.76" y1="311.71" y2="317.65" gradientUnits="userSpaceOnUse" xlink:href="#b"/>
    <linearGradient id="v" x1="484.76" x2="484.76" y1="311.71" y2="317.65" gradientUnits="userSpaceOnUse" xlink:href="#b"/>
    <linearGradient id="y" x1="47.85" x2="61.74" y1="3054.21" y2="3054.21" gradientTransform="scale(9.12405 .1096)" gradientUnits="userSpaceOnUse" xlink:href="#a"/>
  </defs>
  <path fill="#0067c6" d="M0 0h512v512H0z"/>
  <path fill="#fff" d="M0 170.67h512v170.66H0z"/>
  <path fill="#c8a400" d="M179.2 255.43l8.52.57.08-1.25-3.35-.22c.08-1.37.2-2.74.26-4.1l3.55-2.58.1-1.58-3.74 2.72c-.13-.89-.62-1.8-1.5-2.1-.79-.29-1.74-.34-2.42.22-.85.63-1 1.76-1.12 2.74-.15 1.86-.25 3.72-.38 5.58zm1.3-1.17c.1-1.4.16-2.8.3-4.19.1-.69.23-1.49.83-1.92.55-.37 1.35-.1 1.58.52.44 1.06.24 2.24.19 3.35l-.16 2.43-2.74-.18zm-.2-11.9l8.32 1.93 1.89-8.09-1.18-.27-1.61 6.88-2.53-.6 1.45-6.2-1.18-.27-1.45 6.2-2.23-.52 1.54-6.62-1.18-.28-1.83 7.83zm3-11.17l8.06 2.8.41-1.17-3.17-1.1c.42-1.23.87-2.43 1.25-3.66.27-1 .48-2.18-.11-3.11a2.62 2.62 0 0 0-2.18-1.1c-.93.03-1.68.71-2.1 1.5-.6 1.15-.94 2.41-1.39 3.62l-.77 2.22zm1.56-.78c.43-1.2.82-2.43 1.29-3.63.29-.64.64-1.4 1.38-1.6.6-.14 1.23.33 1.29.95.14 1.14-.35 2.22-.7 3.27l-.67 1.92-2.6-.9zm2.9-9.54c1.51.88 3.02 1.79 4.55 2.65.86.47 1.95.73 2.85.21 1.23-.68 2-1.94 2.6-3.16.48-1.03.83-2.32.22-3.37-.65-1.06-1.84-1.54-2.85-2.17l-2.95-1.73-.63 1.07c1.45.86 2.9 1.69 4.34 2.55.7.42 1.26 1.18 1.14 2.02-.13 1-.7 1.9-1.28 2.7-.47.66-1.26 1.2-2.1 1.01-.88-.16-1.6-.74-2.37-1.15l-2.9-1.7-.62 1.07zm6.14-10.04l6.78 5.18c1.05-1.37 2.1-2.75 3.16-4.11.6-.87 1.16-2.01.75-3.08a2.62 2.62 0 0 0-2.19-1.55c-.42-.06-.98.26-1.2.4.24-.9-.5-1.76-1.35-2-1-.36-2.03.28-2.7 1-.78.86-1.44 1.82-2.16 2.73l-1.09 1.43zm1.72-.26c.8-1.01 1.54-2.06 2.37-3.05.4-.43 1.01-.92 1.61-.6.55.24.68.93.42 1.42-.41.89-1.1 1.6-1.67 2.4l-.93 1.21-1.8-1.38zm2.76 2.12c.82-1.06 1.6-2.15 2.47-3.16.44-.47 1-1.05 1.7-.92.6.14 1.04.79.83 1.4-.34 1.11-1.17 1.97-1.84 2.9l-1.06 1.38-2.1-1.6zm3.2-10.91l5.86 6.2 5.02-4.74-.83-.88-4.01 3.79-.1.1-.08-.08-4.96-5.25zm7.52-6.58l5.2 6.77 1.01-.78-5.2-6.77zm7.64-5.19a7.19 7.19 0 0 0-2.05 1.86 3.83 3.83 0 0 0-.22 4.5 4.39 4.39 0 0 0 1.69 1.58c.7.37 1.46.51 2.28.42.83-.1 1.76-.46 2.8-1.1.99-.63 1.7-1.34 2.13-2.16a3.67 3.67 0 0 0 .35-2.51l-1.18.46c.31 1.7-.79 2.52-2.02 3.3-1.93 1.18-3.8 1.1-4.96-.67-1.19-1.98.11-3.63 1.75-4.7 1.17-.72 2.31-1.21 3.4-.52l.93-.82a3.38 3.38 0 0 0-2.18-.6c-.86.05-1.76.37-2.72.96zm10.08-5.03l-.9 9.56 1.34-.53.27-2.97 4.32-1.74 2.25 1.95 1.33-.54-7.28-6.27-1.33.54zm1.17.98l2.84 2.46-3.18 1.28.34-3.74zm17.54-6.26l.53 8.52c1.54-.1 3.08-.17 4.62-.3 1.2-.14 2.5-.46 3.33-1.42 1.07-1.18 1.22-2.95.75-4.43a3.76 3.76 0 0 0-2.88-2.52c-1.3-.25-2.62-.06-3.93 0l-2.43.15zm1.31 1.14c1.23-.07 2.45-.19 3.68-.2a3.13 3.13 0 0 1 1.95.6 2.9 2.9 0 0 1 1.24 2.67 2.87 2.87 0 0 1-2.08 2.58c-.66.17-1.35.22-2.02.3l-2.39.14-.38-6.1zm10.58-1.64l-.49 8.52 8.3.47.06-1.2-7.05-.41.15-2.6 6.35.37.07-1.2-6.35-.37.13-2.3 6.79.4.07-1.22-8.03-.46zm22.28 3.56l-3.09 7.95 1.1.43 2.45-6.31.12-.33.14.36 2.94 8.47 1.44.55 3.09-7.95-1.1-.43-2.45 6.3-.12.33-.14-.36-2.95-8.46zm11.46 4.92l-3.88 7.6-1.14-.58 3.88-7.6zm6.44 3.77a7.2 7.2 0 0 0-2.54-1.08 3.83 3.83 0 0 0-4.19 1.68 4.39 4.39 0 0 0-.72 2.19c-.05.79.14 1.53.57 2.25.43.7 1.14 1.4 2.16 2.07.98.65 1.92.99 2.85 1.04.9.05 1.7-.2 2.44-.73l-.92-.88c-1.42 1-2.62.34-3.85-.45-1.87-1.27-2.57-3-1.45-4.79 1.3-1.91 3.34-1.41 5-.37 1.14.76 2.07 1.6 1.9 2.88l1.13.5a3.4 3.4 0 0 0-.37-2.24 5.8 5.8 0 0 0-2.01-2.07zm8.12 6.13l-8.92 3.56 1.09.94 2.76-1.11 3.52 3.05-.71 2.89 1.08.94 2.27-9.33-1.09-.94zm-.34 1.49l-.89 3.64-2.59-2.25 3.48-1.4zm6.79 4.44l-6.58 5.43.79.96 2.59-2.14c.88 1.06 1.73 2.13 2.63 3.17l-.82 4.3 1 1.23.86-4.55c.74.6 1.82.9 2.7.43.76-.36 1.43-1.05 1.46-1.93.1-1.17-.74-2.13-1.41-3l-3.22-3.9zm-.15 1.73c.93 1.14 1.9 2.25 2.77 3.42.41.6.92 1.45.45 2.15-.38.6-1.22.55-1.74.16-1.04-.7-1.73-1.78-2.55-2.71l-1.04-1.27 2.12-1.75zm10.13 11.85l-9.6.44.72 1.24 2.98-.14 2.32 4.04-1.62 2.5.72 1.24 5.2-8.08-.72-1.24zm-.8 1.29l-2.05 3.15-1.7-2.97 3.74-.18zm6.28 10c-.54-1.44-1.38-2.93-2.8-3.65a4.02 4.02 0 0 0-4.82.99c-.98 1.16-1.03 2.8-.76 4.22a9.07 9.07 0 0 0 2.18 4.43l-.63.23.4 1.13 4-1.43-1.55-4.32-.93.33 1.15 3.18-1.36.49a7.47 7.47 0 0 1-2.2-4.05c-.26-1.14-.27-2.5.59-3.38.98-1.03 2.73-1.35 3.91-.47a6.2 6.2 0 0 1 2.16 3.6c.23.91.19 1.99-.5 2.7-.19.14.12.34.17.51l.33.54a3.01 3.01 0 0 0 1.14-2.39c.02-.9-.18-1.8-.48-2.66zm2.45 6.67l-4.77.93c-.89.17-1.55.45-2 .82-.44.38-.72.9-.86 1.6a6.8 6.8 0 0 0 .09 2.57.21.21 0 0 1 0 .02c.2 1.03.5 1.82.89 2.41.38.6.84.98 1.4 1.16.54.18 1.26.2 2.15.02l4.77-.93-.24-1.21-4.65.9c-2.1.4-2.8-.7-3.16-2.57v-.03c-.37-1.88-.13-3.16 1.96-3.57l4.66-.9-.24-1.22zm2.62 14.52l-8.83-3.77.1 1.43 2.74 1.16.34 4.64-2.55 1.55.1 1.43 8.2-5.01-.1-1.43zm-1.3.81l-3.2 1.95-.25-3.41 3.46 1.46zm-145.59 21.27l-1.23.32 1.36 5.2 1.24-.32zm140.4 0l1.24.32-1.37 5.2-1.23-.32zm-127.2 21.89l-9.54 1.1.8 1.19 2.95-.35 2.6 3.87-1.44 2.6.8 1.2 4.63-8.42-.8-1.2zm-.72 1.34l-1.81 3.28-1.91-2.84 3.72-.44zm4.37 3.87l-6.08 5.69.81.87 5.13-4.8-2.69 7.4.93 1 7.35-2.23-5.03 4.7.81.87 6.08-5.68-1.23-1.32-7.47 2.23 2.8-7.23zm8.86 9.04l-5.13 6.82 6.63 5 .73-.98-5.64-4.25 1.56-2.07 5.09 3.83.72-.96-5.08-3.83 1.38-1.84 5.43 4.09.73-.97-6.42-4.84zm8.35 6.11l-4.02 7.53 1.1.59 1.58-2.96c1.21.63 2.41 1.3 3.64 1.92l.88 4.3 1.4.74-.94-4.53c.91.27 2.02.14 2.65-.63.54-.6.9-1.45.65-2.26-.3-1.11-1.4-1.7-2.32-2.23l-4.62-2.47zm.53 1.66c1.28.7 2.6 1.35 3.86 2.1.58.4 1.33.93 1.25 1.73-.06.7-.81 1.07-1.45.92-1.25-.2-2.3-.95-3.4-1.5l-1.55-.83 1.29-2.42zm9.11 3.38l-3.22 7.9 1.18.48 3.23-7.9zm7.7 2.66a7.22 7.22 0 0 0-2.74-.4 3.83 3.83 0 0 0-3.6 2.71 4.39 4.39 0 0 0-.14 2.3c.16.79.54 1.46 1.14 2.04.6.57 1.47 1.05 2.63 1.44 1.1.37 2.1.45 3.02.26a3.67 3.67 0 0 0 2.16-1.33l-1.11-.61c-1.12 1.32-2.45 1-3.84.55-2.13-.73-3.27-2.23-2.65-4.24.77-2.19 2.87-2.23 4.73-1.65 1.3.43 2.42 1 2.58 2.28l1.23.18a3.4 3.4 0 0 0-.94-2.06 5.79 5.79 0 0 0-2.48-1.47zm8.57 1.92l-5.58 7.81 1.42.2 1.72-2.42h.01l4.6.67.97 2.82 1.42.2-3.14-9.08-1.41-.2zm.52 1.43l1.22 3.55-3.4-.49 2.18-3.06zm19.49-1.37a7.2 7.2 0 0 0-2.58 1 3.83 3.83 0 0 0-1.82 4.13 4.4 4.4 0 0 0 1.02 2.07c.52.6 1.17 1 1.98 1.21.8.21 1.8.2 3-.03a5.75 5.75 0 0 0 2.76-1.25 3.67 3.67 0 0 0 1.23-2.22l-1.27.01c-.32 1.7-1.64 2.08-3.07 2.36-2.22.4-3.94-.34-4.38-2.4-.4-2.28 1.4-3.35 3.31-3.76 1.35-.26 2.6-.31 3.37.73l1.15-.44a3.41 3.41 0 0 0-1.82-1.34 5.8 5.8 0 0 0-2.88-.07zm5.7-1.01l2.42 8.18 7.97-2.36-.35-1.16-6.77 2-.74-2.48 6.1-1.82-.34-1.15-6.1 1.8-.66-2.2 6.52-1.93-.34-1.17-7.71 2.29zm9.23-2.9l3.58 7.74 1.07-.5-2.99-6.45c2.76 1.25 5.51 2.54 8.26 3.8.19.17.37.06.55-.04l1.08-.5-3.58-7.74-1.07.5 2.98 6.45-8.49-3.9-1.4.64zm9.37-4.4l.67 1.01 3.04-2 .12-.08.06.09 3.96 6.02 1.04-.68-3.97-6.02-.06-.1.12-.07 3.07-2.02-.67-1.01zm8.58-5.88l5.79 6.27.91-.84-2.27-2.47c1-.93 2.03-1.85 3.01-2.8 1.45.2 2.9.4 4.35.58l1.16-1.07-4.58-.6c.56-.78.8-1.87.28-2.72-.4-.74-1.13-1.37-2-1.36-1.19-.03-2.1.86-2.93 1.58l-3.72 3.43zm1.74.05c1.1-.99 2.14-2.01 3.26-2.96.58-.44 1.4-.99 2.13-.56.62.35.62 1.19.25 1.73-.64 1.08-1.68 1.83-2.57 2.7l-1.2 1.1-1.86-2.02zm8.2-9.99l3.8 8.81.92-1.1-1.2-2.73 2.95-3.6 2.91.62.91-1.11-9.4-2-.9 1.11zm1.49.3l3.67.79-2.17 2.65-1.5-3.44zm2.22-5.13l7.16 4.64 3.75-5.8-1.01-.66-3 4.64-.08.12-.1-.06-6.05-3.93z"/>
  <g clip-path="url(#c)" transform="translate(-170.67) scale(.85333)">
    <path fill="#fff" d="M500 226.4l-31.48 54.54-15.42 26.7h93.8l-14.71-25.48L500 226.41z"/>
    <g id="e">
      <g id="d">
        <path fill="#17c0eb" stroke="#17c0eb" stroke-width=".13" d="M500 226.4l-2.36 4.09 2.36 54.98 2.36-54.98z" opacity=".62"/>
        <path fill="#fff" d="M500 277.48h-.13l.13 3.1.14-3.1H500z"/>
      </g>
      <use width="100%" height="100%" transform="rotate(72 500 285.47)" xlink:href="#d"/>
      <use width="100%" height="100%" transform="rotate(144 500 285.47)" xlink:href="#d"/>
      <use width="100%" height="100%" transform="rotate(-144 500 285.47)" xlink:href="#d"/>
      <use width="100%" height="100%" transform="rotate(-72 500 285.47)" xlink:href="#d"/>
    </g>
    <use width="100%" height="100%" transform="rotate(8 500 285.47)" xlink:href="#e"/>
    <use width="100%" height="100%" transform="rotate(16 500 285.47)" xlink:href="#e"/>
    <use width="100%" height="100%" transform="rotate(24 500 285.47)" xlink:href="#e"/>
    <use width="100%" height="100%" transform="rotate(32 500 285.47)" xlink:href="#e"/>
    <use width="100%" height="100%" transform="rotate(40 500 285.47)" xlink:href="#e"/>
    <use width="100%" height="100%" transform="rotate(48 500 285.47)" xlink:href="#e"/>
    <use width="100%" height="100%" transform="rotate(56 500 285.47)" xlink:href="#e"/>
    <use width="100%" height="100%" transform="rotate(64 500 285.47)" xlink:href="#e"/>
    <path fill="red" d="M500 265.84a44.24 44.24 0 0 0-28.97 10.75L456.38 302c-.5 2.67-.75 5.43-.75 8.25h5.03a39.35 39.35 0 0 1 78.69 0h5.03c0-2.81-.25-5.58-.75-8.25l-14.66-25.4A44.25 44.25 0 0 0 500 265.83z"/>
    <path fill="#f60" d="M500 266.66a43.45 43.45 0 0 0-30.28 12.25l-12.03 20.84a43.6 43.6 0 0 0-1.28 10.5h4.25a39.35 39.35 0 0 1 78.68 0h4.25a43.86 43.86 0 0 0-1.28-10.53l-12.03-20.81A43.46 43.46 0 0 0 500 266.66z"/>
    <path fill="#ff0" d="M500 267.47c-12.7 0-24.1 5.52-31.94 14.31l-8.72 15.1a42.73 42.73 0 0 0-2.12 13.37h3.43a39.35 39.35 0 0 1 78.7 0h3.43c0-4.67-.74-9.16-2.12-13.37l-8.72-15.1A42.65 42.65 0 0 0 500 267.47z"/>
    <path fill="#0f0" d="M500 268.25a41.96 41.96 0 0 0-34.9 18.66l-2.82 4.87a41.82 41.82 0 0 0-4.28 18.47h2.66a39.35 39.35 0 0 1 78.68 0H542a41.82 41.82 0 0 0-4.28-18.44l-2.85-4.93A41.94 41.94 0 0 0 500 268.25z"/>
    <path fill="#0cf" d="M500 269.06a41.19 41.19 0 0 0-41.19 41.19h1.85a39.35 39.35 0 0 1 78.68 0h1.85A41.19 41.19 0 0 0 500 269.06z"/>
    <path fill="#00f" d="M500 269.84a40.4 40.4 0 0 0-40.38 40.41h1.35a39.02 39.02 0 1 1 78.06 0h1.38c0-22.3-18.1-40.4-40.41-40.4z"/>
    <path fill="purple" d="M500 270.66a39.59 39.59 0 0 0-39.58 40.32h.8v-.74a38.79 38.79 0 1 1 77.56.74h.8v-.74A39.59 39.59 0 0 0 500 270.65z"/>
    <path fill="#510000" d="M500.4 288.13c-.65-.12-1.23-.48-1.78-.6a2.2 2.2 0 0 0-.73 2.07c.26.14.31.36.88.86s.5.78.46 1.97c-.02.5.07 1.58.58 1.68.54.1.93-.35 1.09-1.16.15-.8.41-1.22.7-1.7.3-1.85-.2-2.51-1.2-3.12z"/>
    <path fill="red" d="M497.17 283.52c-.6.02-1.53 1.02-1.95.48-.24-.31-.28-.9-.03-1.4a4.82 4.82 0 0 1 2.17-2.33c2.37-1.4 3.89-.95 5.07 1.06 1.1 1.77 2.15 3.73 2.24 5.37.03.5.29 1.41-.15 1.86-1.35 1.4-4.6-1.43-6.5-.99-.64.15-1.38.62-1.98.22-.47-.3-.08-1 .27-1.3.61-.51 1.5-2.36 1.38-3.16-.06-.44-.08.18-.52.2z"/>
    <path fill="url(#f)" d="M496.93 282.55c-1.09.44-.97 1.07-1.51 1.59.15.06.76.3 1.36-.3.26-.22.55-.3.68-.37-.3.22-.52.56-.68.69a5.19 5.19 0 0 0-1.34 1.84c-.31.77-.43 1.68-.38 1.79.06.1.43.78 1.57 1.23 2.03.8 2.41 2.44 4.47 2.44 1.62 0 1.36-1.06 2.65-.84 1.12.2 1.71-.7.63-1.23-1.37-.47-4.09-.19-5.37.04-.41-4.09-.05-2.65-.15-4.41-.1-1.75-.62-1.86.07-3.28-.57.87-1.27.73-2 .8z"/>
    <path fill="#ff2a2a" d="M500.94 279.8c-.04.22-.08.51-.06.6.09.34.18.69.28.99.12.33.16.58.24.93.08.36.4.5.7.72.36.28.08 1.03.3 1.07.2.02.5-1.07.5-1.25 0-.24 0-.43-.04-.65a15.3 15.3 0 0 0-.42-.87h-.01a3.65 3.65 0 0 0-.2-.34 4.2 4.2 0 0 0-.78-.86l-.06-.05a3.94 3.94 0 0 0-.26-.18l-.2-.12z"/>
    <path fill="url(#g)" d="M501.25 287.4c-.72-.19-1.43-.54-2.04-.73-1.2-.36-2.48-1.13-3.36-.81-.32.14-.3.45-.4.9-.04.54-.59 1.33-.13 1.07.69-.38 2.49.73 3.1 1.1.28.18.89.53 1.08 1.03.19.5.09 1.75.04 2.3-.05.56.12 1.83.68 1.98.61.16 1.08-.32 1.32-1.23.23-.88.4-1.39.76-1.91s.75-.76 1.32-.87c.56-.1 1.38.46 1.38-.2 0-.44-.39-.85-.22-1.45.13-.48-.4-.38-.84-.58-1.04-.32-1.97-.42-2.7-.6z"/>
    <path fill="#910000" d="M498.36 288.9c-.32-.18-2.31-1.48-3.04-1.07-.23.13-.32-.01-.32-.26 0-.24.11-.59.18-.86.08-.27.2-.8.52-1.06.69-.58 2.27.57 3.1.88-.06.44-.46 2.36-.44 2.37z"/>
    <path fill="#ff3a3a" d="M501.76 291.36c.92-1.6 1.51-1.4 2.62-1.37.37 0 .47-.33.39-.67-.28.62-1.66-.07-2.42.26-1.57.7-1.28 3.77-2.02 4.07.77.65 1.12-1.74 1.43-2.29z"/>
    <g fill="url(#h)">
      <path fill="#fff" d="M453.1 307.64l-9.95 17.24h113.7l-9.95-17.23h-93.8z"/>
      <g id="n" fill="url(#i)">
        <path id="k" fill="url(#j)" d="M449.7 321.36c-1.65 0-3.2.17-4.7.36l-.5.84c2.44-.21 4.7-.65 7.15-.7 3.3.07 6.28.82 9.78.82 1.52.02 3.03-.03 4.53 0 3.5 0 6.49-.75 9.78-.83 3.3.08 6.3.83 9.8.83 1.53 0 3.19-.02 4.54 0 3.5 0 6.47-.75 9.76-.83 3.3.08 6.27.83 9.77.83 1.53.02 3.03-.03 4.54 0 3.5 0 6.5-.75 9.8-.83 3.29.08 6.27.83 9.77.83 1.52.02 3.03-.03 4.53 0 3.5 0 6.48-.75 9.77-.83 2.55.07 4.92.52 7.49.73l-.52-.9c-1.4-.16-2.84-.31-4.37-.31-1.53-.03-3.04.03-4.55 0-3.5 0-6.47.74-9.76.82-3.3-.08-6.28-.83-9.79-.83-1.51-.02-3.03.04-4.52 0-3.5 0-6.5.75-9.79.83-3.3-.08-6.28-.83-9.78-.83-1.52-.02-3.04.04-4.55 0-3.5 0-6.47.75-9.76.83-3.3-.08-6.27-.83-9.77-.83-1.52-.02-3.03.04-4.53 0-3.5 0-6.49.75-9.78.83-3.3-.08-6.29-.83-9.79-.83-1.52-.02-3.04.04-4.54 0z"/>
        <use width="100%" height="100%" y="-1.11" fill="url(#l)" xlink:href="#k"/>
        <use width="100%" height="100%" y="-2.23" fill="url(#m)" xlink:href="#k"/>
      </g>
      <use width="100%" height="100%" y="-3.34" fill="url(#o)" xlink:href="#n"/>
      <use width="100%" height="100%" y="-6.69" fill="url(#p)" xlink:href="#n"/>
      <path fill="url(#q)" d="M453.23 307.46l-.12.21h93.79l-.13-.21h-93.54zm-.22.38l-.13.22h94.24l-.13-.22h-93.98zm-.2.34l-.2.36h94.79l-.2-.36H452.8zm-.32.55l-.25.44h95.52l-.25-.44H452.5zm-.4.7l-.25.43h96.32l-.25-.44h-95.82zm-.4.69l-.24.43h97.1l-.24-.43H451.7zm-.4.69l-.24.43h97.9l-.24-.43H451.3zm-.42.74l-.3.53h98.87l-.3-.53h-98.27z"/>
      <path fill="url(#r)" d="M457.36 312.29c3.45.66 3.78 0 3.78 0zm81.5 0s.33.66 3.78 0z"/>
    </g>
    <g fill="#ccd11e">
      <g id="t">
        <path fill="url(#s)" d="M530.63 297.04c-1.7 0-2.23.86-2.23.86-2.74 10.58-11.8 21.34-22.6 21.34h-8.08V330h61.51l-6.18-10.96c-9.71-1.45-17.64-11.37-20.17-21.14 0 0-.54-.87-2.25-.87z"/>
        <path fill="#97c924" d="M530.63 297.46c-.78 0-1.26.18-1.54.36-.26.17-.31.28-.32.29l-.02.01a33.6 33.6 0 0 1-8.33 14.71c-4.01 4.07-9.07 6.83-14.6 6.83h-7.68v9.92H559l-5.68-10.05c-4.69-.62-8.98-3.17-12.46-6.7a33.58 33.58 0 0 1-8.33-14.7l-.02-.02c0-.01-.07-.1-.34-.27a2.82 2.82 0 0 0-1.54-.37z"/>
        <path fill="#ede71f" d="M530.63 297.46c.15 0 .28.02.4.04.03 3.01 0 8.1 0 10.8-.02 2.34-.82 4.22-2 6.44-.55 1.55-1 .96-2.36 2.86a25.4 25.4 0 0 1-5.13 1.21c-2.52.4-8.12.75-10.9.14a23.07 23.07 0 0 0 9.78-6.12 30.57 30.57 0 0 0 2.13-2.4 33.66 33.66 0 0 0 3-4.48c.36-.63.7-1.25 1-1.9a33.86 33.86 0 0 0 1.26-2.93 29.75 29.75 0 0 0 .94-3l.02-.01c0-.02.06-.13.32-.3.14-.08.33-.16.58-.23h.01c.26-.07.56-.12.95-.12z"/>
        <path fill="#c6cb24" d="M529.94 298.9c-.41 6.04-2.28 13.2-6.65 17.81-1.6 1.34-3.66 2.55-5.64 2.26 6.77-5.51 10.88-13.95 12.29-20.07z"/>
        <path fill="#9ecb34" d="M524.5 309.28c-1 2.72-4.8 6.75-8.85 10.05-1.15.03-1.76.1-2.8.03 2.47-.22 8.22-5.08 11.64-10.08z"/>
      </g>
      <use width="100%" height="100%" x="-15.34" xlink:href="#t"/>
      <g fill="#c6cb24">
        <path fill="url(#u)" d="M502.22 297.91c2.73 10.58 11.79 21.33 22.58 21.33h8.1v10.77h-65.83v-10.77h8.07c10.79 0 19.86-10.75 22.6-21.33 0 0 .53-.86 2.24-.86 1.7 0 2.24.86 2.24.86z"/>
        <path fill="#97c924" d="M499.98 297.46c.78 0 1.25.2 1.53.38.27.16.34.26.34.27l.02.01a33.57 33.57 0 0 0 8.33 14.71c4.02 4.07 9.09 6.83 14.62 6.83h7.64v9.92h-64.98v-9.92h7.68c5.53 0 10.6-2.76 14.6-6.83a33.6 33.6 0 0 0 8.34-14.7l.01-.02c.01-.01.06-.12.32-.29.28-.17.76-.35 1.54-.35z"/>
        <path fill="#ede71f" d="M499.26 297.53a3.4 3.4 0 0 0-.24.06H499c-.24.06-.43.15-.57.23-.26.17-.31.28-.32.29l-.02.01a28.88 28.88 0 0 1-.94 3 34.22 34.22 0 0 1-1.25 2.94 34.21 34.21 0 0 1-1 1.9 33.63 33.63 0 0 1-3.01 4.47 30.73 30.73 0 0 1-2.13 2.4 23.04 23.04 0 0 1-9.77 6.12c2.76.61 4.03-.06 6.55-.46 1.95-.3 4.2-.56 6.04-1.21 1.37-1.9.9-1.3 1.45-2.86 1.18-2.21 2.9-4.22 3.33-6.68 1.62-3.02 1.9-8.61 1.9-10.21z"/>
        <path d="M499.27 298.9c-.4 6.04-2.27 13.2-6.64 17.81-1.6 1.34-3.66 2.55-5.64 2.26 6.77-5.51 10.88-13.95 12.29-20.07z"/>
        <path fill="#9ecb34" d="M493.83 309.28c-1 2.72-4.79 6.75-8.84 10.05-1.15.03-1.76.1-2.8.03 2.47-.22 8.22-5.08 11.64-10.08z"/>
        <path fill="#ede71f" d="M500.95 297.58h.02c.24.07.43.15.57.24.26.17.31.27.32.29l.02.01a32.33 32.33 0 0 0 .95 3 33.6 33.6 0 0 0 1.25 2.94c.3.64.64 1.26 1 1.9a33.63 33.63 0 0 0 3 4.47 30.73 30.73 0 0 0 2.13 2.4c2.81 2.85 6.13 5.44 9.77 6.51-7.24.03-10.39-.63-13.02-4.01-2.63-3.4-3.6-4.87-4.14-6.94-.53-2.07-2.02-6.57-1.87-10.8z"/>
        <path d="M501.48 298.9c.4 6.04 2.22 12 6.58 16.63 1.61 1.33 3.66 2.55 5.65 2.25-7.34-5-10.83-12.76-12.24-18.88z"/>
      </g>
      <g id="w">
        <path fill="url(#v)" d="M484.75 297.04c-1.71 0-2.25.86-2.25.86-2.52 9.75-11.82 22.32-21.5 23.82l-4.79 8.29h49.02v-11.35c-8.83-2.37-15.9-11.63-18.25-20.75 0 0-.52-.86-2.23-.86z"/>
        <path fill="#97c924" d="M484.75 297.46c-.79 0-1.26.2-1.54.38-.27.16-.33.26-.34.27l-.01.01c-1.4 5.33-4.68 10.7-8.08 15-3.4 4.28-9.72 8.61-14.05 9.07l-4.28 7.4h48.06v-10.7a23.18 23.18 0 0 1-9.55-6.06 33.6 33.6 0 0 1-8.33-14.7l-.02-.02c0-.01-.06-.13-.32-.29a2.86 2.86 0 0 0-1.54-.36z"/>
        <path fill="#93bc30" d="M483.44 298.9c-.61 9.05-5.65 20.46-11.34 22.42-1.85.64-5.1.87-6.22 1.01 9.95-4.73 15.83-15.85 17.57-23.43z"/>
        <path fill="#ede71f" d="M484.75 297.46c-.15 0-.28.02-.41.04-.02 3.01 0 8.1 0 10.8.03 2.34.83 4.22 2.01 6.44.07.2.14.35.2.49.41 1.09.72 1.46 2.29 2.65 4.98 3.8 11.17 4.36 14.8 4.04-1.14-.9-2.35-1.71-3.43-2.46 1.71-.06 3.35-.25 4.52-.51a23.06 23.06 0 0 1-9.77-6.12 30.52 30.52 0 0 1-1.4-1.55l-.6-.82a35.01 35.01 0 0 1-3.14-4.51 34.16 34.16 0 0 1-1-1.9 34.02 34.02 0 0 1-1.6-3.93 31.68 31.68 0 0 1-.6-2l-.02-.01c0-.02-.05-.13-.32-.3a2.2 2.2 0 0 0-.57-.23h-.02a3.61 3.61 0 0 0-.95-.12z"/>
        <path d="M485.45 298.9c.4 6.04 2.27 13.2 6.64 17.81 1.6 1.34 3.66 2.55 5.65 2.26-6.77-5.51-10.89-13.95-12.3-20.07z"/>
        <path fill="#9ecb34" d="M489.61 307.25c2.37 5.83 8.37 11.29 14.55 14.95 1.15.04 1.49 0 2.53-.06-4.42-2.37-11.54-5.75-17.08-14.9z"/>
      </g>
      <use width="100%" height="100%" x="-15.43" fill="#c6cb24" xlink:href="#w"/>
    </g>
    <path fill="#fff" d="M556.5 324.7c-.57.2-4.42-.2-6.43-.05l-1.28.33c-1.13 0-2.24.03-3.33 0-3.6 0-6.65.95-10.08.95-3.43 0-6.47-.95-10.07-.95-1.12 0-2.24.03-3.33 0-3.6 0-6.65.95-10.08.95-3.43 0-6.47-.95-10.07-.95-1.13 0-2.25.03-3.35 0-3.6 0-6.63.95-10.06.95-3.43 0-6.46-.95-10.06-.95l-.77.02-.56-.01h-.7l-.52.01-.78-.01c-3.6 0-6.64.95-10.07.94-3.43 0-6.48-.94-10.08-.94l-.77.01-.53-.01h-.73l-.54.01-.77-.01c-2.88 0-6.22.6-8.94.85l-6.27 10.86 62.97-.01h64.38z"/>
    <path fill="url(#x)" d="M548 323.11h-.6c-3.24.1-5.57 1.12-11.2 1.12-5.64 0-6.22-1.02-12.59-.88-5.94.13-8.44 1.27-11.67 1.22-3.22-.04-8.47-.7-12.5-.27-4.04.42-8.83 1.28-11.98 1.29-3.91-.02-7.82-.73-11.9-.33-4.1.41-6 1.5-11.07 1.49-4.35-.01-9.08-.7-12.74-.7-3.44 0-7.27.96-10.09 1.45l-.84 1.46c2.24-.26 8.55-1.22 10.8-1.28 2.34-.06 10.72.49 15.33.33 4.62-.16 5.16-1.17 10.62-1.17 3.8 0 6.67.4 10.57.4 2.43 0 4.64-1.25 8.34-1.25.94-.02 1.87-.06 2.8-.09 3.12-.51 8.38.05 12.04.23 3.32.18 5.46-.61 8.92-.73 1.5-.06 3-.06 4.47-.14 3.46-.12 6.42.64 9.68.62 3.25-.2 6.4-.92 9.86-1.04 1.51-.07 3-.07 4.5-.14 2.28-.08 5.83.07 8.26.5l-.84-1.45c-2.38-.08-5.3-.64-8.18-.64z"/>
    <g id="A">
      <path id="z" fill="url(#y)" d="M450.31 334.75c-3.45 0-6.4.85-9.65.94a31.77 31.77 0 0 1-3.54-.34l-.49.85c.5.03.98.06 1.5.06 1.5.02 2.98-.03 4.47 0 3.45 0 6.38-.85 9.63-.94 3.26.09 6.2.94 9.67.94 1.5.02 3-.03 4.47 0 3.46 0 6.41-.85 9.67-.94 3.25.09 6.23.94 9.69.94 1.5.02 2.99-.03 4.47 0 3.45 0 6.4-.85 9.65-.94 3.25.1 6.19.94 9.65.94 1.5.02 3-.03 4.49 0 3.45 0 6.4-.85 9.66-.94 3.26.1 6.21.94 9.67.94 1.5.02 3-.03 4.47 0 3.46 0 6.4-.85 9.65-.94 3.26.1 6.21.95 9.67.95 1.5.02 3-.04 4.47 0 .6 0 1.2-.04 1.78-.08l-.46-.8c-1.06.15-2.13.28-3.23.3-3.26-.08-6.2-.94-9.66-.94-1.5-.02-3 .03-4.49 0-3.45 0-6.4.86-9.65.95-3.25-.1-6.2-.95-9.66-.95-1.5-.02-3 .03-4.47 0-3.46 0-6.42.86-9.67.95-3.26-.1-6.21-.95-9.67-.95-1.5-.02-3 .03-4.49 0-3.46 0-6.4.86-9.65.95-3.25-.1-6.2-.95-9.65-.95-1.5-.02-2.99.03-4.47 0-3.46 0-6.41.86-9.67.95-3.25-.1-6.2-.95-9.67-.95-1.5-.02-3 .03-4.49 0z"/>
      <use width="100%" height="100%" y="-1.29" xlink:href="#z"/>
      <use width="100%" height="100%" y="-2.58" xlink:href="#z"/>
    </g>
    <use width="100%" height="100%" y="-3.87" xlink:href="#A"/>
    <use width="100%" height="100%" y="-7.73" xlink:href="#A"/>
    <path fill="#97c924" d="M443.85 324.7l-2.43 4.2c2.84-.47 7.1-1.7 10.63-1.71 3.66 0 8.08.9 12.44.92 5.07.01 6.98-1.08 11.06-1.49 4.09-.4 8 .53 11.91.55 3.15-.01 7.94-1.1 11.97-1.52 4.04-.42 7.74.3 12.6.37 4.87.08 5.64-1.18 11.58-1.3 6.37-.15 6.95.87 12.59.87 4.24.23 7.88-.85 11.66-1.12 3.79-.27 5.54.04 8.3.1l-1.83-3.24h-.1L453 323.56z"/>
    <path fill="#fff" d="M550.07 324.65s2.7.15 3.84.27a91.39 91.39 0 0 0 2.96.26l-.37-.49c-.57.2-4.42-.19-6.43-.04z"/>
  </g>
  <path fill="#c8a400" d="M256 191.9l-27.43 47.51-28.04 48.56 54.87-.01h56.07l-27.44-47.51L256 191.89zm0 2.55l26.92 46.64 26.33 45.6-53.85-.01h-52.65l26.93-46.63z"/>
</svg>
