<svg xmlns="http://www.w3.org/2000/svg" id="flag-icon-css-np" width="512" height="512">
  <defs>
    <clipPath id="b">
      <path fill-opacity=".67" d="M0-15.96h512v512H0z"/>
    </clipPath>
    <clipPath id="a">
      <path fill-opacity=".67" d="M0 0h512v512H0z"/>
    </clipPath>
  </defs>
  <g clip-path="url(#a)">
    <path fill="#fff" d="M0 0h512v512H0z" style="width:0"/>
    <g clip-path="url(#b)" transform="translate(0 15.96)">
      <g fill-rule="evenodd">
        <path fill="#ce0000" stroke="#000063" stroke-width="12.97" d="M6.54 489.54l378.79-.01L137.4 238.11l257.26.3L6.56-9.47l-.02 499.01z"/>
        <path fill="#fff" d="M180.74 355.8l-26.99 8.94 21.11 19.86-28.44-1.83 11.72 26.24-25.55-12.3.53 28.6-18.79-20.9-10.74 26.63-9.15-26.32-20.37 20.6 1.87-27.74L49.05 409l12.6-24.92-29.33.51 21.43-18.32-27.3-10.48 26.99-8.92-21.12-19.86 28.43 1.81-11.7-26.22 25.55 12.3-.53-28.62 18.8 20.9 10.72-26.62 9.16 26.32 20.37-20.6-1.88 27.74 26.9-11.42-12.6 24.92 29.32-.51-21.43 18.32zm-32.42-184.68l-11.33 8.4 5.58 4.6c13.56-10.48 23.21-20.06 30.76-35.95 1.77 21.22-17.69 68.85-68.73 69.38-54.64-.05-73.6-50.59-71.48-70.28 10.03 18.21 16.16 27.09 31.91 36.57l4.82-4.43-10.67-8.89 13.74-3.57-7.4-12.44 14.4 1.05-1.81-14.48 12.62 7.38 3.94-13.48 9.07 10.86 8.49-10.3 4.62 13.99 11.8-8.2-1.52 14.22 14.13-1.65-6.62 13.15 13.68 4.08z"/>
      </g>
    </g>
  </g>
</svg>
