<svg xmlns="http://www.w3.org/2000/svg" height="512" width="512">
  <g fill-rule="evenodd" clip-path="url(#a)">
    <path fill="#002170" d="M-140 0h1023.977v511.984h-1023.977z"/>
    <path fill="#ffb20d" d="M-140 234.101h1023.977v43.782h-1023.977z"/>
    <path fill="#fff" d="M162.007 438.106l-32.93-32.983-10.607 45.382-12.015-45.033-31.886 33.993 12.11-45.007-44.608 13.505 32.984-32.921-45.383-10.616 45.033-12.015-34.002-31.886 45.007 12.11-13.496-44.609 32.921 32.984 10.616-45.383 12.015 45.033 31.878-33.992-12.102 45.006 44.608-13.505-32.993 32.922 45.383 10.616-45.033 12.015 34.002 31.886-45.007-12.11z"/>
  </g>
</svg>
