<svg xmlns="http://www.w3.org/2000/svg" id="flag-icon-css-nr" width="512" height="512">
  <defs>
    <clipPath id="a">
      <path fill-opacity=".67" d="M135.64 0H631.7v496.06H135.64z"/>
    </clipPath>
  </defs>
  <g fill-rule="evenodd" stroke-width="1pt" clip-path="url(#a)" transform="translate(-140) scale(1.0321)">
    <path fill="#002170" d="M0 0h992.13v496.06H0z"/>
    <path fill="#ffb20d" d="M0 226.82h992.13v42.42H0z"/>
    <path fill="#fff" d="M292.41 424.35l-31.89-31.94-10.27 43.95-11.64-43.62-30.88 32.92 11.73-43.58-43.2 13.07 31.95-31.88L164.25 353l43.62-11.64-32.93-30.88 43.59 11.73-13.07-43.2 31.88 31.95 10.28-43.96 11.64 43.62 30.87-32.92-11.72 43.58 43.2-13.07-31.95 31.88 43.95 10.28L289.99 362l32.93 30.88-43.59-11.73z"/>
  </g>
</svg>
