<svg xmlns="http://www.w3.org/2000/svg" height="512" width="512">
  <g clip-path="url(#a)">
    <path fill-rule="evenodd" fill="#fff" d="M.014 0h515.586v256.064h-515.586z"/>
    <path d="M.014.001l-.021 19.219 123.037 63.219 46.3 1.342-169.316-83.78z" fill="#c00"/>
    <path d="M52.693.001l149.169 77.914v-77.914h-149.159z" fill="#006"/>
    <path fill="#c00" d="M221.757.001v99.466h-221.736v56.838h221.736v99.466h68.228v-99.466h221.736v-56.838h-221.736v-99.466h-68.228z"/>
    <path d="M309.878.001v73.415l145.929-72.847-145.929-.568z" fill="#006"/>
    <path d="M314.491 81.42l41.036-.33 159.439-80.52-42.306.69-158.169 80.161z" fill="#c00"/>
    <path d="M.014 172.877v54.469l102.342-53.896-102.342-.578z" fill="#006"/>
    <path d="M394.108 175.127l-42.663-.331 160.822 80.07-1.058-18.319-117.102-61.42zm-354.134 81.092l150.8-79.172-39.612.268-151.151 78.791" fill="#c00"/>
    <path d="M513.883 22.495l-121.788 60.393 120.167.45v89.993h-102.342l101.396 54.94 1.488 27.948-54.158-.647-148.23-72.768v73.415h-108.03v-73.415l-139.045 73.218-62.797.197v255.765h1023.42v-511.54l-509.001-.443m-514.409 28.869l-.54 53.119 107.741 1.35-107.194-54.469z" fill="#006"/>
    <g fill-rule="evenodd" fill="#ffd900">
      <path d="M511.984 0h511.984v511.984h-511.984z"/>
      <path d="M0 255.992h540.294v255.992h-540.294z"/>
    </g>
    <g fill-rule="evenodd">
      <path d="M300.209 129.277c0 24.375-19.76 44.136-44.136 44.136-24.375 0-44.136-19.76-44.136-44.136s19.76-44.136 44.136-44.136c24.375 0 44.136 19.76 44.136 44.136z" fill="#000067"/>
      <path fill="#fff40d" d="M234.179 159.117l8.539-25.387-22.301-15.683 27.553.026 8.492-25.402 8.492 25.402 27.553-.019-22.305 15.676 8.535 25.391-22.278-15.713z"/>
      <path fill="#fff40d" d="M394.491 141.166l4.236-11.852-11.065-7.322 13.67.012 4.213-11.859 4.213 11.859 13.67-.009-11.067 7.318 4.234 11.854-11.053-7.336z"/>
      <path fill="#fff40d" d="M245.183 229.443l4.236-11.852-11.065-7.322 13.67.012 4.213-11.859 4.213 11.859 13.67-.009-11.067 7.318 4.234 11.854-11.053-7.336z"/>
      <path fill="#fff40d" d="M245.183 57.047l4.236-11.852-11.065-7.322 13.67.012 4.213-11.859 4.213 11.859 13.67-.009-11.067 7.318 4.234 11.854-11.053-7.336z"/>
      <path fill="#fff40d" d="M95.41 141.166l4.236-11.852-11.065-7.322 13.67.012 4.213-11.859 4.213 11.859 13.67-.009-11.067 7.318 4.234 11.854-11.053-7.336z"/>
    </g>
  </g>
</svg>
