<svg xmlns="http://www.w3.org/2000/svg" id="flag-icon-css-om" width="512" height="512">
  <defs>
    <clipPath id="a">
      <path fill-opacity=".67" d="M0 0h512v512H0z"/>
    </clipPath>
  </defs>
  <g clip-path="url(#a)">
    <path fill="#ef2d29" fill-rule="evenodd" d="M-23.3-21.6h554.71V531.4h-554.7z"/>
    <path fill="#009025" fill-rule="evenodd" d="M164.57 341.33h376.55v207.56H164.57z"/>
    <path fill="#fff" fill-rule="evenodd" d="M164.57-19.41h376.55v190.08H164.57z"/>
    <g stroke="#ef2d28">
      <g fill="#fff" fill-rule="evenodd" transform="matrix(.19516 0 0 .17447 109.22 -5.34)">
        <rect width="138.19" height="85.04" x="17.72" y="467.72" stroke-width="1.43" rx="11.49" ry="12.05"/>
        <rect width="131.1" height="77.95" x="21.26" y="471.26" stroke-width="1pt" rx="10.9" ry="11.05"/>
        <path stroke-width="1pt" d="M64.97 396.07l9.72.44.44 5.75 7.96 5.3 6.18-6.63 7.52 5.3-7.07 5.75 1.76 7.96 8.84-.45v10.61l-7.07-.44-3.54 6.63 7.96 7.51-6.19 6.19-6.63-6.63-9.72 2.65.44 9.72-10.6.89-1.33-9.28-8.84-4.87-4.86 6.63-7.51-4.86 4.42-7.51-5.3-4.86h-7.52l-.44-13.7 7.51.88 5.3-7.95-6.18-6.19 7.95-7.07 5.75 5.74 9.72-1.76 1.33-5.75z" transform="matrix(.68108 0 0 .5852 37.97 260.74)"/>
        <ellipse cx="68.94" cy="426.78" stroke-width="1pt" rx="11.05" ry="9.94" transform="matrix(.65819 0 0 .70224 38.84 209.62)"/>
        <path stroke-width="1pt" d="M38.98 474.8l-10.63 10.63m17.71-10.63l-10.63 10.63m17.72-10.63l-10.63 10.63m17.72-10.63L49.6 485.43m17.71-10.63L56.7 485.43m17.72-10.63l-10.63 10.63M81.5 474.8l-10.63 10.63m17.71-10.63l-10.63 10.63m17.72-10.63l-10.63 10.63m17.71-10.63l-10.63 10.63m17.72-10.63l-10.63 10.63m17.72-10.63l-10.63 10.63M88.58 474.8l-10.63 10.63m46.06-10.63l-10.63 10.63m17.72-10.63l-10.63 10.63m17.72-10.63l-10.63 10.63m17.72-10.63l-10.63 10.63m0-10.63l10.62 10.63m-17.7-10.63l10.62 10.63m-17.72-10.63l10.63 10.63m-17.72-10.63l10.63 10.63m-17.7-10.63l10.62 10.63M99.21 474.8l10.63 10.63M92.12 474.8l10.63 10.63m-17.7-10.63l10.62 10.63M77.95 474.8l10.63 10.63M70.86 474.8l10.63 10.63M63.8 474.8l10.62 10.63M56.7 474.8l10.63 10.63m17.72-10.63l10.63 10.63M49.61 474.8l10.63 10.63M42.52 474.8l10.63 10.63M35.43 474.8l10.63 10.63M28.35 474.8l10.63 10.63m0 49.6l-10.63 10.64m17.71-10.63l-10.63 10.63m17.72-10.63l-10.63 10.63m17.72-10.63L49.6 545.67m17.71-10.63L56.7 545.67m17.72-10.63l-10.63 10.63m17.72-10.63l-10.63 10.63m17.71-10.63l-10.63 10.63m17.72-10.63l-10.63 10.63m17.71-10.63l-10.63 10.63m17.72-10.63l-10.63 10.63m17.72-10.63l-10.63 10.63m-17.72-10.63l-10.63 10.63m46.07-10.63l-10.63 10.63m17.71-10.63l-10.63 10.63m17.72-10.63l-10.63 10.63m17.72-10.63l-10.63 10.63m0-10.63l10.62 10.63m-17.7-10.63l10.62 10.63m-17.72-10.63l10.63 10.63m-17.72-10.63l10.63 10.63m-17.7-10.63l10.62 10.63m-17.72-10.63l10.63 10.63m-17.72-10.63l10.63 10.63m-17.7-10.63l10.62 10.63m-17.72-10.63l10.63 10.63m-17.72-10.63l10.63 10.63m-17.7-10.63l10.62 10.63M56.7 535.04l10.63 10.63m17.72-10.63l10.63 10.63m-46.06-10.63l10.63 10.63m-17.72-10.63l10.63 10.63m-17.72-10.63l10.63 10.63m-17.71-10.63l10.63 10.63"/>
      </g>
      <g fill="#fff" fill-rule="evenodd" transform="matrix(.19516 0 0 .17447 18.63 -5.96)">
        <rect width="138.19" height="85.04" x="17.72" y="467.72" stroke-width="1.43" rx="11.49" ry="12.05"/>
        <rect width="131.1" height="77.95" x="21.26" y="471.26" stroke-width="1pt" rx="10.9" ry="11.05"/>
        <path stroke-width="1pt" d="M64.97 396.07l9.72.44.44 5.75 7.96 5.3 6.18-6.63 7.52 5.3-7.07 5.75 1.76 7.96 8.84-.45v10.61l-7.07-.44-3.54 6.63 7.96 7.51-6.19 6.19-6.63-6.63-9.72 2.65.44 9.72-10.6.89-1.33-9.28-8.84-4.87-4.86 6.63-7.51-4.86 4.42-7.51-5.3-4.86h-7.52l-.44-13.7 7.51.88 5.3-7.95-6.18-6.19 7.95-7.07 5.75 5.74 9.72-1.76 1.33-5.75z" transform="matrix(.68108 0 0 .5852 37.97 260.74)"/>
        <ellipse cx="68.94" cy="426.78" stroke-width="1pt" rx="11.05" ry="9.94" transform="matrix(.65819 0 0 .70224 38.84 209.62)"/>
        <path stroke-width="1pt" d="M38.98 474.8l-10.63 10.63m17.71-10.63l-10.63 10.63m17.72-10.63l-10.63 10.63m17.72-10.63L49.6 485.43m17.71-10.63L56.7 485.43m17.72-10.63l-10.63 10.63M81.5 474.8l-10.63 10.63m17.71-10.63l-10.63 10.63m17.72-10.63l-10.63 10.63m17.71-10.63l-10.63 10.63m17.72-10.63l-10.63 10.63m17.72-10.63l-10.63 10.63M88.58 474.8l-10.63 10.63m46.06-10.63l-10.63 10.63m17.72-10.63l-10.63 10.63m17.72-10.63l-10.63 10.63m17.72-10.63l-10.63 10.63m0-10.63l10.62 10.63m-17.7-10.63l10.62 10.63m-17.72-10.63l10.63 10.63m-17.72-10.63l10.63 10.63m-17.7-10.63l10.62 10.63M99.21 474.8l10.63 10.63M92.12 474.8l10.63 10.63m-17.7-10.63l10.62 10.63M77.95 474.8l10.63 10.63M70.86 474.8l10.63 10.63M63.8 474.8l10.62 10.63M56.7 474.8l10.63 10.63m17.72-10.63l10.63 10.63M49.61 474.8l10.63 10.63M42.52 474.8l10.63 10.63M35.43 474.8l10.63 10.63M28.35 474.8l10.63 10.63m0 49.6l-10.63 10.64m17.71-10.63l-10.63 10.63m17.72-10.63l-10.63 10.63m17.72-10.63L49.6 545.67m17.71-10.63L56.7 545.67m17.72-10.63l-10.63 10.63m17.72-10.63l-10.63 10.63m17.71-10.63l-10.63 10.63m17.72-10.63l-10.63 10.63m17.71-10.63l-10.63 10.63m17.72-10.63l-10.63 10.63m17.72-10.63l-10.63 10.63m-17.72-10.63l-10.63 10.63m46.07-10.63l-10.63 10.63m17.71-10.63l-10.63 10.63m17.72-10.63l-10.63 10.63m17.72-10.63l-10.63 10.63m0-10.63l10.62 10.63m-17.7-10.63l10.62 10.63m-17.72-10.63l10.63 10.63m-17.72-10.63l10.63 10.63m-17.7-10.63l10.62 10.63m-17.72-10.63l10.63 10.63m-17.72-10.63l10.63 10.63m-17.7-10.63l10.62 10.63m-17.72-10.63l10.63 10.63m-17.72-10.63l10.63 10.63m-17.7-10.63l10.62 10.63M56.7 535.04l10.63 10.63m17.72-10.63l10.63 10.63m-46.06-10.63l10.63 10.63m-17.72-10.63l10.63 10.63m-17.72-10.63l10.63 10.63m-17.71-10.63l10.63 10.63"/>
      </g>
      <path fill="#fff" fill-rule="evenodd" stroke-width="1pt" d="M538.58 531.5c1.72 166.56 24.8 201.97 3.54 201.97s-31.89-92.07-31.89-205.51 14.18-205.51 35.44-205.51-8.92 31.9-7.09 209.06z" transform="matrix(-.31598 -.12472 -.1982 .19883 339.92 68.24)"/>
      <path fill="#fff" fill-rule="evenodd" stroke-width="1.25" d="M545.67 779.53l-60.24 17.72c56.7 60.23 120.47 85.03 138.2 74.4 17.71-10.62-31.9-35.43-77.96-92.12z" transform="matrix(-.19516 0 0 .17447 142.64 -5.34)"/>
      <path fill="#fff" fill-rule="evenodd" stroke-width="1.29" d="M547.27 786.9l-50.93 14.74c56.7 60.24 112.77 77.39 127.28 70.02 14.6-7.37-30.28-28.07-76.35-84.76z" transform="matrix(-.1901 0 0 .16776 140.18 -.11)"/>
      <path fill="none" stroke-width="1.78" d="M353.13 634.23c.19 1.27.75 7.07 1.25 9.38 0 3.18.29 5.63.63 8.12.8 2.18.66 4.2 3.12 5 1.7 2.63 2.76 3.31 5 4.38a27.73 27.73 0 0 0 6.25 3.75 11.57 11.57 0 0 0 7.5.62c2.19-1.53 3.8-3.1 5.63-4.37.42-1.98.82-4.9 1.25-6.88a32.56 32.56 0 0 0-1.25 8.13c.24 3.12 1.26 4.48 2.5 6.87" transform="matrix(-.13744 0 0 .12206 120.79 27.9)"/>
      <path fill="none" stroke-width="1.78" d="M389.38 681.73l.63-.63c-1.49 1.49-.88.78 2.5-1.25 2.42-1.24 5.01-1.9 8.12-2.5h8.75c3.4 0 5.7.52 8.13 1.25 1.76 1.77 4.39 2.77 6.25 4.38 1.9 1.3 2.72 2.83 3.75 5 1.7 1.7 2.8 4.33 4.37 5.63.7 2.87 2.14 2.77 3.13 5-2.95.22-5.32.63-6.88 2.5-2.6 1.34 2.18-1.32 3.13-2.5 2.04-.62 2.57-1.25 5.62-1.25 2.85-.9 4.58.73 7.5 1.25 1.7.98 2.18 1.25 4.38 1.25" transform="matrix(-.13744 0 0 .12206 122.6 27.21)"/>
      <path fill="none" stroke-width="1.78" d="M438.13 724.86c1.27.07 7.08 1.15 9.38 0 2.55-.7 4.06-2.04 5.62-4.38.77-1.68 0 3 0 5 .28 3.68 1.37 3.72 3.13 6.25 1.81 1.17 3.72 2.8 5.62 3.75 1.58 1.37 3.51 2.28 5.63 3.13 1.9.9 4.1 1.81 5.62 3.13 2.1 1.49 1.89 3.27 3.13 5.62-.24 3.06-.74 4.79-2.5 6.25-.74 2.11-2.4 4.2-3.75 5.63-1.55 2.87-3.26 4.22.62 5 2.13.9 3.33.2 5.63 0" transform="matrix(-.13744 0 0 .12206 124.66 25.77)"/>
      <path fill="none" stroke-width="1.78" d="M480.63 771.73c1.54-.4 6.98-2.21 9.38-3.13h8.75c3.39.27 4.03 1.26 6.87 2.5 1.83 1.88 3.09 3.17 5.63 4.38 1.34 1.73 3.95 4.68 5 6.88a25.48 25.48 0 0 1 1.25 8.12c-.05 3.65-1 4.27-1.25 7.5a19.3 19.3 0 0 1-3.75 7.5c-.27.8-.46.99-1.25 1.25" transform="matrix(-.13744 0 0 .12206 125.08 25.38)"/>
      <path fill="none" stroke-width="2.38" d="M538.13 817.98c.37 0 1.2 2.02 2.5 3.75 2.83 2.9 3.2 3.13 7.5 3.13 3.88-.15 3.52-1.54 6.25-2.5 1.29-2.01 2.9-3.6 4.38-6.25 1-1.64 1.89-4.13 3.12-5.63 1.14-1.85 2.56-3.25 3.75-5 1.17-.5 1.62-.98 3.13-1.25-3.6.58-3.92 1.87-6.26 3.75a58.87 58.87 0 0 0-3.12 5.63c-.36 2.67-1.21 4.77-1.25 8.12 0 3.46.02 5.87 1.25 8.75 1.47 1.54 2.56 3.14 4.38 4.38a36.72 36.72 0 0 1 4.37 5c1.96 1.2 3.39 2.18 5.63 3.75 1.88 1.1 3.91 2.23 6.87 2.5 3.67-.27 4.76-1.3 7.5-2.5 2.33-1.72 4.16-2.84 6.25-4.38 1.63-1.14 3.29-3.4 4.38-5 3.38-.85 5.52-.5 7.5 1.25a16.54 16.54 0 0 1 4.37 4.38c1.02.5 2.73 1.99 3.75 2.5" transform="matrix(-.09758 0 0 .09635 107.44 46.04)"/>
      <path fill="none" stroke-width="1.91" d="M503.76 836.11c-.8.33-3.72 2.37-5 3.13-.8 2.63-2.08 4.06-2.5 6.87-.68 2.7-.63 5.7-.63 8.75.69 3.2 2.02 5.56 3.13 8.13 1.97 1.34 2.97 2.33 5.63 3.75 2.49.33 4.94.62 8.12.62 1.9.64 5.62.94 7.5 0 2.78-.38 4.85-1.5 6.88-2.5 2.3-1.3 3.72-2.54 6.25-3.75 1.22-1.8 3.13-3.46 5-5.63 1.55-2.1 2.7-3.28 3.75-5.62-.93 2.67-2.33 5-3.13 7.5-1.42 2.66-2.25 3.6-2.5 6.88-.87 2.6-.62 5.76-.62 8.75.27 2.03.41 5.83 1.25 7.5v1.87" transform="matrix(-.12132 0 0 .12024 109.33 26.8)"/>
      <path fill="none" stroke-width="1.25" d="M541.26 799.23v.63c0-1.7.04-.83-.63 2.5-1.17 1.46-3.94 1.86-6.25 1.25-2.02-1.67-1.96-2.94-5.62-3.75-3.54.25-4.9 1.27-6.88 2.5-2.35 1.17-3.43 1.77-5 4.37-.77 2.12-1.2 3.56 1.25 4.38a15.17 15.17 0 0 0 6.88 2.5c2.89 0 4.97-.34 6.25 1.25 1.98 2.05 1.88 3.27 1.88 6.87.66 1.11.8 4.4 1.25 5.63a10.6 10.6 0 0 0 5.62 1.25c.67-1.94 1.42-5.42 1.88-7.5.48-2.25.64-5.38 1.87-6.88a16.58 16.58 0 0 1 4.38-4.38c.76-1.07 2.22-1.96 3.75-2.5-2.46 1.26-2.8 2.6-3.13 5.63 2.15 1.08 2.73 1.83 6.25 1.88 3.46-.3 4.3-1.17 5.63-3.13.24 3.14 1.24 4.19 1.87 6.88 1.29 1.89 1.83 3.82 3.13 6.25-.56 3-1.74 3.16-1.88 6.87-.81 2.44-.72 4.78-2.5 6.25-.8.97-1.38 1.16-3.13 1.25 3.62 0 5.73-.39 8.13-1.87 1.85-1.15 3.25-2.57 5-3.75a23.85 23.85 0 0 1 7.5-3.76c2.89 0 4.97-.33 6.25 1.25 1.77 1.27 2.96 3.45 3.75 6.26.58 3.24.8 5.4-.62 7.5-1.06 2.4-1.3 3.34 0 6.25 1.45 2.03 3.61 2.27 6.87 3.12 2.38-.13 4.67-.67 6.25-1.25" transform="matrix(-.19516 0 0 .17447 142.64 -5.34)"/>
      <g fill-rule="evenodd" stroke-width="1pt" transform="matrix(-.19516 0 0 .17447 142.64 -5.34)">
        <path fill="#fff" d="M531.5 359.64c0-165.27 7.94-299.41 17.72-299.41 9.78 0 17.71 134.13 17.71 299.41H531.5z" transform="matrix(1.4216 -.73423 .46161 .89375 -716.84 541.07)"/>
        <path fill="#fff" d="M531.5 359.64c0-165.27 7.94-299.41 17.72-299.41 9.78 0 17.71 134.13 17.71 299.41" transform="matrix(1.1373 -.58739 .44532 .86221 -554.83 471.77)"/>
        <path fill="#fff" d="M563.39 301.18c.19 18.9 0 40.19 0 60.24h-28.35c0-20.05-.19-41.33 0-60.24h28.35z" transform="matrix(1.4216 -.73423 .45889 .88849 -716.67 541.39)"/>
        <path fill="#fff" d="M559.84 304.72c.19 18.9 0 33.1 0 53.15h-21.26c0-20.05-.19-34.24 0-53.15h21.26z" transform="matrix(1.4216 -.73423 .45889 .88849 -716.67 541.39)"/>
        <path fill="#fff" d="M542.13 311.81h14.17v38.98h-14.17zm0 0l14.17 38.98m-14.17 0l14.17-38.98M542.13 113.4h14.17" transform="matrix(1.4216 -.73423 .45889 .88849 -716.67 541.39)"/>
        <ellipse cx="545.67" cy="92.13" fill="#ef0000" rx="3.54" ry="3.54" transform="matrix(1.6046 .45375 -.36215 1.5787 -734.9 -170.85)"/>
      </g>
      <path fill="#fff" fill-rule="evenodd" stroke-width="1pt" d="M538.58 531.5c1.72 166.56 24.8 201.97 3.54 201.97s-31.89-92.07-31.89-205.51 14.18-205.51 35.44-205.51-8.92 31.9-7.09 209.06z" transform="matrix(.31598 -.12472 .1982 .19883 -178.66 67.63)"/>
      <path fill="#fff" fill-rule="evenodd" stroke-width="1.25" d="M545.67 779.53l-60.24 17.72c56.7 60.23 120.47 85.03 138.2 74.4 17.71-10.62-31.9-35.43-77.96-92.12z" transform="matrix(.19516 0 0 .17447 18.63 -5.96)"/>
      <path fill="#fff" fill-rule="evenodd" stroke-width="1.29" d="M547.27 786.9l-50.93 14.74c56.7 60.24 112.77 77.39 127.28 70.02 14.6-7.37-30.28-28.07-76.35-84.76z" transform="matrix(.1901 0 0 .16776 21.09 -.73)"/>
      <path fill="none" stroke-width="1.78" d="M353.13 634.23c.19 1.27.75 7.07 1.25 9.38 0 3.18.29 5.63.63 8.12.8 2.18.66 4.2 3.12 5 1.7 2.63 2.76 3.31 5 4.38a27.73 27.73 0 0 0 6.25 3.75 11.57 11.57 0 0 0 7.5.62c2.19-1.53 3.8-3.1 5.63-4.37.42-1.98.82-4.9 1.25-6.88a32.56 32.56 0 0 0-1.25 8.13c.24 3.12 1.26 4.48 2.5 6.87" transform="matrix(.13744 0 0 .12206 40.48 27.28)"/>
      <path fill="none" stroke-width="1.78" d="M389.38 681.73l.63-.63c-1.49 1.49-.88.78 2.5-1.25 2.42-1.24 5.01-1.9 8.12-2.5h8.75c3.4 0 5.7.52 8.13 1.25 1.76 1.77 4.39 2.77 6.25 4.38 1.9 1.3 2.72 2.83 3.75 5 1.7 1.7 2.8 4.33 4.37 5.63.7 2.87 2.14 2.77 3.13 5-2.95.22-5.32.63-6.88 2.5-2.6 1.34 2.18-1.32 3.13-2.5 2.04-.62 2.57-1.25 5.62-1.25 2.85-.9 4.58.73 7.5 1.25 1.7.98 2.18 1.25 4.38 1.25" transform="matrix(.13744 0 0 .12206 38.67 26.6)"/>
      <path fill="none" stroke-width="1.78" d="M438.13 724.86c1.27.07 7.08 1.15 9.38 0 2.55-.7 4.06-2.04 5.62-4.38.77-1.68 0 3 0 5 .28 3.68 1.37 3.72 3.13 6.25 1.81 1.17 3.72 2.8 5.62 3.75 1.58 1.37 3.51 2.28 5.63 3.13 1.9.9 4.1 1.81 5.62 3.13 2.1 1.49 1.89 3.27 3.13 5.62-.24 3.06-.74 4.79-2.5 6.25-.74 2.11-2.4 4.2-3.75 5.63-1.55 2.87-3.26 4.22.62 5 2.13.9 3.33.2 5.63 0" transform="matrix(.13744 0 0 .12206 36.61 25.15)"/>
      <path fill="none" stroke-width="1.78" d="M480.63 771.73c1.54-.4 6.98-2.21 9.38-3.13h8.75c3.39.27 4.03 1.26 6.87 2.5 1.83 1.88 3.09 3.17 5.63 4.38 1.34 1.73 3.95 4.68 5 6.88a25.48 25.48 0 0 1 1.25 8.12c-.05 3.65-1 4.27-1.25 7.5a19.3 19.3 0 0 1-3.75 7.5c-.27.8-.46.99-1.25 1.25" transform="matrix(.13744 0 0 .12206 36.18 24.77)"/>
      <path fill="none" stroke-width="2.38" d="M538.13 817.98c.37 0 1.2 2.02 2.5 3.75 2.83 2.9 3.2 3.13 7.5 3.13 3.88-.15 3.52-1.54 6.25-2.5 1.29-2.01 2.9-3.6 4.38-6.25 1-1.64 1.89-4.13 3.12-5.63 1.14-1.85 2.56-3.25 3.75-5 1.17-.5 1.62-.98 3.13-1.25-3.6.58-3.92 1.87-6.26 3.75a58.87 58.87 0 0 0-3.12 5.63c-.36 2.67-1.21 4.77-1.25 8.12 0 3.46.02 5.87 1.25 8.75 1.47 1.54 2.56 3.14 4.38 4.38a36.72 36.72 0 0 1 4.37 5c1.96 1.2 3.39 2.18 5.63 3.75 1.88 1.1 3.91 2.23 6.87 2.5 3.67-.27 4.76-1.3 7.5-2.5 2.33-1.72 4.16-2.84 6.25-4.38 1.63-1.14 3.29-3.4 4.38-5 3.38-.85 5.52-.5 7.5 1.25a16.54 16.54 0 0 1 4.37 4.38c1.02.5 2.73 1.99 3.75 2.5" transform="matrix(.09758 0 0 .09635 53.82 45.42)"/>
      <path fill="none" stroke-width="1.91" d="M503.76 836.11c-.8.33-3.72 2.37-5 3.13-.8 2.63-2.08 4.06-2.5 6.87-.68 2.7-.63 5.7-.63 8.75.69 3.2 2.02 5.56 3.13 8.13 1.97 1.34 2.97 2.33 5.63 3.75 2.49.33 4.94.62 8.12.62 1.9.64 5.62.94 7.5 0 2.78-.38 4.85-1.5 6.88-2.5 2.3-1.3 3.72-2.54 6.25-3.75 1.22-1.8 3.13-3.46 5-5.63 1.55-2.1 2.7-3.28 3.75-5.62-.93 2.67-2.33 5-3.13 7.5-1.42 2.66-2.25 3.6-2.5 6.88-.87 2.6-.62 5.76-.62 8.75.27 2.03.41 5.83 1.25 7.5v1.87" transform="matrix(.12132 0 0 .12024 51.94 26.19)"/>
      <path fill="none" stroke-width="1.25" d="M541.26 799.23v.63c0-1.7.04-.83-.63 2.5-1.17 1.46-3.94 1.86-6.25 1.25-2.02-1.67-1.96-2.94-5.62-3.75-3.54.25-4.9 1.27-6.88 2.5-2.35 1.17-3.43 1.77-5 4.37-.77 2.12-1.2 3.56 1.25 4.38a15.17 15.17 0 0 0 6.88 2.5c2.89 0 4.97-.34 6.25 1.25 1.98 2.05 1.88 3.27 1.88 6.87.66 1.11.8 4.4 1.25 5.63a10.6 10.6 0 0 0 5.62 1.25c.67-1.94 1.42-5.42 1.88-7.5.48-2.25.64-5.38 1.87-6.88a16.58 16.58 0 0 1 4.38-4.38c.76-1.07 2.22-1.96 3.75-2.5-2.46 1.26-2.8 2.6-3.13 5.63 2.15 1.08 2.73 1.83 6.25 1.88 3.46-.3 4.3-1.17 5.63-3.13.24 3.14 1.24 4.19 1.87 6.88 1.29 1.89 1.83 3.82 3.13 6.25-.56 3-1.74 3.16-1.88 6.87-.81 2.44-.72 4.78-2.5 6.25-.8.97-1.38 1.16-3.13 1.25 3.62 0 5.73-.39 8.13-1.87 1.85-1.15 3.25-2.57 5-3.75a23.85 23.85 0 0 1 7.5-3.76c2.89 0 4.97-.33 6.25 1.25 1.77 1.27 2.96 3.45 3.75 6.26.58 3.24.8 5.4-.62 7.5-1.06 2.4-1.3 3.34 0 6.25 1.45 2.03 3.61 2.27 6.87 3.12 2.38-.13 4.67-.67 6.25-1.25" transform="matrix(.19516 0 0 .17447 18.63 -5.96)"/>
      <g fill-rule="evenodd" stroke-width="1pt" transform="matrix(.19516 0 0 .17447 18.63 -5.96)">
        <path fill="#fff" d="M531.5 359.64c0-165.27 7.94-299.41 17.72-299.41 9.78 0 17.71 134.13 17.71 299.41H531.5z" transform="matrix(1.4216 -.73423 .46161 .89375 -716.84 541.07)"/>
        <path fill="#fff" d="M531.5 359.64c0-165.27 7.94-299.41 17.72-299.41 9.78 0 17.71 134.13 17.71 299.41" transform="matrix(1.1373 -.58739 .44532 .86221 -554.83 471.77)"/>
        <path fill="#fff" d="M563.39 301.18c.19 18.9 0 40.19 0 60.24h-28.35c0-20.05-.19-41.33 0-60.24h28.35z" transform="matrix(1.4216 -.73423 .45889 .88849 -716.67 541.39)"/>
        <path fill="#fff" d="M559.84 304.72c.19 18.9 0 33.1 0 53.15h-21.26c0-20.05-.19-34.24 0-53.15h21.26z" transform="matrix(1.4216 -.73423 .45889 .88849 -716.67 541.39)"/>
        <path fill="#fff" d="M542.13 311.81h14.17v38.98h-14.17zm0 0l14.17 38.98m-14.17 0l14.17-38.98M542.13 113.4h14.17" transform="matrix(1.4216 -.73423 .45889 .88849 -716.67 541.39)"/>
        <ellipse cx="545.67" cy="92.13" fill="#ef0000" rx="3.54" ry="3.54" transform="matrix(1.6046 .45375 -.36215 1.5787 -734.9 -170.85)"/>
      </g>
      <g fill="#fff" fill-rule="evenodd" transform="matrix(.19516 0 0 .17447 18.63 -5.96)">
        <path stroke-width="1pt" d="M305.61 396.85c0 124.02.5 170.76-5.62 177.17-5.79 6.86-167.12 0-167.12 35.43s132.87 70.87 172.74 70.87c53.15 0 79.72-35.43 79.72-106.3V396.85h-79.72z" transform="matrix(1.3333 0 0 1 -141.74 0)"/>
        <path stroke-width="1pt" d="M265.75 396.85v17.72a321.1 321.1 0 0 0 106.3 0v-17.72a321.1 321.1 0 0 1-106.3 0z" transform="matrix(1 0 0 .99999 0 35.44)"/>
        <path stroke-width="1pt" d="M265.75 396.85v17.72a321.1 321.1 0 0 0 106.3 0v-17.72a321.1 321.1 0 0 1-106.3 0z" transform="matrix(1 0 0 .99999 0 0)"/>
        <path stroke-width="1pt" d="M265.75 396.85v17.72a321.1 321.1 0 0 0 106.3 0v-17.72a321.1 321.1 0 0 1-106.3 0z" transform="matrix(1 0 0 .99999 0 17.72)"/>
        <path stroke-width="1pt" d="M265.75 396.85v17.72a321.1 321.1 0 0 0 106.3 0v-17.72a321.1 321.1 0 0 1-106.3 0z" transform="matrix(1 0 0 .99999 0 53.15)"/>
        <ellipse cx="256.89" cy="210.83" stroke-width="4.46" rx="8.86" ry="26.57" transform="matrix(.54545 0 0 .14383 130.46 394.32)"/>
        <ellipse cx="292.32" cy="246.26" stroke-width="4.46" rx="8.86" ry="26.57" transform="matrix(.54545 0 0 .14383 130.46 391.13)"/>
        <ellipse cx="327.76" cy="263.98" stroke-width="4.46" rx="8.86" ry="26.57" transform="matrix(.54545 0 0 .14383 130.46 390.49)"/>
        <ellipse cx="363.19" cy="263.98" stroke-width="4.46" rx="8.86" ry="26.57" transform="matrix(.54545 0 0 .14383 130.46 390.49)"/>
        <ellipse cx="398.62" cy="246.26" stroke-width="4.46" rx="8.86" ry="26.57" transform="matrix(.54545 0 0 .14383 130.46 391.13)"/>
        <ellipse cx="434.06" cy="210.83" stroke-width="4.46" rx="8.86" ry="26.57" transform="matrix(.54545 0 0 .14383 130.46 394.32)"/>
        <path stroke-width="1pt" d="M265.75 485.43l106.3 95.67m-95.67-95.67l95.67 85.04m-81.5-81.49l81.5 70.87m-70.87-70.87l70.87 60.24m-60.24-60.24l60.24 49.6m-49.61-49.6l49.6 38.98m-38.97-38.98l38.98 28.35m-28.35-28.35l28.35 21.26m-17.72-21.26l17.72 14.17m-7.09-14.17l7.09 7.09m-106.3-.01l106.3 95.67m0-106.3l-116.93 106.3m106.3-106.3l-102.76 92.13m88.59-88.58l-81.5 70.87m70.87-70.87l-70.87 60.24M326 488.98l-60.24 49.6m49.61-49.6l-49.6 38.98m38.97-38.98l-38.98 28.35m28.35-28.35l-28.35 21.26m17.72-21.26l-17.72 14.17m7.09-14.17l-7.09 7.09m106.3-.01l-116.93 106.3m116.93-95.67l-116.93 106.3m116.93-95.67l-116.93 106.3m116.93-95.67l-116.93 106.3m116.93-95.67l-116.93 106.3m116.93-95.67l-116.93 106.3m116.93-95.67l-116.93 106.3m116.93-95.67l-116.93 106.3m116.93-95.67l-109.84 99.21m109.84-88.58l-99.21 88.58m95.66-74.41l-77.95 70.87m74.41-56.69l-63.78 56.7m56.69-38.99l-31.89 28.35m-60.23-159.45l102.76 92.13m-102.76-81.5l102.76 92.13m-102.76-81.5l99.21 88.59m-99.21-77.95l99.21 88.58m-99.2-77.96l95.66 85.04M262.2 556.3l95.67 85.04m-95.67-74.4l88.59 77.95M258.66 574l88.59 77.96M255.1 581.1l85.04 74.41m-85.04-63.78l81.5 70.86m-81.5-60.23l70.87 63.78"/>
        <path stroke-width="1pt" d="M265.75 396.85v17.72a321.1 321.1 0 0 0 106.3 0v-17.72a321.1 321.1 0 0 1-106.3 0z" transform="matrix(1 0 0 .99999 0 70.87)"/>
        <path stroke-width="1pt" d="M255.11 612.99l63.78 56.7m-63.78-46.07l56.7 49.6m-56.7-38.97l49.6 42.52m-49.6-31.89l35.44 31.89M255.1 655.5l28.35 24.8m-28.35-14.17l17.72 14.17"/>
        <ellipse cx="256.89" cy="210.83" stroke-width="4.46" rx="8.86" ry="26.57" transform="matrix(.54545 0 0 .14383 130.46 447.47)"/>
        <ellipse cx="292.32" cy="246.26" stroke-width="4.46" rx="8.86" ry="26.57" transform="matrix(.54545 0 0 .14383 130.46 444.28)"/>
        <ellipse cx="327.76" cy="263.98" stroke-width="4.46" rx="8.86" ry="26.57" transform="matrix(.54545 0 0 .14383 130.46 443.64)"/>
        <ellipse cx="363.19" cy="263.98" stroke-width="4.46" rx="8.86" ry="26.57" transform="matrix(.54545 0 0 .14383 130.46 443.64)"/>
        <ellipse cx="398.62" cy="246.26" stroke-width="4.46" rx="8.86" ry="26.57" transform="matrix(.54545 0 0 .14383 130.46 444.28)"/>
        <ellipse cx="434.06" cy="210.83" stroke-width="4.46" rx="8.86" ry="26.57" transform="matrix(.54545 0 0 .14383 130.46 447.47)"/>
        <path stroke-width="1pt" d="M113.39 651.97l127.55-74.41M106.3 648.43l120.47-70.87m-124.01 63.78l109.84-63.78m-113.38 56.7l95.67-56.7m-102.76 49.6l88.58-49.6m-85.04 38.98l60.23-35.44m-63.77 28.35l46.06-28.34m-46.07 17.7l31.9-17.71m0 74.4l120.46-70.85m-109.83 74.4l113.38-67.32M145.28 662.6l106.3-63.78m-95.67 67.32L244.49 613m-74.4 53.15l77.94-46.07m-67.32 49.61l67.33-38.98m-56.7 42.53l53.15-31.9m-38.98 31.9l42.52-24.8m-28.35 28.35l28.35-17.72m-14.17 17.71l17.72-10.63"/>
        <path stroke-width="1pt" d="M265.75 396.85v17.72a321.1 321.1 0 0 0 106.3 0v-17.72a321.1 321.1 0 0 1-106.3 0z" transform="matrix(0 1 -.99999 0 655.51 308.27)"/>
        <path stroke-width="1pt" d="M49.61 623.62l42.52-35.43M49.61 598.8l42.52 42.52"/>
        <path stroke-width="1pt" d="M260.15 387.99l5.6 26.57c35.43 5.91 65.27 5.91 100.7 0L377.63 388c-35.44 5.9-82.06 5.9-117.5 0z" transform="matrix(0 .63333 -.8 0 423.78 416.34)"/>
        <path stroke-width="1pt" d="M258.66 350.79v-17.86c-10.63.14-17.72-10.49-17.72-21.26l-35.43.14c0 10.63-7.09 21.26-17.72 21.26v17.72h70.87z" transform="matrix(1.4983 0 0 1 -15.63 53.15)"/>
        <path stroke-width="1.38" d="M296.09 343.7h45.5v21.26h-45.5zm3.79-21.26h37.92v21.26h-37.92zm0-21.26h37.92v21.26h-37.92zm3.79-28.35h30.34v28.35h-30.34z"/>
        <path stroke-width="1.44" d="M302.36 248.03h32.95v24.8h-32.95z"/>
        <ellipse cx="237.4" cy="161.22" stroke-width="1pt" rx="42.52" ry="33.66" transform="matrix(1.0333 0 0 1 75.35 63.78)"/>
        <path stroke-width="1pt" d="M258.66 159.45c0 9.3 10.63 24.8 10.63 24.8-7.7 6.1-20.15 10.63-31.89 10.63s-26.35-2.53-31.89-10.63c0 0 10.63-15.5 10.63-24.8s-10.63-21.26-10.63-21.26c7.7-6.1 20.16-10.63 31.9-10.63 11.73 0 24.18 4.54 31.88 10.63 0 0-10.63 11.97-10.63 21.26z" transform="matrix(1.0333 0 0 1 75.35 63.78)"/>
        <path stroke-width="1pt" d="M251.58 159.45c0 9.3 10.63 28.35 10.63 28.35-7.7 6.09-13.07 7.08-24.8 7.08s-19.26 1.02-24.8-7.08c0 0 10.62-19.06 10.62-28.35s-10.63-24.8-10.63-24.8c7.7-6.1 13.07-7.09 24.8-7.09 11.74 0 17.11 1 24.81 7.09 0 0-10.63 15.5-10.63 24.8z" transform="matrix(1.0333 0 0 1 75.35 63.78)"/>
        <ellipse cx="194.88" cy="166.54" stroke-width="1pt" rx="10.63" ry="10.63" transform="matrix(1.0333 0 0 1 75.35 60.24)"/>
        <ellipse cx="194.88" cy="166.54" stroke-width="1pt" rx="10.63" ry="10.63" transform="matrix(1.0333 0 0 1 163.23 60.24)"/>
        <ellipse cx="194.88" cy="166.54" stroke-width="1pt" rx="10.63" ry="10.63" transform="matrix(1.0333 0 0 1 119.29 60.24)"/>
        <ellipse cx="194.88" cy="166.54" stroke-width="1pt" rx="10.63" ry="10.63" transform="matrix(1.0333 0 0 1 119.29 24.8)"/>
        <ellipse cx="194.88" cy="166.54" stroke-width="1pt" rx="10.63" ry="10.63" transform="matrix(1.0702 0 0 1 79.93 226.77)"/>
        <ellipse cx="194.88" cy="166.54" stroke-width="1pt" rx="10.63" ry="10.63" transform="matrix(1.0702 0 0 1 140.61 226.77)"/>
        <path stroke-width="1pt" d="M212.6 311.81h49.6l-24.8 31.89-24.8-31.89z" transform="matrix(1.0702 0 0 1 64.76 53.15)"/>
        <ellipse cx="194.88" cy="166.54" stroke-width="1pt" rx="10.63" ry="10.63" transform="matrix(1.427 0 0 1.3333 40.74 167.72)"/>
      </g>
      <g fill="#fff" fill-rule="evenodd" transform="matrix(.19516 0 0 .17447 18.29 -10.9)">
        <rect width="81.5" height="21.26" x="262.2" y="524.41" stroke-width="1.25" rx="4.42" ry="3.75"/>
        <path stroke-width="1.25" d="M368.51 506.69c-9.81 0-17.72 8.26-17.72 18.52v16.11c0 10.26 7.9 18.52 17.72 18.52 9.81 0 17.72-8.26 17.72-18.52v-16.11c0-10.26-7.9-18.52-17.72-18.52zm0 7.09c-5.89 0-10.63 6.6-10.63 14.81v9.35c0 8.2 4.74 14.81 10.63 14.81 5.89 0 10.63-6.6 10.63-14.81v-9.35c0-8.2-4.74-14.81-10.63-14.81zm-92.13-3.54c-5.89 0-10.63 6.6-10.63 14.82v16.43c0 8.2 4.74 14.81 10.63 14.81 5.89 0 10.63-6.6 10.63-14.81v-16.43c0-8.21-4.74-14.82-10.63-14.82zm0-7.09c-9.81 0-17.72 8.26-17.72 18.52v23.2c0 10.26 7.9 18.52 17.72 18.52 9.81 0 17.72-8.26 17.72-18.52v-23.2c0-10.26-7.9-18.52-17.72-18.52z"/>
        <path stroke-width="1.25" d="M248.03 517.32c-5.89 0-10.63 6.6-10.63 14.82V536c0 8.2 4.74 14.82 10.63 14.82 5.89 0 10.63-6.61 10.63-14.82v-3.86c0-8.21-4.74-14.82-10.63-14.82zm0-7.09c-9.81 0-17.72 8.26-17.72 18.52v10.63c0 10.26 7.9 18.52 17.72 18.52 9.81 0 17.72-8.26 17.72-18.52v-10.63c0-10.26-7.9-18.52-17.72-18.52z"/>
        <path stroke-width=".88" d="M478.35 237.4c-5.89 0-10.63 6.6-10.63 14.82v16.43c0 8.2 4.74 14.81 10.63 14.81 5.89 0 10.63-6.6 10.63-14.81v-16.43c0-8.21-4.74-14.82-10.63-14.82zm0-7.09c-9.81 0-17.72 8.26-17.72 18.52v23.2c0 10.26 7.9 18.52 17.72 18.52 9.81 0 17.72-8.26 17.72-18.52v-23.2c0-10.26-7.9-18.52-17.72-18.52z" transform="matrix(1.8 0 0 1.1176 -655.51 242.2)"/>
        <path stroke-width=".88" d="M478.35 237.4c-5.89 0-10.63 6.6-10.63 14.82v16.43c0 8.2 4.74 14.81 10.63 14.81 5.89 0 10.63-6.6 10.63-14.81v-16.43c0-8.21-4.74-14.82-10.63-14.82zm0-7.09c-9.81 0-17.72 8.26-17.72 18.52v23.2c0 10.26 7.9 18.52 17.72 18.52 9.81 0 17.72-8.26 17.72-18.52v-23.2c0-10.26-7.9-18.52-17.72-18.52z" transform="matrix(1.8 0 0 1.1176 -425.2 245.74)"/>
        <rect width="42.52" height="21.26" x="375.59" y="524.41" stroke-width="1.25" rx="2.31" ry="3.75"/>
        <rect width="24.8" height="28.35" x="336.61" y="520.87" stroke-width="1.25" rx="1.35" ry="5"/>
        <rect width="24.8" height="28.35" x="219.69" y="520.87" stroke-width="1.25" rx="1.35" ry="5"/>
        <rect width="49.61" height="35.43" x="141.73" y="517.32" stroke-width="1.25" rx="2.69" ry="6.25"/>
        <rect width="46.06" height="35.43" x="450" y="520.87" stroke-width="1.25" rx="2.5" ry="6.25"/>
      </g>
    </g>
  </g>
</svg>
