<svg xmlns="http://www.w3.org/2000/svg" height="512" width="512"><defs><clipPath id="a"><rect fill-opacity=".67" height="512" width="512"/></clipPath></defs><g fill-rule="evenodd" clip-path="url(#a)"><rect height="595.94" width="592.45" y="-24.954" x="-26.003" fill="#fff"/><rect height="275.22" width="312.09" y="-20.417" x="255.34" fill="#db0000"/><rect height="316.17" width="309.82" y="254.81" x="-54.446" fill="#0000ab"/><path d="M178.98 181.59l-46.477-29.211-46.249 29.498 17.201-47.936-46.164-29.6 57.113-.413 17.715-47.79 18.094 47.68 57.113.063-45.927 29.879 17.581 47.83z" fill="#0000ab"/><path d="M435.24 449.04l-46.477-29.211-46.249 29.498 17.201-47.936-46.164-29.6 57.113-.413 17.715-47.79 18.094 47.68 57.113.063-45.927 29.879 17.581 47.83z" fill="#d80000"/></g></svg>