<svg xmlns="http://www.w3.org/2000/svg" id="flag-icon-css-pf" width="512" height="512">
  <defs>
    <clipPath id="a">
      <path fill-opacity=".67" d="M0 0h512v512H0z"/>
    </clipPath>
  </defs>
  <g clip-path="url(#a)">
    <path fill="#fff" d="M0 0h512v512H0z" style="width:0"/>
    <path fill="#083d9c" fill-rule="evenodd" stroke="#083d9c" stroke-width="2pt" d="M210.43 363.47s11.56-9.37 22.81-9.37 14.38 7.8 22.19 8.43c7.81.63 14.37-7.81 24.06-8.12 9.69-.31 21.88 6.87 21.88 6.87l-42.5 12.82-48.44-10.63zm-24.37-13.75l144.37.63s-12.5-13.44-27.19-13.75c-14.68-.32-10.62 6.25-21.87 7.18-11.25.94-14.07-6.87-24.38-6.56-10.3.31-16.25 6.56-24.06 6.88-7.81.3-17.81-7.82-23.75-7.5-5.94.3-27.19 9.37-27.19 9.37l4.07 3.75zm-18.44-17.19l178.12.63c2.81-4.07-8.75-13.75-19.37-14.7-8.76.32-15 9.07-22.2 9.38-7.18.32-15.3-9.06-23.43-8.74-8.12.3-16.56 8.75-24.69 8.75-8.12 0-14.06-9.07-24.37-9.07s-15 10-22.81 9.38c-7.82-.63-14.7-10-22.2-10s-20 11.25-22.49 10.62c-2.5-.62 3.12 4.69 3.44 3.75z"/>
    <path fill="red" fill-rule="evenodd" stroke="#000" stroke-linejoin="round" stroke-width="2.5" d="M236.06 233.47L277 244.41v-58.44c-18.75.94-34.38-35.62-1.25-38.12-32.5-4.7-36.25 3.75-40 12.8l.31 72.82z"/>
    <path fill="#083d9c" fill-rule="evenodd" stroke="#083d9c" stroke-linecap="round" stroke-width="5" d="M210.12 275.97l92.5.31"/>
    <path fill="none" stroke="#000" stroke-linecap="round" stroke-width="4" d="M214.5 253.78l10.94 14.69m-10.94.01l11.88-14.37m-5.62-1.27l-.31 9.06m11.55-8.12l10.94 14.69m-10.94.01l11.88-14.37m-5.62-1.27l-.31 9.06m11.86-8.12l10.94 14.69m-10.94.01l11.88-14.37m-5.62-1.27l-.31 9.06m12.49-8.12l10.94 14.69m-10.94.01l11.87-14.37m-5.61-1.27l-.31 9.06m11.86-8.12L297 268.47m-10.94.01l11.88-14.37m-5.62-1.27l-.31 9.06"/>
    <path fill="#ef7d08" fill-rule="evenodd" d="M147.93 276.91l39.37.31v-24.68l-45-2.19 5.63 26.56zm-1.87-34.06l41.88 4.06-.32-17.5-40.93-16.25-.63 29.69zm8.44-35l32.19 15.62 4.6-4.8s-2.97-2.03-2.82-3.91c.06-1.9 2.98-2.19 3.03-4.25.06-1.9-3.3-2.12-3.34-4.02-.22-2.06 2.59-4.27 2.59-4.27l-29.06-25.3-7.19 30.93zm211.24 69.37h-41.56l-.31-24.06 45.62-3.44-3.75 27.5zm-41.25-29.69l49.38-5.94-10.63-28.43-39.06 16.56.31 17.81zm35.94-42.18L324.8 224.1c-.52-2.03-.96-3.99-3.43-5.63 0 0 2.19-1.25 2.19-3.43 0-2.19-2.82-2.5-2.82-3.75s2.58-2.35 2.74-5.16c-.31-1.95-2.74-4.68-2.27-5.23l27.66-21.17 11.56 25.62zm-77.18 41.71l17.81-.78.31-7.19-18.12 7.97zm-54.38-.54l-18.75-.55v-7.5l18.75 8.05zm-.08-2.19l-18.67-9.61v-12.5s-2.19.31-1.88-2.19c.1-5.2 13.73 9.5 20.7 14.3l-.15 10zm54.45-1.17l-.08-8.12s16.88-15.24 20.47-18.05c0 3.12-1.95 5.55-1.95 5.55v11.87l-18.44 8.75zm-109.37-68.44c.31.31 18.93 21 18.93 21 .52-1.95 4.82-2.25 9.2-1.94 4.37.31 7.86-.3 7.86 2.84 0 3.12-2.22 2.68-2.22 4.86s3.32 2 3.32 4.82c0 2.81-2.4 2.24-2.42 4.41 0 1.8 2.51 1.9 2.51 1.9l17.74 17.19.08-18.36-36.56-57.35-18.44 20.63zm29.26-21.71c.28.83 24.76 50.64 24.76 50.64s.28-46.74 4.46-49.25l-6.96-12.8-22.26 11.41zm107.68 1.95l-27.65 49.33.03-20.8s2.3-3.49-1.32-3.2c-3.62.27-8.07-.29-8.07-.29l11.13-38.95 25.88 13.9zm28.38 21.14c-.28.56-18.65 19.24-18.65 19.24-.84-2.22-6.4-1.15-11.68-1.15-5.29 0-6.02 1.7-5.74 3.08.55 3.62 2.34.95 2.34 4.3 0 3.33-2.57 2.11-2.8 4.56.25 2.8 4.03 2.11 1.82 4.24L283.2 230.8l.06-19.36 39.51-61.5 16.42 26.16z"/>
    <path fill="red" fill-rule="evenodd" stroke="#000" stroke-linejoin="round" stroke-width="2.5" d="M245.14 286.29c-8.9 14.75-32.7 10.37-38.27.08-1.67-.47-.69-63.52-.69-63.52s-2.66-1.21-2.78-3.15c-.12-1.96 3.62-2.14 3.62-4.64 0-2.5-3.82-1.53-3.9-4.05.02-2.4 4.08-2.08 3.9-4.3-.22-2.51-4.55-2.14-4.73-4.46-.14-1.83 3.1-3.44 4-4.26-.59.03-3.01-.04-3.03-.05l-6.82.14c-4.84 0 .09 1.06.02 3.85-.05 1.83-2.46 3.04-2.68 4.63-.07 1.63 3.46 2.78 3.5 4.73.04 1.75-3.47 1.87-3.34 3.49.22 2.74 3.1 3.35 3.06 5-.04 1.67-3.88 2.3-3.9 3.62.14 2.57.56 64.84.56 64.84 6.13 31.72 41.46 39.79 51.48-1.95zm23.3 0c8.9 14.75 32.7 10.37 38.27.08 1.67-.47.69-63.52.69-63.52s2.66-1.21 2.78-3.15c.12-1.96-3.38-2.14-3.38-4.64 0-2.5 3.58-1.53 3.66-4.05-.02-2.4-3.77-2.23-3.59-4.46.22-2.5 3.16-2.22 3.33-4.53.14-2-1.85-3.2-2.75-4.03.58.03 2.85-.04 2.87-.05l6.81.14c4.85 0-.08 1.06 0 3.85.04 1.83 2.45 3.04 2.66 4.63.08 1.63-3.45 2.78-3.5 4.73-.03 1.75 3.47 1.87 3.35 3.49-.22 2.74-3.1 3.34-3.06 5 .04 1.67 3.88 2.3 3.9 3.62-.14 2.56-.56 64.84-.56 64.84-6.13 31.72-41.46 39.79-51.48-1.95z"/>
    <path fill="#083d9c" fill-rule="evenodd" stroke="#083d9c" stroke-width="2pt" d="M236.49 315.3l39.76-.02c.31-.32-8.9-13.74-19.87-12.79-12.23.32-20.53 12.81-19.89 12.81zm126.79-.97h-54.4s7.03-4.16 8.95-8c3.52 1.92 2.56 3.84 9.6 4.16 7.04.32 13.76-8 20.49-7.68 6.72.32 15.36 11.84 15.36 11.52zm-214.41 0h54.4s-7.03-4.16-8.95-8c-3.52 1.92-2.56 3.84-9.6 4.16-7.04.32-13.76-8-20.49-7.68-6.72.32-15.36 11.84-15.36 11.52zm4.06-17.11l38.75.31s-2.5-5.31-2.81-11.87c-10-3.44-18.13 7.5-25.32 7.81-7.18.31-14.68-7.81-14.68-7.81l4.06 11.56zm206.88 0l-38.75.31s2.5-5.31 2.81-11.87c10-3.44 18.13 7.5 25.32 7.81 7.18.31 14.68-7.81 14.68-7.81l-4.06 11.56zm-113.44.31l19.69-.62s.31-5.94-10-5.94-9.38 6.87-9.69 6.56zm-11.88-8.43c3.44-1.88 6.56-3.75 8.75-8.13l-13.44.32s-6.24 3.75-9.37 7.81h14.06zm43.44 0c-3.44-1.88-6.56-3.75-8.75-8.13l13.44.32s6.25 3.75 9.37 7.81h-14.06z"/>
    <path fill="#de2010" fill-rule="evenodd" d="M-128 384h768v128h-768zm0-384h768v128h-768z"/>
  </g>
</svg>
