<?xml version="1.0" encoding="UTF-8" standalone="no"?>
<svg id="svg548" xmlns:rdf="http://www.w3.org/1999/02/22-rdf-syntax-ns#" xmlns="http://www.w3.org/2000/svg" height="512" width="512" version="1.1" xmlns:cc="http://creativecommons.org/ns#" xmlns:dc="http://purl.org/dc/elements/1.1/">
 <metadata id="metadata3629">
  <rdf:RDF>
   <cc:Work rdf:about="">
  <dc:format>image/svg+xml</dc:format>
  <dc:type rdf:resource="http://purl.org/dc/dcmitype/StillImage"/>
   </cc:Work>
  </rdf:RDF>
 </metadata>
 <defs id="defs550">
  <clipPath id="clipPath4144" clipPathUnits="userSpaceOnUse">
   <rect id="rect4146" fill-opacity="0.67" height="512" width="512" y="0" x="0"/>
  </clipPath>
 </defs>
 <g id="flag" clip-path="url(#clipPath4144)">
  <rect id="rect3145" style="width:0" height="512" width="512" y="0" x="0" fill="#fff"/>
  <path id="path560" d="m210.43 363.47s11.562-9.3738 22.812-9.3738 14.375 7.8111 22.188 8.4356c7.8122 0.62547 14.373-7.8122 24.062-8.1239 9.6876-0.3117 21.875 6.874 21.875 6.874l-42.499 12.814-48.438-10.626z" fill-rule="evenodd" stroke="#083d9c" stroke-width="2pt" fill="#083d9c"/>
  <path id="path561" d="m186.06 349.72 144.37 0.62547s-12.499-13.437-27.187-13.749c-14.687-0.3148-10.624 6.2495-21.874 7.1857-11.249 0.9382-14.064-6.874-24.376-6.5623-10.311 0.3117-16.25 6.5623-24.061 6.876-7.8122 0.31171-17.812-7.8142-23.75-7.4994-5.9378 0.31171-27.187 9.3738-27.187 9.3738l4.0624 3.7497z" fill-rule="evenodd" stroke="#083d9c" stroke-width="2pt" fill="#083d9c"/>
  <path id="path562" d="m167.62 332.53 178.12 0.62651c2.8115-4.0625-8.7504-13.75-19.374-14.688-8.7524 0.3117-15 9.0621-22.188 9.3758-7.1877 0.31171-15.312-9.0641-23.438-8.7493-8.1239 0.3117-16.562 8.7493-24.687 8.7493-8.1239 0-14.062-9.0641-24.374-9.0641s-15 10-22.812 9.3758c-7.8142-0.62547-14.688-9.9993-22.188-9.9993-7.4994 0-20 11.249-22.499 10.624-2.4998-0.62443 3.1232 4.6879 3.438 3.7497z" fill-rule="evenodd" stroke="#083d9c" stroke-width="2pt" fill="#083d9c"/>
  <path id="path563" stroke-linejoin="round" d="m236.06 233.47 40.938 10.938v-58.438c-18.751 0.93821-34.374-35.624-1.2499-38.124-32.5-4.6879-36.25 3.7497-40 12.812l0.3117 72.811z" fill-rule="evenodd" stroke="#000" stroke-width="2.5" fill="#f00"/>
  <path id="path564" d="m210.12 275.97 92.499 0.3117" fill-rule="evenodd" stroke="#083d9c" stroke-linecap="round" stroke-width="4.9999" fill="#083d9c"/>
  <g id="g570" transform="matrix(2 0 0 2 -128 -.000044044)" stroke="#000" stroke-linecap="round" stroke-width="2" fill="none">
   <path id="path565" d="m171.25 126.89 5.469 7.344"/>
   <path id="path566" d="m171.25 134.24 5.938-7.187"/>
   <path id="path567" d="m174.38 126.42-0.156 4.531"/>
  </g>
  <g id="g574" transform="matrix(2 0 0 2 -110.5 -.000044044)" stroke="#000" stroke-linecap="round" stroke-width="2" fill="none">
   <path id="path575" d="m171.25 126.89 5.469 7.344"/>
   <path id="path576" d="m171.25 134.24 5.938-7.187"/>
   <path id="path577" d="m174.38 126.42-0.156 4.531"/>
  </g>
  <g id="g578" transform="matrix(2 0 0 2 -92.688 -.000044044)" stroke="#000" stroke-linecap="round" stroke-width="2" fill="none">
   <path id="path579" d="m171.25 126.89 5.469 7.344"/>
   <path id="path580" d="m171.25 134.24 5.938-7.187"/>
   <path id="path581" d="m174.38 126.42-0.156 4.531"/>
  </g>
  <g id="g582" transform="matrix(2 0 0 2 -74.251 -.000044044)" stroke="#000" stroke-linecap="round" stroke-width="2" fill="none">
   <path id="path583" d="m171.25 126.89 5.469 7.344"/>
   <path id="path584" d="m171.25 134.24 5.938-7.187"/>
   <path id="path585" d="m174.38 126.42-0.156 4.531"/>
  </g>
  <g id="g586" transform="matrix(2 0 0 2 -56.439 -.000044044)" stroke="#000" stroke-linecap="round" stroke-width="2" fill="none">
   <path id="path587" d="m171.25 126.89 5.469 7.344"/>
   <path id="path588" d="m171.25 134.24 5.938-7.187"/>
   <path id="path589" d="m174.38 126.42-0.156 4.531"/>
  </g>
  <path id="path590" d="m147.93 276.91 39.374 0.31273v-24.687l-45-2.186 5.6261 26.561z" fill-rule="evenodd" fill="#ef7d08"/>
  <path id="path591" d="m146.06 242.85 41.875 4.0625-0.31171-17.5-40.937-16.25-0.6265 29.687z" fill-rule="evenodd" fill="#ef7d08"/>
  <path id="path592" d="m154.5 207.85 32.188 15.624 4.5961-4.7984s-2.9601-2.0395-2.8136-3.9159c0.0557-1.8981 2.9777-2.186 3.0334-4.2462 0.0537-1.8981-3.31-2.1262-3.3462-4.0253-0.21984-2.0581 2.5927-4.2648 2.5927-4.2648l-29.062-25.312-7.1888 30.938z" fill-rule="evenodd" fill="#ef7d08"/>
  <path id="path593" d="m365.74 277.22h-41.562l-0.3117-24.062 45.623-3.438-3.7497 27.5z" fill-rule="evenodd" fill="#ef7d08"/>
  <path id="path594" d="m324.49 247.53 49.376-5.9358-10.626-28.437-39.062 16.562 0.3117 17.811z" fill-rule="evenodd" fill="#ef7d08"/>
  <path id="path595" d="m360.43 205.35-35.625 18.75c-0.5202-2.0323-0.96195-3.9861-3.436-5.6261 0 0 2.186-1.2499 2.186-3.438 0-2.186-2.8126-2.4998-2.8126-3.7497s2.5783-2.3419 2.7341-5.1555c-0.31171-1.9528-2.7341-4.6859-2.2655-5.2339l27.657-21.172 11.562 25.626z" fill-rule="evenodd" fill="#ef7d08"/>
  <path id="path596" d="m283.25 247.06 17.811-0.78029 0.3117-7.1898-18.123 7.9701z" fill-rule="evenodd" fill="#ef7d08"/>
  <path id="path597" d="m228.87 246.52-18.75-0.546v-7.5005l18.75 8.0465z" fill-rule="evenodd" fill="#ef7d08"/>
  <path id="path598" d="m228.79 244.33-18.672-9.6101v-12.499s-2.1881 0.31171-1.8754-2.1881c0.10321-5.2081 13.723 9.5059 20.703 14.297l-0.15585 10z" fill-rule="evenodd" fill="#ef7d08"/>
  <path id="path599" d="m283.24 243.16-0.0764-8.1239s16.872-15.233 20.466-18.047c0 3.1253-1.9518 5.5456-1.9518 5.5456v11.876l-18.438 8.7493z" fill-rule="evenodd" fill="#ef7d08"/>
  <path id="path600" d="m173.87 174.72c0.3117 0.31273 18.933 21.009 18.933 21.009 0.52226-1.961 4.8159-2.2593 9.1901-1.9466 4.3762 0.3117 7.8638-0.29312 7.8638 2.8322 0 3.1242-2.2201 2.6804-2.2201 4.8686 0 2.1881 3.3266 2.0044 3.3266 4.8138 0 2.8126-2.4121 2.2387-2.4245 4.4165-0.007 1.8 2.5163 1.896 2.5163 1.896l17.734 17.188 0.0774-18.361-36.561-57.342-18.436 20.625z" fill-rule="evenodd" fill="#ef7d08"/>
  <path id="path601" d="m203.13 153.01c0.27765 0.83396 24.764 50.642 24.764 50.642s0.27765-46.747 4.4516-49.251l-6.9555-12.8-22.26 11.409z" fill-rule="evenodd" fill="#ef7d08"/>
  <path id="path602" d="m310.81 154.96-27.651 49.328 0.0361-20.79s2.2934-3.4958-1.3242-3.2171c-3.6166 0.27764-8.0682-0.27868-8.0682-0.27868l11.129-38.956 25.878 13.913z" fill-rule="evenodd" fill="#ef7d08"/>
  <path id="path603" d="m339.19 176.1c-0.27867 0.55632-18.654 19.243-18.654 19.243-0.83396-2.2253-6.3899-1.157-11.676-1.157-5.2876 0-6.0235 1.6948-5.7438 3.0861 0.55631 3.6176 2.3419 0.95162 2.3419 4.2916 0 3.3379-2.5721 2.12-2.8022 4.5641 0.25596 2.8074 4.0387 2.1138 1.8227 4.241l-21.278 20.426 0.0599-19.356 39.512-61.495 16.418 26.156z" fill-rule="evenodd" fill="#ef7d08"/>
  <path id="path604" stroke-linejoin="round" d="m245.14 286.29c-8.9042 14.748-32.708 10.374-38.274 0.0784-1.6679-0.47272-0.68121-63.521-0.68121-63.521s-2.6598-1.2117-2.7826-3.15c-0.12179-1.958 3.6166-2.1355 3.6166-4.6415 0-2.5039-3.8178-1.5224-3.8942-4.0428 0.0165-2.41 4.0759-2.0777 3.8942-4.305-0.21468-2.5101-4.5465-2.1386-4.7302-4.4526-0.14037-1.8382 3.0984-3.4411 3.9985-4.2678-0.58212 0.0289-3.0086-0.0361-3.0241-0.0444-2.2728 0.0464-4.5465 0.0929-6.8182 0.13934-4.8438 0.005 0.0836 1.0559 0.0124 3.8509-0.0444 1.8258-2.4565 3.0406-2.6722 4.6281-0.0764 1.6297 3.4514 2.7744 3.4958 4.7302 0.0403 1.7453-3.4659 1.864-3.34 3.4855 0.21778 2.7444 3.1057 3.3482 3.0623 5.0099-0.0444 1.6597-3.886 2.2924-3.8963 3.6166 0.13418 2.5617 0.55632 64.833 0.55632 64.833 6.1216 31.721 41.46 39.791 51.477-1.9466z" fill-rule="evenodd" stroke="#000" stroke-width="2.5" fill="#f00"/>
  <path id="path606" stroke-linejoin="round" d="m268.44 286.29c8.9042 14.748 32.707 10.374 38.273 0.0784 1.6679-0.47272 0.68224-63.521 0.68224-63.521s2.6598-1.2117 2.7816-3.15c0.12179-1.958-3.3823-2.1355-3.3823-4.6415 0-2.5039 3.5846-1.5224 3.6599-4.0428-0.0155-2.41-3.7631-2.2335-3.5815-4.4619 0.21365-2.5091 3.1562-2.216 3.3234-4.53 0.14037-1.993-1.8475-3.2068-2.7475-4.0336 0.58212 0.0289 2.8518-0.0361 2.8683-0.0444 2.2717 0.0464 4.5455 0.0929 6.8172 0.13934 4.8448 0.005-0.0836 1.0559-0.0114 3.8509 0.0433 1.8258 2.4554 3.0406 2.6722 4.6281 0.0754 1.6297-3.4525 2.7744-3.4968 4.7302-0.0392 1.7453 3.4669 1.864 3.34 3.4855-0.21778 2.7444-3.1057 3.3482-3.0613 5.0099 0.0433 1.6597 3.886 2.2924 3.8952 3.6166-0.13315 2.5617-0.55529 64.833-0.55529 64.833-6.1226 31.721-41.46 39.791-51.477-1.9466z" fill-rule="evenodd" stroke="#000" stroke-width="2.5" fill="#f00"/>
  <path id="path610" d="m236.49 315.3 39.762-0.0237c0.30964-0.31273-8.9021-13.732-19.875-12.786-12.223 0.31996-20.527 12.81-19.887 12.81z" fill-rule="evenodd" stroke="#083d9c" stroke-width="2pt" fill="#083d9c"/>
  <path id="path611" d="m363.28 314.33h-54.409s7.0422-4.1615 8.962-8.0021c3.5196 1.9208 2.5597 3.8406 9.6019 4.1605 7.0402 0.31996 13.761-8 20.484-7.6801 6.7202 0.31996 15.361 11.842 15.361 11.522z" fill-rule="evenodd" stroke="#083d9c" stroke-width="2pt" fill="#083d9c"/>
  <path id="path612" d="m148.87 314.33h54.409s-7.0422-4.1615-8.962-8.0021c-3.5196 1.9208-2.5597 3.8406-9.6019 4.1605-7.0391 0.31996-13.761-8-20.484-7.6801-6.7202 0.31996-15.361 11.842-15.361 11.522z" fill-rule="evenodd" stroke="#083d9c" stroke-width="2pt" fill="#083d9c"/>
  <path id="path613" d="m152.93 297.22 38.749 0.3117s-2.4998-5.3113-2.8115-11.874c-10.002-3.436-18.126 7.4994-25.314 7.8122-7.1857 0.3117-14.685-7.8122-14.685-7.8122l4.0614 11.562z" fill-rule="evenodd" stroke="#083d9c" stroke-width="2pt" fill="#083d9c"/>
  <path id="path614" d="m359.81 297.22-38.75 0.3117s2.5008-5.3113 2.8126-11.874c10.001-3.436 18.125 7.4994 25.313 7.8122 7.1867 0.3117 14.686-7.8122 14.686-7.8122l-4.0614 11.562z" fill-rule="evenodd" stroke="#083d9c" stroke-width="2pt" fill="#083d9c"/>
  <path id="path615" d="m246.37 297.53 19.686-0.6234s0.31377-5.9378-9.9992-5.9378c-10.312 0-9.3738 6.875-9.6865 6.5612z" fill-rule="evenodd" stroke="#083d9c" stroke-width="2pt" fill="#083d9c"/>
  <path id="path616" d="m234.49 289.1c3.438-1.8764 6.5623-3.7497 8.7504-8.1259l-13.438 0.31171s-6.2475 3.7518-9.3738 7.8142h14.062z" fill-rule="evenodd" stroke="#083d9c" stroke-width="2pt" fill="#083d9c"/>
  <path id="path617" d="m277.93 289.1c-3.438-1.8764-6.5612-3.7497-8.7494-8.1259l13.437 0.31171s6.2485 3.7518 9.3738 7.8142h-14.062z" fill-rule="evenodd" stroke="#083d9c" stroke-width="2pt" fill="#083d9c"/>
  <rect id="rect618" fill-rule="evenodd" height="128" width="768" y="384" x="-128" stroke-width="1pt" fill="#de2010"/>
  <rect id="rect619" fill-rule="evenodd" height="128" width="768" y="-.000011781" x="-128" stroke-width="1pt" fill="#de2010"/>
 </g>
</svg>
