<svg xmlns="http://www.w3.org/2000/svg" height="512" width="512">
  <g clip-path="url(#a)">
    <g fill-rule="evenodd">
      <path d="M-83.469 0l-.531 511.984h680.206l-679.679-511.984z"/>
      <path d="M595.675 511.983l.531-511.934h-680.14l679.613 511.934z" fill="#f00"/>
    </g>
    <g>
      <path d="M335.902 127.386l-9.059-.472c-2.784-6.558-10.646-9.019-15.482-6.259-4.388.377-27.364-.347-27.364-.347l16.796 7.36c4.152 11.229 18.589 13.871 18.589 13.871-1.281 20.7-20.95-2.671-37.463 9.124-11.795 7.077-11.934 15.529-18.308 29.183-1.982 3.796-10.285 13.59-10.285 13.59l13.871-1.179-4.435 5.897 16.513-2.359s-2.217 1.851-3.538 3.255c2.446.478 18.872-3.845 18.872-3.845l-1.179 5.308c8.422-3.373 18.872-6.794 18.872-6.794s3.704 3.09 7.077 4.435l2.359-9.436 9.436 2.359 2.359-9.436c14.154 18.872 18.872 37.744 44.821 42.462l-2.359-9.436c7.219 3.09 20.618 9.648 20.618 9.648l2.029-4.317c11.252 8.068 20.594 7.926 26.893 8.823 0 0-4.694-11.748-4.718-11.795.307.118 4.694 2.383 4.718 2.359l-7.077-18.872 7.077 2.359-9.436-14.154 3.538-2.359-1.179-7.077c14.154 4.718 33.026 11.795 35.385 28.308 2.359 25.949-25.949 33.026-44.821 30.667 14.154 11.795 40.103 7.077 51.898-4.718 4.718-4.718 7.077-11.795 9.436-18.872 2.359 7.077 7.077 16.513 7.077 25.949-2.359 21.231-30.667 28.308-49.539 30.667 21.231 11.795 58.975-2.359 61.334-33.026 0-25.949-16.513-37.744-23.59-49.539-1.062-4.293-2.359-12.691-2.359-12.691.915.27 7.077 3.279 7.077 3.279s-4.175-7.808-4.718-9.46c0 0-7.36-20.052-10.026-24.486.439-.248 5.308.826 5.308.826l-19.32-24.227s4.661-.424 5.473-.566c0 0-22.458-17.716-28.615-19.957l7.077-2.359c-14.154-7.077-30.667-2.359-44.821 7.077l2.359-7.077-4.317.401v-8.091l4.317-6.464-7.077-2.359 4.718-11.795-7.077 2.359 2.359-11.795s-5.284 2.453-8.492 2.1c.118.259 3.751-8.068 3.751-8.068-2.241-3.515.024-10.545.024-10.545-16.513 2.359-18.872 4.718-28.308 18.872-14.154 25.949-9.436 37.744-7.077 63.693z" stroke="#fc0" fill="#fc0" stroke-width="2.359"/>
      <path d="M425.025 166.163c1.229 2.027 14.619 8.478 24.694 14.191-2.703-10.873-22.361-13.269-24.694-14.191z" fill-rule="evenodd" stroke="#f00" stroke-width="NaN" fill="#f00"/>
      <path fill="#fff" fill-rule="evenodd" d="M100.696 425.564l-15.003-9.578-20.139 9.648 4.466-17.221-15.395-16.183 17.766-1.085 10.623-19.627 6.511 16.56 21.962 4.034-13.739 11.323z"/>
      <path fill="#fff" fill-rule="evenodd" d="M139.202 341.371l-6.961-3.326-6.69 3.845 1.019-7.667-5.725-5.166 7.589-1.392 3.152-7.053 3.673 6.794 7.674.826-5.32 5.591z"/>
      <path fill="#fff" fill-rule="evenodd" d="M173.131 293.082l-15.263-7.454-14.796 8.351 2.361-16.82-12.524-11.488 16.732-2.949 7.046-15.451 7.997 15.003 16.867 1.934-11.795 12.22z"/>
      <path fill="#fff" fill-rule="evenodd" d="M103.307 225.851l-17.98-9.009-17.612 9.703 3.012-19.882-14.673-13.753 19.842-3.279 8.547-18.204 9.25 17.858 19.952 2.503-14.123 14.314z"/>
      <path fill="#fff" fill-rule="evenodd" d="M38.695 295.677l-18.131-10.757-18.082 10.993 4.635-20.57-16.058-13.777 20.997-1.958 8.157-19.533 8.341 19.367 21.099 1.722-15.841 13.918z"/>
    </g>
  </g>
</svg>
