<svg xmlns="http://www.w3.org/2000/svg" height="512" width="512"><defs><clipPath id="a"><rect fill-opacity=".67" height="496.06" width="496.06" x="81.385"/></clipPath></defs><g clip-path="url(#a)" transform="matrix(1.032 0 0 1.032 -84 0)"><g fill-rule="evenodd"><path d="M.514 0l-.514 496.06h659.05l-658.54-496.06z"/><path d="M658.536 496.06l.514-496.06h-659.05l658.54 496.06z" fill="#f00"/></g><g transform="scale(2.286 2.286)"><path d="M178 54l-3.84-.2c-1.18-2.78-4.513-3.823-6.563-2.653-1.86.16-11.6-.147-11.6-.147l7.12 3.12c1.76 4.76 7.88 5.88 7.88 5.88-.543 8.775-8.881-1.132-15.881 3.868-5 3-5.059 6.583-7.761 12.371-.84 1.609-4.36 5.761-4.36 5.761l5.88-.5-1.88 2.5 7-1s-.94.785-1.5 1.38c1.037.203 8-1.63 8-1.63l-.5 2.25c3.57-1.43 8-2.88 8-2.88s1.57 1.31 3 1.88l1-4 4 1 1-4c6 8 8 16 19 18l-1-4c3.06 1.31 8.74 4.09 8.74 4.09l.86-1.83c4.77 3.42 8.73 3.36 11.4 3.74 0 0-1.99-4.98-2-5l2 1-3-8 3 1-4-6 1.5-1-.5-3c6 2 14 5 15 12 1 11-11 14-19 13 6 5 17 3 22-2 2-2 3-5 4-8 1 3 3 7 3 11-1 9-13 12-21 13 9 5 25-1 26-14 0-11-7-16-10-21-.45-1.82-1-5.38-1-5.38.388.114 3 1.39 3 1.39s-1.77-3.31-2-4.01c0 0-3.12-8.5-4.25-10.38.186-.105 2.25.35 2.25.35l-8.19-10.27s1.976-.18 2.32-.24c0 0-9.52-7.51-12.13-8.46l3-1c-6-3-13-1-19 3l1-3-1.83.17v-3.43l1.83-2.74-3-1 2-5-3 1 1-5s-2.24 1.04-3.6.89c.05.11 1.59-3.42 1.59-3.42-.95-1.49.01-4.47.01-4.47-7 1-8 2-12 8-6 11-4 16-3 27z" stroke="#fc0" fill="#fc0"/><path d="M215.78 70.438c.521.859 6.197 3.594 10.468 6.016-1.146-4.609-9.479-5.625-10.468-6.016z" fill-rule="evenodd" stroke="#f00" stroke-width="1pt" fill="#f00"/><polygon fill="#fff" fill-rule="evenodd" points="78.294 180.4 71.934 176.34 63.397 180.43 65.29 173.13 58.764 166.27 66.295 165.81 70.798 157.49 73.558 164.51 82.868 166.22 77.044 171.02"/><polygon fill="#fff" fill-rule="evenodd" points="94.617 144.71 91.666 143.3 88.83 144.93 89.262 141.68 86.835 139.49 90.052 138.9 91.388 135.91 92.945 138.79 96.198 139.14 93.943 141.51"/><polygon fill="#fff" fill-rule="evenodd" points="109 124.24 102.53 121.08 96.258 124.62 97.259 117.49 91.95 112.62 99.043 111.37 102.03 104.82 105.42 111.18 112.57 112 107.57 117.18"/><polygon fill="#fff" fill-rule="evenodd" points="79.401 95.74 71.779 91.921 64.313 96.034 65.59 87.606 59.37 81.776 67.781 80.386 71.404 72.669 75.325 80.239 83.783 81.3 77.796 87.368"/><polygon fill="#fff" fill-rule="evenodd" transform="translate(1.107)" points="50.905 125.34 43.219 120.78 35.554 125.44 37.519 116.72 30.712 110.88 39.613 110.05 43.071 101.77 46.607 109.98 55.551 110.71 48.836 116.61"/></g></g></svg>