<svg xmlns="http://www.w3.org/2000/svg" xmlns:xlink="http://www.w3.org/1999/xlink" id="flag-icon-css-ph" width="512" height="512">
 <path d="M0 0h512v256H0z" fill="#0038a8"/>
 <path d="M0 256h512v256H0z" fill="#ce1126"/>
 <path d="M443.4 256L0 512V0" fill="#fff"/>
 <g fill="#fcd116">
  <g stroke-width="1.1376">
   <path d="m25.233 44.375 15.409 13.316 17.841-9.8214-7.9027 18.77 14.854 13.933-20.294-1.7157-8.6608 18.433-4.6393-19.831-20.206-2.5411 17.426-10.54z"/>
   <path d="m372.13 228.95 0.41494 20.362 19.237 6.6867-19.237 6.6866-0.41494 20.362-12.304-16.229-19.493 5.8975 11.632-16.717-11.632-16.717 19.493 5.8974z"/>
   <path d="m36.48 414.71 8.6608 18.433 20.294-1.7157-14.854 13.933 7.9027 18.77-17.841-9.8214-15.409 13.316 3.8275-20.002-17.426-10.54 20.206-2.5411z"/>
  </g>
  <path d="m158.9 147.93-6.6464 6.6464 3.2962 50.341c-1.1207 0.0722-2.23 0.18088-3.33 0.32422l-6.0521-45.938-5.4239 5.4239 8.1662 41.061c-6.7173 1.3292-12.961 3.968-18.453 7.6461l-23.256-34.806h-7.6731l28.207 36.765c-0.88506 0.6804-1.7424 1.3921-2.5803 2.1277l-33.273-37.94h-9.4023v9.4023l37.94 33.273c-0.73637 0.83899-1.4466 1.7008-2.1277 2.5869l-36.765-28.214v7.6731l34.813 23.263c-3.6772 5.4918-6.324 11.731-7.6529 18.446l-41.061-8.1662-5.4239 5.4239 45.938 6.0521c-0.14334 1.1001-0.25198 2.2096-0.32422 3.33l-50.341-3.2962-6.6465 6.6465 6.6465 6.6464 50.341-3.2962c0.0729 1.121 0.18088 2.2365 0.32422 3.3367l-45.938 6.0453 5.4239 5.4239 41.061-8.1662c1.3289 6.7171 3.9673 12.96 7.6461 18.453l-34.806 23.256v7.6732l36.765-28.207c0.68045 0.8854 1.3921 1.7419 2.1277 2.5803l-37.94 33.273v9.4023h9.4023l33.273-37.94c0.83921 0.73688 1.7007 1.4459 2.5869 2.1277l-28.214 36.765h7.6731l23.263-34.813c5.4903 3.6804 11.73 6.3308 18.446 7.6596l-8.1662 41.054 5.4239 5.4239 6.052-45.938c1.0995 0.14334 2.2092 0.25198 3.33 0.32422l-3.2962 50.341 6.6465 6.6465 6.6464-6.6465-3.2962-50.341c1.1207-0.0729 2.23-0.18088 3.33-0.32422l6.052 45.938 5.4239-5.4239-8.1662-41.061c6.7173-1.3292 12.961-3.9678 18.453-7.6461l23.256 34.806h7.6731l-28.207-36.765c0.88505-0.6804 1.7424-1.3921 2.5803-2.1277l33.273 37.94h9.4023v-9.4023l-37.94-33.273c0.73637-0.83899 1.4466-1.7008 2.1277-2.5869l36.765 28.214v-7.6731l-34.813-23.263c3.6772-5.4917 6.324-11.731 7.6529-18.446l41.061 8.1662 5.4239-5.4239-45.938-6.052c0.14333-1.1002 0.25198-2.2096 0.32421-3.33l50.341 3.2962 6.6465-6.6464-6.6465-6.6464-50.341 3.2962c-0.0722-1.1207-0.18088-2.23-0.32421-3.33l45.938-6.052-5.4239-5.4239-41.061 8.1662c-1.3292-6.7173-3.9677-12.961-7.6461-18.453l34.806-23.256v-7.6731l-36.765 28.207c-0.6804-0.88501-1.3921-1.7422-2.1277-2.5802l37.94-33.273v-9.4023h-9.4023l-33.273 37.94c-0.83899-0.73638-1.7007-1.4466-2.5869-2.1277l28.214-36.765h-7.6731l-23.263 34.813c-5.4917-3.6772-11.731-6.3239-18.446-7.6529l8.1662-41.061-5.4239-5.4239-6.0521 45.938c-1.1001-0.14334-2.2096-0.25198-3.33-0.32422l3.2962-50.341z" stroke-width="5.688"/>
 </g>
</svg>
