<svg xmlns="http://www.w3.org/2000/svg" height="512" width="512" version="1">
  <g fill-rule="evenodd" clip-path="url(#a)" transform="matrix(.722 0 0 .722 -139 0)">
    <path fill="#f50013" d="M0 0h1063v708.66h-1063z"/>
    <path fill="#00189a" d="M0 0h1063v354.33h-1063z"/>
    <path d="M0 0l609.96 353.88-609.96 353.42v-707.3z" fill="#feffff"/>
    <path d="M28.931 645.329l6.217-27.298-24.515-13.546 28.495-3.558 6.482-27.251 11.394 25.103 28.519-3.297-21.454 19.071 11.145 25.213-24.652-13.316-21.632 18.879z" fill="#eca300"/>
    <path d="M158.639 293.065l-21.889-37.586-12.588-1.425 29.972 42.563 4.505-3.551zm-16.991 17.221l-46.024-35.412-1.649-20.616 18.611-.629 38.048 46.533-8.987 10.124zm-6.989 8.098l-37.878-21.38-1.595-12.568 42.964 29.395-3.49 4.553z" fill="#eca300"/>
    <path d="M212.808 285.338l11.425-41.969-7.816-9.97-9.3 51.22 5.691.719zm-24.192-.024l-7.058-57.64 13.534-15.64 13.506 12.82-6.462 59.76-13.52.7zm-10.674.701l-11.341-41.991 7.836-9.954 9.198 51.238-5.693.707z" fill="#eca300"/>
    <path d="M256.692 319.175l38.148-20.896 1.755-12.546-43.335 28.845 3.432 4.597zm-16.77-17.437l36.608-45.079 20.653-1.107.14 18.622-47.515 36.814-9.885-9.25zm-7.912-7.199l22.367-37.305 12.605-1.265-30.512 42.178-4.46-3.608z" fill="#eca300"/>
    <path d="M263.477 371.766l41.963 11.447 9.974-7.811-51.215-9.327-.722 5.691zm.037-24.192l57.644-7.027 15.632 13.542-12.828 13.5-59.756-6.494-.692-13.52zm-.696-10.674l41.997-11.319 9.95 7.841-51.243 9.171-.704-5.693z" fill="#eca300"/>
    <path d="M231.529 414.531l22.055 37.489 12.594 1.37-30.16-42.43-4.489 3.571zm16.914-17.296l46.179 35.208 1.74 20.609-18.608.711-38.253-46.364 8.942-10.164zm6.953-8.128l37.972 21.213 1.651 12.56-43.093-29.205 3.47-4.568z" fill="#eca300"/>
    <path d="M177.566 422.537l-11.136 42.046 7.884 9.916 8.947-51.282-5.696-.68zm24.192-.142l7.454 57.59-13.426 15.732-13.594-12.727 6.051-59.802 13.515-.793zm10.669-.775l11.63 41.912-7.767 10.008-9.55-51.174 5.688-.746z" fill="#eca300"/>
    <path d="M133.776 389.567l-37.807 21.506-1.553 12.573 42.866-29.538-3.505-4.541zm17.048 17.165l-35.878 45.661-20.632 1.439-.44-18.617 46.917-37.573 10.032 9.09zm8.026 7.071l-21.764 37.659-12.583 1.467 29.83-42.662 4.517 3.536z" fill="#eca300"/>
    <path d="M126.298 336.473l-42.043-11.149-9.918 7.881 51.28 8.963.681-5.696zm.135 24.192l-57.592 7.436-15.728-13.43 12.731-13.59 59.801 6.07.788 13.515zm.772 10.669l-41.916 11.617-10.005-7.77 51.176-9.535.745 5.688z" fill="#eca300"/>
    <path d="M504.509 390.886l-16.226-22.816-26.43 9.27 16.32-23.628-16.014-22.982 26.315 8.215 16.531-23.473-.058 28.705 26.231 8.474-26.349 9.526-.32 28.71z" fill="#eca300"/>
    <path d="M44.531 136.038l-5.032-27.541-27.868-2.801 24.793-14.488-4.77-27.602 20.357 18.59 24.918-14.259-12.213 25.976 20.171 18.789-27.903-2.535-12.453 25.87z" fill="#eca300"/>
    <ellipse cx="190.68" rx="73.029" cy="353.88" transform="translate(4.269)" ry="73.029" fill="#eca300"/>
  </g>
</svg>
