<svg xmlns="http://www.w3.org/2000/svg" height="512" width="512" version="1" viewBox="-15 -7.5 30 15">
  <g clip-path="url(#a)">
    <path fill="#00247d" d="M-15-15h60v30h-60z"/>
    <g clip-path="url(#b)" transform="translate(0 -7.5)">
      <circle r="20" fill="#00247d"/>
      <path stroke-width="3" stroke="#fff" d="M-20-10l40 20m-40 0l40-20"/>
      <path stroke-width="2" stroke="#cf142b" d="M-20-10l40 20m-40 0l40-20"/>
      <path fill="#fff" d="M0 0l20 10h-3l-20-10m3 0l20-10h3l-20 10m-3 0l-20 10h-3l20-10m3 0l-20-10h3l20 10"/>
      <path stroke-width="5" stroke="#fff" d="M-20 0h40m-20-10v20"/>
      <path stroke-width="3" stroke="#cf142b" d="M-20 0h40m-20-10v20"/>
    </g>
    <g>
      <path d="M-.267 3.844c-.64.543-1.25 1.334-1.4 2.049-.422 2.014-.981 2.461-1.846 2.029 0 1.081.948 1.164 1.364.532 0 1.015.368 1.894 1.197 2.644.349.316.416.1.25-.249-.166-.349-.166-1.48-.499-2.129.532.383 1.314.166 1.247-.881-.682.399-1.36.384-1.43-.565-.083-1.114.352-2.731 1.117-3.43z" stroke="#000" stroke-width="0.029625" fill="#f7e017"/>
      <path d="M-1.076-4.166c.045-.4-.04-.81-.332-1.067-.564-.497-1.116-.332-1.528.068-.615-.333-.942.847-1.641.647.116.383.299.549.649.416-.366.333 0 .732-.432 1.131.782.25 1.198-.183 1.164-.931.299.266.765.25 1.015-.05-.416-.133-.418-.495-.25-.832.25-.499 1.422-.48 1.355.618z" stroke="#000" stroke-width="0.029625" fill="#f7e017"/>
      <path d="M.729 1.619c-.882.466-2.495.266-2.645-.881-.15-1.148.965-1.663 1.264-1.813.467-.233.831.183.682.665.515-.183.632-.782.382-1.131.682.05 1.314-.466 1.58-1.197-.239.228-.891.074-1.428.039.166-.183.164-.538.114-.721-.566.582-1.38.316-2.461 1.996.166-.582.482-1.746.665-2.511l.041-.23c.066-1.098-1.104-1.117-1.354-.618.273.309.13.669.032 1.214-.116.649-.366 2.145-.582 2.645-.066-.782-.582-.832-.682-1.214-.15.1-.233.366-.199.549-.183-.2-.815.05-1.048-.249-.25.499.15.998.565 1.214-.241.017-.299.308-.565.308.358.416.723.582 1.147.615s.74.191.998.707c.416.832 2 1.372 3.493.615z" stroke="#000" stroke-width="0.029625" fill="#337321"/>
      <path d="M2.924.605c-.499 1.38-1.863 2.362-2.478 2.511-1.047.255-3.183 1.292-3.756 1.825-.091-.02-.175-.053-.235-.096-.283-.2-.515-.848-.017-1.397 1.564-1.464 3.243-.832 4.291-1.829-.882.466-2.495.266-2.645-.881.948.249 2.661.266 4.025-1.197.183.2.715.832.815 1.064z" stroke="#000" stroke-width="0.029625" fill="#f7e017"/>
      <path d="M-.267 3.844c-.79.67-1.2 2.315-1.117 3.43.023.31.11.52.242.649.058-.632.498-2.265 1.621-2.994.948-.615 2.428-1.996 2.977-3.576-.1-.283-.266-.482-.582-.682-.543 1.491-2.002 2.206-3.141 3.173z" stroke="#000" stroke-width="0.029625" fill="#337321"/>
      <path d="M2.418-.036c-.283.424-.923 1.006-1.538 1.239.133-.15.175-.341.183-.499-.782.299-2.345.266-2.977.033.948.249 2.661.266 4.025-1.197.133.15.249.283.308.424z" stroke="#000" stroke-width="0.029625" fill="#316d3a"/>
      <path d="M-3.562 3.449c-1.271 1.19-.432 2.229.066 2.461-.133.832.649.732.632 1.43.316-.183.399-.665.349-1.048.399.432 1.414-.05 1.63.748.133-.881-.549-1.763-1.397-1.68.349-.316.15-.832-.183-.965-.066.649-.798.649-1.081.449-.283-.2-.515-.848-.017-1.397z" stroke="#000" stroke-width="0.029625" fill="#337321"/>
      <path d="M-.809 11.015c-.139.079-.129.258-.042.374.175.233-.123.76.441.873.167.033.294-.068.358-.258.175-.524-.382-.582-.432-.831-.05-.25-.208-.225-.324-.158z" stroke="#000" stroke-width="0.029625" fill="#f7e017"/>
      <path d="M-.336 11.997c-.187.086-.349.208-.274.807.031.248.017.848-.2.857.133.067.416.137.532-.017.112.187.366.133.466-.1.133.108.316-.075.316-.233.116.075.349-.033.291-.391.141.05.324-.05.391-.141-.208-.042-.732-.324-.857-.549-.125-.225-.449-.333-.665-.233z" stroke="#000" stroke-width="0.029625" fill="#f7e017"/>
      <g stroke="#000" stroke-width=".125" fill="none">
        <path d="M-3.217-4.824c.084-.124.177-.241.281-.342"/>
        <path d="M-.052-2.622c.147-.084.37-.093.618-.077"/>
        <path d="M-.276 13.643c-.058-.083-.079-.432-.037-.645"/>
        <path d="M.19 13.544c-.092-.071-.266-.312-.295-.524"/>
        <path d="M.504 13.312c-.117-.054-.399-.42-.462-.657"/>
        <path d="M.795 12.921c-.137-.029-.557-.304-.732-.595"/>
      </g>
      <path d="M8.464 3.465c2.046 1.713 2.179 3.077 1.863 3.875-.166-.748-1.015-1.913-1.896-2.212l.033-1.663z" stroke="#000" stroke-width="0.029625" fill="#f7e017"/>
      <g>
        <g>
          <path d="M4.804 2.501h3.792v4.49c0 3.825-2.129 6.087-4.291 7.285-2.162-1.198-4.291-3.459-4.291-7.285v-4.49h2.661c.004.233.025.582.299.931.628-.062 1.339-.532 1.829-.931z" stroke="#000" stroke-width="0.029625" fill="#337321"/>
          <path d="M8.596 2.501v4.49c0 1.155-.194 2.167-.524 3.051l-3.766-6.91-3.766 6.91c-.33-.884-.524-1.896-.524-3.051v-4.49h8.582z" stroke="#000" stroke-width="0.029625" fill="#006ec7"/>
          <path fill="#f7e017" d="M8.187 9.709c-.066.204-.187.534-.281.738l-3.6-6.691-3.6 6.691c-.093-.204-.214-.534-.281-.738l3.882-7.196 3.882 7.196z"/>
        </g>
        <g stroke="#000" stroke-width=".125" fill="#f7e017">
          <path d="M6.018 12.172l.367.176c.2-.399.233-.965.166-1.464-.216.549-.948.532-1.147.865.123.062.237.142.335.213-.25.249-.834.669-1.166.769v-3.567l-.083-.665v-.737c0-.166-.033-.407-.183-.407s-.183.241-.183.407v.737l-.083.665v3.567c-.183-.532-.899-.35-1.232-.882.13-.032.267-.041.4-.016-.249-.848-.931-.915-1.064-1.164 0 .349-.149 1.164.083 1.514.052-.063.131-.127.225-.185.283.615 1.554.617 1.854 1.632.24-.373 1.106-.805 1.712-1.456z"/>
          <path d="M4.305 9.203l1.505-.092c.084 0 .153-.126.153-.282s-.069-.282-.153-.282l-1.505-.092s-1.181.092-1.505.092c-.084 0-.153.126-.153.282s.069.282.153.282l1.505.092z"/>
          <path d="M4.123 7.741c-.06-.048-.139-.078-.225-.078-.189 0-.341.139-.341.311s.153.311.341.311c.188 0 .341-.139.341-.311 0-.133.193-.133.193 0 0 .27-.239.488-.534.488s-.535-.218-.535-.488c0-.269.239-.488.535-.488.088 0 .172.02.246.054l-.02.2z"/>
          <path d="M2.801 9.111c.084 0 .153-.126.153-.282s-.068-.282-.153-.282"/>
          <path d="M2.926 9.111c.084 0 .153-.126.153-.282s-.068-.282-.153-.282"/>
          <path d="M3.747 9.169c.102 0 .184-.152.184-.34 0-.188-.083-.34-.184-.34"/>
          <path d="M3.939 9.185c.106 0 .193-.159.193-.356 0-.196-.086-.356-.193-.356"/>
          <path d="M4.577 9.189c.108 0 .195-.161.195-.36 0-.199-.087-.36-.195-.36"/>
          <path d="M4.778 9.177c.106 0 .193-.156.193-.348 0-.192-.086-.348-.193-.348"/>
          <path d="M5.67 9.117c.086 0 .156-.129.156-.288s-.07-.288-.156-.288"/>
          <path d="M2.451 11.997c.103-.063.225-.117.356-.149"/>
          <path d="M5.836 12.03l-.098-.07"/>
          <path d="M6.018 12.172c.233-.25.427-.533.533-.856"/>
        </g>
        <g stroke="#000" stroke-width=".125">
          <path d="M3.544 5.675c0-.081.067-.116.144-.175.094-.071.131-.104.216-.104h1.092c.081 0 .1.021.1.096v1.484c0 .075-.019.096-.1.096h-1.452v-1.412" fill="#fff"/>
          <path d="M4.726 7.201c.143 0 .118-.003.218-.104.105-.105.095-.096.095-.192v-1.357c0-.07-.017-.089-.092-.089h-1.01c-.079 0-.114.031-.2.097-.072.055-.133.087-.133.163v1.482h1.122z" fill="#e5e5e5"/>
          <path d="M4.833 7.17c0 .075-.019.096-.1.096h-1.091c-.081 0-.099-.021-.099-.096v-1.484c0-.075.018-.096.099-.096h1.091c.081 0 .1.021.1.096v1.484z" fill="#fff"/>
        </g>
      </g>
      <g>
        <path d="M6.95 1.631c.213.237.283.556.167.868h-.316c.133-.399.05-.78-.516-.83-.846-.075-1.829 1.563-3.31 1.763-.432-.516-.409-1.498.14-1.963-.284-.818-.883-1.718-1.298-2.107-.272-.044-.585-.066-.788-.054.216-.466.832-.956 1.331-1.155l.249-.333c.05-.64 3.093-.341 3.742.058 0 .715.282 3.105.598 3.754z" stroke="#000" stroke-width="0.029625" fill="#96877d"/>
        <g>
          <path d="M3.26 2.067c-.072-1.109-.52-2.022-1.15-2.644.299.083.915.083 1.331-.216.549-.366 1.979-1.006 2.503-.732.042.091.066.299.033.432-.125-.333-1.505.183-1.896.341-.374.175-.54.407-.408.931-.216-.183-.141-.358-.366-.491.092.216.166.607.191.923-.083-.225-.233-.707-.557-.99.283.549.528 1.867.412 2.566.224 0 .719-.22.919-.378-.175.249-.678.424-1.002.491-.145.175-.245.624-.237.873-.025-.308.072-1.058.227-1.107z"/>
          <path d="M6.95 1.631c-.275-.307-.789-.472-1.447-.294.1-.05.316-.133.507-.166l-.208-1.106.183-.075c.091.449.208.965.283 1.173.058.017.191.042.308.1-.05-.175-.333-1.43-.324-1.563l.249-.133c.1.682.258 1.671.449 2.066z"/>
        </g>
        <g stroke="#000" stroke-width=".125" fill="#96877d">
          <path d="M6.801 2.499c.133-.399.05-.78-.516-.83-.438-.039-.914.387-1.476.83h1.992z"/>
          <path d="M3.125-1.084c-.25.033-.807-.017-1.09-.108l.083-.235c-.175.116-.507.343-.632.501.399.083 1.223.125 1.638-.158z"/>
        </g>
        <path d="M3.116 1.469c.092.265.152.521.16.749" stroke="#000" stroke-width="0.029625" fill="none"/>
        <path d="M2.361-1.848c-.151.22-.282.456-.325.656.283.091.84.141 1.09.108" stroke="#000" stroke-width="0.029625" fill="none"/>
        <path d="M1.817-.638l.293.062c.299.083.915.083 1.331-.216s1.547-1.231 2.827-1.331" stroke="#000" stroke-width="0.029625" fill="none"/>
        <path d="M1.486-.926c.399.083 1.223.125 1.638-.158.965-.657 1.896-1.039 2.827-1.089" stroke="#000" stroke-width="0.029625" fill="none"/>
      </g>
      <path d="M8.464 3.465c1.397.965 2.428 1.896 2.728 3.393.299 1.497.865 1.896 1.564 1.497-.166.865-1.031.965-1.763.299.066.998-.333 2.195-1.364 2.628-.066-.599.329-1.073.216-1.564-.05-.216-.066-.715.216-.948-.549.183-1.414-.166-1.497-.981.632.299 1.447.349 1.763-.449s.183-2.162-1.863-3.875z" stroke="#000" stroke-width="0.029625" fill="#337321"/>
      <path d="M10.226-4.318c.432-1.131 1.564-1.015 1.946-.532 1.114-.632 1.264.798 2.212.516-.017.266-.333.516-.682.499.366.333-.15.832.632 1.131-.665.333-1.597-.017-1.846-.931-.216.432-.998.432-1.314.083.682-.183.632-.815.25-1.064-.385-.251-1.064-.15-1.198.299z" stroke="#000" stroke-width="0.029625" fill="#337321"/>
      <path d="M6.853-1.828c.31 1.001.952 1.931 1.644 2.566.798.732 2.004.549 2.678-.15.017 1.393-1.426 1.501-2.229 1.064-.354-.192-.64-.091-.299.216.515.466 1.643.812 2.977 1.098 2.328.499 1.497 2.345.815 2.328.195-.004.356-.209.075-.462-2.021-1.817-6.129-1.102-6.062-5.16-.432 1.064-2.212.649-1.38-.615.266.216.732.233.865-.1.103-.259.036-.709-.43-1.096.077-.006.241 0 .224-.191.021.112.123.279.385.222.075.119.154.196.26.154.021-.008.083-.04.058-.158.021.22.283.299.42.283z" stroke="#000" stroke-width="0.029625" fill="#337321"/>
      <path d="M8.946 1.652c.965.632 2.055.632 3.06-.532.316-.366.815-.682 1.164-.715.349-.033.333-.366.599-.432-.166-.05-.233-.249-.482-.225.624-.216.441-.715.748-.956-.25.091-.64-.283-.998.191.092-.216-.033-.474-.125-.574.033.249-.491.299-.59.931-.056.355-.25.333-.283-.216-.024-.402-.216-1.513-.449-2.079-.233-.565-.286-1.342.03-1.458-.048-.08-.114-.151-.196-.205-.385-.251-1.064-.15-1.198.299-.432 1.131.782 1.78.682 3.01-.183-.915-1.663-1.148-1.647-2.046-.482.216-.416.615-.233.931-.299-.466-.981.299-1.564-.333-.066.832.665 1.148 1.264 1.181-.299.532.1.981.499 1.131.017-.931 1.927-.549 1.946 1.048.017 1.364-1.447 1.48-2.229 1.048z" stroke="#000" stroke-width="0.029625" fill="#f7e017"/>
      <path d="M11.624 2.966c2.328.499 1.497 2.345.815 2.328-.434-.011-.848-.374-.873-.69-.499.266-.366.79.017.998-1.048-.125-1.489.565-1.514 1.322.191-.349.773-.374.99-.299.216.075.773.116.998-.133-.183.158.116.524-.141.807.873-.033 1.256-.848 1.106-1.206 1.131-1.031.915-2.711-1.397-3.127z" stroke="#000" stroke-width="0.029625" fill="#f7e017"/>
      <path d="M9.85 10.868c.152.095.132.294.03.419-.205.252.104.854-.53.956-.187.03-.326-.089-.388-.303-.172-.592.453-.633.519-.909.067-.276.242-.242.369-.162z" stroke="#000" stroke-width="0.029625" fill="#f7e017"/>
      <path d="M9.28 11.942c.205.104.381.247.271.912-.045.275-.056.946.185.965-.152.068-.47.135-.593-.042-.133.204-.414.133-.515-.132-.153.115-.349-.097-.343-.274-.133.079-.388-.052-.308-.449-.16.05-.36-.07-.43-.175.234-.037.831-.33.98-.575.149-.245.516-.352.753-.231z" stroke="#000" stroke-width="0.029625" fill="#f7e017"/>
      <g stroke="#000" stroke-width=".125" fill="none">
        <path d="M9.143 13.778c.069-.09.107-.479.07-.718"/>
        <path d="M8.627 13.648c.105-.075.311-.336.352-.572"/>
        <path d="M8.284 13.373c.132-.055.464-.451.544-.713"/>
        <path d="M7.976 12.924c.154-.026.635-.314.843-.632"/>
      </g>
      <path d="M6.451-.327c-.028 1.705.681 2.567 1.662 3.129-.365-.218-.207-.967-.698-1.208.117-.008.299.158.591.091-.141-.316-.374-.798-.915-.865.141-.017.449.033.649-.042-.283-.432-1.031-.225-1.289-1.106z" stroke="#000" stroke-width="0.029625" fill="#f7e017"/>
      <path d="M6.273-1.948c-.06-.02-.111-.08-.16-.158-.262.056-.364-.11-.385-.222.017.191-.149.184-.225.19.468.387.535.837.431 1.097-.133.333-.599.316-.865.1-.033.707.882.94 1.214.05l.241.333c.237-.382.058-.931-.251-1.388z" stroke="#000" stroke-width="0.029625" fill="#f7e017"/>
      <g>
        <path d="M4.814-5.325c-.416-.383-.607-1.023-.591-1.389.017-.366.167-.765.699-.599l-.225.366c.141.05.333-.067.358-.141.033.116.25.083.266.216.083-.067-.008-.391-.133-.457.091-.05.141-.308.1-.432-.083.017-.208.133-.233.299.042-.133-.008-.466-.241-.516-.067.091-.083.316.008.441-.216-.05-.532.091-.607.274.017-.22.047-.534.183-.732.046-.067-.067-.183-.154-.025-.162-.316-.594-.482-.786-.324s-.449-.075-.607.175c-.158.249-.693.276-.665.541.017.158-.022.402-.1.491-.191.216.092.374.141.565-.033-.632.973-1.863 1.979-1.38-.092.158-.171.474-.2.857-.041.565.042 1.364.59 1.829l.216-.058z" stroke="#000" stroke-width="0.029625" fill="#337321"/>
        <path d="M5.112-7.304c-.005-.15.254-.344.603-.341l1.081.349s.171.15.1.2c-.071.05-.112.125-.087.216s-.018.151-.154.067c-.299-.187-.599.075-.994-.071-.343-.126-.54-.195-.549-.42z" stroke="#000" stroke-width="0.029625" fill="#cf142b"/>
        <path d="M3.399-3.379c-.166-.524-.798-1.098-1.106-1.231l-.017-.283c.166-.067.565-.383.748-.557 1.247.599 2.944-.249 3.726-1.131l.299.183-.15.2-.158-.083c-.191.233-.905.905-1.122 1.046.291.073.688.124.797.118.699-.499 1.247-.948 1.513-.981l.224.299-.199.141-.158-.091c-.748.615-1.597 1.963-1.929 2.861-.466-.1-2.129-.033-2.47-.491z" stroke="#000" stroke-width="0.029625" fill="#96877d"/>
        <path d="M5.621-5.235l-.259-.09c-.133.125-.466.233-.89.249" stroke="#000" stroke-width="0.029625" fill="none"/>
        <path d="M3.466-3.562c-.112-.62.066-1.306.382-1.513.69.457 1.871.457 2.57-.042" stroke="#000" stroke-width="0.029625" fill="none"/>
        <path d="M3.466-3.886c.532-.017 1.688.075 1.971.116.283.042.757.158.69.299" stroke="#000" stroke-width="0.029625" fill="none"/>
        <path d="M3.712-3.974l.153-.153-.153-.153-.153.153.153.153z" stroke="#000" stroke-width="0.029625" fill="none"/>
        <path d="M4.074-7.071c-.191-.266-.718-.35-.832.008-.05.158-.125.324-.25.399-.125.075-.095.301-.041.399.133.241.017.474.274.632 0-.191.283-.391.524-.441.241-.05.607-.266.657-.507.05-.241.133-.441-.333-.491z" stroke="#000" stroke-width="0.029625" fill="#337321"/>
        <path d="M2.874-4.676h.066l.001.455.04.021.392-.226.033.058-.393.228.002.045.392.226-.033.058-.394-.227-.038.024v.452h-.066l-.001-.455-.04-.021-.392.226-.033-.058.393-.228-.002-.045-.391-.226.033-.058.395.227.038-.024v-.452z" stroke="#000" stroke-width="0.029625" fill="#96877d"/>
        <path d="M3.468-3.564c-.143.144-.341.233-.559.233-.435 0-.788-.353-.788-.788 0-.435.353-.788.788-.788.256 0 .483.122.627.311-.041.099-.088.322-.091.422-.027-.272-.257-.483-.536-.483-.298 0-.539.241-.539.538 0 .297.241.538.539.538.249 0 .464-.174.526-.403 0 .099.002.337.033.42z" stroke="#000" stroke-width="0.029625" fill="#96877d"/>
        <path d="M2.576-2.813c-.05-.058-.141-.216-.133-.333.075-.008.216.042.283.108-.008-.083-.041-.266-.025-.349.092.033.283.141.349.266-.017-.083-.05-.299-.017-.432.1.058.266.216.299.324.008-.166.066-.441.116-.507l.266.241c.017-.133.083-.291.183-.333.075.083.191.274.216.491.075-.025.175-.15.216-.216.042.067.083.183.058.324.091-.083.199-.2.224-.299.066.05.191.175.224.308-.017-.108-.008-.299-.042-.407.125.067.224.183.25.308.033-.116.108-.324.175-.374.066.133.133.291.125.424.041-.083.108-.233.175-.266.058.091.05.291.033.399.058-.083.167-.183.233-.216v.225c.075-.042.2-.266.241-.383.117.058.233.258.241.358.083-.033.25-.183.299-.266 0 .058.025.216-.008.341l.125-.191c.033.083.008.283-.025.391.075-.067.183-.108.25-.108.008.141-.092.391-.183.574-.798-.225-2.47-.308-4.15-.399z" stroke="#000" stroke-width="0.029625" fill="#337321"/>
        <path fill="#f7e017" d="M5.36-7.219c-.004-.061.133-.2.378-.199l.801.202s.119.061.07.082l-.061.088s-.013.062-.108.027c-.21-.077-.419.031-.696-.029-.24-.052-.378-.08-.384-.172z"/>
      </g>
      <g stroke="#000" stroke-width=".125">
        <g fill="#f7e017">
          <path d="M2.834-2.314c-.249.299-.499.249-.549.058l.066-.449c-.066-.166.108-.241.191-.166.083.075.349-.166.466.083.116.249.208.424.141.524-.066.1-.266.05-.316-.05z"/>
          <path d="M3.906-2.763c-.047-.109.212-.32.345-.17.133.15.341-.162.457.075l.212.495c.058.133-.316.204-.433.087.017.079-.323.141-.416-.083l-.167-.403z"/>
          <path d="M5.637-2.626c-.062-.116.241-.283.399-.071.042-.087.341-.104.362.15l.037.503s-.183.191-.32-.062c-.245.05-.357-.087-.387-.233l-.092-.287z"/>
        </g>
        <g fill="#337321">
          <path d="M2.995-2.792c-.037-.083.212-.249.382-.125.171.125.407-.108.507.116.204.453.216.486.154.574-.062.087-.329.054-.395-.067-.013.083-.242.069-.362.004-.137-.075-.233-.353-.287-.503z"/>
          <path d="M4.745-2.772c-.058-.129.333-.241.503-.017.087-.079.279-.083.387.162.108.245.125.383.046.445-.056.044-.258.079-.324-.033-.092.058-.374.008-.436-.15l-.175-.407z"/>
          <path d="M6.401-2.526c-.008-.116.204-.17.283 0s.332.017.353.299c.004.054-.029.262-.108.362s-.466 0-.491-.212l-.038-.449z"/>
        </g>
        <g fill="none">
          <path d="M2.834-2.314c-.091-.125-.216-.324-.374-.108"/>
          <path d="M3.645-2.293c-.054-.071-.125-.187-.15-.279"/>
          <path d="M4.488-2.277c-.058-.042-.145-.125-.191-.212"/>
          <path d="M4.414-2.713c.145.017.245.154.291.216.046.062.141.175.216.187"/>
          <path d="M5.358-2.214l-.112-.208"/>
          <path d="M5.249-2.788l.116.195"/>
          <path d="M6.115-2.106c-.066-.125-.17-.245-.258-.287"/>
          <path d="M6.082-2.564c.008.245.337.262.349.437"/>
          <path d="M6.683-2.526c.033.062.046.125.05.229"/>
        </g>
      </g>
    </g>
  </g>
</svg>
