<svg xmlns="http://www.w3.org/2000/svg" height="512" width="512"><defs><clipPath id="a"><rect fill-opacity=".67" height="496.06" width="496.06" x="248.03"/></clipPath></defs><g clip-path="url(#a)" transform="matrix(1.032 0 0 1.032 -256 0)"><g fill-rule="evenodd"><rect height="162.99" width="992.13" y="166.54" fill="#fff"/><rect height="166.54" width="992.13" y="329.53" fill="#3d25ca"/><rect height="166.54" width="992.13" fill="#d60000"/></g><g transform="matrix(.176 0 0 .176 426.06 151.9)"><path d="M744.14 567.26c0 192.48-157.09 348.52-350.87 348.52s-350.87-156.04-350.87-348.52 157.09-348.52 350.87-348.52 350.87 156.04 350.87 348.52z" fill-rule="evenodd" transform="matrix(1.035 0 0 1.042 -8.442 -43.697)" stroke="#000" stroke-width="12.5" fill="#fff"/><g transform="matrix(.406 0 0 .407 257.18 329.71)" stroke="#000" stroke-width="2.553"><g fill-rule="evenodd" transform="matrix(.897 .205 -.224 .93 260.11 -31.435)" fill="#006700"><path d="M259.03 105.71s400.32 70.645 414.45 395.62c14.129 324.97-188.39 367.36-259.03 419.16-70.645 51.807-113.03 113.03-146 113.03-32.968 0-80.065-14.13-80.065-14.13s9.42 51.81 75.355 47.1c65.936-4.71 127.16-113.03 164.84-131.87s277.88-98.9 259.04-428.58c-14.13-353.23-423.88-390.91-428.59-400.33z"/><g><path d="M458.746 131.629c13.162 24.169 18.577 45.338 12.096 47.284s-22.404-16.07-35.564-40.238c-13.162-24.169-18.577-45.338-12.096-47.284s22.404 16.07 35.564 40.238z"/><path d="M446.993 137.301c18.665 21.657 29.377 41.984 23.927 45.403s-25-11.365-43.665-33.021c-18.665-21.657-29.377-41.984-23.927-45.403s25 11.365 43.665 33.021z"/><path d="M416.391 168.9c27.52 1.615 50.639 8.329 51.64 14.995s-20.496 10.761-48.014 9.146c-27.52-1.615-50.639-8.329-51.64-14.995s20.496-10.761 48.014-9.146z"/><path d="M418.967 154.931c27.22 9.991 48.056 23.065 46.54 29.202s-24.812 3.013-52.031-6.977c-27.22-9.991-48.056-23.065-46.54-29.202s24.812-3.013 52.031 6.977z"/><path d="M432.73 145.501c24.887 15.555 42.394 32.431 39.103 37.696s-26.133-3.077-51.019-18.631c-24.887-15.555-42.394-32.431-39.103-37.696s26.133 3.077 51.019 18.631z"/><path d="M468.462 183.778c.26.163-12.097 10.665-15.036 12.472-2.941 1.809-8.586-2.468-16.693 4.129s-12.383 16.33-13.19 21.668c-.806 5.338 4.334 6.376 14.204-1.305s10.757-16.621 15.336-21.051c4.579-4.429 12.425-11.19 17.127-14.081 1.066-5.175 5.808-16.808 8.118-23.393 2.31-6.585 14.612-19.314 17.208-31.564 2.391-10.187-1.287-17.612-6.714-12.984-5.427 4.628-11.208 15.607-13.326 23.044-2.118 7.437 3.187 15.153.549 22.263-2.173 5.21-6.737 20.607-7.585 20.806z"/></g><g><path d="M590.086 194.953c10.469 39.544 10.977 71.518 1.135 71.418s-26.308-32.238-36.777-71.781c-10.469-39.544-10.977-71.518-1.135-71.418s26.308 32.238 36.777 71.781z"/><path d="M571.165 198.018c19.084 38.467 27.352 71.61 18.468 74.027s-31.557-26.807-50.64-65.272c-19.084-38.467-27.352-71.61-18.468-74.027s31.557 26.807 50.64 65.272z"/><path d="M517.158 228.152c38.467 14.179 68.966 33.593 68.121 43.364s-32.712 6.198-71.178-7.98c-38.467-14.179-68.966-33.593-68.121-43.364s32.712-6.198 71.178 7.98z"/><path d="M525.47 209.756c35.177 25.785 60.259 53.122 56.025 61.062s-36.184-6.526-71.359-32.31c-35.177-25.785-60.259-53.122-56.025-61.062s36.184 6.526 71.359 32.31z"/><path d="M548.147 202.667c29.972 32.545 49.038 63.739 42.586 69.676s-35.98-15.633-65.951-48.176c-29.972-32.545-49.038-63.739-42.586-69.676s35.98 15.633 65.951 48.176z"/><path d="M586.008 271.915c.313.341-20.764 9.699-25.543 10.957-4.783 1.259-11.338-7.183-25.066-1.454s-23.088 17.514-26.04 24.644c-2.951 7.132 3.986 10.815 20.581 4.331s20.881-18.628 28.874-22.849c7.993-4.221 21.407-10.293 29.053-12.304 3.264-6.79 13.927-21.035 19.432-29.263 5.505-8.227 27.259-20.73 35.088-36.771 6.84-13.239 4.139-25.24-5.122-21.109-9.262 4.131-21.177 17.011-26.698 26.514-5.522 9.503-.613 22.617-6.761 31.438-4.846 6.359-16.531 25.958-17.8 25.868z"/></g><g><path d="M685.374 326.729c2.931 40.801-2.52 72.309-12.177 70.377s-19.861-36.573-22.792-77.371c-2.931-40.801 2.52-72.309 12.177-70.377s19.861 36.573 22.792 77.371z"/><path d="M666.321 326.293c11.606 41.339 13.569 75.429 4.384 76.144s-26.038-32.217-37.644-73.554c-11.606-41.339-13.569-75.429-4.384-76.144s26.038 32.217 37.644 73.554z"/><path d="M607.556 346.025c35.177 21.118 61.547 45.891 58.9 55.333s-33.309-.024-68.484-21.141c-35.177-21.118-61.547-45.891-58.9-55.333s33.309.024 68.484 21.141z"/><path d="M618.712 329.357c29.733 31.887 49.266 63.417 43.629 70.427s-34.309-13.157-64.041-45.042c-29.733-31.887-49.266-63.417-43.629-70.427s34.309 13.157 64.041 45.042z"/><path d="M642.803 326.075c23.392 37.51 36.311 71.674 28.858 76.309s-32.458-22.016-55.849-59.524c-23.392-37.51-36.311-71.674-28.858-76.309s32.458 22.016 55.849 59.524z"/><path d="M667.287 401.285c.245.393-22.238 5.678-27.175 6.028-4.941.351-9.827-9.149-24.402-6.066s-25.976 12.918-30.204 19.371c-4.228 6.454 1.917 11.353 19.454 8.059s24.01-14.42 32.66-17.084c8.65-2.664 22.981-6.141 30.88-6.701 4.473-6.061 17.612-18.07 24.557-25.127 6.945-7.057 30.677-15.303 41.36-29.6 9.19-11.729 8.758-24.007-1.124-21.666-9.883 2.341-24.001 12.778-31.199 21.084-7.199 8.306-4.8 22.086-12.489 29.606-5.949 5.345-21.089 22.419-22.321 22.096z"/></g><g><path d="M729.872 487.203c-13.64 38.527-31.238 65.189-39.306 59.552s-3.552-41.438 10.088-79.964c13.64-38.527 31.238-65.189 39.306-59.552s3.552 41.438-10.088 79.964z"/><path d="M712.508 479.417c-5.923 42.536-17.775 74.569-26.473 71.55s-10.948-39.948-5.025-82.481c5.923-42.536 17.775-74.569 26.473-71.55s10.948 39.948 5.025 82.481z"/><path d="M651.198 473.741c23.81 33.382 38.078 66.589 31.869 74.171s-30.544-13.333-54.353-46.714c-23.81-33.382-38.078-66.589-31.869-74.171s30.544 13.333 54.353 46.714z"/><path d="M667.705 463.034c14.478 41.1 19.754 77.791 11.785 81.954s-26.164-25.78-40.641-66.878c-14.478-41.1-19.754-77.791-11.785-81.954s26.164 25.78 40.641 66.878z"/><path d="M691.02 469.522c6.401 43.732 4.551 80.214-4.133 81.487s-20.912-33.147-27.313-76.877c-6.401-43.732-4.551-80.214 4.133-81.487s20.912 33.147 27.313 76.877z"/><path d="M683.337 548.482c.067.458-22.646-3.705-27.308-5.362-4.666-1.657-5.332-12.314-19.919-15.327s-28.973 1.429-35.434 5.645c-6.461 4.218-2.797 11.165 14.587 15.171s27.774-3.591 36.766-2.568c8.992 1.024 23.512 3.578 30.972 6.229 6.527-3.76 23.378-9.496 32.57-13.178 9.191-3.681 34.236-1.73 49.754-10.545 13.121-7.062 17.65-18.479 7.659-20.293-9.991-1.813-27.108 2.092-37.032 6.815-9.924 4.724-13.254 18.305-23.312 22.113-7.593 2.513-28.307 12.087-29.306 11.298z"/></g><g><path d="M725.326 661.278c-28.417 37.391-57.158 60.44-64.196 51.485s10.292-46.527 38.708-83.915c28.417-37.391 57.158-60.44 64.196-51.485s-10.292 46.527-38.708 83.915z"/><path d="M709.04 646.216c-21.178 44.39-45.35 75.259-53.991 68.95s1.523-47.409 22.7-91.797c21.178-44.39 45.35-75.259 53.991-68.95s-1.523 47.409-22.7 91.797z"/><path d="M642.249 619.208c14.956 44.749 19.368 85.998 9.855 92.136s-29.35-25.164-44.305-69.911c-14.956-44.749-19.368-85.998-9.855-92.136s29.35 25.164 44.305 69.911z"/><path d="M664.913 613.36c2.034 49.954-4.655 91.897-14.941 93.685s-20.273-37.258-22.307-87.209c-2.034-49.954 4.655-91.897 14.941-93.685s20.273 37.258 22.307 87.209z"/><path d="M687.67 628.693c-7.957 50.014-22.582 89.233-32.668 87.603s-11.811-43.497-3.855-93.508c7.957-50.014 22.582-89.233 32.668-87.603s11.811 43.497 3.855 93.508z"/><path d="M652.576 712.344c-.083.524-23.894-11.906-28.507-15.336-4.617-3.432-1.696-15.332-16.872-23.687s-32.69-8.477-41.318-6.099c-8.629 2.38-6.944 11.256 11 21.668s32.1 5.693 41.742 9.931c9.641 4.238 24.901 12.067 32.281 17.555 8.545-1.855 29.243-2.296 40.722-3.142 11.479-.846 38.642 9.971 58.916 5.696 17.008-3.185 25.962-14.119 15.482-19.567-10.481-5.448-30.845-7.105-43.496-5.371-12.652 1.733-21.017 15.451-33.503 16.135-9.301.12-35.61 3.425-36.449 2.215z"/></g><g><path d="M644.316 830.1c-49.236 19.443-90.562 25.254-92.308 12.979s36.754-37.987 85.987-57.429c49.236-19.443 90.562-25.254 92.308-12.979s-36.754 37.987-85.987 57.429z"/><path d="M636.762 807.047c-46.185 29.972-87.531 45.605-92.352 34.919s28.711-43.647 74.894-73.618c46.185-29.972 87.531-45.605 92.352-34.919s-28.711 43.647-74.894 73.618z"/><path d="M587.001 745.159c-11.068 50.253-30.43 91.406-43.248 91.921s-14.237-39.806-3.17-90.056c11.068-50.253 30.43-91.406 43.248-91.921s14.237 39.806 3.17 90.056z"/><path d="M612.766 751.815c-26.682 47.98-57.298 83.637-68.386 79.646s1.555-46.122 28.236-94.1c26.682-47.98 57.298-83.637 68.386-79.646s-1.555 46.122-28.236 94.1z"/><path d="M626.564 779.077c-36.433 42.595-73.203 71.383-82.13 64.302s13.372-47.353 49.803-89.946c36.433-42.595 73.203-71.383 82.13-64.302s-13.372 47.353-49.803 89.946z"/><path d="M544.12 838.058c-.381.446-16.509-24.344-19.049-30.106-2.542-5.766 7.115-15.321-2.916-31.527s-27.055-25.976-36.836-28.502c-9.783-2.524-13.216 6.734-1.66 26.396s28.072 23.039 35.058 32.33c6.985 9.291 17.399 25.05 21.462 34.268 9.401 2.971 29.854 13.967 41.542 19.502 11.687 5.535 32.009 30.659 54.242 37.825 18.421 6.388 33.415 1.065 26.304-9.824-7.112-10.89-26.039-23.671-39.378-29.019-13.34-5.349-29.351 2.911-41.929-3.331-9.146-5.015-36.714-16.418-36.841-18.016z"/></g><g><path d="M511.155 944.119c-52.497 12.347-97.962 10.541-101.55-4.034s36.061-36.4 88.557-48.746c52.497-12.347 97.962-10.541 101.55 4.034s-36.061 36.4-88.557 48.746z"/><path d="M478.328 864.594c-23.027 48.847-52.623 83.121-66.105 76.553s-5.745-51.49 17.281-100.336c23.027-48.847 52.623-83.121 66.105-76.553s5.745 51.49-17.281 100.336z"/><path d="M502.275 903.529c-43.89 31.093-86.524 46.344-95.227 34.066s19.822-47.437 63.712-78.53c43.89-31.093 86.524-46.344 95.227-34.066s-19.822 47.437-63.712 78.53z"/></g><g><path d="M328.878 98.803c29.471 15.682 48.983 32.137 43.582 36.756s-33.669-4.35-63.139-20.031c-29.471-15.682-48.983-32.137-43.582-36.756s33.669 4.35 63.139 20.031z"/><path d="M305.394 128.865c33.796-3.109 63.538-.547 66.431 5.722s-22.16 13.872-55.956 16.982c-33.796 3.109-63.538.547-66.431-5.722s22.16-13.872 55.956-16.982z"/><path d="M313.687 111.355c34.653 8.336 61.123 19.875 59.124 25.772s-31.711 3.919-66.363-4.417c-34.653-8.336-61.123-19.875-59.124-25.772s31.711-3.919 66.363 4.417z"/></g></g><g fill-rule="evenodd" fill="#006700"><path d="M110.168 863.357s75.688 16.173 141.505 40.009c65.814 23.836 165.87 105.672 192.736 110.303 30.136 1.362 71.911-8.906 87.712-52.309-46.386 12.355-74.194 31.118-118.524 6.848-15.661-5.911-66.977-52.455-123.2-77.358-56.217-24.906-169.575-53.285-169.575-53.285l-10.653 25.795z"/><path d="M190.42 180.882c-.271-.646 87.106-45.757 87.106-45.757l-96.043 24.426-11.164 16.838 20.101 4.493z"/><path d="M272.809 202.186c-33.737-6.119-85.625-17.437-118.658-20.08 22.834-25.212 54.297-67.849 73.689-94.021-12.804 24.963-32.903 57.88-40.834 81.774 23.255 12.519 59.81 22.323 85.809 32.325z"/><path d="M174.697 186.697c-.378-.596 77.43-59.846 77.43-59.846l-89.902 40.186-8.015 18.549 20.487 1.112z"/><path d="M257.232 201.349c-33.964-6.437-86.237-18.307-119.431-21.15 22.441-25.97 53.216-69.915 72.185-96.889-12.382 25.748-31.936 59.688-39.448 84.348 23.567 13.013 60.426 23.268 86.699 33.689z"/><path d="M161.925 191.14c-.212-.665 91.133-38.019 91.133-38.019l-98.127 16.066-12.674 15.774 19.668 6.179z"/><path d="M247.498 202.149c-34.303-2.847-87.33-9.224-120.448-8.502 19.101-28.839 44.312-76.854 59.865-106.336-9.192 27.518-24.501 64.144-29.012 90.026 24.81 10.662 62.423 17.075 89.6 24.809z"/><path d="M152.806 191.465c-.499-.506 61.73-75.049 61.73-75.049l-78.205 58.342-3.636 19.91 20.11-3.202z"/><path d="M246.491 206.93c-36.8-.708-93.886-3.958-129.067-.853 17.439-32.814 39.46-86.985 53.058-120.252-7.025 30.678-19.646 71.726-21.852 100.292 27.479 9.902 68.161 14.27 97.866 20.81z"/><path d="M140.105 209.761c-.477-.657 74.99-71.828 74.99-71.828l-90.727 50.147-6.22 21.455 21.957.226z"/><path d="M230.018 209.603c-39.558.167-100.475-1.944-139.075 2.38 25.608-36.589 60.58-96.819 82.139-133.808-13.93 33.969-36.045 79.503-44.338 111.022 27.598 10.199 70.586 13.963 101.281 20.403z"/><path d="M115.037 214.594c-.378-.712 95.727-80.901 95.727-80.901l-108.2 57.394-11.151 23.78 23.624-.273z"/><path d="M215.88 211.808c-39.155 5.629-99.794 11.989-137.401 21.538 20.082-39.209 46.027-102.76 62.04-141.8-8.894 35.042-24.225 82.488-27.889 114.362 28.806 6.13 71.926 3.859 103.256 5.895z"/><path d="M102.182 230.837c-.554-.572 73.756-101.951 73.756-101.951l-92.057 83.068-4.928 25.439 23.228-6.556z"/><path d="M194.132 223.802c-39.439 3.651-100.383 6.951-138.498 14.594 22.297-38.128 51.837-100.259 70.059-138.423-10.882 34.531-28.901 81.12-34.378 112.751 28.429 7.566 71.638 7.467 102.823 11.074z"/><path d="M88.687 241.466c-.383-.72 93.994-81.05 93.994-81.05l-106.622 57.27-10.789 23.92 23.417-.141z"/><path d="M182.953 228.104c-39.276 8.271-100.219 18.754-137.739 30.786 18.36-40.077 41.446-104.575 55.704-144.202-7.263 35.188-20.419 83.062-22.555 114.762 29.4 4.048 72.846-1.185 104.595-1.351z"/><path d="M73.206 245.942c-.643-.455 59.969-111.227 59.969-111.227l-81.183 96.19-1.335 25.407 22.55-10.371z"/><path d="M182.576 234.412c-42.185 10.953-107.928 25.324-147.72 40.4 15.287-45.56 32.783-118.6 43.614-163.479-3.68 39.616-12.29 93.656-10.759 129.152 32.83 3.236 79.973-4.506 114.871-6.079z"/><path d="M61.535 271.211c-.638-.647 75.548-111.385 75.548-111.385l-96.608 90.015-4.072 28.105 25.131-6.735z"/><path d="M165.793 247.197c-41.472 13.094-106.232 30.833-145.13 47.871 13.076-45.831 27.059-118.928 35.731-163.846-1.803 39.334-7.834 93.182-4.643 128.165 32.828 1.428 79.386-8.762 114.046-12.195z"/><path d="M45.93 288.09c-.734-.517 57.491-123.044 57.491-123.044l-81.737 105.986.367 28.285 23.878-11.228z"/><path d="M150.119 263.78c-42.471 9.656-108.542 22.034-148.812 35.834 17.215-44.63 37.834-116.376 50.584-160.458-5.401 39.076-16.341 92.279-16.374 127.426 32.537 4.116 79.802-2.226 114.608-2.808z"/><path d="M32.683 299.44c-.508-.757 93.869-96.213 93.869-96.213l-110.655 71.229-9.014 27.028 25.8-2.044z"/><path d="M131.644 280.451c-42.023 5.631-107.237 11.705-147.366 21.765 19.514-43.669 43.999-114.564 59.122-158.114-7.649 39.186-21.563 92.187-23.735 127.909 31.493 7.389 77.992 5.598 111.985 8.435z"/><path d="M13.866 289.889c-.69-.578 63.901-120.355 63.901-120.355l-86.67 101.277-1.354 28.676 24.123-9.598z"/><path d="M136.866 266.24c-45.711 18.693-117.114 44.747-159.944 67.792 14.036-54.214 28.829-140.098 38.006-192.88-1.637 45.728-7.816 108.633-3.974 148.896 36.289-1.134 87.647-16.894 125.917-23.816z"/><path d="M5.004 326.431c-.742-.644 76.486-138.19 76.486-138.19l-100.964 116.937-2.791 32.651 27.269-11.397z"/><path d="M119.083 283.479c-44.806 21.051-114.934 50.835-156.671 76.003 11.617-54.197 22.591-139.623 29.422-192.129.385 45.124-3.004 107.424 2.609 146.85 36.176-3.214 86.747-21.703 124.646-30.732z"/><path d="M-10.427 347.536c-.839-.481 55.77-148.782 55.77-148.782l-83.473 132.891 2.12 32.206 25.583-16.314z"/><path d="M99.714 295.297c-44.682 21.343-114.638 51.587-156.222 77.022 11.253-54.221 21.649-139.633 28.125-192.131.693 45.073-2.274 107.331 3.611 146.676 36.17-3.465 86.638-22.289 124.491-31.574z"/><path d="M-22.802 364.962c-.681-.722 86.303-131.182 86.303-131.182l-108.8 107.364-5.309 32.531 27.806-8.713z"/><path d="M95.002 289.025c-39.885 31.779-102.985 78.499-138.956 113.41-.031-54.77-7.344-139.187-11.755-191.095 9.984 42.979 19.886 103.341 33.835 139.517 35.136-12.501 81.276-43.338 116.88-61.84z"/><path d="M-18.777 371.557c-.957-.132 9.968-157.158 9.968-157.158l-41.557 152.807 11.61 28.776 19.979-24.424z"/><path d="M83.992 303.412c-39.971 31.565-103.194 77.945-139.266 112.663.177-54.772-6.809-139.23-11.019-191.164 9.813 43.034 19.476 103.451 33.275 139.703 35.153-12.312 81.37-42.901 117.013-61.211z"/><path d="M-28.697 398.036c-.89-.374 40.188-153.612 40.188-153.612l-69.562 141.256 5.496 31.543 23.878-19.187z"/><path d="M79.465 306.867c-37.781 37.125-97.936 92.21-131.336 132.102-5.935-56.166-22.591-141.907-32.742-194.64 14.948 42.941 31.684 103.72 49.994 139.234 34.953-16.814 79.297-53.684 114.087-76.705z"/><path d="M-28.855 417.431c-.99-.14 7.561-163.241 7.561-163.241l-40.238 158.617 12.482 29.933 20.195-25.31z"/><path d="M67.429 334.096c-40.441 33.359-104.502 82.442-140.831 119.018-1.287-56.871-10.77-144.461-16.511-198.32 11.291 44.537 22.894 107.125 38.12 144.563 35.981-13.299 82.899-45.736 119.225-65.27z"/><path d="M-40.943 436.161c-.863-.531 56.994-153.629 56.994-153.629l-85.475 136.105 2.238 33.725 26.243-16.201z"/><path d="M66.919 334.695c-35.773 37.771-92.732 93.83-124.351 134.391-5.66-56.917-21.496-143.779-31.148-197.201 14.191 43.479 30.087 105.033 47.458 140.97 33.106-17.171 75.097-54.707 108.044-78.17z"/><path d="M-38.78 444.007c-1.003-.02-6.683-162.398-6.683-162.398l-26.421 161.737 15.104 28.118 18.001-27.457z"/><path d="M48.961 347.074c-34.657 38.141-89.958 94.782-120.381 135.681-7.321-56.967-25.689-143.843-36.899-197.274 15.456 43.432 33.145 104.957 51.56 140.808 32.592-17.483 73.472-55.441 105.722-79.225z"/><path d="M-47.966 459.975c-.918-.271 18.25-164.934 18.25-164.934l-48.557 155.998 9.65 32.042 20.657-23.106z"/><path d="M41.92 353.468c-31.644 41.295-82.459 102.992-109.671 146.621-11.654-55.953-36.611-140.584-51.873-192.643 18.732 41.702 41.073 101.184 62.177 135.058 31.164-20.548 69.027-62.264 99.368-89.046z"/><path d="M-48.169 475.721c-.949-.04-10.489-165.231-10.489-165.231l-20.828 163.91 15.003 28.882 16.315-27.561z"/><path d="M38.302 363.026c-29.738 43.245-77.726 108.041-102.893 153.403-14.509-55.73-43.82-139.639-61.761-191.259 20.91 41.009 46.336 99.73 69.238 132.732 30.294-22.328 66.262-66.324 95.417-94.886z"/><path d="M-37.768 490.866c-.925-.301 16.804-165.815 16.804-165.815l-47.344 155.868 9.996 32.619 20.544-22.672z"/><path d="M32.519 377.95c-25.61 47.073-67.389 118.079-88.268 166.622-19.46-53.354-56.174-132.655-78.669-181.452 24.482 37.845 55.054 92.662 80.789 122.278 28.058-26.371 59.787-75.051 86.149-107.458z"/><path d="M-43.882 504.99c-.932.258-46.457-157.396-46.457-157.396l15.684 165.905 20.939 23.394 9.834-31.903z"/><path d="M31.531 396.312c-26.693 46.928-70.19 117.715-92.032 166.11-19.572-53.199-56.668-132.27-79.395-180.926 24.856 37.737 55.836 92.396 82.045 121.928 29.043-26.287 62.035-74.817 89.383-107.122z"/><path d="M-41.686 534.415c-.982 0-17.016-165.499-17.016-165.499l-15.389 165.499 16.58 28.371 15.825-28.371z"/><path d="M34.321 410.713c-27.435 46.291-72.053 116.039-94.663 163.914-18.717-53.673-54.54-133.641-76.483-182.846 24.247 38.337 54.345 93.743 80.075 123.907 29.455-25.592 63.215-73.334 91.072-104.985z"/><path d="M-43.02 547.261c-.977.119-30.778-162.37-30.778-162.37l-1.471 166.294 18.874 26.18 13.376-30.104z"/><path d="M22.41 434.498c-29.605 44.372-77.486 111.003-102.352 157.288-16.099-54.913-48.005-137.272-67.538-187.942 22.355 39.968 49.729 97.394 73.956 129.297 30.626-23.551 66.612-68.939 95.935-98.654z"/><path d="M-57.544 565.786c-.957-.26 13.759-166.062 13.759-166.062l-45.348 157.475 10.961 32.088 20.629-23.501z"/><path d="M24.098 438.264c-25.322 48.007-66.751 120.556-87.183 169.825-21.101-52.331-60.465-129.774-84.588-177.433 25.935 36.66 58.48 89.971 85.53 118.377 28.268-27.483 59.841-77.354 86.241-110.778z"/><path d="M-62.924 579.124c-.951.297-51.082-154.719-51.082-154.719l19.687 164.51 21.994 22.394 9.401-32.186z"/><path d="M17.393 450.635c-17.661 52.688-47.461 133.001-60.118 185.864-28.687-46.82-79.148-114.335-110.102-155.905 31.074 30.369 71.173 75.657 102.094 97.673 23.666-33.164 47.196-89.046 68.124-127.641z"/><path d="M-17.84 591.713c-.943.334-55.219-152.557-55.219-152.557l24.096 163.592 22.589 21.5 8.534-32.534z"/><path d="M16.867 467.026c-17.293 52.905-46.535 133.579-58.821 186.604-29.023-46.531-79.971-113.532-111.225-154.787 31.295 30.047 71.722 74.922 102.805 96.613 23.437-33.436 46.579-89.601 67.24-128.441z"/><path d="M-17.447 618.308c-.9.478-71.105-142.718-71.105-142.718l41.381 158.493 24.722 17.814 5.002-33.589z"/><path d="M11.616 480.387c-11.043 54.92-30.732 139.077-36.795 193.399-34.167-41.978-92.45-101.114-128.221-137.543 34.516 25.312 79.805 64.018 113.147 81.078 19.388-36.498 35.857-95.485 51.866-136.943z"/><path d="M-12.537 640.3c-.971.185-38.42-160.029-38.42-160.029l6.364 166.129 20.102 24.861 11.953-30.961z"/><path d="M11.765 497.228c-5.843 56.128-17.538 142.506-18.498 197.373-37.78-37.197-101.067-88.238-139.921-119.698 36.577 20.566 85.08 53.018 119.725 65.529 15.829-38.914 26.673-99.815 38.691-143.213z"/><path d="M-10.333 652.516c-.757.739-101.487-115.595-101.487-115.595l76.504 139.996 27.932 9.528-2.948-33.929z"/><path d="M14.077 517.025c-6.047 56.106-18.058 142.438-19.213 197.31-37.677-37.406-100.832-88.794-139.604-120.468 36.532 20.765 84.958 53.483 119.585 66.181 15.979-38.836 27.048-99.691 39.229-143.031z"/><path d="M.927 678.781c-.877.517-77.934-139.217-77.934-139.217l48.987 156.274 25.565 16.673 3.382-33.731z"/><path d="M18.617 540.114c-3.682 56.447-12.05 143.466-10.903 198.382-39.173-35.108-104.359-82.651-144.385-111.964 37.332 18.545 87.036 48.316 122.128 58.913 14.32-39.786 22.816-101.282 33.156-145.34z"/><path d="M10.625 704.733c-.79.69-96.311-121.76-96.311-121.76l70.24 144.529 27.503 11.273-1.432-34.042z"/><path d="M19.546 566.302c-3.353 56.508-11.211 143.646-9.745 198.579-39.353-34.769-104.776-81.741-144.948-110.704 37.417 18.214 87.264 47.547 122.397 57.83 14.08-39.936 22.214-101.54 32.293-145.714z"/><path d="M19.298 725.496c-.913.421-67.547-146.868-67.547-146.868l37.395 160.778 24.292 19.312 5.859-33.222z"/><path d="M22.129 582.766c1.941 56.66 2.265 144.392 8.843 198.84-42.313-29.317-111.648-67.283-154.233-90.715 38.848 13.108 91.073 35.613 126.913 41.138 10.255-41.611 12.586-103.98 18.473-149.272z"/><path d="M31.196 719.428c-.568.93-123.317-84.139-123.317-84.139l104.55 114.834 29.053 1.481-10.286-32.177z"/><path d="M25.781 589.197c4.889 56.43 9.778 143.909 19.19 197.957-43.857-27.623-115.196-62.842-159.018-84.586 39.546 11.591 92.964 32.044 129.107 36.187 8.095-41.888 7.182-104.175 10.716-149.566z"/><path d="M44.59 750.86c-.754.716-102.764-117.832-102.764-117.832l77.858 141.456 28.118 10.239-3.212-33.863z"/><path d="M34.574 610.383c7.248 56.16 15.8 143.379 27.457 196.886-44.883-25.017-117.483-55.993-162.083-75.131 39.911 9.237 94.024 26.51 130.229 28.498 6.308-42.386 2.778-104.642 4.391-150.26z"/><path d="M64.919 770.983c-.58.919-122.375-86.308-122.375-86.308l103.219 116.653 29.055 2-9.9-32.346z"/><path d="M38.439 634.166c10.938 55.493 25.24 141.934 40.38 194.355-46.238-20.771-120.398-44.875-165.964-59.792 40.25 5.456 95.138 17.605 131.225 16.162 3.442-43-4.21-104.944-5.646-150.732z"/><path d="M78.158 788.289c-.765.701-101.141-119.735-101.141-119.735l75.886 142.892 27.987 10.762-2.731-33.919z"/><path d="M45.149 649.899c16.04 54.005 38.32 138.492 58.224 188.867-47.661-14.601-123.236-28.815-169.682-37.654 40.299.092 95.699 4.924 131.233-1.325-.649-43.434-14.048-104.324-19.782-149.895z"/><path d="M83.565 788.064c-.21 1.104-141.249-30.231-141.249-30.231l134.333 66.677 27.13-10.185-20.214-26.261z"/><path d="M54.728 666.464c15.855 54.061 37.845 138.623 57.579 189.075-47.636-14.836-123.204-29.424-169.645-38.494 40.323.296 95.737 5.406 131.314-.661-.493-43.417-13.681-104.347-19.254-149.927z"/><path d="M106.686 802.891c-.423.998-135.195-65.107-135.195-65.107l121.246 98.056 29.057-2.732-15.108-30.218z"/><path d="M47.795 675.842c26.874 49.244 66.172 126.902 96.065 171.746-49.564-3.761-126.3-.987-173.481.616 39.364-8.796 94.454-16.289 127.849-30.232-9.653-42.306-35.379-98.86-50.44-142.134z"/><path d="M128.356 817.595c-.261 1.084-140.533-38.669-140.533-38.669l131.907 74.454 27.728-8.46-19.102-27.326z"/><path d="M62.155 696.89c27.147 49.072 66.881 126.485 97.014 171.126-49.51-3.345-126.107.083-173.203 2.087 39.245-9.14 94.2-17.109 127.453-31.351-9.909-42.272-35.957-98.673-51.272-141.868z"/><path d="M146.045 829.312c-.501.942-131.01-78.157-131.01-78.157l114.458 109.241 29.438.292-12.886-31.376z"/><path d="M73.217 709.328c31.457 45.813 78.042 118.485 112.001 159.458-48.983 3.047-123.927 16.408-170.017 24.52 37.68-14.268 90.913-29.393 122.206-48.013-13.854-41.209-44.943-94.531-64.199-135.969z"/><path d="M155.192 841.117c-.046 1.149-141.27-3.381-141.27-3.381l139.755 41.304 24.856-15.41-23.341-22.513z"/><path d="M237.464 157.236c.015-.441 101.652-16.849 101.652-16.849l-101.147 2.278-17.639 9.032 17.134 5.539z"/><path d="M293.177 179.42c-29.52-8.871-74.13-23.733-104.429-30.278 32.202-12.766 79.86-35.406 109.19-49.292-22.564 14.081-55.374 32.175-72.861 46.289 16.893 11.422 47.557 23.064 68.106 33.28z"/><path d="M232.849 160.971c-.107-.424 98.459-26.916 98.459-26.916l-101.995 12.928-15.388 10.512 18.923 3.476z"/><path d="M298.275 186.322c-34.444-3.235-87.271-9.821-121.261-10.156 25.62-22.635 61.541-60.503 83.673-83.752-15.217 21.848-38.61 50.841-48.698 71.505 23.091 9.249 60.163 15.439 86.292 22.401z"/><path d="M196.148 167.89c.079-.445 102.302-11.473 102.302-11.473l-99.699-3.214-18.635 8.159 16.032 6.528z"/><path d="M272.312 190.032c-31.339-5.994-78.964-16.435-110.664-20.159 30.102-14.753 73.971-40.142 100.977-55.722-20.158 15.21-49.903 35.068-64.943 49.893 19.089 9.451 52.084 17.98 74.635 25.987z"/><path d="M187.741 166.76c-.26-.384 89.934-38.559 89.934-38.559l-98.521 25.892-11.797 11.951 20.384.716z"/><path d="M269.347 201.423c-26.075-10.769-66.028-29.009-91.827-36.607 19.995-18.543 48.178-51.044 65.54-70.982-12.078 19.925-30.535 45.685-38.69 65.447 17.311 14.728 45.31 29.19 64.982 42.14z"/><path d="M193.126 173.629c-.188-.601 69.963-30.281 69.963-30.281l-76.18 10.426-9.372 13.563 15.589 6.292z"/><path d="M133.902 828.157c.055 1.119-145.052 1.034-145.052 1.034l146.878 35.917 24.096-15.757-25.922-21.194z"/><path d="M160.232 836.867c-.178 1.06-147.435-34.148-147.435-34.148l141.568 69.156 27.748-8.907-21.881-26.101z"/><path d="M184.717 847.021c0 1.11-146.378-7.377-146.378-7.377l146.378 44.018 25.093-14.184-25.093-22.456z"/><path d="M91.66 743.857c38.079 41.865 95.129 108.574 135.079 145.49-49.143 7.4-123.145 27.21-168.67 39.291 36.176-17.328 87.971-36.898 117.092-57.897-19.64-38.963-58.372-88.189-83.509-126.887z"/><path d="M204.534 853.958c-.267 1.023-146.244-47.683-146.244-47.683l137.424 81.448 28.789-6.062-19.969-27.703z"/><path d="M105.419 753.626c41.524 37.776 104.156 98.414 146.982 130.942-47.11 13.525-117.136 42.678-160.226 60.505 33.426-22.001 81.836-48.189 107.999-73.047-23.249-37.094-66.186-82.252-94.764-118.403z"/><path d="M216.837 863.643c.226 1.126-138.847 27.206-138.847 27.206l146.307 9.978 20.657-20.342-28.117-16.842z"/><path d="M187.188 854.538c.139 1.111-144.701 11.106-144.701 11.106l149.286 25.573 22.873-17.369-27.457-19.31z"/><path d="M213.889 862.36c-.098 1.07-149.621-23.923-149.621-23.923l146.396 59.242 27.009-10.791-23.784-24.528z"/><path d="M239.035 870.268c.084 1.106-146.522 2.779-146.522 2.779l149.28 33.745 23.955-15.876-26.713-20.647z"/><path d="M138.744 774.208c41.142 39.126 103.081 101.72 145.721 135.784-48.495 10.744-120.871 35.564-165.404 50.726 34.808-19.753 85.038-42.812 112.53-65.741-22.522-37.497-64.868-83.917-92.856-120.772z"/><path d="M260.142 876.289c-.189 1.038-149.625-37.517-149.625-37.517l143.37 71.787 28.287-8.018-22.032-26.252z"/><path d="M153.087 782.7c44.26 34.783 111.294 90.894 156.46 120.357-45.994 16.737-113.685 50.635-155.347 71.382 31.706-24.24 78.05-53.688 102.296-80.273-25.975-35.366-72.197-77.41-103.419-111.468z"/><path d="M272.817 884.31c.311 1.106-136.497 36.736-136.497 36.736l146.755-.212 19.074-21.697-29.332-14.826z"/></g><g><path d="M637.876 517.205c0 158.448-126.622 286.897-282.821 286.897-156.196 0-282.821-128.447-282.821-286.897 0-158.448 126.622-286.897 282.821-286.897 156.196 0 282.821 128.447 282.821 286.897z" fill-rule="evenodd" fill="#3d25ca"/><path d="M520.64 689.8l-155.973-95.686-155.973 95.686 58.491-153.091-136.484-95.686h175.474l58.49-153.091 58.49 153.091h175.474l-136.472 95.683 58.49 153.091z" fill-rule="evenodd" fill="#ffd900"/><path d="M130.712 440.886l234.03 57.391" fill="none"/><path d="M364.746 287.846v210.431" fill="none"/><path d="M364.746 498.277v95.652" fill="none"/><path d="M364.746 498.277l97.512 38.262" fill="none"/><path d="M306.228 440.886l58.508 57.39" fill="none"/><path d="M364.746 498.277l58.508-57.39" fill="none"/><path d="M598.765 440.886l-234.019 57.391" fill="none"/><path d="M364.746 498.277l156.016 191.308" fill="none"/><path d="M364.746 498.277l-156.027 191.308" fill="none"/><path d="M267.226 536.545l97.512-38.262" fill="none"/></g></g><g><path d="M637.79 325.98c0 117.36-95.243 212.6-212.6 212.6s-212.6-95.243-212.6-212.6c0-117.35 95.244-212.6 212.6-212.6 117.35 0 212.6 95.244 212.6 212.6zm70.867 0c0 156.47-126.99 283.46-283.46 283.46s-283.46-126.99-283.46-283.46 126.99-283.46 283.46-283.46 283.46 126.99 283.46 283.46z" fill-rule="evenodd" transform="matrix(1.094 0 0 1.094 -66.437 190.9)" stroke="#000" fill="#d60000"/><path d="M634.955 603.045l20.419 7.554 33.878-6.191-2.545 6.879-17.652 3.05c-3.292.546-6.546.988-9.76 1.326 2.048 2.211 4.311 4.818 6.792 7.811l11.11 13.521-2.436 6.586-21.478-27.326-20.419-7.554 2.092-5.655z" fill="#ffe600"/><path d="M692.374 524.723l.656 5.995-29.519 3.232c-5.135.562-9.27.492-12.402-.206-3.134-.703-5.8-2.294-8.001-4.786-2.175-2.472-3.502-5.891-3.98-10.256-.465-4.245-.019-7.803 1.335-10.679 1.355-2.88 3.526-5.065 6.513-6.56 3.01-1.498 7.222-2.541 12.636-3.134l29.519-3.232.656 5.989-29.485 3.228c-4.437.486-7.673 1.208-9.708 2.162-2.011.967-3.488 2.398-4.433 4.294-.942 1.918-1.272 4.162-.989 6.741.482 4.402 1.952 7.421 4.412 9.052 2.458 1.624 6.894 2.088 13.306 1.386l29.485-3.228z" fill="#ffe600"/><path d="M651.147 464.839l5.91-1.198 3.868 18.903-18.692 3.789c-3.2-2.371-5.777-4.966-7.731-7.784-1.932-2.824-3.227-5.856-3.885-9.105-.89-4.388-.645-8.593.735-12.612 1.406-4.008 3.927-7.327 7.566-9.97 3.638-2.638 7.931-4.46 12.879-5.463 4.902-.994 9.656-1.016 14.259-.066 4.631.961 8.323 2.94 11.076 5.931 2.753 2.993 4.58 6.713 5.482 11.162.654 3.228.65 6.26-.015 9.1-.637 2.857-1.859 5.242-3.665 7.15-1.808 1.909-4.328 3.595-7.562 5.05l-2.729-4.993c2.429-1.19 4.276-2.431 5.541-3.721 1.264-1.295 2.144-2.951 2.64-4.978.519-2.026.549-4.17.093-6.421-.548-2.703-1.491-4.941-2.829-6.721-1.316-1.785-2.854-3.134-4.612-4.044-1.755-.889-3.605-1.487-5.551-1.792-3.346-.506-6.839-.388-10.482.351-4.49.91-8.108 2.353-10.857 4.322-2.743 1.996-4.583 4.452-5.518 7.369-.934 2.917-1.103 5.846-.507 8.788.518 2.557 1.575 4.946 3.169 7.161 1.615 2.205 3.181 3.814 4.696 4.817l9.381-1.902-2.661-13.125z" fill="#ffe600"/><path d="M435.665 302.424l8.87-50.626 5.935 1.04-7.823 44.652 22.102 3.872-1.047 5.974-28.037-4.912z" fill="#ffe600"/><path d="M385.604 299.02v-51.397h32.941v6.066h-26.91v15.741h25.203v6.03h-25.203v17.495h27.966v6.065h-33.997z" fill="#ffe600"/><path d="M243.242 331.3l5.696-2.609c2.67 5.066 3.708 9.791 3.118 14.169-.589 4.348-2.687 8.063-6.292 11.144-3.733 3.191-7.502 4.936-11.306 5.237-3.803.268-7.707-.699-11.716-2.9-3.992-2.214-7.582-5.188-10.771-8.919-3.478-4.068-5.822-8.199-7.037-12.388-1.211-4.223-1.217-8.199-.018-11.93 1.2-3.762 3.331-6.952 6.382-9.56 3.468-2.964 7.229-4.457 11.292-4.487 4.064-.029 8.1 1.363 12.115 4.173l-3.486 5.056c-3.232-2.157-6.17-3.228-8.803-3.222-2.636.009-5.114 1.005-7.428 2.983-2.661 2.275-4.276 4.9-4.84 7.872-.551 2.963-.146 5.967 1.209 9.022 1.339 3.036 3.114 5.839 5.316 8.415 2.84 3.323 5.746 5.865 8.723 7.626 2.978 1.728 5.895 2.432 8.754 2.11 2.857-.322 5.345-1.387 7.454-3.189 2.568-2.195 4.027-4.888 4.377-8.078.354-3.193-.562-6.698-2.739-10.526z" fill="#ffe600"/><path d="M221.735 376.524l-38.231-34.352 4.03-4.485 38.231 34.352-4.03 4.485z" fill="#ffe600"/><path d="M197.013 405.708l-40.749-31.324 3.675-4.781 35.94 27.628 13.672-17.786 4.808 3.696-17.347 22.567z" fill="#ffe600"/><path d="M120.565 436.016l2.22-5.601 27.606 10.94c4.803 1.903 8.427 3.892 10.87 5.973 2.442 2.086 4.055 4.739 4.837 7.97.767 3.203.342 6.846-1.276 10.928-1.573 3.969-3.63 6.908-6.173 8.821-2.542 1.908-5.484 2.83-8.822 2.751-3.361-.083-7.572-1.13-12.635-3.136l-27.606-10.94 2.22-5.601 27.575 10.928c4.15 1.645 7.348 2.518 9.591 2.631 2.232.08 4.206-.495 5.928-1.73 1.729-1.255 3.07-3.085 4.023-5.491 1.634-4.122 1.745-7.478.332-10.069-1.414-2.585-5.119-5.068-11.115-7.445l-27.575-10.928z" fill="#ffe600"/><path d="M150.578 560.382l-51.395.426-.273-32.94 6.066-.05.223 26.915 15.741-.131-.209-25.202 6.03-.05.209 25.202 17.494-.145-.232-27.971 6.065-.05.282 33.996z" fill="#ffe600"/><path d="M342.523 306.298l-10.168-50.381 15.383-3.105c3.473-.701 6.168-.994 8.096-.882 2.692.148 5.117.91 7.278 2.286 2.809 1.769 5.146 4.291 7.008 7.563 1.883 3.245 3.275 7.112 4.181 11.602.772 3.826 1.062 7.297.868 10.412-.199 3.116-.718 5.772-1.562 7.97-.849 2.174-1.904 3.972-3.159 5.395-1.244 1.395-2.848 2.589-4.827 3.585-1.954.99-4.282 1.758-6.985 2.303l-16.111 3.252zm4.706-7.137l9.535-1.924c2.948-.595 5.188-1.368 6.726-2.324 1.565-.96 2.725-2.1 3.497-3.423 1.08-1.863 1.739-4.202 1.977-7.016.249-2.84-.01-6.162-.778-9.965-1.063-5.269-2.649-9.158-4.762-11.665-2.097-2.533-4.336-4.06-6.725-4.58-1.724-.367-4.341-.196-7.855.513l-9.384 1.894 7.768 38.49z" fill="#ffe600"/><path d="M508.632 326.802l23.77-45.57 15.24 7.95c2.68 1.398 4.654 2.613 5.915 3.639 1.79 1.408 3.081 2.991 3.87 4.747.799 1.735 1.114 3.758.935 6.063-.156 2.317-.824 4.606-2.002 6.865-2.022 3.875-4.826 6.591-8.418 8.144-3.581 1.533-8.228.809-13.942-2.171l-10.359-5.404-9.664 18.526-5.346-2.789zm17.815-21.116l10.444 5.448c3.452 1.8 6.285 2.357 8.489 1.661 2.21-.693 3.999-2.357 5.372-4.988.994-1.906 1.41-3.759 1.252-5.556-.133-1.808-.781-3.294-1.952-4.458-.758-.737-2.352-1.74-4.779-3.006l-10.331-5.389-8.496 16.287z" fill="#ffe600"/><path d="M534.886 340.349l47.35-26.567 4.831 4.335-20.449 50.708-5.112-4.587 6.441-15.134-14.179-12.724-14.119 8.244-4.764-4.275zm23.878-6.931l11.499 10.319 5.966-13.771c1.81-4.185 3.381-7.548 4.714-10.089-2.635 2.062-5.428 3.953-8.384 5.665l-13.795 7.876z" fill="#ffe600"/><path d="M571.618 374.899l40.775-31.29 12.296 16.023c2.473 3.223 3.981 5.956 4.524 8.2.565 2.234.304 4.56-.779 6.989-1.085 2.425-2.75 4.498-4.994 6.219-2.892 2.22-5.967 3.262-9.227 3.123-3.256-.135-6.487-1.735-9.685-4.789.286 1.792.345 3.271.185 4.444-.374 2.507-1.169 5.215-2.379 8.13l-6.273 14.802-4.617-6.017 4.815-11.29c1.375-3.275 2.364-5.865 2.968-7.766.607-1.896.889-3.41.852-4.532-.023-1.106-.216-2.107-.577-2.999-.286-.642-.902-1.58-1.849-2.813l-4.255-5.545-18.107 13.895-3.672-4.785zm26.45-12.696l7.888 10.279c1.675 2.183 3.24 3.704 4.687 4.552 1.465.835 2.998 1.142 4.604.933 1.622-.229 3.091-.848 4.408-1.858 1.929-1.48 3.036-3.319 3.319-5.522.296-2.186-.584-4.62-2.641-7.3l-8.776-11.436-13.49 10.352z" fill="#ffe600"/><path d="M599.101 410.005l53.404-9.787 3.166 5.668-35.779 41.342-3.349-5.996 10.999-12.23-9.29-16.632-16.029 3.224-3.122-5.589zm24.836 1.183l7.533 13.488 10.107-11.094c3.068-3.372 5.642-6.049 7.729-8.017-3.161 1.098-6.416 1.98-9.767 2.642l-15.602 2.981z" fill="#ffe600"/><path d="M644.309 543.057l49.299 22.747-.675 6.456-53.058 13.202.714-6.831 16.034-3.666 1.981-18.948-14.961-6.594.666-6.366zm19.625 15.266l-1.606 15.361 14.651-3.246c4.451-.997 8.096-1.697 10.935-2.104-3.216-.924-6.386-2.076-9.507-3.464l-14.473-6.548z" fill="#ffe600"/><path d="M158.694 607.626l-50.192 11.062-4.347-19.723c-.874-3.967-1.082-7.083-.623-9.345.435-2.263 1.657-4.259 3.667-6 2.011-1.736 4.397-2.908 7.159-3.517 3.561-.785 6.787-.426 9.681 1.081 2.892 1.502 5.14 4.32 6.743 8.442.5-1.745 1.074-3.11 1.716-4.104 1.401-2.112 3.268-4.229 5.6-6.356l11.955-10.749 1.632 7.406-9.146 8.185c-2.634 2.384-4.627 4.311-5.979 5.776-1.353 1.461-2.25 2.712-2.692 3.743-.448 1.011-.697 2-.748 2.962-.013.703.148 1.814.482 3.332l1.505 6.826 22.289-4.912 1.298 5.889zm-29.338.291l-2.789-12.653c-.592-2.688-1.366-4.728-2.316-6.11-.973-1.377-2.231-2.305-3.775-2.796-1.566-.48-3.16-.542-4.78-.185-2.374.523-4.156 1.72-5.347 3.595-1.195 1.855-1.429 4.432-.702 7.731l3.103 14.077 16.605-3.66z" fill="#ffe600"/><path d="M152.434 514.842l-51.208-4.407 1.473-17.121c.26-3.017.621-5.302 1.084-6.864.611-2.194 1.575-3.99 2.893-5.399 1.294-1.406 3.04-2.469 5.236-3.196 2.199-.748 4.569-1.012 7.106-.794 4.355.375 7.94 1.924 10.756 4.636 2.792 2.716 3.913 7.284 3.36 13.704l-1.002 11.641 20.818 1.791-.517 6.008zm-26.345-8.32l1.01-11.737c.334-3.879-.243-6.702-1.733-8.475-1.49-1.773-3.714-2.784-6.671-3.039-2.142-.184-4.012.144-5.61.981-1.618.819-2.74 1.989-3.364 3.517-.389.989-.701 2.841-.936 5.567l-.999 11.609 18.302 1.575z" fill="#ffe600"/><path d="M173.912 438.873l-42.763-28.512 9.483-14.223c1.93-2.895 3.912-4.919 5.949-6.079 2.027-1.186 4.275-1.67 6.738-1.448 2.454.195 4.663.948 6.628 2.258 1.828 1.219 3.257 2.803 4.286 4.757 1.026 1.959 1.446 4.151 1.252 6.591 2.287-1.789 4.752-2.682 7.398-2.691 2.655-.021 5.228.796 7.717 2.455 2.003 1.335 3.617 2.959 4.842 4.873 1.216 1.882 1.923 3.686 2.121 5.412s-.019 3.588-.647 5.585c-.637 1.966-1.76 4.156-3.367 6.565l-9.639 14.456zm-21.449-21.548l5.464-8.195c1.483-2.224 2.382-3.932 2.693-5.114.423-1.561.352-2.991-.214-4.293-.556-1.314-1.584-2.47-3.081-3.469-1.419-.946-2.864-1.477-4.336-1.585-1.49-.127-2.806.246-3.941 1.108-1.156.848-2.639 2.632-4.454 5.354l-5.052 7.577 12.922 8.616zm19.748 13.167l6.294-9.439c1.08-1.619 1.771-2.804 2.071-3.547.537-1.312.789-2.532.763-3.673-.027-1.14-.388-2.304-1.086-3.491-.718-1.198-1.756-2.254-3.117-3.161-1.595-1.063-3.217-1.622-4.867-1.676-1.668-.067-3.169.392-4.497 1.374-1.337.951-2.81 2.634-4.419 5.047l-5.843 8.764 14.702 9.802z" fill="#ffe600"/><path d="M258.614 340.356l-12.514-52.832 5.502-3.455 43.119 33.614-5.812 3.65-12.778-10.357-16.134 10.131 4.037 15.845-5.421 3.404zm-.089-24.866l13.079-8.213-11.594-9.527c-3.529-2.888-6.331-5.325-8.407-7.305 1.263 3.098 2.311 6.303 3.14 9.619l3.781 15.426z" fill="#ffe600"/></g></g></g></svg>