<svg xmlns="http://www.w3.org/2000/svg" height="512" width="512">
    <g clip-path="url(#a)">
        <g fill-rule="evenodd">
            <path fill="#fff" d="M-256 171.886h1023.977v168.222h-1023.977z"/>
            <path fill="#3d25ca" d="M-256 340.108h1023.977v171.886h-1023.977z"/>
            <path fill="#d60000" d="M-256 0h1023.977v171.886h-1023.977z"/>
        </g>
        <g>
            <path d="M744.14 567.26c0 192.48-157.09 348.52-350.87 348.52s-350.87-156.04-350.87-348.52 157.09-348.52 350.87-348.52 350.87 156.04 350.87 348.52z" fill-rule="evenodd" transform="matrix(.188 0 0 .19 182.158 148.808)" stroke="#000" stroke-width="12.5" fill="#fff"/>
            <g stroke="#000" stroke-width="2.553">
                <g fill-rule="evenodd" fill="#006700">
                    <path d="M264.421 225.307s24.89 10.879 20.609 33.515c-4.281 22.635-18.123 22.522-23.544 25.037-5.421 2.515-9.155 6.104-11.298 5.609-2.143-.495-4.978-2.176-4.978-2.176s-.217 3.716 4.144 4.38c4.361.664 10.074-5.892 12.825-6.626s19.645-2.656 23.695-25.686c4.733-24.585-21.298-33.331-21.453-34.052z"/>
                    <g>
                        <path d="M277.203 229.837c.479 1.855.495 3.393.038 3.436s-1.217-1.426-1.695-3.28c-.479-1.855-.495-3.393-.038-3.436s1.217 1.426 1.695 3.28z"/>
                        <path d="M276.527 230.386c.897 1.795 1.288 3.377.874 3.535s-1.479-1.17-2.376-2.965c-.897-1.795-1.288-3.377-.874-3.535s1.479 1.17 2.376 2.965z"/>
                        <path d="M273.955 232.343c1.795.538 3.215 1.358 3.172 1.83s-1.533.418-3.327-.12c-1.795-.538-3.215-1.358-3.172-1.83s1.533-.418 3.327.12z"/>
                        <path d="M274.173 231.496c1.615 1.137 2.762 2.383 2.562 2.783s-1.672-.196-3.287-1.333-2.762-2.383-2.562-2.783 1.672.196 3.287 1.333z"/>
                        <path d="M275.199 230.584c1.376 1.436 2.248 2.855 1.947 3.17s-1.659-.594-3.035-2.03c-1.376-1.436-2.248-2.855-1.947-3.17s1.659.594 3.035 2.03z"/>
                        <path d="M277.136 233.825c.015.015-.974.566-1.199.649-.225.083-.54-.293-1.184.048s-1.079.954-1.214 1.312c-.135.358.195.503.974.112s.974-.997 1.349-1.239c.375-.241 1.004-.598 1.364-.731.15-.343.644-1.081.899-1.504.255-.423 1.274-1.129 1.633-1.94.315-.671.18-1.237-.255-.994-.435.243-.989.921-1.244 1.405-.255.485-.015 1.094-.3 1.549-.225.33-.764 1.33-.824 1.332z"/>
                    </g>
                    <g>
                        <path d="M284.821 236.289c.06 2.872-.414 5.072-1.057 4.914s-1.214-2.613-1.274-5.484c-.06-2.872.414-5.072 1.057-4.914s1.214 2.613 1.274 5.484z"/>
                        <path d="M283.045 236.334c.598 2.931.585 5.331-.031 5.359s-1.599-2.325-2.197-5.256c-.598-2.931-.585-5.331.031-5.359s1.599 2.325 2.197 5.256z"/>
                        <path d="M279.201 237.753c2.273 1.555 3.942 3.35 3.728 4.008s-2.231-.069-4.505-1.625c-2.273-1.555-3.942-3.35-3.728-4.008s2.231.069 4.505 1.625z"/>
                        <path d="M279.825 236.665c1.855 2.333 3.033 4.619 2.633 5.105s-2.229-1.011-4.083-3.344c-1.855-2.333-3.033-4.619-2.633-5.105s2.229 1.011 4.083 3.344z"/>
                        <path d="M281.737 236.251c1.436 2.692 2.182 5.13 1.667 5.444s-2.096-1.613-3.532-4.305c-1.436-2.692-2.182-5.13-1.667-5.444s2.096 1.613 3.532 4.305z"/>
                        <path d="M283.053 241.642c.015.028-1.515.366-1.848.383-.333.017-.626-.666-1.617-.471s-1.793.874-2.101 1.325c-.308.451.087.809 1.277.604s1.667-.984 2.258-1.159c.591-.175 1.567-.398 2.1-.425.323-.423 1.25-1.254 1.743-1.743.493-.49 2.118-1.036 2.889-2.033.661-.818.678-1.69.005-1.54-.673.15-1.66.868-2.175 1.445-.515.578-.405 1.56-.949 2.081-.42.37-1.5 1.557-1.582 1.532z"/>
                    </g>
                    <g>
                        <path d="M288.692 247.195c-.479 2.872-1.354 4.967-1.954 4.681s-.7-2.846-.221-5.717c.479-2.872 1.354-4.967 1.954-4.681s.7 2.846.221 5.717z"/>
                        <path d="M287.837 246.769c.12 3.051-.282 5.455-.897 5.369s-1.211-2.629-1.33-5.68c-.12-3.051.282-5.455.897-5.369s1.211 2.629 1.33 5.68z"/>
                        <path d="M283.63 247.154c1.974 1.974 3.308 4.073 2.979 4.688s-2.196-.487-4.17-2.461c-1.974-1.974-3.308-4.073-2.979-4.688s2.196.487 4.17 2.461z"/>
                        <path d="M284.56 246.586c1.436 2.692 2.205 5.199 1.719 5.6s-2.045-1.457-3.48-4.149c-1.436-2.692-2.205-5.199-1.719-5.6s2.045 1.457 3.48 4.149z"/>
                        <path d="M286.193 246.6c.957 2.991 1.281 5.59.723 5.805s-1.786-2.036-2.743-5.027c-.957-2.991-1.281-5.59-.723-5.805s1.786 2.036 2.743 5.027z"/>
                        <path d="M286.624 252.248c.01.032-1.565.067-1.898.017-.333-.05-.506-.799-1.522-.801s-1.928.525-2.311.919c-.383.395-.053.836 1.162.868s1.822-.661 2.438-.719c.616-.058 1.622-.088 2.155-.008.393-.363 1.455-1.017 2.028-1.414.573-.396 2.278-.623 3.214-1.477.796-.694.962-1.574.27-1.557-.693.017-1.795.545-2.404 1.026s-.669 1.497-1.299 1.915c-.48.29-1.755 1.274-1.832 1.232z"/>
                    </g>
                    <g>
                        <path d="M289.349 258.475c-1.496 2.453-3.068 4.035-3.511 3.535s.409-2.895 1.905-5.348 3.068-4.035 3.511-3.535-.409 2.895-1.905 5.348z"/>
                        <path d="M288.226 257.702c-1.077 2.812-2.379 4.813-2.908 4.469s-.085-2.901.991-5.713c1.077-2.812 2.379-4.813 2.908-4.469s.085 2.901-.991 5.713z"/>
                        <path d="M284.291 256.205c1.017 2.632 1.412 5.114.883 5.543s-1.783-1.357-2.8-3.989c-1.017-2.632-1.412-5.114-.883-5.543s1.783 1.357 2.8 3.989z"/>
                        <path d="M285.544 255.891c.299 3.051.066 5.663-.52 5.835s-1.305-2.163-1.604-5.213c-.299-3.051-.066-5.663.52-5.835s1.305 2.163 1.604 5.213z"/>
                        <path d="M287.183 256.823c-.239 3.111-.909 5.598-1.495 5.555s-.868-2.6-.629-5.71c.239-3.111.909-5.598 1.495-5.555s.868 2.6.629 5.71z"/>
                        <path d="M285.029 261.743c-.003.032-1.407-.599-1.682-.783-.275-.183-.14-.906-1.036-1.334s-1.903-.355-2.393-.173c-.49.182-.368.703.693 1.241s1.862.192 2.428.4c.566.208 1.465.604 1.905.897.486-.15 1.675-.271 2.333-.375.658-.103 2.25.416 3.404.068.969-.268 1.454-.961.836-1.237-.618-.276-1.793-.281-2.516-.12-.723.162-1.166 1.017-1.882 1.116-.535.05-2.038.368-2.09.3z"/>
                    </g>
                    <g>
                        <path d="M285.839 270.41c-2.453 2.154-4.696 3.32-5.011 2.604s1.419-3.041 3.871-5.195c2.453-2.154 4.696-3.32 5.011-2.604s-1.419 3.041-3.871 5.195z"/>
                        <path d="M284.925 269.209c-2.094 2.752-4.162 4.53-4.62 3.973s.869-3.241 2.962-5.993c2.094-2.752 4.162-4.53 4.62-3.973s-.869 3.241-2.962 5.993z"/>
                        <path d="M280.843 266.381c.239 3.29-.147 6.178-.862 6.45s-1.489-2.175-1.728-5.465c-.239-3.29.147-6.178.862-6.45s1.489 2.175 1.728 5.465z"/>
                        <path d="M282.785 266.23c-.658 3.47-1.76 6.259-2.461 6.231s-.736-2.865-.078-6.334c.658-3.47 1.76-6.259 2.461-6.231s.736 2.865.078 6.334z"/>
                        <path d="M283.906 267.287c-1.316 3.29-2.893 5.749-3.523 5.491s-.073-3.134 1.243-6.424c1.316-3.29 2.893-5.749 3.523-5.491s.073 3.134-1.243 6.424z"/>
                        <path d="M280.48 272.964c-.013.035-1.382-1.191-1.632-1.499-.25-.308.12-1.086-.746-1.897s-2.008-1.089-2.608-1.057c-.599.032-.623.671.393 1.667s2.011.888 2.578 1.329c.566.441 1.445 1.217 1.845 1.71.586.003 1.945.291 2.707.41.763.118 2.375 1.284 3.763 1.3 1.159.042 1.908-.576 1.305-1.114-.603-.538-1.908-.966-2.761-1.041-.853-.075-1.605.744-2.431.599-.609-.135-2.378-.311-2.414-.408z"/>
                    </g>
                    <g>
                        <path d="M277.584 281.02c-3.53.598-6.321.376-6.235-.497s3.017-2.065 6.546-2.663c3.53-.598 6.321-.376 6.235.497s-3.017 2.065-6.546 2.663z"/>
                        <path d="M277.808 279.496c-3.47 1.376-6.399 1.83-6.542 1.015s2.554-2.592 6.024-3.968 6.399-1.83 6.542-1.015-2.554 2.592-6.024 3.968z"/>
                        <path d="M275.319 274.243c-1.555 3.29-3.501 5.83-4.345 5.673s-.267-2.952 1.288-6.243c1.555-3.29 3.501-5.83 4.345-5.673s.267 2.952-1.288 6.243z"/>
                        <path d="M277.015 275.389c-2.513 2.931-5.083 4.948-5.741 4.505s.845-3.179 3.358-6.111c2.513-2.931 5.083-4.948 5.741-4.505s-.845 3.179-3.358 6.111z"/>
                        <path d="M277.617 277.431c-3.051 2.393-5.907 3.823-6.379 3.193s1.619-3.08 4.67-5.473 5.907-3.823 6.379-3.193-1.619 3.08-4.67 5.473z"/>
                        <path d="M271.316 280.009c-.032.025-.691-1.915-.766-2.348-.075-.433.699-.946.301-2.207s-1.349-2.183-1.943-2.501c-.594-.318-.961.266-.518 1.787s1.46 1.996 1.768 2.737c.308.741.738 1.977.858 2.669.563.343 1.717 1.4 2.388 1.953.671.553 1.597 2.578 2.926 3.399 1.094.711 2.148.568 1.857-.285-.291-.853-1.319-2.01-2.1-2.574-.781-.564-1.947-.235-2.664-.849-.515-.48-2.123-1.67-2.106-1.782z"/>
                    </g>
                    <g>
                        <path d="M267.5 286.995c-3.605.045-6.527-.784-6.527-1.852s2.922-1.97 6.527-2.015c3.605-.045 6.527.784 6.527 1.852s-2.922 1.97-6.527 2.015z"/>
                        <path d="M266.794 280.894c-2.253 3.019-4.704 4.933-5.473 4.275s.433-3.639 2.686-6.658c2.253-3.019 4.704-4.933 5.473-4.275s-.433 3.639-2.686 6.658z"/>
                        <path d="M267.733 284.085c-3.335 1.487-6.34 1.897-6.712.917s2.029-2.981 5.363-4.468c3.335-1.487 6.34-1.897 6.712-.917s-2.029 2.981-5.363 4.468z"/>
                    </g>
                    <g>
                        <path d="M269.017 225.616c1.667 1.487 2.677 2.884 2.255 3.12s-2.116-.778-3.783-2.265c-1.667-1.487-2.677-2.884-2.255-3.12s2.116.778 3.783 2.265z"/>
                        <path d="M267.166 227.306c2.253.27 4.15.872 4.237 1.344s-1.669.635-3.922.365-4.15-.872-4.237-1.344 1.669-.635 3.922-.365z"/>
                        <path d="M267.849 226.478c2.118 1.081 3.654 2.26 3.43 2.633s-2.122-.202-4.239-1.284c-2.118-1.081-3.654-2.26-3.43-2.633s2.122.202 4.239 1.284z"/>
                    </g>
                </g>
                <g fill-rule="evenodd" fill="#006700">
                    <path d="M238.153 280.564s5.506 1.196 10.296 2.962c4.79 1.766 12.083 7.838 14.037 8.181 2.191.099 5.224-.666 6.362-3.892-3.368.921-5.385 2.317-8.613.517-1.14-.438-4.882-3.892-8.975-5.738-4.093-1.846-12.339-3.947-12.339-3.947l-.768 1.917z"/>
                    <path d="M243.94 229.522c-.02-.048 6.398-3.342 6.398-3.342l-7.059 1.748-.818 1.245 1.479.349z"/>
                    <path d="M250.025 231.606c-2.48-.434-6.294-1.246-8.721-1.42 1.677-1.907 3.988-5.127 5.412-7.103-.94 1.881-2.416 4.364-2.998 6.161 1.71.922 4.397 1.631 6.308 2.362z"/>
                    <path d="M243.368 230.036c-.027-.045 5.612-4.432 5.612-4.432l-6.505 2.955-.585 1.382 1.479.094z"/>
                    <path d="M248.771 231.475c-2.509-.464-6.371-1.323-8.823-1.521 1.651-1.933 3.913-5.202 5.307-7.208-.908 1.913-2.344 4.436-2.893 6.266 1.743.955 4.467 1.701 6.409 2.463z"/>
                    <path d="M242.151 230.737c-.015-.049 6.648-2.868 6.648-2.868l-7.153 1.236-.927 1.18 1.432.452z"/>
                    <path d="M248.543 231.584c-2.482-.193-6.318-.639-8.715-.566 1.39-2.166 3.228-5.769 4.361-7.981-.673 2.062-1.79 4.807-2.124 6.744 1.793.783 4.513 1.24 6.478 1.803z"/>
                    <path d="M241.64 230.765c-.036-.038 4.453-5.623 4.453-5.623l-5.658 4.38-.256 1.488 1.46-.245z"/>
                    <path d="M248.085 231.696c-2.707-.059-6.906-.31-9.494-.086 1.284-2.426 2.906-6.432 3.908-8.892-.518 2.27-1.448 5.306-1.612 7.42 2.021.738 5.013 1.068 7.198 1.558z"/>
                    <path d="M240.708 232.095c-.034-.048 5.484-5.32 5.484-5.32l-6.611 3.727-.465 1.584 1.592.009z"/>
                    <path d="M247.074 232.004c-2.887.016-7.332-.135-10.151.192 1.883-2.738 4.458-7.245 6.045-10.013-1.029 2.541-2.661 5.948-3.278 8.305 2.01.76 5.146 1.037 7.384 1.515z"/>
                    <path d="M238.472 232.502c-.027-.053 7.095-6.064 7.095-6.064l-7.989 4.315-.84 1.777 1.733-.028z"/>
                    <path d="M245.917 232.191c-2.871.424-7.313.903-10.075 1.621 1.518-2.944 3.495-7.715 4.715-10.646-.694 2.631-1.875 6.193-2.183 8.586 2.099.459 5.255.287 7.544.439z"/>
                    <path d="M237.958 233.386c-.04-.042 5.378-7.521 5.378-7.521l-6.7 6.123-.365 1.879 1.686-.48z"/>
                    <path d="M244.633 232.81c-2.86.25-7.279.462-10.044 1.008 1.622-2.815 3.773-7.405 5.1-10.225-.794 2.554-2.107 5.999-2.509 8.341 2.06.576 5.193.592 7.453.876z"/>
                    <path d="M236.467 234.673c-.028-.053 6.909-6.064 6.909-6.064l-7.842 4.315-.791 1.777 1.724-.028z"/>
                    <path d="M243.701 233.278c-2.862.609-7.304 1.379-10.038 2.267 1.335-2.969 3.013-7.747 4.049-10.683-.527 2.608-1.482 6.155-1.635 8.504 2.143.303 5.31-.08 7.624-.088z"/>
                    <path d="M235.441 234.317c-.047-.034 4.427-8.197 4.427-8.197l-5.981 7.07-.104 1.88 1.658-.754z"/>
                    <path d="M243.464 233.753c-3.098.81-7.925 1.874-10.848 2.987 1.125-3.358 2.413-8.742 3.211-12.05-.272 2.92-.907 6.902-.797 9.518 2.41.236 5.872-.338 8.434-.456z"/>
                    <path d="M234.715 236.522c-.046-.048 5.602-8.287 5.602-8.287l-7.118 6.694-.321 2.092 1.837-.499z"/>
                    <path d="M242.357 234.69c-3.031.965-7.761 2.271-10.608 3.531.995-3.409 2.082-8.849 2.755-12.191-.168 2.928-.658 6.936-.459 9.542 2.388.114 5.786-.634 8.312-.882z"/>
                    <path d="M233.453 237.507c-.053-.039 4.321-9.106 4.321-9.106l-6.07 7.824-.004 2.102 1.752-.819z"/>
                    <path d="M240.922 236.13c-3.135.732-8.013 1.675-10.987 2.715 1.281-3.333 2.82-8.689 3.771-11.979-.408 2.915-1.228 6.886-1.24 9.506 2.399.297 5.888-.189 8.455-.243z"/>
                    <path d="M232.613 238.424c-.036-.056 6.926-7.116 6.926-7.116l-8.13 5.251-.679 2.006 1.884-.141z"/>
                    <path d="M239.893 237.246c-3.066.421-7.823.879-10.752 1.627 1.438-3.231 3.248-8.475 4.366-11.697-.571 2.898-1.604 6.818-1.775 9.459 2.294.542 5.685.404 8.162.61z"/>
                    <path d="M231.137 238.358c-.051-.042 4.693-9.005 4.693-9.005l-6.364 7.606-.1 2.133 1.771-.735z"/>
                    <path d="M240.439 236.359c-3.323 1.408-8.513 3.372-11.626 5.105 1.019-4.058 2.092-10.485 2.758-14.435-.118 3.421-.565 8.127-.285 11.138 2.638-.093 6.371-1.283 9.154-1.809z"/>
                    <path d="M230.555 240.485c-.054-.048 5.619-10.265 5.619-10.265l-7.406 8.672-.21 2.431 1.997-.838z"/>
                    <path d="M238.874 237.282c-3.285 1.545-8.426 3.727-11.487 5.58.863-4.031 1.685-10.389 2.197-14.296.018 3.361-.244 8.001.158 10.94 2.649-.221 6.356-1.571 9.132-2.224z"/>
                    <path d="M229.228 242.25c-.061-.035 4.173-11.021 4.173-11.021l-6.193 9.855.137 2.381 1.884-1.215z"/>
                    <path d="M237.361 238.214c-3.285 1.574-8.426 3.805-11.487 5.681.863-4.005 1.685-10.314 2.197-14.192.018 3.33-.244 7.929.158 10.836 2.649-.254 6.356-1.642 9.132-2.326z"/>
                    <path d="M228.511 243.521c-.049-.053 6.363-9.69 6.363-9.69l-7.995 7.942-.403 2.398 2.035-.65z"/>
                    <path d="M236.991 237.96c-2.941 2.372-7.592 5.863-10.248 8.465.031-4.051-.454-10.291-.746-14.128.706 3.173 1.395 7.633 2.395 10.301 2.582-.944 5.981-3.25 8.6-4.638z"/>
                    <path d="M229.147 244.259c-.069-.009.728-11.708.728-11.708l-3.02 11.398.842 2.138 1.451-1.827z"/>
                    <path d="M236.247 238.925c-2.941 2.343-7.592 5.785-10.248 8.363.031-4.077-.454-10.366-.746-14.233.706 3.205 1.395 7.705 2.395 10.406 2.582-.911 5.981-3.18 8.6-4.537z"/>
                    <path d="M228.245 245.726c-.065-.028 2.955-11.388 2.955-11.388l-5.092 10.456.394 2.345 1.743-1.413z"/>
                    <path d="M235.772 239.226c-2.799 2.761-7.253 6.858-9.73 9.825-.412-4.179-1.599-10.558-2.323-14.481 1.081 3.195 2.286 7.717 3.618 10.36 2.581-1.25 5.863-3.992 8.435-5.704z"/>
                    <path d="M227.932 247.099c-.072-.011.685-12.059.685-12.059l-3.055 11.71.882 2.215 1.488-1.865z"/>
                    <path d="M235.245 241.308c-2.952 2.488-7.626 6.149-10.28 8.876-.074-4.233-.733-10.751-1.131-14.759.805 3.314 1.627 7.971 2.721 10.755 2.621-.994 6.043-3.414 8.691-4.872z"/>
                    <path d="M227.569 249.007c-.062-.039 4.152-11.414 4.152-11.414l-6.211 10.132.157 2.497 1.903-1.215z"/>
                    <path d="M234.754 241.296c-2.662 2.809-6.899 6.979-9.256 9.995-.385-4.23-1.503-10.686-2.184-14.657 1.022 3.231 2.159 7.806 3.42 10.476 2.453-1.278 5.574-4.07 8.02-5.816z"/>
                    <path d="M227.624 249.465c-.073-.001-.49-12.055-.49-12.055l-1.919 12.016 1.1 2.083 1.309-2.044z"/>
                    <path d="M234.027 241.969c-2.517 2.809-6.535 6.979-8.744 9.995-.54-4.23-1.888-10.686-2.71-14.657 1.13 3.231 2.425 7.806 3.77 10.476 2.37-1.278 5.34-4.07 7.684-5.816z"/>
                    <path d="M226.46 250.522c-.067-.02 1.429-12.229 1.429-12.229l-3.644 11.568.689 2.375 1.526-1.714z"/>
                    <path d="M233.179 242.808c-2.335 3.082-6.084 7.688-8.093 10.944-.852-4.176-2.679-10.493-3.797-14.379 1.374 3.113 3.013 7.552 4.563 10.081 2.297-1.534 5.09-4.648 7.327-6.647z"/>
                    <path d="M226.739 251.841c-.069-.002-.756-12.241-.756-12.241l-1.537 12.163 1.096 2.131 1.196-2.053z"/>
                    <path d="M232.688 243.44c-2.219 3.219-5.798 8.042-7.682 11.419-1.033-4.149-3.139-10.397-4.428-14.24 1.515 3.053 3.351 7.426 5.017 9.883 2.247-1.662 4.926-4.937 7.093-7.063z"/>
                    <path d="M227.591 252.704c-.067-.022 1.265-12.271 1.265-12.271l-3.479 11.533.717 2.415 1.498-1.677z"/>
                    <path d="M232.599 244.556c-1.882 3.503-4.949 8.785-6.487 12.4-1.396-3.991-4.038-9.925-5.656-13.577 1.767 2.835 3.971 6.94 5.833 9.161 2.052-1.957 4.379-5.577 6.31-7.984z"/>
                    <path d="M227.016 253.831c-.068.019-3.372-11.694-3.372-11.694l1.119 12.316 1.528 1.743.725-2.364z"/>
                    <path d="M232.264 245.56c-1.989 3.455-5.225 8.664-6.86 12.229-1.397-3.939-4.059-9.797-5.69-13.402 1.795 2.799 4.026 6.851 5.926 9.045 2.146-1.929 4.598-5.499 6.624-7.873z"/>
                    <path d="M226.834 256.363c-.072 0-1.128-12.363-1.128-12.363l-1.242 12.363 1.193 2.119 1.177-2.119z"/>
                    <path d="M232.522 246.785c-2.037 3.425-5.347 8.586-7.031 12.128-1.345-3.965-3.931-9.872-5.515-13.507 1.759 2.831 3.938 6.923 5.809 9.149 2.174-1.895 4.676-5.428 6.736-7.771z"/>
                    <path d="M227.168 257.152c-.072.009-2.282-12.029-2.282-12.029l-.088 12.339 1.391 1.931.98-2.242z"/>
                    <path d="M232.032 248.781c-2.152 3.307-5.633 8.275-7.441 11.723-1.163-4.07-3.471-10.172-4.884-13.926 1.619 2.958 3.6 7.21 5.355 9.569 2.225-1.762 4.84-5.147 6.97-7.366z"/>
                    <path d="M226.062 258.74c-.069-.019 1.057-12.372 1.057-12.372l-3.35 11.751.785 2.383 1.507-1.761z"/>
                    <path d="M232.138 249.206c-1.844 3.591-4.862 9.018-6.348 12.703-1.552-3.912-4.444-9.7-6.217-13.263 1.903 2.74 4.292 6.724 6.276 8.847 2.063-2.057 4.364-5.787 6.289-8.288z"/>
                    <path d="M225.722 259.458c-.069.022-3.723-11.466-3.723-11.466l1.431 12.204 1.605 1.654.688-2.393z"/>
                    <path d="M231.657 249.806c-1.283 3.907-3.45 9.864-4.368 13.78-2.096-3.44-5.781-8.394-8.042-11.445 2.268 2.223 5.196 5.541 7.453 7.147 1.723-2.468 3.434-6.615 4.957-9.482z"/>
                    <path d="M228.905 260.065c-.069.025-4.053-11.259-4.053-11.259l1.76 12.075 1.661 1.586.631-2.402z"/>
                    <path d="M231.36 250.892c-1.283 3.907-3.45 9.864-4.368 13.78-2.096-3.44-5.781-8.394-8.042-11.445 2.268 2.223 5.196 5.541 7.453 7.147 1.723-2.468 3.434-6.615 4.957-9.482z"/>
                    <path d="M228.825 262.188c-.066.035-5.143-10.573-5.143-10.573l2.967 11.739 1.799 1.321.377-2.487z"/>
                    <path d="M230.867 252.056c-.838 4.075-2.324 10.32-2.8 14.35-2.458-3.1-6.658-7.463-9.236-10.151 2.494 1.864 5.762 4.718 8.176 5.97 1.433-2.712 2.669-7.091 3.86-10.17z"/>
                    <path d="M229.321 264.325c-.071.014-2.755-11.944-2.755-11.944l.424 12.41 1.455 1.851.876-2.317z"/>
                    <path d="M231.054 253.313c-.442 4.166-1.32 10.578-1.402 14.647-2.768-2.734-7.406-6.478-10.254-8.786 2.683 1.502 6.24 3.877 8.782 4.782 1.172-2.896 1.982-7.419 2.874-10.644z"/>
                    <path d="M229.599 264.973c-.055.055-7.425-8.565-7.425-8.565l5.599 10.391 2.043.698-.217-2.524z"/>
                    <path d="M231.355 254.541c-.442 4.136-1.32 10.501-1.402 14.546-2.768-2.76-7.406-6.553-10.254-8.891 2.683 1.533 6.24 3.949 8.782 4.887 1.172-2.862 1.982-7.348 2.874-10.543z"/>
                    <path d="M229.868 267.023c-.065.039-5.616-10.345-5.616-10.345l3.479 11.627 1.864 1.233.273-2.515z"/>
                    <path d="M231.243 256.661c-.316 4.206-.999 10.69-.96 14.78-2.845-2.603-7.588-6.125-10.5-8.296 2.723 1.37 6.345 3.573 8.911 4.351 1.082-2.968 1.755-7.551 2.549-10.836z"/>
                    <path d="M230.862 268.66c-.058.052-6.973-8.958-6.973-8.958l5.069 10.667 1.998.815-.094-2.524z"/>
                    <path d="M231.791 258.581c-.238 4.206-.8 10.69-.688 14.78-2.871-2.603-7.641-6.125-10.571-8.296 2.728 1.37 6.362 3.573 8.922 4.351 1.021-2.968 1.607-7.551 2.336-10.836z"/>
                    <path d="M231.217 270.692c-.067.032-4.835-10.967-4.835-10.967l2.62 12.016 1.763 1.438.452-2.487z"/>
                    <path d="M231.906 259.83c.14 4.219.16 10.749.641 14.806-3.102-2.212-8.187-5.087-11.309-6.861 2.849 1.003 6.679 2.715 9.307 3.152.754-3.09.927-7.731 1.361-11.098z"/>
                    <path d="M232.265 269.716c-.042.069-9.005-6.167-9.005-6.167l7.606 8.46 2.133.091-.735-2.383z"/>
                    <path d="M232.06 260.107c.344 4.181.68 10.662 1.355 14.667-3.205-2.056-8.422-4.68-11.626-6.301 2.894.867 6.801 2.394 9.447 2.709.604-3.101.553-7.715.823-11.076z"/>
                    <path d="M233.18 272.215c-.055.053-7.425-8.772-7.425-8.772l5.599 10.52 2.043.767-.217-2.515z"/>
                    <path d="M232.53 261.796c.499 4.173 1.078 10.652 1.899 14.63-3.256-1.873-8.528-4.199-11.767-5.635 2.902.7 6.835 2.001 9.471 2.161.481-3.145.256-7.769.397-11.156z"/>
                    <path d="M234.661 273.499c-.042.068-8.84-6.353-8.84-6.353l7.441 8.607 2.105.139-.706-2.393z"/>
                    <path d="M232.927 263.584c.781 4.127 1.796 10.556 2.886 14.453-3.385-1.535-8.817-3.311-12.155-4.41 2.951.396 6.974 1.287 9.623 1.171.27-3.201-.267-7.808-.355-11.215z"/>
                    <path d="M235.389 275.112c-.056.052-7.281-8.958-7.281-8.958l5.416 10.667 2.035.815-.17-2.524z"/>
                    <path d="M233.563 264.728c1.169 4.014 2.791 10.294 4.246 14.036-3.512-1.066-9.084-2.091-12.508-2.728 2.973-.011 7.059.324 9.682-.157-.037-3.234-1.009-7.761-1.42-11.152z"/>
                    <path d="M236.385 275.362c-.015.082-10.331-2.308-10.331-2.308l9.826 5.028 1.984-.751-1.479-1.969z"/>
                    <path d="M233.918 265.661c1.121 3.984 2.669 10.217 4.075 13.935-3.46-1.092-8.955-2.166-12.332-2.833 2.937.021 6.97.396 9.565-.052-.009-3.2-.931-7.691-1.308-11.05z"/>
                    <path d="M237.796 275.83c-.031.074-9.782-4.764-9.782-4.764l8.772 7.212 2.103-.215-1.093-2.232z"/>
                    <path d="M233.495 266.487c1.938 3.641 4.771 9.383 6.928 12.696-3.585-.26-9.136-.026-12.549.11 2.849-.667 6.835-1.243 9.252-2.289-.693-3.133-2.547-7.316-3.631-10.518z"/>
                    <path d="M239.231 276.918c-.02.08-10.251-2.845-10.251-2.845l9.59 5.487 2.036-.626-1.375-2.016z"/>
                    <path d="M234.823 268.182c1.986 3.641 4.893 9.383 7.099 12.696-3.637-.26-9.264-.026-12.725.11 2.885-.667 6.923-1.243 9.368-2.289-.721-3.133-2.625-7.316-3.743-10.518z"/>
                    <path d="M240.928 277.991c-.036.069-9.558-5.838-9.558-5.838l8.354 8.13 2.146.034-.942-2.327z"/>
                    <path d="M235.485 269.31c2.289 3.42 5.679 8.845 8.149 11.906-3.556.208-8.996 1.172-12.342 1.758 2.734-1.047 6.598-2.151 8.868-3.524-1.01-3.071-3.273-7.05-4.676-10.14z"/>
                    <path d="M241.336 278.87c-.004.085-10.284-.287-10.284-.287l10.167 3.085 1.812-1.13-1.695-1.667z"/>
                    <path d="M247.555 228.012c.001-.033 7.439-1.253 7.439-1.253l-7.4.165-1.292.673 1.253.414z"/>
                    <path d="M251.77 229.714c-2.143-.661-5.38-1.768-7.582-2.254 2.358-.97 5.85-2.687 8-3.741-1.657 1.066-4.063 2.438-5.35 3.505 1.221.856 3.444 1.725 4.932 2.489z"/>
                    <path d="M247.434 228.443c-.008-.032 7.105-2.056 7.105-2.056l-7.377 1.007-1.103.795 1.375.254z"/>
                    <path d="M252.299 230.356c-2.488-.228-6.303-.702-8.759-.711 1.86-1.723 4.469-4.602 6.077-6.37-1.108 1.659-2.809 3.861-3.545 5.428 1.665.688 4.342 1.139 6.228 1.653z"/>
                    <path d="M244.414 229.155c.006-.033 7.524-.923 7.524-.923l-7.329-.165-1.372.617 1.177.471z"/>
                    <path d="M250.11 230.388c-2.29-.457-5.768-1.249-8.088-1.539 2.226-1.073 5.475-2.922 7.476-4.057-1.498 1.111-3.704 2.56-4.826 3.645 1.387.706 3.796 1.35 5.439 1.951z"/>
                    <path d="M243.982 228.685c-.019-.028 6.584-2.816 6.584-2.816l-7.206 1.884-.867.876 1.488.057z"/>
                    <path d="M250.066 231.271c-1.887-.81-4.779-2.182-6.647-2.754 1.447-1.388 3.486-3.822 4.742-5.315-.874 1.493-2.209 3.422-2.799 4.903 1.253 1.106 3.28 2.193 4.704 3.166z"/>
                    <path d="M243.937 229.419c-.014-.045 5.185-2.289 5.185-2.289l-5.652.812-.692 1.015 1.159.462z"/>
                    <path d="M239.997 278.336c.004.084-10.651.021-10.651.021l10.768 2.737 1.777-1.167-1.893-1.592z"/>
                    <path d="M241.983 278.652c-.013.079-10.783-2.536-10.783-2.536l10.355 5.139 2.029-.663-1.601-1.94z"/>
                    <path d="M243.766 279.165c0 .082-10.715-.494-10.715-.494l10.715 3.214 1.837-1.062-1.837-1.658z"/>
                    <path d="M236.771 271.455c2.766 3.083 6.907 7.996 9.813 10.711-3.605.57-9.038 2.071-12.381 2.986 2.661-1.299 6.467-2.772 8.613-4.34-1.416-2.876-4.226-6.503-6.045-9.357z"/>
                    <path d="M245.222 280.164c-.02.077-10.745-3.568-10.745-3.568l10.085 6.093 2.121-.453-1.46-2.072z"/>
                    <path d="M237.796 272.427c3.02 2.803 7.572 7.302 10.692 9.719-3.473.985-8.642 3.119-11.823 4.423 2.474-1.616 6.053-3.537 7.996-5.366-1.678-2.748-4.796-6.097-6.866-8.777z"/>
                    <path d="M245.783 280.662c.016.084-10.088 1.999-10.088 1.999l10.632.759 1.5-1.506-2.044-1.253z"/>
                    <path d="M243.498 279.896c.009.082-10.545.824-10.545.824l10.856 1.896 1.677-1.288-1.987-1.432z"/>
                    <path d="M245.529 280.396c-.007.08-10.842-1.691-10.842-1.691l10.609 4.333 1.957-.824-1.724-1.818z"/>
                    <path d="M247.817 281.331c.006.082-10.773.165-10.773.165l10.968 2.555 1.765-1.175-1.959-1.545z"/>
                    <path d="M240.384 274.074c3.009 2.919 7.538 7.589 10.661 10.13-3.577.804-8.92 2.659-12.208 3.792 2.574-1.476 6.285-3.199 8.322-4.911-1.639-2.798-4.733-6.261-6.775-9.011z"/>
                    <path d="M249.256 281.505c-.014.078-10.969-2.722-10.969-2.722l10.503 5.287 2.077-.615-1.611-1.95z"/>
                    <path d="M241.471 274.404c3.245 2.562 8.16 6.696 11.471 8.865-3.367 1.244-8.321 3.761-11.369 5.301 2.319-1.796 5.71-3.98 7.483-5.948-1.906-2.608-5.295-5.707-7.585-8.217z"/>
                    <path d="M249.988 281.955c.022.082-9.982 2.802-9.982 2.802l10.72-.082 1.4-1.627-2.138-1.093z"/>
                </g>
                <g>
                    <path d="M276.516 254.643c0 11.72-9.179 21.221-20.501 21.221-11.322 0-20.501-9.501-20.501-21.221s9.179-21.221 20.501-21.221c11.322 0 20.501 9.501 20.501 21.221z" fill-rule="evenodd" fill="#3d25ca"/>
                    <path d="M268.292 267.432l-11.384-7.071-11.384 7.071 4.269-11.314-9.961-7.071h12.807l4.269-11.314 4.269 11.314h12.807l-9.961 7.071 4.269 11.314z" fill-rule="evenodd" fill="#ffd900"/>
                    <path d="M239.822 249.115l17.008 4.252" fill="none"/>
                    <path d="M256.831 237.777v15.59" fill="none"/>
                    <path d="M256.831 253.367v7.087" fill="none"/>
                    <path d="M256.831 253.367l7.087 2.835" fill="none"/>
                    <path d="M252.578 249.115l4.252 4.252" fill="none"/>
                    <path d="M256.831 253.367l4.252-4.252" fill="none"/>
                    <path d="M273.838 249.115l-17.007 4.252" fill="none"/>
                    <path d="M256.831 253.367l11.338 14.174" fill="none"/>
                    <path d="M256.831 253.367l-11.339 14.174" fill="none"/>
                    <path d="M249.743 256.203l7.087-2.835" fill="none"/>
                </g>
            </g>
            <g>
                <path d="M297.994 255.873c0 23.237-18.858 42.095-42.095 42.095s-42.095-18.858-42.095-42.095c0-23.235 18.858-42.095 42.095-42.095 23.235 0 42.095 18.858 42.095 42.095zm14.032 0c0 30.981-25.144 56.125-56.125 56.125s-56.125-25.144-56.125-56.125 25.144-56.125 56.125-56.125 56.125 25.144 56.125 56.125z" fill-rule="evenodd" stroke="#000" fill="#d60000" stroke-width="0.198"/>
                <path d="M298.462 266.084l3.701 1.372 6.143-1.119-.462 1.247-3.201.551c-.597.099-1.187.179-1.77.239.371.401.781.874 1.231 1.417l2.013 2.452-.442 1.194-3.891-4.956-3.701-1.372.38-1.025z" fill="#ffe600"/>
                <path d="M309.263 251.847l.121 1.086-5.345.594c-.93.103-1.679.092-2.246-.034-.568-.126-1.051-.414-1.45-.864-.395-.447-.636-1.066-.724-1.856-.085-.769-.006-1.413.239-1.934.244-.522.637-.918 1.178-1.19.545-.272 1.307-.462 2.288-.571l5.345-.594.121 1.085-5.339.593c-.804.089-1.389.221-1.758.394-.364.176-.631.435-.802.779-.17.348-.229.754-.177 1.221.089.797.356 1.343.802 1.638.446.293 1.249.376 2.41.247l5.339-.593z" fill="#ffe600"/>
                <path d="M301.686 240.659l1.067-.217.701 3.414-3.376.687c-.578-.428-1.044-.896-1.397-1.405-.349-.51-.584-1.057-.703-1.644-.161-.792-.118-1.552.131-2.278.253-.724.709-1.324 1.365-1.802.657-.477 1.432-.806 2.326-.988.885-.18 1.744-.185 2.576-.014.837.173 1.504.53 2.001 1.07.498.54.828 1.212.991 2.016.119.583.118 1.131-.002 1.644-.115.516-.335.947-.661 1.292-.326.345-.781.65-1.365.913l-.493-.902c.439-.215.772-.44 1-.673.228-.234.387-.533.476-.899.093-.366.099-.753.016-1.16-.099-.488-.27-.892-.512-1.214-.238-.322-.516-.566-.833-.73-.317-.16-.651-.268-1.003-.323-.604-.091-1.235-.069-1.893.065-.811.165-1.464.426-1.96.782-.495.361-.827.805-.996 1.332-.168.527-.199 1.056-.091 1.587.094.462.285.893.573 1.293.292.398.575.689.849.87l1.694-.345-.482-2.37z" fill="#ffe600"/>
                <path d="M262.519 211.363l1.593-9.149 1.072.187-1.405 8.069 3.994.696-.188 1.08-5.067-.882z" fill="#ffe600"/>
                <path d="M253.531 210.899v-9.303h5.962v1.098h-4.871v2.849h4.562v1.091h-4.562v3.167h5.062v1.098h-6.153z" fill="#ffe600"/>
                <path d="M227.936 216.714l1.034-.474c.485.92.674 1.778.567 2.572-.107.789-.488 1.464-1.142 2.024-.678.579-1.362.897-2.053.951-.69.049-1.399-.127-2.127-.526-.725-.402-1.377-.942-1.956-1.619-.632-.739-1.057-1.489-1.278-2.249-.22-.767-.221-1.489-.004-2.166.218-.683.605-1.262 1.159-1.736.63-.538 1.312-.809 2.05-.815.738-.005 1.471.247 2.2.757l-.633.918c-.587-.392-1.12-.586-1.598-.585-.479.002-.928.183-1.349.542-.483.413-.776.89-.879 1.429-.1.538-.026 1.083.22 1.638.243.551.566 1.06.965 1.528.516.603 1.044 1.065 1.584 1.384.541.314 1.07.441 1.59.383.519-.059.97-.252 1.353-.579.466-.399.731-.888.795-1.467.064-.58-.102-1.216-.498-1.911z" fill="#ffe600"/>
                <path d="M223.945 224.858l-6.939-6.219.73-.814 6.939 6.219-.73.814z" fill="#ffe600"/>
                <path d="M219.439 230.067l-7.401-5.654.663-.868 6.528 4.987 2.468-3.23.873.667-3.131 4.099z" fill="#ffe600"/>
                <path d="M205.556 235.767l.404-1.012 4.989 1.99c.868.346 1.523.707 1.964 1.085.441.378.732.859.872 1.443.137.58.059 1.238-.235 1.976-.286.717-.659 1.248-1.12 1.593-.46.344-.993.51-1.597.494-.608-.016-1.369-.207-2.284-.572l-4.989-1.99.404-1.012 4.983 1.987c.75.299 1.328.458 1.734.48.404.015.761-.088 1.073-.311.313-.226.556-.557.73-.992.297-.745.318-1.352.064-1.821-.255-.468-.924-.919-2.007-1.351l-4.983-1.987z" fill="#ffe600"/>
                <path d="M210.996 258.111l-9.303.103-.066-5.962 1.098-.012.054 4.872 2.849-.031-.05-4.562 1.091-.012.05 4.562 3.167-.035-.056-5.063 1.098-.012.068 6.153z" fill="#ffe600"/>
                <path d="M245.633 212.073l-1.85-9.097 2.778-.565c.627-.128 1.114-.181 1.462-.162.486.026.925.163 1.315.411.508.319.931.774 1.268 1.364.341.586.593 1.284.758 2.094.141.691.194 1.318.16 1.88-.035.563-.128 1.043-.28 1.44-.153.393-.343.718-.569.975-.224.252-.514.468-.871.649-.353.179-.773.319-1.261.418l-2.909.592zm.848-1.29l1.722-.35c.532-.108.937-.249 1.214-.422.282-.174.492-.38.631-.619.195-.337.313-.759.355-1.268.044-.513-.004-1.113-.143-1.8-.193-.951-.481-1.653-.863-2.106-.379-.457-.784-.732-1.216-.825-.311-.066-.784-.034-1.419.095l-1.694.345 1.414 6.95z" fill="#ffe600"/>
                <path d="M275.52 215.972l4.317-8.224 2.75 1.444c.484.254.84.474 1.067.66.323.255.555.542.697.86.144.314.2.68.166 1.096-.029.419-.151.832-.365 1.24-.367.699-.875 1.189-1.525 1.468-.648.275-1.487.142-2.518-.399l-1.869-.981-1.755 3.343-.965-.507zm3.23-3.807l1.885.989c.623.327 1.135.429 1.533.304.4-.124.724-.424.973-.899.181-.344.257-.679.229-1.003-.023-.327-.14-.596-.351-.807-.137-.134-.424-.316-.862-.545l-1.864-.979-1.543 2.939z" fill="#ffe600"/>
                <path d="M280.676 218.491l8.581-4.821.876.785-3.702 9.195-.927-.831 1.166-2.744-2.572-2.305-2.559 1.496-.864-.775zm4.328-1.259l2.086 1.869 1.08-2.497c.328-.759.612-1.369.853-1.83-.478.374-.984.717-1.519 1.028l-2.5 1.429z" fill="#ffe600"/>
                <path d="M287.017 224.821l7.401-5.654 2.222 2.908c.447.585.719 1.081.817 1.488.101.405.053.826-.144 1.266-.198.439-.5.814-.907 1.125-.525.401-1.083.589-1.673.562-.59-.026-1.175-.317-1.753-.872.051.325.061.593.032.805-.069.454-.214.945-.434 1.472l-1.143 2.68-.834-1.092.877-2.044c.251-.593.431-1.062.541-1.406.111-.343.162-.618.156-.821-.004-.2-.038-.382-.103-.544-.052-.117-.163-.287-.334-.51l-.769-1.007-3.287 2.511-.663-.868zm4.798-2.29l1.425 1.866c.303.396.586.672.848.827.265.152.543.208.834.171.294-.041.561-.152.799-.335.35-.267.551-.6.604-.999.055-.396-.104-.837-.476-1.324l-1.586-2.076-2.449 1.87z" fill="#ffe600"/>
                <path d="M292.024 230.924l9.66-1.758.571 1.026-6.48 7.469-.604-1.085 1.992-2.209-1.676-3.01-2.9.58-.563-1.012zm4.491.219l1.36 2.441 1.83-2.004c.556-.609 1.022-1.093 1.4-1.448-.572.198-1.161.357-1.767.476l-2.822.536z" fill="#ffe600"/>
                <path d="M300.232 255.022l8.919 4.126-.123 1.168-9.606 2.38.13-1.236 2.903-.661.362-3.429-2.707-1.196.122-1.152zm3.549 2.767l-.293 2.78 2.652-.585c.806-.18 1.466-.306 1.98-.379-.582-.168-1.155-.377-1.72-.629l-2.618-1.188z" fill="#ffe600"/>
                <path d="M212.509 266.761l-9.097 2.004-.788-3.575c-.158-.719-.196-1.284-.113-1.694.079-.41.3-.772.665-1.087.364-.315.797-.527 1.298-.637.645-.142 1.23-.077 1.755.196.524.272.932.783 1.222 1.53.091-.316.195-.564.311-.744.254-.383.592-.766 1.015-1.152l2.167-1.948.296 1.342-1.658 1.483c-.477.432-.839.781-1.084 1.047-.245.265-.408.491-.488.678-.081.183-.126.362-.136.537-.002.127.027.329.087.604l.273 1.237 4.04-.89.235 1.067zm-5.317.052l-.505-2.293c-.107-.487-.247-.857-.42-1.107-.176-.25-.404-.418-.684-.507-.284-.087-.573-.098-.866-.034-.43.095-.753.312-.969.652-.217.336-.259.803-.127 1.401l.562 2.551 3.01-.663z" fill="#ffe600"/>
                <path d="M211.282 250.065l-9.251-.822.275-3.093c.048-.545.115-.958.199-1.24.112-.396.287-.72.525-.974.235-.253.551-.445.948-.575.398-.134.826-.181 1.285-.14.787.07 1.434.352 1.941.843.503.492.703 1.318.6 2.478l-.187 2.103 3.761.334-.096 1.085zm-4.756-1.517l.188-2.12c.062-.701-.041-1.211-.309-1.532-.268-.321-.67-.505-1.204-.553-.387-.034-.725.024-1.014.174-.293.147-.496.358-.61.634-.071.178-.128.513-.172 1.006l-.186 2.097 3.307.294z" fill="#ffe600"/>
                <path d="M215.241 236.085l-7.761-5.14 1.709-2.581c.348-.525.706-.893 1.074-1.104.366-.216.773-.305 1.22-.266.445.034.845.169 1.202.405.332.22.592.506.779.859.187.354.264.751.23 1.193.413-.325.859-.488 1.338-.491.481-.005.947.141 1.399.44.363.241.657.534.88.88.221.34.35.667.387.979s-.001.65-.114 1.012c-.114.356-.316.754-.606 1.191l-1.738 2.624zm-3.897-3.891l.985-1.487c.267-.404.429-.713.485-.928.076-.283.062-.542-.041-.777-.101-.238-.288-.447-.56-.627-.258-.171-.52-.266-.786-.285-.27-.022-.508.046-.713.203-.209.154-.477.478-.804.972l-.911 1.375 2.345 1.553zm3.584 2.373l1.135-1.713c.195-.294.319-.509.373-.644.096-.238.142-.459.136-.666-.006-.206-.072-.417-.199-.632-.131-.217-.319-.407-.566-.571-.289-.192-.583-.292-.882-.301-.302-.011-.574.073-.814.251-.242.173-.507.479-.798.917l-1.053 1.59 2.668 1.767z" fill="#ffe600"/>
                <path d="M230.424 218.392l-2.257-9.543.994-.624 7.786 6.074-1.05.659-2.307-1.871-2.915 1.829.728 2.862-.979.614zm-.015-4.491l2.363-1.483-2.094-1.722c-.637-.522-1.143-.962-1.518-1.32.228.56.417 1.139.567 1.738l.682 2.787z" fill="#ffe600"/>
            </g>
        </g>
    </g>
</svg>
