<svg xmlns="http://www.w3.org/2000/svg" id="flag-icon-css-py" width="512" height="512">
  <path fill="#0038a8" d="M0 341.01h512V512H0z"/>
  <path fill="#fff" d="M0 170.67h512v170.66H0z"/>
  <path fill="#d52b1e" d="M0 0h512v170.67H0z"/>
  <g fill="none" stroke="#000" transform="translate(-208.96) scale(1.55152)">
    <circle cx="300" cy="165" r="42.2" stroke-width="1.08"/>
    <circle cx="300" cy="165" r="34.67" stroke-width=".48"/>
    <circle cx="300" cy="165" r="26.56" stroke-width=".44"/>
  </g>
  <path d="M221.64 281.26l-7.6 4.5-2.31-3.9a6.56 6.56 0 0 1-.8-1.78 2.06 2.06 0 0 1 .14-1.33c.2-.44.53-.8 1.02-1.09.42-.25.83-.37 1.25-.37.4 0 .8.1 1.18.3.24.13.5.34.79.64a2.7 2.7 0 0 1-.09-.78c.01-.12.07-.32.18-.6.1-.3.2-.5.28-.62l1.52-2.44 1.58 2.65-1.58 2.63c-.2.34-.32.6-.33.78a1.15 1.15 0 0 0 .16.68l.13.2 3.08-1.83zm-5.92.33l-.58-1c-.07-.1-.22-.29-.48-.56a.72.72 0 0 0-.46-.23.82.82 0 0 0-.53.11c-.24.15-.38.34-.42.57-.04.23.07.56.32 1l.6 1.02zm-7.14-5.87l-2.31-6.94 1.79-.6 1.44 4.35 1.33-.44-1.34-4.03 1.71-.57 1.34 4.03 1.65-.55-1.48-4.47 1.9-.63 2.34 7.07zm-3.03-10.32l-.52-4.5c-.1-.98.04-1.75.45-2.29.41-.54 1.05-.86 1.91-.96.89-.1 1.6.09 2.17.56.56.48.9 1.26 1.03 2.36l.17 1.48 3.25-.37.31 2.72zm3.43-3.15l-.08-.66c-.06-.52-.2-.88-.4-1.07a.88.88 0 0 0-.73-.24.98.98 0 0 0-.67.36c-.17.2-.23.56-.17 1.06l.09.78zm-3.71-13.42l.3-2.7 5.23.56c.52.06 1 .2 1.44.4.44.21.82.51 1.12.9.31.38.52.76.61 1.16.15.55.18 1.19.1 1.93-.05.43-.13.89-.25 1.39-.11.5-.27.9-.49 1.22-.21.32-.5.6-.86.85a2.8 2.8 0 0 1-1.07.47c-.58.11-1.08.14-1.51.1l-5.24-.57.3-2.7 5.36.57c.47.05.86-.04 1.16-.28.3-.23.47-.59.52-1.06a1.5 1.5 0 0 0-.28-1.14c-.23-.3-.6-.47-1.08-.52zm1.18-6.47l1.68-4.82c.28-.8.7-1.35 1.25-1.64a2.05 2.05 0 0 1 1.7-.13c.5.17.86.48 1.1.9.17.3.25.66.25 1.1.36-.55.76-.9 1.2-1.06.46-.16.95-.15 1.48.03a2.39 2.39 0 0 1 1.59 1.82c.05.26.02.62-.07 1.08-.13.6-.22 1-.3 1.19l-1.54 4.45zm4.18-1.45l.39-1.12c.14-.4.17-.7.08-.91-.08-.2-.25-.36-.51-.45a.76.76 0 0 0-.65.04c-.2.1-.36.36-.5.75l-.4 1.14zm3.27 1.14l.46-1.31c.15-.45.18-.79.09-1.02a.84.84 0 0 0-.54-.5.78.78 0 0 0-.68.07c-.22.12-.4.41-.56.86l-.46 1.31zm-3.28-10.3l1.41-2.33 5.7 3.43 2.2-3.64 1.86 1.12-3.61 5.98zm5.34-8.08l1.75-2.1 6.78 5.65-1.75 2.1zm11.87-4.56l2.28-1.01c.32.6.5 1.2.52 1.76a3.3 3.3 0 0 1-.3 1.61c-.25.51-.67 1.02-1.27 1.54a5.68 5.68 0 0 1-2.05 1.21c-.65.19-1.36.16-2.16-.09a5 5 0 0 1-2.26-1.61c-.95-1.11-1.39-2.22-1.31-3.32.08-1.1.66-2.11 1.73-3.04a4.48 4.48 0 0 1 2.43-1.2c.78-.07 1.59.14 2.43.65l-1.48 1.98a2.07 2.07 0 0 0-.59-.28 1.57 1.57 0 0 0-.74 0 1.61 1.61 0 0 0-.67.36c-.47.4-.66.9-.59 1.49.05.44.34.96.85 1.56.64.75 1.2 1.16 1.65 1.24.46.08.9-.05 1.3-.4.4-.34.6-.71.62-1.1 0-.4-.12-.85-.4-1.35zm9.4-3.39l-2.74 1.46.3 1.5-2.45 1.3-1.23-9.35 2.63-1.4 7.08 6.23-2.52 1.34zm-1.4-1.41l-2.36-2.34.64 3.25zm8.34-9.04l3.99-.7a4.85 4.85 0 0 1 1.96 0c.53.13.98.36 1.36.7.39.35.7.78.93 1.28.24.51.4 1.06.5 1.65.17.93.19 1.67.06 2.22a3.63 3.63 0 0 1-.66 1.44 2.9 2.9 0 0 1-1.09.9c-.56.26-1.08.43-1.56.52l-4 .69zm3.03 1.5l.82 4.75.66-.1c.56-.1.95-.24 1.16-.4.22-.17.37-.42.45-.75.08-.34.06-.85-.06-1.55-.16-.92-.42-1.52-.78-1.81-.36-.29-.89-.37-1.58-.25zm8.3-3.02l7.31.3-.08 1.9-4.57-.2-.06 1.4 4.24.18-.08 1.8-4.24-.18-.07 1.74 4.7.2-.08 2-7.44-.32zm10.64.83l2.65.65-1.59 6.47 4.14 1-.52 2.12-6.78-1.66zm14.16 4.7l3.9 2.31c.85.5 1.37 1.08 1.56 1.74.18.65.05 1.35-.39 2.1a2.72 2.72 0 0 1-1.75 1.39c-.72.16-1.55-.04-2.5-.6l-1.29-.76-1.66 2.82-2.36-1.4zm.45 4.64l.57.34c.45.27.82.37 1.1.33a.88.88 0 0 0 .62-.44.98.98 0 0 0 .12-.75c-.06-.26-.3-.52-.75-.78l-.66-.4zm7.65 10.29l-2.27-2.12-1.31.78-2.04-1.9 8.44-4.2 2.18 2.02-3.58 8.73-2.1-1.95zm.88-1.79l1.45-2.99-2.87 1.67zm1.06 5.87l7.28-5 2.57 3.76c.48.69.78 1.26.92 1.71.13.45.11.9-.06 1.35-.17.44-.48.83-.94 1.14-.4.28-.81.43-1.23.46a2.45 2.45 0 0 1-1.2-.22 3.32 3.32 0 0 1-.83-.6c.1.34.14.6.14.78 0 .12-.05.33-.14.62-.08.3-.16.5-.23.63l-1.37 2.53-1.74-2.54 1.4-2.73c.18-.35.28-.61.28-.79 0-.24-.07-.46-.21-.67l-.13-.2-2.96 2.03zm5.88-.71l.65.95c.07.1.24.28.51.52a.72.72 0 0 0 .48.21c.18.01.36-.04.52-.15a.81.81 0 0 0 .38-.59c.03-.23-.1-.56-.38-.97l-.68-.99zm2.73 13.22l-1.15-2.89-1.51.14-1.04-2.59 9.43-.19 1.1 2.77-6.96 6.35-1.06-2.65zm1.56-1.24l2.59-2.08-3.3.27zm2.3 9.64l1.82-.27.62 4.17-3.72.56a8.62 8.62 0 0 1-1.43-1.95c-.28-.59-.5-1.3-.62-2.14-.15-1.04-.1-1.9.15-2.62.26-.7.71-1.29 1.35-1.75a5.25 5.25 0 0 1 2.33-.9 5.07 5.07 0 0 1 2.58.22 3.86 3.86 0 0 1 1.86 1.49c.37.55.63 1.32.78 2.32.14.97.16 1.7.06 2.2a2.84 2.84 0 0 1-.63 1.32c-.32.37-.75.67-1.3.92l-.85-2.54c.31-.15.54-.37.68-.65.13-.29.17-.63.11-1.02a1.78 1.78 0 0 0-.83-1.32c-.46-.3-1.14-.37-2.03-.24-.94.14-1.59.42-1.94.84a1.9 1.9 0 0 0-.39 1.57c.05.3.13.59.26.85s.33.55.6.87l.81-.12zm5.78 12.82l-.25 2.71-5.24-.47a4.44 4.44 0 0 1-1.45-.37 3.2 3.2 0 0 1-1.14-.87 3.03 3.03 0 0 1-.63-1.15 5.5 5.5 0 0 1-.13-1.93c.04-.43.11-.9.22-1.4s.26-.9.47-1.23a3.19 3.19 0 0 1 .84-.87 2.8 2.8 0 0 1 1.06-.49 5.3 5.3 0 0 1 1.51-.11l5.25.46-.25 2.71-5.36-.47c-.48-.05-.87.05-1.16.3-.3.24-.47.6-.5 1.07-.05.46.05.84.3 1.13.24.3.6.46 1.09.5zm-9.76 9.34l.97-2.95-1.25-.86.87-2.65 7.35 5.9-.93 2.83-9.42.4.89-2.71zm1.99.05l3.32.07-2.71-1.91zm3.16 7.18l-1.56 2.6h-3.47l1.64 3.06-1.55 2.58-2.64-5.58-3.17-1.9 1.4-2.35 3.18 1.9z"/>
  <g fill="#009b3a" stroke="#000" stroke-width=".15">
    <path d="M265.16 225.44s24.9 10.73 20.55 32.9c-4.34 22.17-18.21 22.02-23.65 24.47-5.43 2.45-9.18 5.96-11.33 5.47-2.14-.49-4.98-2.15-4.98-2.15s-.23 3.64 4.14 4.3c4.37.67 10.1-5.74 12.86-6.45s19.69-2.55 23.8-25.11c4.82-24.09-21.24-32.73-21.4-33.44z"/>
    <path d="M277.73 230.15a3.42.81 75.1 0 1-1.64.13 3.42.81 75.1 1 1 1.64-.13z"/>
    <path d="M276.87 230.38a3.52.79 63.34 1 1-1.48.55 3.52.79 63.34 0 1 1.48-.55zm-2.5 1.65a3.34.83 17.05 0 1-.15 1.69 3.34.83 17.05 0 1 .15-1.69z"/>
    <path d="M274.75 231.11a3.5.79 34.23 1 1-.72 1.42 3.5.79 34.23 1 1 .72-1.42z"/>
    <path d="M275.8 230.68a3.57.78 46.2 1 1-1.08 1.11 3.57.78 46.2 0 1 1.08-1.11z"/>
    <path d="M277.54 233.81c.01.02-.96.55-1.18.62-.22.08-.52-.29-1.16.04-.63.32-1.07.92-1.2 1.27-.14.34.17.49.94.12.77-.38.97-.97 1.34-1.2.37-.23 1-.57 1.35-.7.15-.33.65-1.05.9-1.46.26-.4 1.27-1.09 1.63-1.88.32-.65.2-1.2-.23-.97-.42.23-.98.89-1.24 1.36-.25.47-.03 1.07-.32 1.51-.22.32-.77 1.3-.83 1.3zm7.71 2.55a1.15 5.13-1.58 1 1-2.31-.56 1.15 5.13-1.58 1 1 2.31.56z"/>
    <path d="M283.96 236.31a5.34 1.1 77.49 1 1-2.23.11 5.34 1.1 77.49 1 1 2.23-.1z"/>
    <path d="M279.98 237.55a4.98 1.19 34.91 1 1-.78 2.35 4.98 1.19 34.91 1 1 .78-2.35z"/>
    <path d="M280.78 236.42a5.32 1.11 50.9 0 1-1.46 1.71 5.32 1.11 50.9 1 1 1.46-1.7z"/>
    <path d="M282.4 236.26a5.44 1.08 61.84 1 1-1.87 1.11 5.44 1.08 61.84 1 1 1.87-1.1z"/>
    <path d="M283.76 241.53c.02.02-1.51.34-1.84.36-.33 0-.62-.66-1.61-.48-.99.19-1.79.84-2.1 1.28-.3.44.09.79 1.28.6 1.18-.2 1.66-.95 2.25-1.11.59-.17 1.56-.38 2.09-.4.32-.41 1.25-1.22 1.74-1.69s2.1-1 2.88-1.96c.66-.79.68-1.64 0-1.5-.67.14-1.65.83-2.16 1.4-.52.55-.4 1.51-.95 2.01-.42.36-1.5 1.51-1.58 1.48zm5.54 5.16a1.15 5.15 8.74 1 1-2.16-.99 1.15 5.15 8.74 1 1 2.16 1z"/>
    <path d="M288.07 246.38a1.1 5.38-2.05 1 1-2.2-.32 1.1 5.38-2.05 1 1 2.2.32z"/>
    <path d="M283.95 246.85a5 1.18 46.03 1 1-1.18 2.16 5 1.18 46.03 1 1 1.18-2.16z"/>
    <path d="M284.94 245.88a5.36 1.1 61.79 1 1-1.74 1.42 5.36 1.1 61.79 1 1 1.74-1.42z"/>
    <path d="M286.52 246.04a5.48 1.08 72.54 1 1-2.02.73 5.48 1.08 72.54 1 1 2.02-.73z"/>
    <path d="M286.93 251.49c0 .03-1.54.05-1.87 0-.33-.05-.49-.77-1.49-.78-1 0-1.9.49-2.28.86-.37.37-.05.8 1.14.84 1.2.04 1.8-.62 2.4-.67.6-.05 1.6-.07 2.12 0 .39-.34 1.44-.95 2-1.33.57-.37 2.25-.57 3.17-1.38.79-.65.96-1.49.28-1.48-.68.01-1.77.5-2.37.96-.6.45-.67 1.42-1.3 1.82-.47.27-1.73 1.2-1.8 1.16m2.68 6.71a1.15 5.15 31.31 0 1-1.57-1.8 1.15 5.15 31.31 0 1 1.57 1.8"/>
    <path d="M288.6 257.41a1.09 5.41 20.62 0 1-1.87-1.2 1.09 5.41 20.62 0 1 1.87 1.2m-3.9-1.27a5.08 1.16 69.93 0 1-1.92 1.52 5.08 1.16 69.93 0 1 1.91-1.52"/>
    <path d="M285.96 255.66a1.08 5.45-4.86 0 1-2.12.59 1.08 5.45-4.86 1 1 2.12-.59"/>
    <path d="M287.35 256.47a1.06 5.55 5.55 1 1-2.12-.16 1.06 5.55 5.55 1 1 2.12.16"/>
    <path d="M285.6 261.68c-.01.03-1.42-.59-1.7-.77-.27-.18-.14-.91-1.04-1.33-.9-.43-1.91-.34-2.4-.15-.49.19-.36.71.7 1.24 1.07.53 1.87.17 2.44.38.57.2 1.47.59 1.91.88.48-.16 1.67-.3 2.33-.4.66-.12 2.25.39 3.4.02.97-.28 1.45-.98.83-1.26a4.84 4.84 0 0 0-2.52-.09c-.72.18-1.15 1.04-1.87 1.15-.53.06-2.03.4-2.09.33m.92 8.2a1.34 5.87 48.46 1 1-1.14-2.56 1.34 5.87 48.46 1 1 1.14 2.57"/>
    <path d="M285.65 268.66a1.27 6.18 37.47 1 1-1.66-2.01 1.27 6.18 37.47 1 1 1.66 2.01"/>
    <path d="M281.77 265.84a1.33 5.91-3.48 1 1-2.6.99 1.33 5.91-3.48 1 1 2.6-1"/>
    <path d="M283.33 265.76a1.25 6.29 11.63 0 1-2.53-.12 1.25 6.29 11.63 1 1 2.53.12"/>
    <path d="M284.58 267.14a1.23 6.38 22.12 1 1-2.28-.94 1.23 6.38 22.12 1 1 2.28.94"/>
    <path d="M280.94 272.28c-.02.03-1.36-1.16-1.6-1.46-.25-.3.13-1.06-.72-1.86a3.9 3.9 0 0 0-2.6-1.02c-.59.03-.62.65.37 1.62 1 .97 2 .87 2.56 1.3.56.43 1.42 1.18 1.81 1.66.59 0 1.94.28 2.7.4.76.11 2.36 1.25 3.74 1.26 1.16.04 1.92-.57 1.33-1.09a5.63 5.63 0 0 0-2.74-1.01c-.86-.07-1.62.73-2.45.59-.6-.13-2.37-.3-2.4-.4m-2.45 7.84a1.5 6.47 79.75 1 1 .3-3.1 1.5 6.47 79.75 1 1-.3 3.1"/>
    <path d="M278.36 278.45a1.43 6.78 68.5 0 1-.5-2.87 1.43 6.78 68.5 0 1 .5 2.87"/>
    <path d="M276.14 273.52a1.5 6.49 26.24 0 1-3.05-.57 1.5 6.49 26.24 1 1 3.05.57"/>
    <path d="M277.7 274.36a1.41 6.88 41.82 0 1-2.38-1.58 1.41 6.88 41.82 0 1 2.38 1.58"/>
    <path d="M278.14 276.4a1.4 6.97 52.67 1 1-1.69-2.21 1.4 6.97 52.67 0 1 1.7 2.21"/>
    <path d="M271.81 279.17c-.03.02-.68-1.9-.75-2.32-.07-.43.72-.93.32-2.18a4.53 4.53 0 0 0-1.93-2.47c-.6-.32-.97.26-.54 1.76.43 1.5 1.46 1.97 1.76 2.7.3.73.73 1.96.84 2.64.57.34 1.72 1.39 2.39 1.94.67.54 1.59 2.55 2.92 3.36 1.1.7 2.16.57 1.87-.27a6.55 6.55 0 0 0-2.09-2.55c-.78-.56-1.96-.24-2.68-.85-.51-.47-2.12-1.65-2.1-1.76"/>
    <path d="M267.98 285.85a1.88 6.55 89.07 0 1 .01-3.76 1.88 6.55 89.07 0 1 0 3.76"/>
    <path d="M267.11 279.97a1.82 6.77 37.59 0 1-2.79-2.33 1.82 6.77 37.59 1 1 2.8 2.33"/>
    <path d="M268.03 282.97a1.86 6.63 66.47 0 1-1.33-3.48 1.86 6.63 66.47 0 1 1.33 3.48m1.78-56.98a4.07.83 41.13 0 1-1.54.84 4.07.83 41.13 1 1 1.54-.84m-2 1.7a4.12.82 8.16 0 1 .32 1.69 4.12.82 8.16 1 1-.32-1.7"/>
    <path d="M268.62 226.62a4.3.78 26.82 1 1-.82 1.33 4.3.78 26.82 0 1 .82-1.33m-29.51 52.86s5.48 1.17 10.25 2.9c4.77 1.74 12.02 7.69 13.97 8.03 2.18.1 5.21-.65 6.36-3.8-3.36.9-5.38 2.26-8.6.49-1.13-.43-4.84-3.81-8.92-5.62-4.07-1.81-12.29-3.88-12.29-3.88l-.77 1.88m5.85-49.6c-.02-.05 6.31-3.34 6.31-3.34l-6.96 1.78-.81 1.23 1.46.32"/>
    <path d="M250.95 231.41c-2.45-.45-6.2-1.27-8.6-1.46 1.65-1.83 3.93-4.93 5.34-6.83-.93 1.81-2.39 4.2-2.96 5.94 1.68.91 4.33 1.62 6.22 2.35"/>
    <path d="M243.82 230.26c-.02-.04 5.62-4.34 5.62-4.34l-6.52 2.91-.58 1.35 1.48.08"/>
    <path d="M249.81 231.35c-2.46-.47-6.25-1.33-8.65-1.54 1.62-1.9 3.85-5.08 5.23-7.05-.9 1.88-2.32 4.34-2.86 6.14 1.7.94 4.38 1.69 6.28 2.45"/>
    <path d="M242.9 230.62c-.02-.05 6.6-2.77 6.6-2.77l-7.11 1.17-.92 1.15 1.42.45"/>
    <path d="M249.07 231.41c-2.49-.2-6.34-.67-8.74-.62 1.38-2.1 3.21-5.59 4.34-7.73-.67 2-1.78 4.66-2.1 6.54 1.8.78 4.53 1.25 6.5 1.8"/>
    <path d="M242.21 230.65c-.04-.04 4.48-5.46 4.48-5.46l-5.67 4.25-.27 1.44 1.46-.23"/>
    <path d="M249.04 231.77c-2.67-.05-6.8-.29-9.36-.06 1.27-2.39 2.86-6.33 3.84-8.75-.5 2.23-1.42 5.22-1.58 7.3 2 .71 4.95 1.03 7.1 1.5"/>
    <path d="M241.31 231.94a321.4 321.4 0 0 1 5.44-5.22l-6.58 3.64-.45 1.56 1.59.02"/>
    <path d="M247.84 231.94c-2.86 0-7.28-.15-10.08.17 1.86-2.66 4.4-7.04 5.96-9.73-1.01 2.47-2.62 5.78-3.22 8.07 2 .74 5.12 1.02 7.34 1.49"/>
    <path d="M239.48 232.32c-.03-.05 6.95-5.88 6.95-5.88l-7.86 4.18-.8 1.72 1.71-.02"/>
    <path d="M246.8 232.1c-2.84.42-7.23.88-9.96 1.57 1.46-2.85 3.34-7.47 4.5-10.3-.64 2.54-1.75 6-2.02 8.3 2.09.45 5.21.29 7.49.44"/>
    <path d="M238.55 233.49a498.6 498.6 0 0 1 5.35-7.41l-6.68 6.03-.35 1.85 1.68-.47"/>
    <path d="M245.24 233c-2.86.26-7.28.5-10.04 1.06 1.61-2.78 3.76-7.3 5.08-10.07-.8 2.5-2.1 5.9-2.5 8.2 2.06.55 5.2.54 7.46.8"/>
    <path d="M237.59 234.26c-.03-.05 6.8-5.89 6.8-5.89l-7.72 4.17-.78 1.74 1.7-.02"/>
    <path d="M244.4 233.29c-2.85.6-7.27 1.36-10 2.23 1.34-2.9 3.01-7.6 4.04-10.47-.52 2.55-1.48 6.03-1.63 8.33 2.13.3 5.28-.08 7.59-.1"/>
    <path d="M236.46 234.57c-.05-.03 4.35-8.08 4.35-8.08l-5.9 7-.09 1.84 1.64-.76"/>
    <path d="M244.4 233.75c-3.06.8-7.82 1.84-10.71 2.94 1.11-3.31 2.38-8.62 3.16-11.88-.27 2.88-.89 6.8-.78 9.38 2.38.24 5.8-.32 8.33-.44"/>
    <path d="M235.6 236.44c-.04-.05 5.48-8.1 5.48-8.1l-7 6.54-.3 2.05 1.82-.5"/>
    <path d="M243.19 234.67c-3 .95-7.7 2.24-10.52 3.47.95-3.33 1.96-8.64 2.59-11.9-.13 2.86-.57 6.77-.34 9.31 2.38.1 5.76-.63 8.27-.88"/>
    <path d="M234.5 237.63c-.05-.04 4.17-8.94 4.17-8.94l-5.93 7.7.03 2.06 1.73-.82"/>
    <path d="M242.04 235.9c-3.08.7-7.87 1.6-10.79 2.6 1.25-3.24 2.74-8.46 3.66-11.66-.39 2.84-1.18 6.7-1.18 9.26 2.36.3 5.79-.16 8.31-.2"/>
    <path d="M233.5 238.48c-.03-.05 6.82-6.99 6.82-6.99l-8.03 5.18-.65 1.96 1.87-.15"/>
    <path d="M240.68 237.1c-3.05.41-7.79.85-10.7 1.59 1.41-3.18 3.2-8.34 4.29-11.5-.56 2.85-1.57 6.7-1.72 9.3 2.28.54 5.66.4 8.12.61"/>
    <path d="M232.16 237.79c-.05-.05 4.63-8.76 4.63-8.76l-6.28 7.37-.1 2.08 1.75-.7"/>
    <path d="M241.05 236.06c-3.32 1.36-8.5 3.25-11.6 4.93 1.01-3.94 2.09-10.18 2.75-14.01-.12 3.32-.57 7.89-.29 10.81 2.64-.08 6.36-1.22 9.14-1.73"/>
    <path d="M231.52 240.44c-.05-.05 5.55-10.04 5.55-10.04l-7.32 8.5-.2 2.37 1.97-.83"/>
    <path d="M239.78 237.3c-3.25 1.53-8.34 3.7-11.37 5.52.84-3.94 1.64-10.14 2.13-13.96.03 3.28-.22 7.8.2 10.67 2.62-.23 6.29-1.57 9.04-2.22"/>
    <path d="M230.39 241.96c-.06-.04 4.04-10.81 4.04-10.81l-6.05 9.65.15 2.34 1.86-1.18"/>
    <path d="M238.35 238.2c-3.24 1.56-8.32 3.76-11.34 5.61.82-3.94 1.57-10.15 2.04-13.97.05 3.28-.16 7.8.26 10.67 2.63-.26 6.3-1.63 9.04-2.3"/>
    <path d="M229.47 243.25c-.05-.05 6.26-9.53 6.26-9.53l-7.89 7.8-.38 2.36 2.01-.63"/>
    <path d="M238.05 237.7c-2.89 2.32-7.46 5.71-10.07 8.25 0-3.98-.54-10.12-.86-13.89.73 3.13 1.45 7.51 2.46 10.14 2.55-.9 5.9-3.15 8.47-4.5"/>
    <path d="M229.78 243.7c-.07-.01.73-11.42.73-11.42l-3.02 11.1.84 2.1 1.45-1.78"/>
    <path d="M237.23 238.76c-2.9 2.3-7.49 5.67-10.1 8.19.01-3.98-.5-10.12-.8-13.9.7 3.13 1.41 7.52 2.41 10.16 2.55-.9 5.9-3.12 8.5-4.45"/>
    <path d="M229.06 245.64a633.9 633.9 0 0 1 2.91-11.16l-5.05 10.26.4 2.29 1.74-1.4"/>
    <path d="M236.9 239.03c-2.74 2.7-7.1 6.7-9.52 9.6-.43-4.08-1.64-10.31-2.37-14.15 1.08 3.13 2.3 7.54 3.62 10.13 2.54-1.23 5.75-3.9 8.28-5.58"/>
    <path d="M229.07 247.06c-.07 0 .55-11.87.55-11.87l-2.92 11.54.9 2.17 1.47-1.84"/>
    <path d="M236.04 241c-2.94 2.42-7.58 5.99-10.22 8.65-.09-4.14-.77-10.5-1.19-14.42.82 3.24 1.66 7.79 2.76 10.51 2.61-.97 6.01-3.32 8.65-4.74"/>
    <path d="M228.2 248.41c-.06-.04 4.13-11.16 4.13-11.16l-6.2 9.89.17 2.45 1.9-1.18"/>
    <path d="M235.99 241.04c-2.6 2.75-6.73 6.82-9.02 9.77-.41-4.14-1.56-10.45-2.26-14.34 1.03 3.16 2.18 7.64 3.44 10.25 2.4-1.24 5.45-3.97 7.84-5.68"/>
    <path d="M228.36 248.99c-.08 0-.5-11.8-.5-11.8l-1.9 11.75 1.1 2.04 1.3-2"/>
    <path d="M234.72 241.93c-2.51 2.77-6.52 6.88-8.73 9.85-.53-4.14-1.86-10.45-2.67-14.33 1.12 3.15 2.4 7.63 3.74 10.23 2.36-1.27 5.32-4.02 7.66-5.75"/>
    <path d="M227.69 250.17c-.07-.02 1.32-12 1.32-12l-3.52 11.35.7 2.33 1.5-1.68"/>
    <path d="M234.18 242.4c-2.3 3-5.99 7.47-7.96 10.64-.85-4.06-2.66-10.21-3.76-14 1.36 3.04 2.98 7.36 4.5 9.82 2.27-1.5 5.01-4.52 7.22-6.47"/>
    <path d="M227.64 251.28c-.07 0-.76-12-.76-12l-1.5 11.91 1.08 2.1 1.18-2"/>
    <path d="M233.94 243.08c-2.15 3.14-5.63 7.84-7.45 11.14-1.06-4.05-3.19-10.15-4.49-13.9 1.52 2.98 3.36 7.25 5.03 9.65 2.2-1.62 4.8-4.82 6.91-6.9"/>
    <path d="M228.39 252.4c-.07-.02 1.22-12.06 1.22-12.06l-3.44 11.34.73 2.37 1.49-1.65"/>
    <path d="M233.5 244.2c-1.85 3.42-4.88 8.58-6.4 12.1-1.4-3.87-4.07-9.64-5.7-13.19 1.77 2.75 4 6.74 5.86 8.9 2.03-1.92 4.33-5.46 6.25-7.82"/>
    <path d="M227.97 253.4c-.07.01-3.37-11.44-3.37-11.44l1.14 12.05 1.52 1.7.7-2.32"/>
    <path d="M233.43 245.53c-1.94 3.41-5.09 8.56-6.67 12.08-1.42-3.87-4.11-9.62-5.76-13.16 1.8 2.75 4.05 6.72 5.95 8.87 2.1-1.91 4.5-5.44 6.48-7.8"/>
    <path d="M228.12 255.55c-.07 0-1.23-12.02-1.23-12.02l-1.12 12.02 1.2 2.06 1.15-2.06"/>
    <path d="M233.63 246.58c-1.99 3.37-5.22 8.44-6.87 11.92-1.35-3.9-3.95-9.71-5.54-13.29 1.76 2.79 3.94 6.82 5.8 9 2.14-1.85 4.59-5.33 6.61-7.63"/>
    <path d="M228.01 256.51c-.07.01-2.23-11.8-2.23-11.8l-.1 12.09 1.36 1.9.97-2.19"/>
    <path d="M232.78 248.29c-2.15 3.22-5.62 8.06-7.42 11.43-1.17-4-3.49-9.98-4.9-13.66 1.62 2.9 3.6 7.08 5.36 9.4 2.22-1.71 4.83-5.01 6.96-7.17"/>
    <path d="M226.98 257.83c-.07-.02 1-12.07 1-12.07l-3.3 11.45.8 2.33 1.5-1.7"/>
    <path d="M232.9 248.59c-1.83 3.49-4.84 8.76-6.32 12.35-1.53-3.8-4.39-9.44-6.14-12.9 1.88 2.66 4.25 6.54 6.21 8.6 2.05-2 4.34-5.62 6.25-8.05"/>
    <path d="M226.57 258.84c-.07.02-3.7-11.25-3.7-11.25l1.42 11.96 1.6 1.63.68-2.34"/>
    <path d="M232.4 249.48c-1.28 3.84-3.44 9.68-4.36 13.52-2.08-3.4-5.74-8.3-7.98-11.33 2.25 2.2 5.16 5.5 7.4 7.1 1.72-2.41 3.43-6.48 4.94-9.28"/>
    <path d="M229.86 259.75c-.07.03-4.01-11.09-4.01-11.09l1.75 11.9 1.64 1.56.62-2.37"/>
    <path d="M232.38 250.66c-1.26 3.85-3.38 9.71-4.27 13.56-2.1-3.38-5.8-8.25-8.07-11.24 2.27 2.18 5.2 5.44 7.46 7.02 1.7-2.43 3.38-6.51 4.87-9.34"/>
    <path d="M229.9 261.65c-.07.03-5.17-10.38-5.17-10.38l3 11.52 1.8 1.3.36-2.44"/>
    <path d="M231.99 251.63c-.8 3.99-2.23 10.1-2.67 14.05-2.48-3.05-6.7-7.35-9.3-10 2.5 1.85 5.79 4.66 8.2 5.9 1.41-2.65 2.6-6.94 3.77-9.95"/>
    <path d="M230.23 263.28c-.07.01-2.78-11.64-2.78-11.64l.46 12.08 1.46 1.8.87-2.24"/>
    <path d="M232 252.87c-.42 4.08-1.27 10.36-1.34 14.35-2.74-2.7-7.33-6.42-10.15-8.7 2.65 1.5 6.17 3.85 8.69 4.76 1.14-2.83 1.93-7.26 2.8-10.41"/>
    <path d="M230.37 264.13c-.05.05-7.35-8.4-7.35-8.4l5.54 10.17 2.03.7-.22-2.47"/>
    <path d="M232.16 254.3c-.44 4.07-1.32 10.35-1.4 14.34-2.73-2.72-7.31-6.46-10.12-8.76 2.65 1.51 6.16 3.89 8.67 4.81 1.16-2.82 1.96-7.24 2.85-10.4"/>
    <path d="M231.2 266.07a602.2 602.2 0 0 1-5.65-10.12l3.55 11.36 1.85 1.21.25-2.45"/>
    <path d="M232.48 255.97c-.26 4.1-.87 10.43-.8 14.42-2.83-2.55-7.56-6-10.46-8.14 2.7 1.35 6.31 3.51 8.86 4.28 1.04-2.89 1.65-7.36 2.4-10.56"/>
    <path d="M231.91 267.93c-.06.05-6.98-8.85-6.98-8.85l5.09 10.5 2 .83-.11-2.48"/>
    <path d="M232.56 257.86c-.24 4.1-.81 10.44-.7 14.43-2.86-2.53-7.6-5.94-10.52-8.05 2.71 1.33 6.33 3.46 8.88 4.2 1.02-2.9 1.61-7.37 2.34-10.58"/>
    <path d="M232.55 269.44c-.07.03-4.9-10.67-4.9-10.67l2.71 11.68 1.76 1.4.43-2.41"/>
    <path d="M232.75 259.09c.14 4.12.16 10.5.64 14.45-3.07-2.13-8.1-4.89-11.18-6.59 2.81.96 6.6 2.6 9.2 3 .74-3.03.91-7.57 1.34-10.86"/>
    <path d="M233.4 269.02c-.04.07-8.94-6.12-8.94-6.12l7.58 8.35 2.1.1-.74-2.33"/>
    <path d="M233.03 259.52c.35 4.1.7 10.46 1.4 14.39-3.19-2.01-8.37-4.57-11.55-6.15 2.87.84 6.75 2.33 9.37 2.63.59-3.04.52-7.57.78-10.87"/>
    <path d="M234.36 271.3c-.05.05-7.45-8.56-7.45-8.56l5.64 10.28 2.04.74-.23-2.46"/>
    <path d="M233.68 261.09c.53 4.08 1.15 10.42 2 14.31-3.26-1.81-8.52-4.07-11.76-5.46 2.9.67 6.82 1.93 9.45 2.07.45-3.08.2-7.6.3-10.92"/>
    <path d="M235.85 272.74c-.04.07-8.87-6.27-8.87-6.27l7.48 8.48 2.1.14-.71-2.35"/>
    <path d="M233.96 262.83c.8 4.03 1.83 10.32 2.93 14.13-3.35-1.51-8.73-3.27-12.04-4.35 2.92.4 6.9 1.28 9.52 1.18.25-3.13-.3-7.63-.41-10.96"/>
    <path d="M236.83 273.98c-.06.05-7.34-8.7-7.34-8.7l5.5 10.39 2.04.78-.2-2.47"/>
    <path d="M234.44 263.94c1.16 3.93 2.78 10.07 4.22 13.73-3.45-1.06-8.94-2.1-12.3-2.74 2.92.01 6.94.36 9.52-.1-.05-3.15-1.02-7.57-1.44-10.88"/>
    <path d="M237.22 274c-.02.08-10.25-2.2-10.25-2.2l9.74 4.85 1.97-.74-1.46-1.91"/>
    <path d="M235.1 265.17c1.16 3.93 2.75 10.08 4.18 13.74-3.46-1.08-8.94-2.14-12.3-2.8 2.92.03 6.94.4 9.52-.04-.04-3.16-1-7.59-1.4-10.9"/>
    <path d="M238.89 275.08c-.03.08-9.8-4.73-9.8-4.73l8.79 7.13 2.1-.2-1.09-2.2"/>
    <path d="M234.6 265.85c1.94 3.58 4.79 9.23 6.96 12.5-3.6-.28-9.16-.08-12.58.03 2.85-.64 6.85-1.18 9.27-2.2-.7-3.07-2.56-7.18-3.66-10.33"/>
    <path d="M240.44 276.15c-.02.08-10.19-2.8-10.19-2.8l9.57 5.4 2-.6-1.38-2"/>
    <path d="M235.65 267.37c1.97 3.57 4.85 9.2 7.03 12.44-3.59-.24-9.15 0-12.56.15 2.85-.66 6.83-1.24 9.25-2.27-.72-3.08-2.61-7.18-3.72-10.32"/>
    <path d="M241.73 277c-.04.06-9.5-5.69-9.5-5.69l8.3 7.94 2.14.02-.94-2.28"/>
    <path d="M236.44 268.27c2.28 3.33 5.66 8.61 8.12 11.6-3.55.21-8.99 1.19-12.33 1.78 2.73-1.04 6.6-2.14 8.86-3.5-1-3-3.26-6.87-4.65-9.88"/>
    <path d="M242.43 277.83c0 .08-10.25-.24-10.25-.24l10.14 3 1.8-1.12-1.7-1.64m5.95-49.66c0-.04 7.38-1.23 7.38-1.23l-7.34.17-1.28.65 1.24.4"/>
    <path d="M252.42 229.73c-2.14-.64-5.37-1.73-7.57-2.2 2.33-.93 5.79-2.58 7.92-3.59-1.64 1.03-4.02 2.34-5.29 3.37 1.23.83 3.45 1.68 4.94 2.42"/>
    <path d="M248.04 228.41c0-.03 7.14-1.96 7.14-1.96l-7.4.95-1.1.76 1.36.25"/>
    <path d="M252.76 230.26c-2.5-.23-6.33-.71-8.8-.74 1.86-1.64 4.46-4.4 6.07-6.09-1.1 1.59-2.8 3.7-3.53 5.2 1.67.67 4.36 1.12 6.26 1.63"/>
    <path d="M245.4 228.93c0-.04 7.4-.84 7.4-.84l-7.22-.23-1.35.6 1.16.47"/>
    <path d="M250.88 230.54c-2.27-.43-5.72-1.2-8.02-1.46 2.18-1.07 5.37-2.92 7.33-4.05-1.47 1.1-3.63 2.55-4.72 3.62 1.39.69 3.78 1.3 5.42 1.89"/>
    <path d="M244.76 228.85c-.02-.03 6.52-2.81 6.52-2.81l-7.15 1.89-.85.87 1.48.05"/>
    <path d="M250.67 231.36c-1.9-.78-4.8-2.1-6.66-2.65 1.45-1.35 3.49-3.71 4.75-5.16-.88 1.44-2.22 3.32-2.8 4.75 1.25 1.07 3.28 2.12 4.7 3.06"/>
    <path d="M245.13 229.33c-.02-.04 5.08-2.2 5.08-2.2l-5.53.76-.68.98 1.13.46m-4.25 47.55c0 .09-10.53.08-10.53.08l10.66 2.6 1.75-1.14-1.88-1.54"/>
    <path d="M242.77 277.57c-.01.07-10.69-2.49-10.69-2.49l10.27 5.03 2-.64-1.58-1.9"/>
    <path d="M244.52 278.28c0 .08-10.6-.53-10.6-.53l10.6 3.2 1.82-1.04-1.82-1.63"/>
    <path d="M237.79 270.79c2.76 3.04 6.9 7.89 9.8 10.57-3.57.54-8.94 1.98-12.24 2.86 2.62-1.26 6.38-2.68 8.5-4.2-1.43-2.84-4.24-6.42-6.06-9.23"/>
    <path d="M245.98 278.82c-.02.08-10.6-3.47-10.6-3.47l9.96 5.93 2.09-.44-1.45-2.02"/>
    <path d="M238.77 271.49c3 2.74 7.54 7.15 10.65 9.5-3.42 1-8.5 3.11-11.62 4.4 2.42-1.6 5.93-3.5 7.83-5.3-1.68-2.7-4.8-5.98-6.86-8.6"/>
    <path d="M246.85 279.48c.02.08-10.06 1.98-10.06 1.98l10.6.72 1.5-1.48-2.04-1.23"/>
    <path d="M244.76 278.84c0 .08-10.5.8-10.5.8l10.83 1.86 1.66-1.26-2-1.4"/>
    <path d="M246.7 279.4c-.01.08-10.86-1.74-10.86-1.74l10.62 4.3 1.96-.78-1.72-1.78z"/>
    <path d="M248.5 279.99c0 .08-10.64.2-10.64.2l10.83 2.45 1.74-1.15-1.94-1.5z"/>
    <path d="M241.2 272.97c2.99 2.85 7.48 7.4 10.57 9.87-3.52.78-8.77 2.59-12 3.7 2.53-1.45 6.17-3.12 8.17-4.79-1.64-2.73-4.7-6.1-6.74-8.78z"/>
    <path d="M250 280.42c-.01.08-10.85-2.73-10.85-2.73l10.4 5.22 2.05-.58-1.6-1.9z"/>
    <path d="M242.24 273.6c3.21 2.52 8.07 6.6 11.35 8.74-3.34 1.22-8.25 3.68-11.27 5.19 2.3-1.76 5.66-3.9 7.42-5.83-1.88-2.57-5.23-5.63-7.5-8.1z"/>
    <path d="M250.92 281.01c.02.08-9.9 2.67-9.9 2.67l10.64-.01 1.38-1.58-2.12-1.08z"/>
  </g>
  <path fill="#fedf00" stroke="#000" stroke-width=".46" d="M264.58 266.12l-8.08-5.6-8.09 5.6 3.04-8.94-7.08-5.6h9.1l3.03-8.93 3.03 8.94h9.1l-7.08 5.59 3.03 8.94z"/>
</svg>
