<?xml version="1.0" encoding="utf-8"?>
<!-- Generator: Adobe Illustrator 25.4.1, SVG Export Plug-In . SVG Version: 6.00 Build 0)  -->
<svg version="1.1" id="Calque_1" xmlns="http://www.w3.org/2000/svg" xmlns:xlink="http://www.w3.org/1999/xlink" x="0px" y="0px"
	 viewBox="0 0 512 512" style="enable-background:new 0 0 512 512;" xml:space="preserve">
<style type="text/css">
	.st0{fill:#0081C8;}
	.st1{fill:#EE334E;}
	.st2{fill:#00A651;}
	.st3{fill:#FCB131;}
	.st4{fill:url(#path44_00000035497167495653816430000001222934984814250413_);}
	.st5{fill:url(#path48_00000067948228545680097900000012254998082113448093_);}
	.st6{fill:url(#path52_00000119807334345547719650000000292183025016267446_);}
</style>
<g>
	<path id="path24" class="st0" d="M203.1,409.1c0-24.9-20.3-45.2-45.2-45.2c-24.9,0-45.2,20.3-45.2,45.2c0,24.9,20.3,45.2,45.2,45.2
		c1.3,0,2.7,0,3.9-0.1c-0.1-1.2-0.1-2.4-0.1-3.6c0-1.3,0-2.7,0.1-4c-1.3,0.1-2.7,0.3-4,0.3c-20.8,0-37.7-16.9-37.7-37.7
		s16.9-37.7,37.7-37.7s37.7,16.9,37.7,37.7c0,16.7-10.9,30.9-26,35.9c-0.3,1.9-0.4,3.7-0.4,5.6c0,0.8,0,1.6,0.1,2.3
		C188.7,447.9,203.1,430.1,203.1,409.1"/>
	<path id="path28" class="st1" d="M399.3,409.1c0,24.9-20.3,45.2-45.2,45.2c-23.6,0-43.1-18.1-45.1-41.3c2.7,0.3,5.3,0.8,7.7,1.6
		c2.7,18.1,18.4,32.1,37.3,32.1c20.8,0,37.7-16.9,37.7-37.7c0-20.8-16.9-37.7-37.7-37.7c-20,0-36.4,15.6-37.6,35.3
		c-2.4-0.7-4.9-1.1-7.5-1.3c1.9-23.3,21.3-41.6,45.1-41.6C379,363.9,399.3,384,399.3,409.1"/>
	<path id="path32" class="st2" d="M342.6,452.8c-1.2,19.7-17.6,35.3-37.6,35.3c-20.8,0-37.7-16.9-37.7-37.7
		c0-16.8,10.9-30.9,26-35.9c0.3-1.9,0.4-3.7,0.4-5.6c0-0.8,0-1.6-0.1-2.3c-19.5,5.1-33.9,22.8-33.9,43.9c0,24.9,20.3,45.2,45.2,45.2
		c23.7,0,43.3-18.4,45.1-41.6C347.5,453.9,345,453.5,342.6,452.8 M305,412.8c18.9,0,34.5,13.9,37.3,32.1c2.5,0.8,5.1,1.3,7.7,1.6
		c-2-23.2-21.5-41.3-45.1-41.3c-1.3,0-2.7,0-3.9,0.1c0.1,1.2,0.1,2.4,0.1,3.6c0,1.3,0,2.7-0.1,4C302.3,412.9,303.7,412.8,305,412.8"
		/>
	<path id="path36" class="st3" d="M252.1,454.1c-1.9,23.3-21.3,41.6-45.1,41.6c-24.9,0-45.2-20.3-45.2-45.2
		c0-21.1,14.4-38.8,33.9-43.9c0,0.8,0.1,1.6,0.1,2.3c0,1.9-0.1,3.7-0.4,5.6c-15.1,4.9-26,19.1-26,35.9c0,20.8,16.9,37.7,37.7,37.7
		c20,0,36.4-15.6,37.6-35.3C247,453.5,249.4,453.9,252.1,454.1 M203,413.1c0.1-1.3,0.1-2.7,0.1-4c0-1.2,0-2.4-0.1-3.6
		c1.3-0.1,2.5-0.1,3.9-0.1c23.6,0,43.1,18.1,45.1,41.3c-2.7-0.3-5.3-0.8-7.7-1.6c-2.7-18.1-18.4-32.1-37.3-32.1
		C205.5,412.8,204.2,412.9,203,413.1"/>
	<path id="path40" d="M255.9,446.8c-18.9,0-34.5-13.9-37.3-32.1c-2.5-0.8-5.1-1.3-7.7-1.6c2,23.2,21.5,41.3,45.1,41.3
		c1.3,0,2.7,0,3.9-0.1c-0.1-1.2-0.1-2.4-0.1-3.6c0-1.3,0-2.7,0.1-4C258.6,446.7,257.3,446.8,255.9,446.8 M255.9,363.7
		c-23.7,0-43.3,18.4-45.1,41.6c2.5,0.3,5.1,0.7,7.5,1.3c1.2-19.7,17.6-35.3,37.6-35.3c20.8,0,37.7,16.9,37.7,37.7
		c0,16.7-10.9,30.9-26,35.9c-0.3,1.9-0.4,3.7-0.4,5.6c0,0.8,0,1.6,0.1,2.3c19.5-5.1,33.9-22.8,33.9-43.9
		C301.1,384,280.9,363.7,255.9,363.7"/>
	
		<linearGradient id="path44_00000174571696520354271490000004998857372971472831_" gradientUnits="userSpaceOnUse" x1="120.7964" y1="-1611.7089" x2="272.0748" y2="-1791.9955" gradientTransform="matrix(1.3333 0 0 1.3333 94.3333 2433.8667)">
		<stop  offset="0" style="stop-color:#D52B1E"/>
		<stop  offset="0.5" style="stop-color:#96241B"/>
		<stop  offset="1" style="stop-color:#D52B1E"/>
	</linearGradient>
	<path id="path44" style="fill:url(#path44_00000174571696520354271490000004998857372971472831_);" d="M296.2,342.5l28.4-26.7
		c0,0-18.4-9.6-19.3-31.2c-0.9-21.6,20.4-37.9,23.3-40.7c2.9-2.8,26.9-22.8,38.3-36.3c11.3-13.5,22.9-29.6,23.7-49.6
		c0.8-20-4.8-55.2-57.9-78.8c0,0,20.5,30.9,9.6,63.7c-11.1,32.8-57.2,69.7-71.1,83.6c-13.7,14-34.4,33.2-31.3,59.3
		C243,312.1,279.1,334.1,296.2,342.5"/>
	
		<linearGradient id="path48_00000093158560802380727120000011441770178187418795_" gradientUnits="userSpaceOnUse" x1="54.1509" y1="-1621.9772" x2="236.8397" y2="-1839.6971" gradientTransform="matrix(1.3333 0 0 1.3333 94.3333 2433.8667)">
		<stop  offset="0" style="stop-color:#5B73B3"/>
		<stop  offset="0.5" style="stop-color:#0039A6"/>
		<stop  offset="1" style="stop-color:#788CB1"/>
	</linearGradient>
	<path id="path48" style="fill:url(#path48_00000093158560802380727120000011441770178187418795_);" d="M205.4,342l31.3-26.5
		c0,0-19.9-15.2-20.8-35.6c-0.9-20.4,10.5-31.5,23.7-45.2c13.2-13.7,47.9-46.4,58.1-56.8c10.4-10.4,31.7-31.2,31.5-57.7
		c-0.4-26.5-8.9-64.3-69.2-88.3c0,0,26.5,30.7,19.2,61.9c-7.3,31.1-23.1,48.8-59.5,81.9c-36.3,33.1-71.3,59.2-69.2,97.7
		C152.7,311.9,187.5,332.3,205.4,342"/>
	
		<linearGradient id="path52_00000142135433435270459800000015186047318065545645_" gradientUnits="userSpaceOnUse" x1="22.1714" y1="-1728.6001" x2="159.2949" y2="-1728.6001" gradientTransform="matrix(1.3333 0 0 1.3333 94.3333 2433.8667)">
		<stop  offset="0" style="stop-color:#5B73B3"/>
		<stop  offset="0.5" style="stop-color:#0039A6"/>
		<stop  offset="1" style="stop-color:#788CB1"/>
	</linearGradient>
	<path id="path52" style="fill:url(#path52_00000142135433435270459800000015186047318065545645_);" d="M213.3,25.1
		c3.2,7.1,7.9,20.3,7.6,36.1c-0.1,7.5-1.1,15.6-6.3,24.8c-4.9,8.7-13.5,18-27.1,29.2c-4.5,3.7-8.8,7.2-12.9,10.5
		c-20.7,16.7-35.6,28.8-42.7,46.5c-6.5,16.3-4.5,37.5,5.1,57.5c1.9-5.2,5.7-13.6,13.9-23.6c8.1-10,16.8-17.3,29.7-28.4
		c2.9-2.5,6.1-5.2,9.5-8.1c2.7-2.3,5.2-4.5,7.6-6.5c14.3-12.1,23.6-20.3,29.6-26.5c0.7-0.7,1.3-1.3,2.1-2.3
		c8.1-8.3,27.1-27.9,27.2-46.9C256.9,67.9,245.4,40.7,213.3,25.1 M138.9,241.9l-3.1-5.5c-6.5-12-10.4-24.1-11.6-36.1
		c-0.9-10.7,0.3-20.9,3.7-29.6c7.5-18.8,22.8-31.2,43.9-48.3c4.1-3.3,8.4-6.8,12.8-10.5c26.4-22,31.3-33.9,31.7-50.8
		c0.5-22-9.6-39.2-9.7-39.3l-3.3-5.5l6,2.5c9.2,3.9,17.3,8.7,24.4,14.5c6.3,5.2,11.7,11.2,16,17.9c9.9,15.3,11.3,29.2,11.3,36.1
		c0,9.1-3.7,18.9-11.1,29.6c-6,8.7-13.1,16-17.3,20.4c-0.8,0.8-1.5,1.6-2.1,2.1c-6.1,6.5-15.6,14.5-29.9,26.8
		c-2.4,2-4.9,4.3-7.6,6.5c-3.5,2.9-6.5,5.6-9.5,8.1c-12.8,10.9-21.3,18.1-29.2,27.9c-12.7,15.6-14.5,26.9-14.5,27.1L138.9,241.9z"/>
</g>
</svg>
