<svg xmlns="http://www.w3.org/2000/svg" height="512" width="512">
    <g clip-path="url(#a)" fill-rule="evenodd">
        <path fill="#009af4" d="M-256 0h767.975v255.992h-767.975z"/>
        <path fill="#1c8f31" d="M-256 383.993h767.975v128.001h-767.975z"/>
        <path fill="#efef00" d="M-256 255.992h767.975v128.001h-767.975z"/>
        <path fill="#ffda00" d="M441.255 178.176l-37.173-20.496 22.095 36.234-30.588-29.422 11.961 40.733-21.94-36.337 1.022 42.426-11.785-40.774-10 41.249-.826-42.436-20.341 37.255 10.186-41.208-29.288 30.733 20.496-37.173-36.234 22.095 29.412-30.588-40.723 11.961 36.337-21.94-42.426 1.022 40.774-11.785-41.249-10 42.436-.836-37.255-20.331 41.197 10.187-30.723-29.291 37.173 20.5-22.095-36.24 30.588 29.42-11.961-40.724 21.94 36.337-1.022-42.433 11.785 40.775 10-41.249.826 42.437 20.341-37.256-10.186 41.206 29.288-30.723-20.496 37.165 36.234-22.096-29.412 30.593 40.723-11.963-36.337 21.942 42.426-1.022-40.774 11.785 41.249 10-42.436.826 37.255 20.341-41.197-10.186z"/>
        <path d="M406.437 128.84c0 17.881-14.495 32.376-32.376 32.376s-32.376-14.495-32.376-32.376 14.495-32.376 32.376-32.376 32.376 14.495 32.376 32.376z" fill="#0098f6"/>
        <path d="M399.997 128.792c0 14.579-11.652 26.397-26.025 26.397s-26.025-11.818-26.025-26.397 11.652-26.397 26.025-26.397 26.025 11.818 26.025 26.397z" fill="#ffd900"/>
    </g>
</svg>
