<svg xmlns="http://www.w3.org/2000/svg" height="512" width="512">
    <g clip-path="url(#a)" fill-rule="evenodd">
        <path fill="#199d00" d="M-128 0h767.901v511.934h-767.901z"/>
        <path d="M65.539 145.134c-.887 11.961-1.951 33.01 8.212 35.169 12.292 1.182 5.515-20.805 9.964-24.792.841-1.97 2.392-1.981 2.52.505v18.65c-.112 6.065 3.875 7.851 6.972 9.104 3.223-.249 5.375-.141 6.638 2.995l1.512 32.26s7.476 2.14 7.832-18.145c.357-11.91-2.379-21.881-.775-24.198.057-2.277 2.964-2.413 4.981-1.304 3.213 2.266 4.644 5.066 9.638 3.946 7.598-2.093 12.165-5.789 12.278-11.624-.444-5.544-1.065-11.09-3.468-16.634l-1.132-4.629c1.365 2.139 3.443 1.961 3.916 0-1.293-4.262-3.3-8.345-6.553-10.111-2.689-2.369-6.623-1.885-8.064 3.055-.668 5.692 2.052 12.454 6.197 17.968.88 2.154 2.117 5.733 1.573 8.957-2.206 1.258-4.411.734-6.259-1.217 0 0-6.048-4.536-6.048-5.544 1.605-10.276.356-11.441-.534-14.293-.621-3.936-2.489-5.199-4.002-7.887-1.513-1.604-3.56-1.604-4.538 0-2.673 4.634-1.426 14.583.505 19.038 1.395 4.098 3.528 6.67 2.52 6.67-.83 2.316-2.545 1.781-3.793-.892-1.781-5.525-2.139-13.768-2.139-17.481-.535-4.602-1.122-14.418-4.151-16.913-1.847-2.516-4.587-1.289-5.543 1.007-.199 4.568-.22 9.135.294 13.345 2.078 7.384 2.73 13.876 3.738 21.437.28 10.128-5.856 4.395-5.575-.626 1.415-6.522 1.048-16.787-.21-19.389-.997-2.602-2.174-3.244-4.598-2.816-1.925-.118-6.878 5.291-8.268 14.262 0 0-1.186 4.618-1.692 8.717-.68 4.633-3.73 7.903-5.869-.651-1.848-6.217-2.985-21.523-6.08-17.939z" fill="#fff"/>
        <path d="M98.938 194.2c-10.847 5.303-21.339 10.25-32.01 15.374.39-7.256 15.218-20.353 25.331-20.538 6.582.184 4.928 2.55 6.679 5.164z" fill="#fff"/>
        <path d="M93.344 204.232c-16.87 43.485 39.504 49.545 45.804 1.781.593-1.96 2.97-3.921 3.386-.713-1.308 43.247-43.605 46.218-50.793 32.613-1.781-3.207-2.317-10.335-2.496-14.614-1.069-8.494-5.524-5.228-6.237 3.208-.713 4.693-.535 6.002-.535 10.516 2.257 34.158 56.735 19.485 65.585-8.733 4.693-15.625-.773-27.148 1.781-27.091 5.406 5.823 12.95.773 14.614-1.247.713-1.01 2.497-1.663 3.743-.356 4.217 3.031 11.645 1.603 13.188-3.743.892-5.228 1.605-10.634 1.783-16.216-3.447 1.07-6.001 1.781-6.238 3.208l-.713 4.633c-.296 1.486-3.269 1.544-3.386-.357-1.307-5.941-6.713-6.713-9.98 2.497-2.198 1.781-6.178 2.139-6.595-.535.535-6.178-1.961-7.011-6.95-4.1-1.604-12.238-3.207-23.941-4.812-36.178 2.08-.06 3.982 1.484 5.883-.892-2.082-6.474-6.476-19.722-8.913-20.673-1.188-1.425-2.199-.535-3.742-.179-2.613.832-5.05 3.089-4.278 7.486 3.089 18.772 5.11 33.089 8.199 51.862.475 2.198-1.367 5.107-3.742 4.811-4.04-2.733-5.047-8.257-11.94-8.02-4.99.06-10.695 5.466-11.406 10.696-.832 4.156-1.13 8.671-.002 12.295 3.507 4.217 7.724 3.803 11.408 2.852 3.029-1.247 5.524-4.277 6.594-3.565.713.892.176 10.87-14.258 18.534-8.733 3.921-15.684 4.813-19.424-2.317-2.317-4.456.178-21.386-5.527-17.464z" fill="#fff"/>
        <path d="M164.9 160.027c3.386-1.248 19.428-19.604 19.428-19.604l-2.408-1.961c-.892-.772-.802-1.544 0-2.317 3.98-2.316 2.703-7.396.624-9.712-3.446-1.545-6.446-1.04-8.645.089-2.792 2.673-3.444 6.95-1.246 9.623 2.14 1.01 4.277 3.179 2.851 4.367-6.563 7.01-24.534 19.099-22.454 19.515.444.594 11.494.565 11.85 0z" fill="#fff"/>
        <path d="M68.027 224.987c-6.016 9.584-6.539 23.902-3.22 28.171 1.764 2.017 4.662 2.9 6.806 2.269 3.78-1.639 5.434-9.297 4.537-12.098-1.261-1.974-2.255-2.287-3.514-.608-2.66 5.4-3.764 1.696-3.997-1.322-.408-5.723.131-10.994.752-15.168.662-4.278-.011-2.97-1.363-1.244z" fill="#fff"/>
        <path d="M325.113 209.64c-5.817-12.52-13.869-24.893-16.432-29.646-2.562-4.755-21.904-32.826-24.752-35.983-6.283-7.467 10.203 3.11-2.086-11.715-4.686-4.02-4.958-4.265-8.847-7.545-1.962-1.392-6.752-3.935-7.6.28-.426 3.717-.196 5.732.428 8.827.479 2.063 3.484 5.519 4.962 7.521 19.624 26.378 37.026 53.018 53.806 86.512 2.649-1.259 2.07-16.154.52-18.25z" fill="#fff"/>
        <path d="M299.578 251.533c-1.144 1.284 2.824 6.776 7.98 6.771 8.623-1.001 16.214-5.845 23.243-18.595 1.879-2.973 5.183-9.333 5.28-14.267.657-28.925-1.448-51.432-5.782-72.337-.278-2.036-.108-4.43.236-5.041.558-.667 2.452.003 3.457-1.644 1.474-1.505-3.914-13.969-6.985-18.771-1.091-2.144-1.471-3.575-3.276.252-1.899 3.111-3.175 8.539-3.025 13.61 4.114 28.481 5.377 53.397 8.066 81.879.219 2.755-.186 6.757-2.017 8.353-6.773 7.072-16.548 15.777-27.177 19.791z" fill="#fff"/>
        <path d="M416.061 251.378c-6.188 3.577-6.196 7.692-1.192 7.841 8.623-1.001 18.812-1.717 25.841-12.328 1.88-2.973 4.114-11.015 4.211-15.948.657-28.925-.378-50.514-4.712-71.419-.278-2.036-1.179-6.723-.834-7.334.558-1.432 3.37.156 4.374-1.491 1.474-1.505-7.277-12.746-10.349-17.548-1.091-2.144-1.471-3.575-3.276.252-1.899 3.111-2.563 8.691-1.802 13.61 4.572 30.927 7.976 54.162 8.678 81.573-.393 2.602-.491 4.005-1.711 7.282-2.699 3.46-5.689 7.785-8.493 9.876-2.803 2.09-8.784 4.085-10.735 5.634z" fill="#fff"/>
        <path d="M420.706 223.656c-.071-7.233.102-13.478-.136-18.873-.237-5.395-1.191-9.787-3.058-13.616-1.767-4.106-.67-7.405-1.5-11.778-.829-4.372-.624-10.92-1.877-16.108-.344-2.026-1.396-8.515-1.071-9.137.511-1.448 2.456.045 3.407-1.633 1.423-1.551-4.937-18.007-8.163-22.706-1.16-2.107-3.267-1.385-5.864 2.04-2.409 2.254-1.515 7.395-.596 12.286 6.187 32.29 10.803 61.516 9.796 92.254-.309 2.613 9.127-7.795 9.063-12.729z" fill="#fff"/>
        <path d="M374.984 183.6c-3.892-.071-12.044-7.574-14.423-11.969-.899-2.521-.322-4.981.471-6.422 1.441-.937 3.658-1.99 5.315-.98 0 0 1.718 2.405 1.386 2.71 2.125 1.018 3.027.432 3.243-.432.144-1.513-.629-2.415-.637-4.082.901-4.521 6.068-5.223 8.013-2.341 1.424 1.758 1.947 5.492 2.162 8.013-.023 1.288-2.109-.223-3.293.087-1.186.311-1.471 1.678-1.563 2.916-.215 3.278-.603 8.538-.675 12.501z" fill="#fff"/>
        <path d="M303.16 231.675c1.072-9.828-.396-27.33-.494-33.129-.393-13.7-2.631-40.161-3.696-44.582-1.2-8.333 3.428.914 2.787-3.929-1.501-8.322-6.116-13.962-11.542-21.584-1.749-2.479-1.691-2.985-4.392.608-2.989 6.781-.409 11.445.363 16.725 3.913 17.205 6.196 33.036 7.259 48.686 1.063 15.651 1.389 32.571.419 49.054 2.932.116 7.647-4.744 9.296-11.849z" fill="#fff"/>
        <path d="M433.947 215.936c-6.862-11.515-17.219-23.986-19.986-28.623-2.766-4.638-26.166-34.829-29.148-37.859-8.56-8.993 3.926-1.464-1.639-8.41-4.706-5.168-6.079-6.79-10.107-9.898-2.02-1.306-3.244-3.798-3.908.45-.264 3.732-.54 8.049-.289 11.195-.014 1.748 1.806 5.034 3.37 6.97 20.754 25.499 43.392 51.536 61.615 84.267 2.593-1.374 1.731-16.066.091-18.092z" fill="#fff"/>
        <path d="M122.584 194.685c-.494.866-1.594 1.988-1.225 3.149.771 1.044 1.386 1.256 2.67 1.313 1.114 0 2.67.263 3.004-.394.6-.661 1.056-2.008.556-3.281-1.16-2.899-4.4-1.819-5.006-.786z" fill="#1ba400"/>
        <path d="M354.156 362.535c9.177.337 15.184.419 23.347 1.39 0 0 7.039-.696 9.553-1.075 10.625-1.014 11.096 15.176 11.096 15.176-.117 9.495-3.782 9.992-8.46 10.995-2.673.341-4.078-1.601-5.483-3.668-1.764.738-4.16.844-7.065.442l-11.473-.463-10.288.065c-.837 1.315-1.926 3.136-4.411 2.549-2.067-.228-4.516-6.033-3.795-10.445 1.492-3.164 1.083-2.147.927-3.537-37.524-.956-75.407-2.629-112.21-2.151-28.8.12-57.242 1.315-85.685 2.51-15.177-.239-26.769-2.63-34.776-14.341.717 0 38.719 2.151 49.834 1.434 20.554-.239 39.316-1.911 60.229-2.509 41.229.716 82.1.717 123.326 3.584-3.944-2.698-4.085-9.071 1.985-10.629.516-.355.782 3.169 1.691 3.102 4.856-.364 2.727 6.214 1.659 7.57z" fill="#fff"/>
        <path d="M188.628 135.277c-6.248 17.858 3.579 37.393 10.393 35.491 4.916 2.035 8.046-7.317 10.059-17.562 1.377-2.875 2.417-3.182 3.124-1.704-.182 13.625.978 16.643 4.481 20.778 7.814 6.028 14.278.77 14.785.262l6.084-6.084c1.354-1.424 3.157-1.508 5.07-.253 1.859 1.69 1.598 4.608 5.577 6.632 3.349 1.34 10.51.31 12.168-2.576 2.232-3.826 2.768-5.14 3.802-6.591 1.594-2.121 4.31-1.178 4.31-.508-.254 1.183-1.848 2.367-.761 4.497 1.895 1.421 2.333.507 3.453.191 3.964-1.895 6.941-10.518 6.941-10.518.175-3.208-1.622-2.943-2.789-2.282l-3.142 2.157c-1.938.288-5.698 1.573-7.557-1.306-1.898-3.461-1.924-8.289-3.375-11.779 0-.254-2.518-5.498-.174-5.833 1.183.22 3.706.888 4.108-1.237 1.241-2.071-2.657-7.937-5.324-10.901-2.315-2.541-5.523-2.848-8.619-.253-2.168 1.995-1.857 4.224-2.282 6.337-.552 2.426-.435 5.411 2.028 8.619 2.164 4.268 6.113 9.764 4.817 17.492 0 0-2.307 3.653-6.326 3.175-1.675-.365-4.392-1.076-5.843-11.794-1.098-8.112.259-19.462-3.184-24.784-1.244-3.213-2.152-6.315-5.182-.821-.814 2.158-4.309 5.433-1.774 12.168 2.073 4.271 2.918 11.221 1.976 18.953-1.437 2.197-1.756 2.941-3.639 5.139-2.646 2.845-5.518 2.119-7.717 1.057-2.055-1.385-3.664-2.101-4.602-6.501.169-7.013.56-18.493-.721-20.929-1.89-3.772-5.007-2.408-6.338-1.268-6.397 5.849-9.557 15.718-11.488 23.576-1.774 5.727-3.662 4.086-4.989 1.775-3.232-3.028-3.45-26.709-7.352-22.816z" fill="#fff"/>
        <path d="M207.443 174.095c2.837-2.009 1.511-3.414 5.754.828 5.312 9.082 8.726 20.844 9.238 31.265-.224 2.568 1.586 4.193 2.414 3.635.492-6.028 15.152-14.429 28.595-15.657 2.056-.447 1.056-4.386 1.391-6.396-.806-7.463 4.193-14.257 11.201-14.799 9.538 1.41 12.712 6.502 12.873 14.275-1.03 14.922-16.574 17.452-25.308 18.642-1.34.507-1.898 1.125 0 1.856l36.594.166 1.867 1.079c.224.872-.534.144-1.979 2.523-1.444 2.379-3.574 7.865-3.685 11.528-10.903 3.506-22.18 5.042-33.641 6.428-3.982 2.014-5.955 4.697-5.138 7.717 1.34 3.349 10.16 6.695 10.16 6.854 1.675 1.051 3.657 3.502-.474 8.525-17.85-.785-31.682-8.382-36.471-19.103-1.443-1.119-2.997-.006-3.993 1.443-6.969 8.983-13.826 17.074-25.708 21.369-7.085 1.77-14.339-1.087-17.765-5.727-2.293-2.641-2.206-5.557-3.048-6.188-3.829 1.694-36.784 15.696-32.607 9.173 8.02-8.584 21.905-14.89 34.168-23.363.885-2.838 2.494-12.442 7.337-15.569.28.024-.768 5.639-.663 8.008.055 1.944-.142 2.706.283 2.206.828-.527 15.706-12.219 16.856-15.805 1.451-2.056.436-7.263.436-7.421-2.791-7.192-6.705-7.803-8.156-11.376-1.307-4.747-.715-10.165 1.998-11.675 2.409-2.187 5.263-1.917 7.895.474 3.005 2.692 5.674 7.952 6.446 11.871-.516 1.55-3.932-1.03-5.118-.261 2.098 2.173 3.078 4.679 3.835 7.745 1.938 8.208 1.347 11.4-.604 16.708-6.606 13.89-15.049 18.035-22.436 23.18-.197.07-.328 3.525 2.45 5.393.958 1.005 4.811 1.521 9.342.07 8.754-4.774 17.843-13.569 22.354-23.367 1.31-7.412-.507-15.27-2.434-22.123-2.903-6.698-6.323-16.262-6.323-16.42-.112-4.177.227-5.626 2.059-7.71z" fill="#fff"/>
        <path d="M111.633 135.463c4.212 2.008 12.13 1.154 11.796-5.637 0-.601-.153-2.633-.213-3.183-.86-2.002-3.206-1.508-3.737.559-.167.677.298 1.779-.315 2.12-.352.355-1.698.147-1.642-1.73 0-.598-.441-1.241-.706-1.619-.266-.174-.436-.223-.918-.223-.587.024-.578.176-.9.67-.136.503-.325.994-.325 1.564-.073.668-.325.906-.816 1.004-.549 0-.425.061-.87-.223-.264-.289-.594-.399-.594-.893 0-.511-.116-1.338-.269-1.675-.233-.308-.608-.45-1.03-.558-2.301.008-2.459 2.632-2.327 3.628-.172.188-.27 4.894 2.867 6.197z" fill="#fff"/>
        <path d="M235.103 187.729c4.212 2.008 14.238.853 11.796-5.637 0-.601-.153-2.633-.213-3.183-.86-2.002-3.206-1.508-3.737.559-.167.677.298 1.779-.315 2.12-.352.355-1.698.147-1.642-1.73 0-.598-.441-1.241-.706-1.619-.266-.174-.436-.223-.918-.223-.587.024-.578.176-.9.67-.136.503-.325.994-.325 1.564-.073.668-.325.906-.816 1.004-.549 0-.425.061-.87-.223-.264-.289-.594-.399-.594-.893 0-.511-.116-1.338-.269-1.675-.233-.308-.608-.45-1.03-.558-2.301.008-2.459 2.632-2.327 3.628-.172.188-.27 4.894 2.867 6.197z" fill="#fff"/>
        <path d="M307.092 166.096c4.212 2.008 12.13 1.154 11.796-5.637 0-.601-.153-2.633-.213-3.183-.86-2.002-3.206-1.508-3.737.559-.167.677.298 1.779-.315 2.12-.352.355-1.698.147-1.642-1.73 0-.598-.441-1.241-.706-1.619-.266-.174-.436-.223-.918-.223-.587.024-.578.176-.9.67-.136.503-.325.994-.325 1.564-.073.668-.325.906-.816 1.004-.549 0-.425.061-.87-.223-.264-.289-.594-.399-.594-.893 0-.511-.116-1.338-.269-1.675-.233-.308-.608-.45-1.03-.558-2.301.008-2.459 2.632-2.327 3.628-.172.188-.27 4.894 2.867 6.197z" fill="#fff"/>
        <path d="M344.382 220.415c-7.34 8.272-4.104 21.955-2.446 24.903 2.42 4.842 4.369 7.947 9.078 10.342 4.289 3.157 7.631 1.184 9.474-1.027 4.316-4.473 4.368-15.893 6.394-18.157 1.421-4.157 4.999-3.447 6.737-1.605 1.683 2.42 3.666 3.981 6.139 5.298 4.026 3.551 8.834 4.201 13.57.964 3.237-1.815 5.341-4.161 7.236-8.818 2.105-5.631.932-31.647.511-47.067-.162-1.21-4.184-21.204-4.184-21.427 0-.224-.532-10.204-.974-12.582-.077-.965-.317-1.243.695-1.12 1.072.902 1.219.959 1.889 1.256 1.083.198 2.052-1.644 1.398-3.34l-10.047-18.532c-.806-.794-1.847-1.666-3.126.224-1.222 1.071-2.523 3.011-2.483 5.503.297 4.392 1.069 8.861 1.367 13.252l4.02 22.551c1.265 16.076 1.582 29.232 2.848 45.308-.178 6.807-2.293 12.741-4.278 13.598 0 0-3.02 1.75-5.045-.183-1.473-.591-7.368-9.825-7.368-9.825-3.014-2.763-5.001-1.973-7.145 0-5.914 5.711-8.59 16.394-12.609 23.762-1.036 1.644-3.965 3.052-7.21-.12-8.241-11.259-3.411-27.277-4.437-23.158z" fill="#fff"/>
        <path d="M308.991 126.659c3.773 1.579 6.435 9.223 5.567 12.955-.751 4.617-2.753 9.603-4.191 8.953-1.564-.58 1.066-4.589-.437-8.796-.835-2.738-5.984-7.741-5.442-9.216-1.063-3.09 2.189-4.442 4.503-3.897z" fill="#fff"/>
        <path d="M356.483 224.935c.794-9.178-.546-14.774-.784-20.168-.237-5.394-6.101-46.554-7.29-50.635-1.434-7.717 5.7-1.035 4.921-5.523-2.469-5.658-8.611-13.898-10.54-18.813-1.16-2.106-.673-3.979-3.27-.554-2.409 7.875-3.245 14.312-2.325 19.202 6.187 32.287 12.532 59.133 11.524 89.868 2.934.02 6.316-6.713 7.765-13.376z" fill="#fff"/>
        <path d="M421.005 139.674c3.44 1.71 5.455 11.289 5.075 14.025-.684 4.998-2.509 10.396-3.821 9.693-1.425-.628.286-7.413-.398-9.522-.761-2.964-5.455-8.381-4.961-9.977-.969-3.345 1.996-4.809 4.106-4.219z" fill="#fff"/>
        <path d="M165.343 207.597c3.29 1.256 5.219 8.295 4.856 10.307-.656 3.672-2.403 7.639-3.656 7.123-1.364-.461.274-5.447-.382-6.998-.278-3.76-4.845-5.706-4.749-7.331-.853-2.986 1.91-3.535 3.93-3.1z" fill="#fff"/>
        <path d="M244.846 218.165c4.247.269 6.369 3.602 2.391 4.999-3.924 1.344-7.695 2.393-7.713 8.064 1.451 7.902-1.991 5.19-4.044 4.117-2.419-1.737-9.208-5.919-10.175-14.95-.146-2.155 1.535-3.968 4.24-3.956 4.075 1.107 10.087 1.188 15.301 1.726z" fill="#1b9d00"/>
        <path d="M77.398 124.389c4.855 1.464 5.142 8.599 4.784 10.685-.647 3.807-2.367 7.919-3.602 7.384-1.344-.478-.053-5.647-.698-7.255-.719-2.258-4.822-6.384-4.356-7.599-.913-2.549 1.883-3.665 3.872-3.215z" fill="#fff"/>
        <path d="M173.27 158.035c-3.725 2.015-5.17 8.02-2.851 11.517 2.166 3.08 5.588 1.938 6.044 1.938 3.65.456 5.815-6.842 5.815-6.842s.115-2.052-4.219 1.826c-1.824.342-2.052-.343-2.508-1.37-.38-1.9-.304-3.8.57-5.701.646-1.824-.761-2.623-2.851-1.369z" fill="#fff"/>
        <path d="M201.209 121.623c-1.872 1.255-5.598 5.115-5.712 9.562-.114 2.509-.581 2.502 1.062 4.098 1.187 1.711 2.384 1.557 4.78.302 1.376-1.014 1.841-1.686 2.305-3.386.571-2.851-3.014 1.352-3.47-1.821-.798-2.946 1.504-4.151 3.67-7.002.072-1.953.03-3.336-2.635-1.755z" fill="#fff"/>
        <path d="M223.719 125.627c-.807 1.782-1.774 11.093-1.613 11.093-.644 2.774 2.903 3.961 4.516.395 2.418-6.537 2.418-9.311 2.58-12.084-.753-4.224-3.602-4.092-5.484.596z" fill="#fff"/>
        <path d="M365.633 197.843c.484-.484 19.998-14.352 19.998-14.352 1.989-.699 1.558 7.149.645 7.096.376 1.558-19.245 14.89-20.643 14.352-.967.699-1.935-5.375 0-7.096z" fill="#fff"/>
        <path d="M383.426 197.73c3.44 1.71 4.81 11.773 4.43 14.509.122 5.322-3.315 9.59-4.627 8.887-1.425-.628.125-6.606-.559-8.716-.761-2.964-3.682-8.542-3.188-10.138-.969-3.345 1.835-5.132 3.945-4.542z" fill="#fff"/>
        <path d="M267.356 241.057c1.357-1.984 5.55-4.838 5.645-4.838 1.934-.968 3.824.759 3.709.645.322 1.935-1.224 3.736-.74 6.317.423 1.04.733 2.195 2.639 1.755 3.098-2.438 5.969-2.595 9.067-2.751 2.375.143 2.469 4.163.967 4.193-5.721 1.244-8.285 2.775-12.37 4.335-1.935 1.128-3.596-.303-3.596-.464s-1.132-1.098-.342-3.662c.14-2.056-.687-3.183-2.4-2.95-1.29.698-2.426 1.16-3.072-.323-.254-1.095-.336-1.628.491-2.257z" fill="#fff"/>
        <path d="M403.965 246.476c.836 1.064 1.377 2.049-.067 3.797l-3.701 3.198c-.646 1.102-1.059 2.774.918 3.307 3.65 1.026 12.088-4.447 12.088-4.562 1.369-1.026.912-2.964.798-2.964-.798-.912-2.596-.371-3.805-.518-.576 0-2.465-.286-1.566-1.958.75-1.04 1.019-1.677 1.528-2.959.57-1.254.081-2.091-1.972-2.775-2.091-.38-2.926-.19-5.245 0-1.254.266-1.682.827-1.91 2.347.09 2.306 1.492 2.175 2.936 3.087z" fill="#fff"/>
        <path d="M267.952 189.813c-.535.925-2.343.879-4.038-.102s-2.636-2.527-2.101-3.452 2.343-.879 4.038.102 2.636 2.527 2.101 3.452z" fill="#259f00"/>
        <path d="M179.12 136.209c-1.013.249-2.338-.655-2.958-2.018s-.303-2.67.71-2.918 2.338.655 2.958 2.018.303 2.67-.71 2.918z" fill="#259f00"/>
        <path d="M355.229 374.962l27.487.562c1.694 1.44.484 4.976-.645 4.722l-7.833-.228c-.104-2.979-7.706-2.489-7.487.095-4.105.493-7.807-.143-11.911-.295-1.214-1.511-1.058-4.232.389-4.856z" fill="#209000"/>
    </g>
</svg>
