<svg xmlns="http://www.w3.org/2000/svg" id="flag-icon-css-sa" width="512" height="512">
  <defs>
    <clipPath id="a">
      <path fill-opacity=".67" d="M124.02 0h496.06v496.06H124.02z"/>
    </clipPath>
  </defs>
  <g fill-rule="evenodd" clip-path="url(#a)" transform="translate(-128) scale(1.0321)">
    <path fill="#199d00" d="M0 0h744.09v496.06H0z"/>
    <path fill="#fff" d="M187.52 140.62c-.86 11.59-1.89 31.98 7.96 34.08 11.9 1.14 5.34-20.16 9.65-24.03.82-1.9 2.32-1.92 2.44.5v18.06c-.1 5.88 3.76 7.61 6.76 8.82 3.12-.24 5.2-.13 6.43 2.9l1.47 31.26s7.24 2.08 7.58-17.58c.35-11.54-2.3-21.2-.75-23.44.06-2.2 2.87-2.34 4.83-1.27 3.11 2.2 4.5 4.91 9.34 3.83 7.36-2.03 11.78-5.61 11.9-11.27-.44-5.37-1.04-10.74-3.37-16.11.33-.98-1.42-3.51-1.1-4.49 1.33 2.07 3.34 1.9 3.8 0-1.25-4.13-3.2-8.08-6.35-9.8-2.6-2.29-6.42-1.82-7.81 2.97-.65 5.51 1.98 12.06 6 17.4.85 2.1 2.05 5.56 1.52 8.68-2.13 1.22-4.27.71-6.06-1.18 0 0-5.86-4.4-5.86-5.37 1.56-9.95.35-11.08-.52-13.85-.6-3.81-2.4-5.03-3.87-7.64-1.47-1.55-3.45-1.55-4.4 0-2.6 4.5-1.38 14.13.49 18.45 1.35 3.97 3.42 6.46 2.44 6.46-.8 2.24-2.47 1.73-3.67-.86-1.73-5.36-2.08-13.34-2.08-16.94-.52-4.46-1.08-13.97-4.02-16.39-1.79-2.44-4.44-1.25-5.37.98-.2 4.42-.21 8.85.28 12.93 2.02 7.15 2.65 13.44 3.63 20.77.27 9.81-5.68 4.26-5.4-.6 1.37-6.33 1.01-16.27-.2-18.8-.97-2.52-2.11-3.14-4.46-2.72-1.87-.12-6.67 5.12-8.01 13.82 0 0-1.15 4.47-1.64 8.44-.66 4.5-3.62 7.66-5.69-.63-1.79-6.02-2.9-20.85-5.89-17.38z"/>
    <path fill="#fff" d="M219.88 188.16c-10.51 5.14-20.68 9.93-31.01 14.9.37-7.03 14.74-19.72 24.54-19.9 6.38.17 4.77 2.47 6.47 5z"/>
    <path fill="#fff" d="M214.46 197.88c-16.34 42.13 38.27 48 44.38 1.73.57-1.9 2.88-3.8 3.28-.7-1.27 41.9-42.25 44.79-49.21 31.6-1.73-3.1-2.25-10.01-2.42-14.16-1.04-8.23-5.35-5.06-6.04 3.11-.7 4.55-.52 5.82-.52 10.2 2.18 33.09 54.97 18.87 63.54-8.47 4.55-15.14-.75-26.3 1.73-26.25 5.24 5.64 12.55.75 14.16-1.2.69-.98 2.42-1.62 3.62-.35 4.1 2.94 11.29 1.55 12.78-3.63.87-5.06 1.56-10.3 1.73-15.7-3.34 1.03-5.81 1.72-6.04 3.1l-.7 4.49c-.28 1.44-3.16 1.5-3.27-.35-1.27-5.75-6.5-6.5-9.67 2.42-2.13 1.73-6 2.07-6.4-.52.52-5.98-1.9-6.79-6.73-3.97-1.55-11.86-3.1-23.2-4.66-35.05 2.01-.06 3.86 1.44 5.7-.87-2.02-6.27-6.28-19.1-8.64-20.03-1.15-1.38-2.13-.51-3.62-.17-2.53.8-4.9 3-4.15 7.25 3 18.2 4.95 32.06 7.95 50.25.46 2.13-1.33 4.95-3.63 4.66-3.91-2.64-4.89-8-11.57-7.77-4.83.06-10.36 5.3-11.05 10.37-.8 4.02-1.1 8.4 0 11.9 3.4 4.1 7.48 3.7 11.05 2.77 2.94-1.2 5.35-4.14 6.39-3.45.7.86.17 10.53-13.81 17.96-8.47 3.8-15.2 4.66-18.82-2.25-2.25-4.32.17-20.72-5.36-16.92z"/>
    <path fill="#fff" d="M283.79 155.05c3.28-1.2 18.82-19 18.82-19-.8-.68-1.52-1.2-2.33-1.9-.86-.74-.78-1.49 0-2.24 3.86-2.24 2.62-7.16.6-9.4a9.38 9.38 0 0 0-8.37.08c-2.7 2.59-3.34 6.73-1.2 9.32 2.07.98 4.14 3.08 2.76 4.23-6.36 6.8-23.78 18.5-21.76 18.91.43.58 11.14.55 11.48 0zm-93.86 62.94c-5.83 9.29-6.34 23.16-3.12 27.3 1.7 1.95 4.52 2.8 6.6 2.2 3.66-1.6 5.26-9.01 4.39-11.73-1.22-1.91-2.19-2.21-3.4-.59-2.58 5.23-3.65 1.65-3.88-1.28-.4-5.54.13-10.65.73-14.7.64-4.14-.01-2.87-1.32-1.2zm249.09-14.87c-5.64-12.13-13.44-24.12-15.92-28.72-2.48-4.61-21.22-31.8-23.98-34.87-6.1-7.23 9.88 3.02-2.02-11.35-4.54-3.9-4.8-4.13-8.58-7.3-1.9-1.36-6.54-3.82-7.36.26a23.5 23.5 0 0 0 .41 8.55c.47 2 3.38 5.35 4.81 7.3 19.02 25.55 35.88 51.36 52.14 83.81 2.56-1.22 2-15.65.5-17.68z"/>
    <path fill="#fff" d="M414.28 243.71c-1.1 1.24 2.74 6.57 7.73 6.56 8.36-.97 15.71-5.66 22.52-18.02 1.82-2.88 5.02-9.04 5.12-13.82.63-28.02-1.4-49.83-5.6-70.09-.27-1.97-.1-4.29.22-4.88.55-.65 2.38 0 3.35-1.6 1.43-1.45-3.79-13.53-6.76-18.18-1.06-2.08-1.43-3.46-3.18.24-1.84 3.02-3.07 8.28-2.93 13.19 3.99 27.6 5.21 51.74 7.82 79.33.2 2.67-.18 6.55-1.96 8.1-6.56 6.85-16.03 15.28-26.33 19.17zm112.86-.15c-6 3.47-6 7.45-1.16 7.6 8.36-.97 18.23-1.67 25.04-11.95 1.82-2.88 3.99-10.67 4.08-15.45.64-28.02-.36-48.94-4.56-69.2-.27-1.97-1.14-6.51-.81-7.1.54-1.4 3.26.15 4.24-1.45 1.43-1.46-7.05-12.35-10.03-17-1.06-2.08-1.43-3.46-3.17.24-1.84 3.02-2.49 8.42-1.75 13.19 4.43 29.97 7.73 52.48 8.4 79.04-.37 2.52-.47 3.88-1.65 7.05-2.61 3.35-5.51 7.55-8.23 9.57-2.71 2.03-8.51 3.96-10.4 5.46z"/>
    <path fill="#fff" d="M531.64 216.7c-.07-7 .1-13.06-.13-18.29-.23-5.22-1.16-9.48-2.96-13.19-1.72-3.98-.65-7.17-1.46-11.41-.8-4.24-.6-10.58-1.82-15.6-.33-1.97-1.35-8.26-1.03-8.86.49-1.4 2.38.04 3.3-1.58 1.38-1.5-4.79-17.45-7.91-22-1.13-2.04-3.17-1.35-5.68 1.97-2.34 2.19-1.47 7.17-.58 11.9 6 31.3 10.47 59.61 9.49 89.4-.3 2.52 8.84-7.56 8.78-12.34zm-44.3-38.81c-3.77-.07-11.67-7.34-13.97-11.6a7.82 7.82 0 0 1 .45-6.22c1.4-.9 3.55-1.93 5.15-.95 0 0 1.67 2.33 1.34 2.63 2.06.98 2.94.42 3.15-.42.14-1.47-.61-2.34-.62-3.96.87-4.38 5.88-5.06 7.76-2.27 1.38 1.7 1.89 5.33 2.1 7.77-.02 1.25-2.04-.22-3.2.08-1.14.3-1.42 1.63-1.5 2.83-.21 3.17-.59 8.27-.66 12.11zm-69.59 46.58c1.04-9.52-.38-26.48-.48-32.1-.38-13.27-2.55-38.91-3.58-43.2-1.16-8.07 3.32.9 2.7-3.8-1.45-8.06-5.93-13.53-11.18-20.91-1.7-2.4-1.64-2.9-4.26.59-2.9 6.57-.4 11.08.35 16.2 3.8 16.67 6 32 7.04 47.17a381.24 381.24 0 0 1 .4 47.53c2.84.11 7.41-4.6 9.01-11.48z"/>
    <path fill="#fff" d="M544.47 209.22c-6.65-11.16-16.68-23.24-19.36-27.73-2.68-4.5-25.36-33.75-28.25-36.69-8.29-8.7 3.8-1.41-1.58-8.14-4.56-5.01-5.9-6.58-9.8-9.6-1.95-1.26-3.14-3.67-3.78.44-.26 3.62-.53 7.8-.28 10.85-.02 1.7 1.75 4.88 3.26 6.75 20.11 24.7 42.04 49.94 59.7 81.65 2.51-1.33 1.68-15.57.09-17.53z"/>
    <path fill="#1ba400" d="M242.79 188.63c-.48.84-1.54 1.93-1.19 3.05.75 1.01 1.35 1.22 2.59 1.27 1.08 0 2.59.26 2.91-.38a3.2 3.2 0 0 0 .54-3.18c-1.12-2.8-4.26-1.76-4.85-.76z"/>
    <path fill="#fff" d="M467.16 351.26c8.9.33 14.71.4 22.62 1.35 0 0 6.82-.68 9.26-1.05 10.3-.98 10.75 14.7 10.75 14.7-.12 9.2-3.67 9.69-8.2 10.66-2.59.33-3.95-1.55-5.31-3.55-1.71.71-4.03.82-6.85.43-3.7-.24-7.4-.22-11.11-.45-3.94-.35-6.03.4-9.97.06-.81 1.27-1.87 3.04-4.27 2.47-2-.22-4.38-5.84-3.68-10.12 1.44-3.07 1.05-2.08.9-3.43-36.36-.92-73.07-2.54-108.72-2.08-27.9.12-55.46 1.27-83.02 2.43-14.7-.23-25.94-2.55-33.7-13.9.7 0 37.52 2.09 48.29 1.4 19.91-.24 38.09-1.86 58.35-2.44 39.95.7 79.55.7 119.5 3.48-3.83-2.62-3.97-8.8 1.92-10.3.5-.34.75 3.07 1.63 3 4.7-.35 2.65 6.03 1.61 7.34zM306.78 131.07c-6.05 17.3 3.47 36.23 10.07 34.39 4.76 1.97 7.8-7.1 9.75-17.02 1.33-2.78 2.34-3.08 3.02-1.65-.17 13.2.95 16.13 4.34 20.13 7.58 5.84 13.84.75 14.33.26l5.9-5.9c1.3-1.38 3.05-1.46 4.9-.24 1.8 1.63 1.55 4.46 5.41 6.42 3.25 1.3 10.18.3 11.8-2.5 2.15-3.7 2.67-4.97 3.67-6.38 1.55-2.06 4.18-1.14 4.18-.5-.25 1.15-1.79 2.3-.74 4.36 1.84 1.38 2.26.5 3.35.19 3.84-1.84 6.72-10.2 6.72-10.2.17-3.1-1.57-2.84-2.7-2.2-1.47.9-1.57 1.19-3.04 2.09-1.88.28-5.52 1.52-7.32-1.27-1.84-3.35-1.87-8.03-3.27-11.41 0-.25-2.44-5.33-.17-5.65 1.14.21 3.59.86 3.98-1.2 1.2-2-2.58-7.7-5.16-10.56-2.24-2.47-5.35-2.76-8.35-.25-2.1 1.93-1.8 4.1-2.21 6.14-.54 2.35-.42 5.24 1.96 8.35 2.1 4.14 5.93 9.46 4.67 16.95 0 0-2.24 3.54-6.13 3.08-1.62-.36-4.25-1.05-5.66-11.43-1.06-7.86.25-18.86-3.09-24.01-1.2-3.12-2.08-6.12-5.02-.8-.79 2.1-4.17 5.27-1.72 11.8 2.01 4.13 2.83 10.86 1.92 18.36-1.4 2.12-1.7 2.85-3.53 4.97-2.56 2.76-5.34 2.06-7.47 1.03-2-1.34-3.55-2.04-4.46-6.3.16-6.8.54-17.92-.7-20.28-1.83-3.65-4.85-2.33-6.14-1.23-6.2 5.67-9.26 15.23-11.13 22.85-1.72 5.54-3.55 3.95-4.84 1.72-3.13-2.94-3.34-25.88-7.12-22.11z"/>
    <path fill="#fff" d="M325.01 168.68c2.75-1.95 1.46-3.3 5.58.8a69.8 69.8 0 0 1 8.95 30.3c-.22 2.48 1.53 4.06 2.33 3.52.48-5.84 14.69-13.98 27.71-15.17 2-.44 1.02-4.25 1.35-6.2-.78-7.23 4.06-13.81 10.85-14.34 9.24 1.37 12.32 6.3 12.48 13.83-1 14.46-16.06 16.91-24.53 18.06-1.3.5-1.83 1.1 0 1.8l35.46.16 1.8 1.05c.23.84-.5.14-1.9 2.44s-3.47 7.62-3.58 11.17c-10.56 3.4-21.49 4.89-32.6 6.23-3.85 1.95-5.76 4.55-4.97 7.48 1.3 3.24 9.84 6.48 9.84 6.64 1.63 1.02 3.55 3.4-.46 8.26-17.3-.76-30.7-8.12-35.33-18.51-1.4-1.08-2.9 0-3.87 1.4-6.75 8.7-13.4 16.54-24.91 20.7-6.86 1.72-13.9-1.05-17.21-5.55-2.22-2.56-2.14-5.38-2.95-6-3.71 1.65-35.64 15.21-31.6 8.9 7.77-8.32 21.23-14.43 33.1-22.64.86-2.75 2.42-12.06 7.12-15.09.27.03-.75 5.47-.65 7.76.06 1.89-.13 2.62.28 2.14.8-.51 15.22-11.84 16.33-15.31 1.4-2 .42-7.04.42-7.2-2.7-6.96-6.5-7.55-7.9-11.02-1.27-4.6-.7-9.84 1.94-11.3 2.33-2.13 5.1-1.86 7.65.45 2.9 2.6 5.5 7.7 6.24 11.5-.5 1.5-3.8-1-4.96-.25 2.04 2.1 2.98 4.53 3.72 7.5 1.88 7.96 1.3 11.05-.59 16.2-6.4 13.45-14.58 17.47-21.73 22.45-.2.07-.32 3.42 2.37 5.23.93.97 4.66 1.47 9.05.06 8.48-4.62 17.29-13.14 21.66-22.64 1.27-7.18-.5-14.8-2.36-21.43a252.66 252.66 0 0 1-6.12-15.91c-.11-4.05.22-5.45 1.99-7.47zm-92.83-37.43c4.08 1.95 11.75 1.12 11.43-5.46 0-.58-.15-2.55-.2-3.09-.84-1.94-3.11-1.46-3.63.55-.16.65.3 1.72-.3 2.05-.34.34-1.65.14-1.6-1.68 0-.58-.42-1.2-.68-1.57-.26-.16-.42-.21-.89-.21-.57.02-.56.17-.87.65-.13.49-.31.96-.31 1.51-.08.65-.32.88-.8.98-.53 0-.4.05-.84-.22-.25-.28-.57-.39-.57-.86 0-.5-.12-1.3-.26-1.63-.23-.3-.6-.43-1-.54-2.23 0-2.39 2.55-2.26 3.52-.16.18-.26 4.74 2.78 6z"/>
    <path fill="#fff" d="M351.81 181.89c4.08 1.95 13.8.83 11.43-5.46 0-.58-.15-2.55-.2-3.09-.84-1.94-3.11-1.46-3.63.55-.16.65.3 1.72-.3 2.05-.34.34-1.65.14-1.6-1.68 0-.57-.42-1.2-.68-1.56-.26-.17-.42-.22-.89-.22-.57.02-.56.17-.87.65-.13.49-.31.96-.31 1.51-.08.65-.32.88-.8.98-.53 0-.4.06-.84-.22-.25-.28-.57-.39-.57-.86 0-.5-.12-1.3-.27-1.63-.22-.3-.58-.43-1-.54-2.22 0-2.38 2.55-2.25 3.52-.17.18-.26 4.74 2.78 6zm69.75-20.96c4.08 1.95 11.75 1.12 11.43-5.46 0-.58-.15-2.55-.2-3.09-.84-1.94-3.11-1.46-3.63.55-.16.65.3 1.72-.3 2.05-.34.34-1.65.14-1.6-1.68 0-.58-.42-1.2-.68-1.57-.26-.16-.42-.21-.89-.21-.57.02-.56.17-.87.65-.13.49-.31.96-.31 1.51-.08.65-.32.88-.8.98-.53 0-.4.06-.84-.22-.25-.28-.57-.39-.57-.86 0-.5-.12-1.3-.27-1.63-.22-.3-.58-.43-1-.54-2.22 0-2.38 2.55-2.25 3.52-.17.18-.26 4.74 2.78 6zm36.13 52.63c-7.11 8.01-3.98 21.27-2.37 24.13 2.35 4.69 4.23 7.7 8.8 10.02 4.15 3.06 7.39 1.14 9.17-1 4.19-4.33 4.24-15.4 6.2-17.59 1.38-4.03 4.84-3.34 6.53-1.55a15.96 15.96 0 0 0 5.94 5.13c3.9 3.44 8.56 4.07 13.15.93 3.14-1.76 5.18-4.03 7.01-8.54 2.04-5.46.9-30.66.5-45.6-.16-1.18-4.06-20.55-4.06-20.77 0-.21-.51-9.88-.94-12.19-.07-.93-.3-1.2.67-1.08 1.04.87 1.18.93 1.83 1.22 1.05.19 2-1.6 1.36-3.24l-9.74-17.96c-.78-.77-1.79-1.61-3.03.22a7.04 7.04 0 0 0-2.4 5.33c.29 4.26 1.03 8.59 1.32 12.84l3.9 21.85c1.22 15.58 1.53 28.33 2.76 43.9-.18 6.6-2.23 12.35-4.15 13.18 0 0-2.92 1.7-4.89-.18-1.42-.57-7.14-9.52-7.14-9.52-2.92-2.68-4.84-1.91-6.92 0-5.73 5.53-8.32 15.88-12.22 23.02-1 1.6-3.84 2.96-6.98-.11-7.99-10.91-3.3-26.43-4.3-22.44zm-34.29-90.84c3.66 1.53 6.24 8.94 5.4 12.55-.73 4.47-2.67 9.3-4.07 8.68-1.51-.57 1.04-4.45-.42-8.53-.8-2.65-5.8-7.5-5.27-8.92-1.03-3 2.12-4.3 4.36-3.78z"/>
    <path fill="#fff" d="M469.46 217.96c.77-8.9-.53-14.32-.76-19.54-.23-5.23-5.91-45.11-7.06-49.07-1.4-7.48 5.52-1 4.76-5.35-2.39-5.48-8.34-13.47-10.2-18.23-1.13-2.04-.66-3.86-3.18-.54-2.33 7.63-3.14 13.87-2.25 18.61 6 31.29 12.14 57.3 11.17 87.08 2.84.02 6.12-6.5 7.52-12.96zm62.47-82.63c3.33 1.66 5.29 10.94 4.92 13.59-.67 4.84-2.43 10.07-3.7 9.4-1.39-.62.27-7.2-.4-9.23-.73-2.88-5.28-8.12-4.8-9.67-.94-3.24 1.94-4.66 3.98-4.09zm-247.71 65.81c3.19 1.22 5.06 8.04 4.7 9.99-.63 3.55-2.32 7.4-3.54 6.9-1.32-.45.27-5.28-.37-6.78-.27-3.65-4.7-5.53-4.6-7.1-.82-2.9 1.85-3.43 3.81-3.01z"/>
    <path fill="#1b9d00" d="M361.25 211.38c4.12.26 6.17 3.49 2.32 4.84-3.8 1.3-7.46 2.32-7.48 7.82 1.41 7.65-1.92 5.03-3.91 3.99-2.35-1.69-8.93-5.74-9.86-14.49-.14-2.09 1.48-3.84 4.1-3.83 3.95 1.07 9.78 1.15 14.83 1.67z"/>
    <path fill="#fff" d="M199.01 120.52c4.7 1.42 4.98 8.33 4.63 10.35-.62 3.7-2.29 7.68-3.49 7.16-1.3-.47-.05-5.47-.67-7.03-.7-2.19-4.67-6.19-4.22-7.37-.89-2.47 1.82-3.55 3.75-3.11zm92.89 32.6c-3.6 1.95-5 7.77-2.76 11.16 2.1 2.98 5.41 1.88 5.85 1.88 3.54.44 5.64-6.63 5.64-6.63s.1-1.99-4.09 1.77c-1.77.33-1.99-.34-2.43-1.33a8.72 8.72 0 0 1 .55-5.52c.63-1.77-.74-2.54-2.76-1.33zm27.07-35.28c-1.81 1.22-5.42 4.96-5.53 9.27-.11 2.43-.57 2.42 1.02 3.97 1.15 1.65 2.31 1.5 4.64.29a4.96 4.96 0 0 0 2.23-3.28c.55-2.76-2.92 1.3-3.36-1.77-.78-2.85 1.45-4.02 3.55-6.78.07-1.9.03-3.23-2.55-1.7zm21.81 3.88c-.78 1.73-1.72 10.75-1.56 10.75-.63 2.69 2.81 3.84 4.37.38 2.35-6.33 2.35-9.02 2.5-11.7-.73-4.1-3.49-3.97-5.31.57zm137.5 69.97c.47-.47 19.38-13.9 19.38-13.9 1.92-.68 1.5 6.92.62 6.87.36 1.5-18.65 14.43-20 13.9-.94.68-1.88-5.2 0-6.87zm17.24-.11c3.33 1.66 4.66 11.4 4.3 14.06.11 5.15-3.22 9.29-4.5 8.6-1.37-.6.13-6.4-.53-8.44-.74-2.87-3.57-8.27-3.1-9.82-.93-3.24 1.79-4.97 3.83-4.4zm-112.46 41.98c1.31-1.92 5.38-4.69 5.47-4.69 1.87-.94 3.7.74 3.6.63.3 1.87-1.2 3.62-.72 6.12.4 1 .7 2.12 2.55 1.7 3-2.36 5.79-2.52 8.79-2.67 2.3.14 2.39 4.04.94 4.07-5.55 1.2-8.03 2.68-11.99 4.2-1.87 1.09-3.48-.3-3.48-.45s-1.1-1.07-.33-3.55c.13-2-.67-3.09-2.33-2.86-1.25.68-2.35 1.12-2.98-.31-.24-1.06-.32-1.58.48-2.19zm132.36 5.25c.81 1.03 1.33 1.98-.06 3.68-1.33 1.21-2.26 1.88-3.6 3.1-.62 1.07-1.02 2.69.9 3.2 3.53 1 11.71-4.3 11.71-4.42 1.33-1 .88-2.87.77-2.87-.77-.88-2.51-.36-3.68-.5-.56 0-2.4-.28-1.52-1.9.73-1 .99-1.62 1.48-2.87.55-1.21.08-2.02-1.91-2.68-2.03-.37-2.84-.19-5.08 0-1.22.25-1.63.8-1.85 2.27.08 2.23 1.44 2.1 2.84 2.99z"/>
    <path fill="#259f00" d="M383.78 183.83c-.51.9-2.27.85-3.91-.1s-2.56-2.45-2.04-3.35 2.27-.85 3.92.1 2.55 2.45 2.03 3.35zm-86.3-51.92c-.98.24-2.26-.64-2.86-1.96s-.3-2.58.69-2.82 2.26.63 2.86 1.95.3 2.59-.69 2.83z"/>
    <path fill="#209000" d="M468.2 363.3c9.06.44 17.57.1 26.63.55 1.64 1.39.47 4.82-.62 4.57-2.95-.07-4.65-.15-7.6-.22-.1-2.89-7.46-2.41-7.25.1-3.97.47-7.56-.15-11.54-.3-1.17-1.46-1.02-4.1.38-4.7z"/>
  </g>
</svg>
