<svg xmlns="http://www.w3.org/2000/svg" height="512" width="512"><defs><clipPath id="a"><rect fill-opacity=".67" height="496.06" width="496.06"/></clipPath></defs><g fill-rule="evenodd" clip-path="url(#a)" transform="scale(1.032 1.032)"><path d="M0 491.39l956.69-491.39h-956.69v491.39z" fill="#0000d6"/><path d="M992.13 0l-965.8 496.06h965.8v-496.06z" fill="#006000"/><path d="M992.163 0h-53.166l-938.996 470.248v25.815h53.15l938.996-469.331v-26.733z" fill="#fc0"/><polygon transform="matrix(.526 0 0 .495 -211.72 -118.39)" points="476.5 433.15 498.45 365.81 441.12 324.21 511.95 324.28 533.78 256.9 555.61 324.28 626.44 324.23 569.1 365.81 591.04 433.16 591.04 433.16 533.77 391.48" fill="#fff"/><polygon transform="matrix(.526 0 0 .495 -26.526 -118.39)" points="476.5 433.15 498.45 365.81 441.12 324.21 511.95 324.28 533.78 256.9 555.61 324.28 626.44 324.23 569.1 365.81 591.04 433.16 591.04 433.16 533.77 391.48" fill="#fff"/><polygon transform="matrix(.526 0 0 .495 -26.526 21.596)" points="476.5 433.15 498.45 365.81 441.12 324.21 511.95 324.28 533.78 256.9 555.61 324.28 626.44 324.23 569.1 365.81 591.04 433.16 591.04 433.16 533.77 391.48" fill="#fff"/><polygon transform="matrix(.526 0 0 .495 -118.58 -47.579)" points="476.5 433.15 498.45 365.81 441.12 324.21 511.95 324.28 533.78 256.9 555.61 324.28 626.44 324.23 569.1 365.81 591.04 433.16 591.04 433.16 533.77 391.48" fill="#fff"/><polygon transform="matrix(.526 0 0 .495 -211.72 21.596)" points="476.5 433.15 498.45 365.81 441.12 324.21 511.95 324.28 533.78 256.9 555.61 324.28 626.44 324.23 569.1 365.81 591.04 433.16 591.04 433.16 533.77 391.48" fill="#fff"/></g></svg>