<svg xmlns="http://www.w3.org/2000/svg" id="flag-icon-css-sg" width="512" height="512">
  <defs>
    <clipPath id="a">
      <path fill-opacity=".67" d="M27.68 0h708.66v708.66H27.68z"/>
    </clipPath>
  </defs>
  <g fill-rule="evenodd" clip-path="url(#a)" transform="translate(-20) scale(.72249)">
    <path fill="#fff" d="M0 0h1063v708.66H0z"/>
    <path fill="#df0000" d="M0 0h1063v354.33H0z"/>
    <path fill="#fff" d="M245.16 59.4c-49.08 11.25-85.54 47.6-95.86 97-14 67.13 29.72 132.86 96.98 146.89-67.95 19.37-138.17-19.69-157.36-87.02-19.2-67.32 19.86-137.54 87.19-156.73 23.63-6.74 45.4-6.78 69.05-.14z"/>
    <path fill="#fff" d="M202.06 162.44l-18.95-13.8 23.44-.2 7.28-22.31 7.43 22.25 23.46.03-18.86 13.94 7.23 22.32-19.1-13.62-19 13.75zm25.93 76.86l-18.95-13.8 23.44-.2 7.28-22.31 7.43 22.25 23.46.03-18.86 13.94 7.23 22.32-19.1-13.62-19 13.75zm86.26-.57l-18.95-13.8 23.44-.2 7.28-22.31 7.43 22.25 23.46.04-18.86 13.93 7.23 22.32-19.1-13.62-19 13.75zm25.72-76.22l-18.95-13.81 23.44-.2 7.28-22.31 7.43 22.25 23.46.03-18.86 13.94 7.23 22.32-19.1-13.62-19 13.75zm-68.3-50.58L252.74 98.1l23.44-.2 7.28-22.3 7.43 22.25 23.46.04-18.86 13.93 7.23 22.32-19.1-13.62-19 13.75z"/>
  </g>
</svg>
