<svg xmlns="http://www.w3.org/2000/svg" height="512" width="512" version="1"><defs><clipPath id="a"><rect fill-opacity=".67" height="708.66" width="708.66" x="27.682"/></clipPath></defs><g fill-rule="evenodd" clip-path="url(#a)" transform="matrix(.722 0 0 .722 -20 0)"><rect height="708.66" width="1063" fill="#fff"/><rect height="354.33" width="1063" fill="#df0000"/><path d="M245.165 59.399c-49.08 11.253-85.548 47.594-95.859 97.004-14.009 67.128 29.718 132.855 96.975 146.885-67.951 19.373-138.17-19.688-157.365-87.013-19.193-67.323 19.868-137.541 87.193-156.736 23.634-6.74 45.393-6.782 69.056-.14z" fill="#fff"/><polygon transform="matrix(1.834 0 0 1.834 -255.13 -795.56)" points="249.27 522.33 238.94 514.8 251.72 514.69 255.69 502.53 259.74 514.66 272.53 514.68 262.25 522.28 266.19 534.45 266.19 534.45 255.78 527.02 245.42 534.52" fill="#fff"/><polygon transform="matrix(1.834 0 0 1.834 -229.2 -718.7)" points="249.27 522.33 238.94 514.8 251.72 514.69 255.69 502.53 259.74 514.66 272.53 514.68 262.25 522.28 266.19 534.45 266.19 534.45 255.78 527.02 245.42 534.52" fill="#fff"/><polygon transform="matrix(1.834 0 0 1.834 -142.94 -719.27)" points="249.27 522.33 238.94 514.8 251.72 514.69 255.69 502.53 259.74 514.66 272.53 514.68 262.25 522.28 266.19 534.45 266.19 534.45 255.78 527.02 245.42 534.52" fill="#fff"/><polygon transform="matrix(1.834 0 0 1.834 -117.22 -795.5)" points="249.27 522.33 238.94 514.8 251.72 514.69 255.69 502.53 259.74 514.66 272.53 514.68 262.25 522.28 266.19 534.45 266.19 534.45 255.78 527.02 245.42 534.52" fill="#fff"/><polygon transform="matrix(1.834 0 0 1.834 -185.51 -846.08)" points="249.27 522.33 238.94 514.8 251.72 514.69 255.69 502.53 259.74 514.66 272.53 514.68 262.25 522.28 266.19 534.45 266.19 534.45 255.78 527.02 245.42 534.52" fill="#fff"/></g></svg>