<svg xmlns="http://www.w3.org/2000/svg" id="flag-icons-sh-hl" viewBox="0 0 512 512">
  <path fill="#006" d="M512 512V0H0v512z"/>
  <path fill="#012169" d="M0 0h256v256H0Z"/>
  <path fill="#fff" d="M256 0v32l-95 96 95 93.5V256h-33.5L127 162l-93 94H0v-34l93-93.5L0 37V0h31l96 94 93-94z"/>
  <path fill="#c8102e" d="m92 162 5.5 17L21 256H0v-1.5zm62-6 27 4 75 73.5V256ZM256 0l-96 98-2-22 75-76ZM0 .5 96.5 95 67 91 0 24.5Z"/>
  <path fill="#fff" d="M88 0v256h80V0ZM0 88v80h256V88Z"/>
  <path fill="#c8102e" d="M0 104v48h256v-48ZM104 0v256h48V0Z"/>
  <path fill="#128bbf" stroke-width=".896665" d="M477 217.4c-.2 60.9-10 126.4-89.3 157.6-79.3-31.2-89-96.7-89.2-157.6z"/>
  <path fill="#e8ece9" stroke-width=".896665" d="M387.7 375c36-14.1 58.3-37.2 71.2-61.8a16 16 0 0 0-7.7-.2c-2-.1-76.7-5.6-85.5-8.8-7.7-2.8-36.8 2.3-50.4 7.2 12.7 26.2 34.7 48.8 72.4 63.6z"/>
  <path fill="#69522b" stroke-width=".896665" d="M332.3 337.3c1.2-.4 3.5-.3 4.4-.1 1 .2 1.3.3 1.7-.9.4-1.1 1.2-.9 2-.3.6.6 2.4.3 3-.7.7-1 1-.8 1.6-.1.7.6 1 .4 1.7.2.7-.1 1.8-1 2.4-2 .6-1 1.5-1.4 2-.9.4.6 1 1 1.6.8.7 0 .9.6.8 1.5-.1.8.3 1 2-.3 1.4 1.4 1.9.8 1.9-.7s-.4-7.3-1-8c-.6-.8-1.1-3-1.2-4.8-.2-3.3-.2-3.5-4.2-5.5 0-1.2-.3-1.6-3.2-1.5.1-.3-.4-1.5-1-2-.5-.5-.6-.7-.3-2 1.1 0 2.4-.1 3-1 .8-1 3-.9 4.4-.3 1.4.6 3.1.7 5.7.3 1-.8 2.7-1.6 4.4-2.6 1.8-1 2.3-1.4 2.4-2.7.2-3.5-1-7.5-2-9.3-1-1.8-1.2-4.2-2.6-7-1.5-3.2-1.5-4-3.1-6-.5-.5-1-1-1.1-2-.1-1-.5-2.5-1.7-3.6-3-2.7-4-11.3-5.2-17.7-.7-3.7-.2-12.3-1.8-13.7-2.6-2-3.9-1.7-5.6-2.4-1.3-1.7-1.9-5.2-3-8.3-2 .3-3.2 2.2-4.5 2.9-1.2.7-1.4.7-1.4 2.4 0 1.8-1 4.2-2.8 6.9-1.7 2.7-4.6 2-7 6-5.4-6.5-5.5-8.3-6-10.2-.3-1.8-1.2-2.2-4.2-4.8 0-.8-.4-3.9-.1-5.6-2.3-1.9-4-1.6-5-.2-1 1.3-1.8 3.4-3.5 4.1-1 1.3-4 4.5-6.5 8.2 2.3 33.7 10 67.2 33 94z"/>
  <path fill="#bca76b" stroke-width=".896665" d="M477 217.4c0-22.9-1.3-45.1-.7-64.6-29.7-13.2-68.7-15.9-88.6-15.9-19.9 0-58.9 2.7-88.5 15.9.6 19.5-.7 41.7-.7 64.6z"/>
  <path fill="#cfa763" stroke-width="3.73917" d="M303.4 244c1 1.5 2.7 4.2 2.9 5.6.7-1.4 1.2-2 1.4-2.9.1-.8 1.1-2.5.7-3.5-.4-.9-.7-1.6.4-1 1 .7.9 2 .7 3.7-.7 4.7-2.7 5.7-3 8.9 3 6.7.8 9.1 3.9 15.7.5.3 1.8-.2 2.2-.1 1.6-1.2 2.9-.8 5.2-.3 2.3.5 3.6 2.1 3.6 3.6 0 1.4 0 1.8.5 2.7.5.9 1.5 2.2 1.3 3.2-.2 1 .2 1.5.4 2 .3.5 0 1.6-.3 2.2-.3.7-.2 1.6 1 3 1.1 1.5 3.8 7.6 3.8 11.2 0 3.6.2 5.2 1.7 5.9 1.5.7 2 1.2 1.7 2.8-.1 1.5.7 9.6 1 10.8.1 1.3.6 1 1.2 1.7s1 1.4 3 1.4c1.9 0 3.8-.2 5 0 1.8 2.4 2.9 5.7 3.2 7.7.4 2 .4 4.8 1 4.8.8 0 1.5.1 1.3-2.4-.2-2.5-.4-2.9-1.3-4.2-.9-1.2-1.4-1.8-.9-2.6.5-.7.6-2 .4-3-.2-1-.5-2.4 1.2-.5l2.6 3.1c.5.7.7 2 .6 3.1-.1 1.2 0 1.7.8 1.1.7-.6 1.5.4 1.1 1.6-.4 1.3.1 2 1.3 2.5 1.2.4 1.7.6 2 1.5.3.9 1.2 1.3 1.2-.5 0-1.7-.7-5.4-1.1-6.6-.5-1.1-1-3.6-1-5-.1-1.5-.4-2-1-2.2-.8-.3-1.4-.8-1.5-1.5 0-.6-.6-.9-1-.9-.5 0-1-.3-1.2-.8-.2-.5-.4-.5-1-.6-.4 0-1.2.3-1.4-.5-.3-.8-.6-2-1.1-2.5-.5-.7-1-.9-1-3 0-2.2 0-2.5-.8-3.3-.7-.8-1.8-2.8-2.3-3.7-.5-.8-1-1.7-1 .1 0 1.9 0 2.8 1.2 3.5 1.2.7 1.4.7 1 1.7-.5 1 0 1.6.2 2.3.1.7.5 1.3 0 2-.6.7-1.2.5-1.1-.6a6 6 0 0 0-.8-3.2c-.5-.8-.9-1.4-1.5-1-.5.6-1 0-.6-.4.3-.4.2-.7 0-1-.3-.3-.4-.6 0-1.1.5-.6.5-1 .2-2.3-.2-1.3-2.4-8-3.4-9.6-1-1.6-.8-2.8.4-1.2 1.3 1.5 2.4 2.9 2.5 4.2 0 1.2.4 2 .7 2.5.4.5.7.3 1-.8.1-1 .9-.7-.5-2.7-1.3-2-3.9-5.4-4.8-11.5-1-6.1-1.4-10.2-2.4-11.8-1-1.7-1.3-2-1.4-3.6 0-1.6 0-3.1-.6-4.3-.7-1.1-1.2-1.3-1.3.4-.1 1.7.1 5.6.6 6.3.5.7.2 2.4 0 3.4 0 1-1.6 2 1.6 3.9 1.3.7 1.1 1.8 1 2.5-.3.7-.5.6-1.2-.5-.6-1-1.3-2-2-2.5-.7-.6-.8-1-.7-2.3.1-1.4.4-2.4 0-2.9-.4-.4-.6 0-.8.7-.2.8-.4 3-.7 3.5-.4.6-.6.2-1-1a12 12 0 0 1 .9-5.5c.6-2.2 1-4.5.4-7.4-.5-3-.2-3.8-2.5-6.2-2.2-2.4-4.8-4.8-5.8-7.8-1.1-3-1.3-5.6-2.5-7a16.2 16.2 0 0 0-3.9-3.5V233c0-1-.5-1.7-1.7-1.5-1.3.2-2 1.2-2.9 2.7-.7 1.4-1.3.8-2.4 3.3-1 2.5-2.6 3.8-2.6 6.5z"/>
  <path fill="#cfa763" stroke-width="3.73917" d="M310.4 272.3c.8.5 1.5.8 2.7.3 1.2-.6 2.5-2.3 4.1-.7 1.6 1.7 2.4 4.4 2.4 6.5 0 2.2 0 6.1 2.5 8.4 2.4 2.2 3.7 4.5 3.8 7.4 0 3 1.2 7.4 1.5 8.5.2 1.2 1 2.5 1.7 3.3.8.8 1.4 3 1.5 5.3 0 2.4-.3 4 0 5.2.3 1.1 0 2.1-1 1.5-.8-.6-1-.9-1.5-1.8-.5-1-1-.8-.6.7.5 1.4 2 2.8 3.3 2.8 1.2 0 1.6.2 2.4 1 .8.7.9 1 2.2 1a7 7 0 0 1 2.9.5c1.2.4 1.2.2 2 0 .6-.2 1.3.4 1.8 1.6.5 1.3 1.6 4.8 1.6 5.7 0 1 0 2 .7 3s.5 1.9-.3 1.3c-.8-.6-.8-.4-1.3-.3-.6.1-1-.2-1.8-.7-.8-.5-.3-.4-1-1.5-.8-1.2-1.3-1.6-1.3-.7 0 .9-.1 2-.7 1.5s-.9-.5-1.4 0c-.5.4-.7.8-1.2-.1-.6-1-1.3-1-1.9-1.2-.6-.2-.6-.2-.9-1-.3-1-1.1-1.1-2-1.1-.7 0-1.1-.4-1.2-1-.1-.6-.6-1-1-1.3-.4-.2-.2-1-.3-1.6 0-.7-.6-.4-1-.6-.4-.2-.7 0-.7-1s-.4-1.3-.7-2c-.3-.7 0-1.3.2-2.1s0-1.3-.5-2c-.6-.6 0-1.3-1.7-2.7-1.5-1.3-2.3-.2-2.8-3.3-.5-3.2-1.4-9.8-2.3-10.9-.9-1-1.5-1.8-2.4-2.1-.8-.3-1.4-.1-1.5-2-.1-1.8-.7-4.1-1.9-5.3l-2.2-2c-.6-.5-.8-1.4 0-3 .8-1.7.5-3.9.4-5-.1-1-.4-2.4-.2-3.5.2-1.2 0-2.7-.2-3.4-.3-.8-.7-1-.2-1.6z"/>
  <path fill="#d7c99c" stroke-width="3.73917" d="M340 325.3c-.6 1.1-1.2.8-1.8.2-.6-.6-1.3-.6-1-1.7.3-1 .2-1.2-.6-1.8l-.3-.2h-.9c-1.3 0-1.4-.4-2.2-1.2a6.5 6.5 0 0 0-.5-.4v.7c0 1 0 .9-1 1.2-1.1.3-1-1-1.1-2a3.2 3.2 0 0 0-.2-.5c-1.2-.2-2.4-1.4-2.9-2.7-.4-1.5.1-1.7.6-.7s.7 1.2 1.6 1.8c.9.6 1.2-.4.9-1.5l-.1-1.3c-.2-.4-.5-.7-.9-.9-1.6-.6-1-.8-1-2 .1-1.3-.2-1.3-1.1-.7-1 .7-1.1 0-1.1-2s-1.3-2-1.6-.6c-.3 1.4-.8.5-1.3-1.4-.6-2-1.4-2.5-1.5-.6 0 1.5-.5 2-1.5 1l.4 3c.5 3.2 1.3 2 2.8 3.4 1.6 1.4 1.1 2 1.7 2.7.6.7.7 1.2.5 2-.2.8-.5 1.4-.2 2.1.3.7.7 1 .7 2s.3.8.7 1c.2.1.5 0 .7.2.3-.4.5-.8.8-1 1.2-1.2 3 0 3.5 1.5.6 1.4 1.3 1.8 2.2.7.9-1.2.6-1 1.5 0 1 1.1 1.4 1 1.4 1s1-.4 1.7.1c.6.6 1 .5 2.3-1.3 1.3-1.9-.6-1.3-1.2-.1z"/>
  <g fill="#7fb8c1" stroke-width="4.17009">
    <path d="M341 338.8a38 38 0 0 0 9.3-2.6 15 15 0 0 0 5.4 2.5c-2.2.5-3.7.2-4.3-.2.3.7 1.1 1.8 1.6 1.9-2.1-.1-4.6-.6-5.4-1.4-1.8.8-5 1-6.7-.2zm4.1 3 5.5.9c-1.4 1.1-.2 2.2 2.1 2-1.1.2-2.3.6-1.5.8 2 .4 7.4-1.1 8.5-1.7-1.9 2.4-10.9 4.6-14.6-2zm3.7 5.8c1.1-.5 4-.3 5.2.3-1.4.5-4.3.5-5.2-.3z"/>
    <path d="M353 347.5c2-.3 7.7 1 9.7-.1-.7 1.7-4.3 2-5.5 1.6-1.2-.4-2.4-.9-3.2-.8.4-.3-.3-.3-1-.7zm2 2.8c1.6.2 7-.4 8.6-1 1.8.5 5.3 1.4 6 1.3-1.6 1-4.8.5-5.8 0-3 1-5.3 1.3-8.7-.3z"/>
    <path d="M357.6 351.2c2.2.5 4 .1 6.2-.6.6.3 2.2.7 3.7.6 1 .6 2.3 1.3 3.6 1.4-1.4.6-6.2 0-7.2-.5-2.4 0-6.6.6-7.6 1.4 0-.7.4-1.6 1.3-2.3zm-2.5-11c1.6.6 7.8.4 10.9-1 1.2-.7 2 .3.6.8-5.1 1.7-9.1 2.4-12 .9-1.2-.6-1.3-1.2.5-.6zm29.9-8.1c-7.5 3.4-12.5 4.5-23 1.3-.9-.3-1.6 0-.5.7 1 .7 6.8 2.2 8.2 2.3 1.4.1.9.7 0 1-.8.2-1 .8 0 .4 1.2-.5 7.5-.6 10 .7 1.2.6 1.4.5 1.3 0 0-.4.5-.7 1.4-.8.8 0 1.3-.4.6-.6-.6-.3-.7-.4-.2-.6.5-.3.5-.5-.2-.7-.7-.1-1.2-.3-.5-.6.7-.4 1.7-.6 2.5-.7.2-.6-.2-2 .4-2.4z"/>
    <path d="M372.5 333c4.3.2 12.2-1.7 16.4-5.8 1.5.9 3.5 1.9 4.6 2 1 .2 2 1.2.4 1.2-1.7 0-4-.7-5-1.2a29 29 0 0 1-16.3 4.2c-1.2 0-1.4-.6 0-.5zm-6.8-12.2c-.5.1-3 .7-3.7.7-.7 0-1.4.1-1.3.6 0 .5.2.8-.8.7-1-.1-2 .3-2.2.5-.2.3-.4.6.6.7 1 .1 1.6.2 2.8-.3 1.1-.5 2.2-1.4 3.5-1.4 1.3 0 2.5-1.7 1.1-1.5z"/>
    <path d="M362.2 323.8a24 24 0 0 0 8.3 2.4c1.9-.2 1.5.7 0 1-3 .6-6.5-.6-9-2.6-1.2-1-.1-1.3.7-.8z"/>
    <path d="M387.2 326.4c-4 1.3-8.1.8-9.8.4-1.7-.5-3.2-.6-2 .5 1 1 4.7 1.8 6.7 1.3-7.2 1.6-9.1 1.5-11 1.2-1.8-.3-5.1-.2-6.6-.1-1 0-2.5 0-3.2-.5-.6-.3-.8-1 1.1-.9 2 .2 2.2-.2.5-.4-1.7-.2-4 .4-1.7 1.8 2.2 1.4 7.2 0 10.3.8a18 18 0 0 0 16-3.5c.4-.3 1-1-.3-.6zm-9.4-4c-.8 0-2.3-.5-3-.8-.9-.4-2-.4-1.2.7.9 1 4.5 1.7 5.7 1.2 1.3-.5.8-1.1 2-.3 1.3.7 2.6 1.3 3.6 1.3.9 0 1.2 0 .2-.6s-1.5-.7-1.6-1.2c-.1-.5-.3-.8.7-.5.9.3 2 .8 2.7.4.7-.4 2.1-1.2 3.3-1.2l.3-.8c-1.7-.1-2.9.4-3.4.6-.4.2-1.3.3-2.2.2-1-.2-2.2-.3-2.5-.5-.3-.3-.3-.5.5-.6.8-.2 1-.7 0-.5-1.1.2-4 .1-5.5-.4s-2.2-.5-2.8-.3c-.6.3-.5 1 .4 1 1 0 3 .2 3.8 1 .7.6.6.6-.2.3-.9-.3-2.4-.1-.8 1zm35.3-2.6c-3 2-6.4 2.6-10.6 2.9-1.3 0-.9.4.2.5 4.3.4 9.4-1.2 11-3 .6-.4.5-1.2-.6-.4zm-20 4.9a45 45 0 0 1 7.1 1.6c1 0 1.4-.3 1.2-.7-.2-.4-.4-.8 1.6-.7h7.3c.6-.2 2.2-1.4 2.8-1.5-1.7.1-9 .5-10 .4-.9 0-1.4 0-2 .4-.5.3-.9.5-1.6.2-.7-.3-2-.7-2.8-.3-.7.5-2.2 0-3.6.6z"/>
    <path d="M410.3 325c.6-.3 2.2-1.5 2.8-1.6 1.3 0 2.8.5 3.5.6.6 0 1.4 0 .9-.6-.5-.5 0-1.5 2-1.2 2 .2 3 .6 5 .4 1.9-.2 2.7 1.2 6.4-.2-.3 1.4.4 1.5 1.1 1.2.7-.3 1.5-.2 2.6.7 1.2.9 8.3 1 10 .7 1.7-.3 2.5.6 1.3 1-1.3.3-1.6 1-1.3 1.3.3.4.6.9-1 .7-1.5-.2-1.8.3-2.6.9-.8.5-1 .7-3.1.3-2.2-.3-2.6 0-3.7.1-1.2.2-1.5.2-2.7-.1-1.1-.4-3.7-.8-5.2-.3-1.6.4-2.8 1-4.1.5-1.4-.3-1.5-.2-.6-1 .9-.9 1-.8 2.7-1 1.7-.2 3-.7 1.8-1.3-1.2-.7-1.6-.6-3.2.1-1.5.8-2.3 1.3-4 .3-1.8-1-2.7-.7-3.9-.4-1.1.2-3-.4-4.7-1.2zm5.8 2.8c-2.2.4-2.8-1-5.2-.8-.7.1-2 1-.2 1 1.8-.2 3.7.8 5.5.6 1.7-.1 1-.9 0-.8zm-2.6 1.7c1.2-.4 3.6.4 4.7.2 1-.2 2 .5.9.8-1 .3-3.7-.6-4.8-.3-1.2.4-2.4 0-.8-.7zm-23.3 6.3c1.6 0 7.4-.2 9.7-5 .2-.4.4-.6 1.1-.1.7.5 3.4 2 8.4 2.5 1.4.1 3 .8.1.6-2.8-.1-7.3-1-8.8-1.8-2.5 4-7 4.4-10.5 4.3-2 0-1.5-.6 0-.5z"/>
    <path d="M402.8 329.2c-.8 1-3.5 3-4.7 3-1.2.1-5-.2-5.8-.6-1-.3-2-.2-.8.7 1.4 1 4.6 1.5 6 1.3 1.3-.3 2.8-.8 3.8-.1 1 .6 3 1.8 4 1.6a10 10 0 0 1 4.2 0c.7.4 2 1.4 0 .8-1.8-.6-3.4 0-4.3-.5 1 1.4 3.2 3.6 5.1 3.6.5 0 .7.8-.2 1.2 1 .4 3 .8 4.2-.3-.3.4-.1.7.4 1 .4.2 1 .5.1.6-.8 0-2.8.3-3.4 0a18 18 0 0 0 11.8 2.3c1-.2 1.5-.6 0-.6-3.3.1-3.5 0-4-.3-.6-.3-.5-.6.4-.9.9-.3 3.2-.6 4.2-.6s2-.4 0-.4-4.5 0-5.4-.3c-1-.4-1.7-.8-.7-1.5s2-.5 2.6-1c-3.3-.1-7.2-1.8-5-3.4.5-.3.3-.4-.5-.5-.8 0-3.3-.7-4.3-1.3-1-.6-.3-1 .5-1.2a13 13 0 0 1-8.2-2.6zm28.6-.1c-1.8 1.3-5 1.8-6.5 1.8-1.4 0-1.6.5-.5.7 1.1.1 2.3.3 2.8.1.5-.1.8-.2 1.5.2.8.3 2.3.5 3.7 0 1.4-.4 3.6-.6 4.5-.5 1 0 2 0 .1-.5a14 14 0 0 0-5.6 0c-.7.3-2.7.1-1.6-.2 1-.3 2-.9 2.5-1.3l-1-.3zm-1 3.8a11.4 11.4 0 0 1-5.9 2.3c2 .7 3.8 2.8 5 2.7-.6.4-1.3 1-2.2 1a8 8 0 0 0 5.2-1c3 .8 6.7.3 8-.8-1.9 0-4.2-.6-5.2-1.5 1 0 1.8-.6 2.2-1.1-2.2.4-6-.7-7-1.6z"/>
    <path d="M427.3 339c.9-.2 1.6-.7 2.3-1.1-1.6.5-8.7-.6-10.8-2.5-2-1.8-2-.4-.6 1 1.5 1.2 4 3.2 9.1 2.5zm5.2 4.4c-.9.5-5 .8-6.4.5-1.4-.3-2-.2-1.6.4.3.5.4 1-.7.8-1.1-.1-3.1.1-4 .4-.8.3-1.8 1 0 .7 1.7-.3 3.3-.6 4.7-.3 1.3.4 6 .5 6.9.1 1-.4.3-.4-.2-.4-.4 0-.6-.3 0-.6.7-.3 1.2-1 1.3-1.6zm-40.6-5.6c-1.7.7-7.6 2.3-9.1 2.4-2 .9-3.6 1.3-4.5 1.3.7.6 3.3 1.2 4.4 1-.6.5-2 1.2-2.5 1.5 1.6-.2 3.4.2 4.2.3-2 1.1-4.9 1.5-6.3 1.3.5.7 1.1 1.4 2 1.4-1.8.4-4 .4-5.2 0 .4 1 1 1.6 1.6 1.7-1.5.2-3.5.5-5.2-.5 1.3 1.7 4.1 2.2 8.3 1.8a20 20 0 0 0 8.7-3.1c-1.7.2-4 .3-5.3 0a32 32 0 0 0 8.3-3.5c-1 0-2-.3-2.6-.8a26 26 0 0 0 7.6-1 5.6 5.6 0 0 1-3.3-2 33 33 0 0 0 16.3.4c.8-.2.9-1.2-.7-1-2.7.1-8-.7-9.4-1.3 1.3 1 2.9 1.5 4 1.7a14 14 0 0 1-11.3-1.6z"/>
    <path d="M380.2 344c.5-.3 1.9-1 2.5-1.6-1.1.3-3.7-.3-4.4-.9 1 0 2.5-.4 4.5-1.3-3.6-.1-6-.1-7.3-.8-1.2-.7-3.6-.5-4.4-.3-1 .2-.6 1.7 3 1.3a13 13 0 0 1-7.2 1c.3 1.3.6 2.6.2 3.2 2.1 1.2 7.5 2.7 10.1 2.5-2.3-1-3.6-1.9-1.7-2 2-.3 3-.7 4.7-1.1zm-6 6.3c4.6-.4 10.9-.5 15.9-4.7 1.2-1 2-.7.8.4a27.2 27.2 0 0 1-15.4 5.6c-2.5 0-3.7-1.2-1.3-1.3zm35-7.7c-1.2.4-4.5 1-5.5.8-1-.1-2.4-.2-3.1.3-.8.5-.9.8.2.9 1 0 2.4.2 3.1.1-.9.5-1.4 1.2-1.6 1.5 1.5-.4 4.4.3 5.2.8-.6.2-1.3 0-1.9-.4 2.7 2.8 10.5 2.8 11.7 2.3-.6.4-1 .9-1.7 1 2.2.4 4.8.4 7.2-1.1-.8.1-3.3 0-3.9-.1a4.7 4.7 0 0 1 1.9-1.2c-1-.1-4 0-4.8.3.3-.5.8-1.3 1.4-1.5a31 31 0 0 1-10.2-1c2.7.3 5.7-1.3 7-1.3-2.1 0-4.5-.5-5-1.4zm-9.9 2.1c-1.9.4-4.7 1.2-5.5 1.6-.8.5-1.6.7 0 .7a102.1 102.1 0 0 1 .7-.1c-.7 0-1.5 0-.2-.5 1.2-.4 2.9-1.2 5-1.7zm-3.8 4.5c.7 0 3.6 0 4.8-1 1.2 1 3.6 2.2 5 2.2 1.6 0 1.5.4.1.6-1.3.1-3.9-.6-5.2-1.6-1.7.6-3.2 0-4.7-.2zm-22.6 13c3 1.2 7 2 10 1.1 1.6 1.5 5 1.6 6.9 1.2a10 10 0 0 1 5.5 0c2 .8 6.3.8 7.5 1.8l-4 .1c-.5.2-.2.5.8 1-3.3-.2-9 1.2-10.8 2.7a6.2 6.2 0 0 1 5.7-3.5c-1.8-.6-7.4-.7-9.2.5a5.6 5.6 0 0 1-1.2-2c-3 1.7-8.9-.7-11.2-2.8zm-7.8-5.4c3.6-.5 6.1-1.6 7.2-2.7.6.6 3.2 1.2 6.1.3-.6.5-.6 1.3-.4 1.7a22 22 0 0 0-6.7 1.6c-1.2.6-4.8 1-6 .4-1.1-.6-1.2-1.1-.2-1.3z"/>
    <path d="M378 356.1a22 22 0 0 0-6.7 1.6c.2.5.4 1.3.4 1.8a43 43 0 0 1 14.7-1.5c-1.5 0-4.3 1.5-5.8 1.7 3.8-.2 7.5.5 8.4.8 1 .2 1.2 1 .5 1.6-.7.7-1 .8.5.8s4.8-.1 6.2-1.5c-.6-.6-2-.4-2.5-.8 1-.4 2.2-1.1 2.6-1.6-2.6 0-3.6-.1-4.5-.3-.9-.2-1.5-.5-.4-1 1-.6 1.5-1.1 1.9-1.5-2 .5-4.9 1-7.4-1 1 .3 3.1.1 4-.2a5 5 0 0 0-2.3-.8c2-1 6-1.8 10.9.1 2.4-.2 5 0 6.9.4.8-.8 2.4-2.6 3.3-3-5.8.4-16-.7-15.9-3.7-1.9 2.4-6.1 3.8-8 3.4-.2.9.6 2 1.3 2.5-2 .4-5.3.7-6.9.4 1 .9 2.6 1.7 3.6 1.6-2 0-3.2.4-4.8.2z"/>
    <path d="M390 363c1.5 0 4.8-.2 6.2-1.6-.6-.6-2-.4-2.5-.8 1-.4 2.2-1.1 2.6-1.6 4.1-.4 7.8-.2 9.5-.7 1.8-.5 6.3-.2 7.1-.5-3.9.6-4.6 1-4.8 1.6-.2.6 1.2 1.2 2.2 1.2-1.8-.1-4 1.7-4.2 2.4-2.3-1.3-3.4.3-3.7.8-1-.4-4.2-.3-5.8 1.1-2.2-.6-3.6-1-5.7-.6 1.3-.3 1-1.2-1-1.4zm18.7-11.4h5.2c-.7.3-1.5 1-1.7 1.2 3.3-.4 7.8-.6 9.1-.4-1.6-.3-3.2.8-4 1.3-.9.5-.4.9.7 1 1.1.2 2.7 1 .6.7-2-.3-6-.3-7-.1-1 .1-1.6-.3-.2-.5 1.4-.2 2.4-.7 3.1-1.1-1.2.3-3.4.3-4 0-.8-.1-1.2-.5-.4-.7.7-.2.2-.5-.6-.4-.8.1-3 1-4.1 2.1 1.3-1.3 2.4-2.5 3.3-3zm-14.9 2.2a8.4 8.4 0 0 0 6.6 2.9c.6 0 1.8.9.3 1-4.1 0-6.2-1-8-3.5-.4-.6.3-1.3 1.1-.4zm52-22c-1.2.8-2.8 2.2-1.7 4.3l.3-.2a118.1 118.1 0 0 0 12.4-18v-.7a17.2 17.2 0 0 1-4.3 2.7c.6 1.5-2.1 3.5-3.6 4.1.6 1 .4 2.4-.9 2.7.3.9-.7.9-1.8 1.4-1.2.5-1.8.9-2.2 1.4.6-.3 1.5-.6 2-.4.5.1.6.8-.3 1a3 3 0 0 0-1.7 1c1.2-.4 3-.2 1.8.7zm-86-22.1c1.5 1 4 2.7 7.4 2.5 1.7 1.3 4.3 2.4 5.5 2.6-2.3 1-4.7 1.7-5.4 2.4-1-1-2.3-.8-2.6-1.3-1 .8-.9 1.3-.2 1.7.6.4 5.5 1.2 6.7.9 1.3-.4 1.6.6.6 1-2.6.9-7.8 0-9.5-2.8-1.8-2.8-3.3-3.9-8-1.3-.6-1.4-.6-1.7-1.5-1.7-1 0-2.7-1.2-1.4-1.2 1.4.1 5.3-.5 8.4-2.8z"/>
    <path d="M361 316c-.8.1-3.1 1.4-4 1.5-.8 0-2.2 1.2-.7 1.3 1.5 0 3.4-1.6 4.5-1.7 1-.2 1.2-1.4.2-1.2zm6.4 4.5v1.3c-.2.4-.2.8.5.3.6-.5 1-1 1.6-.7.7.3 2.3.3 3 .2.7-.1 1-.2 0-.7-1.2-.4-2.2-.6-2.8-.5-.6 0-1.3-.1-1.8-.3-.5-.2-.7-.1-.5.4zm23.1.1-.3.8c1.8 0 6.2.3 7.6 1.2 1.4-1 1.1-1.4 2.1-1.2 1 .2 2.2.5 2.8.2.5-.2.9-.2 1.5-.1s1.8-.1 2.6-.6a8 8 0 0 1 3-1c1 0 2-.2.4-.4a13 13 0 0 0-4.9.5c-.8.3-3.3.5-4.7.5-1.5 0-3.5.7-5.2.3-1.6-.5-4-.2-4.9-.2zm27.8-.6c2.1 1 6.4 1.8 9.8 1.7.6 0 1.8.6.3.7-3.8.4-7.2-.2-10.4-2-.9-.4-.6-.8.3-.4zm2.2 0c3.3-.2 5.8-.1 6.8.8 1.9-.6 5.3-.9 6-.7.9.1 1.7-.2 0-.7-1.9-.4-6-.6-7.4-.3-1.3.2-5.4.4-6.8.2.6.1 1 .2 1.4.6zm12.8 1.2c1.6-.8 6 0 7.4-.6-1 1.1 3.2 1.2 6.7.3-1.3.9-4.3 1-5.5 1.6-1.3.5-2 .1-3-.3-1-.5-3.4-1.3-5.6-1z"/>
    <path d="M447.4 321c-3.5.8-7.6.7-6.7-.4-1.3.6-5.8-.2-7.4.6 1.6-1 2.9-.2 4-2.2.8.2 2.5.3 3-.5 1 .2 2.9.7 3.4 1.2.6.5 1.4-.1.7-1 1.6-.5.6.7 4.3-.2l3.4-.6a23 23 0 0 1-4.7 3z"/>
  </g>
  <path fill="none" stroke="#000" stroke-width="1.79333" d="M477 217.4c-.2 60.9-10 126.4-89.3 157.6-79.3-31.2-89-96.7-89.2-157.6z"/>
  <g stroke-width="4.17009">
    <path fill="#cfa763" d="M840 287.5c-1.5 2-3 3.5-5.1 5-2 1.4-4.7 2.5-3.2 5 1.4 2.4 2.6 2.7 2.9 4.6.3 1.8.7 3.4 2.2 3.9 1.4.4 2 .1 2 3.1s0 4.2 1.3 5.3c1.3 1.2 1.2 2.4 1.7 5 .6 2.8.6 8.7 2.4 12.8 1.7 4 5.6 11.6 5.2 13.2-.5 1.6-1 2.7.7 4.6 1.7 1.9 3 4.6 3 6.2.2 1.6.5 2.2 2.2 1.6 1.8-.6 2.6-1.2 3.2-1.9.6-.7 1.8-.6 3.4.3 1.6.9 4 1.7 5.5.9 1.4-1 2.1-2.2 3.4-2.2 2-1.4 2.8-4.5 3.2-5.3.5-.9.2-.9-.7-1.8-.9-.8-.4-2.3-.6-3.7-.1-1.4-.7-3.6-2.4-6.8-1.8-3.1-2.8-7-4-8-1.1-1-1.7-3.5-1.8-4.6-.2-1.2-1.5-2.2-2.4-3-.8-1-1.7-2.2-2.7-7.3-1-5-1.8-8.6-1.8-9.5 0-.8-.1-1-1-1.2-.8-.3-1.3-1.8-1-2.5.3-.7-.3-1.4-.6-2.3-.3-.9 0-2.4.6-3.3.6-.9.5-3.3-.1-5.3s-1.2-3.8-3.5-4c-2.3-.4-2.8-1-3.6-2.8-.9-1.9-1.8-5.2-2-6-.4-.6-.8-.8-2.5.7-1.8 1.4-2.3 1.9-2.3 4.6 0 1.7.2 2.3.8 3.3.6 1 .7 1.3 1.2 4 .4 2.8 2.9 7-.3 9.5-3.2 2.5-2.8 3-2.6 4.8.1 1.7-.9 2.8-1.5.4-.5-2.4 0-3.9 1.8-5 1.7-1.2 3.3-2.6 2.1-4.2a17.4 17.4 0 0 1-1.7-7c-.1-1.8-.4-2.4-1.4-1z" transform="matrix(.89666 0 0 .89666 -419.3 -13)"/>
    <path fill="#d7c99c" d="M814.1 324.2c0 1.2.2 2.5.3 3.5.1 1.2.4 3.7-.4 5.5-1 1.9-.7 2.8 0 3.4 1.8-.5 2-2.5 1.6-3.4-.5-1-.4-2.3.2-3.3.6-1 .6-1.6 0-2.3-.4-.7-.4-.7.2-2.7.5-1.8-.8-1.8-1.9-.7zm18.6 28c-.4-1.4-1.6-6.3-1.7-9.6 0-3.2-1.5-5.8-4.2-8.3-2.1-2-2.6-5-2.7-7.4-1.6-1-2.3-.6-2.1 1.2.1 2 2 2.9 1.8 5.7-.3 2.8-.3 2.1 1 3.5 1.4 1.3 2 2.6 1.2 3.2-.7.6-.8 1.6.2 2 1 .3 1.1 1.4 1 2.4-.2 1 .8 1.2 1.4 2 .5.7.6 2.4 0 3.4-.5 1-.6 2.6.4 1.7 1-.8 1.5 0 2.2 1.3.7 1.2 1.3.8 2 .5a9 9 0 0 1-.5-1.7zm-8.5-60c-1.1 0-1.8 1-1.2 4.3.4 2-1.2 1.5-1.8.5-.5-1-1-3.1-2.1-5-1.2-1.9-.6 1.3-.8 3-.1 1.7 1 1.7 2 3.2 1 1.4.2 2-1 2-1.1 0-.5 2.3-.2 3.9s-.3 1.9-1.2.6c-.9-1.3-.3-3.4-.1-5.8.1-2.4.3-1.9-1.3-2.4-1.6-.6-1.4-1-.8-2.4.6-1.4 1.2-2.1.5-2.8-.8-.7-.6-1.2.5-1.3 1.2-.2.8-1 1.8-1.3 1-.3 1.4.1 1.6-1.7.1-1.6.6-2.6 1.8-2 .7 2.3 1.6 6 2.3 7.2zm26.5 25.8c.4-3.1.1-6.3 1.4-7.4 1.3-1.2 3-3.5 2.8 1.4-.2 4.9-.3 4.6-1.3 5.8-1 1.1-1.9 1.4-.9 3.3 1 1.8 1.2 2 1 4.9-.1 2.8-.1 4 1 5.4 1.2 1.5 1.5 1.6 1.8 3.2a9.5 9.5 0 0 0 2.6 4.9c1.3 1.1 2.8 4.5 2.9 6.8.1 2.3 2.2 2.8 4 4.4 2 1.6-.4 2.8-1.8 2-1.5-.7-.9 0-1.8 1-.8 1-1.1 1.2-1.9-.5-.7-1.8-3.1-3-4.3-3.3-1.2-.5-2.2-2.3-3.2-4.2a5.6 5.6 0 0 0-4.2-3c.5 1.3.7 2.2.6 2.7-.5 1.6-1 2.7.7 4.6 1.7 1.9 3 4.6 3 6.2.2 1.6.5 2.2 2.2 1.6 1.8-.6 2.6-1.2 3.2-1.9.6-.7 1.8-.6 3.4.3 1.6.9 4 1.7 5.5.9 1.4-1 2.1-2.2 3.4-2.2 2-1.4 2.8-4.5 3.2-5.3.5-.9.2-.9-.7-1.8-.9-.8-.4-2.3-.6-3.7-.1-1.4-.7-3.6-2.4-6.8-1.8-3.1-2.8-7-4-8-1.1-1-1.7-3.5-1.8-4.6-.2-1.2-1.5-2.2-2.4-3-.8-1-1.7-2.2-2.7-7.3l-1.7-8.5c-1 1.6-1.7 2-2 1-.5-1.4-1.1-2.1-1.7-1.2-.6.8-.7-.8-.7-1.5s-.1-.8-.9-.8c-.7 0-.1-1.2-.4-3.3-.3-2.2-.7-2.5-1 .1-.3 2.6-1.8 4.2-1.2 4.7.6.6.3 1.8-.3 3.5a5 5 0 0 0 .2 3.9c.4 1.1-.3 3.3-.6 5.2-.3 1.8 1.2 3.7 1.6.5zm-12-8.9c0 3 0 4.2 1.4 5.3 1.3 1.2 1.2 2.3 1.7 5 .6 2.8.6 8.7 2.4 12.8l2 4.3c.9-.8 1.7-2 2-2.8.5-1-.8-3-1.9-4.7-1-1.7.2-2.3 1.2-4.5 1-2.1-.1-2.3-1.7-2.9-1.6-.5-1.6-2-2.5-4.3-.9-2.3-.7-3.3-.2-4.6.6-1.3.2-2.3-1-2.6-1.1-.3-.8-1.1-.4-2.6.4-1.4.7-1.7-1-1.3-1.3.4-1.7.6-2 1v2z" transform="matrix(.89666 0 0 .89666 -419.3 -13)"/>
  </g>
  <path fill="none" stroke="#000" stroke-width=".499999" d="m866.2 308-3.5 38m14-14.8a272 272 0 0 1-5.3 20m50.7-38.3c2.7 2.5 6.2 3 10.1 5m7.4 11.9-2 14.6m0-14-3.4 15m-59.9-13.7c-1.6 6.3-3.8 12-5.9 17.8" transform="matrix(.89666 0 0 .89666 -419.3 -13)"/>
  <path fill="#666" stroke-width="1.17728" d="M432.4 316.1a1.7 1.7 0 0 1-.3 0l-.3.1h-.3a6.2 6.2 0 0 0-.3 0l-.2.1a1.2 1.2 0 0 0-.3 0 .7.7 0 0 0-.2.2.5.5 0 0 0 0 .2 3.4 3.4 0 0 1-.3.3l-.2.2a19 19 0 0 0-.3.3v.1a3 3 0 0 0-.2.2l-.1.2a4.8 4.8 0 0 1-2.5 1c-.6.2-2 .2-2.7 0-1.2 0-2.5 0-3.2-.6-.9-.4-2-.1-2.7.3-.5.3-.6.8-1.3 1-.3.5-2 .4-2.6.2-1.5.1-2.3-.3-3.4-.7-.6-.4-1.7-.8-2.5 0-.5.4-1.1.8-2 1-1.4 0-3 .2-4-.4-1.1 0-1.6-.7-2.6-1-1.2-.2-1.8.4-2.6.7-.7.6-1.6.6-2.9.6-1.2-.1-2.7.1-3.5-.4-1-.1-1.7-.7-2.5-1-.7-.6-2 0-2.7.3-1.1.2-1.5 1-3 1-1-.2-1.8-.7-2.9-1-1-.4-1.9-1.1-3.5-1-.4.6-1.4.9-2.5.9-1 0-1.8 0-2.5-.2-2 0-2.8-2-4.2-3.1l-6.8-6.8c.4-1.2.5-1.4-.1-2.2.3-1.2-.6-1.4-.2-2.6.5-.9-1-.7-1.3-1.2-.8-.2-1.2-.8-2-1-.6-.5-1.2-.8-2-1.2l-2-1c-.5-.5-1.1-.8-1.6-1.2l-1.6-1c-.7-.3-1-.8-1.6-1-.5-.5-1.2-.9-1.8-1.2-.8-.3-1.6-.9-2.5-1-.6-.1-.8-1.5.3-1.5.9 0 1.4.6 2 1 1 .4 2 .8 3.1 1l2.1 1c.7.4 1.6.5 2.4 1l2.2 1.2c.7.3 1 .8 1.7 1 .3.4.8.5 1.2.9.7.2 1.3.5 1.8.9.7.4 1 .5 1.5 1 .6.1 4.4 2 4.2 1.8 3.7.7 5.3.9 9 1.4l27 .4 9.7-4 3-4.7 14.4-2.7c-.3-.3 25.3-.9 25.9 1.3.2.9.9 2.7 0 3.1-.5.3-24.1-3-24.5-.8-.1.9 0 6.6.2 7.5l.4 2.8.4 2.8.4 2.8z"/>
  <g fill="none" stroke="#000" stroke-width=".499999">
    <path stroke-width=".44832910334000003" d="M359.2 279.8c-4.3 5-8.7 9-13.3 12.7m37.2-32.8 14-12.2m-20.3 24.2c2.9 2 6 3.7 10.3 4.8m-12.2-23.2c1.7 2.8 3.8 5.5 9.9 7m-14-34.6c-1.8 2.5-4.9 4.9-8.8 6.8m13.9 10.2c2 2 4.8 3.1 7.7 4.2m-7.7 38c1.4 7 2.6 12.6 4.2 18.3"/>
    <path stroke-width=".44832910334000003" d="M374.8 303a85 85 0 0 0 17.5-24.6m15-27.1c2.2 2.5 4.7 4.3 8.5 5.3m1.5-14.3c2 3.6 4.5 6.2 6.7 9.2m-28.2-20.2c-.2 3.5-2.4 7-3.9 10"/>
    <path stroke-width=".44832910334000003" d="M400.8 233c-2.6 2.9-5 6-8.6 7.8m9-20.4a32.3 32.3 0 0 1-6.1 3.4m32.8 23.5c-2.2 2.5-4.3 5.5-7.9 7.7m8.3 13.5c-2.8 2.6-5.2 5.7-8.4 7.7m24.3 7.4a97 97 0 0 1-15.4 10.3m2.6.5c4.6-2.9 8.7-6.9 12.8-10.8M430 247.8c1 2.3 3 4.8 5 6.5"/>
  </g>
  <path fill="#bca76b" stroke="#472b1f" stroke-width=".337778" d="m427 224.6-.4 69.9 5-.3-2-69.8z"/>
  <g stroke="#000">
    <path fill="#333" stroke-width=".999999" d="M1374.9 362.1c1 .7 1.6 1.2 2.4 2 2 1.8 3.2 1.8 5.9 0 1 .1 2 .7 3.1.5 1 0 2-.2 2.9-.4 1.1-.3 1.3-1.6 1.7-2.6.5-1 1-2.2 1.8-3.1 1-.7 2.1-1.4 2.8-2.4.8-.9.7-2.1.5-3.2l-.2-3.1c-.2-1.4 1-2.4.8-3.8-.6-.5-1.7-.7-2.6-1a34 34 0 0 0-4.8-.7l-4-.3-3.8-.2c-1.5 0-3-.1-4.4.1-1 .2-2.3.1-3.2.6-.3 1-.6 2-.6 3l-.2 2.8c0 1.7-.2 3.4.3 5l.7 4c0 1 .1 2 .9 2.8z" transform="matrix(1.17728 0 0 1.17728 -1188.2 -111.7)"/>
    <path fill="none" stroke-width=".499999" d="m954 327.5 7.8 14.5m11.5.7c-2.2-2.4-4-5.2-5.4-8.5" transform="matrix(.89666 0 0 .89666 -419.3 -13)"/>
  </g>
  <path fill="#472b1f" d="m972.8 320.2 2.6 1.8h.1c-.8-.7-1.6-1.6-2.7-1.8zm-5.3.7-.3.1-3.6 14zm17 .6c-.9 0-1.7.4-2.6.8l1.5-.5 2-.3a5.5 5.5 0 0 0-1 0zm-16.6 12.7-.7.1a3.3 3.3 0 0 1 1.8.5zm1.4.7c1 .6 1.7 1.3 2.8 1.6zm8.3.8-4.8 1c1.7 0 3.2-.6 4.8-1z" transform="matrix(.89666 0 0 .89666 -419.3 -13)"/>
  <path fill="#fff" stroke-width="1.17728" d="m448.4 274-3.6 13.4 3.8-.8 4 2.3 6.2-1.2 3.1.4c1-4.3.7-9.3 3.2-13l-2.5.4-4 1.4-3.3-1.2-2.5-1.8z"/>
  <path fill="#c8102e" stroke-width="1.17728" d="M454.3 275.6c-.7 1.2-1.3 2.5-1.4 4 0 0-1.8-.7-2.8-.8h-3l-.9 3.3c.1 0 2.5-.4 3.5-.2.8.1 2.3.9 2.3.9l-1.2 5 .8.5 1.6.5.8-.2c.3-1.7.5-3.5 1.3-4.8 0 0 2.5.7 3.9.6l3.4-.4c0-1 .2-2.1.4-3.2-.5.1-2.6.7-3.7.5-1.1 0-3-1-3-1 .2-1.2.7-2.3 1.3-3.4z"/>
  <path fill="none" stroke="#000" stroke-width=".588641" d="M445.8 274a98.8 98.8 0 0 1-4.5-17.6"/>
  <g stroke="#472b1f">
    <path fill="none" stroke-width=".999999" d="M1389.2 328.4s3.4-.8 4.8-.5c1.5.3 2.4 2 4 2.2 1.7.3 3.2-1.3 5-1.5l2.5.3-1.2 4.2-1 3.5v3.1s-2.8-.7-4.3-.5c-1.9.2-3.4 1.2-5.2 1-1.4-.3-2-1.4-3.4-1.7-1-.3-3.9.4-3.9.4z" transform="matrix(1.17728 0 0 1.17728 -1188.2 -111.7)"/>
    <g fill="#bca76b" stroke-width=".3">
      <path stroke-width=".268998" d="m448 274.8-1.6.1-5.1 18 2.3.1z"/>
      <path stroke-width=".268998" d="M446.4 275c-.7-.5-1.3-1.6-.9-2.3.4-.8 1.8-1 2.6-.8 1 .3 2.3 1.3 2 2.3-.4 1.2-2.6 1.4-3.7.7z"/>
    </g>
  </g>
  <path fill="#472b1f" stroke-width="1.17728" d="M464.9 275.3c-2.4 3.6-2.2 8.4-3.2 12.6l2.2.4v-3.7l1.1-4.1 1.4-4.9-1.5-.3z"/>
  <path fill="none" stroke="#000" stroke-width=".499999" d="M953.7 305.3c2.9 2 5.7 7 9.7 11M959 298a78 78 0 0 1-4-21m-4.2 53.2 4.4 11.6m0-70.3c-3.9-1-7.5-3.6-8-5.8m-17 9.6c2.5.2 11.2-6.2 12.5-9.6m9.6 62.8 6.1 13m-6.6-8.6 4.5-1.6m-3.7 4 4.7-2m-2.8 7 5.2-2.2m-10.5-23.5 6.3 6.7m-19.5 9.5-4.3 14.5m3.1-11.3h4.4m-5.4 3.6 5 .1m-6.2 3.6 5.5 1" transform="matrix(.89666 0 0 .89666 -419.3 -13)"/>
  <g fill="#bca76b" stroke="#472b1f">
    <path stroke-width=".289569" d="M1374.6 284.1c-.8-.2-2.9-.3-3.7.4-.4.3 0 1.5.5 1.5 1.1 0 2.5 0 3-.2.4-.4.7-1.5.2-1.7z" transform="matrix(1.17728 0 0 1.17728 -1188.2 -111.7)"/>
    <path stroke-width=".397422" d="M1362.6 293.4c1.4 5.8 7.5 4.8 7.3-.5" transform="matrix(1.17728 0 0 1.17728 -1188.2 -111.7)"/>
    <path stroke-width=".485632" d="M1368.2 293.1c1.9 6.7 9.9 5.6 9.5-.5" transform="matrix(1.17728 0 0 1.17728 -1188.2 -111.7)"/>
    <path stroke-width=".415845" d="M1375 293c1.8 4.9 4.3 4 7.4-.5" transform="matrix(1.17728 0 0 1.17728 -1188.2 -111.7)"/>
    <path stroke-width=".402572" d="m1384.1 290.7-22.5 1.3v1.5l22.8-1.2z" transform="matrix(1.17728 0 0 1.17728 -1188.2 -111.7)"/>
    <path stroke-width=".424226" d="M1363.4 313.3c1.4 6.3 7.8 5.4 7.6-.4" transform="matrix(1.17728 0 0 1.17728 -1188.2 -111.7)"/>
    <path stroke-width=".518386" d="M1369.3 313c1.8 7.4 10.1 6.3 9.8-.3" transform="matrix(1.17728 0 0 1.17728 -1188.2 -111.7)"/>
    <path stroke-width=".443892" d="M1376.3 313c1.8 5.4 4.4 4.4 7.7-.4" transform="matrix(1.17728 0 0 1.17728 -1188.2 -111.7)"/>
    <path stroke-width=".429724" d="m1385.8 310.7-23.4 1v1.6l23.7-.8z" transform="matrix(1.17728 0 0 1.17728 -1188.2 -111.7)"/>
    <path stroke-width=".434927" d="M1362.8 331.2c1.5 6.6 8 5.5 7.8-.5" transform="matrix(1.17728 0 0 1.17728 -1188.2 -111.7)"/>
    <path stroke-width=".531462" d="M1368.8 331c1.6 9.7 10.5 6.2 10.1-.7" transform="matrix(1.17728 0 0 1.17728 -1188.2 -111.7)"/>
    <path stroke-width=".455089" d="M1376 330.8c2 5.5 4.7 4.4 7.9-.6" transform="matrix(1.17728 0 0 1.17728 -1188.2 -111.7)"/>
    <path stroke-width=".440563" d="m1385.8 328.2-24 1.4v1.7l24.2-1.3z" transform="matrix(1.17728 0 0 1.17728 -1188.2 -111.7)"/>
    <path stroke-width=".255908" d="m951.3 286.9-11.7.3v3l11.8-.1zm0 24.7-11.6.3v3l11.8-.1z" transform="matrix(.89666 0 0 .89666 -419.3 -13)"/>
  </g>
  <g stroke="#000">
    <path fill="none" stroke-width=".499999" d="m1355.5 331.4 6.6 15.8m-39.8-10.8c-.8 5-1.9 11.3-3.2 16.1" transform="matrix(1.17728 0 0 1.17728 -1188.2 -111.7)"/>
    <path stroke-width=".3" d="M1396 346a67.2 67.2 0 0 0-20.2-1c-4.4.3-8.9.5-13 1.8-.6.2-1.2.4-1.6.8-1.2 1.1-1.3 3-2.3 4.3-1 1.3-4.6 3.4-6 4.3-9.5.2-20.2 0-32.2-1.7l-1.6-1.9-.7-.7 1.8.7 4.3.1 10.4-.4s8.8 0 13.1-.2l7.5-.6c.5 0 1.1 0 1.5-.3.8-.5 1-1.4 1.5-2.2.5-.6.8-1.5 1.5-2 1.9-1.3 4.3-1.2 6.3-1.6 2.5-.5 4.7-.6 7.2-1l8.6-.7c1.8-.1 3.7-.2 5.5-.1 2.8.2 5.9 0 8.3 1.4.5.2 1.3.7 1 1.2-.2.3-.6-.2-1-.2z" transform="matrix(1.17728 0 0 1.17728 -1188.2 -111.7)"/>
    <path fill="none" stroke-width=".499999" d="M917.8 260.3c1.9 1.5 5.3 2.7 8.7 3.2M913.9 313c-4 2.9-8.1 4.8-12.4 6.2M925 350l-6.9-18m1.4-5.9 8 20.6m-9-15.3 5.3-1.8" transform="matrix(.89666 0 0 .89666 -419.3 -13)"/>
  </g>
  <path fill="#bca76b" stroke="#472b1f" stroke-width=".339173" d="m401.2 218-1.5 85.9 5-.3-.9-85.6z"/>
  <path fill="none" stroke="#000" stroke-width=".588641" d="M407.3 231.3a20 20 0 0 0 9.8 9"/>
  <g fill="#bca76b" stroke="#472b1f">
    <path stroke-width=".424226" d="M1341.1 286.8c1.4 6.3 7.8 5.4 7.6-.4" transform="matrix(1.17728 0 0 1.17728 -1188.2 -111.7)"/>
    <path stroke-width=".518386" d="M1347 286.6c1.8 7.3 10.1 6.2 9.8-.4" transform="matrix(1.17728 0 0 1.17728 -1188.2 -111.7)"/>
    <path stroke-width=".443892" d="M1354 286.6c1.8 5.3 5 5.8 7.7-.5" transform="matrix(1.17728 0 0 1.17728 -1188.2 -111.7)"/>
    <path stroke-width=".429724" d="m1363.6 284.2-23.5 1v1.7l23.7-1z" transform="matrix(1.17728 0 0 1.17728 -1188.2 -111.7)"/>
    <path stroke-width=".424226" d="M1341.1 301.5c1.4 6.3 7.8 5.4 7.6-.4" transform="matrix(1.17728 0 0 1.17728 -1188.2 -111.7)"/>
    <path stroke-width=".518386" d="M1347 301.3c1.8 7.3 10.1 6.2 9.8-.4" transform="matrix(1.17728 0 0 1.17728 -1188.2 -111.7)"/>
    <path stroke-width=".443892" d="M1354 301.3c1.8 5.3 7.2 4.4 7.7-.5" transform="matrix(1.17728 0 0 1.17728 -1188.2 -111.7)"/>
    <path stroke-width=".429724" d="m1363.6 298.9-23.5 1v1.7l23.7-1z" transform="matrix(1.17728 0 0 1.17728 -1188.2 -111.7)"/>
  </g>
  <path fill="none" stroke="#000" stroke-width=".588641" d="M398.9 252.9c-2.5 1.6-4.8 3.6-8 4.6"/>
  <g fill="#bca76b" stroke="#472b1f">
    <path stroke-width=".424226" d="M1340.4 315.3c1.4 6.3 7.8 5.4 7.6-.4" transform="matrix(1.17728 0 0 1.17728 -1188.2 -111.7)"/>
    <path stroke-width=".518386" d="M1346.3 315c1.8 7.4 10.1 6.3 9.8-.3" transform="matrix(1.17728 0 0 1.17728 -1188.2 -111.7)"/>
    <path stroke-width=".443892" d="M1353.3 315c1.8 5.4 6.6 3.7 7.7-.4" transform="matrix(1.17728 0 0 1.17728 -1188.2 -111.7)"/>
    <path stroke-width=".429724" d="m1362.9 312.7-23.5 1v1.7l23.7-1z" transform="matrix(1.17728 0 0 1.17728 -1188.2 -111.7)"/>
  </g>
  <path fill="none" stroke="#000" stroke-width=".499999" d="M906.2 325.8c-.8 9.5-4.6 18-7.1 27m10.5-26.9c-.8 9.2-3.7 17.8-6 26.5m8.9-27.3a175.3 175.3 0 0 1-4.6 27.2" transform="matrix(.89666 0 0 .89666 -419.3 -13)"/>
  <g fill="#bca76b" stroke="#472b1f">
    <path stroke-width=".424226" d="M1340.7 328.5c1.4 6.3 7.8 5.4 7.6-.4" transform="matrix(1.17728 0 0 1.17728 -1188.2 -111.7)"/>
    <path stroke-width=".518386" d="M1346.6 328.3c1.8 7.3 10.1 6.2 9.8-.4" transform="matrix(1.17728 0 0 1.17728 -1188.2 -111.7)"/>
    <path stroke-width=".443892" d="M1353.6 328.3c1.8 5.3 6.5 4.3 7.7-.5" transform="matrix(1.17728 0 0 1.17728 -1188.2 -111.7)"/>
    <path stroke-width=".429724" d="m1363.2 325.9-23.5 1v1.7l23.7-1z" transform="matrix(1.17728 0 0 1.17728 -1188.2 -111.7)"/>
    <path stroke-width=".248625" d="m1355.7 294-8.4.4v2.2h8.5z" transform="matrix(1.17728 0 0 1.17728 -1188.2 -111.7)"/>
    <path stroke-width=".226982" d="m1355.4 308.3-7.5.2v2.1h7.5z" transform="matrix(1.17728 0 0 1.17728 -1188.2 -111.7)"/>
    <path stroke-width=".244987" d="m1355.8 322.1-8 .3v2.2h8.1z" transform="matrix(1.17728 0 0 1.17728 -1188.2 -111.7)"/>
  </g>
  <path fill="none" stroke="#000" stroke-width=".499999" d="m906 329.3 5.7 1.1m-7 4.2 6.6.2m-7.7 3.7 6.9 2m-8.7 4 8-.3m-9.5 5.3 8.5-.2m-10.4-23.7c-1 9.7 5.3 18.9 8.4 27m17.5-5 5.4-1.7m-6.7-1.3 6.1-2.6m-8-2 6.3-1.9m-7.8-2.5 6.2-1.6" transform="matrix(.89666 0 0 .89666 -419.3 -13)"/>
  <path stroke-width=".896665" d="m375.4 318.5-1.9-.3-1.9-.7-1.6-1.1a12.6 12.6 0 0 1-1.6-1.3l-1.7-1.7-1.7-1.8c-.5-.6-1.2-1-1.6-1.7-.5-.5-.5-1.3-1-1.9-.6-.1-1.6-.2-1.6-1.1-.3-.6-.4-1.2-1-1.2-.3 0-.4.5-.2.2-.4-.2-.3.7-.3.2l-.5 1c-.3.6-.2 1.3.6 1.4.7 0 .8.9 1.4 1.2l1.7 1.6c.6.7 1 1 1.4 1.8.3.6 1 1 1.4 1.4l1.1 1.5c.5.5 1.1 1 1.7 1.3l1.5.9c.6.3 1.2.7 1.8.8.7.4 1.5.3 2.3.4.7 0 1.4 0 2-.4.7-.5 0-.4-.3-.5zm40.3-19.5c-1 2.1-2.4 5.1-4.2 7 6 1.1 10.7-.5 16-1.4a22 22 0 0 1-.3-7.4c-4.3.4-7.3 1.3-11.5 1.8z"/>
  <path fill="#333" stroke-width="1.17728" d="M416.2 299.6c-.8 1.9-1.3 3.8-2.8 5.5 4.8 1 8.8-.5 13.2-1.3-.9-1.7-.6-3.7-.3-5.6l-10.1 1.4z"/>
  <path stroke-width=".896665" d="m365.2 308.1 17.1 1.3c13.8.5 29.6-.2 43.2-1.7.6 0 1.5-.2 1.7.3.2.6-.7 1.4-1.3 1.5-15.7 2-31.6 1.3-47.3 1.2l-9.4-1z"/>
  <path fill="none" stroke="#000" stroke-width=".588641" d="M371.4 269.7c-4.4 3.4-8.8 6.8-13.8 8.8m14.5-25c-4 3-8 6.5-12.3 8.3"/>
  <path fill="#bca76b" stroke="#472b1f" stroke-width=".315649" d="M370.6 224v80.2l4.3-.3-2.5-80.4z"/>
  <path fill="none" stroke="#000" stroke-width=".588641" d="M372.4 223.5c3.5 4 6.4 6.1 9.4 8.7"/>
  <path fill="#bca76b" stroke="#472b1f" stroke-width=".4085" d="M373.5 221.2c-.9-.4-3.3-.5-4.2.6-.5.6 0 2.6.5 2.6 1.3 0 3 .1 3.4-.4.6-.6 1-2.5.3-2.8z"/>
  <path stroke="#000" stroke-width=".824099" d="M371 314.6c.1-.7.6-1 1.3-1 .7 0 1.5-.1 2 .2.5 0 .8.4 1.3.6.3.4.8.6 1.2.8 1.4.6.6-1.1 1.5-1.2.7 0 1.4-.2 2 0 .5.1.7.5 1 .8.3.3.7.6.8.9.1.4 1.7 1.1 1.7.1.4-.6.2-1.8 1.3-1.7 1.2 0 2.2.3 3.3.4.6.2 1 .3 1.5.8.4.2.4.7.8.7 1 .8.9-.7 1.2-1.2.3-.4 1-.3 1.5-.6.7-.2 1.3-.4 2.3-.4l1.5.9c.4.3.8.7 1 1.2 0 .6.6 1 1 .6.3-.6.8-.6 1.2-1 .5 0 .8-.3 1.1-.7.3 0 .6-.6.8-.9.5-.3 1.5-.2 2.3-.3.8.2 1.5.3 2 .7.2.3.5.7.9.8.2.5.8.1 1.2 0a9 9 0 0 1 1.3-.8c.4-.4 1-.6 1.7-.6.9-.1 1.3.3 2 .4.7.3 1.4.3 1.8.7.5.4 1.1.6 1.6.2.6 0 .2-1.2.4-1.4.7-.6 2.4-.5 3.3-.2.7 0 1.6 0 2.1.2.5.1.6.6.8 1 .2.5 1.5.5 2 .2.4 0-.1-.7-.3-.9-.3-.1-.6-.6-.7-.9.6-.3 1 .3 1.5.4l1.1.7c.5.2 1 .5 1.8.4.8.2.4 1.3-.4 1-.7.3-1.7.1-2.5.2-1.2-.2-2.5-.1-3.7-.1-.6.2-1.6.1-2.4.3-.7 0-1.3.2-2.1.1l-2.6.1-2.4.3h-2c-1.1.3-2.5.1-3.7.2l-2 .1-2.3.2c-.8 0-1.5.2-2.3.1-1.3.2-2.7 0-4 .1-.7-.1-1.6 0-2.3-.2h-2c-.5-.3-1.5 0-2-.2-1.1 0-2-.2-3-.1h-5.9c-.5-.2-1.4 0-2-.1H376c-.9-.2-1.8 0-2.6-.4-1.1-.2-2.6-.6-2.5-1.5z"/>
  <g fill="#bca76b" stroke="#472b1f">
    <path stroke-width=".330197" d="M1316.2 293.5c1.2 4.4 6.8 3.7 6.6-.3" transform="matrix(1.17728 0 0 1.17728 -1188.2 -111.7)"/>
    <path stroke-width=".403486" d="M1321.3 293.3c1.6 5.1 8.9 4.4 8.6-.2" transform="matrix(1.17728 0 0 1.17728 -1188.2 -111.7)"/>
    <path stroke-width=".345504" d="M1327.5 293.3c1.5 3.8 4.4 4.1 6.7-.3" transform="matrix(1.17728 0 0 1.17728 -1188.2 -111.7)"/>
    <path stroke-width=".334476" d="m1335.8 291.7-20.5.7v1.1l20.7-.6z" transform="matrix(1.17728 0 0 1.17728 -1188.2 -111.7)"/>
  </g>
  <path fill="none" stroke="#000" stroke-width=".588641" d="M367.9 243.4c-2.2 1.9-6.1 4.3-7.9 4"/>
  <path fill="none" stroke="#000" stroke-width=".588641" d="M363.5 236.7c-5.2 19.9-12 40.9-18.3 57.7"/>
  <g fill="#bca76b" stroke="#472b1f">
    <path stroke-width=".346994" d="M1316 306.2c1.2 4.8 7 4 6.8-.3" transform="matrix(1.17728 0 0 1.17728 -1188.2 -111.7)"/>
    <path stroke-width=".458009" d="M1320.8 306.1c1.6 6.4 9.1 5.4 8.9-.3" transform="matrix(1.17728 0 0 1.17728 -1188.2 -111.7)"/>
    <path stroke-width=".381433" d="M1327.6 306c1.7 4 5 4.4 7.6-.2" transform="matrix(1.17728 0 0 1.17728 -1188.2 -111.7)"/>
    <path stroke-width=".389898" d="m1336.1 303.8-21 1v1.5l21.2-.8z" transform="matrix(1.17728 0 0 1.17728 -1188.2 -111.7)"/>
    <path stroke-width=".399677" d="M1314.8 318.4c1.4 5.8 7.6 4.9 7.4-.4" transform="matrix(1.17728 0 0 1.17728 -1188.2 -111.7)"/>
    <path stroke-width=".571686" d="M1320.6 318.3c1.8 8.5 10.5 7.3 10.2-.5" transform="matrix(1.17728 0 0 1.17728 -1188.2 -111.7)"/>
    <path stroke-width=".418205" d="M1327.4 318.2c1.8 4.9 5 5.3 7.5-.4" transform="matrix(1.17728 0 0 1.17728 -1188.2 -111.7)"/>
    <path stroke-width=".414591" d="m1336.7 316-24 1 .1 1.4 24.1-.7z" transform="matrix(1.17728 0 0 1.17728 -1188.2 -111.7)"/>
    <path stroke-width=".432826" d="M1314.4 332.5c1.4 6.3 8.2 5.4 8-.3" transform="matrix(1.17728 0 0 1.17728 -1188.2 -111.7)"/>
  </g>
  <path fill="none" stroke="#000" stroke-width=".588641" d="M380 283.7c1.7 7 3.8 13.5 5.9 19.5m-8-19.8c1 6.8 2.8 13.4 4.8 19.7"/>
  <g fill="#bca76b" stroke="#472b1f">
    <path stroke-width=".528894" d="M1320.6 332.3c1.7 8.4 10.5 7.7 10.4-.4" transform="matrix(1.17728 0 0 1.17728 -1188.2 -111.7)"/>
    <path stroke-width=".45289" d="M1328 332.3c2 5.3 5.3 5.8 8.1-.4" transform="matrix(1.17728 0 0 1.17728 -1188.2 -111.7)"/>
    <path stroke-width=".47871" d="m1338 329.7-26.6 1v2l27-1z" transform="matrix(1.17728 0 0 1.17728 -1188.2 -111.7)"/>
    <path stroke-width=".208658" d="m1329.4 299.7-7.7.2v1.7h7.8zm0 12.4-7.7.2v1.7h7.8z" transform="matrix(1.17728 0 0 1.17728 -1188.2 -111.7)"/>
    <path stroke-width=".214857" d="m1329.9 325.6-8.2.2v1.7h8.3z" transform="matrix(1.17728 0 0 1.17728 -1188.2 -111.7)"/>
  </g>
  <g fill="none" stroke="#000">
    <path stroke-width=".499999" d="m892.4 333.2-5.7 1.2m6.6 3.1-5.7 1.2m7 3.6-5.8-.3m7.5 4.8-6 1m-20.8-1.9 6 1.2m-4.3-6.1 5.4 1.2m-4-5 5 1.3m-4-4.7 4.5.9" transform="matrix(.89666 0 0 .89666 -419.3 -13)"/>
    <path stroke-width=".999999" d="M945.2 353.9c10-.5 22-1.7 30.2 1.5m-29.5 1.8c9.2-1.4 20-2.1 28 .9m-27 5.8a52.7 52.7 0 0 1 22-.3m-21.3 1.9a47.7 47.7 0 0 0 20.8.2" transform="matrix(.89666 0 0 .89666 -419.3 -13)"/>
  </g>
  <path stroke-width=".896665" d="m342.8 293.7 19.4 11.8.5-.5-6.2-4.3a62.9 62.9 0 0 0-13.7-7z"/>
  <g fill="none" stroke="#000">
    <path stroke-width=".5" d="m954 352.8-.2-7.2m2.4 0v7.5m4 0v-7.7m4.6.7v7.4m2.7-7.5v7.6m3.6-6.8v7m1.8-7.1v7.9m-18 1.4v6.8m-2.3-6.5v6.5m6-6.7-.3 6.5m2.5-6.6-.1 6.5m3.4-6.5-.4 6.2m3.5-5.4-1.2 5.8" transform="matrix(.89666 0 0 .89666 -419.3 -13)"/>
    <path stroke-width=".89666" d="M428.4 297.3c9-1 17.8.2 26.7 1"/>
  </g>
  <path fill="none" stroke="#000" stroke-width="1.79333" d="M477 217.4c0-22.9-1.3-45.1-.7-64.6-29.7-13.2-68.7-15.9-88.6-15.9-19.9 0-58.9 2.7-88.5 15.9.6 19.5-.7 41.7-.7 64.6z"/>
  <path fill="#69737c" fill-opacity="1" stroke="#000" stroke-dasharray="none" stroke-linecap="butt" stroke-linejoin="miter" stroke-miterlimit="4" stroke-opacity="1" stroke-width="1.5" d="M1468.2 251.4s7.4 11 9.4 16.8c1 3 1.3 6 1.1 9-.4 5.6-2.5 11-4.2 16.2-1.2 3.7-3.9 6.4-2.4 10 .7 1.7 1.4 3.3 3.2 3 1.1-.2 1.7-1.5 2.6-2.3.6-.5 1.2-1 2-1.4 1-.4 2.5.3 3.3-.5.7-.7 1.2-2.1.6-2.9-.5-.6-1.7 0-2.6 0-1.2 0-2.6 1-3.6.3-1.1-.6-1.7-3.4-1.7-3.4l3.4-9c1-2.5 2.6-4.8 3-7.4.2-.8 0-1.7 0-2.5.2-1.4-.3-3 .6-4 .6-.6 2.3.3 2.6-.5 1.2-3.1-4.4-5.2-5.7-8.3-.4-1.1-.1-2.5-.5-3.6-1-2.6-4-7.1-4-7.1z" transform="matrix(.43564 0 0 .43564 -257.2 70.7)"/>
  <path fill="#66452b" fill-opacity="1" stroke="#000" stroke-dasharray="none" stroke-linecap="butt" stroke-linejoin="miter" stroke-miterlimit="4" stroke-opacity="1" stroke-width="1.5" d="M1491.2 260s6.5 8 7.2 13c.1 1-.7 2.1-.8 3.2 0 1.7 1 3.4 1 5.1-.3 5.6-3.2 10.7-4.6 16.1-1.1 4.6-3 13.9-3 13.9l4.2-.4.7-7 3.2-12c.8-2.7 1.2-5.6 2.1-8.3.7-1.8 2-3.3 2.5-5.1.6-2.4 1.3-5.2.2-7.4-.4-.8-1.5-1-2.1-1.5a20.7 20.7 0 0 1-3.4-5.1c-1-1.9-2.1-6-2.1-6-.9.4-5.1 1.4-5.1 1.4z" transform="matrix(.43564 0 0 .43564 -257.2 70.7)"/>
  <path fill="#fff" stroke="none" stroke-linecap="butt" stroke-linejoin="miter" stroke-opacity="1" stroke-width="1px" d="m1460.3 245 4.7 3.8 8 4.8 3.8.3 4.2 1.5 5.2-.2 3.9 4 1 .7 4.4-.6 1.6-1.8 8.2-12.5-2-20.6-39.1 2.5z" transform="matrix(.43564 0 0 .43564 -257.2 70.7)"/>
  <path fill="#fff" stroke="none" stroke-linecap="butt" stroke-linejoin="miter" stroke-opacity="1" stroke-width="1px" d="M1502.6 210.2a85 85 0 0 1 14.6 14.2c3.1 3.8 5 9 9.8 11.3 6.6 7 34.8 15.2 34.9 17.4-6.5-2.7-9.4 6.2-15.7 4.8-5.8 1.7-10.7-2.1-15.7-4.3-7.7-.2-15.6.2-22.4 4-3.7 2-8-1-11 0l-.4.6-.4.4m-36-13.5c-4.5-2.3-7.8-6.5-12-9-3.2-4.6-7.4-9.2-7.2-15.2-.5-6.2-2.1-14.8.8-20.7-2.1-4.7-5-6-7.4-10.5-1.7-6.3-8.1-10-4.3-14.8 4.3-3.8 7.3-8.2 12.8-10.2a24 24 0 0 1 13.6 1c5.7.6 8.8 5.4 11.8 9.6a48 48 0 0 1 7 18.8c2.7 5.4 9.6 6.6 14.7 8.9 4.4 2 8.8 3.8 12.5 7.2" transform="matrix(.43564 0 0 .43564 -257.2 70.7)"/>
  <path fill="#000" fill-opacity="1" stroke="none" stroke-linecap="butt" stroke-linejoin="miter" stroke-opacity="1" stroke-width="1px" d="M1533.5 246.8c-2.2-.3-7.5 1.9-6.2-1.4-5.4-.4-11.1.8-16.4-1a95.7 95.7 0 0 0-17.1-6c-5.7-.2-12.4 1-16.8-3.6-4.5-2.6-11.1-.7-15.3-4.6a17.7 17.7 0 0 1-6.6-14c-.8-5.4-2.8-12.7 3.3-15.9 4-1.2 7.7-.2 10-4.1 5.1-.9 9.8 1 14 3.4 5.2 2.6 10.8 4.1 15.8 7 4.7 3.1 8.7 7.2 13.2 10.7 3.5 4 7.6 7.7 9.8 12.7 2.7 5.2 8.2 8 13 11 2.8.8 9.6 4 3.2 4.8-1.3.2-2.6.9-4 1z" transform="matrix(.43564 0 0 .43564 -257.2 70.7)"/>
  <path fill="#69737c" fill-opacity="1" stroke="none" stroke-linecap="butt" stroke-linejoin="miter" stroke-opacity="1" stroke-width="1px" d="M1478 229c-2.8-.3-5.6-.9-8-2.6-1.7-1-6.2-3.7-3.3-5.7 2.4-.3 5.2.9 7.3-.8 3.2-.6 6.6-.7 9.6-2.3 2.8-1.5 6-.5 9-1.4 2-1.2 1.8-5.5 5-4.7 3-.8 2.2 5-.5 3.1-1.7 2.4 3 3.2 4.2 4.6 2.5 2.8-3 3.5-3.5 5.6-3.4 1-6-3.4-9.4-2.2-.6 1.2 0 3.6-2.4 3-3-1.8-5.4.2-8.3.6.9.6-1 3 .2 2.8zm60 20.7c-1.6-.8-3.7 0-5.5 0-1.2 0-2.5.1-3.6-.4-1.8 0-5.2-2-5.7.6.1 1.1 3 1.6.6 2-2.4.3-4.6-.8-6.9-1.6-.9-.9-2.8-2-2.3.1.7 1.8-1.2 2.6-2.7 2.6a9.8 9.8 0 0 1-6.3-2.4c-1.1 1.4 1.6 3.4 3.3 3.5 1.6 1.4-2.5.9-3.4.7-1.4-.2-3-.4-4.2.4-1.9.5-2 2.3.3 2.1 2.1.7 4.5 1.4 6.7.3 2.3-1.4 4.8-2.3 7.4-2.8a48 48 0 0 1 6.3-1c2.8-.3 5.6-.2 8.4-.2 2.2 1.1 4.4.1 6.3-.9 1.2-.4 4.8-1.7 2.2-2.8-.3.1-.6-.4-1-.2z" transform="matrix(.43564 0 0 .43564 -257.2 70.7)"/>
  <path fill="#000" stroke="none" stroke-linecap="butt" stroke-linejoin="miter" stroke-opacity="1" stroke-width="1px" d="M1530.5 253.6c1 0 2.1 0 3-.5 1.1-.6 2.3-.8 3.4-1.2 1.5 0 2.1-2 .6-2.3-.8-.6-1.7-1-2.6-1.3-.8-.7-2-1-2.9-1.8l2-2.4c1-.4 2.2-.3 3.2-.6.8-.2 1.7 0 2.5-.1l3.4 1.6c1.1.6 2.3 1.1 3.5 1.5l3 1c1.1.6 2.4.8 3.6 1.2 1.2.3 1.7 1.6 3.1 1.4 1.4.3 2.6.5 3.6 1.5.8.3 2.2 1 2.2 1.7-1.1.1-2-.9-3.2-.6-1 .2-1.5 1-2.6.9-.5 1.3-2.2 1.1-3 2.3a16 16 0 0 1-3.8 2.2 4.3 4.3 0 0 1-3.3-.1c-1.2-.3-2.6 0-3.8-.2-1.3.3-2.6 0-3.8-.4-1.1-.3-2-1.1-2.9-1.7-1.1-.5-3.2-1-4.4-1.5-.5-.3-.5-.4-1.1-.6z" transform="matrix(.43564 0 0 .43564 -257.2 70.7)"/>
  <path fill="#000" fill-opacity="1" stroke="none" stroke-linecap="butt" stroke-linejoin="miter" stroke-opacity="1" stroke-width="1px" d="M1446.3 164c-1.2 0-2.3 0-3.4.4-2 .4-3.6 1.6-4.9 3a27.5 27.5 0 0 1-5.4 4.9 8 8 0 0 0-2.4 2.6c1.2.8 3 1 3.8-.4 1.2-1.5 2.9-2.8 4.7-3.5 1.7-.3 3.3.4 5 .5 1.3.8 2.6 1.3 4.1 1.5.8.3 2.1.4 3.2.7 1.5.6 3.1.9 4.7 1.3 1.8.4 3.6.2 5.3 0l1.2-.1-.4 1.3c0 1.1.5 2.1 1 3l1.7 2.8 1.4 3.2c.5.8.8 1.8 1.2 2.7.3 1 .7 2 1.4 2.7l2.2 2.8 1.5 2.7c.7.7 1.6 1.6 2.6 1.5 1.1.2 2.2-.3 3.3-.4h-.4c-1-.6-1.5-1.7-2-2.6-.3-1-.4-2.2-.6-3.2 0-1-.4-2-.8-3l-.8-2.6c-.5-.9-.8-1.8-1.1-2.7-.4-1-.7-2-1.3-3l-1.5-2.8c-.6-.8-1-1.9-1.6-2.7-.4-.5-.8-.7-1.3-1 .2-.4 0-1-.6-1.6-.7-1-1.8-1.8-2.3-3-1.3-1.4-3.3-2-5-2.7a28 28 0 0 0-6.2-1.8 16.6 16.6 0 0 0-5.2-.5h-1.1z" transform="matrix(.43564 0 0 .43564 -257.2 70.7)"/>
  <path fill="#69737c" fill-opacity="1" stroke="none" stroke-linecap="butt" stroke-linejoin="miter" stroke-opacity="1" stroke-width="1px" d="M1466 191.8c0-1.5-2-.9-2.7 0-1 1-1.6 2.3-2.8 3.2-1.8 1.3-4.2 1.5-6 2.8-1 1-1.8 2.4-3.2 3-1.4.8-3 1.7-3.7 3.2-.3 1.1-1.1 2.6 0 3.5 1.5.6.1 2 .2 2.9.7 1 2.4 1.4 3.4.7 1.4-.9 3-1.7 3.8-3 1.4-1.7 2.9-3.3 4.8-4.2a6.5 6.5 0 0 0 3-2c1-.8.2-2.2 1.6-2.5 1.3-.5 2-1.7 2.7-2.7.8-1.1-.6-2.2-.4-3.4 0-.5-.1-1.1-.6-1.5z" transform="matrix(.43564 0 0 .43564 -257.2 70.7)"/>
  <path fill="#66452b" fill-opacity="1" stroke="#000" stroke-dasharray="none" stroke-linecap="butt" stroke-linejoin="miter" stroke-miterlimit="4" stroke-opacity="1" stroke-width="1.5" d="M1487.7 312.3h-7.6c-1.3-.5-2.1-2.6-3.8-1.7-1.4.5-2.8 1.2-4 1.9a9.5 9.5 0 0 0-3.3 2.8c-.2.8-2.5 1.7-.5 1.7 1.7.2 2.7-1.6 4.4-1.8 1.3-.6 2.8-.2 4.1-.3 1.1.2 2.4.3 3.6.2l4 .2c1.9.1-.8 1.3-1.4 1.6-1.5.6-3.1.8-4.7 1.2-1.6 0-3.3 0-4.7.6-1.5.7-3 1.4-4.3 2.4-.8.4-2.7 1.4-.8 1.4 1.4.2 2.7-.2 4-.6a36 36 0 0 1 7.1-1.8c1.6-.3 3-1 4.6-1.3 1 0 3.6-.5 2.8 1.2-1 1.2-2.4 2-3.8 2.7-1.2.7-2.3 1.7-3.8 1.7-1.1-.4-3.5.5-1.8 1.6.9 1.5 2.7.5 3.8 0 1.4-.8 2.7-1.3 4-1.8l4.7-1.9c1.3-.8 2.8-1 4-1.9 1.3-.8 3-1.4 3.6-3 .4-1.3 1.3-2 2.6-2.5 1.4-.3 2.8-.1 4.2-.4 1.6 0 1.2-2.9-.3-3-1.3-.8-2.4-1.8-3.7-2.5-1.5-.6-3.1-1-4.8-.8a4 4 0 0 0-3.2 2.1c-.8 1-1 2.8-2.7 2.4-.8.2-1.6 0-2.3-.4zm-37.2 9.5s1.5-5.3 3.3-7.1c3.9-3.8 14.8-6.5 14.8-6.5-4.7 1.8-10.3.4-14.8 1.7-3.7 1.2-10.1 6-10.1 6s2.4-5.1 4.2-7.2c5.4-5.9 14-6.6 20.5-5.6l7.3 1s1.3.8.7 2c-1.1 2.3-4.6 3.6-7 4.7-6.6 3.4-14.8 6-18.9 11z" transform="matrix(.43564 0 0 .43564 -257.2 70.7)"/>
  <path fill="#69737c" fill-opacity="1" stroke="#000" stroke-dasharray="none" stroke-linecap="butt" stroke-linejoin="miter" stroke-miterlimit="4" stroke-opacity="1" stroke-width="1.5" d="M1473 303.1c-6 4-19.7 11.2-19.2 11.6 0 0 11.7-2.7 17-5.3 1.9-.9 4.5-1.5 5.1-3.5.3-1-.2-2.4-1-3-.6-.3-1.4-.2-2 .2z" transform="matrix(.43564 0 0 .43564 -257.2 70.7)"/>
  <path fill="#69737c" fill-opacity="1" stroke="none" stroke-linecap="butt" stroke-linejoin="miter" stroke-opacity="1" stroke-width="1px" d="M1501.2 272c-1.4 0-1.6 2.6-1.7 4 0 1 0 2.8 1 2.9 1.2 0 1.6-2.2 1.7-3.4 0-1.2.2-3.4-1-3.5z" transform="matrix(.43564 0 0 .43564 -257.2 70.7)"/>
  <path fill="#69737c" fill-opacity="1" stroke="#000" stroke-dasharray="none" stroke-linecap="butt" stroke-linejoin="miter" stroke-miterlimit="4" stroke-opacity="1" stroke-width="1.5" d="M1495.2 310.9c0-1.2-1.5-.5-2-.3-1.5.3-2.8 1.1-4 1.8l-3 1.8-5.8 3.2c-.9.4-1.7.8-2.7 1-.7.1-.4.6.2.5 1.4.3 2.8.2 4.1-.3 1.5-.5 3.1-.8 4.5-1.4.8-.7 2.4-1 3.2-1.5.8-.4 2.7-.7 3.4-1 1.3-.8.8-1.7 2.3-1.7 1 0 1-1.4.1-1.6a.8.8 0 0 1-.3-.5z" transform="matrix(.43564 0 0 .43564 -257.2 70.7)"/>
  <path fill="#69737c" fill-opacity="1" stroke="#000" stroke-dasharray="none" stroke-linecap="butt" stroke-linejoin="miter" stroke-miterlimit="4" stroke-opacity="1" stroke-width="1.5" d="M1481.7 323.4c1-.3 2.2-.2 3.2-.6 1.3-.3 2.5-.7 3.8-1.2l1.7-.9c1.1-.7 1.8-1.8 2.5-2.9l1.4-2.7c.2-.7-.7-1-1.2-.5l-2 1.5c-.6.6-1.5 1-2 1.6-.8.9-1.2 2-2 2.9l-1.5 1-3.3 1.4c-.2.1-.5.2-.6.4z" transform="matrix(.43564 0 0 .43564 -257.2 70.7)"/>
  <path fill="none" stroke="#000" stroke-dasharray="none" stroke-linecap="butt" stroke-linejoin="miter" stroke-miterlimit="4" stroke-opacity="1" stroke-width="1.5" d="M1496 246.1c.4.7.7 1.5.7 2.3l.5 3c0 1-1.1 1.6-1.3 2.6l-.1 2c-.2 1.1.1 2.2-.3 3.3-.5 1-2 .3-3 .5-.8.2-1.9.3-2.4-.6-.8-.8-1.4-1.7-2.3-2.5-1-1-2-2-2.7-3.2l-1.8-2.7-.5-1.2m3.4 5.6c-.9 0-1.7.3-2.6.2h-2.6c-.7-.3-2-.3-2.5-.7-.7-.1-1-.6-1.7-.8-.5-.4-1 0-1.5-.1-.4-.7-1.2-1.6-1.7-2.1-.5-.3-1-.5-1.5-1-.5-.2-1-1-1.1-1.3-.4-.5-.5-1.1-1-1.6-.3-.6-.4-1.1-.8-1.7v-.4M1475.3 253.8c-.2 1.3-1.6 0-2.2-.2l-1.6-.7c-.5-.4-1-.6-1.5-.8-.6-.3-1.3-.6-1.7-1-.7-.2-1.3-1-2-1.1-.7-.7-1.5-1.1-2.2-1.6-.8-.6-1.7-1.2-2.4-2-.7-.5-1.3-1.2-1.4-2.1a6.9 6.9 0 0 0-.6-2.4c0-.5-.3-.7-.2-1" transform="matrix(.43564 0 0 .43564 -257.2 70.7)"/>
  <path fill="#bca76b" fill-opacity="1" stroke="none" stroke-linecap="butt" stroke-linejoin="miter" stroke-opacity="1" stroke-width="1px" d="M1533.5 254.5a7.9 7.9 0 0 0 2.4-.2c.8 0 1.6-.4 2.4-.6.8-.3 1.5-1.1 2.4-1 .9-.1 1.9.2 2.6-.3a2 2 0 0 1 2-.8c.8-.1 1.6.1 2.4.3l2.2.7c.7.3 1.4.8 2.2 1 .7.4-.6 1-.8 1.3-.7.3-1.6 0-2.3.6-.7.4-1.3.9-1.6 1.6-.4.8-1.4.6-2 .8l-2.2.1c-.6 0-1.3.3-1.8 0-.8-.3-1.6-.4-2.4-.5-.6-.4-1-1-1.9-1.1-1.1-.3-2-1-3-1.4a1 1 0 0 1-.6-.5z" transform="matrix(.43564 0 0 .43564 -257.2 70.7)"/>
  <path fill="#000" stroke="#000" stroke-linecap="butt" stroke-linejoin="miter" stroke-opacity="1" stroke-width="1px" d="M1435 184c-1.8-.4-3.6.4-5.4.4-1.6.3-3.4 0-5.1.2-1.8-.4-3.7-.2-5.5 0-2.7.5-5.3 1.6-8 2-3.7.2-7.4 0-11 .1-2.7.2.2-3.1 1.7-3 3.3-.9 6.6-2.1 10-2.5 2.7-.3 5.2-1.1 7.8-1.6l6.2-1.6c2.2-.4 4.4-.8 6.5-.4 2.3-.6 4.5-1.1 6.7-2 2-1 4.3-.4 6.1-1.6 1.2-1.7 3.3-1.6 5.2-1.5 2 .4 4 1.1 5.3 2.8 1.4 2.1-3 1.9-1.7 4-.7.9-2.3 1-3.4 1-1 0-2.2.2-3.1-.4-1.7-.6-3-1.8-4.5-2.7-1.6-.3-1.7 2.6-3.6 2.3-2.6 1-5.3.7-8 .8 1.7.6 3.5 1.2 4.8 2.4.6.8-.4 1-1 1.2z" transform="matrix(.43564 0 0 .43564 -257.2 70.7)"/>
  <path fill="#fff" stroke="none" stroke-linecap="butt" stroke-linejoin="miter" stroke-opacity="1" stroke-width="1px" d="m1445.7 176.6 1.7-.7 1-1.6s1.4 2.2.7 3c-.8.8-3.4-.7-3.4-.7zm4.5-4c.3-.3-1.4-1.4-.1-1.7 1.4-1.6 3.5-.3 5.1.2 3 1 6.3 2.2 8.3 4.8 3 3.4 3.6 8 6 11.8 1 1.8 1.6 3.8 2.3 5.7.5 1.5 2.8 3.1 1.6 4.8-1.5.9-3-.3-4.3-.7-1.8-.2-1 1.9.3 2.1 1.3.6 1.7 2.7-.2 2.5-1.8-.2-3.6-.3-5.3-.6-1.4-.8.3-2.2 1.1-2.7 1-.6 2.5-1.4 2.3-2.9 0-2.5-1.8-4.7-2.2-7.2-.5-1.8-1-3.8-1.8-5.5-.8-4-4.5-6.8-8.2-8-1.6-.8-3.3-1.5-4.8-2.4l-.1-.3z" transform="matrix(.43564 0 0 .43564 -257.2 70.7)"/>
  <path fill="#bca76b" fill-opacity="1" stroke="none" stroke-linecap="butt" stroke-linejoin="miter" stroke-opacity="1" stroke-width="1px" d="m1463.6 174.6 1.6.8 1.7 2.5.4 1.4c.1.6.6 1 1 1.5l.7 2.1c.4.6.7 1.1.9 1.8 0 .5.3 1 .5 1.6.3.4.4 1.3-.3 1.3-.5-.1-1-.4-1.3-.8-.6-.5-1-1.3-1.4-2a5 5 0 0 1-.5-1.3l-.6-1.8-.7-1.7c-.4-.6-.5-1.3-.9-1.9-.3-.7-1.4-2.4-1.2-3.2v-.3zm-12-4.5c-.5-.2-.8-.5-1-.8l-1.2-.6c-.8.3-.2-.6-.5-.4l-.4-.9-.8-.8c0-.1-.3-.4 0-.4.5 0 .9 0 1.3.2l1.1.2h1.7c.3-.2.3.2.6.1.2 0 .3.2.5.1.5 0 .6.5.8.8.4.2.5.6.6 1l.1.4-.1.4c-.3.3-.7.3-1 .5-.5 0-.8.4-1.2.3l-.6-.1z" transform="matrix(.43564 0 0 .43564 -257.2 70.7)"/>
  <path fill="#fff" stroke="none" stroke-linecap="butt" stroke-linejoin="miter" stroke-opacity="1" stroke-width="1px" d="M1450.5 169.3c-.6.2-1.2.5-1.9.4-.4 0-.7.4-1 .7l-1.3.4-1-.5c-.2-.1-.2-.5-.5-.6l-1-.5c-.4-.2-.3-.5-.3-.8l.1-1c0-.3.4-.5.8-.4h2.1c.4-.2.8-.4 1.2-.3.4 0 .6.5.9.7l2 1.9zm3.2-1.7c.5-.2 1-.5 1.5-.5l1.5.3c.6.1 1.1.3 1.6.6l1.6.7 1.5.8 1.4.8 1.2 1.2c.3.4 0 1-.5.7-.4-.3-1-.5-1.5-.7-.5 0-1-.2-1.4-.4-.5 0-1-.4-1.5-.6l-2-.8-1-.4-1.9-1c-.2-.2-.6-.4-.5-.7z" transform="matrix(.43564 0 0 .43564 -257.2 70.7)"/>
  <path fill="#000" stroke="none" stroke-linecap="butt" stroke-linejoin="miter" stroke-opacity="1" stroke-width="1px" d="M1461.3 178.5c-2-.2-4 .8-6.1.1-1.5-.2-2.7 1-4 1.5-1.8-.2-2.1 2.3-3.7 2.2-1.3-.2-2.8-1.2-4-.7 2.7 1.2 5.4 2.3 7.7 4 1.3 1.2 2.8 2.3 4.4 2.8 1.2.5 2.5 1.6 2 3-.5 1.6-3 2-3 3.8-.3 1.6-2 2.3-2.6 3.7-.7 1.1-2.1 1.8-2.2 3.2.3 1.7 2.3.4 2.3-.8.3-1.1 1.3-2.9 2.6-2.2 1.1 1.6 2.5-1 3.9-.4.6 1 2 1.4 2.6.2 1-.4 2.4-1 1.5-2.3 0-1.3 1.6-1.2 2.4-2 1-.4 2.1-1.8 1-2.8-1-1.4 0-3.4-1.2-4.7-1-1.5 0-3.4-.8-5-.7-1.3-1.2-3.1-2.6-3.7z" transform="matrix(.43564 0 0 .43564 -257.2 70.7)"/>
  <path fill="#69737c" fill-opacity="1" stroke="none" stroke-linecap="butt" stroke-linejoin="miter" stroke-opacity="1" stroke-width="1px" d="M1516.6 234.5c-2.3 0-4.2 1.7-6.6 2-2.8.3.8 1.6 1.6 2.2 2.3 1.5 5 2 7.4 2.9 2.4 1 5 1.8 7.6 1.3 2.4-.6.6-3 0-4.2-1.5-2.1-4-3.1-5.7-4.8-1.4-1.2-3.3-.8-4.3.6z" transform="matrix(.43564 0 0 .43564 -257.2 70.7)"/>
  <path fill="#fff" stroke="none" stroke-linecap="butt" stroke-linejoin="miter" stroke-opacity="1" stroke-width="1px" d="M1515 239.5c-.8 0-1.7.4-2.6.3-1 0-2 .3-3-.3-1-.2-2.1-.5-3-1-.8-.5-1.7-.7-2.2-1.5-.6-.9.7-1 1.2-1 1-.3 2.2-.5 3.3-.3l3.5 1.6c1 .4 2 .9 2.6 1.6l.2.6z" transform="matrix(.43564 0 0 .43564 -257.2 70.7)"/>
  <path fill="#fff" stroke="none" stroke-linecap="butt" stroke-linejoin="miter" stroke-opacity="1" stroke-width="1.17706px" d="M1526.6 238.8c.1 1-1.7 0-2.3.4-1.2.1-2.2-.2-3.3-.7-1.8-.8-3.6-1.7-5.5-2-.8-.3-2.6-1.1-1.3-2.1 1-.8 2.3-1.4 3.5-1.6 1.4 0 2.5.8 3.7 1.3 1.3.6 2.6 1 3.6 2 .8.6 1.7 1.6 1.6 2.7z" transform="matrix(.43564 0 0 .43564 -257.2 70.7)"/>
  <path fill="#69737c" fill-opacity="1" stroke="none" stroke-linecap="butt" stroke-linejoin="miter" stroke-opacity="1" stroke-width="1px" d="M1494.7 227.4c-1.7 1-3.7 1.5-5.7 1.4-1.8.7-4.8-.9-5.4 1.4-.9 2 1.4 2.8 2.7 3.6 3.6 2 7.8 2 11.8 2.1 1.1.1 4.6-.4 2.8-1.7-2-1.5-3.6-3.6-5.2-5.5-.4-.4-.8-.8-1-1.3zm20.1 1.3c-.8-.1-1.5-.5-2.3-.7-1-.3-2-1-3-1.5-1.4-.8-2.7-1.7-4.1-2.3-.7-.3-.6-1 .2-1 .7 0 1-1.1 1.7-.3 1 .5 1.8 1.2 2.5 2 .9.7 1.7 1.6 2.8 1.8.8.5 2.2 1 2.2 2zm-2.7 3.7s-3.6 1-5.3.3c-1.3-.4-2.6-.6-3.7-1.2-1.5-.8-3-1.4-4.1-2.6-1-1.1.2-3 1.6-2.4 1-.3.6-2.3 2-1.4 1.8.8 3.6 1.7 5.2 3l3 2.7 1.3 1.6zm-27.2-25.6c2.4.6 5.3 1.8 6.8 4 2 2.5-2 4-4 2.5-3-1.6-6.2-3.1-9.5-4-3.2.4 1.4 2.2 2.3 3 1.4.9 2.6 2.5 2.6 4-2.1 1.7-4.8 0-7.1-.3-2.5-.3-4-2.5-5.5-4.2-1.2-1.2-2.5-1.9-4-1.2 0 2.1 1.5 2.7 2.5 4.4.8 1.1 4.2 3.8 1 3.9a9.7 9.7 0 0 1-5.9-4.4c-1.4-1.5-2.5-4.6.4-5 2.6-1.5 5.6-2.2 8.6-2.2 3.2-.3 6.5.2 9.7-.7.4.2 2.5-.9 2.1.2z" transform="matrix(.43564 0 0 .43564 -257.2 70.7)"/>
  <path fill="#fff" stroke="none" stroke-linecap="butt" stroke-linejoin="miter" stroke-opacity="1" stroke-width="1px" d="M1460.3 208.7c-.4.7-.7 1.3-.7 2l.1 2.6.7 2c.4.8 1 1.2 1.6 1.7.5.6 1 .9 1.6 1.2l1.5.7 2 .5c.7.1 1.2 0 1.5-.6.7-.4.1-.8-.4-1-.6 0-1-.5-1.5-1-.6-.4-1-1-1.3-1.6-.2-.6-.6-1-1-1.6-.4-.4-.6-.9-1.1-1.3a12 12 0 0 1-1.5-1.6 18 18 0 0 0-1.3-1.6l-.2-.4zm21.4 8.4a34 34 0 0 1-5.2-1.2 9.5 9.5 0 0 1-4.6-3.3c-1.4-1.2-2.7-2.6-4.3-3.5-1.6-.5-2.3 1.8-1.2 2.8.9 1.4 2.2 2.5 3.2 3.9a16 16 0 0 0 4.2 3 14 14 0 0 0 6.4 1.7c1.3-.2 2.8-1 3.2-2.3 0-.9-1-1-1.7-1.1zm-4.8 10.9c-1.2.2-2.5.2-3.5-.6-1-.5-1.7-1.5-2.3-2.4-.8-1-1.7-2-3-2.3-1-.3-2.4.4-2 1.7.1 1 .9 1.8 1.6 2.6 1.2 1.1 2.8 1.7 4.2 2.3.8.4 1.7.5 2.5.5.9 0 2.2.3 2.5-.8v-1zm12-3.5c1 .4 1.6 1.7 1 2.7-.8 1.1-2.1 1.7-3.4 1.6-1.1 0-2.3 0-3.3-.2-1.3-.4-2.4-1-3.5-1.6-1.3-.4-1.4-1.8-2.2-2.7-.6-1 1.2-1.4 1.9-1.1 1.2.4 2 1.5 3 2 1 .4 2 .9 3 1 .9.2 2 .4 2.6-.5l.8-1.2z" transform="matrix(.43564 0 0 .43564 -257.2 70.7)"/>
  <path fill="#fff" stroke="none" stroke-linecap="butt" stroke-linejoin="miter" stroke-opacity="1" stroke-width="1.11423px" d="M1499.2 221.9c1 .9.4 2.6-.9 3-1 .1-2 .4-3 0a14 14 0 0 1-4.2-2c-.8-.6-2-.9-2.6-1.8-.4-1.2 1-2.2 2.1-1.7 1.7.5 3.4.7 5 1.6 1 .4 2.2 1 3.4 1z" transform="matrix(.43564 0 0 .43564 -257.2 70.7)"/>
  <path fill="none" stroke="#000" stroke-dasharray="none" stroke-linecap="butt" stroke-linejoin="miter" stroke-miterlimit="4" stroke-opacity="1" stroke-width="1.5" d="M1502.6 210.2a85 85 0 0 1 14.6 14.2c3.1 3.8 5 9 9.8 11.3 6.6 7 34.8 15.2 34.9 17.4-6.5-2.7-9.4 6.2-15.7 4.8-5.8 1.7-10.7-2.1-15.7-4.3-7.7-.2-15.6.2-22.4 4-3.7 2-8-1-11 0l-.4.6-.4.4m-36-13.5c-4.5-2.3-7.8-6.5-12-9-3.2-4.6-7.4-9.2-7.2-15.2-.5-6.2-2.1-14.8.8-20.7-2.1-4.7-5-6-7.4-10.5-1.7-6.3-8.1-10-4.3-14.8 4.3-3.8 7.3-8.2 12.8-10.2a24 24 0 0 1 13.6 1c5.7.6 8.8 5.4 11.8 9.6a48 48 0 0 1 7 18.8c2.7 5.4 9.6 6.6 14.7 8.9 4.4 2 8.8 3.8 12.5 7.2" transform="matrix(.43564 0 0 .43564 -257.2 70.7)"/>
</svg>
