<svg xmlns="http://www.w3.org/2000/svg" height="512" width="512">
  <g fill-rule="evenodd" clip-path="url(#a)">
    <path fill="#fff" d="M-62 0h1024.002v512.001h-1024.002z"/>
    <path fill="#de2918" d="M-62 341.331h1024.002v170.671h-1024.002z"/>
    <path fill="#08399c" d="M-62 170.67h1024.002v170.671h-1024.002z"/>
    <path d="M228.244 93.029c-4.018 61.682-6.32 95.483-15.705 111.116-10.147 16.797-20.019 29.095-59.611 43.904-39.593-14.808-49.465-27.107-59.612-43.904-9.385-15.638-11.687-49.44-15.705-111.116l5.851-1.972c11.779-3.595 20.568-6.487 27.069-7.77 9.31-1.972 17.222-4.202 42.243-4.725 25.021.431 32.973 2.799 42.283 4.771 6.447 1.376 15.612 4.083 27.304 7.748l5.882 1.949z" fill="#de2918"/>
    <path d="M222.477 90.979c-3.801 61.531-6.981 89.709-11.94 103.258-9.623 23.198-24.858 35.916-57.647 48.047-32.788-12.131-48.022-24.85-57.646-48.047-4.959-13.548-8.092-41.645-11.784-103.319 11.531-3.603 20.57-6.419 27.071-7.702 9.31-1.972 17.222-4.294 42.243-4.725 25.021.431 33.026 2.753 42.337 4.725 6.501 1.283 15.727 4.099 27.365 7.764z" fill="#08399c"/>
    <path d="M153.012 109.743l1.573 3.721 6.911.947-4.479 2.699 4.33 2.893-6.298 1.055-1.917 3.372-2.155-3.472-5.996-.85 4.081-2.956-4.201-2.69 6.637-1.017 1.515-3.701z" fill="#fc0"/>
    <path d="M208.173 179.714l-3.83-3.029-2.767-4.557-5.421-4.706-2.825-4.756-5.421-4.854-2.652-4.754-2.882-2.329-1.903-1.832-4.897 4.297-2.669 4.667-3.326 3.018-3.653-2.856-2.762-4.869-10.255-18.226-10.256 18.226-2.762 4.869-3.653 2.856-3.326-3.018-2.669-4.667-4.897-4.297-1.903 1.832-2.882 2.329-2.652 4.754-5.421 4.854-2.825 4.756-5.421 4.706-2.767 4.557-3.82 3.1c1.983 16.894 12.744 30.131 18.607 36.186 6.543 6.358 20.033 14.865 36.529 20.496 16.543-5.51 30.22-14.138 36.763-20.496 5.863-6.055 16.624-19.292 18.619-36.257z" fill="#fff"/>
    <path d="M169.508 83.845l1.573 3.721 6.911.947-4.479 2.699 4.33 2.893-6.298 1.055-1.917 3.372-2.155-3.472-5.996-.85 4.081-2.956-4.201-2.69 6.637-1.017 1.515-3.701z" fill="#fc0"/>
    <path d="M136.53 83.788l1.573 3.721 6.911.947-4.479 2.699 4.33 2.893-6.298 1.055-1.917 3.372-2.155-3.472-5.996-.85 4.081-2.956-4.201-2.69 6.637-1.017 1.515-3.701z" fill="#fc0"/>
    <path d="M199.612 203.137l-7.466.023-6.889-.513-8.345-4.096-9.406.057-8.146 3.983-6.425.569-6.425-.569-8.146-3.983-9.406-.057-8.345 4.096-6.889.513-7.56-.104-3.651-6.189.135-.142 11.169 1.849 6.889-.513 8.345-4.096 9.406.057 8.146 3.983 6.425.569 6.425-.569 8.146-3.983 9.406-.057 8.345 4.096 6.889.513 10.87-1.908.144.286-3.641 6.185z" fill="#08399c"/>
    <path d="M113.166 212.648l7.391-.513 8.345-4.096 9.406.057 8.146 3.983 6.425.569 6.425-.569 8.146-3.983 9.406-.057 8.345 4.096 7.491.513 4.833-5.963-.163-.135-5.178 1.511-6.889-.513-8.345-4.096-9.406.057-8.146 3.983-6.425.569-6.425-.569-8.146-3.983-9.406-.057-8.345 4.096-6.889.513-5.075-1.28-.061.249 4.542 5.618z" fill="#08399c"/>
  </g>
</svg>
