<svg xmlns="http://www.w3.org/2000/svg" height="512" width="512"><defs><clipPath id="a"><rect fill-opacity=".67" height="497.33" width="497.33" x="60.224"/></clipPath></defs><g fill-rule="evenodd" clip-path="url(#a)" transform="matrix(1.03 0 0 1.03 -62 0)"><rect height="497.33" width="994.66" fill="#fff"/><rect height="165.78" width="994.66" y="331.55" fill="#de2918"/><rect height="165.78" width="994.66" y="165.78" fill="#08399c"/><path d="M282.039 90.314c-3.904 59.885-6.141 92.702-15.259 107.88-9.859 16.308-19.451 28.248-57.92 42.625-38.471-14.377-48.062-26.317-57.921-42.625-9.118-15.183-11.355-48-15.259-107.88l5.685-1.915c11.445-3.49 19.984-6.298 26.301-7.544 9.046-1.915 16.734-4.079 41.045-4.587 24.311.418 32.038 2.717 41.084 4.632 6.264 1.336 15.169 3.964 26.529 7.522l5.715 1.892z" fill="#de2918"/><path d="M276.435 88.353c-3.693 59.757-6.783 87.122-11.601 100.28-9.35 22.529-24.153 34.88-56.012 46.662-31.858-11.782-46.661-24.133-56.011-46.662-4.818-13.157-7.863-40.444-11.45-100.34 11.204-3.499 19.987-6.234 26.303-7.48 9.046-1.915 16.734-4.17 41.045-4.589 24.311.418 32.09 2.674 41.136 4.589 6.317 1.246 15.281 3.981 26.589 7.54z" fill="#08399c"/><path d="M208.791 106.642l1.527 3.616 6.712.92-4.349 2.623 4.205 2.811-6.117 1.025-1.862 3.277-2.093-3.374-5.823-.826 3.963-2.872-4.08-2.614 6.445-.988 1.471-3.597z" fill="#fc0"/><path d="M262.537 174.474l-3.721-2.941-2.689-4.424-5.267-4.569-2.745-4.617-5.267-4.713-2.577-4.616-2.801-2.261-1.849-1.779-4.758 4.172-2.593 4.531-3.232 2.93-3.55-2.773-2.684-4.727-9.964-17.695-9.965 17.695-2.684 4.727-3.55 2.773-3.232-2.93-2.593-4.531-4.758-4.172-1.849 1.779-2.801 2.261-2.577 4.616-5.267 4.713-2.745 4.617-5.267 4.569-2.689 4.424-3.712 3.01c1.927 16.402 12.383 29.253 18.08 35.132 6.357 6.173 19.465 14.432 35.493 19.899 16.074-5.35 29.363-13.726 35.72-19.899 5.697-5.879 16.153-18.73 18.091-35.201z" fill="#fff"/><path d="M224.814 81.486l1.527 3.616 6.712.92-4.349 2.623 4.205 2.811-6.117 1.025-1.862 3.277-2.093-3.374-5.823-.826 3.963-2.872-4.08-2.614 6.445-.988 1.471-3.597z" fill="#fc0"/><path d="M192.781 81.431l1.527 3.616 6.712.92-4.349 2.623 4.205 2.811-6.117 1.025-1.862 3.277-2.093-3.374-5.823-.826 3.963-2.872-4.08-2.614 6.445-.988 1.471-3.597z" fill="#fc0"/><path d="M254.219 197.214l-7.254.022-6.694-.498-8.108-3.977-9.139.055-7.915 3.867-6.243.552-6.243-.552-7.915-3.867-9.139-.055-8.108 3.977-6.694.498-7.345-.101-3.547-6.009.132-.138 10.852 1.795 6.694-.498 8.108-3.977 9.139.055 7.915 3.867 6.243.552 6.243-.552 7.915-3.867 9.139-.055 8.108 3.977 6.694.498 10.562-1.852.14.278-3.538 6.005z" fill="#08399c"/><path d="M170.224 206.452l7.181-.498 8.108-3.977 9.139.055 7.915 3.867 6.243.552 6.243-.552 7.915-3.867 9.139-.055 8.108 3.977 7.279.498 4.696-5.789-.158-.131-5.032 1.467-6.694-.498-8.108-3.977-9.139.055-7.915 3.867-6.243.552-6.243-.552-7.915-3.867-9.139-.055-8.108 3.977-6.694.498-4.931-1.243-.059.242 4.413 5.454z" fill="#08399c"/></g></svg>