<svg xmlns="http://www.w3.org/2000/svg" height="512" width="512" version="1"><defs><clipPath id="a"><rect fill-opacity=".67" height="450" width="450"/></clipPath></defs><g clip-path="url(#a)" transform="scale(1.138 1.138)"><path d="M0 0h675v225h-375l-300-225z" fill-rule="evenodd" fill="#ed2939"/><path d="M0 450h675v-225h-375l-300 225z" fill-rule="evenodd" fill="#002395"/><path d="M0 0l300 225-300 225v-450z" fill-rule="evenodd" fill="#fff"/><g><path fill="#ff0" d="M151.419 169.849l.092-3.484s-1.871-2.98.301-6.181c0 0-4.612-2.44-3.539-6.261 0 0-4.17-1.066-3.864-5.654 0 0-4.502-.312-4.968-4.145 0 0-4.502.741-6.483-2.993 0 0-4.391.859-5.63-2.22 0 0-4.269 1.479-6.802-2.14 0 0-4.508 1.821-6.397-1.594-1.864 3.404-6.372 1.594-6.372 1.594-2.502 3.606-6.802 2.109-6.802 2.109-1.196 3.091-5.575 2.214-5.575 2.214-1.975 3.735-6.47 2.993-6.47 2.993-.442 3.821-4.937 4.133-4.937 4.133.356 4.599-3.809 5.642-3.809 5.642 1.098 3.82-3.508 6.254-3.508 6.254 2.226 3.22.374 6.176.374 6.176l-.104 3.213 74.504.344"/><path d="M377.17 843.11l.091-3.458s-1.857-2.958.298-6.136c0 0-4.578-2.422-3.512-6.215 0 0-4.139-1.059-3.835-5.612 0 0-4.468-.31-4.931-4.114 0 0-4.468.736-6.434-2.971 0 0-4.359.852-5.588-2.204 0 0-4.237 1.468-6.751-2.124 0 0-4.474 1.808-6.349-1.583-1.851 3.379-6.325 1.583-6.325 1.583-2.484 3.579-6.751 2.094-6.751 2.094-1.187 3.068-5.533 2.197-5.533 2.197-1.96 3.708-6.422 2.971-6.422 2.971-.438 3.793-4.9 4.103-4.9 4.103.353 4.566-3.78 5.601-3.78 5.601 1.09 3.792-3.482 6.208-3.482 6.208 2.21 3.196.371 6.131.371 6.131l-.103 3.189 73.949.342h-.012z" stroke="#000" stroke-width=".271" fill="none" transform="matrix(1.008 0 0 1.007 -228.58 -679.5)"/><path fill="#f00" d="M149.874 165.162c-11.708-1.171-25.189-3.948-35.596 1.907-6.977-4.108-16.69-3.856-24.961-3.053-4.492.803-9.775.803-14.469 1.569l-.736.104c-8.517.565-16.242-1.949-23.643-5.253 2.35 13.327 4.958 26.985 6.24 40.937 2.792 20.664-9.787 38.012-4.627 58.425 3.08 9.795 13.861 15.49 23.728 16.619 9.554.563 19.439 2.127 28.281 4.045 1.681.349 3.675 1.129 4.835 1.631 2.436 1.018 4.222 2.514 5.786 4.114 5.338-5.554 13.161-7.099 20.881-7.914 13.91-1.624 31.061-.741 39.577-13.332v-.712c4.627-6.964 4.013-17.586 2.007-25.476-.135-2.752-.871-5.18-1.27-7.803-8.498-22.424-1.221-47.642 2.436-70.244-4.467 2.44-9.449 3.592-14.419 4.813-3.964.527-8.382.288-12.394.073l-1.663-.447"/><path fill="#80cfe1" d="M167.352 229.519c-.055 1.477.742 2.636 1.031 4.002 1.626 9.802 3.197 22.785-6.903 28.867-11.174 7.098-25.827 4.058-38.756 7.815-2.583.717-6.142 3.09-7.958 4.769-1.166-.766-2.338-1.943-3.841-2.635-10.639-5.652-24.47-3.758-36.479-6.811-6.032-1.906-12.321-6.601-13.849-12.769-3.927-16.182 5.479-29.975 4.369-46.029-.718-12.26-2.78-24.029-5.614-35.523 9.388 4.37 20.255 5.1 30.81 3.004 7.817-1.092 16.917-1.116 24.243 2.188 4.038-1.735 8.762-2.514 13.113-2.992 8.271.804 17.162 2.299 25.68 2.238 5.688-.295 10.855-1.938 15.8-4.126-2.933 18.997-8.566 38.895-1.651 58.002"/><path fill="#fff" d="M150.468 233.305l-.092-17.863h2.203l-27.33-17.636-.049-9.164h2.639l-13.665-9.777-13.598 9.771h2.632l.049 9.158-27.183 17.612 2.172.012.092 17.851 72.123.049"/><path d="M376.04 906.46l-.091-17.739h2.185l-27.113-17.513-.049-9.101h2.618l-13.557-9.709-13.49 9.703h2.611l.049 9.094-26.967 17.49 2.155.012.091 17.727 71.551.049.006-.013z" stroke="#000" stroke-width="1.164" fill="none" transform="matrix(1.008 0 0 1.007 -228.58 -679.5)"/><path fill="#fff" d="M158.875 256.768l.006 5.59-88.046-.098-.037-5.566 88.083.074"/><path d="M384.38 929.76l.006 5.551-87.347-.097-.036-5.527 87.384.074h-.006z" stroke="#000" stroke-width="1.164" fill="none" transform="matrix(1.008 0 0 1.007 -228.58 -679.5)"/><path fill="#fff" d="M76.683 256.436l-.074-18.918 3.565-.007-.196 19.138.215-18.984-5.136-.147v-4.059l78.689.086.037 4.021h-4.854l.092 19.156-.172-19.156h3.614l.08 18.941"/><path d="M302.84 929.43l-.073-18.786 3.537-.007-.195 19.005.213-18.852-5.095-.146v-4.03l78.064.086.036 3.993h-4.815l.091 19.023-.17-19.023h3.585l.079 18.809" stroke="#000" stroke-width="1.164" fill="none" transform="matrix(1.008 0 0 1.007 -228.58 -679.5)"/><path d="M319.62 924.8l-.055-13.1h-10.482l.061 13.087 10.476.013" stroke="#000" stroke-width="1.164" fill="none" transform="matrix(1.008 0 0 1.007 -228.58 -679.5)"/><path d="M311.94 914.43l.03 7.609h4.797l-.024-7.609h-4.803" stroke="#000" stroke-width="1.164" fill="none" transform="matrix(1.008 0 0 1.007 -228.58 -679.5)"/><path d="M370.86 924.84l-.061-13.087-10.446-.012.049 13.099h10.458" stroke="#000" stroke-width="1.164" fill="none" transform="matrix(1.008 0 0 1.007 -228.58 -679.5)"/><path d="M363.18 914.48l.055 7.585h4.791l-.043-7.585h-4.803" stroke="#000" stroke-width="1.164" fill="none" transform="matrix(1.008 0 0 1.007 -228.58 -679.5)"/><path d="M370.78 903.51l-.061-13.101h-10.458l.036 13.101h10.482z" stroke="#000" stroke-width="1.164" fill="none" transform="matrix(1.008 0 0 1.007 -228.58 -679.5)"/><path d="M363.1 893.16l.03 7.597h4.791l-.006-7.597h-4.815" stroke="#000" stroke-width="1.164" fill="none" transform="matrix(1.008 0 0 1.007 -228.58 -679.5)"/><path d="M319.53 903.46l-.073-13.076-10.464-.013.049 13.082h10.488v.007z" stroke="#000" stroke-width="1.164" fill="none" transform="matrix(1.008 0 0 1.007 -228.58 -679.5)"/><path d="M311.85 893.11l.024 7.585 4.803.012-.036-7.597h-4.791" stroke="#000" stroke-width="1.164" fill="none" transform="matrix(1.008 0 0 1.007 -228.58 -679.5)"/><path d="M338.5 903.48l-.049-13.076-10.47-.012.043 13.087h10.476" stroke="#000" stroke-width="1.164" fill="none" transform="matrix(1.008 0 0 1.007 -228.58 -679.5)"/><path d="M330.83 893.13l.024 7.585 4.797.024-.03-7.609h-4.791" stroke="#000" stroke-width="1.164" fill="none" transform="matrix(1.008 0 0 1.007 -228.58 -679.5)"/><path d="M353.12 903.51l-.073-13.101-10.464-.012.049 13.087 10.488.025" stroke="#000" stroke-width="1.164" fill="none" transform="matrix(1.008 0 0 1.007 -228.58 -679.5)"/><path d="M345.44 893.14l.036 7.609h4.797l-.024-7.609h-4.809" stroke="#000" stroke-width="1.164" fill="none" transform="matrix(1.008 0 0 1.007 -228.58 -679.5)"/><path fill="#fff" d="M129.986 226.286l.117 30.41-30.576-.049-.11-30.385 30.564.024"/><path d="M355.72 899.49l.116 30.199-30.333-.049-.11-30.174 30.321.024h.006z" stroke="#000" stroke-width="1.164" fill="none" transform="matrix(1.008 0 0 1.007 -228.58 -679.5)"/><path d="M325.21 908.11l30.54.024" stroke="#000" stroke-width="1.164" fill="none" transform="matrix(1.008 0 0 1.007 -228.58 -679.5)"/><path d="M329.02 929.68l-.103-21.342" stroke="#000" stroke-width="1.164" fill="none" transform="matrix(1.008 0 0 1.007 -228.58 -679.5)"/><path d="M352.14 929.69l-.103-21.329" stroke="#000" stroke-width="1.164" fill="none" transform="matrix(1.008 0 0 1.007 -228.58 -679.5)"/><path d="M366.79 886.63l-17.081-12.474-19.193-.024-16.947 12.449 53.222.049" stroke="#000" stroke-width="1.164" fill="none" transform="matrix(1.008 0 0 1.007 -228.58 -679.5)"/><path d="M331.99 863.8l.03 7.609 16.144.012-.03-7.609-16.144-.012" stroke="#000" stroke-width="1.164" fill="none" transform="matrix(1.008 0 0 1.007 -228.58 -679.5)"/><path d="M336.37 865.69l.024 3.792h7.414l-.024-3.792h-7.414" stroke="#000" stroke-width="1.164" fill="none" transform="matrix(1.008 0 0 1.007 -228.58 -679.5)"/><path d="M340.04 855.14l8.979 6.348-17.891-.024 8.912-6.325" stroke="#000" stroke-width="1.164" fill="none" transform="matrix(1.008 0 0 1.007 -228.58 -679.5)"/><path fill="#fff" d="M150.771 177.296c2.571-.061 3.234 10.581 3.24 15.852 2.209.619 7.105 3.697 9.272 6.479l-24.839-.037c2.135-2.746 6.995-5.836 9.186-6.454 0-5.278.54-15.914 3.142-15.852"/><path d="M376.34 850.84c2.551-.061 3.208 10.507 3.214 15.742 2.191.615 7.049 3.671 9.198 6.434l-24.642-.036c2.118-2.727 6.94-5.795 9.113-6.409 0-5.242.536-15.803 3.117-15.742" stroke="#000" stroke-width="1.164" fill="none" transform="matrix(1.008 0 0 1.007 -228.58 -679.5)"/><path d="M326.81 900.33h2.21l-.645 1.186s1.065 1.37.018 2.94l.578 1.09h-2.131l.578-1.036s-1.09-1.819.049-2.995l-.657-1.186" stroke="#000" stroke-width="1.164" fill="none" transform="matrix(1.008 0 0 1.007 -228.58 -679.5)"/><path d="M331.31 900.33h2.21l-.639 1.186s1.065 1.334.006 2.94l.572 1.09h-2.124l.572-1.036s-1.065-1.819.055-2.995l-.651-1.186" stroke="#000" stroke-width="1.164" fill="none" transform="matrix(1.008 0 0 1.007 -228.58 -679.5)"/><path d="M336.23 900.33h2.204l-.657 1.186s1.077 1.37.018 2.94l.578 1.114-2.112-.024.566-1.036s-1.077-1.808.043-2.995l-.645-1.186h.006z" stroke="#000" stroke-width="1.164" fill="none" transform="matrix(1.008 0 0 1.007 -228.58 -679.5)"/><path d="M341.77 900.35h2.222l-.651 1.199s1.065 1.346.006 2.922l.597 1.108h-2.143l.572-1.035s-1.065-1.832.073-2.995l-.67-1.199h-.006z" stroke="#000" stroke-width="1.164" fill="none" transform="matrix(1.008 0 0 1.007 -228.58 -679.5)"/><path d="M346.7 900.35h2.204l-.651 1.199s1.071 1.346.012 2.916l.584 1.114h-2.124l.554-1.035s-1.071-1.82.085-2.995l-.664-1.199" stroke="#000" stroke-width="1.164" fill="none" transform="matrix(1.008 0 0 1.007 -228.58 -679.5)"/><path d="M351.6 900.36l2.204-.012-.651 1.199s1.09 1.346.03 2.922l.554 1.108h-2.131l.572-1.035s-1.065-1.82.073-2.995l-.651-1.187" stroke="#000" stroke-width="1.164" fill="none" transform="matrix(1.008 0 0 1.007 -228.58 -679.5)"/><path fill="#ff0" d="M114.846 295.679c11.45.037 25.532-2.299 32.128-5.706l14.487-1.282.288 17.661c-12.272 6.761-40.608 8.213-46.843 8.164-6.24.049-34.926-1.428-47.254-8.213l.16-17.673 14.518 1.306c6.596 3.39 21.108 5.744 32.545 5.744h-.031"/><path d="M340.7 968.4c11.359.036 25.329-2.283 31.873-5.667l14.372-1.273.286 17.538c-12.175 6.714-40.286 8.156-46.471 8.108-6.191.049-34.649-1.418-46.879-8.156l.158-17.55 14.403 1.297c6.544 3.367 20.94 5.704 32.287 5.704h-.03" stroke="#000" stroke-width=".271" fill="none" transform="matrix(1.008 0 0 1.007 -228.58 -679.5)"/><path fill="#ff0" d="M30.355 220.345l12.763 4.058-3.86 20.647-12.082 1.875s-2.037-10.856 3.178-26.592"/><path d="M256.88 893.59l12.662 4.03-3.829 20.503-11.986 1.862s-2.021-10.781 3.153-26.407v.012z" stroke="#000" stroke-width=".271" fill="none" transform="matrix(1.008 0 0 1.007 -228.58 -679.5)"/><path fill="#7e7e7e" d="M39.256 244.825l-12.076 2.103 7.639-10.856 4.436 8.754"/><path d="M265.71 917.9l-11.98 2.088 7.579-10.781 4.401 8.693" stroke="#000" stroke-width=".271" fill="none" transform="matrix(1.008 0 0 1.007 -228.58 -679.5)"/><path fill="#ff0" d="M22.724 235.219l12.303.888c.276 10.415 1.54 50.162 49.045 52.32l-1.479 14.461c-57.826.6-62.22-48.752-59.869-67.668"/><path d="M249.31 908.36l12.205.882c.274 10.343 1.528 49.813 48.656 51.956l-1.467 14.36c-57.367.596-61.726-48.413-59.394-67.198z" stroke="#000" stroke-width=".271" fill="none" transform="matrix(1.008 0 0 1.007 -228.58 -679.5)"/><path d="M294.11 978.5l14.384-3.141" stroke="#000" stroke-width=".271" fill="none" transform="matrix(1.008 0 0 1.007 -228.58 -679.5)"/><path fill="#ff0" d="M198.328 220.496l-12.714 4.021 4.031 20.615 12.106 1.943s1.945-10.849-3.424-26.591"/><path d="M423.52 893.74l-12.613 3.993 3.999 20.472 12.01 1.929s1.93-10.774-3.397-26.406v.012z" stroke="#000" stroke-width=".271" fill="none" transform="matrix(1.008 0 0 1.007 -228.58 -679.5)"/><path fill="#7e7e7e" d="M189.639 244.916l12.106 2.17-7.744-10.862-4.363 8.692"/><path d="M414.9 917.99l12.01 2.155-7.682-10.786-4.328 8.631" stroke="#000" stroke-width=".271" fill="none" transform="matrix(1.008 0 0 1.007 -228.58 -679.5)"/><path fill="#ff0" d="M206.1 235.38l-12.321.84c-.178 10.402-1.086 50.167-48.592 52.275l1.614 14.448c57.814.668 61.79-48.66 59.299-67.571"/><path d="M431.23 908.52l-12.223.835c-.177 10.33-1.077 49.818-48.206 51.912l1.601 14.348c57.355.663 61.3-48.322 58.828-67.101v.005z" stroke="#000" stroke-width=".271" fill="none" transform="matrix(1.008 0 0 1.007 -228.58 -679.5)"/><path d="M387.04 978.57l-14.42-3.15" stroke="#000" stroke-width=".271" fill="none" transform="matrix(1.008 0 0 1.007 -228.58 -679.5)"/><path fill="#009fc5" d="M107.155 304.379c-.325.208-.767.264-1.276.239l-2.295-.116.196-2.862 2.276.122c.448.031.804.117 1.025.251.46.239.663.681.62 1.293-.031.527-.215.871-.552 1.073m-3.853 4.506l.227-3.489 2.675.185c.865.067 1.509-.159 1.945-.601.454-.429.687-.992.718-1.63.055-.742-.135-1.349-.577-1.797-.423-.429-1.025-.656-1.779-.729l-3.823-.239-.528 8.213 1.135.074"/><path fill="#009fc5" d="M111.62 302.013l2.798.031c.405.037.724.086.957.196.43.202.632.607.632 1.195 0 .552-.16.92-.472 1.141-.301.202-.736.294-1.258.294l-2.688-.031.024-2.826m-.043 7.276l.024-3.506 2.626.037c.466 0 .81.036 1.049.153.387.178.577.552.595 1.067l.068 1.379.043.668.104.276h1.411l-.024-.178c-.16-.086-.288-.251-.344-.503-.049-.159-.074-.398-.086-.699l-.024-1.097c-.018-.497-.104-.839-.295-1.03-.166-.221-.393-.411-.742-.527.393-.208.687-.447.902-.742.202-.325.307-.736.307-1.238 0-.944-.387-1.588-1.172-1.937-.423-.19-.963-.289-1.602-.3l-3.946-.037-.031 8.239h1.135"/><path fill="#009fc5" d="M120.329 307.571c-.503-.612-.773-1.379-.834-2.286-.055-1.141.166-2.011.687-2.6.528-.638 1.209-.943 2.099-.992.896-.049 1.632.239 2.178.802.558.552.877 1.319.933 2.275.031.919-.129 1.734-.552 2.451-.417.73-1.111 1.141-2.135 1.165-1.068.056-1.865-.196-2.375-.815m-1.35-5.186c-.528.815-.742 1.759-.687 2.9.08 1.232.46 2.25 1.178 3.016.798.766 1.853 1.152 3.154 1.078 1.393-.061 2.442-.588 3.154-1.556.577-.877.853-1.895.792-3.151-.08-1.122-.405-2.035-1.012-2.716-.767-.913-1.89-1.317-3.412-1.256-1.436.091-2.491.619-3.172 1.685"/><path fill="#009fc5" d="M157.726 290.533c.792-.135 1.479-.097 2.105.116.92.288 1.54.969 1.927 2.011l-1.135.159c-.245-.563-.595-.95-1.068-1.165-.46-.202-1.037-.251-1.7-.153-.773.116-1.393.502-1.829 1.122-.43.661-.558 1.545-.368 2.672.16.932.503 1.723 1.068 2.25.522.539 1.289.729 2.289.588.749-.123 1.35-.422 1.773-.938.442-.49.571-1.232.423-2.188l-2.645.405-.135-.907 3.682-.565.718 4.358-.73.11-.454-1.005c-.307.454-.614.804-.884 1.005-.454.356-1.068.583-1.835.693-.994.153-1.902-.025-2.724-.552-.902-.668-1.485-1.661-1.706-3.04-.239-1.355-.025-2.514.601-3.427.595-.882 1.46-1.397 2.626-1.563"/><path fill="#009fc5" d="M166.052 289.899l2.639-.956c.362-.134.675-.178.945-.146.485.036.841.324 1.043.9.19.49.19.919-.024 1.22-.227.312-.583.539-1.098.729l-2.479.889-1.025-2.636m2.639 6.811l-1.289-3.304 2.454-.883c.46-.147.779-.227 1.019-.202.436.055.767.319.988.821l.558 1.257c.123.312.221.502.301.588.037.11.117.178.178.251l1.332-.49-.074-.178c-.196 0-.387-.11-.528-.326-.104-.153-.202-.373-.344-.631l-.436-1.03c-.196-.447-.399-.723-.632-.889-.233-.129-.528-.215-.877-.238.27-.313.466-.626.54-.994.08-.373.043-.79-.135-1.256-.337-.877-.957-1.355-1.829-1.416-.46-.037-.988.061-1.595.275l-3.706 1.319 2.994 7.748 1.086-.398"/><path fill="#009fc5" d="M178.34 292.628l-4.706-6.86 5.167-3.292.571.828-4.234 2.703 1.448 2.096 3.909-2.513.534.803-3.909 2.514 1.595 2.311 4.307-2.753.571.81-5.259 3.353"/><path fill="#009fc5" d="M182.462 280.493l1.35-1.483c.626-.662 1.289-.962 2.013-.877.724.061 1.46.441 2.246 1.128.215.166.405.38.601.619.344.447.546.84.675 1.232.11.491.086.938-.086 1.368-.104.214-.288.465-.565.766l-1.356 1.471-4.878-4.236m7.13 3.23c.957-1.054 1.166-2.188.607-3.469-.325-.693-.822-1.368-1.509-1.956-.865-.766-1.767-1.159-2.718-1.232-1.055-.08-1.951.3-2.731 1.152l-2.301 2.464 6.345 5.53 2.301-2.477"/><path fill="#009fc5" d="M194.508 277.321l-7.302-4.285.595-.943 7.314 4.26-.601.98"/><path fill="#009fc5" d="M197.371 272.347l-7.885-3.151 2.326-5.542.957.368-1.896 4.567 2.375.932 1.773-4.206.908.375-1.755 4.199 2.657 1.078 1.945-4.621.957.361-2.368 5.64"/><path fill="#009fc5" d="M200.989 262.669l-8.296-1.833.276-1.281 7.664-2.587-6.731-1.483.245-1.005 8.296 1.783-.264 1.244-7.676 2.643 6.731 1.453-.239 1.067"/><path fill="#009fc5" d="M200.334 252.146l.104-1.042c.479.013.884-.061 1.19-.226.601-.326.951-.944 1.043-1.858.037-.428.018-.803-.08-1.159-.178-.686-.565-1.067-1.184-1.128-.46-.049-.792.061-1.031.313-.215.288-.442.704-.614 1.293l-.38 1.085c-.245.71-.472 1.201-.718 1.477-.393.516-.945.693-1.651.644-.755-.08-1.368-.38-1.804-.956-.448-.527-.632-1.281-.522-2.213.074-.851.356-1.569.859-2.145.466-.527 1.19-.779 2.117-.681l-.086 1.042c-.454 0-.816.08-1.08.264-.479.264-.742.821-.822 1.637-.068.675.024 1.128.282 1.472.258.288.583.471.963.502.405.037.724-.092.945-.404.16-.215.35-.681.607-1.435l.374-1.14c.184-.527.405-.932.663-1.22.46-.478 1.062-.68 1.816-.625.92.097 1.577.478 1.914 1.177.331.705.46 1.483.38 2.366-.104.999-.43 1.784-1.031 2.311-.601.539-1.35.723-2.258.649"/><path fill="#009fc5" d="M28.359 251.643l.19 1.029c-.46.092-.828.276-1.098.516-.485.453-.65 1.134-.485 2.06.074.392.215.778.393 1.085.368.625.847.876 1.454.778.448-.08.742-.251.884-.569.135-.313.233-.791.264-1.404l.055-1.159c.037-.717.117-1.281.276-1.594.252-.564.724-.913 1.43-1.029.755-.135 1.417.036 1.988.465.577.398.957 1.091 1.098 2.011.178.84.098 1.594-.233 2.274-.319.663-.933 1.067-1.871 1.238l-.184-1.041c.436-.159.761-.313.976-.527.368-.411.479-1.005.337-1.821-.11-.663-.337-1.092-.681-1.306-.337-.252-.675-.35-1.043-.288-.411.061-.681.288-.81.656-.08.245-.141.753-.196 1.532l-.055 1.201c-.031.564-.117 1.03-.307 1.349-.301.588-.81.95-1.552 1.066-.939.159-1.663-.055-2.178-.656-.528-.588-.853-1.293-1.019-2.17-.184-1.042-.049-1.851.368-2.5.423-.668 1.092-1.054 2-1.183"/><path fill="#009fc5" d="M27.835 262.508l8.112-2.44 1.89 5.706-.988.313-1.546-4.689-2.467.742 1.43 4.333-.945.3-1.417-4.346-2.749.821 1.571 4.794-.969.276-1.921-5.811"/><path fill="#009fc5" d="M31.434 272.407l7.461-3.953.798 1.391-5.13 5.419 7.492-1.281.773 1.38-7.443 3.929-.528-.914 4.393-2.31c.16-.093.405-.227.761-.417.35-.159.742-.375 1.135-.577l-7.461 1.269-.546-.969 5.093-5.401-.245.123c-.16.091-.436.227-.81.441-.368.227-.644.368-.822.441l-4.381 2.348-.54-.931"/><path fill="#009fc5" d="M45.334 283.383c-.374-.085-.742-.3-1.104-.674l-1.577-1.624 2.123-1.943 1.589 1.619c.307.3.503.594.607.846.147.484 0 .926-.448 1.342-.405.374-.81.527-1.19.435m-5.995.754l2.602-2.385 1.847 1.87c.595.607 1.203.883 1.841.871.65-.037 1.209-.276 1.7-.742.552-.49.816-1.067.816-1.685-.006-.601-.282-1.165-.792-1.692l-2.651-2.704-6.173 5.664.798.803"/><path fill="#009fc5" d="M46.785 290.755l4.473-7.007 5.289 3.212-.552.834-4.344-2.599-1.344 2.121 3.995 2.421-.515.804-4.001-2.409-1.522 2.372 4.4 2.643-.528.828-5.351-3.219"/><path fill="#009fc5" d="M60.02 289.405l2.688.853c.38.116.657.263.841.429.344.325.436.79.233 1.354-.166.49-.417.809-.81.945-.35.061-.792.061-1.307-.099l-2.534-.809.89-2.673m-2.319 6.884l1.117-3.341 2.503.815c.448.117.773.276.933.441.307.276.399.687.245 1.196l-.374 1.33-.166.638.018.288 1.319.429.08-.19c-.141-.11-.221-.312-.215-.563.031-.154.074-.398.16-.681l.319-1.067c.129-.466.178-.815.061-1.066-.098-.264-.264-.503-.54-.729.417-.074.779-.203 1.086-.43.288-.251.534-.601.681-1.09.301-.889.135-1.631-.528-2.195-.331-.294-.804-.546-1.424-.779l-3.755-1.158-2.626 7.815 1.098.337"/><path fill="#bc715f" d="M69.103 154.054c.969-2.336 9.953-8.705 39.43-5.916 0 0 4.982 3.04 7.909 2.649 1.669-.215-.982.104-3.16-1.705-2.221-1.808-2.694-5.516 2.381-5.418 5.05.129 23.955 1.195 24.311 2.893.331 1.716-9.996 2.434-13.837 2.336-3.86-.104-3.412 1.846.43 1.699 12.002-.429 25.102-4.653 38.939 5.125 1.651 1.189-4.173 1.379-8.676-.534 0 0-12.205.632-17.482-.232 0 0-4.056 3.297-9.339 2.973.687 1.71-1.951 8.092-18.561 3.291-2.743.84-12.738 2.513-11.646-.453-2.632 0-7.247.846-7.934-.65-.663-1.471 8.124-3.696 9.664-5.29 0 0-18.587.178-22.108-1.104 0 0-10.965 2.458-10.321.326"/><path fill="#008737" d="M75.06 180.055c.399-.539.558-1.508 1.405-1.483 1.841.49 3.093 3.855 5.357 1.673.804-.178 1.111.914 1.773 1.043.423 1.87 1.927-.38 3.05-.252 2.399-1.067 5.369-1.318 8.21-.791.086 1.833-1.35 3.856-3.154 4.898.037 1.846 1.712 3.029 1.681 4.886-.288.693-.049 1.784-1.098 2.011-1.332-.239-2.645-.38-3.749-1.122-.135-.135-.245-.398-.528-.313-.135.619.835 1.233 1.215 1.864-.669 1.14-1.779.098-2.712.11-.276.656-.012 1.483-.687 1.906-1.178-.037-1.417-1.317-2.141-1.955-.742.803.522 1.281.7 1.919-.454 2.415-.393 4.775-2.81 6.357l-1.62.804c-.442-1.214-.166-3.053-.46-4.322-.957 1.557-1.706 2.918-3.111 4.236-1.644-.539-2.602-2.477-2.964-4.083-.687-1.87-.295-4.107 1.184-5.462-.503-.981-2.227-.754-2.473-2.151-2.583-1.68-4.013 2.942-5.682.539-.54-2.243.104-5.033 1.73-6.706-.362-.919-1.565-.68-2.276-1.207-1.626-1.38-3.97-2.838-3.853-5.328 4.449-1.679 9.769-.447 13.002 2.93"/><path fill="#ff0" d="M77.368 179.803c-.104 2.035 1.375.551 2.473 1.783-.859-.337-1.485 1.483-2.326.441l-.528.503c.307.698.902.79.282 1.556-.92.349-1.104-.802-1.534-1.257-.074-.202.141-.582-.196-.717-.522.441-1.068.601-1.786.528-.196-.393-.577-.907-.19-1.208.706-.951 1.798.343 2.332-.325.086-.588-.43-1.306.239-1.711.46.08 1.049-.171 1.239.405"/><path fill="#ff0" d="M82.872 181.475c.055.393-.202.944.313 1.22.669-.362 1.381-.086 1.767.576-.006.355.104.821-.362.992l-1.043-.196c.074-.203-.258-.331-.387-.527-.46-.141-.73.232-1.074.459.258.392.853.607.712 1.11-.614.612-.914-.527-1.589-.24-.46-.177.166-1.133-.558-1.422-.859 0-.288 1.409-1.387.858-.393-.442-.779-1.036-.356-1.532.46-.307 1.239-.227 1.632.171.669-.741.736-3.604 2.338-1.471"/><path fill="#ff0" d="M76.017 184.425c.448.644-.098 1.52.472 2.237.896-1.673 1.761.362 2.829.202.325.398.11.951.172 1.404-1.319.349-2.908.766-4.074-.288l-.325.374c.693.644 1.35 1.373.798 2.452-.988.215-2.516.239-3.013-.779-.258-.839.601-1.446-.307-2.121-.657.815-.626 1.907-1.994 1.165-.847-.466-1.098-1.428-.675-2.237.884-1.391 2.43.044 3.387-.638.135-1.195-.307-2.237.792-2.899.939-.166 1.375.539 1.945 1.127"/><path fill="#fff" d="M79.757 185.161c-.442 2.035-1.976-.104-2.694-.19.957-1.697 1.559.552 2.694.19"/><path fill="#fff" d="M84.535 187.376c-1.068.3-.902-1.03-1.43-1.551l.411-.374c.387.466.681 1.306 1.019 1.925"/><path fill="#ff0" d="M83.094 186.963c.307.705-.693 1.27.16 1.784.27-.226.601-.539.742-.668.73.215 1.577.344 2.086 1.067.546 1.496-.969 1.459-1.829 1.876l-.853-.037c.202-.417-.368-.595-.509-.882-.393-.098-.718.024-.939.355.19.951 1.35 1.692.153 2.538-1.012-.067-2.583.325-2.491-1.073-.38-.791 1.031-2.011-.479-2.059-.497 1.067-1.043 2.096-2.338 1.085l.16-1.52c1.239.036 2.706.251 3.264-1.134.356-1.005-.62-1.931.252-2.728 1.264-.288 1.976.558 2.62 1.397"/><path d="M82.186 189.249c.319.755-.54.804-.945 1.177-.546.044-.927-.172-1.258-.539-.245-.913.436-1.005.957-1.366.607-.252.859.453 1.246.729"/><path fill="#fff" d="M81.44 189.742c-.135.178-.325.123-.528.172l-.19-.913c.405.036.933.165.718.741"/></g></g></svg>