<svg xmlns="http://www.w3.org/2000/svg" id="flag-icon-css-sy" width="512" height="512">
  <rect width="512" height="170.67" y="170.67" fill="#fff" fill-rule="evenodd" rx="0" ry="0"/>
  <rect width="512" height="170.67" y="341.33" fill-rule="evenodd" rx="0" ry="0"/>
  <path fill="red" fill-rule="evenodd" d="M0 0h512v170.67H0z"/>
  <path fill="#090" fill-rule="evenodd" d="M151.36 299.73l-30.74-22.26-30.6 22.48 11.38-36.53-30.53-22.55 37.78-.31 11.71-36.42 11.97 36.33 37.78.05-30.38 22.77 11.63 36.44zm285.48 0l-30.74-22.26-30.6 22.48 11.38-36.53-30.53-22.55 37.78-.31 11.71-36.42 11.97 36.33 37.78.05-30.38 22.77 11.63 36.44z"/>
</svg>
