<svg xmlns="http://www.w3.org/2000/svg" xmlns:xlink="http://www.w3.org/1999/xlink" id="flag-icons-sz" viewBox="0 0 512 512">
  <defs>
    <clipPath>
      <path fill-opacity=".7" d="M-85.3 0h682.6v512H-85.3Z"/>
    </clipPath>
  </defs>
  <path fill="#3e5eb9" d="M0 0h512v512H0Z" style="stroke-width:.696743"/>
  <path fill="#ffd900" d="M0 96h512v320H0Z" style="stroke-width:.696743"/>
  <path fill="#b10c0c" d="M0 128h512v256H0Z" style="stroke-width:.696743"/>
  <g fill="#ffd900" stroke="#000" stroke-width="1" transform="translate(-42.4 58.8) scale(.98607)">
    <g id="a">
      <path fill="#fff" d="m492.9 154.3-24.3 8.6 24.2 8.5 24.3-8.5z"/>
      <rect width="357.1" height="5.7" x="122.8" y="160" rx="3.1" ry="2.9"/>
      <path d="M471.4 165.7a3 3 0 0 0 2.9-2.8 3 3 0 0 0-2.9-2.9m-2.8 5.7a3 3 0 0 0 2.8-2.8 3 3 0 0 0-2.8-2.9m-2.9 5.7a3 3 0 0 0 2.9-2.8 3 3 0 0 0-2.9-2.9"/>
    </g>
    <use xlink:href="#a" id="use15" width="100%" height="100%" x="-23.3" y="17.1"/>
    <rect width="485.7" height="8.6" x="59.8" y="195.7" stroke-width="1.1" rx="4.2" ry="4.3"/>
  </g>
  <path fill="#fff" stroke="#000" stroke-width="1" d="M394.2 256c-28.1 28.2-65.7 84.5-140.8 84.5-65.8 0-112.7-56.3-141-84.5 28.3-28.2 75.2-84.5 141-84.5 75 0 112.7 56.3 140.8 84.5z"/>
  <path d="M243.5 200.9c7.5 8.4 1.3 11.8 9.2 12.4 8.4.6 3.6 8.9 10.7 9.2 4.9.2-.5 19.8 4.2 26.3 4.8 6.8 8.9 2 9 6.9 0 5-13.2 4.5-13.4 20-.4 9-11.2 9.6-11.7 15.4-.6 5.4 21.2 8.5 21 13.3-.4 4.9-23.6 4.1-24.7 9.6-.5 5 32 9 34.7 23.4a130 130 0 0 1-29.1 3.1c-65.8 0-112.7-56.3-140.9-84.5 28.2-28.2 75.1-84.5 140.9-84.5 0 0-19.5 17.8-9.9 29.4z" style="stroke-width:.657381"/>
  <g stroke="#fff" transform="translate(-42.4 58.8) scale(.98607)">
    <g id="d" stroke-width="6.9">
      <g id="c">
        <path id="b" d="M214 192.4v-22.9m13.8 0v22.9m13.8-22.9v22.9"/>
        <use xlink:href="#b" id="use26" width="100%" height="100%" x="0" y="38.1"/>
      </g>
      <use xlink:href="#c" id="use29" width="100%" height="100%" x="41.6" y="0"/>
    </g>
  </g>
  <use xlink:href="#d" id="use34" width="100%" height="100%" x="104.8" y="0" stroke="#000" transform="translate(-42.4 58.8) scale(.98607)"/>
  <g fill="#a70000" transform="translate(-42.4 58.8) scale(.65738)">
    <path fill="#3d5da7" stroke="#000" stroke-width="1.3" d="M767 294.9c-6.5 11.2 5-3.7 33 15a27 27 0 0 1 9.7 19.2c-1.3-.9-2.3-2.8-3.7-4-2 2 2 11.3 2.5 15.7-4.4-2.5-4-3.6-5.4-6.6.3 3.6-.8 13.6 1 17.5-3.5-1-3.2-3.8-5-4.3 1.2 4.3-1.1 9-.5 14-2-2-4.2-3.6-5.1-4.4-.2 2.4-3.9 8.5-4 10.7a5.6 5.6 0 0 1-2.4-3.7 74 74 0 0 0-10.2 15.5c-5.8-5.1-20.7-17.6-22.7-24.3-1.7 3.8-4.2 5-9 7.8-2-10.5-9.3-22.3-5.4-31.4a94 94 0 0 0-7.7 5.3c2.6-15.3 15.8-33.1 35-42z" style="fill:#333"/>
    <path d="M742.8 350.6c2.7-5.4 5.2-7.1 7-10.6 3-6 3.5-11 6.1-10.2 2.7.7 2.7 3.2-.8 9.2-3.4 6-5 7.3-12.3 11.6zm18.2 12.8c-.3-4 .9-5.8.7-8.4-.4-4.7-2.3-7.9.2-8.1 2.4-.2 3.6 1.4 3.6 6 0 4.7-.7 6-4.5 10.5zm13.9 8c-1.1-5.7-.3-8.2-1-11.9-1.2-6.5-3.6-10.8-1.3-11.4 2.3-.6 3.7 1.5 4.6 8.1.8 6.6.4 8.4-2.3 15.3zm14.4-40c-3.4-2.6-5.4-2.8-7.6-4.4-3.8-3-5.7-6-7-4.5-1.2 1.5-.3 3.2 3.7 5.9s5.4 2.9 10.9 3zm-2.4 19c-1.8-3.8-3.7-4.7-4.8-7-2-4.3-2-7.9-4.3-7-2.2 1-2.4 2.9 0 7 2.4 4 3.6 4.7 9 7z" style="fill:#b3b3b3"/>
    <path fill="#3d5da7" stroke="#000" stroke-width="1.6" d="M121.2 305.7c-.4-3.2.3-3.6-1.7-6.1 3 1.2 3 4.5 6.6 2.2 1.3-.7 1.9-.7.3-4.4 3.7.2 15.9 4.4 17.8 4.5 5.2.2 14.5-5.4 21 1.5 6.2 6.3 4.1 12.8 4.1 21.5-2.5-1.2-1.3-1.7-4-4.9 2 7.7 0 21.4 0 29.5-1-2-.9-1.1-1.9-3.1-2.6 7.3-5.8 8.8-5.8 17.6-1-3.5 0-2.7-1.1-4.5-2.6 5.6-20 10.4-13.2 16-6-3.5-8.7-3.2-11.4-6.3-1.2.7-2.1 2.2-3.2 4.1-10.6-4.8-6.8-15.3-15.1-22.4-1.5 3-.8 2.6-2.4 7.3-1.6-6.6-2.1-10.8-4-15.7-1.6 2.7-1.5 1.6-4.4 5.7-1.3-8-3.2-10-2.5-15.3-3.1 2.2-1 1.3-4.2 4 3-20.7 15.8-36 25-31.2z" style="fill:#333"/>
    <path d="M108.2 339.6c2.7-6.7 5.1-8.8 6.9-13 3.1-7.6 3.6-13.7 6.2-12.8 2.6 1 2.6 4-.9 11.5-3.5 7.4-5.1 9-12.2 14.3zm10.3 16.7c1-6 2.8-8.1 3.5-12 1.3-6.8.6-11.8 3-11.6 2.4.3 3 2.9 1.4 9.6-1.7 6.8-2.8 8.4-8 14zm12.3 11.7c.3-5.8 1.7-8.1 1.9-11.9.4-6.5-.9-11.2 1.4-11.3 2.3 0 3.2 2.4 2.5 9-.8 6.5-1.6 8.2-5.8 14.2zm26.5-38c-5-5-8-6-11.4-9.3-5.7-5.7-8.5-11-10.6-9.1-2 1.9-.8 4.7 5.3 10.1 6 5.5 8.2 6.3 16.8 8.3zm-3 19.5c-3.3-5-5.8-6.4-7.9-9.7-3.8-5.7-5-10.6-7.2-9.4-2.1 1.2-1.6 3.8 2.4 9.4 4.1 5.5 5.7 6.5 12.7 9.7z" style="fill:#b3b3b3"/>
    <path fill="#3d5da7" stroke="#000" stroke-width="1.2" d="M380.7 194.3c-6 11.4 10.4-3.9 36 15.4a44.2 44.2 0 0 1 11.5 24.2 77.1 77.1 0 0 1-15-6.6s11.3 11.4 11.3 24.5c-4-2.5-6-2.2-7.4-5.2 0 4.2 3.6 6.9 3.6 13.4a53 53 0 0 0-7.8-5.2c3.8 6.6-6.9 19.3-1.5 23.5a33.3 33.3 0 0 1-22.7-13.8c-2 1.3-2.2 3.4-2.3 5.7.3.2-14.2-10.8-12.8-15-2 2.7-2.3 4.2-2.7 7.3a39.6 39.6 0 0 1-12-17.3c-2.3 3-2.5 3-4.9 6.2-1.7-10.8-1.7-10.4 1.8-19.6a86.2 86.2 0 0 0-7 5.3 62.5 62.5 0 0 1 31.9-42.8z" style="fill:#333"/>
    <path d="M366 250.3c1-7.9 3-10.8 3.7-16 1.1-8.9-.2-15.5 3-15.3 3.1.2 4 3.5 2.5 12.4-1.6 9-3 11.1-9.1 19zm16.6 14.5c-.6-6.6.6-9.5.2-13.8-.7-7.5-3-12.7-.3-13.1 2.8-.5 4.2 2 4.5 9.7.3 7.6-.4 9.6-4.4 17.2zm26 11.9c-2.9-5.8-5.3-7.5-7.1-11.3-3.2-6.5-4-11.8-6.4-10.9-2.5 1-2.3 3.8 1.2 10.2 3.6 6.4 5.2 7.7 12.2 12zm8.9-51.8c-7.2-3.7-10.9-3.8-15.5-6.2-8.1-4.3-12.9-9-14.5-6.4-1.7 2.6.5 5.2 8.9 9.1 8.4 3.9 11 4 21 3.5zm2.6 21.6c-5.2-4.3-8.3-5-11.7-7.7-6-5-8.9-9.7-10.8-7.8-2 2-.7 4.5 5.5 9.1 6.2 4.7 8.4 5.2 17 6.4z" style="fill:#b3b3b3"/>
  </g>
</svg>
