<svg xmlns="http://www.w3.org/2000/svg" id="flag-icon-css-sz" width="512" height="512">
  <defs>
    <clipPath id="a">
      <path fill-opacity=".67" d="M124.02 0h496.06v496.06H124.02z"/>
    </clipPath>
  </defs>
  <g clip-path="url(#a)" transform="translate(-128) scale(1.0321)">
    <path fill="#3e5eb9" fill-rule="evenodd" d="M0 0h744.09v496.06H0z"/>
    <path fill="#ffd900" fill-rule="evenodd" d="M0 88.58h744.09v318.9H0z"/>
    <path fill="#b10c0c" fill-rule="evenodd" d="M0 124.02h744.09v248.03H0z"/>
    <rect width="602.36" height="10.63" x="74.18" y="242.72" fill="#ffd900" fill-rule="evenodd" stroke="#000" stroke-width="1.34" rx="5.24" ry="5.32"/>
    <g stroke="#000" transform="translate(-609.45 -24.8)">
      <path fill="#fff" fill-rule="evenodd" stroke-width="3.91" d="M-106.3 265.75l-88.58 35.43 88.58 35.44 88.58-35.44-88.58-35.43z" transform="matrix(.34 0 0 .3 1256.8 136.42)"/>
      <rect width="442.91" height="7.09" x="761.81" y="223.23" fill="#ffd900" fill-rule="evenodd" stroke-width="1.25" rx="3.85" ry="3.54"/>
      <path fill="none" stroke-width="2.5" d="M1224.4 279.92c-3.54 0-7.09-3.54-7.09-7.09s3.55-7.08 7.09-7.08" transform="matrix(-.50001 0 0 .5 1806.3 90.35)"/>
      <path fill="none" stroke-width="2.5" d="M1224.4 279.92c-3.54 0-7.09-3.54-7.09-7.09s3.55-7.08 7.09-7.08" transform="matrix(-.50001 0 0 .5 1802.8 90.35)"/>
      <path fill="none" stroke-width="2.5" d="M1224.4 279.92c-3.54 0-7.09-3.54-7.09-7.09s3.55-7.08 7.09-7.08" transform="matrix(-.50001 0 0 .5 1799.2 90.36)"/>
    </g>
    <g stroke="#000" transform="translate(-637.8 -3.54)">
      <path fill="#fff" fill-rule="evenodd" stroke-width="3.91" d="M-106.3 265.75l-88.58 35.43 88.58 35.44 88.58-35.44-88.58-35.43z" transform="matrix(.34 0 0 .3 1256.8 136.42)"/>
      <rect width="442.91" height="7.09" x="761.81" y="223.23" fill="#ffd900" fill-rule="evenodd" stroke-width="1.25" rx="3.85" ry="3.54"/>
      <path fill="none" stroke-width="2.5" d="M1224.4 279.92c-3.54 0-7.09-3.54-7.09-7.09s3.55-7.08 7.09-7.08" transform="matrix(-.50001 0 0 .5 1806.3 90.35)"/>
      <path fill="none" stroke-width="2.5" d="M1224.4 279.92c-3.54 0-7.09-3.54-7.09-7.09s3.55-7.08 7.09-7.08" transform="matrix(-.50001 0 0 .5 1802.8 90.35)"/>
      <path fill="none" stroke-width="2.5" d="M1224.4 279.92c-3.54 0-7.09-3.54-7.09-7.09s3.55-7.08 7.09-7.08" transform="matrix(-.50001 0 0 .5 1799.2 90.36)"/>
    </g>
    <g fill-rule="evenodd" stroke-width="1pt">
      <path fill="#3d5da7" stroke="#000" d="M338.07-.42c-5.57 12.45 4.28-4.13 28.3 16.7 4.45 3.86 8.34 14.08 8.34 21.17-1.13-.97-1.97-3.14-3.21-4.55-1.75 2.25 1.66 12.58 2.16 17.46-3.76-2.71-3.4-4-4.64-7.33.25 4.03-.65 15.12.85 19.39-2.96-1.1-2.77-4.16-4.31-4.78 1.05 4.83-.92 10.1-.4 15.53-1.73-2.21-3.57-3.94-4.37-4.83-.14 2.59-3.33 9.39-3.4 11.83-1.47-1.14-1.87-2.92-2.12-4.12-1.82 2.95-8.3 13.87-8.72 17.2-5-5.7-17.8-19.55-19.46-26.9-1.47 4.17-3.6 5.58-7.81 8.63-1.67-11.66-7.9-24.76-4.57-34.75-2.35 1.8-4.3 3.61-6.66 5.83C310.3 29.18 321.68 9.4 338.07-.42z" transform="matrix(.96345 0 0 .74716 308.45 244.12)"/>
      <path fill="#a70000" d="M614.14 289.85c2.23-4.45 4.28-5.87 5.72-8.73 2.55-5.04 2.9-9.06 5.12-8.47 2.22.59 2.22 2.66-.65 7.61-2.87 4.96-4.24 6.02-10.19 9.6zm15.08 10.61c-.29-3.39.7-4.8.51-7-.3-3.83-1.87-6.47.17-6.66 2.04-.19 3 1.12 3 5 .01 3.87-.59 4.89-3.68 8.66zm11.43 6.65c-.89-4.73-.22-6.83-.8-9.88-.99-5.37-2.96-8.9-1.06-9.4 1.9-.49 3.04 1.25 3.75 6.7.72 5.44.34 6.93-1.89 12.58zm11.9-33.18c-2.8-2.12-4.43-2.26-6.23-3.62-3.17-2.4-4.78-4.95-5.8-3.68-1.02 1.27-.3 2.66 3.03 4.86 3.32 2.21 4.45 2.38 9 2.44zm-1.97 15.73c-1.48-3.06-3.03-3.84-3.98-5.8-1.68-3.46-1.68-6.45-3.5-5.68-1.84.76-1.98 2.33-.03 5.67 1.95 3.35 2.97 3.95 7.5 5.8z"/>
    </g>
    <g fill-rule="evenodd" stroke-width="1pt">
      <path fill="#3d5da7" stroke="#000" d="M329.6 20.7c-.27-2.66.25-2.98-1.26-4.99 2.2 1 2.29 3.65 4.96 1.77.98-.55 1.41-.57.22-3.53 2.79.14 11.93 3.54 13.39 3.62 3.84.19 10.85-4.37 15.72 1.24 4.67 5.12 3.11 10.43 3.11 17.51-1.87-.97-.97-1.45-2.96-3.99 1.5 6.2-.08 17.37-.08 23.94-.77-1.58-.66-.9-1.4-2.54-2 6-4.39 7.23-4.39 14.32-.71-2.78-.02-2.2-.82-3.65-1.94 4.55-14.93 8.44-9.92 13.03-4.52-2.87-6.5-2.57-8.55-5.15-.88.62-1.58 1.78-2.4 3.39-7.95-3.96-5.1-12.5-11.33-18.21-1.08 2.4-.58 2.04-1.75 5.94-1.26-5.4-1.6-8.85-3.02-12.82-1.22 2.2-1.11 1.36-3.33 4.69-.92-6.59-2.42-8.14-1.82-12.5-2.36 1.8-.82 1.07-3.18 3.3 2.24-16.89 11.89-29.36 18.81-25.37z" transform="matrix(1.1018 0 0 1.01684 -262.97 231.72)"/>
      <path fill="#a70000" d="M89.42 280.78c2.25-5.52 4.29-7.26 5.74-10.81 2.58-6.26 3-11.26 5.16-10.5 2.16.77 2.12 3.34-.77 9.49-2.9 6.14-4.24 7.44-10.13 11.82zm8.54 13.83c.9-4.95 2.33-6.76 2.91-9.95 1.04-5.61.46-9.79 2.47-9.57 2.01.22 2.47 2.34 1.13 7.92-1.34 5.58-2.26 6.9-6.51 11.6zm10.2 9.61c.26-4.8 1.39-6.68 1.56-9.77.3-5.44-.75-9.34 1.17-9.36 1.92-.02 2.6 1.94 2.01 7.38-.58 5.45-1.3 6.81-4.73 11.75zm21.94-31.4c-4.2-4.18-6.73-4.96-9.43-7.65-4.77-4.72-7.07-9.15-8.77-7.58-1.7 1.57-.67 3.92 4.34 8.42 5.02 4.49 6.76 5.14 13.86 6.8zm-2.55 16.14c-2.73-4.2-4.74-5.28-6.5-7.98-3.11-4.74-4.18-8.82-5.94-7.81-1.77 1.01-1.37 3.14 2 7.74s4.72 5.44 10.44 8.05z"/>
    </g>
    <g fill-rule="evenodd">
      <path fill="#fff" stroke="#000" stroke-width="1.98" d="M637.8 230.32c-53.15 59.05-124.02 177.16-265.75 177.16-124.02 0-212.6-118.11-265.75-177.16 53.15-59.06 141.73-177.17 265.75-177.17 141.73 0 212.6 118.11 265.75 177.17z" transform="matrix(.66667 0 0 .6 124.02 109.84)"/>
      <path d="M359.69 178.7c9.42 10.61 1.55 14.89 11.53 15.58 10.52.77 4.56 11.2 13.41 11.57 6.19.27-.62 24.99 5.34 33.15 6.07 8.5 11.15 2.49 11.26 8.63.1 6.36-16.52 5.71-16.81 25.29-.49 11.28-14.03 12-14.67 19.26-.8 6.83 26.67 10.66 26.3 16.77-.37 6.1-29.66 5.14-30.94 12.09-.65 6.24 40.24 11.35 43.53 29.4-6.1 2-23.46 3.88-36.59 3.89-82.67.07-141.73-70.87-177.16-106.3 35.43-35.43 94.48-106.3 177.16-106.3 0 0-24.54 22.43-12.36 36.98z"/>
      <path fill="#fff" stroke-width="1pt" d="M261.03 210.24h8.59v28.35h-8.59zm0 47.24h8.59v28.35h-8.59zm17.18-47.24h8.59v28.35h-8.6zm0 47.24h8.59v28.35h-8.6zm17.18-47.24h8.59v28.35h-8.6zm0 47.24h8.59v28.35h-8.6zm17.18-47.24h8.59v28.35h-8.6zm0 47.24h8.59v28.35h-8.6zm17.18-47.24h8.59v28.35h-8.6zm0 47.24h8.59v28.35h-8.6zm17.17-47.24h8.6v28.35h-8.6zm0 47.24h8.6v28.35h-8.6z"/>
      <path stroke-width="1pt" d="M390.95 210.24h8.59v28.35h-8.59zm0 47.24h8.59v28.35h-8.59zm17.18-47.24h8.59v28.35h-8.6zm0 47.24h8.59v28.35h-8.6zm17.18-47.24h8.59v28.35h-8.6zm0 47.24h8.59v28.35h-8.6zm17.18-47.24h8.59v28.35h-8.6zm0 47.24h8.59v28.35h-8.6zm17.18-47.24h8.59v28.35h-8.6zm0 47.24h8.59v28.35h-8.6zm17.17-47.24h8.6v28.35h-8.6zm0 47.24h8.6v28.35h-8.6z"/>
    </g>
    <g fill-rule="evenodd" stroke-width="1pt">
      <path fill="#3d5da7" stroke="#000" d="M338.07-.42c-5.57 12.45 9.75-4.13 33.78 16.7 4.45 3.86 10.83 19.15 10.83 26.24-5.11-1.26-14.17-7.09-14.17-7.09s10.63 12.3 10.63 26.47c-3.76-2.7-5.64-2.3-6.88-5.63 0 4.58 3.34 7.5 3.34 14.6a49.8 49.8 0 0 0-7.3-5.63c3.54 7.09-6.46 20.84-1.46 25.42-8.75-1.46-17.7-7.92-21.25-15-1.87 1.46-2.08 3.75-2.15 6.2.27.27-13.32-11.65-12.07-16.23-1.83 2.95-2.09 4.58-2.5 7.9-5-5.68-9.58-11.37-11.24-18.73-2.22 3.33-2.36 3.33-4.58 6.66-1.67-11.65-1.67-11.24 1.66-21.23-2.35 1.8-4.3 3.61-6.66 5.83 2.24-16.88 13.63-36.67 30.02-46.48z" transform="matrix(.8811 0 0 .76298 16.87 160.92)"/>
      <path fill="#a70000" d="M302.65 207c.79-6.55 2.5-9.01 3-13.23.92-7.4-.16-12.82 2.46-12.68 2.63.13 3.38 2.87 2.09 10.26s-2.4 9.19-7.55 15.64zm13.7 11.97c-.53-5.52.5-7.87.15-11.42-.58-6.26-2.51-10.5-.22-10.89 2.29-.39 3.44 1.71 3.69 8.03.25 6.31-.37 8-3.62 14.28zm21.4 9.77c-2.33-4.78-4.33-6.2-5.83-9.27-2.65-5.4-3.2-9.82-5.25-9.02-2.05.8-1.94 3.08 1.02 8.37 2.96 5.29 4.3 6.37 10.06 9.92zm7.4-42.77c-5.93-3.12-8.97-3.16-12.8-5.16-6.72-3.52-10.63-7.49-12.02-5.3-1.39 2.18.46 4.35 7.4 7.55 6.93 3.2 9.06 3.34 17.41 2.9zm2.17 17.86c-4.32-3.59-6.87-4.12-9.65-6.43-4.9-4.05-7.34-8.03-8.98-6.41-1.64 1.6-.54 3.74 4.6 7.56 5.15 3.81 6.9 4.29 14.03 5.28z"/>
    </g>
  </g>
</svg>
