<svg xmlns="http://www.w3.org/2000/svg" height="512" width="512" version="1">
    <g clip-path="url(#a)">
        <path fill="#006" d="M1024 512v-512h-1024v512h1024z"/>
        <g>
            <path fill-rule="evenodd" fill="#006" d="M0 0h512v256h-512z"/>
            <g>
                <path fill="#fff" d="M0 0v28.621l454.741 227.37h57.239v-28.62l-454.741-227.37h-57.239zm511.98 0v28.62l-454.741 227.37h-57.239v-28.62l454.741-227.37h57.239z"/>
                <path fill="#fff" d="M213.325 0v255.99h85.33v-255.99h-85.33zm-213.325 85.33v85.33h511.98v-85.33h-511.98z"/>
                <path fill="#c00" d="M0 102.396v51.198h511.98v-51.198h-511.98zm230.391-102.396v255.99h51.198v-255.99h-51.198z"/>
                <path fill="#c00" d="M0 255.99l170.66-85.33h38.16l-170.66 85.33h-38.16zm0-255.99l170.66 85.33h-38.16l-132.5-66.249v-19.081zm303.16 85.33l170.66-85.33h38.16l-170.66 85.33h-38.16zm208.82 170.66l-170.66-85.33h38.16l132.5 66.25v19.08z"/>
            </g>
        </g>
        <g>
            <path fill-opacity=".996" fill="#fff" d="M493.562 140.875v116.485c0 95.634-37.564 183.176-149 236.39-111.391-53.213-148.959-140.753-148.959-236.39v-116.485h298.014z"/>
            <path fill-opacity=".996" fill="#fdc300" d="M483.578 152.746v108.648c0 89.199-35.037 170.854-138.976 220.484-103.943-49.632-138.976-131.284-138.976-220.484v-108.648h277.965z"/>
            <g stroke="#000" stroke-width=".063">
                <path d="M279.884 200.382c-2.011-1.509-4.194-2.431-7.208-2.515.667-7.378-4.695-10.564-8.553-11.905-3.852-1.342-5.197-2.851-5.863-5.869-.672-3.018-2.684-4.862-6.205-5.868-3.521-1.006-6.541-4.527-7.88-6.205-1.339-1.677-1.846-1.342-2.849 1.509-1.009 2.851-5.031 8.216-1.345 8.384-2.678 2.179-4.188 4.695-2.513 8.048-1.846 1.509-3.185 3.689-.672 4.527 2.519.838 3.185 1.509 3.356 2.18-2.262 0-2.849 4.527 2.513 5.533-1.174.168-1.675 3.857.507 3.857-3.02 0-5.538 4.528-9.39 4.528-3.858 0-5.869.838-6.034 2.515-.171 1.677-2.182 3.688-3.185 4.527 2.849.335 4.689 0 6.199-1.174s4.023-1.509 5.704-.168c1.675 1.342 5.197 2.012 6.872 1.677-3.687 2.516-6.37 5.869-6.707 9.055-.336 3.186-2.513 6.875-5.031 7.881-2.513 1.006-5.863 3.689-7.037 6.875 3.185 7.881 7.704 9.827 12.234 11.905 8.051 3.69 13.077 6.372 16.433 10.061 3.35 3.689 4.695 1.006 9.721 7.377 5.031 6.372 9.726 18.445 14.752 20.457 5.031 2.012 11.402.671 15.088-5.701 3.692-6.371 6.04-70.759-12.906-81.49z" fill="#ff9e3d"/>
                <path d="M288.431 173.551c-4.695 5.031-10.735 10.061-9.726 19.116s2.011 23.81-6.37 28.84c-8.382 5.031-12.405 17.774-2.348 25.151 10.057 7.378 10.393 16.433 12.068 24.817 1.681 8.384 6.04 15.09 12.746 9.39 6.701 1.006 10.393-1.677 10.393-7.042s.336-8.384 5.362-10.061c5.031-1.677 6.37-3.354 8.718-7.881s3.687-6.54 2.348-9.223c-1.339-2.683-1.846-8.216-.838-12.24 1.009-4.024-1.339-6.204-2.684-8.719-1.339-2.515-1.84-4.695-1.174-8.049.672-3.354-1.003-5.533-3.35-7.21-2.348-1.677-3.356-3.353-2.849-6.036.501-2.683-1.681-4.359-4.194-6.371s-4.359-4.695-4.359-8.719c0-4.025-7.709-13.415-13.744-15.762z" fill="#ff927f"/>
                <path d="M290.311 283.046c11.231-2.851 10.228-21.295 8.553-29.008-1.681-7.714-5.989-18.761-2.684-27.499 4.695-12.408-5.704-24.146-3.02-28.84 2.684-4.695 2.348-7.21 2.011-8.719-.33-1.509-2.849-2.683-3.014.503-.171 3.186-1.009 4.359-3.02 6.371s-1.51 6.371 0 11.234c1.51 4.862 4.695 12.241-.336 21.966-5.026 9.725-2.957 14.059-1.003 18.612 3.014 7.042 10.228 31.523 2.513 35.38z" fill="#ff9ee1"/>
                <path d="M239.998 177.911c1.259 0 3.692-.504 3.692 1.173" fill="none"/>
                <path d="M237.491 185.958c1.51-1.09 4.194.168 6.872-1.425" fill="none"/>
                <path d="M240.169 192.666c2.011 0 4.695-.084 7.208-2.096" fill="none"/>
                <path d="M242.676 198.199c1.846 0 5.282-1.173 6.12-3.605" fill="none"/>
                <path d="M243.189 202.058c3.601-.168 8.382 1.174 9.048-.084" fill="none"/>
                <path d="M243.36 213.963c2.513-2.347 8.467-3.94 9.806-6.371" fill="none"/>
                <path d="M249.742 176.572c4.188 1.342 2.456 3.933 4.524 5.534 3.692 2.851.336 6.036 3.356 6.875 3.014.838 2.963 1.348 2.177 4.695-.923 3.941 2.849 4.108 1.51 6.707" fill="none"/>
                <path d="M272.705 197.869c-1.675 0-6.621.168-8.718 4.611" fill="none"/>
                <path d="M236.921 246.242c1.932.336 2.895-.763 3.436-1.844.587-1.174.838-2.012 2.598-2.096 1.761-.084 4.444-.587 5.031-1.929.587-1.341 2.684-.084 4.444-3.605 1.761-3.521 2.934-7.713 7.624-9.222" fill="none"/>
            </g>
            <g stroke="#000" stroke-width=".063">
                <path d="M369.912 319.508c1.897 2.757-.068 5.738 3.151 6.93 3.772 1.396.479 6.358 4.929 8.106 3.943 1.551.028 6.295 4.291 8.425 3.812 1.907-.638 6.358 4.45 8.902 5.083 2.543-.957 8.265 2.86 10.491 3.812 2.225-1.271 7.948 3.179 10.173 4.45 2.225-1.909 6.676 2.222 9.855 4.131 3.179-.952 7.947 3.179 10.809s-2.536 6.682 1.59 10.809c3.179 3.179-1.145 6.292 1.271 11.127 1.59 3.179-1.59 15.896-10.49 14.624-3.179 5.405-15.573 10.173-20.023 8.584-4.45 3.179-18.752 7.63-26.068.636-7.305 6.994-21.613 2.543-26.063-.636-4.45 1.589-16.843-3.179-20.023-8.584-8.9 1.272-12.08-11.445-10.49-14.624 2.416-4.834-1.909-7.948 1.271-11.127 4.125-4.127-2.541-7.948 1.59-10.809s-.952-7.63 3.179-10.809c4.131-3.179-2.228-7.63 2.222-9.855 4.45-2.225-.632-7.948 3.179-10.173 3.818-2.225-2.222-7.948 2.86-10.491 5.088-2.543.638-6.994 4.45-8.902 4.262-2.13.348-6.874 4.291-8.425 4.45-1.748 1.157-6.71 4.929-8.106 3.271-1.211 1.185-4.268 3.248-7.062 9.464 3.724 38.763 6.396 50.815.132z" fill="#00a728"/>
                <g fill-opacity=".996" fill="#fdc300">
                    <path d="M322.904 336.138c.006 1.428-.028 2.849-1.35 4.61-2.86 3.815 1.271 5.723-1.909 9.855-3.174 4.133.638 6.676-2.86 10.173-3.493 3.497.638 6.676-2.86 10.491-3.493 3.815.638 6.358-2.86 9.855-3.493 3.497.638 7.312-2.86 10.809-3.493 3.497.638 7.948-3.179 12.081-3.812 4.132.638 7.311-2.541 10.491-3.179 3.179-.319 6.358-2.541 8.583 3.812-2.861 3.812-7.311 6.672-9.537 2.86-2.226-.952-5.405.638-6.994s.319-8.266 3.179-11.445c2.86-3.179.319-9.537 2.86-11.763s.632-8.901 3.812-11.127 0-7.63 2.541-10.491l2.547-10.809c2.541-3.497.114-6.672 1.903-9.537.798-1.271.798-10.491-1.191-5.246z"/>
                    <path d="M332.078 340.11c-2.222 4.133 1.59 5.086-1.271 9.219s1.59 7.312-1.59 11.445 1.59 6.358-1.271 10.491c-2.86 4.132 1.271 6.358-1.271 9.537-2.547 3.179 1.903 6.358-1.271 10.173-3.179 3.815 1.271 6.676-1.276 10.173-2.541 3.497.957 7.312-1.271 10.173-2.222 2.861 1.59 6.994-1.59 10.809s.638 6.358-1.271 8.902c3.818-1.272 2.387-6.517 3.818-7.63 1.43-1.113-.479-8.425 1.744-10.332 2.228-1.907-1.43-7.792.638-10.332 3.499-4.291.479-7.153 2.541-10.491 2.068-3.338-.786-7.624.798-9.855 2.701-3.815-1.197-7.254.792-10.014 2.86-3.974-.553-7.246 1.43-9.855 3.02-3.974-.319-7.948.957-10.014 1.271-2.066 3.333-10.968-.638-12.398z"/>
                    <path d="M344.442 343.581c-2.222 5.539 1.59 7.755.319 12.186-1.271 4.432 1.59 7.755-.319 12.555-1.903 4.801 2.547 8.493 0 14.771-2.541 6.278 1.641 7.841 0 14.033-1.903 7.202 3.179 11.017 0 16.104-3.174 5.086 3.641 6.77.319 12.08-1.59 2.543.16 9.061 2.701 1.272 2.547-7.789-1.903-8.742.319-11.922 2.228-3.179-.792-11.604.16-16.055.957-4.451-2.222-10.491-.16-15.26 2.068-4.768-3.179-9.855-1.111-13.988 2.068-4.132-.952-9.219.952-12.557 1.909-3.338-1.43-7.789-.632-9.696.792-1.907-.798-8.954-2.547-3.524z"/>
                </g>
                <path d="M368.26 323.258c0-35.924-5.083-48.322-23.84-48.322-18.752 0-23.835 12.398-23.835 48.322h47.675z" fill="#ef072d"/>
                <g fill="none">
                    <path d="M327.576 320.397c-3.499 3.497.638 6.04-2.86 10.173-3.499 4.133-.319 6.358-3.179 10.173s1.271 5.723-1.909 9.855c-3.174 4.133.638 6.676-2.86 10.173-3.493 3.497.638 6.676-2.86 10.491-3.493 3.815.638 6.358-2.86 9.855-3.493 3.497.638 7.312-2.86 10.809-3.493 3.497.638 7.948-3.179 12.081-3.812 4.132.638 7.311-2.541 10.491-3.179 3.179-.319 6.358-2.541 8.583-2.228 2.225-2.541 5.326-1.59 6.676"/>
                    <path d="M334.243 321.668c-3.174 4.133 1.59 6.04-1.271 9.537-2.86 3.497 1.271 4.769-.952 8.902s1.59 5.086-1.271 9.219 1.59 7.312-1.59 11.445 1.59 6.358-1.271 10.491c-2.86 4.132 1.271 6.358-1.271 9.537-2.547 3.179 1.903 6.358-1.271 10.173-3.179 3.815 1.271 6.676-1.276 10.173-2.541 3.497.957 7.312-1.271 10.173-2.222 2.861 1.59 6.994-1.59 10.809s.638 6.358-1.271 8.902c-1.909 2.543-3.413 6.279-1.59 7.312"/>
                    <path d="M344.442 325.487c-1.584 6.647 2.228 12.555 0 18.094-2.222 5.539 1.59 7.755.319 12.186-1.271 4.432 1.59 7.755-.319 12.555-1.903 4.801 2.547 8.493 0 14.771-2.541 6.278 1.641 7.841 0 14.033-1.903 7.202 3.179 11.017 0 16.104-3.174 5.086 2.866 6.358.319 12.08-2.541 5.723 1.59 7.948-.319 13.671"/>
                    <path d="M361.308 320.397c3.499 3.497-.638 6.04 2.86 10.173 3.499 4.133.319 6.358 3.179 10.173s-1.271 5.723 1.909 9.855c3.174 4.133-.638 6.676 2.86 10.173 3.493 3.497-.638 6.676 2.86 10.491 3.493 3.815-.638 6.358 2.86 9.855 3.493 3.497-.638 7.312 2.86 10.809 3.493 3.497-.638 7.948 3.179 12.081 3.812 4.132-.638 7.311 2.541 10.491 3.179 3.179.319 6.358 2.541 8.583 2.228 2.225 2.547 5.326 1.59 6.676"/>
                    <path d="M354.642 321.668c3.174 4.133-1.59 6.04 1.271 9.537 2.86 3.497-1.271 4.769.952 8.902 2.228 4.133-1.59 5.086 1.271 9.219s-1.59 7.312 1.59 11.445-1.59 6.358 1.271 10.491c2.86 4.132-1.271 6.358 1.271 9.537 2.547 3.179-1.903 6.358 1.276 10.173 3.174 3.815-1.276 6.676 1.271 10.173 2.541 3.497-.957 7.312 1.271 10.173 2.222 2.861-1.59 6.994 1.59 10.809s-.638 6.358 1.271 8.902c1.909 2.543 3.419 6.279 1.59 7.312"/>
                </g>
                <path d="M320.625 323.258c0-35.924 5.083-48.322 23.835-48.322-8.581 0-13.823 6.675-15.254 11.126s-.638 4.133 1.271 2.384.952 2.066-.632 4.133c-1.59 2.066-3.179 7.948-.957 6.04 2.228-1.907 3.972.318 1.59 3.656s-4.45 11.127-2.068 8.425c2.387-2.702 2.86 1.748 1.436 3.974-1.436 2.225-1.276 4.132 0 3.179 1.271-.953 1.111 3.656-.16 5.404h-9.06z"/>
                <path d="M364.613 321.195c0-28.135-3.493-36.56-10.484-39.421-3.96-1.623-4.074-1.271-2.182 1.271s1.601 6.199-.148 3.656c-1.744-2.543-2.325-3.02-3.054-1.907-.729 1.112 2.034 6.358 4.074 11.127 1.641 3.835.581 5.722-1.892 1.907s-2.473-.359-.302 2.861c2.786 4.133 2.701 16.69 2.701 21.935l11.288-1.43z"/>
                <path d="M344.442 328.507c7.47 0 15.647-1.331 21.14-3.464 6.519-2.531 6.866-4.755 4.61-7.594-1.59-1.999-5.088-.799-8.422.666-3.339 1.465-12.558 2.398-17.328 2.398-4.764 0-13.983-.933-17.322-2.398-3.333-1.465-6.832-2.665-8.422-.666-2.256 2.839-1.909 5.063 4.61 7.594 5.487 2.133 13.67 3.464 21.134 3.464z" fill="#ef072d"/>
            </g>
            <g fill-rule="evenodd" fill="#b95a1e">
                <path d="M779.41 912.6s-.12 103.6 0 179.24c.12 75.63 19.822 104.91 54.262 103.59 34.44-1.33 41.108-58.83 34.531-92.08-6.577-33.26-53.24-198.97-53.24-198.97l-35.553 8.222z" transform="matrix(.077 -.05 .048 .082 314.447 245.698)" stroke="#000" stroke-width="4.375"/>
                <path d="M779.41 912.6s-.12 103.6 0 179.24c.12 75.63 19.822 104.91 54.262 103.59 34.44-1.33 41.108-58.83 34.531-92.08-6.577-33.26-53.24-198.97-53.24-198.97l-35.553 8.222z" transform="matrix(.088 -.02 .018 .093 330.446 211.958)" stroke="#000" stroke-width="4.375"/>
                <path d="M779.41 912.6s-.12 103.6 0 179.24c.12 75.63 19.822 104.91 54.262 103.59 34.44-1.33 41.108-58.83 34.531-92.08-6.577-33.26-53.24-198.97-53.24-198.97l-35.553 8.222z" transform="matrix(.091 0 0 .096 344.03 194.88)" stroke="#000" stroke-width="4.375"/>
                <path d="M779.53 255.12c159.57-1.394 177.16-35.432 177.16-35.432s35.43-70.866 17.716-88.584c-17.717-17.716-194.88-17.716-194.88-17.716v141.73z" transform="matrix(.056 0 0 .096 370.855 257.565)" stroke="#000" stroke-width="5.554"/>
                <path d="M779.53 255.12c106.3 0 124.02-35.432 124.02-35.432s35.43-70.866 17.716-88.584c-17.717-17.716-141.73-17.716-141.73-17.716v141.73z" transform="matrix(.091 0 0 .096 344.03 250.786)" stroke="#000" stroke-width="4.375"/>
                <path d="M779.53 255.12c88.583 0 141.73-35.433 141.73-35.433s35.43-70.866 17.716-88.584c-17.72-17.72-159.45-17.71-159.45-17.71v141.73z" transform="matrix(.091 0 0 .096 344.03 244.006)" stroke="#000" stroke-width="4.375"/>
                <path d="M832.68 113.39s70.866-88.583 194.88-177.17c124.01-88.582 213.73-156.72 230.31-141.73 0 17.717-106.3 106.3-194.88 177.17-88.59 70.86-194.89 177.16-194.89 177.16l-35.433-35.433z" transform="matrix(.113 0 0 .096 326.425 195.076)" stroke="#000" stroke-width="3.927"/>
                <path d="M832.68 113.39s70.05-52.025 204.38-124.02c132.23-63.918 318.89-53.15 318.89-35.433-17.71 17.716-177.16 17.716-283.46 70.866-101.48 50.729-204.39 124.01-204.39 124.01l-35.433-35.433z" transform="matrix(.113 0 0 .096 327.356 201.856)" stroke="#000" stroke-width="3.927"/>
                <path d="M832.68 113.39s61.675-35.068 204.38-88.583c141.72-53.15 329.87-17.717 329.87 0-17.7 17.713-170.4 6.944-276.7 35.429-109.99 27.758-222.09 88.584-222.09 88.584l-35.433-35.433z" transform="matrix(.113 0 0 .096 327.442 213.527)" stroke="#000" stroke-width="3.927"/>
                <path d="M832.68 113.39s71.079-70.976 222.47-88.583c152.3-17.72 276.3 88.583 276.3 106.29-17.7 17.72-159.5-77.972-265.7-64.286-112.67 13.654-197.69 82.006-197.69 82.006l-35.433-35.433z" transform="matrix(.113 0 0 .096 328.202 225.371)" stroke="#000" stroke-width="3.927"/>
                <path d="M779.53 255.12c159.57-1.394 159.45-45.508 159.45-45.508s35.43-70.866 17.716-88.584c-17.717-17.716-177.16-7.64-177.16-7.64v141.73z" transform="matrix(.091 0 0 .096 344.03 235.546)" stroke="#000" stroke-width="4.375"/>
                <path d="M779.53 255.12c159.57-1.394 177.16-35.432 177.16-35.432s35.43-70.866 17.716-88.584c-17.717-17.716-194.88-17.716-194.88-17.716v141.73z" transform="matrix(.091 0 0 .096 344.03 228.767)" stroke="#000" stroke-width="4.375"/>
                <path d="M779.53 255.12c159.57-1.394 194.88-35.433 194.88-35.433s35.43-70.866 17.716-88.583c-17.717-17.716-212.6-17.716-212.6-17.716v141.73z" transform="matrix(.091 0 0 .096 344.03 220.295)" stroke="#000" stroke-width="4.375"/>
                <path d="M779.53 255.12c159.57-1.394 212.6-35.433 212.6-35.433s17.714-70.866 0-88.583c-17.717-17.716-212.6-17.716-212.6-17.716v141.73z" transform="matrix(.091 0 0 .096 344.03 211.823)" stroke="#000" stroke-width="4.375"/>
                <path d="M832.68 113.39s114.21-88.583 114.21-159.45c0-70.866-50.349-141.73-64.625-177.17 28.552 0 93.176 106.3 93.176 177.17 0 77.444-107.32 194.88-107.32 194.88l-35.433-35.433z" transform="matrix(.113 0 0 .096 324.23 188.1)" stroke="#000" stroke-width="3.927"/>
                <path d="M832.68 113.39s-14.276-53.15-14.276-159.45c0-124.02 63.001-202.89 85.654-230.32 5.898 27.422-57.102 124.02-57.102 230.32 0 77.444 21.157 194.88 21.157 194.88l-35.433-35.433z" transform="matrix(.113 0 0 .096 324.23 188.1)" stroke="#000" stroke-width="3.927"/>
                <path d="M779.53 255.12c159.57-1.394 212.6-35.433 212.6-35.433s0-70.866-17.716-88.583c-17.717-17.716-194.88-17.716-194.88-17.716v141.73z" transform="matrix(.091 0 0 .096 344.03 203.352)" stroke="#000" stroke-width="4.375"/>
                <path d="M779.53 255.12c159.57-1.394 194.88-35.433 194.88-35.433s0-70.866-17.716-88.583c-17.717-17.716-177.16-17.716-177.16-17.716v141.73z" transform="matrix(.091 0 0 .096 344.03 194.88)" stroke="#000" stroke-width="4.375"/>
                <path d="M318.9 1318.1c55.065-122.32 70.866-336.61 70.866-372.05 0-99.782-32.948-585.11-35.433-779.53s124.02-301.18 248.03-301.18c106.3 0 177.17 70.866 177.17 177.17h-53.15c0-70.866-53.15-124.02-124.02-124.02-106.3 0-187.99 83.739-194.88 248.03-7.605 189.89 21.316 682.94 17.717 814.96s-51.234 249.72-106.3 336.61z" transform="matrix(-.091 0 0 .096 485.425 194.88)" stroke="#fdc301" stroke-width="11.026"/>
                <path d="M779.41 912.6s-.12 103.6 0 179.24c.12 75.63 19.822 104.91 54.262 103.59 34.44-1.33 41.108-58.83 34.531-92.08-6.577-33.26-53.24-198.97-53.24-198.97l-35.553 8.222z" transform="matrix(-.077 -.05 -.048 .082 515.008 245.698)" stroke="#000" stroke-width="4.375"/>
                <path d="M779.53 32.884c124.13.141 177.77 102.39 177.46 100.31l-35.734 33.347c-18.985 17.717-141.73 17.717-140.21 17.626l-1.52-151.29z" transform="matrix(.091 0 0 .096 344.03 194.88)" stroke="#000" stroke-width="4.375"/>
                <path d="M779.41 912.6s-.12 103.6 0 179.24c.12 75.63 19.822 104.91 54.262 103.59 34.44-1.33 41.108-58.83 34.531-92.08-6.577-33.26-53.24-198.97-53.24-198.97l-35.553 8.222z" transform="matrix(-.088 -.02 -.018 .093 498.996 211.958)" stroke="#000" stroke-width="4.375"/>
                <path d="M779.41 912.6s-.12 103.6 0 179.24c.12 75.63 19.822 104.91 54.262 103.59 34.44-1.33 41.108-58.83 34.531-92.08-6.577-33.26-53.24-198.97-53.24-198.97l-35.553 8.222z" transform="matrix(-.091 0 0 .096 485.412 194.88)" stroke="#000" stroke-width="4.375"/>
                <path d="M779.53 255.12c159.57-1.394 177.16-35.432 177.16-35.432s35.43-70.866 17.716-88.584c-17.717-17.716-194.88-17.716-194.88-17.716v141.73z" transform="matrix(-.056 0 0 .096 458.587 257.565)" stroke="#000" stroke-width="5.554"/>
                <path d="M779.53 255.12c106.3 0 124.02-35.432 124.02-35.432s35.43-70.866 17.716-88.584c-17.717-17.716-141.73-17.716-141.73-17.716v141.73z" transform="matrix(-.091 0 0 .096 485.412 250.786)" stroke="#000" stroke-width="4.375"/>
                <path d="M779.53 255.12c88.583 0 141.73-35.433 141.73-35.433s35.43-70.866 17.716-88.584c-17.72-17.72-159.45-17.71-159.45-17.71v141.73z" transform="matrix(-.091 0 0 .096 485.412 244.006)" stroke="#000" stroke-width="4.375"/>
                <path d="M832.68 113.39s70.866-88.583 194.88-177.17c124.01-88.582 213.73-156.72 230.31-141.73 0 17.717-106.3 106.3-194.88 177.17-88.59 70.86-194.89 177.16-194.89 177.16l-35.433-35.433z" transform="matrix(-.113 0 0 .096 503.018 195.076)" stroke="#000" stroke-width="3.927"/>
                <path d="M832.68 113.39s70.05-52.025 204.38-124.02c132.23-63.918 318.89-53.15 318.89-35.433-17.71 17.716-177.16 17.716-283.46 70.866-101.48 50.729-204.39 124.01-204.39 124.01l-35.433-35.433z" transform="matrix(-.113 0 0 .096 502.098 201.856)" stroke="#000" stroke-width="3.927"/>
                <path d="M832.68 113.39s61.675-35.068 204.38-88.583c141.72-53.15 329.87-17.717 329.87 0-17.7 17.713-170.4 6.944-276.7 35.429-109.99 27.758-222.09 88.584-222.09 88.584l-35.433-35.433z" transform="matrix(-.113 0 0 .096 502.012 213.527)" stroke="#000" stroke-width="3.927"/>
                <path d="M832.68 113.39s71.079-70.976 222.47-88.583c152.3-17.72 276.3 88.583 276.3 106.29-17.7 17.72-159.5-77.972-265.7-64.286-112.67 13.654-197.69 82.006-197.69 82.006l-35.433-35.433z" transform="matrix(-.113 0 0 .096 501.252 225.371)" stroke="#000" stroke-width="3.927"/>
                <path d="M779.53 255.12c159.57-1.394 159.45-45.508 159.45-45.508s35.43-70.866 17.716-88.584c-17.717-17.716-177.16-7.64-177.16-7.64v141.73z" transform="matrix(-.091 0 0 .096 485.412 235.546)" stroke="#000" stroke-width="4.375"/>
                <path d="M779.53 255.12c159.57-1.394 177.16-35.432 177.16-35.432s35.43-70.866 17.716-88.584c-17.717-17.716-194.88-17.716-194.88-17.716v141.73z" transform="matrix(-.091 0 0 .096 485.412 228.767)" stroke="#000" stroke-width="4.375"/>
                <path d="M779.53 255.12c159.57-1.394 194.88-35.433 194.88-35.433s35.43-70.866 17.716-88.583c-17.717-17.716-212.6-17.716-212.6-17.716v141.73z" transform="matrix(-.091 0 0 .096 485.412 220.295)" stroke="#000" stroke-width="4.375"/>
                <path d="M779.53 255.12c159.57-1.394 212.6-35.433 212.6-35.433s17.714-70.866 0-88.583c-17.717-17.716-212.6-17.716-212.6-17.716v141.73z" transform="matrix(-.091 0 0 .096 485.412 211.823)" stroke="#000" stroke-width="4.375"/>
                <path d="M832.68 113.39s114.21-88.583 114.21-159.45c0-70.866-50.349-141.73-64.625-177.17 28.552 0 93.176 106.3 93.176 177.17 0 77.444-107.32 194.88-107.32 194.88l-35.433-35.433z" transform="matrix(-.113 0 0 .096 505.224 188.1)" stroke="#000" stroke-width="3.927"/>
                <path d="M832.68 113.39s-14.276-53.15-14.276-159.45c0-124.02 63.001-202.89 85.654-230.32 5.898 27.422-57.102 124.02-57.102 230.32 0 77.444 21.157 194.88 21.157 194.88l-35.433-35.433z" transform="matrix(-.113 0 0 .096 505.224 188.1)" stroke="#000" stroke-width="3.927"/>
                <path d="M779.53 255.12c159.57-1.394 212.6-35.433 212.6-35.433s0-70.866-17.716-88.583c-17.717-17.716-194.88-17.716-194.88-17.716v141.73z" transform="matrix(-.091 0 0 .096 485.412 203.352)" stroke="#000" stroke-width="4.375"/>
                <path d="M779.53 255.12c159.57-1.394 194.88-35.433 194.88-35.433s0-70.866-17.716-88.583c-17.717-17.716-177.16-17.716-177.16-17.716v141.73z" transform="matrix(-.091 0 0 .096 485.412 194.88)" stroke="#000" stroke-width="4.375"/>
                <path d="M318.9 1318.1c55.065-122.32 70.866-336.61 70.866-372.05 0-99.782-32.948-585.11-35.433-779.53s124.02-301.18 248.03-301.18c106.3 0 177.17 70.866 177.17 177.17h-53.15c0-70.866-53.15-124.02-124.02-124.02-106.3 0-187.99 83.739-194.88 248.03-7.605 189.89 21.316 682.94 17.717 814.96s-51.234 249.72-106.3 336.61z" transform="matrix(.091 0 0 .096 344.018 194.88)" stroke="#fdc301" stroke-width="11.026"/>
                <path d="M779.53 32.884c124.13.141 177.77 102.39 177.46 100.31l-35.734 33.347c-18.985 17.717-141.73 17.717-140.21 17.626l-1.52-151.29z" transform="matrix(-.091 0 0 .096 485.412 194.88)" stroke="#000" stroke-width="4.375"/>
            </g>
        </g>
    </g>
</svg>
