<svg xmlns="http://www.w3.org/2000/svg" id="flag-icon-css-tc" width="512" height="512">
  <defs>
    <clipPath id="a">
      <path fill-opacity=".67" d="M0 0h512v512H0z"/>
    </clipPath>
  </defs>
  <g clip-path="url(#a)">
    <path fill="#006" d="M1024 512V0H0v512h1024z"/>
    <path fill="#006" fill-rule="evenodd" d="M0 0h512v256H0z"/>
    <g stroke-width="1pt">
      <path fill="#fff" d="M0 0v28.62L454.76 256H512v-28.62L57.24 0H0zm512 0v28.62L57.24 256H0v-28.62L454.76 0H512z"/>
      <path fill="#fff" d="M213.33 0v256h85.33V0h-85.33zM0 85.33v85.34h512V85.33H0z"/>
      <path fill="#c00" d="M0 102.4v51.2h512v-51.2H0zM230.4 0v256h51.2V0h-51.2zM0 256l170.67-85.33h38.16L38.16 256H0zM0 0l170.67 85.33H132.5L0 19.08V0zm303.17 85.33L473.84 0H512L341.33 85.33h-38.16zM512 256l-170.67-85.33h38.16L512 236.92V256z"/>
    </g>
    <path fill="#fff" d="M493.56 140.88v116.48c0 95.63-37.56 183.18-149 236.4C233.17 440.53 195.6 353 195.6 257.35V140.87h298.02z"/>
    <path fill="#fdc300" d="M483.58 152.75v108.64c0 89.2-35.04 170.86-138.98 220.49-103.94-49.63-138.97-131.29-138.97-220.49V152.75h277.96z"/>
    <g stroke="#000" stroke-width=".06">
      <path fill="#ff9e3d" d="M205.96 52.85a2.08 2.08 0 0 0-1.26-.44c.11-1.3-.83-1.86-1.5-2.1-.68-.23-.92-.5-1.03-1.02-.12-.53-.48-.86-1.1-1.03-.61-.18-1.14-.8-1.38-1.1-.23-.29-.32-.23-.5.27-.17.5-.88 1.45-.23 1.48-.47.38-.74.82-.44 1.4-.33.27-.56.65-.12.8.44.15.56.27.59.38-.4 0-.5.8.44.97-.2.03-.3.68.09.68-.53 0-.97.8-1.65.8-.68 0-1.03.14-1.06.44-.03.3-.38.64-.56.8.5.05.82 0 1.09-.21s.7-.27 1-.03c.3.23.91.35 1.2.29-.64.44-1.11 1.03-1.17 1.59-.06.56-.44 1.2-.88 1.38-.44.18-1.03.65-1.24 1.2.56 1.4 1.35 1.73 2.15 2.1 1.41.64 2.3 1.12 2.88 1.76.59.65.83.18 1.7 1.3.9 1.11 1.71 3.23 2.6 3.59.88.35 2 .11 2.64-1 .65-1.12 1.06-12.42-2.26-14.3z" transform="matrix(5.698 0 0 5.6987 -893.68 -100.8)"/>
      <path fill="#ff927f" d="M207.46 48.14c-.82.88-1.88 1.76-1.7 3.35s.35 4.18-1.12 5.06c-1.48.89-2.18 3.12-.42 4.42 1.77 1.3 1.83 2.88 2.12 4.35.3 1.47 1.06 2.65 2.24 1.65 1.17.18 1.82-.3 1.82-1.24s.06-1.47.94-1.76c.89-.3 1.12-.59 1.53-1.38.42-.8.65-1.15.42-1.62a3.68 3.68 0 0 1-.15-2.15c.18-.7-.24-1.09-.47-1.53a1.9 1.9 0 0 1-.2-1.41c.1-.6-.18-.97-.6-1.27-.4-.3-.59-.59-.5-1.06.1-.47-.3-.76-.73-1.11s-.77-.83-.77-1.53c0-.71-1.35-2.36-2.41-2.77z" transform="matrix(5.698 0 0 5.6987 -893.68 -100.8)"/>
      <path fill="#ff9ee1" d="M207.79 67.35c1.97-.5 1.8-3.73 1.5-5.09-.3-1.35-1.05-3.29-.47-4.82.82-2.18-1-4.24-.53-5.06.47-.83.41-1.27.35-1.53-.05-.27-.5-.48-.53.08-.03.56-.17.77-.53 1.12s-.26 1.12 0 1.97c.27.86.83 2.15-.06 3.86-.88 1.7-.51 2.46-.17 3.26.53 1.24 1.8 5.53.44 6.21z" transform="matrix(5.698 0 0 5.6987 -893.68 -100.8)"/>
      <path fill="none" d="M198.96 48.9c.22 0 .65-.08.65.21m-1.09 1.2c.27-.18.74.04 1.2-.24m-.73 1.42c.35 0 .82-.01 1.26-.36m-.82 1.33c.32 0 .93-.2 1.07-.63m-.98 1.31c.63-.03 1.47.2 1.59-.01m-1.56 2.1c.44-.41 1.49-.7 1.72-1.12m-.6-5.44c.74.23.43.69.8.97.64.5.05 1.06.58 1.2.53.15.52.24.39.83-.17.7.5.72.26 1.18m2-.44c-.3 0-1.16.03-1.53.8m-4.75 7.68c.34.06.5-.13.6-.32.1-.2.15-.35.46-.37.3-.01.78-.1.88-.34.1-.23.47-.01.78-.63.31-.62.52-1.35 1.34-1.62" transform="matrix(5.698 0 0 5.6987 -893.68 -100.8)"/>
    </g>
    <g stroke="#000" stroke-width=".06">
      <path fill="#00a728" d="M221.76 73.75c.33.48-.01 1 .55 1.22.66.24.09 1.11.87 1.42.69.27 0 1.1.75 1.48.67.33-.11 1.11.78 1.56.9.44-.17 1.45.5 1.84.67.39-.22 1.4.56 1.78.78.4-.33 1.18.4 1.73.72.56-.18 1.4.55 1.9s-.45 1.17.28 1.9c.56.55-.2 1.1.22 1.95.28.56-.28 2.79-1.84 2.57-.56.94-2.73 1.78-3.51 1.5-.78.56-3.3 1.34-4.58.11-1.28 1.23-3.8.45-4.57-.1-.78.27-2.96-.57-3.52-1.51-1.56.22-2.12-2.01-1.84-2.57.43-.85-.33-1.4.23-1.95.72-.73-.45-1.4.27-1.9s-.16-1.34.56-1.9c.73-.55-.39-1.34.4-1.73.77-.39-.12-1.39.55-1.78.67-.4-.39-1.4.5-1.84.9-.45.11-1.23.78-1.56.75-.38.06-1.2.76-1.48.78-.3.2-1.18.86-1.42.58-.22.21-.75.57-1.24 1.66.65 6.8 1.12 8.92.02z" transform="matrix(5.698 0 0 5.6987 -893.68 -100.8)"/>
      <path fill="#fdc300" d="M213.51 76.67c0 .25 0 .5-.24.8-.5.68.23 1.01-.33 1.74-.56.72.11 1.17-.5 1.78-.62.62.1 1.17-.5 1.84-.62.67.1 1.12-.5 1.73-.62.62.1 1.29-.51 1.9-.61.61.11 1.4-.56 2.12-.67.72.11 1.28-.44 1.84-.56.56-.06 1.11-.45 1.5.67-.5.67-1.28 1.17-1.67.5-.39-.17-.95.11-1.23s.06-1.45.56-2 .06-1.68.5-2.07.11-1.56.67-1.95 0-1.34.45-1.84c.44-.5 0-1.28.44-1.9.45-.61.02-1.17.34-1.67.14-.22.14-1.84-.21-.92zm1.61.7c-.39.72.28.89-.22 1.61s.28 1.29-.28 2.01.28 1.12-.23 1.84c-.5.73.23 1.12-.22 1.68-.45.55.34 1.11-.22 1.78-.56.67.22 1.17-.23 1.78-.44.62.17 1.29-.22 1.79s.28 1.23-.28 1.9.11 1.11-.22 1.56c.67-.22.42-1.14.67-1.34.25-.2-.08-1.48.3-1.81.4-.34-.25-1.37.12-1.82.61-.75.08-1.25.44-1.84.37-.58-.13-1.33.14-1.73.48-.67-.2-1.27.14-1.75.5-.7-.1-1.28.25-1.73.53-.7-.05-1.4.17-1.76.22-.36.59-1.92-.11-2.18zm2.17.6c-.39.98.28 1.36.06 2.14-.23.78.28 1.36-.06 2.2-.33.85.45 1.5 0 2.6s.29 1.37 0 2.46c-.33 1.26.56 1.93 0 2.83-.56.89.64 1.18.06 2.12-.28.44.02 1.59.47.22.45-1.37-.33-1.54.06-2.1.39-.55-.14-2.03.02-2.81.17-.78-.39-1.84-.02-2.68.36-.83-.56-1.73-.2-2.45.36-.73-.17-1.62.17-2.2.33-.6-.25-1.37-.11-1.7.14-.34-.14-1.58-.45-.63z" transform="matrix(5.698 0 0 5.6987 -893.68 -100.8)"/>
      <path fill="#ef072d" d="M221.47 74.4c0-6.3-.9-8.47-4.18-8.47-3.3 0-4.19 2.17-4.19 8.48h8.37z" transform="matrix(5.698 0 0 5.6987 -893.68 -100.8)"/>
      <path fill="none" d="M214.33 73.9c-.61.62.11 1.07-.5 1.8-.62.72-.06 1.1-.56 1.78s.22 1-.34 1.73c-.55.72.12 1.17-.5 1.78-.61.61.11 1.17-.5 1.84-.61.67.11 1.12-.5 1.73-.61.61.11 1.28-.5 1.9-.62.61.1 1.4-.56 2.12-.67.72.11 1.28-.45 1.84s-.05 1.11-.44 1.5c-.4.4-.45.94-.28 1.18m6.3-18.97c-.56.72.28 1.06-.22 1.67-.5.62.22.84-.17 1.57s.28.89-.22 1.61.28 1.29-.28 2.01.28 1.12-.23 1.84c-.5.73.23 1.12-.22 1.68-.45.55.34 1.11-.22 1.78-.56.67.22 1.17-.23 1.79-.44.6.17 1.28-.22 1.78s.28 1.23-.28 1.9.11 1.11-.22 1.56c-.34.45-.6 1.1-.28 1.28m4.58-19.8c-.28 1.17.4 2.2 0 3.17-.39.98.28 1.36.06 2.14-.23.78.27 1.36-.06 2.2-.33.85.45 1.5 0 2.6s.29 1.37 0 2.46c-.33 1.26.56 1.93 0 2.83-.56.89.5 1.11.06 2.12-.45 1 .27 1.39-.06 2.4m2.96-20.81c.61.61-.11 1.06.5 1.78.62.73.06 1.12.56 1.79s-.22 1 .33 1.73c.56.72-.1 1.17.5 1.78.62.61-.1 1.17.5 1.84.62.67-.1 1.12.51 1.73.61.61-.11 1.28.5 1.9.62.61-.1 1.4.56 2.12.67.72-.11 1.28.45 1.84.55.56.05 1.11.44 1.5.4.4.45.94.28 1.18m-6.3-18.97c.56.72-.28 1.06.22 1.67.5.62-.22.84.17 1.57.4.72-.28.89.22 1.61s-.28 1.29.28 2.01-.28 1.12.22 1.84c.5.73-.22 1.12.23 1.68.45.55-.34 1.11.22 1.78.56.67-.22 1.17.23 1.79.44.6-.17 1.28.22 1.78s-.28 1.23.28 1.9-.11 1.11.22 1.56c.34.45.6 1.1.28 1.28" transform="matrix(5.698 0 0 5.6987 -893.68 -100.8)"/>
      <path d="M213.11 74.4c0-6.3.9-8.47 4.18-8.47-1.5 0-2.42 1.17-2.67 1.95s-.12.73.22.42.17.36-.11.72c-.28.37-.56 1.4-.17 1.06.4-.33.7.06.28.65s-.78 1.95-.36 1.47c.42-.47.5.31.25.7-.25.4-.23.73 0 .56.22-.17.2.64-.03.95h-1.59zm7.72-.35c0-4.94-.61-6.42-1.84-6.92-.7-.29-.71-.22-.38.22s.28 1.09-.03.64c-.3-.44-.4-.53-.54-.33-.12.2.36 1.11.72 1.95.29.67.1 1-.33.34s-.44-.07-.06.5c.5.72.48 2.93.48 3.85l1.98-.25z" transform="matrix(5.698 0 0 5.6987 -893.68 -100.8)"/>
      <path fill="#ef072d" d="M217.29 75.33c1.31 0 2.75-.24 3.71-.6 1.14-.45 1.2-.84.8-1.34-.27-.35-.88-.14-1.47.12-.59.25-2.2.42-3.04.42-.84 0-2.45-.17-3.04-.42-.58-.26-1.2-.47-1.48-.12-.4.5-.33.89.81 1.33.96.37 2.4.6 3.71.6z" transform="matrix(5.698 0 0 5.6987 -893.68 -100.8)"/>
    </g>
    <g fill="#b95a1e" fill-rule="evenodd">
      <path stroke="#000" stroke-width="4.38" d="M779.41 912.6s-.12 103.6 0 179.24c.12 75.63 19.82 104.91 54.26 103.59 34.44-1.33 41.11-58.83 34.53-92.08-6.57-33.26-53.24-198.97-53.24-198.97l-35.55 8.22z" transform="matrix(.07727 -.0499 .04732 .08148 313.51 245.46)"/>
      <path stroke="#000" stroke-width="4.38" d="M779.41 912.6s-.12 103.6 0 179.24c.12 75.63 19.82 104.91 54.26 103.59 34.44-1.33 41.11-58.83 34.53-92.08-6.57-33.26-53.24-198.97-53.24-198.97l-35.55 8.22z" transform="matrix(.08863 -.01984 .01882 .09346 329.5 211.74)"/>
      <path stroke="#000" stroke-width="4.38" d="M779.41 912.6s-.12 103.6 0 179.24c.12 75.63 19.82 104.91 54.26 103.59 34.44-1.33 41.11-58.83 34.53-92.08-6.57-33.26-53.24-198.97-53.24-198.97l-35.55 8.22z" transform="matrix(.0906 0 0 .09555 343.07 194.68)"/>
      <path stroke="#000" stroke-width="5.55" d="M779.53 255.12c159.57-1.4 177.16-35.43 177.16-35.43s35.43-70.87 17.72-88.59c-17.72-17.71-194.88-17.71-194.88-17.71v141.73z" transform="matrix(.05623 0 0 .09555 369.87 257.31)"/>
      <path stroke="#000" stroke-width="4.38" d="M779.53 255.12c106.3 0 124.02-35.43 124.02-35.43s35.43-70.87 17.72-88.59c-17.72-17.71-141.73-17.71-141.73-17.71v141.73z" transform="matrix(.0906 0 0 .09555 343.07 250.54)"/>
      <path stroke="#000" stroke-width="4.38" d="M779.53 255.12c88.58 0 141.73-35.43 141.73-35.43s35.43-70.87 17.72-88.59c-17.72-17.72-159.45-17.7-159.45-17.7v141.72z" transform="matrix(.0906 0 0 .09555 343.07 243.76)"/>
      <path stroke="#000" stroke-width="3.93" d="M832.68 113.39s70.87-88.58 194.88-177.17c124.01-88.58 213.73-156.72 230.31-141.73 0 17.72-106.3 106.3-194.88 177.17C974.4 42.52 868.1 148.82 868.1 148.82l-35.43-35.43z" transform="matrix(.11244 0 0 .09555 325.48 194.88)"/>
      <path stroke="#000" stroke-width="3.93" d="M832.68 113.39s70.05-52.02 204.38-124.02c132.23-63.92 318.89-53.15 318.89-35.43-17.71 17.71-177.16 17.71-283.46 70.86C971.01 75.53 868.1 148.81 868.1 148.81l-35.43-35.43z" transform="matrix(.11244 0 0 .09555 326.41 201.65)"/>
      <path stroke="#000" stroke-width="3.93" d="M832.68 113.39s61.67-35.07 204.38-88.58c141.72-53.15 329.87-17.72 329.87 0-17.7 17.71-170.4 6.94-276.7 35.43-109.99 27.75-222.09 88.58-222.09 88.58l-35.43-35.43z" transform="matrix(.11244 0 0 .09555 326.5 213.31)"/>
      <path stroke="#000" stroke-width="3.93" d="M832.68 113.39s71.08-70.98 222.47-88.58c152.3-17.72 276.3 88.58 276.3 106.29-17.7 17.72-159.5-77.97-265.7-64.29-112.67 13.66-197.69 82-197.69 82l-35.43-35.43z" transform="matrix(.11244 0 0 .09555 327.25 225.15)"/>
      <path stroke="#000" stroke-width="4.38" d="M779.53 255.12c159.57-1.4 159.45-45.5 159.45-45.5s35.43-70.87 17.72-88.6c-17.72-17.7-177.16-7.63-177.16-7.63v141.73z" transform="matrix(.0906 0 0 .09555 343.07 235.31)"/>
      <path stroke="#000" stroke-width="4.38" d="M779.53 255.12c159.57-1.4 177.16-35.43 177.16-35.43s35.43-70.87 17.72-88.59c-17.72-17.71-194.88-17.71-194.88-17.71v141.73z" transform="matrix(.0906 0 0 .09555 343.07 228.54)"/>
      <path stroke="#000" stroke-width="4.38" d="M779.53 255.12c159.57-1.4 194.88-35.43 194.88-35.43s35.43-70.87 17.72-88.59c-17.72-17.71-212.6-17.71-212.6-17.71v141.73z" transform="matrix(.0906 0 0 .09555 343.07 220.07)"/>
      <path stroke="#000" stroke-width="4.38" d="M779.53 255.12c159.57-1.4 212.6-35.43 212.6-35.43s17.71-70.87 0-88.59c-17.72-17.71-212.6-17.71-212.6-17.71v141.73z" transform="matrix(.0906 0 0 .09555 343.07 211.61)"/>
      <path stroke="#000" stroke-width="3.93" d="M832.68 113.39S946.89 24.81 946.89-46.06c0-70.87-50.35-141.73-64.63-177.17 28.56 0 93.18 106.3 93.18 177.17 0 77.44-107.32 194.88-107.32 194.88l-35.43-35.43z" transform="matrix(.11244 0 0 .09555 323.29 187.9)"/>
      <path stroke="#000" stroke-width="3.93" d="M832.68 113.39S818.4 60.24 818.4-46.06c0-124.02 63-202.89 85.66-230.32 5.9 27.42-57.1 124.02-57.1 230.32 0 77.44 21.15 194.88 21.15 194.88l-35.43-35.43z" transform="matrix(.11244 0 0 .09555 323.29 187.9)"/>
      <path stroke="#000" stroke-width="4.38" d="M779.53 255.12c159.57-1.4 212.6-35.43 212.6-35.43s0-70.87-17.72-88.59C956.7 113.4 779.53 113.4 779.53 113.4v141.73z" transform="matrix(.0906 0 0 .09555 343.07 203.15)"/>
      <path stroke="#000" stroke-width="4.38" d="M779.53 255.12c159.57-1.4 194.88-35.43 194.88-35.43s0-70.87-17.72-88.59c-17.71-17.71-177.16-17.71-177.16-17.71v141.73z" transform="matrix(.0906 0 0 .09555 343.07 194.68)"/>
      <path stroke="#fdc301" stroke-width="11.03" d="M318.9 1318.1c55.06-122.32 70.87-336.61 70.87-372.05 0-99.78-32.95-585.11-35.44-779.53s124.02-301.18 248.03-301.18c106.3 0 177.17 70.87 177.17 177.17h-53.15c0-70.87-53.15-124.02-124.02-124.02-106.3 0-187.99 83.74-194.88 248.03-7.6 189.89 21.32 682.94 17.72 814.96s-51.23 249.72-106.3 336.61z" transform="matrix(-.0906 0 0 .09555 484.33 194.68)"/>
      <path stroke="#000" stroke-width="4.38" d="M779.41 912.6s-.12 103.6 0 179.24c.12 75.63 19.82 104.91 54.26 103.59 34.44-1.33 41.11-58.83 34.53-92.08-6.57-33.26-53.24-198.97-53.24-198.97l-35.55 8.22z" transform="matrix(-.07727 -.0499 -.04732 .08148 513.88 245.46)"/>
      <path stroke="#000" stroke-width="4.38" d="M779.53 32.88c124.13.14 177.77 102.4 177.46 100.31l-35.73 33.35c-18.99 17.72-141.73 17.72-140.21 17.63l-1.52-151.3z" transform="matrix(.0906 0 0 .09555 343.07 194.68)"/>
      <path stroke="#000" stroke-width="4.38" d="M779.41 912.6s-.12 103.6 0 179.24c.12 75.63 19.82 104.91 54.26 103.59 34.44-1.33 41.11-58.83 34.53-92.08-6.57-33.26-53.24-198.97-53.24-198.97l-35.55 8.22z" transform="matrix(-.08863 -.01984 -.01882 .09346 497.88 211.74)"/>
      <path stroke="#000" stroke-width="4.38" d="M779.41 912.6s-.12 103.6 0 179.24c.12 75.63 19.82 104.91 54.26 103.59 34.44-1.33 41.11-58.83 34.53-92.08-6.57-33.26-53.24-198.97-53.24-198.97l-35.55 8.22z" transform="matrix(-.0906 0 0 .09555 484.31 194.68)"/>
      <path stroke="#000" stroke-width="5.55" d="M779.53 255.12c159.57-1.4 177.16-35.43 177.16-35.43s35.43-70.87 17.72-88.59c-17.72-17.71-194.88-17.71-194.88-17.71v141.73z" transform="matrix(-.05623 0 0 .09555 457.51 257.31)"/>
      <path stroke="#000" stroke-width="4.38" d="M779.53 255.12c106.3 0 124.02-35.43 124.02-35.43s35.43-70.87 17.72-88.59c-17.72-17.71-141.73-17.71-141.73-17.71v141.73z" transform="matrix(-.0906 0 0 .09555 484.31 250.54)"/>
      <path stroke="#000" stroke-width="4.38" d="M779.53 255.12c88.58 0 141.73-35.43 141.73-35.43s35.43-70.87 17.72-88.59c-17.72-17.72-159.45-17.7-159.45-17.7v141.72z" transform="matrix(-.0906 0 0 .09555 484.31 243.76)"/>
      <path stroke="#000" stroke-width="3.93" d="M832.68 113.39s70.87-88.58 194.88-177.17c124.01-88.58 213.73-156.72 230.31-141.73 0 17.72-106.3 106.3-194.88 177.17C974.4 42.52 868.1 148.82 868.1 148.82l-35.43-35.43z" transform="matrix(-.11244 0 0 .09555 501.9 194.88)"/>
      <path stroke="#000" stroke-width="3.93" d="M832.68 113.39s70.05-52.02 204.38-124.02c132.23-63.92 318.89-53.15 318.89-35.43-17.71 17.71-177.16 17.71-283.46 70.86C971.01 75.53 868.1 148.81 868.1 148.81l-35.43-35.43z" transform="matrix(-.11244 0 0 .09555 500.98 201.65)"/>
      <path stroke="#000" stroke-width="3.93" d="M832.68 113.39s61.67-35.07 204.38-88.58c141.72-53.15 329.87-17.72 329.87 0-17.7 17.71-170.4 6.94-276.7 35.43-109.99 27.75-222.09 88.58-222.09 88.58l-35.43-35.43z" transform="matrix(-.11244 0 0 .09555 500.9 213.31)"/>
      <path stroke="#000" stroke-width="3.93" d="M832.68 113.39s71.08-70.98 222.47-88.58c152.3-17.72 276.3 88.58 276.3 106.29-17.7 17.72-159.5-77.97-265.7-64.29-112.67 13.66-197.69 82-197.69 82l-35.43-35.43z" transform="matrix(-.11244 0 0 .09555 500.14 225.15)"/>
      <path stroke="#000" stroke-width="4.38" d="M779.53 255.12c159.57-1.4 159.45-45.5 159.45-45.5s35.43-70.87 17.72-88.6c-17.72-17.7-177.16-7.63-177.16-7.63v141.73z" transform="matrix(-.0906 0 0 .09555 484.31 235.31)"/>
      <path stroke="#000" stroke-width="4.38" d="M779.53 255.12c159.57-1.4 177.16-35.43 177.16-35.43s35.43-70.87 17.72-88.59c-17.72-17.71-194.88-17.71-194.88-17.71v141.73z" transform="matrix(-.0906 0 0 .09555 484.31 228.54)"/>
      <path stroke="#000" stroke-width="4.38" d="M779.53 255.12c159.57-1.4 194.88-35.43 194.88-35.43s35.43-70.87 17.72-88.59c-17.72-17.71-212.6-17.71-212.6-17.71v141.73z" transform="matrix(-.0906 0 0 .09555 484.31 220.07)"/>
      <path stroke="#000" stroke-width="4.38" d="M779.53 255.12c159.57-1.4 212.6-35.43 212.6-35.43s17.71-70.87 0-88.59c-17.72-17.71-212.6-17.71-212.6-17.71v141.73z" transform="matrix(-.0906 0 0 .09555 484.31 211.61)"/>
      <path stroke="#000" stroke-width="3.93" d="M832.68 113.39S946.89 24.81 946.89-46.06c0-70.87-50.35-141.73-64.63-177.17 28.56 0 93.18 106.3 93.18 177.17 0 77.44-107.32 194.88-107.32 194.88l-35.43-35.43z" transform="matrix(-.11244 0 0 .09555 504.1 187.9)"/>
      <path stroke="#000" stroke-width="3.93" d="M832.68 113.39S818.4 60.24 818.4-46.06c0-124.02 63-202.89 85.66-230.32 5.9 27.42-57.1 124.02-57.1 230.32 0 77.44 21.15 194.88 21.15 194.88l-35.43-35.43z" transform="matrix(-.11244 0 0 .09555 504.1 187.9)"/>
      <path stroke="#000" stroke-width="4.38" d="M779.53 255.12c159.57-1.4 212.6-35.43 212.6-35.43s0-70.87-17.72-88.59C956.7 113.4 779.53 113.4 779.53 113.4v141.73z" transform="matrix(-.0906 0 0 .09555 484.31 203.15)"/>
      <path stroke="#000" stroke-width="4.38" d="M779.53 255.12c159.57-1.4 194.88-35.43 194.88-35.43s0-70.87-17.72-88.59c-17.71-17.71-177.16-17.71-177.16-17.71v141.73z" transform="matrix(-.0906 0 0 .09555 484.31 194.68)"/>
      <path stroke="#fdc301" stroke-width="11.03" d="M318.9 1318.1c55.06-122.32 70.87-336.61 70.87-372.05 0-99.78-32.95-585.11-35.44-779.53s124.02-301.18 248.03-301.18c106.3 0 177.17 70.87 177.17 177.17h-53.15c0-70.87-53.15-124.02-124.02-124.02-106.3 0-187.99 83.74-194.88 248.03-7.6 189.89 21.32 682.94 17.72 814.96s-51.23 249.72-106.3 336.61z" transform="matrix(.0906 0 0 .09555 343.06 194.68)"/>
      <path stroke="#000" stroke-width="4.38" d="M779.53 32.88c124.13.14 177.77 102.4 177.46 100.31l-35.73 33.35c-18.99 17.72-141.73 17.72-140.21 17.63l-1.52-151.3z" transform="matrix(-.0906 0 0 .09555 484.31 194.68)"/>
    </g>
  </g>
</svg>
