<svg viewBox="0 0 512 512" xmlns="http://www.w3.org/2000/svg" xmlns:xlink="http://www.w3.org/1999/xlink"><defs><path id="a" d="m0-21 12.3 38-32.3-23.5h40l-32.3 23.5z" fill="#fff"/></defs><path d="m0 0h512v512h-512z" fill="#002395"/><path d="m0 0h312.3v210h-312.3z" fill="#fff"/><path d="m0 0h102.4v204.8h-102.4z" fill="#002395"/><path d="m204.8 0h102.4v204.8h-102.4z" fill="#ed2939"/><path d="m282.4 234.2 16.5 26.3h46.9v91.5l-35.3-55-47.3 75.5h23l24.4-43.5 49.9 89.6 49.9-89.6 24.3 43.5h23l-47.2-75.5-35.2 55v-50.6h21.1l15.7-25h-36.8v-16h46.9l16.5-26.2zm55 112h-51.2v18h51.2zm97.3 0h-51.2v18h51.2z" fill="#fff"/><g transform="matrix(1.28 0 0 1.28 -172 0)"><use height="100%" width="100%" x="416" xlink:href="#a" y="362"/><use height="100%" width="100%" x="371" xlink:href="#a" y="328"/><use height="100%" width="100%" x="461" xlink:href="#a" y="328"/><use height="100%" width="100%" x="333" xlink:href="#a" y="227"/><use height="100%" width="100%" x="499" xlink:href="#a" y="227"/></g></svg>