<svg xmlns="http://www.w3.org/2000/svg" height="512" width="512"><defs><clipPath id="a"><rect fill-opacity=".67" height="496.3" width="496.3" y="-.241"/></clipPath></defs><g clip-path="url(#a)" fill-rule="evenodd" transform="matrix(1.032 0 0 1.032 0 .248)"><rect height="496.3" width="744.09" y="-.241" fill="#ffe300"/><rect height="99.66" width="744.09" y="201.52" fill="#118600"/><rect height="99.66" width="744.09" fill="#118600"/><rect height="301.18" width="297.12" fill="#d80000"/><path d="M130.3 124.25c0-.83 18.259-51.456 18.259-51.456l16.599 50.626s55.606 1.66 55.606.83l-43.987 33.198s20.748 58.096 19.919 56.436c-.83-1.66-48.137-34.858-48.137-34.858s-48.136 33.198-47.306 33.198l18.258-54.776-43.156-32.37 53.946-.83z" fill="#fff"/><rect height="99.66" width="744.09" y="396.4" fill="#118600"/></g></svg>