<svg xmlns="http://www.w3.org/2000/svg" xmlns:xlink="http://www.w3.org/1999/xlink" id="flag-icon-css-tj" width="512" height="512">
  <path fill="#060" d="M0 0h512v512H0z"/>
  <path fill="#fff" d="M0 0h512v365.71H0z"/>
  <path fill="#c00" d="M0 0h512v146.29H0z"/>
  <g fill="#f8c300" transform="translate(-256) scale(.73143)">
    <path d="M672 340.7a12.5 12.5 0 0 1 23.3 5.9v50h9.4v-50a12.5 12.5 0 0 1 23.3-5.9 29.5 29.5 0 1 0-56 0"/>
    <path fill="#fff" d="M678.7 327.65a20 20 0 0 1 21.3 9.55 20 20 0 0 1 21.3-9.55 21.5 21.5 0 0 0-42.6 0"/>
    <path id="a" d="M695.3 376.63a38 38 0 0 1-63.84 24.31 39.5 39.5 0 0 1-59.74 17.47c3.65 36.43 58.25 28.99 62.32-6.43 17.15 30.12 54.87 21.5 65.91-15.4z"/>
    <use width="100%" height="100%" transform="matrix(-1 0 0 1 1400 0)" xlink:href="#a"/>
    <path id="b" d="M658.84 441.31c-7.62 16.45-22.84 19.27-36.16 6 0 0 5.35-3.79 11.08-4.83-1.07-4.58 1.13-10.9 4.24-14.33 3.26 2.23 7.8 6.7 8.96 11.88 8.03-1.04 11.88 1.28 11.88 1.28z"/>
    <use width="100%" height="100%" transform="rotate(9.37 700 804)" xlink:href="#b"/>
    <use width="100%" height="100%" transform="rotate(18.74 700 804)" xlink:href="#b"/>
    <path fill="none" stroke="#f8c300" stroke-width="16" d="M603 478a340 340 0 0 1 194 0"/>
    <g transform="translate(700 380)">
      <g transform="translate(0 -140)">
        <path id="c" d="M488533-158734l-790463 574305L0-513674l301930 929245-790463-574305z" transform="scale(.00005)"/>
      </g>
      <g id="d">
        <use width="100%" height="100%" transform="translate(-70 -121.24)" xlink:href="#c"/>
        <use width="100%" height="100%" transform="translate(-121.24 -70)" xlink:href="#c"/>
        <use width="100%" height="100%" transform="translate(-140)" xlink:href="#c"/>
      </g>
      <use width="100%" height="100%" transform="scale(-1 1)" xlink:href="#d"/>
    </g>
  </g>
</svg>
