<svg xmlns="http://www.w3.org/2000/svg" height="512" width="512">
  <g clip-path="url(#a)" fill-rule="evenodd">
    <path fill="#fff" d="M-256 0h1023.392v512.011h-1023.392z"/>
    <path fill="#239f40" d="M-256 372.443h1022.619v139.124h-1022.619z"/>
    <path fill="#cd1738" d="M-256 0h1022.619v139.124h-1022.619z"/>
    <path fill="#ff0" d="M159.996 212.203l3.681 12.117 11.918-.27-9.887 7.406 3.928 11.772-9.784-7.535-9.496 7.535 3.835-12.063-9.794-7.115 12.155.086z"/>
    <path fill="#ff0" d="M148.153 264.131l3.681 12.117 11.918-.27-9.887 7.406 3.928 11.772-9.784-7.535-9.496 7.535 3.835-12.063-9.794-7.115 12.155.086z"/>
    <path fill="#ff0" d="M200.081 169.841l3.681 12.117 11.918-.27-9.887 7.406 3.928 11.772-9.784-7.535-9.496 7.535 3.835-12.063-9.794-7.115 12.155.086z"/>
    <path fill="#ff0" d="M254.056 155.72l3.681 12.117 11.918-.27-9.887 7.406 3.928 11.772-9.784-7.535-9.496 7.535 3.835-12.063-9.794-7.115 12.155.086z"/>
    <path fill="#ff0" d="M308.498 169.841l3.681 12.117 11.918-.27-9.887 7.406 3.928 11.772-9.784-7.535-9.496 7.535 3.835-12.063-9.794-7.115 12.155.086z"/>
    <path fill="#ff0" d="M348.581 212.431l3.681 12.117 11.918-.27-9.887 7.406 3.928 11.772-9.784-7.535-9.496 7.535 3.835-12.063-9.794-7.115 12.155.086z"/>
    <path fill="#ff0" d="M360.197 264.131l3.681 12.117 11.918-.27-9.887 7.406 3.928 11.772-9.784-7.535-9.496 7.535 3.835-12.063-9.794-7.115 12.155.086z"/>
    <path d="M274.64 235.906c0 8.607-9.246 15.585-20.65 15.585s-20.65-6.978-20.65-15.585c0-8.607 9.246-15.585 20.65-15.585s20.65 6.978 20.65 15.585z" fill="#ff0"/>
    <path fill="#ff0" d="M248.115 246.853h11.796v54.917h-11.796z"/>
    <path d="M357.596 297.625c-5.134 10.894-12.043 14.761-23.32 14.459-19.736.468-24.196-14.028-26.768-20.427-6.976 9.194-10.941 12.849-22.521 12.627-16.498.369-24.828-9.022-30.978-26.777-6.15 17.641-14.479 27.032-30.978 26.663-11.58.222-15.545-3.433-22.521-12.627-2.573 6.4-7.032 20.895-26.768 20.427-11.277.302-18.186-3.564-22.807-14.61 5.365 15.426 10.679 24.059 27.153 24.597 14.92.179 21.753-8.462 24.986-14.372 10.749 5.71 11.854 6.978 27.094 6.62 11.376-.366 17.91-7.798 23.798-14.87 5.887 7.072 12.422 14.504 23.798 14.87 15.24.358 16.345-.91 27.094-6.62 3.233 5.91 10.066 14.551 24.986 14.372 16.474-.538 21.788-9.17 27.752-24.332z" fill="#ff0"/>
    <path d="M204.177 313.518l5.385 7.463 10.327-.303-7.969 9.031-15.602.399-4.88-6.537 9.011-1.456 3.784-8.575" fill="#ff0"/>
    <path d="M303.505 313.61l-5.387 7.465-10.33-.303 7.972 9.034 15.606.399 4.882-6.539-9.014-1.457-3.785-8.578" fill="#ff0"/>
    <path d="M241.034 318.321c0-.04 7.086.04 7.086.04l5.958-4.75 5.817 4.691 7.026.101-6.321 9.34h-13.287l-6.28-9.422z" fill="#ff0"/>
    <path d="M330.674 351.582c-27.552-5.688-45.992-8.487-76.697-8.487s-49.146 2.798-76.523 8.419l-.038-11.879c27.416-5.672 45.856-8.471 76.561-8.471s49.146 2.799 76.561 8.471l.136 11.947z" fill="#ff0"/>
    <path d="M264.823 235.907c0 3.38-4.831 6.12-10.79 6.12-5.959 0-10.79-2.74-10.79-6.12s4.831-6.12 10.79-6.12c5.959 0 10.79 2.74 10.79 6.12z" fill="#fff"/>
  </g>
</svg>
