<svg xmlns="http://www.w3.org/2000/svg" height="512" width="512">
    <g clip-path="url(#a)">
        <path fill="#006" d="M0 0h1024v512h-1024z"/>
        <path d="M0 0v28.622l454.76 227.38h57.24v-28.62l-454.76-227.38h-57.24zm512 0v28.621l-454.76 227.38h-57.24v-28.62l454.76-227.38h57.24z" fill="#fff"/>
        <path d="M213.33 0v256h85.333v-256h-85.333zm-213.33 85.333v85.333h512v-85.333h-512z" fill="#fff"/>
        <path d="M0 102.4v51.2h512v-51.2h-512zm230.4-102.4v256h51.2v-256h-51.2z" fill="#c00"/>
        <path d="M0 256l170.67-85.333h38.162l-170.67 85.33h-38.16zm0-256l170.67 85.333h-38.162l-132.51-66.252v-19.081zm303.17 85.333l170.67-85.333h38.16l-170.67 85.333h-38.162zm208.83 170.67l-170.67-85.33h38.162l132.51 66.25v19.08z" fill="#c00"/>
        <g>
            <g>
                <path d="M356.05 224.488l5.329 16.4h17.243l-13.95 10.136 5.329 16.4-13.95-10.128-13.95 10.136 5.329-16.4-13.95-10.136h17.243z" fill="#fff"/>
                <path d="M356.05 229.529l4.197 12.916h13.581l-10.987 7.983 4.197 12.916-10.987-7.982-10.987 7.982 4.196-12.919-10.987-7.982h13.581z" fill="#c00"/>
            </g>
            <g>
                <path d="M273.892 307.153l5.329 16.4h17.243l-13.95 10.136 5.329 16.4-13.95-10.128-13.95 10.136 5.329-16.4-13.95-10.136h17.243z" fill="#fff"/>
                <path d="M273.892 312.194l4.197 12.916h13.581l-10.987 7.983 4.197 12.916-10.987-7.982-10.987 7.982 4.196-12.919-10.987-7.982h13.581z" fill="#c00"/>
            </g>
            <g>
                <path d="M426.471 289.573l4.46 13.727h14.433l-11.677 8.484 4.46 13.727-11.686-8.486-11.677 8.484 4.46-13.727-11.677-8.484h14.433z" fill="#fff"/>
                <path d="M426.471 293.858l3.497 10.764h11.317l-9.156 6.653 3.497 10.764-9.156-6.649-9.156 6.653 3.497-10.764-9.156-6.653h11.317z" fill="#c00"/>
            </g>
            <path d="M356.078 435.474l5.859 18.033h18.961l-15.34 11.145 5.859 18.033-15.341-11.154-15.34 11.145 5.859-18.033-15.34-11.145h18.961z" fill-rule="evenodd" fill="#fff"/>
            <path d="M356.078 439.766l4.897 15.07h15.845l-12.82 9.314 4.897 15.07-12.82-9.313-12.82 9.314 4.897-15.07-12.82-9.314h15.845z" fill-rule="evenodd" fill="#c00"/>
        </g>
    </g>
</svg>
