<?xml version="1.0" encoding="utf-8"?>
<!DOCTYPE svg PUBLIC "-//W3C//DTD SVG 1.1//EN" "http://www.w3.org/Graphics/SVG/1.1/DTD/svg11.dtd">
<svg version="1.1"
	 id="svg1" xmlns:rdf="http://www.w3.org/1999/02/22-rdf-syntax-ns#" xmlns:dc="http://purl.org/dc/elements/1.1/" xmlns:cc="http://creativecommons.org/ns#"
	 xmlns="http://www.w3.org/2000/svg" xmlns:xlink="http://www.w3.org/1999/xlink" x="0px" y="0px" width="512px" height="512px"
	 viewBox="-223 25 512 512" enable-background="new -223 25 512 512" xml:space="preserve">
<rect id="background" x="-223" y="25" fill="#00247D" width="512" height="512"/>
<g id="boat">
	<path fill="#FED100" d="M-132.3,409.2c-5.3,0,50-29.5,96.4-67.2c60.7-49.5,191.5-128.7,230-141.5c4-1.3-8.2,6.8-9.8,9.5
		c-41.1,48.6-8.3,140.3,43,186.4c15.4,11.8,14.6,12.4,43.2,13.6v2.7L-132.3,409.2L-132.3,409.2z"/>
	<path fill="#FED100" d="M-135.6,414.6c0,0-3.9,2.8-3.9,4.9c0,2.3,4.4,5.4,4.4,5.4l397.3,4.4l7.3-4.9l-10.2-6.3L-135.6,414.6
		L-135.6,414.6z"/>
</g>
<g id="stars">
	<polygon fill="#FFFFFF" points="-117.5,141.6 -121.5,153.7 -111.1,146.2 -100.8,153.7 -104.8,141.6 -94.4,134.1 -107.2,134.1
		-111.1,121.9 -115.1,134.1 -127.8,134.1 	"/>
	<polygon fill="#FFFFFF" points="-39.7,198.7 -31.1,192.5 -41.7,192.5 -45,182.4 -48.3,192.5 -58.9,192.5 -50.3,198.7 -53.6,208.8
		-45,202.6 -36.4,208.8 	"/>
	<polygon fill="#FFFFFF" points="-184.4,211.7 -188.3,199.6 -192.3,211.7 -205,211.7 -194.7,219.2 -198.7,231.3 -188.3,223.8
		-178,231.3 -181.9,219.2 -171.6,211.7 	"/>
	<polygon fill="#FFFFFF" points="-106.5,333.6 -111.1,319.4 -115.7,333.6 -130.6,333.6 -118.6,342.3 -123.2,356.5 -111.1,347.7
		-99.1,356.5 -103.7,342.3 -91.7,333.6 	"/>
</g>
</svg>
