<svg xmlns="http://www.w3.org/2000/svg" height="512" width="512"><defs><clipPath id="a"><rect fill-opacity=".67" height="512" width="512"/></clipPath></defs><g clip-path="url(#a)"><rect height="512" width="1024" fill="#006"/><path d="M0 0v28.622l454.76 227.38h57.24v-28.62l-454.76-227.38h-57.24zm512 0v28.621l-454.76 227.38h-57.24v-28.62l454.76-227.38h57.24z" fill="#fff"/><path d="M213.33 0v256h85.333v-256h-85.333zm-213.33 85.333v85.333h512v-85.333h-512z" fill="#fff"/><path d="M0 102.4v51.2h512v-51.2h-512zm230.4-102.4v256h51.2v-256h-51.2z" fill="#c00"/><path d="M0 256l170.67-85.333h38.162l-170.67 85.33h-38.16zm0-256l170.67 85.333h-38.162l-132.51-66.252v-19.081zm303.17 85.333l170.67-85.333h38.16l-170.67 85.333h-38.162zm208.83 170.67l-170.67-85.33h38.162l132.51 66.25v19.08z" fill="#c00"/><g transform="matrix(.694 0 0 .694 -177.29 177.11)"><g><path d="M767.997 68.224l7.673 23.615h24.83l-20.088 14.595 7.673 23.615-20.087-14.583-20.088 14.595 7.673-23.615-20.088-14.595h24.83z" fill="#fff"/><path d="M767.997 75.482l6.043 18.599h19.557l-15.822 11.495 6.043 18.599-15.821-11.494-15.821 11.494 6.042-18.603-15.821-11.494h19.557z" fill="#c00"/></g><g><path d="M649.697 187.254l7.673 23.615h24.83l-20.088 14.595 7.673 23.615-20.087-14.583-20.088 14.595 7.673-23.615-20.088-14.595h24.83z" fill="#fff"/><path d="M649.697 194.512l6.043 18.599h19.557l-15.822 11.495 6.043 18.599-15.821-11.494-15.821 11.494 6.042-18.603-15.821-11.494h19.557z" fill="#c00"/></g><g><path d="M869.397 161.945l6.422 19.767h20.784l-16.814 12.216 6.422 19.767-16.828-12.22-16.814 12.216 6.422-19.767-16.814-12.216h20.784z" fill="#fff"/><path d="M869.397 168.114l5.036 15.5h16.297l-13.185 9.579 5.036 15.5-13.184-9.574-13.185 9.579 5.036-15.5-13.185-9.579h16.297z" fill="#c00"/></g><path d="M768 372.02l8.437 25.966h27.302l-22.088 16.048 8.437 25.966-22.09-16.06-22.088 16.048 8.437-25.966-22.088-16.048h27.302z" fill-rule="evenodd" fill="#fff"/><path d="M768 378.2l7.051 21.699h22.816l-18.459 13.411 7.051 21.699-18.46-13.41-18.459 13.411 7.051-21.699-18.459-13.411h22.816z" fill-rule="evenodd" fill="#c00"/></g></g></svg>