<svg xmlns="http://www.w3.org/2000/svg" height="512" width="512" version="1"><defs><clipPath id="a"><rect fill-opacity=".67" height="496.06" width="496.06"/></clipPath></defs><g fill-rule="evenodd" clip-path="url(#a)" transform="scale(1.032 1.032)"><rect height="496.06" width="744.09" fill="#004e00"/><g><path d="M252.469 166.539h13.681" fill="#ffef00"/><path d="M255.117 133.217c27.032 13.035 59.219-.062 70.864-18.057 11.94-16.793 13.406-44.993-7.235-70.866 32.04 26.572 39.123 56.693 23.183 81.497-21.262 28.344-68.431 27.524-86.811 7.425z" fill="#fff"/><polygon transform="matrix(.448 0 0 .461 213.66 16.708)" points="185.66 128.9 189.08 117.26 179.36 110.01 191.48 109.66 195.37 98.165 199.45 109.59 211.58 109.74 201.98 117.15 205.58 128.74 205.58 128.74 195.57 121.89" fill="#feffff"/><polygon transform="matrix(.448 0 0 .461 186.81 50.369)" points="185.66 128.9 189.08 117.26 179.36 110.01 191.48 109.66 195.37 98.165 199.45 109.59 211.58 109.74 201.98 117.15 205.58 128.74 205.58 128.74 195.57 121.89" fill="#feffff"/><polygon transform="matrix(.448 0 0 .461 188.58 23.802)" points="185.66 128.9 189.08 117.26 179.36 110.01 191.48 109.66 195.37 98.165 199.45 109.59 211.58 109.74 201.98 117.15 205.58 128.74 205.58 128.74 195.57 121.89" fill="#feffff"/><polygon transform="matrix(.448 0 0 .461 188.58 -2.78)" points="185.66 128.9 189.08 117.26 179.36 110.01 191.48 109.66 195.37 98.165 199.45 109.59 211.58 109.74 201.98 117.15 205.58 128.74 205.58 128.74 195.57 121.89" fill="#feffff"/><polygon transform="matrix(.448 0 0 .461 158.74 30.888)" points="185.66 128.9 189.08 117.26 179.36 110.01 191.48 109.66 195.37 98.165 199.45 109.59 211.58 109.74 201.98 117.15 205.58 128.74 205.58 128.74 195.57 121.89" fill="#feffff"/></g><g><rect height="496.06" width="159.45" x="46.063" fill="#980000"/><g fill="#e69900"><path d="M46.064 129.33v-3.543l6.591-8.858-1.329-1.772 3.986-5.315-1.329-1.772-2.658 3.543-1.329-1.772 9.301-12.402 1.329 1.772-1.329 1.772 2.739 3.579 6.562-8.895-6.672-8.62-2.629 3.305 1.329 1.772-1.329 1.772-9.301-12.402 1.329-1.772 2.658 3.543 1.329-1.772-3.986-5.315 1.329-1.772-6.591-8.858v-3.543l9.249 12.402-1.329 1.772 3.986 5.315-2.658 3.543 2.658 3.543 3.986-5.314 9.354 12.613-9.354 12.191-3.986-5.315-2.658 3.543 2.658 3.543-3.986 5.315 1.329 1.772-9.249 12.402z"/><path d="M46.063 85.04l1.329 3.543v5.315h3.986l2.657 1.772-2.657 1.772h-3.986v5.315l-1.329 3.543v-21.26z"/></g><g fill="#e69900"><path d="M46.064 214.368v-3.543l6.591-8.858-1.329-1.772 3.986-5.315-1.329-1.772-2.658 3.543-1.329-1.772 9.301-12.402 1.329 1.772-1.329 1.772 2.739 3.579 6.562-8.895-6.672-8.62-2.629 3.305 1.329 1.772-1.329 1.772-9.301-12.402 1.329-1.772 2.658 3.543 1.329-1.772-3.986-5.315 1.329-1.772-6.591-8.858v-3.543l9.249 12.402-1.329 1.772 3.986 5.315-2.658 3.543 2.658 3.543 3.986-5.314 9.354 12.613-9.354 12.191-3.986-5.315-2.658 3.543 2.658 3.543-3.986 5.315 1.329 1.772-9.249 12.402z"/><path d="M46.063 170.078l1.329 3.543v5.315h3.986l2.657 1.772-2.657 1.772h-3.986v5.315l-1.329 3.543v-21.26z"/></g><g fill="#e69900"><path d="M46.065 299.409v-3.543l6.591-8.858-1.329-1.772 3.986-5.315-1.329-1.772-2.658 3.543-1.329-1.772 9.301-12.402 1.329 1.772-1.329 1.772 2.739 3.579 6.562-8.895-6.672-8.62-2.629 3.305 1.329 1.772-1.329 1.772-9.301-12.402 1.329-1.772 2.658 3.543 1.329-1.772-3.986-5.315 1.329-1.772-6.591-8.858v-3.543l9.249 12.402-1.329 1.772 3.986 5.315-2.658 3.543 2.658 3.543 3.986-5.314 9.354 12.613-9.354 12.191-3.986-5.315-2.658 3.543 2.658 3.543-3.986 5.315 1.329 1.772-9.249 12.402z"/><path d="M46.064 255.119l1.329 3.543v5.315h3.986l2.657 1.772-2.657 1.772h-3.986v5.315l-1.329 3.543v-21.26z"/></g><g fill="#e69900"><path d="M46.065 379.13v-3.543l6.591-8.858-1.329-1.772 3.986-5.315-1.329-1.772-2.658 3.543-1.329-1.772 9.301-12.402 1.329 1.772-1.329 1.772 2.739 3.579 6.562-8.895-6.672-8.62-2.629 3.305 1.329 1.772-1.329 1.772-9.301-12.402 1.329-1.772 2.658 3.543 1.329-1.772-3.986-5.315 1.329-1.772-6.591-8.858v-3.543l9.249 12.402-1.329 1.772 3.986 5.315-2.658 3.543 2.658 3.543 3.986-5.314 9.354 12.613-9.354 12.191-3.986-5.315-2.658 3.543 2.658 3.543-3.986 5.315 1.329 1.772-9.249 12.402z"/><path d="M46.064 334.84l1.329 3.543v5.315h3.986l2.657 1.772-2.657 1.772h-3.986v5.315l-1.329 3.543v-21.26z"/></g><g fill="#e69900"><path d="M205.509 129.33v-3.543l-6.591-8.858 1.329-1.772-3.986-5.315 1.329-1.772 2.658 3.543 1.329-1.772-9.301-12.402-1.329 1.772 1.329 1.772-2.739 3.579-6.562-8.895 6.672-8.62 2.629 3.305-1.329 1.772 1.329 1.772 9.301-12.402-1.329-1.772-2.658 3.543-1.329-1.772 3.986-5.315-1.329-1.772 6.591-8.858v-3.543l-9.249 12.402 1.329 1.772-3.986 5.315 2.658 3.543-2.658 3.543-3.986-5.314-9.354 12.613 9.354 12.191 3.986-5.315 2.658 3.543-2.658 3.543 3.986 5.315-1.329 1.772 9.249 12.402z"/><path d="M205.51 85.04l-1.329 3.543v5.315h-3.986l-2.657 1.772 2.657 1.772h3.986v5.315l1.329 3.543v-21.26z"/></g><g fill="#e69900"><path d="M205.949 214.369v-3.543l-6.591-8.858 1.329-1.772-3.986-5.315 1.329-1.772 2.658 3.543 1.329-1.772-9.301-12.402-1.329 1.772 1.329 1.772-2.739 3.579-6.562-8.895 6.672-8.62 2.629 3.305-1.329 1.772 1.329 1.772 9.301-12.402-1.329-1.772-2.658 3.543-1.329-1.772 3.986-5.315-1.329-1.772 6.591-8.858v-3.543l-9.249 12.402 1.329 1.772-3.986 5.315 2.658 3.543-2.658 3.543-3.986-5.314-9.354 12.613 9.354 12.191 3.986-5.315 2.658 3.543-2.658 3.543 3.986 5.315-1.329 1.772 9.249 12.402z"/><path d="M205.95 170.079l-1.329 3.543v5.315h-3.986l-2.657 1.772 2.657 1.772h3.986v5.315l1.329 3.543v-21.26z"/></g><g fill="#e69900"><path d="M205.509 299.409v-3.543l-6.591-8.858 1.329-1.772-3.986-5.315 1.329-1.772 2.658 3.543 1.329-1.772-9.301-12.402-1.329 1.772 1.329 1.772-2.739 3.579-6.562-8.895 6.672-8.62 2.629 3.305-1.329 1.772 1.329 1.772 9.301-12.402-1.329-1.772-2.658 3.543-1.329-1.772 3.986-5.315-1.329-1.772 6.591-8.858v-3.543l-9.249 12.402 1.329 1.772-3.986 5.315 2.658 3.543-2.658 3.543-3.986-5.314-9.354 12.613 9.354 12.191 3.986-5.315 2.658 3.543-2.658 3.543 3.986 5.315-1.329 1.772 9.249 12.402z"/><path d="M205.51 255.119l-1.329 3.543v5.315h-3.986l-2.657 1.772 2.657 1.772h3.986v5.315l1.329 3.543v-21.26z"/></g><g fill="#e69900"><path d="M205.509 379.13v-3.543l-6.591-8.858 1.329-1.772-3.986-5.315 1.329-1.772 2.658 3.543 1.329-1.772-9.301-12.402-1.329 1.772 1.329 1.772-2.739 3.579-6.562-8.895 6.672-8.62 2.629 3.305-1.329 1.772 1.329 1.772 9.301-12.402-1.329-1.772-2.658 3.543-1.329-1.772 3.986-5.315-1.329-1.772 6.591-8.858v-3.543l-9.249 12.402 1.329 1.772-3.986 5.315 2.658 3.543-2.658 3.543-3.986-5.314-9.354 12.613 9.354 12.191 3.986-5.315 2.658 3.543-2.658 3.543 3.986 5.315-1.329 1.772 9.249 12.402z"/><path d="M205.51 334.84l-1.329 3.543v5.315h-3.986l-2.657 1.772 2.657 1.772h3.986v5.315l1.329 3.543v-21.26z"/></g><g fill="#e69900"><path d="M46.067 33.66v-3.543l6.591-8.858-1.329-1.772 3.986-5.315-1.329-1.772-2.658 3.543-1.329-1.772 9.301-12.402 1.329 1.772-1.329 1.772 2.739 3.579 6.562-8.895 2.71-.001-9.354 12.402-3.986-5.315-2.658 3.543 2.658 3.543-3.986 5.315 1.329 1.772-9.249 12.402z"/><path d="M46.067 0h7.973l-2.657 1.772h-3.986v5.315l-1.329 3.543v-10.63z"/></g><g fill="#e69900"><path d="M205.506 33.66v-3.543l-6.591-8.858 1.329-1.772-3.986-5.315 1.329-1.772 2.658 3.543 1.329-1.772-9.301-12.402-1.329 1.772 1.329 1.772-2.739 3.579-6.562-8.895-2.71-.001 9.354 12.402 3.986-5.315 2.658 3.543-2.658 3.543 3.986 5.315-1.329 1.772 9.249 12.402z"/><path d="M205.506 0h-7.973l2.657 1.772h3.986v5.315l1.329 3.543v-10.63z"/></g><path d="M112.51 488.996s5.72-10.044 20.136-13.087c14.415-3.044 16.933 6.696 25.17 6.696 8.238 0 21.28-6.696 21.28-6.696s-13.043 12.783-23.111 12.479c-10.068-.304-13.501-6.696-23.797-5.782-10.297.913-19.679 6.696-19.679 6.391z" fill="#e69900"/><path d="M140.34 488.996s-5.72-10.044-20.136-13.087c-14.415-3.044-16.933 6.696-25.17 6.696-8.238 0-21.28-6.696-21.28-6.696s13.043 12.783 23.111 12.479c10.068-.304 13.501-6.696 23.797-5.782 10.297.913 19.679 6.696 19.679 6.391z" fill="#e69900"/><g fill="#e69900"><path d="M93.291 472.558c-1.27-2.659-4.446-14.262-2.752-15.713 2.541-.967 9.315 10.879 8.68 21.516-4.446 2.417-19.476-.967-19.264-4.11 1.059-4.351 9.526-2.901 13.337-1.692z"/><path d="M83.877 462.394c-.828-2.951-2.127-15.175-.247-16.127 2.632-.245 7.41 13.207 5.137 23.436-4.719 1.139-18.878-6.313-18.183-9.329 1.71-3.964 9.758-.212 13.294 2.02z"/><path d="M76.511 451.084c-.56-3.062-.763-15.409 1.189-16.058 2.636.172 6.184 14.288 3.017 24.09-4.788.386-18.185-9.251-17.227-12.137 2.051-3.668 9.709 1.33 13.021 4.105z"/><path d="M71.02 438.724c-.201-3.138 1.019-15.367 3.022-15.604 2.585.715 4.466 15.382.21 24.401-4.775-.608-16.903-12.891-15.625-15.541 2.448-3.196 9.44 3.32 12.393 6.744z"/><path d="M67.127 426.233c.138-3.145 2.657-15.022 4.665-14.875 2.482 1.201 2.772 16.083-2.409 24.202-4.662-1.513-15.351-15.99-13.801-18.37 2.767-2.698 8.989 5.089 11.546 9.043z"/><path d="M67.944 411.947c-.356 12.594-2.643 12.745-6.808 3.443-1.844-3.514-2.058-18.118-.392-18.665 2.406-.054 7.139 10.354 7.2 15.223z"/></g><g fill="#e69900"><path d="M158.842 473.884c1.27-2.659 4.446-14.262 2.752-15.713-2.541-.967-9.315 10.879-8.68 21.516 4.446 2.417 19.476-.967 19.264-4.11-1.059-4.351-9.526-2.901-13.337-1.692z"/><path d="M168.256 463.72c.828-2.951 2.127-15.175.247-16.127-2.632-.245-7.41 13.207-5.137 23.436 4.719 1.139 18.878-6.313 18.183-9.329-1.71-3.964-9.758-.212-13.294 2.02z"/><path d="M175.622 452.41c.56-3.062.763-15.409-1.189-16.058-2.636.172-6.184 14.288-3.017 24.09 4.788.386 18.185-9.251 17.227-12.137-2.051-3.668-9.709 1.33-13.021 4.105z"/><path d="M181.113 440.05c.201-3.138-1.019-15.367-3.022-15.604-2.585.715-4.466 15.382-.21 24.401 4.775-.608 16.903-12.891 15.625-15.541-2.448-3.196-9.44 3.32-12.393 6.744z"/><path d="M185.006 427.559c-.138-3.145-2.657-15.022-4.665-14.875-2.482 1.201-2.772 16.083 2.409 24.202 4.662-1.513 15.351-15.99 13.801-18.37-2.767-2.698-8.989 5.089-11.546 9.043z"/><path d="M184.189 413.273c.356 12.594 2.643 12.745 6.808 3.443 1.844-3.514 2.058-18.118.392-18.665-2.406-.054-7.139 10.354-7.2 15.223z"/></g><g transform="matrix(.969 0 0 1.226 182.42 -74.639)"><path d="M-3.543 290.55h-5.315v3.543h-5.315v3.543h-21.26l-3.543 3.544 1.772 1.771h8.858l1.772-1.771h-8.858l1.772-1.772h12.402l-5.315 5.315h-12.402l-3.543-1.772-3.543 1.771-12.402.001-5.315-5.317 12.402.002 1.772 1.772-8.858-.002 1.772 1.773h8.858l1.772-1.771-3.543-3.544h-19.488v-3.543h-5.315v-3.543h-5.315v-15.945h5.315v-3.543h5.315v-3.543h19.488l3.543-3.544-1.772-1.771h-8.858l-1.772 1.773 8.858-.002-1.772 1.772-12.402.002 5.315-5.317 12.402.001 3.543 1.771 3.543-1.772h12.402l5.315 5.315h-12.402l-1.772-1.772h8.858l-1.772-1.771h-8.858l-1.772 1.771 3.543 3.544h21.26v3.543h5.315v3.543h5.315v15.945z" transform="matrix(1.488 0 0 1.24 3.502 -39.474)" stroke="#000" stroke-width=".125" fill="#980000"/><path d="M375.59 499.67v24.803h10.629v7.019h10.63v7.087h35.433l14.174 10.63 14.173-10.63h38.976v-7.019l10.63-.068v-7.087h10.63v-24.803h-10.63v-7.086l-10.63.068v-7.155h-38.976l-14.173-10.63-14.174 10.63h-35.433v7.155h-10.63v7.086h-10.629z" transform="matrix(.744 0 0 .62 -392.03 -6.521)" stroke="#e69900" stroke-width="1pt" fill="#004e00"/><path d="M-75.6 296.644l-15.821 10.984v-10.984h15.821z" fill="#980000"/><path d="M-43.97 296.644l15.821 10.985v-10.985h-15.821z" fill="#980000"/><path d="M-75.6 325.208l-15.821-10.984v10.984h15.821z" fill="#980000"/><path d="M-43.965 325.208l15.821-10.985v10.985h-15.821z" fill="#980000"/><path d="M-38.689 303.233l-5.273 4.394h10.547l-5.274-4.394z" fill="#980000"/><path d="M-80.877 303.233l-5.273 4.394h10.547l-5.274-4.394z" fill="#980000"/><path d="M-80.877 318.622l-5.273-4.394h10.547l-5.274 4.394z" fill="#980000"/><path d="M-38.687 318.622l-5.273-4.394h10.547l-5.274 4.394z" fill="#980000"/><path d="M-59.787 329.602l-5.273-4.394h10.547l-5.274 4.394z" fill="#e69900"/><path d="M-59.787 307.632l-5.273-4.394h10.547l-5.274 4.394z" fill="#e69900"/><path d="M-59.787 292.249l-5.273 4.394h10.547l-5.274-4.394z" fill="#e69900"/><path d="M-59.787 314.217l-5.273 4.394h10.547l-5.274-4.394z" fill="#e69900"/><rect transform="matrix(.744 0 0 .62 -392.03 -6.521)" height="3.543" width="14.173" stroke="#000" y="506.69" x="467.72" stroke-width=".125" fill="#e69900"/><rect transform="matrix(.744 0 0 .62 -392.03 -6.521)" height="3.543" width="7.087" stroke="#000" y="510.24" x="414.57" stroke-width=".125" fill="#c00"/><rect transform="matrix(.744 0 0 .62 -392.03 -6.521)" height="3.543" width="7.087" stroke="#000" y="510.24" x="471.26" stroke-width=".125" fill="#c00"/><rect transform="matrix(.744 0 0 .62 -392.03 -6.521)" height="3.543" width="14.173" stroke="#000" y="488.98" x="439.37" stroke-width=".125" fill="#900"/><rect transform="matrix(.744 0 0 .62 -392.03 -6.521)" height="3.543" width="14.173" stroke="#000" y="496.06" x="439.37" stroke-width=".125" fill="#900"/><rect transform="matrix(.744 0 0 .62 -392.03 -6.521)" height="3.543" width="21.26" stroke="#000" y="492.52" x="435.83" stroke-width=".125" fill="#900"/><rect transform="matrix(.744 0 0 .62 -392.03 -6.521)" height="3.543" width="14.173" stroke="#000" y="524.41" x="439.37" stroke-width=".125" fill="#900"/><rect transform="matrix(.744 0 0 .62 -392.03 -6.521)" height="3.543" width="14.173" stroke="#000" y="531.5" x="439.37" stroke-width=".125" fill="#900"/><rect transform="matrix(.744 0 0 .62 -392.03 -6.521)" height="3.543" width="21.26" stroke="#000" y="527.95" x="435.83" stroke-width=".125" fill="#900"/><rect transform="matrix(.744 0 0 .62 -392.03 -6.521)" height="3.543" width="14.173" stroke="#000" y="513.78" x="467.72" stroke-width=".125" fill="#e69900"/><rect transform="matrix(.744 0 0 .62 -392.03 -6.521)" height="3.543" width="14.173" stroke="#000" y="506.69" x="411.02" stroke-width=".125" fill="#e69900"/><rect transform="matrix(.744 0 0 .62 -392.03 -6.521)" height="3.543" width="14.173" stroke="#000" y="513.78" x="411.02" stroke-width=".125" fill="#e69900"/><rect transform="matrix(.744 0 0 .62 -392.03 -6.521)" height="3.543" width="7.087" stroke="#000" y="510.24" x="407.48" stroke-width=".125" fill="#e69900"/><rect transform="matrix(.744 0 0 .62 -392.03 -6.521)" height="3.543" width="7.087" stroke="#000" y="510.24" x="421.65" stroke-width=".125" fill="#e69900"/><rect transform="matrix(.744 0 0 .62 -392.03 -6.521)" height="3.543" width="7.087" stroke="#000" y="510.24" x="464.17" stroke-width=".125" fill="#e69900"/><rect transform="matrix(.744 0 0 .62 -392.03 -6.521)" height="3.543" width="7.087" stroke="#000" y="510.24" x="478.35" stroke-width=".125" fill="#e69900"/><ellipse fill="#fff" transform="matrix(.744 0 0 .62 -374.14 -38.912)" cx="413.68" rx=".886" cy="581.99" ry=".886"/><ellipse fill="#fff" transform="matrix(.744 0 0 .62 -367.57 -38.912)" cx="413.68" rx=".886" cy="581.99" ry=".886"/><ellipse fill="#fff" transform="matrix(.744 0 0 .62 -361 -38.958)" cx="413.68" rx=".886" cy="581.99" ry=".886"/><ellipse fill="#fff" transform="matrix(.744 0 0 .62 -371.51 -41.102)" cx="413.68" rx=".886" cy="581.99" ry=".886"/><ellipse fill="#fff" transform="matrix(.744 0 0 .62 -363.68 -41.148)" cx="413.68" rx=".886" cy="581.99" ry=".886"/><ellipse fill="#fff" transform="matrix(.744 0 0 .62 -371.57 -36.768)" cx="413.68" rx=".886" cy="581.99" ry=".886"/><ellipse fill="#fff" transform="matrix(.744 0 0 .62 -363.68 -36.677)" cx="413.68" rx=".886" cy="581.99" ry=".886"/><ellipse fill="#fff" transform="matrix(.744 0 0 .62 -353.17 -49.999)" cx="413.68" rx=".886" cy="581.99" ry=".886"/><ellipse fill="#fff" transform="matrix(.744 0 0 .62 -346.59 -49.999)" cx="413.68" rx=".886" cy="581.99" ry=".886"/><ellipse fill="#fff" transform="matrix(.744 0 0 .62 -340.02 -50.045)" cx="413.68" rx=".886" cy="581.99" ry=".886"/><ellipse fill="#fff" transform="matrix(.744 0 0 .62 -350.54 -52.189)" cx="413.68" rx=".886" cy="581.99" ry=".886"/><ellipse fill="#fff" transform="matrix(.744 0 0 .62 -342.71 -52.235)" cx="413.68" rx=".886" cy="581.99" ry=".886"/><ellipse fill="#fff" transform="matrix(.744 0 0 .62 -350.59 -47.855)" cx="413.68" rx=".886" cy="581.99" ry=".886"/><ellipse fill="#fff" transform="matrix(.744 0 0 .62 -342.71 -47.764)" cx="413.68" rx=".886" cy="581.99" ry=".886"/><ellipse fill="#fff" transform="matrix(.744 0 0 .62 -374.2 -60.904)" cx="413.68" rx=".886" cy="581.99" ry=".886"/><ellipse fill="#fff" transform="matrix(.744 0 0 .62 -367.62 -60.904)" cx="413.68" rx=".886" cy="581.99" ry=".886"/><ellipse fill="#fff" transform="matrix(.744 0 0 .62 -361.05 -60.949)" cx="413.68" rx=".886" cy="581.99" ry=".886"/><ellipse fill="#fff" transform="matrix(.744 0 0 .62 -371.57 -63.094)" cx="413.68" rx=".886" cy="581.99" ry=".886"/><ellipse fill="#fff" transform="matrix(.744 0 0 .62 -363.74 -63.139)" cx="413.68" rx=".886" cy="581.99" ry=".886"/><ellipse fill="#fff" transform="matrix(.744 0 0 .62 -371.62 -58.759)" cx="413.68" rx=".886" cy="581.99" ry=".886"/><ellipse fill="#fff" transform="matrix(.744 0 0 .62 -363.74 -58.668)" cx="413.68" rx=".886" cy="581.99" ry=".886"/><ellipse fill="#fff" transform="matrix(.744 0 0 .62 -395.28 -49.817)" cx="413.68" rx=".886" cy="581.99" ry=".886"/><ellipse fill="#fff" transform="matrix(.744 0 0 .62 -388.71 -49.817)" cx="413.68" rx=".886" cy="581.99" ry=".886"/><ellipse fill="#fff" transform="matrix(.744 0 0 .62 -382.14 -49.862)" cx="413.68" rx=".886" cy="581.99" ry=".886"/><ellipse fill="#fff" transform="matrix(.744 0 0 .62 -392.65 -52.007)" cx="413.68" rx=".886" cy="581.99" ry=".886"/><ellipse fill="#fff" transform="matrix(.744 0 0 .62 -384.82 -52.052)" cx="413.68" rx=".886" cy="581.99" ry=".886"/><ellipse fill="#fff" transform="matrix(.744 0 0 .62 -392.71 -47.672)" cx="413.68" rx=".886" cy="581.99" ry=".886"/><ellipse fill="#fff" transform="matrix(.744 0 0 .62 -384.82 -47.581)" cx="413.68" rx=".886" cy="581.99" ry=".886"/></g><g transform="matrix(1 0 0 1.162 193.11 -34.284)"><path d="M-58.535 242.716l4.394-1.771 4.394 1.771h-8.787z" fill="#fff"/><path d="M-71.716 242.716l4.394-1.771 4.394 1.771h-8.787z" fill="#fff"/><path d="M-84.897 242.716l4.394-1.771 4.394 1.771h-8.787z" fill="#fff"/><path d="M-58.535 201.974l4.394 1.771 4.394-1.771h-8.787z" fill="#fff"/><path d="M-71.716 201.974l4.394 1.771 4.394-1.771h-8.787z" fill="#fff"/><path d="M-84.897 201.974l4.394 1.771 4.394-1.771h-8.787z" fill="#fff"/><path d="M-62.198 248.033l-5.126 3.544-5.126-3.544-5.126 3.544-5.126-3.544v1.771l3.417 1.773-1.709 1.771v1.772h1.709l1.709-1.772 1.708 1.772h1.709v-1.772l-1.709-1.771 3.418-1.772 3.418 1.772-1.709 1.771v1.772h1.709l1.709-1.772 1.708 1.772h1.709v-1.772l-1.709-1.771 3.417-1.772 3.418 1.771-1.709 1.772v1.772h1.709l1.708-1.772 1.708 1.772h1.709v-1.772l-1.709-1.772 3.417-1.772v-1.771l-5.126 3.543-5.126-3.543z" fill="#004e00"/><path d="M-62.197 196.649l-5.126-3.544-5.126 3.544-5.126-3.544-5.126 3.544v-1.771l3.417-1.773-1.709-1.771v-1.772h1.709l1.709 1.772 1.708-1.772h1.709v1.772l-1.709 1.771 3.418 1.772 3.418-1.772-1.709-1.771v-1.772h1.709l1.709 1.772 1.708-1.772h1.709v1.772l-1.709 1.771 3.417 1.772 3.418-1.771-1.709-1.772v-1.772h1.709l1.708 1.772 1.708-1.772h1.709v1.772l-1.709 1.772 3.417 1.772v1.771l-5.126-3.543-5.126 3.543z" fill="#004e00"/><path d="M-23.372 226.181l5.493-3.839-5.493-3.839 5.493-3.839-5.493-3.838h2.745l2.748 2.559 2.745-1.28h2.746v1.28l-2.746 1.279 2.746 1.279v1.28h-2.746l-2.745-1.28-2.746 2.559 2.746 2.559 2.745-1.28h2.746v1.28l-2.746 1.279 2.746 1.279v1.28h-2.746l-2.745-1.28-2.746 2.559 2.745 2.559 2.746-1.28h2.746v1.28l-2.746 1.279 2.746 1.279v1.28h-2.746l-2.746-1.28-2.746 2.559h-2.745l5.491-3.838-5.491-3.839z" fill="#004e00"/><path d="M-111.268 226.181l-5.493-3.839 5.493-3.839-5.493-3.839 5.493-3.838h-2.745l-2.748 2.559-2.745-1.28h-2.746v1.28l2.746 1.279-2.746 1.279v1.28h2.746l2.745-1.28 2.746 2.559-2.746 2.559-2.745-1.28h-2.746v1.28l2.746 1.279-2.746 1.279v1.28h2.746l2.745-1.28 2.746 2.559-2.745 2.559-2.746-1.28h-2.746v1.28l2.746 1.279-2.746 1.279v1.28h2.746l2.746-1.28 2.746 2.559h2.745l-5.491-3.838 5.491-3.839z" fill="#004e00"/><rect transform="matrix(1.24 0 0 1 11.764 24.803)" height="1.772" width="1.772" stroke="#000" y="214.37" x="-26.575" stroke-width=".25" fill="#004e00"/><rect transform="matrix(1.24 0 0 1 11.764 24.803)" height="1.772" width="1.772" stroke="#000" y="216.14" x="-28.346" stroke-width=".25" fill="#004e00"/><rect transform="matrix(1.24 0 0 1 11.764 24.803)" height="1.772" width="1.772" stroke="#000" y="225" x="-37.205" stroke-width=".25" fill="#004e00"/><rect transform="matrix(1.24 0 0 1 11.764 24.803)" height="1.772" width="1.772" stroke="#000" y="223.23" x="-35.433" stroke-width=".25" fill="#004e00"/><rect transform="matrix(1.24 0 0 1 11.764 24.803)" height="1.772" width="1.772" stroke="#000" y="223.23" x="-93.898" stroke-width=".25" fill="#004e00"/><rect transform="matrix(1.24 0 0 1 11.764 24.803)" height="1.772" width="1.772" stroke="#000" y="214.37" x="-102.76" stroke-width=".25" fill="#004e00"/><rect transform="matrix(1.24 0 0 1 11.764 24.803)" height="1.772" width="1.772" stroke="#000" y="216.14" x="-100.98" stroke-width=".25" fill="#004e00"/><rect transform="matrix(1.24 0 0 1 11.764 24.803)" height="1.772" width="1.772" stroke="#000" y="177.17" x="-100.98" stroke-width=".25" fill="#004e00"/><rect transform="matrix(1.24 0 0 1 11.764 24.803)" height="1.772" width="1.772" stroke="#000" y="178.94" x="-102.76" stroke-width=".25" fill="#004e00"/><rect transform="matrix(1.24 0 0 1 11.764 24.803)" height="1.772" width="1.772" stroke="#000" y="168.31" x="-92.126" stroke-width=".25" fill="#004e00"/><rect transform="matrix(1.24 0 0 1 11.764 24.803)" height="1.772" width="1.772" stroke="#000" y="170.08" x="-93.898" stroke-width=".25" fill="#004e00"/><rect transform="matrix(1.24 0 0 1 11.764 24.803)" height="1.772" width="1.772" stroke="#000" y="168.31" x="-37.205" stroke-width=".25" fill="#004e00"/><rect transform="matrix(1.24 0 0 1 11.764 24.803)" height="1.772" width="1.772" stroke="#000" y="170.08" x="-35.433" stroke-width=".25" fill="#004e00"/><rect transform="matrix(1.24 0 0 1 11.764 24.803)" height="1.772" width="1.772" stroke="#000" y="177.17" x="-28.346" stroke-width=".25" fill="#004e00"/><rect transform="matrix(1.24 0 0 1 11.764 24.803)" height="1.772" width="1.772" stroke="#000" y="178.94" x="-26.575" stroke-width=".25" fill="#004e00"/><rect transform="matrix(1.24 0 0 1 11.764 24.803)" height="1.772" width="1.772" stroke="#000" y="225" x="-92.126" stroke-width=".25" fill="#004e00"/><path d="M-74.025 222.34l-6.475-.001-.001-3.482 4.318.002v-3.265h4.318v-2.998h4.318v3.748c-3.575 0-6.477 2.539-6.477 5.996z" fill="#fff"/><path d="M-61.075 222.34l6.475-.001.001-3.482-4.318.002v-3.265h-4.318v-2.998h-4.318v3.748c3.575 0 6.477 2.539 6.477 5.996z" fill="#e69900"/><path d="M-61.075 222.34l6.475.001.001 3.482-4.318-.002v3.265h-4.318v2.998h-4.318v-3.748c3.575 0 6.477-2.539 6.477-5.996z" fill="#fff"/><path d="M-74.025 222.34l-6.475.001-.001 3.482 4.318-.002v3.265h4.318v2.998h4.318v-3.748c-3.575 0-6.477-2.539-6.477-5.996z" fill="#e69900"/><path d="M-61.076 222.343h-6.476v-5.996c3.575 0 6.476 2.687 6.476 5.996z" fill="#004e00"/><path d="M-61.076 222.337h-6.476v5.996c3.575 0 6.476-2.687 6.476-5.996z" fill="#980000"/><path d="M-74.024 222.337h6.476v5.996c-3.575 0-6.476-2.687-6.476-5.996z" fill="#004e00"/><path d="M-74.024 222.343h6.476v-5.996c-3.575 0-6.476 2.687-6.476 5.996z" fill="#980000"/><path d="M-60.732 244.484l-6.59-3.544-6.591 3.544-6.59-3.544-6.59 3.544v-1.771l4.393-1.773-2.197-1.771v-1.772h2.197l2.197 1.772 2.197-1.772h2.197v1.772l-2.197 1.771 4.394 1.772 4.394-1.772-2.197-1.771v-1.772h2.197l2.197 1.772 2.197-1.772h2.197v1.772l-2.197 1.771 4.394 1.772 4.394-1.771-2.197-1.772v-1.772h2.197l2.197 1.772 2.197-1.772h2.197v1.772l-2.197 1.772 4.394 1.772v1.771l-6.59-3.543-6.591 3.543z" fill="#004e00"/><path d="M-60.732 200.2l-6.59 3.544-6.591-3.544-6.59 3.544-6.59-3.544v1.771l4.393 1.773-2.197 1.771v1.772h2.197l2.197-1.772 2.197 1.772h2.197v-1.772l-2.197-1.771 4.394-1.772 4.394 1.772-2.197 1.771v1.772h2.197l2.197-1.772 2.197 1.772h2.197v-1.772l-2.197-1.771 4.394-1.772 4.394 1.771-2.197 1.772v1.772h2.197l2.197-1.772 2.197 1.772h2.197v-1.772l-2.197-1.772 4.394-1.772v-1.771l-6.59 3.543-6.591-3.543z" fill="#004e00"/><path d="M-36.573 226.769l-3.296-4.429 3.296-4.429-3.296-4.429 3.296-4.429h-1.647l-1.649 2.953-1.647-1.477h-1.648v1.477l1.648 1.476-1.648 1.476v1.477h1.648l1.647-1.477 1.648 2.953-1.648 2.953-1.647-1.477h-1.648v1.477l1.648 1.476-1.648 1.476v1.477h1.648l1.647-1.477 1.648 2.953-1.647 2.953-1.648-1.477h-1.648v1.477l1.648 1.476-1.648 1.476v1.477h1.648l1.648-1.477 1.648 2.953h1.647l-3.295-4.429 3.295-4.429z" fill="#004e00"/><path d="M-100.98 177.17l-7.087 7.086v26.575l7.087 7.087h31.889l7.087-7.087v-26.575l-7.087-7.086h-31.889zm-1.772-5.316l-17.717 17.716v15.945l17.717 17.717h35.433l17.716-17.717v-15.945l-17.716-17.716h-35.433z" transform="matrix(1.24 0 0 1 38.127 24.804)" stroke="#000" stroke-width=".4" fill="#004e00"/><path d="M-93.898 147.05l3.543 5.315 3.543-5.315h-7.087z" transform="matrix(.992 0 0 .667 15.279 146.46)" stroke="#000" stroke-width=".25" fill="#e69900"/><path d="M-93.898 147.05l3.543 5.315 3.543-5.315h-7.087z" transform="matrix(.992 0 0 -.667 15.279 298.23)" stroke="#000" stroke-width=".25" fill="#e69900"/><path d="M-93.898 147.05l3.543 5.315 3.543-5.315h-7.087z" transform="matrix(.992 0 0 -.667 29.339 298.23)" stroke="#000" stroke-width=".25" fill="#e69900"/><path d="M-93.898 147.05l3.543 5.315 3.543-5.315h-7.087z" transform="matrix(.992 0 0 .667 29.339 146.46)" stroke="#000" stroke-width=".25" fill="#e69900"/><path d="M-93.898 147.05l3.543 5.315 3.543-5.315h-7.087z" transform="matrix(.992 0 0 -.667 8.249 298.23)" stroke="#000" stroke-width=".25" fill="#980000"/><path d="M-93.898 147.05l3.543 5.315 3.543-5.315h-7.087z" transform="matrix(.992 0 0 -.667 22.309 298.23)" stroke="#000" stroke-width=".25" fill="#980000"/><path d="M-93.898 147.05l3.543 5.315 3.543-5.315h-7.087z" transform="matrix(.992 0 0 -.667 36.369 298.23)" stroke="#000" stroke-width=".25" fill="#980000"/><path d="M-104.53 180.71l3.544-3.544h-3.544v3.544z" transform="matrix(1.86 0 0 -1.5 100.72 510.22)" stroke="#000" stroke-width=".25" fill="#980000"/><path d="M-98.077 226.769l3.296-4.429-3.296-4.429 3.296-4.429-3.296-4.429h1.647l1.649 2.953 1.647-1.477h1.648v1.477l-1.648 1.476 1.648 1.476v1.477h-1.648l-1.647-1.477-1.648 2.953 1.648 2.953 1.647-1.477h1.648v1.477l-1.648 1.476 1.648 1.476v1.477h-1.648l-1.647-1.477-1.648 2.953 1.647 2.953 1.648-1.477h1.648v1.477l-1.648 1.476 1.648 1.476v1.477h-1.648l-1.648-1.477-1.648 2.953h-1.647l3.295-4.429-3.295-4.429z" fill="#004e00"/><path d="M-76.181 154.13h7.087l1.772 1.772-1.772 1.771h-7.087v-3.543z" transform="matrix(1.24 0 0 .9 60.095 78.836)" stroke="#000" stroke-width=".25" fill="#980000"/><path d="M-99.213 180.71l-3.543 3.544v26.575l3.543 3.543h-5.316l.001-33.662h5.315z" transform="matrix(1.24 0 0 1 29.339 24.804)" stroke="#000" stroke-width=".375" fill="#980000"/><path d="M-93.898 147.05l3.543 5.315 3.543-5.315h-7.087z" transform="matrix(.992 0 0 .667 8.249 146.46)" stroke="#000" stroke-width=".25" fill="#980000"/><path d="M-93.898 147.05l3.543 5.315 3.543-5.315h-7.087z" transform="matrix(.992 0 0 .667 22.309 146.46)" stroke="#000" stroke-width=".25" fill="#980000"/><path d="M-93.898 147.05l3.543 5.315 3.543-5.315h-7.087z" transform="matrix(.992 0 0 .667 36.369 146.46)" stroke="#000" stroke-width=".25" fill="#980000"/><path d="M-99.212 180.71l-3.544 3.544v26.575l3.544 3.543h-5.315v-33.662h5.315z" transform="matrix(-1.24 0 0 1 -163.98 24.804)" stroke="#000" stroke-width=".375" fill="#980000"/><path d="M-104.53 180.71l3.544-3.544h-3.544v3.544z" transform="matrix(-1.86 0 0 -1.5 -235.37 510.22)" stroke="#000" stroke-width=".25" fill="#980000"/><path d="M-104.53 180.71l3.544-3.544h-3.544v3.544z" transform="matrix(-1.86 0 0 1.5 -235.37 -65.534)" stroke="#000" stroke-width=".25" fill="#980000"/><path d="M-104.53 180.71l3.544-3.544h-3.544v3.544z" transform="matrix(1.86 0 0 1.5 100.72 -65.534)" stroke="#000" stroke-width=".25" fill="#980000"/><path d="M-100.98 177.17l-7.087 7.086v26.575l7.087 7.087h31.889l7.087-7.087v-26.575l-7.087-7.086h-31.889zm-.001-1.773l-8.858 8.858v26.575l8.859 8.858h31.889l8.858-8.858v-26.575l-8.859-8.858h-31.889z" transform="matrix(1.24 0 0 1 38.127 24.804)" stroke="#000" stroke-width=".4" fill="#004e00"/><path d="M-76.181 154.13h7.087l1.772 1.772-1.772 1.771h-7.087v-3.543z" transform="matrix(1.24 0 0 .9 60.094 82.014)" stroke="#000" stroke-width=".25" fill="#e69900"/><path d="M-76.181 154.13h7.087l1.772 1.772-1.772 1.771h-7.087v-3.543z" transform="matrix(1.24 0 0 .9 60.095 85.214)" stroke="#000" stroke-width=".25" fill="#980000"/><path d="M-76.181 154.13h7.087l1.772 1.772-1.772 1.771h-7.087v-3.543z" transform="matrix(1.24 0 0 .9 60.095 88.392)" stroke="#000" stroke-width=".25" fill="#e69900"/><path d="M-76.181 154.13h7.087l1.772 1.772-1.772 1.771h-7.087v-3.543z" transform="matrix(1.24 0 0 .9 60.095 75.636)" stroke="#000" stroke-width=".25" fill="#e69900"/><path d="M-76.181 154.13h7.087l1.772 1.772-1.772 1.771h-7.087v-3.543z" transform="matrix(-1.24 0 0 .9 -194.74 78.836)" stroke="#000" stroke-width=".25" fill="#980000"/><path d="M-76.181 154.13h7.087l1.772 1.772-1.772 1.771h-7.087v-3.543z" transform="matrix(-1.24 0 0 .9 -194.74 82.015)" stroke="#000" stroke-width=".25" fill="#e69900"/><path d="M-76.181 154.13h7.087l1.772 1.772-1.772 1.771h-7.087v-3.543z" transform="matrix(-1.24 0 0 .9 -194.74 85.214)" stroke="#000" stroke-width=".25" fill="#980000"/><path d="M-76.181 154.13h7.087l1.772 1.772-1.772 1.771h-7.087v-3.543z" transform="matrix(-1.24 0 0 .9 -194.74 88.393)" stroke="#000" stroke-width=".25" fill="#e69900"/><path d="M-76.181 154.13h7.087l1.772 1.772-1.772 1.771h-7.087v-3.543z" transform="matrix(-1.24 0 0 .9 -194.74 75.637)" stroke="#000" stroke-width=".25" fill="#e69900"/><path d="M-100.98 178.94v37.205h8.858v8.858h56.693v-8.858h8.858v-37.205h-8.858v-8.858h-56.693v8.858h-8.858zm1.771 1.772v33.661h8.858v8.858h53.15v-8.858h8.858v-33.661h-8.858v-8.859h-53.15v8.859h-8.858z" transform="matrix(1.24 0 0 1 11.764 24.803)" stroke="#000" stroke-width=".25" fill="#970000"/></g><g transform="matrix(1.148 0 0 1.118 217.32 -7.816)"><path d="M-28.347 69.094l-5.315-7.087v-5.315l-5.315-5.315h-10.63l-8.858-5.315h-28.346l-8.858 5.315h-10.63l-5.315 5.315v5.315l-5.315 7.087v14.173l5.315 7.087v5.315l5.315 5.315h10.63l8.858 5.315h28.346l8.858-5.315h10.63l5.315-5.314v-5.315l5.315-7.087v-14.174z" transform="matrix(1.08 0 0 1 -1.276 -24.803)" stroke="#000" stroke-width=".25" fill="#980000"/><path d="M-125.632 51.38v5.315l5.74 7.086v5.315l5.74 5.315h11.48l9.568 5.315h13.394l-.001-28.346h-45.922z" fill="#e69900"/><path d="M-95.873 63.777l-6.989 4.556h-4.175l1.392 1.518-2.783 3.037 1.391 1.519 4.175-1.519 1.392 1.519.643-4.058 7.707-4.803-2.752-1.769z" fill="#980000"/><path d="M-103.523 60.234l-6.989 4.556h-4.175l1.392 1.518-2.783 3.037 1.391 1.519 4.175-1.519 1.392 1.519.643-4.058 7.707-4.803-2.752-1.769z" fill="#980000"/><path d="M-107.353 53.151l-6.989 4.556h-4.175l1.392 1.518-2.783 3.037 1.391 1.519 4.175-1.519 1.392 1.519.643-4.058 7.707-4.803-2.752-1.769z" fill="#980000"/><path d="M-33.818 51.38v-5.315l-5.74-7.086v-5.315l-5.74-5.315h-11.48l-9.568-5.315h-13.394l.001 28.346h45.922z" fill="#e69900"/><path d="M-79.721 79.725h-3.543l-4.11-3.543h-6.52l-3.543-1.772 1.772-1.772 3.543 1.772h3.543l3.543-5.315 5.315 1.772v3.543h-5.315l5.315 5.315z" fill="#980000"/><path d="M-125.632 51.38v-5.315l5.74-7.086v-5.315l5.74-5.315h11.48l9.568-5.315h13.394l-.001 28.346h-45.922z" fill="#fff"/><path d="M-79.721 23.031h-3.543l-4.11 3.543h-6.52l-3.543 1.772 1.772 1.772 3.543-1.772h3.543l3.543 5.315 5.315-1.772v-3.543h-5.315l5.315-5.315z" fill="#980000"/><path d="M-79.724 23.031h3.543l4.11 3.543h6.52l3.543 1.772-1.772 1.772-3.543-1.772h-3.543l-3.543 5.315-5.315-1.772v-3.543h5.315l-5.315-5.315z" fill="#980000"/><path d="M-33.818 51.38v5.315l-5.74 7.086v5.315l-5.74 5.315h-11.48l-9.568 5.315h-13.394l.001-28.346h45.922z" fill="#fff"/><path d="M-79.724 79.725h3.543l4.11-3.543h6.52l3.543-1.772-1.772-1.772-3.543 1.772h-3.543l-3.543-5.315-5.315 1.772v3.543h5.315l-5.315 5.315z" fill="#980000"/><path d="M-103.523 42.519l-6.989-4.556h-4.175l1.392-1.518-2.783-3.037 1.391-1.519 4.175 1.519 1.392-1.519.643 4.058 7.707 4.803-2.752 1.769z" fill="#980000"/><path d="M-63.577 38.979l6.989-4.556h4.175l-1.392-1.518 2.783-3.037-1.391-1.519-4.175 1.519-1.392-1.519-.643 4.058-7.707 4.803 2.752 1.769z" fill="#980000"/><path d="M-95.873 38.979l-6.989-4.556h-4.175l1.392-1.518-2.783-3.037 1.391-1.519 4.175 1.519 1.392-1.519.643 4.058 7.707 4.803-2.752 1.769z" fill="#980000"/><path d="M-107.353 49.609l-6.989-4.556h-4.175l1.392-1.518-2.783-3.037 1.391-1.519 4.175 1.519 1.392-1.519.643 4.058 7.707 4.803-2.752 1.769z" fill="#980000"/><path d="M-122.235 51.389h1.773l1.772 1.771 1.772-1.771 37.205-.001v24.804h-1.772l1.772 1.772v1.771l-5.315-5.315v-1.771h1.772v1.771h1.772v-1.771l-14.386-7.825h-12.118v-7.678l-5.386-3.986h-3.543l-1.772 1.771 1.772 1.772h-1.772l-3.544-5.315z" fill="#fff"/><path d="M-122.235 51.371h1.773l1.772-1.771 1.772 1.771 37.205.001v-24.804h-1.772l1.772-1.772v-1.771l-5.315 5.315v1.771h1.772v-1.771h1.772v1.771l-14.386 7.825h-12.118v7.678l-5.386 3.986h-3.543l-1.772-1.771 1.772-1.772h-1.772l-3.544 5.315z" fill="#e69900"/><path d="M-114.157 51.37h34.441v21.26l-15.307-8.858h-11.48v-7.087l-7.654-5.315z" fill="#004e00"/><path d="M-55.927 42.519l6.989-4.556h4.175l-1.392-1.518 2.783-3.037-1.391-1.519-4.175 1.519-1.392-1.519-.643 4.058-7.707 4.803 2.752 1.769z" fill="#980000"/><path d="M-52.097 49.609l6.989-4.556h4.175l-1.392-1.518 2.783-3.037-1.391-1.519-4.175 1.519-1.392-1.519-.643 4.058-7.707 4.803 2.752 1.769z" fill="#980000"/><path d="M-37.215 51.371h-1.773l-1.772-1.771-1.772 1.771-37.205.001v-24.804h1.772l-1.772-1.772v-1.771l5.315 5.315v1.771h-1.772v-1.771h-1.772v1.771l14.386 7.825h12.118v7.678l5.386 3.986h3.543l1.772-1.771-1.772-1.772h1.772l3.544 5.315z" fill="#fff"/><path d="M-45.293 51.39h-34.441v-21.26l15.307 8.858h11.48v7.087l7.654 5.315z" fill="#004e00"/><path d="M-63.577 63.777l6.989 4.556h4.175l-1.392 1.518 2.783 3.037-1.391 1.519-4.175-1.519-1.392 1.519-.643-4.058-7.707-4.803 2.752-1.769z" fill="#980000"/><path d="M-55.927 60.234l6.989 4.556h4.175l-1.392 1.518 2.783 3.037-1.391 1.519-4.175-1.519-1.392 1.519-.643-4.058-7.707-4.803 2.752-1.769z" fill="#980000"/><path d="M-52.097 53.151l6.989 4.556h4.175l-1.392 1.518 2.783 3.037-1.391 1.519-4.175-1.519-1.392 1.519-.643-4.058-7.707-4.803 2.752-1.769z" fill="#980000"/><path d="M-37.215 51.389h-1.773l-1.772 1.771-1.772-1.771-37.205-.001v24.804h1.772l-1.772 1.772v1.771l5.315-5.315v-1.771h-1.772v1.771h-1.772v-1.771l14.386-7.825h12.118v-7.678l5.386-3.986h3.543l1.772 1.771-1.772 1.772h1.772l3.544-5.315z" fill="#e69900"/><path d="M-45.293 51.37h-34.441v21.26l15.307-8.858h11.48v-7.087l7.654-5.315z" fill="#980000"/><path d="M-114.157 51.39h34.441v-21.26l-15.307 8.858h-11.48v7.087l-7.654 5.315z" fill="#980000"/><path d="M-75.944 51.38l9.61-5.315h5.74l-1.914-1.771 3.827-3.544-1.913-1.772-5.74 1.772-1.914-1.772-.884 4.734-10.597 5.604 3.784 2.064z" fill="#980000"/><path d="M-83.506 51.37l-9.61 5.315h-5.74l1.914 1.771-3.827 3.544 1.913 1.772 5.74-1.772 1.914 1.772.884-4.734 10.597-5.604-3.784-2.064z" fill="#980000"/><path d="M-83.506 51.38l-9.61-5.315h-5.74l1.914-1.771-3.827-3.544 1.913-1.772 5.74 1.772 1.914-1.772.884 4.734 10.597 5.604-3.784 2.064z" fill="#004e00"/><path d="M-75.944 51.37l9.61 5.315h5.74l-1.914 1.771 3.827 3.544-1.913 1.772-5.74-1.772-1.914 1.772-.884-4.734-10.597-5.604 3.784-2.064z" fill="#004e00"/><path d="M-91.204 51.381l11.48-8.859 11.481 8.859-11.481 8.859-11.48-8.859z" fill="#fff"/><path d="M-116.928 54.92l1.772 1.772-1.772 1.772h-1.772l-5.315-7.087h1.772l3.543 5.315h1.772l-1.772-1.772 1.772-1.772h3.543v1.772h-3.543z" fill="#980000"/><path d="M-116.928 47.835l1.772-1.772-1.772-1.772h-1.772l-5.315 7.087h1.772l3.543-5.315h1.772l-1.772 1.772 1.772 1.772h3.543v-1.772h-3.543z" fill="#980000"/><path d="M-42.519 54.92l-1.772 1.772 1.772 1.772h1.772l5.315-7.087h-1.772l-3.543 5.315h-1.772l1.772-1.772-1.772-1.772h-3.543v1.772h3.543z" fill="#980000"/><path d="M-42.519 47.835l-1.772-1.772 1.772-1.772h1.772l5.315 7.087h-1.772l-3.543-5.315h-1.772l1.772 1.772-1.772 1.772h-3.543v-1.772h3.543z" fill="#980000"/><rect height="14.173" width="3.543" y="44.291" x="-81.496" fill="#980000"/><rect height="7.087" width="14.173" y="47.835" x="-86.811" fill="#980000"/></g><g><path d="M333.07 170.08l-10.63 5.315v8.858l10.63 5.315h10.63l10.63-5.315v-8.858l-10.63-5.315h-10.63z" transform="matrix(3.444 0 0 3.727 -1039.78 -283.145)" stroke="#000" stroke-width=".066" fill="#004e00"/><path d="M84.428 383.944h2.214v-4.061h4.43v4.061h2.214v-9.474h-2.214v4.061h-4.43v-4.061h-2.214v9.474z" fill="#c00"/><path d="M140.528 415.524h2.214v-4.061h4.43v4.061h2.214v-9.474h-2.214v4.061h-4.43v-4.061h-2.214v9.474z" fill="#c00"/><path d="M105.098 368.154h2.214v-4.061h4.43v4.061h2.214v-9.474h-2.214v4.061h-4.43v-4.061h-2.214v9.474z" fill="#c00"/><path d="M137.577 368.154h2.214v-4.061h4.43v4.061h2.214v-9.474h-2.214v4.061h-4.43v-4.061h-2.214v9.474z" fill="#c00"/><path d="M158.238 383.944h2.214v-4.061h4.43v4.061h2.214v-9.474h-2.214v4.061h-4.43v-4.061h-2.214v9.474z" fill="#c00"/><path d="M158.238 399.734h2.214v-4.061h4.43v4.061h2.214v-9.474h-2.214v4.061h-4.43v-4.061h-2.214v9.474z" fill="#c00"/><path d="M125.789 421.951v-34.729h53.15v15.786l-35.433 18.943h-17.717z" fill="#e69900"/><path d="M125.79 352.259v34.729h-53.15v-15.786l35.433-18.943h17.717z" fill="#e69900"/><path d="M125.789 352.259v34.729h53.15v-15.786l-35.433-18.943h-17.717z" fill="#fff"/><path d="M125.79 421.951l-.001-34.728-53.149-.001v15.786l35.433 18.943h17.717z" fill="#fff"/><path d="M-177.16 368.5h21.259l-21.259-10.63v10.63zm24.803-1.772l-.001 17.717h-33.661v-14.173h-7.086l-8.858-5.315v-12.402l5.314-5.315h-7.086v17.717h-1.772v-19.489h17.717l35.433 21.26z" transform="matrix(1 0 0 .891 331.299 44.446)" stroke="#000" stroke-width=".125" fill="#e69900"/><path d="M107.942 375.992v22.103h5.313l12.402 6.317 12.402-6.317h5.313v-22.103h-5.313l-12.402-6.317-12.402 6.317h-5.313z" fill="#980000"/><path d="M-177.16 368.5h21.259l-21.259-10.63v10.63zm24.803-1.772l-.001 17.717h-33.661v-14.173h-7.086l-8.858-5.315v-12.402l5.314-5.315h-7.086v17.717h-1.772v-19.489h17.717l35.433 21.26z" transform="matrix(-1 0 0 -.891 -79.72 729.765)" stroke="#000" stroke-width=".125" fill="#e69900"/><path d="M-177.16 368.5h21.259l-21.259-10.63v10.63zm24.803-1.772l-.001 17.717h-33.661v-14.173h-7.086l-8.858-5.315v-12.402l5.314-5.315h-7.086v17.717h-1.772v-19.489h17.717l35.433 21.26z" transform="matrix(-1 0 0 .891 -79.72 44.446)" stroke="#000" stroke-width=".125" fill="#fff"/><path d="M-177.16 368.5h21.259l-21.259-10.63v10.63zm24.803-1.772l-.001 17.717h-33.661v-14.173h-7.086l-8.858-5.315v-12.402l5.314-5.315h-7.086v17.717h-1.772v-19.489h17.717l35.433 21.26z" transform="matrix(1 0 0 -.891 331.3 729.765)" stroke="#000" stroke-width=".125" fill="#fff"/><path d="M83.248 399.664h2.214v-4.736h4.43v4.736h2.214v-11.049h-2.214v4.736h-4.43v-4.736h-2.214v11.049z" fill="#980000"/><path d="M104.498 415.454h2.214v-4.736h4.43v4.736h2.214v-11.049h-2.214v4.736h-4.43v-4.736h-2.214v11.049z" fill="#980000"/><path d="M83.248 374.556h2.214v4.736h4.43v-4.736h2.214v11.049h-2.214v-4.736h-4.43v4.736h-2.214v-11.049z" fill="#980000"/><path d="M104.498 358.766h2.214v4.736h4.43v-4.736h2.214v11.049h-2.214v-4.736h-4.43v4.736h-2.214v-11.049z" fill="#980000"/><path d="M138.167 415.454h2.214v-4.736h4.43v4.736h2.214v-11.049h-2.214v4.736h-4.43v-4.736h-2.214v11.049z" fill="#980000"/><path d="M159.428 385.444h2.214v-4.736h4.43v4.736h2.214v-11.049h-2.214v4.736h-4.43v-4.736h-2.214v11.049z" fill="#980000"/><path d="M138.167 415.454h2.214v-4.736h4.43v4.736h2.214v-11.049h-2.214v4.736h-4.43v-4.736h-2.214v11.049z" fill="#980000"/><path d="M138.167 415.454h2.214v-4.736h4.43v4.736h2.214v-11.049h-2.214v4.736h-4.43v-4.736h-2.214v11.049z" fill="#980000"/><path d="M159.428 399.654h2.214v-4.736h4.43v4.736h2.214v-11.049h-2.214v4.736h-4.43v-4.736h-2.214v11.049z" fill="#980000"/><path d="M138.167 369.654h2.214v-4.736h4.43v4.736h2.214v-11.049h-2.214v4.736h-4.43v-4.736h-2.214v11.049z" fill="#980000"/><path d="M127.563 386.945l7.087-5.755h3.543v2.877h-3.543v1.439h5.314v-5.754l-5.314-.001v-4.315h-7.087v4.315h1.772v-2.878h3.543v2.878l-7.086 5.755-7.087-5.754v-2.877h3.543v2.877h1.772v-4.316l-7.087.001v4.315h-5.315v5.755h5.315v-1.439h-3.544v-2.878h3.544l7.087 5.754-7.087 5.754h-3.543v-2.877h3.543v-1.439h-5.314v5.755h5.314v4.315l7.087.002v-4.317h-1.771v2.878h-3.543v-2.878l7.085-5.754 7.088 5.755v2.877h-3.543v-2.877h-1.772v4.315h7.086v-4.315l5.315-.002v-5.754h-5.315v1.439h3.544v2.878h-3.544l-7.087-5.755z" fill="#004e00"/></g><g transform="matrix(1 0 0 .929 198.43 17.59)"><path d="M-122.352 134.285l3.43-3.729h20.573l15.431-16.785h20.574l15.431 16.784h20.574l3.429 3.729-3.429 3.73h-20.574l-15.431 16.784h-20.574l-15.431-16.784h-20.573l-3.43-3.729z" fill="#980000"/><path d="M372.05 391.54l1.903-1.949h22.834l17.126-19.489h19.029l17.126 19.489h22.835l1.903 1.949-1.903 1.948h-22.835l-15.223 17.54h-22.834l-15.224-17.54h-22.834l-1.903-1.948z" transform="matrix(.931 0 0 .909 -466.86 -221.29)" stroke="#000" stroke-width=".272" fill="#980000"/><path d="M-64.071 136.148l6.858 7.459-3.429 3.729-1.715-1.865h-1.714v1.865l1.714 1.865h3.43l3.429-3.73v-3.729l-6.857-7.459 6.857-7.46v-3.729l-3.429-3.729h-3.429l-1.715 1.864v1.865h1.715l1.714-1.865 3.429 3.73-6.857 7.459-6.858-7.459 6.858-7.46v-1.864h-1.715l-6.857 7.459-6.858-7.46h-1.715v1.864l6.858 7.46-6.858 7.46-6.858-7.459 3.429-3.73 1.715 1.865h1.715v-1.865l-1.715-1.864h-3.429l-3.43 3.729v3.729l6.858 7.46-6.858 7.46v3.729l3.43 3.729h3.429l1.715-1.864v-1.865h-1.715l-1.715 1.865-3.429-3.73 6.858-7.459 6.857 7.459-6.857 7.46-.001 1.865h1.715l6.858-7.46 6.858 7.46h1.714v-1.865l-6.857-7.46 6.857-7.459zm-8.572-9.325l-6.858 7.46 6.858 7.46 6.858-7.46-6.858-7.46z" fill="#e69900"/><path d="M-82.917 154.79v14.918l1.715-1.865 1.715 1.865 1.714-1.865 1.715 1.865 1.715-1.865 1.714 1.865 1.715-1.865 1.715 1.865 1.714-1.865 1.715 1.865 1.714-1.865 1.715 1.865v-14.918h-20.574z" fill="#e69900"/><path d="M-62.353 113.79v-14.918l-1.715 1.865-1.715-1.865-1.714 1.865-1.715-1.865-1.715 1.865-1.714-1.865-1.715 1.865-1.715-1.865-1.714 1.865-1.715-1.865-1.714 1.865-1.715-1.865v14.918h20.574z" fill="#e69900"/><path d="M-33.205 130.58v-14.918l-1.715 1.865-1.714-1.865-1.715 1.865-1.715-1.865-1.714 1.865-1.715-1.865-1.714 1.865-1.715-1.865v14.918h13.716z" fill="#e69900"/><path d="M-98.355 130.58v-14.918l-1.715 1.865-1.714-1.865-1.715 1.865-1.715-1.865-1.714 1.865-1.715-1.865-1.714 1.865-1.715-1.865v14.918h13.716z" fill="#e69900"/><path d="M-33.205 138.01v14.918l-1.715-1.865-1.714 1.865-1.715-1.865-1.715 1.865-1.714-1.865-1.715 1.865-1.714-1.865-1.715 1.865v-14.918h13.716z" fill="#e69900"/><path d="M-98.355 138.01v14.918l-1.715-1.865-1.714 1.865-1.715-1.865-1.715 1.865-1.714-1.865-1.715 1.865-1.714-1.865-1.715 1.865v-14.918h13.716z" fill="#e69900"/><path d="M-62.347 154.79l-.001 9.324 1.715-1.865 1.715 1.865 1.714-1.865 1.715 1.865 1.715-1.865 1.714 1.865 1.715-1.865 1.714 1.865 1.715-1.865v-24.242l-15.43 16.784z" fill="#004e00"/><path d="M-82.933 154.79v9.325l-1.715-1.865-1.715 1.865-1.714-1.865-1.715 1.865-1.715-1.865-1.714 1.865-1.715-1.865-1.714 1.865-1.715-1.865.001-24.243 15.43 16.784z" fill="#004e00"/><path d="M-82.933 113.79l.001-9.324-1.715 1.865-1.715-1.865-1.714 1.865-1.715-1.865-1.715 1.865-1.714-1.865-1.715 1.865-1.714-1.865-1.715 1.865v24.242l15.43-16.784z" fill="#004e00"/><path d="M-62.347 113.79l-.001-9.324 1.715 1.865 1.715-1.865 1.714 1.865 1.715-1.865 1.715 1.865 1.714-1.865 1.715 1.865 1.714-1.865 1.715 1.865v24.242l-15.43-16.784z" fill="#004e00"/><path d="M-112.078 149.206l-1.715-1.865-1.713 1.865-1.715-1.865-1.715 1.865-1.715-1.865-1.715 1.865-1.713-1.865-1.715 1.865-.001-29.838 1.715 1.865 1.714-1.865 1.715 1.865 1.714-1.865 1.715 1.865 1.715-1.865 1.714 1.865 1.715-1.865v11.19h-6.857l-3.43 3.729 3.43 3.729h6.857v11.189z" fill="#004e00"/><path d="M-33.202 149.206l1.715-1.865 1.713 1.865 1.715-1.865 1.715 1.865 1.715-1.865 1.715 1.865 1.713-1.865 1.715 1.865.001-29.838-1.715 1.865-1.714-1.865-1.715 1.865-1.714-1.865-1.715 1.865-1.715-1.865-1.714 1.865-1.715-1.865v11.19h6.857l3.43 3.729-3.43 3.729h-6.857v11.189z" fill="#004e00"/><path d="M-91.36 155.978s-1.429 1.474-1.429 2.211c-.028.687 1.524 2.227 2.143 2.211.809.016 2.143-1.474 2.143-2.211 0-.737-1.429-2.211-1.429-2.211v-2.947s3.103 5.068 3.103 2.857c0-1.586-3.103-4.331-3.103-4.331h-1.429s-3.103 3.214-3.103 4.331c0 2.211 3.103-2.857 3.103-2.857v2.947z" fill="#fff"/><path d="M-73.497 161.669s-1.714 2.064-1.714 3.095c-.034.962 1.829 3.118 2.572 3.095.971.023 2.572-2.063 2.572-3.095 0-1.031-1.715-3.095-1.715-3.095v-4.126s3.037 6.751 3.037 3.656c0-2.001-3.037-5.72-3.037-5.72h-1.714s-3.505 4.655-3.036 5.719c0 3.095 3.036-3.655 3.036-3.655v4.126z" fill="#980000"/><ellipse fill="#004e00" transform="matrix(.968 0 0 1.053 -482.4 -277.85)" cx="403.94" rx="3.543" cy="391.54" ry="1.772"/><ellipse fill="#004e00" transform="matrix(.968 0 0 1.053 -463.54 -277.85)" cx="403.94" rx="3.543" cy="391.54" ry="1.772"/><ellipse fill="#004e00" transform="matrix(.968 0 0 1.053 -444.69 -277.85)" cx="403.94" rx="3.543" cy="391.54" ry="1.772"/><path d="M-91.72 112.76s-1.429-1.474-1.429-2.211c-.028-.687 1.524-2.227 2.143-2.211.809-.016 2.143 1.474 2.143 2.211 0 .737-1.429 2.211-1.429 2.211v2.947s3.103-5.068 3.103-2.857c0 1.586-3.103 4.331-3.103 4.331h-1.429s-3.103-3.214-3.103-4.331c0-2.211 3.103 2.857 3.103 2.857v-2.947z" fill="#fff"/><path d="M-73.857 107.062s-1.714-2.064-1.714-3.095c-.034-.962 1.829-3.118 2.572-3.095.971-.023 2.572 2.063 2.572 3.095 0 1.031-1.715 3.095-1.715 3.095v4.126s3.037-6.751 3.037-3.656c0 2.001-3.037 5.72-3.037 5.72h-1.714s-3.505-4.655-3.036-5.719c0-3.095 3.036 3.655 3.036 3.655v-4.126z" fill="#980000"/><path d="M-54.86 155.978s-1.429 1.474-1.429 2.211c-.028.687 1.524 2.227 2.143 2.211.809.016 2.143-1.474 2.143-2.211 0-.737-1.429-2.211-1.429-2.211v-2.947s3.103 5.068 3.103 2.857c0-1.586-3.103-4.331-3.103-4.331h-1.429s-3.103 3.214-3.103 4.331c0 2.211 3.103-2.857 3.103-2.857v2.947z" fill="#fff"/><path d="M-55.22 112.76s-1.429-1.474-1.429-2.211c-.028-.687 1.524-2.227 2.143-2.211.809-.016 2.143 1.474 2.143 2.211 0 .737-1.429 2.211-1.429 2.211v2.947s3.103-5.068 3.103-2.857c0 1.586-3.103 4.331-3.103 4.331h-1.429s-3.103-3.214-3.103-4.331c0-2.211 3.103 2.857 3.103 2.857v-2.947z" fill="#fff"/><path d="M-106.273 145.593s-1.899 1.383-1.899 2.074c-.038.645 2.026 2.089 2.849 2.074 1.076.015 2.849-1.383 2.849-2.074 0-.691-1.9-2.074-1.9-2.074v-2.765s3.364 4.524 3.364 2.45c0-1.341-3.364-3.833-3.364-3.833h-1.899s-3.883 3.119-3.364 3.832c0 2.074 3.364-2.449 3.364-2.449v2.765z" fill="#980000"/><path d="M-106.673 124.471s-1.899-1.383-1.899-2.074c-.038-.645 2.026-2.089 2.849-2.074 1.076-.015 2.849 1.383 2.849 2.074 0 .691-1.9 2.074-1.9 2.074v2.765s3.364-4.524 3.364-2.45c0 1.341-3.364 3.833-3.364 3.833h-1.899s-3.883-3.119-3.364-3.832c0-2.074 3.364 2.449 3.364 2.449v-2.765z" fill="#980000"/><path d="M-40.423 145.151s-1.899 1.383-1.899 2.074c-.038.645 2.026 2.089 2.849 2.074 1.076.015 2.849-1.383 2.849-2.074 0-.691-1.9-2.074-1.9-2.074v-2.765s3.364 4.524 3.364 2.45c0-1.341-3.364-3.833-3.364-3.833h-1.899s-3.883 3.119-3.364 3.832c0 2.074 3.364-2.449 3.364-2.449v2.765z" fill="#980000"/><path d="M-40.823 124.031s-1.899-1.383-1.899-2.074c-.038-.645 2.026-2.089 2.849-2.074 1.076-.015 2.849 1.383 2.849 2.074 0 .691-1.9 2.074-1.9 2.074v2.765s3.364-4.524 3.364-2.45c0 1.341-3.364 3.833-3.364 3.833h-1.899s-3.883-3.119-3.364-3.832c0-2.074 3.364 2.449 3.364 2.449v-2.765z" fill="#980000"/><path d="M-120.285 145.363c-.615-1.277-.453-1.861-.453-2.598-.029-.687 1.716-2.025 2.335-2.009.809-.016 2.143 1.474 2.143 2.211 0 .737.034 1.373-.298 2.643l-.893-2.154c-1.084 3.056-1.143 3.127-1.787-.074l-1.048 1.98z" fill="#fff"/><path d="M-120.225 123.931c-.615 1.277-.453 1.861-.453 2.598-.029.687 1.716 2.025 2.335 2.009.809.016 2.143-1.474 2.143-2.211 0-.737.034-1.373-.298-2.643l-.893 2.154c-1.084-3.056-1.143-3.127-1.787.074l-1.048-1.98z" fill="#fff"/><path d="M-27.805 145.093c-.615-1.277-.453-1.861-.453-2.598-.029-.687 1.716-2.025 2.335-2.009.809-.016 2.143 1.474 2.143 2.211 0 .737.034 1.373-.298 2.643l-.893-2.154c-1.084 3.056-1.143 3.127-1.787-.074l-1.048 1.98z" fill="#fff"/><path d="M-27.755 123.655c-.615 1.277-.453 1.861-.453 2.598-.029.687 1.716 2.025 2.335 2.009.809.016 2.143-1.474 2.143-2.211 0-.737.034-1.373-.298-2.643l-.893 2.154c-1.084-3.056-1.143-3.127-1.787.074l-1.048-1.98z" fill="#fff"/><path d="M115.16 177.16v-5.315h-15.944v-10.63h-14.173v-3.543h-12.402v-31.89h12.402v-3.543h14.173v-10.63h15.944v-5.315h21.26v5.315h15.945v10.63h14.173v3.543h12.402v31.89h-12.402v3.543h-14.173v10.63h-15.945v5.315h-21.26zm-1.772 1.772v-5.315h-15.944v-10.63h-14.173v-3.543h-12.402v-35.433h12.402v-3.544h14.173v-10.63h15.945v-5.315h24.803v5.315h15.945v10.63h14.173v3.544h12.402v35.433h-12.402v3.543h-14.173v10.63h-15.945v5.315h-24.804z" transform="translate(-198.43 -7.085)" stroke="#000" stroke-width=".125" fill="#980000"/></g></g></g></svg>