<svg xmlns="http://www.w3.org/2000/svg" id="flag-icon-css-tn" width="512" height="512">
  <defs>
    <clipPath id="a">
      <path fill-opacity=".67" d="M124.02 0h496.06v496.06H124.02z"/>
    </clipPath>
  </defs>
  <g fill-rule="evenodd" clip-path="url(#a)" transform="translate(-128) scale(1.0321)">
    <path fill="#e70013" d="M0 0h744.09v496.06H0z"/>
    <path fill="#fff" d="M497.81 247.81c0 69.1-56.01 125.1-125.11 125.1s-125.1-56-125.1-125.1 56-125.11 125.1-125.11 125.11 56.01 125.11 125.11z"/>
    <path fill="#e70013" d="M372.7 330.78a83 83 0 0 1-82.96-82.97 83 83 0 0 1 82.96-82.97c11.45 0 24.49 2.64 33.34 9.14-60.68 2.28-76.03 53.75-76.03 74.5s9.82 67 76.03 73.82c-7.54 4.86-21.89 8.48-33.34 8.48z"/>
    <path fill="#e70013" d="M445.8 282.71l-37.68-13.74-24.92 31.41 1.43-40.07-37.58-14 38.56-11.02 1.69-40.07 22.4 33.27 38.63-10.77-24.71 31.58z"/>
  </g>
</svg>
