<svg xmlns="http://www.w3.org/2000/svg" height="512" width="512" version="1"><defs><clipPath id="a"><rect fill-opacity=".67" height="496.06" width="496.06" x="124.02"/></clipPath></defs><g fill-rule="evenodd" clip-path="url(#a)" transform="matrix(1.032 0 0 1.032 -128 0)"><rect height="496.06" width="744.09" fill="#e70013"/><path d="M497.81 247.81c0 69.097-56.014 125.109-125.109 125.109-69.097 0-125.109-56.014-125.109-125.109 0-69.097 56.014-125.109 125.109-125.109 69.097 0 125.109 56.014 125.109 125.109z" fill="#fff"/><path d="M372.705 330.782c-45.799 0-82.969-37.17-82.969-82.969 0-45.8 37.17-82.97 82.969-82.97 11.45 0 24.483 2.634 33.336 9.136-60.681 2.284-76.029 53.75-76.029 74.492s9.813 67.001 76.028 73.833c-7.535 4.857-21.885 8.478-33.335 8.478z" fill="#e70013"/><polygon points="445.8 282.71 408.12 268.97 383.2 300.38 384.63 260.31 347.05 246.31 385.61 235.29 387.3 195.22 409.7 228.49 448.33 217.72 423.62 249.3" fill="#e70013"/></g></svg>