<svg xmlns="http://www.w3.org/2000/svg" id="flag-icon-css-tr" width="512" height="512">
  <g fill-rule="evenodd">
    <path fill="#f31930" d="M0 0h512v512H0z"/>
    <path fill="#fff" d="M348.77 263.97c0 70.63-58.24 127.88-130.1 127.88S88.57 334.6 88.57 263.97s58.25-127.88 130.1-127.88 130.1 57.25 130.1 127.88z"/>
    <path fill="#f31830" d="M355.28 263.96c0 56.5-46.6 102.3-104.08 102.3s-104.08-45.8-104.08-102.3 46.6-102.3 104.08-102.3 104.08 45.8 104.08 102.3z"/>
    <path fill="#fff" d="M374.1 204.23l-1.05 47.27-44.1 11.97 43.47 15.49-1.05 43.35 28.36-33.86 42.84 14.87-24.78-36.33 30.24-36.13-46.41 12.8-27.52-39.43z"/>
  </g>
</svg>
