<svg viewBox="0 0 512 512" xmlns="http://www.w3.org/2000/svg" xmlns:xlink="http://www.w3.org/1999/xlink"><clipPath id="a"><path d="m0 0h512v512h-512z"/></clipPath><g clip-path="url(#a)"><path d="m0-2.2h257.8v128h-257.8z" fill="#fff" fill-rule="evenodd"/><path d="m0-2.2v9.6l61.5 31.6 23.2.7-84.7-42z" fill="#c00"/><path d="m26.3-2.2 74.6 39v-39h-74.6z" fill="#006"/><path d="m110.9-2.2v49.7h-110.9v28.4h110.9v49.7h34.1v-49.6h110.9v-28.5h-110.9v-49.7z" fill="#c00"/><path d="m155-2.2v36.7l72.8-36.5-73-.3z" fill="#006"/><path d="m157.2 38.5 20.6-.2 79.7-40.3-21.2.4-79 40z" fill="#c00"/><path d="m0 84.2v27.2l51.2-26.9z" fill="#006"/><path d="m197 85.3-21.3-.1 80.4 40-.5-9.2zm-177 40.7 75.4-39.6-19.8.1-75.6 39.3" fill="#c00"/><path d="m257 9-61 30.2 60.1.2v45h-51.1l50.7 27.5.8 14-27-.3-74.2-36.4v36.7h-54v-36.7l-69.5 36.6h-31.5v128h511.7v-255.8l-254.5-.2m-257.2 14.4-.3 26.6 53.9.7z" fill="#006"/><g fill-rule="evenodd" stroke-width="1pt"><g fill="#009fca"><path d="m256-2.2h256v256h-256z"/><path d="m0 125.8h270.1v128h-270.1z"/></g><g fill="#009fca" transform="matrix(.51604 0 0 .51604 0 258.9)"><path d="m506-19.8h486v515.8h-486z"/><path d="m0-25.3h523.5v521.4h-523.5z"/></g><path d="m478 226.3 7.1 20.4-18.4-12.6-18.5 12.6 7.1-20.4-18.5-12.6h22.9l7-20.4 7 20.4h22.8zm-57.2 162.8 7 20.4-18.4-12.7-18.4 12.7 7-20.4-18.4-12.7h22.8l7-20.4 7 20.5h22.9zm57.3-36.9 7 20.4-18.4-12.6-18.5 12.6 7.1-20.4-18.5-12.6h22.9l7-20.4 7 20.4h22.8zm-246.2 118 7.1 20.5-18.4-12.7-18.5 12.7 7.1-20.4-18.5-12.6h22.8l7-20.4 7.1 20.4h22.8zm43.1-88.4-7-20.4 18.4 12.6 18.4-12.6-7 20.4 18.4 12.6h-22.8l-7 20.4-7-20.4h-22.8zm67.3-93-7.1-20.4 18.4 12.6 18.5-12.6-7 20.4 18.4 12.6h-22.8l-7 20.4-7-20.4h-22.9zm56.5-19.3-7-20.4 18.4 12.6 18.4-12.6-7 20.4 18.4 12.6h-22.8l-7 20.4-7-20.4h-22.9zm-56.5 161-7.1-20.4 18.4 12.6 18.5-12.6-7 20.4 18.4 12.6h-22.8l-7 20.4-7-20.4h-22.9zm-67.3 16.4-7-20.4 18.4 12.6 18.4-12.6-7 20.4 18.4 12.6h-22.8l-7 20.4-7-20.4h-22.8z" fill="#fff40d"/></g></g></svg>