<svg xmlns="http://www.w3.org/2000/svg" height="512" width="512">
  <g clip-path="url(#a)">
    <path fill-rule="evenodd" fill="#fff" d="M.003-2.23h257.784v128.028h-257.784z"/>
    <path d="M.003-2.23l-.011 9.609 61.517 31.609 23.147.671-84.653-41.889z" fill="#c00"/>
    <path d="M26.342-2.23l74.58 38.957v-38.957h-74.58z" fill="#006"/>
    <path fill="#c00" d="M110.875-2.23v49.732h-110.865v28.419h110.865v49.732h34.114v-49.732h110.865v-28.419h-110.865v-49.732h-34.114z"/>
    <path d="M154.933-2.23v36.707l72.962-36.423-72.962-.284z" fill="#006"/>
    <path d="M157.243 38.479l20.518-.166 79.711-40.259-21.151.345-79.079 40.08z" fill="#c00"/>
    <path d="M.003 84.209v27.235l51.17-26.952-51.17-.285z" fill="#006"/>
    <path d="M197.044 85.334l-21.331-.166 80.408 40.034-.529-9.159-58.548-30.709zm-177.058 40.545l75.395-39.585-19.803.132-75.574 39.394" fill="#c00"/>
    <path d="M256.93 9.017l-60.891 30.196 60.081.225v44.996h-51.17l50.697 27.47.744 13.974-27.079-.324-74.111-36.384v36.707h-54.012v-36.707l-69.521 36.609-31.398.099v127.878h511.701v-255.765l-254.5-.211m-257.201 14.435l-.27 26.559 53.871.675-53.6-27.234z" fill="#006"/>
    <g fill-rule="evenodd" fill="#009fca">
      <path d="M255.963-2.23h255.967v255.967h-255.967z"/>
      <path d="M-.004 125.753h270.121v127.983h-270.121z"/>
    </g>
    <g fill-rule="evenodd" transform="matrix(.516 0 0 .516 -.004 258.81)" fill="#009fca">
      <path d="M505.97-19.81h486.16v515.87h-486.16z"/>
      <rect ry="0" height="521.41" width="523.49" y="-25.343"/>
    </g>
    <g fill-rule="evenodd" fill="#fff40d">
      <path d="M477.985 226.311l7.065 20.407-18.441-12.629-18.441 12.626 7.068-20.404-18.46-12.605 22.807.021 7.029-20.416 7.029 20.416 22.807-.015z"/>
      <path d="M420.762 389.031l7.065 20.407-18.441-12.629-18.441 12.626 7.068-20.404-18.46-12.605 22.807.021 7.029-20.416 7.029 20.416 22.807-.015z"/>
      <path d="M477.985 352.196l7.065 20.407-18.441-12.629-18.441 12.626 7.068-20.404-18.46-12.605 22.807.021 7.029-20.416 7.029 20.416 22.807-.015z"/>
      <path d="M231.935 470.212l7.065 20.407-18.441-12.629-18.441 12.626 7.068-20.404-18.46-12.605 22.807.021 7.029-20.416 7.029 20.416 22.807-.015z"/>
      <path d="M274.866 381.756l-7.065-20.407 18.441 12.629 18.441-12.626-7.068 20.404 18.46 12.605-22.807-.021-7.029 20.416-7.029-20.416-22.807.015z"/>
      <path d="M342.099 288.774l-7.065-20.407 18.441 12.629 18.441-12.626-7.068 20.404 18.46 12.605-22.807-.021-7.029 20.416-7.029-20.416-22.807.015z"/>
      <path d="M398.607 269.457l-7.065-20.407 18.441 12.629 18.441-12.626-7.068 20.404 18.46 12.605-22.807-.021-7.029 20.416-7.029-20.416-22.807.015z"/>
      <path d="M342.099 430.388l-7.065-20.407 18.441 12.629 18.441-12.626-7.068 20.404 18.46 12.605-22.807-.021-7.029 20.416-7.029-20.416-22.807.015z"/>
      <path d="M274.866 446.842l-7.065-20.407 18.441 12.629 18.441-12.626-7.068 20.404 18.46 12.605-22.807-.021-7.029 20.416-7.029-20.416-22.807.015z"/>
    </g>
  </g>
</svg>
