<svg xmlns="http://www.w3.org/2000/svg" id="flag-icons-tw" viewBox="0 0 512 512">
  <clipPath id="tw-a">
    <path d="M0 0h512v512H0z"/>
  </clipPath>
  <g clip-path="url(#tw-a)">
    <path fill="red" d="M0 0h768v512H0z"/>
    <path fill="#000095" d="M0 0h384v256H0z"/>
    <g fill="#fff">
      <path d="M164.3 135.4l-2.7 10.2 10.1 2.7-2-7.4zm50 5.5l-2 7.4 10.1-2.7-2.7-10.2zm-44.6-25.8l-5.4 5.5 2 7.4z"/>
      <path d="M166.3 128l-2 7.4 5.4 5.5z"/>
      <path d="M164.3 120.6l-7.4 7.4 7.4 7.4 2-7.4zm14.8 29.7l5.5 5.4 7.4-2zm20.3 5.4l10.2 2.7 2.7-10.1-7.4 2z"/>
      <path d="M204.9 150.3l7.4-2 2-7.4zm-33.2-2l2.7 10.1 10.2-2.7-5.5-5.4zm20.3 5.4l7.4 2 5.5-5.4z"/>
      <path d="M184.6 155.7l7.4 7.4 7.4-7.4-7.4-2zm-12.9-48l-10.1 2.7 2.7 10.2 5.4-5.5zm-2 33.2l2 7.4 7.4 2zm48-12.9l2-7.4-5.4-5.5z"/>
      <path d="M179.1 105.7l-7.4 2-2 7.4zm35.2 9.4l-2-7.4-7.4-2zm5.4 20.3l7.4-7.4-7.4-7.4-2 7.4z"/>
      <path d="M214.3 115.1l-9.4-9.4-12.9-3.4-12.9 3.4-9.4 9.4-3.4 12.9 3.4 12.9 9.4 9.4 12.9 3.4 12.9-3.4 9.4-9.4 3.4-12.9z"/>
      <path d="M214.3 140.9l5.4-5.5-2-7.4zm5.4-20.3l2.7-10.2-10.1-2.7 2 7.4zM212.3 107.7l-2.7-10.1-10.2 2.7 5.5 5.4zm-27.7-7.4l-10.2-2.7-2.7 10.1 7.4-2z"/>
      <path d="M192 102.3l-7.4-2-5.5 5.4z"/>
      <path d="M199.4 100.3l-7.4-7.4-7.4 7.4 7.4 2z"/>
      <path d="M204.9 105.7l-5.5-5.4-7.4 2zm-20.3 50l-10.2 2.7 4.7 17.6 12.9-12.9zm-5.5 20.3l12.9 48 12.9-48-12.9-12.9zm-7.4-27.7l-10.1-2.7-4.7 17.5 17.5-4.7z"/>
      <path d="M156.9 163.1l-12.9 48 35.1-35.1-4.7-17.6zM144 140.9L108.9 176l48-12.9 4.7-17.5z"/>
      <path d="M164.3 135.4l-7.4-7.4-12.9 12.9 17.6 4.7zm0-14.8l-2.7-10.2-17.6 4.7 12.9 12.9z"/>
      <path d="M144 115.1L96 128l48 12.9 12.9-12.9zm96 25.8l-17.6 4.7 4.7 17.5 48 12.9z"/>
      <path d="M212.3 148.3l-2.7 10.1 17.5 4.7-4.7-17.5zm-12.9 7.4l-7.4 7.4 12.9 12.9 4.7-17.6zm20.3-20.3l2.7 10.2 17.6-4.7-12.9-12.9zM204.9 176l35.1 35.1-12.9-48-17.5-4.7zm7.4-68.3l10.1 2.7 4.7-17.5-17.5 4.7zm27.7 7.4L275.1 80l-48 12.9-4.7 17.5zm-12.9-22.2l12.9-48L204.9 80l4.7 17.6zm12.9 48l48-12.9-48-12.9-12.9 12.9z"/>
      <path d="M219.7 120.6l7.4 7.4 12.9-12.9-17.6-4.7zM179.1 80L144 44.9l12.9 48 17.5 4.7zm-7.4 27.7l2.7-10.1-17.5-4.7 4.7 17.5z"/>
      <path d="M156.9 92.9l-48-12.9 35.1 35.1 17.6-4.7zm42.5 7.4l10.2-2.7-4.7-17.6L192 92.9z"/>
      <path d="M204.9 80L192 32l-12.9 48L192 92.9z"/>
      <path d="M184.6 100.3l7.4-7.4L179.1 80l-4.7 17.6z"/>
    </g>
    <circle cx="192" cy="128" r="54.4" fill="#000095"/>
    <circle cx="192" cy="128" r="48" fill="#fff"/>
  </g>
</svg>
