<svg xmlns="http://www.w3.org/2000/svg" id="flag-icon-css-ug" width="512" height="512">
  <defs>
    <clipPath id="a">
      <path fill-opacity=".67" d="M124.02 0h496.06v496.06H124.02z"/>
    </clipPath>
  </defs>
  <g clip-path="url(#a)" transform="translate(-128) scale(1.0321)">
    <path fill="#ffe700" fill-rule="evenodd" d="M0 330.73h744.09v82.67H0z"/>
    <path fill-rule="evenodd" d="M0 248.03h744.09v82.67H0z"/>
    <path fill="#de3908" fill-rule="evenodd" d="M0 165.37h744.09v82.67H0z"/>
    <path fill="#ffe700" fill-rule="evenodd" d="M0 82.7h744.09v82.67H0z"/>
    <path fill-rule="evenodd" d="M0 0h744.09v82.67H0z"/>
    <path fill="#fffdff" fill-rule="evenodd" stroke="#000" stroke-width=".9" d="M449.28 248.03a77.23 77.23 0 1 1-154.46 0 77.23 77.23 0 0 1 154.46 0z"/>
    <path fill="#de3108" fill-rule="evenodd" stroke="#000" stroke-width=".9" d="M358.42 188.82l-5.01-9.23c1.93-1.94 5.19-3.43 10.38-3.43 0 .35-.53 10.11-.53 10.11l-4.84 2.55z"/>
    <path fill="#ffe700" fill-rule="evenodd" stroke="#000" stroke-width=".9" d="M363.25 186.37l.7-10.2s10.39-.62 16.02 6.15c.08-.09-5.54 7.92-5.54 7.92l-11.18-3.87z"/>
    <path fill="#de3108" fill-rule="evenodd" stroke="#000" stroke-width=".9" d="M374.6 190.15l5.1-7.92c3.44 3.6 4.84 6.16 5.37 10.03.09.09-8.1 2.02-8.1 1.94s-2.28-3.96-2.36-4.05z"/>
    <path fill-rule="evenodd" stroke="#000" stroke-linecap="round" stroke-linejoin="round" stroke-width=".84" d="M360.97 320.85s9.59-11 28.24-8.62c-2.82-4.58-11.88-4.05-11.88-4.05s-2.81-21.37-.61-22.43 11.52.1 11.52.1c1.23 0 3.34-3.35 1.67-5.46s-6.6-10.2-4.57-11.79c2.02-1.58 13.01.88 13.01.88l-31.05-39.75s-3.16-14.96 3.17-22.17c7.65-6.33 6.86-13.2 6.6-13.1-1.06-6.95-11.61-11.97-18.74-5.54-4.22 5.1-1.4 8.97-1.4 8.97s-11.09 2.99-11.53 4.92c-.44 1.94 12.5-.35 12.5-.35l-1.24 8.88s-25.15 22.87-5.89 42.66c.18-.09.62-.88.62-.88s6.77 8.36 13.9 10.2c6.68 6.86 6.06 5.8 6.06 5.8s1.32 10.83.09 12.94c-1.67-.53-18.73-1.15-21.29-.18-2.28.7-11.08.27-8.88 14.6l3.17-7.3s-.27 5.2 1.84 7.04c-.35-5.46 2.03-9.15 2.03-9.15s.44 5.98 1.76 6.86c1.32.88 1.32-9.67 8.62-8.8 7.3.89 12.57.62 12.57.62s2.47 20.67 1.67 22.6c-5.27-1.22-17.85.54-18.64 3.7 7.39-.44 10.82.44 10.82.44s-5.98 5.28-4.14 8.36z"/>
    <path fill="#9ca69c" fill-rule="evenodd" stroke="#9ca69c" stroke-linecap="round" stroke-linejoin="round" stroke-width=".84" d="M363.93 208.07s-18.3 20.17-10.4 35.6c.42-2.14.23-3.5.5-3.4-.44-.27 2.27 1.85 2.06 1.44.06-1.12-.82-3.51-.82-3.51l2.47.62-1.44-2.69 3.5.42s-1.23-3.3-.82-3.3a94 94 0 0 1 2.9.2c-5.22-9.34-.3-17.1 2.05-25.38z"/>
    <path fill="#9ca69c" fill-rule="evenodd" stroke="#9ca69c" stroke-width=".9" d="M370.3 190.76s.96 6.95-2.82 8.97c-.62.44-3 1.23-2.64 2.64.44 1.93 1.5 1.58 2.99 1.23 3.96-.7 8.53-9.15 2.46-12.84z"/>
    <path fill="#fff" fill-rule="evenodd" d="M363.52 196.74a1.5 1.5 0 1 1-2.99 0 1.5 1.5 0 0 1 3 0z"/>
    <path fill="#de3108" fill-rule="evenodd" stroke="#000" stroke-width=".9" d="M357.63 202.54c-.97.8-6.07 6.07-1.06 8.01 5.2-1.4 3.78-2.38 4.93-3.52.03-2.37-2.58-2.99-3.87-4.49z"/>
    <path fill="#9ca69c" fill-rule="evenodd" stroke="#9ca69c" stroke-linecap="round" stroke-linejoin="round" stroke-width=".84" d="M368.7 252.42c-.25 1.15-1.4 5.37.18 8.62 4.4-1.85 6.43-1.32 7.92-.35-3.6-2.9-5.01-4.13-8.1-8.27z"/>
    <path fill="#fff" fill-rule="evenodd" stroke="#fff" stroke-linecap="round" stroke-linejoin="round" stroke-width=".84" d="M376.28 272.39l.26 9.85s3.43.61 5.01 0c1.59-.62-.08-6.86-5.27-9.85z"/>
    <path fill="#9ca69c" fill-rule="evenodd" stroke="#000" stroke-width=".9" d="M401.17 273.62s-6.34-15.3-22.52-19.18-14.07-21.1-12.75-22.16c.7-1.5 1.23-3.78 5.89-1.58 4.66 2.2 26.12 13.01 29.2 13.54s.44 29.73.18 29.38z"/>
    <path fill="#de3108" fill-rule="evenodd" stroke="#000" stroke-linejoin="round" stroke-width=".84" d="M385.77 254.36c-.26.17 21.64 12.93 15.04 23.92 6.25-4.13 4.23-11.35 4.23-11.35s5.1 13.28-7.3 19.8c1.32 1.14 2.2.87 2.2.87l-2.12 2.11s-.97 1.59 7.4-2.46c-2.3 1.85-2.47 3.17-2.47 3.17s.61 1.76 6.07-3c-4.4 4.76-5.37 7.22-5.37 7.13 11.88-1.05 37.73-39.67-8.18-51.1 2.46 2.55 2.11 2.2 2.11 2.2l-11.6 8.7z"/>
    <path fill="#fff" fill-rule="evenodd" stroke="#000" stroke-linecap="round" stroke-linejoin="round" stroke-width=".84" d="M386.74 250.57c2.99 2.12 4.04 2.82 4.4 3.87-2.73-.61-5.2-.44-5.2-.44s-5.89-5.62-6.94-6.06c-.8 0-5.37-2.9-5.37-2.9-2.28-1.15-4.4-9.06 4.05-6.78 8.7 4.14 9.94 4.49 9.94 4.49L398 246l5.98 6.69s-10.64-5.28-11.96-5.37c2.9 2.38 4.57 5.63 4.57 5.63-3.37-.97-6.3-1.85-9.85-2.38z"/>
    <path fill="none" stroke="#fff" stroke-linecap="round" stroke-width=".84" d="M345.32 203.34s10.2-2.47 11.43-2.11"/>
    <path fill="#de3908" fill-rule="evenodd" d="M0 413.4h744.09v82.67H0z"/>
  </g>
</svg>
