<svg xmlns="http://www.w3.org/2000/svg" height="512" width="512">
  <g clip-path="url(#a)">
    <path fill-rule="evenodd" fill="#ffe700" d="M-128 341.346h767.975v85.319h-767.975z"/>
    <path fill-rule="evenodd" d="M-128 255.992h767.975v85.319h-767.975z"/>
    <path fill-rule="evenodd" fill="#de3908" d="M-128 170.678h767.975v85.319h-767.975z"/>
    <path fill-rule="evenodd" fill="#ffe700" d="M-128 85.355h767.975v85.319h-767.975z"/>
    <path fill-rule="evenodd" d="M-128 0h767.975v85.319h-767.975z"/>
    <g>
      <path d="M335.638 255.965c0 44.015-35.68 79.695-79.695 79.695s-79.695-35.68-79.695-79.695 35.68-79.695 79.695-79.695 79.695 35.68 79.695 79.695z" fill-rule="evenodd" stroke="#000" stroke-width="NaN" fill="#fffdff"/>
      <path d="M241.882 194.87l-5.174-9.53c1.997-1.997 5.356-3.54 10.71-3.54 0 .363-.545 10.438-.545 10.438l-4.992 2.632z" fill-rule="evenodd" stroke="#000" stroke-width="NaN" fill="#de3108"/>
      <path d="M246.872 192.334l.726-10.529s10.71-.635 16.519 6.353c.091-.091-5.718 8.168-5.718 8.168l-11.527-3.993z" fill-rule="evenodd" stroke="#000" stroke-width="NaN" fill="#ffe700"/>
      <path d="M258.583 196.236l5.264-8.168c3.54 3.721 4.992 6.353 5.536 10.347.091.091-8.35 2.087-8.35 1.997s-2.36-4.085-2.45-4.175z" fill-rule="evenodd" stroke="#000" stroke-width="NaN" fill="#de3108"/>
      <path stroke-linejoin="round" d="M244.515 331.107s9.893-11.346 29.135-8.895c-2.904-4.72-12.253-4.175-12.253-4.175s-2.904-22.055-.635-23.145l11.89.091c1.27 0 3.449-3.449 1.725-5.627-1.725-2.179-6.807-10.529-4.72-12.163 2.088-1.633 13.433.908 13.433.908l-32.039-41.025s-3.267-15.43 3.267-22.872c7.897-6.535 7.08-13.615 6.807-13.524-1.089-7.17-11.981-12.344-19.333-5.718-4.357 5.264-1.453 9.258-1.453 9.258s-11.436 3.086-11.89 5.082c-.454 1.997 12.888-.362 12.888-.362l-1.271 9.167s-25.958 23.598-6.081 44.02c.182-.091.635-.908.635-.908s6.989 8.623 14.34 10.529c6.898 7.08 6.263 5.99 6.263 5.99s1.361 11.164.091 13.342c-1.725-.545-19.333-1.179-21.965-.182-2.36.726-11.436.272-9.167 15.067 1.724-3.994 3.267-7.534 3.267-7.534s-.272 5.355 1.906 7.261c-.363-5.628 2.087-9.439 2.087-9.439s.454 6.172 1.815 7.079c1.362.908 1.362-9.984 8.895-9.076 7.533.908 12.979.635 12.979.635s2.541 21.329 1.724 23.326c-5.446-1.271-18.425.545-19.242 3.812 7.624-.454 11.164.453 11.164.453s-6.172 5.446-4.266 8.623z" fill-rule="evenodd" stroke="#000" stroke-linecap="round" stroke-width="0.86625"/>
      <path stroke-linejoin="round" d="M247.572 214.725s-18.888 20.819-10.739 36.75c.434-2.222.245-3.617.517-3.527-.454-.272 2.342 1.917 2.13 1.491.06-1.152-.852-3.62-.852-3.62l2.556.639-1.491-2.769 3.621.426s-1.278-3.407-.852-3.407c.426 0 2.981.213 2.981.213-5.371-9.64-.304-17.645 2.13-26.195z" fill-rule="evenodd" stroke="#9ca69c" stroke-linecap="round" stroke-width="0.86625" fill="#9ca69c"/>
      <path d="M254.134 196.866s.999 7.17-2.904 9.258c-.635.454-3.086 1.271-2.723 2.723.454 1.997 1.543 1.633 3.086 1.27 4.084-.726 8.804-9.439 2.541-13.252z" fill-rule="evenodd" stroke="#9ca69c" stroke-width="NaN" fill="#9ca69c"/>
      <path d="M247.149 203.041c0 .852-.691 1.543-1.543 1.543s-1.543-.691-1.543-1.543.691-1.543 1.543-1.543 1.543.691 1.543 1.543z" fill-rule="evenodd" fill="#fff"/>
      <path d="M241.064 209.028c-.999.817-6.263 6.263-1.089 8.26 5.356-1.453 3.903-2.45 5.083-3.631.03-2.45-2.663-3.086-3.994-4.629z" fill-rule="evenodd" stroke="#000" stroke-width="NaN" fill="#de3108"/>
      <path stroke-linejoin="round" d="M252.499 260.498c-.272 1.18-1.452 5.536.182 8.895 4.538-1.906 6.626-1.362 8.169-.363-3.721-2.995-5.173-4.266-8.351-8.532z" fill-rule="evenodd" stroke="#9ca69c" stroke-linecap="round" stroke-width="0.86625" fill="#9ca69c"/>
      <path stroke-linejoin="round" d="M260.309 281.1l.272 10.166s3.54.635 5.173 0c1.634-.635-.091-7.08-5.446-10.166z" fill-rule="evenodd" stroke="#fff" stroke-linecap="round" stroke-width="0.86625" fill="#fff"/>
      <path d="M285.991 282.369s-6.535-15.793-23.236-19.787-14.523-21.783-13.161-22.872c.726-1.543 1.271-3.903 6.081-1.633 4.811 2.269 26.957 13.432 30.134 13.977s.454 30.678.182 30.315z" fill-rule="evenodd" stroke="#000" stroke-width="NaN" fill="#9ca69c"/>
      <path stroke-linejoin="round" d="M270.108 262.493c-.272.182 22.328 13.342 15.52 24.687 6.445-4.266 4.357-11.708 4.357-11.708s5.264 13.705-7.534 20.422c1.362 1.18 2.27.907 2.27.907l-2.179 2.179s-.999 1.633 7.624-2.542c-2.36 1.906-2.541 3.267-2.541 3.267s.635 1.816 6.263-3.086c-4.538 4.902-5.537 7.443-5.537 7.352 12.253-1.089 38.938-40.934-8.441-52.734 2.542 2.633 2.178 2.27 2.178 2.27l-11.981 8.985z" fill-rule="evenodd" stroke="#000" stroke-width="0.86625" fill="#de3108"/>
      <path stroke-linejoin="round" d="M271.106 258.592c3.086 2.178 4.175 2.904 4.538 3.994-2.814-.635-5.355-.454-5.355-.454s-6.081-5.809-7.17-6.263c-.817 0-5.536-2.995-5.536-2.995-2.36-1.18-4.538-9.349 4.175-6.989 8.985 4.265 10.256 4.629 10.256 4.629l10.71 3.358 6.172 6.898s-10.982-5.446-12.344-5.537c2.995 2.45 4.72 5.809 4.72 5.809-3.48-.999-6.504-1.906-10.166-2.45z" fill-rule="evenodd" stroke="#000" stroke-linecap="round" stroke-width="0.86625" fill="#fff"/>
      <path d="M228.362 209.846s10.529-2.541 11.799-2.178" stroke="#fff" stroke-linecap="round" stroke-width="0.86625" fill="none"/>
    </g>
    <path fill-rule="evenodd" fill="#de3908" d="M-128 426.67h767.975v85.319h-767.975z"/>
  </g>
</svg>
