<svg xmlns="http://www.w3.org/2000/svg" xmlns:xlink="http://www.w3.org/1999/xlink" id="flag-icon-css-un" width="512" height="512">
  <path fill="#4b92db" fill-rule="evenodd" d="M0 0h512v512H0z"/>
  <g transform="translate(-128.7) scale(.64)">
    <path id="a" fill="#fff" d="M663.85 587.03c-2.7 3.08-6.18 5.96-9.46 8.6-21.24-21.94-46.16-46.25-69.86-46.25-14.69 0-25.27 11.18-37.61 19.07-17.13 10.95-40.63 17.11-60.76 9.08-10.83-4.11-21.32-10.17-29.17-20.01 15.85 10.93 39.58 12.4 57.48 4.98 19.77-8.21 39.9-19.1 62.44-19.1 33.22 0 64.8 22.47 86.94 43.63zm-245.54-69.01c22 25.04 57.87 16.98 87.23 23.23 4.1.87 7.93 2.23 12.32 1.56-3.5-2.22-8.12-2.46-12.15-3.98-22.78-8.59-26.34-32.97-38.8-49.75 15.92 10.59 29.11 25.08 44 38.7 10.37 9.48 23.28 13.54 36.68 16.26-3.22 1.18-7.43.9-10.9 1.76-24.05 5.97-50.72 15.39-76.32 6.94-16.52-5.45-33.71-18.36-42.06-34.72zm-35.26-57.95c13.72 31.06 48.2 33.5 71.11 52.55 4.36 3.62 8.68 6.96 13.47 9.19l.25-.25c-5.3-4.78-11.01-10.49-15.11-16.44-13.1-19.03-8.74-45.05-18.84-65.23 9.17 10.99 17.78 22.3 23.07 34.88 8.5 20.25 11.39 43.34 30.46 58.73-20.64-6.81-44.45-5.46-63.04-17.63-19.54-12.8-37.65-33-41.37-55.8zm-14.7-62.85c1.99 27.37 31.13 41.99 45.02 64.49 2.97 4.8 6.02 9.76 10.33 13.64-.67-2.91-3.07-5.5-4.39-8.36a62.8 62.8 0 0 1-5.36-32.3c1.35-13.98 7.18-26.96 4.94-41.66 11.98 25.85 8.12 58.16 15.04 86.11 1.53 6.18 5.3 11.6 7.61 17.45-11.76-8.95-27.18-16.9-40.1-27.08-12.49-9.84-23.33-21.38-28.96-36.4-4.06-10.81-5.12-23.72-4.12-35.89zm.82-50.42c1.4-6.11 2.48-12.43 5.14-18.04-5.03 25.82 12.14 44.47 18 66.8 2.22 8.42 2.97 17.37 6.38 25.22.31.17.59-.16.78-.41-8.47-23.77 3.95-45.74 16.05-64.48 3.18-4.93 4.71-10.66 6.2-16.46 1.3 10.76-.98 23.22-2.97 34.32-2.57 14.3-7.45 27.7-11.33 41.5-2.56 8.6-1.89 18.33-.57 27.36l-1.24-.98c-9.01-16.64-26.78-29.63-32.15-47.78-4.3-14.51-7.26-31.27-4.29-47.06zm9.5-27.77c0-19.54 7.6-35.48 19.02-50.03.33-.17.57-.5 1-.42-12.57 19.1-1.13 43.23-2.75 64.9l-1.65 22.25c.24.16.24.83.83.57.74-2.48.96-5.12 1.4-7.68 3.02-17.93 18.77-30.41 32.12-43.07a28.53 28.53 0 0 0 6.96-10.35c-1.11 8.94-3.6 18.1-7.61 26.21-10.28 20.81-30.13 37.6-33.7 61.26-1.74-22.67-15.62-39.52-15.62-63.65zm33.11-65.9c6.32-7.01 13.4-12.47 21.83-14.63-16.37 11.26-15.48 31.37-20.49 48.19-1.83 6.15-4.52 11.9-5.96 18.26l.42.33a54.01 54.01 0 0 1 13.48-19.83c11.51-10.86 28.82-17.43 34.51-33.32-.26 22.08-19.08 38.86-36.26 51.84-7.71 5.82-14.26 13.64-18.26 21.84.67-6.1.97-11.18.43-17.13-1.77-19.29-2.91-40.9 10.3-55.56zM478.21 216c-12.14 10.66-20.25 24.38-29.58 36.71-7.76 10.26-18.41 16.61-27.57 25.22 4.95-10.25 5.86-22 12.14-31.93 10.73-16.96 28.48-23.55 45.01-30z"/>
    <use width="100%" height="100%" transform="matrix(-1 0 0 1 1202.2 0)" xlink:href="#a"/>
  </g>
  <path fill="#fff" d="M350.95 279.48l-2.3-1.26a103.36 103.36 0 0 1-19.02 27.08l-13.42-13.41A83.9 83.9 0 0 0 332 269.12l-2.29-1.25a81.64 81.64 0 0 1-15.31 22.19l-12.15-12.15a64.04 64.04 0 0 0 12.34-18.3l-2.27-1.23a61.79 61.79 0 0 1-11.89 17.72l-13.43-13.43a42.41 42.41 0 0 0 8.58-13.44l-2.27-1.24a40.13 40.13 0 0 1-8.12 12.87L273 248.67a22.62 22.62 0 0 0 5.77-13.93h17.25A39.77 39.77 0 0 1 293.3 248l2.27 1.24a42.48 42.48 0 0 0 2.99-14.49h19.02a61.2 61.2 0 0 1-5.27 23.63l2.27 1.24a63.92 63.92 0 0 0 5.54-24.87h17.22a80.82 80.82 0 0 1-7.64 33.13l2.28 1.25c5-10.64 7.72-22.3 7.9-34.38h19.02a102.25 102.25 0 0 1-10.25 43.48l2.3 1.25a105.05 105.05 0 0 0 10.52-46c0-13.78-2.64-27.15-7.65-39.56l-2.36 1.02c4.72 11.7 7.28 24.29 7.44 37.27h-19.02a83.74 83.74 0 0 0-5.9-29.76l-2.35 1a81.14 81.14 0 0 1 5.71 28.76h-17.22a64.01 64.01 0 0 0-4.32-21.95l-2.34 1a61.5 61.5 0 0 1 4.12 20.95h-19.02a42.53 42.53 0 0 0-2.58-13.43l-2.34 1a39.96 39.96 0 0 1 2.38 12.43h-17.25a22.61 22.61 0 0 0-5.77-13.93l12.2-12.2a39.8 39.8 0 0 1 8.45 13.7l2.33-1a42.38 42.38 0 0 0-8.99-14.5l13.45-13.44a61.29 61.29 0 0 1 13.02 20.43l2.34-1a63.87 63.87 0 0 0-13.56-21.23l12.18-12.18a81.1 81.1 0 0 1 17.21 26.6l2.34-1a83.7 83.7 0 0 0-17.76-27.4l13.45-13.44a102.6 102.6 0 0 1 21.8 33.32l2.35-1.02a105.24 105.24 0 0 0-23.23-35.02 105.24 105.24 0 0 0-35.18-23.3l-.93 2.4a102.63 102.63 0 0 1 33.39 21.82l-13.45 13.45a83.75 83.75 0 0 0-26.9-17.55l-.92 2.36a81.12 81.12 0 0 1 26.03 17l-12.18 12.18a63.96 63.96 0 0 0-20.14-13.14l-.93 2.36a61.43 61.43 0 0 1 19.27 12.58L285.2 202.5a42.5 42.5 0 0 0-12.78-8.32l-.93 2.37a39.91 39.91 0 0 1 11.91 7.74l-12.2 12.2a22.61 22.61 0 0 0-13.93-5.77v-17.25a39.85 39.85 0 0 1 14.22 3.08l.93-2.37a42.46 42.46 0 0 0-15.15-3.25V171.9a61.42 61.42 0 0 1 22.1 4.56l.93-2.36a63.95 63.95 0 0 0-23.03-4.74v-17.23a81.21 81.21 0 0 1 29.32 5.93l.93-2.37a83.68 83.68 0 0 0-30.25-6.1v-19.02c12.96.15 25.52 2.7 37.2 7.41l.94-2.38A105.3 105.3 0 0 0 256 128a104.8 104.8 0 0 0-47.2 11.18l1.17 2.22a102.36 102.36 0 0 1 44.75-10.83v19.02a83.33 83.33 0 0 0-35.91 8.7l1.15 2.22c10.7-5.3 22.5-8.2 34.76-8.38v17.22a63.72 63.72 0 0 0-26.75 6.45l1.16 2.22a61.33 61.33 0 0 1 25.6-6.13v19.02a42.32 42.32 0 0 0-16.77 4l1.17 2.23a39.85 39.85 0 0 1 15.6-3.69v17.25c-2.68.15-5.23.76-7.58 1.76l1.16 2.23a20.24 20.24 0 0 1 7.69-1.51 20.16 20.16 0 0 1 14.34 5.94 20.16 20.16 0 0 1 5.95 14.35c0 11.18-9.1 20.29-20.3 20.29a20.15 20.15 0 0 1-14.34-5.94 20.16 20.16 0 0 1-5.94-14.35c0-5.42 2.11-10.52 5.94-14.35a20.27 20.27 0 0 1 6.66-4.44l-1.16-2.23a22.8 22.8 0 0 0-6.35 4.03l-12.21-12.2a39.96 39.96 0 0 1 10.53-7.14l-1.16-2.23a42.72 42.72 0 0 0-11.15 7.58l-13.46-13.46a61.61 61.61 0 0 1 15.78-11l-1.17-2.22a64.4 64.4 0 0 0-16.39 11.45l-12.2-12.2a81.33 81.33 0 0 1 20.59-14.55l-1.15-2.2a84.29 84.29 0 0 0-21.2 14.98l-13.48-13.48a103.01 103.01 0 0 1 25.83-18.4l-1.16-2.22a106.15 106.15 0 0 0-47.43 47.75l2.2 1.2a103.01 103.01 0 0 1 18.76-26.53l13.48 13.48a84.18 84.18 0 0 0-15.45 22.11l2.2 1.2a81.4 81.4 0 0 1 15.01-21.54l12.2 12.2a64.36 64.36 0 0 0-12 17.56l2.2 1.19a61.47 61.47 0 0 1 11.58-16.98l13.46 13.46a42.7 42.7 0 0 0-8.23 12.6l2.22 1.2a39.9 39.9 0 0 1 7.79-12.01l12.2 12.2a22.7 22.7 0 0 0-5.77 13.92h-17.25a39.94 39.94 0 0 1 3.03-14.11l-2.22-1.2a42.33 42.33 0 0 0-3.35 15.31h-19.02a61.3 61.3 0 0 1 5.57-24.4l-2.2-1.19a63.7 63.7 0 0 0-5.9 25.6h-17.23a80.96 80.96 0 0 1 7.91-33.82l-2.2-1.19a83.34 83.34 0 0 0-8.25 35H153.1a102.4 102.4 0 0 1 10.49-44.07l-2.21-1.19a104.81 104.81 0 0 0-10.85 46.53 105.85 105.85 0 0 0 4.24 29.73l2.5-.63a103.23 103.23 0 0 1-4.17-27.83h19.02a84.08 84.08 0 0 0 3.6 23.19l2.46-.62a81.53 81.53 0 0 1-3.52-22.56h17.22a64.31 64.31 0 0 0 3.04 18.34l2.47-.62a61.66 61.66 0 0 1-2.97-17.72h19.02a42.6 42.6 0 0 0 2.45 13.06l2.47-.63a40.06 40.06 0 0 1-2.38-12.44h17.25a22.61 22.61 0 0 0 5.77 13.93l-12.2 12.2a39.88 39.88 0 0 1-8.44-13.69l-2.47.63a42.37 42.37 0 0 0 9.12 14.86l-13.45 13.45a61.3 61.3 0 0 1-14.16-23.65l-2.47.62a63.73 63.73 0 0 0 14.84 24.83l-12.18 12.18a80.9 80.9 0 0 1-19.4-32.8l-2.47.63a83.45 83.45 0 0 0 20.07 33.96l-13.44 13.45a102.31 102.31 0 0 1-25.08-42.76l-2.49.62a104.86 104.86 0 0 0 26.65 44.86c8.6 8.6 18.43 15.53 29.1 20.63l1.25-2.24a102.86 102.86 0 0 1-27.64-19.31l13.45-13.45a83.9 83.9 0 0 0 23.57 16.13l1.26-2.22a81.35 81.35 0 0 1-23.03-15.7l12.18-12.19a63.97 63.97 0 0 0 19.35 12.81l1.26-2.22a61.44 61.44 0 0 1-18.81-12.37l13.45-13.45a42.36 42.36 0 0 0 14.8 9.1l1.27-2.25a39.86 39.86 0 0 1-14.28-8.65l12.2-12.2a22.6 22.6 0 0 0 13.93 5.77v17.26a40.03 40.03 0 0 1-11.85-2.18l-1.27 2.25a42.5 42.5 0 0 0 13.12 2.47v19.01a61.4 61.4 0 0 1-22.56-4.75l-1.25 2.22a63.9 63.9 0 0 0 23.81 5.07v17.23a81.07 81.07 0 0 1-32.31-7.22l-1.26 2.22a83.6 83.6 0 0 0 33.57 7.54v19.01c-15.1-.18-29.68-3.6-42.95-9.92l-1.26 2.24A105.1 105.1 0 0 0 256 338.97c16.8 0 32.97-3.93 47.53-11.3l-1.2-2.33a102.23 102.23 0 0 1-45.06 11.05v-19.01a83.45 83.45 0 0 0 36.36-8.89l-1.18-2.3a80.79 80.79 0 0 1-35.18 8.64v-17.22c9.64-.18 18.9-2.5 27.3-6.68l-1.18-2.3a61.17 61.17 0 0 1-26.12 6.44v-19.02a42.33 42.33 0 0 0 17.42-4.28l-1.17-2.28a39.81 39.81 0 0 1-16.25 4.02v-17.25a22.61 22.61 0 0 0 13.93-5.77l12.19 12.19a40.23 40.23 0 0 1-9.87 6.81l1.17 2.28a42.62 42.62 0 0 0 10.51-7.28l13.43 13.42a61.74 61.74 0 0 1-15.24 10.73l1.18 2.29a64.17 64.17 0 0 0 15.87-11.2l12.15 12.15a81.61 81.61 0 0 1-20.15 14.31l1.2 2.3a83.9 83.9 0 0 0 20.78-14.78l13.41 13.41a103.33 103.33 0 0 1-25.5 18.22l1.2 2.34a105.69 105.69 0 0 0 27.05-19.6 105.56 105.56 0 0 0 20.37-28.58z"/>
  <path fill="#fff" d="M261.4 209.09l.03.76.64-.03-.03-.76zm-.93-1.04h.85v.64h-.85zm-.79-.12l.09-.64-.75-.1-.09.63zm-1.38-.33l-.74-.1.1-.65.73.1zm-6.13-.85h.85v.64h-.85zm-1.1 1.4l.08-.65-.74-.1-.09.64zm-.67.86l-.86-.21.16-.63.85.22zm-1.53.8l-.1-.65.63-.1.1.65zm-83.83 65.17h-.53v1.08h.85v1.4h.64l-.11-1.61-.85-.33zm8.4 9.4l-.42.75-1.17-1.08-.85-1.18-.43-.97-.75-1.95 1.6.76.53 1.5.75.55zm21.5 28.72l-.86-1.3 1.28.22 1.38 1.19.54 1.4-.75.43-.43-.64-1.06-.33zm57.76-97.07h-1.17l-.2-2.37.63-.44v-1.18h-3.72l-.11-1.19.53-.33-.85-.32-.64.87-.2.97-1.07.21v.54h-.75v1.4l-2.98 2.49-5.95-.22c-.43.97-1.5-.1-1.5-.1-.2-.65-1.7 0-1.7 0 0 1.18-2.02-.54-2.02-.54l-3.72-2.7c-2.13-1.95-5.32.54-5.43 1.08.1 1.5-2.44.32-2.44.32s-2.13-.65-2.45.22c-.32.86-1.7.65-1.7.65l-.22.43-1.06.21-.21.65-1.28.22 3.19-.11c.85-.11-.32 1.83-.85 1.73l-1.5.1-.52.54h-1.39l-.63.87-2.02-.11s-1.18.97-1.07 1.3c.1.32-.21 1.29-.53 1.29-.32 0-.96.97-.75 1.3.22.32-.63 1.4-.63 1.4l-.22 1.08-.63.22v2.91l-1.28.87v1.3l-1.92 2.04.22 1.73-1.6 1.73.21 1.73-.95.32-.22.75-.42 2.27 1.06.11c.53-.22.43 1.4 0 1.62-.43.22-1.6.65-.96 1.08.64.43-1.7.32-1.7-.33 0-.64-1.28-1.18-1.6-.97-.31.22-.85-.97-.85-.97-1.17-1.18-4.78.1-4.78.1l-.54 1.74c-1.17.21-1.91 2.16-1.91 2.16-.96.32-1.7 1.5-1.38 1.83.31.33-.54.43-.54.43v2.38l-.53.76.1 2.59c.65 0 .54 1.19.54 1.19-1.07.1-.85 1.5-.85 1.5l-2.24.76-.42.65-2.77-.11-.74.76-.75-.76h-5.32l-.2-.54-1.07-.22-.11-1.18-1.6.1-.32.65-1.7.1c.1 1.09-1.7 2.7-1.91 2.28-.22-.43-1.39-1.62-.85-1.84.53-.21 1.91-.43 1.91-.43v-.76l-3.93-.1-.43.64-1.6.11v1.73l-.74.22c-.53.32.1 1.5.1 1.5.75.76-.1 1.95-.1 1.95-.64.65.53 1.84.53 1.84.85.21-.53.86-.53.86.2 1.08.85 1.4.85 1.4-.64 1.08.43 1.62.43 1.62l.1 1.84.75.43v1.19l.42.75h1.7l-.1-2.7c-1.5-1.72 1.27-2.16 1.38-1.5.11.64 1.28.96 1.28.96.21 1.62 2.02 2.6 2.55.98.53-1.62.96-.65 1.28.1.32.76 2.34 2.6 2.34 2.6h1.6l.21 1.5c1.8-.1 2.34.12 3.08 2.6a4.7 4.7 0 0 0 2.77 3.13l1.49-.11c0-1.3 1.49.22 1.49.87 0 .64 2.87 3.13 2.87 3.13l2.87.64 2.67 2.16 2.02-.21h.85c.53-1.84 3.08.1 3.3.75.2.65 1.91 1.73 2.12 1.19.22-.54 1.39-.21 1.6 1.4.21 1.62.96 1.3.96 1.3l6.06-.1 2.13-1.85 5.42-.1c2.77-.1 1.07-3.89.54-3.89-.96-.75.31-3.88.31-3.88l-7.76-7.24c-1.8 0-.21-2.6-.21-2.6 1.38-.86-.32-2.26-.32-2.26.21-1.3-.75-2.8-.75-2.8-1.91-1.3-1.38-3.79-1.38-3.79v-1.72c-1.6-1.51.64-1.73.64-1.73.74-1.3-.54-2.27-.54-2.27l-.1-1.4-1.7-.22-.21-5.07-3.83-5.51c-.75-.22-.22-1.51-.22-1.51.96-.54-.21-1.84-.21-1.84l-.1-2.37 2.22-.22.54-.86h1.06l-.1-2.81c.52-1.4 1.8-.65 1.8-.65l1.5.11.84-1.62.21-1.3-1.17-.1c-1.27-.76-.64-3.57-.64-3.57 2.03-3.02 4.37-1.3 4.37-1.3l1.49-.1c2.23 1.51.2 4.32.2 4.32-.42.65-.2 2.7-.2 2.7l.53 3.45-1.38 1.2c-1.17.64-1.17 2.15.1 2.48.85.1.53 2.16-.74.75-1.92 0 1.06 1.73.21 1.3 1.92.97 1.49-.87 1.49-.87l2.55-2.05c.96-.76 2.66 1.62 2.66 1.95 0 .32 4.26.1 4.26.1 1.17.76 1.6 2.7 1.6 2.7 1.16-1.51 3.61-.1 1.8.76 1.7 1.08 1.7 2.05 1.7 2.05 1.39-.43 1.39.65 1.39.97 0 .32.42-1.62.42-1.62-1.6-1.19 2.13-1.62 1.07.54l-.64.97 1.06.87.1 2.48c2.35-.22 1.71-3.13 1.71-3.13l1.06-.22c0-.97.75-.43.75-.43-.75-3.67 1.7-4.32 1.7-4.32 1.38-.32 1.5-3.24 1.5-3.24-.97-.43-.44-1.94.63-.64 1.06 1.29-.64-2.6-.64-2.6l-.85-.75-1.17-.11-.1-1.19h-1.92l-.32 1.51-.75.22-.2-.43-.33 1.18h-1.91l-.1-1.3 1.16-.31.43-.65.32-1.73h1.38l1.8-.54c.11-1.84 1.07-1.4 1.07-1.4l.64.54.96.75.1.65-.64.32-.1.87.32 1.18h.85c.32-1.72 2.55-1.72 3.2-.64l.63-1.52c-1.49-.75-.03-1.94.4-1.4.42.54 1.4-1.4 1.4-1.4s.75.97 0-.33c-.74-1.3.54-1.94.54-1.94-.21-1.3 1.38-1.08 1.38-1.08l.11-1.73-1.49-.1c-.32 1.5-1.6.21-.96-.11s1.28-.98 1.28-.98v-1.08l.64-.21.1-1.08h1.6l1.38-.65.32-.54 1.49-.1 2.13-1.95-.22-.86c-1.27 0 0-.98 0-.98l.21-1.61z"/>
  <path fill="#fff" d="M209.83 237.4l-1.92-.2.11.75h.53c.85 1.51.11 5.18.11 5.18s-1.27.1-1.49-.54c-.21-.65-.74 1.4-.32 1.73.43.32 1.92 0 2.02 1.19.1 1.18.96-.76.96-.76v-7.34z"/>
  <path fill="#fff" d="M210.25 249.5l.22-.97-.75-.32.1-1.62.65-.11.1-.76-1.6 1.08-1.06-.64v2.59l1.7 2.26zm.43 2.81l-.74.1-.11.87.85.1zm-.96 5.5l-.9.11v.76l.9-.1zm1.26-2.56c.25 0 .45-.2.45-.46 0-.25-.2-.46-.45-.46s-.45.21-.45.46c0 .26.2.46.45.46z"/>
  <ellipse cx="211.72" cy="257.06" fill="#fff" rx=".45" ry=".46"/>
  <ellipse cx="211.74" cy="244.73" fill="#fff" rx=".45" ry=".46"/>
  <path fill="#fff" d="M241.53 241.4l.22-1.08.63-.32.11-1.08.42-.76.65-.75.2-.87 1.07-.64 1.28-.22.53-.65.22-1.3.07-.96.46-.65 1.27-.54v-2.05h-.64l-.1-.76-1.17-.11-.21.54H246l-.1.86h.63l.11.65-.43.43-.2.54-.86.22-1.92 1.84-.1.86-.53.76-.64 1.61-2.24.11-.42 1.95.31 1.61zm9.36-5.29v-1.5l-.21-1.41-1.6-.76-1.17 1.08-.21 1.52v.97l-1.06.21-.22 2.92-.85.32.11 1.08-1.17.33-1.17.32-.21 1.4-.85.54-.43 1.3-.53 3.13s.96 1.84 1.49.97c.53-.86 1.38-.97 1.38-.97l.32-.75 2.87.1c.22-1.19 1.6-.75 1.6-.21s1.06.1 1.06.1l.75-1.18h1.17l.1-1.3.54-.32v-1.95c1.7-.54 1.48-2.16 1.48-2.16l.43-.53-.21-.76c-.85-.33-.43-1.08.1-.87.54.22-.74-.97-.74-.97-.64.54-1.17-.65-1.17-.65h-1.6zm1.7 13.07c-.1 1.3-1.7 1.72-1.7 1.72l-1.17-.32-.63-.54-.11-1.51.96-.1.2.64 2.46.1zm5.75-6.9c.23.93.21-1.52.64-1.41.42.1.1-1.51.1-1.51l-1.91 1.4c.96.1 1.06 1.08 1.17 1.51zm5.64-5.63c.43.97.32 2.38 1.91 3.46.54.36-.32 1.08-.85.75-.53-.32-2.02-2.7-2.02-2.7v-1.4c.32-.86.78-.53.96-.1zm1.38 32.5l-.64-.22-.74.55.32.32.31.54zm-4.04-1.4v1.3m16.24-3.4l-.34-.55-.85.54.33.55zm29.93 23.05l.96.43.1 1.83c1.29 1.3 5.43.22 5.43-.1 0-.33-.2-4-.2-4l-.54-.54-.1-2.7c.42-1.4-2.03-3.46-2.24-3.02-.21.43-1.6.1-1.6.54 0 .43-.85 2.59-.42 3.35.42.75-.32.75-.43 1.5-.1.76-1.17 2.06-.96 2.7zm-2.34-4.32c-.2.82-.95 1.3-1.38.97-.43-.33.53.54.75.97a.6.6 0 0 0 1.06 0c.2-.43.1-1.4.32-1.83.2-.44-.64-.54-.75-.11zm-4.94-19.81h.74v2.05h-.75zm11.01-20.79c-.47-.63 2.13-1.73 2.55-.43.43 1.3 0 1.08-.42.97-.43-.1-1.5.32-2.13-.54zm2.18-13.83l1.17.22.11-.64-1.17-.21zm-2.8 1.42l.6-.24-.22-.53-.14-.34-.31.17-.8.45-.69-.44-.33.55.85.54.16.1.16-.1.64-.35zm3.91-26.46h-1.6s.54.21-.95-1.19-2.45.32-2.45.32l-1.7.22v1.73l-.85.32.1 1.08 1.18-.1s0 1.29.32.75 2.98.1 2.77 1.4c-.1.54 2.66 1.95 2.34 3.67 1.38.22 1.06 1.62 1.06 1.62l1.8.22.54-1.08.53.11v-.65l-1.17-.32-.21-3.46-.75-.54.21-.86-.85-.33.43-1.4-.74-1.5zm4.68 11.01l-.85-.1-1.92.32-1.06 2.05s.53.33.96 1.08c.42.76.64 5.18-.64 5.94-1.27.76.1.32.1.32l-.2 2.38c.31 1.08.84.54 1.16 0 .33-.54.64-.65 1.07-1.19a5.71 5.71 0 0 0 1.17-2.27c.1-.75.64-1.94.32-2.26-.32-.33.32-1.84.32-1.84s.42-.86 0-1.73c-.43-.86.1-1.83.42-2.27l-.85-.43zm1.29 4.4l.11-.86.63.09-.1.86zm-.04 3l-.57-.3.32-.65.57.3zm-.93-8.58l-.42-.97s0-.87.2-1.3c.22-.43-.42-.86-.74-.97-.32-.1-.2-.97-.32-1.4-.1-.44-.85-.76-.85-.76s-.2-1.62-.2-1.94c0-.33-.97-.76-.65-1.08.32-.33.54-.76.86-.97.32-.22-.32-1.73.2-1.4.54.32.54.86.75 1.29.21.43-.1 1.94.43 2.27.53.32-.1 1.4.74 1.4.85 0 .32 2.05.32 2.05s-.21 1.51.32 1.62c.53.1.21 2.7.21 2.7l-.85-.54zm-6.9-17.5c.3.43.95.76.95 1.19 0 .43-.21.75.42.86.64.11 1.07-.1 1.28.43.21.54.21 1.4.1 1.84-.1.43.11 1.08.65 1.08.53 0 .64.11.64.43s.63-1.19.63-1.19c-.53-.43-.96-1.4-.96-1.4s-.53-1.51-.53-1.73c0-.21-.74-.43-1.06-.54-.32-.1-.85-1.08-.85-1.08l-1.28.11zm1.05-.97a3.02 3.02 0 0 0-1.06-.97c-.43-.21-.74-.43-1.17-.43a.7.7 0 0 1-.64-.97c.21-.54-.32-.76-.32-1.19 0-.43.32-.43.85-.1.53.32.43.42.85.97.43.54.64 1.08 1.06.97.43-.11.75.97 1.18.65.42-.33.32.75.32.75l-1.07.33zm-12.44 12.2c.58.6-3.2.43-3.2 0s.33-1.94 1.28-1.62c.96.33 1.06-1.94 1.06-1.94s-.85.1-.1-.32c.74-.43 0-1.08-.32-1.4-.32-.33-.64-.87-.64-.87h1.5c.63-.43.84-2.48.84-2.48 1.28.43 1.92-.44 1.92-.44s.21.65.64 1.2c.42.53-1.07.75-.54 1.07.54.33.75 1.3.54 1.62-.22.32-1.39.1-1.39-.32 0-.44-.42.54 0 1.08.43.54-.53 1.3-.74 1.3-.21 0-1.6.2-.43.86 1.17.64 2.45.32 2.45.32s.96-.1 1.28.43c.32.54-.1.65-.64.65-.53 0-3.09-.22-3.09-.22s-.74.76-.42 1.08zm-6.81.98c.53-.11 1.8-.22 2.02.1.21.33-.75.76-.75.76l-1.27.21c-.43-.54-.53-.97 0-1.08zm13.72-9.07c.85-.43 2.66-.43 2.56-1.08-.1-.65 1.06-.87 1.06-.87l.32 1.3.96.65.1 1.18s.32-.21-.85.11c-1.17.33-.42.86-.42.86l-2.56.11-.32-1.08-.85-1.18zm-4.15-5.83c.65 0-.21 2.48 1.49 2.26 1.7-.21.1.76 1.38.87 1.28.1.96-.97 1.39-1.73.42-.75.21-1.19-.53-1.4-.75-.22-.75-.22-.96-1.08-.21-.87-1.07-1.08-1.07-1.08l-.32-1.3-1.38.87-1.38 1.83c0 1.4.74.76 1.38.76zm2.82 9.12l.32-.65.57.3-.32.64zm-1.12-1.03h.64v.76h-.64zm.54-14.38l.1.97-.63.07-.1-.97zm-1.81 10.06h.64v.54h-.64zm-1.68 0l-.06-.65 1.07-.1.06.64zm-8.77 10.38l-.59-.26.32-.75.59.25zm-3.34-1.97l-.07-.64 1.07-.11.06.64zm-20.8-.1l.03.65 2.34-.1-.03-.65zm-1.57.84l-.2-.97.62-.14.2.97zm-.45.67l-.2-.62.32-.1.2.61zm5.33-1.82l-.1.75 1.16.11s.53.43.53.76.75.64 1.17.64c.43 0 1.6-.86 1.6-.86s.53-1.51.1-1.4c-.42.1-1.27.75-1.38.1-.1-.64-1.38-.32-1.38-.32l-1.7.22zm5.31-1.2c0 .33-.2.76.43.87.64.1 1.81-.43 1.92.22.1.64.1 1.08.95 1.4.85.33 1.39.43 2.03.43.63 0 2.02-.21 2.02-.21s1.5.23 1.8.54c1.18 1.19 1.92 1.5 2.24.97.32-.54-.1-1.73-.21-2.16-.11-.43-1.6-2.48-2.13-2.05-.53.43-.64 0-1.6.32-.96.33-2.98.11-3.08-.32-.1-.43-1.6-.65-1.6-1.08 0-.43-1.06-.97-.96-.33.11.65-.74.98-.96.76-.2-.22-.85.65-.85.65zm24.48-13.82l.74-2.37c-1.06-.22-.85-1.4-.85-1.4-.1-.98-1.6-2.06-2.12-1.73-.53.32-.32-2.27-.32-2.27s.96-.65 1.38-.33c.42.33-3.62-5.4-4.47-4.86-.85.54-2.76-.54-2.66-1.5.1-.98-3.83-4.22-3.83-4.22s-1.28-.86-1.49-.21c-.21.64-.64 1.08 0 1.4.64.32.53-.54 1.28.21.74.76 2.13 1.73 1.6 2.38-.54.65-1.18.86-1.18.86l.75.87h1.17l.21 1.83s1.28.65 1.6 1.4c.32.76.32 1.2 0 1.63-.32.43-.96 1.19-.85 1.94.1.76.95 1.08.95 1.08l.85.1.64.33v1.4c.85-.2 2.24.98 2.13 1.74-.1.75.21.32 1.28 1.08 1.06.75.74.86 1.49 1.4.74.54 1.38.21 1.7-.76z"/>
  <path fill="#fff" d="M285.36 176.62c-.1-.43-.32-1.94.32-1.84.64.11.22 0 .96.33.74.32.85-.54.85-.54h1.17l1.5 1.19-.22.97-1.07.1c-.53-.86-1.6-.54-1.38.22.22.76-.53 2.16-.95 2.27-.43.1-1.81.1-1.7-.54.1-.65.52-2.16.52-2.16zm-.85-2.92v-.86s-.1-.87-.64-.87c-.53 0-1.48-.64-1.27-1.08.21-.43-1.81-.86-1.81-.86s-1.8-1.73-1.17-1.5c.64.2.32-.77.32-.77s-1.28.22-1.6.11c-.32-.1-.21-1.08-.21-1.08s-1.28-.32-1.28 0c0 .33.43.33.64.97.21.65.1 1.73 1.06 1.95.96.21 1.17.43 1.28.86.1.43 1.28.54 1.28.54l.85.43 2.55 2.16zm-11.8-11.87l-.85-.22v.97l1.16.11zm0-3.67c-1.12-.85 1.48.65 1.48.65.85 0 1.39.64 1.39.97 0 .32 1.17.21 1.17.21l.1-.75-.85-1.08-.74-.54s-1.17-.11-1.17-.43c0-.33-.96 1.3-1.38.97zm19.57.64c-.31.95-.43 2.27-.96 2.27s-.32 1.4-.32 1.4 1.38 0 1.8.11c.43.11.43 1.2.43 1.2 1.6-.12 2.24 2.04 2.02 2.58-.2.54.64.54.64.54s0 1.73-.21 2.16c-.21.43 1.38.76 1.8 1.4.43.65-.2 2.81-.52 2.92-.32.1.85.43.74.97-.1.54.32 0 .43.87l.32 2.7 1.48.1c.22-1.4 2.96-1.45 3.4-1.3 1.82.66 3.2 3.46 3.2 4.11 0 .65-1.17.76-1.17.76l.21 3.13c1.81.54 3.3 3.13 3.09 3.56-.21.43 1.27.33 1.27.33.22-1.95 2.03-1.3 2.13-.65.11.65.43 2.05.43 2.05l.53.97.74.76 1.17-.11.32.65 1.39.21s1.17 1.3 1.27 1.62c.11.33 1.7.22 2.13.33.43.1 1.07.43 1.17.97.1.54.75 1.4.75 1.4s1.27.33 1.38.76c.1.43.64 1.4.64 1.4l1.06.87.1.97 1.18.1.32 1.3 1.91-.1 1.07-.76c1.38-.76 2.34-1.73 2.44-2.16.1-.43.32-2.05 1.39-1.73 1.06.33.32-2.37.32-2.37s-1.5-1.08-1.39-1.62c.1-.54-1.49-1.62-1.38-2.05.1-.44-1.38-1.3-1.28-1.73.1-.44-.74-1.62-.74-1.62l-1.6-1.51-.21-.98-1.28-.1-2.55-3.13.1-.87-.74-.1v-1.2l-.74-.43-1.18-.1-2.34-2.6-.2-1.18h-1.18l.21-2.27c.75-.97.32-2.8.32-2.8s-1.49.75-2.23.42c-.75-.32.32-1.08.32-1.08v-.86l-.64-.65s-1.8.22-1.92-.1c-.1-.33-.42-1.73-.42-1.73l-.1-1.84-.75-.32-.1-.65-1.18.1v-1.29l-.64-.22-.63-.32-.11-1.3-2.34-.1-.75-1.09-.85-1.3-2.66-.2-.64-.65-1.06-.22-.74-.32-.32.54-2.02.1-.11.65c-1.06.54-5.32.11-5.43.43zm11.17-2.8c-.17-.85 2.13-1.62 2.66-.97.53.64 2.02.75 2.23 4 .08 1.15-1.91-1.2-1.91-1.2l-1.6-.53c-.85-.22-1.28-.76-1.38-1.3zm-31.2 1.32l-.58-.26.42-.98.58.27zm-5.5-10.6l-1.39-1.41v-1.19l-.43-.43-.42-1.51-1.38-.43-1.39.54-1.49.97-1.6.22-.85.97 3.41.32.64 1.08 2.44.21 1.6 1.62c1.38.44 1.7-.21.85-.97zm-.22-5.3c-.23-.95-1.6 1.19-.2 1.62 1.38.43 2.76 0 2.76 0l.32-.65 5.31.11c.43-.43.64-1.08.64-1.08s1.28-.43 1.81-.22c.53.22.11-1.5-.42-1.3-.53.22-1.6.12-1.6.12h-1.91c-.11-.76-1.81-.44-1.92 0-.1.43-.74.54-.74.54l-2.45.21c-.21.65-1.49 1.08-1.6.65zM256 159.64c1.64.52 2.23.14 2.34-.3.1-.43.21-.54.85-.64.64-.11-.1-1.4-.74-1.3-.64.11-1.28-.21-1.39-.75-.1-.54-1.17-1.95-1.27-.87-.1 1.08-.75 1.08-.64 1.84.1.75.43 1.89.85 2.02zm-12.23 1.22c-.08-.39 2.13-.43 2.45-.11.32.32.1.86 1.06.86s.53.65.43.97c-.11.33-1.17.22-1.28-.1-.1-.33-1.7-.44-1.7-.44s-.85-.64-.96-1.18zm35.34-22.47l-.54-.55-.45.46.74.76.2.2.22-.18 1.08-.86-.4-.5zm-5.7-3.07l-.34.55.85.53.17.11.17-.1 1.17-.76-.34-.55-1 .65zm-2.91 22.62l-1.06-.1-.07.64.92.09.66 1.05.53-.34-.74-1.19-.08-.13zm-35.03 30.12l.1 1.2h1.6c.64 0-.53-.76-.53-.76s-1.28.1-1.17-.44zm2.03.04l.4-.5.64.54-.4.5zm-19.39-20.2l.46-.46.63.65-.45.46zm29.84 138.43l-.28.58.66.34-.22.22.46.46.53-.54.31-.32-.4-.2zm-7.58-7.73l-.64.54-.32.27.34.24.75.54.37-.53-.41-.3.32-.27zm79.52-19.99c-.14-.55-.76-.77-.83-.8l-.2.62c.05.01.12.05.2.1l.13.56-.14.19.46.44c.34-.38.47-.75.38-1.1zm-.06-2.11l.08-.98 1.04.17-.08.88zm25.7-8.35c.45-.28 1.04-.8.96.4-.08 1.22-.56.82-.96 1.22-.4.4-.64-1.21 0-1.62zm5.41-4.58l-.02-.15a1.76 1.76 0 0 0-.16-.67l-.57.29c.07.14.09.3.1.44.02.19.04.4.22.54.11.09.26.11.43.08l-.12-.63c.05.01.11.06.13.1zm-1.42.53c.17.66.4 1.3.41 1.33l.6-.22a12.71 12.71 0 0 1-.39-1.26l-.62.15zm-2.32 2.55l-.64-.06c-.05.5.08 1.14.58 1.24l.12-.64h.02c-.06-.04-.1-.3-.08-.54zm-2.8-12.88a.58.58 0 0 0-.35-.46c-.47-.2-1.26.14-1.65.4l.35.54c.4-.27.93-.4 1.05-.34a.07.07 0 0 1-.03-.04l.63-.1zm-29.46-34.5c-.43.43-1.38.65-1.38.65l-.32 1.19-.53.43s.1.32 0 1.08c-.11.75-1.07 1.19-1.07 1.19l-.42.54s-2.57.14-2.88 0c-.95-.43-.32-1.73.32-1.62.64.1-.1-1.84-.1-1.84l.85-.1s.1-1.95.42-1.95-.1-.65-.53-.97c-.43-.33-.96-1.4-1.39-1.3-.42.11-2.12 0-2.12 0l-.32.65-1.17.22s.1.83-.1 1.08c-.65.75-3.1 2.37-2.03-.33l.32-.64v-.98l-1.91-.1s-.96-.33-.96-.76-.11-.97-.11-.97l-2.23-2.48-2.66-.33-.22-.54-1.59-.21c-1.92-.97-3.62-.11-3.3 1.5.32 1.63.85 2.28-.21 2.28-1.07 0-1.28-.87-1.28-.87s-.85-.32-.85.1-.32 1.3 0 1.74c.32.43-.42 1.08-.74.75-.32-.32-1.17-1.3-.96-1.62.21-.32-1.5-2.37.21-2.7 1.7-.32-.1-1.3.53-1.5l.85-.44h.85l.54-.43-1.39-.22-.85-.1-1.6-.11c-1.59 1.08-1.9 2.37-1.9 2.37-.86 1.62-2.88-.64-2.13-1.5.74-.87-2.34-.12-2.88.32-.53.43-2.13.21-2.13.21-.32.97-1.8-.1-1.38-.75.43-.65.43-1.08.43-1.08l-.53-.11-.64 1.19c-1.5 0-1.92.86-1.6 1.4.32.54-.42-.1-.64.65-.2.75.11.75.75 1.08.64.32-.32.32.1.86.43.54 1.7 0 .96.76-.74.75-2.23.43-2.23.43-.1.97-2.13.75-2.34.43a79.77 79.77 0 0 0-1.81-2.27l-2.02-.1c-.21-1.51.96-.76 1.38-1.95.43-1.19.64-3.13.64-3.13s-1.7-.1-1.81.43c-.1.54-1.17.87-1.17.87s-.85.32-.53.75c.32.43-.64.65-.64.65s.16.7-.1.97c-.86.87-2.99.1-3.3-.22l-1.28-.54-1.28-.86-1.49.65-.42.43h-1.6l-.1 1.3 2.87.32.21 2.67-1.17-.4h-.74l-.32-.65-.64-.11V217l.64.54.53.54 1.06.11.22 1.3 2.66.1.31.55 1.6.1 3.09 3.13-.22.98-.53.32c.21.76-1.38.32-1.38.32v.65l.74.1.75.44 1.06-1.83c1.17-.76 1.7.32 1.81.97.1.65-.53.54-.53.54v1.51l.63.21c1.07 1.3-.42 2.06-.42 2.06l-.32 1.08c-.32.97-1.5.75-1.5.75l-.41.65-1.28.32 2.52.33c.24-.87.88-1.08 1.2-.65.32.43.32 1.19.32 1.19l.64.1-.1 1.2.63.2v3.46l.74.87c1.28-.54 1.28.32.64.75s-.21 2.38-.21 2.38l-.53.54v.86l-.64.43v1.2c-1.06-.55-2.34-.33-2.66 0-.96-.66-2.98-.44-2.98.1.64.86-.74 1.08-.74 1.08l-.75.86c.53 1.08-.53 1.19-.53 1.19v2.05l-1.28 1.19.11 2.8c0 .76 1.6.87 1.91.44.32-.43 1.6.86 1.6.86h.96l.21-1.94-.64-.33v-3.13l1.07-1.19c1.28-.43.85 2.81.85 3.14.1 1.18.64 1.08 1.17.86 1.06-.43.21 1.19-.64 1.08-.85-.1-.32 1.08-.32 1.08l.53.22-.96.75-.84.97-1.07-.32-1.28-.1-.42-.76-.75-.11-.1 1.5-.53.66-1.28 1.3c1.7 0-.22 1.18-.64 1.18.96.32-.1 1.3-2.55.54v.76l-.86.1.75.87.85.1-.32 1.84c0 1.4-3.51.43-3.83.1l-.1 1.95-.64.1.1 1.3-.1 1.84 1.17-.21v.75l2.87.11 4.15-4.43 2.45-.54c.2-1.08 1.27.22 1.27.22 1.07-.11 1.28.65 1.28.65l1.38.21c1.17.33.47.44.53.87.11.64.64.43.64.43l.22-1.4.64.1-.64-.75-1.17-.54-1.28-.54c-.85-1.2.21-.97 1.06-.87h1.39s1.6 2.16 1.6 2.7.74.65.74.65l.95-.1.32.75h.96l.32.64h1.92l.1-.97-1.8-.32-.11-1.08-1.28-.32c-.43-1.84.32-2.38.85-1.51l.64.1-.21-1.62.74-.21-.21-2.27-.64-.22v-.75l2.66.1c-.21-1.4.1-2.05.1-2.05h.75l.1.54 3.26.31 2.3-2.64c-.12-.2.23-.32-.02-.58-.32-.33-.75 0-1.28-.33-.53-.32 0-2.16-.1-2.59-.11-.43 1.8-1.08 1.48-.1-.32.97 0 1.4 0 1.4 1.39-1.3 2.56.1 2.45.43-.1.33.74.65 1.28.33.53-.33 1.17.97.95 1.61-.21.65-2.12.54-2.23-.1-.1-.65-.43-.44-.64-.11-.21.32-1.17.54-1.7.21a.5.5 0 0 1-.19-.17l-2.3 2.64.15.02c1.27.75.64 1.73.21 1.94-.42.22-1.17.22-1.17.22l-.2.43-2.78.21-.21 1.08c-1.38-.21-1.91 1.3-1.6 2.05.32.76 0 1.4 0 1.4l1.17.55 1.5-.43c.2-1.08 1.16-1.3 2.01-1.95.85-.64 2.24 1.19 1.81 2.05-.42.87-.42 1.2-.42 1.2l.1.96-1.06.43-.85.44-.1.54h-2.88l-.53.54-1.38.1-.43.65-.96.11s-1.6.76-.95 1.62c.63.87-2.66.76-3.41-.43-.21 1.08-1.38.1-1.38.1l-1.17-.32-.1-1.61c-.22-1.08-2.24-1.08-2.13-.33.1.76-3.84.33-3.84.33l-1.27.62-1.17.67-.11.54-1.92.22-.85.43-.32-.65h-.85l-.85 1.2c-2.23.1-4.36 1.4-4.15 1.93.22.54-.85 1.08-.85 1.08l-.96.32-.63.98-1.28.43-.21 2.27-.64.43v.97l-.74.22v.54l-1.07.1.64 1.63.85.43c1.5.21.85 2.05.85 2.05l.85.1.43 1.2.85 1.72c.32 1.3 1.28.97 1.7.87.43-.11.85 1.3.85 1.3l4.26.1s-.21.43.53.65c.75.21 5.64.43 5.85.1-.21-.97 2.66-1.18 3.83-.32 1.17.87 2.77.33 2.77.33l1.6 1.94 1.06 2.38 1.8.54 1.28.32.43 1.83.96.11.32 1.2c1.17.85-.32 2.69-.32 2.69v2.38l.85.43-.1.86 1.38 1.4 1.6.11 4.04 4.32 3.19.97.53 1.73.85-.1.64-.55 2.55-.1 1.28-1.2 1.38-.2 11.81-10.05-1.07-.65v-2.37c1.92-1.4 2.03-3.89.22-4.1-1.37-.17-.75-1.63.53-1.84l.75-.32v-.98l2.44-2.26v-1.73l-5.31-4.43c-2.35-.86 0-6.05 1.59-5.94 1.6.1-.1-7.99-.1-7.99l-.86-.43.21-2.6h-1.17l-1.91 2.5-.53 1.72c-.21 2.27-6.81 1.83-7.13 1.5-.32-.32-2.55-1.29-2.55-1.29s-1.7-1.4-2.03-.97c-.32.44-1.8-.54-1.8-.21 0 .32-1.39-.76-1.39-.76l-2.12-.76 1.6-.32-.33-1.3 2.77 1.4c.32.44 1.7.33 1.7.33l.42.54s.86-.1 1.39.54c.53.65 3.3.11 3.3.11l.74.65 1.17.43 3.3.11.1-2.05.65-.65-.11-1.3.74-.64v-1.08l.64-.22.1-2.37.54-.11V259l-1.6-1.52c-.1.54-1.8.54-1.8.54s-.43.76-.75.76.42.97.21 1.62c-.21.65-1.06.65-1.06.65l-1.6.43-.43.54h-1.7l-.21-1.4 1.91-.54 1.07-.54.53-1.08c.1-1.08 1.38-.97 1.38-.97s2.45-2.06 2.55-3.03c.11-.97.96-3.67 2.45-3.67H301c1.06-.43.74-1.83.74-1.83l1.39-.22.2.76s1.92.21 2.14-.11c.21-.32.63-1.08 1.17-.76.53.33 2.23-.75 2.23-.75.1-.76 2.77-.43 2.77-.43l.32-.98s-1.81-2.48-2.13-2.48c-.32 0-2.02-1.51-2.23-.97-1.7-.43-1.6-2.81-1.6-2.81l-.64-1.51c0-.87-1.6-2.7-1.91-2.48-1.6-1.2-.43-2.6 0-2.7.42-.11 1.49-1.62 1.49-1.62l.53-1.51 1.8-.54.22-1.4-.96-.12s1.06-1.94 1.6-1.94c.53 0 4.04 0 4.36-.22.32-.21.95-1.94.95-2.26 0-.33.86-.43 1.17-.54.32-.11 1.07-.97 1.28-1.4.22-.44-.53-3.14-.95-2.71z"/>
  <path fill="#fff" d="M256 258.2c.16-.16.32.48.64.4.32-.08.48.57.16.57-.32 0-.32.4-.32.57 0 .16 0 .56-.24.8-.24.25-.48.09-.8-.08-.32-.16-.48-.16-.88-.16s-.08.65-.08.65-1.67-.08-1.35-.32c.32-.24.64-.33.4-.49-.24-.16 0-.32 0-.65s.8-.16.55-.4c-.23-.25 0-1.19.4-.65l.24-.57c-.24-.24-.08-.32-.56-.48-.47-.16-.08-1.14-.08-1.14l.08-.65c.16-.8 1.76-.89 1.84-.16.08.73 0 1.22 0 1.22l.48.16s-.08.49-.48.49c-.4 0 0 .24-.24.48l.24.4zm-5.27.8c.24-.48.8-2.58 1.44-1.94.64.65 1.04 0 1.04 0s.32.33.16.98c-.16.64-.32 1.3-.72 1.37-.4.08-.72.33-1.2.4-.48.09-.72-.8-.72-.8z"/>
</svg>
