<svg xmlns="http://www.w3.org/2000/svg" height="512" width="512">
    <desc>
        The United States of America flag, produced by Daniel McRae
    </desc>
    <g fill-rule="evenodd" clip-path="url(#a)">
        <g>
            <g fill="#bd3d44">
                <path d="M0 0h972.809v39.385h-972.809z"/>
                <path d="M0 78.77h972.809v39.385h-972.809z"/>
                <path d="M0 157.54h972.809v39.385h-972.809z"/>
                <path d="M0 236.31h972.809v39.385h-972.809z"/>
                <path d="M0 315.08h972.809v39.385h-972.809z"/>
                <path d="M0 393.85h972.809v39.385h-972.809z"/>
                <path d="M0 472.62h972.809v39.385h-972.809z"/>
            </g>
            <g fill="#fff">
                <path d="M0 39.385h972.809v39.385h-972.809z"/>
                <path d="M0 118.155h972.809v39.385h-972.809z"/>
                <path d="M0 196.925h972.809v39.385h-972.809z"/>
                <path d="M0 275.695h972.809v39.385h-972.809z"/>
                <path d="M0 354.465h972.809v39.385h-972.809z"/>
                <path d="M0 433.235h972.809v39.385h-972.809z"/>
            </g>
        </g>
        <path fill="#192f5d" d="M0 0h389.124v275.695h-389.124z"/>
        <g fill="#fff">
            <g>
                <g>
                    <path d="M32.427 11.802l3.54 10.895h11.456l-9.268 6.734 3.54 10.895-9.268-6.734-9.268 6.734 3.54-10.895-9.268-6.734h11.456z"/>
                    <path d="M97.281 11.802l3.54 10.895h11.456l-9.268 6.734 3.54 10.895-9.268-6.734-9.268 6.734 3.54-10.895-9.268-6.734h11.456z"/>
                    <path d="M162.136 11.802l3.54 10.895h11.456l-9.268 6.734 3.54 10.895-9.268-6.734-9.268 6.734 3.54-10.895-9.268-6.734h11.456z"/>
                    <path d="M226.988 11.802l3.54 10.895h11.456l-9.268 6.734 3.54 10.895-9.268-6.734-9.268 6.734 3.54-10.895-9.268-6.734h11.456z"/>
                    <path d="M291.843 11.802l3.54 10.895h11.456l-9.268 6.734 3.54 10.895-9.268-6.734-9.268 6.734 3.54-10.895-9.268-6.734h11.456z"/>
                    <path d="M356.698 11.802l3.54 10.895h11.456l-9.268 6.734 3.54 10.895-9.268-6.734-9.268 6.734 3.54-10.895-9.268-6.734h11.456z"/>
                </g>
                <g>
                    <path d="M64.855 39.371l3.54 10.895h11.456l-9.268 6.734 3.54 10.895-9.268-6.734-9.268 6.734 3.54-10.895-9.268-6.734h11.456z"/>
                    <path d="M129.707 39.371l3.54 10.895h11.456l-9.268 6.734 3.54 10.895-9.268-6.734-9.268 6.734 3.54-10.895-9.268-6.734h11.456z"/>
                    <path d="M194.562 39.371l3.54 10.895h11.456l-9.268 6.734 3.54 10.895-9.268-6.734-9.268 6.734 3.54-10.895-9.268-6.734h11.456z"/>
                    <path d="M259.417 39.371l3.54 10.895h11.456l-9.268 6.734 3.54 10.895-9.268-6.734-9.268 6.734 3.54-10.895-9.268-6.734h11.456z"/>
                    <path d="M324.269 39.371l3.54 10.895h11.456l-9.268 6.734 3.54 10.895-9.268-6.734-9.268 6.734 3.54-10.895-9.268-6.734h11.456z"/>
                </g>
            </g>
            <g>
                <g>
                    <path d="M32.423 66.937l3.54 10.895h11.456l-9.268 6.734 3.54 10.895-9.268-6.734-9.268 6.734 3.54-10.895-9.268-6.734h11.456z"/>
                    <path d="M97.269 66.937l3.54 10.895h11.456l-9.268 6.734 3.54 10.895-9.268-6.734-9.268 6.734 3.54-10.895-9.268-6.734h11.456z"/>
                    <path d="M162.116 66.937l3.54 10.895h11.456l-9.268 6.734 3.54 10.895-9.268-6.734-9.268 6.734 3.54-10.895-9.268-6.734h11.456z"/>
                    <path d="M226.959 66.937l3.54 10.895h11.456l-9.268 6.734 3.54 10.895-9.268-6.734-9.268 6.734 3.54-10.895-9.268-6.734h11.456z"/>
                    <path d="M291.806 66.937l3.54 10.895h11.456l-9.268 6.734 3.54 10.895-9.268-6.734-9.268 6.734 3.54-10.895-9.268-6.734h11.456z"/>
                    <path d="M356.653 66.937l3.54 10.895h11.456l-9.268 6.734 3.54 10.895-9.268-6.734-9.268 6.734 3.54-10.895-9.268-6.734h11.456z"/>
                </g>
                <g>
                    <path d="M64.847 94.503l3.54 10.895h11.456l-9.268 6.734 3.54 10.895-9.268-6.734-9.268 6.734 3.54-10.895-9.268-6.734h11.456z"/>
                    <path d="M129.69 94.503l3.54 10.895h11.456l-9.268 6.734 3.54 10.895-9.268-6.734-9.268 6.734 3.54-10.895-9.268-6.734h11.456z"/>
                    <path d="M194.537 94.503l3.54 10.895h11.456l-9.268 6.734 3.54 10.895-9.268-6.734-9.268 6.734 3.54-10.895-9.268-6.734h11.456z"/>
                    <path d="M259.384 94.503l3.54 10.895h11.456l-9.268 6.734 3.54 10.895-9.268-6.734-9.268 6.734 3.54-10.895-9.268-6.734h11.456z"/>
                    <path d="M324.227 94.503l3.54 10.895h11.456l-9.268 6.734 3.54 10.895-9.268-6.734-9.268 6.734 3.54-10.895-9.268-6.734h11.456z"/>
                </g>
            </g>
            <g>
                <g>
                    <path d="M32.423 122.076l3.54 10.895h11.456l-9.268 6.734 3.54 10.895-9.268-6.734-9.268 6.734 3.54-10.895-9.268-6.734h11.456z"/>
                    <path d="M97.269 122.076l3.54 10.895h11.456l-9.268 6.734 3.54 10.895-9.268-6.734-9.268 6.734 3.54-10.895-9.268-6.734h11.456z"/>
                    <path d="M162.116 122.076l3.54 10.895h11.456l-9.268 6.734 3.54 10.895-9.268-6.734-9.268 6.734 3.54-10.895-9.268-6.734h11.456z"/>
                    <path d="M226.959 122.076l3.54 10.895h11.456l-9.268 6.734 3.54 10.895-9.268-6.734-9.268 6.734 3.54-10.895-9.268-6.734h11.456z"/>
                    <path d="M291.806 122.076l3.54 10.895h11.456l-9.268 6.734 3.54 10.895-9.268-6.734-9.268 6.734 3.54-10.895-9.268-6.734h11.456z"/>
                    <path d="M356.653 122.076l3.54 10.895h11.456l-9.268 6.734 3.54 10.895-9.268-6.734-9.268 6.734 3.54-10.895-9.268-6.734h11.456z"/>
                </g>
                <g>
                    <path d="M64.847 149.642l3.54 10.895h11.456l-9.268 6.734 3.54 10.895-9.268-6.734-9.268 6.734 3.54-10.895-9.268-6.734h11.456z"/>
                    <path d="M129.69 149.642l3.54 10.895h11.456l-9.268 6.734 3.54 10.895-9.268-6.734-9.268 6.734 3.54-10.895-9.268-6.734h11.456z"/>
                    <path d="M194.537 149.642l3.54 10.895h11.456l-9.268 6.734 3.54 10.895-9.268-6.734-9.268 6.734 3.54-10.895-9.268-6.734h11.456z"/>
                    <path d="M259.384 149.642l3.54 10.895h11.456l-9.268 6.734 3.54 10.895-9.268-6.734-9.268 6.734 3.54-10.895-9.268-6.734h11.456z"/>
                    <path d="M324.227 149.642l3.54 10.895h11.456l-9.268 6.734 3.54 10.895-9.268-6.734-9.268 6.734 3.54-10.895-9.268-6.734h11.456z"/>
                </g>
            </g>
            <g>
                <g>
                    <path d="M32.423 177.215l3.54 10.895h11.456l-9.268 6.734 3.54 10.895-9.268-6.734-9.268 6.734 3.54-10.895-9.268-6.734h11.456z"/>
                    <path d="M97.269 177.215l3.54 10.895h11.456l-9.268 6.734 3.54 10.895-9.268-6.734-9.268 6.734 3.54-10.895-9.268-6.734h11.456z"/>
                    <path d="M162.116 177.215l3.54 10.895h11.456l-9.268 6.734 3.54 10.895-9.268-6.734-9.268 6.734 3.54-10.895-9.268-6.734h11.456z"/>
                    <path d="M226.959 177.215l3.54 10.895h11.456l-9.268 6.734 3.54 10.895-9.268-6.734-9.268 6.734 3.54-10.895-9.268-6.734h11.456z"/>
                    <path d="M291.806 177.215l3.54 10.895h11.456l-9.268 6.734 3.54 10.895-9.268-6.734-9.268 6.734 3.54-10.895-9.268-6.734h11.456z"/>
                    <path d="M356.653 177.215l3.54 10.895h11.456l-9.268 6.734 3.54 10.895-9.268-6.734-9.268 6.734 3.54-10.895-9.268-6.734h11.456z"/>
                </g>
                <g>
                    <path d="M64.847 204.781l3.54 10.895h11.456l-9.268 6.734 3.54 10.895-9.268-6.734-9.268 6.734 3.54-10.895-9.268-6.734h11.456z"/>
                    <path d="M129.69 204.781l3.54 10.895h11.456l-9.268 6.734 3.54 10.895-9.268-6.734-9.268 6.734 3.54-10.895-9.268-6.734h11.456z"/>
                    <path d="M194.537 204.781l3.54 10.895h11.456l-9.268 6.734 3.54 10.895-9.268-6.734-9.268 6.734 3.54-10.895-9.268-6.734h11.456z"/>
                    <path d="M259.384 204.781l3.54 10.895h11.456l-9.268 6.734 3.54 10.895-9.268-6.734-9.268 6.734 3.54-10.895-9.268-6.734h11.456z"/>
                    <path d="M324.227 204.781l3.54 10.895h11.456l-9.268 6.734 3.54 10.895-9.268-6.734-9.268 6.734 3.54-10.895-9.268-6.734h11.456z"/>
                </g>
            </g>
            <g>
                <path d="M32.423 232.354l3.54 10.895h11.456l-9.268 6.734 3.54 10.895-9.268-6.734-9.268 6.734 3.54-10.895-9.268-6.734h11.456z"/>
                <path d="M97.269 232.354l3.54 10.895h11.456l-9.268 6.734 3.54 10.895-9.268-6.734-9.268 6.734 3.54-10.895-9.268-6.734h11.456z"/>
                <path d="M162.116 232.354l3.54 10.895h11.456l-9.268 6.734 3.54 10.895-9.268-6.734-9.268 6.734 3.54-10.895-9.268-6.734h11.456z"/>
                <path d="M226.959 232.354l3.54 10.895h11.456l-9.268 6.734 3.54 10.895-9.268-6.734-9.268 6.734 3.54-10.895-9.268-6.734h11.456z"/>
                <path d="M291.806 232.354l3.54 10.895h11.456l-9.268 6.734 3.54 10.895-9.268-6.734-9.268 6.734 3.54-10.895-9.268-6.734h11.456z"/>
                <path d="M356.653 232.354l3.54 10.895h11.456l-9.268 6.734 3.54 10.895-9.268-6.734-9.268 6.734 3.54-10.895-9.268-6.734h11.456z"/>
            </g>
        </g>
    </g>
</svg>
