<svg xmlns="http://www.w3.org/2000/svg" height="512" width="512">
    <g clip-path="url(#a)" fill-rule="evenodd">
        <path fill="#fff" d="M0 0h1023.977v511.984h-1023.977z"/>
        <path fill="#94acd4" d="M0 0h1023.977v177.212h-1023.977z"/>
        <path fill="#b73000" d="M0 165.477h1023.977v11.739h-1023.977z"/>
        <path fill="#00a900" d="M0 346.507h1023.977v165.477h-1023.977z"/>
        <path fill="#b73000" d="M0 346.507h1023.977v11.739h-1023.977z"/>
        <path fill="#feffff" d="M269.589 52.709l-9.54-6.562-9.444 6.716 3.259-11.151-9.263-6.946 11.55-.335 3.707-11.012 3.888 10.945 11.56.144-9.149 7.099z"/>
        <path fill="#feffff" d="M224.621 141.185l-9.54-6.562-9.444 6.716 3.259-11.151-9.263-6.946 11.55-.335 3.707-11.012 3.888 10.945 11.56.144-9.149 7.099z"/>
        <path fill="#feffff" d="M270.021 141.185l-9.54-6.562-9.444 6.716 3.259-11.151-9.263-6.946 11.55-.335 3.707-11.012 3.888 10.945 11.56.144-9.149 7.099z"/>
        <path fill="#feffff" d="M311.967 141.185l-9.54-6.562-9.444 6.716 3.259-11.151-9.263-6.946 11.55-.335 3.707-11.012 3.888 10.945 11.56.144-9.149 7.099z"/>
        <path fill="#feffff" d="M350.877 141.185l-9.54-6.562-9.444 6.716 3.259-11.151-9.263-6.946 11.55-.335 3.707-11.012 3.888 10.945 11.56.144-9.149 7.099z"/>
        <path fill="#feffff" d="M177.059 141.185l-9.54-6.562-9.444 6.716 3.259-11.151-9.263-6.946 11.55-.335 3.707-11.012 3.888 10.945 11.56.144-9.149 7.099z"/>
        <path fill="#feffff" d="M223.756 97.273l-9.54-6.562-9.444 6.716 3.259-11.151-9.263-6.946 11.55-.335 3.707-11.012 3.888 10.945 11.56.144-9.149 7.099z"/>
        <path fill="#feffff" d="M269.589 97.273l-9.54-6.562-9.444 6.716 3.259-11.151-9.263-6.946 11.55-.335 3.707-11.012 3.888 10.945 11.56.144-9.149 7.099z"/>
        <path fill="#feffff" d="M312.824 97.273l-9.54-6.562-9.444 6.716 3.259-11.151-9.263-6.946 11.55-.335 3.707-11.012 3.888 10.945 11.56.144-9.149 7.099z"/>
        <path fill="#feffff" d="M350.444 97.273l-9.54-6.562-9.444 6.716 3.259-11.151-9.263-6.946 11.55-.335 3.707-11.012 3.888 10.945 11.56.144-9.149 7.099z"/>
        <path fill="#feffff" d="M350.011 52.709l-9.54-6.562-9.444 6.716 3.259-11.151-9.263-6.946 11.55-.335 3.707-11.012 3.888 10.945 11.56.144-9.149 7.099z"/>
        <path fill="#feffff" d="M312.39 52.709l-9.54-6.562-9.444 6.716 3.259-11.151-9.263-6.946 11.55-.335 3.707-11.012 3.888 10.945 11.56.144-9.149 7.099z"/>
        <path d="M146.998 26.79c-51.018-13.988-83.336 22.142-82.849 54.52.486 32.379 30.317 66.665 76.358 58.111-72.341 33.911-109.34-19.504-107.865-61.917 2.541-50.129 58.87-91.011 114.356-50.715z" fill="#fff"/>
    </g>
</svg>
