<?xml version="1.0" encoding="UTF-8" standalone="no"?>
<svg id="svg548" xmlns:rdf="http://www.w3.org/1999/02/22-rdf-syntax-ns#" xmlns="http://www.w3.org/2000/svg" height="512" width="512" version="1.1" xmlns:cc="http://creativecommons.org/ns#" xmlns:dc="http://purl.org/dc/elements/1.1/">
 <metadata id="metadata3215">
  <rdf:RDF>
   <cc:Work rdf:about="">
  <dc:format>image/svg+xml</dc:format>
  <dc:type rdf:resource="http://purl.org/dc/dcmitype/StillImage"/>
   </cc:Work>
  </rdf:RDF>
 </metadata>
 <defs id="defs550">
  <clipPath id="clipPath5874" clipPathUnits="userSpaceOnUse">
   <rect id="rect5876" fill-opacity="0.67" height="496.06" width="496.06" y="-.00031739" x="0"/>
  </clipPath>
 </defs>
 <g id="flag" clip-path="url(#clipPath5874)" fill-rule="evenodd" transform="matrix(1.0321 0 0 1.0321 0 .00032759)">
  <rect id="rect568" height="496.06" width="992.13" y="-.000325" x="0" stroke-width="1pt" fill="#fff"/>
  <rect id="rect558" height="171.7" width="992.13" y="-.000015" x="0" stroke-width="1pt" fill="#94acd4"/>
  <rect id="rect555" height="11.374" width="992.13" y="160.33" x="0" stroke-width="1pt" fill="#b73000"/>
  <rect id="rect557" height="160.33" width="992.13" y="335.73" x="0" stroke-width="1pt" fill="#00a900"/>
  <rect id="rect556" height="11.374" width="992.13" y="335.73" x="0" stroke-width="1pt" fill="#b73000"/>
  <polygon id="polygon561" d="m 205.58449,128.73621 -10.01635,-6.84893 -9.90282,7.01206 3.41849,-11.64254 -9.72901,-7.2513 12.12909,-0.34657 3.88997,-11.493607 4.0777,11.428357 12.13314,0.14786 -9.60893,7.40967 z" points="205.58 128.74 195.57 121.89 185.66 128.9 189.08 117.26 179.36 110.01 191.48 109.66 195.37 98.165 199.45 109.59 211.58 109.74 201.98 117.15" transform="matrix(.92289 0 0 .92799 71.38 -68.428)" stroke-width="1pt" fill="#feffff"/>
  <polygon id="polygon562" d="m 205.58449,128.73621 -10.01635,-6.84893 -9.90282,7.01206 3.41849,-11.64254 -9.72901,-7.2513 12.12909,-0.34657 3.88997,-11.493607 4.0777,11.428357 12.13314,0.14786 -9.60893,7.40967 z" points="205.58 128.74 195.57 121.89 185.66 128.9 189.08 117.26 179.36 110.01 191.48 109.66 195.37 98.165 199.45 109.59 211.58 109.74 201.98 117.15" transform="matrix(.92289 0 0 .92799 27.81 17.296)" stroke-width="1pt" fill="#feffff"/>
  <polygon id="polygon563" d="m 205.58449,128.73621 -10.01635,-6.84893 -9.90282,7.01206 3.41849,-11.64254 -9.72901,-7.2513 12.12909,-0.34657 3.88997,-11.493607 4.0777,11.428357 12.13314,0.14786 -9.60893,7.40967 z" points="205.58 128.74 195.57 121.89 185.66 128.9 189.08 117.26 179.36 110.01 191.48 109.66 195.37 98.165 199.45 109.59 211.58 109.74 201.98 117.15" transform="matrix(.92289 0 0 .92799 71.798 17.296)" stroke-width="1pt" fill="#feffff"/>
  <polygon id="polygon564" d="m 205.58449,128.73621 -10.01635,-6.84893 -9.90282,7.01206 3.41849,-11.64254 -9.72901,-7.2513 12.12909,-0.34657 3.88997,-11.493607 4.0777,11.428357 12.13314,0.14786 -9.60893,7.40967 z" points="205.58 128.74 195.57 121.89 185.66 128.9 189.08 117.26 179.36 110.01 191.48 109.66 195.37 98.165 199.45 109.59 211.58 109.74 201.98 117.15" transform="matrix(.92289 0 0 .92799 112.44 17.296)" stroke-width="1pt" fill="#feffff"/>
  <polygon id="polygon565" d="m 205.58449,128.73621 -10.01635,-6.84893 -9.90282,7.01206 3.41849,-11.64254 -9.72901,-7.2513 12.12909,-0.34657 3.88997,-11.493607 4.0777,11.428357 12.13314,0.14786 -9.60893,7.40967 z" points="205.58 128.74 195.57 121.89 185.66 128.9 189.08 117.26 179.36 110.01 191.48 109.66 195.37 98.165 199.45 109.59 211.58 109.74 201.98 117.15" transform="matrix(.92289 0 0 .92799 150.14 17.296)" stroke-width="1pt" fill="#feffff"/>
  <polygon id="polygon566" d="m 205.58449,128.73621 -10.01635,-6.84893 -9.90282,7.01206 3.41849,-11.64254 -9.72901,-7.2513 12.12909,-0.34657 3.88997,-11.493607 4.0777,11.428357 12.13314,0.14786 -9.60893,7.40967 z" points="205.58 128.74 195.57 121.89 185.66 128.9 189.08 117.26 179.36 110.01 191.48 109.66 195.37 98.165 199.45 109.59 211.58 109.74 201.98 117.15" transform="matrix(.92289 0 0 .92799 -18.272 17.296)" stroke-width="1pt" fill="#feffff"/>
  <polygon id="polygon567" d="m 205.58449,128.73621 -10.01635,-6.84893 -9.90282,7.01206 3.41849,-11.64254 -9.72901,-7.2513 12.12909,-0.34657 3.88997,-11.493607 4.0777,11.428357 12.13314,0.14786 -9.60893,7.40967 z" points="205.58 128.74 195.57 121.89 185.66 128.9 189.08 117.26 179.36 110.01 191.48 109.66 195.37 98.165 199.45 109.59 211.58 109.74 201.98 117.15" transform="matrix(.92289 0 0 .92799 26.972 -25.25)" stroke-width="1pt" fill="#feffff"/>
  <polygon id="polygon568" d="m 205.58449,128.73621 -10.01635,-6.84893 -9.90282,7.01206 3.41849,-11.64254 -9.72901,-7.2513 12.12909,-0.34657 3.88997,-11.493607 4.0777,11.428357 12.13314,0.14786 -9.60893,7.40967 z" points="205.58 128.74 195.57 121.89 185.66 128.9 189.08 117.26 179.36 110.01 191.48 109.66 195.37 98.165 199.45 109.59 211.58 109.74 201.98 117.15" transform="matrix(.92289 0 0 .92799 71.38 -25.25)" stroke-width="1pt" fill="#feffff"/>
  <polygon id="polygon569" d="m 205.58449,128.73621 -10.01635,-6.84893 -9.90282,7.01206 3.41849,-11.64254 -9.72901,-7.2513 12.12909,-0.34657 3.88997,-11.493607 4.0777,11.428357 12.13314,0.14786 -9.60893,7.40967 z" points="205.58 128.74 195.57 121.89 185.66 128.9 189.08 117.26 179.36 110.01 191.48 109.66 195.37 98.165 199.45 109.59 211.58 109.74 201.98 117.15" transform="matrix(.92289 0 0 .92799 113.27 -25.25)" stroke-width="1pt" fill="#feffff"/>
  <polygon id="polygon570" d="m 205.58449,128.73621 -10.01635,-6.84893 -9.90282,7.01206 3.41849,-11.64254 -9.72901,-7.2513 12.12909,-0.34657 3.88997,-11.493607 4.0777,11.428357 12.13314,0.14786 -9.60893,7.40967 z" points="205.58 128.74 195.57 121.89 185.66 128.9 189.08 117.26 179.36 110.01 191.48 109.66 195.37 98.165 199.45 109.59 211.58 109.74 201.98 117.15" transform="matrix(.92289 0 0 .92799 149.72 -25.25)" stroke-width="1pt" fill="#feffff"/>
  <polygon id="polygon571" d="m 205.58449,128.73621 -10.01635,-6.84893 -9.90282,7.01206 3.41849,-11.64254 -9.72901,-7.2513 12.12909,-0.34657 3.88997,-11.493607 4.0777,11.428357 12.13314,0.14786 -9.60893,7.40967 z" points="205.58 128.74 195.57 121.89 185.66 128.9 189.08 117.26 179.36 110.01 191.48 109.66 195.37 98.165 199.45 109.59 211.58 109.74 201.98 117.15" transform="matrix(.92289 0 0 .92799 149.3 -68.428)" stroke-width="1pt" fill="#feffff"/>
  <polygon id="polygon572" d="m 205.58449,128.73621 -10.01635,-6.84893 -9.90282,7.01206 3.41849,-11.64254 -9.72901,-7.2513 12.12909,-0.34657 3.88997,-11.493607 4.0777,11.428357 12.13314,0.14786 -9.60893,7.40967 z" points="205.58 128.74 195.57 121.89 185.66 128.9 189.08 117.26 179.36 110.01 191.48 109.66 195.37 98.165 199.45 109.59 211.58 109.74 201.98 117.15" transform="matrix(.92289 0 0 .92799 112.85 -68.428)" stroke-width="1pt" fill="#feffff"/>
  <path id="path575" d="m142.44 28.532c-49.436-13.476-80.752 21.331-80.28 52.524 0.471 31.194 29.377 64.224 73.99 55.984-70.098 32.67-105.95-18.79-104.52-59.65 2.462-48.294 57.045-87.679 110.81-48.858z" transform="matrix(1 0 0 1.0055 0 -2.7387)" fill="#fff"/>
 </g>
</svg>
