<svg xmlns="http://www.w3.org/2000/svg" height="512" width="512" version="1">
  <g fill-rule="evenodd">
    <path fill="#fff" d="M255.992 0h255.992v511.984h-255.992z"/>
    <g>
      <path d="M282.43-735.13c0 .625 55.956 222.85 118.17 300.56 69.375 87.27 113.18 87.333 113.18 87.333l70.866-17.717s-41.496 2.093-123.8-104.21c-83.45-107.78-109.42-285.96-108.17-282.84l-70.241 16.875z" transform="matrix(-.216 0 0 .178 450.664 340.121)" stroke="#000" stroke-width="1pt" fill="#fff"/>
      <path d="M285-727.64c-1.535-9.369 33.898 220.95 140.2 327.24 53.149 53.15 88.583 53.15 88.583 53.15l88.582-17.717s-51.712 3.751-134.02-102.55c-83.45-107.78-108.58-263.25-107.96-263.87l-75.38 3.75z" transform="matrix(.216 0 0 .178 313.778 341.739)" stroke="#000" stroke-width="1pt" fill="#fff"/>
      <path d="M282.43-735.13c0 .625 55.956 222.85 118.17 300.56 69.375 87.27 113.18 87.333 113.18 87.333l70.866-17.717s-41.496 2.093-123.8-104.21c-83.45-107.78-109.42-285.96-108.17-282.84l-70.241 16.875z" transform="matrix(.216 0 0 .178 313.778 341.739)" stroke="#000" stroke-width="1pt" fill="#fff"/>
      <path d="M285-727.64c-1.535-9.369 33.898 220.95 140.2 327.24 53.149 53.15 88.583 53.15 88.583 53.15l88.582-17.717s-51.712 3.751-134.02-102.55c-83.45-107.78-108.58-263.25-107.96-263.87l-75.38 3.75z" transform="matrix(-.216 0 0 .178 450.664 340.121)" stroke="#000" stroke-width="1pt" fill="#fff"/>
      <path d="M344.54-596.29l9.152 22.141s1.455-9.767 8.526-11.534l7.071-1.768s26.864 49.328 32.168 58.167c5.302 8.838-3.536 16.793-1.769 16.793 1.769 0 26.517-11.49 26.517-11.49s-10.606.883-15.026-6.188l-34.819-59.934s6.187-2.652 11.49-5.303c5.304-2.652 10.607 7.955 10.607 7.955l-13.258-26.517s0 8.839-4.42 10.607c-4.419 1.767-7.955 3.535-7.955 3.535s-3.535-6.187-7.955-13.258c-4.419-7.071 4.42-14.142 4.42-14.142l-22.981 11.49s7.955 4.42 10.607 8.839c2.651 4.42 5.303 8.839 5.303 8.839s-3.223 1.768-8.214 3.482c-3.589 1.875-7.696.054-9.464-1.714z" transform="matrix(.216 .004 -.005 .178 312.088 347.217)" stroke="#000" stroke-width="1pt" fill="#fff133"/>
      <g stroke="#000" stroke-width="14.25" fill="#b00">
        <path d="M338.974 341.605c-.567-.071-.815-.496-.496-.85s1.205-.638 1.772-.567l3.118.39c.567.071.815.496.496.85-.333.37-1.205.638-1.772.567l-3.118-.39z"/>
        <path d="M337.479 342.994c-.567-.106-.815-.567-.496-.921s1.205-.602 1.772-.496l3.118.585c.567.106.815.567.496.921-.333.37-1.205.602-1.772.496l-3.118-.585z"/>
        <path d="M335.592 344.227c-.567-.071-.815-.496-.496-.85s1.205-.638 1.772-.567l3.118.39c.567.071.815.496.496.85-.333.37-1.205.638-1.772.567l-3.118-.39z"/>
        <path d="M357.092 326.397c-.567.035-.921-.354-.709-.78s.992-.886 1.559-.921l3.118-.195c.567-.035.921.354.709.78-.222.444-.992.886-1.559.921l-3.118.195z"/>
        <path d="M356.026 327.944c-.567 0-.921-.425-.709-.85s.992-.85 1.559-.85h3.118c.567 0 .921.425.709.85-.222.444-.992.85-1.559.85h-3.118z"/>
        <path d="M354.6 329.506c-.567.035-.921-.354-.709-.78s.992-.886 1.559-.921l3.118-.195c.567-.035.921.354.709.78-.222.444-.992.886-1.559.921l-3.118.195z"/>
        <path d="M353.247 330.214c-.567 0-.886-.425-.638-.85s1.063-.85 1.63-.85h3.118c.567 0 .886.425.638.85-.259.444-1.063.85-1.63.85h-3.118z"/>
        <path d="M361.977 320.375c-.567.071-.992-.283-.85-.709s.85-.921 1.417-.992l3.118-.39c.567-.071.992.283.85.709-.148.444-.85.921-1.417.992l-3.118.39z"/>
        <path d="M361.082 321.914c-.567.071-.992-.283-.85-.709s.85-.921 1.417-.992l3.118-.39c.567-.071.992.283.85.709-.148.444-.85.921-1.417.992l-3.118.39z"/>
        <path d="M359.935 323.822c-.567.071-.992-.283-.85-.709s.85-.921 1.417-.992l3.118-.39c.567-.071.992.283.85.709-.148.444-.85.921-1.417.992l-3.118.39z"/>
        <path d="M358.41 325.168c-.567.071-.957-.283-.78-.709s.921-.921 1.488-.992l3.118-.39c.567-.071.957.283.78.709-.185.444-.921.921-1.488.992l-3.118.39z"/>
        <path d="M345.698 336.765c-.567-.035-.85-.461-.567-.85s1.134-.744 1.701-.709l3.118.195c.567.035.85.461.567.85-.296.407-1.134.744-1.701.709l-3.118-.195z"/>
        <path d="M344.322 338.249c-.567-.071-.85-.531-.567-.921s1.134-.709 1.701-.638l3.118.39c.567.071.85.531.567.921-.296.407-1.134.709-1.701.638l-3.118-.39z"/>
        <path d="M342.58 339.604c-.567-.035-.85-.461-.567-.85s1.134-.744 1.701-.709l3.118.195c.567.035.85.461.567.85-.296.407-1.134.744-1.701.709l-3.118-.195z"/>
        <path d="M340.863 340.371c-.567-.106-.815-.567-.496-.921s1.205-.602 1.772-.496l3.118.585c.567.106.815.567.496.921-.333.37-1.205.602-1.772.496l-3.118-.585z"/>
        <path d="M351.689 331.91c-.567 0-.886-.425-.638-.85s1.063-.85 1.63-.85h3.118c.567 0 .886.425.638.85-.259.444-1.063.85-1.63.85h-3.118z"/>
        <path d="M350.462 333.282c-.567 0-.886-.425-.638-.85s1.063-.85 1.63-.85h3.118c.567 0 .886.425.638.85-.259.444-1.063.85-1.63.85h-3.118z"/>
        <path d="M348.816 333.925c-.567-.035-.85-.461-.567-.85s1.134-.744 1.701-.709l3.118.195c.567.035.85.461.567.85-.296.407-1.134.744-1.701.709l-3.118-.195z"/>
        <path d="M347.44 335.41c-.567-.071-.85-.531-.567-.921s1.134-.709 1.701-.638l3.118.39c.567.071.85.531.567.921-.296.407-1.134.709-1.701.638l-3.118-.39z"/>
        <path d="M372.004 300.79c-.531.177-1.028-.106-.992-.567s.602-1.098 1.134-1.276l2.923-.974c.531-.177 1.028.106.992.567-.037.481-.602 1.098-1.134 1.276l-2.923.974z"/>
        <path d="M371.07 301.53c-.531.142-.957-.177-.85-.638s.744-1.063 1.276-1.205l2.923-.78c.531-.142.957.177.85.638-.111.481-.744 1.063-1.276 1.205l-2.923.78z"/>
        <path d="M370.651 303.535c-.531.142-.992-.177-.921-.638s.673-1.063 1.205-1.205l2.923-.78c.531-.142.992.177.921.638-.074.481-.673 1.063-1.205 1.205l-2.923.78z"/>
        <path d="M369.524 305.15c-.531.142-.957-.177-.85-.638s.744-1.063 1.276-1.205l2.923-.78c.531-.142.957.177.85.638-.111.481-.744 1.063-1.276 1.205l-2.923.78z"/>
        <path d="M373.875 295.026c-.531.177-1.028-.106-.992-.567s.602-1.098 1.134-1.276l2.923-.974c.531-.177 1.028.106.992.567-.037.481-.602 1.098-1.134 1.276l-2.923.974z"/>
        <path d="M373.197 297.081c-.531.177-1.028-.106-.992-.567s.602-1.098 1.134-1.276l2.923-.974c.531-.177 1.028.106.992.567-.037.481-.602 1.098-1.134 1.276l-2.923.974z"/>
        <path d="M372.682 298.734c-.531.177-1.028-.106-.992-.567s.602-1.098 1.134-1.276l2.923-.974c.531-.177 1.028.106.992.567-.037.481-.602 1.098-1.134 1.276l-2.923.974z"/>
        <path d="M365.755 313.828c-.567.106-.992-.248-.85-.709s.85-1.028 1.417-1.134l3.118-.585c.567-.106.992.248.85.709-.148.481-.85 1.028-1.417 1.134l-3.118.585z"/>
        <path d="M364.93 315.606c-.567.071-.992-.319-.85-.78s.85-.992 1.417-1.063l3.118-.39c.567-.071.992.319.85.78-.148.481-.85.992-1.417 1.063l-3.118.39z"/>
        <path d="M363.867 317.335c-.567.106-.992-.248-.85-.709s.85-1.028 1.417-1.134l3.118-.585c.567-.106.992.248.85.709-.148.481-.85 1.028-1.417 1.134l-3.118.585z"/>
        <path d="M363.125 318.467c-.567.071-.992-.283-.85-.709s.85-.921 1.417-.992l3.118-.39c.567-.071.992.283.85.709-.148.444-.85.921-1.417.992l-3.118.39z"/>
        <path d="M369.105 307.155c-.531.142-.992-.177-.921-.638s.673-1.063 1.205-1.205l2.923-.78c.531-.142.992.177.921.638-.074.481-.673 1.063-1.205 1.205l-2.923.78z"/>
        <path d="M368.703 308.593c-.567.071-.992-.319-.85-.78s.85-.992 1.417-1.063l3.118-.39c.567-.071.992.319.85.78-.148.481-.85.992-1.417 1.063l-3.118.39z"/>
        <path d="M367.642 310.321c-.567.106-.992-.248-.85-.709s.85-1.028 1.417-1.134l3.118-.585c.567-.106.992.248.85.709-.148.481-.85 1.028-1.417 1.134l-3.118.585z"/>
        <path d="M366.817 312.1c-.567.071-.992-.319-.85-.78s.85-.992 1.417-1.063l3.118-.39c.567-.071.992.319.85.78-.148.481-.85.992-1.417 1.063l-3.118.39z"/>
        <path d="M377.465 284.496c-.496.248-1.028.035-1.063-.425s.425-1.169.921-1.417l2.728-1.364c.496-.248 1.028-.035 1.063.425.037.481-.425 1.169-.921 1.417l-2.728 1.364z"/>
        <path d="M376.805 286.301c-.531.177-1.028-.106-.992-.567s.602-1.098 1.134-1.276l2.923-.974c.531-.177 1.028.106.992.567-.037.481-.602 1.098-1.134 1.276l-2.923.974z"/>
        <path d="M376.325 287.962c-.531.177-1.028-.106-.992-.567s.602-1.098 1.134-1.276l2.923-.974c.531-.177 1.028.106.992.567-.037.481-.602 1.098-1.134 1.276l-2.923.974z"/>
        <path d="M378.205 278.774c-.496.213-1.028-.035-1.063-.496s.425-1.134.921-1.346l2.728-1.169c.496-.213 1.028.035 1.063.496.037.481-.425 1.134-.921 1.346l-2.728 1.169z"/>
        <path d="M377.93 280.679c-.496.248-1.028.035-1.063-.425s.425-1.169.921-1.417l2.728-1.364c.496-.248 1.028-.035 1.063.425.037.481-.425 1.169-.921 1.417l-2.728 1.364z"/>
        <path d="M377.739 282.59c-.496.213-1.028-.035-1.063-.496s.425-1.134.921-1.346l2.728-1.169c.496-.213 1.028.035 1.063.496.037.481-.425 1.134-.921 1.346l-2.728 1.169z"/>
        <path d="M375.692 290.027c-.531.177-1.028-.106-.992-.567s.602-1.098 1.134-1.276l2.923-.974c.531-.177 1.028.106.992.567-.037.481-.602 1.098-1.134 1.276l-2.923.974z"/>
        <path d="M375.098 291.223c-.531.177-1.028-.106-.992-.567s.602-1.098 1.134-1.276l2.923-.974c.531-.177 1.028.106.992.567-.037.481-.602 1.098-1.134 1.276l-2.923.974z"/>
        <path d="M374.421 293.278c-.531.177-1.028-.106-.992-.567s.602-1.098 1.134-1.276l2.923-.974c.531-.177 1.028.106.992.567-.037.481-.602 1.098-1.134 1.276l-2.923.974z"/>
      </g>
      <g stroke="#000" stroke-width="14.25" fill="#b00">
        <path d="M423.185 337.097c.567-.071.85-.531.567-.921s-1.134-.709-1.701-.638l-3.118.39c-.567.071-.85.531-.567.921.296.407 1.134.709 1.701.638l3.118-.39z"/>
        <path d="M424.576 338.36c.567-.071.85-.531.567-.921s-1.134-.709-1.701-.638l-3.118.39c-.567.071-.85.531-.567.921.296.407 1.134.709 1.701.638l3.118-.39z"/>
        <path d="M426.335 339.915c.567-.071.85-.531.567-.921s-1.134-.709-1.701-.638l-3.118.39c-.567.071-.85.531-.567.921.296.407 1.134.709 1.701.638l3.118-.39z"/>
        <path d="M406.426 320.243c.567.071.957-.283.78-.709s-.921-.921-1.488-.992l-3.118-.39c-.567-.071-.957.283-.78.709.185.444.921.921 1.488.992l3.118.39z"/>
        <path d="M407.376 321.855c.567.035.957-.354.78-.78s-.921-.886-1.488-.921l-3.118-.195c-.567-.035-.957.354-.78.78.185.444.921.886 1.488.921l3.118.195z"/>
        <path d="M408.649 323.501c.567.071.957-.283.78-.709s-.921-.921-1.488-.992l-3.118-.39c-.567-.071-.957.283-.78.709.185.444.921.921 1.488.992l3.118.39z"/>
        <path d="M409.957 324.474c.567 0 .921-.425.709-.85s-.992-.85-1.559-.85h-3.118c-.567 0-.921.425-.709.85.222.444.992.85 1.559.85h3.118z"/>
        <path d="M402.04 314.432c.567.106 1.028-.248.921-.709s-.78-1.028-1.346-1.134l-3.118-.585c-.567-.106-1.028.248-.921.709.111.481.78 1.028 1.346 1.134l3.118.585z"/>
        <path d="M402.803 316.027c.567.106 1.028-.248.921-.709s-.78-1.028-1.346-1.134l-3.118-.585c-.567-.106-1.028.248-.921.709.111.481.78 1.028 1.346 1.134l3.118.585z"/>
        <path d="M403.787 318.006c.567.106 1.028-.248.921-.709s-.78-1.028-1.346-1.134l-3.118-.585c-.567-.106-1.028.248-.921.709.111.481.78 1.028 1.346 1.134l3.118.585z"/>
        <path d="M405.197 319.417c.567.106.992-.248.85-.709s-.85-1.028-1.417-1.134l-3.118-.585c-.567-.106-.992.248-.85.709.148.481.85 1.028 1.417 1.134l3.118.585z"/>
        <path d="M416.91 331.441c.567-.035.886-.461.638-.85s-1.063-.744-1.63-.709l-3.118.195c-.567.035-.886.461-.638.85.259.407 1.063.744 1.63.709l3.118-.195z"/>
        <path d="M418.175 332.793c.567-.035.886-.461.638-.85s-1.063-.744-1.63-.709l-3.118.195c-.567.035-.886.461-.638.85.259.407 1.063.744 1.63.709l3.118-.195z"/>
        <path d="M419.779 334.462c.567-.035.886-.461.638-.85s-1.063-.744-1.63-.709l-3.118.195c-.567.035-.886.461-.638.85.259.407 1.063.744 1.63.709l3.118-.195z"/>
        <path d="M421.425 335.543c.567-.071.85-.531.567-.921s-1.134-.709-1.701-.638l-3.118.39c-.567.071-.85.531-.567.921.296.407 1.134.709 1.701.638l3.118-.39z"/>
        <path d="M411.368 326.05c.567.035.921-.354.709-.78s-.992-.886-1.559-.921l-3.118-.195c-.567-.035-.921.354-.709.78.222.444.992.886 1.559.921l3.118.195z"/>
        <path d="M412.475 327.708c.567 0 .921-.425.709-.85s-.992-.85-1.559-.85h-3.118c-.567 0-.921.425-.709.85.222.444.992.85 1.559.85h3.118z"/>
        <path d="M414.042 328.419c.567-.035.886-.461.638-.85s-1.063-.744-1.63-.709l-3.118.195c-.567.035-.886.461-.638.85.259.407 1.063.744 1.63.709l3.118-.195z"/>
        <path d="M415.306 329.772c.567-.035.886-.461.638-.85s-1.063-.744-1.63-.709l-3.118.195c-.567.035-.886.461-.638.85.259.407 1.063.744 1.63.709l3.118-.195z"/>
        <path d="M393.663 293.82c.531.213 1.063-.035 1.063-.496s-.531-1.134-1.063-1.346l-2.923-1.169c-.531-.213-1.063.035-1.063.496 0 .481.531 1.134 1.063 1.346l2.923 1.169z"/>
        <path d="M394.1 294.778c.531.142 1.028-.177.992-.638s-.602-1.063-1.134-1.205l-2.923-.78c-.531-.142-1.028.177-.992.638.037.481.602 1.063 1.134 1.205l2.923.78z"/>
        <path d="M394.802 296.627c.531.177 1.028-.106.992-.567s-.602-1.098-1.134-1.276l-2.923-.974c-.531-.177-1.028.106-.992.567.037.481.602 1.098 1.134 1.276l2.923.974z"/>
        <path d="M395.339 298.499c.531.142 1.028-.177.992-.638s-.602-1.063-1.134-1.205l-2.923-.78c-.531-.142-1.028.177-.992.638.037.481.602 1.063 1.134 1.205l2.923.78z"/>
        <path d="M392.278 288.141c.531.177 1.063-.106 1.063-.567s-.531-1.098-1.063-1.276l-2.923-.974c-.531-.177-1.063.106-1.063.567 0 .481.531 1.098 1.063 1.276l2.923.974z"/>
        <path d="M392.783 290.029c.531.213 1.063-.035 1.063-.496s-.531-1.134-1.063-1.346l-2.923-1.169c-.531-.213-1.063.035-1.063.496 0 .481.531 1.134 1.063 1.346l2.923 1.169z"/>
        <path d="M393.158 291.932c.531.177 1.063-.106 1.063-.567s-.531-1.098-1.063-1.276l-2.923-.974c-.531-.177-1.063.106-1.063.567 0 .481.531 1.098 1.063 1.276l2.923.974z"/>
        <path d="M398.842 307.196c.567.142 1.028-.177.921-.638s-.78-1.063-1.346-1.205l-3.118-.78c-.567-.142-1.028.177-.921.638.111.481.78 1.063 1.346 1.205l3.118.78z"/>
        <path d="M399.747 309.025c.531.106.957-.248.85-.709s-.744-1.028-1.276-1.134l-2.923-.585c-.531-.106-.957.248-.85.709.111.481.744 1.028 1.276 1.134l2.923.585z"/>
        <path d="M400.431 310.821c.567.142 1.028-.177.921-.638s-.78-1.063-1.346-1.205l-3.118-.78c-.567-.142-1.028.177-.921.638.111.481.78 1.063 1.346 1.205l3.118.78z"/>
        <path d="M401.056 312.453c.567.106 1.028-.248.921-.709s-.78-1.028-1.346-1.134l-3.118-.585c-.567-.106-1.028.248-.921.709.111.481.78 1.028 1.346 1.134l3.118.585z"/>
        <path d="M396.041 300.347c.531.177 1.028-.106.992-.567s-.602-1.098-1.134-1.276l-2.923-.974c-.531-.177-1.028.106-.992.567.037.481.602 1.098 1.134 1.276l2.923.974z"/>
        <path d="M396.572 301.774c.531.106.957-.248.85-.709s-.744-1.028-1.276-1.134l-2.923-.585c-.531-.106-.957.248-.85.709.111.481.744 1.028 1.276 1.134l2.923.585z"/>
        <path d="M397.255 303.57c.567.142 1.028-.177.921-.638s-.78-1.063-1.346-1.205l-3.118-.78c-.567-.142-1.028.177-.921.638.111.481.78 1.063 1.346 1.205l3.118.78z"/>
        <path d="M398.16 305.4c.531.106.957-.248.85-.709s-.744-1.028-1.276-1.134l-2.923-.585c-.531-.106-.957.248-.85.709.111.481.744 1.028 1.276 1.134l2.923.585z"/>
        <path d="M389.753 277.194c.461.283.992.106 1.063-.354s-.319-1.205-.78-1.488l-2.533-1.559c-.461-.283-.992-.106-1.063.354-.074.481.319 1.205.78 1.488l2.533 1.559z"/>
        <path d="M390.298 279.003c.496.213.992-.035.992-.496s-.496-1.134-.992-1.346l-2.728-1.169c-.496-.213-.992.035-.992.496 0 .481.496 1.134.992 1.346l2.728 1.169z"/>
        <path d="M390.638 280.698c.496.213.992-.035.992-.496s-.496-1.134-.992-1.346l-2.728-1.169c-.496-.213-.992.035-.992.496 0 .481.496 1.134.992 1.346l2.728 1.169z"/>
        <path d="M389.508 271.404c.461.248.992.035 1.063-.425s-.319-1.169-.78-1.417l-2.533-1.364c-.461-.248-.992-.035-1.063.425-.074.481.319 1.169.78 1.417l2.533 1.364z"/>
        <path d="M389.606 273.333c.461.283.992.106 1.063-.354s-.319-1.205-.78-1.488l-2.533-1.559c-.461-.283-.992-.106-1.063.354-.074.481.319 1.205.78 1.488l2.533 1.559z"/>
        <path d="M389.655 275.264c.461.248.992.035 1.063-.425s-.319-1.169-.78-1.417l-2.533-1.364c-.461-.248-.992-.035-1.063.425-.074.481.319 1.169.78 1.417l2.533 1.364z"/>
        <path d="M391.096 282.807c.496.213.992-.035.992-.496s-.496-1.134-.992-1.346l-2.728-1.169c-.496-.213-.992.035-.992.496 0 .481.496 1.134.992 1.346l2.728 1.169z"/>
        <path d="M391.376 284.254c.531.177 1.063-.106 1.063-.567s-.531-1.098-1.063-1.276l-2.923-.974c-.531-.177-1.063.106-1.063.567 0 .481.531 1.098 1.063 1.276l2.923.974z"/>
        <path d="M391.879 286.142c.531.213 1.063-.035 1.063-.496s-.531-1.134-1.063-1.346l-2.923-1.169c-.531-.213-1.063.035-1.063.496 0 .481.531 1.134 1.063 1.346l2.923 1.169z"/>
      </g>
      <path d="M344.54-596.29l9.152 22.141s1.455-9.767 8.526-11.534l7.071-1.768s26.864 49.328 32.168 58.167c5.302 8.838-3.536 16.793-1.769 16.793 1.769 0 26.517-11.49 26.517-11.49s-10.606.883-15.026-6.188l-34.819-59.934s6.187-2.652 11.49-5.303c5.304-2.652 10.607 7.955 10.607 7.955l-13.258-26.517s0 8.839-4.42 10.607c-4.419 1.767-7.955 3.535-7.955 3.535s-3.535-6.187-7.955-13.258c-4.419-7.071 4.42-14.142 4.42-14.142l-22.981 11.49s7.955 4.42 10.607 8.839c2.651 4.42 5.303 8.839 5.303 8.839s-3.223 1.768-8.214 3.482c-3.589 1.875-7.696.054-9.464-1.714z" transform="matrix(-.216 .004 .005 .178 452.353 345.599)" stroke="#000" stroke-width="1pt" fill="#fff133"/>
      <g transform="matrix(.13 0 0 .108 351.328 305.238)">
        <path fill="#c0c0c0" d="M324.546-255.369l-50.11 50.11 175.384 175.384 50.11-50.11z"/>
        <ellipse fill="#fff133" transform="matrix(-.707 .707 .707 .707 833.17 -197.75)" cx="354.33" rx="35.433" cy="-1428" ry="35.433" stroke="#000" stroke-width="1pt"/>
        <path d="M-402.046-956.911l37.583 37.583-25.054 25.054-37.584-37.582c-12.528-12.528 12.527-37.583 25.055-25.055z" stroke="#000" stroke-width="1pt" fill="#c0c0c0"/>
        <path d="M-346.606-926.531l-50.11 50.11c-13.798.001-25.351-11.553-25.055-25.055 10.878-25.879 25.027-38.434 50.11-50.11 12.477.729 24.217 10.892 25.055 25.055z" stroke="#000" stroke-width="1pt" fill="#fff133"/>
        <path d="M-351.926-931.851l37.583 37.583-50.11 50.11-37.583-37.583c5.028-20.028 30.083-45.083 50.11-50.11z" stroke="#000" stroke-width="1pt" fill="#c0c0c0"/>
        <path d="M-309.026-888.951l-50.11 50.11c-13.798.001-25.351-11.553-25.055-25.055 10.878-25.879 25.027-38.434 50.11-50.11 12.477.729 24.217 10.892 25.055 25.055z" stroke="#000" stroke-width="1pt" fill="#fff133"/>
        <path d="M-314.356-894.281l342.796 342.804-50.111 50.111-342.795-342.805c5.028-20.028 30.083-45.083 50.11-50.11z" stroke="#000" stroke-width="1pt" fill="#c0c0c0"/>
        <path d="M48.934-530.971l-50.11 50.11c-13.798.001-25.351-11.553-25.055-25.055 10.878-25.879 25.027-38.434 50.11-50.11 12.477.729 24.217 10.892 25.055 25.055z" stroke="#000" stroke-width="1pt" fill="#fff133"/>
        <path d="M48.944-530.976l225.497 225.497-50.11 50.11-225.497-225.497c5.028-20.028 30.083-45.083 50.11-50.11z" stroke="#000" stroke-width="1pt" fill="#c0c0c0"/>
        <path d="M186.744-418.231l-75.166 75.166c-13.798.001-25.351-11.553-25.055-25.055 0 0 0-25.054 25.055-50.109l50.11-25.056c11.639 1.567 21.415 12.528 25.055 25.055z" stroke="#000" stroke-width="1pt" fill="#c0c0c0"/>
        <path d="M186.744-418.231l50.11 75.166-50.11 50.11-75.165-50.111c-2.829-2.442 0-25.054 25.055-50.109s48.981-24.457 50.11-25.056z" stroke="#000" stroke-width="1pt" fill="#c0c0c0"/>
        <path d="M336.61-506.69c0-35.433 0-86.653 17.717-129.98 17.716 43.326 17.716 94.546 17.716 129.98h-35.433z" transform="matrix(-.707 .707 .578 .578 755.37 -275.55)" stroke="#000" stroke-width="1pt" fill="#c0c0c0"/>
        <path d="M318.9-506.69h17.716v-43.326c0-43.327-35.433-64.99-35.433-64.99l17.717 108.32z" transform="matrix(.707 -.707 .578 .578 254.27 225.55)" stroke="#000" stroke-width="1pt" fill="#c0c0c0"/>
        <path d="M318.9-506.69h17.716v-43.326c0-43.327-35.433-64.99-35.433-64.99l17.717 108.32z" transform="matrix(-.707 .707 .578 .578 755.37 -275.55)" stroke="#000" stroke-width="1pt" fill="#c0c0c0"/>
        <path d="M-314.356-894.281l37.583 37.583c25.055 25.055 112.744 137.799 112.744 137.799s117.295 92.25 142.355 117.31l37.583 37.583c-25.055-25.055-179.936-129.835-179.936-129.835s92.242 142.362 129.825 179.945l-37.583-37.583c-25.055-25.055-117.305-142.36-117.3-142.365-.005.005-100.224-75.168-125.277-100.221l-50.111-50.111c25.055 25.055 175.382 125.282 175.382 125.282s-100.219-150.339-125.272-175.392z" stroke="#000" stroke-width="1pt" fill="#fff133"/>
        <path d="M299.493-230.317c50.11 75.164 100.222 125.276 112.744 137.799 23.776 23.82 50.11 25.056 50.11 25.056s0-25.056-25.055-50.111c-12.527-12.527-62.638-62.638-137.799-112.744zm-62.641-112.751c87.696 87.696 187.917 137.807 250.552 200.442 50.11 50.11 15.414 88.464 1.444 100.606-13.971 12.141-51.966 50.282-101.664-.386-62.638-62.638-112.747-162.857-200.442-250.552.001-25.055 25.056-50.11 50.11-50.11z" stroke="#000" stroke-width="1pt" fill="#c0c0c0"/>
        <path transform="matrix(-1.249 -1.421 -1.359 1.317 1166.1 -102.64)" stroke="#000" stroke-width="1pt" fill="#c0c0c0" d="M218.28 257.88h22.934v73.043h-22.934z"/>
        <g stroke="#000" fill="#c0c0c0">
          <path d="M-330.631-843.195l-40.661 39.757 40.661 39.755-20.329 19.88-40.661-39.757-81.319 79.512 40.661 39.757-20.331 19.877-40.658-39.755-40.661 39.755 121.979 119.269 81.319-79.512-40.661-39.757-20.329 19.88-20.329-19.88 81.319-79.512 20.329 19.88-20.329 19.877 40.658 39.755 40.661-39.755-20.329-19.88 20.329-19.877 81.319 79.512-20.329 19.877-20.329-19.877-40.661 39.757 40.658 39.755 20.329-19.877 20.331 19.877-81.319 79.512-20.331-19.877 20.331-19.88-40.661-39.755-81.319 79.512 121.979 119.269 40.661-39.757-40.661-39.755 20.329-19.877 40.661 39.755 81.319-79.512-40.661-39.757 20.331-19.877 40.658 39.757 40.661-39.757-284.626-278.301z"/>
          <path d="M-208.564-406.002v39.752l-101.63 99.381v-79.505l20.326-19.877h40.652l40.652-39.752z"/>
          <path d="M-106.856-504.494l-80.727 78.967-.961 39.483 81.688-79.908v-38.543z"/>
          <path d="M-188.234-386.122l-40.652-39.752v-39.752l40.652 39.752v39.752z"/>
          <path d="M-86.512-485.423l-40.642-39.756v-39.756l40.642 39.756v39.756z"/>
          <path d="M-127.255-565.009v39.752l-20.327-19.877 20.327-19.876z"/>
          <path d="M-228.811-465.564v39.756l-20.321-19.878 20.321-19.877z"/>
          <path d="M-45.474-564.939l-41.047 39.756v39.756l41.047-40.969v-38.543z"/>
          <path d="M-289.774-604.678l-40.642-39.756v-39.756l40.642 39.756v39.756z"/>
          <path d="M-208.47-525.18l-40.642-39.756v-39.756l40.642 39.756v39.756z"/>
          <path d="M-188.146-624.556l-60.963-59.634v-39.756l81.283 79.512-20.32 19.878z"/>
          <path d="M-249.138-723.952v39.756l-20.321-19.878 20.321-19.877z"/>
          <path d="M-289.774-604.678l40.642-39.756v-39.756l-40.642 39.756v39.756z"/>
          <path d="M-391.376-624.556l60.963-59.634v-39.756l-81.283 79.512 20.32 19.878z"/>
          <path d="M-330.441-604.694l-81.283 79.512h-40.642l-20.321 19.877v79.513l142.251-139.543v-39.36z"/>
          <path d="M-249.213-366.242l-121.958-119.258h-40.652l121.958 119.258h40.652z"/>
          <path d="M-310.192-346.373l-121.958-119.258 20.33-19.869 121.958 119.258-20.33 19.869z"/>
          <path d="M-310.07-346.29v79.512l-121.926-119.269v-79.512l121.926 119.269z"/>
          <path d="M-411.714-525.167l-121.926-119.269h-40.642l121.926 119.269h40.642z"/>
          <path d="M-472.677-505.296l-121.926-119.269 20.325-19.871 121.926 119.269-20.325 19.871z"/>
          <path d="M-472.677-505.296v79.512l-121.926-119.269v-79.512l121.926 119.269z"/>
          <path d="M-452.384-644.428l-20.321-19.878v-39.756l40.642 39.756-20.32 19.878z"/>
          <path d="M-350.756-743.806l-20.321-19.878v-39.756l40.642 39.756-20.32 19.878z"/>
          <path d="M-249.136-485.423v-39.756l-20.321 19.877 20.321 19.878z"/>
          <path d="M-208.47-525.18l40.642-39.756-20.321-19.878-20.32 19.878v39.756z"/>
          <path d="M-330.431-684.187l20.32-19.878-20.32-19.877v39.756z"/>
        </g>
        <path transform="matrix(-1.251 -1.419 -1.361 1.315 1166.1 -102.64)" stroke="#000" stroke-width="1pt" fill="#fff133" d="M196.5 254.15h25.197v80.26h-25.197z"/>
        <path d="M336.61 166.54c0 14.669 35.433 35.434 35.433-17.716h-35.433v17.716z" transform="matrix(-1.899 0 0 1.887 1166.1 -102.64)" stroke="#000" stroke-width="1pt" fill="#c0c0c0"/>
        <path d="M242.1 24.803c-147.06 0-113.13 164.24-100.37 124.02 9.359-29.503 35.433-70.866 64.935-80.225 40.225-12.761 26.696 9.359 41.364 9.359 14.67 0 1.14-22.119 41.364-9.359 29.503 9.359 55.577 50.722 64.936 80.225 12.76 40.224 53.149-124.02-112.23-124.02z" transform="matrix(-1.899 0 0 1.887 1166.1 -102.64)" stroke="#000" stroke-width="1pt" fill="#c0c0c0"/>
        <path d="M389.76 166.54c0 78.237-63.496 141.73-141.73 141.73-78.236 0-141.73-63.496-141.73-141.73v-17.716c.001-29.116 35.433 124.02 141.73 124.02s141.73-124.77 141.73-124.02v17.716z" transform="matrix(-1.899 0 0 1.887 1166.1 -102.64)" stroke="#000" stroke-width="1pt" fill="#c0c0c0"/>
        <path d="M336.61 166.54c0 14.669 35.433 35.434 35.433-17.716h-35.433v17.716z" transform="matrix(1.899 0 0 1.887 224 -100.51)" stroke="#000" stroke-width="1pt" fill="#c0c0c0"/>
        <path d="M389.76 148.82c0 78.236-63.496 141.73-141.73 141.73-78.236 0-141.73-63.496-141.73-141.73 0-78.236 63.496-141.73 141.73-141.73 78.237 0 141.73 63.496 141.73 141.73zm-53.15 0c0 14.669 22.812 3.042 9.359 43.04-9.359 27.826-27.075 45.543-56.578 54.902-40.225 12.76-26.694-9.359-41.364-9.359-14.668 0-1.14 22.119-41.364 9.359-29.502-9.359-47.218-27.076-56.577-56.578-12.76-40.224 9.359-26.695 9.359-41.364 0-14.67-22.119-1.139-9.359-41.364 9.359-29.502 27.075-47.219 56.577-56.578 40.225-12.761 26.696 9.359 41.364 9.359 14.67 0 1.14-22.119 41.364-9.359 29.503 9.359 47.219 27.075 56.578 56.578 12.76 40.224-9.359 26.694-9.359 41.364z" transform="matrix(-1.899 0 0 1.887 1166.1 -102.64)" stroke="#000" stroke-width="1pt" fill="#c0c0c0"/>
        <path d="M126.55 157.68c-20.248 0-1.929 67.6-9.104 51.705s-11.144-33.368-11.144-51.705 3.969-35.809 11.144-51.705c7.175-15.894-11.144 51.705 9.104 51.705z" transform="matrix(-1.662 0 0 1.761 1107.2 -99.519)" stroke="#000" stroke-width="1pt" fill="#c0c0c0"/>
        <path d="M372.05 139.96c0 15.892-2.13 31.632-9.751 44.811-7.965 13.775 9.751-44.811-7.965-44.811 17.716 0 1.687-58.587 7.965-44.811 6.279 13.776 9.751 28.919 9.751 44.811z" transform="matrix(-1.899 0 0 2.032 1166.1 -106.24)" stroke="#000" stroke-width="1pt" fill="#c0c0c0"/>
        <path d="M296.29 263.08c-14.836 6.279-31.144 9.751-48.258 9.751s-33.422-3.472-48.257-9.751c-14.835-6.278 48.257 9.751 48.257-7.966 0 17.717 63.093 1.688 48.258 7.966z" transform="matrix(-1.899 0 0 1.887 1166.1 -102.64)" stroke="#000" stroke-width="1pt" fill="#c0c0c0"/>
        <path d="M248.03 42.52c0-17.716-63.092-1.688-48.257-7.966s31.143-9.751 48.257-9.751 33.422 3.472 48.258 9.751c14.835 6.278-48.258-9.751-48.258 7.966z" transform="matrix(-1.899 0 0 1.887 1166.1 -102.64)" stroke="#000" stroke-width="1pt" fill="#c0c0c0"/>
        <ellipse fill="#fff133" transform="matrix(-1.293 -1.382 -1.391 1.284 1257.6 -120.02)" cx="82.112" rx="18.433" cy="160.86" ry="20.109" stroke="#000" stroke-width="1pt"/>
        <path d="M276.58 287.67c-9.223 1.889-18.773 2.881-28.552 2.881s-19.329-.992-28.553-2.881l-1.432 6.965c9.686 1.984 19.715 3.025 29.985 3.025s20.299-1.041 29.985-3.025l-1.433-6.965z" transform="matrix(-1.293 -1.382 1.391 -1.284 808.89 712.05)" stroke="#000" stroke-width="1pt" fill="#fff133"/>
        <path d="M276.58 287.67c-9.223 1.889-18.773 2.881-28.552 2.881s-19.329-.992-28.553-2.881l-1.432 6.965c9.686 1.984 19.715 3.025 29.985 3.025s20.299-1.041 29.985-3.025l-1.433-6.965z" transform="matrix(-1.293 -1.382 -1.391 1.284 1223.2 329.88)" stroke="#000" stroke-width="1pt" fill="#fff133"/>
        <path d="M267.7 308.51c-9.223 1.889-20.189.927-29.969.927-9.778 0-19.285-2.612-28.509-4.501l8.821-10.303c9.686 1.984 19.715 3.025 29.985 3.025s20.299-1.041 29.985-3.025l-10.313 13.877z" transform="matrix(-1.293 -1.382 -1.391 1.284 1223.2 329.88)" stroke="#000" stroke-width="1pt" fill="#fff133"/>
        <path d="M276.58 287.67c-9.223 1.889-18.773 2.881-28.552 2.881s-19.329-.992-28.553-2.881l-1.432 6.965c9.686 1.984 19.715 3.025 29.985 3.025s20.299-1.041 29.985-3.025l-1.433-6.965z" transform="matrix(-1.391 1.284 1.293 1.382 847.44 -345.21)" stroke="#000" stroke-width="1pt" fill="#fff133"/>
        <ellipse fill="#fff133" transform="matrix(-1.293 -1.382 -1.391 1.284 789.14 314.38)" cx="82.112" rx="18.433" cy="160.86" ry="20.109" stroke="#000" stroke-width="1pt"/>
        <path d="M267.59 281.47c-9.223 1.889-17.098 2.943-26.877 2.943s-23.112-.712-32.336-2.601l9.672 12.822c9.686 1.984 19.715 3.025 29.985 3.025s20.299-1.041 29.985-3.025l-10.429-13.164z" transform="matrix(-1.391 1.284 1.293 1.382 850.63 -315.18)" stroke="#000" stroke-width="1pt" fill="#fff133"/>
        <path d="M173.94 271.77l-.838 14.842-3.239 4.493.976-15.087 3.101-4.248z" transform="matrix(-1.899 0 0 1.887 1166.1 -102.64)" stroke="#000" stroke-width="1pt" fill="#fff133"/>
        <path d="M330.54 265.6l3.562 4.189 1.047 13.616-2.933-2.933-1.676-14.872z" transform="matrix(-1.899 0 0 1.887 1166.1 -102.64)" stroke="#000" stroke-width="1pt" fill="#fff133"/>
        <ellipse fill="#fff133" transform="matrix(-1.293 -1.382 -1.391 1.284 1237.6 329.88)" cx="82.112" rx="18.433" cy="160.86" ry="20.109" stroke="#000" stroke-width="1pt"/>
      </g>
      <path d="M513.78-790.16l35.432-17.714 35.433 17.714s-73.366 35.433-73.366 159.45c-.001 88.58 125.26 106.3 125.26 212.6 0 45.649-34.183 88.582-69.616 88.582s-88.583-17.716-141.73-70.866c35.433 17.716 76.082 37.308 106.3 36.058 19.588-.405 55.025-17.716 55.025-53.149 0-70.866-122.77-106.92-122.77-213.22 0-124.02 50.025-159.45 50.026-159.45z" transform="matrix(-.216 0 0 .178 450.664 340.121)" stroke="#000" stroke-width="1pt" fill="#fff"/>
      <path d="M520.25-790.16l46.683-17.717 10 17.717s-70.649 35.433-70.649 159.45c-.001 88.58 125.89 106.3 125.89 212.6 0 45.649-26.714 87.362-65.241 88.582-73.403 2.363-90.458-23.966-141.73-70.866 43.149 32.308 105 46.752 129.02 34.183 29.354-15.364 35.024-36.058 35.024-53.774 0-70.866-120.89-104.42-120.89-210.72 0-124.02 51.9-159.45 51.9-159.45z" transform="matrix(-.216 0 0 .178 450.664 340.121)" stroke="#000" stroke-width="1pt" fill="#fff"/>
      <path d="M513.34-789.69c7.004-2.437 35.875-18.186 71.308 17.247 17.717 17.72 17.716 53.149 17.716 70.866l53.15-53.149s-29.066-86.87-107.62-53.592c-11.127 4.901-28.139 14.538-34.549 18.628z" transform="matrix(-.216 0 0 .178 450.664 340.121)" stroke="#000" stroke-width="1pt" fill="#fff"/>
      <path d="M523.8-795.94c8.839-2.869 36.676-6.325 64.596 18.501 17.717 17.72 18.966 42.933 18.966 60.65l40.65-37.933c3.44-3.21-24.832-81.252-99.241-54.034-4.498 1.807-14.779 6.302-24.971 12.816z" transform="matrix(-.216 0 0 .178 450.664 340.121)" stroke="#000" stroke-width="1pt" fill="#fff"/>
      <path d="M344.54-596.29l9.152 22.141s1.455-9.767 8.526-11.534l7.071-1.768s26.864 49.328 32.168 58.167c5.302 8.838-3.536 16.793-1.769 16.793 1.769 0 26.517-11.49 26.517-11.49s-10.606.883-15.026-6.188l-34.819-59.934s6.187-2.652 11.49-5.303c5.304-2.652 10.607 7.955 10.607 7.955l-13.258-26.517s0 8.839-4.42 10.607c-4.419 1.767-7.955 3.535-7.955 3.535s-3.535-6.187-7.955-13.258c-4.419-7.071 4.42-14.142 4.42-14.142l-22.981 11.49s7.955 4.42 10.607 8.839c2.651 4.42 5.303 8.839 5.303 8.839s-3.223 1.768-8.214 3.482c-3.589 1.875-7.696.054-9.464-1.714z" transform="matrix(-.176 -.018 -.06 .155 365.632 342.589)" stroke="#000" stroke-width="1pt" fill="#fff133"/>
      <path d="M344.54-596.29l9.152 22.141s1.455-9.767 8.526-11.534l7.071-1.768s26.864 49.328 32.168 58.167c5.302 8.838-3.536 16.793-1.769 16.793 1.769 0 26.517-11.49 26.517-11.49s-10.606.883-15.026-6.188l-34.819-59.934s6.187-2.652 11.49-5.303c5.304-2.652 10.607 7.955 10.607 7.955l-13.258-26.517s0 8.839-4.42 10.607c-4.419 1.767-7.955 3.535-7.955 3.535s-3.535-6.187-7.955-13.258c-4.419-7.071 4.42-14.142 4.42-14.142l-22.981 11.49s7.955 4.42 10.607 8.839c2.651 4.42 5.303 8.839 5.303 8.839s-3.223 1.768-8.214 3.482c-3.589 1.875-7.696.054-9.464-1.714z" transform="matrix(.16 .021 .003 -.118 258.658 126.599)" stroke="#000" stroke-width="1pt" fill="#fff133"/>
      <g transform="matrix(.13 0 0 .108 351.328 305.238)">
        <g transform="matrix(.707 .707 -.707 .707 -216.75 -485.87)">
          <ellipse fill="#c0c0c0" transform="translate(124.01 283.46)" cx="354.33" rx="35.433" cy="-1428" ry="35.433" stroke="#000"/>
          <path d="M460.63-1126.77v53.15h35.432l.001-53.15c0-17.717-35.433-17.717-35.433 0z" stroke="#000" fill="#fff133"/>
          <path d="M442.91-1066.09h70.866c9.757-9.756 9.757-26.095 0-35.433-25.991-10.607-44.874-9.48-70.866 0-8.307 9.338-9.422 24.826 0 35.433z" stroke="#000" fill="#c0c0c0"/>
          <path d="M442.91-1073.62v53.15h70.866v-53.15c-17.717-10.607-53.15-10.607-70.866 0z" stroke="#000" fill="#fff133"/>
          <path d="M442.91-1012.94h70.866c9.757-9.756 9.757-26.095 0-35.433-25.991-10.607-44.874-9.48-70.866 0-8.307 9.338-9.422 24.826 0 35.433z" stroke="#000" fill="#c0c0c0"/>
          <path fill="#fff133" d="M442.91-116.93h70.866v248.03h-70.866z"/>
          <path d="M442.91-1020.476l.006 484.79h70.867l-.007-484.79c-17.717-10.607-53.15-10.607-70.866 0z" stroke="#000" fill="#fff133"/>
          <path d="M442.92-506.698h70.866c9.757-9.756 9.757-26.095 0-35.433-25.991-10.607-44.874-9.48-70.866 0-8.307 9.338-9.422 24.826 0 35.433z" stroke="#000" fill="#c0c0c0"/>
          <path d="M442.92-506.7v318.9h70.866v-318.9c-17.717-10.607-53.15-10.607-70.866 0z" stroke="#000" fill="#fff133"/>
          <path d="M425.19-329.53h106.3c9.757-9.756 9.757-26.095 0-35.433 0 0-17.716-17.716-53.149-17.716l-53.15 17.716c-7.122 9.338-6.284 24.001 0 35.433z" stroke="#000" fill="#fff133"/>
          <path d="M425.19-329.53l17.717 88.583h70.866l17.716-88.583c.274-3.727-17.716-17.716-53.149-17.716s-51.928 17.341-53.15 17.716z" stroke="#000" fill="#fff133"/>
          <path d="M336.61-506.69c0-35.433 0-86.653 17.717-129.98 17.716 43.326 17.716 94.546 17.716 129.98h-35.433z" transform="matrix(1 0 0 .818 124.01 173.44)" stroke="#000" fill="#fff133"/>
          <path d="M318.9-506.69h17.716v-43.326c0-43.327-35.433-64.99-35.433-64.99l17.717 108.32z" transform="matrix(-1 0 0 .818 832.67 173.44)" stroke="#000" fill="#fff133"/>
          <path d="M318.9-506.69h17.716v-43.326c0-43.327-35.433-64.99-35.433-64.99l17.717 108.32z" transform="matrix(1 0 0 .818 124.01 173.44)" stroke="#000" fill="#fff133"/>
          <path d="M478.34-116.93c17.716 88.582 17.716 159.45 17.716 177.16.031 33.655-17.716 53.15-17.716 53.15s-17.717-17.717-17.717-53.15c0-17.716 0-88.583 17.717-177.16zm-35.433-124.02c0 124.02-35.433 230.32-35.433 318.9 0 70.866 51.654 73.453 70.118 72.16 18.464-1.294 72.3-1.191 71.614-72.16 0-88.583-35.433-194.88-35.433-318.9-17.717-17.716-53.15-17.716-70.866 0z" stroke="#000" fill="#fff133"/>
          <path d="M442.91-1020.476v53.15c0 35.433 17.716 177.16 17.716 177.16s-17.71 148.17-17.71 183.61v53.15c0-35.433 35.427-219.04 35.427-219.04s35.44 165.89 35.44 219.04v-53.15c0-35.433-17.717-183.61-17.724-183.61.007 0 17.717-124.02 17.717-159.45v-70.867c0 35.433-35.426 212.6-35.426 212.6s-35.44-177.17-35.44-212.6z" stroke="#000" fill="#c0c0c0"/>
        </g>
        <path transform="matrix(1.249 -1.421 1.359 1.317 -662.45 -102.64)" stroke="#000" stroke-width="1pt" fill="#fff133" d="M218.28 257.88h22.934v73.043h-22.934z"/>
        <path d="M336.61 166.54c0 14.669 35.433 35.434 35.433-17.716h-35.433v17.716z" transform="matrix(1.899 0 0 1.887 -662.45 -102.64)" stroke="#000" stroke-width="1pt" fill="#fff133"/>
        <path d="M242.1 24.803c-147.06 0-113.13 164.24-100.37 124.02 9.359-29.503 35.433-70.866 64.935-80.225 40.225-12.761 26.696 9.359 41.364 9.359 14.67 0 1.14-22.119 41.364-9.359 29.503 9.359 55.577 50.722 64.936 80.225 12.76 40.224 53.149-124.02-112.23-124.02z" transform="matrix(1.899 0 0 1.887 -662.45 -102.64)" stroke="#000" stroke-width="1pt" fill="#fff133"/>
        <path d="M389.76 166.54c0 78.237-63.496 141.73-141.73 141.73-78.236 0-141.73-63.496-141.73-141.73v-17.716c.001-29.116 35.433 124.02 141.73 124.02s141.73-124.77 141.73-124.02v17.716z" transform="matrix(1.899 0 0 1.887 -662.45 -102.64)" stroke="#000" stroke-width="1pt" fill="#fff133"/>
        <ellipse fill="#c0c0c0" transform="matrix(1.293 -1.382 1.391 1.284 -753.9 -120.02)" cx="82.112" rx="18.433" cy="160.86" ry="20.109" stroke="#000" stroke-width="1pt"/>
        <path transform="matrix(1.251 -1.419 1.361 1.315 -662.45 -102.64)" stroke="#000" stroke-width="1pt" fill="#c0c0c0" d="M196.5 254.15h25.197v80.26h-25.197z"/>
        <path d="M336.61 166.54c0 14.669 35.433 35.434 35.433-17.716h-35.433v17.716z" transform="matrix(-1.899 0 0 1.887 279.67 -100.51)" stroke="#000" stroke-width="1pt" fill="#fff133"/>
        <path d="M389.76 148.82c0 78.236-63.496 141.73-141.73 141.73-78.236 0-141.73-63.496-141.73-141.73 0-78.236 63.496-141.73 141.73-141.73 78.237 0 141.73 63.496 141.73 141.73zm-53.15 0c0 14.669 22.812 3.042 9.359 43.04-9.359 27.826-27.075 45.543-56.578 54.902-40.225 12.76-26.694-9.359-41.364-9.359-14.668 0-1.14 22.119-41.364 9.359-29.502-9.359-47.218-27.076-56.577-56.578-12.76-40.224 9.359-26.695 9.359-41.364 0-14.67-22.119-1.139-9.359-41.364 9.359-29.502 27.075-47.219 56.577-56.578 40.225-12.761 26.696 9.359 41.364 9.359 14.67 0 1.14-22.119 41.364-9.359 29.503 9.359 47.219 27.075 56.578 56.578 12.76 40.224-9.359 26.694-9.359 41.364z" transform="matrix(1.899 0 0 1.887 -662.45 -102.64)" stroke="#000" stroke-width="1pt" fill="#fff133"/>
        <path d="M126.55 157.68c-20.248 0-1.929 67.6-9.104 51.705s-11.144-33.368-11.144-51.705 3.969-35.809 11.144-51.705c7.175-15.894-11.144 51.705 9.104 51.705z" transform="matrix(1.662 0 0 1.761 -603.57 -99.519)" stroke="#000" stroke-width="1pt" fill="#fff133"/>
        <path d="M372.05 139.96c0 15.892-2.13 31.632-9.751 44.811-7.965 13.775 9.751-44.811-7.965-44.811 17.716 0 1.687-58.587 7.965-44.811 6.279 13.776 9.751 28.919 9.751 44.811z" transform="matrix(1.899 0 0 2.032 -662.45 -106.24)" stroke="#000" stroke-width="1pt" fill="#fff133"/>
        <path d="M296.29 263.08c-14.836 6.279-31.144 9.751-48.258 9.751s-33.422-3.472-48.257-9.751c-14.835-6.278 48.257 9.751 48.257-7.966 0 17.717 63.093 1.688 48.258 7.966z" transform="matrix(1.899 0 0 1.887 -662.45 -102.64)" stroke="#000" stroke-width="1pt" fill="#fff133"/>
        <path d="M248.03 42.52c0-17.716-63.092-1.688-48.257-7.966s31.143-9.751 48.257-9.751 33.422 3.472 48.258 9.751c14.835 6.278-48.258-9.751-48.258 7.966z" transform="matrix(1.899 0 0 1.887 -662.45 -102.64)" stroke="#000" stroke-width="1pt" fill="#fff133"/>
        <path d="M276.58 287.67c-9.223 1.889-18.773 2.881-28.552 2.881s-19.329-.992-28.553-2.881l-1.432 6.965c9.686 1.984 19.715 3.025 29.985 3.025s20.299-1.041 29.985-3.025l-1.433-6.965z" transform="matrix(1.293 -1.382 -1.391 -1.284 -305.22 712.05)" stroke="#000" stroke-width="1pt" fill="#c0c0c0"/>
        <path d="M276.58 287.67c-9.223 1.889-18.773 2.881-28.552 2.881s-19.329-.992-28.553-2.881l-1.432 6.965c9.686 1.984 19.715 3.025 29.985 3.025s20.299-1.041 29.985-3.025l-1.433-6.965z" transform="matrix(1.293 -1.382 1.391 1.284 -719.56 329.88)" stroke="#000" stroke-width="1pt" fill="#c0c0c0"/>
        <path d="M267.7 308.51c-9.223 1.889-20.189.927-29.969.927-9.778 0-19.285-2.612-28.509-4.501l8.821-10.303c9.686 1.984 19.715 3.025 29.985 3.025s20.299-1.041 29.985-3.025l-10.313 13.877z" transform="matrix(1.293 -1.382 1.391 1.284 -719.56 329.88)" stroke="#000" stroke-width="1pt" fill="#c0c0c0"/>
        <path d="M276.58 287.67c-9.223 1.889-18.773 2.881-28.552 2.881s-19.329-.992-28.553-2.881l-1.432 6.965c9.686 1.984 19.715 3.025 29.985 3.025s20.299-1.041 29.985-3.025l-1.433-6.965z" transform="matrix(1.391 1.284 -1.293 1.382 -343.78 -345.21)" stroke="#000" stroke-width="1pt" fill="#c0c0c0"/>
        <ellipse fill="#c0c0c0" transform="matrix(1.293 -1.382 1.391 1.284 -285.47 314.38)" cx="82.112" rx="18.433" cy="160.86" ry="20.109" stroke="#000" stroke-width="1pt"/>
        <path d="M267.59 281.47c-9.223 1.889-17.098 2.943-26.877 2.943s-23.112-.712-32.336-2.601l9.672 12.822c9.686 1.984 19.715 3.025 29.985 3.025s20.299-1.041 29.985-3.025l-10.429-13.164z" transform="matrix(1.391 1.284 -1.293 1.382 -346.96 -315.18)" stroke="#000" stroke-width="1pt" fill="#c0c0c0"/>
        <path d="M173.94 271.77l-.838 14.842-3.239 4.493.976-15.087 3.101-4.248z" transform="matrix(1.899 0 0 1.887 -662.45 -102.64)" stroke="#000" stroke-width="1pt" fill="#c0c0c0"/>
        <path d="M330.54 265.6l3.562 4.189 1.047 13.616-2.933-2.933-1.676-14.872z" transform="matrix(1.899 0 0 1.887 -662.45 -102.64)" stroke="#000" stroke-width="1pt" fill="#c0c0c0"/>
        <ellipse fill="#c0c0c0" transform="matrix(1.293 -1.382 1.391 1.284 -733.89 329.88)" cx="82.112" rx="18.433" cy="160.86" ry="20.109" stroke="#000" stroke-width="1pt"/>
        <g stroke="#000" fill="#fff133">
          <path d="M834.301-843.195l40.661 39.757-40.661 39.755 20.329 19.88 40.661-39.757 81.319 79.512-40.661 39.757 20.331 19.877 40.658-39.755 40.661 39.755-121.979 119.269-81.319-79.512 40.661-39.757 20.329 19.88 20.329-19.88-81.319-79.512-20.329 19.88 20.329 19.877-40.658 39.755-40.661-39.755 20.329-19.88-20.329-19.877-81.319 79.512 20.329 19.877 20.329-19.877 40.661 39.757-40.658 39.755-20.329-19.877-20.331 19.877 81.319 79.512 20.331-19.877-20.331-19.88 40.661-39.755 81.319 79.512-121.979 119.269-40.661-39.757 40.661-39.755-20.329-19.877-40.661 39.755-81.319-79.512 40.661-39.757-20.331-19.877-40.658 39.757-40.661-39.757 284.626-278.301z"/>
          <path d="M712.234-406.002v39.752l101.63 99.381v-79.505l-20.326-19.877h-40.652l-40.652-39.752z"/>
          <path d="M610.526-504.494l80.727 78.967.961 39.483-81.688-79.908v-38.543z"/>
          <path d="M691.904-386.122l40.652-39.752v-39.752l-40.652 39.752v39.752z"/>
          <path d="M590.182-485.423l40.642-39.756v-39.756l-40.642 39.756v39.756z"/>
          <path d="M630.925-565.009v39.752l20.327-19.877-20.327-19.876z"/>
          <path d="M732.481-465.564v39.756l20.321-19.878-20.321-19.877z"/>
          <path d="M549.144-564.939l41.047 39.756v39.756l-41.047-40.969v-38.543z"/>
          <path d="M793.444-604.678l40.642-39.756v-39.756l-40.642 39.756v39.756z"/>
          <path d="M712.14-525.18l40.642-39.756v-39.756l-40.642 39.756v39.756z"/>
          <path d="M691.816-624.556l60.963-59.634v-39.756l-81.283 79.512 20.32 19.878z"/>
          <path d="M752.808-723.952v39.756l20.321-19.878-20.321-19.877z"/>
          <path d="M793.444-604.678l-40.642-39.756v-39.756l40.642 39.756v39.756z"/>
          <path d="M895.046-624.556l-60.963-59.634v-39.756l81.283 79.512-20.32 19.878z"/>
          <path d="M834.111-604.694l81.283 79.512h40.642l20.321 19.877v79.513l-142.251-139.543v-39.36z"/>
          <path d="M752.883-366.242l121.958-119.258h40.652l-121.958 119.258h-40.652z"/>
          <path d="M813.862-346.373l121.958-119.258-20.33-19.869-121.958 119.258 20.33 19.869z"/>
          <path d="M813.74-346.29v79.512l121.926-119.269v-79.512l-121.926 119.269z"/>
          <path d="M915.384-525.167l121.926-119.269h40.642l-121.926 119.269h-40.642z"/>
          <path d="M976.347-505.296l121.926-119.269-20.325-19.871-121.926 119.269 20.325 19.871z"/>
          <path d="M976.347-505.296v79.512l121.926-119.269v-79.512l-121.926 119.269z"/>
          <path d="M956.054-644.428l20.321-19.878v-39.756l-40.642 39.756 20.32 19.878z"/>
          <path d="M854.426-743.806l20.321-19.878v-39.756l-40.642 39.756 20.32 19.878z"/>
          <path d="M752.806-485.423v-39.756l20.321 19.877-20.321 19.878z"/>
          <path d="M712.14-525.18l-40.642-39.756 20.321-19.878 20.32 19.878v39.756z"/>
          <path d="M834.101-684.187l-20.32-19.878 20.32-19.877v39.756z"/>
        </g>
      </g>
      <g stroke="#000" stroke-width="20.006" fill="#b00">
        <path d="M381.055 287.072c-.461-.283-1.028-.106-1.134.354s.248 1.205.709 1.488l2.533 1.559c.461.283 1.028.106 1.134-.354.111-.481-.248-1.205-.709-1.488l-2.533-1.559z"/>
        <path d="M381.087 285.355c-.461-.283-1.028-.106-1.134.354s.248 1.205.709 1.488l2.533 1.559c.461.283 1.028.106 1.134-.354.111-.481-.248-1.205-.709-1.488l-2.533-1.559z"/>
        <path d="M381.091 283.21c-.461-.283-1.028-.106-1.134.354s.248 1.205.709 1.488l2.533 1.559c.461.283 1.028.106 1.134-.354.111-.481-.248-1.205-.709-1.488l-2.533-1.559z"/>
        <path d="M381.122 281.492c-.461-.283-1.028-.106-1.134.354s.248 1.205.709 1.488l2.533 1.559c.461.283 1.028.106 1.134-.354.111-.481-.248-1.205-.709-1.488l-2.533-1.559z"/>
        <path d="M380.985 294.797c-.461-.283-1.028-.106-1.134.354s.248 1.205.709 1.488l2.533 1.559c.461.283 1.028.106 1.134-.354.111-.481-.248-1.205-.709-1.488l-2.533-1.559z"/>
        <path d="M381.016 293.079c-.461-.283-1.028-.106-1.134.354s.248 1.205.709 1.488l2.533 1.559c.461.283 1.028.106 1.134-.354.111-.481-.248-1.205-.709-1.488l-2.533-1.559z"/>
        <path d="M381.02 290.935c-.461-.283-1.028-.106-1.134.354s.248 1.205.709 1.488l2.533 1.559c.461.283 1.028.106 1.134-.354.111-.481-.248-1.205-.709-1.488l-2.533-1.559z"/>
        <path d="M381.052 289.216c-.461-.283-1.028-.106-1.134.354s.248 1.205.709 1.488l2.533 1.559c.461.283 1.028.106 1.134-.354.111-.481-.248-1.205-.709-1.488l-2.533-1.559z"/>
        <path d="M381.197 271.624c-.461-.283-1.028-.106-1.134.354s.248 1.205.709 1.488l2.533 1.559c.461.283 1.028.106 1.134-.354.111-.481-.248-1.205-.709-1.488l-2.533-1.559z"/>
        <path d="M381.229 269.906c-.461-.283-1.028-.106-1.134.354s.248 1.205.709 1.488l2.533 1.559c.461.283 1.028.106 1.134-.354.111-.481-.248-1.205-.709-1.488l-2.533-1.559z"/>
        <path d="M381.233 267.762c-.461-.283-1.028-.106-1.134.354s.248 1.205.709 1.488l2.533 1.559c.461.283 1.028.106 1.134-.354.111-.481-.248-1.205-.709-1.488l-2.533-1.559z"/>
        <path d="M381.264 266.043c-.461-.283-1.028-.106-1.134.354s.248 1.205.709 1.488l2.533 1.559c.461.283 1.028.106 1.134-.354.111-.481-.248-1.205-.709-1.488l-2.533-1.559z"/>
        <path d="M381.126 279.349c-.461-.283-1.028-.106-1.134.354s.248 1.205.709 1.488l2.533 1.559c.461.283 1.028.106 1.134-.354.111-.481-.248-1.205-.709-1.488l-2.533-1.559z"/>
        <path d="M381.158 277.63c-.461-.283-1.028-.106-1.134.354s.248 1.205.709 1.488l2.533 1.559c.461.283 1.028.106 1.134-.354.111-.481-.248-1.205-.709-1.488l-2.533-1.559z"/>
        <path d="M381.162 275.486c-.461-.283-1.028-.106-1.134.354s.248 1.205.709 1.488l2.533 1.559c.461.283 1.028.106 1.134-.354.111-.481-.248-1.205-.709-1.488l-2.533-1.559z"/>
        <path d="M381.193 273.768c-.461-.283-1.028-.106-1.134.354s.248 1.205.709 1.488l2.533 1.559c.461.283 1.028.106 1.134-.354.111-.481-.248-1.205-.709-1.488l-2.533-1.559z"/>
        <path d="M380.772 317.971c-.461-.283-1.028-.106-1.134.354s.248 1.205.709 1.488l2.533 1.559c.461.283 1.028.106 1.134-.354.111-.481-.248-1.205-.709-1.488l-2.533-1.559z"/>
        <path d="M380.804 316.252c-.461-.283-1.028-.106-1.134.354s.248 1.205.709 1.488l2.533 1.559c.461.283 1.028.106 1.134-.354.111-.481-.248-1.205-.709-1.488l-2.533-1.559z"/>
        <path d="M380.807 314.108c-.461-.283-1.028-.106-1.134.354s.248 1.205.709 1.488l2.533 1.559c.461.283 1.028.106 1.134-.354.111-.481-.248-1.205-.709-1.488l-2.533-1.559z"/>
        <path d="M380.839 312.39c-.461-.283-1.028-.106-1.134.354s.248 1.205.709 1.488l2.533 1.559c.461.283 1.028.106 1.134-.354.111-.481-.248-1.205-.709-1.488l-2.533-1.559z"/>
        <path d="M380.701 325.694c-.461-.283-1.028-.106-1.134.354s.248 1.205.709 1.488l2.533 1.559c.461.283 1.028.106 1.134-.354.111-.481-.248-1.205-.709-1.488l-2.533-1.559z"/>
        <path d="M380.733 323.976c-.461-.283-1.028-.106-1.134.354s.248 1.205.709 1.488l2.533 1.559c.461.283 1.028.106 1.134-.354.111-.481-.248-1.205-.709-1.488l-2.533-1.559z"/>
        <path d="M380.737 321.832c-.461-.283-1.028-.106-1.134.354s.248 1.205.709 1.488l2.533 1.559c.461.283 1.028.106 1.134-.354.111-.481-.248-1.205-.709-1.488l-2.533-1.559z"/>
        <path d="M380.768 320.115c-.461-.283-1.028-.106-1.134.354s.248 1.205.709 1.488l2.533 1.559c.461.283 1.028.106 1.134-.354.111-.481-.248-1.205-.709-1.488l-2.533-1.559z"/>
        <path d="M380.914 302.521c-.461-.283-1.028-.106-1.134.354s.248 1.205.709 1.488l2.533 1.559c.461.283 1.028.106 1.134-.354.111-.481-.248-1.205-.709-1.488l-2.533-1.559z"/>
        <path d="M380.945 300.803c-.461-.283-1.028-.106-1.134.354s.248 1.205.709 1.488l2.533 1.559c.461.283 1.028.106 1.134-.354.111-.481-.248-1.205-.709-1.488l-2.533-1.559z"/>
        <path d="M380.949 298.659c-.461-.283-1.028-.106-1.134.354s.248 1.205.709 1.488l2.533 1.559c.461.283 1.028.106 1.134-.354.111-.481-.248-1.205-.709-1.488l-2.533-1.559z"/>
        <path d="M380.981 296.941c-.461-.283-1.028-.106-1.134.354s.248 1.205.709 1.488l2.533 1.559c.461.283 1.028.106 1.134-.354.111-.481-.248-1.205-.709-1.488l-2.533-1.559z"/>
        <path d="M380.843 310.246c-.461-.283-1.028-.106-1.134.354s.248 1.205.709 1.488l2.533 1.559c.461.283 1.028.106 1.134-.354.111-.481-.248-1.205-.709-1.488l-2.533-1.559z"/>
        <path d="M380.874 308.527c-.461-.283-1.028-.106-1.134.354s.248 1.205.709 1.488l2.533 1.559c.461.283 1.028.106 1.134-.354.111-.481-.248-1.205-.709-1.488l-2.533-1.559z"/>
        <path d="M380.878 306.384c-.461-.283-1.028-.106-1.134.354s.248 1.205.709 1.488l2.533 1.559c.461.283 1.028.106 1.134-.354.111-.481-.248-1.205-.709-1.488l-2.533-1.559z"/>
        <path d="M380.91 304.665c-.461-.283-1.028-.106-1.134.354s.248 1.205.709 1.488l2.533 1.559c.461.283 1.028.106 1.134-.354.111-.481-.248-1.205-.709-1.488l-2.533-1.559z"/>
        <path d="M380.488 348.868c-.461-.283-1.028-.106-1.134.354s.248 1.205.709 1.488l2.533 1.559c.461.283 1.028.106 1.134-.354.111-.481-.248-1.205-.709-1.488l-2.533-1.559z"/>
        <path d="M380.52 347.15c-.461-.283-1.028-.106-1.134.354s.248 1.205.709 1.488l2.533 1.559c.461.283 1.028.106 1.134-.354.111-.481-.248-1.205-.709-1.488l-2.533-1.559z"/>
        <path d="M380.524 345.006c-.461-.283-1.028-.106-1.134.354s.248 1.205.709 1.488l2.533 1.559c.461.283 1.028.106 1.134-.354.111-.481-.248-1.205-.709-1.488l-2.533-1.559z"/>
        <path d="M380.556 343.287c-.461-.283-1.028-.106-1.134.354s.248 1.205.709 1.488l2.533 1.559c.461.283 1.028.106 1.134-.354.111-.481-.248-1.205-.709-1.488l-2.533-1.559z"/>
        <path d="M380.449 354.874c-.461-.283-1.028-.106-1.134.354s.248 1.205.709 1.488l2.533 1.559c.461.283 1.028.106 1.134-.354.111-.481-.248-1.205-.709-1.488l-2.533-1.559z"/>
        <path d="M380.453 352.73c-.461-.283-1.028-.106-1.134.354s.248 1.205.709 1.488l2.533 1.559c.461.283 1.028.106 1.134-.354.111-.481-.248-1.205-.709-1.488l-2.533-1.559z"/>
        <path d="M380.485 351.012c-.461-.283-1.028-.106-1.134.354s.248 1.205.709 1.488l2.533 1.559c.461.283 1.028.106 1.134-.354.111-.481-.248-1.205-.709-1.488l-2.533-1.559z"/>
        <path d="M380.63 333.419c-.461-.283-1.028-.106-1.134.354s.248 1.205.709 1.488l2.533 1.559c.461.283 1.028.106 1.134-.354.111-.481-.248-1.205-.709-1.488l-2.533-1.559z"/>
        <path d="M380.662 331.7c-.461-.283-1.028-.106-1.134.354s.248 1.205.709 1.488l2.533 1.559c.461.283 1.028.106 1.134-.354.111-.481-.248-1.205-.709-1.488l-2.533-1.559z"/>
        <path d="M380.666 329.557c-.461-.283-1.028-.106-1.134.354s.248 1.205.709 1.488l2.533 1.559c.461.283 1.028.106 1.134-.354.111-.481-.248-1.205-.709-1.488l-2.533-1.559z"/>
        <path d="M380.697 327.838c-.461-.283-1.028-.106-1.134.354s.248 1.205.709 1.488l2.533 1.559c.461.283 1.028.106 1.134-.354.111-.481-.248-1.205-.709-1.488l-2.533-1.559z"/>
        <path d="M380.559 341.144c-.461-.283-1.028-.106-1.134.354s.248 1.205.709 1.488l2.533 1.559c.461.283 1.028.106 1.134-.354.111-.481-.248-1.205-.709-1.488l-2.533-1.559z"/>
        <path d="M380.591 339.425c-.461-.283-1.028-.106-1.134.354s.248 1.205.709 1.488l2.533 1.559c.461.283 1.028.106 1.134-.354.111-.481-.248-1.205-.709-1.488l-2.533-1.559z"/>
        <path d="M380.595 337.281c-.461-.283-1.028-.106-1.134.354s.248 1.205.709 1.488l2.533 1.559c.461.283 1.028.106 1.134-.354.111-.481-.248-1.205-.709-1.488l-2.533-1.559z"/>
        <path d="M380.626 335.563c-.461-.283-1.028-.106-1.134.354s.248 1.205.709 1.488l2.533 1.559c.461.283 1.028.106 1.134-.354.111-.481-.248-1.205-.709-1.488l-2.533-1.559z"/>
        <path d="M380.31 368.277c-.461-.283-1.028-.106-1.134.354s.248 1.205.709 1.488l2.533 1.559c.461.283 1.028.106 1.134-.354.111-.481-.248-1.205-.709-1.488l-2.533-1.559z"/>
        <path d="M380.342 366.558c-.461-.283-1.028-.106-1.134.354s.248 1.205.709 1.488l2.533 1.559c.461.283 1.028.106 1.134-.354.111-.481-.248-1.205-.709-1.488l-2.533-1.559z"/>
        <path d="M380.346 364.415c-.461-.283-1.028-.106-1.134.354s.248 1.205.709 1.488l2.533 1.559c.461.283 1.028.106 1.134-.354.111-.481-.248-1.205-.709-1.488l-2.533-1.559z"/>
        <path d="M380.377 362.697c-.461-.283-1.028-.106-1.134.354s.248 1.205.709 1.488l2.533 1.559c.461.283 1.028.106 1.134-.354.111-.481-.248-1.205-.709-1.488l-2.533-1.559z"/>
        <path d="M380.271 374.283c-.461-.283-1.028-.106-1.134.354s.248 1.205.709 1.488l2.533 1.559c.461.283 1.028.106 1.134-.354.111-.481-.248-1.205-.709-1.488l-2.533-1.559z"/>
        <path d="M380.275 372.139c-.461-.283-1.028-.106-1.134.354s.248 1.205.709 1.488l2.533 1.559c.461.283 1.028.106 1.134-.354.111-.481-.248-1.205-.709-1.488l-2.533-1.559z"/>
        <path d="M380.307 370.421c-.461-.283-1.028-.106-1.134.354s.248 1.205.709 1.488l2.533 1.559c.461.283 1.028.106 1.134-.354.111-.481-.248-1.205-.709-1.488l-2.533-1.559z"/>
        <path d="M380.381 360.553c-.461-.283-1.028-.106-1.134.354s.248 1.205.709 1.488l2.533 1.559c.461.283 1.028.106 1.134-.354.111-.481-.248-1.205-.709-1.488l-2.533-1.559z"/>
        <path d="M380.413 358.835c-.461-.283-1.028-.106-1.134.354s.248 1.205.709 1.488l2.533 1.559c.461.283 1.028.106 1.134-.354.111-.481-.248-1.205-.709-1.488l-2.533-1.559z"/>
        <path d="M380.417 356.691c-.461-.283-1.028-.106-1.134.354s.248 1.205.709 1.488l2.533 1.559c.461.283 1.028.106 1.134-.354.111-.481-.248-1.205-.709-1.488l-2.533-1.559z"/>
      </g>
      <g stroke="#000" stroke-width="20.006" fill="#b00">
        <path d="M383.767 287.435c-.461-.283-1.028-.106-1.134.354s.248 1.205.709 1.488l2.533 1.559c.461.283 1.028.106 1.134-.354.111-.481-.248-1.205-.709-1.488l-2.533-1.559z"/>
        <path d="M383.783 285.718c-.461-.283-1.028-.106-1.134.354s.248 1.205.709 1.488l2.533 1.559c.461.283 1.028.106 1.134-.354.111-.481-.248-1.205-.709-1.488l-2.533-1.559z"/>
        <path d="M383.767 283.573c-.461-.283-1.028-.106-1.134.354s.248 1.205.709 1.488l2.533 1.559c.461.283 1.028.106 1.134-.354.111-.481-.248-1.205-.709-1.488l-2.533-1.559z"/>
        <path d="M383.783 281.855c-.461-.283-1.028-.106-1.134.354s.248 1.205.709 1.488l2.533 1.559c.461.283 1.028.106 1.134-.354.111-.481-.248-1.205-.709-1.488l-2.533-1.559z"/>
        <path d="M383.767 295.16c-.461-.283-1.028-.106-1.134.354s.248 1.205.709 1.488l2.533 1.559c.461.283 1.028.106 1.134-.354.111-.481-.248-1.205-.709-1.488l-2.533-1.559z"/>
        <path d="M383.783 293.442c-.461-.283-1.028-.106-1.134.354s.248 1.205.709 1.488l2.533 1.559c.461.283 1.028.106 1.134-.354.111-.481-.248-1.205-.709-1.488l-2.533-1.559z"/>
        <path d="M383.767 291.298c-.461-.283-1.028-.106-1.134.354s.248 1.205.709 1.488l2.533 1.559c.461.283 1.028.106 1.134-.354.111-.481-.248-1.205-.709-1.488l-2.533-1.559z"/>
        <path d="M383.783 289.579c-.461-.283-1.028-.106-1.134.354s.248 1.205.709 1.488l2.533 1.559c.461.283 1.028.106 1.134-.354.111-.481-.248-1.205-.709-1.488l-2.533-1.559z"/>
        <path d="M383.767 271.987c-.461-.283-1.028-.106-1.134.354s.248 1.205.709 1.488l2.533 1.559c.461.283 1.028.106 1.134-.354.111-.481-.248-1.205-.709-1.488l-2.533-1.559z"/>
        <path d="M383.783 270.269c-.461-.283-1.028-.106-1.134.354s.248 1.205.709 1.488l2.533 1.559c.461.283 1.028.106 1.134-.354.111-.481-.248-1.205-.709-1.488l-2.533-1.559z"/>
        <path d="M383.767 268.125c-.461-.283-1.028-.106-1.134.354s.248 1.205.709 1.488l2.533 1.559c.461.283 1.028.106 1.134-.354.111-.481-.248-1.205-.709-1.488l-2.533-1.559z"/>
        <path d="M383.783 266.406c-.461-.283-1.028-.106-1.134.354s.248 1.205.709 1.488l2.533 1.559c.461.283 1.028.106 1.134-.354.111-.481-.248-1.205-.709-1.488l-2.533-1.559z"/>
        <path d="M383.767 279.712c-.461-.283-1.028-.106-1.134.354s.248 1.205.709 1.488l2.533 1.559c.461.283 1.028.106 1.134-.354.111-.481-.248-1.205-.709-1.488l-2.533-1.559z"/>
        <path d="M383.783 277.993c-.461-.283-1.028-.106-1.134.354s.248 1.205.709 1.488l2.533 1.559c.461.283 1.028.106 1.134-.354.111-.481-.248-1.205-.709-1.488l-2.533-1.559z"/>
        <path d="M383.767 275.849c-.461-.283-1.028-.106-1.134.354s.248 1.205.709 1.488l2.533 1.559c.461.283 1.028.106 1.134-.354.111-.481-.248-1.205-.709-1.488l-2.533-1.559z"/>
        <path d="M383.783 274.131c-.461-.283-1.028-.106-1.134.354s.248 1.205.709 1.488l2.533 1.559c.461.283 1.028.106 1.134-.354.111-.481-.248-1.205-.709-1.488l-2.533-1.559z"/>
        <path d="M383.767 318.334c-.461-.283-1.028-.106-1.134.354s.248 1.205.709 1.488l2.533 1.559c.461.283 1.028.106 1.134-.354.111-.481-.248-1.205-.709-1.488l-2.533-1.559z"/>
        <path d="M383.783 316.615c-.461-.283-1.028-.106-1.134.354s.248 1.205.709 1.488l2.533 1.559c.461.283 1.028.106 1.134-.354.111-.481-.248-1.205-.709-1.488l-2.533-1.559z"/>
        <path d="M383.767 314.471c-.461-.283-1.028-.106-1.134.354s.248 1.205.709 1.488l2.533 1.559c.461.283 1.028.106 1.134-.354.111-.481-.248-1.205-.709-1.488l-2.533-1.559z"/>
        <path d="M383.783 312.753c-.461-.283-1.028-.106-1.134.354s.248 1.205.709 1.488l2.533 1.559c.461.283 1.028.106 1.134-.354.111-.481-.248-1.205-.709-1.488l-2.533-1.559z"/>
        <path d="M383.767 326.057c-.461-.283-1.028-.106-1.134.354s.248 1.205.709 1.488l2.533 1.559c.461.283 1.028.106 1.134-.354.111-.481-.248-1.205-.709-1.488l-2.533-1.559z"/>
        <path d="M383.783 324.339c-.461-.283-1.028-.106-1.134.354s.248 1.205.709 1.488l2.533 1.559c.461.283 1.028.106 1.134-.354.111-.481-.248-1.205-.709-1.488l-2.533-1.559z"/>
        <path d="M383.767 322.195c-.461-.283-1.028-.106-1.134.354s.248 1.205.709 1.488l2.533 1.559c.461.283 1.028.106 1.134-.354.111-.481-.248-1.205-.709-1.488l-2.533-1.559z"/>
        <path d="M383.783 320.478c-.461-.283-1.028-.106-1.134.354s.248 1.205.709 1.488l2.533 1.559c.461.283 1.028.106 1.134-.354.111-.481-.248-1.205-.709-1.488l-2.533-1.559z"/>
        <path d="M383.767 302.884c-.461-.283-1.028-.106-1.134.354s.248 1.205.709 1.488l2.533 1.559c.461.283 1.028.106 1.134-.354.111-.481-.248-1.205-.709-1.488l-2.533-1.559z"/>
        <path d="M383.783 301.166c-.461-.283-1.028-.106-1.134.354s.248 1.205.709 1.488l2.533 1.559c.461.283 1.028.106 1.134-.354.111-.481-.248-1.205-.709-1.488l-2.533-1.559z"/>
        <path d="M383.767 299.022c-.461-.283-1.028-.106-1.134.354s.248 1.205.709 1.488l2.533 1.559c.461.283 1.028.106 1.134-.354.111-.481-.248-1.205-.709-1.488l-2.533-1.559z"/>
        <path d="M383.783 297.304c-.461-.283-1.028-.106-1.134.354s.248 1.205.709 1.488l2.533 1.559c.461.283 1.028.106 1.134-.354.111-.481-.248-1.205-.709-1.488l-2.533-1.559z"/>
        <path d="M383.767 310.609c-.461-.283-1.028-.106-1.134.354s.248 1.205.709 1.488l2.533 1.559c.461.283 1.028.106 1.134-.354.111-.481-.248-1.205-.709-1.488l-2.533-1.559z"/>
        <path d="M383.783 308.89c-.461-.283-1.028-.106-1.134.354s.248 1.205.709 1.488l2.533 1.559c.461.283 1.028.106 1.134-.354.111-.481-.248-1.205-.709-1.488l-2.533-1.559z"/>
        <path d="M383.767 306.747c-.461-.283-1.028-.106-1.134.354s.248 1.205.709 1.488l2.533 1.559c.461.283 1.028.106 1.134-.354.111-.481-.248-1.205-.709-1.488l-2.533-1.559z"/>
        <path d="M383.783 305.028c-.461-.283-1.028-.106-1.134.354s.248 1.205.709 1.488l2.533 1.559c.461.283 1.028.106 1.134-.354.111-.481-.248-1.205-.709-1.488l-2.533-1.559z"/>
        <path d="M383.767 349.231c-.461-.283-1.028-.106-1.134.354s.248 1.205.709 1.488l2.533 1.559c.461.283 1.028.106 1.134-.354.111-.481-.248-1.205-.709-1.488l-2.533-1.559z"/>
        <path d="M383.783 347.513c-.461-.283-1.028-.106-1.134.354s.248 1.205.709 1.488l2.533 1.559c.461.283 1.028.106 1.134-.354.111-.481-.248-1.205-.709-1.488l-2.533-1.559z"/>
        <path d="M383.767 345.369c-.461-.283-1.028-.106-1.134.354s.248 1.205.709 1.488l2.533 1.559c.461.283 1.028.106 1.134-.354.111-.481-.248-1.205-.709-1.488l-2.533-1.559z"/>
        <path d="M383.783 343.65c-.461-.283-1.028-.106-1.134.354s.248 1.205.709 1.488l2.533 1.559c.461.283 1.028.106 1.134-.354.111-.481-.248-1.205-.709-1.488l-2.533-1.559z"/>
        <path d="M383.783 355.237c-.461-.283-1.028-.106-1.134.354s.248 1.205.709 1.488l2.533 1.559c.461.283 1.028.106 1.134-.354.111-.481-.248-1.205-.709-1.488l-2.533-1.559z"/>
        <path d="M383.767 353.093c-.461-.283-1.028-.106-1.134.354s.248 1.205.709 1.488l2.533 1.559c.461.283 1.028.106 1.134-.354.111-.481-.248-1.205-.709-1.488l-2.533-1.559z"/>
        <path d="M383.783 351.375c-.461-.283-1.028-.106-1.134.354s.248 1.205.709 1.488l2.533 1.559c.461.283 1.028.106 1.134-.354.111-.481-.248-1.205-.709-1.488l-2.533-1.559z"/>
        <path d="M383.767 333.782c-.461-.283-1.028-.106-1.134.354s.248 1.205.709 1.488l2.533 1.559c.461.283 1.028.106 1.134-.354.111-.481-.248-1.205-.709-1.488l-2.533-1.559z"/>
        <path d="M383.783 332.063c-.461-.283-1.028-.106-1.134.354s.248 1.205.709 1.488l2.533 1.559c.461.283 1.028.106 1.134-.354.111-.481-.248-1.205-.709-1.488l-2.533-1.559z"/>
        <path d="M383.767 329.92c-.461-.283-1.028-.106-1.134.354s.248 1.205.709 1.488l2.533 1.559c.461.283 1.028.106 1.134-.354.111-.481-.248-1.205-.709-1.488l-2.533-1.559z"/>
        <path d="M383.783 328.201c-.461-.283-1.028-.106-1.134.354s.248 1.205.709 1.488l2.533 1.559c.461.283 1.028.106 1.134-.354.111-.481-.248-1.205-.709-1.488l-2.533-1.559z"/>
        <path d="M383.767 341.507c-.461-.283-1.028-.106-1.134.354s.248 1.205.709 1.488l2.533 1.559c.461.283 1.028.106 1.134-.354.111-.481-.248-1.205-.709-1.488l-2.533-1.559z"/>
        <path d="M383.783 339.788c-.461-.283-1.028-.106-1.134.354s.248 1.205.709 1.488l2.533 1.559c.461.283 1.028.106 1.134-.354.111-.481-.248-1.205-.709-1.488l-2.533-1.559z"/>
        <path d="M383.767 337.644c-.461-.283-1.028-.106-1.134.354s.248 1.205.709 1.488l2.533 1.559c.461.283 1.028.106 1.134-.354.111-.481-.248-1.205-.709-1.488l-2.533-1.559z"/>
        <path d="M383.783 335.926c-.461-.283-1.028-.106-1.134.354s.248 1.205.709 1.488l2.533 1.559c.461.283 1.028.106 1.134-.354.111-.481-.248-1.205-.709-1.488l-2.533-1.559z"/>
        <path d="M383.767 368.64c-.461-.283-1.028-.106-1.134.354s.248 1.205.709 1.488l2.533 1.559c.461.283 1.028.106 1.134-.354.111-.481-.248-1.205-.709-1.488l-2.533-1.559z"/>
        <path d="M383.783 366.921c-.461-.283-1.028-.106-1.134.354s.248 1.205.709 1.488l2.533 1.559c.461.283 1.028.106 1.134-.354.111-.481-.248-1.205-.709-1.488l-2.533-1.559z"/>
        <path d="M383.767 364.778c-.461-.283-1.028-.106-1.134.354s.248 1.205.709 1.488l2.533 1.559c.461.283 1.028.106 1.134-.354.111-.481-.248-1.205-.709-1.488l-2.533-1.559z"/>
        <path d="M383.783 363.06c-.461-.283-1.028-.106-1.134.354s.248 1.205.709 1.488l2.533 1.559c.461.283 1.028.106 1.134-.354.111-.481-.248-1.205-.709-1.488l-2.533-1.559z"/>
        <path d="M383.783 374.646c-.461-.283-1.028-.106-1.134.354s.248 1.205.709 1.488l2.533 1.559c.461.283 1.028.106 1.134-.354.111-.481-.248-1.205-.709-1.488l-2.533-1.559z"/>
        <path d="M383.767 372.502c-.461-.283-1.028-.106-1.134.354s.248 1.205.709 1.488l2.533 1.559c.461.283 1.028.106 1.134-.354.111-.481-.248-1.205-.709-1.488l-2.533-1.559z"/>
        <path d="M383.783 370.784c-.461-.283-1.028-.106-1.134.354s.248 1.205.709 1.488l2.533 1.559c.461.283 1.028.106 1.134-.354.111-.481-.248-1.205-.709-1.488l-2.533-1.559z"/>
        <path d="M383.767 360.916c-.461-.283-1.028-.106-1.134.354s.248 1.205.709 1.488l2.533 1.559c.461.283 1.028.106 1.134-.354.111-.481-.248-1.205-.709-1.488l-2.533-1.559z"/>
        <path d="M383.783 359.198c-.461-.283-1.028-.106-1.134.354s.248 1.205.709 1.488l2.533 1.559c.461.283 1.028.106 1.134-.354.111-.481-.248-1.205-.709-1.488l-2.533-1.559z"/>
        <path d="M383.767 357.054c-.461-.283-1.028-.106-1.134.354s.248 1.205.709 1.488l2.533 1.559c.461.283 1.028.106 1.134-.354.111-.481-.248-1.205-.709-1.488l-2.533-1.559z"/>
      </g>
      <g stroke="#000" stroke-width="14.25" fill="#b00">
        <path d="M392.588 274.734c-.567-.142-1.063.177-.992.638s.709 1.063 1.276 1.205l3.118.78c.567.142 1.063-.177.992-.638-.074-.481-.709-1.063-1.276-1.205l-3.118-.78z"/>
        <path d="M393.344 275.084c-.177-.461-.78-.602-1.205-.283s-.673 1.098-.496 1.559l.974 2.533c.177.461.78.602 1.205.283.444-.333.673-1.098.496-1.559l-.974-2.533z"/>
        <path d="M393.333 275.14c-.425-.354-1.063-.283-1.276.142s0 1.205.425 1.559l2.339 1.949c.425.354 1.063.283 1.276-.142.222-.444 0-1.205-.425-1.559l-2.339-1.949z"/>
        <path d="M391.649 276.44c.354-.39.142-.85-.425-.921s-1.488.248-1.843.638l-1.949 2.144c-.354.39-.142.85.425.921.592.074 1.488-.248 1.843-.638l1.949-2.144z"/>
        <path d="M394.022 276.428c.319-.39.071-.85-.496-.921s-1.453.248-1.772.638l-1.754 2.144c-.319.39-.071.85.496.921.592.074 1.453-.248 1.772-.638l1.754-2.144z"/>
        <path d="M382.199 276.818c.354-.39.142-.886-.425-.992s-1.488.177-1.843.567l-1.949 2.144c-.354.39-.142.886.425.992.592.111 1.488-.177 1.843-.567l1.949-2.144z"/>
        <path d="M384.358 276.87c.354-.39.142-.886-.425-.992s-1.488.177-1.843.567l-1.949 2.144c-.354.39-.142.886.425.992.592.111 1.488-.177 1.843-.567l1.949-2.144z"/>
        <path d="M387.053 276.905c.354-.39.142-.886-.425-.992s-1.488.177-1.843.567l-1.949 2.144c-.354.39-.142.886.425.992.592.111 1.488-.177 1.843-.567l1.949-2.144z"/>
        <path d="M389.168 276.483c.319-.39.071-.85-.496-.921s-1.453.248-1.772.638l-1.754 2.144c-.319.39-.071.85.496.921.592.074 1.453-.248 1.772-.638l1.754-2.144z"/>
        <path d="M379.081 275.999c.354-.39.142-.886-.425-.992s-1.488.177-1.843.567l-1.949 2.144c-.354.39-.142.886.425.992.592.111 1.488-.177 1.843-.567l1.949-2.144z"/>
        <path d="M380.372 276.566c.39-.354.213-.85-.354-.992s-1.524.071-1.913.425l-2.144 1.949c-.39.354-.213.85.354.992.592.148 1.524-.071 1.913-.425l2.144-1.949z"/>
        <path d="M377.3 276.137c.531-.213.602-.709.142-.992s-1.453-.354-1.984-.142l-2.923 1.169c-.531.213-.602.709-.142.992.481.296 1.453.354 1.984.142l2.923-1.169z"/>
      </g>
      <g stroke="#000" stroke-width="14.25" fill="#b00">
        <path d="M424.509 356.353c.461.283.425.78-.071.992s-1.453.142-1.913-.142l-2.533-1.559c-.461-.283-.425-.78.071-.992.518-.222 1.453-.142 1.913.142l2.533 1.559z"/>
        <path d="M426.454 355.812c.461.283.425.78-.071.992s-1.453.142-1.913-.142l-2.533-1.559c-.461-.283-.425-.78.071-.992.518-.222 1.453-.142 1.913.142l2.533 1.559z"/>
        <path d="M428.891 355.164c.461.283.425.78-.071.992s-1.453.142-1.913-.142l-2.533-1.559c-.461-.283-.425-.78.071-.992.518-.222 1.453-.142 1.913.142l2.533 1.559z"/>
        <path d="M430.836 354.621c.461.283.425.78-.071.992s-1.453.142-1.913-.142l-2.533-1.559c-.461-.283-.425-.78.071-.992.518-.222 1.453-.142 1.913.142l2.533 1.559z"/>
        <path d="M440.103 347.493c.567-.106.992.248.85.709s-.85 1.028-1.417 1.134l-3.118.585c-.567.106-.992-.248-.85-.709.148-.481.85-1.028 1.417-1.134l3.118-.585z"/>
        <path d="M438.722 344.012c.354-.354.921-.283 1.134.142s.071 1.205-.283 1.559l-1.949 1.949c-.354.354-.921.283-1.134-.142-.222-.444-.071-1.205.283-1.559l1.949-1.949z"/>
        <path d="M440.689 345.534c.567-.106 1.028.248.921.709s-.78 1.028-1.346 1.134l-3.118.585c-.567.106-1.028-.248-.921-.709.111-.481.78-1.028 1.346-1.134l3.118-.585z"/>
        <path d="M415.604 358.41c.425.319.354.815-.142.992s-1.417.035-1.843-.283l-2.339-1.754c-.425-.319-.354-.815.142-.992.518-.185 1.417-.035 1.843.283l2.339 1.754z"/>
        <path d="M417.597 358.011c.425.319.354.815-.142.992s-1.417.035-1.843-.283l-2.339-1.754c-.425-.319-.354-.815.142-.992.518-.185 1.417-.035 1.843.283l2.339 1.754z"/>
        <path d="M420.055 356.781c.461.283.461.815 0 1.063s-1.382.213-1.843-.071l-2.533-1.559c-.461-.283-.461-.815 0-1.063.481-.259 1.382-.213 1.843.071l2.533 1.559z"/>
        <path d="M422.166 356.867c.39.319.248.815-.283.992s-1.453.035-1.843-.283l-2.144-1.754c-.39-.319-.248-.815.283-.992.555-.185 1.453-.035 1.843.283l2.144 1.754z"/>
        <path d="M433.273 353.974c.461.283.425.78-.071.992s-1.453.142-1.913-.142l-2.533-1.559c-.461-.283-.425-.78.071-.992.518-.222 1.453-.142 1.913.142l2.533 1.559z"/>
        <path d="M435.218 353.432c.461.283.425.78-.071.992s-1.453.142-1.913-.142l-2.533-1.559c-.461-.283-.425-.78.071-.992.518-.222 1.453-.142 1.913.142l2.533 1.559z"/>
        <path d="M387.629 360.525c.354.39.177.886-.354.992s-1.417-.177-1.772-.567l-1.949-2.144c-.354-.39-.177-.886.354-.992.555-.111 1.417.177 1.772.567l1.949 2.144z"/>
        <path d="M389.89 360.472c.319.39.106.886-.425.992s-1.382-.177-1.701-.567l-1.754-2.144c-.319-.39-.106-.886.425-.992.555-.111 1.382.177 1.701.567l1.754 2.144z"/>
        <path d="M392.234 360.436c.354.39.177.886-.354.992s-1.417-.177-1.772-.567l-1.949-2.144c-.354-.39-.177-.886.354-.992.555-.111 1.417.177 1.772.567l1.949 2.144z"/>
        <path d="M394.496 360.383c.319.39.106.886-.425.992s-1.382-.177-1.701-.567l-1.754-2.144c-.319-.39-.106-.886.425-.992.555-.111 1.382.177 1.701.567l1.754 2.144z"/>
        <path d="M378.419 360.703c.354.39.177.886-.354.992s-1.417-.177-1.772-.567l-1.949-2.144c-.354-.39-.177-.886.354-.992.555-.111 1.417.177 1.772.567l1.949 2.144z"/>
        <path d="M380.681 360.649c.319.39.106.886-.425.992s-1.382-.177-1.701-.567l-1.754-2.144c-.319-.39-.106-.886.425-.992.555-.111 1.382.177 1.701.567l1.754 2.144z"/>
        <path d="M383.023 360.613c.354.39.177.886-.354.992s-1.417-.177-1.772-.567l-1.949-2.144c-.354-.39-.177-.886.354-.992.555-.111 1.417.177 1.772.567l1.949 2.144z"/>
        <path d="M385.285 360.561c.319.39.106.886-.425.992s-1.382-.177-1.701-.567l-1.754-2.144c-.319-.39-.106-.886.425-.992.555-.111 1.382.177 1.701.567l1.754 2.144z"/>
        <path d="M406.505 359.861c.39.354.248.85-.283.992s-1.453-.071-1.843-.425l-2.144-1.949c-.39-.354-.248-.85.283-.992.555-.148 1.453.071 1.843.425l2.144 1.949z"/>
        <path d="M408.788 359.629c.39.354.248.85-.283.992s-1.453-.071-1.843-.425l-2.144-1.949c-.39-.354-.248-.85.283-.992.555-.148 1.453.071 1.843.425l2.144 1.949z"/>
        <path d="M411.101 359.504c.425.319.319.78-.213.921s-1.488-.035-1.913-.354l-2.339-1.754c-.425-.319-.319-.78.213-.921.555-.148 1.488.035 1.913.354l2.339 1.754z"/>
        <path d="M413.109 358.88c.425.319.354.815-.142.992s-1.417.035-1.843-.283l-2.339-1.754c-.425-.319-.354-.815.142-.992.518-.185 1.417-.035 1.843.283l2.339 1.754z"/>
        <path d="M396.838 360.347c.354.39.177.886-.354.992s-1.417-.177-1.772-.567l-1.949-2.144c-.354-.39-.177-.886.354-.992.555-.111 1.417.177 1.772.567l1.949 2.144z"/>
        <path d="M399.23 360.546c.354.354.177.815-.354.921s-1.417-.142-1.772-.496l-1.949-1.949c-.354-.354-.177-.815.354-.921.555-.111 1.417.142 1.772.496l1.949 1.949z"/>
        <path d="M401.876 360.023c.39.354.248.85-.283.992s-1.453-.071-1.843-.425l-2.144-1.949c-.39-.354-.248-.85.283-.992.555-.148 1.453.071 1.843.425l2.144 1.949z"/>
        <path d="M403.721 360.147c.354.354.177.815-.354.921s-1.417-.142-1.772-.496l-1.949-1.949c-.354-.354-.177-.815.354-.921.555-.111 1.417.142 1.772.496l1.949 1.949z"/>
        <path d="M350.42 359.961c.248.425-.035.85-.567.85s-1.311-.425-1.559-.85l-1.364-2.339c-.248-.425.035-.85.567-.85.555 0 1.311.425 1.559.85l1.364 2.339z"/>
        <path d="M352.899 360.217c.248.425-.071.85-.638.85s-1.382-.425-1.63-.85l-1.364-2.339c-.248-.425.071-.85.638-.85.592 0 1.382.425 1.63.85l1.364 2.339z"/>
        <path d="M355.104 360.192c.319.39.106.85-.425.921s-1.382-.248-1.701-.638l-1.754-2.144c-.319-.39-.106-.85.425-.921.555-.074 1.382.248 1.701.638l1.754 2.144z"/>
        <path d="M357.363 360.273c.283.39.035.85-.496.921s-1.346-.248-1.63-.638l-1.559-2.144c-.283-.39-.035-.85.496-.921.555-.074 1.346.248 1.63.638l1.559 2.144z"/>
        <path d="M343.8 359.007c.248.425-.071.85-.638.85s-1.382-.425-1.63-.85l-1.364-2.339c-.248-.425.071-.85.638-.85.592 0 1.382.425 1.63.85l1.364 2.339z"/>
        <path d="M345.87 359.356c.248.425-.035.85-.567.85s-1.311-.425-1.559-.85l-1.364-2.339c-.248-.425.035-.85.567-.85.555 0 1.311.425 1.559.85l1.364 2.339z"/>
        <path d="M348.35 359.612c.248.425-.071.85-.638.85s-1.382-.425-1.63-.85l-1.364-2.339c-.248-.425.071-.85.638-.85.592 0 1.382.425 1.63.85l1.364 2.339z"/>
        <path d="M368.902 360.824c.319.39.106.85-.425.921s-1.382-.248-1.701-.638l-1.754-2.144c-.319-.39-.106-.85.425-.921.555-.074 1.382.248 1.701.638l1.754 2.144z"/>
        <path d="M371.161 360.905c.283.39.035.85-.496.921s-1.346-.248-1.63-.638l-1.559-2.144c-.283-.39-.035-.85.496-.921.555-.074 1.346.248 1.63.638l1.559 2.144z"/>
        <path d="M373.814 360.791c.354.39.177.886-.354.992s-1.417-.177-1.772-.567l-1.949-2.144c-.354-.39-.177-.886.354-.992.555-.111 1.417.177 1.772.567l1.949 2.144z"/>
        <path d="M376.075 360.739c.319.39.106.886-.425.992s-1.382-.177-1.701-.567l-1.754-2.144c-.319-.39-.106-.886.425-.992.555-.111 1.382.177 1.701.567l1.754 2.144z"/>
        <path d="M359.703 360.402c.319.39.106.85-.425.921s-1.382-.248-1.701-.638l-1.754-2.144c-.319-.39-.106-.85.425-.921.555-.074 1.382.248 1.701.638l1.754 2.144z"/>
        <path d="M361.963 360.483c.283.39.035.85-.496.921s-1.346-.248-1.63-.638l-1.559-2.144c-.283-.39-.035-.85.496-.921.555-.074 1.346.248 1.63.638l1.559 2.144z"/>
        <path d="M364.303 360.613c.319.39.106.85-.425.921s-1.382-.248-1.701-.638l-1.754-2.144c-.319-.39-.106-.85.425-.921.555-.074 1.382.248 1.701.638l1.754 2.144z"/>
        <path d="M366.562 360.694c.283.39.035.85-.496.921s-1.346-.248-1.63-.638l-1.559-2.144c-.283-.39-.035-.85.496-.921.555-.074 1.346.248 1.63.638l1.559 2.144z"/>
        <path d="M331.087 349.872c-.567.071-.957-.283-.78-.709s.921-.921 1.488-.992l3.118-.39c.567-.071.957.283.78.709-.185.444-.921.921-1.488.992l-3.118.39z"/>
        <path d="M331.6 352.698c-.461.283-1.028.106-1.134-.354s.248-1.205.709-1.488l2.533-1.559c.461-.283 1.028-.106 1.134.354.111.481-.248 1.205-.709 1.488l-2.533 1.559z"/>
        <path d="M332.878 354.859c-.319.39-.921.39-1.205 0s-.248-1.169.071-1.559l1.754-2.144c.319-.39.921-.39 1.205 0 .296.407.248 1.169-.071 1.559l-1.754 2.144z"/>
        <path d="M334.064 356.202c-.106.461-.638.638-1.063.354s-.744-1.028-.638-1.488l.585-2.533c.106-.461.638-.638 1.063-.354.444.296.744 1.028.638 1.488l-.585 2.533z"/>
        <path d="M335.191 345.386c-.567-.035-.886-.496-.638-.921s1.063-.815 1.63-.78l3.118.195c.567.035.886.496.638.921-.259.444-1.063.815-1.63.78l-3.118-.195z"/>
        <path d="M333.591 346.846c-.567 0-.886-.425-.638-.85s1.063-.85 1.63-.85h3.118c.567 0 .886.425.638.85-.259.444-1.063.85-1.63.85h-3.118z"/>
        <path d="M332.289 347.981c-.567.071-.957-.283-.78-.709s.921-.921 1.488-.992l3.118-.39c.567-.071.957.283.78.709-.185.444-.921.921-1.488.992l-3.118.39z"/>
        <path d="M335.971 357.561c.035.496-.425.815-.921.638s-1.028-.85-1.063-1.346l-.195-2.728c-.035-.496.425-.815.921-.638.518.185 1.028.85 1.063 1.346l.195 2.728z"/>
        <path d="M338.447 358.121c.142.461-.248.85-.78.78s-1.205-.602-1.346-1.063l-.78-2.533c-.142-.461.248-.85.78-.78.555.074 1.205.602 1.346 1.063l.78 2.533z"/>
        <path d="M341.205 358.735c.248.425-.035.85-.567.85s-1.311-.425-1.559-.85l-1.364-2.339c-.248-.425.035-.85.567-.85.555 0 1.311.425 1.559.85l1.364 2.339z"/>
        <path d="M436.298 351.507c.567.106.78.567.425.921s-1.276.602-1.843.496l-3.118-.585c-.567-.106-.78-.567-.425-.921.37-.37 1.276-.602 1.843-.496l3.118.585z"/>
        <path d="M437.093 351.688c.531.142.673.638.283.992s-1.311.567-1.843.425l-2.923-.78c-.531-.142-.673-.638-.283-.992.407-.37 1.311-.567 1.843-.425l2.923.78z"/>
        <path d="M440.346 349.17c.567.071.815.531.496.921s-1.205.709-1.772.638l-3.118-.39c-.567-.071-.815-.531-.496-.921.333-.407 1.205-.709 1.772-.638l3.118.39z"/>
        <path d="M438.691 351.051c.531.142.673.602.283.921s-1.311.496-1.843.354l-2.923-.78c-.531-.142-.673-.602-.283-.921.407-.333 1.311-.496 1.843-.354l2.923.78z"/>
        <path d="M428.24 342.143c-.531.213-.638.709-.213.992s1.382.354 1.913.142l2.923-1.169c.531-.213.638-.709.213-.992-.444-.296-1.382-.354-1.913-.142l-2.923 1.169z"/>
        <path d="M426.248 341.291c-.496.213-.567.709-.142.992s1.346.354 1.843.142l2.728-1.169c.496-.213.567-.709.142-.992-.444-.296-1.346-.354-1.843-.142l-2.728 1.169z"/>
        <path d="M424.099 339.954c-.531.177-.673.673-.283.992s1.311.461 1.843.283l2.923-.974c.531-.177.673-.673.283-.992-.407-.333-1.311-.461-1.843-.283l-2.923.974z"/>
        <path d="M434.283 345.069c-.496.213-.567.709-.142.992s1.346.354 1.843.142l2.728-1.169c.496-.213.567-.709.142-.992-.444-.296-1.346-.354-1.843-.142l-2.728 1.169z"/>
        <path d="M432.259 344.033c-.531.213-.638.709-.213.992s1.382.354 1.913.142l2.923-1.169c.531-.213.638-.709.213-.992-.444-.296-1.382-.354-1.913-.142l-2.923 1.169z"/>
        <path d="M430.265 343.18c-.496.213-.567.709-.142.992s1.346.354 1.843.142l2.728-1.169c.496-.213.567-.709.142-.992-.444-.296-1.346-.354-1.843-.142l-2.728 1.169z"/>
      </g>
      <g transform="matrix(.072 0 0 .085 364.632 298.808)">
        <path d="M212.603-1994.912v53.15h-53.15v35.44h53.15v106.3h35.433v-106.3h53.149v-35.44h-53.149v-53.15h-35.433z" stroke="#000" fill="#fff133"/>
        <ellipse fill="#fff133" transform="matrix(.571 0 0 .618 93.645 -678.94)" cx="239.17" rx="62.008" cy="-1813.5" ry="57.32" stroke="#000"/>
        <path d="M602.36-1119.4c0 68.45-10.417 145.68-29.252 205.02-120.08-26.455-268.06-39.682-339.04-39.682-87.586 0-246.15 13.227-345.26 26.455-18.835-59.336-30.538-123.34-30.538-191.79 0-273.81 105.27-390.21 367.5-496.03 233.3 105.82 376.6 222.22 376.6 496.03z" transform="matrix(1.058 0 0 1.339 -5.764 363.72)" stroke="#000" fill="#fff"/>
        <path d="M566.93-657.28c0-44.007-150.8-79.724-336.61-79.724s-336.61 35.717-336.61 79.724v26.575c0-44.007 150.8-70.866 336.61-70.866s336.61 44.576 336.61 88.583v-44.292z" transform="matrix(1.171 0 0 .745 -32.833 -634.89)" stroke="#000" fill="#fff133"/>
        <g stroke="#000" fill="#fff133">
          <path d="M237.105-1381.874l-62.345 39.597 41.563 26.398-20.781 13.199-41.563-26.398-62.345 39.596 62.345 39.597 41.563-26.398 20.781 13.198v39.597h41.563v-39.597l20.782-13.198 41.563 26.398 62.345-39.597-62.345-39.596-41.563 26.398-20.782-13.199 41.564-26.398-62.345-39.597z"/>
          <path d="M-181.945-1340.002l6.116 39.88 10.417 25.547-14.899 16.069-10.418-25.548-4.483 41.617 35.735 35.025-10.417-25.546 25.316 9.478 15.626 38.321 20.109-3.296-15.626-38.321 14.9-16.069 10.416 25.547 4.483-41.616-35.735-35.026 10.419 25.548-25.318-9.479-10.417-25.547-26.224-36.584z"/>
          <path d="M654.991-1339.374l-23.76 37.109-9.461 25.689-24.962 9.833 9.461-25.69-34.424 35.522 6.042 41.545 9.46-25.688 15.502 15.856-14.191 38.534 20.233 3.011 14.191-38.534 24.963-9.832-9.461 25.688 34.424-35.521-6.042-41.546-9.46 25.69-15.502-15.857 9.461-25.689 3.527-40.12z"/>
          <path d="M-30.793-1285.432c-3.314-13.024 9.779-27.732 26.184-29.415 16.406-1.683 36.125 9.658 39.438 22.682l-9.779 27.725 78.874 45.354-32.811 3.366-59.156-34.016-39.277 44.114-32.811 3.366 52.37-58.819s-19.718-11.334-23.032-24.359z"/>
          <path d="M438.894-1292.267c3.172-13.042 22.767-24.472 39.19-22.859 16.424 1.612 29.675 16.266 26.503 29.308l-22.765 24.465 53.008 58.606-32.846-3.224-39.756-43.955-58.783 34.282-32.846-3.224 78.378-45.709s-13.253-14.648-10.082-27.689z"/>
          <path d="M631.949-1164.134c0-32.785-176.888-59.394-394.844-59.394s-394.844 26.609-394.844 59.394v19.798c0-32.785 176.888-52.795 394.844-52.795s394.844 33.209 394.844 65.994v-32.998z"/>
        </g>
        <path d="M566.93-657.28c0-44.007-150.8-79.724-336.61-79.724s-336.61 35.717-336.61 79.724v26.575c0-44.007 150.8-70.866 336.61-70.866s336.61 44.576 336.61 88.583v-44.292z" transform="matrix(1.073 0 0 .745 -9.254 -386.86)" stroke="#000" fill="#fff133"/>
        <g stroke="#000" fill="#fff133">
          <path d="M241.381-1133.844l-58.678 39.597 39.118 26.398-19.558 13.199-39.118-26.398-58.678 39.596 58.678 39.597 39.118-26.398 19.558 13.198v39.597h39.118v-39.597l19.56-13.198 39.118 26.398 58.678-39.597-58.678-39.596-39.118 26.398-19.56-13.199 39.119-26.398-58.678-39.597z"/>
          <path d="M-152.357-1091.972l5.712 39.88 9.78 25.547-14.049 16.069-9.78-25.548-4.27 41.617 33.609 35.025-9.779-25.546 23.828 9.478 14.669 38.321 18.939-3.296-14.669-38.321 14.05-16.069 9.778 25.547 4.27-41.616-33.609-35.026 9.781 25.548-23.829-9.479-9.78-25.547-24.651-36.584z"/>
          <path d="M635.43-1091.344l-22.401 37.109-8.929 25.689-23.509 9.833 8.929-25.69-32.44 35.522 5.652 41.545 8.929-25.688 14.58 15.856-13.394 38.534 19.046 3.011 13.394-38.534 23.51-9.832-8.93 25.688 32.439-35.521-5.652-41.546-8.928 25.69-14.581-15.857 8.929-25.689 3.355-40.12z"/>
          <path d="M-10.656-1037.402c-3.119-13.024 9.212-27.732 24.66-29.415 15.449-1.683 34.016 9.658 37.135 22.682l-9.212 27.725 74.268 45.354-30.898 3.366-55.701-34.016-36.992 44.114-30.898 3.366 49.323-58.819s-18.566-11.334-21.685-24.359z"/>
          <path d="M432.006-1044.237c2.995-13.042 21.456-24.472 36.922-22.859 15.467 1.612 27.938 16.266 24.944 29.308l-21.454 24.465 49.89 58.606-30.933-3.224-37.418-43.955-55.381 34.282-30.933-3.224 73.842-45.709s-12.474-14.648-9.479-27.689z"/>
          <path d="M612.999-916.104c0-32.785-166.483-59.394-371.617-59.394s-371.617 26.609-371.617 59.394v19.798c0-32.785 166.483-52.795 371.617-52.795s371.617 33.209 371.617 65.994v-32.998z"/>
        </g>
        <path d="M566.93-657.28c0-44.007-150.8-79.724-336.61-79.724s-336.61 35.717-336.61 79.724v26.575c0-44.007 150.8-70.866 336.61-70.866s336.61 44.576 336.61 88.583v-44.292z" transform="matrix(1.105 0 0 .745 -16.106 -865.2)" stroke="#000" fill="#fff133"/>
        <g stroke="#000" fill="#fff133">
          <path d="M242.578-1610.911l-57.402 37.311 38.268 24.874-19.133 12.437-38.268-24.874-57.402 37.311 57.402 37.311 38.268-24.874 19.133 12.437v37.311h38.268v-37.311l19.134-12.437 38.268 24.874 57.402-37.311-57.402-37.311-38.268 24.874-19.134-12.437 38.269-24.874-57.402-37.311z"/>
          <path d="M-142.509-1572.065l5.586 37.617 9.567 24.094-13.747 15.166-9.567-24.095-4.181 39.26 32.882 33.023-9.567-24.094 23.314 8.929 14.351 36.142 18.532-3.119-14.351-36.142 13.749-15.165 9.566 24.094 4.182-39.26-32.882-33.024 9.568 24.095-23.316-8.929-9.567-24.094-24.118-34.498z"/>
          <path d="M627.436-1571.616l-21.881 35.014-8.717 24.236-22.978 9.284 8.717-24.237-31.695 33.52 5.546 39.189 8.716-24.235 14.261 14.952-13.075 36.355 18.621 2.834 13.075-36.355 22.979-9.283-8.717 24.235 31.695-33.519-5.546-39.189-8.716 24.237-14.262-14.953 8.717-24.236 3.26-37.848z"/>
          <path d="M-3.824-1520.297c-3.048-12.28 9.017-26.154 24.129-27.749 15.113-1.595 33.272 9.091 36.32 21.371l-9.018 26.148 72.638 42.732-30.224 3.189-54.479-32.049-36.194 41.616-30.224 3.189 48.26-55.488s-18.159-10.679-21.207-22.959z"/>
          <path d="M428.682-1526.722c2.924-12.298 20.978-23.072 36.107-21.548 15.13 1.524 27.336 15.345 24.412 27.643l-20.976 23.066 48.827 55.275-30.26-3.047-36.62-41.457-54.159 32.315-30.26-3.047 72.212-43.087s-12.208-13.815-9.284-26.113z"/>
          <path d="M606.116-1405.649c0-30.893-162.864-55.966-363.539-55.966s-363.539 25.073-363.539 55.966v18.656c0-30.893 162.864-49.748 363.539-49.748s363.539 31.292 363.539 62.185v-31.093z"/>
        </g>
        <ellipse fill="#b90000" transform="matrix(.966 0 0 .414 12.936 -517.53)" cx="234.13" rx="375.87" cy="-822.11" ry="120.53"/>
      </g>
      <path d="M513.78-790.16l35.432-17.714 35.433 17.714s-73.366 35.433-73.366 159.45c-.001 88.58 125.26 106.3 125.26 212.6 0 45.649-34.183 88.582-69.616 88.582s-88.583-17.716-141.73-70.866c35.433 17.716 76.082 37.308 106.3 36.058 19.588-.405 55.025-17.716 55.025-53.149 0-70.866-122.77-106.92-122.77-213.22 0-124.02 50.025-159.45 50.026-159.45z" transform="matrix(.216 0 0 .178 313.778 341.739)" stroke="#000" stroke-width="1pt" fill="#fff"/>
      <path d="M212.6-453.54c-35.433 0-70.866 35.433-70.866 70.866s35.433 70.866 70.866 70.866h194.88c35.433 0 70.866-35.433 70.866-70.866 0-37.027-35.433-70.866-70.866-70.866h-194.88z" transform="matrix(.019 -.001 .008 .02 378.972 384.449)" stroke="#000" stroke-width="20.006" fill="#b00"/>
      <path d="M520.25-790.16l46.683-17.717 10 17.717s-70.649 35.433-70.649 159.45c-.001 88.58 125.89 106.3 125.89 212.6 0 45.649-26.714 87.362-65.241 88.582-73.403 2.363-90.458-23.966-141.73-70.866 43.149 32.308 105 46.752 129.02 34.183 29.354-15.364 35.024-36.058 35.024-53.774 0-70.866-120.89-104.42-120.89-210.72 0-124.02 51.9-159.45 51.9-159.45z" transform="matrix(.216 0 0 .178 313.778 341.739)" stroke="#000" stroke-width="1pt" fill="#fff"/>
      <path d="M513.34-789.69c7.004-2.437 35.875-18.186 71.308 17.247 17.717 17.72 17.716 53.149 17.716 70.866l53.15-53.149s-29.066-86.87-107.62-53.592c-11.127 4.901-28.139 14.538-34.549 18.628z" transform="matrix(.216 0 0 .178 313.778 341.739)" stroke="#000" stroke-width="1pt" fill="#fff"/>
      <path d="M523.8-795.94c8.839-2.869 36.676-6.325 64.596 18.501 17.717 17.72 18.966 42.933 18.966 60.65l40.65-37.933c3.44-3.21-24.832-81.252-99.241-54.034-4.498 1.807-14.779 6.302-24.971 12.816z" transform="matrix(.216 0 0 .178 313.778 341.739)" stroke="#000" stroke-width="1pt" fill="#fff"/>
      <path d="M344.54-596.29l9.152 22.141s1.455-9.767 8.526-11.534l7.071-1.768s26.864 49.328 32.168 58.167c5.302 8.838-3.536 16.793-1.769 16.793 1.769 0 26.517-11.49 26.517-11.49s-10.606.883-15.026-6.188l-34.819-59.934s6.187-2.652 11.49-5.303c5.304-2.652 10.607 7.955 10.607 7.955l-13.258-26.517s0 8.839-4.42 10.607c-4.419 1.767-7.955 3.535-7.955 3.535s-3.535-6.187-7.955-13.258c-4.419-7.071 4.42-14.142 4.42-14.142l-22.981 11.49s7.955 4.42 10.607 8.839c2.651 4.42 5.303 8.839 5.303 8.839s-3.223 1.768-8.214 3.482c-3.589 1.875-7.696.054-9.464-1.714z" transform="matrix(.176 -.018 .06 .155 398.81 344.209)" stroke="#000" stroke-width="1pt" fill="#fff133"/>
      <path d="M344.54-596.29l9.152 22.141s1.455-9.767 8.526-11.534l7.071-1.768s26.864 49.328 32.168 58.167c5.302 8.838-3.536 16.793-1.769 16.793 1.769 0 26.517-11.49 26.517-11.49s-10.606.883-15.026-6.188l-34.819-59.934s6.187-2.652 11.49-5.303c5.304-2.652 10.607 7.955 10.607 7.955l-13.258-26.517s0 8.839-4.42 10.607c-4.419 1.767-7.955 3.535-7.955 3.535s-3.535-6.187-7.955-13.258c-4.419-7.071 4.42-14.142 4.42-14.142l-22.981 11.49s7.955 4.42 10.607 8.839c2.651 4.42 5.303 8.839 5.303 8.839s-3.223 1.768-8.214 3.482c-3.589 1.875-7.696.054-9.464-1.714z" transform="matrix(-.16 .021 -.003 -.118 505.789 128.218)" stroke="#000" stroke-width="1pt" fill="#fff133"/>
      <path d="M212.6-453.54c-35.433 0-70.866 35.433-70.866 70.866s35.433 70.866 70.866 70.866h194.88c35.433 0 70.866-35.433 70.866-70.866 0-37.027-35.433-70.866-70.866-70.866h-194.88z" transform="matrix(.019 -.001 .008 .02 382.118 384.258)" stroke="#000" stroke-width="20.006" fill="#b00"/>
      <path d="M212.6-453.54c-35.433 0-70.866 35.433-70.866 70.866s35.433 70.866 70.866 70.866h194.88c35.433 0 70.866-35.433 70.866-70.866 0-37.027-35.433-70.866-70.866-70.866h-194.88z" transform="matrix(.031 -.001 .014 .02 377.434 386.883)" stroke="#000" stroke-width="20.006" fill="#b00"/>
      <path d="M212.6-453.54c-35.433 0-70.866 35.433-70.866 70.866s35.433 70.866 70.866 70.866h194.88c35.433 0 70.866-35.433 70.866-70.866 0-37.027-35.433-70.866-70.866-70.866h-194.88z" transform="matrix(.031 -.001 .014 .02 380.403 386.693)" stroke="#000" stroke-width="20.006" fill="#b00"/>
      <path d="M212.6-453.54c-35.433 0-70.866 35.433-70.866 70.866s35.433 70.866 70.866 70.866h194.88c35.433 0 70.866-35.433 70.866-70.866 0-37.027-35.433-70.866-70.866-70.866h-194.88z" transform="matrix(.039 -.001 .018 .02 376.248 389.685)" stroke="#000" stroke-width="20.006" fill="#b00"/>
      <path d="M212.6-453.54c-35.433 0-70.866 35.433-70.866 70.866s35.433 70.866 70.866 70.866h194.88c35.433 0 70.866-35.433 70.866-70.866 0-37.027-35.433-70.866-70.866-70.866h-194.88z" transform="matrix(.039 -.001 .018 .02 379.929 389.494)" stroke="#000" stroke-width="20.006" fill="#b00"/>
    </g>
    <path fill="#ffe000" d="M0 0h255.992v511.984h-255.992z"/>
  </g>
</svg>
