<svg xmlns="http://www.w3.org/2000/svg" xmlns:xlink="http://www.w3.org/1999/xlink" id="flag-icon-css-vg" width="512" height="512">
  <defs>
    <linearGradient id="a">
      <stop offset="0" stop-color="red"/>
      <stop offset="1" stop-color="#ff0"/>
    </linearGradient>
    <linearGradient id="c" x1="103.08" x2="92.55" y1="111.28" y2="107.76" gradientTransform="matrix(.65977 0 0 1.4919 -3.68 -.67)" gradientUnits="userSpaceOnUse" xlink:href="#a"/>
    <linearGradient id="d" x1="103.08" x2="92.55" y1="111.28" y2="107.76" gradientTransform="matrix(.65977 0 0 1.4919 -3.68 -.45)" gradientUnits="userSpaceOnUse" xlink:href="#a"/>
    <linearGradient id="e" x1="103.08" x2="92.55" y1="111.28" y2="107.76" gradientTransform="matrix(.65977 0 0 1.4919 -4.46 -.25)" gradientUnits="userSpaceOnUse" xlink:href="#a"/>
    <linearGradient id="f" x1="103.08" x2="92.55" y1="111.28" y2="107.76" gradientTransform="matrix(.65977 0 0 1.4919 -3.7 -.03)" gradientUnits="userSpaceOnUse" xlink:href="#a"/>
    <linearGradient id="g" x1="103.08" x2="92.55" y1="111.28" y2="107.76" gradientTransform="matrix(.65977 0 0 1.4919 -3.7 .18)" gradientUnits="userSpaceOnUse" xlink:href="#a"/>
    <linearGradient id="h" x1="103.08" x2="92.55" y1="111.28" y2="107.76" gradientTransform="matrix(.65977 0 0 1.4919 -3.7 .4)" gradientUnits="userSpaceOnUse" xlink:href="#a"/>
    <linearGradient id="i" x1="103.08" x2="92.55" y1="111.28" y2="107.76" gradientTransform="matrix(.65977 0 0 1.4919 -4.46 .4)" gradientUnits="userSpaceOnUse" xlink:href="#a"/>
    <linearGradient id="j" x1="103.08" x2="92.55" y1="111.28" y2="107.76" gradientTransform="matrix(.65977 0 0 1.4919 -4.46 .18)" gradientUnits="userSpaceOnUse" xlink:href="#a"/>
    <linearGradient id="k" x1="103.08" x2="92.55" y1="111.28" y2="107.76" gradientTransform="matrix(.65977 0 0 1.4919 -4.45 -.04)" gradientUnits="userSpaceOnUse" xlink:href="#a"/>
    <linearGradient id="m" x1="103.08" x2="92.55" y1="111.28" y2="107.76" gradientTransform="matrix(.65977 0 0 1.4919 -4.46 -.46)" gradientUnits="userSpaceOnUse" xlink:href="#a"/>
    <linearGradient id="n" x1="103.08" x2="92.55" y1="111.28" y2="107.76" gradientTransform="matrix(.65977 0 0 1.4919 -3.83 -.26)" gradientUnits="userSpaceOnUse" xlink:href="#a"/>
    <linearGradient id="l" x1="103.08" x2="92.55" y1="111.28" y2="107.76" gradientTransform="matrix(.85004 0 0 1.9222 723.32 109.68)" gradientUnits="userSpaceOnUse" xlink:href="#a"/>
    <clipPath id="b">
      <path fill-opacity=".67" d="M0 0h512v512H0z"/>
    </clipPath>
  </defs>
  <g clip-path="url(#b)">
    <path fill="#006" d="M0 0h1024v512H0z"/>
    <path fill="#006" fill-rule="evenodd" d="M0 0h512v256H0z"/>
    <g stroke-width="1pt">
      <path fill="#fff" d="M0 0v28.62L454.76 256H512v-28.62L57.24 0H0zm512 0v28.62L57.24 256H0v-28.62L454.76 0H512z"/>
      <path fill="#fff" d="M213.33 0v256h85.34V0h-85.34zM0 85.33v85.34h512V85.33H0z"/>
      <path fill="#c00" d="M0 102.4v51.2h512v-51.2H0zM230.4 0v256h51.2V0h-51.2zM0 256l170.67-85.33h38.16L38.16 256H0zM0 0l170.67 85.33H132.5L0 19.08V0zm303.17 85.33L473.84 0H512L341.33 85.33h-38.16zM512 256l-170.67-85.33h38.16L512 236.92V256z"/>
    </g>
    <path fill="#fff" fill-rule="evenodd" d="M256.39 193.62l213.68-.8-.4 190.3s7.54 28.93-89.59 72.94c34.89-3.57 72.94-40.84 72.94-40.84s15.46-19.82 23-8.72c7.53 11.1 14.66 16.65 20.21 21.01 5.55 4.36 9.91 16.26 1.59 24.98s-21.4 9.91-24.98-.8c-5.55 2.78-39.64 44.01-109.4 46-70.97-1.2-109.82-46.39-109.82-46.39s-9.5 15.06-22.99 3.17c-13.08-15.46-3.17-25.37-3.17-25.37s11.1-6.34 14.27-10.7c5.15-5.95 6.74-13.88 15.46-13.88 10.31.8 14.27 9.12 14.27 9.12s35.68 37.66 74.14 42.42c-86.82-41.63-90-67.4-89.6-73.74l.4-188.7z"/>
    <path fill="#006129" fill-rule="evenodd" stroke="#000" stroke-width="1.72" d="M261.54 198.77l203.76-1.2v183.16c.4 23.78-39.64 47.97-102.28 78.89-64.61-33.3-101.87-53.52-102.27-79.28l.8-181.56z"/>
    <path fill="none" stroke="#f7c600" stroke-width="1.72" d="M286.04 400.58l12.03-17.67 12.09 17.7"/>
    <path fill="#f7c600" fill-rule="evenodd" stroke="#000" stroke-width=".81" d="M300.49 393.97a2.39 2.39 0 1 1-4.78 0 2.39 2.39 0 0 1 4.78 0z"/>
    <path fill="#f7c600" fill-rule="evenodd" stroke="#000" stroke-width=".81" d="M288.3 413.63l18.65.05s.3-2.42-1.95-3.89c9.77-1.34 7.23-9.96 15.41-10.44 1.59.24-4.27 3.66-4.27 3.66s-4.93 3.48-2.69 5.25c1.79 1.4 2.57-.86 2.81-2.57.24-1.7 7.94-2.8 6.84-7.69-1.83-4.03-12.58 2.69-12.58 2.69l-7.66-.04c-.48-.86-2.6-4.31-4.77-4.33-2.6.1-4.41 4.37-4.41 4.37h-17.34s-.6 4.45 8.2 5.3a10.54 10.54 0 0 0 5.23 3.98c-1.15.95-1.47 2.1-1.47 3.66z"/>
    <path fill="none" stroke="#000" stroke-width=".81" d="M289.65 409.84l15.53-.05m-22.65-9.11s1.25 7.26 6.98 8.98"/>
    <path fill="url(#c)" fill-rule="evenodd" stroke="#000" stroke-width=".63" d="M66.32 170.54c.45-2.15 1.26-2.52 2.15-5.27.15-2.67-2.15-2.37-1.48-4.08 1.18-1.85.6-3.63-1.63-5.04.44 2.45-2.9 4.75-2.9 6.75s1.7 1.56 1.49 4.6c.14 1.78-.45 1.33-.6 3.04h2.97z" transform="translate(196.13 180.87) scale(1.2884)"/>
    <path fill="#f7c600" fill-rule="evenodd" stroke="#000" stroke-width=".81" d="M300.3 383.36a2.2 2.2 0 1 1-4.4 0 2.2 2.2 0 0 1 4.4 0z"/>
    <path fill="none" stroke="#f7c600" stroke-width="1.72" d="M285.36 364.22l12.03-17.67 12.09 17.7"/>
    <path fill="#f7c600" fill-rule="evenodd" stroke="#000" stroke-width=".81" d="M299.8 357.6a2.39 2.39 0 1 1-4.77 0 2.39 2.39 0 0 1 4.78 0z"/>
    <path fill="#f7c600" fill-rule="evenodd" stroke="#000" stroke-width=".81" d="M287.62 377.27l18.65.05s.3-2.42-1.95-3.89c9.77-1.34 7.23-9.96 15.41-10.44 1.59.24-4.27 3.66-4.27 3.66s-4.93 3.48-2.69 5.25c1.79 1.4 2.57-.86 2.81-2.56.24-1.71 7.94-2.81 6.84-7.7-1.83-4.03-12.58 2.69-12.58 2.69l-7.66-.04c-.48-.86-2.6-4.31-4.77-4.33-2.6.1-4.41 4.37-4.41 4.37h-17.34s-.6 4.45 8.2 5.3a10.54 10.54 0 0 0 5.23 3.98c-1.15.95-1.47 2.11-1.47 3.66z"/>
    <path fill="none" stroke="#000" stroke-width=".81" d="M288.97 373.48l15.53-.05m-22.65-9.1s1.24 7.26 6.98 8.98"/>
    <path fill="url(#d)" fill-rule="evenodd" stroke="#000" stroke-width=".63" d="M66.32 170.54c.45-2.15 1.26-2.52 2.15-5.27.15-2.67-2.15-2.37-1.48-4.08 1.18-1.85.6-3.63-1.63-5.04.44 2.45-2.9 4.75-2.9 6.75s1.7 1.56 1.49 4.6c.14 1.78-.45 1.33-.6 3.04h2.97z" transform="translate(195.45 144.5) scale(1.2884)"/>
    <path fill="#f7c600" fill-rule="evenodd" stroke="#000" stroke-width=".81" d="M299.61 347a2.2 2.2 0 1 1-4.4 0 2.2 2.2 0 0 1 4.4 0z"/>
    <path fill="none" stroke="#f7c600" stroke-width="1.72" d="M413.14 331.17l12.03-17.67 12.09 17.7"/>
    <path fill="#f7c600" fill-rule="evenodd" stroke="#000" stroke-width=".81" d="M427.59 324.56a2.39 2.39 0 1 1-4.78 0 2.39 2.39 0 0 1 4.78 0z"/>
    <path fill="#f7c600" fill-rule="evenodd" stroke="#000" stroke-width=".81" d="M415.4 344.22l18.65.05s.3-2.42-1.95-3.89c9.77-1.34 7.23-9.96 15.41-10.45 1.59.25-4.27 3.67-4.27 3.67s-4.93 3.48-2.69 5.25c1.79 1.4 2.57-.86 2.81-2.57.24-1.7 7.94-2.8 6.84-7.69-1.83-4.03-12.58 2.69-12.58 2.69l-7.66-.04c-.48-.86-2.6-4.31-4.77-4.33-2.6.1-4.41 4.37-4.41 4.37h-17.34s-.6 4.45 8.2 5.3a10.54 10.54 0 0 0 5.23 3.98c-1.15.95-1.47 2.1-1.47 3.66z"/>
    <path fill="none" stroke="#000" stroke-width=".81" d="M416.75 340.43l15.53-.05m-22.65-9.11s1.24 7.26 6.98 8.98"/>
    <path fill="url(#e)" fill-rule="evenodd" stroke="#000" stroke-width=".63" d="M66.32 170.54c.45-2.15 1.26-2.52 2.15-5.27.15-2.67-2.15-2.37-1.48-4.08 1.18-1.85.6-3.63-1.63-5.04.44 2.45-2.9 4.75-2.9 6.75s1.7 1.56 1.49 4.6c.14 1.78-.45 1.33-.6 3.04h2.97z" transform="translate(323.23 111.46) scale(1.2884)"/>
    <path fill="#f7c600" fill-rule="evenodd" stroke="#000" stroke-width=".81" d="M427.4 313.95a2.2 2.2 0 1 1-4.4 0 2.2 2.2 0 0 1 4.4 0z"/>
    <path fill="none" stroke="#f7c600" stroke-width="1.72" d="M288.34 295.82l12.03-17.66 12.09 17.7"/>
    <path fill="#f7c600" fill-rule="evenodd" stroke="#000" stroke-width=".81" d="M302.79 289.21a2.39 2.39 0 1 1-4.78 0 2.39 2.39 0 0 1 4.78 0z"/>
    <path fill="#f7c600" fill-rule="evenodd" stroke="#000" stroke-width=".81" d="M290.6 308.88l18.65.05s.3-2.42-1.95-3.9c9.77-1.34 7.23-9.95 15.41-10.44 1.59.24-4.27 3.66-4.27 3.66s-4.93 3.48-2.69 5.25c1.79 1.4 2.57-.85 2.81-2.56.24-1.71 7.94-2.8 6.84-7.7-1.83-4.02-12.58 2.7-12.58 2.7l-7.66-.05c-.48-.86-2.6-4.3-4.77-4.33-2.6.1-4.41 4.37-4.41 4.37h-17.34s-.6 4.45 8.2 5.3a10.54 10.54 0 0 0 5.23 3.98c-1.15.96-1.47 2.11-1.47 3.66z"/>
    <path fill="none" stroke="#000" stroke-width=".81" d="M291.95 305.09l15.53-.06m-22.65-9.1s1.25 7.26 6.98 8.98"/>
    <path fill="url(#f)" fill-rule="evenodd" stroke="#000" stroke-width=".63" d="M66.32 170.54c.45-2.15 1.26-2.52 2.15-5.27.15-2.67-2.15-2.37-1.48-4.08 1.18-1.85.6-3.63-1.63-5.04.44 2.45-2.9 4.75-2.9 6.75s1.7 1.56 1.49 4.6c.14 1.78-.45 1.33-.6 3.04h2.97z" transform="translate(198.43 76.11) scale(1.2884)"/>
    <path fill="#f7c600" fill-rule="evenodd" stroke="#000" stroke-width=".81" d="M302.6 278.6a2.2 2.2 0 1 1-4.4 0 2.2 2.2 0 0 1 4.4 0z"/>
    <path fill="none" stroke="#f7c600" stroke-width="1.72" d="M288.61 261.08l12.03-17.66 12.09 17.7"/>
    <path fill="#f7c600" fill-rule="evenodd" stroke="#000" stroke-width=".81" d="M303.06 254.47a2.39 2.39 0 1 1-4.78 0 2.39 2.39 0 0 1 4.78 0z"/>
    <path fill="#f7c600" fill-rule="evenodd" stroke="#000" stroke-width=".81" d="M290.87 274.14l18.65.05s.3-2.42-1.95-3.9c9.77-1.33 7.23-9.95 15.41-10.44 1.59.25-4.27 3.67-4.27 3.67s-4.93 3.48-2.69 5.25c1.79 1.4 2.57-.86 2.81-2.57.24-1.7 7.94-2.8 6.84-7.69-1.83-4.03-12.58 2.69-12.58 2.69l-7.66-.05c-.48-.86-2.6-4.3-4.77-4.32-2.6.1-4.41 4.37-4.41 4.37H278.9s-.6 4.44 8.2 5.3a10.54 10.54 0 0 0 5.23 3.97c-1.15.96-1.47 2.12-1.47 3.67z"/>
    <path fill="none" stroke="#000" stroke-width=".81" d="M292.22 270.35l15.53-.06m-22.65-9.1s1.24 7.26 6.98 8.98"/>
    <path fill="url(#g)" fill-rule="evenodd" stroke="#000" stroke-width=".63" d="M66.32 170.54c.45-2.15 1.26-2.52 2.15-5.27.15-2.67-2.15-2.37-1.48-4.08 1.18-1.85.6-3.63-1.63-5.04.44 2.45-2.9 4.75-2.9 6.75s1.7 1.56 1.49 4.6c.14 1.78-.45 1.33-.6 3.04h2.97z" transform="translate(198.7 41.37) scale(1.2884)"/>
    <path fill="#f7c600" fill-rule="evenodd" stroke="#000" stroke-width=".81" d="M302.86 243.87a2.2 2.2 0 1 1-4.4 0 2.2 2.2 0 0 1 4.4 0z"/>
    <path fill="none" stroke="#f7c600" stroke-width="1.72" d="M289.27 225.84l12.03-17.67 12.09 17.7"/>
    <path fill="#f7c600" fill-rule="evenodd" stroke="#000" stroke-width=".81" d="M303.72 219.23a2.39 2.39 0 1 1-4.78 0 2.39 2.39 0 0 1 4.78 0z"/>
    <path fill="#f7c600" fill-rule="evenodd" stroke="#000" stroke-width=".81" d="M291.53 238.89l18.65.05s.3-2.42-1.95-3.89c9.77-1.34 7.23-9.96 15.41-10.44 1.59.24-4.27 3.66-4.27 3.66s-4.93 3.48-2.69 5.25c1.79 1.4 2.57-.86 2.81-2.57.24-1.7 7.94-2.8 6.84-7.69-1.83-4.03-12.58 2.69-12.58 2.69l-7.66-.04c-.48-.86-2.6-4.31-4.77-4.33-2.6.1-4.41 4.37-4.41 4.37h-17.34s-.6 4.45 8.2 5.3a10.54 10.54 0 0 0 5.23 3.98c-1.15.95-1.47 2.11-1.47 3.66z"/>
    <path fill="none" stroke="#000" stroke-width=".81" d="M292.88 235.1l15.53-.05m-22.65-9.1s1.24 7.26 6.98 8.98"/>
    <path fill="url(#h)" fill-rule="evenodd" stroke="#000" stroke-width=".63" d="M66.32 170.54c.45-2.15 1.26-2.52 2.15-5.27.15-2.67-2.15-2.37-1.48-4.08 1.18-1.85.6-3.63-1.63-5.04.44 2.45-2.9 4.75-2.9 6.75s1.7 1.56 1.49 4.6c.14 1.78-.45 1.33-.6 3.04h2.97z" transform="translate(199.36 6.13) scale(1.2884)"/>
    <path fill="#f7c600" fill-rule="evenodd" stroke="#000" stroke-width=".81" d="M303.52 208.62a2.2 2.2 0 1 1-4.4 0 2.2 2.2 0 0 1 4.4 0z"/>
    <path fill="none" stroke="#f7c600" stroke-width="1.72" d="M414.1 226.41l12.02-17.66 12.09 17.7"/>
    <path fill="#f7c600" fill-rule="evenodd" stroke="#000" stroke-width=".81" d="M428.54 219.8a2.39 2.39 0 1 1-4.78 0 2.39 2.39 0 0 1 4.78 0z"/>
    <path fill="#f7c600" fill-rule="evenodd" stroke="#000" stroke-width=".81" d="M416.35 239.46l18.65.06s.3-2.42-1.95-3.9c9.77-1.34 7.23-9.95 15.41-10.44 1.59.24-4.27 3.66-4.27 3.66s-4.93 3.48-2.69 5.25c1.79 1.4 2.57-.85 2.81-2.56.24-1.71 7.94-2.8 6.84-7.7-1.83-4.02-12.58 2.7-12.58 2.7l-7.66-.05c-.48-.86-2.6-4.3-4.77-4.32-2.6.09-4.41 4.36-4.41 4.36h-17.34s-.6 4.45 8.2 5.3a10.54 10.54 0 0 0 5.23 3.98c-1.15.96-1.47 2.11-1.47 3.66z"/>
    <path fill="none" stroke="#000" stroke-width=".81" d="M417.7 235.68l15.53-.06m-22.65-9.1s1.25 7.26 6.98 8.98"/>
    <path fill="url(#i)" fill-rule="evenodd" stroke="#000" stroke-width=".63" d="M66.32 170.54c.45-2.15 1.26-2.52 2.15-5.27.15-2.67-2.15-2.37-1.48-4.08 1.18-1.85.6-3.63-1.63-5.04.44 2.45-2.9 4.75-2.9 6.75s1.7 1.56 1.49 4.6c.14 1.78-.45 1.33-.6 3.04h2.97z" transform="translate(324.18 6.7) scale(1.2884)"/>
    <path fill="#f7c600" fill-rule="evenodd" stroke="#000" stroke-width=".81" d="M428.34 209.2a2.2 2.2 0 1 1-4.4 0 2.2 2.2 0 0 1 4.4 0z"/>
    <path fill="none" stroke="#f7c600" stroke-width="1.72" d="M412.95 261.01l12.03-17.66 12.09 17.7"/>
    <path fill="#f7c600" fill-rule="evenodd" stroke="#000" stroke-width=".81" d="M427.4 254.4a2.39 2.39 0 1 1-4.78 0 2.39 2.39 0 0 1 4.78 0z"/>
    <path fill="#f7c600" fill-rule="evenodd" stroke="#000" stroke-width=".81" d="M415.21 274.06l18.65.06s.3-2.42-1.95-3.9c9.77-1.34 7.23-9.95 15.41-10.44 1.59.24-4.27 3.66-4.27 3.66s-4.93 3.48-2.69 5.25c1.79 1.4 2.57-.85 2.81-2.56.24-1.71 7.94-2.81 6.84-7.7-1.83-4.02-12.58 2.7-12.58 2.7l-7.66-.05c-.48-.86-2.6-4.31-4.77-4.33-2.6.1-4.41 4.37-4.41 4.37h-17.34s-.6 4.45 8.2 5.3a10.54 10.54 0 0 0 5.23 3.98c-1.15.96-1.47 2.11-1.47 3.66z"/>
    <path fill="none" stroke="#000" stroke-width=".81" d="M416.56 270.27l15.53-.05m-22.65-9.1s1.24 7.26 6.98 8.98"/>
    <path fill="url(#j)" fill-rule="evenodd" stroke="#000" stroke-width=".63" d="M66.32 170.54c.45-2.15 1.26-2.52 2.15-5.27.15-2.67-2.15-2.37-1.48-4.08 1.18-1.85.6-3.63-1.63-5.04.44 2.45-2.9 4.75-2.9 6.75s1.7 1.56 1.49 4.6c.14 1.78-.45 1.33-.6 3.04h2.97z" transform="translate(323.04 41.3) scale(1.2884)"/>
    <path fill="#f7c600" fill-rule="evenodd" stroke="#000" stroke-width=".81" d="M427.2 243.8a2.2 2.2 0 1 1-4.4 0 2.2 2.2 0 0 1 4.4 0z"/>
    <path fill="none" stroke="#f7c600" stroke-width="1.72" d="M411.42 296.38l12.03-17.67 12.09 17.7"/>
    <path fill="#f7c600" fill-rule="evenodd" stroke="#000" stroke-width=".81" d="M425.87 289.76a2.39 2.39 0 1 1-4.78 0 2.39 2.39 0 0 1 4.78 0z"/>
    <path fill="#f7c600" fill-rule="evenodd" stroke="#000" stroke-width=".81" d="M413.68 309.43l18.65.05s.3-2.42-1.95-3.89c9.77-1.34 7.23-9.96 15.41-10.45 1.59.25-4.27 3.67-4.27 3.67s-4.93 3.48-2.69 5.25c1.79 1.4 2.57-.86 2.81-2.57.24-1.7 7.94-2.8 6.84-7.69-1.83-4.03-12.58 2.69-12.58 2.69l-7.66-.05c-.48-.86-2.6-4.3-4.77-4.32-2.6.1-4.41 4.37-4.41 4.37h-17.34s-.6 4.44 8.2 5.3a10.54 10.54 0 0 0 5.23 3.97c-1.15.96-1.47 2.12-1.47 3.67z"/>
    <path fill="none" stroke="#000" stroke-width=".81" d="M415.03 305.64l15.53-.05m-22.65-9.11s1.24 7.26 6.98 8.98"/>
    <path fill="url(#k)" fill-rule="evenodd" stroke="#000" stroke-width=".63" d="M66.32 170.54c.45-2.15 1.26-2.52 2.15-5.27.15-2.67-2.15-2.37-1.48-4.08 1.18-1.85.6-3.63-1.63-5.04.44 2.45-2.9 4.75-2.9 6.75s1.7 1.56 1.49 4.6c.14 1.78-.45 1.33-.6 3.04h2.97z" transform="translate(321.51 76.67) scale(1.2884)"/>
    <path fill="#f7c600" fill-rule="evenodd" stroke="#000" stroke-width=".81" d="M425.67 279.16a2.2 2.2 0 1 1-4.4 0 2.2 2.2 0 0 1 4.4 0z"/>
    <path fill="none" stroke="#f7c600" stroke-width="1.29" d="M412.95 400.94l12.03-17.67 12.08 17.7"/>
    <path fill="#f7c600" fill-rule="evenodd" stroke="#000" stroke-width=".81" d="M427.39 394.34a2.39 2.39 0 1 1-4.78 0 2.39 2.39 0 0 1 4.78 0z"/>
    <path fill="#f7c600" fill-rule="evenodd" stroke="#000" stroke-width=".81" d="M415.21 413.99l18.65.05s.29-2.42-1.95-3.89c9.77-1.34 7.23-9.96 15.4-10.45 1.6.25-4.26 3.67-4.26 3.67s-4.94 3.48-2.69 5.25c1.78 1.4 2.56-.86 2.8-2.57.25-1.7 7.94-2.8 6.84-7.69-1.83-4.03-12.57 2.69-12.57 2.69l-7.67-.05c-.47-.86-2.59-4.3-4.77-4.32-2.59.1-4.4 4.37-4.4 4.37h-17.34s-.6 4.44 8.2 5.3a10.53 10.53 0 0 0 5.23 3.97c-1.15.96-1.47 2.12-1.47 3.67z"/>
    <path fill="none" stroke="#000" stroke-width=".81" d="M416.55 410.2l15.53-.06m-22.64-9.1s1.24 7.27 6.98 9"/>
    <path fill="url(#l)" fill-rule="evenodd" stroke="#000" stroke-width=".81" d="M814.5 330.27c.57-2.77 1.63-3.25 2.77-6.79.2-3.44-2.77-3.06-1.91-5.25 1.53-2.4.77-4.69-2.1-6.5.57 3.15-3.73 6.11-3.73 8.7 0 2.58 2.2 2 1.91 5.92.2 2.3-.57 1.72-.76 3.92h3.82z" transform="translate(-406.02 70.68)"/>
    <path fill="#f7c600" fill-rule="evenodd" stroke="#000" stroke-width=".81" d="M427.2 383.73a2.2 2.2 0 1 1-4.4 0 2.2 2.2 0 0 1 4.4 0z"/>
    <path fill="none" stroke="#f7c600" stroke-width="1.72" d="M412.76 365.96l12.03-17.67 12.09 17.7"/>
    <path fill="#f7c600" fill-rule="evenodd" stroke="#000" stroke-width=".81" d="M427.2 359.35a2.39 2.39 0 1 1-4.77 0 2.39 2.39 0 0 1 4.78 0z"/>
    <path fill="#f7c600" fill-rule="evenodd" stroke="#000" stroke-width=".81" d="M415.02 379l18.65.06s.3-2.42-1.95-3.89c9.77-1.34 7.23-9.96 15.41-10.45 1.59.25-4.27 3.67-4.27 3.67s-4.93 3.48-2.69 5.25c1.79 1.4 2.57-.86 2.81-2.57.24-1.7 7.94-2.8 6.84-7.69-1.83-4.03-12.58 2.69-12.58 2.69l-7.66-.04c-.48-.86-2.6-4.31-4.77-4.33-2.6.1-4.41 4.37-4.41 4.37h-17.34s-.6 4.45 8.2 5.3a10.54 10.54 0 0 0 5.23 3.98c-1.15.95-1.47 2.1-1.47 3.66z"/>
    <path fill="none" stroke="#000" stroke-width=".81" d="M416.37 375.22l15.53-.05m-22.65-9.11s1.24 7.26 6.98 8.98"/>
    <path fill="url(#m)" fill-rule="evenodd" stroke="#000" stroke-width=".63" d="M66.32 170.54c.45-2.15 1.26-2.52 2.15-5.27.15-2.67-2.15-2.37-1.48-4.08 1.18-1.85.6-3.63-1.63-5.04.44 2.45-2.9 4.75-2.9 6.75s1.7 1.56 1.49 4.6c.14 1.78-.45 1.33-.6 3.04h2.97z" transform="translate(322.85 146.25) scale(1.2884)"/>
    <path fill="#f7c600" fill-rule="evenodd" stroke="#000" stroke-width=".81" d="M427.01 348.74a2.2 2.2 0 1 1-4.4 0 2.2 2.2 0 0 1 4.4 0z"/>
    <path fill="none" stroke="#f7c600" stroke-width="1.72" d="M311.14 333.44l12.03-17.66 12.09 17.7"/>
    <path fill="#f7c600" fill-rule="evenodd" stroke="#000" stroke-width=".81" d="M325.59 326.83a2.39 2.39 0 1 1-4.78 0 2.39 2.39 0 0 1 4.78 0z"/>
    <path fill="#f7c600" fill-rule="evenodd" stroke="#000" stroke-width=".81" d="M313.4 346.5l18.65.05s.3-2.42-1.95-3.9c9.77-1.33 7.23-9.95 15.41-10.44 1.59.25-4.27 3.66-4.27 3.66s-4.93 3.48-2.69 5.25c1.79 1.4 2.57-.85 2.81-2.56.24-1.71 7.94-2.8 6.84-7.7-1.83-4.02-12.58 2.7-12.58 2.7l-7.66-.05c-.48-.86-2.6-4.3-4.77-4.32-2.6.09-4.41 4.36-4.41 4.36h-17.34s-.6 4.45 8.2 5.3a10.54 10.54 0 0 0 5.23 3.98c-1.15.96-1.47 2.12-1.47 3.67z"/>
    <path fill="none" stroke="#000" stroke-width=".81" d="M314.75 342.7l15.53-.05m-22.65-9.1s1.24 7.26 6.98 8.98"/>
    <path fill="url(#n)" fill-rule="evenodd" stroke="#000" stroke-width=".63" d="M66.32 170.54c.45-2.15 1.26-2.52 2.15-5.27.15-2.67-2.15-2.37-1.48-4.08 1.18-1.85.6-3.63-1.63-5.04.44 2.45-2.9 4.75-2.9 6.75s1.7 1.56 1.49 4.6c.14 1.78-.45 1.33-.6 3.04h2.97z" transform="translate(221.23 113.73) scale(1.2884)"/>
    <path fill="#f7c600" fill-rule="evenodd" stroke="#000" stroke-width=".81" d="M325.4 316.22a2.2 2.2 0 1 1-4.4 0 2.2 2.2 0 0 1 4.4 0z"/>
    <g stroke="#000">
      <path fill="#f7c600" fill-rule="evenodd" stroke-width=".81" d="M375.5 417.4s4.87 11.22 10.4 4.33 3.52-9.87 3.52-9.87L377 405.1l-3.65 7.7 2.16 4.6z"/>
      <path fill="#ffc6b5" fill-rule="evenodd" stroke-width=".81" d="M386.18 415.92s.81.14 1.49-1.08-1.49-1.76-2.43-3.1l-1.09 2.15 2.03 2.03zm-28.12-2.97l-10.95 5.94s-5.4 1.09-5.81 0c-.41-1.08.13-2.02 2.97-2.16 2.84-.13 10.54-7.16 10.54-7.16l3.25 3.38zm.14-194.51l.4 3.92c.13 1.36-2.16 4.19-2.3 4.05s-1.21.14-1.08.95 1.76 1.08 1.76 1.08-.68 2.84 0 2.97c.68.14-1.76 3.65 0 4.6 1.76.94 4.73 2.16 6.08 1.89 1.36-.27 0 5.27 0 5.27l-3.78 8.11 20.82-2.16-4.33-6.9s-2.03-1.35-1.49-5.27c.54-3.92-.27-21.62-.27-21.62l-14.87-2.03-.94 5.14zm-3.79 30.82s-6.76 3.1-6.49 11.48c-1.75 8.11-2.7 16.22-2.7 16.22s-7.98 9.06-10.4 12.3c-2.44 3.25-6.1 9.87-7.44 11.63s-6.63 7.57-6.5 9.73c.14 2.16-1.2 11.76 4.06 12.84 1.36.54 5.68-11.08 5.68-11.08s.27-5-1.22-5.95 3.25-4.19 3.25-4.19 9.05-6.62 11.08-8.24 7.57-7.84 7.57-7.84l3.11-36.9z"/>
      <path fill="#fff" fill-rule="evenodd" stroke-width=".81" d="M362.12 242.9s1.75 4.73 5.67 3.92c3.92-.81 8.52-4.46 8.52-4.46s3.65-.13 4.19.4c.54.55 9.87 9.6 9.6 12.44-.28 2.84-4.33 2.03-5.82 3.92s-3.92 6.62-3.24 10.14 2.7 8.1 2.43 9.87-1.76 2.3-1.76 3.24c0 .95 1.22 2.57 1.22 4.33s-1.62 4.32-1.35 6.08c.27 1.76.4 6.9.4 6.9l-.4 23.78s1.35.81 1.49 2.17c.13 1.35 9.19 40.68 9.19 40.68s-.4 1.22-1.35 1.08 3.65 6.08 3.78 7.84 4.73 15.55 4.6 17.44c-.14 1.9-.82 6.08-1.22 6.22-.4.13 2.97 8.65 2.43 10-.54 1.35-6.08 1.21-6.08 1.21l-1.49-.27s.14 1.76-.94 1.9-9.06-.4-9.06-.4-2.3 3.5-3.65 3.37c-1.35-.13-3.1-2.57-3.51-2.16-.4.4 1.21 2.7.8 3.38-.4.67-7.3 2.16-8.64-1.08-1.36-3.25.8-2.44.4-3.11-.4-.68-3.51-2.44-4.46-1.9s2.43 1.36 2.3 2.7c-.14 1.36-2.97 3.39-4.06 3.39s-3.65-5-7.43-4.46-6.22 1.48-6.22 1.48-4.46 1.9-6.35 1.5c-1.9-.41-2.7-1.9-2.7-2.71s1.35-4.33 1.21-5.4-1.21-2.17-1.21-3.8c0-1.62 3.1-7.16 3.1-7.16l-.13-24.87s-2.84 0-2.97-1.76 4.32-39.33 5-41.76c.67-2.44 2.43-11.09 2.43-11.09s-2.03.95-2.16 0 6.08-22.43 6.08-22.43 1.08-10.68 1.08-13.52-.54-6.76-.54-6.76-5.55-2.35-5.68-5.95c-.5-5.72 5.28-8.92 5.95-10.81l2.7-7.57s2.98-5.14 7.84-5.95z"/>
      <path fill="#f7c600" fill-rule="evenodd" stroke-width=".81" d="M360.1 414.57s-13.12 6.9-15.01 7.43c-1.9.54-3.11-2.3-1.22-2.83 1.9-.54 4.87-.82 4.87-.82s-4.46-3.51-4.33-3.65c.14-.13 6.08-2.3 6.22-2.3s1.9 3.52 3.11 3.25 4.73-2.97 4.73-2.97 1.9 2.16 1.62 1.89z"/>
      <path fill="#ffc6b5" fill-rule="evenodd" stroke-width=".81" d="M378.57 418.34c1.24 1.6 1.72 4.38 4.56 2.75 2.84-1.62-1.45-4.63-1.45-4.63l-3.11 1.88z"/>
      <path fill="#ffc6b5" fill-rule="evenodd" stroke-width=".81" d="M383.75 418.07s1.35 1.09 2.57-.13-2.44-3.79-2.44-3.79l-1.75 2.03 1.62 1.9z"/>
      <path fill="none" stroke-width=".81" d="M379.69 248.17s-12.03 7.7-11.76 10.41m14.46-9.06s-2.7 2.98-2.83 2.98m6.48.27s-5.95 4.86-5 7.97m-23.11-13.24s-1.76 3.65-1.35 4.86c.4 1.22 3.37 5.82 3.78 8.65.4 2.84 0 4.87 0 4.87m-5.54-11.63s.54 4.33 1.35 5.14c.81.81 2.98 4.46 3.25 5.95m-5.68 6.9s3.51 1.75 6.76-5m5.26-4.74c-.13 0-2.57 6.62 1.76 9.06s7.57 2.16 9.46 1.48c1.9-.67 3.92-1.89 3.92-1.89m-17.02-.54s.27 8.92 13.38 17.7M364.42 279s-.13 7.84 5 11.36m-7.7-20.55s-3.93 11.62-7.03 12.84m5.8-4.32s-.13 8.38-1.22 11.35m-1.07 2.03s2.7 3.38 5.67 3.1c2.98-.26 4.2-3.78 6.22-3.24 2.03.54 3.92 2.17 8.65 1.76m-6.76 3.51s0 6.9 1.22 7.57.68 7.03.68 7.03m-18.39-17.84s-.13 6.49-.94 8.79c-.81 2.3-2.44 6.21-2.17 9.6m-5.13 3.78c.67-.27 2.97-2.3 2.97-2.3m1.21 1.49s-5.8 24.87-4.19 39.74m5.55-38.53s-2.98 18.65-1.63 22.17m.14-22.71l11.36.81m1.62-1.48s3.1 1.62 7.43 1.35m-8.78 7.7s-.54 31.9-1.36 38.94m17.99-31.64s3.51 27.98 5.54 30.55m-12.3-27.03s2.16 24.73 3.38 26.9m-34.06 8.64s4.19-1.35 7.97-5.4c4.33 5.81 10.95.27 10.95.27s10.27 7.03 14.87-.81c7.03 4.6 10.54-.68 10.54-.68s2.57 3.92 4.46 3.51m-11.22 2.71s5.27 24.74 13.1 31.77m-40.27-34.34s.67 20.68 1.89 35.28m-2.84-11.9s-.67 13.52-1.48 14.47m-6.49 1.35s1.49 5.82 8.92.41c7.44-5.4 7.57 2.03 7.84 2.84.27.8 1.49 6.62 4.33 1.76m5.94-7.98s-1.22 12.03 9.46 3.24c10.68-8.78 12.44-.13 12.7 2.57"/>
      <path fill="#9c5100" fill-rule="evenodd" stroke-width=".81" d="M357.79 217.62s2.97.41 4.6-.54c1.61-.94 3.5-1.35 4.86.54s2.3 1.76 2.3 1.76-2.03 5 0 5.54c2.02.54 2.97.54 3.1 1.22.14.68-1.75 2.16-1.21 2.84.54.67 1.49 1.49 1.62 2.03.14.54-1.22 2.84-.81 3.38.4.54 1.62 2.7 2.43 2.7s.27 3.38 2.7 2.57 2.3-2.98 2.3-2.98 2.57-.4 3.25-2.7c.67-2.3 2.3-2.84 2.3-2.84s3.24-1.76-1.09-4.46c0-18.92-12.43-16.9-12.43-16.9s-1.49-3.37-3.92-2.97c-2.43.4-2.57 3.25-4.33 2.98-1.75-.27-2.16-1.5-2.3-1.36-.13.14-1.62 2.84-1.62 3.52 0 .67-4.73-.95-4.32 2.57s2.7 3.38 2.57 3.1z"/>
      <path fill="none" stroke-width=".81" d="M370.77 213.03s-.94 5.95 5.4 5.4c-.8 3.25 1.63 4.33 1.63 4.33m4.72 3.65c.14 0 2.84 1.76-.13 3.92m-9.05.81s1.35 1.62 2.84 1.22c1.48-.4 3.92 1.48 3.92 1.48s2.02.68 2.3.27m-17.31 2.17s4.6 1.75 7.57-5.54m-16.09-2.17l2.7.14"/>
      <path fill="none" stroke-linejoin="round" stroke-width=".81" d="M356.99 231.28h2.43l-2.16.94"/>
      <path fill="none" stroke-linejoin="round" stroke-width="1.45" d="M360.36 223.7c.4 0 1.9-.53 2.17-.13s-1.63.68-2.17.14z"/>
      <path fill="#ffc6b5" fill-rule="evenodd" stroke-width=".81" d="M389.56 255.82c.13 0 4.46 13.38 5 16.76.54 3.38 2.3 16.9 1.62 18.8-.67 1.88-7.57 10.94-8.38 13.24-.81 2.3-5.68 11.08-5.68 11.08s-1.21 8.65-1.75 9.06c-.54.4 1.4 2.53 1.21 3.24-.27.8-3.92 4.6-5.54 4.2-1.62-.41-4.19-2.3-4.32-4.06s.13-7.57 1.35-9.06 7.57-16.49 7.97-17.44c.4-.94 5.81-12.7 5.95-14.73.13-2.03-1.68-6.72-3.6-8.44-4.25-12.52-2.58-20.07 6.17-22.65z"/>
      <path fill="none" stroke-width=".81" d="M326.58 313.82l.21 5.92m-5.76-6.36s3.8 6.35 3.48 9.73"/>
      <path fill="none" stroke-linejoin="round" stroke-width=".81" d="M371.93 326.65s2.84-.3 2.75 4.44c1.82-5.89 5.5-6.03 5.5-6.03"/>
    </g>
    <path fill="#f7c600" fill-rule="evenodd" stroke="#000" stroke-width="1.72" d="M362.23 462c57.09-1.59 93.95-42.82 93.56-43.21-.4-.4 7.53-11.5 13.87-9.91 6.35 1.58 15.46 20.21 26.56 24.18 5.55 8.72-1.58 16.65-3.96 18.23-2.38 1.59-13.08 5.95-14.67-.4-1.58-6.34-4.76-5.15-4.76-5.15s-50.74 49.56-109.4 47.57c-60.66.4-110.6-47.57-110.6-47.57l-4.37 4.76s-4.76 5.16-7.13 4.76c-2.38-.4-12.69-7.14-13.48-13.88-.8-6.74 6.34-11.1 6.34-11.1s17.44-13.48 19.43-20.6c3.96-3.97 11.5 2.76 11.5 2.76s45.98 52.73 97.12 49.56z"/>
    <path fill="none" stroke="#000" stroke-width="1.72" d="M233 431.34s4.72-1.26 6.45.7c1.73 1.97 13.6 13.6 13.6 13.6"/>
    <path fill="none" stroke="#000" stroke-width="1.72" d="M243.77 436.84l-4.72 3.54s11.87 2.35 9.2 10.14m243.72-19.58s-2.36-1.26-6.05 1.5c-3.7 2.74-13.05 13.2-13.05 13.2"/>
    <path fill="none" stroke="#000" stroke-width="1.72" d="M481.36 436.53l5.11 3.93s-10.7.7-8.33 10.85"/>
    <path d="M293.43 443.92l-.34.48a3.52 3.52 0 0 0-2.46-.2c-.67.18-1.94.8-3.8 1.9l-15.72 9.16-.43-.3 3.96-18.37c.48-2.21.7-3.56.66-4.03-.04-.47-.37-.99-1-1.56l.35-.48 8.46 6.04-.34.48-.29-.2c-.76-.55-1.35-.82-1.77-.83a.79.79 0 0 0-.7.36 2.32 2.32 0 0 0-.3.63c-.08.26-.25 1-.51 2.21l-2.5 11.48 9.07-5.34c1.09-.65 1.8-1.1 2.12-1.35.33-.26.57-.5.73-.72.18-.26.28-.54.28-.84 0-.3-.09-.6-.28-.9a5.07 5.07 0 0 0-1.33-1.27l.34-.49 5.8 4.14m5.64 27.3l-.28.51-9.96-5.44.29-.52.63.34a3 3 0 0 0 1.5.44c.3 0 .62-.12.92-.37.23-.17.6-.73 1.13-1.68l6.84-12.52c.54-.98.82-1.61.85-1.91.03-.3-.07-.63-.29-.98-.2-.36-.57-.68-1.1-.97l-.64-.35.28-.52 9.96 5.45-.29.52-.63-.35a3.01 3.01 0 0 0-1.5-.43c-.3 0-.62.11-.94.35-.22.17-.6.73-1.12 1.69L297.87 467a7.13 7.13 0 0 0-.84 1.91c-.02.3.07.64.28.99.22.35.6.68 1.13.97l.63.34m36.36-8.53l-2.56 7.2-.56-.19a9.74 9.74 0 0 0-1.43-5.57A7.56 7.56 0 0 0 327 461a6.02 6.02 0 0 0-4.28-.06 7.35 7.35 0 0 0-3.43 2.82 18.9 18.9 0 0 0-2.32 4.5c-.7 1.96-1.08 3.76-1.14 5.4s.3 3 1.07 4.05a6.84 6.84 0 0 0 3.3 2.35 8.3 8.3 0 0 0 1.57.4 12 12 0 0 0 1.76.1l1.52-4.26c.28-.8.41-1.34.38-1.6a1.6 1.6 0 0 0-.46-.9 2.68 2.68 0 0 0-1.15-.74l-.53-.18.2-.56 9.94 3.54-.2.55a4.55 4.55 0 0 0-1.7-.24c-.34.04-.66.22-.95.52-.16.16-.37.61-.63 1.36l-1.52 4.25a22.21 22.21 0 0 1-9.1-1.25 13.7 13.7 0 0 1-4.56-2.51 13.22 13.22 0 0 1-2.65-3.3 10.57 10.57 0 0 1-1.25-3.72c-.21-1.63-.01-3.31.6-5.03 1.1-3.07 3.1-5.29 6.02-6.64a11.85 11.85 0 0 1 9.29-.27c1.01.36 1.9.76 2.65 1.21.42.24 1.05.73 1.9 1.46a9.76 9.76 0 0 0 1.56 1.19c.28.1.58.09.9-.03.3-.12.67-.43 1.07-.94l.56.2m15.32 24.59l-.09.59-11.22-1.7.1-.59.7.1a3 3 0 0 0 1.56-.1c.3-.1.54-.32.75-.66.15-.23.3-.89.47-1.97l2.14-14.1c.17-1.1.21-1.8.14-2.09-.08-.3-.28-.56-.6-.82a2.78 2.78 0 0 0-1.38-.53l-.71-.1.08-.6 11.22 1.7-.09.59-.71-.1a2.99 2.99 0 0 0-1.55.1c-.3.1-.55.32-.77.66-.15.23-.31.89-.47 1.97l-2.14 14.1a7.17 7.17 0 0 0-.14 2.09c.09.3.29.57.6.83.33.26.8.43 1.4.52l.7.11m29.12-7.07l-.42 7.65-19.24.98-.03-.6.72-.03a3 3 0 0 0 1.5-.41c.27-.17.47-.43.6-.8.1-.26.13-.94.07-2.02l-.73-14.26a7.13 7.13 0 0 0-.28-2.07c-.13-.27-.38-.5-.75-.68-.37-.2-.85-.28-1.46-.24l-.72.03-.03-.59 11.55-.59.03.6-.94.04a3 3 0 0 0-1.5.41c-.27.17-.47.43-.61.8-.1.27-.13.94-.08 2.03l.7 13.8c.06 1.11.16 1.82.3 2.12.15.29.41.5.8.63.26.08.91.1 1.93.05l1.8-.1a6.12 6.12 0 0 0 2.85-.75 5.31 5.31 0 0 0 1.89-2.02c.52-.9.98-2.22 1.4-3.95l.65-.03m21.05-3.65l-7.35 2.2-.26 2.28a4.7 4.7 0 0 0 .07 1.8c.17.58.53.94 1.09 1.07.32.08 1.04 0 2.14-.24l.17.57-6.91 2.06-.17-.56a3.25 3.25 0 0 0 1.57-1.47c.32-.66.6-1.88.83-3.68l2.48-18.8.3-.1 12.59 14.82c1.2 1.4 2.08 2.24 2.67 2.52.44.21.99.25 1.64.11l.17.57-10.06 3-.17-.56.41-.13c.81-.24 1.34-.52 1.6-.84.18-.23.22-.5.13-.8a1.96 1.96 0 0 0-.26-.55c-.05-.08-.32-.42-.8-1.01l-1.88-2.26m-.86-.98l-5.24-6.23-1.05 8.1 6.29-1.87m27.72-28.25l2.78 5.17-.5.27a9.12 9.12 0 0 0-2.38-2.03 4.34 4.34 0 0 0-2.18-.44c-.45.02-1.12.27-2.02.75l-1.42.77 7.93 14.74c.52.98.9 1.56 1.14 1.75.24.18.57.29.98.3.41.01.9-.13 1.44-.42l.63-.34.28.52-10 5.38-.28-.52.63-.34a3 3 0 0 0 1.18-1.02c.17-.26.25-.6.22-.99a6.6 6.6 0 0 0-.8-1.86l-7.93-14.74-1.38.74c-1.29.7-2.08 1.47-2.37 2.33-.4 1.2-.34 2.56.2 4.09l-.53.29-2.78-5.18 17.16-9.22m13.02-7.72l5.32 7.05.34-.26c1.1-.83 1.63-1.77 1.6-2.84s-.47-2.31-1.35-3.76l.49-.37 6.84 9.07-.49.37a8.38 8.38 0 0 0-2.48-1.94c-.8-.38-1.5-.52-2.1-.4-.6.1-1.3.47-2.13 1.09l3.68 4.88c.72.95 1.2 1.5 1.43 1.66.25.15.53.2.86.18.32-.03.73-.23 1.23-.6l1.03-.79c1.62-1.22 2.63-2.57 3.04-4.05a7.82 7.82 0 0 0-.48-5.01l.47-.36 3.38 6.1-14.97 11.29-.36-.48.57-.43a3 3 0 0 0 1.02-1.18c.13-.3.14-.62.04-1a6.58 6.58 0 0 0-1.07-1.72l-8.6-11.4c-.58-.78-.97-1.24-1.15-1.39a1.53 1.53 0 0 0-.99-.33c-.5 0-1.04.22-1.6.64l-.57.44-.36-.48 14.5-10.93 3.86 5.12-.48.37c-1.2-1.07-2.22-1.7-3.08-1.9a4.8 4.8 0 0 0-2.8.22c-.6.2-1.54.8-2.86 1.8l-1.78 1.34"/>
    <path fill="none" d="M258.4 445.55c70.9 57.51 140.41 58.57 208.41 0"/>
  </g>
</svg>
