<?xml version="1.0" encoding="utf-8"?>
<!-- Generator: Adobe Illustrator 16.0.0, SVG Export Plug-In . SVG Version: 6.00 Build 0)  -->
<!DOCTYPE svg PUBLIC "-//W3C//DTD SVG 1.1//EN" "http://www.w3.org/Graphics/SVG/1.1/DTD/svg11.dtd">
<svg version="1.1"
	 id="svg559" xmlns:rdf="http://www.w3.org/1999/02/22-rdf-syntax-ns#" xmlns:cc="http://creativecommons.org/ns#" xmlns:dc="http://purl.org/dc/elements/1.1/"
	 xmlns="http://www.w3.org/2000/svg" xmlns:xlink="http://www.w3.org/1999/xlink" x="0px" y="0px" width="512px" height="512px"
	 viewBox="0 0 512 512" enable-background="new 0 0 512 512" xml:space="preserve">
<rect y="0" fill="#FFFFFF" width="512" height="512"/>
<g>
	<g>
		<path fill="#188400" stroke="#000000" stroke-width="1.4955" stroke-linecap="round" stroke-linejoin="round" d="M202.884,369.151
			l9.8-8.541c0,0-2.159-4.706-9.966-4.532c-7.308-5.402-19.931-18.127-19.931-18.127l-6.312-17.952c0,0,5.149-1.568,6.312-5.926
			c1.162-4.357-0.333-9.761-0.831-10.283c-0.499-0.523-5.646,0.871-7.142,3.137c-1.495,2.268-3.821,10.981-7.309,8.019
			c-3.488-2.963,0.499-6.274,0.499-6.274s3.488-4.532,3.321-6.973c-0.166-2.439-4.649-9.76-5.149-9.934
			c-0.499-0.174-1.494,9.585-2.823,10.632c-1.329,1.047-3.155,5.403-5.814,2.964c-2.657-2.44,1.329-6.102,1.329-6.102
			s7.474-4.183,0.166-17.952c-2.159,5.927-6.311,9.761-6.311,9.761s-1.994,3.66-3.82,0.522c-1.828-3.138,2.159-6.101,2.159-6.101
			s6.477-4.01,6.644-9.935c0.166-5.926-7.807-12.725-7.807-12.725s-0.497,10.981-2.989,12.377c-2.492,1.394-3.488,3.659-6.312,1.219
			c-2.824-2.44,2.159-7.843,2.159-7.843s8.637-9.064,8.139-14.293c-0.499-5.229-0.998-6.1-0.998-6.1s-6.478,4.184-7.307,6.275
			c-0.831,2.092-3.488,9.586-6.811,7.321c-2.326-2.789,1.994-8.193,1.994-8.193s3.156-3.659,2.99-5.229
			c-0.166-1.569-2.657-6.274-7.475-10.806c-0.665-1.395-0.997-6.973-0.997-6.973s-3.653,4.533-3.487,6.973
			c0.166,2.439-0.333,7.32,0.166,12.724c0.498,5.402-3.987-1.744-3.987-1.744l0.831-17.429c0,0-6.312-8.018-13.952-10.98
			c2.824,4.357,2.657,8.54,2.657,8.54s-3.156,7.146-3.156,9.063s3.654,10.284,10.464,15.86
			c-10.298-11.677-23.087-7.843-26.908-10.109c1.827,2.266,7.309,10.807,6.645,13.073c-0.665,2.266,9.799,6.972,9.799,6.972
			l11.128,0.175c0,0,5.481,4.008,5.979,6.622c0.499,2.615-7.972-4.881-11.294-4.705c-3.322,0.174-12.125-1.22-12.125-1.22
			s5.315,5.229,5.48,7.494c0.167,2.267,2.492,7.495,5.647,8.89c3.156,1.394,11.626,1.918,11.626,1.918s3.654-2.267,4.319,0.174
			c0.664,2.438-4.816,4.358-4.816,4.358s-5.647,0-7.475-1.57c-1.828-1.568-2.16-4.184-10.297-5.229
			c-0.831,7.147,4.484,14.468,4.484,14.468s22.423-1.918,22.256,3.138c-0.166,5.054-18.603,0.522-19.267-1.048
			c-0.665-1.567,0.831,9.936,5.149,12.375c4.318,2.44,13.953,1.222,15.115,0.698c1.163-0.522,5.481-1.046,5.481,1.569
			s-21.925,4.706-22.256,4.009c-0.333-0.698,3.322,8.89,12.125,8.366c8.803-0.523,12.623-3.312,12.623-3.312s5.315-1.048,5.813,1.22
			c0.499,2.266-5.315,3.312-5.315,3.312s-13.952,0.349-14.45-0.349c-0.499-0.697,3.156,9.237,12.956,9.063
			c7.308-0.698,7.806-4.01,9.301-4.532c2.159-0.522,6.81-0.522,7.475-0.348c0.664,0.174,12.291,8.713,12.291,8.713L202.884,369.151
			L202.884,369.151z"/>
		<path fill="#188400" stroke="#000000" stroke-width="1.4955" stroke-linecap="round" stroke-linejoin="round" d="M117.181,231.456
			c0,0-0.333,16.732,7.64,21.788"/>
		<path fill="#188400" stroke="#000000" stroke-width="1.4955" stroke-linecap="round" stroke-linejoin="round" d="M133.956,244.702
			c0,0,5.315,8.541-3.654,11.678"/>
		<path fill="#188400" stroke="#000000" stroke-width="1.4955" stroke-linecap="round" stroke-linejoin="round" d="M106.384,250.454
			c0,0-0.664,9.585,15.447,8.889"/>
		<path fill="#188400" stroke="#000000" stroke-width="1.4955" stroke-linecap="round" stroke-linejoin="round" d="M146.247,258.821
			c0,0-2.657,6.797-9.135,6.448"/>
		<path fill="#188400" stroke="#000000" stroke-width="1.4955" stroke-linecap="round" stroke-linejoin="round" d="M152.226,274.158
			c0,0.871,1.163,10.109-7.308,9.935"/>
		<path fill="#188400" stroke="#000000" stroke-width="1.4955" stroke-linecap="round" stroke-linejoin="round" d="M111.699,270.323
			c0,0,10.63,6.973,15.447,6.45"/>
		<path fill="#188400" stroke="#000000" stroke-width="1.4955" stroke-linecap="round" stroke-linejoin="round" d="M114.024,287.231
			c0,0,4.983,5.577,14.118,4.182"/>
		<path fill="#188400" stroke="#000000" stroke-width="1.4955" stroke-linecap="round" stroke-linejoin="round" d="M157.873,291.066
			c0,0.698-1.66,6.101-5.315,6.799"/>
		<path fill="#188400" stroke="#000000" stroke-width="1.4955" stroke-linecap="round" stroke-linejoin="round" d="M122.329,303.442
			c0,0,3.987,5.402,14.45,2.44"/>
		<path fill="#188400" stroke="#000000" stroke-width="1.4955" stroke-linecap="round" stroke-linejoin="round" d="M167.838,301.174
			c0,0-1.661,8.541-5.979,8.715"/>
		<path fill="#188400" stroke="#000000" stroke-width="1.4955" stroke-linecap="round" stroke-linejoin="round" d="M177.97,310.412
			c0,0-3.322,10.284-11.792,8.715"/>
		<path fill="#188400" stroke="#000000" stroke-width="1.4955" stroke-linecap="round" stroke-linejoin="round" d="M138.938,328.713
			c0,0,3.322,3.138,11.46-0.697"/>
		<path fill="#188400" stroke="#000000" stroke-width="1.4955" stroke-linecap="round" stroke-linejoin="round" d="M129.804,318.255
			c0.664,0,4.816,3.661,14.782-1.916"/>
		<path fill="#188400" stroke="#000000" stroke-width="1.4955" stroke-linecap="round" stroke-linejoin="round" d="M202.868,356.342
			c0,0-6.206,2.915-0.185,12.732"/>
	</g>
	<g>
		<path fill="#00CEDE" stroke="#000000" stroke-width="1.4955" d="M395.46,234.167c0,0-3.167,47.494-3.32,47.384
			c-0.153-0.107-6.604-8.296-6.604-8.296l-19.913,65.508l4.653,14.289l-11.593,39.891l-9.56-12.727l-15.446,6.518l12.397-42.014
			l11.454-8.637l20.626-64.534l-11.447,1.504L395.46,234.167L395.46,234.167z"/>
		<path fill="#00CEDE" stroke="#000000" stroke-width="1.4955" d="M439.465,253.756c0,0-24.084,40.349-24.171,40.177
			c-0.088-0.173-2.11-10.583-2.11-10.583l-39.574,38.522l-42.259,42.789l-0.116-8.813l-14.461-1.874l19.127-15.355l9.794-1.694
			l61.741-58.724l-10.775-4.323L439.465,253.756L439.465,253.756z"/>
		<path fill="#00CEDE" stroke="#000000" stroke-width="1.5272" d="M331.379,355.779c0.263-0.572,21.974-20.039,21.974-20.039"/>
		<path fill="#00CEDE" stroke="#000000" stroke-width="1.4955" d="M426.597,219.623c0,0-11.771,45.98-11.901,45.842
			c-0.131-0.136-4.97-9.47-4.97-9.47l-47.74,86.059l1.962,14.96l-17.134,32.941l-7.063-14.412l-16.348,3.294l18.31-34.862
			l12.819-6.176l48.261-84.96l-11.509-0.823L426.597,219.623L426.597,219.623z"/>
		<path fill="#00CEDE" stroke="#000000" stroke-width="1.4955" d="M340.014,374.994c0-0.274,16.479-30.47,16.479-30.47"/>
	</g>
	<g>
		<g id="wing">
			<path fill="#FFD600" stroke="#000000" stroke-width="1.496" stroke-linecap="round" stroke-linejoin="round" d="M204.28,213.176
				c0,0-10.689,12.069-16.035,3.061c-5.345-9.007,7.45-11.558,7.612-11.729c0.163-0.169,7.451-2.549,8.098-16.657
				c0.648-14.107-16.035-23.286-20.732-24.476c-4.697-1.19-18.464-1.19-18.464-1.19s-50.372-12.748-55.555-16.657
				c-5.183-3.91-52.802-13.087-52.802-13.087s-7.612-1.02-6.964,6.119c0.648,7.139,6.964,7.988,6.964,7.988
				s-5.345,4.418-4.698,8.329c0.648,3.909,4.698,10.198,13.12,9.179c-0.972,13.937,17.493,16.147,17.493,16.147
				s1.943,20.056,18.951,19.037c4.049,13.767,19.273,14.278,19.273,14.278s7.127,9.349,17.493,10.028
				c5.992,15.637,18.95,11.218,18.95,11.218s-0.972,9.858,5.021,9.858c-3.078,11.219,8.421,12.748,12.795,10.538
				c1.134,2.379,5.021,9.688,13.929,5.1c5.345,8.33,14.092,4.42,14.092,4.42s1.943,6.629,9.556,4.078
				C219.991,266.206,204.118,213.516,204.28,213.176L204.28,213.176z"/>
			<path fill="#FFD600" stroke="#000000" stroke-width="1.4955" stroke-linecap="round" stroke-linejoin="round" d="
				M171.238,172.044c0,0,11.824,1.361,10.366,20.566"/>
			<path fill="#FFD600" stroke="#000000" stroke-width="1.4955" stroke-linecap="round" stroke-linejoin="round" d="
				M126.212,152.158c0,0-22.676,16.317,19.761,21.416"/>
			<path fill="#FFD600" stroke="#000000" stroke-width="1.4955" stroke-linecap="round" stroke-linejoin="round" d="M132.69,171.364
				c-0.161,0.34-10.689,13.428,8.747,17.337c-9.232,9.179,8.098,12.237,8.098,12.237s-3.563,9.688,6.803,12.237
				c-3.401,10.029,7.774,9.52,7.774,9.52s0.324,12.237,13.605,12.068c-0.163,8.33,9.07,8.839,9.07,8.839s2.754,9.007,11.661,6.289
				c0.972,6.288,7.126,4.929,7.126,4.929"/>
			<path fill="#FFD600" stroke="#000000" stroke-width="1.4955" stroke-linecap="round" stroke-linejoin="round" d="
				M202.985,264.847c0,0,0.486-8.668-1.458-10.368"/>
			<path fill="#FFD600" stroke="#000000" stroke-width="1.4955" stroke-linecap="round" stroke-linejoin="round" d="
				M188.246,260.088c0.162-0.17,3.888-7.989,2.591-9.349"/>
			<path fill="#FFD600" stroke="#000000" stroke-width="1.4955" stroke-linecap="round" stroke-linejoin="round" d="M174.64,255.158
				l10.043-10.368"/>
			<path fill="#FFD600" stroke="#000000" stroke-width="1.4955" stroke-linecap="round" stroke-linejoin="round" d="M162.006,244.96
				c0.163-0.17,15.225-10.027,15.225-10.027"/>
			<path fill="#FFD600" stroke="#000000" stroke-width="1.4955" stroke-linecap="round" stroke-linejoin="round" d="
				M156.663,234.932c0.162-0.17,8.583-3.91,8.908-7.139"/>
			<path fill="#FFD600" stroke="#000000" stroke-width="1.4955" stroke-linecap="round" stroke-linejoin="round" d="
				M138.035,223.544c0,0,20.408,4.59,23.972-0.339"/>
			<path fill="#FFD600" stroke="#000000" stroke-width="1.4955" stroke-linecap="round" stroke-linejoin="round" d="
				M121.029,213.347c0.81,0,30.611,3.399,33.366-0.51"/>
			<path fill="#FFD600" stroke="#000000" stroke-width="1.4955" stroke-linecap="round" stroke-linejoin="round" d="
				M101.268,199.239c0.486-0.17,35.309,6.799,45.189,1.529"/>
			<path fill="#FFD600" stroke="#000000" stroke-width="1.4955" stroke-linecap="round" stroke-linejoin="round" d="M84.586,180.373
				c0.81,0,46.322,11.558,53.125,7.988"/>
			<path fill="#FFD600" stroke="#000000" stroke-width="1.4955" stroke-linecap="round" stroke-linejoin="round" d="M67.255,163.716
				c0.324,0,54.26,13.258,61.062,7.818"/>
			<path fill="#FFD600" stroke="#000000" stroke-width="1.4955" stroke-linecap="round" stroke-linejoin="round" d="M60.291,147.569
				c0.162,0,51.669,17.676,56.041,13.257"/>
		</g>
		<g transform="matrix(-1,0,0,1,789.25914,0.52320137)">
			<g id="wing_1_">
				<path fill="#FFD600" stroke="#000000" stroke-width="1.496" stroke-linecap="round" stroke-linejoin="round" d="
					M333.568,213.566c0,0,10.689,12.069,16.035,3.061c5.345-9.007-7.45-11.558-7.613-11.729c-0.162-0.169-7.451-2.549-8.098-16.657
					c-0.648-14.107,16.035-23.286,20.731-24.476c4.698-1.19,18.465-1.19,18.465-1.19s50.372-12.748,55.555-16.657
					c5.184-3.91,52.803-13.088,52.803-13.088s7.612-1.019,6.964,6.12c-0.647,7.139-6.964,7.988-6.964,7.988s5.345,4.419,4.697,8.329
					c-0.648,3.909-4.697,10.198-13.12,9.178c0.972,13.937-17.492,16.147-17.492,16.147s-1.943,20.056-18.951,19.037
					c-4.05,13.768-19.273,14.278-19.273,14.278s-7.127,9.349-17.493,10.028c-5.992,15.637-18.95,11.217-18.95,11.217
					s0.973,9.858-5.021,9.858c3.077,11.218-8.422,12.748-12.795,10.539c-1.134,2.378-5.021,9.688-13.93,5.099
					c-5.344,8.329-14.092,4.42-14.092,4.42s-1.943,6.629-9.556,4.078C317.856,266.596,333.729,213.906,333.568,213.566
					L333.568,213.566z"/>
				<path fill="#FFD600" stroke="#000000" stroke-width="1.4955" stroke-linecap="round" stroke-linejoin="round" d="
					M366.609,172.433c0,0-11.823,1.36-10.365,20.566"/>
				<path fill="#FFD600" stroke="#000000" stroke-width="1.4955" stroke-linecap="round" stroke-linejoin="round" d="
					M411.636,152.548c0,0,22.676,16.317-19.761,21.416"/>
				<path fill="#FFD600" stroke="#000000" stroke-width="1.4955" stroke-linecap="round" stroke-linejoin="round" d="
					M405.158,171.754c0.16,0.34,10.688,13.427-8.747,17.337c9.231,9.179-8.099,12.237-8.099,12.237s3.563,9.688-6.802,12.237
					c3.4,10.029-7.774,9.52-7.774,9.52s-0.324,12.237-13.606,12.068c0.163,8.329-9.07,8.839-9.07,8.839s-2.753,9.007-11.66,6.289
					c-0.973,6.288-7.127,4.928-7.127,4.928"/>
				<path fill="#FFD600" stroke="#000000" stroke-width="1.4955" stroke-linecap="round" stroke-linejoin="round" d="
					M334.863,265.237c0,0-0.485-8.668,1.458-10.368"/>
				<path fill="#FFD600" stroke="#000000" stroke-width="1.4955" stroke-linecap="round" stroke-linejoin="round" d="
					M349.603,260.478c-0.162-0.171-3.889-7.988-2.592-9.349"/>
				<path fill="#FFD600" stroke="#000000" stroke-width="1.4955" stroke-linecap="round" stroke-linejoin="round" d="
					M363.207,255.549l-10.042-10.369"/>
				<path fill="#FFD600" stroke="#000000" stroke-width="1.4955" stroke-linecap="round" stroke-linejoin="round" d="
					M375.842,245.35c-0.162-0.17-15.225-10.027-15.225-10.027"/>
				<path fill="#FFD600" stroke="#000000" stroke-width="1.4955" stroke-linecap="round" stroke-linejoin="round" d="
					M381.186,235.322c-0.163-0.171-8.584-3.91-8.908-7.139"/>
				<path fill="#FFD600" stroke="#000000" stroke-width="1.4955" stroke-linecap="round" stroke-linejoin="round" d="
					M399.813,223.933c0,0-20.408,4.591-23.971-0.339"/>
				<path fill="#FFD600" stroke="#000000" stroke-width="1.4955" stroke-linecap="round" stroke-linejoin="round" d="
					M416.819,213.737c-0.81,0-30.612,3.399-33.365-0.511"/>
				<path fill="#FFD600" stroke="#000000" stroke-width="1.4955" stroke-linecap="round" stroke-linejoin="round" d="
					M436.58,199.628c-0.487-0.171-35.309,6.799-45.188,1.529"/>
				<path fill="#FFD600" stroke="#000000" stroke-width="1.4955" stroke-linecap="round" stroke-linejoin="round" d="
					M453.262,180.761c-0.811,0-46.323,11.559-53.125,7.989"/>
				<path fill="#FFD600" stroke="#000000" stroke-width="1.4955" stroke-linecap="round" stroke-linejoin="round" d="
					M470.593,164.105c-0.323,0-54.26,13.258-61.062,7.818"/>
				<path fill="#FFD600" stroke="#000000" stroke-width="1.4955" stroke-linecap="round" stroke-linejoin="round" d="
					M477.557,147.958c-0.161,0-51.667,17.676-56.041,13.257"/>
			</g>
		</g>
		<g>
			<path fill="#FFD600" stroke="#000000" stroke-width="1.4955" d="M302.167,204.868c0-2.566-0.795-7.549-3.38-9.274
				c-3.318-1.811-3.318-2.926-3.584-5.293c-0.266-2.369,5.575-6.825,5.575-6.825s-5.31-2.508-7.301-2.229
				c-1.991,0.279-5.841,0.696-6.372,1.254c-0.53,0.558-3.451-10.029-1.593-11.701c1.859-1.672,5.707,3.9,5.707,3.9
				s2.521-6.128-6.371-17.83c3.053-22.844-17.257-28.138-21.902-27.999c-3.85-0.557-13.805,3.205-15.397,8.219
				c-5.045,1.81-5.31,6.407-5.31,6.407s-10.353,1.951-11.681,11.423c6.106-5.292,10.088,0.557,10.088,0.557s5.31,3.901,8.097,4.041
				s-2.655,9.75-4.247,11.422c-1.594,1.672-8.231,8.08-7.965,8.497c0.265,0.417,5.176,1.95,4.912,4.318
				c-0.267,2.368-15.133,9.612-14.336,11.423c3.849-1.254,6.851-0.288,6.851-0.288c0.537,3.955-0.965,8.508-3.526,9.983
				L302.167,204.868L302.167,204.868z"/>
			<path fill="#FFD600" stroke="#000000" stroke-width="1.495" d="M241.833,144.124l4.81,5.048c1.305,0.428,8.642,4.193,8.235,6.758
				"/>
			<path fill="#FFD600" stroke="#000000" stroke-width="1.495" stroke-linecap="round" d="M254.878,155.93
				c-0.407,2.566-5.218,3.85-5.218,3.85"/>
			<path fill="#FFD600" stroke="#000000" stroke-width="1.4955" d="M247.622,137.281l7.336,7.357c0,0,1.305,6.332,6.522,5.818
				c5.218-0.513,4.484-2.824,4.484-2.824s-6.276-4.619-11.25-3.508"/>
		</g>
		<g>
			<path fill="#FFD600" stroke="#000000" stroke-width="1.4955" d="M324.784,270.696c0,0,6.522,6.571,6.652,7.94
				c0.131,1.368,1.697,7.802,3.392,8.761c1.696,0.959,8.35,6.57,9.263,8.762c0.912,2.19,6.783,11.499,6.783,11.499
				s5.479,11.771,9.132,12.73c3.651,0.957,13.958-0.685,16.044,4.518c2.087,5.202,1.565,12.731,1.565,12.731
				s-2.479,2.328-3.652,0.958c-1.173-1.369-3.261,6.844-6.914,4.517c-4.975-11.116-17.996-9.302-17.996-9.302
				s2.864-4.66-8.746-8.768c-18.132,3.285-23.48-16.563-23.48-16.563l-10.321-9.394L324.784,270.696L324.784,270.696z"/>
			<path fill="#FFD600" stroke="#000000" stroke-width="1.4955" d="M314.348,298.895l8.088,3.971l-0.652-7.256"/>
			<path fill="#FFD600" stroke="#000000" stroke-width="1.4955" d="M325.827,297.8l7.436,3.833l-3-6.298"/>
			<path fill="#FFD600" stroke="#000000" stroke-width="1.4955" d="M325.437,287.534l7.305,4.107l-3.392-7.94"/>
			<path fill="#FFD600" stroke="#000000" stroke-width="1.4955" d="M337.045,325.179c0,0-8.349-11.499-8.218-11.499
				c0.132,0,14.219,2.874,14.219,2.874l-5.217-11.771l12.914,3.559"/>
			<path fill="#FFD600" stroke="#000000" stroke-width="1.4955" d="M361.049,326.958c0,0,8.218,1.916,7.957,16.29"/>
			<path fill="#FFD600" stroke="#000000" stroke-width="1.4955" d="M365.354,324.768c0,0,8.871-0.547,8.348,13.963"/>
		</g>
		<g>
			<path fill="#FFD600" stroke="#000000" stroke-width="1.4955" stroke-linecap="round" d="M212.368,272.476
				c0,0-6.522,6.572-6.652,7.94c-0.131,1.369-2.778,6.951-4.474,7.909c-1.696,0.959-7.538,7.138-8.45,9.33
				c-0.914,2.19-6.513,11.782-6.513,11.782s-6.426,9.785-10.078,10.743c-4.464,0.392-13.011,1.303-15.099,6.505
				s1.14,13.156,3.575,13.156c3.652,1.704,5.318,3.463,6.493,2.094c1.985,0.618,0.849,2.401,4.502,0.074
				c-2.776-3.734-2.48-7.342,0.304-8.287c2.775-0.997,7.297,3.437,7.297,3.437s1.646-8.062,13.256-12.169
				c18.132,3.286,23.005-12.067,24.274-15.731c2.858-4.082,7.305-5.17,10.958-7.755L212.368,272.476L212.368,272.476z"/>
			<path fill="#FFD600" stroke="#000000" stroke-width="1.4955" stroke-linecap="round" stroke-linejoin="round" d="
				M223.121,299.012l-8.406,4.636l0.653-6.257"/>
			<path fill="#FFD600" stroke="#000000" stroke-width="1.4955" stroke-linecap="round" stroke-linejoin="round" d="M211.96,297.751
				l-7.911,3.831l3.634-6.462"/>
			<path fill="#FFD600" stroke="#000000" stroke-width="1.4955" stroke-linecap="round" stroke-linejoin="round" d="
				M212.192,287.651l-6.829,3.107l2.44-5.275"/>
			<path fill="#FFD600" stroke="#000000" stroke-width="1.4955" stroke-linecap="round" stroke-linejoin="round" d="
				M200.423,325.129c1.269-2.665,7.714-11,7.583-11c-0.13,0-13.267,2.875-13.267,2.875l4.266-11.606l-11.486,2.395"/>
			<path fill="#FFD600" stroke="#000000" stroke-width="1.4955" stroke-linecap="round" stroke-linejoin="round" d="
				M176.644,326.895c0,0-9.977,1.916-6.063,14.87"/>
			<path fill="#FFD600" stroke="#000000" stroke-width="1.4955" d="M172.34,325.13c0,0-10.899,0.304-7.131,14.53"/>
		</g>
		<g>
			<path fill="#FFD600" stroke="#000000" stroke-width="1.4955" stroke-linecap="round" stroke-linejoin="round" d="
				M298.231,309.248c0,0,0.676,8.374-2.704,11.922c15.012,0.994,23.127,17.033,23.262,20.865c0.135,3.831-4.599,6.812-4.599,6.812
				s1.624,6.813-4.599,7.948c0.135,6.529-4.192,6.529-4.192,6.529s-1.624,5.393-6.627,5.109c-1.488,7.807-9.197,7.664-9.197,7.664
				s-4.464,11.355-11.09,6.955c-4.192,9.651-15.283,9.226-19.476,0c-2.3-0.141-7.438,3.122-10.549-6.529
				c-6.898,1.278-9.603-7.947-9.603-7.947s-4.599-0.427-6.357-5.251c-5.409-1.136-4.463-6.813-4.463-6.813s-5.41-1.561-5.275-7.807
				c-4.328-2.697-3.922-7.521-3.922-7.521s3.382-16.747,22.993-20.297c-3.111-4.683-2.706-11.495-2.706-11.495L298.231,309.248
				L298.231,309.248z"/>
			<path fill="#FFD600" stroke="#000000" stroke-width="1.4955" stroke-linecap="round" stroke-linejoin="round" d="
				M283.354,321.454c0,0.285,2.028,9.226-4.6,10.646c13.12-3.69,26.779,31.225,26.779,31.225"/>
			<path fill="#FFD600" stroke="#000000" stroke-width="1.4955" stroke-linecap="round" stroke-linejoin="round" d="
				M287.817,318.191c0,0,1.758,7.096-4.058,10.645c21.099,4.826,25.968,27.818,25.968,27.818"/>
			<path fill="none" stroke="#000000" stroke-width="1.8694" stroke-linecap="round" stroke-linejoin="round" d="M292.415,314.643
				c0-0.142,3.652,9.65-4.191,11.354c20.151-1.561,25.832,22.566,25.832,22.566"/>
			<path fill="#FFD600" stroke="#000000" stroke-width="1.4955" stroke-linecap="round" stroke-linejoin="round" d="M276.997,325.43
				c0,0,3.381,6.811-2.84,8.94c11.767,1.277,15.554,41.869,15.554,41.869"/>
			<path fill="#FFD600" stroke="#000000" stroke-width="1.4955" stroke-linecap="round" stroke-linejoin="round" d="
				M272.939,327.842c0,0,1.893,7.521-4.192,9.792c12.309-6.812,10.009,45.702,10.009,45.702"/>
			<path fill="#FFD600" stroke="#000000" stroke-width="1.4955" stroke-linecap="round" stroke-linejoin="round" d="
				M264.826,328.269c0,0-2.57,7.947,3.11,9.508c-11.226-3.264-9.063,45.562-9.063,45.562"/>
			<path fill="#FFD600" stroke="#000000" stroke-width="1.4955" stroke-linecap="round" stroke-linejoin="round" d="M259.55,325.145
				c0,0-1.758,7.238,5.141,10.928c-11.497-7.662-16.23,40.734-16.23,40.734"/>
			<path fill="#FFD600" stroke="#000000" stroke-width="1.4955" stroke-linecap="round" stroke-linejoin="round" d="
				M277.809,331.817c0,0,20.962,21.147,20.827,36.759"/>
			<path fill="#FFD600" stroke="#000000" stroke-width="1.4955" stroke-linecap="round" stroke-linejoin="round" d="
				M244.674,314.784c0,0.142-2.57,11.354,4.869,11.639"/>
			<path fill="#FFD600" stroke="#000000" stroke-width="1.4955" stroke-linecap="round" stroke-linejoin="round" d="M249.948,318.9
				c0,0.284-2.029,9.51,3.921,9.936"/>
			<path fill="#FFD600" stroke="#000000" stroke-width="1.4955" stroke-linecap="round" stroke-linejoin="round" d="
				M254.681,321.598c0,0-3.652,9.226,5.275,10.502"/>
			<path fill="#FFD600" stroke="#000000" stroke-width="1.4955" stroke-linecap="round" stroke-linejoin="round" d="
				M259.279,332.241c-0.136,0-17.446,16.89-20.152,36.476"/>
			<path fill="#FFD600" stroke="#000000" stroke-width="1.4955" stroke-linecap="round" stroke-linejoin="round" d="
				M256.034,330.538c-0.135,0-22.045,14.335-23.534,32.645"/>
			<path fill="#FFD600" stroke="#000000" stroke-width="1.4955" stroke-linecap="round" stroke-linejoin="round" d="
				M251.165,328.126c0,0-24.344,14.901-23.262,28.386"/>
			<path fill="#FFD600" stroke="#000000" stroke-width="1.4955" stroke-linecap="round" stroke-linejoin="round" d="
				M245.349,324.862c0,0-18.123,3.549-22.587,23.986"/>
		</g>
	</g>
	<g>
		<path fill="#FFFFFF" d="M207.127,194.095c0,0,17.526,10.157,30.083,9.608s31.389-9.059,31.389-9.059s16.742,9.882,30.345,8.51
			s32.436-9.059,32.436-9.059c11.248,58.928-14.386,111.815-62.78,135.606C217.242,305.086,192.305,245.885,207.127,194.095
			L207.127,194.095z"/>
		<g>
			<path fill="#BE0A2F" d="M213.586,236.918v36.844l9.958,17.619v-54.463H213.586z"/>
			<path fill="#BE0A2F" d="M233.501,236.918v66.711l9.958,9.726v-76.437H233.501L233.501,236.918z"/>
			<path fill="#BE0A2F" d="M253.417,236.918v84.334l9.958,5.801v-90.135H253.417L253.417,236.918z"/>
			<path fill="#BE0A2F" d="M323.121,236.918v36.854l-9.957,17.771v-54.625H323.121L323.121,236.918z"/>
			<path fill="#BE0A2F" d="M303.206,236.918v67.039l-9.958,9.529v-76.569L303.206,236.918L303.206,236.918z"/>
			<path fill="#BE0A2F" d="M283.291,236.918v84.173l-9.958,6.226v-90.398H283.291L283.291,236.918z"/>
		</g>
		<path fill="#002768" d="M207.127,194.095c0,0,4.383,2.539,10.333,5.009c5.951,2.472,13.471,4.873,19.749,4.598
			c12.556-0.548,31.39-9.059,31.39-9.059s16.741,9.882,30.344,8.511c13.604-1.374,32.437-9.06,32.437-9.06
			c2.747,17.111,4.12,25.849,1.701,42.823h-129.45C201.983,219.979,202.071,212.303,207.127,194.095L207.127,194.095z"/>
		<path fill="none" stroke="#000000" stroke-width="1.4955" d="M333.079,236.917h-129.45 M207.127,194.095
			c0,0,17.526,10.157,30.083,9.607c12.556-0.549,31.39-9.058,31.39-9.058s16.741,9.881,30.345,8.509
			c13.601-1.373,32.436-9.058,32.436-9.058c11.248,58.928-14.387,111.816-62.78,135.605
			C217.242,305.085,192.305,245.885,207.127,194.095L207.127,194.095z"/>
	</g>
	<g>
		<path fill="#00CEDE" stroke="#000000" stroke-width="1.4955" d="M15.909,210.977l28.775,0.136l-2.878,7.275l12.556,52.156
			l15.172-52.019l-5.363-7.548h29.952l-6.41,7.274l-24.719,74.527l6.409,9.746H40.628l6.409-9.746l-24.196-74.253L15.909,210.977
			L15.909,210.977z"/>
		<path fill="#00CEDE" stroke="#000000" stroke-width="1.4955" d="M457.334,212.761h27.335l-4.447,6.45l-0.13,75.9l6.147,7.139
			h-28.905l5.754-7.687l-0.13-75.214L457.334,212.761L457.334,212.761z"/>
	</g>
</g>
</svg>
