<svg xmlns="http://www.w3.org/2000/svg" xmlns:xlink="http://www.w3.org/1999/xlink" id="flag-icon-css-vi" width="512" height="512">
  <path fill="#fff" d="M0 0h512v512H0z"/>
  <path fill="#369443" stroke="#010002" stroke-miterlimit="10" stroke-width="1.2" d="M163.48 315.94s-.42-2.8 4.91-4.86c5.33-2.06 5.75-9.73 4.68-14.84 0 0-2.78 4.86-6.16 6.49 0 0-5.5 2.87-5.76 8.35 0 0-.04 2-.45 3.56-.23.85-2.67-6.86 1.95-12.6 4.77-5.92 6.1-10.73 2.31-20.08 0 0-.36 5.67-4.09 8.92-3.73 3.24-4.2 3.49-4.14 11.22 0 0 .06 2.68-1.36 3.56 0 0-2.9-4.24-3.68-7.05-.77-2.8-1.12-3.99 2.2-7.23 0 0 10.62-6.87 2.96-21.9 0 0-.24 5.18-3.91 8.24-3.67 3.06-3.38 5.11-3.55 10.41-.18 5.3-.54 4.93-.95 5.68 0 0-6.75-12.41-1.54-19.02 5.2-6.61 8.11-7.98 2.37-20.27 0 0 .25 6.3-4.35 9.42s-3.53 10.41-3.53 10.41.3 2.75-.65 4.74c0 0-6.5-12.69-.3-19.52 5.28-5.8 5.63-9.85 2.79-18.08 0 0-.36 3.8-3.26 5.86-2.9 2.06-5.2 4.11-4.68 12.03 0 0 .24 5.55-.47 7.11 0 0-2.72-5.05-3.5-8.35-.76-3.3-1.06-5.24.95-8.55 2.02-3.3 10.01-12.78.48-26.44 0 0-.3 4.43-2.73 8.42-2.42 4-1.3 8.73-.77 12.35.54 3.62-1.24 7.1-1.24 7.1s-4.15-7.6-3.26-16.33c.89-8.73-2.66-15.9-10.72-21.08 0 0-5.86 13.6 2.13 20.52 0 0 6.81 6.73 8.53 14.9 0 0-5.15-.5-9.83-9.6-4.67-9.1-14.39-7.67-15.04-7.73 0 0 1.6 14.09 16.52 18.08 0 0 9.54 1.62 11.31 8.6 0 0 1.6 4.8 2.25 7.37 0 0-3.02-1.19-5.8-5.3-2.78-4.12-2.43-4.62-11.84-5.55 0 0-3.8-.44-5.8-3.12 0 0 3.96 14.9 14.15 14.78 0 0 9.3-1 14.5 11.22 0 0-1-.62-2.36-1.56-1.37-.93-4.8-2.68-11.61-1.87s-8.7-.31-10.42-.87c0 0 6.87 12.6 16.58 8.85 9.7-3.74 14.4 9.9 14.5 10.17 0 0-1.3-1-3.01-2.68-1.72-1.69-5.29-3.76-12.03-1.62 0 0-4.85 1.87-9.77.37 0 0 4.74 9.17 15.81 7.6 11.08-1.55 13.86 8.18 13.86 8.18s-1.48-.88-2.49-1.69c-1-.8-4.73-2.93-12.73-.56s-10.9-.37-10.9-.37 4.45 8.1 12.98 9.04c0 0 4.73-.06 6.75-.81 2-.75 7.34-1.93 11.01 3.37 0 0-1 .18-2.55-.5 0 0-5.68-2.06-10 1.56 0 0-3.85 3.93-9.3 3.18 0 0 7.05 6.86 18.24 1.06 0 0 3.79-2.75 6.57-.63 2.78 2.12 9.24-2.05 9.24-2.05z"/>
  <g fill="#f4c53d" stroke="#010002" stroke-miterlimit="10" stroke-width="1.2">
    <path d="M225.77 146.94s-1.3-11.6 7.97-12.72c9.68-1.16 14.45.87 14.45.87l4.34 8.53-1.5 5.73-6 2.75s1.03-8.82-7.05-9c-2.05-.05-3.25.77-6.49.25-3.25-.52-5 3.06-5.72 3.6z"/>
    <path d="M291.02 175.67c-1.38 1.79-6.9 2.41-6.9 2.41s5.68 4.37 8.13 10.6c2.44 6.24-65.89.04-65.89.04s2.96-2.12 4.98-6.1c0 0-3.02 1.11-6.04-1.88 0 0 2.25.75 5.2-3.74 0 0 4.39-5.61 7.47-7.11 0 0-1.42.87-4.86-1 0 0 5.92-.75 8.06-10.85 0 0 .35-2.24 2.6-5.49 2.25-3.24 1.78.63 5.92-4.36 0 0 1.9-3.54.24-5.7s-3.44-1.37-6.91-3.45-5.01-3.24-3.83-6.44c1.19-3.2 4.26-2.7 4.7-2.7.43 0 .67-2.8 4.46-4.7 3.79-1.92 13.86-1.09 15.36-.25 1.5.83 7.58 2.61 11.13 11.6 3.55 8.97-.95 12.34 8.72 25.9 0 0-3.87.83-6.35.08 0 0 5.01 8.9 13.81 13.14z"/>
    <path fill="none" d="M248.74 137.78c-7.87-.38-4.85-7.88-4.85-7.88"/>
    <path d="M262.42 138.8s-1.39-.65-2.57-2.21c-1.65-2.19-5.33-3.24-7.32-1.19 0 0-2.01 2.25-3.79 2.37 0 0 2.02.63 3.4 1.9 1.4 1.29 2.85 2.22 4.92 1.94 2.08-.28 2.4-1.37 3.38-2.03.97-.65 1.98-.78 1.98-.78z"/>
  </g>
  <path fill="#369443" stroke="#010002" stroke-miterlimit="10" stroke-width="1.2" d="M162.25 333.16s-.18-5.05 6.22-5.42l18.83 26.19s-.71 1.68-9.24 1.5c0 0-.9-.01-1.38.99-.72 1.53-14.43-23.26-14.43-23.26z"/>
  <g id="a" fill="#f4c53d" stroke="#010002" stroke-width="10" transform="translate(2.88 84.94) scale(.12044)">
    <path d="M1494.92 1807.89s-49.82 85.6-110.13 86.98c0 0-103.74-12.62-133.07 14.5-20.46 18.92-41.3 34.52-49.83 82.85-8.52 48.32 16.4 58.68 22.3 60.75 0 0 4.58 34.52 38.67 25.54 0 0 1.97 35.9 62.27 18.64 60.31-17.26 85.22-11.73 97.02-71.8 11.8-60.06 22.7-59.07 33.43-66.27 14.43-9.67 41.52-18.8 61.62-30.38 18.07-10.4 87.2-45.56 110.79-48.32 23.6-2.76 18.36-82.16 18.36-82.16h-60.97l-29.5-43.5-60.96 53.17zm192-429.41s-60.96 49.7-112.09 0c0 0-20.65 24.85-61.95 17.6-41.3-7.25-48.18-29-52.11-41.42 0 0-35.73 20.84-65.88 4.38-30.16-16.46-30.16-41.32-30.16-41.32s-52.44 10.34-79.32-25.2c-26.87-35.55-10.49-70.76 3.94-74.9 0 0-56.7 14.85-72.11-33.83-13.11-41.42 16.39-62.82 16.39-62.82s-119.47-.58-168.48-37.97c0 0-40.64-25.55-16.39-52.47 0 0-107.5-17.26-134.38-60.06 0 0-11.8-11.74-7.86-32.45 0 0 .65-11.74 12.45-12.43 0 0-122.6-18.93-157.98-59.37 0 0-17.05-18.64-8.52-43.49 0 0 1.8-6.56 4.75-10.96 0 0-111.6-23.56-166.67-73.27 0 0-31.79-28.32-15.4-66.29 0 0-186.5-51.07-143.24-133.22 0 0-87.19-28.3-59.65-107.01 0 0-72.11-36.6-40.65-94.58 30.12-55.5 122.59 9.66 232.08 39.96 0 0 296.28 93.28 442.2 118.1l414.56 617.23 241.9 93.2 24.58 172.59z"/>
    <path d="M1689.88 923.87s-38.86-29.17-108.17 5.17c0 0-23.33 16.07-41.68-1.53-15.34-14.71-16.78-41.83 4.32-57.5 51.62-38.3 70.8-153.25-7.87-200.89 0 0-114.06-67.66-532.32-174.1 0 0-35.04-9.71-53.72-5.05-20.58 5.13-34.75 22.78-37.65 37.88 0 0-18.72 53.2 44.2 83.62 0 0 28.41 13 57.69 21.4 0 0-32.16-6.95-45.89 24.86-13.1 30.37 5.9 61.44 64.9 81.46 0 0 15.96 6.21 38.68 11.74 0 0-50.48 14.5-26.22 55.23 0 0 21.63 42.8 98 50.4 0 0-57.03 6.2-16.72 60.4 0 0 17.7 29.69 73.42 40.73 0 0-42.28 1.38-20.97 39.35 21.3 37.98 71.44 59.38 120.77 62.83 0 0 26.72 1.38 45.4-2.76 0 0-46.87 23.47-19.33 62.82 0 0 20.32 27.96 71.12 26.58 0 0-13.19 43.95 24.1 60.58 29 12.95 53.1-7.77 53.1-7.77s-9.84 47.12 32.44 63.7c0 0 21.14 10.86 52.6 0 0 0 24.1 53.84 109.64 16.04 85.55-37.8 20.16-355.2 20.16-355.2zm5.07 489.39s-12.55 67.39-112.09 152.22c0 0-76.8 67.74-74.83 145.75 2 79.44-13.77 88.37-43.92 115.3 0 0 62.27 4.83 92.43-36.6 0 0-1.31 69.04-10.5 75.25 0 0 19.54 1.25 47.86-29.68 0 0 17.05-17.95 32.78-24.85 0 0-18.36 47.63-3.93 91.82 0 0 4.59-17.26 28.84-24.86 0 0 43.92-8.97 60.96-72.49 0 0 11.15-42.1 79.98-79.39 0 0 78-29.42 76.04-67.87-1.97-38.45-173.62-244.6-173.62-244.6z"/>
    <path stroke-miterlimit="10" d="M2056.52 2282.17s-17.87 78.86-79.97 72.5c0 0-43.92-4.15-40.64-77.33 0 0-64.9 34.52-75.4-51.09 0 0-58.99 13.8-58.33-66.28 0 0-55.07 9.67-48.51-61.44 0 0-59.66 15.88-59.66-51.09 0 0-139.62-23.15 151.43-288.57l259.6 154.64-48.52 368.66z"/>
    <path d="M2085.37 1928.29s-43.27 38.38-74.08-18.92c0 0-41.95-2.07-48.5-33.83 0 0-34.1-3.45-40.65-35.9 0 0-46.54-4.83-45.23-44.18 0 0-84.62-6.53-.03-102.33 84.6-95.8 228.16 158.94 228.16 158.94l-19.67 76.22zm48.27-23.75c41.94 0 89.47 262 77.13 419.84-4.48 57.33-35.19 104.15-77.13 104.15s-72.65-46.82-77.13-104.15c-12.33-157.84 35.2-419.84 77.13-419.84"/>
    <ellipse cx="2133.64" cy="1902.47" rx="58.03" ry="85.95"/>
    <path fill="none" stroke-miterlimit="10" d="M1935.9 2277.34s6.56-138.76 126.83-337.6m-202.21 286.51s-18.68-80.08 150.77-316.88c0 0-19.66-56.61 40.65-92.85m-249.76 343.46s-5.25-86.65 160.6-284.44c0 0-14.65-51.09 45.45-91.82m-254.56 314.81s6.23-87.67 168.47-258.89c0 0-8.12-52.47 50.02-84.91m-278.15 292.72s11.8-100.1 182.9-251.99c0 0-5.9-39.35 51.13-79.4"/>
    <path fill="none" d="M372.26 431.98s134.38 77.8 552.9 155.6m-493.25-48.6s363.72 118.65 533.1 133.23m-389.86 0s213.37 66.98 463.24 109.25m-281.17 30.3s241.07 57.91 356.16 67.52m-194.4 46.31s203.9 42.53 255.56 47.64m-125.77 57.3s148.8 22.6 208.03 21.4m-23.17 69.04s60.16-2.83 89.08-7.63m-33.36 104.28s51.13-13.8 81.28-33.14m-5.9 133.24s39.34-15.19 58.35-56.6m37.69 93.54s30.48-27.27 32.45-57.65m81.61 81.47s-11.41-9.85-3.6-52.64m-11.15-62.83s-5.9-12.25-3.93-31.59m-211.08-581.29s68.83 27.62 91.77 65.59c22.94 37.97 7.83 74.87 0 96.04-3.94 10.64-52.44 104.16 4.6 171.82m-95.4 73.53s.34-.35 24.6-7.94m-169.8-91.48s41.03 8.26 81.3 8.63m-138-109.77s48.19 4.84 93.42 4.14m-165.2-109.77s69.5 13.81 106.86 14.5m-164.54-132.55s85.7 24.46 149.46 33.14m141.6 50.4s-61.62 57.3 12.45 110.46c0 0-30.8 48.32 30.81 98.72m-16.39 23.82s-9.17 92.15 103.58 92.16c0 0-21.64 82.16 87.18 79.4 0 0 12.46 65.58 91.12 52.46m-173.32 721.44s-17.84 3.97-56.54 0m-108.82 48.33s-54.41-8.29-51.79 109.77m84.57-82.85s-49.17-6.21-45.9 108.39m520.66-384.54s-23.6 4.84-39.98 23.48c-16.4 18.64-47.86 15.19-47.86 15.19s17.04-13.81 22.94-48.33c5.9-34.52 24.91-44.88 24.91-44.88m-56.3-32.68s-23.6 4.83-39.98 23.47c-16.39 18.64-47.85 15.19-47.85 15.19s17.04-13.81 22.94-48.33c5.9-34.52 24.9-44.87 24.9-44.87m23.77 188.53s-20.6 4.22-34.91 20.5c-14.31 16.27-41.79 13.26-41.79 13.26s14.88-12.06 20.04-42.2c5.15-30.13 21.75-39.17 21.75-39.17"/>
  </g>
  <use width="100%" height="100%" stroke="#010002" stroke-width="10" transform="matrix(-1 0 0 1 517.76 0)" xlink:href="#a"/>
  <path fill="#0081c6" stroke="#010002" stroke-miterlimit="10" stroke-width="1.2" d="M379.72 272.74l-6.88-4-11.45 49.46-4.73-3.4 11.15-47.38-7.78.15 18.46-33.8 1.23 38.97zm27 13.37l-4.3-6.93-34.39 40.63-3.72-4.17 34.25-40.1-6.93-3.73L423 251.1 406.7 286.1z"/>
  <path fill="#0081c6" stroke="#010002" stroke-miterlimit="10" stroke-width="1.2" d="M399.75 263.37l-5.66-5.73-30.77 59.17-4.75-2.77L389.55 255l-7.54-1.98 26.13-27.62-8.39 37.98zm-44.05 71.49l-2.3 9.42 6.3 6.29-8.92 37.67-7.93-10.65-11.75 5.48 8.92-37.67 8.27-2.3 2.14-9.41s2.5-.98 5.27 1.17z"/>
  <path fill="#0081c6" stroke="#010002" stroke-miterlimit="10" stroke-width="1.2" d="M357.81 328.64l-4.54 8.48 4.55 7.79-17.87 33.96-5.05-12.46-12.7 2.1 17.87-33.96 8.56.03 4.38-8.5s3.2-.01 4.8 2.56z"/>
  <path fill="#0081c6" stroke="#010002" stroke-miterlimit="10" stroke-width="1.2" d="M358.58 331.1l-12.08 15.36 2.77 8.67-24.67 28.85-2.26-13.33-12.82-.97 24.67-28.85 8.33 2.05 12.81-16.3s3.44 1.71 3.25 4.53zM52.42 295.13c2.88-1.18 4.95-2.31 4.95-5.39 0-.73-.41-2.35-1.23-4.86L36.8 225.76a50.83 50.83 0 0 0-2.42-6.37c-.87-1.67-2.57-2.34-4.87-3.3h24.58c-2.67 1.26-5.1 2.26-5.08 5.1 0 1.07.31 2.6.94 4.57l14.82 46.38 14.8-46.38c.62-1.97.95-3.5.94-4.58-.03-2.9-2.57-3.96-5.06-5.1h23.82c-2.17.88-3.95 1.56-4.86 3.3-.4.78-1.27 2.87-2.41 6.38l-19.34 59.11a30.2 30.2 0 0 0-1.23 4.92s-.89 3.74 4.95 5.33H52.42zm412.18-6.08v-66.93a5.1 5.1 0 0 0-.57-2.66c-.38-.62-2.04-2.4-4.41-3.36h22.15a9.16 9.16 0 0 0-4.41 3.33 5.26 5.26 0 0 0-.58 2.69v66.93c0 1.2.2 2.11.6 2.75.39.63 2.02 2.19 4.39 3.33h-22.15c2.37-1.08 4.03-2.74 4.41-3.36.38-.62.57-1.53.57-2.72z"/>
  <path fill="#fff" stroke="#010002" stroke-width="1.2" d="M259.86 311.81s59.28-26.27 59.43-87.04H200.43c.15 60.77 59.43 87.04 59.43 87.04z"/>
  <path fill="#a60032" stroke="#010002" stroke-width="1.2" d="M209.57 224.77v38.83s4.54 9 9.14 14.65v-53.48h-9.14zm18.28 0v64s5.72 5.61 9.15 8.32v-72.32h-9.15zm18.29 0v79.12s6.52 4.21 9.14 5.6v-84.72h-9.14zm64 0v38.83s-4.54 9-9.14 14.65v-53.48h9.14zm-18.29 0v64s-5.71 5.61-9.14 8.32v-72.32h9.15zm-18.28 0v79.12s-6.53 4.21-9.15 5.6v-84.72h9.15z"/>
  <path fill="#162667" stroke="#010002" stroke-miterlimit="10" stroke-width="1.2" d="M319.29 180.62s-29.1 15.21-59.43-1.25c-30.34 16.46-59.43 1.25-59.43 1.25v44.15h118.86v-44.15z"/>
</svg>
