<svg xmlns="http://www.w3.org/2000/svg" height="512" width="512" version="1" xmlns:xlink="http://www.w3.org/1999/xlink"><defs><linearGradient id="a"><stop stop-color="#f00" offset="0"/><stop stop-color="#ff0" offset="1"/></linearGradient><linearGradient id="c" y2="107.76" xlink:href="#a" gradientUnits="userSpaceOnUse" x2="92.551" gradientTransform="matrix(.66 0 0 1.492 -3.68 -.673)" y1="111.28" x1="103.08"/><linearGradient id="d" y2="107.76" xlink:href="#a" gradientUnits="userSpaceOnUse" x2="92.551" gradientTransform="matrix(.66 0 0 1.492 -3.676 -.451)" y1="111.28" x1="103.08"/><linearGradient id="e" y2="107.76" xlink:href="#a" gradientUnits="userSpaceOnUse" x2="92.551" gradientTransform="matrix(.66 0 0 1.492 -4.457 -.249)" y1="111.28" x1="103.08"/><linearGradient id="f" y2="107.76" xlink:href="#a" gradientUnits="userSpaceOnUse" x2="92.551" gradientTransform="matrix(.66 0 0 1.492 -3.694 -.033)" y1="111.28" x1="103.08"/><linearGradient id="g" y2="107.76" xlink:href="#a" gradientUnits="userSpaceOnUse" x2="92.551" gradientTransform="matrix(.66 0 0 1.492 -3.696 .179)" y1="111.28" x1="103.08"/><linearGradient id="h" y2="107.76" xlink:href="#a" gradientUnits="userSpaceOnUse" x2="92.551" gradientTransform="matrix(.66 0 0 1.492 -3.7 .395)" y1="111.28" x1="103.08"/><linearGradient id="i" y2="107.76" xlink:href="#a" gradientUnits="userSpaceOnUse" x2="92.551" gradientTransform="matrix(.66 0 0 1.492 -4.463 .391)" y1="111.28" x1="103.08"/><linearGradient id="j" y2="107.76" xlink:href="#a" gradientUnits="userSpaceOnUse" x2="92.551" gradientTransform="matrix(.66 0 0 1.492 -4.456 .18)" y1="111.28" x1="103.08"/><linearGradient id="k" y2="107.76" xlink:href="#a" gradientUnits="userSpaceOnUse" x2="92.551" gradientTransform="matrix(.66 0 0 1.492 -4.446 -.036)" y1="111.28" x1="103.08"/><linearGradient id="m" y2="107.76" xlink:href="#a" gradientUnits="userSpaceOnUse" x2="92.551" gradientTransform="matrix(.66 0 0 1.492 -4.455 -.462)" y1="111.28" x1="103.08"/><linearGradient id="n" y2="107.76" xlink:href="#a" gradientUnits="userSpaceOnUse" x2="92.551" gradientTransform="matrix(.66 0 0 1.492 -3.833 -.263)" y1="111.28" x1="103.08"/><linearGradient id="l" y2="107.76" xlink:href="#a" gradientUnits="userSpaceOnUse" x2="92.551" gradientTransform="matrix(.85 0 0 1.922 723.32 109.68)" y1="111.28" x1="103.08"/><clipPath id="b"><rect fill-opacity=".67" height="512" width="512"/></clipPath></defs><g clip-path="url(#b)"><rect height="512" width="1024" fill="#006"/><rect fill-rule="evenodd" height="256" width="512" fill="#006"/><g><path d="M0 0v28.622l454.757 227.378h57.241v-28.621l-454.757-227.378h-57.241zm511.998 0v28.621l-454.757 227.378h-57.241v-28.621l454.757-227.378h57.241z" fill="#fff"/><path d="M213.333 0v255.999h85.333v-255.999h-85.333zm-213.333 85.333v85.333h511.998v-85.333h-511.998z" fill="#fff"/><path d="M0 102.4v51.2h511.998v-51.2h-511.998zm230.399-102.4v255.999h51.2v-255.999h-51.2z" fill="#c00"/><path d="M0 255.999l170.666-85.333h38.161l-170.666 85.333h-38.161zm0-255.999l170.666 85.333h-38.161l-132.505-66.252v-19.081zm303.171 85.333l170.666-85.333h38.161l-170.666 85.333h-38.161zm208.827 170.666l-170.666-85.333h38.161l132.505 66.253v19.08z" fill="#c00"/></g><g transform="translate(-406.02 70.677)"><path d="M662.41 122.94l213.68-.793-.396 190.29s7.532 28.939-89.593 72.943c34.886-3.568 72.943-40.832 72.943-40.832s15.461-19.821 22.993-8.721c7.532 11.1 14.668 16.65 20.218 21.011 5.55 4.361 9.911 16.254 1.586 24.975s-21.407 9.911-24.975-.793c-5.55 2.775-39.643 44.004-109.41 45.986-70.961-1.189-109.81-46.382-109.81-46.382s-9.514 15.064-22.993 3.171c-13.082-15.461-3.171-25.372-3.171-25.372s11.1-6.343 14.271-10.704c5.154-5.947 6.739-13.875 15.461-13.875 10.307.793 14.271 9.118 14.271 9.118s35.679 37.661 74.132 42.418c-86.818-41.625-89.99-67.393-89.593-73.736l.396-188.7z" fill-rule="evenodd" fill="#fff"/><path d="M667.56 128.09l203.76-1.189v183.15c.396 23.786-39.643 47.968-102.28 78.889-64.61-33.3-101.87-53.52-102.27-79.28l.793-181.56z" fill-rule="evenodd" stroke="#000" stroke-width="1.288pt" fill="#006129"/><g><path d="M69.786 170.53l9.335-13.711 9.381 13.74" stroke="#f7c600" stroke-width="1pt" fill="none" transform="matrix(1.288 0 0 1.288 602.15 110.19)"/><path d="M80.922 156.72c0 .942-.763 1.706-1.706 1.706-.942 0-1.706-.764-1.706-1.706s.763-1.706 1.706-1.706c.942 0 1.706.764 1.706 1.706z" fill-rule="evenodd" transform="matrix(1.4 0 0 1.4 593.179 103.807)" stroke="#000" stroke-width=".575" fill="#f7c600"/><path d="M71.541 180.66l14.473.041s.227-1.878-1.512-3.02c7.58-1.042 5.611-7.729 11.96-8.108 1.232.19-3.317 2.843-3.317 2.843s-3.828 2.701-2.085 4.074c1.384 1.09 1.99-.663 2.179-1.99.19-1.327 6.159-2.179 5.306-5.97-1.421-3.127-9.76 2.084-9.76 2.084l-5.949-.033c-.371-.668-2.01-3.345-3.704-3.358-2.009.073-3.424 3.391-3.424 3.391h-13.456s-.461 3.452 6.361 4.116c1.536 2.006 2.727 2.567 4.062 3.086-.89.742-1.141 1.639-1.137 2.843z" fill-rule="evenodd" stroke="#000" stroke-width=".625" fill="#f7c600" transform="matrix(1.288 0 0 1.288 602.15 110.19)"/><path d="M72.583 177.72l12.055-.041" stroke="#000" stroke-width=".625" fill="none" transform="matrix(1.288 0 0 1.288 602.15 110.19)"/><path d="M67.062 170.61s.964 5.638 5.415 6.973" stroke="#000" stroke-width=".625" fill="none" transform="matrix(1.288 0 0 1.288 602.15 110.19)"/><path d="M66.32 170.54c.445-2.151 1.261-2.522 2.151-5.267.148-2.671-2.151-2.374-1.484-4.08 1.187-1.855.593-3.635-1.632-5.045.445 2.448-2.893 4.748-2.893 6.751s1.706 1.558 1.484 4.599c.148 1.78-.445 1.335-.593 3.042h2.967z" fill-rule="evenodd" stroke="#000" stroke-width=".625" fill="url(#c)" transform="matrix(1.288 0 0 1.288 602.15 110.19)"/><path d="M80.922 156.72c0 .942-.763 1.706-1.706 1.706-.942 0-1.706-.764-1.706-1.706s.763-1.706 1.706-1.706c.942 0 1.706.764 1.706 1.706z" fill-rule="evenodd" transform="matrix(1.288 0 0 1.288 602.055 110.763)" stroke="#000" stroke-width=".625" fill="#f7c600"/></g><g><path d="M69.786 170.53l9.335-13.711 9.381 13.74" stroke="#f7c600" stroke-width="1pt" fill="none" transform="matrix(1.288 0 0 1.288 601.47 73.831)"/><path d="M80.922 156.72c0 .942-.763 1.706-1.706 1.706-.942 0-1.706-.764-1.706-1.706s.763-1.706 1.706-1.706c.942 0 1.706.764 1.706 1.706z" fill-rule="evenodd" transform="matrix(1.4 0 0 1.4 592.499 67.448)" stroke="#000" stroke-width=".575" fill="#f7c600"/><path d="M71.541 180.66l14.473.041s.227-1.878-1.512-3.02c7.58-1.042 5.611-7.729 11.96-8.108 1.232.19-3.317 2.843-3.317 2.843s-3.828 2.701-2.085 4.074c1.384 1.09 1.99-.663 2.179-1.99.19-1.327 6.159-2.179 5.306-5.97-1.421-3.127-9.76 2.084-9.76 2.084l-5.949-.033c-.371-.668-2.01-3.345-3.704-3.358-2.009.073-3.424 3.391-3.424 3.391h-13.456s-.461 3.452 6.361 4.116c1.536 2.006 2.727 2.567 4.062 3.086-.89.742-1.141 1.639-1.137 2.843z" fill-rule="evenodd" stroke="#000" stroke-width=".625" fill="#f7c600" transform="matrix(1.288 0 0 1.288 601.47 73.831)"/><path d="M72.583 177.72l12.055-.041" stroke="#000" stroke-width=".625" fill="none" transform="matrix(1.288 0 0 1.288 601.47 73.831)"/><path d="M67.062 170.61s.964 5.638 5.415 6.973" stroke="#000" stroke-width=".625" fill="none" transform="matrix(1.288 0 0 1.288 601.47 73.831)"/><path d="M66.32 170.54c.445-2.151 1.261-2.522 2.151-5.267.148-2.671-2.151-2.374-1.484-4.08 1.187-1.855.593-3.635-1.632-5.045.445 2.448-2.893 4.748-2.893 6.751s1.706 1.558 1.484 4.599c.148 1.78-.445 1.335-.593 3.042h2.967z" fill-rule="evenodd" stroke="#000" stroke-width=".625" fill="url(#d)" transform="matrix(1.288 0 0 1.288 601.47 73.831)"/><path d="M80.922 156.72c0 .942-.763 1.706-1.706 1.706-.942 0-1.706-.764-1.706-1.706s.763-1.706 1.706-1.706c.942 0 1.706.764 1.706 1.706z" fill-rule="evenodd" transform="matrix(1.288 0 0 1.288 601.375 74.404)" stroke="#000" stroke-width=".625" fill="#f7c600"/></g><g><path d="M69.786 170.53l9.335-13.711 9.381 13.74" stroke="#f7c600" stroke-width="1pt" fill="none" transform="matrix(1.288 0 0 1.288 729.25 40.779)"/><path d="M80.922 156.72c0 .942-.763 1.706-1.706 1.706-.942 0-1.706-.764-1.706-1.706s.763-1.706 1.706-1.706c.942 0 1.706.764 1.706 1.706z" fill-rule="evenodd" transform="matrix(1.4 0 0 1.4 720.279 34.396)" stroke="#000" stroke-width=".575" fill="#f7c600"/><path d="M71.541 180.66l14.473.041s.227-1.878-1.512-3.02c7.58-1.042 5.611-7.729 11.96-8.108 1.232.19-3.317 2.843-3.317 2.843s-3.828 2.701-2.085 4.074c1.384 1.09 1.99-.663 2.179-1.99.19-1.327 6.159-2.179 5.306-5.97-1.421-3.127-9.76 2.084-9.76 2.084l-5.949-.033c-.371-.668-2.01-3.345-3.704-3.358-2.009.073-3.424 3.391-3.424 3.391h-13.456s-.461 3.452 6.361 4.116c1.536 2.006 2.727 2.567 4.062 3.086-.89.742-1.141 1.639-1.137 2.843z" fill-rule="evenodd" stroke="#000" stroke-width=".625" fill="#f7c600" transform="matrix(1.288 0 0 1.288 729.25 40.779)"/><path d="M72.583 177.72l12.055-.041" stroke="#000" stroke-width=".625" fill="none" transform="matrix(1.288 0 0 1.288 729.25 40.779)"/><path d="M67.062 170.61s.964 5.638 5.415 6.973" stroke="#000" stroke-width=".625" fill="none" transform="matrix(1.288 0 0 1.288 729.25 40.779)"/><path d="M66.32 170.54c.445-2.151 1.261-2.522 2.151-5.267.148-2.671-2.151-2.374-1.484-4.08 1.187-1.855.593-3.635-1.632-5.045.445 2.448-2.893 4.748-2.893 6.751s1.706 1.558 1.484 4.599c.148 1.78-.445 1.335-.593 3.042h2.967z" fill-rule="evenodd" stroke="#000" stroke-width=".625" fill="url(#e)" transform="matrix(1.288 0 0 1.288 729.25 40.779)"/><path d="M80.922 156.72c0 .942-.763 1.706-1.706 1.706-.942 0-1.706-.764-1.706-1.706s.763-1.706 1.706-1.706c.942 0 1.706.764 1.706 1.706z" fill-rule="evenodd" transform="matrix(1.288 0 0 1.288 729.155 41.352)" stroke="#000" stroke-width=".625" fill="#f7c600"/></g><g><path d="M69.786 170.53l9.335-13.711 9.381 13.74" stroke="#f7c600" stroke-width="1pt" fill="none" transform="matrix(1.288 0 0 1.288 604.45 5.435)"/><path d="M80.922 156.72c0 .942-.763 1.706-1.706 1.706-.942 0-1.706-.764-1.706-1.706s.763-1.706 1.706-1.706c.942 0 1.706.764 1.706 1.706z" fill-rule="evenodd" transform="matrix(1.4 0 0 1.4 595.479 -.948)" stroke="#000" stroke-width=".575" fill="#f7c600"/><path d="M71.541 180.66l14.473.041s.227-1.878-1.512-3.02c7.58-1.042 5.611-7.729 11.96-8.108 1.232.19-3.317 2.843-3.317 2.843s-3.828 2.701-2.085 4.074c1.384 1.09 1.99-.663 2.179-1.99.19-1.327 6.159-2.179 5.306-5.97-1.421-3.127-9.76 2.084-9.76 2.084l-5.949-.033c-.371-.668-2.01-3.345-3.704-3.358-2.009.073-3.424 3.391-3.424 3.391h-13.456s-.461 3.452 6.361 4.116c1.536 2.006 2.727 2.567 4.062 3.086-.89.742-1.141 1.639-1.137 2.843z" fill-rule="evenodd" stroke="#000" stroke-width=".625" fill="#f7c600" transform="matrix(1.288 0 0 1.288 604.45 5.435)"/><path d="M72.583 177.72l12.055-.041" stroke="#000" stroke-width=".625" fill="none" transform="matrix(1.288 0 0 1.288 604.45 5.435)"/><path d="M67.062 170.61s.964 5.638 5.415 6.973" stroke="#000" stroke-width=".625" fill="none" transform="matrix(1.288 0 0 1.288 604.45 5.435)"/><path d="M66.32 170.54c.445-2.151 1.261-2.522 2.151-5.267.148-2.671-2.151-2.374-1.484-4.08 1.187-1.855.593-3.635-1.632-5.045.445 2.448-2.893 4.748-2.893 6.751s1.706 1.558 1.484 4.599c.148 1.78-.445 1.335-.593 3.042h2.967z" fill-rule="evenodd" stroke="#000" stroke-width=".625" fill="url(#f)" transform="matrix(1.288 0 0 1.288 604.45 5.435)"/><path d="M80.922 156.72c0 .942-.763 1.706-1.706 1.706-.942 0-1.706-.764-1.706-1.706s.763-1.706 1.706-1.706c.942 0 1.706.764 1.706 1.706z" fill-rule="evenodd" transform="matrix(1.288 0 0 1.288 604.355 6.008)" stroke="#000" stroke-width=".625" fill="#f7c600"/></g><g><path d="M69.786 170.53l9.335-13.711 9.381 13.74" stroke="#f7c600" stroke-width="1pt" fill="none" transform="matrix(1.288 0 0 1.288 604.72 -29.303)"/><path d="M80.922 156.72c0 .942-.763 1.706-1.706 1.706-.942 0-1.706-.764-1.706-1.706s.763-1.706 1.706-1.706c.942 0 1.706.764 1.706 1.706z" fill-rule="evenodd" transform="matrix(1.4 0 0 1.4 595.749 -35.686)" stroke="#000" stroke-width=".575" fill="#f7c600"/><path d="M71.541 180.66l14.473.041s.227-1.878-1.512-3.02c7.58-1.042 5.611-7.729 11.96-8.108 1.232.19-3.317 2.843-3.317 2.843s-3.828 2.701-2.085 4.074c1.384 1.09 1.99-.663 2.179-1.99.19-1.327 6.159-2.179 5.306-5.97-1.421-3.127-9.76 2.084-9.76 2.084l-5.949-.033c-.371-.668-2.01-3.345-3.704-3.358-2.009.073-3.424 3.391-3.424 3.391h-13.456s-.461 3.452 6.361 4.116c1.536 2.006 2.727 2.567 4.062 3.086-.89.742-1.141 1.639-1.137 2.843z" fill-rule="evenodd" stroke="#000" stroke-width=".625" fill="#f7c600" transform="matrix(1.288 0 0 1.288 604.72 -29.303)"/><path d="M72.583 177.72l12.055-.041" stroke="#000" stroke-width=".625" fill="none" transform="matrix(1.288 0 0 1.288 604.72 -29.303)"/><path d="M67.062 170.61s.964 5.638 5.415 6.973" stroke="#000" stroke-width=".625" fill="none" transform="matrix(1.288 0 0 1.288 604.72 -29.303)"/><path d="M66.32 170.54c.445-2.151 1.261-2.522 2.151-5.267.148-2.671-2.151-2.374-1.484-4.08 1.187-1.855.593-3.635-1.632-5.045.445 2.448-2.893 4.748-2.893 6.751s1.706 1.558 1.484 4.599c.148 1.78-.445 1.335-.593 3.042h2.967z" fill-rule="evenodd" stroke="#000" stroke-width=".625" fill="url(#g)" transform="matrix(1.288 0 0 1.288 604.72 -29.303)"/><path d="M80.922 156.72c0 .942-.763 1.706-1.706 1.706-.942 0-1.706-.764-1.706-1.706s.763-1.706 1.706-1.706c.942 0 1.706.764 1.706 1.706z" fill-rule="evenodd" transform="matrix(1.288 0 0 1.288 604.625 -28.73)" stroke="#000" stroke-width=".625" fill="#f7c600"/></g><g><path d="M69.786 170.53l9.335-13.711 9.381 13.74" stroke="#f7c600" stroke-width="1pt" fill="none" transform="matrix(1.288 0 0 1.288 605.38 -64.549)"/><path d="M80.922 156.72c0 .942-.763 1.706-1.706 1.706-.942 0-1.706-.764-1.706-1.706s.763-1.706 1.706-1.706c.942 0 1.706.764 1.706 1.706z" fill-rule="evenodd" transform="matrix(1.4 0 0 1.4 596.409 -70.932)" stroke="#000" stroke-width=".575" fill="#f7c600"/><path d="M71.541 180.66l14.473.041s.227-1.878-1.512-3.02c7.58-1.042 5.611-7.729 11.96-8.108 1.232.19-3.317 2.843-3.317 2.843s-3.828 2.701-2.085 4.074c1.384 1.09 1.99-.663 2.179-1.99.19-1.327 6.159-2.179 5.306-5.97-1.421-3.127-9.76 2.084-9.76 2.084l-5.949-.033c-.371-.668-2.01-3.345-3.704-3.358-2.009.073-3.424 3.391-3.424 3.391h-13.456s-.461 3.452 6.361 4.116c1.536 2.006 2.727 2.567 4.062 3.086-.89.742-1.141 1.639-1.137 2.843z" fill-rule="evenodd" stroke="#000" stroke-width=".625" fill="#f7c600" transform="matrix(1.288 0 0 1.288 605.38 -64.549)"/><path d="M72.583 177.72l12.055-.041" stroke="#000" stroke-width=".625" fill="none" transform="matrix(1.288 0 0 1.288 605.38 -64.549)"/><path d="M67.062 170.61s.964 5.638 5.415 6.973" stroke="#000" stroke-width=".625" fill="none" transform="matrix(1.288 0 0 1.288 605.38 -64.549)"/><path d="M66.32 170.54c.445-2.151 1.261-2.522 2.151-5.267.148-2.671-2.151-2.374-1.484-4.08 1.187-1.855.593-3.635-1.632-5.045.445 2.448-2.893 4.748-2.893 6.751s1.706 1.558 1.484 4.599c.148 1.78-.445 1.335-.593 3.042h2.967z" fill-rule="evenodd" stroke="#000" stroke-width=".625" fill="url(#h)" transform="matrix(1.288 0 0 1.288 605.38 -64.549)"/><path d="M80.922 156.72c0 .942-.763 1.706-1.706 1.706-.942 0-1.706-.764-1.706-1.706s.763-1.706 1.706-1.706c.942 0 1.706.764 1.706 1.706z" fill-rule="evenodd" transform="matrix(1.288 0 0 1.288 605.285 -63.976)" stroke="#000" stroke-width=".625" fill="#f7c600"/></g><g><path d="M69.786 170.53l9.335-13.711 9.381 13.74" stroke="#f7c600" stroke-width="1pt" fill="none" transform="matrix(1.288 0 0 1.288 730.2 -63.975)"/><path d="M80.922 156.72c0 .942-.763 1.706-1.706 1.706-.942 0-1.706-.764-1.706-1.706s.763-1.706 1.706-1.706c.942 0 1.706.764 1.706 1.706z" fill-rule="evenodd" transform="matrix(1.4 0 0 1.4 721.229 -70.358)" stroke="#000" stroke-width=".575" fill="#f7c600"/><path d="M71.541 180.66l14.473.041s.227-1.878-1.512-3.02c7.58-1.042 5.611-7.729 11.96-8.108 1.232.19-3.317 2.843-3.317 2.843s-3.828 2.701-2.085 4.074c1.384 1.09 1.99-.663 2.179-1.99.19-1.327 6.159-2.179 5.306-5.97-1.421-3.127-9.76 2.084-9.76 2.084l-5.949-.033c-.371-.668-2.01-3.345-3.704-3.358-2.009.073-3.424 3.391-3.424 3.391h-13.456s-.461 3.452 6.361 4.116c1.536 2.006 2.727 2.567 4.062 3.086-.89.742-1.141 1.639-1.137 2.843z" fill-rule="evenodd" stroke="#000" stroke-width=".625" fill="#f7c600" transform="matrix(1.288 0 0 1.288 730.2 -63.975)"/><path d="M72.583 177.72l12.055-.041" stroke="#000" stroke-width=".625" fill="none" transform="matrix(1.288 0 0 1.288 730.2 -63.975)"/><path d="M67.062 170.61s.964 5.638 5.415 6.973" stroke="#000" stroke-width=".625" fill="none" transform="matrix(1.288 0 0 1.288 730.2 -63.975)"/><path d="M66.32 170.54c.445-2.151 1.261-2.522 2.151-5.267.148-2.671-2.151-2.374-1.484-4.08 1.187-1.855.593-3.635-1.632-5.045.445 2.448-2.893 4.748-2.893 6.751s1.706 1.558 1.484 4.599c.148 1.78-.445 1.335-.593 3.042h2.967z" fill-rule="evenodd" stroke="#000" stroke-width=".625" fill="url(#i)" transform="matrix(1.288 0 0 1.288 730.2 -63.975)"/><path d="M80.922 156.72c0 .942-.763 1.706-1.706 1.706-.942 0-1.706-.764-1.706-1.706s.763-1.706 1.706-1.706c.942 0 1.706.764 1.706 1.706z" fill-rule="evenodd" transform="matrix(1.288 0 0 1.288 730.105 -63.402)" stroke="#000" stroke-width=".625" fill="#f7c600"/></g><g><path d="M69.786 170.53l9.335-13.711 9.381 13.74" stroke="#f7c600" stroke-width="1pt" fill="none" transform="matrix(1.288 0 0 1.288 729.06 -29.376)"/><path d="M80.922 156.72c0 .942-.763 1.706-1.706 1.706-.942 0-1.706-.764-1.706-1.706s.763-1.706 1.706-1.706c.942 0 1.706.764 1.706 1.706z" fill-rule="evenodd" transform="matrix(1.4 0 0 1.4 720.089 -35.759)" stroke="#000" stroke-width=".575" fill="#f7c600"/><path d="M71.541 180.66l14.473.041s.227-1.878-1.512-3.02c7.58-1.042 5.611-7.729 11.96-8.108 1.232.19-3.317 2.843-3.317 2.843s-3.828 2.701-2.085 4.074c1.384 1.09 1.99-.663 2.179-1.99.19-1.327 6.159-2.179 5.306-5.97-1.421-3.127-9.76 2.084-9.76 2.084l-5.949-.033c-.371-.668-2.01-3.345-3.704-3.358-2.009.073-3.424 3.391-3.424 3.391h-13.456s-.461 3.452 6.361 4.116c1.536 2.006 2.727 2.567 4.062 3.086-.89.742-1.141 1.639-1.137 2.843z" fill-rule="evenodd" stroke="#000" stroke-width=".625" fill="#f7c600" transform="matrix(1.288 0 0 1.288 729.06 -29.376)"/><path d="M72.583 177.72l12.055-.041" stroke="#000" stroke-width=".625" fill="none" transform="matrix(1.288 0 0 1.288 729.06 -29.376)"/><path d="M67.062 170.61s.964 5.638 5.415 6.973" stroke="#000" stroke-width=".625" fill="none" transform="matrix(1.288 0 0 1.288 729.06 -29.376)"/><path d="M66.32 170.54c.445-2.151 1.261-2.522 2.151-5.267.148-2.671-2.151-2.374-1.484-4.08 1.187-1.855.593-3.635-1.632-5.045.445 2.448-2.893 4.748-2.893 6.751s1.706 1.558 1.484 4.599c.148 1.78-.445 1.335-.593 3.042h2.967z" fill-rule="evenodd" stroke="#000" stroke-width=".625" fill="url(#j)" transform="matrix(1.288 0 0 1.288 729.06 -29.376)"/><path d="M80.922 156.72c0 .942-.763 1.706-1.706 1.706-.942 0-1.706-.764-1.706-1.706s.763-1.706 1.706-1.706c.942 0 1.706.764 1.706 1.706z" fill-rule="evenodd" transform="matrix(1.288 0 0 1.288 728.965 -28.803)" stroke="#000" stroke-width=".625" fill="#f7c600"/></g><g><path d="M69.786 170.53l9.335-13.711 9.381 13.74" stroke="#f7c600" stroke-width="1pt" fill="none" transform="matrix(1.288 0 0 1.288 727.53 5.988)"/><path d="M80.922 156.72c0 .942-.763 1.706-1.706 1.706-.942 0-1.706-.764-1.706-1.706s.763-1.706 1.706-1.706c.942 0 1.706.764 1.706 1.706z" fill-rule="evenodd" transform="matrix(1.4 0 0 1.4 718.559 -.395)" stroke="#000" stroke-width=".575" fill="#f7c600"/><path d="M71.541 180.66l14.473.041s.227-1.878-1.512-3.02c7.58-1.042 5.611-7.729 11.96-8.108 1.232.19-3.317 2.843-3.317 2.843s-3.828 2.701-2.085 4.074c1.384 1.09 1.99-.663 2.179-1.99.19-1.327 6.159-2.179 5.306-5.97-1.421-3.127-9.76 2.084-9.76 2.084l-5.949-.033c-.371-.668-2.01-3.345-3.704-3.358-2.009.073-3.424 3.391-3.424 3.391h-13.456s-.461 3.452 6.361 4.116c1.536 2.006 2.727 2.567 4.062 3.086-.89.742-1.141 1.639-1.137 2.843z" fill-rule="evenodd" stroke="#000" stroke-width=".625" fill="#f7c600" transform="matrix(1.288 0 0 1.288 727.53 5.988)"/><path d="M72.583 177.72l12.055-.041" stroke="#000" stroke-width=".625" fill="none" transform="matrix(1.288 0 0 1.288 727.53 5.988)"/><path d="M67.062 170.61s.964 5.638 5.415 6.973" stroke="#000" stroke-width=".625" fill="none" transform="matrix(1.288 0 0 1.288 727.53 5.988)"/><path d="M66.32 170.54c.445-2.151 1.261-2.522 2.151-5.267.148-2.671-2.151-2.374-1.484-4.08 1.187-1.855.593-3.635-1.632-5.045.445 2.448-2.893 4.748-2.893 6.751s1.706 1.558 1.484 4.599c.148 1.78-.445 1.335-.593 3.042h2.967z" fill-rule="evenodd" stroke="#000" stroke-width=".625" fill="url(#k)" transform="matrix(1.288 0 0 1.288 727.53 5.988)"/><path d="M80.922 156.72c0 .942-.763 1.706-1.706 1.706-.942 0-1.706-.764-1.706-1.706s.763-1.706 1.706-1.706c.942 0 1.706.764 1.706 1.706z" fill-rule="evenodd" transform="matrix(1.288 0 0 1.288 727.435 6.561)" stroke="#000" stroke-width=".625" fill="#f7c600"/></g><path d="M818.97 330.26l12.028-17.665 12.086 17.702" stroke="#f7c600" stroke-width="1.288" fill="none"/><path d="M833.41 323.66c0 1.319-1.069 2.389-2.389 2.389s-2.389-1.07-2.389-2.389c0-1.319 1.069-2.389 2.389-2.389 1.319 0 2.389 1.07 2.389 2.389z" fill-rule="evenodd" stroke="#000" stroke-width=".805" fill="#f7c600"/><path d="M821.23 343.31l18.647.053s.292-2.42-1.948-3.891c9.767-1.343 7.229-9.958 15.409-10.446 1.587.244-4.273 3.663-4.273 3.663s-4.932 3.48-2.686 5.25c1.783 1.405 2.564-.854 2.808-2.564.244-1.709 7.935-2.808 6.837-7.691-1.831-4.029-12.575 2.686-12.575 2.686l-7.665-.043c-.478-.86-2.59-4.31-4.772-4.326-2.588.094-4.411 4.368-4.411 4.368h-17.336s-.594 4.448 8.196 5.303c1.979 2.585 3.513 3.307 5.234 3.976-1.147.956-1.47 2.112-1.465 3.663z" fill-rule="evenodd" stroke="#000" stroke-width=".805" fill="#f7c600"/><path d="M822.57 339.52l15.531-.053" stroke="#000" stroke-width=".805" fill="none"/><path d="M815.46 330.37s1.242 7.264 6.977 8.985" stroke="#000" stroke-width=".805" fill="none"/><path d="M814.5 330.27c.573-2.772 1.625-3.25 2.772-6.786.191-3.441-2.772-3.058-1.912-5.257 1.529-2.389.765-4.683-2.103-6.499.573 3.154-3.728 6.117-3.728 8.698 0 2.581 2.198 2.007 1.912 5.926.191 2.294-.573 1.72-.765 3.919h3.823z" fill-rule="evenodd" stroke="#000" stroke-width=".805" fill="url(#l)"/><path d="M833.22 313.05c0 1.214-.984 2.198-2.197 2.198-1.214 0-2.198-.984-2.197-2.198 0-1.214.984-2.198 2.197-2.198s2.198.984 2.197 2.198z" fill-rule="evenodd" stroke="#000" stroke-width=".805" fill="#f7c600"/><g><path d="M69.786 170.53l9.335-13.711 9.381 13.74" stroke="#f7c600" stroke-width="1pt" fill="none" transform="matrix(1.288 0 0 1.288 728.87 75.569)"/><path d="M80.922 156.72c0 .942-.763 1.706-1.706 1.706-.942 0-1.706-.764-1.706-1.706s.763-1.706 1.706-1.706c.942 0 1.706.764 1.706 1.706z" fill-rule="evenodd" transform="matrix(1.4 0 0 1.4 719.899 69.186)" stroke="#000" stroke-width=".575" fill="#f7c600"/><path d="M71.541 180.66l14.473.041s.227-1.878-1.512-3.02c7.58-1.042 5.611-7.729 11.96-8.108 1.232.19-3.317 2.843-3.317 2.843s-3.828 2.701-2.085 4.074c1.384 1.09 1.99-.663 2.179-1.99.19-1.327 6.159-2.179 5.306-5.97-1.421-3.127-9.76 2.084-9.76 2.084l-5.949-.033c-.371-.668-2.01-3.345-3.704-3.358-2.009.073-3.424 3.391-3.424 3.391h-13.456s-.461 3.452 6.361 4.116c1.536 2.006 2.727 2.567 4.062 3.086-.89.742-1.141 1.639-1.137 2.843z" fill-rule="evenodd" stroke="#000" stroke-width=".625" fill="#f7c600" transform="matrix(1.288 0 0 1.288 728.87 75.569)"/><path d="M72.583 177.72l12.055-.041" stroke="#000" stroke-width=".625" fill="none" transform="matrix(1.288 0 0 1.288 728.87 75.569)"/><path d="M67.062 170.61s.964 5.638 5.415 6.973" stroke="#000" stroke-width=".625" fill="none" transform="matrix(1.288 0 0 1.288 728.87 75.569)"/><path d="M66.32 170.54c.445-2.151 1.261-2.522 2.151-5.267.148-2.671-2.151-2.374-1.484-4.08 1.187-1.855.593-3.635-1.632-5.045.445 2.448-2.893 4.748-2.893 6.751s1.706 1.558 1.484 4.599c.148 1.78-.445 1.335-.593 3.042h2.967z" fill-rule="evenodd" stroke="#000" stroke-width=".625" fill="url(#m)" transform="matrix(1.288 0 0 1.288 728.87 75.569)"/><path d="M80.922 156.72c0 .942-.763 1.706-1.706 1.706-.942 0-1.706-.764-1.706-1.706s.763-1.706 1.706-1.706c.942 0 1.706.764 1.706 1.706z" fill-rule="evenodd" transform="matrix(1.288 0 0 1.288 728.775 76.142)" stroke="#000" stroke-width=".625" fill="#f7c600"/></g><g><path d="M69.786 170.53l9.335-13.711 9.381 13.74" stroke="#f7c600" stroke-width="1pt" fill="none" transform="matrix(1.288 0 0 1.288 627.25 43.056)"/><path d="M80.922 156.72c0 .942-.763 1.706-1.706 1.706-.942 0-1.706-.764-1.706-1.706s.763-1.706 1.706-1.706c.942 0 1.706.764 1.706 1.706z" fill-rule="evenodd" transform="matrix(1.4 0 0 1.4 618.279 36.673)" stroke="#000" stroke-width=".575" fill="#f7c600"/><path d="M71.541 180.66l14.473.041s.227-1.878-1.512-3.02c7.58-1.042 5.611-7.729 11.96-8.108 1.232.19-3.317 2.843-3.317 2.843s-3.828 2.701-2.085 4.074c1.384 1.09 1.99-.663 2.179-1.99.19-1.327 6.159-2.179 5.306-5.97-1.421-3.127-9.76 2.084-9.76 2.084l-5.949-.033c-.371-.668-2.01-3.345-3.704-3.358-2.009.073-3.424 3.391-3.424 3.391h-13.456s-.461 3.452 6.361 4.116c1.536 2.006 2.727 2.567 4.062 3.086-.89.742-1.141 1.639-1.137 2.843z" fill-rule="evenodd" stroke="#000" stroke-width=".625" fill="#f7c600" transform="matrix(1.288 0 0 1.288 627.25 43.056)"/><path d="M72.583 177.72l12.055-.041" stroke="#000" stroke-width=".625" fill="none" transform="matrix(1.288 0 0 1.288 627.25 43.056)"/><path d="M67.062 170.61s.964 5.638 5.415 6.973" stroke="#000" stroke-width=".625" fill="none" transform="matrix(1.288 0 0 1.288 627.25 43.056)"/><path d="M66.32 170.54c.445-2.151 1.261-2.522 2.151-5.267.148-2.671-2.151-2.374-1.484-4.08 1.187-1.855.593-3.635-1.632-5.045.445 2.448-2.893 4.748-2.893 6.751s1.706 1.558 1.484 4.599c.148 1.78-.445 1.335-.593 3.042h2.967z" fill-rule="evenodd" stroke="#000" stroke-width=".625" fill="url(#n)" transform="matrix(1.288 0 0 1.288 627.25 43.056)"/><path d="M80.922 156.72c0 .942-.763 1.706-1.706 1.706-.942 0-1.706-.764-1.706-1.706s.763-1.706 1.706-1.706c.942 0 1.706.764 1.706 1.706z" fill-rule="evenodd" transform="matrix(1.288 0 0 1.288 627.155 43.629)" stroke="#000" stroke-width=".625" fill="#f7c600"/></g><g stroke="#000"><path d="M781.521 346.727s4.866 11.219 10.408 4.325l3.514-9.867-12.436-6.758-3.65 7.705 2.163 4.596z" fill-rule="evenodd" fill="#f7c600"/><path d="M792.202 345.245s.811.135 1.487-1.081-1.487-1.757-2.433-3.109l-1.081 2.163 2.028 2.027z" fill-rule="evenodd" fill="#ffc6b5"/><path d="M764.076 342.269l-10.949 5.947s-5.407 1.081-5.812 0c-.406-1.081.135-2.028 2.974-2.163 2.839-.135 10.543-7.164 10.543-7.164l3.244 3.379z" fill-rule="evenodd" fill="#ffc6b5"/><path d="M764.218 147.759s.27 2.568.405 3.92-2.163 4.19-2.298 4.055-1.217.135-1.081.946l1.757 1.081s-.676 2.838 0 2.974c.676.135-1.757 3.65 0 4.596 1.757.946 4.731 2.163 6.083 1.892 1.352-.27 0 5.272 0 5.272l-3.785 8.11 20.815-2.163-4.325-6.894s-2.027-1.352-1.487-5.272c.541-3.92-.27-21.627-.27-21.627l-14.868-2.028-.946 5.136z" fill-rule="evenodd" fill="#ffc6b5"/><path d="M760.43 178.578s-6.758 3.109-6.488 11.489c-1.757 8.11-2.703 16.22-2.703 16.22s-7.975 9.056-10.408 12.3c-2.433 3.244-6.083 9.867-7.434 11.624s-6.623 7.57-6.488 9.732c.135 2.163-1.217 11.76 4.055 12.841 1.352.541 5.677-11.084 5.677-11.084s.27-5.001-1.217-5.947l3.244-4.19s9.056-6.623 11.084-8.245l7.569-7.84 3.109-36.901z" fill-rule="evenodd" fill="#ffc6b5"/><path d="M768.135 172.225s1.757 4.731 5.677 3.92c3.92-.811 8.516-4.461 8.516-4.461s3.65-.135 4.19.405c.541.541 9.867 9.597 9.597 12.436-.27 2.839-4.325 2.027-5.812 3.92s-3.92 6.623-3.244 10.138 2.703 8.11 2.433 9.867-1.757 2.298-1.757 3.244c0 .946 1.217 2.568 1.217 4.325s-1.622 4.325-1.352 6.083c.27 1.757.405 6.894.405 6.894l-.405 23.79s1.352.811 1.487 2.163c.135 1.352 9.191 40.685 9.191 40.685s-.405 1.217-1.352 1.081 3.65 6.083 3.785 7.84 4.731 15.545 4.596 17.437c-.135 1.892-.811 6.083-1.217 6.218-.405.135 2.974 8.651 2.433 10.002-.541 1.352-6.083 1.217-6.083 1.217l-1.487-.27s.135 1.757-.946 1.892l-9.056-.406s-2.298 3.514-3.65 3.379c-1.352-.135-3.109-2.568-3.514-2.163-.405.405 1.217 2.703.811 3.379-.405.676-7.299 2.163-8.651-1.081-1.352-3.244.811-2.433.406-3.109-.406-.676-3.514-2.433-4.461-1.892s2.433 1.352 2.298 2.703c-.135 1.352-2.974 3.379-4.055 3.379s-3.65-5.001-7.434-4.46c-3.785.541-6.218 1.487-6.218 1.487s-4.461 1.892-6.353 1.487c-1.892-.405-2.703-1.892-2.703-2.703 0-.811 1.352-4.325 1.217-5.407s-1.217-2.163-1.217-3.785c0-1.622 3.109-7.164 3.109-7.164l-.135-24.871s-2.839 0-2.974-1.757 4.325-39.334 5.001-41.767c.676-2.433 2.433-11.084 2.433-11.084s-2.028.946-2.163 0l6.083-22.437s1.081-10.678 1.081-13.517c0-2.838-.541-6.758-.541-6.758s-5.549-2.349-5.677-5.947c-.508-5.725 5.272-8.921 5.948-10.814l2.703-7.569s2.974-5.136 7.84-5.948z" fill-rule="evenodd" fill="#fff"/><path d="M766.112 343.892s-13.111 6.894-15.003 7.434c-1.892.541-3.109-2.298-1.217-2.839 1.892-.541 4.866-.811 4.866-.811s-4.461-3.514-4.325-3.65c.135-.135 6.083-2.298 6.218-2.298s1.892 3.514 3.109 3.244l4.731-2.974s1.892 2.163 1.622 1.892z" fill-rule="evenodd" fill="#f7c600"/><path d="M784.587 347.667c1.24 1.599 1.724 4.372 4.563 2.75 2.838-1.622-1.454-4.633-1.454-4.633l-3.109 1.883z" fill-rule="evenodd" fill="#ffc6b5"/><path d="M789.767 347.397s1.352 1.081 2.568-.135l-2.433-3.785-1.757 2.028 1.622 1.892z" fill-rule="evenodd" fill="#ffc6b5"/><path d="M785.708 177.495s-12.03 7.705-11.76 10.408" fill="none"/><path d="M788.414 178.847s-2.703 2.974-2.838 2.974" fill="none"/><path d="M792.06 182.091s-5.948 4.866-5.001 7.975" fill="none"/><path d="M763.947 176.82s-1.757 3.65-1.352 4.866c.406 1.217 3.379 5.812 3.785 8.651.405 2.838 0 4.866 0 4.866" fill="none"/><path d="M760.842 183.578s.541 4.325 1.352 5.136c.811.811 2.974 4.461 3.244 5.947" fill="none"/><path d="M759.76 201.555s3.514 1.757 6.758-5.001" fill="none"/><path d="M771.781 191.824c-.135 0-2.568 6.623 1.757 9.056s7.569 2.163 9.462 1.487c1.892-.676 3.92-1.892 3.92-1.892" fill="none"/><path d="M769.9 199.934s.27 8.921 13.381 17.708" fill="none"/><path d="M770.441 208.314s-.135 7.84 5.001 11.354" fill="none"/><path d="M767.735 199.123s-3.92 11.624-7.029 12.841" fill="none"/><path d="M766.511 207.639s-.135 8.381-1.217 11.354" fill="none"/><path d="M764.218 221.02s2.703 3.379 5.677 3.109c2.974-.27 4.19-3.785 6.218-3.244 2.028.541 3.92 2.163 8.651 1.757" fill="none"/><path d="M778.004 226.156s0 6.894 1.217 7.569l.676 7.029" fill="none"/><path d="M761.512 222.913s-.135 6.488-.946 8.786c-.811 2.298-2.433 6.218-2.163 9.597" fill="none"/><path d="M753.266 245.085c.676-.27 2.974-2.298 2.974-2.298" fill="none"/><path d="M757.454 244.273s-5.812 24.871-4.19 39.739" fill="none"/><path d="M758.807 245.484s-2.974 18.653-1.622 22.168" fill="none"/><path d="M757.325 244.943c.135 0 11.354.811 11.354.811" fill="none"/><path d="M770.299 244.273s3.109 1.622 7.434 1.352" fill="none"/><path d="M768.946 253.331s-.541 31.899-1.352 38.929" fill="none"/><path d="M785.58 260.623s3.514 27.98 5.542 30.548" fill="none"/><path d="M778.815 264.14s2.163 24.736 3.379 26.899" fill="none"/><path d="M748.139 299.687s4.19-1.352 7.975-5.407c4.326 5.812 10.949.27 10.949.27s10.273 7.029 14.868-.811c7.029 4.596 10.543-.676 10.543-.676s2.568 3.92 4.461 3.514" fill="none"/><path d="M785.708 299.288s5.272 24.736 13.111 31.764" fill="none"/><path d="M758.536 296.711s.676 20.681 1.892 35.279" fill="none"/><path d="M757.595 320.096s-.676 13.517-1.487 14.464" fill="none"/><path d="M749.62 335.917s1.487 5.812 8.921.406c7.434-5.407 7.569 2.028 7.84 2.838.27.811 1.487 6.623 4.325 1.757" fill="none"/><path d="M776.651 332.941s-1.217 12.03 9.462 3.244c10.678-8.786 12.436-.135 12.706 2.568" fill="none"/><path d="M763.806 146.947s2.974.405 4.596-.541c1.622-.946 3.514-1.352 4.866.541l2.298 1.757s-2.028 5.001 0 5.542c2.028.541 2.974.541 3.109 1.217.135.676-1.757 2.163-1.217 2.838.541.676 1.487 1.487 1.622 2.028.135.541-1.217 2.838-.811 3.379.406.541 1.622 2.703 2.433 2.703.811 0 .27 3.379 2.703 2.568l2.298-2.974s2.568-.405 3.244-2.703c.676-2.298 2.298-2.838 2.298-2.838s3.244-1.757-1.081-4.461c0-18.924-12.436-16.896-12.436-16.896s-1.487-3.379-3.92-2.974c-2.433.406-2.568 3.244-4.325 2.974-1.757-.27-2.163-1.487-2.298-1.352-.135.135-1.622 2.838-1.622 3.514 0 .676-4.731-.946-4.325 2.568s2.703 3.379 2.568 3.109z" fill-rule="evenodd" fill="#9c5100"/><path d="M776.793 142.352s-.946 5.947 5.407 5.407c-.811 3.244 1.622 4.325 1.622 4.325" fill="none"/><path d="M788.543 155.733c.135 0 2.839 1.757-.135 3.92" fill="none"/><path d="M779.357 160.464s1.352 1.622 2.838 1.217c1.487-.405 3.92 1.487 3.92 1.487s2.028.676 2.298.27" fill="none"/><path d="M771.111 165.601s4.596 1.757 7.569-5.542" fill="none"/><path d="M762.594 157.896l2.703.135" fill="none"/><path d="M763.007 160.599h2.433l-2.163.946" fill="none"/><path d="M766.382 153.03c.405 0 1.892-.541 2.163-.135.27.406-1.622.676-2.163.135z" fill="none"/><path d="M795.577 185.145c.135 0 4.461 13.381 5.001 16.761.541 3.379 2.298 16.896 1.622 18.789-.676 1.892-7.569 10.949-8.381 13.246-.811 2.298-5.677 11.084-5.677 11.084s-1.217 8.651-1.757 9.056c-.541.406 1.395 2.529 1.217 3.244-.268.805-3.92 4.596-5.542 4.19-1.622-.406-4.19-2.298-4.325-4.055s.135-7.569 1.352-9.056 7.569-16.49 7.975-17.437c.405-.946 5.812-12.706 5.947-14.733.135-2.028-1.682-6.716-3.593-8.436-4.254-12.521-2.583-20.072 6.162-22.653z" fill-rule="evenodd" fill="#ffc6b5"/><path d="M732.601 243.139l.212 5.924" fill="none"/><path d="M727.05 242.701s3.798 6.352 3.48 9.736" fill="none"/><path d="M777.952 255.972s2.84-.298 2.75 4.443c1.813-5.889 5.5-6.029 5.5-6.029" fill="none"/></g><path d="M768.25 391.32c57.086-1.586 93.954-42.814 93.557-43.211-.396-.396 7.532-11.496 13.875-9.911 6.343 1.586 15.461 20.218 26.561 24.182 5.55 8.721-1.586 16.65-3.964 18.236-2.378 1.586-13.082 5.947-14.668-.396-1.586-6.343-4.757-5.154-4.757-5.154s-50.743 49.554-109.41 47.572c-60.65.4-110.6-47.57-110.6-47.57l-4.361 4.757s-4.757 5.154-7.136 4.757c-2.379-.396-12.686-7.136-13.479-13.875-.793-6.739 6.343-11.1 6.343-11.1s17.443-13.479 19.425-20.614c3.964-3.964 11.496 2.775 11.496 2.775s45.986 52.725 97.125 49.554z" fill-rule="evenodd" stroke="#000" stroke-width="1.288pt" fill="#f7c600"/><path d="M639.02 360.66s4.717-1.258 6.447.708c1.73 1.965 13.601 13.601 13.601 13.601" stroke="#000" stroke-width="1.288pt" fill="none"/><path d="M649.79 366.16l-4.717 3.538s11.871 2.358 9.198 10.142" stroke="#000" stroke-width="1.288pt" fill="none"/><path d="M897.99 360.26s-2.359-1.258-6.054 1.494c-3.695 2.752-13.051 13.208-13.051 13.208" stroke="#000" stroke-width="1.288pt" fill="none"/><path d="M887.38 365.85l5.11 3.931s-10.692.708-8.334 10.849" stroke="#000" stroke-width="1.288pt" fill="none"/><path d="M699.45 373.24l-.344.482c-.717-.354-1.535-.42-2.453-.197-.674.174-1.945.807-3.812 1.9l-15.708 9.157-.43-.307 3.957-18.363c.478-2.214.697-3.558.655-4.033-.033-.469-.364-.987-.994-1.554l.344-.482 8.467 6.038-.344.482-.287-.204c-.764-.545-1.353-.821-1.768-.828-.293-.012-.529.108-.708.359-.112.156-.21.368-.295.634-.079.258-.25.994-.514 2.208l-2.506 11.478 9.075-5.339c1.092-.649 1.8-1.101 2.125-1.354.325-.253.568-.493.729-.718.186-.261.28-.54.284-.839.003-.299-.092-.596-.287-.893-.268-.414-.711-.841-1.327-1.28l.344-.482 5.797 4.134m5.641 27.295l-.284.519-9.953-5.443.284-.519.632.345c.552.302 1.05.447 1.495.435.315.002.625-.12.93-.367.226-.168.6-.73 1.122-1.684l6.848-12.522c.532-.973.813-1.61.844-1.909.03-.3-.065-.625-.286-.977-.206-.356-.576-.68-1.11-.972l-.632-.345.284-.519 9.953 5.443-.284.519-.632-.345c-.552-.302-1.05-.447-1.495-.435-.315-.002-.63.118-.944.359-.226.168-.6.73-1.122 1.684l-6.848 12.522c-.532.973-.813 1.61-.844 1.909-.021.305.072.635.279.991.221.352.598.674 1.132.965l.632.345m36.36-8.528l-2.566 7.205-.558-.199c.028-2.209-.448-4.066-1.43-5.571-.981-1.504-2.271-2.541-3.869-3.11-1.527-.544-2.952-.565-4.275-.062-1.319.493-2.463 1.433-3.433 2.82-.97 1.387-1.743 2.889-2.319 4.507-.698 1.959-1.079 3.76-1.143 5.402s.293 2.992 1.071 4.05c.788 1.062 1.89 1.845 3.307 2.35.492.175 1.013.304 1.561.386.562.076 1.15.11 1.764.102l1.514-4.25c.286-.804.415-1.341.387-1.611-.025-.281-.179-.579-.462-.895-.274-.313-.657-.557-1.149-.732l-.528-.188.199-.558 9.933 3.538-.199.558c-.772-.218-1.337-.301-1.695-.247-.345.047-.662.223-.952.527-.158.159-.37.61-.635 1.353l-1.514 4.25c-1.514.118-3.031.07-4.552-.144-1.514-.2-3.03-.57-4.547-1.11-1.939-.691-3.459-1.526-4.559-2.507-1.086-.987-1.97-2.083-2.65-3.288-.667-1.211-1.085-2.453-1.255-3.725-.209-1.637-.008-3.315.604-5.033 1.095-3.075 3.101-5.287 6.016-6.638 2.916-1.351 6.011-1.443 9.287-.276 1.015.362 1.901.768 2.657 1.218.413.238 1.045.723 1.893 1.456.862.726 1.384 1.121 1.565 1.186.281.1.578.093.891-.022.316-.125.677-.438 1.082-.939l.558.199m15.318 24.587l-.089.585-11.216-1.699.089-.585.712.108c.622.094 1.14.059 1.553-.105.297-.106.546-.327.748-.663.154-.236.313-.891.476-1.967l2.138-14.111c.166-1.097.212-1.791.138-2.083-.074-.292-.276-.565-.604-.82-.316-.264-.775-.441-1.376-.532l-.712-.108.089-.585 11.216 1.699-.089.585-.712-.108c-.622-.094-1.14-.059-1.553.105-.297.106-.551.326-.764.661-.154.236-.313.891-.476 1.967l-2.138 14.111c-.166 1.097-.212 1.791-.138 2.083.085.293.286.572.602.836.328.255.793.428 1.394.519l.712.108m29.114-7.072l-.427 7.648-19.239.982-.03-.591.719-.037c.629-.032 1.129-.17 1.501-.413.269-.163.469-.43.6-.8.104-.262.128-.936.073-2.022l-.727-14.253c-.057-1.108-.15-1.797-.282-2.068-.131-.271-.383-.498-.756-.682-.362-.195-.847-.277-1.454-.246l-.719.037-.03-.591 11.553-.589.03.591-.943.048c-.629.032-1.129.17-1.501.413-.269.163-.475.43-.616.8-.104.262-.128.936-.073 2.022l.704 13.806c.057 1.108.157 1.813.3 2.115.143.292.405.503.785.633.271.082.918.097 1.941.045l1.806-.092c1.151-.059 2.099-.31 2.845-.754s1.374-1.117 1.884-2.019c.52-.902.987-2.219 1.401-3.949l.655-.033m21.045-3.651l-7.343 2.194-.269 2.285c-.085.76-.061 1.36.07 1.799.174.583.537.942 1.09 1.077.325.081 1.041.001 2.149-.241l.169.567-6.914 2.066-.169-.567c.713-.335 1.234-.825 1.565-1.469.328-.655.608-1.879.839-3.674l2.48-18.809.291-.087 12.589 14.808c1.198 1.401 2.089 2.243 2.674 2.524.442.213.988.25 1.637.112l.169.567-10.057 3.004-.169-.567.414-.124c.807-.241 1.341-.523 1.601-.846.176-.231.218-.499.127-.806-.055-.184-.142-.364-.261-.54-.048-.086-.316-.423-.803-1.012l-1.878-2.261m-.86-.979l-5.236-6.234-1.05 8.112 6.285-1.878m27.726-28.253l2.781 5.172-.507.273c-.942-1.032-1.735-1.707-2.38-2.027-.649-.329-1.377-.477-2.182-.444-.448.023-1.118.274-2.011.754l-1.423.765 7.925 14.741c.525.977.905 1.56 1.14 1.749.244.184.572.286.983.307.415.007.896-.136 1.44-.429l.634-.341.28.521-10.006 5.379-.28-.521.634-.341c.554-.298.948-.637 1.18-1.016.174-.263.245-.592.214-.987-.018-.281-.284-.901-.8-1.859l-7.925-14.741-1.381.743c-1.287.692-2.075 1.467-2.365 2.325-.408 1.2-.342 2.563.2 4.089l-.535.288-2.781-5.172 17.164-9.228m13.014-7.716l5.319 7.051.345-.26c1.099-.829 1.635-1.774 1.608-2.836s-.479-2.318-1.358-3.766l.485-.366 6.841 9.069-.485.366c-.847-.911-1.675-1.556-2.482-1.936-.799-.386-1.496-.522-2.091-.407-.601.106-1.315.471-2.141 1.094l3.681 4.88c.719.954 1.198 1.508 1.435 1.663.246.149.531.208.855.177.324-.031.733-.232 1.227-.605l1.035-.78c1.618-1.22 2.63-2.571 3.035-4.053.414-1.488.256-3.159-.475-5.013l.473-.356 3.374 6.093-14.971 11.292-.356-.473.575-.434c.502-.379.839-.774 1.011-1.184.131-.286.148-.619.048-.999-.06-.275-.418-.847-1.073-1.715l-8.595-11.394c-.591-.783-.975-1.248-1.153-1.395-.31-.234-.641-.345-.993-.333-.503.006-1.036.22-1.598.644l-.575.434-.357-.473 14.498-10.936 3.864 5.122-.485.366c-1.191-1.065-2.218-1.7-3.08-1.905-.854-.211-1.786-.136-2.796.225-.593.206-1.544.804-2.856 1.794l-1.788 1.349"/><path d="M664.42 374.87c70.909 57.515 140.41 58.57 208.41 0" fill="none"/></g></g></svg>