<svg xmlns="http://www.w3.org/2000/svg" id="flag-icon-css-ws" width="512" height="512">
  <g fill-rule="evenodd" stroke-width="1pt">
    <path fill="red" d="M0 0h512v512H0z"/>
    <path fill="#00006b" d="M0-1h256v128H0z"/>
    <path fill="#fff" d="M132.52 116.57l-10.15-6.85-9.73 6.97 3.1-12.22-9.35-7.53 12.07-.7 3.96-11.62 4.36 11.78 11.78.35-9.36 7.99zM130.8 35.3l-8.13-5.22-7.97 5.18 2.21-9.73-7.15-6.36 9.5-.8 3.54-9.11 3.66 9.24 9.35.73-7.24 6.5zm-35.9 29.25L87 59.12l-8.08 5.42 2.51-9.5-7.44-6.33 9.45-.45 3.48-9.33 3.33 9.22 9.59.56-7.4 6.16zm71.97-6.53l-7.59-4.9-7.38 4.96 2.13-9.03-6.8-5.78 8.9-.68 3.17-8.52 3.37 8.6 8.76.5-6.8 6zm-21.22 21.37l-5.05-3.15-5.04 3.18 1.31-5.98-4.46-4.01 5.87-.55 2.28-5.66 2.31 5.64 5.88.52-4.44 4.03z"/>
  </g>
</svg>
