<svg xmlns="http://www.w3.org/2000/svg" id="flag-icon-css-ws" width="512" height="512">
  <g fill-rule="evenodd" stroke-width="1pt">
    <path fill="#ce1126" d="m0 0h512v512h-512z"/>
    <path fill="#002b7f" d="m0-1h329.76v262.51h-329.76z"/>
    <path fill="#fff" d="m185.38 242.35-21.123-14.431-20.496 14.64 6.4834-25.515-19.45-15.895 25.097-1.464 8.3657-24.261 9.2023 24.679 24.679 0.62742-19.659 16.731zm-3.5554-170.03-16.941-10.875-16.731 10.875 4.6011-20.496-14.849-13.176 19.869-1.6731 7.32-19.032 7.7383 19.241 19.45 1.464-15.058 13.594zm-75.082 61.279-16.522-11.712-16.731 11.294 5.0194-19.869-15.477-13.176 19.659-0.83657 7.32-19.659 7.1108 19.241 19.869 1.2549-15.477 12.967zm150.58-13.803-15.895-10.248-15.477 10.457 4.392-18.823-14.222-12.13 18.823-1.464 6.4834-17.777 7.1108 17.986 18.195 1.0457-14.222 12.549zm-44.547 44.757-10.457-6.6926-10.457 6.6926 2.7188-12.549-9.4114-8.3657 12.339-1.0457 4.8103-11.921 4.8103 11.921 12.13 1.0457-9.2023 8.3657z"/>
  </g>
</svg>
