<svg xmlns="http://www.w3.org/2000/svg" id="flag-icon-css-ws" width="512" height="512">
  <g fill-rule="evenodd" stroke-width="1pt">
    <path fill="red" d="M0 0h512v512H0z"/>
    <path fill="#00006b" d="M0-1h256v128H0z"/>
    <path fill="#fff" d="M132.5 116.6l-10.1-6.9-9.8 7 3.1-12.2-9.3-7.6 12-.7 4-11.6 4.4 11.8 11.8.3-9.4 8zm-1.7-81.3l-8.1-5.2-8 5.2 2.2-9.8-7.1-6.3 9.5-.8 3.5-9.1 3.7 9.2 9.3.7-7.2 6.5zM94.9 64.6L87 59l-8 5.4 2.4-9.5-7.4-6.3 9.4-.4 3.5-9.4 3.4 9.2 9.5.6-7.4 6.2zm72-6.6l-7.6-4.9-7.4 5 2.1-9-6.8-5.8 9-.7 3.1-8.5 3.4 8.6 8.7.5-6.8 6zm-21.3 21.4l-5-3.2-5 3.2 1.3-6-4.5-4 5.9-.5 2.3-5.7 2.3 5.7 5.8.5-4.4 4z"/>
  </g>
</svg>
