<svg xmlns="http://www.w3.org/2000/svg" height="512" width="512" version="1">
  <g fill-rule="evenodd" clip-path="url(#a)">
    <path d="M-71.866 407.415v-303.35l225.853 151.597-225.853 151.763z"/>
    <path d="M82.244 511.678l253.563-170.611h360.407v170.611h-613.97z" fill="#00c"/>
    <path d="M65.942-.281l630.252.012v170.639h-360.407s-266.465-172.339-269.844-170.652z" fill="#f00"/>
    <path d="M-71.866 63.719v40.321l225.853 151.597-225.853 151.763v40.319l284.467-192.082-284.467-191.918z" fill="#fc0"/>
    <path d="M-71.866 63.719v-64h94.9l301.343 203.839h371.814v104.241h-371.814l-301.343 203.811h-94.9v-63.891l284.467-192.082-284.467-191.918z" fill="#093"/>
    <path d="M23.034-.281h59.199l253.563 170.639h360.407v33.2h-371.814l-301.343-203.839z" fill="#fff"/>
    <path d="M23.034 511.678h59.199l253.563-170.611h360.407v-33.2h-371.814l-301.343 203.811z" fill="#fff"/>
  </g>
</svg>
