<svg xmlns="http://www.w3.org/2000/svg" height="512" width="512"><defs><clipPath id="a"><rect fill-opacity=".67" height="496.06" width="496.06" x="248.03"/></clipPath></defs><g fill-rule="evenodd" clip-path="url(#a)" transform="matrix(1.032 0 0 1.032 -256 0)"><rect height="496.06" width="744.09" fill="#198a00"/><rect height="317.82" width="87.321" y="178.21" x="656.77" fill="#ef7d00"/><rect height="317.89" width="87.227" y="178.06" x="569.56"/><rect height="317.81" width="89.074" y="178.26" x="480.51" fill="#de2010"/><g stroke="#000" fill="#ef7d00"><path d="M685.637 63.559s32.869-14.045 36.054-16.941c1.448 1.738-13.176 19.402-41.556 25.918 25.773-6.081 47.783-25.194 52.271-24.615 1.303.29 1.013 18.679-58.063 34.606 40.832-10.715 64.579-30.407 64.289-28.235.29.434-4.054 15.493-39.818 27.222 9.991-2.317 37.067-18.823 36.778-15.638.869 1.303-26.208 36.054-75.146 24.76 39.095 10.135 64.433-14.335 68.054-13.901.724.145-7.24 21.43-56.47 22.733 23.602-2.461 16.796-.145 16.796-.145s-13.901 10.86-30.697 3.476c13.176 3.62 14.624 3.765 14.914 4.923-.869 1.448-11.728 3.62-22.153-2.027 8.398 3.475 15.927 4.055 16.072 5.358-.144.434-5.502 3.475-10.28 1.303s-48.796-29.249-48.796-29.249l75.001-20.561 2.751 1.014z"/><path d="M597.459 136.803c-6.595 0-6.777 5.869-6.777 5.869s-.544.424-.181 3.268c1.089-1.937 1.634-2.542 1.634-2.542.726.121 3.752 1.029 8.532-2.723-4.357 4.538-1.754 6.232-1.754 6.232s-1.029 3.57 2.299 4.297c-1.028-1.453-.423-2.723-.423-2.723s4.659-.484 4.357-6.172c.182 5.143 2.965 6.414 2.965 6.414s0 2.844 3.025 3.087c-1.633-1.453-1.271-3.692-1.271-3.692s3.933-2.844.605-7.685c1.997-1.15 3.631-4.357 3.631-4.357s-2.723-1.15-3.993-2.118c-.606-1.271-.061-8.23-.061-8.23l-1.634-9.016-4.66 14.039c.181-1.997.303 6.051-6.293 6.051z"/><path d="M630.036 116.551c.144.145 4.923 5.503 9.556 5.213 1.737-1.448-3.62-4.633-3.62-5.357 1.882 1.738 9.846 8.543 14.914 6.081 2.027-2.896-3.62-2.461-9.847-10.281 4.344 2.896 15.204 9.267 20.272 6.806 2.172-2.317-11.294-9.557-15.783-15.204l-11.583-5.936-15.783 12.887 11.873 5.791z"/><path d="M612.224 72.536s5.357-3.185 26.787-1.593c2.317.29 14.624-4.199 18.534-5.502 6.226-1.158 26.063-5.502 31.421-9.556 3.765-.434-1.014 6.95-5.792 8.688-5.068 2.317-23.457 8.688-29.973 7.819 7.819.145 3.476 6.516-9.556 3.475 6.227 3.475 3.91 4.054 3.91 4.054s-11.004.579-13.9-1.882c7.385 2.751 4.344 3.765 4.344 3.765s-7.529.724-11.005-.869c5.357 1.593 2.606 2.606 2.606 2.606s-4.344.724-7.964-.579c-3.619-1.303-9.122-10.425-9.411-10.425z"/><path d="M620.816 119.555l.787 14.16s-.424.726-.787 1.15c-.363.423-10.045-1.513-8.714 5.869 0 3.026.061 3.812 2.118 5.507-.545-1.997-.363-3.388-.363-3.388s2.723 1.634 5.385-2.844c-1.815 4.417-.545 5.99-.121 6.112.424.787-.726 4.357 2.905 4.296-1.391-1.331-.726-3.268-.726-3.268s3.812-.604 2.481-7.503c1.392-1.392 1.936-.061 1.936-.061s.423 4.115 3.752 3.268c1.513.847-.242 3.086-.242 3.086s2.42.061 3.146-1.997c.726-2.057 1.573-5.749-2.421-7.261-.484-1.452 1.574-1.573 1.574-1.573s2.541.847 3.267 2.118.484-3.328-2.662-3.812c-3.873-.121-4.115-.908-4.115-1.089 0-.182-.666-10.287-.968-13.192l-6.233.423z"/><path d="M634.289 131.619c.048-.649-6.606-9.608-4.918-10.766 1.687.347 4.455 4.422 6.697 3.1-.679-1.588-2.682-.694-4.957-4.76-2.274-4.597-2.606-11.498-10.569-19.025 5.156 7.966 16.851 12.635 17.347 10.312s-10.299-11.106-9.746-13.223c2.147 4.347 12.984 14.034 20.97 13.231.547-1.865-6.539-5.629-8.363-9.143-5.101-3.427-18.752-15.194-19.025-17.922-4.967-7.245-8.068-9.437-9.512-10.271-.558-.657-.698-1.286-.807-1.685-3.084-7.27 1.001-9.63 3.391-9.979 1.967-.219 2.539.076 3.954-.61l-5.028-1.925c2.185 1.603 7.768.192 6.558 4.809 2.448-.931 7.655-7.127-5.902-8.525-4.412-5.062-22.552-7.971-27.093 14.121.362.31.552.564 1.706 1.426-5.733-2.77-21.183-4.912-26.75-5.811-15.046-4.341-30.671-14.801-32.172-13.514-2.009.891 9.089 11.217 8.512 11.445-9.623-5.611-18.415-9.586-26.594-13.204-5.755-2.151-11.519-7.159-12.155-6.206-2.118 4.387 9.226 15.416 11.337 16.713 2.11 1.241 18.707 8.94 18.462 9.036-24.997-11.346-29.188-13.403-30.442-14.711-2.204-.497-7.571-7.743-9.066-7.277-.819.804.823 12.255 12.752 17.394 1.944 1.417 25.569 9.892 25.337 10.556-.058.166-27.058-11.144-28.107-11.548-5.206-2.042-11.593-9.197-12.787-8.392-1.14.73 2.945 8.475 8.205 10.904 2.757 1.217 13.333 6.455 22.862 9.789.608.22-17.127-6.726-25.655-10.289-3.866-2.146-5.687-4.821-6.276-4.245-.871.575 1.407 12.016 28.809 18.472.722.307 9.646-2.114 9.205-1.793-.11.08-8.861 1.985-9.713 1.92-.758-.116-5.552.568-5.639.816-.29.774 1.737 4.87 15.885 4.016 1.809-.109 11.624-3.575 10.8-2.829-.412.373-13.366 4.582-14.353 4.665-.857.121-5.408.597-5.576 1.081-.205.66 3.368 3.576 10.966 4.043 6.727.357 19.511-4.111 19.254-3.821-.256.29-12.323 4.424-12.639 4.676-.437.247-4.855.487-5.01.826-.36.844 6.374 7.141 26.289.421-2.001 2.702-11.654 4.551-11.64 5.037-.045.353 2.127 2.451 5.502 3.202 1.687.375 3.998.299 6.108-.035 3.79-.759 7.785-2.258 12.861-6.949.606 1.472-12.679 8.195-12.055 8.837 2.881 2.671 12.45-.344 13.077-.695.627-.351 18.428-10.388 18.366-11.55.277 1.489-22.949 14.109-22.698 14.626 1.491 2.379 9.425-.125 9.804-.344.378-.218 10.125-5.484 10.392-5.639.266-.155-11.455 6.86-10.411 7.928-.505 4.556 18.306-3.144 19.781-4.103.737-.479-9.037 4.297-9.063 6.567 3.147 5.321 13.225 3.633 14.779 2.463.778-.586-.915 3.953-.37 3.541.19-.085 2.192-2.453 2.962-4.166-.245 1.487-1.35 3.829-1.995 6.516s-.83 5.72-1.716 8.941c-.203 1.415 6.21-2.767 5.279-12.764.549 5.2-2.025 14.923-1.352 15.428 1.347 1.011 5.072-4.842 5.448-8.8 1.106 1.999 3.427 6.172 5.424 7.133-.217-3.024.038-2.886-.861-5.858.518-3.946.591-9.408.716-15.576 5.427 10.395 7.591 14.785 6.075 22.746 1.614.673 4.191-5.557 3.983-8.763 2.072 8.909 11.016 10.245 11.159 9.986z"/><path d="M543.901 65.623s-3.694 2.791-8.29 2.627c1.149 4.596 10.67 1.067 10.67 1.067s-4.596 5.089-7.88 5.91c1.97 1.642 10.26 1.067 11.655.246 1.395-.821 3.858-4.022 3.858-4.022s-8.536 9.85-9.768 9.767c-.164 1.149 8.947.739 10.835-.985 1.887-1.724 6.648-4.268 6.648-4.268s-12.476 8.7-13.051 8.7c4.679 1.231 14.036-1.477 20.028-5.171-8.865 5.91-9.685 6.977-14.2 8.946 4.022.903 6.073 3.612 19.699-2.298 7.798-3.693 12.229-10.424 12.229-10.424-4.842 6.484-12.476 11.984-20.929 17.401-.493.985 9.028 5.006 21.176-7.634"/><path d="M609.892 93.036s.821 3.858 4.104 6.813c3.284 2.954 3.53 5.827 3.53 5.827"/><path d="M608.253 67.921s1.149 3.447 4.514 5.663c3.448 2.216 8.619 9.193 9.029 10.424.397 1.49 2.38 12.23 2.216 13.379"/><path d="M587.322 73.256c.246 1.313-4.843 7.961 2.134 15.759-6.32 7.715-6.32 8.7-6.32 8.7s3.529 1.97 9.85-3.448c10.424 12.805 6.95 18.664 6.95 18.664"/><path d="M599.106 103.895s-.96-1.375.752-6.512c1.541 1.857 3.255 2.253 4.007 3.005.751.752 8.621 1.891 9.122 7.151"/><path d="M608.354 55.682c0-.386-1.585-3.787-7.497.464 3.169.193 6.299 2.009 7.497-.464z"/><path d="M664.786 71.233c.29.145 17.665 3.909 23.457 2.027-7.385 9.846-22.154 3.185-22.154 3.185 7.239 2.172 7.53 2.027 9.846 4.054.724 1.882-13.321 1.014-17.955-1.593 12.887 4.054 13.176 3.765 13.611 5.357.58 2.172-21.14-.579-23.022-3.475 5.792 4.489 8.977 5.357 12.163 7.385-3.91 1.738-11.149 3.475-24.471-5.937 17.52 15.927 33.303 14.914 35.765 17.81-6.081 8.977-29.684-5.357-40.543-12.597-10.86-7.239 23.747 17.52 26.933 17.085-1.593 2.461-13.032.29-13.756-.869"/><path d="M669.277 87.884c-2.027.29-8.108.29-8.977.145"/><path d="M538.812 62.996s13.215 6.977 18.796 6.484c-1.477 1.395-3.694 1.97-3.694 1.97 1.396.575 5.253 2.627 11.081 1.313-1.396 1.395-3.201 2.955-3.201 2.955s5.007 1.888 10.67-1.067c-1.723 2.134-2.709 3.694-2.709 3.694l3.94.246"/></g></g></svg>