<svg xmlns="http://www.w3.org/2000/svg" id="flag-icon-css-ac" viewBox="0 0 640 480">
  <defs>
    <filter height="148.8" width="89.8" y="279.3" x="411" filterUnits="userSpaceOnUse" id="a" color-interpolation-filters="sRGB">
      <feColorMatrix result="source" values="-1 0 0 0 1 0 -1 0 0 1 0 0 -1 0 1 0 0 0 1 0"/>
    </filter>
    <filter height="38" width="19.2" y="239.4" x="409.2" filterUnits="userSpaceOnUse" id="b" color-interpolation-filters="sRGB">
      <feColorMatrix result="source" values="-1 0 0 0 1 0 -1 0 0 1 0 0 -1 0 1 0 0 0 1 0"/>
    </filter>
    <filter height="37.3" width="31.4" y="269.7" x="422.6" filterUnits="userSpaceOnUse" id="c" color-interpolation-filters="sRGB">
      <feColorMatrix result="source" values="-1 0 0 0 1 0 -1 0 0 1 0 0 -1 0 1 0 0 0 1 0"/>
    </filter>
    <filter height="27" width="27.6" y="247" x="440.3" filterUnits="userSpaceOnUse" id="d" color-interpolation-filters="sRGB">
      <feColorMatrix result="source" values="-1 0 0 0 1 0 -1 0 0 1 0 0 -1 0 1 0 0 0 1 0"/>
    </filter>
    <filter height="9.8" width="19" y="239.5" x="425.7" filterUnits="userSpaceOnUse" id="e" color-interpolation-filters="sRGB">
      <feColorMatrix result="source" values="-1 0 0 0 1 0 -1 0 0 1 0 0 -1 0 1 0 0 0 1 0"/>
    </filter>
    <filter height="22.5" width="19.4" y="249.8" x="417.9" filterUnits="userSpaceOnUse" id="f" color-interpolation-filters="sRGB">
      <feColorMatrix result="source" values="-1 0 0 0 1 0 -1 0 0 1 0 0 -1 0 1 0 0 0 1 0"/>
    </filter>
    <filter height="33.1" width="30.4" y="275.5" x="456.8" filterUnits="userSpaceOnUse" id="g" color-interpolation-filters="sRGB">
      <feColorMatrix result="source" values="-1 0 0 0 1 0 -1 0 0 1 0 0 -1 0 1 0 0 0 1 0"/>
    </filter>
    <filter height="39.8" width="37.1" y="303.3" x="428.8" filterUnits="userSpaceOnUse" id="h" color-interpolation-filters="sRGB">
      <feColorMatrix result="source" values="-1 0 0 0 1 0 -1 0 0 1 0 0 -1 0 1 0 0 0 1 0"/>
    </filter>
    <filter height="40.6" width="37.5" y="340.7" x="443.2" filterUnits="userSpaceOnUse" id="i" color-interpolation-filters="sRGB">
      <feColorMatrix result="source" values="-1 0 0 0 1 0 -1 0 0 1 0 0 -1 0 1 0 0 0 1 0"/>
    </filter>
    <filter height="40" width="30.4" y="379.6" x="470.9" filterUnits="userSpaceOnUse" id="j" color-interpolation-filters="sRGB">
      <feColorMatrix result="source" values="-1 0 0 0 1 0 -1 0 0 1 0 0 -1 0 1 0 0 0 1 0"/>
    </filter>
    <filter height="27" width="20.8" y="364.4" x="484.2" filterUnits="userSpaceOnUse" id="k" color-interpolation-filters="sRGB">
      <feColorMatrix result="source" values="-1 0 0 0 1 0 -1 0 0 1 0 0 -1 0 1 0 0 0 1 0"/>
    </filter>
    <filter height="24.3" width="24.2" y="338.9" x="478.6" filterUnits="userSpaceOnUse" id="l" color-interpolation-filters="sRGB">
      <feColorMatrix result="source" values="-1 0 0 0 1 0 -1 0 0 1 0 0 -1 0 1 0 0 0 1 0"/>
    </filter>
    <filter height="37.1" width="28.6" y="306.9" x="469" filterUnits="userSpaceOnUse" id="m" color-interpolation-filters="sRGB">
      <feColorMatrix result="source" values="-1 0 0 0 1 0 -1 0 0 1 0 0 -1 0 1 0 0 0 1 0"/>
    </filter>
    <filter height="23.2" width="21.8" y="297.6" x="386.1" filterUnits="userSpaceOnUse" id="n" color-interpolation-filters="sRGB">
      <feColorMatrix result="source" values="-1 0 0 0 1 0 -1 0 0 1 0 0 -1 0 1 0 0 0 1 0"/>
    </filter>
    <filter height="28" width="25" y="321.1" x="388.9" filterUnits="userSpaceOnUse" id="o" color-interpolation-filters="sRGB">
      <feColorMatrix result="source" values="-1 0 0 0 1 0 -1 0 0 1 0 0 -1 0 1 0 0 0 1 0"/>
    </filter>
    <filter height="32.1" width="26" y="346.6" x="404.2" filterUnits="userSpaceOnUse" id="p" color-interpolation-filters="sRGB">
      <feColorMatrix result="source" values="-1 0 0 0 1 0 -1 0 0 1 0 0 -1 0 1 0 0 0 1 0"/>
    </filter>
    <filter height="20.9" width="14.7" y="372.9" x="425.7" filterUnits="userSpaceOnUse" id="q" color-interpolation-filters="sRGB">
      <feColorMatrix result="source" values="-1 0 0 0 1 0 -1 0 0 1 0 0 -1 0 1 0 0 0 1 0"/>
    </filter>
    <filter height="148.8" width="89.8" y="279.3" x="16.6" filterUnits="userSpaceOnUse" id="r" color-interpolation-filters="sRGB">
      <feColorMatrix result="source" values="-1 0 0 0 1 0 -1 0 0 1 0 0 -1 0 1 0 0 0 1 0"/>
    </filter>
    <filter height="38" width="19.2" y="239.4" x="88.9" filterUnits="userSpaceOnUse" id="s" color-interpolation-filters="sRGB">
      <feColorMatrix result="source" values="-1 0 0 0 1 0 -1 0 0 1 0 0 -1 0 1 0 0 0 1 0"/>
    </filter>
    <filter height="37.3" width="31.4" y="269.7" x="63.4" filterUnits="userSpaceOnUse" id="t" color-interpolation-filters="sRGB">
      <feColorMatrix result="source" values="-1 0 0 0 1 0 -1 0 0 1 0 0 -1 0 1 0 0 0 1 0"/>
    </filter>
    <filter height="27" width="27.6" y="247" x="49.5" filterUnits="userSpaceOnUse" id="u" color-interpolation-filters="sRGB">
      <feColorMatrix result="source" values="-1 0 0 0 1 0 -1 0 0 1 0 0 -1 0 1 0 0 0 1 0"/>
    </filter>
    <filter height="9.8" width="19" y="239.5" x="72.6" filterUnits="userSpaceOnUse" id="v" color-interpolation-filters="sRGB">
      <feColorMatrix result="source" values="-1 0 0 0 1 0 -1 0 0 1 0 0 -1 0 1 0 0 0 1 0"/>
    </filter>
    <filter height="22.5" width="19.4" y="249.8" x="80.1" filterUnits="userSpaceOnUse" id="w" color-interpolation-filters="sRGB">
      <feColorMatrix result="source" values="-1 0 0 0 1 0 -1 0 0 1 0 0 -1 0 1 0 0 0 1 0"/>
    </filter>
    <filter height="33.1" width="30.4" y="275.5" x="30.2" filterUnits="userSpaceOnUse" id="x" color-interpolation-filters="sRGB">
      <feColorMatrix result="source" values="-1 0 0 0 1 0 -1 0 0 1 0 0 -1 0 1 0 0 0 1 0"/>
    </filter>
    <filter height="39.8" width="37.1" y="303.3" x="51.4" filterUnits="userSpaceOnUse" id="y" color-interpolation-filters="sRGB">
      <feColorMatrix result="source" values="-1 0 0 0 1 0 -1 0 0 1 0 0 -1 0 1 0 0 0 1 0"/>
    </filter>
    <filter height="40.6" width="37.5" y="340.7" x="36.7" filterUnits="userSpaceOnUse" id="z" color-interpolation-filters="sRGB">
      <feColorMatrix result="source" values="-1 0 0 0 1 0 -1 0 0 1 0 0 -1 0 1 0 0 0 1 0"/>
    </filter>
    <filter height="40" width="30.4" y="379.6" x="16.1" filterUnits="userSpaceOnUse" id="A" color-interpolation-filters="sRGB">
      <feColorMatrix result="source" values="-1 0 0 0 1 0 -1 0 0 1 0 0 -1 0 1 0 0 0 1 0"/>
    </filter>
    <filter height="27" width="20.8" y="364.4" x="12.4" filterUnits="userSpaceOnUse" id="B" color-interpolation-filters="sRGB">
      <feColorMatrix result="source" values="-1 0 0 0 1 0 -1 0 0 1 0 0 -1 0 1 0 0 0 1 0"/>
    </filter>
    <filter height="24.3" width="24.2" y="338.9" x="14.5" filterUnits="userSpaceOnUse" id="C" color-interpolation-filters="sRGB">
      <feColorMatrix result="source" values="-1 0 0 0 1 0 -1 0 0 1 0 0 -1 0 1 0 0 0 1 0"/>
    </filter>
    <filter height="37.1" width="28.6" y="306.9" x="19.8" filterUnits="userSpaceOnUse" id="D" color-interpolation-filters="sRGB">
      <feColorMatrix result="source" values="-1 0 0 0 1 0 -1 0 0 1 0 0 -1 0 1 0 0 0 1 0"/>
    </filter>
    <filter height="23.2" width="21.8" y="297.6" x="109.5" filterUnits="userSpaceOnUse" id="E" color-interpolation-filters="sRGB">
      <feColorMatrix result="source" values="-1 0 0 0 1 0 -1 0 0 1 0 0 -1 0 1 0 0 0 1 0"/>
    </filter>
    <filter height="28" width="25" y="321.1" x="103.4" filterUnits="userSpaceOnUse" id="F" color-interpolation-filters="sRGB">
      <feColorMatrix result="source" values="-1 0 0 0 1 0 -1 0 0 1 0 0 -1 0 1 0 0 0 1 0"/>
    </filter>
    <filter height="32.1" width="26" y="346.6" x="87.2" filterUnits="userSpaceOnUse" id="G" color-interpolation-filters="sRGB">
      <feColorMatrix result="source" values="-1 0 0 0 1 0 -1 0 0 1 0 0 -1 0 1 0 0 0 1 0"/>
    </filter>
    <filter height="20.9" width="14.7" y="372.9" x="77" filterUnits="userSpaceOnUse" id="H" color-interpolation-filters="sRGB">
      <feColorMatrix result="source" values="-1 0 0 0 1 0 -1 0 0 1 0 0 -1 0 1 0 0 0 1 0"/>
    </filter>
    <linearGradient id="I">
      <stop offset="0" stop-color="#f2c986"/>
      <stop offset="1" stop-color="#a16e3c"/>
    </linearGradient>
  </defs>
  <path fill="#006" d="M640 480V0H0v480h640z"/>
  <path fill="#fff" d="M0 73.3h76L0 26.8V0h43.5l106.4 64.8V0h59.9v64.8L316 0h44v26.8l-76.4 46.5H360v73.4h-76.4l76.4 46.6V220h-44l-106.4-64.7V220H150v-64.7L43.4 220H0v-26.7l76-46.6H0V73.3z"/>
  <path fill="#ce1126" d="M331.7 0L211.5 73.4h28.8L360 0h-28.3zM360 220l-119.8-73.3H269l90.9 55.9V220zM120.4 73.4L0 0v17.5l91.4 55.9h29zm-.3 73.3L0 220h28.7L149 146.7h-29z"/>
  <path fill="#ce1126" d="M0 88.6h162.6V0h35.2v88.6H360v43H197.8V220h-35.2v-88.5H0v-43z"/>
  <path d="M466.6 194.5c.6-2.4 4-2.2 5.2-.4 2 2.7 3 5.8 4.8 8.6 3 4.7 3.3 10.6 6.8 15.1 1.3 1.8 2.5 3.7 2.6 6l-4 .5-.5-7.6-1.7 1.2-.5-1.5a51.4 51.4 0 00-5.9-13.7c-1.3-3-2.6-6.1-4.2-9-3 5.6-5.2 11.6-7.8 17.5-1.6 3.8-3.5 7.5-4.9 11.5l-1.7 1.3c-.3-.3-.7-1-1-1.2 1.6-3.2 3.7-6.2 4.7-9.7 2.4-6.3 5.5-12.4 8-18.6z" fill="#043a3f"/>
  <path d="M461.4 211.2c2.6-5.9 4.8-11.9 7.8-17.5 1.6 2.9 2.9 6 4.2 9l-4.5-3.3a46 46 0 00-4.4 8.6c-2 5.6-5.6 10.7-6.2 16.6l-1.8.5v-2.4c1.4-4 3.3-7.7 5-11.5z" fill="#319d47"/>
  <path d="M464.5 208c1.2-3 2.7-5.9 4.4-8.6l4.5 3.3c2.8 4.2 4.5 9 6 13.7l-1.1 6.1h-5.7c-1.1-2.4-2-4.9-2.8-7.4-1.3 2.1-2.6 4.4-4.3 6.2-1.9 2-4.6 2.6-7.2 3.3.6-6 4.2-11 6.2-16.6z" fill="#08aa0b"/>
  <path d="M465.5 221.3c1.7-1.8 3-4 4.3-6.2.7 2.5 1.7 5 2.8 7.5h5.7l1-6.2.5 1.5 1.7-1.2.6 7.6c-1.8.2-3.5.5-5.2 1 .3 2 3.6 1.4 5.3 2v4.4a107 107 0 00-4.9 1.8h-1.7c-4.5-.6-9-.5-13.5.2l.7 2.1c.6.9 1.2 1.7 2 2.5l-4.5.7 1.7-3-3.8.8-4.2-.3-.2-5.4c2.4-.5 4.7-1.4 6.9-2.5l-7 .7c-.8-1.8.1-3.7 1-5.3l1.8-1.3v2.4l1.8-.5c2.6-.7 5.3-1.4 7.2-3.3z" fill="#21801d"/>
  <path d="M452.6 217.2l.4 4.5a104.5 104.5 0 001.8 2.3c-1 1.6-2 3.5-1 5.3l-1.5.2c0-1.2-.2-2.4-.3-3.5a57.4 57.4 0 01-5 5l-.3.4c-.1-3.6 3.7-4.8 5.7-7.2.3-2.3.2-4.7.2-7z" fill="#a2b9b5"/>
  <path d="M482 224.3l4-.5 1.1-.2-.7 2.8-3-.5-1.2 1.5c-1.7-.7-5-.1-5.3-2.1 1.7-.5 3.4-.8 5.2-1z" fill="#cae6c3"/>
  <path d="M461.2 225.4c5-.5 10-1.2 15-.8-3.6 3.8-9.3 2.8-14 2.3l-1-1.5z" fill="#cbe7c7"/>
  <path d="M447 231c1.8-1.5 3.4-3.2 5-5l.3 3.5 1.4-.2 7-.7a28.2 28.2 0 01-12.2 3l-1.4-.5z" fill="#ddd1d5"/>
  <path d="M483.4 225.9l3 .5c1 2.1.6 4.5 1 6.7-3.3.4-6.7.6-10 .4a107 107 0 014.8-1.8v-4.3l1.2-1.5z" fill="#1a402e"/>
  <path d="M448.5 231.6l3.9-.3c-.8 2.1-1.3 4.2-1.8 6.3a24 24 0 00-4.6.6c-.3 1.6 1.6 1.7 2.7 2.3l1 .4c-1.4 1.5-2.8 3-3.3 4.9l-1.2 4.3-4.6-3c2.1-1.2 4.2-2.5 6.2-4l-1.2-2c-.5-1-1.4-2.2-1.1-3.4 1.2-2 3-3.7 3.6-6z" fill="#18323c"/>
  <path d="M452.4 231.3l1.4-.2.2 5.4 4.2.3c-2.5.6-5 .8-7.6.8.5-2 1-4.2 1.8-6.3z" fill="#6f7956"/>
  <path d="M493 232.3l7 1.3-1 6.8-2.7-.3-3.6-.5 1-4.3-1.9 1.3.4-1.4.5-1.8.3-1.1z" fill="#b56480"/>
  <path d="M462.1 233.7c4.5-.7 9-.8 13.5-.3l-1 1.4c-3.7 1.7-7.9 1.3-11.8 1a42 42 0 01-.7-2z" fill="#d5d0bb"/>
  <path d="M487.5 233.1l1.7-.1-1.2 1.6c-3.9-.3-7.7 0-11.5 1.1l-2-1 1.1-1.3h1.7c3.4.3 6.8.1 10.2-.3z" fill="#778577"/>
  <path d="M489.2 233l3.5.4-.5 1.8-1 3.5-1 2.6-1.5-3.8-4.3.2.8-.6c1-.8 2-1.6 2.8-2.5l1.2-1.6z" fill="#103332"/>
  <path d="M476.5 235.7c3.8-1 7.6-1.4 11.5-1.1l-2.8 2.5c-3 .9-6 0-8.7-1.4z" fill="#e3efdd"/>
  <path d="M462.8 235.8c4 .3 8.1.7 11.8-1l2 1c2.5 1.3 5.6 2.2 8.6 1.3l-.8.6 4.3-.2 1.5 3.8 1-2.6c.1 1.4.4 2.8.7 4.2l-3 1h-.7c-1.7-.2-3.4-.2-5.2 0-3.4 0-5.8 2.2-7.4 4.9-4.3 3.7-10.3 4.2-15.8 4-2.4-.2-4.7-1-6.2-2.8l-5 2.6c-1-1-2.2-1.7-3.4-2.5l1.2-4.3.2 2.8c1.7-2.3 2.9-4.9 3-7.7l-1-.4c3.7-.4 7.3-1.2 11-1.4-1.7 3-3 6.3-3.9 9.6 3.6.8 7.3 1.4 11 1.9.6-1.1 1.3-2.3 1.8-3.5l1.5 2.9c0-4.4 1.1-9-1-13-.3 2.7-.5 5.5-.5 8.3-.2-.3-.7-1-1-1.2a8.4 8.4 0 00-2.8-5.8l-2-2.5z" fill="#216417"/>
  <path d="M491.1 238.7l1-3.5-.3 1.4 2-1.3-1 4.3 3.5.5c-.2 1-.6 2-.5 3.1 1.1 1.3 2.6 2.3 3.6 3.6.8 4.4.4 8.8 0 13.2l-1.4-2.3-3 3.2-1.4-2 1.5-1.5c1.6-1.6 3.3-3.7 3.1-6-.2-2.2-1.3-4.2-2.1-6.1l-7.2-1.4 3-1-.8-4.2z" fill="#1e1e40"/>
  <path d="M458.2 236.8l3.8-.7-1.7 2.9h-.8c-3.6.3-7.2 1-10.8 1.5-1-.6-3-.7-2.7-2.3 1.5-.3 3-.5 4.6-.6 2.5 0 5-.2 7.6-.8z" fill="#d3dfc5"/>
  <path d="M556.6 237.5c1.5-1 3.5-.5 4.5.9 1.3 2.5 1.3 5.6 3 7.9 1.4.9 3.2 1.1 4.8 1.8 1.3 1.2 1 3 1.3 4.6-1.4-1.4-2.6-3-4.4-4-2.4-1-5-1.2-7.4-1.6.7-1.9 1.7-3.7 2-5.7-.8-1.4-2-2.5-2.9-3.7-1 2.5-2 5-3.2 7.5l-4.2.8c-9.9.8-20.4-3.8-29.7 1 2.5.5 5.2 1 7.6 2a13 13 0 015.7 6.2l.5 4.5c-.8 3.2-2.3 6.2-4.1 9L529 267l-.3-.4c3.7-3.1 4.1-8.5 2.1-12.6-1.5-2.6-4.8-3-7.6-3.6l-.2 3.5-.8-5.3c-3.6.1-6.4 2.2-8.5 4.8l-1.2.8c.7-2 1.8-3.6 3.3-5 2.8-2.7 5.7-5.7 9.8-6.3 8.5-1.2 17 2.5 25.4 1 3-1 3.4-4.6 5.6-6.3z" fill="#023b38"/>
  <path d="M376.8 237.6l1.5.2a8.2 8.2 0 005.5 5.3c3.8 1.2 7.8 1.5 11.8 2a3 3 0 00.8 2.6l-.4 1.6c-2.6.6-5 1.6-7.4 2.5-8 2.4-16.5.8-24.6 1.8 2.6-2 5-4.1 7.9-5.8 2.8-.6 5.7-.6 8.6-.6-1.7-1.5-3.6-3-4.3-5.2 0-1.5.3-3 .6-4.4z" fill="#eaf0f3"/>
  <path d="M469 237c2.1 4 1 8.6 1 13l-1.5-2.9v-1.8c0-2.8.2-5.6.5-8.4z" fill="#62944a"/>
  <path d="M497.2 237.7c1.2-1 2.4 1.1 1.2 1.9-1.2.9-2.4-1.2-1.2-1.9z" fill="#e3f1f5"/>
  <path d="M460.3 239l4.4-.7a8.4 8.4 0 012.9 5.8l1 1.2v1.8l-1.9 3.5c-3.7-.5-7.4-1.1-11-2 1-3.2 2.2-6.5 3.8-9.5z" fill="#0b7f10"/>
  <path d="M554.3 245.2c1.2-2.5 2.2-5 3.2-7.5 1 1.2 2 2.3 2.8 3.7-.2 2-1.2 3.8-2 5.7 2.6.4 5.1.7 7.5 1.6 1.8 1 3 2.6 4.4 4-8.7-1.3-17.4-.1-26.1-.4 2 1.5 4 3 6 4.2a813 813 0 00-5.2 2c3.9 3.7 8.7 6.3 13.3 9 1.6.8 3.5 1.6 5.4 1.4 1.6-.6 2.7-2 3.9-3-1.7-.3-3.4-.5-5.2-.5-3-2-5.8-4.5-8.4-7 2.6 1.1 5.2 2.2 7.8 3.5 4.3 2 9.2 2.8 13.8 4.2-2.7 2-5.5 4.1-8.9 4.8-2 .5-4.2-.3-6.2-.9-4-1.3-8-3.1-11.3-5.7-3.5-2.5-7-5.2-10.5-7.6l.8 2.3-2.6-.6-1.2-2.7-2-.5a13 13 0 00-5.6-6.2c-2.4-1-5-1.5-7.6-2 9.3-4.8 19.8-.2 29.7-1-2.7.4-5.4.6-8.1.7l2.5 4.5h1.9l-.5-3.7c3.3 0 6.5 0 9.7.3l-1.3-2.6z" fill="#18981f"/>
  <path d="M481.4 238.9l1.4 2.2c-.7.8-1.6 1.4-2.4 2l1-4.2z" fill="#d7d6b9"/>
  <path d="M446.4 245.8c.5-2 2-3.4 3.3-4.9-.2 2.8-1.4 5.4-3 7.7l-.3-2.8z" fill="#498d5f"/>
  <path d="M453.3 241c1.2 2.5 1 5.4.7 8.1l-1.6-.1c.2-2.7.4-5.4 1-8z" fill="#74a560"/>
  <path d="M383.8 243.1h8.8c6.3-.1 12.7-1 18.7 1.3l1 .5 4.5 2.3-1.7 1a2 2 0 00-1.7-1.7l-.5 3a16 16 0 00-8 8c-.6 2.8-.5 5.7-.5 8.5h-.8l-.7-6.3-.8 6-.3-.6c-.2-1.8-.4-3.6-.9-5.4l-2.3-1.6a30 30 0 008-7.6c-3.5 1.7-6.7 4-9.8 6.4-1.6-1-3.2-2.2-4.5-3.5 2.5-1.3 5-2.7 7.3-4.2H396l.4-1.5c2.5 0 1.2-3.2-.8-2.6-4-.5-8-.8-11.8-2z" fill="#afc2cd"/>
  <path d="M434.1 243a104.5 104.5 0 0111 7l3.6 2.6 1.4 2c-2-1.2-4-2.3-5.8-3.6-3.5-2.6-7-5-10.2-8z" fill="#f1f3f2"/>
  <path d="M483 243.9c1.8-.2 3.5-.2 5.2 0-.9 1.8-1.8 3.6-2.9 5.4v-3.4c-1 .7-2 1.5-2.8 2.3l.5-4.3z" fill="#81431d"/>
  <path d="M411.3 244.4c2.5.3 5.7-.5 7.7 1.4 4 4 5.8 9.6 6 15.1l-3.2 1.4c-.6-5.2 0-11.6-5-15.1l-4.5-2.3-1-.5z" fill="#034443"/>
  <path d="M475.6 248.8c1.6-2.7 4-4.8 7.4-5l-.5 4.4 2.7-2.3.1 3.4 3-5.5.6.1 7.2 1.4c.8 2 1.9 4 2.1 6 .2 2.4-1.5 4.5-3 6.1-3.2 0-7.3-1.4-9.3 1.9l4-.2-1.4 4.2c-1.2-.7-2.4-1.3-3.2-2.4-.4-1.6-.3-3.3-.3-5l-2.4 1.4-2.6-5.5c.1-1.5.4-2.9.6-4.3l-3 2.9-2-1.6z" fill="#ac5b35"/>
  <path d="M395.6 245c2-.5 3.3 2.6.8 2.7a3 3 0 01-.8-2.6z" fill="#717889"/>
  <path d="M550.1 246l4.2-.8 1.3 2.6c-3.2-.3-6.4-.4-9.7-.3l.5 3.7h-2l-2.4-4.5c2.7-.1 5.4-.3 8.1-.7z" fill="#4eba2e"/>
  <path d="M382.5 245.9l2.3 2.7 1.3-1.8 1 2.6c-1.4 0-2.8 0-4.1-.3-.3-1-.4-2.2-.5-3.2z" fill="#432f45"/>
  <path d="M392.1 246.3c1-.8 2.4 1 1.3 1.7-1 .7-2.4-1-1.3-1.7z" fill="#0d162f"/>
  <path d="M413.4 246.5a2 2 0 011.7 1.6l-.3 3.3c-.4 6.7-5.3 12.1-6.5 18.7l-1 .7a54 54 0 01-1.6-2.3c2.6-6.2 7.1-12 7.2-19l.5-3z" fill="#023b2f"/>
  <path d="M362.6 249.6c3.3.3 6.2-1.3 9.3-1.8-2.8 1.7-5.3 3.8-8 5.8l.2-2.2a138.5 138.5 0 00-8 .3c-2.1.4-4 1.5-5.8 2.6 1.4-2 2.7-4.4 5.3-5.1 2.3-.1 4.7.3 7 .4z" fill="#063353"/>
  <path d="M416.8 247.2c5 3.5 4.4 9.9 5 15 0 1.4.2 2.7.4 4-3.5 8.8-12.4 14.5-15 23.8l-1.4-.6-.8 2.3-.3-2-2-.6c.7-4.6 0-10.7 5.2-13.2l-2-3.5.4-1 1-.6 1-.7c2.7-1.6 3.4-4.8 4.6-7.4 1.7-3.9 3-8 3.8-12l-1.9.7.3-3.3 1.7-1z" fill="#119713"/>
  <path d="M477.5 250.4l3-2.9-.5 4.3c-.3 3.1 1.1 6 2.6 8.7l-1.3.8-1.9-1.7c-.5-3.4-4.6-3.2-7.3-3.8.2 2.1 3 5.8-.4 6.4-4.9.3-8-4.5-12.9-5l.5-.7c-2-.4-3.8-1-5.5-1.7 5 0 10 .7 15 0-4.2-.4-8.5-.7-12.6-1.5l3.6-.5c5.5.2 11.5-.3 15.8-4l2 1.6z" fill="#d8afa1"/>
  <path d="M577.5 248.3c2.2.9 5 1.2 6.3 3.3 2.1 3 3.4 7.3 1.3 10.7-1.5 1.5-3.8 1.8-5.9 2.1-1.4 0-2.8-.3-4.1-.6l-1.1-.3c5.9-3 4.8-10 3.5-15.2z" fill="#d7e9ee"/>
  <path d="M388.6 251.8c2.4-.9 4.8-1.9 7.4-2.5l3.6-.1c-2.3 1.5-4.8 3-7.3 4.2l-.5.2.2-1.6-3.4-.2z" fill="#798199"/>
  <path d="M513.7 253.3c2.1-2.6 5-4.7 8.5-4.8l.8 5.3c1 4.5 3.5 8.6 5.7 12.7l.3.4-3.5 4.4 4.8.8.5.2c2.8 4.8 4.8 10 6.5 15.2 0 1.5 0 3-.3 4.4-.4 3-1.6 5.9-3.3 8.5-.3-4.4 0-8.9 0-13.3l-2.5-1.1-1.7 2.5a38 38 0 00-1-2.3c-3.3-5.5-7.3-10.5-11-15.7-2.4-3.6-5.2-7-6.3-11.3l3.3.6c-1-2-1.4-4.3-.8-6.5z" fill="#dce7ed"/>
  <path d="M448.7 252.6l4.9-2.6a8.4 8.4 0 006.2 2.8l-3.6.5c4.1.8 8.4 1 12.7 1.5-5 .7-10.1 0-15.1 0 1.7.8 3.6 1.3 5.5 1.7l-.5.8c-1.4 0-2.7.2-4.1.4l2.7 3-.9 1.6c-2.3-2.4-4.4-5-6.4-7.7l-1.4-2z" fill="#91734f"/>
  <path d="M396.8 257c3-2.5 6.3-4.8 9.8-6.5a30 30 0 01-8 7.6l-1.8-1.2z" fill="#6f6786"/>
  <path d="M414.8 251.4l1.9-.7c-.8 4-2 8.1-3.8 12-1.2 2.6-1.9 5.8-4.6 7.4 1.2-6.6 6-12 6.5-18.7z" fill="#39a345"/>
  <path d="M483 250.5c2.3.8 5.8.1 7 2.3-1 .7-2.2 1.2-3.3 1.8l-.3-2.4-4 2.2.7-3.9z" fill="#953a09"/>
  <path d="M350.3 254.3c1.8-1.1 3.7-2.2 5.8-2.6-1.7 2.3-4.7 4.7-3.9 8 1.5 3.4 5.4 5 8.7 6.5l-1.2-4.2c-.4-2-.7-4.1-.7-6.3a85 85 0 012-4.3h3.1l-.1 2.2c-1.2 1.4-3 2.7-2.8 4.6 0 2.5 2.2 4.1 3.7 5.8l1.2 4c-2.5-.2-5.2 0-7.5-1.2-2.7-1.2-5-3-7.3-4.6-.1-2.7-.5-5.3-1-8z" fill="#0d4b3a"/>
  <path d="M356.1 251.7c1.7-.2 3.3-.3 5-.3a85 85 0 00-2.1 4.3l-1 2.2-2.6-2c-.5 1.2-1.5 2.4-1.4 3.7.7 1.3 1.8 2.4 2.8 3.5l2.9-1c.3 1.3.7 2.7 1.2 4-3.3-1.5-7.2-3-8.7-6.5-.8-3.2 2.2-5.6 4-8z" fill="#299734"/>
  <path d="M444.3 251c1.9 1.3 3.9 2.4 5.8 3.6a58.3 58.3 0 008.2 9.5c-1.4 1-3.2 2-5 1.6-3.3-.9-6.1-3-9.3-4.2-.5-.6-1-1.3-1.3-2 3.4 1 6.7 3.2 10.4 2.5-2.4-3.8-5-7.8-10-8.9l1.2-2.1z" fill="#1a5422"/>
  <path d="M482.6 260.5c-1.5-2.7-2.9-5.6-2.6-8.7l2.6 5.5 2.4-1.3c0 1.6-.1 3.3.3 5 .8 1 2 1.6 3.2 2.3l1.4-4.2-4 .2c2-3.3 6-2 9.2-1.9l-1.5 1.5c-1.6 1.7-2.5 3.9-4.2 5.5-3 1.2-6-1.1-8-3 .2-.3.9-.7 1.2-.9z" fill="#6d332f"/>
  <path d="M544 252.3c8.8.3 17.5-.9 26.2.4-4.7 3.7-11-1-15.8 2.4 3 3.1 7.6 4 11.4 6 2.6 1.2 5.5 1.6 8.2 2.4l1 .3 4.2.6c-2 3.7-5.6 6.5-9.8 7.6-2.7.5-5.4.3-8.1.3l-.9-2.3c2 .6 4.1 1.4 6.2 1 3.4-.8 6.2-2.9 9-4.9-4.7-1.4-9.6-2.1-13.9-4.2-2.6-1.3-5.2-2.4-7.8-3.5l-3.7-2a56.7 56.7 0 01-6.1-4z" fill="#014934"/>
  <path d="M365 264c9.5-2 18-6.6 26.8-10.4l.5-.2c1.3 1.3 2.9 2.5 4.5 3.5l1.8 1.2 2.3 1.6c-.2 1.9-.2 3.8.9 5.4l.3.5.8-6 .7 6.4h.8c0-2.8-.1-5.7.5-8.4-.5 3.6-.5 7.4.8 10.9l1.6 2.3-1 .6-5-2.7c-2.2 7.6-8.8 14.9-17.4 15.7l1-1c4.4-4.1 6-10 8.7-15 1.4-3 3.5-5.8 4-9.1-1-.4-2.2-1.2-3-.1-5 3.8-9.6 8.6-16 10.4-4.2 1.2-8.4-1-12.5-1.6l-1.2-4z" fill="#e0e8ee"/>
  <path d="M442.3 255.1l.9-2c4.8 1 7.5 5.1 10 8.9-3.8.7-7.1-1.6-10.5-2.5-.3-1.5-.4-3-.4-4.4z" fill="#08a514"/>
  <path d="M436.4 266.2c2.9-3.2 4.2-7.2 5.9-11 0 1.4.1 2.8.4 4.3l1.3 2-1.8-.5c.2 1.8.6 3.7.3 5.6-.7 2.6-3.6 3.5-5.9 4.6l-.2-5z" fill="#2d5d59"/>
  <path d="M533.7 255.2l1.9.5 1.2 2.7 2.6.6 1 2.4v1.4c-2-.1-4-.4-6-.7l-.2-2.4-.5-4.5z" fill="#45a724"/>
  <path d="M354 259.6c-.1-1.3.9-2.5 1.4-3.6l2.6 1.9 1-2.2c0 2.2.3 4.3.7 6.3l-2.9 1.1c-1-1.1-2-2.2-2.8-3.5z" fill="#0a850a"/>
  <path d="M472.1 255.8c2.7.6 6.8.4 7.3 3.8l-4-2.3c-.4 2.4-.1 6.4-3.7 6.7-5 .1-8.2-4.4-12.6-6-.2 2-.4 4-.8 6a348 348 0 01-1.8-1.7l.9-1.6-2.7-3 4.1-.4c4.8.4 8 5.2 12.9 4.9 3.4-.6.6-4.3.4-6.4z" fill="#29192b"/>
  <path d="M538.6 256.7c3.6 2.4 7 5 10.5 7.6l-6 .9-1.7-.6-1-3.2-1-2.4-.8-2.3z" fill="#024b1a"/>
  <path d="M544.9 258.6a813 813 0 015.3-2.1l3.7 1.9c2.6 2.5 5.3 5 8.4 7-1.4.6-2.8 1.4-4.1 2.1-4.6-2.7-9.4-5.3-13.3-9z" fill="#07a10e"/>
  <path d="M475.5 257.3l4 2.3 1.8 1.7c2 2 5 4.3 8.1 3.1 1.7-1.6 2.6-3.8 4.2-5.5l1.5 2c1.8 2.4 3.2 5.2 5.4 7.3 1.1 1.2 3 1 4.5 1.3l.4-3h-5.3l3.3-3.8c2 .8 4.5 1.2 5.2 3.4 0 2-1 3.8-1.7 5.6-2.8 0-6 .6-8.4-1-2.2-2-3.1-5-4.5-7.5-1.8 1.9-3.5 4.8-6.7 4.4-4.1-.4-6.8-3.8-9.7-6.3-1.6 2.2-3.2 5.3-6.5 5.2-3.7-.2-6.6-3-9.5-4.9-1.3 2.2-2.3 5.4-5.3 6-3.8.9-7.4-1-10.7-2.5-1.7 3-3.4 6.6-7 8-3 1.4-6.3.6-9.3.2-2.1-2.6-2-7 1.6-8.3 2-1.2 3.9.2 5.5 1.2l.2 5c2.3-1.1 5.2-2 6-4.6.2-1.9-.2-3.8-.4-5.6l1.8.5c3.2 1.3 6 3.3 9.3 4.2 1.8.5 3.6-.7 5-1.6.4-2 .6-4 .8-6 4.4 1.5 7.7 6 12.6 5.9 3.6-.3 3.3-4.3 3.8-6.7z" fill="#d9f4fc"/>
  <path d="M394.5 259.2c.9-1 2.1-.3 3.1 0-.5 3.4-2.6 6.1-4 9.1-2.6 5.2-4.3 11-8.7 15 0-1.2-.3-2.5.3-3.7 2.5-5 6.3-9.4 8.6-14.4-3.8-.2-6 3.2-9.2 4.6a29.9 29.9 0 01-15 2.7c-3 0-5.2-2.3-7.9-3.1-4-1.6-8.9-3-10.4-7.2 2.4 1.6 4.6 3.4 7.3 4.6 2.3 1.1 5 1 7.5 1.2 4.1.6 8.3 2.8 12.5 1.6 6.4-1.8 11-6.6 16-10.4z" fill="#082855"/>
  <path d="M495 260.9l3-3.2 1.4 2.3c.6 1 .9 2.2 1.2 3.4l2.8-.7-3.3 3.8h5.3c0 .8-.3 2.2-.4 3-1.5-.3-3.4-.1-4.5-1.3-2.2-2.1-3.6-4.9-5.4-7.3z" fill="#1f5553"/>
  <path d="M401 259.7c.4 1.8.6 3.6.8 5.4-1.1-1.6-1-3.5-.9-5.4z" fill="#29192b"/>
  <path d="M530 268.7c1.9-2.8 3.4-5.8 4.2-9l.2 2.4 1 5.2c-2 1.5-4.3 2.8-6.5 4l1.4.8-4.8-.8 3.5-4.4 1 1.8z" fill="#24793e"/>
  <path d="M421.8 262.3l3.2-1.4.2 1.8-3 3.4-.4-3.8z" fill="#358654"/>
  <path d="M461.6 261.6c3 2 5.8 4.7 9.5 4.9 3.3 0 5-3 6.5-5.2 2.9 2.5 5.6 6 9.7 6.3 3.2.4 4.9-2.5 6.7-4.4 1.4 2.6 2.3 5.5 4.5 7.6 2.5 1.5 5.6 1 8.4 1-.8 1.2-.9 3.2-2.7 3.5-1.2.3-2.6.4-3.8.1-2.8-1.8-5.2-5-9-4.8a30 30 0 01-7.8-1c-5-1.5-10.5-1.2-15.7-1.5-4.7-.3-9.9-.4-13.7 2.6l-4-1.3-.6 1.4c-4 1-7.1 3.4-10.6 5.2-3.5 1.7-7-.8-9.7-2.7 3 .4 6.4 1.2 9.3-.2 3.6-1.4 5.3-5 7-8 3.3 1.5 6.9 3.4 10.7 2.5 3-.6 4-3.8 5.3-6z" fill="#287199"/>
  <path d="M540.3 261.4l1.1 3.2 1.2 6.8-2.6-.6-3-2.6-1.6-.9-1-5.2c2 .3 4 .6 6 .7v-1.4z" fill="#159d13"/>
  <path d="M515.8 262.1c3.3 1.8 4.7 5.3 6.4 8.3l-1.7-.1c-1.1-3-3.3-5.4-4.7-8.2z" fill="#432f45"/>
  <path d="M422.2 266.1l3-3.4c0 1.8.3 3.8-1 5.3-2.9 3.8-5 8-8.4 11.3a14 14 0 00-3.7 6.3c3 .5 5.9 1 8.7 2-3.9 4.6-8.3 9.1-9.5 15.1-4.1-.7-7.1-3.7-9-7.1 0-2.2.2-4.3.4-6.5l2 .6a149 149 0 001 7.5l3.6-2.6 1.2 3c2.4-3.6 5.2-7 8.9-9.8-4-1-7.6 1-11 2.5l-1.2-.3c2.6-9.3 11.5-15 15-23.9z" fill="#034529"/>
  <path d="M541.4 264.6l1.8.6c1 6 4.2 11.5 6 17.4-6.7.3-10.4-6.3-12-11.7l-.3-2.7a33 33 0 013.1 2.6c-.5 2.4.6 4.6 2.2 6.4l2.3-1.4a56 56 0 01-1.9-4.4l-1.2-6.8z" fill="#1d9430"/>
  <path d="M562.3 265.4c1.8 0 3.5.2 5.2.5-1.2 1-2.3 2.4-4 3-1.8.2-3.7-.6-5.3-1.4 1.3-.7 2.7-1.5 4.1-2.1z" fill="#045603"/>
  <path d="M454.2 270.7c3.8-3 9-2.9 13.7-2.6 5.2.3 10.6 0 15.7 1.5 2.5.7 5.2 1 7.8 1 3.8-.2 6.2 3 9 4.8 1.5 1.2 2.5 3.1 2.1 5-.5 3.3-5.3 4.4-5 8 0 2.1 2.2 3.3 3.7 4.6 2.1 1.6 3.5 4 5.5 5.6 2.6 1.2 5.6 1.6 8.5 2 3.5.5 6.6-1.4 9.7-2.5l1-2.9c2.8 4.4.7 9.3-1.1 13.6a30.1 30.1 0 01-11.6 3c-2.2.1-4-1.5-5.7-2.6a19 19 0 0011.4 0c2.9-1 4.7-3.5 6.6-5.6-4.3-2.7-9.2.6-13.8-.4a30.2 30.2 0 01-17.8-13.6l1.4-4.5c2-2.8 3.8-5.9 3.3-9.4l-2.6-.4c-1.5-1.7-3.4-3-5.6-3.8a23 23 0 00.8 9.7l-.2 2.6a222 222 0 01-4.3-.6 39.9 39.9 0 01-6.4-2.6l-3.8-2.3 3.5-.6-1.6-4.7-1.1-3a74 74 0 00-21.4.6c1.5 3 3.3 5.8 5.9 8l2.7 1.2c-2.7.3-5.4 1-8 1.7l-4.3 1c-4.4.8-7.6 4-10.7 6.8l4.4 1-4.4 1.6c4.2 0 8.4.3 12.6.5-7 .7-14.5-1-20.9 2.4h-.6c2.1-2.1 5-3.3 7.2-5.2.3-1.4.2-3 0-4.4 3.4.2 6.3-1.6 8.8-3.6v-2.5l1-.7.5.4.8 1.7 1.7-2 5.1.2-.1-2c-1-2-2.6-3.8-4.2-5.4l.8-.6z" fill="#053645"/>
  <path d="M528.9 271.3c2.2-1.2 4.4-2.5 6.5-4l1.5 1 .3 2.6c-2.2 0-4.4.4-6.4 1.4l-.5-.2-1.4-.8z" fill="#095427"/>
  <path d="M430.9 268.7l3.4-.2-.1 3c-1.7-.3-3-1.2-3.3-2.8z" fill="#333a49"/>
  <path d="M467.8 269.6c3.1-.2 6.3 0 9.5.4l1.1 3-.3 1.8c-2.6 0-5.2.2-7.7.5-1-1.9-1.8-3.8-2.6-5.7z" fill="#e3e9ec"/>
  <path d="M455.9 270.6c3.9-.7 7.9-.9 11.9-1 .8 2 1.7 3.8 2.6 5.7-1.2.8-2.2 2-3.5 2.3-2.2-.3-3.8-1.8-5.5-3l.4 4a29.5 29.5 0 01-6-8z" fill="#3d9c35"/>
  <path d="M479.7 270l8.8 2.2c0 2.8-.2 5.8-2.4 8-1-2.5-2.2-5-3.3-7.4l-.5 5-1.7-2.6c-.6-1.7-.7-3.5-1-5.3z" fill="#4082bb"/>
  <path d="M521.7 271.5c.9-1.1 2.9.3 2 1.4-.9 1-2.9-.3-2-1.4z" fill="#9aa5a3"/>
  <path d="M542.2 277.2c-1.6-1.8-2.7-4-2.2-6.4l2.6.6a56 56 0 001.9 4.4l-2.3 1.4z" fill="#04580f"/>
  <path d="M451.6 272.4l1.8-1.1c1.6 1.6 3.3 3.3 4.2 5.4l-2.4 1-.3-3.3-2.7-1.5-.6-.5z" fill="#3f82b0"/>
  <path d="M488.5 272.2c.1 3 .4 6-.2 8.9-2.3.1-4.3-1.3-6.2-2.4-1.4-.7-1.2-2.3-1.5-3.5l1.7 2.6.5-5 3.3 7.3c2.2-2.1 2.5-5 2.4-8z" fill="#0e379c"/>
  <path d="M490.4 271.5c2.2.8 4.1 2 5.6 3.8l2.6.4c.5 3.5-1.3 6.6-3.3 9.4-1.9-1.8-2.5-4.3-2.8-6.7-.4 1-1 1.9-1.3 2.8a23 23 0 01-.8-9.7z" fill="#32a030"/>
  <path d="M401.8 280.7c.6-3 2.4-5.7 4.1-8.3l2 3.5c-5.1 2.5-4.5 8.6-5.2 13.2-.2 2.2-.4 4.3-.4 6.5l-2.1-3.3-.2 3.2c-1.2-5 .7-10 1.8-14.8z" fill="#2f954c"/>
  <path d="M444.2 273.7c2.6-.6 5.3-.7 8-.4l-.5 1.9-3.9-.9 2.3 4.5-.6-.4a41 41 0 01-5.3-4.7z" fill="#4382c6"/>
  <path d="M452.2 272.9l2.7 1.5.3 3.2 2.4-.9.1 2-5-.1-1.8 2-.8-1.8-2.3-4.5 3.9.9c0-.5.3-1.4.4-1.9z" fill="#1a52bb"/>
  <path d="M478.4 273l1.6 4.7-3.5.6-5.4-.4-.7-2.6c2.5-.3 5.1-.4 7.7-.5l.3-1.8z" fill="#9bacc3"/>
  <path d="M461.4 274.7c1.7 1 3.3 2.6 5.5 2.9 1.3-.4 2.3-1.5 3.5-2.3l.7 2.6 5.4.4 3.8 2.3-2 2c-1.5-.2-2.9-.5-4.3-.9l-.9-2.8c-1 1.2-2.2 2.4-3.4 3.5l-1 .6-.5-.9 2.2-3.1a183 183 0 00-3.3 1.7 941 941 0 01-5.3-2l-.4-4z" fill="#073612"/>
  <path d="M439.6 277.2c2.8-2.6 6.3.6 9 1.9v2.5c-2.5 2-5.4 3.8-8.8 3.6-1.2-2.5-2.9-5.7-.2-8z" fill="#dadeee"/>
  <path d="M491.2 281.2l1.3-2.8c.3 2.4 1 5 2.8 6.7l-1.4 4.5-2-2.2-.1 7.3c-1.5-1.4-3.2-2.7-4.3-4.4-.1-2.3.5-4.6 1.3-6.8l2.2.3.2-2.6z" fill="#05420f"/>
  <path d="M467.1 280.7l3.3-1.7-2.2 3.1.5 1-.7.4-5.3.5 4 1.5.2 2.8c-6.5-.2-13.1-.4-19.6.6l-1.3-.3c1.9-2.2 3.9-4.3 6.2-6.1l4.3-1c-2 2.3-4.2 4.2-6.6 6l6.3.2c3.5.2 6.9.1 10.3-.2a49.5 49.5 0 00-6.2-3l6.8-3.8z" fill="#697077"/>
  <path d="M469.7 282.4l3.4-3.5 1 2.8-4.4.7z" fill="#4b8d5e"/>
  <path d="M456.5 281.5c2.6-.6 5.3-1.4 8-1.7l2.6 1-6.8 3.6 1.9.9-2.2-.7-1-1.4-2.8 4.5-6.3-.2c2.4-1.8 4.6-3.7 6.6-6z" fill="#b6c0cf"/>
  <path d="M480.3 280.6l2.2 1.1-2.8 2-1.4-1.1 2-2z" fill="#d2c3b3"/>
  <path d="M469.7 282.4l4.3-.7c1.4.4 2.8.7 4.3.9l1.4 1.2.5 4.5c2.4 0 5.4.4 6.5-2.1.2 1.4.4 2.7.8 4 1.1 1.8 2.8 3.1 4.3 4.5v-7.3l2 2.2c4.2 6.1 10.1 11.9 17.9 13.6 4.6 1 9.5-2.3 13.8.4-1.9 2.1-3.7 4.6-6.6 5.7a19 19 0 01-11.4 0c-3-1-5.2-3-6.4-5.7l-1.7-.2c1.3 4.6 5 8.4 4.4 13.4l-1.7.3-.7.2c-3.7-6-8.6-11.3-11.2-17.8-1-2.5-2-5-3.2-7.5-.7 6.6-.2 13.3 2.8 19.4-2-1-3.8-2.3-6-2.7l-1-.2 1-1.5c-5.3-6.4-6.1-14.7-6-22.4-3.2 3.4-7 6.3-10.6 9.2v-1.4c0-1.4-.1-2.7-.3-4l-.3-3 1.4-2 .7-.4 1-.6z" fill="#15a015"/>
  <path d="M441.5 289.3c3.1-2.9 6.3-6 10.7-6.8a42 42 0 00-6.2 6.1l1.3.3c3.4.8 6.9 1.3 10.4 1.6v.9c-4-.3-7.9-.8-11.8-1l-4.4-1.1z" fill="#d2cfda"/>
  <path d="M479.7 283.8l2.8-2 4.2 1.4v3c-1.1 2.5-4.1 2-6.5 2l-.5-4.4z" fill="#06530a"/>
  <path d="M456.2 287.7l2.9-4.5 1 1.4 2 .7c1.6.6 3 1.4 4.4 2.2-3.4.3-6.8.4-10.3.2z" fill="#f6e9e7"/>
  <path d="M462.7 284l5.3-.5-1.4 2-4-1.5z" fill="#a6c2c8"/>
  <path d="M486.7 283.2l2 .3c-.7 2.2-1.3 4.5-1.2 6.8a24.6 24.6 0 01-.8-7.1z" fill="#cfccca"/>
  <path d="M467.2 293.8c3.7-2.9 7.4-5.8 10.7-9.2-.2 7.7.6 16 5.8 22.4l-.8 1.5-4.2 1c.2-3 1-6.5-.4-9.5-1.4-1.8-3.9-2.5-5.9-3.6l5.5-1.2-4-1.5a67 67 0 003-5.2c-3.7 1.8-7.3 4.5-7.9 8.7-6.6 1.8-13.5.3-20.3.7l2.3 3.8-3 1-5.1-5.9c6.4-1 12.9-.4 19.3-.6h3.7l1.3-2.4z" fill="#122820"/>
  <path d="M528.4 286.2l1.1 2.3 1 3.8-4.8-5 2.7-1z" fill="#29192b"/>
  <path d="M529.5 288.5l1.7-2.5 2.4 1.1c.1 4.4-.2 8.9 0 13.3-2 3.6-5 6.5-8.8 8.4 1.8-4.3 3.9-9.2 1-13.6-1.9-4-6.7-5.2-11-5.7 3.2-2.3 7-2.8 11-2.3 1.5 1.7 3 3.4 4.7 5l-1-3.7z" fill="#d3dfe6"/>
  <path d="M408.3 290.3c3.5-1.5 7-3.4 11-2.5a38.2 38.2 0 00-8.8 9.9l-1.2-3.1-3.6 2.6c-.3-1.8-.6-3.6-.7-5.5l.8-2.3 1.4.6 1.1.3z" fill="#268d2c"/>
  <path d="M447.3 288.9c6.5-1 13-.8 19.6-.6.2 1.4.3 2.7.3 4.1l-.8.2c-4-.2-8.2-.2-12.3-.2l-12.6-.5 4.4-1.6 11.8 1.1v-1c-3.5-.2-7-.7-10.4-1.5z" fill="#501716"/>
  <path d="M469 297.2c.6-4.2 4.2-6.9 8-8.7a67 67 0 01-3.2 5.2l4.1 1.5-5.5 1.2-3.4.8z" fill="#99a193"/>
  <path d="M530.7 293.5l2-2.8c0 4 0 8.4-2.8 11.8l.5-4.3 1.3-4-1-.7z" fill="#29192b"/>
  <path d="M383.9 296c1.7-1.1 3.2-2.5 5-3.3 2.9-.8 5.8.1 8.5 1l-2 4c-1.8 3.3-3.7 6.7-5 10.2l-1.8 4c1.3-.5 3-1 3.4-2.5 1.2-3.2 2-6.6 3.6-9.6.4 4.2-.4 8.4-.7 12.5a99 99 0 01-.6-1.9c-.7 1.4-1.3 2.8-2.2 4-1.8-1-3.8-1.3-5.7-.5.4 1.1 1.1 2.1 1.9 3-2.5 2.2-5.6 4.1-6.6 7.4.1 2.8 2.3 5 3.6 7.5l1 2.1-1.3.2-.8-2.5-3 3.4 2.6 1c0 .9.2 1.7.3 2.5l2-.3c-1.4 2.5-2.8 5-4.6 7.2l-.2-.6c-2-6.4-2-13.4-5-19.5 0 .4-.3 1-.4 1.4l-.6 2.3a65 65 0 01-2.4-3.2c-.1-1.8-.6-3.6-1.2-5.2l.3-.3c1-1.3 1.7-2.8 2.2-4.3 1.6-.4 3.2-.6 5-.7-1.6 5-3.4 11.9 2.1 15.3-.4-2.8-1.2-5.5-2-8.2a70 70 0 004.2-2.8l-3.7 1 .9-2.4h2.5l2.7.1-.3-2.8-2.1 1.8-1.6-.6-.4-.8 3.7-2.6.5-.3 2.5-2.5-3-.4c.3-1.3 1-2.7.7-4l-2.8-1.2h-.9l1-2.8 1.6 1.2c-.2-2.5-.5-4.9-1-7.3z" fill="#d2c3b3"/>
  <path d="M400.2 292.3l2.1 3.3c1.9 3.4 4.9 6.4 9 7.1 7.8.3 16.2.6 23-3.6l2.1.3c-3.2 3.2-7.6 4.6-11.8 6l1.1 4.1c3.6-1 6.9-2.7 10-4.6l.3.5c-4.4 6-13 8-20 6.1-8.2-1.7-14.2-8.5-16-16l.2-3.2z" fill="#e3f1f5"/>
  <path d="M454 292.4c4.2 0 8.3 0 12.4.2-3.1.8-6.4 1.3-9.7 1.2-8-1-15.6 2-23.5 1 6.4-3.5 13.9-1.7 20.9-2.4z" fill="#f7f5f7"/>
  <path d="M466.4 292.6l.8-.2v1.4l-1.3 2.4h-3.7c-2.1-.1-4-.9-5.5-2.4 3.3 0 6.6-.4 9.7-1.2z" fill="#aaa28c"/>
  <path d="M487 292c1.2 2.5 2.2 5 3.2 7.5 2.6 6.5 7.5 11.8 11.2 17.8-.7 0-1.5.2-2.2.4-1.5-3.7-4-6.9-7.8-8.7l2.3 4.3-.3 1.2-3.2-1.4c-2.7-.9-6.4-.8-7.2-4l.8-.4c2.2.4 4 1.6 6 2.7-3-6-3.5-12.8-2.8-19.4z" fill="#094a17"/>
  <path d="M539.2 295c3-1.2 6.7-2.7 9.8-.9a155 155 0 018.3 5.7l-.2 1.7-1.3-.8-2.3-1.3-1.3 3.1-1.4-.7c0-1.3.9-2.8 0-4-1.3-.5-2.7-.8-4-1.1l2 1.5-1 1.6 2.3 1.5c-1 1.4-1.7 3-2.3 4.5a147.6 147.6 0 00-2.6 2.6l1 1.1 1.3 4.5 3-.6 4.9-2.3 3.3 5-3.2 2.6 4.8 1.1-1.2 2.7c1.2 0 2.3 0 3.5-.2a27 27 0 01-7 3.7h5l.3 2a120.5 120.5 0 00-3.6 2.3l-.5-2.3h-2l-3.4 1c-.5-2-1-4.2-1-6.3 0-1.5.1-3-.3-4.3-1.8-2.4-4.4-4-6-6.5-2.8-4.2-4.4-9.4-3-14.3l-2-2.6z" fill="#d7d3ba"/>
  <path d="M433.2 294.8c7.9 1 15.6-2 23.5-1a8.3 8.3 0 005.5 2.4c-6.4.2-13-.4-19.3.6l5.2 5.9c5.2 6.5 9.1 13.8 12.7 21.2l-2 1.4c-2.2-2.6-3.8-5.6-5.9-8.3.8 3.2 2.1 6.1 3.4 9.1a8 8 0 00-.3 7.6c-3.9-2.2-5.5-6.4-7.9-10a72 72 0 013-8c.5-2.5-1.3-4.6-2.6-6.6-3-4.1-6-8.2-9.8-11.7-1.8-1.9-4.7-1.2-7.1-1.3l1-1.3z" fill="#d7d6b9"/>
  <path d="M382.2 297l1.7-1c.4 2.4.7 4.8.9 7.3l-1.6-1.2-2.3-1.8a10.2 10.2 0 00-1.6 6c1-.5 2-1 3-1.3h.8c-.5 1.2-1.2 2.5-1.2 4 1 1.5 2.5 2.7 3.8 4l-.5.3-4.6.3 1 2.3.3.8 1.6.6-.3 1-2.5-.1-1 2.4 3.8-1a70 70 0 01-4.1 2.8c.7 2.7 1.5 5.4 1.9 8.2-5.5-3.4-3.7-10.4-2.2-15.3-1.7.1-3.3.3-5 .7.3-3.4-.5-7 1.3-10.1 1.8-3.3 4.4-6.1 6.8-9z" fill="#bca2a6"/>
  <path d="M386.9 297.5c.6-1.7 2.9-1.1 4.4-1.4-1 2.4-2.7 4.4-5.2 5.6.2-1.4 0-2.9.8-4.2z" fill="#493322"/>
  <path d="M431.6 296.1c2.4.1 5.3-.6 7.1 1.3 3.8 3.5 6.8 7.6 9.8 11.7 1.3 2 3.1 4 2.6 6.6a141 141 0 01-2.5-2.2c-.5-2-1.5-3.8-2.6-5.6-2.8 2.7-5.6 6-4.4 10-.7-1.7-1.2-3.3-1.7-5 1.6-1.7 3.3-3.4 4-5.6.2-1.7-1.1-3-2-4.4-1.6-2.1-3.5-4.3-6.4-4.8l-4-2z" fill="#29192b"/>
  <path d="M469 297.2l3.4-.8c2 1 4.5 1.8 6 3.6 1.3 3 .5 6.4.3 9.6-2.6 1.7-4.8 3.8-7.2 5.8l-1.5 1.2-.7-1 3.4-3.8 3.8-2.8c0-3.3-.2-6.6-.6-10-1.9.2-3.8.2-5.7.2-4-.2-8 1-11.7 2.4l-1.2 3-3-2.6c.2 4.1 3.1 7.3 4.8 10.8 1.6 3.4 3 6.9 4.5 10.3l-1.3-.3-1.5 1.1c-3.6-7.4-7.5-14.7-12.7-21.2l3-1-2.4-3.8c6.8-.4 13.7 1 20.3-.7z" fill="#434b63"/>
  <path d="M373.4 305c2.7-3 5-6.3 8.8-8-2.4 2.8-5 5.6-6.8 8.9-1.8 3-1 6.7-1.2 10.1-.5 1.5-1.2 3-2.2 4.3-2 0-4.3-.7-6.2.4-1.8.8-3.3 2-4.8 3.1l-1 .8c-4.7 3.3-7.8 8.2-10.8 12.8L348 339a34.7 34.7 0 00-6.7 11.8l-1-.7c-.7 2.2-1.5 4.4-2.8 6.5h-.7a28 28 0 017.4-16l9.2-13c1.8-2.4 4.6-3.8 7-5.7 1.5-1.2 2.9-2.7 4.7-3.3 2.3-.4 4.7-.2 7-.4.2-4.3-1.4-9.2 1.3-13.1z" fill="#211e46"/>
  <path d="M546.8 296.7c1.3.3 2.7.6 4 1.2.9 1.1 0 2.6 0 3.9l-.7-.5a71 71 0 01-2.4-1.5l1.1-1.6-2-1.5zM390.4 308c1.3-3.6 3.2-7 5-10.3l.2 2.1c-1.7 3-2.4 6.4-3.6 9.6-.4 1.5-2 2-3.4 2.6l1.8-4z" fill="#29192b"/>
  <path d="M435.5 298c2.9.6 4.8 2.8 6.4 5l-3.4 5.3-1.9-1.7-.6-1.2-.3-.5a43.8 43.8 0 01-10 4.6l-1.1-4c4.2-1.5 8.6-3 11.8-6l-2-.4 1.1-1z" fill="#bfcdc7"/>
  <path d="M458.5 301.6c3.7-1.4 7.6-2.6 11.7-2.4.9 1 2.3 1.8 2.2 3.2-.3 1.3-1 2.4-1.6 3.6l.7 2.4c-2.2.4-4.6.3-6.4 1.7.6 2.2 1.6 4.2 2.6 6.3l1.6-.9.7 1.1-.5.5a20 20 0 00-2.8 4.3l-3.1 1.7-4.5-10.3c-1.7-3.5-4.6-6.7-4.7-10.8l2.9 2.6c1.7 3.3 3.1 6.8 4.9 10.1l3.7.6-2-7.1c-2.4-1.8-4.3-4-5.4-6.6z" fill="#4f91a3"/>
  <path d="M470.2 299.2l5.7-.1c.4 3.3.6 6.6.6 10-1.3.8-2.6 1.7-3.8 2.7a105.7 105.7 0 01-2-5.8c.7-1.2 1.4-2.3 1.7-3.6 0-1.4-1.3-2.3-2.2-3.2z" fill="#3f7997"/>
  <path d="M553.5 299.4l2.3 1.3-1 3.2-2.6-1.4 1.3-3.1z" fill="#29192b"/>
  <path d="M557.3 299.8c2 1.3 3.6 3 4.9 4.8l-2.9 1.2c-1-1.3-2.3-2.6-2.2-4.3l.2-1.7z" fill="#383c5b"/>
  <path d="M379.3 306.3c-.1-2.1.5-4.2 1.6-6l2.3 1.8-1 2.9-3 1.3z" fill="#664545"/>
  <path d="M461.3 302.5c2.8-1 5.8-1.4 8.7-1.6v3.5c-2.4.5-4.7 1-7.1 1.7-.6-1.2-1.2-2.4-1.6-3.6z" fill="#b1d7f0"/>
  <path d="M488.8 300.4c1.8 1.3 2 3.4 1.7 5.4-1.7-1.3-2-3.4-1.7-5.4z" fill="#72b86c"/>
  <path d="M555.8 300.7l1.3.8c-.1 1.7 1.2 3 2.2 4.3l2.9-1.2 2 5.1-2.7 1.3 2.2 6c.5 1.6 1.1 3 1.8 4.3-1 .4-2 .8-2.9 1l-3.5.2 1.2-2.7-4.8-1.1c1-1 2.1-1.8 3.2-2.7l-3.3-5-5 2.4-2.9.6-1.2-4.5 2.7-.4-.1-2-2.2-.2 1-1.1c.7-1.6 1.5-3 2.4-4.5l.7.5 1.4.7 2.6 1.4 1-3.2z" fill="#baae81"/>
  <path d="M457.3 304.6l1.2-3c1 2.6 3 4.8 5.3 6.6l2 7.1-3.6-.6c-1.8-3.3-3.2-6.8-5-10z" fill="#3d6b94"/>
  <path d="M386.8 305.2c0-1.6 1.2-2.6 2.6-3.3l.1 3.4-2.7-.1z" fill="#786660"/>
  <path d="M438.5 308.3l3.4-5.4c.9 1.3 2.2 2.7 2 4.4-.7 2.2-2.4 4-4 5.6a46 46 0 01-5.7 3.5c0-3.4.6-6.8 2.4-9.8l2 1.7z" fill="#e2ebed"/>
  <path d="M499.4 303.4l1.7.2c1.2 2.6 3.4 4.7 6.4 5.6-1 .7-2.5.9-3 2 0 1.8.7 3.6 1.2 5.3l-2 .3c.7-5-3-8.8-4.3-13.4z" fill="#015605"/>
  <path d="M549.2 303.3l2.8-.1c-.8 1-1.8 2-3 2.7l.2-2.6z" fill="#60553e"/>
  <path d="M553.9 308a9 9 0 013.3-3.8c0 1.1 1.5 2.7 0 3.5-1 .7-2.3.2-3.3.3z" fill="#7c6948"/>
  <path d="M383.1 305c1 .2 1.9.6 2.8 1 .2 1.4-.4 2.8-.8 4l3.1.5-2.5 2.5c-1.3-1.3-2.8-2.5-3.8-4 0-1.5.7-2.8 1.2-4z" fill="#3a2f3f"/>
  <path d="M551.6 308.7c-3-1.2.9-3.1 2.4-3.5-.7 1.1-.9 3-2.4 3.5z" fill="#615843"/>
  <path d="M387.3 307.1c1.3-.3 1.7 0 1.3 1.3-1.3.4-1.8 0-1.3-1.3z" fill="#3f413d"/>
  <path d="M545.2 308.4l1.5-1.5 2.2.2.1 2-2.7.4-1.1-1.1z" fill="#7e6f5f"/>
  <path d="M376.6 307.4c2 .4 4.2.9 4.4 3.1.8 1.7-1.6 2.3-2.7 3-.8-2-1.4-4-1.7-6z" fill="#3f222b"/>
  <path d="M560.6 308c1.3-.5 1.8 0 1.4 1.2-1.3.4-1.8 0-1.4-1.3z" fill="#56513d"/>
  <path d="M441.6 317.8c-1.2-4 1.6-7.2 4.4-9.9 1 1.8 2 3.6 2.6 5.6a29.5 29.5 0 00-4.6 8.7c-.9-1.5-1.8-2.9-2.4-4.4z" fill="#dbe9f7"/>
  <path d="M465 310c1.9-1.3 4.3-1.2 6.5-1.6l1.2 3.4-3.4 3.7-1.6 1c-1-2.2-2-4.2-2.6-6.4z" fill="#bbd2e6"/>
  <path d="M478.7 309.6c1.3-.5 2.7-.8 4.2-1l.9.1-.8.4-5.3 3 3.3 3.3-4 3-1 1 .5-2.2-5-1.8c2.4-2 4.6-4 7.2-5.8z" fill="#aac8c9"/>
  <path d="M477.7 312l5.3-3c.8 3.3 4.5 3.2 7.2 4.1-3.1.7-6.2 1.4-9.2 2.3l-3.3-3.3z" fill="#475c62"/>
  <path d="M491.4 309c3.8 1.8 6.3 5 7.8 8.7-2.2 3.4-3.8 8.9-8.9 9.1 1.8-2.4 3.5-5 4-8l-1-4.3.4-1.2-2.3-4.3z" fill="#bfc5a4"/>
  <path d="M561.5 311l2.6-1.3c.7 2.5.2 5-.4 7.4l-2.2-6z" fill="#4d414f"/>
  <path d="M380.6 313.6l4.6-.3-3.7 2.6-.9-2.3z" fill="#29192b"/>
  <path d="M386.4 314c1.9-1 4-.5 5.7.5-2 2.2-3.9 4.7-4 7.8-.5 3.2-.4 6.4-.4 9.6l-2.4-.1c-1.3-2.5-3.5-4.7-3.6-7.5 1-3.3 4.1-5.2 6.6-7.4-.8-.9-1.5-1.9-2-3z" fill="#c2ac65"/>
  <path d="M490.2 313.1c1 .5 2 1 3.2 1.4l1 4.4c-1.8-1.2-3.3-2.8-5.4-3.1-2 0-4.2.8-5.5 2.3-.8 1.5-.7 3.2-1 4.8l-.8-.6c-1-.5-1.8-1.1-2.6-1.7l-2-2.1c1.2-1.1 2.5-2.1 3.9-3 3-1 6-1.7 9.2-2.4z" fill="#2e0a1a"/>
  <path d="M407.5 315.7a19 19 0 0114.2.3c3.9 3.2 6.6 7.6 10.3 11-5.2-.4-10.7.9-15.4-1.6-1.8-1.1-4-.7-6-.2-.3.3-1 1-1.4 1.2l-3.7-1.4-1.5-1.8-2.8.2-.2 2 3.7 1.2 1.2 2.8-1.8 1.5-1.8.6 1.2-4.1-4-.7-.7-3.6c-1.8 1-4.4 2-3.4 4.4 1.4 1 3 1.6 4.5 2.3.3.3.7 1 1 1.2l-3.1-.4-4.6 1.1.4-4.4-3.8 1.2v-2l2.2-1.5c5-3.3 10-6.8 15.5-9.3z" fill="#c1c0b4"/>
  <path d="M518.8 316c3.9-1.8 8.3-1.2 12.5-1 3.2 0 5.6 2.1 8 3.7 2 1.5 4 3.2 5.8 5l-1.9 6c2.5-1.2 3.6-3.5 3.7-6 .7.7 1.4 1.5 2 2.4-1.1 1.6-2.6 3-4 4.4-2.8 0-5.6.3-8.4 1-1.6-3.3-5.1-5-8.4-6.4-2.3-.1-4.6-.2-6.9 0l.5-2.4c-1-1.4-2.4-2.3-3.7-3.4l4.3-2.4c1 2.7 1.7 5.4 3.3 7.7 1.8-2.2.5-5 .2-7.5 1.1-1 2.9-1 4.3-.6 1.9 1.4.9 3.5.2 5.2l1.8.6c0-1.2.2-2.4.3-3.5l3-1.8c-5-3-11.2-1.8-16.6-1z" fill="#cbc4be"/>
  <path d="M383.5 317.3l2.1-1.8.3 2.8h-2.7l.3-1z" fill="#6e5b34"/>
  <path d="M406 317.8c3.5-3.7 9-2.6 13.5-1.5-.3 2.8 1.9 4.5 4.2 5.7l.7 2.8c-3-1.1-5.8-3-8-5.2l-2.1 1-1.1-1.1c-2.6 0-5.1-.3-7.3-1.7z" fill="#e4dec8"/>
  <path d="M470 316.6l1.5-1.2 5 1.8-.5 2.3-1.6 2a87.5 87.5 0 01-4.9-4.4z" fill="#e3eeef"/>
  <path d="M483.5 318.1a7.3 7.3 0 015.5-2.3c2.1.3 3.6 2 5.3 3-.5 3-2.2 5.6-4 8l-4.3-1.6-3.4-2.3c.2-1.6.1-3.3.9-4.8z" fill="#830708"/>
  <path d="M518.8 316c5.4-.8 11.7-2 16.5 1l-3 1.8-.2 3.5-1.8-.6c.7-1.7 1.7-3.8-.2-5.2-1.4-.3-3.2-.5-4.3.6.3 2.5 1.6 5.3-.2 7.5-1.6-2.3-2.4-5-3.3-7.7l-4.3 2.4c1.3 1 2.7 2 3.7 3.4 0 .8-.3 1.6-.5 2.4-4 .6-7.9 1.5-11.9 1.6-1-.3-3-.2-2.3-1.8 3.4-3.5 7.8-6.1 11.8-9z" fill="#e1e2e0"/>
  <path d="M374.2 321c.9-1.6.6-5.2 3.3-4.7.5 2.3-1.7 3.5-3.3 4.7z" fill="#968581"/>
  <path d="M453 317c2 2.7 3.6 5.7 5.8 8.3l2 .3c-1.2 1.4-2.2 3-3 4.6l-1.5-4.1c-1.3-3-2.6-6-3.4-9z" fill="#29192b"/>
  <path d="M466.7 321.4a20 20 0 012.8-4.3c1.6 1.5 3.2 3 4.9 4.3-1.6 2.6-3 5.4-5 7.8-3-1-5.2-3-5.8-6l3.1-1.8z" fill="#aacdda"/>
  <path d="M499.2 317.7l2.2-.4.7-.2-5.3 7.2 2.3 2.3c3.4.6 6.8 0 10.2 0 4 0 8-.9 12-1.5 2.2-.2 4.5-.1 6.8 0-1.5 1.3-3 2.8-2.9 4.9-.1 5-1.1 11 2.7 15.1l-1.8 1.6-1.6 1.4h-.7l-.6-19.5c-12.8-.2-25.6 0-38.5.5h-.7c-4.5 0-9.3-.3-13.7 1.2-5.1 1.6-10 4.4-15.5 4.8-2.7-1.6-3.8-5.5-7.4-5.6a279.1 279.1 0 00-34.2.6l-1.4.4-1.1-5.3c1.9-.5 4-.9 6 .2 4.6 2.5 10.1 1.2 15.3 1.7 4.9 0 10 .7 14.8-.6.5-.9 1-1.8 1.3-2.7 2.4 3.5 4 7.7 8 9.9 4.2-2 8.8-3.4 13.4-4.5 2-2.4 3.3-5.2 4.9-7.8l1.6-2 1-1 2 2.2-3.6 2.5 4.2 2c2 1.1 4.7 2.3 6.4 0 1.4.7 2.9 1.2 4.3 1.7 5.1-.2 6.7-5.7 9-9.1z" fill="#0d162f"/>
  <path d="M539.3 318.7c2.9 1.6 5.7 3.3 8.8 4.5.8.6 1.6-.1 2.3-.5 0 2.1.5 4.3 1 6.4-4.2 2.6-7.9 5.8-12.6 7.5l-.4-1.2 3.7-2.5-4.5-.3.3 1.5-1.4-2.6c2.8-.7 5.6-1 8.4-1 1.4-1.4 2.9-2.8 4-4.4l-2-2.5c0 2.6-1.2 4.9-3.7 6 .6-2 1.2-4 2-6a65.3 65.3 0 00-5.9-5z" fill="#4c2a2a"/>
  <path d="M365.8 320.7c1.9-1 4.2-.5 6.2-.4l-.3.3c-2.9 2-5.7 4-8.3 6.1l-2.4-2.9c1.5-1.1 3-2.3 4.8-3.1z" fill="#87301b"/>
  <path d="M565.5 321.3l4-1.5.7 1.9c-3 2.2-6.1 4.4-9.3 6.4l-.4-2.1h-5c2.6-.9 5-2 7.1-3.7 1-.2 2-.6 3-1z" fill="#985030"/>
  <path d="M569.6 319.8l1.4.5 1.5 2c-3 1-5.6 2.6-7.6 4.8l7.1 2.1 5.8-2.8 3 1.8-1.5.1c-2 .3-3.8 1-5.5 1.8-.7 2.6-.8 5.4.1 8 4.5 2.4 9.8 5.9 15 3.2l1.2.2 1 1.3c-2 .7-4.1 1.3-5.9 2.5a11.5 11.5 0 00-1 8.7c1.7 3.1 4.7 5.8 8.2 7.2 2.9-.2 5.4-1.9 7.9-3.1l-.3 1.9c-2.4 1.2-5.3 2-7 4.2a25.4 25.4 0 00-1.7 10.9c0 3.3 3 5.6 5 8a112.9 112.9 0 004.7-.4c-1.5 1-3 2.1-4 3.7 1.1 1.4 2.2 3 3.7 4 2.6.2 5.2-.5 7.8-.9l.8 2.4c-2.4 0-4.7-.2-7 .1-2 3-2.6 6.8-2.2 10.3 2 3.4 6.3 4.9 9.5 7.2 4.5 5.6 2.4 13.2.8 19.4l-3.4-.6c-1.9-2-4.1-3.5-6.1-5.2-4.8-5-8.9-10.5-12.7-16.1l-5.8.9c2 4.4 6.2 7.4 8.5 11.6-3.4-3-6.7-6-9-9.7-1-1.3-1.8-2.5-2.8-3.6l1-1c2 .2 4 .6 5.9.7-.6-4.7-4.7-8-7-12-1.9-3-2.7-6.6-5.6-8.8l-1.7-1.2.2-.8 1.5-1.4c-3-6.5-5.3-13.3-7.6-20.1l-2.8-.2-.2-.5c.8-1.2 2.5-2.3 2-3.9-1-4-2.2-8.1-2.7-12.3l-2.1.3-1.8.3.8-1.7c1-.8 3-1.2 3-2.7.2-3-.2-6.1-.5-9.1l-.2-2.3-2.4-.2 2-1.2c3.2-2 6.3-4.2 9.3-6.4l-.6-1.9z" fill="#fcc497"/>
  <path d="M571 320.3c1.4.5 2.7 1 4 1.8 3.8 3.8 8.7 6.7 11.6 11.2 4 6.4 9.5 12 11.4 19.4-2.8-3-4.7-6.6-7-9.9l-1-1.3-1.1-.2c-2.2-5-5.9-9-9.6-13l1.5-.1-3-1.8a32.5 32.5 0 01-5.3-4l-1.5-2.1z" fill="#985c46"/>
  <path d="M363.4 326.7a111 111 0 018.3-6.1c.6 1.6 1 3.4 1.2 5.2-2.3 1-4.5 2.4-7 3-.9-.5-1.7-1.3-2.5-2z" fill="#c96d30"/>
  <path d="M475.4 323l3.7-2.4 2.6 1.7-2.4.9.3 2-4.2-2.1z" fill="#787a92"/>
  <path d="M575 322c5.7 1.4 9.4 6.1 13 10 5.3 6 8.8 13 12.2 20.2 2.4 4.4 3 9.5 5.6 13.8 1.8 3 1 6.9 2.7 10 2.7 4.4 2.9 9.7 3.7 14.7.5 6 3.2 11.6 2.8 17.6-.4 6.2 1 12.3.3 18.5-1 3.4-3.5 6.1-5.3 9.2l-2.4-1.3h-1.2l.2-2.2a35.9 35.9 0 01-6.1-5.8c2.9 1.6 5.9 3.2 9 4.5l3.2-1c1.6-4.6.7-9.4.5-14.1-.4-5.8.3-11.7-1-17.4-2.3-9-3.2-18.3-7-26.8-1.8-4.6-2.7-9.4-4.9-13.8a75 75 0 01-2.3-5.4c-1.9-7.4-7.4-13-11.4-19.4-3-4.5-7.8-7.4-11.5-11.2z" fill="#22213d"/>
  <path d="M387.7 331.9c0-3.2 0-6.4.4-9.6l1.4 2 2.5.7-2.2 1.5v2l3.8-1.2c0 1.5-.2 3-.4 4.4l4.6-1.1-.3 4.2 2.5-.6v3.1c-3.9-2.1-8-4.2-12.3-5.4z" fill="#351d1b"/>
  <path d="M460.8 323.9l1.5-1 1.3.2c.6 3 2.9 5 5.9 6a81.7 81.7 0 00-13.5 4.6 8 8 0 01.3-7.6l1.5 4c.8-1.5 1.8-3 3-4.5l-2-.3 2-1.4z" fill="#7693a3"/>
  <path d="M479.3 323.2l2.4-.9.9.6 3.4 2.3c-1.7 2.2-4.3 1-6.4 0l-.3-2z" fill="#fae5f1"/>
  <path d="M564.9 327.1c2-2.2 4.7-3.8 7.6-4.7 1.6 1.5 3.4 2.8 5.3 4l-5.8 2.8a836 836 0 00-7.1-2z" fill="#a9360b"/>
  <path d="M395.4 327.5c-1-2.4 1.6-3.4 3.4-4.4l.8 3.6 4 .7-1.3 4c.5 0 1.4-.4 1.8-.5-1.4 1-2.7 2.2-4 3.3l-2.6.6.3-4.2 3 .4-.9-1.2c-1.5-.7-3-1.4-4.5-2.3z" fill="#9f934d"/>
  <path d="M401.2 323.4l2.8-.2 1.5 1.8 3.7 1.4-3.3 3-1.2-2.8-3.7-1.1.2-2z" fill="#8b8856"/>
  <path d="M539.7 323.4c1.5 0 2.7.8 4 1.4-.9 1-1.6 2.3-2.8 3l-3.3-.8c.6-1.2 1.2-2.5 2-3.6z" fill="#3c3115"/>
  <path d="M360 324.6l1-.8 2.4 3c.8.7 1.6 1.5 2.6 2 2.4-.6 4.6-2 7-3l.7 1.1-3.8 2.2c-1.5 1.1-3.3 2.2-4.1 4-.4 1.4-.4 2.8-.5 4.3l3 1c2 .5 3.9 1.2 5.8 1.8.6-3.7.8-7.5 1.2-11.2l.6-2.3c.8 4.8 0 9.6-.3 14.4-.3 2.5 2.7 3.5 4.5 4.7l-.8.6-3.5-.9c-1.1 4.7-3.2 9.2-4 14 1.5 1.3 3.3 2 5 3l.4 2.2-2-1-3.9-2c-2.2 7.3-5.6 14-8.8 21a163 163 0 014.3 5.6l-2.3-1.1-3.6-2.2c-2 3.5-3.8 7.1-6 10.5-2.4 4-5.9 7.2-8 11.2 1.4.6 3 1 4.4 1.5.5 0 1.5.4 2 .5l-1.3 1.6-2.9-1.3-3.5-1.1a36.5 36.5 0 00-6.5 7.5l.5 1.2a69.5 69.5 0 01-6 5.1c1.5-1.9 3-3.7 4.4-5.7-3.2-.1-6.4-.1-9.6-.5l-2.1-.3a69 69 0 013.8-.5c2.8-.3 5.9 0 8.2-1.7 2-1.4 4-3 5.2-5.2 1.2-2-2-4.6-4-3.1-3.7 2-6.6 5.3-11 6l-3.8.3-.3-.6.3-1.7c2.4.2 5 .1 7.3-.8 2.7-1.8 5-4 7.9-5.7l1.6-1c1.3 1 2.7 1.8 4 2.6 5-4 8.8-9.2 11.5-14.8.7-1.7 1.9-4 .5-5.7a20.3 20.3 0 00-9.2-6.4c-3.2 3.6-5.6 8-9 11.5v-.7l-.2-1.2 3.3-3.5.4-.6c3.7-5.3 4-12.1 2.1-18.1-.3-1.5-1.6-2.6-2.9-3.5l-5-2.2v-.7l-.2-1.4h.7c2.2.7 4.3 1.7 6.4 2.5 3 1.6 6-.8 7.8-2.9 2.6-2.8 2-6.9 1.3-10.3a9 9 0 00-2.8-5l-2.2-2c4.2 2.1 9.3 2.1 13.3-.6 3-1.5 2.1-5.2 2.5-7.8l-2.2 1.1a493 493 0 01-2.1-1.7l3.3-.5a159.5 159.5 0 01-2.8-4.7z" fill="#fdc896"/>
  <path d="M349.2 337.4c3-4.6 6.1-9.5 10.8-12.8l1.4 2.5c-2.2 2-4.2 4.3-5.2 7l-2.4.4.4 4.3-5-1.4z" fill="#83210e"/>
  <path d="M376.3 325.3c3 6 3 13 5 19.5l-1.2 1c-1.8-1.2-4.8-2.2-4.5-4.7.3-4.8 1.1-9.6.3-14.4l.4-1.4z" fill="#9b4c1c"/>
  <path d="M361.4 327l1.4 2.3-3.3.5 2.1 1.7 2.2-1.1c-.4 2.6.5 6.3-2.5 7.8-4 2.7-9 2.7-13.3.7l1.2-1.5 5 1.4-.4-4.3 2.4-.3c1-2.8 3-5.1 5.2-7.1z" fill="#c56d1b"/>
  <path d="M373.7 326.9l1.6 2c-.4 3.8-.6 7.6-1.2 11.3l-5.8-1.9c1.8-1.3 4.3-2.6 4.4-5 .4-2-1.7-3-2.8-4.2l3.8-2.2z" fill="#832604"/>
  <path d="M551.4 329l3.4-1 1.9 4.2H555c-2-.1-3.8-.5-5.6-1l.6 4.7-5.5-1.4c0 1.7 1 4.3-1.4 4.7-2.1 0-4-1.2-6-1.9l1.7-.7c4.7-1.7 8.4-5 12.6-7.5z" fill="#7e7488"/>
  <path d="M554.8 328h2l.5 2.3 1.6-1 2.4.2.2 2.3-2.7-1.6c1 4.4 1.9 9 .2 13.4l-.8 1.7 1.8-.3-.2.9c-1 .7-2.3 1.4-3.2 2.3-1.4 2.6-.9 5.7-.5 8.5-.8-1.7-1.8-3.3-2.7-5l-4.1-.7c2.3-1 4.4-2.2 6.2-3.8l-3.4-.3-1.4-1.4 1.2-.1c1.6-.2 3.3-.4 5-.4l.3-2.8-4.9.1.4-2.5c2.6-1.8 2.3-5 2.3-7.6h1.7l-1.9-4.2z" fill="#c57c3e"/>
  <path d="M573.8 330c1.7-.8 3.5-1.4 5.5-1.7 3.7 4 7.4 8 9.6 13-5.2 2.7-10.5-.8-15-3.2l4-1.6-1.6-1.6 2.8-1.7-1.3-2.4a308 308 0 01-4-.7z" fill="#92130d"/>
  <path d="M484.7 329.1c12.9-.5 25.7-.7 38.5-.5.2 6.5.3 13 .6 19.4l-3.3-.2.4-.6 1.6.4c-2.3-5.9-.9-12.2-.5-18.3-12.4-.3-24.8 0-37.3-.2z" fill="#d0d1dd"/>
  <path d="M365.8 333c.8-1.7 2.6-2.8 4.1-3.9 1 1.3 3.2 2.3 2.8 4.1-.1 2.5-2.6 3.8-4.4 5.1l-3-1c0-1.4 0-2.8.5-4.2z" fill="#ad4d14"/>
  <path d="M413.2 330.1c3-.8 6.3-1 9.5-.7 8 1.4 16.3-.2 24.4 1 2.2 1.7 3.5 4.2 5 6.5 8.5-.9 16.8-2.9 25-5 2.3-.7 4.6-1.8 7-2.8h.6c12.5.2 25-.1 37.3.2-.4 6-1.8 12.4.5 18.3l-1.6-.4c-3.7-1-7.1-2.6-10.8-3.2-3.1-.5-6.2.2-9 1.4-3.4 1.6-6.3 4.6-10.3 4.4-3.3 0-6.7.3-10-.6-6.2-5.5-15.9-5.2-22.8-1.1l-1.9.2c-4.2.6-8.3 1.8-12.6 2l.2-1.9 4-1.6c-1.4-.3-3-.5-4.4-.6h-4.7c-3.3-1.6-6.9-3.3-10.7-2.8-5 .6-9.3 3.3-14 4.9-.8-6-.3-12.1-.7-18.2z" fill="#f7f6f9"/>
  <path d="M422.7 329.4c8.3-.2 16.5-.4 24.7.1 3.6 0 4.7 4 7.4 5.6 5.5-.4 10.4-3.2 15.5-4.8 4.4-1.5 9.2-1.1 13.7-1.2-2.3 1-4.6 2-7 2.8-8.1 2.1-16.4 4.1-24.8 5-1.6-2.3-3-4.8-5.1-6.6-8-1.1-16.3.5-24.4-1z" fill="#cbcad3"/>
  <path d="M564 329.5a10 10 0 017.5 1.1c1 1.7.5 3.8.7 5.7-2.5 1.5-4.7 3.4-7.5 4.2-1.9-3.3-1.5-7.4-.7-11z" fill="#bd5b1a"/>
  <path d="M558.8 330.2l2.7 1.6c.3 3 .7 6 .5 9 0 1.6-2 2-3 2.8 1.7-4.4.7-9-.2-13.4z" fill="#8b3000"/>
  <path d="M573.9 338.1c-.9-2.6-.8-5.4-.1-8l4 .7 1.3 2.4-2.8 1.7 1.6 1.6-4 1.6z" fill="#b44114"/>
  <path d="M549.4 331.3c1.8.4 3.7.8 5.6.9 0 2.7.3 5.8-2.3 7.6l-2.8.7c-.6-1.8-2.1-3-3.9-3.7-.7 3-.8 6.1-.4 9.2l-2 1-3.2-1.4 1.3 2.5-3 2.2c-2.6-.7-5.3-1.7-8-1.5-1.6 1.1-.9 3.1-1 4.6l-1 2.1 1.6 1.8c-2.4.8-5 1-7.5.6v-1.5c1.7-.4 4.3.5 4.8-1.6-1.5-.6-3-1-4.5-1.4l.2-.5c2-.4 4-1 5.2-2.8l-2.4-3.4 1.8-1.6c3-2.6 6-5.4 9.3-7.8 1.9.7 3.8 2 5.9 1.9 2.5-.4 1.3-3 1.4-4.7l5.5 1.4-.6-4.6z" fill="#d0ccd6"/>
  <path d="M381.1 335l3-3.4 1 2.5 1.3-.2 4.2-.7-1 4 1.2 1.3-.6 1.6-2.8.8-.3-2.9a238.3 238.3 0 00-3 .5l-.3-2.4-2.7-1.1z" fill="#e8dad3"/>
  <path d="M385.3 331.8h2.4c4.4 1.3 8.4 3.4 12.3 5.5l3 2.2-.1 4.4 3-.8 5.8 4.5-5.3-.1-.3 1h-3l-.5 2.3h7.1l-.2 2.5 3.8 1-3 1.6 3.5 2.4a783 783 0 01-3.6 1.8l-2-1 .4-3.1c-2 .7-4 1.8-5.8 2.8a51 51 0 00-1-.8c1.2-1.5 4.1-3.3 2.3-5.3-1.7.8-3 2.3-4.3 3.7h-2.2l4.1-4.5-1.1-2.5-5.7 5.5c1-2 2-3.8 3.2-5.6l-.4-2.6-2.2.6.5-1.7c1.7 1.7 3.9-1.8 1-1.6l2.2-1.2 1.3 2.7a61 61 0 001-4.4l-2 .5c-1.6.4-3.1 1-4.7 1.6-.7-2.6 1-4.7 2.8-6.6-2.4.9-4.8 2-5.8 4.4l-1.6-.9.6-1.6-1.2-1.3 1-4-4.2.7-1.1-2.1z" fill="#bdb4b0"/>
  <path d="M537.6 332.6l4.5.3-3.7 2.5-.5-1.3-.3-1.5z" fill="#afc2cd"/>
  <path d="M550.7 338.9c0-2.1.4-4.4 2.4-5.7.4 1 .8 2 .7 3 0 1.7-2 2-3.1 2.7z" fill="#8c7b78"/>
  <path d="M391.8 341c1-2.4 3.4-3.5 5.8-4.4-1.7 1.9-3.5 4-2.8 6.6 1.6-.6 3.1-1.2 4.7-1.6l-.3 1.2-2.1 1.2-1.1 1.6-.5 1.7a26.3 26.3 0 01-4.2 4.7c1.3-2.5 2.8-5 2.9-8l-3.9 2.4 1.5-5.4z" fill="#e7dfda"/>
  <path d="M546 336.8c1.8.7 3.3 1.9 3.9 3.7l.4 1h-4.1l2 2.3-1.8 2.8c1.4.6 3 1 4.4 1.3l-3.5 1.7c-1.2-1-2.4-1.8-3.7-2.7l2-1c-.4-3-.3-6 .4-9z" fill="#8b7b83"/>
  <path d="M386 338.2l1-.2.4 2.9 2.8-.8c-1.4 2-2.4 4.2-3.3 6.5l-2.2-4.1c.7 3.1 2 6 2.4 9.3l3.4 1.8-4.1-.2-2-1.1a27.4 27.4 0 01-2.9-7c1.8-2.1 3.2-4.6 4.5-7z" fill="#b3a490"/>
  <path d="M341.3 350.7c1.5-4.2 3.5-8.4 6.7-11.8l2.2 1.9c0 2.6-.4 5.3-1 7.8l-2.7.9.2 1.3-1.5.6.2 3.4-3.8-1.5-.8 2.2 3.1 3.5c-2.1-.8-4.2-1.8-6.4-2.5 1.3-2 2-4.3 2.9-6.5l.9.7z" fill="#8f1a0f"/>
  <path d="M354.6 342.8c2.8-2 6.3-3.3 9.7-3.6 3.6.7 7 2.5 9.4 5-.7 5-2 9.9-4.3 14.3l-5.4-2.2-.6-3.4 4.2 2.2-1.6-5.2 4 1c-.4-1-1-2-1.5-2.9l.5-5a97 97 0 00-9.3-.6l1.1 3-2.3 1 1 4.4a20.3 20.3 0 00-5.2-3c0-1.7 0-3.4.3-5z" fill="#932a07"/>
  <path d="M549.9 340.5l2.8-.7a86 86 0 00-.4 2.5l5-.1-.4 2.8c-1.7 0-3.4.2-5 .4l-1.6-4-.4-1z" fill="#5c3127"/>
  <path d="M567.5 341.2c1.7-.8 3.7-2.2 5.7-1.3a20 20 0 018.2 5.3c.9 3-.5 5.9-1 8.7 3.2 3.4 7 6.2 10 9.8.3 4.2-.2 8.6-1.7 12.5-2 2.5-5.3 3.6-8.3 4.7-1.6.4-4 1.2-5-.7-3.2-4.7-4.5-10.2-6.2-15.6l5.1.6-2.8 1.6 2.2 2.4v2l7.2-.8c-1.9 2-3.6 4-5.2 6 2.6-1.1 5.1-2.3 7.6-3.6a171 171 0 00-2.3 4.8c1.9-1.2 4.5-2 5.5-4.1-.5-2.9-1.8-5.5-2.7-8.3l1.6-1.9c-2.8-2-5-4.5-6.4-7.6l-.7-1.3-4.5 2.2c2-3.2 3.2-7.1 1.5-10.7-1-3.1-4.7-4.2-7.8-4.7z" fill="#961d04"/>
  <path d="M390.2 340.1l1.6.9-1.5 5.4 3.9-2.3c0 2.9-1.6 5.4-2.9 8 1.6-1.5 3-3 4.2-4.8l2.2-.6.4 2.6a63.2 63.2 0 00-3.2 5.6l5.7-5.5 1.1 2.5-4.1 4.5c-1.3 0-2.4.2-3.6.3-.8 3.4-1.2 7-1.3 10.5l-.2.5-1.2.7.3-.7.6-1.3-3.3-1.8 1.9-.6 1-3.7-.7-1 .7-2.6c-2.2-.8-4.5-1.7-6.3-3.2h5l-3.4-1.7c-.4-3.2-1.7-6.2-2.4-9.3l2.2 4c.9-2.2 2-4.3 3.3-6.4z" fill="#4d2d34"/>
  <path d="M540.3 340.5l4 .6c-.4 1.7-1.1 3.3-3 4l-1.7-3.1.7-1.5z" fill="#817883"/>
  <path d="M553.4 340.6c.4.3.4.3 0 0z" fill="#d5deea"/>
  <path d="M350.2 340.8a9 9 0 012.8 5c.6 3.4 1.3 7.5-1.3 10.3-1.8 2-4.8 4.5-7.8 3l-3-3.6.7-2.2 3.8 1.5-.2-3.4 1.5-.6-.2-1.3 2.6-.9c.7-2.5 1-5.2 1-7.8z" fill="#c77a29"/>
  <path d="M399.5 341.6l2-.5a61 61 0 01-1 4.4l-1.3-2.7.3-1.2z" fill="#432f45"/>
  <path d="M546.2 341.5h4.1l1.6 3.9-1.2.1-2.4-1.7c-.8-.7-1.5-1.5-2.1-2.3z" fill="#d7bcb2"/>
  <path d="M565.9 341.2h1.6c3 .5 6.7 1.6 7.8 4.7 1.7 3.6.4 7.5-1.5 10.7l-2.8.6 2.7-4.2c-2.2 1.2-4.8 2.3-7.4 1.5 2-1.6 4.2-2.9 6.5-3.9l-6.4.4c.7-1.4 2-2.2 3.5-2.7l-3.6-3.1 5.7-.6c-1.9-.9-3.8-1.9-5.5-3z" fill="#e2751e"/>
  <path d="M359.7 342.4c3.1 0 6.2.3 9.3.7l-.5 5 1.6 2.7-4.1-1 1.6 5.3-4.2-2.2.6 3.4c-4.3-1.4-9.4-3.7-9.7-8.6 2 .8 3.6 1.8 5.2 3l-1-4.3 2.3-1-1.1-3z" fill="#d5731b"/>
  <path d="M566.5 341.6c1.7 1.1 3.6 2.1 5.5 3l-5.7.6 3.6 3.1a5.9 5.9 0 00-3.5 2.7c2.1 0 4.3-.2 6.4-.4-2.3 1-4.5 2.3-6.5 3.9 2.6.8 5.2-.3 7.4-1.5l-2.7 4.2c-1.6 1.4-4 .4-4.8-1.4-1.7-4.1-1.5-8.6-1.4-13l1.7-1.2z" fill="#933f06"/>
  <path d="M414 348.3c4.6-1.6 9-4.3 13.9-5 3.8-.4 7.4 1.3 10.7 3l-.3.6-2.4 4.1c-3-.8-5.9-1.8-9-2.1-2.9-.4-5.6 1-8.2 2.1l1.9.2-5.8 1.6-.8-4.5z" fill="#1565c0"/>
  <path d="M534.3 343.4l4.5-.2c.2 1.6 1 3.4-.4 4.8l-4 .1-.1-4.7z" fill="#868291"/>
  <path d="M585.2 345.3c1.8-1.2 3.9-1.8 5.8-2.5 2.3 3.3 4.2 6.9 7 9.9a75 75 0 002.3 5.4c-2.5 1.2-5 2.9-8 3-3.4-1.3-6.4-4-8.1-7.1-.8-2.9-.5-6.1 1-8.7z" fill="#9d1e0c"/>
  <path d="M396 345.6l1-1.6c2.9-.2.7 3.3-1 1.6z" fill="#69666b"/>
  <path d="M501 345.4c2.9-1.2 6-2 9-1.4 3.8.6 7.2 2.2 10.9 3.2l-.4.6-1.7 3a28.5 28.5 0 00-14.4-.1l-.6-1.3 1-2.7-3.7-1.3z" fill="#1564c5"/>
  <path d="M548.3 343.8l2.4 1.7 1.4 1.4 3.4.3c-1.8 1.6-4 2.9-6.2 3.8l4 .7-2 1.2-3.8-1 1.3 2.2c-1.8 1-3.7 2.2-4.1 4.3l-.6-4.2-3 .2 2.8-2.2c-2.5.5-5 1.1-7.6 1.1a13 13 0 012.5-3l2.9-2.2-1.3-2.5 3.2 1.3 3.7 2.7 3.5-1.7c-1.5-.4-3-.7-4.4-1.3l1.9-2.8z" fill="#5b3b35"/>
  <path d="M381.3 344.8l.2.6c.7 2.4 1.5 4.8 2.9 6.9-1.3.9-.8 2.7-.7 4-.2 4.2-2.3 8-3.9 11.7-3.4 8-7.2 15.7-12.3 22.7a99 99 0 00-5.8 9.6c-2.3 4.2-6 7.6-8.7 11.7-2.5 3-5.6 5.4-8.1 8.4l-3.7 1.4 1.3-2.7 1-.6a17 17 0 006.5-5.5l2-2.7 1.3-1.6c3.6-4 6.8-8.3 9.3-13 1.4-2.4 2.5-5 4.2-7.4 5.1-6 8-13.2 10.8-20.2 2-4.7 4.7-9.3 4.4-14.5 0-2-2-3-3.5-4l.8-3.2.8-.6 1.2-1z" fill="#8c6a33"/>
  <path d="M458 348c7-4 16.6-4.3 22.9 1.2l-2.6 2.8a123.5 123.5 0 00-.7.3c-3.7 0-7.4.4-11.1 0-3-.4-5.4-2.2-7.2-4.3H458z" fill="#1862c4"/>
  <path d="M560 345l2.1-.3c.5 4.2 1.6 8.2 2.6 12.3.6 1.6-1 2.7-1.9 3.9l-1-1.7c0-4.5-.5-9-2-13.3l.2-.9z" fill="#893702"/>
  <path d="M375.8 345.5l3.5 1-.8 3c-1.4 4.2-2.9 8.5-1.7 13-1.7-1-3.5-1.7-5-3 .8-4.8 2.9-9.3 4-14z" fill="#863608"/>
  <path d="M438.6 346.2h4.7c-.5 1.4-1 2.9-1.2 4.3l-2.5-2-1.3-1.6z" fill="#9b9aa2"/>
  <path d="M490.8 349.8c4 .2 7-2.8 10.3-4.4l3.8 1.3-1 2.7c0 .3.4 1 .5 1.3 4.7-1.3 9.7-1 14.4.1l1.7-3 3.3.2h.7c-.5 1.6-.9 3.3-1.2 4.9l-.2.5-.2 3v1.5l-.6 7.1-2.3.9-1.6-.6c1.7-2.6 1.8-5.7 1.4-8.6-4.9-.2-9.9.4-14.3 2.5l-.6-.9c5-3.4 11.4-2.3 17-3.7-5.6-4.7-13.8-3.8-20.5-2.3l.3-5.4a18 18 0 00-5.9 5c-3.7-.5-7.4-1.7-11.1-1l-4.7.9-1.7.2 2.6-2.8c3.2 1 6.6.5 9.9.6z" fill="#112973"/>
  <path d="M399 346.6l4-.2-3 2.7-1-2.5z" fill="#5f5163"/>
  <path d="M443.3 346.2l4.5.6-4 1.6-.3 2c4.3-.3 8.4-1.5 12.6-2l1.1 1.8c-5.4-1.7-10 2.7-15.5 2.7l.4-2.4c.3-1.4.7-2.9 1.2-4.3z" fill="#4c5862"/>
  <path d="M524.5 348l1.6-1.3 2.4 3.4c-1.2 1.7-3.2 2.4-5.2 2.8.3-1.6.7-3.3 1.2-4.8z" fill="#6c7490"/>
  <path d="M556.6 348.2c1-1 2.1-1.6 3.2-2.3 1.5 4.3 2 8.8 2 13.3l1 1.7.2.5c1.7 6 4.5 11.7 6.5 17.7-1-.8-2.4-1.5-3.1-2.7a37.5 37.5 0 01-4.4-14.2l-3 1.1-1.4-2.3-1.5-4.3c-.4-2.8-.9-5.9.5-8.5z" fill="#d89625"/>
  <path d="M406.4 347.5h5.3l.5.2a39 39 0 00-.7 2 12 12 0 012.3 8.6 622 622 0 01-3.5-2.4l3-1.5-3.8-1 .2-2.6h-7.1l.6-2.3h3l.2-1z" fill="#79737b"/>
  <path d="M435.9 351l2.4-4.1 1.3 1.6c-1 1.1-2 2.3-3.1 3.3-3.3.2-6.3-1.6-9.5-1.9-2.2 0-4.3.8-6.4 1.3l-1.9-.2c2.6-1.2 5.3-2.5 8.3-2.1 3 .3 6 1.3 8.9 2.1z" fill="#08275b"/>
  <path d="M495.8 351.8a18 18 0 016-5l-.4 5.5c6.7-1.5 15-2.4 20.6 2.3-5.7 1.4-12.1.3-17.1 3.7l-.5-.2-3.1-1.5-1.4 2.6-2.8-1.8-.5-.3c-6-1.2-12-2.6-18.1-1.3-1.8-.3-3.6-.8-5.3-1.3l4.4-2.2 2.4-.5 4.7-.9c3.7-.7 7.4.5 11.1 1z" fill="#d6dce4"/>
  <path d="M456.1 348.3l1.9-.2 1.3-.1c1.8 2 4.2 3.9 7.2 4.2 3.7.5 7.4.2 11.1 0l-4.4 2.3a29 29 0 00-7-1.1c-.8 1.6-1.6 3.1-2.7 4.5-2.9-2.7-7.2-2.4-10.8-1.6-3.2.8-6.1 2-9.1 3.2l.8 3.5a90 90 0 00-4-2.1c.3-1.2.7-2.5 1.2-3.7l.9-.9c2.2.6 4.6.7 6.7-.4 4.8-2.3 10.3-1.6 15.5-2.5a48.8 48.8 0 00-7.5-3.2l-1.1-1.9z" fill="#2b4369"/>
  <path d="M436.5 351.8c1.2-1 2-2.2 3-3.3l2.6 2-.4 2.4c5.4 0 10-4.4 15.5-2.7 2.6.8 5 2 7.5 3.2-5.2.9-10.7.2-15.5 2.5a9.3 9.3 0 01-6.7.4l-.9 1-2.1 1-1.7-1.5-.4-.3c-4.5 0-8.5-2.4-13-1.7-3 .3-6.2.4-9.2.2l-.4-2.2 5.8-1.6c2-.5 4.2-1.2 6.4-1.3 3.2.3 6.2 2.1 9.5 2z" fill="#d5deea"/>
  <path d="M530.6 348.8c2.8-.2 5.5.8 8.2 1.5a13 13 0 00-2.5 3c2.6 0 5.1-.6 7.6-1.1l-2.9 2.2-2.2.1-5.3.5c1.6.8 3.3 1.5 5 2.1-.4 3-1 6.1-2.2 9l-1.5-1.7c.9-2 1.4-4 1.5-6.2l-3.1.1-1.4 7.9 1.9.8c-1 1.3-2.1 2.6-3 4 1.3.5 2.7.8 4 1.2v.5l-4.8.4-.2 2.8 5.5.7v.6c0 .4-.4 1.2-.6 1.6l-3.5-1.1.3 3.3 4.3-.1-1.7 3.6-4.3-3.2c-.2-1.4-.4-2.8-.8-4.1-1.3-1-2.9-1.5-4.3-2.1a15 15 0 01-2.3-10l.5-7.2c2.5.4 5 .2 7.5-.6l-1.6-1.8 1-2c.1-1.6-.6-3.6 1-4.7z" fill="#b5a3a3"/>
  <path d="M378.5 349.5c1.4 1.1 3.5 2 3.5 4 .3 5.3-2.5 10-4.4 14.6-2.8 7-5.7 14.3-10.8 20.2l-2.6-3.6h3c-.7-1.2-1.6-2.2-2-3.4.6-1.8 1.8-3.4 2.8-5 2.2-3.5 3.3-7.5 4.7-11.3l2.6-1.4 2 1-.5-2.2c-1.2-4.4.3-8.7 1.7-12.9z" fill="#ddb240"/>
  <path d="M406 352c.8-1 3 .2 2 1.3-.8 1.1-3 0-2-1.2z" fill="#6f6665"/>
  <path d="M547.5 352a60.9 60.9 0 016 1.7l-3.3 1.6 2.2 2c-1.4 0-2.8.2-4.2.4l2.7.5v2l-4 .3c-.2 1.9-.4 3.7-.4 5.6-.8-2.5-1.5-5-1.8-7.7.4-2.1 2.3-3.3 4-4.3l-1.2-2.1z" fill="#a98a63"/>
  <path d="M551.3 352.9l2-1.2c1 1.7 2 3.3 2.8 5l1.5 4.3c.8 3.2.5 6.5.3 9.7l-1.7-4.2-9.3.9-.4-1.3c0-1.9.2-3.7.3-5.6l4-.2.1-2.1-2.7-.5 4.2-.5-2.2-1.9 3.3-1.6-2.2-.8z" fill="#d9b895"/>
  <path d="M383.7 356.4c0-1.4-.6-3.2.7-4.1l2 1.1-1 .1c2 1.5 4.2 2.4 6.4 3.2l-.7 2.6.6 1a272 272 0 00-1 3.7l-1.8.6 3.3 1.8-.6 1.3h-2.2c.7 4.1-1.3 8-4 11.2a34 34 0 001.4-8.6c.1-1.3-1.2-2.1-2.2-2.9-1.6 1-3 2.3-4.3 3.7 1-2.7 2.6-5.2 5.4-6.6l-2-8.1z" fill="#b27b3a"/>
  <path d="M399.8 356.4c1.3-1.4 2.6-2.9 4.3-3.7 1.8 2-1 3.8-2.3 5.3l-2-1.6z" fill="#3f3651"/>
  <path d="M466.2 353.4c2.3.1 4.7.4 7 1 1.7.6 3.5 1 5.3 1.4l-3.6 1c.7 1.5 1.9 2.7 3.1 3.8 3.6 3.2 6.7 6.8 9.7 10.5 4 4.9 8.7 9.2 12.8 14 4.8 5.8 9.8 11.5 15 16.8l3 2.7c1.3 3-.4 6-1.5 8.7-1.6 3.2-2.9 6.5-5 9.3-1.5 2.1-4.3.8-6.4.5l.2-2.6 3 3 2.8-5c1.3-2 2.6-4 3.6-6.1.8-1.7 1.9-3.5 1.8-5.4-1.2-3-4-5-6.2-7.2-4.8-4.3-8.3-9.5-12.6-14.2-5.4-6-10.5-12.2-16.3-17.8-4.2-4.1-7.4-9-11.6-13a9.6 9.6 0 00-4.6 2.9c-11.7 12.9-24.3 24.9-36 37.8-2.8 3.2-6.3 5.9-8.9 9.3-1.4 1.5-.2 3.5.4 5 2 4.5 4.1 9 7.4 12.8h1.1l.7-.1 1.6-.2a66 66 0 00-2 2.2c-2.7-.9-5-2.7-6-5.2l-4.7-7.5c-1.5-2.6-2-5.6-2.6-8.4l1.7-.1c1.4 0 2.2-1 3-1.9 5.5-5.6 10.6-11.3 16-16.9l13.4-13.6 5-5.6c2.5-2.6 5.1-5 7.7-7.4 1.1-1.4 2-3 2.7-4.5z" fill="#023022"/>
  <path d="M523.1 353.4c1.5.4 3 .8 4.5 1.4-.5 2-3.1 1.2-4.7 1.6l.2-3z" fill="#93949d"/>
  <path d="M533.5 355l5.3-.5c0 .9-.2 1.7-.3 2.6-1.7-.6-3.4-1.3-5-2.1z" fill="#564240"/>
  <path d="M465.7 357.7a9.6 9.6 0 014.6-3l-1.8 3c-8.8 9.3-17.9 18.3-26.7 27.5-5.4 6-10.8 11.9-16.6 17.5-1.3 1.2-2.7 2.5-3.4 4.1 2.1 5.4 5.4 10.4 8 15.7l-1.2.1a51.1 51.1 0 01-7.4-12.7c-.6-1.6-1.8-3.6-.4-5 2.6-3.5 6.1-6.2 9-9.4 11.6-13 24.2-25 35.9-37.8z" fill="#4eab49"/>
  <path d="M470.3 354.8c4.2 4 7.4 8.9 11.6 13 5.8 5.6 11 11.8 16.3 17.8 4.3 4.7 7.8 10 12.6 14.2 2.3 2.2 5 4.3 6.2 7.2.1 2-1 3.7-1.8 5.4-.1-2.3-.3-4.7-1.7-6.6-2.8-4-6.8-7-10-10.6l-6.3-7.2c-3.3-3.5-5.7-7.9-9.5-11-7.5-5.4-10.6-15-19.2-19.2l1.8-3z" fill="#159124"/>
  <path d="M478.5 355.8c6-1.3 12.1 0 18 1.3l.6.3a20 20 0 01-.9 5.3l-2 1 1.3 5-1.3.2-3.7 1c1.4-3.3 2.8-6.6 4.8-9.7v-1.7c-5.9-1.4-12-3-17.9-.8l.6 2.9a11.8 11.8 0 01-3-3.9l3.5-.9z" fill="#102f57"/>
  <path d="M347.2 362c2.3-2.8 5.4-5.4 9-6.5a25 25 0 0111 4.5c2 1.4 1 4 .6 5.9a57 57 0 01-7.5 15.9 45.7 45.7 0 01-7-4.6l2.8.1.5-2.9 2.8 1.2-.6-5.5 3.7-.2-1.1-3 2.3-.7 1-5-4.5-3.4c-1.6.6-3.3 1.2-4.8 2 .3 1.1.8 2.2 1.3 3.3-1.8 2.5-4.2 4.4-6.6 6.4-.5 1.6-.8 3.3-1 5a25 25 0 01-2-12.5z" fill="#8f2007"/>
  <path d="M402.8 358.8c1.9-1 3.7-2 5.8-2.8l-.4 3.1-1.9-.8c-2 1.1-4 2.1-6.2 3l-.2-3.6c-1.3.3-2.8.3-4 1-1.2 2.8-1.8 5.8-3.2 8.5 0-3.6.5-7 1.3-10.5l3.6-.3h2.2l2 1.6 1 .8z" fill="#29192b"/>
  <path d="M416.3 356.8c5.5-.5 11.3-1.4 16.7.6 1.4.4 5 1.3 3.2 3.1-3 4.2-9 2.5-13.3 3.6-1.6.4-3.1 1-4.5 1.7a16.2 16.2 0 01-2.1-9z" fill="#0d69cb"/>
  <path d="M452.7 356.3c3.6-.8 8-1.1 10.8 1.6-2.6 2.5-5.2 4.8-7.7 7.4-2.5 1.6-5.1 3.8-8.3 3.6-2.6-.4-2.3-3.5-3-5.4l-.1-.5-.8-3.5c3-1.1 6-2.4 9-3.2z" fill="#0a6ace"/>
  <path d="M570.9 359.5l8.1-3.8c1.4 3 3.6 5.7 6.4 7.6l-1.6 2c1 2.7 2.2 5.3 2.7 8.2-1 2.1-3.6 2.9-5.5 4a171 171 0 012.3-4.7c-2.5 1.3-5 2.5-7.6 3.6 1.6-2 3.3-4 5.2-6l-7.2.9v-2.1l-2.2-2.4 2.8-1.6c-1.7-.2-3.4-.3-5-.6h-.6v-1.2c2.4-.6 4.9-.9 7.3-1.2l-5.1-2.7z" fill="#db7a12"/>
  <path d="M383.7 356.4l2 8.1a11.4 11.4 0 00-5.4 6.6 35.3 35.3 0 00-3.7 11.2l-3.7 2.5c-1.6 2-2.8 4.1-4 6.3l-1.4-.4c5-7 9-14.8 12.3-22.7 1.6-3.7 3.7-7.5 3.9-11.6z" fill="#f5d7a9"/>
  <path d="M437.8 356.8l1.7 1.5 2.1-1-1.3 3.6a90 90 0 014 2l.2.6-2 .3a75 75 0 00-7.8 1.2c1.6-2.5 3.6-5 3-8.2z" fill="#aab8d1"/>
  <path d="M477.4 357.7c5.8-2.3 12-.6 17.8.8l.1 1.7c-2 3-3.4 6.4-4.8 9.8l-2.8 1c-3-3.6-6.1-7.2-9.7-10.4l-.6-3z" fill="#0c66d1"/>
  <path d="M501.3 356.6l3.1 1.5-1.7 2.3 2.5 3h-1.3l-2.1-.4a7.7 7.7 0 01-1.9-3.8l1.4-2.6z" fill="#19345e"/>
  <path d="M505.5 359.2c4.4-2.1 9.4-2.7 14.3-2.5.4 3 .3 6-1.4 8.6-3.8-1.7-8-2.4-12.2-2L505 366a64 64 0 01-1.2-2.1v-.6h1.4l-2.5-3 1.7-2.3.5.2.6 1z" fill="#136bce"/>
  <path d="M497.1 357.4l2.8 1.8c.2 1.5 1 2.7 1.9 3.8-1.9 0-3.7-.1-5.6-.3.6-1.7.8-3.5 1-5.3z" fill="#7b95ae"/>
  <path d="M330 371c1.7-4.7 3.6-9.4 7-13.1v.7c.4 3.3-2 6-3.2 9-1.6 3.3-3 6.8-5.3 9.8.6-2.2 1-4.3 1.4-6.5z" fill="#3c1b32"/>
  <path d="M355.4 359.8c1.5-.8 3.2-1.4 4.8-2l4.6 3.3-1 5.1-2.4.7 1 3-3.6.2.6 5.5-2.8-1.2-.5 3-2.7-.2c-1.2-.2-2.3-1-3.3-1.5l2.8-1c-.6-2-1.5-3.7-2.8-5.2 2.4-2 4.8-3.9 6.6-6.4-.5-1-1-2.2-1.3-3.3z" fill="#ce6d12"/>
  <path d="M406.3 358.3l1.9.8 2 1a783 783 0 003.6-1.8c-.2 2.5.4 5 1.7 7.3l-1.4 2.7-.2.5-3.4-2.5-3 3.3-1.1-3.2-2.7 2.8-1.8.5-1.2-3c2.2-.8 4-2 5.6-3.6l-6.1-1v-.7l6.1-3.1z" fill="#a7939d"/>
  <path d="M468.5 357.8c8.6 4.2 11.7 13.8 19.2 19.3 3.8 3 6.2 7.4 9.5 11 2.2 2.3 4.2 4.7 6.3 7.1 3.2 3.7 7.2 6.6 10 10.6 1.4 2 1.6 4.3 1.7 6.6-1 2-2.3 4-3.6 6-1.2.5-2.4 1-3.8 1.2-2.9-2.1-4.7-5.3-7-7.9-4.6-5.6-10-10.6-14.6-16.3-2.7-3.3-5.8-6.3-8.4-9.7a35.6 35.6 0 00-6-6.3l-1.2.8c-4.5 3.4-8 7.9-12 11.7-4.1 4.6-9.3 8.3-12.8 13.4-4.5 6.3-11.6 10.4-15.4 17.2h-.7c-2.5-5.3-5.8-10.3-8-15.7.8-1.6 2.2-2.9 3.5-4.1 5.8-5.6 11.2-11.6 16.6-17.5 8.8-9.2 17.9-18.2 26.7-27.4z" fill="#03a306"/>
  <path d="M533.2 358.3l3-.1c0 2.2-.5 4.3-1.4 6.2l1.5 1.7-.4 1a4 4 0 00-.9 3.7l-.2 1.4c-1.4-.4-2.8-.7-4-1.2.8-1.4 1.9-2.7 2.9-4l-2-.8c.6-2.6 1-5.2 1.5-7.9z" fill="#694634"/>
  <path d="M600.3 358c2.2 4.5 3.1 9.3 4.9 14l.3 7c-1.8 1.5-3.7 3-6 3.9l-3.2.2c-2-2.4-5-4.7-5-8 0-3.7.2-7.5 1.8-10.9 1.6-2.2 4.5-3 7-4.2l.2-2z" fill="#a0250b"/>
  <path d="M337 358.6l5 2.2.1 2.4-5-.2c.9 2.1 1.9 4.3 3 6.4l-4.6-.3a85 85 0 001.3 3.9 39.9 39.9 0 01-5 3.1c-1 2.1-1.6 4.3-2.2 6.4l-1.6 5.1.5-10.2c2.3-3 3.7-6.5 5.3-9.8 1.3-3 3.6-5.7 3.1-9z" fill="#8c1908"/>
  <path d="M568.5 360.4l2.4-1 5.1 2.8c-2.4.3-4.9.6-7.2 1.2l-.3-3z" fill="#7e2503"/>
  <path d="M526.1 363.3l1.6-2.9-.5 3.2-.1 1.3-.2 1.5-4.3-2.3 3.5-.8z" fill="#d9f4fc"/>
  <path d="M342 360.8c1.3.9 2.6 2 3 3.5 1.7 6 1.5 12.8-2.2 18.1-2.2-3-4.8-5.9-6-9.4a85 85 0 01-1.3-4l4.6.4c-1.1-2.1-2.1-4.3-3-6.4l5 .2v-2.4z" fill="#cd7c24"/>
  <path d="M557.6 361l1.3 2.3 3.1-1c.7 4.8 1.8 9.8 4.4 14.1.7 1.2 2 1.9 3.1 2.7l.6 1.4-2.2 3 4-.4-.2.8 1.7 1.2-6 .1 1 3.2c1.9 5 6 9 8.3 13.8l-4.1-2-.5 1.7-1.7.8.3-3-1.1.1c.6-1 2.4-2.2 1.6-3.6-2-4.4-5-9-10.2-10.6l.2 2-2.8-.4-1.2-1.7c1.4-1.2 3-2.2 4-3.7 0-4-2.2-7.4-3.3-11 .2-3.3.5-6.6-.3-9.8z" fill="#e1b64b"/>
  <path d="M563 361.4l2.8.2c2.3 6.8 4.6 13.6 7.6 20.1l-1.5 1.4c-1.4 0-2.7.2-4 .4l2.2-3-.6-1.4c-2-6-4.8-11.6-6.5-17.7z" fill="#8f3e03"/>
  <path d="M371.3 361.7l4 2-2.6 1.3c-1.4 3.8-2.5 7.8-4.7 11.3-1 1.6-2.2 3.2-2.9 5 .5 1.2 1.4 2.2 2.1 3.3h-3a163 163 0 00-1.7-2c3.2-6.8 6.6-13.6 8.8-20.9z" fill="#803503"/>
  <path d="M400.2 362l6.1 1.1a14.4 14.4 0 01-5.6 3.5l-.5-4.6z" fill="#50495b"/>
  <path d="M407.5 364.2c1.6-1.1 3.4-2.7 5.1-.9l-5.1.9z" fill="#f7f6f9"/>
  <path d="M494.3 363.6l2-.9c1.8.2 3.6.3 5.5.3l2 .4v.6c-.3 1.4-.5 2.8-1.1 4.1-2.2 1.3-4.9.5-7.2.6l-1.2-5z" fill="#d9dfe0"/>
  <path d="M434.7 365a75 75 0 017.8-1.2l.8 2.7-3.5 2.4c-2-.8-4.4-1.7-5.1-4z" fill="#d8d7e0"/>
  <path d="M442.5 363.8l2-.3c.7 1.9.4 5 3 5.4 3.2.2 5.8-2 8.3-3.6l-5 5.6c-3.5-.4-6.9-1.1-10.3-1.7l-.7-.3 3.5-2.4-.8-2.7z" fill="#245c8f"/>
  <path d="M506.2 363.3c4.2-.4 8.4.3 12.2 2l1.6.6.1.6c-.5 5.4-1.5 10.8-1.4 16.3l-2.3-.2c-5.5-1-11 .4-16 2.6-4-4.9-8.7-9.2-12.7-14.1a58.5 58.5 0 016.5-2.2c2.3.8 4.7 1.7 7 1 2-.4 3-2.2 3.8-3.8l1.2-2.8z" fill="#f6f6f8"/>
  <path d="M527.2 363.6c1.9-.6 3.2.6 3.5 2.3-1.2-.3-2.5-.5-3.6-1l.1-1.3z" fill="#655953"/>
  <path d="M418.4 365.8c1.4-.7 2.9-1.3 4.5-1.7 2.4-.3 5-.4 7.4 0 2.3.4 3.5 2.5 5.1 3.8 1.3 1.4 3.4 1 5.1 1.3 3.4.6 6.8 1.3 10.3 1.7l-13.4 13.6c-3.6-1.2-7.2-2.9-11.2-2.8-3.7.1-7.2 1.3-10.8 2l-.4-3.4c-.4-4 .5-8.1 1.7-12 .5-.9 1-1.7 1.7-2.5z" fill="#f7f5f7"/>
  <path d="M502.7 368.1c.6-1.3.8-2.7 1-4.1l1.3 2c-.7 1.7-1.8 3.5-3.8 3.9-2.3.7-4.7-.2-7-1l1.3-.2c2.3-.1 5 .7 7.2-.6z" fill="#29192b"/>
  <path d="M520 365.9l2.3-.9c-.6 3.5.5 7 2.3 10.1 1.4 2.4 2.6 5 3.3 7.8l-4 2.2-1.7-1.5c.9-5.8-.5-11.5-2-17z" fill="#19203b"/>
  <path d="M414.1 368.3l1.4-2.7 1.2 2.6c-1.2 4-2.1 8-1.7 12.1l-.5 1.2c-2.5.8-5 1.4-7.2 2.7a7.3 7.3 0 014-6.7l-1.5-3.6 3.3.2-.6-3.3 1.4-2z" fill="#2d1a33"/>
  <path d="M403.7 369.2l2.7-2.8 1 3.2c.3.8.4 1.7.6 2.5l-1.3-1c-1-1.4-3.2-.7-3.3 1l-1.5-2.4c.5 0 1.4-.4 1.8-.5z" fill="#695e6b"/>
  <path d="M407.5 369.6l3-3.3 3.4 2.5-1.4 2 .6 3.3-3.3-.2 1.5 3.6a7.3 7.3 0 00-4 6.7l-1.7 1.1c-.8-1.7-1.6-3.4-2.2-5.1a7.6 7.6 0 005.4-3.4c-2-.2-4-.2-6.2-.3l.2-1.3 5.6-.5a261.4 261.4 0 00-1-5z" fill="#c3acc3"/>
  <path d="M520.1 366.5c1.6 5.6 3 11.3 2.1 17l-.1 1.5h-1.3c-1.5-.7-3-1.6-4.4-2.4l2.3.2c-.1-5.5.9-10.9 1.4-16.3z" fill="#d1d4da"/>
  <path d="M546.9 367.4l9.3-.9 1.7 4.2c1 3.7 3.3 7.2 3.3 11.1-1 1.5-2.6 2.5-4 3.7l-2.4-.7 4-1.7c.5-5.2-2.3-9.7-4.4-14.2-1.4.2-2.8.5-4.2 1-1 1.3-1.2 3-1.4 4.6-.6-2.4-1.2-4.8-2-7.1z" fill="#a7874e"/>
  <path d="M380.3 371c1.3-1.3 2.7-2.6 4.3-3.6 1 .8 2.3 1.6 2.2 3a34 34 0 01-1.4 8.5 24.1 24.1 0 00-3.6 7.4l-2.4.2-6.5-1.7 3.7-2.5c.6-4 1.9-7.7 3.7-11.2z" fill="#daa32c"/>
  <path d="M389.4 367.6h2.2l-.3.8c-1.3 3-1.5 6.3-3 9.2-4.3 8.7-11 15.9-16.8 23.7-1.4 2-3.6 3.2-5.5 4.8-2 1.5-2.6 3.8-3.7 5.8l-.3.4-2.8-2.6c1.6-2.3 3.3-4.7 4.6-7.2l1-2.3 1 4.3c2-1.4 3.8-3 5.2-5 3.1-4.1 7.3-7.8 8.4-13l2.4-.2c.8-2.6 2-5.2 3.6-7.4 2.7-3.2 4.7-7 4-11.3z" fill="#74434e"/>
  <path d="M535 370.8a4 4 0 01.9-3.7l-.9 3.7z" fill="#a49eac"/>
  <path d="M409 372.4c.3-1.5 0-3.6 2-4-.2 1.6.3 3.8-2 4z" fill="#45363e"/>
  <path d="M550.2 369.8l4.2-1c2.1 4.6 4.9 9.1 4.4 14.3-1.3.5-2.7 1-4 1.7l2.4.7 1.2 1.7 2.8.4c3.4 3.5 6.9 7.3 7.2 12.3h1.2l1-.1-.2 3 1.7-1 4.2 3.6-1.2 3.2-3.1-2.8-5.8-5.7a57.2 57.2 0 01-17.4-25.6c.2-1.6.4-3.3 1.4-4.7z" fill="#e8c99f"/>
  <path d="M350 369.5c1.4 1.5 2.3 3.3 3 5.1l-3 1.1-.7.3-.1-1.6c0-1.6.4-3.3.9-5z" fill="#ecad53"/>
  <path d="M403.4 372c0-1.6 2.3-2.3 3.3-1a4 4 0 01-3.3 1z" fill="#c4bbd2"/>
  <path d="M403.4 372a4 4 0 003.3-1l1.3 1 .4 2.7-5.6.5.6-3.2z" fill="#332334"/>
  <path d="M605.2 372c3.8 8.4 4.7 17.7 7 26.7 1.3 5.7.6 11.6 1 17.4.2 4.7 1 9.5-.5 14-1 .5-2.1.8-3.2 1.1l-2.5-3 3.4.7c1.6-6.2 3.7-13.8-.8-19.4 2.3-5.7-.1-11.7-.3-17.6l-.8-2.4-2-7.2.7-2.5-1.7-.7-.3-7.2z" fill="#873b3a"/>
  <path d="M336.8 373c1.2 3.5 3.8 6.4 6 9.4l-.4.6-7.5-6c0 3.7 2.1 6.6 4.2 9.5l.2 1.2-2.6.4-2.6-7.2v-3.4a19.7 19.7 0 01-4.5 5c.6-2.1 1.3-4.3 2.1-6.4 1.8-.9 3.5-2 5.1-3.1z" fill="#b4350a"/>
  <path d="M529.9 373l4.8-.3.5 3.9-5.5-.7.2-2.8z" fill="#715153"/>
  <path d="M342 374.4l3.2.6c-.3 1-.1 3.2-1.8 2.3l-1.4-2.9z" fill="#7e3702"/>
  <path d="M524.6 375.1c1.4.6 3 1.2 4.3 2.1.4 1.3.6 2.7.8 4.1l4.3 3.2 1.7-3.6-4.3.1a157 157 0 01-.3-3.3l3.5 1.1.7-1.6c1 3.4.4 7-1.6 10.1a22.4 22.4 0 01-5.8-4.4c-.7-2.8-1.9-5.4-3.3-7.8z" fill="#463949"/>
  <path d="M348.3 376.9c3.6 1.2 6.8 3.5 9.2 6.4 1.4 1.7.2 4-.5 5.7a42.7 42.7 0 01-11.4 14.8c-1.4-.8-2.8-1.7-4-2.6l-1-1 2-2.4c1.3 1.2 2.8 2.4 4.4 3.4-.3-2.2-.8-4.4-1.3-6.6l4.4 3.2c.4-4-3-6.7-5.1-9.7-2.5 2.3-4.9 4.7-7.2 7.1-.6-2.4.2-4.7 1.5-6.8 3.4-3.6 5.8-7.9 9-11.5z" fill="#8e1b06"/>
  <path d="M402.6 376.5c2.1 0 4.2.1 6.2.3-1.2 2-3.1 3-5.4 3.4l-.8-3.7z" fill="#2d2732"/>
  <path d="M325.2 396.7c1.5-6.4.6-13.2 3.3-19.3a434 434 0 00-.5 10.2v.8l-.1 2-.3 2.7c-1.3 5.2-2.2 10.4-3 15.6l-.2 1.7c-1.3-4.5.1-9.2.8-13.7z" fill="#4a322f"/>
  <path d="M329.6 382.5c1.8-1.4 3.3-3 4.6-5v3.4c-2.6 3.3 1.1 6.5 2.5 9.4-3 0-6-.6-8.7-2v-.7l1.6-5z" fill="#cc661f"/>
  <path d="M335 377l7.4 6-3.3 3.5c-2-2.9-4.1-5.8-4.2-9.4z" fill="#cf842f"/>
  <path d="M605.5 379c.4.3 1.3.7 1.7.8l-.7 2.5c-3.4 1-6.5 2.4-9.5 4.1 1-1.6 2.5-2.7 4-3.7l-1.5.2c2.3-1 4.2-2.4 6-3.8z" fill="#fb985c"/>
  <path d="M470.6 380.2l1.2-.8c2.3 1.8 4.2 4 6 6.3 2.6 3.4 5.7 6.4 8.4 9.7 4.6 5.7 10 10.7 14.6 16.3 2.3 2.6 4.1 5.8 7 7.9 1.4-.2 2.6-.7 3.8-1.2l-2.8 5.1-3-3c-11.7-13.4-23.7-26.6-35.2-40.3z" fill="#3daf38"/>
  <path d="M583.7 381.8c2.2-1 5.3-3.2 7.3-.8 2.7 2.7 4.8 5.9 6.6 9.2 2 3 1.3 6.9.1 10-.7 1.9-2.9 2.2-4.5 2.9l.3-7.4c-2 1-3.6 2.7-4.8 4.6l3-.2-.2 3.5-2.5.8a22 22 0 01-4.5-6l4.6-1.4a7.6 7.6 0 002.2-5.7c-.4-1.5-.8-3-1-4.4-1-.5-2-1-3-1.3l2.4-3.2-6-.6z" fill="#a61f07"/>
  <path d="M458.6 391.9c4-3.8 7.5-8.3 12-11.7 11.5 13.7 23.5 26.9 35.2 40.3l-.2 2.6c-2-.4-4-.7-6-.8l4.3-1c-3.6-5-8.4-9.3-12.2-14.2h-2.5c-1.4-4.3-4.8-7.6-7.7-11.1l-6.5-7.6c-1.5-1.8-3-3.5-4.9-4.8-1.2.8-2.2 1.9-3.2 3-4.6 5.4-10.1 10.2-15 15.5l-5.3 5.5c-4.6 4.3-8.8 9-13.2 13.3l-1.4 1.4-1.6.2c3.8-6.8 10.9-11 15.4-17.2 3.5-5 8.7-8.8 12.8-13.4z" fill="#035435"/>
  <path d="M336.7 390.3c-1.4-3-5-6.1-2.6-9.4l2.6 7.2 2.6-.4v.7c-1.3 2-2 4.4-1.5 6.8a42 42 0 002.8 5l1 1-1.7 1c-2.3-3-3.4-6.5-5.6-9.5-1.9-1.3-4.2-1.7-6.4-2.4v-2c2.8 1.4 5.8 2 8.8 2z" fill="#f8ad75"/>
  <path d="M577.3 384c2-1.2 4.2-1.7 6.4-2.2l6 .6-2.3 3.2c-2.5-.5-5-.6-7.5-.7v2l5.1.5a191 191 0 00-4 2c1.8.3 3.7.8 5.5.5 1.6-.4 2.6-2 3.7-3l1 4.4c-1.7-.3-3.4-1-5.2-.8-1.2.6-2.2 1.5-3.3 2.3l5.2.8-2.2 3.1 3.4.3-4.6 1.5c-2.6-3.5-5-7.2-6.9-11.2-.3-1-1-2.2-.3-3.2z" fill="#9f3f0f"/>
  <path d="M415.4 383.8c3.6-.8 7.1-2 10.8-2.1 4 0 7.6 1.6 11.2 2.8l-16 17-3.3.6c-1.4-6-2.2-12.2-2.7-18.3z" fill="#0c64cb"/>
  <path d="M500.5 385.2c5-2.2 10.4-3.5 15.9-2.6 1.5.8 2.9 1.7 4.4 2.4l-2.3.1c-.3 5.1-.8 10.3-2.1 15.2l1.5 1-2.4.6c-5.2-5.3-10.2-11-15-16.7z" fill="#0969ce"/>
  <path d="M597 386.4c3-1.7 6.1-3 9.5-4l2 7.1c-2.6.4-5.2 1.1-7.8 1-1.5-1.2-2.6-2.7-3.7-4z" fill="#932109"/>
  <path d="M348 383.6c2.7 1 5.6 1.8 7.7 3.8-1 1.3-3 1.3-4.5 1.8l2.5 3.3c-2.6.7-5-.8-6-3-.3-2 .1-4 .3-6z" fill="#d6672b"/>
  <path d="M467 386.5l3.1-2.9c2 1.3 3.4 3 4.9 4.8a548 548 0 01-8-1.9z" fill="#135f8f"/>
  <path d="M355 395.5c2-3.4 3.8-7 5.9-10.5l3.6 2.2a24.5 24.5 0 00-7 8.4c-1.4 3.1-3 6.2-5.5 8.6a500 500 0 00-.7 4 52 52 0 01-4.4-1.5c2.1-4 5.6-7.3 8-11.2z" fill="#893f07"/>
  <path d="M368.9 391c1.2-2 2.4-4.2 4-6.2 2.2.5 4.3 1 6.5 1.7-1 5.2-5.3 8.9-8.4 13l-3.9-1.8v-3.8c-.5 2-.9 3.9-1 5.9l-1.3.4-1 2.3-2.1-2.2a99 99 0 015.8-9.6l1.4.4z" fill="#dbb067"/>
  <path d="M518.5 385.1H522.1c-.3 4.5-.4 9.3-3 13.4v3.5l-1.2-.8-1.5-.9c1.3-5 1.8-10 2.1-15.2z" fill="#061a8b"/>
  <path d="M567.3 385.2h6.1c2.9 2.1 3.7 5.8 5.7 8.6 2.2 4.1 6.3 7.4 6.9 12.1-2-.1-3.9-.5-5.8-.7.5-1 1-2 1.3-3-1.3-2.9-3.7-5.2-5.2-8a38 38 0 00-5.6-8.2l-2.2 2.4-1.2-3.2z" fill="#843b06"/>
  <path d="M580 384.9c2.4 0 5 .2 7.4.7l2.8 1.3c-1.1 1-2 2.6-3.7 3-1.8.3-3.7-.2-5.5-.4a191 191 0 014-2.1l-5-.4v-2.1z" fill="#e47323"/>
  <path d="M561 385.6c5.1 1.6 8.2 6.2 10.2 10.6.8 1.4-1 2.5-1.6 3.6l-1.2.1c-.3-5-3.8-8.8-7.2-12.3l-.2-2z" fill="#bc9039"/>
  <path d="M467 386.5l8 1.9c2 2.6 4.3 5 6.5 7.6 2.9 3.5 6.3 6.8 7.7 11.1-7 1.2-12.2-4.9-19-5h-4c-5 0-9 3.4-13.8 4.1a173 173 0 01-.4-4c4.8-5.4 10.3-10.2 15-15.7z" fill="#0860cf"/>
  <path d="M568.5 388.4l2.2-2.4a38 38 0 015.6 8.2c1.5 2.8 3.9 5.1 5.2 8-.3 1-.8 2-1.3 3l-1 1-2.4-2-.5 1.2-4.2-3.5.5-1.7 4.1 2c-2.4-4.8-6.4-8.8-8.2-13.8z" fill="#de9e3f"/>
  <path d="M364.5 387.2l2.3 1c-1.7 2.4-2.8 5-4.2 7.6-2.5 4.6-5.7 9-9.3 12.9l-2-.5.7-4c2.5-2.4 4.1-5.5 5.6-8.6 1.5-3.3 4-6 6.9-8.4z" fill="#e2b140"/>
  <path d="M337.8 395.2c2.3-2.4 4.7-4.8 7.2-7 2.2 2.9 5.5 5.6 5 9.6-1.4-1-2.9-2-4.3-3.2.5 2.2 1 4.4 1.3 6.6-1.6-1-3-2.2-4.5-3.4l-2 2.4a42 42 0 01-2.7-5z" fill="#c55d20"/>
  <path d="M327.9 390.3c2.2.7 4.5 1.1 6.4 2.4 2.2 3 3.3 6.5 5.6 9.5-2.8 1.7-5.2 3.9-8 5.7l-1-.9-.2-1.5-.2-1.5 3.2 1.1c-.4-3.6-.3-8-3.8-10.5l-1.6-1-.7-.5.3-2.8z" fill="#9b2d04"/>
  <path d="M582.7 392.8c1-.8 2-1.7 3.3-2.3 1.8-.2 3.5.5 5.3.8.1 2.1-.7 4.1-2.2 5.7l-3.4-.3 2.2-3-5.2-.9z" fill="#e17922"/>
  <path d="M600.1 402.3c-.4-3.5.2-7.3 2.1-10.3 2.4-.3 4.7-.2 7.1-.1.2 5.9 2.6 11.9.3 17.6-3.2-2.3-7.4-3.8-9.5-7.2z" fill="#942108"/>
  <path d="M324.7 408.7c.7-5.2 1.6-10.4 3-15.6l.6.4c.3 4.3 0 8.5.2 12.8l2.5.7 1 1a17 17 0 01-7.3.7z" fill="#c46e26"/>
  <path d="M328.3 393.5l1.6 1c-.4 3.7 0 7.4.8 11l.3 1.5-2.5-.7c-.1-4.3.1-8.5-.2-12.8z" fill="#efa243"/>
  <path d="M330 394.6c3.4 2.4 3.3 6.9 3.7 10.5l-3.2-1 .2 1.4c-.7-3.6-1.2-7.3-.8-11z" fill="#c8731b"/>
  <path d="M366 399.8c.2-2 .6-4 1.2-5.9l-.1 3.8 4 1.9c-1.5 1.9-3.3 3.5-5.3 5l-1-4.4 1.2-.4z" fill="#d3933b"/>
  <path d="M588.7 400.3c1.2-2 2.7-3.6 4.8-4.6 0 2.5-.1 5-.3 7.4l-1.7.5.2-3.5-3 .2z" fill="#f67944"/>
  <path d="M399.2 398.4a82 82 0 019.5-.8c1 4.3 3.4 8.5 2.6 13l-.6.4-.2-1-.4-1.4-2.2-1.1-.2-3.9c.4-1.8.6-3.6.7-5.4-2.9.4-5 2-6.3 4.6l-3-4.4z" fill="#07392f"/>
  <path d="M395.8 402.5c1-1.4 2.1-2.8 3.4-4.1l2.9 4.4a8.1 8.1 0 016.3-4.6 42 42 0 01-.7 5.4l.2 3.9 2.2 1.1.4 1.4-3.5 1-.7 4-1.3.5c0-1.3 1-2.8.2-4-1.2-.6-2.6-.6-4-.9l4.6-1.9-3-1.7 1.9-.3c0-1.3 0-2.6.2-4-2 .5-4.2.5-6.2.1l-1.3 1-1.6-1.3z" fill="#8bcd4a"/>
  <path d="M531 398.9c1.5-.2 2.6 1.2 3.9 2l-1.6 4-3.4-3.5-1.2 4.7a161 161 0 00-2-4.8c1.3-1 2.6-2 4.3-2.4z" fill="#93d461"/>
  <path d="M536 400.5c1.3-.6 2.8-1 4.2-1.5.5 2.7 1.5 5.3 3 7.7l3.4-3.2 3.3 4.8-2.9 2.8 1.7 1.4c-1.4 1.1-2.7 3.8-4.9 2.5-3.4-1.8-2-6.1-3-9.1-1 .3-2.3.5-3 1.4-.4 1.4-.5 2.8-.6 4.2l-2.7-1.5a55 55 0 01-1.7-1.5l1.8-.5c.3-2.6.8-5 1.3-7.5z" fill="#71b935"/>
  <path d="M353 412c2.6-4.1 6.4-7.5 8.7-11.7l2 2.2c-1.2 2.5-2.9 4.9-4.5 7.2l2.8 2.6c-1.7 1.1-3.6 2-5.3 3.3l-3 2c-.7-1.8-.8-3.7-.7-5.6z" fill="#d5c0af"/>
  <path d="M518 401.2l1.2.8-.6 2.6-3-2.7 2.3-.7z" fill="#d5deea"/>
  <path d="M534.9 400.9l1-.4c-.5 2.4-1 5-1.3 7.5l-1.8.5 1.7 1.5-1.2 1.6c-2-.7-4.2-.8-6.3-.7a472 472 0 011.7-4.8l1.2-4.7 3.4 3.6 1.6-4.1z" fill="#45a414"/>
  <path d="M418.1 402.1l3.4-.7c-1 .8-1.7 2-3 1.9l-.4-1.2z" fill="#f1f3f2"/>
  <path d="M398.7 402.8c2 .4 4.1.4 6.2 0l-.2 3.9-2 .3 3 1.7-4.4 2c-2.4-1.7-3.4-4.3-3.9-6.9l1.3-1z" fill="#28a917"/>
  <path d="M446.6 407.6l5.4-5.5c0 1.4.2 2.8.4 4.1 4.8-.7 8.8-4.1 13.8-4-3.5 1.5-6.6 3.6-10.2 5-3 1.3-6.3.7-9.4.4z" fill="#195a9a"/>
  <path d="M466.2 402.1h4c6.8.1 12 6.2 19 5h2.5c3.8 5 8.6 9.1 12.2 14.2l-4.4 1c-2 .6-3.9 2-5.8 3-3.3 2.5-7.4.7-11-.2-2-.5-3.7-1.6-5.2-2.9-4-1.3-8.1-2.3-12.3-2-2.6.8-5 2.3-6.2 4.6-5 .4-9.8 2.1-14.9 2.1a58.3 58.3 0 01-10.7-6c4.4-4.4 8.6-9 13.2-13.3 3.1.3 6.5 1 9.4-.4 3.6-1.4 6.7-3.5 10.2-5z" fill="#f5f6f7"/>
  <path d="M390.1 403.4c1.8-.7 3.8-.7 5.7-.9l.3 2.3a65 65 0 00-3.8-.3c-1.4.8-2.7 1.8-4 2.7l1 2.6-.4.7c1.8 1.7 2.9 4 3.3 6.4-4.2 2-9.6 2.2-13.5-.5l2.8-2.4c1.5-1.4 2.5-3.2 3.4-5-2.5 0-5 .7-7.1 2l-1.7-1 .5-3.7c.9.5 1.8 1 2.7 1.7l3-1 3.5.9c1.3-1.6 2.5-3.4 4.3-4.5z" fill="#052d52"/>
  <path d="M395.8 402.5l1.6 1.3c.5 2.6 1.5 5.2 3.9 6.8l1.8 1.6a245 245 0 01-6.2 4l.6 1.5c.3 2.3 2.7 3 4.6 4l.1-1.8 3.5 1.9-.7 4.6-.7 1.4 4.6-.3 1.4-2 3-.6a14.5 14.5 0 01-9 4.2c-2.2.3-4.4.4-6.6.5l.6-.3 3.1-1.2.5-4.1-3.8-1.3-1.5-3.2-3.5-2 2.6-.3c-.3-1-.8-2-1.3-3l4.1-3.8-4.1-2.6.2-.6c-.7-1-1.5-1.9-2.3-2.7 1.3 0 2.5.2 3.8.3l-.3-2.3z" fill="#05431e"/>
  <path d="M328.5 410.7c4.4-.7 7.3-4 11-6 2-1.5 5.2 1 4 3.1a16.5 16.5 0 01-5.2 5.2c-2.3 1.7-5.4 1.4-8.2 1.7l-1.6-4z" fill="#9f2d08"/>
  <path d="M370.3 408a250 250 0 002.5-4l3.8 2.3-.5 3.6 1.7 1.1c2-1.3 4.6-2 7.1-2-.9 1.8-1.9 3.6-3.4 5-2-.6-3.9-1.2-5.6-2.2-2-1.2-3.8-2.5-5.6-3.8z" fill="#73bb49"/>
  <path d="M388.3 407.2c1.3-1 2.6-2 4-2.7.8.8 1.6 1.7 2.3 2.7-1.8.8-3.6 1.6-5.2 2.6l-1.1-2.6z" fill="#97de6c"/>
  <path d="M576.3 405.4l.5-1.3 2.3 2c1 1.2 1.8 2.4 2.7 3.7l-2 1-.3-1.9a79 79 0 00-.6 4.2c-1.1-1.7-2.4-3.2-3.8-4.5l1.2-3.2z" fill="#966c28"/>
  <path d="M590.7 407.5c2-2.6 6.7-4.6 9.6-2.1 3.2 2.3 7 4.1 9.5 7.3 1.8 4.6 1.5 10-.3 14.5a40.4 40.4 0 01-14.2-12.5c-1.5-2.4-3.3-4.7-4.6-7.2z" fill="#9f1905"/>
  <path d="M537.8 407.3c.7-.9 2-1 3-1.4 1 3-.4 7.3 3 9.1 2.2 1.3 3.5-1.4 5-2.5L547 411l2.9-2.8 1.5 2.3 1 3.3a105.7 105.7 0 013.7 4l2.7.3.1.8-.7 5.3c-.9-1.4-1.7-3-3-4-1.3-.8-2.8-1-4.2-1.5v.8l3.3.6-4.8 1.8 3.6 3c-2-.6-4-1.2-5.5-2.5l-3-5-4-1.7-1.7 1.8c-1.2-1-2.3-2-3.7-2.9-3-.2-5.2 2.4-6.9 4.6-1.3-2.7-3-5.2-4.5-7.9 1.7 1 3.3 2.1 5.1 2.8 1.8-.1 3.1-1.5 4.4-2.6l1.2-1.6 2.7 1.5c.1-1.4.2-2.8.6-4.2z" fill="#07363c"/>
  <path d="M572 405.8l3 2.8c1.5 1.3 2.8 2.8 3.9 4.5l-.1.7c-1 .4-1.8 1-2.7 1.4l-.8-2.5-2 .7-1.2-.5c-.2-2.4-.2-4.7-.1-7.1z" fill="#552d23"/>
  <path d="M561.6 406.9l.9 1 3.5-.3-.8 5c-2.5.5-3.8-1.7-4.8-3.5l1.2-2.2z" fill="#7dc76d"/>
  <path d="M582.4 407.9l5.8-1c3.8 5.7 8 11.2 12.7 16.2-1.7 0-3.5.3-5.2 0-2-.7-3.4-2.2-4.8-3.6-2.3-4.2-6.4-7.2-8.5-11.6z" fill="#a34d18"/>
  <path d="M389.4 409.8c1.6-1 3.4-1.8 5.2-2.6l-.2.6c-1 2-1.6 4.5 0 6.4.5 1 1 2 1.3 3l-2.6.2-.9-.5c-.4-2.4-1.5-4.7-3.3-6.4 0-.2.3-.6.5-.7z" fill="#4ca14b"/>
  <path d="M339 415.4c1.8-2.8 4.2-5.2 6.6-7.5l3.5 1.1-1 1.5-2.3-.2-4.6 5.4-2.1-.3z" fill="#904c12"/>
  <path d="M394.4 407.8l4.1 2.6-4.1 3.8c-1.6-2-1-4.3 0-6.4z" fill="#60a569"/>
  <path d="M523.8 411.4c1.3-1.1 2.7-2.1 4.2-3.1l-1 2.6c2.1-.1 4.3 0 6.3.7-1.3 1-2.6 2.5-4.4 2.6-1.8-.7-3.4-1.8-5-2.8z" fill="#8ddb32"/>
  <path d="M349.1 409l3 1.3-2.1 2.7-2.8-1.7a16.9 16.9 0 00-3.7 7.2l-1 .6-2.9-2.5-.5-1.2 2.1.3 4.6-5.4 2.2.2c.3-.3.9-1 1.1-1.5z" fill="#c28c45"/>
  <path d="M551.4 410.6l4-1.1 3 4.3-4.8 1.5-1.2-1.4-1-3.3z" fill="#99d73e"/>
  <path d="M555.4 409.5c1.4.5 2.7 1 4 1.7l1-2c1 1.7 2.3 3.9 4.8 3.4l3 2.4c-2.2 1-4.3 2.1-6.4 3.3l-1.3.2-1.6.5v-.8l-2.8-.3a180 180 0 01-2.5-2.6l4.8-1.5-3-4.3z" fill="#207e18"/>
  <path d="M579.5 409a129.7 129.7 0 00.8 5.2c2.5.7 4.9 1.7 7 3.3a8.8 8.8 0 00-1.8 4.9 16 16 0 003.6-1.2c.7 1.5 1.8 3 3.5 3.6l.1.3c1.1 3.2 2.9 6.2 4.5 9.2l-2.6 1.4-1.7-1.8 1.2-.8-1-2-2.6.5c-2.9.3-5.8.3-8.6.6l1.1 2.9c3 .1 5.7-.5 8.6-.4 0 2.5-.1 5-.7 7.4l-4.4-.1 1.8 2.2c2-.2 4-.4 6.1-.4l-.1 2.5h-6.5c-3-3.5-5.4-7.4-7-11.8l-2-.8-1-2.2c-2.6.2-4.7-1.2-6-3.3l-.3-2.1c1.7-2.5 4.8-2.2 7.2-1.1a66 66 0 010-11.2l.2-.7.6-4.2z" fill="#d9cdbc"/>
  <path d="M585.8 409.1c2.2.3 2.6 2.6 3.3 4.2-1.5-.9-3.7-2.2-3.3-4.2z" fill="#d28944"/>
  <path d="M410.5 410l.2 1-2.6 1.9c-.3 1.3.8 2.4 1.2 3.6 1.2 2.3 2 4.9 3.6 6.9 1.4.2 2.8-.1 4.1-.4 3.5 1.2 6.7 2.9 9.5 5l-4 .9.9 1.8-2.9.8-1.7-2.5-1.7 1.6-1.9-1.4.4 2c-1.4-.6-2.9-1-4.3-1.3-2.5-.2-4.9 0-7.3 0l.3-.8c3.4-.4 6.7-1.7 9-4.2l-3 .6c0-2.4 0-4.8-.2-7.1-4.3-.4-8.7-1.2-13-2l.4 1.3-.6-1.6a245 245 0 006.2-4l-1.8-1.5c1.3.3 2.7.3 3.9.9.7 1.2-.1 2.7-.2 4l1.3-.5.7-4 3.5-1z" fill="#2e9d21"/>
  <path d="M579.8 410.8l2-1c2.4 3.7 5.7 6.8 9.1 9.7 1.4 1.4 2.8 3 4.8 3.5 1.7.4 3.5.2 5.2 0 2 1.8 4.2 3.4 6.1 5.3l2.5 3c-3.1-1.4-6.1-3-9-4.6a8 8 0 00-7.8-1.6l-.1-.3c-1.7-.7-2.8-2-3.5-3.6a16 16 0 01-3.6 1.2c0-1.8.8-3.4 1.7-5-2-1.5-4.4-2.5-6.9-3.2l-.5-3.4z" fill="#5c372b"/>
  <path d="M324.7 411l3.8-.3 1.6 4a69 69 0 00-3.8.5l-1.6-4.2z" fill="#9d6b3b"/>
  <path d="M343.5 418.5c.5-2.6 2-5 3.7-7.2l2.8 1.7a17 17 0 01-6.5 5.5z" fill="#e6be80"/>
  <path d="M375.9 411.8c1.7 1 3.6 1.6 5.6 2.2l-2.8 2.4-.6 1c-2 .5-4.1 1.2-6.1 2l-1.7-2.1c2.4-.9 5-1.8 6.6-3.6h-6l5-1.9z" fill="#338a28"/>
  <path d="M353 412c-.1 1.9 0 3.8.7 5.6l3-2a8.9 8.9 0 004 4c-1.5.2-3.8-.5-4.7 1.2-.3 2.3 2.1 3.6 3.6 5a446 446 0 00-3.5-1l-1.5 3.4.7.2 2.3 1.2.2 1.4c-1.6.3-4.3-1-4.9 1-1.2 4.7-4.1 8.8-4.8 13.5l-.8.8-2.9-1.8-1.3 5.1-.2.7-1.9.2-.2-1.1c.4-2.6 1.1-5.2 1.7-7.7.3-2.2.2-4.3 0-6.5 0-2.5 1-4.9 1.9-7.1 1-2.5.6-5.1.5-7.7 2.5-3 5.6-5.5 8.1-8.4z" fill="#d4cbcc"/>
  <path d="M362 412.3l.3-.4 1 2 2.3 4 .5-2 .4 4-3.7-.3 1.8 4.3-3.3 1.8 3.1 2.8-.8 1.3-2.6-.4-5.7-1-.7-.2 1.5-3.5 3.5 1.1c-1.5-1.4-4-2.7-3.6-5 .9-1.7 3.2-1 4.8-1.1a8.9 8.9 0 01-4-4.1c1.6-1.2 3.5-2.2 5.2-3.3z" fill="#655254"/>
  <path d="M573.3 413.4l2-.7.8 2.5 2.7-1.4c-.2 1.5-.3 3-.3 4.6-1.8-1.7-3.7-3.7-6.4-3.9 1.3 1.2 2.8 2.2 4 3.5-1.2 1-2.6 1.8-4 2.6l-.8 3.2c.1-3.6-.1-7.3.8-10.9l1.2.5z" fill="#816644"/>
  <path d="M363.3 414l2.6-1 .2 2.9-.5 2-2.3-4z" fill="#f7f5f7"/>
  <path d="M371 413.7h6c-1.8 1.8-4.3 2.7-6.7 3.6l-1.2.1 1.9-3.7z" fill="#78c45b"/>
  <path d="M528.3 419.3c1.7-2.2 3.8-4.8 7-4.6 1.3.8 2.4 1.9 3.6 3l1.6-1.9 4 1.7 3.1 5-.3.3-3.2-2.8h-6.3a17 17 0 01-9.7.5l.2-1.2z" fill="#85c440"/>
  <path d="M572.1 414.5c2.7.2 4.6 2.2 6.4 4 0 2.1 0 4.3.2 6.5-2.4-1.1-5.5-1.4-7.2 1l-.2-2.2.9-3.2c1.3-.8 2.7-1.6 4-2.6-1.3-1.3-2.8-2.3-4-3.5z" fill="#b09b78"/>
  <path d="M325.7 429c-1.5-4.5-.6-9.4.6-13.8l2.1.3c-.8 3-.9 6.2-.2 9.3l-2.5 4.2z" fill="#cf895d"/>
  <path d="M561.8 418.3c2-1.2 4.2-2.3 6.4-3.3l1.3 1.1-1 3-6.7-.8z" fill="#93d96b"/>
  <path d="M328.4 415.5c3.2.4 6.4.4 9.6.5l-4.3 5.7 6-5.1c.8.9 1.8 1.7 2.8 2.5l-1.3 2.7a9 9 0 01-4 4.2c-3.5 1.8-7.3 3.9-11.5 3l2.5-4.2c-.7-3.1-.6-6.3.2-9.3z" fill="#a0431a"/>
  <path d="M378.1 417.4l.6-1c4 2.7 9.3 2.5 13.5.5l1 .5 3.4 2 1.5 3.3 3.8 1.3-.5 4-3.1 1.3-.8-1 1-2.7c-3-2.1-6.5-4-10.3-3.1l3.2-3.5c-3 .9-5.9 2.4-8 4.7-3-.6-6-1.9-9-2.3 1.8-.7 3-2.3 3.7-4z" fill="#5f6a62"/>
  <path d="M397.1 416.3c4.3 1 8.7 1.7 13 2 .2 2.4.2 4.8.2 7.2l-1.1-1c0-2.3-.4-4.7-2.7-6l-.8 3.3-3.5-1.9-.1 1.8c-1.9-1-4.3-1.7-4.6-4l-.4-1.4z" fill="#84d254"/>
  <path d="M580.2 416.7c1.7 0 3.3.2 5 .3l-1.1 3h-3.8v-3.3z" fill="#3e3330"/>
  <path d="M558.9 419c.4 0 1.2-.3 1.6-.5l.3 3.6 10.5 1.7.2 2.3.4 2.1.6 5.4c0 2 0 3.8.2 5.7l-1.6.7c-.6-1.8-.8-4-2.6-5.2-1.8-1-4-1-6-1.3l.1-.6c2.5-1 4.8-2 6.9-3.6-1.2-1.4-2-3.4-3.8-4.2-2.5-.6-5 0-7.4.4v-1.2c.1-1.8.4-3.5.6-5.3z" fill="#534060"/>
  <path d="M362.8 419.6l3.7.3c.1 3.9-.7 7.7-1.5 11.4-1.1 3.3-2.3 6.5-3.1 9.9l-1.9 3.3-2-.3.9-2.7a55 55 0 01-1.8-1.5l-.2-.7c0-1.6 0-3.3.6-4.9 1.4-1.4 3.6-1.7 5.4-2.5l-3.6-1 1.7-1.5 2.6.4.8-1.3-3.1-2.8 3.3-1.8-1.8-4.3z" fill="#e8dadc"/>
  <path d="M383.5 423.7c2-2.3 4.9-3.8 7.9-4.7-1 1.2-2 2.4-3.2 3.5-1.5.4-3.1.9-4.7 1.2z" fill="#383f27"/>
  <path d="M406.5 418.5c2.3 1.3 2.7 3.7 2.7 6l1 1-1.3 2c-1.6 0-3 .2-4.6.3l.7-1.4a54.8 54.8 0 011.5-8z" fill="#46a837"/>
  <path d="M528 420.5c3.3.7 6.8.7 9.8-.6h6.3l3.2 3-.7.3c-4.3 1-8.5 2-12.8 2.7H531l-3-4.8z" fill="#0e354b"/>
  <path d="M551 418.8c1.4.4 2.9.7 4.1 1.4 1.4 1 2.2 2.7 3.1 4.1v1.2c2.5-.3 5-1 7.5-.4 1.9.8 2.6 2.8 3.8 4.2-2 1.6-4.4 2.6-6.9 3.6l-.1.6-.2.6 3.8.8v2c-3.8-.4-7.7-1-11.5-.3-2.5.5-4.7 2-6.8 3.3 9 1.9 18.3 2.8 27.1 5.3-5.4 2.5-10.4 7-16.8 5.8l-1.8-1-2.4-1.6c4.3-.8 8.9-.6 13-2V444c-5.9.3-11.7 0-17.4-1.4a57 57 0 00-13-1.3c2.9-4 8-4.6 12.7-5l.9-2.1 4.8-.6c-2.3-3.3-5-6.4-8.6-8.5-3 .9-5.6 2.7-8.3 4.2l3.2 4-8.5.4 4.4-1.4-.8-1.4c-.8-1.6-1.8-3-2.7-4.5l.2-.6c4.3-.7 8.5-1.7 12.8-2.7l.7-.4.3-.3c1.6 1.3 3.6 1.9 5.5 2.4l-3.6-3 4.8-1.7-3.3-.6z" fill="#aaa1ab"/>
  <path d="M465.2 420.2c4.2-.3 8.3.7 12.3 2 1.5 1.3 3.2 2.4 5.2 2.9 3.6.9 7.7 2.7 11 .2l.5 3.1.3 1.8c-5.1-1.6-10-4-15.5-4.1-1.7.7-3.3 1.6-5 2.4h-3.6c.5-2 1.1-3.9.8-5.8-2-1-4-1.7-6-2.5z" fill="#355986"/>
  <path d="M361.4 420.4c1.2 1.6 1.8 4.2-1 4.5-1.3-1.5.5-3.1 1-4.5z" fill="#3b201d"/>
  <path d="M432 422.3l1.4-1.4c3.3 2.4 7 4.4 10.7 6-2 1.9-4.3 3.3-6.5 4.8-1.4-.4-3.1-.4-4-1.7l-3.6-5.5a66 66 0 012-2.2z" fill="#1a66bf"/>
  <path d="M459 424.8c1.3-2.3 3.6-3.8 6.2-4.6l6 2.5c-2.7 1.6-4.9 4-7.7 5.4-1.1-.1-2.2-.5-3.3-.9l-1.2-2.4z" fill="#1e70b4"/>
  <path d="M373 421.8l1.3-.4c3.2.4 6 1.7 9.2 2.3 1.6-.3 3.2-.8 4.7-1.2 3.8-1 7.3 1 10.2 3l-1 2.7.9 1.1-.6.3-3.8 2c-1.1-1.6-2-3.5-3.7-4.5-2.4-.9-5-.4-7.4-.7-2.9-.1-4.8-2.5-6.8-4.1a26.8 26.8 0 00-5.6 5.9c1-2.1 1.7-4.3 2.6-6.4z" fill="#ada0aa"/>
  <path d="M519 421.7l3.8 1.9.9 3.9c-1.8-.8-3.7-1.5-5.8-1.4l1.2-4.4z" fill="#8fde6b"/>
  <path d="M527.2 423.2l.8-2 3 4.7h2.8l-.2.6-1.2 3.4-1-1.6a21.3 21.3 0 01-4.2-5.1z" fill="#70b468"/>
  <path d="M580.2 421.3c1.8.3 3.5.8 5.3 1.3l-.5 2.8c-1.3 0-2.5.2-3.7.3a83 83 0 01-1.1-4.4z" fill="#4d373d"/>
  <path d="M367.9 425c.3-2.4 3.3-2.5 5.1-3.2-1 2-1.7 4.3-2.6 6.4-3.6 4.8-5 10.6-7.4 16l-1.1-3c.8-3.4 2-6.6 3.1-9.9l.2 2.6c2.2-2.6 2.4-5.8 2.7-9z" fill="#665462"/>
  <path d="M370.4 428.2c1.5-2.3 3.4-4.2 5.6-5.9 2 1.6 4 4 6.8 4.1 2.4.3 5-.2 7.4.7 1.7 1 2.6 2.9 3.7 4.4l-1.3.7c-3 1.3-6 2.3-8.9 3.6-5.1 2.3-10.5 4-15.6 6.3 5.2 1.4 11 .1 15.8 2.9 3 1.3 6 2.8 8.6 5-6.4 1-12.8-.8-19.2-.8-4.5 0-8.7 3-13.2 1.7-4-1-8.2-1.9-12.4-2.4l3.4-2.6c3.1-.2 6 .7 9 1.1 1.2-.7 2-1.8 2.9-2.8 2.4-5.4 3.8-11.2 7.4-16z" fill="#c8c2c3"/>
  <path d="M493.7 425.3c2-1 3.7-2.4 5.8-3 2 0 4 .4 6 .8-.8 2.3-1.6 5.1-4.2 6.2-2.3 1.4-4.9-.2-7-.9-.3-1-.4-2-.6-3.1z" fill="#1261d6"/>
  <path d="M463.5 428.1c2.8-1.5 5-3.8 7.7-5.4.3 2-.3 3.9-.8 5.8h5.5L467 433c-2.3-3.7-7-4.7-10.9-6.4l-3.2 2.1c3.7.7 7.4 1.5 11 2.4l.2 2-3 .5c-3.4.7-5.7-3.5-9.1-2.5-4.7 1-9.4 2-14.2 1.3 4.8-3 10.5-4 15.8-5.8 2.2-1 4.5-.3 6.6.5 1.1.4 2.2.8 3.3 1z" fill="#dae2f1"/>
  <path d="M527.2 423.2c1.1 1.9 2.6 3.6 4.3 5.1l.9 1.6 1.2-3.4 2.7 4.5-.8 1c-2.8-.2-5.5-1.7-8.4-1.4-3 .6-5.4 2.5-7.4 4.5l-1.2-2.1 1.6-2.7-6.6.4 2-1.6-.4-2.3 2.8-.7c2-.1 4 .6 5.8 1.4a165 165 0 01-1-3.9l1.9.9 2.6-1.3z" fill="#41a223"/>
  <path d="M586.5 423.7h2.7v2.5h-2.7v-2.5z" fill="#553b3a"/>
  <path d="M538 429.4c2.7-1.5 5.3-3.3 8.3-4.2 3.5 2.1 6.3 5.2 8.6 8.5l-4.8.6-1 2c-4.6.5-9.7 1.2-12.7 5 4.4.1 8.8.4 13.1 1.4a63.4 63.4 0 0017.3 1.4l.1 2.2c-4.1 1.5-8.7 1.3-13 2.1-2.3-1.1-5-2-7.4-.8-4 1.5-7.9 2.9-12.1 2.9l-3-2.1c-2-1-3.8-2.8-6-2.2a111 111 0 01-19.8 4.1c1.8-3.3 5.8-4.6 8.3-7.4l5-5.3 2 1.7c2.9-1.2 5.4-3 6.9-5.8l.5 1.5 4.4-1.2c2.8-.1 5.7-.2 8.5-.5a544 544 0 00-3.2-4z" fill="#cfccca"/>
  <path d="M444.1 427c5 0 9.9-1.8 14.9-2.2l1.2 2.4c-2-.8-4.4-1.4-6.6-.5-5.3 1.8-11 2.8-15.8 5.8l-.6.4.4-1.2c2.2-1.5 4.6-3 6.5-4.8z" fill="#1e2338"/>
  <path d="M479 426c5.4.1 10.4 2.6 15.5 4.2 1.3.6 2.5 1.4 3.7 2.1-4.5.3-9-.1-13.4-.8-1.3-.2-2.6-.6-4-.6-1.7.6-3.2 1.7-4.9 2.5l-2.6-.3c2.3-2.3 5.1-4.1 8.2-5.4L479 426z" fill="#dfe1f5"/>
  <path d="M474 428.5c1.7-.8 3.3-1.7 5-2.4l2.5 1.6c-3 1.3-6 3-8.2 5.4l2.6.3c-1.9.2-3.7.2-5.6 0-.3 1.4-.6 2.8-.5 4.3 0 1.3.2 2.5.3 3.8l-2-1.9-1.8 1.5c0-1 0-2.1-.2-3.2 0-1.5-.3-3-.4-4.4l-1.6-.4-.2-1.9c-3.6-.9-7.3-1.7-11-2.4l3.2-2c3.9 1.6 8.6 2.6 11 6.3l8.8-4.6H474z" fill="#a8b5c0"/>
  <path d="M550.5 426c1.7.5 3.5 1 5 2.2l1.2.9c.4 1.5-.2 2-1.6 1.6-2.5-.5-3.8-2.7-4.6-4.7z" fill="#756981"/>
  <path d="M555.5 428.2c1.5-2.6 4.9-2.5 7.5-1.7 1.7.2 1.3 2.2 1.8 3.4-2.7.5-5.8 1-8.1-.8-.3-.3-1-.7-1.2-1z" fill="#e2dade"/>
  <path d="M580.2 428.4c1.2-.8 2.4-2.4 4.1-1.9 1.1.5 2 1.2 3 2-2 1.7-5.6 2.9-7.1 0z" fill="#614b4e"/>
  <path d="M513 427.3l2-.5.5 2.3-2 1.6 6.6-.4-1.6 2.7-1 1.7-7-1.6-.1-3.6 2.3-.6.2-1.6z" fill="#99d854"/>
  <path d="M587.4 427.8c1.3-1 3-1 4.5-1.2.2 2.4-1.8 3.5-3.8 4.4-.3-1-.6-2.1-.7-3.2z" fill="#573b3f"/>
  <path d="M355.3 428.4l5.7 1-1.7 1.5 3.6 1c-1.8.8-4 1.1-5.4 2.5-.7 1.6-.6 3.3-.6 5l-1-3.3c-2.3 3.3-4.7 6.7-7.8 9.4.7-4.7 3.6-8.8 4.8-13.4.6-2 3.3-.8 4.9-1l-.2-1.5-2.3-1.2z" fill="#7d656c"/>
  <path d="M422.4 428.9l4-.8 2 1.4-1.2 3.9c-1.4.6-2.7 1.2-4 2-1-1.3-1.8-2.6-2.7-4l2.9-.7-1-1.8z" fill="#86c643"/>
  <path d="M571.9 428.2c1.2 2 3.3 3.5 5.9 3.3l1 2.2c.7 3 0 6-1.2 8.8-2.4-2.5-4-5.6-5-8.9l-.7-5.4z" fill="#e5dfe4"/>
  <path d="M393.9 431.5l3.8-1.9c2.2-.1 4.4-.2 6.6-.5l-.3.8-.8 2.2a5.5 5.5 0 00-6.3.7l-2.7 1.9-1.6-2.5 1.3-.7z" fill="#548357"/>
  <path d="M404 429.9c2.4 0 4.8-.2 7.3 0 1.5 2.3 3.5 4.4 5.7 6.2l1.2-1 3 .7c-1.1-2-2.4-3.8-4.1-5.2l1.7-1.6 1.7 2.5 2.7 3.9a59 59 0 00-2.9 3.1l-3.9-.1a176 176 0 00-2.7 4.8c-1.3.6-2.6 1.1-4 1.5l-.4-3.8 3 .7-1.2-3 2.7-.2-2.6-5-3.6 3-1.1.3-1.4-3.1-2.8.3c.2 3.5 1.2 7 2.5 10.3l2-1.9 1.7 2.7-.3 1.2c-2-.7-3.9-1.3-5.7-2.2a58.3 58.3 0 01-3.2-8.5l1.8-1.4-4.2-1.3a5.5 5.5 0 016.3-.7l.8-2.2z" fill="#185912"/>
  <path d="M411.3 429.9c1.4.3 2.9.7 4.3 1.2l-.4-2 1.9 1.5c1.7 1.4 3 3.3 4 5.2l-2.9-.7-1.2 1c-2.2-1.8-4.2-3.9-5.7-6.2z" fill="#78cc52"/>
  <path d="M527 430.6c3-.3 5.7 1.2 8.5 1.3l.8-1 .8 1.5-4.4 1.4-4.4 1.2-.5-1.5c-1.5 2.8-4 4.6-7 5.8l-2-1.7.9-2.5c2-2 4.4-4 7.4-4.5z" fill="#5d994a"/>
  <path d="M590.5 431.6l2.5-.6 1 2-1 .9-1.4.8-1.1-3.1z" fill="#5f4241"/>
  <path d="M581.9 432.2c2.8-.3 5.7-.3 8.6-.6l1.1 3.1c-2.9-.1-5.7.5-8.6.4l-1.1-3z" fill="#917880"/>
  <path d="M383.7 435.8c3-1.3 6-2.3 8.9-3.6l1.6 2.5 2.7-1.9 4.2 1.3-1.8 1.4c-1.9 1.3-4.1 3.2-6.6 2.2-2.9-1-5.8-2.2-9-2z" fill="#979392"/>
  <path d="M439.6 434.8c4.8-.5 9.4-1.6 14.2-2 2.8 1.4 5.6 3.2 9 2.9a10 10 0 01-2.2 6.1c1 2 1.9 4.2 4.2 4.8 2.9.7 6.2.5 8.7-1 1.5-1.4 2-3.4 3-5.2-1.8-1.3-3.3-2.9-4.2-4.8l1.4.9c2.5-1.4 4.8-3.5 7.8-3.8 4.7.6 9.4 1.4 14 2.6-2.2 2.1-4.7 4-7.4 5.6-5.1 3.5-10.5 7-16.4 9-3.6.2-7.2-.6-10.6-1.5-7.8-3.3-16.6-6.5-21.5-13.6z" fill="#0f60cd"/>
  <path d="M328.5 437l2.4-4 5.5 4.6 2-2.7 4 2.2.2-1.9c0 2.2.2 4.3-.1 6.5-1.8-1.3-3.6-2.8-6-3-2.7-.3-5.4-.8-8-1.8z" fill="#7ac365"/>
  <path d="M402.3 433.9l2.8-.3 1.4 3.1 1-.2 3.7-3.1 2.6 5-2.7.2 1.2 3-3-.7.4 3.8-1.2.3-1.6-2.7-2.1 2a35.8 35.8 0 01-2.5-10.4z" fill="#5eb72a"/>
  <path d="M562.5 433.5c2 .3 4.2.2 6 1.3 1.8 1.1 2 3.4 2.6 5.2l1.6-.7c.8 1.4 1.6 2.8 2.6 4l-.4 2c-8.8-2.6-18-3.5-27-5.4 2-1.4 4.2-2.8 6.7-3.3 3.8-.7 7.7 0 11.5.2v-2l-3.8-.7z" fill="#827c98"/>
  <path d="M572.7 439.3c-.2-1.9-.1-3.8-.2-5.7 1 3.3 2.7 6.4 5.1 8.9 1.3-2.8 1.9-5.9 1.1-8.8l2.2.8c1.5 4.4 4 8.3 7 11.8l3.2 4.1 1.7-4.1h1.5c2-.1 4-.6 6-.6 1.9.7 3 2.4 4.4 3.7l3.3-.7.2 1.3a49.9 49.9 0 01-17.6 5.7c-4.7-.5-9.9-.5-13.5-3.8-2.5.6-5 1.4-7.5 2.4l-.3-2.5c2.7-.7 5.3-2.3 8.1-2.8 2.8.7 5 2.7 7.8 3.5 1.8.5 3.6.5 5.4.6-2-3-4.4-6-7.1-8.4-2.8 0-5.8.2-8.2-1.3-1-1.3-1.8-2.7-2.6-4.1z" fill="#29192b"/>
  <path d="M591.6 434.7l1.3-.8 1.7 1.8c-1 .7-1.9 1.5-2.8 2.4l3.2-1.3 1.2 2.3-4 2.9 2.2 1.5v.3c-2 0-4 .2-6.1.4l-1.8-2.2 4.4.1c.6-2.4.7-4.9.7-7.4z" fill="#938a8a"/>
  <path d="M594.6 435.7l2.6-1.4.6 1c-.6 3.2-1.3 6.5-1.3 9.9l-2.1-1.7-2.1-1.5 3.9-2.9-1.2-2.3-3.2 1.3c.9-.9 1.8-1.7 2.8-2.4z" fill="#0a1f08"/>
  <path d="M602.7 436.8l3.7-2.2 1.2.1-2.7 2.5c.3.3.7 1 1 1.2l-.2 1.7h4.3l-1.4-1.5 1-2 7.1 3.3a9 9 0 00-3 1.4l3.3.4c-1.9 2.4-5 2.1-7.7 2l.7 2.3-2 2.7-3.3.7c-1.4-1.3-2.5-3-4.4-3.7-2 0-4 .5-6 .6.1-.8.2-1.7.1-2.5v-.3l2.1 1.7c0-3.4.7-6.7 1.3-10l1.6.7.3 5.2 2.6 1 .9-3.8-2.4-.5-.4-1.6 2.3.6z" fill="#369333"/>
  <path d="M607.6 434.7l2.4 1.3-.3.6-1.1 2 1.4 1.4h-4.3l.2-1.6-1-1.2 2.7-2.5z" fill="#67c645"/>
  <path d="M392.7 437.7c2.5 1 4.7-1 6.6-2.2 1 2.9 1.9 5.8 3.2 8.5-.8 1.2-1.6 2.3-2.2 3.6 1.8.2 3.6 0 5.5-.1 4.3.5 9.4-1.4 12.9 1.7-3.4.3-6.7.3-10 .6-3.6.3-7 1.7-10.4 2.3-3 .4-6 .2-8.9-.1 1.7-.8 3.5-1.6 4.8-3 .8-1.3.8-3 1-4.4l4 .7c.6-2-.1-4-1.5-5.7l-.4 3.3-3-1.9c-3.8-2-8.4-3.5-12.6-1.7 1.9 1.2 3.8 2.2 5.8 3L384 445c-4.8-2.8-10.6-1.5-15.8-2.9 5.1-2.2 10.5-4 15.6-6.3 3.2-.3 6.1.9 9 2z" fill="#6f6786"/>
  <path d="M599.4 436l1 .2.4 1.6 2.4.5-.9 3.9-2.6-1.1-.3-5.2z" fill="#68bc63"/>
  <path d="M348.1 445.5c3.1-2.7 5.5-6 7.9-9.4l.9 3.2.2.7 1.8 1.5-.9 2.7 2 .3 1.9-3.3 1.1 3c-1.4.8-2.8 1.8-4.3 2.3-1.7-1.2-2.8-2.9-4-4.5l-3.6 3.9c-1 .9-2.2 1.8-3.4 2.6-1.2 1-2.6 1.8-3.9 2.7l-.9-1 .2-.6 4.2-3.3.8-.8z" fill="#2c1e2e"/>
  <path d="M583.9 437.3c1.9-.2 4-1.3 5.8-.3-.3 1.5-1.1 3.6-3 3-1.8.2-2.2-1.6-2.8-2.7z" fill="#85767c"/>
  <path d="M328.5 437c2.6 1 5.3 1.4 8 1.8 2.4.1 4.2 1.6 6 2.9-.6 2.5-1.3 5-1.7 7.7l-1.6-1.1-2.3 2-.8-.9c2-1.1 2-3.4 2.4-5.4l-4.6 1.5-2-.8 3-2.4-.8-1.5-3.6 2a221 221 0 00-3.7-1l-2-3 3-1 .7-.9z" fill="#267e1d"/>
  <path d="M469.8 437.7c1.4.6 2.7 1.3 4 2.1l-1.6 1.3 1.3 3.4a10.6 10.6 0 01-10.6-.6c.5-2.2.8-4.8 3.2-6l.2 3.2 1.7-1.5 2.1 2-.3-4z" fill="#cdd0d6"/>
  <path d="M544 437.5c1.2.3 3-.2 4 1l-2.1 2c-.9-.9-1.2-2-2-3z" fill="#938b96"/>
  <path d="M321.2 445.3c.3-2.5 1.1-5.2 3.6-6.6l2 3.1 3.7 1-3 2.7-6.3-.2z" fill="#74c745"/>
  <path d="M381.7 439.3c4.2-1.8 8.8-.3 12.6 1.7l.8 3c-2.5-.6-5-1-7.6-1.7-2-.8-4-1.8-5.8-3z" fill="#d0bfd1"/>
  <path d="M413.7 443.2a176 176 0 012.7-4.8l4 .1 1.2 2.3c-1.3 3-4.3 4-7.4 4.5l-.5-2.1z" fill="#8a799a"/>
  <path d="M397.3 443l.4-3.4c1.4 1.6 2.1 3.6 1.5 5.7l-4-.7c-.2 1.5-.2 3.1-1 4.4-1.3 1.4-3.1 2.2-4.8 3l-3.7-.5c-4.2-.9-8.7-2-13-.4l3.2 2.4c-3 .8-6 1.8-9.2 1.6-4.8 0-9.3-2-14.2-2.3-2.9-.3-5.9-.5-8.7-1.6 1.3-.9 2.7-1.7 4-2.7 4.1.5 8.2 1.4 12.3 2.4 4.5 1.3 8.7-1.8 13.2-1.7 6.4 0 12.8 1.8 19.2.7a33.8 33.8 0 00-8.6-5l3.6-2.6 7.6 1.6-.8-2.9 3 2z" fill="#94899a"/>
  <path d="M613.7 441.3a9 9 0 013-1.4l1.6.7-1.3 1.1-3.3-.4z" fill="#82b783"/>
  <path d="M421.6 440.8c2 1.4 3.8 3 5.7 4.4l3.9-.4.8.8c-1.1 2.1-1.6 5-4.4 5.8-3.5 1.1-7.2 2-10.9 2.7l.2-1.8c-5.2-.7-10.9-.8-15.4 2.2l-5.8.2c-5.4-.8-11-.9-16.2-2.6 2-.2 4.1-.5 6.2-.6l3.7.5c3 .3 6 .5 8.9 0 3.4-.5 6.8-1.9 10.3-2.2 3.4-.3 6.7-.3 10-.6-3.4-3.1-8.5-1.2-12.8-1.7-1.9 0-3.7.3-5.5.1.6-1.3 1.4-2.4 2.2-3.6 1.8.9 3.8 1.5 5.7 2.2l.3-1.2 1.2-.3c1.4-.4 2.7-1 4-1.5l.5 2.1c3-.4 6.1-1.6 7.4-4.5z" fill="#432f45"/>
  <path d="M351.1 445.9l3.6-3.9c1.2 1.6 2.3 3.3 4 4.5 1.5-.5 2.9-1.5 4.3-2.3-.8 1-1.7 2.1-2.8 2.8-3-.4-6-1.3-9-1.1z" fill="#736978"/>
  <path d="M575.3 443.4c2.4 1.5 5.4 1.4 8.2 1.3 2.7 2.5 5 5.3 7 8.4-1.7-.1-3.5 0-5.3-.6-2.7-.8-5-2.8-7.8-3.5-2.8.5-5.4 2-8.1 2.8 2.7-1.4 5.3-3.4 5.6-6.6l.4-1.8z" fill="#675676"/>
  <path d="M605.6 443.3c.8-1 3 .1 2 1.3-.8 1-3-.1-2-1.3z" fill="#8ad581"/>
  <path d="M333.9 445.5l4.6-1.5c-.3 2-.5 4.3-2.4 5.4-1.5-.1-3-.4-4.4-.6 0-1.4 0-2.8.2-4.1l2 .8z" fill="#46b144"/>
  <path d="M343 449.6l1.4-5.1 3 1.8-4.3 3.3z" fill="#8d7c84"/>
  <path d="M432 445.6c2-.4 1.8 2.3 1.9 3.6-.8 3.1-4.3 4.6-7.3 5-5 .9-9.7 2.4-14.7 3.2-3.4.6-6.7-.4-10.1-.3-3 0-5.8 1.3-8.8 1.7-11.4 1-22.9.7-34.3-.4-2.9-.6-5.5-2-8.5-2.6-3.6-1-8-.8-10.4-4 5.8.7 11.9 1.1 17.2 3.7 2.3 1 4.6 2.4 7.2 2 3.7-.7 7-2.3 10.8-2.4 3.8-.1 7.4 1.4 11.2 1.6 3.3 0 6.4-1.2 9.5-2l5.8-.2c5 0 10.2.4 15.2-.4 3.7-.8 7.4-1.6 11-2.7 2.7-.7 3.2-3.7 4.3-5.8z" fill="#0d2457"/>
  <path d="M525.3 446.2c2.3-.6 4.2 1.2 6 2.2l-6-.3c3.5 1.5 7.1 3 9.5 6l-1.4 1c-5.3-.3-10.8.5-16-1.2-3.9-1.2-7.9-2.3-11.8-3.6a111 111 0 0019.7-4.1z" fill="#8d8da1"/>
  <path d="M558 451c6.5 1.1 11.5-3.3 16.9-5.8-.3 3.2-3 5.2-5.6 6.6-1.6.7-3.1 1.4-4.8 1.7-2.4-.2-4.4-1.5-6.4-2.5z" fill="#7c6c88"/>
  <path d="M587.9 446.3h4.9c-.5 1.4-1 2.8-1.7 4.1a959 959 0 00-3.2-4z" fill="#7e737a"/>
  <path d="M546.5 447.6c2.4-1.2 5.1-.3 7.4.8l2.4 1.6-2.6 1c2 1.2 4 2.6 6 3.7l.7 1.7-9.3-.3.2-2.2c-1.5 0-2.9.2-4.3.3-4.6.5-9.1-.9-12.6-3.7 4.2 0 8.2-1.4 12-3z" fill="#8b849e"/>
  <path d="M525.4 448l6 .4 3 2c3.5 3 8 4.3 12.6 3.8l-7.2 3c-2.1-.7-4.2-1.5-6.4-2.1l1.4-1c-2.4-3-6-4.5-9.4-6z" fill="#281a3c"/>
  <path d="M337 450.4l2.2-2.1 1.6 1.1.2 1.1 1.9-.2 1 1c2.7 1 5.7 1.2 8.6 1.5 4.9.3 9.4 2.3 14.2 2.3 3.2.2 6.2-.8 9.2-1.6l-3.1-2.4c4.2-1.5 8.7-.5 13 .4-2.2.1-4.2.4-6.3.6 5.2 1.7 10.8 1.8 16.2 2.6-3.1.8-6.2 2-9.5 2-3.8-.2-7.4-1.7-11.2-1.6-3.7 0-7.1 1.7-10.8 2.3-2.6.5-5-1-7.2-1.9-5.3-2.6-11.4-3-17.2-3.8a140 140 0 00-4-.3l1.1-1z" fill="#705e84"/>
  <path d="M520.4 452.4c2-2.4 5-3 8.1-2.4-1.9 2.5-5.2 2.3-8 2.4z" fill="#babbd0"/>
  <path d="M543.2 453.2c.8-1 1.2-2.9 2.9-2.9a13 13 0 015.5.6c.2 1-.3 1.6-1.3 1.8-2.3.9-4.8.6-7.1.5z" fill="#c8c2cc"/>
  <path d="M553.7 451l2.6-1 1.8 1c2 1 4 2.3 6.4 2.5 1.7-.3 3.2-1 4.8-1.7l.3 2.5c-1.7.7-3.3 1.4-5 1.7-1.7 0-3.3-.7-4.8-1.3-2.1-1.1-4.1-2.5-6.1-3.8z" fill="#4c3956"/>
  <path d="M401.5 454.5c4.5-3 10.2-3 15.4-2.2l-.2 1.8c-5 .8-10.1.3-15.2.4z" fill="#94849e"/>
  <path d="M569.6 454.3c2.4-1 5-1.8 7.5-2.4 3.6 3.3 8.8 3.3 13.5 3.8-2.9.8-6 1-8.9.5-4.3-.6-8.5.3-12.7 1-6.2 1.1-12.6-.9-18.9 0-3.4.4-6.9.8-10.3 0l7.2-3 4.3-.3-.2 2.2 9.3.3-.6-1.7c1.5.6 3 1.3 4.8 1.3 1.7-.3 3.3-1 5-1.7z" fill="#7c7294"/>
</svg>