<?xml version="1.0" encoding="UTF-8" standalone="no"?>
<svg xmlns="http://www.w3.org/2000/svg" height="480" width="640">
  <g fill-rule="evenodd" stroke-width="1pt">
    <path fill="#0000bd" d="M0 0h214.4v479.984H0z"/>
    <path fill="#cc1900" d="M425.6 0H640v479.984H425.6z"/>
    <path fill="#fff600" d="M214.4 0h211.2v479.984H214.4z"/>
  </g>
  <g stroke-width="1pt">
    <path d="M398.54 290.22c47.823.818 44.515-29.15 61.974-32.126 17.458-2.977 33.928 12.49 33.302 29.972 1.873 20.814-29.714 20.963-31.637 38.298-1.924 17.336 15.377 22.628 33.3 19.982s30.647-20.363 39.805-28.69c-13.32 7.494-24.218 4.78-25.21-8.557.673-17.498 18.103-23.848 26.345-17.96 6.476-5.3 6.09-7.424 13.21-6.247 4.827 2.944 6.142 2.86 8.998 7.418 3.717-2.354 5.27-3.54 12.204-.596 4.306 1.767 7.18 4.96 9.84 9.808 3.147-2.486 8.087-3.413 13.763-.197 3.61 1.837 8.108 7.182 8.72 12.995 8.45 1.696 11.38 3.654 14.034 7.953 15.764 21.775-2.436 58.473-1.433 77.205 1.004 18.73 16.65 19.98 16.65 19.98-14.716-9.42-.2-15.9 6.746-16.55 22.252 2.293 18.508 35.136-5.18 29.367-18.978-5.18 38.92 3.28 37.525 62.637-1.396 61.02-32.815 49.01-32.815 49.01s26.838 10.11 21.646 30.09c-5.192 13.507-32.934 22.456-30.58-3.448-8.24 11.186-10.607 15.913-10.58 32.916-1.147 21.713.657 31.63 6.846 42.3 1.48-9.934 8.206-10.36 13.952-9.1 8.1.085 12.607 6.443 9.563 14.685 4.08-1.035 7.802 1.757 9.403 5.12 1.255 6.207 4.037 8.957-2.44 11.312 6.477 1.178 9.61 2.024 10.378 11.05.18 7.26-12.595 11.245-26.135 8.89 7.065 3.533 29.983 50.025 26.922 103.44-2.12 47.905-86.038 43.64-123.53 42.305-37.488-1.332-72.512.775-87.133 13.052 11.247 7.182-1.302 29.542-10.864 19.064 0 8.242-9.45 20.98-22.497 12.718.534 14.885-14.238 25.328-27.12 25.328s-27.656-10.443-27.122-25.328c-13.047 8.26-22.496-4.476-22.496-12.718-9.562 10.478-22.11-11.882-10.864-19.064-14.62-12.277-49.645-14.384-87.133-13.052-37.49 1.334-121.41 5.6-123.53-42.305-3.06-53.418 23.7-99.91 30.764-103.44-13.54 2.355-26.315-1.63-26.135-8.89.767-9.026 3.9-9.872 10.377-11.05-6.476-2.355-3.694-5.105-2.44-11.31 1.602-3.365 5.324-6.157 9.403-5.122-3.044-8.242 1.462-14.6 9.563-14.684 5.746-1.26 12.472-.834 13.952 9.1 6.19-10.67 7.993-20.587 6.845-42.3.028-17.003-2.338-21.73-10.58-32.916 2.355 25.904-25.387 16.955-30.578 3.448-5.192-19.98 21.646-30.09 21.646-30.09s-31.42 12.01-32.815-49.01c-1.396-59.356 56.503-67.817 37.525-62.637-23.688 5.77-27.432-27.074-5.18-29.366 6.946.65 21.462 7.13 6.745 16.55 0 0 15.647-1.25 16.65-19.982 1.004-18.732-17.196-55.43-1.43-77.205 2.652-4.3 5.582-6.257 14.033-7.953.613-5.813 5.11-11.158 8.72-12.995 5.677-3.216 10.617-2.29 13.763.197 2.66-4.847 5.535-8.04 9.84-9.808 6.936-2.943 8.488-1.758 12.205.597 2.856-4.556 4.17-4.473 9-7.417 7.118-1.177 6.732.948 13.208 6.246 8.242-5.888 25.672.462 26.345 17.96-.99 13.335-11.888 16.05-25.21 8.557 9.16 8.326 21.88 26.043 39.805 28.69s35.225-2.647 33.302-19.983c-1.923-17.335-33.51-17.484-31.637-38.298-.626-17.483 15.844-32.95 33.302-29.972 17.46 2.977 14.15 32.944 62.182 32.126z" fill-rule="evenodd" transform="matrix(.55826 0 0 .52733 97.622 -66.238)" stroke="#000" fill="#cba323"/>
    <path d="M356.44 346.62c-.575 17.96-31.258 14.828-51.514 13.86-26.326-1.232-77.59-46.08-44.263-69.89M164.84 449.52c-16.484 17.662 28.69 13.497 9.42-9.42-7.87-8.82-41.21 18.84-41.21 49.453s10.596 44.742 16.483 45.92c5.887 1.177 15.307-3.533 15.307-8.242 0-5.886-4.71-15.306-11.774-14.13-11.775 0-5.888 10.598 0 10.598" transform="matrix(.55826 0 0 .52733 97.622 -66.238)" stroke="#000" fill="none"/>
    <path d="M163.39 451.39s-24.453 9.908-24.453 39.343c0 29.436 7.065 28.26 7.065 28.26" transform="matrix(.55826 0 0 .52733 97.622 -66.238)" stroke="#000" fill="none"/>
    <path d="M166.02 430.68s24.726-3.533 23.55 18.838c-1.18 22.37-9.42 23.55-22.372 22.37-12.952-1.176-5.887-16.482-5.887-16.482M156.6 543.71s18.84-1.178 17.66-21.194c-1.176-20.016-15.305-21.194-23.547-20.016-8.242 1.177-10.74 5.803-8.242 12.88M150.71 567.26s3.936-8.158 16.887-8.158c12.952 0 18.982 30.386 17.805 63.354-1.178 32.968-33.515 61.37-40.58 59.015-7.064-2.354-10.597-3.532-4.71-8.24M172.39 643.31l-22.86 38.166" transform="matrix(.55826 0 0 .52733 97.622 -66.238)" stroke="#000" fill="none"/>
    <path d="M141.29 667.34c0 .416 5.054-1.105 8.587 1.25 3.532 2.354 4.365 5.815 4.365 5.815" transform="matrix(.55826 0 0 .52733 97.048 -66.083)" stroke="#000" fill="none"/>
    <path d="M144.82 650.86s4.517-1.82 10.404.536 5.695 7.662 5.695 7.662" transform="matrix(.50893 0 0 .37764 106.63 31.672)" stroke="#000" fill="none"/>
    <path d="M171.78 731.95c12.25 6.364 24.282-25.18.67-26.726-16.887-.69-29.084 23.268-26.73 35.04 6.432 40.062 10.445 66.862 50.57 72.046 30.612 2.355 78.45-5.1 108.3-1.523 29.44 3.433 61.94 14.272 73.713 26.047 11.774 11.774 19.112 11.892 19.112 23.667 0 11.775-16.815 17.817-23.476 10.74" transform="matrix(.55826 0 0 .52733 97.02 -65.096)" stroke="#000" fill="none"/>
    <path d="M369.84 876.92c4.305-2.914 14.556-20.425 4.722-30.815-15.194-15.4-26.165-21.48-33.658-23.977M347.55 863.28c5.828-3.532 6.684-15.298.594-24.274-6.09-8.975-21.94-16.165-53.073-18.8-23.582-1.98-87.843 8.445-111.39 1.38-33.058-12.72-53.844-34.15-48.772-87.39 1.52-20.622 11.917-34.466 32.278-37.106 22.858-.143 28.813 14.734 28.813 33.57 0 9.682-25.318 18.88-29.91 9.706-7.11-12.854-10.217-24.45 15.88-30.607" transform="matrix(.55826 0 0 .52733 97.02 -65.096)" stroke="#000" fill="none"/>
    <path d="M337.41 844.59s9.765 5.685 7.41 10.395c-2.354 4.71-8.658 2.7-4.496-2.296" transform="matrix(.55826 0 0 .52733 97.02 -65.096)" stroke="#000" fill="none"/>
    <path d="M238.95 291.4s-6.66 6.66-3.33 22.48 9.99 14.986 9.99 14.986M216.47 300.55c-.833 1.665-9.706 11.858-4.71 22.68 4.995 10.825 8.956 12.978 8.956 12.978M193.99 313.87s-7.195 10.622-8.567 29.555 7.79 45 7.533 54.698c-.58 20.61-24.012 30.84-24.012 30.84M159.85 543.66c1.665 0 34.135-29.972 34.135 76.597-2.498 61.61-38.298 67.438-38.298 67.438" transform="matrix(.55826 0 0 .52733 97.622 -66.238)" stroke="#000" fill="none"/>
    <path d="M162.49 689.71c13.148-3.336 40.425 10.99 30.613 35.324" transform="matrix(.55826 0 0 .52733 98.568 -64.97)" stroke="#000" fill="none"/>
    <path d="M167.78 681.47c8.44.785 15.32 6.904 18.458 15.343" transform="matrix(.55826 0 0 .52733 97.435 -65.9)" stroke="#000" fill="none"/>
    <path d="M148.2 477.06s9.99 14.154 24.977 14.154 19.982-15.82 19.982-15.82" transform="matrix(.55826 0 0 .52733 97.622 -66.238)" stroke="#000" fill="none"/>
    <path d="M146.53 484.55s9.158 16.652 24.977 17.484c15.82.833 21.647-10.823 21.647-10.823M179.84 509.52s11.657 4.996 11.657 19.15c0 14.153-10.824 10.823-10.824 10.823" transform="matrix(.55826 0 0 .52733 97.622 -66.238)" stroke="#000" fill="none"/>
    <path d="M356.44 346.62c-.575 17.96-31.258 14.828-51.514 13.86-26.326-1.232-77.59-46.08-44.263-69.89M164.84 449.52c-16.484 17.662 28.69 13.497 9.42-9.42-7.87-8.82-41.21 18.84-41.21 49.453s10.596 44.742 16.483 45.92c5.887 1.177 15.307-3.533 15.307-8.242 0-5.886-4.71-15.306-11.774-14.13-11.775 0-5.888 10.598 0 10.598" transform="matrix(-.55826 0 0 .52733 542.482 -66.238)" stroke="#000" fill="none"/>
    <path d="M163.39 451.39s-24.453 9.908-24.453 39.343c0 29.436 7.065 28.26 7.065 28.26" transform="matrix(-.55826 0 0 .52733 542.482 -66.238)" stroke="#000" fill="none"/>
    <path d="M166.02 430.68s24.726-3.533 23.55 18.838c-1.18 22.37-9.42 23.55-22.372 22.37-12.952-1.176-5.887-16.482-5.887-16.482M156.6 543.71s18.84-1.178 17.66-21.194c-1.176-20.016-15.305-21.194-23.547-20.016-8.242 1.177-10.74 5.803-8.242 12.88M150.71 567.26s3.936-8.158 16.887-8.158c12.952 0 18.982 30.386 17.805 63.354-1.178 32.968-33.515 61.37-40.58 59.015-7.064-2.354-10.597-3.532-4.71-8.24M172.39 643.31l-22.86 38.166" transform="matrix(-.55826 0 0 .52733 542.482 -66.238)" stroke="#000" fill="none"/>
    <path d="M141.29 667.34c0 .416 5.054-1.105 8.587 1.25 3.532 2.354 4.365 5.815 4.365 5.815" transform="matrix(-.55826 0 0 .52733 543.056 -65.9)" stroke="#000" fill="none"/>
    <path d="M144.82 650.86s4.517-1.82 10.404.536 5.695 7.662 5.695 7.662" transform="matrix(-.50893 0 0 .37764 533.475 31.672)" stroke="#000" fill="none"/>
    <path d="M170.42 741.5c-2.354 0 15.45-19.877-.688-23.897-20.284-3.872-28.744 16.55-26.39 28.323 5.073 28.746 16.898 64.033 52.946 66.388 30.613 2.355 78.45-5.1 108.3-1.523 29.44 3.434 61.94 14.273 73.714 26.048 11.774 11.774 19.112 11.892 19.112 23.667 0 11.774-16.815 17.816-23.476 10.74" transform="matrix(-.55826 0 0 .52733 540.804 -65.096)" stroke="#000" fill="none"/>
    <path d="M369.84 876.92c4.305-2.914 14.556-20.425 4.722-30.815-15.194-15.4-26.165-21.48-33.658-23.977M347.55 863.28c5.828-3.532 6.684-15.298.594-24.274-6.09-8.975-21.94-16.165-53.073-18.8-23.582-1.98-87.843 8.445-111.39 1.38-43.928-18.378-53.504-42.635-52.508-81.734 1.52-20.62 12.257-36.587 32.618-39.227 22.858-.143 26.774 11.906 26.774 30.744 0 9.68-9.013 25.715-21.334 23.36-12.322-3.187-21.92-25.012-1.106-36.668" transform="matrix(-.55826 0 0 .52733 540.804 -65.096)" stroke="#000" fill="none"/>
    <path d="M337.41 844.59s9.765 5.685 7.41 10.395c-2.354 4.71-8.658 2.7-4.496-2.296" transform="matrix(-.55826 0 0 .52733 540.804 -65.096)" stroke="#000" fill="none"/>
    <path d="M238.95 291.4s-6.66 6.66-3.33 22.48 9.99 14.986 9.99 14.986M216.47 300.55c-.833 1.665-9.706 11.858-4.71 22.68 4.995 10.825 8.956 12.978 8.956 12.978M193.99 313.87s-7.195 10.622-8.567 29.555 7.79 45 7.533 54.698c-.58 20.61-24.012 30.84-24.012 30.84M159.85 543.66c1.665 0 34.135-29.972 34.135 76.597-2.498 61.61-38.298 67.438-38.298 67.438" transform="matrix(-.55826 0 0 .52733 542.482 -66.238)" stroke="#000" fill="none"/>
    <path d="M158.07 701.03c16.205-14.296 47.22 13.112 35.708 38.506" transform="matrix(-.55826 0 0 .52733 542.668 -68.692)" stroke="#000" fill="none"/>
    <path d="M167.78 681.47c8.44.785 17.357 6.197 20.496 14.636" transform="matrix(-.55826 0 0 .52733 544.762 -64.59)" stroke="#000" fill="none"/>
    <path d="M148.2 477.06s9.99 14.154 24.977 14.154 19.982-15.82 19.982-15.82" transform="matrix(-.55826 0 0 .52733 542.482 -66.238)" stroke="#000" fill="none"/>
    <path d="M146.53 484.55s9.158 16.652 24.977 17.484c15.82.833 21.647-10.823 21.647-10.823M179.84 509.52s11.657 4.996 11.657 19.15c0 14.153-10.824 10.823-10.824 10.823" transform="matrix(-.55826 0 0 .52733 542.482 -66.238)" stroke="#000" fill="none"/>
    <path d="M353.01 313.46c.416-.416-1.665-9.16 8.326-8.742 9.99.416 6.244 9.574 14.57 12.904 7.91 2.082 22.063 4.164 22.528 4.164s14.62-2.082 22.528-4.164c8.326-3.33 4.58-12.488 14.57-12.904 9.99-.417 7.91 8.326 8.326 8.742" transform="matrix(.55826 0 0 .52733 97.622 -66.238)" stroke="#000" fill="none"/>
    <path d="M373.28 349.42c-.294-4.12-1.25-9.55-6.87-9.966-10.526-.345-18.857 20.605 4.443 20.753 17.055.11 17.198-32.355.804-32.83-23.55-.668-26.788 13.388-26.402 16.142 5.957-50.398-33.246-40.207-31.373-59.77.207-10.607 10.85-11.823 22.48-9.858 17.458 2.8 14.15 30.967 62.077 30.198 47.926.77 44.618-27.4 62.077-30.198 11.63-1.965 22.272-.75 22.48 9.857 1.872 19.563-37.33 9.372-31.374 59.77.386-2.755-2.853-16.81-26.402-16.144-16.393.476-16.25 32.942.805 32.83 23.3-.147 14.97-21.097 4.444-20.752-5.623.416-6.578 5.845-6.872 9.966" transform="matrix(.55826 0 0 .52733 97.622 -66.238)" stroke="#000" fill="none"/>
    <path d="M409.35 355.013l.067.4-6.284 1.55-.066-.4.4-.1c.35-.086.616-.23.804-.435.137-.14.227-.34.27-.607.036-.19-.006-.652-.127-1.388l-1.594-9.666c-.125-.75-.235-1.212-.332-1.384-.095-.17-.255-.3-.48-.388-.218-.098-.495-.105-.832-.022l-.4.098-.065-.4 6.284-1.548.066.4-.4.098c-.347.086-.616.23-.804.435-.136.14-.228.343-.277.61-.037.19.006.653.127 1.39l1.594 9.665c.125.75.234 1.213.33 1.384.102.17.262.304.48.4.225.088.504.09.84.007l.4-.097zM400.082 342.7l.426 4.022-.322.05c-.29-.896-.573-1.53-.848-1.892-.278-.373-.632-.647-1.063-.824-.242-.095-.647-.097-1.214-.007l-.903.142 1.216 11.465c.08.76.163 1.23.25 1.408.09.18.244.327.456.44.216.108.5.133.846.078l.402-.064.043.405-6.363 1.01-.043-.406.404-.065c.352-.056.628-.178.828-.366.143-.128.247-.32.31-.584.048-.187.032-.652-.047-1.397l-1.218-11.466-.878.14c-.818.13-1.39.435-1.716.92-.458.672-.697 1.568-.72 2.686l-.338.054-.427-4.022 10.92-1.732zM354.9 348.85l.404 6.136.352-.035c.54-.052.975-.194 1.304-.427.33-.23.596-.594.798-1.087.21-.494.324-1.145.344-1.953l.315-.03.495 7.5-.315.032c-.208-1.405-.58-2.308-1.12-2.705-.536-.406-1.126-.576-1.767-.513l-.352.035.302 4.572c.05.764.114 1.238.193 1.422.084.184.23.34.44.467.213.12.49.162.832.128l.406-.04.028.41-6.387.63-.026-.41.404-.04c.356-.034.635-.14.842-.314.15-.12.258-.306.325-.564.054-.184.057-.65.008-1.398l-.65-9.828c-.05-.763-.114-1.237-.193-1.423-.08-.183-.224-.335-.437-.454-.208-.13-.484-.177-.827-.143l-.404.04-.027-.406 10.307-1.016.282 4.285-.37.035c-.15-.997-.416-1.722-.795-2.173-.376-.45-.897-.743-1.565-.875-.367-.076-1.038-.064-2.01.032l-1.136.11zM331.466 349.083v4.055h-.325c-.192-.935-.406-1.607-.64-2.01-.237-.413-.56-.742-.968-.985-.23-.132-.63-.198-1.203-.198h-.913v11.56c0 .767.032 1.246.1 1.437.07.192.207.362.406.51.204.138.48.208.83.208h.407v.41h-6.417v-.41h.407c.355 0 .642-.077.86-.232.155-.104.278-.28.37-.53.066-.177.098-.64.098-1.392v-11.56h-.885c-.826 0-1.426.212-1.8.64-.523.596-.855 1.447-.994 2.552h-.343v-4.055h11.01zM318.794 363.664v.41h-6.408v-.41h.406c.356 0 .642-.077.86-.232.155-.104.277-.28.36-.53.066-.177.1-.64.1-1.392v-9.86c0-.766-.034-1.245-.1-1.437-.066-.19-.202-.357-.406-.496-.2-.15-.47-.223-.814-.223h-.406v-.407h6.408v.407h-.407c-.355 0-.642.078-.858.232-.158.104-.282.28-.373.532-.066.176-.098.64-.098 1.392v9.86c0 .766.03 1.245.097 1.435.073.193.21.362.408.51.205.14.48.21.822.21h.407zM302.683 349.083l6.047 9.294v-6.444c0-.898-.106-1.505-.317-1.822-.29-.427-.775-.633-1.455-.62v-.407h4.05v.407c-.52.082-.868.19-1.05.32-.174.127-.313.337-.415.63-.097.29-.145.786-.145 1.493v12.48h-.307l-8.287-12.48v9.528c0 .863.16 1.446.478 1.747.327.302.698.453 1.113.453h.29v.41h-4.348v-.41c.675-.007 1.144-.177 1.41-.507.265-.332.398-.896.398-1.692v-10.576l-.263-.398c-.26-.398-.487-.66-.686-.784-.2-.127-.486-.196-.86-.212v-.407h4.35zM297.582 348.1l-.013.406c-.45.066-.857.338-1.222.813-.265.356-.67 1.202-1.216 2.538l-4.6 11.23-.298-.014-3.802-12.116c-.457-1.46-.77-2.32-.935-2.58-.16-.257-.477-.432-.95-.523l.013-.407 5.87.293-.013.408-.2-.01c-.53-.026-.892.037-1.09.19-.143.104-.218.262-.225.475-.004.132.013.292.057.48.04.178.186.67.437 1.47l2.36 7.585 2.644-6.517c.316-.787.513-1.315.587-1.584.075-.27.117-.5.123-.69.007-.222-.034-.42-.125-.593-.09-.175-.228-.31-.41-.408-.256-.137-.598-.22-1.025-.24l.014-.407 4.018.2zM275.957 346.22l-.143 4.993-.37-.027c-.114-1.263-.494-2.298-1.143-3.105-.642-.813-1.36-1.25-2.154-1.308-.613-.045-1.11.123-1.49.5-.376.373-.576.82-.6 1.34-.017.332.032.63.145.898.158.357.422.72.79 1.087.272.264.902.74 1.895 1.433 1.39.965 2.316 1.85 2.777 2.65.457.802.66 1.694.613 2.68-.06 1.25-.514 2.298-1.357 3.146-.838.838-1.87 1.213-3.098 1.124-.385-.03-.747-.102-1.084-.223-.34-.12-.76-.33-1.265-.635-.28-.168-.514-.258-.7-.272-.158-.01-.326.05-.507.184-.183.134-.334.348-.458.643l-.333-.024.276-5.65.332.025c.188 1.607.637 2.86 1.35 3.75.716.89 1.51 1.363 2.382 1.426.674.05 1.22-.136 1.64-.555.424-.42.65-.93.68-1.524.018-.354-.044-.7-.184-1.043-.135-.342-.35-.672-.65-.988-.298-.325-.832-.755-1.603-1.29-1.08-.752-1.852-1.38-2.316-1.885-.466-.507-.816-1.06-1.053-1.66-.23-.6-.328-1.25-.294-1.95.058-1.192.466-2.18 1.223-2.966s1.678-1.14 2.767-1.06c.397.028.78.114 1.146.26.278.11.614.3 1.004.57.398.266.68.405.84.417.157.012.283-.037.378-.15.097-.11.195-.387.294-.83l.27.02zM267.58 345.734l-.04.405c-.45.024-.872.258-1.267.697-.286.332-.742 1.138-1.367 2.42l-5.28 10.777-.295-.042-3.046-12.43c-.366-1.5-.625-2.386-.774-2.66-.144-.27-.45-.474-.916-.61l.04-.404 5.835.832-.04.405-.197-.028c-.527-.075-.894-.046-1.1.088-.15.09-.233.242-.253.454-.013.13-.003.29.027.48.03.184.147.687.347 1.51l1.89 7.78 3.034-6.256c.362-.758.59-1.266.683-1.527.092-.262.147-.488.165-.677.02-.22-.008-.42-.09-.603-.078-.182-.207-.33-.384-.444-.244-.16-.58-.273-1.004-.334l.038-.405 3.995.57zM253.654 344.494l-.476 4.014-.322-.057c-.08-.96-.215-1.66-.4-2.102-.183-.45-.463-.83-.84-1.144-.21-.17-.6-.307-1.167-.407l-.905-.16-1.356 11.442c-.09.757-.115 1.236-.072 1.437.05.203.164.395.343.575.188.174.453.292.8.353l.403.072-.048.405-6.35-1.126.047-.405.4.072c.354.062.645.036.88-.08.165-.074.31-.226.427-.46.086-.162.174-.616.262-1.36l1.356-11.44-.878-.156c-.816-.145-1.434-.04-1.855.32-.59.497-1.015 1.28-1.283 2.35l-.34-.06.476-4.013 10.896 1.93zM224.544 353.9l-.08.398-6.227-1.845.08-.397.395.117c.344.102.638.11.878.02.173-.054.323-.19.454-.41.097-.153.22-.594.364-1.324l1.9-9.584c.146-.744.205-1.22.18-1.425-.028-.203-.128-.404-.3-.598-.166-.202-.415-.352-.748-.45l-.396-.118.08-.396 6.227 1.845-.078.396-.396-.118c-.344-.102-.638-.11-.878-.022-.173.056-.327.193-.462.41-.098.152-.22.595-.366 1.325l-1.898 9.582c-.148.745-.207 1.22-.18 1.424.033.21.132.413.297.613.172.195.425.342.758.44l.396.117zM220.118 338.24l-.085.393c-.45-.054-.895.106-1.336.473-.322.28-.866 1-1.633 2.16l-6.467 9.76-.288-.092-1.586-12.83c-.19-1.55-.343-2.47-.46-2.767-.11-.294-.39-.547-.837-.76l.085-.395 5.682 1.83-.085.393-.193-.062c-.513-.166-.88-.2-1.1-.103-.157.065-.258.2-.302.406-.028.128-.037.29-.03.483.01.185.068.703.17 1.55l.975 8.03 3.725-5.672c.448-.687.732-1.15.852-1.393.12-.244.2-.46.24-.643.047-.215.04-.418-.018-.612-.058-.194-.168-.362-.33-.506-.225-.2-.544-.37-.958-.503l.085-.393 3.89 1.252zM414.96 339.425c1.927-.395 3.573.048 4.936 1.325 1.37 1.276 2.17 3.017 2.404 5.224.2 1.886-.076 3.617-.825 5.19-.995 2.09-2.58 3.31-4.763 3.655-2.187.346-3.974-.293-5.36-1.916-1.1-1.28-1.75-2.905-1.96-4.87-.233-2.208.184-4.142 1.254-5.805 1.075-1.672 2.512-2.608 4.315-2.805zm.182.685c-1.11.176-1.883 1.004-2.315 2.486-.352 1.214-.414 2.888-.187 5.023.268 2.534.83 4.35 1.69 5.447.598.768 1.354 1.078 2.267.933.617-.097 1.112-.362 1.484-.792.478-.552.81-1.36.993-2.43.182-1.078.187-2.442.012-4.094-.21-1.964-.514-3.41-.916-4.334-.403-.93-.86-1.563-1.368-1.89-.503-.328-1.055-.446-1.66-.35zM368.16 346.463c1.94-.28 3.565.26 4.876 1.616 1.317 1.355 2.047 3.14 2.194 5.36.125 1.895-.217 3.607-1.03 5.135-1.076 2.03-2.71 3.15-4.9 3.368-2.2.217-3.96-.527-5.28-2.23-1.044-1.346-1.632-3.006-1.762-4.982-.147-2.218.346-4.125 1.48-5.722 1.14-1.606 2.614-2.455 4.42-2.545zm.154.695c-1.117.11-1.92.89-2.41 2.346-.4 1.192-.53 2.86-.388 5.006.168 2.547.66 4.395 1.473 5.54.565.805 1.308 1.16 2.228 1.068.618-.06 1.123-.296 1.512-.704.498-.522.86-1.31 1.086-2.368.227-1.065.284-2.428.175-4.088-.13-1.974-.376-3.436-.742-4.384-.365-.953-.795-1.61-1.29-1.967-.49-.36-1.037-.51-1.644-.45zM380.992 353.26l.442 4.164c.085.804.177 1.307.278 1.506.105.19.265.332.482.425.216.092.602.093 1.158.005l.043.406-6.22.987-.044-.406c.563-.09.936-.21 1.12-.366.19-.164.312-.355.367-.57.063-.218.05-.73-.035-1.534l-1.023-9.645c-.087-.803-.182-1.3-.287-1.49-.1-.202-.258-.348-.475-.44s-.602-.094-1.158-.005l-.043-.404 5.647-.895c1.47-.233 2.56-.28 3.268-.14.707.14 1.31.513 1.814 1.116.5.6.797 1.347.893 2.244.115 1.097-.112 2.053-.68 2.872-.365.518-.905.95-1.622 1.294l3.456 4.568c.45.59.767.95.944 1.087.27.187.567.266.892.237l.043.406-3.828.607-4.636-6.152-.798.127zm-.774-7.29l.69 6.51.512-.08c.83-.13 1.442-.322 1.834-.57.393-.255.68-.643.862-1.162.188-.527.24-1.18.157-1.963-.12-1.134-.428-1.935-.92-2.407-.488-.472-1.213-.633-2.176-.48l-.96.152zM427.5 345.093l.856 4.067c.165.785.306 1.27.426 1.453.123.174.297.29.52.35.225.06.608.002 1.15-.168l.084.396-6.075 1.91-.082-.396c.548-.172.906-.35 1.074-.53.17-.192.272-.4.307-.623.04-.223-.024-.73-.19-1.515l-1.98-9.42c-.164-.785-.308-1.264-.432-1.437-.12-.185-.29-.306-.514-.364s-.608-.004-1.15.166l-.083-.394 5.515-1.733c1.436-.452 2.51-.66 3.227-.627.718.033 1.355.312 1.912.836.558.518.928 1.216 1.112 2.093.225 1.07.096 2.054-.388 2.952-.31.568-.802 1.078-1.48 1.526l3.888 4.018c.507.517.854.83 1.046.938.285.146.59.18.908.102l.084.396-3.738 1.175-5.217-5.412-.78.245zm-1.496-7.12l1.337 6.36.5-.157c.81-.255 1.4-.535 1.763-.84.365-.312.61-.74.74-1.282.132-.55.118-1.208-.043-1.972-.232-1.107-.616-1.857-1.153-2.25-.532-.396-1.268-.448-2.206-.153l-.936.294zM233.39 348.923l-.516 4.15c-.1.802-.125 1.317-.074 1.542.06.22.18.41.367.572.188.16.558.293 1.113.397l-.05.404-6.202-1.156.05-.405c.56.104.946.113 1.158.027.22-.095.38-.236.483-.425.107-.19.213-.684.313-1.486l1.2-9.615c.1-.803.12-1.312.062-1.53-.052-.228-.17-.422-.358-.583-.186-.16-.558-.295-1.112-.398l.05-.404 5.63 1.05c1.466.274 2.523.597 3.17.97s1.146.938 1.49 1.688c.347.743.465 1.563.353 2.458-.136 1.093-.57 1.935-1.303 2.53-.468.374-1.085.606-1.852.694l2.287 5.56c.3.717.522 1.173.662 1.363.217.27.484.446.803.528l-.05.405-3.816-.712-3.063-7.48-.796-.147zm.908-7.267l-.81 6.49.51.096c.828.154 1.458.18 1.893.073.434-.112.798-.388 1.09-.825.3-.443.498-1.055.595-1.834.14-1.13.027-2.004-.34-2.624-.362-.62-1.022-1.02-1.98-1.198l-.957-.178zM339.358 359.737l-4.324.223-.465 1.485c-.154.493-.223.9-.212 1.216.014.42.162.723.446.908.168.11.57.177 1.21.202l.014.41-4.072.21-.014-.41c.437-.103.79-.343 1.06-.717.272-.384.594-1.156.97-2.32l3.97-12.172.17-.008 4.84 12.05c.46 1.142.832 1.857 1.114 2.144.212.218.505.337.88.353l.013.408-5.923.306-.014-.41.243-.012c.475-.024.806-.122.993-.294.128-.124.188-.297.18-.518-.004-.133-.027-.268-.067-.406-.015-.065-.114-.338-.3-.815l-.715-1.833zm-.335-.8l-2-5.064-1.702 5.255 3.703-.19z"/>
  </g>
  <g fill-rule="evenodd">
    <path fill="#fff600" d="M325.102 227.115h98.908v93.427h-98.908z"/>
    <path fill="#cc1900" d="M339.232 133.688h14.13v93.427h-14.13zM367.49 133.688h14.13v93.427h-14.13zM395.75 133.688h14.13v93.427h-14.13z"/>
    <path fill="#fff600" d="M325.102 133.688h14.13v93.427h-14.13zM353.362 133.688h14.13v93.427h-14.13zM381.62 133.688h14.13v93.427h-14.13zM409.88 133.688h14.13v93.427h-14.13z"/>
    <path fill="#cc1900" d="M249.274 236.46h10.99v84.082h-10.99zM271.253 236.46h10.99v84.082h-10.99zM293.23 236.46h10.99v84.082h-10.99z"/>
    <path fill="#fff600" d="M238.287 236.46h10.99v84.082h-10.99zM260.266 236.46h10.99v84.082h-10.99zM282.245 236.46h10.99v84.082h-10.99zM304.223 236.46h10.99v84.082h-10.99z"/>
    <path fill="#cc1900" d="M227.295 236.46h10.99v84.082h-10.99z"/>
    <path fill="#fff600" d="M216.308 236.46h10.99v84.082h-10.99z"/>
    <path fill="#cc1900" d="M216.308 133.688h98.908v93.427h-98.908z"/>
    <path d="M306.436 161.146c2.027-.544 2.324-3.242 2.634-5.465.62-4.445-3.147-8.585-8.41-9.24s-9.976 1.993-10.597 6.44l-4.098 1.564 5.71.71-6.16 2.51 7.628.95-61.476 51.346 3.364 3.696 61.477-51.345c1.623-1.355.45-3.22-1.343-4.753-2.114-1.807-1.572-2.164-1.295-4.153.404-2.898 3.183-4.135 6.34-3.742s5.42 2.877 5.047 5.544c-.186 1.334-.734 2.903-2.153 3.208-2.335 1.15 1.03 4.846 3.332 2.732z" fill="#fff600"/>
    <path d="M194.88 361.42v336.61c0 35.434 16.978 53.15 50.934 53.15h118.85c33.957 0 33.957 35.433 33.957 35.433s0-35.433 33.957-35.433h118.85c33.957 0 50.935-17.716 50.935-53.15V361.42h-407.48zm17.716 17.717v177.16h177.17v-177.16h-177.17zm194.88 0v177.16h177.17v-177.16h-177.17zm-194.88 194.88v106.3c0 35.434 16.978 53.15 50.934 53.15H389.76v-159.45H212.6zm372.05 0v106.3c0 35.434-16.977 53.15-50.934 53.15H407.482v-159.45h177.16z" stroke="#000" stroke-width="1pt" fill="#cba323" transform="matrix(.55826 0 0 .52733 97.622 -66.238)"/>
    <path d="M265.756 143.034l-19.78 20.02 6.086 36.035h27.39l6.085-36.036-19.78-20.02z" fill="#fff"/>
    <path d="M264.24 150.504l-15.216 14.948 6.086 29.896h9.13v-44.842zm3.043 0v44.842h9.13l6.086-29.896-15.217-14.948z" fill="#fff600"/>
    <path d="M270.705 199.087h-4.945s2.473 7.74 4.945 7.74c9.89 0 29.722-11.29 29.672-7.74 0 7.74-4.945 3.87-4.945 7.74s9.89 0 9.89-3.87 0-7.74-4.945-7.74-19.324 7.79-24.726 7.74c-4.945 0-4.945-3.87-4.945-3.87zM260.813 199.087h4.945s-2.472 7.74-4.945 7.74c-9.89 0-29.722-11.29-29.672-7.74 0 7.74 4.947 3.87 4.947 7.74s-9.89 0-9.89-3.87 0-7.74 4.944-7.74c4.947 0 19.325 7.79 24.728 7.74 4.945 0 4.945-3.87 4.945-3.87z" fill="#fffbff"/>
    <path d="M70.866 574.02c0 35.433 28.704 36.668 17.717 53.15L53.15 680.32H35.434l17.716-53.15c5.905-17.717 17.716-65.374 17.716-53.15z" transform="matrix(.2077 .03556 -.04452 .16587 400.283 156.016)" stroke="#fff600" stroke-width="5" fill="#cc1900"/>
    <path d="M35.433 423.42c0 3.667 2.242 31.888 0 35.067-2.242 3.18-8.97-18.684-12.977-16.28-4.008 2.406-7.603 24.16-12.902 25.505-5.298 1.35-12.3-17.71-18.412-17.71-6.112 0-11.937 19.062-17.235 17.717-5.298-1.347-10.07-23.1-14.08-25.505-4.007-2.405-10.734 19.458-12.976 16.28-2.24-3.18 0-31.4 0-35.068 0-14.67 19.843-26.575 44.292-26.575s44.29 11.906 44.29 26.575z" transform="matrix(.1662 0 0 .0849 390.115 224.105)" stroke="#fff600" stroke-width="7.99" fill="#cc1900"/>
    <path d="M354.018 239.22c2.18 1.005 2.003 2.68 1.26 3.01-.74.327-1.768-.816-3.948-1.82s-4.692-1.494-3.95-1.822 4.458-.373 6.638.632z" fill="#008d00"/>
    <path d="M-70.866 414.57v53.15h53.15v-17.717H-53.15V414.57h-17.715z" transform="matrix(.11356 .14336 -.1795 .0907 443.015 228.556)" stroke="#fff600" stroke-width="5" fill="#cc1900"/>
    <path d="M70.866 574.02c0 35.433 28.704 36.668 17.717 53.15L53.15 680.32H35.434l17.716-53.15c5.905-17.717-17.716-35.434-70.866 0-12.224 0-70.866-8.964-70.866 0v53.15h-17.716v-53.15c0-6.942-35.433-53.15-35.433-70.867 0-12.224-53.15 0-53.15-17.716 0-8.86 35.432-17.717 35.432-35.433 0-17.717 35.433 0 53.15 0 0 17.716-17.717 35.433 17.716 35.433 24.45 0 177.17 0 177.17 17.716 0 17.717-17.717 5.493-17.717 17.717z" stroke="#fff600" stroke-width="5" fill="#cc1900" transform="matrix(.2124 0 0 .16964 384.88 156.03)"/>
    <path d="M363.552 271.44c2.043-.012 2.78 1.506 2.427 2.09-.352.58-1.66.008-3.7.02s-4.054.602-3.702.02 2.932-2.12 4.974-2.13zM393.657 271.44c2.043-.012 2.778 1.506 2.427 2.09-.352.58-1.658.008-3.7.02s-4.053.602-3.702.02 2.932-2.12 4.975-2.13zM358.797 267.24c1.656-.954 3.358-.058 3.494.58.137.637-1.343.775-3 1.73s-2.864 2.367-3 1.73.85-3.085 2.507-4.04zM379.016 268.953c2.04-.055 2.828 1.447 2.496 2.037-.332.59-1.657.044-3.7.1s-4.03.69-3.698.1 2.86-2.182 4.902-2.237zM353.34 251.02l8.96-5.484 2.29 2.386-8.96 5.485z" fill="#008d00"/>
    <path d="M357.06 254.91c0 .83-.51 1.502-1.142 1.502s-1.143-.673-1.143-1.503.512-1.504 1.143-1.504 1.143.673 1.143 1.503z" fill="#008d00"/>
    <path d="M47.995 681.85c34.086.02 34.086 12.9 19.835 12.9-19.835 0-67.83 4.38-67.83 3.28 0-1.102-16.484-14.202-16.484-14.202-1.232-3.513 1.177 14.128-1.232 14.203-2.41.075-16.43-15.38-16.43-15.38s1.288 15.232 0 15.307c-1.287.074-17.66-9.42-17.66-9.42l-1.178 8.242-15.306 9.42 15.306 10.596v8.242l15.306-8.242 1.178 15.306 18.84-15.306s4.763 16.3 2.353 16.484c-2.41.185 16.484-16.484 16.484-16.484-1.178-1.05 54.051 0 87.405-1.05 33.355-1.048 32.747-51.937 17.717-53.15-15.033-1.213-58.306 3.33-58.306-.203" transform="matrix(.1104 0 0 .12676 390.87 165.343)" stroke="#fff600" stroke-width="5.055" fill="#cc1900"/>
    <g>
      <path d="M70.866 574.02c0 35.433 28.704 36.668 17.717 53.15L53.15 680.32H35.434l17.716-53.15c5.905-17.717 17.716-65.374 17.716-53.15z" transform="matrix(.2077 .03556 -.04452 .16587 400.283 193.388)" stroke="#fff600" stroke-width="5" fill="#cc1900"/>
      <path d="M35.433 423.42c0 3.667 2.242 31.888 0 35.067-2.242 3.18-8.97-18.684-12.977-16.28-4.008 2.406-7.603 24.16-12.902 25.505-5.298 1.35-12.3-17.71-18.412-17.71-6.112 0-11.937 19.062-17.235 17.717-5.298-1.347-10.07-23.1-14.08-25.505-4.007-2.405-10.734 19.458-12.976 16.28-2.24-3.18 0-31.4 0-35.068 0-14.67 19.843-26.575 44.292-26.575s44.29 11.906 44.29 26.575z" transform="matrix(.1662 0 0 .0849 390.115 261.477)" stroke="#fff600" stroke-width="7.99" fill="#cc1900"/>
      <path d="M354.018 276.592c2.18 1.005 2.003 2.68 1.26 3.01-.74.327-1.768-.817-3.948-1.822s-4.692-1.492-3.95-1.82 4.458-.373 6.638.632z" fill="#008d00"/>
      <path d="M-70.866 414.57v53.15h53.15v-17.717H-53.15V414.57h-17.715z" transform="matrix(.11356 .14336 -.1795 .0907 443.015 265.928)" stroke="#fff600" stroke-width="5" fill="#cc1900"/>
      <path d="M70.866 574.02c0 35.433 28.704 36.668 17.717 53.15L53.15 680.32H35.434l17.716-53.15c5.905-17.717-17.716-35.434-70.866 0-12.224 0-70.866-8.964-70.866 0v53.15h-17.716v-53.15c0-6.942-35.433-53.15-35.433-70.867 0-12.224-53.15 0-53.15-17.716 0-8.86 35.432-17.717 35.432-35.433 0-17.717 35.433 0 53.15 0 0 17.716-17.717 35.433 17.716 35.433 24.45 0 177.17 0 177.17 17.716 0 17.717-17.717 5.493-17.717 17.717z" stroke="#fff600" stroke-width="5" fill="#cc1900" transform="matrix(.2124 0 0 .16964 384.88 193.4)"/>
      <path d="M363.552 308.81c2.043-.01 2.78 1.508 2.427 2.09-.352.583-1.66.01-3.7.02s-4.054.604-3.702.022 2.932-2.12 4.974-2.13zM393.657 308.81c2.043-.01 2.778 1.508 2.427 2.09-.352.583-1.658.01-3.7.02s-4.053.604-3.702.022 2.932-2.12 4.975-2.13zM358.797 304.612c1.656-.955 3.358-.058 3.494.58.137.637-1.343.775-3 1.73s-2.864 2.367-3 1.73.85-3.085 2.507-4.04zM379.016 306.325c2.04-.055 2.828 1.447 2.496 2.037-.332.59-1.657.044-3.7.1s-4.03.688-3.698.1 2.86-2.183 4.902-2.237zM353.34 288.393l8.96-5.485 2.29 2.386-8.96 5.485zM357.06 292.28c0 .83-.51 1.504-1.142 1.504s-1.143-.673-1.143-1.503.512-1.502 1.143-1.502 1.143.673 1.143 1.503z" fill="#008d00"/>
      <path d="M47.995 681.85c34.086.02 34.086 12.9 19.835 12.9-19.835 0-67.83 4.38-67.83 3.28 0-1.102-16.484-14.202-16.484-14.202-1.232-3.513 1.177 14.128-1.232 14.203-2.41.075-16.43-15.38-16.43-15.38s1.288 15.232 0 15.307c-1.287.074-17.66-9.42-17.66-9.42l-1.178 8.242-15.306 9.42 15.306 10.596v8.242l15.306-8.242 1.178 15.306 18.84-15.306s4.763 16.3 2.353 16.484c-2.41.185 16.484-16.484 16.484-16.484-1.178-1.05 54.051 0 87.405-1.05 33.355-1.048 32.747-51.937 17.717-53.15-15.033-1.213-58.306 3.33-58.306-.203" transform="matrix(.1104 0 0 .12676 390.87 202.715)" stroke="#fff600" stroke-width="5.055" fill="#cc1900"/>
    </g>
  </g>
</svg>
