<svg xmlns="http://www.w3.org/2000/svg" height="480" width="640" viewBox="0 0 640 480">
  <g fill-rule="evenodd" stroke-width="1pt">
    <path d="M0 0h640v480H0z"/>
    <path d="M426.662 0H640v480H426.662z" fill="#090"/>
    <path d="M213.336 0h213.34v480h-213.34z" fill="#bf0000"/>
  </g>
  <path d="M398.352 265.182c-.11.58 1.454 1.433 1.826.99 1.682-2.015 3.883-5.97 4.334-8.364.133-.697-2.107-1.485-2.586-.913-1.575 1.886-3.1 5.773-3.574 8.287zM188.016 387.838c-1.675 5.917-26.38-5.577-29.138-11.532 14.136 7.49 29.476 5.924 29.138 11.532zM109.91 266.973c1.236 1.47 3.318.485 1.42-1.504-1.552-1.61-1.04-2.117-1.987-4.075-.936-2.188-.887-3.395-2.016-4.96-1-1.482-2.5.03-1.495 1.28 1.263 1.476.915 2.564 1.687 3.992 1.426 2.444 1.08 3.727 2.39 5.265zm33.224 40.113c3.974 1.954 6.99 6.836 7.19 10.812.336 4.576.996 8.44 3.05 11.69-3.27-.91-4.837-6.124-5.302-11.118-.47-5.17-3.256-7.41-4.938-11.384zm8.29 9.576c2.75 5.077 6.597 7.013 6.794 10.78.333 4.335.662 4.557 1.837 8.82-3.237-.863-4.052-1.145-4.926-7.632-.54-4.56-4.19-7.775-3.706-11.968z" fill="#fff" fill-rule="evenodd" stroke="#000" stroke-width=".973" transform="matrix(.93752 0 0 .9375 80.002 0)"/>
  <path d="M215.673 343.95c4.208 3.446 6.938 7.382 8.21 12.467 1.328 4.738 3.195 8.515 5.933 12.774-4.46-3.04-7.265-7.18-8.668-12.165-1.232-4.9-2.686-8.563-5.475-13.075zm78.767 0c-4.302 3.466-7.093 7.425-8.394 12.54-1.357 4.766-3.265 8.566-6.064 12.85 4.56-3.06 7.427-7.223 8.86-12.24 1.26-4.928 2.746-8.613 5.597-13.15zm-5.295 0c-4.61 3.62-8.958 7.732-10.26 12.848-1.356 4.765-2.176 8.412-5.285 13.154 4.87-3.06 6.804-7.682 8.238-12.698 1.26-4.928 4.146-8.612 7.308-13.305zm-52.12 19.676c1.544 2.914 3.32 7.35 6.536 6.538.053-2.23-3.47-3.776-6.535-6.538zm4.805.994c6.25 2.56 11.645 1.928 12.317 5.855-5.86.633-8.005-1.775-12.316-5.856zm30.636-.604c-1.567 2.746-3.366 6.928-6.627 6.163-.054-2.105 3.517-3.56 6.625-6.165zm-4.38.836c-6.34 2.43-11.813 1.83-12.496 5.558 5.948.6 8.123-1.684 12.496-5.558z" fill="#fff" fill-rule="evenodd" stroke="#000" stroke-width=".973" stroke-linejoin="round" transform="matrix(.93752 0 0 .9375 80.002 0)"/>
  <path d="M273.867 355.958c.124-.89-.482-1.666-1.21-1.9-1.42-.533-2.83-.967-4.237-1.368-1.6-.38-2.494.767-2.5 1.52-.007 1.254-.065 2.318 0 3.268.088 1.183.312 1.27 1.06 1.446 1.197.202 2.732.41 3.935 1.216.953.588 1.87.123 2.345-.91.308-.79.477-2.336.607-3.272zm-17.225 0c-.11-.89.357-1.742 1.007-1.976 1.265-.533 2.527-.663 3.86-.61 1.476-.022 1.85.313 1.853 1.066.008 1.253.06 2.47 0 3.42-.078 1.183-.052 1.27-.72 1.446-1.07.202-2.893.256-3.968 1.064-.852.588-1.823.123-1.87-.987.022-.834-.048-2.485-.164-3.42zm-20.902-.234c-.126-.89.484-1.666 1.215-1.9 1.425-.533 2.844-.967 4.257-1.368 1.606-.38 2.505.767 2.51 1.52.008 1.254.067 2.32 0 3.268-.087 1.184-.313 1.27-1.064 1.446-1.203.203-2.744.41-3.953 1.217-.957.588-1.878.123-2.357-.91-.31-.79-.48-2.337-.61-3.273zm17.302 0c.11-.89-.36-1.742-1.012-1.975-1.273-.535-2.54-.666-3.878-.61-1.485-.025-1.86.31-1.864 1.063-.008 1.254-.06 2.47 0 3.42.078 1.183.052 1.27.724 1.446 1.074.2 2.907.256 3.987 1.064.853.587 1.83.122 1.875-.987-.02-.837.05-2.488.166-3.424zM185.47 238.518c-2.012-3.23-4.42 4.48-12.69 10.216-3.85 2.62-6.53 9.6-6.556 14.195-.127 3.153.35 6.3-.002 9.352-.222 1.93-2.234 6.216-.858 7.312 3.64 2.705 8.35 8.848 10.537 10.967 1.89 1.658 3.53-8.55 4.947-13.117 1.52-4.895.84-10.745 5.055-15.27 2.99-3.052 10.525-6.057 9.678-7.418l-10.11-16.238z" fill="#fff" fill-rule="evenodd" stroke="#000" stroke-width=".973" transform="matrix(.93752 0 0 .9375 80.002 0)"/>
  <path d="M253.884 223.61c-1.886-3.028-4.144 4.2-11.897 9.578-3.61 2.456-6.122 9-6.147 13.308-.119 2.956.329 5.906-.001 8.767-.209 1.81-2.095 5.828-.805 6.855 3.413 2.536 7.828 8.295 9.879 10.282 1.772 1.554 3.31-8.016 4.638-12.297 1.425-4.59.787-10.074 4.739-14.316 2.803-2.861 9.867-5.678 9.073-6.954l-9.478-15.223z" fill="#fff" fill-rule="evenodd"/>
  <path d="M173.246 248.074c-.788 5.468 2.256 7.287 5.13 8.346 2.973 1.057 5.41 4.247 6.667 7.133m-19.156 2.524c1.255 4.714 4.558 4.124 7.43 5.183 2.975 1.057 6.102 4.817 7.358 7.703" fill="none" stroke="#000" stroke-width=".487" transform="matrix(.93752 0 0 .9375 80.002 0)"/>
  <path d="M182.686 235.19l1.506-.967 28.922 48.71-1.504.967-28.924-48.71z" fill="#fff" fill-rule="evenodd" stroke="#000" stroke-width=".973" transform="matrix(.93752 0 0 .9375 80.002 0)"/>
  <path d="M251.274 220.49l1.412-.906L279.8 265.25l-1.41.906-27.117-45.665z" fill="#fff" fill-rule="evenodd"/>
  <path transform="matrix(-1.82376 0 0 1.8885 885.793 -48.875)" d="M274.79 144.77c-1.033-1.66-2.27 2.3-6.52 5.25-1.977 1.345-3.355 4.932-3.368 7.292-.065 1.62.18 3.238 0 4.806-.115.992-1.15 3.194-.442 3.757 1.87 1.39 4.29 4.546 5.414 5.635.97.85 1.812-4.393 2.54-6.74.782-2.515.432-5.52 2.598-7.845 1.535-1.57 5.407-3.113 4.972-3.812l-5.194-8.343z" fill="#fff" fill-rule="evenodd" stroke="#000" stroke-width=".492"/>
  <path d="M384.644 224.527c1.884-3.134 4.14 4.345 11.888 9.913 3.61 2.54 6.122 9.314 6.145 13.772.117 3.06-.33 6.114 0 9.075.207 1.875 2.094 6.031.804 7.096-3.41 2.625-7.826 8.584-9.872 10.641-1.772 1.607-3.306-8.297-4.635-12.73-1.425-4.749-.788-10.424-4.737-14.815-2.798-2.962-9.86-5.878-9.066-7.2l9.472-15.755z" fill="#fff" fill-rule="evenodd"/>
  <path transform="matrix(-1.82376 0 0 1.8885 885.793 -48.875)" d="M273.36 143.06l.774-.497 14.86 25.027-.773.497-14.86-25.027z" fill="#fff" fill-rule="evenodd" stroke="#000" stroke-width=".492"/>
  <path transform="matrix(-1.82376 0 0 1.8885 885.793 -48.875)" d="M268.43 149.76c-.405 2.81 1.237 3.665 2.713 4.21 1.528.542 2.86 2.063 3.504 3.546" fill="none" stroke="#000" stroke-width=".25"/>
  <path transform="matrix(-1.82376 0 0 1.8885 890.427 -34.162)" d="M267.35 151.26c.645 2.422 2.264 2.005 3.74 2.55 1.528.542 3.135 2.32 3.78 3.802" fill="none" stroke="#000" stroke-width=".25"/>
  <path d="M387.251 221.297l-1.41-.938-27.102 47.263 1.41.938 27.103-47.263z" fill="#fff" fill-rule="evenodd"/>
  <path d="M384.334 219.428c0 1.785 1.397 3.234 3.122 3.234 1.725 0 3.124-1.449 3.124-3.234 0-1.786-1.398-3.235-3.123-3.235-1.725 0-3.122 1.449-3.122 3.234z" fill="#fff" fill-rule="evenodd"/>
  <g fill="#fff" fill-rule="evenodd">
    <path d="M210.515 194.123h11.72v2.688h-11.72zm0 5.08h11.72v22.456h-11.72zm-.7-8.155l13 .076c.51-4.41-3.892-9.17-6.46-9.123-2.54.125-6.64 4.818-6.54 9.05zm77.695 3.132h11.72v2.69h-11.72zm0 5.1h11.72v22.457h-11.72zm-.708-8.156l13 .076c.51-4.41-3.89-9.17-6.46-9.122-2.54.122-6.64 4.815-6.54 9.046z" stroke="#000" stroke-width=".973" transform="matrix(.93752 0 0 .9375 80.002 0)"/>
    <path d="M277.364 181.99h10.988v2.52h-10.988zm0 4.763h10.988v21.052h-10.988zm-.656-7.646l12.188.072c.478-4.135-3.649-8.597-6.057-8.553-2.38.117-6.225 4.517-6.131 8.484zm72.84 2.937h10.989v2.522h-10.988zm0 4.781h10.989v21.053h-10.988zm-.663-7.646l12.188.071c.478-4.134-3.647-8.597-6.057-8.552-2.38.114-6.225 4.514-6.13 8.48z"/>
  </g>
  <path d="M349.549 186.825h10.988v21.053h-10.988zm0-4.781h10.988v2.522h-10.988zm-.656-2.863l12.187.07c.479-4.134-3.647-8.596-6.056-8.552-2.381.113-6.225 4.512-6.131 8.48zm-71.529 7.572h10.988v21.052h-10.988zm0-4.763h10.988v2.52h-10.988zm-.656-2.882l12.188.07c.478-4.134-3.649-8.596-6.057-8.552-2.38.117-6.225 4.517-6.131 8.484z" fill="#fff" fill-rule="evenodd"/>
  <g fill="#fff" fill-rule="evenodd">
    <path d="M200.764 225.478l7.452 8.21 92.757.153 7.604-8.21-23.72-.303-11.558-8.06-37.258-.15-10.797 8.362h-24.482z" stroke="#000" stroke-width=".973" transform="matrix(.93752 0 0 .9375 80.002 0)"/>
    <path d="M268.222 211.386l6.987 7.697 86.962.143 7.129-7.697-22.238-.284-10.836-7.556-34.93-.14-10.123 7.838h-22.952z"/>
  </g>
  <path d="M238.736 212.808l32.03-.034c4.337-2.292 5.69-9.614 5.668-13.71-.06-12.103-8.525-17.907-17.02-18.217-1.273-.064-2.75-1.055-3.087-2.215-.837-2.627-.62-9.468-1.538-9.375-.817-.012-.578 6.697-1.304 9.16-.4 1.228-1.777 2.436-3.15 2.506-10.575.528-17.395 8.247-17.128 18.14.178 6.54.94 10.447 5.526 13.745z" fill="none" stroke="#000" stroke-width=".973" transform="matrix(.93752 0 0 .9375 80.002 0)"/>
  <path d="M303.822 199.507l30.029-.031c4.066-2.15 5.334-9.014 5.314-12.854-.056-11.346-7.993-16.787-15.957-17.078-1.193-.06-2.578-.989-2.894-2.077-.785-2.462-.581-8.732-1.442-8.789-.621.06-.542 6.279-1.222 8.588-.375 1.151-1.666 2.284-2.954 2.35-9.914.494-16.308 7.73-16.057 17.006.166 6.13.88 9.794 5.18 12.885z" fill="#fff" fill-rule="evenodd"/>
  <path d="M236.732 202.142c.807 3.988 2.728 3.377 2.586 1.446-.473-6.16.026-12.227 5.473-16.27 1.73-1.266-.2-2.434-1.67-1.825-4.632 1.948-7.446 10.88-6.387 16.65z" fill="none" stroke="#000" stroke-width=".487" transform="matrix(.93752 0 0 .9375 80.002 0)"/>
  <path d="M242.12 204.654c.808 3.988 4.107 3.815 3.5 1.218-1.236-4.973-1.04-12.226 3.343-15.358 1.73-1.26-.202-2.433-1.672-1.824-4.63 1.95-6.23 10.195-5.17 15.964z" fill="none" stroke="#000" stroke-width=".487" transform="matrix(.93752 0 0 .9375 80.002 0)"/>
  <path transform="matrix(-1.82667 0 0 1.82466 886.614 -39.197)" d="M301.46 125.42c.415 2.05 1.402 1.735 1.33.743-.244-3.165.012-6.282 2.81-8.36.888-.65-.103-1.25-.858-.937-2.38 1-3.826 5.59-3.282 8.554z" fill="none" stroke="#000" stroke-width=".25"/>
  <path transform="matrix(-1.82667 0 0 1.82466 882.69 -36.204)" d="M302.08 125.07c.415 2.05 2.11 1.96 1.798.626-.635-2.555-.534-6.282 1.718-7.89.89-.648-.104-1.25-.86-.938-2.38 1-3.2 5.238-2.656 8.202z" fill="none" stroke="#000" stroke-width=".25"/>
  <g fill="#fff" fill-rule="evenodd">
    <path d="M186.01 330.247h137.62l-12.32-10.037H198.327l-12.316 10.037z" stroke="#000" stroke-width=".973" transform="matrix(.93752 0 0 .9375 80.002 0)"/>
    <path d="M254.39 309.607h129.022l-11.55-9.41H265.938l-11.547 9.41z"/>
  </g>
  <g fill="#fff" fill-rule="evenodd">
    <g stroke="#000" stroke-width=".5">
      <path d="M209.892 239.94h13.077v18.094h-13.08zm.758 28.434h12.623v3.802H210.65zm-.29 6.676h12.925v14.142H210.36zm-.916 17.03h14.142v7.908h-14.142zm1.732-27.112h11.395l2.26-3.762h-15.697l2.044 3.762zm15.376-13.858l.107-9.89h7.85c-3.085 2.543-5.95 5.626-7.96 9.89zm72.888-11.17h-12.856v18.094h12.857zm-.213 28.434H286.82v3.802h12.407zm.233 6.676h-12.635v14.142h12.636zm.818 17.03h-13.902v7.908h13.902z" stroke-width=".973" transform="matrix(.93752 0 0 .9375 80.002 0)"/>
      <path transform="matrix(-1.79386 0 0 1.82466 876.997 -39.34)" d="M288.44 157.7h5.855l1.16-1.933h-8.065l1.05 1.933z"/>
      <path transform="matrix(-1.79386 0 0 1.82466 876.797 -39.34)" d="M296.23 150.58l.055-5.082h4.033c-1.584 1.307-3.057 2.89-4.088 5.082z"/>
    </g>
    <path d="M276.78 224.944h12.26v16.963h-12.263zm.71 26.657h11.835v3.564h-11.834zm-.271 6.258h12.117v13.259H277.22zm-.859 15.966h13.259v7.414H276.36zm1.624-25.417h10.683l2.119-3.527H276.07l1.916 3.527zm14.415-12.992l.1-9.272h7.36c-2.892 2.384-5.578 5.274-7.462 9.272zm68.334-10.472h-12.052v16.963h12.053zm-.2 26.657h-11.631v3.564h11.632zm.22 6.258h-11.846v13.259h11.846zm.766 15.966h-13.033v7.414h13.033zm-1.954-25.417h-10.504l-2.081-3.527h14.469l-1.885 3.527zm-14.175-12.992l-.1-9.272h-7.233c2.84 2.384 5.484 5.274 7.333 9.272z"/>
  </g>
  <path d="M211.916 255.16c.078 2.115 2.474 1.17 2.474.106 0-3.264.043-6.793-.088-9.103-.015-1.703 4.058-1.277 4.035-.228.016 2.756.047 6.536.062 9.76-.03 1.572 2.63 1.436 2.593 0-.016-3.6-.018-8.837 0-11.488.023-3.414-8.963-3.34-9.033-.076.005 2.68-.048 7.48-.044 11.03zm76.944.38c.077 2.115 2.473 1.17 2.473.106 0-3.264.043-6.792-.087-9.103-.016-1.703 4.058-1.276 4.034-.227.016 2.756.047 6.535.062 9.76-.03 1.57 2.554 1.435 2.52 0-.017-3.678.057-8.838.075-11.49.023-3.413-8.963-3.34-9.033-.075.004 2.68-.05 7.48-.045 11.03zm-76.91 21.184h9.276v11.557h-9.276z" fill="none" stroke="#000" stroke-width=".487" transform="matrix(.93752 0 0 .9375 80.002 0)"/>
  <path d="M284.275 263.918h3.065v1.78h-3.065zm-5.347 0h2.995v1.78h-2.995z" fill-rule="evenodd"/>
  <path d="M281.92 259.575h2.354v4.42h-2.353zm0 6.056h2.354v4.706h-2.353z" fill-rule="evenodd"/>
  <path d="M288.59 276.648h9.275v11.557h-9.276z" fill="none" stroke="#000" stroke-width=".487" transform="matrix(.93752 0 0 .9375 80.002 0)"/>
  <path d="M356.126 263.846h3.065v1.781h-3.065zm-5.347 0h2.994v1.781h-2.994z" fill-rule="evenodd"/>
  <path d="M353.771 259.504h2.354v4.42h-2.354zm0 6.056h2.354v4.706h-2.354z" fill-rule="evenodd"/>
  <path d="M280.154 277.327h1.596v11.482h-1.596z" fill="#fff" fill-rule="evenodd" stroke="#000" stroke-width=".973" transform="matrix(.93752 0 0 .9375 80.002 0)"/>
  <path d="M249.13 292.547l2.508 7.527h5.7l-4.56-7.53-3.648.003zm-3.192 7.527l1.444 7.45 6.69.076-2.434-7.528-5.7.002zm11.327.076l4.638 7.374h9.504l-7.45-7.452-6.692.078zm-56.112 16.878c5.043-4.69 8.262-8.692 8.288-14.445h12.318c.025 3.22 1.19 5.144 2.966 5.017l12.47-.076-.076-7.374h-9.048l-.003-40.223c-.33-14.217 17.285-22.505 24.484-22.43l-42.805-.075v-1.292h90.022l.076 1.292-43.414.076c12.874.026 25.29 12.217 25.394 22.507v11.404h-1.673l-.075-11.254c0-11.253-14.173-21.77-25.547-21.442-9.835.282-25.09 9.657-24.938 21.366v3.5l23.34.15-.227 4.03 3.665 2.34 7.31 2.33-.107 6.042 5.238 1.543.044 6.038 6.282 2.695v6.25l3.984 2.454-.183 6.347 5.4 3.8H271.56l7.983 8.896H267.76l-5.86-8.896h-7.753l3.498 8.82-8.286-.077-1.98-8.743h-10.11l.074 9.426-36.192.002zm36.116-24.407v7.453h8.667l-1.752-7.45h-6.917z" fill="#fff" fill-rule="evenodd" stroke="#000" stroke-width=".973" transform="matrix(.93752 0 0 .9375 80.002 0)"/>
  <path d="M313.567 274.263l2.351 7.056h5.344l-4.275-7.059-3.42.003zm-2.993 7.056l1.354 6.985 6.272.071-2.282-7.057-5.344.001zm10.62.072l4.348 6.913h8.91l-6.985-6.986-6.274.073zm-52.607 15.823c4.728-4.397 7.746-8.149 7.77-13.542h11.549c.023 3.018 1.115 4.822 2.78 4.703l11.691-.071-.07-6.913h-8.484l-.002-37.71c-.31-13.328 16.205-21.098 22.954-21.028l-40.13-.07v-1.211h84.397l.071 1.211-40.701.071c12.07.025 23.71 11.454 23.807 21.1v10.692h-1.568l-.07-10.55c0-10.55-13.288-20.41-23.952-20.103-9.22.265-23.522 9.054-23.38 20.031v3.281l21.882.14-.213 3.78 3.436 2.193 6.854 2.184-.1 5.665 4.91 1.446.041 5.66 5.89 2.527v5.86l3.735 2.3-.172 5.95 5.063 3.563h-11.98l7.485 8.34h-11.047l-5.494-8.34h-7.269l3.28 8.269-7.769-.072-1.856-8.197h-9.478l.07 8.837-33.932.002zm33.86-22.882v6.987h8.125l-1.642-6.984h-6.485z" fill="#fff" fill-rule="evenodd"/>
  <path d="M237.724 279.468h5.4v12.392h-5.4z" fill="none" stroke="#000" stroke-width=".483" transform="matrix(.93752 0 0 .9375 80.002 0)"/>
  <path transform="matrix(1.8247 0 0 1.86075 -248.131 -45.122)" d="M298.05 171.73h2.707l-.017-4.594c-.035-1.997 1.793-4.01 2.668-4.077.97-.038 2.4 1.883 2.448 3.92l.04 4.764 2.87-.006v-11.83l-10.716.056v11.764z" fill="none" stroke="#000" stroke-width=".25"/>
  <path d="M271.784 298.172h6.54v5.094h-6.54zm-3.874-8.758h6.54v5.093h-6.54zm-6.305-8.74h6.54v5.094h-6.54zm-5.41-7.374h6.54v5.092h-6.54z" fill="none" stroke="#000" stroke-width=".481" transform="matrix(.93752 0 0 .9375 80.002 0)"/>
  <path d="M251.874 292.762l6.69.227 11.936 10.567v-6.234l-4.03-2.89v-4.942l-5.853-3.343v-5.323l-5.703-1.9V271.7l-2.89-2.356-.15 23.418z" fill="none" stroke="#000" stroke-width=".487" transform="matrix(.93752 0 0 .9375 80.002 0)"/>
  <path d="M342.652 259.994h1.497v10.764h-1.497z" fill="#fff" fill-rule="evenodd"/>
  <g fill="#fff" fill-rule="evenodd" stroke="#000" stroke-width=".973" stroke-linejoin="round">
    <path d="M163.755 161.05c.58 9.07-2.235 14.048-7.038 13.29-1.324-5.03 1.687-8.406 7.038-13.29zm-10.56 20.086c-4.27-2.172-1.19-18.756.45-25.708 1.213 8.955 3.24 21.683-.45 25.708z" transform="matrix(.93752 0 0 .9375 80.002 0)"/>
    <path d="M154.723 181.93c7.178 2.497 12.86-5.233 14.782-14.186-5.924 8.176-15.566 8.186-14.782 14.186zm-5.447 8.36c-5.613-1.483-2.232-19.078-1.212-26.116 1.234 7.27 5.103 23.708 1.212 26.116zm1.917-.54c.314-6.067 6.363-4.314 10.538-7.553-.68 3.033-3.247 8.407-10.536 7.554zm-6.87 8.128c-5.562-1.5-2.22-20.436-2.534-28.233 1.63 6.736 6.793 26.407 2.532 28.233zm2.607-.828c4.557 1.48 10.593-1.48 11.068-6.905-3.924 2.662-10.19.626-11.067 6.905z" transform="matrix(.93752 0 0 .9375 80.002 0)"/>
    <path d="M140.168 206.236c-5.32.425-2.94-15.702-2.935-30.722 1.954 14.04 7.277 26.89 2.935 30.722z" transform="matrix(.93752 0 0 .9375 80.002 0)"/>
    <path d="M142.017 205.51c3.593 1.8 10.03-1.08 11.866-7.148-6.49 2.822-10.83.064-11.866 7.147z" transform="matrix(.93752 0 0 .9375 80.002 0)"/>
  </g>
  <g fill="#fff" fill-rule="evenodd">
    <path d="M233.526 150.984c.543 8.503-2.096 13.17-6.599 12.46-1.24-4.716 1.582-7.88 6.599-12.46zm-9.9 18.831c-4.004-2.036-1.116-17.584.421-24.101 1.138 8.395 3.038 20.328-.422 24.101z"/>
    <path d="M225.058 170.56c6.73 2.34 12.057-4.907 13.858-13.3-5.553 7.665-14.593 7.674-13.858 13.3zm-5.107 7.837c-5.262-1.39-2.092-17.886-1.136-24.484 1.157 6.816 4.784 22.226 1.136 24.484zm1.798-.506c.294-5.688 5.965-4.045 9.88-7.081-.638 2.843-3.045 7.881-9.879 7.082zm-6.441 7.62c-5.215-1.407-2.082-19.16-2.376-26.469 1.528 6.315 6.369 24.757 2.374 26.469zm2.444-.777c4.272 1.388 9.931-1.387 10.376-6.473-3.678 2.496-9.553.587-10.375 6.473z"/>
    <path d="M211.412 193.346c-4.987.399-2.756-14.72-2.751-28.802 1.832 13.163 6.822 25.21 2.751 28.802z"/>
    <path d="M213.146 192.666c3.368 1.687 9.403-1.013 11.124-6.702-6.084 2.646-10.153.06-11.124 6.7z"/>
  </g>
  <g fill="#fff" fill-rule="evenodd" stroke="#000" stroke-width=".973" stroke-linejoin="round">
    <path d="M183.773 169.444c-.946 7.867-4.16 12.445-8.965 11.687-1.323-5.03 2.57-8.244 8.965-11.685zm-12.71 20.203c7.98 1.132 10.855-4.993 16.227-12.823-7.53 5.448-16.53 6.58-16.227 12.823z" transform="matrix(.93752 0 0 .9375 80.002 0)"/>
    <path d="M168.806 188.732c-4.35-5.22-.146-11.775 3.178-17.363-.714 8.31 2.118 12.935-3.178 17.36zm-1.926 8.622c-.492-5.105 8.206-6.24 12.14-9.078-1.324 2.95-3.328 10.894-12.14 9.078z" transform="matrix(.93752 0 0 .9375 80.002 0)"/>
    <path d="M165.05 197.47c-6.015-.68-3.518-10.893.793-16.568-1.815 7.832 3.177 13.277-.794 16.57z" transform="matrix(.93752 0 0 .9375 80.002 0)"/>
    <path d="M160.514 205.976c-6.845-3.026-2.458-11.612.115-16.68-1.1 6.657 4.385 11.725-.117 16.68z" transform="matrix(.93752 0 0 .9375 80.002 0)"/>
    <path d="M161.877 205.178c3.593 4.69 10.592-1.4 12.028-8.51-6.09 5.07-10.59 4.236-12.028 8.51z" transform="matrix(.93752 0 0 .9375 80.002 0)"/>
  </g>
  <g fill="#fff" fill-rule="evenodd">
    <path d="M252.293 158.854c-.887 7.375-3.9 11.667-8.405 10.956-1.24-4.715 2.41-7.728 8.405-10.954zm-11.916 18.94c7.482 1.061 10.177-4.68 15.213-12.022-7.06 5.108-15.497 6.17-15.213 12.022z"/>
    <path d="M238.261 176.936c-4.078-4.894-.137-11.039 2.98-16.278-.67 7.791 1.985 12.127-2.98 16.275zm-1.806 8.083c-.46-4.786 7.694-5.85 11.382-8.51-1.241 2.765-3.12 10.213-11.382 8.51z"/>
    <path d="M234.74 185.128c-5.64-.637-3.298-10.212.743-15.532-1.701 7.342 2.979 12.447-.744 15.534z"/>
    <path d="M230.487 193.102c-6.417-2.836-2.304-10.886.108-15.637-1.031 6.24 4.111 10.992-.11 15.637z"/>
    <path d="M231.765 192.354c3.369 4.397 9.93-1.312 11.277-7.978-5.71 4.753-9.929 3.971-11.277 7.978z"/>
  </g>
  <g fill="#fff" fill-rule="evenodd" stroke="#000" stroke-width=".973" stroke-linejoin="round">
    <path d="M326.65 170.222c.91 4.088 1.137 12.145 8.4 10.555 1.058-7.49-5.032-7.83-8.4-10.555z" transform="matrix(.93752 0 0 .9375 80.002 0)"/>
    <path d="M339.01 189.53c-.263-7.717-8.585-6.016-15.77-12.37 1.967 6.694 8.925 14.865 15.77 12.37z" transform="matrix(.93752 0 0 .9375 80.002 0)"/>
    <path d="M340.722 188.615c4.88-3.367 1.135-10.705-3.404-17.135 1.703 7-2.04 13.427 3.404 17.135zm2.14 8.74c-7.866.604-9.265-3.33-12.367-8.397 5.37 3.48 12.557 1.286 12.368 8.396zm1.948.232c-3.747-3.065.907-9.645-.682-16.226 2.95 4.16 7.49 14.11.682 16.228z" transform="matrix(.93752 0 0 .9375 80.002 0)"/>
    <path d="M348.1 205.742c-7.868 1.853-10.402-2.306-12.37-9.303 6.392 5.86 9.948 3.1 12.37 9.3z" transform="matrix(.93752 0 0 .9375 80.002 0)"/>
    <path d="M349.228 205.645c5.484-.076 3.026-10.93.226-15.886.757 5.976-4.047 12.86-.226 15.884z" transform="matrix(.93752 0 0 .9375 80.002 0)"/>
  </g>
  <g fill="#fff" fill-rule="evenodd">
    <path d="M386.243 159.583c.854 3.833 1.066 11.386 7.876 9.895.992-7.021-4.718-7.34-7.876-9.895z"/>
    <path d="M397.831 177.684c-.246-7.234-8.048-5.64-14.784-11.597 1.844 6.276 8.367 13.936 14.784 11.597z"/>
    <path d="M399.436 176.827c4.575-3.157 1.064-10.036-3.191-16.064 1.597 6.562-1.913 12.587 3.191 16.064zm2.007 8.193c-7.375.567-8.687-3.122-11.595-7.872 5.035 3.263 11.773 1.206 11.596 7.871zm1.826.218c-3.513-2.874.85-9.042-.64-15.212 2.766 3.9 7.023 13.228.64 15.214z"/>
    <path d="M406.353 192.883c-7.376 1.737-9.752-2.162-11.597-8.721 5.993 5.493 9.327 2.906 11.597 8.718z"/>
    <path d="M407.41 192.792c5.142-.071 2.838-10.247.213-14.893.71 5.603-3.794 12.056-.212 14.891z"/>
  </g>
  <g fill="#fff" fill-rule="evenodd" stroke="#000" stroke-width=".973" stroke-linejoin="round">
    <path d="M345.873 161.1c.984 4.543-.917 13.513 6.344 13.443 3.037-5.132-3.435-9.96-6.344-13.443z" transform="matrix(.93752 0 0 .9375 80.002 0)"/>
    <path d="M356.777 181.365c4.576-3.138.452-13.44-.97-25.04-1.11 10.343-3.563 21.638.97 25.04z" transform="matrix(.93752 0 0 .9375 80.002 0)"/>
    <path d="M354.32 182.158c.573-5.664-8.356-6.927-14.478-14.422 1.587 6.01 6.112 14.79 14.477 14.422zm6.102 8.832c-4.81-4.36.905-16.87 1.143-26.568.745 8.95 4.677 24.98-1.143 26.567zm-2.734-1.258c-7.032.452-8.887-4.698-9.708-7.637 3.776 2.72 9.745 1.438 9.708 7.637zm7.064 7.754c5.407-.228 3.406-20.738 2.657-27.214-.537 6.89-6.176 24.72-2.66 27.214zm-2.38-.363c-4.672.713-9.41-2.002-10.694-6.642 4.035 1.757 10.707.366 10.695 6.644z" transform="matrix(.93752 0 0 .9375 80.002 0)"/>
    <path d="M369.094 206.01c5.788 2.357 3.71-24.387 2.962-30.56-.535 7.88-7.39 27.23-2.962 30.56z" transform="matrix(.93752 0 0 .9375 80.002 0)"/>
    <path d="M367.737 206.006c-5.815.864-10.097-2.686-11.76-7.554 5.935 2.213 10.555 1.427 11.76 7.554z" transform="matrix(.93752 0 0 .9375 80.002 0)"/>
  </g>
  <g fill="#fff" fill-rule="evenodd">
    <path d="M363.553 237.72c.716-6.985-4.635-19.687-.837-26.458.517-.93-1.137-3.4-2.206-1.9-1.67 2.39-3.386 9.207-4.104 6.69-.76-2.736-.878-7.577-3.346-8.517-1.575-.55-3.8-.91-3.194 1.522.603 2.34 1.954 5.57.458 5.78-.87.125-3.37-3.186-5.475-4.715-1.7-1.365-4.23.77-1.75 2.812 8.065 6.577 15.88 9.537 20.452 24.786z" stroke="#000" stroke-width=".973" transform="matrix(.93752 0 0 .9375 80.002 0)"/>
    <path d="M420.84 222.863c.672-6.549-4.345-18.457-.784-24.805.485-.872-1.066-3.187-2.068-1.781-1.566 2.24-3.174 8.631-3.848 6.272-.712-2.565-.823-7.104-3.137-7.985-1.476-.516-3.562-.853-2.994 1.427.565 2.194 1.832 5.222.43 5.419-.816.117-3.16-2.987-5.134-4.42-1.593-1.28-3.965.721-1.64 2.636 7.56 6.166 14.888 8.94 19.174 23.236z"/>
  </g>
  <g fill="#fff" fill-rule="evenodd">
    <path d="M404.265 151.031c.923 4.26-.86 12.669 5.948 12.603 2.847-4.811-3.22-9.337-5.948-12.603z"/>
    <path d="M414.488 170.03c4.29-2.942.424-12.6-.91-23.475-1.04 9.696-3.34 20.285.91 23.475z"/>
    <path d="M412.185 170.773c.537-5.31-7.834-6.494-13.574-13.52 1.488 5.634 5.73 13.865 13.573 13.52zm5.72 8.28c-4.509-4.087.849-15.816 1.072-24.907.699 8.39 4.385 23.418-1.071 24.906zm-2.563-1.18c-6.592.425-8.331-4.404-9.101-7.159 3.54 2.55 9.136 1.348 9.101 7.16zm6.623 7.27c5.07-.214 3.193-19.442 2.491-25.513-.503 6.46-5.79 23.175-2.494 25.513zm-2.231-.34c-4.38.668-8.822-1.877-10.026-6.227 3.783 1.647 10.038.343 10.027 6.229z"/>
    <path d="M426.036 193.134c5.426 2.21 3.478-22.862 2.777-28.65-.502 7.388-6.929 25.528-2.777 28.65z"/>
    <path d="M424.763 193.13c-5.451.81-9.466-2.517-11.025-7.081 5.564 2.074 9.896 1.338 11.025 7.082z"/>
  </g>
  <g fill="#fff" fill-rule="evenodd">
    <path transform="matrix(-1.81598 0 0 1.82466 883.62 -38.937)" d="M244.38 141.09c-1.017-1.062-.723-1.468.78-1.485 1.194-.075 3.558.73 4.455.078.822-.597.495-3.13.86-4.297.16-.65.615-1.673 1.64-.078 3.032 4.86 6.82 10.692 8.438 16.407.885 3.203.443 8.36-2.97 11.094l-2.42-7.034c-1.152-3.343-7.348-11.365-10.783-14.687z" stroke="#000" stroke-width=".501"/>
    <path d="M439.828 218.503c1.847-1.938 1.312-2.678-1.419-2.71-2.166-.136-6.46 1.335-8.088.143-1.492-1.09-.9-5.71-1.562-7.84-.29-1.19-1.118-3.054-2.981-.144-5.505 8.865-12.382 19.509-15.322 29.937-1.608 5.843-.804 15.253 5.39 20.24l4.4-12.83c2.09-6.1 13.34-20.737 19.579-26.799z"/>
  </g>
  <g fill="#fff" fill-rule="evenodd" stroke="#000" stroke-width=".973" stroke-linejoin="round">
    <path d="M390.38 216.058c-2.647 8.51-4.238 15.487-.417 16.308 4.083-.71 2.308-8.932.417-16.308zm-.272 23.89c4.354 2.31 9.046-8.787 8.07-17.528-2.192 7.492-9.577 12.118-8.07 17.527zm-1.614-.228c.675-6.052-1.81-5.892-5.067-11.675.345 6.532 1.972 12.01 5.067 11.674z" transform="matrix(.93752 0 0 .9375 80.002 0)"/>
    <path d="M389.933 248.592c5.08 1.443 10.905-10.656 10.687-19.597-2.116 9.897-13.146 13.852-10.687 19.597z" transform="matrix(.93752 0 0 .9375 80.002 0)"/>
    <path d="M388.273 248.366c2.037-4.69-2.12-4.116-4.878-12.52-.913 8.697.413 12.666 4.878 12.52zm1.473 9.124c6.594 1.134 9.994-13.425 13.27-20.396-6.485 9.14-14.255 14.23-13.27 20.395z" transform="matrix(.93752 0 0 .9375 80.002 0)"/>
    <path d="M388.213 256.99c1.927-5.368-3.52-5.068-6.39-13.09.456 10.175 1.777 13.845 6.39 13.09zm1.9 9.247c4.17.3 11.667-11.342 11.828-18.533-3.56 7.92-14.74 13.167-11.825 18.533z" transform="matrix(.93752 0 0 .9375 80.002 0)"/>
    <path d="M387.01 264.895c1.735-5.6-3.107-5.636-5.256-11.91-.152 9.458 1.324 12.666 5.257 11.91zm.16 10.09c7.352 1.287 9.234-8.406 13.572-18.266-4.28 7.846-13.95 12.25-13.573 18.264z" transform="matrix(.93752 0 0 .9375 80.002 0)"/>
    <path d="M386.648 273.637c2.384-5.064-3.14-5.068-6.086-12.635-.152 10.706 1.7 13.846 6.086 12.635z" transform="matrix(.93752 0 0 .9375 80.002 0)"/>
  </g>
  <g fill="#fff" fill-rule="evenodd">
    <path d="M445.992 202.554c-2.482 7.978-3.973 14.52-.391 15.29 3.828-.667 2.164-8.375.39-15.29zm-.255 22.397c4.082 2.166 8.48-8.238 7.566-16.432-2.055 7.023-8.979 11.36-7.566 16.431zm-1.513-.214c.632-5.673-1.697-5.523-4.75-10.945.323 6.124 1.848 11.26 4.75 10.945z"/>
    <path d="M445.573 233.055c4.762 1.353 10.223-9.99 10.02-18.372-1.985 9.278-12.326 12.986-10.02 18.372z"/>
    <path d="M444.016 232.843c1.91-4.397-1.987-3.859-4.573-11.737-.856 8.153.387 11.874 4.573 11.737zm1.381 8.554c6.182 1.063 9.37-12.586 12.441-19.121-6.08 8.568-13.364 13.34-12.44 19.12z"/>
    <path d="M443.96 240.928c1.807-5.032-3.3-4.751-5.99-12.272.427 9.54 1.665 12.98 5.99 12.272zm1.782 8.67c3.909.28 10.938-10.634 11.089-17.375-3.338 7.425-13.82 12.344-11.087 17.374z"/>
    <path d="M442.832 248.34c1.627-5.25-2.913-5.285-4.927-11.167-.143 8.867 1.241 11.875 4.928 11.166zm.15 9.458c6.893 1.207 8.657-7.88 12.724-17.124-4.012 7.356-13.078 11.484-12.725 17.123z"/>
    <path d="M442.493 256.535c2.235-4.748-2.944-4.752-5.706-11.846-.142 10.037 1.594 12.981 5.706 11.846z"/>
  </g>
  <g fill="#fff" fill-rule="evenodd">
    <path transform="matrix(-1.81598 0 0 1.82466 883.822 -39.197)" d="M256.81 166.87c3.334.016 3.985-4.687 3.985-5.937-1.64.312-4.61 3.28-3.985 5.937z" stroke="#000" stroke-width=".501"/>
    <path d="M417.441 265.283c-6.054.028-7.237-8.552-7.237-10.833 2.981.569 8.375 5.987 7.237 10.833z"/>
  </g>
  <g fill="#fff" fill-rule="evenodd" stroke="#000" stroke-width=".973" stroke-linejoin="round">
    <path d="M372.836 241.38c-2.647 8.51-3.705 12.596-.113 15.32 4.69-2.61 2.005-7.944.113-15.32zm-1.48 22.245c1.97-6.278-2.874-7.79-5.445-14.865-.262 9.344 1.06 16.19 5.448 14.865z" transform="matrix(.93752 0 0 .9375 80.002 0)"/>
    <path d="M373.288 264.98c3.443 1.324 7.68-6.655 5.335-14.637-2.42 7.187-8.36 8.925-5.335 14.638zm-3.635 7.155c3.33-5.144-1.968-5.41-4.65-12.594-.15 9.46.717 13.35 4.65 12.596z" transform="matrix(.93752 0 0 .9375 80.002 0)"/>
    <path d="M369.66 280.986c2.536-5.823-2.987-5.068-6.238-12.253-.152 10.706 1.625 13.01 6.238 12.253zm2.497-8.513c2.877.074 8.472-4.956 6.81-11.234-2.42 5.257-9.268 4.725-6.81 11.232z" transform="matrix(.93752 0 0 .9375 80.002 0)"/>
    <path d="M371.36 280.068c4.692.983 8.246-6.2 7.718-11.12-3.67 4.58-8.704 4.954-7.72 11.12z" transform="matrix(.93752 0 0 .9375 80.002 0)"/>
  </g>
  <g fill="#fff" fill-rule="evenodd">
    <path d="M429.544 226.294c-2.482 7.978-3.474 11.808-.106 14.362 4.397-2.447 1.88-7.447.106-14.362zm-1.388 20.854c1.847-5.885-2.694-7.303-5.104-13.935-.246 8.76.993 15.178 5.107 13.935z"/>
    <path d="M429.968 248.419c3.228 1.241 7.2-6.24 5.001-13.722-2.268 6.737-7.837 8.367-5.001 13.723zm-3.408 6.708c3.122-4.823-1.845-5.072-4.36-11.807-.14 8.868.673 12.515 4.36 11.808z"/>
    <path d="M426.566 263.424c2.378-5.459-2.8-4.75-5.848-11.487-.142 10.037 1.524 12.197 5.848 11.487zm2.341-7.98c2.698.069 7.943-4.647 6.385-10.532-2.269 4.928-8.69 4.43-6.385 10.53z"/>
    <path d="M428.16 262.564c4.399.921 7.731-5.813 7.236-10.425-3.44 4.293-8.16 4.644-7.238 10.425z"/>
  </g>
  <g fill="#fff" fill-rule="evenodd">
    <path transform="matrix(-1.81598 0 0 1.82466 883.62 -38.937)" d="M235.63 159.06c-.297-.385-1.15.01-.937.938.198 1.256 2.05 7.704 5.233 9.922 2.27 1.636 14.2 4.27 19.61 5.39 2.977.6 5.47 2.084 7.423 4.454-.81-3.1-1.46-5.395-2.5-8.203-1.016-2.466-3.703-5.166-6.486-5.31-5.17-.187-11.86-.627-16.72-2.736-2.51-1.048-4.01-2.464-5.625-4.453z" stroke="#000" stroke-width=".501"/>
    <path d="M455.718 251.292c.539-.703 2.088.019 1.701 1.712-.362 2.294-3.724 14.059-9.504 18.106-4.123 2.985-25.79 7.793-35.612 9.834-5.407 1.094-9.934 3.804-13.482 8.129 1.468-5.655 2.647-9.844 4.542-14.969 1.842-4.502 6.722-9.429 11.775-9.693 9.387-.34 21.535-1.144 30.364-4.992 4.556-1.912 7.284-4.495 10.215-8.125z"/>
  </g>
  <g fill="#fff" fill-rule="evenodd" stroke="#000" stroke-width=".973" stroke-linejoin="round">
    <path d="M386.598 297.655c1.057-4.228-.29-5.588.865-12.208-6.345 8.51-3.96 12.542-.865 12.208z" transform="matrix(.93752 0 0 .9375 80.002 0)"/>
    <path d="M387.297 298.704c4.202 1.17 15.13-8.405 15.448-15.55-2.954 5.135-17.713 10.674-15.448 15.55zm-6.87 6.31c2.875-1.57 2.064-8.22-.542-10.464-.534 6.49-4.453 10.308.543 10.465z" transform="matrix(.93752 0 0 .9375 80.002 0)"/>
    <path d="M383.394 306.83c5.082 1.593 10.83-7.615 15.02-11.614-4.777 4.118-19.226 6.096-15.02 11.613zm-6.99 4.573c3.556-2.33.236-6.93-.013-16.016-3.572 6.567-4.3 15.553.014 16.016z" transform="matrix(.93752 0 0 .9375 80.002 0)"/>
    <path d="M377.083 313.74c1.814 2.43 15.24-5.943 18.595-12.148-11.468 8.53-21.585 7.39-18.595 12.147zm-1.34 7.578c3.294-2.402-2.837-8.718-4.11-17.196.076 10.327-1.34 18.18 4.11 17.196z" transform="matrix(.93752 0 0 .9375 80.002 0)"/>
    <path d="M379.324 318.468c1.652 2.657 11.896-4.375 16.312-12.03-6.79 5.946-18.21 7.538-16.312 12.03zm-10.468 11.57c3.71-.66 3.2-10.046.37-17.69-3.194 9.23-4.608 18.595-.37 17.688z" transform="matrix(.93752 0 0 .9375 80.002 0)"/>
    <path d="M378.16 324.92c1.28 1.518 16.38-9.062 16.162-13.363-4.778 6.855-20.747 8.225-16.162 13.363zm-17.524 13.883c5.12-2.1 2.713-10.39 3.72-19.327-4.03 8.732-8.79 17.496-3.72 19.327z" transform="matrix(.93752 0 0 .9375 80.002 0)"/>
    <path d="M370.218 331.63c.815 2.808 13.112-2.4 19.048-10.968-7.17 5.566-21.096 6.323-19.048 10.967z" transform="matrix(.93752 0 0 .9375 80.002 0)"/>
    <path d="M362.277 340.125c2.65 4.406 17.9-3.663 20.115-11.234-4.93 6.553-21.964 5.564-20.115 11.236z" transform="matrix(.93752 0 0 .9375 80.002 0)"/>
    <path d="M369.272 343.56c2.8.302 9.31-5.03 11.142-7.812-5.234 2.596-12.308 6.17-11.142 7.812z" transform="matrix(.93752 0 0 .9375 80.002 0)"/>
  </g>
  <g fill="#fff" fill-rule="evenodd" stroke="#000" stroke-width=".973" stroke-linejoin="round">
    <path d="M346.304 310.784c3.332.483 7.69-5.634 4.78-11.833-1.446 6.19-11.144 10.69-4.78 11.835zm7.136-3.65c2.572 1.44 9.08-5.486 8.253-10.02-3.637 5.794-10.94 7.465-8.254 10.02z" transform="matrix(.93752 0 0 .9375 80.002 0)"/>
    <path d="M345.837 317.308c2.5 2.43 14.784-10.048 18.443-15.72-10.63 9.06-21.508 11.343-18.443 15.72zm-2.937 7.476c1.956 2.96 10.146-5.97 15.324-13.398-6.563 6.477-17.68 9.44-15.324 13.398z" transform="matrix(.93752 0 0 .9375 80.002 0)"/>
    <path d="M343.735 317.668c2.003-5.29-1.315-6.132-2.816-12.71-2.966 3.637-2.633 13.693 2.814 12.71zm-3.27 7.3c3.98-1.11-2.456-7.88-3.805-12.71-.607 8.883-.502 13.312 3.805 12.71zm-3.885 6.382c3.673-1.338-2.078-4.69-2.666-12.103-1.825 2.725-2.783 13.085 2.665 12.102z" transform="matrix(.93752 0 0 .9375 80.002 0)"/>
    <path d="M331.086 332.914c2.342-1.267 1.378-7.31-2.217-8.11-.838 4.743-.73 8.18 2.215 8.11z" transform="matrix(.93752 0 0 .9375 80.002 0)"/>
  </g>
  <g fill="#fff" fill-rule="evenodd">
    <path d="M404.67 291.36c3.123.453 7.21-5.282 4.48-11.093-1.355 5.803-10.447 10.021-4.48 11.095zm6.69-3.422c2.411 1.35 8.512-5.143 7.737-9.394-3.41 5.432-10.256 6.999-7.738 9.394z"/>
    <path d="M404.232 297.476c2.344 2.278 13.86-9.42 17.29-14.737-9.965 8.494-20.164 10.634-17.29 14.737zm-2.754 7.009c1.834 2.775 9.512-5.597 14.367-12.56-6.153 6.072-16.576 8.85-14.367 12.56z"/>
    <path d="M402.261 297.814c1.878-4.96-1.233-5.749-2.64-11.916-2.78 3.41-2.468 12.837 2.638 11.916zm-3.066 6.844c3.732-1.041-2.302-7.388-3.567-11.916-.569 8.328-.47 12.48 3.567 11.916zm-3.642 5.983c3.444-1.255-1.948-4.397-2.5-11.347-1.71 2.555-2.608 12.267 2.5 11.346z"/>
    <path d="M390.402 312.107c2.196-1.188 1.292-6.853-2.078-7.603-.786 4.446-.685 7.669 2.076 7.603z"/>
  </g>
  <g fill="#fff" fill-rule="evenodd">
    <path d="M442.446 279.052c.991-3.964-.272-5.24.811-11.445-5.949 7.978-3.713 11.758-.81 11.445z"/>
    <path d="M443.101 280.035c3.94 1.097 14.185-7.88 14.483-14.578-2.77 4.814-16.606 10.007-14.483 14.578zm-6.44 5.916c2.695-1.472 1.935-7.707-.508-9.81-.501 6.084-4.175 9.663.509 9.81z"/>
    <path d="M439.442 287.653c4.765 1.494 10.154-7.139 14.082-10.888-4.479 3.86-18.025 5.715-14.082 10.887zm-6.553 4.287c3.334-2.184.221-6.497-.012-15.015-3.349 6.157-4.032 14.581.013 15.015z"/>
    <path d="M433.526 294.131c1.7 2.278 14.287-5.571 17.433-11.388-10.752 7.996-20.237 6.928-17.433 11.387zm-1.257 7.105c3.089-2.252-2.66-8.173-3.853-16.122.071 9.682-1.256 17.044 3.853 16.122z"/>
    <path d="M435.627 298.564c1.548 2.49 11.152-4.102 15.292-11.278-6.365 5.574-17.072 7.067-15.292 11.278zm-9.814 10.847c3.478-.62 3-9.418.346-16.585-2.994 8.653-4.32 17.433-.346 16.583z"/>
    <path d="M434.535 304.613c1.2 1.423 15.357-8.496 15.153-12.528-4.48 6.426-19.451 7.71-15.153 12.528zm-16.429 13.015c4.8-1.969 2.544-9.74 3.488-18.12-3.778 8.187-8.241 16.403-3.488 18.12z"/>
    <path d="M427.09 310.903c.764 2.633 12.292-2.25 17.857-10.282-6.722 5.218-19.778 5.927-17.858 10.281z"/>
    <path d="M419.645 318.867c2.484 4.13 16.781-3.434 18.858-10.532-4.622 6.144-20.592 5.217-18.858 10.534z"/>
    <path d="M426.203 322.087c2.625.284 8.728-4.715 10.445-7.323-4.907 2.433-11.539 5.784-10.445 7.323z"/>
  </g>
  <g fill="#fff" fill-rule="evenodd">
    <path transform="matrix(-1.59895 -.86503 -.86093 1.6066 948.307 269.993)" d="M235.83 159.52c-.377-.307-.876-.76-.704.176 1.41 7.41 1.855 9.483 8.35 12.044 6.6 2.508 8.967 1.63 14.588 1.533 3.034-.11 6.567 1.404 8.67 3.618.98 1.03 1.688 1.443 1.295.13-.396-1.312-.78-3.015-1.398-4.38-1.348-3-4.834-5.865-8.32-7.01-4.88-1.717-10.14-.854-15.165-2.164-2.62-.724-5.138-2.183-7.318-3.945z" stroke="#000" stroke-width=".501"/>
    <path d="M433.888 322.262c.869-.167 2.056-.463.975.89-8.632 10.688-11.13 13.632-23.719 12.129-12.715-1.683-15.743-5.138-24.647-10.158-4.754-2.803-11.708-3.425-16.979-1.687-2.453.806-3.938.853-2.179-.915 1.76-1.768 3.838-4.172 6.002-5.828 4.74-3.656 12.78-5.242 19.341-4.065 9.28 1.463 16.947 7.399 26.11 9.641 4.814 1.105 10.095.938 15.097-.007z"/>
  </g>
  <g fill="#fff" fill-rule="evenodd">
    <path transform="matrix(-1.80333 0 0 1.82466 879.936 -39.24)" d="M287.66 208.42c.884.11 1.444 1.822 1.88.663.737-1.877.22-3.37-.61-3.205-.978.26-2.634 2.456-1.27 2.542z" stroke="#000" stroke-width=".503"/>
    <path d="M361.184 341.055c-1.594.2-2.605 3.324-3.39 1.21-1.33-3.425-.398-6.149 1.097-5.848 1.766.476 4.752 4.481 2.292 4.638z"/>
  </g>
  <g fill="#fff" fill-rule="evenodd" stroke="#000" stroke-width=".973" stroke-linejoin="round">
    <path d="M318.535 348.932c4.813 1.252 6.063-4.296 6.535-8.327-4.34.935-8.887 3.45-6.535 8.327zm-1.935 4.928c.848 3.838 10.264-.118 12.094-5.493-6.694 3.906-13.298-.35-12.094 5.493z" transform="matrix(.93752 0 0 .9375 80.002 0)"/>
    <path d="M313.233 353.672c4.3.712 1.907-6.028 1.66-12.676-2.41 5.42-5.848 12.1-1.66 12.676zm-5.433 6.368c4.684.586 1.713-8.446.44-14.516-1.538 5.626-4.924 14.022-.44 14.516z" transform="matrix(.93752 0 0 .9375 80.002 0)"/>
    <path d="M310.587 360.24c.57 5.11 10.252-.61 15.886-3.75-7.442 1.152-16.722-1.263-15.886 3.75zm-5.323 7.147c.57 5.11 10.25-.61 15.886-3.752-7.443 1.154-16.722-1.26-15.886 3.752z" transform="matrix(.93752 0 0 .9375 80.002 0)"/>
    <path d="M302.79 367.182c4.454.13 1.18-9.587-.093-15.656-1.538 5.625-4.47 15.466.092 15.656zm-3.843 6.214c.57 5.11 9.417.073 14.9-3.448-7.52 1.61-15.736-1.566-14.9 3.448z" transform="matrix(.93752 0 0 .9375 80.002 0)"/>
  </g>
  <g fill="#fff" fill-rule="evenodd">
    <path d="M378.635 327.124c4.513 1.174 5.685-4.028 6.127-7.807-4.069.877-8.332 3.235-6.127 7.807zm-1.814 4.62c.795 3.598 9.623-.11 11.339-5.15-6.276 3.662-12.467-.328-11.339 5.15z"/>
    <path d="M373.665 331.567c4.031.668 1.788-5.65 1.556-11.883-2.26 5.081-5.483 11.343-1.556 11.883zm-5.094 5.97c4.392.55 1.606-7.918.413-13.608-1.442 5.274-4.617 13.145-.413 13.609z"/>
    <path d="M371.184 337.725c.534 4.79 9.612-.572 14.894-3.516-6.977 1.08-15.678-1.184-14.894 3.516zm-4.99 6.7c.534 4.79 9.61-.572 14.893-3.517-6.978 1.082-15.677-1.181-14.893 3.517z"/>
    <path d="M363.874 344.233c4.176.122 1.106-8.988-.087-14.677-1.442 5.273-4.19 14.499.086 14.677zm-3.603 5.826c.535 4.79 8.829.068 13.97-3.233-7.05 1.51-14.753-1.468-13.97 3.233z"/>
  </g>
  <g fill="#fff" fill-rule="evenodd" stroke="#000" stroke-width=".973" stroke-linejoin="round">
    <path d="M348.73 364.83c2.648 4.406 12.425-3.206 17.758-7.128-7.667 2.368-19.607 1.458-17.76 7.13z" transform="matrix(.93752 0 0 .9375 80.002 0)"/>
    <path d="M338.75 369.407c.953 5.052 17.448.883 19.8-2.862-7.585 3.213-20.705-1.502-19.8 2.862z" transform="matrix(.93752 0 0 .9375 80.002 0)"/>
    <path d="M330.983 373.26c.497 2.772 13.116 1.72 19.496-.428-6.9.858-20.78-4.01-19.498.43z" transform="matrix(.93752 0 0 .9375 80.002 0)"/>
    <path d="M324.395 376.56c.04 2.542 14.712 4 19.648-.125-9.864 1.464-20.628-5.99-19.648.124z" transform="matrix(.93752 0 0 .9375 80.002 0)"/>
    <path d="M312.79 378.94c-.568 3.53 15.395 2.783 20.407 1.014-8.57-.662-19.638-6.215-20.407-1.015z" transform="matrix(.93752 0 0 .9375 80.002 0)"/>
    <path d="M312.56 375.724c3.597 3.3 12.85-11.443 15.86-17.938-7.118 7.423-19.966 15.052-15.86 17.938z" transform="matrix(.93752 0 0 .9375 80.002 0)"/>
    <path d="M323.044 373.22c4.283 2.846 8.214-7.563 10.388-15.2-4.078 6.586-14.49 10.87-10.388 15.2z" transform="matrix(.93752 0 0 .9375 80.002 0)"/>
    <path d="M331.335 370.387c4.283 2.845 6.695-6.576 7.73-12.466-2.938 5.07-11.832 8.138-7.73 12.468z" transform="matrix(.93752 0 0 .9375 80.002 0)"/>
    <path d="M339.35 365.37c4.283 2.845 9.66-5.055 8.413-12.844-1.644 8.032-12.515 8.513-8.413 12.844zm-16.257 22.174c2.11 5.372 24.295-4.696 28.015-11.413-7.127 6.026-30.08 5.207-28.015 11.415z" transform="matrix(.93752 0 0 .9375 80.002 0)"/>
  </g>
  <g fill="#fff" fill-rule="evenodd">
    <path d="M406.944 342.028c2.483 4.13 11.649-3.006 16.649-6.682-7.188 2.22-18.382 1.366-16.65 6.684z"/>
    <path d="M397.588 346.32c.893 4.735 16.357.827 18.562-2.684-7.11 3.012-19.41-1.408-18.562 2.683z"/>
    <path d="M390.306 349.931c.466 2.599 12.296 1.613 18.278-.401-6.47.804-19.482-3.76-18.28.403z"/>
    <path d="M384.13 353.025c.037 2.383 13.792 3.75 18.42-.117-9.248 1.372-19.34-5.616-18.42.116z"/>
    <path d="M373.25 355.256c-.533 3.31 14.433 2.61 19.131.95-8.034-.62-18.41-5.826-19.132-.95z"/>
    <path d="M373.034 352.241c3.372 3.094 12.047-10.728 14.869-16.817-6.673 6.96-18.719 14.112-14.87 16.817z"/>
    <path d="M382.863 349.894c4.015 2.668 7.7-7.09 9.739-14.25-3.823 6.174-13.585 10.19-9.74 14.25z"/>
    <path d="M390.636 347.238c4.015 2.667 6.277-6.165 7.247-11.687-2.755 4.753-11.093 7.63-7.247 11.689z"/>
    <path d="M398.15 342.534c4.015 2.668 9.057-4.739 7.887-12.04-1.54 7.53-11.733 7.98-7.887 12.04zm-15.241 20.789c1.978 5.036 22.777-4.403 26.264-10.7-6.681 5.65-28.2 4.881-26.264 10.701z"/>
  </g>
  <g fill="#fff" fill-rule="evenodd">
    <path transform="matrix(-1.7916 0 0 1.82466 873.95 -38.913)" d="M366.62 143.7c.368-3.59-2.38-10.115-.43-13.594.266-.478-.584-1.747-1.133-.977-.858 1.227-1.74 4.73-2.11 3.436-.39-1.406-.45-3.893-1.718-4.376-.81-.282-1.955-.467-1.643.783.31 1.202 1.004 2.862.235 2.97-.446.064-1.73-1.637-2.813-2.423-.873-.7-2.174.396-.9 1.445 4.145 3.38 8.16 4.9 10.51 12.735z" stroke="#000" stroke-width=".5"/>
    <path d="M217.1 223.29c-.659-6.548 4.266-18.456.77-24.804-.477-.872 1.047-3.188 2.03-1.782 1.538 2.241 3.118 8.632 3.779 6.272.7-2.565.808-7.103 3.08-7.984 1.45-.516 3.498-.854 2.94 1.428-.555 2.194-1.8 5.222-.422 5.42.8.116 3.103-2.987 5.04-4.421 1.563-1.28 3.894.722 1.61 2.634-7.425 6.167-14.618 8.942-18.826 23.238z"/>
  </g>
  <g fill="#fff" fill-rule="evenodd">
    <path d="M132.01 343.318c-.93-.178-2.202-.494-1.044.95 9.252 11.4 11.93 14.54 25.42 12.936 13.63-1.794 16.874-5.48 26.416-10.834 5.097-2.99 12.55-3.654 18.198-1.802 2.63.86 4.22.913 2.335-.974-1.885-1.885-4.113-4.45-6.433-6.216-5.08-3.9-13.696-5.592-20.728-4.337-9.945 1.56-18.163 7.895-27.983 10.287-5.16 1.177-10.817 1-16.18-.008z" stroke="#000" stroke-width=".973" transform="matrix(.93752 0 0 .9375 80.002 0)"/>
    <path d="M203.764 321.86c-.872-.166-2.064-.463-.979.891 8.674 10.688 11.185 13.631 23.832 12.128 12.779-1.682 15.82-5.138 24.766-10.157 4.778-2.803 11.766-3.426 17.06-1.69 2.466.807 3.957.856 2.19-.913-1.767-1.767-3.856-4.172-6.031-5.827-4.763-3.656-12.84-5.243-19.433-4.066-9.324 1.462-17.028 7.401-26.235 9.644-4.838 1.103-10.141.938-15.169-.007z"/>
  </g>
  <g fill="#fff" fill-rule="evenodd">
    <path d="M209.873 363.685c1.72.214 2.81 3.546 3.657 1.29 1.436-3.653.43-6.56-1.184-6.238-1.905.508-5.128 4.78-2.473 4.948z" stroke="#000" stroke-width=".973" transform="matrix(.93752 0 0 .9375 80.002 0)"/>
    <path d="M276.762 340.955c1.613.2 2.635 3.324 3.429 1.21 1.346-3.426.403-6.15-1.11-5.85-1.786.477-4.808 4.482-2.319 4.64z"/>
  </g>
  <path d="M206.038 366.79c4.615 1.05 4.55-10.067-.162-14.78 2.075 7.14-3.468 13.668.162 14.78zm-1.791-.098c.304 5.283-12.966-.69-16.377-4.8 7.84 3.33 15.99.574 16.377 4.8zm-5.817-7.555c.475 5.118-11.508.618-15.05-3.38 7.87 2.543 14.527-.832 15.05 3.38zm2.21.733c4.614 1.052 3.866-10.445-.62-14.396 2.153 7.672-3.01 13.287.62 14.397zm-4.862-7.003c4.615 1.05 1.967-8.85-1.454-12.802.556 7.217-1.72 12.223 1.454 12.802zm-2.434-.03c.475 5.27-8.847 1.224-12.465-3.76 7.79 2.542 11.94-.45 12.463 3.76zm-2.548-4.004c3.023-2.174-.184-7.923-5.94-7.567.564 3.472 2.552 9.58 5.94 7.567zm22.722 23.842c.305 5.283-12.968 2.656-17.137-2.974 8.374 1.584 16.75-1.25 17.14 2.976z" fill="#fff" fill-rule="evenodd" stroke="#000" stroke-width=".973" transform="matrix(.93752 0 0 .9375 80.002 0)"/>
  <g fill="#fff" fill-rule="evenodd">
    <g stroke="#000" stroke-width=".973">
      <path d="M125.637 232.64c-1.98-2.067-1.407-2.857 1.52-2.89 2.322-.146 6.923 1.423 8.67.152 1.6-1.162.962-6.09 1.672-8.363.31-1.27 1.195-3.26 3.19-.154 5.902 9.457 13.272 20.81 16.423 31.933 1.723 6.233.102 15.964-5.626 22.504.202-5.576-1.877-9.327-4.41-13.99-3.13-6.13-14.756-22.73-21.44-29.195z" transform="matrix(.93752 0 0 .9375 80.002 0)"/>
      <path d="M149.966 282.368c6.49.03 7.604-8.667 7.604-11.1-3.194.608-8.82 5.93-7.604 11.1z" transform="matrix(.93752 0 0 .9375 80.002 0)"/>
    </g>
    <path d="M197.79 218.1c-1.857-1.938-1.32-2.678 1.424-2.71 2.177-.136 6.49 1.335 8.129.143 1.5-1.09.901-5.71 1.567-7.84.29-1.19 1.12-3.056 2.99-.145 5.534 8.866 12.444 19.51 15.398 29.938 1.615 5.843.095 14.966-5.275 21.097.19-5.227-1.76-8.744-4.134-13.116-2.935-5.746-13.834-21.309-20.1-27.37z"/>
    <path d="M220.598 264.72c6.085.028 7.13-8.125 7.13-10.406-2.995.57-8.27 5.56-7.13 10.406z"/>
  </g>
  <path d="M273.167 343.866c4.327.984 4.266-9.438-.152-13.857 1.945 6.694-3.251 12.814.152 13.857zm-1.678-.092c.284 4.953-12.157-.647-15.355-4.5 7.35 3.122 14.991.538 15.354 4.5zm-5.455-7.083c.446 4.798-10.789.58-14.11-3.169 7.379 2.384 13.62-.78 14.11 3.169zm2.072.687c4.326.986 3.625-9.792-.581-13.496 2.018 7.192-2.822 12.456.581 13.497zm-4.558-6.565c4.327.984 1.844-8.297-1.363-12.002.521 6.766-1.613 11.459 1.363 12.002zm-2.282-.028c.445 4.94-8.294 1.147-11.686-3.525 7.303 2.383 11.194-.422 11.684 3.525zm-2.389-3.754c2.834-2.038-.172-7.428-5.569-7.094.53 3.255 2.393 8.981 5.57 7.094zm21.303 22.352c.286 4.953-12.158 2.49-16.067-2.788 7.851 1.485 15.704-1.172 16.07 2.79z" fill="#fff" fill-rule="evenodd"/>
  <g fill="#fff" fill-rule="evenodd" stroke="#000" stroke-width=".973" stroke-linejoin="round">
    <path d="M160.805 363.224c.476 5.27-14.015-.525-17.633-5.51 7.793 2.542 17.11 1.3 17.633 5.51zm8.878 2.254c3.023-2.174-3.15-7.772-8.067-9.088.563 3.472 4.68 11.1 8.067 9.088zm.933 3.65c.323 4.737-15.54 2.14-19.688-2.24 13.648 2.467 19.24-1.82 19.688 2.24z" transform="matrix(.93752 0 0 .9375 80.002 0)"/>
    <path d="M178.036 372.292c1.76 4.4-13.464 3.327-18.81.768 8.638-.075 17.6-3.834 18.81-.768z" transform="matrix(.93752 0 0 .9375 80.002 0)"/>
    <path d="M185.153 375.5c1.685 3.943-12.4 3.858-19.264 1.677 9.09-.074 17.595-5.58 19.262-1.678zm10.247 2.12c2.494 4.667-12.363 5.12-17.183 2.823 8.59-1.18 15.057-6.497 17.182-2.823z" transform="matrix(.93752 0 0 .9375 80.002 0)"/>
    <path d="M177.993 369.627c-4.727 2.98-4.473-5.807-8.233-11.893 5.907 5.38 11.436 9.05 8.233 11.893zm8.392 3.153c-3.964 3.512-7.134-8.547-10.743-15.313 5.834 6.442 14.402 12.396 10.743 15.313zm11.065 3.37c-3.357 3.892-13.065-11.433-16.596-19.42 5.376 6.217 19.267 16.122 16.597 19.42z" transform="matrix(.93752 0 0 .9375 80.002 0)"/>
  </g>
  <g fill="#fff" fill-rule="evenodd">
    <path d="M230.76 340.522c.446 4.941-13.14-.492-16.531-5.165 7.306 2.383 16.04 1.219 16.531 5.165zm8.323 2.114c2.834-2.039-2.953-7.287-7.563-8.52.528 3.255 4.388 10.406 7.563 8.52zm.875 3.421c.303 4.441-14.57 2.007-18.458-2.1 12.795 2.313 18.038-1.706 18.458 2.1z"/>
    <path d="M246.914 349.024c1.65 4.125-12.622 3.119-17.634.72 8.098-.07 16.5-3.595 17.634-.72z"/>
    <path d="M253.587 352.031c1.58 3.697-11.625 3.617-18.06 1.572 8.521-.069 16.495-5.23 18.058-1.573zm9.607 1.988c2.338 4.375-11.591 4.8-16.11 2.646 8.053-1.106 14.116-6.09 16.109-2.646zm-16.32-7.494c-4.432 2.794-4.193-5.444-7.718-11.15 5.537 5.044 10.721 8.485 7.718 11.15z"/>
    <path d="M254.742 349.481c-3.716 3.293-6.688-8.013-10.072-14.356 5.47 6.04 13.502 11.622 10.072 14.356zm10.374 3.16c-3.148 3.648-12.25-10.719-15.56-18.207 5.04 5.829 18.064 15.115 15.56 18.207z"/>
  </g>
  <path d="M256.27 363.598c-1.57 5.547-24.73-5.228-27.317-10.811 13.253 7.022 27.635 5.554 27.318 10.811z" fill="#fff" fill-rule="evenodd"/>
  <g fill="#fff" fill-rule="evenodd">
    <path d="M108.607 267.615c-.578-.75-2.24.02-1.824 1.826.385 2.447 3.99 14.996 10.185 19.313 4.418 3.184 27.64 8.313 38.167 10.49 5.794 1.167 10.646 4.057 14.447 8.67-1.572-6.032-2.835-10.5-4.865-15.966-1.974-4.803-7.204-10.058-12.62-10.34-10.06-.363-23.08-1.22-32.542-5.324-4.884-2.04-7.807-4.795-10.948-8.667z" stroke="#000" stroke-width=".973" transform="matrix(.93752 0 0 .9375 80.002 0)"/>
    <path d="M181.823 250.89c-.542-.704-2.1.018-1.71 1.71.361 2.295 3.74 14.06 9.549 18.107 4.142 2.985 25.913 7.793 35.782 9.834 5.432 1.094 9.981 3.804 13.545 8.128-1.474-5.655-2.658-9.843-4.561-14.968-1.851-4.503-6.754-9.43-11.832-9.693-9.431-.34-21.638-1.144-30.509-4.992-4.579-1.912-7.32-4.495-10.264-8.125z"/>
  </g>
  <g fill="#fff" fill-rule="evenodd" stroke="#000" stroke-width=".973" stroke-linejoin="round">
    <path d="M166.28 317.26c3.172 2.336 6.673-6.034 2.644-13.99-.127 7.658-6.214 10.23-2.644 13.99z" transform="matrix(.93752 0 0 .9375 80.002 0)"/>
    <path d="M169.328 324.955c4.387 1.347 5.76-6.414 2.872-12.622.482 6.67-6.897 10.687-2.872 12.622z" transform="matrix(.93752 0 0 .9375 80.002 0)"/>
    <path d="M172.66 331.114c4.238 2.11 5.842-5.732 2.797-11.554.332 7.428-6.06 9.618-2.796 11.554z" transform="matrix(.93752 0 0 .9375 80.002 0)"/>
    <path d="M170.907 331.586c-1.678 5.018-11.415-4.327-13.056-9.41 6.045 6.005 14.268 5.342 13.058 9.41z" transform="matrix(.93752 0 0 .9375 80.002 0)"/>
    <path d="M166.502 323.904c-1.908 5.018-14.152-7.9-16.858-14.122 6.043 6.004 18.22 10.586 16.858 14.122z" transform="matrix(.93752 0 0 .9375 80.002 0)"/>
    <path d="M164.064 316.385c-1.907 5.703-15.217-9.497-18.987-14.883 6.35 5.928 20.425 10.74 18.987 14.883z" transform="matrix(.93752 0 0 .9375 80.002 0)"/>
    <path d="M163.654 310.74c4.687-.91-.266-4.814-6.01-11.158-.27 6.68.827 11.35 6.01 11.158zm-7.914-3.783c2.023-2.204-1.94-3.142-6.85-8.65-.723 3.714 4.554 10.514 6.85 8.65zm22.7 24.775c2.564 1.5 4.32-3.755 1.123-8.513-.73 5.145-3.476 6.575-1.124 8.51z" transform="matrix(.93752 0 0 .9375 80.002 0)"/>
  </g>
  <g fill="#fff" fill-rule="evenodd">
    <path d="M235.893 297.431c2.974 2.19 6.256-5.657 2.479-13.115-.12 7.179-5.826 9.59-2.48 13.115z"/>
    <path d="M238.75 304.645c4.113 1.263 5.4-6.013 2.693-11.833.452 6.253-6.466 10.02-2.692 11.833z"/>
    <path d="M241.874 310.42c3.974 1.977 5.477-5.374 2.623-10.833.31 6.964-5.682 9.017-2.622 10.832z"/>
    <path d="M240.23 310.862c-1.572 4.704-10.701-4.057-12.24-8.822 5.668 5.63 13.377 5.008 12.243 8.822z"/>
    <path d="M236.101 303.66c-1.789 4.704-13.268-7.406-15.805-13.24 5.666 5.63 17.082 9.925 15.805 13.24z"/>
    <path d="M233.815 296.61c-1.787 5.347-14.266-8.903-17.8-13.952 5.953 5.558 19.149 10.069 17.8 13.953zm-.384-5.291c4.394-.853-.25-4.513-5.635-10.46-.253 6.262.776 10.64 5.635 10.46z"/>
    <path d="M226.011 287.772c1.897-2.066-1.818-2.945-6.422-8.11-.677 3.483 4.27 9.858 6.422 8.11zM247.293 311c2.404 1.406 4.05-3.52 1.053-7.981-.684 4.823-3.259 6.164-1.054 7.978z"/>
  </g>
  <g fill="#fff" fill-rule="evenodd" stroke="#000" stroke-width=".973" stroke-linejoin="round">
    <path d="M122.717 298.56c-5.446 3.265-14.095-9.762-16.402-15.12 4.778 6.15 17.43 11.768 16.402 15.12z" transform="matrix(.93752 0 0 .9375 80.002 0)"/>
    <path d="M127.36 306.143c-3.012 3.34-12.497-5.732-15.793-10.33 5.084 4.4 17.127 4.925 15.794 10.33z" transform="matrix(.93752 0 0 .9375 80.002 0)"/>
    <path d="M132.526 312.956c-.994 4.564-14.836-5.694-18.072-10.55 5.968 5.624 18.98 5.116 18.072 10.55z" transform="matrix(.93752 0 0 .9375 80.002 0)"/>
    <path d="M130.39 317.91c-2.134 4.108-13.392-6.072-16.095-11.383 6.88 6.002 17.838 7.32 16.096 11.383zm-5.772-20.026c3.552-3.746 2.04-5.5-.55-11.404-1.416 6.062-3.55 8.48.55 11.404zm4.714 7.066c6.443.285.062-7.555-1.46-14.14.56 7.505-1.652 13.42 1.46 14.14z" transform="matrix(.93752 0 0 .9375 80.002 0)"/>
    <path d="M133.43 311.198c4.463-1.01 3.175-7.327-.247-14.978.71 8.266-3.78 13.042.246 14.978zm-1.514 12.495c-1.68 5.02-14.38-6.607-16.4-11.006 6.423 5.396 17.535 7.243 16.4 11.006z" transform="matrix(.93752 0 0 .9375 80.002 0)"/>
    <path d="M139.515 331.52c-1.906 5.02-15.216-5.16-19.288-10.7 8.02 6.307 20.272 5.722 19.288 10.7z" transform="matrix(.93752 0 0 .9375 80.002 0)"/>
    <path d="M147.264 339.423c-2.134 6.995-16.052-4.172-20.2-9.636 8.855 6.763 21.334 4.657 20.2 9.636zm-13.077-17.963c3.78 1.956 5.307-8.77 3.175-16.346.028 8.266-7.582 14.41-3.175 16.346z" transform="matrix(.93752 0 0 .9375 80.002 0)"/>
    <path d="M140.66 329.965c4.542 1.35 3.102-10.215-.78-17.715-.502 7.43-3.854 14.488.78 17.715zm8.064 7.988c5.074.284 1.583-9.913-2.602-15.662.712 7.507-1.65 14.793 2.602 15.664zm-8.904 4.354c-1.526 2.584-5.257-2.196-11.383-5.684 5.51 1.44 12.06 3.29 11.382 5.684z" transform="matrix(.93752 0 0 .9375 80.002 0)"/>
  </g>
  <g fill="#fff" fill-rule="evenodd">
    <path d="M195.052 279.9c-5.106 3.06-13.215-9.152-15.378-14.175 4.48 5.766 16.341 11.032 15.378 14.175z"/>
    <path d="M199.405 287.01c-2.824 3.13-11.717-5.375-14.807-9.685 4.767 4.125 16.057 4.617 14.807 9.684z"/>
    <path d="M204.248 293.396c-.932 4.279-13.91-5.338-16.943-9.89 5.595 5.272 17.794 4.796 16.943 9.89z"/>
    <path d="M202.245 298.04c-2 3.852-12.555-5.692-15.09-10.67 6.451 5.626 16.724 6.862 15.091 10.67zm-5.411-18.774c3.33-3.512 1.912-5.156-.516-10.691-1.327 5.683-3.328 7.95.516 10.691zm4.42 6.625c6.04.267.057-7.083-1.37-13.257.526 7.036-1.548 12.582 1.37 13.257z"/>
    <path d="M205.095 291.748c4.184-.947 2.977-6.869-.231-14.042.665 7.75-3.544 12.227.23 14.042zm-1.42 11.714c-1.574 4.706-13.48-6.194-15.374-10.318 6.021 5.059 16.439 6.79 15.375 10.318z"/>
    <path d="M210.8 310.8c-1.787 4.706-14.265-4.838-18.083-10.031 7.52 5.913 19.006 5.364 18.083 10.031z"/>
    <path d="M218.065 318.21c-2 6.557-15.05-3.912-18.938-9.035 8.302 6.34 20.001 4.366 18.938 9.034zm-12.26-16.841c3.544 1.833 4.975-8.222 2.977-15.325.026 7.75-7.109 13.51-2.977 15.325z"/>
    <path d="M211.874 309.342c4.258 1.266 2.908-9.576-.732-16.608-.47 6.966-3.613 13.583.732 16.608zm7.56 7.489c4.757.266 1.484-9.294-2.44-14.683.668 7.038-1.547 13.868 2.44 14.685zm-8.348 4.082c-1.43 2.422-4.928-2.059-10.672-5.329 5.166 1.35 11.307 3.084 10.671 5.329z"/>
  </g>
  <g fill="#fff" fill-rule="evenodd" stroke="#000" stroke-width=".973" stroke-linejoin="round">
    <path d="M136.905 256.366c4.735-3.504 1.123-10.057 0-16.29-1.524 5.912-5.535 13.668 0 16.29zm-.155 8.758c-7.115-.854-6.044-10.055-6.258-15.886 2.14 7.916 7.97 9.253 6.257 15.886zm1.128-1.207c6.018-.348 5.7-7.195 6.02-14.122-3.05 6.366-6.662 7.355-6.02 14.122z" transform="matrix(.93752 0 0 .9375 80.002 0)"/>
    <path d="M137.645 272.423c-4.68.373-7.114-4.226-8.185-11.394 4.44 6.604 8.478 4.545 8.185 11.392zm1.673-.565c6.018.775 5.057-6.232 4.815-11.395-1.845 4.922-6.74 6.473-4.815 11.395z" transform="matrix(.93752 0 0 .9375 80.002 0)"/>
    <path d="M129.937 268.9c.48 4.574 3.37 12.437 8.025 10.67 1.925-5.616-4.093-6.74-8.025-10.67z" transform="matrix(.93752 0 0 .9375 80.002 0)"/>
    <path d="M139.396 280.052c-2.086-4.01 4.734-6.02 6.178-11.234.83 7.462.134 12.357-6.178 11.234z" transform="matrix(.93752 0 0 .9375 80.002 0)"/>
  </g>
  <g fill="#fff" fill-rule="evenodd">
    <path d="M208.353 240.343c4.44-3.285 1.053-9.428 0-15.272-1.429 5.543-5.189 12.814 0 15.272zm-.145 8.21c-6.67-.8-5.666-9.426-5.867-14.892 2.006 7.42 7.472 8.674 5.866 14.893zm1.057-1.13c5.642-.327 5.344-6.746 5.644-13.24-2.86 5.968-6.245 6.895-5.644 13.24z"/>
    <path d="M209.047 255.397c-4.388.35-6.67-3.962-7.674-10.682 4.163 6.19 7.949 4.26 7.674 10.68zm1.568-.53c5.642.726 4.742-5.843 4.515-10.683-1.73 4.614-6.32 6.069-4.515 10.683z"/>
    <path d="M201.82 252.094c.45 4.288 3.16 11.66 7.524 10.003 1.805-5.265-3.837-6.319-7.523-10.003z"/>
    <path d="M210.689 262.549c-1.956-3.76 4.438-5.644 5.792-10.532.778 6.996.125 11.585-5.792 10.532z"/>
  </g>
  <g fill="#fff" fill-rule="evenodd" stroke="#000" stroke-width=".973" stroke-linejoin="round">
    <path d="M119.984 232.498c3.746-4.034.437-10.436-.686-16.668-1.523 5.91-4.165 13.743.686 16.668zm-.12 7.517c-6.58.667-8.174-12.715-8.843-18.47 2.14 7.915 9.72 11.533 8.844 18.47zm1.37-.12c4.65-2.403 3.57-7.576 5.03-11.463-3.125 4.77-5.977 5.454-5.03 11.462z" transform="matrix(.93752 0 0 .9375 80.002 0)"/>
    <path d="M119.933 248.653c-6.884.59-10.985-14.237-11.2-20.068 2.14 7.916 12.002 12.22 11.2 20.068zm1.307-.225c6.474-1.49 5.7-5.676 4.73-12.45-2.062 6.823-5.675 5.377-4.73 12.45z" transform="matrix(.93752 0 0 .9375 80.002 0)"/>
    <path d="M119.843 257.21c-7.57 1.284-7.037-10.69-13.048-19.376 5.2 6.452 14.56 14.582 13.048 19.375zm1.71-.41c5.714.166 6.272-8.436 5.955-11.926-1.314 3.476-8.032 6.777-5.956 11.927z" transform="matrix(.93752 0 0 .9375 80.002 0)"/>
    <path d="M108.022 247.992c2.837 9.212 6.868 18.443 11.825 17.742 2.38-5.237-4.702-5.905-11.825-17.742z" transform="matrix(.93752 0 0 .9375 80.002 0)"/>
    <path d="M121.63 264.39c-2.086-4.01 4.734-6.02 6.178-11.233.83 7.462.134 12.357-6.178 11.234zm-11.65-5.872c4.052 8.3 5.88 17.836 11.444 16.45 2.077-6.454-6.145-7.805-11.444-16.45z" transform="matrix(.93752 0 0 .9375 80.002 0)"/>
    <path d="M122.56 273.4c-2.39-4.392 4.43-5.945 6.102-11.996.905 7.92.06 13.574-6.102 11.995z" transform="matrix(.93752 0 0 .9375 80.002 0)"/>
  </g>
  <g fill="#fff" fill-rule="evenodd">
    <path d="M192.49 217.967c3.511-3.782.41-9.784-.644-15.626-1.428 5.54-3.905 12.884.643 15.626zm-.113 7.047c-6.169.625-7.663-11.92-8.29-17.316 2.006 7.42 9.112 10.813 8.29 17.316zm1.284-.112c4.36-2.253 3.347-7.103 4.716-10.747-2.93 4.472-5.604 5.113-4.716 10.746z"/>
    <path d="M192.442 233.112c-6.454.553-10.3-13.347-10.5-18.814 2.006 7.422 11.251 11.457 10.5 18.814zm1.225-.21c6.07-1.398 5.344-5.322 4.434-11.673-1.933 6.397-5.32 5.041-4.434 11.672z"/>
    <path d="M192.357 241.134c-7.097 1.204-6.597-10.022-12.233-18.165 4.876 6.05 13.65 13.671 12.233 18.164zm1.603-.384c5.357.156 5.88-7.909 5.583-11.18-1.232 3.258-7.53 6.353-5.584 11.18z"/>
    <path d="M181.275 232.492c2.66 8.637 6.439 17.29 11.086 16.634 2.231-4.91-4.408-5.536-11.086-16.634z"/>
    <path d="M194.033 247.866c-1.956-3.76 4.438-5.644 5.792-10.531.778 6.995.125 11.584-5.792 10.532zm-10.923-5.505c3.8 7.78 5.513 16.72 10.73 15.422 1.947-6.051-5.762-7.318-10.73-15.422z"/>
    <path d="M194.904 256.313c-2.24-4.118 4.154-5.574 5.721-11.247.849 7.425.056 12.726-5.72 11.246z"/>
  </g>
  <path d="M134.24 217.226c3.993 1.08 8.182-3.404 6.73-10.115-4.564 1.138-6.66 5.28-6.73 10.117zm-12.788-3.366c.35 1.886 2.645 2.058 1.978-.61-.557-2.163-.652-3.79 0-5.55.893-2.205.595-5.96-.076-7.526-.678-1.654-2.922-.685-1.978.61 1.04 1.5 1.094 4.622.38 6.08-.94 2.152-.685 5.01-.304 6.995z" fill="#fff" fill-rule="evenodd" stroke="#000" stroke-width=".973" transform="matrix(.93752 0 0 .9375 80.002 0)"/>
  <path d="M205.855 203.65c3.743 1.012 7.67-3.192 6.31-9.483-4.28 1.066-6.245 4.95-6.31 9.484zm-11.99-3.156c.329 1.768 2.48 1.93 1.855-.572-.522-2.028-.611-3.553 0-5.203.837-2.067.558-5.588-.071-7.056-.636-1.55-2.74-.642-1.855.572.975 1.406 1.026 4.333.357 5.7-.882 2.018-.643 4.697-.285 6.558z" fill="#fff" fill-rule="evenodd"/>
  <path d="M135.27 206.677c-.378 2.948-2.873 3.216-2.148-.95.605-3.38.71-5.92 0-8.668-.97-3.447-.647-9.31.083-11.757.736-2.584 3.174-1.07 2.15.95-1.13 2.345-1.19 7.22-.414 9.498 1.024 3.363.747 7.825.33 10.926zm18.588 29.467c-1.543 2.27-4.002.952-2.61-2.692 1.178-2.523 1.304-5.65 2.615-7.494 1.833-2.797 4.938-5.128 6.7-6.82 1.82-1.8 3.333-.065 1.663 1.48-2.028 2.028-4.228 4.553-5.45 6.466-2.28 3.716-1.276 6.68-2.918 9.06z" fill="#fff" fill-rule="evenodd" stroke="#000" stroke-width=".973" transform="matrix(.93752 0 0 .9375 80.002 0)"/>
  <g fill="#fff" fill-rule="evenodd">
    <path transform="matrix(-2.29974 -.91753 -1.0669 2.36316 927.005 136.327)" d="M242.54 131.62c.18.97 1.484.926 1.14-.444-.285-1.112-.932-2.18-.597-3.085.46-1.13.57-3.077.226-3.882-.35-.85-1.47-.28-.987.385.534.77.114 2.925-.253 3.674-.482 1.106.274 2.334.47 3.354z" stroke="#000" stroke-width=".36"/>
    <path d="M228.775 224.817c-1.446 2.128-4.4.827-2.15-2.095 1.845-2.366 4.473-4.299 4.667-6.74.152-3.101 1.971-7.8 3.624-9.388 1.706-1.69 3.679.687 1.854 1.814-2.05 1.331-3.382 6.806-3.337 8.914-.07 3.056-3.118 5.265-4.658 7.495z"/>
  </g>
  <path d="M224.247 221.385c-1.447 2.128-3.752.892-2.447-2.524 1.105-2.365 1.223-5.297 2.452-7.025 1.718-2.623 4.63-4.808 6.281-6.394 1.706-1.688 3.125-.061 1.56 1.387-1.902 1.902-3.965 4.269-5.11 6.062-2.138 3.484-1.197 6.263-2.736 8.494z" fill="#fff" fill-rule="evenodd"/>
  <g fill="#fff" fill-rule="evenodd">
    <path transform="matrix(1.8247 0 0 3.83156 -241.787 -294.518)" d="M242.23 131.78c-.094.784 1.23.974 1.172-.163-.06-1.187-1.824-2.273-.742-4.08.57-.884.58-2.504.234-3.365-.303-.854-1.58-.296-1.094.37.534.77-.1 2.25-.508 2.993-1.225 2.166 1.01 3.22.938 4.245z" stroke="#000" stroke-width=".345"/>
    <path d="M200.21 210.409c-.172 3.004 2.246 3.731 2.138-.625-.11-4.546-3.328-8.709-1.353-15.632 1.037-3.388 1.056-9.595.426-12.894-.55-3.272-2.878-1.134-1.994 1.414.975 2.953-.183 8.621-.928 11.472-2.234 8.299 1.844 12.341 1.713 16.266z"/>
  </g>
  <path d="M206.82 193.76c-.354 2.763-2.693 3.015-2.013-.89.567-3.17.665-5.55 0-8.127-.91-3.232-.607-8.728.077-11.022.69-2.423 2.976-1.004 2.016.89-1.06 2.199-1.116 6.769-.388 8.905.96 3.152.7 7.336.31 10.243zm-23.775 56.527c1.159 1.378 3.11.455 1.331-1.41-1.455-1.51-.975-1.985-1.863-3.82-.877-2.051-.831-3.183-1.89-4.65-.937-1.39-2.344.028-1.401 1.2 1.184 1.384.857 2.404 1.581 3.742 1.337 2.292 1.013 3.494 2.24 4.936zm31.148 37.606c3.726 1.832 6.553 6.409 6.74 10.136.316 4.29.935 7.913 2.86 10.96-3.065-.853-4.535-5.741-4.97-10.423-.441-4.847-3.053-6.947-4.63-10.673zm7.772 8.978c2.578 4.76 6.185 6.574 6.37 10.106.312 4.064.62 4.272 1.722 8.269-3.035-.81-3.799-1.074-4.618-7.155-.507-4.275-3.929-7.29-3.475-11.22z" fill="#fff" fill-rule="evenodd"/>
  <path d="M301.504 401.657c.076 1.925.306 3.472 1.447 5.018-6.64-2.66-16.015-1.236-22.43 1.75-2.86 1.366-6.32-1.562-2.964-4.335 4.773-3.867 15.814-1.674 23.95-2.433zm-93.687-.1c.094 1.813-.116 3.475-.784 5.06 7.22-2.99 14.97-.507 22.262 2.434 5.013 2.075 5.418-1.514 4.533-2.756-1.522-2.203-4.467-4.622-8.192-4.675-2.48-.036-12.026-.12-17.82-.063zm6.094-35.26c-2.012-.868-4.352-.033-6.45 2.176-7.05 6.907-15.32 13.637-21.997 18.873-2.49 2.164-5.037 6.047 5.59 9.928.385.146 8.132 3.017 13.04 3.2 2.005-.057 2 2.937 1.627 3.735-.847 1.592-.234 2.2-1.945 3.735-1.783 1.504.19 3.452 1.592 2.13 5.983-5.196 15.685-1.872 25.035 1.168 2.21.612 6.252.44 6.217-2.608.037-3.32 2.442-5.667 3.914-5.753 3.816.662 22.676.872 28.486.166 3.387-.44 3.592 4.64 5.404 6.64 1.25 1.33 6.058 1.68 9.356.225 6.518-3.028 16.45-3.028 20.498-.134 1.664 1.267 2.978.24 2.032-1.047-1.22-1.76-1.19-2.575-1.797-3.965-1.52-3.094-.307-3.85 1.287-4.074 18.01-2.322 23.756-8.467 18.25-13.477-7.11-6.237-15.025-12.506-21.845-19.874-1.85-1.954-3.07-2.74-6.92-1.14-11.764 5.36-26.698 9.265-41.313 9.552-13.6.116-32.297-6.174-40.06-9.46z" fill-opacity=".185" fill-rule="evenodd" stroke="#000" stroke-width=".973" transform="matrix(.93752 0 0 .9375 80.002 0)"/>
  <path d="M362.669 376.553c.07 1.805.286 3.255 1.356 4.705-6.225-2.494-15.014-1.159-21.029 1.64-2.68 1.281-5.925-1.464-2.778-4.064 4.474-3.625 14.826-1.569 22.453-2.28zm-87.834-.093c.088 1.7-.109 3.257-.735 4.743 6.769-2.803 14.035-.475 20.871 2.282 4.7 1.946 5.08-1.42 4.25-2.583-1.427-2.066-4.188-4.334-7.68-4.383-2.326-.034-11.275-.113-16.707-.06zm5.713-33.057c-1.886-.813-4.08-.03-6.047 2.04-6.61 6.476-14.363 12.785-20.623 17.694-2.334 2.029-4.722 5.669 5.241 9.307.361.137 7.624 2.829 12.225 3 1.88-.053 1.875 2.754 1.526 3.502-.794 1.492-.22 2.062-1.824 3.501-1.671 1.41.178 3.237 1.493 1.997 5.609-4.87 14.705-1.755 23.47 1.095 2.073.574 5.862.413 5.83-2.445.034-3.112 2.289-5.312 3.669-5.393 3.577.62 21.259.817 26.706.156 3.175-.413 3.368 4.35 5.066 6.225 1.172 1.246 5.68 1.575 8.772.21 6.11-2.838 15.422-2.838 19.217-.125 1.56 1.188 2.792.225 1.905-.982-1.144-1.65-1.115-2.414-1.684-3.717-1.425-2.9-.288-3.61 1.206-3.82 16.885-2.176 22.272-7.937 17.11-12.634-6.666-5.847-14.086-11.724-20.48-18.632-1.735-1.832-2.878-2.569-6.488-1.069-11.029 5.025-25.03 8.686-38.732 8.955-12.75.11-30.279-5.788-37.557-8.868z" fill="#fff" fill-rule="evenodd"/>
  <g fill="#fff" fill-rule="evenodd">
    <path d="M338.583 332.01c.816 2.81 12.048-2.323 17.757-13.55-7.476 8.15-19.576 8.07-17.757 13.55z" stroke="#000" stroke-width=".973" transform="matrix(.93752 0 0 .9375 80.002 0)"/>
    <path d="M397.431 311.26c.765 2.634 11.295-2.178 16.648-12.704-7.01 7.64-18.353 7.566-16.648 12.703z"/>
  </g>
  <g fill="#fff" fill-rule="evenodd">
    <path transform="matrix(-1.89145 0 0 1.72875 894.369 -13.974)" d="M253.45 178.87c1.695 2.578 3.958 4.444 4.06 6.487.173 2.35.344 2.47.954 4.783-1.68-.468-2.104-.62-2.558-4.14-.28-2.47-2.708-4.856-2.456-7.13z" stroke="#000" stroke-width=".505"/>
    <path d="M414.972 295.247c-3.206 4.458-7.487 7.684-7.68 11.215-.326 4.064-.649 4.272-1.802 8.269 3.178-.81 3.98-1.074 4.838-7.155.53-4.272 5.122-8.395 4.646-12.328z"/>
  </g>
  <g fill="#fff" fill-rule="evenodd">
    <path transform="matrix(-1.9116 0 0 1.82466 906.43 -39.842)" d="M254.38 180.28c2.042 1.004 2.506 2.667 2.587 4.726.04 2.384.617 4.226 1.673 5.897-2.103.305-2.486-3.147-2.725-5.713-.242-2.656-.67-2.87-1.535-4.91z" stroke="#000" stroke-width=".489"/>
    <path d="M420.168 289.106c-3.903 1.833-4.791 4.868-4.945 8.625-.075 4.35-1.177 7.711-3.197 10.76 4.02.557 4.754-5.742 5.21-10.425.462-4.847 1.283-5.234 2.935-8.959z"/>
  </g>
  <g fill="#fff" fill-rule="evenodd">
    <path transform="matrix(1.95174 0 0 2.84972 -41.685 -181.018)" d="M242.23 131.44c.18.97 1.36 1.058 1.016-.312-.286-1.112-.335-1.948 0-2.852.46-1.133.306-3.062-.04-3.867-.347-.85-1.5-.354-1.015.31.536.77.564 2.376.197 3.125-.483 1.106-.352 2.574-.156 3.594z" stroke="#000" stroke-width=".387"/>
    <path d="M431.076 193.553c.349 2.764 2.653 3.015 1.983-.89-.56-3.169-.655-5.55 0-8.126.895-3.231.597-8.729-.075-11.023-.68-2.421-2.931-1.003-1.984.893 1.04 2.196 1.094 6.769.378 8.902-.942 3.153-.687 7.336-.304 10.244z"/>
  </g>
  <g fill="#fff" fill-rule="evenodd">
    <path transform="matrix(-1.79601 0 0 3.83156 872.655 -294.72)" d="M242.23 131.78c-.094.784 1.23.974 1.172-.163-.06-1.187-1.824-2.273-.742-4.08.57-.884.58-2.504.234-3.365-.303-.854-1.58-.296-1.094.37.534.77-.1 2.25-.508 2.993-1.225 2.166 1.01 3.22.938 4.245z" stroke="#000" stroke-width=".348"/>
    <path d="M437.601 210.208c.169 3.004-2.21 3.731-2.105-.624.108-4.547 3.276-8.71 1.332-15.633-1.022-3.384-1.04-9.593-.42-12.89.544-3.273 2.836-1.135 1.966 1.412-.96 2.953.178 8.621.912 11.472 2.2 8.3-1.814 12.342-1.685 16.266z"/>
  </g>
  <g fill="#fff" fill-rule="evenodd">
    <path transform="matrix(-1.79601 0 0 1.82466 878.895 -39.542)" d="M242.23 131.44c.18.97 1.36 1.058 1.016-.312-.286-1.112-.335-1.948 0-2.852.46-1.133.306-3.062-.04-3.867-.347-.85-1.5-.354-1.015.31.536.77.564 2.376.197 3.125-.483 1.106-.352 2.574-.156 3.594z" stroke="#000" stroke-width=".504"/>
    <path d="M443.841 200.291c-.32 1.77-2.44 1.931-1.824-.57.513-2.029.602-3.553 0-5.203-.825-2.068-.55-5.587.07-7.056.624-1.553 2.695-.645 1.824.569-.956 1.406-1.006 4.334-.346 5.7.866 2.018.63 4.696.278 6.558z"/>
  </g>
  <g fill="#fff" fill-rule="evenodd">
    <path d="M374.235 217.334c-3.323 1.41-7.618-8.035-4.444-9.807 2.463-.62 8.098 8.01 4.446 9.807z" stroke="#000" stroke-width=".973" transform="matrix(.93752 0 0 .9375 80.002 0)"/>
    <path d="M430.856 203.75c-3.116 1.323-7.143-7.532-4.167-9.193 2.31-.582 7.592 7.509 4.168 9.194z"/>
  </g>
  <g fill="#fff" fill-rule="evenodd">
    <path transform="matrix(2.21912 -.91753 1.0294 2.36316 -259.757 132.229)" d="M242.22 131.74c.18.97 1.234.857 1.32-.555-.012-1.006.432-2.074.267-2.87-.197-1.186-.906-2.386-1.25-3.19-.35-.85-1.142-.47-.806.273.386.954.75 2.098.876 2.905.208 1.555-.6 2.417-.405 3.437z" stroke="#000" stroke-width=".367"/>
    <path d="M413.357 221.297c1.395 2.128 3.618.892 2.36-2.524-1.066-2.365-1.18-5.297-2.365-7.026-1.66-2.622-4.467-4.807-6.061-6.394-1.647-1.688-3.015-.06-1.505 1.387 1.835 1.903 3.825 4.27 4.932 6.063 2.062 3.484 1.153 6.263 2.638 8.494z"/>
  </g>
  <g fill="#fff" fill-rule="evenodd">
    <path transform="matrix(2.21912 -.91753 1.0294 2.36316 -264.175 135.08)" d="M242.54 131.62c.18.97 1.484.926 1.14-.444-.285-1.112-.932-2.18-.597-3.085.46-1.13.57-3.077.226-3.882-.35-.85-1.47-.28-.987.385.534.77.114 2.925-.253 3.674-.482 1.106.274 2.334.47 3.354z" stroke="#000" stroke-width=".367"/>
    <path d="M409.522 223.571c1.397 2.128 4.247.827 2.076-2.096-1.78-2.365-4.316-4.297-4.503-6.74-.145-3.1-1.9-7.8-3.497-9.387-1.645-1.69-3.548.687-1.787 1.813 1.978 1.332 3.265 6.808 3.22 8.916.066 3.056 3.01 5.264 4.493 7.494z"/>
  </g>
  <path d="M220.83 343.95c4.512 3.6 8.765 7.687 10.037 12.773 1.328 4.737 2.13 8.363 5.172 13.077-4.767-3.042-6.66-7.637-8.06-12.624-1.234-4.9-4.058-8.562-7.15-13.227z" fill="#fff" fill-rule="evenodd" stroke="#000" stroke-width=".973" stroke-linejoin="round" transform="matrix(.93752 0 0 .9375 80.002 0)"/>
  <path d="M287.035 322.453c4.23 3.375 8.217 7.207 9.41 11.975 1.245 4.44 1.997 7.84 4.849 12.26-4.47-2.852-6.244-7.16-7.557-11.835-1.157-4.594-3.804-8.027-6.703-12.4zm-4.835 0c3.945 3.23 6.505 6.92 7.697 11.688 1.245 4.442 2.995 7.983 5.562 11.976-4.181-2.85-6.81-6.732-8.126-11.405-1.155-4.594-2.518-8.028-5.133-12.258zm73.846 0c-4.033 3.25-6.65 6.961-7.87 11.756-1.272 4.469-3.06 8.031-5.685 12.047 4.275-2.868 6.963-6.771 8.307-11.475 1.18-4.62 2.574-8.074 5.247-12.328zm-4.964 0c-4.322 3.394-8.399 7.249-9.62 12.045-1.27 4.467-2.04 7.886-4.954 12.332 4.566-2.869 6.379-7.202 7.723-11.904 1.181-4.62 3.887-8.074 6.852-12.474zm-14.324 11.258c.116-.835-.452-1.562-1.134-1.782a50.956 50.956 0 0 0-3.972-1.282c-1.5-.356-2.339.719-2.344 1.425-.007 1.175-.061 2.173 0 3.064.082 1.109.292 1.19.994 1.355 1.122.19 2.56.385 3.689 1.14.893.551 1.753.116 2.198-.853.289-.74.447-2.19.57-3.067zm-16.149 0c-.103-.835.335-1.634.944-1.853 1.186-.5 2.37-.621 3.62-.572 1.383-.02 1.734.294 1.737 1 .007 1.174.056 2.315 0 3.206-.074 1.109-.05 1.19-.675 1.355-1.004.19-2.713.24-3.72.998-.8.551-1.71.115-1.754-.925.02-.782-.045-2.33-.153-3.207zm-19.596-.22c-.118-.834.454-1.562 1.14-1.781 1.335-.5 2.666-.907 3.99-1.283 1.506-.356 2.349.72 2.354 1.425.007 1.176.062 2.175 0 3.064-.082 1.11-.294 1.19-.998 1.356-1.128.19-2.572.384-3.706 1.14-.897.552-1.76.116-2.21-.852-.29-.74-.45-2.191-.572-3.069zm16.221 0c.103-.834-.337-1.633-.948-1.851-1.194-.502-2.382-.625-3.636-.572-1.392-.024-1.744.29-1.748.996-.007 1.176-.056 2.316 0 3.207.073 1.109.049 1.19.679 1.355 1.007.188 2.725.24 3.738.998.8.55 1.716.114 1.758-.926a28.03 28.03 0 0 1 .155-3.21zm-15.017 7.408c1.449 2.732 3.113 6.891 6.129 6.13.05-2.09-3.254-3.54-6.127-6.13zm4.506.932c5.86 2.4 10.917 1.808 11.547 5.49-5.494.593-7.505-1.665-11.546-5.49zm28.722-.566c-1.47 2.574-3.156 6.495-6.213 5.778-.05-1.974 3.297-3.338 6.21-5.78zm-4.107.784c-5.943 2.278-11.075 1.715-11.715 5.21 5.577.563 7.616-1.578 11.715-5.21z" fill="#fff" fill-rule="evenodd"/>
  <path d="M286.79 302.57l13.61.003c.052 5.144 3.066 10.67 7.3 13.836h-26.08c4.08-3.7 5.196-8.087 5.17-13.84z" fill="#fff" fill-opacity=".534" fill-rule="evenodd" stroke="#000" stroke-width=".973" transform="matrix(.93752 0 0 .9375 80.002 0)"/>
  <path d="M348.874 283.66l12.76.002c.048 4.823 2.874 10.003 6.843 12.971h-24.45c3.825-3.468 4.871-7.581 4.847-12.975z" fill="#fff" fill-rule="evenodd"/>
  <path d="M189.69 385.756c-.75.572-.7 2.29.76 2.888 13.593 4.877 26.717 13.89 64.476 13.535 38.12-.36 51.516-9.158 63.716-13.23 1.625-.62 3.155-1.88 1.064-3.65-6.855-5.604-14.264-10.108-19.16-17.033-.87-1.245-3.242-.54-4.715 0-14.55 5.11-27.992 8.692-41.97 8.667-13.645-.025-27.87-3.784-40.676-9.046-1.226-.525-3.234.065-4.182.985-5.94 5.92-12.403 11.663-19.31 16.88z" fill="none" stroke="#000" stroke-width=".487" transform="matrix(.93752 0 0 .9375 80.002 0)"/>
  <path d="M275.01 352.87c-1.535-.99-2.226.297-1.14 1.64 1.408 1.545 3.687 2.475 6.057 3.136 1.384.384 4.24-.103 5.705.07 1.14.142 1.784 2.442 3.85 2.352 2.084-.09 3.422-5.631 3.493-8.412.094-1.842-2.453-.665-2.21.075.666 1.831-.557 5.918-1.856 5.916-.956-.06-1.982-2.042-3.422-2.282-1.125-.188-2.833.131-3.994.14-3.386.034-4.847-1.655-6.485-2.637z" fill-rule="evenodd"/>
  <path d="M277.875 351.373c1.81.903 3.388-.712 4.422.429 2.638 2.994 6.032-1.435 2.067-1.283-1.603.062-1.852-1.213-4.633-.928-1.48.19-2.72 1.279-1.854 1.781zm.42 13.12c-1.429-.625-1.909.733-1.069 1.569 1.178 1.076 6.074 1.505 7.27.642 1.981-1.5.533-5.447-.355-6.558-.553-.677-2.226-.728-1.569 1.07.272.835 1.487 2.91.497 3.85-.904.866-3.408 0-4.774-.57zm10.984 1.204c.314-.806-.532-2.192-1.997-.572-1.21 1.278-.228 6.662 3.636 7.628 3.778.928 6.608-.431 7.127-2.494.36-1.374-1.709-2.569-.64-3.78.894-.947 2.615.013 3.352-1.493.432-.846.465-2.578-1.854-3.708-1.005-.505-2.747.649-2.71 1.5.055 1.168 1.866.406 1.212 1.425-.478.774-2.62.45-3.278 2.278-.394 1.162 2.423 3.31.926 3.851-1.335.462-3.075.761-4.847-.214-1.096-.579-1.56-2.98-.926-4.418zm-13.613-7.408c-.897.131-2.137.784-2.207 1.854-.056.857.652 2.343 1.854 1.351 1.241-.962.289-1.419.57-1.068.619.618-.289.669-1.425 2.212-.792 1.168-2.484.98-3.35.568-1.495-.771-.935-1.265-2.566-1.997-1.63-.8-2.616 1.078-1.069 1.926 1.71.98 4.51 2.937 7.27 1.498 1.642-.928 3.563-1.772 3.492-3.85-.094-1.35-.694-2.756-2.567-2.494zm88.664-.712c-1.261-.9-.49-2.536 1.355-1.925 1.57.581 4.175 2.428 4.347 4.847.195 2.647-4.069 4.584-5.7 4.493-2.794-.225-2.297-2.441-.216-2.283 1.613.118 3.595-.457 3.708-2.137.094-1.459-2.586-2.306-3.494-2.995zm-9.197-6.479c-1.63-1.642 1.781-3.421 2.779-1.425 1.316 2.54 2.881 5.038 4.064 7.842.941 2.3-.294 2.61-1.07 1.352-1.297-2.19-3.262-5.12-5.774-7.77zm-7.975 4.91c1.753-.763 1.711 1.425 1.069 1.854-1.157.642-2.71-1.07-1.069-1.857zm5.202-1.916c1.753-.762 1.71 1.425 1.068 1.853-1.158.645-2.71-1.068-1.068-1.853z" fill-rule="evenodd"/>
  <path d="M297.966 357.158c-2.632-1.681.535-4.188 2.35-2.281 2.605 2.658 5.094 8.484 7.06 10.692 1.868 2.17.362-5.883.926-8.269.384-1.327 1.422-1.14 1.425.14.009 3.282-.497 9.957.356 10.482 1.594.905 1.307 2.386 2.636 2.137 1.427-.339 1.214-.712 2.497-.784 1.27 0 1.312 1.275 2.779 1.068.934-.121 1.215-1.18 2.35-1.213 1.036-.089.59 2.196-.068 2.566-1.075.604-4.422-.656-5.42-.569-1.184.032-3.318 1.132-4.633.641-1.603-.571-1.246-2.606-2.353-2.28-1.249.29-1.012 2.565-3.989 3.28-1.393.32-1.863-.934-1.14-1.78 1.294-1.385 3.9-2.49 3.492-3.779-1.207-3.595-4.851-7.925-8.269-10.05zm22.88.492c1.266 4.16 1.203 9.693 1.926 13.473.354 1.487 1.777.163 1.638-.998-.56-4.06-.806-9.043-1.853-12.902-.434-1.336-2.194-1.076-1.711.427zm3.504 1.078c-.334-1.735 1.327-1.899 1.57-.859.855 3.347.746 11.01 2.423 11.263 2.895.333 6.954-.266 10.552-.995 1.77-.353 2.133-1.634 2.067-2.14-.34-2.06 1.582-1.896 2.066.285.263 1.138-.255 3.18-2.422 3.634-4.236.817-10.065 2.078-13.403 1.355-2.923-.62-1.97-8.166-2.852-12.541z" fill-rule="evenodd"/>
  <path d="M329.058 361.72c.073-2.196 1.72-2.519 1.71-.644.046 4.49 5.302 3.326 6.417 1.64.823-1.312.221-1.878-.572-3.349-.984-1.903 1.101-2.44 1.997-.785.67 1.185 1.134 4.96-.07 5.918-1.67 1.322-6.183 1.973-8.129.497-1.031-.71-1.434-2.076-1.353-3.278zm-2.282-5.858c.235 1.406 4.063.928 3.92-.143-.132-.918-4.132-.712-3.92.143zm4.982 1.15c.15 1.417 2.628 1 2.494-.072-.131-1.133-2.636-1.356-2.494.071zm7.482-1.716c-1.256-1.737 1.19-1.847 1.997-.57 2.087 3.122 3.462 8.151 5.488 11.548.86 1.565 1.94.166 2.067-.214.135-.403-.656-1.022-.712-2.423-.1-1.092 2.128-2.445 3.707-1.425 1.475.993.268 1.875.997 2.421.698.521 2.453.193 2.712-.142.779-1.224-.283-.507-1.355-1.213-1.241-.888-.497-4.739 2.067-3.136 1.526.884 1.975 3.706 1.425 5.276-.485 1.453-3.037 1.947-4.418 1.639-1.557-.475-2.813-2.346-2.494-1.854.769 1.266-.192 2.513-.928 2.995-1.82 1.141-3.092 1.74-4.42-.143-2.353-3.525-3.65-9.472-6.131-12.76z" fill-rule="evenodd"/>
  <path d="M205.65 121.273c-.112-2.246 3.37-2.418 2.97.67-.51 3.85 7.265 13.592 7.91 19.6.43 4.03-2.368 7.555-5.14 9.75-3.397 2.632-8.623 2.27-11.068.76-1.48-1.19-2.828-5.268-1.72-6.882.39-.54 2.162 5.987 6.062 5.96 5.308-.033 9.607-4.02 9.765-7.576.27-6.193-8.684-15.982-8.78-22.28zm15.55 15.297c.878-.626 2.28 2.112 1.29 2.797-.823.548-2.43-2.036-1.29-2.796zm2.336-5.546c-.444.215-1.326-.09-1.063-.467 1.242-1.774 3.89-4.444 5.808-5.377.59-.286 1.623.755 1.267 1.265-1.148 1.64-3.943 3.576-6.01 4.58zm20.534-16.29c.492-1.028 3.448-2.19 4.2-2.885.698-.716 1.03.6.733 1.223-.492 1.027-3.044 2.762-4.163 2.81-.602.024-1.07-.53-.77-1.15zm7.006.33c.64-1.804 2.705-4.54 4.126-5.44.73-.46 2.04-.098 1.794.594-.543 1.53-3.07 4.205-4.768 5.465-.516.46-1.3-.2-1.152-.62zm-6.014 4.516c-.428.214-.197 1.126.216 1.264.878.292 2.475.35 3.2-.05 1.05-.648.572-4.634-.835-2.505-.944 1.312-1.633.89-2.58 1.29zm-11.872 9.147c-2.147-1.672.577-4.014 2.82-2.378 4.373 3.295-6.52 15.93-12.447 21.833-1.084 1.157-2.036-1.756-.646-3.01 4.25-3.605 8.227-7.91 10.992-12.36.532-.855 1.042-2.7-.72-4.087zm24.873-10.86c.267-1.6-2.59.033-2.64-2.088-.028-1.124 3.12-1.91 4.435-.62 2.222 2.254.56 6.06-3.136 6.297-3.08.136-8.22 4.374-7.44 5.265.89 1.1 8.88 1.827 13.526 1.1 2.877-.404 2.273 2.17-.673 2.517-2.848.327-5.168.023-7.828.86-3.132.894-4.498 5.1-6.238 6.666-.39.273-1.435-1.378-1.038-1.998 1.254-1.962 3.253-4.962 5.452-5.82 1.388-.563-3.826-.74-5.49-1.215-1.32-.398-.937-2.075-.43-3.01.67-1.46 5.585-6.38 7.567-6.3 1.86.078 3.747-.464 3.93-1.658zm8.29.428c.926-.815 1.4-2.18 2.368-3.01.533-.533 1.38.105 1.24 1.39-.12 1.01-1.477 1.883-2.39 2.643-.744.557-1.61-.645-1.215-1.023zm10.53-3.755c1.377-.153 1.72 2.503.215 2.933-.913.305-1.71-2.777-.214-2.934zm-3.463 8.212c-.022 2.287 1.107 2.077 3.26 2 2.092-.08 3.93.053 3.923-2.013-.01-2.143-1.185-4.016-1.53-2.56-.303 1.37-.545 3.61-1.34 2.634-.752-.84-.454-1.023-1.746.354-.717.758-.798-.37-1.23-1.076-.298-.42-1.336.338-1.338.658zm-15.026 11.678c-.514 3.027-.043 7.264 1.506 7.312 1.916.062 5.878-6.617 7.754-10.082 1.125-1.933 3.058-2.27 2.252-.254-1.22 3.113-1.11 9.772-.04 11.728.577 1.054 4.83-.966 5.517-2.467 1.25-2.73.234-7.758.672-10.83.212-2.016 2.057-2.437 1.96-.568-.183 3.342-.5 9.472-.265 12.256.14 1.6 4.716 3.962 5.45-.884.39-3.05 1.96-6.06-.074-9.44-1.262-2.112 1.85-1.847 3.528 1.04 1.174 1.964-.99 5.215-.913 7.73.197 3.865-2.81 6.06-4.992 6.107-1.95.04-3.22-2.357-4.82-2.39-1.772-.114-3.594 2.76-5.06 2.656-5.68-.388-2.672-8.69-4.402-8.79-1.925-.114-4.194 8.135-6.565 7.84-2.336-.28-4.755-6.722-3.782-9.448.88-2.538 2.538-3.132 2.277-1.52z" fill="#fff" fill-rule="evenodd" stroke="#000" stroke-width=".973" transform="matrix(.93752 0 0 .9375 80.002 0)"/>
  <path d="M285.895 121.33c-2.77-1.69.175-6.085 1.53-4.54 2.616 3.132 5.253 10.568 7.096 11.182 1.17.39 1.115-5.496 1.94-8.172.53-1.977 2.92-1.33 2.463 1.2-.156.847-3.122 10.463-2.894 10.843 2.054 4.11 4.09 8.28 5.374 12.69.532 1.9-1.75.62-2.024.224-1.46-2.18-4.01-10.51-4.01-10.13-1.174 5.86-1.45 7.59-2.696 12.572-.38 1.595-2.73 1.304-2.2-1.507.51-2.31 3.87-13.674 3.68-14.003-2.64-4.66-5.055-8.35-8.26-10.36z" fill="#fff" fill-rule="evenodd" stroke="#000" stroke-width=".973" transform="matrix(.93752 0 0 .9375 80.002 0)"/>
  <path d="M290.897 148.366c-.773-.088-1.97 1.718 1.876 2.428 5.142.93 10.77-.8 12.496-5.843 1.973-6.004 3.28-11.69 4.31-13.836 1.29-2.5 2.938-2.298 1.72-5.948-.857-2.626-2.46-1.834-2.796-.43-.9 3.83-4.31 16.214-5.375 18.495-2.01 4.163-6.058 5.81-12.234 5.137z" fill="#fff" fill-rule="evenodd" stroke="#000" stroke-width=".973" transform="matrix(.93752 0 0 .9375 80.002 0)"/>
  <path d="M301.193 128.61c-.55-1.18-1.835-.266-1.606 1.026.137 1.168 1.084 1.803 2.036 1.77 1.127-.04 3.51.038 3.517-1.833.004-1.315-1.03-2.413-1.796-.962-.734 1.315-1.678 1.177-2.15 0zm1.285-4.943c-.395.274-.04 1.736.43 1.72 1.68-.056 4.06-.592 5.335-1.48.373-.26.218-1.142-.314-1.124-1.62.054-4.198.01-5.453.884zm14.266 3.678c1.216-1.9 4.572-2.094 3.365.62-.856 1.87-9.21 18.01-10.35 20.062-1.244 2.308-2.26 1.165-1.378-.632 1.19-2.313 7.98-19.488 8.36-20.05z" fill="#fff" fill-rule="evenodd" stroke="#000" stroke-width=".973" transform="matrix(.93752 0 0 .9375 80.002 0)"/>
  <path d="M304.17 151.382c-.355-1.284-2.348-3.184-2.124.252.397 6.238 8.966 4.266 11.56 2.05 2.356-2.088.312 7.04 3.442 8.018 1.724.553 4.97-1.8 6.566-3.87 4.426-5.744 7.243-13.976 11.5-19.647 1.607-2.217-.88-3.8-1.887-2.035-3.702 6.207-8.3 18.874-13.32 22.164-4.093 2.62-2.88-3.373-3.023-5.173-.18-1.32-1.79-3.262-3.935-1.48-1.503 1.174-3.835 2.128-5.946 1.937-1.225-.068-2.258-.047-2.834-2.213z" fill="#fff" fill-rule="evenodd" stroke="#000" stroke-width=".973" transform="matrix(.93752 0 0 .9375 80.002 0)"/>
  <path d="M319.47 139.802c.044-.352-1.813-.512-1.722 1.29.065 1.334 1.66 1.697 1.935 1.506 2.51-1.826-.533-.916-.214-2.796zm-3.66 7.298c-.495.116-.948 1.694.216 1.784 1.064.076 5.235-.372 6.388-.304.745-.028 1.03-1.453-.57-1.378-1.937.098-4.485-.388-6.034-.102zm27.618-1.85c1.71-6.41 5.854.99 2.205 4.64-5.635 5.518-7.332 16.054-16.27 17.64-2.41.518-6.652-1.084-7.91-1.977-.49-.35.318-2.638 1.825-1.52 2.178 1.7 6.676 2.084 9.05.15 5.08-4.985 9.216-11.588 11.1-18.932zm-92.878 14.248c-.403.464-1.635.388-1.746 1.038-.484 2.41 0 3.633-.53 5.955-.51 2.225-2.052 2.31-1.947.497.14-2.35 2.077-5.666.708-5.894-.91-.214-1.613-1.432-.67-2.034 1.778-1.234 2.733-1.046 3.956-.674.428.13.537.757.23 1.113z" fill="#fff" fill-rule="evenodd" stroke="#000" stroke-width=".973" transform="matrix(.93752 0 0 .9375 80.002 0)"/>
  <path d="M249.305 156.345c-2.36 2.063-4.547 2.906-6.717 5.514-.887 1.067-.862 2.556-1.392 3.92-.53 1.444-2.24 1.73-2.77 1.427-.885-.582-.756-3.264-1.745-1.82-.837 1.33-1.38 3.16-2.62 3.137-1.12-.023-3.234-2.316-2.162-2.427 3.67-.375 3.624-3.312 4.998-3.505 1.542-.206 1.643 2.425 2.595 1.898.748-.383 1.1-3.448 1.91-4.275 2.49-2.542 4.457-3.885 6.995-5.754 1.284-1.02 2.2.826.91 1.886zm8.602 7.902c-1.888.382-1.566 2.81-1.012 3.11.915.427 2.33.606 2.86-2.185.247-1.147.47 5.7 2.983 3.06 1.446-1.597 5.03.29 6.53-1.72 1.074-1.338 1.405-2.272.568-4.25-.243-.6-1.714-.305-1.63 1.154.073 1.23-.873 2.748-2.103 2.49-.597-.11.337-3.01-.263-3.796-.33-.432-.833-.385-1.16.063-.463.626.462 3.406-1.054 3.772-1.914.44-.91-1.86-1.72-2.28-2.605-1.313-2.856.34-4 .582zm14.733-4.67c1.385-.39.953-.39 3.13-2.175.85-.642 1.016 1.238.927 1.982-.158 1.263-1.658.37-2.123 1.483-.682 1.444-.405 4.803-.633 6.17-.154.704-1.28.644-1.39.09-.32-1.67.23-3.302.177-5.388-.017-.71-1.03-1.82-.085-2.165zm-6.5-7.514c-.335 1.51-.31 2.754-.31 3.79.077.836 1.606.297 1.6.19-.075-1.326.226-3.16-.165-3.67-.212-.276-1.047-.594-1.125-.31z" fill="#fff" fill-rule="evenodd" stroke="#000" stroke-width=".973" transform="matrix(.93752 0 0 .9375 80.002 0)"/>
  <path d="M272.803 113.693c-.105-2.105 3.16-2.266 2.785.629-.478 3.609 6.81 12.742 7.415 18.375.404 3.778-2.22 7.082-4.818 9.14-3.185 2.468-8.085 2.128-10.377.713-1.387-1.116-2.651-4.94-1.612-6.452.365-.506 2.026 5.613 5.683 5.587 4.976-.03 9.007-3.768 9.155-7.102.253-5.806-8.142-14.983-8.232-20.888z" fill="#fff" fill-rule="evenodd"/>
  <path d="M214.894 119.97c.662.03 2.476 2.38 2.357 3.116-.08.347-1.94-.05-2.507-.532-.42-.356-.25-2.604.152-2.585zm-8.747 17.027c-1.658.905.263 2.69 1.505 1.936 4.66-3.018 11.656-6.19 13.118-12.167.47-2.025 2.35-5.13 4.138-5.822 1.726-.67 4.233 3.124 5.87.14.96-1.707 4.323 1.12 5.134-.707.99-2.205.518-3.42.56-5.53-.073-1.384-1.13-1.797-1.897.443-.4 1.014.07 2.038-.255 2.567-.247.403-1.018.792-1.465.456-.413-.31-.127-1.173-1.116-1.555-.385-.192-1-.352-1.267.14-1.173 2.092-1.823 4.044-3.466 1.82-1.464-1.916-2.205-5.228-3.278-.696-.386 1.6-2.817 3.92-4.25 3.92-1.79 0-1.34-4.713-5.276-3.996-2.022.432-1.882 4.3-1.58 5.73.496 1.988 6.405.56 6.11 1.86-1.01 4.515-7.276 8.807-12.588 11.46z" fill="#fff" fill-rule="evenodd" stroke="#000" stroke-width=".973" transform="matrix(.93752 0 0 .9375 80.002 0)"/>
  <path d="M169.156 158.506c-.25.755.753 2.806 1.795 2.958 1.023.076 1.545-2.215 1.216-2.958-.243-.547-2.83-.535-3.01 0zm5.41 7.96c-.655-.706-2.59 1.19-1.025 2.53.88.71 4.095 1.742 4.975.242 1.19-1.93-1.174-8.942-.127-9.868.818-.724 4.607 4.683 6.478 5.072 4.394.61 3.34-7.524 8.075-6.972 3.228.43 3.58-3.602 3.13-6.12-.36-2.416-4.27-5.904-6.07-7.464-2.365-1.97-3.42 1.452-1.935 2.58 1.912 1.53 5.273 4.623 5.808 6.668.253.965-2.335 2.884-3.29 2.365-2.2-1.203-4.248-6.353-6.173-7.53-.657-.4-2.27.505-1.494 2.11.874 1.724 4.734 4.39 4.96 6.227.204 1.676-1.72 5.3-2.984 5.3-1.39 0-4.932-4.38-6.038-6.44-.552-.987-2.467-.892-2.668.47-.317 2.046.296 6.375.784 9.057.388 2.54-1.43 2.668-2.403 1.77zM167.93 152.5c-.553.626 1.29 1.85 1.656 1.53.71-.614 3.47-3.758 2.937-4.857-.473-.98-4.266-3.126-4.883-2.063-1.145 1.84 3.575 2.663 2.836 3.202-.364.21-1.662 1.105-2.546 2.19zm6.812-13.778s1.185 4.055 2.15 2.365c.78-1.17-2.15-2.365-2.15-2.365zm1.928 6.452c-.435.237-1.658 1.205-.86 1.72 1.258.745 4.683 1.335 3.944-1.1-.45-1.436 5.165.04 3.797-3.846-.356-1.075-2.05-2.627-2.883-2.846-.53-.14-2.327.847-1.202 1.39.82.426 3.3 1.88 2.378 2.835-1.045.997-1.773-.448-3.073-.215-.655.124-.23 1.985-.597 2.492-.206.282-1.15-.623-1.504-.43zm8.913-15.42c-.71.353-1.978 2.274-2.024 3.162-.028.474.492 1.125.897.923.743-.373 1.892-2.19 1.934-3.026.03-.527-.37-1.28-.81-1.062zm4.632-.494c-1.368-1.672 1.452-4.155 2.72-.807.768 2.1 8.942 12.857 10.614 16.507 1.18 2.47-.045 3.49-1.508 1.72-4.14-5.282-7.536-11.865-11.828-17.42zm8.39.215c1.456-1.58 4.432-4.805 3.63-6.604-.615-1.545-2.423-1.39-2.73-1.034-1.77 2.11 1.255 1.58.82 2.303-.9 1.69-1.8 2.622-2.264 4.25-.107.38.28 1.37.545 1.086z" fill="#fff" fill-rule="evenodd" stroke="#000" stroke-width=".973" stroke-linejoin="round" transform="matrix(.93752 0 0 .9375 80.002 0)"/>
  <path d="M238.59 148.6c-.235.707.705 2.63 1.682 2.773.96.07 1.449-2.077 1.14-2.774-.228-.512-2.653-.501-2.822 0zm5.071 7.462c-.614-.662-2.428 1.116-.96 2.372.824.665 3.838 1.633 4.663.227 1.116-1.81-1.1-8.383-.119-9.252.767-.678 4.32 4.39 6.074 4.755 4.12.572 3.131-7.053 7.57-6.536 3.027.403 3.357-3.377 2.935-5.737-.338-2.265-4.004-5.535-5.691-6.998-2.217-1.847-3.206 1.361-1.814 2.419 1.792 1.434 4.943 4.334 5.445 6.251.237.905-2.19 2.704-3.085 2.217-2.062-1.128-3.982-5.956-5.787-7.06-.616-.374-2.128.474-1.4 1.98.819 1.615 4.438 4.115 4.65 5.837.19 1.571-1.613 4.969-2.798 4.969-1.303 0-4.624-4.107-5.66-6.038-.518-.925-2.314-.836-2.502.44-.297 1.919.277 5.977.735 8.492.364 2.38-1.34 2.5-2.253 1.66zm-6.221-13.093c-.519.587 1.21 1.734 1.552 1.434.666-.576 3.254-3.523 2.754-4.553-.444-.92-4-2.93-4.578-1.934-1.073 1.725 3.352 2.496 2.659 3.001-.341.197-1.558 1.036-2.387 2.054zm6.386-12.917s1.111 3.801 2.016 2.217c.731-1.097-2.016-2.217-2.016-2.217zm1.808 6.049c-.408.222-1.555 1.13-.806 1.612 1.179.699 4.39 1.252 3.697-1.031-.422-1.346 4.842.037 3.56-3.606-.334-1.008-1.922-2.463-2.703-2.668-.497-.131-2.182.794-1.127 1.303.769.4 3.094 1.763 2.23 2.658-.98.935-1.663-.42-2.881-.201-.615.116-.216 1.86-.56 2.336-.193.264-1.078-.584-1.41-.403zm8.356-14.457c-.666.331-1.854 2.132-1.898 2.965-.026.444.462 1.054.841.865.697-.35 1.774-2.053 1.814-2.837.028-.494-.347-1.2-.76-.995zm4.343-.463c-1.283-1.567 1.36-3.895 2.55-.756.72 1.968 8.383 12.053 9.95 15.475 1.107 2.316-.042 3.272-1.413 1.613-3.882-4.952-7.065-11.124-11.09-16.332zm7.865.202c1.365-1.481 4.155-4.505 3.404-6.191-.577-1.449-2.272-1.304-2.56-.97-1.66 1.978 1.177 1.481.769 2.16-.844 1.584-1.688 2.457-2.123 3.984-.1.356.263 1.284.511 1.018zm98.97 20.538c-.333-1.204-2.201-2.985-1.991.236.372 5.848 8.406 4 10.837 1.922 2.21-1.958.293 6.6 3.227 7.517 1.617.518 4.66-1.688 6.156-3.628 4.15-5.385 6.79-13.103 10.782-18.42 1.506-2.078-.825-3.562-1.77-1.907-3.47 5.819-7.78 17.694-12.487 20.778-3.838 2.457-2.7-3.162-2.834-4.85-.17-1.237-1.679-3.057-3.69-1.387-1.409 1.1-3.595 1.995-5.574 1.816-1.148-.064-2.117-.044-2.657-2.075zm-77.786-13.887c.823-.587 2.137 1.98 1.21 2.623-.772.513-2.28-1.91-1.21-2.622z" fill="#fff" fill-rule="evenodd"/>
  <path d="M325.327 134.76c-1.047-.847 1.03-4.958 2.435-3.345 3.858 4.464 5.65 18.958 6.765 29.806 0 0-1.734 1.448-1.747 1.218 0-5.778-2.322-23.456-7.453-27.676z" fill="#fff" fill-rule="evenodd" stroke="#000" stroke-width=".973" transform="matrix(.93752 0 0 .9375 80.002 0)"/>
  <path d="M289.572 122.835c-.417.202-1.243-.084-.997-.438 1.165-1.663 3.647-4.166 5.445-5.04.553-.269 1.522.707 1.188 1.185-1.076 1.538-3.697 3.353-5.634 4.294zm95.43 3.503c-.98-.795.966-4.649 2.284-3.136 3.617 4.185 5.297 17.773 6.342 27.943 0 0-1.625 1.357-1.637 1.142 0-5.417-2.177-21.99-6.988-25.947z" fill="#fff" fill-rule="evenodd"/>
  <path d="M327.702 160.082c.696-1.94 9.96-17.49 11.177-20.91.62-1.65 3.28 2.83.683 5.245-2.28 2.053-9.01 13.09-10.266 16.957-.578 1.746-2.332.915-1.596-1.292z" fill="#fff" fill-rule="evenodd" stroke="#000" stroke-width=".973" transform="matrix(.93752 0 0 .9375 80.002 0)"/>
  <path d="M321.942 110.5c.25-1.5-2.429.031-2.475-1.957-.027-1.054 2.925-1.79 4.157-.581 2.084 2.113.525 5.68-2.94 5.903-2.887.128-7.706 4.1-6.975 4.936.835 1.031 8.325 1.713 12.681 1.031 2.697-.379 2.131 2.035-.63 2.36-2.67.306-4.846.021-7.34.806-2.936.838-4.217 4.781-5.848 6.25-.366.255-1.345-1.292-.973-1.874 1.176-1.839 3.05-4.651 5.111-5.456 1.302-.528-3.587-.694-5.147-1.139-1.237-.373-.878-1.945-.403-2.822.628-1.369 5.236-5.981 7.094-5.906 1.744.073 3.513-.435 3.685-1.554zm-23.32 10.182c-2.012-1.568.542-3.764 2.644-2.23 4.1 3.09-6.112 14.935-11.669 20.469-1.016 1.084-1.909-1.647-.606-2.822 3.985-3.38 7.713-7.416 10.306-11.588.498-.801.977-2.531-.675-3.831z" fill="#fff" fill-rule="evenodd"/>
  <path d="M238.834 120.65c-1.248-2.868 1.872-3.93 2.34-1.885 2.167 9.42 7.358 16.554 11.31 22.96 1.188 2.003.235 3.197-2.658 1.354-2.002-1.376-4.036-6.383-5.02-6.58-1.784-.33-6.05 8.134-14.777 5.72-2.26-.633-2.11-7.347-2.153-10.31-.095-1.39 1.44-1.76 1.493.137.08 2.734-.003 8.413 3.494 8.604 2.852.16 9.167-3.87 10.5-7.022 1.184-3.24-3.182-9.68-4.53-12.98z" fill="#fff" fill-rule="evenodd" stroke="#000" stroke-width=".973" transform="matrix(.93752 0 0 .9375 80.002 0)"/>
  <path d="M281.47 112.472c.62.028 2.321 2.231 2.21 2.921-.076.325-1.82-.047-2.35-.499-.395-.333-.235-2.44.142-2.423zm-8.2 15.963c-1.555.848.246 2.522 1.41 1.815 4.369-2.83 10.928-5.803 12.299-11.407.44-1.898 2.203-4.81 3.879-5.458 1.618-.628 3.969 2.929 5.503.131.9-1.6 4.053 1.05 4.814-.663.928-2.067.485-3.206.525-5.184-.069-1.297-1.06-1.685-1.779.415-.375.951.066 1.911-.239 2.407-.232.378-.954.742-1.373.427-.388-.29-.12-1.1-1.047-1.457-.36-.18-.937-.33-1.188.13-1.1 1.962-1.709 3.792-3.249 1.707-1.373-1.796-2.067-4.901-3.073-.652-.362 1.5-2.641 3.675-3.985 3.675-1.678 0-1.256-4.419-4.946-3.747-1.896.405-1.764 4.032-1.481 5.372.465 1.864 6.004.525 5.728 1.744-.947 4.233-6.822 8.257-11.802 10.744zm30.644-15.326c-1.17-2.688 1.755-3.684 2.194-1.767 2.031 8.831 6.898 15.52 10.603 21.525 1.114 1.878.22 2.997-2.492 1.27-1.877-1.29-3.784-5.985-4.706-6.17-1.673-.309-5.672 7.626-13.854 5.363-2.119-.593-1.978-6.888-2.018-9.665-.09-1.303 1.35-1.65 1.4.128.074 2.563-.003 7.887 3.275 8.066 2.674.15 8.594-3.628 9.844-6.583 1.11-3.037-2.983-9.075-4.247-12.168zm4.909-5.547c.461-.963 3.232-2.053 3.937-2.704.655-.67.966.563.688 1.147-.462.963-2.854 2.59-3.903 2.634-.565.023-1.003-.496-.722-1.078zm6.568.31c.6-1.69 2.536-4.257 3.868-5.1.685-.432 1.913-.091 1.682.557-.509 1.435-2.878 3.943-4.47 5.124-.484.431-1.219-.188-1.08-.581zm-5.638 4.234c-.401.2-.185 1.056.202 1.185.824.274 2.32.328 3-.047.985-.607.537-4.344-.782-2.348-.885 1.23-1.531.834-2.42 1.21zm19.962-1.204c.867-.765 1.31-2.044 2.219-2.822.5-.5 1.294.098 1.162 1.303-.112.947-1.384 1.765-2.24 2.478-.698.522-1.51-.605-1.14-.96zm9.872-3.52c1.29-.144 1.61 2.346.2 2.749-.856.286-1.603-2.604-.2-2.75zm-3.248 7.698c-.02 2.144 1.038 1.947 3.056 1.875 1.962-.075 3.685.05 3.678-1.887-.009-2.01-1.11-3.765-1.434-2.4-.284 1.284-.511 3.384-1.256 2.47-.705-.788-.426-.96-1.637.331-.672.71-.748-.347-1.153-1.009-.28-.393-1.253.317-1.255.617zm-14.087 10.948c-.482 2.838-.04 6.81 1.412 6.855 1.796.058 5.51-6.203 7.27-9.452 1.054-1.812 2.866-2.128 2.11-.238-1.143 2.919-1.04 9.161-.037 10.995.541.988 4.528-.905 5.173-2.313 1.171-2.56.219-7.273.63-10.153.198-1.89 1.928-2.284 1.837-.532-.172 3.133-.469 8.88-.248 11.49.13 1.5 4.421 3.714 5.11-.83.365-2.858 1.837-5.68-.07-8.85-1.183-1.98 1.734-1.73 3.307.976 1.101 1.841-.928 4.889-.856 7.247.185 3.623-2.634 5.681-4.68 5.725-1.828.038-3.019-2.21-4.519-2.24-1.66-.107-3.37 2.587-4.743 2.49-5.326-.364-2.506-8.147-4.127-8.241-1.805-.107-3.932 7.626-6.155 7.35-2.19-.263-4.458-6.302-3.546-8.858.825-2.379 2.38-2.936 2.135-1.425z" fill="#fff" fill-rule="evenodd"/>
  <path d="M348.035 113.747c-2.597-1.584.164-5.705 1.434-4.256 2.453 2.936 4.925 9.907 6.653 10.483 1.097.365 1.045-5.153 1.819-7.661.497-1.854 2.737-1.247 2.309 1.125-.147.794-2.927 9.809-2.713 10.165 1.925 3.853 3.834 7.762 5.038 11.897.499 1.78-1.64.58-1.898.21-1.369-2.044-3.76-9.853-3.76-9.497-1.1 5.494-1.359 7.115-2.527 11.786-.356 1.495-2.56 1.223-2.062-1.413.478-2.165 3.628-12.82 3.45-13.128-2.475-4.368-4.74-7.828-7.744-9.712z" fill="#fff" fill-rule="evenodd"/>
  <path d="M352.724 139.093c-.724-.082-1.847 1.61 1.759 2.276 4.82.872 10.097-.75 11.715-5.477 1.85-5.63 3.075-10.96 4.041-12.972 1.21-2.343 2.754-2.154 1.613-5.576-.804-2.462-2.307-1.72-2.622-.403-.844 3.59-4.04 15.2-5.039 17.339-1.884 3.903-5.68 5.447-11.47 4.816z" fill="#fff" fill-rule="evenodd"/>
  <path d="M362.377 120.572c-.516-1.106-1.72-.25-1.506.962.129 1.095 1.017 1.69 1.91 1.66 1.056-.038 3.29.035 3.296-1.72.004-1.232-.965-2.261-1.683-.901-.689 1.233-1.574 1.103-2.016 0zm1.205-4.634c-.37.257-.038 1.627.403 1.612 1.575-.052 3.806-.555 5.002-1.387.35-.244.204-1.07-.295-1.054-1.519.05-3.936.01-5.112.829zm13.374 3.448c1.14-1.781 4.287-1.963 3.155.581-.802 1.753-8.634 16.885-9.703 18.808-1.166 2.164-2.119 1.093-1.292-.592 1.116-2.169 7.481-18.27 7.838-18.797zm2.556 11.678c.041-.33-1.7-.48-1.614 1.21.06 1.25 1.556 1.59 1.814 1.412 2.353-1.712-.5-.86-.2-2.622z" fill="#fff" fill-rule="evenodd"/>
  <path d="M327.702 160.082c.696-1.94 9.96-17.49 11.177-20.91.62-1.65 3.28 2.83.683 5.245-2.28 2.053-9.01 13.09-10.266 16.957-.578 1.746-2.332.915-1.596-1.292z" fill="#fff" fill-rule="evenodd" stroke="#000" stroke-width=".973" transform="matrix(.93752 0 0 .9375 80.002 0)"/>
  <path d="M376.08 137.906c-.463.109-.888 1.588.203 1.673.998.071 4.908-.349 5.99-.285.698-.026.965-1.362-.535-1.292-1.816.092-4.205-.364-5.657-.096zm11.15 12.17c.652-1.818 9.337-16.396 10.478-19.602.582-1.547 3.076 2.653.64 4.917-2.137 1.925-8.446 12.272-9.624 15.897-.542 1.637-2.186.858-1.496-1.211z" fill="#fff" fill-rule="evenodd"/>
  <path d="M343.428 145.25c1.71-6.41 5.854.99 2.205 4.64-5.635 5.518-7.332 16.054-16.27 17.64-2.41.518-6.652-1.084-7.91-1.977-.49-.35.318-2.638 1.825-1.52 2.178 1.7 6.676 2.084 9.05.15 5.08-4.985 9.216-11.588 11.1-18.932z" fill="#fff" fill-rule="evenodd" stroke="#000" stroke-width=".973" transform="matrix(.93752 0 0 .9375 80.002 0)"/>
  <path d="M401.973 136.172c1.603-6.01 5.489.928 2.067 4.35-5.282 5.173-6.873 15.05-15.253 16.537-2.26.486-6.236-1.016-7.416-1.853-.46-.328.298-2.473 1.711-1.425 2.042 1.594 6.26 1.954 8.485.14 4.762-4.673 8.64-10.863 10.406-17.748zm-80.177 17.81c-1.772.358-1.469 2.634-.95 2.915.858.4 2.185.568 2.682-2.048.231-1.076.44 5.344 2.797 2.869 1.355-1.498 4.715.271 6.122-1.613 1.006-1.254 1.317-2.13.532-3.984-.228-.563-1.607-.286-1.528 1.081.068 1.154-.819 2.577-1.972 2.335-.56-.103.316-2.822-.246-3.559-.31-.405-.781-.36-1.088.06-.434.586.433 3.192-.988 3.535-1.794.413-.853-1.743-1.612-2.137-2.443-1.231-2.678.319-3.75.546zm13.812-4.379c1.298-.365.893-.365 2.934-2.039.797-.602.953 1.161.87 1.858-.149 1.185-1.555.347-1.991 1.39-.64 1.355-.38 4.504-.593 5.785-.145.66-1.2.604-1.304.085-.3-1.566.216-3.096.166-5.052-.016-.665-.965-1.706-.08-2.03zm-6.094-7.044c-.314 1.416-.29 2.582-.29 3.553.072.784 1.505.279 1.5.178-.07-1.243.211-2.962-.155-3.44-.2-.26-.982-.557-1.055-.29zm-15.783 4.014c-2.213 1.934-4.263 2.725-6.298 5.17-.831 1-.808 2.396-1.305 3.675-.496 1.354-2.1 1.622-2.597 1.338-.83-.546-.708-3.06-1.636-1.707-.784 1.247-1.293 2.963-2.456 2.941-1.05-.021-3.032-2.17-2.027-2.275 3.441-.352 3.398-3.105 4.686-3.286 1.446-.193 1.54 2.273 2.433 1.78.701-.36 1.031-3.233 1.79-4.008 2.335-2.384 4.18-3.643 6.559-5.395 1.203-.956 2.062.775.853 1.768z" fill="#fff" fill-rule="evenodd"/>
  <path d="M314.898 149.53c-.378.434-1.533.363-1.637.972-.454 2.26 0 3.406-.497 5.583-.478 2.086-1.924 2.166-1.825.466.131-2.203 1.947-5.312.664-5.525-.854-.201-1.513-1.343-.629-1.907 1.667-1.157 2.563-.98 3.71-.632.4.122.503.71.215 1.043z" fill="#fff" fill-rule="evenodd"/>
  <path d="M238.133 347.453c.815 1.812 2.007 1.732 1.828-.002-.345-2.22-1.016-5.29-1.396-7.955-.216-2.258-2.55-1.822-1.935.537.78 2.547.614 5.34 1.504 7.423zm6.987.117c-.01.918 1.413.834 1.4.108-.148-2.31-.324-5.432.32-6.56.503-.878 2.53-.258 4.41-.43.748-.11.593-2.17-.968-2.04-1.84.165-6.696-.433-6.99 1.288-.422 3.095 1.914-.185 1.828 7.633zm14.09-8.934c1.18.848 1.015 1.952-.43 1.61-1.72-.43-2.88-.29-2.856.653.025.927.75 1.11 1.808 2.137 1.012 1.06-.62.888-1.872 3.06-1.067 1.798 1.11 2.036 3.674 1.355.654-.187 1.513.938-.107 1.862-1.14.61-4.318 1.355-5.11-.952-1.5-3.99 2.514-4.542.823-5.605-.923-.557-1.256-1.395-1.088-2.51.358-2.568 4.184-2.227 5.16-1.612zm5.295 8.797c1.548-2.824 2.614-4.94 3.046-7.337.378-2.165 1.933-2.373 2.26-.538.42 2.437 1.816 4.852 3.51 7.065.992 1.373-1.005 2.58-1.79 1.513-1.438-1.826-1.498-4.37-2.347-4.352-.98.02-2.09 2.836-3.135 4.914-.304.604-2.16-.002-1.542-1.265z" fill="#fff" fill-rule="evenodd" stroke="#000" stroke-width=".973" transform="matrix(.93752 0 0 .9375 80.002 0)"/>
  <path d="M303.257 325.737c.764 1.699 1.881 1.624 1.714-.002-.324-2.08-.953-4.96-1.31-7.457-.202-2.117-2.39-1.709-1.813.503.73 2.388.575 5.006 1.41 6.959zm6.55.11c-.01.86 1.325.782 1.313.101-.139-2.165-.304-5.092.3-6.15.471-.823 2.372-.242 4.134-.403.702-.103.556-2.034-.907-1.912-1.725.154-6.278-.406-6.554 1.207-.395 2.902 1.795-.173 1.714 7.156zm13.21-8.376c1.106.795.952 1.83-.403 1.51-1.613-.404-2.7-.272-2.678.612.024.869.703 1.04 1.695 2.003.95.994-.581.833-1.755 2.869-1 1.686 1.04 1.909 3.445 1.27.613-.175 1.418.88-.1 1.746-1.07.572-4.049 1.27-4.791-.893-1.407-3.74 2.357-4.258.771-5.254-.865-.522-1.177-1.308-1.02-2.353.336-2.408 3.923-2.088 4.838-1.512zm4.964 8.247c1.451-2.647 2.45-4.63 2.856-6.878.354-2.03 1.812-2.225 2.119-.504.393 2.284 1.702 4.548 3.29 6.623.93 1.287-.942 2.419-1.678 1.419-1.348-1.712-1.404-4.097-2.2-4.08-.919.018-1.96 2.658-2.94 4.606-.284.567-2.024-.001-1.445-1.186zm125.485-77.11c-.103.544 1.363 1.344 1.712.928 1.577-1.889 3.64-5.597 4.063-7.841.125-.653-1.975-1.392-2.425-.856-1.476 1.768-2.906 5.412-3.35 7.77z" fill="#fff" fill-rule="evenodd"/>
</svg>
