<svg xmlns="http://www.w3.org/2000/svg" viewBox="0 0 512 512" height="480" width="640">
  <g fill-rule="evenodd" stroke-width="1pt">
    <path d="M-85.333 0h682.65v512h-682.65z"/>
    <path fill="#090" d="M369.762 0h227.555v512H369.762z"/>
    <path fill="#bf0000" d="M142.22 0h227.556v512H142.22z"/>
  </g>
  <path d="M398.352 265.182c-.11.58 1.454 1.433 1.826.99 1.682-2.015 3.883-5.97 4.334-8.364.133-.697-2.107-1.485-2.586-.913-1.575 1.886-3.1 5.773-3.574 8.287zM188.016 387.838c-1.675 5.917-26.38-5.577-29.138-11.532 14.136 7.49 29.476 5.924 29.138 11.532zM109.91 266.973c1.236 1.47 3.318.485 1.42-1.504-1.552-1.61-1.04-2.117-1.987-4.075-.936-2.188-.887-3.395-2.016-4.96-1-1.482-2.5.03-1.495 1.28 1.263 1.476.915 2.564 1.687 3.992 1.426 2.444 1.08 3.727 2.39 5.265zm33.224 40.113c3.974 1.954 6.99 6.836 7.19 10.812.336 4.576.996 8.44 3.05 11.69-3.27-.91-4.837-6.124-5.302-11.118-.47-5.17-3.256-7.41-4.938-11.384zm8.29 9.576c2.75 5.077 6.597 7.013 6.794 10.78.333 4.335.662 4.557 1.837 8.82-3.237-.863-4.052-1.145-4.926-7.632-.54-4.56-4.19-7.775-3.706-11.968z" fill-rule="evenodd" stroke="#000" stroke-width=".973" fill="#fff"/>
  <path stroke-linejoin="round" d="M215.673 343.95c4.208 3.446 6.938 7.382 8.21 12.467 1.328 4.738 3.195 8.515 5.933 12.774-4.46-3.04-7.265-7.18-8.668-12.165-1.232-4.9-2.686-8.563-5.475-13.075zm78.767 0c-4.302 3.466-7.093 7.425-8.394 12.54-1.357 4.766-3.265 8.566-6.064 12.85 4.56-3.06 7.427-7.223 8.86-12.24 1.26-4.928 2.746-8.613 5.597-13.15zm-5.295 0c-4.61 3.62-8.958 7.732-10.26 12.848-1.356 4.765-2.176 8.412-5.285 13.154 4.87-3.06 6.804-7.682 8.238-12.698 1.26-4.928 4.146-8.612 7.308-13.305zm-52.12 19.676c1.544 2.914 3.32 7.35 6.536 6.538.053-2.23-3.47-3.776-6.535-6.538zm4.805.994c6.25 2.56 11.645 1.928 12.317 5.855-5.86.633-8.005-1.775-12.316-5.856zm30.636-.604c-1.567 2.746-3.366 6.928-6.627 6.163-.054-2.105 3.517-3.56 6.625-6.165zm-4.38.836c-6.34 2.43-11.813 1.83-12.496 5.558 5.948.6 8.123-1.684 12.496-5.558z" fill-rule="evenodd" stroke="#000" stroke-width=".973" fill="#fff"/>
  <path d="M273.867 355.958c.124-.89-.482-1.666-1.21-1.9-1.42-.533-2.83-.967-4.237-1.368-1.6-.38-2.494.767-2.5 1.52-.007 1.254-.065 2.318 0 3.268.088 1.183.312 1.27 1.06 1.446 1.197.202 2.732.41 3.935 1.216.953.588 1.87.123 2.345-.91.308-.79.477-2.336.607-3.272zm-17.225 0c-.11-.89.357-1.742 1.007-1.976 1.265-.533 2.527-.663 3.86-.61 1.476-.022 1.85.313 1.853 1.066.008 1.253.06 2.47 0 3.42-.078 1.183-.052 1.27-.72 1.446-1.07.202-2.893.256-3.968 1.064-.852.588-1.823.123-1.87-.987.022-.834-.048-2.485-.164-3.42zm-20.902-.234c-.126-.89.484-1.666 1.215-1.9 1.425-.533 2.844-.967 4.257-1.368 1.606-.38 2.505.767 2.51 1.52.008 1.254.067 2.32 0 3.268-.087 1.184-.313 1.27-1.064 1.446-1.203.203-2.744.41-3.953 1.217-.957.588-1.878.123-2.357-.91-.31-.79-.48-2.337-.61-3.273zm17.302 0c.11-.89-.36-1.742-1.012-1.975-1.273-.535-2.54-.666-3.878-.61-1.485-.025-1.86.31-1.864 1.063-.008 1.254-.06 2.47 0 3.42.078 1.183.052 1.27.724 1.446 1.074.2 2.907.256 3.987 1.064.853.587 1.83.122 1.875-.987-.02-.837.05-2.488.166-3.424zM185.47 238.518c-2.012-3.23-4.42 4.48-12.69 10.216-3.85 2.62-6.53 9.6-6.556 14.195-.127 3.153.35 6.3-.002 9.352-.222 1.93-2.234 6.216-.858 7.312 3.64 2.705 8.35 8.848 10.537 10.967 1.89 1.658 3.53-8.55 4.947-13.117 1.52-4.895.84-10.745 5.055-15.27 2.99-3.052 10.525-6.057 9.678-7.418l-10.11-16.238z" fill-rule="evenodd" stroke="#000" stroke-width=".973" fill="#fff"/>
  <path d="M185.47 238.518c-2.012-3.23-4.42 4.48-12.69 10.216-3.85 2.62-6.53 9.6-6.556 14.195-.127 3.153.35 6.3-.002 9.352-.222 1.93-2.234 6.216-.858 7.312 3.64 2.705 8.35 8.848 10.537 10.967 1.89 1.658 3.53-8.55 4.947-13.117 1.52-4.895.84-10.745 5.055-15.27 2.99-3.052 10.525-6.057 9.678-7.418l-10.11-16.238z" fill-rule="evenodd" fill="#fff"/>
  <path d="M173.246 248.074c-.788 5.468 2.256 7.287 5.13 8.346 2.973 1.057 5.41 4.247 6.667 7.133m-19.156 2.524c1.255 4.714 4.558 4.124 7.43 5.183 2.975 1.057 6.102 4.817 7.358 7.703" stroke="#000" stroke-width=".487" fill="none"/>
  <path d="M182.686 235.19l1.506-.967 28.922 48.71-1.504.967-28.924-48.71z" fill-rule="evenodd" stroke="#000" stroke-width=".973" fill="#fff"/>
  <path d="M182.686 235.19l1.506-.967 28.922 48.71-1.504.967-28.924-48.71z" fill-rule="evenodd" fill="#fff"/>
  <path d="M185.8 233.263c0 1.84-1.493 3.333-3.333 3.333s-3.334-1.492-3.334-3.333 1.493-3.333 3.334-3.333c1.84 0 3.333 1.492 3.333 3.333z" fill-rule="evenodd" stroke="#000" stroke-width=".973" fill="#fff"/>
  <path d="M185.8 233.263c0 1.84-1.493 3.333-3.333 3.333s-3.334-1.492-3.334-3.333 1.493-3.333 3.334-3.333c1.84 0 3.333 1.492 3.333 3.333z" fill-rule="evenodd" fill="#fff"/>
  <path d="M274.79 144.77c-1.033-1.66-2.27 2.3-6.52 5.25-1.977 1.345-3.355 4.932-3.368 7.292-.065 1.62.18 3.238 0 4.806-.115.992-1.15 3.194-.442 3.757 1.87 1.39 4.29 4.546 5.414 5.635.97.85 1.812-4.393 2.54-6.74.782-2.515.432-5.52 2.598-7.845 1.535-1.57 5.407-3.113 4.972-3.812l-5.194-8.343z" fill-rule="evenodd" transform="matrix(-1.9453 0 0 2.0144 859.49 -52.133)" stroke="#000" stroke-width=".492" fill="#fff"/>
  <path d="M324.944 239.495c2.01-3.342 4.415 4.635 12.68 10.574 3.85 2.71 6.53 9.935 6.555 14.69.124 3.264-.353 6.522 0 9.68.22 2 2.233 6.434.857 7.57-3.637 2.8-8.347 9.156-10.53 11.35-1.89 1.714-3.526-8.85-4.944-13.578-1.52-5.066-.84-11.12-5.052-15.803-2.985-3.16-10.517-6.27-9.67-7.68l10.103-16.806z" fill-rule="evenodd" fill="#fff"/>
  <path d="M273.36 143.06l.774-.497 14.86 25.027-.773.497-14.86-25.027z" fill-rule="evenodd" transform="matrix(-1.9453 0 0 2.0144 859.49 -52.133)" stroke="#000" stroke-width=".492" fill="#fff"/>
  <path d="M268.43 149.76c-.405 2.81 1.237 3.665 2.713 4.21 1.528.542 2.86 2.063 3.504 3.546" transform="matrix(-1.9453 0 0 2.0144 859.49 -52.133)" stroke="#000" stroke-width=".25" fill="none"/>
  <path d="M267.35 151.26c.645 2.422 2.264 2.005 3.74 2.55 1.528.542 3.135 2.32 3.78 3.802" transform="matrix(-1.9453 0 0 2.0144 864.433 -36.44)" stroke="#000" stroke-width=".25" fill="none"/>
  <path d="M327.725 236.05l-1.505-1-28.907 50.414 1.503 1 28.91-50.414z" fill-rule="evenodd" fill="#fff"/>
  <path d="M274.96 142.07c0 .946-.767 1.713-1.713 1.713-.945 0-1.712-.767-1.712-1.713s.767-1.713 1.712-1.713c.946 0 1.713.767 1.713 1.713z" fill-rule="evenodd" transform="matrix(-1.9453 0 0 2.0144 859.49 -52.133)" stroke="#000" stroke-width=".492" fill="#fff"/>
  <path d="M324.613 234.056c0 1.905 1.49 3.45 3.33 3.45s3.333-1.545 3.333-3.45-1.492-3.45-3.332-3.45c-1.84 0-3.33 1.545-3.33 3.45z" fill-rule="evenodd" fill="#fff"/>
  <g fill-rule="evenodd" fill="#fff">
    <path stroke="#000" stroke-width=".973" d="M210.515 194.123h11.72v2.688h-11.72zm0 5.08h11.72v22.456h-11.72zm-.7-8.155l13 .076c.51-4.41-3.892-9.17-6.46-9.123-2.54.125-6.64 4.818-6.54 9.05zm77.695 3.132h11.72v2.69h-11.72zm0 5.1h11.72v22.457h-11.72zm-.708-8.156l13 .076c.51-4.41-3.89-9.17-6.46-9.122-2.54.122-6.64 4.815-6.54 9.046z"/>
    <path d="M210.515 194.123h11.72v2.688h-11.72zm0 5.08h11.72v22.456h-11.72zm-.7-8.155l13 .076c.51-4.41-3.892-9.17-6.46-9.123-2.54.125-6.64 4.818-6.54 9.05zm77.695 3.132h11.72v2.69h-11.72zm0 5.1h11.72v22.457h-11.72zm-.708-8.156l13 .076c.51-4.41-3.89-9.17-6.46-9.122-2.54.122-6.64 4.815-6.54 9.046z"/>
  </g>
  <path fill-rule="evenodd" fill="#fff" d="M287.51 199.28h11.72v22.457h-11.72zm0-5.1h11.72v2.69h-11.72zm-.7-3.054l13 .076c.51-4.41-3.89-9.17-6.46-9.123-2.54.12-6.64 4.813-6.54 9.045zm-76.295 8.077h11.72v22.456h-11.72zm0-5.08h11.72v2.688h-11.72zm-.7-3.075l13 .076c.51-4.41-3.892-9.17-6.46-9.123-2.54.125-6.64 4.818-6.54 9.05z"/>
  <g fill-rule="evenodd" fill="#fff">
    <path d="M200.764 225.478l7.452 8.21 92.757.153 7.604-8.21-23.72-.303-11.558-8.06-37.258-.15-10.797 8.362h-24.482z" stroke="#000" stroke-width=".973"/>
    <path d="M200.764 225.478l7.452 8.21 92.757.153 7.604-8.21-23.72-.303-11.558-8.06-37.258-.15-10.797 8.362h-24.482z"/>
  </g>
  <path d="M238.736 212.808l32.03-.034c4.337-2.292 5.69-9.614 5.668-13.71-.06-12.103-8.525-17.907-17.02-18.217-1.273-.064-2.75-1.055-3.087-2.215-.837-2.627-.62-9.468-1.538-9.375-.817-.012-.578 6.697-1.304 9.16-.4 1.228-1.777 2.436-3.15 2.506-10.575.528-17.395 8.247-17.128 18.14.178 6.54.94 10.447 5.526 13.745z" stroke="#000" stroke-width=".973" fill="none"/>
  <path d="M238.736 212.808l32.03-.034c4.337-2.292 5.69-9.614 5.668-13.71-.06-12.103-8.525-17.907-17.02-18.217-1.273-.064-2.75-1.055-3.087-2.215-.837-2.627-.62-9.315-1.538-9.375-.663.064-.578 6.697-1.304 9.16-.4 1.228-1.777 2.436-3.15 2.506-10.575.528-17.395 8.247-17.128 18.14.178 6.54.94 10.447 5.526 13.745z" fill-rule="evenodd" fill="#fff"/>
  <path d="M236.732 202.142c.807 3.988 2.728 3.377 2.586 1.446-.473-6.16.026-12.227 5.473-16.27 1.73-1.266-.2-2.434-1.67-1.825-4.632 1.948-7.446 10.88-6.387 16.65z" stroke="#000" stroke-width=".487" fill="none"/>
  <path d="M242.12 204.654c.808 3.988 4.107 3.815 3.5 1.218-1.236-4.973-1.04-12.226 3.343-15.358 1.73-1.26-.202-2.433-1.672-1.824-4.63 1.95-6.23 10.195-5.17 15.964z" stroke="#000" stroke-width=".487" fill="none"/>
  <path d="M301.46 125.42c.415 2.05 1.402 1.735 1.33.743-.244-3.165.012-6.282 2.81-8.36.888-.65-.103-1.25-.858-.937-2.38 1-3.826 5.59-3.282 8.554z" transform="matrix(-1.9484 0 0 1.9463 860.365 -41.81)" stroke="#000" stroke-width=".25" fill="none"/>
  <path d="M302.08 125.07c.415 2.05 2.11 1.96 1.798.626-.635-2.555-.534-6.282 1.718-7.89.89-.648-.104-1.25-.86-.938-2.38 1-3.2 5.238-2.656 8.202z" transform="matrix(-1.9484 0 0 1.9463 856.18 -38.618)" stroke="#000" stroke-width=".25" fill="none"/>
  <g fill-rule="evenodd" fill="#fff">
    <path d="M186.01 330.247h137.62l-12.32-10.037H198.327l-12.316 10.037z" stroke="#000" stroke-width=".973"/>
    <path d="M186.01 330.247h137.62l-12.32-10.037H198.327l-12.316 10.037z"/>
  </g>
  <g fill="#fff" fill-rule="evenodd">
    <g stroke="#000" stroke-width=".5">
      <path d="M209.892 239.94h13.077v18.094h-13.08zm.758 28.434h12.623v3.802H210.65zm-.29 6.676h12.925v14.142H210.36zm-.916 17.03h14.142v7.908h-14.142zm1.732-27.112h11.395l2.26-3.762h-15.697l2.044 3.762zm15.376-13.858l.107-9.89h7.85c-3.085 2.543-5.95 5.626-7.96 9.89zm72.888-11.17h-12.856v18.094h12.857zm-.213 28.434H286.82v3.802h12.407zm.233 6.676h-12.635v14.142h12.636zm.818 17.03h-13.902v7.908h13.902z" stroke-width=".973"/>
      <path d="M288.44 157.7h5.855l1.16-1.933h-8.065l1.05 1.933z" transform="matrix(-1.9134 0 0 1.9463 850.108 -41.963)"/>
      <path d="M296.23 150.58l.055-5.082h4.033c-1.584 1.307-3.057 2.89-4.088 5.082z" transform="matrix(-1.9134 0 0 1.9463 849.894 -41.963)"/>
    </g>
    <path d="M209.892 239.94h13.077v18.094h-13.08zm.758 28.434h12.623v3.802H210.65zm-.29 6.676h12.925v14.142H210.36zm-.916 17.03h14.142v7.908h-14.142zm1.732-27.112h11.395l2.26-3.762h-15.697l2.044 3.762zm15.376-13.858l.107-9.89h7.85c-3.085 2.543-5.95 5.626-7.96 9.89zm72.888-11.17h-12.856v18.094h12.857zm-.213 28.434H286.82v3.802h12.407zm.233 6.676h-12.635v14.142h12.636zm.818 17.03h-13.902v7.908h13.902zm-2.084-27.112H286.99l-2.22-3.762h15.433l-2.01 3.762zm-15.12-13.858l-.106-9.89h-7.716c3.03 2.543 5.85 5.626 7.822 9.89z"/>
  </g>
  <path d="M211.916 255.16c.078 2.115 2.474 1.17 2.474.106 0-3.264.043-6.793-.088-9.103-.015-1.703 4.058-1.277 4.035-.228.016 2.756.047 6.536.062 9.76-.03 1.572 2.63 1.436 2.593 0-.016-3.6-.018-8.837 0-11.488.023-3.414-8.963-3.34-9.033-.076.005 2.68-.048 7.48-.044 11.03zm76.944.38c.077 2.115 2.473 1.17 2.473.106 0-3.264.043-6.792-.087-9.103-.016-1.703 4.058-1.276 4.034-.227.016 2.756.047 6.535.062 9.76-.03 1.57 2.554 1.435 2.52 0-.017-3.678.057-8.838.075-11.49.023-3.413-8.963-3.34-9.033-.075.004 2.68-.05 7.48-.045 11.03zm-76.91 21.184h9.276v11.557h-9.276z" stroke="#000" stroke-width=".487" fill="none"/>
  <path fill-rule="evenodd" d="M217.886 281.512h3.27v1.9h-3.27zm-5.703 0h3.194v1.9h-3.194z"/>
  <path fill-rule="evenodd" d="M215.375 276.88h2.51v4.714h-2.51zm0 6.46h2.51v5.02h-2.51z"/>
  <path stroke="#000" stroke-width=".487" fill="none" d="M288.59 276.648h9.275v11.557h-9.276z"/>
  <path fill-rule="evenodd" d="M294.525 281.436h3.27v1.9h-3.27zm-5.703 0h3.194v1.9h-3.194z"/>
  <path fill-rule="evenodd" d="M292.014 276.804h2.51v4.714h-2.51zm0 6.46h2.51v5.02h-2.51z"/>
  <path fill-rule="evenodd" stroke="#000" stroke-width=".973" fill="#fff" d="M280.154 277.327h1.596v11.482h-1.596z"/>
  <path d="M249.13 292.547l2.508 7.527h5.7l-4.56-7.53-3.648.003zm-3.192 7.527l1.444 7.45 6.69.076-2.434-7.528-5.7.002zm11.327.076l4.638 7.374h9.504l-7.45-7.452-6.692.078zm-56.112 16.878c5.043-4.69 8.262-8.692 8.288-14.445h12.318c.025 3.22 1.19 5.144 2.966 5.017l12.47-.076-.076-7.374h-9.048l-.003-40.223c-.33-14.217 17.285-22.505 24.484-22.43l-42.805-.075v-1.292h90.022l.076 1.292-43.414.076c12.874.026 25.29 12.217 25.394 22.507v11.404h-1.673l-.075-11.254c0-11.253-14.173-21.77-25.547-21.442-9.835.282-25.09 9.657-24.938 21.366v3.5l23.34.15-.227 4.03 3.665 2.34 7.31 2.33-.107 6.042 5.238 1.543.044 6.038 6.282 2.695v6.25l3.984 2.454-.183 6.347 5.4 3.8H271.56l7.983 8.896H267.76l-5.86-8.896h-7.753l3.498 8.82-8.286-.077-1.98-8.743h-10.11l.074 9.426-36.192.002zm36.116-24.407v7.453h8.667l-1.752-7.45h-6.917z" fill-rule="evenodd" stroke="#000" stroke-width=".973" fill="#fff"/>
  <path d="M249.13 292.547l2.508 7.527h5.7l-4.56-7.53-3.648.003zm-3.192 7.527l1.444 7.45 6.69.076-2.434-7.528-5.7.002zm11.327.076l4.638 7.374h9.504l-7.45-7.452-6.692.078zm-56.112 16.878c5.043-4.69 8.262-8.692 8.288-14.445h12.318c.025 3.22 1.19 5.144 2.966 5.017l12.47-.076-.076-7.374h-9.048l-.003-40.223c-.33-14.217 17.285-22.505 24.484-22.43l-42.805-.075v-1.292h90.022l.076 1.292-43.414.076c12.874.026 25.29 12.217 25.394 22.507v11.404h-1.673l-.075-11.254c0-11.253-14.173-21.77-25.547-21.442-9.835.282-25.09 9.657-24.938 21.366v3.5l23.34.15-.227 4.03 3.665 2.34 7.31 2.33-.107 6.042 5.238 1.543.044 6.038 6.282 2.695v6.25l3.984 2.454-.183 6.347 5.4 3.8H271.56l7.983 8.896H267.76l-5.86-8.896h-7.753l3.498 8.82-8.286-.077-1.98-8.743h-10.11l.074 9.426-36.192.002zm36.116-24.407v7.453h8.667l-1.752-7.45h-6.917z" fill-rule="evenodd" fill="#fff"/>
  <path stroke="#000" stroke-width=".483" fill="none" d="M237.724 279.468h5.4v12.392h-5.4z"/>
  <path d="M298.05 171.73h2.707l-.017-4.594c-.035-1.997 1.793-4.01 2.668-4.077.97-.038 2.4 1.883 2.448 3.92l.04 4.764 2.87-.006v-11.83l-10.716.056v11.764z" transform="matrix(1.9463 0 0 1.9848 -350 -48.13)" stroke="#000" stroke-width=".25" fill="none"/>
  <path stroke="#000" stroke-width=".481" fill="none" d="M271.784 298.172h6.54v5.094h-6.54zm-3.874-8.758h6.54v5.093h-6.54zm-6.305-8.74h6.54v5.094h-6.54zm-5.41-7.374h6.54v5.092h-6.54z"/>
  <path d="M251.874 292.762l6.69.227 11.936 10.567v-6.234l-4.03-2.89v-4.942l-5.853-3.343v-5.323l-5.703-1.9V271.7l-2.89-2.356-.15 23.418z" stroke="#000" stroke-width=".487" fill="none"/>
  <path fill-rule="evenodd" fill="#fff" d="M280.154 277.327h1.596v11.482h-1.596z"/>
  <g stroke-linejoin="round" fill-rule="evenodd" stroke="#000" stroke-width=".973" fill="#fff">
    <path d="M163.755 161.05c.58 9.07-2.235 14.048-7.038 13.29-1.324-5.03 1.687-8.406 7.038-13.29zm-10.56 20.086c-4.27-2.172-1.19-18.756.45-25.708 1.213 8.955 3.24 21.683-.45 25.708z"/>
    <path d="M154.723 181.93c7.178 2.497 12.86-5.233 14.782-14.186-5.924 8.176-15.566 8.186-14.782 14.186zm-5.447 8.36c-5.613-1.483-2.232-19.078-1.212-26.116 1.234 7.27 5.103 23.708 1.212 26.116zm1.917-.54c.314-6.067 6.363-4.314 10.538-7.553-.68 3.033-3.247 8.407-10.536 7.554zm-6.87 8.128c-5.562-1.5-2.22-20.436-2.534-28.233 1.63 6.736 6.793 26.407 2.532 28.233zm2.607-.828c4.557 1.48 10.593-1.48 11.068-6.905-3.924 2.662-10.19.626-11.067 6.905z"/>
    <path d="M140.168 206.236c-5.32.425-2.94-15.702-2.935-30.722 1.954 14.04 7.277 26.89 2.935 30.722z"/>
    <path d="M142.017 205.51c3.593 1.8 10.03-1.08 11.866-7.148-6.49 2.822-10.83.064-11.866 7.147z"/>
  </g>
  <g fill-rule="evenodd" fill="#fff">
    <path d="M163.755 161.05c.58 9.07-2.235 14.048-7.038 13.29-1.324-5.03 1.687-8.406 7.038-13.29zm-10.56 20.086c-4.27-2.172-1.19-18.756.45-25.708 1.213 8.955 3.24 21.683-.45 25.708z"/>
    <path d="M154.723 181.93c7.178 2.497 12.86-5.233 14.782-14.186-5.924 8.176-15.566 8.186-14.782 14.186zm-5.447 8.36c-5.613-1.483-2.232-19.078-1.212-26.116 1.234 7.27 5.103 23.708 1.212 26.116zm1.917-.54c.314-6.067 6.363-4.314 10.538-7.553-.68 3.033-3.247 8.407-10.536 7.554zm-6.87 8.128c-5.562-1.5-2.22-20.436-2.534-28.233 1.63 6.736 6.793 26.407 2.532 28.233zm2.607-.828c4.557 1.48 10.593-1.48 11.068-6.905-3.924 2.662-10.19.626-11.067 6.905z"/>
    <path d="M140.168 206.236c-5.32.425-2.94-15.702-2.935-30.722 1.954 14.04 7.277 26.89 2.935 30.722z"/>
    <path d="M142.017 205.51c3.593 1.8 10.03-1.08 11.866-7.148-6.49 2.822-10.83.064-11.866 7.147z"/>
  </g>
  <g stroke-linejoin="round" fill-rule="evenodd" stroke="#000" stroke-width=".973" fill="#fff">
    <path d="M183.773 169.444c-.946 7.867-4.16 12.445-8.965 11.687-1.323-5.03 2.57-8.244 8.965-11.685zm-12.71 20.203c7.98 1.132 10.855-4.993 16.227-12.823-7.53 5.448-16.53 6.58-16.227 12.823z"/>
    <path d="M168.806 188.732c-4.35-5.22-.146-11.775 3.178-17.363-.714 8.31 2.118 12.935-3.178 17.36zm-1.926 8.622c-.492-5.105 8.206-6.24 12.14-9.078-1.324 2.95-3.328 10.894-12.14 9.078z"/>
    <path d="M165.05 197.47c-6.015-.68-3.518-10.893.793-16.568-1.815 7.832 3.177 13.277-.794 16.57z"/>
    <path d="M160.514 205.976c-6.845-3.026-2.458-11.612.115-16.68-1.1 6.657 4.385 11.725-.117 16.68z"/>
    <path d="M161.877 205.178c3.593 4.69 10.592-1.4 12.028-8.51-6.09 5.07-10.59 4.236-12.028 8.51z"/>
  </g>
  <g fill-rule="evenodd" fill="#fff">
    <path d="M183.773 169.444c-.946 7.867-4.16 12.445-8.965 11.687-1.323-5.03 2.57-8.244 8.965-11.685zm-12.71 20.203c7.98 1.132 10.855-4.993 16.227-12.823-7.53 5.448-16.53 6.58-16.227 12.823z"/>
    <path d="M168.806 188.732c-4.35-5.22-.146-11.775 3.178-17.363-.714 8.31 2.118 12.935-3.178 17.36zm-1.926 8.622c-.492-5.105 8.206-6.24 12.14-9.078-1.324 2.95-3.328 10.894-12.14 9.078z"/>
    <path d="M165.05 197.47c-6.015-.68-3.518-10.893.793-16.568-1.815 7.832 3.177 13.277-.794 16.57z"/>
    <path d="M160.514 205.976c-6.845-3.026-2.458-11.612.115-16.68-1.1 6.657 4.385 11.725-.117 16.68z"/>
    <path d="M161.877 205.178c3.593 4.69 10.592-1.4 12.028-8.51-6.09 5.07-10.59 4.236-12.028 8.51z"/>
  </g>
  <g stroke-linejoin="round" fill-rule="evenodd" stroke="#000" stroke-width=".973" fill="#fff">
    <path d="M326.65 170.222c.91 4.088 1.137 12.145 8.4 10.555 1.058-7.49-5.032-7.83-8.4-10.555z"/>
    <path d="M339.01 189.53c-.263-7.717-8.585-6.016-15.77-12.37 1.967 6.694 8.925 14.865 15.77 12.37z"/>
    <path d="M340.722 188.615c4.88-3.367 1.135-10.705-3.404-17.135 1.703 7-2.04 13.427 3.404 17.135zm2.14 8.74c-7.866.604-9.265-3.33-12.367-8.397 5.37 3.48 12.557 1.286 12.368 8.396zm1.948.232c-3.747-3.065.907-9.645-.682-16.226 2.95 4.16 7.49 14.11.682 16.228z"/>
    <path d="M348.1 205.742c-7.868 1.853-10.402-2.306-12.37-9.303 6.392 5.86 9.948 3.1 12.37 9.3z"/>
    <path d="M349.228 205.645c5.484-.076 3.026-10.93.226-15.886.757 5.976-4.047 12.86-.226 15.884z"/>
  </g>
  <g fill-rule="evenodd" fill="#fff">
    <path d="M326.65 170.222c.91 4.088 1.137 12.145 8.4 10.555 1.058-7.49-5.032-7.83-8.4-10.555z"/>
    <path d="M339.01 189.53c-.263-7.717-8.585-6.016-15.77-12.37 1.967 6.694 8.925 14.865 15.77 12.37z"/>
    <path d="M340.722 188.615c4.88-3.367 1.135-10.705-3.404-17.135 1.703 7-2.04 13.427 3.404 17.135zm2.14 8.74c-7.866.604-9.265-3.33-12.367-8.397 5.37 3.48 12.557 1.286 12.368 8.396zm1.948.232c-3.747-3.065.907-9.645-.682-16.226 2.95 4.16 7.49 14.11.682 16.228z"/>
    <path d="M348.1 205.742c-7.868 1.853-10.402-2.306-12.37-9.303 6.392 5.86 9.948 3.1 12.37 9.3z"/>
    <path d="M349.228 205.645c5.484-.076 3.026-10.93.226-15.886.757 5.976-4.047 12.86-.226 15.884z"/>
  </g>
  <g stroke-linejoin="round" fill-rule="evenodd" stroke="#000" stroke-width=".973" fill="#fff">
    <path d="M345.873 161.1c.984 4.543-.917 13.513 6.344 13.443 3.037-5.132-3.435-9.96-6.344-13.443z"/>
    <path d="M356.777 181.365c4.576-3.138.452-13.44-.97-25.04-1.11 10.343-3.563 21.638.97 25.04z"/>
    <path d="M354.32 182.158c.573-5.664-8.356-6.927-14.478-14.422 1.587 6.01 6.112 14.79 14.477 14.422zm6.102 8.832c-4.81-4.36.905-16.87 1.143-26.568.745 8.95 4.677 24.98-1.143 26.567zm-2.734-1.258c-7.032.452-8.887-4.698-9.708-7.637 3.776 2.72 9.745 1.438 9.708 7.637zm7.064 7.754c5.407-.228 3.406-20.738 2.657-27.214-.537 6.89-6.176 24.72-2.66 27.214zm-2.38-.363c-4.672.713-9.41-2.002-10.694-6.642 4.035 1.757 10.707.366 10.695 6.644z"/>
    <path d="M369.094 206.01c5.788 2.357 3.71-24.387 2.962-30.56-.535 7.88-7.39 27.23-2.962 30.56z"/>
    <path d="M367.737 206.006c-5.815.864-10.097-2.686-11.76-7.554 5.935 2.213 10.555 1.427 11.76 7.554z"/>
  </g>
  <g fill-rule="evenodd" fill="#fff">
    <path d="M363.553 237.72c.716-6.985-4.635-19.687-.837-26.458.517-.93-1.137-3.4-2.206-1.9-1.67 2.39-3.386 9.207-4.104 6.69-.76-2.736-.878-7.577-3.346-8.517-1.575-.55-3.8-.91-3.194 1.522.603 2.34 1.954 5.57.458 5.78-.87.125-3.37-3.186-5.475-4.715-1.7-1.365-4.23.77-1.75 2.812 8.065 6.577 15.88 9.537 20.452 24.786z" stroke="#000" stroke-width=".973"/>
    <path d="M363.553 237.72c.716-6.985-4.635-19.687-.837-26.458.517-.93-1.137-3.4-2.206-1.9-1.67 2.39-3.386 9.207-4.104 6.69-.76-2.736-.878-7.577-3.346-8.517-1.575-.55-3.8-.91-3.194 1.522.603 2.34 1.954 5.57.458 5.78-.87.125-3.37-3.186-5.475-4.715-1.7-1.365-4.23.77-1.75 2.812 8.065 6.577 15.88 9.537 20.452 24.786z"/>
  </g>
  <g fill-rule="evenodd" fill="#fff">
    <path d="M345.873 161.1c.984 4.543-.917 13.513 6.344 13.443 3.037-5.132-3.435-9.96-6.344-13.443z"/>
    <path d="M356.777 181.365c4.576-3.138.452-13.44-.97-25.04-1.11 10.343-3.563 21.638.97 25.04z"/>
    <path d="M354.32 182.158c.573-5.664-8.356-6.927-14.478-14.422 1.587 6.01 6.112 14.79 14.477 14.422zm6.102 8.832c-4.81-4.36.905-16.87 1.143-26.568.745 8.95 4.677 24.98-1.143 26.567zm-2.734-1.258c-7.032.452-8.887-4.698-9.708-7.637 3.776 2.72 9.745 1.438 9.708 7.637zm7.064 7.754c5.407-.228 3.406-20.738 2.657-27.214-.537 6.89-6.176 24.72-2.66 27.214zm-2.38-.363c-4.672.713-9.41-2.002-10.694-6.642 4.035 1.757 10.707.366 10.695 6.644z"/>
    <path d="M369.094 206.01c5.788 2.357 3.71-24.387 2.962-30.56-.535 7.88-7.39 27.23-2.962 30.56z"/>
    <path d="M367.737 206.006c-5.815.864-10.097-2.686-11.76-7.554 5.935 2.213 10.555 1.427 11.76 7.554z"/>
  </g>
  <g fill-rule="evenodd" fill="#fff">
    <path d="M244.38 141.09c-1.017-1.062-.723-1.468.78-1.485 1.194-.075 3.558.73 4.455.078.822-.597.495-3.13.86-4.297.16-.65.615-1.673 1.64-.078 3.032 4.86 6.82 10.692 8.438 16.407.885 3.203.443 8.36-2.97 11.094l-2.42-7.034c-1.152-3.343-7.348-11.365-10.783-14.687z" transform="matrix(-1.937 0 0 1.9463 857.173 -41.533)" stroke="#000" stroke-width=".501"/>
    <path d="M383.805 233.07c1.97-2.067 1.4-2.857-1.513-2.89-2.31-.146-6.89 1.423-8.627.152-1.592-1.162-.96-6.09-1.666-8.363-.31-1.27-1.193-3.258-3.18-.154-5.872 9.457-13.207 20.81-16.343 31.933-1.715 6.233-.858 16.27 5.75 21.59l4.692-13.685c2.23-6.507 14.23-22.12 20.884-28.586z"/>
  </g>
  <g stroke-linejoin="round" fill-rule="evenodd" stroke="#000" stroke-width=".973" fill="#fff">
    <path d="M390.38 216.058c-2.647 8.51-4.238 15.487-.417 16.308 4.083-.71 2.308-8.932.417-16.308zm-.272 23.89c4.354 2.31 9.046-8.787 8.07-17.528-2.192 7.492-9.577 12.118-8.07 17.527zm-1.614-.228c.675-6.052-1.81-5.892-5.067-11.675.345 6.532 1.972 12.01 5.067 11.674z"/>
    <path d="M389.933 248.592c5.08 1.443 10.905-10.656 10.687-19.597-2.116 9.897-13.146 13.852-10.687 19.597z"/>
    <path d="M388.273 248.366c2.037-4.69-2.12-4.116-4.878-12.52-.913 8.697.413 12.666 4.878 12.52zm1.473 9.124c6.594 1.134 9.994-13.425 13.27-20.396-6.485 9.14-14.255 14.23-13.27 20.395z"/>
    <path d="M388.213 256.99c1.927-5.368-3.52-5.068-6.39-13.09.456 10.175 1.777 13.845 6.39 13.09zm1.9 9.247c4.17.3 11.667-11.342 11.828-18.533-3.56 7.92-14.74 13.167-11.825 18.533z"/>
    <path d="M387.01 264.895c1.735-5.6-3.107-5.636-5.256-11.91-.152 9.458 1.324 12.666 5.257 11.91zm.16 10.09c7.352 1.287 9.234-8.406 13.572-18.266-4.28 7.846-13.95 12.25-13.573 18.264z"/>
    <path d="M386.648 273.637c2.384-5.064-3.14-5.068-6.086-12.635-.152 10.706 1.7 13.846 6.086 12.635z"/>
  </g>
  <g fill-rule="evenodd" fill="#fff">
    <path d="M390.38 216.058c-2.647 8.51-4.238 15.487-.417 16.308 4.083-.71 2.308-8.932.417-16.308zm-.272 23.89c4.354 2.31 9.046-8.787 8.07-17.528-2.192 7.492-9.577 12.118-8.07 17.527zm-1.614-.228c.675-6.052-1.81-5.892-5.067-11.675.345 6.532 1.972 12.01 5.067 11.674z"/>
    <path d="M389.933 248.592c5.08 1.443 10.905-10.656 10.687-19.597-2.116 9.897-13.146 13.852-10.687 19.597z"/>
    <path d="M388.273 248.366c2.037-4.69-2.12-4.116-4.878-12.52-.913 8.697.413 12.666 4.878 12.52zm1.473 9.124c6.594 1.134 9.994-13.425 13.27-20.396-6.485 9.14-14.255 14.23-13.27 20.395z"/>
    <path d="M388.213 256.99c1.927-5.368-3.52-5.068-6.39-13.09.456 10.175 1.777 13.845 6.39 13.09zm1.9 9.247c4.17.3 11.667-11.342 11.828-18.533-3.56 7.92-14.74 13.167-11.825 18.533z"/>
    <path d="M387.01 264.895c1.735-5.6-3.107-5.636-5.256-11.91-.152 9.458 1.324 12.666 5.257 11.91zm.16 10.09c7.352 1.287 9.234-8.406 13.572-18.266-4.28 7.846-13.95 12.25-13.573 18.264z"/>
    <path d="M386.648 273.637c2.384-5.064-3.14-5.068-6.086-12.635-.152 10.706 1.7 13.846 6.086 12.635z"/>
  </g>
  <g fill-rule="evenodd" fill="#fff">
    <path d="M256.81 166.87c3.334.016 3.985-4.687 3.985-5.937-1.64.312-4.61 3.28-3.985 5.937z" transform="matrix(-1.937 0 0 1.9463 857.387 -41.81)" stroke="#000" stroke-width=".501"/>
    <path d="M359.927 282.968c-6.458.03-7.72-9.122-7.72-11.555 3.18.607 8.933 6.386 7.72 11.555z"/>
  </g>
  <g stroke-linejoin="round" fill-rule="evenodd" stroke="#000" stroke-width=".973" fill="#fff">
    <path d="M372.836 241.38c-2.647 8.51-3.705 12.596-.113 15.32 4.69-2.61 2.005-7.944.113-15.32zm-1.48 22.245c1.97-6.278-2.874-7.79-5.445-14.865-.262 9.344 1.06 16.19 5.448 14.865z"/>
    <path d="M373.288 264.98c3.443 1.324 7.68-6.655 5.335-14.637-2.42 7.187-8.36 8.925-5.335 14.638zm-3.635 7.155c3.33-5.144-1.968-5.41-4.65-12.594-.15 9.46.717 13.35 4.65 12.596z"/>
    <path d="M369.66 280.986c2.536-5.823-2.987-5.068-6.238-12.253-.152 10.706 1.625 13.01 6.238 12.253zm2.497-8.513c2.877.074 8.472-4.956 6.81-11.234-2.42 5.257-9.268 4.725-6.81 11.232z"/>
    <path d="M371.36 280.068c4.692.983 8.246-6.2 7.718-11.12-3.67 4.58-8.704 4.954-7.72 11.12z"/>
  </g>
  <g fill-rule="evenodd" fill="#fff">
    <path d="M372.836 241.38c-2.647 8.51-3.705 12.596-.113 15.32 4.69-2.61 2.005-7.944.113-15.32zm-1.48 22.245c1.97-6.278-2.874-7.79-5.445-14.865-.262 9.344 1.06 16.19 5.448 14.865z"/>
    <path d="M373.288 264.98c3.443 1.324 7.68-6.655 5.335-14.637-2.42 7.187-8.36 8.925-5.335 14.638zm-3.635 7.155c3.33-5.144-1.968-5.41-4.65-12.594-.15 9.46.717 13.35 4.65 12.596z"/>
    <path d="M369.66 280.986c2.536-5.823-2.987-5.068-6.238-12.253-.152 10.706 1.625 13.01 6.238 12.253zm2.497-8.513c2.877.074 8.472-4.956 6.81-11.234-2.42 5.257-9.268 4.725-6.81 11.232z"/>
    <path d="M371.36 280.068c4.692.983 8.246-6.2 7.718-11.12-3.67 4.58-8.704 4.954-7.72 11.12z"/>
  </g>
  <g fill-rule="evenodd" fill="#fff">
    <path d="M235.63 159.06c-.297-.385-1.15.01-.937.938.198 1.256 2.05 7.704 5.233 9.922 2.27 1.636 14.2 4.27 19.61 5.39 2.977.6 5.47 2.084 7.423 4.454-.81-3.1-1.46-5.395-2.5-8.203-1.016-2.466-3.703-5.166-6.486-5.31-5.17-.187-11.86-.627-16.72-2.736-2.51-1.048-4.01-2.464-5.625-4.453z" transform="matrix(-1.937 0 0 1.9463 857.173 -41.533)" stroke="#000" stroke-width=".501"/>
    <path d="M400.754 268.045c.575-.75 2.228.02 1.815 1.826-.386 2.447-3.973 14.996-10.138 19.313-4.397 3.184-27.508 8.313-37.985 10.49-5.767 1.167-10.596 4.057-14.38 8.67 1.566-6.032 2.823-10.5 4.844-15.966 1.965-4.803 7.17-10.058 12.56-10.34 10.013-.363 22.97-1.22 32.387-5.324 4.86-2.04 7.77-4.795 10.896-8.667z"/>
  </g>
  <g stroke-linejoin="round" fill-rule="evenodd" stroke="#000" stroke-width=".973" fill="#fff">
    <path d="M386.598 297.655c1.057-4.228-.29-5.588.865-12.208-6.345 8.51-3.96 12.542-.865 12.208z"/>
    <path d="M387.297 298.704c4.202 1.17 15.13-8.405 15.448-15.55-2.954 5.135-17.713 10.674-15.448 15.55zm-6.87 6.31c2.875-1.57 2.064-8.22-.542-10.464-.534 6.49-4.453 10.308.543 10.465z"/>
    <path d="M383.394 306.83c5.082 1.593 10.83-7.615 15.02-11.614-4.777 4.118-19.226 6.096-15.02 11.613zm-6.99 4.573c3.556-2.33.236-6.93-.013-16.016-3.572 6.567-4.3 15.553.014 16.016z"/>
    <path d="M377.083 313.74c1.814 2.43 15.24-5.943 18.595-12.148-11.468 8.53-21.585 7.39-18.595 12.147zm-1.34 7.578c3.294-2.402-2.837-8.718-4.11-17.196.076 10.327-1.34 18.18 4.11 17.196z"/>
    <path d="M379.324 318.468c1.652 2.657 11.896-4.375 16.312-12.03-6.79 5.946-18.21 7.538-16.312 12.03zm-10.468 11.57c3.71-.66 3.2-10.046.37-17.69-3.194 9.23-4.608 18.595-.37 17.688z"/>
    <path d="M378.16 324.92c1.28 1.518 16.38-9.062 16.162-13.363-4.778 6.855-20.747 8.225-16.162 13.363zm-17.524 13.883c5.12-2.1 2.713-10.39 3.72-19.327-4.03 8.732-8.79 17.496-3.72 19.327z"/>
    <path d="M370.218 331.63c.815 2.808 13.112-2.4 19.048-10.968-7.17 5.566-21.096 6.323-19.048 10.967z"/>
    <path d="M362.277 340.125c2.65 4.406 17.9-3.663 20.115-11.234-4.93 6.553-21.964 5.564-20.115 11.236z"/>
    <path d="M369.272 343.56c2.8.302 9.31-5.03 11.142-7.812-5.234 2.596-12.308 6.17-11.142 7.812z"/>
  </g>
  <g stroke-linejoin="round" fill-rule="evenodd" stroke="#000" stroke-width=".973" fill="#fff">
    <path d="M346.304 310.784c3.332.483 7.69-5.634 4.78-11.833-1.446 6.19-11.144 10.69-4.78 11.835zm7.136-3.65c2.572 1.44 9.08-5.486 8.253-10.02-3.637 5.794-10.94 7.465-8.254 10.02z"/>
    <path d="M345.837 317.308c2.5 2.43 14.784-10.048 18.443-15.72-10.63 9.06-21.508 11.343-18.443 15.72zm-2.937 7.476c1.956 2.96 10.146-5.97 15.324-13.398-6.563 6.477-17.68 9.44-15.324 13.398z"/>
    <path d="M343.735 317.668c2.003-5.29-1.315-6.132-2.816-12.71-2.966 3.637-2.633 13.693 2.814 12.71zm-3.27 7.3c3.98-1.11-2.456-7.88-3.805-12.71-.607 8.883-.502 13.312 3.805 12.71zm-3.885 6.382c3.673-1.338-2.078-4.69-2.666-12.103-1.825 2.725-2.783 13.085 2.665 12.102z"/>
    <path d="M331.086 332.914c2.342-1.267 1.378-7.31-2.217-8.11-.838 4.743-.73 8.18 2.215 8.11z"/>
  </g>
  <g fill-rule="evenodd" fill="#fff">
    <path d="M346.304 310.784c3.332.483 7.69-5.634 4.78-11.833-1.446 6.19-11.144 10.69-4.78 11.835zm7.136-3.65c2.572 1.44 9.08-5.486 8.253-10.02-3.637 5.794-10.94 7.465-8.254 10.02z"/>
    <path d="M345.837 317.308c2.5 2.43 14.784-10.048 18.443-15.72-10.63 9.06-21.508 11.343-18.443 15.72zm-2.937 7.476c1.956 2.96 10.146-5.97 15.324-13.398-6.563 6.477-17.68 9.44-15.324 13.398z"/>
    <path d="M343.735 317.668c2.003-5.29-1.315-6.132-2.816-12.71-2.966 3.637-2.633 13.693 2.814 12.71zm-3.27 7.3c3.98-1.11-2.456-7.88-3.805-12.71-.607 8.883-.502 13.312 3.805 12.71zm-3.885 6.382c3.673-1.338-2.078-4.69-2.666-12.103-1.825 2.725-2.783 13.085 2.665 12.102z"/>
    <path d="M331.086 332.914c2.342-1.267 1.378-7.31-2.217-8.11-.838 4.743-.73 8.18 2.215 8.11z"/>
  </g>
  <g fill-rule="evenodd" fill="#fff">
    <path d="M386.598 297.655c1.057-4.228-.29-5.588.865-12.208-6.345 8.51-3.96 12.542-.865 12.208z"/>
    <path d="M387.297 298.704c4.202 1.17 15.13-8.405 15.448-15.55-2.954 5.135-17.713 10.674-15.448 15.55zm-6.87 6.31c2.875-1.57 2.064-8.22-.542-10.464-.534 6.49-4.453 10.308.543 10.465z"/>
    <path d="M383.394 306.83c5.082 1.593 10.83-7.615 15.02-11.614-4.777 4.118-19.226 6.096-15.02 11.613zm-6.99 4.573c3.556-2.33.236-6.93-.013-16.016-3.572 6.567-4.3 15.553.014 16.016z"/>
    <path d="M377.083 313.74c1.814 2.43 15.24-5.943 18.595-12.148-11.468 8.53-21.585 7.39-18.595 12.147zm-1.34 7.578c3.294-2.402-2.837-8.718-4.11-17.196.076 10.327-1.34 18.18 4.11 17.196z"/>
    <path d="M379.324 318.468c1.652 2.657 11.896-4.375 16.312-12.03-6.79 5.946-18.21 7.538-16.312 12.03zm-10.468 11.57c3.71-.66 3.2-10.046.37-17.69-3.194 9.23-4.608 18.595-.37 17.688z"/>
    <path d="M378.16 324.92c1.28 1.518 16.38-9.062 16.162-13.363-4.778 6.855-20.747 8.225-16.162 13.363zm-17.524 13.883c5.12-2.1 2.713-10.39 3.72-19.327-4.03 8.732-8.79 17.496-3.72 19.327z"/>
    <path d="M370.218 331.63c.815 2.808 13.112-2.4 19.048-10.968-7.17 5.566-21.096 6.323-19.048 10.967z"/>
    <path d="M362.277 340.125c2.65 4.406 17.9-3.663 20.115-11.234-4.93 6.553-21.964 5.564-20.115 11.236z"/>
    <path d="M369.272 343.56c2.8.302 9.31-5.03 11.142-7.812-5.234 2.596-12.308 6.17-11.142 7.812z"/>
  </g>
  <g fill-rule="evenodd" fill="#fff">
    <path d="M235.83 159.52c-.377-.307-.876-.76-.704.176 1.41 7.41 1.855 9.483 8.35 12.044 6.6 2.508 8.967 1.63 14.588 1.533 3.034-.11 6.567 1.404 8.67 3.618.98 1.03 1.688 1.443 1.295.13-.396-1.312-.78-3.015-1.398-4.38-1.348-3-4.834-5.865-8.32-7.01-4.88-1.717-10.14-.854-15.165-2.164-2.62-.724-5.138-2.183-7.318-3.945z" transform="matrix(-1.7055 -.9227 -.9183 1.7137 926.17 287.993)" stroke="#000" stroke-width=".501"/>
    <path d="M377.47 343.746c.926-.178 2.193-.494 1.04.95-9.208 11.4-11.872 14.54-25.3 12.937-13.562-1.795-16.792-5.48-26.29-10.835-5.07-2.99-12.488-3.654-18.11-1.8-2.617.86-4.2.91-2.324-.976 1.877-1.885 4.094-4.45 6.402-6.216 5.056-3.9 13.632-5.592 20.63-4.336 9.898 1.56 18.076 7.892 27.85 10.284 5.134 1.178 10.767 1 16.103-.008z"/>
  </g>
  <g fill-rule="evenodd" fill="#fff">
    <path d="M287.66 208.42c.884.11 1.444 1.822 1.88.663.737-1.877.22-3.37-.61-3.205-.978.26-2.634 2.456-1.27 2.542z" transform="matrix(-1.9235 0 0 1.9463 853.242 -41.856)" stroke="#000" stroke-width=".503"/>
    <path d="M299.92 363.792c-1.7.214-2.778 3.546-3.615 1.29-1.42-3.653-.425-6.558 1.17-6.237 1.883.508 5.068 4.78 2.444 4.947z"/>
  </g>
  <g stroke-linejoin="round" fill-rule="evenodd" stroke="#000" stroke-width=".973" fill="#fff">
    <path d="M318.535 348.932c4.813 1.252 6.063-4.296 6.535-8.327-4.34.935-8.887 3.45-6.535 8.327zm-1.935 4.928c.848 3.838 10.264-.118 12.094-5.493-6.694 3.906-13.298-.35-12.094 5.493z"/>
    <path d="M313.233 353.672c4.3.712 1.907-6.028 1.66-12.676-2.41 5.42-5.848 12.1-1.66 12.676zM307.8 360.04c4.684.586 1.713-8.446.44-14.516-1.538 5.626-4.924 14.022-.44 14.516z"/>
    <path d="M310.587 360.24c.57 5.11 10.252-.61 15.886-3.75-7.442 1.152-16.722-1.263-15.886 3.75zm-5.323 7.147c.57 5.11 10.25-.61 15.886-3.752-7.443 1.154-16.722-1.26-15.886 3.752z"/>
    <path d="M302.79 367.182c4.454.13 1.18-9.587-.093-15.656-1.538 5.625-4.47 15.466.092 15.656zm-3.843 6.214c.57 5.11 9.417.073 14.9-3.448-7.52 1.61-15.736-1.566-14.9 3.448z"/>
  </g>
  <g fill-rule="evenodd" fill="#fff">
    <path d="M318.535 348.932c4.813 1.252 6.063-4.296 6.535-8.327-4.34.935-8.887 3.45-6.535 8.327zm-1.935 4.928c.848 3.838 10.264-.118 12.094-5.493-6.694 3.906-13.298-.35-12.094 5.493z"/>
    <path d="M313.233 353.672c4.3.712 1.907-6.028 1.66-12.676-2.41 5.42-5.848 12.1-1.66 12.676zm-5.433 6.368c4.684.586 1.713-8.446.44-14.516-1.538 5.626-4.924 14.022-.44 14.516z"/>
    <path d="M310.587 360.24c.57 5.11 10.252-.61 15.886-3.75-7.442 1.152-16.722-1.263-15.886 3.75zm-5.323 7.147c.57 5.11 10.25-.61 15.886-3.752-7.443 1.154-16.722-1.26-15.886 3.752z"/>
    <path d="M302.79 367.182c4.454.13 1.18-9.587-.093-15.656-1.538 5.625-4.47 15.466.092 15.656zm-3.843 6.214c.57 5.11 9.417.073 14.9-3.448-7.52 1.61-15.736-1.566-14.9 3.448z"/>
  </g>
  <g stroke-linejoin="round" fill-rule="evenodd" stroke="#000" stroke-width=".973" fill="#fff">
    <path d="M348.73 364.83c2.648 4.406 12.425-3.206 17.758-7.128-7.667 2.368-19.607 1.458-17.76 7.13z"/>
    <path d="M338.75 369.407c.953 5.052 17.448.883 19.8-2.862-7.585 3.213-20.705-1.502-19.8 2.862z"/>
    <path d="M330.983 373.26c.497 2.772 13.116 1.72 19.496-.428-6.9.858-20.78-4.01-19.498.43z"/>
    <path d="M324.395 376.56c.04 2.542 14.712 4 19.648-.125-9.864 1.464-20.628-5.99-19.648.124z"/>
    <path d="M312.79 378.94c-.568 3.53 15.395 2.783 20.407 1.014-8.57-.662-19.638-6.215-20.407-1.015z"/>
    <path d="M312.56 375.724c3.597 3.3 12.85-11.443 15.86-17.938-7.118 7.423-19.966 15.052-15.86 17.938z"/>
    <path d="M323.044 373.22c4.283 2.846 8.214-7.563 10.388-15.2-4.078 6.586-14.49 10.87-10.388 15.2z"/>
    <path d="M331.335 370.387c4.283 2.845 6.695-6.576 7.73-12.466-2.938 5.07-11.832 8.138-7.73 12.468z"/>
    <path d="M339.35 365.37c4.283 2.845 9.66-5.055 8.413-12.844-1.644 8.032-12.515 8.513-8.413 12.844zm-16.257 22.174c2.11 5.372 24.295-4.696 28.015-11.413-7.127 6.026-30.08 5.207-28.015 11.415z"/>
  </g>
  <g fill-rule="evenodd" fill="#fff">
    <path d="M348.73 364.83c2.648 4.406 12.425-3.206 17.758-7.128-7.667 2.368-19.607 1.458-17.76 7.13z"/>
    <path d="M338.75 369.407c.953 5.052 17.448.883 19.8-2.862-7.585 3.213-20.705-1.502-19.8 2.862z"/>
    <path d="M330.983 373.26c.497 2.772 13.116 1.72 19.496-.428-6.9.858-20.78-4.01-19.498.43z"/>
    <path d="M324.395 376.56c.04 2.542 14.712 4 19.648-.125-9.864 1.464-20.628-5.99-19.648.124z"/>
    <path d="M312.79 378.94c-.568 3.53 15.395 2.783 20.407 1.014-8.57-.662-19.638-6.215-20.407-1.015z"/>
    <path d="M312.56 375.724c3.597 3.3 12.85-11.443 15.86-17.938-7.118 7.423-19.966 15.052-15.86 17.938z"/>
    <path d="M323.044 373.22c4.283 2.846 8.214-7.563 10.388-15.2-4.078 6.586-14.49 10.87-10.388 15.2z"/>
    <path d="M331.335 370.387c4.283 2.845 6.695-6.576 7.73-12.466-2.938 5.07-11.832 8.138-7.73 12.468z"/>
    <path d="M339.35 365.37c4.283 2.845 9.66-5.055 8.413-12.844-1.644 8.032-12.515 8.513-8.413 12.844zm-16.257 22.174c2.11 5.372 24.295-4.696 28.015-11.413-7.127 6.026-30.08 5.207-28.015 11.415z"/>
  </g>
  <g fill-rule="evenodd" fill="#fff">
    <path d="M366.62 143.7c.368-3.59-2.38-10.115-.43-13.594.266-.478-.584-1.747-1.133-.977-.858 1.227-1.74 4.73-2.11 3.436-.39-1.406-.45-3.893-1.718-4.376-.81-.282-1.955-.467-1.643.783.31 1.202 1.004 2.862.235 2.97-.446.064-1.73-1.637-2.813-2.423-.873-.7-2.174.396-.9 1.445 4.145 3.38 8.16 4.9 10.51 12.735z" transform="matrix(-1.911 0 0 1.9463 846.858 -41.507)" stroke="#000" stroke-width=".5"/>
    <path d="M146.235 238.176c-.703-6.985 4.55-19.686.822-26.458-.51-.93 1.116-3.4 2.165-1.9 1.64 2.39 3.325 9.207 4.03 6.69.747-2.736.862-7.577 3.285-8.517 1.546-.55 3.732-.91 3.136 1.524-.592 2.34-1.92 5.57-.45 5.78.853.125 3.31-3.185 5.377-4.715 1.666-1.366 4.152.77 1.716 2.81-7.92 6.578-15.592 9.538-20.08 24.787z"/>
  </g>
  <g fill-rule="evenodd" fill="#fff">
    <path d="M132.01 343.318c-.93-.178-2.202-.494-1.044.95 9.252 11.4 11.93 14.54 25.42 12.936 13.63-1.794 16.874-5.48 26.416-10.834 5.097-2.99 12.55-3.654 18.198-1.802 2.63.86 4.22.913 2.335-.974-1.885-1.885-4.113-4.45-6.433-6.216-5.08-3.9-13.696-5.592-20.728-4.337-9.945 1.56-18.163 7.895-27.983 10.287-5.16 1.177-10.817 1-16.18-.008z" stroke="#000" stroke-width=".973"/>
    <path d="M132.01 343.318c-.93-.178-2.202-.494-1.044.95 9.252 11.4 11.93 14.54 25.42 12.936 13.63-1.794 16.874-5.48 26.416-10.834 5.097-2.99 12.55-3.654 18.198-1.802 2.63.86 4.22.913 2.335-.974-1.885-1.885-4.113-4.45-6.433-6.216-5.08-3.9-13.696-5.592-20.728-4.337-9.945 1.56-18.163 7.895-27.983 10.287-5.16 1.177-10.817 1-16.18-.008z"/>
  </g>
  <g fill-rule="evenodd" fill="#fff">
    <path d="M209.873 363.685c1.72.214 2.81 3.546 3.657 1.29 1.436-3.653.43-6.56-1.184-6.238-1.905.508-5.128 4.78-2.473 4.948z" stroke="#000" stroke-width=".973"/>
    <path d="M209.873 363.685c1.72.214 2.81 3.546 3.657 1.29 1.436-3.653.43-6.56-1.184-6.238-1.905.508-5.128 4.78-2.473 4.948z"/>
  </g>
  <g fill-rule="evenodd" stroke="#000" stroke-width=".973" fill="#fff">
    <path d="M206.038 366.79c4.615 1.05 4.55-10.067-.162-14.78 2.075 7.14-3.468 13.668.162 14.78zM204.247 366.692c.304 5.283-12.966-.69-16.377-4.8 7.84 3.33 15.99.574 16.377 4.8zM198.43 359.137c.475 5.118-11.508.618-15.05-3.38 7.87 2.543 14.527-.832 15.05 3.38zm2.21.733c4.614 1.052 3.866-10.445-.62-14.396 2.153 7.672-3.01 13.287.62 14.397zm-4.862-7.003c4.615 1.05 1.967-8.85-1.454-12.802.556 7.217-1.72 12.223 1.454 12.802zm-2.434-.03c.475 5.27-8.847 1.224-12.465-3.76 7.79 2.542 11.94-.45 12.463 3.76zm-2.548-4.004c3.023-2.174-.184-7.923-5.94-7.567.564 3.472 2.552 9.58 5.94 7.567zM213.518 372.675c.305 5.283-12.968 2.656-17.137-2.974 8.374 1.584 16.75-1.25 17.14 2.976z"/>
  </g>
  <g fill-rule="evenodd" fill="#fff">
    <g stroke="#000" stroke-width=".973">
      <path d="M125.637 232.64c-1.98-2.067-1.407-2.857 1.52-2.89 2.322-.146 6.923 1.423 8.67.152 1.6-1.162.962-6.09 1.672-8.363.31-1.27 1.195-3.26 3.19-.154 5.902 9.457 13.272 20.81 16.423 31.933 1.723 6.233.102 15.964-5.626 22.504.202-5.576-1.877-9.327-4.41-13.99-3.13-6.13-14.756-22.73-21.44-29.195z"/>
      <path d="M149.966 282.368c6.49.03 7.604-8.667 7.604-11.1-3.194.608-8.82 5.93-7.604 11.1z"/>
    </g>
    <path d="M125.637 232.64c-1.98-2.067-1.407-2.857 1.52-2.89 2.322-.146 6.923 1.423 8.67.152 1.6-1.162.962-6.09 1.672-8.363.31-1.27 1.195-3.26 3.19-.154 5.902 9.457 13.272 20.81 16.423 31.933 1.723 6.233.102 15.964-5.626 22.504.202-5.576-1.877-9.327-4.41-13.99-3.13-6.13-14.756-22.73-21.44-29.195z"/>
    <path d="M149.966 282.368c6.49.03 7.604-8.667 7.604-11.1-3.194.608-8.82 5.93-7.604 11.1z"/>
  </g>
  <path d="M206.038 366.79c4.615 1.05 4.55-10.067-.162-14.78 2.075 7.14-3.468 13.668.162 14.78zm-1.79-.098c.303 5.283-12.967-.69-16.378-4.8 7.84 3.33 15.99.574 16.377 4.8zm-5.818-7.555c.475 5.118-11.508.618-15.05-3.38 7.87 2.543 14.527-.832 15.05 3.38zm2.21.733c4.614 1.052 3.866-10.445-.62-14.396 2.153 7.672-3.01 13.287.62 14.397zm-4.862-7.003c4.615 1.05 1.967-8.85-1.454-12.802.556 7.217-1.72 12.223 1.454 12.802zm-2.434-.03c.475 5.27-8.847 1.224-12.465-3.76 7.79 2.542 11.94-.45 12.463 3.76zm-2.548-4.004c3.023-2.174-.184-7.923-5.94-7.567.564 3.472 2.552 9.58 5.94 7.567zm22.722 23.842c.305 5.283-12.968 2.656-17.137-2.974 8.374 1.584 16.75-1.25 17.14 2.976z" fill-rule="evenodd" fill="#fff"/>
  <g stroke-linejoin="round" fill-rule="evenodd" stroke="#000" stroke-width=".973" fill="#fff">
    <path d="M160.805 363.224c.476 5.27-14.015-.525-17.633-5.51 7.793 2.542 17.11 1.3 17.633 5.51zm8.878 2.254c3.023-2.174-3.15-7.772-8.067-9.088.563 3.472 4.68 11.1 8.067 9.088zm.933 3.65c.323 4.737-15.54 2.14-19.688-2.24 13.648 2.467 19.24-1.82 19.688 2.24z"/>
    <path d="M178.036 372.292c1.76 4.4-13.464 3.327-18.81.768 8.638-.075 17.6-3.834 18.81-.768z"/>
    <path d="M185.153 375.5c1.685 3.943-12.4 3.858-19.264 1.677 9.09-.074 17.595-5.58 19.262-1.678zm10.247 2.12c2.494 4.667-12.363 5.12-17.183 2.823 8.59-1.18 15.057-6.497 17.182-2.823z"/>
    <path d="M177.993 369.627c-4.727 2.98-4.473-5.807-8.233-11.893 5.907 5.38 11.436 9.05 8.233 11.893zm8.392 3.153c-3.964 3.512-7.134-8.547-10.743-15.313 5.834 6.442 14.402 12.396 10.743 15.313zm11.065 3.37c-3.357 3.892-13.065-11.433-16.596-19.42 5.376 6.217 19.267 16.122 16.597 19.42z"/>
  </g>
  <g fill-rule="evenodd" fill="#fff">
    <path d="M160.805 363.224c.476 5.27-14.015-.525-17.633-5.51 7.793 2.542 17.11 1.3 17.633 5.51zm8.878 2.254c3.023-2.174-3.15-7.772-8.067-9.088.563 3.472 4.68 11.1 8.067 9.088zm.933 3.65c.323 4.737-15.54 2.14-19.688-2.24 13.648 2.467 19.24-1.82 19.688 2.24z"/>
    <path d="M178.036 372.292c1.76 4.4-13.464 3.327-18.81.768 8.638-.075 17.6-3.834 18.81-.768z"/>
    <path d="M185.153 375.5c1.685 3.943-12.4 3.858-19.264 1.677 9.09-.074 17.595-5.58 19.262-1.678zm10.247 2.12c2.494 4.667-12.363 5.12-17.183 2.823 8.59-1.18 15.057-6.497 17.182-2.823zm-17.407-7.993c-4.727 2.98-4.473-5.807-8.233-11.893 5.907 5.38 11.436 9.05 8.233 11.893z"/>
    <path d="M186.385 372.78c-3.964 3.512-7.134-8.547-10.743-15.313 5.834 6.442 14.402 12.396 10.743 15.313zm11.065 3.37c-3.357 3.892-13.065-11.433-16.596-19.42 5.376 6.217 19.267 16.122 16.597 19.42z"/>
  </g>
  <path d="M188.016 387.838c-1.675 5.917-26.38-5.577-29.138-11.532 14.136 7.49 29.476 5.924 29.138 11.532z" fill-rule="evenodd" fill="#fff"/>
  <g fill-rule="evenodd" fill="#fff">
    <path d="M108.607 267.615c-.578-.75-2.24.02-1.824 1.826.385 2.447 3.99 14.996 10.185 19.313 4.418 3.184 27.64 8.313 38.167 10.49 5.794 1.167 10.646 4.057 14.447 8.67-1.572-6.032-2.835-10.5-4.865-15.966-1.974-4.803-7.204-10.058-12.62-10.34-10.06-.363-23.08-1.22-32.542-5.324-4.884-2.04-7.807-4.795-10.948-8.667z" stroke="#000" stroke-width=".973"/>
    <path d="M108.607 267.615c-.578-.75-2.24.02-1.824 1.826.385 2.447 3.99 14.996 10.185 19.313 4.418 3.184 27.64 8.313 38.167 10.49 5.794 1.167 10.646 4.057 14.447 8.67-1.572-6.032-2.835-10.5-4.865-15.966-1.974-4.803-7.204-10.058-12.62-10.34-10.06-.363-23.08-1.22-32.542-5.324-4.884-2.04-7.807-4.795-10.948-8.667z"/>
  </g>
  <g stroke-linejoin="round" fill-rule="evenodd" stroke="#000" stroke-width=".973" fill="#fff">
    <path d="M166.28 317.26c3.172 2.336 6.673-6.034 2.644-13.99-.127 7.658-6.214 10.23-2.644 13.99z"/>
    <path d="M169.328 324.955c4.387 1.347 5.76-6.414 2.872-12.622.482 6.67-6.897 10.687-2.872 12.622z"/>
    <path d="M172.66 331.114c4.238 2.11 5.842-5.732 2.797-11.554.332 7.428-6.06 9.618-2.796 11.554z"/>
    <path d="M170.907 331.586c-1.678 5.018-11.415-4.327-13.056-9.41 6.045 6.005 14.268 5.342 13.058 9.41z"/>
    <path d="M166.502 323.904c-1.908 5.018-14.152-7.9-16.858-14.122 6.043 6.004 18.22 10.586 16.858 14.122z"/>
    <path d="M164.064 316.385c-1.907 5.703-15.217-9.497-18.987-14.883 6.35 5.928 20.425 10.74 18.987 14.883z"/>
    <path d="M163.654 310.74c4.687-.91-.266-4.814-6.01-11.158-.27 6.68.827 11.35 6.01 11.158zm-7.914-3.783c2.023-2.204-1.94-3.142-6.85-8.65-.723 3.714 4.554 10.514 6.85 8.65zM178.44 331.732c2.564 1.5 4.32-3.755 1.123-8.513-.73 5.145-3.476 6.575-1.124 8.51z"/>
  </g>
  <g fill-rule="evenodd" fill="#fff">
    <path d="M166.28 317.26c3.172 2.336 6.673-6.034 2.644-13.99-.127 7.658-6.214 10.23-2.644 13.99z"/>
    <path d="M169.328 324.955c4.387 1.347 5.76-6.414 2.872-12.622.482 6.67-6.897 10.687-2.872 12.622z"/>
    <path d="M172.66 331.114c4.238 2.11 5.842-5.732 2.797-11.554.332 7.428-6.06 9.618-2.796 11.554z"/>
    <path d="M170.907 331.586c-1.678 5.018-11.415-4.327-13.056-9.41 6.045 6.005 14.268 5.342 13.058 9.41z"/>
    <path d="M166.502 323.904c-1.908 5.018-14.152-7.9-16.858-14.122 6.043 6.004 18.22 10.586 16.858 14.122z"/>
    <path d="M164.064 316.385c-1.907 5.703-15.217-9.497-18.987-14.883 6.35 5.928 20.425 10.74 18.987 14.883zm-.41-5.645c4.687-.91-.266-4.814-6.01-11.158-.27 6.68.827 11.35 6.01 11.158z"/>
    <path d="M155.74 306.957c2.023-2.204-1.94-3.142-6.85-8.65-.723 3.714 4.554 10.514 6.85 8.65zm22.7 24.775c2.564 1.5 4.32-3.755 1.123-8.513-.73 5.145-3.476 6.575-1.124 8.51z"/>
  </g>
  <g stroke-linejoin="round" fill-rule="evenodd" stroke="#000" stroke-width=".973" fill="#fff">
    <path d="M122.717 298.56c-5.446 3.265-14.095-9.762-16.402-15.12 4.778 6.15 17.43 11.768 16.402 15.12z"/>
    <path d="M127.36 306.143c-3.012 3.34-12.497-5.732-15.793-10.33 5.084 4.4 17.127 4.925 15.794 10.33z"/>
    <path d="M132.526 312.956c-.994 4.564-14.836-5.694-18.072-10.55 5.968 5.624 18.98 5.116 18.072 10.55z"/>
    <path d="M130.39 317.91c-2.134 4.108-13.392-6.072-16.095-11.383 6.88 6.002 17.838 7.32 16.096 11.383zM124.618 297.884c3.552-3.746 2.04-5.5-.55-11.404-1.416 6.062-3.55 8.48.55 11.404zm4.714 7.066c6.443.285.062-7.555-1.46-14.14.56 7.505-1.652 13.42 1.46 14.14z"/>
    <path d="M133.43 311.198c4.463-1.01 3.175-7.327-.247-14.978.71 8.266-3.78 13.042.246 14.978zM131.916 323.693c-1.68 5.02-14.38-6.607-16.4-11.006 6.423 5.396 17.535 7.243 16.4 11.006z"/>
    <path d="M139.515 331.52c-1.906 5.02-15.216-5.16-19.288-10.7 8.02 6.307 20.272 5.722 19.288 10.7z"/>
    <path d="M147.264 339.423c-2.134 6.995-16.052-4.172-20.2-9.636 8.855 6.763 21.334 4.657 20.2 9.636zM134.187 321.46c3.78 1.956 5.307-8.77 3.175-16.346.028 8.266-7.582 14.41-3.175 16.346z"/>
    <path d="M140.66 329.965c4.542 1.35 3.102-10.215-.78-17.715-.502 7.43-3.854 14.488.78 17.715zm8.064 7.988c5.074.284 1.583-9.913-2.602-15.662.712 7.507-1.65 14.793 2.602 15.664zM139.82 342.307c-1.526 2.584-5.257-2.196-11.383-5.684 5.51 1.44 12.06 3.29 11.382 5.684z"/>
  </g>
  <g fill-rule="evenodd" fill="#fff">
    <path d="M122.717 298.56c-5.446 3.265-14.095-9.762-16.402-15.12 4.778 6.15 17.43 11.768 16.402 15.12z"/>
    <path d="M127.36 306.143c-3.012 3.34-12.497-5.732-15.793-10.33 5.084 4.4 17.127 4.925 15.794 10.33z"/>
    <path d="M132.526 312.956c-.994 4.564-14.836-5.694-18.072-10.55 5.968 5.624 18.98 5.116 18.072 10.55z"/>
    <path d="M130.39 317.91c-2.134 4.108-13.392-6.072-16.095-11.383 6.88 6.002 17.838 7.32 16.096 11.383zm-5.772-20.026c3.552-3.746 2.04-5.5-.55-11.404-1.416 6.062-3.55 8.48.55 11.404zm4.714 7.066c6.443.285.062-7.555-1.46-14.14.56 7.505-1.652 13.42 1.46 14.14z"/>
    <path d="M133.43 311.198c4.463-1.01 3.175-7.327-.247-14.978.71 8.266-3.78 13.042.246 14.978zm-1.514 12.495c-1.68 5.02-14.38-6.607-16.4-11.006 6.423 5.396 17.535 7.243 16.4 11.006z"/>
    <path d="M139.515 331.52c-1.906 5.02-15.216-5.16-19.288-10.7 8.02 6.307 20.272 5.722 19.288 10.7z"/>
    <path d="M147.264 339.423c-2.134 6.995-16.052-4.172-20.2-9.636 8.855 6.763 21.334 4.657 20.2 9.636zm-13.077-17.963c3.78 1.956 5.307-8.77 3.175-16.346.028 8.266-7.582 14.41-3.175 16.346z"/>
    <path d="M140.66 329.965c4.542 1.35 3.102-10.215-.78-17.715-.502 7.43-3.854 14.488.78 17.715zm8.064 7.988c5.074.284 1.583-9.913-2.602-15.662.712 7.507-1.65 14.793 2.602 15.664zm-8.904 4.354c-1.526 2.584-5.257-2.196-11.383-5.684 5.51 1.44 12.06 3.29 11.382 5.684z"/>
  </g>
  <g stroke-linejoin="round" fill-rule="evenodd" stroke="#000" stroke-width=".973" fill="#fff">
    <path d="M136.905 256.366c4.735-3.504 1.123-10.057 0-16.29-1.524 5.912-5.535 13.668 0 16.29zm-.155 8.758c-7.115-.854-6.044-10.055-6.258-15.886 2.14 7.916 7.97 9.253 6.257 15.886zm1.128-1.207c6.018-.348 5.7-7.195 6.02-14.122-3.05 6.366-6.662 7.355-6.02 14.122z"/>
    <path d="M137.645 272.423c-4.68.373-7.114-4.226-8.185-11.394 4.44 6.604 8.478 4.545 8.185 11.392zm1.673-.565c6.018.775 5.057-6.232 4.815-11.395-1.845 4.922-6.74 6.473-4.815 11.395z"/>
    <path d="M129.937 268.9c.48 4.574 3.37 12.437 8.025 10.67 1.925-5.616-4.093-6.74-8.025-10.67z"/>
    <path d="M139.396 280.052c-2.086-4.01 4.734-6.02 6.178-11.234.83 7.462.134 12.357-6.178 11.234z"/>
  </g>
  <g fill-rule="evenodd" fill="#fff">
    <path d="M136.905 256.366c4.735-3.504 1.123-10.057 0-16.29-1.524 5.912-5.535 13.668 0 16.29zm-.155 8.758c-7.115-.854-6.044-10.055-6.258-15.886 2.14 7.916 7.97 9.253 6.257 15.886zm1.128-1.207c6.018-.348 5.7-7.195 6.02-14.122-3.05 6.366-6.662 7.355-6.02 14.122z"/>
    <path d="M137.645 272.423c-4.68.373-7.114-4.226-8.185-11.394 4.44 6.604 8.478 4.545 8.185 11.392zm1.673-.565c6.018.775 5.057-6.232 4.815-11.395-1.845 4.922-6.74 6.473-4.815 11.395z"/>
    <path d="M129.937 268.9c.48 4.574 3.37 12.437 8.025 10.67 1.925-5.616-4.093-6.74-8.025-10.67z"/>
    <path d="M139.396 280.052c-2.086-4.01 4.734-6.02 6.178-11.234.83 7.462.134 12.357-6.178 11.234z"/>
  </g>
  <g stroke-linejoin="round" fill-rule="evenodd" stroke="#000" stroke-width=".973" fill="#fff">
    <path d="M119.984 232.498c3.746-4.034.437-10.436-.686-16.668-1.523 5.91-4.165 13.743.686 16.668zm-.12 7.517c-6.58.667-8.174-12.715-8.843-18.47 2.14 7.915 9.72 11.533 8.844 18.47zm1.37-.12c4.65-2.403 3.57-7.576 5.03-11.463-3.125 4.77-5.977 5.454-5.03 11.462z"/>
    <path d="M119.933 248.653c-6.884.59-10.985-14.237-11.2-20.068 2.14 7.916 12.002 12.22 11.2 20.068zm1.307-.225c6.474-1.49 5.7-5.676 4.73-12.45-2.062 6.823-5.675 5.377-4.73 12.45z"/>
    <path d="M119.843 257.21c-7.57 1.284-7.037-10.69-13.048-19.376 5.2 6.452 14.56 14.582 13.048 19.375zm1.71-.41c5.714.166 6.272-8.436 5.955-11.926-1.314 3.476-8.032 6.777-5.956 11.927z"/>
    <path d="M108.022 247.992c2.837 9.212 6.868 18.443 11.825 17.742 2.38-5.237-4.702-5.905-11.825-17.742z"/>
    <path d="M121.63 264.39c-2.086-4.01 4.734-6.02 6.178-11.233.83 7.462.134 12.357-6.178 11.234zm-11.65-5.872c4.052 8.3 5.88 17.836 11.444 16.45 2.077-6.454-6.145-7.805-11.444-16.45z"/>
    <path d="M122.56 273.4c-2.39-4.392 4.43-5.945 6.102-11.996.905 7.92.06 13.574-6.102 11.995z"/>
  </g>
  <g fill-rule="evenodd" fill="#fff">
    <path d="M119.984 232.498c3.746-4.034.437-10.436-.686-16.668-1.523 5.91-4.165 13.743.686 16.668zm-.12 7.517c-6.58.667-8.174-12.715-8.843-18.47 2.14 7.915 9.72 11.533 8.844 18.47zm1.37-.12c4.65-2.403 3.57-7.576 5.03-11.463-3.125 4.77-5.977 5.454-5.03 11.462z"/>
    <path d="M119.933 248.653c-6.884.59-10.985-14.237-11.2-20.068 2.14 7.916 12.002 12.22 11.2 20.068zm1.307-.225c6.474-1.49 5.7-5.676 4.73-12.45-2.062 6.823-5.675 5.377-4.73 12.45z"/>
    <path d="M119.843 257.21c-7.57 1.284-7.037-10.69-13.048-19.376 5.2 6.452 14.56 14.582 13.048 19.375zm1.71-.41c5.714.166 6.272-8.436 5.955-11.926-1.314 3.476-8.032 6.777-5.956 11.927z"/>
    <path d="M108.022 247.992c2.837 9.212 6.868 18.443 11.825 17.742 2.38-5.237-4.702-5.905-11.825-17.742z"/>
    <path d="M121.63 264.39c-2.086-4.01 4.734-6.02 6.178-11.233.83 7.462.134 12.357-6.178 11.234zm-11.65-5.872c4.052 8.3 5.88 17.836 11.444 16.45 2.077-6.454-6.145-7.805-11.444-16.45z"/>
    <path d="M122.56 273.4c-2.39-4.392 4.43-5.945 6.102-11.996.905 7.92.06 13.574-6.102 11.995z"/>
  </g>
  <path d="M134.24 217.226c3.993 1.08 8.182-3.404 6.73-10.115-4.564 1.138-6.66 5.28-6.73 10.117zm-12.788-3.366c.35 1.886 2.645 2.058 1.978-.61-.557-2.163-.652-3.79 0-5.55.893-2.205.595-5.96-.076-7.526-.678-1.654-2.922-.685-1.978.61 1.04 1.5 1.094 4.622.38 6.08-.94 2.152-.685 5.01-.304 6.995z" fill-rule="evenodd" stroke="#000" stroke-width=".973" fill="#fff"/>
  <path d="M134.24 217.226c3.993 1.08 8.182-3.404 6.73-10.115-4.564 1.138-6.66 5.28-6.73 10.117zm-12.788-3.366c.35 1.886 2.645 2.058 1.978-.61-.557-2.163-.652-3.79 0-5.55.893-2.205.595-5.96-.076-7.526-.678-1.654-2.922-.685-1.978.61 1.04 1.5 1.094 4.622.38 6.08-.94 2.152-.685 5.01-.304 6.995z" fill-rule="evenodd" fill="#fff"/>
  <path d="M135.27 206.677c-.378 2.948-2.873 3.216-2.148-.95.605-3.38.71-5.92 0-8.668-.97-3.447-.647-9.31.083-11.757.736-2.584 3.174-1.07 2.15.95-1.13 2.345-1.19 7.22-.414 9.498 1.024 3.363.747 7.825.33 10.926zm18.588 29.467c-1.543 2.27-4.002.952-2.61-2.692 1.178-2.523 1.304-5.65 2.615-7.494 1.833-2.797 4.938-5.128 6.7-6.82 1.82-1.8 3.333-.065 1.663 1.48-2.028 2.028-4.228 4.553-5.45 6.466-2.28 3.716-1.276 6.68-2.918 9.06z" fill-rule="evenodd" stroke="#000" stroke-width=".973" fill="#fff"/>
  <g fill-rule="evenodd" fill="#fff">
    <path d="M242.54 131.62c.18.97 1.484.926 1.14-.444-.285-1.112-.932-2.18-.597-3.085.46-1.13.57-3.077.226-3.882-.35-.85-1.47-.28-.987.385.534.77.114 2.925-.253 3.674-.482 1.106.274 2.334.47 3.354z" transform="matrix(-2.453 -.9787 -1.138 2.5207 903.448 145.415)" stroke="#000" stroke-width=".36"/>
    <path d="M158.688 239.805c-1.543 2.27-4.694.882-2.293-2.235 1.967-2.524 4.77-4.585 4.977-7.19.163-3.307 2.103-8.32 3.866-10.013 1.82-1.802 3.924.733 1.978 1.935-2.187 1.42-3.608 7.26-3.56 9.508-.074 3.26-3.326 5.616-4.968 7.995z"/>
  </g>
  <path d="M153.858 236.144c-1.543 2.27-4.002.952-2.61-2.692 1.178-2.523 1.304-5.65 2.615-7.494 1.833-2.797 4.938-5.128 6.7-6.82 1.82-1.8 3.333-.065 1.663 1.48-2.028 2.028-4.228 4.553-5.45 6.466-2.28 3.716-1.276 6.68-2.918 9.06z" fill-rule="evenodd" fill="#fff"/>
  <g fill-rule="evenodd" fill="#fff">
    <path d="M242.23 131.78c-.094.784 1.23.974 1.172-.163-.06-1.187-1.824-2.273-.742-4.08.57-.884.58-2.504.234-3.365-.303-.854-1.58-.296-1.094.37.534.77-.1 2.25-.508 2.993-1.225 2.166 1.01 3.22.938 4.245z" transform="matrix(1.9463 0 0 4.087 -343.233 -314.153)" stroke="#000" stroke-width=".345"/>
    <path d="M128.22 224.436c-.184 3.205 2.395 3.98 2.28-.666-.117-4.85-3.55-9.29-1.444-16.675 1.107-3.613 1.127-10.234.455-13.753-.587-3.49-3.07-1.21-2.127 1.508 1.04 3.15-.195 9.196-.99 12.237-2.383 8.852 1.967 13.164 1.827 17.35z"/>
  </g>
  <path d="M135.27 206.677c-.378 2.948-2.873 3.216-2.148-.95.605-3.38.71-5.92 0-8.668-.97-3.447-.647-9.31.083-11.757.736-2.584 3.174-1.07 2.15.95-1.13 2.345-1.19 7.22-.414 9.498 1.024 3.363.747 7.825.33 10.926zm-25.36 60.296c1.236 1.47 3.318.485 1.42-1.504-1.552-1.61-1.04-2.117-1.987-4.075-.936-2.188-.887-3.395-2.016-4.96-1-1.482-2.5.03-1.495 1.28 1.263 1.476.915 2.564 1.687 3.992 1.426 2.444 1.08 3.727 2.39 5.265zm33.224 40.113c3.974 1.954 6.99 6.836 7.19 10.812.336 4.576.996 8.44 3.05 11.69-3.27-.91-4.837-6.124-5.302-11.118-.47-5.17-3.256-7.41-4.938-11.384zm8.29 9.576c2.75 5.077 6.597 7.013 6.794 10.78.333 4.335.662 4.557 1.837 8.82-3.237-.863-4.052-1.145-4.926-7.632-.54-4.56-4.19-7.775-3.706-11.968z" fill-rule="evenodd" fill="#fff"/>
  <path d="M301.504 401.657c.076 1.925.306 3.472 1.447 5.018-6.64-2.66-16.015-1.236-22.43 1.75-2.86 1.366-6.32-1.562-2.964-4.335 4.773-3.867 15.814-1.674 23.95-2.433zm-93.687-.1c.094 1.813-.116 3.475-.784 5.06 7.22-2.99 14.97-.507 22.262 2.434 5.013 2.075 5.418-1.514 4.533-2.756-1.522-2.203-4.467-4.622-8.192-4.675-2.48-.036-12.026-.12-17.82-.063zm6.094-35.26c-2.012-.868-4.352-.033-6.45 2.176-7.05 6.907-15.32 13.637-21.997 18.873-2.49 2.164-5.037 6.047 5.59 9.928.385.146 8.132 3.017 13.04 3.2 2.005-.057 2 2.937 1.627 3.735-.847 1.592-.234 2.2-1.945 3.735-1.783 1.504.19 3.452 1.592 2.13 5.983-5.196 15.685-1.872 25.035 1.168 2.21.612 6.252.44 6.217-2.608.037-3.32 2.442-5.667 3.914-5.753 3.816.662 22.676.872 28.486.166 3.387-.44 3.592 4.64 5.404 6.64 1.25 1.33 6.058 1.68 9.356.225 6.518-3.028 16.45-3.028 20.498-.134 1.664 1.267 2.978.24 2.032-1.047-1.22-1.76-1.19-2.575-1.797-3.965-1.52-3.094-.307-3.85 1.287-4.074 18.01-2.322 23.756-8.467 18.25-13.477-7.11-6.237-15.025-12.506-21.845-19.874-1.85-1.954-3.07-2.74-6.92-1.14-11.764 5.36-26.698 9.265-41.313 9.552-13.6.116-32.297-6.174-40.06-9.46z" fill-rule="evenodd" fill-opacity=".185" stroke="#000" stroke-width=".973"/>
  <path d="M301.504 401.657c.076 1.925.306 3.472 1.447 5.018-6.64-2.66-16.015-1.236-22.43 1.75-2.86 1.366-6.32-1.562-2.964-4.335 4.773-3.867 15.814-1.674 23.95-2.433zm-93.687-.1c.094 1.813-.116 3.475-.784 5.06 7.22-2.99 14.97-.507 22.262 2.434 5.013 2.075 5.418-1.514 4.533-2.756-1.522-2.203-4.467-4.622-8.192-4.675-2.48-.036-12.026-.12-17.82-.063zm6.094-35.26c-2.012-.868-4.352-.033-6.45 2.176-7.05 6.907-15.32 13.637-21.997 18.873-2.49 2.164-5.037 6.047 5.59 9.928.385.146 8.132 3.017 13.04 3.2 2.005-.057 2 2.937 1.627 3.735-.847 1.592-.234 2.2-1.945 3.735-1.783 1.504.19 3.452 1.592 2.13 5.983-5.196 15.685-1.872 25.035 1.168 2.21.612 6.252.44 6.217-2.608.037-3.32 2.442-5.667 3.914-5.753 3.816.662 22.676.872 28.486.166 3.387-.44 3.592 4.64 5.404 6.64 1.25 1.33 6.058 1.68 9.356.225 6.518-3.028 16.45-3.028 20.498-.134 1.664 1.267 2.978.24 2.032-1.047-1.22-1.76-1.19-2.575-1.797-3.965-1.52-3.094-.307-3.85 1.287-4.074 18.01-2.322 23.756-8.467 18.25-13.477-7.11-6.237-15.025-12.506-21.845-19.874-1.85-1.954-3.07-2.74-6.92-1.14-11.764 5.36-26.698 9.265-41.313 9.552-13.6.116-32.297-6.174-40.06-9.46z" fill-rule="evenodd" fill="#fff"/>
  <g fill-rule="evenodd" fill="#fff">
    <path d="M338.583 332.01c.816 2.81 12.048-2.323 17.757-13.55-7.476 8.15-19.576 8.07-17.757 13.55z" stroke="#000" stroke-width=".973"/>
    <path d="M338.583 332.01c.816 2.81 12.048-2.323 17.757-13.55-7.476 8.15-19.576 8.07-17.757 13.55z"/>
  </g>
  <g fill-rule="evenodd" fill="#fff">
    <path d="M253.45 178.87c1.695 2.578 3.958 4.444 4.06 6.487.173 2.35.344 2.47.954 4.783-1.68-.468-2.104-.62-2.558-4.14-.28-2.47-2.708-4.856-2.456-7.13z" transform="matrix(-2.0175 0 0 1.844 868.637 -14.906)" stroke="#000" stroke-width=".505"/>
    <path d="M357.293 314.93c-3.42 4.755-7.986 8.196-8.192 11.963-.347 4.335-.692 4.557-1.922 8.82 3.39-.863 4.245-1.145 5.16-7.632.566-4.557 5.464-8.955 4.956-13.15z"/>
  </g>
  <g fill-rule="evenodd" fill="#fff">
    <path d="M254.38 180.28c2.042 1.004 2.506 2.667 2.587 4.726.04 2.384.617 4.226 1.673 5.897-2.103.305-2.486-3.147-2.725-5.713-.242-2.656-.67-2.87-1.535-4.91z" transform="matrix(-2.039 0 0 1.9463 881.502 -42.498)" stroke="#000" stroke-width=".489"/>
    <path d="M362.835 308.38c-4.163 1.955-5.11 5.192-5.274 9.2-.08 4.64-1.256 8.225-3.41 11.477 4.288.594 5.07-6.125 5.557-11.12.493-5.17 1.368-5.583 3.13-9.556z"/>
  </g>
  <g fill-rule="evenodd" fill="#fff">
    <path d="M242.23 131.44c.18.97 1.36 1.058 1.016-.312-.286-1.112-.335-1.948 0-2.852.46-1.133.306-3.062-.04-3.867-.347-.85-1.5-.354-1.015.31.536.77.564 2.376.197 3.125-.483 1.106-.352 2.574-.156 3.594z" transform="matrix(2.0818 0 0 3.0397 -129.796 -193.086)" stroke="#000" stroke-width=".387"/>
    <path d="M374.47 206.457c.372 2.948 2.83 3.216 2.115-.95-.596-3.38-.698-5.92 0-8.668.955-3.446.637-9.31-.08-11.757-.726-2.583-3.126-1.07-2.116.952 1.11 2.343 1.167 7.22.403 9.496-1.005 3.363-.732 7.825-.324 10.926z"/>
  </g>
  <g fill-rule="evenodd" fill="#fff">
    <path d="M242.23 131.78c-.094.784 1.23.974 1.172-.163-.06-1.187-1.824-2.273-.742-4.08.57-.884.58-2.504.234-3.365-.303-.854-1.58-.296-1.094.37.534.77-.1 2.25-.508 2.993-1.225 2.166 1.01 3.22.938 4.245z" transform="matrix(-1.9157 0 0 4.087 845.476 -314.367)" stroke="#000" stroke-width=".348"/>
    <path d="M381.43 224.222c.18 3.204-2.358 3.98-2.245-.666.115-4.85 3.494-9.29 1.42-16.675-1.09-3.61-1.108-10.232-.447-13.75.58-3.49 3.025-1.21 2.096 1.507-1.023 3.15.19 9.196.973 12.237 2.347 8.852-1.935 13.164-1.797 17.35z"/>
  </g>
  <g fill-rule="evenodd" fill="#fff">
    <path d="M242.23 131.44c.18.97 1.36 1.058 1.016-.312-.286-1.112-.335-1.948 0-2.852.46-1.133.306-3.062-.04-3.867-.347-.85-1.5-.354-1.015.31.536.77.564 2.376.197 3.125-.483 1.106-.352 2.574-.156 3.594z" transform="matrix(-1.9157 0 0 1.9463 852.132 -42.178)" stroke="#000" stroke-width=".504"/>
    <path d="M388.086 213.644c-.342 1.887-2.603 2.06-1.946-.608.548-2.164.642-3.79 0-5.55-.88-2.206-.586-5.96.075-7.527.666-1.656 2.875-.687 1.946.607-1.02 1.5-1.074 4.623-.37 6.08.924 2.153.673 5.01.297 6.996z"/>
  </g>
  <g fill-rule="evenodd" fill="#fff">
    <path d="M374.235 217.334c-3.323 1.41-7.618-8.035-4.444-9.807 2.463-.62 8.098 8.01 4.446 9.807z" stroke="#000" stroke-width=".973"/>
    <path d="M374.235 217.334c-3.323 1.41-7.618-8.035-4.444-9.807 2.463-.62 8.098 8.01 4.446 9.807z"/>
  </g>
  <g fill-rule="evenodd" fill="#fff">
    <path d="M242.22 131.74c.18.97 1.234.857 1.32-.555-.012-1.006.432-2.074.267-2.87-.197-1.186-.906-2.386-1.25-3.19-.35-.85-1.142-.47-.806.273.386.954.75 2.098.876 2.905.208 1.555-.6 2.417-.405 3.437z" transform="matrix(2.367 -.9787 1.098 2.5207 -362.4 141.044)" stroke="#000" stroke-width=".367"/>
    <path d="M355.57 236.05c1.488 2.27 3.86.952 2.517-2.692-1.136-2.523-1.258-5.65-2.522-7.495-1.77-2.796-4.765-5.127-6.465-6.82-1.757-1.8-3.216-.064-1.605 1.48 1.957 2.03 4.08 4.554 5.26 6.467 2.2 3.716 1.23 6.68 2.814 9.06z"/>
  </g>
  <g fill-rule="evenodd" fill="#fff">
    <path d="M242.54 131.62c.18.97 1.484.926 1.14-.444-.285-1.112-.932-2.18-.597-3.085.46-1.13.57-3.077.226-3.882-.35-.85-1.47-.28-.987.385.534.77.114 2.925-.253 3.674-.482 1.106.274 2.334.47 3.354z" transform="matrix(2.367 -.9787 1.098 2.5207 -367.113 144.086)" stroke="#000" stroke-width=".367"/>
    <path d="M351.48 238.476c1.49 2.27 4.53.882 2.214-2.236-1.898-2.523-4.603-4.584-4.803-7.19-.155-3.306-2.027-8.32-3.73-10.012-1.755-1.802-3.784.733-1.906 1.934 2.11 1.42 3.482 7.262 3.435 9.51.07 3.26 3.21 5.615 4.792 7.994z"/>
  </g>
  <path stroke-linejoin="round" d="M220.83 343.95c4.512 3.6 8.765 7.687 10.037 12.773 1.328 4.737 2.13 8.363 5.172 13.077-4.767-3.042-6.66-7.637-8.06-12.624-1.234-4.9-4.058-8.562-7.15-13.227z" fill-rule="evenodd" stroke="#000" stroke-width=".973" fill="#fff"/>
  <path d="M220.83 343.95c4.512 3.6 8.765 7.687 10.037 12.773 1.328 4.737 2.13 8.363 5.172 13.077-4.767-3.042-6.66-7.637-8.06-12.624-1.234-4.9-4.058-8.562-7.15-13.227zm-5.157 0c4.208 3.446 6.938 7.382 8.21 12.467 1.328 4.738 3.195 8.515 5.933 12.774-4.46-3.04-7.265-7.18-8.668-12.165-1.232-4.9-2.686-8.563-5.475-13.075zm78.767 0c-4.302 3.466-7.093 7.425-8.394 12.54-1.357 4.766-3.265 8.566-6.064 12.85 4.56-3.06 7.427-7.223 8.86-12.24 1.26-4.928 2.746-8.613 5.597-13.15zm-5.295 0c-4.61 3.62-8.958 7.732-10.26 12.848-1.356 4.765-2.176 8.412-5.285 13.154 4.87-3.06 6.804-7.682 8.238-12.698 1.26-4.928 4.146-8.612 7.308-13.305zm-15.278 12.008c.124-.89-.482-1.666-1.21-1.9-1.42-.533-2.83-.967-4.237-1.368-1.6-.38-2.494.767-2.5 1.52-.007 1.254-.065 2.318 0 3.268.088 1.183.312 1.27 1.06 1.446 1.197.202 2.732.41 3.935 1.216.953.588 1.87.123 2.345-.91.308-.79.477-2.336.607-3.272zm-17.225 0c-.11-.89.357-1.742 1.007-1.976 1.265-.533 2.527-.663 3.86-.61 1.476-.022 1.85.313 1.853 1.066.008 1.253.06 2.47 0 3.42-.078 1.183-.052 1.27-.72 1.446-1.07.202-2.893.256-3.968 1.064-.852.588-1.823.123-1.87-.987.022-.834-.048-2.485-.164-3.42zm-20.902-.234c-.126-.89.484-1.666 1.215-1.9 1.425-.533 2.844-.967 4.257-1.368 1.606-.38 2.505.767 2.51 1.52.008 1.254.067 2.32 0 3.268-.087 1.184-.313 1.27-1.064 1.446-1.203.203-2.744.41-3.953 1.217-.957.588-1.878.123-2.357-.91-.31-.79-.48-2.337-.61-3.273zm17.302 0c.11-.89-.36-1.742-1.012-1.975-1.273-.535-2.54-.666-3.878-.61-1.485-.025-1.86.31-1.864 1.063-.008 1.254-.06 2.47 0 3.42.078 1.183.052 1.27.724 1.446 1.074.2 2.907.256 3.987 1.064.853.587 1.83.122 1.875-.987-.02-.837.05-2.488.166-3.424zm-16.018 7.902c1.545 2.914 3.32 7.35 6.537 6.538.053-2.23-3.47-3.776-6.535-6.538zm4.806.994c6.25 2.56 11.645 1.928 12.317 5.855-5.86.633-8.005-1.775-12.316-5.856zm30.636-.604c-1.567 2.746-3.366 6.928-6.627 6.163-.054-2.105 3.517-3.56 6.625-6.165zm-4.38.836c-6.34 2.43-11.813 1.83-12.496 5.558 5.948.6 8.123-1.684 12.496-5.558z" fill-rule="evenodd" fill="#fff"/>
  <path d="M286.79 302.57l13.61.003c.052 5.144 3.066 10.67 7.3 13.836h-26.08c4.08-3.7 5.196-8.087 5.17-13.84z" fill-opacity=".534" fill-rule="evenodd" stroke="#000" stroke-width=".973" fill="#fff"/>
  <path d="M286.79 302.57l13.61.003c.052 5.144 3.066 10.67 7.3 13.836h-26.08c4.08-3.7 5.196-8.087 5.17-13.84z" fill-rule="evenodd" fill="#fff"/>
  <path d="M189.69 385.756c-.75.572-.7 2.29.76 2.888 13.593 4.877 26.717 13.89 64.476 13.535 38.12-.36 51.516-9.158 63.716-13.23 1.625-.62 3.155-1.88 1.064-3.65-6.855-5.604-14.264-10.108-19.16-17.033-.87-1.245-3.242-.54-4.715 0-14.55 5.11-27.992 8.692-41.97 8.667-13.645-.025-27.87-3.784-40.676-9.046-1.226-.525-3.234.065-4.182.985-5.94 5.92-12.403 11.663-19.31 16.88z" stroke="#000" stroke-width=".487" fill="none"/>
  <path d="M208.004 376.394c-1.637-1.055-2.374.317-1.216 1.75 1.502 1.648 3.933 2.64 6.46 3.345 1.477.41 4.523-.11 6.086.074 1.216.152 1.903 2.606 4.106 2.51 2.223-.096 3.65-6.007 3.726-8.973.1-1.965-2.616-.71-2.357.08.71 1.953-.594 6.312-1.98 6.31-1.02-.064-2.114-2.178-3.65-2.434-1.2-.2-3.022.14-4.26.15-3.612.036-5.17-1.766-6.917-2.813z" fill-rule="evenodd"/>
  <path d="M211.06 374.798c1.93.963 3.614-.76 4.716.457 2.814 3.194 6.434-1.53 2.205-1.368-1.71.066-1.975-1.294-4.942-.99-1.578.202-2.9 1.364-1.977 1.9zm.448 13.994c-1.524-.666-2.036.782-1.14 1.674 1.256 1.148 6.478 1.605 7.755.685 2.112-1.6.568-5.81-.38-6.995-.59-.722-2.374-.777-1.673 1.142.29.89 1.586 3.103.53 4.105-.964.924-3.635 0-5.092-.608zm11.716 1.285c.335-.86-.568-2.338-2.13-.61-1.29 1.363-.244 7.106 3.878 8.136 4.03.99 7.048-.46 7.602-2.66.384-1.466-1.823-2.74-.683-4.032.954-1.01 2.79.014 3.576-1.593.46-.902.496-2.75-1.978-3.955-1.072-.538-2.93.692-2.89 1.6.058 1.246 1.99.433 1.292 1.52-.51.826-2.794.48-3.496 2.43-.42 1.24 2.584 3.53.988 4.108-1.424.493-3.28.812-5.17-.228-1.17-.618-1.665-3.18-.988-4.713zm-14.52-7.902c-.957.14-2.28.836-2.354 1.977-.06.915.695 2.5 1.977 1.442 1.324-1.027.308-1.514.608-1.14.66.66-.308.714-1.52 2.36-.845 1.246-2.65 1.046-3.574.606-1.594-.823-.996-1.35-2.736-2.13-1.738-.854-2.79 1.15-1.14 2.054 1.823 1.045 4.81 3.133 7.755 1.598 1.75-.99 3.8-1.89 3.724-4.107-.1-1.44-.74-2.94-2.738-2.66zm94.572-.76c-1.345-.96-.522-2.705 1.446-2.053 1.674.62 4.453 2.59 4.636 5.17.208 2.824-4.34 4.89-6.08 4.793-2.98-.24-2.45-2.604-.23-2.435 1.72.125 3.834-.488 3.955-2.28.1-1.556-2.758-2.46-3.727-3.195zm-9.81-6.91c-1.738-1.752 1.9-3.65 2.964-1.52 1.404 2.708 3.074 5.373 4.335 8.364 1.004 2.453-.313 2.785-1.14 1.442-1.384-2.335-3.48-5.46-6.16-8.287zm-8.506 5.237c1.87-.814 1.825 1.52 1.14 1.977-1.234.685-2.89-1.14-1.14-1.98zm5.548-2.044c1.87-.813 1.824 1.52 1.14 1.977-1.236.688-2.89-1.14-1.14-1.977z" fill-rule="evenodd"/>
  <path d="M232.49 380.968c-2.808-1.793.57-4.467 2.507-2.433 2.778 2.836 5.433 9.05 7.53 11.405 1.992 2.314.386-6.275.987-8.82.41-1.415 1.517-1.217 1.52.15.01 3.5-.53 10.62.38 11.18 1.7.966 1.394 2.545 2.812 2.28 1.522-.362 1.295-.76 2.663-.837 1.355 0 1.4 1.36 2.964 1.14.997-.13 1.296-1.26 2.507-1.294 1.105-.095.63 2.342-.073 2.737-1.146.644-4.716-.7-5.78-.607-1.264.034-3.54 1.207-4.942.684-1.71-.61-1.33-2.78-2.51-2.433-1.332.31-1.08 2.736-4.255 3.5-1.486.34-1.987-.997-1.216-1.9 1.38-1.477 4.16-2.655 3.725-4.03-1.288-3.835-5.175-8.454-8.82-10.72zm24.405.525c1.35 4.438 1.283 10.34 2.054 14.372.377 1.586 1.895.173 1.747-1.065-.597-4.33-.86-9.646-1.977-13.762-.462-1.425-2.34-1.148-1.825.455zm3.737 1.15c-.356-1.85 1.415-2.025 1.674-.916.913 3.57.796 11.744 2.585 12.014 3.088.355 7.417-.284 11.255-1.062 1.888-.376 2.275-1.742 2.205-2.283-.363-2.196 1.687-2.022 2.204.305.28 1.214-.272 3.392-2.584 3.876-4.518.872-10.736 2.217-14.296 1.445-3.118-.66-2.102-8.71-3.042-13.377z" fill-rule="evenodd"/>
  <path d="M265.654 385.834c.077-2.342 1.835-2.686 1.823-.686.05 4.79 5.656 3.547 6.845 1.75.878-1.4.236-2.004-.61-3.573-1.05-2.03 1.175-2.602 2.13-.837.715 1.263 1.21 5.29-.075 6.312-1.78 1.41-6.594 2.104-8.67.53-1.1-.758-1.53-2.214-1.443-3.496zm-2.434-6.248c.25 1.5 4.333.99 4.18-.152-.14-.98-4.407-.76-4.18.152zm5.314 1.226c.16 1.512 2.803 1.067 2.66-.076-.14-1.208-2.812-1.446-2.66.076zm7.98-1.83c-1.34-1.852 1.27-1.97 2.13-.607 2.226 3.33 3.693 8.694 5.854 12.317.918 1.67 2.07.177 2.205-.228.144-.43-.7-1.09-.76-2.585-.106-1.164 2.27-2.608 3.954-1.52 1.574 1.06.286 2 1.064 2.583.744.556 2.616.206 2.893-.152.83-1.305-.302-.54-1.446-1.293-1.324-.948-.53-5.055 2.205-3.346 1.628.943 2.107 3.954 1.52 5.628-.517 1.55-3.24 2.077-4.713 1.748-1.66-.506-3-2.502-2.66-1.977.82 1.35-.204 2.68-.99 3.194-1.94 1.218-3.298 1.857-4.714-.152-2.51-3.76-3.893-10.103-6.54-13.61z" fill-rule="evenodd"/>
  <path d="M205.65 121.273c-.112-2.246 3.37-2.418 2.97.67-.51 3.85 7.265 13.592 7.91 19.6.43 4.03-2.368 7.555-5.14 9.75-3.397 2.632-8.623 2.27-11.068.76-1.48-1.19-2.828-5.268-1.72-6.882.39-.54 2.162 5.987 6.062 5.96 5.308-.033 9.607-4.02 9.765-7.576.27-6.193-8.684-15.982-8.78-22.28zm15.55 15.297c.878-.626 2.28 2.112 1.29 2.797-.823.548-2.43-2.036-1.29-2.796zm2.336-5.546c-.444.215-1.326-.09-1.063-.467 1.242-1.774 3.89-4.444 5.808-5.377.59-.286 1.623.755 1.267 1.265-1.148 1.64-3.943 3.576-6.01 4.58zm20.534-16.29c.492-1.028 3.448-2.19 4.2-2.885.698-.716 1.03.6.733 1.223-.492 1.027-3.044 2.762-4.163 2.81-.602.024-1.07-.53-.77-1.15zm7.006.33c.64-1.804 2.705-4.54 4.126-5.44.73-.46 2.04-.098 1.794.594-.543 1.53-3.07 4.205-4.768 5.465-.516.46-1.3-.2-1.152-.62zm-6.014 4.516c-.428.214-.197 1.126.216 1.264.878.292 2.475.35 3.2-.05 1.05-.648.572-4.634-.835-2.505-.944 1.312-1.633.89-2.58 1.29zm-11.872 9.147c-2.147-1.672.577-4.014 2.82-2.378 4.373 3.295-6.52 15.93-12.447 21.833-1.084 1.157-2.036-1.756-.646-3.01 4.25-3.605 8.227-7.91 10.992-12.36.532-.855 1.042-2.7-.72-4.087zm24.873-10.86c.267-1.6-2.59.033-2.64-2.088-.028-1.124 3.12-1.91 4.435-.62 2.222 2.254.56 6.06-3.136 6.297-3.08.136-8.22 4.374-7.44 5.265.89 1.1 8.88 1.827 13.526 1.1 2.877-.404 2.273 2.17-.673 2.517-2.848.327-5.168.023-7.828.86-3.132.894-4.498 5.1-6.238 6.666-.39.273-1.435-1.378-1.038-1.998 1.254-1.962 3.253-4.962 5.452-5.82 1.388-.563-3.826-.74-5.49-1.215-1.32-.398-.937-2.075-.43-3.01.67-1.46 5.585-6.38 7.567-6.3 1.86.078 3.747-.464 3.93-1.658zm8.29.428c.926-.815 1.4-2.18 2.368-3.01.533-.533 1.38.105 1.24 1.39-.12 1.01-1.477 1.883-2.39 2.643-.744.557-1.61-.645-1.215-1.023zm10.53-3.755c1.377-.153 1.72 2.503.215 2.933-.913.305-1.71-2.777-.214-2.934zm-3.463 8.212c-.022 2.287 1.107 2.077 3.26 2 2.092-.08 3.93.053 3.923-2.013-.01-2.143-1.185-4.016-1.53-2.56-.303 1.37-.545 3.61-1.34 2.634-.752-.84-.454-1.023-1.746.354-.717.758-.798-.37-1.23-1.076-.298-.42-1.336.338-1.338.658zm-15.026 11.678c-.514 3.027-.043 7.264 1.506 7.312 1.916.062 5.878-6.617 7.754-10.082 1.125-1.933 3.058-2.27 2.252-.254-1.22 3.113-1.11 9.772-.04 11.728.577 1.054 4.83-.966 5.517-2.467 1.25-2.73.234-7.758.672-10.83.212-2.016 2.057-2.437 1.96-.568-.183 3.342-.5 9.472-.265 12.256.14 1.6 4.716 3.962 5.45-.884.39-3.05 1.96-6.06-.074-9.44-1.262-2.112 1.85-1.847 3.528 1.04 1.174 1.964-.99 5.215-.913 7.73.197 3.865-2.81 6.06-4.992 6.107-1.95.04-3.22-2.357-4.82-2.39-1.772-.114-3.594 2.76-5.06 2.656-5.68-.388-2.672-8.69-4.402-8.79-1.925-.114-4.194 8.135-6.565 7.84-2.336-.28-4.755-6.722-3.782-9.448.88-2.538 2.538-3.132 2.277-1.52z" fill-rule="evenodd" stroke="#000" stroke-width=".973" fill="#fff"/>
  <path d="M285.895 121.33c-2.77-1.69.175-6.085 1.53-4.54 2.616 3.132 5.253 10.568 7.096 11.182 1.17.39 1.115-5.496 1.94-8.172.53-1.977 2.92-1.33 2.463 1.2-.156.847-3.122 10.463-2.894 10.843 2.054 4.11 4.09 8.28 5.374 12.69.532 1.9-1.75.62-2.024.224-1.46-2.18-4.01-10.51-4.01-10.13-1.174 5.86-1.45 7.59-2.696 12.572-.38 1.595-2.73 1.304-2.2-1.507.51-2.31 3.87-13.674 3.68-14.003-2.64-4.66-5.055-8.35-8.26-10.36z" fill-rule="evenodd" stroke="#000" stroke-width=".973" fill="#fff"/>
  <path d="M290.897 148.366c-.773-.088-1.97 1.718 1.876 2.428 5.142.93 10.77-.8 12.496-5.843 1.973-6.004 3.28-11.69 4.31-13.836 1.29-2.5 2.938-2.298 1.72-5.948-.857-2.626-2.46-1.834-2.796-.43-.9 3.83-4.31 16.214-5.375 18.495-2.01 4.163-6.058 5.81-12.234 5.137z" fill-rule="evenodd" stroke="#000" stroke-width=".973" fill="#fff"/>
  <path d="M301.193 128.61c-.55-1.18-1.835-.266-1.606 1.026.137 1.168 1.084 1.803 2.036 1.77 1.127-.04 3.51.038 3.517-1.833.004-1.315-1.03-2.413-1.796-.962-.734 1.315-1.678 1.177-2.15 0zm1.285-4.943c-.395.274-.04 1.736.43 1.72 1.68-.056 4.06-.592 5.335-1.48.373-.26.218-1.142-.314-1.124-1.62.054-4.198.01-5.453.884zm14.266 3.678c1.216-1.9 4.572-2.094 3.365.62-.856 1.87-9.21 18.01-10.35 20.062-1.244 2.308-2.26 1.165-1.378-.632 1.19-2.313 7.98-19.488 8.36-20.05z" fill-rule="evenodd" stroke="#000" stroke-width=".973" fill="#fff"/>
  <path d="M304.17 151.382c-.355-1.284-2.348-3.184-2.124.252.397 6.238 8.966 4.266 11.56 2.05 2.356-2.088.312 7.04 3.442 8.018 1.724.553 4.97-1.8 6.566-3.87 4.426-5.744 7.243-13.976 11.5-19.647 1.607-2.217-.88-3.8-1.887-2.035-3.702 6.207-8.3 18.874-13.32 22.164-4.093 2.62-2.88-3.373-3.023-5.173-.18-1.32-1.79-3.262-3.935-1.48-1.503 1.174-3.835 2.128-5.946 1.937-1.225-.068-2.258-.047-2.834-2.213z" fill-rule="evenodd" stroke="#000" stroke-width=".973" fill="#fff"/>
  <path d="M319.47 139.802c.044-.352-1.813-.512-1.722 1.29.065 1.334 1.66 1.697 1.935 1.506 2.51-1.826-.533-.916-.214-2.796zm-3.66 7.298c-.495.116-.948 1.694.216 1.784 1.064.076 5.235-.372 6.388-.304.745-.028 1.03-1.453-.57-1.378-1.937.098-4.485-.388-6.034-.102zm27.618-1.85c1.71-6.41 5.854.99 2.205 4.64-5.635 5.518-7.332 16.054-16.27 17.64-2.41.518-6.652-1.084-7.91-1.977-.49-.35.318-2.638 1.825-1.52 2.178 1.7 6.676 2.084 9.05.15 5.08-4.985 9.216-11.588 11.1-18.932zm-92.878 14.248c-.403.464-1.635.388-1.746 1.038-.484 2.41 0 3.633-.53 5.955-.51 2.225-2.052 2.31-1.947.497.14-2.35 2.077-5.666.708-5.894-.91-.214-1.613-1.432-.67-2.034 1.778-1.234 2.733-1.046 3.956-.674.428.13.537.757.23 1.113z" fill-rule="evenodd" stroke="#000" stroke-width=".973" fill="#fff"/>
  <path d="M249.305 156.345c-2.36 2.063-4.547 2.906-6.717 5.514-.887 1.067-.862 2.556-1.392 3.92-.53 1.444-2.24 1.73-2.77 1.427-.885-.582-.756-3.264-1.745-1.82-.837 1.33-1.38 3.16-2.62 3.137-1.12-.023-3.234-2.316-2.162-2.427 3.67-.375 3.624-3.312 4.998-3.505 1.542-.206 1.643 2.425 2.595 1.898.748-.383 1.1-3.448 1.91-4.275 2.49-2.542 4.457-3.885 6.995-5.754 1.284-1.02 2.2.826.91 1.886zm8.602 7.902c-1.888.382-1.566 2.81-1.012 3.11.915.427 2.33.606 2.86-2.185.247-1.147.47 5.7 2.983 3.06 1.446-1.597 5.03.29 6.53-1.72 1.074-1.338 1.405-2.272.568-4.25-.243-.6-1.714-.305-1.63 1.154.073 1.23-.873 2.748-2.103 2.49-.597-.11.337-3.01-.263-3.796-.33-.432-.833-.385-1.16.063-.463.626.462 3.406-1.054 3.772-1.914.44-.91-1.86-1.72-2.28-2.605-1.313-2.856.34-4 .582zm14.733-4.67c1.385-.39.953-.39 3.13-2.175.85-.642 1.016 1.238.927 1.982-.158 1.263-1.658.37-2.123 1.483-.682 1.444-.405 4.803-.633 6.17-.154.704-1.28.644-1.39.09-.32-1.67.23-3.302.177-5.388-.017-.71-1.03-1.82-.085-2.165zm-6.5-7.514c-.335 1.51-.31 2.754-.31 3.79.077.836 1.606.297 1.6.19-.075-1.326.226-3.16-.165-3.67-.212-.276-1.047-.594-1.125-.31z" fill-rule="evenodd" stroke="#000" stroke-width=".973" fill="#fff"/>
  <path d="M205.65 121.273c-.112-2.246 3.37-2.418 2.97.67-.51 3.85 7.265 13.592 7.91 19.6.43 4.03-2.368 7.555-5.14 9.75-3.397 2.632-8.623 2.27-11.068.76-1.48-1.19-2.828-5.268-1.72-6.882.39-.54 2.162 5.987 6.062 5.96 5.308-.033 9.607-4.02 9.765-7.576.27-6.193-8.684-15.982-8.78-22.28z" fill-rule="evenodd" fill="#fff"/>
  <path d="M214.894 119.97c.662.03 2.476 2.38 2.357 3.116-.08.347-1.94-.05-2.507-.532-.42-.356-.25-2.604.152-2.585zm-8.747 17.027c-1.658.905.263 2.69 1.505 1.936 4.66-3.018 11.656-6.19 13.118-12.167.47-2.025 2.35-5.13 4.138-5.822 1.726-.67 4.233 3.124 5.87.14.96-1.707 4.323 1.12 5.134-.707.99-2.205.518-3.42.56-5.53-.073-1.384-1.13-1.797-1.897.443-.4 1.014.07 2.038-.255 2.567-.247.403-1.018.792-1.465.456-.413-.31-.127-1.173-1.116-1.555-.385-.192-1-.352-1.267.14-1.173 2.092-1.823 4.044-3.466 1.82-1.464-1.916-2.205-5.228-3.278-.696-.386 1.6-2.817 3.92-4.25 3.92-1.79 0-1.34-4.713-5.276-3.996-2.022.432-1.882 4.3-1.58 5.73.496 1.988 6.405.56 6.11 1.86-1.01 4.515-7.276 8.807-12.588 11.46z" fill-rule="evenodd" stroke="#000" stroke-width=".973" fill="#fff"/>
  <path d="M169.156 158.506c-.25.755.753 2.806 1.795 2.958 1.023.076 1.545-2.215 1.216-2.958-.243-.547-2.83-.535-3.01 0zm5.41 7.96c-.655-.706-2.59 1.19-1.025 2.53.88.71 4.095 1.742 4.975.242 1.19-1.93-1.174-8.942-.127-9.868.818-.724 4.607 4.683 6.478 5.072 4.394.61 3.34-7.524 8.075-6.972 3.228.43 3.58-3.602 3.13-6.12-.36-2.416-4.27-5.904-6.07-7.464-2.365-1.97-3.42 1.452-1.935 2.58 1.912 1.53 5.273 4.623 5.808 6.668.253.965-2.335 2.884-3.29 2.365-2.2-1.203-4.248-6.353-6.173-7.53-.657-.4-2.27.505-1.494 2.11.874 1.724 4.734 4.39 4.96 6.227.204 1.676-1.72 5.3-2.984 5.3-1.39 0-4.932-4.38-6.038-6.44-.552-.987-2.467-.892-2.668.47-.317 2.046.296 6.375.784 9.057.388 2.54-1.43 2.668-2.403 1.77zM167.93 152.5c-.553.626 1.29 1.85 1.656 1.53.71-.614 3.47-3.758 2.937-4.857-.473-.98-4.266-3.126-4.883-2.063-1.145 1.84 3.575 2.663 2.836 3.202-.364.21-1.662 1.105-2.546 2.19zm6.812-13.778s1.185 4.055 2.15 2.365c.78-1.17-2.15-2.365-2.15-2.365zm1.928 6.452c-.435.237-1.658 1.205-.86 1.72 1.258.745 4.683 1.335 3.944-1.1-.45-1.436 5.165.04 3.797-3.846-.356-1.075-2.05-2.627-2.883-2.846-.53-.14-2.327.847-1.202 1.39.82.426 3.3 1.88 2.378 2.835-1.045.997-1.773-.448-3.073-.215-.655.124-.23 1.985-.597 2.492-.206.282-1.15-.623-1.504-.43zm8.913-15.42c-.71.353-1.978 2.274-2.024 3.162-.028.474.492 1.125.897.923.743-.373 1.892-2.19 1.934-3.026.03-.527-.37-1.28-.81-1.062zm4.632-.494c-1.368-1.672 1.452-4.155 2.72-.807.768 2.1 8.942 12.857 10.614 16.507 1.18 2.47-.045 3.49-1.508 1.72-4.14-5.282-7.536-11.865-11.828-17.42zm8.39.215c1.456-1.58 4.432-4.805 3.63-6.604-.615-1.545-2.423-1.39-2.73-1.034-1.77 2.11 1.255 1.58.82 2.303-.9 1.69-1.8 2.622-2.264 4.25-.107.38.28 1.37.545 1.086z" stroke-width=".973" stroke-linejoin="round" fill-rule="evenodd" stroke="#000" fill="#fff"/>
  <path d="M169.156 158.506c-.25.755.753 2.806 1.795 2.958 1.023.076 1.545-2.215 1.216-2.958-.243-.547-2.83-.535-3.01 0zm5.41 7.96c-.655-.706-2.59 1.19-1.025 2.53.88.71 4.095 1.742 4.975.242 1.19-1.93-1.174-8.942-.127-9.868.818-.724 4.607 4.683 6.478 5.072 4.394.61 3.34-7.524 8.075-6.972 3.228.43 3.58-3.602 3.13-6.12-.36-2.416-4.27-5.904-6.07-7.464-2.365-1.97-3.42 1.452-1.935 2.58 1.912 1.53 5.273 4.623 5.808 6.668.253.965-2.335 2.884-3.29 2.365-2.2-1.203-4.248-6.353-6.173-7.53-.657-.4-2.27.505-1.494 2.11.874 1.724 4.734 4.39 4.96 6.227.204 1.676-1.72 5.3-2.984 5.3-1.39 0-4.932-4.38-6.038-6.44-.552-.987-2.467-.892-2.668.47-.317 2.046.296 6.375.784 9.057.388 2.54-1.43 2.668-2.403 1.77zM167.93 152.5c-.553.626 1.29 1.85 1.656 1.53.71-.614 3.47-3.758 2.937-4.857-.473-.98-4.266-3.126-4.883-2.063-1.145 1.84 3.575 2.663 2.836 3.202-.364.21-1.662 1.105-2.546 2.19zm6.812-13.778s1.185 4.055 2.15 2.365c.78-1.17-2.15-2.365-2.15-2.365zm1.928 6.452c-.435.237-1.658 1.205-.86 1.72 1.258.745 4.683 1.335 3.944-1.1-.45-1.436 5.165.04 3.797-3.846-.356-1.075-2.05-2.627-2.883-2.846-.53-.14-2.327.847-1.202 1.39.82.426 3.3 1.88 2.378 2.835-1.045.997-1.773-.448-3.073-.215-.655.124-.23 1.985-.597 2.492-.206.282-1.15-.623-1.504-.43zm8.913-15.42c-.71.353-1.978 2.274-2.024 3.162-.028.474.492 1.125.897.923.743-.373 1.892-2.19 1.934-3.026.03-.527-.37-1.28-.81-1.062zm4.632-.494c-1.368-1.672 1.452-4.155 2.72-.807.768 2.1 8.942 12.857 10.614 16.507 1.18 2.47-.045 3.49-1.508 1.72-4.14-5.282-7.536-11.865-11.828-17.42zm8.39.215c1.456-1.58 4.432-4.805 3.63-6.604-.615-1.545-2.423-1.39-2.73-1.034-1.77 2.11 1.255 1.58.82 2.303-.9 1.69-1.8 2.622-2.264 4.25-.107.38.28 1.37.545 1.086zM304.17 151.382c-.355-1.284-2.348-3.184-2.124.252.397 6.238 8.966 4.266 11.56 2.05 2.356-2.088.312 7.04 3.442 8.018 1.724.553 4.97-1.8 6.566-3.87 4.426-5.744 7.243-13.976 11.5-19.647 1.607-2.217-.88-3.8-1.887-2.035-3.702 6.207-8.3 18.874-13.32 22.164-4.093 2.62-2.88-3.373-3.023-5.173-.18-1.32-1.79-3.262-3.935-1.48-1.503 1.174-3.835 2.128-5.946 1.937-1.225-.068-2.258-.047-2.834-2.213zM221.2 136.57c.878-.626 2.28 2.112 1.29 2.797-.823.548-2.43-2.036-1.29-2.796z" fill-rule="evenodd" fill="#fff"/>
  <path d="M325.327 134.76c-1.047-.847 1.03-4.958 2.435-3.345 3.858 4.464 5.65 18.958 6.765 29.806 0 0-1.734 1.448-1.747 1.218 0-5.778-2.322-23.456-7.453-27.676z" fill-rule="evenodd" stroke="#000" stroke-width=".973" fill="#fff"/>
  <path d="M223.536 131.024c-.444.215-1.326-.09-1.063-.467 1.242-1.774 3.89-4.444 5.808-5.377.59-.286 1.623.755 1.267 1.265-1.148 1.64-3.943 3.576-6.01 4.58zm101.79 3.736c-1.046-.847 1.03-4.958 2.436-3.345 3.858 4.464 5.65 18.958 6.765 29.806 0 0-1.734 1.448-1.747 1.218 0-5.778-2.322-23.456-7.453-27.676z" fill-rule="evenodd" fill="#fff"/>
  <path d="M327.702 160.082c.696-1.94 9.96-17.49 11.177-20.91.62-1.65 3.28 2.83.683 5.245-2.28 2.053-9.01 13.09-10.266 16.957-.578 1.746-2.332.915-1.596-1.292z" fill-rule="evenodd" stroke="#000" stroke-width=".973" fill="#fff"/>
  <path d="M258.063 117.867c.267-1.6-2.59.033-2.64-2.088-.028-1.124 3.12-1.91 4.435-.62 2.222 2.254.56 6.06-3.136 6.297-3.08.136-8.22 4.374-7.44 5.265.89 1.1 8.88 1.827 13.526 1.1 2.877-.404 2.273 2.17-.673 2.517-2.848.327-5.168.023-7.828.86-3.132.894-4.498 5.1-6.238 6.666-.39.273-1.435-1.378-1.038-1.998 1.254-1.962 3.253-4.962 5.452-5.82 1.388-.563-3.826-.74-5.49-1.215-1.32-.398-.937-2.075-.43-3.01.67-1.46 5.585-6.38 7.567-6.3 1.86.078 3.747-.464 3.93-1.658zm-24.873 10.86c-2.147-1.672.577-4.014 2.82-2.378 4.373 3.295-6.52 15.93-12.447 21.833-1.084 1.157-2.036-1.756-.646-3.01 4.25-3.605 8.227-7.91 10.992-12.36.532-.855 1.042-2.7-.72-4.087z" fill-rule="evenodd" fill="#fff"/>
  <path d="M238.834 120.65c-1.248-2.868 1.872-3.93 2.34-1.885 2.167 9.42 7.358 16.554 11.31 22.96 1.188 2.003.235 3.197-2.658 1.354-2.002-1.376-4.036-6.383-5.02-6.58-1.784-.33-6.05 8.134-14.777 5.72-2.26-.633-2.11-7.347-2.153-10.31-.095-1.39 1.44-1.76 1.493.137.08 2.734-.003 8.413 3.494 8.604 2.852.16 9.167-3.87 10.5-7.022 1.184-3.24-3.182-9.68-4.53-12.98z" fill-rule="evenodd" stroke="#000" stroke-width=".973" fill="#fff"/>
  <path d="M214.894 119.97c.662.03 2.476 2.38 2.357 3.116-.08.347-1.94-.05-2.507-.532-.42-.356-.25-2.604.152-2.585zm-8.747 17.027c-1.658.905.263 2.69 1.505 1.936 4.66-3.018 11.656-6.19 13.118-12.167.47-2.025 2.35-5.13 4.138-5.822 1.726-.67 4.233 3.124 5.87.14.96-1.707 4.323 1.12 5.134-.707.99-2.205.518-3.42.56-5.53-.073-1.384-1.13-1.797-1.897.443-.4 1.014.07 2.038-.255 2.567-.247.403-1.018.792-1.465.456-.413-.31-.127-1.173-1.116-1.555-.385-.192-1-.352-1.267.14-1.173 2.092-1.823 4.044-3.466 1.82-1.464-1.916-2.205-5.228-3.278-.696-.386 1.6-2.817 3.92-4.25 3.92-1.79 0-1.34-4.713-5.276-3.996-2.022.432-1.882 4.3-1.58 5.73.496 1.988 6.405.56 6.11 1.86-1.01 4.515-7.276 8.807-12.588 11.46zm32.687-16.347c-1.248-2.868 1.872-3.93 2.34-1.885 2.167 9.42 7.358 16.554 11.31 22.96 1.188 2.003.235 3.197-2.658 1.354-2.002-1.376-4.036-6.383-5.02-6.58-1.784-.33-6.05 8.134-14.777 5.72-2.26-.633-2.11-7.347-2.153-10.31-.095-1.39 1.44-1.76 1.493.137.08 2.734-.003 8.413 3.494 8.604 2.852.16 9.167-3.87 10.5-7.022 1.184-3.24-3.182-9.68-4.53-12.98zm5.236-5.917c.492-1.027 3.448-2.19 4.2-2.884.698-.716 1.03.6.733 1.223-.492 1.027-3.044 2.762-4.163 2.81-.602.024-1.07-.53-.77-1.15zm7.006.33c.64-1.803 2.705-4.54 4.126-5.44.73-.46 2.04-.097 1.794.595-.543 1.53-3.07 4.205-4.768 5.465-.516.46-1.3-.2-1.152-.62zm-6.014 4.517c-.428.214-.197 1.126.216 1.264.878.292 2.475.35 3.2-.05 1.05-.648.572-4.634-.835-2.505-.944 1.312-1.633.89-2.58 1.29zm21.292-1.285c.925-.815 1.398-2.18 2.367-3.01.533-.533 1.38.105 1.24 1.39-.12 1.01-1.477 1.883-2.39 2.643-.744.557-1.61-.645-1.215-1.023zm10.53-3.755c1.376-.153 1.718 2.503.214 2.933-.913.305-1.71-2.777-.214-2.934zm-3.464 8.212c-.022 2.287 1.107 2.077 3.26 2 2.092-.08 3.93.053 3.923-2.013-.01-2.143-1.185-4.016-1.53-2.56-.303 1.37-.545 3.61-1.34 2.634-.752-.84-.454-1.023-1.746.354-.717.758-.798-.37-1.23-1.076-.298-.42-1.336.338-1.338.658zm-15.026 11.678c-.514 3.027-.043 7.264 1.506 7.312 1.916.062 5.878-6.617 7.754-10.082 1.125-1.933 3.058-2.27 2.252-.254-1.22 3.113-1.11 9.772-.04 11.728.577 1.054 4.83-.966 5.517-2.467 1.25-2.73.234-7.758.672-10.83.212-2.016 2.057-2.437 1.96-.568-.183 3.342-.5 9.472-.265 12.256.14 1.6 4.716 3.962 5.45-.884.39-3.05 1.96-6.06-.074-9.44-1.262-2.112 1.85-1.847 3.528 1.04 1.174 1.964-.99 5.215-.913 7.73.197 3.865-2.81 6.06-4.992 6.107-1.95.04-3.22-2.357-4.82-2.39-1.772-.114-3.594 2.76-5.06 2.656-5.68-.388-2.672-8.69-4.402-8.79-1.925-.114-4.194 8.135-6.565 7.84-2.336-.28-4.755-6.722-3.782-9.448.88-2.538 2.538-3.132 2.277-1.52z" fill-rule="evenodd" fill="#fff"/>
  <path d="M285.895 121.33c-2.77-1.69.175-6.085 1.53-4.54 2.616 3.132 5.253 10.568 7.096 11.182 1.17.39 1.115-5.496 1.94-8.172.53-1.977 2.92-1.33 2.463 1.2-.156.847-3.122 10.463-2.894 10.843 2.054 4.11 4.09 8.28 5.374 12.69.532 1.9-1.75.62-2.024.224-1.46-2.18-4.01-10.51-4.01-10.13-1.174 5.86-1.45 7.59-2.696 12.572-.38 1.595-2.73 1.304-2.2-1.507.51-2.31 3.87-13.674 3.68-14.003-2.64-4.66-5.055-8.35-8.26-10.36z" fill-rule="evenodd" fill="#fff"/>
  <path d="M290.897 148.366c-.773-.088-1.97 1.718 1.876 2.428 5.142.93 10.77-.8 12.496-5.843 1.973-6.004 3.28-11.69 4.31-13.836 1.29-2.5 2.938-2.298 1.72-5.948-.857-2.626-2.46-1.834-2.796-.43-.9 3.83-4.31 16.214-5.375 18.495-2.01 4.163-6.058 5.81-12.234 5.137z" fill-rule="evenodd" fill="#fff"/>
  <path d="M301.193 128.61c-.55-1.18-1.835-.266-1.606 1.026.137 1.168 1.084 1.803 2.036 1.77 1.127-.04 3.51.038 3.517-1.833.004-1.315-1.03-2.413-1.796-.962-.734 1.315-1.678 1.177-2.15 0zm1.285-4.943c-.395.274-.04 1.736.43 1.72 1.68-.056 4.06-.592 5.335-1.48.373-.26.218-1.142-.314-1.124-1.62.054-4.198.01-5.453.884zm14.266 3.678c1.216-1.9 4.572-2.094 3.365.62-.856 1.87-9.21 18.01-10.35 20.062-1.244 2.308-2.26 1.165-1.378-.632 1.19-2.313 7.98-19.488 8.36-20.05zm2.726 12.457c.044-.352-1.813-.512-1.722 1.29.065 1.334 1.66 1.697 1.935 1.506 2.51-1.826-.533-.916-.214-2.796z" fill-rule="evenodd" fill="#fff"/>
  <path d="M327.702 160.082c.696-1.94 9.96-17.49 11.177-20.91.62-1.65 3.28 2.83.683 5.245-2.28 2.053-9.01 13.09-10.266 16.957-.578 1.746-2.332.915-1.596-1.292z" fill-rule="evenodd" stroke="#000" stroke-width=".973" fill="#fff"/>
  <path d="M315.81 147.1c-.495.116-.948 1.694.216 1.784 1.064.076 5.235-.372 6.388-.304.745-.028 1.03-1.453-.57-1.378-1.937.098-4.485-.388-6.034-.102zm11.892 12.982c.696-1.94 9.96-17.49 11.177-20.91.62-1.65 3.28 2.83.683 5.245-2.28 2.053-9.01 13.09-10.266 16.957-.578 1.746-2.332.915-1.596-1.292z" fill-rule="evenodd" fill="#fff"/>
  <path d="M343.428 145.25c1.71-6.41 5.854.99 2.205 4.64-5.635 5.518-7.332 16.054-16.27 17.64-2.41.518-6.652-1.084-7.91-1.977-.49-.35.318-2.638 1.825-1.52 2.178 1.7 6.676 2.084 9.05.15 5.08-4.985 9.216-11.588 11.1-18.932z" fill-rule="evenodd" stroke="#000" stroke-width=".973" fill="#fff"/>
  <path d="M343.428 145.25c1.71-6.41 5.854.99 2.205 4.64-5.635 5.518-7.332 16.054-16.27 17.64-2.41.518-6.652-1.084-7.91-1.977-.49-.35.318-2.638 1.825-1.52 2.178 1.7 6.676 2.084 9.05.15 5.08-4.985 9.216-11.588 11.1-18.932zm-85.52 18.997c-1.89.382-1.567 2.81-1.013 3.11.915.427 2.33.606 2.86-2.185.247-1.147.47 5.7 2.983 3.06 1.446-1.597 5.03.29 6.53-1.72 1.074-1.338 1.405-2.272.568-4.25-.243-.6-1.714-.305-1.63 1.154.073 1.23-.873 2.748-2.103 2.49-.597-.11.337-3.01-.263-3.796-.33-.432-.833-.385-1.16.063-.463.626.462 3.406-1.054 3.772-1.914.44-.91-1.86-1.72-2.28-2.605-1.313-2.856.34-4 .582zm14.732-4.67c1.385-.39.953-.39 3.13-2.175.85-.642 1.016 1.238.927 1.982-.158 1.263-1.658.37-2.123 1.483-.682 1.444-.405 4.803-.633 6.17-.154.704-1.28.644-1.39.09-.32-1.67.23-3.302.177-5.388-.017-.71-1.03-1.82-.085-2.165zm-6.5-7.514c-.335 1.51-.31 2.754-.31 3.79.077.836 1.606.297 1.6.19-.075-1.326.226-3.16-.165-3.67-.212-.276-1.047-.594-1.125-.31zm-16.835 4.282c-2.36 2.063-4.547 2.906-6.717 5.514-.887 1.067-.862 2.556-1.392 3.92-.53 1.444-2.24 1.73-2.77 1.427-.885-.582-.756-3.264-1.745-1.82-.837 1.33-1.38 3.16-2.62 3.137-1.12-.023-3.234-2.316-2.162-2.427 3.67-.375 3.624-3.312 4.998-3.505 1.542-.206 1.643 2.425 2.595 1.898.748-.383 1.1-3.448 1.91-4.275 2.49-2.542 4.457-3.885 6.995-5.754 1.284-1.02 2.2.826.91 1.886z" fill-rule="evenodd" fill="#fff"/>
  <path d="M250.55 159.498c-.403.464-1.635.388-1.746 1.038-.484 2.41 0 3.633-.53 5.955-.51 2.225-2.052 2.31-1.947.497.14-2.35 2.077-5.666.708-5.894-.91-.214-1.613-1.432-.67-2.034 1.778-1.234 2.733-1.046 3.956-.674.428.13.537.757.23 1.113z" fill-rule="evenodd" fill="#fff"/>
  <path d="M238.133 347.453c.815 1.812 2.007 1.732 1.828-.002-.345-2.22-1.016-5.29-1.396-7.955-.216-2.258-2.55-1.822-1.935.537.78 2.547.614 5.34 1.504 7.423zm6.987.117c-.01.918 1.413.834 1.4.108-.148-2.31-.324-5.432.32-6.56.503-.878 2.53-.258 4.41-.43.748-.11.593-2.17-.968-2.04-1.84.165-6.696-.433-6.99 1.288-.422 3.095 1.914-.185 1.828 7.633zm14.09-8.934c1.18.848 1.015 1.952-.43 1.61-1.72-.43-2.88-.29-2.856.653.025.927.75 1.11 1.808 2.137 1.012 1.06-.62.888-1.872 3.06-1.067 1.798 1.11 2.036 3.674 1.355.654-.187 1.513.938-.107 1.862-1.14.61-4.318 1.355-5.11-.952-1.5-3.99 2.514-4.542.823-5.605-.923-.557-1.256-1.395-1.088-2.51.358-2.568 4.184-2.227 5.16-1.612zm5.295 8.797c1.548-2.824 2.614-4.94 3.046-7.337.378-2.165 1.933-2.373 2.26-.538.42 2.437 1.816 4.852 3.51 7.065.992 1.373-1.005 2.58-1.79 1.513-1.438-1.826-1.498-4.37-2.347-4.352-.98.02-2.09 2.836-3.135 4.914-.304.604-2.16-.002-1.542-1.265z" stroke-width=".973" fill-rule="evenodd" stroke="#000" fill="#fff"/>
  <path d="M238.133 347.453c.815 1.812 2.007 1.732 1.828-.002-.345-2.22-1.016-5.29-1.396-7.955-.216-2.258-2.55-1.822-1.935.537.78 2.547.614 5.34 1.504 7.423zm6.987.117c-.01.918 1.413.834 1.4.108-.148-2.31-.324-5.432.32-6.56.503-.878 2.53-.258 4.41-.43.748-.11.593-2.17-.968-2.04-1.84.165-6.696-.433-6.99 1.288-.422 3.095 1.914-.185 1.828 7.633zm14.09-8.934c1.18.848 1.015 1.952-.43 1.61-1.72-.43-2.88-.29-2.856.653.025.927.75 1.11 1.808 2.137 1.012 1.06-.62.888-1.872 3.06-1.067 1.798 1.11 2.036 3.674 1.355.654-.187 1.513.938-.107 1.862-1.14.61-4.318 1.355-5.11-.952-1.5-3.99 2.514-4.542.823-5.605-.923-.557-1.256-1.395-1.088-2.51.358-2.568 4.184-2.227 5.16-1.612zm5.295 8.797c1.548-2.824 2.614-4.94 3.046-7.337.378-2.165 1.933-2.373 2.26-.538.42 2.437 1.816 4.852 3.51 7.065.992 1.373-1.005 2.58-1.79 1.513-1.438-1.826-1.498-4.37-2.347-4.352-.98.02-2.09 2.836-3.135 4.914-.304.604-2.16-.002-1.542-1.265zM398.352 265.182c-.11.58 1.454 1.433 1.826.99 1.682-2.015 3.883-5.97 4.334-8.364.133-.697-2.107-1.485-2.586-.913-1.575 1.886-3.1 5.773-3.574 8.287z" fill-rule="evenodd" fill="#fff"/>
</svg>
