<?xml version="1.0" encoding="utf-8"?>
<!-- Generator: Adobe Illustrator 22.0.1, SVG Export Plug-In . SVG Version: 6.00 Build 0)  -->
<svg version="1.1" id="Layer_1" xmlns="http://www.w3.org/2000/svg" xmlns:xlink="http://www.w3.org/1999/xlink" x="0px" y="0px"
	 viewBox="0 0 640 480" style="enable-background:new 0 0 640 480;" xml:space="preserve">
<style type="text/css">
	.st0{fill:#009900;}
	.st1{fill:#BF0000;}
	.st2{fill:#FFFFFF;stroke:#000000;stroke-width:0.973;}
	.st3{fill:#FFFFFF;stroke:#000000;stroke-width:0.973;stroke-linejoin:round;}
	.st4{fill:#FFFFFF;}
	.st5{fill:none;stroke:#000000;stroke-width:0.487;}
	.st6{fill:#FFFFFF;stroke:#000000;stroke-width:0.492;}
	.st7{fill:none;stroke:#000000;stroke-width:0.25;}
	.st8{fill:none;stroke:#000000;stroke-width:0.973;}
	.st9{fill:#FFFFFF;stroke:#000000;stroke-width:0.5;}
	.st10{fill:none;stroke:#000000;stroke-width:0.483;}
	.st11{fill:none;stroke:#000000;stroke-width:0.481;}
	.st12{fill:#FFFFFF;stroke:#000000;stroke-width:0.501;}
	.st13{fill:#FFFFFF;stroke:#000000;stroke-width:0.503;}
	.st14{fill:#FFFFFF;stroke:#000000;stroke-width:0.36;}
	.st15{fill:#FFFFFF;stroke:#000000;stroke-width:0.345;}
	.st16{fill-opacity:0.185;stroke:#000000;stroke-width:0.973;}
	.st17{fill:#FFFFFF;stroke:#000000;stroke-width:0.505;}
	.st18{fill:#FFFFFF;stroke:#000000;stroke-width:0.489;}
	.st19{fill:#FFFFFF;stroke:#000000;stroke-width:0.387;}
	.st20{fill:#FFFFFF;stroke:#000000;stroke-width:0.348;}
	.st21{fill:#FFFFFF;stroke:#000000;stroke-width:0.504;}
	.st22{fill:#FFFFFF;stroke:#000000;stroke-width:0.367;}
	.st23{fill:#FFFFFF;fill-opacity:0.534;stroke:#000000;stroke-width:0.973;}
</style>
<g>
	<path d="M0,0h640v480H0L0,0z"/>
	<path class="st0" d="M426.7,0H640v480H426.7V0z"/>
	<path class="st1" d="M213.3,0h213.3v480H213.3V0z"/>
</g>
<path class="st2" d="M453.5,248.6c-0.1,0.5,1.4,1.3,1.7,0.9c1.6-1.9,3.6-5.6,4.1-7.8c0.1-0.7-2-1.4-2.4-0.9
	C455.3,242.6,453.9,246.3,453.5,248.6L453.5,248.6z M256.3,363.6c-1.6,5.5-24.7-5.2-27.3-10.8C242.2,359.8,256.6,358.3,256.3,363.6z
	 M183,250.3c1.2,1.4,3.1,0.5,1.3-1.4c-1.5-1.5-1-2-1.9-3.8c-0.9-2.1-0.8-3.2-1.9-4.6c-0.9-1.4-2.3,0-1.4,1.2
	c1.2,1.4,0.9,2.4,1.6,3.7C182.1,247.6,181.8,248.8,183,250.3L183,250.3z M214.2,287.9c3.7,1.8,6.6,6.4,6.7,10.1
	c0.3,4.3,0.9,7.9,2.9,11c-3.1-0.9-4.5-5.7-5-10.4C218.4,293.7,215.8,291.6,214.2,287.9z M222,296.9c2.6,4.8,6.2,6.6,6.4,10.1
	c0.3,4.1,0.6,4.3,1.7,8.3c-3-0.8-3.8-1.1-4.6-7.2C224.9,303.8,221.5,300.8,222,296.9L222,296.9z"/>
<path class="st3" d="M282.2,322.5c3.9,3.2,6.5,6.9,7.7,11.7c1.2,4.4,3,8,5.6,12c-4.2-2.9-6.8-6.7-8.1-11.4
	C286.2,330.1,284.8,326.7,282.2,322.5L282.2,322.5z M356,322.5c-4,3.2-6.6,7-7.9,11.8c-1.3,4.5-3.1,8-5.7,12c4.3-2.9,7-6.8,8.3-11.5
	C352,330.2,353.4,326.7,356,322.5L356,322.5z M351.1,322.5c-4.3,3.4-8.4,7.2-9.6,12c-1.3,4.5-2,7.9-5,12.3c4.6-2.9,6.4-7.2,7.7-11.9
	C345.4,330.3,348.1,326.9,351.1,322.5L351.1,322.5z M302.2,340.9c1.4,2.7,3.1,6.9,6.1,6.1C308.4,344.9,305.1,343.5,302.2,340.9
	L302.2,340.9z M306.7,341.8c5.9,2.4,10.9,1.8,11.5,5.5C312.8,347.9,310.8,345.7,306.7,341.8L306.7,341.8z M335.4,341.3
	c-1.5,2.6-3.2,6.5-6.2,5.8C329.2,345.1,332.5,343.7,335.4,341.3L335.4,341.3z M331.3,342c-5.9,2.3-11.1,1.7-11.7,5.2
	C325.2,347.8,327.2,345.7,331.3,342z"/>
<path class="st2" d="M336.8,333.7c0.1-0.8-0.5-1.6-1.1-1.8c-1.3-0.5-2.7-0.9-4-1.3c-1.5-0.4-2.3,0.7-2.3,1.4c0,1.2-0.1,2.2,0,3.1
	c0.1,1.1,0.3,1.2,1,1.4c1.1,0.2,2.6,0.4,3.7,1.1c0.9,0.6,1.8,0.1,2.2-0.9C336.5,336,336.6,334.6,336.8,333.7z M320.6,333.7
	c-0.1-0.8,0.3-1.6,0.9-1.9c1.2-0.5,2.4-0.6,3.6-0.6c1.4,0,1.7,0.3,1.7,1c0,1.2,0.1,2.3,0,3.2c-0.1,1.1,0,1.2-0.7,1.4
	c-1,0.2-2.7,0.2-3.7,1c-0.8,0.6-1.7,0.1-1.8-0.9C320.8,336.1,320.7,334.6,320.6,333.7L320.6,333.7z M301,333.5
	c-0.1-0.8,0.5-1.6,1.1-1.8c1.3-0.5,2.7-0.9,4-1.3c1.5-0.4,2.3,0.7,2.4,1.4c0,1.2,0.1,2.2,0,3.1c-0.1,1.1-0.3,1.2-1,1.4
	c-1.1,0.2-2.6,0.4-3.7,1.1c-0.9,0.6-1.8,0.1-2.2-0.9C301.3,335.8,301.1,334.4,301,333.5L301,333.5z M317.2,333.5
	c0.1-0.8-0.3-1.6-0.9-1.9c-1.2-0.5-2.4-0.6-3.6-0.6c-1.4,0-1.7,0.3-1.7,1c0,1.2-0.1,2.3,0,3.2c0.1,1.1,0,1.2,0.7,1.4
	c1,0.2,2.7,0.2,3.7,1c0.8,0.6,1.7,0.1,1.8-0.9C317.1,335.9,317.1,334.4,317.2,333.5L317.2,333.5z M253.9,223.6
	c-1.9-3-4.1,4.2-11.9,9.6c-3.6,2.5-6.1,9-6.1,13.3c-0.1,3,0.3,5.9,0,8.8c-0.2,1.8-2.1,5.8-0.8,6.9c3.4,2.5,7.8,8.3,9.9,10.3
	c1.8,1.6,3.3-8,4.6-12.3c1.4-4.6,0.8-10.1,4.7-14.3c2.8-2.9,9.9-5.7,9.1-7L253.9,223.6L253.9,223.6z"/>
<path class="st4" d="M253.9,223.6c-1.9-3-4.1,4.2-11.9,9.6c-3.6,2.5-6.1,9-6.1,13.3c-0.1,3,0.3,5.9,0,8.8c-0.2,1.8-2.1,5.8-0.8,6.9
	c3.4,2.5,7.8,8.3,9.9,10.3c1.8,1.6,3.3-8,4.6-12.3c1.4-4.6,0.8-10.1,4.7-14.3c2.8-2.9,9.9-5.7,9.1-7L253.9,223.6L253.9,223.6z"/>
<path class="st5" d="M242.4,232.6c-0.7,5.1,2.1,6.8,4.8,7.8c2.8,1,5.1,4,6.3,6.7 M235.5,249.4c1.2,4.4,4.3,3.9,7,4.9
	c2.8,1,5.7,4.5,6.9,7.2"/>
<path class="st2" d="M251.3,220.5l1.4-0.9l27.1,45.7l-1.4,0.9L251.3,220.5L251.3,220.5z"/>
<path class="st4" d="M251.3,220.5l1.4-0.9l27.1,45.7l-1.4,0.9L251.3,220.5L251.3,220.5z"/>
<path class="st2" d="M254.2,218.7c0,1.7-1.4,3.1-3.1,3.1c-1.7,0-3.1-1.4-3.1-3.1c0,0,0,0,0,0c0-1.7,1.4-3.1,3.1-3.1
	C252.8,215.6,254.2,217,254.2,218.7z"/>
<path class="st4" d="M254.2,218.7c0,1.7-1.4,3.1-3.1,3.1c-1.7,0-3.1-1.4-3.1-3.1c0,0,0,0,0,0c0-1.7,1.4-3.1,3.1-3.1
	C252.8,215.6,254.2,217,254.2,218.7z"/>
<path class="st6" d="M384.6,224.5c1.9-3.1,4.1,4.3,11.9,9.9c3.6,2.5,6.1,9.3,6.1,13.8c0.1,3.1-0.3,6.1,0,9.1c0.2,1.9,2.1,6,0.8,7.1
	c-3.4,2.6-7.8,8.6-9.9,10.6c-1.8,1.6-3.3-8.3-4.6-12.7c-1.4-4.7-0.8-10.4-4.7-14.8c-2.8-3-9.9-5.9-9.1-7.2L384.6,224.5z"/>
<path class="st4" d="M384.6,224.5c1.9-3.1,4.1,4.3,11.9,9.9c3.6,2.5,6.1,9.3,6.1,13.8c0.1,3.1-0.3,6.1,0,9.1c0.2,1.9,2.1,6,0.8,7.1
	c-3.4,2.6-7.8,8.6-9.9,10.6c-1.8,1.6-3.3-8.3-4.6-12.7c-1.4-4.7-0.8-10.4-4.7-14.8c-2.8-3-9.9-5.9-9.1-7.2L384.6,224.5L384.6,224.5z
	"/>
<path class="st6" d="M387.2,221.3l-1.4-0.9l-27.1,47.3l1.4,0.9L387.2,221.3L387.2,221.3z"/>
<path class="st7" d="M396.2,233.9c0.7,5.3-2.3,6.9-4.9,8c-2.8,1-5.2,3.9-6.4,6.7"/>
<path class="st7" d="M402.8,251.5c-1.2,4.6-4.1,3.8-6.8,4.8c-2.8,1-5.7,4.4-6.9,7.2"/>
<path class="st4" d="M387.2,221.3l-1.4-0.9l-27.1,47.3l1.4,0.9L387.2,221.3L387.2,221.3z"/>
<path class="st6" d="M384.3,219.4c0,1.8,1.4,3.2,3.1,3.2c1.7,0,3.1-1.4,3.1-3.2c0,0,0,0,0,0c0-1.8-1.4-3.2-3.1-3.2
	C385.7,216.2,384.3,217.6,384.3,219.4z"/>
<path class="st4" d="M384.3,219.4c0,1.8,1.4,3.2,3.1,3.2c1.7,0,3.1-1.4,3.1-3.2s-1.4-3.2-3.1-3.2
	C385.7,216.2,384.3,217.6,384.3,219.4L384.3,219.4z"/>
<g>
	<path class="st2" d="M277.4,182h11v2.5h-11V182z M277.4,186.8h11v21.1h-11V186.8z M276.7,179.1l12.2,0.1c0.5-4.1-3.6-8.6-6.1-8.6
		C280.5,170.7,276.6,175.1,276.7,179.1L276.7,179.1z M349.5,182h11v2.5h-11V182z M349.5,186.8h11v21.1h-11V186.8z M348.9,179.2
		l12.2,0.1c0.5-4.1-3.6-8.6-6.1-8.6C352.6,170.8,348.8,175.2,348.9,179.2L348.9,179.2z"/>
	<path class="st4" d="M277.4,182h11v2.5h-11V182z M277.4,186.8h11v21.1h-11V186.8z M276.7,179.1l12.2,0.1c0.5-4.1-3.6-8.6-6.1-8.6
		C280.5,170.7,276.6,175.1,276.7,179.1L276.7,179.1z M349.5,182h11v2.5h-11V182z M349.5,186.8h11v21.1h-11V186.8z M348.9,179.2
		l12.2,0.1c0.5-4.1-3.6-8.6-6.1-8.6C352.6,170.8,348.8,175.2,348.9,179.2L348.9,179.2z"/>
</g>
<path class="st4" d="M349.5,186.8h11v21.1h-11V186.8z M349.5,182h11v2.5h-11V182z M348.9,179.2l12.2,0.1c0.5-4.1-3.6-8.6-6.1-8.6
	C352.6,170.8,348.8,175.2,348.9,179.2L348.9,179.2z M277.4,186.8h11v21.1h-11V186.8z M277.4,182h11v2.5h-11V182z M276.7,179.1
	l12.2,0.1c0.5-4.1-3.6-8.6-6.1-8.6C280.5,170.7,276.6,175.1,276.7,179.1L276.7,179.1z"/>
<g>
	<path class="st2" d="M268.2,211.4l7,7.7l87,0.1l7.1-7.7l-22.2-0.3l-10.8-7.6l-34.9-0.1l-10.1,7.8L268.2,211.4L268.2,211.4z"/>
	<path class="st4" d="M268.2,211.4l7,7.7l87,0.1l7.1-7.7l-22.2-0.3l-10.8-7.6l-34.9-0.1l-10.1,7.8L268.2,211.4L268.2,211.4z"/>
</g>
<path class="st8" d="M303.8,199.5l30,0c4.1-2.1,5.3-9,5.3-12.9c-0.1-11.3-8-16.8-16-17.1c-1.2-0.1-2.6-1-2.9-2.1
	c-0.8-2.5-0.6-8.9-1.4-8.8c-0.8,0-0.5,6.3-1.2,8.6c-0.4,1.2-1.7,2.3-3,2.3c-9.9,0.5-16.3,7.7-16.1,17
	C298.8,192.8,299.5,196.4,303.8,199.5L303.8,199.5z"/>
<path class="st4" d="M303.8,199.5l30,0c4.1-2.1,5.3-9,5.3-12.9c-0.1-11.3-8-16.8-16-17.1c-1.2-0.1-2.6-1-2.9-2.1
	c-0.8-2.5-0.6-8.7-1.4-8.8c-0.6,0.1-0.5,6.3-1.2,8.6c-0.4,1.2-1.7,2.3-3,2.3c-9.9,0.5-16.3,7.7-16.1,17
	C298.8,192.8,299.5,196.4,303.8,199.5L303.8,199.5z"/>
<path class="st5" d="M301.9,189.5c0.8,3.7,2.6,3.2,2.4,1.4c-0.4-5.8,0-11.5,5.1-15.3c1.6-1.2-0.2-2.3-1.6-1.7
	C303.6,175.7,300.9,184.1,301.9,189.5L301.9,189.5z"/>
<path class="st5" d="M307,191.9c0.8,3.7,3.9,3.6,3.3,1.1c-1.2-4.7-1-11.5,3.1-14.4c1.6-1.2-0.2-2.3-1.6-1.7
	C307.5,178.7,306,186.5,307,191.9L307,191.9z"/>
<path class="st7" d="M335.9,189.7c-0.8,3.7-2.6,3.2-2.4,1.4c0.4-5.8,0-11.5-5.1-15.3c-1.6-1.2,0.2-2.3,1.6-1.7
	C334.3,175.9,336.9,184.2,335.9,189.7L335.9,189.7z"/>
<path class="st7" d="M330.9,192c-0.8,3.7-3.9,3.6-3.3,1.1c1.2-4.7,1-11.5-3.1-14.4c-1.6-1.2,0.2-2.3,1.6-1.7
	C330.4,178.9,331.9,186.6,330.9,192L330.9,192z"/>
<g>
	<path class="st2" d="M254.4,309.6h129l-11.6-9.4H265.9L254.4,309.6L254.4,309.6z"/>
	<path class="st4" d="M254.4,309.6h129l-11.6-9.4H265.9L254.4,309.6L254.4,309.6z"/>
</g>
<g>
	<g>
		<path class="st2" d="M276.8,224.9H289v17h-12.3L276.8,224.9z M277.5,251.6h11.8v3.6h-11.8V251.6z M277.2,257.9h12.1v13.3h-12.1
			V257.9z M276.4,273.8h13.3v7.4h-13.3V273.8z M278,248.4h10.7l2.1-3.5h-14.7L278,248.4L278,248.4z M292.4,235.4l0.1-9.3h7.4
			C297,228.5,294.3,231.4,292.4,235.4L292.4,235.4z M360.7,224.9h-12.1v17h12.1L360.7,224.9z M360.5,251.6h-11.6v3.6h11.6
			L360.5,251.6z M360.7,257.9h-11.8v13.3h11.8L360.7,257.9z M361.5,273.8h-13v7.4h13V273.8z"/>
		<path class="st9" d="M359.6,248.4h-10.5l-2.1-3.5h14.5L359.6,248.4z"/>
		<path class="st9" d="M345.4,235.4l-0.1-9.3h-7.2C340.9,228.5,343.5,231.4,345.4,235.4L345.4,235.4z"/>
	</g>
	<path class="st4" d="M276.8,224.9H289v17h-12.3L276.8,224.9z M277.5,251.6h11.8v3.6h-11.8V251.6z M277.2,257.9h12.1v13.3h-12.1
		V257.9z M276.4,273.8h13.3v7.4h-13.3V273.8z M278,248.4h10.7l2.1-3.5h-14.7L278,248.4L278,248.4z M292.4,235.4l0.1-9.3h7.4
		C297,228.5,294.3,231.4,292.4,235.4L292.4,235.4z M360.7,224.9h-12.1v17h12.1L360.7,224.9z M360.5,251.6h-11.6v3.6h11.6
		L360.5,251.6z M360.7,257.9h-11.8v13.3h11.8L360.7,257.9z M361.5,273.8h-13v7.4h13V273.8z M359.6,248.4h-10.5l-2.1-3.5h14.5
		L359.6,248.4L359.6,248.4z M345.4,235.4l-0.1-9.3H338C340.9,228.5,343.5,231.4,345.4,235.4z"/>
</g>
<path class="st5" d="M278.7,239.2c0.1,2,2.3,1.1,2.3,0.1c0-3.1,0-6.4-0.1-8.5c0-1.6,3.8-1.2,3.8-0.2c0,2.6,0,6.1,0.1,9.1
	c0,1.5,2.5,1.3,2.4,0c0-3.4,0-8.3,0-10.8c0-3.2-8.4-3.1-8.5-0.1C278.7,231.4,278.7,235.9,278.7,239.2L278.7,239.2z M350.8,239.6
	c0.1,2,2.3,1.1,2.3,0.1c0-3.1,0-6.4-0.1-8.5c0-1.6,3.8-1.2,3.8-0.2c0,2.6,0,6.1,0.1,9.2c0,1.5,2.4,1.3,2.4,0c0-3.4,0.1-8.3,0.1-10.8
	c0-3.2-8.4-3.1-8.5-0.1C350.9,231.7,350.8,236.2,350.8,239.6L350.8,239.6z M278.7,259.4h8.7v10.8h-8.7V259.4z"/>
<path d="M284.3,263.9h3.1v1.8h-3.1V263.9z M278.9,263.9h3v1.8h-3V263.9z"/>
<path d="M281.9,259.6h2.4v4.4h-2.4V259.6z M281.9,265.6h2.4v4.7h-2.4V265.6z"/>
<path class="st5" d="M350.6,259.4h8.7v10.8h-8.7L350.6,259.4z"/>
<path d="M356.1,263.8h3.1v1.8h-3.1V263.8z M350.8,263.8h3v1.8h-3V263.8z"/>
<path d="M353.8,259.5h2.4v4.4h-2.4V259.5z M353.8,265.6h2.4v4.7h-2.4V265.6z"/>
<path class="st2" d="M342.6,260h1.5v10.8h-1.5V260z"/>
<path class="st2" d="M313.6,274.3l2.4,7.1h5.3l-4.3-7.1L313.6,274.3L313.6,274.3z M310.6,281.3l1.4,7l6.3,0.1l-2.3-7.1L310.6,281.3
	L310.6,281.3z M321.2,281.4l4.3,6.9h8.9l-7-7L321.2,281.4z M268.6,297.2c4.7-4.4,7.7-8.1,7.8-13.5h11.5c0,3,1.1,4.8,2.8,4.7
	l11.7-0.1l-0.1-6.9h-8.5l0-37.7c-0.3-13.3,16.2-21.1,23-21l-40.1-0.1v-1.2H361l0.1,1.2l-40.7,0.1c12.1,0,23.7,11.5,23.8,21.1v10.7
	h-1.6l-0.1-10.6c0-10.5-13.3-20.4-24-20.1c-9.2,0.3-23.5,9.1-23.4,20v3.3l21.9,0.1l-0.2,3.8l3.4,2.2l6.9,2.2l-0.1,5.7l4.9,1.4l0,5.7
	l5.9,2.5v5.9l3.7,2.3l-0.2,6l5.1,3.6h-12l7.5,8.3h-11l-5.5-8.3h-7.3l3.3,8.3l-7.8-0.1l-1.9-8.2h-9.5l0.1,8.8L268.6,297.2
	L268.6,297.2z M302.4,274.3v7h8.1l-1.6-7L302.4,274.3L302.4,274.3z"/>
<path class="st4" d="M313.6,274.3l2.4,7.1h5.3l-4.3-7.1L313.6,274.3L313.6,274.3z M310.6,281.3l1.4,7l6.3,0.1l-2.3-7.1L310.6,281.3
	L310.6,281.3z M321.2,281.4l4.3,6.9h8.9l-7-7L321.2,281.4z M268.6,297.2c4.7-4.4,7.7-8.1,7.8-13.5h11.5c0,3,1.1,4.8,2.8,4.7
	l11.7-0.1l-0.1-6.9h-8.5l0-37.7c-0.3-13.3,16.2-21.1,23-21l-40.1-0.1v-1.2H361l0.1,1.2l-40.7,0.1c12.1,0,23.7,11.5,23.8,21.1v10.7
	h-1.6l-0.1-10.6c0-10.5-13.3-20.4-24-20.1c-9.2,0.3-23.5,9.1-23.4,20v3.3l21.9,0.1l-0.2,3.8l3.4,2.2l6.9,2.2l-0.1,5.7l4.9,1.4l0,5.7
	l5.9,2.5v5.9l3.7,2.3l-0.2,6l5.1,3.6h-12l7.5,8.3h-11l-5.5-8.3h-7.3l3.3,8.3l-7.8-0.1l-1.9-8.2h-9.5l0.1,8.8L268.6,297.2
	L268.6,297.2z M302.4,274.3v7h8.1l-1.6-7L302.4,274.3L302.4,274.3z"/>
<path class="st10" d="M302.9,262h5.1v11.6h-5.1V262z"/>
<path class="st7" d="M295.7,274.4h4.9l0-8.5c-0.1-3.7,3.3-7.5,4.9-7.6c1.8-0.1,4.4,3.5,4.5,7.3l0.1,8.9l5.2,0v-22l-19.6,0.1V274.4
	L295.7,274.4z"/>
<path class="st11" d="M334.8,279.5h6.1v4.8h-6.1V279.5z M331.2,271.3h6.1v4.8h-6.1V271.3z M325.3,263.1h6.1v4.8h-6.1V263.1z
	 M320.2,256.2h6.1v4.8h-6.1V256.2z"/>
<path class="st5" d="M316.1,274.5l6.3,0.2l11.2,9.9v-5.8l-3.8-2.7v-4.6l-5.5-3.1v-5l-5.3-1.8v-6.8l-2.7-2.2L316.1,274.5L316.1,274.5
	z"/>
<path class="st4" d="M342.6,260h1.5v10.8h-1.5V260z"/>
<g>
	<path class="st3" d="M233.5,151c0.5,8.5-2.1,13.2-6.6,12.5C225.7,158.7,228.5,155.6,233.5,151z M223.6,169.8
		c-4-2-1.1-17.6,0.4-24.1C225.2,154.1,227.1,166,223.6,169.8L223.6,169.8z"/>
	<path class="st3" d="M225.1,170.6c6.7,2.3,12.1-4.9,13.9-13.3C233.4,164.9,224.3,164.9,225.1,170.6z M219.9,178.4
		c-5.3-1.4-2.1-17.9-1.1-24.5C220,160.7,223.6,176.1,219.9,178.4z M221.7,177.9c0.3-5.7,6-4,9.9-7.1
		C231,173.7,228.6,178.7,221.7,177.9L221.7,177.9z M215.3,185.5c-5.2-1.4-2.1-19.2-2.4-26.5C214.5,165.4,219.3,183.8,215.3,185.5
		L215.3,185.5z M217.7,184.7c4.3,1.4,9.9-1.4,10.4-6.5C224.4,180.8,218.6,178.8,217.7,184.7L217.7,184.7z"/>
	<path class="st3" d="M211.4,193.3c-5,0.4-2.8-14.7-2.8-28.8C210.5,177.7,215.5,189.8,211.4,193.3z"/>
	<path class="st3" d="M213.1,192.7c3.4,1.7,9.4-1,11.1-6.7C218.2,188.6,214.1,186,213.1,192.7L213.1,192.7z"/>
</g>
<g>
	<path class="st4" d="M233.5,151c0.5,8.5-2.1,13.2-6.6,12.5C225.7,158.7,228.5,155.6,233.5,151z M223.6,169.8
		c-4-2-1.1-17.6,0.4-24.1C225.2,154.1,227.1,166,223.6,169.8L223.6,169.8z"/>
	<path class="st4" d="M225.1,170.6c6.7,2.3,12.1-4.9,13.9-13.3C233.4,164.9,224.3,164.9,225.1,170.6z M219.9,178.4
		c-5.3-1.4-2.1-17.9-1.1-24.5C220,160.7,223.6,176.1,219.9,178.4z M221.7,177.9c0.3-5.7,6-4,9.9-7.1
		C231,173.7,228.6,178.7,221.7,177.9L221.7,177.9z M215.3,185.5c-5.2-1.4-2.1-19.2-2.4-26.5C214.5,165.4,219.3,183.8,215.3,185.5
		L215.3,185.5z M217.7,184.7c4.3,1.4,9.9-1.4,10.4-6.5C224.4,180.8,218.6,178.8,217.7,184.7L217.7,184.7z"/>
	<path class="st4" d="M211.4,193.3c-5,0.4-2.8-14.7-2.8-28.8C210.5,177.7,215.5,189.8,211.4,193.3z"/>
	<path class="st4" d="M213.1,192.7c3.4,1.7,9.4-1,11.1-6.7C218.2,188.6,214.1,186,213.1,192.7L213.1,192.7z"/>
</g>
<g>
	<path class="st3" d="M252.3,158.9c-0.9,7.4-3.9,11.7-8.4,11C242.6,165.1,246.3,162.1,252.3,158.9L252.3,158.9z M240.4,177.8
		c7.5,1.1,10.2-4.7,15.2-12C248.5,170.9,240.1,171.9,240.4,177.8z"/>
	<path class="st3" d="M238.3,176.9c-4.1-4.9-0.1-11,3-16.3C240.6,168.4,243.2,172.8,238.3,176.9L238.3,176.9z M236.5,185
		c-0.5-4.8,7.7-5.9,11.4-8.5C246.6,179.3,244.7,186.7,236.5,185z"/>
	<path class="st3" d="M234.7,185.1c-5.6-0.6-3.3-10.2,0.7-15.5C233.8,176.9,238.5,182,234.7,185.1L234.7,185.1z"/>
	<path class="st3" d="M230.5,193.1c-6.4-2.8-2.3-10.9,0.1-15.6C229.6,183.7,234.7,188.5,230.5,193.1L230.5,193.1z"/>
	<path class="st3" d="M231.8,192.4c3.4,4.4,9.9-1.3,11.3-8C237.3,189.1,233.1,188.3,231.8,192.4z"/>
</g>
<g>
	<path class="st4" d="M252.3,158.9c-0.9,7.4-3.9,11.7-8.4,11C242.6,165.1,246.3,162.1,252.3,158.9L252.3,158.9z M240.4,177.8
		c7.5,1.1,10.2-4.7,15.2-12C248.5,170.9,240.1,171.9,240.4,177.8z"/>
	<path class="st4" d="M238.3,176.9c-4.1-4.9-0.1-11,3-16.3C240.6,168.4,243.2,172.8,238.3,176.9L238.3,176.9z M236.5,185
		c-0.5-4.8,7.7-5.9,11.4-8.5C246.6,179.3,244.7,186.7,236.5,185z"/>
	<path class="st4" d="M234.7,185.1c-5.6-0.6-3.3-10.2,0.7-15.5C233.8,176.9,238.5,182,234.7,185.1L234.7,185.1z"/>
	<path class="st4" d="M230.5,193.1c-6.4-2.8-2.3-10.9,0.1-15.6C229.6,183.7,234.7,188.5,230.5,193.1L230.5,193.1z"/>
	<path class="st4" d="M231.8,192.4c3.4,4.4,9.9-1.3,11.3-8C237.3,189.1,233.1,188.3,231.8,192.4z"/>
</g>
<g>
	<path class="st3" d="M386.2,159.6c0.9,3.8,1.1,11.4,7.9,9.9C395.1,162.5,389.4,162.1,386.2,159.6L386.2,159.6z"/>
	<path class="st3" d="M397.8,177.7c-0.2-7.2-8-5.6-14.8-11.6C384.9,172.4,391.4,180,397.8,177.7z"/>
	<path class="st3" d="M399.4,176.8c4.6-3.2,1.1-10-3.2-16.1C397.8,167.3,394.3,173.4,399.4,176.8z M401.4,185
		c-7.4,0.6-8.7-3.1-11.6-7.9C394.9,180.4,401.6,178.4,401.4,185L401.4,185z M403.3,185.2c-3.5-2.9,0.9-9-0.6-15.2
		C405.4,173.9,409.6,183.3,403.3,185.2L403.3,185.2z"/>
	<path class="st3" d="M406.3,192.9c-7.4,1.7-9.8-2.2-11.6-8.7C400.7,189.7,404.1,187.1,406.3,192.9L406.3,192.9z"/>
	<path class="st3" d="M407.4,192.8c5.1-0.1,2.8-10.2,0.2-14.9C408.3,183.5,403.8,190,407.4,192.8L407.4,192.8z"/>
</g>
<g>
	<path class="st4" d="M386.2,159.6c0.9,3.8,1.1,11.4,7.9,9.9C395.1,162.5,389.4,162.1,386.2,159.6L386.2,159.6z"/>
	<path class="st4" d="M397.8,177.7c-0.2-7.2-8-5.6-14.8-11.6C384.9,172.4,391.4,180,397.8,177.7z"/>
	<path class="st4" d="M399.4,176.8c4.6-3.2,1.1-10-3.2-16.1C397.8,167.3,394.3,173.4,399.4,176.8z M401.4,185
		c-7.4,0.6-8.7-3.1-11.6-7.9C394.9,180.4,401.6,178.4,401.4,185L401.4,185z M403.3,185.2c-3.5-2.9,0.9-9-0.6-15.2
		C405.4,173.9,409.6,183.3,403.3,185.2L403.3,185.2z"/>
	<path class="st4" d="M406.3,192.9c-7.4,1.7-9.8-2.2-11.6-8.7C400.7,189.7,404.1,187.1,406.3,192.9L406.3,192.9z"/>
	<path class="st4" d="M407.4,192.8c5.1-0.1,2.8-10.2,0.2-14.9C408.3,183.5,403.8,190,407.4,192.8L407.4,192.8z"/>
</g>
<g>
	<path class="st3" d="M404.3,151c0.9,4.3-0.9,12.7,5.9,12.6C413.1,158.8,407,154.3,404.3,151z"/>
	<path class="st3" d="M414.5,170c4.3-2.9,0.4-12.6-0.9-23.5C412.5,156.3,410.2,166.8,414.5,170L414.5,170z"/>
	<path class="st3" d="M412.2,170.8c0.5-5.3-7.8-6.5-13.6-13.5C400.1,162.9,404.3,171.1,412.2,170.8L412.2,170.8z M417.9,179.1
		c-4.5-4.1,0.8-15.8,1.1-24.9C419.7,162.5,423.4,177.6,417.9,179.1L417.9,179.1z M415.3,177.9c-6.6,0.4-8.3-4.4-9.1-7.2
		C409.8,173.3,415.4,172.1,415.3,177.9z M422,185.1c5.1-0.2,3.2-19.4,2.5-25.5C423.9,166.1,418.7,182.8,422,185.1L422,185.1z
		 M419.7,184.8c-4.4,0.7-8.8-1.9-10-6.2C413.5,180.2,419.7,178.9,419.7,184.8L419.7,184.8z"/>
	<path class="st3" d="M426,193.1c5.4,2.2,3.5-22.9,2.8-28.6C428.3,171.9,421.9,190,426,193.1z"/>
	<path class="st3" d="M424.8,193.1c-5.5,0.8-9.5-2.5-11-7.1C419.3,188.1,423.6,187.4,424.8,193.1z"/>
</g>
<g>
	<path class="st2" d="M420.8,222.9c0.7-6.5-4.3-18.5-0.8-24.8c0.5-0.9-1.1-3.2-2.1-1.8c-1.6,2.2-3.2,8.6-3.8,6.3
		c-0.7-2.6-0.8-7.1-3.1-8c-1.5-0.5-3.6-0.9-3,1.4c0.6,2.2,1.8,5.2,0.4,5.4c-0.8,0.1-3.2-3-5.1-4.4c-1.6-1.3-4,0.7-1.6,2.6
		C409.2,205.8,416.5,208.6,420.8,222.9L420.8,222.9z"/>
	<path class="st4" d="M420.8,222.9c0.7-6.5-4.3-18.5-0.8-24.8c0.5-0.9-1.1-3.2-2.1-1.8c-1.6,2.2-3.2,8.6-3.8,6.3
		c-0.7-2.6-0.8-7.1-3.1-8c-1.5-0.5-3.6-0.9-3,1.4c0.6,2.2,1.8,5.2,0.4,5.4c-0.8,0.1-3.2-3-5.1-4.4c-1.6-1.3-4,0.7-1.6,2.6
		C409.2,205.8,416.5,208.6,420.8,222.9L420.8,222.9z"/>
</g>
<g>
	<path class="st4" d="M404.3,151c0.9,4.3-0.9,12.7,5.9,12.6C413.1,158.8,407,154.3,404.3,151z"/>
	<path class="st4" d="M414.5,170c4.3-2.9,0.4-12.6-0.9-23.5C412.5,156.3,410.2,166.8,414.5,170L414.5,170z"/>
	<path class="st4" d="M412.2,170.8c0.5-5.3-7.8-6.5-13.6-13.5C400.1,162.9,404.3,171.1,412.2,170.8L412.2,170.8z M417.9,179.1
		c-4.5-4.1,0.8-15.8,1.1-24.9C419.7,162.5,423.4,177.6,417.9,179.1L417.9,179.1z M415.3,177.9c-6.6,0.4-8.3-4.4-9.1-7.2
		C409.8,173.3,415.4,172.1,415.3,177.9z M422,185.1c5.1-0.2,3.2-19.4,2.5-25.5C423.9,166.1,418.7,182.8,422,185.1L422,185.1z
		 M419.7,184.8c-4.4,0.7-8.8-1.9-10-6.2C413.5,180.2,419.7,178.9,419.7,184.8L419.7,184.8z"/>
	<path class="st4" d="M426,193.1c5.4,2.2,3.5-22.9,2.8-28.6C428.3,171.9,421.9,190,426,193.1z"/>
	<path class="st4" d="M424.8,193.1c-5.5,0.8-9.5-2.5-11-7.1C419.3,188.1,423.6,187.4,424.8,193.1z"/>
</g>
<g>
	<path class="st12" d="M439.8,218.5c1.8-1.9,1.3-2.7-1.4-2.7c-2.2-0.1-6.5,1.3-8.1,0.1c-1.5-1.1-0.9-5.7-1.6-7.8
		c-0.3-1.2-1.1-3.1-3-0.1c-5.5,8.9-12.4,19.5-15.3,29.9c-1.6,5.8-0.8,15.3,5.4,20.2l4.4-12.8C422.3,239.2,433.6,224.6,439.8,218.5
		L439.8,218.5z"/>
	<path class="st4" d="M439.8,218.5c1.8-1.9,1.3-2.7-1.4-2.7c-2.2-0.1-6.5,1.3-8.1,0.1c-1.5-1.1-0.9-5.7-1.6-7.8
		c-0.3-1.2-1.1-3.1-3-0.1c-5.5,8.9-12.4,19.5-15.3,29.9c-1.6,5.8-0.8,15.3,5.4,20.2l4.4-12.8C422.3,239.2,433.6,224.6,439.8,218.5
		L439.8,218.5z"/>
</g>
<g>
	<path class="st3" d="M446,202.6c-2.5,8-4,14.5-0.4,15.3C449.4,217.2,447.8,209.5,446,202.6z M445.7,225c4.1,2.2,8.5-8.2,7.6-16.4
		C451.2,215.5,444.3,219.9,445.7,225L445.7,225z M444.2,224.7c0.6-5.7-1.7-5.5-4.8-10.9C439.8,219.9,441.3,225.1,444.2,224.7
		L444.2,224.7z"/>
	<path class="st3" d="M445.6,233.1c4.8,1.4,10.2-10,10-18.4C453.6,224,443.3,227.7,445.6,233.1z"/>
	<path class="st3" d="M444,232.8c1.9-4.4-2-3.9-4.6-11.7C438.6,229.3,439.8,233,444,232.8z M445.4,241.4c6.2,1.1,9.4-12.6,12.4-19.1
		C451.7,230.8,444.5,235.6,445.4,241.4L445.4,241.4z"/>
	<path class="st3" d="M443.9,240.9c1.8-5-3.3-4.8-6-12.3C438.4,238.2,439.6,241.6,443.9,240.9z M445.7,249.6
		c3.9,0.3,10.9-10.6,11.1-17.4C453.5,239.6,443,244.6,445.7,249.6L445.7,249.6z"/>
	<path class="st3" d="M442.8,248.3c1.6-5.3-2.9-5.3-4.9-11.2C437.8,246,439.1,249,442.8,248.3L442.8,248.3z M443,257.8
		c6.9,1.2,8.7-7.9,12.7-17.1C451.7,248,442.6,252.2,443,257.8L443,257.8z"/>
	<path class="st3" d="M442.5,256.5c2.2-4.7-2.9-4.8-5.7-11.8C436.6,254.7,438.4,257.7,442.5,256.5z"/>
</g>
<g>
	<path class="st4" d="M446,202.6c-2.5,8-4,14.5-0.4,15.3C449.4,217.2,447.8,209.5,446,202.6z M445.7,225c4.1,2.2,8.5-8.2,7.6-16.4
		C451.2,215.5,444.3,219.9,445.7,225L445.7,225z M444.2,224.7c0.6-5.7-1.7-5.5-4.8-10.9C439.8,219.9,441.3,225.1,444.2,224.7
		L444.2,224.7z"/>
	<path class="st4" d="M445.6,233.1c4.8,1.4,10.2-10,10-18.4C453.6,224,443.3,227.7,445.6,233.1z"/>
	<path class="st4" d="M444,232.8c1.9-4.4-2-3.9-4.6-11.7C438.6,229.3,439.8,233,444,232.8z M445.4,241.4c6.2,1.1,9.4-12.6,12.4-19.1
		C451.7,230.8,444.5,235.6,445.4,241.4L445.4,241.4z"/>
	<path class="st4" d="M443.9,240.9c1.8-5-3.3-4.8-6-12.3C438.4,238.2,439.6,241.6,443.9,240.9z M445.7,249.6
		c3.9,0.3,10.9-10.6,11.1-17.4C453.5,239.6,443,244.6,445.7,249.6L445.7,249.6z"/>
	<path class="st4" d="M442.8,248.3c1.6-5.3-2.9-5.3-4.9-11.2C437.8,246,439.1,249,442.8,248.3L442.8,248.3z M443,257.8
		c6.9,1.2,8.7-7.9,12.7-17.1C451.7,248,442.6,252.2,443,257.8L443,257.8z"/>
	<path class="st4" d="M442.5,256.5c2.2-4.7-2.9-4.8-5.7-11.8C436.6,254.7,438.4,257.7,442.5,256.5z"/>
</g>
<g>
	<path class="st12" d="M417.4,265.3c-6.1,0-7.2-8.6-7.2-10.8C413.2,255,418.6,260.4,417.4,265.3z"/>
	<path class="st4" d="M417.4,265.3c-6.1,0-7.2-8.6-7.2-10.8C413.2,255,418.6,260.4,417.4,265.3z"/>
</g>
<g>
	<path class="st3" d="M429.5,226.3c-2.5,8-3.5,11.8-0.1,14.4C433.8,238.2,431.3,233.2,429.5,226.3z M428.1,247.1
		c1.8-5.9-2.7-7.3-5.1-13.9C422.8,242,424,248.4,428.1,247.1L428.1,247.1z"/>
	<path class="st3" d="M430,248.4c3.2,1.2,7.2-6.2,5-13.7C432.7,241.4,427.1,243.1,430,248.4L430,248.4z M426.5,255.1
		c3.1-4.8-1.8-5.1-4.4-11.8C422,252.2,422.9,255.8,426.5,255.1L426.5,255.1z"/>
	<path class="st3" d="M426.6,263.4c2.4-5.5-2.8-4.8-5.8-11.5C420.6,262,422.2,264.1,426.6,263.4z M428.9,255.4
		c2.7,0.1,7.9-4.6,6.4-10.5C433,249.8,426.6,249.3,428.9,255.4L428.9,255.4z"/>
	<path class="st3" d="M428.1,262.6c4.4,0.9,7.7-5.8,7.2-10.4C431.9,256.4,427.2,256.8,428.1,262.6L428.1,262.6z"/>
</g>
<g>
	<path class="st4" d="M429.5,226.3c-2.5,8-3.5,11.8-0.1,14.4C433.8,238.2,431.3,233.2,429.5,226.3z M428.1,247.1
		c1.8-5.9-2.7-7.3-5.1-13.9C422.8,242,424,248.4,428.1,247.1L428.1,247.1z"/>
	<path class="st4" d="M430,248.4c3.2,1.2,7.2-6.2,5-13.7C432.7,241.4,427.1,243.1,430,248.4L430,248.4z M426.5,255.1
		c3.1-4.8-1.8-5.1-4.4-11.8C422,252.2,422.9,255.8,426.5,255.1L426.5,255.1z"/>
	<path class="st4" d="M426.6,263.4c2.4-5.5-2.8-4.8-5.8-11.5C420.6,262,422.2,264.1,426.6,263.4z M428.9,255.4
		c2.7,0.1,7.9-4.6,6.4-10.5C433,249.8,426.6,249.3,428.9,255.4L428.9,255.4z"/>
	<path class="st4" d="M428.1,262.6c4.4,0.9,7.7-5.8,7.2-10.4C431.9,256.4,427.2,256.8,428.1,262.6L428.1,262.6z"/>
</g>
<g>
	<path class="st12" d="M455.7,251.3c0.5-0.7,2.1,0,1.7,1.7c-0.4,2.3-3.7,14.1-9.5,18.1c-4.1,3-25.8,7.8-35.6,9.8
		c-5.4,1.1-9.9,3.8-13.5,8.1c1.5-5.7,2.7-9.8,4.5-15c1.8-4.5,6.7-9.4,11.8-9.7c9.4-0.3,21.5-1.1,30.4-5
		C450.1,257.5,452.8,254.9,455.7,251.3L455.7,251.3z"/>
	<path class="st4" d="M455.7,251.3c0.5-0.7,2.1,0,1.7,1.7c-0.4,2.3-3.7,14.1-9.5,18.1c-4.1,3-25.8,7.8-35.6,9.8
		c-5.4,1.1-9.9,3.8-13.5,8.1c1.5-5.7,2.6-9.8,4.5-15c1.8-4.5,6.7-9.4,11.8-9.7c9.4-0.3,21.5-1.1,30.4-5
		C450,257.5,452.8,254.9,455.7,251.3L455.7,251.3z"/>
</g>
<g>
	<path class="st3" d="M442.4,279.1c1-4-0.3-5.2,0.8-11.4C437.3,275.6,439.5,279.4,442.4,279.1z"/>
	<path class="st3" d="M443.1,280c3.9,1.1,14.2-7.9,14.5-14.6C454.8,270.3,441,275.5,443.1,280z M436.7,286c2.7-1.5,1.9-7.7-0.5-9.8
		C435.6,282.2,432,285.8,436.7,286L436.7,286z"/>
	<path class="st3" d="M439.4,287.7c4.8,1.5,10.2-7.1,14.1-10.9C449,280.6,435.5,282.5,439.4,287.7L439.4,287.7z M432.9,291.9
		c3.3-2.2,0.2-6.5,0-15C429.5,283.1,428.8,291.5,432.9,291.9L432.9,291.9z"/>
	<path class="st3" d="M433.5,294.1c1.7,2.3,14.3-5.6,17.4-11.4C440.2,290.7,430.7,289.7,433.5,294.1L433.5,294.1z M432.3,301.2
		c3.1-2.3-2.7-8.2-3.9-16.1C428.5,294.8,427.1,302.2,432.3,301.2z"/>
	<path class="st3" d="M435.6,298.6c1.5,2.5,11.2-4.1,15.3-11.3C444.5,292.9,433.8,294.4,435.6,298.6z M425.8,309.4
		c3.5-0.6,3-9.4,0.3-16.6C423.2,301.5,421.8,310.3,425.8,309.4L425.8,309.4z"/>
	<path class="st3" d="M434.5,304.6c1.2,1.4,15.4-8.5,15.2-12.5C445.2,298.5,430.2,299.8,434.5,304.6z M418.1,317.6
		c4.8-2,2.5-9.7,3.5-18.1C417.8,307.7,413.3,315.9,418.1,317.6z"/>
	<path class="st3" d="M427.1,310.9c0.8,2.6,12.3-2.3,17.9-10.3C438.2,305.8,425.2,306.5,427.1,310.9L427.1,310.9z"/>
	<path class="st3" d="M419.6,318.9c2.5,4.1,16.8-3.4,18.9-10.5C433.9,314.5,417.9,313.6,419.6,318.9L419.6,318.9z"/>
	<path class="st3" d="M426.2,322.1c2.6,0.3,8.7-4.7,10.4-7.3C431.7,317.2,425.1,320.5,426.2,322.1z"/>
</g>
<g>
	<path class="st3" d="M404.7,291.4c3.1,0.5,7.2-5.3,4.5-11.1C407.8,286.1,398.7,290.3,404.7,291.4L404.7,291.4z M411.3,287.9
		c2.4,1.3,8.5-5.1,7.7-9.4C415.7,284,408.8,285.5,411.3,287.9L411.3,287.9z"/>
	<path class="st3" d="M404.2,297.5c2.3,2.3,13.9-9.4,17.3-14.7C411.5,291.2,401.3,293.4,404.2,297.5z M401.5,304.5
		c1.8,2.8,9.5-5.6,14.4-12.6C409.7,298,399.3,300.8,401.5,304.5z"/>
	<path class="st3" d="M402.3,297.8c1.9-5-1.2-5.7-2.6-11.9C396.8,289.3,397.1,298.7,402.3,297.8L402.3,297.8z M399.2,304.7
		c3.7-1-2.3-7.4-3.6-11.9C395,301.1,395.1,305.2,399.2,304.7z M395.5,310.6c3.4-1.3-1.9-4.4-2.5-11.3
		C391.3,301.8,390.4,311.6,395.5,310.6L395.5,310.6z"/>
	<path class="st3" d="M390.4,312.1c2.2-1.2,1.3-6.9-2.1-7.6C387.5,309,387.6,312.2,390.4,312.1L390.4,312.1z"/>
</g>
<g>
	<path class="st4" d="M404.7,291.4c3.1,0.5,7.2-5.3,4.5-11.1C407.8,286.1,398.7,290.3,404.7,291.4L404.7,291.4z M411.3,287.9
		c2.4,1.3,8.5-5.1,7.7-9.4C415.7,284,408.8,285.5,411.3,287.9L411.3,287.9z"/>
	<path class="st4" d="M404.2,297.5c2.3,2.3,13.9-9.4,17.3-14.7C411.5,291.2,401.3,293.4,404.2,297.5z M401.5,304.5
		c1.8,2.8,9.5-5.6,14.4-12.6C409.7,298,399.3,300.8,401.5,304.5z"/>
	<path class="st4" d="M402.3,297.8c1.9-5-1.2-5.7-2.6-11.9C396.8,289.3,397.1,298.7,402.3,297.8L402.3,297.8z M399.2,304.7
		c3.7-1-2.3-7.4-3.6-11.9C395,301.1,395.1,305.2,399.2,304.7z M395.5,310.6c3.4-1.3-1.9-4.4-2.5-11.3
		C391.3,301.8,390.4,311.6,395.5,310.6L395.5,310.6z"/>
	<path class="st4" d="M390.4,312.1c2.2-1.2,1.3-6.9-2.1-7.6C387.5,309,387.6,312.2,390.4,312.1L390.4,312.1z"/>
</g>
<g>
	<path class="st4" d="M442.4,279.1c1-4-0.3-5.2,0.8-11.4C437.3,275.6,439.5,279.4,442.4,279.1z"/>
	<path class="st4" d="M443.1,280c3.9,1.1,14.2-7.9,14.5-14.6C454.8,270.3,441,275.5,443.1,280z M436.7,286c2.7-1.5,1.9-7.7-0.5-9.8
		C435.6,282.2,432,285.8,436.7,286L436.7,286z"/>
	<path class="st4" d="M439.4,287.7c4.8,1.5,10.2-7.1,14.1-10.9C449,280.6,435.5,282.5,439.4,287.7L439.4,287.7z M432.9,291.9
		c3.3-2.2,0.2-6.5,0-15C429.5,283.1,428.8,291.5,432.9,291.9L432.9,291.9z"/>
	<path class="st4" d="M433.5,294.1c1.7,2.3,14.3-5.6,17.4-11.4C440.2,290.7,430.7,289.7,433.5,294.1L433.5,294.1z M432.3,301.2
		c3.1-2.3-2.7-8.2-3.9-16.1C428.5,294.8,427.1,302.2,432.3,301.2z"/>
	<path class="st4" d="M435.6,298.6c1.5,2.5,11.2-4.1,15.3-11.3C444.5,292.9,433.8,294.4,435.6,298.6z M425.8,309.4
		c3.5-0.6,3-9.4,0.3-16.6C423.2,301.5,421.8,310.3,425.8,309.4L425.8,309.4z"/>
	<path class="st4" d="M434.5,304.6c1.2,1.4,15.4-8.5,15.2-12.5C445.2,298.5,430.2,299.8,434.5,304.6z M418.1,317.6
		c4.8-2,2.5-9.7,3.5-18.1C417.8,307.7,413.3,315.9,418.1,317.6z"/>
	<path class="st4" d="M427.1,310.9c0.8,2.6,12.3-2.3,17.9-10.3C438.2,305.8,425.2,306.5,427.1,310.9L427.1,310.9z"/>
	<path class="st4" d="M419.6,318.9c2.5,4.1,16.8-3.4,18.9-10.5C433.9,314.5,417.9,313.6,419.6,318.9L419.6,318.9z"/>
	<path class="st4" d="M426.2,322.1c2.6,0.3,8.7-4.7,10.4-7.3C431.7,317.2,425.1,320.5,426.2,322.1z"/>
</g>
<g>
	<path class="st12" d="M433.9,322.3c0.9-0.2,2.1-0.5,1,0.9c-8.6,10.7-11.1,13.6-23.7,12.1c-12.7-1.7-15.7-5.1-24.6-10.2
		c-4.8-2.8-11.7-3.4-17-1.7c-2.5,0.8-3.9,0.9-2.2-0.9c1.8-1.8,3.8-4.2,6-5.8c4.7-3.7,12.8-5.2,19.3-4.1c9.3,1.5,16.9,7.4,26.1,9.6
		C423.6,323.4,428.9,323.2,433.9,322.3L433.9,322.3z"/>
	<path class="st4" d="M433.9,322.3c0.9-0.2,2.1-0.5,1,0.9c-8.6,10.7-11.1,13.6-23.7,12.1c-12.7-1.7-15.7-5.1-24.6-10.2
		c-4.8-2.8-11.7-3.4-17-1.7c-2.5,0.8-3.9,0.9-2.2-0.9c1.8-1.8,3.8-4.2,6-5.8c4.7-3.7,12.8-5.2,19.3-4.1c9.3,1.5,16.9,7.4,26.1,9.6
		C423.6,323.4,428.9,323.2,433.9,322.3L433.9,322.3z"/>
</g>
<g>
	<path class="st13" d="M361.2,341.1c-1.6,0.2-2.6,3.3-3.4,1.2c-1.3-3.4-0.4-6.1,1.1-5.8C360.7,336.9,363.6,340.9,361.2,341.1
		L361.2,341.1z"/>
	<path class="st4" d="M361.2,341.1c-1.6,0.2-2.6,3.3-3.4,1.2c-1.3-3.4-0.4-6.1,1.1-5.8C360.6,336.9,363.6,340.9,361.2,341.1
		L361.2,341.1z"/>
</g>
<g>
	<path class="st3" d="M378.6,327.1c4.5,1.2,5.7-4,6.1-7.8C380.7,320.2,376.4,322.6,378.6,327.1z M376.8,331.7
		c0.8,3.6,9.6-0.1,11.3-5.1C381.9,330.3,375.7,326.3,376.8,331.7z"/>
	<path class="st3" d="M373.7,331.6c4,0.7,1.8-5.7,1.6-11.9C373,324.8,369.7,331,373.7,331.6z M368.6,337.5c4.4,0.5,1.6-7.9,0.4-13.6
		C367.5,329.2,364.4,337.1,368.6,337.5z"/>
	<path class="st3" d="M371.2,337.7c0.5,4.8,9.6-0.6,14.9-3.5C379.1,335.3,370.4,333,371.2,337.7z M366.2,344.4
		c0.5,4.8,9.6-0.6,14.9-3.5C374.1,342,365.4,339.7,366.2,344.4z"/>
	<path class="st3" d="M363.9,344.2c4.2,0.1,1.1-9-0.1-14.7C362.3,334.8,359.6,344.1,363.9,344.2L363.9,344.2z M360.3,350.1
		c0.5,4.8,8.8,0.1,14-3.2C367.2,348.3,359.5,345.4,360.3,350.1z"/>
</g>
<g>
	<path class="st4" d="M378.6,327.1c4.5,1.2,5.7-4,6.1-7.8C380.7,320.2,376.4,322.6,378.6,327.1z M376.8,331.7
		c0.8,3.6,9.6-0.1,11.3-5.1C381.9,330.3,375.7,326.3,376.8,331.7z"/>
	<path class="st4" d="M373.7,331.6c4,0.7,1.8-5.7,1.6-11.9C373,324.8,369.7,331,373.7,331.6z M368.6,337.5c4.4,0.5,1.6-7.9,0.4-13.6
		C367.5,329.2,364.4,337.1,368.6,337.5z"/>
	<path class="st4" d="M371.2,337.7c0.5,4.8,9.6-0.6,14.9-3.5C379.1,335.3,370.4,333,371.2,337.7z M366.2,344.4
		c0.5,4.8,9.6-0.6,14.9-3.5C374.1,342,365.4,339.7,366.2,344.4z"/>
	<path class="st4" d="M363.9,344.2c4.2,0.1,1.1-9-0.1-14.7C362.3,334.8,359.6,344.1,363.9,344.2L363.9,344.2z M360.3,350.1
		c0.5,4.8,8.8,0.1,14-3.2C367.2,348.3,359.5,345.4,360.3,350.1z"/>
</g>
<g>
	<path class="st3" d="M406.9,342c2.5,4.1,11.6-3,16.6-6.7C416.4,337.6,405.2,336.7,406.9,342L406.9,342z"/>
	<path class="st3" d="M397.6,346.3c0.9,4.7,16.4,0.8,18.6-2.7C409,346.6,396.7,342.2,397.6,346.3z"/>
	<path class="st3" d="M390.3,349.9c0.5,2.6,12.3,1.6,18.3-0.4C402.1,350.3,389.1,345.8,390.3,349.9L390.3,349.9z"/>
	<path class="st3" d="M384.1,353c0,2.4,13.8,3.8,18.4-0.1C393.3,354.3,383.2,347.3,384.1,353L384.1,353z"/>
	<path class="st3" d="M373.2,355.3c-0.5,3.3,14.4,2.6,19.1,1C384.3,355.6,374,350.4,373.2,355.3L373.2,355.3z"/>
	<path class="st3" d="M373,352.2c3.4,3.1,12-10.7,14.9-16.8C381.2,342.4,369.2,349.5,373,352.2z"/>
	<path class="st3" d="M382.9,349.9c4,2.7,7.7-7.1,9.7-14.3C388.8,341.8,379,345.8,382.9,349.9z"/>
	<path class="st3" d="M390.6,347.2c4,2.7,6.3-6.2,7.2-11.7C395.1,340.3,386.8,343.2,390.6,347.2L390.6,347.2z"/>
	<path class="st3" d="M398.1,342.5c4,2.7,9.1-4.7,7.9-12C404.5,338,394.3,338.5,398.1,342.5z M382.9,363.3c2,5,22.8-4.4,26.3-10.7
		C402.5,358.3,381,357.5,382.9,363.3L382.9,363.3z"/>
</g>
<g>
	<path class="st4" d="M406.9,342c2.5,4.1,11.6-3,16.6-6.7C416.4,337.6,405.2,336.7,406.9,342L406.9,342z"/>
	<path class="st4" d="M397.6,346.3c0.9,4.7,16.4,0.8,18.6-2.7C409,346.6,396.7,342.2,397.6,346.3z"/>
	<path class="st4" d="M390.3,349.9c0.5,2.6,12.3,1.6,18.3-0.4C402.1,350.3,389.1,345.8,390.3,349.9L390.3,349.9z"/>
	<path class="st4" d="M384.1,353c0,2.4,13.8,3.8,18.4-0.1C393.3,354.3,383.2,347.3,384.1,353L384.1,353z"/>
	<path class="st4" d="M373.2,355.3c-0.5,3.3,14.4,2.6,19.1,1C384.3,355.6,374,350.4,373.2,355.3L373.2,355.3z"/>
	<path class="st4" d="M373,352.2c3.4,3.1,12-10.7,14.9-16.8C381.2,342.4,369.2,349.5,373,352.2z"/>
	<path class="st4" d="M382.9,349.9c4,2.7,7.7-7.1,9.7-14.3C388.8,341.8,379,345.8,382.9,349.9z"/>
	<path class="st4" d="M390.6,347.2c4,2.7,6.3-6.2,7.2-11.7C395.1,340.3,386.8,343.2,390.6,347.2L390.6,347.2z"/>
	<path class="st4" d="M398.1,342.5c4,2.7,9.1-4.7,7.9-12C404.5,338,394.3,338.5,398.1,342.5z M382.9,363.3c2,5,22.8-4.4,26.3-10.7
		C402.5,358.3,381,357.5,382.9,363.3L382.9,363.3z"/>
</g>
<g>
	<path class="st9" d="M217.1,223.3c-0.7-6.6,4.3-18.5,0.8-24.8c-0.5-0.9,1-3.2,2-1.8c1.5,2.2,3.1,8.6,3.8,6.3c0.7-2.6,0.8-7.1,3.1-8
		c1.5-0.5,3.5-0.9,2.9,1.4c-0.6,2.2-1.8,5.2-0.4,5.4c0.8,0.1,3.1-3,5-4.4c1.6-1.3,3.9,0.7,1.6,2.6
		C228.5,206.2,221.3,209,217.1,223.3L217.1,223.3z"/>
	<path class="st4" d="M217.1,223.3c-0.7-6.5,4.3-18.5,0.8-24.8c-0.5-0.9,1-3.2,2-1.8c1.5,2.2,3.1,8.6,3.8,6.3c0.7-2.6,0.8-7.1,3.1-8
		c1.4-0.5,3.5-0.9,2.9,1.4c-0.6,2.2-1.8,5.2-0.4,5.4c0.8,0.1,3.1-3,5-4.4c1.6-1.3,3.9,0.7,1.6,2.6
		C228.5,206.2,221.3,209,217.1,223.3L217.1,223.3z"/>
</g>
<g>
	<path class="st2" d="M203.8,321.9c-0.9-0.2-2.1-0.5-1,0.9c8.7,10.7,11.2,13.6,23.8,12.1c12.8-1.7,15.8-5.1,24.8-10.2
		c4.8-2.8,11.8-3.4,17.1-1.7c2.5,0.8,4,0.9,2.2-0.9c-1.8-1.8-3.9-4.2-6-5.8c-4.8-3.7-12.8-5.2-19.4-4.1c-9.3,1.5-17,7.4-26.2,9.6
		C214.1,323,208.8,322.8,203.8,321.9L203.8,321.9z"/>
	<path class="st4" d="M203.8,321.9c-0.9-0.2-2.1-0.5-1,0.9c8.7,10.7,11.2,13.6,23.8,12.1c12.8-1.7,15.8-5.1,24.8-10.2
		c4.8-2.8,11.8-3.4,17.1-1.7c2.5,0.8,4,0.9,2.2-0.9c-1.8-1.8-3.9-4.2-6-5.8c-4.8-3.7-12.8-5.2-19.4-4.1c-9.3,1.5-17,7.4-26.2,9.6
		C214.1,323,208.8,322.8,203.8,321.9L203.8,321.9z"/>
</g>
<g>
	<path class="st2" d="M276.8,341c1.6,0.2,2.6,3.3,3.4,1.2c1.3-3.4,0.4-6.1-1.1-5.8C277.3,336.8,274.3,340.8,276.8,341L276.8,341z"/>
	<path class="st4" d="M276.8,341c1.6,0.2,2.6,3.3,3.4,1.2c1.3-3.4,0.4-6.1-1.1-5.8C277.3,336.8,274.3,340.8,276.8,341L276.8,341z"/>
</g>
<path class="st2" d="M273.2,343.9c4.3,1,4.3-9.4-0.2-13.9C275,336.7,269.8,342.8,273.2,343.9z M271.5,343.8c0.3,5-12.2-0.6-15.4-4.5
	C263.5,342.4,271.1,339.8,271.5,343.8z M266,336.7c0.4,4.8-10.8,0.6-14.1-3.2C259.3,335.9,265.5,332.7,266,336.7z M268.1,337.4
	c4.3,1,3.6-9.8-0.6-13.5C269.5,331.1,264.7,336.3,268.1,337.4L268.1,337.4z M263.5,330.8c4.3,1,1.8-8.3-1.4-12
	C262.7,325.6,260.6,330.3,263.5,330.8z M261.3,330.8c0.4,4.9-8.3,1.1-11.7-3.5C256.9,329.6,260.8,326.8,261.3,330.8L261.3,330.8z
	 M258.9,327c2.8-2-0.2-7.4-5.6-7.1C253.8,323.2,255.7,328.9,258.9,327z M280.2,349.4c0.3,5-12.2,2.5-16.1-2.8
	C272,348.1,279.8,345.4,280.2,349.4L280.2,349.4z"/>
<g>
	<g>
		<path class="st2" d="M197.8,218.1c-1.9-1.9-1.3-2.7,1.4-2.7c2.2-0.1,6.5,1.3,8.1,0.1c1.5-1.1,0.9-5.7,1.6-7.8
			c0.3-1.2,1.1-3.1,3-0.1c5.5,8.9,12.4,19.5,15.4,29.9c1.6,5.8,0.1,15-5.3,21.1c0.2-5.2-1.8-8.7-4.1-13.1
			C214.9,239.7,204,224.2,197.8,218.1L197.8,218.1z"/>
		<path class="st2" d="M220.6,264.7c6.1,0,7.1-8.1,7.1-10.4C224.7,254.9,219.5,259.9,220.6,264.7z"/>
	</g>
	<path class="st4" d="M197.8,218.1c-1.9-1.9-1.3-2.7,1.4-2.7c2.2-0.1,6.5,1.3,8.1,0.1c1.5-1.1,0.9-5.7,1.6-7.8
		c0.3-1.2,1.1-3.1,3-0.1c5.5,8.9,12.4,19.5,15.4,29.9c1.6,5.8,0.1,15-5.3,21.1c0.2-5.2-1.8-8.7-4.1-13.1
		C214.9,239.7,204,224.2,197.8,218.1L197.8,218.1z"/>
	<path class="st4" d="M220.6,264.7c6.1,0,7.1-8.1,7.1-10.4C224.7,254.9,219.5,259.9,220.6,264.7z"/>
</g>
<path class="st4" d="M273.2,343.9c4.3,1,4.3-9.4-0.2-13.9C275,336.7,269.8,342.8,273.2,343.9z M271.5,343.8c0.3,5-12.2-0.6-15.4-4.5
	C263.5,342.4,271.1,339.8,271.5,343.8L271.5,343.8z M266,336.7c0.4,4.8-10.8,0.6-14.1-3.2C259.3,335.9,265.5,332.7,266,336.7z
	 M268.1,337.4c4.3,1,3.6-9.8-0.6-13.5C269.5,331.1,264.7,336.3,268.1,337.4L268.1,337.4z M263.5,330.8c4.3,1,1.8-8.3-1.4-12
	C262.7,325.6,260.6,330.3,263.5,330.8z M261.3,330.8c0.4,4.9-8.3,1.1-11.7-3.5C256.9,329.6,260.8,326.8,261.3,330.8L261.3,330.8z
	 M258.9,327c2.8-2-0.2-7.4-5.6-7.1C253.8,323.2,255.7,328.9,258.9,327z M280.2,349.4c0.3,5-12.2,2.5-16.1-2.8
	C272,348.1,279.8,345.4,280.2,349.4L280.2,349.4z"/>
<g>
	<path class="st3" d="M230.8,340.5c0.4,4.9-13.1-0.5-16.5-5.2C221.5,337.7,230.3,336.6,230.8,340.5z M239.1,342.6
		c2.8-2-3-7.3-7.6-8.5C232,337.4,235.9,344.5,239.1,342.6z M240,346.1c0.3,4.4-14.6,2-18.5-2.1C234.3,346.3,239.5,342.3,240,346.1z"
		/>
	<path class="st3" d="M246.9,349c1.6,4.1-12.6,3.1-17.6,0.7C237.4,349.7,245.8,346.1,246.9,349z"/>
	<path class="st3" d="M253.6,352c1.6,3.7-11.6,3.6-18.1,1.6C244,353.5,252,348.4,253.6,352L253.6,352z M263.2,354
		c2.3,4.4-11.6,4.8-16.1,2.6C255.1,355.6,261.2,350.6,263.2,354L263.2,354z"/>
	<path class="st3" d="M246.9,346.5c-4.4,2.8-4.2-5.4-7.7-11.1C244.7,340.4,249.9,343.9,246.9,346.5z M254.7,349.5
		c-3.7,3.3-6.7-8-10.1-14.4C250.1,341.2,258.2,346.7,254.7,349.5z M265.1,352.6c-3.1,3.6-12.2-10.7-15.6-18.2
		C254.6,340.3,267.6,349.5,265.1,352.6L265.1,352.6z"/>
</g>
<g>
	<path class="st4" d="M230.8,340.5c0.4,4.9-13.1-0.5-16.5-5.2C221.5,337.7,230.3,336.6,230.8,340.5z M239.1,342.6
		c2.8-2-3-7.3-7.6-8.5C232,337.4,235.9,344.5,239.1,342.6z M240,346.1c0.3,4.4-14.6,2-18.5-2.1C234.3,346.3,239.5,342.3,240,346.1z"
		/>
	<path class="st4" d="M246.9,349c1.6,4.1-12.6,3.1-17.6,0.7C237.4,349.7,245.8,346.1,246.9,349z"/>
	<path class="st4" d="M253.6,352c1.6,3.7-11.6,3.6-18.1,1.6C244,353.5,252,348.4,253.6,352L253.6,352z M263.2,354
		c2.3,4.4-11.6,4.8-16.1,2.6C255.1,355.6,261.2,350.6,263.2,354L263.2,354z M246.9,346.5c-4.4,2.8-4.2-5.4-7.7-11.1
		C244.7,340.4,249.9,343.9,246.9,346.5z"/>
	<path class="st4" d="M254.7,349.5c-3.7,3.3-6.7-8-10.1-14.4C250.1,341.2,258.2,346.7,254.7,349.5z M265.1,352.6
		c-3.1,3.6-12.2-10.7-15.6-18.2C254.6,340.3,267.6,349.5,265.1,352.6L265.1,352.6z"/>
</g>
<path class="st4" d="M256.3,363.6c-1.6,5.5-24.7-5.2-27.3-10.8C242.2,359.8,256.6,358.3,256.3,363.6z"/>
<g>
	<path class="st2" d="M181.8,250.9c-0.5-0.7-2.1,0-1.7,1.7c0.4,2.3,3.7,14.1,9.5,18.1c4.1,3,25.9,7.8,35.8,9.8
		c5.4,1.1,10,3.8,13.5,8.1c-1.5-5.7-2.7-9.8-4.6-15c-1.9-4.5-6.8-9.4-11.8-9.7c-9.4-0.3-21.6-1.1-30.5-5
		C187.5,257.1,184.8,254.5,181.8,250.9L181.8,250.9z"/>
	<path class="st4" d="M181.8,250.9c-0.5-0.7-2.1,0-1.7,1.7c0.4,2.3,3.7,14.1,9.5,18.1c4.1,3,25.9,7.8,35.8,9.8
		c5.4,1.1,10,3.8,13.5,8.1c-1.5-5.7-2.7-9.8-4.6-15c-1.9-4.5-6.8-9.4-11.8-9.7c-9.4-0.3-21.6-1.1-30.5-5
		C187.5,257.1,184.8,254.5,181.8,250.9L181.8,250.9z"/>
</g>
<g>
	<path class="st3" d="M235.9,297.4c3,2.2,6.3-5.7,2.5-13.1C238.2,291.5,232.5,293.9,235.9,297.4z"/>
	<path class="st3" d="M238.7,304.6c4.1,1.3,5.4-6,2.7-11.8C241.9,299.1,235,302.8,238.7,304.6z"/>
	<path class="st3" d="M241.9,310.4c4,2,5.5-5.4,2.6-10.8C244.8,306.6,238.8,308.6,241.9,310.4L241.9,310.4z"/>
	<path class="st3" d="M240.2,310.9c-1.6,4.7-10.7-4.1-12.2-8.8C233.7,307.7,241.4,307,240.2,310.9L240.2,310.9z"/>
	<path class="st3" d="M236.1,303.7c-1.8,4.7-13.3-7.4-15.8-13.2C226,296,237.4,300.3,236.1,303.7z"/>
	<path class="st3" d="M233.8,296.6c-1.8,5.3-14.3-8.9-17.8-14C222,288.2,235.2,292.7,233.8,296.6z"/>
	<path class="st3" d="M233.4,291.3c4.4-0.9-0.2-4.5-5.6-10.5C227.5,287.1,228.6,291.5,233.4,291.3z M226,287.8
		c1.9-2.1-1.8-2.9-6.4-8.1C218.9,283.1,223.9,289.5,226,287.8z M247.3,311c2.4,1.4,4.1-3.5,1.1-8C247.7,307.8,245.1,309.2,247.3,311
		L247.3,311z"/>
</g>
<g>
	<path class="st4" d="M235.9,297.4c3,2.2,6.3-5.7,2.5-13.1C238.2,291.5,232.5,293.9,235.9,297.4z"/>
	<path class="st4" d="M238.7,304.6c4.1,1.3,5.4-6,2.7-11.8C241.9,299.1,235,302.8,238.7,304.6z"/>
	<path class="st4" d="M241.9,310.4c4,2,5.5-5.4,2.6-10.8C244.8,306.6,238.8,308.6,241.9,310.4L241.9,310.4z"/>
	<path class="st4" d="M240.2,310.9c-1.6,4.7-10.7-4.1-12.2-8.8C233.7,307.7,241.4,307,240.2,310.9L240.2,310.9z"/>
	<path class="st4" d="M236.1,303.7c-1.8,4.7-13.3-7.4-15.8-13.2C226,296,237.4,300.3,236.1,303.7z"/>
	<path class="st4" d="M233.8,296.6c-1.8,5.3-14.3-8.9-17.8-14C222,288.2,235.2,292.7,233.8,296.6z M233.4,291.3
		c4.4-0.9-0.2-4.5-5.6-10.5C227.5,287.1,228.6,291.5,233.4,291.3z"/>
	<path class="st4" d="M226,287.8c1.9-2.1-1.8-2.9-6.4-8.1C218.9,283.1,223.9,289.5,226,287.8z M247.3,311c2.4,1.4,4.1-3.5,1.1-8
		C247.7,307.8,245.1,309.2,247.3,311L247.3,311z"/>
</g>
<g>
	<path class="st3" d="M195,279.9c-5.1,3.1-13.2-9.2-15.4-14.2C184.1,271.5,196,276.8,195,279.9z"/>
	<path class="st3" d="M199.4,287c-2.8,3.1-11.7-5.4-14.8-9.7C189.4,281.4,200.7,281.9,199.4,287L199.4,287z"/>
	<path class="st3" d="M204.2,293.4c-0.9,4.3-13.9-5.3-16.9-9.9C192.9,288.8,205.1,288.3,204.2,293.4z"/>
	<path class="st3" d="M202.2,298c-2,3.9-12.6-5.7-15.1-10.7C193.6,293,203.9,294.2,202.2,298L202.2,298z M196.8,279.3
		c3.3-3.5,1.9-5.2-0.5-10.7C195,274.3,193,276.5,196.8,279.3z M201.2,285.9c6,0.3,0.1-7.1-1.4-13.3
		C200.4,279.7,198.3,285.2,201.2,285.9z"/>
	<path class="st3" d="M205.1,291.7c4.2-0.9,3-6.9-0.2-14C205.5,285.5,201.3,289.9,205.1,291.7L205.1,291.7z M203.7,303.5
		c-1.6,4.7-13.5-6.2-15.4-10.3C194.3,298.2,204.7,299.9,203.7,303.5z"/>
	<path class="st3" d="M210.8,310.8c-1.8,4.7-14.3-4.8-18.1-10C200.2,306.7,211.7,306.1,210.8,310.8z"/>
	<path class="st3" d="M218.1,318.2c-2,6.6-15-3.9-18.9-9C207.4,315.5,219.1,313.5,218.1,318.2z M205.8,301.4c3.5,1.8,5-8.2,3-15.3
		C208.8,293.8,201.7,299.6,205.8,301.4z"/>
	<path class="st3" d="M211.9,309.3c4.3,1.3,2.9-9.6-0.7-16.6C210.7,299.7,207.5,306.3,211.9,309.3z M219.4,316.8
		c4.8,0.3,1.5-9.3-2.4-14.7C217.7,309.2,215.4,316,219.4,316.8L219.4,316.8z M211.1,320.9c-1.4,2.4-4.9-2.1-10.7-5.3
		C205.6,316.9,211.7,318.7,211.1,320.9L211.1,320.9z"/>
</g>
<g>
	<path class="st4" d="M195,279.9c-5.1,3.1-13.2-9.2-15.4-14.2C184.1,271.5,196,276.8,195,279.9z"/>
	<path class="st4" d="M199.4,287c-2.8,3.1-11.7-5.4-14.8-9.7C189.4,281.4,200.7,281.9,199.4,287L199.4,287z"/>
	<path class="st4" d="M204.2,293.4c-0.9,4.3-13.9-5.3-16.9-9.9C192.9,288.8,205.1,288.3,204.2,293.4z"/>
	<path class="st4" d="M202.2,298c-2,3.9-12.6-5.7-15.1-10.7C193.6,293,203.9,294.2,202.2,298L202.2,298z M196.8,279.3
		c3.3-3.5,1.9-5.2-0.5-10.7C195,274.3,193,276.5,196.8,279.3z M201.2,285.9c6,0.3,0.1-7.1-1.4-13.3
		C200.4,279.7,198.3,285.2,201.2,285.9z"/>
	<path class="st4" d="M205.1,291.7c4.2-0.9,3-6.9-0.2-14C205.5,285.5,201.3,289.9,205.1,291.7L205.1,291.7z M203.7,303.5
		c-1.6,4.7-13.5-6.2-15.4-10.3C194.3,298.2,204.7,299.9,203.7,303.5z"/>
	<path class="st4" d="M210.8,310.8c-1.8,4.7-14.3-4.8-18.1-10C200.2,306.7,211.7,306.1,210.8,310.8z"/>
	<path class="st4" d="M218.1,318.2c-2,6.6-15-3.9-18.9-9C207.4,315.5,219.1,313.5,218.1,318.2z M205.8,301.4c3.5,1.8,5-8.2,3-15.3
		C208.8,293.8,201.7,299.6,205.8,301.4z"/>
	<path class="st4" d="M211.9,309.3c4.3,1.3,2.9-9.6-0.7-16.6C210.7,299.7,207.5,306.3,211.9,309.3z M219.4,316.8
		c4.8,0.3,1.5-9.3-2.4-14.7C217.7,309.2,215.4,316,219.4,316.8L219.4,316.8z M211.1,320.9c-1.4,2.4-4.9-2.1-10.7-5.3
		C205.6,316.9,211.7,318.7,211.1,320.9L211.1,320.9z"/>
</g>
<g>
	<path class="st3" d="M208.3,240.3c4.4-3.3,1.1-9.4,0-15.3C206.9,230.6,203.2,237.9,208.3,240.3z M208.2,248.6
		c-6.7-0.8-5.7-9.4-5.9-14.9C204.3,241.1,209.8,242.3,208.2,248.6L208.2,248.6z M209.3,247.4c5.6-0.3,5.3-6.7,5.6-13.2
		C212,240.2,208.7,241.1,209.3,247.4z"/>
	<path class="st3" d="M209,255.4c-4.4,0.3-6.7-4-7.7-10.7C205.5,250.9,209.3,249,209,255.4L209,255.4z M210.6,254.9
		c5.6,0.7,4.7-5.8,4.5-10.7C213.4,248.8,208.8,250.3,210.6,254.9z"/>
	<path class="st3" d="M201.8,252.1c0.4,4.3,3.2,11.7,7.5,10C211.1,256.8,205.5,255.8,201.8,252.1z"/>
	<path class="st3" d="M210.7,262.5c-2-3.8,4.4-5.6,5.8-10.5C217.3,259,216.6,263.6,210.7,262.5z"/>
</g>
<g>
	<path class="st4" d="M208.3,240.3c4.4-3.3,1.1-9.4,0-15.3C206.9,230.6,203.2,237.9,208.3,240.3z M208.2,248.6
		c-6.7-0.8-5.7-9.4-5.9-14.9C204.3,241.1,209.8,242.3,208.2,248.6L208.2,248.6z M209.3,247.4c5.6-0.3,5.3-6.7,5.6-13.2
		C212,240.2,208.7,241.1,209.3,247.4z"/>
	<path class="st4" d="M209,255.4c-4.4,0.3-6.7-4-7.7-10.7C205.5,250.9,209.3,249,209,255.4L209,255.4z M210.6,254.9
		c5.6,0.7,4.7-5.8,4.5-10.7C213.4,248.8,208.8,250.3,210.6,254.9z"/>
	<path class="st4" d="M201.8,252.1c0.4,4.3,3.2,11.7,7.5,10C211.1,256.8,205.5,255.8,201.8,252.1z"/>
	<path class="st4" d="M210.7,262.5c-2-3.8,4.4-5.6,5.8-10.5C217.3,259,216.6,263.6,210.7,262.5z"/>
</g>
<g>
	<path class="st3" d="M192.5,218c3.5-3.8,0.4-9.8-0.6-15.6C190.4,207.9,187.9,215.2,192.5,218z M192.4,225
		c-6.2,0.6-7.7-11.9-8.3-17.3C186.1,215.1,193.2,218.5,192.4,225L192.4,225z M193.7,224.9c4.4-2.3,3.3-7.1,4.7-10.7
		C195.4,218.6,192.8,219.3,193.7,224.9L193.7,224.9z"/>
	<path class="st3" d="M192.4,233.1c-6.5,0.6-10.3-13.3-10.5-18.8C183.9,221.7,193.2,225.8,192.4,233.1L192.4,233.1z M193.7,232.9
		c6.1-1.4,5.3-5.3,4.4-11.7C196.2,227.6,192.8,226.3,193.7,232.9z"/>
	<path class="st3" d="M192.4,241.1c-7.1,1.2-6.6-10-12.2-18.2C185,229,193.8,236.6,192.4,241.1L192.4,241.1z M194,240.7
		c5.4,0.2,5.9-7.9,5.6-11.2C198.3,232.8,192,235.9,194,240.7L194,240.7z"/>
	<path class="st3" d="M181.3,232.5c2.7,8.6,6.4,17.3,11.1,16.6C194.6,244.2,187.9,243.6,181.3,232.5z"/>
	<path class="st3" d="M194,247.9c-2-3.8,4.4-5.6,5.8-10.5C200.6,244.3,199.9,248.9,194,247.9L194,247.9z M183.1,242.4
		c3.8,7.8,5.5,16.7,10.7,15.4C195.8,251.7,188.1,250.5,183.1,242.4z"/>
	<path class="st3" d="M194.9,256.3c-2.2-4.1,4.2-5.6,5.7-11.2C201.5,252.5,200.7,257.8,194.9,256.3L194.9,256.3z"/>
</g>
<g>
	<path class="st4" d="M192.5,218c3.5-3.8,0.4-9.8-0.6-15.6C190.4,207.9,187.9,215.2,192.5,218z M192.4,225
		c-6.2,0.6-7.7-11.9-8.3-17.3C186.1,215.1,193.2,218.5,192.4,225L192.4,225z M193.7,224.9c4.4-2.3,3.3-7.1,4.7-10.7
		C195.4,218.6,192.8,219.3,193.7,224.9L193.7,224.9z"/>
	<path class="st4" d="M192.4,233.1c-6.5,0.6-10.3-13.3-10.5-18.8C183.9,221.7,193.2,225.8,192.4,233.1L192.4,233.1z M193.7,232.9
		c6.1-1.4,5.3-5.3,4.4-11.7C196.2,227.6,192.8,226.3,193.7,232.9z"/>
	<path class="st4" d="M192.4,241.1c-7.1,1.2-6.6-10-12.2-18.2C185,229,193.8,236.6,192.4,241.1L192.4,241.1z M194,240.7
		c5.4,0.2,5.9-7.9,5.6-11.2C198.3,232.8,192,235.9,194,240.7L194,240.7z"/>
	<path class="st4" d="M181.3,232.5c2.7,8.6,6.4,17.3,11.1,16.6C194.6,244.2,187.9,243.6,181.3,232.5z"/>
	<path class="st4" d="M194,247.9c-2-3.8,4.4-5.6,5.8-10.5C200.6,244.3,199.9,248.9,194,247.9L194,247.9z M183.1,242.4
		c3.8,7.8,5.5,16.7,10.7,15.4C195.8,251.7,188.1,250.5,183.1,242.4z"/>
	<path class="st4" d="M194.9,256.3c-2.2-4.1,4.2-5.6,5.7-11.2C201.5,252.5,200.7,257.8,194.9,256.3L194.9,256.3z"/>
</g>
<path class="st2" d="M205.9,203.6c3.7,1,7.7-3.2,6.3-9.5C207.9,195.2,205.9,199.1,205.9,203.6L205.9,203.6z M193.9,200.5
	c0.3,1.8,2.5,1.9,1.9-0.6c-0.5-2-0.6-3.6,0-5.2c0.8-2.1,0.6-5.6-0.1-7.1c-0.6-1.6-2.7-0.6-1.9,0.6c1,1.4,1,4.3,0.4,5.7
	C193.3,196,193.5,198.6,193.9,200.5L193.9,200.5z"/>
<path class="st4" d="M205.9,203.6c3.7,1,7.7-3.2,6.3-9.5C207.9,195.2,205.9,199.1,205.9,203.6L205.9,203.6z M193.9,200.5
	c0.3,1.8,2.5,1.9,1.9-0.6c-0.5-2-0.6-3.6,0-5.2c0.8-2.1,0.6-5.6-0.1-7.1c-0.6-1.6-2.7-0.6-1.9,0.6c1,1.4,1,4.3,0.4,5.7
	C193.3,196,193.5,198.6,193.9,200.5L193.9,200.5z"/>
<path class="st2" d="M206.8,193.8c-0.4,2.8-2.7,3-2-0.9c0.6-3.2,0.7-5.5,0-8.1c-0.9-3.2-0.6-8.7,0.1-11c0.7-2.4,3-1,2,0.9
	c-1.1,2.2-1.1,6.8-0.4,8.9C207.5,186.7,207.2,190.9,206.8,193.8L206.8,193.8z M224.2,221.4c-1.4,2.1-3.8,0.9-2.4-2.5
	c1.1-2.4,1.2-5.3,2.5-7c1.7-2.6,4.6-4.8,6.3-6.4c1.7-1.7,3.1-0.1,1.6,1.4c-1.9,1.9-4,4.3-5.1,6.1
	C224.8,216.4,225.8,219.2,224.2,221.4L224.2,221.4z"/>
<g>
	<path class="st14" d="M228.8,224.8c-1.4,2.1-4.4,0.8-2.1-2.1c1.8-2.4,4.5-4.3,4.7-6.7c0.1-3.1,2-7.8,3.6-9.4
		c1.7-1.7,3.7,0.7,1.9,1.8c-2,1.3-3.4,6.8-3.3,8.9C233.4,220.4,230.3,222.6,228.8,224.8L228.8,224.8z"/>
	<path class="st4" d="M228.8,224.8c-1.4,2.1-4.4,0.8-2.1-2.1c1.8-2.4,4.5-4.3,4.7-6.7c0.2-3.1,2-7.8,3.6-9.4
		c1.7-1.7,3.7,0.7,1.9,1.8c-2.1,1.3-3.4,6.8-3.3,8.9C233.4,220.4,230.3,222.6,228.8,224.8L228.8,224.8z"/>
</g>
<path class="st4" d="M224.2,221.4c-1.4,2.1-3.8,0.9-2.4-2.5c1.1-2.4,1.2-5.3,2.5-7c1.7-2.6,4.6-4.8,6.3-6.4c1.7-1.7,3.1-0.1,1.6,1.4
	c-1.9,1.9-4,4.3-5.1,6.1C224.8,216.4,225.8,219.2,224.2,221.4L224.2,221.4z"/>
<g>
	<path class="st15" d="M200.2,210.4c-0.2,3,2.2,3.7,2.1-0.6c-0.1-4.5-3.3-8.7-1.4-15.6c1-3.4,1.1-9.6,0.4-12.9
		c-0.6-3.3-2.9-1.1-2,1.4c1,3-0.2,8.6-0.9,11.5C196.3,202.4,200.3,206.5,200.2,210.4z"/>
	<path class="st4" d="M200.2,210.4c-0.2,3,2.2,3.7,2.1-0.6c-0.1-4.5-3.3-8.7-1.4-15.6c1-3.4,1.1-9.6,0.4-12.9
		c-0.6-3.3-2.9-1.1-2,1.4c1,3-0.2,8.6-0.9,11.5C196.3,202.4,200.3,206.5,200.2,210.4L200.2,210.4z"/>
</g>
<path class="st4" d="M206.8,193.8c-0.4,2.8-2.7,3-2-0.9c0.6-3.2,0.7-5.5,0-8.1c-0.9-3.2-0.6-8.7,0.1-11c0.7-2.4,3-1,2,0.9
	c-1.1,2.2-1.1,6.8-0.4,8.9C207.5,186.7,207.2,190.9,206.8,193.8L206.8,193.8z M183,250.3c1.2,1.4,3.1,0.5,1.3-1.4
	c-1.5-1.5-1-2-1.9-3.8c-0.9-2.1-0.8-3.2-1.9-4.6c-0.9-1.4-2.3,0-1.4,1.2c1.2,1.4,0.9,2.4,1.6,3.7C182.1,247.6,181.8,248.8,183,250.3
	L183,250.3z M214.2,287.9c3.7,1.8,6.6,6.4,6.7,10.1c0.3,4.3,0.9,7.9,2.9,11c-3.1-0.9-4.5-5.7-5-10.4
	C218.4,293.7,215.8,291.6,214.2,287.9z M222,296.9c2.6,4.8,6.2,6.6,6.4,10.1c0.3,4.1,0.6,4.3,1.7,8.3c-3-0.8-3.8-1.1-4.6-7.2
	C224.9,303.8,221.5,300.8,222,296.9L222,296.9z"/>
<path class="st16" d="M362.7,376.6c0.1,1.8,0.3,3.3,1.4,4.7c-6.2-2.5-15-1.2-21,1.6c-2.7,1.3-5.9-1.5-2.8-4.1
	C344.7,375.2,355,377.3,362.7,376.6L362.7,376.6z M274.8,376.5c0.1,1.7-0.1,3.3-0.7,4.7c6.8-2.8,14-0.5,20.9,2.3
	c4.7,1.9,5.1-1.4,4.2-2.6c-1.4-2.1-4.2-4.3-7.7-4.4C289.2,376.5,280.3,376.4,274.8,376.5L274.8,376.5z M280.5,343.4
	c-1.9-0.8-4.1,0-6,2c-6.6,6.5-14.4,12.8-20.6,17.7c-2.3,2-4.7,5.7,5.2,9.3c0.4,0.1,7.6,2.8,12.2,3c1.9-0.1,1.9,2.8,1.5,3.5
	c-0.8,1.5-0.2,2.1-1.8,3.5c-1.7,1.4,0.2,3.2,1.5,2c5.6-4.9,14.7-1.8,23.5,1.1c2.1,0.6,5.9,0.4,5.8-2.4c0-3.1,2.3-5.3,3.7-5.4
	c3.6,0.6,21.3,0.8,26.7,0.2c3.2-0.4,3.4,4.4,5.1,6.2c1.2,1.2,5.7,1.6,8.8,0.2c6.1-2.8,15.4-2.8,19.2-0.1c1.6,1.2,2.8,0.2,1.9-1
	c-1.1-1.7-1.1-2.4-1.7-3.7c-1.4-2.9-0.3-3.6,1.2-3.8c16.9-2.2,22.3-7.9,17.1-12.6c-6.7-5.8-14.1-11.7-20.5-18.6
	c-1.7-1.8-2.9-2.6-6.5-1.1c-11,5-25,8.7-38.7,9C305.3,352.4,287.8,346.5,280.5,343.4L280.5,343.4z"/>
<path class="st4" d="M362.7,376.6c0.1,1.8,0.3,3.3,1.4,4.7c-6.2-2.5-15-1.2-21,1.6c-2.7,1.3-5.9-1.5-2.8-4.1
	C344.7,375.2,355,377.3,362.7,376.6L362.7,376.6z M274.8,376.5c0.1,1.7-0.1,3.3-0.7,4.7c6.8-2.8,14-0.5,20.9,2.3
	c4.7,1.9,5.1-1.4,4.2-2.6c-1.4-2.1-4.2-4.3-7.7-4.4C289.2,376.5,280.3,376.4,274.8,376.5L274.8,376.5z M280.5,343.4
	c-1.9-0.8-4.1,0-6,2c-6.6,6.5-14.4,12.8-20.6,17.7c-2.3,2-4.7,5.7,5.2,9.3c0.4,0.1,7.6,2.8,12.2,3c1.9-0.1,1.9,2.8,1.5,3.5
	c-0.8,1.5-0.2,2.1-1.8,3.5c-1.7,1.4,0.2,3.2,1.5,2c5.6-4.9,14.7-1.8,23.5,1.1c2.1,0.6,5.9,0.4,5.8-2.4c0-3.1,2.3-5.3,3.7-5.4
	c3.6,0.6,21.3,0.8,26.7,0.2c3.2-0.4,3.4,4.4,5.1,6.2c1.2,1.2,5.7,1.6,8.8,0.2c6.1-2.8,15.4-2.8,19.2-0.1c1.6,1.2,2.8,0.2,1.9-1
	c-1.1-1.7-1.1-2.4-1.7-3.7c-1.4-2.9-0.3-3.6,1.2-3.8c16.9-2.2,22.3-7.9,17.1-12.6c-6.7-5.8-14.1-11.7-20.5-18.6
	c-1.7-1.8-2.9-2.6-6.5-1.1c-11,5-25,8.7-38.7,9C305.3,352.4,287.8,346.5,280.5,343.4L280.5,343.4z"/>
<g>
	<path class="st2" d="M397.4,311.3c0.8,2.6,11.3-2.2,16.6-12.7C407.1,306.2,395.7,306.1,397.4,311.3z"/>
	<path class="st4" d="M397.4,311.3c0.8,2.6,11.3-2.2,16.6-12.7C407.1,306.2,395.7,306.1,397.4,311.3z"/>
</g>
<g>
	<path class="st17" d="M415,295.2c-3.2,4.5-7.5,7.7-7.7,11.2c-0.3,4.1-0.7,4.3-1.8,8.3c3.2-0.8,4-1.1,4.8-7.2
		C410.9,303.3,415.4,299.2,415,295.2L415,295.2z"/>
	<path class="st4" d="M415,295.2c-3.2,4.5-7.5,7.7-7.7,11.2c-0.3,4.1-0.6,4.3-1.8,8.3c3.2-0.8,4-1.1,4.8-7.2
		C410.8,303.3,415.4,299.2,415,295.2L415,295.2z"/>
</g>
<g>
	<path class="st18" d="M420.1,289.1c-3.9,1.8-4.8,4.9-4.9,8.6c-0.1,4.4-1.2,7.7-3.2,10.8c4,0.6,4.8-5.7,5.2-10.4
		C417.7,293.2,418.5,292.8,420.1,289.1z"/>
	<path class="st4" d="M420.2,289.1c-3.9,1.8-4.8,4.9-4.9,8.6c-0.1,4.4-1.2,7.7-3.2,10.8c4,0.6,4.8-5.7,5.2-10.4
		C417.7,293.2,418.5,292.8,420.2,289.1L420.2,289.1z"/>
</g>
<g>
	<path class="st19" d="M431.1,193.5c0.4,2.8,2.7,3,2-0.9c-0.6-3.2-0.7-5.6,0-8.1c0.9-3.2,0.6-8.7-0.1-11c-0.7-2.4-2.9-1-2,0.9
		c1,2.2,1.1,6.8,0.4,8.9C430.4,186.5,430.7,190.6,431.1,193.5L431.1,193.5z"/>
	<path class="st4" d="M431.1,193.6c0.3,2.8,2.7,3,2-0.9c-0.6-3.2-0.7-5.5,0-8.1c0.9-3.2,0.6-8.7-0.1-11c-0.7-2.4-2.9-1-2,0.9
		c1,2.2,1.1,6.8,0.4,8.9C430.4,186.5,430.7,190.6,431.1,193.6L431.1,193.6z"/>
</g>
<g>
	<path class="st20" d="M437.6,210.2c0.2,3-2.2,3.7-2.1-0.6c0.1-4.5,3.3-8.7,1.3-15.6c-1-3.4-1-9.6-0.4-12.9c0.5-3.3,2.8-1.1,2,1.4
		c-1,3,0.2,8.6,0.9,11.5C441.5,202.2,437.5,206.3,437.6,210.2z"/>
	<path class="st4" d="M437.6,210.2c0.2,3-2.2,3.7-2.1-0.6c0.1-4.5,3.3-8.7,1.3-15.6c-1-3.4-1-9.6-0.4-12.9c0.5-3.3,2.8-1.1,2,1.4
		c-1,3,0.2,8.6,0.9,11.5C441.5,202.2,437.5,206.3,437.6,210.2L437.6,210.2z"/>
</g>
<g>
	<path class="st21" d="M443.8,200.3c-0.3,1.8-2.4,1.9-1.8-0.6c0.5-2,0.6-3.6,0-5.2c-0.8-2.1-0.5-5.6,0.1-7.1
		c0.6-1.6,2.7-0.6,1.8,0.6c-1,1.4-1,4.3-0.4,5.7C444.4,195.7,444.2,198.4,443.8,200.3L443.8,200.3z"/>
	<path class="st4" d="M443.8,200.3c-0.3,1.8-2.4,1.9-1.8-0.6c0.5-2,0.6-3.6,0-5.2c-0.8-2.1-0.5-5.6,0.1-7.1c0.6-1.6,2.7-0.6,1.8,0.6
		c-1,1.4-1,4.3-0.3,5.7C444.4,195.7,444.2,198.4,443.8,200.3L443.8,200.3z"/>
</g>
<g>
	<path class="st2" d="M430.8,203.8c-3.1,1.3-7.1-7.5-4.2-9.2C429,194,434.3,202.1,430.8,203.8L430.8,203.8z"/>
	<path class="st4" d="M430.8,203.8c-3.1,1.3-7.1-7.5-4.2-9.2C429,194,434.3,202.1,430.8,203.8L430.8,203.8z"/>
</g>
<g>
	<path class="st22" d="M413.4,221.3c1.4,2.1,3.6,0.9,2.4-2.5c-1.1-2.4-1.2-5.3-2.4-7c-1.7-2.6-4.5-4.8-6.1-6.4
		c-1.7-1.7-3-0.1-1.5,1.4c1.8,1.9,3.8,4.3,4.9,6.1C412.8,216.3,411.9,219.1,413.4,221.3L413.4,221.3z"/>
	<path class="st4" d="M413.3,221.3c1.4,2.1,3.6,0.9,2.4-2.5c-1.1-2.4-1.2-5.3-2.4-7c-1.7-2.6-4.5-4.8-6.1-6.4
		c-1.6-1.7-3-0.1-1.5,1.4c1.8,1.9,3.8,4.3,4.9,6.1C412.8,216.3,411.9,219.1,413.3,221.3L413.3,221.3z"/>
</g>
<g>
	<path class="st22" d="M409.5,223.6c1.4,2.1,4.2,0.8,2.1-2.1c-1.8-2.4-4.3-4.3-4.5-6.7c-0.1-3.1-1.9-7.8-3.5-9.4
		c-1.7-1.7-3.6,0.7-1.8,1.8c2,1.3,3.3,6.8,3.2,8.9C405.1,219.1,408,221.4,409.5,223.6L409.5,223.6z"/>
	<path class="st4" d="M409.5,223.6c1.4,2.1,4.2,0.8,2.1-2.1c-1.8-2.4-4.3-4.3-4.5-6.7c-0.1-3.1-1.9-7.8-3.5-9.4
		c-1.6-1.7-3.5,0.7-1.8,1.8c2,1.3,3.3,6.8,3.2,8.9C405.1,219.1,408,221.3,409.5,223.6L409.5,223.6z"/>
</g>
<path class="st3" d="M287,322.5c4.2,3.4,8.2,7.2,9.4,12c1.2,4.4,2,7.8,4.8,12.3c-4.5-2.9-6.2-7.2-7.6-11.8
	C292.6,330.3,289.9,326.8,287,322.5L287,322.5z"/>
<path class="st4" d="M287,322.5c4.2,3.4,8.2,7.2,9.4,12c1.2,4.4,2,7.8,4.8,12.3c-4.5-2.9-6.2-7.2-7.6-11.8
	C292.6,330.3,289.9,326.8,287,322.5L287,322.5z M282.2,322.5c3.9,3.2,6.5,6.9,7.7,11.7c1.2,4.4,3,8,5.6,12
	c-4.2-2.9-6.8-6.7-8.1-11.4C286.2,330.1,284.8,326.7,282.2,322.5L282.2,322.5z M356,322.5c-4,3.2-6.6,7-7.9,11.8
	c-1.3,4.5-3.1,8-5.7,12c4.3-2.9,7-6.8,8.3-11.5C352,330.2,353.4,326.7,356,322.5L356,322.5z M351.1,322.5c-4.3,3.4-8.4,7.2-9.6,12
	c-1.3,4.5-2,7.9-5,12.3c4.6-2.9,6.4-7.2,7.7-11.9C345.4,330.3,348.1,326.9,351.1,322.5L351.1,322.5z M336.8,333.7
	c0.1-0.8-0.5-1.6-1.1-1.8c-1.3-0.5-2.7-0.9-4-1.3c-1.5-0.4-2.3,0.7-2.3,1.4c0,1.2-0.1,2.2,0,3.1c0.1,1.1,0.3,1.2,1,1.4
	c1.1,0.2,2.6,0.4,3.7,1.1c0.9,0.6,1.8,0.1,2.2-0.9C336.5,336,336.6,334.6,336.8,333.7z M320.6,333.7c-0.1-0.8,0.3-1.6,0.9-1.9
	c1.2-0.5,2.4-0.6,3.6-0.6c1.4,0,1.7,0.3,1.7,1c0,1.2,0.1,2.3,0,3.2c-0.1,1.1,0,1.2-0.7,1.4c-1,0.2-2.7,0.2-3.7,1
	c-0.8,0.6-1.7,0.1-1.8-0.9C320.8,336.1,320.7,334.6,320.6,333.7L320.6,333.7z M301,333.5c-0.1-0.8,0.5-1.6,1.1-1.8
	c1.3-0.5,2.7-0.9,4-1.3c1.5-0.4,2.3,0.7,2.4,1.4c0,1.2,0.1,2.2,0,3.1c-0.1,1.1-0.3,1.2-1,1.4c-1.1,0.2-2.6,0.4-3.7,1.1
	c-0.9,0.6-1.8,0.1-2.2-0.9C301.3,335.8,301.1,334.4,301,333.5L301,333.5z M317.2,333.5c0.1-0.8-0.3-1.6-0.9-1.9
	c-1.2-0.5-2.4-0.6-3.6-0.6c-1.4,0-1.7,0.3-1.7,1c0,1.2-0.1,2.3,0,3.2c0.1,1.1,0,1.2,0.7,1.4c1,0.2,2.7,0.2,3.7,1
	c0.8,0.6,1.7,0.1,1.8-0.9C317.1,335.9,317.1,334.4,317.2,333.5L317.2,333.5z M302.2,340.9c1.4,2.7,3.1,6.9,6.1,6.1
	C308.4,344.9,305.1,343.5,302.2,340.9L302.2,340.9z M306.7,341.8c5.9,2.4,10.9,1.8,11.5,5.5C312.8,347.9,310.8,345.7,306.7,341.8
	L306.7,341.8z M335.4,341.3c-1.5,2.6-3.2,6.5-6.2,5.8C329.2,345.1,332.5,343.7,335.4,341.3L335.4,341.3z M331.3,342
	c-5.9,2.3-11.1,1.7-11.7,5.2C325.2,347.8,327.2,345.7,331.3,342z"/>
<path class="st23" d="M348.9,283.7l12.8,0c0,4.8,2.9,10,6.8,13H344C347.8,293.2,348.9,289.1,348.9,283.7L348.9,283.7z"/>
<path class="st4" d="M348.9,283.7l12.8,0c0,4.8,2.9,10,6.8,13H344C347.8,293.2,348.9,289.1,348.9,283.7L348.9,283.7z"/>
<path class="st5" d="M257.8,361.6c-0.7,0.5-0.7,2.1,0.7,2.7c12.7,4.6,25,13,60.4,12.7c35.7-0.3,48.3-8.6,59.7-12.4
	c1.5-0.6,3-1.8,1-3.4c-6.4-5.3-13.4-9.5-18-16c-0.8-1.2-3-0.5-4.4,0c-13.6,4.8-26.2,8.1-39.3,8.1c-12.8,0-26.1-3.5-38.1-8.5
	c-1.1-0.5-3,0.1-3.9,0.9C270.4,351.4,264.3,356.8,257.8,361.6L257.8,361.6z"/>
<path d="M275,352.9c-1.5-1-2.2,0.3-1.1,1.6c1.4,1.5,3.7,2.5,6.1,3.1c1.4,0.4,4.2-0.1,5.7,0.1c1.1,0.1,1.8,2.4,3.8,2.4
	c2.1-0.1,3.4-5.6,3.5-8.4c0.1-1.8-2.5-0.7-2.2,0.1c0.7,1.8-0.6,5.9-1.9,5.9c-1-0.1-2-2-3.4-2.3c-1.1-0.2-2.8,0.1-4,0.1
	C278.1,355.5,276.6,353.9,275,352.9L275,352.9z"/>
<path d="M277.9,351.4c1.8,0.9,3.4-0.7,4.4,0.4c2.6,3,6-1.4,2.1-1.3c-1.6,0.1-1.9-1.2-4.6-0.9C278.2,349.8,277,350.9,277.9,351.4
	L277.9,351.4z M278.3,364.5c-1.4-0.6-1.9,0.7-1.1,1.6c1.2,1.1,6.1,1.5,7.3,0.6c2-1.5,0.5-5.4-0.4-6.6c-0.6-0.7-2.2-0.7-1.6,1.1
	c0.3,0.8,1.5,2.9,0.5,3.8C282.2,365.9,279.7,365.1,278.3,364.5L278.3,364.5z M289.3,365.7c0.3-0.8-0.5-2.2-2-0.6
	c-1.2,1.3-0.2,6.7,3.6,7.6c3.8,0.9,6.6-0.4,7.1-2.5c0.4-1.4-1.7-2.6-0.6-3.8c0.9-0.9,2.6,0,3.4-1.5c0.4-0.8,0.5-2.6-1.9-3.7
	c-1-0.5-2.7,0.6-2.7,1.5c0.1,1.2,1.9,0.4,1.2,1.4c-0.5,0.8-2.6,0.5-3.3,2.3c-0.4,1.2,2.4,3.3,0.9,3.9c-1.3,0.5-3.1,0.8-4.8-0.2
	C289.1,369.5,288.6,367.1,289.3,365.7L289.3,365.7z M275.7,358.3c-0.9,0.1-2.1,0.8-2.2,1.9c-0.1,0.9,0.7,2.3,1.9,1.4
	c1.2-1,0.3-1.4,0.6-1.1c0.6,0.6-0.3,0.7-1.4,2.2c-0.8,1.2-2.5,1-3.4,0.6c-1.5-0.8-0.9-1.3-2.6-2c-1.6-0.8-2.6,1.1-1.1,1.9
	c1.7,1,4.5,2.9,7.3,1.5c1.6-0.9,3.6-1.8,3.5-3.9C278.1,359.4,277.5,358,275.7,358.3L275.7,358.3z M364.3,357.6
	c-1.3-0.9-0.5-2.5,1.4-1.9c1.6,0.6,4.2,2.4,4.3,4.8c0.2,2.6-4.1,4.6-5.7,4.5c-2.8-0.2-2.3-2.4-0.2-2.3c1.6,0.1,3.6-0.5,3.7-2.1
	C367.9,359.1,365.2,358.3,364.3,357.6z M355.1,351.1c-1.6-1.6,1.8-3.4,2.8-1.4c1.3,2.5,2.9,5,4.1,7.8c0.9,2.3-0.3,2.6-1.1,1.4
	C359.6,356.7,357.6,353.7,355.1,351.1L355.1,351.1z M347.1,356c1.8-0.8,1.7,1.4,1.1,1.9C347.1,358.5,345.5,356.8,347.1,356
	L347.1,356z M352.4,354.1c1.8-0.8,1.7,1.4,1.1,1.9C352.3,356.6,350.7,354.9,352.4,354.1z"/>
<path d="M298,357.2c-2.6-1.7,0.5-4.2,2.4-2.3c2.6,2.7,5.1,8.5,7.1,10.7c1.9,2.2,0.4-5.9,0.9-8.3c0.4-1.3,1.4-1.1,1.4,0.1
	c0,3.3-0.5,10,0.4,10.5c1.6,0.9,1.3,2.4,2.6,2.1c1.4-0.3,1.2-0.7,2.5-0.8c1.3,0,1.3,1.3,2.8,1.1c0.9-0.1,1.2-1.2,2.4-1.2
	c1-0.1,0.6,2.2-0.1,2.6c-1.1,0.6-4.4-0.7-5.4-0.6c-1.2,0-3.3,1.1-4.6,0.6c-1.6-0.6-1.2-2.6-2.4-2.3c-1.2,0.3-1,2.6-4,3.3
	c-1.4,0.3-1.9-0.9-1.1-1.8c1.3-1.4,3.9-2.5,3.5-3.8C305,363.6,301.4,359.3,298,357.2L298,357.2z M320.8,357.6
	c1.3,4.2,1.2,9.7,1.9,13.5c0.4,1.5,1.8,0.2,1.6-1c-0.6-4.1-0.8-9-1.9-12.9C322.1,355.9,320.4,356.1,320.8,357.6L320.8,357.6z
	 M324.3,358.7c-0.3-1.7,1.3-1.9,1.6-0.9c0.9,3.3,0.7,11,2.4,11.3c2.9,0.3,7-0.3,10.6-1c1.8-0.4,2.1-1.6,2.1-2.1
	c-0.3-2.1,1.6-1.9,2.1,0.3c0.3,1.1-0.3,3.2-2.4,3.6c-4.2,0.8-10.1,2.1-13.4,1.4C324.3,370.7,325.2,363.1,324.3,358.7L324.3,358.7z"
	/>
<path d="M329.1,361.7c0.1-2.2,1.7-2.5,1.7-0.6c0,4.5,5.3,3.3,6.4,1.6c0.8-1.3,0.2-1.9-0.6-3.3c-1-1.9,1.1-2.4,2-0.8
	c0.7,1.2,1.1,5-0.1,5.9c-1.7,1.3-6.2,2-8.1,0.5C329.4,364.3,329,362.9,329.1,361.7z M326.8,355.9c0.2,1.4,4.1,0.9,3.9-0.1
	C330.6,354.8,326.6,355,326.8,355.9z M331.8,357c0.2,1.4,2.6,1,2.5-0.1C334.1,355.8,331.6,355.6,331.8,357z M339.2,355.3
	c-1.3-1.7,1.2-1.8,2-0.6c2.1,3.1,3.5,8.2,5.5,11.5c0.9,1.6,1.9,0.2,2.1-0.2c0.1-0.4-0.7-1-0.7-2.4c-0.1-1.1,2.1-2.4,3.7-1.4
	c1.5,1,0.3,1.9,1,2.4c0.7,0.5,2.5,0.2,2.7-0.1c0.8-1.2-0.3-0.5-1.4-1.2c-1.2-0.9-0.5-4.7,2.1-3.1c1.5,0.9,2,3.7,1.4,5.3
	c-0.5,1.5-3,1.9-4.4,1.6c-1.6-0.5-2.8-2.3-2.5-1.9c0.8,1.3-0.2,2.5-0.9,3c-1.8,1.1-3.1,1.7-4.4-0.1
	C343,364.5,341.7,358.6,339.2,355.3L339.2,355.3z"/>
<path class="st2" d="M272.8,113.7c-0.1-2.1,3.2-2.3,2.8,0.6c-0.5,3.6,6.8,12.7,7.4,18.4c0.4,3.8-2.2,7.1-4.8,9.1
	c-3.2,2.5-8.1,2.1-10.4,0.7c-1.4-1.1-2.7-4.9-1.6-6.5c0.4-0.5,2,5.6,5.7,5.6c5,0,9-3.8,9.2-7.1C281.3,128.8,272.9,119.6,272.8,113.7
	L272.8,113.7z M287.4,128c0.8-0.6,2.1,2,1.2,2.6C287.8,131.2,286.3,128.7,287.4,128L287.4,128z M289.6,122.8c-0.4,0.2-1.2-0.1-1-0.4
	c1.2-1.7,3.6-4.2,5.4-5c0.6-0.3,1.5,0.7,1.2,1.2C294.1,120.1,291.5,121.9,289.6,122.8L289.6,122.8z M308.8,107.6
	c0.5-1,3.2-2.1,3.9-2.7c0.7-0.7,1,0.6,0.7,1.1c-0.5,1-2.9,2.6-3.9,2.6C309,108.7,308.5,108.1,308.8,107.6L308.8,107.6z M315.4,107.9
	c0.6-1.7,2.5-4.3,3.9-5.1c0.7-0.4,1.9-0.1,1.7,0.6c-0.5,1.4-2.9,3.9-4.5,5.1C316,108.9,315.2,108.3,315.4,107.9L315.4,107.9z
	 M309.7,112.1c-0.4,0.2-0.2,1.1,0.2,1.2c0.8,0.3,2.3,0.3,3,0c1-0.6,0.5-4.3-0.8-2.3C311.3,112.1,310.6,111.7,309.7,112.1
	L309.7,112.1z M298.6,120.7c-2-1.6,0.5-3.8,2.6-2.2c4.1,3.1-6.1,14.9-11.7,20.5c-1,1.1-1.9-1.6-0.6-2.8c4-3.4,7.7-7.4,10.3-11.6
	C299.8,123.7,300.3,122,298.6,120.7L298.6,120.7z M321.9,110.5c0.3-1.5-2.4,0-2.5-2c0-1.1,2.9-1.8,4.2-0.6c2.1,2.1,0.5,5.7-2.9,5.9
	c-2.9,0.1-7.7,4.1-7,4.9c0.8,1,8.3,1.7,12.7,1c2.7-0.4,2.1,2-0.6,2.4c-2.7,0.3-4.8,0-7.3,0.8c-2.9,0.8-4.2,4.8-5.8,6.2
	c-0.4,0.3-1.3-1.3-1-1.9c1.2-1.8,3-4.7,5.1-5.5c1.3-0.5-3.6-0.7-5.1-1.1c-1.2-0.4-0.9-1.9-0.4-2.8c0.6-1.4,5.2-6,7.1-5.9
	C320,112.1,321.8,111.6,321.9,110.5L321.9,110.5z M329.7,110.9c0.9-0.8,1.3-2,2.2-2.8c0.5-0.5,1.3,0.1,1.2,1.3
	c-0.1,0.9-1.4,1.8-2.2,2.5C330.2,112.4,329.3,111.3,329.7,110.9L329.7,110.9z M339.6,107.4c1.3-0.1,1.6,2.3,0.2,2.7
	C338.9,110.4,338.2,107.5,339.6,107.4L339.6,107.4z M336.3,115.1c0,2.1,1,1.9,3.1,1.9c2-0.1,3.7,0,3.7-1.9c0-2-1.1-3.8-1.4-2.4
	c-0.3,1.3-0.5,3.4-1.3,2.5c-0.7-0.8-0.4-1-1.6,0.3c-0.7,0.7-0.7-0.3-1.2-1C337.3,114.1,336.3,114.8,336.3,115.1L336.3,115.1z
	 M322.2,126c-0.5,2.8,0,6.8,1.4,6.9c1.8,0.1,5.5-6.2,7.3-9.5c1.1-1.8,2.9-2.1,2.1-0.2c-1.1,2.9-1,9.2,0,11c0.5,1,4.5-0.9,5.2-2.3
	c1.2-2.6,0.2-7.3,0.6-10.2c0.2-1.9,1.9-2.3,1.8-0.5c-0.2,3.1-0.5,8.9-0.2,11.5c0.1,1.5,4.4,3.7,5.1-0.8c0.4-2.9,1.8-5.7-0.1-8.9
	c-1.2-2,1.7-1.7,3.3,1c1.1,1.8-0.9,4.9-0.9,7.2c0.2,3.6-2.6,5.7-4.7,5.7c-1.8,0-3-2.2-4.5-2.2c-1.7-0.1-3.4,2.6-4.7,2.5
	c-5.3-0.4-2.5-8.1-4.1-8.2c-1.8-0.1-3.9,7.6-6.2,7.3c-2.2-0.3-4.5-6.3-3.5-8.9C320.9,125.1,322.5,124.5,322.2,126L322.2,126z"/>
<path class="st2" d="M348,113.7c-2.6-1.6,0.2-5.7,1.4-4.3c2.5,2.9,4.9,9.9,6.7,10.5c1.1,0.4,1-5.2,1.8-7.7c0.5-1.9,2.7-1.2,2.3,1.1
	c-0.1,0.8-2.9,9.8-2.7,10.2c1.9,3.9,3.8,7.8,5,11.9c0.5,1.8-1.6,0.6-1.9,0.2c-1.4-2-3.8-9.9-3.8-9.5c-1.1,5.5-1.4,7.1-2.5,11.8
	c-0.4,1.5-2.6,1.2-2.1-1.4c0.5-2.2,3.6-12.8,3.5-13.1C353.3,119.1,351,115.6,348,113.7L348,113.7z"/>
<path class="st2" d="M352.7,139.1c-0.7-0.1-1.8,1.6,1.8,2.3c4.8,0.9,10.1-0.8,11.7-5.5c1.8-5.6,3.1-11,4-13c1.2-2.3,2.8-2.2,1.6-5.6
	c-0.8-2.5-2.3-1.7-2.6-0.4c-0.8,3.6-4,15.2-5,17.3C362.3,138.2,358.5,139.7,352.7,139.1L352.7,139.1z"/>
<path class="st2" d="M362.4,120.6c-0.5-1.1-1.7-0.2-1.5,1c0.1,1.1,1,1.7,1.9,1.7c1.1,0,3.3,0,3.3-1.7c0-1.2-1-2.3-1.7-0.9
	C363.7,121.8,362.8,121.7,362.4,120.6L362.4,120.6z M363.6,115.9c-0.4,0.3,0,1.6,0.4,1.6c1.6-0.1,3.8-0.6,5-1.4
	c0.3-0.2,0.2-1.1-0.3-1.1C367.2,115.2,364.7,115.1,363.6,115.9L363.6,115.9z M376.9,119.4c1.1-1.8,4.3-2,3.2,0.6
	c-0.8,1.8-8.6,16.9-9.7,18.8c-1.2,2.2-2.1,1.1-1.3-0.6C370.2,136,376.6,119.9,376.9,119.4L376.9,119.4z"/>
<path class="st2" d="M365.2,141.9c-0.3-1.2-2.2-3-2,0.2c0.4,5.8,8.4,4,10.8,1.9c2.2-2,0.3,6.6,3.2,7.5c1.6,0.5,4.7-1.7,6.2-3.6
	c4.1-5.4,6.8-13.1,10.8-18.4c1.5-2.1-0.8-3.6-1.8-1.9c-3.5,5.8-7.8,17.7-12.5,20.8c-3.8,2.5-2.7-3.2-2.8-4.8
	c-0.2-1.2-1.7-3.1-3.7-1.4c-1.4,1.1-3.6,2-5.6,1.8C366.7,143.9,365.7,144,365.2,141.9L365.2,141.9z"/>
<path class="st2" d="M379.5,131.1c0-0.3-1.7-0.5-1.6,1.2c0.1,1.3,1.6,1.6,1.8,1.4C382.1,132,379.2,132.8,379.5,131.1L379.5,131.1z
	 M376.1,137.9c-0.5,0.1-0.9,1.6,0.2,1.7c1,0.1,4.9-0.3,6-0.3c0.7,0,1-1.4-0.5-1.3C379.9,138.1,377.5,137.6,376.1,137.9L376.1,137.9z
	 M402,136.2c1.6-6,5.5,0.9,2.1,4.4c-5.3,5.2-6.9,15.1-15.3,16.5c-2.3,0.5-6.2-1-7.4-1.9c-0.5-0.3,0.3-2.5,1.7-1.4
	c2,1.6,6.3,2,8.5,0.1C396.3,149.2,400.2,143.1,402,136.2L402,136.2z M314.9,149.5c-0.4,0.4-1.5,0.4-1.6,1c-0.5,2.3,0,3.4-0.5,5.6
	c-0.5,2.1-1.9,2.2-1.8,0.5c0.1-2.2,1.9-5.3,0.7-5.5c-0.9-0.2-1.5-1.3-0.6-1.9c1.7-1.2,2.6-1,3.7-0.6
	C315.1,148.6,315.2,149.2,314.9,149.5L314.9,149.5z"/>
<path class="st2" d="M313.7,146.6c-2.2,1.9-4.3,2.7-6.3,5.2c-0.8,1-0.8,2.4-1.3,3.7c-0.5,1.4-2.1,1.6-2.6,1.3
	c-0.8-0.5-0.7-3.1-1.6-1.7c-0.8,1.2-1.3,3-2.5,2.9c-1,0-3-2.2-2-2.3c3.4-0.4,3.4-3.1,4.7-3.3c1.4-0.2,1.5,2.3,2.4,1.8
	c0.7-0.4,1-3.2,1.8-4c2.3-2.4,4.2-3.6,6.6-5.4C314.1,143.8,314.9,145.6,313.7,146.6L313.7,146.6z M321.8,154
	c-1.8,0.4-1.5,2.6-0.9,2.9c0.9,0.4,2.2,0.6,2.7-2c0.2-1.1,0.4,5.3,2.8,2.9c1.4-1.5,4.7,0.3,6.1-1.6c1-1.3,1.3-2.1,0.5-4
	c-0.2-0.6-1.6-0.3-1.5,1.1c0.1,1.2-0.8,2.6-2,2.3c-0.6-0.1,0.3-2.8-0.2-3.6c-0.3-0.4-0.8-0.4-1.1,0.1c-0.4,0.6,0.4,3.2-1,3.5
	c-1.8,0.4-0.9-1.7-1.6-2.1C323.1,152.2,322.9,153.8,321.8,154L321.8,154z M335.6,149.6c1.3-0.4,0.9-0.4,2.9-2c0.8-0.6,1,1.2,0.9,1.9
	c-0.1,1.2-1.6,0.3-2,1.4c-0.6,1.4-0.4,4.5-0.6,5.8c-0.1,0.7-1.2,0.6-1.3,0.1c-0.3-1.6,0.2-3.1,0.2-5.1
	C335.7,151,334.7,149.9,335.6,149.6L335.6,149.6z M329.5,142.6c-0.3,1.4-0.3,2.6-0.3,3.6c0.1,0.8,1.5,0.3,1.5,0.2
	c-0.1-1.2,0.2-3-0.2-3.4C330.4,142.6,329.6,142.3,329.5,142.6z"/>
<path class="st4" d="M272.8,113.7c-0.1-2.1,3.2-2.3,2.8,0.6c-0.5,3.6,6.8,12.7,7.4,18.4c0.4,3.8-2.2,7.1-4.8,9.1
	c-3.2,2.5-8.1,2.1-10.4,0.7c-1.4-1.1-2.7-4.9-1.6-6.5c0.4-0.5,2,5.6,5.7,5.6c5,0,9-3.8,9.2-7.1C281.3,128.8,272.9,119.6,272.8,113.7
	L272.8,113.7z"/>
<path class="st2" d="M281.5,112.5c0.6,0,2.3,2.2,2.2,2.9c-0.1,0.3-1.8,0-2.4-0.5C280.9,114.6,281.1,112.5,281.5,112.5L281.5,112.5z
	 M273.3,128.4c-1.6,0.8,0.2,2.5,1.4,1.8c4.4-2.8,10.9-5.8,12.3-11.4c0.4-1.9,2.2-4.8,3.9-5.5c1.6-0.6,4,2.9,5.5,0.1
	c0.9-1.6,4.1,1.1,4.8-0.7c0.9-2.1,0.5-3.2,0.5-5.2c-0.1-1.3-1.1-1.7-1.8,0.4c-0.4,1,0.1,1.9-0.2,2.4c-0.2,0.4-1,0.7-1.4,0.4
	c-0.4-0.3-0.1-1.1-1-1.5c-0.4-0.2-0.9-0.3-1.2,0.1c-1.1,2-1.7,3.8-3.2,1.7c-1.4-1.8-2.1-4.9-3.1-0.7c-0.4,1.5-2.6,3.7-4,3.7
	c-1.7,0-1.3-4.4-4.9-3.7c-1.9,0.4-1.8,4-1.5,5.4c0.5,1.9,6,0.5,5.7,1.7C284.1,121.9,278.2,125.9,273.3,128.4L273.3,128.4z"/>
<path class="st3" d="M238.6,148.6c-0.2,0.7,0.7,2.6,1.7,2.8c1,0.1,1.4-2.1,1.1-2.8C241.2,148.1,238.8,148.1,238.6,148.6L238.6,148.6
	z M243.7,156.1c-0.6-0.7-2.4,1.1-1,2.4c0.8,0.7,3.8,1.6,4.7,0.2c1.1-1.8-1.1-8.4-0.1-9.3c0.8-0.7,4.3,4.4,6.1,4.8
	c4.1,0.6,3.1-7.1,7.6-6.5c3,0.4,3.4-3.4,2.9-5.7c-0.3-2.3-4-5.5-5.7-7c-2.2-1.8-3.2,1.4-1.8,2.4c1.8,1.4,4.9,4.3,5.4,6.3
	c0.2,0.9-2.2,2.7-3.1,2.2c-2.1-1.1-4-6-5.8-7.1c-0.6-0.4-2.1,0.5-1.4,2c0.8,1.6,4.4,4.1,4.7,5.8c0.2,1.6-1.6,5-2.8,5
	c-1.3,0-4.6-4.1-5.7-6c-0.5-0.9-2.3-0.8-2.5,0.4c-0.3,1.9,0.3,6,0.7,8.5C246.3,156.8,244.6,156.9,243.7,156.1L243.7,156.1z
	 M237.4,143c-0.5,0.6,1.2,1.7,1.6,1.4c0.7-0.6,3.3-3.5,2.8-4.6c-0.4-0.9-4-2.9-4.6-1.9c-1.1,1.7,3.4,2.5,2.7,3
	C239.5,141.1,238.3,142,237.4,143L237.4,143z M243.8,130.1c0,0,1.1,3.8,2,2.2C246.6,131.2,243.8,130.1,243.8,130.1z M245.6,136.1
	c-0.4,0.2-1.6,1.1-0.8,1.6c1.2,0.7,4.4,1.3,3.7-1c-0.4-1.3,4.8,0,3.6-3.6c-0.3-1-1.9-2.5-2.7-2.7c-0.5-0.1-2.2,0.8-1.1,1.3
	c0.8,0.4,3.1,1.8,2.2,2.7c-1,0.9-1.7-0.4-2.9-0.2c-0.6,0.1-0.2,1.9-0.6,2.3C246.8,136.8,246,135.9,245.6,136.1L245.6,136.1z
	 M254,121.6c-0.7,0.3-1.9,2.1-1.9,3c0,0.4,0.5,1.1,0.8,0.9c0.7-0.3,1.8-2.1,1.8-2.8C254.8,122.1,254.4,121.4,254,121.6L254,121.6z
	 M258.3,121.2c-1.3-1.6,1.4-3.9,2.6-0.8c0.7,2,8.4,12.1,10,15.5c1.1,2.3,0,3.3-1.4,1.6C265.5,132.6,262.3,126.4,258.3,121.2
	L258.3,121.2z M266.2,121.4c1.4-1.5,4.2-4.5,3.4-6.2c-0.6-1.4-2.3-1.3-2.6-1c-1.7,2,1.2,1.5,0.8,2.2c-0.8,1.6-1.7,2.5-2.1,4
	C265.6,120.7,265.9,121.6,266.2,121.4L266.2,121.4z"/>
<path class="st4" d="M238.6,148.6c-0.2,0.7,0.7,2.6,1.7,2.8c1,0.1,1.4-2.1,1.1-2.8C241.2,148.1,238.8,148.1,238.6,148.6L238.6,148.6
	z M243.7,156.1c-0.6-0.7-2.4,1.1-1,2.4c0.8,0.7,3.8,1.6,4.7,0.2c1.1-1.8-1.1-8.4-0.1-9.3c0.8-0.7,4.3,4.4,6.1,4.8
	c4.1,0.6,3.1-7.1,7.6-6.5c3,0.4,3.4-3.4,2.9-5.7c-0.3-2.3-4-5.5-5.7-7c-2.2-1.8-3.2,1.4-1.8,2.4c1.8,1.4,4.9,4.3,5.4,6.3
	c0.2,0.9-2.2,2.7-3.1,2.2c-2.1-1.1-4-6-5.8-7.1c-0.6-0.4-2.1,0.5-1.4,2c0.8,1.6,4.4,4.1,4.7,5.8c0.2,1.6-1.6,5-2.8,5
	c-1.3,0-4.6-4.1-5.7-6c-0.5-0.9-2.3-0.8-2.5,0.4c-0.3,1.9,0.3,6,0.7,8.5C246.3,156.8,244.6,156.9,243.7,156.1L243.7,156.1z
	 M237.4,143c-0.5,0.6,1.2,1.7,1.6,1.4c0.7-0.6,3.3-3.5,2.8-4.6c-0.4-0.9-4-2.9-4.6-1.9c-1.1,1.7,3.4,2.5,2.7,3
	C239.5,141.1,238.3,142,237.4,143L237.4,143z M243.8,130.1c0,0,1.1,3.8,2,2.2C246.6,131.2,243.8,130.1,243.8,130.1z M245.6,136.1
	c-0.4,0.2-1.6,1.1-0.8,1.6c1.2,0.7,4.4,1.3,3.7-1c-0.4-1.3,4.8,0,3.6-3.6c-0.3-1-1.9-2.5-2.7-2.7c-0.5-0.1-2.2,0.8-1.1,1.3
	c0.8,0.4,3.1,1.8,2.2,2.7c-1,0.9-1.7-0.4-2.9-0.2c-0.6,0.1-0.2,1.9-0.6,2.3C246.8,136.8,246,135.9,245.6,136.1L245.6,136.1z
	 M254,121.6c-0.7,0.3-1.9,2.1-1.9,3c0,0.4,0.5,1.1,0.8,0.9c0.7-0.3,1.8-2.1,1.8-2.8C254.8,122.1,254.4,121.4,254,121.6L254,121.6z
	 M258.3,121.2c-1.3-1.6,1.4-3.9,2.6-0.8c0.7,2,8.4,12.1,10,15.5c1.1,2.3,0,3.3-1.4,1.6C265.5,132.6,262.3,126.4,258.3,121.2
	L258.3,121.2z M266.2,121.4c1.4-1.5,4.2-4.5,3.4-6.2c-0.6-1.4-2.3-1.3-2.6-1c-1.7,2,1.2,1.5,0.8,2.2c-0.8,1.6-1.7,2.5-2.1,4
	C265.6,120.7,265.9,121.6,266.2,121.4L266.2,121.4z M365.2,141.9c-0.3-1.2-2.2-3-2,0.2c0.4,5.8,8.4,4,10.8,1.9
	c2.2-2,0.3,6.6,3.2,7.5c1.6,0.5,4.7-1.7,6.2-3.6c4.1-5.4,6.8-13.1,10.8-18.4c1.5-2.1-0.8-3.6-1.8-1.9c-3.5,5.8-7.8,17.7-12.5,20.8
	c-3.8,2.5-2.7-3.2-2.8-4.8c-0.2-1.2-1.7-3.1-3.7-1.4c-1.4,1.1-3.6,2-5.6,1.8C366.7,143.9,365.7,144,365.2,141.9L365.2,141.9z
	 M287.4,128c0.8-0.6,2.1,2,1.2,2.6C287.8,131.2,286.3,128.7,287.4,128L287.4,128z"/>
<path class="st2" d="M385,126.3c-1-0.8,1-4.6,2.3-3.1c3.6,4.2,5.3,17.8,6.3,27.9c0,0-1.6,1.4-1.6,1.1
	C392,146.9,389.8,130.3,385,126.3L385,126.3z"/>
<path class="st4" d="M289.6,122.8c-0.4,0.2-1.2-0.1-1-0.4c1.2-1.7,3.6-4.2,5.4-5c0.6-0.3,1.5,0.7,1.2,1.2
	C294.1,120.1,291.5,121.9,289.6,122.8L289.6,122.8z M385,126.3c-1-0.8,1-4.6,2.3-3.1c3.6,4.2,5.3,17.8,6.3,27.9c0,0-1.6,1.4-1.6,1.1
	C392,146.9,389.8,130.3,385,126.3L385,126.3z"/>
<path class="st2" d="M387.2,150.1c0.7-1.8,9.3-16.4,10.5-19.6c0.6-1.5,3.1,2.7,0.6,4.9c-2.1,1.9-8.4,12.3-9.6,15.9
	C388.2,152.9,386.5,152.1,387.2,150.1L387.2,150.1z"/>
<path class="st4" d="M321.9,110.5c0.3-1.5-2.4,0-2.5-2c0-1.1,2.9-1.8,4.2-0.6c2.1,2.1,0.5,5.7-2.9,5.9c-2.9,0.1-7.7,4.1-7,4.9
	c0.8,1,8.3,1.7,12.7,1c2.7-0.4,2.1,2-0.6,2.4c-2.7,0.3-4.8,0-7.3,0.8c-2.9,0.8-4.2,4.8-5.8,6.2c-0.4,0.3-1.3-1.3-1-1.9
	c1.2-1.8,3-4.7,5.1-5.5c1.3-0.5-3.6-0.7-5.1-1.1c-1.2-0.4-0.9-1.9-0.4-2.8c0.6-1.4,5.2-6,7.1-5.9C320,112.1,321.8,111.6,321.9,110.5
	L321.9,110.5z M298.6,120.7c-2-1.6,0.5-3.8,2.6-2.2c4.1,3.1-6.1,14.9-11.7,20.5c-1,1.1-1.9-1.6-0.6-2.8c4-3.4,7.7-7.4,10.3-11.6
	C299.8,123.7,300.3,122,298.6,120.7L298.6,120.7z"/>
<path class="st2" d="M303.9,113.1c-1.2-2.7,1.8-3.7,2.2-1.8c2,8.8,6.9,15.5,10.6,21.5c1.1,1.9,0.2,3-2.5,1.3c-1.9-1.3-3.8-6-4.7-6.2
	c-1.7-0.3-5.7,7.6-13.9,5.4c-2.1-0.6-2-6.9-2-9.7c-0.1-1.3,1.4-1.7,1.4,0.1c0.1,2.6,0,7.9,3.3,8.1c2.7,0.1,8.6-3.6,9.8-6.6
	C309.3,122.2,305.2,116.2,303.9,113.1L303.9,113.1z"/>
<path class="st4" d="M281.5,112.5c0.6,0,2.3,2.2,2.2,2.9c-0.1,0.3-1.8,0-2.4-0.5C280.9,114.6,281.1,112.5,281.5,112.5L281.5,112.5z
	 M273.3,128.4c-1.6,0.8,0.2,2.5,1.4,1.8c4.4-2.8,10.9-5.8,12.3-11.4c0.4-1.9,2.2-4.8,3.9-5.5c1.6-0.6,4,2.9,5.5,0.1
	c0.9-1.6,4.1,1.1,4.8-0.7c0.9-2.1,0.5-3.2,0.5-5.2c-0.1-1.3-1.1-1.7-1.8,0.4c-0.4,1,0.1,1.9-0.2,2.4c-0.2,0.4-1,0.7-1.4,0.4
	c-0.4-0.3-0.1-1.1-1-1.5c-0.4-0.2-0.9-0.3-1.2,0.1c-1.1,2-1.7,3.8-3.2,1.7c-1.4-1.8-2.1-4.9-3.1-0.7c-0.4,1.5-2.6,3.7-4,3.7
	c-1.7,0-1.3-4.4-4.9-3.7c-1.9,0.4-1.8,4-1.5,5.4c0.5,1.9,6,0.5,5.7,1.7C284.1,121.9,278.2,125.9,273.3,128.4L273.3,128.4z
	 M303.9,113.1c-1.2-2.7,1.8-3.7,2.2-1.8c2,8.8,6.9,15.5,10.6,21.5c1.1,1.9,0.2,3-2.5,1.3c-1.9-1.3-3.8-6-4.7-6.2
	c-1.7-0.3-5.7,7.6-13.9,5.4c-2.1-0.6-2-6.9-2-9.7c-0.1-1.3,1.4-1.7,1.4,0.1c0.1,2.6,0,7.9,3.3,8.1c2.7,0.1,8.6-3.6,9.8-6.6
	C309.3,122.2,305.2,116.2,303.9,113.1L303.9,113.1z M308.8,107.6c0.5-1,3.2-2.1,3.9-2.7c0.7-0.7,1,0.6,0.7,1.1
	c-0.5,1-2.9,2.6-3.9,2.6C309,108.7,308.5,108.1,308.8,107.6L308.8,107.6z M315.4,107.9c0.6-1.7,2.5-4.3,3.9-5.1
	c0.7-0.4,1.9-0.1,1.7,0.6c-0.5,1.4-2.9,3.9-4.5,5.1C316,108.9,315.2,108.3,315.4,107.9z M309.7,112.1c-0.4,0.2-0.2,1.1,0.2,1.2
	c0.8,0.3,2.3,0.3,3,0c1-0.6,0.5-4.3-0.8-2.3C311.3,112.1,310.6,111.7,309.7,112.1L309.7,112.1z M329.7,110.9c0.9-0.8,1.3-2,2.2-2.8
	c0.5-0.5,1.3,0.1,1.2,1.3c-0.1,0.9-1.4,1.8-2.2,2.5C330.2,112.4,329.3,111.3,329.7,110.9L329.7,110.9z M339.6,107.4
	c1.3-0.1,1.6,2.3,0.2,2.7C338.9,110.4,338.2,107.5,339.6,107.4L339.6,107.4z M336.3,115.1c0,2.1,1,1.9,3.1,1.9c2-0.1,3.7,0,3.7-1.9
	c0-2-1.1-3.8-1.4-2.4c-0.3,1.3-0.5,3.4-1.3,2.5c-0.7-0.8-0.4-1-1.6,0.3c-0.7,0.7-0.7-0.3-1.2-1C337.3,114.1,336.3,114.8,336.3,115.1
	L336.3,115.1z M322.2,126c-0.5,2.8,0,6.8,1.4,6.9c1.8,0.1,5.5-6.2,7.3-9.5c1.1-1.8,2.9-2.1,2.1-0.2c-1.1,2.9-1,9.2,0,11
	c0.5,1,4.5-0.9,5.2-2.3c1.2-2.6,0.2-7.3,0.6-10.2c0.2-1.9,1.9-2.3,1.8-0.5c-0.2,3.1-0.5,8.9-0.2,11.5c0.1,1.5,4.4,3.7,5.1-0.8
	c0.4-2.9,1.8-5.7-0.1-8.9c-1.2-2,1.7-1.7,3.3,1c1.1,1.8-0.9,4.9-0.9,7.2c0.2,3.6-2.6,5.7-4.7,5.7c-1.8,0-3-2.2-4.5-2.2
	c-1.7-0.1-3.4,2.6-4.7,2.5c-5.3-0.4-2.5-8.1-4.1-8.2c-1.8-0.1-3.9,7.6-6.2,7.3c-2.2-0.3-4.5-6.3-3.5-8.9
	C320.9,125.1,322.5,124.5,322.2,126L322.2,126z"/>
<path class="st4" d="M348,113.7c-2.6-1.6,0.2-5.7,1.4-4.3c2.5,2.9,4.9,9.9,6.7,10.5c1.1,0.4,1-5.2,1.8-7.7c0.5-1.9,2.7-1.2,2.3,1.1
	c-0.1,0.8-2.9,9.8-2.7,10.2c1.9,3.9,3.8,7.8,5,11.9c0.5,1.8-1.6,0.6-1.9,0.2c-1.4-2-3.8-9.9-3.8-9.5c-1.1,5.5-1.4,7.1-2.5,11.8
	c-0.4,1.5-2.6,1.2-2.1-1.4c0.5-2.2,3.6-12.8,3.5-13.1C353.3,119.1,351,115.6,348,113.7L348,113.7z"/>
<path class="st4" d="M352.7,139.1c-0.7-0.1-1.8,1.6,1.8,2.3c4.8,0.9,10.1-0.8,11.7-5.5c1.8-5.6,3.1-11,4-13c1.2-2.3,2.8-2.2,1.6-5.6
	c-0.8-2.5-2.3-1.7-2.6-0.4c-0.8,3.6-4,15.2-5,17.3C362.3,138.2,358.5,139.7,352.7,139.1L352.7,139.1z"/>
<path class="st4" d="M362.4,120.6c-0.5-1.1-1.7-0.2-1.5,1c0.1,1.1,1,1.7,1.9,1.7c1.1,0,3.3,0,3.3-1.7c0-1.2-1-2.3-1.7-0.9
	C363.7,121.8,362.8,121.7,362.4,120.6L362.4,120.6z M363.6,115.9c-0.4,0.3,0,1.6,0.4,1.6c1.6-0.1,3.8-0.6,5-1.4
	c0.3-0.2,0.2-1.1-0.3-1.1C367.2,115.2,364.7,115.1,363.6,115.9L363.6,115.9z M376.9,119.4c1.1-1.8,4.3-2,3.2,0.6
	c-0.8,1.8-8.6,16.9-9.7,18.8c-1.2,2.2-2.1,1.1-1.3-0.6C370.2,136,376.6,119.9,376.9,119.4L376.9,119.4z M379.5,131.1
	c0-0.3-1.7-0.5-1.6,1.2c0.1,1.3,1.6,1.6,1.8,1.4C382.1,132,379.2,132.8,379.5,131.1L379.5,131.1z"/>
<path class="st2" d="M387.2,150.1c0.7-1.8,9.3-16.4,10.5-19.6c0.6-1.5,3.1,2.7,0.6,4.9c-2.1,1.9-8.4,12.3-9.6,15.9
	C388.2,152.9,386.5,152.1,387.2,150.1L387.2,150.1z"/>
<path class="st4" d="M376.1,137.9c-0.5,0.1-0.9,1.6,0.2,1.7c1,0.1,4.9-0.3,6-0.3c0.7,0,1-1.4-0.5-1.3
	C379.9,138.1,377.5,137.6,376.1,137.9L376.1,137.9z M387.2,150.1c0.7-1.8,9.3-16.4,10.5-19.6c0.6-1.5,3.1,2.7,0.6,4.9
	c-2.1,1.9-8.4,12.3-9.6,15.9C388.2,152.9,386.5,152.1,387.2,150.1L387.2,150.1z"/>
<path class="st2" d="M402,136.2c1.6-6,5.5,0.9,2.1,4.4c-5.3,5.2-6.9,15.1-15.3,16.5c-2.3,0.5-6.2-1-7.4-1.9
	c-0.5-0.3,0.3-2.5,1.7-1.4c2,1.6,6.3,2,8.5,0.1C396.3,149.2,400.2,143.1,402,136.2L402,136.2z"/>
<path class="st4" d="M402,136.2c1.6-6,5.5,0.9,2.1,4.4c-5.3,5.2-6.9,15.1-15.3,16.5c-2.3,0.5-6.2-1-7.4-1.9
	c-0.5-0.3,0.3-2.5,1.7-1.4c2,1.6,6.3,2,8.5,0.1C396.3,149.2,400.2,143.1,402,136.2L402,136.2z M321.8,154c-1.8,0.4-1.5,2.6-0.9,2.9
	c0.9,0.4,2.2,0.6,2.7-2c0.2-1.1,0.4,5.3,2.8,2.9c1.4-1.5,4.7,0.3,6.1-1.6c1-1.3,1.3-2.1,0.5-4c-0.2-0.6-1.6-0.3-1.5,1.1
	c0.1,1.2-0.8,2.6-2,2.3c-0.6-0.1,0.3-2.8-0.2-3.6c-0.3-0.4-0.8-0.4-1.1,0.1c-0.4,0.6,0.4,3.2-1,3.5c-1.8,0.4-0.9-1.7-1.6-2.1
	C323.1,152.2,322.9,153.8,321.8,154L321.8,154z M335.6,149.6c1.3-0.4,0.9-0.4,2.9-2c0.8-0.6,1,1.2,0.9,1.9c-0.1,1.2-1.6,0.3-2,1.4
	c-0.6,1.4-0.4,4.5-0.6,5.8c-0.1,0.7-1.2,0.6-1.3,0.1c-0.3-1.6,0.2-3.1,0.2-5.1C335.7,151,334.7,149.9,335.6,149.6L335.6,149.6z
	 M329.5,142.6c-0.3,1.4-0.3,2.6-0.3,3.6c0.1,0.8,1.5,0.3,1.5,0.2c-0.1-1.2,0.2-3-0.2-3.4C330.4,142.6,329.6,142.3,329.5,142.6z
	 M313.7,146.6c-2.2,1.9-4.3,2.7-6.3,5.2c-0.8,1-0.8,2.4-1.3,3.7c-0.5,1.4-2.1,1.6-2.6,1.3c-0.8-0.5-0.7-3.1-1.6-1.7
	c-0.8,1.2-1.3,3-2.5,2.9c-1,0-3-2.2-2-2.3c3.4-0.4,3.4-3.1,4.7-3.3c1.4-0.2,1.5,2.3,2.4,1.8c0.7-0.4,1-3.2,1.8-4
	c2.3-2.4,4.2-3.6,6.6-5.4C314.1,143.8,314.9,145.6,313.7,146.6L313.7,146.6z"/>
<path class="st4" d="M314.9,149.5c-0.4,0.4-1.5,0.4-1.6,1c-0.5,2.3,0,3.4-0.5,5.6c-0.5,2.1-1.9,2.2-1.8,0.5c0.1-2.2,1.9-5.3,0.7-5.5
	c-0.9-0.2-1.5-1.3-0.6-1.9c1.7-1.2,2.6-1,3.7-0.6C315.1,148.6,315.2,149.2,314.9,149.5L314.9,149.5z"/>
<path class="st2" d="M303.2,325.7c0.8,1.7,1.9,1.6,1.7,0c-0.3-2.1-1-5-1.3-7.5c-0.2-2.1-2.4-1.7-1.8,0.5
	C302.6,321.2,302.4,323.8,303.2,325.7L303.2,325.7z M309.8,325.8c0,0.9,1.3,0.8,1.3,0.1c-0.1-2.2-0.3-5.1,0.3-6.1
	c0.5-0.8,2.4-0.2,4.1-0.4c0.7-0.1,0.6-2-0.9-1.9c-1.7,0.2-6.3-0.4-6.6,1.2C307.7,321.6,309.9,318.5,309.8,325.8L309.8,325.8z
	 M323,317.5c1.1,0.8,1,1.8-0.4,1.5c-1.6-0.4-2.7-0.3-2.7,0.6c0,0.9,0.7,1,1.7,2c0.9,1-0.6,0.8-1.8,2.9c-1,1.7,1,1.9,3.4,1.3
	c0.6-0.2,1.4,0.9-0.1,1.7c-1.1,0.6-4,1.3-4.8-0.9c-1.4-3.7,2.4-4.3,0.8-5.3c-0.9-0.5-1.2-1.3-1-2.4
	C318.5,316.6,322.1,316.9,323,317.5L323,317.5z M328,325.7c1.5-2.6,2.5-4.6,2.9-6.9c0.4-2,1.8-2.2,2.1-0.5c0.4,2.3,1.7,4.5,3.3,6.6
	c0.9,1.3-0.9,2.4-1.7,1.4c-1.3-1.7-1.4-4.1-2.2-4.1c-0.9,0-2,2.7-2.9,4.6C329.1,327.5,327.4,326.9,328,325.7L328,325.7z"/>
<path class="st4" d="M303.2,325.7c0.8,1.7,1.9,1.6,1.7,0c-0.3-2.1-1-5-1.3-7.5c-0.2-2.1-2.4-1.7-1.8,0.5
	C302.6,321.2,302.4,323.8,303.2,325.7L303.2,325.7z M309.8,325.8c0,0.9,1.3,0.8,1.3,0.1c-0.1-2.2-0.3-5.1,0.3-6.1
	c0.5-0.8,2.4-0.2,4.1-0.4c0.7-0.1,0.6-2-0.9-1.9c-1.7,0.2-6.3-0.4-6.6,1.2C307.7,321.6,309.9,318.5,309.8,325.8L309.8,325.8z
	 M323,317.5c1.1,0.8,1,1.8-0.4,1.5c-1.6-0.4-2.7-0.3-2.7,0.6c0,0.9,0.7,1,1.7,2c0.9,1-0.6,0.8-1.8,2.9c-1,1.7,1,1.9,3.4,1.3
	c0.6-0.2,1.4,0.9-0.1,1.7c-1.1,0.6-4,1.3-4.8-0.9c-1.4-3.7,2.4-4.3,0.8-5.3c-0.9-0.5-1.2-1.3-1-2.4
	C318.5,316.6,322.1,316.9,323,317.5L323,317.5z M328,325.7c1.5-2.6,2.5-4.6,2.9-6.9c0.4-2,1.8-2.2,2.1-0.5c0.4,2.3,1.7,4.5,3.3,6.6
	c0.9,1.3-0.9,2.4-1.7,1.4c-1.3-1.7-1.4-4.1-2.2-4.1c-0.9,0-2,2.7-2.9,4.6C329.1,327.5,327.4,326.9,328,325.7L328,325.7z
	 M453.5,248.6c-0.1,0.5,1.4,1.3,1.7,0.9c1.6-1.9,3.6-5.6,4.1-7.8c0.1-0.7-2-1.4-2.4-0.9C455.3,242.6,453.9,246.3,453.5,248.6
	L453.5,248.6z"/>
</svg>
