<svg xmlns="http://www.w3.org/2000/svg" id="flag-icon-css-ag" width="640" height="480">
  <defs>
    <clipPath id="a">
      <path fill-opacity=".67" d="M-79.7 0h682.67v512H-79.7z"/>
    </clipPath>
  </defs>
  <g fill-rule="evenodd" clip-path="url(#a)" transform="translate(74.72) scale(.9375)">
    <path fill="#fff" d="M-120 0h763.27v511.49H-120z"/>
    <path d="M-118.31.62h760.88V216.7h-760.88z"/>
    <path fill="#0061ff" d="M21.3 203.23h505.01v113.82H21.3z"/>
    <path fill="#e20000" d="M642.75 1.75V512H262.03L642.75 1.75z"/>
    <path fill="#e20000" d="M-118.69 1.75V512h380.72L-118.69 1.75z"/>
    <path fill="#ffd600" d="M440.37 203.34l-76.31-19.36L428.98 135l-79.73 11.39 41-69.47-70.6 41 12.52-80.87-47.84 63.78-19.36-74.03-21.64 76.31-47.84-64.92 13.67 83.14-70.61-43.28 41 69.48L102.1 135l63.78 47.84-79.73 20.5h354.22z"/>
  </g>
</svg>
