<svg xmlns="http://www.w3.org/2000/svg" id="flag-icon-css-ai" width="640" height="480">
  <defs>
    <clipPath id="a">
      <path fill-opacity=".67" d="M0 0h640v480H0z"/>
    </clipPath>
  </defs>
  <g clip-path="url(#a)">
    <path fill="#fff" fill-rule="evenodd" d="M.43.42H403.1v240.07H.43z"/>
    <path fill="#c00" d="M.43.42L.4 18.44l96.1 59.27 36.15 1.26L.42.42z"/>
    <path fill="#006" d="M41.57.42l116.5 73.05V.42H41.57z"/>
    <path fill="#c00" d="M173.6.42v93.25H.43v53.29h173.19v93.25h53.28v-93.25h173.19V93.67H226.89V.42h-53.28z"/>
    <path fill="#006" d="M242.44.42v68.83L356.4.95 242.43.42z"/>
    <path fill="#c00" d="M246.03 76.75l32.06-.3L402.6.94l-33.03.65-123.54 75.16z"/>
    <path fill="#006" d="M401.34 21.09l-95.12 56.62 93.85.42v84.37h-79.93l79.2 51.51 1.16 26.2-42.3-.6-115.76-68.23v68.83h-84.37v-68.83l-108.6 68.65-49.04.18v239.8h799.3V.43L402.18 0M.43 27.06l-.42 49.8 84.15 1.27L.43 27.06zm0 135.44v51.06l79.93-50.53-79.93-.53z"/>
    <path fill="#c00" d="M308.22 164.6l-33.33-.3 125.6 75.06-.82-17.17-91.46-57.59zM31.64 240.64l117.76-74.22-30.93.24L.42 240.52"/>
    <path fill="#49497d" d="M525.38 247.8l2.03 2.03-2.03-2.03z"/>
    <path fill="#0e0e6e" d="M527.4 247.8l2.04 2.03-2.03-2.03z"/>
    <path fill="#262678" d="M521.32 249.83l2.03 2.03-2.03-2.03z"/>
    <path fill="#808067" d="M523.35 249.83l2.03 2.03-2.03-2.03z"/>
    <path fill="#58587b" d="M529.44 249.83l2.03 2.03-2.03-2.03z"/>
    <path fill="#0e0e6e" d="M454.32 251.86l2.03 2.03-2.03-2.03z"/>
    <path fill="#1b1b74" d="M517.25 251.86l2.03 2.03-2.03-2.03z"/>
    <path fill="#6e6c70" d="M519.28 251.86l2.03 2.03-2.03-2.03z"/>
    <path fill="#cc3" d="M457.9 255.54c0 52.45-6.05 111.57 33.04 152.65 8.05 8.45 23.35 27.72 36.47 26.98 13.73-.77 31.39-21.1 39.24-31.04 34.04-44.77 28.63-98.17 29.78-150.14-15.37 6.9-23.02 9.18-36.46 9.14-9.95 1.02-25.31-5.67-34.5-10.05-6 4.01-14.7 8.79-30.34 9.33-18.07.8-23.8-2.27-37.24-6.87z"/>
    <path fill="#99994e" d="M531.47 251.86l2.03 2.03-2.03-2.03z"/>
    <path fill="#49497d" d="M533.5 251.86l2.03 2.03-2.03-2.03z"/>
    <path fill="#0e0e6e" d="M596.43 251.86l2.03 2.03-2.03-2.03z"/>
    <path fill="#a4a43d" d="M456.35 253.9l2.03 2.02-2.03-2.03z"/>
    <path fill="#6e6c70" d="M458.38 253.9l2.03 2.02-2.03-2.03z"/>
    <path fill="#3a3a7c" d="M460.41 253.9l2.03 2.02-2.03-2.03z"/>
    <path fill="#1b1b74" d="M513.2 253.9l2.03 2.02-2.03-2.03z"/>
    <path fill="#6e6c70" d="M515.23 253.9l2.03 2.02-2.03-2.03z"/>
    <path fill="#a4a43d" d="M517.25 253.9l2.03 2.02-2.03-2.03z"/>
    <path fill="#d0d045" d="M525.38 253.9l2.03 2.02-2.03-2.03z"/>
    <path fill="#a4a43d" d="M533.5 253.9l2.03 2.02-2.03-2.03z"/>
    <path fill="#8d8d5b" d="M535.53 253.9l2.03 2.02-2.03-2.03z"/>
    <path fill="#3a3a7c" d="M537.56 253.9l2.03 2.02-2.03-2.03z"/>
    <path fill="#262678" d="M590.34 253.9l2.03 2.02-2.03-2.03z"/>
    <path fill="#53527c" d="M592.37 253.9l2.03 2.02-2.03-2.03z"/>
    <path fill="#8d8d5b" d="M594.4 253.9l2.03 2.02-2.03-2.03z"/>
    <path fill="#737370" d="M464.47 255.92l2.03 2.03-2.03-2.03z"/>
    <path fill="#53527c" d="M466.5 255.92l2.03 2.03-2.03-2.03z"/>
    <path fill="#1b1b74" d="M468.53 255.92l2.03 2.03-2.03-2.03z"/>
    <path fill="#262678" d="M509.13 255.92l2.03 2.03-2.03-2.03z"/>
    <path fill="#6e6c70" d="M511.16 255.92l2.03 2.03-2.03-2.03z"/>
    <path fill="#a4a43d" d="M513.2 255.92l2.03 2.03-2.03-2.03z"/>
    <path fill="#e5e59d" d="M523.35 255.92l2.03 2.03-2.03-2.03z"/>
    <path fill="#fff" d="M462.05 261.24c-1.09 27.56-.25 58.59 4.06 88.07 4.76 15.4 4.12 23.87 11.2 33.1l99.07-.77c5.97-9.72 10.4-24.44 10.97-30.3 5.53-29.77 5.66-62.63 5.8-92.03-9.97 5.3-23.01 9.05-35.68 7.4a69.08 69.08 0 0 1-30.45-9.26c-9.47 5.68-12.78 8.27-28.42 8.93-12.18.6-22.05 1.59-36.55-5.14z"/>
    <path fill="#f2f1d7" d="M527.4 255.92l2.04 2.03-2.03-2.03z"/>
    <path fill="#d9d868" d="M529.44 255.92l2.03 2.03-2.03-2.03z"/>
    <path fill="#a4a43d" d="M537.56 255.92l2.03 2.03-2.03-2.03z"/>
    <path fill="#99994e" d="M539.59 255.92l2.03 2.03-2.03-2.03z"/>
    <path fill="#49497d" d="M541.62 255.92l2.03 2.03-2.03-2.03z"/>
    <path fill="#0e0e6e" d="M543.65 255.92l2.03 2.03-2.03-2.03z"/>
    <path fill="#3a3a7c" d="M584.25 255.92l2.03 2.03-2.03-2.03z"/>
    <path fill="#667" d="M586.28 255.92l2.03 2.03-2.03-2.03z"/>
    <path fill="#99994e" d="M588.31 255.92l2.03 2.03-2.03-2.03z"/>
    <path fill="#a4a43d" d="M590.34 255.92l2.03 2.03-2.03-2.03m-121.81 2.03l2.03 2.03-2.03-2.03z"/>
    <path fill="#99994e" d="M470.56 257.95l2.03 2.03-2.03-2.03z"/>
    <path fill="#6e6c70" d="M472.59 257.95l2.03 2.03-2.03-2.03z"/>
    <path fill="#49497d" d="M474.62 257.95l2.03 2.03-2.03-2.03z"/>
    <path fill="#1b1b74" d="M476.65 257.95l2.03 2.03-2.03-2.03m26.4 0l2.02 2.03-2.03-2.03z"/>
    <path fill="#53527c" d="M505.07 257.95l2.03 2.03-2.03-2.03z"/>
    <path fill="#8d8d5b" d="M507.1 257.95l2.03 2.03-2.03-2.03z"/>
    <path fill="#a4a43d" d="M509.13 257.95l2.03 2.03-2.03-2.03z"/>
    <path fill="#e5e59d" d="M519.28 257.95l2.03 2.03-2.03-2.03z"/>
    <path fill="#fbfaf2" d="M521.32 257.95l2.03 2.03-2.03-2.03z"/>
    <path fill="#f2f1d2" d="M531.47 257.95l2.03 2.03-2.03-2.03z"/>
    <path fill="#d9d868" d="M533.5 257.95l2.03 2.03-2.03-2.03z"/>
    <path fill="#a4a43d" d="M543.65 257.95l2.03 2.03-2.03-2.03z"/>
    <path fill="#6e6c70" d="M545.68 257.95l2.03 2.03-2.03-2.03z"/>
    <path fill="#3a3a7c" d="M547.7 257.95l2.04 2.03-2.03-2.03z"/>
    <path fill="#0e0e6e" d="M574.1 257.95l2.03 2.03-2.03-2.03z"/>
    <path fill="#32327b" d="M576.13 257.95l2.03 2.03-2.03-2.03z"/>
    <path fill="#58587b" d="M578.16 257.95l2.03 2.03-2.03-2.03z"/>
    <path fill="#808067" d="M580.19 257.95l2.03 2.03-2.03-2.03z"/>
    <path fill="#a4a43d" d="M583.58 258.62l1.35.68-1.35-.68z"/>
    <path fill="#dddc7a" d="M460.41 259.98l2.03 2.03-2.03-2.03z"/>
    <path fill="#d0d045" d="M462.44 259.98l2.03 2.03-2.03-2.03z"/>
    <path fill="#a4a43d" d="M478.01 260.65l1.35.68-1.35-.68z"/>
    <path fill="#808067" d="M480.71 259.98l2.03 2.03-2.03-2.03z"/>
    <path fill="#667" d="M482.74 259.98l2.03 2.03-2.03-2.03z"/>
    <path fill="#58587b" d="M484.77 259.98l2.03 2.03-2.03-2.03z"/>
    <path fill="#49497d" d="M486.8 259.98l2.03 2.03-2.03-2.03z"/>
    <path fill="#737370" d="M498.98 259.98l2.03 2.03-2.03-2.03z"/>
    <path fill="#99994e" d="M501.01 259.98l2.03 2.03-2.03-2.03z"/>
    <path fill="#a4a43d" d="M503.04 259.98l2.03 2.03-2.03-2.03z"/>
    <path fill="#e5e59d" d="M515.23 259.98l2.03 2.03-2.03-2.03z"/>
    <path fill="#fbfaf2" d="M517.25 259.98l2.03 2.03-2.03-2.03z"/>
    <path fill="#f2f1d2" d="M535.53 259.98l2.03 2.03-2.03-2.03z"/>
    <path fill="#d9d868" d="M537.56 259.98l2.03 2.03-2.03-2.03z"/>
    <path fill="#a4a43d" d="M549.07 260.65l1.35.68-1.35-.68z"/>
    <path fill="#808067" d="M551.77 259.98l2.03 2.03-2.03-2.03z"/>
    <path fill="#667" d="M553.8 259.98l2.03 2.03-2.03-2.03z"/>
    <path fill="#58587b" d="M555.83 259.98l2.03 2.03-2.03-2.03z"/>
    <path fill="#3a3a7c" d="M557.86 259.98l2.03 2.03-2.03-2.03z"/>
    <path fill="#58587b" d="M567.34 260.65l1.35.68-1.35-.68z"/>
    <path fill="#737370" d="M570.04 259.98l2.03 2.03-2.03-2.03z"/>
    <path fill="#99994e" d="M572.07 259.98l2.03 2.03-2.03-2.03z"/>
    <path fill="#a4a43d" d="M574.1 259.98l2.03 2.03-2.03-2.03z"/>
    <path fill="#dddc7a" d="M590.34 259.98l2.03 2.03-2.03-2.03z"/>
    <path fill="#d0d045" d="M592.37 259.98l2.03 2.03-2.03-2.03z"/>
    <path fill="#f2f1d7" d="M464.47 262.01l2.03 2.03-2.03-2.03z"/>
    <path fill="#e0dea1" d="M466.5 262.01l2.03 2.03-2.03-2.03z"/>
    <path fill="#dddc7a" d="M468.53 262.01l2.03 2.03-2.03-2.03z"/>
    <path fill="#d9d868" d="M509.13 262.01l2.03 2.03-2.03-2.03z"/>
    <path fill="#e5e3af" d="M511.16 262.01l2.03 2.03-2.03-2.03z"/>
    <path fill="#f6f6e4" d="M539.59 262.01l2.03 2.03-2.03-2.03z"/>
    <path fill="#e1e18c" d="M541.62 262.01l2.03 2.03-2.03-2.03z"/>
    <path fill="#d4d456" d="M582.22 262.01l2.03 2.03-2.03-2.03z"/>
    <path fill="#e1e18c" d="M584.25 262.01l2.03 2.03-2.03-2.03z"/>
    <path fill="#eeedc1" d="M586.28 262.01l2.03 2.03-2.03-2.03z"/>
    <path fill="#f2f1d2" d="M472.59 264.04l2.03 2.03-2.03-2.03z"/>
    <path fill="#e0dea1" d="M474.62 264.04l2.03 2.03-2.03-2.03z"/>
    <path fill="#dddc7a" d="M476.65 264.04l2.03 2.03-2.03-2.03z"/>
    <path fill="#d0d045" d="M478.68 264.04l2.03 2.03-2.03-2.03z"/>
    <path fill="#dddc7a" d="M503.04 264.04l2.03 2.03-2.03-2.03z"/>
    <path fill="#e5e3af" d="M505.07 264.04l2.03 2.03-2.03-2.03z"/>
    <path fill="#f6f6e4" d="M507.1 264.04l2.03 2.03-2.03-2.03z"/>
    <path fill="#eeedc1" d="M545.68 264.04l2.03 2.03-2.03-2.03z"/>
    <path fill="#e1e18c" d="M547.7 264.04l2.04 2.03-2.03-2.03z"/>
    <path fill="#d4d456" d="M549.74 264.04l2.03 2.03-2.03-2.03z"/>
    <path fill="#d9d868" d="M574.1 264.04l2.03 2.03-2.03-2.03z"/>
    <path fill="#e1e18c" d="M576.13 264.04l2.03 2.03-2.03-2.03z"/>
    <path fill="#eeedc1" d="M578.16 264.04l2.03 2.03-2.03-2.03z"/>
    <path fill="#f6f6e4" d="M580.19 264.04l2.03 2.03-2.03-2.03z"/>
    <path fill="#f2f1d7" d="M482.74 266.07l2.03 2.03-2.03-2.03z"/>
    <path fill="#f2f1d2" d="M484.77 266.07l2.03 2.03-2.03-2.03z"/>
    <path fill="#eeedc1" d="M486.8 266.07l2.03 2.03-2.03-2.03z"/>
    <path fill="#f2f1d2" d="M496.28 266.74l1.36.68-1.36-.68z"/>
    <path fill="#fbfaf2" d="M498.98 266.07l2.03 2.03-2.03-2.03z"/>
    <path fill="#fef8f1" d="M509.13 266.07l4.06 4.06v-4.06h-4.06z"/>
    <path fill="#f2f1d7" d="M553.8 266.07l2.03 2.03-2.03-2.03z"/>
    <path fill="#f2f1d2" d="M555.83 266.07l2.03 2.03-2.03-2.03z"/>
    <path fill="#e5e3af" d="M557.86 266.07l2.03 2.03-2.03-2.03z"/>
    <path fill="#e5e59d" d="M561.25 266.74l1.35.68-1.35-.68z"/>
    <path fill="#e0dea1" d="M563.95 266.07l2.03 2.03-2.03-2.03z"/>
    <path fill="#f2f1d2" d="M567.34 266.74l1.35.68-1.35-.68z"/>
    <path fill="#fbfaf2" d="M570.04 266.07l2.03 2.03-2.03-2.03z"/>
    <path fill="#fef8f1" d="M505.07 268.1l2.03 2.03-2.03-2.03z"/>
    <path fill="#fbbe66" d="M507.1 268.1l2.03 2.03-2.03-2.03z"/>
    <path fill="#fbc477" d="M505.07 270.13l2.03 2.03-2.03-2.03z"/>
    <path fill="#fcb144" d="M509.13 270.13l2.03 2.03-2.03-2.03z"/>
    <path fill="#fe9f11" d="M505.07 272.16l2.03 2.03-2.03-2.03z"/>
    <path fill="#fea522" d="M509.13 272.16l2.03 2.03-2.03-2.03z"/>
    <path fill="#fae3c9" d="M503.04 274.2l2.03 2.02-2.03-2.03m8.12 0l2.03 2.03-2.03-2.03z"/>
    <path fill="#fbead6" d="M521.32 274.2l2.03 2.02-2.03-2.03z"/>
    <path fill="#f9d6aa" d="M523.35 274.2l2.03 2.02-2.03-2.03z"/>
    <path fill="#fae3c9" d="M531.47 274.2l2.03 2.02-2.03-2.03z"/>
    <path fill="#fef8f1" d="M533.5 274.2l2.03 2.02-2.03-2.03z"/>
    <path fill="#f9d099" d="M503.04 276.22l2.03 2.03-2.03-2.03z"/>
    <path fill="#fdab33" d="M511.16 276.22l2.03 2.03-2.03-2.03z"/>
    <path fill="#fcf1e4" d="M515.23 276.22l2.03 2.03-2.03-2.03z"/>
    <path fill="#fbc477" d="M517.25 276.22l2.03 2.03-2.03-2.03z"/>
    <path fill="#fea522" d="M519.28 276.22l2.03 2.03-2.03-2.03z"/>
    <path fill="#fcb755" d="M535.53 276.22l2.03 2.03-2.03-2.03z"/>
    <path fill="#f9d6aa" d="M537.56 276.22l2.03 2.03-2.03-2.03z"/>
    <path fill="#faca88" d="M503.04 278.25l2.03 2.03-2.03-2.03z"/>
    <path fill="#fea522" d="M513.2 278.25l2.03 2.03-2.03-2.03m26.39 0l2.03 2.03-2.03-2.03z"/>
    <path fill="#f8dcbb" d="M541.62 278.25l2.03 2.03-2.03-2.03z"/>
    <path fill="#f6f6e4" d="M460.41 280.28l2.03 2.03-2.03-2.03z"/>
    <path fill="#fbc477" d="M503.04 280.28l2.03 2.03-2.03-2.03z"/>
    <path fill="#fbbe66" d="M543.65 280.28l2.03 2.03-2.03-2.03z"/>
    <path fill="#f8dcbb" d="M545.68 280.28l2.03 2.03-2.03-2.03z"/>
    <path fill="#faca88" d="M503.04 282.31l2.03 2.03-2.03-2.03z"/>
    <path fill="#fcb755" d="M549.74 282.31l2.03 2.03-2.03-2.03z"/>
    <path fill="#f8dcbb" d="M551.77 282.31l2.03 2.03-2.03-2.03z"/>
    <path fill="#fef8f1" d="M501.01 284.35l2.03 2.03-2.03-2.03z"/>
    <path fill="#fe9f11" d="M503.04 284.35l2.03 2.03-2.03-2.03z"/>
    <path fill="#fdab33" d="M559.89 284.35l2.03 2.03-2.03-2.03z"/>
    <path fill="#fcb144" d="M561.92 284.35l2.03 2.03-2.03-2.03z"/>
    <path fill="#fbc477" d="M563.95 284.35l2.03 2.03-2.03-2.03z"/>
    <path fill="#f9d6aa" d="M565.98 284.35l4.06 4.06-4.06-4.06z"/>
    <path fill="#fef8f1" d="M568.01 284.35l2.03 2.03-2.03-2.03z"/>
    <path fill="#fcb144" d="M501.01 286.38l2.03 2.03-2.03-2.04z"/>
    <path fill="#fdab33" d="M529.44 286.38l2.03 2.03-2.03-2.04z"/>
    <path fill="#fbc477" d="M531.47 286.38l2.03 2.03-2.03-2.04zm8.12 0l2.03 2.03-2.03-2.04z"/>
    <path fill="#fea522" d="M541.62 286.38l2.03 2.03-2.03-2.04z"/>
    <path fill="#fae3c9" d="M498.98 288.4l2.03 2.03-2.03-2.03z"/>
    <path fill="#fcb144" d="M525.38 288.4l2.03 2.03-2.03-2.03z"/>
    <path fill="#fae3c9" d="M527.4 288.4l2.04 2.03-2.03-2.03z"/>
    <path fill="#f8dcbb" d="M543.65 288.4l2.03 2.03-2.03-2.03z"/>
    <path fill="#fdab33" d="M545.68 288.4l2.03 2.03-2.03-2.03z"/>
    <path fill="#fe9f11" d="M557.86 288.4l2.03 2.03-2.03-2.03z"/>
    <path fill="#fcb755" d="M559.89 288.4l2.03 2.03-2.03-2.03z"/>
    <path fill="#f9d099" d="M561.92 288.4l2.03 2.03-2.03-2.03z"/>
    <path fill="#fbead6" d="M563.95 288.4l2.03 2.03-2.03-2.03z"/>
    <path fill="#fcb144" d="M498.98 290.44l2.03 2.03-2.03-2.04z"/>
    <path fill="#fbbe66" d="M523.35 290.44l2.03 2.03-2.03-2.04z"/>
    <path fill="#f9d099" d="M547.7 290.44l2.04 2.03-2.03-2.04z"/>
    <path fill="#fbead6" d="M555.83 290.44l2.03 2.03-2.03-2.04z"/>
    <path fill="#fcf1e4" d="M496.95 292.47l2.03 2.03-2.03-2.03z"/>
    <path fill="#fbbe66" d="M521.32 292.47l2.03 2.03-2.03-2.03z"/>
    <path fill="#f9d099" d="M549.74 292.47l2.03 2.03-2.03-2.03z"/>
    <path fill="#fae3c9" d="M555.83 292.47l2.03 2.03-2.03-2.03z"/>
    <path fill="#fbc477" d="M496.95 294.5l2.03 2.03-2.03-2.03z"/>
    <path fill="#fcb144" d="M519.28 294.5l2.03 2.03-2.03-2.03m32.49 0l2.03 2.03-2.03-2.03z"/>
    <path fill="#fbbe66" d="M555.83 294.5l2.03 2.03-2.03-2.03z"/>
    <path fill="#f6f6e4" d="M460.41 296.53l2.03 2.03-2.03-2.03z"/>
    <path fill="#fea522" d="M496.95 296.53l2.03 2.03-2.03-2.03z"/>
    <path fill="#fbead6" d="M519.28 296.53l2.03 2.03-2.03-2.03z"/>
    <path fill="#fcf1e4" d="M551.77 296.53l2.03 2.03-2.03-2.03z"/>
    <path fill="#fef8f1" d="M557.86 296.53l2.03 2.03-2.03-2.03z"/>
    <path fill="#fcf1e4" d="M494.92 298.56l2.03 2.03-2.03-2.03z"/>
    <path fill="#fbbe66" d="M517.25 298.56l2.03 2.03-2.03-2.03z"/>
    <path fill="#faca88" d="M553.8 298.56l2.03 2.03-2.03-2.03z"/>
    <path fill="#f9d099" d="M557.86 298.56l2.03 2.03-2.03-2.03z"/>
    <path fill="#f9d6aa" d="M494.92 300.59l2.03 2.03-2.03-2.03z"/>
    <path fill="#fcf1e4" d="M517.25 300.59l2.03 2.03-2.03-2.03z"/>
    <path fill="#fae3c9" d="M527.4 300.59l2.04 2.03-2.03-2.03z"/>
    <path fill="#fea522" d="M529.44 300.59l2.03 2.03-2.03-2.03z"/>
    <path fill="#fcb144" d="M531.47 300.59l2.03 2.03-2.03-2.03z"/>
    <path fill="#f9d6aa" d="M533.5 300.59l2.03 2.03-2.03-2.03z"/>
    <path fill="#fef8f1" d="M553.8 300.59l2.03 2.03-2.03-2.03z"/>
    <path fill="#fea522" d="M555.83 300.59l2.03 2.03-2.03-2.03z"/>
    <path fill="#fdab33" d="M557.86 300.59l2.03 2.03-2.03-2.03z"/>
    <path fill="#faca88" d="M494.92 302.62l-2.03 6.09 2.03-6.1z"/>
    <path fill="#fea522" d="M515.23 302.62l2.03 2.03-2.03-2.03z"/>
    <path fill="#fef8f1" d="M517.25 302.62l2.03 2.03-2.03-2.03z"/>
    <path fill="#f9d099" d="M527.4 302.62l2.04 2.03-2.03-2.03z"/>
    <path fill="#fdab33" d="M535.53 302.62l2.03 2.03-2.03-2.03z"/>
    <path fill="#fae3c9" d="M537.56 302.62l2.03 2.03-2.03-2.03z"/>
    <path fill="#f8dcbb" d="M555.83 302.62l2.03 2.03-2.03-2.03z"/>
    <path fill="#f90" d="M557.86 302.62l2.03 2.03-2.03-2.03z"/>
    <path fill="#fbead6" d="M560.56 303.98l.68 1.35-.68-1.35z"/>
    <path fill="#fea522" d="M519.28 304.65l2.03 2.03-2.03-2.03z"/>
    <path fill="#fbbe66" d="M521.32 304.65l2.03 2.03-2.03-2.03z"/>
    <path fill="#faca88" d="M523.35 304.65l2.03 2.03-2.03-2.03z"/>
    <path fill="#fcb144" d="M525.38 304.65l2.03 2.03-2.03-2.03z"/>
    <path fill="#fae3c9" d="M527.4 304.65l2.04 2.03-2.03-2.03z"/>
    <path fill="#fe9f11" d="M529.44 304.65l2.03 2.03-2.03-2.03z"/>
    <path fill="#fdab33" d="M539.59 304.65l2.03 2.03-2.03-2.03z"/>
    <path fill="#fbc477" d="M541.62 304.65l2.03 2.03-2.03-2.03z"/>
    <path fill="#faca88" d="M543.65 304.65l2.03 2.03-2.03-2.03z"/>
    <path fill="#f9d6aa" d="M545.68 304.65l2.03 2.03-2.03-2.03z"/>
    <path fill="#fae3c9" d="M549.07 305.32l1.35.67-1.35-.67z"/>
    <path fill="#fef8f1" d="M551.77 304.65l2.03 2.03-2.03-2.03z"/>
    <path fill="#fbc477" d="M557.86 304.65l2.03 2.03-2.03-2.03z"/>
    <path fill="#fef8f1" d="M470.56 306.68l2.03 2.03-2.03-2.03z"/>
    <path fill="#fcf1e4" d="M472.59 306.68l2.03 2.03-2.03-2.03z"/>
    <path fill="#fcb755" d="M525.38 306.68l2.03 2.03-2.03-2.03z"/>
    <path fill="#fbead6" d="M529.44 306.68l2.03 2.03-2.03-2.03z"/>
    <path fill="#fea522" d="M531.47 306.68l2.03 2.03-2.03-2.03z"/>
    <path fill="#fe9f11" d="M547.7 306.68l2.04 2.03-2.03-2.03z"/>
    <path fill="#fcb144" d="M549.74 306.68l-2.03 4.06 2.03-4.06z"/>
    <path fill="#fe9f11" d="M553.8 306.68l2.03 2.03-2.03-2.03z"/>
    <path fill="#fbbe66" d="M555.83 306.68l2.03 2.03-2.03-2.03z"/>
    <path fill="#fcf1e4" d="M557.86 306.68l2.03 2.03-2.03-2.03z"/>
    <path fill="#fae3c9" d="M470.56 308.7l2.03 2.04-2.03-2.03z"/>
    <path fill="#fe9f11" d="M472.59 308.7l4.06 4.07-4.06-4.06z"/>
    <path fill="#fbead6" d="M474.62 308.7l2.03 2.04-2.03-2.03zm18.27 0l2.03 2.04-2.03-2.03z"/>
    <path fill="#fae3c9" d="M494.92 308.7l2.03 2.04-2.03-2.03z"/>
    <path fill="#fe9f11" d="M513.2 308.7l2.03 2.04-2.03-2.03z"/>
    <path fill="#fbc477" d="M515.23 308.7l2.03 2.04-2.03-2.03z"/>
    <path fill="#fea522" d="M517.25 308.7l2.03 2.04-2.03-2.03z"/>
    <path fill="#fbc477" d="M523.35 308.7l2.03 2.04-2.03-2.03z"/>
    <path fill="#fef8f1" d="M525.38 308.7l2.03 2.04-2.03-2.03z"/>
    <path fill="#fbc477" d="M533.5 308.7l2.03 2.04-2.03-2.03z"/>
    <path fill="#fff" d="M549.74 308.7l2.03 2.04-2.03-2.03z"/>
    <path fill="#fdab33" d="M551.77 308.7l2.03 2.04-2.03-2.03z"/>
    <path fill="#fbc477" d="M559.89 308.7l2.03 2.04-2.03-2.03z"/>
    <path fill="#fef8f1" d="M470.56 310.74l2.03 2.03-2.03-2.03z"/>
    <path fill="#fbead6" d="M476.65 310.74l2.03 2.03-2.03-2.03z"/>
    <path fill="#f9d6aa" d="M486.8 310.74l2.03 2.03-2.03-2.03z"/>
    <path fill="#fe9f11" d="M496.95 310.74l2.03 2.03-2.03-2.03z"/>
    <path fill="#f9d6aa" d="M500.34 311.4l1.36.68-1.36-.67z"/>
    <path fill="#f8dcbb" d="M513.2 310.74l2.03 2.03-2.03-2.03z"/>
    <path fill="#fcf1e4" d="M519.28 310.74l2.03 2.03-2.03-2.03z"/>
    <path fill="#f9d6aa" d="M535.53 310.74l2.03 2.03-2.03-2.03z"/>
    <path fill="#fdab33" d="M549.74 310.74l2.03 2.03-2.03-2.03z"/>
    <path fill="#fcb755" d="M561.92 310.74l2.03 2.03-2.03-2.03z"/>
    <path fill="#fef8f1" d="M563.95 310.74l2.03 2.03-2.03-2.03z"/>
    <path fill="#53527c" d="M454.32 312.77l2.03 2.03-2.03-2.03z"/>
    <path fill="#fcb755" d="M472.59 312.77l2.03 2.03-2.03-2.03z"/>
    <path fill="#fea522" d="M476.65 312.77l2.03 2.03-2.03-2.03z"/>
    <path fill="#fbead6" d="M484.77 312.77l2.03 2.03-2.03-2.03z"/>
    <path fill="#fe9f11" d="M488.83 312.77l2.03 2.03-2.03-2.03z"/>
    <path fill="#fcf1e4" d="M490.86 312.77l2.03 2.03-2.03-2.03z"/>
    <path fill="#fbbe66" d="M496.95 312.77l2.03 2.03-2.03-2.03z"/>
    <path fill="#fbc477" d="M498.98 312.77l2.03 2.03-2.03-2.03z"/>
    <path fill="#fbbe66" d="M501.01 312.77l2.03 2.03-2.03-2.03z"/>
    <path fill="#fea522" d="M511.16 312.77l2.03 2.03-2.03-2.03z"/>
    <path fill="#f9d6aa" d="M537.56 312.77l2.03 2.03-2.03-2.03z"/>
    <path fill="#fcb144" d="M563.95 312.77l2.03 2.03-2.03-2.03z"/>
    <path fill="#8d8d5b" d="M596.43 312.77l2.03 2.03-2.03-2.03z"/>
    <path fill="#e5e3af" d="M460.41 314.8l2.03 2.03-2.03-2.03z"/>
    <path fill="#f8dcbb" d="M472.59 314.8l2.03 2.03-2.03-2.03z"/>
    <path fill="#fdab33" d="M478.68 314.8l2.03 2.03-2.03-2.03z"/>
    <path fill="#fe9f11" d="M484.77 314.8l2.03 2.03-2.03-2.03z"/>
    <path fill="#faca88" d="M488.83 314.8l2.03 2.03-2.03-2.03z"/>
    <path fill="#fcf1e4" d="M496.95 314.8l2.03 2.03-2.03-2.03z"/>
    <path fill="#f9d099" d="M511.16 314.8l2.03 2.03-2.03-2.03m28.43 0l2.03 2.03-2.03-2.03z"/>
    <path fill="#fbbe66" d="M565.98 314.8l2.03 2.03-2.03-2.03z"/>
    <path fill="#fea522" d="M474.62 316.83l2.03 2.03-2.03-2.03z"/>
    <path fill="#fdab33" d="M480.71 316.83l2.03 2.03-2.03-2.03z"/>
    <path fill="#fea522" d="M482.74 316.83l2.03 2.03-2.03-2.03z"/>
    <path fill="#fe9f11" d="M486.8 316.83l2.03 2.03-2.03-2.03z"/>
    <path fill="#fef8f1" d="M488.83 316.83l2.03 2.03-2.03-2.03z"/>
    <path fill="#fbbe66" d="M498.98 316.83l2.03 2.03-2.03-2.03z"/>
    <path fill="#fef8f1" d="M511.16 316.83l2.03 2.03-2.03-2.03z"/>
    <path fill="#fbbe66" d="M541.62 316.83l2.03 2.03-2.03-2.03z"/>
    <path fill="#f9d099" d="M568.01 316.83l2.03 2.03-2.03-2.03z"/>
    <path fill="#f9d6aa" d="M474.62 318.86l2.03 2.03-2.03-2.03z"/>
    <path fill="#f9d099" d="M486.8 318.86l2.03 2.03-2.03-2.03z"/>
    <path fill="#fcf1e4" d="M498.98 318.86l2.03 2.03-2.03-2.03z"/>
    <path fill="#fdab33" d="M509.13 318.86l2.03 2.03-2.03-2.03m34.52 0l2.03 2.03-2.03-2.03z"/>
    <path fill="#fbead6" d="M570.04 318.86l2.03 2.03-2.03-2.03z"/>
    <path fill="#fea522" d="M476.65 320.89l2.03 2.03-2.03-2.03z"/>
    <path fill="#fe9f11" d="M484.77 320.89l2.03 2.03-2.03-2.03z"/>
    <path fill="#fcb144" d="M501.01 320.89l2.03 2.03-2.03-2.03z"/>
    <path fill="#faca88" d="M509.13 320.89l2.03 2.03-2.03-2.03z"/>
    <path fill="#f8dcbb" d="M543.65 320.89l2.03 2.03-2.03-2.03z"/>
    <path fill="#fcb144" d="M570.04 320.89l2.03 2.03-2.03-2.03z"/>
    <path fill="#d3d079" d="M460.41 322.92l2.03 2.03-2.03-2.03z"/>
    <path fill="#faca88" d="M476.65 322.92l2.03 2.03-2.03-2.03zm24.36 0l2.03 2.03-2.03-2.03z"/>
    <path fill="#fae3c9" d="M509.13 322.92l2.03 2.03-2.03-2.03m34.52 0l2.03 2.03-2.03-2.03z"/>
    <path fill="#f8dcbb" d="M572.07 322.92l2.03 2.03-2.03-2.03z"/>
    <path fill="#f2f1d7" d="M590.34 322.92l2.03 2.03-2.03-2.03z"/>
    <path fill="#58587b" d="M597.1 324.28l.68 1.35-.68-1.35z"/>
    <path fill="#d9d868" d="M461.08 326.31l.68 1.35-.68-1.35z"/>
    <path fill="#f8dcbb" d="M476.65 324.95l2.03 2.03-2.03-2.03z"/>
    <path fill="#f9d6aa" d="M541.62 324.95l2.03 2.03-2.03-2.03z"/>
    <path fill="#fe9f11" d="M543.65 324.95l2.03 2.03-2.03-2.03z"/>
    <path fill="#fcb144" d="M572.07 324.95l2.03 2.03-2.03-2.03z"/>
    <path fill="#f2f1d2" d="M591.01 326.31l.68 1.35-.68-1.35z"/>
    <path fill="#fcf1e4" d="M476.65 326.98l2.03 2.03-2.03-2.03z"/>
    <path fill="#fef8f1" d="M539.59 326.98l2.03 2.03-2.03-2.03z"/>
    <path fill="#fe9f11" d="M541.62 326.98l2.03 2.03-2.03-2.03z"/>
    <path fill="#fdab33" d="M547.7 326.98l-2.02 4.06 2.03-4.06z"/>
    <path fill="#fcb755" d="M549.74 326.98l2.03 2.03-2.03-2.03z"/>
    <path fill="#fea522" d="M574.1 326.98l2.03 2.03-2.03-2.03z"/>
    <path fill="#f9d099" d="M576.13 326.98l2.03 2.03-2.03-2.03z"/>
    <path fill="#53527c" d="M596.43 326.98l2.03 2.03-2.03-2.03z"/>
    <path fill="#808067" d="M457.02 330.37l.68 1.35-.68-1.35z"/>
    <path fill="#fea522" d="M478.68 329.01l2.03 2.03-2.03-2.03m6.1 0l2.02 2.03-2.03-2.03z"/>
    <path fill="#fe9f11" d="M507.1 329.01l2.03 2.03-2.03-2.03z"/>
    <path fill="#fae3c9" d="M539.59 329.01l2.03 2.03-2.03-2.03z"/>
    <path fill="#fef8f1" d="M547.7 329.01l2.04 2.03-2.03-2.03z"/>
    <path fill="#fcb144" d="M551.77 329.01l2.03 2.03-2.03-2.03z"/>
    <path fill="#fcb755" d="M578.16 329.01l2.03 2.03-2.03-2.03z"/>
    <path fill="#fef8f1" d="M580.19 329.01l4.06 4.06-4.06-4.06z"/>
    <path fill="#e5e59d" d="M591.01 330.37l.68 1.35-.68-1.35z"/>
    <path fill="#32327b" d="M597.1 330.37l.68 1.35-.68-1.35z"/>
    <path fill="#fcb755" d="M479.35 332.4l.68 1.35-.68-1.35z"/>
    <path fill="#fef8f1" d="M486.8 331.04l2.03 2.03-2.03-2.03z"/>
    <path fill="#fbbe66" d="M507.1 331.04l2.03 2.03-2.03-2.03z"/>
    <path fill="#fbead6" d="M539.59 331.04l2.03 2.03-2.03-2.03z"/>
    <path fill="#fe9f11" d="M543.65 331.04l2.03 2.03-2.03-2.03z"/>
    <path fill="#fcf1e4" d="M545.68 331.04l2.03 2.03-2.03-2.03z"/>
    <path fill="#fbead6" d="M551.77 331.04l2.03 2.03-2.03-2.03z"/>
    <path fill="#fdab33" d="M580.19 331.04l2.03 2.03-2.03-2.03z"/>
    <path fill="#667" d="M456.35 333.07l2.03 2.03-2.03-2.03z"/>
    <path fill="#f6f6e4" d="M462.44 333.07l2.03 2.03-2.03-2.03z"/>
    <path fill="#f9d6aa" d="M486.8 333.07l2.03 2.03-2.03-2.03z"/>
    <path fill="#fdab33" d="M503.04 333.07l2.03 2.03-2.03-2.03z"/>
    <path fill="#fe9f11" d="M505.07 333.07l2.03 2.03-2.03-2.03z"/>
    <path fill="#fcf1e4" d="M507.1 333.07l2.03 2.03-2.03-2.03z"/>
    <path fill="#fea522" d="M541.62 333.07l2.03 2.03-2.03-2.03z"/>
    <path fill="#faca88" d="M543.65 333.07l2.03 2.03-2.03-2.03m10.15 0l2.03 2.03-2.03-2.03z"/>
    <path fill="#fcb144" d="M582.22 333.07l2.03 2.03-2.03-2.03z"/>
    <path fill="#dddc7a" d="M590.34 333.07l2.03 2.03-2.03-2.03z"/>
    <path fill="#58587b" d="M456.35 335.1l2.03 2.03-2.03-2.03z"/>
    <path fill="#f2f1d2" d="M462.44 335.1l2.03 2.03-2.03-2.03z"/>
    <path fill="#fcb144" d="M479.35 336.46l.68 1.35-.68-1.35z"/>
    <path fill="#fea522" d="M486.8 335.1l2.03 2.03-2.03-2.03z"/>
    <path fill="#fef8f1" d="M507.1 335.1l2.03 2.03-2.03-2.03z"/>
    <path fill="#fea522" d="M509.13 335.1l2.03 2.03-2.03-2.03z"/>
    <path fill="#fcb144" d="M513.2 335.1l2.03 2.03-2.03-2.03z"/>
    <path fill="#fbead6" d="M515.23 335.1l2.03 2.03-2.03-2.03z"/>
    <path fill="#f8dcbb" d="M541.62 335.1l2.03 2.03-2.03-2.03z"/>
    <path fill="#fcf1e4" d="M543.65 335.1l2.03 2.03-2.03-2.03z"/>
    <path fill="#fef8f1" d="M553.8 335.1l2.03 2.03-2.03-2.03z"/>
    <path fill="#fe9f11" d="M555.83 335.1l2.03 2.03-2.03-2.03z"/>
    <path fill="#fbead6" d="M584.25 335.1l2.03 2.03-2.03-2.03z"/>
    <path fill="#d9d868" d="M590.34 335.1l2.03 2.03-2.03-2.03z"/>
    <path fill="#3a3a7c" d="M456.35 337.13l2.03 2.03-2.03-2.03z"/>
    <path fill="#e5e3af" d="M462.44 337.13l2.03 2.03-2.03-2.03z"/>
    <path fill="#faca88" d="M488.83 337.13l2.03 2.03-2.03-2.03z"/>
    <path fill="#fbead6" d="M509.13 337.13l2.03 2.03-2.03-2.03z"/>
    <path fill="#fe9f11" d="M515.23 337.13l2.03 2.03-2.03-2.03z"/>
    <path fill="#fcf1e4" d="M517.25 337.13l2.03 2.03-2.03-2.03z"/>
    <path fill="#fbead6" d="M539.59 337.13l2.03 2.03-2.03-2.03z"/>
    <path fill="#fae3c9" d="M541.62 337.13l2.03 2.03-2.03-2.03z"/>
    <path fill="#fbead6" d="M543.65 337.13l2.03 2.03-2.03-2.03z"/>
    <path fill="#fbbe66" d="M555.83 337.13l2.03 2.03-2.03-2.03m16.24 0l2.03 2.03-2.03-2.03z"/>
    <path fill="#fcf1e4" d="M574.1 337.13l2.03 2.03-2.03-2.03z"/>
    <path fill="#fef8f1" d="M576.13 337.13l2.03 2.03-2.03-2.03z"/>
    <path fill="#f8dcbb" d="M578.16 337.13l2.03 2.03-2.03-2.03z"/>
    <path fill="#fcb755" d="M580.19 337.13l2.03 2.03-2.03-2.03z"/>
    <path fill="#fae3c9" d="M584.25 337.13l2.03 2.03-2.03-2.03z"/>
    <path fill="#808067" d="M594.4 337.13l2.03 2.03-2.03-2.03z"/>
    <path fill="#32327b" d="M456.35 339.16l2.03 2.03-2.03-2.03z"/>
    <path fill="#a4a43d" d="M459.05 340.52l.68 1.35-.68-1.35z"/>
    <path fill="#e5e59d" d="M462.44 339.16l2.03 2.03-2.03-2.03z"/>
    <path fill="#fbc477" d="M478.68 339.16l2.03 2.03-2.03-2.03z"/>
    <path fill="#f9d6aa" d="M490.86 339.16l2.03 2.03-2.03-2.03z"/>
    <path fill="#fbbe66" d="M511.16 339.16l2.03 2.03-2.03-2.03z"/>
    <path fill="#f9d099" d="M517.25 339.16l2.03 2.03-2.03-2.03z"/>
    <path fill="#fae3c9" d="M535.53 339.16l2.03 2.03-2.03-2.03z"/>
    <path fill="#fcb144" d="M537.56 339.16l2.03 2.03-2.03-2.03z"/>
    <path fill="#fae3c9" d="M545.68 339.16l2.03 2.03-2.03-2.03z"/>
    <path fill="#f8dcbb" d="M555.83 339.16l2.03 2.03-2.03-2.03z"/>
    <path fill="#f9d099" d="M572.07 339.16l2.03 2.03-2.03-2.03z"/>
    <path fill="#fbc477" d="M582.22 339.16l2.03 2.03-2.03-2.03z"/>
    <path fill="#fbead6" d="M584.25 339.16l2.03 2.03-2.03-2.03z"/>
    <path fill="#737370" d="M594.4 339.16l2.03 2.03-2.03-2.03z"/>
    <path fill="#d9d868" d="M462.44 341.19l2.03 2.03-2.03-2.03z"/>
    <path fill="#f9d099" d="M478.68 341.19l2.03 2.03-2.03-2.03z"/>
    <path fill="#f9d6aa" d="M492.9 341.19l2.02 2.03-2.03-2.03m18.27 0l2.03 2.03-2.03-2.03z"/>
    <path fill="#fbc477" d="M517.25 341.19l2.03 2.03-2.03-2.03z"/>
    <path fill="#fef8f1" d="M527.4 341.19l2.04 2.03-2.03-2.03z"/>
    <path fill="#f8dcbb" d="M529.44 341.19l2.03 2.03-2.03-2.03z"/>
    <path fill="#fbc477" d="M531.47 341.19l2.03 2.03-2.03-2.03z"/>
    <path fill="#fea522" d="M533.5 341.19l2.03 2.03-2.03-2.03z"/>
    <path fill="#fbead6" d="M545.68 341.19l2.03 2.03-2.03-2.03z"/>
    <path fill="#f2f1d2" d="M588.31 341.19l2.03 2.03-2.03-2.03z"/>
    <path fill="#58587b" d="M594.4 341.19l2.03 2.03-2.03-2.03z"/>
    <path fill="#99994e" d="M458.38 343.22l2.03 2.03-2.03-2.03z"/>
    <path fill="#d0d045" d="M462.44 343.22l2.03 2.03-2.03-2.03z"/>
    <path fill="#fcb144" d="M494.92 343.22l2.03 2.03-2.03-2.03z"/>
    <path fill="#fae3c9" d="M496.95 343.22l2.03 2.03-2.03-2.03z"/>
    <path fill="#fef8f1" d="M511.16 343.22l2.03 2.03-2.03-2.03z"/>
    <path fill="#fcb755" d="M519.28 343.22l2.03 2.03-2.03-2.03z"/>
    <path fill="#fbc477" d="M521.32 343.22l2.03 2.03-2.03-2.03z"/>
    <path fill="#fcb144" d="M523.35 343.22l2.03 2.03-2.03-2.03z"/>
    <path fill="#fea522" d="M525.38 343.22l2.03 2.03-2.03-2.03z"/>
    <path fill="#fe9f11" d="M541.62 343.22l2.03 2.03-2.03-2.03z"/>
    <path fill="#f9d6aa" d="M543.65 343.22l2.03 2.03-2.03-2.03z"/>
    <path fill="#fef8f1" d="M572.07 343.22l2.03 2.03-2.03-2.03z"/>
    <path fill="#e0dea1" d="M588.31 343.22l2.03 2.03-2.03-2.03z"/>
    <path fill="#3a3a7c" d="M594.4 343.22l2.03 2.03-2.03-2.03z"/>
    <path fill="#737370" d="M458.38 345.25l2.03 2.03-2.03-2.03z"/>
    <path fill="#fbfaf2" d="M464.47 345.25l2.03 2.03-2.03-2.03z"/>
    <path fill="#fea522" d="M480.71 345.25l2.03 2.03-2.03-2.03z"/>
    <path fill="#fe9f11" d="M498.98 345.25l2.03 2.03-2.03-2.03z"/>
    <path fill="#fcb144" d="M501.01 345.25l2.03 2.03-2.03-2.03z"/>
    <path fill="#fbc477" d="M503.04 345.25l2.03 2.03-2.03-2.03z"/>
    <path fill="#faca88" d="M505.07 345.25l2.03 2.03-2.03-2.03z"/>
    <path fill="#fbc477" d="M507.1 345.25l2.03 2.03-2.03-2.03z"/>
    <path fill="#fcb144" d="M509.13 345.25l2.03 2.03-2.03-2.03z"/>
    <path fill="#fdab33" d="M511.16 345.25l2.03 2.03-2.03-2.03z"/>
    <path fill="#fbc477" d="M539.59 345.25l2.03 2.03-2.03-2.03z"/>
    <path fill="#fef8f1" d="M541.62 345.25l2.03 2.03-2.03-2.03z"/>
    <path fill="#fdab33" d="M570.04 345.25l2.03 2.03-2.03-2.03z"/>
    <path fill="#e1e18c" d="M588.31 345.25l2.03 2.03-2.03-2.03z"/>
    <path fill="#a4a43d" d="M593.04 346.61l.68 1.35-.68-1.35z"/>
    <path fill="#262678" d="M594.4 345.25l2.03 2.03-2.03-2.03z"/>
    <path fill="#58587b" d="M458.38 347.28l2.03 2.03-2.03-2.03z"/>
    <path fill="#f2f1d2" d="M464.47 347.28l2.03 2.03-2.03-2.03z"/>
    <path fill="#faca88" d="M480.71 347.28l2.03 2.03-2.03-2.03z"/>
    <path fill="#fe9f11" d="M535.53 347.28l2.03 2.03-2.03-2.03z"/>
    <path fill="#fbead6" d="M537.56 347.28l2.03 2.03-2.03-2.03z"/>
    <path fill="#fbc477" d="M555.83 347.28l2.03 2.03-2.03-2.03z"/>
    <path fill="#faca88" d="M570.04 347.28l2.03 2.03-2.03-2.03z"/>
    <path fill="#d4d456" d="M588.31 347.28l2.03 2.03-2.03-2.03z"/>
    <path fill="#32327b" d="M458.38 349.31l2.03 2.03-2.03-2.03z"/>
    <path fill="#e5e59d" d="M464.47 349.31l2.03 2.03-2.03-2.03z"/>
    <path fill="#fef8f1" d="M480.71 349.31l2.03 2.03-2.03-2.03z"/>
    <path fill="#fe9f11" d="M482.74 349.31l2.03 2.03-2.03-2.03z"/>
    <path fill="#fbead6" d="M535.53 349.31l2.03 2.03-2.03-2.03z"/>
    <path fill="#fea522" d="M555.83 349.31l2.03 2.03-2.03-2.03z"/>
    <path fill="#fcf1e4" d="M570.04 349.31l2.03 2.03-2.03-2.03z"/>
    <path fill="#808067" d="M592.37 349.31l2.03 2.03-2.03-2.03z"/>
    <path fill="#0e0e6e" d="M458.38 351.34l2.03 2.03-2.03-2.03z"/>
    <path fill="#a4a43d" d="M460.41 351.34l2.03 2.03-2.03-2.03z"/>
    <path fill="#d9d868" d="M464.47 351.34l2.03 2.03-2.03-2.03z"/>
    <path fill="#f8dcbb" d="M482.74 351.34l2.03 2.03-2.03-2.03z"/>
    <path fill="#f9d6aa" d="M553.8 351.34l2.03 2.03-2.03-2.03z"/>
    <path fill="#faca88" d="M568.01 351.34l2.03 2.03-2.03-2.03z"/>
    <path fill="#f2f1d2" d="M586.28 351.34l2.03 2.03-2.03-2.03z"/>
    <path fill="#58587b" d="M592.37 351.34l2.03 2.03-2.03-2.03z"/>
    <path fill="#8d8d5b" d="M460.41 353.37l2.03 2.03-2.03-2.03z"/>
    <path fill="#f9d6aa" d="M484.77 353.37l2.03 2.03-2.03-2.03z"/>
    <path fill="#fdab33" d="M525.38 353.37l2.03 2.03-2.03-2.03z"/>
    <path fill="#fff" d="M527.4 353.37l2.04 2.03-2.03-2.03z"/>
    <path fill="#fcb144" d="M530.8 354.04l1.35.68-1.35-.68z"/>
    <path fill="#fef8f1" d="M551.77 353.37l-2.03 4.06 2.03-4.06z"/>
    <path fill="#fe9f11" d="M553.8 353.37l2.03 2.03-2.03-2.03z"/>
    <path fill="#fdab33" d="M565.98 353.37l-2.03 4.06 2.03-4.06z"/>
    <path fill="#e5e59d" d="M586.28 353.37l2.03 2.03-2.03-2.03z"/>
    <path fill="#3a3a7c" d="M592.37 353.37l2.03 2.03-2.03-2.03z"/>
    <path fill="#667" d="M460.41 355.4l2.03 2.03-2.03-2.03z"/>
    <path fill="#f2f1d2" d="M466.5 355.4l2.03 2.03-2.03-2.03z"/>
    <path fill="#f9d6aa" d="M486.8 355.4l2.03 2.03-2.03-2.03z"/>
    <path fill="#fe9f11" d="M525.38 355.4l2.03 2.03-2.03-2.03z"/>
    <path fill="#faca88" d="M527.4 355.4l2.04 2.03-2.03-2.03z"/>
    <path fill="#fea522" d="M529.44 355.4l2.03 2.03-2.03-2.03z"/>
    <path fill="#fcf1e4" d="M531.47 355.4l2.03 2.03-2.03-2.03z"/>
    <path fill="#fdab33" d="M551.77 355.4l2.03 2.03-2.03-2.03z"/>
    <path fill="#fef8f1" d="M565.98 355.4l2.03 2.03-2.03-2.03z"/>
    <path fill="#d9d868" d="M586.28 355.4l2.03 2.03-2.03-2.03z"/>
    <path fill="#a4a43d" d="M590.34 355.4l2.03 2.03-2.03-2.03z"/>
    <path fill="#0e0e6e" d="M592.37 355.4l2.03 2.03-2.03-2.03z"/>
    <path fill="#3a3a7c" d="M460.41 357.43l2.03 2.03-2.03-2.03z"/>
    <path fill="#e5e59d" d="M466.5 357.43l2.03 2.03-2.03-2.03z"/>
    <path fill="#fae3c9" d="M488.83 357.43l4.06 4.06-4.06-4.06z"/>
    <path fill="#fe9f11" d="M490.86 357.43l2.03 2.03-2.03-2.03z"/>
    <path fill="#f8dcbb" d="M529.44 357.43l2.03 2.03-2.03-2.03z"/>
    <path fill="#fcf1e4" d="M547.7 357.43l2.04 2.03-2.03-2.03z"/>
    <path fill="#fdab33" d="M549.74 357.43l2.03 2.03-2.03-2.03z"/>
    <path fill="#fcb144" d="M561.92 357.43l2.03 2.03-2.03-2.03z"/>
    <path fill="#fef8f1" d="M563.95 357.43l2.03 2.03-2.03-2.03z"/>
    <path fill="#fbfaf2" d="M584.25 357.43l2.03 2.03-2.03-2.03z"/>
    <path fill="#8d8d5b" d="M590.34 357.43l2.03 2.03-2.03-2.03z"/>
    <path fill="#0e0e6e" d="M460.41 359.46l2.03 2.03-2.03-2.03z"/>
    <path fill="#a4a43d" d="M462.44 359.46l2.03 2.03-2.03-2.03z"/>
    <path fill="#d4d456" d="M466.5 359.46l2.03 2.03-2.03-2.03z"/>
    <path fill="#f9d6aa" d="M527.4 359.46l2.04 2.03-2.03-2.03z"/>
    <path fill="#f9d099" d="M545.68 359.46l2.03 2.03-2.03-2.03z"/>
    <path fill="#fe9f11" d="M547.7 359.46l2.04 2.03-2.03-2.03z"/>
    <path fill="#faca88" d="M559.89 359.46l2.03 2.03-2.03-2.03z"/>
    <path fill="#eeedc1" d="M584.25 359.46l2.03 2.03-2.03-2.03z"/>
    <path fill="#58587b" d="M590.34 359.46l2.03 2.03-2.03-2.03z"/>
    <path fill="#737370" d="M462.44 361.5l2.03 2.02-2.03-2.03z"/>
    <path fill="#f6f6e4" d="M468.53 361.5l2.03 2.02-2.03-2.03z"/>
    <path fill="#fbbe66" d="M490.86 361.5l2.03 2.02-2.03-2.03z"/>
    <path fill="#fcb144" d="M523.35 361.5l2.03 2.02-2.03-2.03z"/>
    <path fill="#f8dcbb" d="M526.05 362.85l.67 1.35-.67-1.35z"/>
    <path fill="#fbbe66" d="M541.62 361.5l2.03 2.02-2.03-2.03z"/>
    <path fill="#fe9f11" d="M543.65 361.5l2.03 2.02-2.03-2.03z"/>
    <path fill="#fbc477" d="M555.83 361.5l2.03 2.02-2.03-2.03z"/>
    <path fill="#fcf1e4" d="M557.86 361.5l2.03 2.02-2.03-2.03z"/>
    <path fill="#d3d079" d="M584.25 361.5l2.03 2.02-2.03-2.03z"/>
    <path fill="#a4a43d" d="M588.31 361.5l2.03 2.02-2.03-2.03z"/>
    <path fill="#262678" d="M590.34 361.5l2.03 2.02-2.03-2.03z"/>
    <path fill="#49497d" d="M462.44 363.52l2.03 2.03-2.03-2.03z"/>
    <path fill="#e0dea1" d="M468.53 363.52l2.03 2.03-2.03-2.03z"/>
    <path fill="#fae3c9" d="M488.83 363.52l2.03 2.03-2.03-2.03z"/>
    <path fill="#fdab33" d="M517.25 363.52l2.03 2.03-2.03-2.03z"/>
    <path fill="#fbc477" d="M519.28 363.52l2.03 2.03-2.03-2.03z"/>
    <path fill="#fbead6" d="M521.32 363.52l2.03 2.03-2.03-2.03z"/>
    <path fill="#fcb144" d="M527.4 363.52l2.04 2.03-2.03-2.03z"/>
    <path fill="#f9d6aa" d="M553.8 363.52l2.03 2.03-2.03-2.03z"/>
    <path fill="#99994e" d="M588.31 363.52l2.03 2.03-2.03-2.03z"/>
    <path fill="#0e0e6e" d="M462.44 365.55l2.03 2.03-2.03-2.03z"/>
    <path fill="#a4a43d" d="M464.47 365.55l2.03 2.03-2.03-2.03z"/>
    <path fill="#d4d456" d="M468.53 365.55l2.03 2.03-2.03-2.03z"/>
    <path fill="#f9d099" d="M486.8 365.55l2.03 2.03-2.03-2.03z"/>
    <path fill="#fe9f11" d="M488.83 365.55l2.03 2.03-2.03-2.03m10.15 0l2.03 2.03-2.03-2.03z"/>
    <path fill="#f9d6aa" d="M501.01 365.55l2.03 2.03-2.03-2.03z"/>
    <path fill="#f9d099" d="M503.04 365.55l2.03 2.03-2.03-2.03z"/>
    <path fill="#f9d6aa" d="M511.16 365.55l2.03 2.03-2.03-2.03z"/>
    <path fill="#fae3c9" d="M513.2 365.55l2.03 2.03-2.03-2.03z"/>
    <path fill="#fef8f1" d="M515.23 365.55l2.03 2.03-2.03-2.03z"/>
    <path fill="#fbead6" d="M531.47 365.55l2.03 2.03-2.03-2.03z"/>
    <path fill="#fae3c9" d="M533.5 365.55l2.03 2.03-2.03-2.03z"/>
    <path fill="#faca88" d="M535.53 365.55l2.03 2.03-2.03-2.03z"/>
    <path fill="#fbc477" d="M537.56 365.55l2.03 2.03-2.03-2.03z"/>
    <path fill="#fdab33" d="M539.59 365.55l2.03 2.03-2.03-2.03z"/>
    <path fill="#fe9f11" d="M549.74 365.55l2.03 2.03-2.03-2.03z"/>
    <path fill="#f9d6aa" d="M551.77 365.55l2.03 2.03-2.03-2.03z"/>
    <path fill="#e5e3af" d="M582.22 365.55l2.03 2.03-2.03-2.03z"/>
    <path fill="#667" d="M588.31 365.55l2.03 2.03-2.03-2.03z"/>
    <path fill="#737370" d="M464.47 367.58l2.03 2.03-2.03-2.03z"/>
    <path fill="#f2f1d7" d="M470.56 367.58l2.03 2.03-2.03-2.03z"/>
    <path fill="#fea522" d="M484.77 367.58l2.03 2.03-2.03-2.03z"/>
    <path fill="#fe9f11" d="M494.92 367.58l2.03 2.03-2.03-2.03z"/>
    <path fill="#fbbe66" d="M496.95 367.58l2.03 2.03-2.03-2.03z"/>
    <path fill="#fcf1e4" d="M498.98 367.58l2.03 2.03-2.03-2.03z"/>
    <path fill="#fea522" d="M547.7 367.58l2.04 2.03-2.03-2.03z"/>
    <path fill="#fbead6" d="M549.74 367.58l2.03 2.03-2.03-2.03z"/>
    <path fill="#dddc7a" d="M582.22 367.58l2.03 2.03-2.03-2.03z"/>
    <path fill="#a4a43d" d="M586.28 367.58l2.03 2.03-2.03-2.03z"/>
    <path fill="#262678" d="M588.31 367.58l2.03 2.03-2.03-2.03z"/>
    <path fill="#49497d" d="M464.47 369.61l2.03 2.03-2.03-2.03z"/>
    <path fill="#a4a43d" d="M467.17 370.97l.68 1.36-.68-1.36z"/>
    <path fill="#d3d079" d="M470.56 369.61l2.03 2.03-2.03-2.03z"/>
    <path fill="#f9d099" d="M486.8 369.61l2.03 2.03-2.03-2.03z"/>
    <path fill="#fcb144" d="M488.83 369.61l2.03 2.03-2.03-2.03z"/>
    <path fill="#faca88" d="M490.86 369.61l2.03 2.03-2.03-2.03z"/>
    <path fill="#f8dcbb" d="M492.9 369.61l2.02 2.03-2.03-2.03z"/>
    <path fill="#fef8f1" d="M494.92 369.61l2.03 2.03-2.03-2.03z"/>
    <path fill="#f8dcbb" d="M539.59 369.61l2.03 2.03-2.03-2.03z"/>
    <path fill="#fcf1e4" d="M547.7 369.61l2.04 2.03-2.03-2.03z"/>
    <path fill="#f6f6e4" d="M580.19 369.61l2.03 2.03-2.03-2.03z"/>
    <path fill="#8d8d5b" d="M586.28 369.61l2.03 2.03-2.03-2.03z"/>
    <path fill="#fbfaf2" d="M472.59 371.64l2.03 2.03-2.03-2.03z"/>
    <path fill="#fbbe66" d="M539.59 371.64l2.03 2.03-2.03-2.03z"/>
    <path fill="#faca88" d="M545.68 371.64l2.03 2.03-2.03-2.03z"/>
    <path fill="#e1e18c" d="M580.19 371.64l2.03 2.03-2.03-2.03z"/>
    <path fill="#49497d" d="M586.28 371.64l2.03 2.03-2.03-2.03z"/>
    <path fill="#58587b" d="M466.5 373.67l2.03 2.03-2.03-2.03z"/>
    <path fill="#e5e59d" d="M472.59 373.67l2.03 2.03-2.03-2.03z"/>
    <path fill="#fe9f11" d="M539.59 373.67l2.03 2.03-2.03-2.03z"/>
    <path fill="#fdab33" d="M543.65 373.67l2.03 2.03-2.03-2.03z"/>
    <path fill="#fbfaf2" d="M578.16 373.67l2.03 2.03-2.03-2.03z"/>
    <path fill="#a4a43d" d="M584.25 373.67l2.03 2.03-2.03-2.03z"/>
    <path fill="#0e0e6e" d="M586.28 373.67l2.03 2.03-2.03-2.03z"/>
    <path fill="#1b1b74" d="M466.5 375.7l2.03 2.03-2.03-2.03z"/>
    <path fill="#a4a43d" d="M468.53 375.7l2.03 2.03-2.03-2.03z"/>
    <path fill="#d0d045" d="M472.59 375.7l2.03 2.03-2.03-2.03z"/>
    <path fill="#fbead6" d="M537.56 375.7l2.03 2.03-2.03-2.03z"/>
    <path fill="#fe9f11" d="M541.62 375.7l2.03 2.03-2.03-2.03z"/>
    <path fill="#fbead6" d="M543.65 375.7l2.03 2.03-2.03-2.03z"/>
    <path fill="#e5e59d" d="M578.16 375.7l2.03 2.03-2.03-2.03z"/>
    <path fill="#667" d="M584.25 375.7l2.03 2.03-2.03-2.03z"/>
    <path fill="#6e6c70" d="M468.53 377.73l2.03 2.03-2.03-2.03z"/>
    <path fill="#e5e3af" d="M474.62 377.73l2.03 2.03-2.03-2.03z"/>
    <path fill="#faca88" d="M538.23 379.1l.67 1.35-.67-1.36z"/>
    <path fill="#fae3c9" d="M541.62 377.73l2.03 2.03-2.03-2.03z"/>
    <path fill="#fbfaf2" d="M576.13 377.73l2.03 2.03-2.03-2.03z"/>
    <path fill="#a4a43d" d="M582.22 377.73l2.03 2.03-2.03-2.03z"/>
    <path fill="#1b1b74" d="M584.25 377.73l2.03 2.03-2.03-2.03m-115.72 2.03l2.03 2.03-2.03-2.03z"/>
    <path fill="#a4a43d" d="M470.56 379.76l2.03 2.03-2.03-2.03z"/>
    <path fill="#d0d045" d="M474.62 379.76l2.03 2.03-2.03-2.03z"/>
    <path fill="#fbfaf2" d="M476.65 379.76l2.03 2.03-2.03-2.03z"/>
    <path fill="#f9d6aa" d="M539.59 379.76l2.03 2.03-2.03-2.03z"/>
    <path fill="#e5e59d" d="M576.13 379.76l2.03 2.03-2.03-2.03z"/>
    <path fill="#6e6c70" d="M582.22 379.76l2.03 2.03-2.03-2.03m-111.66 2.03l2.03 2.03-2.03-2.03z"/>
    <path fill="#8cbf84" d="M476.65 381.8l2.03 2.02-2.03-2.03z"/>
    <path fill="#0cf" d="M477.52 381.8c7.05 14.83 32 49.84 51.04 49.16 18.5-.66 39.4-34.82 47.57-49.17h-98.6z"/>
    <path fill="#a4a43d" d="M580.19 381.8l2.03 2.02-2.03-2.03z"/>
    <path fill="#1b1b74" d="M582.22 381.8l2.03 2.02-2.03-2.03m-111.66 2.03l2.03 2.03-2.03-2.03z"/>
    <path fill="#a4a43d" d="M472.59 383.82l2.03 2.03-2.03-2.03z"/>
    <path fill="#adb333" d="M476.65 383.82l2.03 2.03-2.03-2.03z"/>
    <path fill="#1ac5b5" d="M478.68 383.82l2.03 2.03-2.03-2.03z"/>
    <path fill="#68b070" d="M574.1 383.82l2.03 2.03-2.03-2.03z"/>
    <path fill="#667" d="M580.19 383.82l2.03 2.03-2.03-2.03z"/>
    <path fill="#58587b" d="M472.59 385.86l2.03 2.03-2.03-2.03z"/>
    <path fill="#7fb15c" d="M478.68 385.86l2.03 2.03-2.03-2.03z"/>
    <path fill="#27c2aa" d="M572.07 385.86l2.03 2.03-2.03-2.03z"/>
    <path fill="#a4a43d" d="M578.16 385.86l-2.03 4.06 2.03-4.06z"/>
    <path fill="#0e0e6e" d="M580.19 385.86l2.03 2.03-2.03-2.03m-107.6 2.03l2.03 2.03-2.03-2.04z"/>
    <path fill="#a4a43d" d="M474.62 387.88l4.06 4.06-4.06-4.06z"/>
    <path fill="#34be9e" d="M480.71 387.88l2.03 2.03-2.03-2.03z"/>
    <path fill="#96b247" d="M572.07 387.88l2.03 2.03-2.03-2.03z"/>
    <path fill="#53527c" d="M578.16 387.88l2.03 2.03-2.03-2.03z"/>
    <path fill="#3a3a7c" d="M474.62 389.92l2.03 2.03-2.03-2.03z"/>
    <path fill="#a2b23d" d="M480.71 389.92l2.03 2.03-2.03-2.03z"/>
    <path fill="#0dc9c1" d="M482.74 389.92l2.03 2.03-2.03-2.03z"/>
    <path fill="#5bb47c" d="M570.04 389.92l2.03 2.03-2.03-2.03z"/>
    <path fill="#8d8d5b" d="M576.13 389.92l2.03 2.03-2.03-2.03z"/>
    <path fill="#737370" d="M476.65 391.94l2.03 2.03-2.03-2.03z"/>
    <path fill="#74b166" d="M482.74 391.94l2.03 2.03-2.03-2.03z"/>
    <path fill="#27c2aa" d="M568.01 391.94l2.03 2.03-2.03-2.03z"/>
    <path fill="#a4a43d" d="M574.1 391.94l-2.03 4.06 2.03-4.06z"/>
    <path fill="#262678" d="M576.13 391.94l2.03 2.03-2.03-2.03z"/>
    <path fill="#0e0e6e" d="M476.65 393.98l2.03 2.03-2.03-2.03z"/>
    <path fill="#a4a43d" d="M478.68 393.98l4.06 4.06-4.06-4.06z"/>
    <path fill="#42bb92" d="M484.77 393.98l2.03 2.03-2.03-2.03z"/>
    <path fill="#0dc9c1" d="M565.98 393.98l2.03 2.03-2.03-2.03z"/>
    <path fill="#96b247" d="M568.01 393.98l2.03 2.03-2.03-2.03z"/>
    <path fill="#58587b" d="M574.1 393.98l2.03 2.03-2.03-2.03z"/>
    <path fill="#3a3a7c" d="M478.68 396l2.03 2.04-2.03-2.03z"/>
    <path fill="#adb333" d="M484.77 396l2.03 2.04-2.03-2.03z"/>
    <path fill="#27c2aa" d="M486.8 396l2.03 2.04-2.03-2.03z"/>
    <path fill="#74b166" d="M565.98 396l2.03 2.04-2.03-2.03z"/>
    <path fill="#8d8d5b" d="M572.07 396l2.03 2.04-2.03-2.03z"/>
    <path fill="#6e6c70" d="M480.71 398.04l2.03 2.03-2.03-2.03z"/>
    <path fill="#96b247" d="M486.8 398.04l2.03 2.03-2.03-2.03z"/>
    <path fill="#0dc9c1" d="M488.83 398.04l2.03 2.03-2.03-2.03z"/>
    <path fill="#42bb92" d="M563.95 398.04l2.03 2.03-2.03-2.03z"/>
    <path fill="#a4a43d" d="M570.04 398.04l-4.06 6.09 4.06-6.1z"/>
    <path fill="#1b1b74" d="M572.07 398.04l2.03 2.03-2.03-2.03z"/>
    <path fill="#0e0e6e" d="M480.71 400.07l2.03 2.03-2.03-2.03z"/>
    <path fill="#8d8d5b" d="M482.74 400.07l2.03 2.03-2.03-2.03z"/>
    <path fill="#7fb15c" d="M488.83 400.07l2.03 2.03-2.03-2.03z"/>
    <path fill="#34be9e" d="M561.92 400.07l2.03 2.03-2.03-2.03z"/>
    <path fill="#3a3a7c" d="M570.04 400.07l2.03 2.03-2.03-2.03z"/>
    <path fill="#1b1b74" d="M482.74 402.1l2.03 2.03-2.03-2.03z"/>
    <path fill="#a4a43d" d="M484.77 402.1l22.33 22.33-22.33-22.34z"/>
    <path fill="#74b166" d="M490.86 402.1l2.03 2.03-2.03-2.03z"/>
    <path fill="#27c2aa" d="M559.89 402.1l2.03 2.03-2.03-2.03z"/>
    <path fill="#adb333" d="M561.92 402.1l2.03 2.03-2.03-2.03z"/>
    <path fill="#667" d="M568.01 402.1l2.03 2.03-2.03-2.03z"/>
    <path fill="#32327b" d="M484.77 404.13l2.03 2.03-2.03-2.03z"/>
    <path fill="#42bb92" d="M492.9 404.13l2.02 2.03-2.03-2.03z"/>
    <path fill="#0dc9c1" d="M557.86 404.13l-8.12 10.15 8.12-10.15z"/>
    <path fill="#adb333" d="M559.89 404.13l2.03 2.03-2.03-2.03z"/>
    <path fill="#737370" d="M565.98 404.13l2.03 2.03-2.03-2.03z"/>
    <path fill="#49497d" d="M486.8 406.16l2.03 2.03-2.03-2.03z"/>
    <path fill="#42bb92" d="M494.92 406.16l2.03 2.03-2.03-2.03z"/>
    <path fill="#96b247" d="M557.86 406.16l2.03 2.03-2.03-2.03z"/>
    <path fill="#8d8d5b" d="M563.95 406.16l-2.03 4.06 2.03-4.06z"/>
    <path fill="#0e0e6e" d="M565.98 406.16l2.03 2.03-2.03-2.03z"/>
    <path fill="#53527c" d="M488.83 408.19l2.03 2.03-2.03-2.03z"/>
    <path fill="#42bb92" d="M496.95 408.19l2.03 2.03-2.03-2.03z"/>
    <path fill="#96b247" d="M555.83 408.19l2.03 2.03-2.03-2.03z"/>
    <path fill="#0e0e6e" d="M563.95 408.19l2.03 2.03-2.03-2.03z"/>
    <path fill="#6e6c70" d="M490.86 410.22l2.03 2.03-2.03-2.03z"/>
    <path fill="#42bb92" d="M498.98 410.22l2.03 2.03-2.03-2.03z"/>
    <path fill="#96b247" d="M553.8 410.22l2.03 2.03-2.03-2.03z"/>
    <path fill="#a4a43d" d="M559.89 410.22l-4.06 6.09 4.06-6.1z"/>
    <path fill="#262678" d="M561.92 410.22l2.03 2.03-2.03-2.03z"/>
    <path fill="#6e6c70" d="M492.9 412.25l2.02 2.03-2.03-2.03z"/>
    <path fill="#42bb92" d="M501.01 412.25l2.03 2.03-2.03-2.03z"/>
    <path fill="#96b247" d="M551.77 412.25l2.03 2.03-2.03-2.03z"/>
    <path fill="#262678" d="M559.89 412.25l2.03 2.03-2.03-2.03z"/>
    <path fill="#6e6c70" d="M494.92 414.28l2.03 2.03-2.03-2.03z"/>
    <path fill="#68b070" d="M503.04 414.28l2.03 2.03-2.03-2.03z"/>
    <path fill="#27c2aa" d="M547.7 414.28l2.04 2.03-2.03-2.03z"/>
    <path fill="#adb333" d="M549.74 414.28l2.03 2.03-2.03-2.03z"/>
    <path fill="#262678" d="M557.86 414.28l2.03 2.03-2.03-2.03z"/>
    <path fill="#667" d="M496.95 416.3l2.03 2.04-2.03-2.03z"/>
    <path fill="#74b166" d="M505.07 416.3l2.03 2.04-2.03-2.03z"/>
    <path fill="#34be9e" d="M545.68 416.3l2.03 2.04-2.03-2.03z"/>
    <path fill="#adb333" d="M547.7 416.3l2.04 2.04-2.03-2.03z"/>
    <path fill="#8d8d5b" d="M553.8 416.3l-2.03 4.07 2.03-4.06z"/>
    <path fill="#262678" d="M555.83 416.3l2.03 2.04-2.03-2.03z"/>
    <path fill="#49497d" d="M498.98 418.34l2.03 2.03-2.03-2.03z"/>
    <path fill="#96b247" d="M507.1 418.34l2.03 2.03-2.03-2.03z"/>
    <path fill="#0dc9c1" d="M509.13 418.34l2.03 2.03-2.03-2.03z"/>
    <path fill="#42bb92" d="M543.65 418.34l2.03 2.03-2.03-2.03z"/>
    <path fill="#0e0e6e" d="M553.8 418.34l2.03 2.03-2.03-2.03z"/>
    <path fill="#49497d" d="M501.01 420.37l2.03 2.03-2.03-2.03z"/>
    <path fill="#a2b23d" d="M509.13 420.37l2.03 2.03-2.03-2.03z"/>
    <path fill="#27c2aa" d="M511.16 420.37l2.03 2.03-2.03-2.03z"/>
    <path fill="#74b166" d="M541.62 420.37l2.03 2.03-2.03-2.03z"/>
    <path fill="#a4a43d" d="M547.7 420.37l-6.08 8.12 6.09-8.12z"/>
    <path fill="#808067" d="M549.74 420.37l2.03 2.03-2.03-2.03z"/>
    <path fill="#0e0e6e" d="M551.77 420.37l2.03 2.03-2.03-2.03z"/>
    <path fill="#262678" d="M503.04 422.4l2.03 2.03-2.03-2.03z"/>
    <path fill="#adb333" d="M511.16 422.4l2.03 2.03-2.03-2.03z"/>
    <path fill="#42bb92" d="M513.2 422.4l2.03 2.03-2.03-2.03z"/>
    <path fill="#0dc9c1" d="M537.56 422.4l2.03 2.03-2.03-2.03z"/>
    <path fill="#96b247" d="M539.59 422.4l2.03 2.03-2.03-2.03z"/>
    <path fill="#6e6c70" d="M547.7 422.4l2.04 2.03-2.03-2.03z"/>
    <path fill="#1b1b74" d="M505.07 424.43l2.03 2.03-2.03-2.03z"/>
    <path fill="#8d8d5b" d="M507.1 424.43l2.03 2.03-2.03-2.03z"/>
    <path fill="#74b166" d="M515.23 424.43l2.03 2.03-2.03-2.03z"/>
    <path fill="#0dc9c1" d="M517.25 424.43l2.03 2.03-2.03-2.03z"/>
    <path fill="#34be9e" d="M535.53 424.43l2.03 2.03-2.03-2.03z"/>
    <path fill="#adb333" d="M537.56 424.43l2.03 2.03-2.03-2.03z"/>
    <path fill="#49497d" d="M545.68 424.43l2.03 2.03-2.03-2.03z"/>
    <path fill="#0e0e6e" d="M507.1 426.46l2.03 2.03-2.03-2.03z"/>
    <path fill="#6e6c70" d="M509.13 426.46l2.03 2.03-2.03-2.03z"/>
    <path fill="#a4a43d" d="M511.16 426.46l4.06 4.06-4.06-4.06z"/>
    <path fill="#96b247" d="M517.25 426.46l2.03 2.03-2.03-2.03z"/>
    <path fill="#27c2aa" d="M519.28 426.46l2.03 2.03-2.03-2.03z"/>
    <path fill="#68b070" d="M533.5 426.46l2.03 2.03-2.03-2.03z"/>
    <path fill="#32327b" d="M543.65 426.46l2.03 2.03-2.03-2.03z"/>
    <path fill="#49497d" d="M511.16 428.49l2.03 2.03-2.03-2.03z"/>
    <path fill="#5bb47c" d="M521.32 428.49l2.03 2.03-2.03-2.03z"/>
    <path fill="#27c2aa" d="M529.44 428.49l2.03 2.03-2.03-2.03z"/>
    <path fill="#96b247" d="M531.47 428.49l2.03 2.03-2.03-2.03z"/>
    <path fill="#a4a43d" d="M537.56 428.49l-2.03 4.06 2.03-4.06z"/>
    <path fill="#808067" d="M539.59 428.49l2.03 2.03-2.03-2.03z"/>
    <path fill="#0e0e6e" d="M541.62 428.49l2.03 2.03-2.03-2.03z"/>
    <path fill="#262678" d="M513.2 430.52l2.03 2.03-2.03-2.03z"/>
    <path fill="#8d8d5b" d="M515.23 430.52l2.03 2.03-2.03-2.03z"/>
    <path fill="#8bb252" d="M523.35 430.52l2.03 2.03-2.03-2.03z"/>
    <path fill="#1ac5b5" d="M525.38 430.52l2.03 2.03-2.03-2.03z"/>
    <path fill="#5bb47c" d="M527.4 430.52l2.04 2.03-2.03-2.03z"/>
    <path fill="#58587b" d="M537.56 430.52l2.03 2.03-2.03-2.03z"/>
    <path fill="#0e0e6e" d="M515.23 432.55l2.03 2.03-2.03-2.03z"/>
    <path fill="#667" d="M517.25 432.55l2.03 2.03-2.03-2.03z"/>
    <path fill="#a4a43d" d="M519.28 432.55l2.03 2.03-2.03-2.03z"/>
    <path fill="#99994e" d="M533.5 432.55l2.03 2.03-2.03-2.03z"/>
    <path fill="#32327b" d="M535.53 432.55l2.03 2.03-2.03-2.03m-16.24 2.03l2.03 2.03-2.03-2.03z"/>
    <path fill="#99994e" d="M521.32 434.58l2.03 2.03-2.03-2.03z"/>
    <path fill="#a4a43d" d="M529.44 434.58l2.03 2.03-2.03-2.03z"/>
    <path fill="#667" d="M531.47 434.58l2.03 2.03-2.03-2.03z"/>
    <path fill="#0e0e6e" d="M533.5 434.58l2.03 2.03-2.03-2.03m-12.19 2.03l2.03 2.03-2.03-2.03z"/>
    <path fill="#667" d="M523.35 436.61l2.03 2.03-2.03-2.03z"/>
    <path fill="#a4a43d" d="M525.38 436.61l2.03 2.03-2.03-2.03z"/>
    <path fill="#99994e" d="M527.4 436.61l2.04 2.03-2.03-2.03z"/>
    <path fill="#32327b" d="M529.44 436.61l2.03 2.03-2.03-2.03z"/>
    <path fill="#262678" d="M525.38 438.64l2.03 2.03-2.03-2.03z"/>
    <path fill="#0e0e6e" d="M527.4 438.64l2.04 2.03-2.03-2.03z"/>
    <path fill="#f90" d="M529.44 302.62c3.13 7.37 13.17 15.5 15.93 19.49-3.51 3.99-4.21 3.55-3.75 10.96 6.1-6.4 6.22-7.06 10.15-6.1 8.6 8.6 1.54 27.05-5.58 31.06-7.11 4.28-5.82-.14-16.48 5.22 4.89 4.18 10.55-.61 15.18.67 2.52 2.98-1.2 8.42.76 13.54 4.09-.39 3.6-8.65 4.55-11.64 2.99-10.97 20.96-18.63 21.87-28.69 3.79-1.78 7.58-.56 12.18 2.03-2.3-9.43-9.88-9.33-11.92-12.27-4.84-7.4-9.13-15.84-19.47-18.03-7.85-1.66-7.27.5-12.3-2.93-3.12-2.44-12.64-7.06-11.12-3.31z"/>
    <path fill="#fff" fill-rule="evenodd" d="M552 310.99a1.64 1.64 0 1 1-3.26 0 1.64 1.64 0 0 1 3.27 0z"/>
    <path fill="#f90" d="M504.33 333.88c5.05-6.22 7.55-18.9 9.79-23.2 5.16 1.24 5.1 2.07 11.44-1.8-8.5-2.42-9.15-2.2-10.12-6.13 3.57-11.63 23.19-14 30.06-9.58 7.1 4.29 2.59 5.22 12.31 12.14 1.41-6.28-5.47-9.05-6.5-13.74 1.46-3.62 8-2.88 11.62-7-2.26-3.43-9.33.86-12.42 1.42-11.1 2.48-26.26-9.83-35.58-5.93-3.35-2.52-4.03-6.44-3.9-11.72-7.26 6.43-3.63 13.1-5.28 16.27-4.28 7.73-9.74 15.47-6.84 25.64 2.2 7.72 3.83 6.19 3.15 12.24-.7 3.9-.33 14.48 2.27 11.38z"/>
    <path fill="#fff" fill-rule="evenodd" d="M501.18 310c.8-.41 1.8-.1 2.21.69a1.64 1.64 0 1 1-2.2-.68z"/>
    <path fill="#f90" d="M545.37 338.24c-7.93-1.11-20.07 3.3-24.91 3.62-1.61-5.07-.88-5.45-7.46-8.87 2.33 8.53 2.84 8.97-.01 11.84-11.8 2.96-23.98-12.6-23.75-20.77 0-8.3 3.13-4.92 4.02-16.82-6.1 2.04-4.91 9.36-8.39 12.67-3.86.62-6.6-5.36-12-6.33-1.77 3.71 5.56 7.55 7.64 9.9 7.86 8.22 5.17 27.56 13.32 33.52-.43 4.17-3.42 6.78-8.01 9.4 9.26 2.89 13.08-3.67 16.65-3.9 8.84-.34 18.29.33 25.49-7.4 5.47-5.88 3.31-6.49 8.84-9.03 3.7-1.42 12.56-7.21 8.57-7.83z"/>
    <path fill="#fff" fill-rule="evenodd" d="M526.57 353.27a1.64 1.64 0 1 1 1.69-2.8 1.64 1.64 0 0 1-1.69 2.8z"/>
  </g>
</svg>
