<?xml version="1.0" encoding="UTF-8" standalone="no"?>
<svg width="640px" height="480px" viewBox="0 0 640 480" version="1.1" xmlns="http://www.w3.org/2000/svg" xmlns:xlink="http://www.w3.org/1999/xlink" xmlns:sketch="http://www.bohemiancoding.com/sketch/ns">
    <!-- Generator: Sketch 3.4.2 (15857) - http://www.bohemiancoding.com/sketch -->
    <title>Flag_of_Albania</title>
    <desc>Created with Sketch.</desc>
    <defs></defs>
    <g id="Page-1" stroke="none" stroke-width="1" fill="none" fill-rule="evenodd" sketch:type="MSPage">
        <g id="Flag_of_Albania" sketch:type="MSLayerGroup">
            <rect id="Rectangle-path" fill="#E41E20" sketch:type="MSShapeGroup" x="0" y="0" width="640" height="480"></rect>
            <g id="eagle" transform="translate(189.000000, 100.000000)" fill="#000000" sketch:type="MSShapeGroup">
                <path d="M85.3716571,0.872502857 C80.9265829,0.797531429 73.5492114,2.28962743 73.7145143,5.70102857 C61.3333486,3.57904457 60.0441143,8.693184 60.7717029,13.2439131 C61.9497051,11.4379063 63.3840274,10.4573897 64.4859977,10.2724937 C66.1369783,9.99848229 67.8646491,10.5316937 69.6288549,11.6153143 C71.3931429,12.6990171 73.3368137,14.4477531 74.20032,15.5295634 C69.8305371,16.5742629 66.4547657,15.8998491 63.0288457,15.3008091 C61.3400137,15.0054034 58.9766857,14.0553326 57.5717394,13.0722651 C56.1667931,12.0890331 55.7244251,11.163648 53.51456,8.90087314 C50.9091474,6.23300571 48.1362011,6.984192 49.0002834,11.1294171 C50.9985097,14.9794011 54.3365943,16.696128 58.5431406,17.3865874 C60.5673691,17.7190217 63.5826469,18.4404206 67.0002834,18.443712 C70.4179383,18.4473691 74.2553326,17.9499977 76.3431863,18.3865691 C75.0889051,19.1740434 73.6695589,20.5316754 70.8574446,21.0722926 C67.9977691,21.6219611 63.6501211,19.371776 61.0003474,18.7580069 C61.336896,20.9875383 64.1491749,23.0717531 69.6860526,24.1580069 C78.7845851,26.1392 86.3450697,27.644864 91.3431954,30.3579886 C96.341312,33.0711131 99.492608,36.4678674 101.743195,39.1294171 C106.221925,44.425984 106.457509,48.4918857 106.743205,49.3865143 C107.66464,57.8488686 104.713874,62.6090971 99.2289554,64.0722286 C96.4864549,64.8037486 91.6148937,63.4262857 89.8290011,61.3293989 C88.0429897,59.2330057 86.30528,55.6295497 86.8003931,49.9865874 C87.2817646,47.7728549 89.8132023,42.0066011 87.6575634,40.8152046 C77.7269577,35.3265097 65.6678949,29.7757531 56.943232,26.4725303 C54.5586377,25.5697189 52.5942034,28.8106789 51.8289463,30.0725303 C37.0073691,28.2675657 23.6442606,18.2377417 17.628992,7.55824457 C13.5320686,0.284598857 6.77962057,7.57323886 7.91470629,14.4439131 C9.74720914,22.1126126 15.5901531,27.6570789 22.6004206,31.5867703 C29.7954011,35.5484983 38.788672,39.4468663 47.8860891,39.2439497 C52.7872731,40.1711451 52.7388891,46.512 46.8575177,47.7010834 C35.3549806,47.7738606 26.1786606,47.4871406 17.5146149,39.1296549 C10.9429486,33.1293806 7.24334629,40.2788571 9.14319543,44.3296183 C12.3627063,56.8172069 30.1775269,60.3140754 48.2002926,56.2724754 C55.1794377,55.1166903 51.0003109,62.5951451 49.0288274,62.6724937 C41.4982034,68.0719177 28.0160731,73.3550994 16.1430674,62.6153509 C10.7099886,58.4551497 7.03663543,61.952128 9.05736229,67.9582446 C14.3256229,83.6175817 34.477888,80.3287131 48.3145051,72.6153691 C51.8759131,70.6300617 55.108096,75.2489234 50.7716389,78.7582446 C33.5646903,90.781376 24.961536,90.9181531 17.200256,86.3010834 C7.48368457,82.4690377 6.62901029,93.246336 12.400256,96.7868434 C18.8148389,100.721911 35.1386331,97.7715566 47.1145874,90.2439771 C52.24864,86.4269897 52.4809326,92.3953371 49.2288366,94.7582537 C35.0169966,107.040219 29.4153509,110.274597 14.6002651,108.272494 C7.25387886,107.699785 7.364224,116.756974 13.1431497,120.301019 C21.03328,125.139831 36.4416183,117.107922 48.4002926,107.186688 C53.4336274,104.497179 54.2602697,108.908023 51.7717029,114.129545 C44.4646491,123.348471 37.6064914,128.783808 31.00032,131.300928 C24.3940937,133.81813 18.0398629,133.41707 13.5431314,131.871991 C8.05722514,129.987237 7.36931657,135.688485 10.4003109,140.871991 C12.2273829,143.996544 19.7988937,144.998455 27.9716937,142.100599 C36.1445577,139.203154 44.9187109,132.406793 50.9431223,124.443456 C56.18464,119.854711 55.5327726,126.019392 53.1431131,130.357742 C41.0796617,149.428553 30.0464274,156.50293 15.5145874,155.300553 C9.07112229,154.2064 7.60775314,159.217024 11.7146331,163.84341 C18.9259886,169.823854 27.9425646,169.636325 35.8289189,163.729033 C42.8398263,156.969509 56.2521417,142.413925 63.286016,134.614702 C68.2426606,130.663259 69.8260846,134.558747 68.3717669,142.58613 C67.0491063,147.183186 63.7379291,152.024667 54.714624,155.557559 C48.550272,159.075767 53.1795017,163.924571 57.8003383,164.014702 C60.343296,164.064256 65.5070537,161.091584 69.4574811,156.643301 C74.6544823,150.791387 74.9635474,146.862638 77.8289097,137.757632 C80.5360274,133.319305 85.3713006,135.39093 85.3717943,140.043365 C83.052736,149.163538 81.0601874,150.798839 76.3717943,154.529125 C71.8873874,158.739355 79.4942903,160.142491 82.0574903,158.414821 C89.4727497,153.416622 92.1798217,146.951232 94.6574446,141.071918 C96.4458423,136.828114 101.633792,138.885422 99.2289097,145.814784 C93.481664,162.375058 84.0378697,168.895653 67.514624,172.24331 C65.8400274,172.541184 64.8186149,173.529353 65.4003749,175.471872 C67.6180571,177.774144 69.8397714,179.863214 72.057536,182.157586 C61.8403017,185.132462 53.5395017,186.803721 43.314496,189.786578 C38.2979474,186.497701 34.2453303,183.70741 29.2288274,180.41515 C27.9060023,177.32277 27.2891794,172.602533 19.8859246,175.929426 C14.869376,173.612507 12.5553371,174.462107 9.77163886,176.786597 C13.7903086,176.936357 15.5387977,178.012571 17.1144869,179.843758 C19.171712,185.261943 23.915648,185.785362 28.7716297,184.243739 C31.9307429,186.905024 33.6131566,188.946368 36.7716114,191.615141 C30.8751817,191.413541 26.7673143,191.309038 20.8858971,191.129655 C15.2715429,185.101403 10.7903543,185.431616 6.77161143,190.158272 C3.70869029,190.628946 2.410304,190.694775 0.314486857,194.415406 C3.61060571,193.062629 5.684288,192.657125 7.114496,194.129874 C13.083584,197.5904 16.9831131,196.817984 19.9431131,194.129874 C25.7019611,194.482057 30.8913189,194.779931 36.6573531,195.158446 C34.5393189,196.958775 31.632576,197.913783 29.5144594,199.729911 C20.8650423,197.255415 16.3506651,200.586258 14.8287451,207.644233 C13.6695863,210.492882 13.1268297,213.42571 13.6287726,216.472814 C14.4659474,213.685714 15.8119771,211.28939 18.2858971,209.787099 C25.9951634,211.745335 28.8939886,208.598071 29.3144686,203.987109 C33.0305737,200.955045 38.63424,200.286391 42.34304,197.215653 C46.6794971,198.603895 48.7757257,199.463781 53.14304,200.844206 C54.6957714,205.562633 58.2093714,207.43093 63.9144229,206.215653 C70.7057097,206.428773 69.5068069,209.215378 70.0572983,211.444251 C71.8621531,208.243255 71.8118766,205.130304 67.6287177,202.301394 C66.1067611,198.166619 62.7347749,196.286144 58.314432,198.672841 C54.1535726,197.491547 53.0596663,195.793664 48.9144777,194.615662 C59.3995977,191.27371 66.8372206,190.521701 77.3144777,187.187072 C79.937088,189.660992 82.0156251,191.437047 84.6573257,193.644197 C86.0496,194.4752 87.3823817,194.684535 88.2002194,193.644197 C94.7655497,184.141842 97.697728,175.767351 103.800219,169.501385 C106.131621,166.908891 109.07712,163.411008 112.343077,162.558528 C113.976037,162.132288 115.978624,162.392311 117.257344,163.787136 C118.536064,165.181797 119.540526,167.752238 119.114533,171.587163 C118.50315,177.091913 117.173166,178.829952 115.628827,182.129975 C114.084489,185.430126 112.197184,187.460032 110.257381,189.987109 C106.377691,195.041179 101.258615,197.982894 98.2288549,199.958491 C92.1692526,203.909851 89.6064731,202.180453 84.9145691,201.929893 C78.8503589,202.610395 77.2368183,205.563877 82.2002926,209.644178 C86.8402194,212.058359 91.0108251,212.356398 94.4003383,211.729874 C97.3106194,211.191726 100.716507,207.435383 103.143195,205.415598 C105.874752,202.259941 110.403511,206.002295 107.314587,209.672731 C101.701467,216.342235 96.0928274,220.739611 89.1716846,220.64416 C81.8988617,221.622949 83.2592914,225.709339 88.0860069,227.701312 C96.7727909,231.286418 104.615927,224.571246 108.600293,220.158427 C111.674322,216.795328 113.857691,216.664165 113.314606,221.872686 C110.262875,231.302263 106.092553,234.944869 99.2859886,235.415543 C93.7650286,234.902903 93.7053714,239.164645 97.7431314,242.044151 C106.94112,248.410514 113.60224,237.56896 116.71456,231.015579 C118.932325,225.104091 122.333934,227.915301 122.686034,232.787026 C122.731931,239.296155 119.790729,244.610661 111.914651,251.272695 C117.940846,260.874066 124.966263,270.639918 131.000274,280.272741 L149.29056,76.5643977 L131.004846,44.379712 C129.100343,42.6214309 122.659456,35.0329691 120.976411,33.979712 C120.36256,33.3238949 119.98923,32.860544 120.890834,32.5225966 C121.762734,32.1959223 123.803666,31.8297509 125.176521,31.5797669 C121.298395,27.6950583 117.97504,26.4491703 110.633435,24.3228251 C112.422574,23.5608594 114.162917,24.0043794 119.433435,23.7517623 C117.341001,20.7815406 112.667465,16.2319269 106.633435,14.0371109 C110.618368,11.2041783 111.394898,11.0143269 115.34773,7.69426286 C108.502875,7.20877714 102.657627,5.904896 96.7763017,4.12283429 C93.0579749,2.38421943 87.8936594,0.908068571 85.3763474,0.865682286 L85.3716571,0.872502857 Z M86.02912,8.84393143 C89.6462354,8.84393143 91.8862994,10.0838126 91.8862994,11.5867611 C91.8862994,13.1157943 89.6462354,14.3582263 86.02912,14.3582263 C82.4270629,14.3582263 80.1433874,13.0024046 80.1433874,11.4725486 C80.1440366,9.9696 82.4270629,8.84393143 86.02912,8.84393143 L86.02912,8.84393143 Z" id="half"></path>
                <g id="half-link" transform="translate(186.771429, 140.571429) scale(-1, 1) translate(-186.771429, -140.571429) translate(111.800000, 0.685714)">
                    <path d="M85.1145143,0.186788571 C80.66944,0.111817143 73.2920686,1.60391314 73.4573714,5.01531429 C61.0762057,2.89333029 59.7869714,8.00746971 60.51456,12.5581989 C61.6925623,10.752192 63.1268846,9.77167543 64.2288549,9.58677943 C65.8798354,9.312768 67.6075063,9.84597943 69.371712,10.9296 C71.136,12.0133029 73.0796709,13.7620389 73.9431771,14.8438491 C69.5733943,15.8885486 66.1976229,15.2141349 62.7717029,14.6150949 C61.0828709,14.3196891 58.7195429,13.3696183 57.3145966,12.3865509 C55.9096503,11.4033189 55.4672823,10.4779337 53.2574171,8.21515886 C50.6520046,5.54729143 47.8790583,6.29847771 48.7431406,10.4437029 C50.7413669,14.2936869 54.0794514,16.0104137 58.2859977,16.7008731 C60.3102263,17.0333074 63.325504,17.7547063 66.7431406,17.7579977 C70.1607954,17.7616549 73.9981897,17.2642834 76.0860434,17.7008549 C74.8317623,18.4883291 73.412416,19.8459611 70.6003017,20.3865783 C67.7406263,20.9362469 63.3929783,18.6860617 60.7432046,18.0722926 C61.0797531,20.301824 63.892032,22.3860389 69.4289097,23.4722926 C78.5274423,25.4534857 86.0879269,26.9591497 91.0860526,29.6722743 C96.0841691,32.3853989 99.2354651,35.7821531 101.486053,38.4437029 C105.964782,43.7402697 106.200366,47.8061714 106.486062,48.7008 C107.407497,57.1631543 104.456731,61.9233829 98.9718126,63.3865143 C96.229312,64.1180343 91.3577509,62.7405714 89.5718583,60.6436846 C87.7858469,58.5472914 86.0481371,54.9438354 86.5432503,49.3008731 C87.0246217,47.0871406 89.5560594,41.3208869 87.4004206,40.1294903 C77.4698149,34.6407954 65.410752,29.0900389 56.6860891,25.786816 C54.3014949,24.8840046 52.3370606,28.1249646 51.5718034,29.386816 C36.7502263,27.5818514 23.3871177,17.5520274 17.3718491,6.87253029 C13.2749257,-0.401115429 6.52247771,6.88752457 7.65756343,13.7581989 C9.49006629,21.4268983 15.3330103,26.9713646 22.3432777,30.901056 C29.5382583,34.862784 38.5315291,38.761152 47.6289463,38.5582354 C52.5301303,39.4854309 52.4817463,45.8262857 46.6003749,47.0153691 C35.0978377,47.0881463 25.9215177,46.8014263 17.257472,38.4439406 C10.6858057,32.4436663 6.98620343,39.5931429 8.88605257,43.643904 C12.1055634,56.1314926 29.920384,59.6283611 47.9431497,55.5867611 C54.9222949,54.430976 50.743168,61.9094309 48.7716846,61.9867794 C41.2410606,67.3862034 27.7589303,72.6693851 15.8859246,61.9296366 C10.4528457,57.7694354 6.77949257,61.2664137 8.80021943,67.2725303 C14.06848,82.9318674 34.2207451,79.6429989 48.0573623,71.9296549 C51.6187703,69.9443474 54.8509531,74.5632091 50.514496,78.0725303 C33.3075474,90.0956617 24.7043931,90.2324389 16.9431131,85.6153691 C7.22654171,81.7833234 6.37186743,92.5606217 12.1431131,96.1011291 C18.557696,100.036197 34.8814903,97.0858423 46.8574446,89.5582629 C51.9914971,85.7412754 52.2237897,91.7096229 48.9716937,94.0725394 C34.7598537,106.354505 29.158208,109.588882 14.3431223,107.586779 C6.996736,107.014071 7.10708114,116.071259 12.8860069,119.615305 C20.7761371,124.454117 36.1844754,116.422208 48.1431497,106.500974 C53.1764846,103.811465 54.0031269,108.222309 51.51456,113.443831 C44.2075063,122.662757 37.3493486,128.098094 30.7431771,130.615214 C24.1369509,133.132416 17.78272,132.731355 13.2859886,131.186277 C7.80008229,129.301522 7.11217371,135.00277 10.143168,140.186277 C11.97024,143.31083 19.5417509,144.312741 27.7145509,141.414885 C35.8874149,138.51744 44.661568,131.721079 50.6859794,123.757742 C55.9274971,119.168997 55.2756297,125.333678 52.8859703,129.672027 C40.8225189,148.742839 29.7892846,155.817216 15.2574446,154.614839 C8.81397943,153.520686 7.35061029,158.53131 11.4574903,163.157696 C18.6688457,169.138139 27.6854217,168.95061 35.571776,163.043319 C42.5826834,156.283794 55.9949989,141.72821 63.0288731,133.928987 C67.9855177,129.977545 69.5689417,133.873033 68.114624,141.900416 C66.7919634,146.497472 63.4807863,151.338953 54.4574811,154.871845 C48.2931291,158.390053 52.9223589,163.238857 57.5431954,163.328987 C60.0861531,163.378542 65.2499109,160.40587 69.2003383,155.957586 C74.3973394,150.105673 74.7064046,146.176923 77.5717669,137.071918 C80.2788846,132.633591 85.1141577,134.705216 85.1146514,139.35765 C82.7955931,148.477824 80.8030446,150.113125 76.1146514,153.84341 C71.6302446,158.053641 79.2371474,159.456777 81.8003474,157.729106 C89.2156069,152.730907 91.9226789,146.265518 94.4003017,140.386203 C96.1886994,136.1424 101.376649,138.199707 98.9717669,145.12907 C93.2245211,161.689344 83.7807269,168.209938 67.2574811,171.557595 C65.5828846,171.85547 64.561472,172.843639 65.143232,174.786158 C67.3609143,177.08843 69.5826286,179.177499 71.8003931,181.471872 C61.5831589,184.446747 53.2823589,186.118007 43.0573531,189.100864 C38.0408046,185.811986 33.9881874,183.021696 28.9716846,179.729435 C27.6488594,176.637056 27.0320366,171.916818 19.6287817,175.243712 C14.6122331,172.926793 12.2981943,173.776393 9.514496,176.100882 C13.5331657,176.250642 15.2816549,177.326857 16.857344,179.158043 C18.9145691,184.576229 23.6585051,185.099648 28.5144869,183.558025 C31.6736,186.21931 33.3560137,188.260654 36.5144686,190.929426 C30.6180389,190.727826 26.5101714,190.623323 20.6287543,190.443941 C15.0144,184.415689 10.5332114,184.745902 6.51446857,189.472558 C3.45154743,189.943232 2.15316114,190.009061 0.057344,193.729691 C3.35346286,192.376914 5.42714514,191.97141 6.85735314,193.44416 C12.8264411,196.904686 16.7259703,196.13227 19.6859703,193.44416 C25.4448183,193.796343 30.634176,194.094217 36.4002103,194.472731 C34.282176,196.273061 31.3754331,197.228069 29.2573166,199.044197 C20.6078994,196.569701 16.0935223,199.900544 14.5716023,206.958519 C13.4124434,209.807168 12.8696869,212.739995 13.3716297,215.787099 C14.2088046,213 15.5548343,210.603675 18.0287543,209.101385 C25.7380206,211.059621 28.6368457,207.912357 29.0573257,203.301394 C32.7734309,200.26933 38.3770971,199.600677 42.0858971,196.529938 C46.4223543,197.918181 48.5185829,198.778066 52.8858971,200.158491 C54.4386286,204.876919 57.9522286,206.745216 63.65728,205.529938 C70.4485669,205.743058 69.249664,208.529664 69.8001554,210.758537 C71.6050103,207.557541 71.5547337,204.44459 67.3715749,201.61568 C65.8496183,197.480905 62.477632,195.60043 58.0572891,197.987127 C53.8964297,196.805833 52.8025234,195.10795 48.6573349,193.929947 C59.1424549,190.587995 66.5800777,189.835986 77.0573349,186.501358 C79.6799451,188.975278 81.7584823,190.751333 84.4001829,192.958482 C85.7924571,193.789486 87.1252389,193.998821 87.9430766,192.958482 C94.5084069,183.456128 97.4405851,175.081637 103.543077,168.815671 C105.874478,166.223177 108.819977,162.725294 112.085934,161.872814 C113.718894,161.446574 115.721481,161.706597 117.000201,163.101422 C118.278921,164.496082 119.283383,167.066523 118.85739,170.901449 C118.246007,176.406199 116.916023,178.144238 115.371685,181.444261 C113.827346,184.744411 111.940041,186.774318 110.000238,189.301394 C106.120549,194.355465 101.001472,197.297179 97.971712,199.272777 C91.9121097,203.224137 89.3493303,201.494738 84.6574263,201.244178 C78.593216,201.924681 76.9796754,204.878162 81.9431497,208.958464 C86.5830766,211.372645 90.7536823,211.670683 94.1431954,211.04416 C97.0534766,210.506011 100.459365,206.749669 102.886053,204.729883 C105.617609,201.574226 110.146368,205.316581 107.057445,208.987017 C101.444325,215.656521 95.8356846,220.053897 88.9145417,219.958446 C81.6417189,220.937234 83.0021486,225.023625 87.828864,227.015598 C96.515648,230.600704 104.358784,223.885531 108.34315,219.472713 C111.417179,216.109614 113.600549,215.97845 113.057463,221.186971 C110.005733,230.616549 105.83541,234.259154 99.0288457,234.729829 C93.5078857,234.217189 93.4482286,238.47893 97.4859886,241.358437 C106.683977,247.7248 113.345097,236.883246 116.457417,230.329865 C118.675182,224.418377 122.076791,227.229586 122.428891,232.101312 C122.474789,238.610441 119.533586,243.924946 111.657509,250.586981 C117.683703,260.188352 124.70912,269.954203 130.743131,279.587026 L149.033417,75.8786834 L130.747703,43.6939977 C128.8432,41.9357166 122.402313,34.3472549 120.719269,33.2939977 C120.105417,32.6381806 119.732087,32.1748297 120.633691,31.8368823 C121.505591,31.510208 123.546523,31.1440366 124.919378,30.8940526 C121.041253,27.009344 117.717897,25.763456 110.376293,23.6371109 C112.165431,22.8751451 113.905774,23.3186651 119.176293,23.066048 C117.083858,20.0958263 112.410322,15.5462126 106.376293,13.3513966 C110.361225,10.518464 111.137755,10.3286126 115.090587,7.00854857 C108.245733,6.52306286 102.400485,5.21918171 96.5191589,3.43712 C92.800832,1.69850514 87.6365166,0.222354286 85.1192046,0.179968 L85.1145143,0.186788571 Z M85.7719771,8.15821714 C89.3890926,8.15821714 91.6291566,9.39809829 91.6291566,10.9010469 C91.6291566,12.43008 89.3890926,13.672512 85.7719771,13.672512 C82.16992,13.672512 79.8862446,12.3166903 79.8862446,10.7868343 C79.8868937,9.28388571 82.16992,8.15821714 85.7719771,8.15821714 L85.7719771,8.15821714 Z" id="half"></path>
                </g>
            </g>
        </g>
    </g>
</svg>
