<svg xmlns="http://www.w3.org/2000/svg" height="480" width="640">
  <g>
    <path fill-rule="evenodd" fill="#de2110" d="M0 0h640v480h-640z"/>
    <path d="M229.27 120.15c7.431-.725 8.94-.628 14.397.784-7.008 3.206-15.293 1.604-20.432-2.951-7.766-7.051-26.26-19.242-19.647-8.854 34.312 38.023 63.863 12.315 81.834 34.209 6.122 7.457 11.527 17.467 8.307 27.299-1.101 3.365-5.08 11.282-9.89 9.27-6.298-2.635 1.194-23.331-3.391-30.065-10.41-15.289-29.271-11.199-44.747-12.851-4.49 12.176-15.306 10.341-25.25 4.199-12.695-7.839-12.313-27.12-23.658-33.488-11.823-6.636-9.896 15.588-7.991 20.869 8.253 22.881 32.553 31.434 54.795 27.366-16.462 25.489-42.552-16.5-55.476-6.216-8.2 6.525 6.284 18.397 11.302 21.12 13.882 7.536 30.563 3.751 44.174-2.274-7.772 8.441-22.072 13.621-33.681 11.907-5.996-.885-18.007-8.419-23.469-3.398-8.432 7.752 12.154 16.947 17.154 18.034 16.853 3.666 28.789-5.226 42.101-13.914-8.359 8.355-17.283 19.794-29.471 22.295-7.601 1.56-24.377-6.198-29.289 1.855-5.873 9.63 9.7 15.722 16.659 15.12 16.487-1.425 31.795-14.691 44.206-24.535-8.53 12.1-21.695 24.904-35.786 30.371-7.396 2.869-20.112-1.571-25.68 4.873-8.578 9.927 10.308 15.785 17.26 14.095 20.291-4.936 31.115-27.138 50.521-34.603-13.163 12.124-27.107 30.906-42.291 39.893-7.544 4.467-19.847-1.006-25.814 5.583-13.486 14.893 20.301 18.076 29.847 10.186 15.988-13.213 23.652-32.155 42.467-43.032-12.548 17.066-28.441 42.55-44.402 56.325-7.598 6.557-24.281.804-29.093 8.096-9.667 14.645 21.509 17.16 29.281 11.984 25.513-16.988 26.907-56.363 58.95-65.88-9.079 19.447-18.139 45.77-39.996 52.626 3.28 9.879 14.874 10.742 22.326 3.541 12.788-12.355 10.148-40.48 32.405-41.432l-16.051 22.499c.853 9.191 17.325-3.136 22.366-11.974h2.105c-8.77 20.92-24.25 32.601-44.206 42.101.392 12.472-7.953 18.897-18.946 23.156-5.915-10.875-21.678-18.964-29.471-6.315 6.185.834 11.71 1.996 12.63 8.42-9.807-3.541-17.547-5.218-21.051 6.315 11.49-1.886 15.415-1.467 17.367 3.553-7.854 9.045-6.573 22.804 7.894 24.141-4.035-2.916-6.755-4.846-4.538-8.749 3.208-4.261 7.006.051 8.867-2.488 3.473-5.069.345-3.299 4.774-1.259 3.629 2.598 9.532-8.273 17.935 10.062 10.106-7.271.383-18.762-3.882-27.366l31.576-6.315 35.786-33.681 2.105 2.105c-11.567 18.2-28.214 33.826-50.521 35.786 7.467 13.542 22.116 6.559 33.681 2.105-5.029 9.812-18.085 9.866-22.467 17.986-8.986 16.653 28.559-.514 30.888-1.145-3 10.567-14.826 12.685-17.899 21.642-2.387 6.955 7.357 7.644 11.496 5.625 7.987-3.899 13.207-14.481 19.034-20.952-2.728 12.63 2.44 22.629-11.47 37.234l21.339 26.246 24.36-26.277c-13.447-11.635-5.189-25.242-7.782-37.86 5.696 6.679 7.635 17.643 15.729 21.608 3.774 1.848 11.565 1.907 10.618-4.309-1.341-8.801-14.272-13.323-17.007-22.958 2.695.89 39.091 17.96 30.719 1.145-3.968-7.968-17.396-8.42-22.299-17.986 11.698 4.505 23.707 10.184 33.681 0-18.539-6.441-46.116-17.413-48.416-39.996l36.386 31.33 30.976 10.772v2.105c-7.549 7.864-11.919 13.35-5.658 22.958l7.698 2.305c-4.934-5.439-3.288-8.248 0-10.397 5.57-2.655 8.921 2.499 11.077-2.819.979-2.581 1.322-3.795 1.819-.644.549 5.58 8.281 1.288 10.984 2.017 4.229 4.166-2.063 8.332-2.764 11.841 11.961-4.191 14.222-11.529 10.525-23.156.789-4.408 3.553-6.513 6.315-6.315 3.137.373 5.614 1.404 8.42 2.105-4.107-10.727-11.355-10.321-21.051-6.315.878-6.425 4.056-9.561 10.525-8.42-4.861-14.586-22.438-2.878-27.366 6.315-11.447-3.797-22.406-9.999-18.946-23.156-19.343-9.207-37.348-20.613-44.206-42.101h2.105c5.042 8.837 21.185 14.914 20.063 6.711l-13.748-17.236c29.606 1.272 17.813 55.089 54.732 44.206v-4.21c-21.244-11.833-29.972-33.262-39.996-54.732 31.511 9.361 32.553 48.444 57.032 65.512 7.829 5.458 40.779 3.995 31.092-11.616-4.357-7.022-21.735-1.954-29.098-8.096-15.99-13.338-32.073-39.273-44.29-56.325 19.337 12.289 28.593 37.041 48.418 46.968 8.372 4.193 28.216 3.568 25.368-10.879-2.025-10.281-18.514-4.549-25.339-7.475-15.314-6.566-31.963-29.497-44.238-41.244 18.379 8.072 29.277 28.635 48.416 34.411 7.043 2.126 25.233-1.042 20.194-12.45-3.581-8.104-19.611-3.735-26.509-6.219-15.167-5.462-26.823-19.411-37.891-30.478 14.855 8.545 28.292 22.999 46.311 24.535 6.957.593 25.008-7.663 15.529-16.469-6.166-5.727-18.632.664-26.054-.179-11.957-1.358-22.011-11.901-29.471-20.518 17.388 10.682 71.357 15.232 61.901-7.105-6.564-5.461-13.736 4.051-26.646 4.409-13.527.031-26.943-3.178-38.017-11.711 14.104 4.762 30.29 9.815 44.831 3.003 5.17-2.421 23.678-17.756 11.717-23.019-9.325-4.104-18.937 9.11-26.421 12.453-9.275 4.143-20.097 1.123-29.471-1.186v-2.105c19.226-1.02 38.316-2.114 50.966-19.03 4.153-5.556 14.98-28.308 2.886-32.014-4.827-1.479-8.568 3.34-10.578 6.961-5.907 10.647-32.247 52.933-43.274 23.032-15.508 1.655-34.294-2.425-44.749 12.851-4.64 6.779 2.526 27.582-3.734 30.065-17.691 7.017-5.875-31.642-1.587-36.569 19.063-21.914 70.61-3.047 79.542-33.713.97-8.132-10.62 6.42-16.076 9.948-5.911 3.642-13.416 3.88-19.71 2.683 6.677-3.498 12.039-2.39 16.249-3.092-3.951-6.943-13.013-6.062-15.329-9.907-3.023-5.458-15.079-7.049-21.928-5.968-13.028 2.879-18.04 6.765-42.143.021l10.525 12.63-15.085 6.303 6.665 4.222-12.63 8.42c2.105.702 7.117.706 6.78 2.687l-10.176 17.306c-2.111-3.628-9.056-13.126-10.035-16.771-.49-1.626 2.446-2.386 6.418-3.105l-11.934-8.537 7.713-4.506-16.133-6.019 8.42-12.63c-13.424 8.955-24.947-3.562-40.489.099-6.627 1.506-11.978 8.885-18.217 7.654-5.263-.9-11.397 2.229-15.087 9.088z"/>
    <path d="M132.34 331.3c.651.313 1.848.156 2.03.859-1.224.443-2.682.495-3.906.391.573-1.302 1.225-.807 1.876-1.25z" fill-rule="evenodd" fill="#de2110"/>
    <path d="M188.2 331.53c-.65.313-1.847.156-2.029.859 1.224.443 2.682.495 3.905.391-.572-1.302-1.225-.807-1.876-1.25z" fill-rule="evenodd" fill="#de2110"/>
  </g>
</svg>
