<svg xmlns="http://www.w3.org/2000/svg" xmlns:xlink="http://www.w3.org/1999/xlink" width="720px" height="480px">
  <path fill-rule="evenodd" fill="rgb(255, 255, 255)" d="M0.000,0.000 L720.000,0.000 L720.000,480.000 L0.000,480.000 L0.000,0.000 Z" />
  <path fill-rule="evenodd" fill="rgb(220, 23, 29)" d="M280.000,0.000 L440.000,0.000 L440.000,480.000 L280.000,480.000 L280.000,0.000 Z" />
  <path fill-rule="evenodd" fill="rgb(1, 42, 135)" d="M0.000,160.000 L720.000,160.000 L720.000,321.000 L0.000,321.000 L0.000,160.000 Z" />
  <path fill-rule="evenodd" fill="rgb(246, 246, 246)" d="M258.912,224.674 L272.996,224.674 L261.556,233.265 L266.169,247.000 L253.500,238.892 L240.831,247.000 L244.828,233.265 L234.004,224.674 L248.148,224.674 L253.500,211.000 L258.912,224.674 Z" />
  <path fill-rule="evenodd" fill="rgb(246, 246, 246)" d="M365.912,180.674 L379.996,180.674 L368.556,189.265 L373.169,203.000 L360.500,194.892 L347.831,203.000 L351.828,189.265 L341.004,180.674 L355.148,180.674 L360.500,167.000 L365.912,180.674 Z" />
  <path fill-rule="evenodd" fill="rgb(246, 246, 246)" d="M471.912,224.674 L485.996,224.674 L474.556,233.265 L479.169,247.000 L466.500,238.892 L453.831,247.000 L457.828,233.265 L447.004,224.674 L461.148,224.674 L466.500,211.000 L471.912,224.674 Z" />
  <path fill-rule="evenodd" fill="rgb(246, 246, 246)" d="M409.912,286.674 L423.996,286.674 L412.556,295.265 L417.169,309.000 L404.500,300.892 L391.831,309.000 L395.828,295.265 L385.004,286.674 L399.148,286.674 L404.500,273.000 L409.912,286.674 Z" />
  <path fill-rule="evenodd" fill="rgb(246, 246, 246)" d="M320.912,286.674 L334.996,286.674 L323.556,295.265 L328.169,309.000 L315.500,300.892 L302.831,309.000 L306.828,295.265 L296.004,286.674 L310.148,286.674 L315.500,273.000 L320.912,286.674 Z" />
</svg>
