<svg xmlns="http://www.w3.org/2000/svg" xmlns:xlink="http://www.w3.org/1999/xlink" width="640" height="480" viewBox="-27 -14 38.4 28.8"><g transform="matrix(.71111 0 0 .8 -7.8 2.96)"><path fill="#fff" d="M-27-21.2h54v36h-54z"/><path fill="#dc171d" d="M-6-21.2H6v36H-6z"/><path fill="#012a87" d="M-27-9.2h54v12h-54z"/><g transform="matrix(1.5 0 0 1.5 0 -7.2)" id="c" fill="#fff"><g id="b"><path transform="rotate(18 3.157 -.5)" id="a" d="M.5 1L0 0v1z"/><use height="100%" width="100%" transform="scale(-1 1)" xlink:href="#a"/></g><use height="100%" width="100%" transform="rotate(72)" xlink:href="#b"/><use height="100%" width="100%" transform="rotate(-72)" xlink:href="#b"/><use height="100%" width="100%" transform="rotate(144)" xlink:href="#b"/><use height="100%" width="100%" transform="rotate(-144)" xlink:href="#b"/></g><g transform="translate(0 -7.2)" id="d"><use height="100%" width="100%" transform="translate(8 10.514)" xlink:href="#c"/><use height="100%" width="100%" transform="translate(3.314 15.2)" xlink:href="#c"/></g><use height="100%" width="100%" transform="scale(-1 1)" xlink:href="#d"/></g></svg>