<svg xmlns="http://www.w3.org/2000/svg" id="flag-icon-css-an" viewBox="0 0 640 480">
  <defs/>
  <defs>
    <clipPath id="a">
      <path fill="none" d="M-.03 0H640v480H-.03z"/>
    </clipPath>
  </defs>
  <g clip-path="url(#a)">
    <path fill="#FFF" d="M-45.75-3.83h731.5v487.66h-731.5z"/>
    <path d="M238.72-3.83h162.56v487.66H238.72z" fill="#dc171d"/>
    <path d="M-45.75 158.72h731.5v162.56h-731.5z" fill="#012a87"/>
    <g fill="#FFF">
      <path d="M320 165.5l-6.28 19.32 9.66 3.14z"/>
      <path d="M320 165.5l6.28 19.32-9.66 3.18z"/>
      <path d="M339.32 179.54H319v10.16z"/>
      <path d="M339.32 179.54l-16.43 11.94-6-8.22z"/>
      <path d="M300.68 179.54l16.43 11.94 6-8.22z"/>
      <path d="M300.68 179.54H321v10.16z"/>
      <g>
        <path d="M331.94 202.25l-6.28-19.32-9.66 3.14z"/>
        <path d="M331.94 202.25l-16.44-11.94 6-8.22z"/>
      </g>
      <g>
        <path d="M308.06 202.25l16.44-11.94-6-8.22z"/>
        <path d="M308.06 202.25l6.28-19.32 9.66 3.14z"/>
      </g>
    </g>
    <g fill="#FFF">
      <path d="M428.37 210.38l-6.28 19.33 9.66 3.14z"/>
      <path d="M428.37 210.38l6.28 19.33-9.65 3.14z"/>
      <path d="M447.7 224.42h-20.32v10.16z"/>
      <path d="M447.7 224.42l-16.44 12-6-8.22z"/>
      <path d="M409.05 224.42l16.43 12 6-8.22z"/>
      <path d="M409.05 224.42h20.31v10.16z"/>
      <g>
        <path d="M440.31 247.14L434 227.82l-9.63 3.18z"/>
        <path d="M440.31 247.14l-16.43-11.94 6-8.22z"/>
      </g>
      <g>
        <path d="M416.43 247.14l16.44-11.94-6-8.22z"/>
        <path d="M416.43 247.14l6.28-19.32 9.66 3.14z"/>
      </g>
      <g>
        <path d="M364.89 273.87l-6.28 19.32 9.66 3.14z"/>
        <path d="M364.89 273.87l6.28 19.32-9.66 3.14z"/>
        <path d="M384.21 287.91h-20.32v10.16z"/>
        <path d="M384.21 287.91l-16.44 11.94-6-8.22z"/>
        <path d="M345.56 287.91L362 299.85l6-8.22z"/>
        <path d="M345.56 287.91h20.32v10.16z"/>
        <g>
          <path d="M376.83 310.62l-6.28-19.32-9.66 3.14z"/>
          <path d="M376.83 310.62l-16.44-11.94 6-8.22z"/>
        </g>
        <g>
          <path d="M353 310.62l16.43-11.94-6-8.22z"/>
          <path d="M353 310.62l6.27-19.32 9.67 3.14z"/>
        </g>
      </g>
    </g>
    <g data-name="d" fill="#FFF">
      <path d="M211.63 210.38l6.28 19.33-9.66 3.14z"/>
      <path d="M211.63 210.38l-6.28 19.33 9.66 3.14z"/>
      <path d="M192.3 224.42h20.32v10.16z"/>
      <path d="M192.3 224.42l16.44 12 6-8.22z"/>
      <path d="M231 224.42l-16.43 12-6-8.22z"/>
      <path d="M231 224.42h-20.36v10.16z"/>
      <g>
        <path d="M199.69 247.14l6.31-19.32 9.66 3.14z"/>
        <path d="M199.69 247.14l16.43-11.94-6-8.22z"/>
      </g>
      <g>
        <path d="M223.57 247.14l-16.44-11.94 6-8.22z"/>
        <path d="M223.57 247.14l-6.28-19.32-9.66 3.18z"/>
      </g>
      <g>
        <path d="M275.11 273.87l6.28 19.32-9.66 3.14z"/>
        <path d="M275.11 273.87l-6.28 19.32 9.66 3.14z"/>
        <path d="M255.79 287.91h20.32v10.16z"/>
        <path d="M255.79 287.91l16.44 11.94 6-8.22z"/>
        <path d="M294.44 287.91L278 299.85l-6-8.22z"/>
        <path d="M294.44 287.91h-20.32v10.16z"/>
        <g>
          <path d="M263.17 310.62l6.28-19.32 9.66 3.14z"/>
          <path d="M263.17 310.62l16.44-11.94-6-8.22z"/>
        </g>
        <g>
          <path d="M287.05 310.62l-16.43-11.94 6-8.22z"/>
          <path d="M287.05 310.62l-6.27-19.32-9.67 3.14z"/>
        </g>
      </g>
    </g>
  </g>
</svg>
