<?xml version="1.0" encoding="UTF-8" standalone="no"?>
<svg width="640px" height="480px" viewBox="0 0 640 480" version="1.1" xmlns="http://www.w3.org/2000/svg" xmlns:xlink="http://www.w3.org/1999/xlink" xmlns:sketch="http://www.bohemiancoding.com/sketch/ns">
    <!-- Generator: Sketch 3.4.2 (15857) - http://www.bohemiancoding.com/sketch -->
    <title>Flag_of_Angola</title>
    <desc>Created with Sketch.</desc>
    <defs></defs>
    <g id="Page-1" stroke="none" stroke-width="1" fill="none" fill-rule="evenodd" sketch:type="MSPage">
        <g id="Flag_of_Angola" sketch:type="MSLayerGroup">
            <rect id="Rectangle-path" fill="#000000" sketch:type="MSShapeGroup" x="0" y="2.84217094e-14" width="640" height="479.625293"></rect>
            <rect id="Rectangle-path" fill="#CE1126" sketch:type="MSShapeGroup" x="0" y="2.84217094e-14" width="640" height="239.812646"></rect>
            <g id="Group" transform="translate(254.577778, 133.666667)" fill="#F9D616" sketch:type="MSShapeGroup">
                <path d="M92.4444444,185.315556 C81.3511111,189.155556 69.2622222,190.72 56.7466667,189.44 C40.5333333,187.733333 25.3155556,181.333333 12.6577778,171.093333 L0.426666667,185.884444 C5.68888889,190.151111 11.2355556,193.848889 17.0666667,196.977778 L13.0844444,204.515556 C19.4844444,207.928889 26.1688889,210.773333 33.1377778,212.906667 L35.5555556,204.8 C41.9555556,206.791111 48.64,208.071111 55.1822222,208.64 L54.3288889,217.173333 C61.5822222,217.884444 68.8355556,217.884444 76.0888889,217.173333 L75.2355556,208.64 C81.92,207.928889 88.4622222,206.648889 94.8622222,204.657778 L97.28,212.906667 C100.693333,211.911111 104.106667,210.631111 107.377778,209.351111 L102.826667,191.857778 L92.4444444,185.315556 L92.4444444,185.315556 Z" id="Shape"></path>
                <path d="M148.195556,115.342222 C145.92,137.528889 134.968889,156.728889 119.182222,170.097778 L124.586667,173.795556 L124.586667,173.795556 L142.506667,186.168889 C145.493333,183.182222 148.48,180.053333 151.182222,176.782222 L144.64,171.377778 L144.64,171.377778 C148.906667,166.115556 152.604444,160.568889 155.733333,154.737778 L163.271111,158.72 C166.684444,152.32 169.528889,145.635556 171.662222,138.666667 L163.555556,136.248889 C165.546667,129.848889 166.826667,123.164444 167.395556,116.622222 L175.928889,117.475556 C176.64,110.222222 176.64,102.968889 175.928889,95.7155556 L167.395556,96.5688889 C166.684444,89.8844444 165.404444,83.3422222 163.413333,76.9422222 L171.52,74.5244444 C169.386667,67.5555556 166.684444,60.8711111 163.128889,54.4711111 L155.591111,58.4533333 C152.462222,52.6222222 148.764444,47.0755556 144.497778,41.8133333 L151.04,36.4088889 C146.488889,30.8622222 141.226667,25.6 135.68,21.0488889 L130.275556,27.5911111 L130.275556,27.5911111 C125.013333,23.3244444 119.466667,19.6266667 113.635556,16.4977778 L117.617778,8.96 C111.217778,5.54666667 104.533333,2.70222222 97.5644444,0.568888889 L95.1466667,8.67555556 C89.0311111,6.82666667 82.6311111,5.54666667 76.0888889,4.83555556 L74.0977778,23.8933333 C119.751111,28.7288889 153.031111,69.6888889 148.195556,115.342222 L148.195556,115.342222 Z" id="Shape"></path>
                <path d="M115.911111,181.902222 C93.8666667,166.4 71.1111111,150.328889 52.0533333,132.408889 C51.6266667,131.982222 51.6266667,131.271111 52.0533333,130.844444 C52.48,130.417778 53.1911111,130.417778 53.6177778,130.844444 C72.6755556,148.764444 95.2888889,164.693333 117.191111,180.195556 C128,187.875556 139.235556,195.697778 149.902222,203.804444 L152.888889,200.391111 C116.337778,174.222222 29.8666667,114.204444 28.7288889,92.3022222 C11.6622222,125.582222 33.28,145.493333 47.2177778,153.457778 C82.7733333,173.653333 106.24,186.88 143.217778,211.626667 L148.48,205.511111 C137.813333,197.404444 126.72,189.44 115.911111,181.902222 L115.911111,181.902222 Z" id="Shape"></path>
                <path d="M185.742222,230.257778 C182.471111,224.853333 178.346667,221.013333 173.084444,216.177778 C167.822222,211.484444 160.426667,206.222222 154.88,200.96 L144.497778,213.191111 C144.071111,213.76 144.213333,214.897778 144.782222,215.04 C156.444444,217.031111 160,221.155556 164.693333,225.137778 C170.951111,231.395556 173.511111,239.075556 177.635556,241.92 C185.173333,247.04 190.577778,238.08 185.742222,230.257778 L185.742222,230.257778 Z M158.435556,210.915556 C157.582222,210.915556 157.013333,210.204444 157.013333,209.493333 C157.013333,208.782222 157.724444,208.071111 158.435556,208.071111 C159.146667,208.071111 159.857778,208.782222 159.857778,209.493333 C159.857778,210.204444 159.288889,210.915556 158.435556,210.915556 L158.435556,210.915556 Z M168.96,220.16 C168.106667,220.16 167.537778,219.448889 167.537778,218.737778 C167.537778,218.026667 168.248889,217.315556 168.96,217.315556 C169.671111,217.315556 170.382222,218.026667 170.382222,218.737778 C170.382222,219.448889 169.813333,220.16 168.96,220.16 L168.96,220.16 Z M178.204444,229.546667 C177.351111,229.546667 176.782222,228.835556 176.782222,228.124444 C176.782222,227.413333 177.493333,226.702222 178.204444,226.702222 C178.915556,226.702222 179.626667,227.413333 179.626667,228.124444 C179.626667,228.835556 179.057778,229.546667 178.204444,229.546667 L178.204444,229.546667 Z" id="Shape"></path>
                <path d="M42.8088889,99.2711111 L65.4222222,82.9155556 L88.0355556,99.2711111 L79.36,72.8177778 L101.973333,56.4622222 L74.0977778,56.4622222 L65.4222222,29.8666667 L56.7466667,56.4622222 L28.8711111,56.4622222 L51.4844444,72.8177778 L42.8088889,99.2711111 Z" id="Shape"></path>
            </g>
        </g>
    </g>
</svg>
