<svg xmlns="http://www.w3.org/2000/svg" height="480" width="640"><g><g fill-rule="evenodd" transform="matrix(.86 0 0 .953 0 -15.191)"><rect height="255.53" width="744.09" y="15.937" fill="#f00"/><rect height="255.53" width="744.09" y="263.97"/></g><g transform="translate(-113.16 4.863)"><path d="M341.83 143.31c165.22 43.304 58.989 255.64-71.216 167.26-2.939 4.515-5.877 9.03-8.817 13.545 76.628 54.658 152.57 10.66 173.9-46.358 22.297-58.788-7.521-141.48-92.511-150.03l-1.355 15.576z" fill-rule="evenodd" fill="#ffec00"/><rect fill-rule="evenodd" transform="matrix(.906 .422 -.423 .906 0 279.06)" height="23.949" width="23.972" y="-77.07" x="276.34" fill="#ffec00"/><rect fill-rule="evenodd" transform="translate(0 279.06)" height="23.942" width="23.979" y="-52.576" x="432.1" fill="#ffec00"/><rect fill-rule="evenodd" transform="matrix(.932 -.363 .364 .932 0 279.06)" height="23.947" width="23.974" y="67.214" x="424.9" fill="#ffec00"/><rect fill-rule="evenodd" transform="matrix(.711 -.703 .704 .71 0 279.06)" height="23.961" width="23.961" y="191.67" x="365.04" fill="#ffec00"/><rect fill-rule="evenodd" transform="matrix(.936 .353 -.354 .935 0 279.06)" height="23.947" width="23.974" y="-280" x="287.71" fill="#ffec00"/><rect fill-rule="evenodd" transform="matrix(.929 .371 -.372 .928 0 279.06)" height="23.947" width="23.974" y="-172.06" x="393.33" fill="#ffec00"/><rect fill-rule="evenodd" transform="matrix(.92 -.392 .393 .92 0 279.06)" height="23.948" width="23.973" y="192.4" x="308.48" fill="#ffec00"/><rect fill-rule="evenodd" transform="translate(0 279.06)" height="23.942" width="23.979" y="58.906" x="319.88" fill="#ffec00"/><path d="M361.17 222.03l-20.351-15.006-20.244 14.469 8.034-22.918-20.347-14.957 24.447-.171 8.568-22.551 7.782 22.703 24.702-.242-19.587 15.232 6.996 23.441z" fill-rule="evenodd" fill="#ffec00"/><path d="M449.19 341.513c-1.211.418-6.229 12.389-9.675 18.248 1.797.509 2.559.597 3.625 1.025 13.655 4.801 20.384 9.181 26.186 17.505 2.888 2.791 7.032 2.931 10.198.697 0 0 2.795-1.116 6.429-5.022 2.969-4.519 2.195-8.11-1.383-11.16-10.944-7.951-22.9-13.901-35.38-21.294z" fill-rule="evenodd" fill="#fe0"/><path d="M478.407 367.979c0 2.388-1.939 4.325-4.331 4.325s-4.331-1.936-4.331-4.325 1.939-4.325 4.331-4.325 4.331 1.936 4.331 4.325z" fill-rule="evenodd"/><path d="M457.03 354.307c0 2.388-1.939 4.325-4.331 4.325s-4.331-1.936-4.331-4.325 1.939-4.325 4.331-4.325 4.331 1.936 4.331 4.325z" fill-rule="evenodd"/><path d="M467.928 361.283c0 2.388-1.939 4.325-4.331 4.325s-4.331-1.936-4.331-4.325 1.939-4.325 4.331-4.325 4.331 1.936 4.331 4.325z" fill-rule="evenodd"/><path d="M437.63 358.804c-42.57-24.273-87.31-50.521-129.88-74.796-18.751-11.636-19.683-33.385-7.17-49.876 1.302-2.336 2.836-1.758 3.514-.523 1.463 8.028 5.969 16.324 11.37 21.495 44.693 28.383 87.732 55.804 131.71 85.613-3.448 5.768-6.104 12.322-9.55 18.087z" fill-rule="evenodd" fill="#fe0"/><rect fill-rule="evenodd" transform="matrix(.745 .667 -.668 .744 0 279.06)" height="23.959" width="23.963" y="-257.7" x="319.65" fill="#ffec00"/><path d="M444.7 64.898l-124.96-75.522" transform="translate(0 279.06)" stroke="#000" stroke-width="2.288pt" fill="none"/><path d="M429.27 47.47l-42.24-27.279" transform="translate(0 279.06)" stroke="#000" stroke-width="2.288pt" fill="none"/><path d="M405.24 62.878l-42.75-24.756" transform="translate(0 279.06)" stroke="#000" stroke-width="2.288pt" fill="none"/></g></g></svg>