<svg xmlns="http://www.w3.org/2000/svg" viewBox="0 0 512 512" height="480" width="640">
  <g>
    <path fill-rule="evenodd" fill="#3a7dce" d="M-85.333 0h682.67v512h-682.67z"/>
    <path d="M111.82 240.35c-3.079-6.299-3.079-6.299-3.079-12.596-1.54 0-1.829.296-2.719.048-.89-.245-1.227 5.808-4.115 4.626-.481-.59 2.07-4.969-.697-6.789-.89-.593.217-4.184-.169-5.759 0 0-3.512 1.869-6.159-4.723-1.3-1.723-3.08 1.574-3.08 1.574s.77 2.017-.625 2.51c-1.973-1.477-3.417-.702-5.919-2.731-2.503-2.03.53-4.354-4.235-6.076 3.08-7.872 3.08-6.299 10.78-9.447-4.62-3.149-4.62-3.149-7.699-7.873-4.62-1.575-6.16-3.148-10.78-6.298-6.159-7.873-9.239-23.618-9.239-34.64 3.898-3.691 9.239 12.596 16.94 17.319l10.78 4.724c6.159 3.149 7.699 6.298 12.32 9.447l13.86 4.724c6.159 4.723 9.239 11.022 13.86 12.596 5.005 0 5.969-2.947 7.573-3.131 9.053-.475 13.674-1.667 15.478-4.447 1.828-2.214 6.207 1.279 18.527-3.444l-1.539-6.299s3.272-2.755 7.699-1.575c-.12-2.878-.41-10.554 3.952-14.017-2.649-2.841-.871-4.877-.871-4.877s2.455-2.411 2.743-3.691c-1.298-6.938 1.127-7.045 1.671-9.087.543-2.041-2.095-1.342-1.351-4.155.742-2.814 5.204-3.482 5.801-5.801.599-2.318-1.272-3.481-1.164-4.034.963-2.214.145-7.43 0-9.447 8.278-2.264 10.973-9.152 13.86-6.298 1.54-9.447 3.08-12.596 12.32-12.596 1.3-2.903-3.37-5.363-1.54-6.298 3.08-.394 5.438-.197 9.049 4.576 1.14 1.512 1.346-2.214 2.501-2.608 1.155-.394 3.919-.4 4.33-2.263.435-1.919 1.06-4.428 2.6-7.577 1.299-2.559 2.31.984 3.465 6.003 6.497.246 21.175 1.722 27.334 3.444 4.62 1.23 7.7-1.23 12.127-1.722 3.272 3.346 6.352.837 8.085 7.971 2.446 3.85 6.448.345 7.315 1.476 5.15 14.515 22.859 4.724 24.206 4.97 2.261 0 5.024 6.49 6.804 6.329 2.893-.498 2.074-2.515 4.601-1.704-.675 5.462 4.957 11.76 4.957 15.844 0 0 1.371.689 2.641-.523 1.269-1.211 2.436-4.324 3.566-4.25 2.695.394 3.787.747 6.893 1.302 8.35 2.917 12.603 3.575 15.846 5.07 1.509 2.823 2.971 4.269 6.029 3.741 2.527 1.735.684 4.008 2.176 4.156 3.08-1.575 4.091-3.297 7.17-1.722 3.08 1.575 6.16 4.724 7.7 7.873 0 1.574-1.54 7.872 0 17.319.77 3.149 1.143 5.646 4.452 11.047-.879 5.548 4.163 14.884 4.163 17.246 0 3.148-2.455 4.773-3.995 7.921 6.16 4.724 0 12.596-3.079 17.32 23.099 4.724 12.32 14.171 30.799 9.447-4.62 11.022-2.984 10.137 1.636 21.159-9.24 6.299-.191 8.217-6.351 16.089-.385.493 3.656 6.84 9.335 6.84-1.54 12.596-6.16 7.872-4.62 26.767-12.127-.245-7.219 14.122-15.4 12.596.481 9.004 4.668 9.792 3.08 18.894-6.159 1.575-6.159 1.575-9.239 6.299l-4.62-1.575c-1.54 7.872-4.619 9.447 0 17.32 0 0-5.967.197-7.699 0-.145 2.707 2.647 3.445 3.08 6.298-.241 1.132-8.759 6.101-15.4 6.299-1.732 3.887 4.619 8.021 4.235 9.989-7.219 1.426-10.395 10.48-10.395 10.48s3.705 1.526 3.08 3.149c-1.972-1.477-3.08-1.575-6.159-1.575-1.54.394-5.293-.096-8.892 6.114-3.95 1.332-5.814.851-8.811 4.902-1.327-3.859-3.234.036-5.568 1.534-2.331 1.499-5.471 5.226-5.893 5.067.097-1.084 1.444-5.02 1.444-5.02l-7.7 1.575-.948.097c-.606.061-.444-4.596-1.903-4.427-1.459.17-5.634 5.857-7.057 6.035-1.421.178-1.871-1.809-3.095-1.636-1.224.173-3.611 5.999-4.478 6.153-.867.155-4.306-3.541-7.253-3.025-15.16 5.463-17.567-10.775-19.924-1.623-3.176-1.723-2.626-.723-5.853.141-2.059.543-2.247-2.783-4.078-2.732-3.664.106-3.471 3.649-5.469 2.591-1.635-7.381-11.502-6.053-12.464-9.202-.783-3.284 4.274-3.269 5.91-5.494 1.251-3.211-1.306-4.429 3.768-7.527 6.614-4.574 2.812-6.299 3.971-9.737 2.074-4.963 2.086-6.175.354-10.554 0 0-5.15-14.171-6.16-14.171-3.079-.885-3.079 5.215-7.604 6.889-9.239 3.148-25.552-7.972-28.392-7.972-2.598.05-14.632 2.914-14.178-3.221-1.799 5.965-8.416 1.401-8.824 1.401-6.16 0-3.803 4.872-7.942 4.674-1.877-.639-20.837-1.771-20.837-1.771v3.149l-12.32-6.299-10.78-3.148c-9.239-3.149-4.619-11.022-20.019-6.299v-9.447h-7.699c3.079-18.895 0-9.447-1.54-26.767l-6.16 1.575c-6.159-8.512 8.566-6.889-4.619-12.596 0 0 .24-9.399-3.08-6.299-.674.394 1.54 4.724 1.54 4.724-12.32-1.575-15.4-4.724-15.4-17.32 0 0 10.154 1.477 9.239 0-1.444-2.362-3.32-17.713-2.984-18.747-.144-2.067 9.432-7.282 7.579-12.253 1.179-.443 4.644-.491 4.644-.491" fill="#fff"/>
    <path stroke-linejoin="round" d="M527.55 303.26c-.493 1.108-.405 2.215.104 3.005.914-1.371.142-2.003-.104-3.005z" stroke="#fff" stroke-linecap="round" stroke-width="1.686pt" fill="none"/>
    <path stroke-linejoin="round" d="M131.51 178.94s-2.583-.316-2.003 1.95c.844-1.74 1.95-1.845 2.003-1.95z" stroke="#fff" stroke-width="2.108" fill="none"/>
    <path stroke-linejoin="round" d="M132.09 173.67c-1.423.053-3.163-.21-2.583 2.055.844-1.739 2.53-1.949 2.583-2.055z" stroke="#fff" stroke-width="2.108" fill="none"/>
    <path stroke-linejoin="round" d="M141.81 203.87s2.214-.158 1.634 2.108c-.844-1.74-1.581-2.003-1.634-2.108z" stroke="#fff" stroke-width="2.108" fill="none"/>
  </g>
</svg>
