<svg xmlns="http://www.w3.org/2000/svg" xmlns:xlink="http://www.w3.org/1999/xlink" id="flag-icon-css-ar" width="640" height="480">
  <path fill="#74acdf" d="M0 0h640v480H0z"/>
  <path fill="#fff" d="M0 160h640v160H0z"/>
  <g id="c" transform="translate(-64) scale(.96)">
    <path id="a" fill="#f6b40e" stroke="#85340a" stroke-width="1.11" d="M396.84 251.31l28.45 62s.5 1.18 1.28.85c.8-.33.3-1.51.3-1.51l-23.71-63.96m-.68 24.12c-.35 9.43 5.45 14.62 4.7 23.03-.77 8.42 3.86 13.18 4.93 16.46 1.07 3.27-1.16 5.23-.2 5.7.97.46 3.07-2.12 2.39-6.78-.69-4.65-4.22-6.04-3.4-16.32.84-10.28-4.2-12.68-2.97-22.06"/>
    <use width="100%" height="100%" transform="rotate(22.5 400 250)" xlink:href="#a"/>
    <use width="100%" height="100%" transform="rotate(45 400 250)" xlink:href="#a"/>
    <use width="100%" height="100%" transform="rotate(67.5 400 250)" xlink:href="#a"/>
    <path id="b" fill="#85340a" d="M404.31 274.41c.45 9.05 5.59 13.06 4.58 21.31 2.21-6.52-3.12-11.58-2.82-21.22m-7.65-23.75l19.49 42.57-16.33-43.88"/>
    <use width="100%" height="100%" transform="rotate(22.5 400 250)" xlink:href="#b"/>
    <use width="100%" height="100%" transform="rotate(45 400 250)" xlink:href="#b"/>
    <use width="100%" height="100%" transform="rotate(67.5 400 250)" xlink:href="#b"/>
  </g>
  <use width="100%" height="100%" transform="rotate(90 320 240)" xlink:href="#c"/>
  <use width="100%" height="100%" transform="rotate(180 320 240)" xlink:href="#c"/>
  <use width="100%" height="100%" transform="rotate(-90 320 240)" xlink:href="#c"/>
  <circle cx="320" cy="240" r="26.67" fill="#f6b40e" stroke="#85340a" stroke-width="1.44"/>
  <path id="h" fill="#843511" d="M329.1 234.3c-1.83 0-3.57.79-4.6 2.43 2.05 1.84 6.58 2.04 9.66-.21a7.04 7.04 0 0 0-5.07-2.22zm-.04.42c1.77-.04 3.43.78 3.66 1.59-2.05 2.25-5.33 2.06-7.38.42a4.32 4.32 0 0 1 3.72-2.01z"/>
  <use width="100%" height="100%" transform="matrix(-1 0 0 1 640.24 0)" xlink:href="#d"/>
  <use width="100%" height="100%" transform="matrix(-1 0 0 1 640.24 0)" xlink:href="#e"/>
  <use width="100%" height="100%" transform="translate(18.1)" xlink:href="#f"/>
  <use width="100%" height="100%" transform="matrix(-1 0 0 1 640.24 0)" xlink:href="#g"/>
  <path fill="#85340a" d="M315.92 243.69a1.85 1.85 0 1 0 1.86 2.88c.71.53 1.7.59 2.22.6h.24a3.9 3.9 0 0 0 2.22-.6 1.85 1.85 0 1 0 1.86-2.88c.5.17.81.65.81 1.17 0 .68-.55 1.23-1.23 1.23a1.24 1.24 0 0 1-1.23-1.17c-.2.4-1 1.59-2.55 1.65a3.05 3.05 0 0 1-2.55-1.65 1.24 1.24 0 0 1-1.23 1.17c-.68 0-1.23-.55-1.23-1.23 0-.52.32-1 .81-1.17zm2 5.46c-2.05 0-2.86 1.86-4.7 3.09 1.02-.41 1.83-1.22 3.27-2.04 1.43-.82 2.66.18 3.48.18h.03c.82 0 2.04-1 3.48-.18 1.43.82 2.27 1.63 3.3 2.04-1.85-1.23-2.7-3.1-4.74-3.1a5.5 5.5 0 0 0-2.04.64h-.03a5.48 5.48 0 0 0-2.04-.63z"/>
  <path fill="#85340a" d="M317.24 251.58c-.81.03-1.89.2-3.42.66 3.69-.82 4.5.42 6.15.42h.02c1.65 0 2.46-1.24 6.15-.42-4.1-1.23-4.92-.42-6.15-.42h-.03c-.76 0-1.38-.3-2.73-.24z"/>
  <path fill="#85340a" d="M314 252.21c-.24 0-.5 0-.78.03 4.3.41 2.24 2.88 6.75 2.88h.03c4.51 0 2.47-2.47 6.78-2.88-4.51-.4-3.09 2.25-6.78 2.25h-.03c-3.46 0-2.4-2.32-5.97-2.28zM323.7 258.87a3.7 3.7 0 0 0-7.39 0 3.8 3.8 0 0 1 7.39 0z"/>
  <path id="e" fill="#85340a" d="M303.42 234.26c4.72-4.1 10.67-4.72 13.95-1.64a8.06 8.06 0 0 1 1.53 3.43c.41 2.33-.32 4.85-2.15 7.44.2 0 .62.2.82.41a14.6 14.6 0 0 0 1.67-9.36 13.26 13.26 0 0 0-.64-2.33c-4.51-3.7-10.66-4.1-15.18 2.05z"/>
  <path id="d" fill="#85340a" d="M310.8 233.03c2.67 0 3.28.62 4.52 1.64 1.23 1.03 1.84.82 2.05 1.03.2.2 0 .82-.41.61-.41-.2-1.23-.61-2.46-1.64-1.24-1.02-2.46-1.02-3.7-1.02-3.69 0-5.74 3.07-6.15 2.87-.4-.2 2.05-3.49 6.15-3.49z"/>
  <use width="100%" height="100%" transform="translate(-18.41)" xlink:href="#h"/>
  <circle id="f" cx="310.92" cy="236.3" r="1.85" fill="#85340a"/>
  <path id="g" fill="#85340a" d="M305.88 237.54c3.49 2.67 6.97 2.46 9.02 1.23 2.06-1.23 2.06-1.64 1.65-1.64-.41 0-.82.41-2.47 1.23-1.64.82-4.1.82-8.2-.82z"/>
</svg>
