<svg xmlns="http://www.w3.org/2000/svg" height="480" width="640">
  <g clip-path="url(#a)">
    <path fill="#006" d="M-374-16h1024v512h-1024z"/>
    <path d="M-374 240l1024 256v-512l-1024 256z" fill-rule="evenodd" fill="#bd1021"/>
    <path d="M650 11.429v457.14l-914.29-228.57 914.29-228.57z" fill-rule="evenodd" fill="#fff"/>
    <g stroke="#000">
      <path d="M478.001 297.399s-6.393-5.231 1.162-13.657c-4.068-3.487-.29-10.169-.29-10.169s-6.974-2.616.29-13.367c-5.231-3.487-2.906-11.333-2.906-11.333s-17.144-6.393-.871-12.494c-13.367 5.811-25.862-7.846-25.862-7.846l-19.468.582c-3.302-16.172-28.97-2.127-9.888-48.52-4.94-.872-10.461-2.324-15.982 1.744-5.522 4.067-21.212 12.784-30.511 4.067s6.101-21.212 6.393-21.502c.29-.29 20.63-10.751 23.537-17.724-.29-5.232-6.683-9.299-.872-20.632 6.683-10.751 47.651-20.922 66.26-24.409 9.007-4.068 13.076-11.914 13.076-11.914l2.034 7.555s41.262-12.204 43.296-18.016l.872 5.23c16.272-1.453 36.902-15.4 39.808-9.008 13.657-2.615 39.81-14.238 39.81-14.238s9.007-.29 2.615 9.589c4.068 6.393-1.162 11.914-1.452 11.914-.292 0 1.743 6.393-3.488 9.88 1.745 5.521-3.196 9.88-3.196 9.88s2.326 6.683-6.973 10.17c.872 5.812-5.231 6.974-5.231 6.974s.872 6.102-3.196 8.717c0 4.649-4.649 6.974-4.649 6.974s2.905 1.743-1.164 4.649c-4.067 2.906-46.201 28.767-46.201 28.477 0-.29 30.801 5.521 32.835 6.683l25.281 16.563-23.538 29.057s-26.151-2.905-27.313-1.452 5.521 2.034 6.973 4.359c1.454 2.324 3.778 7.846 8.427 7.265 4.65-.582-8.717 8.427-17.434 9.299 0 3.196 11.041 3.487 13.948.872 2.906-2.616-6.974 7.555-8.137 9.007l13.077-2.034s-2.326 9.589-14.82 12.495c4.939 8.137 2.905 13.367 2.615 13.367s-8.137-8.137-15.692-6.684c2.034 7.846 8.137 15.11 9.881 16.273 1.743 1.162-13.657.871-15.692-3.488s-3.778 10.461 1.743 15.111c-6.391.29-11.913-3.488-11.913-3.488s-3.777 8.717-1.162 13.077c2.616 4.359-9.007-8.718-9.007-8.718l-22.084 9.299-4.94-8.427z" fill-rule="evenodd" fill="#9c3900"/>
      <path d="M307.325 280.101c.518 0 32.082-.518 46.572-8.797 7.244 11.384 17.076 19.146 17.076 19.146l4.657-16.558s11.384.517 12.419 3.105c-1.552 3.103-2.07 7.244-2.07 7.244s7.762.518 8.279 1.552c.517 1.035-2.07 9.831-2.07 9.831l33.117 7.762s2.587-12.936 5.174-11.384c2.587 1.552 13.972 17.593 30.012 18.629l17.076-13.454 3.622 2.071s6.727-14.488 7.762-14.488 2.588 2.069 11.384 2.069c2.588 3.105 3.623 10.348 3.623 10.348s-9.833 9.833-6.728 17.595l3.623 5.691 71.408 17.076s3.623 5.693-2.586 8.797c0 .517-71.927-16.559-71.927-16.559s-6.728 7.762-11.902 6.21l-1.552 3.105 77.618 6.21s5.693 7.245 1.552 9.314c-5.174.517-83.828-5.174-83.828-5.174s-4.657 9.831-9.831 1.552c-3.622 5.691-7.762-1.552-7.762-1.552s-6.727 5.174-7.762-.518c-5.693 4.14-9.314-2.586-9.314-2.586l-33.117-2.071-2.07 3.105s5.692 1.552-3.105 5.176c-8.797 3.622 52.78 2.069 54.332 2.586 1.552.518-4.139 5.176-4.139 5.176s31.565 2.069 37.256-4.657c5.693-6.728-2.069 8.796-2.069 8.796s24.838-1.034 24.838-2.069-.518 7.762-17.593 6.727c10.348 6.728 23.284 10.867 23.284 10.867s-12.936 3.105-27.942-.517c2.586 6.727 13.971 12.936 13.971 12.936s-8.28 7.245-26.909-10.35c5.176 9.314 1.035 12.938.518 11.902-.518-1.035-9.314-13.971-30.012-18.629 12.936 8.279 7.244 11.902 7.244 11.902s-6.727-11.902-17.593 0c-4.14-10.867-20.181-17.076-39.844-18.112-6.209-7.244-9.832-5.174-24.32-9.314-8.279-9.313-20.181-19.663-20.181-19.663s.517-13.971 14.488-12.419c1.552 4.657 1.552 3.105 1.552 3.105s15.524-5.693 20.181 2.069c6.727-11.902 16.041-1.779 17.593 2.36 4.458.654 26.908 1.262 26.908 1.262s-2.588-4.657-1.035-4.139c1.552.517 13.971-4.657 13.454-6.21-.518-1.552-1.035-6.727 1.034-6.21 2.071.517-17.593-2.588-28.46 5.693-3.622-3.623-1.035-13.454-1.035-13.454l-32.082-6.727-1.552 8.279s-9.314 1.552-8.797-.517c.517-2.071-2.07 7.244-2.07 7.244s-12.419-3.105-12.419-3.622 3.622-18.629 3.622-18.112c0 .518-10.349 1.035-24.838 11.902-4.14-12.936-36.739-30.012-36.739-30.529z" fill-rule="evenodd" fill="#ffc221"/>
      <path d="M385.98 284.763l-6.727 30.012" fill="none"/>
      <path d="M392.188 296.146l-2.07 9.831" fill="none"/>
      <path d="M425.307 303.908l-3.105 9.314" fill="none"/>
      <path d="M482.748 367.031c-.517 0-16.558 2.069-18.629 1.552-2.069-.517 25.355 8.279 25.355 11.901" fill="none"/>
      <path d="M453.771 370.666s-16.042-10.348-18.629-9.314c-2.588 1.035 16.041-.517 17.593-2.069" fill="none"/>
      <path d="M420.65 358.762s-16.558.517-18.11-1.035 16.041 11.384 19.146 10.35" fill="none"/>
      <path d="M388.567 351.508c-.517 0-11.384-4.139-16.041-5.176 4.14 4.14 7.244 9.833 17.593 11.902" fill="none"/>
      <path d="M392.707 344.788c-.517-1.035-20.698-7.245-20.698-10.35 4.657 1.552 11.384 3.622 17.593 2.069" fill="none"/>
      <path d="M499.822 320.981l-2.069 9.313" fill="none"/>
      <path d="M347.688 237.671s-21.733 18.627 0 29.494c1.035-7.245 2.587-8.279 2.587-8.279s18.11 6.727 28.977-9.314c-4.657-6.727-12.936-4.139-12.936-4.139s-17.076-.001-18.629-7.762z" fill-rule="evenodd" fill="#ffc221"/>
      <path d="M365.799 245.954l-15.005 12.936" fill="none"/>
      <path d="M412.016 335.801s3.459 3.813.354 8.471" fill="none"/>
      <path d="M484.819 339.618l-5.691.518" fill="none"/>
      <path d="M438.247 336.505l10.348 1.552" fill="none"/>
      <path d="M466.083 309.895s.29 10.461-8.427 10.171c-8.717-.292-5.812.29-5.812.29" fill="none"/>
      <path d="M472.774 308.148s3.487 1.162 2.616 3.778c-.872 2.615.871 10.169-9.299 17.434-10.753 2.324-9.589-9.007-9.589-9.007" fill="none"/>
      <path d="M476.55 311.346s6.393-3.777 7.265 2.326c.871 6.101-5.231 17.434-9.589 19.178-4.36 1.743-9.299-.292-8.718-3.196" fill="none"/>
      <path d="M484.396 313.966s5.812-4.65 7.555 1.452c1.744 6.102-4.649 19.76-7.265 20.05" fill="none"/>
      <path d="M492.524 315.417s2.906-1.452 4.939.29" fill="none"/>
      <path d="M483.227 336.336c-1.162.29-6.102.58-7.845-3.196" fill="none"/>
      <path d="M457.082 326.165c-.29 0-6.101.292-6.101.292" fill="none"/>
      <path d="M479.452 349.127l-.58-9.589-2.324-3.196-4.068 4.068s-.582 9.589-2.324 10.461" fill="none"/>
      <path d="M472.479 340.111c-.29-.58-3.196-6.101-3.196-6.101l-4.94 6.101s-.58 8.718-2.324 9.59" fill="none"/>
      <path d="M464.336 339.815c0-.29-2.034-5.811-2.034-5.811s-5.811 3.196-6.393 5.521c-.58 2.324-.872 8.717-2.324 9.299" fill="none"/>
      <path d="M455.912 338.364s.582-5.231-1.162-5.231c-1.743 0-9.589 7.265-9.879 13.657" fill="none"/>
      <path d="M348.402 237.825s2.906-2.906 3.778-6.393c.872-3.487-1.162-7.265 2.325-10.461 3.487-3.196 49.397-22.665 53.176-26.443 3.778-3.777 10.751-11.914 11.623-13.657.872-1.744 3.487 8.717-4.359 13.367 8.427-2.325 13.948-4.94 17.434-3.778-3.488 4.94-12.785 13.077-17.144 13.077 10.17-3.778 19.468-6.974 22.084-4.94 2.615 2.034-12.495 12.205-18.598 12.785 10.17-2.615 23.828-6.683 25.571-2.324-5.521 1.744-3.778 3.195-15.11 9.589-1.453 1.164-8.717 1.452-8.717 1.452 8.717-.872 20.63-4.359 21.793 2.034-6.973 2.615-9.588 6.102-15.4 7.555-5.812 1.454-19.178 4.068-27.315 7.265-8.136 3.196-20.05 12.495-20.05 12.495s-25.861.872-25.861.58c0-.29-4.94-11.913-5.23-12.204z" fill-rule="evenodd" fill="#fff"/>
      <path d="M360.605 235.797s.291-5.811 2.906-7.845 15.692-6.974 18.598-11.333c2.906-4.359-4.359 7.555-3.196 10.751" fill="none"/>
      <path d="M365.836 227.077s6.393 2.326 4.94 7.265" fill="none"/>
      <path d="M373.371 230.379c0 2.647-2.146 4.793-4.793 4.793s-4.793-2.146-4.793-4.793 2.146-4.793 4.793-4.793 4.793 2.146 4.793 4.793z" fill="none"/>
      <path d="M570.116 220.104l50.269 9.589s5.522-6.393 2.616-9.879c7.555-1.743 5.521-11.623 5.521-11.623s8.717-3.777 1.452-12.495c4.942-4.94-1.162-8.717-1.162-8.717s2.034-8.717-4.359-9.589c1.744-6.974-11.041-9.299-11.041-9.299s-26.443 7.265-45.04 7.846c6.102 6.102-2.324 9.88-2.324 9.88s4.94 3.487 3.487 6.393c-1.452 2.906.872 6.103-5.521 8.137 8.427 3.778-.872 10.169-.872 10.169s9.299 6.393 6.974 9.589z" fill-rule="evenodd" fill="#fff"/>
      <path d="M565.171 209.356s44.459 5.231 46.493 5.231 9.879 2.616 11.333 5.231" fill="none"/>
      <path d="M567.495 206.735l61.893 1.452" fill="none"/>
      <path d="M567.791 205.285s58.696-3.487 62.765-9.589" fill="none"/>
      <path d="M569.524 192.499s58.988-6.393 59.57-5.521" fill="none"/>
      <path d="M567.495 185.234s57.244-9.008 57.824-7.555" fill="none"/>
      <path d="M404.193 148.332s18.016 19.76 16.272 33.126" fill="none"/>
      <path d="M419.303 170.997s5.811 8.427 8.136 9.298 22.666 2.034 23.828 10.751c1.162 5.521-4.359 3.777-3.487 7.845 1.452 5.231 15.11 11.913 29.929 4.068" fill="none"/>
      <path d="M464.055 207.031s12.204 18.016 30.219-1.452" fill="none"/>
      <path d="M484.974 213.427s14.82 7.845 27.023-12.495" fill="none"/>
      <path d="M496.3 215.16s7.265 6.102 22.376-2.033" fill="none"/>
      <path d="M539.603 204.989s22.374 4.649 23.828 6.102" fill="none"/>
      <path d="M548.027 200.058c.29 0 15.692.582 15.692.582" fill="none"/>
      <path d="M538.434 191.337s26.733-1.743 30.221 3.778" fill="none"/>
      <path d="M526.812 182.91s37.486 1.453 39.228 3.487" fill="none"/>
      <path d="M535.236 221.259s6.393-1.743 7.265-.871" fill="none"/>
      <path d="M520.713 236.952s8.427 7.265 19.179 4.068" fill="none"/>
      <path d="M525.361 249.166s9.589 4.359 20.922 1.743" fill="none"/>
      <path d="M528.559 256.42s9.589 6.393 15.982 5.229" fill="none"/>
      <path d="M524.206 260.21s6.683 4.94 6.973 7.555" fill="none"/>
      <path d="M514.909 266.014s2.034 10.46 9.299 14.238" fill="none"/>
      <path d="M509.964 270.662s-3.196 13.657 4.94 22.084" fill="none"/>
      <path d="M501.54 281.411c0 .29-.58 6.393-.29 6.974" fill="none"/>
      <path d="M449.235 228.528l15.692-.872s5.811-2.324 1.743-6.101" fill="none"/>
      <path d="M468.703 225.049c.292 0 14.82 1.162 18.598 5.521 3.777 4.359 8.427 13.076 11.041 14.529 2.616 1.452 3.196-.582 3.196-.582" fill="none"/>
      <path d="M495.145 242.192s-7.845 13.367-1.743 17.435" fill="none"/>
      <path d="M490.778 257.012s-6.973 9.299-1.452 13.948" fill="none"/>
      <path d="M487.876 269.789s-5.521 9.009 1.164 15.11" fill="none"/>
      <path d="M485.439 245.897c-.375.375-6.749 4.874-8.999 3.75" fill="none"/>
      <path d="M478.691 260.139s2.624 2.624 4.874 2.25" fill="none"/>
      <path d="M479.001 273.776l4.188 2.872" fill="none"/>
      <path d="M479.564 284.214l3.623 2.186" fill="none"/>
      <path d="M413.933 141.701s7.639 3.972 13.75 0c6.112-3.972 35.446-18.944 43.085-21.39 7.638-2.445 11.916-16.5 13.445-22.611" fill="none"/>
      <path d="M478.409 114.201l42.779-12.528s7.028-5.806 7.334-16.5" fill="none"/>
      <path d="M525.46 96.784s42.778-4.278 42.778-20.167" fill="none"/>
      <path d="M561.523 87.616s44.918-12.222 49.196-16.806" fill="none"/>
      <path d="M436.233 151.479s27.195-14.056 31.473-15.583c4.277-1.528 14.055-13.75-.611-13.75" fill="none"/>
      <path d="M449.376 156.979c.306 0 22.305-14.362 29.639-16.194 3.973-5.5 1.834-11.306-4.888-10.083" fill="none"/>
      <path d="M480.846 137.118c.611-.306 11.918-.611 7.945 8.25-5.804 4.278-30.862 16.806-30.862 16.806" fill="none"/>
      <path d="M475.042 127.645l47.67-15.89s3.973-8.25-1.833-9.472" fill="none"/>
      <path d="M560.607 87.921c0 .306 6.112 3.667 2.446 9.167-6.722 3.972-38.501 11.611-38.501 11.611" fill="none"/>
      <path d="M608.883 83.033l-44.918 12.528" fill="none"/>
      <path d="M605.516 93.117l-39.111 11.917" fill="none"/>
      <path d="M602.164 102.895l-34.529 10.389" fill="none"/>
      <path d="M595.74 112.672c-.917 0-25.667 7.639-25.667 7.639" fill="none"/>
      <path d="M590.246 120.312l-15.89 6.417" fill="none"/>
      <path d="M586.273 128.867c-.611 0-13.75 5.806-13.75 5.806" fill="none"/>
      <path d="M582.301 135.895l-12.222 5.806" fill="none"/>
      <path d="M561.213 149.035s1.528.611 1.223 2.445" fill="none"/>
      <path d="M530.348 165.841s5.195 1.833.306 6.722c-2.444 3.361-9.472 2.445-13.75 8.556" fill="none"/>
      <path d="M563.664 97.395s6.418 1.528 1.528 9.778c-12.835 4.889-38.807 12.834-38.807 12.834s-1.221 2.139-4.583 3.972c-3.361 1.833-40.334 12.222-40.334 12.222" fill="none"/>
      <path d="M565.805 106.867s7.028 3.056 0 8.25c-7.945 4.583-35.751 13.139-35.751 13.139s-.306 2.444-1.527 3.361c-1.223.917-37.89 13.139-37.89 13.139" fill="none"/>
      <path d="M567.636 115.116s7.334 2.139.917 8.25c-7.639 4.583-32.085 12.834-32.085 12.834s-2.444 3.055-6.417 4.278c-3.973 1.222-29.333 11.611-29.333 11.611" fill="none"/>
      <path d="M569.468 123.367c2.14.917 7.945 1.833.917 7.334-8.249 3.667-28.416 11.611-28.416 11.611l-1.834 3.361-32.083 13.75" fill="none"/>
      <path d="M571.299 131.618s3.055 3.667-3.667 7.945c-7.334 3.972-23.222 10.083-23.222 10.083" fill="none"/>
      <path d="M567.636 140.173s3.361 2.139-.916 5.195c-4.89 2.445-24.139 12.528-24.139 12.528l-12.529 8.25" fill="none"/>
      <path d="M523.629 112.061c0 .306 5.195 4.583 3.361 9.472 4.584 3.361 3.667 7.028 3.667 7.028s6.417 3.667 5.501 8.861c6.417 1.528 6.111 5.195 6.111 5.195l-2.14 3.361s6.417-.306.917 7.945c3.361 1.833 1.834 3.972 1.834 3.972" fill="none"/>
      <path d="M541.04 154.229c-.917 0-22.305 7.945-27.806 12.834" fill="none"/>
      <path d="M489.411 144.757s6.417-.306 5.501 6.722c7.334-2.445 5.805 4.583 5.805 4.583s8.555-3.361 7.028 7.334c5.5-1.222 4.583 4.278 4.583 4.278s4.89-.306 4.89 2.445c3.361-3.056 7.028-1.528 7.028-1.528s2.444-3.361 5.805-2.445" fill="none"/>
      <path d="M495.215 151.174c0 .611-28.723 16.5-28.723 16.5" fill="none"/>
      <path d="M500.709 156.367l-21.695 13.445" fill="none"/>
      <path d="M508.048 163.09c0 .306-18.946 11.306-18.946 11.306" fill="none"/>
      <path d="M512.331 167.368s-13.445 11-16.5 10.389" fill="none"/>
      <path d="M516.909 170.729s-7.639 5.806-14.056 8.556" fill="none"/>
      <path d="M524.854 168.285s2.444 3.056-12.833 11" fill="none"/>
    </g>
  </g>
</svg>
