<?xml version="1.0" encoding="UTF-8" standalone="no"?>
<!-- Generator: Adobe Illustrator 16.0.0, SVG Export Plug-In . SVG Version: 6.00 Build 0)  -->

<svg
   version="1.2"
   id="Eureka_Flag_1_"
   x="0px"
   y="0px"
   width="640"
   height="480"
   viewBox="12 0 640.00003 480"
   xml:space="preserve"
   sodipodi:docname="au-eu.svg"
   inkscape:version="1.2.2 (b0a84865, 2022-12-01)"
   xmlns:inkscape="http://www.inkscape.org/namespaces/inkscape"
   xmlns:sodipodi="http://sodipodi.sourceforge.net/DTD/sodipodi-0.dtd"
   xmlns="http://www.w3.org/2000/svg"
   xmlns:svg="http://www.w3.org/2000/svg"><defs
   id="defs723">
	
	
	
	
	
	
	
	
	
	
	
	
	
</defs><sodipodi:namedview
   id="namedview721"
   pagecolor="#ffffff"
   bordercolor="#666666"
   borderopacity="1.0"
   inkscape:showpageshadow="2"
   inkscape:pageopacity="0.0"
   inkscape:pagecheckerboard="0"
   inkscape:deskcolor="#d1d1d1"
   showgrid="false"
   inkscape:zoom="1.3020833"
   inkscape:cx="313.728"
   inkscape:cy="181.632"
   inkscape:window-width="1440"
   inkscape:window-height="819"
   inkscape:window-x="0"
   inkscape:window-y="25"
   inkscape:window-maximized="0"
   inkscape:current-layer="Eureka_Flag_1_" />
<polygon
   fill="#225d87"
   points="88.923,50 88.923,0 12,0 12,50 "
   id="polygon693"
   style="stroke-width:0.0134487"
   transform="matrix(8.3200083,0,0,9.6,-87.8401,0)" /><g
   id="g867"
   transform="translate(0.0041604,32.003953)"><polygon
     fill="#ffffff"
     points="77.984,28.605 77.984,21.516 22.938,21.516 22.938,28.605 "
     id="polygon695"
     style="stroke-width:0.0144462"
     transform="matrix(8.3200083,0,0,8.3200083,-87.8401,0)" /><polygon
     fill="#ffffff"
     points="54.066,42.908 54.066,7.092 46.975,7.092 46.975,42.908 "
     id="polygon697"
     style="stroke-width:0.0144462"
     transform="matrix(8.3200083,0,0,8.3200083,-87.8401,0)" /><polygon
     fill="#5b667c"
     points="47.396,23.73 45.771,20.311 49.191,21.938 50.461,18.368 51.729,21.938 55.15,20.311 53.523,23.73 57.093,25 53.523,26.27 55.15,29.689 51.729,28.062 50.461,31.632 49.191,28.062 45.771,29.689 47.396,26.27 43.83,25 "
     id="polygon699"
     style="stroke-width:0.0144462"
     transform="matrix(8.3200083,0,0,8.3200083,-87.8401,0)" /><polygon
     fill="#5b667c"
     points="19.873,23.73 18.248,20.311 21.668,21.938 22.938,18.368 24.205,21.938 27.626,20.311 26,23.73 29.568,25 26,26.27 27.626,29.689 24.205,28.062 22.938,31.632 21.668,28.062 18.248,29.689 19.873,26.27 16.306,25 "
     id="polygon701"
     style="stroke-width:0.0144462"
     transform="matrix(8.3200083,0,0,8.3200083,-87.8401,0)" /><polygon
     fill="#5b667c"
     points="74.921,23.73 73.296,20.311 76.716,21.938 77.984,18.368 79.254,21.938 82.674,20.311 81.048,23.73 84.616,25 81.048,26.27 82.674,29.689 79.254,28.062 77.984,31.632 76.716,28.062 73.296,29.689 74.921,26.27 71.354,25 "
     id="polygon703"
     style="stroke-width:0.0144462"
     transform="matrix(8.3200083,0,0,8.3200083,-87.8401,0)" /><polygon
     fill="#5b667c"
     points="47.396,5.822 45.771,2.402 49.191,4.027 50.461,0.46 51.729,4.027 55.15,2.402 53.523,5.822 57.093,7.092 53.523,8.359 55.15,11.78 51.729,10.154 50.461,13.723 49.191,10.154 45.771,11.78 47.396,8.359 43.83,7.092 "
     id="polygon705"
     style="stroke-width:0.0144462"
     transform="matrix(8.3200083,0,0,8.3200083,-87.8401,0)" /><polygon
     fill="#5b667c"
     points="47.396,41.641 45.771,38.219 49.191,39.845 50.461,36.277 51.729,39.845 55.15,38.219 53.523,41.641 57.093,42.908 53.523,44.177 55.15,47.598 51.729,45.973 50.461,49.539 49.191,45.973 45.771,47.598 47.396,44.177 43.83,42.908 "
     id="polygon707"
     style="stroke-width:0.0144462"
     transform="matrix(8.3200083,0,0,8.3200083,-87.8401,0)" /><polygon
     fill="#ffffff"
     points="47.797,23.896 46.383,20.923 49.357,22.336 50.461,19.232 51.564,22.336 54.539,20.923 53.125,23.896 56.229,25 53.125,26.104 54.539,29.078 51.564,27.664 50.461,30.768 49.357,27.664 46.383,29.078 47.797,26.104 44.693,25 "
     id="polygon709"
     style="stroke-width:0.0144462"
     transform="matrix(8.3200083,0,0,8.3200083,-87.8401,0)" /><polygon
     fill="#ffffff"
     points="20.274,23.896 18.859,20.923 21.834,22.336 22.938,19.232 24.041,22.336 27.015,20.923 25.601,23.896 28.703,25 25.601,26.104 27.015,29.078 24.041,27.664 22.938,30.768 21.834,27.664 18.859,29.078 20.274,26.104 17.17,25 "
     id="polygon711"
     style="stroke-width:0.0144462"
     transform="matrix(8.3200083,0,0,8.3200083,-87.8401,0)" /><polygon
     fill="#ffffff"
     points="75.32,23.896 73.906,20.923 76.882,22.336 77.984,19.232 79.089,22.336 82.062,20.923 80.648,23.896 83.751,25 80.648,26.104 82.062,29.078 79.089,27.664 77.984,30.768 76.882,27.664 73.906,29.078 75.32,26.104 72.218,25 "
     id="polygon713"
     style="stroke-width:0.0144462"
     transform="matrix(8.3200083,0,0,8.3200083,-87.8401,0)" /><polygon
     fill="#ffffff"
     points="47.797,5.988 46.383,3.014 49.357,4.428 50.461,1.324 51.564,4.428 54.539,3.014 53.125,5.988 56.229,7.092 53.125,8.195 54.539,11.169 51.564,9.755 50.461,12.857 49.357,9.755 46.383,11.169 47.797,8.195 44.693,7.092 "
     id="polygon715"
     style="stroke-width:0.0144462"
     transform="matrix(8.3200083,0,0,8.3200083,-87.8401,0)" /><polygon
     fill="#ffffff"
     points="47.797,41.805 46.383,38.83 49.357,40.244 50.461,37.143 51.564,40.244 54.539,38.83 53.125,41.805 56.229,42.908 53.125,44.012 54.539,46.986 51.564,45.572 50.461,48.676 49.357,45.572 46.383,46.986 47.797,44.012 44.693,42.908 "
     id="polygon717"
     style="stroke-width:0.0144462"
     transform="matrix(8.3200083,0,0,8.3200083,-87.8401,0)" /></g>
</svg>
