<svg xmlns="http://www.w3.org/2000/svg" height="480" width="640" version="1">
  <g>
    <path fill="#006" d="M0 0h640v480h-640z"/>
    <g>
      <path d="M0 0v27.951l307.037 222.049h38.647v-27.95l-307.037-222.049h-38.647zm345.684 0v27.95l-307.037 222.049h-38.647v-27.95l307.037-222.049h38.647z" fill="#fff"/>
      <path d="M144.035 0v249.999h57.614v-249.999h-57.614zm-144.035 83.333v83.333h345.684v-83.333h-345.684z" fill="#fff"/>
      <path d="M0 100v50h345.684v-50h-345.684zm155.558-100v249.999h34.568v-249.999h-34.568z" fill="#c00"/>
      <path d="M0 249.999l115.228-83.333h25.765l-115.228 83.333h-25.765zm0-249.999l115.228 83.333h-25.765l-89.463-64.699v-18.634zm204.691 83.333l115.228-83.333h25.765l-115.228 83.333h-25.765zm140.993 166.666l-115.228-83.333h25.765l89.463 64.7v18.633z" fill="#c00"/>
    </g>
    <g fill-rule="evenodd" fill="#fff">
      <path d="M299.752 392.511l-43.651 3.795 6.014 43.404-30.186-31.763-30.186 31.763 6.014-43.404-43.651-3.795 37.676-22.363-24.241-36.493 40.969 15.514 13.419-41.711 13.419 41.711 40.969-15.514-24.241 36.493z"/>
      <g>
        <path d="M486.492 432.508l-10.536-15.853 17.806 6.742 5.825-18.124 5.825 18.124 17.806-6.742-10.536 15.853 16.368 9.718-18.963 1.65 2.616 18.85-13.117-13.794-13.117 13.794 2.616-18.85-18.963-1.65z"/>
        <path d="M486.492 150.429l-10.536-15.855 17.806 6.742 5.825-18.121 5.825 18.121 17.806-6.742-10.536 15.855 16.368 9.716-18.963 1.65 2.616 18.85-13.117-13.794-13.117 13.794 2.616-18.85-18.963-1.65z"/>
        <path d="M380.712 265.023l-10.536-15.853 17.806 6.742 5.825-18.124 5.825 18.124 17.806-6.742-10.536 15.853 16.368 9.718-18.963 1.65 2.616 18.85-13.117-13.794-13.117 13.794 2.616-18.85-18.963-1.65z"/>
        <path d="M580.545 236.815l-10.557-15.853 17.82 6.742 5.783-18.124 5.853 18.124 17.771-6.742-10.507 15.853 16.361 9.718-18.97 1.65 2.609 18.85-13.117-13.794-13.117 13.794 2.609-18.85-18.935-1.65z"/>
        <path d="M541.9 319.923l-10.366 6.424 2.912-11.84-9.316-7.863 12.165-.896 4.605-11.29 4.605 11.29 12.165.896-9.316 7.863 2.912 11.84z"/>
      </g>
    </g>
  </g>
</svg>
