<svg xmlns="http://www.w3.org/2000/svg" height="480" width="640"><defs><clipPath id="a"><rect fill-opacity=".67" height="216" width="288"/></clipPath></defs><g><g clip-path="url(#a)"><path fill="#39c" d="M0 0v479.995h719.993v-479.995h-719.993z"/><path fill="#ff0" d="M0 319.997v26.666h719.993v-26.666h-719.993z"/><path fill="#ff0" d="M0 373.33v26.666h719.993v-26.666h-719.993z"/></g><g><path fill="#9cc" d="M142.647 28.067l2.952 2.952-2.952-2.952z"/><path fill="#9cc" d="M139.695 33.971l2.952 2.952-2.952-2.952m5.904 0l2.952 2.952-2.952-2.952z"/><path fill="#ccf" d="M139.695 36.923l2.952 2.952-2.952-2.952m5.904 0l2.952 2.952-2.952-2.952z"/><path fill="#6cc" d="M136.743 42.827l2.952 2.952-2.952-2.952z"/><path fill="#c66" d="M142.647 42.827l2.952 2.952-2.952-2.952z"/><path fill="#6cc" d="M148.551 42.827l2.952 2.952-2.952-2.952z"/><path fill="#ccf" d="M136.743 45.779l2.952 2.952-2.952-2.952z"/><path fill="#ccf" d="M148.551 45.779l2.952 2.952-2.952-2.952z"/><path fill="#fcc" d="M139.695 48.731l2.952 2.952-2.952-2.952m5.904 0l2.952 2.952-2.952-2.952z"/><path fill="#6cc" d="M133.791 51.684l2.952 2.952-2.952-2.952z"/><path d="M47.835 14.032l-7.01 26.574-26.652 7.238 26.575 6.936 7.087 26.574 7.086-26.574 26.575-7.087-26.575-7.087-7.086-26.574z" stroke="#fff" stroke-width="1.25" fill="#c00" transform="matrix(2.952 0 0 2.952 .946 -7.359)"/><path fill="#6cc" d="M151.498 51.681l2.952 2.952-2.952-2.952z"/><path fill="#9cf" d="M133.786 54.633l2.952 2.952-2.952-2.952m17.712 0l2.952 2.952-2.952-2.952z"/><path fill="#fcc" d="M136.738 57.585l2.952 2.952-2.952-2.952m11.808 0l2.952 2.952-2.952-2.952z"/><path fill="#69c" d="M130.834 60.537l2.952 2.952-2.952-2.952z"/><path fill="#c33" d="M137.721 62.506l.984 1.968-.984-1.968m11.808 0l.984 1.968-.984-1.968z"/><path fill="#69c" d="M154.45 60.537l2.952 2.952-2.952-2.952z"/><path fill="#9cf" d="M130.834 63.489l2.952 2.952-2.952-2.952m23.616 0l2.952 2.952-2.952-2.952z"/><path fill="#fcc" d="M133.786 66.441l2.952 2.952-2.952-2.952m17.712 0l2.952 2.952-2.952-2.952z"/><path fill="#69c" d="M127.882 69.393l2.952 2.952-2.952-2.952z"/><path fill="#69c" d="M157.402 69.393l2.952 2.952-2.952-2.952z"/><path fill="#9cc" d="M127.882 72.345l2.952 2.952-2.952-2.952m29.52 0l2.952 2.952-2.952-2.952z"/><path fill="#cff" d="M127.882 75.297l2.952 2.952-2.952-2.952m29.52 0l2.952 2.952-2.952-2.952z"/><path fill="#69c" d="M124.93 78.249l2.952 2.952-2.952-2.952z"/><path fill="#fcc" d="M130.834 78.249l2.952 2.952-2.952-2.952m23.616 0l2.952 2.952-2.952-2.952z"/><path fill="#69c" d="M160.354 78.249l2.952 2.952-2.952-2.952z"/><path fill="#9cc" d="M124.93 81.201l2.952 2.952-2.952-2.952z"/><path fill="#c33" d="M131.817 83.17l.984 1.968-.984-1.968m23.616 0l.984 1.968-.984-1.968z"/><path fill="#9cc" d="M160.354 81.201l2.952 2.952-2.952-2.952z"/><path fill="#cff" d="M124.93 84.153l2.952 2.952-2.952-2.952m35.424 0l2.952 2.952-2.952-2.952z"/><path fill="#fcc" d="M127.882 87.105l2.952 2.952-2.952-2.952m29.52 0l2.952 2.952-2.952-2.952z"/><path fill="#9cc" d="M121.978 90.057l2.952 2.952-2.952-2.952z"/><path fill="#c33" d="M128.865 92.026l.984 1.968-.984-1.968m29.52 0l.984 1.968-.984-1.968z"/><path fill="#9cc" d="M163.306 90.057l2.952 2.952-2.952-2.952z"/><path fill="#ccf" d="M121.978 93.009l2.952 2.952-2.952-2.952m41.328 0l2.952 2.952-2.952-2.952z"/><path fill="#fcc" d="M124.93 95.961l2.952 2.952-2.952-2.952m35.424 0l2.952 2.952-2.952-2.952z"/><path fill="#9cc" d="M119.026 98.913l2.952 2.952-2.952-2.952z"/><path fill="#c33" d="M125.913 100.882l.984 1.968-.984-1.968m35.424 0l.984 1.968-.984-1.968z"/><path fill="#9cc" d="M166.258 98.913l2.952 2.952-2.952-2.952z"/><path fill="#ccf" d="M119.026 101.865l2.952 2.952-2.952-2.952m47.232 0l2.952 2.952-2.952-2.952z"/><path fill="#fcc" d="M121.978 104.817l2.952 2.952-2.952-2.952m41.328 0l2.952 2.952-2.952-2.952z"/><path fill="#9cc" d="M116.074 107.769l2.952 2.952-2.952-2.952z"/><path fill="#c33" d="M121.978 107.769l2.952 2.952-2.952-2.952m41.328 0l2.952 2.952-2.952-2.952z"/><path fill="#9cc" d="M169.21 107.769l2.952 2.952-2.952-2.952m-61.992 2.952l2.952 2.952-2.952-2.952z"/><path fill="#ccf" d="M110.17 110.721l2.952 2.952-2.952-2.952m64.944 0l2.952 2.952-2.952-2.952z"/><path fill="#9cc" d="M178.066 110.721l2.952 2.952-2.952-2.952m-79.704 2.952l2.952 2.952-2.952-2.952z"/><path fill="#ccf" d="M101.314 113.673l2.952 2.952-2.952-2.952z"/><path fill="#fcc" d="M113.122 113.673l2.952 2.952-2.952-2.952z"/><path fill="#c33" d="M116.074 113.673l2.952 2.952-2.952-2.952m53.136 0l2.952 2.952-2.952-2.952z"/><path fill="#fcc" d="M172.162 113.673l2.952 2.952-2.952-2.952z"/><path fill="#ccf" d="M183.97 113.673l2.952 2.952-2.952-2.952z"/><path fill="#9cc" d="M186.922 113.673l2.952 2.952-2.952-2.952z"/><path fill="#69c" d="M86.554 116.625l2.952 2.952-2.952-2.952z"/><path fill="#9cc" d="M89.506 116.625l2.952 2.952-2.952-2.952z"/><path fill="#cff" d="M92.458 116.625l2.952 2.952-2.952-2.952z"/><path fill="#fcc" d="M104.266 116.625l2.952 2.952-2.952-2.952z"/><path fill="#c33" d="M109.187 117.608l1.968.984-1.968-.984m67.896 0l1.968.984-1.968-.984z"/><path fill="#fcc" d="M181.018 116.625l2.952 2.952-2.952-2.952z"/><path fill="#cff" d="M192.826 116.625l2.952 2.952-2.952-2.952z"/><path fill="#9cc" d="M195.778 116.625l2.952 2.952-2.952-2.952z"/><path fill="#69c" d="M198.73 116.625l2.952 2.952-2.952-2.952m-121.032 2.952l2.952 2.952-2.952-2.952z"/><path fill="#9cc" d="M80.65 119.577l2.952 2.952-2.952-2.952z"/><path fill="#cff" d="M83.602 119.577l2.952 2.952-2.952-2.952z"/><path fill="#fcc" d="M95.41 119.577l2.952 2.952-2.952-2.952z"/><path fill="#c33" d="M100.331 120.56l1.968.984-1.968-.984m85.608 0l1.968.984-1.968-.984z"/><path fill="#fcc" d="M189.874 119.577l2.952 2.952-2.952-2.952z"/><path fill="#cff" d="M201.682 119.577l2.952 2.952-2.952-2.952z"/><path fill="#9cc" d="M204.634 119.577l2.952 2.952-2.952-2.952z"/><path fill="#69c" d="M207.586 119.577l2.952 2.952-2.952-2.952m-138.744 2.952l2.952 2.952-2.952-2.952z"/><path fill="#9cf" d="M71.794 122.529l2.952 2.952-2.952-2.952z"/><path fill="#fcc" d="M86.554 122.529l2.952 2.952-2.952-2.952z"/><path fill="#c33" d="M91.475 123.512l1.968.984-1.968-.984m103.32 0l1.968.984-1.968-.984z"/><path fill="#fcc" d="M198.73 122.529l2.952 2.952-2.952-2.952z"/><path fill="#9cf" d="M213.49 122.529l2.952 2.952-2.952-2.952z"/><path fill="#69c" d="M216.442 122.529l2.952 2.952-2.952-2.952z"/><path fill="#6cc" d="M59.986 125.481l2.952 2.952-2.952-2.952z"/><path fill="#9cf" d="M62.938 125.481l2.952 2.952-2.952-2.952z"/><path fill="#fcc" d="M74.746 125.481l2.952 2.952-2.952-2.952z"/><path fill="#fcc" d="M210.538 125.481l2.952 2.952-2.952-2.952z"/><path fill="#9cf" d="M222.346 125.481l2.952 2.952-2.952-2.952z"/><path fill="#6cc" d="M225.298 125.481l2.952 2.952-2.952-2.952m-174.168 2.952l2.952 2.952-2.952-2.952z"/><path fill="#ccf" d="M54.082 128.433l2.952 2.952-2.952-2.952z"/><path fill="#fcc" d="M65.89 128.433l2.952 2.952-2.952-2.952z"/><path fill="#c33" d="M70.811 129.416l1.968.984-1.968-.984m144.648 0l1.968.984-1.968-.984z"/><path fill="#fcc" d="M219.394 128.433l2.952 2.952-2.952-2.952z"/><path fill="#ccf" d="M231.202 128.433l2.952 2.952-2.952-2.952z"/><path fill="#6cc" d="M234.154 128.433l2.952 2.952-2.952-2.952z"/><path fill="#9cc" d="M42.274 131.385l2.952 2.952-2.952-2.952z"/><path fill="#ccf" d="M45.226 131.385l2.952 2.952-2.952-2.952z"/><path fill="#fcc" d="M57.034 131.385l2.952 2.952-2.952-2.952z"/><path fill="#fcc" d="M228.25 131.385l2.952 2.952-2.952-2.952z"/><path fill="#ccf" d="M240.058 131.385l2.952 2.952-2.952-2.952z"/><path fill="#9cc" d="M243.01 131.385l2.952 2.952-2.952-2.952m-206.64 2.952l2.952 2.952-2.952-2.952z"/><path fill="#c66" d="M51.13 134.337l2.952 2.952-2.952-2.952z"/><path fill="#c66" d="M234.154 134.337l2.952 2.952-2.952-2.952z"/><path fill="#9cc" d="M248.914 134.337l2.952 2.952-2.952-2.952m-206.64 2.952l2.952 2.952-2.952-2.952z"/><path fill="#ccf" d="M45.226 137.289l2.952 2.952-2.952-2.952z"/><path fill="#fcc" d="M57.034 137.289l2.952 2.952-2.952-2.952m171.216 0l2.952 2.952-2.952-2.952z"/><path fill="#ccf" d="M240.058 137.289l2.952 2.952-2.952-2.952z"/><path fill="#9cc" d="M243.01 137.289l2.952 2.952-2.952-2.952z"/><path fill="#6cc" d="M51.13 140.241l2.952 2.952-2.952-2.952z"/><path fill="#ccf" d="M54.082 140.241l2.952 2.952-2.952-2.952z"/><path fill="#fcc" d="M65.89 140.241l2.952 2.952-2.952-2.952z"/><path fill="#c33" d="M70.811 141.224l1.968.984-1.968-.984m144.648 0l1.968.984-1.968-.984z"/><path fill="#fcc" d="M219.394 140.241l2.952 2.952-2.952-2.952z"/><path fill="#ccf" d="M231.202 140.241l2.952 2.952-2.952-2.952z"/><path fill="#6cc" d="M234.154 140.241l2.952 2.952-2.952-2.952m-174.168 2.952l2.952 2.952-2.952-2.952z"/><path fill="#9cf" d="M62.938 143.193l2.952 2.952-2.952-2.952z"/><path fill="#fcc" d="M74.746 143.193l2.952 2.952-2.952-2.952z"/><path fill="#fcc" d="M210.538 143.193l2.952 2.952-2.952-2.952z"/><path fill="#9cf" d="M222.346 143.193l2.952 2.952-2.952-2.952z"/><path fill="#6cc" d="M225.298 143.193l2.952 2.952-2.952-2.952z"/><path fill="#69c" d="M68.842 146.145l2.952 2.952-2.952-2.952z"/><path fill="#9cf" d="M71.794 146.145l2.952 2.952-2.952-2.952z"/><path fill="#fcc" d="M86.554 146.145l2.952 2.952-2.952-2.952z"/><path fill="#c33" d="M91.475 147.128l1.968.984-1.968-.984m103.32 0l1.968.984-1.968-.984z"/><path fill="#fcc" d="M198.73 146.145l2.952 2.952-2.952-2.952z"/><path fill="#9cf" d="M213.49 146.145l2.952 2.952-2.952-2.952z"/><path fill="#69c" d="M216.442 146.145l2.952 2.952-2.952-2.952m-138.744 2.952l2.952 2.952-2.952-2.952z"/><path fill="#9cc" d="M80.65 149.097l2.952 2.952-2.952-2.952z"/><path fill="#cff" d="M83.602 149.097l2.952 2.952-2.952-2.952z"/><path fill="#fcc" d="M95.41 149.097l2.952 2.952-2.952-2.952z"/><path fill="#c33" d="M100.331 150.08l1.968.984-1.968-.984m85.608 0l1.968.984-1.968-.984z"/><path fill="#fcc" d="M189.874 149.097l2.952 2.952-2.952-2.952z"/><path fill="#cff" d="M201.682 149.097l2.952 2.952-2.952-2.952z"/><path fill="#9cc" d="M204.634 149.097l2.952 2.952-2.952-2.952z"/><path fill="#69c" d="M207.586 149.097l2.952 2.952-2.952-2.952m-121.032 2.952l2.952 2.952-2.952-2.952z"/><path fill="#9cc" d="M89.506 152.049l2.952 2.952-2.952-2.952z"/><path fill="#cff" d="M92.458 152.049l2.952 2.952-2.952-2.952z"/><path fill="#fcc" d="M104.266 152.049l2.952 2.952-2.952-2.952z"/><path fill="#c33" d="M109.187 153.032l1.968.984-1.968-.984m67.896 0l1.968.984-1.968-.984z"/><path fill="#fcc" d="M181.018 152.049l2.952 2.952-2.952-2.952z"/><path fill="#cff" d="M192.826 152.049l2.952 2.952-2.952-2.952z"/><path fill="#9cc" d="M195.778 152.049l2.952 2.952-2.952-2.952z"/><path fill="#69c" d="M198.73 152.049l2.952 2.952-2.952-2.952z"/><path fill="#9cc" d="M98.362 155.001l2.952 2.952-2.952-2.952z"/><path fill="#ccf" d="M101.314 155.001l2.952 2.952-2.952-2.952z"/><path fill="#fcc" d="M113.122 155.001l2.952 2.952-2.952-2.952z"/><path fill="#c33" d="M116.074 155.001l2.952 2.952-2.952-2.952m53.136 0l2.952 2.952-2.952-2.952z"/><path fill="#fcc" d="M172.162 155.001l2.952 2.952-2.952-2.952z"/><path fill="#ccf" d="M183.97 155.001l2.952 2.952-2.952-2.952z"/><path fill="#9cc" d="M186.922 155.001l2.952 2.952-2.952-2.952m-79.704 2.952l2.952 2.952-2.952-2.952z"/><path fill="#ccf" d="M110.17 157.953l2.952 2.952-2.952-2.952m64.944 0l2.952 2.952-2.952-2.952z"/><path fill="#9cc" d="M178.066 157.953l2.952 2.952-2.952-2.952m-61.992 2.952l2.952 2.952-2.952-2.952z"/><path fill="#c33" d="M121.978 160.905l2.952 2.952-2.952-2.952m41.328 0l2.952 2.952-2.952-2.952z"/><path fill="#9cc" d="M169.21 160.905l2.952 2.952-2.952-2.952z"/><path fill="#fcc" d="M121.978 163.857l2.952 2.952-2.952-2.952m41.328 0l2.952 2.952-2.952-2.952z"/><path fill="#ccf" d="M119.026 166.809l2.952 2.952-2.952-2.952z"/><path fill="#c33" d="M125.913 168.778l.984 1.968-.984-1.968m35.424 0l.984 1.968-.984-1.968z"/><path fill="#ccf" d="M166.258 166.809l2.952 2.952-2.952-2.952z"/><path fill="#9cc" d="M119.026 169.761l2.952 2.952-2.952-2.952m47.232 0l2.952 2.952-2.952-2.952z"/><path fill="#fcc" d="M124.93 172.713l2.952 2.952-2.952-2.952m35.424 0l2.952 2.952-2.952-2.952z"/><path fill="#ccf" d="M121.978 175.665l2.952 2.952-2.952-2.952z"/><path fill="#c33" d="M128.865 177.634l.984 1.968-.984-1.968m29.52 0l.984 1.968-.984-1.968z"/><path fill="#ccf" d="M163.306 175.665l2.952 2.952-2.952-2.952z"/><path fill="#9cc" d="M121.978 178.617l2.952 2.952-2.952-2.952m41.328 0l2.952 2.952-2.952-2.952z"/><path fill="#fcc" d="M127.882 181.569l2.952 2.952-2.952-2.952m29.52 0l2.952 2.952-2.952-2.952z"/><path fill="#cff" d="M124.93 184.521l2.952 2.952-2.952-2.952z"/><path fill="#c33" d="M131.817 186.49l.984 1.968-.984-1.968m23.616 0l.984 1.968-.984-1.968z"/><path fill="#cff" d="M160.354 184.521l2.952 2.952-2.952-2.952z"/><path fill="#9cc" d="M124.93 187.473l2.952 2.952-2.952-2.952m35.424 0l2.952 2.952-2.952-2.952z"/><path fill="#69c" d="M124.93 190.425l2.952 2.952-2.952-2.952z"/><path fill="#fcc" d="M130.834 190.425l2.952 2.952-2.952-2.952m23.616 0l2.952 2.952-2.952-2.952z"/><path fill="#69c" d="M160.354 190.425l2.952 2.952-2.952-2.952z"/><path fill="#cff" d="M127.882 193.377l2.952 2.952-2.952-2.952z"/><path fill="#cff" d="M157.402 193.377l2.952 2.952-2.952-2.952z"/><path fill="#9cc" d="M127.882 196.329l2.952 2.952-2.952-2.952m29.52 0l2.952 2.952-2.952-2.952z"/><path fill="#69c" d="M127.882 199.281l2.952 2.952-2.952-2.952m29.52 0l2.952 2.952-2.952-2.952z"/><path fill="#fcc" d="M133.786 202.233l2.952 2.952-2.952-2.952m17.712 0l2.952 2.952-2.952-2.952z"/><path fill="#9cf" d="M130.834 205.185l2.952 2.952-2.952-2.952z"/><path fill="#c33" d="M137.721 207.154l.984 1.968-.984-1.968m11.808 0l.984 1.968-.984-1.968z"/><path fill="#9cf" d="M154.45 205.185l2.952 2.952-2.952-2.952z"/><path fill="#69c" d="M130.834 208.137l2.952 2.952-2.952-2.952m23.616 0l2.952 2.952-2.952-2.952z"/><path fill="#fcc" d="M136.738 211.089l2.952 2.952-2.952-2.952m11.808 0l2.952 2.952-2.952-2.952z"/><path fill="#9cf" d="M133.786 214.041l2.952 2.952-2.952-2.952z"/><path fill="#9cf" d="M151.498 214.041l2.952 2.952-2.952-2.952z"/><path fill="#6cc" d="M133.786 216.993l2.952 2.952-2.952-2.952m17.712 0l2.952 2.952-2.952-2.952z"/><path fill="#fcc" d="M139.69 219.945l2.952 2.952-2.952-2.952m5.904 0l2.952 2.952-2.952-2.952z"/><path fill="#ccf" d="M136.738 222.897l2.952 2.952-2.952-2.952m11.808 0l2.952 2.952-2.952-2.952z"/><path fill="#6cc" d="M136.738 225.849l2.952 2.952-2.952-2.952z"/><path fill="#c66" d="M142.642 225.849l2.952 2.952-2.952-2.952z"/><path fill="#6cc" d="M148.546 225.849l2.952 2.952-2.952-2.952z"/><path fill="#ccf" d="M139.69 231.753l2.952 2.952-2.952-2.952m5.904 0l2.952 2.952-2.952-2.952z"/><path fill="#9cc" d="M139.69 234.705l2.952 2.952-2.952-2.952m5.904 0l2.952 2.952-2.952-2.952m-2.952 5.904l2.952 2.952-2.952-2.952z"/></g></g></svg>