<svg xmlns="http://www.w3.org/2000/svg" height="480" width="640">
  <g>
    <g clip-path="url(#a)">
      <path fill="#39c" d="M0 0v479.995h719.993v-479.995h-719.993z"/>
      <path fill="#ff0" d="M0 319.997v26.666h719.993v-26.666h-719.993z"/>
      <path fill="#ff0" d="M0 373.33v26.666h719.993v-26.666h-719.993z"/>
    </g>
    <g>
      <path fill="#9cc" d="M142.647 28.067l2.952 2.952-2.952-2.952z"/>
      <path fill="#9cc" d="M139.695 33.971l2.952 2.952-2.952-2.952m5.904 0l2.952 2.952-2.952-2.952z"/>
      <path fill="#ccf" d="M139.695 36.923l2.952 2.952-2.952-2.952m5.904 0l2.952 2.952-2.952-2.952z"/>
      <path fill="#6cc" d="M136.743 42.827l2.952 2.952-2.952-2.952z"/>
      <path fill="#c66" d="M142.647 42.827l2.952 2.952-2.952-2.952z"/>
      <path fill="#6cc" d="M148.551 42.827l2.952 2.952-2.952-2.952z"/>
      <path fill="#ccf" d="M136.743 45.779l2.952 2.952-2.952-2.952z"/>
      <path fill="#ccf" d="M148.551 45.779l2.952 2.952-2.952-2.952z"/>
      <path fill="#fcc" d="M139.695 48.731l2.952 2.952-2.952-2.952m5.904 0l2.952 2.952-2.952-2.952z"/>
      <path fill="#6cc" d="M133.791 51.684l2.952 2.952-2.952-2.952z"/>
      <path d="M142.16 34.065l-20.694 78.449-78.679 21.367 78.452 20.476 20.922 78.449 20.919-78.449 78.452-20.922-78.452-20.922-20.919-78.449z" stroke="#fff" stroke-width="3.69" fill="#c00"/>
      <path fill="#6cc" d="M151.503 51.684l2.952 2.952-2.952-2.952z"/>
      <path fill="#9cf" d="M133.791 54.636l2.952 2.952-2.952-2.952m17.713 0l2.952 2.952-2.952-2.952z"/>
      <path fill="#fcc" d="M136.743 57.588l2.952 2.952-2.952-2.952m11.808 0l2.952 2.952-2.952-2.952z"/>
      <path fill="#69c" d="M130.838 60.54l2.952 2.952-2.952-2.952z"/>
      <path fill="#c33" d="M137.726 62.509l.984 1.968-.984-1.968m11.808 0l.984 1.968-.984-1.968z"/>
      <path fill="#69c" d="M154.455 60.54l2.952 2.952-2.952-2.952z"/>
      <path fill="#9cf" d="M130.838 63.492l2.952 2.952-2.952-2.952m23.617 0l2.952 2.952-2.952-2.952z"/>
      <path fill="#fcc" d="M133.791 66.444l2.952 2.952-2.952-2.952m17.713 0l2.952 2.952-2.952-2.952z"/>
      <path fill="#69c" d="M127.886 69.396l2.952 2.952-2.952-2.952z"/>
      <path fill="#69c" d="M157.407 69.396l2.952 2.952-2.952-2.952z"/>
      <path fill="#9cc" d="M127.886 72.348l2.952 2.952-2.952-2.952m29.521 0l2.952 2.952-2.952-2.952z"/>
      <path fill="#cff" d="M127.886 75.3l2.952 2.952-2.952-2.952m29.521 0l2.952 2.952-2.952-2.952z"/>
      <path fill="#69c" d="M124.934 78.252l2.952 2.952-2.952-2.952z"/>
      <path fill="#fcc" d="M130.838 78.252l2.952 2.952-2.952-2.952m23.617 0l2.952 2.952-2.952-2.952z"/>
      <path fill="#69c" d="M160.359 78.252l2.952 2.952-2.952-2.952z"/>
      <path fill="#9cc" d="M124.934 81.204l2.952 2.952-2.952-2.952z"/>
      <path fill="#c33" d="M131.821 83.174l.984 1.968-.984-1.968m23.617 0l.984 1.968-.984-1.968z"/>
      <path fill="#9cc" d="M160.359 81.204l2.952 2.952-2.952-2.952z"/>
      <path fill="#cff" d="M124.934 84.157l2.952 2.952-2.952-2.952m35.425 0l2.952 2.952-2.952-2.952z"/>
      <path fill="#fcc" d="M127.886 87.109l2.952 2.952-2.952-2.952m29.521 0l2.952 2.952-2.952-2.952z"/>
      <path fill="#9cc" d="M121.982 90.061l2.952 2.952-2.952-2.952z"/>
      <path fill="#c33" d="M128.869 92.03l.984 1.968-.984-1.968m29.521 0l.984 1.968-.984-1.968z"/>
      <path fill="#9cc" d="M163.311 90.061l2.952 2.952-2.952-2.952z"/>
      <path fill="#ccf" d="M121.982 93.013l2.952 2.952-2.952-2.952m41.329 0l2.952 2.952-2.952-2.952z"/>
      <path fill="#fcc" d="M124.934 95.965l2.952 2.952-2.952-2.952m35.425 0l2.952 2.952-2.952-2.952z"/>
      <path fill="#9cc" d="M119.03 98.917l2.952 2.952-2.952-2.952z"/>
      <path fill="#c33" d="M125.917 100.886l.984 1.968-.984-1.968m35.425 0l.984 1.968-.984-1.968z"/>
      <path fill="#9cc" d="M166.264 98.917l2.952 2.952-2.952-2.952z"/>
      <path fill="#ccf" d="M119.03 101.869l2.952 2.952-2.952-2.952m47.234 0l2.952 2.952-2.952-2.952z"/>
      <path fill="#fcc" d="M121.982 104.821l2.952 2.952-2.952-2.952m41.329 0l2.952 2.952-2.952-2.952z"/>
      <path fill="#9cc" d="M116.078 107.773l2.952 2.952-2.952-2.952z"/>
      <path fill="#c33" d="M121.982 107.773l2.952 2.952-2.952-2.952m41.329 0l2.952 2.952-2.952-2.952z"/>
      <path fill="#9cc" d="M169.216 107.773l2.952 2.952-2.952-2.952m-61.994 2.952l2.952 2.952-2.952-2.952z"/>
      <path fill="#ccf" d="M110.174 110.725l2.952 2.952-2.952-2.952m64.946 0l2.952 2.952-2.952-2.952z"/>
      <path fill="#9cc" d="M178.072 110.725l2.952 2.952-2.952-2.952m-79.707 2.952l2.952 2.952-2.952-2.952z"/>
      <path fill="#ccf" d="M101.317 113.678l2.952 2.952-2.952-2.952z"/>
      <path fill="#fcc" d="M113.126 113.678l2.952 2.952-2.952-2.952z"/>
      <path fill="#c33" d="M116.078 113.678l2.952 2.952-2.952-2.952m53.138 0l2.952 2.952-2.952-2.952z"/>
      <path fill="#fcc" d="M172.168 113.678l2.952 2.952-2.952-2.952z"/>
      <path fill="#ccf" d="M183.976 113.678l2.952 2.952-2.952-2.952z"/>
      <path fill="#9cc" d="M186.928 113.678l2.952 2.952-2.952-2.952z"/>
      <path fill="#69c" d="M86.557 116.63l2.952 2.952-2.952-2.952z"/>
      <path fill="#9cc" d="M89.509 116.63l2.952 2.952-2.952-2.952z"/>
      <path fill="#cff" d="M92.461 116.63l2.952 2.952-2.952-2.952z"/>
      <path fill="#fcc" d="M104.27 116.63l2.952 2.952-2.952-2.952z"/>
      <path fill="#c33" d="M109.191 117.613l1.968.984-1.968-.984m67.898 0l1.968.984-1.968-.984z"/>
      <path fill="#fcc" d="M181.024 116.63l2.952 2.952-2.952-2.952z"/>
      <path fill="#cff" d="M192.833 116.63l2.952 2.952-2.952-2.952z"/>
      <path fill="#9cc" d="M195.785 116.63l2.952 2.952-2.952-2.952z"/>
      <path fill="#69c" d="M198.737 116.63l2.952 2.952-2.952-2.952m-121.036 2.952l2.952 2.952-2.952-2.952z"/>
      <path fill="#9cc" d="M80.653 119.582l2.952 2.952-2.952-2.952z"/>
      <path fill="#cff" d="M83.605 119.582l2.952 2.952-2.952-2.952z"/>
      <path fill="#fcc" d="M95.413 119.582l2.952 2.952-2.952-2.952z"/>
      <path fill="#c33" d="M100.334 120.565l1.968.984-1.968-.984m85.611 0l1.968.984-1.968-.984z"/>
      <path fill="#fcc" d="M189.88 119.582l2.952 2.952-2.952-2.952z"/>
      <path fill="#cff" d="M201.689 119.582l2.952 2.952-2.952-2.952z"/>
      <path fill="#9cc" d="M204.641 119.582l2.952 2.952-2.952-2.952z"/>
      <path fill="#69c" d="M207.593 119.582l2.952 2.952-2.952-2.952m-138.749 2.952l2.952 2.952-2.952-2.952z"/>
      <path fill="#9cf" d="M71.796 122.534l2.952 2.952-2.952-2.952z"/>
      <path fill="#fcc" d="M86.557 122.534l2.952 2.952-2.952-2.952z"/>
      <path fill="#c33" d="M91.478 123.517l1.968.984-1.968-.984m103.324 0l1.968.984-1.968-.984z"/>
      <path fill="#fcc" d="M198.737 122.534l2.952 2.952-2.952-2.952z"/>
      <path fill="#9cf" d="M213.497 122.534l2.952 2.952-2.952-2.952z"/>
      <path fill="#69c" d="M216.449 122.534l2.952 2.952-2.952-2.952z"/>
      <path fill="#6cc" d="M59.988 125.486l2.952 2.952-2.952-2.952z"/>
      <path fill="#9cf" d="M62.94 125.486l2.952 2.952-2.952-2.952z"/>
      <path fill="#fcc" d="M74.749 125.486l2.952 2.952-2.952-2.952z"/>
      <path fill="#fcc" d="M210.545 125.486l2.952 2.952-2.952-2.952z"/>
      <path fill="#9cf" d="M222.353 125.486l2.952 2.952-2.952-2.952z"/>
      <path fill="#6cc" d="M225.306 125.486l2.952 2.952-2.952-2.952m-174.174 2.952l2.952 2.952-2.952-2.952z"/>
      <path fill="#ccf" d="M54.084 128.438l2.952 2.952-2.952-2.952z"/>
      <path fill="#fcc" d="M65.892 128.438l2.952 2.952-2.952-2.952z"/>
      <path fill="#c33" d="M70.813 129.421l1.968.984-1.968-.984m144.653 0l1.968.984-1.968-.984z"/>
      <path fill="#fcc" d="M219.401 128.438l2.952 2.952-2.952-2.952z"/>
      <path fill="#ccf" d="M231.21 128.438l2.952 2.952-2.952-2.952z"/>
      <path fill="#6cc" d="M234.162 128.438l2.952 2.952-2.952-2.952z"/>
      <path fill="#9cc" d="M42.275 131.39l2.952 2.952-2.952-2.952z"/>
      <path fill="#ccf" d="M45.227 131.39l2.952 2.952-2.952-2.952z"/>
      <path fill="#fcc" d="M57.036 131.39l2.952 2.952-2.952-2.952z"/>
      <path fill="#fcc" d="M228.258 131.39l2.952 2.952-2.952-2.952z"/>
      <path fill="#ccf" d="M240.066 131.39l2.952 2.952-2.952-2.952z"/>
      <path fill="#9cc" d="M243.018 131.39l2.952 2.952-2.952-2.952m-206.647 2.952l2.952 2.952-2.952-2.952z"/>
      <path fill="#c66" d="M51.132 134.342l2.952 2.952-2.952-2.952z"/>
      <path fill="#c66" d="M234.162 134.342l2.952 2.952-2.952-2.952z"/>
      <path fill="#9cc" d="M248.922 134.342l2.952 2.952-2.952-2.952m-206.647 2.952l2.952 2.952-2.952-2.952z"/>
      <path fill="#ccf" d="M45.227 137.294l2.952 2.952-2.952-2.952z"/>
      <path fill="#fcc" d="M57.036 137.294l2.952 2.952-2.952-2.952m171.222 0l2.952 2.952-2.952-2.952z"/>
      <path fill="#ccf" d="M240.066 137.294l2.952 2.952-2.952-2.952z"/>
      <path fill="#9cc" d="M243.018 137.294l2.952 2.952-2.952-2.952z"/>
      <path fill="#6cc" d="M51.132 140.247l2.952 2.952-2.952-2.952z"/>
      <path fill="#ccf" d="M54.084 140.247l2.952 2.952-2.952-2.952z"/>
      <path fill="#fcc" d="M65.892 140.247l2.952 2.952-2.952-2.952z"/>
      <path fill="#c33" d="M70.813 141.23l1.968.984-1.968-.984m144.653 0l1.968.984-1.968-.984z"/>
      <path fill="#fcc" d="M219.401 140.247l2.952 2.952-2.952-2.952z"/>
      <path fill="#ccf" d="M231.21 140.247l2.952 2.952-2.952-2.952z"/>
      <path fill="#6cc" d="M234.162 140.247l2.952 2.952-2.952-2.952m-174.174 2.952l2.952 2.952-2.952-2.952z"/>
      <path fill="#9cf" d="M62.94 143.199l2.952 2.952-2.952-2.952z"/>
      <path fill="#fcc" d="M74.749 143.199l2.952 2.952-2.952-2.952z"/>
      <path fill="#fcc" d="M210.545 143.199l2.952 2.952-2.952-2.952z"/>
      <path fill="#9cf" d="M222.353 143.199l2.952 2.952-2.952-2.952z"/>
      <path fill="#6cc" d="M225.306 143.199l2.952 2.952-2.952-2.952z"/>
      <path fill="#69c" d="M68.844 146.151l2.952 2.952-2.952-2.952z"/>
      <path fill="#9cf" d="M71.796 146.151l2.952 2.952-2.952-2.952z"/>
      <path fill="#fcc" d="M86.557 146.151l2.952 2.952-2.952-2.952z"/>
      <path fill="#c33" d="M91.478 147.134l1.968.984-1.968-.984m103.324 0l1.968.984-1.968-.984z"/>
      <path fill="#fcc" d="M198.737 146.151l2.952 2.952-2.952-2.952z"/>
      <path fill="#9cf" d="M213.497 146.151l2.952 2.952-2.952-2.952z"/>
      <path fill="#69c" d="M216.449 146.151l2.952 2.952-2.952-2.952m-138.749 2.952l2.952 2.952-2.952-2.952z"/>
      <path fill="#9cc" d="M80.653 149.103l2.952 2.952-2.952-2.952z"/>
      <path fill="#cff" d="M83.605 149.103l2.952 2.952-2.952-2.952z"/>
      <path fill="#fcc" d="M95.413 149.103l2.952 2.952-2.952-2.952z"/>
      <path fill="#c33" d="M100.334 150.086l1.968.984-1.968-.984m85.611 0l1.968.984-1.968-.984z"/>
      <path fill="#fcc" d="M189.88 149.103l2.952 2.952-2.952-2.952z"/>
      <path fill="#cff" d="M201.689 149.103l2.952 2.952-2.952-2.952z"/>
      <path fill="#9cc" d="M204.641 149.103l2.952 2.952-2.952-2.952z"/>
      <path fill="#69c" d="M207.593 149.103l2.952 2.952-2.952-2.952m-121.036 2.952l2.952 2.952-2.952-2.952z"/>
      <path fill="#9cc" d="M89.509 152.055l2.952 2.952-2.952-2.952z"/>
      <path fill="#cff" d="M92.461 152.055l2.952 2.952-2.952-2.952z"/>
      <path fill="#fcc" d="M104.27 152.055l2.952 2.952-2.952-2.952z"/>
      <path fill="#c33" d="M109.191 153.038l1.968.984-1.968-.984m67.898 0l1.968.984-1.968-.984z"/>
      <path fill="#fcc" d="M181.024 152.055l2.952 2.952-2.952-2.952z"/>
      <path fill="#cff" d="M192.833 152.055l2.952 2.952-2.952-2.952z"/>
      <path fill="#9cc" d="M195.785 152.055l2.952 2.952-2.952-2.952z"/>
      <path fill="#69c" d="M198.737 152.055l2.952 2.952-2.952-2.952z"/>
      <path fill="#9cc" d="M98.365 155.007l2.952 2.952-2.952-2.952z"/>
      <path fill="#ccf" d="M101.317 155.007l2.952 2.952-2.952-2.952z"/>
      <path fill="#fcc" d="M113.126 155.007l2.952 2.952-2.952-2.952z"/>
      <path fill="#c33" d="M116.078 155.007l2.952 2.952-2.952-2.952m53.138 0l2.952 2.952-2.952-2.952z"/>
      <path fill="#fcc" d="M172.168 155.007l2.952 2.952-2.952-2.952z"/>
      <path fill="#ccf" d="M183.976 155.007l2.952 2.952-2.952-2.952z"/>
      <path fill="#9cc" d="M186.928 155.007l2.952 2.952-2.952-2.952m-79.707 2.952l2.952 2.952-2.952-2.952z"/>
      <path fill="#ccf" d="M110.174 157.959l2.952 2.952-2.952-2.952m64.946 0l2.952 2.952-2.952-2.952z"/>
      <path fill="#9cc" d="M178.072 157.959l2.952 2.952-2.952-2.952m-61.994 2.952l2.952 2.952-2.952-2.952z"/>
      <path fill="#c33" d="M121.982 160.911l2.952 2.952-2.952-2.952m41.329 0l2.952 2.952-2.952-2.952z"/>
      <path fill="#9cc" d="M169.216 160.911l2.952 2.952-2.952-2.952z"/>
      <path fill="#fcc" d="M121.982 163.863l2.952 2.952-2.952-2.952m41.329 0l2.952 2.952-2.952-2.952z"/>
      <path fill="#ccf" d="M119.03 166.815l2.952 2.952-2.952-2.952z"/>
      <path fill="#c33" d="M125.917 168.784l.984 1.968-.984-1.968m35.425 0l.984 1.968-.984-1.968z"/>
      <path fill="#ccf" d="M166.264 166.815l2.952 2.952-2.952-2.952z"/>
      <path fill="#9cc" d="M119.03 169.768l2.952 2.952-2.952-2.952m47.234 0l2.952 2.952-2.952-2.952z"/>
      <path fill="#fcc" d="M124.934 172.72l2.952 2.952-2.952-2.952m35.425 0l2.952 2.952-2.952-2.952z"/>
      <path fill="#ccf" d="M121.982 175.672l2.952 2.952-2.952-2.952z"/>
      <path fill="#c33" d="M128.869 177.641l.984 1.968-.984-1.968m29.521 0l.984 1.968-.984-1.968z"/>
      <path fill="#ccf" d="M163.311 175.672l2.952 2.952-2.952-2.952z"/>
      <path fill="#9cc" d="M121.982 178.624l2.952 2.952-2.952-2.952m41.329 0l2.952 2.952-2.952-2.952z"/>
      <path fill="#fcc" d="M127.886 181.576l2.952 2.952-2.952-2.952m29.521 0l2.952 2.952-2.952-2.952z"/>
      <path fill="#cff" d="M124.934 184.528l2.952 2.952-2.952-2.952z"/>
      <path fill="#c33" d="M131.821 186.497l.984 1.968-.984-1.968m23.617 0l.984 1.968-.984-1.968z"/>
      <path fill="#cff" d="M160.359 184.528l2.952 2.952-2.952-2.952z"/>
      <path fill="#9cc" d="M124.934 187.48l2.952 2.952-2.952-2.952m35.425 0l2.952 2.952-2.952-2.952z"/>
      <path fill="#69c" d="M124.934 190.432l2.952 2.952-2.952-2.952z"/>
      <path fill="#fcc" d="M130.838 190.432l2.952 2.952-2.952-2.952m23.617 0l2.952 2.952-2.952-2.952z"/>
      <path fill="#69c" d="M160.359 190.432l2.952 2.952-2.952-2.952z"/>
      <path fill="#cff" d="M127.886 193.384l2.952 2.952-2.952-2.952z"/>
      <path fill="#cff" d="M157.407 193.384l2.952 2.952-2.952-2.952z"/>
      <path fill="#9cc" d="M127.886 196.336l2.952 2.952-2.952-2.952m29.521 0l2.952 2.952-2.952-2.952z"/>
      <path fill="#69c" d="M127.886 199.289l2.952 2.952-2.952-2.952m29.521 0l2.952 2.952-2.952-2.952z"/>
      <path fill="#fcc" d="M133.791 202.241l2.952 2.952-2.952-2.952m17.713 0l2.952 2.952-2.952-2.952z"/>
      <path fill="#9cf" d="M130.838 205.193l2.952 2.952-2.952-2.952z"/>
      <path fill="#c33" d="M137.726 207.162l.984 1.968-.984-1.968m11.808 0l.984 1.968-.984-1.968z"/>
      <path fill="#9cf" d="M154.455 205.193l2.952 2.952-2.952-2.952z"/>
      <path fill="#69c" d="M130.838 208.145l2.952 2.952-2.952-2.952m23.617 0l2.952 2.952-2.952-2.952z"/>
      <path fill="#fcc" d="M136.743 211.097l2.952 2.952-2.952-2.952m11.808 0l2.952 2.952-2.952-2.952z"/>
      <path fill="#9cf" d="M133.791 214.049l2.952 2.952-2.952-2.952z"/>
      <path fill="#9cf" d="M151.503 214.049l2.952 2.952-2.952-2.952z"/>
      <path fill="#6cc" d="M133.791 217.001l2.952 2.952-2.952-2.952m17.713 0l2.952 2.952-2.952-2.952z"/>
      <path fill="#fcc" d="M139.695 219.953l2.952 2.952-2.952-2.952m5.904 0l2.952 2.952-2.952-2.952z"/>
      <path fill="#ccf" d="M136.743 222.905l2.952 2.952-2.952-2.952m11.808 0l2.952 2.952-2.952-2.952z"/>
      <path fill="#6cc" d="M136.743 225.857l2.952 2.952-2.952-2.952z"/>
      <path fill="#c66" d="M142.647 225.857l2.952 2.952-2.952-2.952z"/>
      <path fill="#6cc" d="M148.551 225.857l2.952 2.952-2.952-2.952z"/>
      <path fill="#ccf" d="M139.695 231.762l2.952 2.952-2.952-2.952m5.904 0l2.952 2.952-2.952-2.952z"/>
      <path fill="#9cc" d="M139.695 234.714l2.952 2.952-2.952-2.952m5.904 0l2.952 2.952-2.952-2.952m-2.952 5.904l2.952 2.952-2.952-2.952z"/>
    </g>
  </g>
</svg>
