<svg xmlns="http://www.w3.org/2000/svg" id="flag-icon-css-aw" width="640" height="480">
  <defs>
    <clipPath id="a">
      <path fill-opacity=".67" d="M0 0h288v216H0z"/>
    </clipPath>
  </defs>
  <g clip-path="url(#a)" transform="scale(2.2222)">
    <path fill="#39c" d="M0 0v216h324V0H0z"/>
    <path fill="#ff0" d="M0 144v12h324v-12H0zm0 24v12h324v-12H0z"/>
  </g>
  <path fill="#9cc" d="M142.65 28.07l2.95 2.95-2.95-2.95zm-2.96 5.9l2.96 2.95-2.96-2.95m5.9 0l2.96 2.95-2.95-2.95z"/>
  <path fill="#ccf" d="M139.7 36.92l2.95 2.96-2.96-2.96m5.9 0l2.96 2.96-2.95-2.96z"/>
  <path fill="#6cc" d="M136.74 42.83l2.95 2.95-2.95-2.95z"/>
  <path fill="#c66" d="M142.65 42.83l2.95 2.95-2.95-2.95z"/>
  <path fill="#6cc" d="M148.55 42.83l2.95 2.95-2.95-2.95z"/>
  <path fill="#ccf" d="M136.74 45.78l2.95 2.95-2.95-2.95zm11.81 0l2.95 2.95-2.95-2.95z"/>
  <path fill="#fcc" d="M139.7 48.73l2.95 2.95-2.96-2.95m5.9 0l2.96 2.95-2.95-2.95z"/>
  <path fill="#6cc" d="M133.79 51.68l2.95 2.96-2.95-2.96z"/>
  <path fill="#c00" stroke="#fff" stroke-width="3.69" d="M142.16 34.06l-20.7 78.45-78.67 21.37 78.45 20.48 20.92 78.45 20.92-78.45 78.45-20.92-78.45-20.93-20.92-78.45z"/>
  <path fill="#6cc" d="M151.5 51.68l2.95 2.96-2.95-2.96z"/>
  <path fill="#9cf" d="M133.79 54.64l2.95 2.95-2.95-2.95m17.71 0l2.96 2.95-2.96-2.95z"/>
  <path fill="#fcc" d="M136.74 57.59l2.95 2.95-2.95-2.95m11.81 0l2.95 2.95-2.95-2.95z"/>
  <path fill="#69c" d="M130.84 60.54l2.95 2.95-2.95-2.95z"/>
  <path fill="#c33" d="M137.73 62.51l.98 1.97-.98-1.97m11.8 0l.99 1.97-.99-1.97z"/>
  <path fill="#69c" d="M154.46 60.54l2.95 2.95-2.95-2.95z"/>
  <path fill="#9cf" d="M130.84 63.5l2.95 2.94-2.95-2.95m23.62 0l2.95 2.95-2.95-2.95z"/>
  <path fill="#fcc" d="M133.79 66.44l2.95 2.96-2.95-2.96m17.71 0l2.96 2.96-2.96-2.96z"/>
  <path fill="#69c" d="M127.89 69.4l2.95 2.95-2.95-2.95zm29.52 0l2.95 2.95-2.95-2.95z"/>
  <path fill="#9cc" d="M127.89 72.35l2.95 2.95-2.95-2.95m29.52 0l2.95 2.95-2.95-2.95z"/>
  <path fill="#cff" d="M127.89 75.3l2.95 2.95-2.95-2.95m29.52 0l2.95 2.95-2.95-2.95z"/>
  <path fill="#69c" d="M124.93 78.25l2.96 2.95-2.96-2.95z"/>
  <path fill="#fcc" d="M130.84 78.25l2.95 2.95-2.95-2.95m23.62 0l2.95 2.95-2.95-2.95z"/>
  <path fill="#69c" d="M160.36 78.25l2.95 2.95-2.95-2.95z"/>
  <path fill="#9cc" d="M124.93 81.2l2.96 2.96-2.96-2.96z"/>
  <path fill="#c33" d="M131.82 83.17l.99 1.97-.99-1.96m23.62 0l.98 1.96-.98-1.96z"/>
  <path fill="#9cc" d="M160.36 81.2l2.95 2.96-2.95-2.96z"/>
  <path fill="#cff" d="M124.93 84.16l2.96 2.95-2.96-2.95m35.43 0l2.95 2.95-2.95-2.96z"/>
  <path fill="#fcc" d="M127.89 87.11l2.95 2.95-2.95-2.95m29.52 0l2.95 2.95-2.95-2.95z"/>
  <path fill="#9cc" d="M121.98 90.06l2.95 2.95-2.95-2.95z"/>
  <path fill="#c33" d="M128.87 92.03l.98 1.97-.98-1.97m29.52 0l.98 1.97-.98-1.97z"/>
  <path fill="#9cc" d="M163.31 90.06l2.95 2.95-2.95-2.95z"/>
  <path fill="#ccf" d="M121.98 93.01l2.95 2.96-2.95-2.96m41.33 0l2.95 2.96-2.95-2.96z"/>
  <path fill="#fcc" d="M124.93 95.97l2.96 2.95-2.96-2.96m35.43 0l2.95 2.96-2.95-2.96z"/>
  <path fill="#9cc" d="M119.03 98.92l2.95 2.95-2.95-2.95z"/>
  <path fill="#c33" d="M125.92 100.89l.98 1.96-.98-1.96m35.42 0l.99 1.96-.99-1.96z"/>
  <path fill="#9cc" d="M166.26 98.92l2.96 2.95-2.96-2.95z"/>
  <path fill="#ccf" d="M119.03 101.87l2.95 2.95-2.95-2.95m47.23 0l2.96 2.95-2.96-2.95z"/>
  <path fill="#fcc" d="M121.98 104.82l2.95 2.95-2.95-2.95m41.33 0l2.95 2.95-2.95-2.95z"/>
  <path fill="#9cc" d="M116.08 107.77l2.95 2.96-2.95-2.96z"/>
  <path fill="#c33" d="M121.98 107.77l2.95 2.96-2.95-2.96m41.33 0l2.95 2.96-2.95-2.96z"/>
  <path fill="#9cc" d="M169.22 107.77l2.95 2.96-2.95-2.96m-62 2.96l2.95 2.95-2.95-2.95z"/>
  <path fill="#ccf" d="M110.17 110.72l2.96 2.96-2.96-2.95m64.95 0l2.95 2.95-2.95-2.95z"/>
  <path fill="#9cc" d="M178.07 110.72l2.95 2.96-2.95-2.95m-79.7 2.95l2.95 2.95-2.95-2.95z"/>
  <path fill="#ccf" d="M101.32 113.68l2.95 2.95-2.95-2.95z"/>
  <path fill="#fcc" d="M113.13 113.68l2.95 2.95-2.95-2.95z"/>
  <path fill="#c33" d="M116.08 113.68l2.95 2.95-2.95-2.95m53.14 0l2.95 2.95-2.95-2.95z"/>
  <path fill="#fcc" d="M172.17 113.68l2.95 2.95-2.95-2.95z"/>
  <path fill="#ccf" d="M183.98 113.68l2.95 2.95-2.95-2.95z"/>
  <path fill="#9cc" d="M186.93 113.68l2.95 2.95-2.95-2.95z"/>
  <path fill="#69c" d="M86.56 116.63l2.95 2.95-2.95-2.95z"/>
  <path fill="#9cc" d="M89.51 116.63l2.95 2.95-2.95-2.95z"/>
  <path fill="#cff" d="M92.46 116.63l2.95 2.95-2.95-2.95z"/>
  <path fill="#fcc" d="M104.27 116.63l2.95 2.95-2.95-2.95z"/>
  <path fill="#c33" d="M109.19 117.61l1.97.99-1.97-.99m67.9 0l1.97.99-1.97-.99z"/>
  <path fill="#fcc" d="M181.02 116.63l2.96 2.95-2.96-2.95z"/>
  <path fill="#cff" d="M192.83 116.63l2.95 2.95-2.95-2.95z"/>
  <path fill="#9cc" d="M195.78 116.63l2.96 2.95-2.96-2.95z"/>
  <path fill="#69c" d="M198.74 116.63l2.95 2.95-2.95-2.95M77.7 119.58l2.95 2.95-2.95-2.95z"/>
  <path fill="#9cc" d="M80.65 119.58l2.96 2.95-2.96-2.95z"/>
  <path fill="#cff" d="M83.6 119.58l2.96 2.95-2.96-2.95z"/>
  <path fill="#fcc" d="M95.41 119.58l2.96 2.95-2.96-2.95z"/>
  <path fill="#c33" d="M100.33 120.56l1.97.99-1.97-.99m85.61 0l1.97.99-1.97-.99z"/>
  <path fill="#fcc" d="M189.88 119.58l2.95 2.95-2.95-2.95z"/>
  <path fill="#cff" d="M201.69 119.58l2.95 2.95-2.95-2.95z"/>
  <path fill="#9cc" d="M204.64 119.58l2.95 2.95-2.95-2.95z"/>
  <path fill="#69c" d="M207.6 119.58l2.94 2.95-2.95-2.95m-138.75 2.95l2.96 2.96-2.96-2.96z"/>
  <path fill="#9cf" d="M71.8 122.53l2.95 2.96-2.95-2.96z"/>
  <path fill="#fcc" d="M86.56 122.53l2.95 2.96-2.95-2.96z"/>
  <path fill="#c33" d="M91.48 123.52l1.97.98-1.97-.98m103.32 0l1.97.98-1.97-.98z"/>
  <path fill="#fcc" d="M198.74 122.53l2.95 2.96-2.95-2.96z"/>
  <path fill="#9cf" d="M213.5 122.53l2.95 2.96-2.95-2.96z"/>
  <path fill="#69c" d="M216.45 122.53l2.95 2.96-2.95-2.96z"/>
  <path fill="#6cc" d="M59.99 125.49l2.95 2.95-2.95-2.95z"/>
  <path fill="#9cf" d="M62.94 125.49l2.95 2.95-2.95-2.95z"/>
  <path fill="#fcc" d="M74.75 125.49l2.95 2.95-2.95-2.95zm135.8 0l2.95 2.95-2.96-2.95z"/>
  <path fill="#9cf" d="M222.35 125.49l2.96 2.95-2.96-2.95z"/>
  <path fill="#6cc" d="M225.3 125.49l2.96 2.95-2.95-2.95m-174.18 2.95l2.95 2.95-2.95-2.95z"/>
  <path fill="#ccf" d="M54.08 128.44l2.96 2.95-2.96-2.95z"/>
  <path fill="#fcc" d="M65.9 128.44l2.94 2.95-2.95-2.95z"/>
  <path fill="#c33" d="M70.81 129.42l1.97.98-1.97-.98m144.66 0l1.96.99-1.96-.99z"/>
  <path fill="#fcc" d="M219.4 128.44l2.95 2.95-2.95-2.95z"/>
  <path fill="#ccf" d="M231.21 128.44l2.95 2.95-2.95-2.95z"/>
  <path fill="#6cc" d="M234.16 128.44l2.95 2.95-2.95-2.95z"/>
  <path fill="#9cc" d="M42.27 131.39l2.96 2.95-2.96-2.95z"/>
  <path fill="#ccf" d="M45.23 131.39l2.95 2.95-2.95-2.95z"/>
  <path fill="#fcc" d="M57.04 131.39l2.95 2.95-2.95-2.95zm171.22 0l2.95 2.95-2.95-2.95z"/>
  <path fill="#ccf" d="M240.07 131.39l2.95 2.95-2.95-2.95z"/>
  <path fill="#9cc" d="M243.02 131.39l2.95 2.95-2.95-2.95m-206.65 2.95l2.95 2.95-2.95-2.95z"/>
  <path fill="#c66" d="M51.13 134.34l2.95 2.95-2.95-2.95zm183.03 0l2.95 2.95-2.95-2.95z"/>
  <path fill="#9cc" d="M248.92 134.34l2.96 2.95-2.96-2.95M42.28 137.3l2.95 2.96-2.95-2.96z"/>
  <path fill="#ccf" d="M45.23 137.3l2.95 2.95-2.95-2.96z"/>
  <path fill="#fcc" d="M57.04 137.3l2.95 2.95-2.95-2.96m171.22 0l2.95 2.96-2.95-2.96z"/>
  <path fill="#ccf" d="M240.07 137.3l2.95 2.95-2.95-2.96z"/>
  <path fill="#9cc" d="M243.02 137.3l2.95 2.95-2.95-2.96z"/>
  <path fill="#6cc" d="M51.13 140.25l2.95 2.95-2.95-2.95z"/>
  <path fill="#ccf" d="M54.08 140.25l2.96 2.95-2.96-2.95z"/>
  <path fill="#fcc" d="M65.9 140.25l2.94 2.95-2.95-2.95z"/>
  <path fill="#c33" d="M70.81 141.23l1.97.98-1.97-.98m144.66 0l1.96.98-1.96-.98z"/>
  <path fill="#fcc" d="M219.4 140.25l2.95 2.95-2.95-2.95z"/>
  <path fill="#ccf" d="M231.21 140.25l2.95 2.95-2.95-2.95z"/>
  <path fill="#6cc" d="M234.16 140.25l2.95 2.95-2.95-2.95M60 143.2l2.95 2.95-2.95-2.95z"/>
  <path fill="#9cf" d="M62.94 143.2l2.95 2.95-2.95-2.95z"/>
  <path fill="#fcc" d="M74.75 143.2l2.95 2.95-2.95-2.95zm135.8 0l2.95 2.95-2.96-2.95z"/>
  <path fill="#9cf" d="M222.35 143.2l2.96 2.95-2.96-2.95z"/>
  <path fill="#6cc" d="M225.3 143.2l2.96 2.95-2.95-2.95z"/>
  <path fill="#69c" d="M68.84 146.15l2.96 2.95-2.96-2.95z"/>
  <path fill="#9cf" d="M71.8 146.15l2.95 2.95-2.95-2.95z"/>
  <path fill="#fcc" d="M86.56 146.15l2.95 2.95-2.95-2.95z"/>
  <path fill="#c33" d="M91.48 147.13l1.97.99-1.97-.99m103.32 0l1.97.99-1.97-.99z"/>
  <path fill="#fcc" d="M198.74 146.15l2.95 2.95-2.95-2.95z"/>
  <path fill="#9cf" d="M213.5 146.15l2.95 2.95-2.95-2.95z"/>
  <path fill="#69c" d="M216.45 146.15l2.95 2.95-2.95-2.95M77.7 149.1l2.95 2.96-2.95-2.96z"/>
  <path fill="#9cc" d="M80.65 149.1l2.96 2.96-2.96-2.96z"/>
  <path fill="#cff" d="M83.6 149.1l2.96 2.96-2.96-2.96z"/>
  <path fill="#fcc" d="M95.41 149.1l2.96 2.96-2.96-2.96z"/>
  <path fill="#c33" d="M100.33 150.09l1.97.98-1.97-.98m85.61 0l1.97.98-1.97-.98z"/>
  <path fill="#fcc" d="M189.88 149.1l2.95 2.96-2.95-2.96z"/>
  <path fill="#cff" d="M201.69 149.1l2.95 2.96-2.95-2.96z"/>
  <path fill="#9cc" d="M204.64 149.1l2.95 2.96-2.95-2.96z"/>
  <path fill="#69c" d="M207.6 149.1l2.94 2.96-2.95-2.96m-121.03 2.96L89.5 155l-2.95-2.95z"/>
  <path fill="#9cc" d="M89.51 152.06l2.95 2.95-2.95-2.95z"/>
  <path fill="#cff" d="M92.46 152.06l2.95 2.95-2.95-2.95z"/>
  <path fill="#fcc" d="M104.27 152.06l2.95 2.95-2.95-2.95z"/>
  <path fill="#c33" d="M109.19 153.04l1.97.98-1.97-.98m67.9 0l1.97.98-1.97-.98z"/>
  <path fill="#fcc" d="M181.02 152.06l2.96 2.95-2.96-2.95z"/>
  <path fill="#cff" d="M192.83 152.06l2.95 2.95-2.95-2.95z"/>
  <path fill="#9cc" d="M195.78 152.06l2.96 2.95-2.96-2.95z"/>
  <path fill="#69c" d="M198.74 152.06l2.95 2.95-2.95-2.95z"/>
  <path fill="#9cc" d="M98.36 155l2.96 2.96-2.96-2.95z"/>
  <path fill="#ccf" d="M101.32 155l2.95 2.96-2.95-2.95z"/>
  <path fill="#fcc" d="M113.13 155l2.95 2.96-2.95-2.95z"/>
  <path fill="#c33" d="M116.08 155l2.95 2.96-2.95-2.95m53.14 0l2.95 2.95-2.95-2.96z"/>
  <path fill="#fcc" d="M172.17 155l2.95 2.96-2.95-2.95z"/>
  <path fill="#ccf" d="M183.98 155l2.95 2.96-2.95-2.95z"/>
  <path fill="#9cc" d="M186.93 155l2.95 2.96-2.95-2.95m-79.7 2.95l2.94 2.95-2.95-2.95z"/>
  <path fill="#ccf" d="M110.17 157.96l2.96 2.95-2.96-2.95m64.95 0l2.95 2.95-2.95-2.95z"/>
  <path fill="#9cc" d="M178.07 157.96l2.95 2.95-2.95-2.95m-62 2.95l2.96 2.95-2.95-2.95z"/>
  <path fill="#c33" d="M121.98 160.91l2.95 2.95-2.95-2.95m41.33 0l2.95 2.95-2.95-2.95z"/>
  <path fill="#9cc" d="M169.22 160.91l2.95 2.95-2.95-2.95z"/>
  <path fill="#fcc" d="M121.98 163.86l2.95 2.95-2.95-2.95m41.33 0l2.95 2.95-2.95-2.95z"/>
  <path fill="#ccf" d="M119.03 166.81l2.95 2.96-2.95-2.96z"/>
  <path fill="#c33" d="M125.92 168.78l.98 1.97-.98-1.97m35.42 0l.99 1.97-.99-1.97z"/>
  <path fill="#ccf" d="M166.26 166.81l2.96 2.96-2.96-2.96z"/>
  <path fill="#9cc" d="M119.03 169.77l2.95 2.95-2.95-2.95m47.23 0l2.96 2.95-2.96-2.95z"/>
  <path fill="#fcc" d="M124.93 172.72l2.96 2.95-2.96-2.95m35.43 0l2.95 2.95-2.95-2.95z"/>
  <path fill="#ccf" d="M121.98 175.67l2.95 2.95-2.95-2.95z"/>
  <path fill="#c33" d="M128.87 177.64l.98 1.97-.98-1.97m29.52 0l.98 1.97-.98-1.97z"/>
  <path fill="#ccf" d="M163.31 175.67l2.95 2.95-2.95-2.95z"/>
  <path fill="#9cc" d="M121.98 178.62l2.95 2.96-2.95-2.96m41.33 0l2.95 2.96-2.95-2.96z"/>
  <path fill="#fcc" d="M127.89 181.58l2.95 2.95-2.95-2.95m29.52 0l2.95 2.95-2.95-2.95z"/>
  <path fill="#cff" d="M124.93 184.53l2.96 2.95-2.96-2.95z"/>
  <path fill="#c33" d="M131.82 186.5l.99 1.97-.99-1.97m23.62 0l.98 1.97-.98-1.97z"/>
  <path fill="#cff" d="M160.36 184.53l2.95 2.95-2.95-2.95z"/>
  <path fill="#9cc" d="M124.93 187.48l2.96 2.95-2.96-2.95m35.43 0l2.95 2.95-2.95-2.95z"/>
  <path fill="#69c" d="M124.93 190.43l2.96 2.95-2.96-2.95z"/>
  <path fill="#fcc" d="M130.84 190.43l2.95 2.95-2.95-2.95m23.62 0l2.95 2.95-2.95-2.95z"/>
  <path fill="#69c" d="M160.36 190.43l2.95 2.95-2.95-2.95z"/>
  <path fill="#cff" d="M127.89 193.38l2.95 2.96-2.95-2.96zm29.52 0l2.95 2.96-2.95-2.96z"/>
  <path fill="#9cc" d="M127.89 196.34l2.95 2.95-2.95-2.95m29.52 0l2.95 2.95-2.95-2.96z"/>
  <path fill="#69c" d="M127.89 199.29l2.95 2.95-2.95-2.95m29.52 0l2.95 2.95-2.95-2.95z"/>
  <path fill="#fcc" d="M133.79 202.24l2.95 2.95-2.95-2.95m17.71 0l2.96 2.95-2.96-2.95z"/>
  <path fill="#9cf" d="M130.84 205.2l2.95 2.95-2.95-2.96z"/>
  <path fill="#c33" d="M137.73 207.16l.98 1.97-.98-1.97m11.8 0l.99 1.97-.99-1.97z"/>
  <path fill="#9cf" d="M154.46 205.2l2.95 2.95-2.95-2.96z"/>
  <path fill="#69c" d="M130.84 208.15l2.95 2.95-2.95-2.95m23.62 0l2.95 2.95-2.95-2.95z"/>
  <path fill="#fcc" d="M136.74 211.1l2.95 2.95-2.95-2.95m11.81 0l2.95 2.95-2.95-2.96z"/>
  <path fill="#9cf" d="M133.79 214.05l2.95 2.95-2.95-2.95zm17.71 0l2.95 2.95-2.95-2.95z"/>
  <path fill="#6cc" d="M133.79 217l2.95 2.95-2.95-2.95m17.71 0l2.95 2.95-2.95-2.95z"/>
  <path fill="#fcc" d="M139.7 219.95l2.95 2.96-2.96-2.96m5.9 0l2.96 2.96-2.95-2.96z"/>
  <path fill="#ccf" d="M136.74 222.9l2.95 2.96-2.95-2.96m11.81 0l2.95 2.96-2.95-2.96z"/>
  <path fill="#6cc" d="M136.74 225.86l2.95 2.95-2.95-2.95z"/>
  <path fill="#c66" d="M142.65 225.86l2.95 2.95-2.95-2.95z"/>
  <path fill="#6cc" d="M148.55 225.86l2.95 2.95-2.95-2.95z"/>
  <path fill="#ccf" d="M139.7 231.76l2.95 2.95-2.96-2.95m5.9 0l2.96 2.95-2.95-2.95z"/>
  <path fill="#9cc" d="M139.7 234.71l2.95 2.96-2.96-2.96m5.9 0l2.96 2.96-2.95-2.96m-2.95 5.9l2.95 2.96-2.96-2.95z"/>
</svg>
