<svg xmlns="http://www.w3.org/2000/svg" id="flag-icon-css-ba" width="640" height="480">
  <defs>
    <clipPath id="a">
      <path fill-opacity=".67" d="M-85.33 0h682.67v512H-85.33z"/>
    </clipPath>
  </defs>
  <g fill-rule="evenodd" clip-path="url(#a)" transform="translate(80) scale(.9375)">
    <path fill="#009" d="M-85.33 0h682.67v512H-85.33V0z"/>
    <path fill="#FC0" d="M56.49 0l510.98 512.27V.27L56.49 0z"/>
    <path fill="#FFF" d="M439.88 481.53l-27.86-20.36-28.64 20.26 10.83-33.24-28.18-20.53 34.91.07 10.86-33.19 10.72 33.24 34.92.1-27.94 20.65 10.38 33zm81.3 10.35l-34.93-.1-10.72-33.24-10.86 33.2-34.91-.08 28.18 20.53-10.83 33.24 28.64-20.26 27.87 20.36-10.38-33 27.94-20.65zM365.64 384.67L393.58 364l-34.92-.1-10.73-33.23-10.86 33.19-34.9-.07 28.17 20.53-10.83 33.24 28.64-20.26 27.87 20.36-10.38-33zm-64.36-64.45l27.94-20.66-34.92-.1-10.72-33.23-10.86 33.2-34.91-.08 28.18 20.53-10.83 33.24 28.64-20.26 27.86 20.36-10.38-33zm-63.64-63.64l27.94-20.66-34.92-.1-10.73-33.23-10.86 33.19-34.9-.07 28.17 20.53-10.83 33.24 28.64-20.26 27.87 20.36-10.38-33zm-64.45-64.27l27.94-20.66-34.92-.1-10.72-33.23-10.86 33.2-34.91-.08 28.18 20.53-10.83 33.24 28.64-20.26 27.86 20.36-10.38-33zm-63.64-63.91l27.94-20.66-34.92-.1-10.73-33.23-10.86 33.19-34.9-.07 28.17 20.53-10.83 33.24 28.64-20.26 27.87 20.36-10.38-33zm-64-64l27.94-20.66-34.92-.1-10.73-33.23L16.98 43.6l-34.9-.07 28.17 20.53L-.58 97.3l28.64-20.26L55.93 97.4l-10.38-33zm-64-64L9.49-20.26l-34.92-.1-10.73-33.23-10.86 33.19-34.9-.07L-53.76.06-64.58 33.3l28.64-20.26L-8.07 33.4-18.45.4z"/>
  </g>
</svg>
