<svg xmlns="http://www.w3.org/2000/svg" height="480" viewBox="0 0 512 512" width="640" version="1"><defs><clipPath id="a"><rect fill-opacity=".67" height="512" width="682.67" x="-85.333"/></clipPath></defs><g fill-rule="evenodd" clip-path="url(#a)"><rect height="512" width="682.67" x="-85.333" fill="#009"/><path d="M-85.333 0l682.67 512v-512h-682.67z" fill="#fc0"/><polygon transform="matrix(.437 0 0 .437 -188.29 47.624)" points="381.84 62.857 326 22.287 270.16 62.857 291.49 -2.7868 235.65 -43.357 304.67 -43.357 326 -109 326 -109 347.33 -43.357 416.35 -43.357 360.51 -2.7868" fill="#fff"/><polygon transform="matrix(.437 0 0 .437 -112.34 102.24)" points="326 22.287 270.16 62.857 291.49 -2.7868 235.65 -43.357 304.67 -43.357 326 -109 326 -109 347.33 -43.357 416.35 -43.357 360.51 -2.7868 381.84 62.857" fill="#fff"/><polygon transform="matrix(.437 0 0 .437 -36.397 156.85)" points="270.16 62.857 291.49 -2.7868 235.65 -43.357 304.67 -43.357 326 -109 326 -109 347.33 -43.357 416.35 -43.357 360.51 -2.7868 381.84 62.857 326 22.287" fill="#fff"/><polygon transform="matrix(.437 0 0 .437 39.551 211.47)" points="291.49 -2.7868 235.65 -43.357 304.67 -43.357 326 -109 326 -109 347.33 -43.357 416.35 -43.357 360.51 -2.7868 381.84 62.857 326 22.287 270.16 62.857" fill="#fff"/><polygon transform="matrix(.437 0 0 .437 115.5 266.08)" points="235.65 -43.357 304.67 -43.357 326 -109 326 -109 347.33 -43.357 416.35 -43.357 360.51 -2.7868 381.84 62.857 326 22.287 270.16 62.857 291.49 -2.7868" fill="#fff"/><polygon transform="matrix(.437 0 0 .437 191.45 320.69)" points="304.67 -43.357 326 -109 326 -109 347.33 -43.357 416.35 -43.357 360.51 -2.7868 381.84 62.857 326 22.287 270.16 62.857 291.49 -2.7868 235.65 -43.357" fill="#fff"/><polygon transform="matrix(.437 0 0 .437 267.39 375.31)" points="326 -109 326 -109 347.33 -43.357 416.35 -43.357 360.51 -2.7868 381.84 62.857 326 22.287 270.16 62.857 291.49 -2.7868 235.65 -43.357 304.67 -43.357" fill="#fff"/><polygon transform="matrix(.437 0 0 .437 343.34 429.92)" points="326 -109 347.33 -43.357 416.35 -43.357 360.51 -2.7868 381.84 62.857 326 22.287 270.16 62.857 291.49 -2.7868 235.65 -43.357 304.67 -43.357" fill="#fff"/><polygon transform="matrix(.437 0 0 .437 419.29 484.54)" points="347.33 -43.357 416.35 -43.357 360.51 -2.7868 381.84 62.857 326 22.287 270.16 62.857 291.49 -2.7868 235.65 -43.357 304.67 -43.357 326 -109 326 -109" fill="#fff"/></g></svg>