<svg xmlns="http://www.w3.org/2000/svg" height="480" width="640"><defs><clipPath id="a"><rect fill-opacity=".67" height="512" width="682.67" x="-90.533"/></clipPath></defs><g clip-path="url(#a)" fill-rule="evenodd" transform="matrix(.938 0 0 .938 84.875 0)"><path d="M-178 0l428.8 256-428.8 256z" fill="#00cf00"/><path d="M679.6 0l-428.8 256 428.8 256z" fill="#00cf00"/><path d="M-178 0l428.8 256 428.8-256z" fill="#f00"/><path d="M-178 512l428.8-256 428.8 256z" fill="#f00"/><path d="M679.6 0h-79.902l-777.7 464.3v47.703h79.902l777.7-464.3z" fill="#fff"/><path d="M398.855 255.999c0 81.767-66.285 148.052-148.052 148.052s-148.052-66.285-148.052-148.052 66.285-148.052 148.052-148.052 148.052 66.285 148.052 148.052z" fill="#fff"/><path d="M-178 0v47.703l777.7 464.3h79.902v-47.703l-777.7-464.3z" fill="#fff"/><polygon transform="matrix(2.926 0 0 2.926 -112.92 -109.58)" stroke="#00de00" points="134.28 105.87 127.7 105.98 124.3 111.6 120.91 105.97 114.34 105.83 117.52 100.08 114.36 94.312 120.93 94.199 124.34 88.574 127.73 94.212 134.3 94.352 131.11 100.1" stroke-width="1pt" fill="#f00"/><polygon transform="matrix(2.926 0 0 2.926 -177.42 2.04)" stroke="#00de00" points="134.28 105.87 127.7 105.98 124.3 111.6 120.91 105.97 114.34 105.83 117.52 100.08 114.36 94.312 120.93 94.199 124.34 88.574 127.73 94.212 134.3 94.352 131.11 100.1" stroke-width="1pt" fill="#f00"/><polygon transform="matrix(2.926 0 0 2.926 -46.85 2.04)" stroke="#00de00" points="134.28 105.87 127.7 105.98 124.3 111.6 120.91 105.97 114.34 105.83 117.52 100.08 114.36 94.312 120.93 94.199 124.34 88.574 127.73 94.212 134.3 94.352 131.11 100.1" stroke-width="1pt" fill="#f00"/></g></svg>