<svg xmlns="http://www.w3.org/2000/svg" height="480" width="640">
  <g clip-path="url(#a)" fill-rule="evenodd">
    <path d="M-82 0l402 240-402 240z" fill="#00cf00"/>
    <path d="M722 0l-402 240 402 240z" fill="#00cf00"/>
    <path d="M-82 0l402 240 402-240z" fill="#f00"/>
    <path d="M-82 480l402-240 402 240z" fill="#f00"/>
    <path d="M722 0h-74.908l-729.094 435.281v44.722h74.908l729.094-435.281z" fill="#fff"/>
    <path d="M458.832 240.013c0 76.661-62.145 138.807-138.807 138.807s-138.807-62.145-138.807-138.807 62.145-138.807 138.807-138.807 138.807 62.145 138.807 138.807z" fill="#fff"/>
    <path d="M-82 0v44.722l729.094 435.281h74.908v-44.722l-729.094-435.281z" fill="#fff"/>
    <path stroke="#00de00" stroke-width="NaN" fill="#f00" d="M347.343 187.67l-18.049.302-9.326 15.416-9.299-15.443-18.022-.384 8.723-15.772-8.668-15.822 18.022-.31 9.354-15.429 9.299 15.465 18.022.384-8.75 15.767z"/>
    <path stroke="#00de00" stroke-width="NaN" fill="#f00" d="M286.874 292.314l-18.049.302-9.326 15.416-9.299-15.443-18.022-.384 8.723-15.772-8.668-15.822 18.022-.31 9.354-15.429 9.299 15.465 18.022.384-8.75 15.767z"/>
    <path stroke="#00de00" stroke-width="NaN" fill="#f00" d="M409.283 292.314l-18.049.302-9.326 15.416-9.299-15.443-18.022-.384 8.723-15.772-8.668-15.822 18.022-.31 9.354-15.429 9.299 15.465 18.022.384-8.75 15.767z"/>
  </g>
</svg>
