<svg xmlns="http://www.w3.org/2000/svg" id="flag-icon-css-bm" width="640" height="480">
  <path fill="#cf142b" d="M0 0h640v480H0z"/>
  <path fill="#00247d" d="M0 0h320v160H0z"/>
  <path fill="#fff" d="M0 0v17.89L284.22 160H320v-17.89L35.78 0H0zm320 0v17.89L35.78 160H0v-17.89L284.22 0H320z"/>
  <path fill="#fff" d="M133.33 0v160h53.34V0h-53.34zM0 53.33v53.34h320V53.33H0z"/>
  <path fill="#cf142b" d="M0 64v32h320V64H0zM144 0v160h32V0h-32zM0 160l106.67-53.33h23.85L23.85 160H0zM0 0l106.67 53.33H82.82L0 11.93V0zm189.48 53.33L296.15 0H320L213.33 53.33h-23.85zM320 160l-106.67-53.33h23.85l82.82 41.4V160z"/>
  <path fill="#fff" d="M553.83 148.26v135.51c0 36.2-72.36 47.96-72.36 47.96s-72.36-11.76-72.36-47.96V148.26h144.72z"/>
  <path fill="#2f8f22" d="M553.83 283.77c0 36.2-72.36 47.96-72.36 47.96s-72.36-11.76-72.36-47.96c0 0 0-2.91 1.47-4.57 0 0-.8 6.02 3.83 10.57 0 0-3.63-6.42-.08-12.73 0 0-1.31 8.12 3.75 12.78 0 0-2.79-6.63.36-14.03 0 0-1.56 12.1 3.95 14.52 0 0 1.51-6.96-.68-11.42 0 0 3.79 1.53 3.59 11.62 0 0 1.2-1.49 1.51-8.77 0 0 .16 8.33 3.03 10.26 0 0 .88-.85-.32-4.63s.52-5.1.8-5.02c0 0-.63 4.18 2.88 7.32 0 0-1.52-6.56.6-7.44 0 0-.45 5.55 3.94 6.8 0 0 .32-1.62-.64-3.43 0 0-.84-2.14-.2-3.78 0 0 1.4 5.03 3.31 5.88 0 0-1.16-2.95-.08-5.88 0 0 .24 4.19 3.99 5.92 0 0-2.47-3.25-1.5-6.81l24.1 1.18 12.49.6 37.44-2.66 6.46-5.55s2.55 3.54-1.48 9.13c0 0 4-.72 5.27-6.95 0 0 1.63 3.45-.6 7.28 0 0 4.43-4.43 5.06-9.45 0 0 1.72 4.86-2.47 10.09 0 0 3.75-1.25 5.34-6.8 0 0 1.28 3.35-2.35 8.07 0 0 6.78-3.6 6.58-11.04 0 0 2.83 4.1-.4 9.73 0 0 3.47-3.1 3.8-7.72 0 0 1.9 2.09-.17 7.84 0 0 4.23-3.98 4.87-8.29 0 0 .91 3.98-2.71 9.01 0 0 2.47-.6 4.82-5.5 0 0 .64 1.92-1.52 5.46 0 0 2.32-.4 3.87-4.82 0 0 .28 2.65-.4 5.02 0 0 1.8-1.16 2.2-6.19 0 0 1 1.65 1.02 3.7v.7z"/>
  <path fill="#d40000" stroke="#000" stroke-linejoin="round" stroke-width=".53" d="M516.57 205.44s-2.52.42-5.75-.56c-3.22-.99-4.53-.59-5.53 0 0 0 1.3-2.6-1.88-4.65 0 0 1.04 2.62-.4 3.85 0 0-.64.6-1.4-.3 0 0-1.11-1.15-2.29-2.04 0 0 2.71-.94 2.22-3.7-.5-2.75-1.98-3.11-2.77-3.45 0 0 .27 1.24 0 2.09 0 0-2.96-1.65 1.05-3.98 4-2.34 3.27-3.7 2.55-4.89a10.96 10.96 0 0 0-3-2.95s.79 1.24.65 2.3c-.14 1.07-1.96 1.76-1.6-.11.36-1.87-.02-1.55-.06-3.54 0 0 3.57 1.2 4.97-2.27 0 0 1.37-3.6-3.13-5.4 0 0 1.1 1.48.55 2.58 0 0-.95 1.81-2.09.34s-1.85-1.75-1.73-3.48c0 0 4.08.57 2.97-3.88 0 0-.66 2.96-5.96-1.02 0 0 3.44-3.54 2.1-6.4 0 0-.41-1.3-4.16-.54 0 0 3.25-2.05 1.88-3.8 0 0-.7-1.16-3.73.37 0 0 1.17-2.03-1.8-4.23 0 0-2 1.05-3.05 2.01 0 0-2.03-2.57-3.33-3.6 0 0-2.35.91-2.95 3.6 0 0-1.1-1.3-3.59-1.9 0 0-1.2 2.2.36 4.14 0 0-1.15-.05-3.27-.97 0 0-2.4-1.15-2.05.92.36 2.07.54 2.54 1.02 3.5 0 0-5.42-1.25-5.19 1.67a7.4 7.4 0 0 0 2.6 5.25s-3.04 3.96-5.63.98c0 0-.9.97 1.04 3.5 0 0 1.93 2.13.34 3.48 0 0-2.14 1.7-3.17-1.6 0 0-3.45 3.43.62 6.06 0 0 2.6 1.5 5.28-.8 0 0-.82 6.6-3.37 5.32 0 0-1.53-1.12 1.22-2.47 0 0-3.97-.5-4.6 3.34 0 0-.5 3.05 2.96 4.16 0 0 2.67.97-.1 3.04 0 0-1.95 1.49-.68 3.7 0 0 1.54 2.43-2.35 2.67 0 0-2.11-.02-2.87-.3 0 0-.85 1.58-.26 3.4 0 0-1.93-1.45-6.34.15-4.4 1.6-4.07.47-4.42.95-.36.49-1.22 2.11-1.22 2.11s2.31 2.82 2.35 2.76c.04-.06-.44 3.22-.44 3.22l1.14.54 9.07-4.04 9.21-4.8 7.4.45 4.7 1.12 6.17.45 4.42-2.36h6.4l7.04 3.51 8.03 4.8 4.19.73 3.22-.17v-6.5l-1.57-2.36z"/>
  <path fill="#d40000" stroke="#000" stroke-linejoin="round" stroke-width=".53" d="M443.5 213.04s3.51 1.8 4.98-.38c0 0 1.91-3.65-2.3-4.91 0 0 2.3-2.75-.16-5.28 0 0-1.28-1.36-3.53-.36 0 0-.92-1.93-3.1-1.87 0 0-1.92-.03-2.58 2.08 0 0-2.63-1.09-4.1.48 0 0-2.42 2.72.96 4.86l2.43.22 2.4-1.1 2.67.76s-.69 2.7 2.33 5.5z"/>
  <path fill="#64b4d1" stroke="#000" stroke-width=".4" d="M521.83 206.63a5.6 5.6 0 0 1 5.72 3.17c2.22 5.2-2.49 7.97-2.49 7.97.36 1.16.4 2.7.4 2.7 6.62.8 5.46 8.24 5.46 8.24l-2.2-1.81c-3.82-1.5-7.77 1.77-10.6 7.23-2.83 5.47-1.47 8.05-1 14.52.49 6.47 11.01 10.33 11.01 10.33s-4.98 12.83-8.21 21.07c-3.23 8.25-9.97 4.83-11.93 3.1-1.95-1.75-2.44-.78-3.43 0-.98.76 4.43 4.98-5.42 8.97-9.85 3.98-11.56 7.03-13.2 8.04-1.63 1-8.45.32-9.13-.53-.67-.84-.28-.84-2.83-2.4-2.55-1.58-6.86-2.94-11.56-5.24-4.7-2.29-4.59-5.22-4.55-5.83.04-.6 1.64-5.5-3.87-1.6s-10.2-1.86-10.2-1.86c-1.08-1.42-5.66-13.7-5.66-13.7a77.5 77.5 0 0 0-3.67-9.94c.12-.04-.24.56 3.83-1.77 4.06-2.33 5.88-6.2 7.3-10.05 1.4-3.84.03-10.41-.49-11.74s-3.55-7.41-7.3-8.69c-3.75-1.27-6.27 1.9-6.27 1.9s-1.15-7.45 5.46-8.25c0 0 .04-1.53.4-2.7 0 0-4.7-2.77-2.49-7.97 0 0 1.5-3.56 5.72-3.17l-1.02 1.94s-1.06 10.61 14.48 3.5c15.53-7.12 15.07-8.45 23.92-3.98l6.46-.12s9.33-4.32 12.32-2.46c2.99 1.85 13.75 7.88 13.75 7.88s10.41 3.9 12.44-3.3l-1.15-3.46z"/>
  <path fill="#fff" stroke="#00247d" stroke-miterlimit="10" stroke-width=".53" d="M475.08 252.65s-.54-3.26-1.1-5.37c0 0-1.16-3.3.8-5.63l2.45-2.81s1.51-2.04 3.39-2.32c0 0 1.88-.05 2.05-.44.18-.38 2.24-3.76 7.12 0 0 0 1.56-2.49 3.95-2.91 0 0 2.58-.79 3.83 1.14 0 0 2.9-2.2 5.4 1.35 0 0 3.45-1.94 5.96 1.91 0 0 3.41-1.66 5.5 1.88 2.1 3.55 1.68 5 1.68 5l1.55 5.63 5.5 6.8-12.8 4.82h-5.73l-11.49 3.07-20.4 1.57-5.67-6.7 8.01-7z"/>
  <path fill="#d40000" stroke="#000" stroke-linejoin="round" stroke-width=".53" d="M457.84 286.55s-3.05.18-4.6.96c-1.56.79-2.76 1.63-4.55 2.78 0 0-.84 1.11-4.37.43 0 0-6.1-1.46-6.1 3.3 0 0-7.3.6-4.3 7 0 0 2.03 5 6.21 1.45 0 0-2.69 3.86 2.52 5.37 0 0 3.7.9 4.78-2.9 0 0 .6-1.5-.84-3.37 0 0 1.8-.36 3.05-2.3 0 0-3.82 4.84.36 6.59 0 0 5.26 1.32 5.56-4.17 0 0-.42-2.54 1.61-3.44 0 0 4.2-.97 6.11-5.64 0 0-6.03-3.21-5.44-6.06zm-12.32-48.11s-4.7-2.17-6.94 0c0 0-3.1-1.93-6.38 0 0 0-3.1 2.03-5.26 4.27 0 0-1.51 1.3-.96 5.39 0 0 .8 2.88.32 4.33 0 0-1.04-.2-3.1 2.25 0 0-2.64 3.05-4.95.36 0 0 .71 3.74 5.06 3.14 0 0-2.11 1.65-.28 5.91 0 0 1.36 3.02-.8 6.8 0 0 3.8-1.53 3.63-6 0 0-.32-3.01.8-5.14 0 0-1.12 1.94 1.48 6.07 0 0 1.99 2.98.36 6.07 0 0 3.74-1.37 3.38-5.91-.35-4.54-2.63-2.65-1.15-6.84 0 0 .36 2.15 1.47 3.23a6.07 6.07 0 0 1 1.96 5.9s2.23-2.77 1.71-5.63c-.52-2.85-1.07-3.72-1.07-3.72l7.05-4 3.51-6.35.16-10.13z"/>
  <path fill="none" stroke="#000" stroke-miterlimit="10" stroke-width=".53" d="M434.8 256.37s-2.91-.2-3.4-2.45m-5.1-1.49s1.02-.04 1.93.88c0 0 .7 1.05 1.7.93"/>
  <path d="M439.1 247.8s-1.51 0-2.35-.72c0 0-.88-.6-1.4.36 0 0-.8 1.37.68 1.97 0 0 1.84.93-1.07 2.78 0 0 3.47-1.25 2.07-2.94 0 0-1.52-1.08-.96-1.48 0 0 .16-.33.76.08.6.4 1.8.24 2.27-.04z"/>
  <path fill="#784421" stroke="#000" stroke-width=".4" d="M484.88 256.09l1.78-.6L475 215.22l-.42.12z"/>
  <path d="M446.06 300.66s-2.75-1.55-5.03.26c0 0 .24-1 1.97-1.45 0 0 .94-2.65 3.58-2.4 0 0-1.08 1.28-2.52 2.37 0 0 1.52.15 2 1.22z"/>
  <path fill="#64b4d1" stroke="#00247d" stroke-miterlimit="2.61" stroke-width=".4" d="M436.37 307.05s-4.37-2.74-2-7.35c0 0 .68-1.33 2-1.06 0 0 2.72.84.6 4.62 0 0-1.08 2.44-.6 3.8zm8.85 4.35s-6.22-2.84-4.3-7.66c0 0 .58-1.63 1.96-1.51 0 0 2.4.12 1.92 3.32 0 0-.72 3.13.42 5.85z"/>
  <path d="M443.9 293.39s-1.87 1.38-2.63 2.3c0 0-.76-.94-1.75-1.51 0 0 1.15-.15 1.76.36 0 0 .95-.92 2.63-1.15z"/>
  <path fill="#64b4d1" stroke="#00247d" stroke-miterlimit="2.61" stroke-width=".4" d="M449.44 310.19s4.87-1.24 3.97-6.27c0 0-.48-2.2-2.54-1.9 0 0-2.48.63-.87 3.83 0 0 .96 2.29-.56 4.34z"/>
  <path fill="#f5ce00" stroke="#000" stroke-miterlimit="2.61" stroke-width=".53" d="M471.46 203.65s3.14.96 4.84 1.65c0 0 4.55 2.05 10.32 0 0 0 3.9-1.54 4.43-1.66l-3 4.56-.14 2.35 1.87 2.74s-1.12.46-4.47-1.6c0 0-3.71-2.86-8.14 0 0 0-2.42 1.65-4.45 1.6l2.87-3.2-1.1-2.89-3.03-3.56z"/>
  <path fill="#fff" d="M451.32 304.17s.18-.24-.03-.34c0 0-.21-.1-.36.2 0 0-.5.8-.08 1.91 0 0 .41.77.21 1.57 0 0-.03.22.15.25 0 0 .18-.06.21-.22 0 0 .24-.78-.17-1.55 0 0-.51-1.18.07-1.82z"/>
  <path fill="#d40000" stroke="#000" stroke-linejoin="round" stroke-width=".53" d="M518.84 213.04s-3.51 1.8-4.97-.38c0 0-1.92-3.65 2.28-4.91 0 0-2.28-2.75.17-5.28 0 0 1.28-1.36 3.53-.36 0 0 .92-1.93 3.1-1.87 0 0 1.92-.03 2.58 2.08 0 0 2.63-1.09 4.1.48 0 0 2.42 2.72-.96 4.86l-2.43.22-2.4-1.1-2.67.76s.69 2.7-2.33 5.5z"/>
  <path fill="#f5ce00" stroke="#000" stroke-miterlimit="2.61" stroke-width=".53" d="M491.05 210.21s-.1.72-.8.8c0 0-.76.25-1.2-.69l-.06-.31c-.05-.44-.2-1.7 1.16-2.72 0 0 2.21-1.8 6.44.39 0 0 3.35 1.6 5.66 2.97 0 0 5.98 3.22 6.7 3.46 0 0 2.63 1.33 6.66 1.49 0 0 5.5.4 7.83-3.46 0 0 1.78-2.94 0-4.8 0 0-.71-.85-1.9-.7-.49.07-1.04.3-1.56.91 0 0-.86 1.25.14 2.18 0 0 1.3.8 1.75-.89 0 0 .02-.12.06.03.02.1.32 1.38-.37 2.47 0 0-3.32 5.02-12.45-.19l-12.04-6.75s-6.04-3.1-9.65 1.75c0 0-2.91 4.02.84 6.65 0 0 2.79 1.67 4.54-.98 0 0 1.46-2.62-.84-3.76 0 0-2-.95-2.8 1.06-.8 2.01 1.55 2.54 1.77 1.1 0 0 .06-.33.12-.01z"/>
  <path fill="#e4cb5e" stroke="#000" stroke-miterlimit="2.61" stroke-width=".4" d="M443.31 230.94v-7.54c0-.6 0-1.09.9-1.81.9-.73 1.86-1.87 3.23 1.39 0 0 2.7-2.84 3.6-3.26 0 0 1.55-1.33 2.62.6 0 0 1.44-2.17 2.58-2.71 0 0 2.69-1.75 2.8 3.5l2.1-1.94s1.62-1.32 3.41.49c0 0 3.05 2.95 3.47 3.8 0 0 .67.91.73 2.35 0 0-.01 1.63.83 2.53 0 0 .95.85 1.88 1.03 0 0 2.18.06 2.96 2.1 0 0 .36-.35 1.43 9.48v17.91l-12.08 14.42-19.38-5.55-7.71-3.2-1.74-5.67 7.48-4.82 4.07-10.98-1.32-7.72-1.85-4.4z"/>
  <path fill="#784421" stroke="#000" stroke-width=".4" d="M496.71 240.45l.92-1.37 2.19-1.7s3.35 8.8 3.51 10.72v2.73s5.02 1.28 5.9 9l-4.15 7.64-6.5-3.62-1.87-1.37v-22.04z"/>
  <path fill="#fff" d="M435.16 300.8s.24-.32.07-.45c0 0-.1-.15-.39.2 0 0-1.32 1.48-.27 3.75 0 0 .12.33.33.22 0 0 .18-.09.02-.36 0 0-.94-1.87.24-3.36z"/>
  <path fill="none" stroke="#000" stroke-miterlimit="10" stroke-width=".53" d="M454.75 299.31s.2-.68-.28-1.4c0 0-.32-.53-.2-1.21"/>
  <path fill="none" stroke="#000" stroke-miterlimit="10" stroke-width=".4" d="M459.05 221.1s.02 1.9.56 3.28c.53 1.38 2.35 3.78 2.47 5.08"/>
  <path fill="#d40000" stroke="#000" stroke-linejoin="round" stroke-width=".53" d="M504.63 286.55s3.05.18 4.6.96c1.55.79 2.75 1.63 4.54 2.78 0 0 .84 1.11 4.37.43 0 0 6.1-1.46 6.1 3.3 0 0 7.3.6 4.3 7 0 0-2.02 5-6.21 1.45 0 0 2.7 3.86-2.51 5.37 0 0-3.71.9-4.79-2.9 0 0-.6-1.5.84-3.37 0 0-1.8-.36-3.05-2.3 0 0 3.83 4.84-.36 6.59 0 0-5.26 1.32-5.56-4.17 0 0 .43-2.54-1.61-3.44 0 0-4.2-.97-6.1-5.64 0 0 6.02-3.21 5.44-6.06z"/>
  <path fill="none" stroke="#000" stroke-miterlimit="10" stroke-width=".4" d="M456.64 229.46l4.98 40.18m-3.83-40.27l5.59 37.45m-4.54-37.62l6.43 37.14"/>
  <path fill="#784421" stroke="#000" stroke-width=".4" d="M469.01 263.14l1.78-.6-11.66-40.26-.43.11z"/>
  <path fill="none" stroke="#000" stroke-miterlimit="10" stroke-width=".4" d="M462.4 227.72l11.78 29.76m-12.56-29.28l11.36 31.08"/>
  <path fill="#fff" d="M442.97 308.54s-1.37-1.3-1.18-3.66c0 0 .08-.5-.17-.57 0 0-.27-.11-.3.47 0 0-.39 2.46 1.27 3.86 0 0 .11.14.3.1 0 0 .19-.04.08-.2z"/>
  <path fill="none" stroke="#000" stroke-miterlimit="10" stroke-width=".4" d="M462.94 227.32l12.14 27.14m-15.46-25.45l7.44 36.55"/>
  <path fill="#f5ce00" stroke="#000" stroke-miterlimit="2.61" stroke-width=".53" d="M520.53 256.09c-5.32-3.02-6.49-9.71-6.49-9.71a20.55 20.55 0 0 1 1.32-11.95c3.44-7.26 9.33-8.62 9.33-8.62s-5.77 4.01-7.38 9.4c0 0-1.26 4.56-.54 9.05.71 4.5.45 3.35 1.55 6.82l2.21 5.01z"/>
  <path fill="#784421" stroke="#000" stroke-width=".24" d="M497.63 239.08l-22.35 7.05-1.22 9.96c-5.3 7.68-16.08 9.05-16.08 9.05l8.39 8.92 16.1 3.38 8.46-6.51 7.65-7.08c-.8-3.78-.36-9.4-.36-9.4 0-.94.36-3.15.36-3.15s-1.31-9.08-.95-12.22z"/>
  <path fill="none" stroke="#000" stroke-miterlimit="10" stroke-width=".4" d="M474.37 253.59s14.72-4.6 23.5-8.29m-30.57 16.68s18.36-3.32 31.28-10.68l4.75-3.2"/>
  <path fill="none" stroke="#000" stroke-miterlimit="10" stroke-width=".4" d="M503.33 250.83l-5.1 3.63s-20.54 9.47-36.18 9.72m36.17-2.99s-15.79 8.13-24.84 8.25"/>
  <path fill="#d40000" stroke="#000" stroke-linejoin="round" stroke-width=".53" d="M517.04 238.44s4.71-2.17 6.94 0c0 0 3.11-1.93 6.38 0 0 0 3.11 2.03 5.27 4.27 0 0 1.51 1.3.95 5.39 0 0-.8 2.88-.32 4.33 0 0 1.04-.2 3.11 2.25 0 0 2.63 3.05 4.95.36 0 0-.72 3.74-5.07 3.14 0 0 2.12 1.65.28 5.91 0 0-1.35 3.02.8 6.8 0 0-3.79-1.53-3.63-6 0 0 .32-3.01-.8-5.14 0 0 1.12 1.94-1.47 6.07 0 0-2 2.98-.36 6.07 0 0-3.75-1.37-3.39-5.91.36-4.54 2.63-2.65 1.16-6.84 0 0-.36 2.14-1.48 3.23a6.07 6.07 0 0 0-1.95 5.9s-2.23-2.77-1.72-5.63 1.08-3.72 1.08-3.72l-7.06-4-3.5-6.35-.17-10.13z"/>
  <path fill="#fff" stroke="#00247d" stroke-miterlimit="10" stroke-width=".53" d="M437.1 263.87s.66-3.12 3.65-1.89c0 0 1.02-5.1 6.46-5.29 5.44-.18 5.74 5.31 5.74 5.67 0 0 1.6-2.35 4.27-2.08 0 0 4.6-.27 2.89 7.12l.87.92s3.51-8.25 10.75-6.08c0 0 7.06 2.15 2.45 8.99 0 0 3.48 4.52 6.44 4.1 2.95-.42 5.58-1.33 8.51-6.52 2.93-5.18 9.75-5.97 11.49-5.67 1.73.3 3.1 1.43 3.38 2.66 0 0 3.61-12.05 16.6-10.16l5.2 2.62 1.97.9-2.94 8.3-7.17 16.2-5.44 1.68-5.68-3.26-1.98 1.06-.16 4.85-7.5 5.4-5.2 2.14-5.74 3.92-1.33 3.5s-3.17-1.33-6.75 0l-1.19-2.9-3.35-3.19-13-6.14-2.36-7.58-2.37-1.06-2.66 3.05-3.89.45-5.8-3.92-6.16-17.8z"/>
  <path fill="none" stroke="#000" stroke-miterlimit="2.61" stroke-width=".53" d="M493.76 204.88s-4.97-.22-4.79 4.93"/>
  <path fill="#f5ce00" stroke="#000" stroke-miterlimit="2.61" stroke-width=".53" d="M526.43 259.56c-8.65-2.66-11-11.95-11-11.95a21.42 21.42 0 0 1 1.07-13.05c3.95-9.27 10.63-9.27 10.63-9.27 3.35-.1 3.75 2.77 3.75 2.77.31 2.03-1.11 2.77-1.11 2.77-2.3 1.24-3.74-.45-3.74-.45-.96-1.24-.22-2.35-.22-2.35.59-.82 1.71-.46 1.71-.46.9.27.8 1.39.8 1.39 0 .03.03.03.03.03.04-.01.02-.03.02-.03s.2-1.36-1.14-1.5c0 0-2.6-.57-5.65 3.23 0 0-4.01 5.13-4 11.77 0 0-.51 12.45 12.47 15.68 0 0-1.41 2.02-3.9 9.31 0 0-2.8 9.38-5.49 14.45 0 0-3.56 7.24-11.52 4.28 0 0-4.73-2.08-4.72-5.52 0 0-.33-3.13 2.51-3.37 0 0 2.78-.21 2.75 2.17 0 0 .08 2.58-2.96 1.99 0 0-1.06-.23-.87-1.27 0 0 .17-.93 1.45-.53l.05-.01s.01-.02-.03-.04c0 0-.5-.22-1.02-.04 0 0-.47.16-.5.9 0 0-.04.58.6.91 0 0 .76.27 1.35.21 0 0 .8 1.63 2.63 2.18 2.53.76 4.62.02 5.9-1 1.39-1.1 2.28-3.04 2.55-3.52.27-.47 2.6-5.7 4.36-11.32 0 0 1.53-4.84 2.76-7.37l.48-1z"/>
  <path fill="#f5ce00" stroke="#000" stroke-miterlimit="2.61" stroke-width=".53" d="M502.04 283.17s1.61-.22 1.61 1.22c0 0-.1 2.1-2.66 1.64 0 0-2.53-.55-1.63-3.37 0 0 .6-2 3-1.7 0 0 2.3.1 3.33 3.27 0 0 .77 2.67-.56 4.96-1.48 2.55-5.24 4.23-7.05 4.98 0 0-7.27 2.85-9.44 4.49 0 0-3.32 2.46-1.85 4.76 0 0 .57.88 1.42.88 0 0 .97.04 1.13-.95v-.05s-.02 0-.02.03c0 0-.07.6-.6.83 0 0-.71.36-1.45-.27 0 0-.8-.76-.13-1.93 0 0 .86-1.44 2.87-.59 0 0 1.77.88 1.04 2.76 0 0-.65 1.73-2.78 1.72 0 0-1.6-.05-2.64-1.13-1.6-1.68-1.69-4.95-.27-6.64 0 0 1.33-1.8 4.01-2.9 1.56-.63 4.49-1.91 7.54-3.1 2.14-.85 4.1-1.85 5.38-3.36 0 0 1.14-1.27 1.47-3.44 0 0 .31-1.63-.68-1.99 0 0-.5-.22-1.06-.15l-.01.01s-.03.03.03.02z"/>
  <path fill="none" stroke="#000" stroke-miterlimit="2.61" stroke-width=".53" d="M502.17 283.16s1.79-.32 2.9 1.8c0 0 .66 1.37.77 2.16m.58-7.59s-1.79.31-.87 2.84c.87 2.39 2.48 3.17 2.96 3.5"/>
  <path fill="#f5ce00" stroke="#000" stroke-miterlimit="2.61" stroke-width=".53" d="M471.46 210.2s.09.73.8.81c0 0 .75.24 1.19-.69l.06-.31c.05-.44.2-1.7-1.15-2.72 0 0-2.22-1.8-6.44.39 0 0-3.35 1.6-5.67 2.97 0 0-5.98 3.22-6.7 3.46 0 0-2.63 1.33-6.65 1.49 0 0-5.5.4-7.84-3.46 0 0-1.77-2.94 0-4.8 0 0 .72-.85 1.9-.7.5.07 1.04.3 1.57.92 0 0 .86 1.24-.14 2.17 0 0-1.3.8-1.75-.89 0 0-.02-.12-.06.03-.03.1-.32 1.38.37 2.47 0 0 3.32 5.02 12.45-.19l12.04-6.75s6.04-3.1 9.65 1.75c0 0 2.9 4.02-.84 6.65 0 0-2.8 1.67-4.55-.98 0 0-1.45-2.62.84-3.76 0 0 2.01-.95 2.81 1.06.8 2.01-1.55 2.54-1.77 1.1 0 0-.06-.33-.12-.01zm-29.48 45.89c5.32-3.02 6.48-9.71 6.48-9.71 1.29-6.67-1.31-11.95-1.31-11.95-3.44-7.26-9.34-8.62-9.34-8.62s5.78 4.01 7.4 9.4c0 0 1.25 4.56.53 9.05-.72 4.5-.45 3.35-1.56 6.82l-2.2 5.01z"/>
  <path fill="none" stroke="#000" stroke-miterlimit="2.61" stroke-width=".53" d="M468.75 204.88s4.96-.22 4.78 4.93"/>
  <path fill="#f5ce00" stroke="#000" stroke-miterlimit="2.61" stroke-width=".53" d="M436.08 259.56c8.64-2.66 11-11.95 11-11.95a21.42 21.42 0 0 0-1.07-13.05c-3.95-9.27-10.63-9.27-10.63-9.27-3.35-.1-3.75 2.77-3.75 2.77-.31 2.03 1.11 2.77 1.11 2.77 2.3 1.24 3.74-.45 3.74-.45.95-1.24.22-2.35.22-2.35-.6-.82-1.72-.46-1.72-.46-.89.27-.8 1.39-.8 1.39 0 .03-.02.03-.02.03-.04-.01-.02-.03-.02-.03s-.2-1.36 1.13-1.5c0 0 2.6-.57 5.66 3.23 0 0 4.01 5.13 4 11.77 0 0 .51 12.45-12.47 15.68 0 0 1.4 2.02 3.89 9.31 0 0 2.81 9.38 5.5 14.45 0 0 3.56 7.24 11.52 4.28 0 0 4.73-2.08 4.72-5.52 0 0 .33-3.13-2.51-3.37 0 0-2.78-.21-2.75 2.17 0 0-.08 2.58 2.96 1.99 0 0 1.06-.23.87-1.27 0 0-.17-.93-1.45-.53l-.05-.01s-.02-.02.03-.04c0 0 .5-.22 1.02-.04 0 0 .47.16.5.9 0 0 .03.58-.6.91 0 0-.76.27-1.35.21 0 0-.8 1.63-2.63 2.18a6.35 6.35 0 0 1-5.9-1c-1.39-1.1-2.28-3.04-2.55-3.52a95.2 95.2 0 0 1-4.36-11.32s-1.53-4.84-2.76-7.37l-.48-1z"/>
  <path fill="#f5ce00" stroke="#000" stroke-miterlimit="2.61" stroke-width=".53" d="M460.47 283.17s-1.62-.22-1.62 1.22c0 0 .1 2.1 2.66 1.64 0 0 2.53-.55 1.63-3.37 0 0-.6-2-2.99-1.7 0 0-2.31.1-3.33 3.27 0 0-.78 2.67.55 4.96 1.49 2.55 5.25 4.23 7.06 4.98 0 0 7.27 2.85 9.44 4.49 0 0 3.32 2.46 1.85 4.76 0 0-.57.88-1.42.88 0 0-.98.04-1.14-.95l.01-.05s.02 0 .02.03c0 0 .07.6.6.83 0 0 .7.36 1.45-.27 0 0 .79-.76.13-1.93 0 0-.86-1.44-2.87-.59 0 0-1.77.88-1.04 2.76 0 0 .64 1.73 2.78 1.72 0 0 1.6-.05 2.63-1.13 1.6-1.68 1.7-4.95.28-6.64 0 0-1.34-1.8-4.02-2.9-1.55-.63-4.49-1.91-7.54-3.1-2.14-.85-4.1-1.85-5.38-3.36 0 0-1.14-1.27-1.47-3.44 0 0-.3-1.63.68-1.99 0 0 .5-.22 1.06-.15l.02.01s.02.03-.03.02z"/>
  <path fill="none" stroke="#000" stroke-miterlimit="2.61" stroke-width=".53" d="M460.33 283.16s-1.78-.32-2.9 1.8c0 0-.66 1.37-.76 2.16m-.58-7.59s1.78.31.86 2.84c-.86 2.38-2.47 3.16-2.95 3.5m22.93-76.35s4.32-2.7 8.74.29"/>
  <path fill="none" stroke="#000" stroke-miterlimit="2.61" stroke-width=".4" d="M452.35 235.94s.6-2.4-2.15-6.63c0 0-1.8-3.86-2.75-6.33m6.22-2.66s1.55 3.8 2.09 5.5c0 0 1.93 4.76 2.34 5.72"/>
  <path fill="none" stroke="#000" stroke-miterlimit="10" stroke-width=".4" d="M454.44 238.6s1.63 1.75 1.44 4.7m-6.82-6.57s1.8.86 1.68 5.63c0 0-.18 3.47 2.5 5.22m-4.42 1.23s5.61-.61 5.92 2.85c0 0 .12 3.31 2.04 3.68 0 0 2.86.27 3.43 2.92m-9.62-5.61s.98 1.48 1.94 2.11m5.26-5.76s1.43 2.16 1.7 3.43m4.48-29.45s1.32 1.79 2.6 2.63m2.67 7.96s2.79 1.37 2.31 8.4c0 0-.36 4.13.8 6.39"/>
  <path fill="#784421" stroke="#000" stroke-width=".4" d="M456.09 228.8l.18.66s5 .2 7.7-3.2l-.29-.65s-4.36-.22-7.6 3.18z"/>
  <path fill="none" stroke="#000" stroke-miterlimit="10" stroke-width=".4" d="M474.12 255.64s17.3-5.16 23.97-8.16"/>
  <path fill="#784421" stroke="#000" stroke-width=".24" d="M472.26 223.72l-.2-.56 8.56-3.26.2.57z"/>
  <path fill="none" stroke="#000" stroke-miterlimit="10" stroke-width=".4" d="M472.99 223.45l5.68 27.85m-4.7-28.23l6.51 27.73m-5.4-28.15l7.12 27.53m-4.33-28.59l9.7 20.66m-8.42-21.14l10.35 20.54m-9.4-20.9l11.2 20.33m-13.02 10.44l4.4-1.44m-7.72-1.31s12.87-3.76 22.61-7.7m-22.78 9.1s16.31-4.3 22.78-7.46m-17.8 20.74l.85 2.61 2.33-.75-.8-2.59m4.2-1.15l.86 2.61 2.33-.74-.8-2.6m-13.46-14.7l-.2-3.54 21.39-6.5 1.16 2.98m-13.48.76l1.17 3.13m6.31-5.4l1.36 2.97m.41-3.5l1.28 2.8m.42-3.32l1.34 2.94M496.47 236.1l2.35-1.32 1 2.61m-2.2-1.94l1.2 2.7"/>
  <path fill="none" stroke="#00247d" stroke-miterlimit="10" stroke-width=".53" d="M444.57 276.17s-4.18-4.24 0-8.39c0 0-4.54-2.22-3.82-5.8m11.3 17.55s-4.33.6-3.05-7.85c0 0-1.8 3.35-2.41 5.07a3.85 3.85 0 0 0 1.68 4.49c.73.45 4.62 1.46 5.87-1.12m-6.93-13.5s-1.77 1.62-.51 4.6m2.33-4.22s.21 2.9 1.65 4.53m-.41-5.67s-.01 3.4 2.44 5.52m-1.22-6.7s.02 3.83 2.86 6.19m11.25-.58s1.43-3.14 4.45-2.98c0 0-1.46.66-1.43 2.13 0 0-.18 2.42 2.42 2.66 0 0 2.1.27 3.14-.87"/>
  <path fill="none" stroke="#00247d" stroke-miterlimit="10" stroke-width=".53" d="M472.75 284.62s-7.45-3.5-6.67-8.54c0 0 .3-3.07 3.3-4.52m-1.57 3.2s-.66 2.17.81 3.68m.87-5.16s-.9 2.38.6 4.16m1.19-5.32s-1.08 1.97.21 3.75m-7 9.26s4.07 3.53 7.24 3.56m-8.52-2.44s3.8 3.07 6.17 3.53m-7.61-2.66s4.7 4.13 7.61 4.43m11.5 3.8s-4.62 2.5-1.04 5.12m-1.89-7.86s5.23-2.74 7.5-3.77m-5.62 5.19s7.57-4.62 9.81-5.61m-5.92 5.9s6.46-4.3 9.93-6.17m-5.65 6.03s4.45-3.5 8.76-6.03m1.52-4.38s-2.18-3.2-9.36 0c0 0 2.63-2.38 7.84-4.24M504 265.8s.6 2.6-.04 4.16"/>
  <path fill="none" stroke="#00247d" stroke-miterlimit="10" stroke-width=".53" d="M492.36 278.38s1.5-2.2 5.3-3.3c0 0 1.02 2.57 3.97 2 0 0 4.46-.88 3.11-5.76 0 0-.92-3.65-6.01-4.01m15.14-6.12s5.17.93 5.08 5.15c0 0 .42 6.34-6.25 7.57m5.51-10.12s1.42-3.09 4.6-4.36m-3.86-1.8s1.42 2.26 2.38 2.6m-3.12-.8s1.34 1.63 1.78 1.9m-2.2-.33s.7 1.04 1.32 1.37m-27.94-25.85s1-1.63 3.5-.94m10.22 13.19s1.59-6.61 7.12-4.17m-2.24-.54s.57-3.05-.8-4.6m-2.97 4.38s.7 1.26.1 2.3"/>
  <path fill="#64b4d1" stroke="#00247d" stroke-miterlimit="2.61" stroke-width=".4" d="M517.25 311.4s6.22-2.84 4.3-7.66c0 0-.59-1.63-1.97-1.51 0 0-2.4.12-1.92 3.31 0 0 .72 3.14-.41 5.85z"/>
  <path fill="#fff" d="M519.5 308.54s1.37-1.3 1.17-3.66c0 0-.08-.5.17-.57 0 0 .27-.11.31.47 0 0 .38 2.46-1.27 3.86 0 0-.12.14-.3.1 0 0-.2-.04-.08-.2z"/>
  <path fill="#64b4d1" stroke="#00247d" stroke-miterlimit="2.61" stroke-width=".4" d="M526.1 307.05s4.36-2.74 2-7.35c0 0-.69-1.33-2-1.06 0 0-2.73.84-.6 4.62 0 0 1.07 2.44.6 3.8z"/>
  <path fill="#fff" d="M527.19 300.8s-.24-.32-.08-.46c0 0 .1-.15.4.21 0 0 1.31 1.48.26 3.75 0 0-.12.33-.33.22 0 0-.18-.09-.01-.36 0 0 .94-1.87-.24-3.37z"/>
  <path fill="#64b4d1" stroke="#00247d" stroke-miterlimit="2.61" stroke-width=".4" d="M513.03 310.19s-4.88-1.24-3.98-6.27c0 0 .48-2.2 2.54-1.9 0 0 2.49.63.87 3.83 0 0-.96 2.29.57 4.34z"/>
  <path fill="#fff" d="M511.14 304.17s-.18-.24.03-.34c0 0 .21-.1.36.2 0 0 .51.8.08 1.91 0 0-.4.77-.2 1.57 0 0 .02.22-.16.25 0 0-.17-.06-.2-.22 0 0-.25-.78.17-1.55 0 0 .5-1.18-.08-1.82z"/>
  <path d="M516.53 300.66s2.75-1.55 5.02.26c0 0-.23-1-1.97-1.45 0 0-.94-2.65-3.57-2.4 0 0 1.08 1.28 2.51 2.37 0 0-1.51.15-2 1.22zm2.03-7.27s1.87 1.38 2.63 2.3c0 0 .76-.94 1.76-1.51 0 0-1.15-.15-1.76.36 0 0-.95-.92-2.63-1.15z"/>
  <path fill="none" stroke="#000" stroke-miterlimit="10" stroke-width=".53" d="M507.71 299.31s-.2-.68.28-1.4c0 0 .32-.53.2-1.21m19.58-40.33s2.91-.2 3.39-2.45m5.1-1.49s-1.01-.04-1.93.88c0 0-.7 1.05-1.7.93"/>
  <path d="M523.47 247.8s1.51 0 2.35-.72c0 0 .87-.6 1.4.36 0 0 .8 1.37-.68 1.97 0 0-1.84.93 1.07 2.78 0 0-3.47-1.25-2.07-2.94 0 0 1.51-1.08.95-1.48 0 0-.16-.33-.75.08-.6.4-1.8.24-2.28-.04z"/>
  <path fill="#64b4d1" stroke="#00247d" stroke-miterlimit="2.61" stroke-width=".4" d="M525.53 211.19s.68-.93.4-3.73 2.15-3.11 3.08-2.31c0 0 .96.84.08 2.6a7.06 7.06 0 0 1-3.56 3.44z"/>
  <path fill="#fff" d="M526.44 209.1s.9-.98.47-3.1c0 0 0-.2.12-.22 0 0 .22-.06.26.15 0 0 .49 2.27-.54 3.5 0 0-.19.18-.31 0 0 0-.14-.13 0-.33z"/>
  <path fill="#64b4d1" stroke="#00247d" stroke-miterlimit="2.61" stroke-width=".4" d="M524.75 210.17s-.07-1.12-2.02-3.04c-1.95-1.91-.34-3.68.85-3.66 0 0 1.23.02 1.68 1.9.25 1.09.47 2.59-.5 4.8z"/>
  <path fill="#fff" d="M524.45 207.72s.03-1.38-1.73-2.82c0 0-.14-.16-.06-.25 0 0 .13-.2.3-.05 0 0 1.9 1.52 1.94 3.18 0 0-.02.27-.24.2 0 0-.19-.01-.21-.25z"/>
  <path fill="#64b4d1" stroke="#00247d" stroke-miterlimit="2.61" stroke-width=".4" d="M522.1 209.32s-.5-.91-2.9-1.77c-2.41-.85-1.76-2.95-.75-3.4 0 0 1.05-.46 2.18.95a6.43 6.43 0 0 1 1.48 4.23z"/>
  <path fill="#fff" d="M521.05 207.64s-.54-1.27-2.74-1.82c0 0-.2-.1-.17-.2 0 0 .04-.23.26-.17 0 0 2.35.56 3.1 2.05 0 0 .08.25-.14.28 0 0-.18.07-.3-.14z"/>
  <path fill="#64b4d1" stroke="#00247d" stroke-miterlimit="2.61" stroke-width=".4" d="M523.61 210.24s-1.12.32-3.7-.92c-2.57-1.24-3.7.92-3.24 2.07 0 0 .47 1.2 2.46.99a7.05 7.05 0 0 0 4.48-2.14z"/>
  <path fill="#fff" d="M517.63 211.06s1.16.72 3.28-.1c0 0 .22-.04.25.08 0 0 .1.2-.11.28 0 0-2.26.9-3.7.11 0 0-.22-.15-.06-.3 0 0 .11-.17.33-.07z"/>
  <path fill="none" stroke="#000" stroke-miterlimit="2.61" stroke-width=".53" d="M519.85 202.1s1.28.63.98 2.14"/>
  <path fill="none" stroke="#000" stroke-miterlimit="10" stroke-width=".53" d="M525.53 202.32s.5 1.59-.05 2.45"/>
  <path fill="#64b4d1" stroke="#00247d" stroke-miterlimit="2.61" stroke-width=".4" d="M436.82 211.19s-.69-.93-.4-3.73c.27-2.8-2.15-3.11-3.09-2.31 0 0-.96.84-.07 2.6a7.06 7.06 0 0 0 3.56 3.44z"/>
  <path fill="#fff" d="M435.9 209.1s-.9-.98-.47-3.1c0 0 0-.2-.12-.22 0 0-.22-.06-.26.15 0 0-.49 2.27.54 3.5 0 0 .19.18.32 0 0 0 .13-.13 0-.33z"/>
  <path fill="#64b4d1" stroke="#00247d" stroke-miterlimit="2.61" stroke-width=".4" d="M437.6 210.17s.06-1.12 2.01-3.04c1.95-1.91.35-3.68-.85-3.66 0 0-1.23.02-1.68 1.9a6.95 6.95 0 0 0 .51 4.8z"/>
  <path fill="#fff" d="M437.9 207.72s-.04-1.38 1.72-2.82c0 0 .15-.16.06-.25 0 0-.13-.2-.3-.05 0 0-1.9 1.52-1.94 3.18 0 0 .02.27.24.2 0 0 .2-.01.22-.25z"/>
  <path fill="#64b4d1" stroke="#00247d" stroke-miterlimit="2.61" stroke-width=".4" d="M440.24 209.32s.5-.91 2.9-1.77c2.41-.85 1.76-2.95.75-3.4 0 0-1.05-.46-2.17.95a6.43 6.43 0 0 0-1.48 4.23z"/>
  <path fill="#fff" d="M441.29 207.64s.55-1.27 2.75-1.82c0 0 .2-.1.16-.2 0 0-.04-.23-.25-.17 0 0-2.36.56-3.1 2.05 0 0-.09.25.13.28 0 0 .19.07.31-.14z"/>
  <path fill="#64b4d1" stroke="#00247d" stroke-miterlimit="2.61" stroke-width=".4" d="M438.73 210.24s1.12.32 3.7-.92c2.57-1.24 3.7.92 3.25 2.07 0 0-.47 1.2-2.47.99a7.05 7.05 0 0 1-4.48-2.14z"/>
  <path fill="#fff" d="M444.72 211.06s-1.17.72-3.29-.1c0 0-.21-.04-.25.08 0 0-.1.2.11.28 0 0 2.26.9 3.7.11 0 0 .22-.15.06-.3 0 0-.1-.17-.33-.07z"/>
  <path fill="none" stroke="#000" stroke-miterlimit="2.61" stroke-width=".53" d="M442.5 202.1s-1.29.63-.99 2.14"/>
  <path fill="none" stroke="#000" stroke-miterlimit="10" stroke-width=".53" d="M436.81 202.32s-.5 1.59.06 2.45"/>
  <path d="M492.63 187.69s.82 2.33.47 4.43c-.32 1.89.11 2.38.8 2.75.58.32 1.95-.24 2.11-1.72 0 0 1.62 3.15-1.52 5.28 0 0-2.26 1.38-4.17-.47-.68-.65-.98-2.46-.65-4.13 0 0 .5-2.27-.33-4.6 0 0 1.29 1.37.96 4.1 0 0-.66 4.91 2.98 4.67 0 0 2.5-.03 2.58-3.07 0 0-.94 1.08-2.1.72a2.09 2.09 0 0 1-1.46-2.31c.14-1.32.51-3.63.33-5.65zm-4.11 8.06s-.2 3.88-3.75 4.83c0 0 .5-.7-.3-2.64 0 0-.78-1.12-.72-2.87 0 0-1.13.88.16 3.22.78 1.4.1 3.1-.14 3.15-.24.06 5.86-.8 4.75-5.69zm-4.61-3.86s-.86-.96-.92-3.2c-.06-2.23-.48-2.77-.77-3.03 0 0 .43 1.93.31 3.12-.12 1.18.08 1.87.24 2.43 0 0-1.93.3-3.15-2.52-1.16-2.69-2.33-2.47-2.9-2.45 0 0 .67.08 2.03 2.53 1.35 2.46 1.73 2.96 5.16 3.12zm-9.05-5.83s1.12 2.68 1.16 4.08c0 0-2.6-.86-3.3-3.11 0 0-2.76.94-1.75 4.14 0 0-2.39-.85-3.47-2.8 0 0 1.34 1 2.57 1.45 0 0-.14-2.57 3.1-3.54 0 0 .47 2.3 2.09 2.86 0 0-.12-1.45-.4-3.08zm4.27-4.58s.9 1.3 2.73 1.37c.87.03 1.82-.17 2.73-1.37 0 0-.12 2.27-2.73 2.29 0 0-2.73.1-2.73-2.3zm-11.3 15.53s1.36 1.24 1.64 1.64c0 0 .96.94 1.78-.27 0 0 1.05-1.94 2.33-1.88 0 0-.9.63-1.93 2.46 0 0-.28.67-1.04.75-.36.03-.8.15-1.5-.56 0 0-.58-.72-1.28-2.14zm14.03-24.64c-2.73 0-.43 2.11-.43 2.11.06 3.35-2.63 4.38-4.46 3.41-1.83-.97-.4-3.4-.4-3.4s-2.06 1.35-.74 3.3c1.31 1.97 4.76 1.1 6.03-.72 1.26 1.81 4.71 2.69 6.03.73 1.31-1.96-.75-3.32-.75-3.32s1.43 2.44-.4 3.4c-1.83.98-4.51-.05-4.45-3.4 0 0 2.3-2.11-.43-2.11zm1.65-3.62s.96 1.63.75 4.1c0 0 .86-2.47-.75-4.1zm-8.37 3.83s-.21-1.78-1.95-1.93c0 0 1.47 1.06 1.95 1.93zm13.46 0s.2-1.78 1.94-1.93c0 0-1.47 1.06-1.94 1.93zm-16.21 2.72s1.37.42 2.21-.6c0 0-1.59.42-2.21.6zm-4.46-10.92s1.6-.18 3.2 2.2c0 0-1.58.84-1.97 1.36 0 0 0-.79.77-1.48 0 0-.3-1.2-2-2.08zm26.8 0s-1.6-.18-3.2 2.2c0 0 1.58.84 1.97 1.36 0 0 0-.79-.78-1.48 0 0 .3-1.2 2-2.08zm-12.35 1.78s1.43.4 3.23-.6c0 0 2.2-1.18 3.61 0 0 0-1.22-.55-3.59.6 0 0-2.36 1.3-3.25 0z"/>
  <path fill="#fff" d="M483.87 167.6s1.23-2.14 4.96-1.72c0 0-1.01 3-4.96 1.73z"/>
  <ellipse cx="486.45" cy="166.94" fill="#784421" rx=".74" ry=".94"/>
  <ellipse cx="486.45" cy="166.94" rx=".44" ry=".57"/>
  <path d="M475.86 163.02s2.36.15 3.8 1.06c0 0 1.52.9 3.25-.4 0 0 1.89-1.08 3.1-2.59 0 0-2.89 2-3.96 2.3 0 0-1-.76-1.38-1.85 0 0 .15-.8 1.7-2.32 0 0-2.09.64-2.5 2.41 0 0 .38 1.1 1.19 1.94 0 0-.39.18-1.4-.46 0 0-2.22-.75-3.8-.09zm6 14.19c-2.05 1.77 0 1.58 0 1.58s2.04.18 0-1.58zm-1.19-11.05s-1.43.4-3.23-.6c0 0-2.2-1.18-3.62 0 0 0 1.23-.55 3.6.6 0 0 2.36 1.3 3.25 0z"/>
  <path fill="#fff" d="M479.18 167.6s-1.23-2.14-4.96-1.72c0 0 1.01 3 4.96 1.73z"/>
  <ellipse cx="476.6" cy="166.94" fill="#784421" rx=".74" ry=".94"/>
  <ellipse cx="476.6" cy="166.94" rx=".44" ry=".57"/>
  <path fill="none" stroke="#000" stroke-width="1.28" d="M554.06 148.26v135.51c0 36.2-72.36 47.96-72.36 47.96s-72.36-11.76-72.36-47.96V148.26h144.72z"/>
</svg>
