<svg xmlns="http://www.w3.org/2000/svg" height="480" width="640" version="1">
    <g>
        <path fill-rule="evenodd" fill="#229e45" d="M0 0h640v480h-640z"/>
        <g>
            <path d="M321.406 435.935l301.482-195.671-303.307-196.2-302.473 196.671 304.298 195.2z" fill-rule="evenodd" fill="#f8e509"/>
            <path d="M452.731 239.952c0 70.313-57.099 127.314-127.534 127.314-70.436 0-127.534-57-127.534-127.314s57.099-127.314 127.534-127.314c70.436 0 127.534 57 127.534 127.314z" fill-rule="evenodd" fill="#2b49a3"/>
            <path fill="#ffffef" fill-rule="evenodd" d="M283.236 316.306l-3.94-2.275-4.092 2.025.916-4.549-3.161-3.334 4.52-.53 2.123-4.08 1.893 4.221 4.459.81-3.344 3.132z"/>
            <path fill="#ffffef" fill-rule="evenodd" d="M368.708 337.95l-3.94-2.275-4.092 2.025.916-4.549-3.161-3.334 4.52-.53 2.123-4.08 1.893 4.221 4.459.81-3.344 3.132z"/>
            <path fill="#ffffef" fill-rule="evenodd" d="M331.842 303.378l-3.403-1.965-3.535 1.75.791-3.93-2.73-2.88 3.904-.458 1.833-3.525 1.636 3.646 3.851.7-2.889 2.705z"/>
            <path fill="#ffffef" fill-rule="evenodd" d="M418.152 290.885l-3.341-1.929-3.471 1.717.777-3.857-2.681-2.827 3.833-.449 1.8-3.46 1.606 3.579 3.781.687-2.836 2.655z"/>
            <path fill="#ffffef" fill-rule="evenodd" d="M330.307 265.064l-3.94-2.275-4.092 2.025.916-4.549-3.161-3.334 4.52-.53 2.123-4.08 1.893 4.221 4.459.81-3.344 3.132z"/>
            <path fill="#ffffef" fill-rule="evenodd" d="M225.066 225.553l-3.94-2.275-4.092 2.025.916-4.549-3.161-3.334 4.52-.53 2.123-4.08 1.893 4.221 4.459.81-3.344 3.132z"/>
            <path fill="#ffffef" fill-rule="evenodd" d="M237.722 278.112l-3.94-2.275-4.092 2.025.916-4.549-3.161-3.334 4.52-.53 2.123-4.08 1.893 4.221 4.459.81-3.344 3.132z"/>
            <path fill="#ffffef" fill-rule="evenodd" d="M369.088 206.173l-3.48-2.009-3.615 1.789.809-4.018-2.792-2.945 3.993-.468 1.875-3.604 1.673 3.728 3.939.716-2.954 2.766z"/>
            <path fill="#ffffef" fill-rule="evenodd" d="M362.003 240.396l-2.743-1.583-2.849 1.409.638-3.165-2.2-2.32 3.146-.369 1.478-2.839 1.318 2.937 3.104.564-2.328 2.179z"/>
            <path fill="#ffffef" fill-rule="evenodd" d="M219.341 287.607l-2.632-1.518-2.734 1.352.612-3.037-2.111-2.226 3.019-.354 1.418-2.724 1.265 2.817 2.978.541-2.234 2.09z"/>
            <path fill="#ffffef" fill-rule="evenodd" d="M419.002 299.708l-2.144-1.136-2.227 1.011.499-2.272-1.72-1.665 2.46-.265 1.155-2.038 1.03 2.108 2.427.405-1.82 1.564z"/>
            <path fill="#ffffef" fill-rule="evenodd" d="M219.341 287.607l-2.632-1.518-2.734 1.352.612-3.037-2.111-2.226 3.019-.354 1.418-2.724 1.265 2.817 2.978.541-2.234 2.09z"/>
            <path fill="#ffffef" fill-rule="evenodd" d="M219.341 287.607l-2.632-1.518-2.734 1.352.612-3.037-2.111-2.226 3.019-.354 1.418-2.724 1.265 2.817 2.978.541-2.234 2.09z"/>
            <path fill="#ffffef" fill-rule="evenodd" d="M261.222 287.597l-2.632-1.518-2.734 1.352.612-3.037-2.111-2.226 3.019-.354 1.418-2.724 1.265 2.817 2.978.541-2.234 2.09z"/>
            <path fill="#ffffef" fill-rule="evenodd" d="M256.018 301.529l-2.632-1.518-2.734 1.352.612-3.037-2.111-2.226 3.019-.354 1.418-2.724 1.265 2.817 2.978.541-2.234 2.09z"/>
            <path fill="#ffffef" fill-rule="evenodd" d="M342.981 276.167l-2.632-1.518-2.734 1.352.612-3.037-2.111-2.226 3.019-.354 1.418-2.724 1.265 2.817 2.978.541-2.234 2.09z"/>
            <path fill="#ffffef" fill-rule="evenodd" d="M317.462 276.157l-2.632-1.518-2.734 1.352.612-3.037-2.111-2.226 3.019-.354 1.418-2.724 1.265 2.817 2.978.541-2.234 2.09z"/>
            <path fill="#ffffef" fill-rule="evenodd" d="M248.18 267.293l-1.649-.952-1.713.848.383-1.904-1.323-1.395 1.891-.222.888-1.708.792 1.766 1.866.339-1.399 1.311z"/>
            <path fill="#ffffef" fill-rule="evenodd" d="M415.819 310.731l-2.632-1.518-2.734 1.352.612-3.037-2.111-2.226 3.019-.354 1.418-2.724 1.265 2.817 2.978.541-2.234 2.09z"/>
            <path fill="#ffffef" fill-rule="evenodd" d="M394.573 313.551l-2.18-1.261-2.265 1.123.507-2.523-1.749-1.849 2.501-.294 1.175-2.263 1.048 2.341 2.467.449-1.851 1.737z"/>
            <path fill="#ffffef" fill-rule="evenodd" d="M404.59 313.261l-2.03-1.172-2.109 1.044.472-2.345-1.629-1.718 2.33-.273 1.094-2.103.976 2.175 2.298.418-1.724 1.614z"/>
            <path fill="#ffffef" fill-rule="evenodd" d="M433.37 288.172l-1.956-1.129-2.031 1.005.455-2.257-1.569-1.654 2.244-.263 1.054-2.024.94 2.094 2.213.402-1.66 1.554z"/>
            <path fill="#ffffef" fill-rule="evenodd" d="M394.345 327.637l-2.554-1.393-2.653 1.24.594-2.786-2.049-2.042 2.93-.324 1.376-2.499 1.228 2.584 2.891.496-2.168 1.918z"/>
            <path fill="#ffffef" fill-rule="evenodd" d="M394.476 339.077l-2.33-1.393-2.42 1.24.542-2.786-1.869-2.042 2.673-.324 1.255-2.499 1.12 2.584 2.637.496-1.978 1.918z"/>
            <path fill="#ffffef" fill-rule="evenodd" d="M375.151 313.288l-1.956-1.129-2.031 1.005.455-2.257-1.569-1.654 2.244-.263 1.054-2.024.94 2.094 2.213.402-1.66 1.554z"/>
            <path fill="#ffffef" fill-rule="evenodd" d="M357.06 313.288l-1.956-1.129-2.031 1.005.455-2.257-1.569-1.654 2.244-.263 1.054-2.024.94 2.094 2.213.402-1.66 1.554z"/>
            <path fill="#ffffef" fill-rule="evenodd" d="M326.341 286.426l-1.956-1.129-2.031 1.005.455-2.257-1.569-1.654 2.244-.263 1.054-2.024.94 2.094 2.213.402-1.66 1.554z"/>
            <path fill="#ffffef" fill-rule="evenodd" d="M329.745 341.199l-1.656-.956-1.721.851.385-1.913-1.329-1.402 1.9-.223.892-1.715.796 1.774 1.875.341-1.406 1.317z"/>
            <path fill="#ffffef" fill-rule="evenodd" d="M283.236 252.63l-3.94-2.275-4.092 2.025.916-4.549-3.161-3.334 4.52-.53 2.123-4.08 1.893 4.221 4.459.81-3.344 3.132z"/>
            <path d="M444.368 285.817c1.944-5.083 4.451-12.749 5.783-19.786-67.743-59.51-143.26-89.994-238.682-83.722-3.421 6.56-6.159 13.424-8.468 20.854 113.062-10.786 195.935 39.27 241.37 82.654z" fill-rule="evenodd" fill="#fff"/>
            <path d="M413.914 252.361l2.42 1.322c-.38.858-.482 1.609-.309 2.249.179.647.624 1.209 1.333 1.689.753.514 1.425.739 2.017.678.599-.06 1.045-.306 1.335-.734.182-.274.258-.563.224-.863-.027-.301-.192-.66-.495-1.075-.209-.28-.719-.873-1.529-1.777-1.04-1.16-1.661-2.139-1.862-2.937-.278-1.122-.109-2.141.51-3.06.4-.591.937-1.031 1.613-1.318.686-.289 1.434-.354 2.24-.198.811.158 1.664.539 2.551 1.144 1.452.986 2.329 2.047 2.628 3.182.306 1.139.119 2.254-.564 3.345l-2.404-1.483c.301-.665.375-1.239.217-1.723-.147-.485-.55-.951-1.209-1.397-.677-.46-1.303-.682-1.875-.663-.37.012-.654.168-.856.469-.186.275-.227.589-.129.942.129.448.667 1.192 1.624 2.234.953 1.039 1.604 1.889 1.95 2.548.355.657.515 1.34.482 2.049-.023.707-.284 1.427-.778 2.161-.448.667-1.052 1.162-1.812 1.493-.759.331-1.571.411-2.437.238-.861-.176-1.795-.606-2.799-1.29-1.462-.991-2.359-2.092-2.686-3.3-.323-1.212-.125-2.522.599-3.925z" fill="#309e3a"/>
            <path d="M402.436 244.827l2.472 1.221c-.345.872-.417 1.627-.219 2.259.207.638.671 1.184 1.4 1.636.774.482 1.454.68 2.042.596.599-.086 1.035-.346 1.305-.786.174-.28.236-.573.191-.872-.038-.301-.219-.653-.54-1.056-.219-.272-.749-.841-1.598-1.713-1.086-1.118-1.745-2.072-1.977-2.86-.323-1.11-.194-2.134.385-3.078.378-.606.897-1.066 1.559-1.38.676-.316 1.42-.413 2.232-.291.818.128 1.684.474 2.595 1.041 1.492.925 2.409 1.951 2.753 3.073.351 1.127.209 2.247-.427 3.365l-2.464-1.386c.274-.675.326-1.251.149-1.728-.167-.48-.589-.929-1.263-1.349-.698-.433-1.332-.628-1.9-.586-.37.025-.647.195-.838.504-.172.282-.204.594-.09.944.146.443.714 1.165 1.711 2.168.994.999 1.679 1.822 2.051 2.465.381.642.569 1.318.564 2.027.007.709-.227 1.438-.689 2.193-.422.68-1.009 1.202-1.751 1.565-.746.361-1.556.474-2.427.336-.865-.141-1.815-.536-2.847-1.176-1.499-.934-2.439-1.997-2.815-3.191-.375-1.199-.229-2.514.438-3.943z" fill="#309e3a"/>
            <path d="M388.229 241.02l7.277-11.965 8.837 5.416-1.231 2.025-6.428-3.941-1.616 2.652 5.984 3.668-1.226 2.015-5.984-3.666-1.979 3.256 6.658 4.081-1.228 2.017-9.063-5.557z" fill="#309e3a"/>
            <path d="M367.538 224.027l1.079-2.101 5.401 2.796-2.546 4.962c-.79.238-1.781.296-2.983.17-1.189-.129-2.295-.457-3.317-.986-1.298-.672-2.29-1.526-2.976-2.571-.683-1.05-1.009-2.205-.974-3.471.038-1.273.363-2.506.977-3.701.664-1.298 1.531-2.309 2.591-3.04 1.056-.727 2.248-1.09 3.568-1.09 1.009-.003 2.104.306 3.29.915 1.542.799 2.578 1.747 3.105 2.845.539 1.097.637 2.281.298 3.555l-2.728-.821c.139-.702.057-1.355-.249-1.956-.296-.606-.806-1.095-1.527-1.469-1.097-.568-2.146-.67-3.155-.306-1 .363-1.852 1.229-2.554 2.601-.761 1.479-1.005 2.759-.731 3.841.278 1.073.945 1.886 2.009 2.437.524.27 1.101.44 1.73.507.639.066 1.221.049 1.753-.05l.811-1.582-2.872-1.485z" fill="#309e3a"/>
            <path d="M277.296 201.648l2.034-13.868 4.172.618 1.122 9.828 3.861-9.094 4.187.618-2.032 13.87-2.591-.383 1.603-10.918-4.344 10.512-2.685-.398-1.134-11.321-1.601 10.916-2.591-.381z" fill="#309e3a"/>
            <path d="M263.188 200.01l1.305-13.96 10.307.974-.217 2.361-7.502-.707-.291 3.095 6.979.657-.219 2.353-6.981-.658-.353 3.799 7.763.731-.217 2.354-10.573-.998z" fill="#309e3a"/>
            <g>
                <path d="M216.578 191.331c.038-1.427.283-2.62.736-3.577.336-.704.786-1.333 1.346-1.885.567-.552 1.182-.956 1.845-1.211.879-.346 1.888-.503 3.023-.473 2.057.058 3.684.743 4.879 2.057 1.205 1.315 1.775 3.114 1.714 5.394-.062 2.261-.722 4.017-1.984 5.263-1.259 1.241-2.915 1.834-4.964 1.776-2.078-.056-3.709-.737-4.9-2.038-1.192-1.308-1.756-3.078-1.695-5.307z" fill="#309e3a"/>
                <path d="M219.492 191.305c-.044 1.586.289 2.801.997 3.643.707.837 1.624 1.27 2.748 1.3 1.122.031 2.055-.349 2.794-1.137.746-.796 1.14-2.006 1.185-3.632.043-1.605-.277-2.813-.959-3.622-.678-.809-1.596-1.229-2.759-1.262-1.161-.031-2.108.344-2.843 1.128-.733.777-1.121 1.971-1.164 3.583z" fill="#f7ffff"/>
            </g>
            <g>
                <path d="M233.058 198.422l.165-14.018 5.933.069c1.494.017 2.574.156 3.244.42.676.256 1.214.709 1.613 1.358s.593 1.386.583 2.216c-.012 1.052-.331 1.918-.955 2.599-.624.675-1.55 1.095-2.778 1.26.605.364 1.104.762 1.491 1.194.396.43.922 1.196 1.583 2.294l1.673 2.753-3.371-.038-2.002-3.074c-.71-1.098-1.199-1.788-1.461-2.072-.265-.29-.544-.488-.842-.594-.297-.11-.769-.171-1.418-.177l-.57-.008-.069 5.852-2.82-.032z" fill="#309e3a"/>
                <path d="M235.983 190.366l2.086.024c1.353.017 2.198-.031 2.536-.142.337-.112.603-.306.796-.584s.293-.628.299-1.048c.005-.473-.117-.853-.369-1.142-.243-.296-.594-.486-1.05-.567-.229-.034-.915-.059-2.057-.072l-2.2-.025-.041 3.556z" fill="#fff"/>
            </g>
            <g>
                <path d="M249.126 185.128l5.148.26c1.161.06 2.04.193 2.64.403.806.283 1.486.749 2.038 1.396.553.646.959 1.426 1.219 2.34.258.907.356 2.015.29 3.326-.057 1.153-.252 2.139-.578 2.959-.402 1.001-.939 1.799-1.62 2.397-.51.453-1.19.791-2.034 1.017-.632.166-1.468.222-2.509.17l-5.298-.269.704-14z" fill="#309e3a"/>
                <path d="M251.829 187.625l-.466 9.273 2.103.105c.785.042 1.357.025 1.709-.046.462-.092.85-.267 1.162-.525.319-.259.588-.695.809-1.31.223-.62.362-1.471.416-2.553s0-1.919-.16-2.509c-.161-.589-.405-1.053-.732-1.396-.326-.342-.749-.583-1.269-.724-.389-.109-1.158-.193-2.307-.251l-1.265-.065z" fill="#fff"/>
            </g>
            <g>
                <path d="M317.618 210.17l3.263-13.634 4.4 1.06c1.666.402 2.738.732 3.211.991.728.391 1.273.995 1.633 1.809.361.809.411 1.756.151 2.84-.199.837-.518 1.505-.959 2.002-.437.498-.931.853-1.479 1.07-.541.211-1.065.311-1.572.3-.684-.028-1.648-.191-2.889-.49l-1.787-.431-1.231 5.144-2.742-.66z" fill="#309e3a"/>
                <path d="M323.077 199.499l-.926 3.869 1.5.362c1.082.26 1.82.363 2.218.307.4-.055.736-.21 1.013-.464.282-.253.472-.581.568-.985.118-.496.073-.939-.14-1.331-.215-.393-.533-.683-.957-.87-.313-.142-.962-.331-1.951-.568l-1.325-.32z" fill="#fff"/>
            </g>
            <g>
                <path d="M330.788 214.209l4.64-13.221 5.6 1.982c1.409.497 2.388.979 2.938 1.444.559.462.923 1.064 1.093 1.807s.119 1.506-.156 2.287c-.348.992-.927 1.71-1.736 2.153-.807.438-1.818.536-3.034.297.457.54.802 1.077 1.03 1.611.237.537.491 1.432.766 2.684l.704 3.149-3.181-1.125-.913-3.558c-.323-1.27-.563-2.081-.721-2.436-.157-.359-.359-.636-.607-.833-.246-.202-.673-.41-1.286-.627l-.537-.191-1.938 5.521-2.661-.943z" fill="#309e3a"/>
                <path d="M336.12 207.528l1.968.696c1.276.451 2.09.68 2.445.682.356.004.67-.093.943-.295.272-.2.478-.5.617-.896.156-.446.163-.846.018-1.201-.136-.359-.408-.65-.814-.876-.206-.106-.848-.349-1.925-.731l-2.076-.735-1.177 3.356z" fill="#fff"/>
            </g>
            <g>
                <path d="M346.909 213.48c.424-1.364.982-2.444 1.673-3.241.516-.587 1.116-1.071 1.807-1.448.695-.377 1.396-.598 2.1-.665.941-.094 1.952.029 3.037.369 1.965.613 3.343 1.716 4.14 3.307.802 1.592.866 3.478.189 5.656-.67 2.161-1.781 3.669-3.329 4.526-1.547.852-3.3.97-5.258.358-1.982-.619-3.369-1.717-4.163-3.293-.793-1.583-.858-3.44-.197-5.569z" fill="#309e3a"/>
                <path d="M349.724 214.264c-.47 1.514-.48 2.773-.025 3.777.455.995 1.219 1.662 2.292 1.998 1.073.335 2.07.224 2.995-.336.933-.562 1.641-1.62 2.122-3.171.476-1.535.495-2.783.056-3.749-.431-.962-1.204-1.617-2.312-1.963-1.109-.348-2.122-.244-3.038.311-.915.548-1.612 1.592-2.089 3.132z" fill="#fff"/>
            </g>
            <g>
                <path d="M374.146 233.226l6.416-12.453 5.269 2.739c1.324.69 2.227 1.301 2.709 1.839.488.534.767 1.181.833 1.941s-.092 1.506-.47 2.243c-.481.935-1.154 1.565-2.017 1.892-.859.322-1.872.279-3.042-.128.378.598.644 1.179.798 1.74.159.565.289 1.484.388 2.764l.261 3.215-2.992-1.556-.415-3.649c-.145-1.304-.269-2.141-.378-2.513-.105-.377-.268-.682-.486-.91-.214-.233-.61-.5-1.185-.798l-.507-.264-2.678 5.198-2.504-1.301z" fill="#309e3a"/>
                <path d="M380.345 227.332l1.852.962c1.201.625 1.977.963 2.328 1.016.35.054.676-.001.974-.161.297-.162.54-.429.734-.803.216-.418.276-.813.183-1.185-.086-.374-.315-.702-.684-.981-.189-.134-.791-.465-1.807-.993l-1.952-1.015-1.629 3.159z" fill="#fff"/>
            </g>
            <g>
                <path d="M425.981 258.735c.796-1.183 1.641-2.056 2.535-2.619.661-.413 1.376-.7 2.145-.863.775-.158 1.508-.168 2.202-.028.928.184 1.862.596 2.803 1.235 1.703 1.157 2.707 2.613 3.013 4.367.31 1.758-.172 3.581-1.446 5.472-1.263 1.874-2.758 2.998-4.487 3.37-1.727.366-3.439-.028-5.138-1.182-1.718-1.169-2.732-2.623-3.039-4.362-.304-1.746.167-3.543 1.412-5.39z" fill="#309e3a"/>
                <path d="M428.451 260.286c-.886 1.315-1.256 2.518-1.112 3.61.151 1.087.691 1.945 1.62 2.579.931.632 1.919.814 2.966.548 1.055-.269 2.036-1.075 2.943-2.424.895-1.33 1.272-2.521 1.129-3.572-.138-1.048-.687-1.898-1.649-2.552s-1.961-.849-2.998-.583c-1.034.259-1.999 1.059-2.899 2.394z" fill="#fff"/>
            </g>
            <path d="M301.824 204.523l2.248-9.841 7.268 1.676-.378 1.663-5.288-1.218-.504 2.181 4.925 1.135-.381 1.656-4.918-1.132-.614 2.677 5.475 1.261-.378 1.659-7.456-1.718z" fill="#309e3a"/>
        </g>
    </g>
</svg>
