<?xml version="1.0" encoding="UTF-8" standalone="no"?>
<svg xmlns="http://www.w3.org/2000/svg" height="480" width="640">
  <path d="M0 0v480L640 0H0z" fill-rule="evenodd" fill="#ffca00"/>
  <path d="M0 480h640V0L0 480z" fill-rule="evenodd" fill="#ff6500"/>
  <g stroke="#000">
    <path stroke-linejoin="round" d="M222.393 340.58s-18.31-.63-25.887 8.63c-7.576 9.26-36.75 35.224-39.145 37.044-1.085.728-24.415 5.47-24.415 5.47 11.455-11.434 24.267-15.61 34.777-35.636-5.245 10.048-9.256 14.446-15.39 19.972-5.333-2.482-19.168 8.28-30.75 13.35.21-.423 12.7-10.52 19.473-23.41-3.858 3.368-12.67 11.835-16.528 15.202-9.175.874-13.332 11.04-16.837 12.416-21.492 6.986-15.125 2.73-19.995 7.367-1.964 3.844-6.16 6.91-8.72 7.163-20.165 1.995-20.748 8.618-31.06 12.41-6.587 1.927-10.773.065-14.52-2.526 5.05-1.822 11.34-1.388 15.153-5.47 0 0 18.468-22.004 35.357-24.414 9.682-1.685 11.155-7.367 11.155-7.367s-28.623 7.998-33.463 12.208c-4.55 1.295-12.3 2.413-19.153 1.684 12.664-4.66 20.5-11.062 23.994-14.943 2.002-2.224 13.89-2.316 13.89-2.316s19.995-8.63 20.416-8.63 15.154-8.63 15.154-8.63-17.68 4.63-18.1 4.63-20.65.84-20.65.632c5.388-6.898 24.808-7.378 27.595-9.05 6.503-6.503 26.73-4 27.572-4.842.84-.84-21.258-7.577-30.518-5.682-9.26 1.894-23.362-9.68-23.362-9.68s19.363-2.95 25.677-.212 29.045 8.63 30.31 7.576c1.26-1.05 26.19-9.89 29.043-6.734-2.455-5.25-5.555-5.11-5.473-9.682 4.63.212 9.26.42 13.892.633 0 0 7.155-9.473 6.943-9.892-6.495-2.38-7.963-8.97-7.963-8.97 8.326 1.39 11.12.34 11.12.552 0 .21 7.368-8.21 7.368-8.21l5.052-7.997 3.788-17.26c-7.653 4.14-22.31-.208-22.098-.42 15.93-5.587 20.75-13.683 27.99-14.1-3.102-15.726 6.103-21.048 6.103-20.836 0 .208 6.316-13.684 6.316-13.684s-6.747-2.27-19.365 0c11.958-14.193 30.94-9.05 30.94-9.05 3.917-12.584 15.997-7.997 15.997-8.418-3.076-6.853 6.154-10.33 12.15-10.124-.86-5.107-6.333-10.5-8.436-14.78 10.028 6.448 20.476 3.945 25.75 13.328 3.158.35 6.313.702 9.47 1.053 0 0 10.523 1.894 10.735 1.894.21 0 10.944 1.05 10.944 1.05 1.882-5.333-4.764-4.653-3.16-17.678 12.82 6.37 11.938 19.03 22.1 26.238 8.01-.552 10.43 2.253 14.384 5.896 4.615-.98 10.252 1.068 13.188 5.75-.14-4.963 1.287-11.967 7.58-3.158l11.573-.42s-15.206-22.152-28.624-9.68c3.924-13.54 17.68-12.208 17.68-12.208s-3.575-6.198-3.366-13.05c-7.343-2.936-9.682-15.364-9.89-15.153-.213.21-12.51 2.437-18.103 17.048-10.487-11.4 3.723-25.555 4.56-28.073 1.444-5.392 2.888-10.784 4.334-16.176-1.134-5.313-.694-7.948 4.157-12.158-3.234-3.35-1.745-6.54 2.104-8.63-1.3-2.29-.238-4.58.352-6.87l51.42-2.938 11.58 15.912 1.895 8.63-4.42 11.365 13.26 15.785 4.84 5.05 10.102 5.895s9.474 3.998 9.683 4.21c.212.21 11.364 2.946 11.786 3.156.422.21 9.262 5.262 10.735 5.683s28.623 0 28.623 0l15.156-1.263-.212 24.835-7.998 1.894c-3.446 2.962-4.445 4.693-10.34 8.886-8.16 2.286-14.074 1.85-14.283 1.85-.21 0-8.21-2.107-8.418-2.317-.212-.208-9.052-2.945-9.052-2.945l-13.89-3.368c-5.713-.898-7.997 2.947-8.418 3.578-.42.632-2.736 27.993-2.736 27.993s-4.843 12.417-4.843 12.63c0 .208-4.488 8.298-7.998 11.154-.65 3.346-1.176 6.914-9.258 12.838-1.714 5.353-.326 10.514 5.47 11.576l8.42 3.367c4.208.983 8.418 1.963 12.627 2.946l13.892 2.947-9.892 21.678-24.414-4s-16.207-4.21-16.416-4.21c-.212 0-17.892-9.47-17.892-9.47s-5.683-12.838-5.683-13.05c0-.21-5.052-10.734-4.84-11.364.21-.63.21-6.733.21-6.945 0-.21-17.048-3.576-17.048-3.576l-17.89-1.896-19.574-5.263-14.943-4.418-9.683-3.367-10.734-.842s-14.1 2.103-14.1 2.315c0 .21-12.417 3.576-12.417 3.788 0 .21-7.997 18.732-7.997 18.732l-3.788 14.31 5.89 10.946 2.107 30.518-5.473 11.365 3.788 8.418 7.576 12.42 4.42 8.628-27.578 8.742-3.57-14.215s-9.472-23.36-9.26-23.572c.21-.21.42-7.79.42-7.998z" fill-rule="evenodd" stroke-linecap="round" stroke-width=".9934124999999999" fill="#fff"/>
    <path stroke-linejoin="round" d="M250.288 306.99c5.733 1.72 5.84-9.547 10.414-13.746 3.632-15.193 23.278-14.663 29.506-4.47-20.83-1.568-12.814 10.136-19.222 15.2 16.385-7.74 31.47-6.394 34.87 4.47-6.586 12.52-12.74 24.173-19.325 36.69-10.492 5.24-15.218-1.928-26.723-8.522l-8.046-1.343c-.295-9.09-1.172-19.188-1.472-28.28zM263.11 377.456s28.028-.877 28.128 12.612c2.562 7.752 10.68 7.156-1.75 27.625.497-26.33-16.39-26.97-28.235-26.36 14.774 2.068 17.405 24.18 10.925 32.628-16.734-.598-30.732-4.232-47.467-4.83-5.845-6.462-12.757-21.575 9.787-32.286 9.54-3.13 19.076-6.26 28.613-9.388zM450.72 302.804l8.045-3.128s24.732-30.04 43.813-13.413c-13.097 1.97-23.768 17.786-23.768 17.786 7.1-5.288 33.77-3.62 30.9 19.79-28.555 8.454-29.36 23.432-27.697 41.258-19.007-.32-39.977-10.157-40.857-40.69 2.533-7.3 7.03-14.303 9.563-21.604zM553.028 175.584c0 10.345-8.387 18.732-18.732 18.732s-18.732-8.387-18.732-18.732 8.387-18.732 18.732-18.732 18.732 8.387 18.732 18.732z" fill-rule="evenodd" stroke-linecap="round" stroke-width=".9934124999999999" fill="#fff"/>
    <path stroke-linejoin="round" d="M508.125 209.678c6.896 5.317 15.106 7.26 30.25 9.012 7.977-4.683 22.7-4.493 23.834-14.896 7.952-2.84 9.72-12.427 3.14-15.078-.28-2.813.168-13.73-12.06-13.982 1.642 4.06 3.107 15.2 3.107 15.2-6.373-.75-10.73 10.283-10.73 9.836 0-.223 3.514-17.49-13.504-18.015 5.855 9.787-1.695 17.568-1.695 17.568-1.79-2.235-1.8-6.158-5.086-7.362-8.45-3.556-10.06-13.863-9.7-19.39-4.43 3.743-7.734 7.486-7.57 12.447.066 8.158-.334 16.034.013 24.66z" fill-rule="evenodd" stroke-linecap="round" stroke-width=".9934124999999999" fill="#fff"/>
    <path d="M533 110.03c14.414-2.008 27.32-5.774 35.816-12.097 2.742-2.042 25.88 1.828 37.792-5.287-18.056-1.04-30.017-3.608-33.233-2.544-10.114 2.952-33.675 9.496-35.52 8.663-.163 1.67-3.03 8.942-4.855 11.264z" fill-rule="evenodd" stroke-linecap="round" stroke-width=".9934124999999999" fill="#fff"/>
    <path stroke-linejoin="round" d="M537.9 98.633c10.312-2.413 12.672-7.418 18.762-11.073 9.322-3.73 14.5-3.865 23.797-13.474-24.174 3.293-26.887 4.142-26.887 4.142-5.012 3.05-11.91 7.732-17.335 14.837 1.642 1.747 1.544 3.55 1.663 5.568z" fill-rule="evenodd" stroke-linecap="round" stroke-width=".9934124999999999" fill="#fff"/>
    <path stroke-linejoin="round" d="M536.18 93c0-.1 9.433-10.585 9.515-15.072.413-1.507 4.816-3.995 6.472-9.89 1.075-16.077 2.57-16.43 2.57-16.43 7.573-4.253 5.96-13.474 9.478-20.378 0 0-11.116 12.412-17.325 19.217-1.656 3.576-2.09 12.745-2.19 12.745-1.755 4.14-6.282 4.68-9.758 11.55-1.957 5.212-.326 9.983-3.277 16.767 2.014.035 3.1.53 4.514 1.49zM515.372 340.39c0 13.95-11.307 25.257-25.256 25.257S464.86 354.34 464.86 340.39s11.307-25.256 25.256-25.256 25.256 11.308 25.256 25.257z" fill-rule="evenodd" stroke-linecap="round" stroke-width=".9934124999999999" fill="#fff"/>
    <path stroke-linejoin="round" d="M270.79 425.804c0 12.67-10.27 22.94-22.94 22.94s-22.94-10.27-22.94-22.94 10.27-22.94 22.94-22.94 22.94 10.27 22.94 22.94z" fill-rule="evenodd" stroke-linecap="round" stroke-width=".9933277199999999" fill="#fff"/>
    <path stroke-linejoin="round" d="M312.25 325.64c0 10.926-8.857 19.784-19.783 19.784s-19.784-8.858-19.784-19.784 8.857-19.784 19.784-19.784 19.784 8.857 19.784 19.784zM221.89 348.634c-7.158.42-14.443 2.903-14.23 3.115.208.208 7.788 4.208 6.733 5.472-1.052 1.26-11.216 12.578-10.583 12.578 7.632 2.2 17.74-2.477 17.74-2.477s-4.124 6.64-4.807 8.68c6.803-3.665 13.184 1.122 14.732-2.542l-9.585-24.826zM372.094 282.91c-4.326 2.665-18.875-.332-18.875-.332 4.285 4.44 7 7.61 16.887 8.61-7.062 3.203-11.66 7.75-19.924 10.498 12.925 5.53 21.58-3.544 21.58-3.213s2.51 5.918.543 13.876c5.113-1.347 6.315-6.563 10.138-5.47-3.2-7.618-7.147-16.354-10.35-23.97zM453.157 216.21c-.366 2.4-.832 6.703-10.684 11.692 6.445 2.797 17.22-3.312 17.22-2.98s-8.76 15.602 6.29 22.185c-.4-11.785 1.656-21.192 1.656-21.192s5.533 7.61 9.602 16.557c6.5-6.99-2.318-20.2-2.318-20.2-7.176-1.656-14.837-4.406-21.767-6.06zM462.428 146.976s19.485 13.242 19.57 15.014c.08 1.77-1.773 9.11-8.096 12.398 15.18 1.77 16.782-7.76 16.782-7.76s-3.12 10.796-.59 14c8.35-5.144 8.097-13.325 8.097-13.325s5.567 8.434 4.303 12.99c1.77-.93 11.386-10.966 2.697-15.858 2.024-6.578 2.784-10.71-4.554-13.663-.786-3.964 1.293-5.23 1.94-7.844 0 0-7.254-2.193-8.096 4.048-.676 1.265-23.318-13.31-23.57-13.394-.076.383-8.482 13.48-8.482 13.394z" fill-rule="evenodd" stroke-linecap="round" stroke-width=".9934124999999999" fill="#fff"/>
    <path stroke-linejoin="round" d="M467.647 139s18.043 9.58 19.225 11.857" fill-rule="evenodd" fill-opacity=".3" stroke-linecap="round" stroke-width=".9934124999999999" fill="#fff"/>
    <path stroke-linejoin="round" d="M530.722 91.472c-2.392 0-11.92-2.98-18.212 1.656-2.875-4.618-5.96-8.237-15.074-6.292.082-4.125-1.552-3.595-3.732-4.892-2.297-5.004-5.974-7.22-13.08-4.048-6.187-6.366-16.188-6.646-23.21-1.72-10.615-3.15-24.666.523-50.953.23-1.816-.06-10.884 3.194-5.213 10.762-10.917-6.75-15.49 5.665-4.635 7.616 2.65 2.65 5.63 8.278 5.63 8.278s-18.98-13.57-29.406 1.606c-3.38 15.35 12.912 4.36 21.015 10.15 4.857 4.304 9.496 8.775 14.35 13.08 8.06-1.656 14.945-1.707 23-2.128-7.284 2.097-13.396 1.355-20.68 3.452 1.753 2.413 4.678 3.222 10.998 2.98l-13.446 4.698c8.236 6.372 18.63 2.187 26.56 3.31-5.03 7.535-15.365 15.5-28.418 11.86 5.62 8.952 16.793 7.807 28.182-3.805 9.534 1.66 15.714 2.83 27.892-1.29.588-.77 9.555-14.115 9.174-15.258 1.632.49 26.31 9.332 27.802 12.075.188-3.403 4.914-6.903-23.842-14.9-5.42-4.41 13.908-9.935 13.908-9.935l-.33 7.947c5.437-3.318 5.726-4.645 6.953-6.623 1.987-1.323 6.29 2.65 6.29 2.65l.242 7.004c2.395-.87 3.733-1.043 5.39-3.36s4.83 2.766 4.83 2.766c4.95.49 13.312-1.847 17.47-8.766-1.882-7.027-.99-8.985 2.75-10.388 6.137-9.997 7.543-18.66-2.203-18.714z" fill-rule="evenodd" stroke-linecap="round" stroke-width=".9934124999999999" fill="#fff"/>
    <path stroke-linejoin="round" d="M494.456 147.146s-3.038 3.795-2.448 11.133" fill-rule="evenodd" fill-opacity=".3" stroke-linecap="round" stroke-width=".9934124999999999" fill="#fff"/>
    <path stroke-linejoin="round" d="M406.638 139.705s7.778 11.852 10.433 12.593c2.655.74 20.99 19.384 21.977 20.186 1.174.494 11.42.247 11.42.247-7.53-6.5-13.828-13.374-20.742-20.062 0 0-10.617-5.247-10.678-5.37s-5.68-7.655-5.68-7.655c-1.79-.576-3.703-1.46-5.37-2.84l-1.36 2.902z" fill-rule="evenodd" stroke-linecap="round" stroke-width=".9934124999999999" fill="#fff"/>
    <path stroke-linejoin="round" d="M481.98 162.074c3.456-.844 8.264 2.024 8.6 4.47 1.857-1.097 5.99-1.097 7.508.337.675-1.01 3.71-3.71 6.832-2.53M494.562 147.146s2.527 2.024 5.902 1.012" fill-rule="evenodd" fill-opacity=".3" stroke-linecap="round" stroke-width=".9934124999999999" fill="#fff"/>
    <path stroke-linejoin="round" d="M535.808 156.746c4.186-.597 38.452-20.62 46.815 4.682-2.887-21.416-18.625-21.018-18.625-21.018s-.697-10.26-15.14-8.566c9.465 6.973 1.494 12.55.797 13.547-2.458-6.607-3.52-10.026-11.057-12.948 3.023 11.62-3.32 13.18-4.98 18.726-3.35-2.39-5.91-6.773-7.868-10.06-2.657 7.703-.33 12.318 2.69 16.335 2.656-.664 5.11-.83 7.368-.697z" fill-rule="evenodd" stroke-linecap="round" stroke-width=".9934124999999999" fill="#fff"/>
    <path stroke-linejoin="round" d="M530.245 120.66c1.32 2.417 6.88 9.362-2.877 22.604-3.078-4.282-4.734-6.914-4.734-6.914s-8.315 5.41-7.367 23.984c-3.112-7.46-7.735-16.866 1.857-30.997-6.924 11.145-9.18 12.378-14.477 12.223 8.112-5.785 9.89-12.046 10.045-12.046 1.48.497 10.634.024 17.553-8.855z" fill-rule="evenodd" stroke-linecap="round" stroke-width=".9934124999999999" fill="#fff"/>
    <path d="M524.02 90.52c1.82 6.79-3.182 11.495-7.028 15.12 8.35 16.368-18.454 15.05-8.787-.22" fill-rule="evenodd" stroke-linecap="round" stroke-width=".9934124999999999" fill="#fff"/>
    <path d="M497.873 107.838s-1.976 2.527-.328 6.042M486.51 108.01c2.394.59 4.386 3.686.515 6.01-1.55.92-9.327-2.692-13.343 4.9" fill-rule="evenodd" fill-opacity=".3" stroke-linecap="round" stroke-width=".9934124999999999" fill="#fff"/>
    <path d="M413.314 92.784c-3.144-.258-4.69 1.34-.927 5M416.308 82.01c-3.66-1.598-5.36 2.216-.98 5.257M426.824 82.32c-3.194-2.887-5.98 2.32-.874 4.278M442.746 82.32c-3.35-2.835-4.485 1.288-3.452 2.68" fill-rule="evenodd" stroke-linecap="round" stroke-width=".9934124999999999" fill="#fff"/>
    <path d="M462.508 125.58c0 8.595-6.968 15.563-15.564 15.563s-15.563-6.968-15.563-15.564 6.97-15.564 15.564-15.564 15.564 6.968 15.564 15.563z" fill-rule="evenodd" fill-opacity=".3" stroke-linecap="round" stroke-width=".9934124999999999" fill="#fff"/>
    <path stroke-linejoin="round" d="M461.607 130.684c-.424-.9-9.987-10.366-13.007-9.078-2.472.107-10.035 16.604-9.704 17.267 7.83 5.52 19.895.65 22.703-8.188z" fill-rule="evenodd" fill-opacity=".3" stroke-linecap="round" stroke-width=".9934124999999999" fill="#fff"/>
    <path stroke-linejoin="round" d="M456.52 125.71c-1.178-.764-2.08-1.458-3.122.07-1.04 1.526-6.732 15.34-6.732 15.34M474.243 94.508c-10.41-5.83-29.733 2.813-16.89 8.852-10.968-3.332-10.483 6.108-10.483 6.108M451.938 84.73c4.127-6.13 9.825-8.228 13.555-.544 4.967 6.623 14.306 1.67 14.306 1.67" fill-rule="evenodd" fill-opacity=".3" stroke-linecap="round" stroke-width=".9934124999999999" fill="#fff"/>
    <path d="M423.593 89.817s-4.636 2.152-.33 5.463M447.117 87.003s-4.472.663-2.983 5.464" fill-rule="evenodd" stroke-linecap="round" stroke-width=".9934124999999999" fill="#fff"/>
    <path d="M442.136 95.28c-.164 0-4.636.165-3.144 4.966M436.997 103.393c-.167.166-5.63-2.318-2.816 4.636" fill-rule="evenodd" fill-opacity=".3" stroke-linecap="round" stroke-width=".9934124999999999" fill="#fff"/>
    <path stroke-linejoin="round" d="M457.607 76.237c-19.42-11.836-40.01-35.675-68.267-26.59 28.674 5.086 46.18 21.006 46.762 25.924 10.585-.832 13.502-.582 21.505.668z" fill-rule="evenodd" stroke-linecap="round" stroke-width=".9934124999999999" fill="#fff"/>
    <path stroke-linejoin="round" d="M429.34 75.74c-2.582-3.168-12.336-20.756-32.172-20.422 15.17 7.752 24.255 18.338 25.09 21.005 2.83-.167 4.83-.417 7.083-.584z" fill-rule="evenodd" stroke-linecap="round" stroke-width=".9934124999999999" fill="#fff"/>
    <path d="M412.334 76.49s2.252-16.505 5.502-18.505S407 53.483 407.168 67.987c-11.84-9.67-23.005-8.002-24.84-7.335-1.834.667-27.84-.584-30.923 5.25 19.17-.415 24.67.835 26.422 2.752 11.754-3 18.422-1.25 26.258 8.085 3.584-.668 8.25 0 8.25-.25z" fill-rule="evenodd" stroke-linecap="round" stroke-width=".9934124999999999" fill="#fff"/>
    <path stroke-linejoin="round" d="M393.843 85.157c-4.75-4.668-8.702-7.57-22.962-8.764-2.08-.265-7.573-1.425-10.96-2.572 9.067-6.28 36.59 2.585 39.674 6.67-.916 2.833.202 4.73 1.7 6.564-2.542-1.52-4.775-2.134-7.45-1.897z" fill-rule="evenodd" stroke-linecap="round" stroke-width=".9934124999999999" fill="#fff"/>
    <path d="M403.67 77.008s-7.098-6.5-12.56-6.39c3.168 1.91 6.773 7.373 8.956 9.34 1.53-1.748 1.147-1.64 3.605-2.95z" fill-rule="evenodd" stroke-linecap="round" stroke-width=".9934124999999999" fill="#fff"/>
    <path stroke-linejoin="round" d="M389.234 70.944c-.273.11-11.96 7.32 1.202 16.932-.874 6.172 6.443 7.046 6.443 7.046s5.41 8.193 5.41 8.14c-11.626-7.737-21.427-5.855-25.04-2.687-7.047-10.323-18.984-12.007-23.353-13.263-5.462-1.202-20.594-2.458-21.63 11.25-14.53-14.254 8.467-20.37 12.398-19.935 3.932-.71 26 3.55 27.418 6.336-1.255-13.054 10.597-19.99 17.15-13.82zM432.732 118.443s-38.783-7.23-51.432 1.39c-12.65 8.618-14.316 21.407-32.666 23.353-18.348 1.946-20.295 5.42-27.106 14.874 10.15-3.197 32.112-10.148 47.263-7.09 6.255-7.012 9.73-10.286 9.174-10.425 4.726-15.57 37.67-21.546 53.24-15.986.278-3.893 1.947-5.7 1.528-6.117zM374.08 112.604l-57.967 1.668c-5.282 1.668-11.674 5.978-12.65 7.228-.97 1.252 2.504-13.622 10.15-12.927 9.867.973 36.835-.14 36.835-.14 8.202-3.057 17.1-6.116 22.52-4.03-1.947 4.865 1.113 8.2 1.113 8.2z" fill-rule="evenodd" stroke-linecap="round" stroke-width=".9934124999999999" fill="#fff"/>
    <path d="M479.833 95.626s-16.024-4.872-11.82 11.567c6.453 8.193 15.73-3.963 15.6-5.19" fill-rule="evenodd" fill-opacity=".3" stroke-linecap="round" stroke-width=".9934124999999999" fill="#fff"/>
    <path stroke-linejoin="round" d="M436.15 114.19c-3.54-5.798-25.655-13.662-33.226-11.008 12.14 5.7 29.49 11.45 30.52 14.597 1.426-2.557 2.607-3.54 2.705-3.59z" fill-rule="evenodd" fill-opacity=".3" stroke-linecap="round" stroke-width=".9934124999999999" fill="#fff"/>
    <path d="M510.642 94.11s-13.367 3.653-18.334.673-17.286-7.395-11.852-16.91" fill-rule="evenodd" fill-opacity=".3" stroke-linecap="round" stroke-width=".9934124999999999" fill="#fff"/>
    <path stroke-linejoin="round" d="M375.194 97.992s-33.917-.84-39.522 9.32c22.072-5.116 38.33-4.415 38.33-4.415l3.083-2.803-1.89-2.102z" fill-rule="evenodd" stroke-linecap="round" stroke-width=".9934124999999999" fill="#fff"/>
    <path d="M437.05 90.084s-7.84.238-4.037 5.702" fill-rule="evenodd" stroke-linecap="round" stroke-width=".9934124999999999" fill="#fff"/>
    <path stroke-linejoin="round" d="M508.284 191.48s11.344-.377 12.658-1.877M556.365 190.072s4.78 3.375 9-1.406M534.43 190.822s3.188 6 11.344 3.374M516.258 203.572s-2.437 6.093 9.563 5.53c3.096 1.876.936 7.875.936 7.875M532.285 174.977s6.75-.375 7.97 2.625M534.802 166.447s2.252.188 3 2.906c.75 2.72 3.47 1.313 5.064.094M503.754 340.236c-5.89-5.59-18.58-5.74-12.538 8.16 2.114-6.348 6.043-8.764 12.538-8.16zM501.344 348.528c-1.66-1.208-2.57 1.208-2.117 1.66M505.556 307.732s-9.065-1.057-5.44 9.518M478.667 283.89s-1.21 10.726 7.25 11.934M466.296 350.038c0-.15-7.854-3.476-10.273 7.25M458.88 299.89s0 9.063 4.078 12.387M455.567 322.408c-.15 0-13.142 5.136-13.142 11.934M245.706 426.597c0-.15 8.35-8.806 10.172.91-.154 3.644-1.976 7.138-1.976 7.138M253.123 428.716s-4.707-.305-5.314 2.58M273.627 402.596c0-.15-10.63-3.34-12.15 4.858M218.976 408.238s8.806-5.163 13.664.456M291.35 390.357c0-.15-8.146-.056-9.36 5.41" fill-rule="evenodd" stroke-linecap="round" stroke-width=".9934124999999999" fill="#fff"/>
    <path stroke-linejoin="round" d="M409.34 155.946c-.966.955-.837 1.008-1.835 1.243-.97.357-1.926.408-3.068.408-.784-.26-1.682-.864-2.453-1.635-.73-.872-1.09-1.554-1.43-2.454 0-.63-.268-1.557-.43-1.936.323.646.93 1.676 1.248 2.344.347 1.087.69 2.346 1.02 3.476.273 1.267.41 2.458.41 3.884-.206 1.564-.627 2.95-1.226 3.885-.845.45-1.317.682-2.453.817-1.232 0-1.627-.215-2.66-.613-.477-.62-1.462-1.678-2.042-2.453-.296-1.148-.545-2.065-.614-3.27-.498-.718-.734-1.35-1.226-2.046-.223-.818-.594-1.226-.82-2.044-.253-.642-.818-1.307-1.096-1.896" stroke-linecap="round" stroke-width=".9934124999999999" fill="none"/>
    <path stroke-linejoin="round" d="M261.415 391.284s-5.924 4.68-4.936 8.73M293.548 320.606s-9.52 2.31-4.76 10.676M293.416 324.95s-2.02 6.78 1.298 9.233M298.74 325.375c.146.434-1.298 7.213-3.316 8.368M287.932 299.254s-.432 5.77 2.164 6.782M270.607 282.088s-2.307 6.782 6.347 9.09M254.74 304.447c0 .288 2.306 10.962 6.924 10.673M272.62 325.507s-11.828-6.636-12.983 10.82" fill-rule="evenodd" stroke-linecap="round" stroke-width=".9934124999999999" fill="#fff"/>
    <path d="M477.396 96.993c1.157-1.097 5.18-2.408 6.278 3.656 1.097 6.063-7.07 5.346-7.134 4.378-2.193-.903-2.305-5.648.856-8.035zM494.615 83.024s-10.485-1.278-9.516 7.495c6.127 5.418 10.787.06 11.817-2.908.514-2.128.344-3.942-2.302-4.588z" fill-rule="evenodd" stroke-linecap="round" stroke-width=".9934124999999999"/>
    <path stroke-linejoin="round" d="M350.37 113.367s1.262 9.448-6.295 7.243c-7.558-2.204 11.65 4.724-3.15 7.558-3.07 4.3-2.52 5.04-2.52 5.04s8.07-.815 3.052 9.805c-1.89 5.668 2.837-12.398 17.972-3.17-6.93-6.764-1.943-6.675 7.633-6.32-13.282-2.172-12.596-14.488 6.928-8.504-.026-1.837-3.602-7.32 2.835-10.393 12.597-3.464-26.138-.63-26.454-1.26z" stroke-linecap="round" stroke-width=".9934124999999999" fill="none"/>
    <path stroke-linejoin="round" d="M347.325 120.997c2.05.977 10.165 16.422 15.736-7.918-2.442-.588-12.61.292-12.61.292.23 3.714-.423 6.158-3.125 7.625z" stroke-width=".9934124999999999" fill="none"/>
    <path stroke-linejoin="round" d="M344.596 127.254c-.463 1.123-1.16 2.984-1.515 4.142 0 .78.004 1.624.14 2.21.105.965.415 1.66.825 2.484.392.555.453.694 1.105.83.527.302 2.747.31 3.452.413h2.347c1.104 0 2.08.01 3.037-.414.68-.195 1.22-.38 1.518-.968.676-.337.657-.676 1.105-1.38.193-.39.588-1.074.83-1.52.317-.49.413-.61.413-1.242.196-.39.14-1.19.14-1.795-.027-.87-.143-1.666-.278-2.485-.133-.443-.345-.725-.69-.553-1.41.557-2.96-.552-4.558-.552-1.523-.228-2.352-.622-3.865-.828-.63 0-3.566.928-4.006 1.657zM490.906 186.424h.204c-.6 0-.262-.035.82.613.722.258 1.413.52 2.04.818.372.542.777 1.163 1.23 1.636.244.612.56 1.575.816 2.25 0 .944.112 1.624-.408 2.044-.37.94-.932 1.03-1.43 1.635-.737.245-1.314.582-2.25 1.022-.987.266-1.406.585-2.452.817-1.09.492-1.807.58-3.068.613-.75 0-3.796-.17-4.546-.17 1-.034 4.196-.075 4.954-.24 1.123 0 1.756.12 2.453.614.918.318 1.44.597 2.248.818.56.223 1.672.323 2.25.613.325.544.942.832.614 1.43-.43.52-1.24.814-2.045 1.024-.535.364-4.59 1.07-5.13 1.434-1.927.165 3.874-.46 4.518-.617 1.17-.015 1.9-.15 2.86 0 .872.13 1.664.52 2.454.817.52.694 1.138 1.03 1.633 1.84.628.517.806.865.82 2.044-.258.514.22 1.964.153 2.735l-.898 2.69" stroke-width=".9934124999999999" fill="none"/>
    <path stroke-linejoin="round" d="M474.35 186.628h.203c-.553 0-.27-.013.82.205.688.482 1.898.667 3.064 1.022.652.308 1.258.664 1.84 1.022.6.3 1.38.844 1.84 1.43.837.28 1.01.782 1.637 1.228.217.986.484 1.508.612 2.453-.083 1.09-.448 1.304-.816 2.044-.602.408-.97.945-1.84 1.227-.815.325-1.843.593-3.07.817-1.734.33-3.416.697-5.11.818-.842 0-1.048.18-1.84.204 1.025.01 2.38.088 3.067.408 1.28.013 2.737.113 3.68.41 1.862.23 3.648.54 5.52.612.377.61.68.935.82 1.84-.496.363-.84 1.042-1.227 1.43-.612.377-1.22.765-2.25 1.023-1.13.404-2.39.41-3.68.41h-6.542c-.2-.08-1.635-.205-.82-.205.85.39 2.542.8 3.68 1.022.782.228 1.225.648 1.638 1.227.495.374 1.248 1.06 1.634 1.43.32.535.41.873.41 1.84-.097 1.254-.505 1.27-1.432 2.045-.988.647-1.762.78-2.86 1.022h-3.07c-.82-.22-5.557-3.004-6.163-3.188.84.3 5.36 3.303 5.756 4.21.216.647.205 1.716.205 2.658-.037.993-.16 1.7-.612 2.248-.042.795-.257.615-1.022.615l1.023-.615c-.042.795-.257.615-1.022.615M484.575 202.78h1.022c.673.457.668 1.032 1.638 1.226.74.283 1.483.678 2.042 1.022.3.504.41.726.41 1.636 0 1 .23 2.356-.203 2.862-.355.415-1.643.403-2.25.614-.876.303-1.626.765-2.378.913-.95.187-2.49.087-3.142.518-.914.07-1.57.205-2.657.205-.63 0-1.052-.042-1.43-.204.92.32 2.407.69 3.472 1.227.974.275 1.507.71 2.248 1.227.798.59 1.26.91 1.434 1.84.407.6.407 1.382.407 2.452-.226.676-.374 1.65-.615 2.25-.445.66-.98.783-1.635 1.226-.476.053-.34.153-.818.206" stroke-width=".9934124999999999" fill="none"/>
    <path stroke-linejoin="round" d="M466.376 186.424c.34.14 1.382.65 2.045 1.022 1.203.29 1.993.786 2.862 1.022.453.56.983.79 1.226 1.636.71.926.882 1.412 1.023 2.453-.087 1.144-.27 1.375-1.226 1.636-.712.237-1.53.374-2.453.41-.844.113-1.61.293-2.452.408-.577.29-1.764.205-2.657.205-.88.068-2.32.26-3.353.26 1.15.043 2.875.15 4.17.15 1.248.132 2.477.198 3.068.817.9.34 1.41 1.072 2.25 1.43.404.6.878.945 1.225 1.636-.283.795-.728 1.06-1.637 1.227-.577.29-1.762.204-2.657.204-.622-.313-1.91-.205-2.86-.205h-2.25c.842.29 2.2.617 3.272.818.755.43 1.925.792 2.453 1.226.332.51.878.794 1.227 1.43.458.37.55 1.06.204 1.636-.084 1.018-.37 1.528-.817 2.044-.647.44-1.222.832-2.25 1.432-1.443.627-2.815.805-4.498.817-1.11 0-1.653-.168-2.657-.205-.91-.314-2.063-.44-2.86-.613-.875-.24-2.054-2.085-3.203-2.127.784.1 1.716 1.972 1.976 2.535.29.58.205 1.764.205 2.658-.32.548-.395 1.59-.615 2.25-.04.71-.114 1.65-.408 2.043l.408-2.043c-.04.71-.114 1.652-.408 2.044" stroke-width=".9934124999999999" fill="none"/>
    <path stroke-linejoin="round" d="M454.958 181.332c0 .082.71.455 1.19 1.003.466.733.956 1.566 1.43 2.25.323.93.612 1.372.818 2.248.382.626.55 1.605.615 2.453-.036.954-.118 1.808-.614 2.453-.24.827-.65 1.154-1.43 1.43-.678.32-1.327.41-2.453.41-.75 0-2.398-.113-3.147-.113 1.295 0 3.49.113 4.78.113 1.424.09 2.367.21 3.07.817.892.252 1.61.7 2.044 1.227.694.512 1.35.633 1.635 1.43.214.648.204 1.716.204 2.66-.107 1.17-.444 1.197-1.432 1.43h-2.86c-.63-.21-1.808-.308-2.66-.41-.695-.093-1.48-.713-2.083-.912.535.508.435 1.7.448 2.753.156.723.204 1.666.204 2.658-.085 1.09-.347 1.38-1.023 1.84-1.086.236-2.686.204-4.087.204-1.145-.054-2.09-.205-3.272-.205-1.417 0-2.678-.157-3.987-.307.498.332.488 1.078.512 1.943.368.614.084 1.33 0 2.045-.07.887-.236 1.488-.615 2.044-.204 0-.352 1.12-.556 1.12" stroke-width=".9934124999999999" fill="none"/>
    <path stroke-linejoin="round" d="M445.103 178.657c0 .068-.053-.043 1.023.818.622.5.932 1.127 1.43 1.84.18.77.44 1.45.612 2.25 0 1.19-.143 1.665-.612 2.452-.78.52-1.716.928-2.86 1.022-.68.225-1.633.345-2.456.408-.583.194-.512.313-1.32.41 1.31-.047 1.375-.206 2.753-.206.893 0 2.08-.084 2.657.205.916.124 1.576.252 2.045.818.842.23 1.208.6 1.634 1.226.627.427.995.792 1.226 1.637 0 1.112-.125 1.74-.408 2.453-.358.71-.694 1.125-1.43 1.636-.528.454-1.29.566-2.046.817h-2.863c-.754 0 2.462.077 3.885.205.84.154 1.364.496 2.042.818.602.407 1.383.467 1.842 1.022.746.265 1.095.806 1.84 1.227.177.414.092.31.408.204" stroke-width=".9934124999999999" fill="none"/>
    <path stroke-linejoin="round" d="M436.653 175.155c1.004.496 1.555 2.255 1.71 3.297.284 1.036-.08 1.798-.407 2.862-.99.914-1.105 1.208-2.453 1.43-1.16.35-2.424.263-3.476.615-.7.287-1.353.55-2.25.817h-2.862c-.883.52.704.08 1.022 0 1.592 0 3.232.02 4.702-.205h5.927c1.047.158 1.198.515 1.638 1.43.435.528.575 1.425.612 2.454-.042 1.174-.23 1.52-.816 2.454-.587.728-1.098 1.046-1.84 1.635-.956.41-2.363.665-3.68.818-1.573 0-3.263-.092-4.702.204-1.086 0-5.422.29-5.044.67.716-.573 3.897-.465 5.044-.465 1.56-.32 2.95-.587 4.498-.613.978-.293 2.167-.397 3.27-.41 1.075.013 1.904.158 2.455.613.634.527 1.448 1.16 1.84 1.636.784.276 1.017.804 1.634 1.225.183.837.397 1.376.41 2.453-.254.72-.48 1.467-.818 2.045-.948.678-1.968 1.42-3.272 1.84-1.13.44-2.058.573-3.268.613-1.044 0-1.844.094-2.66.205-.75 0-6.88.113-7.63.113 1.844-.336 7.834-.112 9.063-.112 1.34 0 2.566.163 3.883.205.65.308 1.35.556 1.838 1.022.692.277 1.283 1.47 1.296 2.71" stroke-width=".9934124999999999" fill="none"/>
    <path stroke-linejoin="round" d="M427.328 170.275c.18.364.906 1.8 1.226 2.658.22.886.204 1.862.204 2.862 0 1.28-.288 1.83-.818 2.862-1.116.75-1.98 1.47-3.272 1.84-1.08.194-1.966.127-3.065 0-.726-.29-1.33-.534-1.84-1.022-.777 0 .45.17.818.204.613.416 1.526.66 2.454 1.022 1.176.475 1.62.85 2.453 1.84.747.603.937.727 1.022 1.84.518.585.447 1.38.203 2.044-.63.42-1.31 1.098-1.838 1.636-.922.385-1.256.598-2.453.613-1.113-.04-1.688-.334-2.66-.41-.42-.393-.236-.305.41 0 .663.37 1.813 1.085 2.25 1.637.704.48.906.995 1.226 2.044.392 1.054.697 1.693 1.227 2.25.037 1.003.204 1.545.204 2.656-.287.713-.478 1.39-1.024 1.84-.228.838-.742 1.175-1.022 2.045-.803.473-1.83 1.454-2.453 2.044-.834.28-2.86.488-4.098.503" stroke-width=".9934124999999999" fill="none"/>
    <path stroke-linejoin="round" d="M436.52 300.5c.302.71.64 1.494.816 2.25.09.74.204 1.313.204 2.248-.323.617-.395 1.353-.816 1.84-.267.75-.845 1.03-1.43 1.43-.79.34-1.346.6-2.456.616-1.076 0-2.032-.066-2.86-.207-.907-.424-2.984-1.16-2.356-.715.79.254 1.91.816 2.56 1.126.855.57 1.5.898 2.248 1.838.652.45.906.822 1.023 1.638-.81.28-1.94.688-3.068.815-.99 0-1.934-.046-2.657-.204-.662-.316-1.224-.626-2.045-.82l2.045.82c-.662-.316-1.224-.626-2.045-.82l-2.782-1.13c.55.524 3.657 1.814 4.01 2.564.288.718.47 1.592.614 2.657-.01 1.213-.117 2.596-.408 3.476-.233.847-.607 1.226-1.023 1.838h-.41M433.66 312.765h.203c-.57 0-.267-.027.82.408 1.135.712 1.416 1.007 2.248 2.25.393.865.708 1.122.82 2.044.344.578.132 1.425 0 2.045-.544.445-.835 1.023-1.434 1.43-.402.594-.924.95-1.43 1.43-.7.152-.986.36-1.84.41" stroke-linecap="round" stroke-width=".9934124999999999" fill="none"/>
    <path stroke-linejoin="round" d="M436.732 307.043v.204c0-.602-.034-.262.612.818.845.586 1.012 1.203 1.227 2.453.242.965.175 1.855 0 2.658-.63.368-1.456.993-2.352 1.128" stroke-width=".9934124999999999" fill="none"/>
    <path stroke-linejoin="round" d="M446.534 311.758h-.204c.55 0 .27-.013-.82.204-.852.286-1.882.204-2.86.204-.757-.267-1.457-.41-2.25-.816-.674-.14-.78-.384-1.636-.41M442.242 320.13h-.204c.554 0 .273.013-.816-.205-.882-.572-2.363-1.573-3.18-1.843" fill-rule="evenodd" stroke-width=".9934124999999999" fill="#fff"/>
    <path stroke-linejoin="round" d="M507.887 192.578c-.355.106-3.566.322-4.51.39h-2.86c-.996-.223-1.976-.397-3.067-.41-.816 0-.57-.504-1.39-.504" fill-rule="evenodd" stroke-linecap="round" stroke-width=".9934124999999999" fill="#fff"/>
    <path stroke-linejoin="round" d="M505 200.734c-.07 0 2.83-.224 2.765-.224.34 0-3.653.224-3.992.224-.914.164-1.847.205-2.864.205-.64.12-2.096.127-2.658.408h-2.86c-.618-.033-.613-.172-1.227-.205" fill-rule="evenodd" stroke-width=".9934124999999999" fill="#fff"/>
    <path stroke-linejoin="round" d="M425.473 297.427c.136.336 1.023 1.928 1.023 2.87-.013 1.074-.135 1.493-.612 2.044-.792.427-1.475.803-2.66.82h-3.68c-1.11 0-6.34-1.198-6.662-1.442.957.13 4.416 1.44 5.64 1.44 1.115.04 1.735.28 2.864.613 1.086.332 1.807.618 2.657.82.585.342 1.54.4 2.045.818.946.334.827.795 1.227 1.84-.08 1.035-.318 1.522-1.023 2.044-.45.554-1.293 1.044-2.25 1.43-.97.45-2.084.615-3.475.615h-2.86c-.676-.225-1.65-.373-2.25-.615l2.25.615c-.676-.225-1.65-.373-2.25-.615h-.206c.782.313.925.877 1.23 1.635.07.956.204 1.717.204 2.864-.194.822-.504 1.38-.82 2.046-.36.8-.688 1.353-1.225 2.042-.182.408-.415.742-.616.41" stroke-linecap="round" stroke-width=".9934124999999999" fill="none"/>
    <path stroke-linejoin="round" d="M414.64 293.135c0 .07-.028-.064.407 1.023.423.51.572 1.348.818 2.045 0 .99-.048 1.934-.204 2.657-.41.667-.7 1.065-1.43 1.43-.48.578-1.046.742-2.044.82-.59.293-1.656.198-2.25 0-.752-.18-1.533-.398-2.045-.82-.844-.198-1.374-.458-1.837-1.022-.755-.188-.604-.612-.207 0 .625.516.652 1.073 1.023 2.045.012 1.073.203 1.547.203 2.657.188.86.312 1.626-.204 2.25-.28.783-.806 1.016-1.228 1.636-1.094.236-2.032.408-3.27.408-.632-.466-1.996-.885-2.454-1.43-.745-.337-1.35-.758-1.84-1.227-.566-.27-2.754-2.06-3.08-2.567.506.482 2.882 2.382 3.285 2.975.55.376 1.068.864 1.43 1.227.554.394.983 1.12 1.638 1.637.454.8.774 1.08.817 2.245v2.864c-.014 1.278-.2 1.45-.816 2.248-.126.38-.283.026-.41.408" stroke-width=".9934124999999999" fill="none"/>
    <path stroke-linejoin="round" d="M406.877 307.043v.204c0-.64-.043-.257.818.818.708.382 1.52.824 2.25 1.023.527.456 1.364.45 1.944 1.02.93.124 2.01.575 3.07.614" fill-rule="evenodd" stroke-linecap="round" stroke-width=".9934124999999999" fill="#fff"/>
    <path stroke-linejoin="round" d="M406.162 287.81c.312.297 1.75 2.1 1.944 3.073-.013 1.2-.132 1.555-.816 2.045-.678.32-1.327.408-2.453.408-1.094-.24-1.767-.93-2.864-1.43-.58-.567-1.31-.77-1.838-1.227-1.028-.35-1.206-.568-.207.203.986.535 1.82 1.04 2.453 1.43.868.605 1.16.7 1.638 1.842.23 1.17.533 2.223.612 3.476.453.666.52 1.418 0 2.046-.503.296-.723.408-1.634.408-.554-.48-1.13-.882-1.635-1.227-.4-.294-.95-.858-1.225-1.226-.543-.482-1.24-.847-1.637-1.43-.877-.384-1.28-.795-2.045-1.226-.705-1.084-.032-.056.41.408.504.805.885 1.684 1.227 2.453v3.067c-.016.86-.2 1.674-.41 2.25-1.042 0-1.842-.096-2.658-.207-.612-.244-1.58-.533-2.25-.816-.953-.53-1.55-1.024-1.838-1.842-.487-.557-.908-1.373-1.226-1.84-.405-.513-.564-.75-1.023-1.02.498.53.962 1.583 1.84 2.248.61.922 1.133 1.208 1.432 2.25.45.545.517 1.543.612 2.452 0 .893.084 2.08-.205 2.657-.13.962-.424 1.407-.82 2.045-.306.652-.66 1.258-1.02 1.838-.274 0-.205-.066-.205.204" stroke-linecap="round" stroke-width=".9934124999999999" fill="none"/>
    <path stroke-linejoin="round" d="M410.347 284.552v.204c0-.273-.765 1.746-1.634 2.25-1.03.198-1.502.407-2.657.407h-3.068c-.734-.254-1.643-.535-2.453-.816-.673-.59-1.314-.795-2.045-1.433-.607-.593-.792-.933-1.53-1.733-.3-.393-.08-.028.918.71.908.84 1.163 1.066 1.43 2.046.29.58.204 1.765.204 2.658-.042 1.155-.14 1.528-1.022 1.84-.625.366-1.402.41-2.453.41-.525-.454-1.367-.764-2.045-1.432-.59-.39-1.283-1.306-1.84-1.838-.32-.496-1.76-2.247-2.256-2.565.533.36 2.24 2.35 2.87 2.768.426.75.94 1.12 1.432 1.634.424.718.692 1.4 1.227 1.84.114.844.294 1.61.408 2.454-.04 1.09-.22 1.55-.82 2.045-.79.778-.992.81-1.837.41-.702-.488-1.45-.915-2.045-1.43-.762-.21-1.4-.494-1.84-1.024-.745-.262-1.27-.84-1.84-1.226-.322-.647-.855-1.232-1.43-1.637l1.43 1.637c-.322-.647-.855-1.232-1.43-1.637l-3.502-4.324c.46.534 4.464 5.01 4.73 5.756.616.493.97 1.22 1.225 2.25.088.825.204 1.546.204 2.452-.543.57-.72.977-1.637 1.226h-2.86c-1.132-.042-1.484-.278-2.454-.614-.83-.48-1.19-.774-1.634-1.43-.6-.41-.946-.883-1.637-1.227-.276-.413-.59-.527-.82-1.023-.37-.16-.31-.41-.61-.614" stroke-width=".9934124999999999" fill="none"/>
    <path stroke-linejoin="round" d="M412.096 280.764c-.067 0-1.476.116-2.565-.1-1.39-.088-2.926-.197-3.68-.82-1.082-.373-1.296-.86-1.84-1.43-.598-.72-1.36-1.444-1.84-2.456-.393-.898-.6-1.67-.613-2.86v-3.272c0-.567.387-3.725.106-4.006-.013 1.12-.516 4.24-.516 5.436 0 1.044-.093 1.844-.204 2.66-.477.763-.975 1.63-1.84 2.453-1.188 1.024-2.208 1.75-3.678 2.044-1.166.344-1.44.217-2.045-.82-.747-.558-1.13-1.474-1.227-2.656-.307-1.152-.164-2.323 0-3.475 0-1.023-.103-2.766-.103-3.788 0-.477.103 1.353.103 1.54 0 1.204.008 1.91-.615 2.86-.47 1.046-1.16 1.82-1.838 2.657-.694.718-1.314 1.012-2.25 1.226-.985 0-1.835.01-2.452-.408-.755-1.05-2.1-2.198-2.66-3.475V263.99c.337.715.41 3.338.41 4.405-.08 1.054-.516 1.603-.818 2.657-.75.715-1.263 1.335-2.25 2.045-1.093.56-2.033.983-3.27 1.227-1.325-.016-1.307-.12-1.84-1.227-.65-.728-.916-1.64-1.022-2.657-.283-.983-.492-1.963-.614-2.863-.2-.81-.2-2.65-.408-3.275v2.252c.12.925.395 1.727.408 2.864 0 1.006-.07 1.812-.408 2.453-.11.817-.36 3.11-.403 3.068" stroke-linecap="round" stroke-width=".9934124999999999" fill="none"/>
    <path stroke-linejoin="round" d="M397.075 277.797c.088.442.408 1.804.408 2.863 0 1.2-.053 1.56-.612 2.454-.595.858-.953.815-2.248.815-1.118 0-1.878-.125-2.453-.612-.76-.27-1.145-.72-1.638-1.43-.56-.68-1.216-1.757-1.635-2.25-.204-.75-.614-2.633-.922-3.28-.214-.972.55 1.66.922 2.257.52.946 1.057 1.818 1.43 2.657.15.68.205 1.516.205 2.453-.41.578-.843 1.073-1.227 1.638-.734.243-1.44.394-2.453.408-.895-.135-1.414-.45-2.042-.818-.758-.252-1.166-.683-1.84-1.023-.385-.583-1.236-1.468-1.636-2.25-.498-.7-.654-1.782-1.022-2.453-.14-.977-.27-2.005-.615-2.657-.132-1.033-.33-1.764-1.023-2.25-.058-.53-.243-.433-.408-.817M381.737 282.724c.066.445.3 2.058.408 2.864-.013 1.173-.262 1.51-.612 2.25-.398.582-.692 1.2-.82 2.04-.54.45-.83 1.027-1.43 1.434-.317.475-.635.408-1.43.408-.273.085-1.446-.074-2.045-.204M380.518 280.472c-.222 1.04-.633 1.905-1.022 2.864-.594.657-1.052 1.28-1.43 1.84-.713.285-1.34.41-2.454.41-.56-.382-1.285-.682-1.84-1.023-.303-.13-.722-.28-1.024-.41M407.486 137.357v.205c0-.51.03-.266-.41.613-.872.99-1.31 1.297-2.454 1.636-1.226.692-3.02.92-4.702 1.023-1.385.235-2.898.212-4.29.41-.454-.655-1.366-1.224-1.842-1.84-.483-.557-.724-1.12-1.227-1.84-.335-1.008-.953-1.823-1.225-2.863-.34-.982-.575-2.06-.82-3.067-.118-.898-.333-1.497-.407-2.453-.734-.21-.06.26.204.817.572.857.744 1.787.82 3.067.147 1.05.203 2.122.203 3.27 0 1.184-.106 1.902-.408 2.66-.708.72-1.18.868-2.25 1.02-1.23.315-2.72.205-4.09.205-.975-.132-1.306-.472-2.25-.614-.486-.436-1.31-.902-1.837-1.226-.37-.45-.81-.628-1.023-1.023" stroke-width=".9934124999999999" fill="none"/>
    <path stroke-linejoin="round" d="M391.14 138.618c0 .07.618.92.618.99 0-.572-.023-.27.41.817.404 1.21.165 1.717-.614 2.658-.83.912-1.782 1.7-2.657 2.453-.927.426-1.69.997-2.86 1.227-1.354.17-2.793.238-3.887 0-.787-.447-1.76-1.158-2.25-1.84-.59-.58-.9-1.154-1.226-1.84-.182-.674-.418-1.56-.815-2.044-.057-.588.017.158.128 1.047.25.742.014.28.075 1.2v2.863c-.387 1.3-.92 2.947-1.227 4.09-.427.625-.792.995-1.637 1.225-.934.555-1.84 1.09-2.862 1.43-.56.462-1.383.41-2.453.41-.904-.36-1.09-.57-1.84-1.43-.526-.413-.648-.668-1.024-1.023M363.14 150.444v.204c0-.64.043-.257-.818.818-.39.637-.91 1.213-1.635 1.84-.47.846-1.48 1.794-1.84 2.658-.87.442-2.155.74-3.27 1.022-1.174.12-2.36.26-3.476.41-1.636.1-3.223.203-4.907.203-.978-.012-1.974-.182-2.657-.41-.655-.54-.782-1.037-.816-2.248-.292-.87-.19-1.733-.615-2.25-.085-.476-.31-.772-.612-1.02" stroke-width=".9934124999999999" fill="none"/>
    <path stroke-linejoin="round" d="M404.016 145.946v.204c0-.57.024-.266-.408.818-.47.75-1.163 1.622-1.637 2.25-.712.633-1.74 1.628-2.452 2.248-1.208 1.007-2.18 1.365-3.68 1.635-1.335.174-2.262-.18-3.476-.817-.96-1.007-1.096-1.305-1.634-2.453-.098-1-.18-1.813-.615-2.658-.18-.763-.434-1.48-.818-2.044.045-.702.328.423.41.818.223.558.323 1.67.612 2.25v2.86c.28 1.12.127 1.936 0 2.863-.347 1.17-.535 2.163-1.226 2.657-.797.28-1.923.41-3.064.41-1.396 0-2.933-.05-3.887-.615-.655-.445-1.203-1.07-2.043-2.044-.686-.89-1.19-1.354-1.433-2.25-.482-.724-.776-1.526-1.227-2.043-.108-.87.072-.115.41.204.268.564.727 1.586 1.02 2.248.382.74.804 1.426 1.023 2.453.543.664.933 1.44 1.023 2.455.286.63.204 1.91.204 2.862-.18.988-.405 1.276-1.43 1.43-.84.205-1.903-.122-2.862-.612-.712-.356-1.125-.695-1.637-1.432-.837-.675-1.343-1.35-2.042-2.248-.474-.498-.943-.998-1.433-1.636-.562-.692-1.126-1.19-1.43-2.25-.32-.3-.502-.722-.82-1.022.493.567.737 1.076 1.023 2.044.307 1.122.6 1.664.615 2.863v2.862c-.195.98-.67.89-1.636 1.022-1.12 0-2.072.073-2.658-.41-.895-.12-1.51-.355-2.045-.818-.85-.222-1.395-.698-2.04-1.022-.324-.475-1.008-1.374-1.432-1.84-.283-.873-.82-1.24-1.23-1.84-.288-.29-.306-.917-.407-.818.4.47.756 1.48 1.024 2.045.164.914.204 1.845.204 2.862-.228 1.067-.612 1.597-.82 2.657-.45.86-.84 1.946-1.225 2.657-.745.507-1.333 1.06-2.247 1.43-1.208.545-2.43.777-3.886.82-.98.326-1.8.115-2.657 0-.665-.316-1.425-.634-1.84-1.227-.528-.242-.693-.508-1.024-1.227-.742-.557-1.013-1.385-1.43-2.453-.298-.86-.626-1.62-.817-2.454-.35-.797-.567-1.797-1.023-2.453-.053-.476-.15-.342-.204-.818" stroke-width=".9934124999999999" fill="none"/>
    <path stroke-linejoin="round" d="M395.01 163.732v.204c0-.55.012-.273-.205.818-.673 1.046-1.46 1.932-2.453 2.25-.588.293-1.653.197-2.25 0-.927-.477-1.554-1.06-2.248-1.84-.54-.99-1.465-1.89-2.046-2.863-.513-.774-.882-1.33-1.02-2.248-.442-.52-.76-1.597-1.022-2.25-.06-.64-.053-.284-.244-.757.265.962.61 1.412.856 2.598.405 1.252.75 1.908.41 3.27-.166 1.245-.373 2.298-.818 3.477-.27 1.2-.65 2.1-1.023 2.862-.188.8-.54 1.505-1.022 2.044-.464.51-1.248.645-2.045.818h-2.86c-.873-.117-1.69-.405-2.658-.613-.95-.507-1.142-.744-1.84-1.43-.547-.677-1.074-1.165-1.432-2.045-.522-.355-1.264-.898-1.637-1.43-.625-.616-1.017-1.06-1.43-2.045-.19-.88-.395-1.502-.41-2.658-.03-.616.288.985.613 2.044.297.69.517 1.78.82 2.658v3.27c0 1.002.018 1.977-.205 2.863-.137.92-.484 1.343-.818 2.045-.582.36-1.21.804-2.042 1.022-.694.48-2.064.815-3.068 1.022-1.014.266-1.91.41-3.067.41-1.177 0-1.73.012-2.25-.614-.49-.54-1.305-1.625-1.838-2.045-.283-.796-.697-1.116-1.43-1.84-.294-.814-.76-1.813-1.227-2.453-.156-.994-.63-1.848-.82-2.658-.128-.302-.28-.72-.406-1.022" stroke-width=".9934124999999999" fill="none"/>
    <path stroke-linejoin="round" d="M416.81 162.04c.04.28-.187 1.3-.336 1.895-.447 1.217-1.133 2.257-2.045 3.067-.983.59-1.373.94-2.454 1.022-.498.373-1.086.16-1.433-.205-1.054-.39-1.68-1.02-2.657-1.432-.92-.59-1.4-.94-2.25-1.43-.476-.702-1.08-1.492-1.633-2.045-.133-.222-1.307-2.18-1.08-1.566.433.642 1.498 1.884 1.898 2.793.494.68 1.07 2.022 1.636 2.657.566.718 1.292 1.516 2.045 2.453.46 1.133.936 1.946 1.023 3.067.318.618.408 1.698.408 2.658 0 1.112-.166 1.653-.203 2.658-.267.665-.527 1.427-.818 2.044-1.236 0-2.227-.206-3.07-.613-.66-.465-1.06-1.126-1.634-2.045-.402-1.13-1.094-1.917-1.634-3.067-.678-1.14-1.224-2.885-1.84-3.885-.142-.992-.534-1.88-.613-3.066-.224-.37-.29-.483-.412-.89.13.954.204 1.717.204 2.934 0 1.25.072 2.36-.408 3.067-.365 1.097-.953 1.818-1.634 2.658-.83.523-1.563 1.223-2.66 1.636-1.216.422-2.16.613-3.475.613-1.317-.272-2.607-.4-3.828-.726-1.288-.116-2.204-.196-2.713-.91-.755-.848-1.608-1.785-2.25-2.862-.595-.39-.394-.445-.778-.87.434.676.366.598.575 1.687.388.8.41 1.477.41 2.453-.486.82-.992 1.693-1.636 2.453-.667.816-1.012 1.073-2.045 1.43H376.4c-.99 0-1.934-.046-2.658-.203-.882-.192-1.91-.597-2.86-1.022-.446-.357-3.227-2.66-3.566-3.112" stroke-linecap="round" stroke-width=".9934124999999999" fill="none"/>
    <path stroke-linejoin="round" d="M366.796 175.793H367c-.64 0-.246-.053.614 1.022.618 1.244 1.018 2.35 1.635 3.476.15 1.262.383 2.303.41 3.68 0 1.45.108 2.814-.41 4.09-1.357 1.317-1.887 1.895-3.68 2.044-1.768.36-2.16.03-2.862-1.635-.51-1.047-.9-2.212-1.43-3.273-.273-.78-1.062-1.847-1.637-2.862-.312-.634-.752-1.585-1.226-2.453-.363-.95-.577-1.915-1.022-2.453-.154-1.504-.287-.657.204 0-.128 1.294.715 4.95-.273 5.442-.676.32-1.383.13-2.512.13" stroke-width=".9934124999999999" fill="none"/>
    <path stroke-linejoin="round" d="M419.857 165.01c0 .067.112 1.312.112 1.38 0-.62-.012-.272.205 1.022.074 1.356.398 2.72.816 3.68v2.863c-.32 1.08-.492 1.578-1.225 2.453-.43.632-.673.818-1.635.818-.657.328-2.08.204-3.068.204-1.094-.3-2.498-.39-3.268-1.022-.676-.52-1.322-.83-1.714-1.467.286.096.204.583.204.26M405.05 178.86v.41-.41.41-.41c-.18 1.924-.714 2.78-1.842 4.294-.758.89-1.505 1.683-2.657 2.25-1.626.847-3.255 1.093-5.11 1.226-1.398 0-1.946.055-2.66-.818-.892-.714-1.853-1.71-2.248-2.862-.747-.908-1.142-2.092-1.635-3.067-.23-1.163-.657-2.176-1.022-3.27-.247-.96.196.658.204 1.43 0 1.617-.258 2.876-.613 4.293-.435 1.292-.845 2.216-1.637 3.272-.8 1.268-1.783 1.74-3.065 2.657-1.955.435-3.722.39-5.725.205-1.288-.395-2.22-.68-3.272-1.43-.964-.303-2.17-.885-2.657-1.432-.995-.407-.648-.175-1.294-.5.148.94-.774 4.186-.954 5.202-.315 1.106-.448 1.72-1.226 2.25-.82.74-1.574 2.443-2.692 2.904-.842.183-1.89.773-2.954.857-.74.335-1.568.228-2.267.426" stroke-linecap="round" stroke-width=".9934124999999999" fill="none"/>
    <path stroke-linejoin="round" d="M419.142 177.838c.074.453.408 2.154.408 3.27v3.477c-.064 1.152-.28 2.12-.408 3.066-.28.985-.71 1.43-1.43 2.046-1.08.56-1.783.986-2.864 1.226-1.282 0-1.643-.206-2.657-.817-1.226-.97-2.07-1.742-3.067-2.862-.842-.906-1.4-1.62-2.045-2.25-.14-1.072-.495-1.79-.816-2.862-.37-.517-.612-1.16-1.022-1.634.376.752.876 1.164 1.43 2.25.64 1.11.986 2.33 1.43 3.474.36.94.83 1.96 1.434 2.454.43 1.022.707 1.393 1.02 2.453.095 1.237.206 2.37.206 3.68-.41 1.185-.86 1.995-1.84 2.658-1.312.78-2.472 1.008-4.088 1.226-1.738-.008-3.375-.094-4.702-.612-.562-.688-1.855-1.795-2.66-2.658-.678-1.12-1.343-2.155-2.043-3.27-.36-.944-.696-1.757-.818-2.66-.22-.656-.295-1.7-.616-2.247-.28-1.527-.204.844-.204 1.43v3.68c-.43 1.763-1.465 3.228-2.657 4.703-1.462 1.172-2.652 2.095-4.498 2.248-1.793 0-3.054.052-4.498-.817-.673-.8-1.698-1.855-2.453-2.862-.69-1.165-1.253-1.933-1.635-3.067-.154-.71-.252-1.78-.41-2.658 0-.83-.086-.147-.15-.83 0 .953-.055.898-.055 1.852.15 1.348.204 2.685.204 4.09-.48 1.564-.507 2.186-2.248 2.248-1.242-.09-1.605-.324-2.455-1.022-.98-.578-2.085-1.392-2.862-2.044-.792-.74-1.136-1.12-1.857-1.71" stroke-linecap="round" stroke-width=".9934124999999999" fill="none"/>
    <path stroke-linejoin="round" d="M410.956 193.58h.204c-.6 0-.262-.036.82.613.38.574 1.112 1.464 1.633 2.248.538.745 1.155 2.097 1.635 2.66.41.72.805 1.24 1.022 2.043 0 1.246.165 2.287.207 3.476 0 1.25-.193 1.788-.614 2.657-.655.432-1.606 1.05-2.658 1.43-1.06.14-2.12.205-3.27.205-1.1 0-2.062-.085-3.07-.204-.696-.315-1.803-.76-2.452-1.227-.742-.655-1.53-1.775-2.25-2.657-.455-.73-.63-1.453-.815-2.248-.26-1.013-.38-2.104-.818-2.863-.15-.684-.332-1.512-.408-.204-.273.542-.207 1.605-.207 2.453-.228 1.077-.498 2.11-1.02 3.068-.78.72-1.303 1.67-2.456 2.044-1.36.86-2.923 1.04-4.496 1.227-1.21 0-2.607.152-3.682-.206-.687-.326-1.34-.68-2.247-1.226-1.017-.64-1.793-1.39-2.456-2.25-.764-.958-.764-1.628-1.227-2.86-.066-1.162-.33-1.852-.408-2.863-.154-.284-.382-.79-.612-1.023 0 1.436.19 2.613.612 3.885.07.975.204 1.82.204 2.862-.038 1.022-.242 1.696-.613 2.452-.74.544-1.07.872-2.045 1.227-.97.18-1.99.203-3.068.203-.908-.245-1.605-.79-2.453-1.022-.49-.594-1.035-.85-1.633-1.84-.68-1.025-.82-1.18-.82-2.452.19-1.103.412-2.058.412-3.27 0-1.148.025-1.782.407-2.66.047-.847.092-.49.092-1.463" stroke-width=".9934124999999999" fill="none"/>
    <path stroke-linejoin="round" d="M371.51 204.21h-.203c.602 0 .24-.058-.408 1.022-.5.945-.75 1.902-1.227 2.454-.23.844-.602 1.21-1.227 1.635-.267.75-.845 1.033-1.433 1.432-.628.298-1.32.56-2.042.818l2.043-.818c-.628.298-1.32.56-2.042.818" stroke-width=".9934124999999999" fill="none"/>
    <path stroke-linejoin="round" d="M435.91 216.274c-.068 0 1.156-.616 1.087-.616.6 0-1.028.58-2.11 1.23-.616.31-1.925.204-2.86.204-.818-.19-2.153-.495-2.66-1.022-.278-1.105-.683-2.182-1.02-3.272-.328-.95-.492-2.037-.614-3.066-.29-.986-.493-1.812-.818-2.862-.382-1.16-.713-2.272-1.02-3.476-.302-1.014-.54-1.89-.615-2.862-.432-.35-.477-1.006-.615-1.635" stroke-linecap="round" stroke-width=".9934124999999999" fill="none"/>
    <path stroke-linejoin="round" d="M428.546 214.025c-.148 0-.484.97-.818 1.636-1.335 1.566-2.853 2.81-4.294 4.09-1.272.6-2.255 1.48-3.68 1.635-.59-.535-.82-1.974-1.023-3.068-.573-1.932-.867-3.902-1.43-5.723-.508-.917-1.008-2.028-1.226-2.862-.35-.737-.474-1.59-.61-2.25.16 1.594.918 3.088 1.225 4.703.248 1.352.407 2.667.407 4.09v3.475c-.23 1.267-.623 2.46-1.43 3.27-.21.13-1.036-.44-1.842-.817-1.168-.635-2.527-1.364-3.27-1.84-.783-1.132-1.985-2.415-2.862-3.68-.374-1.274-.655-2.342-.82-3.68-.27-1.18-.6-2.84-1.02-3.68-.057-.672-.346-.718-.67-1.075-.195 1.326-.72 2.115-1.17 3.324-.524.55-1.166 1.127-2.045 1.84-1.277 1.16-2.702 2.358-4.088 3.27-1.295.82-2.36 1.148-3.886 1.227-1.457-.046-2.042-.175-3.065-1.023-1.688-1.05-2.817-2.543-4.295-4.09-1.102-1.21-1.52-1.65-1.634-3.27-.068-.887-.24-1.512-.41-2.453 0 .273-.066.204.207.204" stroke-width=".9934124999999999" fill="none"/>
    <path stroke-linejoin="round" d="M390.108 216.682c-.06.416-.244 2.313-.408 3.068-.23.845-.54 1.253-1.227 1.634-.498.42-1.464.684-2.045 1.023-1.057.1-1.976.29-2.863.408H380.5c-1.068 0-1.767.018-2.25-.612-.61-.5-1.242-1.542-1.634-2.25-.342-1.157-.42-1.872-.207-2.862 0-1.414.18-2.674.206-4.088 0-1.022-.103-3.177-.103-4.2" stroke-linecap="round" stroke-width=".9934124999999999" fill="none"/>
    <path stroke-linejoin="round" d="M376.836 220.364v.204c0-.55.013-.27-.204.82-.276.823-.683 1.114-1.227 1.633-1.03.227-1.337-.03-2.455-.407-.716-.577-.898-1.078-1.43-1.634-.25-.703-.674-1.24-1.227-1.638 0-.44-.1-.305-.204-.612" stroke-width=".9934124999999999" fill="none"/>
    <path stroke-linejoin="round" d="M370.4 218.616c0 .066.094.78.507 1.33.41.898.88 1.785 1.227 2.86v3.272c-.1 1.24-.28 2.66-.82 3.476-.454.652-1.6 1.17-2.656 1.635-1.046.518-2.233.573-3.475.613-1.465-.323-2.695-.834-4.09-1.634-1.235-.632-2.475-1.408-3.68-2.046-.564-.49-1.1-.737-1.635-1.43-.593-.435-1.08-1.055-1.637-1.434-.39-.575-1.104-.988-1.633-1.635-.514-.368-.872-.91-1.227-1.43" stroke-width=".9934124999999999" fill="none"/>
    <path stroke-linejoin="round" d="M433.977 230.22c0 .118-1.936 1.673-2.572 1.99-.795.584-2.135 1.132-3.272 1.638-1.595.488-2.84.816-4.495.816-.467-.683-1.728-1.528-2.453-2.453-.374-.746-1.04-1.92-1.638-2.86-.37-1.18-.808-2.38-1.226-3.476-.357-1.057-.68-1.67-.818-2.863-.336-.465-.61-1.867-.715-1.228.673.686.758 1.812 1.126 2.866 0 1.277.172 2.416.204 3.68-.29.818-.38 1.38-1.023 1.84-.45.52-.763.613-1.634.613-.6.36-1.174.016-2.045 0-1.07-.315-1.365-.527-1.84-1.226-.603-.42-1.02-1.242-1.84-1.84-.52-.963-.82-1.32-1.226-2.248-.27-.75-.494-1.613-.616-2.66 0-1.075-.167-2.013-.204-3.064 0-.737.056-2.436-.204-2.87-.154 1.246-.41 2.69-.41 4.096-.18.965-.236 2.098-.41 3.065-.45 1.036-1.09 2.114-2.044 3.068-1.282.727-2.41 1.013-3.883 1.227-1.55 0-2.968-.188-4.5-.203-.94-.536-1.99-1.26-3.064-2.046-1.002-.906-2.276-2.045-3.068-2.657-.252-.71-.755-1.14-1.227-1.636-.29-.54-.414-.47.205-.204.533.533 1.402 1.274 1.842 2.045.336.652.818 2.072 1.226 2.657 0 1.11.19 1.585.204 2.657-.193 1.054-.824 1.31-2.045 1.637-1.166 0-2.244-.117-3.065-.408-.98-.412-1.714-.72-2.25-1.23-.524-.356-1.263-.9-1.636-1.43-.773-.817-1.597-1.68-2.248-2.454-.414-.453-1.03-1.595-1.43-2.045.198.3.34.353.614.82.73.92 1.144 1.496 1.634 2.248.39 1.01.734 1.494.82 2.657 0 .99-.05 1.937-.205 2.66-.233.853-.61 1.346-1.433 1.635-.618.31-1.926.204-2.86.204-.688-.3-1.914-.827-2.658-1.023-.475-.576-1.455-1.276-2.046-2.04-.52-.67-.82-1.355-1.43-1.843.527.435.853 1.206 1.43 1.842.316.642.782 1.638 1.023 2.452.41.903.565 1.89.82 2.86 0 1.095-.072 2.067-.207 3.068 0 1.07 0 1.852-.408 2.453-.252.917-.72 1.34-1.635 2.043-.98.19-1.388.397-2.453.41-.413-.5-1.014-1.05-1.637-1.637-.278-.59-.694-1.503-1.022-2.043-.403-.657-.824-1.004-1.227-1.84-.637-.616-1.382-1.612-1.837-2.658-.517-.775-1.04-3.013-1.227-3.877-.28-.188.33.525.408 1.83 0 1.09-.063 2.075-.204 3.068.032 1.2.204 2.266.204 3.477-.11.813-.24 1.7-.614 2.25-.504.884-1.473 1.61-2.657 2.04-.446-.62-.97-.814-1.84-1.02-.85-.436-1.46-.64-2.452-1.02-.94-.684-1.34-.817-2.044-1.842-.668-.63-1.285-1.66-1.637-2.453-.158-.723-.205-1.666-.205-2.657.013-1.285.198-2.098.614-3.068.227-.832.765-1.4 1.43-1.838.58-.582 1.197-1.074 2.045-1.23.103-.59.572-.567 0-.613v.612c.103-.59.572-.567 0-.613" stroke-linecap="round" stroke-width=".9934124999999999" fill="none"/>
    <path stroke-linejoin="round" d="M432.23 245.292c0 .122-.595.5-1.228.82-1.298.412-2.744.097-4.09 0-1.327-.332-2.286-.406-2.86-1.228-.666-.476-1.69-1.53-2.25-2.25-.302-.635-.496-1.376-.612-2.248-.133-1.062-.225-2.228-.41-3.27v-3.27c0-1.11-.19-1.587-.205-2.66.09-.088.154.514.408 1.022 0 1.28-.045 2.506-.204 3.68-.112 1.15-.512 1.89-.82 2.66-.595.74-.93.977-1.838 1.226-.667.398-1.833.575-2.863.612-1.26-.07-1.97-.334-2.66-1.022-1.003-.798-1.646-1.672-2.248-2.86-.352-1.148-.612-2.18-.612-3.477-.14-.91-.074-2.6-.41-3.272-.03-.596.172-1.85-.098-2.148.138 1.052-.096 2.993.098 4.193 0 1.346-.037 2.644-.204 3.884-.55 1.245-.805 1.915-1.84 2.453-.62.623-1.413.93-2.452 1.227-1.573 0-3.205.116-4.702-.204-.742-.202-1.438-.607-2.25-.82-.558-.47-1.395-.76-2.044-1.43-.752-.823-1.3-1.597-1.635-2.656-.996-1.28-1.732-2.507-2.25-3.884" stroke-linecap="round" stroke-width=".9934124999999999" fill="none"/>
    <path stroke-linejoin="round" d="M427.513 256.763h-.204c.55 0 .27-.013-.82.204-1.064.355-2.03.106-3.067-.204-.69-.305-1.412-.784-1.838-1.227-.713-.874-.99-1.107-1.43-2.25-.345-1.405-.412-2.58-.412-4.086.016-1.192.33-1.958.615-3.068.363-1.123.856-2.92.856-4.167-.045 1.354-.78 3.41-.856 4.782v3.27c-.328.98-.328 1.887-.82 2.658-.656.933-1.246 1.25-2.452 1.43-1.194-.108-1.205-.455-1.84-1.43-1.082-1.303-1.686-3.05-2.043-4.702v-3.27c0-1.368.103-2.598.204-3.885.085-.845.148-.964.148.13.077 1.576.26 2.752.26 4.366-.292 1.197-.76 2.2-1.227 3.067-.874.12-1.563.396-2.657.41-1.088 0-1.925-.05-2.656-.41-.51-.857-1.526-2.002-2.045-3.066-.24-1.12-.57-2.06-.616-3.27-.254-.51-.32-1.61-.408-2.25.218 1.278.204 2.693.204 4.09-.01 1.3-.047 2.57-.61 3.27-.566.76-1.294.8-2.25 1.023-1.04 0-2.157.098-3.068-.204-1.023 0-2.194-.063-2.86-.41-.928-.406-1.265-.705-2.046-1.227-.42-.62-1.23-1.415-1.635-2.453 0-1.083.14-1.976.613-2.657.193-.887.384-1.436.82-2.25.412-.985.8-1.42 1.225-2.044.366-.196-1 .92-1.637 2.045-.91.882-1.673 1.71-2.452 2.453-1.036.654-1.576 1.134-2.86 1.226-1.278 0-1.802-.225-2.658-.61-.554-.608-1.097-.714-1.227-1.64-.373-.918-.54-2.287-.818-3.064-.013-1.152-.196-2.15-.408-3.27-.11-.817-.204-2.428-.204-1.633 0 1.766-.085 2.802.204 4.492v3.475c0 1.076-.15 1.72-.41 2.453-.946.13-1.312.395-2.454.41-1.012-.27-1.552-.486-2.25-.818-.48-.458-.886-1.043-1.43-1.43l1.43 1.43c-.48-.458-1.71-1.557-2.253-1.944" stroke-width=".9934124999999999" fill="none"/>
    <path stroke-linejoin="round" d="M420.467 268.525c-1.77 0-4.056-.927-5.828-.927-1.1-.273-2.354-.368-2.862-1.023-.437-.678-.76-1.51-1.023-2.657 0-1.45.11-2.278.816-3.475.536-1.057 1.397-1.897 1.842-2.658.59-.744 1.21-1.753 1.635-2.657.41-.64.397-.712.87-1.393.62-.11-1.896 1.372-3.73 2.62-1.42.633-2.62.805-4.296.816-1.26-.275-3.056-.683-4.086-1.02-.82-.72-.82-1.853-.82-3.27v-3.68c0-.782.036-.872-.147-1.372-.085 1.162-.318 1.655-.466 2.802-.108 1.338-.333 2.477-.815 3.68-.53 1.004-1.182 2.358-1.84 3.068-.645.826-1.51 1.284-2.25 1.838-1.378.244-2.525.098-3.884-.204-1.456-.49-1.734-1.06-2.248-2.453-.448-1.527-.408-3.21-.408-4.907.045-1.264.318-2.445.612-3.68v-3.475c0-.342.392-1.187.392-1.526" stroke-linecap="round" stroke-width=".9934124999999999" fill="none"/>
    <path stroke-linejoin="round" d="M411.99 267.386c-.498.066-2.17.39-3.272.41-.8.265-2.162.204-3.272.204-1.19-.28-1.775-.29-2.25-1.022-.727-.506-1.008-1.004-1.633-1.43-.302-.605-.64-1.278-1.023-1.842-.103-1.155-.395-2.063-.408-3.27 0-1.072-.002-1.853-.41-2.454v-.408" stroke-linecap="round" stroke-width=".9934124999999999" fill="none"/>
    <path stroke-linejoin="round" d="M399.724 257.982v3.27c0 1.074-.16 1.92-.408 2.862-.114.962-.38 2.03-.818 2.66-.488.935-1.174 1.248-2.045 1.634-.994.135-1.264.165-2.043-.204-.712-.193-1.634-.678-2.25-1.226-1.067-.443-1.935-.967-2.656-1.637-.895-.627-1.513-1.268-2.045-1.838-.414-.826-.693-2.018-1.024-2.657 0-1.128.088-1.777.408-2.453.326-.654.753-1.14 1.227-1.637.496-.472 1.75-1.385 2.462-1.637" stroke-linecap="round" stroke-width=".9934124999999999" fill="none"/>
    <path stroke-linejoin="round" d="M386.426 261.054h-.204c.694 0 .262-.04-1.023.816-.907.697-1.527 1.03-2.454 1.434-1.31.307-2.143.408-3.68.408-1.343 0-2.664.013-3.886-.204-.887 0-1.854-.006-2.453-.204-.222-.67-.598-1.35-1.022-1.842-.157-.723-.204-1.666-.204-2.657.366-.582.65-1.796 1.023-2.25.52-.934.864-1.246 1.635-1.84.72-.5 1.285-.744 1.84-1.226.85-.285 1.185-.64 2.046-1.432.82-.744 1.15-1.266 1.838-1.838.46-.437 1.07-1.018 1.638-1.434.27-.853.74-1.433.816-2.453v-3.883" stroke-width=".9934124999999999" fill="none"/>
    <path stroke-linejoin="round" d="M363.83 273.214c-.242-.122-.883-1.3-1.53-1.947-1.427-1.436-2.633-2.114-2.657-4.088.46-.682 1.264-1.214 2.25-1.635.556-.546 1.16-.986 1.84-1.227.774-.17 1.807-.206 2.862-.206 1.112 0 1.653-.167 2.657-.204 1.072-.014 1.55-.204 2.66-.204.375-.38.8-.204-.207-.204-.726.33-1.547.408-2.657.408-.904-.393-1.447-.594-2.453-.816-.544-.472-1.206-.628-1.635-1.23-.91-.51-1.192-.966-1.433-2.042-.133-.996-.167-1.436.41-2.25.3-1.15.867-1.832 1.43-2.656.677-.692.986-.82 2.25-.82h3.068c.726.13 1.544.208 2.246.41-.97-.28-1.95-1.29-2.86-2.25-.87-.946-.916-1.248-1.43-2.25-.34-1.278-.77-2.01-.82-3.268v-3.068c.197-1.102.47-1.55.82-2.25" stroke-linecap="round" stroke-width=".9934124999999999" fill="none"/>
    <path stroke-linejoin="round" d="M360.465 244.074c-.12.243-1.007 1.565-1.227 2.045-.262.733-.41 1.38-.41 2.452-.18.882.007 1.338.206 2.25.596.407 1.084.84 1.635 1.633.886.427 1.18.838 1.633 1.638.556.376 1.388 1.27 1.74 1.84-1.01-.073-2.164-.892-3.17-1.228-.586-.273-1.826-.642-2.454-1.02h-3.476c-1.09.082-1.304.445-2.045.816-.422.66-.738 1.22-.817 2.25-.228.683-.228 1.77 0 2.453.46.495 1.054 1.245 1.634 1.637.758.43 1.35.808 2.25 1.43.95.562 2.156 1.105 2.86 1.635.69.188 1.505.45 2.046.818.498.088 1.128.204.203.204-.548-.32-1.59-.394-2.25-.61-.966-.163-1.906-.5-3.064-.616-1.072 0-1.427-.023-1.84.616-.833.24-1.076.74-1.635 1.226-.366.77-.58 1.256-.615 2.453.22.82.432 1.232.615 1.84.15.354.535 1.098.818 1.33l-.818-1.33" stroke-width=".9934124999999999" fill="none"/>
    <path stroke-linejoin="round" d="M351.67 223.013c-.55.14-2.403.713-3.476 1.023-.73.244-1.24.654-1.84 1.023-.592.4-.95.926-1.43 1.43-.243.73-.653 1.24-1.022 1.84-.32.676-.537 1.272-.614 2.25.016 1.374.477 1.904 1.022 3.27.702 1.19 1.26 2.58 2.25 3.27.84.516 1.496.898 2.452 1.433.652.178 1.648.646 2.25 1.023 1 .132 1.658.415 2.25.815h-1.636c-.956.04-1.8.17-2.456.616-.7.28-1.004.837-1.634 1.227-.23.847-.586 1.208-.82 2.25-.338.677-.155 1.78 0 2.656.428.613.812 2.057 1.228 2.656.44 1.504.856 2.72 1.84 3.886.176.506 1.43 1.287 1.847 1.534-.63-.43-2.197-1.99-3.07-2.763-.518-.654-1.16-1.107-2.047-1.43-1.08-.414-2.09-.734-3.27-.817-1.114 0-1.742.122-2.454.408-.523.453-1.19.69-1.636 1.227-.583.417-.885 1.084-1.226 1.842.04 1.1.283 1.65.818 2.453.477.715.827 1.224 1.43 1.635.61.704 1.283 1.118 2.25 1.634.805.575 1.53.705 2.453 1.227.908.292 1.657.713 2.86 1.227 1.025.562 3.77 2.554 4.612 2.874.18.272-2.723-1.736-3.59-2.258-1.04-.23-1.4-.586-2.25-.82-1.06-.49-1.623-.88-2.656-1.02-.89-.41-2.055-.642-2.863-.817-1.23 0-2.226-.196-3.476-.204-.882 0-.954.022-1.226.613-.686.53-1.075 1.136-1.634 1.84-.384.68-.826 1.28-1.227 1.84-.297.693-.63 1.562-.82 2.248-.18.838-.394 1.376-.407 2.454" stroke-width=".9934124999999999" fill="none"/>
    <path stroke-linejoin="round" d="M334.106 261.85c0-.067.207.275.207.206 0 .575-.18-.143-.615-1.227-.675-.803-1.534-1.985-2.453-2.864-1.306-.93-2.66-1.873-4.09-2.453-1.243-.59-2.56-1.222-3.884-1.635-1.19-.23-2.423-.204-3.678-.204-1.235.013-1.415.334-2.25.612-.48.54-.924 1.09-1.226 1.84-.24.6-.39 1.575-.612 2.25 0 1.044-.193 1.83-.207 2.86 0 .838.2 2.23-.304 2.563.212-.896.413-2.618.715-3.79-.016-1.23-.384-1.586-.82-2.656-.875-.983-1.697-2.022-2.452-2.864-.707-.898-1.605-1.955-2.453-2.657-.707-.432-1.404-.922-2.045-1.227-1.038-.42-1.523-.776-2.657-.818-.484.463-1.05.866-1.636 1.226-.6.41-.972.875-1.227 1.638-.373.548-.498 1.494-.61 2.453-.33.94-.41 1.56-.41 2.657-.262.347-.357.87-.41 1.43.122-.914.395-1.724.41-2.86-.16-1.058-.572-2.09-.818-3.476-.038-1.41-.306-2.268-.82-3.068-.882-.787-1.692-1.93-2.86-2.657-1.02-.49-1.828-.802-3.068-.818-1.11.013-1.664.276-2.453.615-.287.712-.41 1.34-.41 2.453.014 1.158.218 1.57.613 2.25.122.902.524 1.586.614 2.656.28.472.204 1.47.204 2.25-.094-1.103-.764-1.892-1.02-2.862-.256-1.173-.57-2.16-.82-3.068-.448-1.2-1.128-2.254-1.838-3.475-.72-.58-1.102-1.175-2.045-1.84-.925-.803-1.624-1.277-2.658-1.43h-2.864c-.837.333-1.086.65-1.635 1.226-.253.975-.743 1.76-1.02 2.453 0 1.016.04 1.95.203 2.862.485.506.808 1.052 1.022 1.84.345.587.82 2.603.82 3.586-.314-.837-1.103-3.57-1.432-4.61-.3-.83-.776-1.84-1.226-2.657-.323-1.17-.795-1.78-1.433-2.656-.52-.8-1.343-1.496-2.25-2.045-.876-.735-1.245-.978-2.453-1.023-1.05.312-1.252.667-2.248.818-.384.347-1.067.602-1.43 1.023-.194.82-.503 1.38-.82 2.045-.155.723-.203 1.666-.203 2.657.362.535.79 1.322 1.022 2.045.628.69.893 1.393 1.43 2.25.302.902 1.667 3.048 2.05 3.687-.12.12-1.197-1.558-1.64-2.053-.796-1.103-1.19-1.782-1.636-3.07-.527-.688-1.152-1.644-1.635-2.042-.672-.79-1.61-1.626-2.656-2.25-.914-.642-1.4-.613-2.66-.613-1.29-.268-2.217.008-3.064.408-.61.62-1.897 1.626-2.453 2.045-.615.78-.917 1.3-1.434 1.84-.272.684-.495 1.38-.612 2.25.09 1.13.534 1.383 1.024 2.453.543.42 1.35 1.5 1.838 1.84.393.484 2.91 2.765 2.05 2.765-.37-.545-1.62-1.857-2.254-2.355-.598-.73-1.34-1.364-1.838-1.84-.84-.364-1.518-.692-2.453-.82-1.182-.235-1.93-.37-3.068-.407-1.034.092-1.595.604-2.25 1.022-.368.6-.78 1.11-1.022 1.84-.46.558-.408 1.384-.408 2.454.365.537.747 1.324 1.022 2.042.623.598 1.076 1.57 1.84 2.25.81.68 1.517 1.008 2.452 1.225 1.006.037 1.547.204 2.66.204.707.046-.342.18-.615.412" stroke-width=".9934124999999999" fill="none"/>
    <path stroke-linejoin="round" d="M247.825 264.737l-.204-.204c.512.51.282.265-.818-.615-1.245-.585-2.61-.77-4.087-.816-1.126.29-2.35.594-3.476.816-.655.668-1.08.95-1.842 1.84-.31.777-.477 1.368-.204 2.454.55 1.13.784 1.53 1.634 2.453.594.403 1.084.72 1.842 1.023 1.547.233 3.065.76 4.702.82 1.18 0 4.116.375 5.23.41 1.382 0-3.5-.207-4.004-.207-1.48 0-2.932.01-4.294.204-1.303.265-2.55.562-3.68 1.227-.932.53-.818.984-.818 2.25.294.73.65 1.232 1.022 1.84.64.59 1.17 1.148 2.046 1.432 1.07.588 2.182 1.126 3.475 1.226.847.286 4.447-.03 3.19-.1-.656.553-5.07.67-6.258.916-1.26.533-2.612 1.28-3.68 1.637-.23.886-.405 1.53-.204 2.454.44.718.79 1.373 1.43 2.046.512.508.8.792 1.638 1.02.874.43 2.304.667 3.475 1.022.91 0 .926-.135 1.432-.408M339.22 251.65c0-.07-.41-.678-.82-1.226-1.08-1.267-2.91-2.663-4.294-3.887-1.49-.6-2.58-1.32-4.088-1.43-1.268 0-1.676.01-2.045 1.022-.445.537-.63 1.282-.818 2.25-.42 1.008-.408 1.956-.408 3.27-.307.612-.26 1.727-.612 2.25-.03.542-.133.89-.207.815-.34-.68.217-2.087.41-3.065 0-1.242.165-2.28.205-3.475-.477-1.863-.644-2.337-2.045-3.884-1.388-1.46-2.382-2.338-4.088-3.475-.895-.23-2.07-.6-3.27-.614-.74.4-1.742 1.047-2.455 1.635-.717.972-1.006 1.592-1.022 2.864.148 1.122.49 1.843 1.022 2.86.284.72.6 1.642.82 2.66.373.956.526 2.344 1.02 3.065.137 1.09.13.702-.205 0-.106-1.386-.546-2.673-1.023-3.68-.397-1.49-.837-2.037-1.634-3.272-.79-1.226-1.137-1.72-2.453-1.838-.874-.29-1.99-.29-2.864 0-.755.42-.977.67-1.02 1.838-.233.697-.31 2.382-.31 3.378 0 .303 1.04-4.243.718-5.42-.765-1.41-1.626-2.513-2.863-3.68-1.205-1.448-2.296-2.775-3.883-3.68-1.11-.33-1.722.158-2.453.818-.954.635-1.696 1.54-2.045 2.25-.232.85-.534 1.34-1.024 2.248-.768.96-1.396 4.47-1.53 3.796-.165-1.1.235-3.926.51-5.023.114-1.407.24-2.626-.206-3.68-.848-1.123-1.59-1.95-2.657-2.453-.71-.777-1.245-.82-2.453-.82-.91.29-2.096.976-3.068 1.636-.596.56-.853.943-1.02 1.637-.368.636-.657 1.952-.82 2.657-.21.877-.597 1.698-.613 2.86-.425 1.39-.205-.945-.205-1.634-.326-.983-.164-2.32-.612-3.067-.554-1.026-.81-1.264-1.84-2.043-1.048-.474-1.58-.818-2.862-.818-.57.4-1.26.657-1.84 1.226-.65.833-1.2 1.66-1.84 2.658-.22.888-.205 1.863-.205 2.864.023.832.172 1.32.206.204v-3.272c-.22-1.144-.423-1.674-1.432-2.045-.71-.385-1.67-.41-2.86-.41-.833.295-1.08.65-1.228 1.636-.508.715-.614.953-.614 2.045-.29.578-.204 1.765-.204 2.658-.326.437-.37 1.32-.408 0-.07-1.025-.33-2.138-.615-2.86-.68-.53-1.62-1.124-2.25-1.432-.998 0-1.976-.018-2.86.204-.79.403-.788 1.025-1.43 1.635-.208.88-.536 1.224-.616 2.25-.185.86-.122 1.554 0 2.452.228.64.57 1.42.41 1.84-.508-.582-1.345-1.65-2.044-2.656-.758-.61-.967-.876-2.045-1.022-.88-.068-1.423-.206-2.454-.206-.494.432-1.1.863-1.633 1.23-.48.704-.874.855-1.023 1.837-.31.617-.21 1.83 0 2.453.498.323.665.733 1.227 1.022.425.527 1.063 1.04 1.43 1.635.245.49.333.243-.407.206-.64-.768-1.475-1.06-2.66-1.637-1.273-.23-2.187-.02-3.475.203-.58.84-.977 1.627-1.02 2.864.04 1.088.73 2.683 1.33 3.18" stroke-width=".9934124999999999" fill="none"/>
    <path stroke-linejoin="round" d="M346.77 237.32h-1.025c-1.617-.152-3.072-.396-4.7-.412-1.5 0-2.65.016-3.885.615-1.2.418-1.435.866-2.25 1.634-.52.975-1.146 1.783-1.43 2.864-.367.91-.775 1.723-.818 2.862.262 1.565 0-1.126 0-1.84.326-1.845.207-3.628-.204-5.52-.392-1.335-.82-2.43-1.43-3.68-.46-.812-.983-1.512-2.045-1.84-.737-.212-1.932-.24-2.657 0-.517.363-1.37 1.34-1.842 2.045-.52.694-1.21 1.748-1.634 2.453-.51.853-.91 1.923-1.227 2.657-.103.593-.25 1.245-.41 1.637-.408-.818-.9-1.09-2.043-1.637-1.062-.91-2.25-1.738-3.27-2.25-.817-.505-1.983-1.234-2.865-1.634-.628-.437-1.695-.704-2.657-.818-.993 0-2.4-.127-3.065.204-.795.282-1.078.725-1.433 1.432-.36.585-2.122 2.625-2.053 2.46 0-1.138 1.004-3.44.622-4.505-.544-1.078-.99-1.592-1.227-2.453-.644-.713-.877-1.484-1.635-2.045-.278-.783-.805-1.016-1.226-1.636-.91-.387-1.017-.773-2.25-.818-1.017 0-1.96.164-2.66.408-.76.21-1.398.49-1.837 1.022-.92.44-1.087.82-1.842 1.43-.524.37-1.17 1.164-1.43 1.842-.596.726-.085.93 0 2.045" stroke-width=".9934124999999999" fill="none"/>
    <path stroke-linejoin="round" d="M343.298 227.94v-.206c0 .604.037.265-.612-.816-.413-.67-.845-1.2-1.637-2.045-.708-.83-1.19-.82-2.454-.82-.893 0-2.08-.083-2.657.205-.798.305-1.264 1.076-1.842 1.842-.646.898-1.29 1.547-1.634 2.25-.41.976-.79 1.395-1.023 2.248-.516.387-.492.8-1.226 1.022-.368-.667-1.043-1.065-1.43-1.637-.914-.315-2.127-1.208-3.068-1.838-.998-.665-1.912-1.04-2.86-1.637-.912-.316-1.487-.408-2.658-.408-1.285.058-1.88.355-2.863 1.022-.893.42-1.51 1.054-2.25 1.635-.72.5-3.67 4.837-4.41 5.446-.755.71 2.564-3.293 3.184-4.424.476-1.21.817-1.943.817-3.272-.233-1.672-.384-3.21-1.637-4.292-.98-.384-2.14-.604-3.475-.615-.935.13-1.412.415-2.453.616-.784.42-1.566.628-2.25 1.227-.654.402-1 .823-1.838 1.226-.408.598-1.014.847-1.43 1.43-.302.13-1.412 1.24-1.542 1.54" stroke-width=".9934124999999999" fill="none"/>
    <path stroke-linejoin="round" d="M336.543 223.225h-.204c.6 0 .264.035-.817-.614-.56-.38-1.086-.868-1.637-1.43-1.15-.29-2.066-.83-3.272-1.022-1.022-.42-2.172-.816-3.065-1.023-.883 0-1.868-.005-2.454.204-.408.598-.882.945-1.226 1.636-.273.575-.464 1.52-.82 2.043-.023.817-.43 2.237-.923 2.566.455-.806 1.287-3 1.536-4.406-.315-1.5-.91-2.882-1.634-4.293-.8-.97-1.718-1.922-2.658-2.863-.946-.236-2.003-.204-3.068-.204-1.245 0-1.648.015-2.25.818-.582.46-1.096 1.27-1.634 1.635-.585.782-1.13 1.116-1.43 2.25-.416.81-.623 1.417-.82 2.25l.82-2.25c-.416.81-.623 1.417-.82 2.25v.203c.256-.853.8-1.666.82-2.863 0-1.058.045-2.32-.204-3.067-.326-.808-.652-1.306-1.433-1.84-.954-.942-1.74-1.577-2.86-2.044-.915-.467-1.86-.538-2.865-.204-1 .42-1.396.78-1.838 1.43-.883.313-.98.687-1.023 1.84-.037 1.11-.185 2.008 0 2.863.138 1.17.474 1.907.82 2.864.444.688.96 1.096 1.225 1.838.273 0 1.235 1.478 1.235 1.75" stroke-width=".9934124999999999" fill="none"/>
    <path stroke-linejoin="round" d="M335.537 222.404c0-.458-.414-2.808-.414-3.886 0-1.11-.19-1.586-.204-2.66 0-.742.195-2.36-.305-2.05.037 1.005.1 2.37.1 3.482-.29.818-.38 1.38-1.022 1.84-.663.442-1.696.408-2.86.408-.98-.106-2.213-.17-2.865-.612-1.05-.225-1.7-.535-2.453-1.022-.7-.398-1.28-.846-1.84-1.227-.237-.872-.663-1.094-.817-2.25-.464-1.066.615-3.587.32-3.88-.08 1.046-3.92 2.673-5.022 3.063-1.12.38-2.02.41-3.272.41-.832 0-1.7-.005-2.25-.205-.87-.636-1.31-1.045-2.044-1.636-.956-.733-1.677-1.137-2.657-2.045-.85-.807-1.298-1.548-1.84-2.25-.348-.757-.968-2.008-1.432-2.657-.107-.816-.203-1.616-.203-2.658v2.862c-.408.9-1.067 1.83-1.838 2.658-1.122.514-2 1.066-3.273 1.227-.707-.393-1.616-.723-2.25-1.022-1.064-.158-1.44-.48-2.044-1.227-.7-1.128-1.32-1.934-1.43-3.27-.313-.56.108-1.05.203-1.84 0-.44.1-.305.204-.614M273.6 197.87c-.063 1.234-1.85 2.754-2.256 3.685-.332 1.05-1.034 1.67-1.436 2.452-.973.55-1.773.775-2.864 1.227-1.497.053-2.707.363-4.292.408-1.282 0-3.163.358-3.78-.408-.86-.932-2.466-2.175-3.17-3.067-.703-.68.513-2.414.325-2.762M228.01 217.977c-.424 1.274-.885 5.45-2.46 7.904-.714.93-1.684 1.286-2.66 1.636-1.16.302-2.067.7-3.474.818-.986.377-1.53.406-2.453.204-.572-.116.07-1.218-.504-1.335.76.38.084 1.987.707 2.973.08 1.046.368 1.337.408 2.453 0 1.204-.045 2.322-.204 3.474-.105 1.052-.288 1.976-.407 2.86-.617.928.01.142-.81.608-.843.254-1.768.675-2.862.816-.892.222-1.87.402-2.66.51-1.114.663-.63.52 0 1.432.738.593.984.805 1.228 1.944.29.575-.31 2.996-.824 3.892-.09 1.062-.49 1.81-.614 2.86-.34 1.195-.49 2.5-.82 3.68-.203.782-.61 1.7-.815 2.66-.363.652-1.274 1.8-1.637 2.453-.58.357-2.01 1.122-2.662 1.435-.175.675 1.194.598 1.64 1.22.662.663.982 1.106 1.226 2.25.172 1.137.418 1.82.614 2.657-.13.888-.45 2.005-1.022 2.657-.313 1.175-.747 1.785-1.43 2.248-.658.612-1.55 1.094-2.454 1.227-.63.44-1.695.704-2.657.818-.34.286-2.03 1.574-2.463 1.75M300.78 217.09c-.23 0-1.488-.065-2.045-.205-.977-.57-2.055-.408-3.27-.408-1.08.205-1.792.384-2.248 1.022-.482.906-.803 1.586-.818 2.86.012 1.15.367 1.99.61 2.864.432.52.48 1.402.82 2.043 0 .41.513 1.952.513 2.36-.44-.985-1.35-3.5-1.74-4.813-.22-1.463-.38-2.136-1.43-2.86-1.386-1.13-2.088-1.743-3.68-2.046-1.108.178-1.964.906-2.864 1.43-.59.69-1.697 1.325-2.454 1.84-1.012.88-1.696 1.51-2.045 2.862 0 1.044.096 1.844.207 2.66.162.747.374 1.573.612 2.246.272 1.192.526 2.263.614 3.476.206.21.204 1.242.204 1.022-.49-.67-.758-1.56-1.023-2.453-.315-.894-.742-1.755-1.226-2.656-.936-.816-1.172-.887-2.454-1.226-.99 0-1.934.048-2.657.204-.452.37-1.188.723-1.64 1.226-.555.708-1.138 1.346-1.43 2.453 0 1.045.096 1.845.205 2.658v2.456-2.456 2.456" stroke-width=".9934124999999999" fill="none"/>
    <path stroke-linejoin="round" d="M299.35 208.3h-.204c.57 0 .267.025-.82-.41-.542-.37-1.458-.474-2.044-.817-1.18-.043-2.116-.204-3.475-.204-1.198.107-1.444.598-1.635 1.84-.286.854-.204 1.883-.204 2.86-.07 1.09-.286 2.018-.41 3.068-.12.552.14 3.933-.1 4.413-.176-1.195-.934-4.502-1.33-5.434-.7-1.54-1.58-2.695-2.862-4.09-.946-.82-1.44-.615-2.66 0-1.176.152-1.42.415-2.042.82-.617.45-1.248 1.05-1.637 1.84-.652.514-1.028 1.202-1.227 2.043.07.897.34 1.73.615 2.452.19.37 2.07 4.292 2.26 4.62.214.355-1.783-3.206-2.464-3.802-.7-.686-1.387-.613-2.66-.613-1.628.203-2.98.446-4.29 1.226-.7.675-.944 1.277-1.434 1.84-.114.85-.336 1.64-.408 2.658.154 1.013.477 1.437 1.023 2.25.186.424 1.524 2.268 1.643 2.768-.786-.434-3.12-1.745-4.3-1.745-1.197.16-1.642.532-2.248 1.43-.427 1.052-.41 2.064-.41 3.272-.035 1.006-.205 1.812-.205 2.86 0 .41.413 4.94.413 5.347-.18-.763-.845-5.598-1.23-6.162-.425-.99-1.135-2.228-2.044-2.864-.655-.392-1.38-.153-2.046.204-.275.562-.964 1.67-1.43 2.25-.273 1.024-.6 1.303-.615 2.452.113.845 1.53 4.597 1.644 5.44 0 .3-1.37-3.437-1.44-3.6-.345-.825-.987-2.083-1.432-3.066-.707-.48-1.05-.964-1.838-1.43-.747-.55-1.354-.9-2.045-1.227-1.008-.287-1.903-.41-3.07-.41-.815.4-1.233.703-1.837 1.635-.286 1.03-.41 1.873-.41 3.068v3.065c.222.813.553 1.407 1.226 2.045.428.63 1.898 2.586 2.462 3.282.83.83-1.38-2.026-1.85-2.26-.84-.447-1.273-.685-2.248-.818-.577-.29-1.764-.204-2.657-.204-.97.334-2.355.54-3.068 1.023-1.145.43-2.12.49-2.454 1.43.043 1.232.28 1.9.615 2.864.507.935.838 1.642 1.43 2.246.41.602.873.975 1.636 1.23.363.532 2.347 1.607 2.872 2.25-.634-.38-2.69-.643-3.484-.412-.562.38-1.372 1.01-2.25 1.634-.887.702-.818 1.19-.818 2.456.074.975.294 1.57.615 2.247.332.703.653 1.203 1.023 2.046-.14.31 4.838 3.536 4.838 3.81M293.628 205.847h-.204c.6 0 .262-.035-.82.613-.923.31-1.824.462-2.656.205-1.216-.144-2.416-.205-3.68-.205-.41-.307-.927-.162-1.226-.613-.832-.366-1.232-.607-1.433-1.43-.473-.788-.915-1.96-1.228-2.863-.445-.834-.78-1.44-1.226-2.453 0 1.25.212 2.338.41 3.476v3.067c-.51.967-.476 1.46-1.637 1.635-1.015 0-1.96-.165-2.658-.408-1.602-.39-3.324-.783-4.906-1.023-.67-.957-1.425-1.276-2.65-2.444" stroke-width=".9934124999999999" fill="none"/>
    <path stroke-linejoin="round" d="M271.958 205.03c-1.012.275-1.98.114-2.657.816-.455.685-1.048.94-1.225 1.84-.63 1.225-.82 2.82-.82 4.498.234 1.178.928 2.294 1.638 3.067.368.6 1.25 1.873 1.844 2.765.596 1.175-.466-.354-1.232-.72-.99-1.13-2.244-2.216-3.68-2.453-1.565-.38-2.81-.522-4.29 0-1.045.514-1.27.998-1.434 2.25-.288.577-.203 1.762-.203 2.657.013 1.128.204 2.127.204 3.268.297.92.176 2.13.41 3.068.372.514.67 2.755.92 3.184-.256-1.274-.858-4.575-1.533-5.637-.498-.73-1.248-1.205-2.045-1.634-.68-.274-1.44-.497-2.453-.616-.997-.25-2.107-.252-2.862 0-1.198.424-1.603.74-2.046 1.634-.174.803-.476 1.762-.818 2.66-.07.914.003 3.94.003 5.025M258.872 205.233c0-.29-2.228.892-2.454 1.635-1.128.712-1.552 1.46-2.96 1.536-1.387.22-2.576.72-4.09.72H244.053" stroke-width=".9934124999999999" fill="none"/>
    <path stroke-linejoin="round" d="M252.116 208.708v.205c0-.602.035-.262-.614.818-.84 1.096-1.118 1.624-.82 3.067 0 1.183.168 2.132.208 3.27.59 1.405 1.35 3.348 1.838 4.498.506.922.342.437-.612.41-.993-.38-1.9-.41-3.067-.41-1.085 0-2.09.032-3.07.207-.767.51-1.522.837-2.452 1.226-.575.443-1.587.874-2.042 1.43-.218.647-.207 1.715-.207 2.658.113.837.285 1.483.613 2.045.604.912 1.174 1.527 2.046 2.454.462.442 1.21.917 1.837 1.43.633.19 2.05 1.026 2.46 1.436-.733-.503-3.432-2.246-4.298-3.07-1.922-.85-3.962-1.566-6.137-1.84-1.295.047-2.24.69-3.065 1.43-.553.794-.832 1.242-1.637 1.637-.632.776-1.278.65-1.43 1.838-.31.93-.03 1.597.205 2.66.386.977.805 2.08 1.226 2.86.62.607 1.005 1.095 1.638 1.842.766.667 1.23 1.144 2.045 1.43.493.472 1.85.973 2.562 1.227-.495.43-2.146.728-2.768 1.022-.9.763-1.524 1.293-2.043 1.84-.11.815-.206 1.615-.206 2.66-.048.846-.204 1.273-.204 2.245.416.594.975 1.704 1.637 2.25.568.654 1.264.92 1.84 1.433.407.173.66.416 1.022.612l-1.023-.612c.407.173 2.203.52 2.566.716" stroke-width=".9934124999999999" fill="none"/>
    <path stroke-linejoin="round" d="M243.72 208.912c-.097 0-.682.682-1.228 1.227-.863.835-.932 1.388-1.43 2.657 0 1.262.008 2.107.818 2.862.488.882 1.245 1.677 1.84 2.452.706.686 1.016 1.242 1.432 2.045-.408-.6-1.216-1.26-1.84-2.25-.693-.496-1.358-1.398-2.25-2.044-1.216-.44-1.75-.58-2.86-.41-.944.63-1.933 1.08-2.66 1.84-.838.712-1.61.92-2.044 1.84-.656.47-.776.934-.818 2.046 0 1.305.29 1.867.614 3.064.554.962 1.034 1.87 1.43 2.456.322.262 1.38 1.703 1.54 1.54-.564-.34-1.836-1.56-2.766-1.747-.77.353-2.376.207-3.475.207-1.21 0-1.942.005-2.864.408-.822.312-1.776.736-2.658 1.43-1.1.38-1.727.798-1.838 2.045.18.994.62 1.166 1.43 2.046.896.942 1.722 1.94 2.86 2.656.51.736 1.776 1.67 2.25 2.25.58.264 3.6.2 2.472.2-.898.233-4.816.914-5.54 1.433-.905.865-1.11 1.66-1.226 3.067.074 1.27.408 2.31.615 3.475.516 1.057.67 1.86 1.226 2.658.44.678 1.493 1.68 2.046 2.045.882.357 2.24 1.025 3.272 1.43.546.2 1.468.416 2.246.612h-3.68c-.956.254-1.692.36-2.248.82-.845.282-1.047.74-1.635 1.225 0 1.12.12 1.757.616 2.453.132.896.633 1.765 1.226 2.25.48.76 1.206 1.422 1.84 1.84.823.718 1.188.885 2.044 1.227.927.125 1.746.477 2.657.612.464.384 1.664.615 2.25 1.022l-2.25-1.022c.464.384 1.664.615 2.25 1.022l1.027.31c-.954.146-2.413.19-3.48.713-1.458.447-2.9.74-3.477 1.634-.92.46-1.004.892-1.226 1.84-.085 1.185-.133 1.61.204 2.454.515.74 1.045 1.234 1.638 1.637.604.506 1.772 1.47 2.657 1.838 1.017.588 1.725.883 2.453 1.227-.975.16-1.99.204-3.068.204-.665.39-1.192.405-1.634 1.022-.684.498-1.13.978-1.227 2.046-.297.884-.1 1.494.407 2.453.636.48 1.336 1.144 2.045 1.634.737.343 1.892.78 2.86 1.022.333.132 1.51.204.412.204-.524.27-1.62.206-2.453.206-1.07.096-1.485.488-2.248 1.023-.654.65-.978.792-1.023 2.042 0 1.16.103 1.66.61 2.25.54 1.128 1.032 1.48 1.842 2.044.69.42 1.802.582 2.86.613 1.26 0 2.486-.03 3.68.207.518 0 4.547.673 4.624.617" stroke-width=".9934124999999999" fill="none"/>
    <path stroke-linejoin="round" d="M224.91 241.213c0 .06-.376.596-.612 1.226-1.02.77-1.038 1.45-2.25 1.634-.86.188-1.554.122-2.452 0-.366-.512-1.078-1.055-1.634-1.43-.464-.668-1.222-2.03-1.744-2.46M226.66 248.365c-.052.31-.992 2.014-1.127 2.66-.777.78-1.916 1.976-3.068 2.66-.866.204-1.502.508-2.657.612-.97.312-2.17.204-3.272.204-.895-.206-1.534-.58-2.453-1.022-.394-.487-2.82-2.52-3.486-2.972" stroke-width=".9934124999999999" fill="none"/>
    <path stroke-linejoin="round" d="M225.546 251.094c0 .312-.458 4.707-1.025 6.678-.495.874-1.223 1.873-1.838 2.86-.657 1.103-1.04 1.705-2.25 2.25-1.358.512-2.706.615-4.293.615-1.016-.244-2.285-.885-3.477-1.227-.74-.503-1.72-1.104-2.453-1.637-.742-.612-1.626-1.168-2.048-2.045" stroke-width=".9934124999999999" fill="none"/>
    <path stroke-linejoin="round" d="M229.414 269.028h-.204c.553 0 .27-.013-.82.204-1.382.204-2.256.08-3.475-.41-.882-.308-1.933-1.108-2.86-1.84-.85-.82-1.627-1.588-2.25-2.044-.063-.675-.365-1.224-.818-1.634 0 1.03.092 1.918.206 2.86 0 1.153-.15 2.054-.41 3.068-.323 1.137-.774 1.558-1.635 2.453-1.224.255-2.307.408-3.68.408-1.475-.01-2.744-.25-4.09-.408-.74-.336-1.41-.683-2.045-1.022M229.122 269.214c-.73 2.283-3.306 3.467-3.79 4.095-1.158.28-2.146.6-3.476.614-1.195 0-1.328-.05-2.045-.615-1.184-.396-1.56-.72-2.045-1.43 0-.274.07-.205-.204-.205M231.665 281.294l-.204.204c.465-.464.242-.294-.203.818-.635 1.195-1.478 1.39-2.657 1.84-1.08-.163-1.502-.558-2.66-1.228-1.078-.604-1.894-1.64-2.656-2.657-.618-1.37-1.023-2.526-1.023-4.087-.282-.64-.38-1.425-.818-1.84v4.294c-.317.956-.36 1.703-.612 2.657-.17 1.245-.426 2.153-.818 3.067-.752 1.045-1.92 1.305-3.476 1.432-1.247.267-2.71.204-4.087.204-1.074-.127-1.718-.334-2.658-.612-1.084-.615-1.378-.803-2.25-1.84-.956-1.082-2.095-2.45-2.66-3.477-.322-1.144-.88-4.593-1.125-5.844 0-1.208.114 2.808.106 3.39-.297 1.832-.41 3.593-.41 5.522v3.27c-.213 1.352-.382 2.046-1.227 2.862-.59.663-1.698 1.487-2.25 1.84-.436.53-1.006.93-1.838 1.225-.898.493-1.756.697-2.66.82-.492.086-.837.388-1.226 0" stroke-width=".9934124999999999" fill="none"/>
    <path stroke-linejoin="round" d="M232.3 290.062c-.484.705-1.41 2.286-2.253 2.46-.896.473-2.286.41-3.68.41-.983-.226-2.016-.173-2.453-.82-1.584-1.062-3.036-2.278-4.294-3.68-.55-.706-1.078-1.54-1.433-2.248-.472-.162.058.47.206.818.745 1.094 1.235 2.197 1.43 3.476.263.978.263 2.28 0 3.065-.24 1.086-.56 1.857-1.43 2.66-.418.52-1.1.408-2.045.408-1.322-.166-2.38-.717-3.68-1.226-1.417-.837-2.01-1.08-2.656-2.453-.268-1.55-.427-3.175-.615-4.7-.027-.56-.04-2.814-.305-3.08-.29.76-.747 3.596-1.126 4.51-.24 1.313-.376 1.724-1.634 1.84-.668.326-1.59 0-2.66 0-.74-.25-1.216-.43-1.634-.818-.188-.347-.427-.47-.615-.82M234.95 292.526h-.204c.602 0 .24-.058-.41 1.02-.485.728-.636 1.624-.816 2.455.084 1.11.368 1.384.816 2.044 1.192.72 1.39 1.022 2.863 1.226 1.6.305 6.503-.106 8.1.202 1.256.18-3.547.924-4.013 1.025-.79.424-1.65.556-2.453 1.226-1.105.853-1.937 1.555-2.657 2.046-.207.788-.408 1.564-.408 2.656.277.696.65 1.327 1.02 2.045.756.795.99 1.254 2.044 1.638 1.62.058 3.22.19 4.906.204 1.637-.424 4.593-1.158 5.63-1.74.3 0-1.172.442-1.336.513-.686.342-1.364.867-2.25 1.635-.84.42-1.122.898-1.633 1.634-.532.684-.747 1.288-1.226 1.84-.143 1.053-.148 1.358.408 2.25.75 1.036.935 1.468 2.045 1.635.458.44 1.142 1.003 1.84 1.432.49.223 3.514.244 3.29.61-.997.07-4.685.386-5.334.82-.834.295-1.078.65-1.226 1.635.042 1.168.26 1.45.815 2.25.374.548.933 1.083 1.638 1.43.498.477 4.055 1.192 4.72 1.743.86.3-2.983-.31-3.698-.31-.58.29-1.764.204-2.66.204-.362.588-.83 1.144-1.226 1.838-.368.615-.085 1.33 0 2.045.535.575 1.274 1.8 1.637 2.454.673.46.835.862 1.84 1.227.412.453 4.152 1.89 4.828 1.952M243.32 332.183v.206c0-.605.06-.242-1.02.407-.5.618-1.273 1.306-1.636 1.84-.19.918.035 1.376.408 2.248.546.44 1.27 1.322 1.637 2.045.95.87 1.597 1.388 2.042 2.045.617.186 2.842 1.137 3.49 1.54-1.154-.017-4.015-1.055-5.125-1.132-1.356 0-1.97.154-2.863.615-.37.598-.777 1.11-1.02 1.838-.255.718-.5 1.404-.615 2.25-.284.88.01 1.36.407 2.044.713.575 1.015.95 1.84 1.227.592.527 1.3.803 2.454.818.51.255 2.67.1 3.284.1-.708.462-2.885.907-3.69 1.127-.642.33-1.428.567-1.842 1.023-.442.69-.776 1.112-.818 2.246.34.857.86 1.65 1.84 2.457.91 1.025 1 1.23 2.25 1.634 1.06.49 5.412.05 6.57.1-1.026.153-5.516 1.403-6.57 2.15-.745.53-.784 1.13 0 1.84.503.897 1.08 1.36 2.045 1.636 1.11 0 1.583-.19 2.656-.204.943.11 4.405-.106 5.436-.106-.792.448-4.874.993-6.05 1.13-1.023.35-1.444.383-1.635 1.43 0 .942-.11 1.623.408 2.044.53.935.842 1.007 2.045 1.02.593.358 1.404.045 2.25 0H258.574M256.99 379.178c.618 0-6.32-8.867-9.157-7.93-1.306.224-2.154.242-2.657 1.228-.734.73-1.463 1.968-1.84 3.065-.1 1.108-.27 1.995 0 3.068.187.808.664 1.664.817 2.657.225.44.5 1.396.204 1.84-.146-.698-.352-1.132-.614-2.044-.242-1.554-.385-3.22-.612-4.7-.638-.483-1.4-1.243-2.248-1.842-1.153-.164-2.157-.196-3.068 0-.755.662-1.04 1.184-1.84 1.637-.656.217-2.335.363-3.273.408" stroke-width=".9934124999999999" fill="none"/>
    <path stroke-linejoin="round" d="M218.79 294.99c.07 0-.042-.056.82 1.022.5.374.67.736 1.43 1.227.874.66 1.804 1.02 3.067 1.225 1.248.42 2.578.6 3.884.816 1.127 0 2.263.02 3.273-.203 1.17 0 1.775-.167 2.86-.204l.825-.31M235.77 306.434v.206c0-.553-.012-.27.205.816 0 1.232-.19 1.563-.614 2.25-.892.646-1.89.85-3.064 1.226-1.505-.066-2.806-.334-4.09-.816-.99-.82-1.407-1.386-2.046-2.66-.664-2.024-1.205-3.58-1.226-5.725 0-1.18.032-2.08-.612-2.656-.313-.31-.344.533-.615 1.023-.09 1.23-.622 1.952-1.226 3.068-.744.717-1.615 1.55-2.656 2.25-1.076.237-1.452.42-2.453.203-.667-.792-1.59-1.778-2.044-2.25-.25-.956-.96-2.113-1.43-3.27-.44-1.1-.936-2.04-1.023-3.273-.41-1.13-.33-.975-.612.204-.598 1.295-.773 2.145-1.433 3.27-.855.666-1.64 1.254-2.86 1.638-1.428.215-2.36.11-3.68-.207-.996-.356-1.476-.796-2.045-1.633-.633-.623-.888-1.057-1.023-2.045-.417-.678-.867-2.146-1.227-3.065-.406-.493-.697-1.44-.82-2.25-.282-.232-.46-.667-.61-1.022" stroke-width=".9934124999999999" fill="none"/>
    <path stroke-linejoin="round" d="M242.818 310.3c-.03.396-.453 3.117-.922 3.898-.556 1.168-.765 1.59-2.045 1.635-1.268-.204-2.26-.843-3.27-1.635-.846-1.068-1.68-1.873-2.247-3.065-.615-.506-.548-.797-.408 0 .652.668.596.646.612 1.84v3.066c-.013 1.01-.164 1.716-.41 2.452-.387 1.08-.835 1.62-1.84 2.453-1.165.26-1.358-.164-2.248-.818-1.093-.443-1.52-.843-2.25-1.43-.58-.58-1.18-1.288-1.637-2.046-.11-.815-.204-1.615-.204-2.656 0-1.022.822-3.486.822-4.51-.156-1.25-.99 1.06-1.64 1.853-.527 1.01-1.197 1.796-1.84 2.25-.86.797-2.19 1.16-3.476 1.43-1.21 0-2.186-.186-3.272-.41-.712-.986-.96-1.54-1.43-2.454 0-1.274.185-2.146.408-3.27.214-1.064.5-2.894.514-3.994 0-1.11-.19 1.207-.514 1.745-.268 1.21-.55 1.274-1.43 2.042-1.06.143-2.115.207-3.272.207-1.24 0-2.37.11-3.476.408-.763-.268-1.166-1.343-1.635-2.25-.265-.794-.4-1.55-.41-2.656 0-1.055-.242-1.674-.41-2.453-.465 1.038-.887 1.12-2.042 1.226-.672 0-1.47.073-1.84-.207-.4-.655-.94-1.26-1.227-1.84l1.227 1.84c-.4-.655-1.865-2.7-2.153-3.28" stroke-width=".9934124999999999" fill="none"/>
    <path stroke-linejoin="round" d="M244.354 318.09c0 .196-.108 1.303-.203 1.84-.368.846-.49 1.61-.614 2.658-.01 1.012-.164 1.72-.408 2.453-.474.65-1.038 1.007-1.635 1.43-1.382 0-1.79-.126-2.863-.815-.896-.725-1.733-1.348-2.453-1.84-.586-.986-1.195-1.757-1.84-2.658l-.722-.72c-.416-.87.46.482.72 1.54.31 1.077.41 2.028.41 3.268-.036 1.306-.272 2.395-.41 3.682-.553 1.094-.574 1.333-1.838 1.43-1.335 0-2.61-.018-3.883-.203-1.26-.194-2.205-.54-3.272-1.227-.273-.713-.41-1.613-.41-2.66.015-1.245.304-2.29.41-3.475.437-1.192.604-1.947 1.022-3.065.334-.448.528-.933.612-1.637-.182 1.27-.858 2.164-1.226 3.27-.65 1.22-1.674 2.47-2.25 3.68-.778.748-1.06 1.045-1.838 1.43-.922-.136-1.343-.483-2.045-.815-.4-.588-.877-.93-1.226-1.84-.646-.912-.805-1.32-.818-2.658 0-.824.066-2.25 0-2.453-.085-.26-1.075-3.825-1.335-3.91M216.142 314.805c-.318.204-1.66.588-2.657.612h-3.68c-1.195-.11-1.084-.56-1.433-1.43-.37-1.082-.546-1.966-.612-3.07-.178-.987-.694-1.082-.82-1.935-.59.38-.62-.117-1.633.098-1.407.215-2.535.514-3.886.816-1.263.175-2.405.395-3.68.41-1.19 0-2.12.114-2.656-.614-.342-.686-.397-1.637-.408-2.657 0-1.15.127-2.262.408-3.068.418-.776.96-1.602 1.634-2.25.384-.56.872-1.048 1.434-1.43.42-.62.948-.852 1.226-1.634.49-.405.737-1.033 1.023-1.637" stroke-width=".9934124999999999" fill="none"/>
    <path stroke-linejoin="round" d="M188.51 302.248c.367.085 3.085.69 3.692 1.128 1.004.56 1.396 1.195 2.042 1.84.323.682.538 1.305.82 2.248.155.78.203 1.817.203 2.864-.382.628-.742 1.674-1.023 2.453-.42.623-.797 1.03-1.634 1.43-.986.76-2.69 1.442-4.09 2.046-.944.112-1.83.204-2.862.204-1.022 0-2.148.618-3.17.618-.99 0-2.403-.128-3.066.204-.302 0-.156.047-.41-.204M217.572 322.99c-.082 0-.644.657-1.226 1.02-.483.816-.684 1.293-1.227 2.25-.353.956-.54 1.692-.613 2.66v2.86c.01 1.073.204 1.547.204 2.657v5.726-2.86 2.86M220.01 325.85c0 .412-.247 3.78-.003 4.51.066 1.24.416 1.934.818 2.86.64.497 1.486 1.633 2.25 2.454.614.618 1.236 1.002 2.248 1.227 1.185.237 2.125.41 3.065.207.77-.336 1.945-.996 2.864-1.433.42-.91 1.025-1.94 1.43-3.065.35-1.08.377-2.194.41-1.842.433.353 1.246 1.325 1.636 1.84.866.523 1.716 1.138 2.453 2.044.766.853 2.003.57 3.174.61" stroke-width=".9934124999999999" fill="none"/>
    <path stroke-linejoin="round" d="M222.473 340.766c0-.07 2.408 3.086 3.277 3.086.946.236 2.016.374 3.068.41 1.255-.015 2.22-.328 3.27-.818.852-.9.613-2.24.613-3.68v-3.067c-.023-.837-.28-1.494-.407-2.25.188 1.328.827 2.433 1.227 3.68.455.986 1.886 4.597 3.27 4.81.626.76 1.228.367 1.84-.515 1.107-.726 1.39-4.13 1.84-4.703 0-.575.15-.533.205-1.023" stroke-linecap="round" stroke-width=".9934124999999999" fill="none"/>
    <path stroke-linejoin="round" d="M222.05 348.528c0 .07 1.59 1.406 2.67 2.055 1.117.843 1.295 1.023 2.66 1.023.924-.175 1.294-.887 2.042-1.637 1.043-1.018 1.284-1.832 1.022-3.27-.04-1.115-.344-2.896-.612-2.45.472.617.91 1.517 1.227 2.04.42.622.72 1.06 1.633 1.226.538.455 1.314.747 2.25.818.495.37 1.13.244 1.43-.204.69-.31 1.202-.62 1.637-1.022.196-.65.538-1.05.816-1.635" stroke-width=".9934124999999999" fill="none"/>
    <path stroke-linejoin="round" d="M237.6 347.733v.204c0-.55-.014-.273.203.816.07 1.184.207 2.223.207 3.476-.297 1.225-.49 2.11-1.227 2.862-.694.347-1.92.188-2.863 0-1.235-.556-4.46-2.87-4.906-3.883-.302-.176 2.667 2.068 3.067 2.656.462.71.8 1.237 1.02 2.045.2.594.343 1.9.208 2.247-.17 1.116-.56 1.084-1.433 1.433-.885.22-1.86.204-2.86.204-.913-.124-1.424-.418-2.25-.614l-.31-.207" stroke-linecap="round" stroke-width=".9934124999999999" fill="none"/>
    <path stroke-linejoin="round" d="M241.493 356.713v1.024c-.238.942-.347 1.787-.614 2.452-.202 1.15-.698 1.202-1.432 1.84-.906.225-1.936.24-2.657 0-1.29-.773-1.964-1.187-2.862-2.25-.898-.897.384.515.818 1.228.708.625 1.126 1.07 1.227 2.25.243 1.22.29 1.737-.41 2.452-.507.726-1.272 1.094-2.454 1.43h-2.862c-1.08-.24-.975-.556-1.43-1.226M244.46 362.86c.05.39-.015 2.113-.103 3.067-.792 1.317-.79 1.375-2.25 1.84-1.178.16-2.394.205-3.68.205-.862-.302-1.493-.882-2.044-1.84-.805-.605-.254.237 0 .818.427 1.107.787 1.827 1.023 3.067.07.845.52 1.105-.408 1.227-1.033.29-2.114.408-3.272.408-.892-.122-1.896-.096-2.662-.305" stroke-width=".9934124999999999" fill="none"/>
    <path stroke-linejoin="round" d="M237.387 369.72c.075.353.467 1.044 1.026 1.534.408.85.953 1.198 1.634 1.635.72.407 1.242.802 2.045 1.02 1.134 0 1.627-.213 2.453-.407 1.232-.42 1.272-.635 1.84-1.433.393-.638.687-1.08.817-2.042.294-.588.2-1.656 0-2.25-.082-1.08-.537-1.448-.816-2.248-.29-.098-.384-.82-.617-1.13M209.386 315.626c-.07.07-.135.138-.204.204.485-.485.286-.252-.818.41-.996.268-1.402.583-1.84 1.227-.93.514-1.578.972-1.84 2.045v2.86c-.222.746-.204 2.015-.204 3.07 0 1.11-.13 2.03-.204 3.064.143.667.54 1.624.31 2.254-.077-.893-.514-2.093-.514-3.07-.373-.543-.784-1.754-1.226-2.25-.59-.51-1.195-.736-2.25-1.022-1.088-.363-1.81-.225-2.452.408-.47.49-1.036 1.3-1.434 2.25-.222 1.123-.572 1.745-.612 2.86-.23 1.073-.407 1.722-.203 2.66v3.065c0 .955.206 2.22.206 3.175-.13 1.512-.49-.236-.82-.72-.22-1.026-.442-1.86-1.023-2.454-.514-.62-1.364-.815-2.453-.815-1.043 0-1.626-.244-1.838.612-.302.604-.355 1.976-.41 2.864v5.723c-.176-1.086-.6-1.58-1.227-2.453-.714-.82-1.283-1.04-2.658-1.227-1.336-.323-1.995-.198-3.068.41-1.028 1.005-1.706 1.347-1.84 2.454-.414.5-.502 1.438-.613 2.25v3.064c0 .57-.842-.62-1.43-1.43-.686-.943-1.094-1.184-2.25-1.226-.783.403-2.343 1-3.064 1.634-.522.422-.41 1.102-.41 2.046v2.863c-.056.71-1.118.71-1.635.204-.756-.372-1.753-.886-2.656-1.02-.78-.37-1.428-.454-2.045-.205-.32 1.033-.616 1.85-.616 3.065-.312.84-.408 1.454-.408 2.453" stroke-width=".9934124999999999" fill="none"/>
    <path stroke-linejoin="round" d="M214.5 322.38c-.07 0 2.744-.926 2.675-.926.572 0-2.612.9-3.698 1.335-.827.3-1.72 1.196-2.453 2.044-1.683 1.502-3.72 3.765-5.317 5.52-1.478 1.484-2.53 2.5-3.476 4.088-2.04 1.62-3.554 3.17-5.313 5.113-1.878 1.404-3.733 2.753-5.52 4.292-1.79.895-3.373 1.698-5.317 2.453-1.738.58-3.238 1.35-4.907 2.045-.887.69-1.396.99-2.453 1.43-1.61.925-3.45 1.635-4.702 2.454-.612.414-1.036.968-2.045 1.432-.644.752-1.49 1.06-2.453 1.634-1.118.403-2.305.798-3.68 1.227-1.417.485-2.296.89-3.68 1.43-3.758 1.317-7.602 2.827-11.448 3.476-1.102.402-2.213.735-3.27.817-1.553.562-3.48.59-5.112.82-1.047.275-2.36.608-3.27.815-1.053.29-2.08.535-2.863.82-1.05.12-2.226.42-3.067.613-.996.294-1.42.59-2.25.816-.465.406-2.404 1.96-2.87 2.36M185.068 316.845c.12.392.41 1.63.41 2.66-.167.974-.365 2.193-.818 2.86-.366.917-1.54 1.78-2.25 2.453-.82.18-1.554.347-2.452.615-1.055.077-3.444 2.384-4.61 2.47-.68.134-1.523.2-2.456.2-.29-.307-.39-.132-.816-.302.687.49.477.658.612 1.734 0 1.09.763 2.177.62 3.17-.25 1.21-1.295 2.676-2.14 3.153-1.033.64-1.942 1.036-3.068 1.433-1.007.035-1.814.204-2.86.204-.682 0-1.22-.037-1.638-.204M195.902 310.513V311.74c.268 1.34.464 2.275 1.43 3.27.684.918 1.776 1.636 2.862 2.25h3.068c.736-.127 2.376.128 3.18.104M198.34 317.268c-.07.067.48-.174.413-.106.51-.514-.34.045-1.436.922-1.232 1.047-1.762 1.508-2.045 3.068.016 1.174.265 1.51.615 2.25.257.91.755 1.753 1.43 2.248.273 0 .204.07.204-.204M184.962 322.17c0 .097.96.5 1.332 1.022 1.044.665 2.37 1.85 3.68 2.657 1.274.423 2.458.118 3.68-.41.813-.214 1.414-.508 2.044-1.226l.207-.206" stroke-width=".9934124999999999" fill="none"/>
    <path stroke-linejoin="round" d="M188.75 325.454c-.538.95-1.35 1.52-1.433 2.657 0 1.048.137 1.946.41 2.658.382.707.83 1.82 1.43 2.453.374.613.758 1.13 1.227 1.432-.363-1.004-1.282-1.783-2.25-2.657-.375-.43-.817-.612-1.225-.204-1.05.075-1.763.337-2.454.615-1.15.4-2.114.933-2.86 1.43-.75.774-.82 1.2-.82 2.454-.098 1.297-.204 2.545-.204 3.882.315.26.38.453.408 1.023-.222-.858-.675-2.193-1.226-2.86-.49-.687-.846-.806-2.046-.82-1.038.19-1 .702-1.634 1.227-.62.898-1.05 1.18-1.43 2.25-.5 1.165-.615 2.15-.615 3.475.272 0 .613 2.127.613 1.854" stroke-width=".9934124999999999" fill="none"/>
    <path stroke-linejoin="round" d="M179.53 325.454v.204c0-.546.04-.26-.614.612-.283.962-.408 1.494-.408 2.66.154 1.18.59 1.796.82 2.86.8.954 1.117 1.397 2.04 1.842.282.28.645.38.82.204M173.81 332.792h-.205c.053.135 0 .91 0 1.43 0 .978-.082 2.01.204 2.864.203.832 1.355 1.147 1.845 1.637M163.186 337.905c0 .07.41-.48.41-.413 0-.57-.386.35-.818 1.435-.964 1.147-1.67 2.05-2.864 3.272-1.255.39-2.05 1.15-3.27 2.044-1.334.755-2.632 1.192-3.885 1.84-1.37.573-2.955.99-4.498 1.43-1.373.505-2.97.88-4.498 1.022-1.038.357-2.185.61-3.27.818-1.274.443-2.675.972-3.886 1.43-.942.327-1.464.515-2.25 1.023-1.23.424-2.428 1.243-3.68 1.84-.447.542-1.67 1.29-2.452 2.044-1.275.684-2.577 1.845-3.884 2.454-1.507.962-3.013 1.754-4.702 2.25-1.348.64-2.67 1.117-3.885 1.84-.92.625-1.86 1.523-2.862 2.25-.623.916-1.41 1.6-2.25 2.248-.66 1.224-1.743 2.165-2.656 3.065-.545.37-1.176.962-1.636 1.434-.627.647-1.23 1.224-1.84 1.635-.6.744-.937 1-1.84 1.43-.56.578-1.258.745 0 .82 1.17-.374 2.595-.377 3.885-.41 1.27-.274 2.746-.417 4.09-.613 1.14-.146 2.486-.37 3.883-.408 1.488.25 3.678-.4 5.316-1.023 1.342-.794 2.583-1.504 3.885-2.248.745-.52 1.39-.752 2.247-1.227.742-.2 1.438-.606 2.25-.818M168.696 336.474c0 .252.085 1.465.204 2.045.395 1.263.92 2.233 1.84 3.064.71.42 2.184.308 3.376.308M164.405 337.507c-.162 0-.1.483-.408 1.023 0 1.054.143 2.133.408 2.86 1.353.634 2.286.944 3.883 1.024.975-.075 1.523-.324 2.25-.612.638-.133-.215.492-.82 1.02-.855.858-1.242 1.584-.815 2.863.43.896 3.743 2.02 4.313 2.562" stroke-width=".9934124999999999" fill="none"/>
    <path stroke-linejoin="round" d="M160.113 341.8c-.207.953-.236 1.504.41 2.245.557.46 1.384.41 2.454.41 1.822-.097 3.486-.41 5.314-.41.862 0-.706.117-1.022.207-1.028.36-1.557.474-2.25 1.02-1.09.448-1.64.96-2.656 1.84-.41.61-.59 1.403-.204 2.046.403.594.912 1.02 1.635 1.43.765.594.948.923 2.045 1.023h.408" stroke-width=".9934124999999999" fill="none"/>
    <path stroke-linejoin="round" d="M157.358 343.653c-.095.387-.514 1.02-.514 2.04.085 1.09.35 1.38 1.023 1.84.56.46 1.385.41 2.453.41h1.226c-.583.34-1.5.447-2.042.815-.644.44-.96.845-1.227 1.84-.016 1.143-.196 1.562 0 2.658.445.835.694 1.45 1.227 2.25.4.588 2.432 1.782 3.18 2.047M151.734 346.912c-.187.86-.12 1.555 0 2.453.483.54.85 1.24 1.43 1.634.577.476 2.4.187 3.484.2.86.025 1.338.205.204.205-.546.522-2.17 1.163-2.46 2.254-.294.587-.2 1.652 0 2.248.08 1.04.386 1.415.613 2.247.55.574.8.892 1.635 1.23l-1.635-1.23c.55.574.8.892 1.635 1.23v.203c-.11-.255-.183-.464-.408-.615" stroke-linecap="round" stroke-width=".9934124999999999" fill="none"/>
    <path stroke-linejoin="round" d="M145.093 348.448c-.49.73-.77.98-.514 1.94.534.746 1.093 1.536 1.84 2.045 1.186 1.078 7.618-.456 8.533-.318.278.28-7.793 1.592-8.33 3.383-.22.73-.303 1.952 0 2.863.015 1.175.264 1.51.614 2.25.282.594.49.996 1.227 1.227-.273 0-.205.066-.205-.207" stroke-linecap="round" stroke-width=".9934124999999999" fill="none"/>
    <path stroke-linejoin="round" d="M137.22 350.99c-.29.897.057 1.305.408 2.047.49.733 1.338 1.68 2.045 2.145.413.24 7.118-.312 6.995-.312-.752.262-6.887 1.843-8.017 2.46-.422.822-.408 1.52-.408 2.658.082 1.073.158 1.534 1.022 1.84.577.287 1.7.35 2.453.41l1.442.31" stroke-linecap="round" stroke-width=".9934124999999999" fill="none"/>
    <path stroke-linejoin="round" d="M131.498 353.35c0 .224-.334 1.204-.208 1.938.287.67.137 1.113.613 1.43.174.986.46 1.65 1.432 1.842 1.07 0 1.895.05 2.453-.41.842-.37 1.343-.69 2.044-1.02l-2.044 1.02c.842-.37 1.343-.69 2.044-1.02l3.81-1.134c-.63.458-4.675 2.103-5.445 2.36-.576.548-1.044.638-1.227 1.634-.12.898-.187 1.593 0 2.453.528.504.972.95 1.43 1.43" stroke-linecap="round" stroke-width=".9934124999999999" fill="none"/>
    <path stroke-linejoin="round" d="M127.2 356.104c-.105.236-.613 1.147-.613 2.043.1 1.096.428 1.282 1.023 2.045h2.862c.796.143 3.106-.827 3.998-.827-.897.196-3.135 1.404-3.59 2.053-.55.22-.55.55-.613 1.227-.316.53-.195 1.51 0 2.045.386.567.842 1.068 1.227 1.634" stroke-width=".9934124999999999" fill="none"/>
    <path stroke-linejoin="round" d="M122.09 358.965c0 .302.077 1.63.205 2.25.79.61 1.286 1.017 2.25 1.634 1.003.04 5.15-1.853 6.26-1.853.793 0-4.012 2.175-4.217 2.262-.412.67-.735.977-.818 2.045-.372.62-.113 1.552 0 2.246.328.507.66.756 1.227 1.023-.272 0-.204.07-.204-.203" stroke-width=".9934124999999999" fill="none"/>
    <path stroke-linejoin="round" d="M116.774 361.64c0 .07.013-.065-.205 1.023-.402.535-.05 1.036.408 1.434.587.79 1.527.98 2.453 1.226.915.162 1.847.204 2.864.204.773 0 3.703-1.923 4.107-2.265-.676.273-3.98 2.403-4.924 2.673-1.145.525-1.452.964-1.84 2.045.043 1.166.363 1.447.818 2.25.413.765 2.185-.062 2.87.394" stroke-width=".9934124999999999" fill="none"/>
    <path stroke-linejoin="round" d="M112.89 364.9v.203c0-.6.035-.262-.613.82-.207.95-.27 1.482.41 2.044.5.74.85 1.078 1.84 1.226.32.138 5.325-2.678 5.86-2.678-.805.55-6.442 3.802-6.883 4.723-.387.8-.41 1.476-.41 2.454M107.576 370.224c0 1.07-.05 1.894.41 2.453.112.935 2.08 1 2.772 1.327" stroke-width=".9934124999999999" fill="none"/>
  </g>
</svg>
