<svg xmlns="http://www.w3.org/2000/svg" height="480" width="640"><g><path d="M0 0v480l640-480h-640z" fill-rule="evenodd" fill="#ffca00"/><path d="M0 480h640v-480l-640 480z" fill-rule="evenodd" fill="#ff6500"/><g stroke="#000"><path d="M222.393 340.58s-18.311-.63-25.887 8.628c-7.576 9.261-36.751 35.225-39.146 37.045-1.086.729-24.416 5.47-24.416 5.47 11.455-11.434 24.267-15.611 34.777-35.636-5.245 10.048-9.256 14.446-15.391 19.972-5.333-2.482-19.168 8.281-30.751 13.349.21-.421 12.702-10.52 19.474-23.407l-16.528 15.201c-9.175.874-13.332 11.041-16.838 12.416-21.492 6.986-15.125 2.731-19.995 7.367-1.965 3.844-6.161 6.909-8.721 7.163-20.165 1.995-20.747 8.618-31.058 12.411-6.589 1.926-10.774.064-14.522-2.527 5.051-1.823 11.341-1.388 15.154-5.47 0 0 18.468-22.003 35.358-24.414 9.682-1.685 11.155-7.367 11.155-7.367s-28.624 7.998-33.463 12.207c-4.549 1.295-12.3 2.413-19.153 1.685 12.663-4.66 20.499-11.063 23.993-14.944 2.002-2.223 13.891-2.315 13.891-2.315s19.995-8.631 20.416-8.631l15.154-8.628s-17.679 4.631-18.1 4.631-20.651.84-20.651.63c5.389-6.898 24.809-7.378 27.596-9.049 6.503-6.504 26.729-4 27.572-4.843.842-.84-21.257-7.576-30.518-5.682-9.26 1.894-23.362-9.68-23.362-9.68s19.363-2.948 25.677-.212 29.045 8.631 30.308 7.576c1.263-1.052 26.193-9.892 29.045-6.734-2.456-5.251-5.555-5.11-5.473-9.682l13.892.633s7.155-9.473 6.943-9.892c-6.496-2.382-7.963-8.97-7.963-8.97 8.326 1.388 11.121.339 11.121.551 0 .209 7.367-8.21 7.367-8.21l5.052-7.998 3.788-17.259c-7.653 4.138-22.311-.209-22.099-.421 15.932-5.587 20.75-13.683 27.99-14.101-3.102-15.725 6.104-21.047 6.104-20.835 0 .209 6.315-13.683 6.315-13.683s-6.747-2.27-19.365 0c11.958-14.193 30.941-9.049 30.941-9.049 3.915-12.585 15.995-7.998 15.995-8.419-3.076-6.853 6.154-10.331 12.151-10.124-.861-5.107-6.334-10.499-8.437-14.779 10.029 6.447 20.478 3.944 25.752 13.327l9.471 1.052s10.522 1.894 10.734 1.894c.209 0 10.943 1.052 10.943 1.052 1.884-5.334-4.763-4.654-3.158-17.679 12.819 6.369 11.937 19.03 22.099 26.238 8.011-.552 10.43 2.253 14.385 5.896 4.615-.979 10.252 1.068 13.187 5.75-.14-4.964 1.287-11.967 7.579-3.158l11.574-.421s-15.206-22.152-28.624-9.681c3.923-13.538 17.68-12.207 17.68-12.207s-3.576-6.197-3.367-13.049c-7.343-2.937-9.682-15.364-9.892-15.154-.212.21-12.509 2.437-18.101 17.048-10.488-11.399 3.722-25.555 4.559-28.073 1.444-5.392 2.888-10.784 4.334-16.177-1.134-5.312-.694-7.948 4.156-12.158-3.235-3.349-1.746-6.54 2.103-8.629-1.301-2.29-.238-4.58.352-6.87l51.419-2.939 11.582 15.913 1.894 8.629-4.421 11.365 13.261 15.785 4.84 5.051 10.101 5.893s9.473 3.999 9.682 4.209c.212.21 11.365 2.947 11.786 3.157.421.211 9.261 5.262 10.734 5.683h28.624l15.156-1.263-.212 24.835-7.998 1.894c-3.446 2.962-4.445 4.693-10.339 8.885-8.162 2.286-14.075 1.849-14.284 1.849-.212 0-8.21-2.106-8.419-2.315-.212-.209-9.052-2.947-9.052-2.947l-13.889-3.368c-5.714-.898-7.998 2.947-8.419 3.578-.421.631-2.737 27.993-2.737 27.993s-4.843 12.416-4.843 12.628c0 .209-4.488 8.3-7.998 11.155-.652 3.346-1.176 6.914-9.259 12.838-1.714 5.354-.326 10.514 5.47 11.577l8.419 3.367 12.628 2.946c4.631.983 9.261 1.966 13.892 2.948l-9.892 21.678-24.414-4s-16.207-4.209-16.416-4.209c-.212 0-17.892-9.471-17.892-9.471s-5.682-12.838-5.682-13.049c0-.209-5.052-10.734-4.84-11.365.209-.63.209-6.734.209-6.946 0-.209-17.047-3.576-17.047-3.576l-17.889-1.894-19.574-5.264-14.944-4.419-9.682-3.367-10.734-.842s-14.101 2.103-14.101 2.315c0 .209-12.416 3.576-12.416 3.788 0 .209-7.998 18.732-7.998 18.732l-3.788 14.31 5.892 10.946 2.106 30.518-5.473 11.365 3.788 8.419 7.576 12.419 4.421 8.628-27.58 8.742-3.571-14.215s-9.471-23.36-9.259-23.572c.209-.209.419-7.788.419-7.998z" fill-rule="evenodd" fill="#fff"/><path d="M250.288 306.99c5.733 1.719 5.839-9.547 10.414-13.746 3.632-15.193 23.278-14.663 29.506-4.469-20.83-1.568-12.814 10.135-19.222 15.201 16.385-7.741 31.471-6.395 34.87 4.469-6.586 12.52-12.74 24.173-19.325 36.69-10.493 5.24-15.219-1.929-26.724-8.522l-8.045-1.343c-.297-9.089-1.174-19.187-1.473-28.279z" fill-rule="evenodd" fill="#fff"/><path d="M263.11 377.456s28.027-.877 28.128 12.612c2.562 7.751 10.679 7.155-1.751 27.625.498-26.329-16.39-26.97-28.234-26.361 14.774 2.069 17.405 24.181 10.925 32.629l-47.467-4.832c-5.847-6.461-12.758-21.574 9.786-32.285 9.539-3.131 19.076-6.26 28.613-9.388z" fill-rule="evenodd" fill="#fff"/><path d="M450.719 302.804l8.045-3.129s24.732-30.041 43.813-13.412c-13.097 1.971-23.768 17.786-23.768 17.786 7.1-5.288 33.771-3.619 30.899 19.791-28.555 8.453-29.36 23.431-27.696 41.257-19.007-.321-39.978-10.157-40.857-40.69 2.533-7.301 7.031-14.302 9.563-21.603z" fill-rule="evenodd" fill="#fff"/><path d="M553.028 175.584c0 10.345-8.387 18.732-18.732 18.732s-18.732-8.387-18.732-18.732 8.387-18.732 18.732-18.732 18.732 8.387 18.732 18.732z" fill-rule="evenodd" fill="#fff"/><path d="M508.125 209.678c6.896 5.317 15.105 7.259 30.25 9.013 7.976-4.684 22.7-4.493 23.834-14.896 7.953-2.839 9.72-12.427 3.142-15.078-.281-2.813.167-13.729-12.061-13.982 1.642 4.06 3.107 15.201 3.107 15.201-6.374-.75-10.729 10.283-10.729 9.836 0-.223 3.513-17.491-13.505-18.015 5.855 9.788-1.695 17.569-1.695 17.569-1.791-2.235-1.799-6.158-5.086-7.362-8.451-3.557-10.059-13.864-9.698-19.39-4.432 3.743-7.735 7.485-7.571 12.446.066 8.158-.334 16.034.013 24.661z" fill-rule="evenodd" fill="#fff"/><path d="M533 110.029c14.414-2.008 27.32-5.773 35.816-12.097 2.742-2.041 25.879 1.828 37.792-5.287-18.056-1.041-30.017-3.608-33.233-2.544-10.114 2.952-33.675 9.496-35.522 8.663-.162 1.669-3.028 8.942-4.853 11.264z" fill-rule="evenodd" fill="#fff"/><path d="M537.901 98.633c10.31-2.413 12.671-7.418 18.761-11.073 9.322-3.729 14.501-3.865 23.797-13.474-24.173 3.293-26.886 4.142-26.886 4.142-5.012 3.049-11.91 7.731-17.336 14.837 1.642 1.747 1.544 3.548 1.664 5.568z" fill-rule="evenodd" fill="#fff"/><path d="M536.179 93.001c0-.1 9.433-10.586 9.516-15.073.413-1.507 4.816-3.995 6.472-9.89 1.076-16.077 2.57-16.429 2.57-16.429 7.574-4.254 5.96-13.476 9.478-20.379 0 0-11.116 12.412-17.325 19.217-1.656 3.576-2.09 12.745-2.191 12.745-1.754 4.139-6.281 4.679-9.757 11.55-1.958 5.212-.326 9.983-3.277 16.767 2.013.036 3.099.531 4.514 1.491z" fill-rule="evenodd" fill="#fff"/><path d="M515.584 340.522c0 13.953-11.312 25.265-25.265 25.265s-25.265-11.312-25.265-25.265 11.312-25.265 25.265-25.265 25.265 11.312 25.265 25.265z" fill-rule="evenodd" fill="#fff"/><path d="M270.673 425.656c0 12.666-10.268 22.934-22.934 22.934s-22.934-10.268-22.934-22.934 10.268-22.934 22.934-22.934 22.934 10.268 22.934 22.934z" fill-rule="evenodd" fill="#fff"/><path d="M312.251 325.64c0 10.926-8.858 19.784-19.784 19.784s-19.784-8.858-19.784-19.784 8.858-19.784 19.784-19.784 19.784 8.858 19.784 19.784z" fill-rule="evenodd" fill="#fff"/><path d="M221.89 348.634c-7.158.421-14.443 2.903-14.231 3.115.209.209 7.788 4.209 6.734 5.473-1.052 1.261-11.216 12.578-10.583 12.578 7.632 2.199 17.741-2.477 17.741-2.477s-4.125 6.641-4.808 8.678c6.803-3.664 13.185 1.123 14.732-2.54l-9.584-24.827z" fill-rule="evenodd" fill="#fff"/><path d="M372.094 282.91c-4.326 2.665-18.875-.331-18.875-.331 4.286 4.44 7.002 7.608 16.888 8.61-7.063 3.203-11.661 7.749-19.924 10.498 12.925 5.529 21.58-3.544 21.58-3.213s2.509 5.918.543 13.876c5.113-1.346 6.315-6.562 10.138-5.47-3.2-7.616-7.147-16.353-10.35-23.969z" fill-rule="evenodd" fill="#fff"/><path d="M453.157 216.211c-.366 2.401-.832 6.703-10.684 11.691 6.445 2.797 17.219-3.311 17.219-2.98s-8.758 15.603 6.292 22.186c-.4-11.786 1.656-21.193 1.656-21.193s5.534 7.611 9.603 16.557c6.501-6.988-2.318-20.199-2.318-20.199-7.176-1.656-14.838-4.406-21.768-6.062z" fill-rule="evenodd" fill="#fff"/><path d="M462.428 146.976s19.484 13.242 19.569 15.013c.082 1.771-1.772 9.109-8.096 12.398 15.179 1.771 16.782-7.759 16.782-7.759s-3.121 10.796-.591 14.001c8.35-5.145 8.098-13.326 8.098-13.326s5.566 8.434 4.302 12.989c1.77-.928 11.386-10.965 2.697-15.856 2.024-6.579 2.784-10.712-4.554-13.664-.787-3.964 1.293-5.229 1.939-7.844 0 0-7.253-2.193-8.096 4.048-.676 1.265-23.317-13.31-23.569-13.394-.077.383-8.482 13.479-8.482 13.394z" fill-rule="evenodd" fill="#fff"/><path d="M467.647 139s18.043 9.579 19.225 11.857" fill-rule="evenodd" fill-opacity=".3" fill="#fff"/><path d="M530.722 91.472c-2.392 0-11.921-2.98-18.213 1.656-2.874-4.618-5.96-8.237-15.073-6.292.082-4.126-1.552-3.595-3.733-4.892-2.297-5.005-5.974-7.22-13.079-4.049-6.188-6.366-16.189-6.645-23.211-1.72-10.615-3.15-24.666.523-50.953.229-1.817-.057-10.885 3.195-5.213 10.763-10.917-6.75-15.492 5.665-4.636 7.616 2.649 2.649 5.629 8.278 5.629 8.278s-18.978-13.569-29.405 1.606c-3.38 15.35 12.912 4.36 21.015 10.149l14.35 13.08c8.059-1.656 14.944-1.706 22.999-2.127l-20.682 3.452c1.754 2.413 4.678 3.222 10.999 2.98l-13.447 4.698c8.236 6.372 18.631 2.187 26.56 3.311-5.028 7.534-15.365 15.499-28.417 11.859 5.619 8.951 16.793 7.806 28.181-3.805 9.534 1.661 15.714 2.83 27.892-1.29.588-.771 9.555-14.116 9.174-15.258 1.632.49 26.311 9.331 27.802 12.075.188-3.403 4.914-6.903-23.842-14.901-5.42-4.409 13.908-9.934 13.908-9.934l-.331 7.947c5.439-3.318 5.727-4.645 6.954-6.623 1.987-1.325 6.292 2.649 6.292 2.649l.241 7.003c2.395-.87 3.733-1.043 5.388-3.361l4.832 2.768c4.949.49 13.312-1.848 17.468-8.766-1.881-7.027-.988-8.985 2.752-10.388 6.135-9.997 7.542-18.659-2.204-18.713z" fill-rule="evenodd" fill="#fff"/><path d="M494.456 147.146s-3.039 3.795-2.448 11.133" fill-rule="evenodd" fill-opacity=".3" fill="#fff"/><path d="M406.638 139.705s7.778 11.853 10.432 12.593c2.654.741 20.989 19.384 21.977 20.187 1.174.494 11.42.247 11.42.247-7.531-6.502-13.828-13.375-20.742-20.063 0 0-10.618-5.247-10.679-5.371l-5.68-7.655c-1.791-.576-3.703-1.461-5.37-2.84l-1.359 2.902z" fill-rule="evenodd" fill="#fff"/><path d="M481.979 162.074c3.457-.843 8.265 2.024 8.602 4.47 1.857-1.096 5.99-1.096 7.508.337.676-1.012 3.711-3.711 6.832-2.53" fill-rule="evenodd" fill-opacity=".3" fill="#fff"/><path d="M494.562 147.146s2.527 2.024 5.902 1.012" fill-rule="evenodd" fill-opacity=".3" fill="#fff"/><path d="M535.808 156.746c4.186-.598 38.452-20.619 46.815 4.681-2.888-21.416-18.626-21.017-18.626-21.017s-.697-10.259-15.14-8.566c9.465 6.972 1.494 12.551.797 13.547-2.458-6.607-3.521-10.027-11.057-12.949 3.023 11.621-3.319 13.181-4.98 18.726-3.351-2.391-5.91-6.773-7.868-10.06-2.657 7.703-.331 12.318 2.689 16.336 2.657-.664 5.113-.83 7.37-.697z" fill-rule="evenodd" fill="#fff"/><path d="M530.245 120.66c1.319 2.417 6.88 9.362-2.877 22.604-3.078-4.283-4.734-6.914-4.734-6.914s-8.316 5.409-7.367 23.983c-3.113-7.459-7.735-16.866 1.857-30.997-6.925 11.145-9.179 12.379-14.477 12.223 8.112-5.785 9.889-12.046 10.045-12.046 1.481.497 10.633.024 17.553-8.855z" fill-rule="evenodd" fill="#fff"/><path d="M524.02 90.521c1.82 6.788-3.182 11.494-7.028 15.119 8.35 16.367-18.454 15.049-8.787-.22" fill-rule="evenodd" fill="#fff"/><path d="M497.873 107.838s-1.976 2.526-.328 6.042" fill-rule="evenodd" fill-opacity=".3" fill="#fff"/><path d="M486.509 108.011c2.395.59 4.387 3.686.517 6.008-1.55.921-9.327-2.691-13.344 4.902" fill-rule="evenodd" fill-opacity=".3" fill="#fff"/><path d="M413.314 92.784c-3.144-.258-4.689 1.34-.927 5" fill-rule="evenodd" fill="#fff"/><path d="M416.308 82.01c-3.661-1.598-5.359 2.217-.98 5.258" fill-rule="evenodd" fill="#fff"/><path d="M426.824 82.32c-3.195-2.886-5.979 2.32-.874 4.278" fill-rule="evenodd" fill="#fff"/><path d="M442.746 82.32c-3.348-2.835-4.485 1.289-3.452 2.68" fill-rule="evenodd" fill="#fff"/><path d="M462.508 125.579c0 8.596-6.968 15.563-15.563 15.563s-15.563-6.968-15.563-15.563 6.968-15.563 15.563-15.563 15.563 6.968 15.563 15.563z" fill-rule="evenodd" fill-opacity=".3" fill="#fff"/><path d="M461.607 130.684c-.424-.901-9.987-10.366-13.007-9.078-2.472.107-10.035 16.605-9.704 17.267 7.828 5.521 19.895.65 22.703-8.187z" fill-rule="evenodd" fill-opacity=".3" fill="#fff"/><path d="M456.521 125.709c-1.179-.763-2.082-1.458-3.123.069-1.041 1.527-6.731 15.34-6.731 15.34" fill-rule="evenodd" fill-opacity=".3" fill="#fff"/><path d="M474.243 94.508c-10.411-5.831-29.733 2.813-16.891 8.851-10.967-3.332-10.482 6.108-10.482 6.108" fill-rule="evenodd" fill-opacity=".3" fill="#fff"/><path d="M451.938 84.73c4.127-6.13 9.826-8.228 13.555-.544 4.967 6.623 14.305 1.67 14.305 1.67" fill-rule="evenodd" fill-opacity=".3" fill="#fff"/><path d="M423.593 89.817s-4.636 2.152-.328 5.464" fill-rule="evenodd" fill="#fff"/><path d="M447.117 87.003s-4.472.662-2.983 5.464" fill-rule="evenodd" fill="#fff"/><path d="M442.136 95.279c-.164 0-4.636.166-3.144 4.967" fill-rule="evenodd" fill-opacity=".3" fill="#fff"/><path d="M436.997 103.393c-.167.166-5.629-2.318-2.816 4.636" fill-rule="evenodd" fill-opacity=".3" fill="#fff"/><path d="M457.607 76.237c-19.421-11.836-40.009-35.675-68.267-26.589 28.674 5.085 46.179 21.005 46.762 25.923 10.586-.833 13.502-.583 21.505.667z" fill-rule="evenodd" fill="#fff"/><path d="M429.341 75.739c-2.583-3.168-12.337-20.755-32.173-20.421 15.169 7.752 24.255 18.338 25.09 21.005 2.832-.167 4.832-.417 7.084-.583z" fill-rule="evenodd" fill="#fff"/><path d="M412.334 76.489s2.252-16.504 5.502-18.504-10.835-4.501-10.668 10.002c-11.839-9.669-23.005-8.002-24.841-7.335-1.833.667-27.839-.584-30.923 5.251 19.172-.417 24.671.833 26.422 2.751 11.754-3.001 18.422-1.25 26.258 8.085 3.584-.667 8.249 0 8.249-.25z" fill-rule="evenodd" fill="#fff"/><path d="M393.843 85.157c-4.75-4.668-8.702-7.571-22.962-8.764-2.082-.265-7.574-1.425-10.962-2.572 9.068-6.281 36.592 2.584 39.676 6.668-.917 2.834.201 4.731 1.701 6.564-2.543-1.521-4.776-2.134-7.452-1.897z" fill-rule="evenodd" fill="#fff"/><path d="M403.671 77.008s-7.1-6.5-12.562-6.39c3.168 1.912 6.774 7.374 8.957 9.34 1.531-1.748 1.147-1.638 3.605-2.95z" fill-rule="evenodd" fill="#fff"/><path d="M389.234 70.944c-.273.109-11.961 7.319 1.203 16.932-.874 6.172 6.443 7.046 6.443 7.046s5.409 8.193 5.409 8.138c-11.624-7.736-21.426-5.854-25.039-2.685-7.047-10.323-18.983-12.007-23.352-13.263-5.462-1.202-20.594-2.458-21.63 11.251-14.53-14.256 8.467-20.373 12.398-19.936 3.931-.71 25.998 3.551 27.418 6.336-1.256-13.054 10.596-19.991 17.15-13.819z" fill-rule="evenodd" fill="#fff"/><path d="M432.732 118.443s-38.783-7.228-51.432 1.39c-12.649 8.618-14.316 21.407-32.666 23.353-18.348 1.946-20.295 5.421-27.106 14.874 10.149-3.197 32.112-10.147 47.263-7.09 6.255-7.012 9.73-10.286 9.174-10.425 4.726-15.569 37.67-21.546 53.239-15.986.278-3.892 1.947-5.699 1.529-6.117z" fill-rule="evenodd" fill="#fff"/><path d="M374.081 112.604l-57.968 1.668c-5.282 1.668-11.675 5.977-12.649 7.228-.972 1.251 2.503-13.622 10.149-12.928 9.868.973 36.836-.139 36.836-.139 8.202-3.058 17.1-6.117 22.52-4.031-1.947 4.865 1.113 8.202 1.113 8.202z" fill-rule="evenodd" fill="#fff"/><path d="M479.833 95.626s-16.024-4.872-11.82 11.567c6.453 8.193 15.73-3.963 15.601-5.189" fill-rule="evenodd" fill-opacity=".3" fill="#fff"/><path d="M436.149 114.191c-3.539-5.799-25.654-13.663-33.225-11.009 12.141 5.701 29.49 11.451 30.52 14.597 1.425-2.556 2.607-3.538 2.705-3.588z" fill-rule="evenodd" fill-opacity=".3" fill="#fff"/><path d="M510.642 94.111s-13.367 3.652-18.334.672-17.285-7.394-11.852-16.911" fill-rule="evenodd" fill-opacity=".3" fill="#fff"/><path d="M375.194 97.992s-33.916-.841-39.522 9.32c22.072-5.116 38.33-4.415 38.33-4.415l3.084-2.803-1.891-2.102z" fill-rule="evenodd" fill="#fff"/><path d="M437.05 90.084s-7.839.238-4.037 5.702" fill-rule="evenodd" fill="#fff"/><path d="M508.284 191.479s11.343-.375 12.657-1.875" fill-rule="evenodd" fill="#fff"/><path d="M556.365 190.072s4.779 3.375 8.999-1.406" fill-rule="evenodd" fill="#fff"/><path d="M534.431 190.822s3.187 6 11.343 3.375" fill-rule="evenodd" fill="#fff"/><path d="M516.258 203.572s-2.437 6.093 9.563 5.531c3.094 1.875.935 7.875.935 7.875" fill-rule="evenodd" fill="#fff"/><path d="M532.285 174.977s6.75-.375 7.968 2.625" fill-rule="evenodd" fill="#fff"/><path d="M534.802 166.447s2.252.188 3.001 2.906c.75 2.719 3.468 1.312 5.062.094" fill-rule="evenodd" fill="#fff"/><path d="M503.754 340.236c-5.892-5.59-18.581-5.741-12.538 8.159 2.114-6.347 6.043-8.763 12.538-8.159z" fill-rule="evenodd" fill="#fff"/><path d="M501.344 348.528c-1.661-1.208-2.57 1.208-2.117 1.661" fill-rule="evenodd" fill="#fff"/><path d="M505.556 307.732s-9.065-1.057-5.439 9.518" fill-rule="evenodd" fill="#fff"/><path d="M478.667 283.89s-1.211 10.726 7.251 11.934" fill-rule="evenodd" fill="#fff"/><path d="M466.296 350.038c0-.151-7.855-3.476-10.273 7.251" fill-rule="evenodd" fill="#fff"/><path d="M458.879 299.89s0 9.063 4.08 12.387" fill-rule="evenodd" fill="#fff"/><path d="M455.567 322.408c-.151 0-13.142 5.137-13.142 11.934" fill-rule="evenodd" fill="#fff"/><path d="M245.706 426.597c0-.151 8.35-8.806 10.173.911-.154 3.643-1.976 7.137-1.976 7.137" fill-rule="evenodd" fill="#fff"/><path d="M253.123 428.716s-4.707-.305-5.314 2.58" fill-rule="evenodd" fill="#fff"/><path d="M273.627 402.596c0-.151-10.631-3.341-12.149 4.858" fill-rule="evenodd" fill="#fff"/><path d="M218.976 408.238s8.806-5.163 13.664.456" fill-rule="evenodd" fill="#fff"/><path d="M291.35 390.357c0-.151-8.146-.056-9.359 5.409" fill-rule="evenodd" fill="#fff"/><path d="M409.34 155.946c-.967.955-.837 1.008-1.836 1.243-.97.358-1.926.409-3.068.409-.784-.261-1.682-.864-2.453-1.636-.729-.872-1.089-1.554-1.431-2.453 0-.63-.268-1.556-.429-1.935.323.646.93 1.676 1.248 2.344.347 1.087.691 2.346 1.02 3.476.273 1.267.411 2.459.411 3.884-.207 1.564-.628 2.949-1.227 3.884-.845.451-1.317.682-2.453.818-1.232 0-1.627-.215-2.66-.614-.477-.619-1.462-1.677-2.042-2.453-.297-1.148-.546-2.065-.615-3.271-.498-.717-.734-1.349-1.227-2.045l-.819-2.044c-.254-.641-.819-1.307-1.097-1.896" fill="none"/><path d="M261.415 391.284s-5.923 4.678-4.935 8.729" fill-rule="evenodd" fill="#fff"/><path d="M293.548 320.606s-9.521 2.31-4.76 10.676" fill-rule="evenodd" fill="#fff"/><path d="M293.416 324.951s-2.021 6.779 1.298 9.232" fill-rule="evenodd" fill="#fff"/><path d="M298.741 325.375c.146.434-1.298 7.213-3.317 8.369" fill-rule="evenodd" fill="#fff"/><path d="M287.932 299.254s-.432 5.77 2.164 6.782" fill-rule="evenodd" fill="#fff"/><path d="M270.607 282.088s-2.307 6.782 6.347 9.089" fill-rule="evenodd" fill="#fff"/><path d="M254.739 304.447c0 .289 2.307 10.962 6.925 10.673" fill-rule="evenodd" fill="#fff"/><path d="M272.62 325.507s-11.828-6.636-12.983 10.819" fill-rule="evenodd" fill="#fff"/><path d="M477.396 96.993c1.158-1.097 5.182-2.408 6.278 3.656 1.097 6.064-7.07 5.347-7.134 4.379-2.193-.903-2.305-5.648.856-8.035z" fill-rule="evenodd"/><path d="M494.615 83.024s-10.485-1.279-9.516 7.495c6.127 5.419 10.787.061 11.818-2.907.514-2.129.344-3.943-2.302-4.588z" fill-rule="evenodd"/><path d="M350.371 113.367s1.261 9.447-6.297 7.243c-7.558-2.204 11.651 4.724-3.15 7.558-3.07 4.301-2.519 5.039-2.519 5.039s8.069-.814 3.052 9.806c-1.891 5.669 2.837-12.398 17.971-3.171-6.927-6.763-1.942-6.673 7.635-6.32-13.283-2.171-12.596-14.487 6.927-8.503-.026-1.836-3.603-7.319 2.835-10.392 12.596-3.464-26.139-.63-26.454-1.26z" fill="none"/><path d="M347.325 120.997c2.05.978 10.165 16.423 15.736-7.918-2.442-.587-12.61.293-12.61.293.228 3.715-.424 6.158-3.126 7.625z" fill="none"/><path d="M344.596 127.254c-.464 1.123-1.16 2.984-1.515 4.142 0 .781.003 1.624.138 2.209.106.966.416 1.661.827 2.485.392.554.453.694 1.105.828.527.303 2.747.31 3.452.414h2.347c1.105 0 2.082.011 3.039-.414.678-.194 1.219-.378 1.518-.966.676-.337.657-.676 1.105-1.381.193-.389.588-1.073.829-1.519.318-.49.413-.611.413-1.243.196-.391.14-1.192.14-1.795-.026-.87-.143-1.666-.278-2.485-.132-.443-.344-.725-.689-.552-1.412.556-2.962-.552-4.559-.552-1.523-.229-2.352-.623-3.865-.828-.63 0-3.566.928-4.005 1.657z" fill="none"/><path d="M490.906 186.424h.204c-.601 0-.262-.035.819.613.723.257 1.415.52 2.042.818.371.542.776 1.163 1.229 1.636.244.611.559 1.574.816 2.249 0 .944.111 1.625-.408 2.044-.371.941-.932 1.03-1.431 1.636-.736.246-1.314.582-2.249 1.022-.988.266-1.407.585-2.453.818-1.089.492-1.807.581-3.068.613l-4.546-.168c.999-.035 4.196-.076 4.954-.241 1.123 0 1.756.118 2.453.613.919.318 1.441.597 2.249.818.559.223 1.672.323 2.249.613.326.544.943.832.615 1.431-.429.519-1.24.812-2.045 1.022-.535.365-4.591 1.07-5.129 1.434-1.929.165 3.873-.46 4.517-.616 1.171-.014 1.899-.149 2.861 0 .872.131 1.664.522 2.453.818.522.694 1.139 1.029 1.634 1.84.628.517.805.865.819 2.045-.257.513.223 1.962.154 2.734l-.898 2.69" fill="none"/><path d="M474.349 186.628h.204c-.554 0-.27-.013.819.205.689.483 1.899.668 3.065 1.022.652.309 1.258.664 1.841 1.022.599.3 1.378.844 1.838 1.431.837.278 1.012.781 1.637 1.227.217.986.485 1.508.612 2.453-.082 1.089-.448 1.304-.816 2.044-.601.408-.97.944-1.841 1.227-.813.326-1.841.594-3.068.818-1.735.331-3.417.697-5.11.818-.842 0-1.049.181-1.841.205 1.025.012 2.382.089 3.068.409 1.28.013 2.737.113 3.68.409 1.862.23 3.648.54 5.521.613.376.611.681.935.819 1.84-.495.363-.84 1.042-1.227 1.431-.612.375-1.219.764-2.249 1.022-1.131.403-2.389.409-3.68.409h-6.543c-.199-.08-1.634-.205-.819-.205.848.392 2.54.801 3.68 1.022.781.228 1.224.647 1.637 1.227.495.374 1.248 1.061 1.634 1.431.321.534.411.872.411 1.84-.098 1.253-.506 1.268-1.433 2.044-.988.647-1.762.78-2.861 1.022h-3.068c-.821-.22-5.558-3.004-6.164-3.188.84.298 5.359 3.303 5.756 4.21.215.647.204 1.715.204 2.658-.037.993-.159 1.699-.612 2.248-.042.795-.257.615-1.023.615l1.023-.615c-.042.795-.257.615-1.023.615" fill="none"/><path d="M484.575 202.78h1.023c.673.457.668 1.033 1.637 1.227.742.283 1.483.678 2.042 1.022.299.503.411.726.411 1.636 0 1 .23 2.356-.204 2.862-.355.415-1.642.403-2.249.614-.877.304-1.627.765-2.379.913-.951.187-2.49.087-3.142.518-.914.07-1.571.204-2.657.204-.63 0-1.052-.042-1.431-.204.919.321 2.408.688 3.473 1.227.975.275 1.507.709 2.249 1.227.797.59 1.261.909 1.433 1.84.408.6.408 1.382.408 2.452-.225.676-.374 1.65-.615 2.249-.445.66-.98.784-1.634 1.227l-.819.207" fill="none"/><path d="M466.376 186.424c.339.141 1.383.65 2.045 1.022 1.203.29 1.992.785 2.861 1.022.453.559.983.791 1.227 1.636.71.926.882 1.412 1.023 2.453-.087 1.143-.27 1.375-1.227 1.636-.713.238-1.531.375-2.453.409l-2.453.409c-.578.289-1.764.205-2.657.205-.882.068-2.321.26-3.354.26 1.15.042 2.874.148 4.17.148 1.248.133 2.477.199 3.068.818.901.341 1.409 1.073 2.249 1.431.405.599.88.944 1.227 1.636-.283.795-.729 1.06-1.637 1.227-.578.289-1.762.205-2.657.205-.623-.312-1.91-.205-2.861-.205h-2.249c.842.289 2.201.617 3.272.818.755.432 1.926.792 2.453 1.227.331.512.877.794 1.227 1.431.458.371.548 1.06.204 1.636-.085 1.018-.371 1.528-.819 2.044-.646.44-1.221.831-2.249 1.431-1.444.627-2.816.805-4.498.818-1.11 0-1.653-.167-2.657-.205-.911-.314-2.064-.44-2.861-.613-.874-.238-2.053-2.084-3.203-2.127.784.101 1.717 1.972 1.976 2.535.289.578.204 1.764.204 2.658-.321.548-.395 1.591-.615 2.249-.04.71-.114 1.653-.408 2.044l.408-2.044c-.04.71-.114 1.653-.408 2.044" fill="none"/><path d="M454.958 181.332c0 .081.71.455 1.189 1.003.466.733.956 1.566 1.431 2.249.323.93.612 1.373.819 2.249.381.626.548 1.606.615 2.453-.037.954-.119 1.808-.615 2.453-.241.828-.652 1.155-1.431 1.431-.678.321-1.327.409-2.453.409l-3.147-.112 4.782.112c1.423.09 2.366.211 3.068.818.893.252 1.611.701 2.045 1.227.694.512 1.351.633 1.634 1.431.215.647.204 1.715.204 2.658-.106 1.172-.442 1.198-1.431 1.431h-2.861c-.63-.21-1.807-.307-2.66-.409-.694-.094-1.481-.713-2.082-.913.535.508.434 1.7.448 2.753.156.723.204 1.667.204 2.658-.085 1.09-.347 1.382-1.023 1.84-1.086.237-2.686.205-4.088.205-1.144-.054-2.09-.205-3.272-.205-1.417 0-2.678-.157-3.987-.307.498.331.487 1.078.511 1.943.368.614.085 1.33 0 2.045-.069.888-.236 1.488-.615 2.044l-.556 1.121" fill="none"/><path d="M445.103 178.657l1.023.818c.623.499.932 1.127 1.431 1.84.18.77.44 1.45.612 2.249 0 1.191-.143 1.667-.612 2.453-.781.521-1.717.928-2.861 1.022-.678.226-1.632.345-2.456.409-.583.194-.511.313-1.319.409 1.309-.046 1.375-.205 2.752-.205.893 0 2.08-.085 2.657.205.917.124 1.576.252 2.045.818.842.23 1.208.6 1.634 1.227.628.426.996.791 1.227 1.636 0 1.112-.125 1.74-.408 2.453-.358.711-.694 1.125-1.431 1.636-.527.455-1.29.566-2.045.818h-2.864c-.752 0 2.464.077 3.886.205.84.154 1.364.496 2.042.818.601.408 1.383.467 1.841 1.022.747.265 1.097.806 1.841 1.227.177.414.093.309.408.205" fill="none"/><path d="M436.653 175.155c1.004.496 1.555 2.255 1.711 3.297.283 1.036-.082 1.798-.408 2.862-.991.914-1.105 1.208-2.453 1.431-1.16.347-2.424.262-3.476.614-.699.288-1.354.552-2.249.818h-2.864c-.882.519.705.079 1.023 0 1.592 0 3.232.021 4.702-.205h5.929c1.046.158 1.197.515 1.637 1.431.434.527.575 1.424.612 2.453-.042 1.174-.23 1.52-.816 2.453-.588.728-1.099 1.046-1.841 1.636-.956.41-2.363.665-3.68.818-1.574 0-3.264-.092-4.702.204-1.086 0-5.423.291-5.044.67.715-.573 3.897-.465 5.044-.465 1.56-.32 2.948-.587 4.498-.613.978-.291 2.167-.396 3.269-.409 1.076.013 1.905.159 2.456.614.633.527 1.446 1.16 1.838 1.636.784.278 1.017.805 1.634 1.227.183.837.397 1.376.411 2.453-.254.718-.479 1.467-.819 2.044-.948.678-1.968 1.422-3.272 1.84-1.131.439-2.058.573-3.269.613-1.044 0-1.844.094-2.66.205l-7.629.112c1.844-.336 7.833-.112 9.063-.112 1.34 0 2.567.162 3.884.205.649.308 1.351.556 1.838 1.022.691.277 1.282 1.471 1.295 2.711" fill="none"/><path d="M427.328 170.275c.18.364.906 1.801 1.227 2.658.22.886.204 1.862.204 2.862 0 1.279-.289 1.83-.819 2.862-1.115.748-1.979 1.471-3.272 1.84-1.081.193-1.966.127-3.065 0-.726-.29-1.33-.535-1.841-1.022-.776 0 .45.17.819.205.612.417 1.526.66 2.453 1.022 1.176.476 1.621.849 2.453 1.84.747.603.938.728 1.023 1.84.519.585.448 1.382.204 2.045-.63.421-1.311 1.098-1.838 1.636-.922.385-1.256.599-2.453.613-1.113-.04-1.687-.334-2.66-.409-.421-.394-.236-.306.411 0 .662.369 1.812 1.084 2.249 1.636.705.48.906.996 1.227 2.045.392 1.054.697 1.693 1.227 2.249.037 1.005.204 1.546.204 2.658-.286.713-.477 1.388-1.023 1.84-.228.837-.742 1.174-1.023 2.044-.803.473-1.831 1.455-2.453 2.045-.834.278-2.861.486-4.098.501" fill="none"/><path d="M436.52 300.5c.302.71.638 1.494.816 2.249.09.742.204 1.314.204 2.249-.323.617-.395 1.354-.816 1.841-.268.75-.845 1.03-1.431 1.431-.789.339-1.346.599-2.456.615-1.076 0-2.032-.066-2.861-.207-.906-.424-2.983-1.16-2.355-.715.789.254 1.91.816 2.559 1.126.856.57 1.502.898 2.249 1.838.652.45.906.821 1.023 1.637-.811.281-1.939.689-3.068.816-.991 0-1.934-.045-2.657-.204-.662-.315-1.224-.625-2.045-.819l2.045.819c-.662-.315-1.224-.625-2.045-.819l-2.782-1.131c.548.525 3.656 1.815 4.008 2.564.289.718.472 1.592.615 2.657-.011 1.213-.117 2.596-.408 3.476-.233.848-.607 1.227-1.023 1.838h-.411" fill="none"/><path d="M433.659 312.765h.204c-.57 0-.268-.026.819.408 1.136.713 1.417 1.007 2.249 2.249.392.866.707 1.123.819 2.045.344.578.132 1.425 0 2.045-.543.445-.834 1.023-1.433 1.431-.403.593-.925.948-1.431 1.431-.699.151-.985.36-1.838.408" fill="none"/><path d="M436.732 307.043v.204c0-.601-.034-.262.612.819.845.585 1.012 1.203 1.227 2.453.241.964.175 1.854 0 2.657-.63.368-1.457.993-2.352 1.129" fill="none"/><path d="M446.534 311.758h-.204c.551 0 .27-.013-.819.204-.853.286-1.884.204-2.861.204-.758-.268-1.457-.411-2.249-.816-.676-.14-.781-.384-1.637-.411" fill-rule="evenodd" fill="#fff"/><path d="M442.242 320.129h-.204c.554 0 .273.013-.816-.204-.882-.572-2.363-1.574-3.179-1.844" fill-rule="evenodd" fill="#fff"/><path d="M507.887 192.578c-.355.106-3.566.322-4.509.389h-2.861c-.996-.223-1.976-.396-3.068-.409l-1.388-.504" fill-rule="evenodd" fill="#fff"/><path d="M504.999 200.734l2.766-.224c.339 0-3.653.224-3.992.224-.914.163-1.846.205-2.864.205-.638.121-2.095.128-2.657.409h-2.861l-1.227-.205" fill-rule="evenodd" fill="#fff"/><path d="M425.473 297.427c.135.336 1.023 1.929 1.023 2.869-.013 1.076-.135 1.494-.612 2.045-.792.427-1.476.803-2.66.819h-3.68c-1.11 0-6.339-1.197-6.662-1.441.956.13 4.416 1.441 5.64 1.441 1.115.04 1.735.278 2.864.612 1.086.331 1.807.617 2.657.819.585.342 1.539.4 2.045.819.946.334.827.795 1.227 1.838-.079 1.036-.318 1.523-1.023 2.045-.45.554-1.293 1.044-2.249 1.431-.972.45-2.085.615-3.476.615h-2.861c-.676-.225-1.65-.374-2.249-.615l2.249.615c-.676-.225-1.65-.374-2.249-.615h-.207c.781.313.925.877 1.229 1.634.072.956.204 1.717.204 2.864-.193.821-.503 1.38-.819 2.045-.36.8-.689 1.354-1.227 2.042-.18.408-.413.742-.615.411" fill="none"/><path d="M414.639 293.135l.408 1.023c.424.511.572 1.348.819 2.045 0 .991-.048 1.934-.204 2.657-.411.668-.702 1.065-1.431 1.431-.479.578-1.046.742-2.045.819-.588.294-1.656.199-2.249 0-.752-.177-1.534-.397-2.045-.819-.845-.199-1.375-.458-1.838-1.023-.755-.188-.604-.612-.207 0 .625.517.652 1.073 1.023 2.045.013 1.073.204 1.547.204 2.657.188.861.313 1.627-.204 2.249-.278.784-.805 1.017-1.227 1.637-1.094.236-2.032.408-3.272.408-.63-.466-1.995-.885-2.453-1.431-.744-.336-1.348-.758-1.838-1.227-.567-.27-2.755-2.061-3.081-2.567.506.482 2.882 2.382 3.285 2.975.551.376 1.068.864 1.431 1.227.554.395.983 1.121 1.637 1.637.453.803.774 1.081.816 2.246v2.864c-.013 1.28-.199 1.452-.816 2.249l-.411.408" fill="none"/><path d="M406.877 307.043v.204c0-.641-.042-.257.819.819.707.381 1.521.824 2.249 1.023.527.456 1.364.45 1.944 1.02.932.125 2.011.575 3.07.615" fill-rule="evenodd" fill="#fff"/><path d="M406.162 287.81c.313.297 1.751 2.101 1.944 3.073-.013 1.2-.132 1.555-.816 2.045-.678.321-1.327.408-2.453.408-1.094-.241-1.767-.93-2.864-1.431-.58-.567-1.311-.771-1.838-1.227-1.028-.35-1.205-.567-.207.204.985.535 1.82 1.041 2.453 1.431.866.604 1.158.699 1.637 1.841.23 1.171.532 2.223.612 3.476.453.665.519 1.417 0 2.045-.503.297-.723.408-1.634.408-.554-.479-1.129-.882-1.634-1.227-.403-.294-.951-.858-1.227-1.227-.543-.482-1.24-.848-1.637-1.431-.877-.384-1.28-.795-2.045-1.227-.705-1.083-.032-.056.411.408.503.805.885 1.685 1.227 2.453v3.068c-.016.861-.199 1.674-.411 2.249-1.041 0-1.841-.095-2.657-.207-.612-.244-1.582-.532-2.249-.816-.954-.53-1.552-1.023-1.838-1.841-.487-.556-.909-1.372-1.227-1.838-.405-.514-.564-.752-1.023-1.023.498.532.962 1.584 1.838 2.249.612.922 1.134 1.208 1.433 2.249.45.546.517 1.544.612 2.453 0 .893.085 2.08-.204 2.657-.13.962-.424 1.407-.819 2.045-.307.652-.662 1.258-1.023 1.838-.273 0-.204-.066-.204.204" fill="none"/><path d="M410.347 284.552v.204c0-.273-.766 1.746-1.634 2.249-1.03.199-1.502.408-2.657.408h-3.068l-2.453-.816c-.673-.591-1.314-.795-2.045-1.433-.607-.593-.792-.932-1.529-1.733-.302-.395-.082-.029.917.71.909.84 1.163 1.065 1.431 2.045.289.58.204 1.764.204 2.657-.042 1.155-.14 1.529-1.023 1.841-.625.366-1.401.408-2.453.408-.525-.453-1.367-.763-2.045-1.431-.591-.389-1.282-1.306-1.838-1.838-.321-.495-1.762-2.246-2.257-2.564.532.36 2.241 2.35 2.869 2.768.427.75.94 1.121 1.433 1.634.424.718.691 1.401 1.227 1.841l.408 2.453c-.04 1.089-.22 1.55-.819 2.045-.792.776-.993.808-1.838.408-.702-.487-1.449-.914-2.045-1.431-.763-.209-1.401-.493-1.841-1.023-.744-.262-1.269-.84-1.838-1.227-.323-.646-.856-1.232-1.431-1.637l1.431 1.637c-.323-.646-.856-1.232-1.431-1.637l-3.502-4.323c.461.535 4.464 5.009 4.729 5.756.617.493.97 1.221 1.227 2.249.087.827.204 1.547.204 2.453-.543.57-.721.978-1.637 1.227h-2.861c-1.131-.042-1.483-.278-2.453-.615-.829-.479-1.189-.774-1.634-1.431-.599-.408-.946-.882-1.637-1.227-.276-.413-.591-.527-.819-1.023-.371-.159-.31-.411-.612-.615" fill="none"/><path d="M412.096 280.764c-.066 0-1.476.117-2.564-.101-1.391-.087-2.927-.196-3.682-.819-1.081-.374-1.295-.861-1.838-1.431-.599-.721-1.359-1.444-1.841-2.456-.392-.898-.599-1.672-.612-2.861v-3.272c0-.567.387-3.725.106-4.005-.013 1.121-.517 4.241-.517 5.436 0 1.044-.093 1.844-.204 2.66-.477.763-.975 1.629-1.838 2.453-1.189 1.025-2.209 1.751-3.68 2.045-1.166.344-1.441.217-2.045-.819-.747-.559-1.129-1.476-1.227-2.657-.307-1.152-.164-2.323 0-3.476l-.103-3.788c0-.477.103 1.354.103 1.539 0 1.205.008 1.91-.615 2.861-.472 1.046-1.16 1.82-1.838 2.657-.694.718-1.314 1.012-2.249 1.227-.985 0-1.836.011-2.453-.408-.755-1.052-2.101-2.199-2.66-3.476v-8.084999999999999c.336.715.411 3.338.411 4.405-.082 1.054-.517 1.603-.819 2.657-.75.715-1.264 1.335-2.249 2.045-1.094.559-2.035.983-3.272 1.227-1.325-.016-1.306-.119-1.838-1.227-.652-.729-.917-1.64-1.023-2.657-.283-.983-.493-1.963-.615-2.864-.201-.811-.199-2.649-.408-3.274v2.252c.119.925.395 1.727.408 2.864 0 1.007-.069 1.812-.408 2.453-.109.816-.36 3.11-.403 3.068" fill="none"/><path d="M397.075 277.797c.087.442.408 1.804.408 2.864 0 1.2-.053 1.56-.612 2.453-.596.858-.954.816-2.249.816-1.118 0-1.878-.125-2.453-.612-.758-.27-1.144-.721-1.637-1.431-.559-.678-1.216-1.756-1.634-2.249-.204-.75-.615-2.633-.922-3.28-.215-.972.548 1.661.922 2.257.519.946 1.057 1.817 1.431 2.657.148.678.204 1.515.204 2.453-.411.578-.842 1.073-1.227 1.637-.734.244-1.441.395-2.453.408-.895-.135-1.415-.45-2.042-.819-.758-.252-1.166-.683-1.841-1.023-.384-.583-1.234-1.468-1.634-2.249-.498-.699-.654-1.783-1.023-2.453-.14-.978-.27-2.005-.615-2.657-.132-1.033-.331-1.764-1.023-2.249-.058-.532-.244-.434-.408-.819" fill="none"/><path d="M381.737 282.724c.066.445.299 2.058.408 2.864-.013 1.174-.262 1.51-.612 2.249-.397.583-.691 1.2-.819 2.042-.54.448-.832 1.025-1.431 1.433-.318.474-.636.408-1.431.408-.273.085-1.446-.074-2.045-.204" fill="none"/><path d="M380.518 280.472c-.223 1.038-.633 1.905-1.023 2.864-.593.657-1.052 1.28-1.431 1.838-.713.286-1.34.411-2.453.411-.559-.381-1.285-.681-1.841-1.023l-1.023-.411" fill="none"/><path d="M407.486 137.357v.205c0-.509.029-.265-.411.613-.872.989-1.309 1.297-2.453 1.636-1.227.692-3.02.92-4.702 1.022-1.385.235-2.898.212-4.292.409-.453-.654-1.364-1.223-1.841-1.84-.482-.555-.723-1.12-1.227-1.84-.336-1.007-.954-1.822-1.227-2.862-.339-.982-.575-2.059-.819-3.067-.119-.898-.334-1.497-.408-2.453-.734-.21-.061.26.204.818.572.857.744 1.787.819 3.067.148 1.05.204 2.122.204 3.271 0 1.183-.106 1.901-.408 2.658-.707.721-1.179.869-2.249 1.022-1.232.313-2.721.204-4.09.204-.975-.132-1.306-.471-2.249-.613-.487-.436-1.311-.902-1.838-1.227-.371-.451-.811-.628-1.023-1.022" fill="none"/><path d="M391.141 138.618l.617.989c0-.571-.024-.268.411.818.403 1.21.164 1.717-.615 2.658-.832.912-1.783 1.7-2.657 2.453-.927.425-1.69.996-2.861 1.227-1.354.17-2.792.238-3.886 0-.787-.447-1.759-1.158-2.249-1.84-.591-.579-.901-1.154-1.227-1.84-.183-.674-.419-1.562-.816-2.045l.13 1.049c.249.742.013.281.074 1.2v2.862c-.387 1.299-.919 2.947-1.227 4.089-.427.627-.792.996-1.637 1.227-.932.555-1.838 1.09-2.861 1.431-.559.461-1.383.409-2.453.409-.903-.361-1.089-.571-1.841-1.431-.525-.412-.646-.668-1.023-1.022" fill="none"/><path d="M363.14 150.444v.205c0-.641.042-.258-.819.818-.389.636-.909 1.213-1.634 1.84-.469.845-1.481 1.794-1.841 2.658-.869.442-2.154.74-3.269 1.022-1.174.121-2.36.259-3.476.409-1.637.101-3.224.204-4.909.204-.978-.012-1.974-.181-2.657-.409-.654-.542-.781-1.038-.816-2.249-.291-.87-.188-1.733-.615-2.249-.085-.477-.31-.773-.612-1.022" fill="none"/><path d="M404.016 145.946v.205c0-.572.024-.267-.408.818-.469.75-1.163 1.622-1.637 2.249-.713.634-1.74 1.629-2.453 2.249-1.208 1.008-2.18 1.366-3.68 1.636-1.335.173-2.262-.183-3.476-.818-.959-1.008-1.097-1.305-1.634-2.453-.098-1-.18-1.813-.615-2.658-.18-.763-.434-1.48-.819-2.044.045-.702.328.423.411.818.223.558.323 1.669.612 2.249v2.862c.281 1.119.127 1.935 0 2.862-.347 1.171-.535 2.164-1.227 2.658-.797.279-1.923.409-3.065.409-1.396 0-2.933-.05-3.886-.613-.654-.445-1.203-1.071-2.042-2.045-.686-.89-1.189-1.354-1.433-2.249-.482-.725-.776-1.527-1.227-2.044-.109-.87.072-.114.411.205.268.565.726 1.587 1.02 2.249.381.739.803 1.426 1.023 2.453.543.662.932 1.439 1.023 2.453.286.629.204 1.912.204 2.862-.18.988-.405 1.277-1.431 1.431-.84.205-1.902-.122-2.861-.613-.713-.356-1.126-.694-1.637-1.431-.837-.675-1.343-1.351-2.042-2.249-.474-.498-.943-.998-1.433-1.636-.562-.691-1.126-1.191-1.431-2.249l-.819-1.022c.493.567.736 1.076 1.023 2.044.307 1.122.599 1.664.615 2.862v2.862c-.196.98-.67.892-1.637 1.022-1.121 0-2.072.074-2.657-.409-.895-.121-1.51-.355-2.045-.818-.85-.222-1.396-.698-2.042-1.022-.323-.475-1.007-1.374-1.431-1.84-.283-.873-.821-1.241-1.229-1.84-.289-.29-.307-.917-.408-.818.397.469.755 1.478 1.023 2.045.164.914.204 1.845.204 2.862-.228 1.068-.612 1.598-.819 2.658l-1.227 2.658c-.744.507-1.332 1.058-2.246 1.431-1.208.543-2.429.775-3.886.818-.98.327-1.799.116-2.657 0-.665-.315-1.425-.633-1.841-1.227-.527-.242-.691-.508-1.023-1.227-.742-.557-1.012-1.385-1.431-2.453-.297-.859-.625-1.62-.816-2.453-.35-.798-.567-1.798-1.023-2.453l-.204-.818" fill="none"/><path d="M395.009 163.732v.205c0-.552.013-.273-.204.818-.673 1.046-1.46 1.932-2.453 2.249-.588.294-1.653.198-2.249 0-.927-.476-1.555-1.058-2.249-1.84-.54-.99-1.465-1.888-2.045-2.862-.514-.774-.882-1.331-1.02-2.249-.442-.52-.76-1.597-1.023-2.249-.061-.642-.053-.286-.244-.758.265.962.609 1.412.856 2.599.405 1.252.75 1.908.411 3.271-.167 1.244-.374 2.297-.819 3.476-.27 1.2-.649 2.102-1.023 2.862-.188.799-.54 1.505-1.023 2.045-.464.509-1.248.645-2.045.818h-2.861c-.872-.118-1.687-.406-2.657-.613-.951-.508-1.142-.745-1.841-1.431-.546-.676-1.073-1.165-1.431-2.044-.522-.356-1.264-.898-1.637-1.431-.625-.615-1.017-1.059-1.431-2.045-.191-.879-.395-1.502-.408-2.658-.032-.616.286.985.612 2.044.297.689.517 1.779.819 2.658v3.271c0 1 .019 1.976-.204 2.862-.138.921-.485 1.343-.819 2.045-.583.359-1.211.805-2.042 1.022-.694.481-2.064.815-3.068 1.022-1.015.265-1.91.409-3.068.409-1.176 0-1.73.013-2.249-.613-.49-.541-1.306-1.624-1.838-2.044-.283-.797-.697-1.116-1.431-1.84-.294-.815-.76-1.814-1.227-2.453-.156-.994-.63-1.849-.819-2.658l-.408-1.022" fill="none"/><path d="M416.811 162.039c.04.281-.188 1.3-.336 1.896-.448 1.217-1.134 2.257-2.045 3.067-.983.592-1.372.939-2.453 1.022-.498.373-1.086.161-1.433-.205-1.054-.39-1.68-1.02-2.657-1.431-.919-.59-1.401-.941-2.249-1.431-.477-.702-1.081-1.492-1.634-2.045-.132-.221-1.306-2.179-1.081-1.566.434.643 1.499 1.885 1.899 2.793.493.68 1.068 2.023 1.634 2.658l2.045 2.453c.458 1.133.935 1.946 1.023 3.067.318.618.408 1.698.408 2.658 0 1.112-.167 1.653-.204 2.658-.268.665-.527 1.428-.819 2.044-1.234 0-2.225-.206-3.068-.613-.662-.465-1.06-1.126-1.634-2.044-.403-1.129-1.094-1.917-1.634-3.067-.678-1.139-1.224-2.885-1.841-3.885-.14-.992-.532-1.88-.612-3.067-.223-.371-.289-.483-.411-.89.13.954.204 1.718.204 2.935 0 1.25.072 2.36-.408 3.067-.366 1.097-.954 1.818-1.634 2.658-.829.523-1.563 1.223-2.66 1.635-1.216.422-2.159.614-3.476.614-1.317-.272-2.607-.4-3.828-.726-1.287-.116-2.204-.196-2.713-.91-.755-.848-1.608-1.785-2.249-2.862-.596-.391-.395-.445-.779-.87.434.677.366.599.575 1.688.387.802.408 1.478.408 2.453-.485.821-.991 1.694-1.634 2.453-.668.816-1.012 1.073-2.045 1.431h-3.068c-.991 0-1.934-.047-2.657-.205-.882-.192-1.91-.597-2.861-1.022-.445-.358-3.227-2.662-3.566-3.112" fill="none"/><path d="M366.796 175.793h.204c-.641 0-.246-.054.615 1.022.617 1.243 1.017 2.349 1.634 3.475.151 1.261.384 2.303.411 3.68 0 1.45.109 2.813-.411 4.089-1.356 1.317-1.886 1.895-3.68 2.044-1.767.361-2.159.029-2.861-1.636-.511-1.046-.901-2.21-1.431-3.271-.273-.779-1.062-1.847-1.637-2.862-.313-.635-.752-1.585-1.227-2.453-.363-.951-.578-1.915-1.023-2.453-.154-1.503-.286-.655.204 0-.127 1.295.715 4.95-.273 5.443-.676.321-1.383.129-2.511.129" fill="none"/><path d="M419.857 165.009l.111 1.382c0-.619-.011-.272.207 1.022.074 1.355.397 2.719.816 3.68v2.862c-.321 1.081-.493 1.579-1.227 2.453-.429.633-.673.818-1.634.818-.657.328-2.08.205-3.068.205-1.094-.301-2.498-.389-3.269-1.022-.676-.518-1.322-.83-1.714-1.467.286.095.204.582.204.26" fill="none"/><path d="M405.049 178.861v0c-.177 1.923-.713 2.778-1.841 4.293-.758.89-1.505 1.683-2.657 2.249-1.627.847-3.256 1.094-5.11 1.227-1.399 0-1.947.056-2.66-.818-.893-.714-1.854-1.711-2.249-2.862-.747-.907-1.142-2.092-1.634-3.067-.23-1.163-.657-2.176-1.023-3.271-.246-.96.196.659.204 1.431 0 1.617-.257 2.876-.612 4.293-.434 1.291-.845 2.215-1.637 3.271-.8 1.268-1.783 1.739-3.065 2.658-1.955.434-3.722.391-5.725.205-1.287-.395-2.22-.68-3.272-1.431-.964-.301-2.17-.884-2.657-1.431-.996-.407-.649-.175-1.295-.498.148.939-.774 4.185-.954 5.2-.315 1.106-.448 1.72-1.227 2.249-.819.743-1.574 2.445-2.691 2.905-.842.183-1.889.773-2.954.857-.739.335-1.568.227-2.268.425" fill="none"/><path d="M419.142 177.838c.074.452.408 2.154.408 3.271v3.476c-.064 1.153-.281 2.121-.408 3.067-.281.983-.71 1.428-1.431 2.044-1.078.561-1.783.987-2.864 1.227-1.282 0-1.642-.206-2.657-.818-1.227-.969-2.072-1.741-3.068-2.862-.842-.905-1.401-1.62-2.045-2.249-.14-1.073-.495-1.791-.816-2.862-.371-.518-.612-1.162-1.023-1.636.376.752.877 1.164 1.431 2.249.638 1.11.985 2.331 1.431 3.476.36.941.829 1.959 1.433 2.453.429 1.022.707 1.394 1.02 2.453.095 1.237.207 2.37.207 3.68-.411 1.185-.861 1.996-1.841 2.658-1.311.781-2.472 1.009-4.088 1.227-1.738-.01-3.375-.095-4.702-.613-.562-.688-1.854-1.795-2.66-2.658-.678-1.121-1.343-2.155-2.042-3.271-.36-.943-.697-1.756-.819-2.658-.22-.658-.294-1.701-.615-2.249-.281-1.527-.204.845-.204 1.431v3.68c-.429 1.763-1.465 3.227-2.657 4.702-1.462 1.172-2.652 2.095-4.498 2.249-1.793 0-3.054.051-4.498-.818-.673-.799-1.698-1.855-2.453-2.862-.689-1.165-1.253-1.932-1.634-3.067-.154-.709-.252-1.781-.411-2.658 0-.83-.085-.148-.148-.831l-.056 1.853c.151 1.348.204 2.685.204 4.089-.479 1.565-.506 2.187-2.246 2.249-1.242-.089-1.605-.324-2.456-1.022-.98-.578-2.085-1.392-2.861-2.044-.792-.739-1.136-1.12-1.857-1.708" fill="none"/><path d="M410.956 193.579h.204c-.601 0-.262-.035.819.613.381.575 1.113 1.465 1.634 2.249.538.743 1.155 2.096 1.634 2.658.411.72.805 1.241 1.023 2.044 0 1.245.164 2.287.207 3.476 0 1.252-.193 1.789-.615 2.658-.654.432-1.605 1.05-2.657 1.431-1.06.138-2.119.205-3.272.205-1.099 0-2.061-.085-3.068-.205-.697-.314-1.804-.76-2.453-1.227-.742-.656-1.531-1.776-2.249-2.658-.456-.731-.63-1.453-.816-2.249-.26-1.013-.381-2.103-.819-2.862-.148-.685-.331-1.512-.408-.205-.273.542-.207 1.605-.207 2.453-.228 1.076-.498 2.11-1.02 3.067-.779.721-1.303 1.671-2.456 2.044-1.359.86-2.922 1.041-4.496 1.227-1.211 0-2.607.153-3.682-.205-.686-.326-1.34-.68-2.246-1.227-1.017-.64-1.793-1.391-2.456-2.249-.763-.959-.763-1.629-1.227-2.862-.066-1.16-.331-1.85-.408-2.862-.154-.284-.381-.79-.612-1.022 0 1.436.191 2.613.612 3.884.069.975.204 1.82.204 2.862-.037 1.023-.241 1.696-.612 2.453-.739.544-1.07.872-2.045 1.227-.97.182-1.989.205-3.068.205-.909-.245-1.605-.789-2.453-1.022-.49-.595-1.036-.85-1.634-1.84-.678-1.026-.819-1.18-.819-2.453.188-1.103.411-2.058.411-3.271 0-1.147.026-1.781.408-2.658.048-.849.093-.492.093-1.464" fill="none"/><path d="M371.511 204.21h-.204c.601 0 .238-.058-.408 1.022-.501.945-.75 1.902-1.227 2.453-.23.844-.601 1.21-1.227 1.636-.268.749-.845 1.031-1.433 1.431-.628.297-1.319.561-2.042.818l2.042-.818c-.628.297-1.319.561-2.042.818" fill="none"/><path d="M435.911 216.274l1.086-.616c.601 0-1.028.581-2.109 1.23-.617.309-1.926.205-2.861.205-.819-.189-2.154-.495-2.66-1.022-.278-1.105-.683-2.182-1.02-3.271-.328-.951-.493-2.037-.615-3.067-.291-.986-.493-1.812-.819-2.862-.381-1.159-.713-2.272-1.02-3.476-.302-1.014-.54-1.889-.615-2.862-.432-.349-.477-1.006-.615-1.636" fill="none"/><path d="M428.546 214.025c-.148 0-.485.969-.819 1.636-1.335 1.565-2.853 2.81-4.294 4.09-1.272.599-2.254 1.481-3.68 1.634-.591-.535-.821-1.974-1.023-3.068-.575-1.932-.869-3.902-1.431-5.723-.509-.917-1.009-2.028-1.227-2.862-.35-.736-.474-1.591-.612-2.249.162 1.593.919 3.087 1.227 4.702.249 1.352.408 2.667.408 4.089v3.476c-.23 1.266-.623 2.461-1.431 3.269-.209.13-1.036-.44-1.841-.816-1.168-.636-2.527-1.364-3.272-1.841-.781-1.131-1.984-2.414-2.861-3.68-.374-1.274-.654-2.342-.819-3.68-.27-1.178-.601-2.84-1.023-3.68-.056-.672-.344-.717-.668-1.075-.196 1.326-.721 2.115-1.171 3.324-.525.551-1.166 1.127-2.045 1.84-1.277 1.161-2.702 2.358-4.088 3.271-1.295.82-2.36 1.147-3.886 1.227-1.457-.045-2.042-.175-3.065-1.022-1.687-1.049-2.816-2.543-4.294-4.089-1.102-1.21-1.521-1.651-1.634-3.271-.069-.887-.241-1.512-.411-2.453 0 .273-.066.205.207.205" fill="none"/><path d="M390.108 216.682c-.061.416-.244 2.313-.408 3.068-.23.845-.54 1.253-1.227 1.634-.498.421-1.465.683-2.045 1.023-1.057.101-1.976.289-2.864.408h-3.065c-1.068 0-1.767.019-2.249-.612-.609-.501-1.242-1.542-1.634-2.249-.342-1.158-.421-1.873-.207-2.863 0-1.415.18-2.675.207-4.089l-.103-4.199" fill="none"/><path d="M376.836 220.364v.204c0-.551.013-.27-.204.819-.276.824-.683 1.115-1.227 1.634-1.03.225-1.338-.032-2.456-.408-.715-.578-.898-1.078-1.431-1.634-.249-.702-.673-1.24-1.227-1.637 0-.44-.101-.305-.204-.612" fill="none"/><path d="M370.399 218.616c0 .066.095.781.509 1.33.411.898.88 1.785 1.227 2.861v3.272c-.101 1.24-.281 2.66-.819 3.476-.456.652-1.6 1.171-2.657 1.634-1.046.519-2.233.575-3.476.615-1.465-.323-2.694-.834-4.09-1.634-1.234-.63-2.474-1.407-3.68-2.045-.564-.49-1.099-.736-1.634-1.431-.593-.434-1.081-1.054-1.637-1.433-.392-.575-1.105-.988-1.634-1.634-.514-.368-.872-.911-1.227-1.431" fill="none"/><path d="M433.977 230.219c0 .119-1.936 1.674-2.572 1.992-.795.583-2.135 1.131-3.272 1.637-1.595.487-2.84.816-4.496.816-.466-.683-1.727-1.529-2.453-2.453-.374-.747-1.038-1.921-1.637-2.861-.371-1.179-.808-2.379-1.227-3.476-.358-1.057-.681-1.669-.819-2.864-.336-.466-.609-1.868-.715-1.229.673.686.758 1.812 1.126 2.866 0 1.277.172 2.416.204 3.68-.291.819-.379 1.38-1.023 1.841-.45.519-.763.612-1.634.612-.601.36-1.174.016-2.045 0-1.07-.315-1.364-.527-1.841-1.227-.601-.421-1.017-1.242-1.838-1.841-.519-.962-.821-1.319-1.227-2.246-.268-.75-.493-1.613-.615-2.66 0-1.076-.167-2.013-.204-3.065 0-.736.056-2.435-.204-2.869-.154 1.245-.411 2.689-.411 4.096-.18.964-.236 2.098-.408 3.065-.45 1.036-1.091 2.114-2.045 3.068-1.282.726-2.411 1.012-3.884 1.227-1.55 0-2.967-.188-4.498-.204-.94-.535-1.992-1.261-3.065-2.045-1.001-.906-2.276-2.045-3.068-2.657-.252-.713-.755-1.142-1.227-1.637-.291-.54-.416-.469.204-.204.532.532 1.401 1.274 1.841 2.045.336.652.819 2.072 1.227 2.657 0 1.11.191 1.584.204 2.657-.193 1.054-.824 1.311-2.045 1.637-1.166 0-2.244-.117-3.065-.408-.98-.411-1.714-.718-2.249-1.229-.525-.355-1.264-.898-1.637-1.431-.774-.816-1.597-1.68-2.249-2.453-.413-.453-1.03-1.595-1.431-2.045.199.299.342.352.615.819.731.919 1.144 1.497 1.634 2.249.389 1.009.734 1.494.819 2.657 0 .991-.048 1.936-.204 2.66-.233.853-.609 1.346-1.433 1.634-.617.31-1.926.204-2.861.204-.686-.299-1.913-.827-2.657-1.023-.474-.578-1.454-1.277-2.045-2.042-.519-.668-.821-1.354-1.431-1.841.527.434.853 1.205 1.431 1.841.315.644.781 1.64 1.023 2.453.408.903.564 1.891.819 2.861 0 1.094-.072 2.066-.207 3.068 0 1.07 0 1.852-.408 2.453-.252.917-.721 1.34-1.634 2.042-.98.191-1.388.397-2.453.411-.413-.501-1.015-1.049-1.637-1.637-.278-.588-.694-1.502-1.023-2.042-.403-.657-.824-1.004-1.227-1.841-.638-.615-1.383-1.611-1.838-2.657-.517-.774-1.038-3.012-1.227-3.876-.281-.188.331.525.408 1.831 0 1.089-.064 2.074-.204 3.068.032 1.197.204 2.265.204 3.476-.111.813-.241 1.701-.615 2.249-.503.885-1.473 1.611-2.657 2.042-.445-.623-.97-.816-1.838-1.023-.85-.434-1.46-.638-2.453-1.02-.94-.683-1.34-.816-2.045-1.841-.668-.63-1.285-1.661-1.637-2.453-.156-.723-.204-1.666-.204-2.657.013-1.285.199-2.098.615-3.068.228-.832.766-1.401 1.431-1.838.58-.58 1.197-1.073 2.045-1.229.103-.588.572-.567 0-.612v.612c.103-.588.572-.567 0-.612" fill="none"/><path d="M432.229 245.292c0 .122-.593.501-1.227.819-1.298.413-2.744.098-4.09 0-1.327-.331-2.286-.405-2.861-1.227-.665-.477-1.687-1.531-2.249-2.249-.302-.636-.495-1.378-.612-2.249-.132-1.062-.225-2.228-.411-3.272v-3.269c0-1.11-.191-1.587-.204-2.66.09-.087.154.514.408 1.023 0 1.28-.045 2.506-.204 3.68-.111 1.15-.511 1.891-.819 2.66-.596.739-.93.978-1.838 1.227-.668.397-1.833.575-2.864.612-1.258-.072-1.968-.334-2.657-1.023-1.004-.797-1.648-1.672-2.249-2.861-.352-1.147-.612-2.178-.612-3.476-.14-.909-.074-2.599-.411-3.272-.029-.596.172-1.852-.098-2.148.138 1.052-.095 2.993.098 4.194 0 1.346-.037 2.644-.204 3.884-.548 1.245-.805 1.915-1.838 2.453-.623.623-1.415.93-2.453 1.227-1.574 0-3.205.117-4.702-.204-.742-.201-1.438-.607-2.249-.819-.559-.472-1.396-.76-2.045-1.431-.752-.824-1.301-1.597-1.634-2.657-.996-1.28-1.733-2.506-2.249-3.884" fill="none"/><path d="M427.513 256.763h-.204c.551 0 .27-.013-.819.204-1.065.355-2.032.106-3.068-.204-.691-.305-1.412-.784-1.838-1.227-.713-.874-.991-1.107-1.431-2.249-.344-1.407-.411-2.58-.411-4.088.016-1.192.328-1.958.615-3.068.363-1.123.856-2.919.856-4.167-.045 1.354-.779 3.409-.856 4.782v3.269c-.328.983-.328 1.889-.819 2.66-.657.932-1.248 1.25-2.453 1.431-1.195-.109-1.205-.456-1.841-1.431-1.081-1.303-1.685-3.052-2.042-4.702v-3.272c0-1.367.103-2.596.204-3.884.085-.845.148-.964.148.13.077 1.576.26 2.752.26 4.366-.291 1.197-.76 2.201-1.227 3.068-.874.119-1.563.395-2.657.408-1.089 0-1.926-.048-2.657-.408-.511-.858-1.526-2.003-2.045-3.068-.238-1.121-.57-2.061-.615-3.269-.254-.511-.321-1.611-.408-2.249.217 1.277.204 2.691.204 4.088-.011 1.301-.048 2.572-.612 3.272-.564.76-1.293.8-2.249 1.023-1.038 0-2.156.098-3.068-.204-1.023 0-2.193-.064-2.861-.411-.927-.405-1.264-.705-2.045-1.227-.419-.62-1.229-1.415-1.634-2.453 0-1.083.138-1.976.612-2.657.193-.887.384-1.436.819-2.249.413-.985.803-1.42 1.227-2.045.366-.196-.999.919-1.637 2.045-.911.882-1.674 1.711-2.453 2.453-1.036.654-1.576 1.134-2.861 1.227-1.277 0-1.801-.225-2.657-.612-.554-.607-1.097-.713-1.227-1.637-.374-.919-.54-2.289-.819-3.065-.013-1.152-.196-2.151-.408-3.272-.111-.816-.204-2.427-.204-1.632 0 1.767-.085 2.803.204 4.493v3.476c0 1.076-.148 1.719-.411 2.453-.946.13-1.311.395-2.453.411-1.012-.27-1.552-.487-2.249-.819-.482-.458-.887-1.044-1.431-1.431l1.431 1.431c-.482-.458-1.711-1.558-2.254-1.944" fill="none"/><path d="M420.467 268.525l-5.828-.927c-1.099-.273-2.352-.368-2.861-1.023-.437-.678-.76-1.51-1.023-2.657 0-1.449.111-2.278.816-3.476.535-1.057 1.396-1.897 1.841-2.657.591-.744 1.211-1.754 1.634-2.657.411-.641.397-.713.872-1.393.62-.109-1.897 1.372-3.733 2.62-1.417.633-2.62.805-4.294.816-1.261-.276-3.057-.683-4.088-1.02-.819-.721-.819-1.854-.819-3.272v-3.68c0-.781.034-.872-.148-1.372-.085 1.163-.318 1.656-.466 2.803-.109 1.338-.334 2.477-.816 3.68-.53 1.004-1.181 2.358-1.841 3.068-.644.827-1.507 1.285-2.249 1.838-1.378.244-2.525.098-3.884-.204-1.457-.49-1.735-1.06-2.249-2.453-.448-1.526-.408-3.208-.408-4.906.045-1.264.318-2.445.612-3.68v-3.476l.392-1.526" fill="none"/><path d="M411.99 267.386c-.498.066-2.17.389-3.272.411-.8.265-2.162.204-3.272.204-1.189-.281-1.775-.291-2.249-1.023-.729-.506-1.009-1.004-1.634-1.431-.302-.604-.641-1.277-1.023-1.841-.103-1.155-.395-2.064-.408-3.272 0-1.07-.003-1.852-.411-2.453v-.408" fill="none"/><path d="M399.724 257.982v3.272c0 1.073-.162 1.918-.408 2.861-.114.962-.381 2.029-.819 2.66-.487.935-1.174 1.248-2.045 1.634-.993.135-1.264.164-2.042-.204-.713-.193-1.634-.678-2.249-1.227-1.068-.442-1.936-.967-2.657-1.637-.895-.628-1.513-1.269-2.045-1.838-.413-.827-.691-2.019-1.023-2.657 0-1.129.087-1.778.408-2.453.326-.654.752-1.139 1.227-1.637.495-.472 1.748-1.385 2.461-1.637" fill="none"/><path d="M386.426 261.054h-.204c.694 0 .262-.04-1.023.816-.906.697-1.526 1.03-2.453 1.433-1.311.307-2.143.408-3.68.408-1.343 0-2.665.013-3.886-.204-.887 0-1.854-.005-2.453-.204-.223-.67-.599-1.351-1.023-1.841-.156-.723-.204-1.666-.204-2.657.366-.583.649-1.796 1.023-2.249.519-.935.864-1.248 1.634-1.841.721-.501 1.285-.744 1.841-1.227.85-.283 1.184-.638 2.045-1.431.821-.744 1.15-1.266 1.838-1.838.458-.437 1.07-1.017 1.637-1.433.27-.853.739-1.433.816-2.453v-3.8840000000000003" fill="none"/><path d="M363.829 273.214c-.241-.122-.882-1.301-1.529-1.947-1.428-1.436-2.633-2.114-2.657-4.088.458-.681 1.264-1.213 2.249-1.634.556-.546 1.16-.985 1.841-1.227.774-.17 1.807-.207 2.861-.207 1.113 0 1.653-.167 2.657-.204 1.073-.013 1.55-.204 2.66-.204.376-.379.8-.204-.207-.204-.726.331-1.547.408-2.657.408-.903-.392-1.446-.593-2.453-.816-.543-.472-1.205-.628-1.634-1.229-.911-.511-1.192-.967-1.433-2.042-.132-.996-.167-1.436.411-2.249.299-1.15.866-1.833 1.431-2.657.676-.691.985-.819 2.249-.819h3.068c.726.13 1.544.207 2.246.408-.972-.278-1.95-1.29-2.861-2.249-.872-.946-.917-1.248-1.431-2.249-.339-1.28-.771-2.011-.819-3.269v-3.068c.196-1.102.469-1.55.819-2.249" fill="none"/><path d="M360.465 244.074c-.119.244-1.007 1.566-1.227 2.045-.262.734-.411 1.38-.411 2.453-.18.882.008 1.338.207 2.249.596.408 1.083.84 1.634 1.634.887.427 1.181.837 1.634 1.637.556.376 1.388 1.269 1.74 1.841-1.009-.074-2.164-.893-3.171-1.229-.585-.273-1.825-.641-2.453-1.02h-3.476c-1.089.082-1.303.445-2.045.816-.421.66-.736 1.219-.816 2.249-.228.683-.228 1.77 0 2.453.461.495 1.054 1.245 1.634 1.637.758.429 1.351.808 2.249 1.431.951.562 2.156 1.105 2.861 1.634.689.188 1.505.45 2.045.819.498.087 1.129.204.204.204-.548-.321-1.589-.395-2.249-.612-.967-.162-1.907-.498-3.065-.615-1.073 0-1.428-.024-1.841.615-.832.241-1.076.739-1.634 1.227-.366.771-.58 1.256-.615 2.453.22.821.432 1.232.615 1.838.151.355.535 1.099.819 1.332l-.819-1.332" fill="none"/><path d="M351.67 223.013c-.548.14-2.403.713-3.476 1.023-.729.244-1.24.654-1.838 1.023-.593.403-.951.927-1.431 1.431-.244.731-.654 1.24-1.023 1.841-.321.676-.538 1.272-.615 2.249.016 1.375.477 1.905 1.023 3.272.702 1.189 1.258 2.58 2.249 3.269.84.517 1.497.898 2.453 1.433.652.177 1.648.646 2.249 1.023 1.001.132 1.658.416 2.249.816h-1.634c-.956.037-1.799.17-2.456.615-.699.281-1.004.837-1.634 1.227-.23.848-.585 1.208-.819 2.249-.339.678-.156 1.78 0 2.657.427.615.811 2.058 1.227 2.657.44 1.505.856 2.721 1.841 3.886.175.506 1.428 1.287 1.846 1.534-.63-.429-2.199-1.989-3.073-2.763-.517-.654-1.158-1.107-2.045-1.431-1.081-.413-2.09-.734-3.272-.816-1.113 0-1.74.122-2.453.408-.522.453-1.189.689-1.634 1.227-.583.416-.885 1.083-1.227 1.841.04 1.099.283 1.65.819 2.453.477.715.827 1.224 1.431 1.634.609.705 1.282 1.118 2.249 1.634.805.575 1.531.705 2.453 1.227.909.291 1.658.713 2.861 1.227 1.025.562 3.77 2.554 4.612 2.874.18.27-2.723-1.738-3.59-2.26-1.041-.23-1.401-.585-2.249-.819-1.062-.49-1.624-.882-2.657-1.023-.89-.408-2.056-.641-2.864-.816-1.229 0-2.225-.196-3.476-.204-.882 0-.954.021-1.227.612-.686.53-1.076 1.136-1.634 1.841-.384.678-.827 1.28-1.227 1.838-.297.694-.63 1.563-.819 2.249-.18.837-.395 1.375-.408 2.453" fill="none"/><path d="M334.106 261.849l.207.207c0 .575-.18-.143-.615-1.227-.676-.803-1.534-1.984-2.453-2.864-1.306-.93-2.66-1.873-4.09-2.453-1.242-.588-2.559-1.221-3.884-1.634-1.192-.23-2.424-.204-3.68-.204-1.234.013-1.415.334-2.249.612-.479.54-.925 1.089-1.227 1.841-.241.599-.389 1.574-.612 2.249 0 1.044-.193 1.831-.207 2.861 0 .837.199 2.228-.305 2.562.212-.895.413-2.617.715-3.788-.016-1.232-.384-1.587-.819-2.657-.877-.983-1.698-2.021-2.453-2.864-.707-.898-1.605-1.955-2.453-2.657-.707-.432-1.404-.922-2.045-1.227-1.038-.421-1.523-.776-2.657-.819-.485.464-1.052.866-1.637 1.227-.601.411-.972.874-1.227 1.637-.374.548-.498 1.494-.612 2.453-.328.94-.408 1.56-.408 2.657-.262.347-.358.869-.411 1.431.122-.914.395-1.725.411-2.861-.162-1.057-.572-2.09-.819-3.476-.037-1.409-.305-2.268-.819-3.068-.882-.787-1.693-1.929-2.861-2.657-1.02-.49-1.828-.803-3.068-.819-1.11.013-1.664.276-2.453.615-.286.713-.408 1.34-.408 2.453.013 1.158.217 1.571.612 2.249.122.903.525 1.587.615 2.657.281.472.204 1.47.204 2.249-.095-1.102-.766-1.891-1.023-2.861-.254-1.174-.57-2.159-.819-3.068-.448-1.2-1.129-2.254-1.838-3.476-.721-.58-1.102-1.176-2.045-1.841-.925-.803-1.624-1.277-2.657-1.431h-2.864c-.837.334-1.086.652-1.634 1.227-.254.975-.744 1.759-1.023 2.453 0 1.017.042 1.95.204 2.864.485.506.808 1.052 1.023 1.838.344.588.819 2.604.819 3.587-.313-.837-1.102-3.571-1.431-4.609-.299-.832-.776-1.841-1.227-2.657-.323-1.171-.795-1.78-1.433-2.657-.519-.8-1.343-1.497-2.249-2.045-.877-.734-1.245-.978-2.453-1.023-1.052.313-1.253.668-2.249.819-.384.347-1.068.601-1.431 1.023-.193.821-.503 1.38-.819 2.045-.156.723-.204 1.666-.204 2.657.363.535.789 1.322 1.023 2.045.628.689.893 1.393 1.431 2.249.302.903 1.666 3.049 2.05 3.688-.122.122-1.197-1.558-1.64-2.053-.797-1.102-1.192-1.78-1.637-3.068-.527-.689-1.152-1.645-1.634-2.042-.673-.789-1.611-1.627-2.657-2.249-.914-.644-1.401-.615-2.66-.615-1.29-.268-2.217.008-3.065.408-.609.62-1.897 1.627-2.453 2.045-.615.781-.917 1.301-1.433 1.841-.273.683-.495 1.38-.612 2.249.087 1.131.532 1.383 1.023 2.453.543.419 1.351 1.499 1.838 1.838.392.485 2.909 2.766 2.05 2.766-.371-.546-1.621-1.857-2.254-2.355-.599-.731-1.34-1.364-1.838-1.841-.84-.363-1.518-.691-2.453-.819-1.181-.236-1.929-.371-3.068-.408-1.033.093-1.595.604-2.249 1.023-.368.601-.779 1.11-1.023 1.841-.461.556-.408 1.383-.408 2.453.366.538.747 1.325 1.023 2.042.623.599 1.076 1.571 1.838 2.249.811.681 1.518 1.009 2.453 1.227 1.007.037 1.547.204 2.66.204.707.045-.342.18-.615.411" fill="none"/><path d="M247.825 264.737l-.204-.204c.511.511.281.265-.819-.615-1.245-.585-2.609-.771-4.088-.816-1.126.289-2.35.593-3.476.816-.654.668-1.078.948-1.841 1.841-.31.776-.477 1.367-.204 2.453.551 1.129.784 1.529 1.634 2.453.593.403 1.083.721 1.841 1.023 1.547.233 3.065.76 4.702.819 1.181 0 4.117.376 5.229.411 1.383 0-3.499-.207-4.003-.207-1.481 0-2.933.011-4.294.204-1.303.265-2.551.562-3.68 1.227-.932.53-.819.983-.819 2.249.294.729.649 1.232 1.023 1.838.638.591 1.171 1.15 2.045 1.433 1.07.588 2.183 1.126 3.476 1.227.848.286 4.448-.029 3.19-.101-.654.554-5.068.67-6.257.917-1.261.532-2.612 1.28-3.68 1.637-.23.885-.405 1.529-.204 2.453.44.718.789 1.372 1.431 2.045.511.509.8.792 1.637 1.02.874.429 2.305.668 3.476 1.023.909 0 .925-.135 1.431-.408" fill="none"/><path d="M339.219 251.65c0-.069-.408-.678-.819-1.227-1.081-1.266-2.909-2.662-4.294-3.886-1.489-.601-2.58-1.322-4.088-1.431-1.269 0-1.677.011-2.045 1.023-.445.538-.63 1.282-.819 2.249-.421 1.009-.408 1.958-.408 3.272-.307.612-.26 1.727-.612 2.249-.029.543-.132.89-.207.816-.339-.681.217-2.087.411-3.065 0-1.242.164-2.281.204-3.476-.477-1.862-.644-2.337-2.045-3.884-1.388-1.46-2.382-2.339-4.088-3.476-.895-.23-2.072-.601-3.272-.615-.739.4-1.74 1.046-2.453 1.634-.718.972-1.007 1.592-1.023 2.864.148 1.123.49 1.844 1.023 2.861.283.721.599 1.642.819 2.66.374.956.527 2.344 1.02 3.065.138 1.091.13.702-.204 0-.106-1.385-.546-2.673-1.023-3.68-.397-1.491-.837-2.037-1.634-3.272-.789-1.227-1.136-1.722-2.453-1.838-.874-.291-1.989-.291-2.864 0-.755.419-.978.67-1.02 1.838-.233.697-.31 2.382-.31 3.378 0 .302 1.038-4.244.718-5.42-.766-1.412-1.627-2.514-2.864-3.682-1.205-1.446-2.297-2.774-3.884-3.68-1.11-.328-1.722.159-2.453.819-.954.636-1.695 1.539-2.045 2.249-.23.85-.532 1.34-1.023 2.249-.768.959-1.396 4.469-1.531 3.796-.164-1.099.236-3.926.511-5.023.114-1.407.238-2.625-.207-3.68-.848-1.123-1.589-1.95-2.657-2.453-.71-.776-1.245-.819-2.453-.819-.909.289-2.095.975-3.068 1.634-.596.559-.853.943-1.02 1.637-.368.636-.657 1.952-.819 2.657-.212.877-.599 1.698-.615 2.861-.424 1.388-.204-.946-.204-1.634-.326-.983-.164-2.321-.612-3.068-.554-1.025-.811-1.264-1.841-2.042-1.046-.474-1.579-.819-2.861-.819-.572.4-1.261.657-1.841 1.227-.649.832-1.2 1.658-1.838 2.657-.223.887-.207 1.862-.207 2.864.024.832.172 1.319.207.204v-3.272c-.223-1.144-.424-1.674-1.433-2.045-.71-.384-1.669-.408-2.861-.408-.832.294-1.078.649-1.227 1.634-.509.715-.615.954-.615 2.045-.289.578-.204 1.764-.204 2.657-.326.437-.371 1.319-.408 0-.069-1.025-.331-2.138-.615-2.861-.681-.53-1.619-1.123-2.249-1.431-.999 0-1.976-.019-2.861.204-.789.403-.787 1.025-1.431 1.634-.207.88-.535 1.224-.615 2.249-.185.861-.122 1.555 0 2.453.228.641.57 1.42.411 1.841-.509-.583-1.346-1.65-2.045-2.657-.758-.612-.967-.877-2.045-1.023-.88-.069-1.423-.207-2.453-.207-.495.432-1.102.864-1.634 1.229-.479.705-.874.856-1.023 1.838-.31.617-.209 1.831 0 2.453.498.323.665.734 1.227 1.023.424.527 1.062 1.038 1.431 1.634.244.49.331.244-.408.207-.641-.768-1.476-1.06-2.66-1.637-1.274-.228-2.188-.019-3.476.204-.58.84-.978 1.627-1.02 2.864.04 1.089.731 2.684 1.33 3.179" fill="none"/><path d="M346.769 237.319h-1.023c-1.619-.151-3.073-.395-4.702-.411-1.499 0-2.649.016-3.884.615-1.2.419-1.436.866-2.249 1.634-.522.975-1.147 1.783-1.431 2.864-.368.909-.776 1.722-.819 2.861.262 1.566 0-1.126 0-1.841.326-1.844.207-3.627-.204-5.518-.392-1.335-.821-2.432-1.431-3.68-.458-.813-.983-1.513-2.045-1.841-.736-.212-1.931-.241-2.657 0-.517.363-1.37 1.34-1.841 2.045-.522.694-1.211 1.748-1.634 2.453-.509.853-.911 1.923-1.227 2.657-.103.593-.252 1.245-.411 1.637-.408-.819-.901-1.091-2.042-1.637-1.062-.909-2.252-1.738-3.272-2.249-.816-.506-1.982-1.234-2.864-1.634-.628-.437-1.695-.705-2.657-.819-.993 0-2.4-.127-3.065.204-.795.283-1.078.726-1.433 1.433-.36.585-2.122 2.625-2.053 2.461 0-1.139 1.004-3.441.623-4.506-.543-1.078-.991-1.592-1.227-2.453-.644-.713-.877-1.483-1.634-2.045-.278-.781-.805-1.015-1.227-1.634-.909-.387-1.017-.774-2.249-.819-1.017 0-1.96.164-2.66.408-.76.209-1.399.49-1.838 1.023-.919.44-1.086.821-1.841 1.431-.525.368-1.171 1.163-1.431 1.841-.596.726-.085.93 0 2.045" fill="none"/><path d="M343.298 227.941v-.207c0 .604.037.265-.612-.816-.413-.67-.845-1.2-1.637-2.045-.707-.829-1.189-.819-2.453-.819-.893 0-2.08-.085-2.657.204-.797.305-1.264 1.076-1.841 1.841-.646.898-1.29 1.547-1.634 2.249-.411.978-.789 1.396-1.023 2.249-.517.387-.493.8-1.227 1.023-.368-.668-1.044-1.065-1.431-1.637-.914-.315-2.127-1.208-3.068-1.838-.999-.665-1.913-1.038-2.861-1.637-.911-.315-1.486-.408-2.657-.408-1.285.058-1.881.355-2.864 1.023-.893.421-1.51 1.054-2.249 1.634-.721.501-3.672 4.837-4.411 5.447-.755.71 2.564-3.293 3.184-4.424.477-1.208.819-1.942.819-3.272-.233-1.672-.384-3.211-1.637-4.292-.98-.384-2.14-.604-3.476-.615-.935.127-1.412.413-2.453.615-.784.419-1.566.628-2.249 1.227-.654.403-1.001.824-1.838 1.227-.408.599-1.015.848-1.431 1.431-.302.13-1.412 1.24-1.542 1.542" fill="none"/><path d="M336.543 223.225h-.204c.601 0 .265.034-.816-.615-.562-.381-1.086-.869-1.637-1.431-1.15-.291-2.066-.829-3.272-1.023-1.023-.419-2.172-.816-3.065-1.023-.882 0-1.868-.005-2.453.204-.408.599-.882.946-1.227 1.637-.273.575-.464 1.521-.819 2.042-.024.819-.432 2.238-.925 2.567.456-.805 1.287-2.999 1.536-4.405-.315-1.499-.911-2.882-1.634-4.294-.797-.971-1.717-1.922-2.657-2.862-.946-.237-2.003-.205-3.068-.205-1.245 0-1.648.015-2.249.818-.583.46-1.097 1.27-1.634 1.636-.585.782-1.131 1.116-1.431 2.25-.416.811-.623 1.417-.819 2.249l.819-2.249c-.416.811-.623 1.417-.819 2.249v.204c.254-.853.797-1.666.819-2.863 0-1.058.045-2.319-.204-3.067-.326-.809-.652-1.306-1.433-1.84-.954-.943-1.74-1.577-2.861-2.045-.914-.467-1.86-.539-2.864-.205-.999.42-1.396.781-1.838 1.431-.882.312-.98.686-1.023 1.84-.037 1.109-.185 2.007 0 2.862.138 1.168.474 1.906.819 2.863.445.689.962 1.097 1.227 1.838.273 0 1.234 1.478 1.234 1.751" fill="none"/><path d="M335.537 222.404c0-.458-.413-2.808-.413-3.886 0-1.111-.191-1.586-.204-2.659 0-.743.196-2.36-.305-2.05.037 1.005.101 2.37.101 3.481-.291.818-.379 1.379-1.023 1.84-.662.442-1.695.408-2.861.408-.978-.106-2.212-.17-2.864-.612-1.049-.225-1.701-.535-2.453-1.022-.699-.397-1.28-.846-1.841-1.227-.236-.872-.662-1.094-.816-2.249-.464-1.067.615-3.588.321-3.88-.079 1.045-3.921 2.672-5.023 3.062-1.121.38-2.021.409-3.272.409-.832 0-1.701-.005-2.249-.205-.872-.635-1.311-1.045-2.045-1.636-.956-.732-1.677-1.136-2.657-2.044-.85-.807-1.298-1.548-1.838-2.249-.35-.757-.97-2.009-1.433-2.658-.109-.816-.204-1.616-.204-2.658v2.862c-.408.9-1.068 1.83-1.838 2.658-1.121.514-2 1.066-3.272 1.227-.707-.393-1.616-.723-2.249-1.022-1.065-.158-1.441-.479-2.045-1.227-.699-1.128-1.319-1.934-1.431-3.271-.313-.558.109-1.048.204-1.84 0-.44.101-.304.204-.613" fill="none"/><path d="M273.601 197.871c-.064 1.233-1.852 2.753-2.257 3.685-.331 1.051-1.033 1.669-1.436 2.451-.972.552-1.772.775-2.864 1.227-1.497.054-2.707.363-4.292.409-1.282 0-3.163.357-3.78-.409-.861-.932-2.466-2.174-3.171-3.067-.702-.679.514-2.414.326-2.762" fill="none"/><path d="M228.01 217.977c-.424 1.273-.885 5.448-2.461 7.904-.713.93-1.682 1.285-2.657 1.634-1.16.302-2.069.699-3.476.819-.985.376-1.531.405-2.453.204l-.503-1.335c.76.379.085 1.987.707 2.972.079 1.046.368 1.338.408 2.453 0 1.205-.045 2.323-.204 3.476-.106 1.052-.289 1.976-.408 2.861-.617.927.011.14-.811.607-.842.254-1.767.676-2.861.816-.893.223-1.87.403-2.66.511-1.115.662-.63.519 0 1.431.736.593.983.805 1.227 1.944.291.575-.31 2.996-.824 3.892-.09 1.062-.49 1.809-.615 2.861-.339 1.195-.49 2.501-.819 3.68-.204.781-.612 1.701-.816 2.66l-1.637 2.453c-.58.358-2.011 1.123-2.662 1.436-.175.676 1.195.599 1.64 1.221.662.662.983 1.105 1.227 2.249.172 1.136.419 1.82.615 2.657-.13.887-.45 2.005-1.023 2.657-.313 1.176-.747 1.785-1.431 2.249-.657.612-1.55 1.094-2.453 1.227-.63.44-1.695.705-2.657.819-.339.286-2.029 1.574-2.464 1.748" fill="none"/><path d="M300.78 217.09c-.23 0-1.489-.065-2.045-.205-.978-.571-2.056-.409-3.272-.409-1.078.206-1.791.384-2.246 1.022-.482.907-.803 1.588-.819 2.862.013 1.15.368 1.989.612 2.864.432.519.479 1.401.819 2.042l.514 2.36c-.44-.985-1.351-3.499-1.74-4.813-.22-1.462-.379-2.135-1.431-2.861-1.385-1.129-2.087-1.742-3.68-2.045-1.107.178-1.963.906-2.864 1.43-.588.689-1.695 1.325-2.453 1.841-1.012.88-1.695 1.51-2.045 2.861 0 1.044.095 1.844.207 2.66.162.747.374 1.574.612 2.246.273 1.192.527 2.262.615 3.476.207.209.204 1.242.204 1.023-.49-.67-.758-1.56-1.023-2.453-.315-.895-.742-1.756-1.227-2.657-.935-.816-1.171-.887-2.453-1.227-.991 0-1.934.048-2.657.204-.45.371-1.187.723-1.637 1.227-.556.707-1.139 1.346-1.431 2.453 0 1.044.095 1.844.204 2.657v2.456" fill="none"/><path d="M299.35 208.3h-.204c.57 0 .268.025-.819-.409-.543-.37-1.46-.476-2.045-.818-1.181-.044-2.117-.204-3.476-.204-1.197.107-1.444.599-1.634 1.84-.286.855-.204 1.884-.204 2.862-.072 1.087-.286 2.017-.411 3.067-.119.552.14 3.933-.098 4.413-.177-1.196-.935-4.503-1.332-5.435-.699-1.539-1.579-2.695-2.861-4.089-.946-.821-1.438-.616-2.66 0-1.176.151-1.42.414-2.042.818-.617.45-1.248 1.051-1.637 1.84-.652.515-1.028 1.203-1.227 2.044.069.898.339 1.732.615 2.453.191.369 2.069 4.292 2.26 4.62.215.355-1.783-3.206-2.464-3.802-.702-.686-1.388-.613-2.66-.613-1.629.203-2.98.446-4.292 1.227-.699.675-.943 1.276-1.433 1.841-.114.848-.336 1.64-.408 2.657.154 1.012.477 1.436 1.023 2.249.185.424 1.523 2.268 1.642 2.768-.787-.434-3.121-1.746-4.299-1.746-1.197.159-1.642.532-2.249 1.431-.427 1.052-.411 2.064-.411 3.272-.034 1.007-.204 1.812-.204 2.861l.413 5.346c-.18-.763-.845-5.598-1.229-6.162-.427-.991-1.136-2.228-2.045-2.864-.654-.392-1.38-.154-2.045.204-.276.562-.964 1.669-1.431 2.249-.273 1.025-.599 1.303-.615 2.453l1.645 5.439c0 .302-1.37-3.436-1.441-3.597-.344-.827-.985-2.085-1.431-3.068-.707-.479-1.052-.964-1.838-1.431-.747-.548-1.354-.898-2.045-1.227-1.007-.286-1.902-.408-3.068-.408-.816.4-1.234.702-1.838 1.634-.286 1.03-.411 1.873-.411 3.068v3.065c.223.813.554 1.407 1.227 2.045.429.63 1.899 2.586 2.464 3.282.829.829-1.38-2.027-1.849-2.26-.84-.448-1.274-.686-2.249-.819-.578-.289-1.764-.204-2.657-.204-.97.334-2.355.54-3.068 1.023-1.144.429-2.119.49-2.453 1.431.042 1.232.281 1.899.615 2.864.506.935.837 1.642 1.431 2.246.408.601.872.975 1.634 1.229l2.872 2.252c-.633-.381-2.689-.644-3.484-.413-.562.381-1.372 1.009-2.249 1.634-.887.702-.819 1.189-.819 2.456.074.975.294 1.571.615 2.246.331.702.652 1.203 1.023 2.045-.14.31 4.837 3.537 4.837 3.809" fill="none"/><path d="M293.628 205.847h-.204c.601 0 .262-.035-.819.613-.925.308-1.825.462-2.657.205-1.216-.144-2.416-.205-3.68-.205-.411-.308-.927-.163-1.227-.613-.832-.366-1.232-.607-1.433-1.431-.472-.787-.914-1.959-1.227-2.862-.445-.833-.779-1.44-1.227-2.453 0 1.249.212 2.338.411 3.475v3.067c-.511.967-.477 1.461-1.637 1.636-1.015 0-1.96-.165-2.657-.409-1.603-.388-3.325-.783-4.906-1.022-.67-.957-1.425-1.276-2.649-2.444" fill="none"/><path d="M271.958 205.029c-1.012.276-1.982.115-2.657.818-.456.685-1.049.939-1.227 1.84-.63 1.225-.819 2.818-.819 4.498.233 1.178.927 2.294 1.637 3.067.368.6 1.25 1.872 1.844 2.764.596 1.176-.466-.353-1.232-.719-.991-1.129-2.244-2.217-3.68-2.453-1.566-.381-2.811-.522-4.292 0-1.044.514-1.269.998-1.433 2.249-.289.578-.204 1.763-.204 2.659.013 1.129.204 2.127.204 3.269.297.919.175 2.13.411 3.068.371.514.668 2.755.919 3.184-.257-1.274-.858-4.575-1.534-5.637-.498-.731-1.248-1.205-2.045-1.634-.678-.273-1.441-.495-2.453-.615-.996-.249-2.106-.252-2.861 0-1.197.424-1.603.739-2.045 1.634-.175.803-.477 1.762-.819 2.66-.069.914.003 3.939.003 5.025" fill="none"/><path d="M258.872 205.233c0-.291-2.228.892-2.453 1.636-1.129.712-1.552 1.46-2.962 1.535-1.385.22-2.575.719-4.088.719h-5.317" fill="none"/><path d="M252.116 208.708v.205c0-.602.034-.262-.615.818-.84 1.096-1.118 1.623-.819 3.067 0 1.183.167 2.132.207 3.271.591 1.403 1.351 3.347 1.838 4.497.506.922.342.437-.612.411-.993-.381-1.899-.411-3.068-.411-1.083 0-2.09.032-3.068.207-.768.511-1.523.837-2.453 1.227-.575.442-1.587.874-2.042 1.431-.217.646-.207 1.714-.207 2.657.114.837.286 1.483.615 2.045.604.911 1.174 1.526 2.045 2.453.464.442 1.211.917 1.838 1.431.633.191 2.05 1.025 2.461 1.436-.734-.503-3.433-2.246-4.299-3.07-1.921-.85-3.96-1.566-6.135-1.841-1.295.048-2.241.691-3.065 1.431-.554.795-.832 1.242-1.637 1.637-.633.776-1.28.652-1.431 1.838-.31.93-.029 1.597.204 2.66.387.978.805 2.08 1.227 2.861.62.607 1.004 1.094 1.637 1.841.766.668 1.229 1.144 2.045 1.431.493.472 1.849.972 2.562 1.227-.495.429-2.146.729-2.768 1.023-.901.763-1.523 1.293-2.042 1.838-.111.816-.207 1.616-.207 2.66-.048.848-.204 1.274-.204 2.246.416.593.975 1.703 1.637 2.249.567.654 1.264.919 1.838 1.433.408.172.66.416 1.023.612l-1.023-.612c.408.172 2.204.519 2.567.715" fill="none"/><path d="M243.719 208.912c-.095 0-.681.682-1.227 1.227-.864.836-.932 1.389-1.431 2.658 0 1.263.008 2.107.819 2.862.487.883 1.245 1.678 1.838 2.453.707.686 1.017 1.242 1.433 2.045-.408-.599-1.216-1.258-1.841-2.249-.691-.497-1.356-1.399-2.249-2.045-1.216-.44-1.748-.581-2.861-.409-.943.628-1.931 1.079-2.66 1.84-.837.711-1.608.918-2.042 1.84-.657.469-.776.932-.819 2.045 0 1.306.289 1.868.615 3.065.554.962 1.033 1.87 1.431 2.456.321.262 1.378 1.703 1.539 1.539-.564-.339-1.836-1.558-2.766-1.746-.771.352-2.376.207-3.476.207-1.211 0-1.942.005-2.864.408-.821.313-1.775.736-2.657 1.431-1.099.379-1.727.797-1.838 2.045.18.993.62 1.166 1.431 2.045.895.943 1.722 1.942 2.861 2.657.509.736 1.775 1.669 2.249 2.249.58.265 3.6.201 2.472.201-.898.233-4.816.914-5.539 1.433-.906.866-1.11 1.661-1.227 3.068.074 1.269.408 2.31.615 3.476.517 1.057.67 1.86 1.227 2.657.44.678 1.491 1.68 2.045 2.045.882.358 2.238 1.025 3.272 1.431.546.199 1.468.416 2.246.612h-3.68c-.956.254-1.693.36-2.249.819-.845.283-1.046.742-1.634 1.227 0 1.121.119 1.756.615 2.453.132.895.633 1.764 1.227 2.249.479.76 1.205 1.423 1.838 1.841.824.718 1.189.885 2.045 1.227.927.125 1.746.477 2.657.612.464.384 1.664.615 2.249 1.023l-2.249-1.023c.464.384 1.664.615 2.249 1.023l1.028.31c-.954.146-2.413.188-3.481.713-1.457.448-2.898.742-3.476 1.634-.919.461-1.004.893-1.227 1.841-.085 1.184-.132 1.608.204 2.453.514.739 1.044 1.234 1.637 1.637.604.506 1.772 1.47 2.657 1.838 1.017.588 1.725.882 2.453 1.227-.975.162-1.989.204-3.068.204-.665.389-1.192.405-1.634 1.023-.683.498-1.131.978-1.227 2.045-.297.885-.101 1.494.408 2.453.636.479 1.335 1.144 2.045 1.634.736.344 1.891.781 2.861 1.023.331.132 1.507.204.411.204-.525.27-1.619.207-2.453.207-1.07.095-1.486.487-2.249 1.023-.654.652-.978.792-1.023 2.042 0 1.16.103 1.661.612 2.249.538 1.129 1.03 1.481 1.841 2.045.689.419 1.801.58 2.861.612 1.258 0 2.485-.029 3.68.207.517 0 4.546.673 4.623.617" fill="none"/><path d="M224.91 241.213c0 .061-.376.596-.612 1.227-1.02.771-1.038 1.452-2.249 1.634-.861.188-1.555.122-2.453 0-.366-.511-1.078-1.054-1.634-1.431-.464-.668-1.221-2.029-1.743-2.458" fill="none"/><path d="M226.659 248.365c-.05.31-.991 2.013-1.126 2.66-.776.779-1.915 1.976-3.068 2.66-.866.204-1.502.509-2.657.612-.97.313-2.17.204-3.272.204-.895-.207-1.534-.58-2.453-1.023-.395-.487-2.821-2.519-3.486-2.972" fill="none"/><path d="M225.546 251.094c0 .313-.458 4.707-1.025 6.678-.495.874-1.224 1.873-1.838 2.861-.657 1.102-1.041 1.703-2.249 2.249-1.359.511-2.707.615-4.294.615-1.015-.244-2.284-.885-3.476-1.227-.739-.503-1.719-1.105-2.453-1.637-.742-.612-1.627-1.168-2.048-2.045" fill="none"/><path d="M229.414 269.028h-.204c.554 0 .27-.013-.819.204-1.383.204-2.257.079-3.476-.411-.882-.307-1.934-1.107-2.861-1.838-.85-.821-1.627-1.589-2.249-2.045-.064-.676-.366-1.224-.819-1.634 0 1.03.093 1.918.207 2.861 0 1.152-.151 2.053-.411 3.068-.323 1.136-.774 1.558-1.634 2.453-1.224.254-2.307.408-3.68.408-1.476-.011-2.744-.249-4.09-.408-.739-.336-1.409-.683-2.045-1.023" fill="none"/><path d="M229.122 269.214c-.731 2.284-3.306 3.468-3.791 4.096-1.158.281-2.146.601-3.476.615-1.195 0-1.327-.05-2.045-.615-1.184-.395-1.56-.718-2.045-1.431 0-.273.069-.204-.204-.204" fill="none"/><path d="M231.665 281.294l-.204.204c.464-.464.241-.294-.204.819-.636 1.195-1.478 1.391-2.657 1.838-1.081-.162-1.502-.556-2.66-1.227-1.078-.604-1.894-1.64-2.657-2.657-.617-1.372-1.023-2.527-1.023-4.088-.283-.641-.381-1.425-.819-1.841v4.294c-.318.956-.36 1.703-.612 2.657-.17 1.245-.427 2.154-.819 3.068-.752 1.044-1.921 1.303-3.476 1.431-1.248.268-2.71.204-4.088.204-1.073-.127-1.717-.334-2.657-.612-1.083-.615-1.378-.803-2.249-1.841-.956-1.081-2.095-2.448-2.66-3.476-.323-1.144-.88-4.594-1.126-5.844 0-1.208.114 2.808.106 3.391-.297 1.831-.411 3.592-.411 5.521v3.269c-.212 1.354-.381 2.048-1.227 2.864-.591.662-1.698 1.486-2.249 1.838-.437.532-1.007.93-1.838 1.227-.898.493-1.756.697-2.66.819-.493.087-.837.389-1.227 0" fill="none"/><path d="M232.301 290.062c-.485.705-1.412 2.286-2.254 2.461-.895.472-2.286.408-3.68.408-.983-.225-2.016-.172-2.453-.819-1.584-1.062-3.036-2.278-4.294-3.68-.551-.707-1.078-1.542-1.433-2.249-.472-.162.058.472.207.819.744 1.094 1.234 2.196 1.431 3.476.262.978.262 2.281 0 3.065-.241 1.086-.562 1.857-1.431 2.66-.419.519-1.099.408-2.045.408-1.322-.167-2.379-.718-3.68-1.227-1.417-.837-2.011-1.081-2.657-2.453-.268-1.552-.427-3.176-.615-4.702-.026-.559-.04-2.813-.305-3.078-.291.76-.747 3.595-1.126 4.509-.241 1.314-.376 1.725-1.634 1.841-.668.326-1.589 0-2.66 0-.739-.252-1.216-.429-1.634-.819l-.615-.819" fill="none"/><path d="M234.95 292.526h-.204c.601 0 .238-.058-.411 1.02-.485.729-.636 1.624-.816 2.456.085 1.107.368 1.383.816 2.042 1.192.721 1.391 1.023 2.864 1.227 1.6.305 6.504-.106 8.101.201 1.256.18-3.547.925-4.013 1.025-.789.424-1.65.556-2.453 1.227-1.105.853-1.936 1.555-2.657 2.045-.207.789-.408 1.566-.408 2.657.278.697.652 1.327 1.023 2.045.755.795.988 1.253 2.042 1.637 1.621.058 3.221.191 4.906.204 1.637-.424 4.594-1.158 5.629-1.74.299 0-1.171.442-1.335.514-.686.342-1.364.866-2.249 1.634-.842.421-1.123.898-1.634 1.634-.532.683-.747 1.287-1.227 1.841-.143 1.052-.148 1.356.408 2.249.75 1.036.935 1.468 2.045 1.634.458.44 1.142 1.004 1.838 1.433.49.223 3.515.244 3.29.609-.996.072-4.684.387-5.333.821-.834.294-1.078.649-1.227 1.634.042 1.168.26 1.449.816 2.249.374.548.932 1.083 1.637 1.431.498.477 4.056 1.192 4.721 1.743.858.299-2.983-.31-3.698-.31-.58.289-1.764.204-2.66.204-.363.588-.832 1.144-1.227 1.838-.368.615-.085 1.33 0 2.045.535.575 1.274 1.799 1.637 2.453.673.458.834.861 1.838 1.227.413.453 4.154 1.889 4.829 1.952" fill="none"/><path d="M243.321 332.183v.207c0-.604.058-.241-1.023.408-.498.617-1.272 1.306-1.634 1.838-.191.919.034 1.378.408 2.249.546.44 1.269 1.322 1.637 2.045.951.869 1.597 1.388 2.042 2.045.617.185 2.842 1.136 3.492 1.539-1.155-.016-4.016-1.054-5.126-1.131-1.356 0-1.971.154-2.864.615-.368.599-.776 1.11-1.02 1.838-.254.718-.501 1.404-.615 2.249-.283.88.011 1.362.408 2.045.713.575 1.015.951 1.841 1.227.591.527 1.298.803 2.453.819.509.254 2.668.101 3.282.101-.707.461-2.885.906-3.69 1.126-.641.328-1.428.567-1.841 1.023-.442.691-.776 1.113-.819 2.246.342.856.861 1.648 1.841 2.456.909 1.025.999 1.229 2.249 1.634 1.06.49 5.412.048 6.57.098-1.025.154-5.515 1.404-6.57 2.151-.744.53-.784 1.129 0 1.838.503.898 1.081 1.362 2.045 1.637 1.11 0 1.584-.191 2.657-.204.943.111 4.405-.106 5.436-.106-.792.448-4.874.993-6.051 1.129-1.023.352-1.444.384-1.634 1.431 0 .943-.111 1.624.408 2.045.53.935.842 1.007 2.045 1.02.593.358 1.404.045 2.249 0h7.0760000000000005" fill="none"/><path d="M256.991 379.178c.617 0-6.321-8.867-9.158-7.929-1.306.223-2.154.241-2.657 1.227-.734.731-1.462 1.968-1.841 3.065-.098 1.107-.268 1.995 0 3.068.188.808.665 1.664.819 2.657.225.44.501 1.396.204 1.841-.146-.699-.352-1.134-.615-2.045-.241-1.555-.384-3.221-.612-4.702-.638-.482-1.401-1.242-2.249-1.841-1.152-.164-2.156-.196-3.068 0-.755.662-1.038 1.184-1.838 1.637-.657.217-2.337.363-3.274.408" fill="none"/><path d="M218.791 294.989l.819 1.023c.501.374.67.736 1.431 1.227.874.662 1.804 1.023 3.068 1.227 1.248.419 2.578.599 3.884.816 1.126 0 2.262.019 3.272-.204 1.171 0 1.775-.167 2.861-.204l.824-.31" fill="none"/><path d="M235.771 306.434v.207c0-.554-.013-.27.204.816 0 1.232-.191 1.563-.615 2.249-.893.646-1.891.85-3.065 1.227-1.505-.066-2.805-.334-4.09-.816-.991-.821-1.407-1.385-2.045-2.66-.665-2.024-1.205-3.582-1.227-5.725 0-1.181.032-2.082-.612-2.657-.313-.31-.344.532-.615 1.023-.09 1.229-.623 1.952-1.227 3.068-.744.718-1.616 1.55-2.657 2.249-1.076.238-1.452.421-2.453.204-.668-.792-1.592-1.778-2.045-2.249-.249-.956-.959-2.114-1.431-3.272-.44-1.099-.935-2.04-1.023-3.272-.411-1.131-.328-.975-.612.204-.599 1.295-.774 2.146-1.433 3.272-.856.665-1.64 1.253-2.861 1.637-1.428.215-2.36.109-3.68-.207-.996-.358-1.476-.797-2.045-1.634-.633-.623-.887-1.057-1.023-2.045-.416-.678-.866-2.146-1.227-3.065-.405-.493-.697-1.441-.819-2.249-.283-.233-.461-.668-.612-1.023" fill="none"/><path d="M242.818 310.301c-.029.395-.453 3.115-.922 3.897-.556 1.168-.766 1.589-2.045 1.634-1.269-.204-2.26-.842-3.272-1.634-.845-1.068-1.68-1.873-2.246-3.065-.615-.506-.548-.797-.408 0 .652.668.596.646.612 1.838v3.068c-.013 1.009-.164 1.717-.411 2.453-.387 1.081-.834 1.619-1.838 2.453-1.166.26-1.359-.164-2.249-.819-1.091-.442-1.518-.842-2.249-1.431-.58-.58-1.179-1.287-1.637-2.045-.109-.816-.204-1.616-.204-2.657l.824-4.509c-.156-1.25-.991 1.06-1.64 1.852-.527 1.009-1.197 1.796-1.841 2.249-.858.797-2.188 1.16-3.476 1.431-1.211 0-2.186-.185-3.272-.411-.713-.985-.962-1.539-1.431-2.453 0-1.274.185-2.146.408-3.269.215-1.065.501-2.895.514-3.995 0-1.11-.191 1.208-.514 1.746-.268 1.211-.548 1.274-1.431 2.042-1.06.143-2.114.207-3.272.207-1.24 0-2.368.109-3.476.408-.763-.268-1.166-1.343-1.634-2.249-.265-.795-.4-1.55-.408-2.657 0-1.054-.244-1.674-.411-2.453-.466 1.038-.887 1.121-2.042 1.227-.673 0-1.47.074-1.841-.207-.4-.654-.938-1.258-1.227-1.838l1.227 1.838c-.4-.654-1.865-2.699-2.154-3.28" fill="none"/><path d="M244.354 318.09c0 .196-.109 1.303-.204 1.841-.368.845-.49 1.611-.615 2.657-.011 1.012-.164 1.719-.408 2.453-.474.649-1.038 1.007-1.634 1.431-1.383 0-1.791-.127-2.864-.816-.895-.726-1.733-1.348-2.453-1.841-.585-.985-1.195-1.756-1.841-2.657l-.721-.721c-.416-.869.461.482.721 1.539.31 1.078.411 2.029.411 3.269-.037 1.306-.273 2.395-.411 3.682-.554 1.094-.575 1.332-1.838 1.431-1.335 0-2.609-.019-3.884-.204-1.258-.193-2.204-.54-3.272-1.227-.273-.713-.411-1.613-.411-2.66.016-1.245.305-2.291.411-3.476.437-1.192.604-1.947 1.023-3.065.334-.448.527-.932.612-1.637-.183 1.269-.858 2.164-1.227 3.272-.649 1.219-1.674 2.469-2.249 3.68-.779.747-1.06 1.044-1.838 1.431-.922-.138-1.343-.485-2.045-.816-.4-.588-.877-.93-1.227-1.841-.646-.911-.805-1.319-.819-2.657 0-.824.066-2.249 0-2.453-.085-.26-1.076-3.825-1.335-3.91" fill="none"/><path d="M216.142 314.805c-.318.204-1.658.588-2.657.612h-3.68c-1.195-.109-1.083-.559-1.433-1.431-.371-1.081-.546-1.966-.612-3.068-.177-.988-.694-1.083-.821-1.936-.588.381-.617-.117-1.632.098-1.407.215-2.535.514-3.886.816-1.264.175-2.405.395-3.68.411-1.189 0-2.122.114-2.657-.615-.342-.686-.397-1.637-.408-2.657 0-1.15.127-2.262.408-3.068.419-.776.959-1.603 1.634-2.249.384-.562.872-1.049 1.433-1.431.421-.62.948-.853 1.227-1.634.49-.405.736-1.033 1.023-1.637" fill="none"/><path d="M188.511 302.248c.366.085 3.084.689 3.69 1.129 1.004.559 1.396 1.195 2.042 1.838.323.683.538 1.306.819 2.249.156.779.204 1.817.204 2.864-.381.628-.742 1.674-1.023 2.453-.421.623-.797 1.03-1.634 1.431-.985.758-2.689 1.441-4.09 2.045-.943.111-1.831.204-2.861.204l-3.171.617c-.988 0-2.403-.127-3.065.204-.302 0-.156.048-.411-.204" fill="none"/><path d="M217.572 322.99c-.082 0-.644.657-1.227 1.02-.482.816-.683 1.293-1.227 2.249-.352.956-.538 1.693-.612 2.66v2.861c.011 1.073.204 1.547.204 2.657v5.725" fill="none"/><path d="M220.009 325.851c0 .411-.246 3.778-.003 4.509.066 1.24.416 1.934.819 2.861.638.495 1.486 1.632 2.249 2.453.615.617 1.237 1.001 2.249 1.227 1.184.236 2.125.411 3.065.207.771-.336 1.944-.996 2.864-1.433.419-.911 1.025-1.939 1.431-3.065.35-1.078.376-2.193.408-1.841.434.352 1.248 1.325 1.637 1.841.866.522 1.717 1.136 2.453 2.042.766.853 2.003.57 3.174.609" fill="none"/><path d="M222.473 340.766c0-.069 2.408 3.086 3.277 3.086.946.236 2.016.374 3.068.411 1.256-.016 2.22-.328 3.272-.819.85-.901.612-2.241.612-3.68v-3.068c-.024-.837-.281-1.494-.408-2.249.188 1.327.827 2.432 1.227 3.68.456.985 1.886 4.596 3.269 4.808.628.76 1.229.368 1.841-.514 1.107-.726 1.391-4.13 1.841-4.702 0-.575.148-.532.204-1.023" fill="none"/><path d="M222.049 348.528c0 .069 1.589 1.407 2.67 2.056 1.118.842 1.295 1.023 2.66 1.023.925-.175 1.295-.887 2.042-1.637 1.044-1.017 1.285-1.831 1.023-3.269-.04-1.115-.344-2.895-.612-2.45.472.617.911 1.518 1.227 2.04.421.623.721 1.06 1.634 1.227.538.456 1.314.747 2.249.819.495.371 1.131.244 1.431-.204.689-.31 1.203-.62 1.637-1.023.196-.649.538-1.049.816-1.634" fill="none"/><path d="M237.599 347.733v.204c0-.551-.013-.273.204.816.069 1.184.207 2.223.207 3.476-.297 1.227-.49 2.111-1.227 2.864-.694.347-1.921.188-2.864 0-1.234-.556-4.461-2.869-4.906-3.884-.302-.175 2.668 2.069 3.068 2.657.461.71.8 1.237 1.02 2.045.199.593.342 1.899.207 2.246-.17 1.115-.559 1.083-1.433 1.433-.885.22-1.86.204-2.861.204-.911-.125-1.423-.419-2.249-.615l-.31-.207" fill="none"/><path d="M241.493 356.713v1.023c-.238.943-.347 1.788-.615 2.453-.201 1.152-.697 1.203-1.431 1.841-.906.225-1.936.241-2.657 0-1.293-.774-1.966-1.187-2.864-2.249-.898-.898.384.514.819 1.227.707.625 1.126 1.07 1.227 2.249.244 1.221.291 1.738-.411 2.453-.506.726-1.272 1.094-2.453 1.431h-2.861c-1.081-.241-.975-.556-1.431-1.227" fill="none"/><path d="M244.46 362.859c.05.389-.016 2.114-.103 3.068-.792 1.317-.789 1.375-2.249 1.841-1.179.159-2.395.204-3.68.204-.864-.302-1.494-.882-2.045-1.841-.805-.604-.254.238 0 .819.427 1.107.787 1.828 1.023 3.068.072.845.519 1.105-.408 1.227-1.033.291-2.114.408-3.272.408-.893-.122-1.897-.095-2.662-.305" fill="none"/><path d="M237.387 369.721c.074.352.466 1.044 1.025 1.534.408.85.954 1.197 1.634 1.634.721.408 1.242.803 2.045 1.023 1.134 0 1.627-.215 2.453-.408 1.232-.421 1.272-.636 1.841-1.433.392-.638.686-1.081.816-2.042.294-.588.199-1.656 0-2.249-.082-1.081-.538-1.449-.816-2.249-.291-.098-.384-.819-.617-1.129" fill="none"/><path d="M209.386 315.626l-.204.204c.485-.485.286-.252-.819.411-.996.268-1.401.583-1.838 1.227-.932.514-1.579.972-1.841 2.045v2.861c-.223.744-.204 2.013-.204 3.068 0 1.11-.13 2.032-.204 3.065.143.668.54 1.624.31 2.254-.077-.893-.514-2.093-.514-3.07-.374-.543-.784-1.754-1.227-2.249-.591-.511-1.195-.736-2.249-1.023-1.089-.363-1.809-.225-2.453.408-.469.49-1.036 1.301-1.433 2.249-.223 1.123-.572 1.746-.612 2.861-.23 1.073-.408 1.722-.204 2.66v3.065l.207 3.174c-.13 1.513-.49-.236-.821-.721-.22-1.025-.442-1.86-1.023-2.453-.514-.62-1.364-.816-2.453-.816-1.044 0-1.627-.244-1.838.612-.302.604-.355 1.976-.411 2.864v5.7219999999999995c-.175-1.086-.599-1.579-1.227-2.453-.713-.821-1.282-1.038-2.657-1.227-1.335-.323-1.995-.199-3.068.411-1.028 1.004-1.706 1.346-1.838 2.453-.416.501-.503 1.438-.615 2.249v3.065c0 .57-.842-.62-1.431-1.431-.686-.943-1.094-1.184-2.249-1.227-.784.403-2.344.999-3.065 1.634-.522.421-.411 1.102-.411 2.045v2.864c-.056.71-1.118.71-1.634.204-.758-.374-1.754-.887-2.657-1.023-.779-.368-1.428-.453-2.045-.204-.318 1.033-.615 1.849-.615 3.065-.313.84-.408 1.454-.408 2.453" fill="none"/><path d="M214.499 322.381l2.676-.927c.572 0-2.612.901-3.698 1.335-.827.302-1.719 1.197-2.453 2.045-1.682 1.502-3.719 3.764-5.317 5.521-1.478 1.483-2.53 2.498-3.476 4.088-2.042 1.619-3.555 3.171-5.314 5.113-1.878 1.404-3.733 2.752-5.521 4.292-1.791.895-3.372 1.698-5.317 2.453-1.738.58-3.237 1.351-4.906 2.045-.887.691-1.396.991-2.453 1.431-1.611.925-3.452 1.634-4.702 2.453-.612.416-1.036.97-2.045 1.433-.644.752-1.489 1.06-2.453 1.634-1.118.403-2.305.797-3.68 1.227-1.417.485-2.297.89-3.68 1.431-3.759 1.317-7.603 2.827-11.449 3.476-1.102.403-2.213.736-3.271.819-1.552.562-3.479.588-5.111.819-1.047.276-2.361.609-3.271.816-1.051.289-2.08.535-2.862.819-1.051.122-2.226.421-3.067.615l-2.249.816c-.467.405-2.405 1.958-2.871 2.36" fill="none"/><path d="M185.068 316.845c.119.392.411 1.629.411 2.66-.167.975-.366 2.193-.819 2.861-.366.917-1.539 1.78-2.249 2.453-.821.18-1.555.347-2.453.615-1.054.077-3.444 2.384-4.609 2.469-.681.135-1.523.201-2.456.201-.291-.307-.389-.132-.816-.302.686.49.477.657.612 1.733 0 1.091.763 2.178.62 3.171-.252 1.208-1.295 2.676-2.14 3.152-1.033.641-1.942 1.036-3.068 1.433-1.007.034-1.815.204-2.861.204-.681 0-1.219-.037-1.637-.204" fill="none"/><path d="M195.902 310.513v1.2269999999999999c.268 1.34.464 2.276 1.431 3.272.683.917 1.775 1.634 2.861 2.249h3.068c.736-.127 2.376.127 3.179.103" fill="none"/><path d="M198.34 317.268l.413-.106c.511-.514-.339.045-1.436.922-1.232 1.046-1.762 1.507-2.045 3.068.016 1.174.265 1.51.615 2.249.257.911.755 1.754 1.431 2.249.273 0 .204.069.204-.204" fill="none"/><path d="M184.962 322.169c0 .098.959.501 1.332 1.023 1.044.665 2.371 1.849 3.68 2.657 1.274.424 2.458.119 3.68-.408.813-.215 1.415-.509 2.045-1.227l.207-.207" fill="none"/><path d="M188.75 325.454c-.538.951-1.351 1.521-1.433 2.657 0 1.046.138 1.944.411 2.657.381.707.829 1.82 1.431 2.453.374.612.758 1.129 1.227 1.431-.363-1.004-1.282-1.783-2.249-2.657-.376-.429-.819-.612-1.227-.204-1.049.074-1.762.336-2.453.615-1.15.4-2.114.932-2.861 1.431-.75.774-.819 1.2-.819 2.453-.098 1.298-.204 2.546-.204 3.884.315.26.379.453.408 1.023-.223-.858-.676-2.193-1.227-2.861-.49-.686-.845-.805-2.045-.819-1.038.191-1.001.702-1.634 1.227-.62.898-1.049 1.181-1.431 2.249-.498 1.166-.615 2.151-.615 3.476.273 0 .615 2.127.615 1.854" fill="none"/><path d="M179.531 325.454v.204c0-.546.04-.26-.615.612-.283.962-.408 1.494-.408 2.66.154 1.179.591 1.796.819 2.861.8.954 1.118 1.396 2.042 1.841.281.281.644.379.819.204" fill="none"/><path d="M173.809 332.792h-.204c.053.135 0 .911 0 1.431 0 .978-.082 2.008.204 2.864.204.832 1.356 1.147 1.846 1.637" fill="none"/><path d="M163.186 337.905l.411-.413c0-.57-.387.35-.819 1.436-.964 1.147-1.672 2.05-2.864 3.272-1.256.392-2.05 1.152-3.272 2.045-1.332.755-2.631 1.192-3.884 1.838-1.368.575-2.954.991-4.498 1.431-1.373.506-2.97.88-4.498 1.023-1.037.358-2.185.609-3.271.819-1.273.442-2.674.972-3.885 1.431-.943.326-1.464.514-2.249 1.023-1.23.424-2.429 1.242-3.68 1.841-.448.54-1.672 1.287-2.453 2.042-1.275.683-2.577 1.844-3.884 2.453-1.507.962-3.013 1.754-4.702 2.249-1.348.641-2.669 1.118-3.884 1.841-.919.625-1.861 1.523-2.862 2.249-.624.917-1.409 1.6-2.249 2.249-.662 1.224-1.744 2.164-2.658 3.065-.544.371-1.176.962-1.636 1.433-.628.646-1.231 1.224-1.84 1.634-.6.744-.938.999-1.84 1.431-.562.578-1.259.744 0 .819 1.169-.374 2.594-.376 3.884-.408 1.27-.276 2.746-.419 4.089-.615 1.14-.146 2.486-.371 3.884-.408 1.488.249 3.677-.4 5.316-1.023 1.342-.795 2.583-1.505 3.884-2.249.746-.519 1.392-.752 2.249-1.227.741-.201 1.438-.607 2.249-.819" fill="none"/><path d="M168.696 336.474c0 .252.085 1.465.204 2.045.395 1.264.919 2.233 1.838 3.065.713.419 2.186.307 3.378.307" fill="none"/><path d="M164.405 337.507c-.162 0-.101.482-.408 1.023 0 1.054.143 2.133.408 2.861 1.354.633 2.286.943 3.884 1.023.975-.074 1.523-.323 2.249-.612.638-.132-.215.493-.819 1.02-.856.858-1.242 1.584-.816 2.864.429.895 3.743 2.019 4.313 2.562" fill="none"/><path d="M160.113 341.799c-.207.954-.236 1.505.411 2.246.556.461 1.383.411 2.453.411 1.823-.098 3.486-.411 5.314-.411.861 0-.707.117-1.023.207-1.028.36-1.558.474-2.249 1.02-1.091.448-1.64.959-2.657 1.841-.411.609-.591 1.401-.204 2.045.403.593.911 1.02 1.634 1.431.766.593.948.922 2.045 1.023h.408" fill="none"/><path d="M157.358 343.653c-.095.387-.514 1.02-.514 2.04.085 1.089.35 1.38 1.023 1.838.559.461 1.385.411 2.453.411h1.227c-.583.342-1.499.448-2.042.816-.644.44-.959.845-1.227 1.841-.016 1.142-.196 1.56 0 2.657.445.834.694 1.449 1.227 2.249.4.588 2.432 1.783 3.182 2.048" fill="none"/><path d="M151.734 346.912c-.187.861-.121 1.555 0 2.453.483.54.849 1.24 1.431 1.634.576.477 2.399.188 3.483.201.861.024 1.338.204.204.204-.546.522-2.17 1.163-2.46 2.254-.294.588-.198 1.653 0 2.249.08 1.041.386 1.415.614 2.246.548.575.8.893 1.634 1.229l-1.634-1.229c.548.575.8.893 1.634 1.229v.204c-.109-.254-.183-.464-.408-.615" fill="none"/><path d="M145.093 348.448c-.49.729-.77.98-.513 1.939.535.747 1.094 1.536 1.84 2.045 1.187 1.078 7.618-.456 8.534-.318.278.281-7.793 1.592-8.329 3.383-.222.731-.304 1.952 0 2.864.014 1.174.264 1.51.613 2.249.282.593.488.996 1.227 1.227-.273 0-.204.066-.204-.207" fill="none"/><path d="M137.22 350.991c-.288.895.057 1.303.409 2.045.489.734 1.338 1.68 2.045 2.146.413.238 7.118-.313 6.995-.313-.752.262-6.887 1.844-8.018 2.461-.423.821-.409 1.518-.409 2.657.083 1.073.158 1.534 1.022 1.841.577.286 1.699.35 2.453.408l1.442.31" fill="none"/><path d="M131.498 353.349c0 .225-.333 1.205-.207 1.939.287.67.137 1.113.613 1.431.173.985.458 1.648 1.431 1.841 1.07 0 1.895.05 2.453-.411.842-.368 1.343-.689 2.045-1.02l-2.045 1.02c.842-.368 1.343-.689 2.045-1.02l3.809-1.134c-.629.458-4.674 2.103-5.444 2.36-.576.548-1.044.638-1.227 1.634-.121.898-.187 1.592 0 2.453.528.503.972.948 1.431 1.431" fill="none"/><path d="M127.201 356.104c-.106.236-.613 1.147-.613 2.042.1 1.097.428 1.282 1.022 2.045h2.862c.797.143 3.106-.827 3.998-.827-.896.196-3.135 1.404-3.589 2.053-.55.22-.55.548-.614 1.227-.317.53-.196 1.51 0 2.045l1.227 1.634" fill="none"/><path d="M122.091 358.965c0 .302.076 1.629.205 2.249.791.612 1.286 1.017 2.249 1.634 1.005.04 5.15-1.852 6.262-1.852.793 0-4.013 2.175-4.218 2.262-.412.67-.736.978-.818 2.045-.373.62-.114 1.552 0 2.246.327.506.659.755 1.227 1.023-.273 0-.205.069-.205-.204" fill="none"/><path d="M116.774 361.641l-.205 1.023c-.401.535-.051 1.036.409 1.433.587.789 1.527.98 2.453 1.227.914.162 1.845.204 2.862.204.773 0 3.703-1.923 4.107-2.265-.677.273-3.98 2.403-4.925 2.673-1.145.525-1.452.964-1.84 2.045.043 1.166.363 1.446.818 2.249.413.766 2.186-.061 2.871.395" fill="none"/><path d="M112.89 364.899v.204c0-.601.035-.262-.614.819-.207.951-.269 1.483.409 2.045.501.739.853 1.078 1.84 1.227.32.138 5.326-2.678 5.862-2.678-.806.551-6.443 3.801-6.884 4.723-.387.8-.409 1.476-.409 2.453" fill="none"/><path d="M107.576 370.224c0 1.07-.052 1.894.409 2.453.112.935 2.081.999 2.773 1.327" fill="none"/></g></g></svg>