<svg xmlns="http://www.w3.org/2000/svg" id="flag-icon-css-by" width="640" height="480">
  <defs>
    <clipPath id="a">
      <path fill-opacity=".67" d="M0 0h682.6v512H0z"/>
    </clipPath>
  </defs>
  <g fill-rule="evenodd" clip-path="url(#a)" transform="scale(.9376 .9375)">
    <path fill="#b20000" d="M0 0h1024v340.11H0z"/>
    <path fill="#429f00" d="M0 340.11h1024V512H0z"/>
    <path fill="#fff" d="M0 0h113.37v512H0z"/>
    <g fill="#b20000" stroke-width="1pt">
      <path d="M5.4 8.68h5.4v8.68H5.4zm16.19 0h16.2v8.68h-16.2zM26.99 0h5.4v8.68h-5.4zm26.99 0h5.4v8.68h-5.4zm21.59 8.68h16.2v8.68h-16.2zM80.98 0h5.4v8.68h-5.4zM16.2 17.36H27v8.68H16.2zm16.2 0h10.79v8.68h-10.8zm37.78 0h10.8v8.68h-10.8zm16.2 0h10.79v8.68h-10.8zm-75.6 8.68h10.8v8.68h-10.8zm27 0h10.8v8.68h-10.8zm27 0h10.8v8.68h-10.8zm26.99 0h10.8v8.68h-10.8zm10.8-17.36h5.4v8.68h-5.4zM5.39 34.72h10.8v8.68H5.4zm37.79 0h10.8v8.68h-10.8zm54 0h10.8v8.68h-10.8zm-86.4 26.03h10.8v8.68h-10.8zm5.42 8.68H27v8.68H16.2zm21.59-8.68h10.8v8.68h-10.8zm-5.4 8.68h10.8v8.68h-10.8zm-10.8 8.68h16.2v8.68h-16.2z"/>
      <path d="M26.98 86.78h5.4v8.68h-5.4zm37.8-26.03h10.8v8.68h-10.8zm5.4 8.68h10.8v8.68h-10.8zm21.59-8.68h10.8v8.68h-10.8zm-5.4 8.68h10.8v8.68h-10.8zm-10.8 8.68h16.2v8.68h-16.2z"/>
      <path d="M80.98 86.78h5.4v8.68h-5.4zm-27-8.67h5.4v8.68h-5.4zM0 78.1h5.4v8.68H0zm107.96 0h5.4v8.68h-5.4zM26.98 121.5h5.4v8.68h-5.4z"/>
      <path d="M21.59 130.17h16.2v8.68h-16.2zm-5.4 8.68h27v8.68h-27zm64.79-17.35h5.4v8.68h-5.4z"/>
      <path d="M75.57 130.17h16.2v8.68h-16.2zm-5.4 8.68h27v8.68h-27zm5.4 43.4h27v8.67h-27zm-10.79-34.72h37.8v8.68h-37.8zm-54 0h37.8v8.68h-37.8zm5.42 43.39h16.2v8.68H16.2zm-5.41-8.68h26.99v8.68h-27zm75.58-17.35h27v8.67h-27zm-5.39 26.03h16.2v8.68h-16.2z"/>
      <path d="M21.59 199.6h5.4v8.68h-5.4zm64.78 0h5.4v8.68h-5.4zM0 164.89h27v8.67H0zm48.59 17.35h16.2v8.68h-16.2zm5.39 8.68h5.4v8.68h-5.4zm-16.2-26.03h37.8v8.67h-37.8zm21.6-130.17h10.8v8.68h-10.8zM48.59 43.4h16.2v8.67h-16.2zM43.18 52.07h10.8v8.68h-10.8zm16.2 0h10.8v8.68h-10.8zM0 43.4h10.8v8.67H0zM5.4 52.07h10.8v8.68H5.4zm97.17-8.68h10.8v8.68h-10.8zm-5.4 8.68h10.8v8.68h-10.8zM0 130.17h5.4v8.68H0zm107.96 0h5.4v8.68h-5.4zM48.6 199.6h16.2v8.68h-16.2zM43.18 208.28h10.8v8.67h-10.8zm16.2 0h10.8v8.67h-10.8zm-21.6 8.67h10.8v8.68h-10.8zm27 0h10.8v8.68h-10.8zM32.4 225.63h10.79v8.68h-10.8zm37.78 0h10.8v8.68h-10.8zm-43.2 8.68h10.8v8.68h-10.8zm48.59 0h10.8v8.68h-10.8zM16.2 242.99h16.2v8.67H16.2zm64.78 0h16.2v8.67h-16.2zM91.77 234.31h10.8v8.68h-10.8zm5.4-8.68h10.8v8.68h-10.8zM102.57 216.95h10.8v8.68h-10.8zm-91.78 17.36h10.8v8.68h-10.8zm-5.4-8.68h10.8v8.68H5.4zM0 216.95h10.8v8.68H0zm21.59 34.72h5.4v8.67h-5.4zm64.78 0h5.4v8.67h-5.4zm-32.39-26.04h5.4v8.68h-5.4zm-16.2 26.04h5.4v8.67h-5.4zm32.4 0h5.4v8.67h-5.4zm-16.2 0h5.4v8.67h-5.4zm-53.98 0h5.4v8.67H0zm107.96 0h5.4v8.67h-5.4zm-53.98-121.5h5.4v8.68h-5.4zm-27-86.77h5.4v8.67h-5.4zm54 0h5.4v8.67h-5.4zm-32.4 60.74h16.2v8.68h-16.2zM37.79 112.82h16.19v8.68h-16.2zM43.18 121.5h5.4v8.68h-5.4zm-10.79-17.36h10.8v8.68h-10.8zM37.79 95.46h16.19v8.68h-16.2z"/>
      <path d="M43.18 86.78h5.4v8.68h-5.4zm16.2 8.68h16.19v8.68h-16.2z"/>
      <path d="M64.78 86.78h5.4v8.68h-5.4zm5.4 17.36h10.8v8.68h-10.8zM59.38 112.82h16.19v8.68h-16.2zM64.78 121.5h5.4v8.68h-5.4zm21.6-17.36h10.79v8.68h-10.8zM91.77 95.46h16.2v8.68h-16.2zM102.57 104.14h10.8v8.68h-10.8zM91.77 112.82h16.2v8.68h-16.2z"/>
      <path d="M97.17 121.5h5.4v8.68h-5.4zm0-34.72h5.4v8.68h-5.4zM0 104.14h10.8v8.68H0zM5.4 95.46h16.19v8.68H5.39zM16.2 104.14H27v8.68H16.2zM5.4 112.82h16.19v8.68H5.39z"/>
      <path d="M10.79 121.5h5.4v8.68h-5.4zm0-34.72h5.4v8.68h-5.4zm-5.4 69.43H27v8.68H5.39zm27 0H54v8.68h-21.6zm26.99 0h21.59v8.68h-21.6zm27 0h21.59v8.68h-21.6zm-43.2 17.35h27v8.68h-27zm-37.79 0h27v8.68h-27zm75.59 0h27v8.68h-27zm26.98 34.72h5.4v8.67h-5.4zM0 208.28h5.4v8.67H0zm5.4 295.05h5.4v-8.68H5.4zm16.19 0h16.2v-8.68h-16.2z"/>
      <path d="M26.98 512h5.4v-8.68h-5.4zm27 0h5.4v-8.68h-5.4zm21.59-8.67h16.2v-8.68h-16.2z"/>
      <path d="M80.98 512h5.4v-8.68h-5.4zM16.2 494.65H27v-8.68H16.2zm16.2 0h10.79v-8.68h-10.8zm37.78 0h10.8v-8.68h-10.8zm16.2 0h10.79v-8.68h-10.8zm-48.6-8.69h10.8v-8.67h-10.8zm27 0h10.8v-8.67h-10.8zm26.99 0h10.8v-8.67h-10.8zm10.8 17.37h5.4v-8.68h-5.4zM5.39 477.29h10.8v-8.68H5.4z"/>
      <path d="M43.18 477.3h10.8v-8.69h-10.8zm54 0h10.8v-8.69h-10.8zm-86.4-26.04h10.8v-8.68h-10.8zm5.42-8.68H27v-8.68H16.2zm21.59 8.68h10.8v-8.68h-10.8zm-5.4-8.68h10.8v-8.68h-10.8zm-10.8-8.68h16.2v-8.68h-16.2z"/>
      <path d="M26.98 425.23h5.4v-8.68h-5.4zm37.8 26.03h10.8v-8.68h-10.8zm5.4-8.68h10.8v-8.68h-10.8zm21.59 8.68h10.8v-8.68h-10.8zm-5.4-8.68h10.8v-8.68h-10.8zm-10.8-8.68h16.2v-8.68h-16.2z"/>
      <path d="M80.98 425.23h5.4v-8.68h-5.4zm-27 8.67h5.4v-8.68h-5.4zM0 433.9h5.4v-8.68H0zm107.96 0h5.4v-8.68h-5.4zM26.98 390.5h5.4v-8.68h-5.4z"/>
      <path d="M21.59 381.84h16.2v-8.68h-16.2zm-5.4-8.68h27v-8.68h-27zm64.79 17.35h5.4v-8.68h-5.4z"/>
      <path d="M75.57 381.84h16.2v-8.68h-16.2zm-5.4-8.68h27v-8.68h-27zm5.4-43.39h27v-8.68h-27zm-10.79 34.7h37.8v-8.67h-37.8zm-54 0h37.8v-8.67h-37.8zm5.42-43.38h16.2v-8.68H16.2zm-5.41 8.68h26.99v-8.68h-27zm75.58 17.35h27v-8.68h-27zm-5.39-26.03h16.2v-8.68h-16.2zM0 347.12h27v-8.68H0zm48.59-17.35h16.2v-8.68h-16.2zm5.39-8.68h5.4v-8.68h-5.4zm-16.2 26.03h37.8v-8.68h-37.8zm21.6 130.17h10.8v-8.68h-10.8zm-10.8-8.68h16.2v-8.68h-16.2zm-5.4-8.68h10.8v-8.68h-10.8zm16.2 0h10.8v-8.68h-10.8zM0 468.61h10.8v-8.68H0zm5.4-8.68h10.8v-8.68H5.4zm97.17 8.68h10.8v-8.68h-10.8zm-5.4-8.68h10.8v-8.68h-10.8zM0 381.84h5.4v-8.68H0zm107.96 0h5.4v-8.68h-5.4zm-64.78-78.1h10.8v-8.68h-10.8zm16.2 0h10.8v-8.68h-10.8zm-21.6-8.68h10.8v-8.68h-10.8zm27 0h10.8v-8.68h-10.8zm-32.39-8.69h10.8v-8.68h-10.8zm37.79 0h10.8v-8.68h-10.8z"/>
      <path d="M26.98 277.7h10.8v-8.68h-10.8zm48.59 0h10.8v-8.68h-10.8zm-59.37-8.68h16.2v-8.68H16.2zm64.78 0h16.2v-8.68h-16.2zm10.79 8.68h10.8v-8.68h-10.8z"/>
      <path d="M97.17 286.37h10.8v-8.68h-10.8zm5.4 8.69h10.8v-8.68h-10.8zM10.79 277.7h10.8v-8.68h-10.8z"/>
      <path d="M5.4 286.37h10.8v-8.68H5.4zM0 295.06h10.8v-8.68H0zm21.59-34.72h5.4v-8.68h-5.4zm32.39 26.03h5.4v-8.68h-5.4zm0 95.47h5.4v-8.68h-5.4zm-27 86.77h5.4v-8.68h-5.4zm54 0h5.4v-8.68h-5.4zm-32.4-60.74h16.2v-8.68h-16.2zm-10.8-8.68h16.2v-8.68h-16.2zm5.4-8.68h5.4v-8.68h-5.4zm-10.79 17.36h10.8v-8.68h-10.8z"/>
      <path d="M37.79 416.54h16.19v-8.68h-16.2zm5.39 8.68h5.4v-8.67h-5.4zm16.2-8.68h16.19v-8.68h-16.2zm5.4 8.68h5.4v-8.67h-5.4z"/>
      <path d="M70.18 407.87h10.8v-8.68h-10.8zm-10.8-8.68h16.19v-8.68h-16.2zm5.4-8.68h5.4v-8.68h-5.4zm21.6 17.36h10.79v-8.68h-10.8z"/>
      <path d="M91.77 416.54h16.2v-8.68h-16.2z"/>
      <path d="M102.57 407.87h10.8v-8.68h-10.8zm-10.8-8.68h16.2v-8.68h-16.2zm5.4-8.68h5.4v-8.68h-5.4zm0 34.72h5.4v-8.68h-5.4zM0 407.87h10.8v-8.68H0z"/>
      <path d="M5.4 416.54h16.19v-8.68H5.39z"/>
      <path d="M16.2 407.87H27v-8.68H16.2zM5.4 399.2h16.19v-8.68H5.39zm5.39-8.68h5.4v-8.68h-5.4zm0 34.72h5.4v-8.68h-5.4zm-5.4-69.42H27v-8.68H5.39zm27 0H54v-8.68h-21.6zm26.99 0h21.59v-8.68h-21.6zm27 0h21.59v-8.68h-21.6zm-43.2-17.37h27v-8.68h-27zm-37.79 0h27v-8.68h-27zm75.59 0h27v-8.68h-27zm26.98-34.7h5.4v-8.68h-5.4zM0 303.74h5.4v-8.68H0zm48.59-43.4h5.4v8.68h-5.4zm10.78 0h5.4v8.68h-5.4zm0-17.35h5.4v8.68h-5.4zm-10.78 0h5.4v8.68h-5.4zm-37.8 234.3h10.8v8.68h-10.8zm75.58-164.88h5.4v-8.68h-5.4zm-64.78 0h5.4v-8.68h-5.4zm27-8.68h16.19v8.68h-16.2z"/>
    </g>
  </g>
</svg>
