<svg xmlns="http://www.w3.org/2000/svg" xmlns:xlink="http://www.w3.org/1999/xlink" id="flag-icon-css-bz" width="640" height="480">
  <defs>
    <radialGradient id="a">
      <stop offset="0" stop-color="#ffef5d"/>
      <stop offset="1" stop-color="#ea5700"/>
    </radialGradient>
    <radialGradient id="b">
      <stop offset="0" stop-color="#952d1a"/>
      <stop offset="1" stop-color="#570a00"/>
    </radialGradient>
    <radialGradient id="c" cx="247.07" cy="238.33" r="35.95" fx="247.07" fy="238.33" gradientTransform="scale(1.22624 .8155)" gradientUnits="userSpaceOnUse" xlink:href="#a"/>
    <radialGradient id="d" cx="321.99" cy="152.95" r="10.58" fx="321.99" fy="152.95" gradientTransform="scale(.93615 1.06821)" gradientUnits="userSpaceOnUse" xlink:href="#a"/>
    <radialGradient id="e" cx="364.21" cy="237.79" r="36.03" fx="364.21" fy="237.79" gradientTransform="scale(1.2242 .81686)" gradientUnits="userSpaceOnUse" xlink:href="#b"/>
    <radialGradient id="f" cx="468.15" cy="156.13" r="10.74" fx="468.15" fy="156.13" gradientTransform="scale(.95596 1.04607)" gradientUnits="userSpaceOnUse" xlink:href="#b"/>
  </defs>
  <path fill="#ce1126" d="M0 0h640v480H0z"/>
  <path fill="#003f87" d="M0 34.28h640v411.43H0z"/>
  <circle cx="320" cy="240" r="188.57" fill="#fff"/>
  <circle cx="320" cy="239.04" r="156.3" fill="none" stroke="#552300" stroke-width="3.94"/>
  <path fill="#007f00" d="M301.94 73.2c14.14-15.18 26.92 2.34 26.58 10.55-.34 8.21-14.6 26.32-27.5 11.75 13.36 3.42 17.36-11.52 24.12-11.67-6.76.15-9.52-14.65-23.2-10.64zM154.8 192.11c-7.43-19.3 14.06-22.9 21.32-18.96 7.27 3.94 17.3 24.65-1.58 29.67 9.02-10.38-2.71-20.56.15-26.64-2.86 6.08-17.45 1.98-19.89 15.93zm317.15-19.09c19.36 7.59 7.53 25.75-.3 28.41-7.84 2.66-30-3.98-20.99-21.19 1.62 13.6 17.1 11.9 19.7 18.1-2.6-6.2 10.3-14.12 1.59-25.32zM218.8 377.41c-20.72-2.06-14.33-22.73-7.52-27.4 6.8-4.69 29.96-4.3 26.01 14.7-5.3-12.65-19.72-6.81-23.92-12.08 4.2 5.27-6.04 16.37 5.43 24.78zm209.33-14.96c.3 20.65-21.13 16.71-26.59 10.53-5.45-6.18-7.7-29.05 11.77-27.32-12.06 6.66-4.57 20.22-9.37 24.96 4.8-4.74 17.08 4.1 24.2-8.17zM169.9 152.87c-1.88-20.57 19.79-18.27 25.7-12.52 5.92 5.74 9.93 28.38-9.62 28.14 11.51-7.57 3-20.52 7.42-25.6-4.42 5.08-17.34-2.79-23.5 9.98zm22.2 193c-20.53-3.43-12.74-23.64-5.64-27.85 7.11-4.2 30.19-2.28 24.96 16.42-4.43-12.98-19.22-8.12-23.04-13.65 3.82 5.53-7.15 15.93 3.72 25.09zm162.2-271.83c18.64-9.2 24.32 11.69 21.06 19.24-3.25 7.56-23.06 19.46-29.9 1.29 11.26 7.9 20.35-4.65 26.72-2.41-6.37-2.24-3.66-17.05-17.88-18.12zm39.67 314.27c-9.24 18.51-26.5 5.3-28.5-2.68-2.01-7.97 6.5-29.34 23.03-18.98-13.8.47-13.37 15.93-19.81 17.96 6.44-2.03 13.3 11.38 25.28 3.7zm90.52-178.66c15.66 13.6-1.64 26.76-9.92 26.65-8.27-.12-26.9-13.77-12.58-26.96-3.08 13.35 12.08 16.9 12.42 23.6-.34-6.7 14.5-9.84 10.08-23.3zM221.5 100.84c4.68-20.13 24.54-11.23 28.36-3.94 3.81 7.3.5 30.04-17.99 23.75 13.31-3.62 9.3-18.56 15.1-22.02-5.8 3.46-15.6-8.02-25.46 2.2zm-61.56 172.5c-18.24-9.96-4.2-26.5 3.92-28.14 8.1-1.66 29.26 7.7 18.11 23.65.13-13.7-15.45-13.94-17.23-20.42 1.78 6.48-12.02 12.7-4.8 24.91zm263.55-159.6c20.6-2.96 19.43 18.64 13.96 24.8-5.47 6.17-28.03 11.35-28.82-8.04 8.22 11 20.8 1.89 26.15 6-5.35-4.11 1.88-17.34-11.3-22.76zM306.3 408.12c-19 8.42-23.82-12.67-20.25-20.09 3.57-7.41 23.85-18.5 29.94-.06-10.93-8.36-20.53 3.82-26.8 1.32 6.27 2.5 2.95 17.18 17.11 18.83zm170.53-115.24c8.59 18.82-12.65 23.7-20.13 20.19-7.5-3.5-18.76-23.58-.21-29.71-8.38 10.89 3.94 20.35 1.45 26.59 2.5-6.24 17.3-3.01 18.9-17.07zm-325.16-60.63c-11.94-16.92 8.02-25.6 16.04-23.53 8 2.06 22.82 19.73 5.73 29.16 6.2-12.24-7.66-19.28-6.38-25.87-1.28 6.59-16.44 6.13-15.39 20.24zm112.3 163.35c-19.54 7.13-22.9-14.24-18.84-21.4 4.06-7.16 25.05-16.86 29.87 1.95-10.34-9.08-20.74 2.43-26.83-.49 6.1 2.92 1.78 17.34 15.8 19.94zm-5.64-314.06c11.57-17.17 26.96-1.85 27.91 6.31.96 8.16-10.27 28.26-25.31 15.87 13.74 1.3 15.33-14.07 21.98-15.27-6.65 1.2-11.7-13-24.58-6.9zM458.5 333.71c1.25 20.63-20.34 17.66-26.07 11.73-5.74-5.92-9.05-28.67 10.49-27.83-11.74 7.21-3.64 20.42-8.2 25.36 4.56-4.94 17.24 3.32 23.78-9.26zm-5.31-194.43c20.4 4.08 11.98 24.03 4.74 28.02-7.24 3.98-30.24 1.32-24.42-17.2 4.01 13.1 18.95 8.72 22.6 14.37-3.65-5.65 7.65-15.7-2.92-25.2zm-258.43-14.54c.2-20.66 21.52-16.2 26.83-9.9 5.3 6.3 7.01 29.22-12.41 27.04 12.21-6.38 5.05-20.12 9.96-24.73-4.9 4.61-16.97-4.5-24.38 7.6zm-25.8 186.21c-18.58-9.33-5.1-26.33 2.94-28.26 8.05-1.92 29.5 6.72 18.92 23.03-.35-13.7-15.92-13.4-17.92-19.82 2 6.41-11.58 13.1-3.95 25.05zM392 91.01c19.48-7.3 23.02 14.05 19.02 21.24-4 7.2-24.92 17.07-29.9-1.7 10.42 9 20.73-2.6 26.84.27-6.11-2.87-1.92-17.33-15.96-19.8zm-41.34 314.8c-15.14 14.2-26.69-4.13-25.79-12.3.9-8.17 16.38-25.3 28.25-9.9-13.1-4.3-18.11 10.35-24.87 10.05 6.76.3 8.5 15.24 22.41 12.14zm132.71-158c14.21 15.1-4.33 26.46-12.55 25.53-8.22-.94-25.38-16.37-9.8-28.08-4.4 12.98 10.32 18.03 9.97 24.73.35-6.7 15.42-8.36 12.38-22.19z"/>
  <path fill="#005800" d="M301.02 95.5c13.36 3.42 16.71-11.34 23.47-11.5-3.94 4.72-14.23 16.73-23.47 11.5zm.92-22.3c14.14-15.18 26.92 2.34 26.58 10.55-11.47-20-15.06-16.91-26.57-10.56zm-127.4 129.62c9.02-10.38-2.83-19.9.03-25.98 2.5 5.6 8.8 20.08-.03 25.98zm-19.74-10.7c-7.43-19.3 14.06-22.9 21.32-18.97-23.15 1.35-21.95 5.9-21.32 18.96zm295.87-11.87c1.62 13.6 16.7 11.36 19.29 17.56-5.86-1.95-20.87-7.12-19.3-17.56zm21.28-7.22c19.36 7.59 7.53 25.75-.3 28.41 14.63-17.86 10.43-20.06.3-28.41zM237.3 364.71c-5.3-12.64-19.2-6.4-23.39-11.67 6.17.29 22.03 1.2 23.39 11.67zm-18.5 12.7c-20.72-2.06-14.33-22.73-7.52-27.4-9.17 21.13-4.53 22.11 7.52 27.4zm194.5-31.75c-12.05 6.66-4.23 19.65-9.02 24.38-.41-6.11-1.3-21.85 9.02-24.38zm14.83 16.79c.3 20.65-21.13 16.71-26.59 10.53 22.21 6.64 22.67 1.95 26.6-10.53zM185.97 168.48c11.51-7.56 2.7-19.92 7.12-25 .89 6.07 2.98 21.7-7.12 25zm-16.08-15.61c-1.88-20.57 19.79-18.27 25.7-12.52-22.65-4.93-22.74-.22-25.7 12.52zm41.52 181.56c-4.43-12.97-18.72-7.67-22.54-13.2 6.13.7 21.9 2.67 22.53 13.2zm-19.32 11.45c-20.53-3.45-12.74-23.65-5.64-27.86-10.58 20.48-6.02 21.77 5.64 27.86zM345.45 94.57c11.27 7.9 19.69-4.71 26.06-2.47-5.38 3.02-19.3 10.61-26.06 2.47zm8.84-20.53c18.64-9.2 24.32 11.69 21.06 19.24-3.57-22.74-8.03-21.12-21.06-19.24zm34.2 292.61c-13.79.47-12.8 15.57-19.24 17.6 2.44-5.62 8.9-20.03 19.25-17.6zm5.47 21.66c-9.24 18.51-26.5 5.3-28.5-2.68 16.7 15.97 19.27 12 28.5 2.68zm68.02-178.97c-3.08 13.35 11.88 16.27 12.22 22.97-4.86-3.78-17.24-13.67-12.22-22.97zm22.5.3c15.66 13.61-1.64 26.77-9.91 26.66 19.83-11.93 16.62-15.4 9.9-26.66zm-252.6-88.99c13.3-3.62 8.82-18.08 14.61-21.54-1.06 6.03-3.98 21.53-14.62 21.54zm-10.38-19.81c4.68-20.13 24.54-11.23 28.36-3.94-19.98-11.7-21.55-7.25-28.36 3.94zm-39.53 168c.13-13.69-15.12-13.36-16.9-19.83 5.57 2.66 19.8 9.68 16.9 19.84zm-22.03 4.5c-18.24-9.96-4.2-26.5 3.92-28.14-16.8 15.87-12.9 18.59-3.92 28.14zM408.63 130.5c8.22 11 20.18 1.62 25.53 5.73-6.06 1.2-21.67 4.1-25.53-5.73zm14.86-16.76c20.6-2.96 19.43 18.64 13.96 24.8 3.76-22.7-.99-22.55-13.96-24.8zm-107.5 274.23c-10.93-8.36-19.87 3.9-26.14 1.4 5.5-2.79 19.72-9.81 26.14-1.4zm-9.69 20.14c-19 8.43-23.82-12.66-20.25-20.08 2.63 22.87 7.15 21.43 20.25 20.08zm150.18-124.75c-8.37 10.9 4.03 19.7 1.54 25.94-2.84-5.44-9.99-19.53-1.54-25.94zm20.35 9.52c8.59 18.82-12.65 23.7-20.14 20.19 23.03-2.72 21.57-7.2 20.14-20.2zm-303.38-55c6.2-12.24-7.63-18.62-6.34-25.2 3.8 4.82 13.45 17.35 6.34 25.2zm-21.78-5.63c-11.94-16.92 8.02-25.6 16.04-23.54-22.13 6.9-19.85 11.03-16.04 23.54zM275 376.15c-10.33-9.08-20.08 2.56-26.17-.36 5.68-2.41 20.35-8.47 26.18.36zm-11.03 19.45c-19.53 7.13-22.9-14.24-18.83-21.4 1.06 23 5.67 21.86 18.84 21.4zm-3.03-291.88c13.74 1.3 14.73-13.8 21.38-14.99-3.16 5.27-11.43 18.73-21.38 14.99zm-2.6-22.18c11.58-17.17 26.96-1.85 27.91 6.31-14.48-17.97-17.54-14.37-27.91-6.3zm184.58 236.08c-11.74 7.2-3.32 19.82-7.9 24.76-.69-6.08-2.3-21.77 7.9-24.76zm15.59 16.1c1.25 20.62-20.34 17.65-26.07 11.72 22.49 5.62 22.73.92 26.07-11.73zM433.51 150.1c4.01 13.1 18.46 8.26 22.1 13.91-6.1-.89-21.8-3.36-22.1-13.91zm19.68-10.82c20.4 4.08 11.98 24.03 4.74 28.02 11.24-20.14 6.72-21.57-4.74-28.02zm-244 2.59c12.21-6.38 4.7-19.55 9.6-24.17.27 6.12.78 21.89-9.6 24.17zm-14.43-17.13c.2-20.66 21.52-16.2 26.83-9.9-22.04-7.16-22.61-2.48-26.83 9.9zm-3.94 180.98c-.35-13.7-15.57-12.84-17.57-19.25 5.65 2.47 20.11 9 17.57 19.25zm-21.87 5.23c-18.57-9.33-5.1-26.33 2.95-28.26-16.23 16.44-12.26 19.02-2.95 28.26zm212.17-200.4c10.42 9 20.06-2.73 26.18.14-5.65 2.47-20.28 8.64-26.18-.14zM392 91.01c19.48-7.3 23.02 14.05 19.02 21.24-1.26-22.98-5.86-21.81-19.02-21.24zm-38.88 292.6c-13.1-4.3-17.45 10.21-24.2 9.91 4.25-4.44 15.35-15.75 24.2-9.91zm-2.46 22.2c-15.14 14.2-26.69-4.13-25.79-12.3 10.08 20.71 13.87 17.87 25.8 12.3zm110.36-160.55c-4.4 12.98 10.18 17.38 9.84 24.08-4.45-4.25-15.77-15.32-9.84-24.08zm22.35 2.54c14.21 15.1-4.33 26.47-12.55 25.54 20.94-9.9 18.1-13.68 12.55-25.53z"/>
  <g fill="#730000" stroke="#000" stroke-width=".49">
    <path d="M349.05 120.33s.58-1.37 1.66-.59c.98.78 1.27 4.2 1.27 4.2l-1.56.78s.88-1.27-1.37-4.4zM340.17 151s.78-1.08-.3-3.42l1.57-.49s.58 1.85-.2 3.91h-1.07m27.05-5.38l-3.7 2.25 1.85.88 4.49-2.64-2.64-.49m-49.72 14.56c-.97.78-1.07 2.15-1.66 2.93-.48.78-1.95 1.85-2.05 3.02-.2 1.17-.29 1.96.2 3.52.58 1.56 3.02 8.5 2.05 13.77-1.08 5.28-.68 7.52-.3 8.3.4.79 1.57 2.94 2.25 2.94 1.57-.2.88-.69 1.47-1.66 1.46-2.54 0-22.18-.69-27.65-.48-4.2-2.44-8-2.63-8.4-.2-.49-.59-1.76-.88-2.54-1.46-3.52-3.22-6.54-3.22-13.87 0 0-4.79 1.07-8.89-8.2-2.15-4.7-5.28-4.2-8.98-5.77l1.65-1.08s3.13 1.57 4.7 1.57c1.56 0 1.07-3.13 1.07-3.13l1.56-1.56v6.84c0 3.12 4.3 7.42 6.84 8.7 1.56.77 3.61-2.45 3.12-5.58-.48-3.12 0-7.32 0-7.32l2.15 1.27s-.78 1.36-.58 2.15c.29.78 1.36-.78 2.14-1.57 0 0 .2.2.98.2 0 0-1.56 2.63-2.34 4-.78 1.27-.78 6.26-.78 8.11 0 1.86.68 6.16.68 7.52 0 .98 1.86 4.98 3.33 7.43.48.97 1.65 3.51 1.65 3.51 1.18 1.86 1.27 3.13 1.96 4.7.39.77 1.07 3.02 1.56 6.93.2.98.39 4.69.69 7.13.29 2.34 2.24.49 4.58-1.17 2.35-1.76 2.35-5.96 2.35-5.96s1.85-1.56 1.56-.68c-.2.97.98 1.95.98 1.95-1.46 3.32-.59 2.93.88 2.83 1.46-.2 6.54-4 6.54-4 .68-.2 3.71-.2 3.22 0-.58.29-1.36 1.76-1.36 1.76l3.32-.4c-1.17.88-5.57 3.42-6.54 4a90.59 90.59 0 0 1-8.6 4.11c-2.25.98-6.64 3.13-6.84 5.37-.1 2.25.3 8.3 0 10.26-.2 1.95-.97 10.65-.97 10.65h-10.45s2.05-7.62-.1-9.67c-2.05-2.15-6.84-8.4-9.97-10.55-3.12-2.05 2.05-.49 2.05-.49v-2.15l4.79 5.77s8.3-7.33 0-17.3c-2.64-3.12-5.28-7.9-7.33-8.4-2.14-.58-3.22-1.07-6.83 0-3.71 1.08-12.6 1.08-16.31-4.78l3.12-.5 2.64-1.07s-1.08 3.72 6.35 3.72c7.32 0 8.4 0 7.8-6.84l2.16-1.08 1.56 1.57s-1.07 3.71-.49 5.27c.5 1.56 3.13 2.64 5.18 4.2.88.69 1.56.78 2.15.78.88-.1 1.07-.1 2.24-1.27 1.76-1.95 1.37-1.85 3.13-3.41 0 0 .88-1.37 1.08-1.57l1.07 2.84z"/>
    <path d="M319.07 155c.39-.39 1.17-1.85 1.85-3.12 1.18-1.96 2.54-3.13 4.1-5.57 1.47-2.25 2.06-5.57 1.47-7.91l1.37.78.1 3.71s1.85-1.56 2.64-1.95l.78.39s-5.86 6.05-11.33 15.82l-.98-2.15zM267.7 134.7c.78 1.36 1.56 4 3.9 6.05l1.57-.49s-3.61-4.2-3.61-6.05l-1.86.49m9.18-2.35s.48 4.98-.78 6.83l1.56-.77s1.07-3.42.78-5.28l-1.56-.78zm51.47-15.73s-.3 7.03 1.08 11.33l1.85-.58s-.3-1.28 1.27-1.86c1.56-.49 5.27-2.05 7.13-3.62l-.59-1.56s-2.83 2.25-4.2 2.83c-1.26.5-2.05 1.08-3.12.79-1.08-.3-2.34-2.06-1.56-6.06l-1.86-1.27m20.7 32.82s-.49 4.98-.2 7.13l1.67.4s-.4-5.96.68-6.45l-2.15-1.08m7.43 3.72s-1.86 3.22-4 3.52l3.41-.69s.98-.49 2.45-2.05l-1.86-.78"/>
  </g>
  <g fill="#289400" stroke="#030" stroke-width=".49">
    <path d="M326.6 138.4l1.26.77 1.37.2s1.46 1.37 3.13 2.63c1.26 1.08 1.26-.19 1.26-.19l.78 3.13h1.08s-.3 2.05-.3 3.12l1.86-1.56 2.15 1.86s1.56-1.37 2.34-1.37c.78 0 1.08-.78 1.08-.78h.1c-5.18-2.44-7.42-4.98-5.86-7.62 2.54-4.4 6.74-1.56 8.1-.98l18.95 10.16s1.27-.78.39-1.56c-.98-.78-1.37-2.74-1.08-3.52.3-.78 2.45 2.44 3.52 2.74 1.07.29 3.51.68 3.51.68l-.1-.98s3.13 2.15 3.13 3.23c0 0 2.25-1.18 1.47-1.86-.78-.68 3.42 1.66 3.7 2.93l.89-.98c-.1 0 .29-3.12 1.36-4.59a4.8 4.8 0 0 1 2.05-1.85s.98-1.67 1.96-1.67c0 0-.98-.68-1.37-1.46-.49-.78-1.66-1.17-1.66-1.17s1.46-1.07 1.86-1.56c.39-.59.78-.69.78-.69s-2.25-1.85-3.81-2.15c0 0-.1-2.54-2.05-2.73h.88s-1.47-2.74-2.84-2.83c0 0 .88-.98 1.66-1.08 0 0-1.66-2.15-3.9-1.36l1.46-.59s-1.07-1.17-4.4-.58c0 0 .3-1.37-1.16-2.45 0 0-1.27.1-1.27 1.08 0 0-1.17-1.08-2.64-1.08-1.46 0 .49 1.57.49 1.57s-1.95-1.27-3.13-.88c0 0 .5-2.25-.78-3.42 0 0-1.46.78-1.85 1.76l-.4-.98s-1.95 2.34-2.34 1.66c-.29-.4-.58-2.05-.58-2.05l-1.17 1.76.2-2.44s-1.37.78-2.45 3.32c0 0-1.37 1.27-1.37 2.44 0 0-1.07-1.27-2.05 0-.88 1.36 0 1.07 0 1.07s-.39.49-1.37.68l.2.78s-1.27-.68-2.24-.38l.48 1.17s-2.54.2-2.63-1.86c0 0-2.15-1.07-2.45.1l-1.56.98s-.49-.98-1.37-1.17c-.97-.3-.2 1.26-.2 1.26s-.28-1.17-1.46-1.76c-1.17-.48-.2 1.08-.2 1.08s-1.55-1.27-.77-2.24c0 0-1.47 1.36-.78 2.63l-.98.69s-.49-.5-.4-.88c.1-.4-1.65 1.17-1.65 1.17s-1.08-2.54 0-2.54c.1 0-1.86-.1-2.15 2.15 0 0-1.27.1-2.44.48-1.27.4.88 1.28.88 1.28s-1.86-.4-2.93.2l.68.87s-.68-.68-2.34-.1c-1.76.49.39.78.39.78s-1.76-.39-2.64 0c-.88.4.3 1.08.3 1.08s-3.23-.98-3.72-.68c-.48.29 1.08 1.85 1.08 1.85s-1.96.49-2.35 1.96l1.76.68s-.78.39-1.17 1.17c-.39.78 1.17.39 1.17.39s-2.15 1.56-2.15 2.73c0 0 1.57.5 2.74-.68 1.17-1.17.39-.78.39-.78l.1.78s2.24-.97 2.24-1.56c0-.49-.39.78-.39.78l2.25-1.17 1.46.98z"/>
    <path d="M324.73 107.92l-.49-2.15 4.98.59.88-2.05s2.35 1.07 3.13 1.85c0 0 4.59-1.17 5.96-.68l-.59 2.15s4.2.29 5.57.78c1.27.49-.59 1.56-.59 1.56s4.79.59 6.84 1.86c2.15 1.27 2.15 2.34 1.08 2.63l2.63 4.2s-4.2.5-4.98 1.56c-.78 1.08-1.56-1.07-1.56-1.07l-.78 2.93s-2.64-1.37-3.71-2.34c0 0-1.27 1.56-.5 2.34l-4.78-3.12s-2.05-.3-2.05 1.56c0 0-2.34-2.64-2.93-3.42l-2.64.78s-.78-1.07-1.75-1.37c-1.08-.19-.3 1.37-.3 1.37l-1.56-1.85-1.56-1.86s-1.37 1.86-2.44 1.86c-.98 0-.98-1.27-.78-2.15.29-.78-3.13-.98-3.42 0 0 0-.98-3.9 2.63-4.98l3.71-.98zm-18.94 13.39l-1.66 1.56-.98-.49-1.95 2.15-.39-1.17-1.07 1.75-1.66-.58-.78 1.27-1.47-.3s-1.27 1.18-2.05 1.47c-.78.2 0-1.76 0-1.76s-1.17 1.96-2.05 1.96c-.78 0-.49-.88-.49-.88s-.49 1.26-1.46 1.46c-.88.1-.5-.97-.5-.97l-1.56 1.17v-.98l-.68-.3s.39-1.75 1.08-2.14c.68-.4-.69-1.56-.69-1.56l.69-.78s-1.96-.5-1.96-.1c0 0 .98-2.64 2.34-3.13l.1-2.93s1.37-1.17 2.64-1.27c1.37-.2-.39-2.25-.39-2.25l3.13-1.85.39-2.24 4.78.38.98-2.05 3.8.98 3.23-1.66 2.34 2.73 3.52.3s-.1 2.44-.1 3.12c0 0 4.2 1.27 4.69 1.66 0 0-.78 2.54-.78 3.03 0 0 2.93-.78 3.8-.58 0 0 .3 2.73.4 3.41 0 0 4.98 1.57 5.27 2.45 0 0-1.07.68-1.66 1.56 0 0 .58 3.03.58 4l-.39.59s-1.46-1.37-2.63-1.56l-.98 2.15-1.76-1.18-1.07.1s-.88-1.07-1.57-1.07l-.1-.98-1.36.88s-2.15-1.08-2.15-1.76c0-.58.1-1.56.1-1.56l-2.25 1.56s-.48-1.17-.39-1.66c.1-.49-.87 1.17-.87 1.17s-1.18-2.05-1.08-2.44l-.3 1.66s-2.34-.78-2.63-2.34z"/>
    <path d="M274.53 130.88s4.1 2.05 4.1 3.03c0 0 1.08-2.15.5-2.93l1.56 1.07s.49-1.95-.1-2.54c-.49-.49 3.51-2.14 4.4.5 0 0 2.44-2.55-2.25-4.7 0 0-.4-1.56 2.44-1.17 0 0-.2-.98-.88-1.37h2.74s-1.66-1.37-4.1-1.75c-2.35-.4-.89-.69-.98-1.18-.2-.49 0-2.25 0-2.25s-1.37-.48-2.45.1l.4-.49s-2.55-.68-3.52-.1c0 0-1.47-.58-1.27-2.14 0 0-1.47-.1-2.15 1.46 0 0-1.37 1.56-3.22 1.56-.39 0-1.76-.78-1.76-.78l-1.17 2.74-1.86-.1.59 1.07s-2.83-.78-3.71 0c0 0 1.07 1.67.78 2.84 0 0-2.25.39-2.74.78-.58.38.78.68.78.68s-2.54.78-3.12 1.56l.98.78-1.18 1.57.98.2s-1.66.48-2.54.77c-.88.3 1.56.5 1.56.5l-1.17 1.06 1.86.3s-1.46 3.9-1.56 5.76c0 0 2.24-2.73 2.83-2.93l-1.76 2.93s3.32-1.07 3.62-1.56c.29-.59.58-1.08.58-1.08l.1 1.66s1.27-1.75 1.46-2.44c.1-.68 2.05.69 2.05.69V134s1.76.58 2.35.68c.68.1.78-.3.78-.3l1.66-.19-.3 1.37s1.18-.78 1.47-1.56c.2-.79.78 0 .78 0l.78-3.13h1.66zm-13.38 13.87l1.57 3.22c-1.28.1-3.13 1.56-3.13 1.56.3 5.38-1.07 5.08-1.07 5.08.38.98-.25 2.8-.25 2.8l7.77-4.65.1-.49 9.17-4.3.3.49 2.63-1.47 1.86 4.89-1.86 1.07c.1 1.66 2.06 4.6 2.06 4.6l2.44-.6 2.63-.97s.1 1.46.1.98c0-.4 2.83-1.37 2.83-1.37l1.27 1.27c.98-.1 2.74-2.44 2.74-2.44l2.05.78s.68-1.17.68-2.05c0-.78 2.54-.78 2.54-.78l1.76 1.27 2.25-1.86s.68 1.37 1.56 1.56c.98.1 3.42 1.96 3.42 1.57 0-.4 1.07-2.54 1.07-2.54l4.1 1.66c-.58-1.86-1.95-4.1-1.95-4.1s1.95-1.56 1.56-1.96c-.38-.39-1.56 0-1.56 0l1.17-2.34h-1.56l.49-.58-2.54-1.08 1.36-2.73c-.58-.69-7.32-2.05-7.32-2.05l1.56-1.47s-.78-1.17-1.56-1.17-4.88.1-5.08-.3c-.1-.38-1.76-1.85-1.76-1.85l-2.54 1.86-1.27-.4-2.24.89s0 1.26-.3.39c-.29-.79-2.34-2.84-2.34-2.84-.39.68-3.03 3.81-3.03 3.81s-.39 1.66-1.27.49c-.97-1.17-3.02-2.44-3.32-1.46-.29 1.07-2.14 2.05-2.54 1.75-.39-.3-2.54-.1-2.73.5-.1.67-2.45 2.43-2.45 2.43-1.46-.68-3.8-.29-3.8-.29s-.69 1.08-.79 1.95l-4.78 1.27zm44.15 39.56v-2.05l2.34 1.56 1.37-1.56 1.76 1.76 1.08-1.76v2.83l2.63-2.34 1.56.68v-2.24s1.86-3.13 1.08-3.72l1.56-.48s-2.64-2.64-3.42-3.13c-.78-.59-1.85-.59-1.85-.59s-2.05-2.05-3.42-2.63c-1.27-.5-2.05.58-2.05.58s-.78-1.56-2.15-1.86c-1.27-.29-1.27 1.08-1.27 1.08s-.98-.98-2.24-1.47c-1.27-.58-.4 1.18-.4 1.18l-4.49-1.37.58 1.37-4.2-1.07.5 1.56-2.94-.5-.2 1.28-4.2.78.79 1.36-2.64-1.07v1.86l-2.93 1.07 1.08.98s-3.9 1.86-4.7 2.44c-.77.49 1.57 1.56 1.57 1.56l-4.2-.58 1.57 1.37-3.71 3.42 2.63 1.85-1.56 2.34 3.9.78 1.57 2.64 3.22-.58v2.93l4.69-3.72s3.42 3.03 3.71 2.15c.2-.78.2-3.42.2-3.42h1.66v-2.63l1.26 1.07 2.15-3.13 2.83 3.91 2.15-4.98 3.13.49zm19.14-11.82l-.48-4.49-1.37 1.37.58-4.2-2.14-.4.78-4.1-1.56-.78.38-1.95 1.57-1.17 2.83-2.74 6.54.1.78-2.15 4.7.79c.77.88 3.21-1.76 3.21-1.76h.98l1.07 2.05s3.42-.5 4.98.58l-1.85 2.54 3.42.3 2.34.48 2.44-.78 3.13-.2.78 1.27h2.93l-.98 1.17 3.81 1.76-.78.79s2.15.78 3.71.78h.78s.78 1.85-.3 2.63c0 0 1.08 2.64 3.43 3.13 2.34.49 2.34.49 2.63 1.07.3.5 0 3.13-2.63 3.13v2.64s-2.05 1.85-2.35 2.63l-1.56-1.07s-1.37 1.56-1.37 2.64c0 0-3.42-4.5-4.69-4.7-1.36-.28-1.07 2.55-1.07 2.55l-3.7-3.13-.5 2.15-3.12-2.64-1.86 1.27-3.32-3.42-3.22.4 1.26-1.67h-3.9l-.78-3.41-.59 2.83-2.34-1.56-3.03 3.32s-.39-.4-.88-1.96c-.48-1.56-1.85 1.86-1.85 1.86L330.2 168l-1.27 2.44s-1.07-1.86-2.15-2.44c-.97-.5-2.05 2.92-2.34 4.49zm.59 10.26l.2-1.56 5.56-2.15 4.7-1.76 2.33-1.08 1.08 1.86 1.36-2.64 2.15 2.74 1.17-1.47 1.86 1.37H347l.3 2.05s3.9.3 4.2-.49c.29-.78.78 2.64.78 2.64l3.7.49.79 4.2s1.85 3.9 1.27 5.47c-.5 1.66-2.06-2.05-2.06-2.05s-.29 2.93-.58 3.7c-.2.79-4.98-.77-4.98-.77l-2.05 3.9s-2.15-3.12-3.13-3.12c-1.07 0-1.07 3.12-1.07 3.12s-3.13-3.7-4.5-5.27c-1.27-1.56-1.56 1.56-1.56 1.56s-2.05-3.42-2.05-4.4c0-1.07-1.86-2.14-1.86-2.14s-3.22 3.7-5.57 4.69c0 0 .3-2.35-.48-3.13-.78-.78-3.13 1.56-3.13 1.56s-1.66-3.61 0-7.32h.01z"/>
  </g>
  <g fill="none" stroke="#004b00" stroke-width=".49">
    <path d="M350.82 124.52l.48 1.96s1.76-.4 2.93-.3c0 0-.29 1.56-.68 2.25 0 0 2.34-.4 3.42.3l-.49 1.16 2.74 1.17-2.54 2.05s4.1 1.47 4.88 2.64c0 0-2.64 1.86-3.03 1.76-.39-.2-.1.78.59 1.66l-2.25-.1s.88 2.06.78 2.83c-.1.79-3.7.59-3.7.59m14.05-5.27s.68-3.9-.39-4.88c0 0 2.54 2.15 4.2 2.24 1.76.1-.1-3.22-.1-3.22s2.44 1.27 3.62 1.56c1.17.2-.88-2.44-.88-2.44s.68-1.27 2.63-.1m-45.4-15.53s.09-.87-.3-1.36c-2.34-3.23 2.44 2.44 3.42 2.64m4.49 0s1.56 1.16 2.34 1.16c.78 0-.49-3.12-.88-3.51-.39-.4 2.83 1.27 4 1.46 1.18.3 1.37-1.95 1.37-1.95s3.62.58 4.4 1.07m-25.1-.68s-.3-2.05-.4-2.93m-24.21 12.7c-.2-.39.98-2.14.49-2.93 0 0 .68.6 1.37.69.58.1.38-2.25.38-2.25l.79.3s2.05-.98 1.66-1.77c-.4-.78 1.36 1.17 1.36 1.17s1.18-1.17 1.18-1.65c0-.5 1.36 1.17 1.36 1.17s1.46-.3 1.46-1.17c0-.88 1.86.29 1.86.29s.78-1.08.68-1.76m-19.72 9.77s.87-2.05-.1-3.42m-23.63 9.86c.1-.97.58-3.61.1-4-.5-.4.97.39 2.14.68m9.28-.38c-1.18-1.18-1.86-1.76-3.71-1.76m-16.12 8.3c.3-.69.78-2.35.49-3.33m25 51.77l1.27-2.63 1.56 3.7 1.08-2.34.39.79 2.34-2.54 2.54 3.8m40.73-16.5l1.66-3.32 2.25 1.17 1.07-3.22 2.35 1.46 1.36-3.02 2.64.68.2-2.15s1.85 1.07 2.34 1.86c.58.78 0-2.64 0-2.64l2.15.98s1.56-1.57-.59-2.45"/>
    <path d="M343.59 163.11l2.34 3.42 1.95-2.24 1.76 3.8 2.25-1.36 3.22 1.85 1.46-1.17 3.52 2.54 1.46-3.02 3.13.97 2.05-3.51m-84.38-9.19s1.37-2.34.88-3.42c-.59-1.07 2.83 1.86 2.83 1.86s.78-2.35.3-3.42c-.6-1.07 3.9 3.13 3.9 3.13s.78-3.62 0-4.4c-.78-.78 4.3 1.08 4.3 1.08s2.05-.59 1.27-1.67c-.79-1.07 3.41 1.57 3.41 1.57s.98-2.64 0-3.62c-1.07-1.07 3.13 1.27 3.13 1.27l-1.56-2.83 3.41.2-.29-3.13m30.28 45.12l2.24-1.07 1.96 1.95 2.15-3.42 2.63 2.54.4-2.54 2.82 1.18.6-1.57 3.12 1.66.29-2.34 1.56.49.3-1.57"/>
  </g>
  <path fill="#9dd7ff" d="M283.13 298.1a69.84 69.84 0 0 1-5.96-12.98l42.29-37.22 42.29 37.12a64.68 64.68 0 0 1-6.15 13.29l-.34.54-3.18-1.23s-1.37 1.27-2.44 1.37c-1.46.2-2.73-1.27-2.73-1.27s-1.86 1.56-3.72 1.27c-1.85-.2-2.63-1.37-2.63-1.37s-1.96 1.56-3.32 1.27c-1.27-.3-2.15-1.17-2.15-1.17s-1.17 1.46-2.84 1.17c-1.56-.3-3.02-1.17-3.02-1.17s-2.44 1.07-4 1.27c-1.57.3-2.94-1.37-2.94-1.37s-2.05 1.36-2.83 1.36c-.78 0-3.7-1.36-3.7-1.36s-3.04.98-4.1.98c-.99 0-4.01-1.27-4.01-1.27s-2.84.78-4.1.78c-1.37 0-3.32-.78-3.32-.78s-2.34 1.07-3.62.78c-1.37-.3-2.44-.78-2.44-.78s-2.54 1.07-4.2.78c-1.56-.3-3.42-1.37-3.42-1.37s-.3.78-3.32 1.37h-.1"/>
  <path fill="#fff" stroke="#000" stroke-width=".68" d="M319.46 205.11v42.79l-42.29 37.41a84.15 84.15 0 0 1-4.4-27.15V205.1h46.7"/>
  <path fill="#ffd83c" stroke="#000" stroke-width=".68" d="M319.46 205.11v42.79l42.2 37.41a84.2 84.2 0 0 0 4.39-27.15V205.1h-46.59"/>
  <g stroke="#000" stroke-width=".49">
    <path fill="#730000" d="M292.18 289.22c3.18 1.72 2.1 1.18 8.7 3.51 5.37 1.86 11.61 2.74 20.7 2.74 7.94 0 12.42-.63 14.93-1.33 2.61-.75 3.23-1.8 3.23-1.8l-6.54 6.64s-26.3 1.42-31.06-1.66c-1.85-.97-5.86-4.2-9.96-8.1z"/>
    <path fill="none" d="M330.76 276.82s8.4 4.78 0 13.96m-37.8-1.07l12.12-11.53-1.37 15.43m6.34 1.37v-25.79m20.71 25.79v-27.35m-10.45 27.84v-29.4"/>
    <path fill="#ff0018" d="M310.05 270.57l-5.47 1.76 5.47.58v-2.34m10.26-4.02l-5.76 2.15 5.76.2v-2.35m10.45 1.57l-5.76 2.15 5.76.29v-2.44zm3.42 12.41c-.3-1.17 3.42-1.07 3.42-1.07s1.07 3.9 0 6.34l-3.13-.58s.3-2.64-.3-4.69z"/>
    <g fill="#fff">
      <path d="M294.82 288.14l10.26-9.96-.5 5.96s-5.27 3.42-5.27 5.86l-4.5-1.86m5.47 2.06s1.08-3.13 4-4.69l-.29 6.25-3.7-1.56zm14.76-17.3s4.2-.58 7.32 0c0 0-.49 4.2 0 4.99 0 0-5.76-1.37-8.1.78 0 0-.79-3.9.78-5.76zm-8.9 1.08s4.2-.58 7.33 0c0 0-.78 4.7-.3 5.47 0 0-4.68-2.63-7.02-.49 0 0-1.57-3.22 0-4.98z"/>
      <path d="M305.85 279.45s4.2-.5 7.33 0c0 0-.5 4.2 0 4.98 0 0-5.47-1.27-7.82.78 0 0-1.07-3.9.49-5.76zm8.4-.78s6.05-.78 9.18-.3c0 0-1.27 3.43.3 5.77 0 0-6.55-1.76-9 .29 0 0-2.04-3.9-.48-5.76zm-8.88 6.55l8.1.58s-.78 5.96-.29 6.74c0 0-6.54-1.56-7.81.58 0 0-2.15-5.46 0-7.9zm9.18 0s7.03-.5 10.25 0c0 0-1.86 4.5.2 8.4 0 0-9.18-2.64-10.46-.5 0 0-2.14-5.46 0-7.9zm10.74-12.31s4.2-.59 7.32 0c0 0-.48 4.2 0 4.98 0 0-5.76-1.37-8.1.78 0 0-.78-3.9.78-5.76zm0 5.76s4.2-.49 7.32 0c0 0-.48 4.2 0 4.98 0 0-5.76-1.27-8.1.78 0 0-.78-3.9.78-5.76zm.49 6.06s4.2-.59 7.42 0c0 0-1.07 6.54-.58 7.32 0 0-4.79-2.24-7.03-.29 0 0-1.37-5.17.19-7.03z"/>
      <path d="M334.47 285.22s1.36 4.98 3.12 5.56l-2.34 2.84s-2.83-2.06-3.13-4.4c0 0 1.86-2.15 2.35-4z"/>
    </g>
  </g>
  <g stroke="#000" stroke-width=".61">
    <path fill="#006ac8" stroke="none" d="M355.4 298.7c-6.73 11.23-17.77 21.78-35.94 28.32-18.46-6.64-29.69-17.68-36.33-28.81l.1-.1c3.03-.6 3.32-1.37 3.32-1.37s1.86 1.07 3.42 1.37c1.66.29 4.2-.78 4.2-.78s1.07.49 2.44.78c1.27.29 3.61-.78 3.61-.78s1.96.78 3.32.78c1.27 0 4.1-.78 4.1-.78s3.03 1.26 4 1.26c1.08 0 4.11-.97 4.11-.97s2.93 1.37 3.71 1.37c.78 0 2.83-1.37 2.83-1.37s1.37 1.66 2.93 1.37c1.56-.2 4-1.27 4-1.27s1.47.88 3.03 1.17c1.66.3 2.84-1.17 2.84-1.17s.88.88 2.14 1.17c1.37.3 3.32-1.27 3.32-1.27s.78 1.17 2.64 1.36c1.86.3 3.71-1.26 3.71-1.26s1.27 1.46 2.74 1.26c1.07-.1 2.44-1.36 2.44-1.36s2.44.78 3.32 1.07"/>
    <path fill="none" stroke-width=".49" d="M353.74 301.24c-1.46.1-1.66-.88-1.66-.88s-1.95 1.66-3.8 1.37c-1.96-.3-2.84-1.57-2.84-1.57s-2.05 1.66-3.42 1.37c-1.36-.2-2.34-1.17-2.34-1.17s-1.27 1.47-2.93 1.17c-1.66-.2-3.12-1.17-3.12-1.17s-2.64 1.08-4.3 1.37c-1.66.3-3.03-1.57-3.03-1.57s-3.8 1.28-4.59 1.28c-.88 0-3.61-1.27-3.61-1.27s-1.86 1.17-2.93 1.17c-1.17 0-4.3-1.37-4.3-1.37s-2.93.78-4.3.78c-1.37 0-3.42-.78-3.42-.78s-2.54 1.07-3.9.78c-1.37-.3-2.45-.78-2.45-.78s-2.73 1.07-4.4.78c-1.65-.3-3.6-1.36-3.6-1.36s-.3.68-3.52 1.36h-.1"/>
    <path fill="#5ac800" stroke-width=".59" d="M293.1 305.22s-.28.64-2.83 1.2c-.05 0-.69.15-.69.15.24-.04.43-.07.63-.12-.09.04-.29.11-.72.24 2.88 4.16 7.2 7.94 11.7 10.97 4.49 3.03 9.65 6.64 18.45 9.22 9.25-3.6 11.72-4.98 17.76-9.03 6.05-4.42 9.2-7.17 12.57-11.7-2.64 1.5-2.26 1.52-3.63 1.32-1.37-.29-2.37-1.29-2.37-1.29s-1.25 1.49-2.91 1.3c-1.66-.3-3.12-1.3-3.12-1.3s-2.17 1.48-4.32 1.38c-1.66-.1-3.03-1.56-3.03-1.56s-3.81 1.26-4.59 1.26c-.88 0-3.6-1.26-3.6-1.26s-1.87 1.17-2.94 1.17c-1.17 0-4.29-1.38-4.29-1.38s-2.92.78-4.29.78-3.42-.78-3.42-.78-2.44 1.07-3.9.78c-1.37-.29-2.46-.78-2.46-.78s-2.72 1.07-4.38.78c-1.66-.29-3.63-1.35-3.63-1.35z"/>
    <path fill="#ffd800" stroke-width=".59" d="M319.64 326.89c9.56-3.98 11.28-5.06 17.06-8.6-1 .03-3.94-.91-2.88-1.21 0 0-1.17 1.05-2.34 1.05-1.08 0-4.2-1.36-4.2-1.36s-2.93.78-4.3.78c-1.37 0-3.42-.78-3.42-.78s-2.54 1.07-3.9.78c-1.37-.3-2.45-.78-2.45-.78s-2.83 1.07-4.39.78c-1.66-.3-3.61-1.37-3.61-1.37s-2.4 1.28-3.92 1.42c4.62 3.39 9.48 6.69 18.35 9.29z"/>
  </g>
  <g stroke="#000" stroke-width=".51">
    <path fill="#b34b00" stroke-width=".49" d="M313.17 248.97c1.9-1.55 2.98-3.04 2.35-4.2-.71-.98-1.83.63-3.09.25 0 0-1.9-1.17-2.41-2.01-1.1-1.23-2.53-2.34-3.35-3.4-.87-.98-4.14-5.3-9.11-10.27-1.43-.94-1.1-4.47-2.13-5.56-.09-.77-9.95-10.53-13.46-14.06-1.43-1.04-2.18-1.72-4.67.54-1.98 1.78-2.69 3.62-.1 5.84l12.82 11.66c1.88 1.82 4.5 2.15 5.59 3.1l13.03 13.32c1.64 1.42 2.43 2.42 1.5 3.63-1.03 2 .08 2.27.31 2.33.15.08 1.07.08 1.69-.4l1.03-.77z"/>
    <path fill="none" stroke-width=".48" d="M280.66 214l13.4 13.24"/>
    <path fill="#fff" stroke-width=".55" d="M298.8 220.05c.21-.4.66-1.41 1.14-2.52.2-.44 3.8-6.19 5.6-6.36 0 0 11.2 8.16 11.21 8.27.04.44-4.86 7.77-5.29 7.2 0 0-13.13-5.5-12.66-6.59z"/>
    <path fill="#ccb8c8" stroke="none" d="M305.95 221.97c-1.54-1.2-4.08-2.35-6.12-3.72l-.92 1.92c.74.83 10.06 5.17 11.6 6 0 0-1.78-2.04-4.56-4.2z"/>
    <path fill="none" stroke-width=".38" d="M299.82 218c1.2.85 3.48 2.29 4.92 3.13 2.76 1.92 4.5 4.03 6.48 5.16"/>
    <path fill="#782121" stroke-width=".49" d="M277.1 252.94l25.53-31.59c.48-.43 2.85-.46 3.17 1.99l-24.18 32.94s-2.75-.27-4.51-3.34z"/>
    <path fill="#730000" stroke-width=".49" d="M362.66 253.29c-.88.68-2.37.86-2.37.86-1.66-1.95-3.03-4-5.38-6.54l-25.49-31.36 2.64-2.54 22.95 26.86c.68.69 4.69 4.89 8.5 9.87 0 0 .33 1.95-.85 2.85z"/>
    <path fill="#fff" stroke-width=".49" d="M338.12 220.25l-4.1-4.88s-3.13.39-3.72 2.05c0 0-2.24 3.71-8.2 4.1 0 0 1.66 6.94 8.6 10.65 0 0 2.53-7.13 4.97-8.4 0 0 2.54-1.86 2.44-3.52z"/>
    <path fill="#730000" stroke-width=".49" d="M327.86 241.94c-.58-.2-1.17 0-2.05.49-.78.49-1.76.29-1.66-.69.1-.88 0-.78 1.08-1.46a6.26 6.26 0 0 1 4.88-.5l-2.25 2.16m27.83-27.75c-.2-.68-.39-1.36.3-2.24.68-.78.68-2.15-.98-1.46-1.66.68-2.25 2.53-.88 5.37l1.56-1.67z"/>
    <path fill="#fff" stroke-width=".49" d="M327.28 242.53l28.9-28.72 7.13 7.62s-1.46-.6-2.05-.2c-.48.39.59 1.86.59 1.86s-1.37-.5-1.95-.1c-.69.39 0 2.05 0 2.05s-1.18-.88-1.76-.5c-.49.4 0 2.25 0 2.25s-1.56-.48-1.95-.1c-.4.4 0 2.06 0 2.06s-1.57-.78-2.35 0 .4 1.85.4 1.85-1.96-.78-2.74.4c-.78 1.17.1 2.24.1 2.24s-1.57-.78-1.96-.4c-.39.4 0 2.25 0 2.25s-1.36-.78-2.24.2c-.88 1.08.1 1.96.1 1.96s-1.27-.79-1.96-.4c-.68.4.2 2.25.2 2.25s-1.27-.88-2.15 0c-.88.98 0 1.95 0 1.95s-1.08-.98-2.15 0c-.98 1.08 0 2.15 0 2.15s-1.56-.78-2.15 0c-.68.78.2 1.86.2 1.86s-1.17-.69-1.95-.3c-.78.4 0 2.15 0 2.15s-1.17-1.27-1.66-.58c-.59.68.1 2.34.1 2.34s-1.08-1.27-1.67-.58c-.68.58.4 2.05.4 2.05s-1.96-.88-1.47-.88z"/>
    <path fill="#7e4b7e" stroke="none" d="M354.52 216.15l-2.24 2.25.48 7.72s.5-2.25 1.17-.69c0 0 .2-1.85.69-1.56-.4-.2-.1-7.72-.1-7.72m-4.2 4.2l-1.65 1.56.58 7.72s.5-2.93 1.17-.59c0 0-.1-1.95-.1-2.64v-6.05m-17.48 17.3l-1.56 1.66.4 4.69s.48-3.03 1.16-.69c0 0-.2-1.95-.2-2.64 0 .5.2-3.02.2-3.02"/>
    <g fill="none" stroke="#7e4b7e" stroke-width=".88">
      <path d="M330.89 218.3c1.07 1.08 4.1 4.98 4.1 4.98m-2.73-2.83c-.2.6-.58 2.25-1.46 3.13m1.94-2.74c-.1.39-.1 1.66-1.46 2.93m1.95-2.34c-.2.68-.3 1.17-.78 1.66m1.08-1.07c0 .49-.3.58-.4.88m-3.21-2.74c-.4.39-3.23 2.24-4.79 2.83m4-1.76c-.39.4-2.15 1.76-3.13 2.15m2.84-.98c-.58.4-1.56 1.37-2.34 1.66m1.76-.49c-.4.5-.98.88-1.47 1.18"/>
      <path stroke-linecap="square" d="M311.3 224.65c.32-.59.88-1.74 1.6-2.8.92-1.34 1.32-1.57 1.8-2.04"/>
    </g>
  </g>
  <path fill="#289400" stroke="#060" stroke-width=".49" d="M217.01 303.39c1.47.68 0-4.79.49-6.84.58-2.15 4.78 5.27 6.84 6.25 2.14 1.08 15.23-5.18 15.23-5.18l3.13-5.86 1.66 4.8s3.61-4.2 4.68-5.77c1.08-1.56 0 3.13-1.07 4.69-1.08 1.56 3.13 2.15 2.64 5.27-.5 3.13 4.2-2.15 4.2-2.15l12.1 1.08s2.06-7.33 5.28-11.53l.98 4.7 4.98-5.09c5.56 14.66 17.29 30.58 41.31 39.27 22.56-8.2 34.18-22.76 40.24-36.63l6.74 6.94s5.27-1.57 6.25-2.15c1.07-.5 12.4 4 12.4 4s2.05.79 3.13 1.57c1.07.78.29-3.42.29-3.42s5.76 1.07 5.27 4.2c0 0 1.27-2.93 2.35-3.42 1.07-.49 3.61 2.64 4.2 3.71.48.98 12.89 2.54 14.65 3.62 0 0 1.36 1.56 1.36 2.63 0 0 2.64-.29 4.7-.29 0 0-1.57.78-1.57 2.44 0 1.57-.78 2.84-2.34 3.62-1.57.78 0 1.36 2.05 1.56 2.15.3 0 2.93-4.2 4.5 0 0-.98 2.34.78 3.12 0 0-3.62.3-4.2-.78 0 0-1.27 2.44-1.27 3.71 0 0-3.9-1.27-4.98-1.85 0 0-1.56 1.56-.49 2.34 0 0-7.13-.78-8.5-3.42 0 0-2.53.78-2.05 1.66 0 0-4.98-3.42-6.54-3.42l-1.07 1.76s-3.42-2.05-4.5-2.05c-.98 0-.2 1.56-.2 1.56l-4.78-2.93-1.85 2.93s-3.9-1.86-4.98-2.64c-.98-.78-1.27 1.57-2.05 1.86 0 0-1.57-2.15-3.71-1.86 0 0-.78 2.64-.5 3.42 0 0-6.05-1.27-7.12-1.56-1.08-.3-.49 1.27 0 2.34 0 0-4.5-1.27-5.47-2.05l-.3 2.05s-3.7-.3-4.49-1.07l-2.34 3.22h-3.42l-.78 2.83s-6.54-1.85-7.13-.78c-.49 1.07.3 2.64.3 2.64l-5.77-.78-.48 2.34s-6.65-2.05-8.2-1.08c0 0-2.06 2.15-3.43 2.64-1.26.59 0-.78 0-.78l-2.05-2.83s-2.34 1.27-3.7.78c-1.28-.59-5.48 2.05-6.85 1.27 0 0 0-1.86-1.07-2.35-.98-.48-2.83-.48-3.61.79 0 0-.78-1.08-2.15-3.13-1.27-2.15-3.13.2-3.13.2l-.3-2.55-3.6-.3c-2.15-.28-2.64-2.14-2.64-2.14s-5.57.59-6.35.3l1.37-1.28s-7.62 1.57-9.18.98c-1.66-.48 1.76-2.63 1.76-2.63s-7.04-1.76-8.4-2.05c-1.27-.3-8.9 1.26-9.97 1.26-1.07 0-1.56-1.76-1.56-1.76s-1.86 1.57-3.42 2.06c0 0-1.27-3.13-.49-3.42 0 0-4.98 1.36-5.27 2.64 0 0-1.27-2.06-1.08-2.93 0 0-2.34 3.7-3.42 4.49-1.07.78-.2-1.86-.2-1.86s-2.92 3.71-4 4v-2.63s-8.4 4.5-10.74 3.9c0 0 0-1.85.78-2.34l-5.27-.29c-1.27-.2-2.83-.78-4.2-1.07-1.27-.2 1.86-1.57 4-.98 0 0-5.86-2.15-7.62-1.08 0 0-.78-2.14 2.35-2.93 0 0-4-3.9-6.35-3.61 0 0 2.64-1.56 4.78-.79 0 0-2.44-6.64-4-7.42 0 0 5.57-.97 7.13-.19z"/>
  <path fill="#730000" stroke="#000" stroke-width=".49" d="M208.9 188.8l71.1-36.82c.34-1.9-.74-3.4-1.85-4.89-20.34 9.97-38.84 22.07-61.44 29.4-1.27.5-12.5 5.18-18.26 12.12a7.66 7.66 0 0 0-1.96 4.53s.14 3.1.79 3.94c0 0 .17.86 1.23 1.54-.01 0 .66.32 1.12.16.52.1 1.36.09 2.53-1.96a52.37 52.37 0 0 1 6.74-8.02z"/>
  <path fill="#fff" stroke="#000" stroke-width=".49" d="M266.13 152.37l9.18-4.4s3.13 2.35 2.84 4.99c0 0 .68 6.05 8.2 10.25 0 0-6.35 7.91-17.48 8.6 0 0 1.28-10.44-1.07-13.47 0 0-.39.37-.22-.15.34-1.01-.22-4.5-1.65-5.26-.17-.1.12-.38.2-.56z"/>
  <path fill="none" stroke="#7e4b7e" stroke-width=".78" d="M276.88 153.64c-1.96.78-8.3 4.1-8.3 4.1m5.27-2.15c-.1.97-.68 3.32 0 4.98m-.88-4.68c0 .48-.78 2.24.1 4.59m-1.07-4.1c-.2.97-.39 1.56 0 2.63m-.79-2.05c-.2.58 0 .88 0 1.27m5.76-1.57c.3.78 2.93 4.88 4.5 6.55m-4.1-4.7c.3.79 1.76 3.62 2.83 4.7m-3.03-3.03c.4.97 1.18 2.73 1.96 3.7m-1.96-1.75c.2.79.59 1.76 1.18 2.45"/>
  <g stroke="#000" stroke-width=".49">
    <path fill="#b34b00" d="M342.3 148.28l26.11 12.8c5.23 2.53 7.11.18 10.07 1.47l51.54 26.25c4.43 1.94 6.9 2.55 6.27 4.84-.11 3.64 1.71 3.7 2.21 3.73.36.1 2.1-.16 2.83-1.13.55-.63.57-.69.57-.69.58-.58.48-.64.66-.9 2.17-3.12 3.37-5.82 1.1-7.58-2.6-1.22-2.9 1.54-5.62 1.25 0 0-4.89-1.86-6.65-3.13-3.24-1.76-7.76-3.85-8.79-5-3.29-.62-28.06-14.55-42.1-21.55-1.5-1.26-2.32-5.92-5.28-7.47-.86-1.26-19.86-9.94-29.8-14.9-3.66-1.37-5.7-2.3-8.35 2.19-2.3 4.4-1.74 6.8 5.22 9.82z"/>
    <path fill="none" d="M344.5 142.81l29.24 14.6"/>
  </g>
  <g fill="#ffa54b" stroke="#000" stroke-width=".51" transform="translate(-40) scale(.96)">
    <path fill="url(#c)" d="M309.73 165.12c-.2.61-.71.2-.71.4-.4 2.14-.3 3.26-.81 4.48-.72 1.43-3.26 2.75-3.16 2.65-2.03.6-4.47 3.05-8.44.81-.2-.1-.4-.3-.61-.5 0 0 1.12 4.16-2.95 6.2-1.42.71-15.77 8.24-15.77 8.24s-1.53 2.75-.51 6.51c.1.61.3 1.12-.3 1.53-.92.71-2.65 2.75-3.67 6 0 0-3.05-1.32-3.05-3.25 0-1.94 1.22-2.95 1.53-4.38.3-1.32 1.11-4.68.7-5.7-.4-1.12-2.23-1.52-2.94-1.93-.61-.4-1.43.4-1.32 1.32.1 1.02.8.81 1.62 1.02 0 0-.91 1.93-.8 3.35l-9.27 4.79s1.22 1.62 1.63 2.34c.4.71 1.32 10.17 4.07 14.65s3.66 3.26 4.27 3.87c.51.5 1.32 1.32 2.04 1.93.7.5 3.86.81 4.47-.91a8.91 8.91 0 0 1 3.16-4.18c1.93-1.52 5.9-5.39 5.9-7.12 0 0 2.34 6.71 2.03 12.31 0 0 8.55 1.73 16.18 1.93 7.63.1 11.5-1.52 11.5-1.52s1.01-6.41.6-7.63c0 0 1.22 4.17 2.14 5.6 1.02 1.72 2.14 5.28 4.37 5.49 2.14.1 3.97-2.14 4.17-3.05v-6.72h8.65c0-.1 3.87 1.42 5.09 1.22 1.22-.1 1.93-1.22.81-1.63l-.4-.3c1.11 0 2.54.7 2.54.7h4.27c.1-.1 0-.4-.1-.5-.3-1.22-2.55-2.24-4.17-2.95-1.63-.6-3.46-1.32-4.68-1.42-1.94-.2-3.26-.1-6.21.4-.81.1-3.87.41-5.8 1.33-.5.3-1.02.4-.81-.92.3-1.43.2-7.84-1.32-10.58-1.12-1.94-1.02-3.57-.82-5.2.1-1.62.2-7.22 0-8.85-.3-1.62-2.54-3.86-6.6-4.37-3.87-.51-7.13-3.66-7.33-6.2-.3-2.55.4-7.23.81-9.26"/>
    <g fill="none">
      <path fill="url(#d)" d="M292.44 153.63c-.71 3.25-.71 6.1-.6 9.26.1 2.13 1.1 4.57 2.03 6.71.6 1.43 1.42 3.05 2.74 3.87 3.56 2.34 6.92-.2 8.85-1.02a6.4 6.4 0 0 0 2.75-2.44c.5-1.22.3-2.13.81-4.47-.1.1.82-.41.71-.41.92-1.53.72-2.04 1.22-3.06.51-1.01-.6-2.13-1.83-1.93.61-1.93 1.02-4.07.4-5.9-.2-.61.52-2.24-.6-1.83-4.58 1.83-9.97 1.42-14.85 1.42-.41 0-.72-.81-1.33-.7-.1 0-.2.3-.3.5"/>
      <path fill="#000" d="M292.03 155.35c-.5-.4-.61-1.32 0-3.26.71-1.93 0-2.03 1.12-3.15s.81-1.63 1.53-1.93c.7-.2 2.84-.2 3.56-.5.6-.32 1.52-.72 2.94-.92 1.53-.31 4.58-.21 6 .6 1.53.82 2.55 2.85 3.47 3.56 1.02.71 1.63 3.67 1.42 7.94-.3 4.27-1.12 3.46-1.12 3.46s-1.22-2.03-2.24-.3c0 0 0-1.63.2-2.86.11-1.22-.6-3.45.11-4.98 0 0-5.8 1.83-8.75 1.73-3.05-.2-7.32-.92-7.53-1.63l-.71 2.24"/>
      <path fill="#fff" stroke="#fff" d="M294.98 151.8c-.3-.61-1.83-2.85-.6-3.56 1.11-.61.4 2.74 1.93 3.46 0 0-.51 1.52-1.32.1h-.01z"/>
      <path d="M298.34 160.14c-.5 1.73-.71 2.14-.92 3.16m10.59 1.62c.2.61.4.3.91.4m.41-3.96c.5-.6 1.22-.3.81 1.22"/>
      <path d="M292.44 157.7c.92.3 1.83.6 2.75 1.02 1.52.61.6 2.85.2 4.27-.2.71-1.02 1.93-.6 2.55.5.8 1.11.3 2.03.4 0-.3.6-.5.81-.5.71-.1 1.12.5 1.63.3.6-.3.5-1.22.3-1.73m-.1-4.48c.1-.4 1.02-.81 1.53-.92 2.13-.4 3.66-.7 5.39.52m-5.7 11.08c-1.73.4-3.56.71-5.19-.2m0-.81c.81-.4 1.12-.82 2.14-.3 0-.1 1.12-.41 1.12-.41.8 0 1.32.3 2.13.8m-5.49.31c.92-.3 3.36-.3 5.4.1"/>
      <path fill="#fff" stroke-width=".3" d="M292.34 160.14c.71-.1 1.53-.92 3.15.3 1.12.72-1.83 1.43-1.32 1.33-1.32.2-1.73-.5-1.83-1.12 0-.2-.2-.51 0-.51zm8.34.81c.71-1.43 1.83-1.12 2.85-.82 1.02.31.71.1 1.63.62-1.12.2-.82.3-1.63.7-.92.42-1.73.62-2.34.21-.2-.2-.71-.5-.71-.91 0 .1.1.2.2.2z"/>
      <path fill="#000" stroke-width=".3" d="M293.76 161.36c.4 0 .71-.4.71-.81 0-.51-.3-.92-.71-.92-.5 0-.81.4-.81.92 0 .4.3.81.81.81zm8.65.2c.4 0 .71-.4.71-.92a.8.8 0 0 0-.81-.8c-.4 0-.71.3-.71.8 0 .52.4.92.81.92z"/>
    </g>
    <g id="g">
      <g fill="none">
        <path d="M345.85 213.66a3.85 3.85 0 0 0-1.83-1.32l-2.04-1.02c-.7-.4-1.72-.5-2.34-.92m.41 2.65c-.3-.2-.5-.3-.81-.51-.3-.1-.71-.1-1.02-.2-.1 0-.1-.2-.2-.2a3.48 3.48 0 0 1-2.44-1.33m-62.78-9.36c.91.71 3.15 2.24 3.36 5.19a10.5 10.5 0 0 0 1.01 3.05m-13.12-7.83c.51 1.73.61 7.42 6 13.43m-4.98-21.37c-.4 1.12-.92 2.14.2 2.95m14.45 10.69c1.12-2.55 4.58-2.34 4.58-4.78"/>
        <path d="M284.81 207.25c-.3-2.85-.92-4.47-.4-8.65.2-1.22.4-5.9 0-8.14 0 0 1.62 7.84-3.67 9.37m34.39 12.51c0-3.97.92-6.2.92-6.2 1.22-5.6-1.12-7.74-.2-9.16.8-1.22 2.03-3.77.4-8.86 0 0 2.85 10.49-4.48 10.49-7.42 0-7.12-2.75-7.12-2.75"/>
        <path d="M284.4 190.46c0 2.13 0 8.45 9.05 8.45 2.75 0 5.7-1.94 7.33-3.26m2.24-2.75c-.3-1.93-.3-4.38-.3-6.92m-13.64-3.45c2.44-.3 4.38-.61 8.96-.61m.3-6.32c.5 2.24-.3 5.8 3.87 6.3m4.37-7.11c-.61 1.63-.61 3.26-.81 4.38m.2 2.75c1.73 0 4.98-1.12 9.05-.3m1.43 22.78c.81 1.63 1.02 3.77 3.56 6.2m-31.74-11.39c.2 1.32-1.73 5.7-.3 9.26a12.31 12.31 0 0 1-1.13 11.1m6.62-19.03c-.81 1.63-2.24 3.26-2.54 4.68m6.6-1.63c0 1.02-2.74 8.75-4.68 10.89 0 0 3.56 1.42 3.05 6.61m7.33-21.06c0 1.32-.2 1.63.92 2.44m2.44 0c1.32 1.63 5.5 6.51 4.58 9.26m-7.33-6.51c.3 1.02.3 6.3-.61 8.96m-2.13-.21c-1.12 0-2.75.81-3.05 2.75m8.74-3.06c1.12-.3 3.35 1.63 3.35 7.12m15.68-10.27c-2.14.61-3.05 1.73-2.44 1.12-1.12.92-2.14 1.53-2.14 1.53"/>
      </g>
      <path fill="#000" stroke-width=".3" d="M289.79 197.99c.6 0 1.12-.4 1.12-.92 0-.4-.5-.81-1.12-.81-.5 0-1.02.4-1.02.81 0 .5.5.92 1.02.92zm23.1.31c.51 0 1.02-.4 1.02-.92 0-.5-.5-.8-1.02-.8-.6 0-1.12.3-1.12.8 0 .52.51.92 1.12.92z"/>
      <path fill="#fff" d="M280.54 239.81c1.22-7.94 4.99-14.55 5.09-15.16 0 0 3.86.81 10.58 1.42 6.6.71 8.44.41 11.5.2 2.94-.3 6.8-.8 6.8-.8s1.23 2.43 1.33 4.88c.3 5.18 2.24 27.67 2.44 33.68 0 0 .81 3.56.81 12.3 0 9.57 2.65 29 2.65 39.39l-2.65.5s-14.44 1.13-14.44-.8c0-2.14-.82-27.07 1.32-42.13 0 0-.51-2.95-1.32-5.5-.82-2.44-4.38-10.07-4.38-11.7 0 0-5.7 16.08-6 18.83-.3 2.54-1.12 38.35-1.63 41.31 0 0-8.24 6.3-9.36 6.92-1.12.5-9.05-3.36-9.26-4.37-.3-1.12.82-13.23 4.58-33.18 1.43-7.12.61-8.44.61-10.38 0-1.93.1-27.47 1.32-35.4l.01-.01z"/>
      <path fill="none" d="M294.27 274.92c-.6 2.24-1.63 4.38-3.56 5.8m-2.75-53.63c-.3 1.32-2.24 7.33-7.12 10.89m14.24-9.77c-1.12 3.56-5.5 22.7-6.3 45.38m-.31 7.13c-.2 2.13-1.32 18.01-1.63 20.76m-.81 3.05c-.5 1.12-2.75 10.38-2.75 18.62m32.25-35.92c-.2 1.93-1.02 15.67 3.56 27.98m-18.51-85.98c-.3 2.24-.81 16.69-.81 17.8 0 1.12 1.62 2.75 2.44 3.06 0 0-1.63.5-1.94 6m-4.07-12.92c-.3 1.73-1.93 8.55-3.05 11.3m13.12-25.44s4.88 1.02 5.19 0c0 0 1.63 29.51 3.86 45.9m-11.18-42.14c0 1.93-.6 16.48-.6 16.48m2.43 2.14s1.93 2.74 1.43 4.07m-17.81-28.08c1.63.5 3.05.81 3.05.81m5.19 1.63c-.3.81-.61 4.58-.61 4.58m8.75 38.87c.61.81 1.42 1.94.81 4.38"/>
      <path fill="#9b5f00" d="M284.91 224.45s0-3.26 1.22-4.89c0 0 3.46.72 8.34 1.23 4.99.5 8.95.91 12.62.5 3.66-.4 7.43-1.32 7.43-1.32s1.01 4.79.5 5.5c0 0-3.97.81-8.34 1.01-4.48.3-11.9-.4-14.45-.8-3.35-.42-6.3-1.03-7.32-1.23z"/>
      <path fill="#fff" d="M288.06 224.85l.6-4.88 1.03.1-.2 5.08-1.43-.3m22.08-4.07l.1 5.5 1.22-.21-.1-5.6-1.22.31m-15.67 0l-.4 5.3h.7l.72-5.3h-1.02"/>
      <path d="M276.77 320.81c-.3 1.32-.81 3.15-1.02 5.5 0 .5-.5 3.25 1.02 3.35 1.12.1 1.43-2.85 1.43-2.85s-1.02 3.26.3 3.67c1.83.4 2.03-3.57 2.03-3.57-.2 1.12-1.42 3.97.31 4.28 1.83.3 2.34-3.87 2.34-3.87s-1.53 4.17.3 4.27c1.73.1 1.73-4.07 1.73-4.07s-.91 4.99 1.53 4.58c1.32-.2 1.63-1.93 1.93-2.95.4-1.52 1.32-3.46.2-6.61-.8-2.34-.5-2.95-.5-2.95s-2.85 2.14-5.09 3.56c-1.02.6-6.51-2.34-6.51-2.34zm29.71-4.38c-.5-.3-.4 1.83-.6 2.85-.11 1.02.2 3.25 3.65 3.05 3.36-.3 6.72-1.02 8.86-.5 2.13.6 5.28.7 7.02.7 1.72 0 2.84-.2 3.66-.5.71-.3 2.24.4 2.95.4s1.83-1.12 1.73-1.83c-.1-1.32-1.32-1.32-3.06-1.42-1.62-.2-3.86-.51-4.98-.92-1.12-.4-3.15-1.53-5.7-2.03 0 0-4.88.2-5.9.2-1.01 0-7.02.3-7.63 0z"/>
    </g>
    <g fill="none">
      <path fill="#ffb366" d="M255.71 189.85c-.5.3-1.12-2.04.4-2.95 0 0 .41-1.93 2.04-2.14 0 0 1.32-1.83 3.26-1.62 0 0 2.23-1.53 3.05-1.33.81.1 2.85 2.14 2.95 2.85.2.71 0 1.94-.51 2.44-.61.61-1.02-.1-1.12-.91 0 0 .4 1.52-.81 2.13-1.22.72-1.12.21-1.22-.6 0 0-.31 1.62-1.12 1.83-.82.3-1.33-.41-1.94-.41 0 0 1.02.81.3 1.42-.7.51-1.52.3-2.03-.1-.5-.5-1.12-1.83-3.25-.6v-.01z"/>
      <path d="M265.68 186.09c-.51-1.63-2.14-3.05-4.07-2.85m2.24 4.37c-.3-.4-.4-.82-.71-1.22-.92-1.53-2.85-1.42-4.48-1.83m2.44 4.58c-.6-.4-.81-1.22-1.43-1.52-1.01-.41-2.03-.92-3.25-.72"/>
    </g>
  </g>
  <g stroke="#000" stroke-width=".51" transform="translate(-40) scale(.96)">
    <path fill="url(#e)" d="M439.14 165.12c.71-.3.51.61.61.92.3 1.32.3 2.74.81 3.96.61 1.12.81 1.53 1.83 2.04 1.63.91 6.41 3.56 9.77 1.42a3.11 3.11 0 0 0 .71-.5s-1.22 4.17 2.95 6.2c1.32.71 15.67 8.24 15.67 8.24s1.52 2.75.6 6.51c-.2.61-.4 1.12.21 1.53 1.02.71 2.65 2.75 3.77 6 0 0 2.95-1.32 2.95-3.25 0-1.94-1.22-2.95-1.53-4.38-.2-1.32-1.02-4.68-.6-5.7.4-1.11 2.13-1.52 2.84-1.93.71-.4 1.53.4 1.32 1.32-.1 1.02-.81.82-1.63 1.02 0 0 1.02 1.93.82 3.35l9.36 4.79s-1.23 1.63-1.63 2.34c-.51.71-1.43 10.17-4.17 14.65-2.75 4.48-3.67 3.26-4.17 3.87-.61.5-1.43 1.32-2.14 1.93-.6.5-3.76.81-4.48-.92a8.94 8.94 0 0 0-3.15-4.17c-1.93-1.52-5.9-5.39-5.9-7.12 0 0-2.34 6.72-2.03 12.31 0 0-8.45 1.73-16.18 1.94-7.63.1-11.5-1.53-11.5-1.53s-1.02-6.41-.6-7.63c0 0-1.23 4.17-2.04 5.6-1.12 1.72-2.24 5.28-4.38 5.49-2.23.1-3.96-2.14-4.27-3.05v-6.72h-8.64c0-.1-3.77 1.42-5.09 1.22-1.22-.1-1.83-1.22-.81-1.63l.4-.3c-1.12 0-2.54.7-2.54.7h-4.27c0-.1.1-.4.1-.5.3-1.22 2.55-2.24 4.27-2.95 1.63-.6 3.36-1.32 4.58-1.42 1.93-.2 3.26-.1 6.2.4.82.1 3.97.41 5.8 1.33.51.3 1.12.4.82-.92-.3-1.42-1.22-5.6.3-8.34 1.02-1.94.92-3.56.82-5.2-.2-1.72-1.12-5.6-1.12-7.32 0-5.7 4.38-8.04 8.24-9.26 4.27-1.32 7.12-2.75 6.92-5.29-.1-2.64.6-7.02.2-9.06"/>
    <g fill="none">
      <path fill="url(#f)" d="M456.34 153.63c.92 3.36 1.12 4.17 1.12 5.3 0 1.21-.5 1.41-.1 2.74.7 2.44-.72 5.09-2.45 7.94-.8 1.32-1.42 3.05-2.74 3.86-3.36 2.14-7.43-.4-9.56-1.32a3.73 3.73 0 0 1-2.04-2.14c-.4-1.22-.5-2.34-.81-3.97 0-.3.1-1.22-.6-.91-1.23-1.43-1.03-2.04-1.53-3.05-.51-1.02.91-2.14 2.03-1.94-.6-1.93-.91-4.07-.3-5.9.2-.61-.51-2.24.5-1.83 4.58 1.83 9.97 1.42 14.86 1.42.4 0 .7-.81 1.32-.7.1 0 .2.3.3.5"/>
      <path fill="#000" d="M456.75 155.35c.5-.4.2-2.34-.3-4.38-.2-1.01-1.02-1.42-2.14-2.54s-1.53-1.12-2.24-1.42c-.6-.2-2.03-.2-2.74-.5-.61-.32-2.24-.11-3.77.1-2.04.3-3.15.2-4.68 1.01-1.52.81-2.74 1.73-3.25 3.26-.41 1.11-1.12 2.54-.82 6.81.2 4.27 1.02 3.46 1.02 3.46s1.12-1.63 1.83-.6c0 0-.1-2.25-.3-3.57-.1-1.22 0-2.75.5-4.58 0 0 4.69 1.73 9.06 1.73 3.05 0 7.02-.3 7.12-1.02l.71 2.24z"/>
      <path d="M450.44 160.14c.61 1.73.1 1.22.4 2.34m-10.27 2.03c0 .81-.61.61-1.02.61"/>
      <path d="M456.85 158.82c-.92-.71-2.65-.2-3.46.1-1.52.71-.71 2.24-.2 3.67.2.7 1.02 1.72.5 2.44-.4.8-.7.4-1.62.5.1-.3-.81 0-1.12 0-.6-.1-.91.41-1.42.2-.61-.3-.51-1.21-.31-1.72m.1-4.48c0-.4-1.32-.81-2.74-.92-2.24-.1-2.45.1-4.18 1.33m11.5 8.95c-.4-.6-1.02-.92-2.14-.4 0-.2-1.52-.41-1.52-.41-.81 0-1.32.3-2.14.7m5.59.62c-.92-.6-3.26-.2-5.6-.2m.21.81c1.73.51 3.46.82 5.19 0"/>
      <path fill="#fff" stroke-width=".3" d="M456.44 160.14c-.71-.1-1.02-.92-3.15.3-1.12.62 1.83 1.43 1.42 1.33 1.22.2 1.63-.5 1.73-1.12 0-.2.2-.51 0-.51zm-8.34.81c0-.82-1.83-1.12-2.85-.82-1.02.31-.6.1-1.52.62 1.02.2.7.3 1.52.7.92.42 1.12.82 2.34.21.3-.1.71-.5.82-.91-.1.1-.2.2-.31.2z"/>
      <path fill="#000" stroke-width=".3" d="M455.12 161.36a.8.8 0 0 1-.81-.81c0-.51.3-.92.81-.92.4 0 .71.4.71.92 0 .4-.3.81-.71.81zm-8.75.2c-.4 0-.71-.4-.71-.92 0-.5.4-.8.81-.8.4 0 .71.3.71.8 0 .52-.3.92-.81.92z"/>
    </g>
    <use width="100%" height="100%" fill="#730000" transform="matrix(-1 0 0 1 748.82 0)" xlink:href="#g"/>
    <g fill="none">
      <path fill="#730000" d="M491.64 193.51c.5.2 1.93-2.03.5-3.05 0 0-.5-1.93-2.13-2.04 0 0-1.32-1.93-3.26-1.62 0 0-2.13-1.53-2.94-1.43-.92.2-2.95 2.24-3.06 2.95-.1.61 0 1.84.51 2.45.61.5 1.02-.1 1.12-1.02 0 0-.4 1.52.81 2.24 1.22.7 1.12.1 1.22-.71 0 0 .31 1.62 1.12 1.93.82.3 1.33-.41 1.94-.41 0 0-1.02.81-.3 1.32.7.61 1.52.3 2.03-.1.6-.4.3-1.73 2.44-.51z"/>
      <path d="M482.49 189.75c.5-1.73 2.23-3.15 4.07-2.85m-2.14 4.38c.2-.41.3-.82.61-1.22.92-1.53 2.95-1.53 4.58-1.84m-2.55 4.48c.61-.4.81-1.12 1.43-1.42a5.28 5.28 0 0 1 3.25-.71"/>
      <path fill="#730000" stroke="none" d="M482.31 186.77c-.9.72-1.84 1.8-1.9 2.28-.1.61-.01 1.83.5 2.44.54.46.94-.02 1.09-.78-.06.46-.07 1.46.84 2 1.22.7 1.12.1 1.22-.72 0 0 .31 1.63 1.13 1.94.81.3 1.32-.4 1.94-.4 0 0-1.03.8-.32 1.3.71.61 1.52.31 2.03-.1.61-.4.3-1.71 2.44-.5.27.12.8-.44 1.03-1.15l-7.69-5.53-2.31-.78z"/>
      <path d="M480.68 188.19c-1.5 2.58.5 4.13 1.16 2.62-.19 2.38 1.61 2.3 2.29 1.54.66 2.5 1.83 1.4 2.9 1.16-1.21 2.3 1.49 1.61 2.13 1.08.92-1.36 1.35-.28 2.03-.41l1.17-1.25m-7.98-5.7c-1.69.9-2.51 2.14-2.54 3.7m4.87-2.2c-1.69.9-2.51 2.14-2.54 3.7m5.41-1.75c-1.69.9-1.77 1.72-2.5 2.83"/>
    </g>
  </g>
  <path fill="#5ac800" d="M238.5 310.71l-.2-4.49 1.86 1.56.48-3.41c.79-.2 2.06 1.37 2.06 1.37l-.2-3.43 2.83 3.13s-.2-2.64.78-4.2c0 0 2.15 1.85 2.15 4 0 1.86 1.86-2.64 1.86-2.64a3116.23 3116.23 0 0 0 1.56 4.99l1.27-1.86 1.07 3.9 2.35-3.41 1.85 4 4.2-.29.49 2.34 1.85-2.05 2.45 1.56s2.05-.58 3.12-.58c1.08 0 2.35 1.37 2.35 1.37s.78-1.37 1.56-1.86 1.86.78 2.15 1.56l1.56-2.83s2.05 2.05 2.34 2.83c0 0 .3-2.34.78-3.12.5-.78 1.27.3 1.86 1.27l1.27-4.2s1.37.29 2.34 1.85c1.07 1.56 1.07-2.34 1.07-2.34s2.35 3.13 2.93 5.27c0 0-16.17 5.56-27.57 4.04-13.43-1.79-24.48-4.33-24.48-4.33m110.86-.49s.78-2.15 1.86-3.22c0 0 2.05 2.44 2.05 3.22 0 0 .58-.29 1.66-1.07l1.56 1.56 1.86-1.27 1.75 1.56 3.23-1.36 1.27 1.36 4.98-.58 1.85.78 1.76-2.25 1.66 1.76 2.64-2.64s1.27 1.08 1.56 1.86c0 0 2.15-1.07 2.64-1.86 0 0 2.05-.78 2.34.5 0 0 1.27-.98 1.17-2.06-.1-1.07 1.47-.3 1.96 1.08 0 0 .58-2.15 2.14-2.35 0 0 1.08 1.27.78 3.62 0 0 2.35-1.86 3.42-2.06 0 0 .49 2.64-.3 4.99 0 0 2.45-4 2.94-2.64.2.78.78 3.42.2 5.27l2.14-1.36.78 2.63 2.35-.48s-13.87 2.12-26.93.87c-13.07-1.24-25.32-5.86-25.32-5.86m-9.66 9.7c.63-.4-4.36 10.28-16.48 10.85-16.86.79-31.28-7.63-31.28-7.63s1.76-2.93 2.83-3.7c0 0 2.35 1.85 3.13 4.2 0 0 .3-1.57 1.07-2.94 0 0 2.93 1.37 3.42 3.23 0 0 1.08-1.86 1.86-2.35.78-.59 1.56 2.05 1.56 3.62 0 0 1.86-1.96 2.93-2.06 0 0 2.05.98 2.64 4.4 0 0 1.95-1.85 2.64-1.56 0 0 2.34 1.56 1.75 3.7-.29 1.18 2.35-1.36 5.57-2.14l2.83 2.15s2.64-3.52 3.42-4.7c0 0 2.15.8 2.15 2.06 0 0 .98-3.71 1.76-4.1.78-.49 1.85 1.17 1.85 2.25 0 0 .3-2.84 1.86-3.42 0 0 1.56 1.07 1.56 2.15 0 0 1.66-3.23 2.93-4.01z"/>
  <path fill="none" stroke="#060" stroke-width=".49" d="M238.5 310.71l-.2-4.49 1.86 1.56.48-3.41c.79-.2 2.06 1.37 2.06 1.37l-.2-3.42 2.83 3.12s-.2-2.64.78-4.2c0 0 2.15 1.86 2.15 4 0 1.86 1.86-2.63 1.86-2.63l1.56 4.98 1.27-1.86 1.07 3.9 2.34-3.4 1.86 4 4.2-.3.49 2.35 1.85-2.05 2.45 1.56s2.05-.58 3.12-.58c1.08 0 2.35 1.36 2.35 1.36s.78-1.36 1.56-1.85c.78-.5 1.85.78 2.14 1.56l1.57-2.83s2.05 2.05 2.34 2.83c0 0 .3-2.34.78-3.13.5-.78 1.27.3 1.86 1.27l1.27-4.2s1.36.3 2.34 1.86c1.07 1.56 1.07-2.35 1.07-2.35s2.35 3.13 2.94 5.28m58.8-.79s.78-2.14 1.85-3.22c0 0 2.05 2.45 2.05 3.22 0 0 .59-.29 1.66-1.07l1.57 1.56 1.85-1.26 1.76 1.56 3.22-1.37 1.27 1.37 4.98-.59 1.86.78 1.76-2.24 1.66 1.75 2.63-2.63s1.27 1.07 1.57 1.85c0 0 2.14-1.07 2.63-1.85 0 0 2.05-.78 2.34.48 0 0 1.27-.97 1.18-2.05-.1-1.07 1.46-.29 1.95 1.08 0 0 .58-2.15 2.15-2.35 0 0 1.07 1.27.78 3.62 0 0 2.34-1.85 3.42-2.05 0 0 .48 2.63-.3 4.98 0 0 2.45-4 2.93-2.64.2.78.79 3.42.2 5.28l2.15-1.37.78 2.64 2.34-.5m-109.74 7.96s1.76-2.93 2.83-3.7c0 0 2.35 1.85 3.13 4.2 0 0 .3-1.57 1.07-2.94 0 0 2.93 1.37 3.42 3.23 0 0 1.08-1.86 1.86-2.35.78-.59 1.56 2.05 1.56 3.62 0 0 1.86-1.96 2.93-2.06 0 0 2.05.98 2.64 4.4 0 0 1.95-1.85 2.64-1.56 0 0 2.34 1.56 1.75 3.7-.29 1.18 2.35-1.36 5.57-2.14l2.83 2.15s2.64-3.52 3.42-4.7c0 0 2.15.8 2.15 2.06 0 0 .98-3.71 1.76-4.1.78-.49 1.85 1.17 1.85 2.25 0 0 .3-2.84 1.86-3.42 0 0 1.56 1.07 1.56 2.15 0 0 1.66-3.23 2.93-4.01"/>
  <g fill="#fff">
    <path d="M319.46 361.9c21.98.2 34.97-7.82 42.1-12.6 16.7-11.23 20.22-11.62 22.95-11.43 3.13.3 7.71 1.37 7.91 4.1.3 4.2-6.54 6.06-10.45 6.06-4 0-14.46-2.64-14.46-2.64l-2.73 1.86c1.86.88 23.25 8 27.35 1.27 4.2-6.84 8.4-17.88 8.4-17.88s-4.7-8.4-15.14-8.4c-10.55 0-20.8 6.65-27.64 11.62-6.84 4.99-15.43 11.82-38.29 11.82-22.85 0-31.55-6.83-38.38-11.82-6.84-4.98-17.1-11.62-27.54-11.62-10.55 0-15.24 8.4-15.24 8.4s4.2 11.04 8.4 17.88c4.1 6.74 25.5-.39 27.34-1.27l-2.63-1.86s-10.55 2.64-14.46 2.64c-4 0-10.84-1.85-10.55-6.05.2-2.74 4.79-3.82 7.92-4.11 2.73-.2 6.25.2 22.95 11.43 7.13 4.78 20.12 12.5 42.2 12.6"/>
    <path d="M284.1 336.01s0-1.86-.29-4.6c-.39-3.51-2.44-4.39-4.1-3.9-1.07.39-3.22 3.03-3.22 3.03v.1a31.07 31.07 0 0 0-3.03-1.86c.78-.88 5.27-3.61 6.35-3.61.98 0 14.45 5.47 18.75 9.18 1.07.98 1.86 7.03 1.27 8.98a46.46 46.46 0 0 1-15.73-7.22v-.1m-6.45 13.68s-2.93 2.93-3.02 8.3c-.1 6.35 4.49 6.65 7.52 6.55 3.61-.1 6.54-2.15 6.44-8.9 0 0-5.96-2.53-10.94-5.95M354.72 336s.1-1.86.4-4.6c.38-3.51 2.34-4.39 4-3.9 1.07.39 3.22 3.03 3.22 3.03v.1c.98-.69 1.95-1.27 3.03-1.86-.78-.88-5.28-3.61-6.25-3.61-1.08 0-14.55 5.47-18.85 9.18-.98.98-1.76 7.03-1.27 8.98a45.53 45.53 0 0 0 15.72-7.22v-.1m6.44 13.68s2.93 2.93 3.03 8.3c.2 6.35-4.5 6.65-7.52 6.55-3.61-.1-6.44-2.15-6.44-8.9 0 0 5.95-2.53 10.94-5.95"/>
  </g>
  <path fill="#69f" d="M271.3 345.39s-10.44 2.64-14.35 2.64c-4 0-10.84-1.86-10.55-6.06.2-2.74 4.79-3.8 7.91-4.1 2.35-.2 5.38.1 17 7.52m96.21 0s10.45 2.64 14.46 2.64c3.9 0 10.74-1.86 10.45-6.06-.2-2.74-4.79-3.8-7.91-4.1-2.35-.2-5.38.1-17 7.52m-83.41-9.28a93.66 93.66 0 0 1-3.13-2.35c-1.47-1.07-2.93-2.05-4.5-3.12 0 0 2.15-2.74 3.23-3.03 1.66-.59 3.7.29 4.1 3.8.3 2.74.3 4.7.3 4.7m-7.14 27.55c1.86 1.07 3.91.98 5.18.88 3.62-.1 6.54-2.15 6.45-8.9 0 0 4.49 2.26 11.81 4.01 0 0 1.18 1.47 1.37 4.4.3 2.44-1.37 5.08-3.32 4.88 0 0-10.25-1.85-16.5-2.93-3.62-.68-4.98-2.34-4.98-2.34m77.74-27.55l3.22-2.35c1.37-1.07 2.84-2.05 4.4-3.12 0 0-2.15-2.74-3.22-3.03-1.66-.59-3.62.29-4 3.8-.3 2.74-.4 4.7-.4 4.7m7.13 27.55c-1.86 1.07-3.91.98-5.18.88-3.61-.1-6.45-2.15-6.45-8.9 0 0-4.5 2.26-11.72 4.01 0 0-1.27 1.47-1.46 4.4-.2 2.44 1.46 5.08 3.32 4.88 0 0 10.35-1.85 16.5-2.93 3.62-.68 4.98-2.34 4.98-2.34"/>
  <g fill="none" stroke="#000" stroke-width=".68">
    <path d="M319.46 361.9c21.98.2 34.97-7.82 42.1-12.6 16.7-11.23 20.22-11.62 22.95-11.43 3.13.3 7.72 1.37 7.91 4.1.3 4.2-6.54 6.06-10.45 6.06-4 0-14.46-2.64-14.46-2.64l-2.73 1.86c1.86.88 23.24 8.01 27.35 1.27 4.2-6.84 8.4-17.88 8.4-17.88s-4.7-8.4-15.15-8.4c-10.54 0-20.8 6.64-27.64 11.63-6.83 4.98-15.42 11.82-38.28 11.82s-31.55-6.84-38.38-11.82c-6.84-4.98-17.1-11.63-27.55-11.63-10.54 0-15.23 8.4-15.23 8.4s4.2 11.04 8.4 17.88c4.1 6.74 25.5-.39 27.35-1.27l-2.64-1.86s-10.55 2.64-14.45 2.64c-4.01 0-10.85-1.85-10.55-6.06.2-2.73 4.78-3.8 7.9-4.1 2.74-.2 6.26.2 22.96 11.43 7.13 4.79 20.12 12.5 42.2 12.6z"/>
    <path d="M271.3 345.39s-10.44 2.64-14.35 2.64c-4 0-10.84-1.86-10.55-6.06.2-2.74 4.79-3.81 7.92-4.1 2.34-.2 5.37.1 16.99 7.52zm96.21 0s10.45 2.64 14.46 2.64c3.9 0 10.74-1.86 10.45-6.06-.2-2.74-4.79-3.81-7.91-4.1-2.35-.2-5.38.1-17 7.52zm-83.4-9.28a92.64 92.64 0 0 1-3.13-2.35c-1.46-1.07-2.93-2.05-4.5-3.12 0 0 2.15-2.74 3.23-3.03 1.66-.59 3.7.29 4.1 3.8.3 2.74.3 4.7.3 4.7z"/>
    <path d="M284.1 336.01s0-1.86-.29-4.6c-.39-3.51-2.44-4.39-4.1-3.9-1.07.39-3.22 3.03-3.22 3.03v.1a31.88 31.88 0 0 0-3.03-1.86c.78-.88 5.27-3.61 6.35-3.61.98 0 14.45 5.47 18.75 9.18 1.07.98 1.85 7.03 1.27 8.99a46.6 46.6 0 0 1-15.73-7.23m-6.45 13.58s-2.93 2.93-3.02 8.3c-.1 6.35 4.49 6.64 7.52 6.55 3.61-.1 6.54-2.15 6.45-8.9 0 0-5.96-2.54-10.94-5.96v.01z"/>
    <path d="M280.1 351.15s-2.34 2.44-2.73 6.45c-.2 3.12 1.85 4.88 4.5 4.68 3.7-.19 5.17-5.27 3.41-8.1l-5.18-3.03"/>
    <path d="M276.97 363.66c1.86 1.07 3.9.97 5.18.88 3.61-.1 6.54-2.15 6.45-8.9 0 0 4.49 2.25 11.81 4.01 0 0 1.18 1.47 1.37 4.4.3 2.44-1.37 5.08-3.32 4.88 0 0-10.25-1.85-16.5-2.93-3.62-.68-4.99-2.34-4.99-2.34zm77.75-27.55l3.23-2.35c1.36-1.07 2.83-2.05 4.4-3.12 0 0-2.16-2.74-3.23-3.03-1.66-.59-3.62.29-4 3.8-.3 2.74-.4 4.7-.4 4.7z"/>
    <path d="M354.72 336.01s.1-1.86.4-4.6c.38-3.51 2.34-4.39 4-3.9 1.07.39 3.22 3.03 3.22 3.03v.1a31.88 31.88 0 0 1 3.03-1.86c-.78-.88-5.28-3.61-6.25-3.61-1.08 0-14.55 5.47-18.85 9.18-.98.98-1.76 7.03-1.27 8.99a45.66 45.66 0 0 0 15.72-7.23m6.44 13.58s2.93 2.93 3.03 8.3c.2 6.35-4.5 6.64-7.52 6.55-3.61-.1-6.44-2.15-6.44-8.9 0 0 5.95-2.54 10.94-5.96v.01z"/>
    <path d="M358.73 351.15s2.34 2.44 2.73 6.45c.3 3.12-1.86 4.88-4.5 4.68-3.7-.19-5.07-5.27-3.41-8.1l5.18-3.03"/>
    <path d="M361.85 363.66c-1.86 1.07-3.91.97-5.18.88-3.61-.1-6.45-2.15-6.45-8.9 0 0-4.49 2.25-11.72 4.01 0 0-1.27 1.47-1.46 4.4-.2 2.44 1.46 5.08 3.32 4.88 0 0 10.35-1.85 16.5-2.93 3.62-.68 4.99-2.34 4.99-2.34z"/>
  </g>
  <path fill="none" stroke="#fff" stroke-width=".68" d="M299.64 361.41s3.22 2.35-.69 5.28m-8.98-6.84l9.86 4.3m-8.2-2.06l7.22 3.13m-4.68-4.98l5.47 2.45m39.65-1.28s-3.33 2.35.58 5.28m8.99-6.84l-9.87 4.3m8.3-2.06l-7.22 3.13m4.6-4.98l-5.38 2.45"/>
  <path stroke="#000" stroke-width=".67" d="M261.02 331.36c.14.23.23.47.27.71a2.51 2.51 0 0 1-.03.83 2.35 2.35 0 0 1-1.15 1.64c-.64.38-1.36.48-2.17.32a3.68 3.68 0 0 1-1.09-.38 4.35 4.35 0 0 1-.88-.6l-.34.38-.47-.09.46-2.83.48.09c.03.36.09.7.16 1 .08.31.2.6.37.9.16.26.36.49.62.67.24.19.54.32.9.38.27.06.52.07.74.03a1.22 1.22 0 0 0 .9-.6 1.76 1.76 0 0 0 .2-.57 1.71 1.71 0 0 0-.1-.98 1.75 1.75 0 0 0-.72-.8 48.25 48.25 0 0 0-.8-.5c-.32-.2-.58-.35-.8-.51-.42-.3-.74-.64-.93-1.03-.2-.39-.25-.85-.15-1.4.06-.31.18-.59.37-.84a2.52 2.52 0 0 1 1.59-.94 2.9 2.9 0 0 1 1 .02c.38.07.72.2 1 .37.27.17.53.35.75.56l.32-.35.47.1-.48 2.73-.47-.09a11.22 11.22 0 0 0-.12-.95 3.56 3.56 0 0 0-.28-.86c-.12-.26-.3-.48-.5-.66-.22-.18-.51-.3-.87-.37a1.38 1.38 0 0 0-1.02.18c-.3.19-.5.45-.56.79-.06.35-.03.66.1.93.11.27.32.5.62.72.26.19.52.36.78.5a14.1 14.1 0 0 1 1.35.95c.19.17.35.35.48.55m11.98 1.68c-.1-.05-.26-.1-.47-.17a1.4 1.4 0 0 0-.55-.09c-.16.02-.34.14-.52.36a5.67 5.67 0 0 0-.57.87l-1.76 3.2a2.41 2.41 0 0 1-1.93 1.28c-.38.04-.74 0-1.1-.08a4.16 4.16 0 0 1-.94-.37 4.33 4.33 0 0 1-1.1-.83c-.28-.31-.5-.63-.62-.95a2.23 2.23 0 0 1-.15-.97 2.08 2.08 0 0 1 .26-.9l2.4-4.33a.9.9 0 0 0 .1-.34c0-.1-.04-.22-.12-.36a1.5 1.5 0 0 0-.27-.3l-.31-.24.2-.37 3.1 1.71-.2.37-.4-.16a1.93 1.93 0 0 0-.37-.1c-.14-.02-.26 0-.35.08a.88.88 0 0 0-.23.28l-2.24 4.05a3.31 3.31 0 0 0-.27.66 1.79 1.79 0 0 0-.08.74c.03.27.13.52.3.77.17.25.46.49.87.71.38.21.74.33 1.06.36a1.87 1.87 0 0 0 1.5-.55c.17-.17.32-.36.43-.57l1.66-3.01c.21-.38.36-.71.44-.99.08-.27.08-.47.01-.6-.07-.16-.2-.32-.38-.48a3.57 3.57 0 0 0-.44-.36l.2-.36 3.04 1.68a19.19 19.19 0 0 1-.2.36m4.3 7.46a1.86 1.86 0 0 1-.06 1.84 1.93 1.93 0 0 1-.73.75 2.17 2.17 0 0 1-.93.28c-.33.03-.65 0-.99-.09a4.03 4.03 0 0 1-.98-.4l-3.49-2 .21-.37a4.98 4.98 0 0 0 .78.28.54.54 0 0 0 .34-.06.71.71 0 0 0 .24-.27l3.01-5.22a.94.94 0 0 0 .12-.34.56.56 0 0 0-.12-.35 1.68 1.68 0 0 0-.28-.32c-.11-.1-.2-.18-.29-.24l.21-.36 3.4 1.96c.26.15.5.32.71.5.21.2.39.42.53.67a1.6 1.6 0 0 1 0 1.64 1.8 1.8 0 0 1-.54.6c-.2.15-.44.24-.7.29a2.48 2.48 0 0 1-.74.03 3.33 3.33 0 0 1-.79-.17l-.03.05a5 5 0 0 1 .62.56c.22.24.4.48.5.74zm-.62-1.82c.22-.07.4-.18.55-.32a2.74 2.74 0 0 0 .43-.58c.23-.4.3-.77.2-1.13-.08-.36-.37-.67-.84-.95l-.42-.23-.43-.23-1.6 2.8.65.37c.28.17.54.27.79.32.24.04.47.03.67-.05zm-.6 2.74c.24-.43.3-.86.16-1.31-.13-.45-.47-.82-1.02-1.14a28.92 28.92 0 0 0-.56-.32l-.34-.18-1.48 2.56a.62.62 0 0 0-.02.64c.12.2.33.4.65.58.5.3.99.38 1.44.24.44-.14.83-.5 1.16-1.07zm18.9 4.31a3.46 3.46 0 0 0-.48-.12 1.43 1.43 0 0 0-.56-.03c-.16.03-.32.17-.48.4a5.88 5.88 0 0 0-.48.93l-1.43 3.35c-.19.43-.43.76-.75 1a2.57 2.57 0 0 1-1.04.47 3.22 3.22 0 0 1-1.1.03 4.3 4.3 0 0 1-2.15-.99 3.1 3.1 0 0 1-.72-.89 2.23 2.23 0 0 1-.25-.95 2.09 2.09 0 0 1 .17-.9l1.95-4.56a.9.9 0 0 0 .08-.35.71.71 0 0 0-.16-.34 1.6 1.6 0 0 0-.3-.28c-.13-.08-.23-.16-.33-.2l.17-.38 3.25 1.39-.17.38a3.45 3.45 0 0 0-.4-.11 2.3 2.3 0 0 0-.38-.07c-.15-.01-.26.02-.34.11a.94.94 0 0 0-.21.3l-1.82 4.26c-.1.2-.16.43-.21.67a1.69 1.69 0 0 0 .38 1.49c.19.23.5.44.93.62.4.17.77.26 1.1.25a1.86 1.86 0 0 0 1.43-.7 2.54 2.54 0 0 0 .37-.6l1.36-3.16c.17-.4.28-.75.33-1.03.05-.28.04-.47-.04-.6-.09-.16-.23-.3-.43-.44a3.72 3.72 0 0 0-.48-.31l.17-.38 3.19 1.36-.17.38m9.19 10.8l-3.6-1.05.11-.4a9 9 0 0 0 .52.1c.2.04.36.05.45.03a.81.81 0 0 0 .33-.17.71.71 0 0 0 .18-.33l1.7-5.86a1.38 1.38 0 0 0-.09-.02c-1.58 2.03-3.19 4.03-4.77 6.06l-.28-.08c-.2-2.6-.44-5.18-.63-7.77a.71.71 0 0 0-.08-.02l-1.38 4.8c-.14.47-.21.82-.22 1.09-.02.26.03.46.12.6.06.1.21.23.46.38a3.2 3.2 0 0 0 .48.26l-.12.4-3.29-.95.12-.4c.17.03.37.06.57.07a1 1 0 0 0 .5-.06c.15-.07.3-.2.41-.4.11-.21.24-.57.39-1.08l1.19-4.13a1.73 1.73 0 0 0 .08-.6.95.95 0 0 0-.14-.45 1.23 1.23 0 0 0-.37-.35 2.04 2.04 0 0 0-.49-.23l.12-.4 2.78.8c.18 2.24.41 4.48.6 6.73 1.13-1.5 2.3-2.98 3.45-4.48.13-.17.25-.34.36-.54a2.83 2.83 0 0 0 .2-.38l2.66.77-.12.4a3.86 3.86 0 0 0-.42-.06 2.4 2.4 0 0 0-.4-.03.44.44 0 0 0-.32.16.94.94 0 0 0-.17.32l-1.68 5.8a.8.8 0 0 0-.03.36c.02.1.09.21.2.32a3.35 3.35 0 0 0 .74.39l-.12.4m8.73-2.65a1.87 1.87 0 0 1 .65 1.72c-.05.38-.18.7-.38.97s-.46.47-.76.62c-.29.16-.6.25-.94.3-.35.05-.7.06-1.06.01l-4-.5.06-.42h.42a1.73 1.73 0 0 0 .4-.04.52.52 0 0 0 .3-.19.72.72 0 0 0 .12-.34l.75-5.97a.97.97 0 0 0-.02-.36.57.57 0 0 0-.24-.29 1.66 1.66 0 0 0-.38-.18c-.15-.05-.26-.09-.36-.1l.05-.42 3.89.49c.3.04.58.1.86.2.26.1.5.22.74.4a1.62 1.62 0 0 1 .62 1.51c-.04.3-.12.55-.26.77a1.74 1.74 0 0 1-.52.53 2.64 2.64 0 0 1-.67.32 3.4 3.4 0 0 1-.8.15l-.01.06c.24.06.5.15.79.27.28.13.54.3.75.49zm-1.28-1.44c.17-.15.3-.32.38-.51.07-.2.13-.42.17-.7a1.5 1.5 0 0 0-.25-1.13c-.22-.3-.6-.47-1.15-.54a27.26 27.26 0 0 0-.96-.1l-.4 3.2.75.1c.32.04.61.03.85-.02a1.28 1.28 0 0 0 .6-.3zm.49 2.76c.06-.5-.06-.91-.35-1.28-.3-.36-.75-.57-1.38-.65l-.64-.07-.4-.04-.36 2.93a.63.63 0 0 0 .23.6c.18.15.46.25.82.29.59.08 1.06-.03 1.42-.34.35-.3.58-.78.66-1.44zm11.43 2.64h-2.29c-.5-.8-.96-1.46-1.36-2.03-.41-.58-.86-1.15-1.34-1.77h-.87v2.66c0 .14.03.26.07.36.04.1.14.19.28.24.07.03.2.05.37.08.19.02.34.04.46.04v.42h-3.59v-.42l.42-.04c.18-.02.3-.05.38-.08a.51.51 0 0 0 .26-.22.74.74 0 0 0 .08-.38v-6.06c0-.13-.02-.26-.06-.37-.04-.1-.14-.18-.28-.24a2.23 2.23 0 0 0-.4-.1c-.15-.02-.29-.05-.4-.05v-.42h3.92c.36 0 .7.03 1.01.1a2.8 2.8 0 0 1 .86.36c.24.16.45.36.6.61a2.3 2.3 0 0 1 .07 1.78c-.1.25-.26.46-.45.65a2.53 2.53 0 0 1-.65.43 5.27 5.27 0 0 1-.83.32l1.05 1.38c.27.38.62.83 1.02 1.37a2.53 2.53 0 0 0 .9.8 3.03 3.03 0 0 0 .78.17v.41zm-3.15-6.25c0-.5-.15-.9-.44-1.2-.29-.3-.71-.45-1.25-.45h-1.02v3.6h.79c.55 0 1.01-.17 1.37-.53.36-.35.55-.82.55-1.42zm12.94 5.63l-3.53.26-.03-.42c.31-.04.57-.1.77-.17.2-.08.3-.16.29-.24l-.02-.13a.46.46 0 0 0-.05-.14l-.85-1.82-2.97.23a9.56 9.56 0 0 0-.21.74l-.15.58a3.39 3.39 0 0 0-.08.42v.26c0 .16.14.26.4.34.25.07.54.1.86.09l.03.42-3.2.24-.02-.42a1.95 1.95 0 0 0 .38-.1 1.26 1.26 0 0 0 .71-.55c.09-.12.16-.28.22-.5.34-1.07.74-2.28 1.14-3.63.4-1.35.8-2.55 1.11-3.6l.48-.03c1.1 2.34 2.26 4.65 3.37 6.99.07.15.15.26.23.35a1.17 1.17 0 0 0 .7.36c.16.03.28.04.38.04l.04.43zm-3.67-3.16c-.5-1.05-1.03-2.1-1.53-3.14l-1.02 3.33 2.55-.2zm15.71-6.62a27.85 27.85 0 0 0-.42.12 3.14 3.14 0 0 0-.77-.83c-.35-.27-.65-.4-.9-.36a6.3 6.3 0 0 0-.43.08l-.56.14-1.38.37.88 3.25.94-.26c.29-.07.5-.16.65-.27.13-.1.25-.22.33-.37.05-.11.09-.26.1-.46.02-.19.01-.39-.02-.6l.43-.11.86 3.18-.43.12a2.87 2.87 0 0 0-.27-.54c-.13-.2-.25-.33-.35-.4a.87.87 0 0 0-.5-.18 2.29 2.29 0 0 0-.67.1l-.94.26.76 2.78c.03.13.09.24.17.32a.55.55 0 0 0 .33.17c.06.01.2 0 .4-.01s.35-.04.45-.06l.11.4-3.55.97-.11-.4a9.53 9.53 0 0 0 .45-.17c.19-.08.3-.13.36-.17a.5.5 0 0 0 .2-.29.8.8 0 0 0-.02-.37l-1.59-5.84a1.1 1.1 0 0 0-.15-.32c-.07-.08-.18-.13-.33-.16a2.43 2.43 0 0 0-.45-.02 2.36 2.36 0 0 0-.44.05l-.11-.4 6.42-1.75.55 2.03m9.47-.72l.92 2.33-5.98 2.88-.18-.38.36-.21a1.45 1.45 0 0 0 .3-.24.5.5 0 0 0 .15-.32.78.78 0 0 0-.1-.37l-2.61-5.4a.94.94 0 0 0-.21-.3.51.51 0 0 0-.36-.1c-.1 0-.24.01-.4.04a1.93 1.93 0 0 0-.41.11l-.18-.38 3.22-1.56.19.38a2.79 2.79 0 0 0-.37.24 2.19 2.19 0 0 0-.3.26.41.41 0 0 0-.15.34.8.8 0 0 0 .1.36l2.44 5.07c.11.23.21.4.3.52.09.13.2.2.31.23.11.03.25 0 .43-.06.17-.06.4-.16.7-.3l.41-.21c.14-.07.27-.16.39-.24.11-.08.21-.17.3-.26a.59.59 0 0 0 .17-.25 6.31 6.31 0 0 0 .18-2l.38-.18m4.47-8.3a4.18 4.18 0 0 1 1.47.75c.46.38.86.84 1.2 1.4a4.94 4.94 0 0 1 .64 1.73 4.14 4.14 0 0 1-.07 1.65 3.91 3.91 0 0 1-.67 1.41c-.31.43-.71.78-1.2 1.07a3.91 3.91 0 0 1-3.14.41 4.05 4.05 0 0 1-1.44-.76 5.03 5.03 0 0 1-1.16-1.35 4.97 4.97 0 0 1-.65-1.74 4.35 4.35 0 0 1 .06-1.65 3.96 3.96 0 0 1 1.87-2.48 3.99 3.99 0 0 1 1.53-.54 3.85 3.85 0 0 1 1.56.1zm2.25 5.57a3.93 3.93 0 0 0-.2-1.3c-.14-.44-.35-.9-.63-1.38a7.21 7.21 0 0 0-.95-1.28 3.95 3.95 0 0 0-1.06-.8 2.39 2.39 0 0 0-1.11-.25c-.38 0-.76.12-1.13.34-.4.24-.7.54-.88.9a2.57 2.57 0 0 0-.26 1.16c0 .4.08.82.23 1.27a7.15 7.15 0 0 0 1.53 2.59c.32.34.68.6 1.04.8a2.41 2.41 0 0 0 1.12.28c.38 0 .77-.11 1.16-.34a2.3 2.3 0 0 0 1.14-1.99zm10.54-5.71l-1.87 1.32c-.86-.36-1.63-.63-2.29-.87-.67-.23-1.37-.44-2.1-.66l-.72.5 1.54 2.17c.08.1.17.19.26.25.1.06.22.07.37.04a1.79 1.79 0 0 0 .35-.16c.17-.08.3-.16.4-.23l.24.34-2.93 2.08-.24-.34a8.63 8.63 0 0 0 .58-.56.49.49 0 0 0 .08-.33.74.74 0 0 0-.15-.35l-3.5-4.95a1.05 1.05 0 0 0-.27-.26c-.1-.07-.21-.08-.36-.04a3.07 3.07 0 0 0-.74.34l-.25-.35 3.2-2.26a4.56 4.56 0 0 1 .89-.5 2.72 2.72 0 0 1 .9-.2c.3-.02.57.03.84.15s.5.33.71.62c.2.27.32.53.37.79.07.26.07.52.02.78a2.52 2.52 0 0 1-.28.73 4.86 4.86 0 0 1-.5.74c.67.21 1.22.37 1.66.52l1.62.52a2.5 2.5 0 0 0 1.2.14c.11-.02.24-.07.38-.13a2.65 2.65 0 0 0 .35-.19l.24.35zm-6.18-3.28c-.3-.41-.65-.65-1.06-.73-.41-.07-.84.05-1.28.36l-.83.59 2.08 2.93.64-.45c.45-.32.73-.73.82-1.22.09-.5-.02-1-.37-1.48zm13.18-2l.7 2.37-6.61 2.45-.15-.4a4.25 4.25 0 0 0 .77-.42.59.59 0 0 0 .17-.3.74.74 0 0 0-.05-.37l-2.1-5.65a.97.97 0 0 0-.18-.3c-.08-.08-.2-.12-.34-.13-.12-.02-.27 0-.45.02a2.18 2.18 0 0 0-.44.08l-.15-.39 6.17-2.29.7 1.9-.42.16a2.7 2.7 0 0 0-.81-.72c-.38-.23-.67-.3-.91-.26a4.27 4.27 0 0 0-.42.12l-.56.2-1.25.46 1.15 3.12.9-.33c.29-.1.5-.2.61-.32a.88.88 0 0 0 .25-.39c.04-.14.06-.3.05-.51 0-.2-.03-.38-.07-.55l.42-.15 1.14 3.08-.42.16a3.17 3.17 0 0 0-.33-.53 1.48 1.48 0 0 0-.37-.35.87.87 0 0 0-.5-.13c-.16 0-.36.06-.6.15l-.9.33c.29.8.57 1.58.87 2.36.09.24.17.41.26.54a.54.54 0 0 0 .3.24c.13.04.28.03.45-.01.18-.05.43-.13.73-.24l.5-.18a3.88 3.88 0 0 0 .91-.46c.14-.1.23-.2.26-.28.1-.24.2-.58.24-1.01.06-.43.09-.74.07-.92l.4-.15m7.11-5.82c.42.34.78.75 1.06 1.27.27.52.46 1.1.55 1.75a4.86 4.86 0 0 1-.09 1.84 4.14 4.14 0 0 1-.7 1.5 3.9 3.9 0 0 1-2.68 1.54 3.89 3.89 0 0 1-3.07-.85 4.1 4.1 0 0 1-1.02-1.26 4.87 4.87 0 0 1-.54-1.7 4.94 4.94 0 0 1 .08-1.85c.14-.56.39-1.05.7-1.5a3.98 3.98 0 0 1 2.7-1.55 4.06 4.06 0 0 1 1.61.1c.52.15 1 .38 1.4.7zm-.1 6c.17-.38.28-.8.32-1.26.04-.46.02-.97-.05-1.52a6.98 6.98 0 0 0-.37-1.55 3.88 3.88 0 0 0-.66-1.15 2.42 2.42 0 0 0-.92-.67 2.25 2.25 0 0 0-1.17-.13c-.47.06-.86.21-1.17.48-.3.26-.54.58-.7.97-.14.37-.25.79-.27 1.26a6.94 6.94 0 0 0 .4 2.98c.15.43.37.81.64 1.14.25.32.56.54.91.7.35.14.75.2 1.2.13a2.29 2.29 0 0 0 1.1-.44 2.38 2.38 0 0 0 .73-.93z"/>
  <path fill="none" stroke="#000" stroke-width=".98" d="M366.05 205.11v53.04c0 10.55-1.46 52.56-46.59 68.87-45.22-16.31-46.68-58.31-46.68-68.87v-53.04h93.27"/>
</svg>
