<svg xmlns="http://www.w3.org/2000/svg" height="480" width="640"><defs><clipPath id="a"><rect fill-opacity=".67" height="480" width="640"/></clipPath></defs><g clip-path="url(#a)"><rect fill-rule="evenodd" height="480" width="720" x="-40" fill="#c60000"/><rect fill-rule="evenodd" height="342.86" width="720" y="68.571" x="-40" fill="#003bb2"/><g transform="matrix(.364 0 0 .364 185.28 33.681)"><path d="M745.979 566.137c0 207.84-168.49 376.32-376.32 376.32-207.84 0-376.32-168.49-376.32-376.32 0-207.84 168.49-376.32 376.32-376.32 207.84 0 376.32 168.49 376.32 376.32z" fill-rule="evenodd" fill="#fff"/><g transform="matrix(1.27 0 0 1.272 -11.328 -118.57)"><g stroke="#000" fill-rule="evenodd"><path d="M354.544 443.101c2.979.375 6.188.444 10.024 0 3.184.734 5.531 2.078 7.876 3.064 1.315 2.085 3.156 5.152 5.012 6.74.806 2.529 1.996 3.59 3.58 6.128.395 2.501 1.368 5.011 0 7.353-1.632 1.746-4.196 2.766-6.444 3.677-2.968 1.357-4.703 1.857-8.592 2.451-3.201.489-6.462.613-10.024.613-3.446-.527-6.103-1.015-9.308-1.225l-10.024-1.226c-2.07-1.036-4.741-1.886-7.16-2.451-1.68-1.371-4.111-2.927-6.444-4.289-1.801-2.761-3.442-3.756-5.012-6.128-1.426-1.794-2.103-4.11-2.148-7.353 1.129-1.967 2.993-3.875 4.296-5.515 2.235-1.263 4.761-2.94 7.876-4.289 4.207-.127 5.85-1.183 10.024-1.226h10.74c2.43.208 3.63 2.055 5.728 3.677z" fill="#030"/><path d="M328.673 535.663c-2.864-14.094-7.16-49.021-7.16-64.341.716-11.643 52.271-51.472 53.703-55.763 1.432-4.289 27.924-36.767 32.22-46.57-10.74 6.74-28.641 36.153-32.22 39.218-3.58 3.064 7.876-30.639 4.296-41.054-3.58 12.256-9.308 43.505-13.604 46.57-2.148 1.839-39.381 38.603-43.675 37.378-4.296-1.225-15.752-7.353-13.604-11.03 2.148-3.677 30.788-26.349 32.22-34.315s3.58-26.962 6.444-28.8c2.864-1.839 7.16-11.03 10.74-18.383-9.308 3.677-10.74 14.707-14.32 15.319-3.58.613-12.172-12.256-12.172-12.256s5.728 14.094 6.444 17.158c.716 3.064-2.864 23.285-5.012 25.736-2.148 2.451-17.9 19.609-20.764 20.221-2.864.613-10.74-28.187-10.74-33.702s5.728-26.962 0-28.188c-3.58 0-4.296 25.124-6.444 25.124-2.148 0-7.16-25.123-7.16-25.123s-2.863 11.642-1.432 19.608c-4.296.613-15.752-14.706-15.752-14.706s21.48 31.864 25.777 33.089c4.296 1.838 8.592 25.124 7.876 26.349s-21.48-6.128-25.776-8.579c-4.296-2.451-12.888-29.413-12.888-29.413s4.296 26.349-.716 22.673c-5.012-3.677-12.888-6.741-17.184-12.256-4.296-5.515-2.148-28.188-2.148-28.188s-7.16 20.222-10.024 20.222c-2.864 0-12.172-26.962-12.172-26.962s1.432 29.413 5.728 31.251c4.296 1.838 68.736 38.603 69.454 42.283.716 3.676 8.592 17.77 12.888 22.059-.716 7.966 2.864 59.439 4.296 71.694l12.888 3.677z" fill="#520900"/><path d="M204.896 362.84c.795 2.361 1.087 4.47 5.012 5.515 2.173.708 6.453 1.667 8.592 2.451 2.254.914 4.79 2.058 7.876 2.451 2.319.662 6.269 1.343 9.308 1.839 3.2.489 6.462.613 10.024.613 4.11-.628 5.939-1.262 8.592-3.064.796-2.497 1.867-3.618 2.148-6.741.244-2.923.716-5.453.716-8.578l-1.432-7.353c-2.398-2.011-3.032-3.183-7.16-4.289-3.215-1.245-6.152-1.226-10.024-1.226-2.993.854-6.598.613-10.024.613h-10.024c-2.998.558-5.286 1.016-7.876 2.451-3.497 1.352-4.015 2.325-5.728 5.515-1.262 3.238-1.305 5.673 0 9.804z" fill="#030"/><path d="M206.325 387.96c0-1.023-2.589.99-3.58 1.838-2.319 1.389-3.288 3.244-3.58 6.741-1.076 1.91 0 5.047 0 7.966 0 3.379.027 5.735 2.148 7.353 2.407 1.268 3.564 1.838 7.876 1.838h20.048c2.535-.723 5.629-1.087 8.592-1.838 3.313-1.503 5.621-1.662 9.308-2.451 2.1-1.559 5.003-3.164 8.592-3.676 4.105-.167 6.561-1.394 9.308-3.064 3.533-.756 6.723-2.342 9.308-3.677 2.08-1.21 3.573-2.729 5.012-4.902 1.46-2.916 1.927-4.745-.716-7.966-5.221-1.625-2.626-3.382-6.444-4.902-1.747-.903-5.815-2.088-7.876-3.064-3.566.226-6.103.986-10.024 1.226-2.025.867-6.178.613-9.308.613h-11.456c-3.426 0-7.031-.241-10.024.613l-7.16 2.451c-1.889 1.099-4.948 1.991-7.16 3.064l7.16-3.064c-1.889 1.099-4.948 1.991-10.024 4.902z" fill="#030"/><path d="M271.484 340.593c1.425 0-2.236 1.25-3.58 2.091-1.725 2.218-1.924 4.215-2.864 6.274-1.103 1.812-2.462 4.103-2.864 6.274-1.35 2.353-2.098 3.211-2.148 6.274 0 2.411-.039 5.143.716 6.797 2.171 1.998 4.257 3.132 7.876 4.706 3.099.783 5.371 1.251 8.592 1.569h10.024c2.265.551 6.007.523 9.308.523 3.652-.996 5.035-2.263 8.592-2.614 3.919-.26 4.595-1.458 6.444-3.66 1.719-1.623 2.44-3.458 2.864-5.751 0-2.637-.323-4.907-.716-7.32-1.723-1.411-3.033-3.359-4.296-5.751-2.213-2.77-2.215-4-5.728-5.228-1.71-1.705-4.665-2.534-6.444-3.66-3.72-.194-6.544-.532-9.308-1.569-3.302 0-7.043-.028-9.308.523-2.594 0-4.492.179-7.16.523z" fill="#030"/><path d="M323.753 336.491c-.424 0-1.753 1.775-2.864 3.677-1.868 2.545-2.118 4.9-3.58 6.74-.572 2.739-.716 5.53-.716 8.579.325 3.06 1.375 4.167 3.58 5.515 3.317 1.612 4.888 2.359 8.592 3.064 3.202.211 5.504.613 9.308.613 3.426 0 7.031.241 10.024-.613 3.562 0 6.824-.124 10.024-.613 1.644-1.192 5.177-2.26 7.16-3.064 2.357-2.444 3.486-4.874 5.012-6.741 0-3.614.033-5.728-2.148-8.579-1.557-2.351-3.423-3.43-5.728-5.515-2.889-.86-5.323-2.648-8.592-3.064h-30.072z" fill="#030"/><path d="M377.45 354.859c-2.703.964-3.693 1.214-5.012 3.677-1.987 2.618-3.157 3.85-5.012 5.515-.426 2.452-1.566 5.107-2.864 6.741-.393 2.828-.716 5.488-.716 8.579 1.815 2.387 4.337 4.638 7.16 6.128 2.92.865 5.998 2.183 8.592 3.064 3.339.748 6.429 1.618 10.024 1.838 3.103.664 6.521.613 10.024.613 3.184-.592 5.912-1.28 8.592-3.064 1.433-1.912 3.077-4.065 3.58-7.353 1.184-3.041.232-7.014-1.432-9.804-.877-2.752-2.157-3.817-5.728-5.515-1.976-1.786-4.602-3.798-6.444-4.902-2.271-1.687-5.221-1.896-8.592-3.064-3.652-.694-4.875-1.594-8.592-1.838l8.592 1.838c-3.65-.694-4.873-1.593-12.171-2.451z" fill="#030"/><path d="M310.599 379.429c-4.144.987-6.072 2.176-9.058 3.796 0 2.521.594 4.047.906 6.169 1.886 1.349 3.886 4.061 5.435 5.22 1.181 1.941 3.765 3.459 5.435 4.746 4.183.887 8.429 1.551 12.682 2.373 5.004 0 8.213.587 12.682.949 3.787.661 8.347.475 12.682.475 4.432 0 8.755-.04 12.682.475 4.191.39 7.287 1.243 11.776 1.424 2.578-.129 7.146-.324 10.87-.475 4.171-.993 5.974-1.626 8.153-3.322 2.041-1.294 1.812-3.211 1.812-5.695.871-2.557 1.138-4.277-.906-6.644-.059-2.554-.988-3.754-1.812-6.169-1.634-1.713-3.071-2.466-6.341-3.322-2.972-1.085-6.997-1.709-9.964-2.847-4.043-.252-8.573-.584-11.776-.949-3.542-1.237-6.492-1.865-11.776-1.898-5.175-.323-7.614-.645-11.776.475-4.346.163-8.241.618-10.87 1.424-3.342.135-8.314.28-10.87.949-4.033 0-5.433.367-9.058.475l9.058-.475c-4.033 0-5.433.367-9.964 2.847z" fill="#030"/><path d="M299.41 422.271c-1.849-.233-7.43-.613-11.456-.613-3.761 0-6.82.213-10.024 1.225-3.429.566-5.97 1.489-8.592 2.451-2.173.881-4.71 1.777-6.444 3.064-2.131 1.24-3.926 2.331-5.728 4.902-1.925 2.363-2.126 3.886-3.58 6.741v8.579c.252 2.809.705 5.237 2.148 7.966 2.159 1.478 5.15 1.944 7.876 2.451 2.592.482 5.966 1.021 9.308 1.225 3.973 0 6.089.171 9.308 1.226 4.191-.133 4.991-.967 8.592-2.451 4.005-1.359 6.39-1.862 10.024-3.677 2.224-1.501 3.689-4.042 5.012-6.74 2.016-2.788 3.401-5.478 5.012-7.966.776-2.656.716-5.58.716-8.579-.955-2.303-2.473-3.277-4.296-5.515-1.985-1.858-2.869-3.292-4.296-4.902l4.296 4.902c-1.985-1.858-2.869-3.292-7.876-4.289z" fill="#030"/><path d="M366.197 412.848c3.824.313 7.944.37 12.868 0 4.088.612 7.1 1.734 10.111 2.556 1.688 1.739 4.051 4.298 6.434 5.623 1.035 2.11 2.562 2.995 4.596 5.112.507 2.086 1.757 4.18 0 6.134-2.095 1.457-5.386 2.307-8.272 3.067-3.81 1.132-6.037 1.549-11.03 2.045-4.109.408-8.296.511-12.868.511-4.423-.439-7.834-.846-11.949-1.022-4.092-.406-8.776-.616-12.868-1.023-2.657-.864-6.086-1.574-9.191-2.045-2.156-1.144-5.277-2.442-8.272-3.578-2.313-2.303-4.418-3.133-6.434-5.112-1.831-1.497-2.7-3.429-2.757-6.134 1.449-1.641 3.842-3.233 5.515-4.601 2.869-1.054 6.112-2.453 10.11-3.578 5.401-.106 7.509-.987 12.868-1.023h13.787c3.12.174 4.66 1.714 7.353 3.067z" fill="#030"/></g><g fill-rule="evenodd" stroke="#000" stroke-width="3.711" fill="#006a00"><path d="M326.644 635.409l1.55-2.444-4.653-.423 3.184-3.344-4.696-1.195 4.441-3.439-4.738-1.968 4.924-2.312-2.727-3.671 5.072.391-2.35-4.476 5.995 1.872-.339-6.179 4.425 3.93 3.056-5.661 2.791 4.83 4.733-5.788 1.91 4.121 7.354-4.048-1.799 5.566 7.795-3.693-1.338 6.306 7.376-3.662-2.616 6.016 7.566-.186-6.097 3.953 6.415 1.84-5.699 3.535 5.242 3.48c-15.694 8.041-27.869 11.162-46.776 6.65z"/><path d="M242.3 632.964l1.55-2.444-4.653-.423 3.184-3.344-4.696-1.195 4.441-3.439-4.738-1.968 4.924-2.312-2.727-3.671 5.072.391-2.35-4.476 5.995 1.872-.339-6.179 4.425 3.93 3.056-5.661 2.791 4.83 4.733-5.788 1.91 4.121 7.354-4.048-1.799 5.566 7.795-3.693-1.338 6.306 7.376-3.662-2.616 6.016 7.566-.186-6.097 3.953 6.415 1.84-5.699 3.535 5.242 3.48c-15.694 8.041-27.869 11.162-46.776 6.65z"/><path d="M373.506 634.183l1.55-2.444-4.653-.423 3.184-3.344-4.696-1.195 4.441-3.439-4.738-1.968 4.924-2.312-2.727-3.671 5.072.391-2.35-4.476 5.995 1.872-.339-6.179 4.425 3.93 3.056-5.661 2.791 4.83 4.733-5.788 1.91 4.121 7.354-4.048-1.799 5.566 7.795-3.693-1.338 6.306 7.376-3.662-2.616 6.016 7.566-.186-6.097 3.953 6.415 1.84-5.699 3.535 5.242 3.48c-15.694 8.041-27.869 11.162-46.776 6.65z"/><path d="M343.307 654.321l1.156-2.729-4.639.557 2.628-3.956-4.797-.194 3.85-4.313-4.955-.946 4.494-3.305-3.233-3.042 5.046-.676-2.984-3.913 6.177.589-1.262-6.01 4.942 2.943 2.155-6.21 3.47 4.169 3.784-6.685 2.497 3.656 6.623-5.521-.932 5.853 7.109-5.264-.367 6.485 6.702-5.146-1.668 6.467 7.412-1.765-5.401 5.164 6.584.47-5.072 4.67 5.677 2.329c-14.223 11.194-25.726 16.811-44.996 16.324z"/><path d="M404.747 653.738l1.55-2.444-4.653-.423 3.184-3.344-4.696-1.195 4.441-3.439-4.738-1.968 4.924-2.312-2.727-3.671 5.072.391-2.35-4.476 5.995 1.872-.339-6.179 4.425 3.93 3.056-5.661 2.791 4.83 4.733-5.788 1.91 4.121 7.354-4.048-1.799 5.566 7.795-3.693-1.338 6.306 7.376-3.662-2.616 6.016 7.566-.186-6.097 3.953 6.415 1.84-5.699 3.535 5.242 3.48c-15.694 8.041-27.869 11.162-46.776 6.65z"/><path d="M369.345 657.408l1.55-2.444-4.653-.423 3.184-3.344-4.696-1.195 4.441-3.439-4.738-1.968 4.924-2.312-2.727-3.671 5.072.391-2.35-4.476 5.995 1.872-.339-6.179 4.425 3.93 3.056-5.661 2.791 4.83 4.733-5.788 1.91 4.121 7.354-4.048-1.799 5.566 7.795-3.693-1.338 6.306 7.376-3.662-2.616 6.016 7.566-.186-6.097 3.953 6.415 1.84-5.699 3.535 5.242 3.48c-15.694 8.041-27.869 11.162-46.776 6.65z"/><path d="M206.895 632.964l1.55-2.444-4.653-.423 3.184-3.344-4.696-1.195 4.441-3.439-4.738-1.968 4.924-2.312-2.727-3.671 5.072.391-2.35-4.476 5.995 1.872-.339-6.179 4.425 3.93 3.056-5.661 2.791 4.83 4.733-5.788 1.91 4.121 7.354-4.048-1.799 5.566 7.795-3.693-1.338 6.306 7.376-3.662-2.616 6.016 7.566-.186-6.097 3.953 6.415 1.84-5.699 3.535 5.242 3.48c-15.694 8.041-27.869 11.162-46.776 6.65z"/><path d="M176.69 653.102l1.156-2.729-4.639.557 2.628-3.956-4.797-.194 3.85-4.313-4.955-.946 4.494-3.305-3.233-3.042 5.046-.676-2.984-3.913 6.177.589-1.262-6.01 4.942 2.943 2.155-6.21 3.47 4.169 3.784-6.685 2.497 3.656 6.623-5.521-.932 5.853 7.109-5.264-.367 6.485 6.702-5.146-1.668 6.467 7.412-1.765-5.401 5.164 6.584.47-5.072 4.67 5.677 2.329c-14.223 11.194-25.726 16.811-44.996 16.324z"/><path d="M238.138 652.519l1.55-2.444-4.653-.423 3.184-3.344-4.696-1.195 4.441-3.439-4.738-1.968 4.924-2.312-2.727-3.671 5.072.391-2.35-4.476 5.995 1.872-.339-6.179 4.425 3.93 3.056-5.661 2.791 4.83 4.733-5.788 1.91 4.121 7.354-4.048-1.799 5.566 7.795-3.693-1.338 6.306 7.376-3.662-2.616 6.016 7.566-.186-6.097 3.953 6.415 1.84-5.699 3.535 5.242 3.48c-15.694 8.041-27.869 11.162-46.776 6.65z"/><path d="M202.73 656.182l1.55-2.444-4.653-.423 3.184-3.344-4.696-1.195 4.441-3.439-4.738-1.968 4.924-2.312-2.727-3.671 5.072.391-2.35-4.476 5.995 1.872-.339-6.179 4.425 3.93 3.056-5.661 2.791 4.83 4.733-5.788 1.91 4.121 7.354-4.048-1.799 5.566 7.795-3.693-1.338 6.306 7.376-3.662-2.616 6.016 7.566-.186-6.097 3.953 6.415 1.84-5.699 3.535 5.242 3.48c-15.694 8.041-27.869 11.162-46.776 6.65z"/><path d="M352.873 634.474l-3.695 2.169 9.268 1.159-7.197 2.797 9.171 1.929-9.75 2.691 9.075 2.699-10.457 1.501 4.625 4.062-10.119-1.194 3.677 4.797-11.628-2.805-.772 6.16-7.982-4.589-7.486 5.108-4.48-5.217-10.891 4.966-2.874-4.377-15.757 2.829 4.932-5.214-16.56 2.409 4.178-6.019-15.709 2.445 6.683-5.528-15.275-1.021 13.204-2.935-12.48-2.84 12.304-2.586-9.733-4.274c33.485-5.448 58.73-6.593 95.728.876z"/></g><path d="M356.34 196.48c0 22.512-18.995 6.66-38.298 6.66-19.302 0-36.632 17.517-39.962.001 0-9.192 25.655-23.313 44.957-23.313 14.308 1.666 36.634-4.196 33.303 16.652z" fill-rule="evenodd" transform="matrix(.59 0 0 .649 210.46 475.84)" stroke="#000" stroke-width="2.5" fill="#510800"/><path d="M356.34 196.48c0 22.512-18.995 6.66-38.298 6.66-19.302 0-36.632 17.517-39.962.001 0-9.192 25.655-23.313 44.957-23.313 14.308 1.666 36.634-4.196 33.303 16.652z" fill-rule="evenodd" transform="matrix(-.59 0 0 .649 407.4 472.89)" stroke="#000" stroke-width="2.5" fill="#ffc600"/><path d="M349.68 188.16c0 13.794-7.082 24.977-15.819 24.977-8.736 0-15.819-11.183-15.819-24.977s7.082-24.977 15.819-24.977c8.736 0 15.819 11.183 15.819 24.977z" fill-rule="evenodd" transform="matrix(.728 0 0 .709 208.88 463.57)" stroke="#000" stroke-width="2.5" fill="#520900"/><g fill-rule="evenodd" stroke="#000" stroke-width="1pt" transform="matrix(-1.349 -.253 -.801 1.346 740.2 222.67)"><path d="M323.854 237.913c4.351-1.966-24.349-33.243-30.096-48.406-5.748-15.164-5.441-15.609-7.676-22.71l-2.807 1.27c.718 4.603 14.137 40.962 27.379 59.899 3.74 5.432.561 15.658 4.776 13.753l8.424-3.806z" fill="#af8000"/><path d="M285.048 167.875l-23.046 2.321s-4.303 3.835-2.293 11.826c2.009 7.991 7.986 11.104 7.986 11.104l20.193-16.393-2.841-8.858z" fill="#808080"/><rect ry="3.532" rx="3.532" transform="matrix(.844 -.297 .284 .885 -19.207 -255.61)" height="19.428" width="7.064" y="534.62" x="175.71" fill="#808080"/></g><path d="M244.77 87.419c7.322-5.947 11.157-3.718 17.649 3.102 9.323 9.815 41.318 58.855 46.313 63.018s4.241-6.417 10.344-1.387c3.032 3.727-10.437 17.026-13.737 14.569-6.411-5.02 3.915-5.374-.354-9.643-4.925-5.133-51.215-40.497-60.282-50.571-5.92-6.577-6.314-13.969.067-19.087z" fill-rule="evenodd" transform="matrix(1.544 .346 .719 1.141 -105.28 167.64)" stroke="#000" stroke-width="1.25" fill="#923d09"/><g stroke="#000"><path d="M164.074 461.412c-4.322 1.951-12.03 20.339-14.947 20.194-4.629-.212-23.139-34.204-20.173-38.919 2.057-3.637 18.887 18.166 19.975 19.46.186-3.793 4.434-22.51 7.87-26.436 4.064-4.106 8.954-1.833 13.294-2.938 2.029-1.254 5.238-6.199 6.611-11.014-2.275-1.563-4.26-1.093-6.48-4.697-1.579-2.929-.662-20.689-.103-22.517 3.695-6.292-1.509-3.231 10.849-4.005 17.867-1.079 21.094 21.866 8.8 31.219.962 7.024 3.953 8.641 6.377 9.546 2.44.047 10.794-.336 15.442 5.508 9.286 10.827 2.481 13.629 4.268 15.788 1.994 2.489 4.967 8.744 6.085 12.483 2.911 2.203 27.657-2.203 32.387-.734 4.565.426 15.698 6.976 20.336 11.749-.991 6.237-67.14-3.353-69.297-1.101-1.653 1.475.752 22.596-.559 24.233-.461 3.997-32.398 2.571-34.917 2.571-2.101-8.317-4.278-35.967-5.817-40.388z" fill-rule="evenodd" fill="#ffc600"/><path d="M167.474 394.411c-.514 7.892 2.37 1.024 12.777 1.024 20.166-1.561 13.082 30.751 13.082 20.778 8.734-4.25 14.93-31.09-9.862-30.049-7.838 0-14.971 2.436-15.999 8.247z" fill-rule="evenodd"/><path d="M202.594 451.31c0 .741.075 3.509.363 5.14.194 1.649.671 3.562 1.089 4.773.149 1.963.912 2.282 1.089 4.406.673 1.001.963 2.621 1.089 4.406 0 1.883-.299 3.333-.363 5.14-.21 1.57-.703 2.807-.726 4.773 0 1.925.002 3.329.726 4.406v2.57" fill="none"/><path d="M204.412 442.498c-.253 0-.449 8.877-2.541 11.015-.453 1.416-1.994 3.238-2.541 4.406-.729 1.084-1.736 2.367-3.63 2.938h-5.082c-2.02 0-3.258.024-4.719-.734-.647-.353-1.104-.814-1.452-1.469" fill="none"/><path d="M179.002 459.754h-.363c1.015 0 .476-.046-1.452.734-.752 1.119-1.643 1.599-2.904 2.203-1.3.647-2.786.734-4.719.734-1.83-.156-2.939-.744-3.993-1.469-1.763-.577-2.099-1.294-2.541-3.304v-5.14c.208-1.557.603-2.81 1.089-4.039.183-.555.363-.311.363-1.101" fill="none"/><path d="M149.236 462.325c.185 0 1.155 1.136 1.815 2.203 1.12.405 1.41 1.639 1.815 2.57.292 1.18.726 1.261.726 2.938.731 1.635.961 3.09 1.089 4.773l-1.089-4.773c.731 1.635.961 3.09 1.089 4.773" fill="none"/><path d="M170.652 432.952h.363c-.981 0-.479-.024 1.452.367.792 1.001 2.096 1.899 3.267 2.57 1.298.805 2.34 1.768 3.63 2.203l-3.63-2.203c1.298.805 2.34 1.768 3.63 2.203" fill="none"/><path d="M196.424 431.483h-.363c.98 0 .482-.024-1.452.367-1.28.613-2.072 1.275-3.267 2.203-.563.853-1.42 1.017-1.815 2.57-.686.374-.926.736-1.089 1.836" fill="none"/><path d="M185.533 421.937h-1.815c-1.975 0-2.936.3-4.719.367-1.543-.187-1.911-.766-3.267-1.101" fill="none"/><path d="M178.636 467.467c-.061.292-.72 1.877-1.089 2.57-.661 1.108-1.543 2.167-1.815 3.672-.422 1.281-.665 2.747-.726 4.406-.332 1.545-.551 2.919.363 4.039.392 1.452 1.121 2.51 1.815 4.039.484 0 .363-.123.363.367" fill="none"/><path d="M190.255 468.199v.367c0-.991-.024-.487.363 1.469.5 1.77.937 3.258 1.815 4.406.479 1.453 1.014 1.986 1.089 4.039-.289.681-.363 1.439-.363 2.57" fill="none"/><path d="M192.069 483.254v1.836c-.396.534-.24.571-.726.734" fill="none"/><path d="M222.196 465.262v.367c0-1.026.112-.413-1.815.367-1.557.281-3.461.457-4.719.734-1.165.579-2.296 1.535-3.267 2.203-.869.762-2.101 1.535-3.267 2.203-1.31.662-1.886 1.245-2.541 2.57-.395.534-.239.57-.726.734" fill="none"/><path d="M190.806 402.936c-.084-.081-1.682-.844-3.407-1.101-1.231-.597-3.282-.326-4.542 0" fill="none"/><path d="M179.552 401.835h-.441c1.191 0 .586.024-1.765-.367-1.845-.512-4.066-.367-6.178-.367-.622.173-.441.107-.441.734" fill="none"/><path d="M179.992 406.975v.367c0-1.026.055-.481-.883 1.469-.341 1.306-.933 3.109-.441 4.039 1.158 0 1.515-.121 2.206-.367" fill="none"/><path d="M173.677 415.723c-.167.798 1.837 1.757 4.478 2.141 2.64.384 4.916.049 5.084-.749s-1.837-1.757-4.478-2.141c-2.64-.384-4.916-.049-5.084.749z" fill-rule="evenodd"/><path d="M183.282 402.56c-.122.525 1.328 1.155 3.24 1.408 1.912.253 3.561.033 3.683-.492s-1.328-1.155-3.24-1.408c-1.912-.253-3.561-.033-3.683.492z" fill-rule="evenodd"/><path d="M171.805 401.452c-.122.525 1.328 1.155 3.24 1.408 1.912.253 3.561.033 3.683-.492s-1.328-1.155-3.24-1.408c-1.912-.253-3.561-.033-3.683.492z" fill-rule="evenodd"/><path d="M191.707 458.836c0 .913.813 1.652 1.815 1.652s1.815-.74 1.815-1.652-.813-1.652-1.815-1.652-1.815.74-1.815 1.652z" fill-rule="evenodd"/><path d="M167.02 461.592c0 .608.569 1.101 1.271 1.101s1.271-.493 1.271-1.101-.569-1.101-1.271-1.101-1.271.493-1.271 1.101z" fill-rule="evenodd"/><path d="M176.822 422.672v.367c0-1.233-.086-.454 1.815 1.469 1.624.787 2.252 1.617 2.904 2.937.76 1.698 1.021 2.916 1.089 4.773v2.937" fill="none"/><path d="M188.803 422.304c-.252 0-.644 1.002-1.089 2.203-.809.965-1.324 2.36-1.452 4.039 0 1.993-.34 2.846-.363 4.773v1.469" fill="none"/><path d="M151.774 465.628c0 .212 1.134.642 1.815 1.469 1.378.189 2.6.367 4.356.367.266-.404.8-.537 1.452-.734" fill="none"/></g><g fill-rule="evenodd" stroke="#000" stroke-width="3.75" fill="#fff"><path d="M206.528 487.186l-39.802.476v3.334s-3.755 4.286-6.008 13.811-4.506 45.242-4.506 45.242l-9.762 40.48s6.008 6.191 10.514 5.715c4.505-.476 18.023-3.81 18.023-4.286 0-.476.751-22.859 2.253-38.098 1.502-15.24 4.506-23.335 11.265-30.001 9.012 13.81 9.763 28.097 9.012 28.097s-.751 11.429-1.502 20.002c-.751 8.572.751 20.478.751 20.478l26.284-.953s-.751-10.477-1.502-18.573-3.042-11.905-3.755-20.954c-.788-9.999-1.895-15.249-3.004-31.431-1.46-13.081-6.624-21.524-8.073-29.527-.393-2.04.188-3.572-.188-3.81z"/><path d="M188.502 524.332s3.755-3.81 5.257-10.477l1.502-8.096"/><path d="M196.764 543.382l4.505 11.429"/><path d="M179.466 540.997l-5.257 15.715"/><path d="M156.21 596.244l5.259-23.338"/><path d="M206.528 489.567l-39.802.476"/><path d="M187.753 523.854c0-.476-2.253-8.572-2.253-8.572"/><path d="M202.771 489.567l3.755 24.288"/></g><g><path d="M549.21 538.58c0 136.98-111.05 248.03-248.03 248.03s-248.03-111.05-248.03-248.03 111.05-248.03 248.03-248.03 248.03 111.05 248.03 248.03z" stroke="#006a00" stroke-width="6.25" fill="none"/><g><path d="M572.498 485.435c31.181 26.575-6.174 53.149-23.386 53.149s-54.569-26.575-23.386-53.149c-7.795 26.575 23.386 33.219 23.386 46.508 0-13.287 31.181-19.931 23.386-46.508z" fill-rule="evenodd" fill="#006a00"/><path d="M336.61 432.28c35.433 124.02-53.149 106.3-53.149 141.73 0-35.433-88.583-17.717-53.15-141.73" stroke="#000" fill="none" transform="matrix(.44 0 0 .375 424.39 323.33)"/></g><g><path d="M279.324 262.028c29.906-28.134 52.178 11.957 50.261 29.09-1.917 17.134-32.51 51.415-55.47 17.469 25.565 10.666 35.646-19.647 48.864-18.195-13.217-1.452-16.352-33.218-43.655-28.364z" fill-rule="evenodd" fill="#006a00"/><path d="M336.61 432.28c35.433 124.02-53.149 106.3-53.149 141.73 0-35.433-88.583-17.717-53.15-141.73" stroke="#000" fill="none" transform="matrix(.049 -.438 .373 .041 101.59 391.74)"/></g><g><path d="M358.48 801.253c-21.615 34.795-53.508 1.833-56.09-15.183-2.582-17.017 18.106-57.917 49.074-31.057-27.461-3.738-29.356 28.08-42.504 30.065 13.146-1.985 24.395 27.85 49.519 16.175z" fill-rule="evenodd" fill="#006a00"/><path d="M336.61 432.28c35.433 124.02-53.149 106.3-53.149 141.73 0-35.433-88.583-17.717-53.15-141.73" stroke="#000" fill="none" transform="matrix(.066 .435 -.371 .056 496.64 630.62)"/></g><g><path d="M27.981 553.999c-29.48-28.418 9.419-52.628 26.592-51.572 17.173 1.056 52.815 29.852 20.073 54.442 9.408-26.026-21.295-34.565-20.48-47.819-.815 13.252-32.333 17.964-26.185 44.948z" fill-rule="evenodd" fill="#006a00"/><path d="M336.61 432.28c35.433 124.02-53.149 106.3-53.149 141.73 0-35.433-88.583-17.717-53.15-141.73" stroke="#000" fill="none" transform="matrix(-.439 -.027 .023 -.374 165.81 724.76)"/></g><g><path d="M549.642 418.095c36.496 18.709 6.169 53.149-10.612 57.099-16.782 3.951-59.299-13.34-34.99-46.363-1.506 27.656 30.419 26.965 33.467 39.899-3.048-12.933 25.831-26.557 12.135-50.635z" fill-rule="evenodd" fill="#006a00"/><path d="M336.61 432.28c35.433 124.02-53.149 106.3-53.149 141.73 0-35.433-88.583-17.717-53.15-141.73" stroke="#000" fill="none" transform="matrix(.429 -.101 .086 .365 368.06 294.31)"/></g><g><path d="M204.047 280.648c19.347-36.071 53.178-5.163 56.816 11.657 3.638 16.821-14.403 58.927-46.93 34.051 27.585 2.02 27.479-29.852 40.448-32.652-12.968 2.8-26.043-26.274-50.334-13.056z" fill-rule="evenodd" fill="#006a00"/><path d="M336.61 432.28c35.433 124.02-53.149 106.3-53.149 141.73 0-35.433-88.583-17.717-53.15-141.73" stroke="#000" fill="none" transform="matrix(-.093 -.43 .366 -.079 77.137 459.54)"/></g><g><path d="M438.046 770.284c-8.504 40.039-49.717 19.798-57.932 4.659-8.215-15.139-2.658-60.61 35.609-45.797-27.107 5.758-18.071 36.336-29.765 42.645 11.693-6.307 32.421 17.965 52.088-1.507z" fill-rule="evenodd" fill="#006a00"/><path d="M336.61 432.28c35.433 124.02-53.149 106.3-53.149 141.73 0-35.433-88.583-17.717-53.15-141.73" stroke="#000" fill="none" transform="matrix(.21 .387 -.33 .178 510.01 563.07)"/></g><g><path d="M43.09 623.478c-36.992-17.575-7.785-52.906 8.841-57.365 16.626-4.46 59.583 11.515 36.337 45.247.656-27.674-31.181-26.008-34.619-38.836 3.437 12.827-24.963 27.319-10.558 50.954z" fill-rule="evenodd" fill="#006a00"/><path d="M336.61 432.28c35.433 124.02-53.149 106.3-53.149 141.73 0-35.433-88.583-17.717-53.15-141.73" stroke="#000" fill="none" transform="matrix(-.425 .114 -.097 -.362 228.08 741.59)"/></g><g><path d="M512.457 366.633c40.606 5.74 23.268 48.24 8.716 57.472-14.552 9.232-60.38 6.804-48.26-32.385 7.654 26.646 37.577 15.538 44.7 26.771-7.122-11.232 15.679-33.573-5.157-51.858z" fill-rule="evenodd" fill="#006a00"/><path d="M336.61 432.28c35.433 124.02-53.149 106.3-53.149 141.73 0-35.433-88.583-17.717-53.15-141.73" stroke="#000" fill="none" transform="matrix(.372 -.236 .201 .317 300.35 309.04)"/></g><g><path d="M140.122 316.776c10.205-39.756 50.471-17.829 58.021-2.338 7.55 15.491.054 60.805-37.505 44.433 27.302-4.677 19.595-35.663 31.537-41.511-11.941 5.847-31.588-19.293-52.052-.584z" fill-rule="evenodd" fill="#006a00"/><path d="M336.61 432.28c35.433 124.02-53.149 106.3-53.149 141.73 0-35.433-88.583-17.717-53.15-141.73" stroke="#000" fill="none" transform="matrix(-.193 -.396 .337 -.165 59.409 521.4)"/></g><g><path d="M494.802 728.04c3.26 40.819-41.922 33.195-54.088 21.029-12.166-12.166-19.791-57.35 21.029-54.088-24.29 13.27-6.945 40.004-16.336 49.395 9.389-9.39 36.124 7.955 49.395-16.336z" fill-rule="evenodd" fill="#006a00"/><path d="M336.61 432.28c35.433 124.02-53.149 106.3-53.149 141.73 0-35.433-88.583-17.717-53.15-141.73" stroke="#000" fill="none" transform="matrix(.311 .311 -.265 .265 504.67 508.8)"/></g><g><path d="M70.406 681.221c-40.181-8.292-20.237-49.604-5.138-57.897 15.1-8.293 60.698-2.977 46.169 35.361-5.988-27.071-36.549-17.876-42.964-29.535 6.414 11.657-17.734 32.51 1.932 52.07z" fill-rule="evenodd" fill="#006a00"/><path d="M336.61 432.28c35.433 124.02-53.149 106.3-53.149 141.73 0-35.433-88.583-17.717-53.15-141.73" stroke="#000" fill="none" transform="matrix(-.386 .212 -.181 -.329 278.58 752.08)"/></g><g><path d="M458.535 318.839c40.677-5.102 35.092 40.418 23.474 53.131-11.618 12.714-56.464 22.377-55.045-18.584 14.368 23.687 40.323 5.138 50.139 14.103-9.815-8.964 6.325-36.478-18.568-48.65z" fill-rule="evenodd" fill="#006a00"/><path d="M336.61 432.28c35.433 124.02-53.149 106.3-53.149 141.73 0-35.433-88.583-17.717-53.15-141.73" stroke="#000" fill="none" transform="matrix(.297 -.325 .277 .253 238.82 318.87)"/></g><g><path d="M87.578 365.179c-.567-40.961 44.037-30.363 55.381-17.415 11.345 12.948 15.982 58.555-24.554 52.6 25.122-11.64 9.567-39.472 19.56-48.226-9.992 8.752-35.539-10.329-50.387 13.041z" fill-rule="evenodd" fill="#006a00"/><path d="M336.61 432.28c35.433 124.02-53.149 106.3-53.149 141.73 0-35.433-88.583-17.717-53.15-141.73" stroke="#000" fill="none" transform="matrix(-.29 -.331 .282 -.247 63.292 583.37)"/></g><g><path d="M533.451 670.373c12.827 38.906-32.913 42.141-47.621 33.182-14.709-8.958-32.813-51.078 7.653-57.525-20.481 18.62 2.71 40.518-4.2 51.858 6.909-11.339 37.01-.779 44.168-27.515z" fill-rule="evenodd" fill="#006a00"/><path d="M336.61 432.28c35.433 124.02-53.149 106.3-53.149 141.73 0-35.433-88.583-17.717-53.15-141.73" stroke="#000" fill="none" transform="matrix(.376 .229 -.195 .32 491.18 454.96)"/></g><g><path d="M115.51 732.937c-40.961 2.551-32.544-42.561-20.143-54.531 12.401-11.97 57.81-18.816 53.84 22.003-12.88-24.555-39.968-7.654-49.218-17.221 9.248 9.567-8.593 36.035 15.521 49.749z" fill-rule="evenodd" fill="#006a00"/><path d="M336.61 432.28c35.433 124.02-53.149 106.3-53.149 141.73 0-35.433-88.583-17.717-53.15-141.73" stroke="#000" fill="none" transform="matrix(-.317 .306 -.261 -.27 335.04 746.65)"/></g><g><path d="M402.569 282.15c38.906-12.968 42.296 32.785 33.377 47.533-8.919 14.748-51.025 33.008-57.614-7.458 18.709 20.428 40.553-2.852 51.929 4.022-11.374-6.874-.903-37.027-27.692-44.097z" fill-rule="evenodd" fill="#006a00"/><path d="M336.61 432.28c35.433 124.02-53.149 106.3-53.149 141.73 0-35.433-88.583-17.717-53.15-141.73" stroke="#000" fill="none" transform="matrix(.228 -.377 .321 .194 187.06 325.19)"/></g><g><path d="M50.462 431.328c-14.315-38.41 31.339-43.485 46.399-35.114 15.061 8.371 34.779 49.784-5.474 57.862 19.79-19.453-4.252-40.429 2.233-52.053-6.484 11.622-37.01 2.268-43.158 29.305z" fill-rule="evenodd" fill="#006a00"/><path d="M336.61 432.28c35.433 124.02-53.149 106.3-53.149 141.73 0-35.433-88.583-17.717-53.15-141.73" stroke="#000" fill="none" transform="matrix(-.385 -.214 .183 -.328 100.95 645.15)"/></g><g><path d="M560.696 620.618c17.22 37.205-27.864 45.592-43.511 38.356-15.648-7.237-38.482-47.038.992-58.021-18.213 20.817 7.352 39.951 1.789 52 5.563-12.047 36.691-4.96 40.731-32.334z" fill-rule="evenodd" fill="#006a00"/><path d="M336.61 432.28c35.433 124.02-53.149 106.3-53.149 141.73 0-35.433-88.583-17.717-53.15-141.73" stroke="#000" fill="none" transform="matrix(.4 .185 -.157 .34 493.92 411.37)"/></g><g><path d="M192.265 784.752c-37.63 16.228-44.885-29.069-37.257-44.521 7.628-15.452 47.995-37.224 57.986 2.533-20.356-18.762-40.128 6.289-52.035.407 11.906 5.881 4.039 36.815 31.307 41.581z" fill-rule="evenodd" fill="#006a00"/><path d="M336.61 432.28c35.433 124.02-53.149 106.3-53.149 141.73 0-35.433-88.583-17.717-53.15-141.73" stroke="#000" fill="none" transform="matrix(-.195 .395 -.336 -.166 403.15 723.55)"/></g><g><path d="M576.235 559.049c24.661 32.74-17.655 50.526-34.476 46.771-16.821-3.755-47.518-37.843-11.233-56.976-13.429 24.236 15.59 37.524 12.685 50.494 2.905-12.969 34.831-12.649 33.024-40.289z" fill-rule="evenodd" fill="#006a00"/><path d="M336.61 432.28c35.433 124.02-53.149 106.3-53.149 141.73 0-35.433-88.583-17.717-53.15-141.73" stroke="#000" fill="none" transform="matrix(.43 .096 -.082 .366 466.94 368.52)"/></g><g><path d="M341.915 267.578c35.292-20.834 48.308 23.128 42.714 39.401-5.594 16.274-42.892 42.947-57.915 4.819 22.624 16.016 39.047-11.303 51.628-6.98-12.579-4.322-8.734-35.964-36.427-37.24z" fill-rule="evenodd" fill="#006a00"/><path d="M336.61 432.28c35.433 124.02-53.149 106.3-53.149 141.73 0-35.433-88.583-17.717-53.15-141.73" stroke="#000" fill="none" transform="matrix(.143 -.416 .355 .122 140.32 354.87)"/></g><g><path d="M269.509 806.959c-33.591 23.457-49.891-19.442-45.548-36.106 4.342-16.665 39.491-46.1 57.348-9.178-23.758-14.28-38.055 14.226-50.919 10.86 12.862 3.366 11.427 35.238 39.12 34.423z" fill-rule="evenodd" fill="#006a00"/><path d="M336.61 432.28c35.433 124.02-53.149 106.3-53.149 141.73 0-35.433-88.583-17.717-53.15-141.73" stroke="#000" fill="none" transform="matrix(-.111 .426 -.363 -.095 463.79 704.63)"/></g><g><path d="M31.981 488.606c-22.606-34.229 20.675-49.297 37.222-44.485 16.547 4.812 45.09 40.766 7.743 57.56 14.864-23.333-13.269-38.427-9.584-51.185-3.685 12.756-35.504 10.417-35.38 38.11z" fill-rule="evenodd" fill="#006a00"/><path d="M336.61 432.28c35.433 124.02-53.149 106.3-53.149 141.73 0-35.433-88.583-17.717-53.15-141.73" stroke="#000" fill="none" transform="matrix(-.423 -.123 .104 -.36 129.41 685.63)"/></g></g><g stroke="#000"><path d="M448.018 464.035c4.322 1.951 12.03 20.339 14.947 20.194 4.629-.212 23.139-34.204 20.173-38.919-2.057-3.637-18.887 18.166-19.975 19.46-.186-3.793-4.434-22.51-7.87-26.436-4.064-4.106-8.954-1.833-13.294-2.938-2.029-1.254-5.238-6.199-6.611-11.014 2.275-1.563 4.26-1.093 6.48-4.697 1.579-2.929.662-20.689.103-22.517-3.695-6.292 1.509-3.231-10.849-4.005-17.867-1.079-21.094 21.866-8.8 31.219-.962 7.024-3.953 8.641-6.377 9.546-2.44.047-10.794-.336-15.442 5.508-9.286 10.827-2.481 13.629-4.268 15.788-1.994 2.489-4.967 8.744-6.085 12.483-2.911 2.203-27.657-2.203-32.387-.734-4.565.426-15.698 6.976-20.336 11.749.991 6.237 67.14-3.353 69.297-1.101 1.653 1.475-.752 22.596.559 24.233.461 3.997 32.398 2.571 34.917 2.571 2.101-8.317 4.278-35.967 5.817-40.388z" fill-rule="evenodd" fill="#520900"/><path d="M444.625 397.036c.514 7.892-2.37 1.024-12.777 1.024-20.166-1.561-13.082 30.751-13.082 20.778-8.734-4.25-14.93-31.09 9.862-30.049 7.838 0 14.971 2.436 15.999 8.247z" fill-rule="evenodd"/><path d="M409.5 453.934c0 .741-.075 3.509-.363 5.14-.194 1.649-.671 3.562-1.089 4.773-.149 1.963-.912 2.282-1.089 4.406-.673 1.001-.963 2.621-1.089 4.406 0 1.883.299 3.333.363 5.14.21 1.57.703 2.807.726 4.773 0 1.925-.002 3.329-.726 4.406v2.57" fill="none"/><path d="M407.682 445.122c.253 0 .449 8.877 2.541 11.015.453 1.416 1.994 3.238 2.541 4.406.729 1.084 1.736 2.367 3.63 2.938h5.082c2.02 0 3.258.024 4.719-.734.647-.353 1.104-.814 1.452-1.469" fill="none"/><path d="M433.092 462.378h.363c-1.015 0-.476-.046 1.452.734.752 1.119 1.643 1.599 2.904 2.203 1.3.647 2.786.734 4.719.734 1.83-.156 2.939-.744 3.993-1.469 1.763-.577 2.099-1.294 2.541-3.304v-5.14c-.208-1.557-.603-2.81-1.089-4.039-.183-.555-.363-.311-.363-1.101" fill="none"/><path d="M462.858 464.949c-.185 0-1.155 1.136-1.815 2.203-1.12.405-1.41 1.639-1.815 2.57-.292 1.18-.726 1.261-.726 2.938-.731 1.635-.961 3.09-1.089 4.773l1.089-4.773c-.731 1.635-.961 3.09-1.089 4.773" fill="none"/><path d="M441.442 435.576h-.363c.981 0 .479-.024-1.452.367-.792 1.001-2.096 1.899-3.267 2.57-1.298.805-2.34 1.768-3.63 2.203l3.63-2.203c-1.298.805-2.34 1.768-3.63 2.203" fill="none"/><path d="M415.67 434.107h.363c-.98 0-.482-.024 1.452.367 1.28.613 2.072 1.275 3.267 2.203.563.853 1.42 1.017 1.815 2.57.686.374.926.736 1.089 1.836" fill="none"/><path d="M426.561 424.561h1.815c1.975 0 2.936.3 4.719.367 1.543-.187 1.911-.766 3.267-1.101" fill="none"/><path d="M433.458 470.091c.061.292.72 1.877 1.089 2.57.661 1.108 1.543 2.167 1.815 3.672.422 1.281.665 2.747.726 4.406.332 1.545.551 2.919-.363 4.039-.392 1.452-1.121 2.51-1.815 4.039-.484 0-.363-.123-.363.367" fill="none"/><path d="M421.839 470.823v.367c0-.991.024-.487-.363 1.469-.5 1.77-.937 3.258-1.815 4.406-.479 1.453-1.014 1.986-1.089 4.039.289.681.363 1.439.363 2.57" fill="none"/><path d="M420.025 485.878v1.836c.396.534.24.571.726.734" fill="none"/><path d="M389.898 467.886v.367c0-1.026-.112-.413 1.815.367 1.557.281 3.461.457 4.719.734 1.165.579 2.296 1.535 3.267 2.203.869.762 2.101 1.535 3.267 2.203 1.31.662 1.886 1.245 2.541 2.57.395.534.239.57.726.734" fill="none"/><path d="M421.292 405.551c.084-.081 1.682-.844 3.407-1.101 1.231-.597 3.282-.326 4.542 0" fill="none"/><path d="M432.55 404.45h.441c-1.191 0-.586.024 1.765-.367 1.845-.512 4.066-.367 6.178-.367.622.173.441.107.441.734" fill="none"/><path d="M432.11 409.59v.367c0-1.026-.055-.481.883 1.469.341 1.306.933 3.109.441 4.039-1.158 0-1.515-.121-2.206-.367" fill="none"/><path d="M438.423 418.348c.167.798-1.837 1.757-4.478 2.141-2.64.384-4.916.049-5.084-.749s1.837-1.757 4.478-2.141c2.64-.384 4.916-.049 5.084.749z" fill-rule="evenodd"/><path d="M428.816 405.178c.122.525-1.328 1.155-3.24 1.408-1.912.253-3.561.033-3.683-.492s1.328-1.155 3.24-1.408c1.912-.253 3.561-.033 3.683.492z" fill-rule="evenodd"/><path d="M440.298 404.076c.122.525-1.328 1.155-3.24 1.408-1.912.253-3.561.033-3.683-.492s1.328-1.155 3.24-1.408c1.912-.253 3.561-.033 3.683.492z" fill-rule="evenodd"/><path d="M420.387 461.46c0 .913-.813 1.652-1.815 1.652s-1.815-.74-1.815-1.652.813-1.652 1.815-1.652 1.815.74 1.815 1.652z" fill-rule="evenodd"/><path d="M445.074 464.216c0 .608-.569 1.101-1.271 1.101s-1.271-.493-1.271-1.101.569-1.101 1.271-1.101 1.271.493 1.271 1.101z" fill-rule="evenodd"/><path d="M435.272 425.296v.367c0-1.233.086-.454-1.815 1.469-1.624.787-2.252 1.617-2.904 2.937-.76 1.698-1.021 2.916-1.089 4.773v2.937" fill="none"/><path d="M423.291 424.928c.252 0 .644 1.002 1.089 2.203.809.965 1.324 2.36 1.452 4.039 0 1.993.34 2.846.363 4.773v1.469" fill="none"/><path d="M460.32 468.252c0 .212-1.134.642-1.815 1.469-1.378.189-2.6.367-4.356.367-.266-.404-.8-.537-1.452-.734" fill="none"/></g><g fill-rule="evenodd" stroke="#000" stroke-width="3.75" fill="#fff"><path d="M405.572 489.796l39.802.476v3.334s3.755 4.286 6.008 13.811 4.506 45.242 4.506 45.242l9.762 40.48s-6.008 6.191-10.514 5.715c-4.505-.476-18.023-3.81-18.023-4.286 0-.476-.751-22.859-2.253-38.098-1.502-15.24-4.506-23.335-11.265-30.001-9.012 13.81-9.763 28.097-9.012 28.097s.751 11.429 1.502 20.002c.751 8.572-.751 20.478-.751 20.478l-26.284-.953s.751-10.477 1.502-18.573 3.042-11.905 3.755-20.954c.788-9.999 1.895-15.249 3.004-31.431 1.46-13.081 6.624-21.524 8.073-29.527.393-2.04-.188-3.572.188-3.81z"/><path d="M423.598 526.942s-3.755-3.81-5.257-10.477l-1.502-8.096"/><path d="M415.336 545.992l-4.505 11.429"/><path d="M432.634 543.607l5.257 15.715"/><path d="M455.89 598.854l-5.259-23.338"/><path d="M405.572 492.177l39.802.476"/><path d="M424.347 526.464c0-.476 2.253-8.572 2.253-8.572"/><path d="M409.329 492.177l-3.755 24.288"/></g><path d="M349.68 188.16c0 13.794-7.082 24.977-15.819 24.977-8.736 0-15.819-11.183-15.819-24.977s7.082-24.977 15.819-24.977c8.736 0 15.819 11.183 15.819 24.977z" fill-rule="evenodd" transform="matrix(.728 0 0 .709 -82.219 465.05)" stroke="#000" stroke-width="2.5" fill="#ffc600"/><g transform="matrix(.44 0 0 .52 142.76 215.7)"><g fill-rule="evenodd" stroke="#000"><path d="M177.166 892.69s53.15-17.716 70.867-17.716c17.716 0 17.716 17.716 19.135 18.212l-1.419 34.937h-88.583v-35.433z" fill="#00cfe6"/><path d="M265.75 981.29s0 17.716 17.717 17.716c17.716 0 35.433.496 53.149.001v-53.15h-70.866v35.433z" fill="#00cfe6"/><path d="M602.36 892.91s-53.15-17.716-70.867-17.716c-17.716 0-17.716 17.716-19.135 18.212l1.419 34.937h88.583v-35.433z" fill="#00cfe6"/><path d="M513.78 981.49s0 17.716-17.717 17.716c-17.716 0-35.433.496-53.149.001v-53.15h70.866v35.433z" fill="#00cfe6"/><path d="M478.35 981.5s0 17.717 17.716 17.717h-53.15l35.434-17.717z" fill="#fff"/><path d="M655.51 892.905l-124.02 53.15s42.047 33.299 82.679 35.433c20.67 0 41.34-35.433 41.34-35.433v-53.15z" fill="#00cfe6"/><path d="M513.78 910.627c-.71-8.858 2.214-35.434 19.931-35.434h-55.364c-17.717 0-35.434 17.717-35.434 35.434l1.419 35.432 69.448.001v-35.433z" fill="#fff"/><path d="M301.18 981.3s0 17.717-17.716 17.717h53.15l-35.434-17.717z" fill="#fff"/><path d="M124.021 892.684l124.02 53.15s-42.047 33.299-82.679 35.433c-20.67 0-41.34-35.433-41.34-35.433v-53.15z" fill="#00cfe6"/><path d="M265.747 910.406c.71-8.858-2.214-35.434-19.931-35.434h55.364c17.717 0 35.434 17.717 35.434 35.434l-1.419 35.432-69.448.001v-35.433z" fill="#fff"/><path d="M88.692 891.9c-.11 1.012 17.607-34.421 53.04-34.421s177.16 70.866 247.92 70.866c70.975 0 196.65-72.56 230.42-70.866 33.773 1.694 53.521 37.161 53.149 35.433-.373-1.728-17.716 53.15-17.716 53.15 0-17.716-17.717-35.433-35.433-35.433-17.717 0-106.3 70.866-230.42 70.866-123.91 0-212.49-70.866-230.21-70.866-17.717 0-35.433 17.716-35.433 35.433l-35.318-54.16z" fill="#fff"/></g><path d="M566.021 926.934l-15.487-39.946 15.857-6.148 1.828 4.716-12.956 5.023 4.743 12.234 12.132-4.703 1.815 4.681-12.132 4.703 5.271 13.596 13.464-5.22 1.829 4.718-16.364 6.344z"/><path d="M499.527 953.092l-15.487-39.946 2.901-1.125 13.658 35.227 10.802-4.188 1.829 4.718-13.702 5.312z"/><path d="M479.4 961.077l-15.487-39.946 14.794-5.736 1.828 4.716-11.89 4.61 4.794 12.365 10.291-3.99 1.829 4.718-10.291 3.99 7.035 18.146-2.904 1.126z"/><path d="M301.242 961.596l10.214-41.198 5.972 1.481-.134 30.926c-.016 2.875-.044 5.032-.078 6.453.711-1.416 1.792-3.486 3.232-6.202l14.284-26.887 5.34 1.324-10.214 41.198-3.825-.948 8.55-34.484-17.263 32.324-3.581-.888.024-37.224-8.696 35.074-3.825-.948z"/><path d="M299.495 916.426l3.776 1.567-9.399 22.648c-1.633 3.935-3.257 6.93-4.869 8.986-1.608 2.047-3.566 3.444-5.876 4.202-2.285.747-4.8.54-7.554-.603-2.67-1.108-4.597-2.637-5.771-4.616-1.175-1.968-1.629-4.302-1.365-6.993.272-2.709 1.269-6.135 2.993-10.29l9.399-22.648 3.776 1.567-9.388 22.62c-1.413 3.404-2.231 6.015-2.449 7.824-.199 1.795.082 3.36.834 4.702.769 1.338 1.961 2.348 3.581 3.02 2.779 1.153 5.112 1.113 7.011-.126 1.898-1.24 3.867-4.317 5.911-9.24l9.388-22.62z"/><path d="M223.521 889.109l2.827 1.307-10.389 22.464c-1.805 3.903-3.486 6.895-5.036 8.976-1.547 2.073-3.291 3.536-5.236 4.399-1.922.852-3.91.792-5.968-.16-2-.925-3.35-2.299-4.038-4.148-.694-1.841-.76-4.076-.208-6.697.56-2.639 1.792-6.014 3.698-10.135l10.389-22.464 2.823 1.306-10.377 22.437c-1.562 3.377-2.545 5.952-2.948 7.716-.387 1.75-.361 3.249.072 4.507.446 1.253 1.273 2.165 2.486 2.726 2.077.961 3.953.793 5.629-.515 1.678-1.307 3.641-4.399 5.899-9.283l10.377-22.437z"/><path d="M173.1 896.088l2.862.806c-.776 2.01-1.224 3.742-1.352 5.215-.105 1.45.148 2.79.758 4.02.622 1.202 1.538 2.089 2.752 2.65 1.077.498 2.163.648 3.256.448 1.095-.199 2.076-.715 2.938-1.539.884-.837 1.604-1.859 2.158-3.057.567-1.225.864-2.377.89-3.456.035-1.097-.248-2.164-.856-3.195-.383-.673-1.36-1.885-2.931-3.637-1.558-1.778-2.558-3.222-2.992-4.348-.57-1.443-.773-3.002-.615-4.67.172-1.672.676-3.412 1.499-5.191.909-1.966 2.061-3.654 3.459-5.067 1.405-1.433 2.898-2.319 4.482-2.659 1.584-.344 3.093-.179 4.529.485 1.582.732 2.76 1.843 3.53 3.336.789 1.48 1.09 3.273.907 5.376-.184 2.106-.78 4.312-1.785 6.613l-2.881-.881c.992-2.527 1.354-4.611 1.091-6.255-.254-1.645-1.202-2.841-2.843-3.6-1.709-.79-3.219-.797-4.537-.011-1.3.773-2.321 1.961-3.068 3.577-.642 1.389-.898 2.67-.76 3.825.123 1.159 1.113 2.741 2.959 4.762 1.867 1.999 3.068 3.546 3.594 4.648.76 1.619 1.065 3.368.914 5.249-.146 1.872-.7 3.842-1.665 5.929-.957 2.07-2.184 3.871-3.687 5.413-1.49 1.515-3.085 2.507-4.782 2.967-1.679.446-3.28.312-4.804-.393-1.931-.893-3.317-2.151-4.154-3.783-.827-1.628-1.141-3.635-.94-6.032.22-2.41.911-4.923 2.076-7.547z"/><path d="M581.282 896.559c-2.567-6.621-3.603-12.194-3.096-16.687.497-4.52 2.29-7.376 5.382-8.575 2.024-.785 4.19-.613 6.498.52s4.497 3.113 6.573 5.949c2.075 2.81 3.886 6.206 5.437 10.206 1.569 4.047 2.528 7.848 2.869 11.395.338 3.538.011 6.464-.994 8.752-1.013 2.27-2.473 3.769-4.379 4.508-2.065.8-4.258.61-6.589-.578-2.328-1.178-4.52-3.182-6.576-6s-3.767-5.984-5.126-9.49zm3.023-1.076c1.865 4.812 4.047 8.332 6.539 10.562 2.501 2.216 4.82 2.905 6.965 2.073 2.185-.847 3.437-2.942 3.753-6.293.336-3.338-.497-7.584-2.489-12.722-1.262-3.254-2.665-5.971-4.209-8.151-1.541-2.202-3.151-3.737-4.833-4.61-1.677-.895-3.24-1.065-4.686-.504-2.055.797-3.322 2.775-3.81 5.928-.483 3.136.441 7.712 2.769 13.717z"/><path d="M540.546 936.349l-15.487-39.946 9.721-3.769c1.955-.758 3.582-.972 4.883-.641 1.29.318 2.591 1.263 3.906 2.845 1.314 1.582 2.392 3.466 3.246 5.667 1.099 2.835 1.522 5.417 1.27 7.757-.255 2.33-1.335 4.165-3.232 5.511 1.029.374 1.868.81 2.522 1.307 1.397 1.089 2.886 2.55 4.467 4.382l8.031 9.394-3.651 1.415-6.122-7.184c-1.78-2.077-3.189-3.634-4.232-4.699-1.039-1.056-1.881-1.759-2.516-2.093-.624-.337-1.201-.532-1.726-.554-.381-.003-.944.141-1.691.43l-3.366 1.305 6.88 17.745-2.902 1.125zm-5.749-23.44l6.237-2.418c1.325-.514 2.267-1.168 2.826-1.943.55-.803.81-1.816.776-3.058-.042-1.26-.315-2.538-.814-3.825-.73-1.884-1.711-3.294-2.941-4.218-1.219-.928-2.644-1.077-4.269-.447l-6.94 2.69 5.125 13.218z"/><path d="M507.397 926.456c-2.567-6.621-3.606-12.193-3.099-16.686.498-4.52 2.292-7.377 5.382-8.575 2.024-.785 4.192-.614 6.498.52 2.31 1.132 4.499 3.112 6.576 5.948 2.074 2.811 3.883 6.207 5.434 10.207 1.569 4.047 2.529 7.847 2.871 11.394.339 3.537.009 6.465-.994 8.752-1.015 2.271-2.475 3.77-4.379 4.508-2.065.8-4.259.611-6.591-.577-2.326-1.179-4.52-3.182-6.574-6-2.056-2.818-3.765-5.985-5.125-9.491zm3.022-1.075c1.865 4.812 4.047 8.332 6.539 10.562 2.501 2.216 4.82 2.905 6.964 2.074 2.185-.847 3.439-2.942 3.757-6.294.333-3.336-.497-7.584-2.489-12.722-1.262-3.254-2.667-5.971-4.212-8.15-1.539-2.203-3.151-3.737-4.831-4.61-1.677-.895-3.242-1.065-4.686-.504-2.055.797-3.324 2.775-3.81 5.928-.481 3.135.441 7.712 2.769 13.717z"/><path d="M342.36 970.634l5.828-42.044 11.477 1.591c2.342.325 4.152 1.015 5.439 2.071 1.301 1.038 2.224 2.498 2.773 4.385.565 1.874.712 3.771.444 5.704-.249 1.796-.84 3.435-1.769 4.927-.931 1.492-2.179 2.619-3.747 3.402 1.746 1.002 2.991 2.465 3.729 4.398.753 1.935.959 4.134.621 6.578-.272 1.963-.832 3.756-1.682 5.379-.83 1.595-1.755 2.798-2.774 3.587-1.018.799-2.234 1.341-3.647 1.625-1.401.276-3.077.284-5.025.014l-11.666-1.617zm7.427-23.819l6.618.917c1.796.249 3.104.26 3.928.054 1.088-.279 1.959-.879 2.606-1.78.667-.898 1.1-2.088 1.304-3.56.193-1.394.118-2.655-.222-3.77-.339-1.139-.933-1.96-1.786-2.467-.85-.527-2.375-.942-4.573-1.247l-6.115-.848-1.76 12.7zm-2.691 19.414l7.618 1.056c1.308.181 2.237.24 2.785.186.963-.107 1.796-.381 2.496-.824.702-.453 1.322-1.157 1.864-2.112.55-.974.914-2.134 1.099-3.469.218-1.57.113-2.965-.312-4.195-.422-1.249-1.121-2.176-2.103-2.772-.963-.624-2.42-1.066-4.368-1.336l-7.077-.981-2.003 14.447z"/><path d="M378.346 975.765v-42.445h13.699c2.75 0 4.844.385 6.278 1.156 1.432.756 2.58 2.095 3.435 4.027.858 1.932 1.284 4.059 1.284 6.397 0 3.012-.708 5.549-2.128 7.62-1.418 2.061-3.607 3.369-6.575 3.934 1.082.713 1.906 1.417 2.468 2.111 1.193 1.506 2.323 3.389 3.39 5.648l5.375 11.553h-5.141l-4.088-8.829c-1.193-2.556-2.18-4.499-2.949-5.856-.774-1.348-1.47-2.299-2.085-2.834-.604-.535-1.223-.921-1.856-1.13-.465-.139-1.223-.208-2.278-.208h-4.74v18.856h-4.088zm4.088-23.711h8.787c1.869 0 3.331-.268 4.383-.783 1.055-.545 1.851-1.387 2.403-2.547.547-1.179.819-2.457.819-3.825 0-2.002-.531-3.655-1.6-4.949-1.053-1.294-2.727-1.942-5.014-1.942h-9.779v14.045z"/><path d="M414.132 974.638l4.277-43.864 4.338-.769 19.853 39.589-4.586.813-5.791-12.036-12.718 2.253-1.098 13.256-4.274.757zm5.737-18.717l10.312-1.827-5.227-11.009c-1.589-3.351-2.82-6.112-3.692-8.291.088 2.749.011 5.512-.226 8.271l-1.167 12.856z"/><path d="M221.289 933.079l17.984-38.885 8.006 3.703c1.634.756 2.754 1.757 3.366 3.008.629 1.235.84 2.801.635 4.7-.189 1.89-.696 3.723-1.523 5.511-.768 1.661-1.74 3.107-2.914 4.349s-2.469 2.076-3.888 2.522c.971 1.287 1.42 2.916 1.34 4.895-.069 1.985-.63 4.116-1.676 6.376-.84 1.815-1.838 3.414-2.996 4.796-1.135 1.359-2.212 2.327-3.225 2.883-1.015.566-2.094.85-3.236.85-1.13-.005-2.377-.317-3.736-.946l-8.138-3.764zm13.252-21.243l4.617 2.135c1.253.579 2.221.84 2.899.801.899-.058 1.74-.462 2.515-1.195.786-.728 1.494-1.777 2.124-3.139.596-1.289.95-2.503 1.06-3.629.118-1.149-.056-2.043-.525-2.688-.459-.663-1.456-1.349-2.991-2.059l-4.266-1.973-5.432 11.746zm-8.304 17.955l5.315 2.458c.912.422 1.583.655 2.008.708.75.082 1.458-.02 2.122-.308.668-.297 1.357-.849 2.072-1.653.723-.823 1.371-1.856 1.941-3.091.672-1.452 1.047-2.799 1.131-4.05.092-1.269-.126-2.284-.661-3.039-.512-.777-1.449-1.475-2.81-2.104l-4.937-2.283-6.18 13.362z"/></g><g transform="matrix(1.089 0 0 1 -26.351 3.33)"><path d="M212.6 432.28v106.3c0 70.866 88.583 106.3 88.583 106.3s88.583-35.433 88.583-106.3v-106.3h-177.17z" fill-rule="evenodd" transform="matrix(.808 0 0 .828 63.772 114.72)" stroke="#000" stroke-width="1pt" fill="#00daec"/><path d="M212.6 432.28v106.3c0 8.858 1.384 17.163 3.806 24.914l84.777-42.631v-88.583h-88.583z" fill-rule="evenodd" transform="matrix(.808 0 0 .828 63.772 114.72)" stroke="#000" stroke-width="1pt" fill="#fff"/><path d="M212.6 432.28v106.3c0 8.858 1.384 17.163 3.806 24.914l84.777-42.631v-88.583h-88.583z" fill-rule="evenodd" transform="matrix(-.808 0 0 .828 550.39 114.72)" stroke="#000" stroke-width="1pt" fill="#fff300"/><g fill-rule="evenodd" transform="matrix(.808 0 0 .828 63.772 114.72)" stroke="#000" stroke-width="1.25"><path d="M227.859 458.382c3.836-2.438 6.605.038 11.727 6.368 7.358 9.106 34.796 51.139 38.582 55.249s1.799-3.499 6.417 1.482c2.469 3.337-4.251 9.478-6.711 6.969-4.814-5.047 1.739-2.844-1.599-6.856-3.88-4.774-38.512-40.598-45.744-49.825-4.722-6.024-6.025-11.309-2.673-13.388z" fill="#923d09"/><rect ry="1.293" rx="2.606" transform="matrix(.756 .655 -.586 .81 0 0)" height="66.045" width="5.212" y="181.35" x="495.52" fill="#af8000"/><rect transform="matrix(.831 .556 -.641 .767 0 0)" height="18.868" width="29.375" y="228.63" x="497.3" fill="#b0b0d4"/></g><g stroke="#000" fill-rule="evenodd" transform="matrix(.808 0 0 .828 63.772 114.72)"><path d="M385.112 528.567c4.885-2.106-27.333-35.603-33.785-51.842-6.452-16.241-6.108-16.717-8.617-24.322l-3.152 1.36c.806 4.93 15.87 43.87 30.736 64.151 4.198 5.818.63 16.769 5.361 14.729l9.457-4.076z" fill="#af8000"/><path d="M341.548 453.549l-25.871 2.486s-4.83 4.107-2.574 12.665c2.255 8.558 8.965 11.892 8.965 11.892l22.668-17.557-3.189-9.486z" fill="#808080"/><rect ry="3.532" rx="3.532" transform="rotate(-18.579)" height="19.428" width="7.064" y="534.62" x="175.71" fill="#808080"/><path d="M314.669 502.404c4.643 2.878 7.229 6.344 5.777 7.741-1.453 1.397-6.394.195-11.037-2.683-4.643-2.878-7.229-6.344-5.777-7.741s6.394-.195 11.037 2.683z" fill="#cf0000"/><path d="M371.608 467.492c.201 5.526 1.911 9.514 3.819 8.908 1.908-.607 3.292-5.578 3.091-11.104-.201-5.526-1.911-9.514-3.819-8.908s-3.292 5.578-3.091 11.104z" fill="#cf0000"/><rect transform="matrix(.859 -.512 .499 .866 0 0)" height="17.796" width="78.868" y="596.25" x="15.073" fill="#b0b0d4"/></g><path d="M231.36 591.4l8.83-7.065s1.767 8.831 7.065 8.831l8.831-7.653s0 7.653 5.887 7.653 10.597-7.653 10.597-7.064c0 .588.588 7.064 5.298 7.064l10.597-6.476s.589 7.654 5.887 7.065c5.299-.589 7.065-8.242 7.653-7.653.589.588 4.121 7.653 8.242 7.064l10.009-6.476s1.177 7.065 5.887 7.065c4.709 0 6.476-6.476 6.476-6.476s2.354 5.298 6.475 5.298l10.597-5.887" transform="matrix(.772 0 0 .828 84.031 128.85)" stroke="#0072ff" stroke-width="1pt" fill="none"/><path d="M231.95 591.4c3.139-1.374 5.69.196 9.418-7.654 0 4.121 2.945 9.42 8.243 9.42l8.831-7.653s0 7.653 5.887 7.653 10.597-7.653 10.597-7.064c0 .588.588 7.064 5.298 7.064l10.597-6.476s.589 7.654 5.887 7.065c5.299-.589 7.065-8.242 7.653-7.653.589.588 4.121 7.653 8.242 7.064 2.943-.589 10.009-7.065 10.009-7.065" transform="matrix(.808 0 0 .828 85.649 137.62)" stroke="#0072ff" stroke-width="1pt" fill="none"/><g fill-rule="evenodd" transform="matrix(.638 0 0 .617 131.64 357.23)"><path d="M305.54 350.62v18.839h14.717l-5.298-18.839h-9.419z" transform="translate(4.121 16.484)" stroke="#000" stroke-width="1pt" fill="#fff"/><path d="M329.68 377.11c-.589.589-23.549 12.952-53.573 12.952s-41.799-3.533-44.742-5.887c-2.944-2.355-6.476-7.065-10.008-7.065-3.533 0-6.476 2.944-6.476 2.944s5.887 2.943 10.008 6.475c4.121 3.533 5.298 10.009 5.298 10.009l97.138 1.177s-.589-6.476-.589-10.008 3.533-8.831 2.944-10.597z"/><rect height="54.75" width="2.355" y="335.31" x="244.91"/><rect height="62.404" width="2.355" y="328.24" x="276.7"/><rect height="51.218" width="2.355" y="338.84" x="307.9"/><rect height="8.831" width="18.839" stroke="#000" y="342.37" x="299.07" stroke-width=".768pt" fill="#fff"/><rect height="8.831" width="21.782" stroke="#000" y="350.61" x="297.89" stroke-width=".826pt" fill="#fff"/><rect height="8.831" width="24.137" stroke="#000" y="358.86" x="296.71" stroke-width=".869pt" fill="#fff"/><rect height="12.527" width="23.837" stroke="#000" y="334.72" x="266.17" stroke-width="1.029pt" fill="#fff"/><rect height="12.527" width="27.561" stroke="#000" y="346.41" x="264.68" stroke-width="1.106pt" fill="#fff"/><rect height="12.527" width="30.541" stroke="#000" y="358.1" x="263.19" stroke-width="1.165pt" fill="#fff"/><rect height="15.307" width="36.5" stroke="#000" y="368.28" x="260.21" stroke-width=".984pt" fill="#fff"/><rect height="10.414" width="15.763" stroke="#000" y="342.37" x="238.25" stroke-width=".763pt" fill="#fff"/><rect height="10.414" width="18.226" stroke="#000" y="352.09" x="237.26" stroke-width=".82pt" fill="#fff"/><rect height="10.414" width="20.197" stroke="#000" y="361.81" x="236.28" stroke-width=".863pt" fill="#fff"/><rect height="12.725" width="24.137" stroke="#000" y="370.27" x="234.31" stroke-width=".73pt" fill="#fff"/><path d="M220 377.51h9.876l10.597-33.374-20.473 33.374z" stroke="#000" stroke-width=".763pt" fill="#fff"/><rect transform="matrix(.897 .443 -.543 .84 0 0)" height="52.648" width="2.426" y="193.78" x="391.01"/></g><path d="M231.36 591.4l8.83-7.065s1.767 8.831 7.065 8.831l8.831-7.653s0 7.653 5.887 7.653 10.597-7.653 10.597-7.064c0 .588.588 7.064 5.298 7.064l10.597-6.476s.589 7.654 5.887 7.065c5.299-.589 7.065-8.242 7.653-7.653.589.588 4.121 7.653 8.242 7.064l10.009-6.476s1.177 7.065 5.887 7.065c4.709 0 6.476-6.476 6.476-6.476s2.354 5.298 6.475 5.298l7.065-7.064s1.177 6.476 4.121 6.476c2.943 0 6.476-6.476 6.476-6.476s1.177 8.242 4.121 7.653c2.943-.589 4.121-8.242 4.71-7.653.588.589 4.709 7.064 4.12 7.064" transform="matrix(.763 0 0 .828 77.436 118.62)" stroke="#0072ff" stroke-width="1pt" fill="none"/></g></g></g></g></svg>