<svg xmlns="http://www.w3.org/2000/svg" fill-opacity="14.118" height="480" width="640" fill="#28ff09">
  <g clip-path="url(#a)">
    <g>
      <path fill="#fff" d="M150.183 0h339.456v480.256h-339.456z"/>
      <path fill="#bf0a30" d="M-19.544 0h169.728v480.256h-169.728z"/>
      <path fill="#bf0a30" d="M489.64 0h169.728v480.256h-169.728z"/>
    </g>
    <path d="M200.971 231.947l-13.188 4.508 61.365 53.856c4.642 13.841-1.611 17.921-5.595 25.18l66.619-8.455-1.735 67.043 13.798-.397-3.009-66.486 66.684 7.905c-4.127-8.715-7.8-13.343-3.982-27.279l61.325-51.023-10.732-3.885c-8.774-6.771 3.791-32.61 5.687-48.917 0 0-35.808 12.314-38.154 5.871l-9.118-17.517-32.576 35.786c-3.559.852-5.075-.564-5.91-3.571l15.05-74.781-23.83 13.403c-1.995.853-3.99.117-5.305-2.208l-22.922-45.994-23.634 47.766c-1.782 1.712-3.565 1.91-5.045.746l-22.691-12.729 13.621 74.197c-1.083 2.946-3.679 3.775-6.731 2.18l-31.14-35.378c-4.073 6.526-6.834 17.19-12.218 19.58-5.385 2.237-23.419-4.522-35.506-7.16 4.129 14.902 17.04 39.658 8.87 47.772z" fill="#bf0a30"/>
  </g>
</svg>
