<svg xmlns="http://www.w3.org/2000/svg" id="flag-icon-css-ca" width="640" height="480">
  <path fill="#fff" d="M81.14 0H443.4v512H81.14z" transform="translate(74.12) scale(.9375)"/>
  <path fill="#bf0a30" d="M-100 0H81.14v512H-100zm543.41 0h181.14v512H443.41zm-308.1 247.41l-14.07 4.8 65.46 57.45c4.95 14.77-1.72 19.12-5.97 26.86l71.06-9.02-1.85 71.52 14.72-.43-3.21-70.91 71.13 8.43c-4.4-9.3-8.32-14.24-4.25-29.1l65.41-54.43-11.44-4.14c-9.36-7.22 4.04-34.78 6.06-52.18 0 0-38.2 13.14-40.7 6.26l-9.72-18.68L303.19 222c-3.8.9-5.41-.6-6.3-3.81l16.05-79.77-25.42 14.3c-2.13.91-4.26.13-5.66-2.35l-24.45-49.06-25.2 50.95c-1.9 1.82-3.81 2.03-5.39.8l-24.2-13.59 14.53 79.15c-1.16 3.14-3.93 4.02-7.18 2.32l-33.22-37.74c-4.34 6.97-7.29 18.34-13.03 20.89-5.75 2.39-24.98-4.82-37.88-7.64 4.4 15.9 18.18 42.3 9.46 50.96z" transform="translate(74.12) scale(.9375)"/>
</svg>
