<svg xmlns="http://www.w3.org/2000/svg" height="480" width="640" version="1">
  <g>
    <path fill="#006" d="M0 0h640v480h-640z"/>
    <g>
      <path d="M0 0v31.82l349.537 252.788h43.997v-31.819l-349.537-252.788h-43.997zm393.534 0v31.819l-349.537 252.788h-43.997v-31.819l349.537-252.788h43.997z" fill="#fff"/>
      <path d="M163.972 0v284.607h65.589v-284.607h-65.589zm-163.972 94.869v94.869h393.534v-94.869h-393.534z" fill="#fff"/>
      <path d="M0 113.843v56.921h393.534v-56.921h-393.534zm177.09-113.843v284.607h39.353v-284.607h-39.353z" fill="#c00"/>
      <path d="M0 284.607l131.178-94.869h29.331l-131.178 94.869h-29.331zm0-284.607l131.178 94.869h-29.331l-101.847-73.655v-21.214zm233.025 94.869l131.178-94.869h29.331l-131.178 94.869h-29.331zm160.509 189.738l-131.178-94.869h29.331l101.847 73.656v21.213z" fill="#c00"/>
    </g>
    <path fill-rule="evenodd" fill="#fff" d="M246.413 444.481l-31.836-33.499-31.836 33.499 6.343-45.777-46.038-4.003 39.736-23.586-25.567-38.489 43.209 16.362 14.153-43.992 14.153 43.992 43.209-16.362-25.567 38.489 39.736 23.586-46.038 4.003z"/>
    <g fill-rule="evenodd" fill="#fff">
      <path d="M490.748 427.285l6.144-19.115 6.144 19.115 18.78-7.111-11.112 16.72 17.263 10.249-20 1.74 2.759 19.881-13.834-14.548-13.834 14.548 2.759-19.881-20-1.74 17.263-10.249-11.112-16.72z"/>
      <path d="M490.748 129.772l6.144-19.112 6.144 19.112 18.78-7.111-11.112 16.722 17.263 10.248-20 1.74 2.759 19.881-13.834-14.548-13.834 14.548 2.759-19.881-20-1.74 17.263-10.248-11.112-16.722z"/>
      <path d="M379.181 250.637l6.144-19.115 6.144 19.115 18.78-7.111-11.112 16.72 17.263 10.249-20 1.74 2.759 19.881-13.834-14.548-13.834 14.548 2.759-19.881-20-1.74 17.263-10.249-11.112-16.72z"/>
      <path d="M589.939 220.886l6.099-19.115 6.173 19.115 18.743-7.111-11.082 16.72 17.256 10.249-20.008 1.74 2.752 19.881-13.834-14.548-13.834 14.548 2.752-19.881-19.97-1.74 17.293-10.249-11.134-16.72z"/>
      <path d="M533.657 312.438l-9.825-8.293 12.83-.945 4.857-11.908 4.857 11.908 12.83.945-9.825 8.293 3.072 12.488-10.934-6.776-10.934 6.776z"/>
    </g>
  </g>
</svg>
