<svg xmlns="http://www.w3.org/2000/svg" height="480" width="640"><g><rect height="480" width="640" fill="#006"/><g><path d="M0 0v24.811l319.75 197.105h40.249v-24.811l-319.75-197.105h-40.246zm360.004 0v24.811l-319.758 197.105h-40.246v-24.814l319.75-197.105h40.249z" fill="#fff"/><path d="M150.003 0v221.919h60v-221.919h-60zm-150.003 73.973v73.973h360.004v-73.973h-360.004z" fill="#fff"/><path d="M0 88.766v44.384h360.004v-44.384h-360.004zm162.003-88.766v221.919h36v-221.919h-36z" fill="#c00"/><path d="M0 221.919l120.004-73.973h26.833l-120.004 73.97h-26.836zm0-221.919l120.004 73.973h-26.833l-93.168-57.432v-16.541zm213.172 73.973l119.996-73.973h26.833l-120.004 73.973h-26.833zm146.832 147.949l-120.004-73.973h26.833l93.168 57.432v16.541z" fill="#c00"/></g><g fill-rule="evenodd" fill="#fff" transform="matrix(.859 0 0 .859 87.546 62.776)"><polygon transform="matrix(.666 .031 -.03 .658 13.302 31.285)" points="659.7 186.57 667.43 156.72 642.14 139.1 672.91 137.23 681.85 107.73 693.13 136.42 723.96 135.8 700.16 155.4 710.27 184.53 684.28 167.95"/><polygon transform="matrix(.617 .256 -.246 .61 134.3 -104.13)" points="659.7 186.57 667.43 156.72 642.14 139.1 672.91 137.23 681.85 107.73 693.13 136.42 723.96 135.8 700.16 155.4 710.27 184.53 684.28 167.95"/><polygon transform="matrix(.637 -.2 .192 .629 -55.339 205.46)" points="659.7 186.57 667.43 156.72 642.14 139.1 672.91 137.23 681.85 107.73 693.13 136.42 723.96 135.8 700.16 155.4 710.27 184.53 684.28 167.95"/><polygon transform="matrix(.51 -.435 .418 .504 -48.071 415)" points="659.7 186.57 667.43 156.72 642.14 139.1 672.91 137.23 681.85 107.73 693.13 136.42 723.96 135.8 700.16 155.4 710.27 184.53 684.28 167.95"/><polygon transform="matrix(.277 -.615 .591 .274 57.965 621.23)" points="659.7 186.57 667.43 156.72 642.14 139.1 672.91 137.23 681.85 107.73 693.13 136.42 723.96 135.8 700.16 155.4 710.27 184.53 684.28 167.95"/><polygon transform="matrix(.013 -.676 .649 .013 220.9 760.28)" points="659.7 186.57 667.43 156.72 642.14 139.1 672.91 137.23 681.85 107.73 693.13 136.42 723.96 135.8 700.16 155.4 710.27 184.53 684.28 167.95"/><polygon transform="matrix(-.258 -.624 .599 -.255 431.53 817.88)" points="659.7 186.57 667.43 156.72 642.14 139.1 672.91 137.23 681.85 107.73 693.13 136.42 723.96 135.8 700.16 155.4 710.27 184.53 684.28 167.95"/><polygon transform="matrix(-.454 -.495 .475 -.449 619.07 802.79)" points="659.7 186.57 667.43 156.72 642.14 139.1 672.91 137.23 681.85 107.73 693.13 136.42 723.96 135.8 700.16 155.4 710.27 184.53 684.28 167.95"/><polygon transform="matrix(-.647 -.162 .156 -.639 848.5 625.64)" points="659.7 186.57 667.43 156.72 642.14 139.1 672.91 137.23 681.85 107.73 693.13 136.42 723.96 135.8 700.16 155.4 710.27 184.53 684.28 167.95"/><polygon transform="matrix(-.649 .154 -.148 -.641 954.43 409.88)" points="659.7 186.57 667.43 156.72 642.14 139.1 672.91 137.23 681.85 107.73 693.13 136.42 723.96 135.8 700.16 155.4 710.27 184.53 684.28 167.95"/><polygon transform="matrix(-.346 .578 -.555 -.342 880.42 -146.58)" points="659.7 186.57 667.43 156.72 642.14 139.1 672.91 137.23 681.85 107.73 693.13 136.42 723.96 135.8 700.16 155.4 710.27 184.53 684.28 167.95"/><polygon transform="matrix(-.558 .37 -.356 -.551 1024.7 74.614)" points="659.7 186.57 667.43 156.72 642.14 139.1 672.91 137.23 681.85 107.73 693.13 136.42 723.96 135.8 700.16 155.4 710.27 184.53 684.28 167.95"/><polygon transform="matrix(-.66 .096 -.093 -.652 1058.6 332.2)" points="659.7 186.57 667.43 156.72 642.14 139.1 672.91 137.23 681.85 107.73 693.13 136.42 723.96 135.8 700.16 155.4 710.27 184.53 684.28 167.95"/><polygon transform="matrix(-.652 -.139 .134 -.645 1000.3 547.27)" points="659.7 186.57 667.43 156.72 642.14 139.1 672.91 137.23 681.85 107.73 693.13 136.42 723.96 135.8 700.16 155.4 710.27 184.53 684.28 167.95"/><polygon transform="matrix(-.484 -.465 .447 -.478 800.73 785.25)" points="659.7 186.57 667.43 156.72 642.14 139.1 672.91 137.23 681.85 107.73 693.13 136.42 723.96 135.8 700.16 155.4 710.27 184.53 684.28 167.95"/></g></g></svg>