<svg xmlns="http://www.w3.org/2000/svg" id="flag-icon-css-ck" width="640" height="480">
  <path fill="#006" d="M0 0h640v480H0z"/>
  <g stroke-width="1pt">
    <path fill="#fff" d="M0 0v24.81l319.75 197.1H360v-24.8L40.25 0H0zm360 0v24.81L40.25 221.91H0v-24.8L319.75 0H360z"/>
    <path fill="#fff" d="M150 0v221.92h60V0h-60zM0 73.97v73.98h360V73.97H0z"/>
    <path fill="#c00" d="M0 88.77v44.38h360V88.77H0zM162 0v221.92h36V0h-36zM0 221.92l120-73.97h26.84l-120 73.97H0zM0 0l120 73.97H93.17L0 16.54V0zm213.17 73.97L333.17 0H360L240 73.97h-26.84zM360 221.92l-120-73.97h26.83L360 205.38v16.54z"/>
  </g>
  <path fill="#fff" fill-rule="evenodd" d="M471.6 213l5.2-16.67-14.01-10.65 17.65-.22 5.89-16.44 5.7 16.53 17.66.48-14.13 10.44 5.03 16.75-14.44-10.08m27.05 13.13l10.4-13.93-9.67-14.8 16.7 5.8 10.98-13.49-.08 17.51 16.47 6.47-16.76 5.02-.8 17.49-10.27-14.4m-98.4 14.97l-.7-17.47-16.74-5.19 16.53-6.3.03-17.48 10.9 13.58 16.77-5.63-9.79 14.68 10.34 14.02-16.96-4.5m-39.69 40.86l-7.33-15.82-17.42 1.83 12.82-12.32-6.67-16.12 15.25 8.2 13.29-11.8-3.4 17.4 14.9 8.84-17.35 2.53m-17.47 55.59l-13.31-11.11-14.97 9.22 6.38-16.7-12.85-11.66 17.25.78 7.02-16.44 4.29 17.2 17.19 1.5-14.6 9.84m3.27 60.41l-16.57-4.81-10.1 14.5-.71-17.9-16.36-5.52 16.13-6.24v-17.91L371.8 311l16.36-5.56-9.54 14.92m29.53 50.85l-17.07 2.4-3.47 17.4-7.78-16.07-17.16 1.67 12.27-12.33-7.15-16.38 15.36 8.46 12.74-11.8-2.77 17.56m45.04 37.95l-15.2 8.23 2.67 17.55-12.78-12.36-15.53 7.58 7.31-15.87-12.29-12.87 17.3 2.56 7.95-15.53 3.37 17.44m53.83 8.97l-8.3 15.32 11.7 13.21-17.36-3.27-8.92 14.97-2.43-17.34-17.22-3.96 15.86-7.45-1.72-17.42 12.23 12.74m57.33-13.12l-.51 17.47 16.34 6.37-16.92 5.1-1.24 17.44-9.94-14.32-17.12 4.42L497.37 422l-9.35-14.71 16.6 5.7m54.4-203.22l11.95 12.6 15.92-7.39-8.25 15.83 11.42 13.1-17.04-2.81-8.86 15.5-2.28-17.58-16.9-3.53 15.63-8.05m34.24 21.1l5.42 16.6 17.5.3-14.16 10.67 4.73 16.82-14.18-10-14.58 10.11 5.41-16.85-13.75-10.58 17.52-.42m19.52 33.2l-2 17.37 15.73 7.77-17.3 3.6L602 344.4l-8.68-15.14-17.43 2.9 11.93-12.95-8.05-15.48 16.05 7.13m2.94 39.8l-7.77 15.6 12.15 12.8-17.47-2.66-8.4 15.27-3.02-17.24-17.35-3.35 15.6-8-2.32-17.35 12.66 12.3m-9.84 39.1l-14.67 9.17 3.75 17.35-13.51-11.53-15.05 8.54 6.33-16.3-13.05-12.06 17.42 1.46 6.98-16 4.44 17.2"/>
</svg>
