<svg xmlns="http://www.w3.org/2000/svg" xmlns:xlink="http://www.w3.org/1999/xlink" width="640" height="480" viewBox="-5 -5 12.8 9.6">
  <title>
    Flag of the People&apos;s Republic of China
  </title>
  <defs>
    <path id="b" fill="#ffde00" d="M-.588.81L0-1 .588.81-.952-.31H.952z"/>
    <clipPath id="a">
      <path d="M-5-15.4h26.667v20H-5z"/>
    </clipPath>
  </defs>
  <g transform="matrix(.48 0 0 .48 -2.6 2.392)" clip-path="url(#a)">
    <path fill="#de2910" d="M-5-15.4h30v20H-5z"/>
    <use height="20" width="30" transform="matrix(3 0 0 3 0 -10.4)" xlink:href="#b"/>
    <use height="20" width="30" transform="matrix(-.514 -.857 .857 -.514 5 -13.4)" xlink:href="#b"/>
    <use height="20" width="30" transform="matrix(-.141 -.99 .99 -.141 7 -11.4)" xlink:href="#b"/>
    <use height="20" width="30" transform="matrix(.275 -.962 .962 .275 7 -8.4)" xlink:href="#b"/>
    <use height="20" width="30" transform="matrix(.625 -.781 .781 .625 5 -6.4)" xlink:href="#b"/>
  </g>
</svg>
