<svg xmlns="http://www.w3.org/2000/svg" height="480" width="640">
    <desc>
        The United States of America flag, produced by Daniel McRae
    </desc>
    <g fill-rule="evenodd" clip-path="url(#a)">
        <path fill="#fff" d="M.004 218.484h793.622v193.097h-793.622z"/>
        <path fill="#081873" d="M.632 0h793.078v240.6h-793.078z"/>
        <path fill="#081873" d="M.858 361.753h798.862v118.247h-798.862z"/>
        <path fill="#de3929" d="M.858 283.641h793.078v37.171h-793.078z"/>
        <path fill="#ffce08" d="M238.457 374.219l6.235 19.19h20.177l-16.324 11.86 6.235 19.19-16.324-11.86-16.324 11.86 6.235-19.19-16.324-11.86h20.177z"/>
        <path fill="#ffce08" d="M412.823 234.841l6.235 19.19h20.177l-16.324 11.86 6.235 19.19-16.324-11.86-16.324 11.86 6.235-19.19-16.324-11.86h20.177z"/>
        <path fill="#ffce08" d="M198.474 314.481l6.235 19.19h20.177l-16.324 11.86 6.235 19.19-16.324-11.86-16.324 11.86 6.235-19.19-16.324-11.86h20.177z"/>
        <path fill="#ffce08" d="M412.823 308.866l6.235 19.19h20.177l-16.324 11.86 6.235 19.19-16.324-11.86-16.324 11.86 6.235-19.19-16.324-11.86h20.177z"/>
        <path fill="#ffce08" d="M368.676 176.416l6.235 19.19h20.177l-16.324 11.86 6.235 19.19-16.324-11.86-16.324 11.86 6.235-19.19-16.324-11.86h20.177z"/>
        <path fill="#ffce08" d="M302.039 153.212l6.235 19.19h20.177l-16.324 11.86 6.235 19.19-16.324-11.86-16.324 11.86 6.235-19.19-16.324-11.86h20.177z"/>
        <path fill="#ffce08" d="M235.392 175.112l6.235 19.19h20.177l-16.324 11.86 6.235 19.19-16.324-11.86-16.324 11.86 6.235-19.19-16.324-11.86h20.177z"/>
        <path fill="#ffce08" d="M196.517 234.841l6.235 19.19h20.177l-16.324 11.86 6.235 19.19-16.324-11.86-16.324 11.86 6.235-19.19-16.324-11.86h20.177z"/>
        <path fill="#ffce08" d="M302.039 394.131l6.235 19.19h20.177l-16.324 11.86 6.235 19.19-16.324-11.86-16.324 11.86 6.235-19.19-16.324-11.86h20.177z"/>
        <path fill="#ffce08" d="M372.839 374.219l6.235 19.19h20.177l-16.324 11.86 6.235 19.19-16.324-11.86-16.324 11.86 6.235-19.19-16.324-11.86h20.177z"/>
    </g>
</svg>
