<svg xmlns="http://www.w3.org/2000/svg" height="480" width="640"><desc>The United States of America flag, produced by Daniel McRae</desc><defs><clipPath id="a"><rect fill-opacity=".67" height="512" width="682.67" x="-123.43"/></clipPath></defs><g fill-rule="evenodd" clip-path="url(#a)" transform="matrix(.938 0 0 .938 115.72 0)"><rect height="205.97" width="846.53" y="233.05" x="-123.43" fill="#fff"/><rect height="256.64" width="845.95" x="-122.76" fill="#081873"/><rect height="126.13" width="852.12" y="385.87" x="-122.52" fill="#081873"/><rect height="39.649" width="845.95" y="302.55" x="-122.52" fill="#de3929"/><polygon fill="#ffce08" transform="matrix(7.398 0 0 7.398 130.92 428.79)" points="0 -4.004 0.89895 -1.2373 3.808 -1.2373 1.4545 0.47261 2.3535 3.2393 0 1.5294 -2.3535 3.2393 -1.4545 0.47261 -3.808 -1.2373 -0.89895 -1.2373"/><polygon fill="#ffce08" transform="matrix(7.398 0 0 7.398 316.91 280.12)" points="0 -4.004 0.89895 -1.2373 3.808 -1.2373 1.4545 0.47261 2.3535 3.2393 0 1.5294 -2.3535 3.2393 -1.4545 0.47261 -3.808 -1.2373 -0.89895 -1.2373"/><polygon fill="#ffce08" transform="matrix(7.398 0 0 7.398 88.271 365.07)" points="0 -4.004 0.89895 -1.2373 3.808 -1.2373 1.4545 0.47261 2.3535 3.2393 0 1.5294 -2.3535 3.2393 -1.4545 0.47261 -3.808 -1.2373 -0.89895 -1.2373"/><polygon fill="#ffce08" transform="matrix(7.398 0 0 7.398 316.91 359.08)" points="0 -4.004 0.89895 -1.2373 3.808 -1.2373 1.4545 0.47261 2.3535 3.2393 0 1.5294 -2.3535 3.2393 -1.4545 0.47261 -3.808 -1.2373 -0.89895 -1.2373"/><polygon fill="#ffce08" transform="matrix(7.398 0 0 7.398 269.82 217.8)" points="0 -4.004 0.89895 -1.2373 3.808 -1.2373 1.4545 0.47261 2.3535 3.2393 0 1.5294 -2.3535 3.2393 -1.4545 0.47261 -3.808 -1.2373 -0.89895 -1.2373"/><polygon fill="#ffce08" transform="matrix(7.398 0 0 7.398 198.74 193.05)" points="0 -4.004 0.89895 -1.2373 3.808 -1.2373 1.4545 0.47261 2.3535 3.2393 0 1.5294 -2.3535 3.2393 -1.4545 0.47261 -3.808 -1.2373 -0.89895 -1.2373"/><polygon fill="#ffce08" transform="matrix(7.398 0 0 7.398 127.65 216.41)" points="0 -4.004 0.89895 -1.2373 3.808 -1.2373 1.4545 0.47261 2.3535 3.2393 0 1.5294 -2.3535 3.2393 -1.4545 0.47261 -3.808 -1.2373 -0.89895 -1.2373"/><polygon fill="#ffce08" transform="matrix(7.398 0 0 7.398 86.184 280.12)" points="0 -4.004 0.89895 -1.2373 3.808 -1.2373 1.4545 0.47261 2.3535 3.2393 0 1.5294 -2.3535 3.2393 -1.4545 0.47261 -3.808 -1.2373 -0.89895 -1.2373"/><polygon fill="#ffce08" transform="matrix(7.398 0 0 7.398 198.74 450.03)" points="0 -4.004 0.89895 -1.2373 3.808 -1.2373 1.4545 0.47261 2.3535 3.2393 0 1.5294 -2.3535 3.2393 -1.4545 0.47261 -3.808 -1.2373 -0.89895 -1.2373"/><polygon fill="#ffce08" transform="matrix(7.398 0 0 7.398 274.26 428.79)" points="0 -4.004 0.89895 -1.2373 3.808 -1.2373 1.4545 0.47261 2.3535 3.2393 0 1.5294 -2.3535 3.2393 -1.4545 0.47261 -3.808 -1.2373 -0.89895 -1.2373"/></g></svg>