<svg xmlns="http://www.w3.org/2000/svg" height="480" width="640">
  <g fill-rule="evenodd" clip-path="url(#a)">
    <path fill="#0021ad" d="M0 0h640v480h-640z"/>
    <path d="M0 0l640 480-.37-479.64-639.63-.36z" fill="#1c8a42"/>
    <path d="M227.5 97.284a34.922 34.922 0 1 1-69.844 0 34.922 34.922 0 1 1 69.844 0z" transform="matrix(3.147 0 0 3.147 -287.54 -51.027)" fill="#ffc639"/>
    <path d="M250.12 206.06c7.517 10.323 18.903 27.606 28.068 23.098 7.143.023 10.838.53 11.807 5.28 16.864 2.874 45.208-4.242 62.832-27.202 0 0 1.49.193.971-8.537.098-3.808 5.201-3.039 5.323-1.811.714 1.891.585 3.31 1.541 3.356 2.18-.73 5.145-5.594 7.631-8.682.681-1.362.31-2.803.468-4.511 1.31-3.23 4.581-2.525 5.274-.838l1.248 3.018c3.321 2.212 9.321.147 9.789.147.589-2.705 2.33-2.451 2.33-2.451 2.212-.489 1.349-.292 2.797.466-1.281 14.605 2.873 15.249 2.53 22.747.148 8.357-2.53 10.734-2.53 13.934.85 3.889 13.185 4.023 8.843 7.322-3.815 2.039.021 5.856-5.728 7.333-16.693 8.479-19.894 15.75-19.894 15.75s-4.194 7.924-4.66 7.924c-2.803 5.287-6.347 2.397-8.313 4.978-.985 3.239-2.091 10.409-.123 14.138.982 5.123-.123 7.918-1.354 13.045-1.106 10.691-5.343 12.311-5.832 16.07-1.968 4.008.413 22.837-1.449 22.837-12.436.245-21.966-2.379-26.884-3.36 4.795-20.653 2.938-38.812 2.938-40.674-1.231-14.774-22.14-11.177-25.334-13.143-2.656-.564-4.324-2.725-5.258-3.658-2.953-.31-4.059-.991-7.012-1.299-1.476.736-.586 1.501-3.876 2.511-8.334 1.006-12.021-7.266-12.021-7.266.407-2.789-18.741.568-29.151-1.848-4.269 2.379-6.131 9.414-9.631 10.253-.099 2.18-5.746-1.792-6.886-3.938-.244-6.243 5.441-9.009 5.441-9.009 4.507-3.169 7.187-3.69 9.359-5.876 1.089-5.437.538-9.457 2.856-13.544 1.961-3.118 4.852-1.655 6.813-3.056 2.114-1.397 3.002-10.541 1.061-13.048 0 0-8.439-7.614-8.904-8.079-2.748-7.876 3.208-12.948 4.917-12.378z" fill="#1c8a42"/>
    <path d="M579.51 72.574c-2.84-11.235-28.252-35.433-47.35-50.832-4.562-3.106-7.534-1.256-6.94 3.173 2.38 3.966 4.162 8.326 6.543 12.292l2.577 7.137s.197 4.56.597 4.956c5.946 6.545 6.739 12.095 6.739 12.095 3.436 6.609 6.476 11.433 12.491 16.852 6.741 4.229 1.782 17.381 1.981 24.388 0 4.428-3.171 3.899-5.947 3.369-21.874-20.09-43.552-20.156-62.653-25.971-7.466-.794-7.599 2.776-5.153 4.757 13.349 14.276 25.907 23.991 42.429 32.119l8.326 5.156 9.516 7.929c7.336 4.759 7.932 9.121 7.932 9.515.197 8.922-4.562 15.861-5.95 18.637-2.505 9.462-7.532 11.103-7.532 11.103-40.842 27.559-62.256 34.696-128.48 26.17-.991-.529-7.337.529 0 3.173 16.854 5.617 58.252 14.623 98.303-4.344 9.616-6.742 16.05-4.53 23.016-8.566 11.437-7.053 27.775-15.837 30.749-16.828 8.922-4.759 33.902-10.112 39.652-14.871 6.609-.529 13.455-1.396 13.918-7.079 2.173-1.401 5.343-.379 7.704-5.005 5.233-.911 4.352-2.787 4.352-2.787-1.321-3.699-6.213-5.22-9.713-7.929-5.156-1.72-8.723-2.248-12.492-.398l-3.569 1.587s-5.551-.792-5.551-1.189c-12.337-.677-11.136-41.559-15.499-58.61z" fill="#ffc639"/>
    <path d="M354.38 73.886a2.07 1.367 0 1 1-4.141 0 2.07 1.367 0 1 1 4.141 0z" transform="matrix(1.431 .449 -.48 1.338 117.1 -185.57)" fill="#1c8a42"/>
    <path fill="#fff" d="M80.835 413.71l-13.979-13.085-14.147 12.903 1.516-19.081-18.91-3.018 15.869-10.715-9.434-16.661 18.273 5.722 7.145-17.765 6.917 17.856 18.345-5.489-9.648 16.539 15.73 10.918-18.947 2.775z"/>
    <path fill="#fff" d="M175.379 302.312l-11.009-10.306-11.142 10.162 1.194-15.028-14.893-2.377 12.498-8.439-7.43-13.122 14.392 4.507 5.628-13.991 5.448 14.063 14.448-4.323-7.599 13.026 12.389 8.599-14.923 2.186z"/>
    <path fill="#fff" d="M189.773 538.458l-18.406-9.277-7.359 19.256-6.447-19.576-18.82 8.412 9.277-18.399-19.248-7.359 19.576-6.455-8.42-18.812 18.406 9.277 7.359-19.256 6.447 19.576 18.82-8.412-9.277 18.406 19.248 7.352-19.576 6.455z"/>
    <path fill="#fff" d="M273.844 399.958l-13.932-.413-6.718 12.222-6.612-12.28-13.932.296 7.331-11.856-7.234-11.926 13.942.413 6.708-12.222 6.612 12.28 13.942-.296-7.331 11.856z"/>
    <path fill="#fff" d="M185.688 437.954l-11.874-7.924-11.562 8.344 4.068-13.442-11.727-8.13 14.39-.385 4.307-13.379 4.83 13.209 14.39-.134-11.406 8.55z"/>
  </g>
</svg>
