<?xml version="1.0" encoding="UTF-8" standalone="no"?>
<svg xmlns="http://www.w3.org/2000/svg" height="480" width="640">
  <defs>
    <clipPath id="a">
      <path fill-opacity=".67" d="M0 0h640v480H0z"/>
    </clipPath>
  </defs>
  <g fill-rule="evenodd" clip-path="url(#a)">
    <path fill="#0021ad" d="M0 0h640v480H0z"/>
    <path d="M0 0l640 480L639.63.36 0 0z" fill="#1c8a42"/>
    <path d="M428.334 255.097a109.89 109.89 0 1 1-219.778 0 109.89 109.89 0 1 1 219.778 0z" fill="#ffc639"/>
    <path d="M250.12 206.06c7.517 10.323 18.903 27.606 28.068 23.098 7.143.023 10.838.53 11.807 5.28 16.864 2.875 45.208-4.24 62.832-27.202 0 0 1.49.193.97-8.537.1-3.81 5.202-3.04 5.324-1.812.715 1.89.586 3.31 1.543 3.356 2.18-.73 5.145-5.594 7.63-8.682.682-1.362.31-2.803.47-4.51 1.31-3.23 4.58-2.526 5.274-.84.62 1.09.63 1.93 1.248 3.02 3.32 2.21 9.32.146 9.79.146.588-2.705 2.33-2.45 2.33-2.45 2.21-.49 1.348-.293 2.796.465-1.28 14.605 2.875 15.25 2.53 22.747.15 8.357-2.53 10.734-2.53 13.934.85 3.888 13.186 4.023 8.844 7.322-3.815 2.04.02 5.855-5.728 7.333-16.693 8.477-19.894 15.75-19.894 15.75s-4.194 7.923-4.66 7.923c-2.803 5.287-6.347 2.398-8.313 4.978-.985 3.24-2.09 10.41-.123 14.14.982 5.122-.123 7.917-1.354 13.044-1.106 10.69-5.343 12.31-5.832 16.07-1.967 4.007.414 22.837-1.45 22.837-12.435.246-21.965-2.378-26.883-3.36 4.795-20.652 2.94-38.81 2.94-40.673-1.233-14.774-22.14-11.177-25.335-13.143-2.657-.564-4.324-2.725-5.26-3.658-2.952-.31-4.058-.99-7.01-1.3-1.477.737-.587 1.502-3.877 2.512-8.334 1.006-12.02-7.265-12.02-7.265.406-2.79-18.742.567-29.152-1.848-4.27 2.38-6.13 9.414-9.63 10.253-.1 2.18-5.747-1.792-6.887-3.938-.244-6.243 5.44-9.01 5.44-9.01 4.508-3.168 7.19-3.69 9.36-5.876 1.09-5.437.54-9.457 2.856-13.544 1.96-3.118 4.853-1.655 6.814-3.056 2.114-1.396 3-10.54 1.06-13.048 0 0-8.44-7.613-8.904-8.078-2.748-7.877 3.208-12.948 4.918-12.378z" fill="#1c8a42"/>
    <path d="M579.51 72.574c-2.84-11.235-28.252-35.433-47.35-50.832-4.562-3.106-7.534-1.256-6.94 3.173 2.38 3.965 4.162 8.326 6.543 12.292.66 2.643 1.916 4.493 2.577 7.136 0 0 .197 4.56.596 4.956 5.946 6.544 6.74 12.094 6.74 12.094 3.436 6.61 6.475 11.433 12.49 16.852 6.74 4.23 1.782 17.38 1.982 24.388 0 4.428-3.17 3.9-5.947 3.37-21.873-20.09-43.55-20.156-62.652-25.97-7.466-.795-7.6 2.774-5.153 4.755 13.35 14.275 25.907 23.99 42.43 32.118 2.774 1.72 5.548 3.437 8.325 5.156l9.516 7.93c7.336 4.76 7.93 9.12 7.93 9.515.198 8.922-4.56 15.86-5.948 18.636-2.505 9.463-7.533 11.103-7.533 11.103-40.842 27.558-62.256 34.695-128.48 26.17-.99-.53-7.336.528 0 3.172 16.854 5.617 58.252 14.623 98.303-4.344 9.617-6.742 16.05-4.53 23.016-8.566 11.437-7.053 27.775-15.837 30.75-16.828 8.92-4.76 33.9-10.112 39.65-14.87 6.61-.53 13.456-1.397 13.92-7.08 2.173-1.4 5.343-.38 7.703-5.005 5.233-.912 4.352-2.788 4.352-2.788-1.322-3.7-6.214-5.22-9.715-7.928-5.156-1.72-8.723-2.248-12.492-.398l-3.568 1.586s-5.55-.792-5.55-1.188c-12.338-.677-11.137-41.56-15.5-58.61z" fill="#ffc639"/>
    <path d="M588.645 72.54a3.106 1.94 15.948 1 1-5.925-1.86 3.106 1.94 15.948 1 1 5.925 1.86z" fill="#1c8a42"/>
    <path fill="#fff" d="M80.835 413.71l-13.98-13.085-14.146 12.903 1.515-19.08-18.91-3.02 15.87-10.715-9.435-16.66 18.273 5.722 7.145-17.765 6.917 17.856 18.345-5.49-9.648 16.54 15.73 10.918-18.947 2.775M175.38 302.312l-11.01-10.305-11.143 10.162 1.195-15.03-14.894-2.376 12.498-8.44-7.43-13.12 14.39 4.506 5.63-13.992 5.447 14.063 14.448-4.322-7.597 13.026 12.388 8.6-14.92 2.184M189.773 538.458l-18.406-9.277-7.36 19.257-6.447-19.576-18.82 8.413 9.278-18.398-19.25-7.36 19.577-6.455-8.42-18.812 18.407 9.278 7.36-19.256 6.447 19.575 18.818-8.412-9.277 18.407 19.25 7.35-19.576 6.457M273.844 399.958l-13.932-.413-6.718 12.222-6.612-12.28-13.932.297 7.33-11.857L232.747 376l13.943.414 6.707-12.222 6.61 12.28 13.943-.296-7.33 11.856M185.688 437.954l-11.874-7.924-11.562 8.344 4.068-13.442-11.727-8.13 14.39-.384 4.307-13.38 4.83 13.21 14.39-.134-11.405 8.55"/>
  </g>
</svg>
