<?xml version="1.0" encoding="UTF-8" standalone="no"?>
<svg width="640px" height="480px" viewBox="0 0 640 480" version="1.1" xmlns="http://www.w3.org/2000/svg" xmlns:xlink="http://www.w3.org/1999/xlink" xmlns:sketch="http://www.bohemiancoding.com/sketch/ns">
    <!-- Generator: Sketch 3.4.3 (16618) - http://www.bohemiancoding.com/sketch -->
    <title>Flag_of_Cyprus</title>
    <desc>Created with Sketch.</desc>
    <defs></defs>
    <g id="Page-1" stroke="none" stroke-width="1" fill="none" fill-rule="evenodd" sketch:type="MSPage">
        <g id="Flag_of_Cyprus" sketch:type="MSLayerGroup">
            <rect id="Rectangle-path" fill="#FFFFFF" sketch:type="MSShapeGroup" x="0" y="0" width="640" height="480"></rect>
            <g id="cyprus" transform="translate(123.000000, 79.000000)" sketch:type="MSShapeGroup">
                <path d="M182.84,322.56 C182.68,322.48 182.68,322.48 182.6,322.4 L182.52,322.32 C182.28,322.08 181.8,321.68 181.24,321.04 C180.2,319.84 178.76,318.08 177.48,316.48 C175,313.36 172.92,310.72 172.52,310.16 L171.88,309.36 L165.64,307.44 L161.08,305.36 L163.48,302.64 L171.8,306.24 L178.04,307.52 L189.56,316 L189.56,316 C189.56,316 187.88,317.36 186.28,318.88 C185.56,319.52 184.6,320.4 183.96,321.12 C183.64,321.44 183.4,321.76 183.24,322 C183.16,322.16 183.08,322.32 183,322.4 L183.72,321.92 L184.52,322.56 L182.92,322.72 L182.84,322.56 L182.84,322.56 L182.84,322.56 L182.84,322.56 Z M140.2,309.76 C134.76,309.76 129.4,308.24 124.28,305.28 L124.28,305.28 L124.28,305.28 C124.28,305.28 124.92,304 126.6,302.8 C128.12,301.68 130.92,300.32 135.48,300.32 L135.56,300.32 C140.92,300.32 147.48,302.16 155.08,305.76 C154.76,305.92 148.84,309.76 140.2,309.76 L140.2,309.76 L140.2,309.76 L140.2,309.76 L140.2,309.76 Z M116.68,304.56 C115.64,304.56 114.76,304.16 114.12,303.52 C113.64,302.96 113.24,302.24 113,301.2 C112.6,299.6 112.68,298 112.68,297.84 C113.08,297.68 113.56,297.6 113.96,297.52 L114.04,297.52 C116.04,297.52 117.64,299.28 118.28,300.96 C118.68,301.92 118.76,302.8 118.52,303.44 C118.28,304.08 117.56,304.56 116.68,304.56 L116.68,304.56 L116.68,304.56 L116.68,304.56 Z M158.04,299.76 C144.12,297.76 138.28,292.72 135.8,288.88 C133.16,284.8 133.72,280.96 133.72,280.88 L133.72,280.88 L133.72,280.88 C133.72,280.88 134.6,280.64 135.88,280.64 C139.48,280.72 148.92,282.56 158.04,299.76 L158.04,299.76 L158.04,299.76 L158.04,299.76 L158.04,299.76 L158.04,299.76 Z M129.56,297.04 C123.64,297.04 119.08,296 116.12,294 C114.44,292.8 113.56,291.6 113.16,290.72 C112.76,289.92 112.68,289.2 112.68,289.12 C112.84,289.04 115.24,288 118.92,287.84 L119.88,287.84 C124.44,287.84 131.4,289.36 138.76,296.48 L138.76,296.48 L138.76,296.48 C135.4,296.8 132.28,297.04 129.56,297.04 L129.56,297.04 L129.56,297.04 L129.56,297.04 Z M100.84,295.92 C94.6,295.92 85.96,294 80.6,288.64 L80.6,288.64 L80.6,288.64 C80.68,288.64 86.44,287.12 93,286.96 L94.2,286.96 C100.04,286.96 104.52,288.08 107.56,290.32 C108.6,291.12 109.16,291.84 109.32,292.56 C109.4,293.12 109.08,293.76 108.44,294.24 C107.08,295.28 104.68,295.76 101.32,295.84 L100.84,295.92 L100.84,295.92 L100.84,295.92 L100.84,295.92 Z M80.52,285.52 C79.72,285.52 79,285.2 78.52,284.56 C78.12,284.08 77.8,283.44 77.64,282.56 C77.32,281.12 77.4,279.6 77.4,279.6 L77.4,279.6 C77.72,279.44 78.04,279.36 78.36,279.36 L78.36,279.36 C79.32,279.36 79.96,279.84 80.44,280.32 C81,280.88 81.48,281.6 81.8,282.4 C82.12,283.2 82.12,283.92 81.96,284.48 C81.8,285.04 81.32,285.52 80.52,285.52 L80.52,285.52 L80.52,285.52 L80.52,285.52 Z M127.4,284.48 C126.36,284.48 125.48,284.08 124.84,283.44 C124.36,282.88 123.96,282.16 123.72,281.12 C123.32,279.52 123.4,277.92 123.4,277.76 C123.8,277.6 124.28,277.52 124.68,277.44 L124.76,277.44 C126.76,277.44 128.36,279.2 129,280.88 C129.4,281.84 129.48,282.72 129.24,283.36 C129,284 128.28,284.48 127.4,284.48 L127.4,284.48 L127.4,284.48 L127.4,284.48 Z M104.6,283.52 C92.04,283.04 85.48,279.52 82.2,276.56 C80.36,274.88 79.32,273.28 78.84,272.24 C78.36,271.2 78.12,270.48 78.12,270.32 L78.12,270.32 C78.12,270.32 79.32,269.92 81.24,269.84 L81.56,269.84 C85.72,269.76 94.36,271.6 104.6,283.52 L104.6,283.52 L104.6,283.52 L104.6,283.52 L104.6,283.52 Z M118.2,282.24 C108.04,280.72 102.36,276.32 99.32,272.96 C96.12,269.44 95.16,266.16 95.16,266 C95.16,266 96.44,265.68 98.28,265.6 L98.68,265.6 L99.16,265.6 C104.28,265.76 113.48,268.08 118.2,282.24 L118.2,282.24 L118.2,282.24 L118.2,282.24 L118.2,282.24 Z M66.2,277.36 C62.92,277.36 59.64,276.96 56.6,276.24 C51.32,274.88 49,272.88 48.04,271.44 C47.48,270.64 47.32,269.84 47.24,269.44 C47.16,268.96 47.24,268.64 47.24,268.56 L47.24,268.56 C47.24,268.56 50.76,267.6 55.64,267.52 L56.2,267.52 C58.52,267.52 60.84,267.76 63.08,268.16 C71.48,269.84 75.88,276.24 75.96,276.24 L75.96,276.24 L75.96,276.24 C75.88,276.24 71.88,277.36 66.2,277.36 L66.2,277.36 L66.2,277.36 L66.2,277.36 Z M89.72,268.88 C88.68,268.88 87.8,268.48 87.16,267.84 C86.68,267.28 86.28,266.56 86.04,265.52 C85.64,263.92 85.72,262.32 85.72,262.16 C86.12,262 86.6,261.92 87,261.84 L87.08,261.84 C89.08,261.84 90.68,263.6 91.32,265.28 C91.72,266.24 91.72,267.04 91.48,267.68 C91.32,268.4 90.6,268.88 89.72,268.88 L89.72,268.88 L89.72,268.88 L89.72,268.88 Z M72.04,266.4 C71.96,266.4 67.24,265.2 62.44,262.24 C58.04,259.52 52.6,254.64 51.88,247.2 L51.88,247.2 L51.88,247.2 C51.88,247.2 52.28,247.12 52.92,247.04 L53.16,247.04 C54.52,247.04 57.16,247.44 60.44,249.92 C64.76,253.12 68.6,258.64 72.04,266.4 L72.04,266.4 L72.04,266.4 L72.04,266.4 Z M83.64,266 C83.64,266 80.28,264.64 76.04,261.12 C72.12,257.84 66.68,251.92 62.68,242.48 C62.68,242.48 63.56,242 65,241.92 L65.24,241.92 L65.64,241.92 C67.56,242 70.52,242.8 73.8,246.32 C77.48,250.32 80.76,256.96 83.64,266 L83.64,266 L83.64,266 L83.64,266 L83.64,266 L83.64,266 Z M53.72,265.12 C49.88,265.12 48.52,263.04 48.12,262.16 C47.48,260.72 47.64,259.2 47.64,259.2 L47.64,259.2 C48.28,259.04 48.92,258.96 49.56,258.96 L49.72,258.96 C52.76,258.96 55.16,260.48 56.2,262 C56.44,262.32 57,263.36 56.52,264.16 C56.12,264.8 55.16,265.12 53.72,265.12 L53.72,265.12 L53.72,265.12 L53.72,265.12 Z M45.16,254.32 C43,254.32 39.72,254.16 36.28,253.52 C32.84,252.88 30.92,250 29.88,247.6 C28.76,245.04 28.44,242.64 28.44,242.56 L28.44,242.56 C39.08,242.88 44.12,246 46.44,248.56 C48.84,251.2 49,253.92 49,254.08 L49,254.08 C48.92,254.24 47.4,254.32 45.16,254.32 L45.16,254.32 L45.16,254.32 L45.16,254.32 Z M56.2,243.28 C56.2,243.28 55,241.76 53.8,239.92 C52.52,238 51.4,235.92 51.4,234.24 C51.4,232.64 51,229.2 50.76,227.36 C50.44,224.96 50.2,222.96 50.12,222.72 L50.12,222.72 C50.36,222.8 56.76,225.2 56.76,231.2 C56.84,237.2 56.2,243.2 56.2,243.28 L56.2,243.28 L56.2,243.28 L56.2,243.28 L56.2,243.28 L56.2,243.28 Z M47.96,242.72 L47.8,242.72 C45.88,242.4 42.6,240.96 38.92,238.88 C34.84,236.56 31.56,234.08 29.64,231.84 C27.88,229.84 26.84,226.64 26.52,222.48 C26.28,219.52 26.6,216.96 26.6,216.72 C26.92,216.64 27.32,216.56 27.64,216.56 C29.08,216.56 30.52,217.2 32.6,218.64 C34.2,219.76 35.96,221.2 37.8,223.04 C41,226.24 43.56,229.36 43.56,229.44 L43.56,229.44 C43.8,229.84 45.56,233.12 47,236.32 C47.88,238.32 48.44,239.84 48.6,240.88 C48.68,241.52 48.76,241.92 48.6,242.32 C48.52,242.48 48.44,242.64 48.28,242.64 C48.2,242.72 48.12,242.72 47.96,242.72 L47.96,242.72 L47.96,242.72 L47.96,242.72 Z" id="branch" fill="#435125"></path>
                <path d="M162.6624,322.56 C162.8224,322.48 162.8224,322.48 162.9024,322.4 L162.9824,322.32 C163.2224,322.08 163.7024,321.68 164.2624,321.04 C165.3024,319.84 166.7424,318.08 168.0224,316.48 C170.5024,313.36 172.5824,310.72 172.9824,310.16 L173.6224,309.36 L179.8624,307.44 L184.4224,305.36 L182.0224,302.64 L173.7024,306.24 L167.4624,307.52 L155.9424,315.84 C155.9424,315.84 157.6224,317.2 159.2224,318.72 C159.9424,319.36 160.9024,320.24 161.5424,320.96 C161.8624,321.28 162.1024,321.6 162.2624,321.84 C162.3424,322 162.4224,322.16 162.5024,322.24 L161.7824,321.76 L160.9824,322.4 L162.5824,322.56 L162.6624,322.56 L162.6624,322.56 Z M205.3024,309.76 C210.7424,309.76 216.1024,308.24 221.2224,305.28 C221.2224,305.28 220.5824,304 218.9024,302.8 C217.3824,301.68 214.5824,300.32 210.0224,300.32 L209.9424,300.32 C204.5824,300.32 198.0224,302.16 190.4224,305.76 C190.7424,305.92 196.6624,309.76 205.3024,309.76 L205.3024,309.76 Z M228.8224,304.56 C229.8624,304.56 230.7424,304.16 231.3824,303.52 C231.8624,302.96 232.2624,302.24 232.5024,301.2 C232.9024,299.6 232.8224,298 232.8224,297.84 C232.4224,297.68 231.9424,297.6 231.5424,297.52 L231.4624,297.52 C229.4624,297.52 227.8624,299.28 227.2224,300.96 C226.8224,301.92 226.7424,302.8 226.9824,303.44 C227.1424,304.08 227.9424,304.56 228.8224,304.56 L228.8224,304.56 Z M187.4624,299.76 C201.3824,297.76 207.2224,292.72 209.7024,288.88 C212.3424,284.8 211.7824,280.96 211.7824,280.88 C211.7824,280.88 210.9024,280.64 209.6224,280.64 C206.0224,280.72 196.5824,282.56 187.4624,299.76 L187.4624,299.76 Z M215.9424,297.04 C221.8624,297.04 226.4224,296 229.3824,294 C231.0624,292.8 231.9424,291.6 232.3424,290.72 C232.7424,289.92 232.8224,289.2 232.8224,289.12 C232.6624,289.04 230.2624,288 226.5824,287.84 L225.6224,287.84 C221.0624,287.84 214.1024,289.36 206.7424,296.48 C210.1024,296.8 213.1424,297.04 215.9424,297.04 L215.9424,297.04 Z M244.6624,295.92 C250.9024,295.92 259.5424,294 264.9024,288.64 C264.8224,288.64 259.0624,287.12 252.5024,286.96 L251.3024,286.96 C245.4624,286.96 240.9824,288.08 237.9424,290.32 C236.9024,291.12 236.3424,291.84 236.1824,292.56 C236.1024,293.12 236.4224,293.76 237.0624,294.24 C238.4224,295.28 240.8224,295.76 244.1824,295.84 L244.6624,295.92 L244.6624,295.92 Z M264.9024,285.52 C265.7024,285.52 266.4224,285.2 266.9024,284.56 C267.3024,284.08 267.6224,283.44 267.7824,282.56 C268.1024,281.12 268.0224,279.6 268.0224,279.6 C267.7024,279.44 267.3824,279.36 267.0624,279.36 C266.1024,279.36 265.4624,279.84 264.9824,280.32 C264.4224,280.88 263.9424,281.6 263.6224,282.4 C263.3024,283.2 263.3024,283.92 263.4624,284.48 C263.6224,285.04 264.1824,285.52 264.9024,285.52 L264.9024,285.52 Z M218.1024,284.48 C219.1424,284.48 220.0224,284.08 220.6624,283.44 C221.1424,282.88 221.5424,282.16 221.7824,281.12 C222.1824,279.52 222.1024,277.92 222.1024,277.76 C221.7024,277.6 221.2224,277.52 220.8224,277.44 L220.7424,277.44 C218.7424,277.44 217.1424,279.2 216.5024,280.88 C216.1024,281.84 216.0224,282.72 216.2624,283.36 C216.5024,284 217.2224,284.48 218.1024,284.48 L218.1024,284.48 Z M240.9024,283.52 C253.4624,283.04 260.0224,279.52 263.3024,276.56 C265.1424,274.88 266.1824,273.28 266.6624,272.24 C267.1424,271.2 267.3824,270.48 267.3824,270.32 C267.3824,270.32 266.1824,269.92 264.2624,269.84 L263.9424,269.84 C259.7824,269.76 251.1424,271.6 240.9024,283.52 L240.9024,283.52 Z M227.2224,282.24 C237.3824,280.72 243.0624,276.32 246.1024,272.96 C249.3024,269.44 250.2624,266.16 250.2624,266 C250.2624,266 248.9824,265.68 247.1424,265.6 L246.7424,265.6 L246.2624,265.6 C241.2224,265.76 232.0224,268.08 227.2224,282.24 L227.2224,282.24 Z M279.2224,277.36 C282.5024,277.36 285.7824,276.96 288.8224,276.24 C294.1024,274.88 296.4224,272.88 297.3824,271.44 C297.9424,270.64 298.1024,269.84 298.1824,269.44 C298.2624,268.96 298.1824,268.64 298.1824,268.56 C298.1824,268.56 294.6624,267.6 289.7824,267.52 L289.2224,267.52 C286.9024,267.52 284.5824,267.76 282.3424,268.16 C273.9424,269.84 269.5424,276.24 269.4624,276.24 C269.6224,276.24 273.6224,277.36 279.2224,277.36 L279.2224,277.36 Z M255.7024,268.88 C256.7424,268.88 257.6224,268.48 258.2624,267.84 C258.7424,267.28 259.1424,266.56 259.3824,265.52 C259.7824,263.92 259.7024,262.32 259.7024,262.16 C259.3024,262 258.8224,261.92 258.4224,261.84 L258.3424,261.84 C256.3424,261.84 254.7424,263.6 254.1024,265.28 C253.7024,266.24 253.7024,267.04 253.9424,267.68 C254.1024,268.4 254.8224,268.88 255.7024,268.88 L255.7024,268.88 Z M273.3824,266.4 C273.4624,266.4 278.1824,265.2 282.9824,262.24 C287.3824,259.52 292.8224,254.64 293.5424,247.2 C293.5424,247.2 293.1424,247.12 292.5024,247.04 L292.2624,247.04 C290.9024,247.04 288.2624,247.44 284.9824,249.92 C280.7424,253.12 276.8224,258.64 273.3824,266.4 L273.3824,266.4 Z M261.8624,266 C261.8624,266 265.2224,264.64 269.4624,261.12 C273.3824,257.84 278.8224,251.92 282.8224,242.48 C282.8224,242.48 281.9424,242 280.5024,241.92 L280.2624,241.92 L279.8624,241.92 C277.9424,242 274.9824,242.8 271.7024,246.32 C268.0224,250.32 264.6624,256.96 261.8624,266 L261.8624,266 Z M291.7824,265.12 C295.6224,265.12 296.9824,263.04 297.3824,262.16 C298.0224,260.72 297.8624,259.2 297.8624,259.2 C297.2224,259.04 296.5824,258.96 295.9424,258.96 L295.7824,258.96 C292.7424,258.96 290.3424,260.48 289.3024,262 C289.0624,262.32 288.5024,263.36 288.9824,264.16 C289.3824,264.8 290.3424,265.12 291.7824,265.12 L291.7824,265.12 Z M300.3424,254.32 C302.5024,254.32 305.7824,254.16 309.2224,253.52 C312.6624,252.88 314.5824,250 315.6224,247.6 C316.7424,245.04 317.0624,242.64 317.0624,242.56 C306.4224,242.88 301.3824,246 299.0624,248.56 C296.6624,251.2 296.5024,253.92 296.5024,254.08 C296.5824,254.24 298.0224,254.32 300.3424,254.32 L300.3424,254.32 Z M289.2224,243.28 C289.2224,243.28 290.4224,241.76 291.6224,239.92 C292.9024,238 294.0224,235.92 294.0224,234.24 C294.0224,232.64 294.4224,229.2 294.6624,227.36 C294.9824,224.96 295.2224,222.96 295.3024,222.72 C295.0624,222.8 288.6624,225.2 288.6624,231.2 C288.6624,237.2 289.2224,243.2 289.2224,243.28 L289.2224,243.28 Z M297.5424,242.72 L297.7024,242.72 C299.6224,242.4 302.9024,240.96 306.5824,238.88 C310.6624,236.56 313.9424,234.08 315.8624,231.84 C317.6224,229.84 318.6624,226.64 318.9824,222.48 C319.2224,219.52 318.9024,216.96 318.9024,216.72 C318.5824,216.64 318.1824,216.56 317.8624,216.56 C316.4224,216.56 314.9824,217.2 312.9024,218.64 C311.3024,219.76 309.5424,221.2 307.7024,223.04 C304.5024,226.24 301.9424,229.36 301.9424,229.44 C301.7024,229.84 299.9424,233.12 298.5024,236.32 C297.6224,238.32 297.0624,239.84 296.9024,240.88 C296.8224,241.52 296.7424,241.92 296.9024,242.32 C296.9824,242.48 297.0624,242.64 297.2224,242.64 C297.3024,242.72 297.3824,242.72 297.5424,242.72 L297.5424,242.72 Z" id="branch_1_" fill="#435125"></path>
                <path d="M394.04,0.4 L392.12,1.12 L391.4,1.44 L389.08,1.28 L386.92,2.32 L383.16,4.88 L383,5.04 L381.56,5.44 L380.28,4.88 L379.56,5.2 L379.32,6.72 L378.6,7.84 L377.72,8.48 L374.68,8.8 L372.12,10.08 L368.76,9.2 L367.24,9.84 L363.96,12.8 L362.28,13.6 L361.72,13.6 L359.48,13.52 L358.52,13.84 L357.08,15.2 L354.44,15.44 L353.64,16 L352.36,18.64 L350.92,20.08 L350.12,20.24 L349.24,19.92 L348.6,20 L348.28,21.68 L347.64,22.4 L345.88,23.04 L344.6,24 L343.32,24.64 L341.64,24.56 L341.24,24.56 L339.56,25.44 L336.44,25.68 L335.16,26.88 L334.84,27.12 L334.2,27.52 L333.24,28.08 L333,28.24 L331.8,28 L330.36,28.56 L329.8,27.68 L328.84,28.24 L327.56,28.32 L325.96,27.6 L324.76,27.04 L323.88,27.2 L323.56,28.72 L323.56,28.88 L322.6,30.16 L320.84,31.2 L320.6,31.52 L318.6,34.08 L314.84,38.08 L311.64,39.68 L308.36,40.72 L306.04,42.64 L299.96,45.68 L290.36,50.48 L288.36,51.12 L285.56,51.6 L280.52,53.44 L276.12,54.8 L275.88,54.88 L275,55.12 L268.76,57.04 L265.88,56.72 L264.12,57.36 L259.64,56.88 L256.52,56.96 L254.52,57.36 L250.84,59.12 L244.6,62.16 L242.52,64.08 L239.32,65.76 L235.56,66.96 L235.56,65.36 L235.56,65.28 L234.28,65.68 L233.32,66 L230.28,66.48 L228.6,66.48 L227.56,66.16 L227.4,66.24 L221.16,68.32 L214.2,68.96 L210.68,70.08 L208.04,70 L206.44,70.48 L203.24,70.88 L202.12,70.56 L201.88,70.48 L192.44,70.88 L188.12,70.4 L186.04,70.88 L182.6,69.76 L177.56,69.2 L176.36,68.88 L173.72,68.08 L172.52,68.8 L171.64,68.88 L169.48,68.08 L168.68,68.08 L166.92,68.72 L165.88,68.48 L164.92,67.76 L162.68,67.44 L161.32,66.32 L153.8,67.28 L151.72,66.64 L144.84,64.64 L143.72,64.72 L142.36,65.76 L140.6,66.4 L138.84,66.88 L136.44,66.96 L133.64,66.24 L130.76,64.88 L129.72,64.64 L127.32,64.88 L126.6,64.96 L122.2,62.64 L116.6,59.12 L112.76,57.28 L111.32,57.04 L111.16,57.76 L111.88,60 L112.12,62.24 L112.04,64.32 L112.04,65.6 L112.36,66.72 L113.72,68.24 L114.28,69.76 L114.68,74 L114.68,78.32 L114.04,85.2 L113.8,86.24 L113,89.76 L112.28,93.04 L109.48,101.68 L108.68,102.72 L106.76,104 L102.44,106.96 L99.24,108.8 L98.2,109.2 L95.64,109.36 L94.04,109.28 L92.04,108.16 L90.04,107.68 L87.48,105.84 L84.6,105.28 L81.48,103.44 L80.68,102.48 L79,102.32 L76.6,101.6 L76.6,101.6 L75.72,101.36 L75.08,101.2 L75.08,101.2 L72.04,101.12 L69.24,99.84 L67.72,99.52 L65.72,99.44 L63.56,100.4 L63.56,100.4 L62.44,100.88 L61.08,100.32 L60.12,100.4 L59,102.08 L58.84,102.32 L58.04,102.72 L57.08,102.72 L56.36,102.72 L55.56,103.04 L54.44,103.52 L54.44,103.52 L53.48,103.92 L53,104.16 L53,104.16 L52.6,104 L52.12,104.08 L51.48,104.24 L50.36,103.6 L49.72,103.28 L48.68,103.04 L48.12,103.44 L48.04,105.28 L47.56,106.4 L45.96,107.76 L44.36,109.2 L43.24,110.8 L40.28,117.52 L38.44,120.24 L37.88,120.88 L35.96,123.04 L34.28,124.4 L30.36,127.44 L26.6,128.8 L23.4,129.44 L21.8,129.44 L18.84,129.04 L16.2,128.24 L13.32,126.4 L10.12,123.84 L5.48,119.28 L4.84,118.88 L4.68,118.8 L3.24,117.84 L2.12,117.84 L1.72,118.56 L1.48,119.6 L1.32,120.48 L0.76,125.6 L0.76,125.92 L1,128 L4.52,132.88 L5.64,135.52 L5.8,135.84 L6.52,137.04 L7.08,138 L7.16,138.08 L8.36,141.68 L7.48,143.68 L7.88,145.04 L6.84,145.84 L6.68,147.04 L9.88,151.04 L10.6,152.8 L9.8,155.2 L8.6,156.56 L8.28,156.96 L8.44,158 L9.88,159.28 L12.36,161.52 L13.64,164.8 L14.68,165.68 L15.88,165.44 L16.52,165.92 L17.48,165.92 L18.44,166.88 L19.08,167.2 L20.04,167.68 L20.84,168.72 L21,171.84 L22.44,175.76 L22.44,177.84 L22.44,178.16 L23.32,179.68 L23.64,180.88 L23.16,184.16 L24.28,185.2 L25.56,184.96 L26.36,185.12 L27.64,186.24 L29.24,188.64 L30.76,188.4 L31.72,188.88 L36.44,193.12 L37.48,193.68 L37.56,193.68 L38.36,194.08 L39.32,195.04 L40.84,194.08 L41,194.08 L42.6,193.92 L43.32,194.4 L44.68,195.28 L46.44,195.28 L50.28,196.48 L51.96,196.88 L55.4,198.96 L56.84,199.84 L57.72,200.56 L58.84,201.52 L61.08,202.48 L63,202.96 L64.04,203.2 L64.84,203.52 L64.84,203.44 L64.84,203.44 L64.84,203.52 L69.08,205.12 L71.4,205.68 L73.48,206.48 L75,207.04 L76.12,207.04 L77.72,205.68 L79.24,205.6 L80.52,205.92 L81.8,205.68 L83.8,204.48 L84.2,203.92 L85.64,203.28 L90.36,202.72 L91.72,203.2 L95.32,201.68 L97.72,202.32 L99.8,201.6 L104.44,202.64 L105.64,203.52 L107,205.12 L107.16,205.12 L108.68,205.12 L108.04,206.16 L110.04,208.24 L111.88,210.96 L112.04,211.36 L113.4,215.28 L114.36,216.64 L115.08,218.56 L115.08,219.84 L114.04,220.64 L113.88,221.12 L113.8,221.28 L114.04,221.84 L114.44,221.6 L115.24,221.2 L116.2,221.04 L117.88,221.2 L119,221.28 L120.76,220.4 L121.88,219.84 L123.72,220.64 L125.72,220.64 L126.6,221.04 L129,222.16 L130.2,222.24 L130.68,221.92 L131,221.2 L130.84,220.4 L129.96,219.36 L127.96,217.04 L127.16,215.84 L126.52,214.08 L126.36,211.84 L126.2,210.32 L126.44,208.32 L127,207.6 L127.4,206 L127.4,206 L127.48,205.6 L128.6,204.08 L131.56,202.16 L134.76,199.28 L137.32,197.6 L139.96,196.48 L140.04,196.16 L140.36,196.24 L147,194 L147.08,194 L150.04,193.52 L169.96,194.96 L170.68,194.72 L170.68,194.72 L171.32,192.88 L171.64,192.56 L171.88,192.32 L174.04,191.36 L175.08,191.2 L177.96,191.92 L179.16,192.24 L181,191.2 L182.36,191.2 L185.08,189.68 L186.76,189.76 L187.4,189.52 L190.68,187.12 L193.88,186.24 L194.68,185.84 L195,185.68 L198.28,184 L200.36,182.4 L202.12,181.44 L204.04,180.96 L209.16,180.64 L210.2,178.96 L212.36,178.64 L213.72,177.12 L215.24,176.48 L216.36,174.88 L217.24,173.6 L218.52,172.88 L222.6,172.64 L227.4,173.2 L228.04,172.8 L229.16,168.88 L230.28,168.16 L233.4,163.68 L233.4,162.08 L233.4,160.72 L233.88,158.8 L233.56,155.28 L233.96,151.76 L235.88,147.28 L237.56,145.44 L240.28,143.6 L241.64,142.96 L243.56,142.64 L243.56,142.64 L243.88,142.56 L244.36,142.48 L251.08,142.4 C251.16,142.32 253.56,142.4 253.56,142.4 L255.8,142.4 L261.48,143.44 L261.88,143.52 L263.8,144.16 L266.04,145.92 L268.36,148.24 L268.84,148.64 L270.36,149.28 L270.84,149.52 L272.12,149.28 L273.88,148.32 L275.24,147.2 L277.08,146.16 L277.16,146.08 L278.2,144.56 L278.2,144.56 L278.2,144.56 L278.2,144.56 L278.2,144.56 L278.6,143.92 L282.12,142.56 L286.28,142.32 L286.76,142.08 L287,141.92 L288.12,140.64 L289.16,140.64 L291.64,141.52 L293.4,141.2 L294.84,141.76 L295.96,141.6 L298.04,141.36 L300.28,142.88 L301.56,143.04 L306.12,145.68 L306.36,145.68 L306.52,145.68 L306.76,145.76 L307.32,145.6 L308.12,145.36 L308.2,145.36 L308.28,145.52 L308.76,146.24 L309.48,146.32 L310.28,145.2 L309.96,144.72 L309.8,144.56 L308.2,144.24 L306.76,141.76 L308.12,140.24 L305.96,137.6 L305.56,137.12 L305.4,136.96 L304.68,135.84 L300.92,130.08 L295.96,126.16 L295.96,126.16 L294.2,124 L294.2,124 L293.56,123.52 L290.92,120.8 L289,118.32 L288.76,117.76 L288.36,116.88 L287.24,114.4 L285.24,112.88 L283.64,111.12 L283.56,111.04 L280.28,106.56 L279.72,105.84 L278.92,105.36 L277.24,105.36 L277.08,105.2 L277,105.12 L277.08,105.04 L277.88,104.24 L278.76,104 L279.16,103.12 L277.48,98.24 L277.48,98.08 L277.32,96.56 L278.68,89.44 L278.84,88.56 L281.16,83.76 L282.6,82.56 L284.2,79.44 L285.56,77.44 L286.84,76.16 L287.08,76 L289.4,74.56 L291.4,74.32 L293.24,74.08 L296.52,75.12 L299.64,75.04 L300.28,74.96 L301.72,74.8 L304.04,74.08 L305.16,73.44 L305.72,72.56 L306.92,68.56 L307.32,67.28 L308.04,65.92 L312.28,61.04 L315.48,58.08 L322.68,52.8 L326.2,50.72 L328.04,49.68 L344.12,42.56 L348.28,38.32 L350.44,36.08 L354.28,33.52 L358.76,31.68 L362.68,28.64 L363.56,27.6 L364.6,24.16 L365.48,23.92 L366.28,22.16 L366.52,21.68 L369.72,19.44 L370.2,19.2 L382.52,13.04 L384.28,13.28 L385.24,11.84 L388.84,11.2 L389.48,11.12 L390.36,10.64 L391.08,9.36 L391.08,9.12 L391.16,5.68 L391.96,4.72 L392.36,2.48 L392.76,1.92 L393.16,1.36 L394.2,0.8 L394.04,0.4 L394.04,0.4 L394.04,0.4 Z" id="Shape" fill="#D47600"></path>
            </g>
        </g>
    </g>
</svg>
