<svg xmlns="http://www.w3.org/2000/svg" height="480" width="640"><g><rect height="480" width="640" fill="#fff"/><polygon fill="#808080" fill-rule="evenodd" transform="matrix(.562 0 0 .562 -93.752 -60.109)" points="699.33 498.15 702.35 494.17 700.78 489.43 705.5 491.07 709.52 488.11 709.42 493.1 713.47 496.02 708.7 497.46 707.18 502.22 704.33 498.12"/><path d="M164.84 244.11h.308c-.823 0-.391-.063.926.942 1.076.438 2.023.628 3.702.628 1.472.107 2.745.314 4.319.314 1.447.622 2.272 1.189 3.393 1.57.495.763 1.574 2.471 2.159 3.14 1.086.814 2.397 1.31 3.393 2.198 1.241.344 2.031.882 3.393 1.883 1.025.495 1.995.902 3.393 1.57 1.343.472 2.81 1.104 4.01 1.57 1.057.253 2.47.686 3.393 1.256 1.311.29 2.411.662 4.011.942 1.633.198 2.457.637 4.01.942 1.394.718 2.48 1.254 4.011 1.884.621.929 1.155 1.765 2.468 2.197l2.468 1.884c.994.479 2.088.796 3.393 1.256 1.573.114 2.708.569 4.319.628h8.638c1.377.167 2.919.386 4.01.628 1.51 0 2.982.026 4.319-.314 1.726-.021 2.532-.512 4.011-.628 1.65.267 2.769.119 3.393 1.57 1.022 1.041 1.644 2.06 1.85 3.454.325.993.309 2.634.309 4.081 0 1.364.007 2.85.308 3.768.982.964 1.748 1.249 3.085 1.57.992.336 2.819.63 3.702 1.256.729.778 1.086 2.015 2.159 2.826.939.734 2.509.887 4.01.941h4.319c1.348 0 3.138.131 4.011-.314 1.336-.495 1.687-1.414 3.393-1.57 1.607.247 1.574 1.021 2.776 1.57.765 1.122 1.49 1.585 2.468 2.198.634.923 1.464 1.639 2.777 1.884 1.607-.166 3.062-.645 4.319-.942.44-1.121.978-1.894 1.542-2.826.418-.72.617-.905.617-2.198.462-.938.404-2.847 0-4.081-.058-1.598-.425-2.442-.617-4.082 0-1.522.071-2.97.308-4.081.634-.745 1.047-1.963 1.543-2.826.841-1.027 1.621-1.413 2.776-1.883.976-.331 2.588-.315 4.011-.315.755-.23 2.007-.154 1.542-.628-.4.407-1.935.536-.308.628.885-.611 2.5-.892 3.393-1.256 1.317-.202 2.107-.657 3.393-.941.962-.573 2.038-.847 3.393-1.257 1.117-.433 2.374-.855 3.702-1.256 1.42-.679 2.296-1.062 3.702-1.256.967-.519 2.182-.628 3.702-.628 1.425.93 2.173 1.659 3.393 2.825.583.873 1.105 1.399 1.542 2.512.987.684 1.515 1.188 3.393 1.256 1.486 0 2.075.258 2.468-.941.812-.737 1.232-2.039 2.159-2.826.92-.92 2.057-1.388 3.085-1.883 1.158-.322 2.094-.748 3.702-.942 1.07-.398 2.176-.483 3.393.314.906 1.287 1.928 2.601 3.085 4.082.785.517 1.746.628 3.084.628.942-.479 2.885-.314 4.319-.314 1.263.37 1.815 1.217 3.085 1.57.71.072 1.092.314 1.851.314 2.256.298 3.195.072 4.935-.314h4.319c1.516.058 2.333.314 4.01.314.937.579 2.544.848 3.702 1.257 1.46.35 1.739.914 3.084 1.57.873.444 2.662.314 4.011.314 1.61-.195 2.681-.474 4.01-.942 1.171-.291 1.666-.592 2.159-1.57.767-.53 1.825-1.38 2.468-2.198.847-.586 1.583-1.335 2.159-2.198.831-.558 2.228-1.98 2.777-2.825.788-.642 1.631-1.988 2.159-2.826.677-1.024 1.531-1.617 2.159-3.139.481-1.468.544-2.618.926-4.082.318-1.186.901-2.19 1.234-3.767.627-1.375 1.129-2.716 1.542-3.768.757-.864 1.26-1.909 2.159-2.825.516-.812 1.204-1.225 1.851-1.884.735-.713 1.843-1.24 3.084-1.57 1.274-.353 1.825-.922 2.468-1.884 1.166-.395 1.854-.907 3.393-1.256 1.353-.408 2.462-.667 3.702-.942h4.319c1.555 0 2.895.142 4.318.315 1.406.409 2.726.765 4.011.942.883.425 2.352 1.202 3.085 1.883.921.619 1.927 1.619 2.468 2.512.403 1.232 1.058 1.776 1.85 2.826.824 1.091 1.518 1.782 3.085 2.512 1.248.294 2.271.83 3.702.942 1.639 0 2.631.206 4.011.314 1.509 0 2.982.026 4.319-.314 1.347-.792 1.83-1.003 2.776-2.198 1.244-.623 2.148-1.118 3.702-1.256 1.022-.226 2.288-.314 3.702-.314.801.559 1.651.769 2.159 1.57.813.586.866.903 2.159.942.882.525 2.181.775 3.393.942h4.318c1.183-1.011 1.543-.896 1.543-2.198.955-.778 1.428-1.871 2.468-3.14.564-.932 1.103-1.706 1.542-2.826.337-1.029.756-2.607.926-3.767.39-1.041.757-2.642.926-4.081.374-1.451.617-2.748.617-4.396v-4.396c-.018-1.552-.247-2.638-.617-3.767-.489-1.387-1.306-2.401-1.851-3.454-.913-.734-2.041-1.764-2.776-2.512-1.403-.861-2.466-1.487-3.702-2.198-1.351-.852-2.649-1.591-3.702-2.198-.619-.704-1.624-1.672-2.159-2.198-.423-.86-.423-2.908 0-3.767.036-1.307.172-2.06.925-2.826 1.406-.513 2.343-1.189 3.393-1.884.682-.971 1.751-1.158 3.085-2.197 1.335-.596 2.092-.909 3.085-1.884 1.443-.49 2.79-1.488 4.01-1.884.661-.813 1.897-1.485 3.393-1.883 1.07-.742 2.351-1.531 3.393-1.884 1.453-.784 2.532-1.059 4.011-1.884 1.508-.383 2.855-1.073 4.319-1.57.375-.467.823-.813 1.542-.942 1.92-.116 3.521-.326 4.627-1.256 1.24-.447 1.369-1.354 2.159-2.198.567-1.038 1.187-1.499 1.542-2.825.981-1.073.439-1.387-1.234-1.57-.526-.536-1.001.005-1.234-.941-1.107-.506-1.396-1.384-2.159-2.198-.466-1.298-.455-1.881.926-2.512.86-.595 2.085-.795 2.777-1.57 1.285-.197 2.261-.762 3.393-1.256 1.677-.122 2.568-.507 4.01-.942 1.227-.667 2.024-1.059 3.085-1.57 1.268-.559 2.78-1.348 4.01-1.884 1.106-.75 2.511-1.484 4.011-1.883 1.105-.572 2.463-1.02 3.702-1.57 1.057-.253 2.47-.685 3.393-1.256 1.422-.276 2.961-.798 4.011-1.256 1.032-.474 2.248-1.071 3.084-1.57 1.278-.563 2.19-1.236 3.394-1.57.729-.707 1.711-1.209 2.776-1.57.868-.82 2.715-1.954 3.702-2.512.936-.451 2.03-.911 2.777-1.57l1.234-.314c2.248-.689 3.396-.945 4.627-2.198.956-.461 1.94-.961 2.776-1.57 1.029-.831 1.849-1.585 2.468-2.512 1.123-.406 1.738-1.198 2.777-1.884 1.076-.438 2.024-.628 3.702-.628 1.349 0 3.138.131 4.011-.314 1.935-.023 2.439-.496 3.702-1.256.418-1.198 1.309-1.797 2.468-2.512.683-.634 2.408-1.584 3.085-2.198 1.335-.651 1.912-1.481 3.085-2.512.906-.992 2.041-1.909 3.084-2.512 1.297-.575 2.226-.834 3.393-1.256 1.461-.265 2.929-.538 4.316-.942 1.578-.123 2.136-.593 3.398-.942.873-.848 1.402-1.275 2.466-2.512.521-1.443 1.292-1.971 2.775-2.198 1.49-.793 2.686-.887 3.707-1.884 1.042-1.063 1.762-2.259 2.775-3.454.573-1.353 1.108-2.167 1.233-3.767-.022-1.927-.433-2.204-1.233-3.454-.771-1.125-1.255-1.841-1.85-2.826-.962-.553-2.327-1.102-3.398-1.57-1.468.115-2.371.45-3.391.942-1.05.864-1.776 1.573-2.466 2.825-.47 1.012-.785 2.125-1.233 3.454-.587.854-1.989 1.664-3.09 2.198-1.292.575-2.217.834-3.391 1.256-1.461.514-2.142.958-3.701 1.57-.912.439-2.175 1.115-3.085 1.57-1.342.813-2.627 1.446-3.702 1.884-1.368.79-2.15 1.224-3.393 1.57-1.403.849-2.761 1.493-4.011 2.198-1.037.518-2.049 1.192-3.393 1.884-1.091.241-2.634.461-4.01.628h-4.628c-1.318-.309-2.887-.579-4.318-1.256-1.536-.81-2.288-1.322-3.393-2.198-.676-1.339-.904-1.98-.926-3.767-.959-.488-2.285-.61-3.702-.628-1.565 0-3.016-.059-4.011.628-1.343.203-2.472.756-3.393 1.57-1.42.687-2.348 1.516-3.393 2.198-1.087.667-2.493 1.666-3.702 2.198-1.135.495-2.911 1.038-4.319 1.57-1.812.53-3.122 1.114-4.935 1.257-1.549.713-2.763.925-4.319 1.57-1.58.598-2.695 1.038-4.319 1.57-1.071.554-3.005 1.481-4.011 2.198-1.842.938-3.191 1.734-4.627 2.512-1.444.617-2.49 1.203-4.01 1.884-.747.678-2.228 1.209-3.085 1.884-1.376.35-2.957.928-3.702 1.57-1.217.149-1.893.475-2.468 1.256-1.099 1.343-.619 1.256-1.851 1.256-1.054.651-2.693.628-4.319.628-1.646-.045-2.941-.315-4.627-.315-1.447-.263-2.77-.572-4.319-.628h-26.529c-1.639 0-2.631.206-4.011.314-1.535.112-2.731.452-4.01.628-1.39.213-2.026.745-3.085 1.256-.974.47-1.956.943-3.085 1.256-1.514.815-3.257 1.242-4.935 1.57-1.267.598-3.066.918-4.011 1.57-1.446.113-2.392.51-4.01.628-1.374.633-2.506.97-3.702 1.256-1.109.377-2.176.61-3.702.628-1.427.196-2.214.605-3.702.942-.529.453-1.374.776-2.159.941-1.812.874-2.406.942-4.319.942h-4.319c-2.057-.203-4.099-.465-6.169-.942-2.112-.103-4.126-.374-6.17-.628h-13.573c-1.63-.059-3.078-.377-4.627-.628-1.45-.264-2.983-.391-4.318-.941-1.919-.103-3.859-.368-5.553-.942-1.543-.28-3.022-.808-4.627-.942-.891-.551-2.639-.734-3.393-1.256-1.411-.111-2.583-.557-3.393-1.256-1.443-.218-2.279-.866-3.702-1.256-1.282-.79-2.829-1.054-4.627-1.884-1.532-.334-3.065-.885-4.627-1.256-1.23-.433-2.73-.846-3.702-1.57-1.364-.379-2.146-.787-3.702-1.256-.727-.658-2.156-1.348-3.085-1.883-.675-.612-2.447-1.663-3.393-2.198-1.005-1.184-2.018-2.352-3.393-3.767-.954-1.059-2.043-1.911-3.085-2.512-1.337-.567-2.852-1.378-3.702-1.883-1.169-.324-2.112-1.047-2.777-1.884-1.052-.607-1.738-1.147-2.776-1.883-1.612.622-1.781.314-3.393.314-1.839-.154-3.191-.211-4.935 0-1.508.181-2.984.314-4.628.314h-4.318c-1.952.024-2.267.281-2.777 1.884-.898 1.005-1.273 2.181-2.159 2.825-.761.982-1.859 1.651-3.085 2.198-1.523 1.072-1.982 1.46-2.776 2.826-1.01.901-1.852 2.19-2.468 3.139-.56.975-.936 1.878-1.234 3.454 0 1.502.121 3.083-.308 4.396 0 1.502.121 3.083-.309 4.396v8.792c.643.962 1.509 1.331 1.851 2.825.457 1.241-.39.796-1.234 1.57h-8.638c-1.573 0-2.846-.207-4.319-.314-1.246-.226-3.071-.309-4.01-.628h-4.319c-1.535-.112-2.731-.452-4.011-.628-1.787-.347-3.023-.873-4.627-1.884-1.643-.358-2.897-.988-4.319-1.883-1.532-.409-2.746-1.227-4.318-1.57-1.058-.509-1.815-1.003-3.085-1.57-.746-1.04-1.466-1.62-3.085-1.884-1.241-.648-2.293-.628-4.01-.628-1.607.194-2.543.62-3.702.942-1.285.592-2.961 1.095-4.01 1.57-1.049.427-2.002 1.001-3.085 1.57-.829 1.086-1.315 1.735-1.851 2.826-.411 0-.308-.105-.308.314-1.662.06-3.409 0-5.244 0-.871.443-2.564.539-3.702.628-.904.711-1.972 1.327-2.776 1.883-.532 1.083-.904 1.372-.926 3.14.066 1.876.728 2.421 1.234 3.767-.371 1.712-1.031 1.854-2.468 2.198-1.091.241-2.515.314-4.011.314h-9.254c-1.777 0-2.612.02-3.393-.941-.537-1.065-.587-2.421-.926-3.454-.919-1.272-1.329-2.126-2.776-3.14-.319-.973-1.083-2.4-1.542-3.454-.495-1.062-.876-1.999-1.851-2.826-1.025-.969-2.187-1.598-3.085-2.512-1.032-.674-1.861-1.233-3.702-1.256-1.495 0-2.919.073-4.011.314-.752.664-2.009 1.373-3.084 2.198-.853 1.157-1.609 2.001-2.777 3.14-1.316 1.228-2.626 1.974-3.702 2.512-.986.502-1.991 1.121-2.777 2.198-.916.406-1.361 1.089-1.85 2.198-.805.731-1.267 1.948-1.543 3.14-.503 1.537-.572 3.302-.617 5.023v4.396c-.488.59-.752 1.218-1.542 1.884-.755.684-1.891 1.433-2.777 1.883-.86 1.125-1.395 1.786-1.542 3.454 0 1.372-.128 3.194.308 4.082.624.889 1.883 1.503 3.085 2.198 1.155.417 1.755 1.328 2.468 2.512 1.321.604 1.158 1.162 2.776 1.256.98.784 2.483 1.029 3.702 1.57l3.084 1.256c.799 1.059 1.68 1.747 2.159 3.454.13 1.097.556 2.197 0 3.14-1.257.761-2.943 1.246-3.702 1.884-.998.053-.924.289-1.542.628-.013 2.099-.288 3.168-.617 4.709-.106 1.405-.308 2.414-.308 4.082v4.396c.656 1.395 1.523 1.655 2.468 2.512.94.684 1.233 1.489 1.542 2.825.529 1.228 1.093 2.252 1.543 3.454.562 1.203.926 2.294.926 4.082-.154 1.719-.86 2.015-2.159 2.825-.69.85-.463 2.355-.926 3.768 0 1.447-.017 3.088.308 4.081.528.717.4 1.018.617 2.198z" fill-rule="evenodd" fill="#ffce00"/><g fill-rule="evenodd" fill="#009a00" transform="translate(25.62)"><g><path d="M177.547 311.073l-.501-.51c1.138 1.157.589.733-.501-2.04-.106-2.94-.806-3.414-2.505-4.591-1.993-.675-2.844-1.542-3.508-3.57-1.274-1.071-2.233-2.503-3.007-4.08-1.377-.953-2.571-2.169-3.508-3.57-1.377-.953-2.571-2.169-3.508-3.57-1.904-.677-3.161-2.055-5.512-3.06-1.323-1.284-2.567-1.918-4.51-3.061-2.175-1.06-2.299-1.827-5.011-2.04-.829.929-2.143.564-2.506 2.04.11 3.023.701 3.656 2.005 6.121.101 2.786.837 4.097 2.005 6.121 1.423 1.014 2.518 2.816 4.009 4.08 1.591 1.101 2.224 2.271 4.51 3.57 1.194 1.52 3.191 2.335 5.011 3.57 2.242.88 4.08 1.559 5.512 2.55 2.011.481 3.384 1.256 5.011 2.04 2.405.229 3.384.503 6.515 0z"/><path d="M188.073 325.35l-.501-.509c1.19 1.211.622.716-1.003-2.04-1.853-1.785-2.253-3.153-5.011-3.571-1.472-.599-3.862-.97-5.512-1.53-2.853 0-4.16-.31-6.515-1.02-1.683-.468-3.812-1.298-5.512-2.04-2.016-.305-4.102-1.107-6.014-1.53h-7.016c-2.251.539-3.518.563-4.009 3.06 1.028 1.266 2.384 2.37 3.508 3.57.633 2.24 2.162 2.775 3.508 4.08 2.32.817 2.791 1.428 5.512 1.53 2.307.783 3.984.989 6.515 1.02 2.684 0 4.615.554 7.016 1.02 1.999.275 3.961.51 6.515.51 2.177 0 4.549-.013 6.014-.51 3.158-2.571 2.505-3.129 2.505.51l1.003 1.02"/><path d="M205.109 333h-.501c1.353 0 .666.034-2.005-.509-2.499-.727-3.919-1.433-6.515-1.531-1.542-.917-3.435-1.02-6.014-1.02h-7.016l-6.014 1.02c-1.317.784-3.933 1.428-5.512 2.04-1.409.976-2.612 2.188-4.51 3.061.437 2.533 1.82 3.487 3.509 4.59 1.696.691 3.439 1.343 6.013 1.531 2.463.093 3.79.509 6.515.509 2.554 0 4.516-.235 6.515-.509 1.663-.802 3.078-1.643 5.512-2.04 1.213-1.071 2.99-1.818 4.51-2.55 1.346-.648 3.177-1.247 4.51-2.04l-4.51 2.04c1.346-.648 3.177-1.247 5.512-4.591z"/><path d="M229.536 344.745v-.434c0 1.213.062.569-1.002-1.737-1.855-.847-4.08-1.446-5.513-2.171-2.19 0-5.097-.18-6.514.434-2.531.026-4.208.202-6.515.868-2.199.287-3.467.954-5.011 1.737-1.745.816-4.275 1.866-6.515 2.605-1.98 1.196-2.651 1.898-5.011 3.04-1.486 1.411-3.008 2.259-4.009 3.474-.445 1.465.029 3.194 2.005 3.908 1.249.894 3.168 1.361 5.011 1.737 2.339-.075 4.405-.356 6.014-1.303 2.483-.285 3.958-.916 6.014-1.303 1.759-.541 3.442-1.06 5.512-1.303 1.434-.842 3.975-1.569 5.512-2.171 2.518-.883 4.126-2.049 6.014-3.039.9-.902 2.101-1.877 3.508-2.171l-3.508 2.171c.9-.902 2.101-1.877 4.009-4.343z"/><path d="M248.709 354.814c-.093-.021-2.331-.906-4.008-.906-1.486-.786-3.889-.944-6.014-1.813-2.739 0-4.603.278-6.014 1.36-2.083.254-3.945.808-5.512 1.813-1.951.415-3.721.803-5.512 1.813-2.418.918-3.482 1.779-5.012 2.72-1.031 1.129-3.26 1.761-4.51 2.72-1.122 1.229-1.12 2.855-.501 4.533 1.283.714 3.476 1.424 5.011 2.267 2.24.362 4.523.453 7.016.453 2.225-.155 4.102-.492 5.512-1.36 2.521-1.098 3.191-1.91 5.011-3.173 1.053-1.153 2.813-2.08 4.51-2.72 1.279-1.003 2.83-1.736 5.011-2.267 1.221-1.052 2.344-2.07 3.508-3.173 1.401 0 .439.14 1.503-2.267z"/><path d="M270.322 358.871c-.12-.016-2.83-.442-4.51-.442-1.417-.624-4.324-.442-6.514-.442-2.761.091-3.615.593-5.012 1.767-1.42.771-3.135 1.463-4.51 2.651-1.757.949-3.34 2.257-5.012 3.092-1.839.694-3.423 1.489-5.512 1.767-1.007 1.075-2.773 2.003-4.009 3.092-1.376.91-1.959 1.347-2.005 3.534-1.02.725-1.709 2.149-1.503 2.65 2.028.918 3.704 1.296 6.515 1.326 2.677.028 4.557.542 7.016 0l6.014-1.767c1.279-1.469 2.24-2.453 4.009-3.534.956-1.239 2.101-2.379 4.009-3.092 1.43-1.146 3.545-2.413 5.011-3.093.896-1.106 2.644-2.282 4.009-3.092 1.004-1.498 1.29-1.747 2.005-4.417z"/><path d="M272.762 354.933v-15.300999999999998c-2.327-1.401-2.675-2.239-3.508-5.1-1.235-2.039-2.179-3.322-3.007-5.101-1.16-1.239-2.117-2.848-2.506-5.1-.957-1.889-1.551-3.788-3.508-4.591-1.773-.392-4.085-.51-6.514-.51-3.319.126-3.007.721-3.007 4.08.233 2.612 1.052 3.296 2.005 5.61.736 1.582 1.536 3.208 2.506 4.591.749 1.69 1.925 3.865 3.006 5.1.878 1.876 2.14 3.575 2.506 5.611 1.373 1.774 2.322 3.325 3.508 4.59.981 2.085 1.72 3.265 3.508 4.08 1.022 1.56 2.751 1.688 5.012 2.04z"/><path d="M248.709 346.775h.501c-1.4 0-.656.064 2.005-1.02.709-1.443.501-4.401.501-6.631 0-2.904-.472-4.14-1.003-6.121-.912-2.215-1.655-3.253-2.005-5.61-.749-1.611-1.504-3.234-2.005-5.1-.901-1.349-1.544-3.383-2.004-5.1-1.692-.976-3.254-1.954-5.012-2.55-1.594-.768-3.078-1.913-5.011-2.55-2.514.468-2.798 1.312-3.007 4.08-.578 2.057.215 3.918 1.003 5.61.828 2.013 1.322 4.054 2.506 5.61.722 2.288 1.458 3.086 1.503 5.61.862 1.502 1.223 3.712 2.005 5.61 1.006 2.369 1.943 3.39 3.508 5.101 2.14 1.481 2.874 2.102 6.514 3.06z"/><path d="M228.663 340.141c0-.244 1.591-1.248 2.506-2.55.749-1.525.656-4.625 0-6.631-.951-2.39-1.986-4.181-2.506-6.12-.528-1.614-.501-4.279-.501-6.631-.457-2.143-1.21-3.726-2.005-6.121-.647-1.648-1.91-3.71-2.505-5.61-.782-.752-1.665-2.294-2.506-3.06-.98-.816-1.014-1.02-3.006-1.02-2.664.101-4.004.351-5.513 2.04-.528 1.614-.501 4.279-.501 6.631.033 2.81.29 4.139 1.503 6.121.885 2.143 2.742 4.231 4.009 6.12 1.039 1.79 1.7 3.493 3.006 4.591.341 2.298 1.19 3.35 2.005 5.1.341 2.298 1.19 3.35 2.005 5.101 1.311.148.699.474 1.503 1.02l-1.503-1.02c1.311.148.699.474 4.009 2.04z"/><path d="M208.618 324.842c.306-.701 2.166-3.431 2.505-5.101-.034-2.893-.365-4.867-2.005-6.63-.407-1.785-1.39-4.481-2.005-6.121 0-2.352.028-5.017-.501-6.631 0-2.68-.364-4.29-1.003-6.121-1.132-1.694-2.351-2.19-5.011-3.06-2.156-.731-3.646-.204-6.014.51v7.14c.032 2.699.505 4.627 1.503 6.121.815 1.75 1.602 3 2.506 5.1.097 2.772.819 4.205 1.002 6.631.197 2.608.438 3.958 2.005 5.61 2.134 1.026 2.785 2.019 4.51 2.55l-4.51-2.55c2.134 1.026 2.785 2.019 7.016 2.55z"/><path d="M190.583 313.621v-.509c0 1.425-.062.668 1.003-2.04.542-2.211.501-4.645.501-7.141-.155-2.055-.448-4.429-1.002-6.12-.458-2.611-.983-4.245-1.503-6.631-.358-2.072-1.737-4.358-2.506-6.121-.492-1.502-.993-4.632-1.503-6.121-.359-1.906-1.259-2.506-3.007-3.06-1.372-.699-4.641-.699-6.014 0-1.475.52-1.472 1.706-2.004 3.06-.186 2.639-.627 4.589 0 7.141.848 1.475 1.745 3.041 2.505 4.59.985 1.81 1.972 4.526 3.007 6.121.754 2.59 1.033 3.786 2.505 6.121.542 1.653 1.396 3.64 2.506 5.1.713 1.815 1.754 3.102 2.506 5.101 1.352 0 .338-.034 3.006.509z"/><path d="M293.497 368.007h-8.289c-1.273 1.231-1.717 1.939-3.926 2.22-1.116.984-2.173 1.893-3.926 2.22-1.544.342-3.556.445-5.672.445-2.586-.032-3.474.081-3.926-2.22.041-2.288.147-2.416 2.181-2.664 1.089-.916 2.915-1.35 4.799-1.776 1.44-.521 3.204-.979 4.799-1.333 1.547-.559 3.023-1.13 4.362-1.776-.333-1.356-1.41-1.059-2.617-.444-1.567 0-3.437.121-4.363-.445-1.089-1.647-1.678-2.187-4.362-2.22-2.547-.031-2.982-.712-5.235-.888-2.158-.027-3.666-.356-5.236-.888-2.303-.167-3.851-.524-5.671-1.332-.585-.595.803-.719 1.745-.888 1.29-.893 2.655-1.251 4.799-1.332h6.108c2.238 0 3.96.366 6.108.445 1.751.616 3.59.939 4.799 1.776 1.579.536 2.573 1.478 3.49 2.664 1.535.427 3.079.952 4.799 1.332 2.011 0 4.291-.024 5.671.445.999 1.694.209 4.472-.436 6.66z"/></g><g><path d="M411.213 311.513l.501-.51c-1.138 1.157-.589.733.501-2.04.106-2.94.806-3.414 2.505-4.591 1.993-.675 2.844-1.542 3.508-3.57 1.274-1.071 2.233-2.503 3.007-4.08 1.377-.953 2.571-2.169 3.508-3.57 1.377-.953 2.571-2.169 3.508-3.57 1.904-.677 3.161-2.055 5.512-3.06 1.323-1.284 2.567-1.918 4.51-3.061 2.175-1.06 2.299-1.827 5.011-2.04.829.929 2.143.564 2.506 2.04-.11 3.023-.701 3.656-2.005 6.121-.101 2.786-.837 4.097-2.005 6.121-1.423 1.014-2.518 2.816-4.009 4.08-1.591 1.101-2.224 2.271-4.51 3.57-1.194 1.52-3.191 2.335-5.011 3.57-2.242.88-4.08 1.559-5.512 2.55-2.011.481-3.384 1.256-5.011 2.04-2.405.229-3.384.503-6.515 0z"/><path d="M400.687 325.79l.501-.509c-1.19 1.211-.622.716 1.003-2.04 1.853-1.785 2.253-3.153 5.011-3.571 1.472-.599 3.862-.97 5.512-1.53 2.853 0 4.16-.31 6.515-1.02 1.683-.468 3.812-1.298 5.512-2.04 2.016-.305 4.102-1.107 6.014-1.53h7.016c2.251.539 3.518.563 4.009 3.06-1.028 1.266-2.384 2.37-3.508 3.57-.633 2.24-2.162 2.775-3.508 4.08-2.32.817-2.791 1.428-5.512 1.53-2.307.783-3.984.989-6.515 1.02-2.684 0-4.615.554-7.016 1.02-1.999.275-3.961.51-6.515.51-2.177 0-4.549-.013-6.014-.51-3.158-2.571-2.505-3.129-2.505.51l-1.003 1.02"/><path d="M383.651 333.44h.501c-1.353 0-.666.034 2.005-.509 2.499-.727 3.919-1.433 6.515-1.531 1.542-.917 3.435-1.02 6.014-1.02h7.016l6.014 1.02c1.317.784 3.933 1.428 5.512 2.04 1.409.976 2.612 2.188 4.51 3.061-.437 2.533-1.82 3.487-3.509 4.59-1.696.691-3.439 1.343-6.013 1.531-2.463.093-3.79.509-6.515.509-2.554 0-4.516-.235-6.515-.509-1.663-.802-3.078-1.643-5.512-2.04-1.213-1.071-2.99-1.818-4.51-2.55-1.346-.648-3.177-1.247-4.51-2.04l4.51 2.04c-1.346-.648-3.177-1.247-5.512-4.591z"/><path d="M359.224 345.185v-.434c0 1.213-.062.569 1.002-1.737 1.855-.847 4.08-1.446 5.513-2.171 2.19 0 5.097-.18 6.514.434 2.531.026 4.208.202 6.515.868 2.199.287 3.467.954 5.011 1.737 1.745.816 4.275 1.866 6.515 2.605 1.98 1.196 2.651 1.898 5.011 3.04 1.486 1.411 3.008 2.259 4.009 3.474.445 1.465-.029 3.194-2.005 3.908-1.249.894-3.168 1.361-5.011 1.737-2.339-.075-4.405-.356-6.014-1.303-2.483-.285-3.958-.916-6.014-1.303-1.759-.541-3.442-1.06-5.512-1.303-1.434-.842-3.975-1.569-5.512-2.171-2.518-.883-4.126-2.049-6.014-3.039-.9-.902-2.101-1.877-3.508-2.171l3.508 2.171c-.9-.902-2.101-1.877-4.009-4.343z"/><path d="M340.051 355.254c.093-.021 2.331-.906 4.008-.906 1.486-.786 3.889-.944 6.014-1.813 2.739 0 4.603.278 6.014 1.36 2.083.254 3.945.808 5.512 1.813 1.951.415 3.721.803 5.512 1.813 2.418.918 3.482 1.779 5.012 2.72 1.031 1.129 3.26 1.761 4.51 2.72 1.122 1.229 1.12 2.855.501 4.533-1.283.714-3.476 1.424-5.011 2.267-2.24.362-4.523.453-7.016.453-2.225-.155-4.102-.492-5.512-1.36-2.521-1.098-3.191-1.91-5.011-3.173-1.053-1.153-2.813-2.08-4.51-2.72-1.279-1.003-2.83-1.736-5.011-2.267-1.221-1.052-2.344-2.07-3.508-3.173-1.401 0-.439.14-1.503-2.267z"/><path d="M318.438 359.311c.12-.016 2.83-.442 4.51-.442 1.417-.624 4.324-.442 6.514-.442 2.761.091 3.615.593 5.012 1.767 1.42.771 3.135 1.463 4.51 2.651 1.757.949 3.34 2.257 5.012 3.092 1.839.694 3.423 1.489 5.512 1.767 1.007 1.075 2.773 2.003 4.009 3.092 1.376.91 1.959 1.347 2.005 3.534 1.02.725 1.709 2.149 1.503 2.65-2.028.918-3.704 1.296-6.515 1.326-2.677.028-4.557.542-7.016 0l-6.014-1.767c-1.279-1.469-2.24-2.453-4.009-3.534-.956-1.239-2.101-2.379-4.009-3.092-1.43-1.146-3.545-2.413-5.011-3.093-.896-1.106-2.644-2.282-4.009-3.092-1.004-1.498-1.29-1.747-2.005-4.417z"/><path d="M315.998 355.373v-15.300999999999998c2.327-1.401 2.675-2.239 3.508-5.1 1.235-2.039 2.179-3.322 3.007-5.101 1.16-1.239 2.117-2.848 2.506-5.1.957-1.889 1.551-3.788 3.508-4.591 1.773-.392 4.085-.51 6.514-.51 3.319.126 3.007.721 3.007 4.08-.233 2.612-1.052 3.296-2.005 5.61-.736 1.582-1.536 3.208-2.506 4.591-.749 1.69-1.925 3.865-3.006 5.1-.878 1.876-2.14 3.575-2.506 5.611-1.373 1.774-2.322 3.325-3.508 4.59-.981 2.085-1.72 3.265-3.508 4.08-1.022 1.56-2.751 1.688-5.012 2.04z"/><path d="M340.051 347.215h-.501c1.4 0 .656.064-2.005-1.02-.709-1.443-.501-4.401-.501-6.631 0-2.904.472-4.14 1.003-6.121.912-2.215 1.655-3.253 2.005-5.61.749-1.611 1.504-3.234 2.005-5.1.901-1.349 1.544-3.383 2.004-5.1 1.692-.976 3.254-1.954 5.012-2.55 1.594-.768 3.078-1.913 5.011-2.55 2.514.468 2.798 1.312 3.007 4.08.578 2.057-.215 3.918-1.003 5.61-.828 2.013-1.322 4.054-2.506 5.61-.722 2.288-1.458 3.086-1.503 5.61-.862 1.502-1.223 3.712-2.005 5.61-1.006 2.369-1.943 3.39-3.508 5.101-2.14 1.481-2.874 2.102-6.514 3.06z"/><path d="M360.097 340.581c0-.244-1.591-1.248-2.506-2.55-.749-1.525-.656-4.625 0-6.631.951-2.39 1.986-4.181 2.506-6.12.528-1.614.501-4.279.501-6.631.457-2.143 1.21-3.726 2.005-6.121.647-1.648 1.91-3.71 2.505-5.61.782-.752 1.665-2.294 2.506-3.06.98-.816 1.014-1.02 3.006-1.02 2.664.101 4.004.351 5.513 2.04.528 1.614.501 4.279.501 6.631-.033 2.81-.29 4.139-1.503 6.121-.885 2.143-2.742 4.231-4.009 6.12-1.039 1.79-1.7 3.493-3.006 4.591-.341 2.298-1.19 3.35-2.005 5.1-.341 2.298-1.19 3.35-2.005 5.101-1.311.148-.699.474-1.503 1.02l1.503-1.02c-1.311.148-.699.474-4.009 2.04z"/><path d="M380.142 325.282c-.306-.701-2.166-3.431-2.505-5.101.034-2.893.365-4.867 2.005-6.63.407-1.785 1.39-4.481 2.005-6.121 0-2.352-.028-5.017.501-6.631 0-2.68.364-4.29 1.003-6.121 1.132-1.694 2.351-2.19 5.011-3.06 2.156-.731 3.646-.204 6.014.51v7.14c-.032 2.699-.505 4.627-1.503 6.121-.815 1.75-1.602 3-2.506 5.1-.097 2.772-.819 4.205-1.002 6.631-.197 2.608-.438 3.958-2.005 5.61-2.134 1.026-2.785 2.019-4.51 2.55l4.51-2.55c-2.134 1.026-2.785 2.019-7.016 2.55z"/><path d="M398.177 314.061v-.509c0 1.425.062.668-1.003-2.04-.542-2.211-.501-4.645-.501-7.141.155-2.055.448-4.429 1.002-6.12.458-2.611.983-4.245 1.503-6.631.358-2.072 1.737-4.358 2.506-6.121.492-1.502.993-4.632 1.503-6.121.359-1.906 1.259-2.506 3.007-3.06 1.372-.699 4.641-.699 6.014 0 1.475.52 1.472 1.706 2.004 3.06.186 2.639.627 4.589 0 7.141-.848 1.475-1.745 3.041-2.505 4.59-.985 1.81-1.972 4.526-3.007 6.121-.754 2.59-1.033 3.786-2.505 6.121-.542 1.653-1.396 3.64-2.506 5.1-.713 1.815-1.754 3.102-2.506 5.101-1.352 0-.338-.034-3.006.509z"/><path d="M295.263 368.447h8.289c1.273 1.231 1.717 1.939 3.926 2.22 1.116.984 2.173 1.893 3.926 2.22 1.544.342 3.556.445 5.672.445 2.586-.032 3.474.081 3.926-2.22-.041-2.288-.147-2.416-2.181-2.664-1.089-.916-2.915-1.35-4.799-1.776-1.44-.521-3.204-.979-4.799-1.333-1.547-.559-3.023-1.13-4.362-1.776.333-1.356 1.41-1.059 2.617-.444 1.567 0 3.437.121 4.363-.445 1.089-1.647 1.678-2.187 4.362-2.22 2.547-.031 2.982-.712 5.235-.888 2.158-.027 3.666-.356 5.236-.888 2.303-.167 3.851-.524 5.671-1.332.585-.595-.803-.719-1.745-.888-1.29-.893-2.655-1.251-4.799-1.332h-6.108c-2.238 0-3.96.366-6.108.445-1.751.616-3.59.939-4.799 1.776-1.579.536-2.573 1.478-3.49 2.664-1.535.427-3.079.952-4.799 1.332-2.011 0-4.291-.024-5.671.445-.999 1.694-.209 4.472.436 6.66z"/></g></g></g></svg>