<?xml version="1.0" encoding="UTF-8" standalone="no"?>
<svg xmlns="http://www.w3.org/2000/svg" height="480" width="640">
  <path fill="#fff" d="M0 0h640v480H0z"/>
  <path fill="gray" fill-rule="evenodd" d="M299.104 219.732l1.696-2.236-.882-2.663 2.652.92 2.258-1.66-.056 2.802 2.275 1.64-2.68.81-.854 2.673-1.6-2.303"/>
  <path d="M164.84 244.11h.308c-.823 0-.39-.063.926.942 1.076.438 2.023.628 3.7.628 1.473.107 2.747.314 4.32.314 1.448.622 2.272 1.19 3.394 1.57.494.762 1.573 2.47 2.16 3.14 1.085.813 2.396 1.31 3.392 2.197 1.242.346 2.03.883 3.394 1.885 1.025.494 1.995.9 3.393 1.57 1.342.472 2.81 1.104 4.01 1.57 1.057.253 2.47.685 3.393 1.255 1.31.29 2.41.662 4.01.942 1.634.198 2.458.638 4.01.942 1.394.718 2.48 1.254 4.01 1.885.622.928 1.156 1.764 2.47 2.196.673.83 1.792 1.052 2.467 1.884.993.48 2.088.796 3.393 1.256 1.573.114 2.708.57 4.32.628h8.638c1.376.166 2.918.386 4.008.627 1.51 0 2.982.027 4.32-.312 1.726-.02 2.53-.513 4.01-.63 1.65.268 2.77.12 3.393 1.572 1.022 1.04 1.643 2.06 1.85 3.453.325.993.31 2.634.31 4.08 0 1.366.006 2.85.307 3.77.982.964 1.747 1.25 3.085 1.57.99.335 2.818.63 3.7 1.255.73.778 1.087 2.015 2.16 2.826.94.734 2.51.887 4.01.94h4.32c1.348 0 3.137.132 4.01-.312 1.336-.495 1.687-1.415 3.393-1.57 1.608.247 1.575 1.02 2.776 1.57.766 1.122 1.49 1.585 2.47 2.197.633.922 1.463 1.638 2.776 1.884 1.607-.166 3.06-.646 4.32-.942.438-1.12.977-1.894 1.54-2.827.42-.72.617-.905.617-2.197.462-.94.405-2.847 0-4.082-.058-1.597-.425-2.442-.616-4.08 0-1.523.07-2.972.308-4.083.634-.745 1.047-1.963 1.543-2.826.84-1.027 1.62-1.413 2.776-1.883.976-.33 2.588-.315 4.01-.315.755-.23 2.008-.155 1.543-.628-.4.407-1.935.536-.31.627.887-.612 2.5-.893 3.395-1.256 1.317-.202 2.107-.658 3.393-.942.96-.573 2.038-.847 3.393-1.256 1.117-.433 2.374-.856 3.702-1.256 1.42-.68 2.296-1.062 3.7-1.256.97-.52 2.184-.627 3.704-.627 1.425.93 2.173 1.66 3.393 2.825.583.873 1.105 1.398 1.542 2.512.986.683 1.514 1.187 3.392 1.255 1.486 0 2.075.258 2.468-.942.812-.736 1.233-2.04 2.16-2.826.92-.92 2.057-1.388 3.085-1.883 1.158-.323 2.094-.75 3.7-.943 1.07-.4 2.177-.483 3.394.313.905 1.288 1.928 2.602 3.084 4.082.785.517 1.746.628 3.085.628.94-.48 2.883-.314 4.318-.314 1.263.37 1.815 1.217 3.085 1.57.71.072 1.092.313 1.85.313 2.257.298 3.196.07 4.936-.314h4.318c1.516.057 2.333.313 4.01.313.937.578 2.544.847 3.702 1.256 1.46.35 1.74.914 3.084 1.57.873.443 2.663.313 4.01.313 1.61-.196 2.682-.474 4.01-.943 1.172-.29 1.667-.59 2.16-1.57.767-.53 1.826-1.38 2.47-2.197.846-.586 1.58-1.335 2.157-2.198.832-.558 2.23-1.98 2.778-2.825.788-.643 1.63-1.988 2.16-2.826.676-1.023 1.53-1.616 2.16-3.138.48-1.468.543-2.62.924-4.082.318-1.187.902-2.19 1.234-3.768.627-1.374 1.13-2.715 1.542-3.768.758-.864 1.26-1.91 2.16-2.825.516-.813 1.204-1.227 1.85-1.885.736-.713 1.844-1.24 3.085-1.57 1.275-.353 1.826-.922 2.468-1.884 1.167-.394 1.855-.906 3.394-1.255 1.354-.408 2.462-.667 3.703-.942h4.318c1.556 0 2.895.142 4.32.315 1.405.408 2.725.765 4.01.942.882.425 2.35 1.202 3.084 1.883.92.62 1.927 1.62 2.467 2.51.403 1.233 1.058 1.777 1.85 2.828.825 1.092 1.518 1.782 3.085 2.512 1.25.295 2.27.83 3.702.942 1.64 0 2.63.206 4.01.314 1.51 0 2.982.026 4.32-.314 1.346-.792 1.83-1.003 2.775-2.198 1.243-.623 2.147-1.117 3.702-1.255 1.02-.226 2.288-.313 3.7-.313.802.56 1.652.77 2.16 1.57.813.585.867.903 2.16.942.882.524 2.18.774 3.393.94h4.318-4.318 4.318c1.183-1.01 1.543-.895 1.543-2.197.955-.78 1.43-1.87 2.468-3.14.564-.932 1.103-1.706 1.542-2.826.337-1.03.756-2.607.926-3.768.39-1.042.757-2.643.925-4.082.374-1.45.618-2.748.618-4.396v-4.395c-.02-1.553-.248-2.638-.618-3.768-.49-1.388-1.306-2.402-1.85-3.454-.914-.735-2.04-1.764-2.777-2.512-1.403-.86-2.465-1.487-3.702-2.198-1.35-.85-2.65-1.59-3.702-2.197-.62-.706-1.624-1.673-2.16-2.2-.42-.86-.42-2.908 0-3.767.037-1.307.174-2.06.926-2.826 1.406-.513 2.343-1.19 3.394-1.884.682-.97 1.75-1.158 3.085-2.197 1.336-.596 2.093-.91 3.086-1.884 1.443-.49 2.79-1.488 4.01-1.884.66-.813 1.897-1.485 3.393-1.884 1.07-.74 2.35-1.53 3.392-1.884 1.453-.783 2.532-1.06 4.01-1.884 1.51-.383 2.856-1.073 4.32-1.57.375-.466.822-.812 1.542-.94 1.92-.117 3.52-.327 4.627-1.257 1.24-.45 1.37-1.355 2.16-2.2.568-1.037 1.187-1.498 1.542-2.824.982-1.073.44-1.388-1.234-1.57-.526-.536-1 .004-1.233-.942-1.107-.506-1.396-1.384-2.16-2.198-.466-1.297-.455-1.88.926-2.512.86-.595 2.085-.795 2.777-1.57 1.286-.197 2.262-.762 3.394-1.255 1.677-.123 2.57-.51 4.01-.943 1.228-.668 2.025-1.06 3.086-1.57 1.268-.56 2.78-1.348 4.01-1.884 1.105-.75 2.51-1.484 4.01-1.883 1.105-.572 2.463-1.02 3.702-1.57 1.057-.254 2.47-.686 3.393-1.257 1.423-.275 2.962-.797 4.01-1.255 1.033-.475 2.25-1.072 3.086-1.57 1.278-.562 2.19-1.236 3.394-1.57.73-.708 1.71-1.21 2.776-1.57.868-.82 2.715-1.953 3.7-2.51.937-.453 2.03-.912 2.778-1.572.718-.08.515-.232 1.234-.313 2.248-.69 3.396-.946 4.627-2.198.956-.46 1.94-.962 2.776-1.57 1.03-.83 1.85-1.584 2.47-2.51 1.122-.407 1.737-1.2 2.775-1.886 1.076-.438 2.024-.63 3.702-.63 1.35 0 3.138.132 4.01-.313 1.936-.023 2.44-.496 3.702-1.255.417-1.2 1.31-1.798 2.467-2.512.683-.634 2.408-1.584 3.085-2.198 1.335-.65 1.912-1.48 3.085-2.51.906-.994 2.04-1.91 3.084-2.513 1.298-.576 2.227-.835 3.395-1.257 1.46-.265 2.928-.538 4.315-.942 1.58-.122 2.136-.592 3.4-.94.872-.85 1.4-1.276 2.465-2.513.52-1.442 1.292-1.97 2.775-2.197 1.49-.793 2.686-.887 3.706-1.884 1.043-1.064 1.762-2.26 2.775-3.454.573-1.353 1.11-2.167 1.234-3.767-.022-1.927-.433-2.204-1.233-3.454-.77-1.124-1.254-1.84-1.85-2.825-.96-.553-2.326-1.102-3.397-1.57-1.468.115-2.37.45-3.39.942-1.05.864-1.778 1.574-2.468 2.826-.47 1.01-.785 2.125-1.233 3.453-.587.854-1.99 1.665-3.09 2.198-1.292.575-2.217.834-3.39 1.256-1.462.514-2.143.958-3.702 1.57-.912.44-2.175 1.115-3.085 1.57-1.342.813-2.627 1.446-3.7 1.884-1.37.79-2.15 1.224-3.395 1.57-1.402.85-2.76 1.493-4.01 2.197-1.037.52-2.05 1.193-3.394 1.885-1.09.242-2.633.46-4.01.628h-4.627c-1.32-.31-2.888-.58-4.32-1.256-1.536-.81-2.287-1.322-3.393-2.198-.676-1.34-.904-1.98-.925-3.768-.96-.488-2.285-.61-3.702-.628-1.565 0-3.016-.06-4.01.628-1.344.203-2.473.756-3.394 1.57-1.42.687-2.348 1.515-3.393 2.197-1.087.666-2.494 1.665-3.702 2.197-1.134.495-2.91 1.038-4.318 1.57-1.81.53-3.12 1.114-4.935 1.256-1.55.713-2.763.925-4.32 1.57-1.58.598-2.694 1.038-4.318 1.57-1.072.554-3.006 1.48-4.01 2.197-1.844.938-3.192 1.734-4.63 2.512-1.442.617-2.488 1.203-4.008 1.884-.748.678-2.228 1.21-3.085 1.884-1.377.35-2.958.928-3.702 1.57-1.217.148-1.893.475-2.468 1.256-1.1 1.342-.618 1.255-1.85 1.255-1.055.653-2.694.63-4.32.63-1.645-.045-2.94-.315-4.627-.315-1.447-.263-2.77-.57-4.32-.627H456.662c-1.64 0-2.63.206-4.01.313-1.535.113-2.732.453-4.01.63-1.39.213-2.026.744-3.085 1.255-.974.47-1.957.943-3.085 1.256-1.515.816-3.257 1.244-4.936 1.57-1.267.6-3.066.92-4.01 1.57-1.446.114-2.393.51-4.01.63-1.374.63-2.506.968-3.703 1.254-1.11.377-2.176.61-3.7.63-1.428.195-2.215.604-3.703.94-.53.454-1.374.777-2.16.942-1.81.874-2.405.942-4.318.942h-4.32c-2.056-.203-4.098-.465-6.168-.942-2.112-.103-4.126-.374-6.17-.627H381.7c-1.63-.06-3.077-.378-4.626-.63-1.45-.263-2.983-.39-4.32-.94-1.917-.104-3.858-.37-5.55-.943-1.544-.28-3.023-.808-4.628-.942-.89-.55-2.64-.734-3.394-1.256-1.41-.112-2.583-.557-3.393-1.257-1.444-.218-2.28-.866-3.703-1.256-1.282-.79-2.83-1.054-4.627-1.884-1.532-.334-3.066-.885-4.627-1.255-1.23-.434-2.73-.846-3.702-1.57-1.363-.38-2.145-.787-3.7-1.257-.727-.657-2.157-1.346-3.086-1.882-.674-.612-2.447-1.663-3.393-2.198-1.004-1.184-2.017-2.35-3.392-3.767-.954-1.06-2.044-1.91-3.085-2.512-1.338-.566-2.853-1.377-3.702-1.883-1.167-.324-2.11-1.047-2.776-1.884-1.05-.606-1.738-1.147-2.776-1.883-1.61.62-1.78.314-3.393.314-1.84-.154-3.19-.212-4.935 0-1.51.18-2.984.313-4.628.313h-4.318c-1.952.024-2.268.28-2.777 1.885-.898 1.004-1.273 2.18-2.16 2.825-.76.982-1.86 1.65-3.084 2.198-1.523 1.072-1.983 1.46-2.776 2.826-1.01.902-1.852 2.19-2.468 3.14-.56.975-.937 1.878-1.235 3.454 0 1.502.12 3.083-.308 4.395 0 1.502.12 3.082-.31 4.395v8.792c.644.963 1.51 1.332 1.852 2.826.456 1.24-.39.796-1.235 1.57h-8.638c-1.573 0-2.846-.208-4.318-.314-1.248-.227-3.072-.31-4.01-.628h-4.32c-1.535-.112-2.73-.452-4.01-.628-1.787-.347-3.023-.873-4.628-1.884-1.643-.358-2.897-.988-4.32-1.884-1.53-.408-2.745-1.227-4.317-1.57-1.058-.51-1.815-1.003-3.085-1.57-.746-1.04-1.466-1.62-3.085-1.884-1.24-.648-2.293-.627-4.01-.627-1.607.194-2.543.62-3.702.942-1.285.592-2.96 1.095-4.01 1.57-1.05.427-2 1-3.085 1.57-.83 1.085-1.314 1.734-1.85 2.825-.412 0-.31-.104-.31.314-1.66.06-3.41 0-5.243 0-.87.443-2.564.54-3.702.628-.904.71-1.972 1.328-2.776 1.884-.532 1.083-.904 1.37-.926 3.14.067 1.875.73 2.42 1.235 3.767-.37 1.712-1.03 1.854-2.468 2.198-1.09.242-2.514.314-4.01.314h-9.254c-1.777 0-2.613.02-3.394-.94-.537-1.066-.588-2.422-.926-3.455-.92-1.273-1.33-2.127-2.776-3.14-.32-.973-1.083-2.4-1.542-3.454-.495-1.062-.877-2-1.852-2.826-1.025-.97-2.187-1.598-3.085-2.512-1.033-.674-1.86-1.233-3.702-1.256-1.495 0-2.92.073-4.01.314-.752.664-2.01 1.373-3.085 2.198-.853 1.157-1.61 2-2.777 3.14-1.316 1.228-2.625 1.974-3.7 2.512-.987.502-1.993 1.12-2.778 2.197-.916.407-1.36 1.09-1.85 2.198-.806.732-1.267 1.95-1.543 3.14-.503 1.538-.572 3.303-.617 5.024v4.396c-.488.59-.75 1.218-1.542 1.884-.755.684-1.89 1.433-2.777 1.883-.86 1.125-1.396 1.786-1.543 3.454 0 1.373-.127 3.195.31 4.083.622.89 1.88 1.503 3.084 2.198 1.156.418 1.756 1.33 2.468 2.512 1.32.604 1.158 1.163 2.776 1.256.98.784 2.483 1.03 3.703 1.57 1.234.343 1.85.913 3.084 1.255.8 1.06 1.68 1.747 2.16 3.454.13 1.097.557 2.197 0 3.14-1.256.76-2.942 1.246-3.7 1.884-1 .054-.925.29-1.543.63-.013 2.097-.288 3.167-.618 4.708-.106 1.404-.31 2.414-.31 4.082v4.396c.657 1.394 1.524 1.654 2.47 2.51.94.685 1.232 1.49 1.54 2.827.53 1.228 1.094 2.252 1.544 3.453.562 1.203.925 2.294.925 4.082-.155 1.72-.86 2.015-2.16 2.825-.69.85-.463 2.355-.926 3.77 0 1.446-.017 3.087.31 4.08.527.717.4 1.017.616 2.198z" fill-rule="evenodd" fill="#ffce00"/>
  <g fill-rule="evenodd" fill="#009a00">
    <path d="M203.167 311.073l-.5-.51c1.137 1.157.588.733-.502-2.04-.107-2.94-.806-3.414-2.505-4.59-1.993-.676-2.845-1.543-3.508-3.57-1.274-1.072-2.233-2.504-3.007-4.08-1.377-.954-2.572-2.17-3.508-3.572-1.377-.952-2.57-2.167-3.508-3.57-1.905-.676-3.162-2.054-5.513-3.06-1.324-1.283-2.567-1.917-4.51-3.06-2.176-1.06-2.3-1.827-5.012-2.04-.83.93-2.143.564-2.506 2.04.11 3.023.7 3.657 2.004 6.12.1 2.787.837 4.098 2.005 6.122 1.422 1.014 2.517 2.815 4.008 4.08 1.59 1.1 2.224 2.27 4.51 3.57 1.194 1.52 3.19 2.336 5.01 3.57 2.243.88 4.08 1.56 5.513 2.55 2.013.482 3.386 1.257 5.012 2.04 2.406.23 3.385.504 6.515 0zM213.693 325.35l-.5-.51c1.19 1.21.622.716-1.003-2.04-1.853-1.786-2.254-3.153-5.01-3.57-1.474-.6-3.864-.97-5.514-1.53-2.853 0-4.16-.31-6.515-1.02-1.682-.468-3.81-1.3-5.51-2.04-2.016-.306-4.103-1.108-6.015-1.53h-7.015c-2.25.538-3.518.562-4.01 3.06 1.028 1.265 2.385 2.37 3.51 3.57.632 2.24 2.16 2.774 3.506 4.08 2.32.817 2.792 1.427 5.513 1.53 2.306.783 3.983.99 6.514 1.02 2.684 0 4.614.554 7.015 1.02 2 .275 3.96.51 6.514.51 2.177 0 4.55-.013 6.014-.51 3.158-2.57 2.505-3.13 2.505.51l1.003 1.02M230.73 333h-.5c1.35 0 .664.033-2.006-.51-2.5-.727-3.92-1.433-6.515-1.53-1.543-.918-3.436-1.02-6.015-1.02h-7.015c-2.48.194-3.533.825-6.014 1.02-1.317.784-3.933 1.428-5.512 2.04-1.41.975-2.613 2.188-4.51 3.06.437 2.534 1.82 3.488 3.508 4.59 1.695.69 3.44 1.343 6.013 1.53 2.462.094 3.79.51 6.515.51 2.553 0 4.515-.234 6.515-.51 1.663-.8 3.078-1.642 5.512-2.04 1.213-1.07 2.99-1.817 4.51-2.55 1.346-.648 3.177-1.247 4.51-2.04l-4.51 2.04c1.346-.648 3.177-1.247 5.512-4.59zM255.156 344.863v-.434c0 1.213.062.568-1.002-1.738-1.855-.847-4.08-1.446-5.513-2.172-2.19 0-5.096-.18-6.514.435-2.53.026-4.208.202-6.515.868-2.198.288-3.465.954-5.01 1.737-1.745.817-4.274 1.867-6.515 2.606-1.98 1.197-2.65 1.9-5.01 3.04-1.487 1.413-3.008 2.26-4.01 3.476-.444 1.466.03 3.195 2.005 3.91 1.25.893 3.168 1.36 5.01 1.736 2.34-.075 4.406-.356 6.015-1.303 2.483-.285 3.958-.916 6.013-1.303 1.76-.54 3.443-1.06 5.513-1.303 1.434-.844 3.976-1.57 5.513-2.173 2.518-.883 4.126-2.05 6.014-3.04.9-.903 2.1-1.877 3.507-2.172l-3.507 2.172c.9-.903 2.1-1.877 4.01-4.344zM274.33 354.593c-.094-.022-2.332-.906-4.01-.906-1.485-.786-3.89-.944-6.013-1.813-2.74 0-4.603.278-6.014 1.36-2.083.254-3.945.807-5.512 1.812-1.95.415-3.72.803-5.512 1.812-2.417.918-3.482 1.778-5.01 2.72-1.033 1.128-3.26 1.76-4.51 2.718-1.123 1.228-1.12 2.853-.502 4.53 1.283.715 3.476 1.424 5.01 2.267 2.24.36 4.524.452 7.017.452 2.225-.154 4.102-.492 5.512-1.36 2.52-1.097 3.192-1.908 5.01-3.17 1.054-1.153 2.815-2.08 4.512-2.72 1.278-1 2.83-1.734 5.01-2.265 1.22-1.052 2.345-2.07 3.51-3.172 1.4 0 .437.14 1.502-2.265zM295.942 359.052c-.12-.016-2.83-.442-4.51-.442-1.418-.625-4.325-.442-6.515-.442-2.76.09-3.615.593-5.012 1.767-1.42.77-3.135 1.464-4.51 2.652-1.756.95-3.34 2.26-5.01 3.094-1.84.695-3.424 1.49-5.513 1.768-1.007 1.075-2.773 2.004-4.01 3.093-1.375.912-1.96 1.35-2.004 3.537-1.02.725-1.71 2.15-1.503 2.65 2.028.92 3.704 1.297 6.515 1.327 2.677.028 4.556.542 7.015 0 2.506-.655 3.507-1.113 6.014-1.767 1.278-1.47 2.24-2.454 4.008-3.536.956-1.238 2.1-2.38 4.01-3.092 1.43-1.147 3.544-2.414 5.01-3.094.896-1.106 2.644-2.283 4.01-3.093 1.003-1.498 1.29-1.747 2.004-4.418zM298.382 354.933v-15.3c-2.327-1.402-2.676-2.24-3.508-5.1-1.235-2.04-2.18-3.323-3.007-5.102-1.16-1.24-2.117-2.847-2.506-5.1-.956-1.888-1.55-3.787-3.507-4.59-1.772-.392-4.084-.51-6.514-.51-3.32.125-3.008.72-3.008 4.08.233 2.613 1.052 3.296 2.004 5.61.737 1.583 1.536 3.208 2.506 4.59.75 1.69 1.926 3.867 3.007 5.1.877 1.877 2.138 3.577 2.505 5.613 1.373 1.773 2.322 3.325 3.507 4.59.982 2.085 1.72 3.264 3.508 4.08 1.023 1.56 2.75 1.688 5.012 2.04zM274.33 346.775h.5c-1.4 0-.656.064 2.005-1.02.71-1.443.5-4.4.5-6.63 0-2.904-.47-4.14-1.002-6.12-.91-2.216-1.655-3.254-2.004-5.61-.75-1.612-1.505-3.235-2.006-5.102-.9-1.35-1.544-3.383-2.004-5.1-1.692-.975-3.253-1.954-5.01-2.55-1.595-.768-3.08-1.913-5.012-2.55-2.514.468-2.798 1.31-3.008 4.08-.577 2.057.215 3.917 1.003 5.61.828 2.013 1.322 4.054 2.506 5.61.72 2.29 1.457 3.087 1.502 5.61.863 1.503 1.223 3.713 2.005 5.61 1.006 2.37 1.943 3.392 3.507 5.102 2.14 1.48 2.875 2.103 6.515 3.06zM254.283 340.14c0-.243 1.592-1.246 2.506-2.55.748-1.524.655-4.624 0-6.63-.95-2.39-1.987-4.18-2.507-6.12-.528-1.613-.5-4.28-.5-6.63-.458-2.143-1.21-3.727-2.006-6.12-.647-1.65-1.91-3.71-2.505-5.612-.782-.75-1.665-2.294-2.506-3.06-.98-.816-1.014-1.02-3.006-1.02-2.664.1-4.004.35-5.513 2.04-.528 1.614-.5 4.28-.5 6.63.032 2.81.29 4.14 1.502 6.122.885 2.143 2.742 4.23 4.01 6.12 1.037 1.79 1.698 3.492 3.005 4.59.34 2.298 1.19 3.35 2.005 5.1.34 2.298 1.19 3.35 2.004 5.1 1.31.15.7.475 1.503 1.02l-1.503-1.02c1.31.15.7.475 4.01 2.04zM234.238 324.842c.306-.702 2.166-3.432 2.505-5.1-.034-2.894-.365-4.868-2.005-6.63-.406-1.786-1.39-4.482-2.004-6.122 0-2.352.028-5.017-.5-6.63 0-2.68-.365-4.29-1.004-6.122-1.13-1.693-2.35-2.19-5.01-3.06-2.156-.73-3.646-.204-6.014.51v7.14c.03 2.7.505 4.628 1.503 6.122.814 1.75 1.6 3 2.505 5.1.097 2.772.82 4.205 1.002 6.63.197 2.61.438 3.96 2.004 5.61 2.135 1.028 2.786 2.02 4.512 2.552l-4.51-2.55c2.133 1.026 2.784 2.018 7.016 2.55zM216.203 313.62v-.51c0 1.427-.06.67 1.003-2.04.542-2.21.5-4.644.5-7.14-.154-2.055-.447-4.43-1-6.12-.46-2.61-.984-4.245-1.505-6.63-.357-2.072-1.735-4.36-2.505-6.122-.49-1.5-.993-4.63-1.503-6.12-.36-1.907-1.26-2.507-3.007-3.06-1.372-.7-4.64-.7-6.014 0-1.473.52-1.47 1.706-2.002 3.06-.186 2.64-.627 4.59 0 7.14.847 1.476 1.744 3.042 2.505 4.59.985 1.81 1.972 4.527 3.007 6.122.754 2.59 1.033 3.786 2.505 6.12.542 1.653 1.396 3.64 2.506 5.1.714 1.816 1.755 3.102 2.507 5.1 1.352 0 .338-.032 3.006.51z"/>
    <path d="M319.117 368.007h-8.288c-1.273 1.23-1.716 1.938-3.926 2.22-1.115.984-2.172 1.893-3.926 2.22-1.544.342-3.556.444-5.672.444-2.585-.03-3.474.082-3.926-2.22.04-2.287.147-2.415 2.182-2.663 1.09-.916 2.914-1.35 4.8-1.776 1.44-.52 3.202-.978 4.797-1.332 1.547-.56 3.023-1.13 4.363-1.776-.334-1.355-1.41-1.058-2.618-.443-1.567 0-3.436.12-4.363-.446-1.09-1.646-1.68-2.186-4.363-2.22-2.547-.03-2.98-.71-5.235-.888-2.158-.026-3.666-.355-5.235-.888-2.304-.167-3.85-.524-5.67-1.332-.586-.595.802-.718 1.743-.888 1.29-.893 2.655-1.25 4.8-1.332h6.107c2.238 0 3.96.366 6.108.444 1.75.617 3.59.94 4.798 1.776 1.58.536 2.573 1.478 3.49 2.664 1.535.427 3.08.952 4.8 1.332 2.01 0 4.29-.024 5.67.445 1 1.694.21 4.472-.436 6.66z"/>
    <g>
      <path d="M436.833 311.513l.5-.51c-1.137 1.157-.588.733.502-2.04.107-2.94.806-3.414 2.505-4.59 1.993-.676 2.845-1.543 3.508-3.57 1.274-1.072 2.233-2.504 3.007-4.08 1.377-.954 2.572-2.17 3.508-3.572 1.377-.952 2.57-2.167 3.508-3.57 1.905-.676 3.162-2.054 5.513-3.06 1.324-1.283 2.567-1.917 4.51-3.06 2.176-1.06 2.3-1.827 5.012-2.04.83.93 2.143.564 2.506 2.04-.11 3.023-.7 3.657-2.004 6.12-.1 2.787-.837 4.098-2.005 6.122-1.422 1.014-2.517 2.815-4.008 4.08-1.59 1.1-2.224 2.27-4.51 3.57-1.194 1.52-3.19 2.336-5.01 3.57-2.243.88-4.08 1.56-5.513 2.55-2.013.482-3.386 1.257-5.012 2.04-2.406.23-3.385.504-6.515 0zM426.307 325.79l.5-.51c-1.19 1.21-.622.716 1.003-2.04 1.853-1.786 2.254-3.153 5.01-3.57 1.474-.6 3.864-.97 5.514-1.53 2.853 0 4.16-.31 6.515-1.02 1.682-.468 3.81-1.3 5.51-2.04 2.016-.306 4.103-1.108 6.015-1.53h7.015c2.25.538 3.518.562 4.01 3.06-1.028 1.265-2.385 2.37-3.51 3.57-.632 2.24-2.16 2.774-3.506 4.08-2.32.817-2.792 1.427-5.513 1.53-2.306.783-3.983.99-6.514 1.02-2.684 0-4.614.554-7.015 1.02-2 .275-3.96.51-6.514.51-2.177 0-4.55-.013-6.014-.51-3.158-2.57-2.505-3.13-2.505.51l-1.003 1.02M409.27 333.44h.5c-1.35 0-.664.033 2.006-.51 2.5-.727 3.92-1.433 6.515-1.53 1.543-.918 3.436-1.02 6.015-1.02h7.015c2.48.194 3.533.825 6.014 1.02 1.317.784 3.933 1.428 5.512 2.04 1.41.975 2.613 2.188 4.51 3.06-.437 2.534-1.82 3.488-3.508 4.59-1.695.69-3.44 1.343-6.013 1.53-2.462.094-3.79.51-6.515.51-2.553 0-4.515-.234-6.515-.51-1.663-.8-3.078-1.642-5.512-2.04-1.213-1.07-2.99-1.817-4.51-2.55-1.346-.648-3.177-1.247-4.51-2.04l4.51 2.04c-1.346-.648-3.177-1.247-5.512-4.59zM384.844 345.303v-.434c0 1.213-.062.568 1.002-1.738 1.855-.847 4.08-1.446 5.513-2.172 2.19 0 5.096-.18 6.514.435 2.53.026 4.208.202 6.515.868 2.198.288 3.465.954 5.01 1.737 1.745.817 4.274 1.867 6.515 2.606 1.98 1.197 2.65 1.9 5.01 3.04 1.487 1.413 3.008 2.26 4.01 3.476.444 1.466-.03 3.195-2.005 3.91-1.25.893-3.168 1.36-5.01 1.736-2.34-.075-4.406-.356-6.015-1.303-2.483-.285-3.958-.916-6.013-1.303-1.76-.54-3.443-1.06-5.513-1.303-1.434-.844-3.976-1.57-5.513-2.173-2.518-.883-4.126-2.05-6.014-3.04-.9-.903-2.1-1.877-3.507-2.172l3.507 2.172c-.9-.903-2.1-1.877-4.01-4.344zM365.67 355.033c.094-.022 2.332-.906 4.01-.906 1.485-.786 3.89-.944 6.013-1.813 2.74 0 4.603.278 6.014 1.36 2.083.254 3.945.807 5.512 1.812 1.95.415 3.72.803 5.512 1.812 2.417.918 3.482 1.778 5.01 2.72 1.033 1.128 3.26 1.76 4.51 2.718 1.123 1.228 1.12 2.853.502 4.53-1.283.715-3.476 1.424-5.01 2.267-2.24.36-4.524.452-7.017.452-2.225-.154-4.102-.492-5.512-1.36-2.52-1.097-3.192-1.908-5.01-3.17-1.054-1.153-2.815-2.08-4.512-2.72-1.278-1-2.83-1.734-5.01-2.265-1.22-1.052-2.345-2.07-3.51-3.172-1.4 0-.437.14-1.502-2.265zM344.058 359.492c.12-.016 2.83-.442 4.51-.442 1.418-.625 4.325-.442 6.515-.442 2.76.09 3.615.593 5.012 1.767 1.42.77 3.135 1.464 4.51 2.652 1.756.95 3.34 2.26 5.01 3.094 1.84.695 3.424 1.49 5.513 1.768 1.007 1.075 2.773 2.004 4.01 3.093 1.375.912 1.96 1.35 2.004 3.537 1.02.725 1.71 2.15 1.503 2.65-2.028.92-3.704 1.297-6.515 1.327-2.677.028-4.556.542-7.015 0-2.506-.655-3.507-1.113-6.014-1.767-1.278-1.47-2.24-2.454-4.008-3.536-.956-1.238-2.1-2.38-4.01-3.092-1.43-1.147-3.544-2.414-5.01-3.094-.896-1.106-2.644-2.283-4.01-3.093-1.003-1.498-1.29-1.747-2.004-4.418zM341.618 355.373v-15.3c2.327-1.402 2.676-2.24 3.508-5.1 1.235-2.04 2.18-3.323 3.007-5.102 1.16-1.24 2.117-2.847 2.506-5.1.956-1.888 1.55-3.787 3.507-4.59 1.772-.392 4.084-.51 6.514-.51 3.32.125 3.008.72 3.008 4.08-.233 2.613-1.052 3.296-2.004 5.61-.737 1.583-1.536 3.208-2.506 4.59-.75 1.69-1.926 3.867-3.007 5.1-.877 1.877-2.138 3.577-2.505 5.613-1.373 1.773-2.322 3.325-3.507 4.59-.982 2.085-1.72 3.264-3.508 4.08-1.023 1.56-2.75 1.688-5.012 2.04zM365.67 347.215h-.5c1.4 0 .656.064-2.005-1.02-.71-1.443-.5-4.4-.5-6.63 0-2.904.47-4.14 1.002-6.12.91-2.216 1.655-3.254 2.004-5.61.75-1.612 1.505-3.235 2.006-5.102.9-1.35 1.544-3.383 2.004-5.1 1.692-.975 3.253-1.954 5.01-2.55 1.595-.768 3.08-1.913 5.012-2.55 2.514.468 2.798 1.31 3.008 4.08.577 2.057-.215 3.917-1.003 5.61-.828 2.013-1.322 4.054-2.506 5.61-.72 2.29-1.457 3.087-1.502 5.61-.863 1.503-1.223 3.713-2.005 5.61-1.006 2.37-1.943 3.392-3.507 5.102-2.14 1.48-2.875 2.103-6.515 3.06zM385.717 340.58c0-.243-1.592-1.246-2.506-2.55-.748-1.524-.655-4.624 0-6.63.95-2.39 1.987-4.18 2.507-6.12.528-1.613.5-4.28.5-6.63.458-2.143 1.21-3.727 2.006-6.12.647-1.65 1.91-3.71 2.505-5.612.782-.75 1.665-2.294 2.506-3.06.98-.816 1.014-1.02 3.006-1.02 2.664.1 4.004.35 5.513 2.04.528 1.614.5 4.28.5 6.63-.032 2.81-.29 4.14-1.502 6.122-.885 2.143-2.742 4.23-4.01 6.12-1.037 1.79-1.698 3.492-3.005 4.59-.34 2.298-1.19 3.35-2.005 5.1-.34 2.298-1.19 3.35-2.004 5.1-1.31.15-.7.475-1.503 1.02l1.503-1.02c-1.31.15-.7.475-4.01 2.04zM405.762 325.282c-.306-.702-2.166-3.432-2.505-5.1.034-2.894.365-4.868 2.005-6.63.406-1.786 1.39-4.482 2.004-6.122 0-2.352-.028-5.017.5-6.63 0-2.68.365-4.29 1.004-6.122 1.13-1.693 2.35-2.19 5.01-3.06 2.156-.73 3.646-.204 6.014.51v7.14c-.03 2.7-.505 4.628-1.503 6.122-.814 1.75-1.6 3-2.505 5.1-.097 2.772-.82 4.205-1.002 6.63-.197 2.61-.438 3.96-2.004 5.61-2.135 1.028-2.786 2.02-4.512 2.552l4.51-2.55c-2.133 1.026-2.784 2.018-7.016 2.55zM423.797 314.06v-.51c0 1.427.06.67-1.003-2.04-.542-2.21-.5-4.644-.5-7.14.154-2.055.447-4.43 1-6.12.46-2.61.984-4.245 1.505-6.63.357-2.072 1.735-4.36 2.505-6.122.49-1.5.993-4.63 1.503-6.12.36-1.907 1.26-2.507 3.007-3.06 1.372-.7 4.64-.7 6.014 0 1.473.52 1.47 1.706 2.002 3.06.186 2.64.627 4.59 0 7.14-.847 1.476-1.744 3.042-2.505 4.59-.985 1.81-1.972 4.527-3.007 6.122-.754 2.59-1.033 3.786-2.505 6.12-.542 1.653-1.396 3.64-2.506 5.1-.714 1.816-1.755 3.102-2.507 5.1-1.352 0-.338-.032-3.006.51z"/>
      <path d="M320.883 368.447h8.288c1.273 1.23 1.716 1.938 3.926 2.22 1.115.984 2.172 1.893 3.926 2.22 1.544.342 3.556.444 5.672.444 2.585-.03 3.474.082 3.926-2.22-.04-2.287-.147-2.415-2.182-2.663-1.09-.916-2.914-1.35-4.8-1.776-1.44-.52-3.202-.978-4.797-1.332-1.547-.56-3.023-1.13-4.363-1.776.334-1.355 1.41-1.058 2.618-.443 1.567 0 3.436.12 4.363-.446 1.09-1.646 1.68-2.186 4.363-2.22 2.547-.03 2.98-.71 5.235-.888 2.158-.026 3.666-.355 5.235-.888 2.304-.167 3.85-.524 5.67-1.332.586-.595-.802-.718-1.743-.888-1.29-.893-2.655-1.25-4.8-1.332h-6.107c-2.238 0-3.96.366-6.108.444-1.75.617-3.59.94-4.798 1.776-1.58.536-2.573 1.478-3.49 2.664-1.535.427-3.08.952-4.8 1.332-2.01 0-4.29-.024-5.67.445-1 1.694-.21 4.472.436 6.66z"/>
    </g>
  </g>
</svg>
