<svg xmlns="http://www.w3.org/2000/svg" height="480" width="640" version="1">
    <g fill-rule="evenodd">
        <g>
            <path fill="#fff" d="M0 0h640.011v479.997h-640.011z"/>
            <path fill="#00bf13" d="M0 0h320.006v479.997h-320.006z"/>
        </g>
        <g fill="#f21930">
            <path d="M445.896 308.66c-40.313 72.507-129.227 98.271-199.877 59.356s-96.406-127.836-57.491-198.487c38.914-70.648 127.828-96.406 198.479-57.491 26.118 14.386 44.714 33.298 59.339 60.237-5.338-7.341-11.297-13.4-19.119-19.55-48.189-37.887-118.045-29.525-155.931 18.664-37.885 48.188-29.525 118.045 18.664 155.931 48.189 37.886 118.045 29.525 155.931-18.664z"/>
            <path d="M411.468 321.667l-35.191-49.88-58.033 18.926 36.558-48.883-35.931-49.341 57.792 19.666 35.826-49.422-.852 61.04 58.073 18.798-58.306 18.05z"/>
        </g>
    </g>
</svg>
