<svg xmlns="http://www.w3.org/2000/svg" height="480" width="640" version="1">
  <g>
    <g fill-rule="evenodd">
      <path fill="#ffe800" d="M0 0h640v480h-640z"/>
      <path fill="#00148e" d="M0 240h640v240h-640z"/>
      <path fill="#da0010" d="M0 360h640v120h-640z"/>
    </g>
    <g>
      <g fill-rule="evenodd">
        <path d="M269.716 291.123l-72.333 76.602-1.276-1.643 72.333-76.602 1.276 1.643z"/>
        <path d="M320.094 303.57l-94.72 100.015-1.662-1.574 94.72-100.015 1.662 1.574z"/>
        <path d="M478.35 60.236v88.583l17.717 88.583 17.717-88.583v-88.583h-35.434z" transform="matrix(-.068 -.068 -.089 .09 264.829 429.762)" stroke="#000" stroke-width="4.104" fill="#808080"/>
        <path d="M478.35 60.236v88.583l17.717 88.583 17.717-88.583v-88.583h-35.434z" transform="matrix(-.068 -.068 -.089 .09 240.389 390.718)" stroke="#000" stroke-width="4.104" fill="#808080"/>
      </g>
      <g>
        <path d="M301.18 272.84s-17.716 336.61 53.15 336.61l106.3-35.433-.86-185.03-158.59-116.15z" fill-rule="evenodd" transform="matrix(.449 0 0 .645 72.334 -59.771)" stroke="#000" stroke-width="1pt" fill="#ffdf00"/>
        <path d="M344.46 304.2c-.001 17.717-7.846 269.82 27.587 269.82l88.583-17.717-.86-167.31-115.31-84.79z" fill-rule="evenodd" transform="matrix(.449 0 0 .645 72.334 -59.771)" stroke="#000" stroke-width="1pt" fill="#0000c4"/>
        <path d="M367.52 321.16c-.001 17.717 4.525 217.42 39.958 217.42h53.15l-.859-149.59-92.249-67.833z" fill-rule="evenodd" transform="matrix(.449 0 0 .645 72.334 -59.771)" stroke="#000" stroke-width="1pt" fill="#e10000"/>
        <path d="M206.025 116.239l72.333 76.602 1.276-1.643-72.333-76.602-1.276 1.643z" fill-rule="evenodd"/>
        <path d="M301.18 272.84s-35.433 336.61 70.866 336.61c88.583 0 88.583-53.15 106.3-53.15l-17.72-124.02-159.45-159.44z" fill-rule="evenodd" stroke="#000" stroke-width="1pt" fill="#ffdf00" transform="matrix(.584 0 0 .617 9.595 -10.162)"/>
        <g stroke="#000">
          <path d="M231.18 194.665c.436-.031 15.509-33.858 53.007-55.043" fill="none"/>
          <path d="M228.156 162.001c5.277 2.539 8.599 5.445 11.622 8.835-6.051-1.299-9.159-1.811-14.435-4.35s-9.275-6.419-12.454-9.56c3.934 1.254 9.991 2.536 15.268 5.074z" fill-rule="evenodd" fill="#005b00"/>
          <path d="M244.811 181.365c.362.712-.033 1.673-.882 2.147s-1.831.281-2.193-.43.033-1.673.882-2.147 1.831-.281 2.193.43z" fill-rule="evenodd" fill="#f00"/>
          <path d="M257.889 139.604c-2.285 6.038-4.805 10.018-7.714 13.74 1.288-6.705 1.82-10.128 4.105-16.166s5.634-10.88 8.342-14.737c-1.175 4.415-2.449 11.125-4.733 17.163z" fill-rule="evenodd" fill="#005b00"/>
          <path d="M253.108 139.542c-.544 5.911-1.746 10.481-3.33 15.122-.435-5.734-.761-8.578-.217-14.49s2.242-11.659 3.629-16.265c.014 3.993.463 9.721-.081 15.633z" fill-rule="evenodd" fill="#005b00"/>
          <path d="M258.077 147.83c-3.119 3.518-5.747 4.997-8.518 5.924 2.757-4.94 4.094-7.565 7.213-11.082s6.477-5.084 9.175-6.297c-2 2.981-4.751 7.938-7.87 11.455z" fill-rule="evenodd" fill="#005b00"/>
          <path d="M233.278 158.061c3.409 4.279 5.022 8.334 6.185 12.8-4.566-3.231-6.976-4.728-10.385-9.008s-5.194-9.558-6.59-13.812c2.802 2.526 7.381 5.74 10.79 10.02z" fill-rule="evenodd" fill="#005b00"/>
          <path d="M221.573 183.417c4.57 3.681 7.006 7.466 8.971 11.747-5.783-2.413-8.806-3.478-13.375-7.159s-7.373-8.665-9.583-12.691c3.622 2.028 9.418 4.422 13.987 8.103z" fill-rule="evenodd" fill="#005b00"/>
          <path d="M242.836 181.537c-3.482 5.803-7.263 9.711-11.611 13.411 2.034-6.34 2.889-9.566 6.371-15.369s8.498-10.581 12.554-14.39c-1.819 4.201-3.832 10.545-7.314 16.348z" fill-rule="evenodd" fill="#005b00"/>
          <path d="M248.391 186.742c-5.803 4.026-10.839 6.086-16.209 7.691 4.95-5.2 7.328-7.927 13.131-11.952s12.268-6.367 17.468-8.209c-3.65 3.232-8.586 8.445-14.389 12.47z" fill-rule="evenodd" fill="#005b00"/>
          <path d="M287.283 135.81c-2.448 2.974-4.652 4.804-7.034 6.445 1.991-3.462 2.935-5.245 5.383-8.219s5.294-5.164 7.585-6.904c-1.501 2.237-3.485 5.704-5.933 8.678z" fill-rule="evenodd" fill="#005b00"/>
          <path d="M284.567 135.362c-1.414 3.119-2.963 5.428-4.746 7.725.812-3.151 1.15-4.729 2.565-7.848s3.47-5.999 5.132-8.303c-.733 2.157-1.536 5.306-2.951 8.425z" fill-rule="evenodd" fill="#005b00"/>
          <path d="M285.604 140.36c-2.466 1.487-4.268 1.938-6.049 2.073 2.521-2.302 3.787-3.542 6.253-5.029s4.707-1.889 6.5-2.187c-1.717 1.345-4.237 3.657-6.703 5.144z" fill-rule="evenodd" fill="#005b00"/>
          <path d="M253.767 160.821c-4.533 2.774-8.235 4.327-12.086 5.63 4.154-3.42 6.187-5.2 10.72-7.974s9.236-4.587 13.012-6.019c-2.966 2.163-7.112 5.59-11.645 8.364z" fill-rule="evenodd" fill="#005b00"/>
          <path d="M268.265 159.758c-6.038 3.645-11.155 5.356-16.561 6.581 5.304-4.898 7.872-7.483 13.91-11.128s12.581-5.534 17.839-7.012c-3.859 3.002-9.15 7.914-15.189 11.558z" fill-rule="evenodd" fill="#005b00"/>
          <path d="M228.991 218.291c.4-.223-3.354-31.903 21.076-64.661" fill="none"/>
          <path d="M267.469 149.239c.362.712-.033 1.673-.882 2.147s-1.831.281-2.193-.43.033-1.673.882-2.147 1.831-.281 2.193.43z" fill-rule="evenodd" fill="#f00"/>
          <path d="M278.236 142.863c.362.712-.033 1.673-.882 2.147s-1.831.281-2.193-.43.033-1.673.882-2.147 1.831-.281 2.193.43z" fill-rule="evenodd" fill="#f00"/>
          <path d="M240.416 163.244c.272.537-.218 1.367-1.095 1.855s-1.809.448-2.082-.088.218-1.367 1.095-1.855 1.809-.448 2.082.088z" fill-rule="evenodd" fill="#f00"/>
          <path d="M243.53 161.889c.272.537-.218 1.367-1.095 1.855s-1.809.448-2.082-.088.218-1.367 1.095-1.855 1.809-.448 2.082.088z" fill-rule="evenodd" fill="#f00"/>
          <path d="M241.745 164.797c.272.537-.218 1.367-1.095 1.855s-1.809.448-2.082-.088.218-1.367 1.095-1.855 1.809-.448 2.082.088z" fill-rule="evenodd" fill="#f00"/>
          <path d="M253.465 162.815c.398.793-.043 1.862-.986 2.387s-2.031.309-2.429-.484.043-1.862.986-2.387 2.031-.309 2.429.484z" fill-rule="evenodd" fill="#f00"/>
          <path d="M255.757 160.433c.398.793-.043 1.862-.986 2.387s-2.031.309-2.429-.484.043-1.862.986-2.387 2.031-.309 2.429.484z" fill-rule="evenodd" fill="#f00"/>
          <path d="M256.337 161.579c.398.793-.043 1.862-.986 2.387s-2.031.309-2.429-.484.043-1.862.986-2.387 2.031-.309 2.429.484z" fill-rule="evenodd" fill="#f00"/>
        </g>
        <path d="M336.61 308.27c-.001 17.717-35.433 212.6 53.15 265.75 35.433 17.716 88.582-17.717 88.582 0l-17.71-141.74-124.02-124.01z" fill-rule="evenodd" transform="matrix(.584 0 0 .617 9.595 -10.162)" stroke="#000" stroke-width="1pt" fill="#0000c4"/>
        <path d="M372.05 343.7c-.001 17.717-17.716 159.45 35.433 194.88 35.433 35.433 124.02 25.822 124.02 25.822l-70.87-132.12-88.58-88.58z" fill-rule="evenodd" stroke="#000" stroke-width="1pt" fill="#e10000" transform="matrix(.584 0 0 .617 9.595 -10.162)"/>
        <path d="M183.75 158.261l94.72 100.015 1.662-1.574-94.72-100.015-1.662 1.574z" fill-rule="evenodd"/>
        <path d="M460.63 184.25l17.716 35.433v17.717c-.865-1.305 0 17.716-17.716 17.716-17.717 0-17.717-35.433-17.717-35.433s-17.716 35.433-17.716 70.866l17.716 53.15s-2.611-36.703 17.717-35.433c20.328 1.271 17.716 17.716 17.716 17.716v35.433h17.717v-141.73l17.717-35.433-27.136-53.15-26.014 53.15z" fill-rule="evenodd" transform="matrix(.135 -.141 .104 .109 86.321 192.263)" stroke="#000" stroke-width="1pt" fill="#cececc"/>
        <path d="M557.82 95.669l-26.323 70.866 17.717 53.15-35.433-17.716 35.433 53.149v35.433h17.716v-35.433l35.433-53.149-35.433 17.716 17.717-53.15-26.827-70.866z" fill-rule="evenodd" transform="matrix(.105 -.16 .14 .093 113.956 183.934)" stroke="#000" stroke-width="1pt" fill="#cececc"/>
        <path d="M422.53 136.96c0 2.068-1.958 3.746-4.371 3.746-2.412 0-4.371-1.678-4.371-3.746s1.959-3.747 4.371-3.747c2.413 0 4.371 1.679 4.371 3.747zm-6.244 7.909c0 35.801 20.917 187.81 22.582 191.56.139 4.44-4.718 6.383-7.077.833-6.551-17.342-20.744-159.91-21.333-193.22-.244-13.734 3.761-14.801 8.326-14.57 3.759.209 8.325 3.725 8.325 7.909 0 4.996-5.828 8.742-10.823 7.493z" fill-rule="evenodd" transform="matrix(.401 0 0 .31 43.716 69.851)" stroke="#000" stroke-width="1pt" fill="#e10000"/>
        <path d="M422.53 136.96c0 2.068-1.958 3.746-4.371 3.746-2.412 0-4.371-1.678-4.371-3.746s1.959-3.747 4.371-3.747c2.413 0 4.371 1.679 4.371 3.747zm-6.244 7.909c31.488 61.415 48.722 166.77 50.387 170.52.139 4.44-4.718 6.383-7.077.833-2.479-3.315-12.667-100.18-49.138-172.18-.244-13.734 3.761-14.801 8.326-14.57 3.759.209 8.325 3.725 8.325 7.909 0 4.996-5.828 8.742-10.823 7.493z" fill-rule="evenodd" transform="matrix(.378 .091 -.151 .293 76.019 38.195)" stroke="#000" stroke-width="1pt" fill="#0000c4"/>
        <path d="M422.53 136.96c0 2.068-1.958 3.746-4.371 3.746-2.412 0-4.371-1.678-4.371-3.746s1.959-3.747 4.371-3.747c2.413 0 4.371 1.679 4.371 3.747zm-6.244 7.909c0 35.801 20.917 187.81 22.582 191.56.139 4.44-4.718 6.383-7.077.833-6.551-17.342-20.744-159.91-21.333-193.22-.244-13.734 3.761-14.801 8.326-14.57 3.759.209 8.325 3.725 8.325 7.909 0 4.996-5.828 8.742-10.823 7.493z" fill-rule="evenodd" transform="matrix(.512 0 0 .505 -24.647 83.116)" stroke="#000" stroke-width="1pt" fill="#e10000"/>
        <path d="M422.53 136.96c0 2.068-1.958 3.746-4.371 3.746-2.412 0-4.371-1.678-4.371-3.746s1.959-3.747 4.371-3.747c2.413 0 4.371 1.679 4.371 3.747zm-6.244 7.909c31.488 61.415 48.722 166.77 50.387 170.52.139 4.44-4.718 6.383-7.077.833-2.479-3.315-12.667-100.18-49.138-172.18-.244-13.734 3.761-14.801 8.326-14.57 3.759.209 8.325 3.725 8.325 7.909 0 4.996-5.828 8.742-10.823 7.493z" fill-rule="evenodd" transform="matrix(.483 .148 -.193 .476 16.632 31.612)" stroke="#000" stroke-width="1pt" fill="#0000c4"/>
      </g>
      <g fill-rule="evenodd">
        <path d="M370.287 291.123l72.333 76.602 1.276-1.643-72.333-76.602-1.276 1.643z"/>
        <path d="M319.909 303.57l94.72 100.015 1.662-1.574-94.72-100.015-1.662 1.574z"/>
        <path d="M478.35 60.236v88.583l17.717 88.583 17.717-88.583v-88.583h-35.434z" transform="matrix(.068 -.068 .089 .09 374.951 429.762)" stroke="#000" stroke-width="4.104" fill="#808080"/>
        <path d="M478.35 60.236v88.583l17.717 88.583 17.717-88.583v-88.583h-35.434z" transform="matrix(.068 -.068 .089 .09 399.391 390.718)" stroke="#000" stroke-width="4.104" fill="#808080"/>
      </g>
      <g fill-rule="evenodd">
        <path d="M301.18 272.84s-17.716 336.61 53.15 336.61l106.3-35.433-.86-185.03-158.59-116.15z" transform="matrix(-.449 0 0 .645 567.642 -59.771)" stroke="#000" fill="#ffdf00"/>
        <path d="M344.46 304.2c-.001 17.717-7.846 269.82 27.587 269.82l88.583-17.717-.86-167.31-115.31-84.79z" transform="matrix(-.449 0 0 .645 567.642 -59.771)" stroke="#000" fill="#0000c4"/>
        <path d="M367.52 321.16c-.001 17.717 4.525 217.42 39.958 217.42h53.15l-.859-149.59-92.249-67.833z" transform="matrix(-.449 0 0 .645 567.642 -59.771)" stroke="#000" fill="#e10000"/>
        <path d="M434.023 116.239l-72.333 76.602-1.276-1.643 72.333-76.602 1.276 1.643z"/>
        <g stroke="#000" fill="#005b00">
          <path d="M378.31 173.427s20.806 25.862 30.838 46.011c10.031 20.149 21.735 51.001 21.735 51.001s-6.688-30.47-19.32-54.732c-16.533-30.436-33.253-40.517-33.253-42.28z"/>
          <path d="M374.183 154.219s22.238 31.182 32.387 54.418c10.149 23.236 21.443 58.192 21.443 58.192s-5.496-33.689-18.359-61.764c-16.934-35.336-35.603-48.963-35.47-50.846z"/>
          <path d="M396.132 123.088s16.384 47.565 21.441 76.964c5.057 29.399 8.237 69.882 8.237 69.882s2.936-33.943-3.842-70.029c-9.359-46.119-26.488-75.334-25.835-76.817z"/>
          <path d="M379.333 120.355s21.603 42.409 29.927 71.266c8.323 28.857 16.033 70.568 16.033 70.568s-.906-37.896-11.69-73.019c-14.473-44.525-34.751-66.886-34.269-68.816z"/>
          <path d="M407.954 132.938s11.409 45.871 14.393 73.337 4.057 64.628 4.057 64.628 3.595-30.18-.526-63.994c-5.826-43.337-18.502-72.744-17.924-73.971z"/>
          <path d="M376.666 135.538s21.603 36.601 30.48 62.193c8.876 25.593 17.759 63.051 17.759 63.051s-2.501-34.69-13.901-65.77c-15.184-39.312-34.692-57.652-34.337-59.475z"/>
          <path d="M373.733 160.008s22.219 29.097 32.301 51.428c10.081 22.33 21.239 56.323 21.239 56.323s-5.319-33.304-18.105-60.224c-16.843-33.807-35.58-45.622-35.434-47.527z"/>
          <path d="M376.545 146.04s20.679 33.103 29.682 57.186c9.003 24.084 18.581 59.952 18.581 59.952s-3.856-34.079-15.332-63.232c-15.187-36.761-33.154-52.042-32.931-53.906z"/>
          <path d="M400.824 124.256s13.575 46.559 16.942 74.95c3.367 28.39 4.254 67.197 4.254 67.197s4.807-32.11.109-67.002c-6.695-44.646-22.034-73.782-21.304-75.145z"/>
          <path d="M383.293 112.953s19.537 44.285 26.47 73.82c6.932 29.534 12.641 71.819 12.641 71.819s.897-37.844-8.192-73.853c-12.323-45.723-31.491-69.908-30.919-71.786z"/>
          <path d="M412.554 136.809s8.699 43.687 10.091 69.597c1.391 25.91.333 60.774.333 60.774s5.292-28.026 3.135-59.952c-3.304-40.953-14.202-69.308-13.558-70.419z"/>
          <path d="M378.935 127.55s20.389 38.467 28.029 64.98c7.639 26.512 14.456 65.063 14.456 65.063s-.231-35.347-10.167-67.582c-13.381-40.821-32.821-60.633-32.317-62.461z"/>
        </g>
        <path d="M301.18 272.84s-35.433 336.61 70.866 336.61c88.583 0 88.583-53.15 106.3-53.15l-17.72-124.02-159.45-159.44z" transform="matrix(-.584 0 0 .617 630.387 -10.162)" stroke="#000" fill="#ffdf00"/>
        <path d="M336.61 308.27c-.001 17.717-35.433 212.6 53.15 265.75 35.433 17.716 88.582-17.717 88.582 0l-17.71-141.74-124.02-124.01z" transform="matrix(-.584 0 0 .617 630.387 -10.162)" stroke="#000" fill="#0000c4"/>
        <path d="M372.05 343.7c-.001 17.717-17.716 159.45 35.433 194.88 35.433 35.433 124.02 25.822 124.02 25.822l-70.87-132.12-88.58-88.58z" transform="matrix(-.584 0 0 .617 630.387 -10.162)" stroke="#000" fill="#e10000"/>
        <path d="M456.304 158.261l-94.72 100.015-1.662-1.574 94.72-100.015 1.662 1.574z"/>
        <path d="M460.63 184.25l17.716 35.433v17.717c-.865-1.305 0 17.716-17.716 17.716-17.717 0-17.717-35.433-17.717-35.433s-17.716 35.433-17.716 70.866l17.716 53.15s-2.611-36.703 17.717-35.433c20.328 1.271 17.716 17.716 17.716 17.716v35.433h17.717v-141.73l17.717-35.433-27.136-53.15-26.014 53.15z" transform="matrix(-.135 -.141 -.104 .109 553.655 192.263)" stroke="#000" fill="#cececc"/>
        <path d="M557.82 95.669l-26.323 70.866 17.717 53.15-35.433-17.716 35.433 53.149v35.433h17.716v-35.433l35.433-53.149-35.433 17.716 17.717-53.15-26.827-70.866z" transform="matrix(-.105 -.16 -.14 .093 526.026 183.934)" stroke="#000" fill="#cececc"/>
        <path d="M422.53 136.96c0 2.068-1.958 3.746-4.371 3.746-2.412 0-4.371-1.678-4.371-3.746s1.959-3.747 4.371-3.747c2.413 0 4.371 1.679 4.371 3.747zm-6.244 7.909c0 35.801 20.917 187.81 22.582 191.56.139 4.44-4.718 6.383-7.077.833-6.551-17.342-20.744-159.91-21.333-193.22-.244-13.734 3.761-14.801 8.326-14.57 3.759.209 8.325 3.725 8.325 7.909 0 4.996-5.828 8.742-10.823 7.493z" transform="matrix(-.401 0 0 .31 596.281 69.851)" stroke="#000" fill="#e10000"/>
        <path d="M422.53 136.96c0 2.068-1.958 3.746-4.371 3.746-2.412 0-4.371-1.678-4.371-3.746s1.959-3.747 4.371-3.747c2.413 0 4.371 1.679 4.371 3.747zm-6.244 7.909c31.488 61.415 48.722 166.77 50.387 170.52.139 4.44-4.718 6.383-7.077.833-2.479-3.315-12.667-100.18-49.138-172.18-.244-13.734 3.761-14.801 8.326-14.57 3.759.209 8.325 3.725 8.325 7.909 0 4.996-5.828 8.742-10.823 7.493z" transform="matrix(-.378 .091 .151 .293 563.957 38.195)" stroke="#000" fill="#0000c4"/>
        <path d="M422.53 136.96c0 2.068-1.958 3.746-4.371 3.746-2.412 0-4.371-1.678-4.371-3.746s1.959-3.747 4.371-3.747c2.413 0 4.371 1.679 4.371 3.747zm-6.244 7.909c0 35.801 20.917 187.81 22.582 191.56.139 4.44-4.718 6.383-7.077.833-6.551-17.342-20.744-159.91-21.333-193.22-.244-13.734 3.761-14.801 8.326-14.57 3.759.209 8.325 3.725 8.325 7.909 0 4.996-5.828 8.742-10.823 7.493z" transform="matrix(-.512 0 0 .505 664.609 83.116)" stroke="#000" fill="#e10000"/>
        <path d="M422.53 136.96c0 2.068-1.958 3.746-4.371 3.746-2.412 0-4.371-1.678-4.371-3.746s1.959-3.747 4.371-3.747c2.413 0 4.371 1.679 4.371 3.747zm-6.244 7.909c31.488 61.415 48.722 166.77 50.387 170.52.139 4.44-4.718 6.383-7.077.833-2.479-3.315-12.667-100.18-49.138-172.18-.244-13.734 3.761-14.801 8.326-14.57 3.759.209 8.325 3.725 8.325 7.909 0 4.996-5.828 8.742-10.823 7.493z" transform="matrix(-.483 .148 .193 .476 623.321 31.612)" stroke="#000" fill="#0000c4"/>
      </g>
      <g fill-rule="evenodd" stroke="#000" stroke-width="1pt">
        <path d="M288.987 420.507c10.347 6.572 21.66 5.101 31.04 0v-87.447h-20.693c10.347 32.794 10.347 65.587-10.347 87.447z" fill="#e10000"/>
        <path d="M303.825 332.99c0 61.476-14.906 75.139-14.906 87.43 6.218 0 10.342-5.724 14.906-13.661 6.218-12.296 6.819-74.73 6.218-73.772h-6.218z" fill="#0000c4"/>
        <path d="M291.389 332.99c-.284 35.928-15.723 69.149-12.81 76.507 3.325 6.576 12.81-15.028 25.248-2.732 6.218-12.296 6.819-74.73 6.218-73.772h-18.656z" fill="#0000c4"/>
        <path d="M292.857 333.208c0 41.013-14.284 43.739-14.284 54.676 6.219 0 14.252-5.978 14.284-5.459 6.218-8.203 6.819-49.856 6.218-49.217h-6.218z" fill="#ffdf00"/>
        <path d="M280.421 333.208c-.284 23.97-15.349 44.31-12.437 49.217 3.325 4.387 12.437-8.203 24.874 0 6.218-8.203 6.819-49.856 6.218-49.217h-18.656z" fill="#ffdf00"/>
        <path d="M351.067 420.517c-10.347 6.572-21.66 5.091-31.04-.009v-87.441h20.693c-10.347 32.794-10.347 65.587 10.347 87.447z" fill="#e10000"/>
        <path d="M336.224 332.996c0 61.476 14.906 75.139 14.906 87.43-6.218 0-10.342-5.724-14.906-13.661-6.218-12.296-6.819-74.73-6.218-73.772h6.218z" fill="#0000c4"/>
        <path d="M348.66 332.996c.284 35.928 15.723 69.149 12.81 76.507-3.325 6.576-12.81-15.028-25.248-2.732-6.218-12.296-6.819-74.73-6.218-73.772h18.656z" fill="#0000c4"/>
        <path d="M347.197 333.218c0 41.013 14.284 43.739 14.284 54.676-6.219 0-14.252-5.978-14.284-5.459-6.218-8.203-6.819-49.856-6.218-49.217h6.218z" fill="#ffdf00"/>
        <path d="M359.633 333.208c.284 23.97 15.349 44.31 12.437 49.217-3.325 4.387-12.437-8.203-24.874 0-6.218-8.203-6.819-49.856-6.218-49.217h18.656z" fill="#ffdf00"/>
      </g>
      <g stroke="#000" fill-rule="evenodd">
        <path d="M241.841 341.975l-10.851 7.937 10.851 7.937 5.425-3.969 2.713 3.969 2.713 7.937 2.713-7.937 2.713-3.969h145.43v-7.937l-145.43.001-2.713-3.969c0-3.968.569-7.937 2.713-7.937h10.851c0-3.968-5.425-11.906-16.276-11.906-10.851 0-16.276 7.937-16.276 11.906h10.851c2.144 0 2.713 3.969 2.713 7.937l-2.715 3.969-5.426-3.968z" fill="#908f8a"/>
        <path fill="#b74d00" d="M272.878 360.97h93.578v4.854h-93.578z"/>
        <path fill="#b74d00" d="M272.878 356.116h93.578v4.854h-93.578z"/>
        <path fill="#b74d00" d="M272.878 351.261h93.578v4.854h-93.578z"/>
        <path fill="#b74d00" d="M272.878 346.407h93.578v4.854h-93.578z"/>
        <path fill="#b74d00" d="M272.878 341.553h93.578v4.854h-93.578z"/>
        <path fill="#b74d00" d="M272.878 336.698h93.578v4.854h-93.578z"/>
        <path fill="#b74d00" d="M272.878 331.844h93.578v4.854h-93.578z"/>
        <path d="M277.709 331.832l34.45 33.981h4.921l-34.45-33.981h-4.921z" fill="#908f8a"/>
        <path d="M277.709 365.865l34.45-33.981h4.921l-34.45 33.981h-4.921z" fill="#908f8a"/>
        <path d="M277.779 331.832v33.981h4.925v-33.981h-4.925z" fill="#908f8a"/>
        <path d="M322.052 331.832l34.45 33.981h4.921l-34.45-33.981h-4.921z" fill="#908f8a"/>
        <path d="M322.052 365.865l34.45-33.981h4.921l-34.45 33.981h-4.921z" fill="#908f8a"/>
        <path d="M356.613 331.832v33.981h4.925v-33.981h-4.925z" fill="#908f8a"/>
        <path d="M322.122 331.832v33.981h4.925v-33.981h-4.925z" fill="#908f8a"/>
        <path d="M312.27 331.832v33.981h4.925v-33.981h-4.925z" fill="#908f8a"/>
      </g>
      <g>
        <g stroke="#000" stroke-width="1pt" fill="#ffdf00" fill-rule="evenodd">
          <path d="M392.449 234.678c0 54.306-32.446 98.381-72.428 98.381-39.978 0-72.428-44.074-72.428-98.381 0-54.305 32.446-98.381 72.428-98.381 39.979 0 72.428 44.074 72.428 98.381zm-10.347.001c0 48.272-27.811 87.447-62.079 87.447-34.267 0-62.079-39.177-62.079-87.447 0-48.272 27.811-87.447 62.079-87.447 34.267 0 62.079 39.177 62.079 87.447z"/>
          <path d="M348.205 144.035c-8.664-4.98-18.188-7.735-28.183-7.735s-19.518 2.755-28.182 7.735l4.026 10.071c7.426-4.427 15.59-6.876 24.157-6.876s16.73 2.449 24.157 6.876l4.026-10.071z"/>
          <path d="M348.325 325.322c-8.664 4.98-18.188 7.735-28.183 7.735s-19.518-2.755-28.182-7.735l4.026-10.071c7.426 4.427 15.59 6.876 24.157 6.876s16.73-2.449 24.157-6.876l4.026 10.071z"/>
        </g>
        <path d="M382.106 234.678c0 48.297-27.794 87.447-62.079 87.447s-62.079-39.152-62.079-87.447c0-48.297 27.794-87.447 62.079-87.447s62.079 39.152 62.079 87.447z" fill-rule="evenodd" fill="#a7cfff"/>
        <path d="M637.8 396.85c1.133 26.658-4.634 39.635-11.89 67.356-1.912 2.979-10.966-6.537-16.447-11.236s-7.812 4.239-14.537-3.046c-6.725-7.284-11.049 2.058-15.983-4.095s-51.301-7.056-51.366-7.585c4.591-2.276 28.269.152 24.474-11.193-4.3-11.722-31.094-.352-34.692-15.365-2.44-14.907-53.566-15.543-57.219-19.225 1.444 5.664 39.728 8.049 38.814 22.57-.833 5.915-37.693 7.644-41.247 12.651-3.045 6.295 28.927-1.707 30.114 6.032-.078 3.185-4.705.068-21.358 4.99-8.326 2.46 15.454 10.329 6.41 14.637-9.045 4.307-28.261 6.187-27.433 7.997 2.94 8.908 44.693 19.536 40.535 21.065-14.754 6.559-22.552 10.872-29.627 14.652-19.24-25.653-31.146-61.087-31.146-100.2 31.716-11.405 24.968-13.735 83.645-13.735s77.981 2.33 128.95 13.735z" fill-rule="evenodd" stroke="#000" stroke-width="1pt" fill="#afff7b" transform="matrix(.584 0 0 .617 9.595 -10.162)"/>
        <path d="M637.8 396.85c-8.07 0-16.454 3.399-25.07 3.399-8.617 0-17.465-3.398-26.466-3.398s-19.287 4.531-28.512 4.531c-9.224 0-17.388-4.531-26.676-4.531-9.287 0-18.566 3.398-27.755 3.398s-18.289-3.398-27.219-3.398-17.691 3.398-26.201 3.398-16.77-3.399-24.699-3.399c0-19.559 2.976-38.197 8.358-55.151 27.075 2.002 11.042-15.715 27.075-15.715 8.655 0 17.434 1.859 25.238 9.788 2.447 0 14.479-11.373 27.912-9.788 13.432 1.586 8.492 27.272 26.371 28.637 9.062 6.796 14.392 11.133 26.778 13.871 17.717 1.606 68.351-2.5 68.705-.194 1.417 9.223 2.161 18.772 2.161 28.552z" fill-rule="evenodd" stroke="#000" stroke-width="1pt" fill="#fff" transform="matrix(.584 0 0 .617 9.595 -10.162)"/>
        <path d="M549.85 473.94c0-5.664 13.512-9.462 13.512-18.524s-11.914-9.349-12.379-17.86c-.2-3.461 10.319-7.046 14.914-7.335s8.493 7.42 8.493 9.119-4.662-4.192-8.578-4.378-12.313.631-12.313 2.33c0 3.399 14.851 7.598 13.718 18.925-1.132 11.327-12.71 14.657-12.71 18.055l5.056 12.86s-9.713-7.529-9.713-13.192z" fill-rule="evenodd" transform="matrix(.205 0 0 .481 217.201 59.553)" stroke="#000" stroke-width="1pt"/>
        <path d="M549.85 473.94c0-5.664 13.512-9.462 13.512-18.524s-11.949-9.348-12.379-17.86c-.947-3.962 11.813-6.544 16.408-6.833s9.986 7.921 9.986 9.62-5.409-5.195-9.325-5.381-14.553.631-14.553 2.33c0 3.399 14.851 7.598 13.718 18.925-1.132 11.327-12.71 14.657-12.71 18.055l5.056 12.86s-9.713-7.529-9.713-13.192z" fill-rule="evenodd" transform="matrix(-.205 0 0 .481 445.814 59.164)" stroke="#000" stroke-width="1pt"/>
        <path d="M332.807 265.05c0 1.334-.651 2.415-1.453 2.415-.803 0-1.453-1.081-1.453-2.415s.651-2.415 1.453-2.415c.803 0 1.453 1.081 1.453 2.415z" fill-rule="evenodd"/>
        <path fill-rule="evenodd" d="M352.228 272.455h.468v19.521h-.468z"/>
        <path fill-rule="evenodd" d="M356.438 270.974h.468v19.521h-.468z"/>
        <path fill-rule="evenodd" d="M352.527 281.267l.003-.494 3.974.683-.003.494z"/>
        <path d="M497.26 478.07s26.052 11.328 31.716 18.124c5.664 6.797 3.398 6.796 3.398 6.796l57.769 2.266c0-3.398 10.194-3.399 12.46-11.328 2.265-7.929 2.265-10.194 2.265-10.194l-18.123 5.664 1.132-10.194-15.858-.001-2.265 10.195-33.982-1.133 2.266-27.186-6.796 1.133-1.133 26.053c-1.133 0-31.717-7.929-32.849-10.195z" fill-rule="evenodd" transform="matrix(.584 0 0 .617 6.949 -9.463)" stroke="#000" stroke-width="1pt" fill="#b74d00"/>
        <path d="M440.53 316.28s37.645-11.214 92.11-10.413 92.11 12.815 91.309 12.815l-10.413-18.422s-38.446-10.412-81.697-11.213c-43.252-.801-80.897 8.01-80.096 8.811l-11.213 18.422z" fill-rule="evenodd" stroke="#fede00" stroke-width="1pt" fill="#fede00" transform="matrix(.584 0 0 .617 9.595 -10.162)"/>
        <path fill-rule="evenodd" fill="#38a9f9" d="M306.229 170.12l13.565-.256.141 7.907-13.565.256z"/>
        <path d="M274.624 174.374l-4.785 7.791 16.161-1.991-1.294-7.792-10.083 1.991z" fill-rule="evenodd" fill="#38a9f9"/>
        <path fill-rule="evenodd" fill="#38a9f9" d="M288.429 171.364l13.519-1.185.615 7.881-13.519 1.185z"/>
        <path fill-rule="evenodd" fill="#38a9f9" d="M337.528 170.408l-13.542-.906-.474 7.894 13.542.906z"/>
        <path d="M366.628 175.129l4.921 9.687-14.644-3.606 1.628-7.715 8.095 1.633z" fill-rule="evenodd" fill="#38a9f9"/>
        <path fill-rule="evenodd" fill="#38a9f9" d="M354.657 172.651l-13.449-1.835-.961 7.843 13.449 1.835z"/>
        <path fill-rule="evenodd" stroke="#000" stroke-width="1pt" fill="#ffdf00" d="M532.64 323.49l-2.58-13.47-7.54 11.46 2.77-13.43-11.34 7.7 7.7-11.35-13.43 2.78 11.45-7.54-13.47-2.58 13.47-2.58-11.45-7.53 13.43 2.77-7.7-11.35 11.34 7.7-2.77-13.43 7.54 11.46 2.58-13.47 2.57 13.47 7.54-11.46-2.77 13.43 11.35-7.7-7.71 11.35 13.44-2.77-11.46 7.53 13.47 2.58-13.47 2.58 11.46 7.54-13.44-2.78 7.71 11.35-11.35-7.7 2.77 13.43-7.54-11.46z" transform="matrix(.584 0 0 .617 9.595 -10.162)"/>
        <path d="M547.05 293.86c0 9.29-6.634 16.82-14.818 16.82s-14.818-7.531-14.818-16.82c0-9.29 6.634-16.82 14.818-16.82s14.818 7.531 14.818 16.82z" fill-rule="evenodd" transform="matrix(.568 0 0 .514 18.23 21.786)" stroke="#000" stroke-width="1pt" fill="#ffdf00"/>
        <path d="M320.692 170.751c0 .546-1.257.989-2.807.989s-2.807-.443-2.807-.989 1.257-.989 2.807-.989 2.807.443 2.807.989z" fill-rule="evenodd"/>
        <path d="M326.771 170.635c0 .546-.942.988-2.105.988s-2.105-.443-2.105-.988c0-.546.942-.988 2.105-.988s2.105.443 2.105.988z" fill-rule="evenodd"/>
        <path d="M529.43 297.86l.801.801c-1.902-1.902-.996-1.126 1.602 3.203 2.393-.495 3.091-1.39 4.806-2.403" transform="matrix(.56 -.175 .166 .592 -26.754 90.693)" stroke="#000" stroke-width="1pt" fill="none"/>
        <path d="M527.83 304.27l.801.801c-1.902-1.902-1.124-.995 3.204 1.602 4.027.544 8.092-1.196 10.412-4.005" transform="matrix(.584 0 0 .617 8.659 -10.162)" stroke="#000" stroke-width="1pt" fill="none"/>
        <path d="M283.234 193.88s.936 7.907-5.145 17.791c-6.081 9.884-5.146 6.425-5.146 6.425s2.807 5.436 2.339 5.436l-4.677-4.942-5.146 5.436s4.678-8.401 4.21-8.401l-1.403-2.965 3.742-1.483s5.613-10.378 5.613-9.884l-16.84 11.366 22.452-18.779z" fill-rule="evenodd" fill="#b7e1ff"/>
        <path d="M286.977 196.848c-.468 0 2.339 7.907 4.678 11.861 2.338 3.954 2.338 8.896 2.338 8.896l7.952 3.953-10.291-15.319 6.548 2.47-11.226-11.861z" fill-rule="evenodd" fill="#b7e1ff"/>
        <path d="M286.977 217.604s5.613 5.93 6.081 7.907l.468 6.424-2.338-4.942-3.274 4.447s2.339-6.918 1.871-7.413l-3.742 2.471s1.403-3.954 1.403-4.448 0-2.965-.468-4.447z" fill-rule="evenodd" fill="#b7e1ff"/>
        <path d="M258.91 231.437c1.871-1.482 5.613-2.47 5.613-2.47s-2.339 3.953-2.807 3.953-1.871 0-2.806-1.483z" fill-rule="evenodd" fill="#b7e1ff"/>
        <path d="M323.46 209.694s12.161 7.413 12.161 7.907l-7.952-3.46-4.209-4.448z" fill-rule="evenodd" fill="#b7e1ff"/>
        <path d="M301.478 194.373c.936.494 17.775 14.331 17.307 14.331s-7.484-3.953-7.484-3.459v3.459l-3.742-7.907-.936 2.965-5.145-9.39z" fill-rule="evenodd" fill="#b7e1ff"/>
        <path d="M305.683 216.61l4.678 9.39 4.677-.988s-8.887-8.401-9.355-8.401z" fill-rule="evenodd" fill="#b7e1ff"/>
        <path d="M320.19 210.681c0 1.483.468 8.895.468 8.895s2.807 2.471 2.807 1.977-2.807-10.378-3.274-10.872z" fill-rule="evenodd" fill="#b7e1ff"/>
      </g>
      <g>
        <path d="M182.617 89.541s21.007-11.622 44.925-20.276c23.918-8.655 50.747-14.342 54.291-14.342 7.087 0 19.236 17.804 21.261 17.804 2.025 0 10.124-4.945 20.248-4.945s16.198 7.913 18.223 7.913h18.223c2.025 0-6.074-19.782 0-18.793 3.037.495 28.854 4.451 52.899 12.24 24.044 7.789 58.176 21.539 58.176 21.539s-55.784 7.449-70.577 5.246c-2.025.989-.1 13.083-2.937 7.763-4.661-1.064-21.771-3.731-24.809-3.731s-8.701 3.431-16.8 5.409c-8.099 1.978-18.223 4.946-18.223 4.946l13.161 20.771-16.198 7.913s-10.124-23.738-14.174-23.738-6.074 16.814-11.136 15.825c-5.062-.989-7.087-15.825-11.136-19.782-4.05-3.956-25.4-5.396-33.501-7.374-8.099-1.978-21.17-3.506-28.257-5.484-7.087-1.978-14.174 4.945-17.211 4.945-3.037 0 4.05-5.935 1.012-6.924s-5.062 2.967-7.087 2.967c-2.025 0-23.285-3.956-25.31-4.945-2.025-.989 5.062-4.946 3.037-4.946h-8.099z" fill-rule="evenodd" fill="#984000"/>
        <path d="M462.91-64.94c0 21.151-20.501 38.298-45.791 38.298s-45.791-17.147-45.791-38.298 20.501-38.298 45.791-38.298 45.791 17.147 45.791 38.298z" fill-rule="evenodd" transform="matrix(.219 0 0 .263 231.621 96.517)" stroke="#772600" stroke-width="3.706" fill="#808080"/>
        <path d="M284.74-59.945c6.661-6.661 14.987-16.651 36.633-16.651 4.996-1.665 4.996-11.656 16.651-11.656 11.656 0 8.326 9.991 16.652 13.321 8.325 3.33 76.596-3.33 76.596-3.33s6.66 4.995 6.66 11.656c0 6.66-4.995 11.656-6.66 11.656s-68.271-4.995-73.266-3.33c-4.995 1.665-8.326 3.33-19.982 3.33-11.655 0-14.986-11.656-23.311-11.656-8.326 0-16.652-1.665-29.973 6.66z" fill-rule="evenodd" transform="matrix(.274 0 0 .319 205.379 100.651)" stroke="#772600" stroke-width="5.25" fill="#984000"/>
        <path d="M487.88-76.597h26.642c9.572.114 12.873 3.005 21.647 3.33h23.312c8.475-.314 12.951-2.295 21.647-3.33 14.504-.175 9.555-1.306 6.66-9.991-2.625-6.564-2.949-9.61-6.66-13.321-1.396-7.946-4.655-10.772-4.996-19.982-1.527-7.026-4.342-11.752-1.665-19.982 3.84 5.647 5.387 7.97 14.986 8.326 10.045 0 13.937-.206 19.982 3.33 4.663 4.891 10.886 3.331 19.982 3.331 7.677 1.405 8.96 5.312 14.986 8.325 7.103 3.936 11.694 4.996 21.646 4.996 7.968 1.422 14.88 2.578 19.982 4.995 4.25 5.08 10.951 6.338 19.982 6.66 5.049 0 8.949-.524 13.321-1.665 7.677.369 15.473 0 24.977 0 6.162 7.209 7.586 9.862 18.316 9.991 7.338 5.154 13.527 6.035 19.982 8.326h24.977c8.928.687 11.789 4.35 19.981 6.661 8.114 3.767 15.721 6.35 21.647 8.326 5.891 1.281 13.574 1.665 21.646 1.665 6.183 3.175 13.609 3.459 18.317 6.661 6.89 1.476 16.302 3.214 21.647 4.995 8.816 1.168 12.187 3.942 19.981 4.995 6.703 1.915-2.224 3.56-6.66 4.995-9.827-.364-10.537-3.946-19.982-4.995-5.023-2.938-12.639-2.548-19.981-4.995h-1.666c6.6 3.904 12.948 6.422 9.991 13.321-8.492 0-15.367-1.098-23.312-1.665-8.384-1.616-12.226-3.33-21.646-3.33 9.395-2.264 11.855.27 18.316 3.33 2.396 8.059-2.725 4.995-11.656 4.995-7.608-2.731-12.173-5.984-21.647-6.66h-19.981c9.89.366 11.977 4.099 18.316 8.326.518 2.59-.132 2.472-4.995 3.33-5.16-4.478-11.889-6.013-19.982-8.326-7.879-.281-16.217-.966-23.311-3.33-4.867-.304-4.116-6.178 6.66 3.33 6.533 3.843 8.833 6.946 8.326 9.991-8.576-2.144-12.825-5.58-18.317-8.326-7.736-2.855-14.128-3.33-23.312-3.33-8.609-2.266.894-3.573 6.661 4.995 12.379 8.768-1.633 5.006-6.661 3.33-7.507-2.145-15.284-5.185-21.646-6.66-5.046-1.442-9.441-2.855-14.986-3.33 8.631.785 11.571 3.823 14.986 9.991 8.755 6.031-.384 3.1-8.326 1.665-5.071-4.402-11.487-6.658-14.986-11.656-8.351-4.176-8.563-8.982-3.33 1.665 1.363 3.407 1.111 10.795 1.665 11.656-6.136-6.626-4.825-8.326-11.656-8.326-4.634-3.244-11.496-5.766-14.986-9.991-6.436-.603-6.842-2.899-13.321-4.995 5.341 6.274 12.389 12.479 16.651 18.316 7.597 4.242 9.7 8.061 14.986 11.656 2.14 3.638 7.904 6.656 1.665 1.665-7.144-7.043-12.46-8.67-23.312-13.321-6.149-4.959-8.37-7.045-14.986-11.656-9.003-2.904-5.508-4.543 0 4.995 6.318 5.769 11.169 12.23 16.652 16.651 3.767 4.907 10.136 10.118 14.986 13.321 1.501 2.252 5.991 2.664 0 3.33-5.091-4.598-12.398-7.531-18.317-11.656-8.302-2.342-12.191-6.653-18.316-11.656-3.9-5.85-10.382-10.381-14.986-14.986-9.631-3.769 1.899 3.637 4.995 8.326 2.153 6.069 4.788 11.035 6.661 16.651 2.78 5.561-8.47-1.327-11.656-3.33-7.321-4.157-12.674-6.937-21.647-8.326-5.98-1.3-13.602-2.468-19.982-3.33-7.614-2.05 4.042 4.801 8.326 11.656 8.418 7.908-8.332 1.425-13.321 0-8.223-1.645-16.287-1.665-24.977-1.665-10.67.628-3.05 1.946 0 6.66 3.287 2.528 5.637 7.854 4.995 9.991-7.032-.95-13.025-3.022-21.646-3.33-6.962 2.321-15.345 1.665-23.312 1.665-.381 4.191 1.444.655 4.995 4.995 5.763 2.341 9.585 5.178 8.326 8.326h-48.289c-5.29 1.448 1.14.704 5 6.664-2.161 5.402-4.95 3.33-11.656 3.33-4.545-1.818-13.598-2.636-18.317-4.995-4.689 0-4.336-1.222-8.325-1.665 14.035 9.928 7.073 7.45 14.986 14.986 1.367.456 4.524 1.665 1.665 1.665" transform="matrix(.274 0 0 .319 205.379 104.9)" stroke="#772600" stroke-width="3.5" fill="none"/>
        <path d="M371.32 73.265c-.997 0-3.199-5.375-6.66-9.991-2.327-6.049-5.392-2.588-8.326-11.656.348-9.402.684-11.094 0-19.982-6.863-4.783-9.714-6.271-14.986-14.986-8.46-7.079 1.236-19.063 2.845-27.849-7.375-1.639-11.001 11.476-22.341 16.193-8.155 5.492-.911-11.354-4.891-21.188-2.775-13.872-10.826 6.956-13.911 12.862-5.467 3.717-7.128 8.541-14.986 1.665 0-5.145 4.937-19.489 2.845-22.279-7.814 3.814-18.087 15.49-26.157 17.283-8.131-1.768 1.769-14.828 1.769-24.518-2.937-.979-14.695 25.756-19.519 26.003-4.824.247-2.713-25.993-4.972-25.428-3.542 4.959-10.649 15.429-15.576 18.948-9.454-1.22 1.398-17.435 2.845-23.427 1.629-7.168-8.904 13.751-14.501 15.102-4.101 3.554-12.237 6.072-14.986 6.661 3.239-6.132 19.076-18.713 17.935-22.279-9.21.341-23.311 12.557-31.256 13.953-5.192 0-12.388 1.758-13.321 1.665.448-7.926 19.418-14.65 22.445-19.465-9.306 1.494-27.186 9.706-32.436 16.135-6.145 1.336-13.943 3.02-19.982 0 .897-7.475 14.856-21.998 17.936-26.758-8.396 3.698-12.642 6.59-21.647 8.326-1.652 1.652-6.524 5.231-4.995 1.665 2.655-6.945 6.675-10.11 9.99-14.986-7.45 1.364-10.28 5.634-18.316 9.991-5.094.222-19.646 14.854-24.596 15.102-11.449 8.382-16.009 9.807-28.307 13.321-7.587 1.355-11.259 2.934-14.986 6.661 3.796-6.688 9.597-13.093 14.986-16.651 3.676-5.567 7.121-10.195 14.986-13.321 1.897-2.318 7.188-2.905 1.665-3.33-4.746 4.237-12.696 8.966-16.651 11.656-5.101 3.207-11.01 6.481-13.321 4.996 2.617-7.198 7.436-8.902 11.656-14.986 8.809-5.606.042-1.915-6.66 0-4.338 3.866-12.122 6.726-18.316 9.991-7.114 1.856-11.704 6.132-19.982 8.326 0 2.375 2.365-4.248 3.33-6.66 6.831-7.409 8.657-9.476 16.651-11.656 1.912-2.867 4.419-1.665-1.665-1.665-4.514 4.023-10.811 6.212-16.651 9.991-5.891 1.281-13.574 1.665-21.647 1.665-10.355 1.243-9.46 2.025 0-3.33 5.357-5.042 9.769-3.775 9.991-9.991-6.255 4.532-13.869 7.86-21.647 11.656-6.434.189-8.134 1.665-14.986 1.665 3.298-3.416 5.277-7.634 9.991-9.991 6.896-7.662-4.377-1.477-6.66 0h-24.977c-4.465 5.582-.229.051 3.33-3.33 4.306-2.239 8.756-5.154 8.326-6.661-4.972 4.315-10.726 6.298-14.986 9.991-4.639 1.392-9.991 2.084-9.991 3.33 3.627-5.346 9.525-8.576 13.321-13.321 5.612-1.22 10.396-2.935 11.656-4.995h-23.312 16.651c8.399 0 15.628-.75 23.312-1.665 13.263-2.211-1.159-3.33-8.326-3.33-1.39-2.548 4.112-3.988 9.991-4.996 5.024-2.38 11.233-4.493 16.651-6.66 5.256-1.433 12.706-5.809 13.321-6.66l-9.991 1.665c7.447-.573 12.8-1.665 21.647-1.665 8.028-2.58 14.906-5.411 21.647-8.326 2.936-3.589 4.239-3.33-3.33-3.33 6.713-2.158 16.238-3.193 21.647-4.995 7.872-1.687 14.899-4.253 19.982-6.661 4.876-3.315 7.689-7.175 13.321-9.99 6.527 4.438 6.601 4.995 18.317 4.995 9.409-.112 15.171-2.373 19.981-6.661 7.207-1.965 8.482-5.429 16.651-6.66 7.444 1.329 15.029 1.665 23.312 1.665 8.096-2.12 15.677-6.011 21.647-9.991 5.093-2.502 11.139-6.121 16.651-8.326 6.07 3.133 10.843 5.651 18.317 6.661 7.727-1.149 11.746-4.869 18.316-6.661 3.577-4.329 8.777-6.632 14.986-8.325 9.671-4.748 8.913 1.574 13.321 6.66 4.895 5.133 11.373 2.681 18.317 4.996 3.83 5.893 6.646 9.914 11.656 13.321 3.889 4.708 8.508 6.034 16.651 6.66 2.967 3.957.601 6.811 6.661 8.326 2.388 2.529 6.518 3.606 9.99 4.995" transform="matrix(.274 0 0 .319 205.379 104.9)" stroke="#772600" stroke-width="3.5" fill="none"/>
        <path d="M468.74 30.803v.833c0-2.327-.103-1.091 1.665 3.33.595 3.641-.809 3.219-2.498 5.828-.286 3.723-.832 6.4-.832 10.823-.537 3.612-2.571 7.04-4.163 9.991-1.604 3.132-8.555 4.869-8.326 9.158-3.99 1.14-4.084-1.444-4.162-5.828-2.386-2.727-3.212-6.467-4.996-9.991-1.108-3.476-3.469-6.032-4.995-9.991-2.459-3.786-4.546-4.875-6.661-9.158-.826-2.066-.682-4.618-2.497-5.828-2.72-3.438-4.489-3.99-9.159-4.163-3.592.845-4.971 2.416-8.325 3.33-2.57.857-7.57.581-10.824 1.665-.808 1.314 1.6 1.941 2.498 4.995-2.135 1.764-2.926 4.883-4.163 7.493-1.965 2.486-3.283 3.705-4.163 7.493 1.363 2.316.201 5.386-1.665 7.493-.574 3.864-2.434 5.873-3.33 9.158-2.686 1.827-3.652 3.538-5.828 6.66-1.914 2.679-3.636 2.498-8.326 2.498-3.667-1-4.181-2.988-7.493-4.163-.352-1.056-.608-1.313-1.665-1.665" transform="matrix(.274 0 0 .319 205.379 104.9)" stroke="#782600" stroke-width="3.125" fill="none"/>
        <path d="M307.846 125.477s-.456 4.946-3.65 8.243l-9.809 7.143s8.897-4.213 9.809-3.297c.913.916-5.703 8.242-5.703 8.242s8.669-7.693 9.809-7.693 3.65 7.51 4.562 7.327c.912-.183-2.053-9.525-1.597-10.99.456-1.465 0-9.341 0-9.341l-3.422.366z" fill-rule="evenodd" fill="#812e00"/>
        <path d="M328.345 124.881s-.456 5.305-3.65 8.842l-9.809 7.663s8.897-4.519 9.809-3.537c.913.982-5.703 8.842-5.703 8.842s8.669-8.252 9.809-8.252 3.65 8.056 4.562 7.86c.912-.197-2.053-10.217-1.597-11.789.456-1.572 0-10.021 0-10.021l-3.422.393z" fill-rule="evenodd" fill="#812e00"/>
        <path d="M299.501 76.804c0 .987-.967 1.787-2.159 1.787s-2.159-.8-2.159-1.787.967-1.787 2.159-1.787 2.159.8 2.159 1.787z" fill-rule="evenodd" fill="#812e00"/>
      </g>
    </g>
  </g>
</svg>
