<svg xmlns="http://www.w3.org/2000/svg" height="480" width="640">
  <g clip-path="url(#a)" fill-rule="evenodd">
    <path d="M-20 0h960v240h-960z"/>
    <path fill="#107b00" d="M-20 240h960v240h-960z"/>
    <path fill="#fff" d="M-20 158.728h960v165.122h-960z"/>
    <path d="M439.356 183.328c-42.377-18.209-78.85 19.354-78.809 54.455.043 36.711 35.645 75.862 80.782 58.529-31.957-9.411-45.146-33.015-45.14-56.888-.23-23.641 14.893-51.132 43.166-56.096z" fill="#f0f"/>
    <path fill="#ff1800" d="M489.235 275.833l-24.223-17.69-24.369 17.719 9.34-28.505-24.376-17.692 29.987.064 9.311-28.643 9.202 28.534 30.11.004-24.305 17.566z"/>
    <path d="M443.444 295.922c-47.36 16.44-83.019-19.2-83.64-55.74-.619-36.54 35.241-74.219 83.881-57.061-27.52 4.081-47.73 28.201-47.971 55.471-.184 20.619 12.01 50.011 47.73 57.33z" fill="#f00"/>
    <path d="M-19.981 0l326.822 240.581-326.841 239.419.002-477.544.014-2.458z" fill="#f00"/>
  </g>
</svg>
