<svg xmlns="http://www.w3.org/2000/svg" id="flag-icons-es-ar" viewBox="0 0 1200 900">
	<rect fill="#fcdd09" width="1200" height="900" x="0" y="0" />
	<rect fill="#da121a" width="1200" height="100" x="0" y="100" />
	<rect fill="#da121a" width="1200" height="100" x="0" y="300" />
	<rect fill="#da121a" width="1200" height="100" x="0" y="500" />
	<rect fill="#da121a" width="1200" height="100" x="0" y="700" />
	<path fill="#eac102" stroke="#000" stroke-width=".5" d="m225.5 498l-0.1-151.3h134.5l0.3 151.7" />
	<path fill="#0071bc" stroke="#000" stroke-width=".5" d="m359.5 498l-0.1-151.3h133.7l0.3 151.7" />
	<path fill="#eac102" stroke="#000" stroke-width=".5" d="m225.4 497.6l268 0.6c0 0 0.6 56.9-1.1 76.6-0.2 22.9-28.3 125.8-135.7 125.7-109.2 0.6-131-92.6-131.2-131.1-0.1-12.1 0-71.8 0-71.8z" />
	<path fill="#e3e4e5" stroke="#000" stroke-width=".5" d="m359.4 700.5c-25 0.7-47.9-3.2-62.8-11.4-12.4-6.7-23.9-12.6-34.1-24.1-7.7-8.6-15.4-18.8-21-29.4-1.7-3.4-3.3-6.8-4.6-10.3-4.2-11.5-10.9-30-11.3-50.1-0.7-30.8-0.3-65.3-0.1-77.5 23.5 0 133.9 0.2 133.9 0.2" />
	<path fill="#999" stroke="#000" stroke-width=".5" d="m345.2 679c-1.4-0.5-1.1-3.5-0.2-3.4 2.5 0 2.2 3.4 2.3 4.1-0.7 0.2-1.3-0.1-2.1-0.7z" />
	<path fill="#999" stroke="#000" stroke-width=".5" d="m333.3 670.8c-0.8-0.8-2.7 0.6-3.6-0.8-0.9-1.4 5.2-8.5 5.7-9.2 0.8-1.5 0.4-4.4 0.7-5.2 1.4-2 3.6-4.5 4.9-5.6 2 1 3.5 1.9 4.4 2.6 0.4 2.3-2.5 6.1-2.6 6.8-0.3 2.1-1.9 3.7-3.5 5.6-1.7 2-4.3 3.4-6 5.8z" />
	<path fill="#999" stroke="#000" stroke-width=".5" d="m340.4 624.1c0.3 0.8 0.7 1.7 0.8 2.9 0.1 1.2 0.5 3 2.1 3.6 1.3 0.5 2.4 1.2 2.6 2.3 0.2 1 0.3 2.4 0.3 2.3l2.3-2.6c0.1-0.4 0.1-1.4 0.3-2.5 0.1-1.6-1-2.1-2.2-2.7-1.1-0.6-2.4-1.3-2.7-2-0.3-0.7-1.1-1.9-1.5-2.4-0.5-0.5-2 1.1-2 1.1z" />
	<path fill="#999" stroke="#000" stroke-width=".5" d="m341 638.1c0.9 2.1 0.8 5 1 7 1.1 0.1 2.5-2.6 4-3.3 0.2-1.6 0.9-3.6 1.4-4.3 2.5-2.8 1.1-4.8 1.1-4.8-2.4 2.3-2.6 4.1-7.5 5.4z" />
	<path fill="#eac102" stroke="#000" stroke-width=".5" d="m217.8 291.9c-3.9 0-4 14 2.4 13.8 3.2-0.2 70.7-6.9 139-6.8 69.5 0 140.4 5 141.9 4.9 2.9-0.2 5.7-12 3.5-12.2-0.4 0-20.6 17.5-37.3-2.3-16.2 11.9-22 7.7-36.1-0.7-15.4 7-18.3 11-35.6-1.6-18.2 10.6-21.5 9.7-36.5-1.5-11.3 11.8-24 8.6-33.7 1.6-17.7 10.8-25.5 9.3-38.3 1.8-15.9 8.3-17.8 11.3-35 0.3-19.4 18.7-33.5 2.7-34.3 2.7z" />
	<path fill="#eac102" stroke="#000" stroke-width=".5" d="m219.9 303.6c-3.9 0-5.8 4.9 0.6 4.7 3.2-0.1 71-5.6 139.3-5.6 69.4 0 139.4 5.6 141 5.5 2.9-0.2 3-4.4 0.7-4.6-1.1-0.1-71.5-6.4-141.9-6.4-68.9 0-137.8 6.4-139.7 6.4z" />
	<path fill="#008f4c" d="m293.4 386.6c-4.6-0.1-7.5-3-34-3-16.2 0-18.7 19.9-11.6 24.6 2.6 1.7 12.6 4.2 19.9 7.6 6.5 2.9 10.1 7.1 14.2 6.3 6.5-1.3 8.9-1.8 15.4-0.9 11.2 1.6 25.1-2.4 30.7-8.2 1.6-1.6-0.2-18.9-0.9-21-0.7-1.9-7.6-4.3-9.9-5.3-7.1-3.1-19.5-1.9-23.8-0.1z" />
	<path fill="#008f4c" stroke="#000" stroke-width=".5" d="m294.8 403.4c0.4-0.4-2.9 0-6 0-1.9 0-1.8 2.3-1.5 3.3 0.3 1 4.7 1.3 5.7 1 2.1-0.4 2-1.3 3-2.5 0.9-1 0.5-1-1.2-1.8z" />
	<path fill="#784421" stroke="#000" stroke-width=".5" d="m288.9 420.6l5.9-9c0 0 1.2 22.5 1.2 33.9 0 11.4-2.2 11.9-0.3 20.1 0.5 2 1.9 5.7 5.6 7.2 5.3 2.1 13.8 2.4 18.9 4.8 5.1 2.5 5.8 7 4.7 8.4-1.6-1.2-3.1-3.6-7-4.3-2.9-0.5-3.5-0.1-7.2-0.3-1.5 0-1.3 2.3-0.5 6-5-3.9-9.8-6-11.3-5.5-1.3 0.5 0.8 6.2 0.7 8.4-1.6-3.3-4.3-4.9-5-4.8-0.8 0.1-2 5.1-2.6 5.8-1.3-1.4-1.5-7.4-2.2-7.3-1.5 0-2.6 0.5-7.6 4.5 0.3-3.4 2.7-7.4 1.4-7.4-1.4 0-6.6 4.4-9.9 6.2 0-2.7 3.8-6.1 2.5-6.1-1.1 0-3-0.7-5.3-0.3-3.4 0.6-7.8 2.5-12.1 4.1 0-2.1 4-5.7 7.1-7.3 3.4-1.7 7.5-0.6 12.2-3.7 4.8-3.1 5.7-7 7.4-17 1.7-10-2.3-8.7-1.3-20 1.1-11.4 4.7-16.4 4.7-16.4z" />
	<path fill="#eac102" stroke="#000" stroke-width=".5" d="m218.7 308.2c-0.9 6.6 4.7 28.7 6.5 33.5 11.5 0.6 78.2-4.6 136.4-4.6 69.5 0.1 129.8 4.1 131.4 4 2.9-0.2 9.3-33 7-33.2-1.1-0.1-67-5.8-137.3-5.8-69 0-142.1 6.1-144 6.1z" />
	<path fill="#ed1c24" stroke="#000" stroke-linejoin="round" stroke-width=".5" d="m288.7 327.1c-4.3 0-7.8-3.3-7.8-7.3 0-4 3.5-7.2 7.8-7.2 4.3 0 7.8 3.2 7.8 7.2 0 4-3.5 7.3-7.8 7.3z" />
	<path fill="#e3e4e5" stroke="#000" stroke-width=".9" d="m382.5 366.3l17 0.1-1.8 17.8 16.3-4.5v21.3l-16.4-4.4c0 0 0.3 13.5 0.6 20.8 0.3 7.3 1.3 8.2 1.3 8.2l-5.2-1.2-3.2 21.2-3.5-21.3-5.2 1.3c0 0 0.9-1.3 1.4-8.4 0.6-7.1 1.4-20.6 1.4-20.6l-15.6 4.8-0.1-21.7 14.6 4.4z" />
	<path fill="#ed1c24" stroke="#000" stroke-linejoin="round" stroke-width=".5" d="m360 324.4c-4.3 0-7.8-3.2-7.8-7.2 0-4 3.5-7.3 7.8-7.3 4.3 0 7.8 3.3 7.8 7.3 0 4-3.5 7.2-7.8 7.2z" />
	<path fill="#ed1c24" stroke="#000" stroke-linejoin="round" stroke-width=".5" d="m430.2 325.3c-4.3 0-7.8-3.2-7.8-7.2 0-4 3.5-7.2 7.8-7.2 4.3 0 7.8 3.2 7.8 7.2 0 4-3.5 7.2-7.8 7.2z" />
	<path fill="#008f4c" stroke="#000" stroke-linecap="square" stroke-width=".5" d="m254.2 329.6l-9.6-7.7 7.7-9.6 9.6 7.7z" />
	<path fill="#008f4c" stroke="#000" stroke-linecap="square" stroke-width=".5" d="m464.6 329.2l-8-9.4 9.5-8 7.9 9.4z" />
	<path fill="#008f4c" stroke="#000" stroke-linecap="square" stroke-width=".5" d="m394.6 326.3l-8.2-9.2 9.3-8.2 8.1 9.3z" />
	<path fill="#008f4c" stroke="#000" stroke-linecap="square" stroke-width=".5" d="m324.1 326.3l-8.9-8.6 8.6-8.8 8.9 8.6z" />
	<path fill="#e4d8cc" stroke="#000" stroke-width=".5" d="m246.3 543.5c-0.7-1.2-1.4-5.2-2.2-7.1-2.2-0.5-5.9-0.1-8.5-1.5-2.8-1.8 1.1-5.4 0.8-6.7-0.1-0.1-0.7-0.7-0.9-1-0.1-0.5 0.4-1.4 0.7-1.5-0.4-0.4-1-2.1 0.9-2.1 0.7-0.2 0.8-0.6 1-1.1-0.2-0.1-0.8-0.4-0.9-0.5-1.5-0.9-0.8-1.8 0.3-2.6 0.7-0.5 3.1-2.3 4.4-3.1 0.6-0.3 0.7-0.5 0.8-1.1 0-0.6 0.5-1.3 1-1.8 0.4-0.4 2.2-1.8 2.1-2.1-0.1-0.4 0.4-1.1 0.5-1.2 0.2-0.2 0.4-0.5 0.5-0.7 0.1-0.2 0.4-0.5 0.7-0.5 0.3-0.1 0.8-0.5 0.7-0.8 0-0.2 0.8-1.2 1.1-1.1 0.3 0 0.8 0.1 1.4-0.3 0.4-0.8 1.4-1.3 2-1.5l1.4-0.5c0.1 0 1.1-0.4 1.7-0.3 0.7 0.2 2.3 0.2 2.3 0.2l1.9 0.4c0 0 0.8 0.1 1.3 0.3 0.6 0.3 2.7 1 2.6 1.1 0.1 0.1 0.9 0 2 0.7 1 0.7 2 1.9 2.5 1.9 0.5 0.1 0.6 0.8 0.6 0.8 0 0 0.5 0.9 1.1 1.2l1 1.3c0 0 0.9 1 1.3 1.6l1.5 2.8c0 0 0.8 0.7 0.5 1.6l0.2 3.8c0 0 0 0.3 0.2 0.8l-0.4 1.9c0 0-0.1 0.1-0.2 0.6-0.1 0.4-0.5 2.2-1.5 2.5 0.1 0.4-0.4 0.9-1.1 1.6-0.8 0.6-2.5 1.4-2.2 1.7 0.3 0.2-0.2 0.1-0.6-0.1-0.2-0.3-0.7-0.4-0.8 0.1-0.1 0.8 0 1.2-0.8 1.2-0.8 0-2.1 1.1-2.1 1.7l-1.7 0.7c0 0-0.2 0.2 0 0.8 0.1 0.6-0.6 2-0.7 2.1-0.1 0.1-0.1 4.4-0.1 4.6-4.4-0.2-12.2 0.3-16.3 1.2z" />
	<path fill="#000" d="m258 533.1c-2.3-1.8 4.7-6.1 4.9-5.3 0.1 0.4 4.6 3.5 4.5 3.8-0.2 0.5-1.3 1.4-3.8 5.1-0.7 0.6-2.4-1.4-5.6-3.6z" />
	<path fill="#000" d="m247 509c0.9-0.4 0.5 0.1 1.3-0.7 0.2-1-0.1-0.5 0.4-0.9 1.3-0.9 3.7-2.2 5.5-2.7 1.8-0.6 3.6-0.1 5.6 0.3 1.2 0.3 3.5 0.7 5.7 2 1.1 0.7 2.1 1.3 3 2.2 1.2 1.2 2.4 2.7 3.3 3.9 0.2 0.2 1.4 2.4 2.5 4.4 0.4 0.9 0.1 2.4 0.1 3.4 0.1 1.5 0.5 2.8-0.4 4.9-0.7 1.4-0.7 2-1.2 2.2-0.5 2.2-3.4 2.8-4.7 3.5h-0.7c-0.4-0.9-2.2-2.8-2.9-3.6-2.2-2.3-2.8-4.9-5.6-5.8-2.4-2.9-9.3-7.1-12.2-9.6-1.5-1.4-1-0.9-0.8-1.7z" />
	<path fill="#999" stroke="#000" stroke-width=".5" d="m249.6 507.2c-0.8 0.1-1.3 0.3-1 0.9 0.3 0.9 0.7 1.6 0.7 1.6 0 0-1.1-1-1.6-0.8-0.4 0.3-1.1 0.6-0.8 1 0.2 0.4 1.2 1.5 1.2 1.5 0 0-1.8-1.3-1.5-1.1-0.5 0.4-0.8 1.5 0 2.4 0.8 1 3.4 4 3.8 4.6 0.4 0.7 1.6 1.6 2.3 2 0.6 0.3 2.9 1.8 2.5 1.6l-1.6-0.4c-0.3-0.1 2.3 2.7 2.9 2.9 0.6-0.5 5.5-1.7 5.3 3.1-0.3 0.9-0.4 1.6-0.4 1.6 0 0 1 0.4 1.2 1 0.1 0.6 1.1 1.2 1.7 1.4 0.7 0.3 1.8 0.6 1.4 0.4-0.3-0.1 1 1.1 1.3 1.4 0.4 0.3 1.4-0.8 0.5-2.3-0.4-0.9-1.8-2.8-1.9-3.5-0.1-0.7-2-3.5-2.7-4.4-0.1-0.5 0-0.7-0.6-1.3-0.7-0.5-1.7-1.8-2.3-2.5-0.6-0.6-1.2-1-1.9-1.4-0.8-0.4-5.3-4.6-6.2-6.1-0.7-0.9 3.9 3.9 4.6 4.3 1 0.8 1.4 0.8 0.1-1.1-0.5-0.9-3.3-5.1-5.7-7.5z" />
	<path fill-rule="evenodd" fill="none" stroke="#010101" stroke-linecap="round" stroke-miterlimit="4.0999999" stroke-width=".5" d="m258.4 526c0 0 0.1 0.1 0.1 0.2q0.1 0.2 0.1 0.4c-0.1 0.1-0.1 0.2-0.2 0.3q-0.2 0.2-0.3 0.2c-0.2 0.1-0.3 0.1-0.4 0.1-0.1 0-0.3 0-0.4 0-0.1 0.1-0.2 0-0.3 0.1-0.1 0-0.1 0-0.2 0.1q-0.2 0.2-0.3 0.4-0.1 0.2-0.2 0.3c-0.2 0.1-0.2 0.1-0.4 0.1q-0.2-0.1-0.3-0.2c-0.1-0.1-0.1-0.2-0.2-0.3q0.1-0.1 0.1-0.2" />
	<path fill="#000" d="m256.8 524.5c1.1-0.6 5.5-0.3 2.9 2.4-0.4 0.2-0.1 0.6 0.1 0.4 3-3.3-1.7-3.9-2.9-3.2-0.5 0.3-0.1 0.4-0.1 0.4z" />
	<path fill-rule="evenodd" fill="none" stroke="#000" stroke-linecap="round" stroke-width=".5" d="m247.2 511.9c1.4 0.7 2.7 1.6 3.4 2.9 0.7 1.2 1.5 2 2.7 2.6 1.1 0.6 1.7 1 1.7 1" />
	<path fill-rule="evenodd" fill="none" stroke="#000" stroke-width=".5" d="m262.3 522.9c1.8 2.1 2 2.6 2.6 3.7 0.6 1.1 0.9 1.4 1.4 2.3 0.4 0.7 0.5 1.3 0.5 1.3 0.3 0.7-1.3-2.8-3.3-3.3-0.6-0.4-0.7-0.4-0.9-1.4-0.2-1-0.6-1.9-1.4-2.9-0.7-0.9-2.1-2.5-2.1-2.5" />
	<path fill-rule="evenodd" fill="none" stroke="#000" stroke-linecap="round" stroke-width=".5" d="m253.8 529c0.1 0 0.6 0.9 0.7 1.1 0.2 0.1 0.5 0.3 1 0.2 0.9-0.2 2.3-1.5 3.1-1.7 1.3 0.1 2.3-0.4 2.8-0.6" />
	<path fill="#000" stroke="#000" stroke-width=".5" d="m245.5 516.1c0.6 1.7 1.1 2.9 2.3 3.9-0.2 0.3-2.9-0.8-4.1-0.8 0 0 0-0.9 0.5-1.6 0.4-0.8 1.3-1.5 1.3-1.5z" />
	<path fill="#999" stroke="#000" stroke-width=".5" d="m266.6 533.4c0.1 0.9 0 1.9-0.4 3-0.3 1.2-0.6 3 0.7 4.1 0.9 1 1.7 2.1 1.4 3.2-0.2 1-0.7 2.3-0.7 2.2l3.3-1.5c0.2-0.4 0.6-1.2 1.1-2.2 0.8-1.4 0-2.3-0.9-3.3-0.8-1-1.7-2.1-1.7-2.9 0-0.7-0.2-2.2-0.5-2.8-0.2-0.7-2.3 0.2-2.3 0.2z" />
	<path fill="#999" stroke="#000" stroke-width=".5" d="m245.6 550.3c0.9 2.7 1.7 7.6 1.2 9.6 1.4-1 8.5-3 10.3-3.7 5.1-2.1 10.1-7.3 10.8-7.7 3.4-1.7 2.9-4 2.9-4-3.1 1.2-4.9 2.7-9 3.9l-5.4 1.7-4.7 0.5z" />
	<path fill="#999" stroke="#000" stroke-width=".5" d="m242.3 554.7c-0.3 0.4 0.1 4 1.1 4.6 0.9 0.6 2.1 1.5 3.1 0.8 0 0 0.6-1.1 0.4-3.9-0.1-1.5-0.4-2.2-0.4-2.2z" />
	<path fill="#999" stroke="#000" stroke-width=".5" d="m279 535.1c-1-2.7-4.9-2.7-8.5-3.2-0.9-0.4-1.2-0.7-1.2-0.7l-0.5 1.6c0.5 2 1.6 1.5 3 3.1 1.4 1.8 2.7 10.8 0.3 13.9-2.5 3.2-13.2 4.3-16 4.6 1.4 2.2 3 5.9 3 8.6 4.2 0.2 11.1-2 15.2-5.3 0.9-0.8 2.1-4.3 2.9-5.9 2.8-5.3 2.7-14.5 1.8-16.7z" />
	<path fill="#999" stroke="#000" stroke-width=".5" d="m268.1 531.2c0.1-0.7 0.4-0.5 0.8 0 0.6 1.1-0.9 2.1-2 1.9-0.7-0.1-0.7-0.9 0.3-0.8 0.9 0.2 0.9-1.2 0.9-1.1z" />
	<path fill-rule="evenodd" fill="none" stroke="#000" stroke-width=".5" d="m269.8 543.4q0 0 0 0c0.1-0.2 0-0.1-0.2 0.3-0.2 0.4-0.3 0.7-0.5 1.1-0.1 0.3-0.3 0.4-0.4 0.7" />
	<path fill-rule="evenodd" fill="none" stroke="#000" stroke-width=".5" d="m269.1 543.4q0 0.1-0.1 0.1c0.2-0.2 0.1-0.1 0 0.3-0.2 0.3-0.2 0.5-0.4 0.9-0.2 0.3-0.4 0.6-0.6 0.9" />
	<path fill-rule="evenodd" fill="none" stroke="#000" stroke-width=".5" d="m253.9 556.1q0 0 0 0c0 0-0.2 0.3-0.3 0.5-0.1 0.3-0.3 0.5-0.4 0.7" />
	<path fill-rule="evenodd" fill="none" stroke="#000" stroke-width=".5" d="m252.9 556.3q0 0.1 0 0.1v-0.1q0 0.1 0 0.1v-0.1c-0.2 0.4-0.3 0.6-0.5 1 0 0.1-0.1 0.2-0.2 0.2" />
	<path fill-rule="evenodd" fill="none" stroke="#000" stroke-width=".5" d="m252 556.3c-0.2 0.4-0.3 0.7-0.5 1.1-0.1 0.2-0.2 0.2-0.3 0.4" />
	<path fill-rule="evenodd" fill="none" stroke="#000" stroke-width=".5" d="m251.1 556.6q-0.1 0-0.1 0c0.1-0.1 0.1 0-0.1 0.3-0.1 0.3-0.2 0.5-0.4 0.9-0.2 0.3-0.3 0.4-0.5 0.7" />
	<path fill-rule="evenodd" fill="none" stroke="#000" stroke-width=".5" d="m250 557.1c0 0.1-0.2 0.5-0.3 0.7q-0.2 0.3-0.4 0.7c-0.1 0.2-0.3 0.4-0.5 0.5q0 0.1-0.1 0.2" />
	<path fill-rule="evenodd" fill="none" stroke="#000" stroke-width=".5" d="m270.2 543.7c0 0.1-0.1 0.5-0.4 0.7-0.1 0.2-0.1 0.3-0.3 0.5" />
	<path fill="#999" stroke="#000" stroke-width=".5" d="m269.3 531.9c0.6 0.5 2.3 1.2 3.2 1.1 0.9-0.1 0.9-0.1 0.9-0.1" />
	<path fill-rule="evenodd" fill="none" stroke="#000" stroke-width=".5" d="m269.1 532.2c0.5 0.6 2.1 1.6 3 1.7 0.9 0 0.9 0 0.9 0" />
	<path fill-rule="evenodd" fill="none" stroke="#000" stroke-width=".5" d="m268.5 533c0.2 0.6 0.3 1 0.1 1.6-0.2 0.6-0.2 0.6-0.2 0.6" />
	<path fill-rule="evenodd" fill="none" stroke="#000" stroke-width=".5" d="m268 533c0.1 0.8 0.3 1.2 0.1 1.9-0.2 0.6-0.2 0.6-0.2 0.6" />
	<path fill-rule="evenodd" fill="none" stroke="#000" stroke-width=".5" d="m267.5 533.2c-0.4 1-0.6 3.1-0.4 3.9 0.2 0.8 0.2 0.8 0.2 0.8" />
	<path fill-rule="evenodd" fill="none" stroke="#000" stroke-width=".5" d="m246.1 556.9c-0.3-0.2-0.7-1.1-0.8-1.4 0-0.3 0-0.4 0-0.4" />
	<path fill-rule="evenodd" fill="none" stroke="#000" stroke-width=".5" d="m245.2 557.1c-0.3-0.3-0.7-1.3-0.7-1.6-0.1-0.3-0.1-0.4-0.1-0.4" />
	<path fill-rule="evenodd" fill="none" stroke="#000" stroke-width=".5" d="m244.6 557.7c-0.4-0.2-0.8-1.3-0.9-1.6-0.1-0.4-0.1-0.4-0.1-0.4" />
	<path fill-rule="evenodd" fill="none" stroke="#000" stroke-width=".5" d="m273.2 557.2c0.3-0.3 0.9-1.1 1.1-1.7 0.2-0.6 0.2-0.6 0.2-0.6" />
	<path fill-rule="evenodd" fill="none" stroke="#000" stroke-width=".5" d="m270 533.8c0.3 0.2 0.7 0.6 0.9 0.7 0.3 0.1 0.3 0.1 0.3 0.1" />
	<path fill-rule="evenodd" fill="none" stroke="#000" stroke-width=".5" d="m276.4 534.9c0.9 1.2 1.1 5.3 1 5.8-0.1 0.5-0.1 0.5-0.1 0.5" />
	<path fill="#eac102" stroke="#000" stroke-width=".5" d="m254.4 257.1c-2-1.1-3.8-1.1-6.6 0.1-1-1.7-7.6-9.3-10.1-12 0.3-3.9 8.5-10.2 12.6-10.1 3.9 0 11.6 3.6 13.3 10.3-3.4 4.1-7.9 9.6-9.2 11.7z" />
	<path fill="#eac102" stroke="#000" stroke-width=".5" d="m247.9 265.6c3.5 1.7 4 1 6.7-0.2 1.1 1.7 7.1 8.8 9.6 11.5-0.4 2.2-5.3 8.9-11.6 9.1-3 0.1-11.7-2.3-13.4-9 3.5-4.2 7.3-9.3 8.7-11.4z" />
	<path fill="#eac102" stroke="#000" stroke-width=".5" d="m254.6 265.3c1.2-1.6 2.1-5.1-0.1-8.1 1.1-1.6 6.4-9.2 9.3-11.6 2.1 0.7 5.4 8.5 5.2 14.8-0.1 3 0.2 11.7-4.7 16.5-3.9-3.7-7.8-9.8-9.7-11.6z" />
	<path fill="#eac102" stroke="#000" stroke-width=".5" d="m247.9 257.1c-1.1 1.6-2.4 5.4-0.1 8.3-1.1 1.6-5.9 8.9-8.7 11.4-2.2-0.6-5.8-8.3-5.7-14.6 0-3.1-0.5-11.8 4.3-16.6 4 3.5 8.3 9.7 10.2 11.5z" />
	<path fill="#eac102" stroke="#000" stroke-width=".5" d="m254.1 267.8c-3.5 1.3-7.4-0.3-8.8-3.7-1.4-3.3 0.3-7.1 3.7-8.5 3.5-1.3 7.5 0.3 8.9 3.6 1.4 3.4-0.3 7.2-3.8 8.6" />
	<path fill="#eac102" stroke="#000" stroke-width=".5" d="m326.3 254.2c-2-1-3.8-1.1-6.5 0.1-1.1-1.6-7.6-9.2-10.2-11.9 0.4-4 8.6-10.3 12.6-10.2 4 0.1 11.7 3.6 13.4 10.3-3.4 4.2-7.9 9.6-9.3 11.7z" />
	<path fill="#eac102" stroke="#000" stroke-width=".5" d="m319.8 262.7c3.5 1.7 4 1 6.7-0.1 1.1 1.6 7.1 8.7 9.7 11.4-0.5 2.2-5.4 9-11.7 9.1-3 0.1-11.7-2.3-13.3-9 3.4-4.1 7.3-9.3 8.6-11.4z" />
	<path fill="#eac102" stroke="#000" stroke-width=".5" d="m326.5 262.4c1.2-1.5 2.2-5.1-0.1-8.1 1.1-1.5 6.4-9.2 9.3-11.5 2.2 0.6 5.5 8.4 5.3 14.7-0.2 3.1 0.2 11.7-4.8 16.5-3.9-3.7-7.8-9.7-9.7-11.6z" />
	<path fill="#eac102" stroke="#000" stroke-width=".5" d="m319.9 254.2c-1.2 1.6-2.5 5.4-0.2 8.4-1.1 1.5-5.9 8.8-8.7 11.3-2.2-0.6-5.7-8.3-5.7-14.6 0.1-3-0.5-11.7 4.3-16.6 4 3.6 8.3 9.7 10.3 11.5z" />
	<path fill="#eac102" stroke="#000" stroke-width=".5" d="m326 264.9c-3.4 1.4-7.4-0.3-8.8-3.6-1.4-3.4 0.3-7.2 3.8-8.5 3.5-1.4 7.4 0.2 8.8 3.6 1.5 3.3-0.2 7.1-3.7 8.5" />
	<path fill="#eac102" stroke="#000" stroke-width=".5" d="m398.9 254.4c-1.9-1.2-3.7-1.3-6.5-0.2-1-1.7-7.2-9.6-9.7-12.4 0.6-3.9 9-9.8 13.1-9.6 3.9 0.2 11.5 4.1 12.9 10.9-3.6 4-8.4 9.2-9.8 11.3z" />
	<path fill="#eac102" stroke="#000" stroke-width=".5" d="m392.1 262.6c3.4 1.8 3.9 1.1 6.7 0.1 1 1.7 6.7 9.1 9.1 11.9-0.6 2.2-5.7 8.7-12 8.6-3.1-0.1-11.6-2.9-13-9.6 3.6-4 7.7-9 9.2-11z" />
	<path fill="#eac102" stroke="#000" stroke-width=".5" d="m398.7 262.5c1.3-1.5 2.4-5 0.3-8.1 1.2-1.5 6.8-8.8 9.8-11.1 2.1 0.7 5.1 8.7 4.6 15-0.2 3-0.3 11.7-5.4 16.3-3.8-3.9-7.4-10.1-9.3-12.1z" />
	<path fill="#eac102" stroke="#000" stroke-width=".5" d="m392.5 254.1c-1.3 1.5-2.7 5.3-0.6 8.3-1.1 1.5-6.2 8.6-9.1 11-2.2-0.7-5.4-8.6-5.1-14.9 0.2-3 0-11.7 5-16.4 3.8 3.8 7.9 10.1 9.8 12z" />
	<path fill="#eac102" stroke="#000" stroke-width=".5" d="m398 265.2c-3.5 1.2-7.4-0.6-8.7-4-1.2-3.4 0.6-7.1 4.2-8.3 3.5-1.2 7.4 0.6 8.7 4 1.2 3.4-0.6 7.1-4.1 8.3" />
	<path fill="#eac102" stroke="#000" stroke-width=".5" d="m471.8 257.1c-1.9-1.3-3.7-1.5-6.6-0.5-0.9-1.7-6.8-9.8-9.2-12.7 0.7-3.9 9.4-9.5 13.4-9.1 3.9 0.3 11.3 4.5 12.5 11.3-3.7 3.9-8.6 9-10.1 11z" />
	<path fill="#eac102" stroke="#000" stroke-width=".5" d="m464.7 265c3.3 2 3.9 1.3 6.7 0.4 0.9 1.7 6.3 9.3 8.7 12.2-0.7 2.1-6 8.4-12.3 8.1-3.1-0.1-11.5-3.2-12.7-10 3.8-3.9 8-8.7 9.6-10.7z" />
	<path fill="#eac102" stroke="#000" stroke-width=".5" d="m471.3 265.2c1.4-1.4 2.6-4.9 0.6-8.1 1.2-1.4 7.1-8.6 10.1-10.7 2.1 0.7 4.8 8.8 4.1 15.1-0.3 3-0.7 11.7-6 16-3.6-4-7-10.3-8.8-12.3z" />
	<path fill="#eac102" stroke="#000" stroke-width=".5" d="m465.4 256.6c-1.3 1.4-2.9 5.1-0.9 8.2-1.1 1.5-6.5 8.4-9.5 10.7-2.2-0.8-5.1-8.8-4.5-15 0.2-3.1 0.4-11.8 5.5-16.3 3.7 3.9 7.5 10.4 9.4 12.4z" />
	<path fill="#eac102" stroke="#000" stroke-width=".5" d="m470.4 268c-3.6 1.1-7.4-0.9-8.6-4.3-1.1-3.5 0.9-7.1 4.5-8.2 3.6-1.1 7.4 0.9 8.5 4.3 1.2 3.5-0.8 7.1-4.4 8.2" />
	<path fill="#eac102" stroke="#000" stroke-width=".5" d="m281.5 241.3c3.3-0.1 5.5-0.1 8.7-0.1 1 0 6.3 0.8 8.9 5.8 2.8 1.4 3.2 1.5 5.8 4 0 3.3 0 11.6-2 17-0.2 0.7-1.7 2.1-3.4 2.6-0.1 8.5-8.8 16.2-12.5 16.6-4.3 0-14.2-8.6-12.6-17.1-2.2-0.8-3.3-2.7-3.5-3.9-0.9-3.7-2.7-10.5-2.4-15.4 2.8-2.4 4.1-1.9 5.8-3.2 2.3-3.4 4.5-6.2 7.2-6.3z" />
	<path fill="#eac102" stroke="#000" stroke-width=".5" d="m299.3 215.6c-2.7 2.2-8.3 7.1-8.4 11 0 3.9 0 5.6 0.2 9 0.2 3.3 1.7 11.3 1.8 13.6 0 2.3 0.4 5.2 0.5 7.7 0 2.4-0.7 5.4-2.8 6.7-2.2 1.4-6.4 1.1-8.1-0.3-1.8-1.4-2.2-4.6-2.5-6.8-0.3-2.2 0.2-4.2 0.3-6.6 0-2.3 1.1-11.1 1.8-14.3 0.6-3.1 0.1-5.7 0.1-8.9 0-3.9-4.1-6.8-8.8-10.5 1.8-1.7 3.1-3 6.3-3.8 1.2-4.1 3.8-6.5 6.9-9.6 2.9 2.8 5.4 6.4 5.9 9.7 2.2-0.1 5 1.7 6.8 3.1z" />
	<path fill="#eac102" stroke="#000" stroke-width=".5" d="m353.6 239.6c3.3-0.1 5.5-0.1 8.7-0.2 1 0 6.3 0.8 8.9 5.9 2.8 1.3 3.2 1.5 5.8 3.9 0 3.3 0.1 11.7-2 17.1-0.2 0.7-1.7 2.1-3.4 2.5-0.1 8.6-8.8 16.3-12.5 16.6-4.3 0-14.2-8.6-12.6-17-2.2-0.8-3.3-2.7-3.5-3.9-0.8-3.7-2.7-10.5-2.3-15.4 2.8-2.4 4-1.9 5.7-3.2 2.4-3.4 4.6-6.2 7.2-6.3z" />
	<path fill="#eac102" stroke="#000" stroke-width=".5" d="m371.2 213.1c-2.7 2.2-8.3 7-8.4 11 0 3.9 0 5.6 0.2 8.9 0.2 3.4 1.7 11.4 1.7 13.7 0.1 2.2 0.5 5.1 0.6 7.6 0 2.5-0.7 5.4-2.8 6.8-2.2 1.4-6.4 1-8.1-0.3-1.8-1.4-2.2-4.6-2.5-6.8-0.4-2.2 0.2-4.3 0.3-6.6 0-2.3 1.1-11.1 1.8-14.3 0.6-3.1 0.1-5.8 0.1-8.9 0-3.9-4.1-6.8-8.9-10.5 1.9-1.8 3.2-3 6.4-3.9 1.2-4 3.8-6.4 6.9-9.5 2.9 2.8 5.4 6.4 5.9 9.6 2.2-0.1 5 1.8 6.8 3.2z" />
	<path fill="#eac102" stroke="#000" stroke-width=".5" d="m426.9 241.4c3.2-0.1 5.4-0.1 8.7-0.1 0.9 0 6.2 0.7 8.9 5.8 2.7 1.4 3.1 1.5 5.8 3.9 0 3.4 0 11.7-2.1 17.1-0.1 0.7-1.6 2.1-3.3 2.6-0.2 8.5-8.9 16.2-12.6 16.6-4.3-0.1-14.2-8.7-12.6-17.1-2.1-0.8-3.2-2.7-3.5-3.9-0.8-3.7-2.6-10.5-2.3-15.4 2.8-2.4 4-1.9 5.8-3.2 2.3-3.4 4.5-6.2 7.2-6.3z" />
	<path fill="#eac102" stroke="#000" stroke-width=".5" d="m443.5 216.7c-2.7 2.2-8.3 7-8.4 11 0 3.9 0 5.6 0.2 9 0.2 3.3 1.8 11.3 1.8 13.6 0 2.2 0.4 5.2 0.5 7.6 0.1 2.5-0.7 5.4-2.8 6.8-2.2 1.4-6.3 1-8.1-0.3-1.8-1.4-2.2-4.6-2.5-6.8-0.3-2.2 0.3-4.3 0.3-6.6 0-2.3 1.2-11.1 1.8-14.3 0.7-3.1 0.2-5.7 0.1-8.9 0-3.9-4.1-6.8-8.8-10.5 1.8-1.7 3.1-3 6.3-3.9 1.2-4 3.8-6.4 6.9-9.5 2.9 2.8 5.4 6.4 5.9 9.6 2.3-0.1 5 1.8 6.8 3.2z" />
	<path fill="#000" d="m245.2 527.7q0.9 0 1.9 0c2.7 0-0.7 0 0-0.1 0.6-0.1 1.3-0.1 1.9-0.3l2.4-0.6c-0.6 0.4-1.5 1.2-2.2 1.2-1.4 0.2-2.8 0.1-4.2 0.1q-1 0-2 0z" />
	<path fill="#999" stroke="#000" stroke-width=".5" d="m256.5 504.5c-0.8 0.1-1.3 0.1-2.4 0.4-1 0.2-3.2 1.1-2.9 1.3-0.4 0.4 1.8 2.3 2.6 3.3 0.8 0.9 2.8 4.1 3.2 4.7 0.4 0.7 1.3 2.7 1.9 3l1.9 1.6c-0.2-0.1 1.7 2.1 2.2 2.3 0.8 1.6 0.4 1 1.7 2.7 1.2 1.7 1.4 3.2 1.4 3.2 0 0 2 3.8 1.7 3.6-0.3-0.2 0.9 0.2 1.2 0.4 0.4 0.3 2.6-1.4 3.3-2.6 0.2-0.4 1.5-1.4 1.9-4 0.4-2.4 0-6.4-0.1-6.8-0.1-0.7-1.9-4.3-2.7-4.8-0.7-0.5-2.3-2.5-2.9-3.2-0.5-0.6-1.8-1.5-2.5-2-0.8-0.4-1.1-0.6-3-1.3-1.7-0.9-3.3-1.1-4.3-1.4z" />
	<path fill-rule="evenodd" fill="none" stroke="#000" stroke-linecap="round" stroke-width=".5" d="m261.8 517.1c1.2 0.9 2.4 2 2.8 3.4 0.5 1.3 1.2 2.2 2.2 3 1.1 0.8 1.6 1.3 1.6 1.3" />
	<path fill-rule="evenodd" fill="none" stroke="#000" stroke-linecap="round" stroke-width=".5" d="m255.6 509.4c1.2 0.9 3.5 1.4 4.2 3.3 0.5 1.4 1.2 2.3 2.2 3.1q1.5 1.2 1.5 1.3" />
	<path fill-rule="evenodd" fill="none" stroke="#000" stroke-linecap="round" stroke-width=".5" d="m255.1 506.1c1.2 0.9 4.2 2.2 4.7 3.6" />
	<path fill-rule="evenodd" fill="none" stroke="#000" stroke-linecap="round" stroke-width=".5" d="m264.5 511.6c0.9 0.9 1.8 2 2 3.2 0.3 1.3 0.8 2.1 1.5 2.9q1.2 1.2 1.2 1.2" />
	<path fill="#000" d="m234.9 531.5c0.4 0.1 1.3 1.7 1.7 2 0.7 0.5 0.8 0.7 1.6 0.9 2.2 0.4 2.3 0.4 4.1 0.2 1.5 0 2 0.2 3.5-0.2 1.2-0.4 3.1-1.1 3.5-1.4 0.3-0.2 1-1.2 1.3-1.5 0.3-0.4 4.4-10.1 4.6-9.3 0.1 0.4 1.3 0.9 1.2 1.2-0.2 0.5-4.2 9-4.5 9.4q-0.3 0.4-0.7 0.7-0.8 0.6-1.5 1.1c-1.1 0.8-4.4 1.9-5.6 2.1-2.7 0.2-7.3 0.7-10.1-0.1-0.2-2.2 0.9-5.1 0.9-5.1z" />
	<path fill="#e4d8cc" stroke="#000" stroke-width=".5" d="m319.7 544.8c-0.7-1.3-1.4-5.2-2.3-7.1-2.1-0.6-5.8-0.1-8.4-1.5-2.9-1.8 1.1-5.4 0.8-6.7-0.2-0.1-0.8-0.8-1-1-0.1-0.5 0.4-1.4 0.8-1.6-0.5-0.3-1-2 0.9-2 0.6-0.2 0.8-0.7 1-1.1-0.3-0.1-0.9-0.5-0.9-0.5-1.6-0.9-0.8-1.8 0.2-2.6 0.7-0.5 3.2-2.4 4.5-3.1 0.6-0.3 0.7-0.5 0.7-1.1 0-0.6 0.6-1.4 1-1.8 0.5-0.5 2.2-1.8 2.1-2.2-0.1-0.3 0.4-1.1 0.6-1.2 0.2-0.1 0.4-0.5 0.5-0.6 0.1-0.2 0.3-0.5 0.7-0.6 0.3 0 0.8-0.4 0.7-0.7-0.1-0.2 0.8-1.2 1-1.1 0.3 0 0.9 0.1 1.4-0.3 0.4-0.8 1.5-1.3 2.1-1.5l1.4-0.5c0.1 0 1.1-0.5 1.7-0.3 0.6 0.1 2.2 0.2 2.2 0.2l2 0.4c0 0 0.7 0.1 1.3 0.3 0.6 0.2 2.6 1 2.6 1.1 0 0 0.9 0 1.9 0.7 1.1 0.7 2 1.9 2.5 1.9 0.5 0.1 0.6 0.8 0.6 0.8 0 0 0.6 0.9 1.2 1.2l0.9 1.3c0 0 1 1 1.4 1.5l1.5 2.9c0 0 0.7 0.6 0.5 1.6l0.1 3.8c0 0 0.1 0.3 0.2 0.8l-0.3 1.8c0 0-0.1 0.2-0.2 0.6-0.2 0.5-0.6 2.2-1.6 2.6 0.1 0.4-0.4 0.9-1.1 1.6-0.7 0.6-2.4 1.4-2.1 1.6 0.2 0.3-0.3 0.2-0.6 0-0.3-0.3-0.7-0.5-0.8 0.1-0.1 0.8 0 1.2-0.8 1.2-0.8-0.1-2.2 1-2.1 1.7l-1.7 0.7c0 0-0.3 0.1-0.1 0.7 0.2 0.7-0.5 2.1-0.6 2.1-0.1 0.2-0.1 4.5-0.2 4.6-4.3-0.1-12.2 0.4-16.2 1.3z" />
	<path fill="#000" d="m320.4 510.3c0.9-0.4 0.5 0.1 1.3-0.8 0.2-1-0.1-0.4 0.4-0.8 1.3-0.9 3.7-2.2 5.5-2.7 1.8-0.6 3.6-0.1 5.6 0.2 1.2 0.3 3.5 0.7 5.7 2.1 1.1 0.6 2.1 1.3 3 2.2 1.2 1.1 2.4 2.6 3.3 3.8 0.2 0.3 1.4 2.5 2.5 4.5 0.4 0.9 0.1 2.3 0.1 3.3 0.1 1.5 0.5 2.8-0.4 5-0.7 1.4-0.7 2-1.2 2.1-0.5 2.2-3.4 2.9-4.7 3.6h-0.7c-0.4-1-2.2-2.8-2.9-3.6-2.2-2.4-2.8-4.9-5.6-5.8-2.4-2.9-9.3-7.2-12.2-9.6-1.5-1.4-1-0.9-0.8-1.7z" />
	<path fill="#000" d="m331.6 534c-2.3-1.8 4.7-6.1 4.9-5.3 0.1 0.4 4.6 3.5 4.5 3.8-0.2 0.5-1.3 1.4-3.8 5.2-0.7 0.5-2.5-1.5-5.6-3.7z" />
	<path fill="#999" stroke="#000" stroke-width=".5" d="m329.8 505.7c-0.7 0.1-1.2 0.2-2.3 0.5-1 0.2-3.2 1-2.9 1.3-0.5 0.4 1.8 2.3 2.6 3.3 0.8 0.9 2.8 4.1 3.2 4.7 0.4 0.7 1.2 2.6 1.9 3l1.9 1.6c-0.3-0.1 1.7 2.1 2.2 2.2 0.8 1.7 0.4 1.1 1.7 2.8 1.2 1.7 1.4 3.2 1.4 3.2 0 0 2 3.8 1.7 3.6-0.4-0.2 0.8 0.1 1.2 0.4 0.3 0.3 2.6-1.4 3.3-2.6 0.2-0.4 1.5-1.4 1.9-4 0.4-2.4 0-6.4-0.1-6.8-0.1-0.7-1.9-4.3-2.7-4.8-0.7-0.5-2.3-2.5-2.9-3.2-0.6-0.6-1.8-1.6-2.6-2-0.7-0.4-1-0.7-2.9-1.4-1.7-0.8-3.3-1-4.3-1.3z" />
	<path fill="#999" stroke="#000" stroke-width=".5" d="m322.9 508.5c-0.7 0.1-1.2 0.2-1 0.9 0.3 0.8 0.7 1.6 0.7 1.6 0 0-1.1-1.1-1.5-0.8-0.4 0.3-1.2 0.6-0.8 1 0.2 0.3 1.2 1.4 1.2 1.4 0 0-1.9-1.3-1.5-1-0.5 0.4-0.9 1.4-0.1 2.4 0.9 1 3.5 4 3.9 4.6 0.4 0.7 1.6 1.6 2.2 1.9 0.7 0.4 3 1.9 2.6 1.6l-1.7-0.4c-0.2-0.1 2.4 2.8 2.9 2.9 0.6-0.4 5.6-1.6 5.3 3.1-0.3 1-0.3 1.6-0.3 1.6 0 0 0.9 0.5 1.1 1.1 0.2 0.6 1.2 1.1 1.8 1.4 0.6 0.3 1.7 0.6 1.4 0.4-0.3-0.2 0.9 1 1.3 1.3 0.3 0.3 1.6-0.3 0.4-2.3-0.4-0.8-1.7-2.7-1.8-3.4-0.1-0.8-2-3.5-2.8-4.4-0.1-0.5 0.1-0.8-0.6-1.3-0.6-0.5-1.7-1.8-2.3-2.5-0.5-0.7-1.1-1-1.9-1.4-0.8-0.5-5.2-4.6-6.1-6.1-0.8-0.9 3.9 3.9 4.5 4.3 1 0.8 1.5 0.7 0.2-1.1-0.6-0.9-3.4-5.2-5.7-7.5z" />
	<path fill-rule="evenodd" fill="none" stroke="#000" stroke-linecap="round" stroke-width=".5" d="m320.6 513.2c1.3 0.7 2.7 1.6 3.4 2.8 0.7 1.3 1.5 2 2.6 2.7q1.8 1 1.8 1" />
	<path fill="#000" stroke="#000" stroke-width=".5" d="m318.9 517.4c0.5 1.6 1.1 2.9 2.2 3.9-0.2 0.3-2.8-0.9-4.1-0.8 0 0 0.1-0.9 0.5-1.7 0.5-0.7 1.4-1.4 1.4-1.4z" />
	<path fill="#999" stroke="#000" stroke-width=".5" d="m348.1 557.4c-0.3 1.3-2.1-4.2-0.6-4.4 1.3 0.2 2.4 2.6 2.5 3.5-1.1-0.1-1-0.6-1.9 0.9z" />
	<path fill="#999" stroke="#000" stroke-width=".5" d="m352.5 554.6c-0.3 0.1-1.7 0.4-1.8 0.2-0.2-0.7-0.4-1.3-1.2-1.9-0.8-0.5-2.1-1.9-0.7-3 0.9-0.6 1.4 0.4 1.5 1 0.1 0.5 0.7 1.3 1 2.2 0.4 0.9 1 1.2 0.9 1.3z" />
	<path fill="#999" stroke="#000" stroke-width=".5" d="m349.5 558.7c0.1 0.1 1 0.6 1.9 0.1 0.6-0.5-0.4 2.1-1.2 1.7-0.6-0.6-0.8-1.9-0.7-1.8z" />
	<path fill="#999" stroke="#000" stroke-width=".5" d="m351.8 552.4c0.1 0 1.4-0.2 1.7-0.3 0.2 0.5 0.6 1.8 0.2 2.2-1.5 1.2-2.7-1.7-2.5-1.8z" />
	<path fill="#999" stroke="#000" stroke-width=".5" d="m348.2 550.4l-6.3 2.9c0 0-4.6 1.7-6.3-1.4-0.2-1-0.8-2-0.8-2l-0.9 1.2c-1.3 1.7-0.8 2.5-0.1 3.7 0.7 1.2 0.7 1.2 1.2 1.8 0.5 0.6 2.7 1.2 3.3 1.3 1.5 0 4.7 0.5 11.4 2.5 0-0.5-0.8-3.9-0.8-4.1-0.2-0.1-1.2-0.5-1.7-1.2-0.5-0.9 0.4-2.3 1.5-1.2 0.5 0.6 0.3 2.8 1.4 2.6 1-0.2 0.7-1.6 0.5-2.2-0.2-0.5-0.9-1.2-1.4-1.6-0.9-0.7-1.2-1.8-1-2.3z" />
	<path fill="#999" stroke="#000" stroke-width=".5" d="m329.4 551.2c-1.1 0.4-2.7 1.3-2.9 3-0.1 1.4-0.6 2.6-1.5 3.1-1 0.4-2.3 0.8-2.3 0.8l3.2 1.7c0.4-0.1 1.3-0.3 2.4-0.4 1.6-0.3 1.9-1.5 2.1-2.8 0.3-1.2 0.7-2.6 1.3-3.1 0.6-0.4 1.6-1.5 1.9-2.1 0.2-0.3-0.3-1-0.8-1.3-0.4-0.3-2.2 0.7-3.4 1.1z" />
	<path fill="#999" stroke="#000" stroke-width=".5" d="m312 557.1c1.6 0.6 3.3 1.3 4.3 2.5 1.6-0.2 3.8-0.1 4.5 0.3 3.4 1.7 5-0.1 5-0.1-2.8-1.8-5.9-2.3-7.3-6-1.7 0.9-4.6 2.5-6.5 3.3z" />
	<path fill="#999" stroke="#000" stroke-width=".5" d="m310.9 551.3c-0.6 0-1.9 2.3-1.8 3.5 0 1.1 1.5 2.2 2.6 2.3l4.6-2.1-4.7-2.9z" />
	<path fill-rule="evenodd" fill="none" stroke="#000" stroke-linecap="round" stroke-width=".5" d="m335.1 518.4c1.2 0.9 2.4 2 2.9 3.3 0.5 1.4 1.2 2.3 2.2 3.1q1.5 1.2 1.5 1.2" />
	<path fill-rule="evenodd" fill="none" stroke="#000" stroke-linecap="round" stroke-width=".5" d="m328.9 510.7c1.2 0.9 3.6 1.4 4.2 3.3 0.5 1.4 1.2 2.2 2.2 3.1q1.6 1.2 1.6 1.2" />
	<path fill-rule="evenodd" fill="none" stroke="#000" stroke-linecap="round" stroke-width=".5" d="m328.4 507.4c1.2 0.9 4.3 2.2 4.7 3.6" />
	<path fill-rule="evenodd" fill="none" stroke="#000" stroke-linecap="round" stroke-width=".5" d="m337.9 512.9c0.8 0.9 1.7 1.9 2 3.2 0.2 1.2 0.7 2 1.5 2.9q1.1 1.2 1.1 1.2" />
	<path fill="#000" d="m308.2 532.8c0.4 0.1 1.4 1.7 1.7 2 0.7 0.5 0.8 0.6 1.6 0.9 2.3 0.4 2.4 0.3 4.2 0.2 1.4 0 2 0.1 3.5-0.3 1.1-0.3 3-1 3.5-1.3 0.3-0.2 1-1.2 1.2-1.5 0.3-0.4 4.5-10.1 4.7-9.3 0.1 0.4 1.3 0.9 1.2 1.2-0.2 0.5-4.2 8.9-4.5 9.4q-0.4 0.4-0.8 0.7-0.7 0.5-1.4 1.1c-1.1 0.7-4.5 1.8-5.6 2.1-2.8 0.2-5.4 2.4-9.5 0.1-1.9-2.5 0.2-5.3 0.2-5.3z" />
	<path fill="#e4d8cc" stroke="#000" stroke-width=".5" d="m319.7 634.2c-0.7-1.2-1.4-5.1-2.3-7-2.1-0.6-5.8-0.1-8.4-1.6-2.9-1.8 1.1-5.3 0.8-6.7-0.2-0.1-0.8-0.7-1-1-0.1-0.4 0.4-1.3 0.8-1.5-0.5-0.3-1-2.1 0.9-2 0.6-0.3 0.8-0.7 1-1.1-0.3-0.1-0.9-0.5-0.9-0.5-1.6-0.9-0.8-1.8 0.2-2.6 0.7-0.6 3.2-2.4 4.5-3.1 0.6-0.3 0.7-0.6 0.7-1.2 0-0.6 0.6-1.3 1-1.7 0.5-0.5 2.2-1.8 2.1-2.2-0.1-0.4 0.4-1.1 0.6-1.2 0.2-0.1 0.4-0.5 0.5-0.7 0.1-0.1 0.3-0.5 0.7-0.5 0.3 0 0.8-0.5 0.7-0.7-0.1-0.3 0.8-1.2 1-1.2 0.3 0.1 0.9 0.2 1.4-0.2 0.4-0.8 1.5-1.4 2.1-1.5l1.4-0.6c0.1 0.1 1.1-0.4 1.7-0.3 0.6 0.2 2.2 0.3 2.2 0.3l2 0.3c0 0 0.7 0.1 1.3 0.4 0.6 0.2 2.6 1 2.6 1 0 0.1 0.9 0.1 1.9 0.8 1.1 0.7 2 1.8 2.5 1.9 0.5 0 0.6 0.7 0.6 0.7 0 0 0.6 0.9 1.2 1.3l0.9 1.2c0 0 1 1.1 1.4 1.6l1.5 2.9c0 0 0.7 0.6 0.5 1.6l0.1 3.7c0 0 0.1 0.4 0.2 0.8l-0.3 1.9c0 0-0.1 0.2-0.2 0.6-0.2 0.4-0.6 2.2-1.6 2.5 0.1 0.5-0.4 0.9-1.1 1.6-0.7 0.7-2.4 1.5-2.1 1.7 0.2 0.3-0.3 0.1-0.6-0.1-0.3-0.2-0.7-0.4-0.8 0.2-0.1 0.7 0 1.2-0.8 1.1-0.8 0-2.2 1.1-2.1 1.7l-1.7 0.7c0 0-0.3 0.2-0.1 0.8 0.2 0.6-0.5 2-0.6 2.1-0.1 0.2-0.1 4.4-0.2 4.6-4.3-0.2-12.2 0.3-16.2 1.2z" />
	<path fill="#000" d="m320.4 599.7c0.9-0.4 0.5 0.1 1.3-0.7 0.2-1-0.1-0.5 0.4-0.9 1.3-0.9 3.7-2.1 5.5-2.7 1.8-0.6 3.6-0.1 5.6 0.3 1.2 0.3 3.5 0.7 5.7 2.1 1.1 0.6 2.1 1.2 3 2.1 1.2 1.2 2.4 2.7 3.3 3.9 0.2 0.2 1.4 2.5 2.5 4.5 0.4 0.8 0.1 2.3 0.1 3.3 0.1 1.5 0.5 2.8-0.4 5-0.7 1.3-0.7 1.9-1.2 2.1-0.5 2.2-3.4 2.8-4.7 3.5l-0.7 0.1c-0.4-1-2.2-2.9-2.9-3.7-2.2-2.3-2.8-4.8-5.6-5.8-2.4-2.9-9.3-7.1-12.2-9.5-1.5-1.5-1-0.9-0.8-1.7z" />
	<path fill="#000" d="m331.8 623.3c-2.3-1.8 4.7-6.1 4.8-5.3 0.1 0.4 4.7 3.5 4.5 3.8-0.2 0.5-1.3 1.4-3.7 5.2-0.8 0.5-2.5-1.5-5.6-3.7z" />
	<path fill="#999" stroke="#000" stroke-width=".5" d="m329.8 595.3c-0.8 0.1-1.3 0.1-2.4 0.4-1 0.2-3.2 1-2.9 1.3-0.4 0.4 1.8 2.3 2.6 3.3 0.8 0.9 2.8 4.1 3.2 4.7 0.4 0.7 1.3 2.7 1.9 3l1.9 1.6c-0.2-0.1 1.7 2.1 2.2 2.3 0.8 1.6 0.4 1 1.7 2.7 1.2 1.7 1.4 3.2 1.4 3.2 0 0 2 3.8 1.7 3.6-0.3-0.2 0.9 0.1 1.2 0.4 0.4 0.3 2.6-1.4 3.3-2.6 0.2-0.4 1.5-1.4 1.9-4 0.4-2.4 0-6.4-0.1-6.8-0.1-0.7-1.9-4.3-2.7-4.8-0.7-0.5-2.3-2.5-2.9-3.2-0.5-0.6-1.8-1.5-2.5-2-0.8-0.4-1.1-0.6-3-1.4-1.7-0.8-3.3-1-4.3-1.3z" />
	<path fill="#999" stroke="#000" stroke-width=".5" d="m322.9 597.9c-0.7 0.1-1.2 0.3-1 1 0.3 0.8 0.7 1.6 0.7 1.6 0 0-1.1-1.1-1.5-0.8-0.4 0.3-1.2 0.6-0.8 0.9 0.2 0.4 1.2 1.5 1.2 1.5 0 0-1.9-1.3-1.5-1-0.5 0.4-0.9 1.4-0.1 2.4 0.9 0.9 3.5 3.9 3.9 4.6 0.4 0.6 1.6 1.5 2.2 1.9 0.7 0.4 3 1.8 2.6 1.6l-1.7-0.4c-0.2-0.1 2.4 2.7 2.9 2.9 0.6-0.4 5.6-1.7 5.3 3.1-0.3 0.9-0.3 1.6-0.3 1.6 0 0 0.9 0.5 1.1 1.1 0.2 0.6 1.2 1.1 1.8 1.4 0.6 0.2 1.7 0.6 1.4 0.4-0.3-0.2 0.9 1.1 1.3 1.4 0.3 0.3 1.5-0.6 0.4-2.4-0.4-0.9-1.7-2.7-1.8-3.5-0.1-0.7-2-3.4-2.8-4.3-0.1-0.5 0.1-0.8-0.6-1.3-0.6-0.5-1.7-1.9-2.3-2.5-0.5-0.7-1.1-1-1.9-1.5-0.8-0.4-5.2-4.5-6.1-6-0.8-0.9 3.9 3.8 4.5 4.3 1 0.7 1.5 0.7 0.2-1.2-0.6-0.9-3.4-5.1-5.7-7.4z" />
	<path fill-rule="evenodd" fill="none" stroke="#000" stroke-linecap="round" stroke-width=".5" d="m320.6 602.7c1.3 0.7 2.7 1.5 3.4 2.8 0.7 1.3 1.5 2 2.6 2.7 1.2 0.6 1.8 0.9 1.8 0.9" />
	<path fill="#000" stroke="#000" stroke-width=".5" d="m318.9 606.9c0.5 1.6 1.1 2.8 2.2 3.9-0.2 0.3-2.8-0.9-4.1-0.8 0 0 0.1-0.9 0.5-1.7 0.5-0.8 1.4-1.4 1.4-1.4z" />
	<path fill="#999" stroke="#000" stroke-width=".5" d="m349.7 678.8c-0.4 0-1.8-0.2-1.8-0.3 0.1-0.8 0-1.4-0.5-2.2-0.6-0.8-1.4-2.6 0.3-3.1 1-0.3 1.2 0.9 1.1 1.4-0.1 0.6 0.2 1.5 0.3 2.5 0 0.9 0.5 1.4 0.4 1.5z" />
	<path fill="#999" stroke="#000" stroke-width=".5" d="m345.5 681.7c0.1 0.2 0.8 0.9 1.8 0.8 0.7-0.3-1.1 1.8-1.8 1.2-0.3-0.8-0.1-2.1 0-2z" />
	<path fill="#999" stroke="#000" stroke-width=".5" d="m349.7 676.5c0.1 0.1 1.5 0.3 1.8 0.4-0.1 0.4-0.1 1.8-0.6 2-1.8 0.8-2-2.4-1.7-2.5z" />
	<path fill="#999" stroke="#000" stroke-width=".5" d="m347.6 673.2l-7.5 0.9c0 0-4.5-0.4-5.2-2.5 0-0.8 0.6-1.8 0.1-1.9-0.6-0.2-1.4-0.4-1.4-0.4l-1.7-0.4c-0.4 0.3 0.1 3 0.3 4 0.3 1.4 0 1.4 0.3 2.2 0.2 0.7 2.1 2 2.7 2.2 1.4 0.6 4.2 2.1 10 6.1 0.1-0.5 0.4-3.9 0.5-4.1-0.2-0.2-1-0.9-1.1-1.7-0.2-1 1.1-2.1 1.7-0.6 0.2 0.7-0.6 2.7 0.5 2.9 1 0.1 1.1-1.3 1.2-1.9 0-0.6-0.5-1.5-0.8-2-0.7-0.9-0.6-2.1-0.2-2.5z" />
	<path fill="#999" stroke="#000" stroke-width=".5" d="m325.2 662.9c-1 0.6-3.4 1-4.8-0.1-1.1-0.8-2.4-2-3.4-1.6-1 0.4-2.1 1.1-2.1 1.1l0.9-3.5c0.4-0.2 1.1-0.8 2-1.5 1.3-1 2.3-0.3 3.4 0.3 1.1 0.7 2.4 1.3 3.1 1.2 0.8-0.1 1.2-1.1 1.8-1l3.5 1c0 0-3.3 3.5-4.4 4.1z" />
	<path fill="#999" stroke="#000" stroke-width=".5" d="m315.3 668.1c-2.3 0.4-4.5 1.9-6.4 2.8 0.7-1.6 0.8-3.3 0.6-4.9 1.1-1.1 2.6-2.7 2.8-3.5 1.1-3.6 3.4-3.6 3.4-3.6-0.6 3.3-1.9 4.5-0.4 9.2z" />
	<path fill="#999" stroke="#000" stroke-width=".5" d="m311.6 673.7c-0.3 0.4-2.1 1-2.9 0.1-0.8-0.8-0.5-1.9 0.1-2.7l3.1-1.7z" />
	<path fill-rule="evenodd" fill="none" stroke="#000" stroke-linecap="round" stroke-width=".5" d="m335.1 607.9c1.2 0.9 2.4 1.9 2.9 3.3 0.5 1.4 1.2 2.2 2.2 3.1q1.5 1.2 1.5 1.2" />
	<path fill-rule="evenodd" fill="none" stroke="#000" stroke-linecap="round" stroke-width=".5" d="m328.9 600.1c1.2 0.9 3.6 1.5 4.2 3.4 0.5 1.4 1.2 2.2 2.2 3 1.1 0.9 1.6 1.3 1.6 1.3" />
	<path fill-rule="evenodd" fill="none" stroke="#000" stroke-linecap="round" stroke-width=".5" d="m328.4 596.8c1.2 0.9 4.3 2.3 4.7 3.6" />
	<path fill-rule="evenodd" fill="none" stroke="#000" stroke-linecap="round" stroke-width=".5" d="m337.9 602.3c0.8 1 1.7 2 2 3.3 0.2 1.2 0.7 2 1.5 2.8q1.1 1.3 1.1 1.3" />
	<path fill="#000" d="m308.2 622.3c0.4 0.1 1.4 1.6 1.7 1.9 0.7 0.6 0.8 0.7 1.6 1 2.3 0.4 2.4 0.3 4.2 0.2 1.4 0 2 0.1 3.5-0.3 1.1-0.3 3-1 3.5-1.4 0.3-0.2 1-1.2 1.2-1.4 0.3-0.4 4.5-10.1 4.7-9.3 0.1 0.3 1.3 0.8 1.2 1.2-0.2 0.5-4.2 8.9-4.5 9.3q-0.4 0.5-0.8 0.8-0.7 0.5-1.4 1.1c-1.1 0.7-4.5 1.8-5.6 2-2.8 0.2-7.4 0.7-10.2 0-0.2-2.2 0.9-5.1 0.9-5.1z" />
	<path fill="#e4d8cc" stroke="#000" stroke-width=".5" d="m255 629c-0.7-1.3-1.4-5.2-2.2-7.1-2.2-0.6-5.9-0.1-8.5-1.5-2.8-1.8 1.1-5.4 0.8-6.7-0.1-0.1-0.7-0.8-0.9-1-0.1-0.5 0.4-1.4 0.7-1.6-0.4-0.3-1-2.1 0.9-2 0.7-0.2 0.8-0.7 1-1.1-0.2-0.1-0.8-0.5-0.9-0.5-1.5-0.9-0.8-1.8 0.3-2.6 0.7-0.5 3.1-2.4 4.4-3.1 0.6-0.3 0.7-0.5 0.8-1.1 0-0.6 0.5-1.4 1-1.8 0.4-0.5 2.2-1.8 2.1-2.2-0.1-0.3 0.4-1.1 0.6-1.2 0.1-0.1 0.3-0.5 0.4-0.6 0.1-0.2 0.4-0.5 0.7-0.6 0.3 0 0.8-0.4 0.7-0.7 0-0.2 0.8-1.2 1.1-1.1 0.3 0 0.8 0.1 1.4-0.3 0.4-0.8 1.5-1.3 2-1.5l1.4-0.5c0.1 0 1.1-0.5 1.7-0.3 0.7 0.1 2.3 0.2 2.3 0.2l1.9 0.4c0 0 0.8 0.1 1.4 0.3 0.5 0.2 2.6 1 2.5 1.1 0.1 0 0.9 0 2 0.7 1 0.7 2 1.8 2.5 1.9 0.5 0.1 0.6 0.8 0.6 0.8 0 0 0.5 0.9 1.1 1.2l1 1.2c0 0 0.9 1.1 1.3 1.6l1.5 2.9c0 0 0.8 0.6 0.5 1.6l0.2 3.8c0 0 0 0.3 0.2 0.8l-0.4 1.8c0 0-0.1 0.2-0.2 0.6-0.1 0.5-0.5 2.2-1.5 2.6 0.1 0.4-0.4 0.8-1.1 1.6-0.8 0.6-2.5 1.4-2.2 1.6 0.3 0.3-0.2 0.2-0.6 0-0.2-0.3-0.7-0.5-0.8 0.1-0.1 0.8 0 1.2-0.8 1.2-0.8-0.1-2.1 1-2.1 1.7l-1.7 0.7c0 0-0.2 0.1 0 0.7 0.1 0.6-0.6 2.1-0.7 2.1-0.1 0.2-0.1 4.5-0.1 4.6-4.4-0.1-12.2 0.4-16.3 1.3z" />
	<path fill="#000" d="m266.8 618.5c-2.3-1.8 4.7-6.1 4.9-5.3 0.1 0.3 4.6 3.4 4.5 3.8-0.2 0.5-1.3 1.4-3.8 5.1-0.7 0.6-2.5-1.4-5.6-3.6z" />
	<path fill="#000" d="m255.8 594.5c0.9-0.4 0.4 0.1 1.2-0.8 0.3-1 0-0.4 0.5-0.8 1.2-0.9 3.7-2.2 5.4-2.8 1.8-0.5 3.7 0 5.7 0.3 1.1 0.3 3.5 0.7 5.7 2.1 1 0.6 2 1.2 3 2.1 1.2 1.2 2.3 2.7 3.3 3.9 0.2 0.3 1.3 2.5 2.4 4.5 0.5 0.8 0.1 2.3 0.2 3.3 0.1 1.5 0.5 2.8-0.5 5-0.6 1.4-0.7 2-1.2 2.1-0.5 2.2-3.3 2.8-4.6 3.6h-0.7c-0.5-1-2.2-2.9-3-3.6-2.1-2.4-2.7-4.9-5.5-5.8-2.5-2.9-9.4-7.2-12.3-9.6-1.4-1.4-1-0.9-0.8-1.7z" />
	<path fill="#999" stroke="#000" stroke-width=".5" d="m265.3 590c-0.8 0.1-1.3 0.1-2.4 0.4-1 0.2-3.2 1.1-2.9 1.3-0.4 0.5 1.8 2.3 2.6 3.3 0.8 1 2.8 4.1 3.2 4.7 0.4 0.7 1.3 2.7 1.9 3l1.9 1.6c-0.2-0.1 1.7 2.1 2.2 2.3 0.8 1.6 0.4 1 1.7 2.7 1.2 1.7 1.4 3.2 1.4 3.2 0 0 2 3.8 1.7 3.6-0.3-0.2 0.9 0.2 1.2 0.4 0.4 0.3 2.6-1.4 3.3-2.6 0.2-0.3 1.5-1.4 1.9-4 0.4-2.4 0-6.4 0-6.7-0.1-0.8-2-4.4-2.8-4.9-0.7-0.5-2.3-2.5-2.9-3.1-0.5-0.7-1.7-1.6-2.5-2.1-0.8-0.4-1.1-0.6-3-1.3-1.7-0.9-3.3-1.1-4.3-1.4z" />
	<path fill="#999" stroke="#000" stroke-width=".5" d="m258.3 592.7c-0.8 0.1-1.3 0.2-1 0.9 0.3 0.8 0.7 1.6 0.7 1.6 0 0-1.1-1.1-1.5-0.8-0.5 0.3-1.2 0.6-0.9 1 0.2 0.3 1.2 1.4 1.2 1.4 0 0-1.8-1.3-1.5-1-0.5 0.4-0.8 1.4 0 2.4 0.8 1 3.4 3.9 3.8 4.6 0.4 0.6 1.6 1.6 2.3 1.9 0.6 0.4 2.9 1.9 2.5 1.6l-1.6-0.4c-0.3-0.1 2.4 2.8 2.9 2.9 0.6-0.4 5.5-1.7 5.3 3.1-0.3 1-0.3 1.6-0.3 1.6 0 0 0.9 0.5 1.1 1.1 0.1 0.6 1.1 1.1 1.7 1.4 0.7 0.3 1.8 0.6 1.4 0.4-0.3-0.2 1.3 1.1 1.6 1.3 0.4 0.3 1.2-0.9 0.2-2.3-0.4-0.8-1.7-2.7-1.8-3.4-0.1-0.8-2.1-3.5-2.8-4.4-0.1-0.5 0-0.8-0.6-1.3-0.7-0.5-1.7-1.9-2.3-2.5-0.6-0.7-1.2-1-1.9-1.4-0.8-0.5-5.3-4.6-6.1-6.1-0.8-0.9 3.9 3.9 4.5 4.3 1 0.8 1.5 0.7 0.1-1.2-0.5-0.8-3.3-5.1-5.7-7.4z" />
	<path fill-rule="evenodd" fill="none" stroke="#000" stroke-linecap="round" stroke-width=".5" d="m255.9 597.4c1.4 0.7 2.7 1.6 3.4 2.8 0.7 1.3 1.6 2 2.7 2.7 1.1 0.6 1.7 1 1.7 1" />
	<path fill="#000" stroke="#000" stroke-width=".5" d="m254.2 601.6c0.6 1.6 1.1 2.9 2.3 3.9-0.2 0.3-2.9-0.9-4.1-0.8 0 0 0-0.9 0.5-1.7 0.4-0.7 1.3-1.4 1.3-1.4z" />
	<path fill="#999" stroke="#000" stroke-width=".5" d="m257.7 635.1c0.3 0 1.7 0.1 1.7 0 0.1-0.8 0.2-1.4 0.9-2.1 0.7-0.7 1.8-2.3 0.2-3.2-0.9-0.4-1.3 0.7-1.3 1.3 0 0.6-0.4 1.5-0.7 2.4-0.2 0.9-0.7 1.3-0.6 1.4z" />
	<path fill="#999" stroke="#000" stroke-width=".5" d="m261.7 638c0 0.1-0.7 0.9-1.7 0.8-0.8-0.4 1.1 1.8 1.7 1.2 0.4-0.8 0.1-2.1 0-2z" />
	<path fill="#999" stroke="#000" stroke-width=".5" d="m258 632.9c-0.2 0-1.5 0-1.8 0-0.1 0.5-0.3 1.8 0.1 2.1 1.6 1.1 2.4-1.9 2.2-2z" />
	<path fill="#999" stroke="#000" stroke-width=".5" d="m262.9 635.2c0.1-0.4 1.5-2.5 0.2-3.2-1.4-1.2-2.6 4.2-2.4 4.3 0 0 1.9-1.1 2.2-1.1z" />
	<path fill="#999" stroke="#000" stroke-width=".5" d="m260.9 629.9l6.9 1.3c0 0 4.8 0.6 5.8-2.9-0.1-1 1.1-4.2 1.1-4.2l1.4 1.5c0.6 1.5-0.4 1.6-0.3 2.2 0.1 0.5 0.6 1.6 0.2 2.9-0.4 1.3-0.4 1.3-0.7 2-0.3 0.8-2.3 1.9-2.9 2-1.5 0.5-4.4 1.7-10.5 5.3-0.1-0.6-0.1-4-0.1-4.2 0.1-0.2 1-0.8 1.2-1.6 0.3-1-0.9-2.2-1.6-0.8-0.4 0.7 0.3 2.8-0.8 2.9-1 0-1-1.4-1-2 0-0.6 0.6-1.5 0.9-1.9 0.8-0.9 0.8-2.1 0.4-2.5z" />
	<path fill="#999" stroke="#000" stroke-width=".5" d="m277.5 617.1c-1.9 0.3 1 2.7-0.4 4.3 0 0 1.2 1.8 1.6 1.7 2.5-1.1 0-6-1.2-6z" />
	<path fill="#999" stroke="#000" stroke-width=".5" d="m275.3 618.9c0.1 0.9 0 1.9-0.4 3-0.3 1.2-0.6 2.9 0.7 4.1 0.9 1 1.7 2.1 1.4 3.1-0.2 1.1-0.7 2.3-0.6 2.3l3.2-1.5c0.2-0.4 0.6-1.2 1.2-2.2 0.7-1.4-0.1-2.4-1-3.3-0.8-1-1.7-2.1-1.7-2.9 0-0.8-0.2-2.2-0.5-2.9-0.2-0.6-2.3 0.3-2.3 0.3z" />
	<path fill="#999" stroke="#000" stroke-width=".5" d="m270.5 632c0 2.4-1 4.8-1.6 6.8 1.5-1 3.2-1.3 4.8-1.4 0.8-1.4 2.2-3 2.9-3.4 3.4-1.7 2.9-4 2.9-4-3.1 1.2-4 2.7-9 2z" />
	<path fill="#999" stroke="#000" stroke-width=".5" d="m265.6 636.6c-0.3 0.4-0.5 2.3 0.4 2.9 1 0.7 2 0.2 2.7-0.6l1.2-3.3z" />
	<path fill-rule="evenodd" fill="none" stroke="#000" stroke-linecap="round" stroke-width=".5" d="m270.5 602.6c1.2 0.9 2.4 2 2.8 3.3 0.5 1.4 1.2 2.3 2.2 3.1 1.1 0.8 1.6 1.2 1.6 1.2" />
	<path fill-rule="evenodd" fill="none" stroke="#000" stroke-linecap="round" stroke-width=".5" d="m264.3 594.9c1.2 0.9 3.5 1.4 4.2 3.3 0.5 1.4 1.2 2.2 2.2 3.1q1.5 1.2 1.5 1.2" />
	<path fill-rule="evenodd" fill="none" stroke="#000" stroke-linecap="round" stroke-width=".5" d="m263.8 591.6c1.2 0.9 4.2 2.2 4.7 3.6" />
	<path fill-rule="evenodd" fill="none" stroke="#000" stroke-linecap="round" stroke-width=".5" d="m273.2 597.1c0.9 0.9 1.8 1.9 2 3.2 0.3 1.2 0.8 2 1.5 2.9q1.2 1.2 1.2 1.2" />
	<path fill="#000" d="m243.6 617c0.4 0.1 1.3 1.6 1.7 2 0.7 0.5 0.8 0.6 1.6 0.9 2.2 0.4 2.3 0.3 4.1 0.2 1.5 0 2 0.1 3.5-0.3 1.2-0.3 3.1-1 3.5-1.3 0.3-0.2 1-1.2 1.3-1.5 0.3-0.4 4.5-10.1 4.6-9.3 0.1 0.4 1.4 0.8 1.2 1.2-0.2 0.5-4.2 8.9-4.5 9.4q-0.3 0.4-0.7 0.7-0.8 0.5-1.5 1.1c-1.1 0.7-4.4 1.8-5.6 2.1-2.7 0.2-7.3 0.6-10.1-0.1-0.2-2.2 0.9-5.1 0.9-5.1z" />
	<path fill-rule="evenodd" fill="none" stroke="#000" stroke-linecap="round" stroke-width=".5" d="m327.3 530.4c0.2 0 0.6 0.9 0.8 1.1 0.1 0.1 0.4 0.3 0.9 0.2 0.9-0.3 2.3-1.6 3.2-1.7 1.2 0.1 2.2-0.4 2.7-0.6" />
	<path fill-rule="evenodd" fill="none" stroke="#000" stroke-linecap="round" stroke-width=".5" d="m327 619.8c0.2 0.1 0.6 0.9 0.8 1.1 0.1 0.2 0.4 0.3 0.9 0.3 0.9-0.3 2.3-1.6 3.2-1.8 1.2 0.1 2.2-0.3 2.7-0.6" />
	<path fill-rule="evenodd" fill="none" stroke="#000" stroke-linecap="round" stroke-width=".5" d="m262.7 614.5c0.1 0.1 0.5 1 0.7 1.2 0.2 0.1 0.5 0.2 1 0.2 0.9-0.3 2.3-1.6 3.1-1.8 1.3 0.2 2.3-0.3 2.7-0.5" />
	<path fill-rule="evenodd" fill="none" stroke="#010101" stroke-linecap="round" stroke-miterlimit="4.0999999" stroke-width=".5" d="m331.7 527.4c0.1 0 0.2 0.1 0.2 0.2q0 0.2 0 0.4c0 0.1-0.1 0.3-0.1 0.4q-0.2 0.1-0.4 0.2c-0.1 0-0.2 0-0.3 0-0.2 0-0.3 0.1-0.4 0.1-0.1 0-0.2 0-0.3 0-0.1 0.1-0.2 0.1-0.3 0.2q-0.1 0.1-0.2 0.3-0.2 0.2-0.3 0.4c-0.1 0-0.2 0-0.3 0q-0.2-0.1-0.4-0.2c0-0.1-0.1-0.2-0.1-0.3q0-0.1 0.1-0.2" />
	<path fill="#000" d="m330.2 525.9c1.1-0.6 5.5-0.3 2.8 2.5-0.3 0.2-0.1 0.5 0.2 0.3 3-3.3-1.8-3.8-2.9-3.2-0.5 0.3-0.1 0.4-0.1 0.4z" />
	<path fill-rule="evenodd" fill="none" stroke="#010101" stroke-linecap="round" stroke-miterlimit="4.0999999" stroke-width=".5" d="m331.9 616.7c0 0.1 0.1 0.1 0.1 0.2q0.1 0.3 0.1 0.4c-0.1 0.2-0.1 0.3-0.2 0.4q-0.1 0.1-0.3 0.2c-0.2 0-0.3 0-0.4 0.1-0.1 0-0.3 0-0.4 0-0.1 0-0.2 0-0.3 0-0.1 0.1-0.1 0.1-0.2 0.2-0.1 0.1-0.2 0.2-0.3 0.3q-0.1 0.2-0.2 0.4c-0.2 0-0.2 0.1-0.4 0q-0.2 0-0.3-0.1c-0.1-0.1-0.1-0.3-0.2-0.4q0.1-0.1 0.1-0.2" />
	<path fill="#000" d="m330.3 615.2c1.1-0.6 5.5-0.3 2.9 2.5-0.4 0.2-0.1 0.6 0.1 0.4 3-3.3-1.7-3.9-2.9-3.3-0.5 0.3-0.1 0.4-0.1 0.4z" />
	<path fill-rule="evenodd" fill="none" stroke="#010101" stroke-linecap="round" stroke-miterlimit="4.0999999" stroke-width=".5" d="m267.2 611.8c0.1 0 0.2 0.1 0.2 0.2q0 0.2 0 0.4c0 0.1-0.1 0.2-0.1 0.3q-0.2 0.2-0.4 0.2c-0.1 0.1-0.2 0.1-0.3 0.1-0.2 0-0.3 0-0.4 0-0.1 0-0.2 0-0.3 0.1-0.1 0-0.2 0-0.2 0.1q-0.2 0.2-0.3 0.4-0.2 0.1-0.3 0.3c-0.1 0.1-0.2 0.1-0.3 0q-0.2 0-0.4-0.1c0-0.1-0.1-0.2-0.1-0.4q0.1 0 0.1-0.1" />
	<path fill="#000" d="m265.7 610.2c1.1-0.5 5.5-0.2 2.8 2.5-0.3 0.2-0.1 0.6 0.2 0.4 3-3.3-1.8-3.9-2.9-3.2-0.5 0.3-0.1 0.4-0.1 0.3z" />
	<path fill="#999" stroke="#000" stroke-width=".5" d="m333.5 549.5c-0.2 0.4-0.3 1.7 0.1 1.8 0.7 0.3 2.3 2.5 3.5 2 1.4-0.5 6.4-2.6 6.4-3.7 0-0.6 4.8-4.5 6.4-7.7 0.8-1.4 2-6.8-0.5-8.2-2.5-1.4-6.6-1.8-6.8-1.3-0.3 0.6-0.2-0.2-1.9 3.7-1.1 2.5-4.2 10.1-5.1 10.9-1.2 1-1.8 2.1-2.1 2.5z" />
	<path fill-rule="evenodd" fill="none" stroke="#000" stroke-width=".5" d="m343.7 536.1c-0.1-0.7-0.9-2.5-1.6-3-0.8-0.5-0.8-0.5-0.8-0.5" />
	<path fill="#999" stroke="#000" stroke-width=".5" d="m341.6 532.4c0.1-0.6 0.4-0.5 0.8 0.1 0.6 1-0.8 2.1-2 1.8-0.7 0-0.6-0.9 0.4-0.7 0.8 0.2 0.9-1.2 0.8-1.2h0.1z" />
	<path fill="#999" stroke="#000" stroke-width=".5" d="m340.8 623.9c0.7 0.5 1.5 1.2 2.2 2.2 0.6 1 1.9 2.3 3.6 2 1.4-0.1 2.7-0.1 3.4 0.8 0.6 0.8 1.3 2 1.3 1.9l0.8-3.5c-0.2-0.3-0.5-1.2-1-2.2-0.6-1.5-1.9-1.4-3.2-1.3-1.2 0-2.7 0-3.3-0.5-0.6-0.4-1.9-1.1-2.6-1.3-0.6-0.2-1.2 1.9-1.2 1.9z" />
	<path fill="#999" stroke="#000" stroke-width=".5" d="m352.5 641.5c1-0.4 1-3.5 1.9-4.9-0.6-1.4-1-3.5-0.9-4.3 0.8-3.8-1.3-4.8-1.3-4.8-0.6 1.7-4.2 8.4-4.2 9.6-0.1 2.6 3.9 3.6 4.5 4.4z" />
	<path fill="#999" stroke="#000" stroke-width=".5" d="m341.5 622c0.1-0.6 0.4-0.5 0.8 0.1 0.6 1-0.8 2.1-2 1.8-0.7 0-0.6-0.8 0.3-0.7 0.9 0.2 0.9-1.2 0.9-1.2v0.1z" />
	<path fill="#999" stroke="#000" stroke-width=".5" d="m276.9 616.8c0.1-0.7 0.4-0.5 0.8 0 0.6 1.1-0.8 2.1-2 1.9-0.7-0.1-0.6-0.9 0.4-0.8 0.8 0.2 0.8-1.2 0.8-1.1h0.1z" />
	<path fill="#000" d="m316.8 528.9q1 0 1.9 0c2.8 0-0.6 0 0-0.1 0.7 0 1.3-0.3 1.9-0.5l2.4-0.8c-0.6 0.3-1.4 1.6-2.2 1.6-1.3 0.3-2.8 0.1-4.2 0.1q-0.9 0-1.9 0z" />
	<path fill="#000" d="m252.9 613.3q0.9 0 1.9 0c2.7-0.1-0.7 0 0-0.1 0.7-0.1 1.3-0.1 1.9-0.3l2.4-0.6c-0.6 0.4-1.5 1.2-2.2 1.2-1.4 0.2-2.8 0-4.2 0.1q-1 0-1.9 0z" />
	<path fill="#000" d="m317.3 619.2q0.9 0 1.9 0c2.7 0-0.7 0 0-0.1 0.6 0 1.3 0 1.9-0.3l2.4-0.5c-0.6 0.4-1.5 1.1-2.2 1.1-1.4 0.3-2.8 0.1-4.2 0.1q-1 0-2 0.1z" />
	<path fill="#008f4c" stroke="#000" stroke-width=".5" d="m273.1 393.6q-1.5-0.4-3-0.9c-1.5-0.4-3.1-0.3-4.2 0-1.4 0.4-0.9 3-0.9 4.2 0 1.9 4.3 1.9 5.7 1.9 2 0 2.6 0 3.6-1 1-0.9-0.9-3.8-1.2-4.2z" />
	<path fill="#008f4c" stroke="#000" stroke-width=".5" d="m278.7 404.6c0.4-0.4-2.9 0-6.1 0-1.9 0-1.8 2.7-1.5 3.9 0.3 1.2 4.7 1.5 5.8 1.2 2.1-0.5 1.9-1.6 3-3 0.9-1.2 0.4-1.1-1.2-2.1z" />
	<path fill="#008f4c" stroke="#000" stroke-width=".5" d="m268.1 392.6c-0.5-0.6-0.7-1.8-0.4-2.9 0.2-0.8 1.1-0.9 1.9-0.9 1.4 0 3 0 4.2 0.3 1.2 0.3 2.7 0.1 3.5 0.3 0.8 0.2 1 0.4 1.4 1.1 0.3 0.7 0.3 1.9 0.3 2.8 0 0.7-0.1 1.6-0.2 2.1-0.1 0.4-1.9 0.2-2.2 0.2-0.9 0-1.7 0-2.5-0.2-0.4-0.1-0.9-0.9-1-1.2-0.2-0.5-1-0.6-1.5-0.9-0.6-0.3-1.4-0.3-2-0.6-0.4-0.2-0.9-0.1-1.5-0.1z" />
	<path fill="#008f4c" stroke="#000" stroke-width=".5" d="m297.8 407.5c-0.5-0.2-2.8 0.1-4.1 0.4-1.4 0.5-1.4 2-1.2 3.2 0.2 0.9 2.1 1 2.7 1.2 1 0.3 1.8 0.2 2.6 0.8 1 0.7 2.2 1.3 3.6 1.3 2.6 0 2-0.5 3-2.2 0.3-0.6 1.7-1.1 2.1-1.6 0.9-0.8-0.1-1.8-0.6-2.2-0.5-0.6-1.9-0.8-2.5-0.9-0.9-0.2-1.9-0.2-2.9-0.2-0.9 0-1.8 0-2.7 0.2z" />
	<path fill="#008f4c" stroke="#000" stroke-width=".5" d="m322.8 402.1c-1.5-0.4-4.7-0.2-6.8-0.2-1 0-1.8 0.6-1.8 1.5 0 1.6 0.5 1.8 2 2.1 1.2 0.3 2 0.3 3 0.8 0.8 0.4 2 0.4 2.9 0.4 1 0 1.6-0.5 2.2-1.2 0.7-0.6 0-1.7-0.1-2.4-0.2-0.7-0.6-0.9-1.4-1z" />
	<path fill="#008f4c" stroke="#000" stroke-width=".5" d="m325.8 400.9c-0.1-1-4.4 2.3-6.7 0.6-1.1-0.8-1-1.9-2-2.9-0.7-0.7 1-2 1.4-2.1 0.6-0.3 1.4-0.7 2.1-1.1 0.5-0.3 2.7-0.7 3.3-0.6 0.9 0.3 2.1 1.4 3 1.8 1 0.6 0.4 2.1 0.4 3.1 0 0.4-0.9 0.9-1.5 1.2z" />
	<path fill="#008f4c" stroke="#000" stroke-width=".5" d="m327.8 395.7c0 0.4-3.3-1.7-3.8-1.9-0.9-0.5-0.5-1.3-0.3-2 0.6-1.4 1.4-1.3 3.3-1.3 1.6 0 2.1 0.6 2.6-0.9 0.5-1.5 0.9-1.6 2.4-2.1 0.6-0.3 1.9 0 2.6 0 1.1 0 1.1 1.6 0.9 2.4-0.3 1.1-0.6 1.7-1.4 2.5-0.5 0.5-1 0.9-1.3 1.5-0.3 0.6-1.3 0.9-1.8 1.1-1.3 0.3-2 0.4-3.2 0.7z" />
	<path fill="#008f4c" stroke="#000" stroke-width=".5" d="m331.1 395.7c-0.8 0.2 1.6-0.8 2.4-0.6 0.9 0.2 1.3 0.7 1.8 1.2 0.6 0.6 0.6 1.7 0.8 2.5 0.1 0.6 0.8 0.8 0.6 1.8-0.2 0.8-1.6 0.7-2.3 0.7-1.1 0-2.1-0.1-3.3-0.1-0.7 0-1.7-0.3-2.3-0.5-0.7-0.2-1-0.9-1-1.6 0-1-0.3-1.9 0.3-2.6 0.1-0.2 3.3-0.7 3-0.8z" />
	<path fill="#008f4c" stroke="#000" stroke-width=".5" d="m327.6 406c0-0.3 4.7 0.8 5.8 1 0.9 0.2 1.8 0.7 2.2 1.5 0.6 1.1-0.4 2.1-1.2 2.1-1.6 0-2.2-0.2-3.7-0.6-1-0.2-2.1-0.4-3.1-0.7-1.6-0.6-1.4-0.5-1-2.1 0.1-0.3 1-1.2 1-1.2z" />
	<path fill="#008f4c" stroke="#000" stroke-width=".5" d="m286.5 405.6c0.4-0.4-2.9 0-6 0-1.9 0-1.8 2.7-1.5 4 0.3 1.2 4.7 1.5 5.7 1.2 2.1-0.5 2-1.6 3-3.1 0.9-1.2 0.5-1.1-1.2-2.1z" />
	<path fill="#008f4c" stroke="#000" stroke-width=".5" d="m279.1 408.9c0.4-0.4-2.9 0-6 0-1.9 0-1.8 2.7-1.5 3.9 0.3 1.2 4.7 1.5 5.7 1.2 2.1-0.5 2-1.6 3-3 0.9-1.2 0.5-1.1-1.2-2.1z" />
	<path fill="#008f4c" stroke="#000" stroke-width=".5" d="m270.7 412.5c0.4-0.4-2.9 0-6 0-1.9 0-1.9 2.7-1.5 3.9 0.3 1.2 4.7 1.5 5.7 1.2 2.1-0.5 2-1.6 3-3 0.9-1.2 0.4-1.1-1.2-2.1z" />
	<path fill="#008f4c" stroke="#000" stroke-width=".5" d="m306 392.6c0.4-0.4-2.9 0-6.1 0-1.9 0-1.8 2.7-1.5 3.9 0.3 1.2 4.7 1.5 5.7 1.2 2.2-0.5 2-1.6 3.1-3 0.9-1.2 0.4-1.1-1.2-2.1z" />
	<path fill="#008f4c" stroke="#000" stroke-width=".5" d="m287.7 384.3c0.4-0.4-2.9 0-6 0-1.9 0-1.8 2.7-1.5 4 0.3 1.1 4.7 1.4 5.7 1.2 2.1-0.6 2-1.7 3-3.1 0.9-1.2 0.5-1.1-1.2-2.1z" />
	<path fill="#008f4c" stroke="#000" stroke-width=".5" d="m321.8 408.3c0.4-0.4-2.9 0-6.1 0-1.9 0-1.8 2.7-1.5 3.9 0.3 1.2 4.7 1.5 5.8 1.2 2.1-0.5 1.9-1.6 3-3 0.9-1.2 0.4-1.1-1.2-2.1z" />
	<path fill="#008f4c" stroke="#000" stroke-width=".5" d="m245 397.8c-0.5-0.1-1.7 0-2.6 0.2-0.8 0.2-1.1 0.5-1.7 0.7-0.6 0.1-1.1 0.8-1.4 1.1-0.5 0.6-0.6 0.3 1.1 0.9 0.8 0.3 1.3 0.7 1.7 0.8 0.7 0.1 1.1 0 2.1 0 0.7 0 1.6-0.1 2.1-0.3 0.9-0.5 0.9-0.8 0.9-1.8 0-1.1-0.3-1.2-1.1-1.6-0.2-0.1-0.9 0-1.1 0z" />
	<path fill="#008f4c" stroke="#000" stroke-width=".5" d="m246.8 400.6c-0.5-0.2-1.7-0.1-2.5 0.1-0.8 0.2-1.2 0.5-1.8 0.7-0.6 0.1-1 0.8-1.3 1.1-0.6 0.6-0.7 0.3 1 0.9 0.9 0.3 1.3 0.7 1.8 0.8 0.6 0.1 1.1 0 2 0 0.7 0 1.7-0.1 2.1-0.3 0.9-0.5 0.9-0.8 0.9-1.8 0-1.1-0.3-1.2-1-1.5-0.3-0.2-0.9 0-1.2 0z" />
	<path fill="#008f4c" stroke="#000" stroke-width=".5" d="m248.6 403.6c-0.5-0.2-1.7-0.1-2.5 0.1-0.8 0.2-1.1 0.5-1.7 0.7-0.7 0.2-1.1 0.8-1.4 1.1-0.6 0.6-0.7 0.3 1.1 0.9 0.8 0.3 1.3 0.7 1.7 0.8 0.6 0.1 1.1 0 2 0 0.7 0 1.7-0.1 2.1-0.3 0.9-0.5 0.9-0.7 0.9-1.8 0-1.1-0.3-1.2-1-1.5-0.2-0.1-0.9 0-1.2 0z" />
	<path fill="#008f4c" stroke="#000" stroke-width=".5" d="m251.2 406.7c-0.5-0.1-1.7 0-2.6 0.2-0.7 0.2-1.1 0.5-1.7 0.7-0.6 0.1-1 0.8-1.3 1.1-0.6 0.6-0.7 0.3 1 0.9 0.8 0.3 1.3 0.6 1.7 0.7 0.7 0.2 1.1 0 2.1 0 0.7 0 1.7 0 2.1-0.3 0.9-0.4 0.9-0.7 0.9-1.8 0-1-0.3-1.1-1.1-1.5-0.2-0.1-0.8 0-1.1 0z" />
	<path fill="#008f4c" stroke="#000" stroke-width=".5" d="m255.1 409.3c-0.5 0-1.7 0.2-2.5 0.6-0.7 0.3-1 0.7-1.6 0.9-0.6 0.3-0.9 1-1.2 1.3-0.4 0.7-0.6 0.4 1.2 0.8 0.9 0.1 1.4 0.4 1.9 0.4 0.6 0.1 1-0.1 2-0.3 0.7-0.1 1.6-0.3 2-0.6 0.8-0.6 0.8-0.9 0.6-2-0.1-1-0.4-1-1.3-1.3-0.2 0-0.8 0.2-1.1 0.2z" />
	<path fill="#008f4c" stroke="#000" stroke-width=".5" d="m330.7 392.6c0.5-0.2 1.7-0.1 2.6 0.1 0.8 0.2 1.1 0.6 1.7 0.7 0.6 0.2 1 0.8 1.3 1.1 0.6 0.6 0.7 0.3-1 0.9-0.8 0.3-1.3 0.7-1.7 0.8-0.7 0.2-1.1 0-2.1 0-0.7 0-1.7-0.1-2.1-0.3-0.9-0.5-0.9-0.7-0.9-1.8 0-1 0.3-1.1 1.1-1.5 0.2-0.1 0.8 0 1.1 0z" />
	<path fill="#008f4c" stroke="#000" stroke-width=".5" d="m246.7 390.6c-0.5-0.1-1.7 0-2.6 0.2-0.8 0.2-1.1 0.5-1.7 0.6-0.6 0.2-1.1 0.9-1.4 1.2-0.5 0.6-0.6 0.2 1.1 0.9 0.8 0.3 1.3 0.6 1.7 0.7 0.7 0.2 1.1 0 2.1 0 0.7 0 1.6-0.1 2.1-0.3 0.9-0.4 0.9-0.7 0.9-1.8 0-1-0.3-1.1-1.1-1.5-0.2-0.1-0.9 0-1.1 0z" />
	<path fill="#008f4c" stroke="#000" stroke-width=".5" d="m249.3 387.6c-0.5-0.2-1.7-0.3-2.5-0.2-0.9 0-1.2 0.3-1.9 0.4-0.6 0-1.1 0.6-1.5 0.9-0.6 0.5-0.7 0.2 0.9 1.1 0.8 0.4 1.2 0.8 1.6 1 0.7 0.2 1.1 0.1 2.1 0.2 0.7 0.2 1.6 0.2 2.1 0.1 0.9-0.3 1-0.6 1.2-1.7 0.1-1-0.2-1.1-0.9-1.6-0.2-0.2-0.8-0.2-1.1-0.2z" />
	<path fill="#008f4c" stroke="#000" stroke-width=".5" d="m253.8 385.1c-0.4-0.3-1.6-0.5-2.5-0.5-0.8 0-1.2 0.3-1.8 0.3-0.7 0-1.2 0.5-1.6 0.8-0.7 0.4-0.7 0.1 0.8 1.1 0.7 0.5 1.1 0.9 1.5 1.1 0.6 0.4 1.1 0.3 2 0.5 0.7 0.2 1.6 0.3 2.1 0.2 1-0.2 1.1-0.5 1.3-1.5 0.3-1 0-1.2-0.7-1.7-0.2-0.2-0.8-0.2-1.1-0.3z" />
	<path fill="#008f4c" stroke="#000" stroke-width=".5" d="m257.9 411.4c-0.5 0-1.6 0.4-2.4 0.8-0.7 0.4-1 0.8-1.5 1.1-0.6 0.3-0.8 1.1-1.1 1.4-0.4 0.8-0.6 0.5 1.3 0.7 0.9 0 1.4 0.2 1.9 0.2 0.6 0 1-0.2 1.9-0.5 0.7-0.1 1.6-0.5 2-0.8 0.7-0.6 0.7-0.9 0.4-2-0.2-1-0.5-1-1.4-1.2-0.2 0-0.8 0.3-1.1 0.3z" />
	<path fill="#008f4c" stroke="#000" stroke-width=".5" d="m258.7 414.1c-0.5 0-1.7 0.4-2.4 0.8-0.8 0.4-1 0.8-1.5 1.1-0.6 0.3-0.8 1-1.1 1.4-0.4 0.7-0.6 0.4 1.3 0.6 0.8 0.1 1.4 0.3 1.8 0.3 0.7 0 1.1-0.2 2-0.5 0.7-0.2 1.6-0.5 2-0.8 0.7-0.7 0.7-0.9 0.4-2-0.3-1-0.6-1-1.4-1.2-0.2 0-0.8 0.2-1.1 0.3z" />
	<path fill="#008f4c" stroke="#000" stroke-width=".5" d="m285.5 420.4c-0.5 0-1.6 0.4-2.4 0.8-0.7 0.4-1 0.8-1.5 1.1-0.6 0.3-0.8 1.1-1 1.4-0.5 0.8-0.6 0.5 1.2 0.7 0.9 0 1.4 0.3 1.9 0.3 0.7-0.1 1-0.3 1.9-0.6 0.7-0.1 1.6-0.5 2-0.8 0.8-0.6 0.7-0.9 0.4-2-0.2-1-0.5-1-1.4-1.1-0.2-0.1-0.8 0.2-1.1 0.2z" />
	<path fill="#008f4c" stroke="#000" stroke-width=".5" d="m280.1 419.5c-0.5 0-1.7 0.4-2.4 0.8-0.8 0.4-1 0.8-1.5 1.1-0.6 0.3-0.8 1.1-1.1 1.4-0.4 0.8-0.6 0.5 1.3 0.7 0.8 0 1.4 0.3 1.8 0.2 0.7 0 1.1-0.2 2-0.5 0.7-0.1 1.6-0.5 2-0.8 0.7-0.6 0.7-0.9 0.4-2-0.3-1-0.6-1-1.4-1.2-0.2 0-0.8 0.3-1.1 0.3z" />
	<path fill="#008f4c" stroke="#000" stroke-width=".5" d="m275 418.6c-0.5 0-1.7 0.4-2.5 0.8-0.7 0.4-0.9 0.8-1.5 1.1-0.5 0.3-0.8 1.1-1 1.4-0.4 0.8-0.6 0.5 1.3 0.7 0.8 0 1.4 0.2 1.8 0.2 0.7 0 1.1-0.2 2-0.5 0.7-0.1 1.6-0.5 2-0.8 0.7-0.6 0.6-0.9 0.4-2-0.3-1-0.6-1-1.4-1.2-0.3 0-0.9 0.3-1.1 0.3z" />
	<path fill="#008f4c" stroke="#000" stroke-width=".5" d="m271.8 415.9c-0.5 0-1.7 0.4-2.4 0.8-0.7 0.4-1 0.8-1.5 1.1-0.6 0.3-0.8 1.1-1.1 1.4-0.4 0.7-0.6 0.5 1.3 0.6 0.9 0.1 1.4 0.3 1.9 0.3 0.6 0 1-0.2 1.9-0.5 0.7-0.2 1.6-0.5 2-0.8 0.7-0.7 0.7-0.9 0.4-2-0.2-1-0.5-1-1.4-1.2-0.2 0-0.8 0.3-1.1 0.3z" />
	<path fill="#008f4c" stroke="#000" stroke-width=".5" d="m262.2 414.5c-0.5 0.2-1.3 1.1-1.8 1.8-0.5 0.7-0.5 1.1-0.9 1.6-0.3 0.6-0.2 1.3-0.3 1.8 0 0.8-0.3 0.6 1.4 0 0.8-0.3 1.4-0.4 1.8-0.6 0.6-0.3 0.9-0.7 1.6-1.3 0.5-0.5 1.2-1.2 1.4-1.6 0.3-1 0.2-1.2-0.5-2-0.7-0.8-1-0.7-1.8-0.4-0.3 0-0.7 0.5-0.9 0.7z" />
	<path fill="#008f4c" stroke="#000" stroke-width=".5" d="m331.9 404.8c0.5-0.2 1.7-0.1 2.6 0.1 0.8 0.2 1.1 0.6 1.7 0.7 0.6 0.2 1 0.8 1.3 1.1 0.6 0.6 0.7 0.3-1 0.9-0.8 0.3-1.3 0.7-1.7 0.8-0.7 0.2-1.1 0-2.1 0-0.7 0-1.6-0.1-2.1-0.3-0.9-0.5-0.9-0.7-0.9-1.8 0-1.1 0.3-1.1 1.1-1.5 0.2-0.1 0.8 0 1.1 0z" />
	<path fill="#008f4c" stroke="#000" stroke-width=".5" d="m331.5 408.5c0.6 0 1.7 0.5 2.4 0.9 0.7 0.5 0.9 0.9 1.4 1.2 0.6 0.4 0.8 1.1 0.9 1.5 0.4 0.8 0.6 0.5-1.2 0.6-0.9 0-1.5 0.1-1.9 0.1-0.7 0-1.1-0.3-2-0.6-0.6-0.3-1.5-0.7-1.9-1-0.7-0.7-0.6-1-0.2-2 0.3-1 0.6-1 1.5-1.1 0.2 0 0.8 0.3 1 0.4z" />
	<path fill="#008f4c" stroke="#000" stroke-width=".5" d="m296.2 419.9c0.5 0.1 1.5 0.7 2.2 1.3 0.6 0.6 0.8 1 1.2 1.4 0.5 0.5 0.5 1.3 0.7 1.7 0.2 0.8 0.5 0.5-1.4 0.3-0.9-0.1-1.4-0.1-1.9-0.2-0.6-0.1-0.9-0.5-1.8-0.9-0.6-0.4-1.4-0.9-1.7-1.3-0.6-0.8-0.4-1.1 0.1-2 0.5-0.9 0.8-0.9 1.6-0.8 0.3 0 0.8 0.4 1 0.5z" />
	<path fill="#008f4c" stroke="#000" stroke-width=".5" d="m329.3 411.7c0.5-0.1 1.7-0.1 2.6 0.2 0.8 0.1 1.1 0.5 1.7 0.6 0.7 0.2 1.1 0.8 1.4 1.2 0.6 0.5 0.7 0.2-1.1 0.9-0.8 0.3-1.3 0.6-1.7 0.7-0.7 0.2-1.1 0-2 0-0.8 0-1.7-0.1-2.1-0.3-0.9-0.4-0.9-0.7-0.9-1.8 0-1 0.2-1.1 1-1.5 0.2-0.1 0.9 0 1.1 0z" />
	<path fill="#008f4c" stroke="#000" stroke-width=".5" d="m325.1 413.2c0.5 0.1 1.6 0.5 2.4 1 0.6 0.4 0.9 0.9 1.4 1.2 0.5 0.4 0.7 1.1 0.9 1.5 0.3 0.8 0.6 0.5-1.3 0.5-0.9 0-1.4 0.2-1.9 0.2-0.7-0.1-1-0.4-1.9-0.7-0.7-0.2-1.6-0.6-1.9-1-0.7-0.7-0.6-1-0.3-2 0.4-0.9 0.7-0.9 1.5-1.1 0.3 0 0.9 0.3 1.1 0.4z" />
	<path fill="#008f4c" stroke="#000" stroke-width=".5" d="m322.1 415.4c0.5 0.1 1.6 0.5 2.3 1 0.7 0.5 0.9 0.9 1.5 1.2 0.5 0.4 0.7 1.1 0.9 1.5 0.3 0.8 0.5 0.5-1.3 0.5-0.9 0.1-1.5 0.2-1.9 0.2-0.7-0.1-1-0.4-1.9-0.7-0.7-0.2-1.6-0.6-1.9-1-0.7-0.7-0.6-0.9-0.3-2 0.3-0.9 0.7-0.9 1.5-1 0.2-0.1 0.8 0.3 1.1 0.3z" />
	<path fill="#008f4c" stroke="#000" stroke-width=".5" d="m316.6 415.9c0.6 0 1.7 0.5 2.4 1 0.7 0.4 0.9 0.8 1.4 1.2 0.6 0.3 0.7 1.1 0.9 1.5 0.4 0.7 0.6 0.5-1.3 0.5-0.8 0-1.4 0.2-1.8 0.1-0.7 0-1.1-0.3-2-0.6-0.6-0.3-1.5-0.7-1.9-1-0.6-0.7-0.6-1-0.2-2 0.3-1 0.6-1 1.5-1.1 0.2 0 0.8 0.3 1 0.4z" />
	<path fill="#008f4c" stroke="#000" stroke-width=".5" d="m313.8 418.1c0.5 0.1 1.6 0.5 2.3 1 0.7 0.5 0.9 0.9 1.5 1.2 0.5 0.4 0.7 1.2 0.9 1.5 0.3 0.8 0.5 0.5-1.3 0.6-0.9 0-1.5 0.1-1.9 0.1-0.7-0.1-1-0.4-1.9-0.7-0.7-0.2-1.6-0.6-1.9-0.9-0.7-0.8-0.6-1-0.3-2 0.4-1 0.7-1 1.5-1.1 0.3-0.1 0.8 0.3 1.1 0.3z" />
	<path fill="#008f4c" stroke="#000" stroke-width=".5" d="m301.6 420c0.5 0 1.6 0.5 2.3 0.9 0.7 0.5 0.9 0.9 1.5 1.2 0.5 0.4 0.7 1.2 0.9 1.6 0.3 0.7 0.5 0.4-1.3 0.5-0.9 0-1.5 0.1-1.9 0.1-0.7-0.1-1-0.4-1.9-0.7-0.7-0.2-1.6-0.6-1.9-0.9-0.7-0.7-0.6-1-0.3-2 0.4-1 0.7-1 1.5-1.1 0.3-0.1 0.8 0.3 1.1 0.4z" />
	<path fill="#008f4c" stroke="#000" stroke-width=".5" d="m308.9 416.7c0.5 0.2 1.3 1.1 1.8 1.8 0.5 0.7 0.5 1.2 0.8 1.7 0.4 0.6 0.2 1.3 0.2 1.8 0.1 0.8 0.4 0.6-1.3-0.1-0.8-0.3-1.4-0.4-1.8-0.6-0.6-0.4-0.8-0.8-1.5-1.4-0.5-0.5-1.2-1.2-1.3-1.7-0.4-0.9-0.2-1.1 0.5-1.9 0.7-0.8 1-0.6 1.8-0.4 0.3 0.1 0.7 0.6 0.8 0.8z" />
	<path fill="#008f4c" stroke="#000" stroke-width=".5" d="m305.7 417.8c0.4 0.3 1.3 1.1 1.7 1.9 0.5 0.7 0.5 1.1 0.8 1.6 0.4 0.6 0.3 1.4 0.3 1.8 0 0.8 0.3 0.7-1.4-0.1-0.8-0.3-1.4-0.4-1.8-0.6-0.6-0.3-0.8-0.7-1.5-1.4-0.5-0.5-1.2-1.2-1.3-1.6-0.4-1-0.2-1.2 0.5-2 0.7-0.7 1-0.6 1.8-0.4 0.3 0.1 0.7 0.6 0.9 0.8z" />
	<path fill="#008f4c" stroke="#000" stroke-width=".5" d="m332.8 401.3c0.5-0.1 1.7-0.1 2.6 0.2 0.8 0.2 1.1 0.5 1.7 0.6 0.6 0.2 1 0.9 1.4 1.2 0.5 0.5 0.6 0.2-1.1 0.9-0.8 0.3-1.3 0.6-1.7 0.7-0.7 0.2-1.1 0-2.1 0-0.7 0-1.6-0.1-2.1-0.3-0.9-0.4-0.9-0.7-0.9-1.8 0-1 0.3-1.1 1.1-1.5 0.2-0.1 0.8 0 1.1 0z" />
	<path fill="#008f4c" stroke="#000" stroke-width=".5" d="m242.9 394.2c-0.5-0.1-1.7 0-2.5 0.2-0.8 0.2-1.2 0.5-1.8 0.7-0.6 0.1-1 0.8-1.3 1.1-0.6 0.6-0.7 0.3 1 0.9 0.8 0.3 1.3 0.6 1.8 0.7 0.6 0.2 1 0 2 0 0.7 0 1.7 0 2.1-0.3 0.9-0.4 0.9-0.7 0.9-1.8 0-1-0.3-1.1-1-1.5-0.3-0.1-0.9 0-1.2 0z" />
	<path fill="#008f4c" stroke="#000" stroke-width=".5" d="m247.4 394.2c-0.5-0.1-1.7 0-2.5 0.2-0.8 0.2-1.2 0.5-1.8 0.7-0.6 0.1-1 0.8-1.3 1.1-0.6 0.6-0.7 0.3 1 0.9 0.9 0.3 1.4 0.6 1.8 0.7 0.6 0.2 1.1 0 2 0 0.7 0 1.7 0 2.1-0.3 0.9-0.4 0.9-0.7 0.9-1.8 0-1-0.3-1.1-1-1.5-0.3-0.1-0.9 0-1.2 0z" />
	<path fill="#008f4c" stroke="#000" stroke-width=".5" d="m283.3 390.8c0.3-0.3-2.3 0-4.7 0-1.5 0-1.4 2.2-1.2 3.2 0.2 1 3.7 1.2 4.5 1 1.6-0.4 1.5-1.3 2.3-2.5 0.8-0.9 0.4-0.9-0.9-1.7z" />
	<path fill="#008f4c" stroke="#000" stroke-width=".5" d="m287.1 392.1c-0.5-0.1-1.7 0-2.6 0.2-0.8 0.2-1.1 0.5-1.7 0.6-0.6 0.2-1.1 0.9-1.4 1.2-0.6 0.6-0.7 0.2 1.1 0.9 0.8 0.3 1.3 0.6 1.7 0.7 0.7 0.2 1.1 0 2 0 0.8 0 1.7 0 2.2-0.3 0.8-0.4 0.9-0.7 0.9-1.8 0-1-0.3-1.1-1.1-1.5-0.2-0.1-0.9 0-1.1 0z" />
	<path fill="#008f4c" stroke="#000" stroke-width=".5" d="m286.9 388.5c-0.5-0.1-1.7-0.1-2.5 0.2-0.8 0.2-1.2 0.5-1.8 0.6-0.6 0.2-1 0.9-1.3 1.2-0.6 0.5-0.7 0.2 1 0.9 0.8 0.3 1.3 0.6 1.8 0.7 0.6 0.2 1 0 2 0 0.7 0 1.7-0.1 2.1-0.3 0.9-0.4 0.9-0.7 0.9-1.8 0-1-0.3-1.1-1-1.5-0.3-0.1-0.9 0-1.2 0z" />
	<path fill="#008f4c" stroke="#000" stroke-width=".5" d="m285 410.6c0.3-0.3-2.3 0-4.8 0-1.5 0-1.4 2.2-1.1 3.2 0.2 1 3.6 1.2 4.4 1 1.7-0.4 1.6-1.3 2.4-2.4 0.7-1 0.3-1-0.9-1.8z" />
	<path fill="#008f4c" stroke="#000" stroke-width=".5" d="m281.9 386.9c0.4-0.3-2.2 0-4.7 0-1.5 0-1.4 2.2-1.2 3.2 0.3 1 3.7 1.2 4.5 1 1.7-0.4 1.6-1.3 2.4-2.5 0.7-1 0.3-0.9-1-1.7z" />
	<path fill="#008f4c" stroke="#000" stroke-width=".5" d="m270 397.9c0.4-0.3-2.2 0-4.7 0-1.5 0-1.4 2.2-1.2 3.2 0.3 1 3.7 1.2 4.5 1 1.7-0.4 1.6-1.3 2.4-2.5 0.7-1 0.3-0.9-1-1.7z" />
	<path fill="#008f4c" stroke="#000" stroke-width=".5" d="m276.1 397.6c0.3-0.3-2.3 0-4.8 0-1.5 0-1.4 2.2-1.1 3.2 0.2 1 3.6 1.2 4.4 1 1.7-0.4 1.6-1.3 2.4-2.5 0.7-1 0.4-0.9-0.9-1.7z" />
	<path fill="#008f4c" stroke="#000" stroke-width=".5" d="m279.2 394c0.4-0.3-2.2 0-4.7 0-1.5 0-1.4 2.2-1.2 3.2 0.3 0.9 3.7 1.2 4.5 1 1.7-0.5 1.6-1.4 2.4-2.5 0.7-1 0.3-0.9-1-1.7z" />
	<path fill="#008f4c" stroke="#000" stroke-width=".5" d="m271.5 400.9c0.4-0.3-2.2 0-4.7 0-1.5 0-1.4 2.2-1.2 3.2 0.3 1 3.7 1.2 4.5 1 1.7-0.4 1.6-1.3 2.4-2.5 0.7-0.9 0.3-0.9-1-1.7z" />
	<path fill="#008f4c" stroke="#000" stroke-width=".5" d="m264.6 410.7c0.3-0.3-2.3 0-4.7 0-1.5 0-1.4 2.2-1.2 3.2 0.2 1 3.7 1.2 4.5 1 1.7-0.4 1.5-1.3 2.4-2.5 0.7-1 0.3-0.9-1-1.7z" />
	<path fill="#008f4c" stroke="#000" stroke-width=".5" d="m328.4 394.3c0.4-0.4-2.9 0-6 0-1.9 0-1.8 2.6-1.5 3.9 0.3 1.2 4.7 1.5 5.7 1.2 2.1-0.5 2-1.6 3-3 0.9-1.2 0.5-1.1-1.2-2.1z" />
	<path fill="#008f4c" stroke="#000" stroke-width=".5" d="m263.9 399.9c-0.5-0.2-1.7-0.1-2.6 0.1-0.7 0.2-1.1 0.5-1.7 0.7-0.6 0.1-1 0.8-1.3 1.1-0.6 0.6-0.7 0.3 1 0.9 0.8 0.3 1.3 0.7 1.7 0.8 0.7 0.1 1.1 0 2.1 0 0.7 0 1.7-0.1 2.1-0.3 0.9-0.5 0.9-0.8 0.9-1.8 0-1.1-0.3-1.2-1.1-1.5-0.2-0.2-0.8 0-1.1 0z" />
	<path fill="#008f4c" stroke="#000" stroke-width=".5" d="m255.3 387.8c-0.6-0.2-1.8-0.1-2.6 0.1-0.8 0.2-1.1 0.5-1.7 0.7-0.7 0.1-1.1 0.8-1.4 1.1-0.6 0.6-0.7 0.3 1.1 0.9 0.8 0.3 1.3 0.7 1.7 0.8 0.7 0.1 1.1 0 2 0 0.8 0 1.7-0.1 2.1-0.3 0.9-0.5 0.9-0.8 0.9-1.8 0-1.1-0.2-1.2-1-1.5-0.2-0.2-0.9 0-1.1 0z" />
	<path fill="#008f4c" stroke="#000" stroke-width=".5" d="m288.6 418.6c-0.5-0.1-1.7-0.1-2.5 0.1-0.8 0.2-1.2 0.6-1.8 0.7-0.6 0.2-1 0.8-1.3 1.2-0.6 0.5-0.7 0.2 1 0.9 0.9 0.3 1.3 0.6 1.8 0.7 0.6 0.2 1.1 0 2 0 0.7 0 1.7-0.1 2.1-0.3 0.9-0.4 0.9-0.7 0.9-1.8 0-1-0.3-1.1-1-1.5-0.3-0.1-0.9 0-1.2 0z" />
	<path fill="#008f4c" stroke="#000" stroke-width=".5" d="m260.9 407.7c-0.5-0.1-1.7 0-2.5 0.2-0.8 0.2-1.2 0.5-1.8 0.7-0.6 0.1-1 0.8-1.3 1.1-0.6 0.6-0.7 0.3 1 0.9 0.9 0.3 1.3 0.6 1.8 0.7 0.6 0.2 1.1 0 2 0 0.7 0 1.7 0 2.1-0.3 0.9-0.4 0.9-0.7 0.9-1.8 0-1-0.3-1.1-1-1.5-0.3-0.1-0.9 0-1.2 0z" />
	<path fill="#008f4c" stroke="#000" stroke-width=".5" d="m291.6 415.2c0.4-0.4-2.2 0-4.7 0-1.5 0-1.4 2.1-1.2 3.2 0.3 0.9 3.7 1.1 4.5 0.9 1.7-0.4 1.6-1.3 2.4-2.4 0.7-1 0.3-0.9-1-1.7z" />
	<path fill="#008f4c" stroke="#000" stroke-width=".5" d="m300.2 415.6c0.3-0.3-2.3 0-4.8 0-1.5 0-1.4 2.2-1.1 3.2 0.2 0.9 3.6 1.2 4.4 1 1.7-0.5 1.6-1.4 2.4-2.5 0.7-1 0.3-0.9-0.9-1.7z" />
	<path fill="#008f4c" stroke="#000" stroke-width=".5" d="m300.4 411.3c0.3-0.3-2.3 0-4.8 0-1.5 0-1.4 2.2-1.1 3.2 0.2 1 3.7 1.2 4.5 1 1.6-0.4 1.5-1.3 2.3-2.5 0.7-0.9 0.4-0.9-0.9-1.7z" />
	<path fill="#008f4c" stroke="#000" stroke-width=".5" d="m293.8 411.3c0.3-0.3-2.3 0-4.8 0-1.5 0-1.4 2.2-1.1 3.2 0.2 1 3.6 1.2 4.4 1 1.7-0.4 1.6-1.3 2.4-2.5 0.7-0.9 0.4-0.9-0.9-1.7z" />
	<path fill="#008f4c" stroke="#000" stroke-width=".5" d="m299.7 380c0.4-0.3-2.2 0-4.7 0-1.5 0-1.4 2.2-1.2 3.2 0.3 1 3.7 1.2 4.5 1 1.7-0.4 1.6-1.3 2.4-2.5 0.7-0.9 0.3-0.9-1-1.7z" />
	<path fill="#008f4c" stroke="#000" stroke-width=".5" d="m306.7 384.5c0.3-0.3-2.3 0-4.8 0-1.5 0-1.4 2.2-1.1 3.2 0.2 1 3.6 1.2 4.4 1 1.7-0.5 1.6-1.3 2.4-2.5 0.7-1 0.3-0.9-0.9-1.7z" />
	<path fill="#008f4c" stroke="#000" stroke-width=".5" d="m304.6 382.1c0.4-0.3-2.2 0-4.7 0-1.5 0-1.4 2.2-1.2 3.2 0.3 1 3.7 1.2 4.5 1 1.7-0.4 1.6-1.3 2.4-2.4 0.7-1 0.3-0.9-1-1.8z" />
	<path fill="#008f4c" stroke="#000" stroke-width=".5" d="m311 383.8c0.3-0.3-2.2 0-4.7 0-1.5 0-1.4 2.2-1.2 3.2 0.3 1 3.7 1.2 4.5 1 1.7-0.4 1.6-1.3 2.4-2.4 0.7-1 0.3-0.9-1-1.8z" />
	<path fill="#008f4c" stroke="#000" stroke-width=".5" d="m280.5 382.4c0.4-0.4-2.2 0-4.7 0-1.5 0-1.4 2.1-1.2 3.2 0.3 0.9 3.7 1.1 4.5 0.9 1.7-0.4 1.6-1.3 2.4-2.4 0.7-1 0.3-0.9-1-1.7z" />
	<path fill="#008f4c" stroke="#000" stroke-width=".5" d="m273.5 381.9c0.3-0.3-2.3 0-4.7 0-1.5 0-1.4 2.2-1.2 3.2 0.2 1 3.7 1.2 4.5 1 1.7-0.4 1.5-1.3 2.4-2.4 0.7-1 0.3-1-1-1.8z" />
	<path fill="#008f4c" stroke="#000" stroke-width=".5" d="m314.2 414.9c0.3-0.3-2.3 0-4.7 0-1.5 0-1.4 2.2-1.2 3.2 0.2 1 3.7 1.2 4.5 1 1.7-0.4 1.5-1.3 2.4-2.4 0.7-1 0.3-0.9-1-1.8z" />
	<path fill="#008f4c" stroke="#000" stroke-width=".5" d="m267.8 382.3c0.4-0.4-2.9 0-6 0-2 0-1.9 2.7-1.6 3.9 0.3 1.2 4.8 1.5 5.8 1.2 2.1-0.5 1.9-1.6 3-3 0.9-1.2 0.4-1.1-1.2-2.1z" />
	<path fill="#008f4c" stroke="#000" stroke-width=".5" d="m264.4 395.5c0.4-0.4-2.9 0-6.1 0-1.9 0-1.8 2.7-1.5 3.9 0.3 1.2 4.7 1.5 5.8 1.2 2.1-0.5 1.9-1.6 3-3 0.9-1.2 0.4-1.1-1.2-2.1z" />
	<path fill="#008f4c" stroke="#000" stroke-width=".5" d="m287.2 398.1c0.4-0.4-2.9 0-6.1 0-1.9 0-1.8 2.6-1.5 3.9 0.3 1.2 4.7 1.5 5.8 1.2 2.1-0.5 1.9-1.6 3-3 0.9-1.2 0.4-1.1-1.2-2.1z" />
	<path fill="#008f4c" stroke="#000" stroke-width=".5" d="m300.6 400.4c0.4-0.4-2.9 0-6 0-1.9 0-1.9 2.7-1.5 3.9 0.3 1.2 4.7 1.5 5.7 1.2 2.1-0.5 2-1.6 3-3 0.9-1.2 0.4-1.1-1.2-2.1z" />
	<path fill="#008f4c" stroke="#000" stroke-width=".5" d="m302.9 386.8c0.5-0.4-2.9 0-6 0-1.9 0-1.8 2.7-1.5 3.9 0.3 1.2 4.7 1.5 5.7 1.2 2.2-0.5 2-1.6 3-3 1-1.2 0.5-1.1-1.2-2.1z" />
	<path fill="#008f4c" stroke="#000" stroke-width=".5" d="m309.5 388.1c0.5-0.4-2.9 0-6 0-1.9 0-1.8 2.6-1.5 3.9 0.3 1.2 4.7 1.5 5.7 1.2 2.2-0.5 2-1.6 3.1-3 0.9-1.2 0.4-1.1-1.3-2.1z" />
	<path fill="#008f4c" stroke="#000" stroke-width=".5" d="m304.9 397.4c0.4-0.4-2.9 0-6.1 0-1.9 0-1.8 2.3-1.5 3.3 0.3 1 4.7 1.3 5.8 1.1 2.1-0.5 1.9-1.4 3-2.6 0.9-1 0.4-1-1.2-1.8z" />
	<path fill="#008f4c" stroke="#000" stroke-width=".5" d="m310.8 401.7c0.4-0.4-2.9 0-6 0-1.9 0-1.8 2.7-1.5 3.9 0.3 1.2 4.7 1.5 5.7 1.2 2.1-0.5 2-1.6 3-3 0.9-1.2 0.5-1.1-1.2-2.1z" />
	<path fill="#008f4c" stroke="#000" stroke-width=".5" d="m296.5 383.5c0.5-0.2 1.7-0.1 2.6 0.1 0.8 0.2 1.1 0.5 1.7 0.7 0.6 0.1 1 0.8 1.4 1.1 0.5 0.6 0.6 0.3-1.1 0.9-0.8 0.3-1.3 0.7-1.7 0.8-0.7 0.1-1.1 0-2.1 0-0.7 0-1.6-0.1-2.1-0.3-0.9-0.5-0.9-0.8-0.9-1.8 0-1.1 0.3-1.2 1.1-1.5 0.2-0.2 0.9 0 1.1 0z" />
	<path fill="#008f4c" stroke="#000" stroke-width=".5" d="m297.1 390.5c0.6-0.2 1.8-0.1 2.6 0.1 0.8 0.2 1.1 0.6 1.7 0.7 0.7 0.2 1.1 0.8 1.4 1.1 0.6 0.6 0.7 0.3-1.1 0.9-0.8 0.3-1.3 0.7-1.7 0.8-0.7 0.2-1.1 0-2 0-0.8 0-1.7-0.1-2.1-0.3-0.9-0.5-0.9-0.7-0.9-1.8 0-1 0.2-1.1 1-1.5 0.2-0.1 0.9 0 1.1 0z" />
	<path fill="#008f4c" stroke="#000" stroke-width=".5" d="m327.4 399.2c0.5-0.1 1.7-0.1 2.5 0.2 0.8 0.1 1.2 0.5 1.8 0.6 0.6 0.2 1 0.9 1.3 1.2 0.6 0.5 0.7 0.2-1 0.9-0.8 0.3-1.3 0.6-1.8 0.7-0.6 0.2-1 0-2 0-0.7 0-1.7-0.1-2.1-0.3-0.9-0.4-0.9-0.7-0.9-1.8 0-1 0.3-1.1 1-1.5 0.3-0.1 0.9 0 1.2 0z" />
	<path fill="#008f4c" stroke="#000" stroke-width=".5" d="m323 400.3c0.5-0.2 1.7-0.1 2.6 0.1 0.8 0.2 1.1 0.5 1.7 0.7 0.6 0.1 1 0.8 1.4 1.1 0.5 0.6 0.6 0.3-1.1 0.9-0.8 0.3-1.3 0.7-1.7 0.8-0.7 0.1-1.1 0-2.1 0-0.7 0-1.6-0.1-2.1-0.3-0.9-0.5-0.9-0.8-0.9-1.8 0-1.1 0.3-1.2 1.1-1.5 0.2-0.2 0.9 0 1.1 0z" />
	<path fill="#008f4c" stroke="#000" stroke-width=".5" d="m322.7 411.2c0.5-0.1 1.7 0 2.6 0.2 0.8 0.2 1.1 0.5 1.7 0.7 0.6 0.1 1 0.8 1.4 1.1 0.5 0.6 0.6 0.3-1.1 0.9-0.8 0.3-1.3 0.7-1.7 0.8-0.7 0.1-1.1 0-2.1 0-0.7 0-1.6-0.1-2.1-0.3-0.9-0.5-0.9-0.8-0.9-1.8 0-1.1 0.3-1.2 1.1-1.6 0.2-0.1 0.9 0 1.1 0z" />
	<path fill="#008f4c" stroke="#000" stroke-width=".5" d="m324.8 408.5c0.5-0.1 1.7 0 2.6 0.2 0.8 0.2 1.1 0.5 1.7 0.7 0.6 0.1 1.1 0.8 1.4 1.1 0.5 0.6 0.7 0.3-1.1 0.9-0.8 0.3-1.3 0.6-1.7 0.8-0.7 0.1-1.1 0-2.1 0-0.7 0-1.6-0.1-2.1-0.3-0.9-0.5-0.9-0.8-0.9-1.9 0-1 0.3-1.1 1.1-1.5 0.2-0.1 0.9 0 1.1 0z" />
	<path fill="#008f4c" stroke="#000" stroke-width=".5" d="m326.9 402.4c0.5-0.2 1.7-0.1 2.6 0.1 0.8 0.2 1.1 0.5 1.7 0.7 0.6 0.1 1.1 0.8 1.4 1.1 0.6 0.6 0.7 0.3-1.1 0.9-0.8 0.3-1.3 0.7-1.7 0.8-0.7 0.1-1.1 0-2 0-0.8 0-1.7-0.1-2.2-0.3-0.8-0.5-0.9-0.8-0.9-1.8 0-1.1 0.3-1.2 1.1-1.5 0.2-0.1 0.9 0 1.1 0z" />
	<path fill="#008f4c" stroke="#000" stroke-width=".5" d="m322.7 405.2c0.5-0.1 1.7 0 2.6 0.2 0.8 0.2 1.1 0.5 1.7 0.7 0.6 0.1 1 0.8 1.4 1.1 0.5 0.6 0.6 0.2-1.1 0.9-0.8 0.3-1.3 0.6-1.7 0.7-0.7 0.2-1.1 0-2.1 0-0.7 0-1.6 0-2.1-0.3-0.9-0.4-0.9-0.7-0.9-1.8 0-1 0.3-1.1 1.1-1.5 0.2-0.1 0.9 0 1.1 0z" />
	<path fill="#008f4c" stroke="#000" stroke-width=".5" d="m316.2 413.1c0.5-0.2 1.7-0.1 2.6 0.1 0.8 0.2 1.1 0.5 1.7 0.7 0.6 0.1 1.1 0.8 1.4 1.1 0.6 0.6 0.7 0.3-1.1 0.9-0.8 0.3-1.3 0.7-1.7 0.8-0.7 0.1-1.1 0-2 0-0.8 0-1.7-0.1-2.2-0.3-0.8-0.5-0.9-0.8-0.9-1.8 0-1.1 0.3-1.2 1.1-1.5 0.2-0.2 0.9 0 1.1 0z" />
	<path fill="#008f4c" stroke="#000" stroke-width=".5" d="m325.1 387.6c0.5-0.1 1.7-0.1 2.6 0.2 0.8 0.2 1.1 0.5 1.7 0.6 0.6 0.2 1.1 0.9 1.4 1.2 0.6 0.5 0.7 0.2-1.1 0.9-0.8 0.3-1.3 0.6-1.7 0.7-0.7 0.2-1.1 0-2.1 0-0.7 0-1.6-0.1-2.1-0.3-0.9-0.4-0.9-0.7-0.9-1.8 0-1 0.3-1.1 1.1-1.5 0.2-0.1 0.9 0 1.1 0z" />
	<path fill="#008f4c" stroke="#000" stroke-width=".5" d="m307.3 398.7c0.5-0.1 1.8 0 2.6 0.2 0.8 0.2 1.1 0.5 1.7 0.7 0.7 0.1 1.1 0.8 1.4 1.1 0.6 0.6 0.7 0.3-1.1 0.9-0.8 0.3-1.3 0.7-1.7 0.8-0.7 0.1-1.1 0-2 0-0.8 0-1.7-0.1-2.1-0.3-0.9-0.5-0.9-0.8-0.9-1.8 0-1.1 0.2-1.2 1-1.6 0.2-0.1 0.9 0 1.1 0z" />
	<path fill="#008f4c" stroke="#000" stroke-width=".5" d="m315.2 393.2c0.4-0.3-2.2 0-4.7 0-1.5 0-1.4 2.2-1.2 3.2 0.3 1 3.7 1.2 4.5 1 1.7-0.4 1.6-1.3 2.4-2.4 0.7-1 0.3-1-1-1.8z" />
	<path fill="#008f4c" stroke="#000" stroke-width=".5" d="m317.5 387.1c0.3-0.4-2.3 0-4.7 0-1.5 0-1.4 2.1-1.2 3.2 0.2 0.9 3.7 1.1 4.5 0.9 1.6-0.4 1.5-1.3 2.3-2.4 0.8-1 0.4-0.9-0.9-1.7z" />
	<path fill="#008f4c" stroke="#000" stroke-width=".5" d="m322.6 390.8c0.3-0.3-2.2 0-4.7 0-1.5 0-1.4 2.2-1.2 3.2 0.3 1 3.7 1.2 4.5 1 1.7-0.4 1.6-1.3 2.4-2.5 0.7-0.9 0.3-0.9-1-1.7z" />
	<path fill="#008f4c" stroke="#000" stroke-width=".5" d="m312.2 410c0.4-0.4-2.2 0-4.7 0-1.5 0-1.4 2.1-1.2 3.1 0.3 1 3.7 1.2 4.5 1 1.7-0.4 1.6-1.3 2.4-2.4 0.7-1 0.3-0.9-1-1.7z" />
	<path fill="#008f4c" stroke="#000" stroke-width=".5" d="m313.1 401.3c0.5-0.1 1.7-0.1 2.5 0.2 0.8 0.2 1.2 0.5 1.8 0.6 0.6 0.2 1 0.9 1.3 1.2 0.6 0.5 0.7 0.2-1 0.9-0.9 0.3-1.3 0.6-1.8 0.7-0.6 0.2-1.1 0-2 0-0.7 0-1.7-0.1-2.1-0.3-0.9-0.4-0.9-0.7-0.9-1.8 0-1 0.3-1.1 1-1.5 0.3-0.1 0.9 0 1.2 0z" />
	<path fill="#008f4c" stroke="#000" stroke-width=".5" d="m307 395.6c0.5-0.2 1.7-0.1 2.6 0.1 0.8 0.2 1.1 0.6 1.7 0.7 0.7 0.2 1.1 0.8 1.4 1.1 0.6 0.6 0.7 0.3-1.1 0.9-0.8 0.3-1.3 0.7-1.7 0.8-0.7 0.2-1.1 0-2 0-0.8 0-1.7-0.1-2.1-0.3-0.9-0.4-1-0.7-1-1.8 0-1 0.3-1.1 1.1-1.5 0.2-0.1 0.9 0 1.1 0z" />
	<path fill="#008f4c" stroke="#000" stroke-width=".5" d="m311.1 390.2c0.5-0.2 1.7-0.1 2.6 0.1 0.8 0.2 1.1 0.5 1.7 0.7 0.6 0.1 1 0.8 1.4 1.1 0.5 0.6 0.6 0.3-1.1 0.9-0.8 0.3-1.3 0.7-1.7 0.8-0.7 0.1-1.1 0-2.1 0-0.7 0-1.6-0.1-2.1-0.3-0.9-0.5-0.9-0.8-0.9-1.8 0-1.1 0.3-1.2 1.1-1.5 0.2-0.2 0.9 0 1.1 0z" />
	<path fill="#008f4c" stroke="#000" stroke-width=".5" d="m314.1 396.5c0.5-0.1 1.7-0.1 2.6 0.1 0.8 0.2 1.1 0.6 1.7 0.7 0.6 0.2 1.1 0.8 1.4 1.1 0.5 0.6 0.7 0.3-1.1 1-0.8 0.3-1.3 0.6-1.7 0.7-0.7 0.2-1.1 0-2.1 0-0.7 0-1.6-0.1-2.1-0.3-0.9-0.4-0.9-0.7-0.9-1.8 0-1 0.3-1.1 1.1-1.5 0.2-0.1 0.9 0 1.1 0z" />
	<path fill="#008f4c" stroke="#000" stroke-width=".5" d="m314 384.4c0.5-0.1 1.7 0 2.5 0.2 0.8 0.2 1.2 0.5 1.8 0.7 0.6 0.1 1 0.8 1.3 1.1 0.6 0.6 0.7 0.3-1 0.9-0.9 0.3-1.3 0.6-1.8 0.8-0.6 0.1-1.1 0-2 0-0.7 0-1.7-0.1-2.1-0.3-0.9-0.5-0.9-0.8-0.9-1.9 0-1 0.3-1.1 1-1.5 0.3-0.1 0.9 0 1.2 0z" />
	<path fill="#008f4c" stroke="#000" stroke-width=".5" d="m320.4 385.2c0.6-0.1 1.8-0.1 2.6 0.1 0.8 0.2 1.1 0.6 1.7 0.7 0.7 0.2 1.1 0.8 1.4 1.2 0.6 0.5 0.7 0.2-1.1 0.9-0.8 0.3-1.3 0.6-1.7 0.7-0.7 0.2-1.1 0-2 0-0.8 0-1.7-0.1-2.1-0.3-0.9-0.4-0.9-0.7-0.9-1.8 0-1 0.3-1.1 1-1.5 0.2-0.1 0.9 0 1.1 0z" />
	<path fill="#008f4c" stroke="#000" stroke-width=".5" d="m254.3 400.1c-0.5-0.3-1.7-0.5-2.5-0.5-0.9 0-1.3 0.3-1.9 0.3-0.6 0-1.2 0.5-1.6 0.7-0.7 0.5-0.7 0.1 0.8 1.2 0.8 0.4 1.2 0.9 1.5 1.1 0.7 0.3 1.1 0.3 2 0.5 0.7 0.1 1.7 0.3 2.1 0.2 1-0.2 1.1-0.5 1.3-1.6 0.3-1 0-1.1-0.6-1.7-0.2-0.1-0.9-0.2-1.1-0.2z" />
	<path fill="#008f4c" stroke="#000" stroke-width=".5" d="m259.1 383.9c-0.5-0.2-1.7-0.4-2.5-0.4-0.8 0-1.3 0.2-1.9 0.2-0.6 0-1.2 0.6-1.6 0.8-0.7 0.5-0.7 0.1 0.9 1.1 0.7 0.5 1.1 1 1.5 1.2 0.6 0.3 1 0.2 1.9 0.5 0.7 0.1 1.7 0.3 2.2 0.2 0.9-0.3 1-0.5 1.3-1.6 0.2-1-0.1-1.1-0.7-1.7-0.2-0.2-0.9-0.2-1.1-0.3z" />
	<path fill="#008f4c" stroke="#000" stroke-width=".5" d="m259.4 403.7c-0.5-0.3-1.7-0.5-2.5-0.5-0.8 0-1.3 0.3-1.9 0.3-0.6 0-1.2 0.5-1.6 0.8-0.7 0.4-0.7 0 0.9 1.1 0.7 0.5 1.1 0.9 1.5 1.1 0.6 0.3 1 0.3 1.9 0.5 0.7 0.2 1.7 0.3 2.2 0.2 0.9-0.2 1-0.5 1.3-1.6 0.2-1 0-1.1-0.7-1.7-0.2-0.1-0.9-0.2-1.1-0.2z" />
	<path fill="#008f4c" stroke="#000" stroke-width=".5" d="m266.6 403.4c-0.4-0.3-1.6-0.5-2.5-0.5-0.8 0-1.2 0.3-1.8 0.3-0.7 0-1.2 0.5-1.6 0.7-0.7 0.5-0.8 0.1 0.8 1.2 0.7 0.5 1.1 0.9 1.5 1.1 0.6 0.3 1.1 0.3 2 0.5 0.7 0.2 1.6 0.3 2.1 0.2 1-0.2 1.1-0.5 1.3-1.6 0.2-1 0-1.1-0.7-1.7-0.2-0.1-0.8-0.2-1.1-0.2z" />
	<path fill="#008f4c" stroke="#000" stroke-width=".5" d="m268.1 407.4c-0.4-0.2-1.6-0.4-2.5-0.4-0.8 0-1.2 0.2-1.8 0.2-0.7 0-1.2 0.6-1.6 0.8-0.7 0.4-0.7 0.1 0.8 1.1 0.7 0.5 1.1 1 1.5 1.2 0.6 0.3 1.1 0.2 2 0.5 0.7 0.1 1.6 0.3 2.1 0.2 1-0.3 1.1-0.5 1.3-1.6 0.3-1 0-1.1-0.7-1.7-0.2-0.2-0.8-0.2-1.1-0.3z" />
	<path fill="#008f4c" stroke="#000" stroke-width=".5" d="m265.9 390.3c-0.5-0.3-1.7-0.5-2.5-0.5-0.9 0-1.3 0.3-1.9 0.3-0.6 0-1.2 0.5-1.6 0.7-0.7 0.5-0.7 0.1 0.8 1.2 0.8 0.5 1.2 0.9 1.5 1.1 0.7 0.3 1.1 0.3 2 0.5 0.7 0.2 1.7 0.3 2.1 0.2 1-0.2 1.1-0.5 1.3-1.6 0.3-1 0-1.1-0.6-1.7-0.2-0.1-0.9-0.2-1.1-0.2z" />
	<path fill="#008f4c" stroke="#000" stroke-width=".5" d="m267.4 386.8c-0.5-0.2-1.7-0.5-2.5-0.5-0.9 0.1-1.3 0.3-1.9 0.3-0.6 0-1.2 0.6-1.6 0.8-0.7 0.4-0.7 0.1 0.8 1.1 0.8 0.5 1.2 0.9 1.6 1.1 0.6 0.4 1 0.3 1.9 0.5 0.7 0.2 1.7 0.3 2.2 0.2 0.9-0.2 1-0.5 1.3-1.5 0.2-1-0.1-1.2-0.7-1.7-0.2-0.2-0.9-0.2-1.1-0.3z" />
	<path fill="#008f4c" stroke="#000" stroke-width=".5" d="m255 395.1c-0.4-0.3-1.6-0.5-2.5-0.5-0.8 0-1.2 0.3-1.8 0.3-0.7 0-1.2 0.5-1.6 0.8-0.7 0.4-0.8 0.1 0.8 1.1 0.7 0.5 1.1 0.9 1.5 1.1 0.6 0.3 1.1 0.3 2 0.5 0.7 0.2 1.6 0.3 2.1 0.2 1-0.2 1-0.5 1.3-1.5 0.2-1 0-1.2-0.7-1.7-0.2-0.2-0.8-0.3-1.1-0.3z" />
	<path fill="#008f4c" stroke="#000" stroke-width=".5" d="m257 398.4c-0.5-0.3-1.7-0.5-2.5-0.5-0.9 0.1-1.3 0.3-1.9 0.3-0.6 0-1.2 0.6-1.6 0.8-0.7 0.4-0.7 0.1 0.8 1.1 0.8 0.5 1.2 0.9 1.6 1.1 0.6 0.4 1 0.3 1.9 0.5 0.7 0.2 1.7 0.3 2.2 0.2 0.9-0.2 1-0.5 1.3-1.5 0.2-1-0.1-1.2-0.7-1.7-0.2-0.2-0.9-0.2-1.1-0.3z" />
	<path fill="#008f4c" stroke="#000" stroke-width=".5" d="m290.4 408.8c-0.6 0-1.8 0.2-2.6 0.5-0.7 0.3-1 0.7-1.6 0.9-0.6 0.2-0.9 0.9-1.2 1.3-0.5 0.6-0.7 0.3 1.1 0.7 0.9 0.2 1.4 0.5 1.9 0.6 0.6 0.1 1-0.1 2-0.3 0.7-0.1 1.6-0.3 2-0.5 0.9-0.6 0.8-0.9 0.7-1.9-0.1-1-0.4-1.1-1.2-1.4-0.3-0.1-0.9 0.1-1.1 0.1z" />
	<path fill="#008f4c" stroke="#000" stroke-width=".5" d="m288.9 406.4c-0.4-0.3-1.6-0.5-2.5-0.5-0.8 0-1.2 0.3-1.8 0.3-0.7 0-1.2 0.5-1.6 0.8-0.7 0.4-0.7 0.1 0.8 1.1 0.7 0.5 1.1 0.9 1.5 1.1 0.6 0.3 1.1 0.3 2 0.5 0.7 0.2 1.6 0.3 2.1 0.2 1-0.2 1.1-0.5 1.3-1.5 0.2-1 0-1.2-0.7-1.8-0.2-0.1-0.8-0.2-1.1-0.2z" />
	<path fill="#ed1c24" d="m288.4 354.9v7.7h-10v5.6h9.7v27l6.8 0.1 0.3-27.1h9.8l-0.1-5.6h-10.1l0.1-7.7z" />
	<path fill="#008f4c" stroke="#000" stroke-width=".5" d="m274.6 386.4c-0.4-0.3-1.6-0.5-2.5-0.5-0.8 0-1.2 0.2-1.8 0.3-0.7 0-1.3 0.5-1.6 0.7-0.7 0.5-0.8 0.1 0.8 1.2 0.7 0.4 1.1 0.9 1.5 1.1 0.6 0.3 1 0.3 2 0.5 0.7 0.1 1.6 0.3 2.1 0.2 1-0.2 1-0.5 1.3-1.6 0.2-1 0-1.1-0.7-1.7-0.2-0.1-0.8-0.2-1.1-0.2z" />
	<path fill="#008f4c" stroke="#000" stroke-width=".5" d="m255.3 405.2c-0.4-0.3-1.6-0.5-2.5-0.5-0.8 0-1.2 0.3-1.8 0.3-0.7 0-1.2 0.5-1.6 0.8-0.7 0.4-0.8 0.1 0.8 1.1 0.7 0.5 1.1 0.9 1.5 1.1 0.6 0.3 1.1 0.3 2 0.5 0.7 0.2 1.6 0.3 2.1 0.2 1-0.2 1-0.5 1.3-1.5 0.2-1 0-1.2-0.7-1.8-0.2-0.1-0.8-0.2-1.1-0.2z" />
	<path fill="#008f4c" stroke="#000" stroke-width=".5" d="m279.6 414.3c-0.5 0-1.7 0.3-2.5 0.7-0.7 0.3-1 0.7-1.5 1-0.6 0.3-0.9 1-1.1 1.4-0.5 0.6-0.6 0.4 1.2 0.6 0.9 0.2 1.4 0.4 1.8 0.4 0.7 0 1.1-0.2 2-0.4 0.7-0.1 1.7-0.4 2-0.7 0.8-0.6 0.8-0.9 0.6-2-0.2-1-0.6-1-1.4-1.2-0.2-0.1-0.8 0.1-1.1 0.2z" />
	<path fill="#008f4c" stroke="#000" stroke-width=".5" d="m284.3 416.6c-0.5-0.2-1.7-0.4-2.6-0.4-0.8 0-1.2 0.2-1.8 0.2-0.7 0-1.2 0.6-1.6 0.8-0.7 0.4-0.7 0.1 0.8 1.1 0.7 0.5 1.1 1 1.5 1.2 0.6 0.3 1.1 0.2 2 0.4 0.7 0.2 1.7 0.4 2.1 0.2 1-0.2 1.1-0.4 1.3-1.5 0.3-1 0-1.2-0.6-1.7-0.2-0.2-0.9-0.2-1.1-0.3z" />
	<path fill="#008f4c" stroke="#000" stroke-width=".5" d="m285.6 402.9c-0.4-0.2-1.6-0.4-2.5-0.4-0.8 0-1.2 0.2-1.8 0.2-0.7 0-1.3 0.6-1.6 0.8-0.7 0.4-0.8 0.1 0.8 1.1 0.7 0.5 1.1 1 1.5 1.2 0.6 0.3 1 0.2 2 0.4 0.7 0.2 1.6 0.3 2.1 0.2 1-0.2 1-0.5 1.3-1.5 0.2-1 0-1.2-0.7-1.7-0.2-0.2-0.8-0.2-1.1-0.3z" />
	<path fill="#008f4c" stroke="#000" stroke-width=".5" d="m277.6 400.2c-0.4-0.2-1.6-0.5-2.5-0.4-0.8 0-1.2 0.2-1.8 0.2-0.7 0-1.2 0.6-1.6 0.8-0.7 0.4-0.8 0.1 0.8 1.1 0.7 0.5 1.1 0.9 1.5 1.2 0.6 0.3 1.1 0.2 2 0.4 0.7 0.2 1.6 0.3 2.1 0.2 1-0.2 1-0.5 1.3-1.5 0.2-1 0-1.2-0.7-1.7-0.2-0.2-0.8-0.2-1.1-0.3z" />
	<path fill="#008f4c" stroke="#000" stroke-width=".5" d="m297.8 407.7c0.4 0.2 1.6 0.3 2.5 0.3 0.8-0.1 1.2-0.4 1.8-0.4 0.7-0.1 1.2-0.7 1.6-0.9 0.6-0.5 0.7-0.2-0.9-1.1-0.8-0.4-1.2-0.8-1.6-1-0.7-0.3-1.1-0.2-2-0.3-0.8-0.2-1.7-0.2-2.2-0.1-0.9 0.3-1 0.6-1.2 1.7-0.1 1 0.2 1.1 0.8 1.6 0.3 0.2 0.9 0.2 1.2 0.2z" />
	<path fill="#008f4c" stroke="#000" stroke-width=".5" d="m284.4 394.6c-0.5-0.2-1.6-0.4-2.5-0.4-0.8 0-1.2 0.2-1.9 0.2-0.6 0-1.2 0.6-1.5 0.8-0.7 0.4-0.8 0.1 0.8 1.1 0.7 0.5 1.1 1 1.5 1.2 0.6 0.3 1 0.2 2 0.5 0.7 0.1 1.6 0.3 2.1 0.2 0.9-0.3 1-0.5 1.3-1.6 0.2-1 0-1.1-0.7-1.7-0.2-0.2-0.8-0.2-1.1-0.3z" />
	<path fill="#008f4c" stroke="#000" stroke-width=".5" d="m303.2 416.5c0.4 0.2 1.6 0.3 2.5 0.3 0.8-0.1 1.2-0.4 1.8-0.4 0.7-0.1 1.2-0.7 1.5-0.9 0.7-0.5 0.8-0.2-0.8-1.1-0.8-0.4-1.2-0.8-1.6-1-0.7-0.3-1.1-0.2-2-0.3-0.8-0.1-1.7-0.2-2.2-0.1-0.9 0.3-1 0.6-1.2 1.7-0.1 1 0.1 1.1 0.8 1.6 0.2 0.2 0.9 0.2 1.2 0.2z" />
	<path fill="#008f4c" stroke="#000" stroke-width=".5" d="m310.5 409.4c0.5 0.2 1.7 0.4 2.6 0.3 0.8-0.1 1.2-0.4 1.8-0.4 0.7-0.1 1.2-0.6 1.5-0.9 0.7-0.5 0.8-0.2-0.9-1.1-0.7-0.4-1.1-0.8-1.6-1-0.6-0.3-1-0.2-2-0.3-0.7-0.1-1.6-0.2-2.1-0.1-0.9 0.3-1 0.6-1.2 1.7-0.1 1 0.1 1.1 0.8 1.6 0.2 0.2 0.9 0.2 1.1 0.2z" />
	<path fill="#008f4c" stroke="#000" stroke-width=".5" d="m289.3 403.4c0.5 0.2 1.7 0.3 2.5 0.3 0.9-0.1 1.3-0.4 1.9-0.4 0.6-0.1 1.1-0.7 1.5-0.9 0.7-0.5 0.7-0.2-0.9-1.1-0.8-0.4-1.2-0.8-1.6-1-0.6-0.3-1.1-0.2-2-0.3-0.7-0.2-1.7-0.2-2.1-0.1-1 0.3-1 0.6-1.2 1.7-0.2 1 0.1 1.1 0.8 1.6 0.2 0.2 0.8 0.2 1.1 0.2z" />
	<path fill="#008f4c" stroke="#000" stroke-width=".5" d="m293.4 401.3c0.4 0.2 1.6 0.3 2.5 0.3 0.8-0.1 1.2-0.4 1.8-0.4 0.7-0.1 1.2-0.7 1.6-0.9 0.6-0.5 0.7-0.2-0.9-1.1-0.8-0.4-1.2-0.8-1.6-1-0.7-0.3-1.1-0.2-2-0.3-0.8-0.2-1.7-0.2-2.2-0.1-0.9 0.3-1 0.6-1.2 1.7-0.1 1 0.2 1.1 0.8 1.6 0.3 0.2 0.9 0.2 1.2 0.2z" />
	<path fill="#008f4c" stroke="#000" stroke-width=".5" d="m260.8 387.3c-0.5-0.3-1.7-0.5-2.6-0.5-0.8 0-1.2 0.2-1.8 0.3-0.7 0-1.2 0.5-1.6 0.7-0.7 0.5-0.7 0.1 0.8 1.2 0.7 0.4 1.1 0.9 1.5 1.1 0.6 0.3 1.1 0.3 2 0.5 0.7 0.1 1.6 0.3 2.1 0.2 1-0.2 1.1-0.5 1.3-1.6 0.3-1 0-1.1-0.6-1.7-0.2-0.1-0.9-0.2-1.1-0.2z" />
	<path fill="#008f4c" stroke="#000" stroke-width=".5" d="m254 391.8c-0.5-0.3-1.7-0.5-2.6-0.5-0.8 0-1.2 0.3-1.8 0.3-0.6 0-1.2 0.5-1.6 0.8-0.7 0.4-0.7 0 0.8 1.1 0.8 0.5 1.2 0.9 1.5 1.1 0.7 0.3 1.1 0.3 2 0.5 0.7 0.2 1.7 0.3 2.1 0.2 1-0.2 1.1-0.5 1.3-1.5 0.3-1 0-1.2-0.6-1.8-0.2-0.1-0.9-0.2-1.1-0.2z" />
	<path fill="#008f4c" stroke="#000" stroke-width=".5" d="m260.6 392.1c-0.5-0.3-1.6-0.5-2.5-0.5-0.8 0-1.2 0.3-1.9 0.3-0.6 0-1.2 0.5-1.5 0.8-0.8 0.4-0.8 0 0.8 1.1 0.7 0.5 1.1 0.9 1.5 1.1 0.6 0.3 1 0.3 2 0.5 0.7 0.2 1.6 0.3 2.1 0.2 0.9-0.2 1-0.5 1.3-1.5 0.2-1 0-1.2-0.7-1.8-0.2-0.1-0.9-0.2-1.1-0.2z" />
	<path fill="#008f4c" stroke="#000" stroke-width=".5" d="m324.1 391.2c0.5-0.1 1.7 0 2.5 0.2 0.8 0.2 1.2 0.5 1.8 0.6 0.6 0.2 1 0.9 1.3 1.2 0.6 0.6 0.7 0.2-1 0.9-0.9 0.3-1.3 0.6-1.8 0.7-0.6 0.2-1.1 0-2 0-0.7 0-1.7-0.1-2.1-0.3-0.9-0.4-0.9-0.7-0.9-1.8 0-1 0.3-1.1 1-1.5 0.3-0.1 0.9 0 1.2 0z" />
	<path fill="#008f4c" stroke="#000" stroke-width=".5" d="m296.1 393.1c-2 0.2-1.6-1-4.2 0.7-0.8 0.5-1.1 1.9-0.8 3.2 0.3 1.2 4.7 1.4 5.7 1.2 2.1-0.5 2-1.6 3-3 0.9-1.2-1.5-1.4-3.7-2.1z" />
	<path fill-rule="evenodd" fill="none" stroke="#2d3235" stroke-width=".5" d="m295.5 485.4c-1.2-0.8-1.2-2.9-1.2-5.2 0-1.4 0-3.2-0.3-4.2-0.2-0.8-0.3-0.6-0.6-1.2" />
	<path fill-rule="evenodd" fill="none" stroke="#2d3235" stroke-width=".5" d="m287.7 484.4c-0.4-1.5 3.2-1.2 3.9-2.7 0.5-0.9-0.4-3.1-0.6-3.9-0.1-0.6-0.6-0.8-0.6-1.8" />
	<path fill-rule="evenodd" fill="none" stroke="#2d3235" stroke-width=".5" d="m289.4 447.2c-1.3-0.7-1.2-2.8-1.2-5.1 0-1.4-0.1-3.2-0.3-4.2-0.2-0.8-0.4-0.6-0.6-1.2" />
	<path fill-rule="evenodd" fill="none" stroke="#2d3235" stroke-width=".5" d="m263.2 482.8c0.5-1.4 2.5-1.9 4.7-2.4 1.4-0.3 3.2-0.8 4.1-1.2 0.7-0.4 0.5-0.5 1-0.9" />
	<path fill-rule="evenodd" fill="none" stroke="#2d3235" stroke-width=".5" d="m293 463.2c-1.3-0.7-1.2-2.8-1.2-5.1 0-1.4-0.1-3.2-0.3-4.2-0.2-0.8-0.3-0.7-0.6-1.2" />
	<path fill-rule="evenodd" fill="none" stroke="#2d3235" stroke-width=".5" d="m294.2 432.8c-1.3-0.8-1.2-2.9-1.2-5.1 0-1.5-0.1-3.3-0.3-4.2-0.2-0.8-0.3-0.7-0.6-1.3" />
	<path fill="#eac102" stroke="#000" stroke-width=".5" d="m324.6 281.7c-4.7 3.7-15.4 12-20.5 12.2-5.1 0.1-11.6-5.4-16.9-9-8.6 5.9-15 11.1-19 10.9-3.9-0.2-11.2-6.7-16-10.2-5.7 4.1-13.8 13.3-17.8 12.8-3.9-0.5-7.6-2.8-14.3-7.8l-3.6 2.8c1.8 1 12.2 9.2 18 8.9 6.2-0.3 13.3-8.3 17.9-11.3 4 2.5 9.5 9.2 16.6 9.1 4.6 0 12.7-6.5 18.1-10.6 3.4 2.1 13.7 9 17.3 9 6.1-0.1 15.7-8.4 20.1-11 2.8 3.1 13.4 9.7 17.8 9.7 5.3 0 12.4-6.1 16.5-9.6 3.9 4.1 13 9.8 18.4 9.8 4.3 0 14.8-7.5 17.7-9.6 2.8 2.7 14.9 10 17.2 10.2 4.7 0.3 15.3-6.6 18.9-9.2 3.2 3 13.7 10.9 18.6 10.9 4.9 0 15-7 17.5-9.9 3.4 2.8 12.2 12.2 17.7 12.4 7 0.3 17.8-9.6 20.1-10.8l-4.6-1c-2.6 1.3-9.2 7.9-15.3 8-3.8 0.1-15.5-10.8-17.5-13.8-2.1 2.8-13.6 11.3-18.1 11.3-3.8 0-15.3-8.9-18.1-11.3-3.1 2.2-14.3 9.1-18.6 9.1-3.7 0-14.7-8-17.4-10.9-2.3 2.3-13.9 10.3-18.2 10.3-4.3 0-14-7.7-18.3-10.6-3.5 2.4-12.2 10.4-16.4 10.3-4.8-0.1-15-8.4-17.8-11.1z" />
	<path fill="#eac102" stroke="#000" stroke-width=".5" d="m501.8 245.6c-3.3-0.1-2.2-1.5-6.3 0.2-4.7 2.4-5.5 7.5-5.6 9.7-1.7 2-2.8 1.2-2.9 8.8 0.2 5.3 7 8.6 8.7 9.1 0.1 5.7-1.4 17.6 5.6 18.5 5.7 0.7 6.7-3.1 7.2-7.5 0.1-4.6 0.1-14.9-0.7-21.5-1.5-10.6-4.4-17.2-6-17.3z" />
	<path fill="#eac102" stroke="#000" stroke-width=".5" d="m525.2 208.5c-2.8 2.1-15 12.7-16.2 17.2-1 3.8-1.2 7.5-1.7 12.2-0.4 3.3 0.7 11.3 0.6 13.6 0 2.3 0.4 5.2 0.4 7.7 0 2.5-0.7 5.4-2.9 6.7-2.2 1.4-6.4 0.9-8.1-0.5-1.8-1.4-2.7-4.6-2.4-6.8 0.6-3.3 2.5-5.6 3.2-7.8 0.7-2.4 2.7-10.2 2.5-13.4-0.1-2.1-1.7-5.3-3.5-8.3-2.6-4.2-6.2-5.7-10.4-10.9 6.4-0.8 9.1-0.1 13.6-1.2 5.3-2.6 23.1-9.9 24.9-8.5z" />
	<path fill="#eac102" stroke="#000" stroke-width=".5" d="m216.7 246.8c3.3-0.2 2.2-1.5 6.3 0.1 4.7 2.4 5.5 7.5 5.6 9.7 1.7 2 2.8 1.2 2.9 8.8-0.2 5.3-7 8.6-8.7 9.1-0.1 5.7 1.4 17.7-5.6 18.5-5.7 0.7-6.7-3.1-7.2-7.4-0.1-4.7-0.1-15 0.7-21.5 1.5-10.7 4.4-17.3 6-17.3z" />
	<path fill="#eac102" stroke="#000" stroke-width=".5" d="m194.6 208.8c2.8 2.1 13.5 12.7 14.7 17.3 1 3.8 1.2 7.5 1.8 12.1 0.3 3.4-0.7 11.4-0.7 13.6 0 2.3-0.3 5.2-0.4 7.7 0 2.5 0.8 6.5 2.9 7.8 2.2 1.4 6.6 0.3 8.3-1.1 1.8-1.4 2.6-5 2.2-7.2-0.6-3.3-2.5-5.7-3.2-7.9-0.7-2.3-2.7-10.2-2.5-13.4 0.1-2.1 1.6-5.3 3.6-8.3 2.1-3.3 7-4.2 11.2-9.4-6.4-0.8-14.8-4.3-19.2-8-4.6-3-16.9-4.6-18.7-3.2z" />
	<path fill="#eac102" stroke="#000" stroke-width=".5" d="m225.9 340.8c-3.9-0.1-5.7 6.1 0.7 5.9 3.2-0.1 65.4-5.2 133.7-5.1 69.4 0 127.9 4.6 132.1 4.6 4.3 0 4.9-6.5 1.1-6.7-3.5-0.1-63.4-3.9-133.8-3.9-68.9 0-131.9 5.2-133.8 5.2z" />
	<path fill="#ed1c24" stroke="#000" stroke-width=".5" d="m493.4 325.2c-0.5 2.5-0.4 7.9 1.9 8.5 2.4 0.7 6.3-4.2 7-7.4 0.6-3.1 0-8.5-2.5-9-2.5-0.5-5.9 5.4-6.4 7.9z" />
	<path fill="#ed1c24" stroke="#000" stroke-width=".5" d="m226 325.5c0.3 2.5-0.1 7.9-2.4 8.4-2.4 0.6-6-4.5-6.5-7.8-0.5-3.1 0.4-8.4 2.9-8.8 2.5-0.3 5.6 5.7 6 8.2z" />
	<path fill="#ed1c24" d="m374.8 498.1l14.7 0.1v198.7c-4.3 0.7-9.6 2.1-14.7 2.5z" />
	<path fill="#999" stroke="#000" stroke-width=".5" d="m254.2 558.2c-0.3 0.4 0.2 2.7 1.2 3.7 0.8 0.8 1.5 1.7 3.5 1.1 0 0 0.3-0.7-1-5z" />
	<path fill-rule="evenodd" fill="none" stroke="#000" stroke-width=".5" d="m269.4 551.5c0.9-0.2 3.3-0.5 5.2-1.1 2.1-0.7 3.3-1.9 4.1-2.6" />
	<path fill-rule="evenodd" fill="none" stroke="#000" stroke-width=".5" d="m273.9 548.5q0 0.1-0.1 0.2c0.2-0.3 0.1-0.2 0 0.2-0.2 0.3-0.2 0.5-0.4 0.9-0.2 0.3-0.4 0.6-0.6 0.9" />
	<path fill-rule="evenodd" fill="none" stroke="#000" stroke-width=".5" d="m274.6 548.5q-0.1 0.1-0.1 0.2c0.1-0.3 0.1-0.2-0.1 0.2-0.1 0.3-0.2 0.5-0.3 0.9-0.2 0.3-0.4 0.6-0.6 0.9" />
	<path fill-rule="evenodd" fill="none" stroke="#000" stroke-width=".5" d="m275.5 548q0 0.1 0 0.2c0.1-0.3 0.1-0.2-0.1 0.2-0.2 0.3-0.2 0.6-0.4 0.9-0.2 0.3-0.3 0.6-0.5 0.9" />
	<path fill-rule="evenodd" fill="none" stroke="#000" stroke-width=".5" d="m261.2 560.7q-0.1 0-0.1 0.1c0.1-0.2 0.1-0.2 0 0.2-0.2 0.4-0.2 0.6-0.4 0.9-0.2 0.4-0.4 0.6-0.6 0.9" />
	<path fill-rule="evenodd" fill="none" stroke="#000" stroke-width=".5" d="m262.1 560.5q0 0.1-0.1 0.1c0.1-0.2 0.1-0.1 0 0.2-0.2 0.4-0.2 0.6-0.4 1-0.2 0.3-0.4 0.5-0.6 0.9" />
	<path fill-rule="evenodd" fill="none" stroke="#000" stroke-width=".5" d="m256.8 561.4c-0.4-0.3-0.9-1.4-0.9-1.7-0.1-0.4-0.1-0.4-0.1-0.4" />
	<path fill="#999" stroke="#000" stroke-width=".5" d="m330.8 550.5c-0.2 0.4 1.5-0.6 1.9-0.4 0.7 0.2 1.1 1.6 1.3 0.8 0.4-1.4 2.7-1.6 2.7-2.7 0-0.7 4.1-4.2 3.9-4.8-0.1-0.3 1.5-9.5 0.7-9.1-0.5 0.3-0.7-0.4-1.3-0.3-0.7 0.1-1.2 5.5-2.9 9.3-1.1 2.6-3.4 3.8-4.2 4.6-1.2 1-1.8 2.1-2.1 2.6z" />
	<path fill-rule="evenodd" fill="none" stroke="#000" stroke-width=".5" d="m327.9 557.4q0 0.1-0.1 0.1c0.2-0.2 0.1-0.2 0 0.2-0.2 0.4-0.2 0.6-0.4 1-0.2 0.3-0.4 0.5-0.6 0.9" />
	<path fill-rule="evenodd" fill="none" stroke="#000" stroke-width=".5" d="m327.2 557.5q-0.1 0-0.1 0.1c0.1-0.2 0.1-0.2-0.1 0.2-0.1 0.4-0.2 0.6-0.3 0.9-0.2 0.4-0.4 0.6-0.6 0.9" />
	<path fill-rule="evenodd" fill="none" stroke="#000" stroke-width=".5" d="m328.6 557.4q0 0.1 0 0.1c0.1-0.2 0.1-0.2-0.1 0.2-0.2 0.4-0.2 0.6-0.4 1-0.2 0.3-0.3 0.5-0.5 0.9" />
	<path fill-rule="evenodd" fill="none" stroke="#000" stroke-width=".5" d="m310.6 552.8c0.1-0.4 0.3-0.6 0.5-0.9" />
	<path fill-rule="evenodd" fill="none" stroke="#000" stroke-width=".5" d="m310.9 553.4c0.2-0.3 0.6-1 0.8-1.3" />
	<path fill-rule="evenodd" fill="none" stroke="#000" stroke-width=".5" d="m311.7 553.3c0.2-0.3 0.3-0.5 0.5-0.9" />
	<path fill-rule="evenodd" fill="none" stroke="#000" stroke-width=".5" d="m335 553.6q-0.1-0.1-0.1-0.1c0.1 0.2 0.1 0.1-0.2-0.2-0.2-0.3-0.4-0.5-0.6-0.8-0.2-0.3-0.3-0.6-0.5-0.9" />
	<path fill-rule="evenodd" fill="none" stroke="#000" stroke-width=".5" d="m336.2 550.4q-0.1 0-0.2 0c0.3 0 0.2 0-0.2 0.1-0.4 0.2-0.5 0.3-0.9 0.4-0.4 0.1-0.7 0.1-1.1 0.2" />
	<path fill-rule="evenodd" fill="none" stroke="#000" stroke-width=".5" d="m341.9 534q0.1 0.1 0.1 0.2c-0.1-0.3-0.1-0.2 0.1 0.2 0.1 0.3 0.2 0.5 0.4 0.9 0.1 0.4 0.1 0.7 0.2 1" />
	<path fill-rule="evenodd" fill="none" stroke="#000" stroke-width=".5" d="m340.7 534.4q0 0.1 0 0.1c0-0.2 0-0.2 0 0.2-0.1 0.4-0.1 0.7-0.1 1-0.1 0.4-0.2 0.7-0.3 1.1" />
	<path fill-rule="evenodd" fill="none" stroke="#000" stroke-width=".5" d="m346 535c-0.4-0.7-1.8-1.9-2.7-2.1-0.9-0.2-0.9-0.2-0.9-0.2" />
	<path fill-rule="evenodd" fill="none" stroke="#000" stroke-width=".5" d="m347.5 538.6c0.1 1.4-1.9 5-2.2 5.4-0.4 0.4-0.4 0.4-0.4 0.4" />
	<path fill="#000" d="m324.9 525q0.5 0.1 1.1 0c1.7 0-0.4 0.1 0 0 0.4-0.1 0.8-0.3 1.2-0.6l1.4-0.8c-0.3 0.4-0.8 1.7-1.3 1.7-0.8 0.2-1.7 0-2.6 0.1q-0.5 0-1.1 0z" />
	<path fill-rule="evenodd" fill="none" stroke="#000" stroke-width=".5" d="m271.9 635.9c0 0.1-0.2 0.4-0.3 0.7q-0.2 0.3-0.4 0.7c-0.2 0.2-0.3 0.4-0.5 0.5q-0.1 0.1-0.1 0.2" />
	<path fill-rule="evenodd" fill="none" stroke="#000" stroke-width=".5" d="m272.6 635.8c0 0.1-0.2 0.4-0.3 0.7q-0.2 0.3-0.4 0.7c-0.1 0.2-0.3 0.4-0.5 0.5q0 0.1-0.1 0.2" />
	<path fill-rule="evenodd" fill="none" stroke="#000" stroke-width=".5" d="m276 618.6c0 0.1 0 0.5 0.1 0.7q0 0.4 0 0.8c-0.1 0.3-0.1 0.6-0.2 0.8q0 0.1 0 0.1" />
	<path fill-rule="evenodd" fill="none" stroke="#000" stroke-width=".5" d="m276.5 618.7c0 0.1 0.2 0.4 0.3 0.6q0.2 0.4 0.4 0.8c0 0.2 0.1 0.5 0.1 0.7q0 0.1 0.1 0.2" />
	<path fill-rule="evenodd" fill="none" stroke="#000" stroke-width=".5" d="m269 632.4c-0.1 0-0.5 0-0.7 0q-0.4 0.1-0.8 0.1c-0.3-0.1-0.6-0.1-0.7-0.2q-0.1 0-0.2 0" />
	<path fill-rule="evenodd" fill="none" stroke="#000" stroke-width=".5" d="m269.7 634.1c-0.1 0-1.7 0.3-1.9 0.3q-0.4 0.1-0.8 0.1c-0.3 0-0.6 0-0.8 0q-0.1 0-0.2 0" />
	<path fill-rule="evenodd" fill="none" stroke="#000" stroke-width=".5" d="m266.4 638.6c-0.3-0.3 0-1.4 0-1.7 0-0.3 0.1-0.3 0.1-0.3" />
	<path fill-rule="evenodd" fill="none" stroke="#000" stroke-width=".5" d="m267.1 638.4c-0.2-0.3 0-1.3 0.1-1.6 0-0.3 0-0.4 0-0.4" />
	<path fill="#999" stroke="#000" stroke-width=".5" d="m341.4 644c-1.2-0.8-1.7-1.7-2.7-1.3-1 0.5-1 0.9-1 0.9 0 0 0-2.6-0.8-4.4 0.6-1.2 1.9-1.9 3.5-1.9 0.8-0.2 2.4 7.7 1 6.7z" />
	<path fill="#999" stroke="#000" stroke-width=".5" d="m331 659.1c-1.7 0.8-2.1-0.7-4.1-1.1 0.7-1.6 5.1-7.4 5.6-8.1 0.8-1.6 1-5.2 1.2-5.9 1.1-3.7 2.1-2.3 3.4-2.5 1.2-0.7 1.2-1.4 1.6-0.8 0.5 0.6 1.9 6.3 1.8 7-0.3 2.2-2 3.8-3.6 5.6-1.6 2-4.2 5.1-5.9 5.8z" />
	<path fill="#999" stroke="#000" stroke-width=".5" d="m336.8 641.3c0.1-0.1 0.8-0.9 0.4-1.8-0.6-0.6 1.9 0.4 1.5 1.2-0.6 0.6-1.9 0.7-1.9 0.6z" />
	<path fill="#999" stroke="#000" stroke-width=".5" d="m332 671.3c-0.1-0.5 0.4-1.3 0.3-2.2-1.5-0.9-2.7 1-2.5 1.1 0 0 1.9 1.1 2.2 1.1z" />
	<path fill="#999" stroke="#000" stroke-width=".5" d="m348.8 650c-1.2 0.6-1.5 1.7-1.6 2.8-0.2 1.1-0.4 2.2-1.7 2.5-1.4-0.5-3.5-3.4-3.5-3.4 0-0.4 1.1-1.4 0.9-2.5-0.2-1.6 1-2.2 2.1-2.8 1.1-0.6 5.4 2.8 3.8 3.4z" />
	<path fill="#999" stroke="#000" stroke-width=".5" d="m353.9 641.7c-0.1 1.2-1 3.4-2.6 4-1.2 0.5-1.2 3.7-1.3 4.8-0.2 1-4.4-2.5-4.5-3.6-0.2-1.6 0.7-4 1.8-4.6 1.1-0.6 2.4-1.3 2.7-2 0.2-0.8-0.4-1.6 0.1-2.1 0 0 3.9 2.2 3.8 3.5z" />
	<path fill="#999" stroke="#000" stroke-width=".5" d="m348.1 638.1c-0.5-0.6 2.2-0.8 2.2 1-0.1 1.6-2 2.8-1.9 2.5 0.3-0.9 0-3-0.3-3.5z" />
	<path fill="#999" stroke="#000" stroke-width=".5" d="m342.9 650.3c0 1.5-1.1 1.9-1.4 0.9-0.5-1.4-0.7-1.2-0.1-1.4 0.4-0.1 1.1 0.3 1.5 0.5z" />
	<path fill-rule="evenodd" fill="none" stroke="#000" stroke-width=".5" d="m359.6 497.8l-0.1 202.8" />
	<path fill="#ed1c24" d="m284.3 498l-0.2 69.4-58.5-0.1c0.2 6.1 0 10.3 0.8 16.9l57.7-0.1v97.9c5.5 3.4 11 6.3 17.2 9.3v-107.2h58v-16.8l-58 0.1v-69.4z" />
	<path fill="#ed1c24" d="m404.2 498.2h14.8v187.9c-4 2.1-9.8 4.8-14.7 6.4z" />
	<path fill="#ed1c24" d="m433.7 498.3h14.8v166.6c-2.8 2.7-9.7 9-14.7 12.3z" />
	<path fill="#ed1c24" d="m463.2 498.4h14.8v125c-1.8 4.5-10.5 19.6-14.8 24.4z" />
	<path fill-rule="evenodd" fill="none" stroke="#000" stroke-width=".5" d="m342.4 623.1c0.1 0.1 0.5 0.3 0.7 0.4q0.3 0.3 0.7 0.5c0.2 0.2 0.4 0.4 0.5 0.5q0 0.1 0.1 0.1" />
	<path fill-rule="evenodd" fill="none" stroke="#000" stroke-width=".5" d="m342.6 627c-0.1-0.1-0.3-0.5-0.4-0.7q-0.1-0.4-0.3-0.7c-0.1-0.3-0.2-0.6-0.2-0.8q0-0.1 0-0.1" />
	<path fill-rule="evenodd" fill="none" stroke="#000" stroke-width=".5" d="m311.7 671.1c-0.1 0-0.5 0.2-0.7 0.3q-0.4 0.1-0.8 0.2c-0.3 0.1-0.5 0.1-0.8 0.1q0 0-0.1 0.1" />
	<path fill-rule="evenodd" fill="none" stroke="#000" stroke-width=".5" d="m311.8 671.8c-0.1 0.1-0.2 0.2-0.4 0.3q-0.4 0.1-0.8 0.3c-0.3 0-0.6 0.1-0.8 0q0 0.1-0.1 0.1" />
	<path fill-rule="evenodd" fill="none" stroke="#000" stroke-width=".5" d="m325.9 660.3c-0.1 0-1.7 1-1.9 1.1q-0.4 0.1-0.8 0.3c-0.2 0-0.5 0-0.7 0-0.1 0-0.9-0.1-1-0.1" />
	<path fill-rule="evenodd" fill="none" stroke="#000" stroke-width=".5" d="m336.8 676.8c-0.1-0.1-1.7-1-1.9-1.2q-0.3-0.2-0.5-0.5c-0.2-0.2-0.4-0.4-0.5-0.6 0-0.1-0.3-0.9-0.3-0.9" />
	<path fill-rule="evenodd" fill="none" stroke="#000" stroke-width=".5" d="m334.6 646.4c0 0.1 0 2-0.1 2.3q0 0.3-0.1 0.7c-0.1 0.3-0.3 0.6-0.4 0.7 0 0.1-0.6 0.7-0.6 0.8" />
	<path fill="#e3e4e5" stroke="#000" stroke-width=".5" d="m338.9 639.1c0.1 0 0.5-0.2 0.7-0.3q0.3-0.2 0.7-0.4c0.3 0 0.5-0.1 0.8-0.1q0 0 0.1-0.1" />
	<path fill-rule="evenodd" fill="none" stroke="#000" stroke-width=".5" d="m338.9 640c0.1-0.1 0.5-0.2 0.7-0.4q0.3-0.1 0.7-0.3c0.3-0.1 0.5-0.1 0.8-0.1q0-0.1 0.1-0.1" />
</svg>