<svg xmlns="http://www.w3.org/2000/svg" id="flag-icons-es-an" viewBox="0 0 800 600">
	<linearGradient id="a" x2="1" gradientUnits="userSpaceOnUse" gradientTransform="matrix(0,-70.649,154.875,0,401.024,437.6)">
		<stop offset="0" stop-color="#ffda0f" />
		<stop offset=".5" stop-color="#fff" />
		<stop offset="1" stop-color="#ffda0f" />
	</linearGradient>
	<linearGradient id="b" x2="1" gradientUnits="userSpaceOnUse" gradientTransform="matrix(25.644,0,0,137.399,329.474,310.155)">
		<stop offset="0" stop-color="#bcbec0" />
		<stop offset=".473" stop-color="#fff" />
		<stop offset="1" stop-color="#bcbec0" />
	</linearGradient>
	<linearGradient id="c" x2="1" gradientUnits="userSpaceOnUse" gradientTransform="matrix(40.418,0,0,18.472,321.85,244.166)">
		<stop offset="0" stop-color="#ffda0f" />
		<stop offset=".473" stop-color="#fff" />
		<stop offset="1" stop-color="#ffda0f" />
	</linearGradient>
	<linearGradient id="d" href="#b" x2="1" gradientUnits="userSpaceOnUse" gradientTransform="matrix(25.644,0,0,137.399,445.343,310.155)" />
	<linearGradient id="e" href="#c" x2="1" gradientUnits="userSpaceOnUse" gradientTransform="matrix(40.418,0,0,18.472,437.732,244.166)" />
	<rect width="800" height="600" x="0" y="0" fill="#fff" />
	<rect width="800" height="200" x="0" y="0" fill="#063" />
	<rect width="800" height="200" x="0" y="400" fill="#063" />
	<g>
		<path fill="#063" stroke="#0b0707" stroke-width=".6" d="m472.3 376.3v21.5h-142.5v-21.5z" />
		<path fill="#063" stroke="#0b0707" stroke-width=".6" d="m472.3 411.7v18.6h-142.5v-18.6z" />
		<path fill="#fff" stroke="#0b0707" stroke-width=".6" d="m472.3 397.8v13.9h-142.5v-13.9z" />
		<path fill="url(#a)" stroke="#0b0707" stroke-width=".6" fill-rule="evenodd" d="m453.4 367.2v6.6h9.8c1.6-1.4 3.6-2.2 5.8-2.2 2.3 0 4.3 0.8 5.8 2.2h0.2c1.7 1.6 2.8 4 2.8 6.5 0 2.6-1.1 4.9-2.8 6.5v29.3c1.2 1.8 2 4.1 2 6.5 0 6.6-5.3 11.9-11.9 11.9h-52.8c-0.9 1.6-2.8 2.7-5 2.7-2.3 0-4.1-1.1-5.1-2.7h-2.7c-0.9 1.7-2.8 2.8-5.1 2.8-2.3 0-4.2-1.1-5.1-2.8h-52.8c-6.5 0-11.9-5.3-11.9-11.9 0-2.7 1-5.1 2.5-7.1v-28.7c-1.8-1.6-2.9-4-2.9-6.5 0-2.5 1.1-4.8 2.9-6.4l0.1-0.1c1.6-1.4 3.6-2.2 5.8-2.2 2.2 0 4.3 0.8 5.8 2.2h7.1v-6.6c0 0 107.5 0 107.5 0zm3.8 11h-112.6c1.1 1.2 1.8 2.8 1.8 4.6 0 3.3-2.4 6.1-5.5 6.8l-8 10.3v18.8c1.1-0.7 2.4-1.2 3.9-1.2 3.7 0 6.8 3.1 6.8 6.9q-0.1 0.2-0.1 0.4h4.3l3.9 3.9h31.4c0.3-0.6 0.9-0.9 1.6-0.9 0.7 0 1.3 0.3 1.6 0.9h0.5c1-2.6 3.4-4.5 6.3-4.5 2.9 0 5.4 1.9 6.4 4.5h2.5c0.9-2.7 3.4-4.6 6.4-4.6 2.9 0 5.4 1.9 6.4 4.6h0.4c0.3-0.6 0.9-0.9 1.6-0.9 0.7 0 1.3 0.3 1.6 0.9h32.1l3.8-3.8h4.1q-0.1-0.5-0.1-1c0-3.8 3.1-6.9 6.9-6.9 1.5 0 3 0.5 4.1 1.4v-0.6q0 0 0 0v-17.5l-8.3-10.7c-3.1-0.7-5.5-3.5-5.5-6.8 0-1.8 0.7-3.4 1.7-4.6z" />
		<path fill="none" stroke="#0b0707" stroke-width=".6" fill-rule="evenodd" d="m462.7 382c-0.4 0.5 0.4 0.7 0.7 0.5 0.9-0.3 0.9-1.5 0.4-2.1-0.9-1.1-2.5-1-3.5-0.1-1.4 1.3-1.2 3.5 0.1 4.8 1.7 1.7 4.6 1.4 6.2-0.3 2-2.2 1.6-5.6-0.6-7.5-2.6-2.3-6.6-1.8-8.8 0.8-2.7 3-2 7.6 1 10.1" />
		<path fill="none" stroke="#0b0707" stroke-width=".6" fill-rule="evenodd" d="m339.4 382c0.4 0.5-0.5 0.7-0.8 0.5-0.8-0.3-0.8-1.5-0.3-2.1 0.8-1.1 2.5-1 3.5-0.1 1.4 1.3 1.2 3.5-0.1 4.8-1.8 1.7-4.6 1.4-6.2-0.3-2-2.2-1.6-5.6 0.5-7.5 2.7-2.3 6.7-1.8 8.9 0.8 2.6 3 2 7.6-1 10.1" />
		<path fill="none" stroke="#0b0707" stroke-width=".6" fill-rule="evenodd" d="m465.7 423.5c0-0.5-0.6-0.2-0.8 0-0.5 0.6 0.1 1.4 0.8 1.6 1.1 0.4 2.3-0.4 2.5-1.5 0.4-1.5-0.8-3-2.4-3.3-2-0.4-3.9 1.2-4.2 3.1-0.5 2.4 1.5 4.6 4 4.9 2.9 0.5 5.6-1.8 6-4.6 0.4-3.3-2.3-6.2-5.6-6.6" />
		<path fill="none" stroke="#0b0707" stroke-width=".6" fill-rule="evenodd" d="m336.3 423.9c0-0.5 0.7-0.2 0.9 0 0.4 0.6-0.2 1.4-0.8 1.6-1.2 0.4-2.3-0.4-2.6-1.5-0.4-1.5 0.9-3 2.4-3.3 2.1-0.4 4 1.1 4.3 3.1 0.4 2.4-1.5 4.6-4 4.9-3 0.4-5.7-1.8-6-4.6-0.5-3.3 2.2-6.2 5.6-6.6" />
		<path fill="none" stroke="#0b0707" stroke-width=".6" fill-rule="evenodd" d="m393.8 431.4c-0.7 0.6 0.4 1.2 0.9 1.1 1.3-0.1 1.7-1.7 1.3-2.8-0.7-1.9-3.1-2.4-4.8-1.5-2.5 1.2-3.1 4.4-1.8 6.7" />
		<path fill="none" stroke="#0b0707" stroke-width=".6" fill-rule="evenodd" d="m407.8 431.4c0.6 0.6-0.4 1.2-0.9 1.1-1.3-0.1-1.7-1.7-1.3-2.8 0.7-1.9 3.1-2.4 4.8-1.5 2.5 1.2 3.1 4.4 1.8 6.7" />
		<path fill="#063" stroke="#0b0707" stroke-width=".6" d="m401.2 162.7c-39.6 0-71.7 31.1-71.7 69.4q0 1.5 0.1 3h24.6q0-0.2 0-0.3c0-25.9 20.9-46.9 46.6-46.9 25.7 0 46.6 21 46.6 46.9q0 0.1 0 0.3h25.4q0.1-1.5 0.1-3c0-38.3-32.1-69.4-71.7-69.4z" />
		<path fill="#fff" stroke="#0b0707" stroke-width=".6" d="m401 170.7c-34.9 0-63.2 27.9-63.2 62.4q0 0.7 0 1.3h8.3c-0.1-0.6-0.1-1.3-0.1-2 0-29.5 24.5-53.4 54.7-53.4 30.1 0 54.6 23.9 54.6 53.4 0 0.7 0 1.4-0.1 2h8.9q0-0.6 0.1-1.3c0-34.5-28.4-62.4-63.2-62.4z" />
		<path fill="url(#b)" stroke="#0b0707" stroke-width=".6" d="m330.4 246.4v125.9l3.1 0.9 3.5 0.6 3.5 0.2h4.3l4.5-0.6 4-1.1 0.9-0.1v-125.8c0 0-23.8 0-23.8 0z" />
		<path fill="url(#c)" stroke="#0b0707" stroke-width=".6" d="m325.9 235.1v1.5h1.8v2.8c-3.2 0.7-5.6 3.5-5.6 6.8 0 3.9 3.2 7.1 7.2 7.1 2.8 0 5.2-1.6 6.4-3.9h12.7c1.2 2.3 3.6 3.9 6.4 3.9 4 0 7.2-3.2 7.2-7.1 0-3.2-2.2-5.9-5.2-6.7v-2.9h1.6v-1.5z" />
		<path fill="none" stroke="#0b0707" stroke-width=".6" fill-rule="evenodd" d="m329.8 246.8c0.5 0.1 0.1 0.6-0.2 0.7-0.7 0.2-1.3-0.6-1.3-1.2 0-1.1 1.2-1.8 2.3-1.7 1.6 0.1 2.6 1.7 2.3 3.1-0.3 1.9-2.4 3.1-4.3 2.7-2.4-0.4-3.9-2.8-3.4-5.1 0.7-2.7 3.6-4.3 6.4-3.7 3.3 0.8 5.1 4 4.4 7.1q-0.1 0.4-0.3 0.8" />
		<path fill="none" stroke="#0b0707" stroke-width=".6" fill-rule="evenodd" d="m354.3 246.8c-0.5 0.1 0 0.6 0.2 0.7 0.8 0.2 1.3-0.6 1.3-1.2 0-1.1-1.2-1.9-2.3-1.7-1.6 0.1-2.5 1.7-2.3 3.1 0.3 1.9 2.4 3.1 4.3 2.7 2.5-0.4 3.9-2.8 3.4-5.1-0.6-2.7-3.6-4.3-6.4-3.7-3.2 0.7-5.1 4-4.3 7.1q0.1 0.4 0.2 0.8" />
		<path fill="#f7c500" stroke="#0b0707" stroke-width=".6" fill-rule="evenodd" d="m335.5 244h13" />
		<path fill="none" stroke="#0b0707" stroke-width=".6" fill-rule="evenodd" d="m336.2 249.2l3-4.3 3.1 4.3 3.2-4.3 2.6 4.2" />
		<path fill="#f7c500" stroke="#0b0707" stroke-width=".6" fill-rule="evenodd" d="m327.3 239.5l29.6-0.1" />
		<path fill="#f7c500" stroke="#0b0707" stroke-width=".6" fill-rule="evenodd" d="m328.1 236.5l29.8-0.1" />
		<path fill="url(#d)" stroke="#0b0707" stroke-width=".6" d="m446.3 246.4v125.9l3.5 0.9 3.5 0.6 3.4 0.2h4.4l4.5-0.6 4-1.1 0.5-0.1v-125.8z" />
		<path fill="url(#e)" stroke="#0b0707" stroke-width=".6" d="m441.8 235.1v1.5h1.8v2.8c-3.2 0.7-5.6 3.5-5.6 6.8 0 3.9 3.2 7.1 7.2 7.1 2.8 0 5.2-1.6 6.4-3.9h12.7c1.2 2.3 3.6 3.9 6.4 3.9 4 0 7.2-3.2 7.2-7.1 0-3.2-2.2-5.9-5.2-6.7v-2.9h1.6v-1.5z" />
		<path fill="none" stroke="#0b0707" stroke-width=".6" fill-rule="evenodd" d="m445.7 246.8c0.5 0.1 0.1 0.6-0.2 0.7-0.8 0.2-1.3-0.6-1.3-1.2 0-1.1 1.2-1.8 2.3-1.7 1.6 0.1 2.5 1.7 2.3 3.1-0.3 1.9-2.4 3.1-4.3 2.7-2.4-0.4-3.9-2.8-3.4-5.1 0.6-2.7 3.6-4.3 6.4-3.7 3.2 0.8 5.1 4 4.4 7.1q-0.1 0.4-0.3 0.8" />
		<path fill="none" stroke="#0b0707" stroke-width=".6" fill-rule="evenodd" d="m470.2 246.8c-0.5 0.1-0.1 0.6 0.2 0.7 0.8 0.2 1.3-0.6 1.3-1.2 0-1.1-1.2-1.9-2.3-1.7-1.6 0.1-2.5 1.7-2.3 3.1 0.3 1.9 2.4 3.1 4.3 2.7 2.4-0.4 3.9-2.8 3.4-5.1-0.6-2.7-3.6-4.3-6.4-3.7-3.2 0.7-5.1 4-4.4 7.1q0.1 0.4 0.3 0.8" />
		<path fill="#f7c500" stroke="#0b0707" stroke-width=".6" fill-rule="evenodd" d="m451.4 244h13" />
		<path fill="none" stroke="#0b0707" stroke-width=".6" fill-rule="evenodd" d="m452 249.2l3.1-4.3 3.1 4.3 3.2-4.3 2.6 4.2" />
		<path fill="#f7c500" stroke="#0b0707" stroke-width=".6" fill-rule="evenodd" d="m443.2 239.5l29.6-0.1" />
		<path fill="#f7c500" stroke="#0b0707" stroke-width=".6" fill-rule="evenodd" d="m444 236.5l29.8-0.1" />
		<path fill="#eac102" stroke="#0b0707" stroke-width=".5" fill-rule="evenodd" d="m347.5 224.8q0.9 0 1.5 0.7 0.6 0.8 0.5 1.8l-0.1 2.8h-0.4v-0.5l-13.9-0.7v0.5h-0.4l0.2-2.8q0-1 0.7-1.7 0.7-0.7 1.5-0.6c0 0 10.4 0.5 10.4 0.5zm0.9 1.6l-12.3-0.6q-0.3 0-0.6 0.2-0.2 0.2-0.3 0.6v0.7l13.9 0.7 0.1-0.7q0-0.4-0.2-0.6-0.3-0.3-0.6-0.3zm0.3-7.8q0.9 0.1 1.3 0.9 0.5 0.8 0.4 1.8-0.2 1-1 1.6-0.7 0.6-1.6 0.4l-10.4-1.7q-0.9-0.2-1.4-1-0.5-0.8-0.3-1.8 0.2-1 0.9-1.6 0.8-0.6 1.6-0.4zm0.6 1.7l-12.2-2.1q-0.4 0-0.7 0.2-0.2 0.2-0.3 0.5-0.1 0.3 0.1 0.6 0.2 0.3 0.6 0.3l12.3 2.1q0.3 0.1 0.6-0.1 0.3-0.2 0.3-0.5 0.1-0.4-0.1-0.6-0.2-0.3-0.6-0.4zm3.8-8.8l-0.8 2.4-0.4-0.1 0.2-0.4-9.5-3 9.5 4.1-0.4 1.3-10.4-1.9 9.6 3 0.1-0.5 0.4 0.2-0.5 1.4-0.4-0.1 0.2-0.5-13.3-4.2-0.1 0.5-0.4-0.1 0.7-2 11.3 2.1-10.4-4.6 0.6-2 0.4 0.1-0.2 0.5 13.3 4.1 0.2-0.5zm1.5-2.9l-1.2 2.4-0.3-0.2 0.2-0.4-12.7-5.6-0.2 0.4-0.3-0.1 1.1-2.4 0.4 0.1-0.3 0.5 12.7 5.6 0.2-0.5zm-9.3-12l-0.3 0.4 12.4 6.9-0.7 1.2-11.2-3.5 9.6 5.4 0.2-0.5 0.4 0.2-0.8 1.3-0.4-0.1 0.3-0.5-12-6.8-0.3 0.5-0.3-0.2 1.1-1.8 9.9 3.1-8.5-4.8-0.2 0.5-0.3-0.2 0.7-1.3zm16 2.3l-1.6 2.1-0.3-0.2 0.3-0.4-3.6-2.2-0.9 1.1 3.1 2.8 0.3-0.4 0.3 0.3-1 1.2-0.3-0.3 0.4-0.4-10.5-9.5 1-1.2 12.2 7.3 0.3-0.4zm-5.5-0.9l-6.8-4.2 5.9 5.3zm3-10.7l-1.1 1.1-2.8-2.8-0.6 0.5 9.9 9.5 0.3-0.3 0.3 0.2-1.9 1.9-0.3-0.3 0.4-0.3-9.9-9.5-0.5 0.5 2.8 2.7-1.1 1.1-3.1-3 4.5-4.3zm10.8 2q0.5 0.6 0.3 1.6-0.2 0.9-1 1.5-0.8 0.6-1.8 0.5-1 0-1.5-0.7l-6.4-8.2q-0.5-0.7-0.3-1.6 0.2-0.9 1-1.5 0.9-0.6 1.8-0.5 1 0 1.5 0.7zm-0.8 1.7l-7.5-9.6q-0.2-0.3-0.5-0.3-0.4-0.1-0.6 0.1-0.3 0.3-0.4 0.6 0 0.3 0.2 0.6l7.5 9.6q0.2 0.2 0.5 0.3 0.4 0 0.7-0.2 0.3-0.2 0.3-0.5 0-0.3-0.2-0.6zm8.1-3.5l-0.7 0.4q-1.3 0.7-2-0.6l-2.6-4.4q-0.1-0.3-0.5-0.4-0.3-0.1-0.6 0.1l-0.6 0.4 3.5 6 0.4-0.3 0.2 0.4-2.3 1.2-0.2-0.3 0.4-0.2-6.8-11.7-0.5 0.2-0.2-0.3 2.6-1.4q0.9-0.4 1.9-0.3 0.9 0.2 1.3 0.9l1.4 2.4q0.7 1.2-0.3 2.4 1.6-0.2 2.2 0.9l2.4 4.1q0.3 0.4 0.7 0.2h0.1c0 0 0.2 0.3 0.2 0.3zm-6.3-6.3l-2.3-3.9q-0.2-0.3-0.5-0.4-0.3-0.1-0.6 0.1l-0.7 0.3 3.2 5.3 0.6-0.3q0.3-0.2 0.4-0.5 0.1-0.3-0.1-0.6zm15.4 3l-2.6 0.9-0.1-0.4 0.5-0.1-2.2-6.6-1.6 0.5 2.2 6.6 0.5-0.2 0.1 0.4-2.5 0.8-0.2-0.4 0.5-0.1-4.4-12.7-0.4 0.1-0.2-0.3 2.6-0.9 0.1 0.4-0.5 0.1 2 5.9 1.6-0.5-2-5.9-0.5 0.2-0.1-0.3 2.6-0.9 0.1 0.4-0.5 0.1 4.4 12.8 0.5-0.2zm5.8-1.1l-5.2 1v-0.4l0.5-0.1-2.8-13.1-0.5 0.1-0.1-0.4 5.2-1 0.8 4.2-1.6 0.3-0.8-3.8-1.3 0.2 1.2 6 2-0.3v0.3l-1.9 0.4 1.4 6.8 1.4-0.3-0.8-3.8 1.6-0.3zm6.1-0.6q-1.5 0.1-1.6-1.3l-0.5-5q0-0.3-0.3-0.6-0.3-0.2-0.6-0.1h-0.7l0.6 6.9h0.5l0.1 0.3-2.7 0.3-0.1-0.4h0.6l-1.3-13.4-0.5 0.1-0.1-0.4 3-0.3q1-0.1 1.8 0.5 0.8 0.5 0.9 1.4l0.2 2.7q0.1 1.3-1.3 2 1.5 0.4 1.7 1.7l0.4 4.7q0.1 0.5 0.5 0.5h0.1c0 0 0 0.3 0 0.3zm-2.2-8.2l-0.5-4.5q0-0.4-0.3-0.6-0.2-0.2-0.6-0.2l-0.7 0.1 0.6 6.1 0.7-0.1q0.3 0 0.6-0.3 0.2-0.2 0.2-0.5zm8.9 6.3q0 0.9-0.8 1.4-0.7 0.6-1.8 0.6-1 0-1.7-0.6-0.8-0.6-0.8-1.5l0.3-10.2q0-0.8 0.7-1.4 0.8-0.6 1.8-0.6 1.1 0 1.8 0.6 0.7 0.7 0.7 1.5l-0.1 2.3-1.6-0.1v-3.1q0-0.4-0.2-0.6-0.2-0.2-0.6-0.2-0.3-0.1-0.6 0.2-0.2 0.2-0.3 0.5l-0.2 12q0 0.4 0.2 0.6 0.3 0.2 0.6 0.3 0.4 0 0.6-0.3 0.3-0.2 0.3-0.5v-3.2h1.7zm8.2-10.9h-0.5l-3.4 13.4-1.7-0.2 0.6-13.8-0.5-0.1 0.1-0.4 2.7 0.4-0.1 0.4-0.5-0.1-0.6 12.1 2.9-11.8-0.5-0.1v-0.3l1.6 0.2zm3.4 15l-5-1.3 0.1-0.4 0.5 0.2 3.6-13-0.5-0.1 0.1-0.4 2.6 0.7-0.1 0.3-0.5-0.1-3.5 13 1.2 0.3 1-3.8 1.6 0.5zm5.5 2l-4.9-1.9 0.2-0.3 0.5 0.2 5.1-12.5-0.5-0.2 0.1-0.3 4.9 1.9-1.6 3.9-1.6-0.6 1.5-3.6-1.2-0.5-2.4 5.7 1.9 0.7-0.2 0.3-1.8-0.7-2.7 6.5 1.3 0.5 1.5-3.6 1.5 0.6zm6.2 0.9q-0.4 0.7-1.3 1-0.9 0.2-1.8-0.3-0.9-0.5-1.2-1.3-0.3-0.9 0.1-1.6l1.1-2 1.5 0.7-1.6 2.8q-0.4 0.7 0.3 1.1 0.6 0.3 1-0.4l1.2-2.2q0.5-0.8 0.5-1.7l-0.3-3.8q-0.1-0.9 0.4-1.8l1-1.7q0.4-0.7 1.3-1 0.9-0.2 1.8 0.3 0.9 0.5 1.2 1.3 0.3 0.9-0.1 1.6l-1.1 2-1.5-0.8 1.6-2.7q0.4-0.7-0.3-1.1-0.6-0.3-1 0.4l-1.2 2.1q-0.5 0.8-0.4 1.7l0.3 3.8q0 0.9-0.5 1.8zm12.9-0.8l-1.3-1 2.5-3-1-0.8-4 4.8 1.5 1.1-0.2 0.3-1.5-1.1-4.5 5.4 0.4 0.3-0.2 0.3-2.1-1.6 0.2-0.3 0.4 0.3 8.7-10.5-0.5-0.3 0.3-0.3 4 3.1zm8 1.9l-0.4-0.3-11.1 8.8-1.2-1.1 9.1-10.8-0.4-0.3 0.3-0.3 1.9 1.9-0.3 0.2-0.3-0.3-8.1 9.3 9.7-7.8-0.4-0.3 0.3-0.3 1.1 1.1zm4.8 5.4l-0.3-0.3-11.1 8.7-0.8-1 7.2-8.9-8.6 6.8 0.4 0.3-0.3 0.3-1-1.2 0.3-0.2 0.3 0.4 10.8-8.5-0.3-0.4 0.2-0.2 1.4 1.5-6.5 8 7.6-6-0.3-0.4 0.3-0.3 1 1.2zm-5.9 12.5q-0.8 0.5-1.7 0.2-0.9-0.2-1.5-1.1l-1.6-2.4 0.3-0.2 0.3 0.5 11.7-7.3-0.3-0.4 0.4-0.2 1.6 2.3q0.5 0.9 0.4 1.8-0.1 0.9-0.9 1.4zm-1.7-0.9l10.3-6.4q0.3-0.2 0.4-0.5 0.1-0.3-0.1-0.6l-0.4-0.6-11.7 7.3 0.4 0.6q0.2 0.3 0.5 0.3 0.3 0.1 0.6-0.1zm2.8 7.4l-1.2-2.3 0.3-0.2 0.2 0.4 3.7-2.1-0.7-1.3-4 1.5 0.2 0.4-0.3 0.2-0.7-1.4 0.3-0.1 0.3 0.4 13.5-4.9 0.7 1.5-12.2 7.3 0.2 0.4zm3.4-4.3l6.8-4.1-7.5 2.8zm8.7 7.2l-0.5-1.4 3.8-1.3-0.3-0.7-13.1 4.4 0.1 0.5-0.3 0.1-0.9-2.4 0.3-0.1 0.2 0.4 13.1-4.5-0.2-0.6-3.8 1.3-0.5-1.4 4.1-1.5 2.1 5.7zm-6.4 8.6q-0.9 0.2-1.7-0.4-0.7-0.6-0.9-1.6-0.2-0.9 0.2-1.8 0.5-0.8 1.4-1l10.4-2q0.8-0.2 1.6 0.4 0.8 0.6 1 1.6 0.2 0.9-0.3 1.8-0.5 0.8-1.3 0.9zm-1.3-1.4l12.2-2.4q0.4 0 0.6-0.3 0.2-0.3 0.1-0.6-0.1-0.4-0.4-0.5-0.3-0.2-0.6-0.2l-12.2 2.5q-0.4 0-0.5 0.3-0.2 0.3-0.2 0.6 0.1 0.3 0.4 0.5 0.3 0.2 0.6 0.1zm-0.3 8.5v-0.7q-0.1-1.4 1.5-1.5l5.2-0.3q0.3 0 0.5-0.2 0.3-0.3 0.3-0.6l-0.1-0.7-7.2 0.4 0.1 0.5h-0.4l-0.2-2.6 0.4-0.1v0.5l14-0.7-0.1-0.5h0.4l0.2 2.8q0 1-0.6 1.8-0.6 0.7-1.4 0.8l-2.9 0.1q-1.3 0.1-2-1.3-0.5 1.4-1.9 1.5l-4.8 0.2q-0.6 0.1-0.6 0.5v0.1c0 0-0.4 0-0.4 0zm8.7-2.6l4.7-0.2q0.3 0 0.6-0.3 0.2-0.2 0.2-0.5v-0.7l-6.4 0.3v0.7q0.1 0.3 0.3 0.5 0.3 0.3 0.6 0.2z" />
		<path fill="#fc0" stroke="#0b0707" stroke-width=".5" fill-rule="evenodd" d="m350 393.5h-2.7l-0.3 1q-0.2 0.5-0.2 0.8 0 0.4 0.3 0.6 0.2 0.1 0.7 0.2v0.3h-2.5v-0.3q0.4-0.1 0.7-0.5 0.3-0.3 0.6-1.5l2.7-8h0.1l2.8 8.2q0.3 1.2 0.6 1.5 0.2 0.2 0.5 0.3v0.3h-3.6v-0.3h0.1q0.5 0 0.7-0.2 0.1-0.1 0.1-0.3 0-0.2-0.1-0.3 0-0.1-0.1-0.6zm-0.2-0.5l-1.1-3.5-1.2 3.5zm6.5-6.6l3.7 6.2v-4.3q0-0.9-0.2-1.3-0.2-0.4-0.9-0.4v-0.2h2.5v0.2q-0.5 0.1-0.6 0.2-0.2 0.2-0.3 0.5-0.1 0.3-0.1 1v8.3h-0.2l-5-8.3v6.4q0 0.8 0.3 1.1 0.3 0.3 0.6 0.3h0.2v0.3h-2.7v-0.3q0.7 0 0.9-0.3 0.3-0.3 0.3-1.1v-7.1l-0.2-0.3q-0.2-0.4-0.4-0.5-0.2-0.2-0.6-0.2v-0.2c0 0 2.7 0 2.7 0zm5.5 9.7h0.3q0.3 0 0.5-0.1 0.2-0.1 0.3-0.4 0-0.1 0-0.9v-6.6q0-0.8-0.1-1 0-0.2-0.2-0.3-0.2-0.2-0.5-0.2h-0.3v-0.2h3.4q1.4 0 2.2 0.4 1 0.6 1.5 1.9 0.5 1.2 0.5 2.7 0 1.1-0.2 2-0.3 0.9-0.7 1.4-0.4 0.6-0.9 1-0.6 0.3-1.3 0.5-0.4 0.1-1.1 0.1c0 0-3.4 0-3.4 0zm2.9-9.2v7.8q0 0.7 0.1 0.8 0 0.1 0.1 0.2 0.2 0.1 0.4 0.1 1 0 1.5-0.8 0.6-1.2 0.6-3.6 0-1.9-0.4-3-0.4-0.9-1-1.3-0.4-0.2-1.3-0.2zm9.9 6.6h-2.6l-0.3 1q-0.2 0.5-0.2 0.8 0 0.4 0.3 0.6 0.1 0.1 0.7 0.2v0.3h-2.5v-0.3q0.4-0.1 0.7-0.4 0.2-0.4 0.6-1.6l2.7-8h0.1l2.7 8.3q0.4 1.1 0.7 1.4 0.1 0.3 0.5 0.3v0.3h-3.7v-0.3h0.2q0.4 0 0.6-0.2 0.1-0.1 0.1-0.3 0-0.1 0-0.3 0 0-0.2-0.5zm-0.2-0.6l-1.1-3.4-1.1 3.4zm10.8-0.1l-0.3 3.5h-6.6v-0.2h0.2q0.3 0 0.5-0.2 0.2-0.1 0.3-0.4 0-0.1 0-0.9v-6.6q0-0.8 0-1-0.1-0.2-0.3-0.3-0.2-0.1-0.5-0.1h-0.2v-0.3h4v0.3h-0.4q-0.3 0-0.5 0.1-0.1 0.1-0.2 0.4-0.1 0.1-0.1 0.9v6.4q0 0.8 0.1 1 0.1 0.2 0.2 0.3 0.2 0.1 0.7 0.1h0.6q0.6 0 1-0.3 0.4-0.3 0.7-0.9 0.3-0.6 0.6-1.8c0 0 0.2 0 0.2 0zm8.5-6.5v0.3q-0.4 0-0.7 0.5-0.2 0.4-0.7 1.8l-2.6 7.7h-0.2l-2.6-8q-0.4-1.5-0.6-1.7-0.1-0.3-0.6-0.3v-0.3h3.6v0.3h-0.1q-0.5 0-0.7 0.1-0.1 0.1-0.1 0.3 0 0.2 0.1 0.4 0 0.1 0.3 0.9l1.6 5 1.4-4.4q0.3-0.8 0.4-1.1 0-0.3 0-0.5 0-0.2-0.1-0.4 0-0.1-0.2-0.2-0.3-0.1-0.7-0.1v-0.3c0 0 2.5 0 2.5 0zm7.7-0.2v3.4h-0.2q-0.2-1.3-0.9-2.1-0.7-0.7-1.5-0.7-0.7 0-1.3 0.6-0.6 0.5-0.9 1.4-0.3 1.1-0.3 2.5 0 1.3 0.2 2.4 0.3 1.1 0.8 1.7 0.6 0.6 1.5 0.6 0.7 0 1.3-0.5 0.5-0.4 1.2-1.4v0.9q-0.6 0.9-1.3 1.3-0.7 0.4-1.6 0.4-1.2 0-2.2-0.7-0.9-0.6-1.4-1.8-0.5-1.2-0.5-2.6 0-1.4 0.6-2.7 0.5-1.3 1.5-2 0.9-0.7 2-0.7 0.8 0 1.7 0.4 0.5 0.3 0.6 0.3 0.2 0 0.3-0.2 0.2-0.2 0.2-0.5zm4.8 10v0.2h-3.9v-0.2h0.2q0.3 0 0.5-0.2 0.2-0.1 0.3-0.4 0-0.1 0-0.9v-6.6q0-0.8 0-1-0.1-0.2-0.3-0.3-0.2-0.1-0.5-0.1h-0.2v-0.3h3.9v0.3h-0.3q-0.3 0-0.5 0.1-0.1 0.1-0.2 0.4-0.1 0.1-0.1 0.9v6.6q0 0.8 0.1 1 0.1 0.2 0.2 0.3 0.2 0.2 0.5 0.2zm5-2.6h-2.6l-0.3 0.9q-0.2 0.5-0.2 0.9 0 0.4 0.3 0.6 0.1 0.1 0.7 0.2v0.2h-2.5v-0.2q0.4-0.1 0.7-0.5 0.2-0.4 0.6-1.5l2.7-8h0.1l2.7 8.2q0.4 1.2 0.6 1.5 0.2 0.2 0.6 0.3v0.2h-3.7v-0.2h0.2q0.4 0 0.6-0.2 0.1-0.1 0.1-0.3 0-0.2 0-0.3 0-0.1-0.2-0.6c0 0-0.4-1.2-0.4-1.2zm-0.2-0.6l-1.1-3.4-1.1 3.4zm9.5-1.1v2.8q0 0.8 0.1 1 0.1 0.2 0.3 0.3 0.2 0.2 0.7 0.2v0.2h-3.8v-0.2q0.5 0 0.7-0.2 0.2-0.1 0.2-0.3 0.1-0.2 0.1-1v-6.6q0-0.8-0.1-1 0-0.2-0.2-0.3-0.2-0.1-0.7-0.1v-0.3h3.2q1.7 0 2.4 0.8 0.7 0.7 0.7 1.9 0 1-0.5 1.7-0.4 0.7-1.2 0.9-0.6 0.2-1.9 0.2zm0-4.9v4.3q0.2 0 0.3 0 0.7 0 1.1-0.5 0.3-0.6 0.3-1.7 0-1.1-0.3-1.6-0.4-0.5-1.1-0.5c0 0-0.3 0-0.3 0zm8.3-0.8q1.8 0 2.9 1.4 1.2 1.5 1.2 3.8 0 1.9-0.9 3.3-1.1 2-3.1 2-2 0-3.2-1.9-0.8-1.4-0.8-3.4 0-2.3 1.1-3.8 1.1-1.4 2.8-1.4zm0.1 0.5q-1.1 0-1.6 1.4-0.4 1.2-0.4 3.3 0 2.6 0.6 3.8 0.5 0.9 1.4 0.9 0.5 0 0.9-0.4 0.5-0.4 0.8-1.5 0.3-1 0.3-2.7 0-2-0.3-3-0.3-1-0.7-1.4-0.5-0.4-1-0.4zm7.4 5.2v2.8q0 0.8 0 1 0.1 0.2 0.3 0.3 0.2 0.2 0.7 0.2v0.2h-3.8v-0.2q0.5 0 0.7-0.2 0.2-0.1 0.2-0.3 0.1-0.2 0.1-1v-6.6q0-0.8-0.1-1 0-0.2-0.2-0.3-0.2-0.1-0.7-0.1v-0.3h3.5q1.3 0 2 0.2 0.6 0.3 1 1 0.4 0.6 0.4 1.6 0 1.1-0.6 1.8-0.4 0.5-1.1 0.7l1.8 3.4q0.4 0.6 0.5 0.8 0.3 0.2 0.6 0.3v0.2h-2.4l-2.4-4.5c0 0-0.5 0-0.5 0zm0-5v4.4h0.3q0.8 0 1.1-0.2 0.4-0.2 0.6-0.6 0.3-0.5 0.3-1.3 0-1.2-0.4-1.7-0.4-0.6-1.3-0.6zm13.4 2.6h-0.2q-0.2-1.3-0.8-2-0.7-0.8-1.4-0.8-0.6 0-0.9 0.4-0.3 0.4-0.3 0.9 0 0.4 0.1 0.6 0.2 0.4 0.5 0.7 0.3 0.3 1.2 0.9 1.3 0.9 1.8 1.6 0.5 0.8 0.5 1.8 0 1.3-0.8 2.2-0.7 0.9-1.8 0.9-0.4 0-0.7-0.1-0.3-0.1-0.8-0.4-0.3-0.1-0.4-0.1-0.2 0-0.3 0.1-0.2 0.2-0.3 0.5h-0.2v-3.8h0.2q0.2 1.6 0.9 2.4 0.7 0.8 1.5 0.8 0.7 0 1-0.4 0.4-0.5 0.4-1.1 0-0.3-0.2-0.6-0.1-0.4-0.4-0.7-0.3-0.3-1-0.8-1-0.6-1.5-1.1-0.4-0.5-0.7-1.1-0.2-0.6-0.2-1.3 0-1.2 0.7-2 0.6-0.8 1.6-0.8 0.4 0 0.7 0.1 0.3 0.1 0.7 0.3 0.3 0.2 0.5 0.2 0.1 0 0.2-0.1 0.1-0.1 0.2-0.5c0 0 0.1 0 0.1 0zm5.1 6.6v0.3h-3.9v-0.3h0.2q0.4 0 0.6-0.1 0.1-0.2 0.2-0.4 0-0.2 0-0.9v-6.6q0-0.8 0-1-0.1-0.2-0.3-0.3-0.1-0.2-0.5-0.2h-0.2v-0.3h3.9v0.3h-0.2q-0.4 0-0.6 0.2-0.1 0.1-0.2 0.3 0 0.2 0 1v6.6q0 0.7 0 0.9 0.1 0.2 0.3 0.4 0.2 0.1 0.5 0.1c0 0 0.2 0 0.2 0z" />
		<path fill="#fc0" stroke="#0b0707" stroke-width=".5" fill-rule="evenodd" d="m362.8 405.5v2.5q0 0.7 0 0.9 0.1 0.1 0.3 0.3 0.2 0.1 0.7 0.1v0.2h-3.8v-0.2q0.5 0 0.7-0.2 0.2-0.1 0.2-0.2 0.1-0.2 0.1-0.9v-5.8q0-0.7-0.1-0.9 0-0.2-0.2-0.3-0.2-0.1-0.7-0.1v-0.2h3.3q1.6 0 2.3 0.6 0.7 0.7 0.7 1.7 0 0.9-0.4 1.5-0.5 0.6-1.3 0.8-0.5 0.2-1.8 0.2zm0-4.3v3.8q0.2 0 0.3 0 0.6 0 1-0.5 0.4-0.4 0.4-1.4 0-1-0.4-1.5-0.4-0.4-1.1-0.4c0 0-0.2 0-0.2 0zm8.7 5.8h-2.7l-0.3 0.8q-0.2 0.5-0.2 0.8 0 0.3 0.3 0.5 0.1 0.1 0.7 0.2v0.2h-2.5v-0.2q0.4-0.1 0.6-0.4 0.3-0.4 0.7-1.4l2.7-7h0.1l2.8 7.2q0.4 1.1 0.6 1.3 0.2 0.2 0.5 0.3v0.2h-3.6v-0.2h0.1q0.5 0 0.6-0.2 0.2-0.1 0.2-0.3 0-0.1-0.1-0.2 0-0.1-0.1-0.5c0 0-0.4-1.1-0.4-1.1zm-0.2-0.5l-1.2-3-1.1 3zm6.7-1v2.5q0 0.7 0.1 0.9 0.1 0.1 0.3 0.3 0.2 0.1 0.7 0.1v0.2h-3.9v-0.2q0.5 0 0.7-0.2 0.2-0.1 0.3-0.2 0.1-0.2 0.1-0.9v-5.8q0-0.7-0.1-0.9-0.1-0.2-0.3-0.3-0.2-0.1-0.7-0.1v-0.2h3.5q1.4 0 2 0.2 0.7 0.2 1.1 0.8 0.4 0.6 0.4 1.4 0 1-0.6 1.6-0.4 0.4-1.1 0.6l1.8 3q0.4 0.6 0.5 0.7 0.3 0.2 0.6 0.3 0.4-0.1 0.6-0.4 0.3-0.4 0.7-1.4l2.7-7h0.1l2.8 7.2q0.3 1.1 0.6 1.3 0.2 0.2 0.5 0.3v0.2h-3.6v-0.2h0.1q0.5 0 0.6-0.2 0.2-0.1 0.2-0.3 0-0.1-0.1-0.2 0-0.1-0.1-0.5c0 0-0.4-1.1-0.4-1.1h-2.7l-0.4 0.8q-0.1 0.5-0.1 0.8 0 0.3 0.2 0.5 0.2 0.1 0.8 0.2v0.2h-2.5-2.4l-2.5-4c0 0-0.5 0-0.5 0zm0-4.4v3.9h0.4q0.7 0 1.1-0.2 0.4-0.1 0.6-0.6 0.2-0.4 0.2-1.1 0-1-0.4-1.5-0.4-0.5-1.3-0.5zm9.9 5.4l-1.2-3-1.1 3zm9.7-5.3v3.6h0.1q0.7 0 1.1-0.6 0.3-0.5 0.4-1.5h0.2v4.6h-0.2q-0.1-0.7-0.3-1.2-0.2-0.5-0.5-0.7-0.3-0.1-0.8-0.1v2.4q0 0.8 0 0.9 0.1 0.2 0.2 0.3 0.2 0.1 0.5 0.1h0.4q1.1 0 1.8-0.6 0.6-0.5 0.9-1.7h0.2l-0.4 2.8h-6.5v-0.2h0.2q0.4 0 0.6-0.2 0.1-0.1 0.2-0.3 0-0.1 0-0.8v-5.8q0-0.6 0-0.8 0-0.2-0.2-0.3-0.2-0.2-0.6-0.2h-0.2v-0.2h6.3v2.6h-0.2q-0.1-1-0.4-1.4-0.3-0.4-0.9-0.6-0.3-0.1-1.1-0.1c0 0-0.8 0-0.8 0zm9.9-0.7l0.1 2.9h-0.3q-0.1-1.1-0.8-1.8-0.6-0.6-1.3-0.6-0.6 0-0.9 0.3-0.4 0.4-0.4 0.8 0 0.3 0.1 0.5 0.2 0.4 0.6 0.7 0.2 0.2 1.2 0.7 1.3 0.8 1.8 1.5 0.4 0.6 0.4 1.5 0 1.1-0.7 1.9-0.8 0.8-1.9 0.8-0.4 0-0.7-0.1-0.3-0.1-0.8-0.3-0.2-0.1-0.4-0.1-0.2 0-0.3 0.1-0.2 0.1-0.3 0.4h-0.2v-3.3h0.2q0.3 1.4 1 2.1 0.7 0.8 1.5 0.8 0.6 0 1-0.4 0.3-0.4 0.3-1 0-0.3-0.1-0.6-0.1-0.3-0.4-0.5-0.3-0.3-1.1-0.7-1-0.6-1.5-1-0.4-0.4-0.6-1-0.3-0.5-0.3-1.1 0-1 0.7-1.8 0.6-0.7 1.7-0.7 0.3 0 0.7 0.1 0.2 0 0.6 0.3 0.4 0.2 0.5 0.2 0.2 0 0.3-0.1 0.1-0.1 0.1-0.5c0 0 0.2 0 0.2 0zm4.1 5v2.5q0 0.7 0.1 0.9 0 0.1 0.2 0.3 0.2 0.1 0.7 0.1v0.2h-3.8v-0.2q0.5 0 0.7-0.2 0.2-0.1 0.3-0.2 0-0.2 0-0.9v-5.8q0-0.7 0-0.9-0.1-0.2-0.3-0.3-0.2-0.1-0.7-0.1v-0.2h3.3q1.6 0 2.3 0.6 0.8 0.7 0.8 1.7 0 0.9-0.5 1.5-0.5 0.6-1.3 0.8-0.5 0.2-1.8 0.2zm0-4.3v3.8q0.2 0 0.3 0 0.7 0 1-0.5 0.4-0.4 0.4-1.4 0-1-0.4-1.5-0.3-0.4-1.1-0.4c0 0-0.2 0-0.2 0zm8.7 5.8h-2.7l-0.3 0.8q-0.2 0.5-0.2 0.8 0 0.3 0.3 0.5 0.1 0.1 0.7 0.2v0.2h-2.5v-0.2q0.4-0.1 0.7-0.4 0.2-0.4 0.6-1.4l2.7-7h0.1l2.8 7.2q0.4 1.1 0.6 1.3 0.2 0.2 0.6 0.3v0.2h-3.7v-0.2h0.1q0.5 0 0.7-0.2 0.1-0.1 0.1-0.3 0-0.1 0-0.2-0.1-0.1-0.2-0.5zm-0.2-0.5l-1.1-3-1.2 3zm6.6-5.8l3.7 5.4v-3.8q0-0.7-0.2-1-0.2-0.4-0.9-0.4v-0.2h2.5v0.2q-0.5 0.1-0.6 0.2-0.2 0.1-0.3 0.4-0.1 0.2-0.1 0.8v7.4h-0.2l-5.1-7.4v5.7q0 0.7 0.3 1 0.3 0.3 0.7 0.3h0.2v0.2h-2.7v-0.2q0.6 0 0.8-0.3 0.3-0.3 0.3-1v-6.3l-0.2-0.2q-0.2-0.4-0.4-0.5-0.2-0.1-0.5-0.1v-0.2c0 0 2.7 0 2.7 0zm2.7-2.6h0.3q0 0.1 0 0.2 0 0.7-0.3 1.1-0.4 0.5-0.9 0.5-0.3 0-0.9-0.3-0.5-0.3-0.7-0.3-0.2 0-0.3 0.1-0.1 0.1-0.2 0.5h-0.3q0-0.9 0.4-1.4 0.3-0.5 0.8-0.5 0.2 0 0.3 0.1 0.2 0 0.6 0.2 0.5 0.4 0.8 0.4 0.1 0 0.2-0.2 0.1-0.1 0.2-0.4zm7.5 8.9h-2.7l-0.3 0.8q-0.2 0.5-0.2 0.8 0 0.3 0.3 0.5 0.1 0.1 0.7 0.2v0.2h-2.5v-0.2q0.4-0.1 0.7-0.4 0.2-0.4 0.6-1.4l2.7-7h0.1l2.8 7.2q0.4 1.1 0.6 1.3 0.2 0.2 0.6 0.3v0.2h-3.7v-0.2h0.1q0.5 0 0.7-0.2 0.1-0.1 0.1-0.3 0-0.1 0-0.2-0.1-0.1-0.2-0.5zm-0.2-0.5l-1.1-3-1.2 3z" />
		<path fill="#fc0" stroke="#0b0707" stroke-width=".5" fill-rule="evenodd" d="m354.6 413.9v0.2q-0.4 0.1-0.6 0.3-0.3 0.3-0.9 1.6l-1.8 3.3v2.2q0 0.7 0.1 0.9 0.1 0.2 0.3 0.3 0.1 0.2 0.5 0.2h0.4v0.2h-4.4v-0.2h0.4q0.3 0 0.5-0.2 0.2-0.1 0.3-0.3 0-0.2 0-0.9v-1.8l-1.8-4q-0.6-1.1-0.8-1.3-0.2-0.3-0.6-0.3v-0.2h3.8v0.2h-0.2q-0.3 0-0.5 0.2-0.1 0.1-0.1 0.2 0 0.2 0.5 1.2l1.4 3.1 1.4-2.8q0.5-1 0.5-1.3 0-0.2-0.1-0.4-0.2-0.1-0.7-0.2v-0.2c0 0 2.4 0 2.4 0zm10.7 6l-0.3 3.2h-7.1v-0.2h0.3q0.3 0 0.6-0.2 0.1-0.1 0.2-0.3 0.1-0.2 0.1-0.9v-6q0-0.7-0.1-0.9-0.1-0.2-0.3-0.3-0.2-0.2-0.5-0.2h-0.3v-0.2h4.3v0.2h-0.4q-0.3 0-0.5 0.2-0.2 0.1-0.3 0.3 0 0.2 0 0.9v5.8q0 0.8 0 0.9 0.1 0.2 0.3 0.3 0.2 0.1 0.7 0.1h0.7q0.6 0 1-0.3 0.4-0.2 0.8-0.8 0.3-0.5 0.5-1.6zm5.5 0.6h-2.8l-0.4 0.9q-0.1 0.4-0.1 0.7 0 0.4 0.2 0.6 0.2 0.1 0.8 0.2v0.2h-2.6v-0.2q0.4-0.1 0.7-0.4 0.2-0.4 0.6-1.4l2.9-7.4h0.1l2.9 7.6q0.4 1 0.6 1.3 0.2 0.2 0.6 0.3v0.2h-3.8v-0.2h0.1q0.5 0 0.7-0.2 0.1-0.1 0.1-0.3 0-0.1 0-0.3-0.1 0-0.2-0.5zm-0.2-0.5l-1.2-3.1-1.2 3.1zm10.1-1.3v2.9q0 0.7 0.1 0.9 0.1 0.1 0.3 0.3 0.1 0.1 0.5 0.1h0.2v0.3h-4.1v-0.3h0.3q0.3 0 0.5-0.1 0.2-0.1 0.3-0.4 0-0.1 0-0.8v-6.1q0-0.7 0-0.9-0.1-0.1-0.3-0.3-0.2-0.1-0.5-0.1h-0.3v-0.3h4.1v0.3h-0.2q-0.4 0-0.6 0.1-0.1 0.1-0.2 0.4-0.1 0.1-0.1 0.8v2.6h2.8v-2.6q0-0.7 0-0.9-0.1-0.1-0.3-0.3-0.2-0.1-0.5-0.1h-0.3v-0.3h4.1v0.3h-0.2q-0.4 0-0.6 0.1-0.1 0.1-0.2 0.4-0.1 0.1-0.1 0.8v6.1q0 0.7 0.1 0.9 0.1 0.1 0.3 0.3 0.2 0.1 0.5 0.1h0.2v0.3h-4.1v-0.3h0.3q0.3 0 0.5-0.1 0.2-0.1 0.3-0.4 0-0.1 0-0.8v-2.9zm14.6-4.8v0.3q-0.4 0.1-0.8 0.5-0.2 0.4-0.7 1.6l-2.7 7.1h-0.2l-2.8-7.4q-0.5-1.3-0.6-1.5-0.2-0.2-0.6-0.3v-0.3h3.8v0.3h-0.2q-0.5 0-0.7 0.1-0.1 0.1-0.1 0.3 0 0.2 0 0.3 0.1 0.2 0.4 0.9l1.6 4.6 1.6-4.1q0.3-0.7 0.4-1 0-0.2 0-0.4 0-0.2-0.1-0.4-0.1-0.1-0.3-0.2-0.2-0.1-0.6-0.1v-0.3c0 0 2.6 0 2.6 0zm5.8 6.1l2.2-6.1h3.2v0.3h-0.3q-0.3 0-0.5 0.1-0.2 0.1-0.3 0.4 0 0.1 0 0.8v6.1q0 0.7 0 0.9 0.1 0.1 0.3 0.3 0.2 0.1 0.5 0.1h0.3v0.3h-4.1v-0.3h0.2q0.4 0 0.6-0.1 0.1-0.1 0.2-0.4 0.1-0.1 0.1-0.8v-6.9l-3.1 8.5h-0.1l-3.1-8.4v6.5q0 0.7 0 0.8 0.1 0.4 0.4 0.6 0.2 0.2 0.8 0.2v0.3h-2.7v-0.3q0.3 0 0.5-0.1 0.3-0.1 0.4-0.3 0.1-0.1 0.2-0.5 0 0 0-0.7v-5.8q0-0.7-0.1-0.9-0.1-0.1-0.3-0.3-0.2-0.1-0.5-0.1h-0.2v-0.3h3.2c0 0 2.2 6.1 2.2 6.1zm10.6 0.5h-2.8l-0.3 0.9q-0.2 0.5-0.2 0.8 0 0.4 0.3 0.5 0.1 0.2 0.7 0.2v0.3h-2.6v-0.3q0.4-0.1 0.7-0.4 0.3-0.3 0.7-1.4l2.8-7.4h0.1l2.9 7.6q0.4 1.1 0.7 1.4 0.2 0.2 0.5 0.2v0.3h-3.8v-0.3h0.1q0.5 0 0.7-0.1 0.1-0.1 0.1-0.4 0-0.1 0-0.2 0-0.1-0.2-0.5zm-0.2-0.5l-1.2-3.2-1.2 3.2zm6.9-6.1l3.9 5.7v-4q0-0.8-0.2-1.1-0.3-0.4-1-0.4v-0.2h2.7v0.2q-0.5 0.1-0.7 0.2-0.2 0.2-0.3 0.4-0.1 0.3-0.1 0.9v7.7h-0.2l-5.3-7.7v5.9q0 0.8 0.3 1.1 0.3 0.3 0.7 0.3h0.2v0.2h-2.8v-0.2q0.6 0 0.9-0.4 0.2-0.3 0.2-1v-6.5l-0.1-0.2q-0.3-0.4-0.5-0.5-0.2-0.1-0.5-0.2v-0.2c0 0 2.8 0 2.8 0zm10 9v0.2h-4.1v-0.2h0.2q0.4 0 0.6-0.2 0.2-0.1 0.2-0.3 0.1-0.2 0.1-0.9v-6q0-0.7-0.1-0.9 0-0.2-0.2-0.3-0.2-0.2-0.6-0.2h-0.2v-0.2h4.1v0.2h-0.2q-0.4 0-0.6 0.2-0.1 0.1-0.2 0.3-0.1 0.2-0.1 0.9v6q0 0.7 0.1 0.9 0 0.2 0.2 0.3 0.2 0.2 0.6 0.2zm0.4 0.2v-0.2h0.3q0.3 0 0.5-0.2 0.2-0.1 0.3-0.3 0-0.2 0-0.9v-6q0-0.7-0.1-0.9 0-0.2-0.2-0.3-0.2-0.2-0.5-0.2h-0.3v-0.2h3.5q1.5 0 2.3 0.4 1.1 0.6 1.6 1.7 0.6 1.1 0.6 2.5 0 1-0.3 1.8-0.3 0.8-0.7 1.4-0.4 0.5-1 0.8-0.5 0.4-1.3 0.5-0.4 0.1-1.2 0.1c0 0-3.5 0-3.5 0zm3-8.7v7.2q0 0.6 0.1 0.7 0 0.1 0.1 0.2 0.2 0.1 0.5 0.1 1 0 1.5-0.8 0.7-1 0.7-3.2 0-1.8-0.5-2.9-0.4-0.8-1-1.1-0.4-0.2-1.4-0.2zm10.5 6.1h-2.8l-0.4 0.9q-0.1 0.4-0.1 0.7 0 0.4 0.2 0.6 0.2 0.1 0.8 0.2v0.2h-2.6v-0.2q0.4-0.1 0.7-0.5 0.3-0.3 0.7-1.3l2.8-7.4h0.1l2.9 7.6q0.4 1 0.6 1.3 0.2 0.2 0.6 0.3v0.2h-3.8v-0.2h0.1q0.5 0 0.7-0.2 0.1-0.1 0.1-0.3 0-0.1 0-0.3 0 0-0.2-0.5c0 0-0.4-1.1-0.4-1.1zm-0.2-0.5l-1.2-3.2-1.2 3.2zm4 3.1v-0.2h0.3q0.3 0 0.5-0.2 0.2-0.1 0.3-0.3 0-0.2 0-0.9v-6q0-0.7 0-0.9-0.1-0.2-0.3-0.3-0.2-0.2-0.5-0.2h-0.3v-0.2h3.6q1.4 0 2.2 0.4 1.1 0.6 1.6 1.7 0.6 1.1 0.6 2.5 0 1-0.3 1.8-0.2 0.8-0.7 1.4-0.4 0.5-1 0.8-0.5 0.4-1.3 0.5-0.4 0.1-1.1 0.1c0 0-3.6 0-3.6 0zm3-8.7v7.2q0 0.6 0.1 0.7 0 0.1 0.1 0.2 0.2 0.1 0.5 0.1 1 0 1.5-0.8 0.7-1 0.7-3.2 0-1.8-0.5-2.9-0.4-0.8-1-1.1-0.4-0.2-1.4-0.2z" />
	</g>
	<g>
		<path fill="#ffe39f" stroke="#0b0707" stroke-width=".6" fill-rule="evenodd" d="m386.2 301.1c0 0 2.3 9.8-1.5 8.4-0.4-0.2 1.6 7.6 0.8 6.8l0.4 8.6c-0.1 1.2 1 2.4 1.8 2.8l-0.4 8.9c0 0-3.1 3.1-2.6 5.8 0.5 2.8 1 4.9 0.7 5.9l11.1 5.5c-0.2-2.7-1.5-8-1.5-8 0 0 0.9-3.6 1.2-5.6 0.3-2 0.3-2 0.3-2 0 0 2.1-3.6 2.5-5.9 0.5-2.4 2.8-25.7 2.8-25.7" />
		<path fill="#fc6" stroke="#0b0707" stroke-width=".6" fill-rule="evenodd" d="m387.1 348.6c-0.3 0.3 0.3 3.9 0.2 4.7 0 1.7-0.1 3.2 0.2 4.8 0.1 0.5 0.2 1.4 0.3 1.8" />
		<path fill="#fc6" stroke="#0b0707" stroke-width=".6" fill-rule="evenodd" d="m393.1 373.2c0 0.4-0.1 1.8-0.2 2.3-0.1 0.3-1.2 0.3-1.4 0.3-0.9 0.2-0.4-0.9-0.2-1.2 0-0.1 0-0.2 0-0.3" />
		<path fill="#fc6" stroke="#0b0707" stroke-width=".6" fill-rule="evenodd" d="m387 339.6c1.1-0.1 1.5 0.3 2.1 0.8 1 0.8 0-0.1 0.3 0.3" />
		<path fill="#000" stroke="#000" stroke-width=".5" fill-rule="evenodd" d="m411.6 377.5c0.1-0.3-1.4-0.7-2.9-1.7-0.4-0.2-0.9-1-1.3-1.2-1.3-0.7-2.6-1.9-2.1-2.9l0.7-4.7c0 0-0.1-1.5 0.3-3.4 0.8-3.8 2.4-9.7 2.5-9.9 0.5-1.5 0.8-3.9 1-6.1 0-0.9-0.8-1.6-0.5-2.5 0.3-1.1 1.1-1.7 1.4-2.4 0.1-0.3-0.6-0.6-0.2-1 0.3-0.5 0.6-1.5 1.3-2.3 0.6-0.7 1.2-1.5 1.4-1.9 0.4-1.5 1.8-2.3 2.2-3.8 0.1-0.6-0.1-1.4 0-1.9 0.3-1.4 0.9-0.9 1.1-2.3q0.1-1.1 0.2-2.1c0.1-0.5-0.9-2.5-0.9-2.9l1-1.4-0.4-3.5-1-0.8 0.4-2.9 0.3-2.5 0.3-6.5-1.1-1c0.1-1.8 0-2.4-0.1-3.5l-1-2.7c0.3 1.1 2.9-5.2 3.3-4-0.6 0.6 0.3-6.8 1.3-6.4 0.3 0.2 1.7-2.6 2.3-2.6 1.8 0 1.4-2.1 2.1-3.2 0.9 0 0.9-0.9 1.3-1.2 2.7-0.4 2.8-4.4 5.8-3.4 0.7-2.2 2.6-2.5 4-3.9 0.3-0.1 0.8-0.1 1.3-0.1 0.5 0 2.1 0.4 2.6 0.4 0.5 0 1.4-0.4 1.9-0.4 0.5 0 1.3 0.4 2.1 0.5 0.5 0.5 0.8 1.5 1.3 1.5 0.6 0 0.5-0.4 0.9-0.5l0.4 0.8c-0.2 0.2-0.4 0-0.4 0.6 0 0.5 0.4 1.2 0.9 1.5 0.4 0.1 0.8 0 0.9 0.1 0.9 0.7 1.9 1.8 2.3 2.7 0.4 0.1 1.1 0 1.4 0.2 0.5 0.2 0.9 0.9 1.1 1.4 0.1 0.4 1.1 1.5 1.1 2.2 0 0.5-0.4 0.7-0.4 1.3 0 0.3 0.7 1 1.1 1.5 0.1 0.2 0.6 1.7 0.6 1.8 0 0.5 0.6 2.6 0.5 2.7q-0.1 0-0.1-0.1l-0.1 3.3 0.9 1.5c-0.4 0.5-1.3-0.9-2.3-2.6 0.2 0.5 0.3 1.4 0.3 1.9 0.2 0.2 0.6 0.1 0.8 0.3v5.2c0.3 0 0.4 0.1 0.4 0.6 0 0.5 0 0.4-0.2 0.6h-0.5c-0.2-0.3-0.6-0.5-0.6-0.8h-0.8c0.2 0.6 0.4 1.5 0.4 2 0 1.1 0.2 1.7-0.6 2.5-0.2-2.9-0.5-6.2-2.2-8.2v1.6c0.5 0.6 0.2 2 0.5 2.4 0.1 0.1 0.3-0.3 0.3 0.2v2.3l0.3 0.9 0.8 1.8v2 1.1l-0.7 0.7-0.3 3.4v1.4l-1.7 3.2-0.4 1.2-0.9 0.7c1.4-0.1 2.3-1.7 3.4-2.4 1.3-0.8 2.9-1.3 4.3-1.8 0.7-0.7 1.6-1.1 2-1.6 0.6-0.9 0.9-2.2 1.5-3.2 1.2-0.5 1.6-1.2 2.9-1.2 0.5 0 2 0.4 2.5 0.4 0.5 0 1.3-0.4 1.8-0.4 0.5 0 1.3 0.6 1.6 0.9 0.1 0.4 0 0.6 0 1.1 0 0.5 0.1 1.1-0.4 2 0.5 0.5 1.2 0.5 1.7 0.5v3.1c-2.1 0.5-0.9 3-1.3 4.1-0.2 0.5-0.8 1.1-1.3 1.3-0.8 0.2-1.9-0.2-2.6 0.1-0.4 0.2-0.7 0.6-1.1 0.7-1.2 0.3-2.4 0.1-3.4 0.1-0.9 0.8-1.9 1.6-2.7 2.4-0.2 0-0.4 0-0.6 0.1-1.4 1.3-2.1 2.8-3.7 3.7-0.6 0.3-1.3 0.8-1.6 1.1-1.1 0.9-2.1 1.9-3.3 3 0.2 1.2-0.6 1.9-1.1 2.7-0.8 0.5-2.1 1.3-3 1.6l-0.4-0.3c-1.1 1.4-1.9 2.8-2.8 4.1-0.1-0.8-0.1-1.6-0.2-2.4-0.2-0.1-0.4-0.2-0.4-0.5h-0.7c-0.1 1.1-0.3 2-0.5 2.7-0.2 0.5-0.7 0.8-1.1 1-0.4-0.8 0.2-2.5-0.9-2.5-0.1 0-1.7 0.9-1.7 1.3 0 0.5 0.7 0.8 0.8 1.3 0.3 1 0.2 2.1 0.5 3 0.5 1.4 1.3 2.6 2.1 3.7 0.2 0.4 0.6 0.4 0.7 0.7 0.1 0.6 0.3 1.1 0.5 1.4 1 1.2 2.2 2.1 3.3 2.9h0.7c0-0.3 0.9 0 0.9 0 0.4 0.6 0.7 1.6 1.3 2 0.5 0.3 1.3 0.5 1.4 1 0.3 0.8 0.1 1.6 0.2 2.2 0.2 0.1 0.3-0.3 0.3 0.2l0.1 1.4c-0.5-0.3-0.5 0.5-0.5 0.2h-0.8c0.3 1.2 0.1 2.1 0 2.6-0.2-0.2-0.5 0-1 0l0.5 1.4-0.8 0.9-1.4 0.4-4.3-1.3-0.8 0.1c-0.4-0.4-0.6-0.8-0.9-1.2-1.3-0.3-2.7-0.9-3.1-1.8-0.3-0.6-0.5-1-0.5-1.5 0-0.5 0.4-0.1 0.4-0.6 0-0.5-1-1.6-1.1-2.4-0.2-1-0.5-2-1-2.7-1.5-2-2.9-4.6-4.9-6.5-0.6-0.6-1.9-0.3-2.6-0.6-0.7-0.3-1.1-1.2-1.5-1.8-0.6-1-1.6-1.9-2.3-2.7-0.1-0.2 0-0.4-0.1-0.7h-0.7c-0.3 0.5-0.3 3.3-1.7 3.3-0.5 0-0.5-0.4-0.8-0.6 0-0.1 0.4 0.1 0.4-0.5 0-0.5-0.2-0.1-0.4-0.3 0-0.6 0-1.2-0.1-1.8-0.4-0.3-0.8-0.7-1.1-0.9-0.2 0.4-0.8 0.4-1.3 0.8-0.2-1.3 0.2-2.5-0.7-3.3-0.4 0.5-2.1 2.4-2.1 3.5 0 1.1 1.7 1.4 2.3 1.9 0.9 0.9 1.8 1.9 1.8 3.1 0.2 0.1 0.4-0.3 0.4 0.2l0.3 2.4c0 0 0.2 0.3 0.3 0.5 0.1 0.2 0.3 0.5 0.3 0.7 0 0.2-0.2 1.4-0.3 1.6-0.1 0.2-0.2 0.7 0 0.9 0.1 0.2 0 0.5 0.2 0.7 0.3 0.3 0.1 0.5 0.2 1.1 0.1 0.6 0.2 0.8 0.2 1.2-0.1 0.4-0.2 1-0.2 1 0 0-0.5 0-0.7 0-0.2 0-0.9-0.1-0.9-0.1l-0.4-0.5c0 0 0.1 0.5 0.1 0.7 0 0.2 0.2 0.6 0.4 0.8 0.3 0.3 0.1 0.8 0.1 0.8 0 0-0.3 0.2-0.9 0.2-0.6 0-0.8 0-1.2-0.2-0.4-0.1-0.4-0.4-0.9-0.9-0.5-0.6-0.9-0.9-0.9-0.9 0 0 0.1 0.4 0.1 0.6 0 0.4-0.1 0.9-0.4 1-0.2 0.2-0.7 0.6-0.7 0.6v4.4c0.7 0.1 0.9 0.6 1.3 0.8 0.3 0.2 0.3 0.5 0.8 0.5l0.7 0.5c0.6 0.3 1.6 0.3 1.9 0.4 0 0 0.1 0.1 0.3 0.2 0 0-0.2 0.1 0.3 0.1 0.5 0 0.1-0.4 0.6-0.4 0.5 0 1.4 0.8 1.9 0.8h3.9c0.7 0.5 1.3 1.1 2 1.3q0.2 0.3 0.5 0.4c0.3 0.9 0.5 1.8 0.5 2.4 0 1.3 0 2.1-1.1 2.1-0.5 0-0.5-0.5-1-0.5-0.5 0-1.3 1.3-1.8 1.3-0.5 0-0.1-0.4-0.6-0.4-0.5 0-1.6 0.8-2.1 0.8-0.5 0-0.5-0.4-0.8-0.5v1.3c-1.4-0.4-2.6-0.4-3.6-0.5-0.3-1.6-2.9-1.1-3-0.7z" />
		<path fill="#ffb20f" stroke="#ffb20f" stroke-miterlimit="3.8637" stroke-width=".5" fill-rule="evenodd" d="m450.4 308.7v2.2c0 0-0.7-1-1-1.7-0.3 0.5-0.5 0.7-0.5 1.3 0 0.5 0.4 1.5 0.4 2 0 0.5-0.3 2.6-0.5 4-0.2 0.8-0.7 1.6-1.1 2.1-0.1-0.1 0.2-0.4-0.3-0.4h-0.4c0-0.5 0.1-1.2-0.3-1.6-0.3-0.6-0.5 0-0.9-0.8-0.3-0.7-0.6-1.1-0.6-1.1 0.1-0.1 0.2-0.3 0.3-0.4 0.1-1 0.1-2.3 0.1-3.4 0-0.2 0.5 0.1 0.4-0.4v-1.6c-0.5 0-0.9-0.4-1.2-0.6 0-0.8 0.1-2-0.1-2.7-0.2-0.6-0.8-1-0.8-1.6v-1.6h0.7c0.2 0.8 0.8 1.6 0.9 2.3 0.4 1.5 0 2.7 0.9 3.8 0.3-0.5 0.5-0.8 0.5-1.3 0-0.6-0.2-0.6-0.4-1-0.4-1.4-0.6-2.5-1-3.6-0.2-0.5-0.7-0.9-0.7-1.4 0-0.6-0.1-0.3 0.1-0.5h0.6c1 1.5 1.9 3 1.9 4.6 0.2 0.2 0.5 0.6 0.8 0.6v-1.2c-1-1.9-1.6-4.1-2.9-5.7-0.8 1.3-2.1 1.2-3.1 1.8v0.8h0.8c0-0.3 0.5-0.4 0.5-0.4v1.1c-0.4 0.4-0.9 1-0.9 1.5v2.1c0.3 0 0.1-0.4 0.7-0.4 0.5 0 0.4 0.3 0.5 0.5 0.1 0.4 0.1 0.9 0.2 1.1 0.3 0.5 0.8 0.9 0.8 1.4v6.4q0.2 0 0.3-0.2l-0.4 0.5c0 0-0.4-0.2 0.2 0.9 0.5 1.1 0.9 1.4 1.2 1.9 0.3 0.4 0.4 0.8 0.4 0.8 0 0 0.2 0.1 0.3-0.1v2.7l0.2 0.9c0 0-0.2 0.5-0.3 0.7-0.1 0.2-0.3 0.3-0.3 0.3l0.5 0.6 0.4-0.3c2.2-2 5.1-3.4 7.8-5h0.7c0 1.1 0.4 1.9 0.6 2.9h0.5c0.1-0.4 0.1-0.5 0.1-1 0-0.5-0.4-1-0.4-1.5 0-0.5 0.9-1.5 1.2-2.2 0.1-0.1-0.4-1 0.2-1h0.6c0.3 0.4 0.5 0.9 0.5 1.5 0.2 0.1-0.1 0.1 0.4 0.1 0.5 0 1.1-0.8 1.7-1.2h1.1v2c-0.6 0.4-1.7 1.2-2.2 1.2-0.5 0-0.9-0.8-1.4-0.8-1.1 0-0.9 1.1-0.9 1.5 0 1.9 2.7 3.1 3.1 3.4h0.5c0.2-0.1 0.1 0.1 0.1-0.4 0-0.5-0.3-0.6-0.7-0.9-0.1-0.2-0.1-0.4-0.1-0.9 0-0.5 0-0.8 0.1-1 1.4 0 2.2-1.6 2.4-2.5h0.7c0.3 0.5 0.5 0.7 0.5 1.2 0 0.5-0.2 0.8-0.4 1.5q0.5 0.3 1.2 0.6v0.8c-0.7 0-2 0.6-2 1.2 0 0.5 0.4 0.5 0.4 1-1.3 0.8-0.9 0.7-2.1 0.7-0.5 0-1.3-0.5-1.8-0.5-0.7 0-0.8 0.9-1.2 1.2-2.3 1.2-4.8 4.4-6.9 6.1-1.2 0.9-3.4 2-4.5 3.7 0 0.1-0.5 0.3-0.7 0.6-0.2 0.6-0.2 1.3-0.5 1.8-0.6 1-2 1.6-2.9 2.1-0.3 0.1-1.9-0.6-1.5 0.9-0.6-0.4-0.8-1.1-1.4-1.6-0.5 0-0.6-0.3-0.6 0.2 0 0.5 0.3 0.8 0.7 1v2c-1-0.6-1.7-2.2-1.6-3.5-0.1-0.2-0.3-0.4-0.5-0.6-0.3 0.2-0.7 0.6-0.7 1.1 0 0.7 0 0.7 0.8 0.6v0.8h-0.7-0.2q0.1 0 0.1 0.2v2.7c-0.4-0.7-1-1.5-1.2-2.2-0.2-0.8 0-1.6-0.2-2.4-0.1 0.1-0.5 0.4-0.7 1.3h-0.7c-0.4-1.1-1.7-1.4-1.7-2.3 0-0.5 0.4-0.9 0.5-1.4 1.1 0.6 0.8 1.4 1.3 2.5 0.3-0.2 0.7-0.3 0.7-0.9 0-0.5-0.4-0.9-0.5-1.5-0.1-0.2-0.3-0.3-0.7-0.6 0.4-1.9 1.5-3.5 1.9-5.3 0.2-1 0.5-2.1 0.6-3.1 0.8-0.4 0.7-0.6 0.7-0.7 0-0.7-0.4-0.3-0.7-0.7-0.1-0.4 0.5-0.8-0.5-1.2v2.9h-1.2c0.6-1.2 0-2.4 0-3.9 0-0.9-0.1-1.7 0.7-2.6v2.7c0.3 0.2 0 0.1 0.5 0.1 0.5 0 0.4-0.1 0.4-0.3 0.3-0.1 0.4 0.4 0.6 0.8h0.7v-3.3c0.3 0.2 0.7 0.5 0.7 1 0 0.5-0.4-0.1-0.4 0.4 0 0.5 0.4-0.1 0.4 0.4v3.8c0 0.5-0.2 0.1-0.3 0.2-0.1 0.6-0.1 1.2-0.1 1.7 0 0.6-0.2 2.8 0.7 2-0.3 1.3 1.6 1.8 2.3 2.8h0.6c0.1-0.4 0.1-0.8 0.1-1.3 0-0.5 0.2-0.7 0-1-0.6-0.8-1.7-1.8-2.2-1.8-0.5 0-0.3 0.4-0.6 0.3v-1.1c0.3-0.1 0.5 0.3 0.6 0.4 0.2-0.2 0.2 0.1 0.2-0.5 0-0.5-0.4-1.1-0.4-1.6 0-0.5 0.1-1 0.3-1.4 0.4-0.9-0.3-2.2 0.5-2.8-0.2-0.3-0.1-0.7-0.6-0.7-0.5 0-0.3 0.4-0.6 0.4 0-0.7-0.5-1.5-0.5-2 0-0.5 0.5-1.4 0.5-2.1 0.3 0.3 0.8 0.5 0.8 1 0 0.6-0.3 0.2-0.4 0.4l0.1 1.9h0.5c0.2-0.4 0.2-0.9 0.2-1.6 1.4 0.9-0.1 2.8 1.3 4 0.4-0.1 0.7-0.3 0.7-0.8 0-0.5-0.4-0.5-0.4-1 0-0.5 0.4-0.5 0.4-1 0-0.5-0.8-0.9-1.2-1.3l-0.2-4.1h-0.3v2.1h-0.7v-3.2c0.6-0.3 0.6-1.2 1.6-0.9v-1.5c0-0.5-0.1-0.1-0.3-0.2-0.1-0.4-0.1-0.6-0.1-1.1 0-1-0.1-1.1 0.7-1.7 0.2 0.2 0.1 0.8 0.5 1.3v5.2c-0.3 0.1-0.4 0-0.4 0.5 0 0.5 0.4 0.1 0.4 0.6 0 0.5-0.4 0.7-0.4 1.2 0 0.5 2 1.7 2.1 2.1 0.8-0.7-1.3-3.1-1.2-4.2 0 0 0.1-0.1 0.3-0.3 0-1 0-2 0.1-3.1 0.2 0 0.3 0.5 0.5 0.8 0.6 3.5 0.9 4.9 0.9 4.4 0-0.5-0.4-4.8-0.6-4.9 0-0.8 0.1-1.8-0.1-2.6-0.2-0.9-0.8-2.1-0.8-2.6 0-0.5 0.3-0.4 0.5-0.6-0.1-0.1-0.5-0.3-0.6-0.6-0.5 0.4-0.8 1.4-1.6 1.9-0.5 0.3-1.2 0.5-1.8 0.6-0.2 0.1-0.2 0.5-0.3 0.7-0.9-0.1-0.8 0.9-1.4 1.3-0.1-0.5-0.1-1.1-0.2-1.7h-0.5c-0.2 0.8-0.6 1.6-0.6 2.5-0.3 0-0.5-0.4-0.8-0.5 0-0.2 0.4 0.2 0.4-0.3v-1.7h-1.3c0.3 1.1-0.4 1.1-1.1 1.7 0.3-2.3-2-1.3-2.9-2.1 0-0.3 0.2-0.4 0.4-0.5 0-0.2-0.1-0.3-0.4-0.3v-0.8c0.7 0 0.4 0.4 0.9 0.4h8.3c0.6-0.8 1.4-1.4 1.8-2.2l-0.1-0.7c-2.3 1.4-1.2 1.7-3 1.7-0.5 0-0.9 0-1.3-0.1-0.4-0.7-1.3-1.2-1.3-1.8 0-0.2 1.1-1.9 1.3-2.1 0.6-0.2 1.9 0.1 2.4-0.7v-1.1h-1.1c-0.5 0.1 0.1 0.5-0.4 0.5-0.5 0 0.1-0.4-0.4-0.5h-5.3c-0.2 0.2-0.4 0.4-0.6 0.6 1.6 2.2 3.3 0.4 3.3 3.3 0 1.3-1.6 1.9-2.3 1.9-1.6 0-1.1-0.5-2.6-1 0-0.6-0.4-1.1-0.6-1.9h-0.5c-0.2 0.2-0.2-0.1-0.2 0.4 0 0.5 0.4 1.3 0.8 2-2-0.2-1.3 1.9-2 2.8l0.7 0.1c0.1-0.5 0.2-1.2 0.6-1.6 0.3 0.2 0.8 0.5 0.8 1 0 0.5-0.7 0.8-0.8 1.2-0.7 1.5-0.9 4.8-0.9 5.4 0 0.5-0.1 0.9 0.4 1v1.2h-0.8c-0.2-0.9-0.4-1.9-0.4-2.5 0-0.5 0.4-2.5 0.4-3 0-0.4 0.2-1.2-0.4-1.5 0 1.4-0.4 1.8-0.4 1.8v4c-0.8-0.5-0.8-1.4-0.8-2.1 0-0.5 0.2-3 0.4-4.3 0.1-0.6 0.6-1.3 0.7-1.9 0.2-0.8 0.3-1.5 0.6-2.3 1.1-0.5 0.7-1.6 0.7-1.7 0-0.5-0.2-1.4-0.4-2h1.1c0.2-0.2 0.1 0.1 0.1-0.4 0-0.6-2-1.9-2.8-3v-5.2h-0.7c-0.1 0.7-0.1 1.7-0.2 2.7-0.6 0.5-0.9 1.4-1.2 2.1-0.7 1.1-1.4 2.2-1.5 3.5-0.3 1.8-0.5 3.4-0.8 5.2-0.1-0.7-0.5-1.6-0.5-2.1 0-0.5 0.2-0.6 0.3-0.9 0.3-0.8 0.1-1.8 0.2-2.6 0 0 0.1-0.1 0.2-0.3 0.6-2.9 1.2-5.2 2.6-7.5 0.3-0.4 0.8-0.7 1.2-1.1v-1.9c-0.7 0-1.6-0.4-2.4-0.5-0.6-0.9-0.9-1.4-0.9-2.3 0-1.2 1-4.9 2.5-4.9 0.5 0 2.6 0.8 3.5 1.7 0.5 0.4 0.7 1.4 0.5 2.8h1.1c0.2-0.2 0.2 0.1 0.2-0.5 0-0.5-0.4-1.7-0.8-2.8 0.7 0.4 0.9 1.2 1.6 1.6v-1.1c0-0.5-1-1.4-1.6-2.3-0.3-0.4-0.6-1.1-1.2-1.5v-0.8h0.7c0.4 0.4 1 0.9 1.2 1.3 0.7 1.5 1.6 3 1.8 4.7 0.1 0.2 0.3 0.4 0.5 0.5h0.5c0.2-0.1 0.1-0.1 0.1-0.6 0-0.5-0.1-0.6-0.3-0.6v-1.2c0.5 0.4 1.1 0.6 1.7 1.2 0.3-0.2 0.7-0.5 0.7-1 0-0.5-0.4 0.3-0.4-0.2v-6.9c0-0.1 0.4-0.1 0.4-1.3 0.4 0.2 0.8 0.5 0.8 1 0 0.5-0.4 0.3-0.4 0.8v7.9c0 0.5-0.2 0.1-0.4 0.3 0 0.1 0.4 0.3 0.5 0.7h0.7v-4.5c0 0 0.4-0.5 0.4-1.1 0-0.5-0.4-2.1-0.4-2.6 0-0.5 0.1-1.6 0.8-2.1-0.2 1.2-0.4 1.8-0.4 2.3 0 0-0.1 0.7 0.5 1-0.1-1.1 0.3-2.2 0.8-3.2h1.2c-0.5 0.9-0.9 2.1-0.9 2.6 0 0 0 0.3 0.1 0.6-0.4 0.9-1 3.3-1.2 3.3v1.3c-0.2 0.2-0.3 0.3-0.5 0.3v0.8h0.8v-1.2q0 0 0 0c0.1-0.3 0.2-0.8 0.4-0.9l0.6-3.4q0.1 0.1 0.3 0.2c0-0.3-0.2-1 0-1.5 0.2-0.7 0.8-1.5 1.3-2.1 0.2-0.1 0-0.1 0.5-0.1 0.5 0 0.6 0.2 1 0.5v0.7c-1.5 2.2-2.5 4.1-3.7 6.3v1c0.2 0.1-0.1 0.1 0.4 0.1 0.9 0 1.7-3.5 2.2-4 0.7-0.7 1.1-1.7 2-2.5 0.3 0.2 0.8 0.5 0.8 1 0 0.6-2.2 2.6-2.5 3.2-0.6 1.1-1.2 2.4-1.6 3.6v0.6c0.1 0.2-0.1 0.1 0.4 0.1 0.8 0 0.6-2 4.1-5 0-0.2-0.1-0.3-0.4-0.3v-0.8c0.3 0 0.6 0.1 0.9-0.4 0.1 0.4 0.4 0.8 0.6 1.2-0.6 0.6-2.1 2.5-2.3 2.5v0.8c0.3-0.2 1.8-2.4 2.4-3.2 0.2 0.2 0.4 0.3 0.6 0.3 0.5 0 0.2-0.1 0.2-0.3h0.8v1.1c-0.9 0-3.7 2.5-3.7 3.7 0 0.5 0.4 0.9 0.6 1.3h0.5c0.2-0.4 0.3-0.9 0.5-1.4 0.2-0.6 0.3-1.3 0.5-1.8 0.3-0.5 1.1-1 1.7-1.3 0.4-0.1 0.6 0 1.1 0 1.8 0 0.9-0.1 2.8 1.7 0.1 0.4 0.1 0.8 0.1 1.3 0 0.5 0 1-0.1 1.3-0.4 0.9-0.9 2.2-1.6 2.9-0.6 0.6-1.5 0.5-2.3 0.6-0.5 0.2-0.4 0.9-0.6 1.4-0.3 0.3-0.7 0.5-0.7 1 0 0.5 0.4 0.1 0.4 0.6 0 0.5-0.4 0.5-0.4 1 0 0.5 0.4 1.3 0.4 1.9 0 0.5-0.4 1.3-0.4 1.8 0 1.3 0.5 0.7 1.4 1.4v0.7c0.3 0 0.5 0.5 0.8 0.5v-0.8c-0.2-0.1-0.4-0.2-0.5-0.4v-0.9c-0.2-0.1-0.4-0.3-0.9-0.5v-1.2h0.8c0.1 1.3 1.7 3.3 1.7 4.7 0 0.5-0.4 1.1-0.4 1.6 0 0.5 0.1 0.6 0.3 0.7v2c0 0 0.1 0.8 0.4 1.1 0.3 0.3 0.5 0.5 0.5 0.5zm-3-8.7v-0.1q0.1 0 0.3 0.1v0.2q-0.2-0.1-0.3-0.2zm-0.5 18.2q0 0.1 0 0.1 0 0.3-0.1 0.4v-0.5zm-34.2 42.7c0 0-0.7-0.1-0.9-0.3-1.3 1.5-1.8 3.2-1.8 5 0 0.5 0.4 2.2 0.5 3.1 1.3 0.6 3.5 2.2 4 2.2 0.5 0 0.5-0.4 1-0.4 0.6 0 1.8 0.5 2.4 0.8 0.3 0.1 6.8-0.1 6.8 2.3 0 0.5-0.4 1-0.8 1.4h-0.8c-0.2-0.9-0.6-1.7-1-2.4-0.5 0-1.1-0.1-1.6-0.1-0.5 0-0.6-0.2-0.8-0.3-0.6-0.1-1.2-0.1-1.8-0.1-0.1-0.2-0.9-0.1-1.1-0.5l-0.5-0.3c-0.2 0.2-0.1-0.1-0.1 0.4 0 0.8 2.2 1.1 3.5 1.3 0.1 0 0.2 0.4 0.7 0.4 0.6 0 0.7-0.1 0.7-0.4 0.5 0.4 1.2 1.1 1.2 1.6 0 0.5-1.3 1-1.7 1.6h-0.7c-0.5-0.9-0.5-2-1.4-2.4-0.6-0.2-1.2 0-1.8-0.1 0 0-0.6 0.1-0.8 0-0.4-0.1-1.2 0-1.5-0.7h-0.6c-0.1 0.1-0.1-0.1-0.1 0.4 0 0.5 0.2 0.6 0.5 0.7 1.4 0.3 2.9 0.5 4.3 0.6 0.1 0.2 0.9 0.9 0.5 1.8-0.1 0.1-2.1 1-2.8 1-0.8 0-2.1-1.3-3.3-1.3-0.5 0-0.7 0.4-1.2 0.4-1.2 0-5.6-4-5.9-4.2 0 0 0.8-5.5 0.9-5.7 0.1-1.7 0-2.1 0.5-3.5 0.4-1.2 0.3-2.1 0.7-3.4 0.1-0.4 0.6-2.3 0.8-2.5 0.2-0.2 0.1-0.6 0.2-1 0.2-0.1 0.3-0.6 0.3-1.1 0-0.5 0.6-1.7 0.7-2.4 0.4-2 0.5-4 0.6-6.4h0.7c0.3 1.9 2 1.6 3.2 2.6 0.1 0.3 0.5 0.7 0.9 1.2 0 1.2 0.4 2.2 0.6 3.4 0 0 0.8 1.1 0.4 2.1-0.4 1.1-0.5 1.3-0.3 1.7 0.2 0.5 0.5 0.8 0.7 1.2 0.2 0.4-0.1 1.7-0.1 1.7l-0.1-0.1v-0.6c-0.3-1-1.6-1.4-1.6-2.6 0-0.5 0.2-0.8 0.4-1.1h-0.8c0.1 1.5-0.1 2.8-0.5 4h-0.7v-2.3c0-0.5 0.8-2.1 1.2-3-0.3 0-0.5-0.4-0.8-0.4 0.3 1.1-0.6 1.4-0.7 2-0.1-0.3-0.5-0.5-0.5-1 0-0.5 0.2-0.7 0.4-1.4h-0.8c0 0.9-0.4 1.9-0.4 2.4 0 0.7 1.2 1.5 1.2 2.5 0 0.5-0.4 0.9-0.4 1.4 0 0.3 0.1 0.5 0.3 0.7q-0.1 0-0.1 0.1zm3.8-0.7v0.1h-0.7c-0.1-0.5-0.5-0.9-0.6-1.2h-0.5c-0.2 0.3-0.2 0.9-0.2 1.4 0 0.5 0 1.3 0.4 1.8h-0.7c-0.3-0.7-1-1-1.4-1.5 0.3 0 0.7 0 0.7 0l0.7-1.2 0.7-1.2zm-6.1-1.6c0 0.3-0.5 1.2-1.2 1.4q-0.1 0.6-0.4 1c0.4 0.3 0.5 0.5 1 0.5 0.7 0 1.5-1.3 1.8-1.9-1.1-0.3-0.8-0.7-0.8-1.3 0-0.5 0-0.7 0-1.1 0.2-0.2 0.8-0.1 0.8-0.7 0 0-0.8-1-0.8-1.5 0-0.5 0-1.5 0.4-2.4h-0.8zm14.7-31.4v1.9c0 0.5-0.4-0.2-0.4 0.3v3.8c0 0.5 0.8 1.8 1.3 2.6 0.4-0.2 0.7-0.5 0.7-1 0-0.5-0.4-0.5-0.4-1.1 0-0.5 0.4-1.7 0.8-2.4-0.3 2.1 0.4 3.5 0.9 5.2 0.2 0.6 0.9 1.4 1.5 1.8 0.1 0.4 0.1 0.8 0.2 1.2h0.6c0.1-0.8 0.5-1.6 0.5-2.5 0.3 0 0.6 0.4 0.7 0.5 0.1 1-0.1 2.1 0.2 3.1 0.1 0.3 0.4 0.7 0.6 1 0.1 0.1 0 0.6 0.2 1 0.3 0.5 1.2 1.5 1.2 2 0 0.5-0.4 0.5-0.4 1 0 0.5 0.7 1.2 1.1 1.7 0.6 0.7 0.4 1.9 0.9 2.6 0.7 1.1 1.6 2.1 2.4 3.2 0.2 1.1 1.3 1.8 1.6 2.4 0.3 0.7 0.8 1.6 1.5 1.9q1.1 0.4 2.6 0.5 0.1 0.3 0.4 0.5c0 0.9 1 1 1.2 1.2 0.5 0.5 0.9 1.4 0.9 1.9 0 0.4-0.2 1.3-0.5 2.1l-0.2-1.3-1.3-2c-1.2-0.4-1.9 0-2.5-1.2h-0.8c0.6 1.4 2.3 1.5 3.3 2l1.4 2.6c-0.6 1.3-1.4 2.4-2 1.1-0.3-0.6-1.2-1.5-1.6-2-0.4-0.5-1-0.7-1.8-1-0.1-0.6-0.7-1.1-1.2-1.5-0.1 0.2-0.1-0.1-0.1 0.4 0 1 1.9 2.1 2.3 2.5 0.5 0.6 0.9 1.4 1.7 2.1 0.1 0.2 1.1 1.2 1.1 1.7 0 0.5-1.2 0.6-1.3 0.7-0.8 0.3-1.5 0-2 0-1.7 0-1.6-3.2-1.9-3.6-0.7-0.9-1.9-1.5-2.1-2.6h-0.5c-0.2 0.2-0.2-0.1-0.2 0.4 0 0.7 2.1 2.4 2.1 3.3 0 0.5 0 0.6-0.2 0.7-0.3 0.1-0.5 0.5-1.1 0.5-0.5 0-1-0.6-1.5-0.9-0.8-0.5-0.7-2.4-1-3.4-0.2-1.1-0.9-2.3-1.2-3.3-0.1-0.2-0.5-0.3-0.7-0.7-0.2-0.2-0.2-0.8-0.5-1.3-1-1.8-2.6-3.1-4-4.8-0.3-0.4-0.5-1.3-1-1.5-0.8-0.2-1.8 0-2.6-0.1-0.9-1.2-2.6-3.5-2.6-4 0-0.5 0.4-0.1 0.4-0.6 0-0.4-0.4-1.3-0.8-1.8-0.1-0.4-0.3-1.3 0.2-1.3 0.5 0 0.5 0.8 1 1.2-0.3-1.2 0.6-1.9 0.8-2.5v-2.3h-0.8c0 1.1 0 2.1 0 2.8h-0.7c-0.1-0.7-0.1-1.5 0-2.4h-0.9c0 0.3-0.1 0.4-0.4 0.4v3.2l0.5 0.6q-0.2-0.2-0.3-0.2c-0.5 0-0.2 0.1-0.3 0.4-0.3-0.2-0.6-0.5-0.7-0.9-0.3-1.1 0-2.4-0.2-3.6-0.8 0.3-0.6 1-0.6 1.7 0 0.5 0.4 2.1 0.8 3.4l-1.1-1-0.3-4c-0.6 0.9-0.7 1.2-0.7 2 0 0.5 1.3 4.2 1.3 4.7 0 0.5-0.5 0.8-0.8 1 0.5-1.3-1-2.6-1.2-3.4-0.2-0.5-0.1-1.2-0.2-1.8-0.1-0.1-0.3 0-0.3-0.5 0-0.5 0.2-0.4 0.4-0.5l-0.2-1.6h-0.6v4.1c-1.1-0.4-0.3-1.1-1.2-1.6v-4.4c0-0.5 1.2-2 1.5-3.1 0.3-0.7-0.1-1.9 0.2-2.6 0.1-0.5 0.3-1.3 0.7-1.7-0.2 1 0.4 2.3 0.8 2.9 0.2 0.5 0.5 1.1 1.3 1.6 0.1-5.2 0.4-5.5 0.4-5.5 0 0-0.1 0.1-0.4-0.6h1.2c-0.2 1.8 0 3.8 1.4 5.2h0.5c0.2-0.1 0.1 0.1 0.1-0.4 0-0.5-0.8-1.7-0.8-2.2 0-0.7 0.4 0.4 0.5-2.2 0.2-0.1 0.4 0.3 0.7 0.4 0 0.2-0.2 0.3-0.4 0.5 0.4 0.9 0.9 2.2 1 3.6h0.7v-4.1c0-0.5 0.2 0 0.3-0.2 0.1-0.4 0.1-1 0.2-1.4 0.2-0.1 0.4-0.5 0.7-0.5zm3.3 20.4c0.6 1.3 1.7 2.6 3.9 2.1 0.2 0.5 0.6 1.2 1 1.6h1.6v-0.8c-1.5 0.5-1.6-1-2.2-1.6-0.7 0-1.6 0-2.2-0.1-1.3-0.3-1.3-1.7-2.1-2.4zm-7.7-3.9q0.1 0.1 0.3 0.3 0 0.1 0 0.1zm24.6 20.1q0-0.1 0.1-0.2v0.4zm-9.9-61.8h1.1v0.7c-0.2 0.1-0.3 0.2-0.4 0.4-0.2 0.1-0.4-0.3-0.7-0.4zm2 9.8c0 1.1 0.4 2.8 0.4 3.3 0 0.5-0.3 2.2-0.5 3.1-0.2 0.9-0.3 1.9-0.4 3-0.8-0.4-0.7-0.8-0.7-1.4 0-0.5 0.2-0.9 0.3-1.2 0.3-0.7 0.1-1.6 0.3-2.3 0 0 0.2 0.3 0.2-0.2 0-0.5-0.2-0.2-0.4-0.3 0-0.4 0-0.8 0-1.3 0-0.7 0.4-1.6 0.4-1.7 0-0.5-0.4-0.3-0.4-0.6 0.3 0 0.5-0.4 0.8-0.4zm-15.2-24.1v1.2c-0.6 0.8-1.2 2-1.9 2.9v-1.6c0.3-0.8 1.2-1.6 1.9-2.5zm0.1 2.1h0.8v1.1c-1.8 0.9-1.6 3-2.4 4.7-0.2 0.4-0.1 1-0.1 1.5-0.3-0.2-0.8-0.7-0.8-1.2 0-0.4 1.7-5 2.5-6.1zm-2.9 1.2v2.4c-0.4 0.4-0.6 0.8-1.2 1.2 0.4-1.5 0.8-2.5 1.2-3.6zm5 0.4h1.1v0.5c-2.5 3.2-3.3 6.6-4.2 10.5l-0.2-3.2c0 0 0.2 0 0.3-0.2 0.1-0.6-0.1-1.3 0.1-1.8 0.3-0.7 0.4-1.4 0.8-2 0.6-1.2 1.2-2.6 2.1-3.8zm-1.3 0h0.8c0 0.3-0.4 0.6-0.8 0.8zm-4.1 4v1.6c-0.4 0.8-0.8 1.7-1.3 2.4-0.4 0.5-1.1 1.4-1.2 2.1h-0.8v-1.1c0-0.5 0.2 0 0.4-0.2 0-0.2 0-0.6 0.1-1 0.8-1.3 1.8-2.5 2.8-3.8zm0 2.9h0.8v2.8c-0.6 0.7-1 1.8-1.2 2.9h-0.8c0-0.3 0.2-0.3 0.3-0.5 0.2-2 0.6-3.4 0.9-5.2zm7.3 0v2.4c-0.4 0.4-0.8 1.2-0.8 1.7 0 0.5 0 0.6 0.1 0.8 1.1-0.8 0.3-1.6 1.5-2.4v1.1c0.1 0.5-0.8 2.1-1.2 3l0.2 0.8c0.8-0.3 0.4-1.4 0.7-2 0.3-0.3 0.4-0.9 0.8-1.3h0.8v1.1c0 0.5-0.6 1.5-0.9 2.4-0.1 0.4-0.5 0.8-0.7 1.1-0.3 0.6 0 1.3-0.1 1.8-0.3 1.3-0.6 2.5-1.1 3.8v-3.2c-0.1-0.5 0.2 0 0.4-0.2-0.1-0.2-0.4-0.3-0.9-0.3v-3.6c0-0.5 0.4-0.4 0.4-0.9 0-0.6 0.3-0.8-0.8-1.2 0-0.3 0.2-0.4 0.4-0.5 0.2-1.8 0.4-3.2 1.2-4.4zm-8.6 2.5c-0.3 2.1-0.3 3.8-0.8 5.3-0.3-0.3-0.8-0.5-0.8-1.1 0-0.9 1.4-4 1.6-4.2zm6.6 0.8v10.1c0 0.5-0.4 0.4-0.4 0.9 0 0.2 0 0.6 0.8 0.4 0.1 1.2-0.5 2.9 1.2 2.9v5.6c0 0.5-0.2 0.1-0.3 0.2-0.1 1.2-0.5 2.5-0.8 3.6v-3.2c-0.1-0.6 0.2-0.1 0.3-0.2v-5.1c-0.1-0.1-0.5-0.1-0.8-0.1 0-0.9-0.4-1.7-0.4-2.2 0-0.5 0.2-0.6 0.2-0.8v-0.3c0 0-0.2 0.1-0.2 0.4h-0.8c0.4-0.6 0.4-1.1 0.4-1.6 0-0.5-0.4-1.1-0.4-1.6 0-0.5 0.4-0.3 0.4-0.9 0-0.5-0.4-0.3-0.4-0.8 0-0.5 0.4-0.3 0.4-0.8 0-0.5-0.4-0.3-0.4-0.8 0-0.5 0.2-0.4 0.4-0.6v-3.8c0-0.5 0.4-0.9 0.8-1.3zm-4.5 1.6h0.8v0.8h-0.8zm-0.8 0.8v2.3c0 0.5-0.2 0.1-0.4 0.3 0 0.6 0 1.2-0.1 1.7 0 0-0.3-0.2-0.3 0.3v7.1c0 0.5 0.1 0.1 0.3 0.2 0.1 0.6 0.1 1.4 0.3 2 0 0 0.2 0.1 0.2 0.4h-0.8c-0.5-0.9-0.1-2.7-1.6-2.5v-1.1c-0.1-0.6 0.2-0.1 0.4-0.2v-5.9c0-0.6 0.2-0.1 0.3-0.3 0.5-1.4 0.9-3 1.7-4.3zm2 0.4v2.3c0 0.5-0.4 0.2-0.4 0.6h1.2v2.8c-1.1 1.1-1 3.3-1.6 5l-0.5 4c-0.2-0.3-0.4-1.3-0.3-5.2 0-1.9 1.2-4.9 1.2-5.4 0-0.5 0.1-0.7-0.1-0.8-1 0.8-0.6 3-1.5 4.5v-2.8c0-0.5 0.2-0.1 0.3-0.2 0.1-0.6 0.3-1.4 0.4-2.1 0.3-1.1 0.2-2.2 1.3-2.7zm-1.3 14.7q0 0 0 0 0 0 0 0zm0.1 0.2c0 0.1 0 0.2-0.2 0.8l0.1-1c0 0.1 0.1 0.2 0.1 0.2zm10.7-10c0.3 0.2 0.8 0.7 0.8 1.2 0 0.5-0.3 0.4-0.4 0.6-0.5 1.2-0.9 3.2-0.9 3.7 0 0.5 0.4 0.5 0.4 1 0 0.5-0.4 1.2-0.4 1.7 0 0.5 0.2 0.9 0.4 1.3 0.2 0.5 0 1.2 0.1 1.8 0.1 0.2 0.3-0.2 0.3 0.3 0 0.6-0.4 0.1-0.4 0.7 0 0.5 0.1 0.4 0.4 0.4v1.6c-0.3 0-0.3-0.5-0.5-0.8-0.4 0.3-0.8 1.1-1 1.6v-2c0.9-0.3 0.7-0.4 0.7-0.8 0-0.6-0.1-0.6-0.3-1-0.2-0.3-0.5-0.7-0.5-1.2v-5.1c0-0.5 0.2-0.1 0.4-0.2 0.1-1.6 0.2-3.6 0.9-4.8zm9 1.3h0.7v2.4c-0.3-0.3-0.3-0.7-0.7-0.9zm-17.6 0.8c0.8 0.5 0.8 1.4 0.8 2 0 0.5-0.3 3.5-0.5 5.2-0.1 0.9-0.8 1.7-1.1 2.6v-6.5c-0.1-0.5 0.2 0 0.3-0.2 0.1-1 0.5-2 0.5-3.1zm10.1 0c-0.3 1.6-0.3 2.5-0.3 3.1 0 0.5 0.4 3.3 0.4 4.9 0.2 0.2 0.4 0.1 0.4 0.6 0 0.6-0.4 0.1-0.5 2.4-1.3-0.6-0.2-2.8-1.1-3.7v-5.2c-0.1-0.5 0.8-1.4 1.1-2.1zm1.3 0.4v4.9c-0.3 0-0.5-0.4-0.8-0.4v-4.1c0.3 0 0.5-0.4 0.8-0.4zm0.4 0.9h1.4c-0.2 0.9-0.2 1.6 0 2.4 0.3-0.2 0.7-0.6 1-0.8v2.7c0.1 0.5-0.5 1.2-0.7 1.9-0.2 0.6-0.1 1.2-0.1 1.8-0.4 0.3-0.8 0.5-1.1 0.7-0.1 2.4-0.9 1-0.9 2.9 0 1.4-0.2 0.5 1.1 1.5 0.1 1.2 0.5 3.1 0.5 3.6 0 0.5 0 1.1-0.1 1.5-0.1 0.1-0.5 0.1-0.6 0.2-0.1 1.8-0.3 2.9-1 4.4-0.3-0.7-1-1.5-1.1-2.2-0.3-1.7-0.8-4.8-0.8-5.4 0-0.5 0-1.1 0-1.7 0.4-0.3 0.9-0.6 1.1-1.1 0.5-0.7-0.5-2.6 0.9-2.4v-4.3c0-0.1 0.6-0.8 0.7-1.8 0 0 0.1 0.2 0.1-0.3 0-0.5-0.4-0.3-0.4-0.8 0-0.5 1.1-1 0-2.8zm4.5-0.1h0.8c0.2 0.9 0.4 1.8 0.4 2.3 0 1.6-1.3 4.3-1.5 4.7 0.3-2.2 0.7-4.4 0.7-4.9 0-0.5 0.1-0.7-0.4-0.9zm-21.3 3.7c0.1 0.3 0.1 1.2 0.4 2h-0.7c0 0 0-2 0.3-2zm6.6 0v3.5c0 0.5-0.2 0.1-0.4 0.3-0.1 1.9-0.7 3.5-0.9 5.4 0 0-0.2 0.1-0.3 0.3 0 1.2-0.5 2.4-0.8 3.5-0.1-0.7-0.5-1.5-0.5-2 0-0.5 0.6-3.4 0.9-5.2 0.1-0.4 0.5-0.8 0.7-1.1 0.2-0.3 0-1.1 0.1-1.4 0.3-0.5 0.5-1 0.7-1.4 0.2-0.6 0.1-1.5 0.5-1.9zm3.3 1.6c0.3 0 0.5 0.4 0.8 0.4 0 0.3-0.4 0.3-0.4 0.8 0 0.5 0.4 0.5 0.4 1 0 0.5-0.2 0.6-0.4 0.8 0 2.2-0.4 4.5-0.7 7.2 0.9-0.8 0.8-3 1.2-4.4 0 0 0.3 0.3 0.3-0.2v-3.9c0.3-0.1 0.5 0.3 0.8 0.4 0 0.2-0.2 0.3-0.4 0.5 0.2 0.3 0.4 0.3 0.4 0.9 0 0.5-1.2 5.2-1.7 7.8-0.4 0.3-0.8 0.5-1.1 0.7-0.1 0.4-0.1 0.8-0.4 1.1v-2.4c-0.1-0.5 0.3 0.2 0.3-0.3 0-0.5-0.4 0.1-0.4-0.4 0-0.5 0.3-0.2 0.4-0.3 0-1.9 0.9-4.8 0.9-5.3zm-9.4 1.6h0.8v2c-0.3 0.1-0.5 0.5-0.8 0.4v-0.7c0-0.5 0.4 0.3 0.4-0.3 0-0.5-0.4 0.3-0.4-0.2zm2.3 0.8c0.1 1.4 0.5 3 0.5 3.5 0 2.1-1.5 5.2-2 6.3v-4.8c0-0.5 0.2 0 0.3-0.2 0.2-1.6 0.4-3.5 1.2-4.8zm4.5 0.4c0.1 0.5 0.1 1-0.2 1.2-0.1-0.5-0.1-0.9 0.2-1.2zm-0.4 1.7c-0.1 4-0.3 5-0.4 6.1-0.3-0.2-0.7-0.5-0.7-1 0-0.5 0.2-0.2 0.3-0.4 0.1-1 0.2-2 0.4-2.8 0.2-0.6 0.1-1.5 0.4-1.9zm-6.1 1.2c-0.1 1.4-0.3 2-0.3 2.6l0.2 0.9q-0.2-0.5-0.2-0.9l-0.4-1.7c0.4-0.3 0.4-0.7 0.7-0.9zm11.1 0.8c0.3 0 0.4 0.5 0.4 0.9h1.2c0 0.6-0.4 0.6-0.4 1.2 0 0.5 0.4 0.7 0.4 1.2 0 0.5-0.4 0.9-0.4 1.3l-0.3 5.2c-0.1-0.6 0.3-1.4-0.5-1.7v-6.4c0-0.5-0.1-0.1-0.4-0.1zm0 2.9v1.4c0 0.5-0.4-0.1-0.4 0.4v3.7c0 0.5 0.5 1 0.7 1.5 0.2 0.5 0.1 1.4 0.5 2.3-0.4-0.2-0.8-0.6-1.1-0.9-0.1-0.6-0.3-1.4-0.5-2.1-0.2-0.7 0-1.6 0-2.4 0-0.2-0.4 0-0.4-0.5 0-0.5 0.2-0.1 0.3-0.3 0.1-0.8 0.1-1.8 0.2-2.7 0.2 0 0.4-0.5 0.7-0.4zm2.4 4.5c0.1 1.1 0.5 2.1 0.5 3.1 0 0 0.1 0.1 0.3 0.1v1.2c-0.5-0.4-0.7-0.8-1.1-1.3 0 0 0.1-3.2 0.3-3.1zm6 8.9c-0.1 0-0.2 0-0.2-0.2 0 0.3 0.1 0.3 0.2 0.2zm-2.3-6v1.1c1.1 0.2 1.2 1.4 1.6 1.7v-2c-0.4-0.5-0.3-1.1-0.4-1.3h-0.7c-0.1 0.3-0.5-0.1-0.5 0.5zm1.3-2.1c0 0.5 0.9 1.1 1.1 1.7 0.4 0.8 0.6 2.1 1.3 2.3v-1.9c-0.5-0.3-0.8-0.6-0.8-1.1 0-0.5 0.4-0.3 0.4-0.8v-1c-1 0.2-0.9-0.7-0.8-1.3h-0.8c0 0.7-0.4 1.5-0.4 2.1zm8.2-11.9c-0.4 0-0.6-0.4-0.8-0.4-0.3 0.5-0.5 1.6-0.5 2 0 0.7 0 1.6 0.8 2.1 0.2-0.5 0.4-0.7 0.4-1.2 0-0.6-0.4-0.5-0.4-1v-1.1c0.5 0.2 0.7 0.4 0.8 0.6 0 0.8 0 1.6 0.1 2.2 0.2 0.1 0.4-0.4 0.4 0.2v1.1c-1.4-0.4-1.1 0.7-2.4 0.8-0.1-0.2-0.1-0.5-0.1-0.8h-0.8v1.6c1 0.2 0.8 0.7 0.9 1.1 0.3 0.3 0.8 0.6 1.1 0.7 0 0.4 0 1.1 0.5 1.1h0.7v-1.2c-0.4-0.4-0.8-1.2-0.8-1.7 0-0.5 0-0.6 0.2-0.8h0.5c0.4 0.9 0.8 0.8 1.4 0.8 0.5 0 0.7-0.2 1.2-0.4v-1.2c-2.7 0.2-1.8-3.3-2.1-4.8-0.2-0.7-0.8-1.3-1.1-1.7zm1.2-39.2q-0.1-0.1-0.1-0.1 0.2-0.3 0.3-0.3 0 0.1-0.2 0.4zm-7.7 2.5q0.1-0.1 0.2-0.1c-0.1 0.2-0.1 0.3-0.2 0.3zm1.3-4.5q-0.1-0.1-0.1-0.2 0.1-0.4 0.2-0.4zm6.4 7.9c0.4 0.5 0.8 0.9 1.3 1.3h0.7c-0.2-0.7-0.4-0.9-0.4-1.4 0-0.6 0.4-1 1.2-1 0.5 0 0.9 0.2 1.6 0.4v-1.2c-0.4-0.2-0.6-0.8-1.2-0.8-1.1 0-2.8 2.1-3.2 2.7zm-21.6-1.1v2c0.7-0.6 1.1-1.6 1.7-2.4h1.9v1.1c-0.6 0.5-1.2 1-1.6 1.7h0.7c0.7-0.8 2.1-1.9 2.1-2.4 0-0.4-1.5-1.6-2-1.6-1 0-1.2 0.6-2.8 1.6zm4.8 6.9c1.2 0.6 1.1 2.9 3.1 2.9 0.5 0 0.5-0.2 0.9-0.4 0.1 0.3 0.5 0.7 0.5 1.2h0.8v-2.4c-0.8-0.6-1.4-1.2-2.1-2-0.6-0.1-1.2-0.1-1.8-0.1-0.2-0.2 0.2-0.4-0.3-0.4h-1.1zm11.5-0.3c-0.7 0.7-1.2 1.4-2.1 2.1v3.6h0.8c0.2-0.5 0.4-0.5 0.4-1 0-0.5-0.4-0.5-0.4-1.1 0-0.5 0.4-0.4 0.6-0.7 0.8-0.1 1.7 0.1 2.2-0.2 0.3-0.1 0.7-0.3 0.8-0.4 0.4-0.6 0.8-2.1 1.7-2.4v-1.2c-0.7 1.4-2.9 0.4-4 1.3zm-2.8-4.5c-0.5 0.8-1.3 1.7-1.7 2.4-0.1-0.2 0.3-0.4-0.2-0.4h-0.6v0.8c0.3 0 0.4 0.1 0.4 0.3-0.4 0.4-0.8 0.8-1.2 1-0.5-0.6-0.9-1.2-1.4-1.7h-1.5c0 0.3 0.4 0.6 0.5 0.7 1.1 0.4 1.7 1.8 2.7 1.8 0.5 0 0.8-0.4 1.3-0.4 0.5 0 1.1 0.8 1.6 0.8 0.5 0 1.4-0.9 2-1.3v-0.8c-0.5 0.5-1.3 0.9-1.8 0.9-0.6 0-1-0.5-1-1.3 0-0.5 2.2-3.2 2.4-3.6-0.5 0.4-0.9 0.8-1.5 0.8zm-23.9 49.8l0.2 3.1c-0.3-0.3-1.8-1.2-0.9-1.8 0.4-0.3 0.4-1 0.7-1.3zm21.3-62.5v4.9c-0.3 0-0.5-0.4-0.7-0.4v-4.1c0.2 0 0.4-0.4 0.7-0.4zm-2.4 1.7h0.8c0 0.4 0.4 0.7 0.4 1.2 0 0.5-0.4 0.1-0.4 0.6 0 0.5 0.4 0.8 0.8 1v2c-0.2 0-0.3-0.1-0.5-0.2v0.2c0.1 0.2 0.2 0.6 0.1 0.5q0-0.1-0.1-0.5 0-0.1-0.1-0.2 0 0 0 0c-0.1-1.2-0.4-3.4-1-3.7zm0.9 4.6v0.1c0 0.1 0 0.1-0.1 0 0 0.5 0 1.2-0.3 1.8-0.4-1.5-1.2-2.9-1.7-4.1v-1.6h0.7c0.1 0.3 0.2 0.4 0.4 0.5 0.1 0.8 0.1 1.6 0.2 2.4 0.4 0 0.6 0.7 0.7 1l0.1-0.1c0-0.1 0 0 0.1 0q-0.1 0-0.1 0zm0.1 0q0 0 0 0 0 0 0 0 0 0 0 0zm18.2 16.4v-0.9c0 0 0.2 0.2 0.4 0.4 0.2 0.3 0.4 0.3 0.6 0.9 0.2 0.6 0.1 0.9 0 1.6-0.2 0.7-0.1 1.4 0.2 2.1 0.2 0.7 0.1 0.6-0.2 0.4-0.2-0.2-0.2-0.4-0.4-0.7-0.3-0.4-0.2-1.5-0.3-2.5-0.2-1.1-0.3-1.3-0.3-1.3zm0.8-1.1c0 0 0-0.7-0.1-1 0-0.3-0.2-0.9-0.2-0.9l1.1 1.7v0.5c0 0-0.1-0.1-0.4-0.2-0.2 0-0.4-0.1-0.4-0.1zm-1.1 9.9l-0.4 1.2-0.2-0.6-0.4-1-0.3-0.9v-2.3c-0.1-0.5-0.2-0.1-0.4-0.2-0.2-0.4 0.1-1.8-0.4-2.4v-1.5c1.7 1.9 1.9 4.9 2.1 7.7zm-1.7-15.9c0.5 0.3 1.4 2.1 2.4 3.8q-0.1-0.1-0.2-0.1c-0.5 0-0.2 0.1-0.3 0.4-0.7-1.1-1.5-2.3-2.4-3.4 0-0.2 0.4-0.4 0.5-0.7zm3.7 4.3l-0.1 0.2c-0.5-1.1-2.5-4.2-2.8-4.6v-1.1c0.3 0.2 0.8 0.6 1.1 0.9 0.5 0.7 0.9 1.6 1.2 2.5 0.3 0.7 0 1.1 0.5 1.8zm-4.9-3.1q0 0 0 0zm1.1 0.9l0.3 0.8c0.2 0.1 0.3 0.3 0.5 0.4v0.4l0.8 0.8 0.5 1.2-0.1 0.6-1.2-2.4v0.1c-0.2 0.1-0.4-0.4-0.7-0.4v-0.4c-0.4-0.5-0.9-1.1-1.2-1.2 0 0 0-0.8 0-0.8 0.3 0.2 0.7 0.6 1.1 0.9zm-1.2-1.7c0 0.3-0.1 0.8-0.4 0.8 0-0.3 0.1-0.8 0.4-0.8zm2.9-2v-1h0.7c0 0 0.5 0.1 0.5 0.4 0 0.4 0.1 0.4 0.1 0.4 0 0 0.2 0.8 0.4 1.1 0.2 0.4 0.6 1.4 0.7 1.8 0.1 0.4 0.1 0.7 0.1 0.7q-0.1 0-0.2-0.1c-0.2-0.3-0.2 0.1-0.6-0.8-0.4-0.8-0.5-0.8-0.9-1.3-0.3-0.6-0.2-0.7-0.5-0.9-0.3-0.3-0.3-0.3-0.3-0.3zm-4 3.2c0.7 0.6 1.2 1.4 1.8 2.1 0.6 0.7 0.9 1.7 1.3 2.5 0.2 0.4-0.1 1 0.4 1.6v0.8c-0.7-1.1-1.5-2.3-2.3-3.5-0.1-1.2-0.6-2.1-1.7-2.7 0-0.3 0.4-0.5 0.5-0.8zm-17.2 0.7l1.6 0.1-0.6 1.2h-0.2c-0.5-0.3-0.7-0.7-0.8-1.3zm2.5 0.7c0.1 0.2 0.2 0.3 0.3 0.3v0.5c-0.4 0.1-0.6 0.2-0.9 0.2zm9-0.6l1.1-0.1c-0.2 0.3-0.4 0.7-0.6 1.2l-0.3 0.1c-0.1-0.4-0.3-0.9-0.2-1.2zm-0.7 1.5l-0.2 0.1c-0.5 0-1-0.2-1.3-0.3 0.2-0.2 0.4-0.7 1.1-1.1 0.2 0.4 0.2 0.9 0.4 1.3zm21.5 18.7c0 0.5-1.1 1.5-1.3 1.5-0.5 0-1.3-0.4-2-0.5v-1.6c0.8 0.5 1.1 0.2 1.3 0.1 0.2 0 0.6-0.1 1.2-0.1l0.2-0.2c0.3 0.3 0.6 0.3 0.6 0.8zm1.7-0.5h2.3c0 0.4 0.5 0.9 0.5 1.4 0 0.5-1.1 1.4-1.8 2.2q-0.4-0.3-1-0.5c-0.4-0.7-0.7-0.8-1.3-0.7v-1.6c0.4-0.2 0.8-0.4 1.3-0.8zm2.8 4c0.5 0 0.5 0 0.7 0.1 0.1 0.4 0.5 0.4 0.5 0.9 0 0.6-0.9 1.6-1.3 2.2h-0.8c0.3-0.3 0.4-0.4 0.4-0.9 0-0.8-0.6-1.1-1.2-1.6 0.5-0.3 1.1-0.7 1.7-0.7zm-8.2 2.5h0.8c0 0.5 0.2 0.9 0.4 1.6h-0.8c0-0.3-0.1-0.4-0.4-0.4 0 0 0-1.2 0-1.2zm7 1.6h0.7v2c-0.3 0-0.4 0.2-0.4 0.4-0.3 0.1-0.5-0.4-0.8-0.4 0.3-0.9 0.3-1.5 0.5-2zm-54 19.2c0.4 0.2 0.7 0.4 1.2 0.5v1.5c-0.9 0.6-1.3 1.9-2.1 2.5l-0.9 0.4c0.4-0.4 1.8-2.9 1.8-3.5 0-0.5-0.1-0.6-0.4-0.6 0-0.3 0.4-0.5 0.4-0.8z" />
		<path fill="#000" stroke="#000" stroke-width=".5" fill-rule="evenodd" d="m391.6 342.4c0.1 0.1 2.2-0.6 3 0 0.4 0.3-0.7 2.6-0.3 2 1.6-2.2 3.3-9.5 3.4-9.1 0 0 0.9-2.8 2-1 0.1 0.1 1.1 6.1 1.1 14.2 0 12.4-1 28.9-0.9 29.6-0.6 0.1-0.9 0.5-1.5 0.5 0.7 1.1-1 1.5-2.1 1.7l-0.2 0.3h-1.1c-0.5 0 0-0.2-0.2-0.4-0.8 0-1.6-0.4-2-0.4-0.5 0-1.1-0.2-0.8 0.3h-5.6c-0.5 0.1-2 1.6-2.5 1.6-1.3 0-2.1-1.4-2.5-1.9-0.3 0.2-0.6 0.9-1.9 1.1-1.4-0.3-3.3-1.1-3.8-1.1-1.1 0-0.9 0.8-2.4 0.8-0.9 0-1.8-0.5-1.8-0.7 0-0.5-0.8-0.5-1.1-0.9-2.8 0-5.5 0.1-8.4 0-1.4 1.3-2.8 2.7-4 4.3-0.1-0.3-0.4-0.4-0.8-0.5-0.5-0.9-1.1-0.7-1.5-0.7-0.5 0-0.9-0.1-1.2 0.1-0.3 0.2-0.7 0.7-1.1 0.7-0.7 0-1-0.7-1-1 0-0.7 1.2-1.4 1.8-1.8 0.2-0.3 0.2-0.7 0.5-0.8l0.8-1.1c0 0 0.2-0.6 0.3-0.8 0.1-0.3 0.8-0.3 0.8-0.3l2.5-0.1 0.8-0.1h0.4c0 0-0.6-0.7-0.9-1-0.4-0.3-0.5-0.5-0.5-0.5-0.4-0.2-1.5-1.2-1.6-0.9-0.7-0.4-0.9-0.2-1.4-0.2-0.5 0-0.6 0.3-0.9 0.7-0.8 0.1-2.1 0.5-2.7 0.8h-0.7c0-0.5 0-0.8-0.1-1.1-0.4 0.4-0.6 1.1-1.3 1.1-0.5 0-1.9-0.4-2.8-0.4-0.5-0.4-1-0.9-1.5-1.1-0.5-0.2-1.3 0-2.1-0.1 0 0-0.1-0.2-0.2-0.3 0 0 0.2 0-0.3 0-0.5 0-0.9 0.4-1.4 0.4-1.2 0-0.7-0.9-1.9-1.2l0.2-3.2c-0.4-0.9-0.8-2-0.9-3-1.3-1.1-2.2-2.4-2.8-4-2.8-2.1-4.1-5.6-4.8-8.1l-0.2-1.5v-5.3l0.3-1.2c0.1-1.3 0.5-1.5 0.5-2.7 2.4-2.7 3.1-9.5 5.3-12.4 2.8-1 4.4-4.6 7-5.9 1.5-0.6 6.6-1.8 9.3-2.8 1.3-0.4 2.7-0.8 3.7-1.1 0.5-0.1 1.2 0.2 1.7-0.1 0.8-0.5 1.4-1.5 1.8-2.2 0.2-0.1 0.5 0.1 0.8-0.1-0.9 0.7 7.5 1 6.6 1.9 1.7 0.5 3.3 0.9 4.6 1.3 1 0.3 1.6 1.3 2.6 1.8 1.8 1 3.9 2.1 5.8 3 0.4 1 1.1 2.1 1.7 2.9 1 1.4 2.5 2.1 3.8 3.3l5.5 8.6m-30.6-22.8q0 0 0 0 0 0 0 0zm6.4 57.7l-0.9-1.2c-0.5-0.2 0-1.7-0.5-1.7-0.4 0-0.3 0.2-0.5 0.4h-1.5v-1.6c-0.7 0.2-1-0.6-1.1-0.7 0.3-0.1 0.8-0.6 0.8-1.1 0-0.5-0.4-1.5-0.8-2 0.2-0.2 0.4-0.3 0.4-0.5h-1.2c-0.3 0.8-0.4 1.6-0.3 1.9-0.5-0.2-0.7-0.3-0.8-0.5-0.1-0.2-0.1-0.4-0.2-0.6-0.7-0.9-1.7-1.9-2.3-2.8h-5.1c0.5 0.5 0.4 1.1 0.5 1.4 0.5 0.4 0.6-0.4 1.1 0.1 0.6 0.5 1.6 2.2 2.1 2.7 0.7 0.3 1.5 0 1.9 0.8 1.4 0.2 2.9 1.2 3.4 2.2 0.4 0.7 0.9 1.7 0.9 2.2 0 0.5-0.4 0.3-0.4 0.8 0 0.5 0.4 0.5 0.4 0.7-0.2 0.1-0.4 0.2-0.4 0.5 0.3 0 0.4 0.1 0.4 0.4h3.6c0.2-0.8 0.1-0.5 0.5-1.4zm-31.9-33.2c-0.1 1.3-1.5 5.5-1.5 5.5l0.3 4.9c0.9 1.3 0.9 3.8 2.1 4.9 0.2-1.1 1.5-1.1 2.3-0.9 1.8-1.7 3.5-1.8 2.4-4.5-5.5-3.8-5.2-1.9-5.6-9.9zm16 16.9c0 0.3-0.2 0.3-0.2 0.3-0.9 0.3-1.9 0.9-2.9 0.9-0.6 0.8-1.6 1.1-2.4 1.6 0 0.2 0 0.4 0 0.9 0 1.1 0.6 1.7 1.6 2.5 1.4 0.5 3.8 0.9 4.3 0.9 0.5 0 0.7-0.2 1.1-0.5v-1.4c0.6 0 1.2-0.1 1.6-0.1 0.2 0 1.2-0.1 1.2-0.8 0-0.5-0.2-0.4-0.3-0.5-0.1-1-0.5-2.2-0.5-2.6 0-0.5-0.2-1.2 0-1.5 0.3-0.3 0.7-0.5 0.7-0.6 0.4-0.7 0.9-1.6 0.9-2.1 0-0.5-0.4-0.9-0.7-1.6-0.7 0.7-1 1.4-1.6 1.9-0.1 0.4 0 0.8-0.1 0.9-0.2 0.2-1.3 1.2-1.7 1.8z" />
		<path fill="#ffb20f" stroke="#ffb20f" stroke-miterlimit="3.8637" stroke-width=".5" fill-rule="evenodd" d="m382.7 340c1.4 2.7 2.6 5.4 2.9 8.7 1.4-0.5 0.7-2.9 0.7-4h0.7v3c0 0.5-0.2 0.1-0.3 0.3 0 1.9-0.2 3.5-0.8 4.7 0 0.2 0.3 0.3 0.5 0.7 1.5-0.9 0.5-4 1.1-5.4 0.2-0.6 0.4-0.5 1.1-1.1 0-0.7 0-1.7 0.1-2.5 0.2-0.1 0.3 0.2 0.3-0.3 0-0.5-0.4 0.1-0.4-0.4 0-0.5 0.4-0.9 0.8-1.3v3.8c0 0.5-1.1 2.4-1.5 3.8-0.6 1.7-0.9 3.5-1.3 5.3-0.3 0.1-0.4-0.3-0.8-0.4v1.1c0.2 0.2 0.6 0.1 0.8 0.2-0.1 0.3 0.1 0.9 0.9 1.2-0.3-0.9 0.2-2.9 1.1-3v-0.5c-0.2-0.2-0.5-0.1-0.7-0.2v-0.7c0.2 0 0.3-0.1 0.3-0.4 0.3 0 0.4 0.2 0.5 0.4 1.1-0.6 0.9-2 1.6-2.7 1-1.1 1.9-2.2 3.1-3.1 0.7-0.6 1.5-0.8 1.5-1.6h1.2c-0.4 0.5-0.5 1-0.9 1.4-1.3 1.4-3.4 2.5-4.6 4.2-1 1.5-1.6 5.4-1.6 5.9 0 0.5 0 0.7 0.1 1 1.4-0.7 0.9-2.9 1.1-4.2 0.1-0.8 1.1-1 0.8-2h0.8c-0.4 0.8-0.4 2-0.8 2.8l0.1 3.8c1.4-0.3 0.6-2.3 0.7-3.4 1.9-1.3 1.1-1.3 2.5-1.3 1.1 0 2.2 1.2 3 1.2v3.4c0 0.5-0.4 0.4-0.5 0.8-0.7 0.5-1.9 0.7-2.6 1-0.1 0.4-0.1 0.8-0.1 1.3 0 0.5 0.4 1.6 0.4 2.1 0 1.6-2.2 6.3-2.9 6.6-1.1 0.4-1.3 0.8-2.2 1.4 0 0.6-0.3 0.7 0.2 0.7 0.5 0 0.2-0.1 0.2-0.4h0.8v1.5c-0.4 0.6-1.7 2-1.2 3.2-1.3 0.2-2.7 0.8-3.1 0.8-1.4 0-2-0.8-2-1.6 0-0.8 0.4-1.9 1.3-2.3 0.5 0 1.1 0 1.7-0.1 0.2-0.1 0.4-0.3 0.5-0.5v-0.4c-1.1-0.2-2.6-0.6-3.1-0.6-0.5 0-1.7 0.4-2.2 0.4-0.5 0-1.1-0.4-1.5-0.8-0.2 0-0.3 0.4-0.7 0.6v1.4c1.4-0.4 3.6 0.5 3.6 2.1 0 1.4-1.9 1.8-2.6 1.8-3.2 0-3.2-2.3-4.5-4.8 0-0.2 0.4-0.3 0.8-0.5v-0.5c-1.3-0.8-2.5-1.3-3.5-2.6-0.1-0.3-0.1-0.9-0.1-1.3-0.1-0.2-0.4 0.2-0.4-0.3 0-0.5 0.4-0.1 0.4-0.6 0-0.5-0.4-1.3-0.5-2-0.7 1.1-1.9 2.3-2.7 3.4-0.6 0.8-1.3 1.8-1.4 2.6-0.1 0.6-0.1 1.2-0.2 1.8-0.1 0.1-0.3-0.2-0.3 0.3 0 0.5 0.4 0.3 0.4 0.8 0 0.3-0.6 1.2-1 1.7l-0.1-0.3c-0.1-2.8 0.3-6 1.6-7.8 1-1.5 2.5-2.9 3.9-4.1h-1.1c-0.5 0-1.7 2-2.9 2.8v-0.7c1.1-1.2 1.5-3.4 4-2.8v-1.3c-0.7 0.4-1.4 0.2-1.9 0.5-0.9 0.5-1.8 1.7-2.5 2.5-0.1 0.1 0.1 0.6-0.1 0.9-0.2 0.3-0.6 0.6-0.6 1-0.5 2.2 0.2 5.2-1.6 6.6v-1.1c-0.1-0.5 0.2 0 0.3-0.2 0-2.6 0.3-5 0.9-7.3 0.3-1 2.1-2.9 3.2-3.2 0.3-0.1 0.9 0 1.3-0.1 0.4-0.3 0.6-0.9 0.9-1.2l-0.1-0.7c-0.3 0.4-0.7 0.8-1.2 0.8-0.5 0-0.8-0.7-1.1-0.8-2-0.5-1.9-1.1-1.9-2.4 0-0.5 0.2-1.5 0.5-2.3 0.4 0 0.9 0 1.1-0.4h4.3c0.4 1.2 0.8 2.6 0.9 3.9 0.3-0.3 0.7-0.7 0.7-1.2 0-0.5-0.1-0.4-0.3-0.5-0.3-1.6-0.7-3-1-4.1 0-0.2-0.7-0.1-0.7-0.6v-0.7c1.1 0.3 1.3-0.5 1.6-0.8v1.1c0 0.5-0.4-0.2-0.4 0.3 0 0.5 0.9 1.8 1.1 2.7 0.2 0.9 0.1 2.1 0.3 3.1h0.6v-3.9c0-0.5-0.4-1.1-0.8-1.8v-1.5c0.8 0.9 1.2 2.1 1.6 3.3l0.1 3.9c0.2-0.1 0.3-0.5 0.7-0.6v-3.7c0-0.5-0.2-0.1-0.4-0.2 0-1.4-0.4-2.8-0.9-4.1-0.2-0.6-0.8-1.4-1.2-2-0.6-0.8-1.9-1.3-2.7-2.4h1.2c0.4 0.4 1 0.7 1.5 1.2 0.7 0.7 1.6 1.9 2 2.8 0.1 0.3-0.1 1 0.1 1.3 0.2 0.3 0.6 0.7 0.7 1.1 0.3 1.3 0.4 3.3 0.4 3.8 0 0.5-0.4 1.1-0.4 1.5 0 0.5 0.4 0.6 0.9 0.9-0.1-1.3 0.3-3.7 0.3-4.2 0-0.5-0.1-2.9-0.4-4.4-0.1-0.4-0.6-0.7-0.7-1.1-0.7-1.9-1.4-3.4-3.2-4.2v-0.7h0.7c0.8 0.6 2 1.5 2.7 2.4 0.6 0.6 0.9 1.9 1.2 2.8 0.2 0.5 0.1 1.2 0.2 1.7 0 0 0 0.2 0.3 0.2v5.7c0 0.5-0.4-0.1-0.4 0.4v2.9h0.8v-5.1c0.3 0 0.5-0.4 0.8-0.4-0.3 1.5 0.5 2.8 0.6 4.4 0.1-0.1 0.2-0.5 0.6-0.6v-4.9c0-0.5 0.2-0.1 0.4-0.2v-3.8c0-0.4-1-1.7-1.2-2.5-0.2-1.3-0.2-2.4-0.8-3.1 0 0 0-1.9 0-1.9zm-19.3-17.7v0.6l-0.4 0.3v1h1.9c6.8-4.4 7.6 1 12 1.9 1.5 0.4 2.5 0.9 3.7 1.8 0.8 0.5 1.4 2.4 2.1 3.3 1.6 1.8 3.8 3.1 5.4 4.9 0.8 0.9 0.6 2.3 1.6 3.2 0.1 0.8 0.5 1.5 0.9 2.2h-1.1q-1.3-0.9-2.8-1.6l-0.2-0.7-1.3-0.1-0.5-0.4c0-1.5-0.8-2.7-0.9-4.1-2.2-2.7-8-7.9-8.7-8.8-0.5-0.3-0.9 0.4-0.5 0.7 0.6 0.5 1.2 1.3 2 1.5 1.8 1.6 7.3 6.3 7.3 8.8l-2.1 3.1c-1 0.1-2 0.1-2.9 0l-1.5-1.1h-0.5c-0.1 0.8-0.7 1.5-0.5 2.3-0.5 0.1-5.1 1.1-4.9-0.3-1.7-0.3-1.4 2.1-1.4 3.1h-0.7l-0.6-1.2h-0.5l-0.7 1.1c-1.9-0.1-2 2.6-0.7 3.4l-2.8 2.2-0.9-0.3-1.1 0.7-1.1-1.2v1.2c-0.8-0.5-0.9-1.5-1.3-2.3-0.3 0.2-0.6 0.7-0.7 1.1h-1.5c-2.5-4.8-0.4-2.2 2-5.5 0.9 0.8 1.5 1.7 2.2 2.5 0.1 0.7 0.3 1.4 0.7 1.9l0.3-0.8 0.9 0.4 0.6-0.1c-0.9-1.1-2.1-2.1-1.6-3.7l-0.4-0.2-0.9 0.4c-1.3-2-1.8-1.2-2.7-0.1-0.9 0.3-1.7 1-2.7 0.9v-2.3l1.2-1.8-0.1-0.6c-4.7 6.5 1.7 8.1 0 14.8-1.4 5.6-10.9 7.6-10.9 10.2 0 2.4 2.3 3.7 4.4 4.1q2.6 0.4 5.3 0.5l0.9 2.1c-0.2 0.7-0.4 1.6-0.9 2.2-0.7-0.6-0.6-1.4-0.7-2.3-0.1-0.3-1.7-0.4-3.1-0.9-0.7-0.2-1.4-0.9-1.7-1.2l-0.7 0.5c0.8 0.4 1.4 1 2.1 1.5l2.1 0.1c1.2 2.1-0.1 1.7-0.7 3.5h-0.6c-1.2-2.3 0.2-3.1-3.2-3.3l-1-0.7-1.1 0.2v0.5l1.1 0.2c0.4 0.8 1.6 0.9 2.4 0.8l0.5 0.3v0.7c-4.6 2.6-4.2-1.4-9.1 0.1l-1.5-1.3v-3.8l-0.4-0.2c-0.1-0.8-0.3-1.7-0.5-2.5-2-1.5-4.4-6.9-0.5-6.1 1.6-0.8 2.8-2.1 4.1-3.2l0.1-1.4 1.1 1.2v-1.5c-1.7-1.2-4.4-2.4-5.8-3.8-1.3-1.2-1.3-5.4-1.3-5.4-0.2-1.3 0.7-6.7 0.7-6.7-0.3 0.8-0.9 1.5-1.5 2.1-0.1 2.5-1.7 5.2-2 8l-0.4 0.3v4.9l0.3 0.2c0.5 2.1 0.9 4.5 2.5 6.2l-0.4 1.1h-0.7c-2-2.4-2.1-4.9-3.6-7.1v-7c1-1.6 3.8-11.9 5.6-15.3 4.1-2 5.2-5.6 7.9-5.9 4.3-0.6 10.4-3.3 11.3-3.3 0.9 0.1 1.5 0.8 2.4 0.8 1.8 0 0.9-1.7 3.9-1.5zm28.8 35.1v0.7c0.6 0 0.9-0.1 1.2 0.8h0.7v-1.2c-0.3 0-0.4 0.1-0.4-0.4 0-0.3 0.4-0.8 1.2-0.8 0.5 0 0.9 0.2 1.6 0.4v-0.7c-0.8-0.3-0.9-0.8-1.6-0.8-1 0-1.5 1.1-2.7 2zm-22.1-0.5c0 0.5 0.4 0.6 0.7 0.8 0.2-0.5 1.3-2 1.7-2 0.5 0 0.8 0.8 1.1 1.1-0.3 0.4-0.7 0.7-1.1 1v1.1c0.5-0.5 1.7-1.5 2.7-1.2v-1.1c-1.8-0.5-1.4-1.6-2.7-1.6-0.4 0-2.4 1.3-2.4 1.9zm6.3 7.1c0.9 0.3 1.3 1.7 1.7 2.3 0.9 0.5 2.1 0.5 3 1 0 0.4 0.5 0.8 0.8 1 0-0.2 0.1-0.3 0.4-0.4v-2.7c-1 0.1-1.4-1-1.7-1.1-0.9-0.1-2-0.2-2.9-0.5-0.3-0.1-0.1-0.8-0.6-0.7h-0.7zm2.4-2c0.6 0.4 1.3 0.6 1.8 0.8 0.6 0.4 1.1 1.6 1.9 1.6 0.5 0 0.5-0.2 1-0.5v-1.1c-0.4 0.2-0.5 0.4-1 0.4-1.1 0-2-1.4-3-1.9h-0.7zm4.7-2.3c0 0 0 0.7 0 0.7 0.3 0 0.4-0.1 0.4 0.4 0 0.5-0.1 0.4-0.4 0.4v1.2c1.4 0.2 0.7 2 2.4 2 0.5 0 0.4-0.4 0.9-0.5h1c-0.7 1.3-1.9 2.7-1.9 4.2 0 0.5 0.4 2.1 0.8 2.9h0.7c-0.4-1.1-0.8-2-0.8-2.5 0-0.3 0.4-0.3 0.4-1.4 1.1-0.3 2.7-0.2 3.1-0.9-0.2-0.8 0.4-1.5 1.2-1.5 0.1-0.4 0.5-0.3 0.5-0.8v-1.1h-0.8c-0.3 0.4-1.4 1.2-2 1.2-1.2 0-0.3-0.8-1.6-0.8-0.5 0-0.9 0.4-1.3 0.4-0.7 0-1.3-0.5-1.1-1.5-0.4-0.3-0.6-0.4-0.7-0.6-0.1-0.6 0-1.2 0-1.8zm-4.1 20.4c-1 0.1-1.2-0.9-1.8-1.1-0.1 0.2 0.2 0.3-0.3 0.4h-1.4c0.5-1.1-0.4-3 1.1-3.2 0.7 0.8 1.3 2.5 2.4 3.1v-0.7c-0.2-0.1-0.3 0-0.3-0.4 0-0.5 0-0.3 0.1-0.4 0.9 0.3 2 0.7 2.5 0.7 0.4 0 1.4-0.3 1.9-0.3 0.5 0 1.1 0.3 1.6 0.3 0.5 0 1.7-0.7 2.2-0.7 0.5 0 0.2-0.1 0.4 0.1v1.1c-0.5-0.1-1-0.1-1.1 0-0.5 0.6-1.1 1.2-1.8 1.4v-0.4l-0.5-0.9 0.5 1.3q-0.7 0.3-1.4 0.2c-0.1 0.2 0 0.3-0.5 0.3-0.6 0-0.9-1.1-0.8-1.5-0.6-0.1-1.2-0.3-1.9-0.4 0 0.6-0.2 1.2-0.4 1.5zm5.4 0.3q0.1 0 0.1 0v0.2zm-15.9-3.7c0.4-0.3 0.7-0.7 1.1-1v-4.2c0.3 0.2 0.8 0.4 0.8 0.9 0 0.5-0.3 0.2-0.4 0.4l0.1 1.8h0.5c0.2-0.5 0.2-1.3 0.2-1.8 0-0.5 0-1-0.1-1.6-0.1-0.2-0.3 0.2-0.3-0.3 0-0.5 1-2.5 1.6-3.8h0.7v1.1c-0.6 0.9-1.6 2.5-1.6 3v4.1c0 0.3 0.4 1.4 0.7 2.1-0.1 0-0.3 0-0.3 0.2 0 0.5 1 1.4 1.6 1.8-0.2 0.3-0.3 0.7-0.8 0.7-1.5 0-1.7-3.7-1.7-3.9-0.3 0.2-0.6 0.5-0.7 1.1-0.6 0-0.8 0.1-0.7 0.8-0.4 0.1-0.8 0-1.1 0 0.1-0.3 0.3-0.3 0.6-1zm3.3 0.6q0.2 0 0.4 0.1v0.5q-0.2-0.2-0.4-0.6zm0.2-6.2c-0.1-0.5 0.4-1.2 0.8-1.6h0.7c-0.4 0.9-0.6 1.6-0.7 2.1-0.3 0.7-0.1 1.7-0.1 2.7 0 0.2-0.4 0.2-0.4 0.7 0 0.5 0.4 0.9 0.4 1.2 0 0 0 0.2 0.5 0.4-0.1-1.7 0.3-3.5 0.4-5.5 0.2-0.1 0.4-0.5 0.7-0.4 0 0.7-0.6 6.3-0.2 7.4-0.1 0.1-0.2 0-0.2 0.4-0.3 0-0.4-0.5-0.4-0.8-0.1 0-0.8-0.2-1.3-0.3zm2.2 7c0 0 0.1 0 0.1-0.2l0.3-1.3c-0.1 1-0.1 1.7-0.2 1.7q-0.2 0.1-0.2-0.2zm0.6-5.9h0.7c0 0.7-0.2 1.3 0.1 1.8 0.1 0.4 0.7 0.6 0.7 1.1 0 0.5-1.2 1.9-1.5 3-0.1-0.5-0.1-1.1-0.2-1.6v0.1c0.1-1.6 0.2-4.1 0.2-4.4zm9.4-15.4c0.4-0.2 0.8-0.5 0.8-0.7-0.3-0.1-0.5-0.5-0.8-0.4zm-0.8 15.8h0.8v0.7h-1.2c0-0.3 0.4-0.5 0.4-0.7zm5.4-8l0.5 0.1c0 0.4-0.1 0.7-0.2 0.9l-0.6 0.2c0.1-0.3 0.2-0.5 0.3-1.2zm-9.4 0.3l0.6 0.3c0.3 0 0-0.1 0.5 0.2l0.2 0.9-1.3-0.3c0.1-0.3 0.3-0.8 0-1.1zm5.6-13.6c0.4-0.3 0.4-0.7 0.3-1.2-0.3 0.2-0.3 0.7-0.3 1.2zm-30 2.6c-0.8 0.4-4.2 2.1-4.7 2.5-0.8-0.5-2.5-1-3.5-0.8v0.8l1.5 0.8c-0.8 1.1-1.6 2.3-2.3 3.5h0.7c1-1.1 1.8-2.3 2.6-3.5 2.4 0 7.6-2.4 6.9-5.5h-0.7c-0.1 0.7-0.4 1.4-0.5 2.2zm38.6-10.9v0.7c-0.2 0.1-0.4 0.5-0.7 0.4v-0.7c0.3 0 0.5-0.4 0.7-0.4zm-29.4 13.8h0.7c0 0.3-0.4 0.5-0.7 0.8zm18.8-17.8h1.2c0.5 1.2 0.5 2.1 1.1 3.2v1.5c-0.8-0.8-1.2-2.3-1.6-3.4 0-0.2-0.7-0.1-0.7-0.6zm3.2 1.6c1 0.6 1 1 1.5 2l-0.2 3.4c0-0.5-0.3-0.5-0.5-0.9-0.2-0.4 0.1-1.3-0.1-2.1-0.2-0.4-0.3-0.9-0.7-1.3zm-6.7 0.4h1.1c0.2 0.4 0.4 0.5 0.8 0.8v1.1h-0.7c0.1-1-1-1.2-1.2-1.9zm11 1.2v1.1h-0.8v-0.8c0.3 0 0.5-0.4 0.8-0.3zm1.2 0.3h0.8v0.7c-0.4 0.7-1 1.2-1.3 2-0.6 0.1-0.9 0.4-1.5 0.9v-1.2c0.8-0.6 1.2-1.6 2-2.4zm-21.3 0.4h0.8c0 0.3 0 0.6 0.1 0.7 2 0.9 3.7 2.3 5.4 3.7v1.1c-0.7-0.6-1.6-1.4-2.5-1.9-0.5-0.3-1.2-0.3-1.7-0.5-0.5-0.2-1.1-0.7-1.6-1.2-0.1-0.1-0.5-0.3-0.5-0.8 0 0 0-1.1 0-1.1zm23.6 0.8v1.1c-0.4 0.5-0.8 0.9-1.2 1.5-0.7 1-1.8 2.2-2.9 2.5-0.2 0.6-0.6 1.2-1 1.6h-0.7v-0.7c0.4-0.5 0.5-1.2 0.8-1.6 1.3-1.6 3.8-3 5-4.4zm-25.8 0.5c0 0.5 0.6 0.4 0.8 0.6 0.1 0.2 0.5 0.1 0.9 0.2 0.4 0.7 1.7 1.5 2.7 1.5 0.9 0.8 1.9 1.6 2.9 2.4v0.7h-0.7c-1.4-2.7-5.1-2.9-6.7-4.4zm12.8 0.3c0.5 0.9 1.2 1.7 1.5 2.5 0.1 0.3-0.4 1.5 0.4 1.9 0 0.2-0.4 0.5-0.7 0.7-0.5-1.6-0.1-2.9-1.2-4zm-14.2 1.2c0.7 0.6 1.7 1 2.5 1.5 0.5 0.4 1.1 0.5 1.7 0.6 0.4 1 1.7 2.1 2.8 3.1v1.5c-0.2 0-0.5-0.4-0.6-0.5-0.5-1.3-1.5-2.6-2.6-3.4-0.9-0.6-2.1-0.7-2.9-1.3-0.4-0.2-0.9-0.3-0.9-0.8zm29.6 0.8h0.7v1.1c-0.8 0.2-1.2 0.8-1.7 1.2-0.1 0-0.6-0.2-0.9 0.1-0.7 0.5-1.4 1.5-2.1 2 0.2 0.4 0.3 0.7 0.8 0.7 0.5 0 2.6-2.3 4-3.5h0.7v0.7c-1 0.8-2 1.8-2.8 2.7 0.2 0.1-0.1 0.1 0.4 0.1 0.4 0 1.2-2 2.4-2 0.5 0 0.5 0.4 0.8 0.5v0.7c-1.5 0.1-2.5 0.8-3.2 2-0.3 0-0.4-0.5-0.5-0.8-0.3 0.2-0.6 0.8-1 0.8-0.5 0-0.3-0.4-0.8-0.4-0.5 0-0.6 0.3-0.9 0.7h-0.7c0.2-0.3 0.4-0.6 0.4-1.1 0-0.5-0.4-0.5-0.4-1 0-0.5 1-1.3 1.3-2.1 0.8-0.1 1.5-1.3 2.3-2 0.4 0 0.9 0 1.2-0.4zm-30 2h1.8c0.1 0 0.2 0.4 1.3 0.4 0 0.2-0.4 0.4-0.4 0.7-0.9-0.4-1.9-0.8-2.7-1.1zm-3.9 1.9h2.1c0.5 0-0.1 0.4 0.4 0.4 0.5 0 0.1-0.4 0.6-0.4 0.5 0 2.2 0.7 3 1.3 0.4 0.2 0.7 0.7 0.9 1-1.3-0.3-2-0.9-2.8-1-1-0.2-2.2 0-3.3-0.2-0.2 0-1 0.1-0.9-0.4zm6.3 0h0.7c0.4 0.4 1 0.8 1.6 1.2v1.1h-0.8c-0.1-1.1-1.1-1.5-1.5-2.3zm29.3 1.2c0.5 0 0.5 0.2 1 0.4v0.7h-2.4v-0.7c0.5 0 0.9-0.4 1.4-0.4zm-35.6 1.2h1.1c-0.4 0.7-1.2 1.3-1.5 1.9v-1.1c-0.1-0.5 0.3-0.3 0.4-0.8zm5.8 0.8c0 0.2-0.3 0.4-0.4 0.7-0.5-0.4-1-0.4-1.5-0.4-0.3 0-0.9 0.1-1.3 0.4h-1.5c0.3-0.9 1.7-0.8 2.9-1.5 0.4 0.4 1.2 0.4 1.8 0.8zm28.4 0h1.6v0.7h-1.2c0-0.3-0.4-0.5-0.4-0.7zm-32.6 1.2h0.7v0.7c-1.9 1.6-3.2 4.2-3.2 7.1h-0.7v-3.5c0-0.5 0.2 0 0.3-0.2 0.1-0.9 0.4-1.9 0.9-2.5 0.5-0.5 1.3-0.8 2-1.6zm1.5 0.8h2.3c-0.7 0.8-1.4 0.5-2 1.1h-1.1c0.2-0.4 0.6-0.7 0.8-1.1zm0.3 1.5v0.7c-0.2 0.2-1.9 1.6-1.9 2.3 0 0.4 0 0.4 0.1 0.5 0.9-0.7 1.7-1.9 2.7-2.7h1.1c-1.1 1.5-2.4 2.8-3.5 4.3-0.3 0-0.4-0.2-0.5-0.4h-0.7v4.6c0 0.1-0.4 0.2-0.4 1.3-0.3-0.2-0.8-0.3-0.8-0.8 0-0.4 0.4 0 0.4-0.5 0-0.5-0.4 0.3-0.4-0.2v-3.9c0-0.5 1.2-2.6 1.7-3.9 0.8-0.3 1.5-0.7 2.2-1.3zm2.1 2h0.7c-0.4 0.7-0.9 1.4-1.5 2.1-0.3 0.3 0 1-0.1 1.3-0.3 0.6-0.7 1.8-0.7 2.3 0 0.5 0.4-0.1 0.4 0.4 0 0.5-0.4 0.5-0.4 1 0 0.5 0.4 0.5 0.4 0.9 0 0.5-0.4 1-0.7 1.4-0.1-0.9-0.1-1.8-0.5-5.4 0-0.2 0.2-0.4 0.3-0.6 0.1-1.1 1.3-2.6 2.1-3.4zm1.7 0.4c0.5 0 0.6 0.2 1 0.4-0.8 0.7-1.8 1.5-2.7 2.3v-1.1c0.5-0.2 1-1.6 1.7-1.6zm-6 4.3h1.1c0 1.1-0.1 2.1 0.1 3 0.1 0.8 0.7 2.4 0.7 2.9 0 0.9 0 1.1-0.7 1.6-0.1-0.9-0.6-1.7-0.8-2.5-0.2-0.5-0.1-1.2-0.2-1.7-0.1-0.2-0.3 0.1-0.3-0.3 0-0.5 0.2-0.2 0.3-0.4 0-0.5 0.4-1.9-0.2-2.6zm19.3 15c0 0-0.6 0.2-0.3 0.6 0.2 0.3 0.4 0.9 0.4 0.9l-0.1-0.8zm11.4-17.3h0.7c0.6 1.2 1.6 2.2 2.3 3.2 0.3 1.7 0.9 2.5 0.9 3.7 0 0.4-0.5 3.8-0.9 4-0.1 0.1-0.6 0.1-0.9 0.2-0.5 0.4-0.1 1.9-0.2 3-0.2-0.5-0.5-1.3-1.2-2.5-0.2-0.4-0.4-0.3-0.4-0.8 0-0.5 0.4 0.3 0.4-0.2v-3.8c0-0.5 0.4-0.2 0.4-0.7 0-0.5-0.3-1.2-0.7-1.9v-1h0.7c-0.1 0.4 0 0.9 0.3 1.2 0.1 0.2 1.6 6 1.8 6 0.1-0.2 0-3.7-1.3-6.1 0-0.1 0-0.2-0.1-0.4-0.3-0.7-1.2-2.2-1.8-3.2 0 0 0-0.7 0-0.7zm1.9 14.1c0.2 0.5 0.3 0.7 0.2 0.8 0-0.5-0.4-0.4-0.2-0.5q0-0.1 0-0.3zm0.2 0.8c0 0.5-0.6 0.3-0.2 0.5 0 0.2-0.4 0.4-0.4 0.7-0.5-0.3-1-0.5-1.5-1q-0.1 0.1-0.1 0.1l-0.1-0.2q0 0 0-0.1l0.1 0.3c-0.3 0.4-0.7 0.8-0.8 1 0.1 0.1-0.2-0.2-0.2-0.2v-0.1q-0.1 0.3-0.2 0.6h-0.6c-0.5 0-0.1-0.2-0.3-0.3-0.3-0.1-0.9-0.1-1.3-0.2-0.3-0.3-0.5-0.5-0.8-0.8-0.1-0.1-0.1 0-0.1-0.4 0-0.5 0.8-0.9 0.8-1.4 0-0.5-0.4-0.3-0.4-0.8 0-0.5 0.4-0.7 0.4-1.2 0.2 0 0.3 0.1 0.4 0.2 0 0.1 1.6 4.5 1.6 4.6l0.5-0.3c-0.2-0.5-0.9-2.2-0.9-2.8 0-0.6-0.6-1.9-0.6-2 0.2-0.9 0.4-1.8 0.6-2.8 0.3 0.2 0.8 0.4 0.8 0.9 0 0.5-0.1 2.1-0.3 2.9l1 2.8-0.4-4.3v-5.5c0.4 0 0.5-0.1 0.5-0.4 0.3 0 0.4 0.4 0.7 0.4 0 0.3-0.3 0.3-0.3 0.8 0 0.5 0.3 0.3 0.3 0.8 0 0.5-0.2 0.3-0.4 0.5v5l1.6 2.5c0-0.1 0.4 0.3 0.6 0.2q0 0 0 0zm-2.2 0.3q0 0 0 0l0.1 0.4zm-0.1-0.3q0.1 0.1 0.2 0.2 0.1-0.3 0.2-0.4l-0.3-0.7-0.5-1zm1.3 3.2h-1.9v-1.1c0.3-0.1 0.4-0.6 0.5-0.9 1.5 0.7 1.9 0.7 3.1 0v1.4c-0.4 0.4-0.9 0.2-1.3 0.6 0 0 0 0.1-0.1 0.1-0.1-0.1-0.3-0.1-0.3-0.1zm-5.7-2c0.5 0 1 0.4 1.4 0.9v1.1c-1.1-0.2-1.7-0.4-2.1-0.4-0.6 0-0.9-0.2-1.1 0.4-0.2 0-0.4-0.4-0.7-0.5 0.8-0.5 2-1.5 2.5-1.5zm7.7-22.4h0.8c0.5 0.9 0.4 2.1 1.6 2.8v0.7c-0.3 0-0.4 0.1-0.5 0.4-0.5-0.9-1.3-1.6-1.9-2.4 0 0 0-1.5 0-1.5zm-1.1 4.3h1.1c0.2 0.4 0.4 0.6 0.8 0.8v2.7h-0.8c0.5-1.3-0.8-2.4-1.1-3.5zm-0.8 1.2h0.7c0 0.5 0.2 0.8 0.4 1.5-0.5-0.4-0.7-1-1.1-1.5zm-37.8-11h1.5c0 0.4 0.3 0.8 0.6 1.1 0.1 0.1 0.5 0 0.8 0.1 0.5 0.3 0.7 1.1 1.4 1.6-0.4 0.6-1 1.3-1.2 2-0.2 0.7 0 1.7-0.1 2.5-0.2 0.1-0.3-0.2-0.3 0.3 0 0.5 0.4-0.1 0.4 0.4 0 0.5-0.2 0.2-0.4 0.3 0 1-0.4 2.4-0.4 2.9 0 1.8 0.4 2.1 0.8 4 0.1 0.5 0.8 1.2 0.8 1.7 0 0.5-0.4 0.7-0.5 1.1h-0.7c-0.5-1-0.7-2.2-1.7-2.7-0.5-0.2-1.2 0-1.8-0.1-0.1-0.6-0.5-1.1-0.8-1.6-0.1-0.3 0-0.8 0-1.3 0-0.4 0-0.9 0-1.2 0.4-0.5 0.9-1 1.1-1.5 0.1-0.3 0-0.9 0.1-1.3 0.2-0.1 0.3 0.2 0.3-0.3 0-0.5-0.8-2.1-0.8-2.5 0-0.5 0.4-3.7 0.9-5.5zm-1.6 27.9l2.3-0.1 1.5 0.1 0.2-0.3 0.3-0.2c0 0 0.1-0.4-0.1-0.8-0.2-0.3-0.7-1.3-1.5-1.7-0.7-0.4-1.3-0.5-1.3-0.5 0.3-0.7 0.6-1.4 0.7-2h0.5c0.5 0.4 1.4 0.6 2.1 1 0.4 0.2 2 2.9 2 3.7 0 0.8-0.5 1.7-1.9 1.7-0.8 0.6-1.6 1.8-2.4 1.9-0.3 0.8-0.9 1.2-1 2h-0.5c-0.2-0.4-0.6-0.6-0.6-1 0-0.5 0.4-0.8 0.8-1.1v-0.7c-0.3 0-0.5 0.4-0.7 0.5-0.2 1.4-1.8 1.6-3.1 1.5-0.3 0.4-0.4 0.5-0.7 0.7l-0.2-1.2c1.3 0.5 1.8-0.9 2.3-1.2 0.1-0.4 0-0.8 0.1-1 0.3-0.4 0.7-0.7 1.2-1.3zm41.8-41.8c0.7 1.5 0.5 1.6 0.4 1.8-0.1 0.3-0.1 0.7-0.1 1.2 0 0.5 0.8 5.4 0.8 5.9 0 1 0 1.8-1 1.8-0.5 0-1.3-0.6-2.2-0.9 0.3-0.3 0.4-0.6 0.4-1.1 0-1 0-0.7-1.1-1.6 0.4-1.5 1.5-3.4 1.5-3.9 0-0.5-0.4-0.3-0.4-0.8 0-0.5 1.2-1.5 1.7-2.4z" />
		<path fill="#000" stroke="#0b0707" stroke-linejoin="round" stroke-width=".5" d="m354.2 378.2c0.2-0.3 0.4-0.5 0.7-0.6 0.6 0 1.4 0.1 1.4 0.3 0.1 0.4-0.2 0.3-0.3 0.3-0.2-0.1-0.7-0.3-1.6 0.4-0.2 0-0.2-0.3-0.2-0.4z" />
		<path fill="#000" stroke="#0b0707" stroke-linejoin="round" stroke-width=".5" d="m368.8 371l2.3 2-1.1-0.2-0.8 1.5-0.1 0.7c-0.3 0.7-0.4 0-0.5-0.2l-0.1-0.8c0-0.8 0.5-1.1 0.8-1.7-0.4-0.4-0.4-0.9-0.5-1.3z" />
		<path fill="#fc6" stroke="#0b0707" stroke-width=".6" fill-rule="evenodd" d="m389.9 334.2c-0.3 0.3-0.1 2.1-0.1 2.6" />
		<path fill="#ffe39f" stroke="#ffe39f" stroke-miterlimit="3.8637" stroke-width=".5" fill-rule="evenodd" d="m363.8 320.5l1.2-0.5c0 0.3-0.8 1.3-1.1 1.5z" />
		<path fill="#feca00" fill-rule="evenodd" d="m414.6 303c0 0.6 0.2 1.3-0.3 1.6-0.4 0.1-0.7-0.2-0.8-0.5-0.1-0.4-0.2-0.9 0.2-1.2 0.2-0.2 0.8-0.3 0.9 0.1z" />
		<path fill="#161413" stroke="#0b0707" stroke-width=".5" fill-rule="evenodd" d="m405.5 344.5c0.1 0.3-0.6-0.1-0.7-0.3-0.4-0.7-1.2-1.2-1.6-1.9-0.3-0.6 0.1-2.8 0.1-2.1 0.1 1.5 1.8 2.3 2.2 4.3z" />
		<path fill="#feca00" fill-rule="evenodd" d="m410.8 340.2c0.1 0.2 0 0.4-0.2 0.6-0.2 0-0.3-0.1-0.4-0.3 0-0.2 0-0.5 0.2-0.6 0.2-0.1 0.3 0.2 0.4 0.3z" />
		<path fill="#ffe39f" stroke="#0b0707" stroke-width=".5" fill-rule="evenodd" d="m381.5 276.3c-6.3-8.7-4.2-10.2 4.7-24.3 2.5-0.1 2.6-2.9 3.2-5.2 0.6-1.9 1.9-3.4 1.9-3.4l9.9 1c0 0-2.5 5.6-2.4 6.6 0.1 1 4.8 2.1 4.8 2.1l2.8 12.3-10 11.4z" />
		<path fill="#ffe39f" stroke="#0b0707" stroke-width=".6" fill-rule="evenodd" d="m384.2 278.9c0 0 3.1 4.3 3.5 8.2 0.4 3.9-1.8 4.7-1.8 4.7l16.6 10.1c6.4 0.2 8.7-3.6 10.4-8l2.1-2.9-0.7-0.8c0 0-1.6-1.8-1.9-4.2-0.4-2.4-0.5-3.7-0.9-7-0.2-2 0.4-5.9 0.3-8.8-0.1-1.9 0.6-7 0-9.1-0.1-0.5-0.9-1.2-1.1-1.5-1-1.5-1.8-1.6-1.9-1.5-1.4 0.3-1.7-2.3-3.2-3.2-2.2-1.3-4.9-0.9-4.9-0.9" />
		<path fill="#ffe39f" stroke="#ffe39f" stroke-miterlimit="3.8637" stroke-width=".5" fill-rule="evenodd" d="m364.6 320.5l1.1-0.4c0 0.2-0.8 1.1-1.1 1.4z" />
		<path fill="#ffe39f" stroke="#0b0707" stroke-width=".6" fill-rule="evenodd" d="m382.1 258.8c0 0-2.3 0.8-2.5 0.9-0.9 0.7-2.7 2.3-2.7 5.8 0.1 3.3 1.3 6.8 1.3 6.8 0 0-2.8 6.9-2.8 10.3 0 3.4-0.7 8.1-0.7 8.1 0 0-0.6 1.3-1.2 2.8-0.3 1-4.3 14.5-6.3 22.7-1 4.1 3.2 5.9 5.3-0.1 3.2-8.8 7.9-21.2 7.9-22.5 0-2.1-0.1-3.7-0.1-3.7 0.2 0.1 5.1-9.3 4.2-15.2" />
		<path fill="none" fill-rule="evenodd" d="m383.5 291.9c0 0 3.9 2.6 7 3.8 3.2 1.1 8.4 3 10.9 3.1 2.4 0.1 6.5-0.5 6.5-0.5" />
		<path fill="none" fill-rule="evenodd" d="m413.3 294.2c0 0-0.6 1.5-1.3 1.9-0.7 0.5-1.5 1-1.5 1" />
		<path fill="none" fill-rule="evenodd" d="m392.6 296.4c0 0-0.8 2-1.2 3.8-0.4 1.8-1.1 7.8-1.1 7.8" />
		<path fill="none" fill-rule="evenodd" d="m381.5 307.7c0 0 0-3.6 0.3-5.5 0.3-1.8 0.3-1.8 0.3-1.8" />
		<path fill="none" fill-rule="evenodd" d="m384.5 292.6c0 0-0.7 4-0.7 5.5 0 1.5 0 3.1 0.4 4.8 0.4 1.7 1.4 3.7 1.4 3.7" />
		<path fill="none" fill-rule="evenodd" d="m410.2 309.5c0 0 2.2-3.1 2.6-5.2 0.4-2.1 0.7-5.1 0.7-5.1" />
		<path fill="none" fill-rule="evenodd" d="m400.1 318.9c0 0 0.1-3.9-0.3-7.5" />
		<path fill="none" fill-rule="evenodd" d="m383.6 291.9c0 0 3.9 2.6 7 3.8 3.2 1.1 8.4 3 10.9 3.1 2.4 0.1 6.5-0.5 6.5-0.5" />
		<path fill="none" fill-rule="evenodd" d="m413.4 294.2c0 0-0.6 1.5-1.3 1.9-0.7 0.5-1.5 1-1.5 1" />
		<path fill="none" stroke="#0b0707" stroke-width=".6" fill-rule="evenodd" d="m386.5 271.2c3.2 0.4 9.7 0.3 11.6-3.7" />
		<path fill="#000" stroke="#0b0707" stroke-width=".5" fill-rule="evenodd" d="m397.9 278c-1.3 1.2-1.9 1.6-2.6 2.4-0.3 0.4-0.8 0.9-0.7 1.6l0.3 0.1c0-0.4 0.1-0.6 0.3-0.9 0.3-0.9 1.5-1.8 2.9-3zm-2.1 9.9c0 0.1-0.1 0.4-0.2 0.6 0 0.3-0.2 1.3-0.3 1.9-0.1 0.5-0.1 1.1 0.2 1.7l0.1-0.1c-0.2-0.4-0.2-1.1-0.1-1.6 0.1-0.5 0.2-1.7 0.6-2.2-0.1 0.1-0.2-0.3-0.3-0.3zm0.3 0.3q0 0 0 0 0 0 0 0zm7.1 0.5q-0.1-0.1-0.3 0c-0.3 0.1-0.4 0.3-0.4 0.4q0 0.2 0 0.5h0.3q0 0 0 0.1c0 0 0.1 0 0 0.1l0.3 0.8c0.4-0.1 0.6-0.5 0.6-0.7 0.1-0.3 0.1-0.6 0-0.8q-0.1-0.1-0.2-0.3-0.1-0.1-0.3-0.1z" />
		<path fill="#ffe39f" stroke="#0b0707" stroke-width=".6" fill-rule="evenodd" d="m409.1 299.1c0 0 4.6 3.6 4.6 12.1 0 1.5 0.6 9.1 0.6 10.6 0.2 3.1-0.5 3.6-0.2 5.6 0.8 4.8-2.5 6.5-2.5 6.5 0 0 0.1 3.7-0.4 6.5-0.5 2.8-2.9 6.2-1.9 6.3 1.8 0.1-0.5 4.3-1.5 11.8-1 7.3-3.9 11.2-3.1 12.6 0.4 0.7 1.9 1.5 3.6 2.8 1.8 1.3 3.7 3.1 4.2 3.4 1 0.5 2.9 1.8 2.9 1.8 0.4-0.2-0.1-0.1 0.1 0q0.1 0.2 0.2 0.4c0 0.1-3.8-1.1-3.8-1-0.1 0.2 3.7 1.6 3.6 1.7-0.3 0.4-1.1 0.6-2 0.4 0 0-1.8 0-3.1-0.6-0.4-0.2-0.9-0.7-1.6-0.8-2.6-0.1-3.2-1.1-3.2-1.3-0.2-0.1-1.1 0-1.2 0h-6l-0.8-0.8 0.1-3.2c0-0.4 1.7 0.8 2.1 0.6 0.3-0.2-0.1-1.1-0.5-1.8-0.4-0.6 0.2-1.5 0.3-2.1 0.1-0.5-0.4-5.5-0.1-7.8 0.2-1.7 1.4-1.8 1.3-2.1v-3.5c-0.6-0.6-1.6-1.6-0.4-4.8 0.3-0.8-0.3-1.5-0.2-1.9 0-1.5-0.8-0.9-0.7-2.6 0.1-1.3 0.5-2.7 0.5-2.7 0.5-0.2 0.2-5.1-0.4-6.9-0.7-2-0.4-2-0.4-2 0 0-2.1-3.5-2.5-5.9-0.5-2.3-3-25.6-3-25.6" />
		<path fill="#ffe39f" stroke="#0b0707" stroke-width=".6" fill-rule="evenodd" d="m402.9 371.3c0 0.3 0.1 1.8 0.2 2.3 0.1 0.3 1.2 0.3 1.5 0.3 0.8 0.2 0.3-0.9 0.1-1.2 0-0.1 0-0.2 0-0.4" />
		<path fill="#ffe39f" stroke="#0b0707" stroke-width=".6" fill-rule="evenodd" d="m407 344.6c0 0-0.1-0.6-0.2-1.1-0.1-0.2-0.2-0.5-0.4-0.5-0.3-0.2-0.4-0.6-0.6-0.8-0.9-1-0.4-1.1-0.6-1.5" />
		<path fill="#ea7200" stroke="#0b0707" stroke-width=".6" fill-rule="evenodd" d="m399.4 317.3c0.1 2.4 0.6 6.7 0 9.1 0.1 1.5 0.4 1.2-0.3 2.3-0.9-1.1 1.7-0.2 2.3 1.1 0.1 0.5 0.1 1.2 0.4 1.9 0.5 1 1.2 2 0.8 2.6-0.1 2.3-0.7 0.5-0.6 2.8-0.2 1.8-0.6-0.8 0.1 0.6l-2 6.6c0.3-1.1-0.2-2.3-0.6-4-0.1-0.6 0.3-1.6 0.1-2.3-1.3-2.1-0.2-1.7-1.1-4.4-1-2.7-2.2-8.4-2.8-11.2-0.3-1.6-3-9.1-0.9-9.4 0.4 0 5.7-10.2 8.6-8.6 2.7 1.6-3.2 5.4-4 12.9z" />
		<path fill="#ffe39f" stroke="#0b0707" stroke-width=".6" fill-rule="evenodd" d="m403.1 323.5c0 0 0-0.7 0.1-1.1 0-0.3-0.1-0.6-0.3-0.7-0.2-0.2-0.2-0.6-0.4-0.9-0.6-1.2-0.1-1.1-0.1-1.6" />
		<path fill="#000" fill-rule="evenodd" d="m394 296.5c0 0-0.8 2-1.2 3.8-0.2 1-0.5 2.9-0.7 4.6-0.2 1.8-0.3 3.3-0.3 3.3-0.1 1.1-1 1.5-0.2 0.1 0 0 0.7-1.4 0.9-3.1 0.2-1.8 0.9-3.5 1.1-4.4 0.4-1.7 2.1-3.7 2.1-3.7z" />
		<path fill="#000" fill-rule="evenodd" d="m384.3 292.3c0 0-0.6 0.6-1.1 1.5-0.5 0.8-1 1.8-1 2.8 0 0.7 0 2.1 0 3.5 0.1 1.4 0.2 2.9 0.4 3.8 0.3 1.4 0.7 1.9 1.4-0.1-0.2-0.8-0.4-2.2-0.5-3.6 0-1.4 0.2-2.5 0.2-3.2 0-0.6 0.1-2 0.6-2.8 0.5-0.8 0.7-1.4 0.7-1.4z" />
		<path fill="none" fill-rule="evenodd" d="m410.3 309.5c1.5 0 2.4-3.1 2.6-5.2 0.2-2.1 0.7-5.1 0.7-5.1" />
		<path fill="#000" fill-rule="evenodd" d="m414.4 293.4c0 0-1.8 2.2-2.3 3.7-0.5 1.4-1.1 2.3-1.8 3-1.6 1.6-1.2 3.2 0.5 1.4 0.9-0.9 2.3-2.5 2.9-4 0.5-1.5 1.2-2.5 1.2-2.5z" />
		<path fill="#000" fill-rule="evenodd" d="m399.5 311.5c0.4 3.5-1.5 20.3-1.5 20.3l1 5.4c0.3 2.8 0.9 2.4 0.5-0.5 0 0-0.7-4.2-0.8-6-0.1-2 1.2-7.2 1.2-7.2l0.4-4.4c0 0 1.3-3.9 0.6-7.5-0.8-3.6-1.8-3.6-1.4-0.1z" />
		<path fill="#161413" stroke="#000" stroke-width=".6" fill-rule="evenodd" d="m397.5 249.1c0.1 0.3-0.2 0.5-0.4 0.6-0.7 0.1-1.4 0-1.8-0.5-0.2-0.4 0.1-0.7 0.4-0.8 0.4-0.1 0.8-0.4 1.3-0.3 0.3 0.3 0.3 0.6 0.5 1z" />
		<path fill="#ffe39f" stroke="#000" stroke-linejoin="round" stroke-width=".6" d="m392.4 240.3c0.4-1.7 1.6-3.2 2.3-3.8 0 0 0.7-0.3 1.3-0.1 0.4 0 0.7 0.3 0.9 0.4 0.5 0.2 0.6 0.3 1 0.7 0.3 0.3 0.8 0.2 0.8 0.2 0.2 0 0.1 0.2 0.4 0.1 0.2 0.4 0.5 0.6 0.8 0.5 0.4-0.2 1-0.5 1.5-0.6 0.3 0.2 0.5 0.2 0.8 0.3 0.8 0.2 1.1 2.8 0.4 4.3l-0.8 2.9c-0.1 0.8-0.4 2.3-1.2 2.4-0.2 0.9-0.9 1.1-0.9 1.9-0.1 1-1.2 1.9-1.7 2.7-1.2 0.4-2.6 0.7-4.6-0.2 0 0-1.2-1.3-1.7-1.9-0.4-0.8-1-1.8-1.1-1.7-0.1-0.8-0.5-1.7-0.2-2.3-0.5-0.4-0.7-0.8-0.8-1.3 0-0.5-0.3-0.7 0.3-1.9 0.8-0.8 1.6-1.2 2.5-2.6z" />
		<path fill="#000" fill-rule="evenodd" d="m397.2 242.6c0-0.1-0.1-0.6-0.8-1.2-0.6-0.6-3.3-0.8-3.7-0.6-0.4 0.2-0.8 0.7-0.8 0.7 2.5-0.6 4.1 0.7 5.3 1.1z" />
		<path fill="none" stroke="#000" stroke-width=".6" fill-rule="evenodd" d="m396.8 242.5c-0.2 0-1.3-0.4-1.6-0.6-0.2-0.1-0.5-0.2-0.7-0.3-0.4-0.1-0.2 0.5-0.1 0.5 0.1 0.4-0.2 0.7 0.2 0.9 0.3 0.1 0.6 0.2 0.9 0.2 0.4 0.1 1.1-0.4 1.4-0.4 0.1-0.1-0.1-0.2-0.1-0.3z" />
		<path fill="none" stroke="#000" stroke-width=".6" fill-rule="evenodd" d="m399.6 243.5c0.2 0 0.7-0.1 1.1-0.2 0.2 0 0.5 0 0.7 0 0.4 0 0.2 0.6 0.1 0.6-0.3 0.2-0.2 0.5-0.6 0.5-0.3 0-0.6-0.1-0.9-0.2-0.3-0.1-0.4-0.4-0.6-0.5-0.1-0.1 0.1-0.2 0.2-0.2z" />
		<path fill="none" stroke="#000" stroke-linecap="round" stroke-linejoin="round" stroke-width=".6" fill-rule="evenodd" d="m399.1 243.4c-0.3 0.4-1 1.4-1 2 0 0.3-0.1 1.3-0.1 1.5 0 0.1-1.6-0.3-1.6-0.7" />
		<path fill="#000" fill-rule="evenodd" d="m398.7 242.9c0.1-0.1 0.5-0.7 1.4-0.7 1.3 0 2.7 0.1 2.7 0.3 0.1 0.3-0.1 1-0.1 1 0 0-0.8-0.5-1.2-0.5-0.3-0.1-2.7-0.1-2.8-0.1z" />
		<path fill="#0b0707" fill-rule="evenodd" d="m395.2 248.2c-0.2 0-0.4 0.3-0.2 0.5 0.9 0.7 2 0.8 2.8 0.5 0.1 0 0.2-0.2 0.1-0.4 0-0.1-0.2-0.1-0.4-0.1-0.1 0-0.4-0.2-0.7-0.4-0.1 0-0.1 0.1-0.1 0 1.8-3.6-0.3-0.1-0.4-0.1q-0.4-0.1-0.9 0c-0.1 0.1-0.1 0-0.2 0z" />
		<path fill="#ffe39f" stroke="#0b0707" stroke-linejoin="round" stroke-width=".6" d="m372.9 313.8c0 0.2 0.2 0.8 0.1 1.1-0.7 2-1 4.2-2.3 5.7-1.3 0.8-2.4 0.3-4.8 3.5l-3.2 1c-1.8-1.7-0.8-1.6-0.7-2.2 3-0.9 2.8-1 1.9-2-0.4 0.4-0.3-1.6-4.5 2.4-3 0.8-2-0.3-2-0.9 1.5-1.8 2.1-2.3 3.6-3.6 4.1-2.2 5.6-3.3 6.1-3.9 0.2-0.3 0.9-0.8 0.6-0.9" />
		<path fill="#000" fill-rule="evenodd" d="m386.9 310.7c0 0 0.7-1.5 1-3 0.2-0.7 0.4-2.2 0.6-3.6 0.1-1.3 0.3-2.5 0.3-2.5 0-0.9 0.4-1.2-0.2-0.1 0 0-0.6 1.1-0.7 2.5-0.2 1.3-0.8 2.7-1 3.3-0.3 1.4-1.7 3-1.7 3z" />
		<path fill="#000" fill-rule="evenodd" d="m392.6 313.9c0 3.5 0.2 5.8 0.2 5.8l-1.5-1.7c0 0-0.2-0.6 0.3-4.2 0.5-2.7 1-2.3 1 0.1z" />
		<path fill="#000" stroke="#0b0707" stroke-linejoin="round" stroke-width=".6" d="m398.6 260.7c-0.5 0-1.3 0.1-1.2-0.7 0-0.3-0.6-0.6-0.1-0.6 0.5 0 1.3 1 1.3 1.3z" />
		<path fill="#000" fill-rule="evenodd" d="m403.7 285.1c-2.1-0.1-5.7 0.1-7.4 0.8l0.3 0.5c2.8-1 7.6-1.1 10.9 0l0.1-0.3c-1.3-0.4-3.1-1-3.9-1z" />
		<path fill="#000" fill-rule="evenodd" d="m378.7 286.3c-1 1.1-1.8 2-2.5 2.2-0.7 0.3-0.8 0.5-1.5 0.4v1.8c0.7 0.1 0.9-1.3 1.7-1.6 0.9-0.3 1.3-1.6 2.4-2.7z" />
		<path fill="#ffb20f" stroke="#000" stroke-linecap="round" stroke-linejoin="round" stroke-width=".5" d="m392.2 231.9c1.5-0.6 1.3-0.4 2-0.3 1.5 0.1 2.2-0.5 2.7-1.1l1-1.1 1.6-0.6c1 0.3 2 0.8 2.9 1.6l0.1 0.8 2.1 2.4-0.3 7.5-1.4 2.3 0.2 3.4-1.1 3.5c-2.7 2.6-1.5 3.3-1.7 4.3l-1.7 0.2c0.4-0.5-0.3-2.9 0.1-3.3 0.6-0.8 1.3-1.9 1.5-2.9 0.7-1.1 1.3-2.3 1.3-3.5 0-1.1 2.2-2.3 1.5-3.9-0.1-0.3-0.2-0.9-0.6-1.4-0.4-0.3-1.8 0.6-2 0.2-0.3-0.6-0.3-1.4-0.7-1.6-0.5-0.3-1.6 1-2.5 1 0-1.5-2.9-1.2-4.3 0.6l-3.6 4.6 1.5 1.5 0.2 1.9-1.2 1 0.8 6h-0.8c-0.8-2.7-1.1-0.7-3.1-0.2 0.4-0.9-0.1-1.7-1.3-2.2 0.8-1.2 2.1-2.3 1.2-3.9-0.7-1.3-2.2-1.5-1.1-5 0.3-1.2 0.7-1.9 1.1-1.9l1-1.8 0.4-2.8 1.5-1.7c1.2-0.1 1.8-2.4 2.7-3.6z" />
		<path fill="#000" fill-rule="evenodd" d="m402.3 230.6l0.1 0.8 2.2 2.5-0.3 7.5-1.4 2.2 0.1 3.4-1 3.5c-2.8 2.6-1.2 1.9-1.4 2.9h-0.6c-0.4-1.2 1-2.4 1.2-2.8 0.4-0.7 0.4-1.1 0.7-1.7 0.3-0.8 0.3-1.2 0.6-1.9v-1.5-1.4l-0.9 1.4c0.3 1.2-0.8 2.2-1 2.9-0.2 0.7-0.1 0.8-1.1 2.5-0.5 0.6-0.7 1-1 1.6 0-0.3-0.1-0.6 0.1-0.8 0.6-0.8 1.4-1.9 1.6-2.9 0.7-1.1 1.2-2.3 1.2-3.5 0-1.1 2.2-2.3 1.6-3.8-0.2-0.4-0.3-1-0.7-1.4-0.3-0.4-1.7 0.5-2 0.1-0.2-0.6-0.2-1.3-0.6-1.6-0.6-0.3-1.6 1-2.5 1-0.1-1.5-3-1.1-4.4 0.6l-3.3 4.4q-0.1-0.3-0.1-0.5c-0.2-0.1-1.2 0.6-1.4 0.6-0.8 0.6-0.5 2.8-0.5 3.7-1.6-0.3-0.6-1.9-0.9-2.5h-0.7c-0.2 0.5-0.5 0.5-0.5 1 0 0.9 1.7 1.7 1.7 3.3 0 0.5-0.2 1.3-0.5 2.1-0.1 0.3-0.5 0.5-0.7 0.8q-0.2-0.2-0.5-0.3c0.7-1.2 2-2.3 1.2-3.9-0.8-1.2-2.2-1.5-1.1-5 0.3-1.2 0.6-1.9 1-1.9l1-1.7 0.4-2.9 1.5-1.7c1.3-0.1 1.9-2.4 2.7-3.5 1.5-0.7 1.3-0.5 2-0.4 1.5 0.1 2.2-0.5 2.7-1.1l1-1.1 1.6-0.6c1.1 0.3 2 0.8 2.9 1.6zm-12.6 14.6l1.1 1.1 0.1 1.9-1.1 1 0.8 5.8-0.9 0.3c-0.7-2.7-1-0.8-3.1-0.2q0.2-0.4 0.2-0.7c0.7-0.4 2.4-1 3-1.1l-0.8-4.4c0-0.1 1.3-1.3 1.3-1.8 0-0.3-0.4-1.1-0.6-1.9zm-0.4-0.4l0.2-0.2q0.1 0.3 0.2 0.6zm10-14c0.5 0.2 0.5 0.8 0.5 1l0.7-0.4c0.4-0.2 0.9-0.2 0.9-0.5-0.5-0.2-1.5-0.8-1.9-1 0 0.3-0.2 0.6-0.2 0.9zm-2.8 0.5c-1 1.1-2.8 1.2-4 1.2-1.1 1.3-1.7 3.6-3.3 4.1-0.3 0.8-0.9 1.4-1.3 2v1.6c0.3-0.1 0.5-1.6 1.4-1.6 0.5 0 0.5-0.1 0.6 0.1v0.5c-0.3 0.4-0.7 0.8-1.1 1.1-0.1 0.2 0 0.5-0.2 0.6-0.9 0.5-1.7 1-2.3 1.8-0.3 0.5-0.4 1.2-0.8 1.6v0.8h0.7c0.9-0.9 1.8-1.8 2.7-2.4 0.3-0.2 1-0.1 1.3-0.2 0.4-0.5 1.8-1.8 1.8-2.9 0-0.5-0.8-2.6-0.8-3.1 0-1.4 1.5-3.3 2.7-3.7 0.1 0.4 0.5 0.6 0.5 0.7-0.4 0.4-1.2 0.6-1.6 1l-0.4 0.6 0.4 0.6c0.6-0.4 0.8-0.8 1.3-0.8h4.8c0.2-0.5 0.4-0.9 0.4-1.4 0-0.9-0.4-0.8-0.9-2.2-0.2-0.1-0.4-0.1-0.9-0.1-0.5 0-0.8 0-1 0.1zm3.6 2.4c0 0.5 0 0.7 0.1 1 0.3 0.4 2.5 1.4 3 1.4 0.1 0 1-0.1 1-0.8 0-0.5-0.4-1.4-0.5-1.9-0.6-0.5-1.6-1.4-2.2-1.4-1.2 0-1.4 0.7-1.4 1.7zm-2.4 3.7c0 0-0.8 0.8-0.9 1 0 0.2 0.3 0.6 0.3 0.6 0.5-0.4 2.6-1.4 2.6-2.5 0-0.5-0.8-0.2-1-0.4-0.5 0.6-0.6 0.8-1 1.3zm-4.9 0.3c0 0.6 0.1 0.8 0.7 1.3 0.5-0.7 0.5-1.7 0.9-2.9h-0.8c-0.3 0.9-0.8 0.8-0.8 1.6zm2 0c0 0.5 0.5 0.6 0.7 0.9 0.7-0.9 1.5-1.7 2.2-2.5h-2c-0.4 0.4-0.9 1.1-0.9 1.6zm5.7 0.9v1.1h1.2q0.7-0.6 1.2-1.2c0.6 1.5-0.3 0.3-0.3 1.5 0 0.5 0.4 0.9 0.4 1.4l0.2 0.8 0.6-0.8v-4c-0.4-0.5-0.9-0.9-1.4-0.9-1.1 0-0.9 1.2-1.9 2.1zm-2 14.7h-0.1q0.1-0.1 0.1-0.2c0 0 0 0.2 0 0.2zm-11.8 0.7q-0.1-0.4-0.6-0.8c0.5 0.2 0.6 0.5 0.6 0.8z" />
		<path fill="#000" stroke="#000" stroke-miterlimit="3.8637" stroke-width=".5" fill-rule="evenodd" d="m413.7 298.1c0.3 0 1.4 0.7 1.7 0.7v4.9c0 0.5 0.2 0.1 0.4 0.2 0.1 0.5 0.1 0.7 0.1 1.3 0 0.3-0.5 1.4-0.5 1.5v10.2c0 0.6 0.6 0.8 0.8 1.2 0.3 0.3 0.1 0.9 0.1 1.5 0 0.5-0.2 1.1-0.4 1.7-0.3 1.6 1.1 3.8 0.8 5.3-0.1 0.6-0.5 2.9-0.2 2.9l-1.5 4.3c0 0.6-0.7 1.4-1 2.4l-1.4 2.1c-0.2 0.2-1.5 1.2-1.5 1.2 0.5-2.1 0-2.1-0.2-3 0-0.4 0-0.9 0-1.4 0-0.6 0.2-2.3 0.5-3.3 0.2-0.8 1.3-2 1.3-2.5v-6.7c0-0.6 0.4-1.6 0.4-2.1l-1.7-3.4c0 0-0.8-1.5-0.9-2.1-0.1-0.3-0.1-1-0.1-1.6 0-1.8 0.8-2 1.3-3.8 0.3-1.1 0.3-2.5 0.6-3.8 0.2-1 0.8-2 1.4-2.8 0.1-0.1-0.3-0.5-0.2-0.9 0.4-1.1 0.1-2.6 0.2-4z" />
		<path fill="#ea7200" stroke="#000" stroke-miterlimit="3.8637" stroke-width=".5" fill-rule="evenodd" d="m415.1 298.2c0.4-0.1 0.6 0.4 0.9 0.4v4.9c0 0.5 0.2 0.1 0.4 0.2 0.1 0.4 0.1 0.7 0.1 1.3 0 0.3-0.5 1.4-0.5 1.5v10.2c0 0.6 0.6 0.8 0.8 1.1 0.3 0.4 0.1 1 0.1 1.5 0 0.6-0.2 1.2-0.4 1.8-0.3 1.5-0.2 3.2-0.6 4.7-0.1 0.6-0.7 2.4-0.3 2.5v5.3c0 0.5-0.7 1.4-1 2.4h-0.8c-0.1-0.4 0.4-0.4 0.4-0.9 0-0.6-0.4-0.7-1-1 0.1 1.3 0.1 2.7 0 4-0.2 0.2-1.5 1.2-1.5 1.2 0.5-2.2 0-2.1-0.2-3 0-0.4 0-0.9 0-1.5 0-0.5 0.2-2.2 0.5-3.2 0.2-0.8 1.3-2 1.3-2.5v-6.7c0-0.6 0.4-1.6 0.4-2.2 0-2.6-0.9-3.7-0.9-4.3 0-0.6 0.3-0.8 0.5-1.2l-0.8-0.2c-0.1 0.4-0.5 1.6-0.5 2.4 0 0-0.8-1.5-0.9-2.1-0.1-0.3-0.1-1.1-0.1-1.6 0-1.8 0.8-2 1.3-3.8 0.3-1.1 0.3-2.5 0.6-3.8 0.2-1 0.8-2 1.4-2.8 0.1-0.1 0.6-0.3 0.7-0.7 0.4-1.1 0.1-2.5 0.1-3.9z" />
		<path fill="#ea7200" stroke="#000" stroke-miterlimit="3.8637" stroke-width=".5" fill-rule="evenodd" d="m413.6 288.9h0.8v6l0.8 0.6v0.7c0 0.5-0.2 0.1-0.4 0.3-0.1 0.4-0.3 1.3-0.4 2.1-0.1 1.1 0.1 2.4-0.1 3.6-0.2 1-0.8 2-1.3 2.7-0.1 0.1-0.8 0.2-0.8 0.7 0.4 3.8-2.2 6.3-4.6 7.3-0.8 1.2-1.8 3-3.7 3-0.1 1-0.5 3.2-2.1 3.9h-1.4c0 0.6-0.4 1.9-0.5 2.9 0 0-0.3-0.2-0.3 0.3v5.5c-1.7 1.1-0.9 3.6-1.9 5.2-0.3-0.5-0.8-0.9-1.1-1.4-0.5-1-1.1-2.3-1.3-3.5-0.2-1-0.1-2.1-0.1-3.1-1.3-0.2-1.8-2.3-2.1-3.4-0.3-1 0.2-2.2-0.1-3.2-0.1-0.4-0.8-0.6-1.2-1.2 0-0.1-0.1-0.4-0.1-0.9 0-0.6 0.5-1.2 0.5-1.2l-0.9-0.5c0 0.6-0.2 0.1-0.4 0.3-0.2 1.7-0.4 2.2-0.9 3.8-0.3 0-0.6-0.5-0.8-0.6-0.1-1-0.5-2.4-0.5-2.9 0-0.5 0.4-1.9 0.9-2.7l-0.5-1.2h-0.8c-0.5-0.7-0.5-1.6-0.9-2.3l-0.9 2.3c-0.3 0-0.4 0.3-0.4 0.8h-0.9c0-0.5-0.4-0.9-0.4-1.4l-0.9 0.4c0 0.6 0.1 0.2 0.4 0.2 0 0.3-0.4 0.5-0.5 0.8-1.4-1.8-2.1-3.3-2.1-5.4 0-1.8 0-1.3 0.8-3 0.1-0.2 0.1-0.6 0.2-1 0 0 0.3 0.3 0.3-0.2l-0.8-0.5c0 0.6-0.9 2.5-1.4 3.6h-0.8v-2.1c0.4-0.3 1.3-2.4 1.3-2.9 0-0.5-0.4-0.3-0.4-0.8 0-0.6 0.2-0.2 0.3-0.4 0.1-1.7 0.2-3.3 0.6-4.9 0.2-0.8 1-1.7 1-2.3 0-0.5 0.7-0.2 0.7-0.5 1 0.4 1.8 0.3 2.5 0.5 0.1 0.7 0.5 1.1 0.7 1.6 0.4 0.1 1 0.1 1.4 0.1 0.6 0.7 1.3 1.4 2 1.6 1.1 0.4 2.2 0.6 3.2 0.6l2.3 1.3 1 0.4h1.6c1.2 0.8 5.1 2.6 5.5 2.6 0.7 0 1.8-1.4 2.1-1.7 0.6 0 1.3 0 1.9-0.1 0.6-0.6 0.9-1.6 1.6-2 0.7-0.5 1.6-0.8 2-1.6q0.4-1.1 0.5-2.8c1.2-0.7 1.1-2.9 1.8-4z" />
		<path fill="#000" fill-rule="evenodd" d="m383.9 294.4c0 0.5-0.4 1.1-0.8 1.6v7.2l-0.9-0.4v-6.7c0-0.6 0.8-1.7 1.6-2.3 0.2 0.1 0.1 0.1 0.1 0.6zm31.3 1.1c-0.4 0.2-0.8 0.7-1.2 1-0.5 1.9-0.9 3.9-1.3 5.5-0.6-0.2-0.9-0.3-0.9-0.8 0-0.6 0.7-3.2 1.3-4.7 0.2-0.5 0.8-1 1.3-1.5zm-19.6 2.6c-1.3 1.2-1.2 3.5-1.4 5.5-0.1 0.2-0.3 0-0.3 0.6 0 0.5 0.4 0.1 0.4 0.6 0 0.6-0.4-0.2-0.4 0.3v5.6c-0.5-0.2-0.9-0.3-0.9-0.9 0-0.5 0.5-0.9 0.5-1.5 0-0.5-0.5-0.7-0.5-1.3 0-0.5 0.5 0.1 0.5-0.4 0-0.6-0.5 0.1-0.5-0.4v-5.4c0-0.5 0.4-0.2 0.4-0.2 0.1-0.9 0.5-2 0.5-2.5 0-0.6-0.3-0.8-0.6-1.3zm0.9 0.5c0 1.1 0.2 2.4-0.7 2.6-0.2-0.4-0.6-0.6-0.6-0.7 0.2-0.2 0.4 0.2 0.4-0.4v-2zm-8.3 2.6c0.6 0 0.3 0 0.4 0.2-0.4 0.8-0.2 1.7-0.5 2.3-0.2 0.5-0.8 1-0.8 1.5v4.7l-0.8 2.2v-6.8c0-0.5 0.3-0.3 0.3-0.3 0.3-1.2 0.5-2.5 1-3.6 0.1-0.1 0-0.2 0.1-0.2q0.1 0 0.3 0zm-3.5 10.4l-0.9 0.4v-4.5c0.4-0.2 0.6-0.6 0.7-0.6zm4.6-2.1l0.2 3.8-0.4-1.2v-2.6zm11.9 1.4v5c-0.2 0.2-0.4 0-0.4 0.6 0 0.5 0.6 2 0.9 3.4h-1.4c0-0.5-0.4-2.5-0.4-3 0-0.6 0.4-2.5 0.4-3.1 0-0.5-0.4-1.8-0.4-2.3 0-0.6 0.4-0.9 0.7-1.1 0.2 0.2 0.4 0.4 0.6 0.5zm-9.1 0.9v4.1l-0.9-0.5v-4.2c0.5 0.2 0.7 0.4 0.9 0.6z" />
		<path fill="#000" d="m390.4 247.3l-0.2 0.2 2.9 4.9v0.1h0.1c5 0.7 3-0.2 4.6-0.3v-0.1c-1.2 0.1-2.3 0.4-3.8 0-1.2-0.3-2.7-3.2-3.6-4.8z" />
		<path fill="#000" stroke="#000" stroke-miterlimit="3.8637" stroke-width=".6" fill-rule="evenodd" d="m384.9 290.1h0.9c0 0.5 0 1.2 0 1.6 2.2 1 4.5 3.3 6.4 4.1 0.7 0.2 1.6-0.1 2.4 0.1 0.2 0.1 0.5 0.4 0.9 0.5 1.1 1.9 3.9 1.4 5.9 2.2 1.7 0.8 1.7 1.3 3.3 1.3 0.5 0 2.1-0.4 3.5-0.9v0.9c-0.4 0.4-1.2 1-1.9 1.3-0.3 0.1-1.1 0-1.5 0.1-0.3 0.1-0.4 0.4-0.7 0.8-0.2 0.1-0.5 0.1-1 0.1-1.5 0-3.3-1.6-3.1-1.8-1.3 0-2.5-0.1-3.8-0.6-0.3-0.1-0.7-0.6-1.1-0.7-0.8-0.3-1.6-0.3-2.5-0.6l-2.5-1.3c-1.1 0-0.8-0.4-1.8-0.8-1.5-0.6-2.6-2-4.3-2.4v-1.6c0-0.6 0.2-0.1 0.4-0.3 0-0.4 0-1.1 0.1-1.5 0.2-0.1 0.4-0.2 0.4-0.5z" />
		<path fill="#ea7200" stroke="#000" stroke-miterlimit="3.8637" stroke-width=".6" fill-rule="evenodd" d="m384.9 290.1h0.9c0 0.5 0 1.2 0 1.6 2.2 1 4.5 3.3 6.4 4.1 0.7 0.2 1.6-0.1 2.4 0.1 0.2 0.1 0.5 0.4 0.9 0.5 1.1 1.9 3.9 1.4 5.9 2.2 1.7 0.8 1.7 1.3 3.3 1.3 0.5 0 2.1-0.4 3.5-0.9v0.9c-0.4 0.4-1.2 1-1.9 1.3-0.3 0.1-1.1 0-1.5 0.1-0.3 0.1-0.4 0.4-0.7 0.8-0.2 0.1-0.5 0.1-1 0.1-1.5 0-3.3-1.6-3.1-1.8-1.3 0-2.5-0.1-3.8-0.6-0.3-0.1-0.7-0.6-1.1-0.7-0.8-0.3-1.6-0.3-2.5-0.6v-1.7h-1.3c-0.1 0-0.7 0.4-1.2 0.4-1.1 0-0.8-0.4-1.8-0.8-1.5-0.6-2.6-2-4.3-2.4v-1.6c0-0.6 0.2-0.1 0.4-0.3 0-0.4 0-1.1 0.1-1.5 0.2-0.1 0.4-0.2 0.4-0.5z" />
		<path fill="#ffe39f" stroke="#000" stroke-width=".6" fill-rule="evenodd" d="m412 271.6l0.1-0.6 0.2 0.6c0.3 1.3 0.7 2.5 1.1 3.4 0.8 1.8 1.7 4.6 1.8 5.1 0.1 0.5 0.5 2.3 0.3 2.3-0.5 0.2-0.6 0.7-0.4 0.8 0.6 0.3 1.5 0.5 2.2 0.9 0.3 0.2 0.7 0.8 1 1.1 0.2 0.1 0.4 0.1 0.6 0.1q0.7 0.6 1.2 1.3c0.1 0.1 0.1 0 0.1 0.5 0 0.4-1.9 2.6-2.1 4.1-0.3 0.3-0.6 0.5-1.1 0.5-0.9 0-0.6-0.7-1.8-1.1-0.5-0.3-1.2-0.5-1.8-1 0-0.8-0.3-1.7-0.8-2.5-0.6-0.8-0.4-3.3-1-4.3l0.1-2.5c0-0.5-0.1-0.7-0.3-0.8-0.1-0.4-0.1-1-0.1-1.5 0-0.5 0.4-1.6 0.5-2.1z" />
		<path fill="#ea7200" stroke="#080505" stroke-width=".6" d="m381.6 259.2l1.6-2.3 1.8-2.7 1.8-0.9 1.2 0.6 0.1 3.7 1 1.9c0.5 0.5 1.4 0.9 1.1 1.5l4.4 2.6c0.1 0 0.2 2.2 0.3 2.2 0.2-0.1 0.4-2.5 0.5-2.6 0.6-0.3 1.1-0.7 2.2-0.7 0.1 0.1 0.6 0.2 0.9 0.3 0.4 0 0.4-0.6 1.6 0.5l1 0.3 2.1-1.9v-3c0.2-0.4 0.6-0.8-0.1-1.2v-2.8h2.3l1.3 1.6-0.6 1.5 0.3 2.7 0.1-2.8 0.6-0.3 0.5-0.1 0.9 1.2-0.8 0.8 0.4 1c0 0.4 0.5 0.8-0.4 1.3q0.1 1-0.6 2c-0.8 0.5-1.2 1-2.1 1.5 0 0-0.7 0.1-1.2 0.1-0.2-0.1-0.4-0.3-0.7-0.4 0.2-0.7 2.8-2.1 2.6-2.1-0.8 0-3.4 2.3-3.6 2.4 1.7 0.8 1.4 0.5 1.7 0.5l1 0.3 0.6 0.4 1.3-0.1 0.2-0.6 1.8 0.7 0.7 1.2 0.1 1.2-0.7 0.2-1.2 0.2-0.6-0.5 0.2 0.5 1.4 0.4 0.5 0.3 0.7 0.5-0.1 1.6h-1l-1-1.2-0.8-0.5 0.7 0.8 0.6 1.1v0.9l-1.8-0.1-1-2.3-0.9-1.6 0.1 1 1 2.3-0.9 0.5c-1.4 0.2-1.3-0.4-1.6-0.8l-0.7-2.9-0.5-0.2-0.7-1.1 0.2-2.4-0.4-1.3c0 0-0.7-0.4-0.7 0 0 0.2 0.7 1 0.7 1.2 0 0.8 0 1.7 0 2.3 0 0.4-0.3 0.5-0.4 0.8-0.1 0.1 0.7 0.4 0.6 0.5l-0.7 0.1c-0.2 0-0.4 0.2-0.6 0.2q-0.4 0.2-0.8 0.2-0.3 0.1-0.5 0.1-0.3 0.1-0.6 0.1-0.4 0-0.7-0.1c-0.3 0-0.4-0.1-0.5-0.1-0.1-0.1-0.9-0.8-1.4-1.6-0.5-0.9-0.7-1.9-0.8-2l0.1 0.8-1.6 0.5-0.4 0.5 0.8 0.3c0.4-0.2 0.6-0.4 0.6-0.7l0.9 0.4 1.2 2.1-0.9 2.5c-0.6 1.4-1.6 1.9-2.6 2.5l0.2 0.8-1.8-0.1-0.6-1.6c-0.6 0-0.6 0.8-0.6 1.5l-1.8 0.6-0.2-2.7 0.4-0.1 1.2-0.7-0.5-0.3-0.3 0.4-1.3 0.3-2.1 0.1-0.3-0.6 1.7-1.6 0.6-0.5 1-0.2-1.1-0.3-0.9-1.1 1.3-1.4 1.2-0.5h1.6l1-0.3 1.6-0.7 1.6-0.3c0 0-1.2-0.4-1.7-0.2-0.6 0.1-1.4 1-1.4 1l-2.7-0.1-0.5-1c0 0-1.6-0.3-2.2-0.8-0.5-0.4-1-1.5-1-1.5h-1.4l-2.1-3.6z" />
		<path fill="#000" fill-rule="evenodd" d="m383 256.5c0.2-0.3 1-1.7 1.8-2.8 0.5-0.7 1.2-1.1 1.1-1.2h1.4l0.4 0.7 0.5 0.3 0.2 0.1v0.1l-0.1 3.7c2.1-0.1 4.2-0.1 6.4 0.5v1h-1.1v-0.4l-4.2 0.1 0.1 0.7c0.6 0.5 1 0.7 1.3 1.5 1.3 0.6 2.6 1.5 4 2.2h0.5q0-0.1 0.2-0.2c1.5-0.6 2.8-0.8 2.5-0.4 0.2 0.1 1.2 0 1.5 0.3 0.2 0.1 0.8 0.4 1.5 0.2 0.5-0.1 0.5 0.1 1.4-0.9l0.7-0.8c0-0.9 0.2-1.7 0-2.7 0-0.1-0.1-0.6-0.1-0.6-0.3-0.2-0.2-0.5-0.6-0.5q-0.1 0.2-0.4 0.4c-0.7-0.1-1 0-1.1 0-0.2 0.3-0.6 0.4-1 0.3-0.1 0-0.3-0.1-0.4-0.1v-0.5c3-0.6 3-1 3.3-1.3-2.4-1.7-2.1-1.2-2.4-1.3-1 0.2-0.8 1.3-0.8 2-0.4-0.2-0.4-0.4-0.5-0.6 0-0.8 0.1-1.4 0.3-2.1l0.4-0.5h2.7c0.4 0.4 0.8 0.9 1.3 0.9h1.7l1.6 1.6 0.5 0.7c0.5 0.4 0.9 0.8 1.5 1.3l-0.1 0.2-0.1 0.5c-0.6 0.1-0.6 0.5-0.9 0.7 0.2 0.3 0.5 0.2 0.4 0.7 0.1 0.8-0.4 1-0.3 1.3q-0.1 0.2-0.2 0.4c0 0.3-0.1 0.6-0.2 0.9-0.1 0.2-0.2 0.5-0.4 0.6-0.4 0.5-0.9 0.8-1.3 1.1-0.3 0.2-0.6 0.4-1.1 0.6l0.5 0.6h1.4v-0.2c-0.1 0 0.2-0.5 1.3 0 0.3 0.1 0.4 0.2 0.9 0.5l0.3 0.8 0.5 0.3v0.1l0.1 1.2v0.2c-0.2 0.5-0.5 0.4-0.7 0.6l0.9 0.6 0.1 0.1 0.1 0.7-0.3 1.2-0.3 0.1h-1l-0.1 0.8c-0.1 0.3-0.6 0.3-1.1 0.3q0 0 0 0c0 0.2 0 0.7-0.3 1.2l1.6-0.1c0.5-0.3 0.8-0.8 1.7-0.8l-0.3 0.8c-0.1 0-0.6 0.5-1.6 0.8l-5.1 0.1c0.2-0.4 0.7-2.1 0.4-2.1-0.2 0-0.4-0.2-0.5-0.4-1.1-0.6-0.8-2.3-1.1-3.5h-1.9c-0.5 0.5-0.9 0.8-2 0.8-0.7 0-1.8-0.1-2 0l-0.7 2.2c-0.5 1.4-1.2 1.7-2.2 2.2v0.7l1.9 0.1 2.9-0.4 2.4-2.1c0 0 0.1 0.5 0 0.9-0.3 0.6-1 1.3-1.6 1.9l-2.5 0.4-3.6 0.1h-2.3c-0.2 0-0.4-0.4-0.6-0.4-0.5 0-0.5 0-0.7 0.1-0.6 0.3-0.8 1-1.7 0.5-0.4-0.3-0.3-0.6-0.3-0.8 0-0.8 0.2-1.5 0-2.2l-2.4-0.1c-0.5-0.5-0.4-0.8-0.3-1 0.8-0.6 1.5-1.2 1.8-1.9 0.4-0.6-0.4-0.9-0.7-1.4l0.4-0.5 1.3-1.4h0.1l0.6-0.7-0.4-1.1c-0.3 0-1 0.2-1.8-0.5-0.5-0.4-0.8-0.7-1.1-1.1-0.6-0.1-1.2-0.3-1.8-0.8-0.7-2.3-1.3-2.9-2-3.3l0.3-0.2 0.3-0.6c0 0 1.3-2 1.3-2zm20.5 18.6q0 0.2 0 0zm3.6-2.1q0 0 0 0.1 0.2 0 0.4 0c0-0.2-0.1-0.2-0.4-0.1zm0 0.1q-0.3-0.1-0.6 0h-0.2l-0.1-0.2-0.6-0.5-0.7 0.4-0.1 0.1-0.3 1.5 1.9-0.1c0.3-0.4 0.8-0.5 0.7-1.2zm-7.7-5.5c-0.1 0.1-0.3 0.2-0.3 0.2v0.9h0.8l0.5-0.6q0.3-0.3 0.3-0.4c0.1-0.1 0.1-0.1 0.1-0.3 0-0.6 0-1.2 0-2q0-0.1-0.1-0.3c-0.1-0.1-0.3-0.4-0.3-0.4 0 0-0.4-0.8-0.4-1h-1.3v0.9c0.2 0.1 0.4 0.6 0.3 0.9 0 0.4 0.1 0.5 0.2 0.7 0.2 0.2 0.5 0.3 0.6 0.6 0 0.1-0.2 0.3-0.3 0.5 0 0-0.1 0.2-0.1 0.3zm-1.1-2.2l-0.1-0.5c-0.3-0.5-0.6-1-1.1-1.6h-1.2c-0.3 1.5-0.9 2.8-0.1 4.2 0.4 0.7 0.3 0.8 0.8 1.1 0.5 0.4 1.8-0.2 1.8-2.1 0-0.3 0-0.7-0.1-1.1zm-10.8-11.7l-0.6-0.4c-0.3-0.1-0.6-0.1-1.1 0.3l-0.4 0.1v0.2l-0.4 0.5v2.5c0.5 0.4 1.2-0.6 1.3 1.4l-0.1 1.8 1.3 1.2c0.8-0.1 1.7 0.1 2.7 1l0.1 0.4-0.6 0.6c-0.5-0.6-1.1-0.7-1.7-0.7-2-0.9-2.2-2.1-3-3.2v-1.3q-0.3 0.1-0.6 0c-0.3-0.3-0.5-0.7-0.7-1-0.1-0.1-0.2-0.2-0.2-0.3-0.4 0.7-0.9 1.3-1 2.2 0.7 1 1.1 2.1 2 3.2 0.2 0.1 0.5 0 0.8-0.4 0.6 0.7 0.7 1.2 1 1.9 0.4 0.2 1.4 0.4 1.8 0.5 0.2 0.1 0.7 0.2 1 0.8 0.7 0 1.3 0.3 1.9 0.4 0.4 0.2 1-0.3 1.3-0.6 0.3-0.3 0.7-0.2 1.1-0.3 0.6 0 0.7 0.3 1.3 0.1 0-0.3 0.1-0.6 0.1-0.9-1.4 0.1-1 0-1.4 0-1.3-0.9-2.2-1.8-3.2-2.7l-1-0.5-1.4-2.5-1.1-2.2c0.2-0.7 0.2-1.4 0.8-2.1q0 0 0 0zm18.4 2q0 0 0 0 0 0 0 0zm0 0l-2.3-0.4v2.1c0.1 0.1 0.1 0 0.2 0.1 0.1 0.1 0.1 0.3 0.1 0.5-0.1 0.2-0.2 0.4-0.3 0.6 0.2 0.3-0.1 0-0.1 0.3 0.1 0.3 0.8 1 0.8 1.2 0.1 0.7-0.1 1-0.3 1.3-0.2 0.2-0.2 0.3-0.4 0.6-0.6 0.7-2 1.6-2.1 1.8v0.8h0.8c0.3-0.2 0.9-0.8 1.3-1.1 0.4-0.3 0.8-0.6 1.2-0.8 0.3-0.2 0.5-0.4 0.7-0.4 0.1-0.1 0.3-0.1 0.4-0.1 0.1 0.1 0 0.6 0 0.6-0.3 0.1-0.8 0.5-1.1 0.7-0.3 0.2-0.6 0.5-0.9 0.7-0.1 0.1-0.4 0.2-0.5 0.3 0.1 0.1 0.3 0.1 0.5 0.3 0.1 0.1 0.3 0.3 0.3 0.2 0.9-0.5 2.1-1 2.8-2 0.3-0.6 0.6-1.2 0.7-1.8v-0.4l-0.1-1.9 0.1-1.2h-0.9v2.6c-0.3 0.4-0.5-0.1-0.7-0.2v-2.6l0.4-0.6c0.1-0.6-0.4-0.8-0.6-1.2zm0 7.1q0 0 0 0 0 0 0 0zm-2.4 2.9q0 0 0 0 0 0 0 0zm0 0c-0.5-0.1-0.9-0.3-1.1-0.4-1.1 1.8-0.7 1.6-0.9 2.2 0.4 0.5 0.9 0.9 1.5 1.3l0.6 3.1c0.8 0.1 0.4 0.1 1.1 0.4q0.3-0.2 0.5-0.7c0.3-0.8-0.5-1.1-0.7-1.6l-0.1-0.1 0.1-1.3 0.5 0.1 1.4 4h1.7l-0.1-1.7c-0.4-0.1-0.8-0.3-1.1-0.7v-0.4h0.6l1.3 1.6h0.9v-1.2c-0.2-0.2-0.3-0.4-1.1-0.7l-0.3-0.2c-1.6-0.4-1.5-0.7-1.4-1.1h0.6l0.1 0.4h1.7l-0.1-1.3c-0.8-0.5-1.8-1.2-2.2-1.3-0.2 0.1-0.4 0.1-0.6 0.3-1 0.8-1 0.5-1.2 0.5-0.6-0.3-0.9-0.8-1.3-1.2q-0.1 0-0.1 0 0 0 0 0c0 0-0.2 0.1-0.3 0zm0.3 0q0 0 0 0 0 0 0 0zm-1.4-0.4q-0.2-0.1 0 0 0 0 0 0zm-9.4 0h0.1q0 0 0 0 0 0-0.1 0zm1.4 1.3q0 0 0 0zm0 0l-0.1-0.9h-0.7l-1.5 0.8c-1 0.7-1.4 0.8-1.8 0.8-1.5-0.8-1.6 0-2.4 0.1-0.2 0.3-0.1 0.8-0.1 1.2 0 0.4 0.2 0.8 0.8 1v0.4c-0.5 0.3-1.1 0.5-1.6 1v1.3h1.7c0 0 0-0.2 0.1-0.3 0-0.1 0.2-0.1 0.2-0.1h0.7c0 0 0 0 0.1 0.1v0.5c-0.2 0.1-0.3 0.2-0.4 0.3-0.2 0-0.2 0.1-0.4 0.1-0.1 0.1-0.2 0.1-0.4 0.1v1.7h0.9c0-0.3 0.1-0.4 0.2-0.7 0-0.1 0.1-0.4 0.3-0.5 0.1-0.2 0.4-0.4 0.6-0.4l0.4 0.1c0 0.5 0.1 0.8 0.2 1q0.2 0.4 0.6 0.6c0.2-0.4 0.5-0.8 1-0.9l-0.1-2.1c0 0.2-1.5 0-2.1-0.4-0.2-0.1-0.5-0.2-0.5-0.4-0.1 0.1-0.5-1-0.7-1.9-0.1-0.5-0.2-0.9-0.2-0.9l1.2 0.1c0 0.1-0.3 0.3-0.2 0.6 0.1 0.2 0.4 0.6 0.4 0.8 0.2 0.5 0 1 0 1l1.8-0.1c1.1 0.2 1.1 0.4 1.3 0.5 0.4 0.3 0.3 1.3 0.2 1.7 0.2 0 1-1 1.2-1.1l0.5-2.3c0 0 0-0.4 0-0.7 0-0.3-0.1-0.5-0.8-1.1l-0.4-0.2c0 0.1-0.2 0.1-0.2 0.2-0.1 0.1-0.4 0.2-1.5 0.1v-0.5l0.3-0.3 0.7-0.3zm-1.6 5.1q0 0 0 0z" />
		<path fill="#000" stroke="#0b0707" stroke-width=".5" fill-rule="evenodd" d="m401.1 276.5c0.6 0.4 0.5 0.9 0.7 1.6 0.2 0.7 0.2 1 0.3 1.9 0 1.7-0.1 1.3 0 2.4h-0.1c-0.2-1.3 0-0.9-0.1-2.5 0-0.8 0-1-0.2-1.7-0.2-0.6-0.6-1.3-0.9-1.5z" />
		<path fill="#000" stroke="#0b0707" stroke-width=".5" fill-rule="evenodd" d="m405.9 278.1c0.4 0.3 1 0.6 1.2 1.2l-0.3 0.2c-0.1-0.4-0.3-0.6-0.5-0.8z" />
		<path fill="#000" fill-rule="evenodd" d="m379.7 271.1c-0.7 0.3-0.8 0.5-1.5 0.4l-0.2 0.9c0.5-0.1 3.6-2.2 1.7-1.3z" />
	</g>
</svg>