<?xml version="1.0" encoding="UTF-8"?>
<svg id="Layer_1" data-name="Layer 1" xmlns="http://www.w3.org/2000/svg" viewBox="0 0 600 450">
  <defs>
    <style>
      .cls-1 {
        stroke-width: .22px;
      }

      .cls-1, .cls-2, .cls-3, .cls-4, .cls-5, .cls-6, .cls-7, .cls-8, .cls-9, .cls-10, .cls-11, .cls-12, .cls-13, .cls-14, .cls-15, .cls-16, .cls-17, .cls-18, .cls-19, .cls-20, .cls-21, .cls-22, .cls-23, .cls-24, .cls-25, .cls-26, .cls-27, .cls-28, .cls-29, .cls-30, .cls-31, .cls-32, .cls-33, .cls-34, .cls-35, .cls-36, .cls-37, .cls-38, .cls-39, .cls-40, .cls-41, .cls-42, .cls-43, .cls-44, .cls-45, .cls-46, .cls-47, .cls-48, .cls-49 {
        stroke: #010101;
      }

      .cls-1, .cls-7, .cls-9, .cls-50, .cls-15, .cls-17, .cls-21, .cls-51, .cls-23, .cls-33, .cls-39, .cls-40, .cls-47, .cls-48, .cls-52 {
        fill: none;
      }

      .cls-2 {
        stroke-miterlimit: 4;
        stroke-width: .26px;
      }

      .cls-2, .cls-3, .cls-4, .cls-5 {
        stroke-linecap: square;
      }

      .cls-2, .cls-3, .cls-4, .cls-5, .cls-53, .cls-8, .cls-24, .cls-26, .cls-49 {
        fill: #00904d;
      }

      .cls-3 {
        stroke-miterlimit: 4;
        stroke-width: .26px;
      }

      .cls-4 {
        stroke-miterlimit: 4;
        stroke-width: .26px;
      }

      .cls-5 {
        stroke-miterlimit: 4;
        stroke-width: .26px;
      }

      .cls-6 {
        stroke-linejoin: round;
        stroke-width: .33px;
      }

      .cls-6, .cls-54, .cls-28 {
        fill: #ec2227;
      }

      .cls-55, .cls-38 {
        fill: #010101;
      }

      .cls-56 {
        fill: #fae90a;
      }

      .cls-57 {
        fill: #fbdd03;
      }

      .cls-58 {
        fill: #da1f27;
      }

      .cls-7, .cls-47 {
        stroke-width: .21px;
      }

      .cls-8 {
        stroke-width: .21px;
      }

      .cls-9 {
        stroke-width: .25px;
      }

      .cls-10, .cls-11, .cls-12, .cls-18, .cls-22, .cls-32, .cls-41, .cls-42, .cls-43, .cls-44, .cls-45, .cls-46 {
        fill: #989898;
      }

      .cls-10, .cls-40 {
        stroke-width: .19px;
      }

      .cls-11 {
        stroke-width: .37px;
      }

      .cls-12, .cls-13, .cls-51, .cls-23 {
        stroke-width: .33px;
      }

      .cls-13, .cls-19, .cls-25, .cls-27, .cls-29, .cls-35, .cls-36, .cls-37 {
        fill: #e9c11e;
      }

      .cls-14 {
        stroke-width: .66px;
      }

      .cls-14, .cls-31, .cls-34 {
        fill: #e3e4e5;
      }

      .cls-50, .cls-51 {
        stroke: #2d3235;
      }

      .cls-50, .cls-26, .cls-28, .cls-29, .cls-30 {
        stroke-width: .26px;
      }

      .cls-15 {
        stroke-width: .25px;
      }

      .cls-16 {
        fill: #794523;
        stroke-width: .28px;
      }

      .cls-17 {
        stroke-width: .25px;
      }

      .cls-18, .cls-48 {
        stroke-width: .35px;
      }

      .cls-19 {
        stroke-width: .34px;
      }

      .cls-20 {
        fill: #1172ba;
        stroke-width: .33px;
      }

      .cls-21, .cls-34 {
        stroke-width: .23px;
      }

      .cls-22 {
        stroke-width: .15px;
      }

      .cls-24 {
        stroke-width: .27px;
      }

      .cls-25 {
        stroke-width: .26px;
      }

      .cls-27 {
        stroke-width: .26px;
      }

      .cls-30 {
        fill: #e4d8cc;
      }

      .cls-31 {
        stroke-width: .33px;
      }

      .cls-32 {
        stroke-width: .02px;
      }

      .cls-33 {
        stroke-width: .18px;
      }

      .cls-33, .cls-39, .cls-47, .cls-52 {
        stroke-linecap: round;
      }

      .cls-35 {
        stroke-miterlimit: 2.62;
        stroke-width: .26px;
      }

      .cls-36 {
        stroke-miterlimit: 2.62;
        stroke-width: .26px;
      }

      .cls-37 {
        stroke-miterlimit: 2.62;
        stroke-width: .26px;
      }

      .cls-38 {
        stroke-width: .22px;
      }

      .cls-39 {
        stroke-width: .21px;
      }

      .cls-41 {
        stroke-width: .37px;
      }

      .cls-41, .cls-42, .cls-43, .cls-44, .cls-45, .cls-46 {
        stroke-miterlimit: 10;
      }

      .cls-42 {
        stroke-width: .37px;
      }

      .cls-43 {
        stroke-width: .37px;
      }

      .cls-44 {
        stroke-width: .37px;
      }

      .cls-45 {
        stroke-width: .37px;
      }

      .cls-46 {
        stroke-width: .37px;
      }

      .cls-49 {
        stroke-width: .24px;
      }

      .cls-52 {
        stroke: #020202;
        stroke-miterlimit: 4.1;
        stroke-width: .2px;
      }
    </style>
  </defs>
  <g id="g9145">
    <g>
      <rect id="rect1933" class="cls-57" x="-7" y="-1.33" width="614" height="452.67"/>
      <rect id="rect1935" class="cls-58" x="-7" y="350.74" width="614" height="50.3"/>
      <rect id="rect1937" class="cls-56" x="-7" y="300.44" width="614" height="50.3"/>
      <rect id="rect1939" class="cls-58" x="-7" y="250.15" width="614" height="50.3"/>
      <rect id="rect1941" class="cls-56" x="-7" y="199.85" width="614" height="50.3"/>
      <rect id="rect1943" class="cls-58" x="-7" y="149.56" width="614" height="50.3"/>
      <rect id="rect1945" class="cls-56" x="-7" y="99.26" width="614" height="50.3"/>
      <rect id="rect1947" class="cls-58" x="-7" y="48.96" width="614" height="50.3"/>
    </g>
    <g id="g8765">
      <path id="path3435" class="cls-19" d="M111.65,249.29l-.08-76.18h67.65l.17,76.35"/>
      <path id="path1763" class="cls-20" d="M179.06,249.29l-.08-76.18h67.24l.17,76.35"/>
      <path id="path1765" class="cls-13" d="M111.6,249.05l134.78,.3s.29,28.63-.56,38.56c-.09,11.51-14.2,63.28-68.23,63.27-54.94,.3-65.93-46.61-65.99-66-.07-6.06,0-36.14,0-36.14Z"/>
      <path id="path1767" class="cls-31" d="M179,351.14c-12.58,.38-24.11-1.59-31.61-5.69-6.21-3.4-12.01-6.35-17.15-12.13-3.87-4.36-7.73-9.47-10.54-14.82-.89-1.68-1.69-3.42-2.34-5.19-2.12-5.76-5.45-15.1-5.67-25.2-.33-15.52-.16-32.88-.05-39.01,11.83,0,67.36,.11,67.36,.11"/>
      <path id="path1684" class="cls-11" d="M171.84,340.37c-.67-.26-.54-1.8-.09-1.73,1.26,0,1.08,1.7,1.15,2.06-.36,.12-.66-.06-1.07-.33Z"/>
      <path id="path1675" class="cls-11" d="M165.88,336.22c-.42-.4-1.37,.3-1.81-.39-.45-.69,2.6-4.27,2.83-4.63,.44-.78,.24-2.22,.36-2.61,.72-1.04,1.83-2.3,2.49-2.84,.99,.53,1.75,.95,2.18,1.29,.24,1.2-1.23,3.07-1.28,3.42-.15,1.09-.98,1.89-1.78,2.84-.83,.98-2.16,1.74-2.98,2.92Z"/>
      <g id="g1661">
        <path id="path1663" class="cls-43" d="M169.41,312.72c.18,.4,.36,.87,.4,1.47,.05,.61,.28,1.47,1.08,1.77,.65,.26,1.21,.62,1.3,1.16,.09,.54,.13,1.21,.13,1.2l1.19-1.35c.01-.2,.06-.67,.12-1.23,.08-.81-.5-1.08-1.07-1.36-.57-.29-1.21-.64-1.36-.99-.15-.35-.56-.98-.8-1.23-.24-.25-1,.57-1,.57h0Z"/>
        <path id="path1665" class="cls-43" d="M169.75,319.74c.46,1.1,.37,2.52,.49,3.53,.54,.08,1.28-1.3,2-1.66,.12-.77,.44-1.82,.7-2.13,1.25-1.45,.59-2.43,.59-2.43-1.22,1.15-1.35,2.05-3.78,2.69h0Z"/>
      </g>
      <path id="path5136" class="cls-29" d="M107.76,145.57c-1.95-.01-1.99,7.02,1.24,6.91,1.6-.06,35.53-3.43,69.89-3.41,34.93,.02,70.6,2.52,71.39,2.46,1.45-.1,2.87-6.02,1.73-6.1-.19-.01-10.34,8.79-18.73-1.17-8.17,5.97-11.06,3.86-18.18-.37-7.72,3.52-9.22,5.52-17.88-.8-9.16,5.32-10.82,4.88-18.39-.75-5.64,5.95-12.07,4.32-16.93,.82-8.92,5.41-12.82,4.67-19.25,.87-8.01,4.18-8.96,5.68-17.62,.15-9.73,9.4-16.85,1.39-17.26,1.39Z"/>
      <path id="path1635" class="cls-29" d="M108.8,151.44c-1.95-.01-2.9,2.47,.33,2.36,1.6-.06,35.68-2.82,70.04-2.81,34.93,.02,70.15,2.82,70.93,2.77,1.45-.1,1.51-2.23,.36-2.31-.58-.04-35.98-3.25-71.36-3.25-34.68,0-69.34,3.24-70.3,3.23Z"/>
      <path id="path15218" class="cls-53" d="M145.8,193.23c-2.34-.06-3.78-1.52-17.11-1.52-8.15,0-9.41,9.99-5.81,12.37,1.27,.84,6.32,2.09,10.01,3.8,3.24,1.5,5.07,3.57,7.11,3.18,3.29-.63,4.51-.9,7.74-.43,5.63,.81,12.66-1.24,15.47-4.13,.81-.83-.1-9.54-.48-10.58-.35-.98-3.82-2.18-4.99-2.68-3.54-1.53-9.79-.92-11.95,0Z"/>
      <path id="path15324" class="cls-49" d="M146.5,201.65c.21-.18-1.46,0-3.03,0-.96,0-.91,1.14-.76,1.68,.15,.5,2.37,.62,2.88,.52,1.07-.23,.99-.7,1.52-1.29,.46-.52,.22-.48-.61-.9Z"/>
      <path id="path1778" class="cls-16" d="M143.51,210.3l2.98-4.53s.58,11.36,.58,17.07-1.08,6-.12,10.09c.24,1.02,.95,2.91,2.83,3.65,2.66,1.05,6.92,1.18,9.48,2.43,2.56,1.25,2.93,3.51,2.38,4.22-.84-.64-1.57-1.83-3.55-2.18-1.46-.25-1.74-.05-3.58-.14-.76-.04-.68,1.15-.25,3.01-2.54-1.96-4.97-3.01-5.72-2.76-.66,.22,.41,3.1,.38,4.22-.81-1.68-2.15-2.49-2.53-2.44-.37,.05-1,2.59-1.29,2.95-.68-.71-.76-3.72-1.11-3.71-.75,.02-1.3,.29-3.81,2.3,.13-1.74,1.36-3.77,.71-3.76-.71,.01-3.33,2.23-4.99,3.14,0-1.36,1.91-3.08,1.22-3.07-.56,0-1.5-.35-2.67-.15-1.7,.29-3.88,1.26-6.07,2.07,.02-1.05,2.02-2.89,3.6-3.68,1.71-.86,3.74-.32,6.13-1.86,2.39-1.54,2.88-3.51,3.74-8.55,.85-5.04-1.2-4.38-.66-10.09,.54-5.72,2.33-8.25,2.33-8.25Z"/>
      <path id="path5138" class="cls-29" d="M108.21,153.75c-.44,3.32,2.38,14.42,3.26,16.87,5.82,.3,39.34-2.33,68.63-2.31,34.93,.02,65.29,2.07,66.08,2.01,1.45-.1,4.69-16.63,3.55-16.71-.58-.04-33.71-2.95-69.09-2.94-34.68,0-71.46,3.09-72.43,3.08Z"/>
      <path id="path1781" class="cls-6" d="M139.5,159.6c0-2.01,1.75-3.64,3.91-3.64s3.92,1.62,3.92,3.64-1.75,3.65-3.92,3.65-3.91-1.63-3.91-3.65Z"/>
      <path id="path1783" class="cls-14" d="M190.59,182.99l8.59,.06-.92,8.94,8.19-2.26v10.72l-8.24-2.22s.15,6.81,.3,10.49c.15,3.68,.64,4.13,.64,4.13l-2.63-.63-1.61,10.68-1.74-10.72-2.63,.68s.46-.68,.73-4.25c.27-3.57,.69-10.36,.69-10.36l-7.88,2.42-.02-10.92,7.32,2.19-.8-8.95Z"/>
      <path id="use4298" class="cls-6" d="M175.38,158.26c0-2.01,1.75-3.64,3.91-3.64s3.92,1.62,3.92,3.64-1.75,3.65-3.92,3.65c-2.16,0-3.91-1.63-3.91-3.65Z"/>
      <path id="use4300" class="cls-6" d="M210.69,158.73c0-2.01,1.75-3.64,3.91-3.64s3.92,1.62,3.92,3.64-1.75,3.65-3.92,3.65c-2.16,0-3.91-1.63-3.91-3.65Z"/>
      <rect id="rect4312" class="cls-4" x="122.51" y="157.07" width="6.2" height="6.2" transform="translate(-77.93 158.12) rotate(-51.32)"/>
      <rect id="rect5187" class="cls-3" x="229.17" y="156.83" width="6.2" height="6.2" transform="translate(-48.33 188.12) rotate(-40.29)"/>
      <rect id="rect5189" class="cls-5" x="193.85" y="155.4" width="6.2" height="6.2" transform="translate(-55.62 169.59) rotate(-41.34)"/>
      <rect id="rect5191" class="cls-2" x="158.05" y="155.4" width="6.2" height="6.2" transform="translate(-64.83 163.21) rotate(-45.72)"/>
      <path id="path1600" class="cls-30" d="M122.11,272.16c-.35-.62-.7-2.59-1.13-3.55-1.07-.29-2.95-.05-4.24-.78-1.45-.91,.55-2.69,.41-3.37-.09-.05-.38-.37-.48-.5-.05-.24,.2-.7,.38-.78h0c-.22-.16-.52-1.05,.44-1.03,.33-.12,.4-.33,.51-.54-.12-.07-.42-.24-.47-.27-.78-.44-.4-.89,.13-1.3,.35-.27,1.59-1.19,2.25-1.55,.29-.15,.35-.27,.37-.57,.01-.3,.27-.67,.5-.9,.23-.23,1.11-.9,1.06-1.08-.05-.18,.21-.55,.29-.61s.19-.25,.24-.33c.04-.08,.19-.25,.35-.27,.16-.01,.39-.24,.36-.37-.03-.12,.39-.61,.53-.58,.14,.03,.42,.08,.69-.13,.2-.4,.75-.67,1.04-.76l.7-.27s.54-.22,.86-.15c.32,.07,1.12,.11,1.12,.11l.98,.18s.38,.06,.68,.17c.3,.11,1.31,.5,1.3,.54,.02,.02,.45,.02,.97,.36,.53,.34,1.02,.93,1.26,.96,.24,.03,.3,.38,.3,.38,0,0,.26,.45,.57,.63l.47,.62s.48,.53,.68,.8l.74,1.43s.38,.32,.27,.82l.08,1.89s.01,.16,.08,.41l-.16,.94s-.04,.08-.11,.3c-.07,.22-.25,1.1-.76,1.27,.03,.22-.22,.45-.56,.81-.39,.31-1.23,.71-1.09,.84,.14,.13-.11,.06-.29-.04-.14-.13-.35-.21-.39,.07-.06,.38-.02,.61-.42,.59s-1.08,.53-1.05,.85l-.85,.35s-.12,.09-.03,.39c.09,.31-.27,1.01-.33,1.05-.04,.09-.04,2.23-.08,2.31-2.18-.09-6.12,.16-8.17,.62Z"/>
      <path id="path1673" class="cls-55" d="M128,266.94c-1.16-.92,2.36-3.07,2.45-2.67,.04,.18,2.32,1.74,2.25,1.91-.1,.26-.65,.72-1.89,2.59-.37,.28-1.24-.73-2.82-1.83Z"/>
      <path id="path9583" class="cls-55" d="M122.47,254.8c.45-.2,.22,.05,.63-.37,.11-.51-.02-.24,.23-.43,.61-.46,1.84-1.09,2.73-1.37,.91-.29,1.85-.04,2.84,.15,.58,.13,1.76,.35,2.88,1.03,.52,.32,1.03,.63,1.5,1.08,.62,.59,1.18,1.35,1.65,1.94,.11,.14,.7,1.26,1.24,2.26,.23,.43,.06,1.17,.09,1.69,.04,.74,.24,1.41-.24,2.49-.31,.7-.35,1-.61,1.08-.25,1.1-1.67,1.42-2.32,1.78l-.37,.02c-.23-.49-1.11-1.43-1.49-1.83-1.08-1.18-1.38-2.44-2.79-2.91-1.22-1.46-4.7-3.59-6.15-4.82-.73-.72-.51-.45-.42-.86l.59-.92Z"/>
      <path id="path1602" class="cls-22" d="M123.75,253.89c-.37,.05-.62,.14-.5,.47,.15,.43,.36,.81,.36,.81,0,0-.57-.53-.77-.39-.21,.14-.6,.3-.42,.48,.11,.19,.6,.75,.6,.75,0,0-.92-.66-.75-.52-.24,.21-.44,.72-.02,1.2,.41,.49,1.72,1.99,1.92,2.31,.2,.33,.8,.79,1.13,.97,.33,.18,1.5,.92,1.3,.81l-.83-.2c-.13-.06,1.18,1.38,1.45,1.46,.29-.22,2.8-.85,2.66,1.55-.14,.48-.15,.81-.15,.81,0,0,.48,.22,.56,.53,.09,.31,.58,.58,.89,.71,.31,.13,.87,.3,.7,.21-.16-.09,.47,.54,.64,.68,.18,.14,.71-.38,.22-1.16-.18-.44-.86-1.38-.91-1.75-.05-.37-1.02-1.75-1.39-2.19-.05-.25,.02-.39-.3-.65-.32-.27-.87-.94-1.16-1.27-.29-.33-.58-.49-.97-.71-.39-.22-2.64-2.31-3.07-3.06-.4-.44,1.96,1.95,2.27,2.16,.51,.39,.75,.38,.08-.57-.26-.45-1.69-2.58-2.87-3.74l-.67,.32Z"/>
      <path id="path1604" class="cls-52" d="M128.18,263.35s.06,.05,.07,.1c.01,.07,.02,.13,.01,.19-.02,.07-.03,.13-.07,.19-.05,.05-.1,.07-.17,.09-.07,.03-.12,.04-.19,.05-.06,0-.14,.02-.19,.01-.04,.02-.1,0-.14,.03-.05,.02-.09,.03-.12,.08-.05,.05-.09,.11-.14,.17-.05,.06-.1,.11-.14,.17-.06,.03-.1,.04-.17,.03-.06-.02-.11-.05-.17-.08-.02-.05-.05-.12-.06-.17,.02-.03,.03-.06,.05-.09"/>
      <path id="path1606" class="cls-55" d="M127.4,262.58c.53-.3,2.76-.15,1.43,1.23-.19,.12-.05,.29,.07,.2,1.52-1.66-.87-1.95-1.46-1.62-.24,.14-.05,.2-.04,.19h0Z"/>
      <path id="path1608" class="cls-47" d="M122.58,256.28c.67,.36,1.35,.78,1.7,1.43,.35,.64,.77,1.01,1.35,1.33,.58,.32,.86,.5,.86,.5h0"/>
      <path id="path1610" class="cls-7" d="M130.17,261.81c.87,1.04,.99,1.28,1.29,1.84,.3,.56,.44,.71,.7,1.18,.19,.34,.26,.64,.26,.64,.14,.34-.66-1.39-1.64-1.68-.32-.18-.37-.21-.48-.7-.11-.49-.3-.96-.68-1.44-.38-.48-1.06-1.28-1.06-1.28"/>
      <path id="path1612" class="cls-39" d="M125.88,264.85c.07,.04,.28,.47,.36,.56,.09,.06,.23,.14,.49,.12,.44-.13,1.16-.78,1.57-.88,.64,.07,1.15-.17,1.37-.3"/>
      <path id="path1614" class="cls-38" d="M121.71,258.39c.28,.83,.55,1.44,1.15,1.97-.11,.15-1.45-.44-2.08-.41,0,0,.03-.45,.26-.83,.23-.39,.68-.72,.68-.72Z"/>
      <g id="g1624">
        <g id="g1628">
          <g id="g1632">
            <path id="path1634" class="cls-45" d="M132.33,267.09c.01,.44,0,.94-.2,1.51-.19,.58-.32,1.47,.31,2.06,.5,.49,.87,1.04,.75,1.57-.12,.53-.36,1.17-.35,1.16l1.63-.78c.09-.18,.31-.6,.58-1.09,.39-.72-.04-1.19-.46-1.67-.41-.49-.86-1.06-.86-1.44,0-.39-.13-1.12-.25-1.45-.12-.32-1.15,.13-1.15,.13h0Z"/>
            <path id="path1636" class="cls-45" d="M121.74,275.56c.45,1.35,.87,3.86,.59,4.85,.74-.48,4.32-1.52,5.18-1.86,2.6-1.03,5.08-3.67,5.44-3.85,1.72-.85,1.49-2.01,1.49-2.01-1.57,.58-2.51,1.36-4.53,1.95l-2.75,.88-2.33,.23-3.09-.18Z"/>
            <path id="path1638" class="cls-45" d="M120.1,277.78c-.15,.21,.04,2.02,.53,2.34,.48,.31,1.06,.76,1.58,.37,0,0,.3-.54,.21-1.94-.05-.75-.2-1.08-.2-1.08l-2.12,.31Z"/>
          </g>
          <path id="path1630" class="cls-45" d="M138.56,267.96c-.52-1.36-2.5-1.36-4.27-1.61-.48-.22-.6-.38-.6-.38l-.27,.79c.28,1.03,.82,.76,1.51,1.6,.7,.86,1.38,5.42,.16,6.99-1.24,1.58-6.63,2.16-8.07,2.32,.74,1.08,1.53,2.98,1.54,4.31,2.08,.11,5.58-1.01,7.61-2.67,.46-.38,1.06-2.17,1.47-2.97,1.4-2.68,1.34-7.28,.92-8.38Z"/>
        </g>
      </g>
      <path id="path1640" class="cls-10" d="M133.04,265.95c.05-.33,.2-.25,.41,.03,.3,.53-.42,1.05-1.01,.92-.35-.03-.32-.44,.17-.37,.43,.11,.44-.61,.43-.59h.03s-.03,0-.03,0h0Z"/>
      <path id="path1642" class="cls-21" d="M133.92,272.09s-.01,.02-.02,.03c.05-.09,.02-.05-.05,.15-.1,.19-.18,.35-.26,.53-.08,.14-.15,.24-.23,.36"/>
      <path id="path1644" class="cls-21" d="M133.57,272.12s-.02,.04-.03,.06c.06-.12,.04-.08-.03,.11-.09,.18-.1,.29-.19,.47-.1,.17-.19,.29-.29,.45"/>
      <path id="path1646" class="cls-21" d="M125.9,278.49s.02,0,.03,.01c-.02,.02-.09,.16-.14,.25-.08,.14-.15,.27-.22,.34"/>
      <path id="path1648" class="cls-21" d="M125.43,278.62s-.02,.03-.03,.05l.03-.05s-.02,.03-.03,.05l.03-.05c-.1,.19-.14,.3-.24,.49-.03,.06-.05,.11-.1,.11"/>
      <path id="path1650" class="cls-21" d="M124.97,278.59c-.1,.21-.14,.36-.25,.57-.06,.1-.09,.1-.14,.2"/>
      <path id="path1652" class="cls-21" d="M124.5,278.74s-.01,.02-.02,.03c.05-.09,.02-.04-.05,.14-.08,.16-.11,.25-.21,.43-.1,.16-.17,.21-.26,.35"/>
      <path id="path1654" class="cls-21" d="M123.97,279.01s-.11,.23-.16,.34c-.07,.12-.13,.23-.2,.35-.08,.11-.17,.22-.26,.29-.01,.03-.03,.05-.04,.08"/>
      <path id="path1656" class="cls-21" d="M134.14,272.28c-.02,.05-.08,.25-.19,.34-.06,.1-.1,.15-.15,.22"/>
      <path id="path1658" class="cls-18" d="M133.65,266.31c.3,.26,1.16,.65,1.63,.59l.46-.06"/>
      <path id="path1660" class="cls-48" d="M133.56,266.47c.25,.3,1.04,.82,1.51,.84l.47,.02"/>
      <path id="path1662" class="cls-40" d="M133.29,266.9c.06,.3,.12,.48,.02,.78l-.1,.31"/>
      <path id="path1664" class="cls-40" d="M133.02,266.89c.04,.41,.12,.59,.03,.93l-.09,.33"/>
      <path id="path1666" class="cls-48" d="M132.74,266.98c-.16,.5-.29,1.54-.19,1.96l.11,.42"/>
      <path id="path1668" class="cls-1" d="M121.99,278.93c-.16-.12-.35-.59-.37-.74-.02-.14,0-.19,0-.19"/>
      <path id="path1670" class="cls-1" d="M121.56,279.01c-.16-.15-.36-.67-.38-.82-.02-.15-.03-.19-.03-.19"/>
      <path id="path1672" class="cls-15" d="M121.25,279.33c-.19-.13-.43-.68-.46-.84l-.03-.17"/>
      <path id="path1674" class="cls-40" d="M135.62,279.06c.16-.18,.45-.56,.55-.85l.1-.3"/>
      <path id="path1676" class="cls-40" d="M134.04,267.26c.11,.14,.32,.32,.45,.36l.13,.04"/>
      <path id="path1678" class="cls-17" d="M137.24,267.85c.43,.59,.56,2.67,.52,2.91l-.05,.24"/>
      <path id="path1843" class="cls-29" d="M126.16,128.05c-.98-.54-1.89-.57-3.29,.03-.54-.82-3.82-4.65-5.11-6.01,.19-1.97,4.31-5.14,6.34-5.11,1.99,.03,5.87,1.82,6.73,5.18-1.71,2.09-3.98,4.84-4.67,5.9Z"/>
      <path id="path2718" class="cls-29" d="M122.91,132.31c1.74,.84,2.01,.5,3.36-.08,.53,.82,3.56,4.41,4.84,5.78-.24,1.1-2.68,4.48-5.84,4.57-1.53,.04-5.89-1.18-6.73-4.55,1.73-2.08,3.68-4.66,4.37-5.72Z"/>
      <path id="path2720" class="cls-29" d="M126.25,132.15c.62-.78,1.1-2.57-.02-4.08,.55-.78,3.21-4.61,4.66-5.8,1.08,.31,2.75,4.25,2.63,7.42-.06,1.53,.1,5.9-2.37,8.3-1.96-1.86-3.93-4.89-4.9-5.84Z"/>
      <path id="path2722" class="cls-29" d="M122.93,128.05c-.6,.8-1.25,2.71-.09,4.19-.53,.79-2.97,4.47-4.38,5.7-1.09-.28-2.87-4.18-2.84-7.34,.01-1.53-.27-5.9,2.14-8.36,2.01,1.8,4.18,4.9,5.18,5.82Z"/>
      <path id="path2724" class="cls-36" d="M126.03,133.42c-1.76,.67-3.75-.15-4.46-1.84-.7-1.69,.16-3.61,1.92-4.28,1.76-.67,3.75,.15,4.46,1.84,.7,1.68-.15,3.6-1.9,4.28"/>
      <path id="path2735" class="cls-29" d="M162.34,126.61c-.98-.54-1.89-.57-3.29,.03-.54-.82-3.82-4.65-5.11-6.01,.19-1.97,4.31-5.14,6.34-5.11,1.99,.03,5.87,1.82,6.73,5.18-1.71,2.09-3.98,4.84-4.67,5.9Z"/>
      <path id="path2737" class="cls-29" d="M159.09,130.87c1.74,.84,2.01,.5,3.36-.08,.53,.82,3.56,4.41,4.84,5.78-.24,1.1-2.68,4.48-5.84,4.57-1.53,.04-5.89-1.18-6.73-4.55,1.73-2.08,3.68-4.66,4.37-5.72Z"/>
      <path id="path2739" class="cls-29" d="M162.43,130.71c.62-.78,1.1-2.57-.02-4.08,.55-.78,3.21-4.61,4.66-5.8,1.08,.31,2.75,4.25,2.64,7.42-.06,1.53,.1,5.9-2.37,8.3-1.96-1.86-3.93-4.89-4.9-5.84Z"/>
      <path id="path2741" class="cls-29" d="M159.11,126.61c-.6,.8-1.25,2.71-.09,4.19-.53,.79-2.97,4.47-4.38,5.7-1.09-.28-2.87-4.18-2.84-7.34,.01-1.53-.27-5.9,2.14-8.36,2.01,1.8,4.18,4.9,5.18,5.82Z"/>
      <path id="path2743" class="cls-36" d="M162.21,131.98c-1.76,.67-3.75-.15-4.46-1.84-.7-1.69,.16-3.61,1.92-4.28,1.76-.67,3.75,.15,4.46,1.84,.7,1.68-.15,3.6-1.9,4.28"/>
      <path id="path2747" class="cls-27" d="M198.85,126.68c-.96-.58-1.87-.65-3.28-.11-.5-.84-3.61-4.81-4.85-6.22,.27-1.96,4.53-4.95,6.55-4.83,1.99,.12,5.78,2.07,6.5,5.47-1.8,2.01-4.19,4.67-4.92,5.7Z"/>
      <path id="path2749" class="cls-27" d="M195.43,130.8c1.7,.92,1.98,.59,3.36,.06,.5,.84,3.37,4.56,4.59,5.98-.28,1.09-2.87,4.36-6.03,4.32-1.53-.02-5.83-1.43-6.53-4.84,1.82-2,3.87-4.5,4.61-5.53Z"/>
      <path id="path2751" class="cls-27" d="M198.77,130.78c.66-.75,1.21-2.52,.16-4.07,.58-.75,3.4-4.47,4.9-5.59,1.07,.35,2.57,4.37,2.31,7.53-.12,1.53-.15,5.9-2.73,8.19-1.88-1.94-3.72-5.06-4.65-6.05Z"/>
      <path id="path2753" class="cls-27" d="M195.63,126.54c-.64,.77-1.37,2.65-.27,4.18-.56,.77-3.16,4.34-4.62,5.5-1.08-.32-2.69-4.3-2.52-7.46,.08-1.53-.01-5.9,2.5-8.26,1.93,1.89,3.97,5.07,4.92,6.03Z"/>
      <path id="path2755" class="cls-35" d="M198.41,132.13c-1.79,.6-3.74-.31-4.37-2.03-.63-1.72,.31-3.6,2.1-4.2,1.79-.6,3.74,.31,4.37,2.03,.63,1.71-.31,3.59-2.08,4.19"/>
      <path id="path2759" class="cls-25" d="M235.5,128.02c-.94-.61-1.84-.71-3.28-.22-.47-.86-3.45-4.93-4.63-6.39,.34-1.95,4.7-4.79,6.72-4.6,1.98,.19,5.71,2.27,6.3,5.69-1.87,1.95-4.35,4.52-5.11,5.52Z"/>
      <path id="path2761" class="cls-25" d="M231.94,132.02c1.67,.98,1.96,.66,3.36,.18,.47,.86,3.21,4.67,4.38,6.14-.32,1.08-3.02,4.26-6.18,4.1-1.53-.08-5.78-1.63-6.35-5.06,1.88-1.94,4.03-4.36,4.8-5.36Z"/>
      <path id="path2763" class="cls-25" d="M235.28,132.12c.68-.73,1.29-2.47,.3-4.07,.61-.73,3.56-4.34,5.1-5.42,1.06,.39,2.41,4.45,2.05,7.6-.17,1.52-.36,5.89-3.01,8.09-1.81-2.01-3.54-5.18-4.43-6.21Z"/>
      <path id="path2765" class="cls-25" d="M232.29,127.77c-.66,.75-1.46,2.6-.42,4.17-.59,.75-3.3,4.22-4.81,5.34-1.07-.36-2.53-4.39-2.26-7.54,.13-1.53,.19-5.9,2.78-8.17,1.86,1.96,3.79,5.21,4.71,6.2Z"/>
      <path id="path2767" class="cls-37" d="M234.8,133.54c-1.81,.54-3.73-.44-4.3-2.18-.57-1.74,.44-3.59,2.24-4.12,1.81-.54,3.73,.44,4.3,2.18,.57,1.73-.43,3.57-2.23,4.12"/>
      <path id="path5414" class="cls-29" d="M139.82,120.11c1.64-.06,2.74-.08,4.38-.08,.47,0,3.14,.4,4.47,2.92,1.38,.7,1.58,.77,2.92,2,0,1.67,0,5.85-1.02,8.59-.09,.34-.85,1.03-1.69,1.27-.08,4.28-4.44,8.16-6.32,8.35-2.15,0-7.13-4.34-6.32-8.59-1.1-.41-1.64-1.35-1.78-1.95-.41-1.87-1.34-5.29-1.17-7.76,1.41-1.2,2.04-.95,2.9-1.61,1.17-1.73,2.27-3.1,3.63-3.15Z"/>
      <path id="path2781" class="cls-29" d="M148.77,107.18c-1.38,1.08-4.2,3.54-4.23,5.52s-.03,2.82,.07,4.52c.1,1.7,.89,5.71,.9,6.85,.01,1.14,.22,2.61,.25,3.86,.04,1.25-.32,2.72-1.38,3.4-1.11,.71-3.21,.53-4.08-.15-.91-.71-1.11-2.3-1.27-3.41-.17-1.12,.13-2.16,.14-3.32s.59-5.61,.92-7.19c.33-1.58,.07-2.91,.06-4.48-.02-1.99-2.09-3.45-4.45-5.29,.94-.89,1.59-1.51,3.19-1.96,.6-2.04,1.91-3.24,3.45-4.81,1.47,1.43,2.73,3.22,2.98,4.87,1.12-.05,2.5,.9,3.43,1.6Z"/>
      <path id="path6289" class="cls-29" d="M176.09,119.24c1.64-.06,2.74-.08,4.38-.08,.47,0,3.14,.4,4.47,2.92,1.38,.7,1.58,.77,2.92,2,0,1.67,0,5.85-1.03,8.59-.09,.34-.85,1.03-1.69,1.27-.08,4.28-4.44,8.16-6.32,8.35-2.15,0-7.13-4.34-6.32-8.59-1.1-.41-1.65-1.35-1.78-1.95-.41-1.87-1.34-5.29-1.17-7.76,1.41-1.2,2.04-.95,2.9-1.61,1.17-1.72,2.27-3.1,3.63-3.15Z"/>
      <path id="path5402" class="cls-29" d="M184.93,105.9c-1.38,1.08-4.2,3.54-4.23,5.52-.03,1.98-.03,2.82,.07,4.52,.1,1.7,.89,5.71,.9,6.85,.01,1.14,.22,2.61,.25,3.86,.04,1.25-.32,2.72-1.38,3.4-1.11,.71-3.21,.53-4.08-.15-.91-.71-1.11-2.3-1.27-3.41-.17-1.12,.13-2.16,.14-3.32,.01-1.16,.59-5.61,.92-7.19,.33-1.58,.07-2.91,.06-4.48-.02-1.99-2.09-3.45-4.45-5.29,.94-.89,1.59-1.51,3.19-1.96,.6-2.04,1.91-3.24,3.45-4.81,1.47,1.43,2.73,3.22,2.98,4.87,1.12-.05,2.5,.9,3.43,1.6Z"/>
      <path id="path6291" class="cls-29" d="M212.93,120.15c1.64-.06,2.74-.08,4.38-.08,.47,0,3.14,.4,4.47,2.92,1.38,.7,1.58,.77,2.92,2,0,1.67,0,5.85-1.02,8.59-.09,.34-.85,1.03-1.69,1.27-.08,4.28-4.44,8.16-6.32,8.35-2.15,0-7.13-4.34-6.32-8.59-1.1-.41-1.65-1.35-1.78-1.95-.41-1.87-1.34-5.29-1.17-7.76,1.41-1.2,2.04-.95,2.9-1.61,1.17-1.72,2.27-3.1,3.63-3.15Z"/>
      <path id="path5404" class="cls-29" d="M221.31,107.72c-1.38,1.08-4.2,3.54-4.23,5.52-.03,1.98-.03,2.82,.07,4.52,.1,1.7,.89,5.71,.9,6.85,.01,1.14,.22,2.61,.25,3.86,.04,1.25-.32,2.72-1.38,3.4-1.11,.71-3.21,.53-4.08-.15-.91-.71-1.11-2.3-1.27-3.41-.17-1.12,.13-2.16,.14-3.32,.01-1.16,.59-5.61,.92-7.19,.33-1.58,.07-2.91,.06-4.48-.02-1.99-2.09-3.45-4.45-5.29,.94-.89,1.59-1.51,3.19-1.96,.6-2.04,1.91-3.24,3.45-4.81,1.47,1.43,2.73,3.22,2.98,4.87,1.12-.05,2.5,.9,3.43,1.6Z"/>
      <path id="path4343" class="cls-55" d="M121.53,264.19c.32,0,.64,0,.95,0,1.39,0-.33,.01,0-.04,.33-.03,.65-.02,.96-.15l1.22-.29c-.31,.19-.76,.59-1.12,.59-.7,.12-1.41,.03-2.11,.05-.32,0-.65,0-.97,0l1.07-.17Z"/>
      <path id="path9585" class="cls-32" d="M127.21,252.52c-.37,.05-.63,.05-1.2,.21-.51,.11-1.61,.54-1.43,.68-.24,.21,.88,1.15,1.29,1.63,.41,.49,1.4,2.07,1.6,2.39,.2,.33,.64,1.33,.97,1.51l.96,.8c-.13-.06,.83,1.05,1.1,1.14,.4,.82,.2,.52,.86,1.37,.58,.85,.7,1.62,.7,1.62,0,0,1.01,1.91,.84,1.82-.16-.09,.44,.07,.62,.21s1.29-.71,1.67-1.32c.1-.19,.74-.7,.95-2.02,.2-1.2-.02-3.22-.04-3.4-.05-.37-.99-2.18-1.37-2.43-.37-.25-1.17-1.27-1.45-1.6-.29-.33-.9-.79-1.29-1.01-.39-.22-.53-.33-1.47-.7-.88-.42-1.69-.51-2.18-.68l-1.13-.21Z"/>
      <path id="path9587" class="cls-47" d="M129.89,258.88c.6,.46,1.2,.99,1.44,1.69,.24,.69,.59,1.12,1.11,1.53,.52,.41,.77,.63,.77,.63h0"/>
      <path id="path9589" class="cls-47" d="M126.78,255c.6,.46,1.76,.73,2.11,1.69,.24,.69,.59,1.12,1.11,1.53,.52,.41,.77,.63,.77,.63h0"/>
      <path id="path9591" class="cls-47" d="M126.51,253.34c.6,.46,2.14,1.13,2.37,1.82"/>
      <path id="path9593" class="cls-33" d="M131.26,256.11c.45,.47,.89,.99,1.01,1.62,.12,.62,.37,1.04,.76,1.45,.38,.41,.57,.63,.57,.63h0"/>
      <path id="path10468" class="cls-55" d="M116.35,266.14c.21,.05,.69,.83,.87,.99,.35,.28,.4,.33,.79,.47,1.14,.2,1.17,.16,2.1,.1,.73-.01,1,.06,1.74-.14,.6-.18,1.53-.51,1.78-.7,.14-.09,.5-.6,.62-.73,.14-.21,2.25-5.08,2.34-4.68,.04,.18,.66,.42,.59,.59-.1,.26-2.11,4.5-2.25,4.72-.12,.14-.25,.27-.39,.37-.25,.18-.49,.37-.73,.56-.54,.37-2.22,.92-2.81,1.03-1.39,.1-3.69,.33-5.1-.02-.1-1.11,.45-2.57,.45-2.57Z"/>
      <path id="path10471" class="cls-30" d="M159,272.8c-.35-.62-.7-2.59-1.13-3.55-1.07-.29-2.95-.05-4.24-.78-1.45-.91,.55-2.69,.4-3.37-.09-.05-.38-.37-.48-.5-.05-.24,.2-.7,.38-.78h0c-.22-.16-.52-1.05,.44-1.03,.32-.12,.4-.33,.51-.54-.12-.07-.42-.24-.47-.27-.78-.44-.4-.89,.13-1.3,.35-.27,1.59-1.19,2.25-1.55,.29-.15,.35-.27,.37-.57,.01-.3,.27-.67,.5-.9,.23-.23,1.11-.9,1.06-1.08-.05-.18,.21-.55,.29-.61,.08-.06,.19-.25,.24-.33,.04-.08,.19-.25,.35-.27,.16-.01,.39-.24,.36-.37-.04-.12,.39-.61,.53-.58,.14,.03,.42,.08,.69-.13,.2-.4,.75-.67,1.04-.76l.7-.27s.54-.22,.86-.15c.32,.07,1.12,.11,1.12,.11l.98,.18s.38,.06,.68,.17c.3,.11,1.31,.5,1.3,.54,.02,.02,.44,.02,.97,.36,.53,.35,1.02,.93,1.26,.96,.24,.03,.3,.38,.3,.38,0,0,.26,.45,.57,.63l.47,.62s.48,.53,.68,.8l.74,1.43s.38,.32,.27,.82l.08,1.89s.01,.16,.08,.41l-.16,.94s-.04,.08-.11,.3c-.07,.22-.25,1.1-.76,1.27,.03,.22-.22,.45-.56,.81-.39,.31-1.23,.71-1.09,.84,.14,.13-.11,.06-.3-.04-.13-.13-.35-.21-.39,.07-.06,.38-.02,.6-.42,.59-.4-.02-1.08,.53-1.05,.85l-.85,.35s-.12,.09-.03,.39-.27,1.01-.33,1.05c-.04,.09-.04,2.23-.08,2.31-2.18-.09-6.12,.16-8.17,.62Z"/>
      <path id="path10609" class="cls-55" d="M159.39,255.44c.45-.2,.22,.05,.63-.37,.11-.51-.02-.24,.23-.43,.61-.46,1.84-1.09,2.73-1.37,.91-.29,1.85-.04,2.84,.15,.58,.13,1.76,.35,2.88,1.03,.52,.32,1.03,.63,1.5,1.08,.62,.59,1.18,1.35,1.65,1.94,.11,.14,.7,1.26,1.24,2.26,.23,.43,.06,1.17,.09,1.69,.04,.74,.24,1.41-.24,2.49-.31,.7-.35,1-.61,1.08-.25,1.1-1.67,1.42-2.32,1.77l-.37,.02c-.23-.49-1.11-1.43-1.49-1.83-1.08-1.18-1.38-2.44-2.79-2.91-1.22-1.46-4.7-3.59-6.15-4.82-.73-.72-.51-.45-.42-.86l.59-.92Z"/>
      <path id="path1671" class="cls-55" d="M165,267.39c-1.16-.92,2.36-3.07,2.45-2.67,.04,.18,2.32,1.74,2.25,1.91-.1,.26-.65,.72-1.89,2.59-.37,.28-1.23-.73-2.82-1.83Z"/>
      <path id="path10603" class="cls-32" d="M164.12,253.16c-.37,.05-.63,.05-1.2,.21-.51,.11-1.61,.54-1.43,.68-.24,.21,.88,1.15,1.29,1.63,.41,.49,1.4,2.07,1.6,2.39,.2,.33,.64,1.32,.97,1.51l.96,.8c-.13-.06,.83,1.05,1.1,1.14,.4,.82,.2,.52,.86,1.37,.58,.85,.7,1.62,.7,1.62,0,0,1.01,1.91,.84,1.82-.16-.09,.44,.07,.62,.21,.18,.14,1.29-.71,1.67-1.32,.1-.19,.74-.7,.95-2.02,.2-1.2-.02-3.22-.04-3.4-.05-.37-.99-2.18-1.37-2.43-.37-.25-1.17-1.27-1.45-1.6-.29-.33-.9-.79-1.29-1.01-.39-.22-.53-.33-1.47-.7-.88-.42-1.69-.51-2.18-.68l-1.13-.21Z"/>
      <path id="path10473" class="cls-22" d="M160.64,254.53c-.37,.05-.62,.14-.5,.47,.15,.42,.36,.81,.36,.81,0,0-.57-.53-.77-.39-.21,.14-.59,.3-.42,.47,.11,.19,.6,.75,.6,.75,0,0-.92-.66-.75-.52-.24,.21-.44,.72-.02,1.2,.41,.49,1.72,1.99,1.92,2.31,.2,.33,.8,.79,1.13,.97,.33,.18,1.5,.92,1.3,.81l-.83-.2c-.13-.06,1.18,1.38,1.45,1.46,.29-.22,2.8-.85,2.66,1.55-.14,.48-.15,.81-.15,.81,0,0,.48,.22,.56,.53,.09,.31,.58,.58,.89,.71,.31,.13,.87,.3,.7,.2-.16-.09,.46,.5,.64,.64,.18,.14,.82-.15,.22-1.13-.18-.44-.86-1.38-.91-1.75-.05-.37-1.02-1.75-1.39-2.19-.05-.25,.02-.39-.3-.65-.32-.27-.87-.94-1.16-1.27-.29-.33-.58-.49-.97-.71-.39-.22-2.64-2.31-3.07-3.06-.4-.44,1.96,1.95,2.27,2.16,.51,.39,.75,.38,.08-.57-.27-.45-1.69-2.58-2.87-3.74l-.67,.32Z"/>
      <path id="path10475" class="cls-47" d="M159.47,256.92c.67,.36,1.35,.78,1.7,1.43,.35,.64,.77,1.01,1.35,1.33,.58,.32,.86,.5,.86,.5h0"/>
      <path id="path10477" class="cls-38" d="M158.6,259.03c.28,.82,.55,1.44,1.15,1.97-.11,.15-1.45-.44-2.08-.41,0,0,.03-.45,.26-.83,.23-.39,.68-.72,.68-.72Z"/>
      <path id="path4303" class="cls-12" d="M173.33,279.15c-.16,.65-1.06-2.11-.35-2.2,.65,.12,1.25,1.29,1.26,1.76-.55-.04-.5-.29-.91,.44Z"/>
      <g id="g10479">
        <path id="path10481" class="cls-42" d="M175.51,277.74c-.16,.04-.86,.19-.88,.12-.11-.39-.22-.66-.61-.95-.39-.29-1.09-.99-.35-1.55,.42-.29,.72,.23,.76,.52,.05,.28,.33,.69,.51,1.13,.18,.44,.5,.58,.45,.65l.12,.09h0Z"/>
        <g id="g10483">
          <path id="path10485" class="cls-42" d="M174.02,279.79c.04,.06,.48,.3,.94,.07,.3-.27-.21,1.06-.62,.85-.3-.29-.39-.94-.32-.93h0Z"/>
          <g id="g10487">
            <path id="path10489" class="cls-42" d="M175.14,276.65c.07-.02,.75-.12,.9-.13,.07,.22,.26,.89,.06,1.07-.72,.64-1.34-.84-1.23-.89l.27-.05h0Z"/>
            <g id="g10491">
              <path id="path10493" class="cls-42" d="M173.37,275.64l-3.19,1.44s-2.29,.88-3.16-.68c-.11-.51-.39-1.03-.39-1.03l-.47,.62c-.65,.84-.4,1.26-.05,1.85,.35,.59,.37,.61,.61,.92,.23,.31,1.34,.62,1.65,.62,.79,.03,2.36,.3,5.77,1.29-.01-.27-.43-1.94-.45-2.06-.1-.04-.58-.25-.81-.64-.25-.43,.19-1.16,.71-.56,.25,.29,.16,1.4,.72,1.3,.48-.1,.33-.81,.25-1.1-.08-.29-.47-.65-.68-.81-.47-.35-.63-.93-.51-1.17h0Z"/>
              <g id="g10495">
                <path id="path10497" class="cls-42" d="M163.91,276.06c-.58,.2-1.36,.64-1.45,1.49-.09,.69-.3,1.33-.8,1.55-.5,.22-1.14,.42-1.13,.42l1.61,.82c.19-.04,.67-.12,1.22-.2,.81-.13,.92-.75,1.05-1.38,.14-.62,.32-1.33,.62-1.56,.31-.23,.81-.79,1-1.08,.1-.16-.19-.48-.44-.65-.2-.15-1.12,.39-1.69,.58Z"/>
                <path id="path10499" class="cls-42" d="M155.14,279c.83,.3,1.65,.65,2.19,1.26,.78-.07,1.87-.03,2.24,.14,1.72,.85,2.51-.04,2.51-.04-1.41-.89-2.96-1.18-3.67-3.02-.83,.47-2.31,1.27-3.26,1.65Z"/>
                <path id="path10501" class="cls-42" d="M154.58,276.09c-.26,0-.95,1.18-.91,1.76,.04,.57,.79,1.13,1.32,1.16l2.32-1.06-2.34-1.49-.38-.38Z"/>
              </g>
            </g>
          </g>
        </g>
      </g>
      <path id="path10505" class="cls-47" d="M166.78,259.52c.6,.46,1.2,1,1.44,1.69,.24,.69,.59,1.12,1.11,1.53,.52,.41,.77,.63,.77,.63h0"/>
      <path id="path10507" class="cls-47" d="M163.67,255.64c.6,.46,1.76,.73,2.11,1.69,.24,.69,.59,1.12,1.11,1.53,.51,.41,.77,.63,.77,.63h0"/>
      <path id="path10509" class="cls-47" d="M163.4,253.98c.6,.46,2.14,1.13,2.37,1.82"/>
      <path id="path10511" class="cls-33" d="M168.15,256.75c.45,.47,.89,.99,1.01,1.62,.12,.63,.37,1.04,.76,1.45,.38,.41,.57,.63,.57,.63h0"/>
      <path id="path10513" class="cls-55" d="M153.24,266.78c.21,.05,.69,.83,.87,.99,.36,.28,.4,.33,.79,.47,1.14,.2,1.17,.16,2.1,.1,.73-.01,1,.06,1.74-.14,.6-.17,1.53-.51,1.78-.69,.14-.09,.5-.6,.62-.73,.14-.21,2.25-5.08,2.34-4.68,.04,.18,.66,.42,.59,.59-.1,.26-2.11,4.5-2.25,4.72-.12,.14-.25,.27-.39,.37-.25,.18-.49,.37-.73,.56-.54,.37-2.22,.92-2.81,1.03-1.39,.1-2.7,1.24-4.77,.06-.92-1.27,.12-2.65,.12-2.65Z"/>
      <path id="path10515" class="cls-30" d="M159,317.82c-.35-.62-.7-2.59-1.13-3.55-1.07-.29-2.95-.05-4.24-.78-1.45-.91,.55-2.69,.4-3.37-.09-.05-.38-.37-.48-.5-.05-.24,.2-.7,.38-.78h0c-.22-.16-.52-1.05,.44-1.03,.32-.12,.4-.33,.51-.54-.12-.07-.42-.24-.47-.27-.78-.44-.4-.89,.13-1.3,.35-.27,1.59-1.19,2.25-1.55,.29-.15,.35-.27,.37-.57,.01-.3,.27-.67,.5-.9s1.11-.9,1.06-1.08c-.05-.18,.21-.55,.29-.61,.08-.06,.19-.25,.24-.33,.04-.08,.19-.25,.35-.27,.16-.01,.39-.24,.36-.37-.04-.12,.39-.61,.53-.58,.14,.03,.42,.08,.69-.13,.2-.4,.75-.67,1.04-.76l.7-.27s.54-.22,.86-.15c.32,.07,1.12,.11,1.12,.11l.98,.18s.38,.06,.68,.17,1.31,.5,1.3,.54c.02,.02,.44,.02,.97,.36,.53,.35,1.02,.93,1.26,.96,.24,.03,.3,.38,.3,.38,0,0,.26,.45,.57,.63l.47,.62s.48,.53,.68,.8l.74,1.43s.38,.32,.27,.82l.08,1.89s.01,.16,.08,.41l-.16,.94s-.04,.08-.11,.3c-.07,.22-.25,1.1-.76,1.27,.03,.22-.22,.45-.56,.81-.39,.31-1.23,.71-1.09,.84,.14,.13-.11,.06-.3-.04-.13-.13-.35-.21-.39,.07-.06,.38-.02,.61-.42,.59-.4-.02-1.08,.53-1.05,.85l-.85,.35s-.12,.09-.03,.39c.09,.3-.27,1.01-.33,1.05-.04,.09-.04,2.23-.08,2.31-2.18-.09-6.12,.16-8.17,.62Z"/>
      <path id="path10611" class="cls-55" d="M159.39,300.46c.45-.2,.22,.05,.63-.37,.11-.51-.02-.24,.23-.43,.61-.46,1.84-1.09,2.73-1.37,.91-.29,1.85-.04,2.84,.15,.58,.13,1.76,.35,2.88,1.03,.52,.32,1.03,.63,1.5,1.08,.62,.59,1.18,1.35,1.65,1.94,.11,.14,.7,1.26,1.24,2.26,.23,.43,.06,1.17,.09,1.69,.04,.74,.24,1.41-.24,2.49-.31,.7-.35,1-.61,1.08-.25,1.1-1.67,1.42-2.32,1.78l-.37,.02c-.23-.49-1.11-1.43-1.49-1.83-1.08-1.18-1.38-2.44-2.79-2.91-1.22-1.46-4.7-3.59-6.15-4.82-.73-.72-.51-.45-.42-.86l.59-.92Z"/>
      <path id="path1667" class="cls-55" d="M165.09,312.33c-1.16-.92,2.36-3.07,2.45-2.67,.04,.18,2.32,1.74,2.25,1.91-.1,.26-.65,.72-1.89,2.59-.37,.28-1.23-.73-2.82-1.83Z"/>
      <path id="path10618" class="cls-32" d="M164.08,298.2c-.37,.05-.63,.05-1.2,.21-.51,.11-1.61,.54-1.43,.68-.24,.21,.88,1.15,1.29,1.63,.41,.49,1.4,2.07,1.6,2.39,.2,.33,.64,1.33,.97,1.51l.96,.8c-.13-.06,.83,1.05,1.1,1.14,.4,.82,.2,.52,.86,1.37,.58,.85,.7,1.62,.7,1.62,0,0,1.01,1.91,.84,1.82-.16-.09,.44,.07,.62,.21,.18,.14,1.29-.71,1.67-1.32,.1-.19,.74-.7,.95-2.02,.2-1.2-.02-3.22-.04-3.4-.05-.37-.99-2.18-1.37-2.43-.37-.25-1.17-1.27-1.46-1.6-.29-.33-.9-.79-1.29-1.01-.39-.22-.53-.33-1.47-.7-.88-.42-1.69-.51-2.18-.68l-1.13-.22Z"/>
      <path id="path10517" class="cls-22" d="M160.64,299.55c-.37,.05-.62,.14-.5,.47,.15,.42,.36,.81,.36,.81,0,0-.57-.54-.77-.39-.21,.14-.59,.3-.42,.48,.11,.19,.6,.75,.6,.75,0,0-.92-.66-.75-.52-.24,.21-.44,.72-.02,1.2,.41,.49,1.72,1.99,1.92,2.31,.2,.33,.8,.79,1.13,.97,.33,.18,1.5,.92,1.3,.81l-.83-.2c-.13-.06,1.18,1.38,1.45,1.46,.29-.22,2.8-.85,2.66,1.55-.14,.48-.15,.81-.15,.81,0,0,.48,.22,.56,.53,.09,.31,.58,.58,.89,.71,.31,.13,.87,.3,.7,.21-.16-.09,.46,.57,.64,.71,.18,.14,.78-.3,.22-1.2-.18-.44-.86-1.38-.91-1.75s-1.02-1.75-1.39-2.19c-.05-.25,.02-.39-.3-.65-.32-.27-.87-.94-1.16-1.27-.29-.33-.58-.49-.97-.71-.39-.22-2.64-2.31-3.07-3.06-.4-.44,1.96,1.95,2.27,2.16,.51,.39,.75,.38,.08-.57-.27-.45-1.69-2.58-2.87-3.74l-.67,.32Z"/>
      <path id="path10519" class="cls-47" d="M159.47,301.94c.67,.36,1.35,.78,1.7,1.43,.35,.64,.77,1.01,1.35,1.33,.58,.32,.86,.5,.86,.5h0"/>
      <path id="path10521" class="cls-38" d="M158.6,304.05c.28,.82,.55,1.44,1.15,1.97-.11,.16-1.45-.44-2.08-.41,0,0,.03-.45,.26-.83,.23-.39,.68-.72,.68-.72Z"/>
      <path id="path10525" class="cls-11" d="M174.09,340.26c-.16-.02-.88-.1-.87-.17,.02-.41,0-.69-.27-1.1-.28-.4-.71-1.29,.17-1.58,.5-.14,.6,.45,.55,.74-.04,.28,.09,.76,.12,1.23,.03,.47,.28,.71,.22,.76l.09,.12h0Z"/>
      <path id="path10529" class="cls-11" d="M172.02,341.72c.02,.07,.36,.44,.87,.38,.37-.16-.55,.93-.86,.6-.19-.37-.07-1.02,0-.98h0Z"/>
      <path id="path10533" class="cls-11" d="M174.1,339.11c.08,0,.75,.13,.89,.17,0,.23-.04,.93-.29,1.03-.89,.37-.99-1.22-.88-1.24l.27,.04h0Z"/>
      <path id="path10537" class="cls-11" d="M173.08,337.43l-3.81,.47s-2.27-.23-2.58-1.28c-.02-.42,.31-.88,.03-.95-.29-.07-.7-.21-.7-.21l-.83-.19c-.21,.14,.02,1.51,.13,2.03,.14,.67,.01,.7,.13,1.07,.12,.37,1.07,1.02,1.35,1.13,.73,.29,2.14,1.05,5.04,3.09,.07-.25,.22-1.98,.24-2.09-.08-.07-.46-.42-.56-.87-.1-.48,.55-1.03,.86-.29,.14,.36-.3,1.38,.26,1.46,.49,.06,.58-.66,.6-.96,.02-.3-.23-.77-.38-.99-.33-.49-.29-1.08-.1-1.28h0l.32-.15Z"/>
      <g id="g10539">
        <path id="path10541" class="cls-44" d="M161.8,332.25c-.53,.29-1.71,.49-2.4-.03-.57-.4-1.22-1.04-1.72-.83-.5,.21-1.09,.55-1.08,.55l.49-1.74c.16-.12,.54-.41,.97-.77,.64-.51,1.18-.16,1.73,.16,.55,.32,1.19,.67,1.57,.6,.38-.07,.56-.55,.9-.49l1.77,.5s-1.69,1.75-2.23,2.04Z"/>
        <path id="path10543" class="cls-44" d="M156.81,334.87c-1.17,.21-2.29,.95-3.21,1.39,.35-.81,.38-1.67,.29-2.47,.58-.52,1.29-1.36,1.41-1.74,.54-1.84,1.72-1.82,1.72-1.82-.3,1.64-.99,2.25-.21,4.63h0Z"/>
        <path id="path10545" class="cls-44" d="M154.97,337.7c-.18,.19-1.09,.48-1.5,.06-.39-.42-.26-.96,.07-1.36l1.53-.87-.11,2.18h0Z"/>
      </g>
      <path id="path10549" class="cls-47" d="M166.78,304.54c.6,.46,1.2,1,1.44,1.69,.24,.69,.59,1.12,1.11,1.53,.52,.41,.77,.63,.77,.63h0"/>
      <path id="path10551" class="cls-47" d="M163.67,300.66c.6,.46,1.76,.73,2.11,1.69,.24,.69,.59,1.12,1.11,1.53,.52,.41,.77,.63,.77,.63h0"/>
      <path id="path10553" class="cls-47" d="M163.4,299c.6,.46,2.14,1.13,2.37,1.82"/>
      <path id="path10555" class="cls-33" d="M168.15,301.77c.45,.47,.89,.99,1.01,1.62,.12,.63,.37,1.04,.76,1.45,.38,.41,.57,.63,.57,.63h0"/>
      <path id="path10557" class="cls-55" d="M153.24,311.8c.21,.05,.69,.83,.87,.99,.36,.28,.4,.33,.79,.47,1.14,.2,1.17,.16,2.1,.1,.73-.01,1,.06,1.74-.14,.6-.18,1.53-.51,1.78-.69,.14-.09,.5-.6,.62-.73,.14-.21,2.25-5.08,2.34-4.68,.04,.18,.66,.42,.59,.59-.1,.26-2.11,4.5-2.25,4.72-.12,.14-.25,.27-.39,.37-.25,.18-.49,.37-.73,.56-.54,.37-2.22,.92-2.81,1.03-1.39,.1-3.69,.33-5.1-.02-.1-1.11,.45-2.57,.45-2.57Z"/>
      <path id="path10559" class="cls-30" d="M126.49,315.17c-.35-.62-.7-2.59-1.13-3.55-1.07-.29-2.95-.05-4.24-.78-1.45-.91,.55-2.69,.4-3.37-.09-.05-.38-.37-.48-.5-.05-.24,.2-.7,.38-.78h0c-.22-.16-.52-1.05,.44-1.03,.33-.12,.4-.33,.51-.54-.12-.07-.42-.24-.47-.27-.78-.44-.4-.89,.13-1.3,.35-.27,1.59-1.19,2.25-1.55,.29-.15,.35-.27,.37-.57,.01-.3,.27-.67,.5-.9,.23-.23,1.11-.9,1.06-1.08-.05-.18,.21-.55,.29-.61,.08-.06,.19-.25,.24-.33,.04-.08,.19-.25,.35-.27,.16-.01,.39-.24,.36-.37-.03-.12,.39-.61,.53-.58,.14,.03,.42,.08,.69-.13,.2-.4,.75-.67,1.04-.76l.7-.27s.55-.22,.86-.15c.32,.07,1.12,.11,1.12,.11l.98,.18s.38,.06,.68,.17c.3,.11,1.31,.5,1.3,.54,.02,.02,.44,.02,.97,.36,.53,.34,1.02,.93,1.26,.96,.24,.03,.3,.38,.3,.38,0,0,.26,.45,.58,.63l.47,.62s.48,.53,.68,.8l.74,1.43s.38,.32,.27,.82l.08,1.89s.01,.16,.08,.41l-.16,.94s-.04,.08-.11,.3c-.07,.22-.25,1.1-.76,1.27,.03,.22-.22,.45-.56,.81-.39,.31-1.23,.71-1.09,.84,.13,.13-.11,.06-.3-.04-.14-.13-.35-.21-.39,.07-.06,.38-.02,.61-.42,.59-.4-.02-1.08,.53-1.05,.85l-.85,.35s-.12,.09-.03,.39c.09,.31-.27,1.01-.33,1.05-.04,.09-.04,2.23-.08,2.31-2.18-.09-6.12,.16-8.17,.62Z"/>
      <path id="path3433" class="cls-55" d="M132.41,309.89c-1.16-.92,2.36-3.07,2.45-2.67,.04,.18,2.32,1.74,2.25,1.91-.1,.26-.65,.72-1.89,2.59-.37,.28-1.23-.73-2.82-1.83Z"/>
      <path id="path10613" class="cls-55" d="M126.87,297.8c.45-.2,.22,.05,.63-.37,.11-.51-.02-.24,.23-.43,.61-.46,1.84-1.09,2.73-1.37,.91-.29,1.85-.04,2.84,.15,.58,.13,1.76,.34,2.88,1.03,.52,.32,1.03,.63,1.5,1.08,.62,.59,1.18,1.35,1.65,1.94,.11,.14,.7,1.26,1.24,2.26,.23,.43,.06,1.17,.09,1.69,.04,.74,.24,1.41-.24,2.49-.31,.7-.35,1-.61,1.08-.25,1.1-1.67,1.42-2.32,1.78l-.37,.02c-.23-.49-1.11-1.43-1.49-1.83-1.08-1.18-1.38-2.44-2.79-2.91-1.22-1.46-4.7-3.59-6.15-4.82-.73-.72-.51-.45-.42-.86l.59-.92Z"/>
      <path id="path10616" class="cls-32" d="M131.65,295.55c-.37,.05-.63,.05-1.2,.21-.51,.11-1.61,.54-1.43,.68-.24,.21,.88,1.15,1.29,1.63,.41,.49,1.4,2.07,1.6,2.39,.2,.33,.64,1.32,.97,1.51l.96,.79c-.13-.06,.83,1.05,1.1,1.14,.4,.82,.2,.52,.86,1.37,.58,.85,.7,1.62,.7,1.62,0,0,1.01,1.91,.84,1.82-.16-.09,.44,.07,.62,.21,.18,.14,1.29-.71,1.67-1.32,.1-.19,.74-.7,.95-2.02,.2-1.2-.02-3.22-.04-3.4-.05-.37-.99-2.18-1.37-2.43s-1.17-1.27-1.45-1.6c-.29-.33-.9-.79-1.3-1.01-.39-.22-.53-.33-1.47-.7-.88-.42-1.69-.51-2.18-.68l-1.13-.21Z"/>
      <path id="path10561" class="cls-22" d="M128.12,296.9c-.37,.05-.62,.14-.5,.47,.15,.42,.36,.81,.36,.81,0,0-.57-.53-.77-.39-.21,.14-.59,.3-.42,.47,.11,.19,.6,.75,.6,.75,0,0-.92-.66-.75-.52-.24,.21-.44,.72-.02,1.2,.41,.49,1.72,1.99,1.92,2.31,.2,.33,.8,.79,1.13,.97,.33,.18,1.5,.92,1.3,.81l-.83-.2c-.13-.06,1.18,1.38,1.45,1.46,.29-.22,2.8-.85,2.66,1.55-.14,.48-.15,.81-.15,.81,0,0,.48,.22,.56,.53,.09,.3,.58,.58,.89,.71,.31,.13,.87,.3,.7,.2-.16-.09,.62,.53,.79,.68,.18,.14,.59-.45,.07-1.16-.18-.44-.86-1.38-.91-1.75-.05-.37-1.02-1.75-1.39-2.19-.05-.25,.02-.39-.3-.65-.32-.27-.87-.94-1.16-1.27-.29-.33-.58-.5-.97-.71-.39-.22-2.64-2.31-3.07-3.06-.4-.44,1.96,1.95,2.27,2.16,.51,.39,.75,.38,.08-.57-.26-.45-1.69-2.58-2.87-3.74l-.67,.32Z"/>
      <path id="path10563" class="cls-47" d="M126.95,299.29c.67,.36,1.35,.78,1.7,1.43,.35,.64,.77,1.01,1.35,1.33,.58,.32,.86,.5,.86,.5h0"/>
      <path id="path10565" class="cls-38" d="M126.09,301.4c.28,.83,.55,1.44,1.15,1.97-.11,.16-1.45-.44-2.08-.41,0,0,.03-.45,.26-.83,.23-.39,.68-.72,.68-.72Z"/>
      <path id="path10569" class="cls-11" d="M127.82,318.27c.16,.01,.88,.04,.89-.03,.05-.4,.11-.69,.44-1.04,.34-.35,.91-1.16,.08-1.59-.47-.22-.67,.35-.66,.64,0,.28-.21,.73-.31,1.2-.1,.46-.4,.66-.34,.72l-.11,.11h0Z"/>
      <path id="path10573" class="cls-11" d="M129.85,319.72c-.02,.07-.36,.44-.87,.37-.37-.16,.54,.93,.86,.61,.19-.37,.07-1.02,0-.98h0Z"/>
      <path id="path10577" class="cls-11" d="M127.98,317.17c-.08,0-.76-.03-.91-.02-.04,.23-.15,.92,.07,1.07,.79,.55,1.22-1,1.11-1.04h-.27Z"/>
      <path id="path1692" class="cls-11" d="M130.45,318.32c.06-.23,.75-1.28,.13-1.62-.74-.61-1.34,2.09-1.23,2.14,0,0,.95-.52,1.11-.52Z"/>
      <path id="path10581" class="cls-11" d="M129.47,315.64l3.45,.63s2.43,.31,2.9-1.42c-.01-.53,.55-2.11,.55-2.11l.72,.75c.29,.75-.21,.78-.16,1.07,.05,.29,.32,.81,.13,1.47-.2,.66-.22,.69-.37,1.04-.15,.35-1.16,.92-1.45,1-.76,.22-2.22,.86-5.3,2.63-.05-.26-.05-1.99-.06-2.11,.09-.07,.5-.38,.63-.81,.14-.47-.46-1.08-.83-.37-.17,.35,.18,1.4-.39,1.44-.49,.02-.52-.71-.51-1.01,0-.3,.3-.74,.47-.95,.38-.46,.38-1.05,.21-1.26h0Z"/>
      <path id="path1694" class="cls-11" d="M137.79,309.19c-.95,.17,.51,1.36-.21,2.17,0,0,.62,.93,.83,.85,1.26-.51-.02-2.99-.63-3.02Z"/>
      <g id="g10583">
        <path id="path10585" class="cls-45" d="M136.71,310.1c.01,.44,0,.94-.2,1.51-.19,.58-.32,1.47,.31,2.06,.5,.49,.87,1.04,.75,1.57s-.36,1.17-.35,1.16l1.63-.78c.09-.18,.31-.6,.59-1.09,.39-.72-.04-1.19-.46-1.67-.41-.49-.86-1.06-.86-1.44,0-.39-.13-1.12-.25-1.45-.12-.32-1.14,.13-1.14,.13h0Z"/>
        <path id="path10587" class="cls-45" d="M134.29,316.7c0,1.19-.53,2.42-.81,3.41,.74-.48,1.57-.66,2.38-.71,.41-.66,1.11-1.51,1.47-1.69,1.72-.85,1.49-2.01,1.49-2.01-1.57,.58-2.04,1.36-4.53,1.01h0Z"/>
        <path id="path10589" class="cls-45" d="M131.83,319.01c-.15,.21-.29,1.16,.2,1.48,.48,.31,.99,.09,1.33-.31l.59-1.66-2.13,.48h0Z"/>
      </g>
      <path id="path10593" class="cls-47" d="M134.27,301.89c.6,.46,1.2,.99,1.44,1.69,.24,.69,.59,1.12,1.11,1.53,.52,.41,.77,.63,.77,.63h0"/>
      <path id="path10595" class="cls-47" d="M131.16,298.01c.6,.46,1.76,.73,2.11,1.69,.24,.69,.59,1.12,1.11,1.53,.52,.41,.77,.63,.77,.63h0"/>
      <path id="path10597" class="cls-47" d="M130.89,296.34c.6,.46,2.14,1.13,2.37,1.82"/>
      <path id="path10599" class="cls-33" d="M135.64,299.11c.45,.47,.89,.99,1.01,1.62,.12,.63,.37,1.04,.76,1.45,.38,.41,.57,.63,.57,.63h0"/>
      <path id="path10601" class="cls-55" d="M120.73,309.15c.21,.05,.69,.83,.87,.99,.35,.28,.4,.33,.79,.47,1.14,.2,1.17,.16,2.1,.1,.73-.01,1,.06,1.74-.14,.6-.17,1.53-.51,1.78-.69,.14-.09,.5-.6,.62-.73,.14-.21,2.25-5.08,2.34-4.68,.04,.18,.66,.42,.59,.59-.1,.26-2.11,4.5-2.25,4.72-.12,.14-.25,.27-.39,.37-.25,.18-.49,.37-.73,.56-.54,.37-2.22,.92-2.81,1.03-1.39,.1-3.69,.33-5.1-.02-.1-1.11,.45-2.57,.45-2.57Z"/>
      <path id="path10620" class="cls-39" d="M162.86,265.55c.07,.04,.28,.47,.36,.56,.09,.06,.23,.14,.49,.12,.44-.13,1.17-.78,1.57-.88,.64,.07,1.14-.17,1.37-.3"/>
      <path id="path10622" class="cls-39" d="M162.71,310.57c.07,.04,.28,.47,.36,.56,.09,.06,.23,.14,.49,.12,.44-.13,1.16-.78,1.57-.88,.64,.07,1.14-.17,1.37-.3"/>
      <path id="path10624" class="cls-39" d="M130.35,307.91c.07,.04,.28,.47,.36,.56,.09,.06,.23,.14,.49,.12,.44-.13,1.17-.78,1.57-.88,.64,.07,1.15-.17,1.37-.3"/>
      <path id="path10632" class="cls-52" d="M165.07,264.08s.06,.05,.07,.1c0,.07,.02,.13,.01,.19-.02,.07-.03,.13-.07,.19-.05,.05-.1,.07-.17,.09-.07,.03-.12,.04-.19,.05-.06,0-.14,.02-.19,.01-.04,.02-.1,0-.14,.03-.05,.02-.09,.03-.12,.08-.05,.05-.09,.11-.14,.17-.05,.06-.1,.11-.14,.17-.06,.03-.1,.04-.17,.03-.06-.02-.11-.05-.17-.08-.02-.05-.05-.12-.06-.17,.02-.03,.03-.06,.05-.09"/>
      <path id="path10634" class="cls-55" d="M164.3,263.31c.53-.3,2.76-.15,1.43,1.23-.19,.12-.05,.29,.07,.2,1.52-1.66-.87-1.95-1.46-1.62-.24,.14-.05,.2-.04,.19h0Z"/>
      <path id="path10636" class="cls-52" d="M165.15,309.02s.06,.05,.07,.1c.01,.07,.02,.13,.01,.19-.02,.07-.03,.13-.07,.19-.05,.05-.1,.07-.17,.09-.07,.03-.12,.04-.19,.05-.06,0-.14,.02-.19,.01-.04,.02-.1,0-.14,.03-.05,.02-.08,.03-.12,.08-.05,.04-.1,.11-.14,.17-.05,.06-.1,.11-.14,.17-.06,.03-.1,.04-.17,.02-.06-.02-.11-.05-.17-.08-.02-.05-.05-.12-.06-.17,.02-.03,.03-.06,.05-.09"/>
      <path id="path10638" class="cls-55" d="M164.37,308.25c.53-.3,2.77-.15,1.43,1.23-.19,.12-.05,.29,.07,.2,1.52-1.66-.87-1.95-1.46-1.62-.24,.14-.05,.2-.04,.19h0Z"/>
      <path id="path10640" class="cls-52" d="M132.63,306.52s.06,.05,.07,.1c.01,.07,.02,.13,.01,.19-.02,.07-.03,.13-.07,.19-.05,.05-.1,.07-.17,.09-.07,.03-.12,.04-.19,.05-.06,0-.14,.02-.19,.01-.04,.02-.1,0-.14,.03-.05,.02-.08,.03-.12,.08-.05,.04-.1,.11-.14,.17-.05,.06-.1,.11-.14,.17-.06,.03-.1,.04-.17,.03-.06-.02-.11-.05-.17-.08-.02-.05-.05-.12-.06-.17,.02-.03,.03-.06,.05-.09"/>
      <path id="path10642" class="cls-55" d="M131.86,305.75c.53-.3,2.76-.15,1.43,1.23-.19,.12-.05,.29,.07,.2,1.52-1.66-.87-1.95-1.46-1.62-.24,.14-.05,.2-.04,.19h0Z"/>
      <path id="path3400" class="cls-12" d="M165.98,275.2c-.13,.2-.17,.83,.06,.91,.32,.12,1.14,1.22,1.76,.98,.68-.26,3.19-1.3,3.19-1.85,0-.33,2.41-2.25,3.25-3.86,.39-.73,.99-3.47-.28-4.17-1.25-.69-3.32-.91-3.44-.66-.15,.31-.1-.05-.95,1.89-.56,1.27-2.12,5.09-2.55,5.46-.6,.53-.89,1.06-1.04,1.3Z"/>
      <path id="path4298" class="cls-9" d="M171.07,268.46c-.05-.39-.42-1.26-.81-1.53l-.38-.27"/>
      <path id="path10644" class="cls-10" d="M170.05,266.58c.05-.33,.2-.25,.41,.03,.3,.53-.42,1.05-1.01,.92-.35-.03-.32-.44,.17-.37,.43,.11,.44-.61,.43-.59h.03s-.03,0-.03,0h0Z"/>
      <g id="g1689">
        <path id="path1691" class="cls-41" d="M169.66,312.63c.35,.26,.73,.58,1.07,1.09,.34,.51,.96,1.15,1.81,1.02,.69-.09,1.36-.05,1.7,.38,.34,.43,.7,1,.69,.99l.39-1.76c-.09-.18-.28-.62-.5-1.13-.33-.75-.96-.7-1.6-.67-.64,.03-1.37,.03-1.67-.21-.3-.24-.97-.59-1.3-.69-.33-.11-.6,.98-.6,.98h0Z"/>
        <path id="path1693" class="cls-41" d="M175.51,321.45c.51-.19,.48-1.76,.94-2.42-.27-.73-.5-1.8-.43-2.2,.39-1.88-.67-2.41-.67-2.41-.27,.86-2.08,4.22-2.11,4.84-.06,1.32,1.99,1.82,2.27,2.2Z"/>
      </g>
      <path id="path10646" class="cls-10" d="M169.97,311.68c.05-.33,.2-.25,.41,.03,.3,.53-.42,1.05-1.01,.92-.35-.03-.32-.44,.17-.37,.43,.11,.44-.61,.43-.59h.03s-.03,0-.03,0h0Z"/>
      <path id="path10648" class="cls-10" d="M137.5,309.03c.05-.33,.2-.25,.41,.03,.3,.53-.42,1.05-1.01,.92-.35-.03-.32-.44,.17-.37,.43,.11,.44-.61,.43-.59h.03s-.03,0-.03,0h0Z"/>
      <path id="path10650" class="cls-55" d="M157.57,264.82c.32,0,.64,0,.95,0,1.39,0-.33,.01,0-.04,.34-.03,.61-.15,.92-.28l1.22-.41c-.31,.19-.71,.83-1.08,.84-.7,.12-1.41,.03-2.12,.05-.32,0-.65,0-.97,0l1.07-.17Z"/>
      <path id="path10652" class="cls-55" d="M125.42,307.26c.32,0,.64,0,.95,0,1.39,0-.33,.01,0-.04,.33-.03,.65-.02,.96-.15l1.22-.29c-.31,.19-.76,.59-1.12,.59-.7,.12-1.41,.04-2.12,.05-.32,0-.65,0-.97,0l1.07-.17Z"/>
      <path id="path10654" class="cls-55" d="M157.79,310.26c.32,0,.64,0,.95,0,1.39,0-.33,.01,0-.04,.34-.03,.65-.02,.96-.15l1.22-.29c-.31,.19-.75,.59-1.12,.59-.7,.12-1.41,.04-2.12,.05-.32,0-.65,0-.97,0l1.07-.17Z"/>
      <path id="path12441" class="cls-26" d="M135.58,196.74c-.51-.15-1.01-.3-1.52-.45-.74-.22-1.56-.14-2.12,0-.69,.17-.45,1.52-.45,2.12,0,.91,2.18,.91,2.88,.91,1.03,0,1.34,.03,1.82-.45,.48-.48-.45-1.93-.61-2.12Z"/>
      <path id="path12443" class="cls-26" d="M138.38,202.28c.21-.21-1.46,0-3.03,0-.96,0-.91,1.34-.76,1.97,.15,.59,2.37,.73,2.88,.61,1.07-.27,.99-.82,1.52-1.52,.46-.61,.22-.56-.61-1.06Z"/>
      <path id="path12449" class="cls-26" d="M133.08,196.21c-.28-.28-.36-.91-.23-1.44,.11-.42,.58-.45,.99-.45,.71,0,1.47-.01,2.12,.15,.58,.14,1.31,.04,1.74,.15,.39,.1,.52,.2,.68,.53,.19,.38,.15,.98,.15,1.44,0,.36-.01,.81-.08,1.06-.04,.17-.99,.08-1.14,.08-.42,0-.82,.02-1.21-.08-.21-.05-.46-.47-.53-.61-.12-.24-.51-.33-.76-.45-.28-.14-.72-.17-.99-.3-.2-.1-.44-.08-.76-.08Z"/>
      <path id="path12451" class="cls-26" d="M148.01,203.72c-.23-.12-1.4,.04-2.05,.23-.74,.21-.73,.97-.61,1.59,.09,.47,1.03,.52,1.36,.61,.5,.12,.89,.08,1.29,.38,.48,.36,1.09,.68,1.82,.68,1.3,0,1-.28,1.52-1.14,.16-.26,.84-.54,1.06-.76,.44-.45-.08-.92-.3-1.14-.29-.29-.99-.38-1.29-.45-.47-.12-.96-.08-1.44-.08s-.91-.02-1.36,.08Z"/>
      <path id="path12455" class="cls-26" d="M160.59,200.99c-.75-.19-2.36-.08-3.41-.08-.5,0-.91,.28-.91,.76,0,.77,.26,.88,.99,1.06,.61,.15,1.01,.12,1.52,.38,.39,.19,1.03,.23,1.44,.23,.52,0,.8-.27,1.14-.61,.32-.32-.01-.89-.08-1.21-.07-.36-.27-.45-.68-.53Z"/>
      <path id="path12457" class="cls-26" d="M162.11,200.38c-.09-.46-2.25,1.18-3.41,.3-.52-.39-.49-.95-.98-1.44-.33-.33,.53-.98,.68-1.06,.33-.17,.71-.36,1.06-.53,.29-.15,1.39-.37,1.67-.3,.46,.12,1.09,.7,1.52,.91,.53,.26,.23,1.03,.23,1.52,0,.23-.47,.49-.76,.61Z"/>
      <path id="path12459" class="cls-26" d="M163.09,197.81c0,.18-1.64-.86-1.9-.99-.45-.23-.28-.66-.15-.99,.29-.71,.71-.68,1.67-.68,.77,0,1.03,.31,1.29-.45,.24-.71,.47-.76,1.21-1.06,.3-.12,.95,0,1.29,0,.55,0,.55,.83,.45,1.21-.15,.58-.28,.88-.68,1.29-.26,.26-.53,.45-.68,.76-.14,.29-.64,.46-.91,.53-.62,.15-1.01,.19-1.59,.38Z"/>
      <path id="path12461" class="cls-26" d="M164.76,197.81c-.4,.1,.81-.4,1.21-.3,.43,.11,.65,.35,.91,.61,.29,.29,.29,.84,.38,1.21,.08,.32,.39,.45,.3,.91-.08,.4-.77,.38-1.14,.38-.59,0-1.07-.08-1.67-.08-.38,0-.84-.15-1.14-.23-.36-.09-.53-.47-.53-.83,0-.48-.13-.91,.15-1.29,.07-.09,1.64-.33,1.52-.38Z"/>
      <path id="path12465" class="cls-26" d="M163.01,202.96c0-.13,2.35,.42,2.88,.53,.45,.09,.93,.35,1.14,.76,.26,.53-.19,1.06-.61,1.06-.84,0-1.1-.14-1.9-.3-.5-.1-1.01-.21-1.52-.38-.84-.28-.73-.27-.53-1.06,.04-.17,.5-.57,.53-.61Z"/>
      <path id="path13340" class="cls-24" d="M142.33,202.76c.21-.21-1.46,0-3.03,0-.96,0-.91,1.38-.76,2.02,.15,.61,2.37,.75,2.88,.62,1.07-.27,.99-.84,1.52-1.56,.46-.62,.22-.58-.61-1.09Z"/>
      <path id="path13342" class="cls-26" d="M138.62,204.42c.21-.21-1.46,0-3.03,0-.96,0-.92,1.34-.76,1.97,.15,.59,2.37,.73,2.88,.61,1.07-.27,.99-.82,1.52-1.52,.46-.61,.22-.56-.61-1.06Z"/>
      <path id="path13344" class="cls-26" d="M134.37,206.24c.21-.21-1.46,0-3.03,0-.96,0-.91,1.34-.76,1.97,.15,.59,2.37,.73,2.88,.61,1.07-.27,.99-.82,1.52-1.52,.46-.61,.22-.56-.61-1.06Z"/>
      <path id="path13346" class="cls-26" d="M152.11,196.24c.21-.21-1.46,0-3.03,0-.96,0-.91,1.34-.76,1.97,.15,.59,2.37,.73,2.88,.61,1.07-.27,.99-.82,1.52-1.52,.46-.61,.22-.56-.61-1.06Z"/>
      <path id="path13348" class="cls-26" d="M142.94,192.07c.21-.21-1.46,0-3.03,0-.96,0-.91,1.34-.76,1.97,.15,.59,2.37,.73,2.88,.61,1.07-.27,.99-.82,1.52-1.52,.46-.61,.22-.56-.61-1.06Z"/>
      <path id="path13350" class="cls-26" d="M160.06,204.12c.21-.21-1.46,0-3.03,0-.96,0-.92,1.34-.76,1.97,.15,.59,2.37,.73,2.88,.61,1.07-.27,.99-.82,1.52-1.52,.46-.61,.22-.56-.61-1.06Z"/>
      <path id="path13352" class="cls-26" d="M121.44,198.87c-.26-.07-.86-.03-1.29,.08-.4,.1-.57,.27-.87,.34-.32,.08-.53,.41-.68,.57-.29,.29-.35,.13,.53,.45,.41,.15,.66,.32,.87,.38,.33,.08,.55,0,1.02,0,.36,0,.84-.04,1.06-.15,.45-.22,.45-.37,.45-.91s-.15-.57-.53-.76c-.11-.05-.44,0-.57,0Z"/>
      <path id="path15100" class="cls-26" d="M122.37,200.23c-.26-.07-.86-.03-1.29,.08-.4,.1-.57,.27-.87,.34-.32,.08-.53,.41-.68,.57-.29,.29-.35,.13,.53,.45,.41,.15,.66,.32,.87,.38,.33,.08,.55,0,1.02,0,.36,0,.84-.04,1.06-.15,.45-.22,.45-.37,.45-.91s-.15-.57-.53-.76c-.11-.06-.44,0-.57,0Z"/>
      <path id="path15102" class="cls-26" d="M123.28,201.75c-.26-.07-.86-.03-1.29,.08-.4,.1-.57,.27-.87,.34-.32,.08-.53,.41-.68,.57-.29,.29-.35,.13,.53,.45,.41,.15,.66,.32,.87,.38,.33,.08,.55,0,1.02,0,.36,0,.84-.04,1.06-.15,.45-.22,.45-.37,.45-.91s-.15-.57-.53-.76c-.11-.06-.44,0-.57,0Z"/>
      <path id="path15104" class="cls-26" d="M124.57,203.34c-.26-.07-.86-.03-1.29,.08-.4,.1-.57,.27-.87,.34-.32,.08-.53,.41-.68,.57-.29,.29-.35,.13,.53,.45,.41,.15,.66,.32,.87,.38,.33,.08,.55,0,1.02,0,.36,0,.84-.04,1.06-.15,.45-.22,.45-.37,.45-.91s-.15-.57-.53-.76c-.11-.05-.44,0-.57,0Z"/>
      <path id="path15106" class="cls-26" d="M126.54,204.63c-.27-.03-.86,.11-1.26,.28-.38,.16-.52,.35-.81,.47-.3,.13-.45,.49-.58,.67-.24,.34-.32,.19,.6,.37,.43,.08,.7,.22,.92,.24,.34,.03,.54-.09,1.01-.16,.36-.06,.82-.17,1.02-.32,.41-.29,.39-.43,.3-.97-.08-.51-.23-.53-.64-.66-.12-.04-.44,.07-.56,.09Z"/>
      <path id="path15108" class="cls-26" d="M164.55,196.21c.26-.07,.86-.03,1.29,.08,.4,.1,.57,.27,.87,.34,.32,.08,.53,.41,.68,.57,.29,.29,.35,.13-.53,.45-.41,.15-.66,.32-.87,.38-.33,.08-.55,0-1.02,0-.36,0-.84-.04-1.06-.15-.45-.22-.45-.37-.45-.91s.15-.57,.53-.76c.11-.06,.44,0,.57,0Z"/>
      <path id="path15110" class="cls-26" d="M122.3,195.23c-.26-.07-.86-.03-1.29,.08-.4,.1-.57,.27-.87,.34-.32,.08-.53,.41-.68,.57-.29,.29-.35,.13,.53,.45,.41,.15,.66,.32,.87,.38,.33,.08,.55,0,1.02,0,.36,0,.84-.04,1.06-.15,.45-.22,.45-.37,.45-.91s-.15-.57-.53-.76c-.11-.05-.44,0-.57,0Z"/>
      <path id="path15112" class="cls-26" d="M123.62,193.71c-.25-.11-.85-.16-1.29-.11-.41,.04-.6,.18-.91,.21-.32,.03-.58,.33-.76,.46-.33,.25-.36,.08,.46,.53,.39,.21,.6,.42,.81,.5,.32,.13,.54,.08,1.01,.15,.36,.05,.84,.08,1.07,0,.47-.16,.5-.3,.58-.83,.08-.51-.06-.58-.41-.83-.1-.07-.44-.06-.56-.08Z"/>
      <path id="path15114" class="cls-26" d="M125.9,192.45c-.24-.13-.83-.23-1.27-.23-.41,0-.62,.12-.93,.13-.33,0-.61,.28-.8,.39-.35,.22-.37,.05,.41,.57,.37,.24,.56,.47,.76,.57,.3,.16,.53,.13,.99,.24,.35,.09,.83,.16,1.07,.1,.49-.11,.53-.25,.66-.78,.12-.5,0-.58-.34-.86-.1-.08-.43-.1-.55-.13Z"/>
      <path id="path15116" class="cls-26" d="M127.95,205.7c-.27,0-.84,.19-1.23,.4-.36,.2-.49,.4-.76,.55-.29,.16-.41,.53-.52,.72-.21,.36-.3,.21,.63,.31,.44,.04,.72,.15,.94,.15,.34,0,.53-.14,.99-.26,.35-.09,.8-.25,.99-.41,.38-.33,.35-.47,.21-.99-.13-.5-.28-.51-.7-.6-.12-.03-.43,.11-.55,.14Z"/>
      <path id="path15118" class="cls-26" d="M128.34,207.05c-.27,0-.84,.19-1.23,.4-.36,.2-.49,.4-.76,.55-.29,.16-.41,.53-.52,.72-.21,.36-.3,.21,.63,.31,.44,.04,.72,.15,.94,.15,.34,0,.53-.14,.99-.26,.35-.09,.8-.25,.99-.41,.38-.33,.35-.47,.21-.99-.13-.5-.28-.51-.7-.6-.12-.03-.43,.11-.55,.14Z"/>
      <path id="path15120" class="cls-26" d="M141.84,210.23c-.27,0-.84,.19-1.23,.4-.36,.2-.49,.4-.76,.55-.29,.16-.41,.53-.52,.72-.21,.36-.3,.22,.63,.31,.44,.04,.72,.15,.94,.15,.34,0,.53-.14,.99-.26,.35-.09,.8-.25,.99-.41,.38-.33,.35-.47,.21-.99-.13-.5-.28-.51-.7-.6-.12-.03-.43,.11-.55,.14Z"/>
      <path id="path15122" class="cls-26" d="M139.11,209.78c-.27,0-.84,.19-1.23,.4-.36,.2-.49,.4-.76,.55-.29,.16-.41,.53-.52,.72-.21,.36-.3,.22,.63,.31,.44,.04,.72,.15,.94,.15,.34,0,.53-.14,.99-.26,.35-.09,.8-.25,.99-.41,.38-.33,.35-.47,.21-.99-.13-.5-.28-.51-.7-.6-.12-.03-.43,.11-.55,.14Z"/>
      <path id="path15124" class="cls-26" d="M136.53,209.32c-.27,0-.84,.19-1.23,.4-.36,.2-.49,.4-.76,.55-.29,.16-.41,.53-.52,.72-.21,.36-.3,.21,.63,.31,.44,.04,.72,.15,.94,.15,.34,0,.53-.14,.99-.26,.35-.09,.8-.25,.99-.41,.38-.33,.35-.47,.21-.99-.13-.5-.28-.51-.7-.6-.12-.03-.43,.11-.55,.14Z"/>
      <path id="path15126" class="cls-26" d="M134.94,207.96c-.27,0-.84,.19-1.23,.4-.36,.2-.49,.4-.76,.55-.29,.16-.41,.53-.52,.72-.21,.36-.3,.21,.63,.31,.44,.04,.72,.15,.94,.15,.34,0,.53-.14,.99-.26,.35-.09,.8-.25,.99-.41,.38-.33,.35-.47,.21-.99-.13-.5-.28-.51-.7-.6-.12-.03-.43,.11-.55,.14Z"/>
      <path id="path15128" class="cls-26" d="M130.11,207.24c-.24,.12-.67,.54-.93,.9-.24,.34-.26,.57-.44,.83-.19,.27-.13,.66-.14,.88-.03,.41-.18,.33,.7,0,.41-.16,.71-.18,.91-.28,.31-.16,.41-.36,.77-.67,.28-.24,.61-.58,.7-.81,.19-.46,.1-.58-.25-.99-.34-.39-.48-.33-.9-.23-.12,.03-.33,.29-.43,.37Z"/>
      <path id="path15132" class="cls-26" d="M165.15,202.35c.26-.07,.86-.03,1.29,.08,.4,.1,.57,.27,.87,.34,.32,.08,.53,.41,.68,.57,.29,.29,.35,.13-.53,.45-.41,.15-.66,.32-.87,.38-.33,.08-.55,0-1.02,0-.36,0-.84-.04-1.06-.15-.45-.22-.45-.37-.45-.91s.15-.57,.53-.76c.11-.06,.44,0,.57,0Z"/>
      <path id="path15134" class="cls-26" d="M164.97,204.21c.27,.02,.83,.25,1.2,.49,.35,.22,.45,.44,.71,.6,.27,.18,.37,.56,.46,.76,.18,.37,.29,.24-.65,.26-.44,.01-.73,.1-.95,.08-.34-.03-.52-.18-.97-.33-.34-.12-.78-.31-.96-.49-.35-.36-.31-.49-.14-1.01,.17-.49,.32-.49,.75-.55,.13-.02,.42,.14,.54,.18Z"/>
      <path id="path15136" class="cls-26" d="M147.2,209.96c.26,.06,.78,.38,1.1,.67,.31,.28,.38,.5,.61,.71,.24,.22,.27,.61,.33,.82,.12,.4,.24,.28-.68,.15-.43-.06-.73-.02-.95-.08-.33-.08-.48-.26-.9-.48-.32-.17-.72-.43-.86-.63-.29-.41-.23-.54,.03-1.02,.24-.46,.4-.43,.83-.42,.13,0,.39,.21,.5,.27Z"/>
      <path id="path15138" class="cls-26" d="M163.87,205.84c.26-.07,.86-.03,1.29,.08,.4,.1,.57,.27,.87,.34,.32,.08,.53,.41,.68,.57,.29,.29,.35,.13-.53,.45-.41,.15-.66,.32-.87,.38-.33,.08-.55,0-1.02,0-.36,0-.84-.04-1.06-.15-.45-.22-.45-.37-.45-.91s.15-.57,.53-.76c.11-.06,.44,0,.57,0Z"/>
      <path id="path15140" class="cls-26" d="M161.73,206.6c.27,.02,.83,.25,1.19,.49,.35,.23,.45,.44,.71,.61,.27,.18,.36,.56,.46,.76,.18,.37,.28,.24-.65,.26-.44,0-.73,.09-.95,.07-.34-.03-.52-.18-.97-.33-.34-.12-.78-.32-.95-.49-.35-.36-.31-.5-.13-1.01,.17-.49,.32-.49,.75-.54,.13-.02,.42,.15,.54,.19Z"/>
      <path id="path15144" class="cls-26" d="M160.21,207.72c.27,.02,.83,.25,1.19,.49,.35,.23,.45,.44,.71,.61,.27,.18,.36,.56,.46,.76,.18,.37,.28,.24-.65,.26-.44,0-.73,.09-.95,.07-.34-.03-.52-.18-.97-.33-.34-.12-.78-.32-.95-.49-.35-.36-.31-.5-.13-1.01,.17-.49,.32-.49,.75-.54,.13-.02,.42,.14,.54,.19Z"/>
      <path id="path15146" class="cls-26" d="M157.48,207.94c.27,.02,.83,.25,1.19,.49,.35,.23,.45,.44,.71,.61,.27,.18,.36,.56,.46,.76,.18,.37,.28,.24-.65,.26-.44,0-.73,.09-.95,.07-.34-.03-.52-.18-.97-.33-.34-.12-.78-.32-.95-.49-.35-.36-.31-.5-.13-1.01,.17-.49,.32-.49,.75-.54,.13-.02,.42,.14,.54,.19Z"/>
      <path id="path15148" class="cls-26" d="M156.04,209.08c.27,.02,.83,.25,1.19,.49,.35,.23,.45,.44,.71,.61,.27,.18,.36,.56,.46,.76,.18,.37,.28,.24-.65,.26-.44,0-.73,.09-.95,.07-.34-.03-.52-.18-.97-.34-.34-.12-.78-.31-.95-.49-.35-.36-.31-.5-.13-1.01,.17-.49,.32-.49,.75-.54,.12-.02,.42,.14,.54,.19Z"/>
      <path id="path15150" class="cls-26" d="M149.9,209.99c.27,.02,.83,.25,1.19,.49,.35,.23,.45,.44,.71,.61,.27,.18,.36,.56,.46,.76,.18,.37,.28,.24-.65,.26-.44,0-.73,.09-.95,.07-.34-.03-.52-.18-.97-.33-.34-.12-.78-.32-.95-.49-.35-.36-.31-.5-.13-1.01,.17-.49,.32-.49,.75-.54,.13-.02,.42,.14,.54,.19Z"/>
      <path id="path15152" class="cls-26" d="M153.61,208.34c.24,.13,.65,.57,.89,.93,.22,.35,.24,.58,.4,.84,.18,.27,.1,.66,.11,.88,.01,.42,.16,.33-.7-.03-.4-.17-.7-.21-.9-.32-.3-.17-.4-.37-.75-.7-.27-.25-.59-.6-.67-.84-.17-.47-.08-.58,.29-.97,.35-.38,.49-.31,.9-.19,.12,.04,.32,.3,.42,.39Z"/>
      <path id="path15154" class="cls-26" d="M151.96,208.91c.24,.12,.65,.56,.89,.93,.23,.35,.24,.58,.41,.84,.18,.27,.11,.66,.11,.88,.02,.42,.16,.33-.7-.03-.41-.17-.7-.21-.9-.31-.3-.17-.4-.37-.75-.7-.27-.25-.59-.6-.68-.83-.18-.47-.08-.58,.29-.98,.35-.38,.49-.32,.9-.19,.12,.04,.32,.3,.42,.39Z"/>
      <path id="path15156" class="cls-26" d="M165.61,200.61c.26-.07,.86-.03,1.29,.08,.4,.1,.57,.27,.87,.34,.32,.08,.53,.41,.68,.57,.29,.29,.35,.13-.53,.45-.41,.15-.66,.32-.87,.38-.33,.08-.55,0-1.02,0-.36,0-.84-.04-1.06-.15-.45-.22-.45-.37-.45-.91s.15-.57,.53-.76c.11-.06,.44,0,.57,0Z"/>
      <path id="path15158" class="cls-26" d="M120.4,197.05c-.26-.07-.86-.03-1.29,.08-.4,.1-.57,.27-.87,.34-.32,.08-.53,.41-.68,.57-.29,.29-.35,.13,.53,.45,.41,.15,.66,.32,.87,.38,.33,.08,.55,0,1.02,0,.36,0,.84-.04,1.06-.15,.45-.22,.45-.37,.45-.91s-.15-.57-.53-.76c-.11-.06-.44,0-.57,0Z"/>
      <path id="path15160" class="cls-26" d="M122.68,197.05c-.26-.07-.86-.03-1.29,.08-.4,.1-.57,.27-.87,.34-.32,.08-.53,.41-.68,.57-.29,.29-.35,.13,.53,.45,.41,.15,.66,.32,.87,.38,.33,.08,.55,0,1.02,0,.36,0,.84-.04,1.06-.15,.45-.22,.45-.37,.45-.91s-.15-.57-.53-.76c-.11-.06-.44,0-.57,0Z"/>
      <path id="path15170" class="cls-8" d="M140.71,195.33c.16-.17-1.14,0-2.37,0-.75,0-.72,1.1-.59,1.61,.12,.48,1.85,.6,2.26,.5,.83-.22,.78-.67,1.19-1.24,.36-.5,.18-.46-.47-.87Z"/>
      <path id="path15162" class="cls-26" d="M142.61,195.99c-.26-.07-.86-.03-1.29,.08-.4,.1-.57,.27-.87,.34-.32,.08-.53,.41-.68,.57-.29,.29-.35,.13,.53,.45,.41,.15,.66,.32,.87,.38,.33,.08,.55,0,1.02,0,.36,0,.84-.04,1.06-.15,.45-.22,.45-.37,.45-.91s-.15-.57-.53-.76c-.11-.06-.44,0-.57,0Z"/>
      <path id="path15164" class="cls-26" d="M142.53,194.17c-.26-.07-.86-.03-1.29,.08-.4,.1-.57,.27-.87,.34-.32,.08-.53,.41-.68,.57-.29,.29-.35,.13,.53,.45,.41,.15,.66,.32,.87,.38,.33,.08,.55,0,1.02,0,.36,0,.84-.04,1.06-.15,.45-.22,.45-.37,.45-.91s-.15-.57-.53-.76c-.11-.06-.44,0-.57,0Z"/>
      <path id="path15168" class="cls-8" d="M141.54,205.3c.16-.17-1.14,0-2.37,0-.75,0-.72,1.1-.59,1.61,.12,.48,1.85,.6,2.26,.5,.83-.22,.78-.67,1.19-1.24,.36-.5,.18-.46-.47-.87Z"/>
      <path id="path15172" class="cls-8" d="M140.03,193.36c.16-.17-1.14,0-2.37,0-.75,0-.72,1.1-.59,1.61,.12,.48,1.85,.6,2.26,.5,.83-.22,.78-.67,1.19-1.24,.36-.5,.18-.46-.47-.87Z"/>
      <path id="path15174" class="cls-8" d="M134.04,198.9c.16-.17-1.14,0-2.37,0-.75,0-.72,1.1-.59,1.61,.12,.48,1.85,.6,2.26,.5,.83-.22,.78-.67,1.19-1.24,.36-.5,.18-.46-.47-.87Z"/>
      <path id="path15176" class="cls-8" d="M137.07,198.74c.16-.17-1.14,0-2.37,0-.75,0-.72,1.09-.59,1.61,.12,.48,1.85,.6,2.26,.49,.83-.22,.78-.67,1.19-1.24,.36-.5,.18-.46-.47-.87Z"/>
      <path id="path15178" class="cls-8" d="M138.66,196.92c.16-.17-1.14,0-2.37,0-.75,0-.72,1.1-.59,1.61,.12,.48,1.85,.6,2.26,.5,.83-.22,.78-.67,1.19-1.24,.36-.5,.18-.46-.47-.87Z"/>
      <path id="path15180" class="cls-8" d="M134.8,200.41c.16-.17-1.14,0-2.37,0-.75,0-.72,1.1-.59,1.61,.12,.48,1.85,.6,2.26,.5,.83-.22,.78-.67,1.19-1.24,.36-.5,.18-.46-.47-.87Z"/>
      <path id="path15182" class="cls-8" d="M131.31,205.34c.16-.17-1.14,0-2.37,0-.75,0-.72,1.09-.59,1.61,.12,.48,1.85,.6,2.26,.49,.83-.22,.78-.67,1.19-1.24,.36-.5,.18-.46-.47-.87Z"/>
      <path id="path15186" class="cls-26" d="M163.4,197.07c.21-.21-1.46,0-3.03,0-.96,0-.92,1.34-.76,1.97,.15,.59,2.37,.73,2.88,.61,1.07-.27,.99-.82,1.52-1.52,.46-.61,.22-.56-.61-1.06Z"/>
      <path id="path15188" class="cls-26" d="M130.96,199.88c-.26-.07-.86-.03-1.29,.08-.4,.1-.57,.27-.87,.34-.32,.08-.53,.41-.68,.57-.29,.29-.35,.13,.53,.45,.41,.15,.66,.32,.87,.38,.33,.08,.55,0,1.02,0,.36,0,.84-.04,1.06-.15,.45-.22,.45-.37,.45-.91s-.15-.57-.53-.76c-.11-.06-.44,0-.57,0Z"/>
      <path id="path15190" class="cls-26" d="M126.61,193.79c-.26-.07-.86-.03-1.29,.08-.4,.1-.57,.27-.87,.34-.32,.08-.53,.41-.68,.57-.29,.29-.35,.13,.53,.45,.41,.15,.66,.32,.87,.38,.33,.08,.55,0,1.02,0,.36,0,.84-.04,1.06-.15,.45-.22,.45-.37,.45-.91s-.15-.57-.53-.76c-.11-.06-.44,0-.57,0Z"/>
      <path id="path15192" class="cls-26" d="M143.39,209.31c-.26-.07-.86-.03-1.29,.08-.4,.1-.57,.27-.87,.34-.32,.08-.53,.41-.68,.57-.29,.29-.35,.13,.53,.45,.41,.15,.66,.32,.87,.38,.33,.08,.55,0,1.02,0,.36,0,.84-.04,1.06-.15,.45-.22,.45-.37,.45-.91s-.15-.57-.53-.76c-.11-.06-.44,0-.57,0Z"/>
      <path id="path15194" class="cls-26" d="M129.46,203.84c-.26-.07-.86-.03-1.29,.08-.4,.1-.57,.27-.87,.34-.32,.08-.53,.41-.68,.57-.29,.29-.35,.13,.53,.45,.41,.15,.66,.32,.87,.38,.33,.08,.55,0,1.02,0,.36,0,.84-.04,1.06-.15,.45-.22,.45-.37,.45-.91s-.15-.57-.53-.76c-.11-.06-.44,0-.57,0Z"/>
      <path id="path15196" class="cls-8" d="M144.9,207.58c.16-.17-1.14,0-2.37,0-.75,0-.72,1.09-.59,1.61,.12,.48,1.85,.6,2.26,.5,.83-.22,.78-.67,1.19-1.24,.36-.5,.18-.46-.47-.87Z"/>
      <path id="path15198" class="cls-8" d="M149.19,207.79c.16-.17-1.14,0-2.37,0-.75,0-.72,1.09-.59,1.61,.12,.48,1.85,.6,2.26,.49,.83-.22,.78-.67,1.19-1.24,.36-.5,.18-.46-.47-.87Z"/>
      <path id="path15200" class="cls-8" d="M149.3,205.65c.16-.17-1.14,0-2.37,0-.75,0-.72,1.1-.59,1.61,.12,.48,1.85,.6,2.26,.5,.83-.22,.78-.67,1.19-1.24,.36-.5,.18-.46-.47-.87Z"/>
      <path id="path15202" class="cls-8" d="M145.97,205.65c.16-.17-1.14,0-2.37,0-.75,0-.72,1.1-.59,1.61,.12,.48,1.85,.6,2.26,.5,.83-.22,.78-.67,1.19-1.24,.36-.5,.18-.46-.47-.87Z"/>
      <path id="path15204" class="cls-8" d="M148.97,189.89c.16-.17-1.14,0-2.37,0-.75,0-.72,1.09-.59,1.61,.12,.48,1.85,.6,2.26,.5,.83-.22,.78-.67,1.19-1.24,.36-.5,.18-.46-.47-.87Z"/>
      <path id="path15256" class="cls-8" d="M152.46,192.15c.16-.17-1.14,0-2.37,0-.75,0-.72,1.09-.59,1.61,.12,.48,1.85,.6,2.26,.49,.83-.22,.78-.67,1.19-1.24,.36-.5,.18-.46-.48-.87Z"/>
      <path id="path15206" class="cls-8" d="M151.44,190.97c.16-.17-1.14,0-2.37,0-.75,0-.72,1.09-.59,1.61,.12,.48,1.85,.6,2.26,.49,.83-.22,.78-.67,1.19-1.24,.36-.5,.18-.46-.47-.87Z"/>
      <path id="path15208" class="cls-8" d="M154.66,191.82c.16-.17-1.14,0-2.37,0-.75,0-.72,1.1-.59,1.61,.12,.48,1.85,.6,2.26,.5,.83-.22,.78-.67,1.19-1.24,.36-.5,.18-.46-.47-.87Z"/>
      <path id="path15210" class="cls-8" d="M139.33,191.07c.16-.17-1.14,0-2.37,0-.75,0-.72,1.09-.59,1.61,.12,.48,1.85,.6,2.26,.49,.83-.22,.78-.67,1.19-1.24,.36-.5,.18-.46-.47-.87Z"/>
      <path id="path15212" class="cls-8" d="M135.79,190.86c.16-.17-1.14,0-2.37,0-.75,0-.72,1.09-.59,1.61,.12,.48,1.85,.6,2.26,.49,.83-.22,.78-.67,1.19-1.24,.36-.5,.18-.46-.47-.87Z"/>
      <path id="path15214" class="cls-8" d="M156.26,207.47c.16-.17-1.14,0-2.37,0-.75,0-.72,1.1-.59,1.61,.12,.48,1.85,.6,2.26,.5,.83-.22,.78-.67,1.19-1.24,.36-.5,.18-.46-.47-.87Z"/>
      <path id="path15216" class="cls-26" d="M132.91,191.06c.21-.21-1.46,0-3.03,0-.96,0-.92,1.34-.76,1.97,.15,.59,2.37,.73,2.88,.61,1.07-.27,.99-.82,1.52-1.52,.46-.61,.22-.56-.61-1.06Z"/>
      <path id="path15220" class="cls-26" d="M131.19,197.7c.21-.21-1.46,0-3.03,0-.96,0-.91,1.34-.76,1.97,.15,.59,2.37,.73,2.88,.61,1.07-.27,.99-.82,1.52-1.52,.46-.61,.22-.56-.61-1.06Z"/>
      <path id="path15222" class="cls-26" d="M142.66,198.99c.21-.21-1.46,0-3.03,0-.96,0-.91,1.34-.76,1.97,.15,.59,2.37,.73,2.88,.61,1.07-.27,.99-.82,1.52-1.52,.46-.61,.22-.56-.61-1.06Z"/>
      <path id="path15224" class="cls-26" d="M149.41,200.17c.21-.21-1.46,0-3.03,0-.96,0-.92,1.34-.76,1.97,.15,.59,2.37,.73,2.88,.61,1.07-.27,.99-.82,1.52-1.52,.46-.61,.22-.56-.61-1.06Z"/>
      <path id="path15226" class="cls-26" d="M150.59,193.31c.21-.21-1.46,0-3.03,0-.96,0-.92,1.34-.76,1.97,.15,.59,2.37,.73,2.88,.61,1.07-.27,.99-.82,1.52-1.52,.46-.61,.22-.56-.61-1.06Z"/>
      <path id="path15228" class="cls-26" d="M153.91,193.95c.21-.21-1.46,0-3.03,0-.96,0-.92,1.34-.76,1.97,.15,.59,2.37,.73,2.88,.61,1.07-.27,.99-.82,1.52-1.52,.46-.61,.22-.56-.61-1.06Z"/>
      <path id="path15230" class="cls-49" d="M151.56,198.64c.21-.18-1.46,0-3.03,0-.96,0-.92,1.14-.76,1.68,.15,.5,2.37,.63,2.88,.52,1.07-.23,.99-.7,1.52-1.29,.46-.52,.22-.48-.61-.9Z"/>
      <path id="path15232" class="cls-26" d="M154.56,200.81c.21-.21-1.46,0-3.03,0-.96,0-.92,1.34-.76,1.97,.15,.59,2.37,.73,2.88,.61,1.07-.27,.99-.82,1.52-1.52,.46-.61,.22-.56-.61-1.06Z"/>
      <path id="path15234" class="cls-26" d="M147.35,191.62c.26-.07,.86-.03,1.29,.08,.4,.1,.57,.27,.87,.34,.32,.08,.53,.41,.68,.57,.29,.29,.35,.13-.53,.45-.41,.15-.66,.32-.87,.38-.33,.08-.55,0-1.02,0-.36,0-.84-.04-1.06-.15-.45-.22-.45-.37-.45-.91s.15-.57,.53-.76c.11-.06,.44,0,.57,0Z"/>
      <path id="path15236" class="cls-26" d="M147.67,195.16c.26-.07,.86-.03,1.29,.08,.4,.1,.57,.27,.87,.34,.32,.08,.53,.41,.68,.57,.29,.29,.35,.13-.53,.45-.41,.15-.66,.32-.87,.38-.33,.08-.55,0-1.02,0-.36,0-.84-.04-1.06-.15-.45-.22-.45-.37-.45-.91s.15-.57,.53-.76c.11-.06,.44,0,.57,0Z"/>
      <path id="path15238" class="cls-26" d="M162.88,199.55c.26-.07,.86-.03,1.29,.08,.4,.1,.57,.27,.87,.34,.32,.08,.53,.41,.68,.57,.29,.29,.35,.13-.53,.45-.41,.15-.66,.32-.87,.38-.33,.08-.55,0-1.02,0-.36,0-.84-.04-1.06-.15-.45-.22-.45-.37-.45-.91s.15-.57,.53-.76c.11-.06,.44,0,.57,0Z"/>
      <path id="path15240" class="cls-26" d="M160.68,200.08c.26-.07,.86-.03,1.29,.08,.4,.1,.57,.27,.87,.34,.32,.08,.53,.41,.68,.57,.29,.29,.35,.13-.53,.45-.41,.15-.66,.32-.87,.38-.33,.08-.55,0-1.02,0-.36,0-.84-.04-1.06-.15-.45-.22-.45-.37-.45-.91s.15-.57,.53-.76c.11-.06,.44,0,.57,0Z"/>
      <path id="path15242" class="cls-26" d="M160.53,205.61c.26-.07,.86-.03,1.29,.08,.4,.1,.57,.27,.87,.34,.32,.08,.53,.41,.68,.57,.29,.29,.35,.13-.53,.45-.41,.15-.66,.32-.87,.38-.33,.08-.55,0-1.02,0-.36,0-.84-.04-1.06-.15-.45-.22-.45-.37-.45-.91s.15-.57,.53-.76c.11-.06,.44,0,.57,0Z"/>
      <path id="path15244" class="cls-26" d="M161.59,204.25c.26-.07,.86-.03,1.29,.08,.4,.1,.57,.27,.87,.34,.32,.08,.53,.41,.68,.57,.29,.29,.35,.13-.53,.45-.41,.15-.66,.32-.87,.38-.33,.08-.55,0-1.02,0-.36,0-.84-.04-1.06-.15-.45-.22-.45-.37-.45-.91s.15-.57,.53-.76c.11-.06,.44,0,.57,0Z"/>
      <path id="path15246" class="cls-26" d="M162.65,201.14c.26-.07,.86-.03,1.29,.08,.4,.1,.57,.27,.87,.34,.32,.08,.53,.41,.68,.57,.29,.29,.35,.13-.53,.45-.41,.15-.66,.32-.87,.38-.33,.08-.55,0-1.02,0-.36,0-.84-.04-1.06-.15-.45-.22-.45-.37-.45-.91s.15-.57,.53-.76c.11-.06,.44,0,.57,0Z"/>
      <path id="path15248" class="cls-26" d="M160.53,202.58c.26-.07,.86-.03,1.29,.08,.4,.1,.57,.27,.87,.34,.32,.08,.53,.41,.68,.57,.29,.29,.35,.13-.53,.45-.41,.15-.66,.32-.87,.38-.33,.08-.55,0-1.02,0-.36,0-.84-.04-1.06-.15-.45-.22-.45-.37-.45-.91s.15-.57,.53-.76c.11-.06,.44,0,.57,0Z"/>
      <path id="path15250" class="cls-26" d="M157.27,206.52c.26-.07,.86-.03,1.29,.08,.4,.1,.57,.27,.87,.34,.32,.08,.53,.41,.68,.57,.29,.29,.35,.13-.53,.45-.41,.15-.66,.32-.87,.38-.33,.08-.55,0-1.02,0-.36,0-.84-.04-1.06-.15-.45-.22-.45-.37-.45-.91s.15-.57,.53-.76c.11-.06,.44,0,.57,0Z"/>
      <path id="path15252" class="cls-26" d="M161.74,193.71c.26-.07,.86-.03,1.29,.08,.4,.1,.57,.27,.87,.34,.32,.08,.53,.41,.68,.57,.29,.29,.35,.13-.53,.45-.41,.15-.66,.32-.87,.38-.33,.08-.55,0-1.02,0-.36,0-.84-.04-1.06-.15-.45-.22-.45-.37-.45-.91s.15-.57,.53-.76c.11-.05,.44,0,.57,0Z"/>
      <path id="path15254" class="cls-26" d="M152.8,199.32c.26-.07,.86-.03,1.29,.08,.4,.1,.57,.27,.87,.34,.32,.08,.53,.41,.68,.57,.29,.29,.35,.13-.53,.45-.41,.15-.66,.32-.87,.38-.33,.08-.55,0-1.02,0-.36,0-.84-.04-1.06-.15-.45-.22-.45-.37-.45-.91s.15-.57,.53-.76c.11-.06,.44,0,.57,0Z"/>
      <path id="path15258" class="cls-8" d="M156.78,196.55c.16-.17-1.14,0-2.37,0-.75,0-.72,1.09-.59,1.61,.12,.48,1.85,.6,2.26,.49,.83-.22,.78-.67,1.19-1.24,.36-.5,.18-.46-.47-.87Z"/>
      <path id="path15260" class="cls-8" d="M157.91,193.44c.16-.17-1.14,0-2.37,0-.75,0-.72,1.09-.59,1.61,.12,.48,1.85,.6,2.26,.5,.83-.22,.78-.67,1.19-1.24,.36-.5,.18-.46-.47-.87Z"/>
      <path id="path15262" class="cls-8" d="M160.49,195.33c.16-.17-1.14,0-2.37,0-.75,0-.72,1.1-.59,1.61,.12,.48,1.85,.6,2.26,.5,.83-.22,.78-.67,1.19-1.24,.36-.5,.18-.46-.47-.87Z"/>
      <path id="path15264" class="cls-8" d="M155.26,204.96c.16-.17-1.14,0-2.37,0-.75,0-.72,1.1-.59,1.61,.12,.48,1.85,.6,2.26,.5,.83-.22,.78-.67,1.19-1.24,.36-.5,.18-.46-.47-.87Z"/>
      <path id="path15266" class="cls-26" d="M155.68,200.61c.26-.07,.86-.03,1.29,.08,.4,.1,.57,.27,.87,.34,.32,.08,.53,.41,.68,.57,.29,.29,.35,.13-.53,.45-.41,.15-.66,.32-.87,.38-.33,.08-.55,0-1.02,0-.36,0-.84-.04-1.06-.15-.45-.22-.45-.37-.45-.91s.15-.57,.53-.76c.11-.06,.44,0,.57,0Z"/>
      <path id="path15268" class="cls-26" d="M152.65,197.73c.26-.07,.86-.03,1.29,.08,.4,.1,.57,.27,.87,.34,.32,.08,.53,.41,.68,.57,.29,.29,.35,.13-.53,.45-.41,.15-.66,.32-.87,.38-.33,.08-.55,0-1.02,0-.36,0-.84-.04-1.06-.15-.45-.22-.45-.37-.45-.91s.15-.57,.53-.76c.11-.06,.44,0,.57,0Z"/>
      <path id="path15270" class="cls-26" d="M154.7,195c.26-.07,.86-.03,1.29,.08,.4,.1,.57,.27,.87,.34,.32,.08,.53,.41,.68,.57,.29,.29,.35,.13-.53,.45-.41,.15-.66,.32-.87,.38-.33,.08-.55,0-1.02,0-.36,0-.84-.04-1.06-.15-.45-.22-.45-.37-.45-.91s.15-.57,.53-.76c.11-.06,.44,0,.57,0Z"/>
      <path id="path15272" class="cls-26" d="M156.21,198.18c.26-.07,.86-.03,1.29,.08,.4,.1,.57,.27,.87,.34,.32,.08,.53,.41,.68,.57,.29,.29,.35,.13-.53,.45-.41,.15-.66,.32-.87,.38-.33,.08-.55,0-1.02,0-.36,0-.84-.04-1.06-.15-.45-.22-.45-.37-.45-.91s.15-.57,.53-.76c.11-.06,.44,0,.57,0Z"/>
      <path id="path15274" class="cls-26" d="M156.14,192.12c.26-.07,.86-.03,1.29,.08,.4,.1,.57,.27,.87,.34,.32,.08,.53,.41,.68,.57,.29,.29,.35,.13-.53,.45-.41,.15-.66,.32-.87,.38-.33,.08-.55,0-1.02,0-.36,0-.84-.04-1.06-.15-.45-.22-.45-.37-.45-.91s.15-.57,.53-.76c.11-.06,.44,0,.57,0Z"/>
      <path id="path15276" class="cls-26" d="M159.39,192.5c.26-.07,.86-.03,1.29,.08,.4,.1,.57,.27,.87,.34,.32,.08,.53,.41,.68,.57,.29,.29,.35,.13-.53,.45-.41,.15-.66,.32-.87,.38-.33,.08-.55,0-1.02,0-.36,0-.84-.04-1.06-.15-.45-.22-.45-.37-.45-.91s.15-.57,.53-.76c.11-.06,.44,0,.57,0Z"/>
      <path id="path15278" class="cls-26" d="M126.11,199.98c-.23-.13-.83-.23-1.27-.23-.41,0-.62,.12-.93,.13-.32,0-.61,.28-.8,.39-.35,.22-.37,.05,.41,.57,.37,.24,.56,.47,.76,.57,.3,.16,.53,.13,.99,.24,.35,.09,.83,.16,1.07,.1,.49-.11,.53-.25,.66-.78,.12-.5,0-.58-.34-.86-.1-.08-.43-.1-.55-.13Z"/>
      <path id="path15280" class="cls-26" d="M128.54,191.87c-.24-.13-.83-.23-1.27-.23-.41,0-.62,.12-.93,.13-.32,0-.61,.28-.8,.39-.35,.22-.37,.05,.41,.57,.36,.24,.56,.47,.76,.57,.31,.16,.53,.13,.99,.24,.35,.09,.83,.16,1.07,.1,.49-.11,.53-.25,.66-.78,.12-.5,0-.58-.34-.86-.1-.08-.43-.1-.55-.13Z"/>
      <path id="path15282" class="cls-26" d="M128.69,201.8c-.24-.13-.83-.23-1.27-.23-.41,0-.62,.12-.93,.13-.33,0-.61,.28-.8,.39-.35,.22-.37,.05,.41,.57,.37,.24,.56,.47,.76,.57,.3,.16,.53,.13,.99,.24,.35,.09,.83,.16,1.07,.1,.49-.11,.53-.25,.66-.78,.12-.5,0-.58-.34-.86-.1-.08-.43-.1-.55-.13Z"/>
      <path id="path15284" class="cls-26" d="M132.33,201.65c-.24-.13-.83-.23-1.27-.23-.41,0-.62,.12-.93,.13-.32,0-.61,.28-.8,.39-.35,.22-.37,.05,.41,.57,.36,.24,.56,.47,.76,.57,.31,.16,.53,.13,.99,.24,.35,.08,.83,.16,1.07,.1,.49-.11,.53-.25,.66-.78,.12-.5,0-.58-.34-.86-.1-.08-.43-.1-.55-.13Z"/>
      <path id="path15286" class="cls-26" d="M133.09,203.69c-.24-.13-.83-.23-1.27-.23-.41,0-.62,.12-.93,.13-.32,0-.61,.28-.8,.39-.35,.22-.37,.05,.41,.57,.36,.24,.56,.47,.76,.57,.31,.16,.53,.13,.99,.24,.35,.08,.83,.16,1.07,.1,.49-.11,.53-.25,.66-.78,.12-.5,0-.58-.34-.86-.1-.08-.43-.1-.55-.13Z"/>
      <path id="path15288" class="cls-26" d="M131.95,195.05c-.23-.13-.83-.23-1.27-.23-.41,0-.62,.12-.93,.13-.32,0-.61,.28-.8,.39-.35,.22-.37,.05,.41,.57,.37,.24,.56,.47,.76,.57,.3,.16,.53,.13,.99,.24,.35,.08,.83,.16,1.07,.1,.49-.11,.53-.25,.66-.78,.12-.5,0-.58-.34-.86-.1-.08-.43-.1-.55-.13Z"/>
      <path id="path15290" class="cls-26" d="M132.71,193.31c-.23-.13-.83-.23-1.27-.23-.41,0-.62,.12-.93,.13-.32,0-.61,.28-.8,.39-.35,.22-.37,.05,.41,.57,.37,.24,.56,.47,.76,.57,.3,.16,.53,.13,.99,.24,.35,.09,.83,.16,1.07,.1,.49-.11,.53-.25,.66-.78,.12-.5,0-.58-.34-.86-.1-.08-.43-.1-.55-.13Z"/>
      <path id="path15292" class="cls-26" d="M126.49,197.48c-.24-.13-.83-.23-1.27-.23-.41,0-.62,.12-.93,.13-.32,0-.61,.28-.8,.39-.35,.22-.37,.05,.41,.57,.37,.24,.56,.47,.76,.57,.31,.16,.53,.13,.99,.24,.35,.09,.83,.16,1.07,.1,.49-.11,.53-.25,.66-.78,.12-.5,0-.58-.34-.86-.1-.08-.43-.1-.55-.13Z"/>
      <path id="path15294" class="cls-26" d="M127.48,199.15c-.24-.13-.83-.23-1.27-.23-.41,0-.62,.12-.93,.13-.32,0-.61,.28-.8,.39-.35,.22-.37,.05,.41,.57,.37,.24,.56,.47,.76,.57,.31,.16,.53,.13,.99,.24,.35,.08,.83,.16,1.07,.1,.49-.11,.53-.25,.66-.78,.12-.5,0-.58-.34-.86-.1-.08-.43-.1-.55-.13Z"/>
      <path id="path15296" class="cls-26" d="M144.26,204.4c-.27-.04-.86,.07-1.27,.23-.39,.15-.53,.33-.82,.45-.3,.12-.47,.47-.61,.65-.26,.33-.33,.17,.58,.39,.43,.1,.69,.24,.91,.27,.34,.04,.54-.07,1.02-.13,.36-.04,.83-.14,1.03-.28,.42-.28,.41-.42,.34-.96-.06-.51-.21-.54-.62-.69-.12-.04-.44,.05-.56,.07Z"/>
      <path id="path15298" class="cls-26" d="M143.55,203.16c-.24-.13-.83-.23-1.27-.23-.41,0-.62,.12-.93,.13-.32,0-.61,.28-.8,.39-.35,.22-.37,.05,.41,.57,.36,.24,.56,.47,.76,.57,.31,.16,.53,.13,.99,.24,.35,.08,.83,.16,1.07,.1,.49-.11,.53-.25,.66-.78,.12-.5,0-.58-.34-.86-.1-.08-.43-.1-.55-.13Z"/>
      <path id="path2063" class="cls-54" d="M143.29,177.26v3.87h-5.04v2.81h4.87v13.58s3.43,.06,3.43,.06l.17-13.64h4.91l-.04-2.81h-5.1s.06-3.87,.06-3.87h-3.26Z"/>
      <path id="path15300" class="cls-26" d="M136.35,193.08c-.24-.13-.83-.23-1.27-.23-.41,0-.62,.12-.93,.13-.32,0-.61,.28-.8,.39-.35,.22-.37,.05,.41,.57,.37,.24,.56,.47,.76,.57,.31,.16,.53,.13,.99,.24,.35,.08,.83,.16,1.07,.1,.49-.11,.53-.25,.66-.78,.12-.5,0-.58-.34-.86-.1-.08-.43-.1-.55-.13Z"/>
      <path id="path15302" class="cls-26" d="M126.65,202.56c-.24-.13-.83-.23-1.27-.23-.41,0-.62,.12-.93,.13-.32,0-.61,.28-.8,.39-.35,.22-.37,.05,.41,.57,.37,.24,.56,.47,.76,.57,.3,.16,.53,.13,.99,.24,.35,.09,.83,.16,1.07,.1,.49-.11,.53-.25,.66-.78,.12-.5,0-.58-.34-.86-.1-.08-.43-.1-.55-.13Z"/>
      <path id="path15304" class="cls-26" d="M138.86,207.15c-.27-.02-.85,.14-1.25,.33-.37,.18-.51,.38-.78,.51-.29,.14-.43,.51-.55,.69-.23,.35-.31,.2,.61,.34,.43,.06,.71,.19,.93,.19,.34,.01,.54-.11,1-.21,.36-.07,.82-.21,1.01-.36,.39-.31,.37-.45,.26-.98-.1-.51-.26-.52-.67-.64-.12-.03-.43,.09-.56,.12Z"/>
      <path id="path15306" class="cls-26" d="M141.2,208.32c-.24-.13-.83-.23-1.27-.23-.41,0-.62,.12-.93,.13-.32,0-.61,.28-.8,.39-.35,.22-.37,.05,.41,.57,.36,.24,.56,.47,.76,.57,.31,.16,.53,.13,.99,.24,.35,.08,.83,.16,1.07,.1,.49-.11,.53-.25,.66-.78,.12-.5,0-.58-.34-.86-.1-.08-.43-.1-.55-.13Z"/>
      <path id="path15308" class="cls-26" d="M141.88,201.42c-.24-.13-.83-.23-1.27-.23-.41,0-.62,.12-.93,.13-.32,0-.61,.28-.8,.39-.35,.22-.37,.05,.41,.57,.37,.24,.56,.47,.76,.57,.3,.16,.53,.13,.99,.24,.35,.09,.83,.16,1.07,.1,.49-.11,.53-.25,.66-.78,.12-.5,0-.58-.34-.86-.1-.08-.43-.1-.55-.13Z"/>
      <path id="path15310" class="cls-26" d="M137.86,200.06c-.24-.13-.83-.23-1.27-.23-.41,0-.62,.12-.93,.13-.32,0-.61,.28-.8,.39-.35,.22-.37,.05,.41,.57,.37,.24,.56,.47,.76,.57,.31,.16,.53,.13,.99,.24,.35,.09,.83,.16,1.07,.1,.49-.11,.53-.25,.66-.78,.12-.5,0-.58-.34-.86-.1-.08-.43-.1-.55-.13Z"/>
      <path id="path15312" class="cls-26" d="M147.99,203.83c.24,.11,.85,.17,1.28,.13,.41-.04,.61-.17,.91-.2,.32-.03,.59-.32,.76-.45,.34-.24,.36-.07-.45-.53-.38-.22-.6-.43-.8-.51-.32-.14-.54-.09-1.01-.16-.36-.06-.84-.09-1.07-.02-.48,.15-.51,.29-.59,.83-.08,.51,.05,.58,.4,.83,.1,.07,.44,.07,.56,.09Z"/>
      <path id="path15314" class="cls-26" d="M141.27,197.25c-.23-.13-.83-.23-1.27-.23-.41,0-.62,.12-.93,.13-.32,0-.61,.28-.8,.39-.35,.22-.37,.05,.41,.57,.36,.24,.56,.47,.76,.57,.31,.16,.53,.13,.99,.24,.35,.09,.83,.16,1.07,.1,.49-.11,.53-.25,.66-.78,.12-.5,0-.58-.34-.86-.1-.08-.43-.1-.55-.13Z"/>
      <path id="path15316" class="cls-26" d="M150.7,208.26c.24,.11,.85,.17,1.28,.13,.41-.04,.61-.17,.91-.2,.32-.03,.59-.32,.76-.45,.34-.24,.36-.07-.45-.53-.38-.22-.6-.43-.8-.51-.32-.14-.54-.09-1.01-.16-.36-.06-.84-.09-1.07-.02-.48,.15-.51,.29-.59,.83-.08,.51,.05,.58,.4,.83,.1,.07,.44,.07,.56,.09Z"/>
      <path id="path15318" class="cls-26" d="M154.41,204.69c.24,.11,.85,.17,1.28,.13,.41-.04,.61-.17,.91-.2,.32-.03,.59-.32,.76-.45,.34-.24,.36-.07-.45-.53-.38-.22-.6-.43-.8-.51-.32-.14-.54-.09-1.01-.16-.36-.06-.84-.09-1.07-.02-.48,.15-.51,.29-.59,.83-.08,.51,.05,.58,.4,.83,.1,.07,.44,.07,.56,.09Z"/>
      <path id="path15320" class="cls-26" d="M143.73,201.66c.24,.11,.85,.17,1.28,.13,.41-.04,.61-.17,.91-.2,.32-.03,.59-.32,.76-.45,.34-.24,.36-.07-.45-.53-.38-.22-.59-.43-.8-.51-.32-.14-.54-.09-1.01-.16-.36-.06-.84-.09-1.07-.02-.48,.15-.51,.29-.59,.83-.08,.51,.05,.58,.4,.83,.1,.07,.44,.07,.56,.09Z"/>
      <path id="path15322" class="cls-26" d="M145.77,200.6c.24,.11,.85,.17,1.28,.13,.41-.03,.61-.17,.91-.2,.32-.03,.59-.32,.76-.45,.34-.24,.36-.07-.45-.53-.38-.22-.6-.43-.8-.51-.32-.14-.54-.09-1.01-.16-.36-.06-.84-.09-1.07-.02-.48,.15-.51,.29-.59,.83-.08,.51,.05,.58,.4,.83,.1,.07,.44,.07,.56,.09Z"/>
      <path id="path17945" class="cls-26" d="M129.37,193.54c-.23-.13-.83-.23-1.27-.23-.41,0-.62,.12-.93,.13-.32,0-.61,.28-.8,.39-.35,.22-.37,.05,.41,.57,.36,.24,.56,.47,.76,.57,.31,.16,.53,.13,.99,.24,.35,.08,.83,.16,1.07,.1,.49-.11,.53-.25,.66-.78,.12-.5,0-.58-.34-.86-.1-.08-.43-.1-.55-.13Z"/>
      <path id="path17947" class="cls-26" d="M125.96,195.81c-.24-.13-.83-.23-1.27-.23-.41,0-.62,.12-.93,.13-.32,0-.61,.28-.8,.39-.35,.22-.37,.05,.41,.57,.37,.24,.56,.47,.76,.57,.31,.16,.53,.13,.99,.24,.35,.09,.83,.16,1.07,.1,.49-.11,.53-.25,.66-.78,.12-.5,0-.58-.34-.86-.1-.08-.43-.1-.55-.13Z"/>
      <path id="path17949" class="cls-26" d="M129.3,195.96c-.24-.13-.83-.23-1.27-.23-.41,0-.62,.12-.93,.13-.32,0-.61,.28-.8,.39-.35,.22-.37,.05,.41,.57,.36,.24,.56,.47,.76,.57,.31,.16,.53,.13,.99,.24,.35,.09,.83,.16,1.07,.1,.49-.11,.53-.25,.66-.78,.12-.5,0-.58-.34-.86-.1-.08-.43-.1-.55-.13Z"/>
      <path id="path17951" class="cls-26" d="M161.21,195.53c.26-.07,.86-.03,1.29,.08,.4,.1,.57,.27,.87,.34,.32,.08,.53,.41,.68,.57,.29,.29,.35,.13-.53,.45-.41,.15-.66,.32-.87,.38-.33,.08-.55,0-1.02,0-.36,0-.84-.04-1.06-.15-.45-.22-.45-.37-.45-.91s.15-.57,.53-.76c.11-.06,.44,0,.57,0Z"/>
      <path id="path15166" class="cls-26" d="M147.13,196.46c-1.01,.1-.8-.47-2.12,.38-.36,.23-.54,.96-.38,1.59,.15,.59,2.37,.73,2.88,.61,1.07-.27,.99-.82,1.52-1.52,.46-.61-.76-.71-1.89-1.06Z"/>
      <path id="path17955" class="cls-50" d="M146.87,242.9c-.63-.38-.61-1.43-.61-2.58,0-.72-.03-1.63-.15-2.12-.1-.39-.16-.32-.3-.61"/>
      <path id="path17957" class="cls-51" d="M142.93,242.45c-.19-.78,1.61-.65,1.97-1.36,.22-.45-.2-1.57-.3-1.97-.08-.31-.3-.4-.3-.91"/>
      <path id="path21452" class="cls-50" d="M143.76,223.73c-.63-.38-.61-1.43-.61-2.58,0-.72-.03-1.63-.15-2.12-.1-.39-.16-.32-.3-.61"/>
      <path id="path21454" class="cls-50" d="M130.61,241.59c.23-.7,1.25-.91,2.37-1.17,.71-.16,1.58-.4,2.03-.63,.36-.18,.27-.23,.52-.43"/>
      <path id="path21456" class="cls-50" d="M145.58,231.76c-.63-.38-.61-1.43-.61-2.58,0-.72-.03-1.63-.15-2.12-.1-.39-.16-.32-.3-.61"/>
      <path id="path21458" class="cls-50" d="M146.19,216.45c-.63-.38-.61-1.43-.61-2.58,0-.72-.03-1.63-.15-2.12-.1-.39-.16-.32-.3-.61"/>
      <path id="path22337" class="cls-29" d="M161.49,140.44c-2.39,1.86-7.76,6.03-10.33,6.11-2.55,.08-5.82-2.7-8.48-4.5-4.35,2.96-7.53,5.57-9.56,5.47-1.97-.09-5.65-3.35-8.06-5.15-2.88,2.06-6.97,6.7-8.94,6.46-2-.24-3.82-1.41-7.2-3.92l-1.81,1.4c.9,.54,6.13,4.62,9.04,4.48,3.15-.15,6.68-4.17,9.02-5.68,1.99,1.28,4.75,4.64,8.33,4.61,2.31-.02,6.38-3.29,9.13-5.37,1.69,1.05,6.87,4.56,8.68,4.53,3.09-.05,7.92-4.21,10.11-5.53,1.4,1.57,6.72,4.87,8.93,4.87,2.67,0,6.24-3.07,8.34-4.8,1.95,2.06,6.5,4.91,9.21,4.91,2.18,0,7.48-3.77,8.91-4.83,1.43,1.36,7.5,5.03,8.69,5.12,2.37,.17,7.7-3.33,9.49-4.6,1.61,1.49,6.89,5.46,9.33,5.47,2.46,.01,7.56-3.54,8.85-5,1.66,1.41,6.13,6.16,8.87,6.26,3.52,.14,8.95-4.84,10.12-5.44l-2.32-.49c-1.29,.67-4.61,3.97-7.69,4.02-1.92,.03-7.8-5.45-8.81-6.95-1.08,1.39-6.83,5.7-9.11,5.69-1.9,0-7.69-4.51-9.09-5.7-1.58,1.11-7.2,4.6-9.38,4.6-1.85,0-7.35-4.06-8.73-5.5-1.15,1.14-7.01,5.18-9.17,5.18-2.16,0-7.03-3.89-9.18-5.34-1.77,1.21-6.16,5.23-8.27,5.19-2.41-.04-7.53-4.23-8.95-5.57Z"/>
      <path id="path1545" class="cls-29" d="M250.59,122.27c-1.64-.06-1.09-.76-3.16,.06-2.35,1.23-2.76,3.77-2.82,4.9-.86,1.02-1.4,.6-1.44,4.41,.09,2.69,3.53,4.35,4.37,4.6,.05,2.86-.7,8.88,2.8,9.31,2.87,.35,3.4-1.57,3.62-3.74,.04-2.33,.08-7.53-.36-10.83-.72-5.35-2.18-8.66-3.02-8.7Z"/>
      <path id="path5406" class="cls-29" d="M262.39,103.57c-1.4,1.06-7.53,6.4-8.14,8.69-.51,1.91-.63,3.77-.9,6.11-.19,1.69,.35,5.72,.34,6.86-.01,1.14,.17,2.61,.18,3.86,.01,1.25-.37,2.71-1.44,3.37-1.12,.69-3.22,.47-4.08-.23-.9-.73-1.4-2.33-1.21-3.43,.28-1.66,1.26-2.85,1.6-3.96,.35-1.16,1.38-5.13,1.26-6.74-.07-1.04-.84-2.62-1.79-4.16-1.3-2.1-3.1-2.86-5.21-5.48,3.2-.4,4.55-.04,6.85-.6,2.65-1.29,11.6-5,12.52-4.28Z"/>
      <path id="path1543" class="cls-29" d="M107.23,122.84c1.64-.06,1.09-.76,3.16,.06,2.35,1.23,2.76,3.77,2.82,4.9,.86,1.02,1.4,.6,1.44,4.41-.09,2.69-3.53,4.35-4.37,4.6-.05,2.87,.7,8.88-2.8,9.31-2.87,.35-3.4-1.57-3.62-3.74-.04-2.33-.08-7.53,.36-10.83,.72-5.35,2.18-8.66,3.02-8.7Z"/>
      <path id="path5410" class="cls-29" d="M96.1,103.74c1.4,1.06,6.78,6.4,7.39,8.69,.51,1.91,.63,3.77,.9,6.11,.19,1.69-.36,5.72-.34,6.86s-.17,2.61-.18,3.86c-.01,1.25,.37,3.25,1.44,3.91,1.12,.69,3.33,.15,4.19-.55,.9-.73,1.29-2.54,1.1-3.65-.28-1.66-1.26-2.85-1.6-3.96-.35-1.16-1.38-5.13-1.26-6.74,.07-1.04,.81-2.65,1.79-4.16,1.08-1.68,3.53-2.11,5.63-4.73-3.2-.4-7.45-2.18-9.64-4.03-2.32-1.5-8.49-2.32-9.41-1.6Z"/>
      <path id="path1637" class="cls-29" d="M111.85,170.14c-1.95-.01-2.9,3.11,.33,3,1.6-.06,32.9-2.61,67.26-2.59,34.93,.02,64.33,2.33,66.43,2.34,2.2,0,2.47-3.3,.58-3.38-1.79-.07-31.91-1.97-67.29-1.96-34.68,0-66.33,2.6-67.3,2.59Z"/>
      <path id="path1639" class="cls-28" d="M246.39,162.31c-.24,1.24-.2,3.97,.96,4.29,1.18,.32,3.14-2.14,3.48-3.75,.34-1.56,.01-4.26-1.23-4.5-1.25-.24-2.98,2.73-3.22,3.97Z"/>
      <path id="path3387" class="cls-28" d="M111.87,162.47c.17,1.25,0,3.97-1.19,4.23-1.2,.26-3.02-2.3-3.28-3.93-.25-1.58,.21-4.26,1.47-4.43,1.26-.18,2.83,2.88,3,4.13Z"/>
      <path id="path2096" class="cls-54" d="M186.72,249.32l7.4,.04,.02,99.97c-2.16,.39-4.85,1.08-7.42,1.26v-101.28Z"/>
      <path id="path1645" class="cls-11" d="M126.07,279.57c-.15,.21,.12,1.36,.61,1.84,.41,.4,.73,.85,1.75,.58,0,0,.17-.39-.49-2.52l-1.87,.1Z"/>
      <path id="path1647" class="cls-23" d="M133.74,276.18c.45-.12,1.63-.25,2.6-.57,1.04-.34,1.67-.92,2.06-1.28"/>
      <path id="path2522" class="cls-21" d="M135.99,274.69s-.02,.04-.03,.06c.06-.12,.04-.08-.03,.11-.09,.18-.1,.29-.19,.46-.1,.17-.19,.29-.29,.45"/>
      <path id="path2524" class="cls-21" d="M136.32,274.69s-.02,.04-.03,.06c.06-.12,.04-.08-.03,.11-.09,.18-.1,.29-.19,.46-.1,.17-.19,.29-.29,.45"/>
      <path id="path2526" class="cls-21" d="M136.81,274.44s-.02,.04-.03,.06c.06-.12,.04-.08-.03,.11-.09,.18-.1,.29-.19,.47-.1,.17-.19,.29-.29,.45"/>
      <path id="path2528" class="cls-21" d="M129.59,280.8s-.02,.04-.03,.06c.06-.12,.04-.08-.03,.11-.09,.18-.1,.29-.19,.46-.1,.17-.19,.29-.29,.45"/>
      <path id="path2530" class="cls-21" d="M130.04,280.72s-.02,.04-.03,.06c.06-.12,.04-.08-.03,.11-.09,.18-.1,.29-.19,.47-.1,.17-.19,.29-.29,.45"/>
      <path id="path2532" class="cls-15" d="M127.38,281.15c-.19-.13-.43-.68-.46-.84l-.03-.17"/>
      <path id="path2525" class="cls-12" d="M164.61,275.66c-.13,.2,.74-.29,.96-.2,.32,.12,.52,.84,.64,.4,.2-.7,1.37-.81,1.37-1.36,0-.33,2.05-2.11,1.93-2.41-.05-.12,.77-4.76,.34-4.54-.22,.12-.3-.2-.63-.17-.34,.04-.6,2.75-1.45,4.69-.56,1.27-1.7,1.91-2.13,2.28-.6,.53-.88,1.07-1.04,1.3Z"/>
      <path id="path4276" class="cls-21" d="M163.15,279.15s-.02,.04-.04,.06c.06-.12,.04-.08-.03,.11-.09,.18-.1,.29-.19,.47-.1,.17-.19,.29-.29,.45"/>
      <path id="path4278" class="cls-21" d="M162.77,279.19s-.02,.04-.03,.06c.06-.12,.04-.08-.03,.11-.09,.18-.1,.29-.19,.46-.1,.17-.19,.29-.29,.45"/>
      <path id="path4280" class="cls-21" d="M163.52,279.15s-.02,.04-.04,.06c.06-.12,.04-.08-.03,.11-.09,.18-.1,.29-.19,.47-.1,.17-.19,.29-.29,.45"/>
      <path id="path4282" class="cls-21" d="M154.42,276.83c.09-.17,.19-.3,.28-.46"/>
      <path id="path4284" class="cls-21" d="M154.61,277.16c.09-.17,.31-.5,.4-.66"/>
      <path id="path4286" class="cls-21" d="M154.98,277.11c.09-.17,.19-.3,.28-.46"/>
      <path id="path4288" class="cls-21" d="M166.7,277.23s-.02-.04-.04-.06c.07,.11,.05,.08-.08-.08-.12-.17-.21-.23-.31-.4-.1-.17-.16-.31-.26-.47"/>
      <path id="path4290" class="cls-21" d="M167.29,275.63s-.05,.01-.07,.02c.13-.03,.09-.03-.1,.05-.19,.06-.28,.13-.47,.18-.19,.05-.34,.06-.53,.11"/>
      <path id="path4292" class="cls-21" d="M170.21,267.39s.01,.05,.02,.07c-.03-.13-.03-.09,.06,.1,.06,.19,.13,.28,.18,.47,.05,.19,.06,.34,.11,.53"/>
      <path id="path4294" class="cls-21" d="M169.57,267.58s0,.05-.01,.07c.03-.13,.01-.09,0,.11-.03,.2,0,.31-.04,.5-.04,.19-.09,.34-.13,.52"/>
      <path id="path4296" class="cls-9" d="M172.25,267.89c-.2-.34-.89-.99-1.35-1.08l-.46-.09"/>
      <path id="path4300" class="cls-17" d="M172.98,269.67c.06,.73-.93,2.56-1.1,2.74l-.17,.18"/>
      <path id="path5181" class="cls-55" d="M161.62,262.88c.19,0,.39,0,.58,0,.85,0-.2,.01,0-.04,.21-.03,.37-.15,.56-.28l.75-.41c-.19,.19-.44,.83-.66,.84-.43,.12-.87,.04-1.3,.05-.2,0-.4,0-.59,0l.66-.17Z"/>
      <path id="path1696" class="cls-21" d="M134.98,318.65s-.11,.23-.16,.34c-.07,.12-.13,.24-.2,.35-.08,.11-.17,.22-.26,.29-.01,.03-.03,.05-.04,.08"/>
      <path id="path1698" class="cls-21" d="M135.35,318.59s-.11,.23-.16,.34c-.07,.12-.13,.24-.2,.35-.08,.11-.17,.22-.26,.29-.01,.03-.03,.05-.04,.08"/>
      <path id="path1700" class="cls-21" d="M137.03,309.94c0,.05,.02,.25,.04,.37,0,.13,0,.27,0,.4-.01,.14-.04,.28-.08,.38,0,.03,0,.06,0,.09"/>
      <path id="path1704" class="cls-21" d="M137.29,309.99s.11,.23,.17,.33c.05,.12,.11,.25,.16,.37,.04,.13,.07,.27,.07,.38,.01,.03,.02,.05,.03,.08"/>
      <path id="path1706" class="cls-21" d="M133.54,316.89c-.05,0-.25,.02-.37,.03-.13,0-.27,0-.4,0-.13-.01-.28-.04-.38-.08-.03,0-.06,0-.09,0"/>
      <path id="path1708" class="cls-21" d="M133.85,317.75c-.05,0-.83,.15-.95,.18-.13,.02-.27,.03-.4,.05-.14,0-.28-.01-.38-.04-.03,0-.06,0-.09,.01"/>
      <path id="path1710" class="cls-1" d="M132.19,320.01c-.13-.16,0-.68,.01-.83,.02-.14,.04-.19,.04-.19"/>
      <path id="path1712" class="cls-1" d="M132.58,319.94c-.13-.16,0-.68,.01-.83,.02-.14,.04-.18,.04-.18"/>
      <g id="g3435">
        <path id="path3437" class="cls-44" d="M169.92,322.72c-.57-.4-.86-.84-1.36-.63-.5,.21-.52,.43-.51,.43,0,0,0-1.29-.36-2.18,.28-.61,.94-.99,1.76-.98,.38-.07,1.16,3.88,.47,3.37Z"/>
        <path id="path3439" class="cls-44" d="M164.71,330.35c-.87,.36-1.08-.35-2.08-.55,.35-.81,2.57-3.75,2.81-4.1,.44-.78,.52-2.58,.64-2.97,.54-1.84,1.04-1.15,1.72-1.26,.56-.34,.56-.71,.79-.39,.23,.31,.93,3.18,.88,3.53-.15,1.09-.98,1.89-1.78,2.84-.83,.98-2.11,2.55-2.98,2.92Z"/>
      </g>
      <path id="path1669" class="cls-11" d="M167.63,321.36c.06-.04,.39-.44,.17-.9-.26-.31,.97,.19,.76,.6-.3,.3-.95,.38-.93,.3h0Z"/>
      <path id="path1677" class="cls-11" d="M165.19,336.48c-.05-.24,.2-.68,.14-1.13-.76-.45-1.33,.52-1.22,.58,0,0,.93,.53,1.08,.55Z"/>
      <path id="path1683" class="cls-11" d="M173.68,325.77c-.64,.27-.76,.85-.84,1.39-.08,.54-.2,1.12-.82,1.26-.75-.26-1.78-1.71-1.78-1.71-.01-.2,.54-.71,.47-1.27-.09-.81,.48-1.09,1.04-1.39,.56-.3,2.73,1.4,1.93,1.71Z"/>
      <g id="g1695">
        <path id="path1697" class="cls-46" d="M176.22,321.55c-.03,.61-.49,1.71-1.29,2.03-.64,.27-.6,1.87-.68,2.41-.08,.54-2.2-1.24-2.28-1.8-.09-.81,.36-2.02,.92-2.32,.56-.3,1.19-.66,1.34-1.02,.14-.36-.17-.77,.06-1.02,0,0,1.96,1.12,1.92,1.73Z"/>
      </g>
      <path id="path1681" class="cls-11" d="M173.32,319.75c-.27-.31,1.07-.4,1.08,.53-.04,.77-.98,1.38-.93,1.23,.15-.43-.04-1.51-.15-1.76Z"/>
      <path id="path1685" class="cls-11" d="M170.68,325.91c0,.75-.53,.93-.7,.45-.25-.73-.35-.61-.05-.69,.2-.05,.58,.16,.75,.25Z"/>
      <path id="path4312" class="cls-23" d="M179.07,249.16l-.03,102.06"/>
      <path id="path2139" class="cls-54" d="M141.21,249.24l-.08,34.96-29.43-.04c.1,3.03-.02,5.18,.38,8.49l29.05-.04-.04,49.26c2.8,1.69,5.53,3.15,8.69,4.69v-53.95l29.14-.04v-8.41l-29.14,.04-.04-34.96h-8.53Z"/>
      <path id="path5260" class="cls-54" d="M201.53,249.36h7.42v94.58c-1.99,1.02-4.91,2.39-7.4,3.21l-.02-97.79Z"/>
      <path id="path5262" class="cls-54" d="M216.37,249.4h7.42v83.84c-1.38,1.35-4.88,4.55-7.39,6.2l-.03-90.04Z"/>
      <path id="path5264" class="cls-54" d="M231.2,249.44h7.42v62.94c-.9,2.26-5.28,9.86-7.42,12.29v-75.22h0Z"/>
      <path id="path5266" class="cls-21" d="M170.46,312.24s.22,.13,.33,.19c.11,.08,.22,.15,.33,.23,.1,.09,.2,.2,.26,.28,.02,.02,.05,.03,.07,.05"/>
      <path id="path5268" class="cls-21" d="M170.52,314.16s-.12-.22-.18-.33c-.05-.12-.11-.25-.16-.37-.04-.13-.07-.27-.07-.38-.01-.03-.02-.05-.04-.08"/>
      <path id="path5270" class="cls-21" d="M154.98,336.37s-.23,.09-.35,.15c-.13,.04-.26,.08-.38,.13-.13,.03-.28,.04-.38,.04-.03,0-.06,.02-.08,.03"/>
      <path id="path5272" class="cls-21" d="M155.05,336.74s-.11,.09-.22,.15c-.13,.04-.26,.09-.38,.13-.13,.03-.28,.04-.38,.04-.03,0-.05,.02-.08,.03"/>
      <path id="path5274" class="cls-21" d="M162.15,330.95s-.86,.49-.97,.55c-.13,.04-.26,.09-.38,.13-.13,.03-.28,.04-.38,.04-.03,0-.45-.08-.48-.07"/>
      <path id="path5276" class="cls-21" d="M167.63,339.25s-.85-.52-.95-.59c-.1-.09-.2-.18-.3-.27-.09-.1-.17-.22-.22-.32-.02-.02-.15-.44-.17-.46"/>
      <path id="path5278" class="cls-21" d="M166.53,323.96c-.01,.05-.03,.99-.04,1.11-.03,.13-.06,.26-.09,.39-.05,.13-.11,.26-.17,.35,0,.03-.31,.34-.32,.37"/>
      <path id="path5280" class="cls-34" d="M168.68,320.27s.22-.11,.33-.18c.12-.05,.25-.11,.37-.16,.13-.04,.27-.07,.38-.07,.03-.01,.05-.02,.08-.04"/>
      <path id="path5284" class="cls-21" d="M168.68,320.72s.22-.12,.33-.18c.12-.05,.25-.11,.37-.16,.13-.04,.27-.07,.38-.07,.03-.01,.05-.02,.08-.04"/>
    </g>
  </g>
</svg>