<?xml version="1.0" encoding="UTF-8"?>
<svg id="Layer_1" data-name="Layer 1" xmlns="http://www.w3.org/2000/svg" viewBox="0 0 600 450">
  <defs>
    <style>
      .cls-1 {
        fill: #f7d419;
      }

      .cls-2 {
        fill: #4169b2;
      }
    </style>
  </defs>
  <rect class="cls-2" x="-8" y="-4.33" width="616" height="458.67"/>
  <g>
    <path class="cls-1" d="M120.02,233.59l1.62,3.64-11.4,20.5-3.44,3.91h11.2l-1.82-4.38,2.16-3.91,7.76,6.88,7.69-6.88,2.16,3.91-1.82,4.38h11.2l-3.37-3.91-11.47-20.5,1.69-3.64h-12.14Zm6.07,5.93l4.86,8.76-4.86,4.38-4.92-4.38,4.92-8.76Z"/>
    <path class="cls-1" d="M164.37,222.76c1.96,3.58,4.72,6.61,8.02,8.79l-1.29,121.39c-1.49,.28-11.42,10.4-11.85,12.1-.18,.84-.31,1.72-.31,2.56,0,5.68,4.41,10.28,9.89,10.28,2.85,0,5.61-1.3,7.48-3.58,2.49,2.33,5.7,3.58,9,3.58s6.55-1.26,9-3.58c1.87,2.28,4.63,3.58,7.48,3.58,5.48,0,9.89-4.61,9.89-10.28,0-.84-.09-1.72-.31-2.51-.25-1.05-10.69-11.93-11.85-12.14l-1.29-121.39c3.34-2.23,6.1-5.26,8.06-8.79l67.61-.56c.49,4.16,8.9,15.35,13.05,15.35,4.41,0,7.97-3.77,7.97-8.33,0-2.7-1.2-5.16-3.3-6.75-1.83-1.4-.89-4.42,1.38-4.42,.8,0,1.56,.42,2,1.16,.71,.19,1.43,.28,2.14,.28,3.21,0,6.06-1.95,7.35-4.98,.53-1.35,.85-2.79,.85-4.23s-.31-2.84-.85-4.19c-1.29-3.02-4.14-5.02-7.35-5.02-.71,0-1.43,.14-2.14,.33-1.25,2.09-4.32,1.16-4.32-1.3,0-.74,.36-1.49,.94-1.95,2.09-1.58,3.3-4.09,3.3-6.75,0-4.61-3.56-8.33-7.97-8.33-4.15,0-12.56,11.2-13.05,15.35l-67.61-.58c-2.13-3.91-5.21-7.15-8.95-9.38l-.63-83.57c3.78-.49,14.65-9.69,14.65-13.63,0-4.56-3.56-8.33-7.97-8.33-2.54,0-4.94,1.3-6.41,3.44-1.34,1.91-4.23,.93-4.23-1.44,0-.84,.4-1.63,1.07-2.05,.22-.74,.31-1.54,.31-2.28,0-3.3-1.87-6.33-4.77-7.63-1.29-.6-2.67-.88-4.05-.88s-2.76,.28-4.01,.88c-2.94,1.3-4.81,4.33-4.81,7.63,0,.79,.09,1.54,.31,2.28,.67,.42,1.11,1.21,1.11,2.05,0,1.35-1.07,2.47-2.36,2.47-.76,0-1.43-.37-1.87-1.02-1.51-2.14-3.92-3.44-6.46-3.44-4.41,0-7.97,3.77-7.97,8.33s10.72,13.19,14.7,13.63l-.67,83.56c-3.7,2.23-6.77,5.44-8.91,9.35l-67.66,.61c-.46-3.92-9.3-15.35-13.05-15.35-4.41,0-7.97,3.72-7.97,8.33,0,2.65,1.25,5.16,3.3,6.75,.58,.47,.94,1.21,.94,1.95,0,1.35-1.02,2.47-2.32,2.47-.8,0-1.56-.42-1.96-1.16-.71-.19-1.47-.33-2.18-.33-3.16,0-6.06,2-7.3,5.02-.58,1.3-.85,2.75-.85,4.19s.27,2.88,.85,4.23c1.25,3.02,4.14,4.98,7.3,4.98,.71,0,1.47-.09,2.18-.33,1.25-2.05,4.28-1.12,4.28,1.3,0,.79-.36,1.54-.94,2-2.05,1.54-3.3,4.05-3.3,6.75,0,4.56,3.56,8.33,7.97,8.33,3.73,0,12.59-11.46,13.05-15.35l67.66,.56h0s0,.02,0,.02Z"/>
    <path class="cls-1" d="M123.89,222.45l4.36,.05v11.07h-4.36v-11.12Z"/>
    <path class="cls-1" d="M239.73,235.61c1.2,.93,1.96,2.33,2.09,3.91,.09,.6,.13,1.21,.13,1.86,0,2.93-.71,5.82-2.05,8.38-2.05,4.05-7.62,3.77-9.31-.42-.71-1.81-1.07-3.77-1.02-5.72,.18-4.28,2.54-8.19,6.24-10.05h-9.98c.53,.51,.8,1.16,.8,1.91,0,.23,0,.46-.09,.7-.8,2.98-1.2,6.09-1.2,9.21,0,1.54,.09,3.02,.31,4.56,.62,5.12,4.85,8.98,9.84,8.98,3.92,0,7.48-2.42,9.04-6.14,1.6,3.77,5.17,6.14,9.09,6.14,4.99,0,9.22-3.86,9.84-9.03,.18-1.54,.31-3.02,.31-4.51,0-3.12-.45-6.19-1.25-9.21-.22-.93,.04-1.95,.71-2.61h-9.94c3.7,1.91,6.06,5.77,6.19,10.05v.47c0,1.77-.31,3.58-.98,5.26-1.69,4.19-7.26,4.47-9.31,.47-1.65-3.16-2.32-6.75-1.96-10.33,.18-1.54,.94-2.93,2.14-3.86h-9.67s.01,0,.01,0Z"/>
    <path class="cls-1" d="M242.37,222.49l4.41-.05v13.16h-4.41v-13.11Z"/>
  </g>
</svg>