<?xml version="1.0" encoding="UTF-8"?>
<svg id="Layer_1" data-name="Layer 1" xmlns="http://www.w3.org/2000/svg" viewBox="0 0 600 450">
  <defs>
    <style>
      .cls-1 {
        stroke-width: .22px;
      }

      .cls-1, .cls-2, .cls-3, .cls-4, .cls-5, .cls-6, .cls-7, .cls-8, .cls-9, .cls-10 {
        stroke: #010101;
      }

      .cls-1, .cls-2, .cls-3, .cls-5, .cls-7, .cls-8, .cls-9, .cls-10 {
        fill: none;
      }

      .cls-2 {
        stroke-width: .44px;
      }

      .cls-3, .cls-6, .cls-10 {
        stroke-width: .43px;
      }

      .cls-11 {
        fill: #010101;
      }

      .cls-12 {
        fill: #ecd31f;
      }

      .cls-13 {
        fill: #fff;
      }

      .cls-14, .cls-4 {
        fill: #ffcd05;
      }

      .cls-15 {
        fill: #c09b59;
      }

      .cls-16 {
        fill: #be202a;
      }

      .cls-17 {
        fill: #c0a151;
      }

      .cls-18 {
        fill: #d92e27;
      }

      .cls-19, .cls-6 {
        fill: #c88342;
      }

      .cls-20 {
        fill: #2077bd;
      }

      .cls-21 {
        fill: #1a4ba0;
      }

      .cls-22 {
        fill: #293592;
      }

      .cls-23 {
        fill: #778692;
      }

      .cls-24 {
        fill: #4d86c6;
      }

      .cls-4, .cls-9 {
        stroke-width: .42px;
      }

      .cls-5 {
        stroke-width: .21px;
      }

      .cls-6, .cls-7, .cls-8, .cls-9, .cls-10 {
        stroke-linecap: round;
        stroke-linejoin: round;
      }

      .cls-7 {
        stroke-width: .66px;
      }

      .cls-8 {
        stroke-width: .44px;
      }
    </style>
  </defs>
  <g>
    <path class="cls-14" d="M400,0h200V450h-200V0Z"/>
    <path class="cls-20" d="M200,0h200V450H200V0Z"/>
    <path class="cls-13" d="M0,0H200V450H0V0Z"/>
  </g>
  <g>
    <g>
      <path class="cls-13" d="M312.15,190.94c.06-.07,.11-.15,.16-.22l.05,.17c-.07,.02-.15,.02-.22,.05h0Zm-19.5-5.48c-.04,.08-.09,.15-.13,.22,0,0-.01,0-.02,0,.05-.07,.09-.15,.16-.21h0Zm-4.93,5.42l.06-.18s.03,0,.05,0c.06,.08,.11,.17,.19,.25-.09-.04-.19-.04-.29-.07h0Zm-35.49,75.45s0,.02,0,0h0Zm23.33-73.96h0s0,.04,0,.06c0-.02,0-.04,0-.06Zm49.04,0h0s0,.04-.01,.06c0-.02,0-.05,0-.06h0Zm47.76,69.48c1.78-1.95,2.67-4.51,2.67-7.07-.42-3.11-1.48-8.05-5.13-8.18-.9-.03-2.47,1.12-2.47,1.12-1.46,1.07-1.28,3.62,0,5.03,1,1.1,1,2.95,0,4.05-.45,.5-1.05,.77-1.68,.77-.2,0-.69-.22-.84-.86-.86-3.84-2.97-7.12-5.96-9.3-5.75-4.31-9.19-11.45-9.19-19.1l.08-11.92c0-5.84-3.62-10.93-8.81-12.4-.08-.02-2.43-.82-3.68-.75-.97,.05-1.89,.51-2.78,.9-.03,.01-.06,.05-.07,.04-.92-.33-2.2-.83-2.2-.83l-1.3-.35c-.3-.06-.78-.17-.78-.17-1.01-.16-1.97,.25-2.62,1.13-.58,.92-.86,2.14-.86,3.7,0,.67,.14,1.52,.24,2.31-.46-.13-.89-.36-1.36-.36-2.36,0-4.35,1.63-5.09,3.89h-2.8c1.61-3.27,3.11-6.23,3.42-6.7,.08,.04,1.72-.06,1.72-.06,.7-.04,1.31-.47,1.62-1.11,.14-.28,.21-.59,.21-.89,0-.2-.11-.37-.16-.56,.9-.73,1.57-1.73,1.57-3.01,0,0-.12-.29-.15-.39,.84-.75,1.46-1.74,1.46-2.91,0-.46-.08-.93-.24-1.39-.11-.32-.36-.53-.54-.8,.16-.45,.27-.92,.27-1.39,0-.96-.33-1.93-.99-2.69-.38-.44-.85-.75-1.35-.96-.25-1.17-.85-2.25-1.95-2.79-.59-.29-1.21-.37-1.83-.32-.64-.93-1.54-1.64-2.72-1.71-.51-.03-.98,.17-1.45,.35-.26-.32-.48-.58-.48-.58l-2.91-.21c-.4,.14-.69,.47-1.01,.73-.51-.29-.98-.55-.98-.55,0,0-.25,.08-.31,.1-.67-1.15-1.66-2.05-3.03-2.05-.49,0-.91,.26-1.34,.45-.63-.48-1.34-.85-2.17-.85-.11,0-.18,.1-.28,.11v-1.83c0-.88-.61-1.49-1.37-1.76-.25-.82-.86-1.48-1.74-1.48h-1.85c-.87,0-1.49,.66-1.74,1.48-.76,.28-1.37,.89-1.37,1.76v1.82c-.1,0-.17-.11-.28-.11-.83,0-1.55,.37-2.17,.85-.44-.19-.85-.45-1.35-.45-1.37,0-2.36,.9-3.03,2.05-.06-.02-.32-.1-.32-.1,0,0-.52,.29-.97,.55-.32-.27-.6-.59-1.01-.73l-2.89,.2s-.3,.36-.48,.58c-.47-.18-.93-.38-1.45-.35-1.18,.07-2.07,.79-2.72,1.72-.63-.05-1.25,.02-1.85,.32-1.09,.54-1.69,1.62-1.94,2.79-.51,.21-.97,.53-1.35,.96-.66,.76-.99,1.73-.99,2.69,0,.47,.1,.94,.26,1.39-.18,.27-.43,.49-.54,.8-.16,.45-.24,.93-.24,1.39,0,1.16,.61,2.15,1.45,2.91-.04,.1-.15,.4-.15,.4,0,1.26,.65,2.26,1.53,2.99-.06,.19-.17,.38-.17,.58,0,.3,.07,.61,.2,.89,.31,.65,.93,1.07,1.63,1.12l1.65,.11c.38,.44,1.91,3.39,3.54,6.66h-2.9c-.75-2.25-2.74-3.88-5.09-3.88-.48,0-.91,.23-1.37,.36,.11-.89,.26-1.87,.26-2.5,0-2.12-.49-2.93-.7-3.26-.84-1.13-1.8-1.54-2.81-1.38,0,0-.49,.11-.79,.17l-1.27,.34s-1.28,.5-2.2,.83c-.01,0-.04-.03-.07-.04-.89-.39-1.81-.84-2.78-.9-1.16-.07-3.43,.68-3.43,.68-5.44,1.53-9.06,6.63-9.06,12.46,0,.01,.04,6.6,.04,6.6v1.64s.03,3.71,.03,3.71c0,7.64-3.43,14.77-9.19,19.06-2.99,2.19-5.1,5.47-5.96,9.26-.16,.71-.65,.92-.85,.92-.63,0-1.23-.27-1.68-.77-.5-.54-.75-1.29-.75-2.02s.25-1.48,.75-2.03c.64-.71,.96-1.62,.96-2.52s-.32-1.82-.97-2.52c0,0-1.56-1.1-2.46-1.1-.9,0-2.46,1.11-2.46,1.11-3.83,3.62-3.55,10.24,0,14.14,2.51,2.75,6.18,3.55,9.41,2.45,0,.16,.07,1.04,.07,1.04,0,1.55-.87,2.94-2.16,3.46-.71,.29-1.2,.91-1.24,1.69l-.06,1.31c0,2.62,.74,5.13,2.16,7.27,.83,1.34,1.37,2.69,1.64,4.14,.62,2.85,2.86,4.12,4.69,4.12h5.48c1.08,0,1.95-.9,1.95-2.01,0-3.47-2.34-6.23-5.38-6.88-.58-.78-1-1.68-1-2.71,0-1.79,.95-3.37,2.42-4.04,2.63-1.22,4.46-3.66,5.13-6.52,1.24,.28,1.44,.41,1.44,1.17-.23,1.37-.48,1.2-.68,1.86-.19,.63,.36,1.33,1.06,1.69,1.17,.6,3.1,3.56,3.98,5.71,.85,1.94,2.54,3.11,4.44,3.11h4.69c1.08,0,1.95-.9,1.95-2.01,0-3.37-2.22-6.32-5.27-7.01-.96-.23-1.64-1.21-1.64-2.34,0-.63,.22-1.24,.62-1.7,.95-1.06,1.47-2.43,.46-5.71-1-3.28-2.86-4.93-4.89-6.23,1.74-1.81,3.65-3.42,5.82-4.54,3.64-1.74,6.39-5.08,7.67-9.19,.61-.62,2.09-2.12,2.16-2.19v23.79c0,17.02,26.3,17.22,27.42,17.22s27.42-.2,27.42-17.22v-23.85s.03,.03,.03,.03c0,0,1.56,1.58,2.18,2.22,1.29,4.1,4.04,7.45,7.68,9.19,2.17,1.1,4.06,2.71,5.81,4.52-2.03,1.29-4.34,2.72-5.35,6.01-1.01,3.29-.02,4.89,.92,5.93,.4,.46,.62,1.06,.62,1.7,0,1.13-.69,2.11-1.64,2.33-3.06,.69-5.28,3.64-5.28,7.01,0,1.11,.87,2.01,1.95,2.01h4.69c1.9,0,3.59-1.18,4.42-3.07,.9-2.18,2.82-5.14,4-5.75,.7-.37,1.17-.85,1.17-1.51,0-.18-.04-.39-.12-.6l-.52-1.36s-.05-.12-.11-.24c.02-.56,.29-.76,1.4-1.01,.67,2.87,2.5,5.31,5.1,6.49,1.48,.69,2.45,2.31,2.45,4.07,0,1.02-.43,1.92-1,2.71-3.04,.65-5.38,3.42-5.38,6.89,0,1.11,.87,2.01,1.95,2.01h5.48c1.82,0,4.06-1.27,4.67-4.05,.28-1.52,.81-2.88,1.6-4.11,1.46-2.23,2.21-4.74,2.21-7.37l-.06-1.31c-.04-.79-.53-1.42-1.25-1.71-1.29-.51-2.15-1.9-2.15-3.46,0,0,.04-.75,.06-1.04,3.24,1.11,6.9,.31,9.41-2.45h0Zm-114.74-82.45c.91,2.08,2.55,3.57,4.42,4.69-.55,.61-1.27,1.11-2.44,1.6-.74,.31-1.22,1.04-1.22,1.86,0,.03,0,.05,0,.08,.03,.85,.58,1.59,1.37,1.84,3.17,1.02,17.23,1.62,26.31-7.92,.4-.42,.65-1.07,.65-1.69,0-.33-.07-.65-.23-.93,0,0-.07-.12-.08-.13,4.43-.58,8.89-.98,13.33-.98,4.68,0,9.19,.39,13.64,.98-.02,.03-.07,.13-.07,.13-.15,.28-.22,.6-.22,.93,0,.61,.24,1.26,.64,1.68,9.08,9.54,23.14,8.94,26.31,7.92,.79-.25,1.33-.99,1.36-1.84,0-.03,0-.06,0-.08,0-.82-.48-1.56-1.22-1.86-1.18-.49-1.9-.99-2.45-1.6,1.88-1.12,3.52-2.62,4.43-4.71,0,0,.5-1.37,.5-1.37,.08-.22,.12-.45,.12-.67,0-.53-.23-1.03-.63-1.43-.57-.56-1.42-.64-2.14-.32-.75,.34-1.64,.52-2.62,.54-2.16,.05-8.09-1.09-9.67-4.04-.11-3.62-2.6-6.73-6.05-7.44-7.16-1.35-14.41-2.02-21.64-2.02s-14.79,.67-21.86,2c-3.53,.73-6.03,3.84-6.13,7.46-1.57,2.95-7.51,4.09-9.67,4.04-.98-.02-1.86-.2-2.62-.54-.72-.32-1.57-.23-2.14,.33-.4,.39-.62,.9-.62,1.43,0,.22,.04,.45,.12,.67l.51,1.39h0Z"/>
      <path class="cls-14" d="M282.87,202.07c-1.44-.83-3.27-3.58-3.27-5,0-2.51,2.86-4.54,6.39-4.54l1.43-.63,.65-2.2s-7.94-1.04-10.12,2.9c-2.17,3.94-1.05,6.51-.14,8.58,.91,2.08,2.97,3.12,2.97,3.12l2.1-2.22h0Z"/>
      <path class="cls-2" d="M282.87,202.07c-1.44-.83-3.27-3.58-3.27-5,0-2.51,2.86-4.54,6.39-4.54l1.43-.63,.65-2.2s-7.94-1.04-10.12,2.9c-2.17,3.94-1.05,6.51-.14,8.58,.91,2.08,2.97,3.12,2.97,3.12l2.1-2.22h0Z"/>
      <path class="cls-14" d="M291.16,195.56c-.47-.51-.74-1.13-.74-1.8,0-1.8,2.01-3.27,4.49-3.27,.91,0,2.68,.2,3.38,.53l.22-3.76s-6.7-.8-9.28,2.26c-2.58,3.06-1.93,6.07-1.71,6.77,.22,.7,.66,1.74,.66,1.74l3.69-1.16-.72-1.32h0Z"/>
      <path class="cls-2" d="M291.16,195.56c-.47-.51-.74-1.13-.74-1.8,0-1.8,2.01-3.27,4.49-3.27,.91,0,2.68,.2,3.38,.53l.22-3.76s-6.7-.8-9.28,2.26c-2.58,3.06-1.93,6.07-1.71,6.77,.22,.7,.66,1.74,.66,1.74l3.69-1.16-.72-1.32h0Z"/>
      <path class="cls-14" d="M317.18,202.07c1.44-.83,3.28-3.58,3.28-5,0-2.51-2.86-4.54-6.39-4.54l-1.42-.63-.65-2.2s7.94-1.04,10.12,2.9c2.17,3.94,1.05,6.51,.15,8.58-.91,2.08-2.98,3.12-2.98,3.12l-2.1-2.22h0Z"/>
      <path class="cls-2" d="M317.18,202.07c1.44-.83,3.28-3.58,3.28-5,0-2.51-2.86-4.54-6.39-4.54l-1.42-.63-.65-2.2s7.94-1.04,10.12,2.9c2.17,3.94,1.05,6.51,.15,8.58-.91,2.08-2.98,3.12-2.98,3.12l-2.1-2.22h0Z"/>
      <path class="cls-14" d="M308.9,195.56c.46-.51,.74-1.13,.74-1.8,0-1.8-2.01-3.27-4.49-3.27-.91,0-2.68,.2-3.38,.53l-.22-3.76s6.69-.8,9.27,2.26c2.57,3.06,1.92,6.07,1.7,6.77-.21,.7-.65,1.74-.65,1.74l-3.69-1.16,.71-1.32Z"/>
      <path class="cls-2" d="M308.9,195.56c.46-.51,.74-1.13,.74-1.8,0-1.8-2.01-3.27-4.49-3.27-.91,0-2.68,.2-3.38,.53l-.22-3.76s6.69-.8,9.27,2.26c2.57,3.06,1.92,6.07,1.7,6.77-.21,.7-.65,1.74-.65,1.74l-3.69-1.16,.71-1.32Z"/>
      <path class="cls-18" d="M282.17,202.09c4.16-4.45,10.64-7.31,17.91-7.31s13.74,2.86,17.91,7.31l-5,14.12h-26.08l-4.74-14.12h0Z"/>
      <path class="cls-9" d="M282.17,202.09c4.16-4.45,10.64-7.31,17.91-7.31s13.74,2.86,17.91,7.31l-5,14.12h-26.08l-4.74-14.12h0Z"/>
      <path class="cls-12" d="M303.38,199.97l-3.34-2.26-3.29,2.26,1.28-11.64h4.05l1.29,11.64h0Z"/>
      <path class="cls-4" d="M303.38,199.97l-3.34-2.26-3.29,2.26,1.28-11.64h4.05l1.29,11.64h0Z"/>
      <path class="cls-13" d="M300.32,190.12c-.64-.14-1.26,.29-1.4,.98-.13,.68,.27,1.34,.91,1.49,.64,.14,1.26-.3,1.4-.98,.13-.68-.28-1.35-.91-1.48Z"/>
      <path class="cls-5" d="M300.32,190.12c-.64-.14-1.26,.29-1.4,.98-.13,.68,.27,1.34,.91,1.49,.64,.14,1.26-.3,1.4-.98,.13-.68-.28-1.35-.91-1.48Z"/>
      <path class="cls-13" d="M300.39,192.42c-.81-.19-1.6,.37-1.76,1.24-.17,.86,.35,1.7,1.16,1.88,.81,.18,1.6-.37,1.77-1.24,.16-.86-.35-1.71-1.17-1.88Z"/>
      <path class="cls-5" d="M300.39,192.42c-.81-.19-1.6,.37-1.76,1.24-.17,.86,.35,1.7,1.16,1.88,.81,.18,1.6-.37,1.77-1.24,.16-.86-.35-1.71-1.17-1.88Z"/>
      <path class="cls-13" d="M300.46,195.4c-1.02-.23-2.02,.47-2.23,1.56-.21,1.09,.45,2.15,1.47,2.38,1.02,.22,2.02-.48,2.23-1.56,.22-1.09-.44-2.15-1.47-2.38h0Z"/>
      <path class="cls-5" d="M300.46,195.4c-1.02-.23-2.02,.47-2.23,1.56-.21,1.09,.45,2.15,1.47,2.38,1.02,.22,2.02-.48,2.23-1.56,.22-1.09-.44-2.15-1.47-2.38h0Z"/>
      <path class="cls-13" d="M279.67,201.17c0-1.08-.82-1.97-1.84-1.97s-1.85,.89-1.85,1.97,.83,1.97,1.85,1.97,1.84-.88,1.84-1.97Z"/>
      <path class="cls-5" d="M279.67,201.17c0-1.08-.82-1.97-1.84-1.97s-1.85,.89-1.85,1.97,.83,1.97,1.85,1.97,1.84-.88,1.84-1.97Z"/>
      <path class="cls-13" d="M289.22,192.77c0-1.09-.83-1.97-1.84-1.97s-1.85,.88-1.85,1.97,.83,1.97,1.85,1.97,1.84-.88,1.84-1.97Z"/>
      <path class="cls-5" d="M289.22,192.77c0-1.09-.83-1.97-1.84-1.97s-1.85,.88-1.85,1.97,.83,1.97,1.85,1.97,1.84-.88,1.84-1.97Z"/>
      <path class="cls-13" d="M289.75,196.48c0-1.08-.83-1.97-1.86-1.97s-1.85,.88-1.85,1.97,.83,1.97,1.85,1.97,1.86-.87,1.86-1.97Z"/>
      <path class="cls-5" d="M289.75,196.48c0-1.08-.83-1.97-1.86-1.97s-1.85,.88-1.85,1.97,.83,1.97,1.85,1.97,1.86-.87,1.86-1.97Z"/>
      <path class="cls-13" d="M278.26,198.59c.36-1.01-.11-2.15-1.06-2.54-.96-.39-2.02,.12-2.38,1.13-.37,1.02,.12,2.14,1.06,2.53,.96,.39,2.02-.12,2.39-1.13h0Z"/>
      <path class="cls-5" d="M278.26,198.59c.36-1.01-.11-2.15-1.06-2.54-.96-.39-2.02,.12-2.38,1.13-.37,1.02,.12,2.14,1.06,2.53,.96,.39,2.02-.12,2.39-1.13h0Z"/>
      <path class="cls-13" d="M278.38,195.63c.69-.8,.65-2.04-.09-2.78-.74-.74-1.91-.7-2.61,.09-.7,.8-.66,2.04,.09,2.78,.75,.74,1.91,.7,2.61-.1h0Z"/>
      <path class="cls-5" d="M278.38,195.63c.69-.8,.65-2.04-.09-2.78-.74-.74-1.91-.7-2.61,.09-.7,.8-.66,2.04,.09,2.78,.75,.74,1.91,.7,2.61-.1h0Z"/>
      <path class="cls-13" d="M279.93,193.23c.93-.46,1.32-1.63,.89-2.61-.43-.98-1.53-1.41-2.46-.95-.92,.46-1.32,1.63-.89,2.61,.43,.99,1.53,1.41,2.45,.95h0Z"/>
      <path class="cls-5" d="M279.93,193.23c.93-.46,1.32-1.63,.89-2.61-.43-.98-1.53-1.41-2.46-.95-.92,.46-1.32,1.63-.89,2.61,.43,.99,1.53,1.41,2.45,.95h0Z"/>
      <path class="cls-13" d="M282.41,191.75c1.02-.06,1.8-.99,1.74-2.08-.05-1.08-.93-1.92-1.94-1.86-1.02,.06-1.8,1-1.74,2.08,.06,1.08,.93,1.91,1.95,1.85h0Z"/>
      <path class="cls-5" d="M282.41,191.75c1.02-.06,1.8-.99,1.74-2.08-.05-1.08-.93-1.92-1.94-1.86-1.02,.06-1.8,1-1.74,2.08,.06,1.08,.93,1.91,1.95,1.85h0Z"/>
      <path class="cls-13" d="M285.13,191.02c.96,.35,2.01-.21,2.34-1.24,.32-1.03-.2-2.15-1.17-2.49-.97-.34-2.02,.21-2.34,1.24-.32,1.04,.2,2.15,1.17,2.49Z"/>
      <path class="cls-5" d="M285.13,191.02c.96,.35,2.01-.21,2.34-1.24,.32-1.03-.2-2.15-1.17-2.49-.97-.34-2.02,.21-2.34,1.24-.32,1.04,.2,2.15,1.17,2.49Z"/>
      <path class="cls-13" d="M288.1,191.05c.79,.69,1.95,.57,2.6-.27,.65-.84,.53-2.09-.25-2.77-.79-.69-1.95-.57-2.6,.27-.65,.84-.54,2.08,.25,2.77h0Z"/>
      <path class="cls-5" d="M288.1,191.05c.79,.69,1.95,.57,2.6-.27,.65-.84,.53-2.09-.25-2.77-.79-.69-1.95-.57-2.6,.27-.65,.84-.54,2.08,.25,2.77h0Z"/>
      <path class="cls-13" d="M294.1,187.59c0-1.09-.83-1.97-1.85-1.97s-1.84,.87-1.84,1.97,.83,1.97,1.84,1.97,1.85-.88,1.85-1.97Z"/>
      <path class="cls-5" d="M294.1,187.59c0-1.09-.83-1.97-1.85-1.97s-1.84,.87-1.84,1.97,.83,1.97,1.84,1.97,1.85-.88,1.85-1.97Z"/>
      <path class="cls-13" d="M297.62,187.21c0-1.09-.83-1.97-1.85-1.97s-1.84,.88-1.84,1.97,.82,1.97,1.84,1.97,1.85-.88,1.85-1.97Z"/>
      <path class="cls-5" d="M297.62,187.21c0-1.09-.83-1.97-1.85-1.97s-1.84,.88-1.84,1.97,.82,1.97,1.84,1.97,1.85-.88,1.85-1.97Z"/>
      <path class="cls-13" d="M320.46,201.17c0-1.08,.83-1.97,1.85-1.97s1.84,.89,1.84,1.97-.82,1.97-1.84,1.97-1.85-.88-1.85-1.97Z"/>
      <path class="cls-5" d="M320.46,201.17c0-1.08,.83-1.97,1.85-1.97s1.84,.89,1.84,1.97-.82,1.97-1.84,1.97-1.85-.88-1.85-1.97Z"/>
      <path class="cls-13" d="M310.94,192.77c0-1.09,.83-1.97,1.85-1.97s1.85,.88,1.85,1.97-.82,1.97-1.85,1.97-1.85-.88-1.85-1.97Z"/>
      <path class="cls-5" d="M310.94,192.77c0-1.09,.83-1.97,1.85-1.97s1.85,.88,1.85,1.97-.82,1.97-1.85,1.97-1.85-.88-1.85-1.97Z"/>
      <path class="cls-13" d="M310.4,196.48c0-1.08,.83-1.97,1.85-1.97s1.84,.88,1.84,1.97-.83,1.97-1.84,1.97-1.85-.87-1.85-1.97Z"/>
      <path class="cls-5" d="M310.4,196.48c0-1.08,.83-1.97,1.85-1.97s1.84,.88,1.84,1.97-.83,1.97-1.84,1.97-1.85-.87-1.85-1.97Z"/>
      <path class="cls-13" d="M321.89,198.59c-.36-1.01,.11-2.15,1.07-2.54,.95-.39,2.02,.12,2.39,1.13,.37,1.02-.11,2.14-1.07,2.53-.95,.39-2.02-.12-2.38-1.13h0Z"/>
      <path class="cls-5" d="M321.89,198.59c-.36-1.01,.11-2.15,1.07-2.54,.95-.39,2.02,.12,2.39,1.13,.37,1.02-.11,2.14-1.07,2.53-.95,.39-2.02-.12-2.38-1.13h0Z"/>
      <path class="cls-13" d="M321.77,195.63c-.7-.8-.66-2.04,.09-2.78,.75-.74,1.91-.7,2.61,.09,.7,.8,.66,2.04-.09,2.78-.74,.74-1.91,.7-2.61-.1h0Z"/>
      <path class="cls-5" d="M321.77,195.63c-.7-.8-.66-2.04,.09-2.78,.75-.74,1.91-.7,2.61,.09,.7,.8,.66,2.04-.09,2.78-.74,.74-1.91,.7-2.61-.1h0Z"/>
      <path class="cls-13" d="M320.22,193.23c-.93-.46-1.33-1.63-.9-2.61,.43-.98,1.53-1.41,2.46-.95,.93,.46,1.33,1.63,.9,2.61-.44,.99-1.53,1.41-2.46,.95h0Z"/>
      <path class="cls-5" d="M320.22,193.23c-.93-.46-1.33-1.63-.9-2.61,.43-.98,1.53-1.41,2.46-.95,.93,.46,1.33,1.63,.9,2.61-.44,.99-1.53,1.41-2.46,.95h0Z"/>
      <path class="cls-13" d="M317.74,191.75c-1.02-.06-1.8-.99-1.74-2.08,.06-1.08,.94-1.92,1.95-1.86,1.02,.06,1.8,1,1.74,2.08-.06,1.08-.93,1.91-1.95,1.85Z"/>
      <path class="cls-5" d="M317.74,191.75c-1.02-.06-1.8-.99-1.74-2.08,.06-1.08,.94-1.92,1.95-1.86,1.02,.06,1.8,1,1.74,2.08-.06,1.08-.93,1.91-1.95,1.85Z"/>
      <path class="cls-13" d="M315.02,191.02c-.97,.35-2.01-.21-2.34-1.24-.32-1.03,.2-2.15,1.17-2.49,.97-.34,2.01,.21,2.33,1.24,.33,1.04-.19,2.15-1.16,2.49Z"/>
      <path class="cls-5" d="M315.02,191.02c-.97,.35-2.01-.21-2.34-1.24-.32-1.03,.2-2.15,1.17-2.49,.97-.34,2.01,.21,2.33,1.24,.33,1.04-.19,2.15-1.16,2.49Z"/>
      <path class="cls-13" d="M312.05,191.05c-.79,.69-1.95,.57-2.6-.27-.64-.84-.53-2.09,.25-2.77,.79-.69,1.95-.57,2.6,.27,.65,.84,.54,2.08-.25,2.77h0Z"/>
      <path class="cls-5" d="M312.05,191.05c-.79,.69-1.95,.57-2.6-.27-.64-.84-.53-2.09,.25-2.77,.79-.69,1.95-.57,2.6,.27,.65,.84,.54,2.08-.25,2.77h0Z"/>
      <path class="cls-13" d="M306.05,187.59c0-1.09,.83-1.97,1.84-1.97s1.85,.87,1.85,1.97-.83,1.97-1.85,1.97-1.84-.88-1.84-1.97Z"/>
      <path class="cls-5" d="M306.05,187.59c0-1.09,.83-1.97,1.84-1.97s1.85,.87,1.85,1.97-.83,1.97-1.85,1.97-1.84-.88-1.84-1.97Z"/>
      <path class="cls-13" d="M302.53,187.21c0-1.09,.83-1.97,1.85-1.97s1.85,.88,1.85,1.97-.83,1.97-1.85,1.97-1.85-.88-1.85-1.97Z"/>
      <path class="cls-5" d="M302.53,187.21c0-1.09,.83-1.97,1.85-1.97s1.85,.88,1.85,1.97-.83,1.97-1.85,1.97-1.85-.88-1.85-1.97Z"/>
      <path class="cls-11" d="M321.82,203.3c-.52-.82-1.27-1.3-2.1-1.38-.32-.02-.63,.02-.92,.12-.03-.01-.05-.04-.08-.06l-.48-.28-.46,.31c-.11,.07-.17,.17-.26,.25-.02-.01-.03-.03-.04-.04l-.49-.27s-.4,.28-.44,.32c-.46-.24-.94-.37-1.41-.35l-.62,.03s-.02,.07-.03,.09c-.33-.38-.78-.65-1.28-.81,0-.02-.12-.56-.12-.56l-.52-.17s-.04,0-.06,0c0-.14-.01-.26-.04-.41l-.13-.56s-.5-.14-.52-.15c-.14-.53-.37-1.02-.71-1.39l-.44-.47-.58,.26c-.45,.2-.84,.55-1.17,.98-.02,0-.53-.08-.53-.08l-.33,.46c-.08,.11-.15,.23-.2,.35-.02,0-.03,0-.04-.01l-.54-.07s-.31,.45-.32,.47c-.52-.05-1.03,.01-1.47,.22,0,0-.13,.06-.26,.12-.15-.11-.33-.24-.33-.24-.42-.32-.94-.48-1.48-.53,0,0,0-.02-.01-.03l-.22-.54-.55-.05s-.06,0-.09,0c-.03-.14-.07-.29-.14-.43l-.23-.53-.54-.03h-.02c-.24-.54-.58-.99-1.01-1.3l-.52-.38-.51,.38c-.43,.31-.77,.76-1.01,1.3h-.02l-.55,.03-.23,.53c-.07,.15-.11,.29-.14,.43-.03,0-.06,0-.09,0l-.54,.05-.22,.54s0,.03-.01,.03c-.55,.06-1.07,.22-1.49,.53,0,0-.2,.14-.35,.25-.15-.07-.3-.13-.3-.13-.44-.2-.96-.27-1.48-.22-.01-.02-.31-.47-.31-.47l-.55,.07s-.03,.01-.04,.01c-.06-.12-.12-.24-.2-.35l-.33-.46s-.51,.08-.53,.08c-.32-.43-.72-.79-1.17-.98l-.58-.26-.44,.47c-.34,.37-.57,.86-.71,1.39-.01,0-.51,.15-.51,.15l-.13,.56c-.03,.15-.04,.27-.05,.41-.01,0-.04,0-.05,0l-.53,.17s-.11,.53-.12,.56c-.49,.16-.94,.43-1.27,.81,0-.03-.03-.09-.03-.09l-.63-.03c-.47-.02-.95,.11-1.41,.35-.04-.03-.43-.32-.43-.32l-.49,.27s-.03,.03-.04,.04c-.08-.08-.16-.18-.26-.25l-.47-.31-.47,.28s-.06,.04-.08,.06c-.29-.09-.6-.14-.92-.12-.83,.08-1.57,.57-2.1,1.38l-.93,1.44,1.65,.1s.9,.07,1.52,.74c.45,.5,5.04,9.83,5.04,9.83l.77-.34c4.57-1.96,9.07-2.91,13.73-2.91s9.19,.96,13.78,2.94l.77,.33s4.56-9.35,5.01-9.85c.61-.67,1.5-.74,1.51-.74l1.64-.1-.93-1.44h0Zm-10.55-.57c-.02,.08-.04,.24-.04,.24,0,0,.66,.04,.89,.05-.22,.09-.83,.34-.83,.34,0,0,.06,.13,.09,.18-.16-.05-.32-.1-.44-.13l-.28-.09s-.35-.1-.36-.1c.48-.25,.74-.38,.97-.5h0Zm-1.53-1.38s.27-.65,.36-.86c0,.24,.01,.95,.01,.95,0,0,.13-.02,.2-.03-.1,.19-.3,.52-.59,1.02-.08-.59-.13-.98-.16-1.19,.05,.03,.17,.11,.17,.11h0Zm-1.6,.95s.03-.16,.06-.24c.16,.21,.35,.43,.7,.87-.02,0-.37-.06-.37-.06l-.29-.04c-.13-.02-.28-.04-.45-.06,.04-.04,.15-.12,.15-.12,0,0-.47-.49-.62-.66,.21,.08,.83,.32,.83,.32h0Zm-6.37-1.07c0,.13,0,.31,0,.31l1.03-.17s.03,0,.04,0c-.02,.01-.02,.03-.03,.03l-.87,.61s.1,.13,.16,.21c-.21,0-.42-.03-.6-.04l-.3-.03-.42-.03s-.09,0-.12,0c.54-.45,.87-.71,1.09-.89h0Zm-1.94-1.04l.22-1.09s.01-.03,.01-.04c0,.01,.01,.03,.02,.04l.22,1.09s.16-.06,.26-.09c-.07,.18-.24,.72-.49,1.44-.24-.72-.43-1.26-.49-1.44,.09,.03,.25,.09,.25,.09h0Zm-2.51,1.19l1.03,.17s0-.19,0-.31c.23,.19,.55,.44,1.1,.89-.05,0-.53,.03-.53,.03l-.31,.03c-.18,.01-.39,.03-.6,.04,.06-.08,.17-.21,.17-.21l-.87-.61s-.03-.02-.04-.03c.02,0,.03,0,.05,0h0Zm-5.43,.68c.01,.09,.05,.24,.05,.24,0,0,.62-.24,.83-.32-.16,.17-.63,.66-.63,.66,0,0,.1,.09,.15,.12-.16,.03-.32,.05-.45,.06l-.29,.04s-.26,.04-.26,.04c0,0-.09,.01-.11,.02,.35-.44,.54-.66,.71-.87h0Zm-1.92-.63s0-.7,.01-.95c.09,.21,.36,.86,.36,.86,0,0,.12-.08,.18-.11-.03,.21-.08,.6-.17,1.19-.29-.51-.48-.84-.59-1.02,.06,.01,.2,.03,.2,.03h0Zm-1.12,1.54s-.02-.16-.04-.24c.23,.12,.49,.25,.97,.5,0,0-.36,.1-.36,.1l-.28,.09c-.12,.04-.28,.09-.43,.13,.02-.05,.08-.18,.08-.18,0,0-.61-.25-.82-.34,.23-.02,.88-.05,.88-.05h0Zm-5.45,2.4s-.25,.13-.49,.26c-.03-.03-.04-.06-.07-.1,.13-.35,.2-.56,.26-.75,.04,.06,.12,.18,.12,.18,0,0,.37-.33,.59-.54-.13,.28-.33,.75-.33,.75,0,0,.11,.04,.15,.05-.09,.06-.18,.11-.24,.14h0Zm33.77,.27c-.24-.14-.48-.27-.48-.27-.06-.04-.15-.09-.24-.14,.04-.01,.15-.05,.15-.05,0,0-.2-.47-.32-.75,.22,.21,.59,.54,.59,.54,0,0,.08-.13,.11-.18,.07,.19,.14,.4,.27,.75-.02,.04-.04,.07-.07,.11h0Z"/>
      <path class="cls-24" d="M299.32,190.32c-1.39-.44-2.18-2.01-1.78-3.5,.42-1.49,1.89-2.34,3.29-1.89,1.4,.44,2.2,2.01,1.78,3.5-.42,1.48-1.89,2.34-3.29,1.89h0Z"/>
      <path class="cls-5" d="M299.32,190.32c-1.39-.44-2.18-2.01-1.78-3.5,.42-1.49,1.89-2.34,3.29-1.89,1.4,.44,2.2,2.01,1.78,3.5-.42,1.48-1.89,2.34-3.29,1.89h0Z"/>
      <path class="cls-14" d="M300.05,207.81c-5.38,0-10.62,1.1-15.62,3.23l1.54,3.11c4.53-1.94,9.12-2.99,14.07-2.99s9.59,1.06,14.13,3.01l1.55-3.11c-5.02-2.14-10.28-3.25-15.68-3.25h0Z"/>
      <path class="cls-12" d="M321.07,203.85c-.78-1.21-1.96-1.1-2.38-.65-.11-.15-.25-.28-.41-.37-.34,.23-.5,.66-.61,1.13-.13-.38-.31-.7-.62-.87-.15,.11-.28,.25-.38,.41-.45-.41-.99-.62-1.49-.59-.16,.5-.12,1.11,.14,1.69-.18,.05-.34,.15-.47,.28,.12,.64,.79,1.03,1.41,1.38-.34,.51-.9,1.39-1.18,1.84-.54-.19-.94-.72-.94-1.37,0-.18,.03-.36,.09-.53,.03-.09,.05-.18,.05-.27,0-.3-.17-.58-.44-.7-.36-.15-.76,.03-.91,.41-.25,.64-.83,1.05-1.47,1.05-.88,0-1.59-.75-1.6-1.68l.14-.84c.13,.03,.26,.06,.4,.11,.78,.23,1.73,.62,2.36,.16-.02-.2-.08-.38-.16-.56,.56-.24,1-.66,1.21-1.15-.35-.4-.89-.65-1.5-.68,.03-.19,.03-.4-.01-.58-.34-.11-.69-.01-1.04,.17,.24-.43,.4-.86,.3-1.29-.18-.06-.37-.07-.55-.04-.01-.65-.22-1.23-.58-1.62-.47,.21-.88,.66-1.13,1.24-.16-.1-.33-.17-.52-.19-.26,.35-.27,.82-.2,1.31-.25-.31-.54-.55-.9-.59-.11,.16-.18,.34-.23,.54-.57-.22-1.16-.22-1.63,0,.02,.54,.26,1.11,.7,1.57-.15,.13-.27,.27-.36,.45,.4,.68,1.42,.73,2.22,.84,.08,0,.15,.02,.23,.03l-.12,.66c-.04,.06-.07,.13-.1,.2-.23,.67-.83,1.13-1.5,1.13-.88,0-1.6-.76-1.6-1.7,0-.41-.31-.74-.69-.74h-.08c-.31,0-.59,.22-.67,.55-.2,.74-.82,1.25-1.54,1.25-.89,0-1.6-.76-1.6-1.7v-.4c.12,0,.25,.01,.39,.03,.86,.07,1.92,.25,2.47-.36-.06-.2-.15-.38-.28-.55,.54-.37,.91-.91,1.03-1.46-.44-.33-1.05-.46-1.68-.37,0-.21-.05-.42-.13-.6-.37-.04-.71,.15-1.05,.41,.17-.49,.26-.99,.07-1.41-.2-.01-.39,.02-.58,.09-.14-.67-.47-1.23-.93-1.55-.44,.32-.78,.88-.91,1.55-.18-.07-.38-.09-.57-.09-.19,.42-.11,.91,.06,1.41-.33-.26-.68-.45-1.05-.41-.08,.19-.13,.39-.13,.6-.64-.1-1.25,.04-1.69,.37,.12,.56,.49,1.09,1.04,1.46-.13,.16-.23,.35-.28,.55,.55,.61,1.61,.43,2.46,.36,.12-.01,.23-.01,.34-.02v.4c0,.94-.72,1.7-1.6,1.7-.72,0-1.36-.51-1.54-1.25-.08-.33-.36-.55-.67-.55h-.08c-.38,0-.69,.33-.69,.74,0,.94-.72,1.7-1.6,1.7-.67,0-1.28-.45-1.5-1.13-.02-.07-.06-.14-.1-.2l-.12-.66c.07-.01,.15-.03,.23-.03,.81-.11,1.83-.16,2.23-.84-.09-.17-.22-.32-.36-.45,.43-.46,.68-1.02,.7-1.57-.46-.22-1.06-.22-1.63,0-.04-.19-.12-.38-.23-.54-.35,.04-.64,.28-.9,.59,.07-.49,.05-.96-.2-1.31-.18,.03-.36,.09-.52,.19-.25-.58-.66-1.04-1.13-1.24-.35,.39-.57,.97-.57,1.62-.19-.03-.37-.02-.55,.04-.1,.43,.06,.86,.3,1.29-.34-.18-.7-.27-1.04-.17-.04,.19-.04,.39,0,.58-.61,.03-1.15,.28-1.5,.68,.21,.49,.65,.91,1.22,1.15-.09,.18-.15,.36-.16,.56,.62,.46,1.57,.07,2.35-.16,.15-.05,.28-.08,.4-.11l.15,.84c0,.93-.72,1.68-1.6,1.68-.65,0-1.24-.41-1.48-1.05-.14-.38-.55-.56-.91-.41-.27,.12-.43,.4-.43,.7,0,.09,.01,.17,.04,.27,.06,.17,.09,.35,.09,.53,0,.65-.4,1.18-.94,1.37-.27-.46-.84-1.33-1.18-1.84,.62-.35,1.29-.74,1.41-1.38-.14-.13-.3-.22-.47-.28,.25-.58,.29-1.19,.13-1.69-.49-.03-1.03,.18-1.48,.59-.1-.16-.23-.3-.37-.41-.31,.18-.5,.5-.63,.87-.09-.48-.26-.9-.6-1.13-.16,.1-.3,.22-.41,.37-.42-.45-1.6-.55-2.38,.65,0,0,1.24,.05,2.13,1.04,.51,.57,.92,1.17,1.17,1.56,.02,.06,.04,.12,.07,.18l1.54,2.56c.1,.28,.36,.46,.64,.46,1.19,0,2.19-.81,2.58-1.94,.44,.27,.94,.44,1.47,.44,1.12,0,2.08-.66,2.59-1.63,.53,.5,1.2,.81,1.94,.81,1.07,0,2.01-.61,2.54-1.52,.54,.55,1.26,.88,2.04,.88,.93,0,1.76-.46,2.3-1.16,.55,.7,1.38,1.16,2.31,1.16,.78,0,1.5-.33,2.04-.88,.52,.91,1.46,1.52,2.53,1.52,.74,0,1.41-.31,1.93-.81,.51,.97,1.48,1.63,2.6,1.63,.53,0,1.03-.17,1.47-.44,.39,1.13,1.39,1.94,2.58,1.94,.28,0,.53-.18,.64-.46l1.53-2.56c.04-.06,.06-.12,.08-.18,.24-.39,.65-.99,1.17-1.56,.9-.99,2.13-1.04,2.13-1.04h0Z"/>
      <path class="cls-16" d="M305.66,209.76c0-.52-.42-.96-.93-.96s-.92,.43-.92,.96,.41,.96,.92,.96,.93-.43,.93-.96Z"/>
      <path class="cls-5" d="M305.66,209.76c0-.52-.42-.96-.93-.96s-.92,.43-.92,.96,.41,.96,.92,.96,.93-.43,.93-.96Z"/>
      <path class="cls-16" d="M313.15,211.44c0-.53-.41-.96-.93-.96s-.93,.43-.93,.96,.42,.97,.93,.97,.93-.43,.93-.97Z"/>
      <path class="cls-5" d="M313.15,211.44c0-.53-.41-.96-.93-.96s-.93,.43-.93,.96,.42,.97,.93,.97,.93-.43,.93-.97Z"/>
      <path class="cls-16" d="M296.43,209.76c0-.52-.41-.96-.92-.96s-.93,.43-.93,.96,.41,.96,.93,.96,.92-.43,.92-.96Z"/>
      <path class="cls-5" d="M296.43,209.76c0-.52-.41-.96-.92-.96s-.93,.43-.93,.96,.41,.96,.93,.96,.92-.43,.92-.96Z"/>
      <path class="cls-5" d="M288.97,211.44c0-.53-.41-.96-.93-.96s-.93,.43-.93,.96,.42,.97,.93,.97,.93-.43,.93-.97Z"/>
      <path class="cls-16" d="M300.12,208.56l-2.68,.96,2.68,.96,2.68-.96-2.68-.96Z"/>
      <path class="cls-5" d="M300.12,208.56l-2.68,.96,2.68,.96,2.68-.96-2.68-.96Z"/>
      <path class="cls-16" d="M315.43,211.77l-.66,1.79-1.12-1.48,1.79-.31Z"/>
      <path class="cls-5" d="M315.43,211.77l-.66,1.79-1.12-1.48,1.79-.31Z"/>
      <path class="cls-16" d="M284.67,211.77l.67,1.79,1.11-1.48-1.78-.31Z"/>
      <path class="cls-5" d="M284.67,211.77l.67,1.79,1.11-1.48-1.78-.31Z"/>
      <path class="cls-24" d="M293.59,210.09c.1,.52-.22,1.03-.72,1.14l-1.81,.39c-.5,.11-.99-.23-1.1-.75-.1-.52,.22-1.03,.72-1.14l1.81-.39c.5-.11,.99,.23,1.1,.75Z"/>
      <path class="cls-5" d="M293.59,210.09c.1,.52-.22,1.03-.72,1.14l-1.81,.39c-.5,.11-.99-.23-1.1-.75-.1-.52,.22-1.03,.72-1.14l1.81-.39c.5-.11,.99,.23,1.1,.75Z"/>
      <path class="cls-24" d="M306.66,210.09c-.1,.52,.22,1.03,.72,1.14l1.81,.39c.5,.11,.99-.23,1.09-.75,.11-.52-.21-1.03-.71-1.14l-1.82-.39c-.5-.11-.99,.23-1.09,.75Z"/>
      <path class="cls-5" d="M306.66,210.09c-.1,.52,.22,1.03,.72,1.14l1.81,.39c.5,.11,.99-.23,1.09-.75,.11-.52-.21-1.03-.71-1.14l-1.82-.39c-.5-.11-.99,.23-1.09,.75Z"/>
      <path class="cls-13" d="M300.97,201.47c0-.53-.41-.96-.93-.96s-.92,.43-.92,.96,.41,.96,.92,.96,.93-.43,.93-.96Z"/>
      <path class="cls-5" d="M300.97,201.47c0-.53-.41-.96-.93-.96s-.92,.43-.92,.96,.41,.96,.92,.96,.93-.43,.93-.96Z"/>
      <path class="cls-13" d="M310.57,202.52c0-.54-.42-.96-.93-.96s-.93,.43-.93,.96,.42,.96,.93,.96,.93-.43,.93-.96Z"/>
      <path class="cls-5" d="M310.57,202.52c0-.54-.42-.96-.93-.96s-.93,.43-.93,.96,.42,.96,.93,.96,.93-.43,.93-.96Z"/>
      <path class="cls-13" d="M319,205.95c0-.53-.41-.96-.92-.96s-.92,.43-.92,.96,.42,.96,.92,.96,.92-.43,.92-.96Z"/>
      <path class="cls-5" d="M319,205.95c0-.53-.41-.96-.92-.96s-.92,.43-.92,.96,.42,.96,.92,.96,.92-.43,.92-.96Z"/>
      <path class="cls-13" d="M289.53,202.52c0-.54,.41-.96,.93-.96s.92,.43,.92,.96-.41,.96-.92,.96-.93-.43-.93-.96Z"/>
      <path class="cls-5" d="M289.53,202.52c0-.54,.41-.96,.93-.96s.92,.43,.92,.96-.41,.96-.92,.96-.93-.43-.93-.96Z"/>
      <path class="cls-13" d="M281.1,205.95c0-.53,.42-.96,.93-.96s.92,.43,.92,.96-.42,.96-.92,.96-.93-.43-.93-.96Z"/>
      <path class="cls-5" d="M281.1,205.95c0-.53,.42-.96,.93-.96s.92,.43,.92,.96-.42,.96-.92,.96-.93-.43-.93-.96Z"/>
      <path class="cls-14" d="M301,187.01v-3.54h1.16v-1.97h-1.16v-1.23h-1.85v1.23h-1.16v1.97h1.16v3.54h-1.63v1.28h5.11v-1.28h-1.63Z"/>
      <path class="cls-5" d="M301,187.01v-3.54h1.16v-1.97h-1.16v-1.23h-1.85v1.23h-1.16v1.97h1.16v3.54h-1.63v1.28h5.11v-1.28h-1.63Z"/>
      <path class="cls-20" d="M274.52,215.5h50.94v46.07c0,15.21-25.47,15.21-25.47,15.21,0,0-25.48,0-25.48-15.21v-46.07Z"/>
      <path class="cls-7" d="M274.52,215.5h50.94v46.07c0,15.21-25.47,15.21-25.47,15.21,0,0-25.48,0-25.48-15.21v-46.07Z"/>
      <path class="cls-19" d="M254.06,254.21c2.64,1.06,4.86,3.06,6.33,5.64l.03,.06c.3,.54,.46,1.18,.46,1.85,0,.98-.36,1.87-.94,2.52l-.03,.03c-.69,.79-1.11,1.86-1.11,3.04,0,2.11,1.35,3.87,3.15,4.29h.02c2.14,.49,3.75,2.57,3.75,5.06h-4.69c-1.02,0-2.07-.59-2.64-1.89-.86-2.09-3.01-5.75-4.9-6.72,.05-.35,.7-1.34,.7-1.71,0-2.96-1.85-2.87-4.37-3.52l-.82-.15s.49-2.02,1.7-4.28c1.22-2.25,3.36-4.21,3.36-4.21h0Z"/>
      <path class="cls-10" d="M254.06,254.21c2.64,1.06,4.86,3.06,6.33,5.64l.03,.06c.3,.54,.46,1.18,.46,1.85,0,.98-.36,1.87-.94,2.52l-.03,.03c-.69,.79-1.11,1.86-1.11,3.04,0,2.11,1.35,3.87,3.15,4.29h.02c2.14,.49,3.75,2.57,3.75,5.06h-4.69c-1.02,0-2.07-.59-2.64-1.89-.86-2.09-3.01-5.75-4.9-6.72,.05-.35,.7-1.34,.7-1.71,0-2.96-1.85-2.87-4.37-3.52l-.82-.15s.49-2.02,1.7-4.28c1.22-2.25,3.36-4.21,3.36-4.21h0Z"/>
      <path class="cls-19" d="M264.89,223.89l6.66-10.64,.03-.02c.63-.98,1.67-1.61,2.84-1.61,1.92,0,3.48,1.71,3.48,3.82h-3.48l-2.77,5.41-1.79,8.04-1,1.53-.08,.2"/>
      <path class="cls-10" d="M264.89,223.89l6.66-10.64,.03-.02c.63-.98,1.67-1.61,2.84-1.61,1.92,0,3.48,1.71,3.48,3.82h-3.48l-2.77,5.41-1.79,8.04-1,1.53-.08,.2"/>
      <path class="cls-19" d="M238.99,260.93c-.06,.51-.09,1.04-.09,1.56,0,.67,.05,1.34,.13,2v.07c.04,.25,.06,.51,.06,.78,0,2.45-1.42,4.53-3.4,5.33v.03c-.05,.36-.07,.74-.07,1.11,0,2.3,.68,4.41,1.82,6.14l.06,.12c.91,1.42,1.56,3.03,1.88,4.77,.38,1.78,1.73,2.49,2.77,2.49h5.48c0-2.85-2.1-5.15-4.69-5.15h-.04c-1.02-1.15-1.64-2.72-1.64-4.45,0-2.65,1.48-4.93,3.58-5.88l.03-.03c2.5-1.15,4.27-3.86,4.27-7.02l.02-.07c2.19-6.8,6.8-12.33,12.7-15.36l.04-.02c4.34-2.08,7.38-6.87,7.38-12.41,0-4.27-1.8-8.07-4.61-10.54,0,0,.04-4.95,.04-6.17,.6-.56,1.09-.96,2.56-2.15,1.95-1.58,3.29-2.68,3.72-5.06,.26-1.49,1.03-6.49-.9-6.19-1.92,.3-4.72,1.54-4.72,1.54-1.12-.49-1.41-1.12-2.69-1.12-.85,0-2.39,.46-3.17,.68-4.24,1.2-7.37,5.42-7.37,10.45l.08,11.93c0,8.61-3.96,16.2-9.99,20.71v.02c-2.56,1.86-4.44,4.71-5.2,8.05v.09c-.37,1.53-1.63,2.39-2.75,2.39s-2.24-.46-3.1-1.41c-1.71-1.87-1.71-4.92,0-6.8,.58-.64,.58-1.66,0-2.29-.57-.63-1.51-.63-2.09,0-2.85,3.14-2.85,8.25,0,11.39,2.71,2.97,7.02,3.13,9.9,.47,.15-1.48,.52-2.89,1.08-4.19-.55,1.3-.93,2.71-1.08,4.19"/>
      <path class="cls-10" d="M238.99,260.93c-.06,.51-.09,1.04-.09,1.56,0,.67,.05,1.34,.13,2v.07c.04,.25,.06,.51,.06,.78,0,2.45-1.42,4.53-3.4,5.33v.03c-.05,.36-.07,.74-.07,1.11,0,2.3,.68,4.41,1.82,6.14l.06,.12c.91,1.42,1.56,3.03,1.88,4.77,.38,1.78,1.73,2.49,2.77,2.49h5.48c0-2.85-2.1-5.15-4.69-5.15h-.04c-1.02-1.15-1.64-2.72-1.64-4.45,0-2.65,1.48-4.93,3.58-5.88l.03-.03c2.5-1.15,4.27-3.86,4.27-7.02l.02-.07c2.19-6.8,6.8-12.33,12.7-15.36l.04-.02c4.34-2.08,7.38-6.87,7.38-12.41,0-4.27-1.8-8.07-4.61-10.54,0,0,.04-4.95,.04-6.17,.6-.56,1.09-.96,2.56-2.15,1.95-1.58,3.29-2.68,3.72-5.06,.26-1.49,1.03-6.49-.9-6.19-1.92,.3-4.72,1.54-4.72,1.54-1.12-.49-1.41-1.12-2.69-1.12-.85,0-2.39,.46-3.17,.68-4.24,1.2-7.37,5.42-7.37,10.45l.08,11.93c0,8.61-3.96,16.2-9.99,20.71v.02c-2.56,1.86-4.44,4.71-5.2,8.05v.09c-.37,1.53-1.63,2.39-2.75,2.39s-2.24-.46-3.1-1.41c-1.71-1.87-1.71-4.92,0-6.8,.58-.64,.58-1.66,0-2.29-.57-.63-1.51-.63-2.09,0-2.85,3.14-2.85,8.25,0,11.39,2.71,2.97,7.02,3.13,9.9,.47,.15-1.48,.52-2.89,1.08-4.19-.55,1.3-.93,2.71-1.08,4.19"/>
      <path class="cls-19" d="M255.22,212.79s-.73,2.26,.27,4.51c.69,1.56,2.1,2.46,3.58,2.47,.89-1.29,1.12-3.06,.42-4.62-.07-.16-1.65-3.67-1.65-3.67"/>
      <path class="cls-10" d="M255.22,212.79s-.73,2.26,.27,4.51c.69,1.56,2.1,2.46,3.58,2.47,.89-1.29,1.12-3.06,.42-4.62-.07-.16-1.65-3.67-1.65-3.67"/>
      <path class="cls-11" d="M263.9,209.56c-.44,.19-.9,.23-1.27,.14,.22-.35,.57-.67,1.01-.87l.27,.73h0Z"/>
      <path class="cls-3" d="M263.9,209.56c-.44,.19-.9,.23-1.27,.14,.22-.35,.57-.67,1.01-.87l.27,.73h0Z"/>
      <path class="cls-19" d="M263.85,233.01c2.88,1.68,6.09-.01,7.67-2.81,.55-.97,.26-2.59,.57-3.55l.03-.06c.34-1.04,1.25-1.8,2.32-1.8v7.97s-.69,.76-2.5,2.75c-1.81,1.99-3.8,4.82-5.89,4.16-2.08-.66-8.95-2.41-8.95-2.41"/>
      <path class="cls-10" d="M263.85,233.01c2.88,1.68,6.09-.01,7.67-2.81,.55-.97,.26-2.59,.57-3.55l.03-.06c.34-1.04,1.25-1.8,2.32-1.8v7.97s-.69,.76-2.5,2.75c-1.81,1.99-3.8,4.82-5.89,4.16-2.08-.66-8.95-2.41-8.95-2.41"/>
      <path class="cls-11" d="M268.25,205.03c0,1.76,1.3,3.19,2.91,3.19v-2.05c0-.85-.27-1.26-1.04-1.14h-1.86Z"/>
      <path class="cls-1" d="M268.25,205.1c0,1.76,1.3,3.19,2.91,3.19v-2.05c0-.85-.27-1.26-1.04-1.14h-1.86Z"/>
      <path class="cls-11" d="M271.04,210.44s-1.95,2.14-4.37,2.82"/>
      <path class="cls-10" d="M271.04,210.44s-1.95,2.14-4.37,2.82"/>
      <path class="cls-13" d="M307.8,270.85l-5.96-6.81c-1.05-1.2-2.72-1.2-3.77,0l-5.95,6.81h15.69Z"/>
      <path class="cls-2" d="M307.8,270.85l-5.96-6.81c-1.05-1.2-2.72-1.2-3.77,0l-5.95,6.81h15.69Z"/>
      <path class="cls-13" d="M296.53,229.73l-5.96-6.81c-1.05-1.21-2.73-1.21-3.77,0l-5.96,6.81h15.68Z"/>
      <path class="cls-2" d="M296.53,229.73l-5.96-6.81c-1.05-1.21-2.73-1.21-3.77,0l-5.96,6.81c5.23,0,10.46,0,15.68,0h0Z"/>
      <path class="cls-13" d="M319.15,229.73l-5.96-6.81c-1.05-1.21-2.73-1.21-3.77,0l-5.96,6.81h15.69Z"/>
      <path class="cls-2" d="M319.15,229.73l-5.96-6.81c-1.05-1.21-2.73-1.21-3.77,0l-5.96,6.81c5.23,0,10.46,0,15.69,0h0Z"/>
      <path class="cls-13" d="M296.53,243.34l-5.96-6.81c-1.05-1.2-2.73-1.2-3.77,0l-5.96,6.81h15.68Z"/>
      <path class="cls-2" d="M296.53,243.34l-5.96-6.81c-1.05-1.2-2.73-1.2-3.77,0l-5.96,6.81c5.23,0,10.46,0,15.68,0h0Z"/>
      <path class="cls-13" d="M319.15,243.34l-5.96-6.81c-1.05-1.2-2.73-1.2-3.77,0l-5.96,6.81h15.69Z"/>
      <path class="cls-2" d="M319.15,243.34l-5.96-6.81c-1.05-1.2-2.73-1.2-3.77,0l-5.96,6.81c5.23,0,10.46,0,15.69,0h0Z"/>
      <path class="cls-13" d="M296.53,257.14l-5.96-6.82c-1.05-1.2-2.73-1.2-3.77,0l-5.96,6.82h15.68Z"/>
      <path class="cls-2" d="M296.53,257.14l-5.96-6.82c-1.05-1.2-2.73-1.2-3.77,0l-5.96,6.82h15.68Z"/>
      <path class="cls-13" d="M319.15,257.14l-5.96-6.82c-1.05-1.2-2.73-1.2-3.77,0l-5.96,6.82h15.69Z"/>
      <path class="cls-2" d="M319.15,257.14l-5.96-6.82c-1.05-1.2-2.73-1.2-3.77,0l-5.96,6.82h15.69Z"/>
      <path class="cls-23" d="M325.85,172.85c1.99,4.16,9.17,5.34,11.57,5.28,1.2-.03,2.33-.25,3.36-.71-.11,.39-.25,.76-.41,1.12-1.02,2.32-2.97,4.1-5.36,4.82,.77,2.51,2.53,3.39,4.42,4.17-2.09,.67-15.74,1.84-24.51-7.58"/>
      <path class="cls-8" d="M325.85,172.85c1.99,4.16,9.17,5.34,11.57,5.28,1.2-.03,2.33-.25,3.36-.71-.11,.39-.25,.76-.41,1.12-1.02,2.32-2.97,4.1-5.36,4.82,.77,2.51,2.53,3.39,4.42,4.17-2.09,.67-15.74,1.84-24.51-7.58"/>
      <path class="cls-23" d="M273.91,172.85c-1.98,4.16-9.16,5.34-11.57,5.28-1.19-.03-2.32-.25-3.35-.71,.11,.39,.25,.76,.41,1.12,1.01,2.32,2.97,4.1,5.36,4.82-.78,2.51-2.53,3.39-4.41,4.17,2.09,.67,15.73,1.84,24.51-7.58"/>
      <path class="cls-8" d="M273.91,172.85c-1.98,4.16-9.16,5.34-11.57,5.28-1.19-.03-2.32-.25-3.35-.71,.11,.39,.25,.76,.41,1.12,1.01,2.32,2.97,4.1,5.36,4.82-.78,2.51-2.53,3.39-4.41,4.17,2.09,.67,15.73,1.84,24.51-7.58"/>
      <path class="cls-23" d="M316.31,177.57l-1.41,2.5s1.64,.43,3.35,.85c1.7,.42,2.52,.1,3.7-1.28,1.4-1.65,2.93-4.09,2.93-4.09l.02-.04c.59-.92,.93-2.01,.93-3.2,0-2.82-1.95-5.17-4.52-5.7l-.05-.02c-6.88-1.29-13.97-1.97-21.21-1.97h-.31c-7.24,0-14.33,.68-21.2,1.97l-.06,.02c-2.58,.53-4.52,2.88-4.52,5.7,0,1.19,.35,2.28,.93,3.2l.02,.04s1.52,2.44,2.93,4.09c1.18,1.37,2,1.7,3.7,1.28,1.7-.43,3.35-.85,3.35-.85l-1.41-2.5-.19-.43-2.71,.42c6.22-1.16,12.62-1.76,19.17-1.76h.31c6.54,0,12.95,.61,19.17,1.76l-2.66-.4-.24,.41h0Z"/>
      <path class="cls-8" d="M316.31,177.57l-1.41,2.5s1.64,.43,3.35,.85c1.7,.42,2.52,.1,3.7-1.28,1.4-1.65,2.93-4.09,2.93-4.09l.02-.04c.59-.92,.93-2.01,.93-3.2,0-2.82-1.95-5.17-4.52-5.7l-.05-.02c-6.88-1.29-13.97-1.97-21.21-1.97h-.31c-7.24,0-14.33,.68-21.2,1.97l-.06,.02c-2.58,.53-4.52,2.88-4.52,5.7,0,1.19,.35,2.28,.93,3.2l.02,.04s1.52,2.44,2.93,4.09c1.18,1.37,2,1.7,3.7,1.28,1.7-.43,3.35-.85,3.35-.85l-1.41-2.5-.19-.43-2.71,.42c6.22-1.16,12.62-1.76,19.17-1.76h.31c6.54,0,12.95,.61,19.17,1.76l-2.66-.4-.24,.41h0Z"/>
      <path class="cls-11" d="M283.36,174.76c-1.09,.23-2.27-.2-2.65-1.99-.33-1.55,.6-2.69,1.63-2.91,1.09-.23,2.27,.18,2.64,1.97,.33,1.56-.59,2.71-1.63,2.93h0Zm-.94-4.29c-.51,.11-.86,.55-.54,2.07,.32,1.51,.89,1.71,1.4,1.61,.51-.11,.85-.57,.53-2.08-.32-1.51-.89-1.7-1.4-1.59Z"/>
      <path class="cls-11" d="M291.55,173.16c-.19,.11-.64,.33-1.12,.39-1.47,.2-2.67-.7-2.86-2.13-.2-1.54,.8-2.62,2.31-2.82,.29-.04,.68-.04,.91,0,.05,0,.1,.05,.11,.11l.15,1.1c0,.06-.02,.09-.09,.11l-.29,.04s-.09-.02-.12-.07l-.12-.37c-.07-.22-.27-.3-.65-.25-.96,.13-1.17,1.01-1.06,1.86,.13,1,.71,1.84,1.87,1.69,.23-.03,.52-.14,.69-.24,.07-.05,.13,0,.16,.06l.13,.4c.02,.05,.01,.12-.03,.15h0Z"/>
      <path class="cls-11" d="M297.96,172.7c0,.07-.03,.13-.08,.13l-3.52,.2c-.06,0-.11-.03-.11-.1v-.21c-.02-.06,0-.11,.08-.13l.33-.09c.07-.02,.12-.09,.11-.24l-.18-3.27c0-.15-.07-.22-.14-.23l-.34-.04c-.07-.01-.1-.05-.11-.11v-.21c-.01-.07,.02-.11,.09-.11l3.41-.19s.1,.05,.1,.11l.05,.92c0,.06-.03,.1-.09,.1l-.25,.02c-.05,0-.1-.03-.11-.09l-.08-.26c-.03-.12-.13-.18-.26-.17l-1.09,.06s-.08,.04-.08,.09l.07,1.16s.04,.08,.09,.08l1.53-.08c.07-.01,.1,.03,.1,.09l.03,.41c0,.06-.04,.11-.09,.11l-1.53,.08s-.08,.04-.08,.09l.07,1.28c0,.2,.11,.24,.24,.23l1.07-.06c.13,0,.23-.08,.25-.21l.05-.27c0-.06,.05-.09,.1-.09l.26-.02c.06,0,.1,.03,.1,.09v.92s0,0,0,0Z"/>
      <path class="cls-11" d="M305.64,172.88l-1.99-.05c-.06,0-.11-.04-.1-.11v-.21c0-.05,.04-.1,.11-.12l.33-.05c.09-.02,.14-.1,.1-.24l-.15-.52s-.03-.08-.08-.08l-1.66-.04s-.07,.04-.09,.08l-.2,.52c-.05,.14,0,.23,.08,.24l.34,.07c.07,.02,.1,.06,.1,.12v.21c0,.07-.05,.1-.11,.1l-1.64-.04c-.07,0-.11-.04-.11-.11v-.21c0-.06,.03-.1,.11-.12l.19-.06c.09-.02,.13-.06,.2-.24l1.72-4.03s.02-.06,.05-.06l.98,.02s.04,.04,.05,.07l1.39,4.11c.06,.18,.1,.21,.19,.25l.2,.07c.07,.02,.1,.06,.09,.12v.21c0,.07-.05,.1-.11,.1h0Zm-2.35-3.45c-.1-.32-.13-.53-.14-.68h-.02c-.01,.11-.09,.37-.2,.67l-.52,1.36c-.03,.06,0,.08,.05,.08l1.19,.03c.06,0,.07-.03,.05-.07l-.41-1.38h0Z"/>
      <path class="cls-11" d="M313.32,169.3l-.34,.03c-.06,0-.13,.07-.15,.22l-.44,3.97s-.03,.05-.07,.05l-.59-.06c-.07,0-.08-.02-.11-.08l-1.55-2.75c-.11-.2-.27-.52-.29-.59h-.01s-.26,2.38-.26,2.38c-.02,.15,.03,.23,.1,.24l.4,.11c.07,.02,.09,.07,.08,.13l-.03,.21c0,.07-.05,.1-.11,.09l-1.81-.2c-.06,0-.1-.04-.09-.12l.02-.21c.01-.06,.04-.1,.11-.11l.35-.03c.07-.01,.13-.07,.15-.22l.36-3.25c.02-.15-.03-.23-.1-.25l-.33-.1c-.07-.02-.09-.07-.08-.12l.02-.21c0-.07,.05-.1,.12-.09l1.46,.16c.09,.01,.12,.07,.17,.15l1.14,2.14c.16,.31,.26,.5,.33,.67h.01l.22-2.01c.01-.15-.03-.23-.1-.25l-.39-.11c-.07-.02-.09-.07-.09-.13l.03-.21c0-.07,.05-.1,.12-.09l1.81,.2c.07,.01,.1,.05,.09,.12l-.02,.21c0,.05-.04,.1-.11,.11h0Z"/>
      <path class="cls-11" d="M317.47,174.51c-1.1-.22-2.01-1.08-1.67-2.86,.3-1.56,1.6-2.24,2.63-2.04,1.1,.21,2.02,1.06,1.67,2.84-.3,1.56-1.61,2.26-2.64,2.06h0Zm.8-4.31c-.51-.1-1,.17-1.3,1.69-.3,1.52,.15,1.93,.67,2.03,.52,.1,1.01-.19,1.3-1.71,.3-1.52-.16-1.91-.67-2.01Z"/>
      <path class="cls-15" d="M346,254.21c-2.64,1.06-4.86,3.07-6.34,5.64l-.03,.06c-.3,.54-.46,1.17-.46,1.85,0,.98,.35,1.87,.93,2.52l.03,.03c.69,.79,1.12,1.86,1.12,3.04,0,2.11-1.35,3.87-3.16,4.29h-.01c-2.14,.49-3.75,2.56-3.75,5.06h4.69c1.03,0,2.08-.58,2.65-1.89,.85-2.09,3.01-5.75,4.9-6.72-.06-.35-.7-1.34-.7-1.72,0-2.96,1.86-2.87,4.37-3.51l.83-.16s-.49-2.02-1.71-4.27c-1.21-2.25-3.36-4.21-3.36-4.21h0Z"/>
      <path class="cls-10" d="M346,254.21c-2.64,1.06-4.86,3.07-6.34,5.64l-.03,.06c-.3,.54-.46,1.17-.46,1.85,0,.98,.35,1.87,.93,2.52l.03,.03c.69,.79,1.12,1.86,1.12,3.04,0,2.11-1.35,3.87-3.16,4.29h-.01c-2.14,.49-3.75,2.56-3.75,5.06h4.69c1.03,0,2.08-.58,2.65-1.89,.85-2.09,3.01-5.75,4.9-6.72-.06-.35-.7-1.34-.7-1.72,0-2.96,1.86-2.87,4.37-3.51l.83-.16s-.49-2.02-1.71-4.27c-1.21-2.25-3.36-4.21-3.36-4.21h0Z"/>
      <path class="cls-15" d="M335.16,223.89l-6.66-10.64-.03-.03c-.63-.97-1.66-1.61-2.83-1.61-1.92,0-3.48,1.72-3.48,3.82h3.48l2.77,5.41,1.78,8.04,1,1.53,.08,.2"/>
      <path class="cls-6" d="M335.16,223.89l-6.66-10.64-.03-.03c-.63-.97-1.66-1.61-2.83-1.61-1.92,0-3.48,1.72-3.48,3.82h3.48l2.77,5.41,1.78,8.04,1,1.53,.08,.2"/>
      <path class="cls-19" d="M361.04,260.93c.05,.52,.08,1.03,.08,1.56,0,.68-.04,1.34-.13,1.99v.07c-.04,.26-.05,.52-.05,.78,0,2.45,1.41,4.54,3.4,5.33v.03c.05,.37,.07,.74,.07,1.11,0,2.29-.68,4.41-1.82,6.13l-.06,.12c-.91,1.42-1.56,3.03-1.88,4.78-.39,1.78-1.73,2.49-2.77,2.49h-5.48c0-2.84,2.1-5.15,4.69-5.15h.04c1.01-1.15,1.65-2.72,1.65-4.44,0-2.65-1.49-4.93-3.59-5.88l-.02-.02c-2.51-1.14-4.27-3.86-4.27-7.01l-.02-.08c-2.19-6.79-6.8-12.33-12.7-15.35h-.04c-4.35-2.09-7.38-6.89-7.38-12.43,0-4.27,1.8-8.07,4.62-10.54,0,0-.04-4.96-.04-6.18-.59-.56-1.09-.96-2.57-2.15-1.94-1.58-3.28-2.69-3.71-5.06-.26-1.49-1.03-6.5,.89-6.19,1.92,.3,4.72,1.54,4.72,1.54,1.13-.49,1.42-1.12,2.69-1.12,.85,0,2.39,.45,3.17,.68,4.24,1.2,7.37,5.42,7.37,10.45l-.08,11.93c0,8.61,3.96,16.21,9.99,20.71l.02,.03c2.54,1.85,4.43,4.71,5.18,8.05v.09c.37,1.53,1.62,2.4,2.74,2.4s2.25-.47,3.1-1.41c1.7-1.87,1.7-4.92,0-6.8-.58-.63-.58-1.66,0-2.29,.57-.64,1.51-.64,2.08,0,2.87,3.13,2.87,8.25,0,11.39-2.7,2.97-7.02,3.13-9.89,.47-.15-1.48-.52-2.89-1.08-4.19,.56,1.29,.92,2.71,1.08,4.19"/>
      <path class="cls-10" d="M361.04,260.93c.05,.52,.08,1.03,.08,1.56,0,.68-.04,1.34-.13,1.99v.07c-.04,.26-.05,.52-.05,.78,0,2.45,1.41,4.54,3.4,5.33v.03c.05,.37,.07,.74,.07,1.11,0,2.29-.68,4.41-1.82,6.13l-.06,.12c-.91,1.42-1.56,3.03-1.88,4.78-.39,1.78-1.73,2.49-2.77,2.49h-5.48c0-2.84,2.1-5.15,4.69-5.15h.04c1.01-1.15,1.65-2.72,1.65-4.44,0-2.65-1.49-4.93-3.59-5.88l-.02-.02c-2.51-1.14-4.27-3.86-4.27-7.01l-.02-.08c-2.19-6.79-6.8-12.33-12.7-15.35h-.04c-4.35-2.09-7.38-6.89-7.38-12.43,0-4.27,1.8-8.07,4.62-10.54,0,0-.04-4.96-.04-6.18-.59-.56-1.09-.96-2.57-2.15-1.94-1.58-3.28-2.69-3.71-5.06-.26-1.49-1.03-6.5,.89-6.19,1.92,.3,4.72,1.54,4.72,1.54,1.13-.49,1.42-1.12,2.69-1.12,.85,0,2.39,.45,3.17,.68,4.24,1.2,7.37,5.42,7.37,10.45l-.08,11.93c0,8.61,3.96,16.21,9.99,20.71l.02,.03c2.54,1.85,4.43,4.71,5.18,8.05v.09c.37,1.53,1.62,2.4,2.74,2.4s2.25-.47,3.1-1.41c1.7-1.87,1.7-4.92,0-6.8-.58-.63-.58-1.66,0-2.29,.57-.64,1.51-.64,2.08,0,2.87,3.13,2.87,8.25,0,11.39-2.7,2.97-7.02,3.13-9.89,.47-.15-1.48-.52-2.89-1.08-4.19,.56,1.29,.92,2.71,1.08,4.19"/>
      <path class="cls-19" d="M344.83,212.79s.74,2.26-.26,4.5c-.69,1.56-2.1,2.46-3.58,2.48-.9-1.29-1.12-3.07-.43-4.62,.07-.16,1.66-3.67,1.66-3.67"/>
      <path class="cls-10" d="M344.83,212.79s.74,2.26-.26,4.5c-.69,1.56-2.1,2.46-3.58,2.48-.9-1.29-1.12-3.07-.43-4.62,.07-.16,1.66-3.67,1.66-3.67"/>
      <path class="cls-17" d="M336.16,209.56c.44,.2,.89,.23,1.27,.14-.22-.36-.56-.68-1.01-.87l-.26,.73h0Z"/>
      <path class="cls-3" d="M336.16,209.56c.44,.2,.89,.23,1.27,.14-.22-.36-.56-.68-1.01-.87l-.26,.73h0Z"/>
      <path class="cls-19" d="M336.18,233.01c-2.88,1.68-6.09,0-7.67-2.81-.56-.97-.26-2.59-.57-3.55l-.03-.06c-.34-1.05-1.25-1.8-2.33-1.8v7.97s.69,.76,2.5,2.76c1.81,1.99,3.8,4.82,5.89,4.15,2.08-.66,8.95-2.41,8.95-2.41"/>
      <path class="cls-10" d="M336.18,233.01c-2.88,1.68-6.09,0-7.67-2.81-.56-.97-.26-2.59-.57-3.55l-.03-.06c-.34-1.05-1.25-1.8-2.33-1.8v7.97s.69,.76,2.5,2.76c1.81,1.99,3.8,4.82,5.89,4.15,2.08-.66,8.95-2.41,8.95-2.41"/>
      <path class="cls-11" d="M331.78,205c0,1.76-1.3,3.2-2.9,3.2v-2.06c0-.85,.27-1.26,1.03-1.14h1.87Z"/>
      <g>
        <path class="cls-1" d="M331.78,205.1c0,1.76-1.3,3.2-2.9,3.2v-2.06c0-.85,.27-1.26,1.03-1.14h1.87Z"/>
        <path class="cls-10" d="M328.99,210.44s1.95,2.15,4.38,2.83"/>
      </g>
    </g>
    <g>
      <path class="cls-13" d="M287.92,212.15c-.14-.02-.28-.1-.39-.21-.12-.13-.18-.26-.19-.43-.03-.32,.18-.62,.49-.72,.09-.03,.26-.03,.35,0,.29,.09,.49,.36,.49,.66,0,.43-.35,.75-.76,.7h0Z"/>
      <path class="cls-13" d="M295.35,210.45c-.14-.04-.27-.12-.37-.24-.18-.22-.2-.56-.04-.8,.31-.5,1.01-.4,1.2,.16,.03,.11,.03,.31,0,.43-.11,.34-.45,.54-.78,.45h0Z"/>
      <path class="cls-13" d="M312.1,212.15c-.25-.04-.47-.24-.54-.51-.03-.09-.03-.28,0-.38,.07-.23,.24-.41,.47-.48,.08-.02,.25-.03,.34,0,.17,.04,.36,.19,.44,.36,.04,.09,.08,.23,.08,.32s-.03,.23-.08,.32c-.12,.25-.42,.42-.69,.37h0Z"/>
      <path class="cls-13" d="M304.61,210.47c-.09-.02-.19-.06-.27-.12-.41-.3-.37-.95,.09-1.18,.22-.11,.45-.1,.66,.05,.46,.31,.37,1.03-.15,1.22-.08,.03-.26,.05-.33,.04h0Z"/>
    </g>
    <path class="cls-19" d="M335.35,275.02c.62-1.54,.93-1.83,2.84-2.71,2.01-.93,3-1.93,3.45-3.49,.42-1.46,.15-2.97-.82-4.6-1.14-1.91-1.22-2.42-.62-3.84,.62-1.45,2.85-3.82,4.49-4.77l1.13-.65,.94,1.14c1.12,1.35,3.13,5.43,2.94,5.95-.08,.2-.62,.46-1.21,.58-2.38,.46-3.39,1.77-3.09,4.03,.15,1.09,.07,1.34-.56,1.95-.92,.88-2.61,3.43-3.57,5.38-.41,.83-.98,1.64-1.28,1.81-.3,.16-1.56,.3-2.81,.3h-2.27l.43-1.06Z"/>
    <g>
      <path class="cls-14" d="M283.6,208.54c-.48-.8-.59-1.29-.45-2.04,.15-.84,.08-1.06-.5-1.45-.37-.25-.79-.43-.92-.39-.36,.1-2.35-.71-2.35-.96,0-.43,.99-.75,1.89-.61,.56,.09,.91,.31,.91,.58,0,.31,.1,.35,.35,.15,.19-.16,.73-.38,1.19-.49s.9-.23,.98-.26c.08-.03,.16,.47,.18,1.11,.03,.85-.11,1.28-.53,1.62-.56,.46-.56,.48-.05,1.37,.29,.5,.69,.91,.89,.91,.45,0,.93-1.21,.78-1.99-.16-.86,.55-.96,1.27-.16,.85,.94,2.07,.93,2.66,0,.76-1.19,.45-1.75-.91-1.65-.88,.07-1.34-.07-1.87-.55-.72-.65-.72-1.43,0-1.43,.22,0,.48-.2,.57-.45,.09-.25,.34-.38,.55-.3,.21,.08,.38-.02,.38-.23,0-.6,.85-2.21,1.17-2.21,.43,0,1.62,1.24,1.63,1.7,0,.31,.09,.32,.4,.06,.23-.19,.46-.23,.55-.07,.09,.15,.49,.23,.89,.18,.7-.08,.73-.04,.55,.98-.21,1.2-.79,1.79-1.77,1.79-.91,0-.75,1.04,.28,1.84l.77,.59,.76-.59c.42-.32,.84-.9,.94-1.29,.21-.85,.78-.77,1.48,.19,.9,1.24,2.99,.71,2.99-.76,0-.38-.2-.56-.63-.56-1.04,0-1.89-.33-1.89-.72,0-.2-.19-.53-.42-.73-.65-.55-.51-1.16,.26-1.16,.38,0,.77-.14,.87-.31,.1-.17,.43-.25,.73-.17,.39,.11,.52,.01,.47-.34-.04-.27,.27-.86,.69-1.32l.76-.84,.7,.78c.39,.43,.7,1.02,.7,1.32,0,.39,.15,.5,.56,.39,.31-.08,.56,0,.56,.17s.32,.32,.7,.32c.8,0,.93,.59,.28,1.27-.23,.24-.39,.6-.35,.8,.08,.39-.09,.44-1.61,.5-.75,.03-.98,.16-.98,.57,0,1.43,2.18,2.01,2.96,.79,.72-1.13,1.2-1.14,1.65-.04,.58,1.42,1.43,1.82,2.37,1.1,.96-.74,1.15-1.81,.32-1.81-.88,0-1.69-.53-1.51-.99,.08-.22,.01-.49-.15-.59-.16-.11-.3-.43-.3-.71,0-.38,.18-.5,.7-.44,.39,.04,.77-.03,.85-.17,.08-.14,.34-.18,.56-.09,.26,.1,.41-.01,.41-.3,0-.26,.19-.46,.43-.46s.5-.2,.59-.43c.24-.64,1.22-.55,1.22,.11,0,.3,.18,.62,.4,.71,.26,.1,.34,.39,.24,.8-.1,.41-.06,.57,.13,.45,.16-.1,.45,0,.64,.24s.51,.43,.72,.43c.69,0,.74,.62,.1,1.32-.48,.53-.93,.7-1.82,.7-1.39,0-1.77,.58-1.1,1.63,.57,.9,1.65,.88,2.74-.06,.95-.82,1.32-.61,1.33,.78,0,.98,.77,1.71,1.16,1.1,.86-1.33,.89-1.51,.32-1.98-.44-.37-.53-.71-.43-1.69,.12-1.11,.18-1.2,.68-.92,.3,.17,.72,.24,.93,.16,.21-.08,.46,.07,.56,.34,.17,.44,.22,.43,.51-.09,.46-.8,2.72-.72,2.72,.1,0,.27-1.7,1.02-2.23,.99-.23-.02-.65,.11-.94,.27-.43,.23-.5,.5-.38,1.31,.12,.77,0,1.28-.53,2.14-.86,1.41-1.75,1.49-2.87,.28-.68-.74-.93-.83-1.91-.69-.93,.13-1.27,.03-2.01-.61-.72-.62-.99-.71-1.44-.46-.99,.55-2.41,.36-3.23-.42-.7-.67-.81-.69-1.37-.29-.82,.59-1.84,.55-2.9-.12-.76-.48-.93-.5-1.28-.13-.64,.66-2.35,.83-3.12,.31-.62-.42-.72-.4-1.45,.25-.85,.75-1.95,.89-3.04,.38-.57-.27-.78-.22-1.27,.28-.71,.73-1.75,1.03-2.71,.79-.54-.14-.86-.01-1.33,.55-.34,.4-1.02,.81-1.5,.9-.78,.15-.94,.06-1.5-.88h0Zm7.91-5.55c.3-.67,.26-.82-.33-1.31-.58-.49-.73-.5-1.25-.15-1.14,.78-.77,2.22,.57,2.22,.45,0,.78-.25,1.01-.76h0Zm18.96,.41c.47-.48,.42-1.26-.1-1.8-.58-.59-.85-.57-1.52,.12-.79,.81-.28,2.02,.85,2.03,.24,0,.59-.15,.77-.34h0Zm-9.64-.98c.53-.54,.57-1.32,.1-1.8-1.09-1.12-2.8,.5-1.77,1.68,.61,.7,1.08,.73,1.66,.13h0Z"/>
      <path class="cls-14" d="M283.48,208.32c-.53-.91-.63-1.34-.43-1.74,.31-.59-.1-1.65-.67-1.73-.76-.1-.94-.15-1.95-.54-.58-.22-1.05-.5-1.05-.63,0-.7,2.39-.94,2.78-.28,.16,.27,.47,.26,1.38-.06,.64-.23,1.22-.33,1.28-.23,.06,.1,.11,.67,.11,1.27,0,.77-.15,1.18-.53,1.38-.68,.37-.67,.6,.06,1.55,.74,.97,1.37,.57,1.37-.86,0-1.3,.45-1.5,1.37-.59,.99,.98,2.11,.99,2.72,.03,.67-1.06,.34-1.59-1-1.59-.76,0-1.36-.21-1.83-.63-.88-.79-.88-1.05,0-1.39,.39-.15,.7-.41,.7-.57s.19-.3,.42-.3,.42-.26,.42-.58,.1-.58,.23-.58,.35-.33,.49-.73l.26-.73,.91,.66c.5,.36,.91,.8,.91,.98,0,.17,.53,.34,1.17,.36,.64,.03,1.23,.11,1.29,.18s.01,.62-.13,1.23c-.2,.88-.43,1.16-1.14,1.4-1.18,.4-1.3,.56-.93,1.26,.8,1.54,2.28,1.33,2.99-.43,.22-.54,.46-.99,.53-.99s.51,.39,.99,.87c.98,.99,1.94,1.11,2.62,.34,.84-.95,.6-1.5-.66-1.5-.93,0-1.17-.12-1.39-.7-.14-.38-.39-.78-.55-.89-.56-.36-.31-1.02,.39-1.02,.38,0,.76-.13,.86-.29s.43-.29,.73-.29,.48-.13,.38-.3c-.1-.17,.21-.71,.68-1.21l.86-.91,.71,.79c.39,.43,.71,.98,.71,1.21s.25,.42,.56,.42,.56,.13,.56,.29,.32,.29,.7,.29c.82,0,.85,.15,.28,1.56-.4,.98-.5,1.05-1.68,1.05-1.04,0-1.26,.09-1.26,.53,0,.71,.87,1.49,1.65,1.49,.34,0,.99-.41,1.44-.92,.9-1.01,.95-1,1.63,.39,.55,1.14,1.75,1.44,2.6,.65,.73-.68,.7-1.57-.04-1.57-.87,0-1.73-.57-1.56-1.03,.08-.22,.03-.48-.12-.57s-.27-.42-.27-.73c0-.43,.21-.57,.91-.6,.5-.02,1.07-.01,1.26,.01,.19,.03,.35-.15,.35-.4s.19-.45,.43-.45,.5-.2,.59-.43c.2-.54,1.22-.57,1.22-.04,0,.22,.18,.55,.39,.73,.22,.18,.33,.59,.25,.91-.11,.44-.04,.53,.31,.39,.25-.1,.45-.04,.45,.15s.32,.45,.7,.6c.86,.34,.86,.51,.03,1.49-.55,.65-.82,.74-1.78,.63-1.29-.15-1.64,.28-1.1,1.39,.49,1.03,1.73,1.07,2.71,.1,.94-.93,1.39-.74,1.39,.57,0,1.14,.73,1.96,1.15,1.3,.86-1.34,.89-1.51,.29-1.98-.48-.38-.56-.66-.42-1.55,.16-1.02,.23-1.08,1.06-1,.49,.05,1.04,.19,1.23,.31,.2,.12,.4,.05,.49-.17,.24-.64,2.66-.36,2.66,.31,0,.27-1.7,1.02-2.23,.99-.23-.02-.65,.11-.94,.27-.43,.24-.5,.5-.37,1.37,.13,.85,.02,1.29-.54,2.14-.88,1.34-1.83,1.42-2.89,.26-.63-.69-.92-.8-1.89-.7-.92,.09-1.31-.03-2.02-.65-.71-.62-.99-.71-1.44-.46-.89,.49-2.26,.35-3.16-.31-.7-.51-.95-.56-1.53-.29-.94,.44-1.66,.41-2.67-.13-.78-.41-.94-.41-1.78,0-1.1,.54-1.83,.57-2.78,.13-.58-.27-.82-.23-1.45,.29-.77,.62-2.03,.77-3.05,.35-.38-.15-.86,0-1.54,.48-.73,.51-1.26,.66-1.98,.57-.78-.1-1.17,.05-1.9,.7-1.33,1.19-2.12,1.09-2.97-.39h0Zm7.96-5.16c.21-.41,.21-.75,0-1.16-.53-1.02-2.24-.58-2.24,.58s1.71,1.6,2.24,.58Zm19.02,.23c.49-.51,.41-1.23-.2-1.8-.43-.4-.66-.44-1.12-.18-1.01,.56-.6,2.33,.54,2.33,.25,0,.6-.16,.79-.35h0Zm-9.72-1c.88-.82,.48-2.13-.65-2.13-.52,0-1.37,.73-1.37,1.18,0,.31,1.03,1.43,1.31,1.43,.1,0,.42-.22,.7-.48h0Z"/>
      <path class="cls-14" d="M283.56,208.47c-.42-.71-.61-1.43-.57-2.17,.06-1.09-.11-1.32-1.13-1.5-.8-.14-2.48-.88-2.48-1.09,0-.75,2.36-.91,2.83-.19,.09,.14,.68,.06,1.31-.17s1.22-.34,1.31-.25,.17,.66,.17,1.26c0,.79-.17,1.21-.59,1.52l-.59,.43,.62,.9c.5,.72,.7,.83,1.02,.56,.22-.19,.39-.77,.39-1.3,0-1.3,.41-1.47,1.43-.58,1.04,.9,1.75,.94,2.52,.15,.93-.96,.61-1.56-.9-1.66-.95-.06-1.47-.28-1.96-.82-.66-.73-.66-.74-.11-1.13,.31-.22,.71-.54,.9-.7,.19-.16,.47-.3,.63-.3s.29-.2,.29-.44c0-.36,.41-1.2,1.02-2.12,.13-.19,1.75,1.26,1.77,1.58,0,.17,.54,.34,1.18,.36,.64,.03,1.23,.11,1.29,.18s.01,.62-.13,1.23c-.2,.88-.43,1.16-1.14,1.4-1.24,.42-1.34,.59-.8,1.44,.38,.59,.66,.73,1.37,.66,.72-.07,1-.3,1.41-1.17,.28-.6,.61-1.09,.72-1.09s.57,.39,1.01,.87c.93,1,1.81,1.11,2.52,.3,.72-.82,.36-1.46-.83-1.46-.8,0-1.05-.14-1.25-.7-.14-.38-.39-.78-.55-.89-.48-.31-.34-1.02,.21-1.02,.71,0,2.02-.66,2.02-1.03,0-.17,.38-.69,.85-1.15l.85-.84,.69,.77c.38,.42,.69,.97,.69,1.22s.24,.45,.54,.45,.62,.13,.72,.29c.1,.16,.42,.29,.72,.29,.66,0,.67,.2,.12,1.56-.4,.98-.5,1.05-1.68,1.05-1.42,0-1.65,.47-.7,1.45,.78,.8,1.44,.72,2.38-.29,.44-.48,.92-.87,1.05-.87s.42,.44,.64,.98c.62,1.53,2.05,1.83,2.83,.6,.53-.84,.43-1.01-.81-1.43-.71-.24-.94-.52-1.14-1.4-.14-.61-.2-1.16-.13-1.23s.65-.15,1.29-.18c.77-.03,1.17-.18,1.17-.43,0-.21,.19-.39,.43-.39s.5-.2,.59-.43c.2-.54,1.22-.57,1.22-.04,0,.22,.18,.55,.4,.74s.34,.53,.25,.76c-.08,.23,0,.41,.17,.41s.47,.13,.66,.3c.19,.16,.58,.47,.88,.69,.53,.38,.53,.41-.14,1.27-.58,.75-.86,.88-1.8,.83-.95-.05-1.14,.04-1.21,.56-.1,.73,.61,1.56,1.35,1.56,.29,0,.91-.33,1.38-.74,1.02-.89,1.43-.72,1.43,.58s.59,1.8,1.18,1.1c.84-1.01,.88-1.3,.27-1.77-.49-.38-.57-.66-.42-1.56,.16-1.02,.23-1.08,1.06-1,.49,.05,1.04,.19,1.23,.31,.19,.12,.4,.05,.48-.16,.26-.71,2.66-.43,2.66,.31,0,.32-1.37,.96-2.34,1.08-1.22,.16-1.39,.38-1.21,1.53,.13,.84,.02,1.29-.54,2.13-.87,1.32-1.8,1.41-2.9,.28-.62-.64-.98-.78-1.87-.71-.82,.06-1.34-.1-2.05-.64-.72-.55-1.07-.66-1.45-.45-.86,.48-2.38,.31-3.19-.34-.64-.52-.87-.56-1.45-.29-.99,.47-1.81,.4-2.79-.21-.84-.53-.87-.53-1.5,0-.73,.61-1.91,.7-2.93,.22-.57-.27-.82-.21-1.54,.33-.72,.55-1.08,.63-2.28,.48-1.13-.14-1.62-.05-2.38,.41-.62,.38-1.33,.55-2.01,.49-.84-.07-1.2,.07-1.82,.7-1.1,1.13-2.02,1.05-2.8-.27h0Zm7.49-4.95c.47-.33,.63-1.03,.34-1.59-.34-.69-1.54-.65-1.92,.07-.57,1.1,.57,2.2,1.57,1.51h0Zm19.58-.43c.42-.7-.09-1.49-1.04-1.61-.59-.07-.77,.06-.91,.65-.34,1.41,1.21,2.18,1.96,.95h0Zm-9.47-1.23c.22-.59-.41-1.6-.99-1.6-.84,0-1.54,1-1.18,1.69,.16,.32,.46,.64,.65,.71,.45,.17,1.32-.29,1.51-.8h0Z"/>
      <path class="cls-14" d="M283.56,208.47c-.42-.71-.61-1.43-.57-2.17,.06-1.09-.11-1.32-1.13-1.5-.8-.14-2.48-.88-2.48-1.09,0-.75,2.36-.91,2.83-.19,.09,.14,.68,.06,1.31-.17s1.22-.34,1.31-.25,.17,.66,.17,1.26c0,.79-.17,1.21-.59,1.52l-.59,.43,.62,.9c.5,.72,.7,.83,1.02,.56,.22-.19,.39-.77,.39-1.3,0-1.3,.41-1.47,1.43-.58,1.04,.9,1.75,.94,2.52,.15,.93-.96,.61-1.56-.9-1.66-.95-.06-1.47-.28-1.96-.82-.66-.73-.66-.74-.11-1.13,.31-.22,.71-.54,.9-.7,.19-.16,.47-.3,.63-.3s.29-.2,.29-.44c0-.36,.41-1.2,1.02-2.12,.13-.19,1.75,1.26,1.77,1.58,0,.17,.54,.34,1.18,.36,.64,.03,1.23,.11,1.29,.18s.01,.62-.13,1.23c-.2,.88-.43,1.16-1.14,1.4-1.24,.42-1.34,.59-.8,1.44,.38,.59,.66,.73,1.37,.66,.72-.07,1-.3,1.41-1.17,.28-.6,.61-1.09,.72-1.09s.57,.39,1.01,.87c.93,1,1.81,1.11,2.52,.3,.72-.82,.36-1.46-.83-1.46-.8,0-1.05-.14-1.25-.7-.14-.38-.39-.78-.55-.89-.48-.31-.34-1.02,.21-1.02,.71,0,2.02-.66,2.02-1.03,0-.17,.38-.69,.85-1.15l.85-.84,.69,.77c.38,.42,.69,.97,.69,1.22s.24,.45,.54,.45,.62,.13,.72,.29c.1,.16,.42,.29,.72,.29,.66,0,.67,.2,.12,1.56-.4,.98-.5,1.05-1.68,1.05-1.42,0-1.65,.47-.7,1.45,.78,.8,1.44,.72,2.38-.29,.44-.48,.92-.87,1.05-.87s.42,.44,.64,.98c.62,1.53,2.05,1.83,2.83,.6,.53-.84,.43-1.01-.81-1.43-.71-.24-.94-.52-1.14-1.4-.14-.61-.2-1.16-.13-1.23s.65-.15,1.29-.18c.77-.03,1.17-.18,1.17-.43,0-.21,.19-.39,.43-.39s.5-.2,.59-.43c.2-.54,1.22-.57,1.22-.04,0,.22,.18,.55,.4,.74s.34,.53,.25,.76c-.08,.23,0,.41,.17,.41s.47,.13,.66,.3c.19,.16,.58,.47,.88,.69,.53,.38,.53,.41-.14,1.27-.58,.75-.86,.88-1.8,.83-.95-.05-1.14,.04-1.21,.56-.1,.73,.61,1.56,1.35,1.56,.29,0,.91-.33,1.38-.74,1.02-.89,1.43-.72,1.43,.58s.59,1.8,1.18,1.1c.84-1.01,.88-1.3,.27-1.77-.49-.38-.57-.66-.42-1.56,.16-1.02,.23-1.08,1.06-1,.49,.05,1.04,.19,1.23,.31,.19,.12,.4,.05,.48-.16,.26-.71,2.66-.43,2.66,.31,0,.32-1.37,.96-2.34,1.08-1.22,.16-1.39,.38-1.21,1.53,.13,.84,.02,1.29-.54,2.13-.87,1.32-1.8,1.41-2.9,.28-.62-.64-.98-.78-1.87-.71-.82,.06-1.34-.1-2.05-.64-.72-.55-1.07-.66-1.45-.45-.86,.48-2.38,.31-3.19-.34-.64-.52-.87-.56-1.45-.29-.99,.47-1.81,.4-2.79-.21-.84-.53-.87-.53-1.5,0-.73,.61-1.91,.7-2.93,.22-.57-.27-.82-.21-1.54,.33-.72,.55-1.08,.63-2.28,.48-1.13-.14-1.62-.05-2.38,.41-.62,.38-1.33,.55-2.01,.49-.84-.07-1.2,.07-1.82,.7-1.1,1.13-2.02,1.05-2.8-.27h0Zm7.49-4.95c.47-.33,.63-1.03,.34-1.59-.34-.69-1.54-.65-1.92,.07-.57,1.1,.57,2.2,1.57,1.51h0Zm19.58-.43c.42-.7-.09-1.49-1.04-1.61-.59-.07-.77,.06-.91,.65-.34,1.41,1.21,2.18,1.96,.95h0Zm-9.47-1.23c.22-.59-.41-1.6-.99-1.6-.84,0-1.54,1-1.18,1.69,.16,.32,.46,.64,.65,.71,.45,.17,1.32-.29,1.51-.8h0Z"/>
      <path class="cls-14" d="M283.56,208.47c-.42-.71-.61-1.43-.57-2.17,.06-1.09-.11-1.32-1.13-1.5-.8-.14-2.48-.88-2.48-1.09,0-.75,2.36-.91,2.83-.19,.09,.14,.68,.06,1.31-.17s1.22-.34,1.31-.25,.17,.66,.17,1.26c0,.79-.17,1.21-.59,1.52l-.59,.43,.62,.9c.5,.72,.7,.83,1.02,.56,.22-.19,.39-.77,.39-1.3,0-1.3,.41-1.47,1.43-.58,1.04,.9,1.75,.94,2.52,.15,.93-.96,.61-1.56-.9-1.66-.95-.06-1.47-.28-1.96-.82-.66-.73-.66-.74-.11-1.13,.31-.22,.71-.54,.9-.7,.19-.16,.47-.3,.63-.3s.29-.2,.29-.44c0-.36,.41-1.2,1.02-2.12,.13-.19,1.75,1.26,1.77,1.58,0,.17,.54,.34,1.18,.36,.64,.03,1.23,.11,1.29,.18s.01,.62-.13,1.23c-.2,.88-.43,1.16-1.14,1.4-1.24,.42-1.34,.59-.8,1.44,.38,.59,.66,.73,1.37,.66,.72-.07,1-.3,1.41-1.17,.28-.6,.61-1.09,.72-1.09s.57,.39,1.01,.87c.93,1,1.81,1.11,2.52,.3,.72-.82,.36-1.46-.83-1.46-.8,0-1.05-.14-1.25-.7-.14-.38-.39-.78-.55-.89-.48-.31-.34-1.02,.21-1.02,.71,0,2.02-.66,2.02-1.03,0-.17,.38-.69,.85-1.15l.85-.84,.69,.77c.38,.42,.69,.97,.69,1.22s.24,.45,.54,.45,.62,.13,.72,.29c.1,.16,.42,.29,.72,.29,.66,0,.67,.2,.12,1.56-.4,.98-.5,1.05-1.68,1.05-1.42,0-1.65,.47-.7,1.45,.78,.8,1.44,.72,2.38-.29,.44-.48,.92-.87,1.05-.87s.42,.44,.64,.98c.62,1.53,2.05,1.83,2.83,.6,.53-.84,.43-1.01-.81-1.43-.71-.24-.94-.52-1.14-1.4-.14-.61-.2-1.16-.13-1.23s.65-.15,1.29-.18c.77-.03,1.17-.18,1.17-.43,0-.21,.19-.39,.43-.39s.5-.2,.59-.43c.2-.54,1.22-.57,1.22-.04,0,.22,.18,.55,.4,.74s.34,.53,.25,.76c-.08,.23,0,.41,.17,.41s.47,.13,.66,.3c.19,.16,.58,.47,.88,.69,.53,.38,.53,.41-.14,1.27-.58,.75-.86,.88-1.8,.83-.95-.05-1.14,.04-1.21,.56-.1,.73,.61,1.56,1.35,1.56,.29,0,.91-.33,1.38-.74,1.02-.89,1.43-.72,1.43,.58s.59,1.8,1.18,1.1c.84-1.01,.88-1.3,.27-1.77-.49-.38-.57-.66-.42-1.56,.16-1.02,.23-1.08,1.06-1,.49,.05,1.04,.19,1.23,.31,.19,.12,.4,.05,.48-.16,.26-.71,2.66-.43,2.66,.31,0,.32-1.37,.96-2.34,1.08-1.22,.16-1.39,.38-1.21,1.53,.13,.84,.02,1.29-.54,2.13-.87,1.32-1.8,1.41-2.9,.28-.62-.64-.98-.78-1.87-.71-.82,.06-1.34-.1-2.05-.64-.72-.55-1.07-.66-1.45-.45-.86,.48-2.38,.31-3.19-.34-.64-.52-.87-.56-1.45-.29-.99,.47-1.81,.4-2.79-.21-.84-.53-.87-.53-1.5,0-.73,.61-1.91,.7-2.93,.22-.57-.27-.82-.21-1.54,.33-.72,.55-1.08,.63-2.28,.48-1.13-.14-1.62-.05-2.38,.41-.62,.38-1.33,.55-2.01,.49-.84-.07-1.2,.07-1.82,.7-1.1,1.13-2.02,1.05-2.8-.27h0Zm7.49-4.95c.47-.33,.63-1.03,.34-1.59-.34-.69-1.54-.65-1.92,.07-.57,1.1,.57,2.2,1.57,1.51h0Zm19.58-.43c.42-.7-.09-1.49-1.04-1.61-.59-.07-.77,.06-.91,.65-.34,1.41,1.21,2.18,1.96,.95h0Zm-9.47-1.23c.22-.59-.41-1.6-.99-1.6-.84,0-1.54,1-1.18,1.69,.16,.32,.46,.64,.65,.71,.45,.17,1.32-.29,1.51-.8h0Z"/>
      <path class="cls-14" d="M284.32,209.46c-.24-.17-1.19-1.63-1.38-2.1-.1-.26-.09-.34,.07-.68,.1-.21,.19-.56,.19-.77,0-.71-.79-1.34-1.52-1.2-.25,.05-.44,0-.95-.27-.35-.18-.66-.3-.69-.27s-.06,.01-.06-.04-.13-.13-.3-.17-.33-.09-.37-.11c-.1-.06,.29-.48,.59-.65,.26-.14,1.19-.24,1.19-.13,0,.12,.31,.15,.53,.05,.17-.08,.25-.05,.41,.14,.11,.13,.21,.33,.23,.46,.03,.32,.12,.37,.24,.15,.2-.35,.52-.63,.63-.56,.22,.14,.43,.12,.95-.12,.29-.13,.58-.22,.65-.19,.09,.04,.12,.27,.12,.89,0,.48,.04,.88,.1,.94,.18,.19,0,.49-.59,.95-.31,.24-.58,.46-.61,.47-.12,.1,1.17,1.83,1.36,1.83,.09,0,.3-.15,.47-.33,.31-.33,.32-.36,.36-1.28,.05-1.02,.11-1.13,.57-1.13,.2,0,.33,.11,.62,.52,.2,.29,.5,.59,.66,.67,.44,.23,1.28,.2,1.69-.06,.53-.34,.68-.68,.68-1.55v-.75s-.3,.06-.3,.06c-.16,.03-.76,.09-1.33,.12-1.03,.06-1.03,.06-1.12-.17-.05-.12-.07-.26-.05-.29,.04-.07-.43-.44-.56-.43-.11,0-.32-.39-.32-.6,0-.22,.3-.46,.75-.6,.38-.12,.47-.2,.58-.56,.04-.14,.12-.16,.51-.11,.39,.05,.46,.04,.46-.09,0-.08-.05-.2-.12-.26-.06-.06-.1-.25-.08-.41,.03-.23,.1-.32,.3-.4,.21-.08,.27-.16,.27-.37,0-.31,.29-1.02,.46-1.12,.07-.04,.28,.1,.54,.36,.24,.24,.59,.51,.8,.6,.33,.16,.37,.21,.39,.55,.04,.62,.08,.66,.38,.43,.32-.23,.5-.25,.65-.05,.08,.1,.31,.14,.84,.14,.86,0,.93,.08,.68,.75-.09,.24-.17,.51-.17,.6,0,.09-.04,.17-.08,.17s-.05,.15-.02,.33c.05,.3,.03,.35-.24,.52-.17,.1-.46,.22-.65,.25-.19,.03-.37,.1-.4,.14-.03,.05-.11,.06-.19,.03s-.26,0-.41,.06c-.24,.1-.27,.16-.27,.52,0,1,1.39,1.91,2.24,1.46,.52-.28,1.07-1,1.07-1.41,0-.11,.06-.32,.14-.48,.11-.23,.2-.28,.45-.28s.38,.08,.71,.49c.88,1.09,1.29,1.32,1.98,1.13,.68-.19,1.32-.96,1.16-1.39-.04-.1-.02-.14,.04-.1,.08,.05,.21-.32,.21-.61,0-.05-.49-.08-1.09-.08s-1.22-.05-1.39-.11c-.28-.1-.3-.13-.25-.43,.04-.28,0-.38-.36-.8-.52-.6-.54-.89-.09-1.09,.18-.08,.44-.14,.59-.14s.3-.04,.33-.1c.03-.05,.1-.07,.14-.04,.05,.03,.13-.05,.19-.19,.13-.28,.12-.28,.63-.1,.21,.08,.41,.14,.44,.14s.02-.27-.02-.61c-.07-.64-.02-.74,.35-.76,.13,0,.3-.18,.5-.48,.61-.95,.68-.97,1.06-.25,.29,.54,.49,.74,.8,.79,.22,.03,.23,.05,.2,.67-.02,.35,0,.64,.05,.64,.04,0,.18-.06,.31-.14,.27-.16,.64-.19,.64-.05,0,.19,.37,.47,.62,.47,.4,0,.95,.19,1.01,.35,.07,.18-.17,.63-.54,1.04-.23,.25-.26,.34-.21,.63,.06,.31,.04,.34-.24,.44-.16,.06-.79,.11-1.39,.11h-1.09v.36c0,.5,.38,1.28,.75,1.55,.25,.18,.42,.23,.91,.23,.73,0,1.04-.2,1.54-.98,.32-.5,.37-.54,.73-.57,.37-.03,.4-.01,.54,.33,.08,.2,.15,.39,.14,.43-.03,.15,.34,.9,.55,1.1,.47,.45,1.42,.54,1.9,.17,.56-.43,1.04-1.33,.9-1.7-.03-.08-.27-.19-.59-.25-1.39-.28-1.72-.47-1.63-.94,.04-.19-.03-.46-.2-.86-.35-.8-.28-.89,.64-.93,.39-.02,.7-.07,.7-.12s.08-.13,.17-.18c.13-.07,.25-.04,.51,.15,.19,.14,.36,.23,.38,.2,.02-.02,0-.18-.04-.35-.05-.17-.05-.3,0-.3s.09-.09,.11-.21c.02-.16,.12-.23,.41-.29,.3-.06,.43-.15,.62-.45,.45-.71,.81-.59,1.16,.38,.16,.44,.25,.58,.43,.62,.2,.05,.22,.1,.18,.31-.03,.14-.08,.39-.11,.57l-.06,.32,.38-.07c.32-.06,.39-.04,.43,.11,.11,.36,.21,.46,.46,.46,.15,0,.29,.03,.31,.06,.03,.03,.18,.13,.35,.22,.48,.25,.46,.38-.11,1-.35,.38-.52,.64-.52,.8,0,.22-.03,.24-.39,.24-.21,0-.78-.06-1.26-.14-.97-.15-1.05-.12-1.15,.38-.17,.91,.54,1.88,1.42,1.95,.72,.05,.81,.01,1.52-.67,.69-.66,1.04-.82,1.2-.55,.04,.06,.1,.52,.13,1.01,.04,.64,.1,.92,.2,1,.08,.06,.14,.14,.13,.19,0,.05,.11,.17,.25,.28,.2,.15,.29,.17,.41,.1,.18-.12,.87-1.09,.81-1.15-.02-.02,.04-.12,.14-.22,.27-.28,.22-.41-.33-.84-.63-.49-.78-.78-.55-1.04,.13-.14,.16-.33,.14-.88-.01-.38-.01-.74,0-.81,.01-.12,.27-.06,.87,.2,.24,.11,.47,.14,.68,.1,.29-.06,.35-.03,.62,.3l.3,.36,.1-.39c.13-.52,.31-.67,.64-.54,.14,.05,.33,.06,.43,.02,.53-.21,1.29-.03,1.77,.42,.28,.26,.26,.35-.07,.35-.15,0-.28,.05-.28,.1s-.04,.07-.09,.04c-.12-.08-.81,.29-1.12,.59-.19,.18-.31,.22-.48,.18-.13-.03-.34-.09-.47-.12-.34-.09-.74,.12-1.01,.54-.35,.54-.38,.83-.14,1.39l.2,.49-.28,.51c-.15,.28-.26,.54-.22,.57,.03,.03,.01,.06-.04,.06s-.25,.24-.45,.53c-.2,.29-.45,.59-.56,.67-.6,.41-1.96-.43-2.65-1.63-.09-.15-.13-.15-.44-.04-.19,.07-.34,.15-.34,.18s-.32,.05-.71,.05c-.93,0-1.63-.33-2.25-1.02l-.43-.48-.58,.32c-.53,.3-.65,.32-1.36,.32-.94,0-1.4-.2-2.07-.91l-.43-.45-.64,.34c-.51,.27-.77,.35-1.27,.38-.88,.05-1.21-.08-2.44-.97-.09-.06-.23,0-.49,.26-.99,.93-2.19,1.03-3.35,.3l-.53-.34-.5,.49c-.28,.27-.73,.6-1.02,.73-.71,.33-1.49,.28-2.34-.15l-.59-.3-.53,.54c-.71,.71-1.2,.93-2.11,.95-.53,.01-.8-.03-1.04-.16-.37-.2-.55-.16-.64,.12-.1,.33-.79,1.02-1.25,1.26-.6,.32-1.08,.38-1.35,.18h0Zm6.76-5.88c1-.68,.53-2.32-.67-2.32-.29,0-.42,.07-.79,.46-.47,.48-.53,.71-.35,1.22,.12,.32,.43,.68,.68,.8,.24,.11,.86,.02,1.12-.16h0Zm19.37-.13c.15-.15,.28-.35,.29-.45,.01-.09,.05-.26,.09-.36,.05-.11,.04-.2-.02-.22-.05-.02-.08-.12-.05-.22,.03-.13-.07-.3-.32-.56-.31-.32-.43-.38-.76-.38-1.3,0-1.73,1.66-.61,2.38,.41,.27,1.02,.18,1.39-.19h0Zm-9.93-.8c.46-.2,.68-.54,.69-1.09,.01-.54-.21-.89-.75-1.19-.67-.37-1.47,.12-1.59,.96-.04,.29-.03,.46,.04,.48,.05,.02,.08,.09,.06,.15-.06,.15,.3,.62,.55,.72,.29,.12,.67,.11,1.01-.04h0Z"/>
      <path class="cls-14" d="M284.32,209.46c-.24-.17-1.19-1.63-1.38-2.1-.1-.26-.09-.34,.07-.68,.1-.21,.19-.56,.19-.77,0-.71-.79-1.34-1.52-1.2-.24,.05-.43,0-.86-.22-.3-.16-.57-.26-.6-.22s-.06,.01-.06-.04-.16-.15-.34-.21c-.19-.06-.4-.13-.47-.15-.16-.05,.19-.46,.56-.66,.27-.15,1.17-.24,1.17-.12s.31,.15,.53,.05c.17-.08,.25-.05,.41,.14,.11,.13,.21,.33,.23,.46,.03,.32,.12,.37,.24,.15,.22-.39,.53-.65,.64-.54,.16,.16,.36,.13,.94-.14,.29-.13,.59-.22,.65-.19,.09,.04,.12,.27,.12,.89,0,.48,.04,.88,.1,.94,.18,.19,0,.49-.59,.95-.31,.24-.58,.46-.61,.47-.12,.1,1.17,1.83,1.36,1.83,.09,0,.3-.15,.47-.33,.31-.33,.32-.36,.36-1.28,.05-1.02,.11-1.13,.57-1.13,.2,0,.33,.11,.62,.52,.46,.65,.77,.82,1.48,.82,.44,0,.62-.05,.91-.24,.49-.33,.61-.63,.63-1.51l.02-.75-.3,.06c-.17,.03-.77,.09-1.34,.12-1.03,.06-1.03,.06-1.12-.17-.05-.12-.07-.26-.05-.29s-.09-.16-.24-.27c-.15-.11-.28-.18-.28-.14,0,.17-.29-.26-.33-.49-.06-.33,.16-.56,.71-.73,.38-.12,.47-.2,.58-.56,.04-.14,.12-.16,.51-.11,.39,.05,.46,.04,.46-.09,0-.08-.05-.2-.12-.26-.06-.06-.1-.25-.08-.41,.03-.23,.1-.32,.3-.4,.21-.08,.27-.16,.27-.37,0-.31,.29-1.02,.46-1.12,.07-.04,.28,.1,.54,.36,.24,.24,.59,.51,.8,.6,.33,.16,.37,.21,.39,.55,.04,.62,.08,.66,.38,.43,.32-.23,.5-.25,.65-.05,.08,.1,.31,.14,.84,.14,.86,0,.93,.08,.68,.75-.09,.24-.17,.51-.17,.6,0,.09-.04,.17-.08,.17s-.05,.15-.02,.33c.05,.29,.03,.35-.23,.51-.16,.1-.55,.23-.86,.3-1,.2-1.07,.25-1.07,.71,0,1,1.39,1.91,2.24,1.46,.52-.28,1.07-1,1.07-1.41,0-.11,.06-.32,.14-.48,.11-.23,.2-.28,.45-.28s.38,.08,.71,.49c.88,1.09,1.29,1.32,1.99,1.13,.61-.17,1-.58,1.21-1.3,.28-.94,.34-.88-.9-.88-.6,0-1.22-.05-1.39-.11-.28-.1-.3-.13-.25-.43,.04-.28,0-.38-.36-.8-.67-.78-.52-1.1,.63-1.27,.34-.05,.46-.12,.54-.3,.12-.27,.21-.28,.66-.09,.18,.08,.36,.14,.39,.14s.03-.27,0-.61c-.07-.64-.02-.74,.35-.76,.13,0,.3-.18,.5-.48,.61-.95,.68-.97,1.06-.25,.29,.54,.49,.74,.8,.79,.22,.03,.23,.05,.2,.67-.02,.35,0,.64,.05,.64,.04,0,.18-.06,.31-.14,.35-.2,.6-.17,.72,.09,.11,.25,.21,.29,.86,.38,.85,.12,.92,.44,.26,1.22-.33,.39-.37,.48-.32,.76,.05,.3,.04,.33-.24,.43-.16,.06-.79,.11-1.39,.11h-1.09v.36c0,.5,.38,1.28,.75,1.55,.25,.18,.42,.23,.91,.23,.73,0,1.04-.2,1.54-.98,.32-.5,.37-.54,.73-.57,.37-.03,.4-.01,.54,.33,.08,.2,.15,.39,.14,.43-.03,.15,.34,.9,.55,1.1,.47,.45,1.42,.54,1.9,.17,.56-.43,1.04-1.33,.9-1.7-.03-.08-.27-.19-.59-.25-1.39-.28-1.72-.47-1.63-.94,.04-.19-.03-.46-.2-.86-.35-.8-.28-.89,.64-.93,.39-.02,.7-.07,.7-.12s.08-.13,.17-.18c.13-.07,.25-.04,.51,.15,.19,.14,.36,.23,.38,.2,.02-.02,0-.18-.04-.35-.05-.17-.05-.3,0-.3s.09-.1,.11-.21c.02-.13,.1-.22,.21-.24,.48-.07,.59-.14,.81-.49,.46-.71,.82-.59,1.16,.37,.16,.44,.25,.58,.43,.62,.2,.05,.22,.1,.18,.31-.03,.14-.08,.39-.11,.57l-.06,.32,.38-.07c.32-.06,.39-.04,.43,.11,.11,.36,.21,.46,.46,.46,.15,0,.29,.03,.31,.06,.03,.03,.18,.13,.35,.22,.48,.25,.46,.39-.07,.95-.43,.45-.53,.62-.55,.98,0,.16-.57,.15-1.66-.02-.97-.15-1.05-.12-1.15,.38-.17,.91,.54,1.88,1.42,1.95,.72,.05,.81,.01,1.52-.67,.69-.66,1.04-.82,1.2-.55,.04,.06,.09,.51,.13,.99,.05,.75,.09,.92,.3,1.2,.31,.42,.57,.51,.81,.29,.21-.2,1-1.47,1-1.62,0-.05-.23-.28-.51-.5-.63-.49-.78-.78-.55-1.04,.13-.14,.16-.33,.14-.88-.01-.38-.01-.74,0-.81,.01-.12,.27-.06,.87,.2,.24,.11,.47,.14,.68,.1,.29-.06,.35-.03,.62,.3l.3,.36,.1-.39c.13-.52,.31-.67,.64-.54,.14,.05,.33,.06,.43,.02,.54-.22,1.42,0,1.83,.47,.21,.24,.2,.26-.25,.33-.43,.07-1.15,.44-1.39,.71-.2,.23-.34,.24-.75,.09-.58-.22-1.21,.2-1.43,.95-.1,.36-.09,.45,.09,.92l.21,.52-.33,.6c-.5,.93-1.13,1.76-1.38,1.82-.58,.15-1.73-.53-2.25-1.33-.34-.51-.35-.52-1.12-.28-.98,.3-2.09-.06-2.87-.92l-.43-.48-.58,.32c-.53,.3-.65,.32-1.36,.32-.94,0-1.4-.2-2.07-.91l-.43-.45-.64,.34c-.51,.27-.77,.35-1.27,.38-.88,.05-1.21-.08-2.44-.97-.09-.06-.23,0-.49,.26-.99,.93-2.19,1.03-3.35,.3l-.53-.34-.5,.49c-.28,.27-.73,.6-1.02,.73-.71,.33-1.49,.28-2.34-.15l-.59-.3-.53,.54c-.71,.71-1.2,.93-2.11,.95-.53,.01-.8-.03-1.04-.16-.37-.2-.55-.16-.64,.12-.1,.33-.79,1.02-1.25,1.26-.6,.32-1.08,.38-1.35,.18h0Zm6.76-5.88c1-.68,.53-2.32-.67-2.32-.29,0-.42,.07-.79,.46-.47,.48-.53,.71-.35,1.22,.12,.32,.43,.68,.68,.8,.24,.11,.86,.02,1.12-.16h0Zm19.37-.13c.15-.15,.28-.35,.29-.45,.01-.09,.05-.26,.09-.36,.05-.11,.04-.2-.02-.22-.05-.02-.08-.12-.05-.22,.03-.13-.07-.3-.32-.56-.31-.32-.43-.38-.76-.38-1.3,0-1.73,1.66-.61,2.38,.41,.27,1.02,.18,1.39-.19h0Zm-9.94-.8c.48-.21,.65-.48,.68-1.07,.02-.48,0-.55-.27-.83-.62-.63-1.19-.68-1.71-.15-.29,.3-.5,1.14-.3,1.2,.05,.02,.08,.09,.06,.15-.06,.15,.3,.62,.55,.72,.29,.12,.67,.11,1-.04h0Z"/>
    </g>
    <g>
      <path class="cls-21" d="M292.46,237.92c-.63-.72-1.14-1.31-1.14-1.32,.02-.02,2.03,2.21,2.26,2.5,.06,.07,.07,.12,.03,.12,0,0-.53-.59-1.16-1.31h0Z"/>
      <path class="cls-21" d="M284.18,216.46c4.87,0,12.83,0,17.7,0,4.86,0,.88,0-8.85,0s-13.71,0-8.84,0h0Z"/>
      <path class="cls-21" d="M284.16,216.35c4.87,0,12.84,0,17.71,0,4.87,0,.89,0-8.85,0s-13.72,0-8.85,0h0Z"/>
    </g>
    <path class="cls-22" d="M324.55,228.68c0-1.13,.01-3.6,.02-5.48v-3.42s.02,5.48,.02,5.48c0,4.37,0,5.48-.02,5.48-.02,0-.02-.42-.02-2.06h0Z"/>
  </g>
</svg>