<svg xmlns="http://www.w3.org/2000/svg" id="flag-icons-es-cl" viewBox="0 0 800 600">
	<rect fill="#da121a" width="800" height="600" x="0" y="0" />
	<rect fill="#fff" width="400" height="300" x="400" y="0" />
	<rect fill="#fff" width="400" height="300" x="0" y="300" />
	<g id="lion_bl">
		<path fill="#742c64" stroke="#192e2e" stroke-width="1.1" d="m164.2 405.6c-5.1-7.1-15.9-12-12.9-22.4-1.4 0-0.9-10.1-1.2-11l-6.3-3.7 0.4 6.6-9.9-2.1-0.1 9.8-2.7 3.4 3.4 6.8c0.1 0 0.1 2.1 4.5 2 0 0-0.8 2.1 2.1 6.1-0.9 7.7 5 11 8.2 16.5 3.5-4.3 5.9-9 14.5-12z" />
		<path fill="#742c64" stroke="#192e2e" stroke-width="1.1" d="m206.5 348.9c-4.4-3.6-14 2.4-7.4 4.5-1.4 1.3-0.7 2.7 0 4l10 5.4c-1.4 2.3-1 4.6 1.9 7.2-1.2 3.6-3.7 2.7-7-0.7h-5.8c-4.3 2-3 4-1.2 6-4.1 4.3-0.7 8.5 4.8 2.8l3.5 3.4c-0.6 7.4-19.1 10.7-12 0.9-10.9-3.7-9.7 4.7-5.3 11.3-5.7 0.7-17.5 3.4-9.8-5.8-12.9 1.3-12.2 10.9-3.1 15.6-8.8 1.8-18 1.4-25.4 14.7-7.7 6.8-11.1 0-9.8 2 2.1 3.4 6.7 11.4 12.8 2-2 22.8-9.2 23-10 21.5-0.7-1.7 2.8 12.5 10.6-2.1 5.4 15.3-1.2 13-2.7 13.7-1.7 0.7 2.9 8.1 11.5-1.9l6.4-8.4c-8.5 8.1-12.8 28.2-26.4 23.3l-4 1.9 1.6 5.1 6.7 2.6c-6.2-1.2-9.5 0.1-8.3 4.9 3 5.5 8.2 12.1 8 1.3-0.1 7.1 3.3 8.6 6.6 10.2 4.5 1 4.2-6.7 1.1-6.8-0.1-4.1 1.2-7 4.9-7.5 3.8 4.3 4.6-0.7 6.1-3.6 5.1 0.6 4.7-1.1 5.6-6l10-3.2c7.3 11.7 20.9 11.9 35.1 10.7 4 1.8 4.9 3.5 4.6 5.3-23.8 9.5-15.9-12.8-48 7.2-1.1 0.3-2.1 0.7-3.2-1-1.3 2.5-2.6 4.6 1.7 7.5 1.6 4.8 0.6 8.8-5.8 11 4.3 8.1 7.9 5.5 11.3-1.9 1 5.5 5.3 11.8-0.8 15.6 2.9 2.3 5.8 4 8.1 0.4l-0.1 5.5c-15.7 12.3-15.9-7-19-3.2-1 2.1-1.2 5.3-4.1 4.5-6.5 3.8 3.1 5.9 5.1 8.8l-7.7-5.1-4.2 0.2c0.6 1.8 1.2 3.5-0.2 4.7 0.3 3.5-0.2 7.3 6.8 7.4 2.6 1.8 5.1 3.6 5.1 6.4 10.6-0.8 9.5-4.6 12.9-7.2 1.6 8.6 5.3-4.2 8-6.7 1.7 0.7 2 3.7 1.2 5.9 4.7-6.6 11.2-14.6 13.4-22.2-2.1-1.6-3-3.3-4.1-6.9-4.6-14 8.2-16.7 24.1-20.2-7.6 6.1-18.9 19-11.9 29.2 0.6 3.6 1.6 7.3-1.9 8.6 4 2.8 5.9-2.1 6.8-5.1 2.4 4 10.7 10.4 9.8 15.3 1 1 7.6-2.4 5.1-8.3 5.1-1 7.3-2.2 14.8-4.8 6.7 1.1 15.6 20.9-0.2 14.1-2.1-1.8-4.7-2.4-8.3-0.2 0.7 1.4 0.7 3.5-0.2 5.7-0.1 5.8 8.5-0.9 10.4-0.6-14 4.6-6 1.9-4.4 9.8 3.6 5.2 6-2.2 14.6-7.2l-2.7 2.5 0.4 9.4c11.8 0.7 10.2-11.4 14.2-17.2 0.9-1.3 3-2.2 4.1-3.1-6.1-0.4-11.5-9.4-6.4-13.6-3.8-3.4-11.6-6.3-7.2-11.5-6.2-5.3-5.1-7.4-15.5-0.8-3.9-2.5-9.1-5.4-6-9.2 8.8-6.3 9.4-13.3 12.5-20.1 53.7-19.5-28.2-78.4 7.8-82.2 0.7 6.1-0.6 12.3 1.8 18.3 4.3 1.7 7.2 2.5 8.7 6.4l3 7.8c-0.2-4.5 2.4-9.8-0.4-13.3-3.1-3.9-2.5-6.8-2.5-9.5 2-4.8-0.3-6.9-0.7-9.1-8.1-9.2-11.6-7.2-15-5.9-11.9 5-12.3 20-4.1 31.9 17.1 24.9 24.8 46.4 0.1 48.2-7-9-25.2-9.1-29.7-43.7 0.5-4.2 3.3-4.2 5.7-5.1l3.4-2.6c-9.5-5.8 2.3-23.5 10.5-13.5-0.4-7.1-0.9-18.7 2.9-24.7 0.8-1.6 3 1 4.6 1.9-2.3-2.5-3.3-18.5 5.4-12.8 3-0.9 2.7-4 2.1-3-1.4 2.5-6-0.7-6.4-9.5-3.4-7.1-9.8-14.9-14.6-18.6-4.2-0.6-8.1-2.6-13.2 1.5h-4.2l-1.7 1.3c-0.3-1.8-2.8-1.8-5.6-1.7z" />
		<path fill="none" stroke="#192e2e" stroke-width="1.1" fill-rule="evenodd" d="m134.3 382.6c4.5 1.6 7.7 4.3 9.8 8" />
		<path fill="none" stroke="#192e2e" stroke-width="1.1" fill-rule="evenodd" d="m143.9 375.1c-0.1 3-1.9 6.1 1.4 9.1" />
		<path fill="none" stroke="#192e2e" stroke-width="1.1" fill-rule="evenodd" d="m219.8 350.4c0 0 3.8 4 4.2 10.4" />
		<path fill="#e7e7e7" stroke="#192e2e" stroke-width="1.1" d="m220.4 352c0 0-8.6 6.9 3 7.1 1.4-2.7-3-7.1-3-7.1z" />
		<path fill="none" stroke="#192e2e" stroke-width="1.1" fill-rule="evenodd" d="m200.4 351.4c0.4 3 3 3.7 3.2 3.7" />
		<path fill="none" stroke="#192e2e" stroke-width="1.1" fill-rule="evenodd" d="m234.3 367.9c0 0 5.2 3.7 2.1 8.6" />
		<path fill="none" stroke="#192e2e" stroke-width="1.1" fill-rule="evenodd" d="m214 363.8c0.3 2.3 3.9 6.5 6.9 7.7" />
		<path fill="none" stroke="#192e2e" stroke-width="1.1" fill-rule="evenodd" d="m210.7 402.2c-3.6 7.2 1.3 6.1 3.9 5.2 1.8-0.7 1.6 8.5-9.1 5.2-4.7-3.3-3-9.3-0.3-12.4" />
		<path fill="none" stroke="#192e2e" stroke-width="1.1" fill-rule="evenodd" d="m205.1 412.2c-0.8 10.3-5.6 23.4-16.3 13.4 10.1 1.2 5.1-12.2 6.4-19.6 0 0-4.1 13.3-13.9 12-8.1-1-4.6-9.2-4.7-9.2 0 0 7.2 4.6 9-0.7 2.1-5.9 6.1-11.1 6.1-11.1" />
		<path fill="none" stroke="#192e2e" stroke-width="1.1" fill-rule="evenodd" d="m221.4 403.7c1.2 3.7 0.9 6.8-2.2 8.9" />
		<path fill="none" stroke="#192e2e" stroke-width="1.1" fill-rule="evenodd" d="m166.8 420.9c0 0-6.2 10.9-0.7 13.3" />
		<path fill="none" stroke="#192e2e" stroke-width="1.1" fill-rule="evenodd" d="m183 429.9c0 0-1 9.8 1.9 10.2 2.8 0.4-7.9 3.2-8.1-11.3" />
		<path fill="none" stroke="#192e2e" stroke-width="1.1" fill-rule="evenodd" d="m262.8 420.3c1.1 1.5 0.6 4 0 4.3" />
		<path fill="none" stroke="#192e2e" stroke-width="1.1" fill-rule="evenodd" d="m220.1 483.1c3.5 3.3 0 5.5-0.9 6.3" />
		<path fill="none" stroke="#192e2e" stroke-width="1.1" fill-rule="evenodd" d="m216.2 426c0.1 2.2-0.1 4.6 4 5.4" />
		<path fill="#da121a" stroke="#192e2e" stroke-width="1.1" d="m203.4 368.1c0 0-3.4-5.4-13-0.7-9.7 4.7-12.5-2.3-12.5-5.5 0-3.2 4.9-3.9 4.9-3.9 0 0-2.1 8.1 7.7 5.6 9.9-2.4 13.6 1.5 13.6 1.5l2.9 6.1z" />
		<path fill="#192e2e" stroke="#192e2e" stroke-width="1.1" d="m222.1 353.7c-0.2 0.1-4.1 3.5 1.3 3" />
		<path fill="none" stroke="#192e2e" stroke-width="1.1" fill-rule="evenodd" d="m178.8 467.2c9.1-3.7 10.8-9.9 8.6-16.9" />
		<path fill="none" stroke="#192e2e" stroke-width="1.1" fill-rule="evenodd" d="m148.1 492l5.3 2.2" />
		<path fill="none" stroke="#192e2e" stroke-width="1.1" fill-rule="evenodd" d="m160.4 528.8c2.5 0.3 3.7-1.6 4.8-3.7" />
		<path fill="none" stroke="#192e2e" stroke-width="1.1" fill-rule="evenodd" d="m152.9 533.1c0.8 1.2 2.5 2.1 0.5 4.8" />
		<path fill="none" stroke="#192e2e" stroke-width="1.1" fill-rule="evenodd" d="m234 542.6q3.2 2.2 1.1 5.9" />
		<path fill="none" stroke="#192e2e" stroke-width="1.1" fill-rule="evenodd" d="m237.3 552c4.4 2 3.3 4.1 3.4 6.1" />
		<path fill="none" stroke="#192e2e" stroke-width="1.1" fill-rule="evenodd" d="m253.9 557c3.1-0.1 4.1 1.4 5.2 2.7" />
		<path fill="#fcdd09" stroke="#192e2e" stroke-width="1.1" d="m248.9 353.7l-3.2 0.2c0 0-3 2.2-1.5 4.5 1.6 2.4 2.6 1.6 3.6 0.2 0.8-1 0.9-2.7 0.9-2.7l6.5 1.2-2.9 5.1c-1.5-0.2-2.6-1.1-3.2-0.7 0.2 0-4.3 0.5-2.6 2.2 1.7 1.6 7.6 0.5 7.6 0.5l2.5 5.4c0-0.8-8.6-3.3-10.5-2-0.2-2.7-12.5-18.5-14.9-19.6l1.8-10.1 3.9 4.3c0 0-1.3 1.4-2.3 2.2-1 0.9-1.3 2.7 0.1 3.2 1.2 0.3 2.6 0.4 3.2-0.3 0.9-1.1 0.7-3.3 0.7-3.3l4.4-1.2 0.4 5.1-3.4 0.9c0 0-1 1.3 0.3 3.2 1.5 2.1 3.3 1.7 3.8 0.6 0.5-1.1 0.6-2.6 0.6-2.6 0 0 3.9-0.9 4.7-1.5 0 1-0.8 5.4-0.5 5.2z" />
		<path fill="#da121a" stroke="#192e2e" stroke-width="1.1" d="m139 470.6c-0.3-0.3-3.2 0.6-4.2 2.1-0.5 0.7 1.5 1.3 4.5 2.5 1.4-2.4 1.7-2.9-0.3-4.6z" />
		<path fill="#da121a" stroke="#192e2e" stroke-width="1.1" d="m138.4 482l-2.2 5.5c0 0 4.9 0.5 5.7 0.5 1.5-0.1-1.4-7.2-3.5-6z" />
		<path fill="#da121a" stroke="#192e2e" stroke-width="1.1" d="m148.3 492l0.1 5.5 4.3-3.4c-0.7-2.9-2.5-2.5-4.4-2.1z" />
		<path fill="#da121a" stroke="#192e2e" stroke-width="1.1" d="m160.6 528.8c0 0 4.5-1.2 4.5-4 0.1-4.2 0.8 1.6-3.8-0.9-4.1-2.3-0.9 5.3-0.7 4.9z" />
		<path fill="#da121a" stroke="#192e2e" stroke-width="1.1" d="m152.7 538.1c2.3-1.4 1.1-3.2 1.2-4.8-2.5 0.9-5 1.7-5.5 4.1 1.5 0.5 3.1 1.1 4.3 0.7z" />
		<path fill="#da121a" stroke="#192e2e" stroke-width="1.1" d="m161.2 546c2.7 1.4 3 3.1 3.7 4.7l-5.1 1z" />
		<path fill="#da121a" stroke="#192e2e" stroke-width="1.1" d="m234.8 542.9c1.5 0.6 2.4 6.1 0 5.9-1.6-0.2-3.7-0.8-3.7-0.8 0 0 2.9-6.7 3.7-5.1z" />
		<path fill="#da121a" stroke="#192e2e" stroke-width="1.1" d="m238 552.2c-0.1-1.5 5.1 3.8 3.4 6-1.3 1.7-8.2-2-8.2-2z" />
		<path fill="#da121a" stroke="#192e2e" stroke-width="1.1" d="m252.8 556.5c0-0.7 7.4 1.3 7.1 3.7-0.1 1.6-7 2.5-7 2.5z" />
		<path fill="#da121a" stroke="#192e2e" stroke-width="1.1" d="m144.8 374.8c0 0 2.7 1 4.7-2.9l-5.6-2.9z" />
		<path fill="#da121a" stroke="#192e2e" stroke-width="1.1" d="m134.7 378.3c4.4 0.3 4.4-1.9 4.9-4.1l-5.5-1.1z" />
		<path fill="#da121a" stroke="#192e2e" stroke-width="1.1" d="m131.4 386l-3.4 5.4 6.6 0.9c-0.4-1.9 0.2-3.3-3.2-6.3z" />
		<path fill="none" stroke="#121f1f" stroke-width="1.1" fill-rule="evenodd" d="m229.7 378.7c1.7 2.4 1.2 4.9 0 7.3 0 0-7.3 6.6 0.2 8.8 0 0-7.5 3.7-9.1-7.4 0 0-7.3 11.2-14.2 2.4 0 0 6.5-0.4 6.9-6.2" />
		<path fill="none" stroke="#121f1f" stroke-width="1.1" fill-rule="evenodd" d="m161.8 453.7c0 0-1.5-11.5 2.9-11.8" />
		<path fill="#da121a" stroke="#000" stroke-width="1.1" d="m160.6 544.9c0 0 1.2-1.5 2-1.5" />
	</g>
	<g id="castle_tl">
		<path fill="#fcdd09" stroke="#000" stroke-width="1.1" d="m181.7 38.1l35.5 0.1 6.9 6.3v16.9l-3.8 2.9-0.1 38.9h9.2l0.4-20-2.5-3.8-0.1-12.2 4.9-6 20.7 0.1 5.3 6.2 0.1 11.8-3.1 4.9-0.1 24.6 13.5 7.1-0.3 18.4-4.3 6.7v73l11.4 9.8 0.2 23.5-23 15.2h-105.7l-23-15.1v-23.6l10.7-8.6 0.5-73.9-4.1-6.8v-18.4l12.8-7.7 0.1-24.6-4.1-4.3-0.2-11.6 5.6-6.6h21.5l5.4 6v12.5l-3.3 4 0.2 19.9 10.3-0.1-0.2-38.7-4.1-3.8-0.4-15.8z" />
		<path fill="none" stroke="#000" stroke-width="1.1" fill-rule="evenodd" d="m182.2 261.9l0.3-39.1c0 0 15.9-25.9 34.2 0.2l0.5 39.4" />
		<path fill="none" stroke="#000" stroke-width="1.1" fill-rule="evenodd" d="m124 224l22.8 9.3 35.5 0.1" />
		<path fill="none" stroke="#000" stroke-width="1.1" fill-rule="evenodd" d="m274.7 224.1l-22.7 9.1-35.2 0.3" />
		<path fill="none" stroke="#000" stroke-width="1.1" fill-rule="evenodd" d="m123.9 232l22.7 10.5h35.4" />
		<path fill="none" stroke="#000" stroke-width="1.1" fill-rule="evenodd" d="m123.7 239.6l22.7 12.8 35.3 0.2" />
		<path fill="none" stroke="#000" stroke-width="1.1" fill-rule="evenodd" d="m135.5 228.7l-0.4 8.4" />
		<path fill="none" stroke="#000" stroke-width="1.1" fill-rule="evenodd" d="m129.7 234.7l-0.2 8.3" />
		<path fill="none" stroke="#000" stroke-width="1.1" fill-rule="evenodd" d="m140.9 239.5v9.5" />
		<path fill="none" stroke="#000" stroke-width="1.1" fill-rule="evenodd" d="m135.5 245.9l-0.2 8.9" />
		<path fill="none" stroke="#000" stroke-width="1.1" fill-rule="evenodd" d="m131.1 134.9l20.7-8.2 94.6-0.2 21.6 7.7" />
		<path fill="none" stroke="#000" stroke-width="1.1" fill-rule="evenodd" d="m135.1 141.2l21.2-6.5 86.9 0.2 20.7 6.2" />
		<path fill="none" stroke="#000" stroke-width="1.1" fill-rule="evenodd" d="m134.8 153.2l21.1-4.5 87.4 0.2 20.5 4.5" />
		<path fill="none" stroke="#000" stroke-width="1.1" fill-rule="evenodd" d="m135 166.3l21.4-2.7h85.9l21.5 2.6" />
		<path fill="none" stroke="#000" stroke-width="1.1" fill-rule="evenodd" d="m134.3 177.3l21.9 1.7 86.2 0.1 22.1-1.8" />
		<path fill="none" stroke="#000" stroke-width="1.1" fill-rule="evenodd" d="m135 189.9l21.3 3.5 86.6 0.2 21-3.2" />
		<path fill="none" stroke="#000" stroke-width="1.1" fill-rule="evenodd" d="m134.8 202.7l22.1 4.9h85.6l21.4-5.3" />
		<path fill="none" stroke="#000" stroke-width="1.1" fill-rule="evenodd" d="m134.8 214.8l21.4 6.6h26.9" />
		<path fill="none" stroke="#000" stroke-width="1.1" fill-rule="evenodd" d="m215.6 221.1l26.9 0.1 22.1-7.6" />
		<path fill="none" stroke="#000" stroke-width="1.1" fill-rule="evenodd" d="m144.3 108l7.9-4.7" />
		<path fill="none" stroke="#000" stroke-width="1.1" fill-rule="evenodd" d="m140.2 79.1l4.4-4.3 21.2-0.1 5.9 4.8" />
		<path fill="none" stroke="#000" stroke-width="1.1" fill-rule="evenodd" d="m143.8 91.7l4.7-3.6h14.9l5.5 3.8" />
		<path fill="none" stroke="#000" stroke-width="1.1" fill-rule="evenodd" d="m144 99.9l5.9-4.5 13.4 0.1 5.9 4.8" />
		<path fill="none" stroke="#000" stroke-width="1.1" fill-rule="evenodd" d="m254.4 108.2l-7.6-4.6" />
		<path fill="none" stroke="#000" stroke-width="1.1" fill-rule="evenodd" d="m181.7 38.5l0.3 18.1 3.1 4.8v41.8" />
		<path fill="none" stroke="#000" stroke-width="1.1" fill-rule="evenodd" d="m217.2 38.3l-0.3 18.2-3.1 4.8v41.8" />
		<path fill="none" stroke="#000" stroke-width="1.1" fill-rule="evenodd" d="m175.1 61.1l6.4-4.8 35.3 0.4 7.1 4.8" />
		<path fill="none" stroke="#000" stroke-width="1.1" fill-rule="evenodd" d="m179.2 64.8l5.4-3.1 29.2 0.1 6.4 3.2" />
		<path fill="none" stroke="#000" stroke-width="1.1" fill-rule="evenodd" d="m179.2 75.8l5.6-3.5 28.7 0.3 6.6 3.4" />
		<path fill="none" stroke="#000" stroke-width="1.1" fill-rule="evenodd" d="m178.9 85.8l6.1-3.2 28.7 0.2 6.4 3.4" />
		<path fill="none" stroke="#000" stroke-width="1.1" fill-rule="evenodd" d="m179.3 96.4l5-2.9 29.6 0.3 5.8 3.4" />
		<path fill="none" stroke="#000" stroke-width="1.1" fill-rule="evenodd" d="m254.7 84.2l-5.6-3.8h-14.3l-4.8 4.3" />
		<path fill="none" stroke="#000" stroke-width="1.1" fill-rule="evenodd" d="m254.8 92.4l-4.7-3.6h-15l-5.4 3.7" />
		<path fill="none" stroke="#000" stroke-width="1.1" fill-rule="evenodd" d="m254.5 100.6l-5.9-4.6-13.3 0.1-5.6 3.8" />
		<path fill="none" stroke="#000" stroke-width="1.1" fill-rule="evenodd" d="m275.2 231.3l-23.1 11.3h-34.5" />
		<path fill="none" stroke="#000" stroke-width="1.1" fill-rule="evenodd" d="m217.4 252.3h34.6l23.3-13.1" />
		<path fill="none" stroke="#000" stroke-width="1.1" fill-rule="evenodd" d="m263.9 228.7l0.1 7.7" />
		<path fill="none" stroke="#000" stroke-width="1.1" fill-rule="evenodd" d="m258.4 239.8l0.1 8.9" />
		<path fill="none" stroke="#000" stroke-width="1.1" fill-rule="evenodd" d="m269.6 233.8l0.1 8.4" />
		<path fill="none" stroke="#000" stroke-width="1.1" fill-rule="evenodd" d="m263.8 245.8l0.3 8.8" />
		<path fill="none" stroke="#000" stroke-width="1.1" fill-rule="evenodd" d="m234.3 233.2l-0.2 9.2" />
		<path fill="none" stroke="#000" stroke-width="1.1" fill-rule="evenodd" d="m225.7 242.5v9.8" />
		<path fill="none" stroke="#000" stroke-width="1.1" fill-rule="evenodd" d="m242.7 242.5v9.8" />
		<path fill="none" stroke="#000" stroke-width="1.1" fill-rule="evenodd" d="m234.1 252.5l0.2 10" />
		<path fill="none" stroke="#000" stroke-width="1.1" fill-rule="evenodd" d="m163.4 233.3v8.9" />
		<path fill="none" stroke="#000" stroke-width="1.1" fill-rule="evenodd" d="m155.1 242.4v10" />
		<path fill="none" stroke="#000" stroke-width="1.1" fill-rule="evenodd" d="m173.4 242.5l0.2 10.1" />
		<path fill="none" stroke="#000" stroke-width="1.1" fill-rule="evenodd" d="m163.7 252.5v9.7" />
		<path fill="none" stroke="#000" stroke-width="1.1" fill-rule="evenodd" d="m135.2 228.4l9.7-10.4" />
		<path fill="none" stroke="#000" stroke-width="1.1" fill-rule="evenodd" d="m139.3 216l-0.1-12.4" />
		<path fill="none" stroke="#000" stroke-width="1.1" fill-rule="evenodd" d="m150.4 205.9v13.3" />
		<path fill="none" stroke="#000" stroke-width="1.1" fill-rule="evenodd" d="m145.4 205.3v-14.1" />
		<path fill="none" stroke="#000" stroke-width="1.1" fill-rule="evenodd" d="m139.6 190.7l0.2-13.3" />
		<path fill="none" stroke="#000" stroke-width="1.1" fill-rule="evenodd" d="m150.8 178.7l-0.1 13.4" />
		<path fill="none" stroke="#000" stroke-width="1.1" fill-rule="evenodd" d="m145.5 164.7l-0.1 13.2" />
		<path fill="none" stroke="#000" stroke-width="1.1" fill-rule="evenodd" d="m139.9 151.8l-0.1 14" />
		<path fill="none" stroke="#000" stroke-width="1.1" fill-rule="evenodd" d="m150.8 150.1l0.1 14" />
		<path fill="none" stroke="#000" stroke-width="1.1" fill-rule="evenodd" d="m145.1 138.2v12.6" />
		<path fill="none" stroke="#000" stroke-width="1.1" fill-rule="evenodd" d="m258.9 215.8l-0.1-12.6" />
		<path fill="none" stroke="#000" stroke-width="1.1" fill-rule="evenodd" d="m248.2 205.6v13.3" />
		<path fill="none" stroke="#000" stroke-width="1.1" fill-rule="evenodd" d="m253.5 204.9v-13.3" />
		<path fill="none" stroke="#000" stroke-width="1.1" fill-rule="evenodd" d="m259 191v-13.5" />
		<path fill="none" stroke="#000" stroke-width="1.1" fill-rule="evenodd" d="m248 178.3v14.5" />
		<path fill="none" stroke="#000" stroke-width="1.1" fill-rule="evenodd" d="m253.5 164.6v13.2" />
		<path fill="none" stroke="#000" stroke-width="1.1" fill-rule="evenodd" d="m258.7 152.4l0.1 13.1" />
		<path fill="none" stroke="#000" stroke-width="1.1" fill-rule="evenodd" d="m247.8 149.8v14.4" />
		<path fill="none" stroke="#000" stroke-width="1.1" fill-rule="evenodd" d="m253.5 138.1v12.5" />
		<path fill="none" stroke="#000" stroke-width="1.1" fill-rule="evenodd" d="m163.3 233.1l7.6-11.8" />
		<path fill="none" stroke="#000" stroke-width="1.1" fill-rule="evenodd" d="m227.8 221.2l6.7 12.1" />
		<path fill="none" stroke="#000" stroke-width="1.1" fill-rule="evenodd" d="m253.2 217.4l10.4 11.1" />
		<path fill="none" stroke="#000" stroke-width="1.1" fill-rule="evenodd" d="m177.7 207l0.1 14.2" />
		<path fill="none" stroke="#000" stroke-width="1.1" fill-rule="evenodd" d="m199.5 207.1v3.8" />
		<path fill="none" stroke="#000" stroke-width="1.1" fill-rule="evenodd" d="m221.7 207.2v13.8" />
		<path fill="none" stroke="#000" stroke-width="1.1" fill-rule="evenodd" d="m213.5 193.3l0.2 13.5" />
		<path fill="none" stroke="#000" stroke-width="1.1" fill-rule="evenodd" d="m185.1 193l-0.2 14.2" />
		<path fill="none" stroke="#000" stroke-width="1.1" fill-rule="evenodd" d="m198.7 178.5l-0.1 14.5" />
		<path fill="none" stroke="#000" stroke-width="1.1" fill-rule="evenodd" d="m170.6 178.5v14.1" />
		<path fill="none" stroke="#000" stroke-width="1.1" fill-rule="evenodd" d="m214 163.9l-0.1 14.6" />
		<path fill="none" stroke="#000" stroke-width="1.1" fill-rule="evenodd" d="m213.5 134.7v13.9" />
		<path fill="none" stroke="#000" stroke-width="1.1" fill-rule="evenodd" d="m184.7 134.2v14.5" />
		<path fill="none" stroke="#000" stroke-width="1.1" fill-rule="evenodd" d="m199.2 149.2v13.9" />
		<path fill="none" stroke="#000" stroke-width="1.1" fill-rule="evenodd" d="m184.9 163.8v14.5" />
		<path fill="none" stroke="#000" stroke-width="1.1" fill-rule="evenodd" d="m170.8 178.6v14.6" />
		<path fill="none" stroke="#000" stroke-width="1.1" fill-rule="evenodd" d="m228.7 178.8v14.9" />
		<path fill="none" stroke="#000" stroke-width="1.1" fill-rule="evenodd" d="m138 111.8v9" />
		<path fill="none" stroke="#000" stroke-width="1.1" fill-rule="evenodd" d="m145.1 107.4v10.4" />
		<path fill="none" stroke="#000" stroke-width="1.1" fill-rule="evenodd" d="m150.8 61.2v5.6" />
		<path fill="none" stroke="#000" stroke-width="1.1" fill-rule="evenodd" d="m156.2 61.3v5.6" />
		<path fill="none" stroke="#000" stroke-width="1.1" fill-rule="evenodd" d="m161.6 61.4v5.3" />
		<path fill="none" stroke="#000" stroke-width="1.1" fill-rule="evenodd" d="m236.9 61.4v5.6" />
		<path fill="none" stroke="#000" stroke-width="1.1" fill-rule="evenodd" d="m242.7 61.5v5.6" />
		<path fill="none" stroke="#000" stroke-width="1.1" fill-rule="evenodd" d="m248.2 61.7v5.4" />
		<path fill="none" stroke="#000" stroke-width="1.1" fill-rule="evenodd" d="m146.6 262.2l0.4-28.8 9.7-12.3-0.5-86.5-3.9-7.5v-24h12.3v11.7l4.4 0.1-0.1-11.7h11.6l0.1 11.8h4.3l-0.1-11.7h12.6v11.7h4.3v-11.8h11.8l-0.1 11.8h4.3l-0.1-11.9 12.5 0.2 0.1 11.7 4.1-0.1-0.1-11.7h12.8l-0.1 22.8-4.1 8.7-0.1 86.5 9.2 11.8 0.3 29.4" />
		<path fill="none" stroke="#000" stroke-width="1.1" fill-rule="evenodd" d="m145.2 61.1v13.7l4.1 5.1 0.2 24.2" />
		<path fill="none" stroke="#000" stroke-width="1.1" fill-rule="evenodd" d="m166.4 60.9l0.2 14-2.8 5.2-0.2 23.5" />
		<path fill="none" stroke="#000" stroke-width="1.1" fill-rule="evenodd" d="m143.9 83.5l5.6-3.7h14.3l4.8 4.2" />
		<path fill="none" stroke="#000" stroke-width="1.1" fill-rule="evenodd" d="m253.3 61.7v13.8l-4.1 5.1-0.1 24.1" />
		<path fill="none" stroke="#000" stroke-width="1.1" fill-rule="evenodd" d="m232.1 61.6l-0.1 14 2.8 5.2 0.2 23.4" />
		<path fill="none" stroke="#000" stroke-width="1.1" fill-rule="evenodd" d="m227.6 79.2l4.1-3.6 21.2-0.2 5.4 4.1" />
		<path fill="none" stroke="#000" stroke-width="1.1" fill-rule="evenodd" d="m190.5 38.3v7.5" />
		<path fill="none" stroke="#000" stroke-width="1.1" fill-rule="evenodd" d="m198.8 38.2v7.5" />
		<path fill="none" stroke="#000" stroke-width="1.1" fill-rule="evenodd" d="m208.1 38.5v7.6" />
		<path fill="none" stroke="#000" stroke-width="1.1" fill-rule="evenodd" d="m254 108.2l0.1 10.1" />
		<path fill="none" stroke="#000" stroke-width="1.1" fill-rule="evenodd" d="m261.4 112l-0.1 9.1" />
		<path fill="#0f47af" stroke="#000" stroke-width="1.1" d="m195.8 94l-0.1-17.2c0 0 3-7.9 7.1 0v17.2c0 0-7 0-7 0z" />
		<path fill="#0f47af" stroke="#000" stroke-width="1.1" d="m171.6 178.9l-0.2-24.8c0 0 4.2-11.3 9.8 0v24.8c0 0-9.6 0-9.6 0z" />
		<path fill="#0f47af" stroke="#000" stroke-width="1.1" d="m218 178.7l-0.2-24.7c0 0 4.1-11.3 9.6 0l0.1 24.8c0 0-9.5-0.1-9.5-0.1z" />
		<path fill="#0f47af" stroke="#000" stroke-width="1.1" d="m188.9 225.5c0 0 3.7-8.1 11-8.3 0 0 6.1-0.2 10.3 8v37.1l-21.5-0.1c0 0 0.2-36.7 0.2-36.7z" />
	</g>
	<g id="lion_tr">
		<path fill="#742c64" stroke="#192e2e" stroke-width="1.1" d="m564.2 105.6c-5.1-7.1-15.9-12-12.9-22.4-1.4 0-0.9-10.1-1.2-11l-6.3-3.7 0.4 6.6-9.9-2.1-0.1 9.8-2.7 3.4 3.4 6.8c0.1 0 0.1 2.1 4.5 2 0 0-0.8 2.1 2.1 6.1-0.9 7.7 5 11 8.2 16.5 3.5-4.3 5.9-9 14.5-12z" />
		<path fill="#742c64" stroke="#192e2e" stroke-width="1.1" d="m606.5 48.9c-4.4-3.6-14 2.4-7.4 4.5-1.4 1.3-0.7 2.7 0 4l10 5.4c-1.4 2.3-1 4.6 1.9 7.2-1.2 3.6-3.7 2.7-7-0.7h-5.8c-4.3 2-3 4-1.2 6-4.1 4.3-0.7 8.5 4.8 2.8l3.5 3.4c-0.6 7.4-19.1 10.7-12 0.9-10.9-3.7-9.7 4.7-5.3 11.3-5.7 0.7-17.5 3.4-9.8-5.8-12.9 1.3-12.2 10.9-3.1 15.6-8.8 1.8-18 1.4-25.4 14.7-7.7 6.8-11.1 0-9.8 2 2.1 3.4 6.7 11.4 12.8 2-2 22.8-9.2 23-10 21.5-0.7-1.7 2.8 12.5 10.6-2.1 5.4 15.3-1.2 13-2.7 13.7-1.7 0.7 2.9 8.1 11.5-1.9l6.4-8.4c-8.5 8.1-12.8 28.2-26.4 23.3l-4 1.9 1.6 5.1 6.7 2.6c-6.2-1.2-9.5 0.1-8.3 4.9 3 5.5 8.2 12.1 8 1.3-0.1 7.1 3.3 8.6 6.6 10.2 4.5 1 4.2-6.7 1.1-6.8-0.1-4.1 1.2-7 4.9-7.5 3.8 4.3 4.6-0.7 6.1-3.6 5.1 0.6 4.7-1.1 5.6-6l10-3.2c7.3 11.7 20.9 11.9 35.1 10.7 4 1.8 4.9 3.5 4.6 5.3-23.8 9.5-15.9-12.8-48 7.2-1.1 0.3-2.1 0.7-3.2-1-1.3 2.5-2.6 4.6 1.7 7.5 1.6 4.8 0.6 8.8-5.8 11 4.3 8.1 7.9 5.5 11.3-1.9 1 5.5 5.3 11.8-0.8 15.6 2.9 2.3 5.8 4 8.1 0.4l-0.1 5.5c-15.7 12.3-15.9-7-19-3.2-1 2.1-1.2 5.3-4.1 4.5-6.5 3.8 3.1 5.9 5.1 8.8l-7.7-5.1-4.2 0.2c0.6 1.8 1.2 3.5-0.2 4.7 0.3 3.5-0.2 7.3 6.8 7.4 2.6 1.8 5.1 3.6 5.1 6.4 10.6-0.8 9.5-4.6 12.9-7.2 1.6 8.6 5.3-4.2 8-6.7 1.7 0.7 2 3.7 1.2 5.9 4.7-6.6 11.2-14.6 13.4-22.2-2.1-1.6-3-3.3-4.1-6.9-4.6-14 8.2-16.7 24.1-20.2-7.6 6.1-18.9 19-11.9 29.2 0.6 3.6 1.6 7.3-1.9 8.6 4 2.8 5.9-2.1 6.8-5.1 2.4 4 10.7 10.4 9.8 15.3 1 1 7.6-2.4 5.1-8.3 5.1-1 7.3-2.2 14.8-4.8 6.7 1.1 15.6 20.9-0.2 14.1-2.1-1.8-4.7-2.4-8.3-0.2 0.7 1.4 0.7 3.5-0.2 5.7-0.1 5.8 8.5-0.9 10.4-0.6-14 4.6-6 1.9-4.4 9.8 3.6 5.2 6-2.2 14.6-7.2l-2.7 2.5 0.4 9.4c11.8 0.7 10.2-11.4 14.2-17.2 0.9-1.3 3-2.2 4.1-3.1-6.1-0.4-11.5-9.4-6.4-13.6-3.8-3.4-11.6-6.3-7.2-11.5-6.2-5.3-5.1-7.4-15.5-0.8-3.9-2.5-9.1-5.4-6-9.2 8.8-6.3 9.4-13.3 12.5-20.1 53.7-19.5-28.2-78.4 7.8-82.2 0.7 6.1-0.6 12.3 1.8 18.3 4.3 1.7 7.2 2.5 8.7 6.4l3 7.8c-0.2-4.5 2.4-9.8-0.4-13.3-3.1-3.9-2.5-6.8-2.5-9.5 2-4.8-0.3-6.9-0.7-9.1-8.1-9.2-11.6-7.2-15-5.9-11.9 5-12.3 20-4.1 31.9 17.1 24.9 24.8 46.4 0.1 48.2-7-9-25.2-9.1-29.7-43.7 0.5-4.2 3.3-4.2 5.7-5.1l3.4-2.6c-9.5-5.8 2.3-23.5 10.5-13.5-0.4-7.1-0.9-18.7 2.9-24.7 0.8-1.6 3 1 4.6 1.9-2.3-2.5-3.3-18.5 5.4-12.8 3-0.9 2.7-4 2.1-3-1.4 2.5-6-0.7-6.4-9.5-3.4-7.1-9.8-14.9-14.6-18.6-4.2-0.6-8.1-2.6-13.2 1.5h-4.2l-1.7 1.3c-0.3-1.8-2.8-1.8-5.6-1.7z" />
		<path fill="none" stroke="#192e2e" stroke-width="1.1" fill-rule="evenodd" d="m534.3 82.6c4.5 1.6 7.7 4.3 9.8 8" />
		<path fill="none" stroke="#192e2e" stroke-width="1.1" fill-rule="evenodd" d="m543.9 75.1c-0.1 3-1.9 6.1 1.4 9.1" />
		<path fill="none" stroke="#192e2e" stroke-width="1.1" fill-rule="evenodd" d="m619.8 50.4c0 0 3.8 4 4.2 10.4" />
		<path fill="#e7e7e7" stroke="#192e2e" stroke-width="1.1" d="m620.4 52c0 0-8.6 6.9 3 7.1 1.4-2.7-3-7.1-3-7.1z" />
		<path fill="none" stroke="#192e2e" stroke-width="1.1" fill-rule="evenodd" d="m600.4 51.4c0.4 3 3 3.7 3.2 3.7" />
		<path fill="none" stroke="#192e2e" stroke-width="1.1" fill-rule="evenodd" d="m634.3 67.9c0 0 5.2 3.7 2.1 8.6" />
		<path fill="none" stroke="#192e2e" stroke-width="1.1" fill-rule="evenodd" d="m614 63.8c0.3 2.3 3.9 6.5 6.9 7.7" />
		<path fill="none" stroke="#192e2e" stroke-width="1.1" fill-rule="evenodd" d="m610.7 102.2c-3.6 7.2 1.3 6.1 3.9 5.2 1.8-0.7 1.6 8.5-9.1 5.2-4.7-3.3-3-9.3-0.3-12.4" />
		<path fill="none" stroke="#192e2e" stroke-width="1.1" fill-rule="evenodd" d="m605.1 112.2c-0.8 10.3-5.6 23.4-16.3 13.4 10.1 1.2 5.1-12.2 6.4-19.6 0 0-4.1 13.3-13.9 12-8.1-1-4.6-9.2-4.7-9.2 0 0 7.2 4.6 9-0.7 2.1-5.9 6.1-11.1 6.1-11.1" />
		<path fill="none" stroke="#192e2e" stroke-width="1.1" fill-rule="evenodd" d="m621.4 103.7c1.2 3.7 0.9 6.8-2.2 8.9" />
		<path fill="none" stroke="#192e2e" stroke-width="1.1" fill-rule="evenodd" d="m566.8 120.9c0 0-6.2 10.9-0.7 13.3" />
		<path fill="none" stroke="#192e2e" stroke-width="1.1" fill-rule="evenodd" d="m583 129.9c0 0-1 9.8 1.9 10.2 2.8 0.4-7.9 3.2-8.1-11.3" />
		<path fill="none" stroke="#192e2e" stroke-width="1.1" fill-rule="evenodd" d="m662.8 120.3c1.1 1.5 0.6 4 0 4.3" />
		<path fill="none" stroke="#192e2e" stroke-width="1.1" fill-rule="evenodd" d="m620.1 183.1c3.5 3.3 0 5.5-0.9 6.3" />
		<path fill="none" stroke="#192e2e" stroke-width="1.1" fill-rule="evenodd" d="m616.2 126c0.1 2.2-0.1 4.6 4 5.4" />
		<path fill="#da121a" stroke="#192e2e" stroke-width="1.1" d="m603.4 68.1c0 0-3.4-5.4-13-0.7-9.7 4.7-12.5-2.3-12.5-5.5 0-3.2 4.9-3.9 4.9-3.9 0 0-2.1 8.1 7.7 5.6 9.9-2.4 13.6 1.5 13.6 1.5l2.9 6.1z" />
		<path fill="#192e2e" stroke="#192e2e" stroke-width="1.1" d="m622.1 53.7c-0.2 0.1-4.1 3.5 1.3 3" />
		<path fill="none" stroke="#192e2e" stroke-width="1.1" fill-rule="evenodd" d="m578.8 167.2c9.1-3.7 10.8-9.9 8.6-16.9" />
		<path fill="none" stroke="#192e2e" stroke-width="1.1" fill-rule="evenodd" d="m548.1 192l5.3 2.2" />
		<path fill="none" stroke="#192e2e" stroke-width="1.1" fill-rule="evenodd" d="m560.4 228.8c2.5 0.3 3.7-1.6 4.8-3.7" />
		<path fill="none" stroke="#192e2e" stroke-width="1.1" fill-rule="evenodd" d="m552.9 233.1c0.8 1.2 2.5 2.1 0.5 4.8" />
		<path fill="none" stroke="#192e2e" stroke-width="1.1" fill-rule="evenodd" d="m634 242.6q3.2 2.2 1.1 5.9" />
		<path fill="none" stroke="#192e2e" stroke-width="1.1" fill-rule="evenodd" d="m637.3 252c4.4 2 3.3 4.1 3.4 6.1" />
		<path fill="none" stroke="#192e2e" stroke-width="1.1" fill-rule="evenodd" d="m653.9 257c3.1-0.1 4.1 1.4 5.2 2.7" />
		<path fill="#fcdd09" stroke="#192e2e" stroke-width="1.1" d="m648.9 53.7l-3.2 0.2c0 0-3 2.2-1.5 4.5 1.6 2.4 2.6 1.6 3.6 0.2 0.8-1 0.9-2.7 0.9-2.7l6.5 1.2-2.9 5.1c-1.5-0.2-2.6-1.1-3.2-0.7 0.2 0-4.3 0.5-2.6 2.2 1.7 1.6 7.6 0.5 7.6 0.5l2.5 5.4c0-0.8-8.6-3.3-10.5-2-0.2-2.7-12.5-18.5-14.9-19.6l1.8-10.1 3.9 4.3c0 0-1.3 1.4-2.3 2.2-1 0.9-1.3 2.7 0.1 3.2 1.2 0.3 2.6 0.4 3.2-0.3 0.9-1.1 0.7-3.3 0.7-3.3l4.4-1.2 0.4 5.1-3.4 0.9c0 0-1 1.3 0.3 3.2 1.5 2.1 3.3 1.7 3.8 0.6 0.5-1.1 0.6-2.6 0.6-2.6 0 0 3.9-0.9 4.7-1.5 0 1-0.8 5.4-0.5 5.2z" />
		<path fill="#da121a" stroke="#192e2e" stroke-width="1.1" d="m539 170.6c-0.3-0.3-3.2 0.6-4.2 2.1-0.5 0.7 1.5 1.3 4.5 2.5 1.4-2.4 1.7-2.9-0.3-4.6z" />
		<path fill="#da121a" stroke="#192e2e" stroke-width="1.1" d="m538.4 182l-2.2 5.5c0 0 4.9 0.5 5.7 0.5 1.5-0.1-1.4-7.2-3.5-6z" />
		<path fill="#da121a" stroke="#192e2e" stroke-width="1.1" d="m548.3 192l0.1 5.5 4.3-3.4c-0.7-2.9-2.5-2.5-4.4-2.1z" />
		<path fill="#da121a" stroke="#192e2e" stroke-width="1.1" d="m560.6 228.8c0 0 4.5-1.2 4.5-4 0.1-4.2 0.8 1.6-3.8-0.9-4.1-2.3-0.9 5.3-0.7 4.9z" />
		<path fill="#da121a" stroke="#192e2e" stroke-width="1.1" d="m552.7 238.1c2.3-1.4 1.1-3.2 1.2-4.8-2.5 0.9-5 1.7-5.5 4.1 1.5 0.5 3.1 1.1 4.3 0.7z" />
		<path fill="#da121a" stroke="#192e2e" stroke-width="1.1" d="m561.2 246c2.7 1.4 3 3.1 3.7 4.7l-5.1 1z" />
		<path fill="#da121a" stroke="#192e2e" stroke-width="1.1" d="m634.8 242.9c1.5 0.6 2.4 6.1 0 5.9-1.6-0.2-3.7-0.8-3.7-0.8 0 0 2.9-6.7 3.7-5.1z" />
		<path fill="#da121a" stroke="#192e2e" stroke-width="1.1" d="m638 252.2c-0.1-1.5 5.1 3.8 3.4 6-1.3 1.7-8.2-2-8.2-2z" />
		<path fill="#da121a" stroke="#192e2e" stroke-width="1.1" d="m652.8 256.5c0-0.7 7.4 1.3 7.1 3.7-0.1 1.6-7 2.5-7 2.5z" />
		<path fill="#da121a" stroke="#192e2e" stroke-width="1.1" d="m544.8 74.8c0 0 2.7 1 4.7-2.9l-5.6-2.9z" />
		<path fill="#da121a" stroke="#192e2e" stroke-width="1.1" d="m534.7 78.3c4.4 0.3 4.4-1.9 4.9-4.1l-5.5-1.1z" />
		<path fill="#da121a" stroke="#192e2e" stroke-width="1.1" d="m531.4 86l-3.4 5.4 6.6 0.9c-0.4-1.9 0.2-3.3-3.2-6.3z" />
		<path fill="none" stroke="#121f1f" stroke-width="1.1" fill-rule="evenodd" d="m629.7 78.7c1.7 2.4 1.2 4.9 0 7.3 0 0-7.3 6.6 0.2 8.8 0 0-7.5 3.7-9.1-7.4 0 0-7.3 11.2-14.2 2.4 0 0 6.5-0.4 6.9-6.2" />
		<path fill="none" stroke="#121f1f" stroke-width="1.1" fill-rule="evenodd" d="m561.8 153.7c0 0-1.5-11.5 2.9-11.8" />
		<path fill="#da121a" stroke="#000" stroke-width="1.1" d="m560.6 244.9c0 0 1.2-1.5 2-1.5" />
	</g>
	<g id="castle_br">
		<path fill="#fcdd09" stroke="#000" stroke-width="1.1" d="m581.7 338.1l35.5 0.1 6.9 6.3v16.9l-3.8 2.9-0.1 38.9h9.2l0.4-20-2.5-3.8-0.1-12.2 4.9-6 20.7 0.1 5.3 6.2 0.1 11.8-3.1 4.9-0.1 24.6 13.5 7.1-0.3 18.4-4.3 6.7v73l11.4 9.8 0.2 23.5-23 15.2h-105.7l-23-15.1v-23.6l10.7-8.6 0.5-73.9-4.1-6.8v-18.4l12.8-7.7 0.1-24.6-4.1-4.3-0.2-11.6 5.6-6.6h21.5l5.4 6v12.5l-3.3 4 0.2 19.9 10.3-0.1-0.2-38.7-4.1-3.8-0.4-15.8z" />
		<path fill="none" stroke="#000" stroke-width="1.1" fill-rule="evenodd" d="m582.2 561.9l0.3-39.1c0 0 15.9-25.9 34.2 0.2l0.5 39.4" />
		<path fill="none" stroke="#000" stroke-width="1.1" fill-rule="evenodd" d="m524 524l22.8 9.3 35.5 0.1" />
		<path fill="none" stroke="#000" stroke-width="1.1" fill-rule="evenodd" d="m674.7 524.1l-22.7 9.1-35.2 0.3" />
		<path fill="none" stroke="#000" stroke-width="1.1" fill-rule="evenodd" d="m523.9 532l22.7 10.5h35.4" />
		<path fill="none" stroke="#000" stroke-width="1.1" fill-rule="evenodd" d="m523.7 539.6l22.7 12.8 35.3 0.2" />
		<path fill="none" stroke="#000" stroke-width="1.1" fill-rule="evenodd" d="m535.5 528.7l-0.4 8.4" />
		<path fill="none" stroke="#000" stroke-width="1.1" fill-rule="evenodd" d="m529.7 534.7l-0.2 8.3" />
		<path fill="none" stroke="#000" stroke-width="1.1" fill-rule="evenodd" d="m540.9 539.5v9.5" />
		<path fill="none" stroke="#000" stroke-width="1.1" fill-rule="evenodd" d="m535.5 545.9l-0.2 8.9" />
		<path fill="none" stroke="#000" stroke-width="1.1" fill-rule="evenodd" d="m531.1 434.9l20.7-8.2 94.6-0.2 21.6 7.7" />
		<path fill="none" stroke="#000" stroke-width="1.1" fill-rule="evenodd" d="m535.1 441.2l21.2-6.5 86.9 0.2 20.7 6.2" />
		<path fill="none" stroke="#000" stroke-width="1.1" fill-rule="evenodd" d="m534.8 453.2l21.1-4.5 87.4 0.2 20.5 4.5" />
		<path fill="none" stroke="#000" stroke-width="1.1" fill-rule="evenodd" d="m535 466.3l21.4-2.7h85.9l21.5 2.6" />
		<path fill="none" stroke="#000" stroke-width="1.1" fill-rule="evenodd" d="m534.3 477.3l21.9 1.7 86.2 0.1 22.1-1.8" />
		<path fill="none" stroke="#000" stroke-width="1.1" fill-rule="evenodd" d="m535 489.9l21.3 3.5 86.6 0.2 21-3.2" />
		<path fill="none" stroke="#000" stroke-width="1.1" fill-rule="evenodd" d="m534.8 502.7l22.1 4.9h85.6l21.4-5.3" />
		<path fill="none" stroke="#000" stroke-width="1.1" fill-rule="evenodd" d="m534.8 514.8l21.4 6.6h26.9" />
		<path fill="none" stroke="#000" stroke-width="1.1" fill-rule="evenodd" d="m615.6 521.1l26.9 0.1 22.1-7.6" />
		<path fill="none" stroke="#000" stroke-width="1.1" fill-rule="evenodd" d="m544.3 408l7.9-4.7" />
		<path fill="none" stroke="#000" stroke-width="1.1" fill-rule="evenodd" d="m540.2 379.1l4.4-4.3 21.2-0.1 5.9 4.8" />
		<path fill="none" stroke="#000" stroke-width="1.1" fill-rule="evenodd" d="m543.8 391.7l4.7-3.6h14.9l5.5 3.8" />
		<path fill="none" stroke="#000" stroke-width="1.1" fill-rule="evenodd" d="m544 399.9l5.9-4.5 13.4 0.1 5.9 4.8" />
		<path fill="none" stroke="#000" stroke-width="1.1" fill-rule="evenodd" d="m654.4 408.2l-7.6-4.6" />
		<path fill="none" stroke="#000" stroke-width="1.1" fill-rule="evenodd" d="m581.7 338.5l0.3 18.1 3.1 4.8v41.8" />
		<path fill="none" stroke="#000" stroke-width="1.1" fill-rule="evenodd" d="m617.2 338.3l-0.3 18.2-3.1 4.8v41.8" />
		<path fill="none" stroke="#000" stroke-width="1.1" fill-rule="evenodd" d="m575.1 361.1l6.4-4.8 35.3 0.4 7.1 4.8" />
		<path fill="none" stroke="#000" stroke-width="1.1" fill-rule="evenodd" d="m579.2 364.8l5.4-3.1 29.2 0.1 6.4 3.2" />
		<path fill="none" stroke="#000" stroke-width="1.1" fill-rule="evenodd" d="m579.2 375.8l5.6-3.5 28.7 0.3 6.6 3.4" />
		<path fill="none" stroke="#000" stroke-width="1.1" fill-rule="evenodd" d="m578.9 385.8l6.1-3.2 28.7 0.2 6.4 3.4" />
		<path fill="none" stroke="#000" stroke-width="1.1" fill-rule="evenodd" d="m579.3 396.4l5-2.9 29.6 0.3 5.8 3.4" />
		<path fill="none" stroke="#000" stroke-width="1.1" fill-rule="evenodd" d="m654.7 384.2l-5.6-3.8h-14.3l-4.8 4.3" />
		<path fill="none" stroke="#000" stroke-width="1.1" fill-rule="evenodd" d="m654.8 392.4l-4.7-3.6h-15l-5.4 3.7" />
		<path fill="none" stroke="#000" stroke-width="1.1" fill-rule="evenodd" d="m654.5 400.6l-5.9-4.6-13.3 0.1-5.6 3.8" />
		<path fill="none" stroke="#000" stroke-width="1.1" fill-rule="evenodd" d="m675.2 531.3l-23.1 11.3h-34.5" />
		<path fill="none" stroke="#000" stroke-width="1.1" fill-rule="evenodd" d="m617.4 552.3h34.6l23.3-13.1" />
		<path fill="none" stroke="#000" stroke-width="1.1" fill-rule="evenodd" d="m663.9 528.7l0.1 7.7" />
		<path fill="none" stroke="#000" stroke-width="1.1" fill-rule="evenodd" d="m658.4 539.8l0.1 8.9" />
		<path fill="none" stroke="#000" stroke-width="1.1" fill-rule="evenodd" d="m669.6 533.8l0.1 8.4" />
		<path fill="none" stroke="#000" stroke-width="1.1" fill-rule="evenodd" d="m663.8 545.8l0.3 8.8" />
		<path fill="none" stroke="#000" stroke-width="1.1" fill-rule="evenodd" d="m634.3 533.2l-0.2 9.2" />
		<path fill="none" stroke="#000" stroke-width="1.1" fill-rule="evenodd" d="m625.7 542.5v9.8" />
		<path fill="none" stroke="#000" stroke-width="1.1" fill-rule="evenodd" d="m642.7 542.5v9.8" />
		<path fill="none" stroke="#000" stroke-width="1.1" fill-rule="evenodd" d="m634.1 552.5l0.2 10" />
		<path fill="none" stroke="#000" stroke-width="1.1" fill-rule="evenodd" d="m563.4 533.3v8.9" />
		<path fill="none" stroke="#000" stroke-width="1.1" fill-rule="evenodd" d="m555.1 542.4v10" />
		<path fill="none" stroke="#000" stroke-width="1.1" fill-rule="evenodd" d="m573.4 542.5l0.2 10.1" />
		<path fill="none" stroke="#000" stroke-width="1.1" fill-rule="evenodd" d="m563.7 552.5v9.7" />
		<path fill="none" stroke="#000" stroke-width="1.1" fill-rule="evenodd" d="m535.2 528.4l9.7-10.4" />
		<path fill="none" stroke="#000" stroke-width="1.1" fill-rule="evenodd" d="m539.3 516l-0.1-12.4" />
		<path fill="none" stroke="#000" stroke-width="1.1" fill-rule="evenodd" d="m550.4 505.9v13.3" />
		<path fill="none" stroke="#000" stroke-width="1.1" fill-rule="evenodd" d="m545.4 505.3v-14.1" />
		<path fill="none" stroke="#000" stroke-width="1.1" fill-rule="evenodd" d="m539.6 490.7l0.2-13.3" />
		<path fill="none" stroke="#000" stroke-width="1.1" fill-rule="evenodd" d="m550.8 478.7l-0.1 13.4" />
		<path fill="none" stroke="#000" stroke-width="1.1" fill-rule="evenodd" d="m545.5 464.7l-0.1 13.2" />
		<path fill="none" stroke="#000" stroke-width="1.1" fill-rule="evenodd" d="m539.9 451.8l-0.1 14" />
		<path fill="none" stroke="#000" stroke-width="1.1" fill-rule="evenodd" d="m550.8 450.1l0.1 14" />
		<path fill="none" stroke="#000" stroke-width="1.1" fill-rule="evenodd" d="m545.1 438.2v12.6" />
		<path fill="none" stroke="#000" stroke-width="1.1" fill-rule="evenodd" d="m658.9 515.8l-0.1-12.6" />
		<path fill="none" stroke="#000" stroke-width="1.1" fill-rule="evenodd" d="m648.2 505.6v13.3" />
		<path fill="none" stroke="#000" stroke-width="1.1" fill-rule="evenodd" d="m653.5 504.9v-13.3" />
		<path fill="none" stroke="#000" stroke-width="1.1" fill-rule="evenodd" d="m659 491v-13.5" />
		<path fill="none" stroke="#000" stroke-width="1.1" fill-rule="evenodd" d="m648 478.3v14.5" />
		<path fill="none" stroke="#000" stroke-width="1.1" fill-rule="evenodd" d="m653.5 464.6v13.2" />
		<path fill="none" stroke="#000" stroke-width="1.1" fill-rule="evenodd" d="m658.7 452.4l0.1 13.1" />
		<path fill="none" stroke="#000" stroke-width="1.1" fill-rule="evenodd" d="m647.8 449.8v14.4" />
		<path fill="none" stroke="#000" stroke-width="1.1" fill-rule="evenodd" d="m653.5 438.1v12.5" />
		<path fill="none" stroke="#000" stroke-width="1.1" fill-rule="evenodd" d="m563.3 533.1l7.6-11.8" />
		<path fill="none" stroke="#000" stroke-width="1.1" fill-rule="evenodd" d="m627.8 521.2l6.7 12.1" />
		<path fill="none" stroke="#000" stroke-width="1.1" fill-rule="evenodd" d="m653.2 517.4l10.4 11.1" />
		<path fill="none" stroke="#000" stroke-width="1.1" fill-rule="evenodd" d="m577.7 507l0.1 14.2" />
		<path fill="none" stroke="#000" stroke-width="1.1" fill-rule="evenodd" d="m599.5 507.1v3.8" />
		<path fill="none" stroke="#000" stroke-width="1.1" fill-rule="evenodd" d="m621.7 507.2v13.8" />
		<path fill="none" stroke="#000" stroke-width="1.1" fill-rule="evenodd" d="m613.5 493.3l0.2 13.5" />
		<path fill="none" stroke="#000" stroke-width="1.1" fill-rule="evenodd" d="m585.1 493l-0.2 14.2" />
		<path fill="none" stroke="#000" stroke-width="1.1" fill-rule="evenodd" d="m598.7 478.5l-0.1 14.5" />
		<path fill="none" stroke="#000" stroke-width="1.1" fill-rule="evenodd" d="m570.6 478.5v14.1" />
		<path fill="none" stroke="#000" stroke-width="1.1" fill-rule="evenodd" d="m614 463.9l-0.1 14.6" />
		<path fill="none" stroke="#000" stroke-width="1.1" fill-rule="evenodd" d="m613.5 434.7v13.9" />
		<path fill="none" stroke="#000" stroke-width="1.1" fill-rule="evenodd" d="m584.7 434.2v14.5" />
		<path fill="none" stroke="#000" stroke-width="1.1" fill-rule="evenodd" d="m599.2 449.2v13.9" />
		<path fill="none" stroke="#000" stroke-width="1.1" fill-rule="evenodd" d="m584.9 463.8v14.5" />
		<path fill="none" stroke="#000" stroke-width="1.1" fill-rule="evenodd" d="m570.8 478.6v14.6" />
		<path fill="none" stroke="#000" stroke-width="1.1" fill-rule="evenodd" d="m628.7 478.8v14.9" />
		<path fill="none" stroke="#000" stroke-width="1.1" fill-rule="evenodd" d="m538 411.8v9" />
		<path fill="none" stroke="#000" stroke-width="1.1" fill-rule="evenodd" d="m545.1 407.4v10.4" />
		<path fill="none" stroke="#000" stroke-width="1.1" fill-rule="evenodd" d="m550.8 361.2v5.6" />
		<path fill="none" stroke="#000" stroke-width="1.1" fill-rule="evenodd" d="m556.2 361.3v5.6" />
		<path fill="none" stroke="#000" stroke-width="1.1" fill-rule="evenodd" d="m561.6 361.4v5.3" />
		<path fill="none" stroke="#000" stroke-width="1.1" fill-rule="evenodd" d="m636.9 361.4v5.6" />
		<path fill="none" stroke="#000" stroke-width="1.1" fill-rule="evenodd" d="m642.7 361.5v5.6" />
		<path fill="none" stroke="#000" stroke-width="1.1" fill-rule="evenodd" d="m648.2 361.7v5.4" />
		<path fill="none" stroke="#000" stroke-width="1.1" fill-rule="evenodd" d="m546.6 562.2l0.4-28.8 9.7-12.3-0.5-86.5-3.9-7.5v-24h12.3v11.7l4.4 0.1-0.1-11.7h11.6l0.1 11.8h4.3l-0.1-11.7h12.6v11.7h4.3v-11.8h11.8l-0.1 11.8h4.3l-0.1-11.9 12.5 0.2 0.1 11.7 4.1-0.1-0.1-11.7h12.8l-0.1 22.8-4.1 8.7-0.1 86.5 9.2 11.8 0.3 29.4" />
		<path fill="none" stroke="#000" stroke-width="1.1" fill-rule="evenodd" d="m545.2 361.1v13.7l4.1 5.1 0.2 24.2" />
		<path fill="none" stroke="#000" stroke-width="1.1" fill-rule="evenodd" d="m566.4 360.9l0.2 14-2.8 5.2-0.2 23.5" />
		<path fill="none" stroke="#000" stroke-width="1.1" fill-rule="evenodd" d="m543.9 383.5l5.6-3.7h14.3l4.8 4.2" />
		<path fill="none" stroke="#000" stroke-width="1.1" fill-rule="evenodd" d="m653.3 361.7v13.8l-4.1 5.1-0.1 24.1" />
		<path fill="none" stroke="#000" stroke-width="1.1" fill-rule="evenodd" d="m632.1 361.6l-0.1 14 2.8 5.2 0.2 23.4" />
		<path fill="none" stroke="#000" stroke-width="1.1" fill-rule="evenodd" d="m627.6 379.2l4.1-3.6 21.2-0.2 5.4 4.1" />
		<path fill="none" stroke="#000" stroke-width="1.1" fill-rule="evenodd" d="m590.5 338.3v7.5" />
		<path fill="none" stroke="#000" stroke-width="1.1" fill-rule="evenodd" d="m598.8 338.2v7.5" />
		<path fill="none" stroke="#000" stroke-width="1.1" fill-rule="evenodd" d="m608.1 338.5v7.6" />
		<path fill="none" stroke="#000" stroke-width="1.1" fill-rule="evenodd" d="m654 408.2l0.1 10.1" />
		<path fill="none" stroke="#000" stroke-width="1.1" fill-rule="evenodd" d="m661.4 412l-0.1 9.1" />
		<path fill="#0f47af" stroke="#000" stroke-width="1.1" d="m595.8 394l-0.1-17.2c0 0 3-7.9 7.1 0v17.2c0 0-7 0-7 0z" />
		<path fill="#0f47af" stroke="#000" stroke-width="1.1" d="m571.6 478.9l-0.2-24.8c0 0 4.2-11.3 9.8 0v24.8c0 0-9.6 0-9.6 0z" />
		<path fill="#0f47af" stroke="#000" stroke-width="1.1" d="m618 478.7l-0.2-24.7c0 0 4.1-11.3 9.6 0l0.1 24.8c0 0-9.5-0.1-9.5-0.1z" />
		<path fill="#0f47af" stroke="#000" stroke-width="1.1" d="m588.9 525.5c0 0 3.7-8.1 11-8.3 0 0 6.1-0.2 10.3 8v37.1l-21.5-0.1c0 0 0.2-36.7 0.2-36.7z" />
	</g>
</svg>