<?xml version="1.0" encoding="UTF-8"?>
<svg id="Layer_1" data-name="Layer 1" xmlns="http://www.w3.org/2000/svg" xmlns:xlink="http://www.w3.org/1999/xlink" viewBox="0 0 600 450">
  <defs>
    <style>
      .cls-1, .cls-2, .cls-3, .cls-4, .cls-5 {
        fill: none;
      }

      .cls-6 {
        clip-path: url(#clippath);
      }

      .cls-7 {
        fill: #036ab0;
        stroke-width: 1.5px;
      }

      .cls-7, .cls-2, .cls-8, .cls-9, .cls-10, .cls-11, .cls-3, .cls-12, .cls-13, .cls-14, .cls-15, .cls-16, .cls-17, .cls-4, .cls-18, .cls-5 {
        stroke: #010101;
      }

      .cls-19 {
        fill: #010101;
      }

      .cls-20, .cls-11, .cls-12, .cls-15 {
        fill: #fff;
      }

      .cls-21 {
        clip-path: url(#clippath-1);
      }

      .cls-22 {
        clip-path: url(#clippath-4);
      }

      .cls-23 {
        clip-path: url(#clippath-3);
      }

      .cls-24 {
        clip-path: url(#clippath-2);
      }

      .cls-25 {
        clip-path: url(#clippath-7);
      }

      .cls-26 {
        clip-path: url(#clippath-8);
      }

      .cls-27 {
        clip-path: url(#clippath-6);
      }

      .cls-28 {
        clip-path: url(#clippath-5);
      }

      .cls-29 {
        clip-path: url(#clippath-9);
      }

      .cls-2, .cls-8, .cls-10 {
        stroke-width: .5px;
      }

      .cls-8 {
        fill: #1172ba;
      }

      .cls-8, .cls-9, .cls-10, .cls-15, .cls-16, .cls-17, .cls-5 {
        stroke-linejoin: round;
      }

      .cls-8, .cls-10, .cls-3, .cls-15, .cls-16, .cls-17, .cls-5 {
        stroke-linecap: round;
      }

      .cls-30 {
        clip-path: url(#clippath-10);
      }

      .cls-31 {
        clip-path: url(#clippath-11);
      }

      .cls-9, .cls-10, .cls-13, .cls-16 {
        fill: #e9c11e;
      }

      .cls-9, .cls-3, .cls-12, .cls-13, .cls-14, .cls-15, .cls-16, .cls-17, .cls-4, .cls-5 {
        stroke-width: .28px;
      }

      .cls-3, .cls-12, .cls-13, .cls-14, .cls-4, .cls-18 {
        stroke-miterlimit: 1.1;
      }

      .cls-14, .cls-18 {
        fill: #ec2227;
      }

      .cls-17 {
        fill: #00904d;
      }

      .cls-18 {
        stroke-width: .83px;
      }
    </style>
    <symbol id="elm1" viewBox="0 0 83.83 100.5">
      <g>
        <path class="cls-7" d="M.75,.75V58.58c0,22.74,18.43,41.17,41.17,41.17s41.17-18.43,41.17-41.17V.75H.75Z"/>
        <path class="cls-11" d="M32.52,26.52c.04,5.75-4.6,10.45-10.35,10.48-5.75,.04-10.45-4.6-10.48-10.35v-.13c-.04-5.75,4.6-10.44,10.35-10.48,5.75-.04,10.45,4.6,10.48,10.35,0,.05,0,.09,0,.13Z"/>
        <path class="cls-11" d="M72.13,26.52c.04,5.75-4.6,10.45-10.35,10.48-5.75,.04-10.45-4.6-10.48-10.35v-.13c-.04-5.75,4.6-10.44,10.35-10.48,5.75-.04,10.45,4.6,10.48,10.35,0,.05,0,.09,0,.13Z"/>
        <path class="cls-11" d="M52.33,47.29c.04,5.75-4.6,10.44-10.35,10.48s-10.45-4.6-10.48-10.35v-.13c-.04-5.75,4.6-10.45,10.35-10.48,5.75-.04,10.45,4.6,10.48,10.35,0,.04,0,.09,0,.13Z"/>
        <path class="cls-11" d="M32.52,68.06c.04,5.75-4.6,10.45-10.35,10.48-5.75,.04-10.45-4.6-10.48-10.35v-.13c-.04-5.75,4.6-10.45,10.35-10.48,5.75-.03,10.45,4.6,10.48,10.35,0,.04,0,.09,0,.13Z"/>
        <path class="cls-11" d="M72.13,68.06c.04,5.75-4.6,10.45-10.35,10.48-5.75,.04-10.45-4.6-10.48-10.35v-.13c-.04-5.75,4.6-10.45,10.35-10.48,5.75-.03,10.45,4.6,10.48,10.35,0,.04,0,.09,0,.13Z"/>
      </g>
    </symbol>
    <symbol id="elm2" viewBox="0 0 58.39 90.03">
      <g>
        <path class="cls-10" d="M51.64,14.73v25.36l-3.8-3.24V13.8l3.8,.93Z"/>
        <path class="cls-10" d="M49.83,14.45l1.86,1.18,2.09-1.98-2.15-1.21-1.8,2.01Z"/>
        <path class="cls-10" d="M51.63,8.33l2.14,1.56v3.76l-2.14-1.21v-4.11Z"/>
        <path class="cls-10" d="M38.83,14.73v25.36l3.91-3.35V13.69l-3.91,1.05Z"/>
        <path class="cls-10" d="M40.64,14.45l-1.86,1.18-2.09-1.98,2.15-1.21,1.8,2.01Z"/>
        <path class="cls-10" d="M38.84,8.33l-2.14,1.56v3.76l2.14-1.21v-4.11Z"/>
        <path class="cls-10" d="M38.81,12.42l1.72,2.03h9.39l1.72-2.04h-12.83Z"/>
        <path class="cls-10" d="M38.83,8.33h2.42v1.88h2.72v-1.88h2.49v1.88h2.66v-1.88h2.5v4.06h-12.79v-4.06Z"/>
        <path class="cls-10" d="M40.61,14.45v24.07h9.24V14.45h-9.24Zm4.64,4.3c1.03,.03,2,.5,2.04,2.57,.05,2.07-.01,5.95-.01,5.95h-4.06s-.08-4.05-.05-6,1.04-2.55,2.08-2.52Z"/>
        <path class="cls-10" d="M35.6,6.62V40.23l-3.69-2.91V6.01l3.69,.61Z"/>
        <path class="cls-10" d="M33.79,6.35l1.87,1.18,2.09-1.98-2.15-1.21-1.8,2Z"/>
        <path class="cls-10" d="M35.59,.25l2.14,1.56v3.76l-2.14-1.21V.25Z"/>
        <path class="cls-10" d="M22.79,6.62V40.15l3.59-3.02V5.9l-3.59,.72Z"/>
        <path class="cls-10" d="M24.6,6.35l-1.86,1.18-2.09-1.98,2.15-1.21,1.8,2Z"/>
        <path class="cls-10" d="M22.8,.25l-2.14,1.56v3.76l2.14-1.21V.25Z"/>
        <path class="cls-10" d="M22.77,4.33l1.72,2.03h9.39l1.72-2.04h-12.83Z"/>
        <path class="cls-10" d="M22.79,.25h2.42v1.88h2.72V.25h2.49v1.88h2.66V.25h2.5V4.31h-12.79V.25h0Z"/>
        <path class="cls-10" d="M24.55,6.35V38.84h9.25V6.35h-9.25Zm4.65,4.4c1.03,.03,1.99,.5,2.04,2.56,.05,2.06-.01,5.92-.01,5.92l-4.06-.02s-.08-4.02-.05-5.96,1.04-2.54,2.08-2.51Z"/>
        <path class="cls-10" d="M19.55,14.73v25.36l-3.8-3.24V13.8l3.8,.93Z"/>
        <path class="cls-10" d="M17.74,14.45l1.86,1.18,2.09-1.98-2.15-1.21-1.8,2.01Z"/>
        <path class="cls-10" d="M19.54,8.33l2.14,1.56v3.76l-2.14-1.21v-4.11Z"/>
        <path class="cls-10" d="M6.74,14.73v25.36l3.91-3.35V13.69l-3.91,1.05Z"/>
        <path class="cls-10" d="M8.55,14.45l-1.86,1.18-2.09-1.98,2.15-1.21,1.8,2.01Z"/>
        <path class="cls-10" d="M6.75,8.33l-2.14,1.56v3.76l2.14-1.21v-4.11Z"/>
        <path class="cls-10" d="M6.72,12.42l1.72,2.03h9.39l1.72-2.04H6.72Z"/>
        <path class="cls-10" d="M6.74,8.33h2.42v1.88h2.72v-1.88h2.49v1.88h2.66v-1.88h2.5v4.06H6.74v-4.06Z"/>
        <path class="cls-10" d="M8.52,14.45v24.07h9.24V14.45H8.52Zm4.64,4.3c1.03,.03,1.99,.5,2.04,2.57,.05,2.07-.01,5.95-.01,5.95h-4.06s-.08-4.05-.05-6c.03-1.95,1.04-2.55,2.08-2.52Z"/>
        <path class="cls-2" d="M33.85,24.08l1.75,1.11"/>
        <path class="cls-2" d="M33.85,20.57l1.75,1.1"/>
        <path class="cls-2" d="M33.85,17.04l1.75,1.11"/>
        <path class="cls-2" d="M33.85,13.53l1.75,1.11"/>
        <path class="cls-2" d="M33.85,10.02l1.75,1.1"/>
        <path class="cls-2" d="M24.54,24.08l-1.75,1.11"/>
        <path class="cls-2" d="M24.54,20.57l-1.75,1.1"/>
        <path class="cls-2" d="M24.54,17.04l-1.75,1.11"/>
        <path class="cls-2" d="M24.54,13.53l-1.75,1.11"/>
        <path class="cls-2" d="M24.54,10.02l-1.75,1.1"/>
        <path class="cls-10" d="M29.12,20.45v-1.16"/>
        <path class="cls-10" d="M24.53,10.07h9.21"/>
        <path class="cls-10" d="M31.44,13.53h2.24"/>
        <path class="cls-10" d="M31.32,17.15h2.28"/>
        <path class="cls-10" d="M24.53,20.49h9.21"/>
        <path class="cls-10" d="M24.53,24.11h9.21"/>
        <path class="cls-10" d="M29.18,27.28v-3.07"/>
        <path class="cls-10" d="M27.65,23.99v-3.41"/>
        <path class="cls-10" d="M31.05,24.03v-3.45"/>
        <path class="cls-10" d="M27.65,9.91v-3.53"/>
        <path class="cls-10" d="M30.98,9.88l.07-3.48"/>
        <path class="cls-2" d="M33.85,27.48l1.75,1.1"/>
        <path class="cls-2" d="M24.54,27.48l-1.75,1.1"/>
        <path class="cls-10" d="M24.53,27.4h9.21"/>
        <path class="cls-2" d="M33.85,31.08l1.75,1.11"/>
        <path class="cls-2" d="M24.54,31.08l-1.75,1.11"/>
        <path class="cls-10" d="M24.53,31.1h9.21"/>
        <path class="cls-10" d="M27.65,30.99v-3.42"/>
        <path class="cls-10" d="M31.05,31.03v-3.45"/>
        <path class="cls-10" d="M29.18,38.62v-7.37"/>
        <path class="cls-10" d="M24.71,13.53h2.23"/>
        <path class="cls-10" d="M24.69,17.15h2.28"/>
        <path class="cls-10" d="M29.12,10.62v-.54"/>
        <path class="cls-2" d="M49.89,32.19l1.75,1.1"/>
        <path class="cls-2" d="M49.89,28.67l1.75,1.11"/>
        <path class="cls-2" d="M49.89,25.15l1.75,1.1"/>
        <path class="cls-2" d="M49.89,21.63l1.75,1.1"/>
        <path class="cls-2" d="M49.89,18.12l1.75,1.11"/>
        <path class="cls-2" d="M40.58,32.19l-1.75,1.1"/>
        <path class="cls-2" d="M40.58,28.67l-1.75,1.11"/>
        <path class="cls-2" d="M40.58,25.15l-1.75,1.1"/>
        <path class="cls-2" d="M40.58,21.63l-1.75,1.1"/>
        <path class="cls-2" d="M40.58,18.12l-1.75,1.11"/>
        <path class="cls-10" d="M45.16,28.4v-1.06"/>
        <path class="cls-10" d="M40.57,18.17h9.21"/>
        <path class="cls-10" d="M47.34,21.63h2.26"/>
        <path class="cls-10" d="M47.47,25.25h2.17"/>
        <path class="cls-10" d="M40.57,28.58h9.21"/>
        <path class="cls-10" d="M40.57,32.2h9.21"/>
        <path class="cls-10" d="M45.16,38.41v-6.21"/>
        <path class="cls-10" d="M43.69,32.1v-3.42"/>
        <path class="cls-10" d="M47.09,32.12v-3.45"/>
        <path class="cls-10" d="M43.69,18.18v-3.69"/>
        <path class="cls-10" d="M47.02,18.18l.07-3.69"/>
        <path class="cls-10" d="M40.76,21.63h2.26"/>
        <path class="cls-10" d="M40.72,25.25h2.17"/>
        <path class="cls-10" d="M45.16,18.69v-.44"/>
        <path class="cls-2" d="M17.8,32.19l1.75,1.1"/>
        <path class="cls-2" d="M17.8,28.67l1.75,1.11"/>
        <path class="cls-2" d="M17.8,25.15l1.75,1.1"/>
        <path class="cls-2" d="M17.8,21.63l1.75,1.1"/>
        <path class="cls-2" d="M17.8,18.12l1.75,1.11"/>
        <path class="cls-2" d="M8.49,32.19l-1.75,1.1"/>
        <path class="cls-2" d="M8.49,28.67l-1.75,1.11"/>
        <path class="cls-2" d="M8.49,25.15l-1.75,1.1"/>
        <path class="cls-2" d="M8.49,21.63l-1.75,1.1"/>
        <path class="cls-2" d="M8.49,18.12l-1.75,1.11"/>
        <path class="cls-10" d="M13.07,28.4v-1.06"/>
        <path class="cls-10" d="M8.48,18.17h9.21"/>
        <path class="cls-10" d="M15.25,21.63h2.26"/>
        <path class="cls-10" d="M15.38,25.25h2.17"/>
        <path class="cls-10" d="M8.48,28.58h9.21"/>
        <path class="cls-10" d="M8.48,32.2h9.21"/>
        <path class="cls-10" d="M13.07,38.41v-6.21"/>
        <path class="cls-10" d="M11.61,32.1v-3.42"/>
        <path class="cls-10" d="M15,32.12v-3.45"/>
        <path class="cls-10" d="M11.61,18.18v-3.69"/>
        <path class="cls-10" d="M14.94,18.18l.07-3.69"/>
        <path class="cls-10" d="M8.68,21.63h2.26"/>
        <path class="cls-10" d="M8.63,25.25h2.17"/>
        <path class="cls-10" d="M13.07,18.69v-.44"/>
        <path class="cls-8" d="M15.99,60.88s-.09-6.4-.06-9.48c.04-3.09,1.37-4.03,2.74-3.99s2.65,.79,2.71,4.07c.06,3.27-.02,9.41-.02,9.41h-5.38Z"/>
        <path class="cls-8" d="M37.04,60.88s-.09-6.4-.05-9.48,1.37-4.03,2.74-3.99,2.65,.79,2.71,4.07c.06,3.27-.02,9.41-.02,9.41h-5.38Z"/>
        <path class="cls-8" d="M25.4,89.77s-.13-5.73-.08-10.18c.05-4.44,1.94-5.81,3.88-5.74,1.94,.06,3.74,1.14,3.83,5.85,.08,4.71-.02,10.07-.02,10.07h-7.61Z"/>
        <path class="cls-8" d="M11.13,27.37s-.07-4.01-.04-5.94,1.04-2.52,2.07-2.5c1.03,.03,2,.5,2.04,2.55,.05,2.05-.01,5.9-.01,5.9h-4.06Z"/>
        <path class="cls-8" d="M43.21,27.37s-.07-4.01-.04-5.94,1.04-2.52,2.07-2.5c1.03,.03,2,.5,2.04,2.55,.05,2.05-.01,5.9-.01,5.9h-4.06Z"/>
        <path class="cls-8" d="M27.17,19.29s-.07-4.01-.04-5.94c.03-1.94,1.04-2.53,2.07-2.5,1.03,.03,2,.5,2.04,2.55,.05,2.05-.01,5.9-.01,5.9h-4.06Z"/>
        <path class="cls-10" d="M10.41,37.35l-8.61,2.31,2.54,2.54v29.01L.25,75.28v9.18l9.17,5.31h15.97c-.04-3.11-.1-7-.06-10.19,.01-1.1,.15-2.03,.36-2.78,.11-.38,.23-.72,.38-1.01,.15-.3,.32-.56,.5-.77,.18-.23,.38-.4,.58-.56,.21-.15,.42-.28,.64-.38,.45-.19,.94-.26,1.42-.24,.49,.02,.95,.1,1.4,.28,.22,.09,.44,.22,.64,.36,.2,.15,.39,.31,.57,.53,.18,.22,.33,.47,.47,.77,.14,.29,.27,.64,.38,1.02,.21,.77,.34,1.71,.36,2.89,.06,3.35,.02,7.05-.01,10.08h15.94l9.18-5.31v-9.18l-4.09-4.08v-29.01l2.52-2.54-8.6-2.31H10.41Zm8,10.05c.09,0,.17,0,.26,0,1.37,.05,2.65,.8,2.71,4.07,.06,3.27-.01,9.42-.01,9.42l-5.38-.02s-.1-6.39-.06-9.48c.03-2.9,1.21-3.91,2.49-3.99Zm21.05,0c.09,0,.17,0,.26,0,1.37,.05,2.65,.8,2.71,4.07,.06,3.27-.02,9.42-.02,9.42l-5.38-.02s-.09-6.39-.05-9.48c.03-2.9,1.21-3.91,2.49-3.99Z"/>
        <path class="cls-2" d="M.28,75.27l9.16,5.22v9.21"/>
        <path class="cls-2" d="M4.35,71.19l9.06,2.41m-4.02,6.87l4-6.86"/>
        <path class="cls-2" d="M13.41,73.56V40.41"/>
        <path class="cls-2" d="M10.49,37.35l2.89,2.93"/>
        <path class="cls-2" d="M4.33,42.21l9.11-1.9"/>
        <path class="cls-2" d="M58.1,75.27l-9.16,5.22v9.21"/>
        <path class="cls-2" d="M54.03,71.19l-9.06,2.41m4.02,6.87l-4-6.86"/>
        <path class="cls-2" d="M44.98,73.56V40.41"/>
        <path class="cls-2" d="M47.9,37.35l-2.89,2.93"/>
        <path class="cls-2" d="M54.05,42.21l-9.11-1.9"/>
        <path class="cls-2" d="M13.39,73.64h31.59"/>
        <path class="cls-2" d="M13.39,40.31h31.59"/>
        <path class="cls-2" d="M33.88,80.48h14.96"/>
        <path class="cls-2" d="M9.53,80.48h14.96"/>
        <path class="cls-10" d="M29.08,71.39c-3.23-.09-6.38,1.69-6.47,7.52-.09,5.82,.13,10.86,.13,10.86h2.63c-.04-3.11-.1-6.99-.06-10.17,.01-1.11,.15-2.03,.36-2.78,.11-.38,.23-.71,.38-1.01,.15-.3,.32-.56,.5-.77,.18-.22,.38-.4,.58-.56,.21-.16,.42-.28,.64-.38,.45-.19,.94-.26,1.42-.24,.48,.02,.95,.1,1.4,.27,.22,.1,.44,.22,.64,.36,.2,.15,.39,.32,.57,.53,.18,.22,.33,.47,.47,.76,.14,.3,.27,.64,.38,1.02,.21,.77,.34,1.71,.36,2.89,.06,3.35,.01,7.05-.01,10.08h2.4s.18-4.57,.04-10.73c-.14-6.17-3.14-7.58-6.38-7.66Z"/>
        <path class="cls-10" d="M54.19,32.26l-1.42,.38v2.79l2.07-.56v-1.8l-.65-.82Z"/>
        <path class="cls-10" d="M47.8,29.42l3.29,1.46v2.44l3.09,.97v-2.04l2.52,1.11v6.18l-8.92-2.09,.02-8.03Z"/>
        <path class="cls-10" d="M4.2,32.26l1.42,.38v2.79l-2.07-.56v-1.8l.65-.82Z"/>
        <path class="cls-10" d="M10.59,29.42l-3.29,1.46v2.44l-3.09,.97v-2.04l-2.52,1.11v6.18l8.92-1.87-.02-8.25Z"/>
        <path class="cls-10" d="M18.09,29.42h-7.55v8.15H47.85v-8.15h-7.48v3.36h-7.49v-3.36h-7.28v3.36h-7.5v-3.36Z"/>
        <path class="cls-2" d="M53.89,47.08l-8.96-1.21"/>
        <path class="cls-2" d="M53.9,51.92l-8.84-.5"/>
        <path class="cls-2" d="M53.91,56.71l-8.77,.26"/>
        <path class="cls-2" d="M53.93,61.57l-8.99,.95"/>
        <path class="cls-2" d="M53.87,66.39l-8.94,1.68"/>
        <path class="cls-2" d="M48.98,85.06l9.11-5.26"/>
        <path class="cls-2" d="M49.53,41.36v5.07"/>
        <path class="cls-2" d="M49.53,51.67v5.07"/>
        <path class="cls-2" d="M49.53,62.08v5.07"/>
        <path class="cls-2" d="M49.53,72.45l4.03,5.36"/>
        <path class="cls-2" d="M53.54,87.04v-4.54"/>
        <path class="cls-2" d="M46.88,46.17v5.33"/>
        <path class="cls-2" d="M52.53,46.92v4.83"/>
        <path class="cls-2" d="M46.88,56.97v5.27"/>
        <path class="cls-2" d="M52.53,56.87v4.9"/>
        <path class="cls-2" d="M46.88,67.69v5.33"/>
        <path class="cls-2" d="M52.53,66.72v4.94"/>
        <path class="cls-2" d="M50.81,79.39v4.56"/>
        <path class="cls-2" d="M56.46,76.24v4.56"/>
        <path class="cls-2" d="M9.4,85.09L.3,79.77"/>
        <path class="cls-2" d="M4.41,47.08l8.96-1.21"/>
        <path class="cls-2" d="M4.4,51.92l9.04-.5"/>
        <path class="cls-2" d="M4.39,56.71l8.98,.26"/>
        <path class="cls-2" d="M4.37,61.57l8.99,.95"/>
        <path class="cls-2" d="M4.43,66.39l8.94,1.68"/>
        <path class="cls-2" d="M9.42,85.06L.31,79.8"/>
        <path class="cls-2" d="M8.88,41.36v5.07"/>
        <path class="cls-2" d="M8.88,51.67v5.07"/>
        <path class="cls-2" d="M8.88,62.08v5.07"/>
        <path class="cls-2" d="M8.88,72.45l-4.03,5.36"/>
        <path class="cls-2" d="M4.86,87.04v-4.54"/>
        <path class="cls-2" d="M11.52,46.17v5.33"/>
        <path class="cls-2" d="M5.87,46.92v4.83"/>
        <path class="cls-2" d="M11.52,56.97v5.27"/>
        <path class="cls-2" d="M5.87,56.87v4.9"/>
        <path class="cls-2" d="M11.52,67.69v5.33"/>
        <path class="cls-2" d="M5.87,66.72v4.94"/>
        <path class="cls-2" d="M7.59,79.39v4.56"/>
        <path class="cls-2" d="M1.94,76.24v4.56"/>
        <path class="cls-2" d="M39.55,47.35v-1.35"/>
        <path class="cls-2" d="M35.58,85.08h13.38"/>
        <path class="cls-2" d="M13.27,45.87h31.59"/>
        <path class="cls-2" d="M21.62,51.42h15.32"/>
        <path class="cls-2" d="M21.53,56.97h15.28"/>
        <path class="cls-2" d="M13.27,62.52h31.59"/>
        <path class="cls-2" d="M13.27,68.07h31.59"/>
        <path class="cls-2" d="M23.81,45.84v-5.49"/>
        <path class="cls-2" d="M34.33,45.84v-5.49"/>
        <path class="cls-2" d="M23.81,56.91v-5.49"/>
        <path class="cls-2" d="M34.33,56.91v-5.49"/>
        <path class="cls-2" d="M23.81,68.07v-5.49"/>
        <path class="cls-2" d="M34.33,68.07v-5.49"/>
        <path class="cls-2" d="M18.57,47.23v-1.22"/>
        <path class="cls-2" d="M29.19,51.36v-5.39"/>
        <path class="cls-2" d="M18.57,62.4v-1.4"/>
        <path class="cls-2" d="M29.19,62.44v-5.39"/>
        <path class="cls-2" d="M39.55,62.31v-1.32"/>
        <path class="cls-2" d="M18.57,73.57v-5.4"/>
        <path class="cls-2" d="M29.19,71.36v-3.19"/>
        <path class="cls-2" d="M39.55,73.57v-5.4"/>
        <path class="cls-2" d="M16.57,80.34l2.03-6.69"/>
        <path class="cls-2" d="M41.54,80.34l-2.03-6.69"/>
        <path class="cls-2" d="M16.52,89.78v-4.65"/>
        <path class="cls-2" d="M41.57,89.78v-4.65"/>
        <path class="cls-2" d="M12.71,85.02v-4.51"/>
        <path class="cls-2" d="M19.28,85.02v-4.51"/>
        <path class="cls-2" d="M38.84,85.02v-4.51"/>
        <path class="cls-2" d="M45.42,85.02v-4.51"/>
        <path class="cls-2" d="M9.44,85.08h13.12"/>
        <path class="cls-2" d="M42.5,51.42h2.55"/>
        <path class="cls-2" d="M13.49,51.42h2.29"/>
        <path class="cls-2" d="M42.59,56.97h2.31"/>
        <path class="cls-2" d="M13.54,56.97h2.31"/>
        <path class="cls-2" d="M13.92,40.33c0-1.18,1.02-2.14,2.26-2.13,1.23,0,2.22,.96,2.23,2.13h-4.49Z"/>
        <path class="cls-2" d="M19.13,40.33c0-1.18,1.02-2.14,2.26-2.13,1.23,0,2.22,.96,2.23,2.13h-4.49Z"/>
        <path class="cls-2" d="M39.99,40.33c0-1.18,1.02-2.14,2.26-2.13,1.23,0,2.23,.96,2.23,2.13h-4.49Z"/>
        <path class="cls-2" d="M34.75,40.33c0-1.18,1.02-2.14,2.26-2.13,1.23,0,2.22,.96,2.23,2.13h-4.49Z"/>
        <path class="cls-2" d="M29.54,40.33c0-1.18,1.02-2.14,2.26-2.13,1.23,0,2.22,.96,2.23,2.13h-4.49Z"/>
        <path class="cls-2" d="M24.33,40.33c0-1.18,1.02-2.14,2.26-2.13,1.23,0,2.22,.96,2.23,2.13h-4.49Z"/>
        <path class="cls-2" d="M5.02,42.12s-1.8-2-.07-2.47c1.68-.45,3.4,1.75,3.4,1.75"/>
        <path class="cls-2" d="M9.03,41.15s-1.8-2-.07-2.47c1.68-.45,3.4,1.75,3.4,1.75"/>
        <path class="cls-2" d="M53.37,42.12s1.8-2,.07-2.47c-1.68-.45-3.4,1.75-3.4,1.75"/>
        <path class="cls-2" d="M49.36,41.15s1.8-2,.07-2.47c-1.68-.45-3.4,1.75-3.4,1.75"/>
        <path class="cls-2" d="M29.32,73.68v-2.16"/>
        <path class="cls-2" d="M22.79,87.4h2.56"/>
        <path class="cls-2" d="M22.79,85.06h2.56"/>
        <path class="cls-2" d="M22.8,78.07h2.74"/>
        <path class="cls-2" d="M22.79,80.4h2.56"/>
        <path class="cls-2" d="M22.79,82.73h2.56"/>
        <path class="cls-2" d="M27.36,74.61l-1.51-2.47"/>
        <path class="cls-2" d="M26.12,76.2l-2.72-1.47"/>
        <path class="cls-2" d="M35.59,87.4h-2.56"/>
        <path class="cls-2" d="M35.59,85.06h-2.56"/>
        <path class="cls-2" d="M35.59,78.07h-2.56"/>
        <path class="cls-2" d="M35.59,80.4h-2.56"/>
        <path class="cls-2" d="M35.59,82.73h-2.56"/>
        <path class="cls-2" d="M31.02,74.37l1.51-2.22"/>
        <path class="cls-2" d="M32.47,76.01l2.51-1.3"/>
      </g>
    </symbol>
    <clipPath id="clippath">
      <rect class="cls-1" x="241.52" y="192.67" width="14.49" height="22.35"/>
    </clipPath>
    <clipPath id="clippath-1">
      <rect class="cls-1" x="343.98" y="192.67" width="14.49" height="22.35"/>
    </clipPath>
    <clipPath id="clippath-2">
      <rect class="cls-1" x="241.52" y="248.79" width="14.49" height="22.35"/>
    </clipPath>
    <clipPath id="clippath-3">
      <rect class="cls-1" x="343.98" y="248.79" width="14.49" height="22.35"/>
    </clipPath>
    <clipPath id="clippath-4">
      <rect class="cls-1" x="253.75" y="294.31" width="14.49" height="22.35"/>
    </clipPath>
    <clipPath id="clippath-5">
      <rect class="cls-1" x="331.74" y="294.31" width="14.49" height="22.35"/>
    </clipPath>
    <clipPath id="clippath-6">
      <rect class="cls-1" x="292.75" y="313.08" width="14.49" height="22.35"/>
    </clipPath>
    <clipPath id="clippath-7">
      <rect class="cls-1" x="289.65" y="250.14" width="20.68" height="24.82"/>
    </clipPath>
    <clipPath id="clippath-8">
      <rect class="cls-1" x="263.34" y="250.14" width="20.68" height="24.82"/>
    </clipPath>
    <clipPath id="clippath-9">
      <rect class="cls-1" x="315.96" y="250.14" width="20.68" height="24.82"/>
    </clipPath>
    <clipPath id="clippath-10">
      <rect class="cls-1" x="289.65" y="219.14" width="20.68" height="24.82"/>
    </clipPath>
    <clipPath id="clippath-11">
      <rect class="cls-1" x="289.65" y="281.14" width="20.68" height="24.82"/>
    </clipPath>
  </defs>
  <g>
    <path class="cls-20" d="M1,.32V449.68H599V.32H1Z"/>
    <path class="cls-19" d="M1,.32H300V449.68h299L1,.32ZM599,.32V225H1v224.68L599,.32Z"/>
  </g>
  <g>
    <g>
      <g>
        <path class="cls-13" d="M232.06,161.42c2.6,4.79,5.71,10.93,8.12,10.18,.52-.2,.69-1.4-.09-5.26l-4.7-8.72c-.65-.99-2.5-.24-2.62,.79l-.71,3Z"/>
        <path class="cls-13" d="M236.05,166.72l.86-2.36c-1.74-2.1-4.43-5.94-7.3-10.7-.59-.99-2.63-.4-2.15,.69,3.89,6.92,6.65,10.55,8.59,12.37h0Z"/>
        <path class="cls-13" d="M367.95,161.42c-2.6,4.79-5.71,10.93-8.12,10.18-.52-.2-.69-1.4,.09-5.26l4.7-8.72c.65-.99,2.5-.24,2.62,.79l.71,3Z"/>
        <path class="cls-13" d="M363.08,164.39l.86,2.36c1.95-1.81,4.72-5.45,8.62-12.4,.49-1.1-1.55-1.68-2.15-.69-2.89,4.79-5.59,8.64-7.33,10.73h0Z"/>
        <path class="cls-16" d="M212.18,133.49l1.7-1.19c4.87-1.11,9.22,2.97,9.19,4.73,1.22-.98,2.44-.64,3.65-.58-.72,2.1-.02,3.66-.86,5.91,1.13,.31,2.01,.75,2.26,1.52l1.13-.64,1.4-.06c.27,5.84-1.9,4.56-1.46,6.73l2.33-2.51,2.53,.23c1.24,.21,1.59,1.49,2.92,1.64-.94,1.12-1.52,3.09-2.39,4.44-1.08,.69-2.02,.57-2.92,.18,2.94,.95,3.71,3.18,4.85,4.39-1.2,.06-2.28,.18-2.79,.23,1.86,2.33,2.91,4.19,4.72,5.5l-1.06,.18-5.52-2.4-4.65-4.21-5.71-7.78-.2-12.28c-2.91-1.31-2.47-4.34-9.1-4.01Z"/>
        <path class="cls-9" d="M212,133.57c7.94,.73,7.93,10.6,9.51,16.44l5.07,7.56c3.21,2.73,5.28,6.13,7.27,6.53,1.92,.39,1.79-.33,3.75,.07-3.83-1.5-2.08-4.96-10.03-7.06,2.57-1.25,2.57,2.2,7.73,1.22-1.41-3.11-4.45-3.26-5.82-4.42,2.1-.6,2.33,.59,3.86,.05,1.7-.6,1.31-2.92,2.65-4.47-1.76-.68-3.19-2.72-5.36-1.73-.75,.55-1.86,2.41-3.11,2.84-.53-2.48,1.24-2.7,1.61-3.96,.37-1.25-.22-1.62,.12-3.4-5.72,1.86-3.56,5.22-6.17,6.69-.03-3.57,1.12-2.05,3.23-5.98-.8-1.04-1.36-.85-2.02-1.17,1.05-1.99,.1-3.21,1.21-5.99-2.1-.62-2.81,.38-3.4,1.02-.21-1.73-4.8-7.31-10.09-4.26Z"/>
      </g>
      <path class="cls-4" d="M223.35,140.26c-1.69,3.33-1.52,6.67-1.4,10m4.11-1.77c-.34,1.68-1.54,2.59-2.8,3.46m8.74-1c-3.02,.2-3.24,1.89-7.69,2.46m.87,1.08c2.16,.38,4.29,.79,5.77,1.77m-4.63,.62c2.94,3.12,5.41,3.4,6.29,5"/>
      <path class="cls-12" d="M226.19,156.69s-.04,.04-.07,.05c-1.49,.86-3.68,.25-4.89-1.37-1.21-1.62-.98-3.63,.51-4.49,.03-.02,.06-.02,.08-.03l4.37,5.84Z"/>
      <g>
        <path class="cls-13" d="M221.76,150.13l-.81,.47,5.11,6.84,.81-.47c-1.69-2.81-3.52-5.35-5.11-6.84Z"/>
        <path class="cls-16" d="M387.82,133.49l-1.7-1.19c-4.87-1.11-9.22,2.97-9.19,4.73-1.22-.98-2.44-.64-3.66-.58,.72,2.1,.02,3.66,.86,5.91-1.13,.31-2.01,.75-2.26,1.52l-1.13-.64-1.4-.06c-.27,5.84,1.9,4.56,1.46,6.73l-2.32-2.51-2.53,.23c-1.24,.21-1.59,1.49-2.92,1.64,.94,1.12,1.52,3.09,2.39,4.44,1.08,.69,2.02,.57,2.92,.18-2.94,.95-3.71,3.18-4.85,4.39,1.2,.06,2.28,.18,2.79,.23-1.86,2.33-2.91,4.19-4.72,5.5l1.06,.18,5.52-2.4,4.65-4.21,5.71-7.78,.2-12.28c2.91-1.31,2.47-4.34,9.1-4.01Z"/>
        <path class="cls-9" d="M388,133.57c-7.94,.73-7.93,10.6-9.51,16.44l-5.07,7.56c-3.21,2.73-5.28,6.13-7.27,6.53-1.92,.39-1.79-.33-3.75,.07,3.83-1.5,2.08-4.96,10.03-7.05-2.57-1.25-2.57,2.2-7.73,1.22,1.41-3.11,4.45-3.26,5.83-4.42-2.1-.6-2.33,.59-3.86,.05-1.7-.6-1.31-2.92-2.65-4.47,1.76-.68,3.19-2.72,5.36-1.73,.75,.55,1.86,2.41,3.11,2.84,.53-2.48-1.24-2.7-1.61-3.96-.37-1.25,.22-1.62-.12-3.4,5.72,1.86,3.56,5.22,6.17,6.69,.03-3.57-1.12-2.05-3.23-5.98,.8-1.04,1.36-.85,2.02-1.17-1.05-1.99-.1-3.21-1.21-5.99,2.1-.62,2.81,.38,3.4,1.02,.21-1.73,4.8-7.31,10.09-4.26h0Z"/>
      </g>
      <path class="cls-4" d="M376.65,140.26c1.69,3.33,1.52,6.67,1.4,10m-4.11-1.77c.34,1.68,1.54,2.59,2.8,3.46m-8.74-1c3.02,.2,3.24,1.89,7.69,2.46m-.87,1.08c-2.16,.38-4.3,.79-5.77,1.77m4.63,.62c-2.94,3.12-5.41,3.4-6.29,5"/>
      <path class="cls-12" d="M373.81,156.69s.04,.04,.07,.05c1.49,.86,3.68,.25,4.89-1.37,1.21-1.62,.98-3.63-.51-4.49-.03-.02-.06-.02-.08-.03l-4.36,5.84Z"/>
      <g>
        <path class="cls-13" d="M378.24,150.13l.81,.47-5.11,6.84-.81-.47c1.69-2.81,3.52-5.35,5.11-6.84Z"/>
        <path class="cls-13" d="M300.01,143.63c-.44,0-.88,.28-.9,.8-.4,5.18-2.54,13.25-10.48,14.71-7.87,1.45-14.82-9.57-15.11-13.95,0-.65-.53-.91-1.07-.88-.61,.03-1.23,.43-1.08,1.01,1.17,5.98-.06,13.6-5.51,14.97-5.43,1.36-11.36-5.01-15.59-12.94-.39-1.5-2.65-.91-2.21,.19,3.45,8.25,2.28,14.06-.2,15.28-3.01,.91-9.3-6.35-12.83-12.75-.6-.87-2.81-.42-2.29,.69,2.57,4.92,5.12,9.84,5.24,14.84-.29-.29-.68-.72-1.09-1.23l-.86,2.36c2.07,1.93,3.22,1.81,3.8,1.3,1.15-1.02,1.18-3.14-.37-7.86,2.85,2.85,7.33,6.34,10.21,4.42,2.88-1.93,3.15-5.39,2.89-9.6,3.53,4.34,8.89,8.82,13.7,7.7,4.88-1.13,7-5.38,7.66-10.8,2.69,4.91,8.22,10.52,15.05,9.66,6.56-.83,10.32-8.07,11.02-10.45,.7,2.38,4.47,9.63,11.03,10.45,6.82,.86,12.36-4.75,15.04-9.66,.65,5.42,2.78,9.67,7.66,10.8,4.81,1.11,10.18-3.37,13.7-7.7-.26,4.2,0,7.67,2.89,9.6,2.88,1.93,7.36-1.57,10.21-4.42-1.55,4.72-1.52,6.84-.37,7.86,.57,.51,1.72,.64,3.77-1.27l-.86-2.36c-.41,.49-.78,.91-1.07,1.2,.12-5,2.67-9.92,5.24-14.84,.53-1.11-1.68-1.56-2.28-.69-3.53,6.4-9.82,13.66-12.83,12.75-2.48-1.22-3.65-7.03-.2-15.28,.43-1.1-1.82-1.69-2.21-.19-4.23,7.93-10.15,14.3-15.58,12.94-5.45-1.36-6.68-8.98-5.51-14.97,.28-1.09-2.16-1.52-2.15-.13-.29,4.38-7.24,15.4-15.11,13.95-7.94-1.46-10.07-9.53-10.48-14.71,0-.54-.43-.81-.87-.8h0Z"/>
        <path class="cls-13" d="M285.19,130.34s3.64-.66,5.61,2.33c1.93,2.93,6.65,2.63,6.65,2.63l-2,6.6-12.86-4.95c-.09,0,.79-1.25,2.44-1.13s2.58,2.28,5.1,1.28l-4.94-6.75Z"/>
        <path class="cls-13" d="M314.81,130.34s-3.64-.66-5.61,2.33c-1.93,2.93-6.65,2.63-6.65,2.63l2,6.6,12.86-4.95c.09,0-.79-1.25-2.44-1.13-1.65,.12-2.58,2.28-5.1,1.28l4.94-6.75Z"/>
        <path class="cls-13" d="M299.97,112.97c-2.21,2.43-4.47,5.15-4.59,8.74-1.77-1.88-3.55-.56-5.32-.23,.89,1.22-.03,4.56,1.18,6.83-1.29,.1-1.87,1.26-2.66,1.95,.53,2,6.56,2.28,7.61,5.93-6.57-.67-4.49-5.49-11.08-5.85-1.05,5.52,3.15,4.43,3.47,7.43-2.01,.38-2.51-1.68-4.25-1.59-2.45,.12-3.51,2.84-5.06,3.77,2.39,.66,3.28,2.97,5.68,3.53,1.29,.3,1.9-2.02,3.93-.98-1.98,2.79-3.96,1.97-2.96,5.93,7.51,.67,4.44-4.52,9.46-3.75-7.58,4.74-3.42,6.54-5.32,10.21,3.91-1.62,5.31-.51,9.94-3.88,4.63,3.37,6.03,2.26,9.94,3.88-1.9-3.67,2.26-5.47-5.32-10.21,5.02-.77,1.95,4.43,9.46,3.75,1-3.96-.97-3.13-2.96-5.93,2.02-1.05,2.63,1.28,3.93,.98,2.4-.56,3.29-2.87,5.68-3.53-1.55-.93-2.61-3.65-5.06-3.77-1.75-.08-2.25,1.97-4.25,1.59,.33-3,4.53-1.91,3.47-7.43-6.6,.36-4.52,5.19-11.08,5.85,1.05-3.65,7.08-3.93,7.61-5.93-.79-.69-1.37-1.85-2.66-1.95,1.21-2.28,.29-5.61,1.18-6.83-1.77-.34-3.55-1.65-5.32,.23-.12-3.58-2.38-6.31-4.59-8.74l-.03-.03-.03,.03Z"/>
      </g>
      <g>
        <path class="cls-3" d="M300.05,136.64c-.23-.42,0-20.2,0-20.2m-1.2,27.27c-.59,2.37-2.7,6.17-5.17,7.52m2.6-9.64c-1.96,.1-5.59,2.1-7.04,3.05m6.7-3.95c-6.93,.64-9.76-2.2-11.91-1.32m12.2-.73s-1.7-.5-3.7-1.06c-1.28-.36-2.06-1.95-2.88-2.83m9.46,1.46s-.1-1.32-1.66-5.01c-1.51-3.58-3.46-5.49-3.46-5.49m7.17,18.01c.59,2.37,2.7,6.17,5.17,7.52m-2.6-9.64c1.96,.1,5.59,2.1,7.04,3.05m-6.7-3.95c6.93,.64,9.76-2.2,11.91-1.32m-12.2-.73s1.7-.5,3.7-1.06c1.28-.36,2.06-1.95,2.88-2.83m-9.46,1.46s.1-1.32,1.66-5.01c1.51-3.58,3.46-5.49,3.46-5.49"/>
        <path class="cls-16" d="M304.68,140.13c0,2.38-2.03,4.32-4.55,4.32-2.52,0-4.56-1.92-4.56-4.31v-.02c0-2.38,2.03-4.32,4.55-4.32,2.52,0,4.56,1.92,4.56,4.31,0,0,0,0,0,.02Z"/>
        <path class="cls-15" d="M303.75,140.13c0,1.89-1.61,3.43-3.61,3.44-2,0-3.62-1.53-3.63-3.42h0c0-1.91,1.61-3.45,3.61-3.45,2,0,3.62,1.53,3.63,3.42,0,0,0,0,0,.01Z"/>
      </g>
      <g>
        <path class="cls-13" d="M299.94,161.1c-18.15,.18-36.5,.2-54.33,3.79-3.98,1.19-9.66,1.85-11.16,6.06-.49,3.51,4.01,5,6.82,5.97,13.38,3.8,27.52,4.12,41.39,4.72,21.57,.41,43.28,.57,64.69-2.26,5.85-1.07,12.29-1.73,17.1-5.33,2.87-2.66-.31-6.38-3.48-7.15-10.89-3.95-22.77-4.38-34.29-5.18-8.9-.46-17.82-.61-26.74-.61h0Z"/>
        <path class="cls-13" d="M299.99,165.42c-9.89,0-18.23,.18-25.26,.5-1.41,.06-2.76,.13-4.07,.21-15.63,.88-24.02,2.43-28.51,3.85-.37,.12-.73,.23-1.05,.35-1.61,.58-2.59,1.13-3.2,1.58-.12,.09-.22,.17-.31,.25-.09,.08-.17,.16-.24,.24-.4,.44-.39,.71-.39,.71l3.42,11.67h119.23l3.42-11.67s.01-.27-.39-.71c-.07-.08-.15-.15-.24-.24-.55-.49-1.58-1.14-3.51-1.84,0,0,0,0,0,0-4.19-1.51-12.61-3.25-29.55-4.2,0,0,0,0,0,0-1.3-.07-2.65-.14-4.06-.21-7.03-.32-15.37-.5-25.26-.5h0Z"/>
        <path class="cls-16" d="M328.24,171.14c.02,2.3-1.8,4.18-4.06,4.19-2.26,.02-4.1-1.84-4.11-4.14,0-.02,0-.04,0-.06-.02-2.3,1.8-4.18,4.06-4.19,2.26-.02,4.1,1.84,4.11,4.14,0,.02,0,.04,0,.06Z"/>
        <path class="cls-16" d="M328.58,171.14c.02,2.3-1.76,4.18-3.97,4.19-2.21,.02-4.01-1.84-4.02-4.14,0-.02,0-.04,0-.06-.01-2.3,1.76-4.18,3.97-4.19,2.21-.02,4.01,1.84,4.02,4.14,0,.02,0,.04,0,.06Z"/>
      </g>
      <g>
        <path class="cls-15" d="M328.21,171.15c.01,1.99-1.56,3.61-3.51,3.63-1.95,.01-3.54-1.59-3.56-3.58v-.05c-.01-1.99,1.56-3.61,3.51-3.63,1.95-.01,3.54,1.59,3.56,3.58,0,.02,0,.03,0,.05Z"/>
        <path class="cls-16" d="M271.76,171.14c-.02,2.3,1.8,4.18,4.06,4.19,2.26,.02,4.1-1.84,4.11-4.14v-.06c.01-2.3-1.8-4.18-4.06-4.19-2.26-.02-4.1,1.84-4.11,4.14,0,.02,0,.04,0,.06Z"/>
        <path class="cls-16" d="M271.42,171.14c-.01,2.3,1.76,4.18,3.97,4.19,2.21,.02,4.01-1.84,4.02-4.14v-.06c.01-2.3-1.76-4.18-3.97-4.19-2.21-.02-4.01,1.84-4.02,4.14,0,.02,0,.04,0,.06Z"/>
        <path class="cls-15" d="M271.79,171.15c-.01,1.99,1.56,3.61,3.51,3.63,1.95,.01,3.54-1.59,3.56-3.58v-.05c.01-1.99-1.56-3.61-3.51-3.63-1.95-.01-3.54,1.59-3.56,3.58v.05Z"/>
      </g>
      <g>
        <path class="cls-5" d="M262.96,171.61l-6.54-3.13-.42,.08,6.24,3.18,.72-.13Z"/>
        <path class="cls-5" d="M262.96,171.61l-6.54,5.48-.42,.08,6.24-5.43,.72-.13Z"/>
        <path class="cls-5" d="M255.98,177.15l-5.88-3.12,5.86-5.45"/>
      </g>
      <path class="cls-17" d="M260.62,172.07l-4.7,4.18-4.63-2.52,4.65-4.1,4.67,2.45Z"/>
      <g>
        <path class="cls-5" d="M257.45,172.66l-2.48,2.2-2.45-1.33,2.46-2.16,2.47,1.29Z"/>
        <path class="cls-5" d="M255.94,176.23l-.97-1.37"/>
        <path class="cls-5" d="M251.36,173.72l1.17-.19"/>
        <path class="cls-5" d="M257.45,172.65l3.07-.55"/>
        <path class="cls-5" d="M254.97,171.39l.97-1.76"/>
        <path class="cls-5" d="M337.03,171.61l6.54-3.13,.42,.08-6.24,3.18-.72-.13Z"/>
        <path class="cls-5" d="M337.03,171.61l6.54,5.48,.42,.08-6.24-5.43-.72-.13Z"/>
        <path class="cls-5" d="M344,177.15l5.88-3.12-5.86-5.45"/>
      </g>
      <path class="cls-17" d="M339.36,172.07l4.7,4.18,4.63-2.52-4.65-4.1-4.67,2.45Z"/>
      <g>
        <path class="cls-5" d="M342.53,172.66l2.49,2.2,2.45-1.33-2.46-2.16-2.47,1.29Z"/>
        <path class="cls-5" d="M344.04,176.23l.97-1.37"/>
        <path class="cls-5" d="M348.62,173.72l-1.17-.19"/>
        <path class="cls-5" d="M342.53,172.65l-3.07-.55"/>
        <path class="cls-5" d="M345.01,171.39l-.97-1.76"/>
      </g>
      <path class="cls-13" d="M295.87,166.44h8.26c2.39,0,4.32,1.89,4.32,4.23s-1.93,4.23-4.32,4.23h-8.26c-2.39,0-4.32-1.89-4.32-4.23,0-2.34,1.93-4.23,4.32-4.23Z"/>
      <path class="cls-14" d="M296.29,167.01h7.43c2.15,0,3.89,1.64,3.89,3.65s-1.74,3.65-3.89,3.65h-7.43c-2.15,0-3.89-1.64-3.89-3.65,0-2.02,1.74-3.65,3.89-3.65Z"/>
      <path class="cls-13" d="M236.63,164.46l-.87,1.8c.21,.21,.43,.41,.66,.61l.57-2.14c-.1-.13-.24-.3-.37-.28Zm126.74,0c-.16,0-.16,0-.43,.34l.67,2.04c.17-.15,.35-.31,.52-.49l-.76-1.89Z"/>
      <path class="cls-14" d="M240.17,182.66s-.06,.03-.09,.04c-1.83,.55-3.9-.73-4.63-2.86-.72-2.13,.18-4.3,2.01-4.85,.03,0,.07,0,.1-.02l2.61,7.68Z"/>
      <g>
        <path class="cls-13" d="M237.73,174.17l-1,.3,3.05,8.99,1-.3c-.82-3.58-1.89-6.9-3.05-8.99Z"/>
        <path class="cls-16" d="M243.13,170.88c.94,.02,2.16,1.71,2.8,3.98,.65,2.26,.49,4.3-.31,4.76l-.03,.02s-.1,.04-.15,.06l-1.58,.4-.72-2.51c-.27-.54-.51-1.16-.7-1.83s-.31-1.32-.37-1.92l-.71-2.49,1.77-.45Z"/>
        <path class="cls-16" d="M240.95,176.14c.68,2.41,2.02,4.19,2.99,3.96,.97-.23,1.21-2.37,.52-4.78,0-.02-.01-.04-.02-.06-.68-2.41-2.02-4.19-2.99-3.96s-1.21,2.37-.52,4.78c0,.02,.01,.04,.02,.06Z"/>
      </g>
      <path class="cls-15" d="M241.42,171.87c-3.36,1.99-1.49,7.67,2.26,7.94,2.25-1.08-.2-8.42-2.26-7.94Z"/>
      <path class="cls-14" d="M359.82,182.66s.06,.03,.09,.04c1.83,.55,3.9-.73,4.63-2.86,.72-2.13-.18-4.3-2.01-4.85-.03,0-.07,0-.1-.02l-2.61,7.68Z"/>
      <g>
        <path class="cls-13" d="M362.26,174.17l1,.3-3.05,8.99-1-.3c.82-3.58,1.89-6.9,3.05-8.99Z"/>
        <path class="cls-16" d="M356.86,170.88c-.94,.02-2.16,1.71-2.8,3.98-.65,2.26-.49,4.3,.31,4.76l.03,.02s.1,.04,.15,.06l1.58,.4,.72-2.51c.27-.54,.51-1.16,.7-1.83,.19-.67,.31-1.32,.37-1.92l.71-2.49-1.77-.45Z"/>
        <path class="cls-16" d="M359.04,176.14c-.68,2.41-2.02,4.19-2.99,3.96-.97-.23-1.21-2.37-.52-4.78,0-.02,.01-.04,.02-.06,.68-2.41,2.02-4.19,2.99-3.96s1.21,2.37,.52,4.78c0,.02-.01,.04-.02,.06Z"/>
      </g>
      <path class="cls-15" d="M358.57,171.87c3.36,1.99,1.49,7.67-2.26,7.94-2.25-1.08,.2-8.42,2.26-7.94Z"/>
      <path class="cls-13" d="M245,185.28s11.88-5.67,54.98-5.67,54.98,5.67,54.98,5.67c0,0-10.05,5.67-54.98,5.67-45.08,0-54.98-5.67-54.98-5.67Z"/>
      <path class="cls-4" d="M285.99,191.49v-12.41m-2.54,12.41v-12.41m-2.39,12.41v-12.41m-2.36,12.41v-12.41m-2.1,12.41v-12.41m-4.06,12.41v-12.41m1.95,12.41v-12.41m-5.59,12.41v-12.41m1.81,12.41v-12.41m-6.83,12.41v-12.41m1.65,12.41v-12.41m1.7,12.41v-12.41m-5.09,12.41v-12.41m-1.61,12.41v-12.41m-1.74,12.41v-12.41m-3.6,12.41v-12.41m1.86,12.41v-12.41m-3.67,12.41v-12.41m-1.66,8.69v-4.96m-1.86,4.96v-4.96m-1.86,4.96v-4.96m-1.99,4.96v-4.96m50.01,8.69v-12.41m-4.22,12.41v-12.41m-3.16,12.41v-12.41m25.33,12.41v-12.41m2.53,12.41v-12.41m2.36,12.41v-12.41m2.38,12.41v-12.41m2.08,12.41v-12.41m4.07,12.41v-12.41m-1.92,12.41v-12.41m5.59,12.41v-12.41m-1.84,12.41v-12.41m6.83,12.41v-12.41m-1.61,12.41v-12.41m-1.69,12.41v-12.41m5.06,12.41v-12.41m1.61,12.41v-12.41m1.76,12.41v-12.41m3.6,12.41v-12.41m-1.86,12.41v-12.41m3.65,12.41v-12.41m1.66,8.69v-4.96m1.84,4.96v-4.96m1.89,4.96v-4.96m1.99,4.96v-4.96m-50.04,8.69v-12.41m4.27,12.41v-12.41m3.14,12.41v-12.41"/>
      <path class="cls-13" d="M299.92,175.71c-16.72,.17-33.64,.18-50.06,3.5-3.67,1.09-8.91,1.7-10.28,5.58-.45,3.24,3.69,4.61,6.28,5.5,12.33,3.5,25.37,3.8,38.14,4.35,19.88,.38,39.88,.52,59.61-2.09,5.39-.99,11.33-1.59,15.76-4.91,2.65-2.45-.28-5.88-3.2-6.59-10.04-3.64-20.98-4.03-31.6-4.77-8.2-.42-16.42-.56-24.64-.56h0Zm.05,3.9c42.96,0,54.98,5.67,54.98,5.67,0,0-10.05,5.68-54.98,5.68s-54.97-5.68-54.97-5.68c0,0,11.87-5.67,54.97-5.67Z"/>
      <path class="cls-13" d="M347.72,149.56c1.03,.61,2.17,.98,3.59,1.18-.28,.68-.95,.24-1.01,.85-.06,.61-2.99-.22-2.54-.78,.45-.57-.39-.6-.05-1.25Z"/>
      <path class="cls-4" d="M350.37,151.28c-.82-.1-1.74-.39-2.41-.81"/>
      <path class="cls-13" d="M251.42,147.81c-1.03,.61-2.17,.98-3.59,1.18,.28,.68,.95,.23,1.01,.85,.06,.61,2.99-.22,2.54-.78-.46-.57,.39-.59,.05-1.25Z"/>
      <path class="cls-15" d="M237.02,137.77c-4.89,6.49,3.94,13.64,11.66,10.35,3.5-3.93-7.99-13.15-11.66-10.35Z"/>
      <path class="cls-4" d="M248.77,149.53c.82-.1,1.74-.39,2.41-.81"/>
      <g>
        <path class="cls-15" d="M236.22,134.63c2.17,3.79,6.48,5.26,9.63,3.28,3.15-1.97,3.95-6.64,1.78-10.43-.02-.03-.03-.06-.05-.09-2.17-3.79-6.48-5.26-9.63-3.28-3.15,1.97-3.95,6.64-1.78,10.43,.02,.03,.03,.06,.05,.09Z"/>
        <path class="cls-15" d="M258.18,138.65c1.16,4.09-.93,8.2-4.66,9.16-3.74,.97-7.71-1.57-8.88-5.66,0-.03-.02-.07-.03-.1-1.16-4.09,.93-8.19,4.66-9.16,3.74-.97,7.71,1.57,8.88,5.66,0,.03,.02,.07,.03,.1Z"/>
        <path class="cls-15" d="M362.18,139.17c5.45,6.07-2.71,13.91-10.69,11.25-3.83-3.64,6.79-13.75,10.69-11.25Z"/>
        <path class="cls-15" d="M363.48,136.42c-2.17,3.79-6.48,5.26-9.63,3.28s-3.95-6.64-1.78-10.43c.02-.03,.03-.06,.05-.09,2.17-3.79,6.48-5.26,9.63-3.28,3.15,1.97,3.95,6.64,1.78,10.43-.02,.03-.03,.06-.05,.09h0Z"/>
        <path class="cls-15" d="M341.5,140.45c-1.16,4.09,.93,8.2,4.66,9.16,3.74,.97,7.71-1.57,8.88-5.66,0-.03,.02-.07,.03-.1,1.16-4.09-.93-8.19-4.66-9.16-3.74-.97-7.71,1.57-8.88,5.66,0,.03-.02,.07-.03,.1Z"/>
      </g>
    </g>
    <path class="cls-18" d="M238.08,188.27v86.92c0,34.17,27.7,61.87,61.87,61.87s61.87-27.7,61.87-61.87v-86.92h-123.75Z"/>
    <path class="cls-12" d="M258.76,213.22v57.89c0,22.76,18.45,41.21,41.21,41.21s41.21-18.45,41.21-41.21v-57.89h-82.42Z"/>
    <g class="cls-6">
      <use width="58.39" height="90.03" transform="translate(241.52 192.67) scale(.25)" xlink:href="#elm2"/>
    </g>
    <g class="cls-21">
      <use width="58.39" height="90.03" transform="translate(343.98 192.67) scale(.25)" xlink:href="#elm2"/>
    </g>
    <g class="cls-24">
      <use width="58.39" height="90.03" transform="translate(241.52 248.79) scale(.25)" xlink:href="#elm2"/>
    </g>
    <g class="cls-23">
      <use width="58.39" height="90.03" transform="translate(343.98 248.79) scale(.25)" xlink:href="#elm2"/>
    </g>
    <g class="cls-22">
      <use width="58.39" height="90.03" transform="translate(253.75 294.31) scale(.25)" xlink:href="#elm2"/>
    </g>
    <g class="cls-28">
      <use width="58.39" height="90.03" transform="translate(331.74 294.31) scale(.25)" xlink:href="#elm2"/>
    </g>
    <g class="cls-27">
      <use width="58.39" height="90.03" transform="translate(292.75 313.08) scale(.25)" xlink:href="#elm2"/>
    </g>
    <g class="cls-25">
      <use width="83.83" height="100.5" transform="translate(289.59 250.08) scale(.25)" xlink:href="#elm1"/>
    </g>
    <g class="cls-26">
      <use width="83.83" height="100.5" transform="translate(263.28 250.08) scale(.25)" xlink:href="#elm1"/>
    </g>
    <g class="cls-29">
      <use width="83.83" height="100.5" transform="translate(315.9 250.08) scale(.25)" xlink:href="#elm1"/>
    </g>
    <g class="cls-30">
      <use width="83.83" height="100.5" transform="translate(289.59 219.08) scale(.25)" xlink:href="#elm1"/>
    </g>
    <g class="cls-31">
      <use width="83.83" height="100.5" transform="translate(289.59 281.08) scale(.25)" xlink:href="#elm1"/>
    </g>
  </g>
</svg>