<svg xmlns="http://www.w3.org/2000/svg" id="flag-icons-es-ex" viewBox="0 0 800 600">
	<rect fill="#fff" width="800" height="600" x="0" y="0" />
	<rect fill="#000" width="800" height="200" x="0" y="400" />
	<rect fill="#00ab39" width="800" height="200" x="0" y="0" />
	<g>
		<path fill="#ed1c24" stroke="#000" stroke-width=".5" fill-rule="evenodd" d="m203.5 227.6l26.1 4.4h42.6l25.4-4.6-21.7-5.6h-49.7z" />
		<path fill="#eac102" stroke="#000" stroke-width=".5" fill-rule="evenodd" d="m217.6 191.8l-6.2 7.2-9.8-1.7-6 5.6-9.1-1.8c3.7 10.2 9.7 16.1 12.3 27l27.1-6h22.9 4 22.9l27.1 6c2.6-10.9 8.6-16.8 12.4-27l-9.2 1.8-6-5.6-9.8 1.7-6.2-7.2-7.5 5.7-9.4-5.1-8.3 3.4-6-2.3v-1.5l-2 0.7-2-0.7v1.5l-6 2.3-8.3-3.4-9.4 5.1z" />
		<path fill="#eac102" stroke="#000" stroke-linecap="round" stroke-linejoin="round" stroke-width=".5" fill-rule="evenodd" d="m300 225.9q-0.2 0-0.4 0c-31.9 5.6-64.5 4.9-97.6 0-0.9-0.1-1.8 0.2-2.4 0.9-0.5 0.7-0.7 1.7-0.3 2.5 0.3 0.8 1.1 1.4 2 1.5 33.4 4.9 66.6 5.6 99.1 0 1.3-0.2 2.2-1.4 2.1-2.7-0.1-1.3-1.2-2.2-2.5-2.2z" />
		<path fill="#eac102" stroke="#000" stroke-linecap="round" stroke-linejoin="round" stroke-width=".5" fill-rule="evenodd" d="m250.7 218.1c-19.2 0-38.4 2.7-52 8-0.8 0.3-1.5 1-1.6 1.9-0.2 0.9 0.2 1.8 0.9 2.4 0.7 0.5 1.7 0.6 2.5 0.3 25.3-9.9 75.1-9.9 100.7 0 1.3 0.5 2.7-0.2 3.2-1.5 0.5-1.2-0.2-2.6-1.4-3.1-13.8-5.3-33.1-8-52.3-8z" />
		<path fill="#eac102" stroke="#000" stroke-linecap="round" stroke-linejoin="round" stroke-width=".5" fill-rule="evenodd" d="m250.7 200c-22.3 0-44.4 3.1-60 9.7-0.6 0.3-1.1 0.9-1.2 1.5-0.1 0.7 0.2 1.4 0.8 1.8 0.5 0.4 1.2 0.5 1.9 0.2 14.8-6.3 36.6-9.5 58.5-9.5 21.8 0 43.8 3.2 58.8 9.5 0.6 0.3 1.3 0.2 1.9-0.2 0.5-0.4 0.8-1.1 0.7-1.8-0.1-0.6-0.5-1.2-1.2-1.5-15.8-6.6-38-9.7-60.2-9.7z" />
		<path fill="#eac102" stroke="#000" stroke-linecap="round" stroke-linejoin="round" stroke-width=".5" fill-rule="evenodd" d="m250.8 160.4l-0.1 0.2c-1.7 2.6-8.5 2.8-8.8 6.4-0.3 4 6.6 4.8 5.2 7.1-1.3 2.2-3-4.3-7.5-3.1-4.6 1.1-0.7 5.9-4.7 8.6 3.5 1.8 2.8 8.6 7.2 6.8 2.5-1.8 5.2-4.6 7.1-2.4 0.4 2 0 4.1-0.8 6.2-2 1.7-3.9 2.6-5.8 2.7-2.1 0.1-4.4-0.8-6.9-3.1-0.4-0.5-1.1-0.7-1.7-0.6-0.7 0.1-1.3 0.5-1.6 1-1.3 2.1-3.4 4-5.6 4.4-2.2 0.5-4.7-0.1-7.8-4.1q0-0.1 0-0.1c-0.8-1.7-0.6-3.4-0.5-4.5 4-1.6 5.3 4.2 9 2.3 4-2 0.7-6.5 4.8-8.8-2.9-0.9-2.6-9.2-6.4-8.3-3.8 1-3.8 8.3-7.4 6.6-2.4-1.7 3.6-3.1 3.5-7.7-0.1-3.8-7.1-1-8.3-5.9-1.1 4.4-8.4 3.8-7.5 8.6 0.8 4 6.3 5 4.9 6.8-2.2 2.3-6.2-4.2-8.3-3.1-2.1 1.1-0.7 9.1-3 10.4 3.3 0.8 4.9 6.6 8.4 4.8 3.6-1.7 3-5.8 6.2-4.8 0.2 1.9 0.8 3.7 0.4 6-1.1 2.4-5.6 6.2-12.3 1.4-0.6-0.5-1.5-0.6-2.2-0.2-0.7 0.3-1.2 1-1.3 1.8-0.1 2.7-2.1 4.4-4.5 4.8-2.5 0.3-5.3-0.6-7.5-4 0.4-0.7 0.9-1.3 1.9-1.8 1.4-0.5 2.9 0.7 5.4 0.5 2.8-0.5-0.7-6 1.6-8.6-4-1-3.4-5.9-9.6-4.5-3.2 2.4-0.4 6.1-2.2 6.3-1.8 0.2-1.4-4.4-3.9-6.2-2.5-1.8-8.8-2.6-8 4.7 7.2-1.9 8.1 5.2 10.6 10q-0.1 0.7 0.2 1.3c2.9 5.1 7.8 7.2 12.1 6.6 3.2-0.5 6.1-2.6 7.5-5.6 6.7 3.3 13 0.8 15.6-3.4 3.1 2.7 6.5 3.6 9.5 3 2.9-0.6 5.2-2.3 7-4.4 2.6 1.9 5.3 2.9 8.1 2.7 2.9-0.1 5.6-1.3 8-3.3 2.4 2 5.1 3.2 7.9 3.3 2.8 0.2 5.6-0.8 8.2-2.7 1.7 2.1 4.1 3.8 7 4.4 3 0.6 6.3-0.3 9.4-3 2.6 4.2 8.9 6.7 15.7 3.4 1.3 3 4.2 5.1 7.5 5.6 4.2 0.6 9.1-1.5 12-6.6 0.3-0.4 0.4-0.8 0.4-1.3 2.4-4.8 3.4-11.9 10.5-10 0.8-7.3-5.4-6.5-8-4.7-2.5 1.8-2.1 6.4-3.9 6.2-1.8-0.2 1-3.9-2.2-6.3-6.2-1.4-5.6 3.5-9.5 4.5 2.2 2.6-1.3 8.1 1.5 8.6 2.5 0.2 4-1 5.5-0.5 0.9 0.5 1.4 1 1.7 1.7-2.1 3.5-5 4.4-7.4 4.1-2.5-0.4-4.4-2.1-4.6-4.8-0.1-0.8-0.5-1.5-1.3-1.8-0.7-0.4-1.5-0.3-2.2 0.2-6.4 4.7-10.9 1.2-12.2-1.2-0.4-2.4 0.2-4.2 0.4-6.2 3.2-1 2.6 3.1 6.2 4.8 3.5 1.8 5.1-4 8.4-4.8-2.2-1.3-0.8-9.3-2.9-10.4-2.2-1.1-6.2 5.4-8.4 3.1-1.4-1.8 4.1-2.8 4.9-6.8 0.9-4.8-6.4-4.2-7.5-8.6-1.2 4.9-8.2 2.1-8.3 5.9-0.1 4.6 6 6 3.5 7.7-3.6 1.7-3.6-5.6-7.4-6.6-3.8-0.9-3.5 7.4-6.4 8.3 4.1 2.3 0.8 6.8 4.8 8.8 3.7 1.9 5-3.9 9-2.3 0.1 1.1 0.3 2.7-0.4 4.4q-0.1 0.1-0.2 0.2c-3.1 4-5.6 4.6-7.8 4.1-2.1-0.4-4.3-2.3-5.6-4.4-0.3-0.5-0.9-0.9-1.5-1-0.7-0.1-1.3 0.1-1.8 0.6-2.5 2.3-4.8 3.2-6.9 3.1-1.8-0.1-3.7-0.9-5.7-2.6-0.8-2.2-1.2-4.3-0.8-6.3 1.9-2.2 4.6 0.6 7.1 2.4 4.4 1.8 3.7-5 7.2-6.8-4-2.7-0.1-7.5-4.7-8.6-4.5-1.2-6.2 5.3-7.5 3.1-1.4-2.3 5.5-3.1 5.2-7.1-0.3-3.6-7.1-3.8-8.8-6.4z" />
		<path fill="#e3e4e5" stroke="#000" stroke-linecap="round" stroke-linejoin="round" stroke-width=".5" fill-rule="evenodd" d="m200.5 197c-1.7 0-3.1-1.4-3.1-3.1 0-1.8 1.4-3.2 3.1-3.2 1.8 0 3.2 1.4 3.2 3.2 0 1.7-1.4 3.1-3.2 3.1z" />
		<path fill="#e3e4e5" stroke="#000" stroke-linecap="round" stroke-linejoin="round" stroke-width=".5" fill-rule="evenodd" d="m301.1 197c-1.8 0-3.2-1.4-3.2-3.1 0-1.8 1.4-3.2 3.2-3.2 1.7 0 3.1 1.4 3.1 3.2 0 1.7-1.4 3.1-3.1 3.1z" />
		<path fill="#e3e4e5" stroke="#000" stroke-linecap="round" stroke-linejoin="round" stroke-width=".5" fill-rule="evenodd" d="m267.3 191.8c-1.8 0-3.2-1.4-3.2-3.2 0-1.7 1.4-3.1 3.2-3.1 1.7 0 3.1 1.4 3.1 3.1 0 1.8-1.4 3.2-3.1 3.2z" />
		<path fill="#e3e4e5" stroke="#000" stroke-linecap="round" stroke-linejoin="round" stroke-width=".5" fill-rule="evenodd" d="m234.3 191.8c-1.7 0-3.1-1.4-3.1-3.2 0-1.7 1.4-3.1 3.1-3.1 1.8 0 3.2 1.4 3.2 3.1 0 1.8-1.4 3.2-3.2 3.2z" />
		<path fill="#ed1c24" stroke="#000" stroke-linecap="round" stroke-linejoin="round" stroke-width=".5" fill-rule="evenodd" d="m250.8 181.5c-1.7 0-3.2-1.4-3.2-3.1 0-1.8 1.5-3.2 3.2-3.2 1.8 0 3.2 1.4 3.2 3.2 0 1.7-1.4 3.1-3.2 3.1z" />
		<path fill="#ed1c24" stroke="#000" stroke-linecap="round" stroke-linejoin="round" stroke-width=".5" fill-rule="evenodd" d="m215.9 185.5c-1.8 0-3.2-1.4-3.2-3.2 0-1.7 1.4-3.1 3.2-3.1 1.7 0 3.1 1.4 3.1 3.1 0 1.8-1.4 3.2-3.1 3.2z" />
		<path fill="#ed1c24" stroke="#000" stroke-linecap="round" stroke-linejoin="round" stroke-width=".5" fill-rule="evenodd" d="m285.7 185.5c-1.7 0-3.1-1.4-3.1-3.2 0-1.7 1.4-3.1 3.1-3.1 1.8 0 3.2 1.4 3.2 3.1 0 1.8-1.4 3.2-3.2 3.2z" />
		<path fill="#ed1c24" stroke="#000" stroke-linecap="round" stroke-linejoin="round" stroke-width=".5" fill-rule="evenodd" d="m181.3 191.1c-1.2 0.4-2.1 1.6-2.1 2.9 0 1.8 1.5 3.2 3.2 3.2 0.5 0 0.9-0.1 1.3-0.3q0-0.1 0-0.2 0-1.1-0.3-2.1-0.2-0.5-0.4-1.1-0.2-0.5-0.5-1-0.4-0.5-0.8-1c-0.1-0.1-0.3-0.3-0.4-0.4z" />
		<path fill="#ed1c24" stroke="#000" stroke-linecap="round" stroke-linejoin="round" stroke-width=".5" fill-rule="evenodd" d="m320.3 191.1c1.2 0.4 2.1 1.6 2.1 2.9 0 1.8-1.4 3.2-3.2 3.2-0.5 0-0.9-0.1-1.3-0.3q0-0.1 0-0.2 0.1-1.1 0.3-2.1 0.2-0.5 0.4-1.1 0.2-0.5 0.6-1 0.3-0.5 0.7-1c0.1-0.1 0.3-0.3 0.4-0.4z" />
		<path fill="#ed1c24" stroke="#000" stroke-width=".5" fill-rule="evenodd" d="m242.3 210.9l8.5 4.9 8.5-4.9-8.5-4.9z" />
		<path fill="#ed1c24" stroke="#000" stroke-width=".5" fill-rule="evenodd" d="m194.1 216.8l0.1 4.3 3.8 3.2 5-7.2z" />
		<path fill="#eac102" stroke="#000" stroke-linecap="round" stroke-linejoin="round" stroke-width=".5" fill-rule="evenodd" d="m206.9 215.5c-1.4 0-2.5-1.2-2.5-2.6 0-1.3 1.1-2.5 2.5-2.5 1.4 0 2.5 1.2 2.5 2.5 0 1.4-1.1 2.6-2.5 2.6z" />
		<path fill="#eac102" stroke="#000" stroke-linecap="round" stroke-linejoin="round" stroke-width=".5" fill-rule="evenodd" d="m209.8 221.5c-1.4 0-2.5-1.1-2.5-2.5 0-1.4 1.1-2.5 2.5-2.5 1.4 0 2.5 1.1 2.5 2.5 0 1.4-1.1 2.5-2.5 2.5z" />
		<path fill="#eac102" stroke="#000" stroke-linecap="round" stroke-linejoin="round" stroke-width=".5" fill-rule="evenodd" d="m234.8 210.7c-1.4 0-2.5-1.2-2.5-2.6 0-1.3 1.1-2.5 2.5-2.5 1.4 0 2.5 1.2 2.5 2.5 0 1.4-1.1 2.6-2.5 2.6z" />
		<path fill="#eac102" stroke="#000" stroke-linecap="round" stroke-linejoin="round" stroke-width=".5" fill-rule="evenodd" d="m235.2 217.7c-1.4 0-2.6-1.1-2.6-2.5 0-1.4 1.2-2.5 2.6-2.5 1.3 0 2.5 1.1 2.5 2.5 0 1.4-1.2 2.5-2.5 2.5z" />
		<path fill="#008f4c" stroke="#000" stroke-linecap="round" stroke-linejoin="round" stroke-width=".5" d="m216.6 209.8l8.6-1.1c1.5-0.2 2.9 0.9 3.1 2.4l0.3 2c0.2 1.6-0.9 3-2.4 3.2l-8.6 1.1c-1.5 0.2-2.9-0.9-3.1-2.4l-0.3-2c-0.2-1.6 0.9-3 2.4-3.2z" />
		<path fill="#ed1c24" stroke="#000" stroke-width=".5" fill-rule="evenodd" d="m307.4 216.8l-0.1 4.3-3.8 3.2-5-7.2z" />
		<path fill="#eac102" stroke="#000" stroke-linecap="round" stroke-linejoin="round" stroke-width=".5" fill-rule="evenodd" d="m294.6 215.5c-1.4 0-2.5-1.2-2.5-2.6 0-1.3 1.1-2.5 2.5-2.5 1.4 0 2.5 1.2 2.5 2.5 0 1.4-1.1 2.6-2.5 2.6z" />
		<path fill="#eac102" stroke="#000" stroke-linecap="round" stroke-linejoin="round" stroke-width=".5" fill-rule="evenodd" d="m291.7 221.5c-1.4 0-2.5-1.1-2.5-2.5 0-1.4 1.1-2.5 2.5-2.5 1.4 0 2.5 1.1 2.5 2.5 0 1.4-1.1 2.5-2.5 2.5z" />
		<path fill="#eac102" stroke="#000" stroke-linecap="round" stroke-linejoin="round" stroke-width=".5" fill-rule="evenodd" d="m266.7 210.7c-1.4 0-2.5-1.2-2.5-2.6 0-1.3 1.1-2.5 2.5-2.5 1.4 0 2.5 1.2 2.5 2.5 0 1.4-1.1 2.6-2.5 2.6z" />
		<path fill="#eac102" stroke="#000" stroke-linecap="round" stroke-linejoin="round" stroke-width=".5" fill-rule="evenodd" d="m266.3 217.7c-1.3 0-2.5-1.1-2.5-2.5 0-1.4 1.2-2.5 2.5-2.5 1.4 0 2.5 1.1 2.5 2.5 0 1.4-1.1 2.5-2.5 2.5z" />
		<path fill="#008f4c" stroke="#000" stroke-linecap="round" stroke-linejoin="round" stroke-width=".5" d="m284.9 209.8l-8.6-1.1c-1.5-0.2-2.9 0.9-3.1 2.4l-0.3 2c-0.2 1.6 0.9 3 2.4 3.2l8.6 1.1c1.5 0.2 2.9-0.9 3.1-2.4l0.3-2c0.2-1.6-0.9-3-2.4-3.2z" />
		<path fill="none" stroke="#000" stroke-width=".8" fill-rule="evenodd" d="m250.8 160.4l-0.1 0.2c-1.7 2.6-8.5 2.8-8.8 6.4-0.3 4 6.6 4.8 5.2 7.1-1.3 2.2-3-4.3-7.5-3.1-4.6 1.1-0.7 5.9-4.7 8.6 3.5 1.8 2.8 8.6 7.2 6.8 2.5-1.8 5.2-4.6 7.1-2.4 0.4 2 0 4.1-0.8 6.2-2 1.7-3.9 2.6-5.8 2.7-1.8 0.1-3.7-0.5-5.8-2.2 0.4-0.6 0.7-1.3 0.7-2.1 0-1.7-1.4-3.1-3.2-3.1-1.7 0-3.1 1.4-3.1 3.1 0 0.9 0.3 1.6 0.8 2.2-1.3 1.8-3.2 3.4-5.2 3.8-2.2 0.5-4.7-0.1-7.8-4.1q0-0.1 0-0.1c-0.8-1.7-0.6-3.4-0.5-4.5 4-1.6 5.3 4.2 9 2.3 4-2 0.7-6.5 4.8-8.8-2.9-0.9-2.6-9.2-6.4-8.3-3.8 1-3.8 8.3-7.4 6.6-2.4-1.7 3.6-3.1 3.5-7.7-0.1-3.8-7.1-1-8.3-5.9-1.1 4.4-8.4 3.8-7.5 8.6 0.8 4 6.3 5 4.9 6.8-2.2 2.3-6.2-4.2-8.3-3.1-2.1 1.1-0.7 9.1-3 10.4 3.3 0.8 4.9 6.6 8.4 4.8 3.6-1.7 3-5.8 6.2-4.8 0.2 1.9 0.8 3.7 0.4 6-1 2.2-5.2 5.8-11.3 2.1q0.2-0.5 0.2-1c0-1.8-1.4-3.2-3.2-3.2-1.7 0-3.1 1.4-3.1 3.2 0 1.1 0.6 2.1 1.5 2.7-0.4 2.3-2.2 3.7-4.4 4-2.5 0.3-5.3-0.6-7.5-4 0.4-0.7 0.9-1.3 1.9-1.8 1.4-0.5 2.9 0.7 5.4 0.5 2.8-0.5-0.7-6 1.6-8.6-4-1-3.4-5.9-9.6-4.5-3.2 2.4-0.4 6.1-2.2 6.3-1.8 0.2-1.4-4.4-3.9-6.2-2.5-1.8-8.8-2.6-8 4.7 4.6-1.2 6.7 1.3 8.2 4.6-0.7 0.6-1.2 1.4-1.2 2.4 0 1.8 1.5 3.2 3.2 3.2q0.2 0 0.4 0-0.1 0.6 0.2 1.1c1.2 2 2.6 3.5 4.1 4.6 1.1 2.5 2.2 4.8 3.4 6.9-0.5 0.3-0.9 0.8-1 1.4-0.1 0.7 0.2 1.4 0.8 1.8 0.5 0.4 1.2 0.5 1.9 0.2q0 0 0.1-0.1 1.1 1.9 2.1 3.8l-0.3-0.1 0.1 4.3 3.4 2.9q0.4 1.1 0.7 2.2c-0.6 0.4-1.1 1-1.2 1.8-0.2 0.9 0.2 1.8 0.9 2.4 0.7 0.5 1.7 0.6 2.5 0.3q0.1-0.1 0.1-0.1 0.3 0.2 0.7 0.2c33.4 4.9 66.6 5.6 99.1 0q0.4-0.1 0.7-0.2 0 0 0.1 0.1c1.3 0.5 2.7-0.2 3.2-1.5 0.4-1.1-0.1-2.4-1.1-3q0.3-1.2 0.8-2.4l3.1-2.7 0.2-4.3h-0.2q1-1.8 2.1-3.7 0.1 0.1 0.2 0.1c0.6 0.3 1.3 0.2 1.9-0.2 0.5-0.4 0.8-1.1 0.7-1.8-0.1-0.6-0.4-1.1-1-1.4 1.2-2.2 2.4-4.4 3.4-7 1.5-1.1 2.9-2.6 4-4.5q0.3-0.5 0.3-1.1 0.2 0 0.4 0c1.8 0 3.2-1.4 3.2-3.2 0-1-0.5-1.8-1.2-2.4 1.6-3.3 3.6-5.8 8.2-4.6 0.8-7.3-5.4-6.5-8-4.7-2.5 1.8-2.1 6.4-3.9 6.2-1.8-0.2 1-3.9-2.2-6.3-6.2-1.4-5.6 3.5-9.5 4.5 2.2 2.6-1.3 8.1 1.5 8.6 2.5 0.2 4-1 5.5-0.5 0.9 0.5 1.4 1 1.7 1.7-2.1 3.5-5 4.4-7.4 4.1-2.2-0.3-4-1.7-4.5-4 1-0.5 1.6-1.6 1.6-2.7 0-1.8-1.4-3.2-3.1-3.2-1.8 0-3.2 1.4-3.2 3.2q0 0.5 0.2 0.9c-6 3.7-10.1 0.4-11.3-1.8-0.4-2.4 0.2-4.2 0.4-6.2 3.2-1 2.6 3.1 6.2 4.8 3.5 1.8 5.1-4 8.4-4.8-2.2-1.3-0.8-9.3-2.9-10.4-2.2-1.1-6.2 5.4-8.4 3.1-1.4-1.8 4.1-2.8 4.9-6.8 0.9-4.8-6.4-4.2-7.5-8.6-1.2 4.9-8.2 2.1-8.3 5.9-0.1 4.6 6 6 3.5 7.7-3.6 1.7-3.6-5.6-7.4-6.6-3.8-0.9-3.5 7.4-6.4 8.3 4.1 2.3 0.8 6.8 4.8 8.8 3.7 1.9 5-3.9 9-2.3 0.1 1.1 0.3 2.7-0.4 4.4q-0.1 0.1-0.2 0.2c-3.1 4-5.6 4.6-7.8 4.1-1.9-0.3-3.9-1.9-5.2-3.8 0.6-0.5 0.9-1.3 0.9-2.2 0-1.7-1.4-3.1-3.1-3.1-1.8 0-3.2 1.4-3.2 3.1 0 0.8 0.3 1.5 0.7 2-2.1 1.7-4 2.4-5.9 2.3-1.8-0.1-3.7-0.9-5.7-2.6-0.8-2.2-1.2-4.3-0.8-6.3 1.9-2.2 4.6 0.6 7.1 2.4 4.4 1.8 3.7-5 7.2-6.8-4-2.7-0.1-7.5-4.7-8.6-4.5-1.2-6.2 5.3-7.5 3.1-1.4-2.3 5.5-3.1 5.2-7.1-0.3-3.6-7.1-3.8-8.8-6.4z" />
		<path fill="none" fill-rule="evenodd" d="m184.7 241.7c0.1 31.8-0.1 63.6 0.1 95.5 1 28.5 22.9 54.6 50.8 60.7 25.8 6.2 54.7-5.1 69.3-27.4 8.8-12.4 12-27.9 11.2-42.9q0-43 0-85.9-65.7 0-131.4 0z" />
		<path fill="#0071bc" stroke="#000" stroke-width=".5" fill-rule="evenodd" d="m216.6 390.1q0.4 0.3 0.9 0.5c-0.3-0.2-0.5-0.3-0.9-0.5q0 0 0 0z" />
		<path fill="#0071bc" stroke="#000" stroke-width=".5" fill-rule="evenodd" d="m269.6 396.6q0 0-0.1 0-0.7 0-1.4-0.2-0.6-0.2-1.2-0.4-0.5-0.3-1-0.6-0.4-0.3-0.8-0.6-0.7-0.5-1.1-0.7-0.4-0.2-0.6-0.2-0.3 0-0.7 0.2-0.4 0.2-1.1 0.7-0.4 0.3-0.8 0.6-0.5 0.3-1 0.6-0.6 0.2-1.2 0.4-0.6 0.2-1.4 0.2-0.8 0-1.4-0.2-0.7-0.2-1.2-0.4-0.6-0.3-1-0.6-0.4-0.3-0.8-0.6-0.7-0.5-1.1-0.7-0.4-0.2-0.7-0.2-0.2 0-0.7 0.2-0.4 0.2-1.1 0.7-0.3 0.3-0.8 0.6-0.4 0.3-0.9 0.6-0.6 0.2-1.2 0.4-0.7 0.2-1.5 0.2-0.7 0-1.4-0.2-0.6-0.2-1.2-0.4-0.5-0.3-0.9-0.6-0.5-0.3-0.8-0.6-0.7-0.5-1.2-0.7-0.4-0.2-0.6-0.2-0.3 0-0.7 0.2-0.4 0.2-1.1 0.7-0.4 0.3-0.8 0.6-0.5 0.3-1 0.6-0.5 0.2-1.2 0.4-0.6 0.2-1.4 0.2-0.8 0-1.4-0.2-0.7-0.2-1.2-0.4-0.5-0.3-1-0.6-0.4-0.3-0.8-0.6-0.7-0.5-1.1-0.7-0.4-0.2-0.7-0.2-0.2 0-0.6 0.2c-0.2 0.1-0.4 0.3-0.6 0.4 5.9 2.5 12.3 4.2 18.8 4.8 8.7 0.9 17.4-0.1 25.7-2.7z" />
		<path fill="#0071bc" stroke="#000" stroke-width=".5" fill-rule="evenodd" d="m276.4 394.1q-0.5-0.2-0.7-0.2-0.3 0-0.7 0.2-0.4 0.2-1.1 0.7-0.3 0.3-0.8 0.6 1.7-0.6 3.3-1.3z" />
		<path fill="#e3e4e5" stroke="#000" stroke-width=".5" fill-rule="evenodd" d="m281.1 391.9c-0.3-0.2-0.6-0.4-1-0.7-0.5-0.3-1.1-0.8-1.8-1.1q-0.5-0.3-1.2-0.5-0.6-0.2-1.4-0.2-0.8 0-1.4 0.2-0.7 0.2-1.2 0.5c-0.7 0.3-1.3 0.8-1.8 1.1q-0.7 0.5-1.1 0.7-0.4 0.3-0.7 0.3-0.2 0-0.6-0.3-0.5-0.2-1.2-0.7c-0.4-0.3-1-0.8-1.7-1.1q-0.6-0.3-1.2-0.5-0.7-0.2-1.4-0.2-0.8 0-1.5 0.2-0.6 0.2-1.1 0.5-0.6 0.2-1 0.5-0.5 0.4-0.8 0.6-0.7 0.5-1.1 0.7-0.5 0.3-0.7 0.3-0.3 0-0.7-0.3-0.4-0.2-1.1-0.7c-0.5-0.3-1.1-0.8-1.8-1.1q-0.5-0.3-1.2-0.5-0.6-0.2-1.4-0.2-0.7 0-1.4 0.2-0.6 0.2-1.2 0.5c-0.7 0.3-1.3 0.8-1.8 1.1q-0.7 0.5-1.1 0.7-0.4 0.3-0.7 0.3-0.2 0-0.6-0.3-0.4-0.2-1.1-0.7c-0.5-0.3-1.1-0.8-1.8-1.1q-0.6-0.3-1.2-0.5-0.7-0.2-1.4-0.2-0.8 0-1.4 0.2-0.7 0.2-1.2 0.5-0.6 0.2-1 0.5-0.5 0.4-0.8 0.6-0.7 0.5-1.1 0.7-0.4 0.3-0.7 0.3-0.2 0-0.7-0.3-0.4-0.2-1.1-0.7c-0.5-0.3-1-0.8-1.8-1.1q-0.5-0.3-1.2-0.5-0.6-0.2-1.4-0.2-0.7 0-1.4 0.2-0.6 0.2-1.2 0.5c-0.7 0.3-1.3 0.8-1.7 1.1q-0.7 0.5-1.2 0.7c-0.2 0.2-0.4 0.2-0.6 0.2q2.4 1.3 4.9 2.4c0.2-0.1 0.4-0.3 0.6-0.4q0.4-0.2 0.6-0.2 0.3 0 0.7 0.2 0.4 0.2 1.1 0.7 0.4 0.3 0.8 0.6 0.5 0.3 1 0.6 0.5 0.2 1.2 0.4 0.6 0.2 1.4 0.2 0.8 0 1.4-0.2 0.7-0.2 1.2-0.4 0.5-0.3 1-0.6 0.4-0.3 0.8-0.6 0.7-0.5 1.1-0.7 0.4-0.2 0.7-0.2 0.2 0 0.6 0.2 0.5 0.2 1.2 0.7 0.3 0.3 0.8 0.6 0.4 0.3 0.9 0.6 0.6 0.2 1.2 0.4 0.7 0.2 1.4 0.2 0.8 0 1.5-0.2 0.6-0.2 1.2-0.4 0.5-0.3 0.9-0.6 0.5-0.3 0.8-0.6 0.7-0.5 1.1-0.7 0.5-0.2 0.7-0.2 0.3 0 0.7 0.2 0.4 0.2 1.1 0.7 0.4 0.3 0.8 0.6 0.4 0.3 1 0.6 0.5 0.2 1.2 0.4 0.6 0.2 1.4 0.2 0.8 0 1.4-0.2 0.6-0.2 1.2-0.4 0.5-0.3 1-0.6 0.4-0.3 0.8-0.6 0.7-0.5 1.1-0.7 0.4-0.2 0.7-0.2 0.2 0 0.6 0.2 0.4 0.2 1.1 0.7 0.4 0.3 0.8 0.6 0.5 0.3 1 0.6 0.6 0.2 1.2 0.4 0.7 0.2 1.4 0.2 0.1 0 0.1 0 1.8-0.6 3.5-1.2 0 0 0 0 0.5-0.3 0.8-0.6 0.7-0.5 1.1-0.7 0.4-0.2 0.7-0.2 0.2 0 0.7 0.2 0 0 0 0 2.4-1 4.7-2.2z" />
		<path fill="#0071bc" stroke="#000" stroke-width=".5" fill-rule="evenodd" d="m290.4 385.9q-0.3-0.2-0.6-0.4-0.7-0.5-1.1-0.7-0.4-0.2-0.7-0.2-0.2 0-0.6 0.2-0.4 0.2-1.1 0.7c-0.5 0.4-1.1 0.8-1.8 1.2q-0.6 0.3-1.2 0.4-0.7 0.2-1.4 0.2-0.8 0-1.4-0.2-0.7-0.1-1.2-0.4c-0.8-0.4-1.3-0.8-1.8-1.2q-0.7-0.5-1.1-0.7-0.4-0.2-0.7-0.2-0.3 0-0.7 0.2-0.4 0.2-1.1 0.7c-0.5 0.4-1 0.8-1.8 1.2q-0.5 0.3-1.2 0.4-0.6 0.2-1.4 0.2-0.7 0-1.4-0.2-0.6-0.1-1.2-0.4-0.5-0.3-1-0.6-0.4-0.3-0.8-0.6-0.7-0.5-1.1-0.7-0.4-0.2-0.6-0.2-0.3 0-0.7 0.2-0.4 0.2-1.1 0.7-0.4 0.3-0.8 0.6-0.5 0.3-1 0.6-0.6 0.3-1.2 0.4-0.6 0.2-1.4 0.2-0.8 0-1.4-0.2-0.7-0.1-1.2-0.4c-0.7-0.4-1.3-0.8-1.8-1.2q-0.7-0.5-1.1-0.7-0.4-0.2-0.7-0.2-0.2 0-0.7 0.2-0.4 0.2-1.1 0.7c-0.4 0.4-1 0.8-1.7 1.2q-0.6 0.3-1.2 0.4-0.7 0.2-1.5 0.2-0.7 0-1.4-0.2-0.6-0.1-1.2-0.4c-0.7-0.4-1.3-0.8-1.7-1.2q-0.7-0.5-1.2-0.7-0.4-0.2-0.6-0.2-0.3 0-0.7 0.2-0.4 0.2-1.1 0.7-0.4 0.3-0.8 0.6-0.5 0.3-1 0.6-0.5 0.3-1.2 0.4-0.6 0.2-1.4 0.2-0.8 0-1.4-0.2-0.7-0.1-1.2-0.4c-0.7-0.4-1.3-0.8-1.8-1.2q-0.7-0.5-1.1-0.7-0.4-0.2-0.7-0.2-0.2 0-0.6 0.2-0.5 0.2-1.2 0.7c-0.4 0.4-1 0.8-1.7 1.2q-0.6 0.3-1.2 0.4-0.7 0.2-1.4 0.2-0.8 0-1.4-0.2-0.7-0.1-1.2-0.4c-0.8-0.4-1.3-0.8-1.8-1.2q-0.7-0.5-1.1-0.7-0.5-0.2-0.7-0.2-0.3 0-0.7 0.2-0.4 0.2-1.1 0.7c-0.3 0.3-0.7 0.5-1.1 0.8q2.6 2 5.5 3.8 0 0 0 0c0.4 0.2 0.6 0.3 0.9 0.5 0.9 0.6 1.8 1 2.7 1.5 0.2 0 0.4 0 0.6-0.2q0.5-0.2 1.2-0.7c0.4-0.3 1-0.8 1.7-1.1q0.6-0.3 1.2-0.5 0.7-0.2 1.4-0.2 0.8 0 1.4 0.2 0.7 0.2 1.2 0.5c0.8 0.3 1.3 0.8 1.8 1.1q0.7 0.5 1.1 0.7 0.5 0.3 0.7 0.3 0.3 0 0.7-0.3 0.4-0.2 1.1-0.7 0.3-0.2 0.8-0.6 0.4-0.3 1-0.5 0.5-0.3 1.2-0.5 0.6-0.2 1.4-0.2 0.7 0 1.4 0.2 0.6 0.2 1.2 0.5c0.7 0.3 1.3 0.8 1.8 1.1q0.7 0.5 1.1 0.7 0.4 0.3 0.6 0.3 0.3 0 0.7-0.3 0.4-0.2 1.1-0.7c0.5-0.3 1.1-0.8 1.8-1.1q0.6-0.3 1.2-0.5 0.7-0.2 1.4-0.2 0.8 0 1.4 0.2 0.7 0.2 1.2 0.5c0.7 0.3 1.3 0.8 1.8 1.1q0.7 0.5 1.1 0.7 0.4 0.3 0.7 0.3 0.2 0 0.7-0.3 0.4-0.2 1.1-0.7 0.3-0.2 0.8-0.6 0.4-0.3 1-0.5 0.5-0.3 1.1-0.5 0.7-0.2 1.5-0.2 0.7 0 1.4 0.2 0.6 0.2 1.2 0.5c0.7 0.3 1.3 0.8 1.7 1.1q0.7 0.5 1.2 0.7 0.4 0.3 0.6 0.3 0.3 0 0.7-0.3 0.4-0.2 1.1-0.7c0.5-0.3 1.1-0.8 1.8-1.1q0.5-0.3 1.2-0.5 0.6-0.2 1.4-0.2 0.8 0 1.4 0.2 0.7 0.2 1.2 0.5c0.7 0.3 1.3 0.8 1.8 1.1 0.4 0.3 0.7 0.5 1 0.7q4.9-2.6 9.3-6z" />
		<path fill="#e3e4e5" stroke="#000" stroke-width=".5" fill-rule="evenodd" d="m294.1 382.9c-0.1-0.1-0.3-0.1-0.6-0.2q-0.4-0.3-1.1-0.8-0.3-0.2-0.8-0.5-0.4-0.3-1-0.6-0.5-0.3-1.1-0.5-0.7-0.1-1.5-0.1-0.7 0-1.4 0.1-0.6 0.2-1.2 0.5c-0.7 0.3-1.3 0.8-1.7 1.1q-0.7 0.5-1.2 0.8-0.4 0.2-0.6 0.2-0.3 0-0.7-0.2-0.4-0.3-1.1-0.8c-0.5-0.3-1.1-0.8-1.8-1.1q-0.5-0.3-1.2-0.5-0.6-0.1-1.4-0.1-0.8 0-1.4 0.1-0.7 0.2-1.2 0.5c-0.7 0.3-1.3 0.8-1.8 1.1q-0.7 0.5-1.1 0.8-0.4 0.2-0.7 0.2-0.2 0-0.6-0.2-0.5-0.3-1.2-0.8c-0.4-0.3-1-0.8-1.7-1.1q-0.6-0.3-1.2-0.5-0.7-0.1-1.4-0.1-0.8 0-1.5 0.1-0.6 0.2-1.1 0.5-0.6 0.3-1 0.6-0.5 0.3-0.8 0.5-0.7 0.5-1.1 0.8-0.5 0.2-0.7 0.2-0.3 0-0.7-0.2-0.4-0.3-1.1-0.8c-0.5-0.3-1.1-0.8-1.8-1.1q-0.5-0.3-1.2-0.5-0.6-0.1-1.4-0.1-0.7 0-1.4 0.1-0.6 0.2-1.2 0.5c-0.7 0.3-1.3 0.8-1.8 1.1q-0.7 0.5-1.1 0.8-0.4 0.2-0.7 0.2-0.2 0-0.6-0.2-0.4-0.3-1.1-0.8c-0.5-0.3-1.1-0.8-1.8-1.1q-0.6-0.3-1.2-0.5-0.7-0.1-1.4-0.1-0.8 0-1.4 0.1-0.7 0.2-1.2 0.5-0.6 0.3-1 0.6-0.5 0.3-0.8 0.5-0.7 0.5-1.1 0.8-0.4 0.2-0.7 0.2-0.2 0-0.7-0.2-0.4-0.3-1.1-0.8c-0.5-0.3-1-0.8-1.8-1.1q-0.5-0.3-1.2-0.5-0.6-0.1-1.4-0.1-0.7 0-1.4 0.1-0.6 0.2-1.2 0.5c-0.7 0.3-1.3 0.8-1.7 1.1q-0.7 0.5-1.2 0.8-0.4 0.2-0.6 0.2-0.3 0-0.7-0.2-0.4-0.3-1.1-0.8c-0.5-0.3-1.1-0.8-1.8-1.1q-0.5-0.3-1.2-0.5-0.6-0.1-1.4-0.1-0.8 0-1.4 0.1-0.7 0.2-1.2 0.5-0.6 0.3-1 0.6-0.4 0.3-0.8 0.5-0.7 0.5-1.1 0.8-0.4 0.2-0.7 0.2-0.2 0-0.6-0.2-0.5-0.3-1.2-0.8-0.2-0.1-0.4-0.3 2.6 2.5 5.5 4.7c0.4-0.3 0.8-0.5 1.1-0.8q0.7-0.5 1.1-0.7 0.4-0.2 0.7-0.2 0.2 0 0.7 0.2 0.4 0.2 1.1 0.7c0.5 0.4 1 0.8 1.8 1.2q0.5 0.3 1.2 0.4 0.6 0.2 1.4 0.2 0.7 0 1.4-0.2 0.6-0.1 1.2-0.4c0.7-0.4 1.3-0.8 1.7-1.2q0.7-0.5 1.2-0.7 0.4-0.2 0.6-0.2 0.3 0 0.7 0.2 0.4 0.2 1.1 0.7c0.5 0.4 1.1 0.8 1.8 1.2q0.5 0.3 1.2 0.4 0.6 0.2 1.4 0.2 0.8 0 1.4-0.2 0.7-0.1 1.2-0.4 0.5-0.3 1-0.6 0.4-0.3 0.8-0.6 0.7-0.5 1.1-0.7 0.4-0.2 0.7-0.2 0.2 0 0.6 0.2 0.5 0.2 1.2 0.7c0.4 0.4 1 0.8 1.7 1.2q0.6 0.3 1.2 0.4 0.7 0.2 1.4 0.2 0.8 0 1.5-0.2 0.6-0.1 1.2-0.4c0.7-0.4 1.3-0.8 1.7-1.2q0.7-0.5 1.1-0.7 0.5-0.2 0.7-0.2 0.3 0 0.7 0.2 0.4 0.2 1.1 0.7c0.5 0.4 1.1 0.8 1.8 1.2q0.5 0.3 1.2 0.4 0.6 0.2 1.4 0.2 0.8 0 1.4-0.2 0.6-0.1 1.2-0.4 0.5-0.3 1-0.6 0.4-0.3 0.8-0.6 0.7-0.5 1.1-0.7 0.4-0.2 0.7-0.2 0.2 0 0.6 0.2 0.4 0.2 1.1 0.7 0.4 0.3 0.8 0.6 0.5 0.3 1 0.6 0.6 0.3 1.2 0.4 0.7 0.2 1.4 0.2 0.8 0 1.4-0.2 0.7-0.1 1.2-0.4c0.8-0.4 1.3-0.8 1.8-1.2q0.7-0.5 1.1-0.7 0.4-0.2 0.7-0.2 0.3 0 0.7 0.2 0.4 0.2 1.1 0.7c0.5 0.4 1 0.8 1.8 1.2q0.5 0.3 1.2 0.4 0.6 0.2 1.4 0.2 0.7 0 1.4-0.2 0.6-0.1 1.2-0.4c0.7-0.4 1.3-0.8 1.8-1.2q0.7-0.5 1.1-0.7 0.4-0.2 0.6-0.2 0.3 0 0.7 0.2 0.4 0.2 1.1 0.7 0.3 0.2 0.6 0.4 1.9-1.4 3.7-3z" />
		<path fill="#0071bc" stroke="#000" stroke-width=".5" fill-rule="evenodd" d="m301.2 375.6c-0.1 0-0.1 0-0.1-0.1q-0.5-0.2-0.7-0.2-0.3 0-0.7 0.2-0.4 0.3-1.1 0.8-0.4 0.2-0.8 0.5-0.4 0.3-1 0.6-0.5 0.3-1.2 0.5-0.6 0.1-1.4 0.1-0.8 0-1.4-0.1-0.6-0.2-1.2-0.5-0.5-0.3-1-0.6-0.4-0.3-0.8-0.5-0.7-0.5-1.1-0.8-0.4-0.2-0.7-0.2-0.2 0-0.6 0.2-0.4 0.3-1.1 0.8-0.4 0.2-0.8 0.5-0.5 0.3-1 0.6-0.6 0.3-1.2 0.5-0.7 0.1-1.4 0.1-0.8 0-1.4-0.1-0.7-0.2-1.2-0.5-0.6-0.3-1-0.6-0.5-0.3-0.8-0.5-0.7-0.5-1.1-0.8-0.4-0.2-0.7-0.2-0.3 0-0.7 0.2-0.4 0.3-1.1 0.8-0.3 0.2-0.8 0.5-0.4 0.3-1 0.6-0.5 0.3-1.2 0.5-0.6 0.1-1.4 0.1-0.7 0-1.4-0.1-0.6-0.2-1.2-0.5-0.5-0.3-1-0.6-0.4-0.3-0.8-0.5-0.7-0.5-1.1-0.8-0.4-0.2-0.6-0.2-0.3 0-0.7 0.2-0.4 0.3-1.1 0.8-0.4 0.2-0.8 0.5-0.5 0.3-1 0.6-0.6 0.3-1.2 0.5-0.6 0.1-1.4 0.1-0.8 0-1.4-0.1-0.7-0.2-1.2-0.5-0.6-0.3-1-0.6-0.4-0.3-0.8-0.5-0.7-0.5-1.1-0.8-0.4-0.2-0.7-0.2-0.2 0-0.7 0.2-0.4 0.3-1.1 0.8-0.3 0.2-0.8 0.5-0.4 0.3-0.9 0.6-0.6 0.3-1.2 0.5-0.7 0.1-1.5 0.1-0.7 0-1.4-0.1-0.6-0.2-1.2-0.5-0.5-0.3-0.9-0.6-0.5-0.3-0.8-0.5-0.7-0.5-1.2-0.8-0.4-0.2-0.6-0.2-0.3 0-0.7 0.2-0.4 0.3-1.1 0.8-0.4 0.2-0.8 0.5-0.5 0.3-1 0.6-0.5 0.3-1.2 0.5-0.6 0.1-1.4 0.1-0.8 0-1.4-0.1-0.7-0.2-1.2-0.5-0.5-0.3-1-0.6-0.4-0.3-0.8-0.5-0.7-0.5-1.1-0.8-0.4-0.2-0.7-0.2-0.2 0-0.6 0.2-0.5 0.3-1.2 0.8-0.3 0.2-0.8 0.5-0.4 0.3-0.9 0.6-0.6 0.3-1.2 0.5-0.7 0.1-1.4 0.1-0.8 0-1.4-0.1-0.7-0.2-1.2-0.5-0.6-0.3-1-0.6-0.5-0.3-0.8-0.5-0.7-0.5-1.1-0.8-0.5-0.2-0.7-0.2-0.3 0-0.7 0.2-0.4 0.3-1.1 0.8-0.3 0.2-0.8 0.5-0.4 0.3-1 0.6-0.5 0.3-1.2 0.5-0.6 0.1-1.4 0.1-0.7 0-1.4-0.1-0.6-0.2-1.2-0.5-0.5-0.3-1-0.6-0.4-0.3-0.8-0.5-0.7-0.5-1.1-0.8-0.4-0.2-0.7-0.2-0.2 0-0.6 0.2c-0.2 0.1-0.5 0.3-0.8 0.5 1.7 2 3.5 3.9 5.4 5.6q0.2 0.2 0.4 0.3 0.7 0.5 1.2 0.8 0.4 0.2 0.6 0.2 0.3 0 0.7-0.2 0.4-0.3 1.1-0.8 0.4-0.2 0.8-0.5 0.4-0.3 1-0.6 0.5-0.3 1.2-0.5 0.6-0.1 1.4-0.1 0.8 0 1.4 0.1 0.7 0.2 1.2 0.5c0.7 0.3 1.3 0.8 1.8 1.1q0.7 0.5 1.1 0.8 0.4 0.2 0.7 0.2 0.2 0 0.6-0.2 0.5-0.3 1.2-0.8c0.4-0.3 1-0.8 1.7-1.1q0.6-0.3 1.2-0.5 0.7-0.1 1.4-0.1 0.8 0 1.4 0.1 0.7 0.2 1.2 0.5c0.8 0.3 1.3 0.8 1.8 1.1q0.7 0.5 1.1 0.8 0.5 0.2 0.7 0.2 0.3 0 0.7-0.2 0.4-0.3 1.1-0.8 0.3-0.2 0.8-0.5 0.4-0.3 1-0.6 0.5-0.3 1.2-0.5 0.6-0.1 1.4-0.1 0.7 0 1.4 0.1 0.6 0.2 1.2 0.5c0.7 0.3 1.3 0.8 1.8 1.1q0.7 0.5 1.1 0.8 0.4 0.2 0.6 0.2 0.3 0 0.7-0.2 0.4-0.3 1.1-0.8c0.5-0.3 1.1-0.8 1.8-1.1q0.6-0.3 1.2-0.5 0.7-0.1 1.4-0.1 0.8 0 1.4 0.1 0.7 0.2 1.2 0.5c0.7 0.3 1.3 0.8 1.8 1.1q0.7 0.5 1.1 0.8 0.4 0.2 0.7 0.2 0.2 0 0.7-0.2 0.4-0.3 1.1-0.8 0.3-0.2 0.8-0.5 0.4-0.3 1-0.6 0.5-0.3 1.1-0.5 0.7-0.1 1.5-0.1 0.7 0 1.4 0.1 0.6 0.2 1.2 0.5c0.7 0.3 1.3 0.8 1.7 1.1q0.7 0.5 1.2 0.8 0.4 0.2 0.6 0.2 0.3 0 0.7-0.2 0.4-0.3 1.1-0.8c0.5-0.3 1.1-0.8 1.8-1.1q0.5-0.3 1.2-0.5 0.6-0.1 1.4-0.1 0.8 0 1.4 0.1 0.7 0.2 1.2 0.5c0.7 0.3 1.3 0.8 1.8 1.1q0.7 0.5 1.1 0.8 0.4 0.2 0.7 0.2 0.2 0 0.6-0.2 0.5-0.3 1.2-0.8c0.4-0.3 1-0.8 1.7-1.1q0.6-0.3 1.2-0.5 0.7-0.1 1.4-0.1 0.8 0 1.5 0.1 0.6 0.2 1.1 0.5 0.6 0.3 1 0.6 0.5 0.3 0.8 0.5 0.7 0.5 1.1 0.8c0.3 0.1 0.5 0.1 0.6 0.2q3.8-3.4 7.1-7.3z" />
		<path fill="#0071bc" stroke="#000" stroke-width=".5" fill-rule="evenodd" d="m184.8 321.7c0.1 6.2 0.1 12.3 0.2 18.5 1 11.8 5.5 22.9 12.5 32.3 0.4-0.3 0.9-0.7 1.5-1q0.6-0.3 1.2-0.4 0.7-0.2 1.4-0.2 0.8 0 1.5 0.2 0.6 0.1 1.2 0.4 0.5 0.3 0.9 0.6 0.5 0.3 0.8 0.6 0.7 0.5 1.2 0.7 0.4 0.2 0.6 0.2 0.3 0 0.7-0.2 0.4-0.2 1.1-0.7 0.4-0.3 0.8-0.6 0.4-0.3 1-0.6 0.5-0.3 1.2-0.4 0.6-0.2 1.4-0.2 0.8 0 1.4 0.2 0.7 0.1 1.2 0.4c0.7 0.4 1.3 0.8 1.8 1.2q0.7 0.5 1.1 0.7 0.4 0.2 0.7 0.2 0.2 0 0.6-0.2 0.5-0.2 1.2-0.7c0.4-0.4 1-0.8 1.7-1.2q0.6-0.3 1.2-0.4 0.7-0.2 1.4-0.2 0.8 0 1.4 0.2 0.7 0.1 1.2 0.4c0.8 0.4 1.3 0.8 1.8 1.2q0.7 0.5 1.1 0.7 0.5 0.2 0.7 0.2 0.3 0 0.7-0.2 0.4-0.2 1.1-0.7 0.3-0.3 0.8-0.6 0.4-0.3 1-0.6 0.5-0.3 1.2-0.4 0.6-0.2 1.4-0.2 0.7 0 1.4 0.2 0.6 0.1 1.2 0.4c0.7 0.4 1.3 0.8 1.8 1.2q0.7 0.5 1.1 0.7 0.4 0.2 0.6 0.2 0.3 0 0.7-0.2 0.4-0.2 1.1-0.7c0.5-0.4 1.1-0.8 1.8-1.2q0.6-0.3 1.2-0.4 0.7-0.2 1.4-0.2 0.8 0 1.4 0.2 0.7 0.1 1.2 0.4c0.7 0.4 1.3 0.8 1.8 1.2q0.7 0.5 1.1 0.7 0.4 0.2 0.7 0.2 0.2 0 0.7-0.2 0.4-0.2 1.1-0.7 0.3-0.3 0.8-0.6 0.4-0.3 1-0.6 0.5-0.3 1.1-0.4 0.7-0.2 1.5-0.2 0.7 0 1.4 0.2 0.6 0.1 1.2 0.4c0.7 0.4 1.3 0.8 1.7 1.2q0.7 0.5 1.2 0.7 0.4 0.2 0.6 0.2 0.3 0 0.7-0.2 0.4-0.2 1.1-0.7c0.5-0.4 1.1-0.8 1.8-1.2q0.5-0.3 1.2-0.4 0.6-0.2 1.4-0.2 0.8 0 1.4 0.2 0.7 0.1 1.2 0.4c0.7 0.4 1.3 0.8 1.8 1.2q0.7 0.5 1.1 0.7 0.4 0.2 0.7 0.2 0.2 0 0.6-0.2 0.5-0.2 1.2-0.7c0.4-0.4 1-0.8 1.7-1.2q0.6-0.3 1.2-0.4 0.7-0.2 1.4-0.2 0.8 0 1.5 0.2 0.6 0.1 1.1 0.4 0.6 0.3 1 0.6 0.5 0.3 0.8 0.6 0.7 0.5 1.1 0.7 0.5 0.2 0.7 0.2 0.3 0 0.7-0.2 0.4-0.2 1.1-0.7c0.5-0.4 1.1-0.8 1.8-1.2q0.5-0.3 1.2-0.4 0.6-0.2 1.4-0.2 0.7 0 1.4 0.2 0.6 0.1 1.2 0.4c0.4 0.2 0.6 0.4 0.9 0.6q1.3-1.9 2.5-3.9c8.8-13.6 10.5-30.2 9.7-45.9q0-0.3 0-0.6z" />
		<path fill="#eac102" stroke="#000" stroke-width=".8" fill-rule="evenodd" d="m250.4 241.7q-32.8 0-65.7 0c0.1 26.7-0.1 53.3 0.1 80h65.6z" />
		<path fill="#ed1c24" stroke="#000" stroke-width=".8" fill-rule="evenodd" d="m250.4 241.7v80h65.7q0-40 0-80-32.8 0-65.7 0z" />
		<path fill="none" stroke="#000" stroke-width=".8" fill-rule="evenodd" d="m184.7 241.7c0.1 31.8-0.1 63.6 0.1 95.5 1 28.5 22.9 54.6 50.8 60.7 25.8 6.2 54.7-5.1 69.3-27.4 8.8-12.4 12-27.9 11.2-42.9q0-43 0-85.9-65.7 0-131.4 0z" />
		<path fill="none" stroke="#000" stroke-width=".8" fill-rule="evenodd" d="m184.7 241.7c0.2 32.8-0.3 65.7 0.3 98.5 2.5 30.3 28.6 56.5 58.9 59.1 24.4 2.5 49.8-9.8 62.5-31.1 8.8-13.6 10.5-30.2 9.7-45.9q0-40.3 0-80.6-65.7 0-131.4 0z" />
		<path fill="#ed1c24" stroke="#000" stroke-width=".5" fill-rule="evenodd" d="m211.6 269.3c-4-0.1-5.3-3.2-6.1-5.2-3.7 1.4-8.3-6.7-7.2-8.9-0.9 1-2.4 2.1-1.7 3.1-1.6-0.7-2.3-0.5-2.6 0-1.4 1.9 1.4 3.5 0.7 5.3h-1.6c1.2 0.6 2.5 1.3 2.1 3 0.5 1.2-0.7 2.5 1.8 3.7 0.4-3.6 3.7-5.9 3.2-1 1.8 0.3 2.5 0.3 3.4 2.2 1.6 0.7 5.5 3.1 5.8 5.6-3.9 5-7.3 2.1-10.5-3-0.9 1.8-1.6 3.7-4.8 2.5 1.2 1.9 1.7 3.1 0.6 4.3 1.4 1.7 1.6 2.4 0.7 3.5-0.9 1.1 0.9 2.8 2.1 3.9-0.2-5.7 5.6-7.3 8.4 2 3.1-5.9 5.6-1.9 8.2-3.5 1.8-0.4 7.3 6.2 4.2 7-13.7 3.3-5.6 6.9-4.8 12.5-3.1 0.4-5.2 1-4.9 2.3-1.4 1.1-2.9 1.8-2.6 4.5l11.6-0.3c1.7-1.2-0.2-3.7-1.4-5.9-1.4-7.1 1.9-6.9 4.4-2.8-0.2-2 0.1-3.7 3.6-2.3l7.7-2.1c5-15.8-6-12-6.3-23.4 1.1 0.8 2.2 1 3.3 0.5-1.1-0.7-2-1.6-2.6-2.8 1.2 0.6 2.3 1.4 3.5 0.7-1.6-0.7-1.9-2.7-2.1-4.7 2-0.9 2.5-3.5 3.2-6.1-1.3 0.6-2.5 1-3.8-0.5 0.8-0.4 1.7-0.4 2.5-2.5-0.7 0-1.3 0.2-2.6-0.8 1.3-0.8 1.9-2.1 2.2-3.7-0.8 0.4-1.6 0.7-3.1 0.4-0.2-1.8-1.8-2.5-4.3-2.6l0.7-2.6c-3.1 3-7.3 0.6-7.6 2.9-1.2 0.2-3.6 0.4-5.5 0.5 0.3 1.4-0.5 3 1.3 4.1 1.8-1.9 3.1-1.9 3.8 0.9 0.7 2.9-1.9 1.7-3.8 1.4-0.5 2.7 0.1 4.7 5.6 3 0.9 2.8-4.9 1.5-4.7 4.9z" />
		<path fill="#ed1c24" stroke="#000" stroke-width=".5" fill-rule="evenodd" d="m222.3 296.7c4.9 1.7-3.2 8.1 7.7 11.6 0.2 2.6-5.8 2.4-5.3 4.1l1.4 0.9c-1.4 2.9 4.9 1.9 7.7 2.7l6.5-6c-6.6-3.1-9.7-7.9-7.5-15.1" />
		<path fill="#ed1c24" stroke="#000" stroke-width=".5" fill-rule="evenodd" d="m231.3 294.4c2.7 0.6 5.1 0.1 5.8-6 0.2-7.4-7-11.4-5.8-19.5 0.2-3.1 2.4-10.4 8.6-8.8 4.6 2.3-0.4 8.8 6.4 11.5-1.3-0.3-2.5 0.1-4.1-1.4-0.1 2.1 1.3 3.4 2.9 4.5-2.7 0.3-6.7-0.3-6.5-9.4 0.4-4.8-4.7-1.2-5.3 4.3-0.4 4.2 6.6 11.1 5.7 19-0.3 6.4-2.8 7.9-5.8 8.3" />
		<path fill="#ed1c24" stroke="#000" stroke-width=".5" fill-rule="evenodd" d="m204 254.8c4.3 0.9 2.7 3.6 5 4.3 2.8 0.8 4.3 2 6.2 3.4-5.5-2.9-7.6-0.3-8.9-1.7-1.4-1.5 0.2-4.3-2.3-6z" />
		<path fill="#ed1c24" stroke="#000" stroke-width=".5" fill-rule="evenodd" d="m215.6 255.2c-0.8 0.6 0.3 1 0.9 1 0.9 0 1.6 0.9 2 1.9-1.1-0.5-2.1-0.9-2.9-1-0.3-0.4-0.5-0.8 0.1-1.1" />
		<path fill="#ed1c24" stroke="#000" stroke-width=".5" fill-rule="evenodd" d="m219.9 266.6c0.7 0.8 1.2 1.8 1.6 4.3 0.6-0.9 1.2-1.8 0.6-3.5" />
		<path fill="#ed1c24" stroke="#000" stroke-width=".5" fill-rule="evenodd" d="m222.1 264.9c2.5 1.2 3.3 3 4.1 4.8 0-1.7 0.6-3.2-1-5.2" />
		<path fill="#ed1c24" stroke="#000" stroke-width=".5" fill-rule="evenodd" d="m211.6 269.3c0.5 1.6-0.6 2.7-1.3 3.9 1.8 0.4 3.2-0.1 4.6-0.6-1.9 2.9-3.4 4-6.2 5 0.9 0.7 2.1 1.4 4.4 1.7 0.1 1.4-0.6 2.8-1.2 4.1 3.1-0.7 5.5-2.4 7.2-4.8 0.6 1.9 1.3 3.8 3.5 5.3 0.2-1.9 0.3-3.8 1.8-5.6" />
		<path fill="#ed1c24" stroke="#000" stroke-width=".5" fill-rule="evenodd" d="m217 273.8c-0.1 1.6-0.6 2.8-1.3 3.7 0.9 0.2 1.7 0.1 2.4-0.7" />
		<path fill="#ed1c24" stroke="#000" stroke-width=".5" fill-rule="evenodd" d="m219.8 273.1c1.2 1.3 2.3 2.6 2.7 4.8 0.6-1.4 1.2-2.8 0.7-4.5" />
		<path fill="#eac102" stroke="#000" stroke-width=".5" fill-rule="evenodd" d="m204 374.2l4.7-5.4-0.3-27.4c-3.6-3.5-3.3-5.7-3.9-8.6l-0.2-4.3 19.1-0.1-0.2 4.3c-0.6 2.9-0.3 5.2-3.9 8.6l-0.3 27.4 4.7 5.4z" />
		<path fill="#eac102" stroke="#000" stroke-width=".5" fill-rule="evenodd" d="m208.6 368.8l10.1-0.1" />
		<path fill="#eac102" stroke="#000" stroke-width=".5" fill-rule="evenodd" d="m204.4 330.9h18.8" />
		<path fill="#eac102" stroke="#000" stroke-width=".5" fill-rule="evenodd" d="m210 341.4l0.1 24.7" />
		<path fill="#eac102" stroke="#000" stroke-width=".5" fill-rule="evenodd" d="m212.2 341.4l0.1 24.7" />
		<path fill="#eac102" stroke="#000" stroke-width=".5" fill-rule="evenodd" d="m214.4 341.2l0.2 24.8" />
		<path fill="#eac102" stroke="#000" stroke-width=".5" fill-rule="evenodd" d="m216.7 341.4l0.1 24.7" />
		<path fill="#eac102" stroke="#000" stroke-width=".5" fill-rule="evenodd" d="m208.8 333.4c1.1 0.3 1.3 3.3 2.7 2.6" />
		<path fill="#eac102" stroke="#000" stroke-width=".5" fill-rule="evenodd" d="m206.9 334.2c0 0.1 0 0.6 0 0.9 0 0.3 0.1 0.5 0.2 0.7 0.1 0.2 0.2 0.3 0.5 0.4 0.3 0.2 0.4 0.3 0.7 0.5 0.1 0.1 0.5 0.4 0.6 0.5" />
		<path fill="#eac102" stroke="#000" stroke-width=".5" fill-rule="evenodd" d="m217.7 332.3c0.2 0.3 0.4 0.4 0.5 0.9 0.1 0.3 0 0.7 0 1 0 0.4-0.3 0.5-0.5 0.7-0.2 0.2-0.5 0.3-0.7 0.4-0.2 0.2-0.2 0.4-0.3 0.7-0.1 0.3-0.1 0.5-0.2 0.8 0 0.2 0 0.5 0.1 0.6" />
		<path fill="#eac102" stroke="#000" stroke-width=".5" fill-rule="evenodd" d="m216.5 339.5c0 0 1 0 1.2 0 0.4-0.1 0.9-0.3 1.2-0.5 0.3-0.2 0.5-0.4 0.7-0.7 0.2-0.2 0.2-0.5 0.2-0.8 0-0.3 0.1-0.6 0.1-0.9q0-0.4 0-0.8 0-0.5 0-1" />
		<path fill="#eac102" stroke="#000" stroke-width=".5" fill-rule="evenodd" d="m220.5 332.3c0-0.3 0 0.6 0.1 0.9q0 0 0 0.1" />
		<path fill="#eac102" stroke="#000" stroke-width=".5" fill-rule="evenodd" d="m212.6 338.6c0 0.1 0 0.6-0.1 0.8 0 0.2-0.5 0.1-0.8 0.1q-0.2 0-0.4 0" />
		<path fill="#eac102" stroke="#000" stroke-width=".5" fill-rule="evenodd" d="m209.2 338.5c-0.3 0 0 0.5 0 0.8q0 0.2 0 0.3" />
		<path fill="#eac102" stroke="#000" stroke-width=".5" fill-rule="evenodd" d="m213.3 333.1c0 0-0.1 0.7 0.2 0.9 0.1 0.1 0.5 0.1 0.6 0.2" />
		<path fill="#eac102" stroke="#000" stroke-width=".5" fill-rule="evenodd" d="m214.8 335.3c0.2 0.2-0.6-0.1-0.8 0-0.1 0.1-0.2 0.6-0.3 0.7-0.1 0.2-0.5 0.1-0.8 0.1q0 0-0.1 0" />
		<path fill="#eac102" stroke="#000" stroke-width=".5" fill-rule="evenodd" d="m214.4 337.1c0 0 0.2 0.5 0.2 0.6" />
		<path fill="#eac102" stroke="#000" stroke-width=".5" fill-rule="evenodd" d="m205.4 332.2c-0.3 0 0.2 0.5 0.3 0.7" />
		<path fill="#eac102" stroke="#000" stroke-width=".5" fill-rule="evenodd" d="m277.4 374.2l4.7-5.4-0.3-27.4c-3.6-3.5-3.3-5.7-4-8.6l-0.1-4.3 19-0.1-0.1 4.3c-0.7 2.9-0.3 5.2-3.9 8.6l-0.3 27.4 4.7 5.4z" />
		<path fill="#eac102" stroke="#000" stroke-width=".5" fill-rule="evenodd" d="m282 368.8l10.1-0.1" />
		<path fill="#eac102" stroke="#000" stroke-width=".5" fill-rule="evenodd" d="m277.8 330.9h18.7" />
		<path fill="#eac102" stroke="#000" stroke-width=".5" fill-rule="evenodd" d="m283.4 341.4l0.1 24.7" />
		<path fill="#eac102" stroke="#000" stroke-width=".5" fill-rule="evenodd" d="m285.6 341.4l0.1 24.7" />
		<path fill="#eac102" stroke="#000" stroke-width=".5" fill-rule="evenodd" d="m287.8 341.2l0.1 24.8" />
		<path fill="#eac102" stroke="#000" stroke-width=".5" fill-rule="evenodd" d="m290.1 341.4l0.1 24.7" />
		<path fill="#eac102" stroke="#000" stroke-width=".5" fill-rule="evenodd" d="m282.2 333.4c1.1 0.3 1.3 3.3 2.7 2.6" />
		<path fill="#eac102" stroke="#000" stroke-width=".5" fill-rule="evenodd" d="m280.3 334.2c0 0.1 0 0.6 0 0.9 0 0.3 0.1 0.5 0.2 0.7 0.1 0.2 0.2 0.3 0.5 0.4 0.3 0.2 0.4 0.3 0.7 0.5 0.1 0.1 0.4 0.4 0.6 0.5" />
		<path fill="#eac102" stroke="#000" stroke-width=".5" fill-rule="evenodd" d="m291 332.3c0.3 0.3 0.5 0.4 0.6 0.9 0.1 0.3 0 0.7 0 1 0 0.4-0.3 0.5-0.5 0.7-0.2 0.2-0.5 0.3-0.7 0.4-0.2 0.2-0.3 0.4-0.3 0.7-0.1 0.3-0.1 0.5-0.2 0.8 0 0.2 0 0.5 0.1 0.6" />
		<path fill="#eac102" stroke="#000" stroke-width=".5" fill-rule="evenodd" d="m289.9 339.5c0 0 1 0 1.1 0 0.4-0.1 1-0.3 1.3-0.5 0.2-0.2 0.5-0.4 0.7-0.7 0.2-0.2 0.2-0.5 0.2-0.8 0-0.3 0.1-0.6 0.1-0.9q0-0.4 0-0.8 0-0.5 0-1" />
		<path fill="#eac102" stroke="#000" stroke-width=".5" fill-rule="evenodd" d="m293.9 332.3c0-0.3 0 0.6 0.1 0.9q0 0 0 0.1" />
		<path fill="#eac102" stroke="#000" stroke-width=".5" fill-rule="evenodd" d="m286 338.6c0 0.1 0 0.6-0.1 0.8 0 0.2-0.6 0.1-0.8 0.1q-0.2 0-0.4 0" />
		<path fill="#eac102" stroke="#000" stroke-width=".5" fill-rule="evenodd" d="m282.6 338.5c-0.3 0 0 0.5 0 0.8q0 0.2 0 0.3" />
		<path fill="#eac102" stroke="#000" stroke-width=".5" fill-rule="evenodd" d="m286.7 333.1c0 0-0.1 0.7 0.2 0.9 0.1 0.1 0.5 0.1 0.6 0.2" />
		<path fill="#eac102" stroke="#000" stroke-width=".5" fill-rule="evenodd" d="m288.2 335.3c0.2 0.2-0.6-0.1-0.9 0 0 0.1-0.2 0.6-0.2 0.7-0.1 0.2-0.5 0.1-0.8 0.1q-0.1 0-0.1 0" />
		<path fill="#eac102" stroke="#000" stroke-width=".5" fill-rule="evenodd" d="m287.8 337.1c0 0 0.2 0.5 0.2 0.6" />
		<path fill="#eac102" stroke="#000" stroke-width=".5" fill-rule="evenodd" d="m278.8 332.2c-0.3 0 0.2 0.5 0.3 0.7" />
		<path fill="#e3e4e5" stroke="#000" stroke-width=".5" fill-rule="evenodd" d="m219.5 343.9c-4.4 3.2-9.2 5-14.3 5.8-1.8 5.5-0.3 11.8 3.4 12.8v-2.5c6-1.1 8.4-2.9 11-5 1.1-5.3 0.9-9.8-0.1-11.1z" />
		<path fill="#eac102" stroke="#000" stroke-width=".5" fill-rule="evenodd" d="m208.6 359.9l-2.6 0.5" />
		<path fill="#e3e4e5" stroke="#000" stroke-width=".5" fill-rule="evenodd" d="m281.6 343.9c4.4 2.6 8.8 5.3 14.2 5.8 1.9 5.5 0.3 11.8-3.3 12.8l-0.1-2.3c-5.8-0.6-8.3-3.4-10.8-5.2-1.2-5.3-1-9.8 0-11.1z" />
		<path fill="#eac102" stroke="#000" stroke-width=".5" fill-rule="evenodd" d="m292.4 360.2l2.6 0.2" />
		<path fill="#e3e4e5" stroke="#000" stroke-width=".5" fill-rule="evenodd" d="m250.5 366.6c1.7-0.1 5.3-0.6 6.9-2 2.6-2.2 5.9-1.5 10.1-0.1 4.5 1.4 8.9 3.1 14.5 2.5l-0.1-11.5c-3.8 0.5-10.3-0.9-15.7-3.1-4.5-1.8-6.9-1.8-10.5 0.2-1.8 1.4-3.7 2.1-5.2 2.2-1.5-0.1-3.4-0.8-5.2-2.2-3.7-2-6.1-2-10.6-0.2-5.3 2.2-11.8 3.6-15.6 3.1v11.5c5.5 0.6 9.9-1.1 14.3-2.5 4.3-1.4 7.6-2.1 10.2 0.1 1.6 1.4 5.2 1.9 6.9 2z" />
		<path fill="#000" fill-rule="evenodd" d="m221.5 363.8l-1.2-5.8 1.8-0.4q1.1-0.2 1.7 0.2 0.6 0.3 0.8 1.2 0.2 0.8-0.3 1.4-0.4 0.5-1.4 0.7l-1 0.2 0.5 2.4zm0.7-5.6l-1 0.2 0.4 2.2 1.1-0.2q0.5-0.1 0.8-0.5 0.2-0.3 0.1-0.8-0.1-0.5-0.5-0.8-0.3-0.2-0.9-0.1zm4.3 4.6l-1.3-5.9 0.8-0.1 1.1 5.1 3-0.5 0.1 0.6zm6.2-1.2l-0.9 0.2-3.6-5.4 0.9-0.1 3 4.5 0.8-5.3 0.9-0.2zm5.6-6.9l0.2 0.7q-0.5-0.1-1-0.1-0.4-0.1-0.8 0-0.7 0.2-1 0.5-0.3 0.3-0.2 0.8 0.1 0.3 0.4 0.5 0.3 0.1 1 0.1h0.5q0.9 0 1.4 0.4 0.6 0.3 0.7 1 0.2 0.8-0.3 1.4-0.5 0.6-1.6 0.8-0.5 0.1-1 0.1-0.5 0-1-0.1l-0.2-0.8q0.6 0.1 1.1 0.2 0.5 0 0.9-0.1 0.7-0.1 1.1-0.4 0.3-0.4 0.2-0.9-0.1-0.4-0.4-0.6-0.4-0.2-1-0.2h-0.5q-1 0-1.5-0.3-0.5-0.2-0.6-0.9-0.2-0.8 0.3-1.3 0.5-0.6 1.5-0.8 0.4-0.1 0.8-0.1 0.5 0 1 0.1z" />
		<path fill="#000" fill-rule="evenodd" d="m260.5 359.9l-0.8-0.2-0.9-6.4 0.7 0.2 0.7 5.4 2.4-4.6 0.7 0.1zm2.5 0.7l0.9-5.9 0.7 0.2-0.8 5.2 2.3 0.6-0.1 0.6zm3-4.7l0.1-0.6 4.1 1-0.1 0.7-1.7-0.5-0.9 5.2-0.6-0.1 0.8-5.2zm6.7 4.2q0.1 0.1 0.3 0.4 0.2 0.4 0.3 0.9l0.4 1.8 2.8-5.4 0.7 0.1 0.9 6.4-0.7-0.2-0.2-1.6-2.2-0.5-0.6 1.4-1.4-0.4-0.4-1.6q-0.1-0.7-0.3-0.9-0.2-0.3-0.6-0.4l-0.7-0.2-0.4 2.5-0.7-0.1 0.9-5.9 1.5 0.3q0.9 0.2 1.2 0.8 0.3 0.5 0.2 1.3-0.1 0.6-0.4 0.9-0.2 0.3-0.6 0.4zm-0.5-2.7l-0.8-0.2-0.3 2.1 0.8 0.2q0.5 0.1 0.7-0.1 0.3-0.2 0.4-0.7 0.1-0.5-0.1-0.9-0.2-0.3-0.7-0.4zm4.9 4.4l-0.4-3.2-1.4 2.7z" />
		<path fill="#eac102" stroke="#000" stroke-width=".5" fill-rule="evenodd" d="m241.9 363.5v-12.2" />
		<path fill="#eac102" stroke="#000" stroke-width=".5" fill-rule="evenodd" d="m257.8 351.3l0.4 12.4" />
		<path fill="#e3e4e5" stroke="#000" stroke-width=".5" fill-rule="evenodd" d="m303.9 372.1c-0.3-0.2-0.5-0.4-0.9-0.6q-0.6-0.3-1.2-0.4-0.7-0.2-1.4-0.2-0.8 0-1.4 0.2-0.7 0.1-1.2 0.4c-0.7 0.4-1.3 0.8-1.8 1.2q-0.7 0.5-1.1 0.7-0.4 0.2-0.7 0.2-0.2 0-0.7-0.2-0.4-0.2-1.1-0.7-0.3-0.3-0.8-0.6-0.4-0.3-1-0.6-0.5-0.3-1.1-0.4-0.7-0.2-1.5-0.2-0.7 0-1.4 0.2-0.6 0.1-1.2 0.4c-0.7 0.4-1.3 0.8-1.7 1.2q-0.7 0.5-1.2 0.7-0.4 0.2-0.6 0.2-0.3 0-0.7-0.2-0.4-0.2-1.1-0.7c-0.5-0.4-1.1-0.8-1.8-1.2q-0.5-0.3-1.2-0.4-0.6-0.2-1.4-0.2-0.8 0-1.4 0.2-0.7 0.1-1.2 0.4c-0.7 0.4-1.3 0.8-1.8 1.2q-0.7 0.5-1.1 0.7-0.4 0.2-0.7 0.2-0.2 0-0.6-0.2-0.5-0.2-1.2-0.7c-0.4-0.4-1-0.8-1.7-1.2q-0.6-0.3-1.2-0.4-0.7-0.2-1.4-0.2-0.8 0-1.5 0.2-0.6 0.1-1.1 0.4-0.6 0.3-1 0.6-0.5 0.3-0.8 0.6-0.7 0.5-1.1 0.7-0.5 0.2-0.7 0.2-0.3 0-0.7-0.2-0.4-0.2-1.1-0.7c-0.5-0.4-1.1-0.8-1.8-1.2q-0.5-0.3-1.2-0.4-0.6-0.2-1.4-0.2-0.7 0-1.4 0.2-0.6 0.1-1.2 0.4c-0.7 0.4-1.3 0.8-1.8 1.2q-0.7 0.5-1.1 0.7-0.4 0.2-0.7 0.2-0.2 0-0.6-0.2-0.4-0.2-1.1-0.7c-0.5-0.4-1.1-0.8-1.8-1.2q-0.6-0.3-1.2-0.4-0.7-0.2-1.4-0.2-0.8 0-1.4 0.2-0.7 0.1-1.2 0.4-0.6 0.3-1 0.6-0.5 0.3-0.8 0.6-0.7 0.5-1.1 0.7-0.4 0.2-0.7 0.2-0.2 0-0.7-0.2-0.4-0.2-1.1-0.7c-0.5-0.4-1-0.8-1.8-1.2q-0.5-0.3-1.2-0.4-0.6-0.2-1.4-0.2-0.7 0-1.4 0.2-0.6 0.1-1.2 0.4c-0.7 0.4-1.3 0.8-1.7 1.2q-0.7 0.5-1.2 0.7-0.4 0.2-0.6 0.2-0.3 0-0.7-0.2-0.4-0.2-1.1-0.7c-0.5-0.4-1.1-0.8-1.8-1.2q-0.5-0.3-1.2-0.4-0.6-0.2-1.4-0.2-0.8 0-1.4 0.2-0.7 0.1-1.2 0.4-0.6 0.3-1 0.6-0.4 0.3-0.8 0.6-0.7 0.5-1.1 0.7-0.4 0.2-0.7 0.2-0.2 0-0.6-0.2-0.5-0.2-1.2-0.7-0.3-0.3-0.8-0.6-0.4-0.3-0.9-0.6-0.6-0.3-1.2-0.4-0.7-0.2-1.5-0.2-0.7 0-1.4 0.2-0.6 0.1-1.2 0.4c-0.6 0.3-1.1 0.7-1.5 1q1.3 1.8 2.7 3.5c0.3-0.2 0.6-0.4 0.8-0.5q0.4-0.2 0.6-0.2 0.3 0 0.7 0.2 0.4 0.3 1.1 0.8 0.4 0.2 0.8 0.5 0.5 0.3 1 0.6 0.6 0.3 1.2 0.5 0.7 0.1 1.4 0.1 0.8 0 1.4-0.1 0.7-0.2 1.2-0.5 0.6-0.3 1-0.6 0.5-0.3 0.8-0.5 0.7-0.5 1.1-0.8 0.4-0.2 0.7-0.2 0.2 0 0.7 0.2 0.4 0.3 1.1 0.8 0.3 0.2 0.8 0.5 0.4 0.3 1 0.6 0.5 0.3 1.2 0.5 0.6 0.1 1.4 0.1 0.7 0 1.4-0.1 0.6-0.2 1.2-0.5 0.5-0.3 0.9-0.6 0.5-0.3 0.8-0.5 0.7-0.5 1.2-0.8 0.4-0.2 0.6-0.2 0.3 0 0.7 0.2 0.4 0.3 1.1 0.8 0.4 0.2 0.8 0.5 0.5 0.3 1 0.6 0.5 0.3 1.2 0.5 0.6 0.1 1.4 0.1 0.8 0 1.4-0.1 0.7-0.2 1.2-0.5 0.5-0.3 1-0.6 0.4-0.3 0.8-0.5 0.7-0.5 1.1-0.8 0.4-0.2 0.7-0.2 0.2 0 0.6 0.2 0.5 0.3 1.2 0.8 0.3 0.2 0.8 0.5 0.4 0.3 0.9 0.6 0.6 0.3 1.2 0.5 0.7 0.1 1.4 0.1 0.8 0 1.5-0.1 0.6-0.2 1.2-0.5 0.5-0.3 0.9-0.6 0.5-0.3 0.8-0.5 0.7-0.5 1.1-0.8 0.5-0.2 0.7-0.2 0.3 0 0.7 0.2 0.4 0.3 1.1 0.8 0.4 0.2 0.8 0.5 0.4 0.3 1 0.6 0.5 0.3 1.2 0.5 0.6 0.1 1.4 0.1 0.8 0 1.4-0.1 0.6-0.2 1.2-0.5 0.5-0.3 1-0.6 0.4-0.3 0.8-0.5 0.7-0.5 1.1-0.8 0.4-0.2 0.7-0.2 0.2 0 0.6 0.2 0.4 0.3 1.1 0.8 0.4 0.2 0.8 0.5 0.5 0.3 1 0.6 0.6 0.3 1.2 0.5 0.7 0.1 1.4 0.1 0.8 0 1.4-0.1 0.7-0.2 1.2-0.5 0.6-0.3 1-0.6 0.5-0.3 0.8-0.5 0.7-0.5 1.1-0.8 0.4-0.2 0.7-0.2 0.3 0 0.7 0.2 0.4 0.3 1.1 0.8 0.3 0.2 0.8 0.5 0.4 0.3 1 0.6 0.5 0.3 1.2 0.5 0.6 0.1 1.4 0.1 0.7 0 1.4-0.1 0.6-0.2 1.2-0.5 0.5-0.3 1-0.6 0.4-0.3 0.8-0.5 0.7-0.5 1.1-0.8 0.4-0.2 0.6-0.2 0.3 0 0.7 0.2 0.4 0.3 1.1 0.8 0.4 0.2 0.8 0.5 0.5 0.3 1 0.6 0.6 0.3 1.2 0.5 0.6 0.1 1.4 0.1 0.8 0 1.4-0.1 0.7-0.2 1.2-0.5 0.6-0.3 1-0.6 0.4-0.3 0.8-0.5 0.7-0.5 1.1-0.8 0.4-0.2 0.7-0.2 0.2 0 0.7 0.2c0 0.1 0 0.1 0.1 0.1q1.4-1.7 2.7-3.5z" />
		<path fill="#eac102" stroke="#000" stroke-width=".5" fill-rule="evenodd" d="m281.2 250.6v14.6h-2.2v-11.8h-5.6v18.2l2.2 1.5v18.1l-4.3 5.3v16.9h27.8v-16.9l-4.4-5.3v-18.1l2.3-1.5v-18.2h-5.6v11.8h-2.3v-14.6z" />
		<path fill="none" stroke="#000" stroke-width=".5" fill-rule="evenodd" d="m299 308.1h-27.8" />
		<path fill="none" stroke="#000" stroke-width=".5" fill-rule="evenodd" d="m299 305.9h-27.8" />
		<path fill="none" stroke="#000" stroke-width=".5" fill-rule="evenodd" d="m299 303h-27.8" />
		<path fill="none" stroke="#000" stroke-width=".5" fill-rule="evenodd" d="m299 300.1h-27.8" />
		<path fill="none" stroke="#000" stroke-width=".5" fill-rule="evenodd" d="m299 297.1h-27.8" />
		<path fill="none" stroke="#000" stroke-linecap="round" stroke-linejoin="round" stroke-width=".5" fill-rule="evenodd" d="m297.1 294.2h-23.8" />
		<path fill="none" stroke="#000" stroke-width=".5" fill-rule="evenodd" d="m294.9 291.3h-19.3" />
		<path fill="none" stroke="#000" stroke-width=".5" fill-rule="evenodd" d="m294.9 288.9h-19.3" />
		<path fill="none" stroke="#000" stroke-width=".5" fill-rule="evenodd" d="m294.9 286h-19.3" />
		<path fill="none" stroke="#000" stroke-width=".5" fill-rule="evenodd" d="m294.9 283.3h-19.3" />
		<path fill="none" stroke="#000" stroke-width=".5" fill-rule="evenodd" d="m294.9 280.5h-19.3" />
		<path fill="none" stroke="#000" stroke-width=".5" fill-rule="evenodd" d="m294.9 277.8h-19.3" />
		<path fill="none" stroke="#000" stroke-width=".5" fill-rule="evenodd" d="m294.9 275.1h-19.3" />
		<path fill="none" stroke="#000" stroke-width=".5" fill-rule="evenodd" d="m294.9 273.1h-19.3" />
		<path fill="none" stroke="#000" stroke-width=".5" fill-rule="evenodd" d="m277.7 305.9v-2.9" />
		<path fill="none" stroke="#000" stroke-width=".5" fill-rule="evenodd" d="m277.7 300v-2.9" />
		<path fill="none" stroke="#000" stroke-width=".5" fill-rule="evenodd" d="m277.7 294.3v-2.9" />
		<path fill="none" stroke="#000" stroke-width=".5" fill-rule="evenodd" d="m283.5 300v-2.9" />
		<path fill="none" stroke="#000" stroke-width=".5" fill-rule="evenodd" d="m283.5 294.3v-2.9" />
		<path fill="none" stroke="#000" stroke-width=".5" fill-rule="evenodd" d="m286.5 300v-2.9" />
		<path fill="none" stroke="#000" stroke-width=".5" fill-rule="evenodd" d="m286.5 294.3v-2.9" />
		<path fill="none" stroke="#000" stroke-width=".5" fill-rule="evenodd" d="m292.5 305.9v-2.9" />
		<path fill="none" stroke="#000" stroke-width=".5" fill-rule="evenodd" d="m292.5 300v-2.9" />
		<path fill="none" stroke="#000" stroke-width=".5" fill-rule="evenodd" d="m292.5 294.3v-2.9" />
		<path fill="none" stroke="#000" stroke-width=".5" fill-rule="evenodd" d="m275.3 297.1v-2.9" />
		<path fill="none" stroke="#000" stroke-width=".5" fill-rule="evenodd" d="m281.9 297.1v-2.9" />
		<path fill="none" stroke="#000" stroke-width=".5" fill-rule="evenodd" d="m288.5 297.1v-2.9" />
		<path fill="none" stroke="#000" stroke-width=".5" fill-rule="evenodd" d="m295 297.1v-2.9" />
		<path fill="none" stroke="#000" stroke-width=".5" fill-rule="evenodd" d="m275.3 302.9v-2.9" />
		<path fill="none" stroke="#000" stroke-width=".5" fill-rule="evenodd" d="m281.9 302.9v-2.9" />
		<path fill="none" stroke="#000" stroke-width=".5" fill-rule="evenodd" d="m288.5 302.9v-2.9" />
		<path fill="none" stroke="#000" stroke-width=".5" fill-rule="evenodd" d="m295 302.9v-2.9" />
		<path fill="#0071bc" stroke="#000" stroke-linecap="round" stroke-linejoin="round" stroke-width=".5" fill-rule="evenodd" d="m285 300.6c-1.4 0-2.5 1.3-2.5 2.7v10.1h5v-10.1c0-1.4-1-2.7-2.5-2.7z" />
		<path fill="#eac102" stroke="#000" stroke-linecap="round" stroke-linejoin="round" stroke-width=".5" fill-rule="evenodd" d="m285 299.1c-2.3 0-4 2-4 4.3v10h2.1v-10c0-1.4 1-2.3 1.9-2.3 1 0 1.9 0.9 1.9 2.3v10h2.1v-10c0-2.3-1.7-4.3-4-4.3z" />
		<path fill="none" stroke="#000" stroke-width=".5" fill-rule="evenodd" d="m285.2 291.2v-2.2" />
		<path fill="none" stroke="#000" stroke-width=".5" fill-rule="evenodd" d="m280.4 291.2v-2.3" />
		<path fill="none" stroke="#000" stroke-width=".5" fill-rule="evenodd" d="m290 291.2v-2.2" />
		<path fill="none" stroke="#000" stroke-width=".5" fill-rule="evenodd" d="m285.2 285.9v-2.5" />
		<path fill="none" stroke="#000" stroke-width=".5" fill-rule="evenodd" d="m280.4 285.9v-2.6" />
		<path fill="none" stroke="#000" stroke-width=".5" fill-rule="evenodd" d="m290 285.9v-2.5" />
		<path fill="none" stroke="#000" stroke-width=".5" fill-rule="evenodd" d="m285.2 280.6v-2.7" />
		<path fill="none" stroke="#000" stroke-width=".5" fill-rule="evenodd" d="m285.2 275v-1.9" />
		<path fill="none" stroke="#000" stroke-width=".5" fill-rule="evenodd" d="m280.4 275v-1.8" />
		<path fill="none" stroke="#000" stroke-width=".5" fill-rule="evenodd" d="m290 275v-1.9" />
		<path fill="#0071bc" stroke="#000" stroke-linecap="round" stroke-linejoin="round" stroke-width=".5" fill-rule="evenodd" d="m280.7 276.9c-1 0-1.8 0.9-1.8 2v6.1h3.7v-6.1c0-1.1-0.8-2-1.9-2z" />
		<path fill="#0071bc" stroke="#000" stroke-linecap="round" stroke-linejoin="round" stroke-width=".5" fill-rule="evenodd" d="m289.8 276.9c-1 0-1.8 0.9-1.8 2v6.1h3.7v-6.1c0-1.1-0.8-2-1.9-2z" />
		<path fill="none" stroke="#000" stroke-width=".5" fill-rule="evenodd" d="m282.5 288.7v-2.7" />
		<path fill="none" stroke="#000" stroke-width=".5" fill-rule="evenodd" d="m287.9 288.7v-2.7" />
		<path fill="none" stroke="#000" stroke-width=".5" fill-rule="evenodd" d="m282.5 277.9v-2.7" />
		<path fill="none" stroke="#000" stroke-width=".5" fill-rule="evenodd" d="m287.9 277.9v-2.7" />
		<path fill="none" stroke="#000" stroke-width=".5" fill-rule="evenodd" d="m296.7 271.7h-23.2" />
		<path fill="none" stroke="#000" stroke-width=".5" fill-rule="evenodd" d="m297 270.6h-23.5" />
		<path fill="none" stroke="#000" stroke-width=".5" fill-rule="evenodd" d="m297 267.9h-23.5" />
		<path fill="none" stroke="#000" stroke-width=".5" fill-rule="evenodd" d="m297 265.2h-23.5" />
		<path fill="none" stroke="#000" stroke-width=".5" fill-rule="evenodd" d="m291.4 262.6h5.5" />
		<path fill="none" stroke="#000" stroke-width=".5" fill-rule="evenodd" d="m291.4 259.7h5.5" />
		<path fill="none" stroke="#000" stroke-width=".5" fill-rule="evenodd" d="m291.4 256.9h5.5" />
		<path fill="none" stroke="#000" stroke-width=".5" fill-rule="evenodd" d="m273.4 262.6h5.5" />
		<path fill="none" stroke="#000" stroke-width=".5" fill-rule="evenodd" d="m273.4 259.7h5.5" />
		<path fill="none" stroke="#000" stroke-width=".5" fill-rule="evenodd" d="m273.4 256.9h5.5" />
		<path fill="none" stroke="#000" stroke-width=".5" fill-rule="evenodd" d="m281.3 262.6h7.7" />
		<path fill="none" stroke="#000" stroke-width=".5" fill-rule="evenodd" d="m281.3 259.7h7.7" />
		<path fill="none" stroke="#000" stroke-width=".5" fill-rule="evenodd" d="m281.3 256.9h7.7" />
		<path fill="none" stroke="#000" stroke-width=".5" fill-rule="evenodd" d="m281.3 254.2h7.7" />
		<path fill="none" stroke="#000" stroke-width=".5" fill-rule="evenodd" d="m276.1 253.4v1.9" />
		<path fill="none" stroke="#000" stroke-width=".5" fill-rule="evenodd" d="m294.2 253.4v1.9" />
		<path fill="none" stroke="#000" stroke-width=".5" fill-rule="evenodd" d="m283.9 250.5v1.9" />
		<path fill="none" stroke="#000" stroke-width=".5" fill-rule="evenodd" d="m286.3 250.5v1.9" />
		<path fill="none" stroke="#000" stroke-width=".5" fill-rule="evenodd" d="m276.1 256.8v3" />
		<path fill="none" stroke="#000" stroke-width=".5" fill-rule="evenodd" d="m294.2 256.8v3" />
		<path fill="none" stroke="#000" stroke-width=".5" fill-rule="evenodd" d="m276.1 262.7v2.4" />
		<path fill="none" stroke="#000" stroke-width=".5" fill-rule="evenodd" d="m294.2 262.7v2.4" />
		<path fill="none" stroke="#000" stroke-width=".5" fill-rule="evenodd" d="m276.1 267.9v2.8" />
		<path fill="none" stroke="#000" stroke-width=".5" fill-rule="evenodd" d="m294.2 267.9v2.8" />
		<path fill="none" stroke="#000" stroke-width=".5" fill-rule="evenodd" d="m279 265.1v2.7" />
		<path fill="none" stroke="#000" stroke-width=".5" fill-rule="evenodd" d="m291.4 265.1v2.7" />
		<path fill="none" stroke="#000" stroke-width=".5" fill-rule="evenodd" d="m289.1 265.1v2.7" />
		<path fill="none" stroke="#000" stroke-width=".5" fill-rule="evenodd" d="m281.2 265.1v2.7" />
		<path fill="none" stroke="#000" stroke-width=".5" fill-rule="evenodd" d="m285.1 254.2v2.7" />
		<path fill="none" stroke="#000" stroke-width=".5" fill-rule="evenodd" d="m283.9 256.9v2.8" />
		<path fill="none" stroke="#000" stroke-width=".5" fill-rule="evenodd" d="m286.3 256.9v2.8" />
		<path fill="none" stroke="#000" stroke-width=".5" fill-rule="evenodd" d="m285.1 259.8v2.7" />
		<path fill="none" stroke="#000" stroke-width=".5" fill-rule="evenodd" d="m283.9 262.5v2.6" />
		<path fill="none" stroke="#000" stroke-width=".5" fill-rule="evenodd" d="m286.3 262.5v2.6" />
		<path fill="none" stroke="#000" stroke-width=".5" fill-rule="evenodd" d="m285.1 265.2v2.6" />
		<path fill="none" stroke="#000" stroke-width=".5" fill-rule="evenodd" d="m283.9 267.9v2.7" />
		<path fill="none" stroke="#000" stroke-width=".5" fill-rule="evenodd" d="m286.3 267.9v2.7" />
		<path fill="#e3e4e5" stroke="#000" stroke-width=".8" fill-rule="evenodd" d="m226.9 292.3c0 11.4 0 22.9 0 34.3 0.4 10.2 8.2 19.6 18.3 21.7 9.2 2.3 19.6-1.8 24.8-9.8 3.1-4.4 4.3-10 4-15.4q0-15.4 0-30.8-23.5 0-47.1 0z" />
		<path fill="#e3e4e5" stroke="#000" stroke-width=".5" fill-rule="evenodd" d="m248.1 322.3c-1 6.1-3.1 11.8-6.5 16.9 4.1-2.4 7.2-3.5 3.7 3.5 3.4-4.2 6.2-5 7.6 1-0.4-6.2 2.7-5.7 6.4-4.5-7.8-4.1-5.9-10.9-7.1-16.8z" />
		<path fill="#008f4c" stroke="#000" stroke-width=".5" fill-rule="evenodd" d="m249.5 322.5c1.8 1.9 2.8 1.5 4-0.6 1.5-2.2 2.6-1.8 4.1 0.2 1.4 2.6 4 0.7 5.2 1.9 1.9 0.2 2.7-0.6 2.4-2.5-0.1-2.7 1.6-2.5 2.9-2.9 2.1-0.7 2.8-3-0.2-3.5-2-0.8-2.8-1.9-0.5-4 1.4-2.6 0.6-4.3-2.2-4.3-2.5 2-2.2-1-2.1-3.1-0.8-2.4-2.3-1.2-3.8 0.1-1.2 1.6-1.4 0.4-2.3-0.3 1.1-2.9-1.4-2.9-3.6-2.6-0.9-2.3-1.7-4.7-4.4-2.2-2.1-1.1-3.8-1.2-4.5 2.2-0.5 1.8-1.3 2.5-2.6 1.9-1.9-0.3-3.7-0.6-4.3 1.4-0.1 1.4-1.1 1.4-2.2 1.3-2.3-0.3-3 1.4-2.7 4.2-1.8 1.1-2.9 3.6 0.7 4.3-0.2 2.5-0.9 4.9 1 6.2-0.5 2.7 0.3 4.7 2.9 2.2 2.2-2.6 2.2-1.6 3.3-0.7 2 2.3 2.6 1.6 4.1 2 2 0.3 3.8 0.3 4.8-1.2z" />
	</g>
</svg>