<?xml version="1.0" encoding="UTF-8"?>
<svg id="Layer_1" data-name="Layer 1" xmlns="http://www.w3.org/2000/svg" viewBox="0 0 600 450">
  <defs>
    <style>
      .cls-1 {
        fill: #010101;
        stroke: #059b49;
        stroke-width: 86px;
      }

      .cls-1, .cls-2 {
        stroke-linejoin: round;
      }

      .cls-3 {
        stroke-width: .69px;
      }

      .cls-3, .cls-4, .cls-2 {
        fill: #fbb715;
        stroke: #010101;
      }

      .cls-5 {
        fill: #9d202e;
      }

      .cls-4 {
        stroke-width: .75px;
      }

      .cls-2 {
        stroke-width: .7px;
      }
    </style>
  </defs>
  <path class="cls-1" d="M-619.94-.33L-20.06,450.33M-20.06-.33L-619.94,450.33"/>
  <g>
    <rect class="cls-5" y="-.03" width="607" height="450.55"/>
    <g>
      <g id="castle">
        <path class="cls-3" d="M33.69,102.11l13.7-45.72h28.09l13.7,45.72h-18.31v-19.68l-.1-.98-.1-.98-.2-.88-.39-.88-.39-.78-.49-.78-.49-.68-.59-.69-.69-.69-.78-.49-.78-.49-.78-.39-.88-.39-.88-.2-.98-.1-.88-.1h-.59l-.39,.1h-.49l-.49,.1-.88,.2-.88,.39-.78,.39-.78,.49-.78,.49-.59,.69-.69,.69-.49,.68-.49,.78-.39,.78-.39,.88-.2,.88-.1,.49v.49l-.1,.49v20.17h-18.3"/>
        <path class="cls-3" d="M49.75,38.28v8.71h3.62V30.55h-9.3v7.73h5.68"/>
        <path class="cls-3" d="M57.58,46.99v-8.71h7.73v8.71h.78V24.97h-9.3v22.03h.78"/>
        <path class="cls-3" d="M73.24,46.99v-8.71h5.58v-7.73h-9.3v16.45h3.72"/>
        <path class="cls-3" d="M49.75,38.28v8.71h7.83v-8.71h7.73v8.71h7.93v-8.71h7.73v15.08H42.01v-15.08h7.73"/>
        <path class="cls-4" d="M41.82,29.68h13.8v-5.19h-13.8v5.19Z"/>
        <path class="cls-4" d="M54.54,24.1h13.8v-5.38h-13.8v5.38Z"/>
        <path class="cls-4" d="M67.27,29.68h13.9v-5.19h-13.9v5.19Z"/>
      </g>
      <g id="castle-2" data-name="castle">
        <path class="cls-3" d="M99.11,102.11l13.7-45.72h28.09l13.7,45.72h-18.31v-19.68l-.1-.98-.1-.98-.2-.88-.39-.88-.39-.78-.49-.78-.49-.68-.59-.69-.69-.69-.78-.49-.78-.49-.78-.39-.88-.39-.88-.2-.98-.1-.88-.1h-.59l-.39,.1h-.49l-.49,.1-.88,.2-.88,.39-.78,.39-.78,.49-.78,.49-.59,.69-.69,.69-.49,.68-.49,.78-.39,.78-.39,.88-.2,.88-.1,.49v.49l-.1,.49v20.17h-18.3"/>
        <path class="cls-3" d="M115.16,38.28v8.71h3.62V30.55h-9.3v7.73h5.68"/>
        <path class="cls-3" d="M123,46.99v-8.71h7.73v8.71h.78V24.97h-9.3v22.03h.78"/>
        <path class="cls-3" d="M138.66,46.99v-8.71h5.58v-7.73h-9.3v16.45h3.72"/>
        <path class="cls-3" d="M115.16,38.28v8.71h7.83v-8.71h7.73v8.71h7.93v-8.71h7.73v15.08h-38.96v-15.08h7.73"/>
        <path class="cls-4" d="M107.24,29.68h13.8v-5.19h-13.8v5.19Z"/>
        <path class="cls-4" d="M119.96,24.1h13.8v-5.38h-13.8v5.38Z"/>
        <path class="cls-4" d="M132.69,29.68h13.9v-5.19h-13.9v5.19Z"/>
      </g>
      <g id="castle-3" data-name="castle">
        <path class="cls-3" d="M33.69,197.82l13.7-45.72h28.09l13.7,45.72h-18.31v-19.68l-.1-.98-.1-.98-.2-.88-.39-.88-.39-.78-.49-.78-.49-.68-.59-.69-.69-.69-.78-.49-.78-.49-.78-.39-.88-.39-.88-.2-.98-.1-.88-.1h-.59l-.39,.1h-.49l-.49,.1-.88,.2-.88,.39-.78,.39-.78,.49-.78,.49-.59,.69-.69,.69-.49,.68-.49,.78-.39,.78-.39,.88-.2,.88-.1,.49v.49l-.1,.49v20.17h-18.3"/>
        <path class="cls-3" d="M49.75,133.99v8.71h3.62v-16.45h-9.3v7.73h5.68"/>
        <path class="cls-3" d="M57.58,142.7v-8.71h7.73v8.71h.78v-22.03h-9.3v22.03h.78"/>
        <path class="cls-3" d="M73.24,142.7v-8.71h5.58v-7.73h-9.3v16.45h3.72"/>
        <path class="cls-3" d="M49.75,133.99v8.71h7.83v-8.71h7.73v8.71h7.93v-8.71h7.73v15.08H42.01v-15.08h7.73"/>
        <path class="cls-4" d="M41.82,125.39h13.8v-5.19h-13.8v5.19Z"/>
        <path class="cls-4" d="M54.54,119.81h13.8v-5.38h-13.8v5.38Z"/>
        <path class="cls-4" d="M67.27,125.39h13.9v-5.19h-13.9v5.19Z"/>
      </g>
      <g id="castle-4" data-name="castle">
        <path class="cls-3" d="M99.11,197.82l13.7-45.72h28.09l13.7,45.72h-18.31v-19.68l-.1-.98-.1-.98-.2-.88-.39-.88-.39-.78-.49-.78-.49-.68-.59-.69-.69-.69-.78-.49-.78-.49-.78-.39-.88-.39-.88-.2-.98-.1-.88-.1h-.59l-.39,.1h-.49l-.49,.1-.88,.2-.88,.39-.78,.39-.78,.49-.78,.49-.59,.69-.69,.69-.49,.68-.49,.78-.39,.78-.39,.88-.2,.88-.1,.49v.49l-.1,.49v20.17h-18.3"/>
        <path class="cls-3" d="M115.16,133.99v8.71h3.62v-16.45h-9.3v7.73h5.68"/>
        <path class="cls-3" d="M123,142.7v-8.71h7.73v8.71h.78v-22.03h-9.3v22.03h.78"/>
        <path class="cls-3" d="M138.66,142.7v-8.71h5.58v-7.73h-9.3v16.45h3.72"/>
        <path class="cls-3" d="M115.16,133.99v8.71h7.83v-8.71h7.73v8.71h7.93v-8.71h7.73v15.08h-38.96v-15.08h7.73"/>
        <path class="cls-4" d="M107.24,125.39h13.8v-5.19h-13.8v5.19Z"/>
        <path class="cls-4" d="M119.96,119.81h13.8v-5.38h-13.8v5.38Z"/>
        <path class="cls-4" d="M132.69,125.39h13.9v-5.19h-13.9v5.19Z"/>
      </g>
    </g>
    <g>
      <path id="crown" class="cls-2" d="M469.07,332.74c-.01-1.61-.61-3.14-1.18-4.62-1.03-2.26-2.36-4.39-3.84-6.39,1.43,.5,2.92,.87,4.32,1.43,1.21,.64,2.49,1.18,3.53,2.1,.56,.45,1.14,1,1.39,1.68,.06,.7,.02,1.51-.69,1.87-.44,.49-1.06,.71-1.67,.88,.08,.81,.46,1.57,.88,2.23,.79,.68,1.8,.94,2.83,.82,1.47-.18,2.78-1.09,3.54-2.35,.46-.69,.63-1.17,.97-.11,.44,.64,.99,1.26,1.59,1.77,1.03,.75,2.34,.96,3.58,.88,.75-.01,1.6-.21,2.2-.59,.71-.66,.64-1.82,.34-2.67-.37-.49-1.16-.71-1.78-.48-.58-.12-1.66,.71-1.05-.31,.1-.75,.65-1.4,1.16-1.92,.41-.39,1.09-.6,1.48-.72,.61-1.09,1.16-2.43,2.36-2.95,.95-.05,1.59,.89,2.12,1.58,.38,.46,.48,1.46,1.07,1.47,.86,.28,1.66,.91,2.02,1.75,.17,.37,1.01,1.68,.18,1.25-.66-.13-1.38-.35-2.03-.15-.71,.19-.93,.84-.89,1.52-.11,.88,.36,1.8,1.29,1.96,1.01,.33,2.14,.36,3.16,.15,.97-.16,1.87-.59,2.51-1.35,.62-.54,1.04-1.29,1.4-1.99,.56,1.01,1.24,2.12,2.33,2.66,1.23,.72,2.91,.88,4.16,.09,.82-.57,1.15-1.6,1.28-2.56-.68-.16-1.24-.51-1.77-.95-1.06-.69-.56-2.22,.21-2.95,.89-.88,1.98-1.62,3.15-2.12,1.02-.46,2.01-1.02,3.14-1.23,.74-.29,1.49-.5,2.25-.71-.97,1.19-1.73,2.56-2.61,3.83-.88,1.69-1.86,3.38-2.18,5.29-.43,1.71-.14,3.5-.22,5.24v7.37h-40.51v-10.72"/>
      <path id="crown-2" data-name="crown" class="cls-2" d="M413.32,361.15c-.01-1.61-.61-3.14-1.18-4.62-1.03-2.26-2.36-4.39-3.84-6.39,1.43,.5,2.92,.87,4.32,1.43,1.21,.64,2.49,1.18,3.53,2.1,.56,.45,1.14,1,1.39,1.68,.06,.7,.02,1.51-.69,1.87-.44,.49-1.06,.71-1.67,.88,.08,.81,.46,1.57,.88,2.23,.79,.68,1.8,.94,2.83,.82,1.47-.18,2.78-1.09,3.54-2.35,.46-.69,.63-1.17,.97-.11,.44,.64,.99,1.26,1.59,1.77,1.03,.75,2.34,.96,3.58,.88,.75-.01,1.6-.21,2.2-.59,.71-.66,.64-1.82,.34-2.67-.37-.49-1.16-.71-1.78-.48-.58-.12-1.66,.71-1.05-.31,.1-.75,.65-1.4,1.16-1.92,.41-.39,1.09-.6,1.48-.72,.61-1.09,1.16-2.43,2.36-2.95,.95-.05,1.59,.89,2.12,1.58,.38,.46,.48,1.46,1.07,1.47,.86,.28,1.66,.91,2.02,1.75,.17,.37,1.01,1.68,.18,1.25-.66-.13-1.38-.35-2.03-.15-.71,.19-.93,.84-.89,1.52-.11,.88,.36,1.8,1.29,1.96,1.01,.33,2.14,.36,3.16,.15,.97-.16,1.87-.59,2.51-1.35,.62-.54,1.04-1.29,1.4-1.99,.56,1.01,1.24,2.12,2.33,2.66,1.23,.72,2.91,.88,4.16,.09,.82-.57,1.15-1.6,1.28-2.56-.68-.16-1.24-.51-1.77-.95-1.06-.69-.56-2.22,.21-2.95,.89-.88,1.98-1.62,3.15-2.12,1.02-.46,2.01-1.02,3.14-1.23,.74-.29,1.49-.5,2.25-.71-.97,1.19-1.73,2.56-2.61,3.83-.88,1.69-1.86,3.38-2.18,5.29-.43,1.71-.14,3.5-.22,5.24v7.37h-40.51v-10.72"/>
      <path id="crown-3" data-name="crown" class="cls-2" d="M469.07,361.15c-.01-1.61-.61-3.14-1.18-4.62-1.03-2.26-2.36-4.39-3.84-6.39,1.43,.5,2.92,.87,4.32,1.43,1.21,.64,2.49,1.18,3.53,2.1,.56,.45,1.14,1,1.39,1.68,.06,.7,.02,1.51-.69,1.87-.44,.49-1.06,.71-1.67,.88,.08,.81,.46,1.57,.88,2.23,.79,.68,1.8,.94,2.83,.82,1.47-.18,2.78-1.09,3.54-2.35,.46-.69,.63-1.17,.97-.11,.44,.64,.99,1.26,1.59,1.77,1.03,.75,2.34,.96,3.58,.88,.75-.01,1.6-.21,2.2-.59,.71-.66,.64-1.82,.34-2.67-.37-.49-1.16-.71-1.78-.48-.58-.12-1.66,.71-1.05-.31,.1-.75,.65-1.4,1.16-1.92,.41-.39,1.09-.6,1.48-.72,.61-1.09,1.16-2.43,2.36-2.95,.95-.05,1.59,.89,2.12,1.58,.38,.46,.48,1.46,1.07,1.47,.86,.28,1.66,.91,2.02,1.75,.17,.37,1.01,1.68,.18,1.25-.66-.13-1.38-.35-2.03-.15-.71,.19-.93,.84-.89,1.52-.11,.88,.36,1.8,1.29,1.96,1.01,.33,2.14,.36,3.16,.15,.97-.16,1.87-.59,2.51-1.35,.62-.54,1.04-1.29,1.4-1.99,.56,1.01,1.24,2.12,2.33,2.66,1.23,.72,2.91,.88,4.16,.09,.82-.57,1.15-1.6,1.28-2.56-.68-.16-1.24-.51-1.77-.95-1.06-.69-.56-2.22,.21-2.95,.89-.88,1.98-1.62,3.15-2.12,1.02-.46,2.01-1.02,3.14-1.23,.74-.29,1.49-.5,2.25-.71-.97,1.19-1.73,2.56-2.61,3.83-.88,1.69-1.86,3.38-2.18,5.29-.43,1.71-.14,3.5-.22,5.24v7.37h-40.51v-10.72"/>
      <path id="crown-4" data-name="crown" class="cls-2" d="M524.82,361.15c-.01-1.61-.61-3.14-1.18-4.62-1.03-2.26-2.36-4.39-3.84-6.39,1.43,.5,2.92,.87,4.32,1.43,1.21,.64,2.49,1.18,3.53,2.1,.56,.45,1.14,1,1.39,1.68,.06,.7,.02,1.51-.69,1.87-.44,.49-1.06,.71-1.67,.88,.08,.81,.46,1.57,.88,2.23,.79,.68,1.8,.94,2.83,.82,1.47-.18,2.78-1.09,3.54-2.35,.46-.69,.63-1.17,.97-.11,.44,.64,.99,1.26,1.59,1.77,1.03,.75,2.34,.96,3.58,.88,.75-.01,1.6-.21,2.2-.59,.71-.66,.64-1.82,.34-2.67-.37-.49-1.16-.71-1.78-.48-.58-.12-1.66,.71-1.05-.31,.1-.75,.65-1.4,1.16-1.92,.41-.39,1.09-.6,1.48-.72,.61-1.09,1.16-2.43,2.36-2.95,.95-.05,1.59,.89,2.12,1.58,.38,.46,.48,1.46,1.07,1.47,.86,.28,1.66,.91,2.02,1.75,.17,.37,1.01,1.68,.18,1.25-.66-.13-1.38-.35-2.03-.15-.71,.19-.93,.84-.89,1.52-.11,.88,.36,1.8,1.29,1.96,1.01,.33,2.14,.36,3.16,.15,.97-.16,1.87-.59,2.51-1.35,.62-.54,1.04-1.29,1.4-1.99,.56,1.01,1.24,2.12,2.33,2.66,1.23,.72,2.91,.88,4.16,.09,.82-.57,1.15-1.6,1.28-2.56-.68-.16-1.24-.51-1.77-.95-1.06-.69-.56-2.22,.21-2.95,.89-.88,1.98-1.62,3.15-2.12,1.02-.46,2.01-1.02,3.14-1.23,.74-.29,1.49-.5,2.25-.71-.97,1.19-1.73,2.56-2.61,3.83-.88,1.69-1.86,3.38-2.18,5.29-.43,1.71-.14,3.5-.22,5.24v7.37h-40.51v-10.72"/>
      <path id="crown-5" data-name="crown" class="cls-2" d="M438.48,389.86c-.01-1.61-.61-3.14-1.18-4.62-1.03-2.26-2.36-4.39-3.84-6.39,1.43,.5,2.92,.87,4.32,1.43,1.21,.64,2.49,1.18,3.53,2.1,.56,.45,1.14,1,1.39,1.68,.06,.7,.02,1.51-.69,1.87-.44,.49-1.06,.71-1.67,.88,.08,.81,.46,1.57,.88,2.23,.79,.68,1.8,.94,2.83,.82,1.47-.18,2.78-1.09,3.54-2.35,.46-.69,.63-1.17,.97-.11,.44,.64,.99,1.26,1.59,1.77,1.03,.75,2.34,.96,3.58,.88,.75-.01,1.6-.21,2.2-.59,.71-.66,.64-1.82,.34-2.67-.37-.49-1.16-.71-1.78-.48-.58-.12-1.66,.71-1.05-.31,.1-.75,.65-1.4,1.16-1.92,.41-.39,1.09-.6,1.48-.72,.61-1.09,1.16-2.43,2.36-2.95,.95-.05,1.59,.89,2.12,1.58,.38,.46,.48,1.46,1.07,1.47,.86,.28,1.66,.91,2.02,1.75,.17,.37,1.01,1.68,.18,1.25-.66-.13-1.38-.35-2.03-.15-.71,.19-.93,.84-.89,1.52-.11,.88,.36,1.8,1.29,1.96,1.01,.33,2.14,.36,3.16,.15,.97-.16,1.87-.59,2.51-1.35,.62-.54,1.04-1.29,1.4-1.99,.56,1.01,1.24,2.12,2.33,2.66,1.23,.72,2.91,.88,4.16,.09,.82-.57,1.15-1.6,1.28-2.56-.68-.16-1.24-.51-1.77-.95-1.06-.69-.56-2.22,.21-2.95,.89-.88,1.98-1.62,3.15-2.12,1.02-.46,2.01-1.02,3.14-1.23,.74-.29,1.49-.5,2.25-.71-.97,1.19-1.73,2.56-2.61,3.83-.88,1.69-1.86,3.38-2.18,5.29-.43,1.71-.14,3.5-.22,5.24v7.37h-40.51v-10.72"/>
      <path id="crown-6" data-name="crown" class="cls-2" d="M499.65,389.86c-.01-1.61-.61-3.14-1.18-4.62-1.03-2.26-2.36-4.39-3.84-6.39,1.43,.5,2.92,.87,4.32,1.43,1.21,.64,2.49,1.18,3.53,2.1,.56,.45,1.14,1,1.39,1.68,.06,.7,.02,1.51-.69,1.87-.44,.49-1.06,.71-1.67,.88,.08,.81,.46,1.57,.88,2.23,.79,.68,1.8,.94,2.83,.82,1.47-.18,2.78-1.09,3.54-2.35,.46-.69,.63-1.17,.97-.11,.44,.64,.99,1.26,1.59,1.77,1.03,.75,2.34,.96,3.58,.88,.75-.01,1.6-.21,2.2-.59,.71-.66,.64-1.82,.34-2.67-.37-.49-1.16-.71-1.78-.48-.58-.12-1.66,.71-1.05-.31,.1-.75,.65-1.4,1.16-1.92,.41-.39,1.09-.6,1.48-.72,.61-1.09,1.16-2.43,2.36-2.95,.95-.05,1.59,.89,2.12,1.58,.38,.46,.48,1.46,1.07,1.47,.86,.28,1.66,.91,2.02,1.75,.17,.37,1.01,1.68,.18,1.25-.66-.13-1.38-.35-2.03-.15-.71,.19-.93,.84-.89,1.52-.11,.88,.36,1.8,1.29,1.96,1.01,.33,2.14,.36,3.16,.15,.97-.16,1.87-.59,2.51-1.35,.62-.54,1.04-1.29,1.4-1.99,.56,1.01,1.24,2.12,2.33,2.66,1.23,.72,2.91,.88,4.16,.09,.82-.57,1.15-1.6,1.28-2.56-.68-.16-1.24-.51-1.77-.95-1.06-.69-.56-2.22,.21-2.95,.89-.88,1.98-1.62,3.15-2.12,1.02-.46,2.01-1.02,3.14-1.23,.74-.29,1.49-.5,2.25-.71-.97,1.19-1.73,2.56-2.61,3.83-.88,1.69-1.86,3.38-2.18,5.29-.43,1.71-.14,3.5-.22,5.24v7.37h-40.51v-10.72"/>
      <path id="crown-7" data-name="crown" class="cls-2" d="M469.07,418.28c-.01-1.61-.61-3.14-1.18-4.62-1.03-2.26-2.36-4.39-3.84-6.39,1.43,.5,2.92,.87,4.32,1.43,1.21,.64,2.49,1.18,3.53,2.1,.56,.45,1.14,1,1.39,1.68,.06,.7,.02,1.51-.69,1.87-.44,.49-1.06,.71-1.67,.88,.08,.81,.46,1.57,.88,2.23,.79,.68,1.8,.94,2.83,.82,1.47-.18,2.78-1.09,3.54-2.35,.46-.69,.63-1.17,.97-.11,.44,.64,.99,1.26,1.59,1.77,1.03,.75,2.34,.96,3.58,.88,.75-.01,1.6-.21,2.2-.59,.71-.66,.64-1.82,.34-2.67-.37-.49-1.16-.71-1.78-.48-.58-.12-1.66,.71-1.05-.31,.1-.75,.65-1.4,1.16-1.92,.41-.39,1.09-.6,1.48-.72,.61-1.09,1.16-2.43,2.36-2.95,.95-.05,1.59,.89,2.12,1.58,.38,.46,.48,1.46,1.07,1.47,.86,.28,1.66,.91,2.02,1.75,.17,.37,1.01,1.68,.18,1.25-.66-.13-1.38-.35-2.03-.15-.71,.19-.93,.84-.89,1.52-.11,.88,.36,1.8,1.29,1.96,1.01,.33,2.14,.36,3.16,.15,.97-.16,1.87-.59,2.51-1.35,.62-.54,1.04-1.29,1.4-1.99,.56,1.01,1.24,2.12,2.33,2.66,1.23,.72,2.91,.88,4.16,.09,.82-.57,1.15-1.6,1.28-2.56-.68-.16-1.24-.51-1.77-.95-1.06-.69-.56-2.22,.21-2.95,.89-.88,1.98-1.62,3.15-2.12,1.02-.46,2.01-1.02,3.14-1.23,.74-.29,1.49-.5,2.25-.71-.97,1.19-1.73,2.56-2.61,3.83-.88,1.69-1.86,3.38-2.18,5.29-.43,1.71-.14,3.5-.22,5.24v7.37h-40.51v-10.72"/>
    </g>
  </g>
</svg>