<?xml version="1.0" encoding="UTF-8"?>
<svg id="Layer_1" data-name="Layer 1" xmlns="http://www.w3.org/2000/svg" viewBox="0 0 600 450">
  <defs>
    <style>
      .cls-1 {
        fill: #010101;
      }

      .cls-2, .cls-3, .cls-4, .cls-5 {
        fill: #fbdd03;
      }

      .cls-6, .cls-7 {
        fill: #da1f27;
      }

      .cls-8 {
        fill: #0d73bb;
      }

      .cls-9 {
        fill: #fff;
      }

      .cls-9, .cls-3, .cls-10, .cls-7, .cls-11, .cls-4, .cls-12, .cls-5 {
        stroke: #010101;
      }

      .cls-9, .cls-3, .cls-7, .cls-11 {
        stroke-miterlimit: 10;
      }

      .cls-9, .cls-3, .cls-7, .cls-11, .cls-4, .cls-12 {
        stroke-width: .25px;
      }

      .cls-10 {
        fill: none;
      }

      .cls-10, .cls-5 {
        stroke-width: .5px;
      }

      .cls-11, .cls-12 {
        fill: #118943;
      }
    </style>
  </defs>
  <g id="senyera">
    <rect id="or" class="cls-2" x="195.99" y=".62" width="404.01" height="450"/>
    <rect id="barra_3" data-name="barra 3" class="cls-6" x="193" y="250.62" width="407" height="50"/>
    <rect id="barra_2" data-name="barra 2" class="cls-6" x="193" y="350.62" width="407" height="50"/>
    <rect id="barra_1" data-name="barra 1" class="cls-6" x="193" y="150.62" width="407" height="50"/>
    <rect id="barra_0" data-name="barra 0" class="cls-6" x="193" y="50.62" width="407" height="50"/>
  </g>
  <g>
    <rect id="tafatà" class="cls-8" y=".62" width="198" height="450"/>
    <g id="corona">
      <rect id="rect3959" class="cls-6" x="148.54" y=".62" width="49.77" height="450"/>
      <g id="florons">
        <g id="g3981">
          <path id="path3989" class="cls-5" d="M75.72,410.91s-20.39,45.26-29.51,23.57c0,0,2.64,1.02,4.62-1,1.77-1.83,1.59-3.53-.5-6.07-2.23-2.72-8.65-1.52-9.92,1.71-2.93,7.42,3.95,17.23,10.27,16.8,16.56-1.13,18.41-18.95,29.43-34.16,.66-.92-4.39-.84-4.39-.84h0Z"/>
        </g>
        <path id="path3993" class="cls-5" d="M76.06,358.76s-20.39-45.26-29.51-23.56c0,0,2.65-1.02,4.62,1.01,1.77,1.82,1.59,3.52-.5,6.06-2.24,2.71-8.65,1.52-9.93-1.71-2.93-7.42,3.95-17.23,10.27-16.8,16.56,1.13,18.41,18.95,29.43,34.16,.67,.92-4.39,.84-4.39,.84h0Z"/>
        <path id="path3997" class="cls-5" d="M144.58,369.41c-2.94,5.67-26.91,14.83-26.91,14.83,0,0,23.45,8.9,26.61,14.9l.29,8.77c-11.94-16.28-23.77-17.78-33-18.28-6.55-.35-5.93,3.49-4.73,5.02,10.71,13.69-3.11,17.57-5.24,28.89-.11,.57-1.71-1.92-2.23-5.2-.34-2.16,.33-5.34,.33-5.34-4.76,7.96-10.81,1.6-14.51,9.5,0,0-.77-1.26-1.15-1.63-1.06-1.01-4.47-.5-4.97-9.49-.02-.31-3.91,.72-3.91,.72,2.16-7.44,21.08-15.72,16.15-20.54-5.56-5.45-5.99,11.66-14.7,12.82-.5,.07,1.3-4.95,1.3-4.95-4.06,.23-5.87,4.95-6.34,7.73l-.95-2.58c-3.94-2.23,.95-13.38-.84-15.29-1.4-1.49-6.05,4.64-8.08,5.64-2.01,.99-13.41,.99-7.83,7.94,.44,.56-1.14-3.11,1.5-3.59,2.91-.53,2.81,2.89,2.8,3.23-.03,1.43-2.61,4.9-6.66,2.93-.23-.11-7.82-5.64,2.08-13.51,0,0-6.06,3.71-12.44-2.95-1.36-1.42-3.2-3.23-5.4-4.61,2.2-1.39,3.82-3.06,5.17-4.49,6.36-6.68,12.43-2.99,12.43-2.99-9.93-7.83-2.35-13.39-2.12-13.5,4.04-1.98,6.64,1.48,6.67,2.91,.01,.34,.12,3.76-2.79,3.23-2.63-.47-1.06-4.14-1.51-3.58-5.55,6.97,5.85,6.93,7.86,7.91,2.03,.99,6.71,7.13,8.1,5.63,1.78-1.91-3.15-13.08,.78-15.31l.95-2.58c.48,2.78,2.31,7.51,6.36,7.71,0,0-1.81-5.02-1.32-4.95,8.71,1.13,9.21,18.25,14.75,12.77,4.9-4.84-14.04-13.05-16.23-20.48,0,0,3.89,1.02,3.91,.7,.46-9,3.88-8.5,4.93-9.51,.39-.38,1.15-1.63,1.15-1.63,3.73,7.89,9.75,1.5,14.54,9.44,0,0-.68-3.18-.35-5.34,.5-3.27,2.1-5.77,2.21-5.2,2.17,11.31,15.99,15.15,5.34,28.87-1.19,1.54-1.8,5.38,4.75,5,9.23-.53,21.05-2.07,32.93-18.4l.3,8.82h0Z"/>
        <path id="path3999" class="cls-10" d="M70.64,404.57c1.29-11.07,10.61-14.67,10.4-20.08-.21-5.42-9.63-11.07-10.69-20.32m13.26,56.48c-7.35-15.29,16.24-20.38,15.46-36.15-.74-14.98-22.97-21.61-15.61-36.37m33.92,36.2l-81.62,.03"/>
        <path id="path4001" class="cls-5" d="M109.95,299.82c-2.58-7.17-10.14-9.11-14.42-9.25-4.82-.17-12.33,6.39-16.92,9.25-4.08,2.54-11.5-.8-12.68-3.67-2.62-6.43,1.51-7.67,3.47-7.29,0,0-2.43,4.64,1.62,4.04,2.55-.38,3.17-4.15,2.75-5.66-.83-3-5.06-2.67-6.75-2.17-5.5,1.63-4.58,9.31-2.75,12.25,2.71,4.38,9.51,5.05,13.84,4.41,6.55-.96,11.93-7.75,15.84-7.58,1.04,.04,2.1,3.65,1.08,3.83-6.62,1.21-5.75,5.92-5.75,5.92v.08s-.88,4.67,5.75,5.88c1.02,.19-.3,3.87-1.33,3.92-3.92,.17-9.04-6.71-15.59-7.67-4.33-.64-11.12,.04-13.84,4.41-1.83,2.94-2.75,10.63,2.75,12.25,1.7,.5,5.93,.83,6.75-2.17,.42-1.51-.21-5.29-2.75-5.66-4.04-.6-1.62,4.04-1.62,4.04-1.96,.37-6.09-.86-3.47-7.3,1.17-2.87,8.59-6.21,12.68-3.67,4.59,2.86,12.1,9.42,16.92,9.25,4.28-.15,11.84-2.08,14.42-9.25v-8.21h0Z"/>
        <path id="path4005" class="cls-5" d="M143.12,295.11c-.91,4.75-12.75,8.83-12.75,8.83,0,0,11.67,6.08,13.34,11.08l-.29,5.75c-3.75-12.94-18.32-13.94-18.32-13.94,3.06,4.38,5.81,10.44-1.63,16.44,0,0,2.18-5.59,1.06-6.94,0,0-1,3.5-5.19,6.75-1.74,1.35-6.38,1.13-8.5,2.38l1.81-5.69c-2.19,4.62-8.44,5.25-8.44,5.25-.36-1.58-.18-5.42,1.75-8.37,3.63-5.56,2.75-9.5,2.75-9.5-3.13,6.94-15.38,7.56-17.69,5.81-.31-.24,2.75-3.25,2.75-3.25-1.12,.18-4.19-2-4.13-2.63,.09-.88,2.13-2.81,2.5-3.37,0,0-2.32-1.91-2.41-2.79-.06-.63,3-2.81,4.12-2.62,0,0-3.06-3.01-2.75-3.25,2.32-1.75,14.56-1.12,17.69,5.82,0,0,.87-3.94-2.75-9.5-1.93-2.95-2.12-6.8-1.76-8.37,0,0,6.25,.63,8.44,5.25l-1.81-5.69c2.12,1.25,6.76,1.02,8.5,2.37,4.19,3.25,5.19,6.75,5.19,6.75,1.12-1.35-1.06-6.94-1.06-6.94,7.44,6,4.69,12.06,1.63,16.43,0,0,14.56-1,18.32-13.93l-.38,7.88h0Z"/>
        <path id="path4009" class="cls-5" d="M74.2,305.49c-4,.12-9.51,2.95-14.46,2.21-3.58-.54-10.05-4.79-10.05-4.79,0,0,6.51-3.38,9.75-4.13,5.29-1.22,10.63,3.41,14.63,3.5,.8,.02,.93,3.19,.13,3.21h0Z"/>
        <path id="path4013" class="cls-5" d="M74.3,297.4c2.23-.5,1.77,6.38,1.77,6.38,0,.95,.29,6-1.77,6.42-2.35-.29-1.73-6.46-1.73-6.46,0,0-.25-6.42,1.73-6.33h0Z"/>
        <path id="path4015" class="cls-5" d="M89.24,303.69l41.39,.29m-18.26,16.46l5.92-16.58m0,0l-5.79-16.29"/>
        <path id="path4017" class="cls-5" d="M76.06,250.24s-20.39,45.27-29.51,23.57c0,0,2.65,1.02,4.62-1.01,1.77-1.82,1.59-3.53-.5-6.07-2.24-2.71-8.65-1.52-9.93,1.71-2.93,7.42,3.95,17.23,10.27,16.8,16.56-1.13,18.41-18.95,29.43-34.16,.67-.92-4.39-.85-4.39-.85h0Z"/>
        <path id="path4021" class="cls-5" d="M76.39,198.09s-20.39-45.27-29.51-23.57c0,0,2.64-1.02,4.61,1.01,1.77,1.83,1.59,3.53-.5,6.07-2.24,2.71-8.65,1.52-9.93-1.71-2.93-7.42,3.95-17.23,10.27-16.8,16.56,1.13,18.41,18.96,29.43,34.16,.67,.92-4.39,.85-4.39,.85h0Z"/>
        <path id="path4025" class="cls-5" d="M144.91,208.74c-2.94,5.67-26.9,14.83-26.9,14.83,0,0,23.44,8.9,26.61,14.9l.29,8.77c-11.94-16.29-23.77-17.79-33-18.28-6.55-.35-5.93,3.49-4.73,5.02,10.71,13.68-3.1,17.57-5.24,28.89-.11,.57-1.71-1.92-2.23-5.2-.34-2.15,.33-5.34,.33-5.34-4.76,7.96-10.81,1.59-14.51,9.5,0,0-.76-1.26-1.15-1.63-1.06-1.01-4.47-.5-4.97-9.49-.02-.31-3.9,.71-3.9,.71,2.15-7.44,21.07-15.71,16.15-20.54-5.56-5.45-6,11.66-14.7,12.83-.5,.07,1.29-4.95,1.29-4.95-4.06,.22-5.86,4.95-6.33,7.73l-.96-2.57c-3.94-2.23,.95-13.38-.84-15.29-1.4-1.48-6.05,4.65-8.08,5.64-2.01,.99-13.41,.99-7.83,7.94,.44,.56-1.13-3.1,1.5-3.59,2.91-.54,2.81,2.89,2.8,3.23-.02,1.43-2.61,4.9-6.66,2.93-.23-.11-7.82-5.64,2.08-13.51,0,0-6.06,3.72-12.43-2.94-1.36-1.43-3.2-3.23-5.4-4.61,2.2-1.39,3.81-3.06,5.17-4.49,6.36-6.68,12.43-2.99,12.43-2.99-9.93-7.83-2.36-13.39-2.12-13.5,4.04-1.98,6.64,1.48,6.67,2.91,.01,.34,.12,3.76-2.79,3.24-2.63-.47-1.06-4.14-1.51-3.59-5.55,6.98,5.85,6.93,7.86,7.92,2.03,.99,6.71,7.13,8.1,5.64,1.78-1.91-3.15-13.08,.78-15.32l.95-2.58c.48,2.77,2.31,7.5,6.36,7.71,0,0-1.81-5.02-1.31-4.95,8.7,1.14,9.2,18.25,14.74,12.77,4.9-4.85-14.04-13.05-16.22-20.48,0,0,3.89,1.01,3.91,.7,.46-9,3.88-8.5,4.93-9.51,.39-.37,1.14-1.63,1.14-1.63,3.73,7.89,9.75,1.5,14.54,9.44,0,0-.68-3.18-.35-5.34,.5-3.28,2.1-5.77,2.21-5.21,2.17,11.31,15.99,15.15,5.34,28.87-1.19,1.53-1.8,5.37,4.75,5,9.23-.53,21.05-2.07,32.93-18.4l.3,8.82h0Z"/>
        <path id="path4027" class="cls-10" d="M70.97,243.9c1.29-11.07,10.61-14.66,10.4-20.08-.21-5.41-9.63-11.07-10.69-20.32m13.26,56.49c-7.35-15.29,16.24-20.38,15.46-36.15-.74-14.98-22.97-21.61-15.61-36.37m33.93,36.2l-81.62,.03"/>
        <path id="path4029" class="cls-5" d="M75.39,91.24s-20.39,45.27-29.51,23.57c0,0,2.64,1.02,4.62-1,1.77-1.82,1.59-3.53-.5-6.07-2.24-2.71-8.65-1.52-9.93,1.71-2.93,7.42,3.96,17.23,10.28,16.8,16.56-1.13,18.41-18.96,29.43-34.16,.67-.92-4.39-.84-4.39-.84h0Z"/>
        <g id="g4033">
          <path id="path4041" class="cls-5" d="M75.72,39.09S55.34-6.18,46.21,15.52c0,0,2.64-1.02,4.62,1.01,1.77,1.82,1.59,3.53-.5,6.07-2.23,2.72-8.65,1.52-9.92-1.71-2.93-7.42,3.95-17.23,10.27-16.8,16.56,1.13,18.41,18.96,29.43,34.16,.67,.92-4.39,.84-4.39,.84h0Z"/>
        </g>
        <path id="path4045" class="cls-5" d="M144.24,49.74c-2.94,5.67-26.9,14.83-26.9,14.83,0,0,23.44,8.9,26.61,14.9l.29,8.77c-11.94-16.29-23.77-17.79-33-18.28-6.55-.35-5.93,3.49-4.73,5.01,10.71,13.69-3.1,17.57-5.24,28.9-.1,.56-1.71-1.92-2.23-5.2-.34-2.15,.33-5.34,.33-5.34-4.76,7.96-10.81,1.59-14.5,9.49,0,0-.77-1.25-1.15-1.62-1.06-1.01-4.47-.5-4.97-9.49-.02-.31-3.91,.72-3.91,.72,2.16-7.44,21.07-15.71,16.15-20.54-5.56-5.46-5.99,11.66-14.7,12.83-.5,.06,1.29-4.96,1.29-4.96-4.06,.23-5.87,4.96-6.34,7.74l-.95-2.58c-3.94-2.22,.95-13.38-.84-15.29-1.4-1.49-6.05,4.64-8.08,5.64-2.01,.99-13.41,.99-7.82,7.94,.44,.56-1.14-3.11,1.49-3.59,2.92-.53,2.81,2.89,2.81,3.23-.03,1.43-2.61,4.9-6.66,2.94-.24-.11-7.82-5.65,2.07-13.51,0,0-6.06,3.72-12.43-2.95-1.36-1.43-3.2-3.23-5.41-4.61,2.2-1.39,3.81-3.06,5.18-4.49,6.36-6.68,12.42-2.99,12.42-2.99-9.93-7.83-2.35-13.39-2.13-13.5,4.05-1.98,6.65,1.48,6.68,2.91,.01,.34,.12,3.76-2.79,3.23-2.63-.47-1.07-4.13-1.51-3.58-5.55,6.97,5.84,6.93,7.86,7.91,2.03,.99,6.71,7.13,8.1,5.64,1.79-1.91-3.15-13.08,.79-15.32l.95-2.58c.48,2.78,2.31,7.5,6.36,7.71,0,0-1.81-5.01-1.32-4.95,8.71,1.13,9.21,18.24,14.75,12.77,4.9-4.85-14.04-13.05-16.23-20.48,0,0,3.89,1.01,3.91,.7,.46-9,3.88-8.5,4.93-9.51,.39-.37,1.15-1.63,1.15-1.63,3.73,7.89,9.75,1.5,14.54,9.44,0,0-.68-3.18-.35-5.34,.5-3.28,2.1-5.77,2.21-5.2,2.18,11.31,15.99,15.15,5.34,28.87-1.19,1.53-1.8,5.38,4.75,5,9.23-.53,21.05-2.08,32.93-18.4l.29,8.82h0Z"/>
        <path id="path4047" class="cls-10" d="M70.31,84.9c1.29-11.06,10.61-14.67,10.4-20.08-.22-5.42-9.63-11.07-10.69-20.32m13.26,56.49c-7.35-15.28,16.24-20.38,15.46-36.15-.74-14.98-22.98-21.6-15.6-36.36m33.92,36.2l-81.63,.03"/>
        <path id="path4049" class="cls-5" d="M109.61,140.15c-2.58-7.17-10.14-9.1-14.42-9.25-4.82-.16-12.33,6.39-16.92,9.25-4.08,2.54-11.5-.79-12.67-3.67-2.62-6.43,1.5-7.67,3.46-7.29,0,0-2.42,4.63,1.62,4.04,2.55-.37,3.17-4.15,2.75-5.66-.82-3-5.05-2.67-6.75-2.17-5.49,1.63-4.58,9.31-2.75,12.25,2.71,4.38,9.51,5.05,13.84,4.41,6.54-.96,11.93-7.74,15.84-7.58,1.04,.04,2.1,3.64,1.08,3.83-6.62,1.21-5.75,5.92-5.75,5.92v.09s-.88,4.66,5.75,5.87c1.02,.19-.3,3.87-1.33,3.92-3.91,.16-9.04-6.71-15.58-7.67-4.33-.64-11.12,.04-13.84,4.42-1.83,2.94-2.74,10.63,2.75,12.25,1.7,.5,5.93,.84,6.75-2.16,.42-1.52-.2-5.29-2.75-5.67-4.04-.59-1.62,4.04-1.62,4.04-1.96,.38-6.08-.86-3.46-7.29,1.17-2.88,8.59-6.21,12.67-3.67,4.59,2.86,12.11,9.42,16.92,9.25,4.28-.15,11.83-2.09,14.42-9.25v-8.22h0Z"/>
        <path id="path4053" class="cls-5" d="M142.79,135.45c-.92,4.75-12.75,8.83-12.75,8.83,0,0,11.67,6.08,13.34,11.08l-.29,5.75c-3.75-12.94-18.32-13.94-18.32-13.94,3.06,4.38,5.82,10.44-1.62,16.44,0,0,2.18-5.58,1.06-6.94,0,0-1,3.5-5.19,6.75-1.74,1.36-6.38,1.13-8.5,2.38l1.81-5.69c-2.19,4.62-8.44,5.25-8.44,5.25-.36-1.58-.18-5.42,1.75-8.38,3.62-5.56,2.75-9.5,2.75-9.5-3.13,6.94-15.38,7.56-17.69,5.82-.32-.24,2.75-3.25,2.75-3.25-1.12,.19-4.19-2-4.13-2.63,.09-.88,2.12-2.81,2.5-3.37,0,0-2.33-1.91-2.42-2.79-.06-.63,3-2.81,4.13-2.62,0,0-3.06-3.01-2.75-3.25,2.31-1.75,14.56-1.12,17.7,5.82,0,0,.88-3.94-2.75-9.5-1.93-2.95-2.11-6.8-1.75-8.37,0,0,6.25,.63,8.44,5.25l-1.81-5.69c2.12,1.25,6.76,1.02,8.5,2.37,4.19,3.25,5.19,6.75,5.19,6.75,1.12-1.35-1.06-6.94-1.06-6.94,7.44,6,4.69,12.06,1.63,16.44,0,0,14.56-1,18.32-13.94l-.37,7.88h0Z"/>
        <path id="path4057" class="cls-5" d="M73.87,145.82c-4,.12-9.51,2.95-14.46,2.21-3.58-.54-10.05-4.79-10.05-4.79,0,0,6.5-3.37,9.75-4.12,5.29-1.22,10.63,3.42,14.63,3.5,.8,.02,.93,3.18,.13,3.21h0Z"/>
        <path id="path4061" class="cls-5" d="M73.97,137.74c2.23-.5,1.77,6.37,1.77,6.37,0,.96,.29,6-1.77,6.41-2.36-.29-1.73-6.46-1.73-6.46,0,0-.25-6.41,1.73-6.33h0Z"/>
        <path id="path4063" class="cls-5" d="M88.91,144.03l41.38,.29m-18.26,16.46l5.92-16.58m0,0l-5.79-16.29"/>
        <path id="path4065" class="cls-5" d="M144.04,351.87c-4.06-11-18.95-9.82-18.95-9.82,0,0,14.82,.13,18.57-12.81l.38,22.63Z"/>
        <path id="path4069" class="cls-5" d="M144.04,417.87c-4.06,11-18.95,9.81-18.95,9.81,0,0,14.82-.13,18.57,12.81l.38-22.63Z"/>
        <path id="path4073" class="cls-5" d="M109.9,427.99s6.1,4.87,10.15,3.94c0,0-4.69,4.57-.81,8.12,0,0,1.19-4.69,6.81-5.56,4.73-.73,6.64-4.63,6.57-6.5v.06c.08-1.87-1.84-5.77-6.57-6.5-5.63-.88-6.81-5.56-6.81-5.56-3.87,3.56,.81,8.12,.81,8.12-4.06-.94-10.15,3.87-10.15,3.87h0Z"/>
        <path id="path4077" class="cls-5" d="M143.54,256.37c-4.06,11-18.94,9.82-18.94,9.82,0,0,14.81-.13,18.56,12.81l.38-22.63Z"/>
        <path id="path4081" class="cls-5" d="M144.04,192.37c-4.06-11-18.95-9.81-18.95-9.81,0,0,14.82,.13,18.57-12.81l.38,22.62Z"/>
        <path id="path4085" class="cls-5" d="M144.04,95.87c-4.06,11-18.95,9.81-18.95,9.81,0,0,14.82-.12,18.57,12.81l.38-22.62Z"/>
        <path id="path4089" class="cls-5" d="M144.04,32.37c-4.06-11-18.95-9.81-18.95-9.81,0,0,14.82,.13,18.57-12.81l.38,22.62Z"/>
        <g id="rect4093">
          <rect class="cls-2" x="143.04" y="-.13" width="5.5" height="451.5"/>
          <path class="cls-1" d="M148.29,.12V451.12h-5V.12h5m.5-.5h-6V451.62h6V-.38h0Z"/>
        </g>
        <path id="path4105" class="cls-5" d="M110.23,341.33s6.1,4.87,10.16,3.94c0,0-4.69,4.57-.81,8.12,0,0,1.19-4.69,6.81-5.56,4.72-.73,6.64-4.63,6.56-6.5v.06c.07-1.87-1.84-5.77-6.56-6.5-5.63-.87-6.81-5.56-6.81-5.56-3.88,3.56,.81,8.12,.81,8.12-4.06-.94-10.16,3.88-10.16,3.88h0Z"/>
        <path id="path4109" class="cls-5" d="M109.9,266.33s6.1,4.87,10.16,3.94c0,0-4.69,4.57-.82,8.12,0,0,1.19-4.69,6.82-5.56,4.72-.73,6.64-4.63,6.56-6.5v.06c.08-1.87-1.84-5.77-6.56-6.5-5.63-.88-6.82-5.57-6.82-5.57-3.87,3.56,.82,8.13,.82,8.13-4.06-.94-10.16,3.88-10.16,3.88h0Z"/>
        <path id="path4113" class="cls-5" d="M110.23,182.66s6.1,4.87,10.16,3.93c0,0-4.69,4.57-.81,8.12,0,0,1.19-4.69,6.81-5.56,4.72-.73,6.64-4.63,6.56-6.5v.06c.07-1.87-1.84-5.77-6.56-6.5-5.63-.87-6.81-5.56-6.81-5.56-3.88,3.57,.81,8.12,.81,8.12-4.06-.94-10.16,3.88-10.16,3.88h0Z"/>
        <path id="path4117" class="cls-5" d="M110.23,105.66s6.1,4.87,10.16,3.93c0,0-4.69,4.57-.81,8.12,0,0,1.19-4.69,6.81-5.56,4.72-.73,6.64-4.63,6.56-6.5v.06c.07-1.87-1.84-5.77-6.56-6.5-5.63-.88-6.81-5.56-6.81-5.56-3.88,3.56,.81,8.12,.81,8.12-4.06-.94-10.16,3.87-10.16,3.87h0Z"/>
        <path id="path4121" class="cls-5" d="M110.56,22.32s6.1,4.88,10.16,3.94c0,0-4.69,4.56-.81,8.12,0,0,1.19-4.69,6.81-5.56,4.72-.74,6.64-4.63,6.57-6.5v.06c.07-1.87-1.84-5.77-6.57-6.5-5.63-.88-6.81-5.56-6.81-5.56-3.88,3.56,.81,8.12,.81,8.12-4.06-.94-10.16,3.87-10.16,3.87h0Z"/>
      </g>
      <g id="perles">
        <path id="path3961" class="cls-9" d="M179.41,425.78c0,4.14-3.36,7.5-7.5,7.5s-7.5-3.36-7.5-7.5,3.36-7.5,7.5-7.5c4.15,0,7.5,3.35,7.5,7.5h0Z"/>
        <path id="path3965" class="cls-9" d="M179.41,325.78c0,4.14-3.36,7.5-7.5,7.5s-7.5-3.36-7.5-7.5,3.36-7.5,7.5-7.5c4.15,0,7.5,3.36,7.5,7.5h0Z"/>
        <path id="path3969" class="cls-9" d="M179.41,225.79c0,4.14-3.36,7.5-7.5,7.5s-7.5-3.36-7.5-7.5,3.36-7.5,7.5-7.5c4.15,0,7.5,3.36,7.5,7.5h0Z"/>
        <path id="path3973" class="cls-9" d="M179.41,125.79c0,4.14-3.36,7.5-7.5,7.5s-7.5-3.36-7.5-7.5,3.36-7.5,7.5-7.5c4.15,0,7.5,3.36,7.5,7.5h0Z"/>
        <path id="path3977" class="cls-9" d="M179.41,25.79c0,4.15-3.36,7.5-7.5,7.5s-7.5-3.36-7.5-7.5,3.36-7.5,7.5-7.5c4.15,0,7.5,3.36,7.5,7.5h0Z"/>
        <g>
          <polygon id="polygon4165" class="cls-3" points="159.46 76.21 171.88 63.79 184.3 76.21 171.88 88.63 159.46 76.21"/>
          <polygon id="polygon4169" class="cls-7" points="160.38 76.3 164.12 80.04 168.04 80.04 168.04 83.96 171.79 87.71 171.97 87.71 175.72 83.96 175.72 80.04 179.64 80.04 183.38 76.3 183.38 76.12 179.64 72.38 175.72 72.38 175.72 68.45 171.97 64.7 171.79 64.7 168.04 68.45 168.04 72.38 164.12 72.38 160.38 76.12 160.38 76.3"/>
          <path id="path4173" class="cls-3" d="M166.67,66.31c.56,.56-.03,2.06-1.32,3.35-1.29,1.28-2.78,1.88-3.35,1.31-.56-.56,.03-2.06,1.32-3.35,1.29-1.28,2.78-1.88,3.34-1.32h0Z"/>
          <path id="path4177" class="cls-3" d="M177.11,66.31c-.56,.56,.03,2.06,1.32,3.35,1.29,1.28,2.78,1.88,3.35,1.31,.56-.56-.03-2.06-1.32-3.35-1.29-1.28-2.79-1.88-3.35-1.32h0Z"/>
          <path id="path4181" class="cls-3" d="M177.11,86.08c-.56-.56,.03-2.06,1.32-3.35,1.29-1.29,2.79-1.88,3.35-1.32,.56,.56-.03,2.06-1.32,3.35-1.29,1.29-2.79,1.88-3.35,1.32h0Z"/>
          <path id="path4185" class="cls-3" d="M166.67,86.08c-.56,.56-2.06-.03-3.35-1.32-1.29-1.29-1.88-2.79-1.32-3.35,.56-.56,2.06,.04,3.35,1.32,1.29,1.29,1.88,2.79,1.32,3.35h0Z"/>
          <path id="path4189" class="cls-3" d="M167.96,62.05c0-.64,1.45-1.24,3.11-1.4,.34-.03,.82-.45,.82-.45,0,0,.48,.42,.74,.45,1.8,.13,3.23,.72,3.23,1.4,0,.78-1.77,1.4-3.95,1.4-2.18,0-3.95-.63-3.95-1.4h0Z"/>
          <path id="path4193" class="cls-3" d="M175.86,90.37c0,.64-1.44,1.24-3.11,1.4-.34,.03-.82,.44-.82,.44,0,0-.48-.43-.74-.44-1.8-.14-3.24-.73-3.24-1.4,0-.78,1.77-1.4,3.96-1.4,2.18,0,3.95,.62,3.95,1.4h0Z"/>
          <path id="path4197" class="cls-3" d="M157.75,80.16c-.65,0-1.24-1.45-1.4-3.11-.03-.34-.44-.82-.44-.82,0,0,.43-.48,.44-.74,.13-1.8,.72-3.24,1.4-3.24,.78,0,1.4,1.77,1.4,3.95,0,2.18-.63,3.96-1.4,3.96h0Z"/>
          <path id="path4201" class="cls-3" d="M186.07,72.26c.65,0,1.24,1.45,1.4,3.11,.03,.34,.45,.82,.45,.82,0,0-.43,.48-.45,.74-.13,1.8-.72,3.24-1.4,3.24-.77,0-1.4-1.77-1.4-3.95,0-2.18,.62-3.95,1.4-3.95h0Z"/>
        </g>
        <g>
          <path id="path4205" class="cls-3" d="M169.66,192.95c0,1.24,1.01,2.25,2.25,2.25s2.25-1.01,2.25-2.25-1.01-2.25-2.25-2.25c-1.24,0-2.25,1-2.25,2.25h0Z"/>
          <path id="path4209" class="cls-3" d="M169.66,157.7c0,1.24,1.01,2.25,2.25,2.25s2.25-1.01,2.25-2.25-1.01-2.25-2.25-2.25-2.25,1.01-2.25,2.25h0Z"/>
          <path id="path4213" class="cls-3" d="M180.24,175.37c0,8.18-3.74,14.82-8.36,14.82s-8.36-6.63-8.36-14.82,3.75-14.82,8.36-14.82,8.36,6.64,8.36,14.82h0Z"/>
          <path id="path4217" class="cls-11" d="M178.93,175.23c0-6.99-2.75-12.74-6.29-13.43-.24-.05-.73,.88-.73,.88,0,0-.47-.92-.71-.88-3.53,.7-6.28,6.45-6.28,13.43v.14c0,6.99,2.75,12.74,6.29,13.43,.24,.04,.74-.88,.74-.88,0,0,.47,.92,.71,.87,3.53-.7,6.27-6.44,6.27-13.42v-.14h0Z"/>
          <path id="path4221" class="cls-3" d="M182.87,175.37c0-.62-.5-1.13-1.12-1.13s-1.12,.5-1.12,1.13,.5,1.12,1.12,1.12c.62,0,1.12-.5,1.12-1.12h0Z"/>
          <path id="path4225" class="cls-3" d="M163.13,175.37c0-.62-.5-1.13-1.13-1.13s-1.12,.5-1.12,1.13,.5,1.12,1.12,1.12c.62,0,1.13-.5,1.13-1.12h0Z"/>
          <path id="path4229" class="cls-3" d="M179.07,188.46c0-.63-.5-1.13-1.12-1.13s-1.12,.5-1.12,1.13,.5,1.12,1.12,1.12c.62,0,1.12-.5,1.12-1.12h0Z"/>
          <path id="path4233" class="cls-3" d="M166.92,188.46c0-.63-.5-1.13-1.12-1.13s-1.12,.5-1.12,1.13,.5,1.12,1.12,1.12c.62,0,1.12-.5,1.12-1.12h0Z"/>
          <path id="path4237" class="cls-3" d="M163.9,182.21c0-1.24-1.01-2.25-2.25-2.25s-2.25,1.01-2.25,2.25,1.01,2.25,2.25,2.25,2.25-1.01,2.25-2.25h0Z"/>
          <path id="path4241" class="cls-3" d="M184.41,182.14c0-1.24-1.01-2.25-2.25-2.25s-2.25,1.01-2.25,2.25,1.01,2.24,2.25,2.24,2.25-1.01,2.25-2.24h0Z"/>
          <path id="path4245" class="cls-3" d="M164.74,162.19c0,.63,.5,1.13,1.13,1.13s1.12-.5,1.12-1.13-.5-1.12-1.12-1.12c-.62,0-1.13,.5-1.13,1.12h0Z"/>
          <path id="path4249" class="cls-3" d="M176.89,162.19c0,.63,.5,1.13,1.12,1.13s1.13-.5,1.13-1.13-.5-1.12-1.13-1.12c-.62,0-1.12,.5-1.12,1.12h0Z"/>
          <path id="path4253" class="cls-3" d="M179.92,168.44c0,1.24,1.01,2.25,2.25,2.25s2.25-1.01,2.25-2.25-1.01-2.25-2.25-2.25-2.25,1.01-2.25,2.25h0Z"/>
          <path id="path4257" class="cls-3" d="M159.4,168.51c0,1.24,1.01,2.25,2.25,2.25s2.25-1.01,2.25-2.25-1.01-2.25-2.25-2.25-2.25,1.01-2.25,2.25h0Z"/>
        </g>
        <g>
          <path id="path4261" class="cls-4" d="M169.66,391.35c0,1.24,1.01,2.25,2.25,2.25s2.25-1.01,2.25-2.25-1.01-2.25-2.25-2.25-2.25,1.01-2.25,2.25h0Z"/>
          <path id="path4265" class="cls-4" d="M169.66,356.1c0,1.24,1.01,2.25,2.25,2.25s2.25-1.01,2.25-2.25-1.01-2.25-2.25-2.25-2.25,1-2.25,2.25h0Z"/>
          <path id="path4269" class="cls-4" d="M180.24,373.78c0,8.18-3.74,14.82-8.36,14.82s-8.36-6.64-8.36-14.82,3.75-14.82,8.36-14.82,8.36,6.63,8.36,14.82h0Z"/>
          <path id="path4273" class="cls-12" d="M178.93,373.63c0-6.99-2.75-12.73-6.29-13.42-.24-.05-.73,.88-.73,.88,0,0-.47-.92-.71-.88-3.53,.7-6.28,6.45-6.28,13.42v.15c0,6.99,2.75,12.73,6.29,13.43,.24,.04,.74-.88,.74-.88,0,0,.47,.92,.71,.87,3.52-.7,6.27-6.45,6.27-13.42v-.15h0Z"/>
          <path id="path4277" class="cls-4" d="M182.87,373.78c0-.62-.5-1.13-1.12-1.13s-1.12,.51-1.12,1.13,.5,1.12,1.12,1.12c.62,0,1.12-.5,1.12-1.12h0Z"/>
          <path id="path4281" class="cls-4" d="M163.13,373.78c0-.62-.5-1.13-1.13-1.13s-1.12,.51-1.12,1.13,.5,1.12,1.12,1.12c.62,0,1.13-.5,1.13-1.12h0Z"/>
          <path id="path4285" class="cls-4" d="M179.07,386.86c0-.62-.5-1.12-1.12-1.12s-1.12,.5-1.12,1.12,.5,1.12,1.12,1.12c.62,0,1.12-.5,1.12-1.12h0Z"/>
          <path id="path4289" class="cls-4" d="M166.92,386.86c0-.62-.5-1.12-1.12-1.12s-1.12,.5-1.12,1.12,.5,1.12,1.12,1.12c.62,0,1.12-.5,1.12-1.12h0Z"/>
          <path id="path4293" class="cls-4" d="M163.9,380.61c0-1.24-1.01-2.25-2.25-2.25s-2.25,1.01-2.25,2.25,1.01,2.24,2.25,2.24,2.25-1,2.25-2.24h0Z"/>
          <path id="path4297" class="cls-4" d="M184.41,380.54c0-1.24-1.01-2.25-2.25-2.25s-2.25,1.01-2.25,2.25,1.01,2.25,2.25,2.25,2.25-1.01,2.25-2.25h0Z"/>
          <path id="path4301" class="cls-4" d="M164.74,360.6c0,.62,.5,1.12,1.13,1.12s1.12-.5,1.12-1.12-.5-1.12-1.12-1.12c-.62,0-1.13,.5-1.13,1.12h0Z"/>
          <path id="path4305" class="cls-4" d="M176.89,360.6c0,.62,.5,1.12,1.12,1.12s1.13-.5,1.13-1.12-.5-1.12-1.13-1.12c-.62,0-1.12,.5-1.12,1.12h0Z"/>
          <path id="path4309" class="cls-4" d="M179.92,366.85c0,1.24,1.01,2.25,2.25,2.25s2.25-1.01,2.25-2.25-1.01-2.25-2.25-2.25-2.25,1.01-2.25,2.25h0Z"/>
          <path id="path4313" class="cls-4" d="M159.4,366.92c0,1.24,1.01,2.25,2.25,2.25s2.25-1.01,2.25-2.25-1.01-2.24-2.25-2.24c-1.25,0-2.25,1-2.25,2.24h0Z"/>
        </g>
        <g>
          <polygon id="rect4125" class="cls-4" points="184.32 275.93 171.9 288.35 159.48 275.94 171.9 263.52 184.32 275.93"/>
          <polygon id="polygon4129" class="cls-7" points="160.38 276.13 164.12 279.88 168.05 279.88 168.05 283.8 171.79 287.54 171.97 287.54 175.72 283.8 175.72 279.88 179.64 279.88 183.38 276.13 183.38 275.95 179.64 272.21 175.72 272.21 175.72 268.29 171.97 264.54 171.79 264.54 168.05 268.29 168.05 272.21 164.12 272.21 160.38 275.95 160.38 276.13"/>
          <path id="path4133" class="cls-4" d="M166.66,266.15c.56,.56-.03,2.06-1.32,3.34-1.29,1.29-2.78,1.88-3.35,1.32-.56-.56,.03-2.06,1.32-3.35,1.29-1.29,2.79-1.88,3.34-1.32h0Z"/>
          <path id="path4137" class="cls-4" d="M177.1,266.15c.56-.56,2.06,.03,3.35,1.32,1.29,1.29,1.88,2.79,1.32,3.35-.56,.56-2.06-.03-3.35-1.32-1.29-1.29-1.88-2.78-1.32-3.34h0Z"/>
          <path id="path4141" class="cls-4" d="M177.09,285.91c-.56-.56,.04-2.06,1.32-3.35,1.28-1.29,2.78-1.88,3.35-1.32,.56,.56-.04,2.06-1.32,3.34-1.29,1.29-2.78,1.88-3.35,1.32h0Z"/>
          <path id="path4145" class="cls-4" d="M166.69,285.92c-.56,.56-2.06-.03-3.35-1.32-1.28-1.29-1.88-2.79-1.32-3.34,.56-.56,2.06,.03,3.35,1.32,1.29,1.29,1.88,2.79,1.32,3.35h0Z"/>
          <path id="path4149" class="cls-4" d="M167.96,261.89c0-.64,1.45-1.23,3.11-1.4,.34-.03,.82-.44,.82-.44,0,0,.48,.42,.74,.44,1.8,.13,3.23,.72,3.23,1.4,0,.77-1.77,1.4-3.95,1.4-2.18,0-3.95-.63-3.95-1.4h0Z"/>
          <path id="path4153" class="cls-4" d="M175.86,290.2c0,.64-1.44,1.23-3.11,1.4-.34,.03-.82,.44-.82,.44,0,0-.48-.42-.74-.44-1.8-.13-3.24-.72-3.24-1.4,0-.78,1.77-1.4,3.96-1.4s3.95,.62,3.95,1.4h0Z"/>
          <path id="path4157" class="cls-4" d="M157.75,279.99c-.65,0-1.24-1.45-1.4-3.11-.03-.34-.44-.82-.44-.82,0,0,.43-.48,.44-.74,.13-1.8,.72-3.24,1.4-3.24,.78,0,1.4,1.77,1.4,3.95,0,2.18-.63,3.95-1.4,3.95h0Z"/>
          <path id="path4161" class="cls-4" d="M186.07,272.09c.65,0,1.24,1.44,1.4,3.11,.03,.34,.45,.82,.45,.82,0,0-.43,.48-.45,.74-.13,1.8-.72,3.24-1.4,3.24-.77,0-1.4-1.77-1.4-3.95,0-2.18,.62-3.95,1.4-3.95h0Z"/>
        </g>
      </g>
    </g>
  </g>
</svg>