<svg xmlns="http://www.w3.org/2000/svg" height="480" width="640" version="1">
  <g fill-rule="evenodd" clip-path="url(#a)" transform="matrix(.938 0 0 .938 57.48 0)">
    <path fill="#ffc621" d="M-237.99 3.499h1037.9v498h-1037.9z"/>
    <path fill="#ef2118" d="M-240 342.5h1039.3v169.5h-1039.3z"/>
    <path fill="#298c08" d="M-237.99 0h1038v180h-1038z"/>
    <ellipse cx="534.22" rx="199.65" cy="352.97" transform="matrix(.539 0 0 .539 -25.807 73.951)" ry="199.65" fill="#006bc6"/>
    <path d="M214.25 188.2l-6.432 4.522 23.494 33.021 6.267-3.996-23.329-33.546zm29.41 77.942l-9.661-6.736 3.992-12.676-48.122.672-13.929-10.664 65.691-.708 12.183-36.908 6.544 14.924-16.699 52.098zm76.522-70.679l-6.254-4.765-24.378 32.374 5.703 4.766 24.929-32.375zm-65.412 51.587l3.503-11.245 13.29-.024-15.182-45.67 5.958-16.5 20.524 62.407 38.864.46-12.248 10.748-54.709-.176zm90.672 51.165l2.615-7.415-38.295-13.262-2.785 6.891 38.465 13.786zm-69.179-46.416l11.777-.119 4.104 12.641 38.803-28.469 17.532.604-53.092 38.693 11.493 37.128-13.989-8.357-16.629-52.12zm-19.749 102.08l7.862.115.363-40.524-7.419-.443-.806 40.853zm21.944-80.365l3.867 11.125-10.673 7.918 39.353 27.705 5.016 16.81-53.597-37.989-31.528 22.728 3.462-15.923 44.101-32.375zm-103.27 12.986l2.325 7.511 38.646-12.203-1.876-7.192-39.094 11.884zm83.21-4.02l-9.38 7.121-10.835-7.696-14.157 45.997-14.431 9.975 19.525-62.727-31.375-22.94 16.213-1.639 44.44 31.908z" fill="#ffc621"/>
  </g>
</svg>
