<?xml version="1.0" encoding="utf-8"?>
<!-- Generator: Adobe Illustrator 17.1.0, SVG Export Plug-In . SVG Version: 6.00 Build 0)  -->
<!DOCTYPE svg PUBLIC "-//W3C//DTD SVG 1.1//EN" "http://www.w3.org/Graphics/SVG/1.1/DTD/svg11.dtd">
<svg version="1.1"
	 id="svg548" xmlns:cc="http://creativecommons.org/ns#" xmlns:rdf="http://www.w3.org/1999/02/22-rdf-syntax-ns#" xmlns:dc="http://purl.org/dc/elements/1.1/"
	 xmlns="http://www.w3.org/2000/svg" xmlns:xlink="http://www.w3.org/1999/xlink" x="0px" y="0px" viewBox="0 0 640 480"
	 enable-background="new 0 0 640 480" xml:space="preserve">
<rect fill="#003399" stroke="#000000" stroke-miterlimit="10" width="640" height="480"/>
<polygon fill="#FFCC00" points="201.2,75.3 221.8,75.3 228.3,55.8 234.7,75.3 255.3,75.3 238.9,87.6 245.1,107.1 228.3,95.2 
	211.4,107.1 217.9,87.6 "/>
<polygon fill="#FFCC00" points="288.9,51.3 309.6,51.3 316,31.8 322.4,51.3 343.1,51.3 326.7,63.6 332.8,83.1 316,71.2 299.2,83.1 
	305.6,63.6 "/>
<polygon fill="#FFCC00" points="377.7,75.3 398.3,75.3 404.8,55.8 411.2,75.3 431.8,75.3 415.4,87.6 421.6,107.1 404.8,95.2 
	387.9,107.1 394.4,87.6 "/>
<polygon fill="#FFCC00" points="442.2,139.3 462.8,139.3 469.3,119.8 475.7,139.3 496.3,139.3 479.9,151.6 486.1,171.1 469.3,159.2 
	452.4,171.1 458.9,151.6 "/>
<polygon fill="#FFCC00" points="466.2,227.3 486.8,227.3 493.3,207.8 499.7,227.3 520.3,227.3 503.9,239.6 510.1,259.1 493.3,247.2 
	476.4,259.1 482.9,239.6 "/>
<polygon fill="#FFCC00" points="442.2,316.3 462.8,316.3 469.3,296.8 475.7,316.3 496.3,316.3 479.9,328.6 486.1,348.1 469.3,336.2 
	452.4,348.1 458.9,328.6 "/>
<polygon fill="#FFCC00" points="377.7,380.8 398.3,380.8 404.8,361.3 411.2,380.8 431.8,380.8 415.4,393.1 421.6,412.6 404.8,400.7 
	387.9,412.6 394.4,393.1 "/>
<polygon fill="#FFCC00" points="289.9,404.3 310.6,404.3 317,384.8 323.4,404.3 344.1,404.3 327.7,416.6 333.8,436.1 317,424.2 
	300.2,436.1 306.6,416.6 "/>
<polygon fill="#FFCC00" points="201.2,380.8 221.8,380.8 228.3,361.3 234.7,380.8 255.3,380.8 238.9,393.1 245.1,412.6 228.3,400.7 
	211.4,412.6 217.9,393.1 "/>
<polygon fill="#FFCC00" points="136.7,316.3 157.3,316.3 163.8,296.8 170.2,316.3 190.8,316.3 174.4,328.6 180.6,348.1 163.8,336.2 
	146.9,348.1 153.4,328.6 "/>
<polygon fill="#FFCC00" points="112.7,228.3 133.3,228.3 139.8,208.8 146.2,228.3 166.8,228.3 150.4,240.6 156.6,260.1 139.8,248.2 
	122.9,260.1 129.4,240.6 "/>
<polygon fill="#FFCC00" points="136.7,139.3 157.3,139.3 163.8,119.8 170.2,139.3 190.8,139.3 174.4,151.6 180.6,171.1 163.8,159.2 
	146.9,171.1 153.4,151.6 "/>
</svg>
