<svg xmlns="http://www.w3.org/2000/svg" id="flag-icon-css-fj" width="640" height="480">
  <path fill="#68bfe5" d="M0 0v480h640V.08H402.44V0H0z"/>
  <g stroke-miterlimit="4.8">
    <path fill="#fff" d="M420.89 193.24v136.35c0 44.6 80.58 71.08 80.58 71.08s80.58-26.48 80.58-71.08V193.24z"/>
    <path fill="#d21034" d="M490.3 241.15v61.4h-69.41v22.33h69.41v71.54l11.17 4.25 11.17-4.25v-71.54h69.41v-22.34h-69.41v-61.4z"/>
    <path fill="#d21034" d="M420.89 193.24h161.16v52.65H420.89z"/>
    <g stroke-miterlimit="3">
      <g fill="#fff" stroke="#000" stroke-width=".81" transform="translate(-96.9 97.54) scale(.66486)">
        <ellipse cx="798.23" cy="192.21" stroke-width=".8" rx="13.62" ry="10.96"/>
        <ellipse cx="798.23" cy="186.53" rx="12.11" ry="6.12"/>
        <ellipse cx="798.23" cy="198.77" rx="12.11" ry="6.12"/>
        <ellipse cx="798.23" cy="192.21" rx="12.11" ry="6.12"/>
      </g>
      <path fill="#ffd100" stroke="#000" stroke-width=".8" d="M578.06 235.45l-1.32-3.64s-3.61-1.48-3.89-3.4c-.64-5.11-2.47-7.03-5.2-7.76a5.97 5.97 0 0 0-4.57.46c-.82 1.19-4.94 1.19-7.22 1.28-2.28.09-2.32-1-2.32-1-1.78.02-2.52-1.29-2.52-1.29-1.16-2.31-2.03-3.18-2.6-3.48 2.96.05 5.2-1.32 8.54-4.83 3.65-3.84 6.26-2.35 6.26-2.35-1.77 3.58.59 3.26.59 3.26 4.84-2.46.64-8.67-.82-8.4-1.46.27-1.88-.7-1.88-.7.04 1.1-1.62 1.55-1.62 1.55 1.25-7.1-2.99-8.98-2.99-8.98-.64.64-1 1.92-1 1.92-1.2 4.3-5.12 3.65-9.5 1.55-4.39-2.1-16.08 2.2-19.73 3.66-3.66 1.46-10.33 3.74-16.36.36-6.02-3.38-7.49-2.74-9.86-2.1-2.38.64-6.58 1.65-8.13.82-1.55-.82-3.32-.87-3.32-.87.42-.24-.24-1.23-.24-1.23-1.83-2.46.24-3.97.24-3.97s-3.4.95-2.05 6.76l.62.87s.45 1.82 1.46 2.37l-.03.4s.86-.4 1.13.79c.27 1.18 1.55.09 2.1-.91 0 0-.92 5.3 5.66 6.57 0 0-.73-.82-.46-1.37.28-.55-.82-1-.72-1.83.09-.82-1.65-1.18-.28-1.83 1.37-.64 2.01-1.91 4.93-.18 2.93 1.74 5.21 1.38 5.21 1.38s-1.78-3.66-.8-3.66 5.4 5.47 7.58 5.2c2.17-.27 6.38-2.74 8.48-1.82 0 0 .18-1.1 8.21-2.47 8.04-1.37 17.96-5.38 21.68-1.87 0 0 .43 2.78 1.98 3.52 0 0-.27 5.75-10.23 2.55l-3.6-.95s-.56-1.75-19.49 3.12c0 0-1.11.4-1.84.94-.74.55-1.74-.27-5.49 1.1-3.74 1.37-17.72 5.93-26.3 4.29l-.01.02c-1.9-.56-3.66-.27-3.74-.57-.09-.36 1.01.1 1.01.1-.64-.74-.91-.8-.91-.8-7.22-.79-5.94-4.05-5.94-4.05l.36 1c1.2-1.54-.46-5.2-.46-5.2l-.07.01a3.78 3.78 0 0 0-.06-.33l.6-.41c3.47-2.93 7.49-3.47 7.49-3.47-2.38-2.93-7.4-1.37-7.4-1.37.09-3.56-1.38-7.68-1.38-7.68-4.93.55-7.76 4.66-7.76 4.66-.18-3.65-4.84-5.75-4.84-5.75 1.73 2.1.64 7.12.64 7.12l.18.1h-.46l-.1 1.07-.17-.07s-1.74.64-3.74 5.2c0 0-.2 1.09-.98 2.06l-.01-.37s-2.25 2.94-7.43 0c0 0-7.05-4.18-9.53-4.03-2.47.15-4.1 1.32-3.94 2.01 0 0-5.66-.46-7.6 2.79 0 0-4.25 1.55-.61 5.03 0 0 .49 1.51 1.55 2.33 0 0-.15-3.18.62-2.25 0 0 .2.31.58.53.1.45.44 1.69 1.2 2.32l.54-.17c.08-.8.26-1.8.43-2.22l.18.02-.07.06 1 1.55 1.17-.62c.54-.08 1.24.47 1.24.47l1.31-1.09-.02-.03c1.3.22 1.65-2.3 1.65-2.3 1.16.31 2.25-.03 3.18-.59.57 2.08 5.18 4.32 5.18 4.32l.2-.02c-.39.25-.62.44-.62.44 2.1 1.46 6.03 1.1 6.03 1.1-1.65.64-1.42 3.68-1.42 3.68-.96.4-1.05 1.34-1.05 1.34 3.2 1.28 5.38.22 5.38.22.18 1.04-.08 1.15-.08 1.15-1.28 2.74-1.83 5.39-1.83 5.39l.09.03-.12.21s-5.57 1.94-8.05 4.65c0 0-.23-.78-.93-.78-.7 0-2.86-1.78-3.87-2.09-1-.3-2.48.31-2.87-.15-.35-.42-.19-3.6-.86-4.1h.01l-.7-1.94c-.46 1-2.4.77-2.4.77l-.79.58c-.38.02-.83-.11-.83-.11-.2.04-.4.6-.54 1.14l-.23.18v-.55c-.39.31-1.16-.15-1.47-.15-.15 0-.34.44-.5.9-.78.14-1.83.18-1.83.18-.3.16-.08 2.56-.08 2.56-2.24 1.24-1.16 3.1-1.16 3.1 1.24 6.03 11.54 3.32 12.31 4.1.78.77 2.56.93 3.49.93.93 0 2.09 2.24 3.4 2.47 1.32.24 0-1.78 6.1-3.23 6.11-1.46 8.15-3.97 8.15-3.97 1.9-.36 2.44-2.69 2.58-3.63.02.44.07.91.14 1.46.28 2.1-1.18 2.87-1.18 2.87l5.3-1.6c2.1-.54 1.82-2.37 1.82-2.37 2 5.76 5.66 6.12 5.66 6.12.73-2.19.64-2.83.64-2.83l1.65-.09c.06-1.24-1.03-2.14-1.66-2.57l2.57 1.56 1-.18c0 .92 1.37 1.74 1.37 1.74l.19-1.19c1.19 1.55 3.38 1 3.38 1a7.34 7.34 0 0 0-.2-.85c4.69 2.9 12.16-.79 12.16-.79 2.01.46 2.29-.73 2.29-.73 2.28.27 2.8-1.29 2.8-1.29 5.38-.46 9.17-4.28 9.17-4.28 2.64-.19 2.73-2.08 2.73-2.08s2.65.52 5.21-2.67c5.94-8.5 14.81-4.07 14.81-4.07l-5.13.32c-13.43-.09-7.86 9.04-7.86 9.04l.83-.09c1.28.28 5.66 3.75 4.04 6.33-.02.05-.06.1-.09.13-2.73 3.75-7.8.18-9.25-2.99-1.46-3.2-4.39-2.46-4.39-2.46s-7.58 1.28-4.47 7.3l.11.01c.06 1.47.98 3.15 3.69 4.81 1.52 2.15 6.51 2.38 10.18 1.58 1.7-.37 10.7-4.24 10.7-4.24.67-1.96 2.9-1.51 4.92-4.34 2-2.84-2.84-3.84-3.93-5.4-1.1-1.55.27-1.27.27-1.27 4.39 2.37 4.75-5.2 4.75-5.2a6.57 6.57 0 0 0 4.3 5.56c2.37-2.37.64-7.21.64-7.21 5.66 10.14 9.1 8.52 9.1 8.52-3.06-1.89-1.52-4.41-1.52-4.41 2.73 10.78 13.97 1.37 13.97 1.37-.54 1.55 0 2.46 1.01 3.47 1 1 2.2 1.46 1.65 3.29-.55 1.82-5.76 1.46-5.76 1.46s-5.11-.27-4.66 4.02c.27 1 3.65 1.37 4.93 1.1 0 0-.52.11 1.37.36.63.08 1.4.1 2.17.07 2.18-.07 4.5-.44 4.5-.44 2.93-.63 2.47-1.64 2.47-1.64 4.47-.83 4.93-3.84 4.93-3.84z"/>
      <path d="M429.63 216.74s.24-.56.7-.63c.34-.05.76.2 1.21.75l.24-.18c0-.02-1.2-1.76-.73-3 .22-.54.74-.92 1.57-1.1l-.07-.3c-.93.21-1.53.65-1.78 1.3a2.09 2.09 0 0 0-.14.75c0 .6.22 1.21.43 1.68a1.15 1.15 0 0 0-.78-.2c-.46.07-.69.4-.8.61zm140.98 23.93c-3.05.48-7.53.75-7.88-.17-.07-.17-.08-.83 2.42-2.45l-.29-.45c-2.08 1.36-2.92 2.34-2.63 3.09.64 1.66 7.18.71 8.48.5zm-58.37 1.76c-.7-1.06-.38-2.52.93-4.34l-.43-.31c-1.46 2-1.78 3.67-.95 4.94z"/>
      <path d="M508.12 237.84c.06 1.84 1.36 3.55 3.85 5.07l.28-.46c-2.33-1.42-3.54-2.98-3.6-4.63-.1-2.54 2.59-4.5 2.61-4.51l-.3-.44c-.13.09-2.95 2.14-2.84 4.97zm52.05.68c-.84 1.24-.56 2.73-.55 2.8l.53-.1c0-.02-.25-1.35.47-2.4a3.05 3.05 0 0 1 2.06-1.22l-.1-.53c-1.09.2-1.9.7-2.41 1.45zm-119.26-23.38l-.16-.04-.02.17c0 .02-.24 1.64-.98 2.08a.76.76 0 0 1-.68.04l-1.25-.76c-.25-.21-.46-.38-.82-.27a1.8 1.8 0 0 1-.35-1.32c.1-.74.6-1.44 1.53-2.1l-.18-.25c-1 .72-1.55 1.5-1.65 2.32-.11.95.44 1.6.46 1.62l.08.09.1-.05c.28-.12.36-.05.63.2l1.34.81c.35.13.66.1.95-.07.76-.45 1.03-1.78 1.09-2.15 3.24.7 5.85-3.24 5.96-3.41l-.25-.17c-.03.04-2.69 4.08-5.8 3.26z"/>
      <path d="M433.14 214.54c-.16.65-.05 1.3.33 1.91.35.59.7.9 1.07.95.45.06.81-.27 1.13-.57.23-.21.44-.41.62-.4l.28.2.24-.2-.5-.3c-.3-.03-.57.22-.85.48s-.57.53-.88.49c-.26-.04-.55-.31-.85-.8a2.16 2.16 0 0 1-.3-1.69c.36-1.44 2.09-2.5 2.1-2.52l-.15-.26c-.08.05-1.86 1.14-2.24 2.7zm-4.46 20.65c.15-.56.58-1.04 1.27-1.42-.13.01.68.68 1.38.6l.45-.24c.19.16 1.4 1.26 1.4 2.65 0 .3-.06.6-.19.9l.29.12c.88-2.1-1.34-3.95-1.36-3.97l-.09-.07-.13.1-.4.2c-.57.07-1.32-.54-1.32-.54-.94.4-1.42.95-1.6 1.6zm10.32-5.35c-.66.06-2.52.41-3.13 1.38-.22.35-.25.74-.1 1.15l.25.65c.58 1.56 1.18 3.17 1.84 3.53l.15-.26c-.56-.31-1.17-1.94-1.7-3.37l-.24-.65a.94.94 0 0 1 .06-.89c.5-.79 2.17-1.17 2.9-1.23.43-.04.57 1.54.65 2.48l.3-.03c-.12-1.39-.25-2.82-.98-2.76z"/>
      <path d="M433.9 231.37c-.39.35-.3.88-.3.9 0 .15.17 4.04 2.02 4.84l.12-.28c-1.67-.73-1.84-4.55-1.84-4.59 0-.02-.05-.4.21-.64.28-.25.84-.27 1.61-.06l.08-.29c-.89-.25-1.53-.2-1.9.12z"/>
      <path d="M432.44 231.7c-.81.56-.78 2.18-.78 2.25h.3c0-.02-.03-1.53.66-2 .25-.18.59-.19 1-.03l.1-.28c-.5-.2-.93-.19-1.28.05z"/>
      <g transform="translate(-96.9 97.54) scale(.66486)">
        <path d="M862.33 169.49c.02.04 1.31 2.94 1.31 5.3 0 .42-.2.72-.3 1.09-.04-.14-.5-1.37-.5-1.37l-.38.99c-.02.05-.53 1.38.38 2.88 1.2 1.98 4.19 3.24 8.88 3.76l.07.06a.85.85 0 0 0-.39.13l-.18.16.02.4c.12.48.68.5 1.78.55.2 0 .5.05.7.07l.57.15-.1-.11c1.07.07 2.28.34 3.58.83l-1 .25 1.17.46c.09.03 8.65 3.47 12.2 6.3-1.01.87-5.3 4.08-12.74 2.25l-1.25-.31.84.96c.06.06 4.9 5.62 5.9 8.99-1.68.02-8.18-.04-10.45-1.97l-.59.53c.03.05 3.12 4.58 3.8 8.1-.88.12-3 .21-4.25-1.43l-.57-.75-.32 2.04c-.6-.46-1.36-1.14-1.36-1.87v-.48l-1.84.34-3.76-2.29a7.97 7.97 0 0 0-.6-.36l-.04-.02-.03-.02-.39.7.58.35c.8.53 2.18 1.67 2.32 3.2l-2.44.13.04.42v.07c0 .25-.08 1.3-.85 3.68-1.15-.28-5.37-1.74-7.85-8.87l-.78.19.01.26c0 .65-.23 2.28-2.46 2.86l-6.45 1.94a4.5 4.5 0 0 0 .82-2.68c0-.26-.02-.54-.05-.84a20.3 20.3 0 0 1-.22-2.62c0-1.5.36-2.4 1.4-3.03l-.36-.72c-.1.04-9.62 3.82-14.34 2.25.22-.92 1.02-4.16 2.63-7.61l-.21.2c.31-.14.63-.62.36-2.17l-.08-.53-.49.23c-.03.02-3.05 1.37-7.41-.23.09-.36.32-1 1.23-1.38l.27-.11-.03-.3v-.52c0-1.18.18-3.94 1.87-4.6l-.18-.78c-.05 0-5.16.41-8.25-1.31.8-.56 2.52-1.6 4.5-1.88l.32-.04.02-.32a5.93 5.93 0 0 0-.5-2.3c1.18.33 2.6.62 3.1.25l.16-.13-.14-3.1-.8.04.12 2.56c-.5.03-1.8-.23-3.04-.62l-1.23-.4.8 1.03a4 4 0 0 1 .73 2.33 12.68 12.68 0 0 0-5.07 2.33l-.41.34.44.3c2.4 1.67 6.15 1.82 8.08 1.77-1.14 1.28-1.33 3.43-1.33 4.5v.38a3.13 3.13 0 0 0-1.57 2.18l-.03.3.28.12c4.13 1.64 6.94.85 7.9.5 0 .13.04.3.04.39 0 .38-.07.5-.07.5-2.03 4.24-2.88 8.28-2.89 8.32l-.07.33.32.13c3.83 1.53 10.7-.56 13.75-1.64-.4.7-.63 1.47-.63 2.43 0 .81.1 1.72.23 2.73.03.26.05.5.05.73 0 2.28-1.54 3.14-1.62 3.18l.3.74 7.96-2.4c1.84-.47 2.54-1.56 2.83-2.48 3.14 7.44 8.06 8.11 8.28 8.14l.32.03.1-.3c.77-2.3.95-3.45.98-4.02a439.55 439.55 0 0 0 2.46-.13l.02-.36v-.18c0-.66-.2-1.24-.48-1.76l1.37.83 1.32-.24c.35 1.33 1.93 2.37 2.13 2.5l.51.3.27-1.73c1.96 1.75 4.75 1.23 4.88 1.2l.36-.1-.06-.35c-.4-2.69-2.2-5.88-3.26-7.6 3.49 1.6 9.85 1.48 10.16 1.47l.48-.02-.1-.46c-.56-2.83-4.1-7.28-5.57-9.04 8.2 1.54 12.6-2.72 12.8-2.91l.29-.3-.32-.29c-2.76-2.4-9.11-5.19-11.67-6.25l.9-.23-.89-.5c-2.13-1.2-4.4-1.34-5.92-1.4l-.01-.02c-.97-1.11-1.46-1.29-1.59-1.32-5.55-.6-7.58-2.16-8.32-3.36-.06-.1-.03-.17-.07-.26l.24-.32c.54-.7.73-1.63.73-2.62 0-2.55-1.3-5.46-1.37-5.62l-.74.33z"/>
        <path d="M836.8 167.86c-.02.08-.6 3.12-3.2 4.54-1.94 1.07-4.52.99-7.64-.26l-.35-.14.04.37a5 5 0 0 0 1.9 3.18c1.4 1.09 3.4 1.47 5.92 1.2-.84 1-3.54 4.45-3.54 7.8 0 .17 0 .35.02.53.35.24 4.58 1.39 6.55-1.12.07 1.08.38 4.52 1.72 5.87.74.73.91 1.8.91 2.66 0 .77-.14 1.37-.14 1.38l-.16.61.52-.37c.16-.12 4.05-2.97 5.3-6.7 0 0 .62-.95 1.82-1.33-.02.16-.04.33-.04.56 0 1.44.63 4.06 4.83 5.67l.35.13-.03-.36a7.13 7.13 0 0 1-.03-.73c0-1.05.14-3 1.15-4 .66-.66.86-1.4.86-2.05 0-.5-.11-.91-.23-1.22.85.22 2.86.87 3.67 2.4 1.19 2.22 5.34.45 5.52.37l-.14-.43c-.02 0-1.75.39-2.84-.36a2.11 2.11 0 0 1-.87-1.51l-.2-2.31c-.03-1.05-.18-1.71-.7-2.27.55-.05 1.65-.03 2.11 1 .74 1.61 3.26 1.77 3.36 1.78l.86.05-.72-.47c-.03-.02-2.2-1.46-1.82-3.34l.3-1.37c.6-2.48 1.6-6.64.79-9.19l-.44.14c.2.64.28 1.4.28 2.2 0 2.26-.64 4.94-1.07 6.74l-.32 1.4a2.6 2.6 0 0 0-.05.53c0 1.22.8 2.15 1.4 2.7-.73-.15-1.76-.5-2.14-1.36-.6-1.33-2.23-1.39-3-1.23l-.55.1.46.31c.73.49.75 1.06.8 2.3l.2 2.35c.11.8.47 1.42 1.06 1.83.51.35 1.12.4 1.67.44-1.24.32-2.93.52-3.54-.62-1.14-2.13-4.29-2.7-4.42-2.73l-.48-.08.24.42c.03.04.36.65.36 1.42 0 .55-.17 1.17-.73 1.74-1.12 1.12-1.3 3.16-1.3 4.3 0 .21.02.24.02.38-3.6-1.51-4.23-3.75-4.23-5.02 0-.54.1-.9.12-.94l.1-.36-.36.07c-1.75.28-2.47 1.7-2.5 1.77-1 2.99-3.71 5.36-4.7 6.14a6.88 6.88 0 0 0 .07-.9c0-.93-.2-2.12-1.05-2.97-1.43-1.43-1.62-5.97-1.62-6.02l-.03-.82-.4.72c-1.58 2.83-6.2 1.47-6.25 1.46-.2-3.58 3.87-8.16 3.91-8.21l.43-.47-.63.09c-2.65.38-4.71.03-6.12-1.06a4.63 4.63 0 0 1-1.65-2.5c3.08 1.15 5.66 1.21 7.65.11 2.77-1.53 3.38-4.67 3.4-4.8 2.92-6.6 5.46-7.65 5.49-7.66l-.16-.43c-.12.04-2.74 1.07-5.77 7.95z"/>
        <path d="M843.45 158.07h-.2l-2.36 3.25.7.07c12.83 1.25 19.62 8.99 19.68 9.07l.3.34 2.33-2.53-.17-.26c-6.51-10.24-20.14-9.94-20.28-9.94zm.22.8c1.59 0 13.27.37 19.19 9.33l-1.28 1.4c-1.39-1.44-7.96-7.58-19.24-8.9a631.23 631.23 0 0 1 1.33-1.83z"/>
        <path d="M841.6 164.84c-1.1 1.5-2.11 3.7-2.11 4.74 0 .2.03.36.12.45l.06.03c-1.34 1.2-2.13 3.2-2.13 5.46 0 1.24.22 2.54.68 3.77l.25.7c1.26 3.42 2.35 6.38 7.8 4.64 5.24-1.68 5.44-2.01 6.76-4.19l.35-.56c.72-1.17 1.5-1.4 2.34-1.66 1-.3 2.03-.6 2.94-2.4l.88-1.32c.96-1.31 2.15-2.94 2.29-5.02l-.46-.03c-.13 1.95-1.28 3.51-2.2 4.78l-.92 1.38a3.65 3.65 0 0 1-2.66 2.17 3.9 3.9 0 0 0-2.6 1.85l-.36.57c-1.27 2.1-1.43 2.37-6.5 4-5.03 1.6-5.95-.9-7.23-4.37l-.25-.7c-1.43-3.82-.31-7.67 1.55-9.05l.64-.48-.89.1-.02-.13c0-.62.68-2.6 2.04-4.46 1.16-1.58 3.89-3.14 3.92-3.16l-.23-.4c-.12.07-2.85 1.63-4.06 3.29z"/>
        <path d="M839.16 178.65c.9.62 2.17.58 3.7 0 0 .54.12 1.7 1.07 2.54 1.12.99 2.96 1.18 5.5.57l-.1-.44c-2.38.56-4.1.4-5.1-.47-1.07-.95-.92-2.45-.91-2.47l.04-.39-.37.16c-1.53.66-2.74.7-3.57.12-1.5-1.04-1.38-3.75-1.38-3.79l-.46-.02c0 .13-.13 3 1.58 4.19z"/>
        <path d="M842.07 174.99c-.66.16-.83.7-.83 1.13 0 .1.01.2.03.28.11 1.18 1.4 1.97 2.56 2.3 1.13.33 2.53.36 3.08-.35.22-.28.38-.8-.1-1.61-1.75-2.98-4.58-1.81-4.74-1.75zm1.89 3.27c-1.02-.29-2.14-.95-2.23-1.93-.03-.1-.14-.75.44-.9h.05a3.25 3.25 0 0 1 4.19 1.54c.28.48.33.85.13 1.1-.34.44-1.45.52-2.58.2zm-1.94-3.25l.05-.02-.05.02zm1.63 5.97c-.3 2.51-.11 2.57.07 2.63l.16.05.18-.21 1.45-1.92-1.83-.87-.03.32zm.42.38l.74.34-.85 1.11c.01-.37.06-.9.11-1.45zm-4.21-2.4l-.1 2.38 2-2.42-1.89-.2-.01.24zm.45.27l.55.06-.58.7.03-.76z"/>
        <path d="M838.53 178.2c.02.03 1.48 2.9 1.75 3.95.16.66 1.01 1.42 2.02 1.8 1.01.37 1.96.31 2.66-.18l1.33-1.1c.44-.43.58-.55.94-.48l.08-.46c-.6-.1-.9.18-1.34.6l-1.27 1.06c-.78.55-1.74.32-2.24.12-.95-.35-1.63-1.02-1.74-1.48-.28-1.09-1.72-3.92-1.78-4.04l-.41.21zm1.91-8.6c-1.62.75-2.3 2.71-2.33 2.8l.43.15c0-.02.66-1.87 2.1-2.53a2.9 2.9 0 0 1 2.34.02l.17-.42c-.98-.4-1.89-.4-2.71-.02zm10.89 5.16c.13.1 3.19 2.41 1.43 5.24l.39.25c1.98-3.2-1.51-5.83-1.55-5.86l-.27.37zm-9.2.45s-.48 1.73 1.96 2.34c0 0-2.3-.02-2.44-.61-.15-.6.02-1.9.48-1.73zm7.44 2.07c0 .15-.12.27-.27.27a.28.28 0 0 1-.27-.27c0-.15.12-.27.27-.27.15 0 .27.12.27.27zm.27 1.08c0 .15-.12.27-.27.27a.27.27 0 0 1-.27-.27.27.27 0 0 1 .27-.27c.15 0 .27.12.27.27z"/>
        <circle cx="848.01" cy="177.82" r=".27"/>
        <path d="M848.75 179.45a.27.27 0 1 1-.54 0c0-.15.12-.28.27-.28.15 0 .27.13.27.28zm-7.1-7.32a.27.27 0 0 1-.55 0c0-.15.13-.27.27-.27.16 0 .28.12.28.27z"/>
        <circle cx="841.65" cy="173.22" r=".27"/>
        <circle cx="840.09" cy="172.68" r=".27"/>
        <path d="M840.83 174.3a.28.28 0 0 1-.28.27.27.27 0 0 1 0-.54.28.28 0 0 1 .28.27zm4.74-9.55s3.52 2.17.13 6.23c0 0 1.67-1.24 1.84-3.36.18-2.13-1.2-3.82-1.97-2.87zm13.5 5.84c-1.13.58-2.76-.5-3.58-1.51-.81-1.02-2.5-1.28-3.55.58-1.05 1.86-2.56 2.56-2.56 2.56s1.48-.87 3-2.5c1.51-1.63 2.38-.32 3.87.46 1.48.79 1.72.96 2.76.55l.06-.14z"/>
        <path d="M858.78 170.86a1.7 1.7 0 0 1-2.21-.09c-.9-.73-1.66-1.72-2.8-1.13-1.13.58-3.29 2.2-3.29 2.2s3.5-2.4 4.17-1.88c.67.52 2.24 1.8 3.2 1.43.96-.39.93-.53.93-.53z"/>
        <path d="M856.1 172.34c-1.1-.84-2.21.99-3.14.76-.93-.24-1.7-1.78-1.7-1.78s.88 1.63 2.1 1.25c1.23-.37 2.07-1.13 2.83-.55.75.58-.09.32-.09.32z"/>
        <path d="M854.37 172.57c-2.18.23-2.4-1.81-2.4-1.83 0 0 .69 1.78 2.62 1.45l-.22.38z"/>
        <path d="M854.3 171.18c.14.55.11.8-.47.8-.6 0-.99-.2-.99-.76 0-.57 1.37-.4 1.46-.04zm-7.84-3.03a.7.7 0 0 1-.7.69c-.39 0-.46-.26-.46-.64s.07-.73.46-.73.7.3.7.68z"/>
        <path d="M844.05 165.71s3.74.04 1.89 4.72c0 0 1.42-2.33.53-4-.9-1.68-2.3-1.26-2.3-1.26s-.35.32-.12.54z"/>
        <path d="M843.94 167.58c-.01.94.62 1.9 1.86 2.88l.28-.36c-1.12-.88-1.69-1.72-1.68-2.51 0-.79.61-1.25.62-1.26l-.28-.37c-.03.03-.79.6-.8 1.62z"/>
        <path d="M844.77 168.37c.16.54.58.95 1.24 1.21l.17-.42c-.52-.21-.85-.52-.97-.92-.24-.8.4-1.72.41-1.73l-.37-.27c-.04.05-.78 1.12-.48 2.13zm5.13 2.6s.7 1.51-.32 3.14c-1.02 1.63-1 1.55-1 1.55s1.23-2.24.77-3.18c-.47-.93.55-1.51.55-1.51zm14.55 15.79c3.84.72 12.51 7.52 12.6 7.59l.5-.64c-.37-.28-8.92-6.98-12.95-7.74l-.15.79zm3.41 9.59c.26 3.41 3.97 5.53 4.13 5.61l.39-.7c-.04-.01-3.5-2-3.72-4.97l-.8.06zm-9.21.71c0 3.82 3.58 8.45 3.74 8.65l.63-.5c-.03-.04-3.57-4.6-3.57-8.15h-.8zm-12.15.43c.63 1.26.57 1.9.4 2.21-.19.36-.58.41-.6.42l.1.8c.3-.04.89-.24 1.2-.82.39-.7.26-1.7-.38-2.96l-.72.35z"/>
      </g>
      <g fill="#fff" stroke="#000" stroke-width=".36">
        <path stroke-width=".24" d="M429.57 216.3s.15 1.7 1.47 2.71c0 0-.15-1.86.23-2.63 0 0-.7-.78-1.7-.08zm2.63 1.08s.3 1.55 1.24 2.25l.54-.16s.23-1.93.54-2.16c.31-.23-1.31.7-2.32.08z"/>
        <path stroke-width=".24" d="M434.52 217.3l1.01 1.55 1.16-.62-.23-1.85s-.7-.16-1.94.92zM439.24 217.62l-1.31 1.08s-.7-.54-1.24-.46l.23-1.7s.93-.7 2.32 1.08zm-9.36 16.02s-.23-2.4.08-2.56c0 0 .92.31 1.31-.07 0 0 .54 1.93.39 2.7-.16.78-1.09.47-1.78-.07zm5.96-2.48s-.08-2.01.31-2.25c0 0 1.93.24 2.4-.77l.7 1.94s-2.17-.24-3.41 1.08z"/>
        <path stroke-width=".23" d="M433.75 231.55s.39-2.1.78-2.17c0 0 1 .3 1.31-.08l-.07 2.56s.07-1.09-2.02-.31zm-2.24.3s.46-1.85.77-1.85 1.08.46 1.47.15v1.4s-1.7-.39-1.94 1.93l-.3-1.62z"/>
      </g>
    </g>
    <g fill="#00a651" stroke="#000" stroke-width=".78">
      <path stroke-width=".52" d="M461.68 270.4s5.26 4.89 3.89 9.15c0 0 3.38-7.27-.25-9.4-3.64-2.13-3.76-.5-3.64.25z"/>
      <path fill="#964b36" stroke-width=".52" d="M455.04 275.15s-1.38 1.89.13 3.27c0 0-1.63 2.37-.38 4.38 0 0-1 2.13-.75 4.39 0 0-.88 3.5 1 5.14 0 0 2 1 2.89.12 0 0 1.75-2.63.62-5.39 0 0 1.25-2.25-.12-5.14 0 0 .37-1.63-.76-3.5 0 0 .76-1.26.13-2.26 0 0-2.5-2.63-2.76-1z"/>
      <path stroke-width=".52" d="M456.54 269.02s-6.26-12.03-10.65-12.53c-4.38-.5-4.63-4.76-4.63-4.76s.5 2 4 2 10.28 4.89 11.03 8.64c.75 3.76 1.5 3.26 1.5 3.26l-1.25 3.39z"/>
      <path stroke-width=".52" d="M456.54 268.14s2.26-15.16 12.16-15.41c9.9-.26 6.64.75 9.02-.88 0 0-6.64 3.5-10.77 4-4.14.5-7.52 8.53-7.4 10.03.13 1.5-2.25 4.39-3.38 3.39-1.13-1 .37-1.13.37-1.13z"/>
      <path stroke-width=".52" d="M458.8 273.78s2.25-6.01 6.14-4c0 0-3.01-5.77-8.4-.76 0 0 2.38 3.26 2.26 4.76zm-7.52-6.02s3.26 13.41-1.76 17.54c0 0 .13-6.88-2.88-11.02-3-4.14 3-8.65 4.64-6.52z"/>
      <path stroke-width=".52" d="M451.66 270.15s5.89 5.64 6.26 7.52c.38 1.88 1.76-5.64-1-7.77s-5.76-2.5-5.76-2.5l.5 2.75z"/>
      <path fill="#964b36" stroke-width=".52" d="M440.8 284.93s.53 2.37 1.98 2.82c0 0 .08 1.76 1.38 2.3 0 0-.7 1.45.46 2.36 0 0-.24 2.9.83 3.52 0 0 2.6-.15 3.52-.92 0 0 .53-1.9-.92-3.82 0 0 .23-1.83-1.22-2.82 0 0 .46-2.45-1.38-3.37 0 0-.3-1.99-1.45-2.98 0 0-2.21 3.13-3.2 2.9z"/>
      <path stroke-width=".52" d="M443.7 282.02s-7.72-2.82-12 1.23c0 0 6.57.91 7.4 2.21.85 1.3 4.9-2.14 4.6-3.44z"/>
      <path stroke-width=".52" d="M441.32 286.84s-.6-.54-1.37-1.07c-.76-.54-7.26-2.3-8.18 3.97 0 0-2.37-6.19 1.07-7.03 3.44-.84 6.2 1.15 8.48 4.13m-5.07-12.81s2.37 5.14 3.25 5.4c.88.24 1.5-.63 1.5-.63s-3.13-4.64-4.76-4.77zm-1.76-7.9s-2-6.63-4.38-4.88c-2.39 1.76-1.76 6.52-1.76 6.52s-4.76-4.89-2-8.77c2.75-3.89 8.14.37 8.14 7.14z"/>
      <path fill="#964b36" stroke-width=".52" d="M439.88 279.8s0 1.25.88 1.62c.88.38 2.5 1 2.5.25s-1.25-3.63-1.75-3.25c-.5.37-1.38.37-1.63 1.38z"/>
      <path stroke-width=".52" d="M438.38 272.03s-.25-5.76 3.5-7.9c0 0 .76.13 1.14-1 0 0-3.01 7.27-2.14 10.9l-.12.5"/>
      <path stroke-width=".52" d="M439.13 265s6.77-14.03 15.04-9.14c0 0-8.65 1.75-11.78 7.9l-3.13 4.63-.13-3.38z"/>
      <path stroke-width=".52" d="M435.5 270.15s-2.01-9.4-3.26-10.65c-1.26-1.25-3.39-2.63-5.9-.5 0 0 4.4-3.89 9.03-.63 4.63 3.26 3.63 8.4 3.63 8.4l-.5 6.51-3.13-2.88"/>
      <path stroke-width=".52" d="M442.76 281.3s-8.27-15.66-13.66-4.51c0 0-1 2.88.13 4 0 0-3.01-2.25-1.63-7.76 1.37-5.51 10.52-3 13.16 1.5 2.63 4.51 3.38 6.77 3 7.02-.37.25-1-.25-1-.25zm23.31 4.51s6.02-12.4 9.53-6.77c0 0 1 2.76-.5 3.89 0 0-2.39-2.88-4.52.63-2.13 3.5-1.25 3.25-1.25 3.25s-2.26.63-3.26-1z"/>
      <path stroke-width=".52" d="M475.09 282.93s3.25 1.75 2.13 5.26c0 0 4.38-8.4-1.63-9.15 0 0 1.13 2.63-.5 3.89zm.38-8.52s7.9 2.25 8.14 5.64c0 0 1.38-6.52-3.13-8.52 0 0-5.4.88-5.01 2.88z"/>
      <path stroke-width=".52" d="M478.98 264c3.38-6.64 7.64 2.13 7.64 2.13s1.5-6.89-2.76-8.14c-4.26-1.25-7.01 14.66-7.01 14.66l-5.02 1.13s1.38-13.91 8.9-15.16l.88.12"/>
      <path stroke-width=".52" d="M472.96 268.01s-4.76-9.77-8.02-10.77 1.76-2.5 3.76-.63c2 1.88 5.76 4.26 5.39 9.27l-1.13 2.13zm-4.89 13.41s1.38-6.64 5.14-8.64c3.76-2 7.27-1.25 7.27-1.25s-4.52 1-5.27 3.25c-.75 2.26-2 2.38-2 2.38l-5.14 4.26z"/>
      <path fill="#964b36" stroke-width=".52" d="M466.07 285.81s-2.13 4.01-1.63 4.64c0 0-2.25 3.26-1.38 4.88 0 0 2.26 1.76 3.26 1 0 0 2.63-3.63 1.88-5.63 0 0 1.75-2.38 1.13-3.88 0 0-2.63.12-3.26-1z"/>
      <path fill="#000" stroke="none" d="M455.05 278.65c.14.07 1.4.69 2.26.4l.6-.52-.47-.23c-.32.62-1.7.1-2.15-.12l-.24.47zm-.2 3.89l-.11.53c.1.02 2.65.5 3.86-.57l-.36-.4c-1 .9-3.37.45-3.4.44zm-.65 4.43l-.32.43c.03.02 2.99 2.13 4.88-.17l-.42-.34c-1.57 1.9-4.04.16-4.14.08zm-11.48.64l.11.28c.1-.04 2.61-1.05 2.77-2.88l-.3-.02c-.15 1.64-2.55 2.6-2.58 2.62zm1.42 2.28l.02.3c.1 0 2.4-.17 2.81-1.79l-.3-.07c-.35 1.4-2.51 1.56-2.53 1.56zm.48 2.37l-.02.3c.11.01 2.7.15 3.58-1.29l-.26-.16c-.79 1.28-3.28 1.15-3.3 1.15zm19.63-1.62c.05.05 1.16 1.15 2.47 1.1a2.3 2.3 0 0 0 1.68-.87l-.4-.35c-.38.44-.82.67-1.3.69-1.07.04-2.06-.94-2.07-.95l-.38.38z"/>
    </g>
    <g fill="#964b36" stroke="#000" stroke-width=".28">
      <path d="M542.07 299.8a1.1 1.1 0 0 0-.41.27l.4-.27zm9.21-2.3c-.09-.24-.15-.14-.27-.24-.16-.14-.26-.58-.41-.75-.09-.1-.19 0-.28-.03l-.7-1.43a.4.4 0 0 0 .06-.21 7.61 7.61 0 0 0-.11-.4c-.06-.1-.17-.04-.23-.2-.07-.16-.02-.47-.04-.65-.02-.15-.08-.24-.07-.46 0-.19.11-.4.1-.57 0-.1-.13-.34-.17-.43-.14-.36-.27-.7-.29-1.14-.02-.4.07-.64.1-.99.03-.41-.19-.62-.19-1 0-.3.13-.62.16-.89.05-.36.06-.88.03-1.25-.03-.35-.13-.57-.08-.96.02-.1.06-.18.08-.31V284.72v-.58c-.02-.15-.1-.3-.1-.42 0-.2.12-.3.1-.58-.02-.2-.05-.24-.1-.41-.09-.33-.03-.66-.08-1.01-.02-.17-.08-.23-.1-.42-.02-.22.05-.3.08-.46.02-.16.04-.37.02-.54-.02-.2-.12-.35-.1-.57l-.07 2.52c-.06-2.2-.15-4.23-.15-4.23l-3.33-1.57s-.29 6.13-.21 6.98c.06.86.35 6.7.2 7.41-.14.71-.49 4.28-.49 4.28s-1.63 1.14-2.27 2.42c-.64 1.28-.5 1.7-.71 1.7l1.58-.24-1.18.79a.72.72 0 0 1 .74.11c.03.02.2.18.23.18.06 0 .14-.16.22-.2.25-.07.45.39.69.35.12-.02.3-.15.4-.28.08-.12.11-.31.2-.39.08-.07.28.01.36.01h.7c.32 0 .57-.44.86-.7.26-.22.46-.3.74-.28.31.02.6.32.91.33.24.02.41.05.6-.2.14-.18.23-.44.36-.63l.79-.12c.15.07.31.14.45.13.2 0 .4-.03.6 0 .08.01.23.19.3.15.04-.04.1-.28.15-.35-.02-.1-.04-.34-.08-.42z"/>
      <path d="M544.53 299.69c.2 0 .39-.05.56.1l.07.15a.17.17 0 0 0 .17.03c.11.07.14.12.26.14.12.03.24 0 .36 0 .15 0 .22.06.35.11.24.1.4 0 .6-.14.24-.18.33-.04.56.18.17.16.14.15.29.04.02-.06.05-.1.08-.15.07-.03.15-.06.23-.07.13-.06.25-.05.37-.1.13-.05.22-.19.36-.16.11.02.25.11.36.15a.75.75 0 0 1 .24.12c.16-.33.5-.42.73-.58.24-.16.45.03.71.03.14 0 .2-.08.29-.1.1-.05.23.01.34-.03.1-.05.13-.15.25-.17.23-.02.48.35.7.41.13.05.72.18.63-.25-.08-.41-.45-.13-.53-.42-.04-.16.05-.4 0-.58a.7.7 0 0 0-.34-.4c-.14-.04-.22.1-.34-.01-.1-.1-.14-.43-.22-.56-.12.08-.19.16-.34.13-.17-.05-.15-.1-.28-.27-.28-.34-.44.21-.7.12-.19-.06-.37-.55-.52-.75-.08-.1-.3-.45-.43-.37-.2.13-.02.5-.12.67-.07.11-.34 0-.43.01-.15.04-.18.08-.29.26-.22.36-.35.65-.69.6-.16-.01-.28-.18-.44-.12-.17.07-.26.25-.45.27a.98.98 0 0 1-.42-.04c-.13-.05-.27-.3-.39-.36a.15.15 0 0 0-.16-.03 8.66 8.66 0 0 0-.2-.11c-.2-.06-.18-.06-.27.22-.05.16-.06.34-.13.5-.06.13-.19.3-.26.39-.15.15-.22.11-.4.17-.15.05-.35.28-.43-.02-.12-.45.33-1.13-.18-1.01-.13.03-.2.05-.29.25-.09.22-.01.37-.05.61-.06.31-.65.83-.53 1.11.08.2.34-.1.41-.06.12.09.09.28.17.42.18.27.71-.43.74-.05m-2.14-2.71l-.01-.12c-.14-.02-.3-.17-.43-.17-.12-.01-.36.29-.45.43-.25.43-.18 1-.62 1-.1 0-.35-.07-.45 0-.16.1-.06.45-.06.68 0 .22.1 0-.01.29-.04.08-.14.1-.17.2-.09.38.22.26.36.26h1.04c.21 0 .34-.07.54-.15.13-.04.4-.04.51-.16a2.21 2.21 0 0 0 .18-.4c.03-.15-.02-.32.01-.44.06-.21.25-.13.28-.42.09-.7-.65-.17-.54-.86"/>
    </g>
    <g stroke="#000" stroke-width=".52">
      <path d="M550.8 277.9c0 .9-.6 1.63-1.37 1.63-.76 0-1.38-.73-1.38-1.63 0-.9.62-1.63 1.38-1.63.76 0 1.38.73 1.38 1.63zm-4.5-2c0 .9-.62 1.62-1.38 1.62s-1.38-.73-1.38-1.63c0-.9.62-1.63 1.38-1.63s1.38.73 1.38 1.63z"/>
      <path d="M548.68 276.52c0 .9-.62 1.62-1.38 1.62-.76 0-1.38-.72-1.38-1.62 0-.9.62-1.63 1.38-1.63.76 0 1.38.73 1.38 1.63z"/>
      <path d="M546.37 278c0 .9-.62 1.64-1.38 1.64-.76 0-1.37-.73-1.37-1.63 0-.9.61-1.63 1.37-1.63.76 0 1.38.73 1.38 1.63z"/>
      <path d="M548.51 279.25c0 .9-.62 1.63-1.38 1.63-.76 0-1.38-.73-1.38-1.63 0-.9.62-1.63 1.38-1.63.76 0 1.38.73 1.38 1.63z"/>
    </g>
    <path fill="#00a651" stroke="#000" stroke-width=".52" d="M549.18 261.48s13.9-19.42 28.82.75c0 0 .12 2-1.25 4.14l-.38-1.63-.88.25-.25-1-1.63-.13.5-2.13-1.75 1.38.25-1.5-2 2 .25-4.26-2.14 3.63.25-2.5-.75 1.13-.45-1.46-.67 1.46-1-.75v1l-1.76-1.5-.62 2-.88-2.13-.25 1.5-.88-1.75-.12 1.88-2.89-1.26.63 1.76-1.38-1 .25 1-1.88-.38.13 1.13-2-.38.37 1-2.76-.37 1 1.13-.28.46s15.07-4.97 16.07 13.82l-2.76 1.38.76-1.5-.76-.5-2.25-1.75.63-2.39-.75.25-.13-1.37-.38.25-.88-1.38-.25.5-.62-1.63-.63 1.13-.38-2.76-1 1.76-.12-1-.38.62-1.25-1.5-.38 1-.5-.75-.37.88-1.38-1.26v1l-.88-.75-.38.5-2.12-1.12-.13 1-1.13-1-.38 1s13.67 7.77 9.4 20.42l-.75 1.63-.25-4.26-1.25 2.26.87-4.89-.87.88-.13-1.88-1.12 1.88-.39-2.13-.5.62-.75-3.26-.63 1.38-1-3.63-.75 1.5-.5-3.13-.5 1.88-1.5-2.76-.25 1.13-.88-2.25-.5.75s-2.51-.13-3.26-.75c-.75-.63-2.88 3.76-2.88 3.76l.25-2.63-.88 1.75v-1.75l-1.63 5.26-.37-3.76-.88 3.26-.38-1-.25 1.38-.5-.5-.44 1.47-.82-.6v2l-.75-1-.62 3-.38-1.24v1.37l-.62-.74-.63 3-.88-1.25-.12 2.13.37 1.63-1-.5.38 2.62s-3.89-7.26.75-14.28c4.63-7.01 10.9-8.9 10.9-8.9l-.63-.62-.12-.63-3.76 1.88.12-1.13-1 .88-.25-1.25-.63 1.13-.12-.5-.88 1.37-.5-2-.63 2.38-.59-1.67-1.29 3.55V270l-1 2.75-.37-3-.75 3.5v-3.13l-1.13 3.13-.76-3-.5 2.88-.75-2.25-.75 3.38-1.13-3.01-.62 4.51-.75-1.75-.13 3.25-.88-2 .88 4.26-1.13-1.63.38 2.63-1.63-2.88.12 3.39-.87-1.13-.38 1.25s-.37-13.03 8.52-15.54c8.9-2.5 14.66.75 14.66.75l-3.38-2.75.38-.88h-1.26l.5-1-2.63.12.75-1-2 .25v-.63l-1.25 1 .5-1.12-1.76 1.12-.1-1.66-.9 1.42-.5-1.51-4.01 4 1.13-4.13-.75.88-.13-.88-1.13 1.76-.25-1.25-.5 1.5-.38-1.75-.87 1.75-.88-1.63-.37 2.13-.63-1.13-.75 1.63-1-1-.13 1-2-.87.5 1.5-1.51-1.25-.38 2-.87-1-.63 2.5-.62-2.38-.63 1.88s7.84-20.13 27.66-7c0 0 2.16 2.12 2.66 3.62s.13.25.13.25l-.38-13.9.75 6 .5-2.12-.12 3.13 2-4.39s-2.38 7.27-1.5 9.9c0 0 .88-8.4 3.89-9.4l-2.76 6.02.88-.13-.63 1.26h.75l-.9 1.99-.48 1.02.5 1 .76-.76z"/>
    <path d="M547.12 269.65l.4.36c.05-.06 1.29-1.38 3.37.38l.34-.41c-2.49-2.1-4.1-.35-4.11-.33zm-.6-6.82l-.09.48.97-.41-.67 1.16 1.44-.48-1.78 2.34.42.33 2.85-3.73-1.77.6.76-1.34-1.53.66.32-1.92-.53-.08-.4 2.39z"/>
    <path d="M543.86 262.98l.61 1.36-.98-.4 2.9 5.12.37-.48-.59 1.5.5.2 1.25-3.2-.46-.27-1 1.29-1.75-3.1.8.33-.8-1.76 1.09.67v-1.9h-.54v.94l-1.77-1.1.37.8zm-1.82 6.42l.21.5c.78-.34 1.43-.4 1.92-.16.57.27.75.86.75.87l.51-.14c0-.04-.23-.83-1.02-1.21-.64-.3-1.43-.26-2.37.14zm2.24 5.42l-.44-2.8.53-.08.44 2.8zm3.85-.46l-.71-2.14.5-.17.72 2.14zm1.41 1.58l-.53-2.14.52-.13.53 2.14z"/>
    <path fill="#00a651" stroke="#000" stroke-width=".52" d="M442.57 340.24s-2.35-1.07-3.42-.29c-1.07.79-.92 1.92-1.85 1.85 0 0 3.56.79 4.34-.14.78-.92.93-1.21.93-1.21m.43.77s-1.55 2.07-1.01 3.28c.53 1.21 1.68 1.31 1.4 2.2 0 0 1.54-3.3.8-4.27-.73-.96-.98-1.16-.98-1.16m-2.82-5.77s-2.46.76-2.74 2.05c-.28 1.3.58 2.06-.15 2.62 0 0 3.18-1.78 3.15-3-.03-1.21-.11-1.52-.11-1.52m1.3.7s1.17-2.3.44-3.4c-.74-1.11-1.89-1.01-1.77-1.93 0 0-.94 3.52-.05 4.34.9.82 1.17.98 1.17.98m-2.2-.83s.05-2.58-1.1-3.25c-1.13-.67-2.12-.1-2.42-.98 0 0 .68 3.59 1.84 3.95 1.16.35 1.48.37 1.48.37m4.4 4.2s2.71-.92 2.93 2c.21 2.92-.14 1.92-.14 1.92s-1.43-3.13-3-3.63l.22-.28z"/>
    <path d="M442.95 341.27l.29 2.27.38-.05-.29-2.21.93-4.85-.38-.07-.93 4.9z"/>
    <path d="M440.5 340.55l-.13.36c1.3.46 3.1-.97 3.17-1.03l-.24-.3c-.01.02-1.71 1.36-2.8.97zm3.38-2.85l-6.05-3.06.24-.48 6.05 3.06z"/>
    <path d="M439.5 337.01l-.38-.38 1.21-1.2.38.37zm2.11-.59l-1.28-2.78.49-.22 1.28 2.78zm1.8 3.4l.03.54c1.65-.11 2.05.95 2.05.97l.53-.11c-.07-.3-.72-1.52-2.61-1.4z"/>
    <path fill="#fff" stroke="#000" stroke-width=".67" d="M471.17 341.06c2.02-1.13 2.42-5.1 2.42-5.1-.48 1.46-4.2 2.91-4.2 2.91 2.75-1.7 6.06-9.36 6.06-9.36-.89 2.74-8.07 5-12.67 7.59-4.6 2.58-2.18 10-2.18 10-1.3-.88-3.8-4.83-4.28-8.31-.49-3.47-1.86-4.84-5-5.25-3.16-.4-5.01 3.15-5.01 3.15l-4.68 2.43 4.76.16s3.4 1.13 3.4 3.8c0 2.66-3 13.31 1.92 19.29 3.43 4.15 16.07 6.54 16.07 6.54"/>
    <path fill="#fff" stroke="#000" stroke-width=".67" d="M461.89 349.29s.97-4.77 4.12-4.6c3.14.16 4.03-3.56 5.89-4.12 1.85-.57 11.46-3.15 12.51-7.75 0 0-.89 7.59-9.68 11.38 0 0 7.1-2.34 7.9-3.87 0 0-3.14 6.78-10.81 7.83 0 0 7.18-.57 8.23-2.5 0 0-3.23 4.27-8.55 4.84 0 0 4.92 2.02 6.21.32 0 0-2.66 3.15-5.97 3.39l.89.24s-3.15 3.72-6.62 1.21c-3.47-2.5-3.56.65-3.56.65"/>
    <path fill="#fff" stroke="#000" stroke-width=".67" d="M469.06 356.47s4.05 6.78 4.46 10.41c0 0 7.75 8.56 10.65 9.04 0 0-1.37.56-3.88-1.53 0 0 2.1 2.18 2.5 2.26.41.08-1.69-.16-2.01-.73 0 0 .89 1.3 1.45 1.46l-.56-.16s-1.05-.17-1.54-.57c-.48-.4-.16 1.05-.16 1.05s-1.2-.33-1.61-.73c-.4-.4.16.89.16.89l-1.05-.24-.73.48s-.08.48-.56.08c-.49-.4-1.37 0-1.37 0s-.65.57-.97.16c-.32-.4-1.55 1.56-1.55 1.56l-5.08-12.27"/>
    <path d="M473.88 378.72l-6.42-12.22.67-.36 6.42 12.23zm5.61-.82l-10.99-12.3.57-.52 11 12.31zm2.51-1.08l-12.54-11.7.52-.55 12.54 11.69z"/>
    <g transform="translate(-96.9 97.54) scale(.66486)">
      <path d="M823.44 360.84s-1.23-2.2-2.3-1.38c-1.07.83-1.69.98-1.87.92 0 0 1.07.06 1.68-.52.62-.59 1.66-.22 2.49.98zm-6.66-1.01l.69 1.42c-.07 0-.77 2.26-.77 2.26l.55.17.75-2.45c0-.22-.7-1.65-.7-1.65l-.52.25z"/>
      <path d="M823.16 360.5s-.92 1.07-2.18.77l-1.25-.31 1.78.1c.7.02 1.62-.34 1.65-.56z"/>
      <path d="M822.86 360.72s-1.13-1.2-1.9-.86c0 0 1.35-.43 2.12.73l-.22.13z"/>
      <path d="M822.67 360.5s-1.29.89-2.7-.09l-.09-.07.19-.05s1.78.73 2.6.21z"/>
      <circle cx="821.57" cy="360.28" r=".38"/>
    </g>
    <path d="M450.01 359.63s-.66 1.21-.31 1.95c.35.73 1.92 1.11 2.13 2.09.21.98.74.98 1.47.84l.87-.17s-3.07-1.65-3.88-4.3l-.27-.42z"/>
    <g fill="#964b36" stroke="#000" stroke-width=".48">
      <path stroke-width=".32" d="M549.4 334.8s5.6-7.39 10.56-5.45c4.96 1.94 8.19 2.87 8.19 2.87s.09 4.97-2.55 4.97c-2.63 0-5.16-4.96-7.56-3.48-2.4 1.47-4.37 3.49-4.53 4.18-.15.7-6.36.85-4.11-3.1z"/>
      <path stroke-width=".52" d="M528.16 370.38s-1.55 1.62-.85 2.01c.7.39 2.09-.08 2.09-.62 0-.55-.93-1.55-1.24-1.4z"/>
      <path stroke-width=".52" d="M526.92 371.92s-2.87-1.63-5.12 2.25c-2.25 3.87-4.1 10.16-5.42 11-1.32.86 12.79-6.2 12.94-9.14 0 0 .93-3.8-.54-3.72-1.47.08-1.55.23-1.86-.39z"/>
      <path stroke-width=".32" d="M527.3 372.39s-2.94.7-3.56 4.88c-.62 4.19-4.73 6.36-4.96 6.51m49.37-51.55s-4.48 1.55-3.7 4.66"/>
    </g>
    <path fill="#fff200" stroke="#000" stroke-width=".32" d="M533.74 341.3s.15-10.62 8.83-10.16c1.65.16.86 2.1.86 2.1s1.88-1.32 2.74.77c0 0 2.74-1.24 3.05 1.48 0 0 2.97-.39 2.58 2.01 0 0 2.03-.46 1.95 1.24 0 0 2.35-.93 2.11 1.47 0 0 2.58-1.7 2.2 1.4 0 0 2.65-1.86 3.58 1.24.94 3.1-2.65 9.7-6.17 11.4"/>
    <path d="M557.86 341.95c0 .08 1.17 8.3-3.5 11.32l.16.26c4.84-3.12 3.65-11.54 3.64-11.63l-.3.05zm-5.62 9l.21.23c2.96-2.88 3.6-10.63 3.61-10.95l-.3-.03c0 .08-.65 7.96-3.52 10.75zm-2.76-1.84l.3.03c.38-4.79 4.12-10.26 4.16-10.31l-.25-.17c-.04.05-3.82 5.59-4.21 10.45zm-2.17-1.4l.3.04c.54-5.77 4.35-10.1 4.39-10.15l-.23-.2c-.04.04-3.92 4.45-4.46 10.32zm-3.02-1.92h.3c.3-6.8 4.77-10.15 4.82-10.18l-.18-.25c-.05.04-4.64 3.46-4.94 10.43zm-2.8-1.7h.31c-.22-6.2 4.54-9.92 4.6-9.96l-.2-.24c-.04.04-4.93 3.84-4.7 10.2zm-5.03-2.26l.3.03a10.2 10.2 0 0 1 6.87-8.47l-.09-.3a10.5 10.5 0 0 0-7.08 8.74z"/>
    <path fill="#00a651" stroke="#000" stroke-width=".32" d="M528.62 354.17s-1.47-9.85 4.42-12.94c0 0 1.09-.24 1.7 1.16 0 0 3.11-1.32 3.19 1.31 0 0 1.55-1.24 1.94.47 0 0 3.33-.7 2.7 1.78 0 0 2.8-.77 2.57 1.63 0 0 2.79-1 2.32 1.08 0 0 2.95-.69 2.25 1.71 0 0 3.65-.38 2.56 2.17 0 0 2.71-.7 2.1 1.4 0 0 3.56.62 1.93 2.87-1.63 2.24-5.74 5.66-9.77 7.13"/>
    <path fill="#00a651" stroke="#000" stroke-width=".32" d="M525.44 364.1s-2.4-8.22 2.18-10.32c0 0 .84-.23 1 .62 0 0 1.01-1.32 1.79-.15 0 0 2.32-1.09 2.87.62 0 0 1.54-1.32 2.32.61 0 0 1.47-.61 1.47.94 0 0 2.02-.86 2.02 1 0 0 1.93-.77 1.55 1.32 0 0 2.95.47 2.1 1.86 0 0 2.63.7 1.62 1.79 0 0 2.87-.31 1.32 1.62 0 0 2.17-.7.93 1.71-1.24 2.4-5.12 5.04-7.83 5.35"/>
    <path fill="#00a651" stroke="#000" stroke-width=".32" d="M528.3 370.6s-5.1-4.96-2.7-6.43c0 0 1.08.3 1.47 1.4 0 0 1.24-1.79 1.94.07 0 0 1.86-.62 1.86.62l1.47 1.09s1.7-.16 1.4.93c0 0 1.86-.24 1.78.77 0 0 1.63.08 1.48 1.16 0 0 2.78.47 1.54 1.87 0 0-4.88 1-8.29-.4 0 0-1.79-.61-1.94-1.08z"/>
    <path d="M545.86 362.4l.1.29c3.03-1.17 8.3-8.36 8.52-8.66l-.24-.18c-.06.07-5.44 7.42-8.38 8.55zm-1.73-1.3l.15.26c2.64-1.47 7.9-8.43 8.11-8.72l-.24-.19c-.05.08-5.44 7.2-8.02 8.64zm-1.5-.62l.2.24c2.79-2.32 6.85-9.95 7.02-10.28l-.27-.14c-.04.08-4.2 7.9-6.94 10.18zm-1.36-1.76l.3.04c.53-3.86 5.95-9.94 6-10l-.22-.2c-.22.25-5.54 6.2-6.08 10.16zm-10.86-4.7l.3-.02c-.45-5.45 4.11-11.46 4.16-11.52l-.24-.19c-.05.06-4.68 6.16-4.22 11.74zm2.87.48l.3-.05c-.75-4.37 4.41-10.59 4.47-10.65l-.24-.2c-.21.26-5.3 6.39-4.53 10.9zm4.42 1.61h.3c-.15-5 4.64-10 4.69-10.05l-.22-.21c-.05.05-4.93 5.14-4.77 10.26zm-10.54 9.05l.3-.11c-1.75-4.61 1.27-10.52 1.3-10.58l-.27-.14c-.03.06-3.11 6.09-1.33 10.83zm2.01.3l.3-.1c-1.52-4.7 1.05-11 1.08-11.05l-.29-.12c-.02.06-2.63 6.46-1.09 11.26zm8.31 4.69l.1.29c4.96-1.78 8.19-6.3 8.22-6.34l-.25-.17c-.03.04-3.2 4.48-8.07 6.22zm-1.01-1.08l.12.28c3.95-1.78 7.62-6.74 7.66-6.8l-.24-.17c-.04.05-3.67 4.94-7.54 6.7zm-.96-.37l.18.25c3.08-2.24 7.05-7.97 7.09-8.03l-.25-.17c-.04.06-3.97 5.74-7.02 7.95zm-4.95-2.88l.3-.04c-.68-4.93 2.51-10.78 2.55-10.84l-.27-.15c-.03.06-3.27 6-2.58 11.03zm2.15 1.34l.2.22c3.19-2.87 4.27-10.62 4.32-10.94l-.3-.05c-.02.08-1.12 7.97-4.22 10.77z"/>
    <path d="M534.9 368.07l.17.25c4.5-3.25 5.71-9.49 5.72-9.55l-.3-.06c0 .06-1.2 6.18-5.6 9.37zm.51-13.45c0 .3.01.59.04.88l-3.4 11.03.28.09 3.42-11.09c-.53-5.36 4.19-11.2 4.23-11.27l-.23-.19c-.05.06-4.34 5.38-4.34 10.55z"/>
    <path d="M538.97 357.32c-.04.16-1.08 7.73-5.16 10.52l.17.25c4.2-2.87 5.22-10.33 5.26-10.65 1.81-2.15 5.99-9.71 6.03-9.79l-.27-.15c-.04.08-4.2 7.62-6.03 9.82zm-12.05 8.28c.03.15.71 3.92 1.5 5.24l.26-.15c-.76-1.28-1.45-5.1-1.46-5.15l-.3.06zm1.93.04c.04 1.87.05 4.95-.06 5.22l.29.11c.15-.4.1-4.51.08-5.33h-.3z"/>
    <path d="M529.03 371l.28.13c1.3-2.85 1.7-4.82 1.71-4.84l-.3-.06c0 .02-.4 1.96-1.7 4.78z"/>
    <path d="M529.32 371.1l.15.26a6.58 6.58 0 0 0 3.02-3.98l-.3-.06c0 .02-.56 2.43-2.87 3.77zM529.77 371.3l.03.3c2.39-.23 4-3.12 4.08-3.25l-.27-.14c-.02.03-1.62 2.87-3.84 3.1z"/>
    <path d="M530.01 371.46l.02.3c3.83-.23 5.55-2.52 5.62-2.61l-.25-.18c-.02.01-1.71 2.26-5.39 2.49z"/>
    <path d="M530.28 371.54l-.06.3c.2.04 5.08 1.08 6.75-1.46l-.26-.17c-1.55 2.37-6.38 1.34-6.43 1.33z"/>
    <path fill="none" stroke="#000" stroke-width="2.79" d="M420.89 193.24v136.35c0 44.6 80.58 71.08 80.58 71.08s80.58-26.48 80.58-71.08V193.24z"/>
  </g>
  <path fill="#002868" d="M0 0v240.34h358.04V0H0z"/>
  <path fill="#fff" d="M0 0v26.87l138.99 93.3L0 213.47v26.87h40.03l138.99-93.3 138.99 93.3h40.03v-26.87l-139-93.3 139-93.3V0H318L179.02 93.3 40.03 0H0z" color="#000" font-family="sans-serif" font-weight="400" overflow="visible" white-space="normal" style="line-height:normal;text-indent:0;text-align:start;text-decoration-line:none;text-decoration-style:solid;text-decoration-color:#000;text-transform:none;block-progression:tb;isolation:auto;mix-blend-mode:normal"/>
  <path fill="#ce1126" d="M0 0v14.87l169.72 84.86L0 184.59v14.87h29.73l169.73-84.86 169.72 84.86h29.74v-14.87L229.19 99.73l169.73-84.86V0h-29.74L199.46 84.86 29.73 0H0z" color="#000" font-family="sans-serif" font-weight="400" overflow="visible" transform="scale(.89752 1.20495)" white-space="normal" style="line-height:normal;text-indent:0;text-align:start;text-decoration-line:none;text-decoration-style:solid;text-decoration-color:#000;text-transform:none;block-progression:tb;isolation:auto;mix-blend-mode:normal"/>
  <path fill="#fff" d="M149.18 0v80.11H0v80.12h149.18v80.1h59.67v-80.1h149.19V80.1H208.85V0h-59.67z" color="#000" font-family="sans-serif" font-weight="400" overflow="visible" white-space="normal" style="line-height:normal;text-indent:0;text-align:start;text-decoration-line:none;text-decoration-style:solid;text-decoration-color:#000;text-transform:none;block-progression:tb;isolation:auto;mix-blend-mode:normal"/>
  <path fill="#ce1126" d="M161.12 0v96.14H0v48.06h161.12v96.14h35.8V144.2h161.12V96.14H196.92V0h-35.8z" color="#000" font-family="sans-serif" font-weight="400" overflow="visible" white-space="normal" style="line-height:normal;text-indent:0;text-align:start;text-decoration-line:none;text-decoration-style:solid;text-decoration-color:#000;text-transform:none;block-progression:tb;isolation:auto;mix-blend-mode:normal"/>
</svg>
