<svg xmlns="http://www.w3.org/2000/svg" xmlns:xlink="http://www.w3.org/1999/xlink" id="flag-icon-css-gb-nir" width="640" height="480">
  <rect width="640" height="480" fill="#fff" fill-rule="evenodd" rx="0" ry="0"/>
  <rect id="a" width="640" height="96" y="192" fill="#c00" fill-rule="evenodd" rx="0" ry="0"/>
  <use width="600" height="300" transform="matrix(0 .75 -1 0 560 0)" xlink:href="#a"/>
  <path fill="#ebeae3" fill-rule="evenodd" stroke="#000" stroke-width=".52" d="M355.2 146.61c3.08-4.82 1.24-7.93-3.42-8.9 0 0-14.86 4.77-30.92 5.3-16.06.52-35.13-4.04-35.13-4.04-3.42 2.14-2.59 7.24-.9 10.42 0 0 16.82 5.58 35.95 5.03 12.16-.35 23.67-3.45 30.13-5.5 3.71-1.18 4.3-2.26 4.3-2.31z"/>
  <path fill="#fff" stroke="#161111" stroke-width="1.6" d="M320 357.55l-30.86-64.1-70.94 5.33L258.29 240l-40.1-58.78 70.95 5.33 30.86-64.1 30.86 64.1 70.94-5.33L381.71 240l40.1 58.78-70.95-5.33z"/>
  <path fill="#b02320" fill-rule="evenodd" stroke="#000" stroke-width="1.3" d="M319.54 122.23c38.76 6.39 37.38 8.2 37.38 8.2l10.11-30.25s1.07-5.96-1.7-9.58S354.8 89 354.8 89s-1.07-4.9-4.47-6.07c-3.41-1.17-16.08 4.58-20.02 5.86-3.94 1.28-5.97 2.55-11.5 2.45-5.54-.1-15.45-5-17.26-5.97-1.8-.95-4.47-1.91-6.92-1.8-2.45.1-5 .74-6.28 2.44-1.28 1.7-1.28 3.84-1.28 3.84s-2.03-1.28-5.22-1.28c-3.2 0-5 .42-6.5 2.13-1.49 1.7-3.4 6.5-3.4 6.5l3.62 8.2.21 11.28 7.56 11.93 36.2-6.28z"/>
  <path fill="#ebeae3" fill-rule="evenodd" stroke="#000" stroke-width=".52" d="M355.67 139.31s1.96 2.33 1.88 3.16c-.07.82-.9 1.57-.9 1.57s.6.6.45 1.5c-.15.9-1.35.98-1.35.98s.22.83-.53 1.2c-.75.38-3.83 1.05-3.83 1.05s-15-4.28-31.07-4.28-34.99 5.18-34.99 5.18-1.95-.67-2.02-1.95c-.08-1.27.22-2.17.22-2.17s-1.07.1-1.35-.83c-.4-1.31.15-2.33.15-2.33s-.74.24.08-1.5c.6-1.27 1.5-1.72 1.5-1.72s16.81-6.01 35.96-6.08c19.14-.08 35.8 6.08 35.8 6.23z"/>
  <path fill="none" stroke="#000" stroke-width="1.15" d="M276.23 101.5s-.64-2.18.77-4.1a4.28 4.28 0 0 1 4.74-1.42c.77.39.64 1.29 1.67 1.54 1.02.26 1.8-.51 1.8-.51"/>
  <path fill="#fc0" fill-opacity=".94" fill-rule="evenodd" stroke="#000" stroke-width="1.2" d="M369.82 106.6L364 118.64l-2.29.4s-1.4-.83-5.38-.56c-2.85.2-3.7.93-3.7.93l5.19-12s.4 2.57 1 4.09c.77 1.92 3.66 3.73 3.66 3.73s.4-2.3-.37-5.1a55.87 55.87 0 0 0-2.8-7.27l10.52 3.74z"/>
  <path fill="#121116" stroke="#121116" stroke-linejoin="round" stroke-width="1.17" d="M316.5 69.16h6.5v27.7h-6.5z"/>
  <path fill="#f6ca1f" fill-rule="evenodd" stroke="#000" stroke-width=".99" d="M276.56 120.23l4.18 8.96s17.81-6.94 38.84-6.81c31.53.2 40.49 6.52 40.49 6.52l4.67-11.1-3.5 2.05-3.6 2.23-4.1 1.56-4.96-.39-4.38-3.2-2.24-4.68-3.7 3.4-6.52 1.47-6.42-1.66-5.64-7.1s-4.2 7.9-9.54 8.37c-7.7.68-12.17-3.7-12.17-3.7s-2.86 6.42-7.59 7.59c-7.5 1.85-13.72-3.5-13.82-3.5z"/>
  <g stroke-width="2.24">
    <path fill="#eee" stroke="#1e1e1e" stroke-linejoin="round" stroke-width="1.17" d="M348.45 65.65c0 1.88-1.5 3.4-3.36 3.4a3.39 3.39 0 0 1-3.37-3.39 3.39 3.39 0 0 1 3.34-3.42 3.39 3.39 0 0 1 3.39 3.38"/>
    <path fill="#a3afb8" fill-rule="evenodd" d="M343.51 67.4s2.72-.05 3-1.15c.28-1.11-.18-2.54-.18-2.54s1.29 1.43.92 2.54c-.37 1.1-.73 1.39-1.66 1.61-.63.15-1.57-.1-2.08-.46z"/>
    <path fill="#eee" stroke="#1e1e1e" stroke-linejoin="round" stroke-width="1.17" d="M340.27 69.47c0 1.88-1.5 3.4-3.36 3.41a3.39 3.39 0 0 1-3.37-3.4 3.39 3.39 0 0 1 3.35-3.42 3.39 3.39 0 0 1 3.38 3.38"/>
    <path fill="#a3afb8" fill-rule="evenodd" d="M335.34 71.22s2.72-.05 3-1.15c.27-1.1-.19-2.54-.19-2.54s1.3 1.43.92 2.54c-.37 1.1-.73 1.39-1.66 1.61-.63.15-1.56-.1-2.07-.46z"/>
    <path fill="#eee" stroke="#1e1e1e" stroke-linejoin="round" stroke-width="1.17" d="M357.94 63.4c0 1.89-1.5 3.41-3.36 3.42a3.39 3.39 0 0 1-3.37-3.4 3.39 3.39 0 0 1 3.34-3.43 3.39 3.39 0 0 1 3.39 3.39"/>
    <path fill="#a3afb8" fill-rule="evenodd" d="M353 65.16s2.73-.05 3-1.16c.28-1.1-.18-2.53-.18-2.53s1.29 1.43.92 2.53c-.37 1.11-.73 1.4-1.66 1.62-.63.15-1.57-.1-2.07-.46z"/>
    <path fill="#eee" stroke="#1e1e1e" stroke-linejoin="round" stroke-width="1.17" d="M368.63 65.56c0 1.88-1.5 3.4-3.36 3.4a3.39 3.39 0 0 1-3.37-3.39 3.39 3.39 0 0 1 3.35-3.42 3.39 3.39 0 0 1 3.38 3.38"/>
    <path fill="#a3afb8" fill-rule="evenodd" d="M363.7 67.3s2.72-.04 3-1.14c.27-1.11-.19-2.54-.19-2.54s1.3 1.43.92 2.54c-.37 1.1-.73 1.39-1.66 1.61-.63.15-1.56-.1-2.07-.46z"/>
    <path fill="#eee" stroke="#1e1e1e" stroke-linejoin="round" stroke-width="1.17" d="M376.78 72.27c0 1.88-1.5 3.41-3.36 3.41a3.39 3.39 0 0 1-3.37-3.4 3.39 3.39 0 0 1 3.34-3.42 3.39 3.39 0 0 1 3.39 3.39"/>
    <path fill="#a3afb8" fill-rule="evenodd" d="M371.85 74.02s2.72-.04 3-1.15c.27-1.1-.19-2.53-.19-2.53s1.29 1.42.92 2.53c-.37 1.1-.73 1.4-1.66 1.61-.63.15-1.57-.09-2.07-.46z"/>
    <path fill="#eee" stroke="#1e1e1e" stroke-linejoin="round" stroke-width="1.17" d="M380.3 83.29c0 1.88-1.5 3.4-3.36 3.41a3.39 3.39 0 0 1-3.37-3.4 3.39 3.39 0 0 1 3.35-3.42 3.39 3.39 0 0 1 3.38 3.38"/>
    <path fill="#a3afb8" fill-rule="evenodd" d="M375.37 85.04s2.72-.05 3-1.15c.27-1.1-.19-2.54-.19-2.54s1.3 1.43.92 2.54c-.37 1.1-.73 1.4-1.66 1.61-.63.15-1.56-.09-2.07-.46z"/>
    <path fill="#eee" stroke="#1e1e1e" stroke-linejoin="round" stroke-width="1.17" d="M379 94.44c0 1.88-1.5 3.4-3.36 3.4a3.39 3.39 0 0 1-3.37-3.39 3.39 3.39 0 0 1 3.34-3.42A3.39 3.39 0 0 1 379 94.4"/>
    <path fill="#a3afb8" fill-rule="evenodd" d="M374.06 96.19s2.72-.05 3-1.15c.28-1.1-.18-2.54-.18-2.54s1.29 1.43.92 2.54c-.37 1.1-.73 1.39-1.66 1.61-.63.15-1.57-.1-2.08-.46z"/>
    <path fill="#eee" stroke="#1e1e1e" stroke-linejoin="round" stroke-width="1.17" d="M374.04 104.22c0 1.88-1.5 3.4-3.36 3.4a3.39 3.39 0 0 1-3.37-3.39 3.39 3.39 0 0 1 3.35-3.42 3.39 3.39 0 0 1 3.38 3.38"/>
    <path fill="#a3afb8" fill-rule="evenodd" d="M369.11 105.97s2.72-.05 3-1.15c.27-1.11-.19-2.54-.19-2.54s1.3 1.43.92 2.54c-.37 1.1-.73 1.39-1.66 1.61-.63.15-1.56-.1-2.07-.46z"/>
    <path fill="#eee" stroke="#1e1e1e" stroke-linejoin="round" stroke-width="1.17" d="M332.32 72.4c0 1.88-1.5 3.41-3.36 3.41a3.39 3.39 0 0 1-3.37-3.4 3.39 3.39 0 0 1 3.34-3.42 3.39 3.39 0 0 1 3.39 3.39"/>
    <path fill="#a3afb8" fill-rule="evenodd" d="M327.38 74.15s2.72-.04 3-1.15c.28-1.1-.18-2.53-.18-2.53s1.29 1.43.92 2.53c-.37 1.1-.73 1.4-1.66 1.61-.63.15-1.57-.09-2.07-.46z"/>
    <g stroke-width="2.68">
      <path fill="#eee" stroke="#1e1e1e" stroke-linejoin="round" stroke-width="1.17" d="M322.15 71.53a2.83 2.83 0 0 1-2.8 2.85 2.83 2.83 0 0 1-2.83-2.84 2.83 2.83 0 0 1 2.8-2.86 2.83 2.83 0 0 1 2.83 2.83"/>
      <path fill="#a3afb8" fill-rule="evenodd" d="M318.03 73s2.27-.04 2.5-.97c.23-.92-.15-2.12-.15-2.12s1.08 1.2.77 2.12c-.31.93-.61 1.17-1.39 1.35a2.45 2.45 0 0 1-1.73-.38z"/>
    </g>
    <g stroke-width="2.68">
      <path fill="#eee" stroke="#1e1e1e" stroke-linejoin="round" stroke-width="1.17" d="M322.18 75.08a2.83 2.83 0 0 1-2.8 2.85 2.83 2.83 0 0 1-2.82-2.84 2.83 2.83 0 0 1 2.8-2.87 2.83 2.83 0 0 1 2.82 2.83"/>
      <path fill="#a3afb8" fill-rule="evenodd" d="M318.06 76.54s2.27-.04 2.5-.96c.23-.93-.15-2.12-.15-2.12s1.08 1.2.77 2.12c-.3.92-.61 1.16-1.39 1.35a2.45 2.45 0 0 1-1.73-.39z"/>
    </g>
    <g stroke-width="2.68">
      <path fill="#eee" stroke="#1e1e1e" stroke-linejoin="round" stroke-width="1.17" d="M322.38 80.29a2.84 2.84 0 0 1-2.81 2.85 2.83 2.83 0 0 1-2.82-2.84 2.83 2.83 0 0 1 2.8-2.86 2.83 2.83 0 0 1 2.83 2.83"/>
      <path fill="#a3afb8" fill-rule="evenodd" d="M318.25 81.76s2.28-.04 2.51-.97c.23-.92-.15-2.12-.15-2.12s1.07 1.2.77 2.12c-.31.93-.61 1.17-1.4 1.35a2.45 2.45 0 0 1-1.73-.38z"/>
    </g>
    <g stroke-width="2.48">
      <path fill="#eee" stroke="#1e1e1e" stroke-linejoin="round" stroke-width="1.17" d="M322.67 85.83c0 1.7-1.36 3.08-3.04 3.09a3.07 3.07 0 0 1-3.05-3.08c0-1.7 1.35-3.08 3.03-3.1a3.06 3.06 0 0 1 3.06 3.07"/>
      <path fill="#a3afb8" fill-rule="evenodd" d="M318.21 87.42s2.46-.05 2.71-1.05-.17-2.29-.17-2.29 1.17 1.3.84 2.3c-.34 1-.66 1.25-1.5 1.45a2.65 2.65 0 0 1-1.88-.41z"/>
    </g>
    <path fill="#eee" stroke="#1e1e1e" stroke-linejoin="round" stroke-width="1.17" d="M323 93.27c0 1.88-1.5 3.4-3.36 3.4a3.39 3.39 0 0 1-3.37-3.4 3.39 3.39 0 0 1 3.34-3.42 3.39 3.39 0 0 1 3.38 3.39"/>
    <path fill="#a3afb8" fill-rule="evenodd" d="M318.06 95.02s2.72-.05 3-1.16c.28-1.1-.18-2.53-.18-2.53s1.29 1.43.92 2.53c-.37 1.11-.73 1.4-1.66 1.62-.63.15-1.57-.1-2.08-.46z"/>
    <g stroke-width="2.39">
      <path fill="#eee" stroke="#1e1e1e" stroke-linejoin="round" stroke-width="1.17" d="M322.66 108.52c0 1.76-1.41 3.2-3.16 3.2a3.18 3.18 0 0 1-3.16-3.19c-.01-1.77 1.4-3.2 3.14-3.22a3.18 3.18 0 0 1 3.18 3.18"/>
      <path fill="#a3afb8" fill-rule="evenodd" d="M318.02 110.16s2.56-.04 2.82-1.08c.26-1.04-.17-2.38-.17-2.38s1.2 1.34.86 2.38c-.34 1.04-.68 1.3-1.56 1.52-.59.14-1.47-.1-1.95-.44z"/>
    </g>
    <path fill="#eee" stroke="#1e1e1e" stroke-linejoin="round" stroke-width="1.17" d="M313.55 72.31c0 1.88-1.5 3.4-3.36 3.41a3.39 3.39 0 0 1-3.37-3.4 3.39 3.39 0 0 1 3.35-3.42 3.39 3.39 0 0 1 3.38 3.38"/>
    <path fill="#a3afb8" fill-rule="evenodd" d="M308.62 74.06s2.72-.04 3-1.15c.27-1.1-.19-2.53-.19-2.53s1.3 1.42.92 2.53c-.37 1.1-.73 1.4-1.66 1.61-.63.15-1.56-.09-2.07-.46z"/>
    <path fill="#eee" stroke="#1e1e1e" stroke-linejoin="round" stroke-width="1.17" d="M305.2 69.02c0 1.88-1.5 3.4-3.35 3.41a3.39 3.39 0 0 1-3.37-3.4 3.39 3.39 0 0 1 3.34-3.42 3.39 3.39 0 0 1 3.39 3.39"/>
    <path fill="#a3afb8" fill-rule="evenodd" d="M300.28 70.77s2.72-.04 3-1.15c.27-1.1-.2-2.54-.2-2.54s1.3 1.43.93 2.54c-.37 1.1-.73 1.4-1.66 1.61-.63.15-1.57-.09-2.07-.46z"/>
    <path fill="#eee" stroke="#1e1e1e" stroke-linejoin="round" stroke-width="1.17" d="M297.22 65.26c0 1.88-1.5 3.4-3.36 3.41a3.39 3.39 0 0 1-3.37-3.4 3.39 3.39 0 0 1 3.34-3.42 3.39 3.39 0 0 1 3.39 3.38"/>
    <path fill="#a3afb8" fill-rule="evenodd" d="M292.29 67.01s2.72-.04 3-1.15c.27-1.1-.2-2.54-.2-2.54s1.3 1.43.93 2.54c-.37 1.1-.73 1.4-1.66 1.61-.63.15-1.57-.09-2.07-.46z"/>
    <path fill="#eee" stroke="#1e1e1e" stroke-linejoin="round" stroke-width="1.17" d="M288.05 63.26c0 1.89-1.5 3.41-3.36 3.42a3.39 3.39 0 0 1-3.37-3.4 3.39 3.39 0 0 1 3.35-3.43 3.39 3.39 0 0 1 3.38 3.39"/>
    <path fill="#a3afb8" fill-rule="evenodd" d="M283.12 65.02s2.72-.05 3-1.16c.27-1.1-.19-2.53-.19-2.53s1.3 1.43.92 2.53c-.37 1.1-.73 1.4-1.66 1.62-.63.15-1.56-.1-2.07-.46z"/>
    <path fill="#eee" stroke="#1e1e1e" stroke-linejoin="round" stroke-width="1.17" d="M277.24 65.85c0 1.88-1.5 3.4-3.36 3.41a3.39 3.39 0 0 1-3.37-3.4 3.4 3.4 0 0 1 3.35-3.42 3.39 3.39 0 0 1 3.38 3.38"/>
    <path fill="#a3afb8" fill-rule="evenodd" d="M272.3 67.6s2.73-.05 3-1.15c.28-1.1-.18-2.54-.18-2.54s1.3 1.43.92 2.54c-.37 1.1-.73 1.39-1.66 1.61-.63.15-1.56-.1-2.07-.46z"/>
    <path fill="#eee" stroke="#1e1e1e" stroke-linejoin="round" stroke-width="1.17" d="M269.6 73.49c0 1.88-1.5 3.4-3.36 3.4a3.39 3.39 0 0 1-3.37-3.39 3.39 3.39 0 0 1 3.35-3.42 3.39 3.39 0 0 1 3.38 3.38"/>
    <path fill="#a3afb8" fill-rule="evenodd" d="M264.67 75.24s2.72-.05 3-1.15c.27-1.11-.19-2.54-.19-2.54s1.3 1.43.92 2.54c-.36 1.1-.73 1.39-1.66 1.61-.63.15-1.56-.1-2.07-.46z"/>
    <path fill="#eee" stroke="#1e1e1e" stroke-linejoin="round" stroke-width="1.17" d="M266.43 84.18c0 1.88-1.5 3.4-3.36 3.41a3.39 3.39 0 0 1-3.37-3.4 3.39 3.39 0 0 1 3.34-3.42 3.39 3.39 0 0 1 3.39 3.38"/>
    <path fill="#a3afb8" fill-rule="evenodd" d="M261.5 85.93s2.72-.04 3-1.15c.27-1.1-.2-2.54-.2-2.54s1.3 1.43.93 2.54c-.37 1.1-.73 1.4-1.66 1.61-.63.15-1.57-.09-2.07-.46z"/>
    <path fill="#eee" stroke="#1e1e1e" stroke-linejoin="round" stroke-width="1.17" d="M267.84 95.34c0 1.89-1.5 3.41-3.36 3.42a3.39 3.39 0 0 1-3.37-3.4 3.39 3.39 0 0 1 3.34-3.43 3.39 3.39 0 0 1 3.39 3.39"/>
    <path fill="#a3afb8" fill-rule="evenodd" d="M262.9 97.1s2.73-.05 3-1.16c.28-1.1-.18-2.53-.18-2.53s1.29 1.43.92 2.53c-.37 1.11-.73 1.4-1.66 1.62-.63.15-1.57-.1-2.07-.46z"/>
    <path fill="#eee" stroke="#1e1e1e" stroke-linejoin="round" stroke-width="1.17" d="M273.01 105.45c0 1.88-1.5 3.4-3.36 3.41a3.39 3.39 0 0 1-3.37-3.4 3.39 3.39 0 0 1 3.35-3.42 3.39 3.39 0 0 1 3.38 3.38"/>
    <path fill="#a3afb8" fill-rule="evenodd" d="M268.08 107.2s2.72-.04 3-1.15c.27-1.1-.19-2.54-.19-2.54s1.29 1.43.92 2.54c-.37 1.1-.73 1.4-1.66 1.61-.63.15-1.57-.09-2.07-.46z"/>
    <g stroke-width="2.83">
      <path fill="#eee" stroke="#1e1e1e" stroke-linejoin="round" d="M430.63 247.41a6.5 6.5 0 0 1-6.44 6.54 6.5 6.5 0 0 1-6.47-6.51 6.5 6.5 0 0 1 6.42-6.57 6.5 6.5 0 0 1 6.49 6.49" transform="matrix(.31597 -.08466 .13499 .50378 109.39 30)"/>
      <path fill="#a3afb8" fill-rule="evenodd" d="M276.32 120.68s1.63-.49 1.51-1.6c-.11-1.12-.76-2.42-.76-2.42s1.15 1.17 1.21 2.3c.07 1.13-.08 1.46-.58 1.82-.35.25-.98.17-1.38-.1z"/>
    </g>
    <g stroke-width="2.83">
      <path fill="#eee" stroke="#1e1e1e" stroke-linejoin="round" d="M430.63 247.41a6.5 6.5 0 0 1-6.44 6.54 6.5 6.5 0 0 1-6.47-6.51 6.5 6.5 0 0 1 6.42-6.57 6.5 6.5 0 0 1 6.49 6.49" transform="matrix(.31758 .0784 -.125 .50636 259.93 -40.2)"/>
      <path fill="#a3afb8" fill-rule="evenodd" d="M362.34 119.8s1.67.36 2.1-.67c.44-1.04.5-2.5.5-2.5s.44 1.59-.05 2.6c-.49 1.03-.78 1.25-1.4 1.32-.42.05-.93-.32-1.15-.76z"/>
    </g>
  </g>
  <path fill="#b3a192" fill-rule="evenodd" stroke="#000" stroke-width="1.17" d="M316.72 53.81l.24 5.7s-6.75.6-7.03 1.21c-1.31 2.95 1.58 6.92 1.58 6.92s2.27-1.7 8-1.7c5.46 0 8.25 1.33 8.25 1.33s1.45-2.3 1.45-4c0-1.7-.6-3.4-.6-3.4s-2.8-.36-3.64-.36h-2.43l-.24-5.82-5.58.12z"/>
  <path fill="#f0ddcb" stroke="#121116" stroke-linejoin="round" stroke-width=".6" d="M326.36 62.65c0 .64-.54 1.16-1.2 1.16-.68 0-1.22-.51-1.22-1.15 0-.64.54-1.16 1.2-1.17.67 0 1.21.51 1.22 1.15m2.78.63c0 .67-.56 1.21-1.26 1.21s-1.26-.53-1.26-1.2c0-.67.56-1.21 1.25-1.22.7 0 1.27.54 1.27 1.2m-5.57-.65c0 .64-.54 1.16-1.2 1.16-.67 0-1.22-.52-1.22-1.16 0-.64.54-1.16 1.2-1.16.67 0 1.21.51 1.22 1.15m-5.59.07c0 .67-.56 1.2-1.25 1.2-.7 0-1.26-.53-1.26-1.2 0-.66.55-1.2 1.25-1.2.69 0 1.26.53 1.26 1.2m-3.1.2c0 .67-.56 1.21-1.26 1.22-.7 0-1.26-.54-1.26-1.2 0-.67.56-1.21 1.25-1.22.7 0 1.26.53 1.27 1.2m5.7-3.48c0 .56-.48 1.02-1.07 1.02-.58 0-1.06-.45-1.06-1.02 0-.56.47-1.01 1.06-1.02.58 0 1.06.45 1.06 1.01m0-4.72c0 .56-.47 1.02-1.06 1.02-.58 0-1.06-.45-1.06-1.01 0-.57.47-1.02 1.06-1.03.58 0 1.06.45 1.06 1.01m0 2.56c0 .56-.47 1.01-1.06 1.01-.58 0-1.06-.45-1.06-1 0-.57.47-1.03 1.06-1.03.58 0 1.06.45 1.06 1m-8.84 6.53c0 .65-.54 1.17-1.2 1.17-.68 0-1.22-.52-1.22-1.16 0-.64.53-1.17 1.2-1.17.67 0 1.22.51 1.22 1.15"/>
  <path fill="#916c68" stroke="#4d3126" stroke-linejoin="round" stroke-width=".6" d="M320.85 62.36c0 .7-.6 1.27-1.34 1.27a1.3 1.3 0 0 1-1.33-1.26c0-.7.59-1.28 1.32-1.28.74 0 1.34.56 1.34 1.26"/>
  <g stroke-width="2.53">
    <path fill="#eee" stroke="#1e1e1e" stroke-linejoin="round" stroke-width="1.17" d="M322.06 45.45a2.5 2.5 0 0 1-2.48 2.52 2.5 2.5 0 0 1-2.5-2.51 2.5 2.5 0 0 1 2.48-2.54 2.5 2.5 0 0 1 2.5 2.51"/>
    <path fill="#a3afb8" fill-rule="evenodd" d="M318.41 46.75s2.01-.04 2.22-.86c.2-.82-.14-1.87-.14-1.87s.96 1.05.69 1.87c-.28.82-.55 1.03-1.23 1.2a2.16 2.16 0 0 1-1.54-.34z"/>
  </g>
  <path fill="#fc0" fill-rule="evenodd" stroke="#000" stroke-width=".52" d="M279.97 130.13s2.22 2.08 2.81 3.93c.6 1.85 1.48 6.82 1.48 6.82s23.26-6.45 34.67-5.93c11.4.52 37.7 6.3 37.7 6.3s.44-2.82.96-5.78c.52-2.96 2.67-6.22 2.67-6.22s-25.11-7.86-40.96-7.11c-15.85.74-23.78 2.44-27.33 3.55a258.48 258.48 0 0 0-12 4.44z"/>
  <path fill="#fc0" fill-rule="evenodd" stroke="#000" stroke-width="1.17" d="M314.66 36.05h10s-2.46 1.7-2.97 3.33c-.43 1.4-.3 3.7-.3 3.7s2.73 0 3.94-1.03a78.85 78.85 0 0 1 3.76-2.85v12.73s-2.45-2.37-3.94-3.15a14.44 14.44 0 0 0-3.58-1.27s0 2.06.85 3.27 4.25 5.82 4.25 5.82l-14.31.55s3.4-3.58 4.79-6.19c.9-1.7.54-3.45.54-3.45s-2.42 0-3.63.85c-1.22.84-3.34 3.39-3.34 3.39V39.5s.91 2.37 2.91 3.28c2 .9 3.88.42 3.88.42s.39-2.44-.42-3.94c-.84-1.55-2.61-3.27-2.43-3.21z"/>
  <path fill="#fc0" fill-rule="evenodd" stroke="#121116" stroke-width="1.17" d="M313.88 76.45s-7.12-.09-13.2-3.69c-6.1-3.6-12.24-7.37-21.27-5.23-1.85.44-8.66 3.43-11.66 13.12-2.1 6.8.34 15 2.48 18.7a50.18 50.18 0 0 0 5.6 7.42l3.68-2.5s-9.36-7.93-8.25-18.22c1.12-10.29 6.26-12.69 6.26-12.69s6.35-4.97 14.84-.25c8.48 4.71 16.8 6.85 16.8 6.85s7.8 1.89 8.49 1.8c.69-.08-3.94-5.4-3.77-5.31z"/>
  <path fill="#fc0" fill-rule="evenodd" stroke="#000" stroke-width="1.2" d="M274.51 115.04l-3.78-7.43 11.35-4.44s-2.74 3.65-3.4 6.26c-.79 3.19-.51 5.87-.51 5.87s1.04-.78 2.34-2.87c1-1.58 2.61-7.3 2.61-7.3l5.09 16.3c.04.04-2.62-2.62-4.48-2.93-2.1-.36-4.65.32-4.65.32l-3 .91-1.56-4.7z"/>
  <path fill="#fc0" fill-rule="evenodd" stroke="#121116" stroke-width="1.17" d="M326.7 76.31s7.12-.08 13.2-3.68c6.1-3.6 12.24-7.38 21.27-5.23 1.85.44 8.66 3.43 11.66 13.12 2.1 6.8-.34 15-2.48 18.69a116.7 116.7 0 0 1-3.6 5.85l-4.42-1.58s8.1-7.27 6.99-17.56c-1.12-10.3-6.26-12.7-6.26-12.7s-6.35-4.97-14.84-.25c-8.48 4.72-16.8 6.86-16.8 6.86s-7.8 1.89-8.49 1.8c-.69-.09 3.94-5.4 3.77-5.32z"/>
  <path fill="#fc0" stroke="#121116" stroke-linejoin="round" stroke-width="1.17" d="M323.03 69.27H326v27.7h-2.97zm-10-.12h3.51v27.7h-3.52z"/>
  <path fill="#fc0" stroke="#121116" stroke-linejoin="round" stroke-width="1.17" d="M329.21 62.72c0 4.92-4.33 8.9-9.68 8.92-5.35 0-9.7-3.97-9.72-8.88-.02-4.92 4.3-8.92 9.64-8.95 5.35-.03 9.72 3.93 9.76 8.84"/>
  <path fill="#fc0" fill-rule="evenodd" stroke="#000" stroke-width=".99" d="M310.9 96.75l16.69-.14s-1.96 1.17-3.64 4.15c-1.68 2.99-1.44 4.88-1.44 4.88s2.54-.04 4.32-1.34a25.9 25.9 0 0 0 3.78-3.74l-.07 15.37s-1.2-1.95-3.2-3.12c-1.98-1.17-4.8-1.17-4.8-1.17h-5.7s-2.6.16-3.77.93a28.98 28.98 0 0 0-3.7 3.2l-.28-14.53s.82 2.54 3.5 3.57c2.68 1.03 4.19.9 4.19.9s0-3.27-1.38-4.95c-1.37-1.68-4.5-3.94-4.5-4.01z"/>
  <path fill="#f6ca1f" fill-rule="evenodd" stroke="#000" stroke-width=".94" d="M320.2 108.82s2.44 5.7 5.28 8.21c1.65 1.46 6.62 2.56 8.86 2 5.05-1.3 8.52-5.33 8.52-5.33s-.18 4.42 2.98 6.86c3.16 2.43 5.68 3.07 8.3 2.34 2.62-.72 10.02-6.22 10.02-6.22l1.54 1.35s-4.25 4.12-8.71 6.3c-2.3 1.14-9.27.51-11.53-1.3-2.25-1.8-3.6-6.17-3.6-6.17s-1.38 2.8-4.36 3.8c-2.98 1-7.08.95-10.88-.16-2.55-.75-5.88-4.28-6.5-5.45-.64-1.17-.46-1.8-.46-1.8s-1.88 5.37-5.78 6.83a18.67 18.67 0 0 1-11.45.37c-3.61-1.04-3.9-3.05-3.9-3.05s-.26 5.68-8.12 7.3c-7.85 1.63-14.08-4.14-14.08-4.14l1.08-1.63s4.43 4.97 11.2 4.52c6.77-.46 9.02-9.12 9.02-9.12s2.98 4.51 10.93 4.6c7.94.1 10.2-10.29 10.2-10.29l1.44.18z"/>
  <g fill="#fc0" stroke="#000" stroke-width="1.15">
    <path fill-rule="evenodd" d="M300.63 112.13s.06-2.76.65-3.6c.85-1.17 2-1.22 2.58-1.05.72.2 1.47.85 1.35 2.77-.13 1.93-.66 2.87-.09 3.6.58.74.66 1.23 1.76 1.06 1.1-.16 1.6-.53 1.35-1.55s-.57.08-.78-.78c-.2-.85 1.07-4.56.86-6.86-.2-2.25-1.06-4.04-2.78-4.5-1.61-.42-2.98-.4-4.5.7-1.44 1.06-3.3 4.53-3.3 4.53l-.04 7.44 3.02-.16-.08-1.6z"/>
    <path fill-rule="evenodd" d="M295 114.14s-1.16-2.52-2.04-3.04c-1.24-.75-2.3-.33-2.78.05-.58.47-1 1.37-.13 3.09.88 1.7 1.74 2.36 1.5 3.26-.22.9-.1 1.39-1.18 1.67-1.08.3-1.67.15-1.85-.88-.19-1.04.55-.15.4-1.02-.16-.87-2.8-3.76-3.52-5.96-.71-2.14-.64-4.13.75-5.23 1.31-1.03 2.57-1.56 4.4-1.15 1.75.4 4.84 2.84 4.84 2.84l3 6.8-2.83 1.06-.56-1.5z"/>
    <path fill-rule="evenodd" d="M294.42 92.11s-2.94 4.95-2.29 8.75c.65 3.8 4.58 11.97 4.58 11.97l.04 1.1 2.11-.23-.48-1.12s1.06-9.78.41-12.87c-.48-2.3-4.33-7.55-4.37-7.6zm4.7 22.64s1.47 1.76 3.22 2.61c1.92.94 2.71.95 3.48.37.56-.42.36-2.2-.29-2.7-.65-.49-1.4-.24-1.51.25-.2.82-.46.77-1.06.45-.88-.46-2.9-1.72-2.9-1.72l-.94.74zm-2.28.4s-.62 2.2-1.87 3.7c-1.37 1.65-2.09 1.98-3.02 1.77-.68-.16-1.24-1.86-.84-2.58.4-.71 1.17-.8 1.48-.4.51.67.73.51 1.15-.02.6-.78 1.94-2.76 1.94-2.76l1.16.29z"/>
    <path stroke-linejoin="round" d="M302.44 113.37c.11.65-1.83 1.51-4.34 1.93-2.51.43-4.64.25-4.76-.4-.12-.64 1.82-1.5 4.33-1.93 2.5-.42 4.64-.25 4.77.4"/>
  </g>
  <g fill="#fc0" stroke="#000" stroke-width="1.15">
    <path fill-rule="evenodd" d="M345.64 113.24s1.02-2.57 1.87-3.14c1.2-.8 2.3-.45 2.78-.09.6.44 1.08 1.32.29 3.08-.79 1.75-1.61 2.45-1.34 3.33.28.9.19 1.38 1.28 1.61 1.09.24 1.67.07 1.8-.98.13-1.04-.56-.12-.45-1 .1-.87 2.6-3.9 3.2-6.12.6-2.18.43-4.16-1.02-5.19-1.36-.96-2.65-1.42-4.45-.92-1.73.48-4.69 3.09-4.69 3.09l-2.64 6.95 2.88.9.49-1.52z"/>
    <path fill-rule="evenodd" d="M339.66 113.14s-.2-2.76-.84-3.56c-.9-1.13-2.05-1.12-2.62-.92-.71.24-1.43.93-1.2 2.84.21 1.91.8 2.82.26 3.59-.53.76-.59 1.25-1.7 1.15-1.11-.1-1.62-.45-1.43-1.48.2-1.03.58.05.74-.82.16-.86-1.3-4.5-1.21-6.8.09-2.26.85-4.1 2.54-4.64 1.59-.5 2.96-.56 4.52.46 1.5.98 3.54 4.36 3.54 4.36l.43 7.42h-3.03v-1.6z"/>
    <path fill-rule="evenodd" d="M346.84 92.32s-4.49 3.6-5.2 7.38c-.73 3.79.08 12.82.08 12.82l-.35 1.04 2.06.53-.06-1.21s4.42-8.8 4.9-11.91c.35-2.32-1.4-8.6-1.43-8.65zm-3.54 22.84s.76 2.16 2.1 3.58c1.48 1.55 2.22 1.83 3.13 1.56.67-.2 1.12-1.93.68-2.62-.44-.7-1.22-.72-1.5-.3-.47.7-.7.55-1.15.05a77.73 77.73 0 0 1-2.12-2.63l-1.14.36zm-2.27-.42s-1.35 1.85-3.05 2.81c-1.86 1.06-2.65 1.12-3.44.6-.59-.39-.51-2.18.1-2.72.63-.53 1.38-.33 1.53.15.25.8.51.74 1.1.38.83-.52 2.77-1.9 2.77-1.9l1 .68z"/>
    <path stroke-linejoin="round" d="M346.9 115.04c-.12.64-2.25.77-4.75.28-2.5-.48-4.43-1.4-4.31-2.04.11-.64 2.23-.77 4.73-.3 2.5.5 4.44 1.4 4.33 2.05"/>
  </g>
  <path fill="#cca715" fill-rule="evenodd" stroke="#000" stroke-width=".52" d="M279.09 129.87s.49 2.04 1.66.97c1.16-1.07 17.22-7.4 39.9-7.4s37.57 6.24 38.44 6.63c.88.38 1.27.87 2.05 0 .78-.88-.78-2.24-.78-2.24s-15.77-6.72-40.4-6.62c-24.62.1-40.58 7.1-40.58 7.1s-1.07.78-.29 1.56z"/>
  <path fill-rule="evenodd" d="M307.85 139.3s.72-2 1.98-2.4c1.01-.3 2.6.69 2.6.69s-1.91-.18-2.51.16c-.55.31-.71 1.22-.71 1.22s.41-.73 1.88-.65l1.64.07s-2.5.19-3.07.9c-.58.72 2.35 1.05 2.35 1.05s-4.48.02-5.07-.25c-.59-.27-.96-1.19-1.96-.9-1 .28-2.02 1.17-2.02 1.17s1.14-1.92 1.85-1.93c.72 0 1.14-.04 1.79.25.65.3 1.25.62 1.25.62zm-16.75 3.63s.34-2.1 1.5-2.72c.94-.5 2.69.19 2.69.19s-1.92.18-2.45.62c-.47.4-.46 1.34-.46 1.34s.27-.8 1.72-1a68.51 68.51 0 0 0 1.62-.23s-2.41.64-2.85 1.46c-.43.8 2.5.59 2.5.59s-4.39.85-5.02.7c-.63-.16-1.16-1-2.1-.53-.92.46-1.76 1.53-1.76 1.53s.76-2.1 1.47-2.24c.7-.15 1.1-.26 1.8-.09.69.17 1.34.38 1.34.38zm30.87-4.37s.84-1.97 2.12-2.28c1.03-.25 2.56.83 2.56.83s-1.9-.29-2.52.02c-.56.28-.78 1.18-.78 1.18s.46-.7 1.92-.55l1.63.17s-2.5.04-3.12.72c-.62.69 2.29 1.18 2.29 1.18s-4.48-.23-5.05-.54c-.57-.3-.9-1.24-1.9-1.01-1.02.22-2.1 1.05-2.1 1.05s1.26-1.84 1.97-1.81c.72.03 1.14.02 1.77.35.63.33 1.21.69 1.21.69zm14.15 1.6s1.06-1.85 2.37-2.02c1.04-.12 2.44 1.13 2.44 1.13s-1.86-.5-2.5-.28c-.6.21-.91 1.08-.91 1.08s.53-.64 1.96-.32l1.6.36s-2.49-.25-3.18.35c-.7.6 2.13 1.44 2.13 1.44s-4.41-.75-4.94-1.12c-.53-.37-.74-1.34-1.78-1.24-1.03.1-2.2.81-2.2.81s1.46-1.69 2.17-1.57c.7.1 1.13.15 1.72.55.58.4 1.12.83 1.12.83zm14.04 2.5s.99-1.4 2.05-1.44c.85-.03 1.88 1.08 1.88 1.08s-1.45-.54-1.99-.4c-.49.12-.8.8-.8.8s.47-.48 1.6-.11l1.25.4s-1.98-.38-2.58.05c-.6.44 1.61 1.31 1.61 1.31s-3.5-.93-3.9-1.26c-.4-.34-.5-1.13-1.33-1.12-.84 0-1.82.48-1.82.48s1.3-1.25 1.85-1.1c.56.14.9.2 1.34.57.44.36.84.75.84.75z"/>
  <path fill="#0f6545" stroke="#000" stroke-linejoin="round" stroke-width=".7" d="M305.02 129.72c.34 1.68-1.63 3.49-4.4 4.04-2.77.56-5.28-.35-5.62-2.03-.34-1.68 1.64-3.48 4.4-4.04 2.77-.55 5.29.36 5.62 2.03z"/>
  <path fill="#cecfc1" d="M298.75 129.45c.08.4-.34.83-.95.96-.61.12-1.17-.11-1.25-.52-.09-.4.34-.83.95-.96.61-.12 1.17.11 1.25.52z"/>
  <path fill="#0f6545" stroke="#000" stroke-linejoin="round" stroke-width=".7" d="M344.14 131.75c-.51 1.63-3.1 2.27-5.8 1.42-2.7-.84-4.46-2.85-3.95-4.48.51-1.63 3.1-2.27 5.8-1.42 2.7.84 4.46 2.85 3.95 4.48z"/>
  <path fill="#cecfc1" d="M338.78 128.5c-.13.39-.7.56-1.3.37-.6-.18-.98-.66-.85-1.05.12-.4.7-.57 1.3-.38.59.19.97.66.85 1.05z"/>
  <path fill="#1f2d86" stroke="#000" stroke-linejoin="round" stroke-width=".99" d="M314.6 125.94h10.14v5.12H314.6z"/>
  <path fill="#707c8b" d="M318.88 127.03c0 .23-.43.42-.97.42s-.96-.19-.96-.42c0-.23.43-.42.96-.42s.97.2.97.42z"/>
  <path fill="#9f1209" fill-rule="evenodd" stroke="#000" stroke-width=".52" d="M285.94 131.06l1.68 4.94-3.1 1.67s-1.43 1.01-2.85.26c-1.42-.76-2.26-3.02-1.5-3.94 1.5-1.84 5.77-3.02 5.77-2.94z"/>
  <path fill="#8f322f" d="M283.35 134.57c0 .84-.64 1.51-1.43 1.51s-1.42-.67-1.42-1.5c0-.84.63-1.52 1.42-1.52s1.43.68 1.43 1.51z"/>
  <path fill="#e2a494" d="M282 133.98a.84.84 0 0 1-.16.7.42.42 0 0 1-.54.08.84.84 0 0 1-.38-.6.84.84 0 0 1 .17-.69.42.42 0 0 1 .54-.09c.18.1.33.34.37.6z"/>
  <path fill="#9f1209" fill-rule="evenodd" stroke="#000" stroke-width=".52" d="M353.88 131.7l-1.67 4.4 3.95 2.07s1.75.78 2.85-.19c.94-.82 1.15-2.74.4-3.7-.71-.92-5.58-2.6-5.53-2.58z"/>
  <path fill="#aa675d" d="M358.6 135.23c0 .54-.56.98-1.26.98s-1.26-.44-1.26-.98.57-.98 1.26-.98c.7 0 1.27.44 1.27.98z"/>
  <path fill="#e2a494" d="M357.4 135.08c0 .26-.11.5-.3.63a.5.5 0 0 1-.59 0 .77.77 0 0 1-.3-.63c0-.26.12-.5.3-.63a.5.5 0 0 1 .6 0c.17.13.29.37.29.63z"/>
  <path fill="#f5d8bc" d="M328.55 126.38a.7.7 0 0 1-.71.68.7.7 0 0 1-.72-.68.7.7 0 0 1 .72-.68c.4 0 .71.3.71.68zm4.32.25a.7.7 0 0 1-.72.68.7.7 0 0 1-.71-.68.7.7 0 0 1 .71-.68c.4 0 .72.3.72.68zm-2.2 1.68c0 .47-.4.85-.89.85s-.9-.38-.9-.85.4-.86.9-.86.9.38.9.86zm2.09 2.81a.7.7 0 0 1-.71.68.7.7 0 0 1-.72-.68.7.7 0 0 1 .72-.68c.4 0 .71.3.71.68zm-4.16-.54a.7.7 0 0 1-.72.68.7.7 0 0 1-.71-.68.7.7 0 0 1 .71-.68c.4 0 .72.3.72.68zm-20.87-3.47a.7.7 0 0 1-.54.83.7.7 0 0 1-.85-.5.7.7 0 0 1 .54-.83.7.7 0 0 1 .85.5zm4.26-.73a.7.7 0 0 1-.54.83.7.7 0 0 1-.85-.5.7.7 0 0 1 .54-.83.7.7 0 0 1 .85.5zm-1.75 2.13c.1.46-.2.93-.68 1.04a.88.88 0 0 1-1.07-.64c-.1-.46.2-.92.68-1.03a.88.88 0 0 1 1.07.63zm2.66 2.27a.7.7 0 0 1-.54.83.7.7 0 0 1-.85-.5.7.7 0 0 1 .54-.83.7.7 0 0 1 .85.5zm-4.18.42a.7.7 0 0 1-.54.82.7.7 0 0 1-.85-.5.7.7 0 0 1 .54-.82.7.7 0 0 1 .85.5zm-19.18-.16a.7.7 0 0 1-.42.9.7.7 0 0 1-.91-.38.7.7 0 0 1 .42-.9.7.7 0 0 1 .91.38zm4.11-1.33a.7.7 0 0 1-.42.9.7.7 0 0 1-.9-.38.7.7 0 0 1 .41-.9.7.7 0 0 1 .91.38zm-1.43 2.35a.88.88 0 0 1-.53 1.13.88.88 0 0 1-1.14-.48.88.88 0 0 1 .52-1.12.88.88 0 0 1 1.15.47zm2.96 1.88a.7.7 0 0 1-.42.89c-.36.14-.77-.03-.91-.38s.05-.75.42-.9a.7.7 0 0 1 .91.39zm-4.08 1a.7.7 0 0 1-.41.9.7.7 0 0 1-.92-.38.7.7 0 0 1 .42-.9.7.7 0 0 1 .92.38zm56.18-5.88c-.1.4-.5.63-.92.53a.75.75 0 0 1-.57-.9c.1-.39.5-.62.92-.52.41.1.67.5.57.9zm4.46 1.37c-.1.4-.51.63-.93.53a.75.75 0 0 1-.57-.9c.1-.39.51-.63.92-.53.41.1.67.5.57.9zm-2.72 1.2c-.12.49-.64.79-1.16.66a.94.94 0 0 1-.72-1.13c.12-.5.64-.8 1.16-.66.52.12.84.63.72 1.12zm1.45 3.47c-.1.4-.5.63-.92.53a.75.75 0 0 1-.57-.9c.1-.39.5-.62.92-.52.41.1.67.5.57.9zm-4.22-1.63c-.1.4-.5.64-.92.53a.75.75 0 0 1-.57-.9c.1-.39.51-.62.92-.52.42.1.67.5.57.9z"/>
  <path fill="none" stroke="#000" stroke-width="1.2" d="M355.97 88.93s-2.05 1.92-4.48 1.92c-2.44 0-3.85-1.02-4.62-1.53-.77-.52.26-2.06.26-2.06"/>
  <path fill="none" stroke="#000" stroke-width="1.09" d="M312.9 92.78s-3.72-.64-5.26-1.16c-1.54-.5-1.15-1.53-2.95-1.4-1.8.12-3.59 1.4-3.2 3.2.38 1.8 1.66 2.05 2.95 1.67 1.28-.39.9-2.57-.77-2.44-1.67.13-.26 1.54-.26 1.54"/>
  <path fill="none" stroke="#000" stroke-width="1.04" d="M287.25 89.96s1.03 1.53 3.72 1.28c2.7-.26 3.72-1.67 3.85-2.3.13-.65 0-1.8-.51-2.32-.52-.5-2.31-.77-2.31-.77"/>
  <g stroke="#161111" stroke-width="1.6">
    <path fill="#c00" d="M339.19 270.4c2.49-2.45 6.49-5.16 8.7-11.05 2.09-5.5 3.1-15.63 5-20.76 2.47-8.79 7.46-17.36 1.52-16.78-5.66.56-7.49 6.03-9.63 10.03-1 1.5-3.29 4.69-3.72 6.5-.09-3.04-1.63-11.92-1.94-20.86-.3-8.34-.06-17.02-.28-20.26-.27-4.28-.24-8.3-1.25-11.45-.46-1.48-2.63-2.9-3.74-2.83-2.28.01-3.66 2-3.97 3.86-.22 1.47-.16.94-.3 2.84-.2 2.4.04 5.51-.14 8.24-.18 2.94.2 6.2.04 8.94-.32 5.51-.72 10.57-.89 11.6 0-2.05-.93-11.7-1.24-20.87-.12-3.48-.2-6.91-.26-10.1-.05-2.59.06-5.33-.22-7.34-.47-3.42-1.58-4.98-4.06-4.98-1.68 0-4.07 1.22-4.84 5.02-.41 2.06-.43 4.57-.36 7.31.06 2.55.2 5.3.15 8.06-.15 10.44-.34 21.51-.76 24.77-.07-1.07-1.12-6.53-1.4-13.85-.1-2.88-.27-6.36-.42-9.68-.18-3.98-.17-6.94-.27-9.6-.03-1.6-.66-6.2-3.75-5.93-1.62-.2-3.33.93-4.02 5.3-.38 2.43-.37 6.6-.44 9.83-.12 6.12-.38 11.48-.09 16.93.18 3.4.15 6.02.2 7.7.03.44-.87-2.86-1.33-7.35-.45-4.39-.85-9.98-.81-8.69 0-2.26-.11-5.64-.32-8.42-.16-2.18-.06-4.58-2.42-4.38-2.39.19-3.86 1-4.36 5.1-.32 2.65-.4 8.4-.47 10.47.25 5.3-1.16 17.63-1.8 21.14-.18 2.49-1.16 5.72-1.57 9.19-.9 7.46-.05 16.19.94 20.66 1.96 7.05 7.09 10.22 6.83 15-.26 4.8 0 13.24 0 17.02 0 3.78 3.28 3.98 10.08 2.52 11.12-2.4 17.19 2.4 26.37-1.14-1.17-10.45 1.1-16.74 1.04-20.52zm-6.49-24.71c2.3-6.35 5.2-8.84 8-10.22"/>
    <path fill="none" d="M307.43 239.15c3.46-1.37 7.06-2.36 10.57-3.56 4.3-1.21 8.48-2.95 12.92-3.64 2.14-.44 4.29-.86 6.47-1M301.26 273c.48-.32.95.19 1.42.28.65.2 1.33.4 2.02.29a107.43 107.43 0 0 1 4.05 0c1.6-.06 2.93-.12 4.22-1.02m10.04.61c.47.38 1 .68 1.55.9.86.38 1.8.43 7.37-.02 3.45.22 6.51-2.76 7.38-3.57"/>
  </g>
</svg>
