<svg xmlns="http://www.w3.org/2000/svg" height="480" width="640">
    <g clip-path="url(#a)">
        <path fill="#006" d="M-160 0h960v480h-960z"/>
        <g>
            <path d="M-160 0v53.666l852.672 426.336h107.328v-53.664l-852.672-426.336h-107.328zm960 0v53.664l-852.672 426.336h-107.328v-53.664l852.672-426.336h107.328z" fill="#fff"/>
            <path d="M240 0v480h160v-480h-160zm-400 160v160h960v-160h-960z" fill="#fff"/>
            <path d="M-160 192v96h960v-96h-960zm432-192v480h96v-480h-96z" fill="#c00"/>
            <path d="M-160 480l320-160h71.552l-320 160h-71.552zm0-480l320 160h-71.552l-248.448-124.222v-35.778zm568.448 160l320-160h71.552l-320 160h-71.552zm391.552 320l-320-160h71.552l248.448 124.224v35.776z" fill="#c00"/>
        </g>
    </g>
</svg>
