<svg xmlns="http://www.w3.org/2000/svg" id="flag-icon-css-gb" width="640" height="480">
  <defs>
    <clipPath id="a">
      <path fill-opacity=".67" d="M-85.33 0h682.67v512H-85.33z"/>
    </clipPath>
  </defs>
  <g clip-path="url(#a)" transform="translate(80) scale(.94)">
    <g stroke-width="1pt">
      <path fill="#006" d="M-256 0H768.02v512.01H-256z"/>
      <path fill="#fff" d="M-256 0v57.24l909.53 454.77h114.49v-57.24L-141.51 0H-256zM768.02 0v57.24l-909.53 454.77H-256v-57.24L653.53 0h114.49z"/>
      <path fill="#fff" d="M170.68 0v512.01h170.66V0H170.69zM-256 170.67v170.67H768.02V170.67H-256z"/>
      <path fill="#c00" d="M-256 204.8v102.4H768.02V204.8H-256zM204.81 0v512.01h102.4V0h-102.4zM-256 512.01L85.34 341.34h76.32l-341.34 170.67H-256zM-256 0L85.34 170.67H9.02L-256 38.17V0zm606.36 170.67L691.7 0h76.32L426.68 170.67h-76.32zm417.66 341.34L426.68 341.34H503l265.02 132.5v38.17z"/>
    </g>
  </g>
</svg>
