<svg xmlns="http://www.w3.org/2000/svg" height="480" width="640">
    <g fill-rule="evenodd">
        <path fill="#f00" d="M0 0h640v480h-640z"/>
        <g>
            <path fill="#009a00" d="M145.996 83.454h360.91v314.41h-360.91z"/>
            <path d="M145.996 397.865h360.91l-180.46-157.19-180.46 157.19z" fill="#ffca00"/>
            <path d="M145.996 83.528l180.46 157.19 180.45-157.19h-360.91z" fill="#ffca00"/>
            <path fill="#ffce00" d="M177.741 61.373l-16.449-11.729-16.468 11.7 6.074-19.264-16.209-12.045 20.195-.177 6.447-19.144 6.409 19.155 20.195.213-16.238 12.016z"/>
            <path fill="#ffce00" d="M342.628 61.862l-16.449-11.729-16.468 11.7 6.074-19.264-16.209-12.045 20.195-.177 6.447-19.144 6.409 19.155 20.195.213-16.238 12.016z"/>
            <path fill="#ffce00" d="M507.621 61.597l-16.449-11.729-16.468 11.7 6.074-19.264-16.209-12.045 20.195-.177 6.447-19.144 6.409 19.155 20.195.213-16.238 12.016z"/>
            <path fill="#ffce00" d="M177.741 468.799l-16.449-11.729-16.468 11.7 6.074-19.264-16.209-12.045 20.195-.177 6.447-19.144 6.409 19.155 20.195.213-16.238 12.016z"/>
            <path fill="#ffce00" d="M342.628 469.289l-16.449-11.729-16.468 11.7 6.074-19.264-16.209-12.045 20.195-.177 6.447-19.144 6.409 19.155 20.195.213-16.238 12.016z"/>
            <path fill="#ffce00" d="M507.621 469.029l-16.449-11.729-16.468 11.7 6.074-19.264-16.209-12.045 20.195-.177 6.447-19.144 6.409 19.155 20.195.213-16.238 12.016z"/>
            <path d="M369.777 243.127c0 24.174-19.597 43.77-43.77 43.77-24.174 0-43.77-19.597-43.77-43.77 0-24.174 19.597-43.77 43.77-43.77 24.174 0 43.77 19.597 43.77 43.77z" fill="#f00"/>
            <path fill="#ffce00" d="M345.807 270.05l-19.539-13.933-19.562 13.898 7.215-22.884-19.255-14.308 23.989-.211 7.659-22.741 7.613 22.754 23.989.253-19.289 14.274z"/>
            <g>
                <path d="M169.972 273.428s2.22-18.391.952-30.758c-1.269-12.367-32.978-15.855-32.978-15.855l-.317 28.856s25.368 20.612 32.343 17.757z" fill="#f00"/>
                <path d="M123.676 200.499s3.056 16.205-1.268 48.516c-2.31 17.543 16.806 29.49 40.271 34.88-4.756-8.244-17.439-21.563-14.269-45.979 17.123 2.219 33.294 35.515 33.294 35.515s12.811-47.21-13.001-54.54c-25.086-7.048-45.028-18.074-45.028-18.391z" fill="#ffce00"/>
            </g>
        </g>
    </g>
</svg>
