<svg xmlns="http://www.w3.org/2000/svg" width="640" height="480">
  <rect width="640" height="480" fill="#00993e" x="0" y="0"/>
  <g fill="#ffffff" transform="scale(1.6,1.6)">
    <rect y="42.856998" width="400" height="42.856998" x="0"/>
    <rect y="128.571" width="400" height="42.856998" x="0"/>
    <rect y="214.286" width="400" height="42.856998" x="0"/>
  </g>
  <rect width="364.79999" height="205.71359" fill="#c8312a" x="0" y="0"/>
  <g fill="#ffffff" transform="scale(1.6,1.6)">
    <path d="m 96.352,71.821 c 0,0 -1.965,0.823 -0.619,16.509 1.099,12.911 5.699,17.117 5.699,17.117 l 2.009,7.992 19.056,0.078 c 0,0 0.345,-4.949 1.083,-6.514 1.813,-3.845 8.999,-8.24 12.079,-14.876 3.312,-4.045 1.653,-12.3 8.301,-20.268 3.301,-3.957 -3.867,-2.282 -3.867,-2.282 -3.931,2.607 -5.852,5.667 -6.843,7.805 -0.667,4.119 -3.75,7.563 -4.041,4.572 0,0 -1.12,-5.172 -4.481,-15.226 -0.333,-2.98 -1.774,-13.286 -2.082,-21.152 -0.219,-5.118 -4.699,-5.426 -5.073,-0.231 l -0.541,20.595 -1.071,-23.786 c -0.455,-6.732 -5.548,-5.734 -5.769,-0.155 l -0.219,24.767 -0.928,-24.008 c -1.38,-4.586 -5.006,-1.868 -5.073,3.1 l -0.618,23.36 c 0,0 -0.781,-12.793 -0.957,-18.195 -0.166,-3.249 -3.971,-3.009 -4.33,1.636 -0.518,6.718 -1.333,12.201 -1.715,19.162 l 0,0 z"/>
    <path d="M 108.206,27.97 114,10.138 l 5.794,17.832 -15.169,-11.02 18.749,0 -15.168,11.02 z"/>
    <path d="m 153.263,35.084 -15.169,-11.021 18.749,0 -15.169,11.021 5.794,-17.832 5.795,17.832 z"/>
    <path d="m 181.896,56.272 -15.169,-11.021 18.749,0 -15.169,11.021 5.794,-17.832 5.795,17.832 z"/>
    <path d="m 198.484,86.198 -15.169,-11.021 18.749,0 -15.168,11.021 5.794,-17.832 5.794,17.832 z"/>
    <path d="m 74.738,35.084 15.169,-11.021 -18.75,0 15.169,11.021 -5.794,-17.832 -5.794,17.832 z"/>
    <path d="m 46.104,56.272 15.169,-11.021 -18.749,0 15.169,11.021 -5.795,-17.832 -5.794,17.832 z"/>
    <path d="m 29.516,86.198 15.169,-11.021 -18.75,0 15.169,11.021 -5.794,-17.832 -5.794,17.832 z"/>
  </g>
</svg>
