<?xml version="1.0" encoding="UTF-8" standalone="no"?>
<svg width="640px" height="480px" viewBox="0 0 640 480" version="1.1" xmlns="http://www.w3.org/2000/svg" xmlns:xlink="http://www.w3.org/1999/xlink" xmlns:sketch="http://www.bohemiancoding.com/sketch/ns">
    <!-- Generator: Sketch 3.4.3 (16618) - http://www.bohemiancoding.com/sketch -->
    <title>Flag_of_Georgia</title>
    <desc>Created with Sketch.</desc>
    <defs></defs>
    <g id="Page-1" stroke="none" stroke-width="1" fill="none" fill-rule="evenodd" sketch:type="MSPage">
        <g id="Flag_of_Georgia" sketch:type="MSLayerGroup">
            <rect id="Rectangle-path" fill="#FFFFFF" sketch:type="MSShapeGroup" x="0" y="0" width="640" height="480"></rect>
            <path d="M277.333333,0 L277.333333,192 L0,192 L0,288 L277.333333,288 L277.333333,480 L362.666667,480 L362.666667,288 L640,288 L640,192 L362.666667,192 L362.666667,0 L277.333333,0 L277.333333,0 Z" id="Shape" fill="#FF0000" sketch:type="MSShapeGroup"></path>
            <g id="Group" transform="translate(97.000000, 55.000000)" fill="#FF0000" sketch:type="MSShapeGroup">
                <path d="M79.1080617,40 C79.1080617,35.2658662 79.3825043,30.5317324 80,25.9348199 C70.3945111,27.7186964 60.5831904,28.9536878 50.5660377,29.4339623 C51.0463122,19.4168096 52.212693,9.60548885 54.0651801,-1.42108547e-14 C49.4682676,0.548885077 44.8027444,0.89193825 40,0.89193825 C35.1972556,0.89193825 30.5317324,0.617495712 25.9348199,-1.42108547e-14 C27.7186964,9.60548885 28.9536878,19.4168096 29.4339623,29.4339623 C19.4168096,28.9536878 9.60548885,27.787307 0,25.9348199 C0.548885077,30.5317324 0.89193825,35.1972556 0.89193825,40 C0.89193825,44.8027444 0.617495712,49.4682676 0,54.0651801 C9.60548885,52.2813036 19.4168096,51.0463122 29.4339623,50.5660377 C28.9536878,60.5831904 27.787307,70.3945111 25.9348199,80 C30.5317324,79.4511149 35.1972556,79.1080617 40,79.1080617 C44.8027444,79.1080617 49.4682676,79.3825043 54.0651801,80 C52.2813036,70.3945111 51.0463122,60.5831904 50.5660377,50.5660377 C60.5831904,51.0463122 70.3945111,52.212693 80,54.0651801 C79.4511149,49.4682676 79.1080617,44.8027444 79.1080617,40 L79.1080617,40 Z" id="Shape"></path>
                <path d="M444.192506,40 C444.192506,35.2658662 444.466949,30.5317324 445.084444,25.9348199 C435.478956,27.7186964 425.667635,28.9536878 415.650482,29.4339623 C416.130757,19.4168096 417.297137,9.60548885 419.149625,-1.42108547e-14 C414.552712,0.548885077 409.887189,0.89193825 405.084444,0.89193825 C400.2817,0.89193825 395.616177,0.617495712 391.019264,-1.42108547e-14 C392.803141,9.60548885 394.038132,19.4168096 394.518407,29.4339623 C384.501254,28.9536878 374.689933,27.787307 365.084444,25.9348199 C365.63333,30.5317324 365.976383,35.1972556 365.976383,40 C365.976383,44.8027444 365.70194,49.4682676 365.084444,54.0651801 C374.689933,52.2813036 384.501254,51.0463122 394.518407,50.5660377 C394.038132,60.5831904 392.871751,70.3945111 391.019264,80 C395.616177,79.4511149 400.2817,79.1080617 405.084444,79.1080617 C409.887189,79.1080617 414.552712,79.3825043 419.149625,80 C417.365748,70.3945111 416.130757,60.5831904 415.650482,50.5660377 C425.667635,51.0463122 435.478956,52.212693 445.084444,54.0651801 C444.466949,49.4682676 444.192506,44.8027444 444.192506,40 L444.192506,40 Z" id="Shape"></path>
                <path d="M444.192506,330.72 C444.192506,325.985866 444.466949,321.251732 445.084444,316.65482 C435.478956,318.438696 425.667635,319.673688 415.650482,320.153962 C416.130757,310.13681 417.297137,300.325489 419.149625,290.72 C414.552712,291.268885 409.887189,291.611938 405.084444,291.611938 C400.2817,291.611938 395.616177,291.337496 391.019264,290.72 C392.803141,300.325489 394.038132,310.13681 394.518407,320.153962 C384.501254,319.673688 374.689933,318.507307 365.084444,316.65482 C365.63333,321.251732 365.976383,325.917256 365.976383,330.72 C365.976383,335.522744 365.70194,340.188268 365.084444,344.78518 C374.689933,343.001304 384.501254,341.766312 394.518407,341.286038 C394.038132,351.30319 392.871751,361.114511 391.019264,370.72 C395.616177,370.171115 400.2817,369.828062 405.084444,369.828062 C409.887189,369.828062 414.552712,370.102504 419.149625,370.72 C417.365748,361.114511 416.130757,351.30319 415.650482,341.286038 C425.667635,341.766312 435.478956,342.932693 445.084444,344.78518 C444.466949,340.119657 444.192506,335.454134 444.192506,330.72 L444.192506,330.72 Z" id="Shape"></path>
                <path d="M79.1791729,330.72 C79.1791729,325.985866 79.4536154,321.251732 80.0711111,316.65482 C70.4656223,318.438696 60.6543015,319.673688 50.6371488,320.153962 C51.1174233,310.13681 52.2838041,300.325489 54.1362912,290.72 C49.5393787,291.268885 44.8738555,291.611938 40.0711111,291.611938 C35.2683667,291.611938 30.6028435,291.337496 26.005931,290.72 C27.7898075,300.325489 29.0247989,310.13681 29.5050734,320.153962 C19.4879207,319.673688 9.67659996,318.507307 0.0711111111,316.65482 C0.619996188,321.251732 0.963049362,325.917256 0.963049362,330.72 C0.963049362,335.522744 0.688606823,340.188268 0.0711111111,344.78518 C9.67659996,343.001304 19.4879207,341.766312 29.5050734,341.286038 C29.0247989,351.30319 27.8584181,361.114511 26.005931,370.72 C30.6028435,370.171115 35.2683667,369.828062 40.0711111,369.828062 C44.8738555,369.828062 49.5393787,370.102504 54.1362912,370.72 C52.3524147,361.114511 51.1174233,351.30319 50.6371488,341.286038 C60.6543015,341.766312 70.4656223,342.932693 80.0711111,344.78518 C79.4536154,340.119657 79.1791729,335.454134 79.1791729,330.72 L79.1791729,330.72 Z" id="Shape"></path>
            </g>
        </g>
    </g>
</svg>
