<svg xmlns="http://www.w3.org/2000/svg" id="flag-icon-css-ge" width="640" height="480">
  <path fill="#fff" d="M0 0h640v480H0z"/>
  <path fill="red" d="M272 0h96v480h-96z"/>
  <path fill="red" d="M0 192h640v96H0z"/>
  <path style="mix-blend-mode:multiply" fill="red" fill-rule="evenodd" d="M146.85 373.15c1.02-16.82 3.97-31.15 3.97-31.15s-9.84 1-14.82 1c-4.9 0-14.81-1-14.81-1s2.94 14.33 3.97 31.16c-16.83-1.03-31.16-3.97-31.16-3.97s1 7.4 1 14.81-1 14.81-1 14.81 14.33-2.94 31.16-3.96c-1.03 16.82-3.97 31.15-3.97 31.15s7.4-1 14.81-1 14.82 1 14.82 1-2.95-14.33-3.97-31.16c16.82 1.03 31.15 3.97 31.15 3.97s-1-9.84-1-14.81c0-4.9 1-14.81 1-14.81s-14.33 2.94-31.15 3.96zm368-288c1.02-16.82 3.97-31.15 3.97-31.15s-9.84 1-14.82 1c-4.9 0-14.81-1-14.81-1s2.94 14.33 3.97 31.15C476.33 84.13 462 81.2 462 81.2s1 7.4 1 14.81-1 14.81-1 14.81 14.33-2.94 31.16-3.97c-1.03 16.83-3.97 31.16-3.97 31.16s7.4-1 14.81-1 14.81 1 14.81 1-2.94-14.33-3.96-31.16c16.82 1.03 31.15 3.97 31.15 3.97s-1-9.84-1-14.81c0-4.9 1-14.81 1-14.81s-14.33 2.94-31.16 3.97zm-368 0c1.02-16.82 3.97-31.15 3.97-31.15s-9.84 1-14.82 1c-4.9 0-14.81-1-14.81-1s2.94 14.33 3.97 31.16C108.33 84.13 94 81.19 94 81.19s1 7.4 1 14.81-1 14.81-1 14.81 14.33-2.94 31.16-3.97c-1.03 16.83-3.97 31.16-3.97 31.16s7.4-1 14.81-1 14.82 1 14.82 1-2.95-14.33-3.97-31.16c16.82 1.03 31.15 3.97 31.15 3.97s-1-9.84-1-14.81c0-4.9 1-14.81 1-14.81s-14.33 2.94-31.15 3.97zm368 288c1.02-16.82 3.97-31.15 3.97-31.15s-9.84 1-14.82 1c-4.9 0-14.81-1-14.81-1s2.94 14.33 3.97 31.16c-16.83-1.03-31.16-3.97-31.16-3.97s1 7.4 1 14.81-1 14.81-1 14.81 14.33-2.94 31.16-3.96c-1.03 16.82-3.97 31.15-3.97 31.15s7.4-1 14.81-1 14.81 1 14.81 1-2.94-14.33-3.96-31.16c16.82 1.03 31.15 3.97 31.15 3.97s-1-9.84-1-14.81c0-4.9 1-14.81 1-14.81s-14.33 2.94-31.16 3.96z"/>
</svg>
