<svg xmlns="http://www.w3.org/2000/svg" height="480" width="640">
    <g clip-path="url(#a)" transform="matrix(.938 0 0 .938 79.914 0)">
        <path fill-rule="evenodd" fill="#fff" d="M-254.55 0h1021.8v510.88h-1021.8z"/>
        <path d="M405.2 175.1zm-71.913-62.795l-12.743 64.988 88.979-.909-9.557-64.072" fill="#a11011"/>
        <path fill-rule="evenodd" fill="#a11011" d="M276.15 77.584h27.309v6.827h-27.309z"/>
        <path fill-rule="evenodd" fill="#a11011" d="M243.38 77.584h26.398v6.827h-26.398z"/>
        <path fill-rule="evenodd" fill="#a11011" d="M209.7 77.129h26.398v6.372h-26.398z"/>
        <path d="M301.84 99.559zm-91.904-16.391v16.749h93.536v-16.391l-93.536-.358" fill="#a11011"/>
        <path d="M221.33 106.84l-10.926 69.082 94.438.458-12.743-69.082m2.962 66.43z" fill="#a11011"/>
        <path fill-rule="evenodd" fill="#d61517" d="M-256 384.54h1024.2v127.46h-1024.2z"/>
        <path fill-rule="evenodd" fill="#a11011" d="M82.674 175.2h347.88v26.356h-347.88z"/>
        <path d="M95.911 198.65l-7.361 131.63-37.822.455v21.157h413.49v-21.157l-37.822.455-7.357-131.92-323.12-.628z" fill="#a11011"/>
        <path fill="#d61517" d="M204.56 234.3v21.755h5.338v-21.755h-5.338m8.008 0v21.755h42.707v-21.755h-42.707m45.377 0v21.755h40.038v-21.755h-40.038m42.707 0v21.755h8.008v-21.755h-8.008z"/>
        <path d="M366.97 256.01zm-38.317-21.736v22.21h38.997v-21.736l-38.997-.475" fill="#d61517"/>
        <path fill="#d61517" d="M316.67 306.19v23.548h29.361v-23.548h-29.361m32.031 0v14.718h5.338v-14.718h-5.338m37.369 0v14.718h5.338v-14.718h-5.338m8.008 0v23.548h29.361v-23.548h-29.361z"/>
        <path fill="#d61517" d="M319.33 282.23v21.3h5.338v-21.3h-5.338m8.008 0v21.3h18.684v-21.3h-18.684z"/>
        <path fill="#d61517" d="M394.07 282.23v21.3h19.135v-21.3h-19.135m21.869 0v21.3h5.467v-21.3h-5.467z"/>
        <path fill="#d61517" d="M317.91 201.89v5.78h102.92v-5.78h-102.92z"/>
        <path d="M101.56 282.68v21.3h18.041v-21.3h-18.041z" fill="#d61517"/>
        <path fill="#d61517" d="M167.19 282.23v22.21h18.684v-22.21h-18.684m21.354 0v22.21h5.338v-22.21h-5.338z"/>
        <path fill="#d61517" d="M203.21 202.35v5.325h106.1v-5.325h-106.1z"/>
        <path fill="#d61517" d="M95.343 202.81v5.325h97.002v-5.325h-97.002z"/>
        <path d="M313.08 200.53c-10.186.754 1.348 96.039 1.367 125.75 0 0 12.182-119.51-1.367-125.75z" fill="#fff"/>
        <path fill="#d61517" d="M84.444 184.62v14.61h344.33v-14.61h-344.33z"/>
        <path d="M196.57 200.98c-10.186.767 1.348 97.777 1.367 128.03 0 0 12.182-121.67-1.367-128.03z" fill="#fff"/>
        <path d="M90.901 282.68v21.3h8.216v-21.3h-8.216z" fill="#d61517"/>
        <path d="M90.693 305.73v24.031h29.361l-.16-24.001-29.201-.03m28.849 23.517z" fill="#d61517"/>
        <path d="M454.7 349.85zm-403.15-18.172v18.569h410.32v-18.172l-410.32-.397" fill="#d61517"/>
        <path d="M167.16 306.19v23.226h28.451v-23.203l-28.451-.023m27.954 22.73z" fill="#d61517"/>
        <path d="M201.75 305.73v23.548h29.361l-.16-23.519-29.201-.029m28.849 23.045z" fill="#d61517"/>
        <path d="M279.58 306.19v23.548h32.547l-.16-23.519-32.388-.029m31.979 23.045z" fill="#d61517"/>
        <path d="M139.48 256.45zm-38.208-22.626v23.121h38.887v-22.626l-38.887-.494" fill="#d61517"/>
        <path d="M97.684 256.46zm-3.806-22.181v22.665h3.873v-22.181l-3.873-.484" fill="#d61517"/>
        <path d="M183.51 256.9zm-40.476-22.626v23.121h41.195v-22.626l-41.195-.494" fill="#d61517"/>
        <path d="M190.97 256.91zm-4.7-22.181v22.665h4.784v-22.181l-4.784-.484" fill="#d61517"/>
        <path d="M346.23 279.7zm-27.06-20.845v21.3h27.541v-20.845l-27.541-.455" fill="#d61517"/>
        <path d="M420.87 279.26zm-27.507-19.954v20.39h27.996v-19.954l-27.996-.436" fill="#d61517"/>
        <path d="M390.15 279.71zm-39.92-20.399v20.845h40.629v-20.399l-40.629-.446" fill="#d61517"/>
        <path d="M315.23 183.92zm-4.7-9.264v9.466h4.784v-9.264l-4.784-.202" fill="#fff"/>
        <path d="M325.23 255.57zm-5.147-21.29v21.755h5.239v-21.29l-5.239-.465" fill="#d61517"/>
        <path d="M408.49 256.02zm-37.052-21.29v21.755h37.71v-21.29l-37.71-.465" fill="#d61517"/>
        <path d="M419.86 256.02zm-7.383-21.29v21.755h7.514v-21.29l-7.514-.465" fill="#d61517"/>
        <path d="M343.11 231.89zm-23.482-21.736v22.21h23.9v-21.736l-23.9-.475" fill="#d61517"/>
        <path d="M389.21 231.9zm-41.894-21.29v21.755h42.639v-21.29l-42.639-.465" fill="#d61517"/>
        <path d="M417.72 231.89zm-25.271-21.736v22.21h25.72v-21.736l-25.72-.475" fill="#d61517"/>
        <path d="M201.75 281.15v21.755h12.066v-21.611l-12.066-.144m11.855 21.29z" fill="#d61517"/>
        <path d="M216.31 281.61v21.755h14.93v-21.611l-14.93-.144m14.669 21.29z" fill="#d61517"/>
        <path d="M279.58 282.07v21.755h19.348v-21.774l-19.348.019m19.011 21.29z" fill="#d61517"/>
        <path d="M311.04 303.36zm-9.619-21.29v21.755h9.79v-21.29l-9.79-.465" fill="#d61517"/>
        <path fill="#d61517" d="M92.612 201.44v4.415h102.92v-4.415h-102.92z"/>
        <path fill="#d61517" d="M198.2 201.44v4.415h113.84v-4.415h-113.84z"/>
        <path fill="#d61517" d="M314.64 200.98v4.415h108.91v-4.415h-108.91z"/>
        <path d="M119.12 280.14zm-27.06-21.29v21.755h27.541v-21.29l-27.541-.465" fill="#d61517"/>
        <path d="M192.44 280.14zm-24.824-21.29v21.755h25.265v-21.29l-25.265-.465" fill="#d61517"/>
        <path d="M122.93 259.31v21.755h42.183l.161-21.611-42.344-.144m41.447 21.29z" fill="#d61517"/>
        <path d="M203.57 257.94v21.755h27.996l.16-21.611-28.156-.144m27.507 21.29z" fill="#d61517"/>
        <path d="M276.77 279.23zm-43.159-21.29v21.755h43.926l-.16-21.451-43.766-.305" fill="#d61517"/>
        <path d="M280.03 258.4v21.755h28.451l.16-21.774-28.611.019m27.954 21.29z" fill="#d61517"/>
        <path d="M232.42 230.99zm-28.402-21.29v21.755h28.906v-21.29l-28.906-.465" fill="#d61517"/>
        <path d="M277.76 231.43zm-42.789-21.736v22.21h43.549v-21.736l-43.549-.475" fill="#d61517"/>
        <path d="M306.67 231.43zm-25.271-21.736v22.21h25.72v-21.736l-25.72-.475" fill="#d61517"/>
        <path d="M186.73 182.38zm-73.73-62.795l-10.926 64.988 88.979-.909-10.014-65.439" fill="#a11011"/>
        <path fill="#d61517" d="M220.62 123.84l-2.718 10.65h38.052v-10.65h-35.334m38.052 0v10.65h35.334v-10.65h-35.334z"/>
        <path fill="#d61517" d="M217.9 137.15v10.65h13.503v-10.65h-13.503m16.204 0v10.65h43.21v-10.65h-43.21m45.91 0v10.65h16.204v-10.65h-16.204z"/>
        <path fill="#d61517" d="M223.3 110.53l-2.722 10.65h10.887v-10.65h-8.165m10.887 0v10.65h43.548v-10.65h-43.548m46.269 0v10.65h10.887v-10.65h-10.887z"/>
        <path fill="#d61517" d="M209.9 86.565v5.325h45.832v-5.325h-45.832m48.528 0v5.325h43.136v-5.325h-43.136z"/>
        <path fill="#d61517" d="M209.9 94.553v5.325h21.354v-5.325h-21.354m24.023 0v5.325h42.707v-5.325h-42.707m45.377 0v5.325h21.354v-5.325h-21.354z"/>
        <path fill="#d61517" d="M244.6 78.578v5.325h24.023v-5.325h-24.023z"/>
        <path fill="#d61517" d="M84.444 177.09v5.325h21.354v-5.325h-21.354z"/>
        <path fill="#d61517" d="M407.42 177.09v5.325h21.354v-5.325h-21.354z"/>
        <path d="M127.43 182.66zm-20.352-4.364v4.46h20.714v-4.364l-20.714-.095" fill="#d61517"/>
        <path d="M172.99 183.13zm-17.669-3.735v3.816h17.983v-3.735l-17.983-.082" fill="#d61517"/>
        <path d="M203.25 184.34zm-5.147-10.6v10.832h5.239v-10.6l-5.239-.232" fill="#fff"/>
        <path d="M124.29 176.09zm-17.669-13.088v13.374h17.983v-13.088l-17.983-.286" fill="#d61517"/>
        <path d="M134.91 176.1zm-9.172-12.643v12.919h9.335v-12.643l-9.335-.276" fill="#d61517"/>
        <path d="M187.13 177.42zm-15.88-14.87v15.195h16.162v-14.87l-16.162-.325" fill="#d61517"/>
        <path d="M168.16 176.18zm-12.379-12.98v13.264h12.599v-12.98l-12.599-.284" fill="#d61517"/>
        <path d="M192.98 181.7zm-19.905-6.591v6.736h20.258v-6.591l-20.258-.144" fill="#a11011"/>
        <path d="M295.06 173.73zm-74.187-66.43l-11.383-7.384h93.534l-10.47 8.293" fill="#a11011"/>
        <path fill="#d61517" d="M210.92 78.578v5.325h24.023v-5.325h-24.023z"/>
        <path fill="#d61517" d="M276.91 79.033v5.325h25.388v-5.325h-25.388z"/>
        <g fill="#d61517">
            <path d="M288.15 108.061zm-66.871-1.691v1.728h68.046v-1.691l-68.046-.037"/>
            <path d="M291.659 107.15zm-74.027-1.691v1.728h75.328v-1.691l-75.328-.037"/>
            <path d="M294.773 105.785zm-77.605-1.691v1.728h78.969v-1.691l-78.969-.037"/>
            <path d="M294.773 105.785zm-77.605-1.691v1.728h78.969v-1.691l-78.969-.037"/>
            <path d="M297.047 103.964zm-80.74-1.691v1.728h82.159v-1.691l-82.159-.037"/>
        </g>
        <path d="M243.12 182.68zm-15.88-3.474v3.55h16.162v-3.474l-16.162-.076" fill="#d61517"/>
        <path d="M283.21 182.68zm-13.644-3.474v3.55h13.887v-3.474l-13.887-.076" fill="#d61517"/>
        <path d="M117.39 231.88zm-21.694-22.181v22.665h22.079v-22.181l-22.079-.484" fill="#d61517"/>
        <path d="M242.86 177.45zm-30.19-13.718v14.018h30.727v-13.718l-30.727-.3" fill="#d61517"/>
        <path d="M302.57 177.45zm-25.61-13.718v14.018h26.065v-13.718l-26.065-.3" fill="#d61517"/>
        <path d="M273.31 177.45zm-7.383-13.718v14.018h7.514v-13.718l-7.514-.3" fill="#d61517"/>
        <path d="M226.71 182.14zm-16.774-7.037v7.191h17.072v-7.037l-17.072-.154" fill="#a11011"/>
        <path fill="#d61517" d="M175.2 177.09v5.78h21.354v-5.78h-21.354m29.361 0v5.78h21.354v-5.78h-21.354z"/>
        <path d="M304.02 182.15zm-20.352-6.591v6.736h20.714v-6.591l-20.714-.144" fill="#a11011"/>
        <path d="M165.23 231.89zm-44.578-21.736v22.21h45.369v-21.736l-45.369-.475" fill="#d61517"/>
        <path d="M191.1 231.89zm-23.035-21.736v22.21h23.444v-21.736l-23.444-.475" fill="#d61517"/>
        <path d="M254.98 161.56zm-40.029-11.936v12.197h40.74v-11.936l-40.74-.261" fill="#d61517"/>
        <path d="M298.21 162.01zm-40.029-11.936v12.197h40.74v-11.936l-40.74-.261" fill="#d61517"/>
        <path fill-rule="evenodd" fill="#a11011" d="M168.74 88.962h23.667v6.827h-23.667z"/>
        <path fill-rule="evenodd" fill="#a11011" d="M134.15 88.507h26.398v7.737h-26.398z"/>
        <path fill-rule="evenodd" fill="#a11011" d="M105.02 88.962h20.937v6.827h-20.937z"/>
        <path d="M189.57 109.24zm-76.616 10.801l-8.146-11.473 87.617.455-10.497 9.576" fill="#a11011"/>
        <path fill="#d61517" d="M105.8 102.54v5.325h18.684v-5.325h-18.684m21.354 0v5.325h42.707v-5.325h-42.707m45.377 0v5.325h18.684v-5.325h-18.684z"/>
        <path fill="#d61517" d="M105.8 90.138v4.681h18.684v-4.681h-18.684m29.361 0v4.681h24.023v-4.681h-24.023z"/>
        <path fill="#d61517" d="M169.86 90.593v4.038h21.354v-4.038h-21.354z"/>
        <path fill-rule="evenodd" fill="#a11011" d="M105.02 95.79h87.387v13.654h-87.387z"/>
        <path d="M142.29 160.22zm-33.845-10.416v10.643h34.446v-10.416l-34.446-.228" fill="#d61517"/>
        <path d="M184.89 160.22zm-39.788-10.416v10.643h40.495v-10.416l-40.495-.228" fill="#d61517"/>
        <path d="M146.64 101.2zm-40.476-3.919v4.005h41.195v-3.919l-41.195-.086" fill="#d61517"/>
        <path d="M124.8 147.01zm-14.539-11.046v11.287h14.797v-11.046l-14.797-.241" fill="#d61517"/>
        <path d="M167.22 147.04zm-39.288-9.786v10h39.986v-9.786l-39.986-.214" fill="#d61517"/>
        <path d="M183.55 147.47zm-12.75-11.046v11.287h12.976v-11.046l-12.976-.241" fill="#d61517"/>
        <path d="M145.03 134.75zm-32.95-9.786v10h33.536v-9.786l-33.536-.214" fill="#d61517"/>
        <path d="M181.82 134.75zm-33.321-9.786v10h33.913v-9.786l-33.913-.214" fill="#d61517"/>
        <path d="M171.53 122.59zm-48.973-3.919v4.005h49.843v-3.919l-49.843-.086" fill="#d61517"/>
        <path d="M180.46 122.59zm-6.936-3.919v4.005h7.059v-3.919l-7.059-.086" fill="#d61517"/>
        <path d="M120.82 122.59zm-7.831-3.919v4.005h7.97v-3.919l-7.97-.086" fill="#d61517"/>
        <path d="M190.79 101.2zm-40.553-3.919v4.005h41.273v-3.919l-41.273-.086" fill="#d61517"/>
        <path d="M126.53 109.81zm-19.905-5.593v5.715h20.258v-5.593l-20.258-.122" fill="#d61517"/>
        <path d="M166.76 109.17zm-35.263-5.147v5.26h35.89v-5.147l-35.89-.112" fill="#d61517"/>
        <path d="M190.7 109.18zm-19.796-4.963v5.071h20.148v-4.963l-20.148-.108" fill="#d61517"/>
        <g fill="#d61517">
            <path d="M178.91 116.507zm-66.871-1.503v1.536h68.046v-1.503l-68.046-.033"/>
            <path d="M182.419 115.697zm-74.027-1.503v1.536h75.328v-1.503l-75.328-.033"/>
            <path d="M185.533 114.482zm-77.605-1.503v1.536h78.969v-1.503l-78.969-.033"/>
            <path d="M185.533 114.482zm-77.605-1.503v1.536h78.969v-1.503l-78.969-.033"/>
            <path d="M187.807 112.863zm-80.74-1.503v1.536h82.159v-1.503l-82.159-.033"/>
        </g>
        <path d="M354.19 182.67zm-14.986-3.919v4.005h15.252v-3.919l-15.252-.086" fill="#d61517"/>
        <path d="M404.57 182.21zm-22.588-3.919v4.005h22.99v-3.919l-22.99-.086" fill="#d61517"/>
        <path d="M406.89 176.57zm-20.167-12.305v12.574h20.525v-12.305l-20.525-.269" fill="#d61517"/>
        <path d="M383.89 176.56zm-8.243-12.751v13.029h8.389v-12.751l-8.389-.279" fill="#d61517"/>
        <path d="M340.5 176.99zm-16.775-13.642v13.94h17.073v-13.642l-17.073-.298" fill="#d61517"/>
        <path d="M354.26 176.99zm-10.591-13.826v14.128h10.779v-13.826l-10.779-.302" fill="#d61517"/>
        <path d="M338.66 183.03zm-17.669-7.928v8.101h17.983v-7.928l-17.983-.173" fill="#a11011"/>
        <path fill="#d61517" d="M285.54 177.09v5.78h23.613v-5.78h-23.613m31.484 0v5.78h20.99v-5.78h-20.99z"/>
        <path d="M298.25 162.01zm-38.132-11.936v12.197h38.809v-11.936l-38.809-.261" fill="#d61517"/>
        <path fill-rule="evenodd" fill="#a11011" d="M387.66 88.852h23.667v6.827h-23.667z"/>
        <path fill-rule="evenodd" fill="#a11011" d="M353.07 88.397h26.398v7.737h-26.398z"/>
        <path fill-rule="evenodd" fill="#a11011" d="M323.94 88.852h20.937v6.827h-20.937z"/>
        <path d="M408.49 109.13zm-76.616 10.801l-8.146-11.473 87.617.455-10.497 9.576" fill="#a11011"/>
        <path fill="#d61517" d="M324.72 102.43v5.325h18.684v-5.325h-18.684m21.354 0v5.325h42.707v-5.325h-42.707m45.377 0v5.325h18.684v-5.325h-18.684z"/>
        <path fill="#d61517" d="M324.72 90.027v4.038h18.684v-4.038h-18.684m29.361 0v4.038h24.023v-4.038h-24.023z"/>
        <path fill="#d61517" d="M388.78 90.483v3.394h21.354v-3.394h-21.354z"/>
        <path fill-rule="evenodd" fill="#a11011" d="M323.94 95.679h87.387v13.654h-87.387z"/>
        <path d="M361.83 160.1zm-35.372-11.046v11.287h36v-11.046l-36-.241" fill="#d61517"/>
        <path d="M403.84 160.1zm-38.055-11.046v11.287h38.731v-11.046l-38.731-.241" fill="#d61517"/>
        <path d="M363.04 101.09zm-37.946-3.919v4.005h38.62v-3.919l-38.62-.086" fill="#d61517"/>
        <path d="M343.73 146.9zm-14.539-11.046v11.287h14.797v-11.046l-14.797-.241" fill="#d61517"/>
        <path d="M386.16 146.9zm-38.655-11.046v11.287h39.342v-11.046l-39.342-.241" fill="#d61517"/>
        <path d="M402.47 147.35zm-12.75-11.046v11.287h12.976v-11.046l-12.976-.241" fill="#d61517"/>
        <path d="M364.59 133.39zm-33.583-7.896v8.069h34.179v-7.896l-34.179-.172" fill="#d61517"/>
        <path d="M400.75 133.39zm-32.688-7.896v8.069h33.269v-7.896l-33.269-.172" fill="#d61517"/>
        <path d="M390.45 122.48zm-48.973-3.919v4.005h49.843v-3.919l-49.843-.086" fill="#d61517"/>
        <path d="M399.39 122.48zm-6.936-3.919v4.005h7.059v-3.919l-7.059-.086" fill="#d61517"/>
        <path d="M339.75 122.48zm-7.831-3.919v4.005h7.97v-3.919l-7.97-.086" fill="#d61517"/>
        <path d="M409.69 101.09zm-41.818-3.919v4.005h42.56v-3.919l-42.56-.086" fill="#d61517"/>
        <path d="M344.19 108.4zm-18.64-6.223v6.359h18.971v-6.223l-18.971-.136" fill="#d61517"/>
        <path d="M384.38 108.41zm-36.528-5.777v5.903h37.177v-5.777l-37.177-.126" fill="#d61517"/>
        <path d="M409.59 108.41zm-21.694-5.593v5.715h22.079v-5.593l-22.079-.122" fill="#d61517"/>
        <g fill="#d61517">
            <path d="M397.838 116.396zm-66.871-1.503v1.536h68.046v-1.503l-68.046-.033"/>
            <path d="M401.347 115.586zm-74.027-1.503v1.536h75.328v-1.503l-75.328-.033"/>
            <path d="M404.461 114.371zm-77.605-1.503v1.536h78.969v-1.503l-78.969-.033"/>
            <path d="M404.461 114.371zm-77.605-1.503v1.536h78.969v-1.503l-78.969-.033"/>
            <path d="M406.735 112.752zm-80.74-1.503v1.536h82.159v-1.503l-82.159-.033"/>
        </g>
        <g fill="#d61517">
            <path d="M397.838 115.168zm-66.871-.384v.392h68.046v-.384l-68.046-.008"/>
            <path d="M401.347 114.962zm-74.027-.384v.392h75.328v-.384l-75.328-.008"/>
            <path d="M404.461 114.653zm-77.605-.384v.392h78.969v-.384l-78.969-.008"/>
            <path d="M404.461 114.653zm-77.605-.384v.392h78.969v-.384l-78.969-.008"/>
            <path d="M406.735 114.24zm-80.74-.384v.392h82.159v-.384l-82.159-.008"/>
        </g>
        <path fill-rule="evenodd" fill="#808080" d="M232.07 462.6h19.954v28.965h-19.954z"/>
        <path fill-rule="evenodd" fill="#ffc500" d="M234.64 464.54h17.379v25.103h-17.379z"/>
        <path fill-rule="evenodd" fill="#808080" d="M237.86 469.68h11.586v17.379h-11.586z"/>
        <path fill-rule="evenodd" fill="#d61517" d="M240.44 471.62h7.08v13.517h-7.08z"/>
        <g fill-rule="evenodd">
            <path fill="#808080" d="M231.443 474.208h7.724v9.012h-7.724z"/>
            <path fill="#d61517" d="M231.443 476.134h8.368v5.149h-8.368z"/>
        </g>
        <g fill-rule="evenodd">
            <path fill="#808080" d="M261.332 502.945h-9.656v-75.319h9.656z"/>
            <path fill="#ffc500" d="M259.396 501.019h-5.794v-71.456h5.794z"/>
        </g>
        <path fill-rule="evenodd" fill="#808080" d="M283.112 407.475l-4.691 4.441-25.197-23.854 4.691-4.441z"/>
        <path fill-rule="evenodd" fill="#808080" d="M261.015 432.113l-4.433-4.854 21.935-24.018 4.433 4.854z"/>
        <path fill-rule="evenodd" fill="#ffc500" d="M254.326 388.39l3.834-3.677 23.856 22.876-3.834 3.677z"/>
        <path fill-rule="evenodd" fill="#ffc500" d="M259.698 432.207l-3.55-3.928 22.092-24.444 3.55 3.928z"/>
        <path fill-rule="evenodd" fill="#808080" d="M230.869 410.55l4.433-4.357 21.936 21.557-4.433 4.357z"/>
        <path fill-rule="evenodd" fill="#808080" d="M254.871 383.839l4.799 4.656-25.772 25.005-4.799-4.656z"/>
        <path fill-rule="evenodd" fill="#ffc500" d="M235.311 411.494l-3.739-3.739 23.268-23.268 3.739 3.739z"/>
        <path fill-rule="evenodd" fill="#808080" d="M254.14 336.22h5.149v62.156h-5.149z"/>
        <path fill-rule="evenodd" fill="#ffc500" d="M255.01 337.05h3.54v60.114h-3.54z"/>
        <path fill-rule="evenodd" fill="#ffc500" d="M230.432 408.962l3.992-3.992 24.837 24.837-3.992 3.992z"/>
        <g fill-rule="evenodd" transform="matrix(1.311 0 0 1.056 -279.63 -7.672)" fill="#a11011">
            <path d="M477.98 275.98h34.57v44.301h-34.57z"/>
            <rect ry="18.298" height="36.596" width="34.311" y="258.3" x="478.13"/>
        </g>
        <g fill-rule="evenodd" transform="matrix(1.241 0 0 1.02 -244.64 3.969)" fill="#d61517">
            <path d="M477.98 275.98h34.57v44.301h-34.57z"/>
            <rect ry="18.298" height="36.596" width="34.311" y="258.3" x="478.13"/>
        </g>
        <g fill-rule="evenodd" transform="matrix(.925 0 0 .957 -87.879 23.926)" fill="#a11011">
            <path d="M477.98 275.98h34.57v44.301h-34.57z"/>
            <rect ry="18.298" height="36.596" width="34.311" y="258.3" x="478.13"/>
        </g>
        <path fill-rule="evenodd" fill="#d61517" d="M355.98 289.23h28.039v40.449h-28.039z"/>
        <rect fill-rule="evenodd" ry="16.707" height="33.414" width="27.829" y="273.09" x="356.11" fill="#d61517"/>
        <g fill-rule="evenodd" transform="matrix(1.348 0 0 1.056 -412.97 -8.717)" fill="#a11011">
            <path d="M477.98 275.98h34.57v44.301h-34.57z"/>
            <rect ry="18.298" height="36.596" width="34.311" y="258.3" x="478.13"/>
        </g>
        <g fill-rule="evenodd" transform="matrix(1.277 0 0 1.02 -376.99 2.924)" fill="#d61517">
            <path d="M477.98 275.98h34.57v44.301h-34.57z"/>
            <rect ry="18.298" height="36.596" width="34.311" y="258.3" x="478.13"/>
        </g>
        <g fill-rule="evenodd" transform="matrix(.951 0 0 .957 -215.77 22.881)" fill="#a11011">
            <path d="M477.98 275.98h34.57v44.301h-34.57z"/>
            <rect ry="18.298" height="36.596" width="34.311" y="258.3" x="478.13"/>
        </g>
        <g fill-rule="evenodd" transform="matrix(.834 0 0 .913 -158 36.213)" fill="#d61517">
            <path d="M477.98 275.98h34.57v44.301h-34.57z"/>
            <rect ry="18.298" height="36.596" width="34.311" y="258.3" x="478.13"/>
        </g>
        <g fill-rule="evenodd" transform="matrix(1.33 0 0 1.056 -515.42 -8.556)" fill="#a11011">
            <path d="M477.98 275.98h34.57v44.301h-34.57z"/>
            <rect ry="18.298" height="36.596" width="34.311" y="258.3" x="478.13"/>
        </g>
        <g fill-rule="evenodd" transform="matrix(1.259 0 0 1.02 -479.94 3.085)" fill="#d61517">
            <path d="M477.98 275.98h34.57v44.301h-34.57z"/>
            <rect ry="18.298" height="36.596" width="34.311" y="258.3" x="478.13"/>
        </g>
        <g fill-rule="evenodd" transform="matrix(.938 0 0 .957 -320.95 23.042)" fill="#a11011">
            <path d="M477.98 275.98h34.57v44.301h-34.57z"/>
            <rect ry="18.298" height="36.596" width="34.311" y="258.3" x="478.13"/>
        </g>
        <g fill-rule="evenodd" transform="matrix(.823 0 0 .913 -263.97 36.374)" fill="#d61517">
            <path d="M477.98 275.98h34.57v44.301h-34.57z"/>
            <rect ry="18.298" height="36.596" width="34.311" y="258.3" x="478.13"/>
        </g>
        <path d="M233.03 322.27v2.312h6.294v-2.312h-6.294z" fill="#a11011"/>
        <path d="M121.19 320.66v2.312h6.294v-2.312h-6.294z" fill="#a11011"/>
        <path d="M121.19 303.44v2.312h6.294v-2.312h-6.294z" fill="#a11011"/>
        <path d="M121.35 287.19v2.312h6.294v-2.312h-6.294z" fill="#a11011"/>
        <path d="M159.65 321.3v2.312h6.294v-2.312h-6.294z" fill="#a11011"/>
        <path d="M159.49 303.92v2.312h6.294v-2.312h-6.294z" fill="#a11011"/>
        <path d="M159.01 287.51v2.312h6.294v-2.312h-6.294z" fill="#a11011"/>
        <path d="M242.09 278.03l1.635-1.635-4.45-4.45-1.635 1.635 4.45 4.45z" fill="#a11011"/>
        <path d="M271.16 322.11v2.312h6.294v-2.312h-6.294z" fill="#a11011"/>
        <path d="M233.19 303.6v2.312h6.294v-2.312h-6.294z" fill="#a11011"/>
        <path d="M232.71 287.03v2.312h6.294v-2.312h-6.294z" fill="#a11011"/>
        <path d="M271.16 303.92v2.312h6.294v-2.312h-6.294z" fill="#a11011"/>
        <path d="M271.49 286.22v2.312h6.294v-2.312h-6.294z" fill="#a11011"/>
        <path d="M348.24 322.91v2.312h6.294v-2.312h-6.294z" fill="#a11011"/>
        <path d="M348.24 303.6v2.312h6.294v-2.312h-6.294z" fill="#a11011"/>
        <path d="M348.4 285.26v2.312h6.294v-2.312h-6.294z" fill="#a11011"/>
        <path d="M385.58 323.07v2.312h6.294v-2.312h-6.294z" fill="#a11011"/>
        <path d="M385.42 303.76v2.312h6.294v-2.312h-6.294z" fill="#a11011"/>
        <path d="M385.58 285.9v2.312h6.294v-2.312h-6.294z" fill="#a11011"/>
        <g fill-rule="evenodd" transform="matrix(.559 0 0 .463 88.214 34.398)" fill="#a11011">
            <path d="M477.98 275.98h34.57v44.301h-34.57z"/>
            <rect ry="18.298" height="36.596" width="34.311" y="258.3" x="478.13"/>
        </g>
        <g fill-rule="evenodd" transform="matrix(.529 0 0 .447 103.13 39.501)" fill="#d61517">
            <path d="M477.98 275.98h34.57v44.301h-34.57z"/>
            <rect ry="18.298" height="36.596" width="34.311" y="258.3" x="478.13"/>
        </g>
        <g fill-rule="evenodd" transform="matrix(.394 0 0 .42 169.98 48.249)" fill="#a11011">
            <path d="M477.98 275.98h34.57v44.301h-34.57z"/>
            <rect ry="18.298" height="36.596" width="34.311" y="258.3" x="478.13"/>
        </g>
        <g fill-rule="evenodd" transform="matrix(.346 0 0 .4 193.94 54.093)" fill="#d61517">
            <path d="M477.98 275.98h34.57v44.301h-34.57z"/>
            <rect ry="18.298" height="36.596" width="34.311" y="258.3" x="478.13"/>
        </g>
        <path d="M371.21 265.24h-2.312v6.294h2.312v-6.294z" fill="#a11011"/>
        <path d="M273.33 274.06l-1.635-1.635-4.45 4.45 1.635 1.635 4.45-4.45z" fill="#a11011"/>
        <path d="M386.46 273.9l-1.635-1.635-4.45 4.45 1.635 1.635 4.45-4.45z" fill="#a11011"/>
        <path d="M358.27 278.19l1.635-1.635-4.45-4.45-1.635 1.635 4.45 4.45z" fill="#a11011"/>
        <path d="M129.37 270.66l-1.635 1.635 4.45 4.45 1.635-1.635-4.45-4.45z" fill="#a11011"/>
        <path d="M256.48 264.76h-2.312v6.294h2.312v-6.294z" fill="#a11011"/>
        <path d="M142.33 272.02h2.312v-6.294h-2.312v6.294z" fill="#a11011"/>
        <path d="M154.77 276.23l1.635 1.635 4.45-4.45-1.635-1.635-4.45 4.45z" fill="#a11011"/>
        <path d="M358.63 175.86v7.006h22.902v-7.006h-22.902z" fill="#a11011"/>
        <path fill="#d61517" d="M359.37 177.09v5.325h21.354v-5.325h-21.354z"/>
        <g fill-rule="evenodd">
            <g transform="matrix(.632 0 0 .477 -58.116 30.385)" fill="#a11011">
                <path d="M477.98 275.98h34.57v44.301h-34.57z"/>
                <rect ry="18.298" height="36.596" width="34.311" y="258.3" x="478.13"/>
            </g>
            <g transform="matrix(.598 0 0 .46 -41.255 35.638)" fill="#d61517">
                <path d="M477.98 275.98h34.57v44.301h-34.57z"/>
                <rect ry="18.298" height="36.596" width="34.311" y="258.3" x="478.13"/>
            </g>
            <g transform="matrix(.446 0 0 .432 34.327 44.65)" fill="#a11011">
                <path d="M477.98 275.98h34.57v44.301h-34.57z"/>
                <rect ry="18.298" height="36.596" width="34.311" y="258.3" x="478.13"/>
            </g>
            <g transform="matrix(.391 0 0 .412 61.416 50.665)" fill="#d61517">
                <path d="M477.98 275.98h34.57v44.301h-34.57z"/>
                <rect ry="18.298" height="36.596" width="34.311" y="258.3" x="478.13"/>
            </g>
        </g>
        <path d="M244.32 176.14v7.006h25.424v-7.006h-25.424z" fill="#a11011"/>
        <path fill="#d61517" d="M244.6 177.55v5.325h24.023v-5.325h-24.023z"/>
        <g fill-rule="evenodd">
            <g transform="matrix(.632 0 0 .477 -169.906 30.385)" fill="#a11011">
                <path d="M477.98 275.98h34.57v44.301h-34.57z"/>
                <rect ry="18.298" height="36.596" width="34.311" y="258.3" x="478.13"/>
            </g>
            <g transform="matrix(.598 0 0 .46 -153.045 35.638)" fill="#d61517">
                <path d="M477.98 275.98h34.57v44.301h-34.57z"/>
                <rect ry="18.298" height="36.596" width="34.311" y="258.3" x="478.13"/>
            </g>
            <g transform="matrix(.446 0 0 .432 -77.463 44.65)" fill="#a11011">
                <path d="M477.98 275.98h34.57v44.301h-34.57z"/>
                <rect ry="18.298" height="36.596" width="34.311" y="258.3" x="478.13"/>
            </g>
            <g transform="matrix(.391 0 0 .412 -50.374 50.665)" fill="#d61517">
                <path d="M477.98 275.98h34.57v44.301h-34.57z"/>
                <rect ry="18.298" height="36.596" width="34.311" y="258.3" x="478.13"/>
            </g>
        </g>
        <path d="M128.32 173.9v8.407h22.342v-8.407h-22.342z" fill="#a11011"/>
        <path d="M149.29 182.59zm-19.458-7.482v7.646h19.803v-7.482l-19.803-.163" fill="#d61517"/>
    </g>
</svg>
