<svg xmlns="http://www.w3.org/2000/svg" id="flag-icon-css-gr" version="1.1" viewBox="0 0 640 480">
  <defs id="defs1852">
    <clipPath id="a">
      <path id="path1849" fill-opacity=".7" d="M0 0h120v90H0z"/>
    </clipPath>
  </defs>
  <path id="path1854" fill="#005bae" fill-opacity="1" fill-rule="evenodd" stroke-width="6.7" d="M0 0h640v53.3H0z"/>
  <path id="path1856" fill="#fff" fill-rule="evenodd" stroke-width="6.7" d="M0 53.3h640v53.4H0z"/>
  <path id="path1858" fill="#005bae" fill-rule="evenodd" stroke-width="6.7" d="M0 106.7h640V160H0z"/>
  <path id="path1860" fill="#fff" fill-rule="evenodd" stroke-width="6.7" d="M0 160h640v53.3H0z"/>
  <path id="rect1897" fill="#005bae" fill-opacity="1" stroke-width=".9" d="M0 0h266.7v266.7H0z"/>
  <path id="path1862" fill="#005bae" fill-rule="evenodd" stroke-width="6.7" d="M0 213.3h640v53.4H0z"/>
  <path id="path1864" fill="#fff" fill-rule="evenodd" stroke-width="6.7" d="M0 266.7h640V320H0z"/>
  <path id="path1866" fill="#005bae" fill-rule="evenodd" stroke-width="6.7" d="M0 320h640v53.3H0z"/>
  <path id="path1868" fill="#fff" fill-rule="evenodd" stroke-width="6.7" d="M0 373.3h640v53.4H0z"/>
  <g id="g1876" fill="#fff" fill-rule="evenodd" stroke-width="1.3" transform="scale(5.33333)">
    <path id="path1872" d="M20 0h10v50H20z"/>
    <path id="path1874" d="M0 20h50v10H0z"/>
  </g>
  <path id="rect6401" fill="#005bae" fill-opacity="1" stroke-width=".6" d="M0 426.7h640V480H0z"/>
</svg>
