<svg xmlns="http://www.w3.org/2000/svg" height="480" width="640">
    <g>
        <path fill-rule="evenodd" fill="#be0027" d="M0 0h640v480h-640z"/>
        <path fill-rule="evenodd" fill="#3b5aa3" d="M25.6 27.343h589.54v428.37h-589.54z"/>
        <g>
            <path d="M314.345 413.235c2.424 1.329 6.257 1.258 8.414.105 137.789-73.302 137.869-274.325.201-346.593-2.557-1.347-6.275-1.274-8.816.105-134.27 73.46-134.63 272.206.201 346.393z" fill-rule="evenodd" fill="#cbe0e5"/>
            <path d="M314.345 416.861c2.142 1.746 6.462 1.579 8.414.105 101.54-76.021 102.135-123.409 97.635-123.408l-200.965.105c-3.073.003 1.771 48.106 94.915 123.197z" fill-rule="evenodd" fill="#add2d9"/>
            <path d="M235.345 331.223c8.713-2.267 19.238-2.866 27.812 1.715 7.618 3.982 12.032 3.942 20.24 4.052 8.59.116 15.344 6.428 24.633 6.675 17.102.448 24.309 8.929 11.012 8.946-6.286.009-19.761-4.189-26.262-3.287-13.587 1.402-22.208 4.41-34.994 18.631l14.777 10.126c12.782-5.209 14.924-11.069 22.001-11.303 7.996-.258 10.713-5.211 19.959-5.222 10.506 1.909 24.736-1.304 33.07-3.171 14.784-3.438 7.752-13.768-1.21-17.514-7.245-3.084-20.808-.114-29.231-3.174-6.376-2.475-1.129-6.454 2.293-7.304 3.46-.638 7.171.494 11.473 1.186 7.682.664 17.329-.074 24.073-1.131 13.944-2.16 13.356-6.249 20.09-6.358 4.91-.236 8.647-1.704 11.991-4.106 3.931-2.632 8.02-8.027 12.784-7.824l12.755.542-17.966 40.405-50.755 51.662-26.286 9.971-57.779-37.613-29.136-44.69 4.654-1.21z" fill-rule="evenodd" fill="#fdf9a1"/>
            <path d="M301.747 291.937l116.016-.54 2.04-10.279s-4.139-.618-7.479-.814c-4.165-.256-11.305 4.357-16.088 4.329-3.383-.023-7.26-6.078-10.648-5.953-5.913-.055-6.439 5.267-12.011 5.413-4.497-.154-6.413-3.588-12.236-3.246-6.107.344-5.653 3.705-13.367 3.515-10.189-.256-14.282-9.098-22.433-9.197-13.607-.162-14.051 12.986-23.795 16.772z" fill-rule="evenodd" fill="#179a3b"/>
            <path d="M301.747 294.416l119.414-.608v-3.244l-122.131.608 2.717 3.244z" fill-rule="evenodd" fill="#fdf9a1"/>
            <path d="M350.818 330.303c1.839 7.053 3.779 9.451 11.196 11.248 7.326 1.802 18.502-5.34 11.556-12.236-6.614-6.415-13.563-8.044-19.487-13.822-12.469-12.319-31.256-42.502-31.273-63.788-.015-18.279-1.778-55.797-1.791-91.332.009-2.302-6.943 6.456-6.933 8.796.319 31.349.271 55.042 1.544 86.654 1.974 23.108 13.002 38.668 22.684 52.712 4.338 6.729 10.608 13.987 12.502 21.767z" fill-rule="evenodd" fill="#a79270"/>
            <text font-family="helvetica" font-size="25.614" stroke="#fff" y="269.487" x="465.114" stroke-width="1.638" fill="#bd0728" transform="matrix(1.333 0 0 1.333 -363.07 -108.06)">
                <tspan stroke="#fff" stroke-width="1.638" fill="#bd0728">
                    G
                </tspan>
            </text>
            <text font-family="helvetica" font-size="25.614" stroke="#fff" y="269.607" x="488.065" stroke-width="1.638" fill="#bd0728" transform="matrix(1.333 0 0 1.333 -363.07 -108.06)">
                <tspan stroke="#fff" stroke-width="1.638" fill="#bd0728">
                    U
                </tspan>
            </text>
            <text font-family="helvetica" font-size="25.614" stroke="#fff" y="269.59" x="516.053" stroke-width="1.638" fill="#bd0728" transform="matrix(1.333 0 0 1.333 -363.07 -108.06)">
                <tspan stroke="#fff" stroke-width="1.638" fill="#bd0728">
                    A
                </tspan>
            </text>
            <text font-family="helvetica" font-size="25.614" stroke="#fff" y="269.542" x="539.532" stroke-width="1.638" fill="#bd0728" transform="matrix(1.333 0 0 1.333 -363.07 -108.06)">
                <tspan stroke="#fff" stroke-width="1.638" fill="#bd0728">
                    M
                </tspan>
            </text>
            <path d="M261.027 161.499c-1.544 2.979 3.615-.869 4.783-1.284 6.685-2.378 9.304-10.824 20.82-5.739 9.066 3.916 21.235 1.64 14.874 5.606-7.86 4.704-23.515 9.918-23.823 33.252 1.308 2.282 1.402 1.922 2.496-.524 2.378-5.438 13.725-20.208 19.339-18.979 2.26.585 8.898-6.674 9.053-4.602.601 5.827-9.013 17.614-8.911 33.393.024 3.654 4.519 4.838 6.685 2.267 2.153-2.267 3.366-4.61 7.137-7.589 6.668-5.471 4.827-28.674 5.65-27.584 4.72 6.111 5.445 23.345 12.475 30.414 5.842 5.875 10.566 3.062 9.291-5.097-2.538-16.356-10.269-11.68-13.949-28.597-.747-3.296-.93-6.272 3.431-4.894 5.333 1.546 8.463 4.023 12.442 10.04 3.977 5.737 11.435 11.237 15.747 14.614 7.519 5.779 10.16.734 6.572-6.683-3.973-8.321-12.927-15.22-21.071-18.238-6.17-2.132-8.369-2.335-13.805-3.379-1.511-.321-3.073-3.416-.387-5.126 5.757-3.518 12.645-7.493 19.63-7.694 6.724-.17 12.051 5.22 16.766 6.569 9.404 2.466 9.356-3.503 5.211-7.93-3.405-3.739-10.608-10.007-17.332-9.175-13.567 1.664-12.711 1.284-21.033 6.805-3.053 1.8-6.443 3.785-5.178 1.603 3.044-5.477.207-4.536 4.912-10.11 3.658-4.084 6.345-7.024 9.97-8.044 3.444-.83 7.993-4.488 9.402-6.345 3.379-4.674.465-7.343-4.757-5.777-4.532 1.247-6.969 4.263-10.083 5.097-7.308 2.302-13.204 19.021-14.104 21.389-1.164 2.828-2.453 1.426-2.215-.97 1.055-11.805 2.053-31.568-2.116-39.705-6.275-11.997-5.694-6.403-8.103-.71-3.628 9.044-2.367 17.474-.083 26.339.998 4.425 4.704 9.459 5.368 12.931.478 2.728-1.583-.85-2.782-2.485-3.94-6.03-6.821-10.107-13.237-13.39-4.383-2.776-16.192-3.149-20.303-1.885-1.78.548 1.974 3.088 3.564 4.351 4.302 3.42 12.455 4.486 17.941 7.858 4.711 2.896 8.297 4.759 9.858 8.762.651 2.972 1.616 7.384-.343 7.277-5.139-.295-13.126-4.741-29.523-2.913-8.373 1.107-15.644 8.271-20.279 16.88z" fill-rule="evenodd" fill="#239e46"/>
            <path fill-rule="evenodd" d="M296.765 311.502h4.757v7.93h-4.757z"/>
            <path d="M273.144 258.675c18.867 26.125 49.109 41.356 49.714 53.221-19.107-.076-39.818.009-58.927-.065 13.538-16.277 21.789-27.267 9.212-53.156z" fill-rule="evenodd" fill="#fdf9ff"/>
            <path d="M255.989 312.488c25.634 5.716 56.235 8.865 75.782-.799.159 5.713-6.355 13.938-11.697 13.938h-49.185c5.713-.819 8.972-2.562 18.267-3.044l-26.113.321c-2.885.107-8.013-7.64-7.052-10.415z" fill-rule="evenodd" fill="#a68861"/>
            <path d="M314.121 426.26c2.605 1.428 6.724 1.352 9.044.114 148.096-78.827 148.176-294.993.216-372.72-2.75-1.449-6.744-1.37-9.476.113-144.311 78.996-144.697 292.713.216 372.494zm.736-17.796c2.276 1.26 5.871 1.195 7.895.098 123.965-72.956 125.483-265.694.188-334.783-2.398-1.761-5.886-1.21-8.271.099-118.726 70.212-125.347 255.003.188 334.583z" fill-rule="evenodd" fill="#be0027"/>
            <text font-size="25.614" y="269.487" x="465.114" font-family="helvetica" fill="#bd0728" transform="matrix(1.333 0 0 1.333 -363.07 -108.06)">
                <tspan fill="#bd0728">
                    G
                </tspan>
            </text>
            <text font-size="25.614" y="269.607" x="488.065" font-family="helvetica" fill="#bd0728" transform="matrix(1.333 0 0 1.333 -363.07 -108.06)">
                <tspan fill="#bd0728">
                    U
                </tspan>
            </text>
            <text font-size="25.614" y="269.59" x="516.053" font-family="helvetica" fill="#bd0728" transform="matrix(1.333 0 0 1.333 -363.07 -108.06)">
                <tspan fill="#bd0728">
                    A
                </tspan>
            </text>
            <text font-size="25.614" y="269.542" x="539.532" font-family="helvetica" fill="#bd0728" transform="matrix(1.333 0 0 1.333 -363.07 -108.06)">
                <tspan fill="#bd0728">
                    M
                </tspan>
            </text>
        </g>
    </g>
</svg>
