<svg xmlns="http://www.w3.org/2000/svg" id="flag-icon-css-hk" width="640" height="480">
  <defs>
    <clipPath id="a">
      <path fill-opacity=".67" d="M-89.05 0h682.67v512H-89.05z"/>
    </clipPath>
  </defs>
  <g clip-path="url(#a)" transform="translate(83.48) scale(.94)">
    <path fill="#ba0000" fill-rule="evenodd" d="M618 512h-731.43V0H618z"/>
    <path fill="#fff" fill-rule="evenodd" d="M241.87 247.8s-51.62-22.22-44.2-79.81c7.16-27.73 19.83-46.6 42.77-56.88 10.75-3.35 21.75-4.78 32.98-5.74-2.95 2.79-5.42 5.58-6.7 9.08-2.46 6.3-.63 12.35 2.64 18.4 4.14 7.01 6.6 14.26 7.4 23.66a36.64 36.64 0 0 1-14.57 33.7c-6.61 5.1-14.42 6.85-20.8 12.67-4.93 4.86-7.96 9.72-9.07 18.16-.16 16.09 4.22 18.32 9.56 26.77z"/>
    <path fill="#ba0000" fill-rule="evenodd" stroke="#000" stroke-width="2.15" d="M232.08 164.48v-.24"/>
    <path fill="none" stroke="#ba0000" stroke-width="2.15" d="M235.34 241.82c-20.08-17.76-18.33-62.45-3.03-77.34"/>
    <path fill="#ba0000" fill-rule="evenodd" d="M244.63 154.48l3.3 5.52-6.12-2.5-4.57 4.91.8-6.44-6.13-2.48 6.62-1.5.78-6.44 3.3 5.52 6.6-1.5"/>
    <path fill="#fff" fill-rule="evenodd" d="M246.26 244s6.13-55.87 63.36-65.67c28.6-1.27 50.37 5.31 66.92 24.24 6.35 9.3 10.94 19.39 15.14 29.85-3.53-2-6.92-3.55-10.64-3.74-6.74-.52-12 3.01-16.82 7.9-5.5 6.02-11.7 10.5-20.45 14.02a36.63 36.63 0 0 1-36.5-4.06c-6.8-4.83-10.77-11.78-18.2-16.17-6.09-3.3-11.62-4.77-20.02-3.36-15.43 4.56-16.28 9.4-22.8 16.98z"/>
    <path fill="#ba0000" fill-rule="evenodd" stroke="#000" stroke-width="2.15" d="M323.06 210.2l.23-.06"/>
    <path fill="none" stroke="#ba0000" stroke-width="2.15" d="M250.06 235.99c11.1-24.4 54.34-35.82 73.07-25.56"/>
    <path fill="#ba0000" fill-rule="evenodd" d="M336.3 219.28l-4.31 4.77.59-6.58-6.04-2.93 6.4-1.12.58-6.59 3.36 5.9 6.4-1.15-4.32 4.77 3.37 5.88"/>
    <path fill="#fff" fill-rule="evenodd" d="M250.12 248.03s54.92-11.94 82.38 39.22c10.29 26.73 10.96 49.45-1.73 71.15-6.8 8.97-14.91 16.54-23.5 23.84.79-3.98 1.17-7.68.17-11.28-1.65-6.55-6.66-10.41-12.84-13.44-7.44-3.3-13.67-7.75-19.78-14.94a36.64 36.64 0 0 1-7.74-35.89c2.42-8 7.75-13.95 9.55-22.4 1.2-6.82.83-12.53-3.17-20.05-9.23-13.18-14.1-12.45-23.34-16.21z"/>
    <path fill="#ba0000" fill-rule="evenodd" stroke="#000" stroke-width="2.15" d="M306.54 310.12l.14.2"/>
    <path fill="none" stroke="#ba0000" stroke-width="2.15" d="M258.91 249.09c26.67 2.78 51.22 40.15 47.44 61.16"/>
    <path fill="#ba0000" fill-rule="evenodd" d="M302.14 325.56l-5.9-2.58 6.44-1.53.86-6.65 3.1 5.7 6.43-1.53-4.52 5.05 3.11 5.7-5.89-2.58-4.5 5.07"/>
    <path fill="#fff" fill-rule="evenodd" d="M248.88 253.69s26.88 49.36-14.51 90.08c-22.76 17.38-44.38 24.41-68.77 18.33-10.52-4.01-20.06-9.67-29.48-15.86 4.04-.37 7.7-1.04 10.87-3 5.83-3.43 8.13-9.33 9.3-16.1 1.07-8.08 3.6-15.3 8.78-23.19a36.64 36.64 0 0 1 32.27-17.5c8.35.07 15.57 3.51 24.18 2.88 6.88-.78 12.26-2.73 18.36-8.68 10.06-12.56 7.99-17.02 9-26.96z"/>
    <path fill="#ba0000" fill-rule="evenodd" stroke="#000" stroke-width="2.15" d="M205.13 325.28l-.14.2"/>
    <path fill="none" stroke="#ba0000" stroke-width="2.15" d="M250.33 262.43c4.82 26.37-24.15 60.44-45.38 62.7"/>
    <path fill="#ba0000" fill-rule="evenodd" d="M189.08 325.4l.82-6.39 3.27 5.74 6.63-1.04-4.6 4.58 3.27 5.74-6.12-2.91-4.6 4.58.83-6.38-6.13-2.9"/>
    <path fill="#fff" fill-rule="evenodd" d="M242.8 252.62s-37.63 41.75-89.8 16.25c-23.95-15.7-37.76-33.75-40.12-58.78.28-11.26 2.45-22.13 5.15-33.07 1.7 3.68 3.54 6.92 6.46 9.25 5.16 4.36 11.49 4.57 18.27 3.42 7.97-1.67 15.62-1.68 24.78.58a36.64 36.64 0 0 1 27.23 24.62c2.7 7.9 1.86 15.86 5.32 23.76 3.02 6.24 6.65 10.67 14.29 14.43 15.18 5.32 18.7 1.89 28.42-.46z"/>
    <path fill="#ba0000" fill-rule="evenodd" stroke="#000" stroke-width="2.15" d="M160.73 235.15l-.22-.08"/>
    <path fill="none" stroke="#ba0000" stroke-width="2.15" d="M235.03 256.89c-23.27 13.31-65.03-2.7-74.22-21.96"/>
    <path fill="#ba0000" fill-rule="evenodd" d="M155.3 220.04l6.28-1.35-4.33 5 3.19 5.9-5.85-2.82-4.32 5 .71-6.74-5.85-2.81 6.3-1.34.7-6.75"/>
  </g>
</svg>
