<svg xmlns="http://www.w3.org/2000/svg" viewBox="0 0 512 512" height="480" width="640" version="1">
  <defs>
    <clipPath id="a">
      <path fill-opacity=".67" d="M-85.333 0h682.67v512h-682.67z"/>
    </clipPath>
  </defs>
  <g clip-path="url(#a)" fill-rule="evenodd" stroke-width="1pt">
    <path fill="#fff" d="M-226.62 139.08h993.54v216.28h-993.54z"/>
    <path fill="#087bce" d="M765.11 512h-989.67V339.13h989.67zM767.53 168.1h-994.15V0h994.15zM259.307 260.72l-19.63-13.516 24.444-.096 7.788-22.082 7.28 22.01 24.444-.137-19.944 13.7 7.318 22-19.607-13.542-19.92 13.73M402.25 297.52l-19.628-13.516 24.443-.096 7.787-22.082 7.28 22.01 24.444-.137-19.944 13.7 7.318 22-19.607-13.542-19.92 13.73M402.25 221.09l-19.628-13.516 24.443-.096 7.787-22.082 7.28 22.01 24.444-.137-19.944 13.7 7.318 22-19.607-13.542-19.92 13.73M86.638 297.52l-19.63-13.516 24.444-.096 7.787-22.082 7.28 22.01 24.443-.137-19.944 13.7 7.317 22-19.607-13.542-19.92 13.73M86.638 221.09l-19.63-13.516 24.444-.096 7.787-22.082 7.28 22.01 24.443-.137-19.944 13.7 7.317 22-19.607-13.542-19.92 13.73"/>
  </g>
</svg>
