<svg xmlns="http://www.w3.org/2000/svg" height="480" width="640" version="1"><defs><clipPath id="a"><rect fill-opacity=".67" height="480" width="640"/></clipPath></defs><g clip-path="url(#a)"><rect fill-rule="evenodd" height="170.15" width="936.34" y="135.66" x="-148.86" fill="#fff"/><rect fill-rule="evenodd" height="190.24" width="938.16" y="289.76" x="-148.01" fill="#003e9f"/><rect fill-rule="evenodd" height="159.51" width="939.68" x="-150.15" fill="#d61517"/><g transform="matrix(1.245 0 0 1.245 -78.769 -50.054)"><path d="M242.64 155.17c24.536-8.728 51.74-13.437 78.329-13.504 26.589-.067 53.705 4.105 80.499 13.706l19.944-40.235-14.018-24.419s-25.011 10.273-25.216 10.273c-.205 0-17.635-19.182-17.635-19.182l-22.39 13.523-21.01-16.073-19.78 15.825-23.08-13.34-16.83 20.008-25.24-10.792-13.51 24.195 19.932 40.015z" fill-rule="evenodd" stroke="#e5141d" stroke-linecap="round" stroke-width="1.066" fill="#fff"/><path d="M370.5 144.01l11.42-40.371 24.457-9.925 12.885 21.634-18.5 37.839c-10.634-4.249-16.331-6.069-30.263-9.177z" fill-rule="evenodd" stroke="#0084fd" stroke-width=".267pt" fill="#00a7bd"/><path d="M273.69 144.11l-10.675-39.69 16.061-19.712 22.854 13.194 3.857 41.721c-11.167.829-19.238 1.889-32.098 4.487z" fill="none"/><path d="M306.1 139.64l-3.857-41.811 19.436-15.45 20.307 15.412-3.588 41.886c-11.189-.592-19.18-.574-32.298-.038z" fill-rule="evenodd" stroke="#0084fd" stroke-width=".267pt" fill="#00a7bd"/><path d="M243.61 153.16l-18.117-38.322 12.108-21.155 25.099 10.924 10.605 39.535c-11.46 2.37-17.528 4.306-29.695 9.017z" stroke-opacity=".996" fill-rule="evenodd" stroke="#0084fd" stroke-width=".267pt" fill="#00a7bd"/><path d="M237.97 131.93c5.705 1.155 9.77 1.196 14.885-.206 6.111-2.502 8.27-5.872 10.26-8.58.925 5.72-.042 10.904-7.022 14.562-6.266 2.888-14.717 1.073-18.123-5.775z" fill-rule="evenodd" stroke="#fff" stroke-width=".267pt" fill="#fff"/><g transform="matrix(.269 0 0 .264 215.86 72.486)"><path d="M410.94 120.56l-4.063 1.016.156 7.5-5 1.094-3.497 6.614 2.159 2.044c.111.221-1.703 4.892-1.625 4.892l1.323 1.762 1.328 4.063 3.359.468.86 4.766 5.312.859 4.922 3.516.312 2.188 5.625.156 3.829 1.25 13.359-1.563 1.797-2.812.156-3.828 7.188-.235.657-6.105h3.809l-.474-6.875 3.177.286-.82-3.295-1.975-2.683-.39-4.218-5.625-5.625-1.25-7.344s-3.594-1.641-3.594-1.719l-.234-4.922 4.062-5.703-.39-2.265-3.75-.079-2.813 2.344s-3.75.391-3.75.469v1.719s.938 3.203.938 3.281h-4.297l-.157-5.078-6.093-3.047s-5.703 3.906-5.703 3.984l-.313 4.532-2.734.781-2.813-4.219-4.922-1.875-2.656-.156-.078 3.281 5.156 6.797-.468 3.984z" stroke-opacity=".996" fill-rule="evenodd" fill-opacity=".996" stroke="#544b20" fill="#faf703"/><path d="M449.23 148.04l-1.105-4.088" stroke="#544b20" fill="none"/><path d="M452.33 141.3l-1.878-2.762" stroke="#544b20" fill="none"/><path d="M400.84 138.21l5.856-.332 1.105 5.303 1.988 1.768.332 9.723 1.878.773.553-3.867 4.53-.331.883 7.844-1.104.995.442 1.215 5.413-.11s1.216-2.1 1.326-2.1c.111 0 3.094-.331 3.094-.221 0 .111 1.215 2.321 1.215 2.321l.884-2.984s2.873-1.215 2.873-1.104c0 .11 2.32 3.756 2.32 3.756l3.977-.552-2.43-2.32-.995-5.083 5.524-2.983 2.21 3.757s2.099.11 1.989 0c-.111-.111-2.431-4.309-2.431-4.309v-8.839l4.199-5.745 5.855-.663v-2.431l-5.855-5.414-1.547-7.513-3.315-1.657-.884.994-3.646.332 3.646 5.414v3.535l1.658.884-.332 9.723s-4.088.552-4.088.663c0 .11-.331 5.413-.331 5.413l-2.541 2.542s-1.437 5.082-1.547 5.082c-.111 0-2.431 3.093-2.431 3.093l-4.53.111s-2.651-2.541-2.651-2.652c0-.11-.442-3.756-.442-3.756s-1.768-.553-1.879-.553c-.11 0-.994-4.088-.994-4.088l-3.094-1.767-.22-2.431-2.984-1.326s-.331-2.21-.442-2.32c-.11-.111-1.436-.994-1.546-.994-.111 0-.111-6.077-.111-6.077l2.652-.442-1.485-1.94-.504-1.706v-1.768l2.21-2.21s-3.978-.552-3.978-.442c0 .111-3.866 1.768-3.866 1.658.11 0-.111 7.181-.111 7.181l-4.53 1.437-3.646 5.855 1.878 1.658z" fill-rule="evenodd" stroke="#544b21" fill="#544b20"/><path d="M423.71 148.04l2.983-1.768-.111-3.425-2.872-.663-1.106-1.105 3.205.553 3.977-.332 1.326-.663c-.552 1.437-.994 1.326-1.105 1.326-.11 0-2.209 1.105-2.209 1.105l.11 3.315s6.85.883 6.74.883c-.111 0 0 1.326-.221 1.326l-7.071-1.547-4.309 2.652.663-1.657z" fill-rule="evenodd" stroke="#544b20" fill="#544b20"/><path d="M440.95 127.49l-3.977 3.093-2.541 4.53-1.326.221-3.867-5.193-4.419.111s-2.431 6.076-2.431 6.187c0 .11-1.768-.221-1.768-.221l-4.64-5.082s-1.437-2.542-1.216-2.542l11.601.111-.11-5.524s-1.768-.553-2.652-1.105c.663-.221 6.298-.221 6.298-.221l-2.431 1.657v4.751l10.054.11 3.425-.883z" fill-rule="evenodd" stroke="#544b20" fill="#544b20"/><rect fill-rule="evenodd" fill-opacity=".996" ry="1.326" height="2.652" width="2.652" y="130.14" x="419.51" fill="#796a3a"/><rect fill-rule="evenodd" ry="1.326" height="2.652" width="2.652" y="129.59" x="432.11" fill="#7a6b3a"/><path d="M413.55 121.3c4.198-1.694 7.181-3.056 12.374-3.535 4.898-.516 8.692.184 13.037.994" stroke="#544b20" fill="none"/><path d="M415.87 112.35h-3.425l-4.862-5.193 2.763.332 3.204 1.436 2.32 3.425z" fill-rule="evenodd" stroke="#544b20" fill="#544b20"/><path d="M436.53 110.36l7.734-5.965-2.541-.332-2.873 2.651-3.425.553 1.105 3.093z" fill-rule="evenodd" stroke="#544b20" fill="#544b20"/><path d="M431.97 111.46l-12.123.451.11-1.326 4.42-.442.552-1.767s1.326-.11 1.326 0c0 .111.994 1.657.994 1.657l4.309.773.412.654z" fill-rule="evenodd" stroke="#544b20" fill="#544b20"/><path d="M431.34 106.83l-4.198.11-.332-2.32 4.53 2.21z" fill-rule="evenodd" stroke="#544b20" fill="#544b20"/><path d="M424.26 104.73l-.332 2.319-4.087.663 4.419-2.982z" fill-rule="evenodd" stroke="#544b20" fill="#544b20"/><path d="M401.06 147.04l2.099-5.303-1.878-3.646-1.878 5.414 1.657 3.535z" fill-rule="evenodd" stroke="#544b20" fill="#544b20"/><path d="M405.37 149.81l2.541-6.298-4.861 5.082 2.32 1.216z" fill-rule="evenodd" transform="translate(-.11 .11)" stroke="#544b20" fill="#544b20"/></g><g transform="matrix(.269 0 0 .264 197.81 73.069)"><path d="M410.94 120.56l-4.063 1.016.156 7.5-5 1.094-3.497 6.614 2.159 2.044c.111.221-1.703 4.892-1.625 4.892l1.323 1.762 1.328 4.063 3.359.468.86 4.766 5.312.859 4.922 3.516.312 2.188 5.625.156 3.829 1.25 13.359-1.563 1.797-2.812.156-3.828 7.188-.235.657-6.105h3.809l-.474-6.875 3.177.286-.82-3.295-1.975-2.683-.39-4.218-5.625-5.625-1.25-7.344s-3.594-1.641-3.594-1.719l-.234-4.922 4.062-5.703-.39-2.265-3.75-.079-2.813 2.344s-3.75.391-3.75.469v1.719s.938 3.203.938 3.281h-4.297l-.157-5.078-6.093-3.047s-5.703 3.906-5.703 3.984l-.313 4.532-2.734.781-2.813-4.219-4.922-1.875-2.656-.156-.078 3.281 5.156 6.797-.468 3.984z" stroke-opacity=".996" fill-rule="evenodd" fill-opacity=".996" stroke="#544b20" fill="#faf703"/><path d="M449.23 148.04l-1.105-4.088" stroke="#544b20" fill="none"/><path d="M452.33 141.3l-1.878-2.762" stroke="#544b20" fill="none"/><path d="M400.84 138.21l5.856-.332 1.105 5.303 1.988 1.768.332 9.723 1.878.773.553-3.867 4.53-.331.883 7.844-1.104.995.442 1.215 5.413-.11s1.216-2.1 1.326-2.1c.111 0 3.094-.331 3.094-.221 0 .111 1.215 2.321 1.215 2.321l.884-2.984s2.873-1.215 2.873-1.104c0 .11 2.32 3.756 2.32 3.756l3.977-.552-2.43-2.32-.995-5.083 5.524-2.983 2.21 3.757s2.099.11 1.989 0c-.111-.111-2.431-4.309-2.431-4.309v-8.839l4.199-5.745 5.855-.663v-2.431l-5.855-5.414-1.547-7.513-3.315-1.657-.884.994-3.646.332 3.646 5.414v3.535l1.658.884-.332 9.723s-4.088.552-4.088.663c0 .11-.331 5.413-.331 5.413l-2.541 2.542s-1.437 5.082-1.547 5.082c-.111 0-2.431 3.093-2.431 3.093l-4.53.111s-2.651-2.541-2.651-2.652c0-.11-.442-3.756-.442-3.756s-1.768-.553-1.879-.553c-.11 0-.994-4.088-.994-4.088l-3.094-1.767-.22-2.431-2.984-1.326s-.331-2.21-.442-2.32c-.11-.111-1.436-.994-1.546-.994-.111 0-.111-6.077-.111-6.077l2.652-.442-1.485-1.94-.504-1.706v-1.768l2.21-2.21s-3.978-.552-3.978-.442c0 .111-3.866 1.768-3.866 1.658.11 0-.111 7.181-.111 7.181l-4.53 1.437-3.646 5.855 1.878 1.658z" fill-rule="evenodd" stroke="#544b21" fill="#544b20"/><path d="M423.71 148.04l2.983-1.768-.111-3.425-2.872-.663-1.106-1.105 3.205.553 3.977-.332 1.326-.663c-.552 1.437-.994 1.326-1.105 1.326-.11 0-2.209 1.105-2.209 1.105l.11 3.315s6.85.883 6.74.883c-.111 0 0 1.326-.221 1.326l-7.071-1.547-4.309 2.652.663-1.657z" fill-rule="evenodd" stroke="#544b20" fill="#544b20"/><path d="M440.95 127.49l-3.977 3.093-2.541 4.53-1.326.221-3.867-5.193-4.419.111s-2.431 6.076-2.431 6.187c0 .11-1.768-.221-1.768-.221l-4.64-5.082s-1.437-2.542-1.216-2.542l11.601.111-.11-5.524s-1.768-.553-2.652-1.105c.663-.221 6.298-.221 6.298-.221l-2.431 1.657v4.751l10.054.11 3.425-.883z" fill-rule="evenodd" stroke="#544b20" fill="#544b20"/><rect fill-rule="evenodd" fill-opacity=".996" ry="1.326" height="2.652" width="2.652" y="130.14" x="419.51" fill="#796a3a"/><rect fill-rule="evenodd" ry="1.326" height="2.652" width="2.652" y="129.59" x="432.11" fill="#7a6b3a"/><path d="M413.55 121.3c4.198-1.694 7.181-3.056 12.374-3.535 4.898-.516 8.692.184 13.037.994" stroke="#544b20" fill="none"/><path d="M415.87 112.35h-3.425l-4.862-5.193 2.763.332 3.204 1.436 2.32 3.425z" fill-rule="evenodd" stroke="#544b20" fill="#544b20"/><path d="M436.53 110.36l7.734-5.965-2.541-.332-2.873 2.651-3.425.553 1.105 3.093z" fill-rule="evenodd" stroke="#544b20" fill="#544b20"/><path d="M431.97 111.46l-12.123.451.11-1.326 4.42-.442.552-1.767s1.326-.11 1.326 0c0 .111.994 1.657.994 1.657l4.309.773.412.654z" fill-rule="evenodd" stroke="#544b20" fill="#544b20"/><path d="M431.34 106.83l-4.198.11-.332-2.32 4.53 2.21z" fill-rule="evenodd" stroke="#544b20" fill="#544b20"/><path d="M424.26 104.73l-.332 2.319-4.087.663 4.419-2.982z" fill-rule="evenodd" stroke="#544b20" fill="#544b20"/><path d="M401.06 147.04l2.099-5.303-1.878-3.646-1.878 5.414 1.657 3.535z" fill-rule="evenodd" stroke="#544b20" fill="#544b20"/><path d="M405.37 149.81l2.541-6.298-4.861 5.082 2.32 1.216z" fill-rule="evenodd" transform="translate(-.11 .11)" stroke="#544b20" fill="#544b20"/></g><path d="M338.69 139.62l3.613-41.935 22.207-12.777 17.166 18.605-11.44 40.401c-11.089-2.264-17.416-3.235-31.546-4.294z" stroke-opacity=".996" fill-rule="evenodd" stroke="#001071" stroke-width=".267pt" fill="#001070"/><g transform="matrix(.269 0 0 .264 207.16 88.736)"><path d="M410.94 120.56l-4.063 1.016.156 7.5-5 1.094-3.497 6.614 2.159 2.044c.111.221-1.703 4.892-1.625 4.892l1.323 1.762 1.328 4.063 3.359.468.86 4.766 5.312.859 4.922 3.516.312 2.188 5.625.156 3.829 1.25 13.359-1.563 1.797-2.812.156-3.828 7.188-.235.657-6.105h3.809l-.474-6.875 3.177.286-.82-3.295-1.975-2.683-.39-4.218-5.625-5.625-1.25-7.344s-3.594-1.641-3.594-1.719l-.234-4.922 4.062-5.703-.39-2.265-3.75-.079-2.813 2.344s-3.75.391-3.75.469v1.719s.938 3.203.938 3.281h-4.297l-.157-5.078-6.093-3.047s-5.703 3.906-5.703 3.984l-.313 4.532-2.734.781-2.813-4.219-4.922-1.875-2.656-.156-.078 3.281 5.156 6.797-.468 3.984z" stroke-opacity=".996" fill-rule="evenodd" fill-opacity=".996" stroke="#544b20" fill="#faf703"/><path d="M449.23 148.04l-1.105-4.088" stroke="#544b20" fill="none"/><path d="M452.33 141.3l-1.878-2.762" stroke="#544b20" fill="none"/><path d="M400.84 138.21l5.856-.332 1.105 5.303 1.988 1.768.332 9.723 1.878.773.553-3.867 4.53-.331.883 7.844-1.104.995.442 1.215 5.413-.11s1.216-2.1 1.326-2.1c.111 0 3.094-.331 3.094-.221 0 .111 1.215 2.321 1.215 2.321l.884-2.984s2.873-1.215 2.873-1.104c0 .11 2.32 3.756 2.32 3.756l3.977-.552-2.43-2.32-.995-5.083 5.524-2.983 2.21 3.757s2.099.11 1.989 0c-.111-.111-2.431-4.309-2.431-4.309v-8.839l4.199-5.745 5.855-.663v-2.431l-5.855-5.414-1.547-7.513-3.315-1.657-.884.994-3.646.332 3.646 5.414v3.535l1.658.884-.332 9.723s-4.088.552-4.088.663c0 .11-.331 5.413-.331 5.413l-2.541 2.542s-1.437 5.082-1.547 5.082c-.111 0-2.431 3.093-2.431 3.093l-4.53.111s-2.651-2.541-2.651-2.652c0-.11-.442-3.756-.442-3.756s-1.768-.553-1.879-.553c-.11 0-.994-4.088-.994-4.088l-3.094-1.767-.22-2.431-2.984-1.326s-.331-2.21-.442-2.32c-.11-.111-1.436-.994-1.546-.994-.111 0-.111-6.077-.111-6.077l2.652-.442-1.485-1.94-.504-1.706v-1.768l2.21-2.21s-3.978-.552-3.978-.442c0 .111-3.866 1.768-3.866 1.658.11 0-.111 7.181-.111 7.181l-4.53 1.437-3.646 5.855 1.878 1.658z" fill-rule="evenodd" stroke="#544b21" fill="#544b20"/><path d="M423.71 148.04l2.983-1.768-.111-3.425-2.872-.663-1.106-1.105 3.205.553 3.977-.332 1.326-.663c-.552 1.437-.994 1.326-1.105 1.326-.11 0-2.209 1.105-2.209 1.105l.11 3.315s6.85.883 6.74.883c-.111 0 0 1.326-.221 1.326l-7.071-1.547-4.309 2.652.663-1.657z" fill-rule="evenodd" stroke="#544b20" fill="#544b20"/><path d="M440.95 127.49l-3.977 3.093-2.541 4.53-1.326.221-3.867-5.193-4.419.111s-2.431 6.076-2.431 6.187c0 .11-1.768-.221-1.768-.221l-4.64-5.082s-1.437-2.542-1.216-2.542l11.601.111-.11-5.524s-1.768-.553-2.652-1.105c.663-.221 6.298-.221 6.298-.221l-2.431 1.657v4.751l10.054.11 3.425-.883z" fill-rule="evenodd" stroke="#544b20" fill="#544b20"/><rect fill-rule="evenodd" fill-opacity=".996" ry="1.326" height="2.652" width="2.652" y="130.14" x="419.51" fill="#796a3a"/><rect fill-rule="evenodd" ry="1.326" height="2.652" width="2.652" y="129.59" x="432.11" fill="#7a6b3a"/><path d="M413.55 121.3c4.198-1.694 7.181-3.056 12.374-3.535 4.898-.516 8.692.184 13.037.994" stroke="#544b20" fill="none"/><path d="M415.87 112.35h-3.425l-4.862-5.193 2.763.332 3.204 1.436 2.32 3.425z" fill-rule="evenodd" stroke="#544b20" fill="#544b20"/><path d="M436.53 110.36l7.734-5.965-2.541-.332-2.873 2.651-3.425.553 1.105 3.093z" fill-rule="evenodd" stroke="#544b20" fill="#544b20"/><path d="M431.97 111.46l-12.123.451.11-1.326 4.42-.442.552-1.767s1.326-.11 1.326 0c0 .111.994 1.657.994 1.657l4.309.773.412.654z" fill-rule="evenodd" stroke="#544b20" fill="#544b20"/><path d="M431.34 106.83l-4.198.11-.332-2.32 4.53 2.21z" fill-rule="evenodd" stroke="#544b20" fill="#544b20"/><path d="M424.26 104.73l-.332 2.319-4.087.663 4.419-2.982z" fill-rule="evenodd" stroke="#544b20" fill="#544b20"/><path d="M401.06 147.04l2.099-5.303-1.878-3.646-1.878 5.414 1.657 3.535z" fill-rule="evenodd" stroke="#544b20" fill="#544b20"/><path d="M405.37 149.81l2.541-6.298-4.861 5.082 2.32 1.216z" fill-rule="evenodd" transform="translate(-.11 .11)" stroke="#544b20" fill="#544b20"/></g><path d="M344.2 132.11l-1.113 1.302.086 1.092 2.312-.042c.742-.175.927-.434 1.07-.735.228-.371.071-.574.128-1.071l-2.483-.546z" stroke-opacity=".997" fill-rule="evenodd" stroke="#a0210c" stroke-width=".267pt" fill="#a0210c"/><path d="M349.76 135.38l-.942.882v1.008l2.055-.042c.742-.175.842-.308.984-.609.228-.371.157-.364.214-.861l-2.312-.378z" stroke-opacity=".997" fill-rule="evenodd" stroke="#a0210c" stroke-width=".267pt" fill="#a0210c"/><path d="M358.79 132.57l-1.07 1.092.043.84 2.183.084c.742-.175.628-.14.856-.525.228-.371.157-.448.214-.945l-2.226-.546z" stroke-opacity=".997" fill-rule="evenodd" stroke="#a0210c" stroke-width=".267pt" fill="#a0210c"/><path d="M365.17 134.54l-1.241 1.05v1.05l2.312.21c.742-.175.799-.392.985-.651.228-.371.114-.406.171-.903l-2.226-.756z" stroke-opacity=".997" fill-rule="evenodd" stroke="#a0210c" stroke-width=".267pt" fill="#a0210c"/><path d="M349.63 107.08l4.366 2.898c.821-.681 2.528-.268 3.197-.08 1.201.313 2.047 1.024 3.096 1.213 1.918.482 4.216.815 5.957.626 1.741-.189 3.203-1.099 4.488-1.76v-.42h-.856c-1.39.5-3.337.527-4.828.332s-1.893-.864-4.119-1.508l-.171-.42c2.702.128 3.251.058 4.382-.435 1.106-.294 1.604-.935 2.228-1.379l-.018-.496-.814-.042c-1.048.698-1.716.824-3.321.677-1.461-.148-2.777-.979-3.757-.997-1.04.008-.991-.489-1.996-.538-1.598-.14-3.326.073-4.838.437-1.812.546-2.083 1.008-2.997 1.89z" fill-rule="evenodd" stroke="#000" stroke-width=".267pt" fill="#a0210c"/><path d="M350.48 106.43c.418.095.887.215 1.228.41.342.195.254.191.621.46-.059-.348-.042-.323-.279-.596-.237-.274-.625-.522-.937-.746l-.633.472z" fill-rule="evenodd" stroke="#000" stroke-width=".267pt"/><path d="M354.13 109.56c.008-.377-.186-.704-.329-1.031-.143-.327-.262-.605-.532-.932.338.095.524.24.811.584.287.344.27.688.329 1.18l-.279.199z" fill-rule="evenodd" stroke="#000" stroke-width=".267pt"/><path d="M354.96 104.97c.101.261.3.44.469.997.146.506.215 1.214.215 1.214l-.013-1.181-.317-1.081-.354.05z" fill-rule="evenodd" stroke="#000" stroke-width=".267pt"/><path d="M358.51 105.19l.177 2.088.203-1.963-.38-.124z" fill-rule="evenodd" stroke="#000" stroke-width=".267pt"/><path d="M357.65 109.51c.085-.34.068-.679.025-1.019-.042-.34-.161-.629-.279-1.019.338.29.473.654.659 1.044 0 .389-.101.729-.405.994z" fill-rule="evenodd" stroke="#000" stroke-width=".267pt"/><path d="M361.32 108.6c.013 0 .108.708-.054 1.218-.161.51-.276.547-.58.82.405-.298.76-.398.887-.721.127-.497-.203-1.243-.254-1.317z" fill-rule="evenodd" stroke="#000" stroke-width=".267pt"/><path d="M361.96 107.92c-.253.041-.304-1.011-.456-1.516.11-.058.22-.041.329.199.118.141.084.878.126 1.317z" fill-rule="evenodd" stroke="#000" stroke-width=".267pt"/><path d="M364.46 107.5l.101-.87.279-.025v.746c0 .025-.354.174-.38.149z" fill-rule="evenodd" stroke="#000" stroke-width=".267pt"/><path d="M364.26 109.84c.161.265.448.58.481.87.034.29-.059.431-.279.87l.405.025c.219-.352.287-.605.254-.882-.034-.278-.169-.555-.456-.783l-.406-.1z" fill-rule="evenodd" stroke="#000" stroke-width=".267pt"/><path d="M367.28 110.06l.101 1.218.329-.174-.076-1.044h-.355z" fill-rule="evenodd" stroke="#000" stroke-width=".267pt"/><path d="M349.36 107.29c-.988.286-1.346.832-1.829 1.304l-2.784-1.41c-.452.375-.625.91-.408 1.458.217.548 1.091 1.405 1.712 1.829-.156.756-.385 1.327-.656 1.991-.303.746-.953 1.688-.972 1.991-.037.346-.15 1.089.368 1.286.518.198 2.185-.137 2.741-.1-.09.298-.307.818-.233 1.041.074.223.223.298.675.311-.13.276-.411.627-.277.792.349.264.749.219 1.086.198-.531.616-1.857 1.8-2.288 2.33-.455.616-.494 1.281.388 1.216-.328.364-.644.715-.594 1.029.076.376.265.629.896.411-.373.844-.128 1.601.004 2.482-.319.667-.183 1.284-.262 2.05-.649.367-.73.846-1.152 1.585-.381.8-1.089 1.018-1.482 2.735l2.547.635.52-.935c.093-.353.086-.793.041-1.183.505-.732 1.528-2.244 1.857-3.05.556-.297.961-.483 1.378-.483.417 0 .683.248 1.126.483-.196.679-.745 1.42-.777 2.372v2.626c-.111.652-.853.661-1.166 2.626l2.288.593c.389-.661 1.004-.752 1.165-1.016l.165-2.728c.291-1.288 2.097-2.353 2.123-3.752.648-.009.893.057 1.15-.075.345-.12.464-.314.733-.558.104.421.435.458.716.458.28 0 .839-.396 1.069-.557.162.228.248.444.586.524.339.08 1.295-.063 1.684-.157l-1.88 3.076c-.07.296.024.482-.122.828l-.536.747 2.132.509.34-.898c.452-.19.816-.294 1.053-.583s.235-.839.372-1.153c.728-.529 1.873-1.676 2.677-2.626.546.092 1.319.543 1.612 1.218.041.723.095 2.054-.23 2.975l-1.382 2.16-.157.354 2.175.775 1.382-1.059.054-1.51c.694-1.226 1.687-1.895 2.634-2.668 0-.043.101-1.622.063-1.684-.234-.178-.392-.071-.474-.398-.082-.326-.026-1.222.018-1.573.137-.169.425-.364.41-.509-.376-.413-.261-1.483-.146-2.317-.028-.95 1.269-2.072 1.468-2.626l.081-.997c-.133-.245-.328-.391-.335-.599-.006-.208.252-.552.41-.772l.275-.469-.043-2.457c-.077-.265-.305-.679-.521-.722-.216-.042-.533.2-.774.467l-1.25.923c-.599.183-1.123.255-2.177-.007l-1.607.032c-.844.236-1.284.274-2.078-.072l-.952.015c-.297.162-.707.422-1.029.484-.322.062-.757.075-1.079-.024-2.457.165-1.846.343-2.549.496-.564-.107-.383-.387-2.574-.408l-.869-.254c-1.096-.726-1.94-1.886-2.67-3.219 2.283-.654 3.241-1.333 3.934-2.891l-3.229.121-4.566-3.034z" fill-rule="evenodd" stroke="#544b20" stroke-width=".267pt" fill="#dc9103"/><path d="M348.22 111.27l.914.387c.112.133.328.286.471.295.143.009.265-.137.387-.242l.842-.441c-.499-.072-.651-.381-1.181-.381s-.903.278-1.433.381z" fill-rule="evenodd" stroke="#000" stroke-width=".267pt"/><path d="M352.23 111.5c.297.175.836.526 1.28.526.486-.041.478-.381 1.175-.608l1.022-.826c-.616.007-1.948.128-2.679.351-.616.162-.759.406-.798.557z" fill-rule="evenodd" stroke="#000" stroke-width=".267pt"/><path d="M349.9 122.06c0 .075-.127.131-.19.041-.078-1.071-.314-1.823-.645-2.657.373.635.683 1.661.835 2.616z" fill-rule="evenodd" stroke="#000" stroke-width=".267pt"/><path d="M352.51 126.45l-.995.023c-.046-1.078-.05-2.311-.043-3.079.159.019.622.503.896 1.265.072.562.175 1.197.142 1.79z" fill-rule="evenodd" stroke="#000" stroke-width=".267pt"/><path d="M355.27 122.17c.187.051.448.052.509-.072.079-.23-.157-.48-.245-.761-.308-.604-.479-1.259-.608-1.543-.136-.086-.282-.078-.249.064.177.537.48 2.105.593 2.312z" fill-rule="evenodd" stroke="#000" stroke-width=".267pt"/><path d="M358.21 121.85c.02.13-.422-.059-.497-.207-.006-.287-.602-2.39-.504-2.472.125-.061.513.703.638 1.054.029.208.29.973.362 1.624z" fill-rule="evenodd" stroke="#000" stroke-width=".267pt"/><path d="M357.79 126.18c-.011.147.336.026.473-.085.396-.62.888-1.27 1.032-1.518.087-.265.521-1.954.387-1.94-.047-.049-.425.837-.912 1.712-.507.891-.986 1.746-.98 1.831z" fill-rule="evenodd" stroke="#000" stroke-width=".267pt"/><path d="M360.75 125.27c-.144.069.29-1.46.324-1.731.079-.428.19-1.197.364-2.192.212 1.39-.038 2.883-.688 3.923z" fill-rule="evenodd" stroke="#000" stroke-width=".267pt"/><path d="M362.52 120.59c-.095.083-1.363-2.014-1.247-2.025.033-.093 1.063 1.312 1.21 1.56.061.117.122.296.036.465z" fill-rule="evenodd" stroke="#000" stroke-width=".267pt"/><path d="M365.49 122.15c-.095-.071-.057-.741-.245-1.476s-.507-1.444-.444-1.645c.059-.106.266-.057.43.085.078.4.262 1.935.477 2.933-.003.097-.111.162-.219.104z" fill-rule="evenodd" stroke="#000" stroke-width=".267pt"/><path d="M367.56 120.29c-.101-.108.276.72.55 1.704.275.984.415 2.722.482 2.598.189-.125.157-.281.45-.345l1.323-.035c-.676-.602-1.3-1.101-1.765-1.755-.466-.654-.774-1.514-1.04-2.167z" fill-rule="evenodd" stroke="#000" stroke-width=".267pt"/><path d="M370.12 129.26c-.212.153-.613.275-.731.211-.645-1.34-1.005-2.217-1.902-3.65-.231-.34-.807-.288-.774-.422.021-.155.323-.093.518-.317s.221-.508.342-.611c-.264.619.429 1.567.817 2.32.258.07.463.069.585.221.029.072-.279.124-.24.381l.654 1.318c.213.16.542.248.86.295.083.074-.065.179-.129.253z" fill-rule="evenodd" stroke="#000" stroke-width=".267pt"/><path d="M370.48 144l11.513-40.577 24.437-9.844 12.96 21.913-18.55 37.669c-10.493-3.965-16.493-6.084-30.36-9.16z" fill="none"/><path d="M371.46 117.54c.404.022.77.058.89-.148.247-.509.391-.929.224-1.26-.634.051-1.113.343-1.372.902.008.194.055.337.258.506z" fill-rule="evenodd" stroke="#000" stroke-width=".267pt"/><path d="M378.12 117.16c6.269 1.324 12.071 2.831 17.874 4.703 5.803 1.872 11.326 4.109 16.943 6.53l-9.403 18.996c-5.248-1.997-10.43-3.607-15.613-5.281-5.182-1.674-10.233-3.155-15.481-4.765l5.679-20.183z" fill-rule="evenodd" stroke="#fdfcfc" stroke-width=".267pt" fill="#fdfcfc"/><path d="M376.87 121.65s8.755 1.953 17.238 4.682c8.484 2.728 16.761 6.231 16.728 6.231-.066 0-5.332 10.849-5.332 10.849-5.112-2.034-10.488-3.939-15.798-5.651-5.31-1.711-10.62-3.358-16.062-4.617l3.226-11.495z" fill-rule="evenodd" stroke="#e6151e" stroke-width=".267pt" fill="#e6151e"/><path d="M377.6 126.95c.861-.481 1.444-.611 1.908-1.404h3.1l.04 1.131 1.968 1.131 2.604 1.053 6.678.585c.894.143 2.186.52 2.961.975.775.455 1.272 1.027 1.69 1.755 1.371.481 2.743.767 4.154.975 1.411.208 3.18.299 4.551.351.676.234.676.585.358.936 0 0-.755 1.024-2.817 1.033-2.062.01-4.397-1.15-5.411-.994.04.624 1.113 1.911 2.345 2.418l-.04 2.963-.557.507-.596-.39c.477-.702.318-1.521.119-2.223-.457-.663-.517-.936-1.371-.975-1.014-.195-1.749-.468-3.041-1.365l-.477.078c-.278.494-.557.832-1.192 1.131l-1.312-.078s-3.021-.663-3.021-.702c0-.039-.04-.468.04-.507.079-.039 1.033-.039 1.113-.039.636.195 1.988.195 1.988.195l-.04-1.131 2.027-.117c-.411-1.404-.543-2.301-2.425-2.613l-5.883.156.08.819c-1.471-.195-4.134-.23-5.494.221-.795.078-1.939.481-2.456.481l-.596-.156c-.397-.117-.397-.234-.238-.585 2.544-.195 2.942-.39 3.697-.741.04-.234-.278-.741-.397-.78-1.59-.078-2.862.039-3.299-.039-.676-.195-1.59-.546-1.59-.585 0-.039-.119-.624-.079-.624l1.073.273c1.073.195 2.942.117 3.379-.117l.04-.858c-.04-.39-.318-.741-.398-.78-.079-.039-1.749-.234-2.345-.234-.967-.169-.821-.65-.835-1.131z" stroke-opacity=".996" fill-rule="evenodd" stroke="#010001" stroke-width=".267pt"/><path d="M390.44 133.89c.901.286 1.564.377 2.902.468l2.027-.117c-.411-1.404-.543-2.301-2.425-2.613l-5.883.156.08.819c1.789.663 2.663 1.027 3.299 1.287z" stroke-opacity=".996" fill-rule="evenodd" fill-opacity=".996" stroke="#010001" stroke-width=".267pt" fill="#fdfdfd"/><path d="M273.6 143.99l-10.632-39.621 16.223-19.652 22.748 12.986 3.856 41.985c-11.608.86-19.128 1.977-32.196 4.303z" fill-rule="evenodd" fill-opacity=".996" stroke="#011171" stroke-width=".267pt" fill="#011171"/><path d="M236.92 112.42l3.7 3.259-1.051 5.239 5.13-1.774 3.784 3.259.841-4.826 4.205-1.361-3.196-3.465 1.051-4.785s-5.046 1.485-5.046 1.444-3.364-3.217-3.406-3.176c-.042.041-1.093 4.537-1.093 4.537l-4.92 1.65z" stroke-opacity=".996" fill-rule="evenodd" fill-opacity=".996" stroke="#fdc605" stroke-width=".267pt" fill="#fbfd10"/><path d="M237.01 112.46l16.483 3.713-4.247 1.444-3.826-3.094s3.111 7.755 3.07 7.714-3.616-3.011-3.742-3.135l.631-4.579s-5.719 6.353-5.719 6.312c0-.042 1.093-5.198 1.093-5.198l-3.742-3.176z" fill-rule="evenodd" fill="#ffc500"/><path d="M241.8 110.77l3.658 3.506-2.523-8.126-1.135 4.62z" fill-rule="evenodd" fill="#ffc500"/><path d="M246.3 109.45c.042.041-.883 4.744-.841 4.744.42-.495 5.929-6.229 5.887-6.229-.042 0-4.962 1.526-5.046 1.485z" fill-rule="evenodd" fill="#ffc500"/><path d="M396.21 104.41l.782 4.817-4.18 3.42 5.124 1.791.848 4.869 3.751-3.229 4.14 1.54-.258-4.666 3.888-3.067s-4.873-1.964-4.846-1.996c.026-.032-.548-4.577-.607-4.572-.059.006-3.762 2.849-3.762 2.849l-4.881-1.758z" stroke-opacity=".996" fill-rule="evenodd" fill-opacity=".996" stroke="#fdc605" stroke-width=".267pt" fill="#fbfd10"/><path d="M396.25 104.49l10.421 13.068-4.226-1.502-.986-4.767s-2.561 7.947-2.567 7.889c-.006-.058-.876-4.573-.895-4.747l3.429-3.167s-8.52 1.402-8.494 1.37c.027-.032 4.186-3.362 4.186-3.362l-.868-4.779z" fill-rule="evenodd" fill="#ffc500"/><path d="M401.06 106.14l.591 4.984 3.257-7.871-3.848 2.887z" fill-rule="evenodd" fill="#fdc605"/><path d="M405.4 107.9c.006.058-3.731 3.139-3.699 3.165.644-.125 8.604-1.176 8.572-1.202-.033-.026-4.834-1.88-4.873-1.964z" fill-rule="evenodd" fill="#fdc605"/><path d="M263.05 104.52c5.774-2.76 12.255-4.913 19.09-5.852 6.569-.939 13.144-1.021 19.89-1.006 0 0 .884 10.331.884 10.418-5.303.043-9.254-.055-18.608 1.155-9.302 1.29-13.133 2.395-18.79 4.563l-2.465-9.277z" fill-rule="evenodd" stroke="#e6141d" stroke-width=".267pt" fill="#e6141d"/><path d="M267.99 122.81c-.088 0 2.921 10.929 2.921 10.929 5.553-1.402 11.195-2.457 16.836-3.251 5.641-.795 11.641-1.247 17.106-1.609l-.96-10.66c-5.759-.347-12.323-.347-18.259.433s-11.7 2.163-17.636 4.157z" fill-rule="evenodd" fill-opacity=".996" stroke="#e6141d" stroke-width=".267pt" fill="#e6141d"/><path d="M241.49 156.56h161.16v103.34c-4.096 40.244-42.778 70.327-78.125 70.097-38.155 1.665-80.349-29.566-83.391-70.442l.351-102.99z" fill-rule="evenodd" stroke="#e5141d" stroke-width="1.066" fill="#fff"/><path d="M244.84 160.17h154.45v99.03c-3.926 38.567-40.995 67.395-74.868 67.176-36.565 1.595-77-28.334-79.916-67.506l.337-98.7z" fill-rule="evenodd" stroke="#e5141d" stroke-width="1.022" fill="#d61517"/><rect fill-rule="evenodd" ry="0" height="32.302" width="29.763" y="160.67" x="337.68" fill="#fff"/><rect fill-rule="evenodd" ry="0" height="32.302" width="29.763" y="160.67" x="276.27" fill="#fff"/><rect fill-rule="evenodd" ry="0" height="31.526" width="30.162" y="194.04" x="245.22" fill="#fff"/><rect fill-rule="evenodd" ry="0" height="31.526" width="29.467" y="194.04" x="307.22" fill="#fff"/><rect fill-rule="evenodd" ry="0" height="31.526" width="30.364" y="194.04" x="368.33" fill="#fff"/><rect fill-rule="evenodd" ry="0" height="32.011" width="29.763" y="226.54" x="337.68" fill="#fff"/><rect fill-rule="evenodd" ry="0" height="32.011" width="29.763" y="226.54" x="276.27" fill="#fff"/><rect fill-rule="evenodd" ry="0" height="32.011" width="29.467" y="259.52" x="307.22" fill="#fff"/><path d="M368.52 259.8l.008 31.447 18.122.024c8.268-12.078 11.099-23.843 11.876-31.464-.134 0-29.888-.014-30.006-.007z" fill-rule="evenodd" stroke="#fff" stroke-width=".267pt" fill="#fff"/><path d="M337.86 292.78l.005 31.559c12.891-2.679 23.39-8.787 29.4-13.27l.002-18.302-29.407.013z" fill-rule="evenodd" stroke="#fff" stroke-width=".267pt" fill="#fff"/><path d="M276.5 292.72l-.043 17.832c10.125 7.385 21.688 11.707 29.389 13.369l.005-31.19-29.352-.012z" fill-rule="evenodd" stroke="#fff" stroke-width=".267pt" fill="#fff"/><path d="M245.28 259.76c.961 12.356 6.225 23.816 11.88 31.567l18.046-.03.003-31.55-29.929.013z" fill-rule="evenodd" stroke="#fff" stroke-width=".267pt" fill="#fff"/></g></g></svg>