<svg xmlns="http://www.w3.org/2000/svg" height="480" width="640" version="1">
    <g clip-path="url(#a)">
        <path fill-rule="evenodd" fill="#ba0000" d="M663.174 480.256h-686.081v-480.256h686.081z"/>
        <path d="M336.225 352.509c.188-.567.566-6.416.377-6.416s-8.868-10.188-8.679-10.188c.189 0 11.132 2.453 11.132 2.075 0-.377 4.339-10.754 4.339-10.943 0-.188 5.283 12.641 5.283 12.641l10.754 4.718-7.547 6.225s1.699 12.076 1.699 12.265c0 .188-7.547-7.171-7.547-7.171l-8.302.944s-1.131-3.774-1.508-4.15z" fill-rule="evenodd" fill-opacity=".988" stroke="#000" stroke-width="NaN" fill="#ffef00"/>
        <path d="M277.763 193.959c-7.169 3.692-34.684 35.143-38.457 40.048-3.162 7.121-9.345 16.13-15.714 21.929-6.799 5.144-10.577 12.171-9.641 18.823-.076 8.279 4.566 13.915 8.263 19.741 2.188 2.661 5.133 4.381 8.263 4.59 6.422.848 6.993 2.825 10.207 4.05 12.662 17.24 31.551 29.952 45.154 40.023 8.671 4.57 14.701 9.141 16.767 11.635 3.983 7.605 3.25 15.021 2.704 18.664-3.366 12.702-6.734 25.403-10.1 38.106-1.699 10.377 7.32 8.043 7.805 5.968 4.07-5.283 10.143-1.573 18.822-32.138l11.936-16.068s4.592-1.836 4.592-2.295c6.982-8.383 1.666-13.181-2.297-14.691l-8.722-3.214s-10.1-10.1-10.559-10.1c-4.8-13.962-28.358-43.769-33.83-47.919-3.788-3.947-5.59-5.629-9.186-7.825-5.528-2.644-7.312-3.504-10.698-4.855-2.819-1.131-.812-4.226.981-5.641 18.659-10.157 33.45-21.445 51.354-32.923l2.754-1.836-6.427-36.727c-9.947-3.52-19.895-7.041-29.841-10.56-1.565 1.071-2.754 2.143-4.132 3.214z" fill-rule="evenodd" stroke="#000" stroke-width="2.472568" fill="#fff"/>
        <path d="M302.728 387.328c.095-.377 18.678-3.774 18.678-3.774s-2.17 6.887-2.264 6.887l-18.488 5.565 2.075-8.679z" fill-rule="evenodd" fill="#ffec00"/>
        <path d="M254.306 317.353c3.585-9.528 13.536-17.072 20.22-19.154" stroke="#000" stroke-width="NaN" fill="none"/>
        <path d="M302.063 387.488c1.2-.338 6.526-1.892 8.077-2.134 1.655-.387 3.303-.821 4.894-1.334 1.836-.375 2.986-.721 4.894-1.068 1.494-.57 2.971-.961 4.569-1.334m-25.799 17.361c.155-.208 1.421-1.327 2.331-1.867 1.071-.338 4.733-1.892 6.119-2.134 1.478-.387 2.949-.821 4.37-1.334 1.641-.375 2.667-.721 4.372-1.068 1.334-.57 2.653-.961 4.079-1.334" stroke="#000" stroke-width="NaN" fill="none"/>
        <path d="M306.244 320.044h-.267c.835 0 .322-.07-.801 1.334-.4 1.079-3.825 3.468-6.404 3.468-1.244.133-3.157.267-4.403.267l-1.201-.267" stroke="#000" stroke-width="NaN" fill="none"/>
        <path d="M305.981 375.019h1.3330000000000002c1.384 0 2.773.246 4.003.267l4.003.378c1.347.191 2.969.129 4.363.327 1.562.053 2.816.361 4.442.361 1.311.05 2.018.268 3.47.268l-3.47-.268c1.311.05 2.018.268 3.47.268" stroke="#000" stroke-width="NaN" fill="none"/>
        <path d="M296.907 407.569c.143-.208 1.302-1.327 2.134-1.867.981-.338 4.335-1.892 5.604-2.134 1.353-.387 2.7-.821 4.002-1.334 1.503-.375 2.442-.721 4.003-1.068 1.223-.57 2.43-.961 3.735-1.334" stroke="#000" stroke-width="NaN" fill="none"/>
        <path d="M321.891 361.191c-.755 2.191.223 2.742.628 3.687.704.916 2.5 2.312 5.337 3.202 1.094.294 1.936.583 3.202 1.068.838.078 1.251.287 1.867.533" stroke="#000" stroke-width="NaN" fill="none"/>
        <path d="M216.328 280.828h.267c-.837 0-.335.054 1.068-1.068.866-.969 1.59-1.407 2.401-2.401" stroke="#000" stroke-width="NaN" fill="none"/>
        <path d="M233.597 299.831c.178 0 15.522-7.733 17.161-9.385 1.161-.842 2.04-1.73 3.451-2.686.905-.473 1.554-1.079 2.402-1.601.705-1.021 1.626-1.638 2.134-2.573.942-.817.538-1.702 1.302-2.686.361-1.007 1.037-2.704 1.257-3.626" stroke="#000" stroke-width="NaN" fill="none"/>
        <path d="M280.847 288.75c.084.552-.245 2.252-.222 3.546-.053 1.5-1.982 6.134-4.315 7.518" stroke="#000" stroke-width="NaN" fill="none"/>
        <path d="M253.285 288.581c.09 0 2.425.759 6.329 1.961 4.699 1.689 14.472 7.848 15.442 8.696.99.78 2.762 1.475 3.441 2.401 1.062.917 1.84 1.976 2.669 2.935.975 1.189 1.805 2.195 2.401 3.202 2.968 2.407 10.951 19.072 11.207 20.012.448.88 1.003 2.106 1.334 2.935.592.682.993 1.646 1.601 2.669.558 1.327 1.182 1.931 1.869 2.935.883.614 2.074 1.779 3.202 2.401 1.203 1.029 2.331 1.448 3.202 2.136 1.258.535 15.321 9.424 15.973 9.869 1.285 1.032 5.207 5.097 2.453 8.054-1.168 1-2.221 2.323-3.219 2.889-1.017 1.018-2.432 1.474-3.6 2.001-6.335 1.872-9.563 1.201-10.808 1.201h-1.334" stroke="#000" stroke-width="NaN" fill="none"/>
        <path d="M222.225 257.147c1.801.705 1.074.184 2.695.922 1.089.477 1.807.49 2.878.88 1.136.364 4.31.936 5.835 2.467 1.119 1.01 1.973 1.864 3.202 2.602 1.454 1.003 2.503 1.449 4.305 2.201 1.52.569 3.22 1.2 4.758 1.254 1.598.093 1.981.014 3.513.014h7.472-3.736" stroke="#000" stroke-width="NaN" fill="none"/>
        <path d="M221.794 274.95c4.002-.267 10.672.935 10.805.935l8.806-.133c4.626-.446 5.647-2.224 6.404-3.47 1.734-2.667 2.935-3.602 4.27-5.602 2.134-1.601 5.071 2.134 5.204 2.134 7.47 7.072 1.466 15.743 1.066 16.009-3.735 3.425-4.536 3.647-6.804 1.468-2.269-2.669-2.935-3.868-4.803-4.803-3.602-1.734-11.073-.4-11.208-.4-.133 0-3.868 1.468-3.868 1.468-1.824.666-2.98 2.269-6.137 2.8-3.202.223-4.27-.088-5.871-2.667-2.134-3.335-1.068-7.338 2.136-7.738z" fill-rule="evenodd" stroke="#000" stroke-width="NaN" fill="#ffe606"/>
        <path d="M430.707 113.119c-.586.115-5.87 2.651-5.777 2.816.093.165-4.535 12.723-4.627 12.558-.093-.165-3.317-10.906-3.647-10.72-.328.185-11.5 1.488-11.665 1.58-.163.092 8.43-10.801 8.43-10.801l-1.158-11.686 9.125 3.528s9.694-7.399 9.859-7.491c.163-.092-2.552 10.093-2.552 10.093l4.891 6.774s-2.735 2.836-2.879 3.348z" fill-rule="evenodd" fill-opacity=".988" stroke="#000" stroke-width="NaN" fill="#ffef00"/>
        <path d="M321.141 241.781c6.731 4.44 47.631 13.011 53.756 13.896 7.757-.734 18.64.241 26.817 2.951 7.816 3.406 15.792 3.255 21.133-.821 7.254-3.991 9.893-10.799 13.158-16.878 1.247-3.212 1.304-6.621-.048-9.453-2.409-6.014-.964-7.48-1.472-10.882 8.822-19.486 10.646-42.181 12.758-58.974-.266-9.798.763-17.294 1.925-20.317 4.677-7.199 11.5-10.194 14.944-11.504l38.166-9.871c9.878-3.605 3.424-10.322 1.377-9.728-6.6-.958-6.342-8.071-37.237-.656l-19.856-2.53s-3.851-3.103-4.251-2.878c-10.729-1.978-12.306 5.008-11.679 9.202.491 3.059.981 6.119 1.473 9.178 0 0-3.854 13.754-3.629 14.153-9.818 11.026-24.433 46.433-25.369 53.237-.443 6.394-2.858 5.239-2.21 11.453.024 4.856-.541 1.824 1.08 11.829.395 3.012-3.286 2.779-5.398 1.909-17.998-11.287-35.087-18.648-53.867-28.629l-2.951-1.501c-9.621 7.866-19.243 15.735-28.864 23.602l5.42 31.187c1.701.84 3.218 1.35 4.827 2.026z" fill-rule="evenodd" stroke="#000" stroke-width="2.472568" fill="#fff"/>
        <path d="M477.46 125.25c-.375.102-12.443-14.432-12.443-14.432s7.067-1.484 7.113-1.402l13.912 13.388-8.582 2.444z" fill-rule="evenodd" fill="#ffec00"/>
        <path d="M440.203 201.759c-10.062 1.545-21.515-3.432-26.605-8.238" stroke="#000" stroke-width="NaN" fill="none"/>
        <path d="M477.938 125.756c-.882-.88-4.848-4.761-5.819-5.995-1.149-1.253-2.335-2.476-3.562-3.612-1.227-1.417-2.092-2.25-3.329-3.743-1.229-1.023-2.294-2.119-3.402-3.329m27.776 13.98c-.257-.033-1.853-.589-2.77-1.117-.819-.768-3.969-3.198-4.859-4.287-1.062-1.099-2.161-2.168-3.305-3.156-1.131-1.247-1.935-1.972-3.073-3.288-1.151-.884-2.138-1.842-3.162-2.902" stroke="#000" stroke-width="NaN" fill="none"/>
        <path d="M417.094 155.166l.131.232c-.409-.728-.219-.247 1.556.044 1.136-.18 4.898 1.634 6.162 3.882.726 1.019 1.779 2.621 2.39 3.707l.356 1.178" stroke="#000" stroke-width="NaN" fill="none"/>
        <path d="M465.141 128.456l-.131-.232-.523-.929c-.678-1.206-1.144-2.538-1.73-3.62l-1.632-3.675c-.494-1.267-1.343-2.651-1.853-3.963-.72-1.387-1.065-2.632-1.862-4.049-.599-1.167-.755-1.89-1.467-3.156l1.467 3.156c-.599-1.167-.755-1.89-1.467-3.156" stroke="#000" stroke-width="NaN" fill="none"/>
        <path d="M497.963 120.412c-.251-.022-1.794-.485-2.674-.945-.775-.69-3.774-2.851-4.607-3.839-1.001-.989-2.039-1.951-3.124-2.834-1.064-1.127-1.825-1.776-2.893-2.966-1.096-.786-2.028-1.647-2.994-2.602" stroke="#000" stroke-width="NaN" fill="none"/>
        <path d="M445.285 121.359c2.28-.416 2.28-1.538 2.906-2.354.454-1.062.79-3.312.175-6.222-.28-1.098-.441-1.973-.638-3.314-.343-.769-.363-1.231-.451-1.889" stroke="#000" stroke-width="NaN" fill="none"/>
        <path d="M426.975 252.769l-.131-.232c.41.729.211.265-1.454-.407-1.269-.28-2.006-.696-3.269-.916" stroke="#000" stroke-width="NaN" fill="none"/>
        <path d="M435.075 228.394c-.087-.155-14.348-9.741-16.591-10.358-1.302-.599-2.507-.93-4.033-1.692-.856-.557-1.702-.826-2.573-1.309-1.236-.114-2.225-.614-3.288-.599-1.174-.421-1.747.365-2.979.181-1.055.179-2.865.422-3.777.682" stroke="#000" stroke-width="NaN" fill="none"/>
        <path d="M402.263 192.637c.44-.343 2.083-.89 3.2-1.545 1.334-.689 6.318-1.278 8.668.076" stroke="#000" stroke-width="NaN" fill="none"/>
        <path d="M415.622 216.75c-.044-.078-.527-2.486-1.393-6.478-.83-4.924-.251-16.461.012-17.723.194-1.245-.067-3.13.406-4.176.279-1.375.821-2.572 1.251-3.765.558-1.432 1.028-2.649 1.614-3.662.643-3.766 11.257-18.893 11.952-19.576.548-.822 1.344-1.906 1.905-2.602.304-.85.948-1.673 1.542-2.703.883-1.136 1.104-1.977 1.643-3.068.102-1.071.535-2.679.523-3.968.308-1.553.119-2.741.292-3.838-.151-1.359.706-17.974.774-18.76.27-1.626 1.891-7.037 5.818-6.086 1.444.529 3.113.797 4.096 1.39 1.386.387 2.476 1.397 3.508 2.158 4.737 4.605 5.733 7.746 6.344 8.833l.654 1.163" stroke="#000" stroke-width="NaN" fill="none"/>
        <path d="M403.369 258.694l-.131-.232c.353.628.158.315-.291-1.061-.118-1.184-.483-2.785-.667-3.91-.239-1.169-.787-2.5-.638-3.314-.418-1.187-.155-2.167-.043-3.343.332-1.471.483-2.535.523-3.968.162-1.759.032-3.005.132-4.667-.463-1.368-.558-2.513-1.264-3.88-.628-1.307-1.109-2.516-1.86-3.852l-1.831-3.257 1.831 3.257-1.831-3.257" stroke="#000" stroke-width="NaN" fill="none"/>
        <path d="M419.175 250.875c-2.193-3.357-4.415-9.76-4.481-9.877l-4.432-7.61c-2.656-3.814-4.706-3.833-6.163-3.881-3.175-.205-4.578-.793-6.976-.976-2.441-1.076-.625-5.466-.69-5.582 2.503-9.977 13.004-8.993 13.432-8.775 4.816 1.577 5.402 2.167 4.614 5.211-1.214 3.286-1.933 4.454-1.833 6.54.253 3.989 5.078 9.848 5.144 9.966.065.116 3.175 2.653 3.175 2.653 1.475 1.263 3.438 1.486 5.449 3.977 1.764 2.682 2.015 3.765.552 6.424-1.861 3.495-5.873 4.527-7.792 1.931z" fill-rule="evenodd" stroke="#000" stroke-width="NaN" fill="#ffe606"/>
        <g>
            <path d="M171.551 158.056c.417.428 5.432 3.458 5.519 3.29s13.125-3.174 13.038-3.006-7.305 8.746-6.97 8.921c.334.174 7.542 8.804 7.71 8.892.166.086-13.65-1.137-13.65-1.137l-9.14 7.368-2.046-9.564s-11.497-4.056-11.664-4.144c-.166-.086 9.839-3.393 9.839-3.393l2.988-7.801s3.869.735 4.377.574z" fill-rule="evenodd" fill-opacity=".988" stroke="#000" stroke-width="NaN" fill="#ffef00"/>
            <path d="M339.146 179.234c.028-8.061-15.2-46.963-17.813-52.571-4.862-6.086-10.006-15.723-12.216-24.046-1.431-8.402-5.925-14.991-12.259-17.226-7.31-3.882-14.45-2.36-21.322-1.763-3.369.716-6.252 2.536-7.88 5.217-3.711 5.307-5.728 4.902-8.295 7.19-21.129 3.291-41.11 14.193-56.312 21.623-8.05 5.588-14.883 8.832-18.048 9.515-8.582.03-14.824-4.037-17.805-6.199-9.719-8.838-19.437-17.678-29.155-26.517-8.424-6.288-10.508 2.788-8.891 4.175 2.812 6.045-3.278 9.724 19.842 31.506l8.757 17.993s-.486 4.92-.079 5.132c4.221 10.056 10.927 7.551 14.092 4.73l6.87-6.258s13.614-4.308 13.825-4.715c14.599 2.174 52.216-4.99 58.42-7.933 5.59-3.131 5.947-.479 10.79-4.423 4.048-2.679 1.822-.547 9.302-7.381 2.303-1.98 4.124 1.227 4.553 3.469.415 21.235 3.616 39.558 5.551 60.732l.361 3.289c11.848 3.74 23.698 7.479 35.546 11.218l23.117-21.61c-.229-1.882-.633-3.431-.948-5.147z" fill-rule="evenodd" stroke="#000" stroke-width="2.470655" fill="#fff"/>
            <path d="M156.085 112.299c.291.257-5.257 18.31-5.257 18.31s-5.111-5.098-5.067-5.182l3.58-18.968 6.744 5.84z" fill-rule="evenodd" fill="#ffec00"/>
            <path d="M240.478 101.568c6.802 7.57 8.911 19.875 7.678 26.764" stroke="#000" stroke-width="NaN" fill="none"/>
            <path d="M156.254 111.637c-.253 1.22-1.328 6.662-1.828 8.15-.419 1.647-.793 3.309-1.071 4.957-.513 1.802-.737 2.982-1.307 4.834-.182 1.588-.516 3.079-.921 4.668m-3.517-30.888c.113.233.522 1.872.583 2.928-.194 1.106-.502 5.071-.925 6.412-.337 1.49-.63 2.995-.83 4.492-.423 1.629-.589 2.698-1.067 4.371-.109 1.447-.37 2.797-.695 4.234" stroke="#000" stroke-width="NaN" fill="none"/>
            <path d="M214.153 146.415l.123-.236c-.385.741-.087.318-.815-1.326-.773-.852-1.315-4.991-.127-7.279.455-1.166 1.218-2.924 1.792-4.029l.79-.943" stroke="#000" stroke-width="NaN" fill="none"/>
            <path d="M165.517 120.863l-.123.236-.491.946c-.638 1.228-1.496 2.346-2.081 3.429l-2.18 3.377c-.79 1.107-1.482 2.575-2.3 3.72-.766 1.362-1.618 2.332-2.367 3.774-.648 1.14-1.168 1.667-1.837 2.955l1.837-2.955c-.648 1.14-1.168 1.667-1.837 2.955" stroke="#000" stroke-width="NaN" fill="none"/>
            <path d="M140.812 97.804c.119.222.577 1.766.674 2.754-.152 1.026-.318 4.718-.688 5.955-.28 1.379-.515 2.774-.66 4.165-.36 1.507-.486 2.499-.897 4.044-.057 1.348-.267 2.599-.537 3.929" stroke="#000" stroke-width="NaN" fill="none"/>
            <path d="M170.449 141.353c-1.597-1.679-2.535-1.065-3.56-1.142-1.137.202-3.203 1.153-5.3 3.26-.765.835-1.409 1.449-2.422 2.349-.455.708-.831.978-1.333 1.411" stroke="#000" stroke-width="NaN" fill="none"/>
            <path d="M290.38 84.709l-.123.236c.386-.743.106-.322.455 1.439.46 1.215.516 2.059 1.024 3.236" stroke="#000" stroke-width="NaN" fill="none"/>
            <path d="M265.569 91.273c-.082.158-.29 17.335.421 19.549.212 1.418.595 2.606.793 4.299.002 1.021.241 1.876.314 2.869.581 1.096.704 2.197 1.299 3.079.291 1.212 1.262 1.261 1.783 2.392.727.784 1.922 2.166 2.638 2.786" stroke="#000" stroke-width="NaN" fill="none"/>
            <path d="M253.63 138.302c-.528-.18-1.885-1.255-3.044-1.83-1.307-.738-4.529-4.585-4.682-7.292" stroke="#000" stroke-width="NaN" fill="none"/>
            <path d="M266.483 113.919c-.041.08-1.791 1.802-4.655 4.712-3.664 3.391-13.63 9.224-14.829 9.694-1.148.519-2.581 1.771-3.715 1.947-1.303.519-2.601.722-3.834 1.015-1.504.317-2.779.591-3.947.655-3.503 1.524-21.966.929-22.918.723-.987-.008-2.331-.081-3.219-.168-.878.211-1.918.123-3.105.191-1.434-.116-2.258.159-3.465.306-.951.501-2.534 1.02-3.605 1.735-1.467.593-2.358 1.401-3.37 1.857-1.054.87-15.42 9.251-16.115 9.625-1.508.664-6.921 2.272-8.276-1.534-.349-1.497-1.038-3.041-1.08-4.187-.435-1.371-.187-2.836-.117-4.116 1.258-6.484 3.34-9.037 3.914-10.143l.615-1.184" stroke="#000" stroke-width="NaN" fill="none"/>
            <path d="M308.263 101.205l-.123.236c.332-.639.177-.304-.728.825-.925.747-2.065 1.929-2.905 2.699-.846.84-1.66 2.027-2.422 2.349-.764 1-1.728 1.317-2.773 1.867-1.412.527-2.384.984-3.605 1.735-1.559.828-2.531 1.619-3.976 2.445-.891 1.137-1.797 1.843-2.553 3.182-.749 1.241-1.497 2.305-2.204 3.665l-1.721 3.315 1.721-3.315-1.721 3.315" stroke="#000" stroke-width="NaN" fill="none"/>
            <path d="M296.263 192.056l.246-.474c-.455.876-.295.646.132-.832.004-1.773.425-3.918.443-5.482.266-1.656.537-3.445.554-5.122-.1-1.962-.097-3.72-.39-5.613-.023-1.742-.226-3.548-.278-5.254-.032-1.691-.158-3.139-.524-4.78-.034-1.229-.11-2.915-.408-4.421.16-1.186-.177-2.278-.429-3.227-.459-1.829-.637-2.895-1.119-4.79-.29-1.015-.577-2.312-1.014-3.833-.158-1.44-.929-3.311-1.243-4.552-.428-.914-.86-2.15-1.025-3.237-.448-1.003-1.087-2.226-1.261-3.361-.473-.865-.975-2.21-1.498-3.484-.45-1.046-.781-2.335-1.26-3.359-.483-1.295-1.073-2.401-1.375-3.72-.462-.448-.567-.939-.815-1.324" stroke="#000" stroke-width="NaN" fill="none"/>
            <path d="M293.071 92.269c-1.607 3.673-5.746 9.038-5.807 9.156l-3.939 7.874c-1.735 4.31-.629 6.035.128 7.28 1.567 2.767 1.843 4.264 3.004 6.369.437 2.631-4.23 3.516-4.291 3.634-9.716 3.37-14.643-5.952-14.695-6.43-1.318-4.892-1.145-5.705 1.832-6.712 3.413-.783 4.784-.822 6.474-2.048 3.198-2.397 5.456-9.64 5.518-9.76.061-.118.48-4.108.48-4.108.249-1.925-.64-3.689.343-6.735 1.277-2.944 2.045-3.747 5.071-3.98 3.942-.357 7.003 2.433 5.881 5.46z" fill-rule="evenodd" stroke="#000" stroke-width="NaN" fill="#ffe606"/>
        </g>
        <path d="M280.228 187.172c-1.468-1.333 27.617 10.538 31.618 10.673 5.471-2.001 28.018-21.079 28.018-21.079.223 1.867 1.022 6.715 3.2 7.738-8.715 7.071-16.631 13.874-25.347 20.945.623 11.207-1.422 23.081 4.269 35.622 0 0-6.803.132-6.803 0-6.004-6.004-8.14-34.954-8.14-34.954-9.561-4.27-19.123-8.405-28.684-12.674 1.379-.89 2.491-3.646 1.868-6.272z" fill-rule="evenodd" fill-opacity=".987" stroke="#000" stroke-width="NaN" fill="#ffef00"/>
        <path d="M307.903 216.844c.465-.337-5.246 2.653-6.713 3.404-26.423 14.095-40.021 34.598-40.868 35.373-.457.873-1.297 2.038-2.067 3.18-.619.957-1.508 1.947-2.094 2.914-.81 1.121-2.511 3.335-3.441 4.318-.116.633.441-.217.259.204" stroke="#000" stroke-width="NaN" fill="none"/>
        <path d="M325.96 200.091c-.513-.259 4.759 3.452 6.098 4.412 24.62 17.05 49.072 19.764 50.149 20.163.986.007 2.406.221 3.772.384 1.135.113 2.421.45 3.55.529 1.367.206 4.114.707 5.414 1.084.615-.187-.394-.292.063-.324" stroke="#000" stroke-width="NaN" fill="none"/>
    </g>
</svg>
