<svg xmlns="http://www.w3.org/2000/svg" id="flag-icon-css-im" width="640" height="480">
  <defs>
    <clipPath id="a">
      <path fill-opacity=".67" d="M-77.62 0h682.67v512H-77.62z"/>
    </clipPath>
  </defs>
  <g clip-path="url(#a)" transform="translate(72.77) scale(.94)">
    <path fill="#ba0000" fill-rule="evenodd" d="M629.43 512H-102V0h731.43z"/>
    <path fill="#ffef00" fill-opacity=".99" fill-rule="evenodd" stroke="#000" stroke-width="2.2" d="M281.02 376.01c.2-.6.6-6.84.4-6.84s-9.46-10.87-9.26-10.87c.2 0 11.88 2.61 11.88 2.21 0-.4 4.63-11.47 4.63-11.67 0-.2 5.63 13.48 5.63 13.48l11.47 5.04-8.05 6.64s1.82 12.88 1.82 13.08c0 .2-8.05-7.65-8.05-7.65l-8.86 1s-1.2-4.02-1.61-4.42z"/>
    <path fill="#fff" fill-rule="evenodd" stroke="#000" stroke-width="2.64" d="M218.66 206.89c-7.65 3.94-37 37.49-41.02 42.72-3.37 7.6-9.97 17.2-16.76 23.39-7.26 5.49-11.29 12.98-10.29 20.08-.08 8.83 4.87 14.84 8.82 21.05 2.33 2.84 5.47 4.68 8.81 4.9 6.85.9 7.46 3.01 10.89 4.32 13.5 18.39 33.65 31.95 48.16 42.69 9.25 4.88 15.68 9.75 17.89 12.41 4.24 8.11 3.46 16.02 2.88 19.91l-10.77 40.65c-1.82 11.07 7.8 8.58 8.32 6.36 4.34-5.63 10.82-1.68 20.08-34.28l12.73-17.14s4.9-1.96 4.9-2.44c7.45-8.95 1.78-14.06-2.45-15.67-3.1-1.15-6.2-2.3-9.3-3.43 0 0-10.78-10.78-11.27-10.78-5.11-14.89-30.24-46.68-36.08-51.11-4.04-4.21-5.96-6-9.8-8.35-5.9-2.82-7.8-3.74-11.4-5.18-3.02-1.2-.87-4.5 1.04-6.01 19.9-10.84 35.68-22.88 54.78-35.12l2.93-1.96-6.85-39.18-31.83-11.26c-1.67 1.14-2.94 2.29-4.41 3.43z"/>
    <path fill="#ffec00" fill-rule="evenodd" d="M245.29 413.15c.1-.4 19.92-4.03 19.92-4.03s-2.31 7.35-2.41 7.35l-19.72 5.94 2.21-9.26z"/>
    <path fill="none" stroke="#000" stroke-width="2.2" d="M193.64 338.51c3.82-10.16 14.44-18.21 21.57-20.43"/>
    <path fill="none" stroke="#000" stroke-width="2.44" d="M244.58 413.32c1.28-.36 6.96-2.02 8.62-2.28 1.76-.41 3.52-.87 5.22-1.42 1.96-.4 3.18-.77 5.22-1.14 1.6-.6 3.17-1.02 4.87-1.42m-27.52 18.52a14.6 14.6 0 0 1 2.49-2c1.14-.36 5.05-2.01 6.52-2.27a53.94 53.94 0 0 0 4.67-1.43c1.75-.4 2.84-.76 4.66-1.14 1.42-.6 2.83-1.02 4.35-1.42"/>
    <path fill="none" stroke="#000" stroke-width="2.2" d="M249.04 341.38h-.28c.89 0 .34-.07-.86 1.42-.42 1.15-4.08 3.7-6.83 3.7-1.33.14-3.37.29-4.7.29-.38 0-.9-.29-1.28-.29m13.67 53.52h1.42c1.48 0 2.96.26 4.27.28 1.43 0 2.85.4 4.27.4 1.44.21 3.17.14 4.65.36 1.67.05 3 .38 4.74.38 1.4.06 2.15.29 3.7.29l-3.7-.29c1.4.06 2.15.29 3.7.29m-32.73 33.01a13.6 13.6 0 0 1 2.28-2c1.04-.35 4.62-2.01 5.97-2.27a46.72 46.72 0 0 0 4.27-1.42c1.6-.4 2.6-.77 4.27-1.14 1.3-.6 2.6-1.03 3.99-1.42m5.87-41.22c-.8 2.34.24 2.92.67 3.93.75.98 2.67 2.47 5.7 3.42 1.16.31 2.06.62 3.4 1.14.9.08 1.34.3 2 .57m-124.37-94.78h.28c-.89 0-.35.06 1.14-1.14.93-1.03 1.7-1.5 2.56-2.56m14.44 23.97c.19 0 16.56-8.25 18.3-10.01 1.24-.9 2.18-1.85 3.68-2.87.97-.5 1.66-1.15 2.57-1.7.75-1.1 1.73-1.75 2.27-2.75 1-.87.58-1.81 1.4-2.86.38-1.08 1.1-2.89 1.33-3.87M221.95 308c.09.59-.26 2.4-.24 3.78-.05 1.6-2.11 6.55-4.6 8.02"/>
    <path fill="none" stroke="#000" stroke-width="2.2" d="M192.55 307.82c.1 0 2.59.81 6.75 2.09 5.01 1.8 15.44 8.37 16.47 9.28 1.06.83 2.95 1.57 3.67 2.56 1.14.98 1.96 2.1 2.85 3.13 1.04 1.27 1.92 2.34 2.56 3.41 3.16 2.57 11.68 20.35 11.95 21.35.48.94 1.07 2.25 1.43 3.13.63.73 1.06 1.76 1.7 2.85.6 1.41 1.27 2.06 2 3.13.94.65 2.2 1.9 3.41 2.56 1.29 1.1 2.49 1.54 3.42 2.28 1.34.57 16.34 10.05 17.04 10.52 1.37 1.1 5.55 5.44 2.61 8.6-1.24 1.06-2.37 2.47-3.43 3.07-1.09 1.1-2.6 1.58-3.84 2.14-6.76 2-10.2 1.28-11.53 1.28h-1.42M159.42 274.3c1.92.75 1.15.2 2.88.98 1.16.51 1.92.53 3.06.94 1.21.4 4.6 1 6.23 2.63 1.2 1.08 2.1 2 3.41 2.78a21.79 21.79 0 0 0 4.6 2.35c1.62.6 3.43 1.28 5.07 1.33 1.7.1 2.12.02 3.75.02h3.99-3.99 3.98"/>
    <path fill="#ffe606" fill-rule="evenodd" stroke="#000" stroke-width="2.2" d="M158.96 293.28c4.27-.28 11.38 1 11.53 1l9.39-.14c4.93-.48 6.02-2.38 6.83-3.7 1.85-2.85 3.13-3.85 4.55-5.98 2.28-1.71 5.41 2.27 5.55 2.27 7.97 7.55 1.57 16.8 1.14 17.08-3.98 3.65-4.84 3.89-7.25 1.56-2.42-2.84-3.13-4.12-5.13-5.12-3.84-1.85-11.8-.42-11.95-.42-.14 0-4.13 1.56-4.13 1.56-1.94.71-3.18 2.42-6.54 2.99-3.42.24-4.56-.1-6.27-2.85-2.27-3.55-1.14-7.82 2.28-8.25z"/>
    <path fill="#ffef00" fill-opacity=".99" fill-rule="evenodd" stroke="#000" stroke-width="2.2" d="M381.8 120.66c-.63.12-6.26 2.83-6.16 3 .1.18-4.84 13.57-4.94 13.4-.1-.18-3.54-11.64-3.89-11.44-.35.2-12.26 1.59-12.44 1.69-.18.1 8.99-11.52 8.99-11.52l-1.24-12.47 9.74 3.77s10.34-7.9 10.51-8c.18-.1-2.72 10.77-2.72 10.77l5.22 7.23s-2.92 3.02-3.07 3.57z"/>
    <path fill="#fff" fill-rule="evenodd" stroke="#000" stroke-width="2.64" d="M264.93 257.9c7.18 4.74 50.8 13.88 57.34 14.82 8.27-.78 19.88.26 28.6 3.15 8.34 3.63 16.85 3.47 22.55-.88 7.73-4.25 10.55-11.52 14.03-18 1.33-3.42 1.4-7.06-.05-10.08-2.57-6.42-1.03-7.98-1.57-11.6 9.41-20.8 11.36-45 13.6-62.91-.28-10.45.82-18.45 2.06-21.67 4.99-7.68 12.27-10.88 15.94-12.27l40.71-10.53c10.54-3.85 3.65-11.01 1.47-10.38-7.04-1.02-6.76-8.61-39.72-.7l-21.18-2.7s-4.1-3.31-4.53-3.07c-11.45-2.11-13.13 5.34-12.46 9.81l1.57 9.8s-4.11 14.66-3.87 15.1c-10.48 11.75-26.06 49.52-27.06 56.78-.48 6.82-3.05 5.58-2.36 12.21.03 5.18-.58 1.95 1.15 12.62.43 3.21-3.5 2.97-5.75 2.04-19.2-12.04-37.43-19.9-57.46-30.54l-3.15-1.6L254 222.47l5.78 33.27c1.82.9 3.44 1.44 5.15 2.16z"/>
    <path fill="#ffec00" fill-rule="evenodd" d="M431.67 133.6c-.4.11-13.27-15.4-13.27-15.4s7.54-1.58 7.58-1.49L440.82 131l-9.15 2.61z"/>
    <path fill="none" stroke="#000" stroke-width="2.2" d="M391.93 215.21c-10.73 1.65-22.95-3.66-28.38-8.79"/>
    <path fill="none" stroke="#000" stroke-width="2.44" d="M432.18 134.14c-.94-.94-5.17-5.08-6.2-6.4a66.48 66.48 0 0 0-3.8-3.85c-1.32-1.5-2.24-2.4-3.56-3.99a37.12 37.12 0 0 1-3.63-3.55m29.63 14.91c-.27-.03-1.98-.63-2.95-1.19-.88-.82-4.24-3.41-5.19-4.57a54.2 54.2 0 0 0-3.52-3.37c-1.2-1.33-2.07-2.1-3.28-3.5a30.33 30.33 0 0 1-3.37-3.1"/>
    <path fill="none" stroke="#000" stroke-width="2.2" d="M367.28 165.51l.14.25c-.44-.78-.23-.27 1.66.04 1.21-.19 5.22 1.75 6.57 4.14.78 1.1 1.9 2.8 2.55 3.96.19.33.2.93.38 1.26m39.95-38.14l-.14-.25-.56-.99c-.72-1.29-1.22-2.7-1.84-3.86-.7-1.24-1.05-2.68-1.74-3.92-.53-1.35-1.44-2.83-1.98-4.23-.77-1.48-1.13-2.8-1.98-4.32-.64-1.24-.81-2.01-1.57-3.36l1.57 3.36c-.64-1.24-.81-2.01-1.57-3.36m44.82 12.35c-.27-.02-1.91-.52-2.85-1-.83-.74-4.03-3.05-4.92-4.1a47.07 47.07 0 0 0-3.33-3.03c-1.13-1.2-1.94-1.89-3.08-3.16a26.24 26.24 0 0 1-3.2-2.78m-38.81 15.08c2.43-.44 2.43-1.64 3.1-2.51.48-1.13.84-3.53.19-6.64-.3-1.17-.47-2.1-.68-3.53-.37-.82-.4-1.32-.48-2.02m-21.66 154.87l-.14-.25c.44.78.23.29-1.55-.43-1.35-.3-2.14-.75-3.49-.98m13.82-24.34c-.1-.17-15.3-10.39-17.7-11.05-1.39-.64-2.67-.99-4.3-1.8-.91-.6-1.81-.88-2.74-1.4-1.32-.12-2.38-.66-3.51-.64-1.25-.45-1.86.39-3.18.2-1.12.18-3.05.44-4.03.72m.46-24.17c.47-.37 2.22-.95 3.41-1.65 1.43-.73 6.74-1.36 9.25.08"/>
    <path fill="none" stroke="#000" stroke-width="2.2" d="M365.71 231.2c-.05-.08-.56-2.65-1.49-6.91-.88-5.25-.26-17.56.02-18.9.2-1.33-.08-3.34.43-4.46.3-1.46.88-2.74 1.33-4.01.6-1.53 1.1-2.83 1.73-3.9.68-4.03 12-20.16 12.75-20.89a43.02 43.02 0 0 1 2.03-2.77c.32-.91 1-1.79 1.64-2.89.94-1.2 1.18-2.1 1.75-3.27.11-1.14.57-2.86.56-4.23.33-1.66.13-2.93.31-4.1-.16-1.45.76-19.17.83-20 .29-1.74 2.02-7.51 6.2-6.5 1.55.57 3.33.86 4.37 1.49 1.48.41 2.65 1.49 3.75 2.3 5.05 4.91 6.11 8.26 6.76 9.42l.7 1.24m-56.74 133.12l-.14-.25c.38.67.17.34-.31-1.13-.13-1.26-.52-2.97-.71-4.17-.26-1.25-.84-2.67-.68-3.54-.45-1.26-.17-2.3-.05-3.56.36-1.57.52-2.7.56-4.23.17-1.88.03-3.2.14-4.98-.5-1.46-.6-2.68-1.35-4.14-.67-1.4-1.18-2.69-1.98-4.11l-1.96-3.47 1.96 3.47-1.96-3.47"/>
    <path fill="#ffe606" fill-rule="evenodd" stroke="#000" stroke-width="2.2" d="M369.5 267.6c-2.34-3.58-4.71-10.41-4.78-10.54l-4.73-8.11c-2.83-4.07-5.02-4.1-6.57-4.14-3.39-.22-4.88-.85-7.44-1.04-2.6-1.15-.67-5.83-.74-5.96 2.67-10.64 13.87-9.6 14.33-9.36 5.14 1.68 5.76 2.31 4.92 5.56-1.3 3.5-2.06 4.75-1.95 6.98.27 4.25 5.41 10.5 5.48 10.63.07.12 3.39 2.83 3.39 2.83 1.57 1.34 3.67 1.58 5.81 4.24 1.88 2.86 2.15 4.01.6 6.85-2 3.73-6.27 4.83-8.32 2.06z"/>
    <path fill="#ffef00" fill-opacity=".99" fill-rule="evenodd" stroke="#000" stroke-width="2.2" d="M105.24 168.67c.45.46 5.8 3.69 5.89 3.51s14-3.39 13.91-3.2-7.8 9.32-7.43 9.51c.35.19 8.04 9.4 8.22 9.49.18.09-14.56-1.22-14.56-1.22l-9.75 7.86-2.19-10.2S87.07 180.1 86.9 180c-.18-.1 10.5-3.62 10.5-3.62l3.18-8.32s4.13.78 4.67.61z"/>
    <path fill="#fff" fill-rule="evenodd" stroke="#000" stroke-width="2.64" d="M284.06 191.25c.03-8.6-16.22-50.1-19.01-56.09-5.19-6.49-10.68-16.77-13.04-25.65-1.52-8.96-6.32-16-13.08-18.38-7.8-4.14-15.42-2.51-22.75-1.88-3.6.77-6.67 2.7-8.4 5.57-3.96 5.66-6.11 5.23-8.85 7.67-22.55 3.51-43.87 15.15-60.09 23.08-8.58 5.96-15.87 9.42-19.25 10.15-9.16.03-15.82-4.3-19-6.61l-31.1-28.3c-9-6.7-11.22 2.98-9.5 4.46 3 6.45-3.49 10.38 21.18 33.61l9.34 19.2s-.52 5.25-.08 5.47c4.5 10.73 11.66 8.06 15.03 5.05l7.33-6.68s14.53-4.6 14.75-5.03c15.58 2.32 55.72-5.32 62.33-8.47 5.97-3.34 6.35-.5 11.52-4.72 4.32-2.85 1.94-.58 9.92-7.87 2.46-2.11 4.4 1.3 4.86 3.7.45 22.66 3.86 42.2 5.93 64.8l.38 3.5 37.93 11.98 24.66-23.06c-.24-2.01-.67-3.66-1.01-5.5z"/>
    <path fill="#ffec00" fill-rule="evenodd" d="M88.74 119.85c.3.28-5.61 19.54-5.61 19.54s-5.46-5.44-5.4-5.53l3.81-20.24 7.2 6.23z"/>
    <path fill="none" stroke="#000" stroke-width="2.2" d="M178.78 108.4c7.26 8.07 9.51 21.2 8.2 28.55"/>
    <path fill="none" stroke="#000" stroke-width="2.44" d="M88.92 119.14c-.27 1.3-1.42 7.11-1.95 8.7a66.82 66.82 0 0 0-1.15 5.29c-.54 1.92-.78 3.18-1.39 5.16-.2 1.69-.55 3.28-.98 4.98m-3.76-32.96c.12.25.56 2 .63 3.12-.2 1.18-.54 5.41-.99 6.84a54.36 54.36 0 0 0-.89 4.8c-.45 1.74-.62 2.88-1.13 4.66a30.6 30.6 0 0 1-.74 4.52"/>
    <path fill="none" stroke="#000" stroke-width="2.2" d="M150.7 156.25l.12-.25c-.4.79-.09.34-.86-1.42-.83-.9-1.4-5.33-.14-7.77.49-1.24 1.3-3.12 1.91-4.3.18-.33.67-.66.84-1M98.8 128.99l-.13.25-.53 1c-.68 1.32-1.6 2.51-2.22 3.67-.65 1.26-1.67 2.34-2.32 3.6-.84 1.18-1.58 2.75-2.45 3.97-.82 1.45-1.73 2.49-2.53 4.03-.69 1.21-1.24 1.78-1.96 3.15l1.96-3.15c-.69 1.21-1.24 1.78-1.96 3.15m-14.22-44.27c.13.23.62 1.88.72 2.93-.16 1.1-.34 5.04-.73 6.36-.3 1.47-.56 2.96-.7 4.44-.4 1.6-.53 2.67-.97 4.32a26.16 26.16 0 0 1-.57 4.19m33.87 24.22c-1.7-1.8-2.7-1.14-3.8-1.22-1.2.22-3.41 1.23-5.65 3.48-.81.89-1.5 1.55-2.58 2.5-.49.76-.89 1.05-1.43 1.51m141.42-66.71l-.13.25c.41-.8.11-.35.49 1.53.49 1.3.55 2.2 1.09 3.46m-27.92 1.76c-.09.17-.31 18.5.45 20.86.23 1.51.64 2.78.85 4.59 0 1.09.25 2 .33 3.06.62 1.17.75 2.34 1.39 3.28.3 1.3 1.35 1.35 1.9 2.55.78.84 2.05 2.31 2.82 2.98m-20.48 12.86c-.56-.2-2-1.34-3.24-1.96-1.4-.78-4.84-4.89-5-7.78"/>
    <path fill="none" stroke="#000" stroke-width="2.2" d="M206.53 121.57c-.05.09-1.91 1.93-4.97 5.03-3.91 3.62-14.54 9.84-15.82 10.34-1.23.56-2.76 1.9-3.97 2.08-1.39.56-2.77.77-4.09 1.09-1.6.34-2.96.63-4.2.7-3.74 1.62-23.44.99-24.46.77a43.16 43.16 0 0 1-3.43-.18c-.94.22-2.05.13-3.32.2-1.53-.12-2.4.17-3.7.33-1 .53-2.7 1.09-3.84 1.85-1.57.63-2.52 1.5-3.6 1.98-1.12.93-16.45 9.87-17.19 10.27-1.6.71-7.38 2.43-8.83-1.63-.37-1.6-1.1-3.25-1.15-4.47-.47-1.46-.2-3.03-.13-4.4 1.35-6.91 3.57-9.63 4.18-10.81l.65-1.27M251.1 108l-.13.26c.36-.69.19-.33-.78.88-.98.8-2.2 2.05-3.1 2.88-.9.9-1.77 2.16-2.58 2.5-.81 1.07-1.84 1.4-2.96 2-1.5.56-2.54 1.04-3.84 1.84-1.67.89-2.7 1.73-4.24 2.61-.95 1.22-1.92 1.97-2.73 3.4-.8 1.32-1.6 2.46-2.35 3.9l-1.83 3.55 1.83-3.54-1.83 3.54m11.75 73.12l.26-.5c-.49.93-.32.68.14-.9 0-1.89.45-4.18.47-5.85.29-1.76.58-3.67.6-5.46-.11-2.1-.11-3.97-.42-5.99-.03-1.86-.24-3.78-.3-5.6-.03-1.8-.17-3.35-.56-5.1a29.47 29.47 0 0 0-.44-4.72c.17-1.27-.19-2.43-.45-3.45-.5-1.95-.68-3.09-1.2-5.1-.31-1.09-.61-2.47-1.08-4.1-.17-1.53-1-3.53-1.33-4.85a13.6 13.6 0 0 1-1.1-3.46c-.47-1.07-1.15-2.37-1.34-3.58-.5-.93-1.04-2.36-1.6-3.72-.48-1.12-.83-2.49-1.34-3.58-.52-1.38-1.15-2.56-1.47-3.97-.5-.48-.6-1-.87-1.42"/>
    <path fill="#ffe606" fill-rule="evenodd" stroke="#000" stroke-width="2.2" d="M234.9 98.47c-1.72 3.92-6.14 9.64-6.2 9.77l-4.2 8.4c-1.85 4.6-.67 6.44.13 7.77 1.68 2.95 1.97 4.55 3.2 6.8.48 2.8-4.5 3.74-4.57 3.87-10.37 3.6-15.62-6.35-15.68-6.86-1.4-5.22-1.22-6.08 1.96-7.16 3.64-.84 5.1-.88 6.9-2.19 3.42-2.55 5.82-10.28 5.89-10.4.07-.14.51-4.4.51-4.4.27-2.05-.68-3.93.37-7.18 1.36-3.14 2.18-4 5.4-4.25 4.21-.38 7.48 2.6 6.28 5.83z"/>
    <path fill="#ffef00" fill-opacity=".99" fill-rule="evenodd" stroke="#000" stroke-width="2.2" d="M221.29 199.65c-1.57-1.42 29.46 11.24 33.73 11.38 5.83-2.13 29.88-22.48 29.88-22.48.24 2 1.1 7.16 3.42 8.26-9.3 7.54-17.74 14.8-27.04 22.34.66 11.95-1.52 24.62 4.55 38 0 0-7.25.13-7.25 0-6.4-6.41-8.69-37.29-8.69-37.29-10.2-4.55-20.4-8.97-30.6-13.52 1.48-.95 2.66-3.89 2-6.69z"/>
    <path fill="none" stroke="#000" stroke-width="2.2" d="M250.81 231.3c.5-.36-5.6 2.83-7.16 3.63-28.19 15.04-42.69 36.9-43.6 37.73-.48.93-1.38 2.18-2.2 3.4-.66 1.01-1.6 2.07-2.23 3.1a60.64 60.64 0 0 1-3.67 4.6c-.13.68.47-.22.27.23m77.85-70.56c-.55-.28 5.08 3.68 6.5 4.7 26.27 18.2 52.35 21.09 53.5 21.51 1.05.01 2.56.24 4.02.41 1.21.12 2.58.48 3.79.57 1.46.22 4.39.75 5.77 1.15.66-.2-.42-.3.07-.34"/>
  </g>
</svg>
