<?xml version="1.0" encoding="utf-8"?>
<!-- Generator: Adobe Illustrator 16.2.0, SVG Export Plug-In . SVG Version: 6.00 Build 0)  -->
<!DOCTYPE svg PUBLIC "-//W3C//DTD SVG 1.1//EN" "http://www.w3.org/Graphics/SVG/1.1/DTD/svg11.dtd">
<svg version="1.1"
	 id="svg548" xmlns:rdf="http://www.w3.org/1999/02/22-rdf-syntax-ns#" xmlns:cc="http://creativecommons.org/ns#" xmlns:dc="http://purl.org/dc/elements/1.1/"
	 xmlns="http://www.w3.org/2000/svg" xmlns:xlink="http://www.w3.org/1999/xlink" x="0px" y="0px" width="640px" height="480px"
	 viewBox="0 0 640 480" enable-background="new 0 0 640 480" xml:space="preserve">
<g>
	<defs>
		<rect id="SVGID_1_" x="-0.001" width="640.003" height="480"/>
	</defs>
	<clipPath id="SVGID_2_">
		<use xlink:href="#SVGID_1_"  overflow="visible"/>
	</clipPath>
	<rect id="rect553" x="-0.001" y="0" clip-path="url(#SVGID_2_)" fill="#2C65D6" width="640" height="480"/>
	<g id="globe-2" clip-path="url(#SVGID_2_)">
		<polygon fill="#FFFFFF" points="292.525,139.933 292.525,140.235 292.7,140.01 		"/>
		<path fill="#FFFFFF" d="M319.993,80.833c-87.759,0-159.169,71.4-159.169,159.17c0,87.771,71.411,159.164,159.169,159.164
			c87.765,0,159.181-71.383,159.181-159.164C479.174,152.232,407.758,80.833,319.993,80.833z M465.405,240.002
			c0,2.787-0.242,5.507-0.418,8.261c-1.01-2.583-2.566-5.957-2.939-7.405c-0.527-2.2-3.818-9.875-3.818-9.875
			s-3.303-4.383-5.486-5.486c-2.184-1.097-3.84-3.84-7.68-6.018c-3.842-2.206-5.465-3.292-8.756-3.292
			c-3.293,0-6.563-4.395-10.424-6.583c-3.84-2.183-4.377-1.091-4.377-1.091s4.377,6.572,4.377,8.212s4.916,4.383,9.875,3.281
			c0,0,3.291,6.034,4.926,7.675c1.635,1.64-0.559,3.292-3.828,5.48c-3.293,2.178-2.744,1.64-4.412,3.28
			c-1.645,1.641-7.109,4.406-8.756,5.486c-1.645,1.086-8.217,4.378-11.498,1.086c-1.602-1.585-1.119-4.92-2.193-7.12
			c-1.098-2.194-12.596-19.179-18.082-26.843c-0.967-1.35-3.293-5.502-4.928-6.572c-1.635-1.114,3.852-1.114,3.852-1.114
			s0-3.84-0.559-6.572c-0.561-2.743,0.559-6.572,0.559-6.572s-5.486,3.281-7.152,4.383c-1.625,1.103-3.281-2.178-5.465-4.932
			c-2.195-2.732-4.389-6.035-4.926-8.778c-0.561-2.727,2.73-3.829,2.73-3.829l4.928-2.732c0,0,6.033-1.086,9.885-0.548
			c3.818,0.548,9.854,1.103,9.854,1.103s1.635-3.846-0.561-5.486c-2.184-1.64-7.131-4.383-9.314-3.829
			c-2.195,0.538,1.076-2.743,3.818-4.932l-6.078-1.103c0,0-5.508,2.743-7.166,3.292c-1.635,0.538-4.486,1.64-6.691,4.383
			c-2.184,2.743,0.867,6.572-1.316,7.675c-2.184,1.097-3.666,1.64-5.322,2.178c-1.635,0.549-6.846,0-6.846,0
			c-5.662,0-2.041,5.168-0.561,7l-4.377-5.349l-3.248-7.664c0,0-4.674-3.28-6.869-4.367c-2.193-1.103-8.941-4.938-8.941-4.938
			l0.471,4.938l6.342,6.424l0.572,0.148l3.291,4.378l-7.285,0.554v-4.339c-6.869-1.662-5.08-3.368-5.859-3.895
			c-1.625-1.091-5.432-3.846-5.432-3.846s-6.451,1.103-8.102,1.651c-1.652,0.549-2.113,2.194-5.382,3.281
			c-3.303,1.103-4.783,2.743-5.875,4.383s-4.664,6.572-6.83,8.761c-2.2,2.205-6.271,1.64-7.911,1.64
			c-1.651,0-9.562-2.189-9.562-2.189v-9.293c0,0,1.07-5.212,0.527-6.852l4.8-0.807l8.009-1.657l2.348-1.651l3.374-4.378
			c0,0-3.786-2.743-1.059-6.572c1.317-1.843,6.046-2.195,8.234-3.835c2.184-1.64,5.497-2.737,5.497-2.737s3.839-3.281,7.675-7.126
			c0,0,2.736-1.651,6.023-2.754c0,0,9.326,8.229,10.971,8.229c1.646,0,7.682-3.834,7.682-3.834s1.635-4.921,1.096-6.572
			c-0.549-1.641-3.291-7.121-3.291-7.121s-1.646,2.738-3.281,4.932c-1.635,2.189-2.742,4.932-2.742,4.932s-7.67-0.532-8.219-2.167
			c-0.559-1.657-1.635-4.361-2.193-5.991c-0.527-1.651-4.926-1.596-8.197-0.494c-3.301,1.097,0.533-5.908,0.533-5.908
			s3.303-4.136,5.48-4.136c2.184,0,7.143-2.809,9.305-3.347c2.205-0.554,8.787-3.056,11.51-3.056c2.742,0,6.033,1.18,7.691,1.18
			c1.656,0,8.217,0,8.217,0l11.488-0.922c0,0,9.875,3.648,6.572,5.854c0,0,3.861,2.37,5.496,4.01
			c1.537,1.547,5.52-1.426,7.801-2.699C437.996,142.594,465.405,188.111,465.405,240.002z M203.954,154.257
			c0,2.189-2.99,2.721,0,8.223c3.824,7.126,0.543,10.418,0.543,10.418s-9.326,6.572-10.967,7.669
			c-1.64,1.103-6.023,7.126-3.292,5.475c2.738-1.64,6.018-3.281,3.292,1.103c-2.743,4.389-7.675,11.504-8.767,14.253
			c-1.086,2.754-6.572,9.315-6.572,12.606s-2.188,9.875-1.64,12.618c0.373,1.909-0.839,7.538-1.799,9.853
			c0.746-30.804,11.115-59.199,28.236-82.421C203.553,154.108,203.954,154.257,203.954,154.257z M221.558,133.246
			c13.408-12.371,29.114-22.235,46.439-28.906c-1.706,2.189-3.774,4.438-3.774,4.438s-3.834-0.011-10.966,7.675
			c-7.115,7.669-5.475,5.48-7.115,7.658c-1.641,2.184-1.097,2.743-4.943,5.497c-3.818,2.727-5.47,6.018-5.47,6.018l-6.035,2.194
			l-4.921-2.194c0,0-4.405,1.651-3.851-0.549C221.076,134.496,221.312,133.887,221.558,133.246z M287.242,146.033l-2.178-3.281
			l2.178-4.932l5.283,2.112v-9.787l5.042-2.732l4.191,6.023l6.451,7.137l-4.284,3.281l-11.411,2.189v-5.81L287.242,146.033z
			 M358.492,197.546c1.285-1.009,5.477,1.641,5.477,1.641s13.691,2.743,15.887,4.383c2.205,1.651,6.023,2.749,7.131,4.399
			c1.109,1.646,4.928,6.578,5.453,8.218c0.572,1.64,3.314,7.68,3.863,9.864c0.549,2.189,2.193,7.669,3.828,10.412
			c1.635,2.754,10.961,14.796,14.254,20.288l9.875-1.646c0,0-1.098,4.916-2.195,6.572c-1.098,1.635-4.389,6.023-6.023,8.219
			c-1.656,2.182-3.83,5.475-7.121,8.207c-3.281,2.73-3.303,5.475-4.938,7.68c-1.635,2.184-3.84,7.109-3.84,7.109
			s1.098,10.973,1.646,13.166c0.537,2.195-3.842,8.207-3.842,8.207l-4.936,4.949l-6.605,8.744l0.537,8.219
			c0,0-4.992,3.85-7.734,6.033c-2.723,2.184-2.305,3.83-4.488,6.035c-2.184,2.184-10.752,6.023-12.947,6.572
			c-2.184,0.549-14.273,2.195-14.273,2.195v-4.928l-0.254-5.475c0,0-1.656-6.584-3.313-8.777c-1.656-2.184-0.934-5.486-3.676-8.219
			c-2.742-2.742-3.752-4.926-4.301-6.582c-0.549-1.635,0.592-6.563,0.592-6.563s2.217-6.033,3.314-8.217
			c1.096-2.195,0-5.475-1.098-7.682c-1.098-2.193-1.623-7.68-1.623-9.314s-4.412-4.389-6.057-6.023
			c-1.635-1.646-1.076-3.852-1.076-6.012c0-2.217-1.646-7.145-1.107-10.984c0.549-3.828-4.922-1.107-8.213,0
			c-3.291,1.109-5.469-1.107-5.469-4.398c0-3.293-6.023-0.527-9.869,1.645c-3.851,2.195-8.224,2.195-12.629,3.84
			c-4.367,1.646-6.55-1.635-6.55-1.635s-3.851-3.279-6.572-4.926c-2.748-1.646-5.491-4.926-7.691-7.67
			c-2.184-2.754-7.675-10.977-8.207-14.246c-0.549-3.303,0-5.508,0-9.337s0-6.023,0.543-8.761c0.548-2.743,2.189-6.035,3.84-8.777
			c1.64-2.743,7.675-6.024,9.304-7.121c1.64-1.091,5.48-4.372,5.48-6.572c0-2.195,2.205-3.281,3.28-5.486
			c1.114-2.189,4.949-7.658,9.88-5.469c0,0,4.367-0.543,6.007-1.092c1.64-0.549,6.023-2.178,8.19-3.281
			c2.194-1.103,7.653-1.618,7.653-1.618s4.312,1.723,5.951,1.723c1.641,0,6.99-0.96,6.99-0.96s2.479,7.944,2.479,9.601
			c0,1.651,1.635,3.281,4.389,4.378C340.389,199.187,353.008,201.941,358.492,197.546z M421.516,304.961
			c0,1.646-0.549,6.035-1.098,8.23c-0.57,2.193-1.656,6.033-2.193,8.207c-0.549,2.193-3.291,6.582-4.916,7.68
			c-1.645,1.098-4.398,4.389-6.035,4.938c-1.635,0.549-2.742-3.84-2.193-6.035c0.559-2.193,3.291-8.217,3.291-8.217
			s0.549-3.281,1.086-5.477c0.561-2.193,7.143-4.926,7.143-4.926l4.391-8.229C420.967,301.121,421.516,303.338,421.516,304.961z
			 M178.329,272.309c0.708,0.188,1.717,0.703,3.144,1.977c2.068,1.799,3.292,2.721,6.035,3.828c2.732,1.109,3.829,2.732,7.121,4.379
			c3.292,1.656,2.206,0.57,6.572,5.484c4.395,4.916,3.846,4.916,4.932,7.682c1.092,2.742,2.743,5.463,3.846,7.131
			c1.103,1.646,4.383,2.721,6.023,3.83c1.64,1.107,4.378,2.184,6.018,2.184c1.651,0,6.583,4.938,9.326,5.484
			c2.743,0.549,2.743,6.035,2.743,6.035l-2.743,7.658l-2.2,8.219l2.2,6.572c0,0-3.303,2.754-5.47,2.754
			c-2.024,0-2.71,1.283-4.921,0.67C200.059,326.686,184.901,301.166,178.329,272.309z"/>
	</g>
</g>
</svg>
