<svg xmlns="http://www.w3.org/2000/svg" height="480" width="640">
    <g clip-path="url(#a)" fill-rule="evenodd">
        <path fill="#fff" d="M0-80h640v640h-640z"/>
        <path d="M0 346.662h640v213.338h-640z"/>
        <path fill="#f30000" d="M0-80h640v213.337h-640z"/>
        <path fill="#005623" d="M609.345 274.933l-26.384-19.086-26.257 19.347 9.995-31-26.511-18.989 32.569-.075 9.875-31.075 10.129 30.948 32.607-.217-26.302 19.198z"/>
        <path d="M241.55 211.462c.271 30.425 0 49.985 0 56.232-3.26 3.803-6.52 7.877-8.965 11.137-1.087-.815-1.359-.815-1.359-2.445s-.271-41.563 0-56.232c4.89-2.445 8.15-9.237 10.323-8.693zm-11.138-.543c2.445-4.075 5.161-8.15 7.063-10.051 1.902 1.087 1.63 4.075 1.902 4.889-1.902 2.717-6.52 7.063-7.878 8.421-.543-.815 0-.543-1.087-3.26zm13.582-34.773c-16.571 10.866-35.316 23.906-42.108 29.611-6.792 5.705-9.236 9.237-9.236 19.016 0 9.78.271 20.918-.543 26.079-.815 5.161-3.26 10.595-9.237 5.705-5.976-4.889-10.322-9.779-13.04-11.952-2.716-2.174-7.606-5.162-14.126.543s-36.945 37.76-42.65 41.291c-5.705 3.532-6.791 4.347-10.866 6.52 8.421.543 17.929 1.087 25.535-.543 10.051-7.335 21.732-23.906 25.536-27.981 3.804-4.075 7.606-12.768 16.027-3.26 8.421 9.508 8.149 9.779 12.224 12.768 4.075 2.988 9.237 2.445 12.769-3.532 3.532-5.976 3.803-8.693 5.161-18.473 1.359-9.779 2.173-22.004 4.347-27.438 2.173-5.433 6.52-10.866 13.854-15.214 7.335-4.346 8.694-4.618 10.323-5.433 3.26-6.248 11.138-20.918 14.398-24.45 1.359-1.63 1.631-2.445 1.631-3.26zm-73.619 98.884c-4.075-2.716-5.433-4.89-7.606-4.618s-6.791 6.52-9.508 8.149c3.532 2.988 6.792 5.705 9.508 5.162 2.717-.544 4.618-6.52 7.606-8.694z" fill="#005623"/>
        <path d="M514.563 198.7c-5.705 1.359-8.693 8.965-13.582 14.126-.543 15.214-.543 62.481-.543 68.729 4.89-5.705 7.878-8.965 11.41-11.138.815-25.264 3.803-60.579 2.716-71.718zm-26.895-.271c-6.791 4.346-8.421 8.693-14.126 13.582-.271 18.201.543 44.008-.815 47.54-1.359 3.532-4.347 10.866-11.681 10.051-7.335-.815-9.508-2.173-9.508-9.779s1.63-56.232 1.63-64.111c-5.705 2.717-10.595 11.139-14.669 14.67 0 19.015.815 43.193.271 48.355-.543 5.161-2.716 13.582-11.953 13.311-9.236-.271-14.126-4.89-14.126-10.322 0-5.433-.271-41.02.272-47.269-8.149 5.705-27.166 17.114-30.969 31.784-3.803 14.669 2.174 19.016 7.606 16.299 5.433-2.716 7.878-5.161 10.866-7.334.815 9.236 1.087 19.288 10.322 25.264 9.237 5.976 20.918 3.804 25.265.543 4.346-3.26 5.976-5.433 7.063-7.063 8.149 6.248 20.102 9.508 27.981 2.716 7.877-6.791 12.224-13.582 13.039-21.189.815-7.606 4.619-46.725 3.532-57.047zm-85.3 36.945c-8.149 3.804-11.681 9.508-9.508 13.04s6.52-.543 9.508-1.902c-.543-5.433 0-8.421 0-11.138zm52.43-57.591c-1.902 6.248-3.26 5.161-5.705 5.433-2.445.271-4.075-2.174-5.976-4.347-1.902.271-2.173.815-3.532 1.359 4.346 6.248 7.606 8.964 12.768 7.606 5.161-1.359 5.433-5.976 5.433-8.421-.815-.543-1.087-.815-2.988-1.63zm-4.618-7.878c-2.445.815-2.988 1.359-3.804 3.532 1.359 2.988 3.26 4.618 5.162 3.804 1.901-.815 2.173-4.075 1.087-4.89-1.087-.815-.543-1.359-2.445-2.445z" fill="#005623"/>
        <path fill="#005623" d="M77.995 274.933l-26.384-19.086-26.257 19.347 9.995-31-26.511-18.989 32.569-.075 9.875-31.075 10.129 30.948 32.607-.217-26.302 19.198z"/>
        <path fill="#005623" d="M343.126 274.933l-26.384-19.086-26.257 19.347 9.995-31-26.511-18.989 32.569-.075 9.875-31.075 10.129 30.948 32.607-.217-26.302 19.198z"/>
    </g>
</svg>
