<svg xmlns="http://www.w3.org/2000/svg" height="480" width="640"><defs><clipPath id="a"><rect fill-opacity=".67" height="384" width="512" y="64"/></clipPath></defs><g clip-path="url(#a)" fill-rule="evenodd" transform="matrix(1.25 0 0 1.25 0 -80)"><rect height="512" width="512" fill="#fff"/><rect height="170.67" width="512" y="341.33"/><rect height="170.67" width="512" fill="#f30000"/><polygon points="566.56 405.84 531.24 380.29 496.09 406.19 509.47 364.69 473.98 339.27 517.58 339.17 530.8 297.57 544.36 339 588.01 338.71 552.8 364.41" transform="matrix(.598 0 0 .598 148.9 41.417)" fill="#005623"/><path d="M193.24 233.17c.217 24.34 0 39.988 0 44.986-2.608 3.042-5.216 6.302-7.172 8.91-.869-.652-1.087-.652-1.087-1.956 0-1.304-.217-33.25 0-44.986 3.912-1.956 6.52-7.389 8.259-6.954zm-8.91-.435c1.956-3.26 4.129-6.52 5.65-8.041 1.521.869 1.304 3.26 1.521 3.911-1.521 2.174-5.216 5.65-6.303 6.737-.435-.652 0-.435-.869-2.608zm10.866-27.818c-13.257 8.693-28.253 19.125-33.686 23.689s-7.389 7.389-7.389 15.213c0 7.824.217 16.734-.435 20.863-.652 4.129-2.608 8.476-7.389 4.564-4.781-3.911-8.258-7.823-10.432-9.562-2.173-1.739-6.085-4.13-11.301.435-5.216 4.564-29.556 30.208-34.12 33.033-4.564 2.825-5.433 3.477-8.693 5.216 6.737.435 14.343.869 20.428-.435 8.041-5.868 17.386-19.125 20.429-22.385 3.043-3.26 6.085-10.214 12.822-2.608 6.737 7.606 6.52 7.823 9.779 10.214 3.26 2.391 7.389 1.956 10.215-2.825 2.825-4.781 3.042-6.954 4.129-14.778 1.087-7.823 1.738-17.603 3.477-21.95 1.738-4.347 5.216-8.693 11.083-12.171 5.868-3.477 6.955-3.694 8.259-4.346 2.608-4.999 8.91-16.734 11.518-19.56 1.087-1.304 1.304-1.956 1.304-2.608zm-58.895 79.107c-3.26-2.173-4.347-3.912-6.085-3.694s-5.433 5.216-7.606 6.52c2.825 2.391 5.433 4.564 7.606 4.13 2.174-.435 3.694-5.216 6.085-6.955z" fill="#005623"/><path d="M411.65 222.96c-4.564 1.087-6.954 7.172-10.866 11.301-.435 12.171-.435 49.985-.435 54.983 3.912-4.564 6.303-7.172 9.128-8.91.652-20.211 3.042-48.463 2.173-57.374zm-21.516-.217c-5.433 3.477-6.737 6.954-11.301 10.866-.217 14.561.435 35.206-.652 38.032-1.087 2.825-3.477 8.693-9.345 8.041-5.868-.652-7.606-1.738-7.606-7.823s1.304-44.986 1.304-51.289c-4.564 2.174-8.476 8.911-11.735 11.736 0 15.212.652 34.554.217 38.684-.435 4.129-2.173 10.866-9.562 10.649-7.389-.217-11.301-3.912-11.301-8.258 0-4.347-.217-32.816.218-37.815-6.52 4.564-21.733 13.691-24.775 25.427-3.042 11.735 1.739 15.213 6.085 13.039 4.347-2.173 6.303-4.129 8.693-5.867.652 7.389.869 15.43 8.258 20.211 7.389 4.781 16.734 3.043 20.212.435 3.477-2.608 4.781-4.347 5.65-5.65 6.52 4.998 16.082 7.606 22.385 2.173 6.302-5.433 9.78-10.866 10.431-16.951.652-6.085 3.695-37.38 2.825-45.638zm-68.24 29.556c-6.52 3.043-9.345 7.606-7.606 10.432 1.738 2.825 5.216-.435 7.606-1.521-.435-4.346 0-6.737 0-8.91zm41.944-46.073c-1.521 4.998-2.608 4.129-4.564 4.347-1.956.217-3.26-1.739-4.781-3.477-1.521.217-1.738.652-2.825 1.087 3.477 4.998 6.085 7.171 10.214 6.085 4.129-1.087 4.347-4.781 4.347-6.737-.652-.435-.869-.652-2.391-1.304zm-3.694-6.303c-1.956.652-2.391 1.087-3.043 2.825 1.087 2.391 2.608 3.694 4.13 3.043 1.521-.652 1.738-3.26.869-3.912-.869-.652-.435-1.087-1.956-1.956z" fill="#005623"/><polygon points="566.56 405.84 531.24 380.29 496.09 406.19 509.47 364.69 473.98 339.27 517.58 339.17 530.8 297.57 544.36 339 588.01 338.71 552.8 364.41" transform="matrix(.598 0 0 .598 -276.18 41.417)" fill="#005623"/><polygon points="566.56 405.84 531.24 380.29 496.09 406.19 509.47 364.69 473.98 339.27 517.58 339.17 530.8 297.57 544.36 339 588.01 338.71 552.8 364.41" transform="matrix(.598 0 0 .598 -64.075 41.417)" fill="#005623"/></g></svg>