<svg xmlns="http://www.w3.org/2000/svg" viewBox="0 0 640 480">
  <svg preserveAspectRatio="xMidYMid slice" viewBox="0 0 6626.3 3786.4">
    <path fill="#da0000" d="M-3798-5382.5h6626.3v3786.4H-3798z" transform="translate(3798 5382.5)"/>
    <path fill="#fff" d="M-3798-5382.5h6626.3v2524.3H-3798z" transform="translate(3798 5382.5)"/>
    <path fill="#239f40" fill-opacity="1" d="M-3798-5382.5h6626.3v1262.1H-3798z" transform="translate(3798 5382.5)"/>
    <path fill="#fdd116" fill-opacity="1" stroke="none" stroke-dasharray="none" stroke-dashoffset="0" stroke-linecap="round" stroke-linejoin="round" stroke-miterlimit="4" stroke-opacity="1" stroke-width="1.01706791" d="M1894 317.6c0 200.4-67.1 44.9-279.3 44.9s-209 63-209-137.4 17.6-350 229.8-350 258.6 242.1 258.6 442.5" opacity="1" transform="matrix(.85884 0 0 .85884 1920.4 1734.1)"/>
    <path fill="#fdd116" fill-opacity="1" fill-rule="evenodd" stroke="none" stroke-linecap="butt" stroke-linejoin="miter" stroke-opacity="1" stroke-width="1px" d="m1136-178.5 22.1-23.7 44.5-35.4 35.8-17.2 19.7-6 95-1.6 17.2 11.2L1398-230l17.1 13.1 13.7 20.2 26.7 15.2 16.2 41.4-11.6 26.7 11.6 25.3 6 30.8 2.6 79.8 16.1 6 26.3 23.3 26.3 18.2 28.3 10 22.7 5.1 65.6 16.2h229.9l60 4 95.5 27.3 73.3 35.9 83.3 38.4 60 41.4 46 15.1 40.5-2.5 21.7-30.8-.5-34.9L2352 166l-51.5-39.4L2231 76l-53.5-42.4-27.8-25.2-23.2-44-10.6-45 9-27.7 11.2-28.8 42.4-22.2 44-7 48 5.5 32.2 11.6 41 6 21.7 23.3 20.2 47.5-13.2 4-49.5-9-30.8-19.3-7.5-42-51-9.5-39.4 4.5-36.4 18.2-18.2 29.3 2.5 46.5 31.3 42.4 54 40 51.1 34.8 56.6 33.3 43.4 36.9 25.8 37.3 12.6 50.6-11.1 33.8-31.8 32.8-37 15.7-50.4 3-54-17.2-45.5-18.1-31.8-8.6 8 54.5-12.6 118.2 14.2 48 54.5 28.8L2239 568l-5 51.5-6.1 66.7-9.1 51.5L2193 765l-35.8 11.6-50.5 1.5-24.3-13.6-8.6-40-1.5-18.1 39-43 39.3 5.6 5.6-35.3-6.6-24.3-37.9-37.9-69.7-35.8-50.5-51-7.6-13.2-25.7 26.3-31.8 38.4-15.7 44 3.5 40.3-16.1 30.8-31.3 56.6-55 67.7-116.3 6-12.6-32.3 3-16.1 6.6-26.8 36.9-32.8 33.3 10 23.8-10 25.2-23.3-1-39.4-3.5-43.4-9.6-65.7 14.6-60.6 4-8-23.2-40.5-209.6 38-114.1-4.1-42.5-.5-41.9 23.2-10.6 41.4-33.8 25.8-38.4 57-40.4 83.9-22.7 35.3-23.3 53-69.7 40-117.7-2-3-29.3 16.2-39 29.3-30.7 47.4-5.6 25.8-3.5 38.9-80.8 30.8-89 31.8-74.7-21.7-13.1-41-17.4-111.7-32.9-75.4-10-60.7 27.5-16.4 36-40.4 7.6-13.6-18.6 6.8-40.7 5.7-15-18.5-50.7 6.4-38.6 21.4-22.8 56.5 4.2 34.2 40 37.2-5.7 110.7 13.6 7.1 2.1 17.9-20-21.4-257-2.9-53-10-32.8 22.9-56.4 2.8-33.6z" transform="matrix(.85884 0 0 .85884 1920.4 1734.1)"/>
    <path fill="#000" d="m1625-388.8-2.7.1-6.1.4v17.5c0 22 1.6 78.6 3 110.6.7 13.4 1.6 44.6 2 69.4.9 44 1.4 64 1.7 66 0 .6 1.7.9 3.6.6 4-.4 3.6 8.8 4.6-82.9.4-35.7 1-72.5 1.3-81.8s.8-35.3 1.1-57.8l.6-41-2.8-.7c-1.2-.3-3.7-.4-6.3-.4m-83.2 6.5h-1q-1.2 0-2.6.2c-11 1.6-12 2.6-10 12.1a1461 1461 0 0 1 7.7 37.3l4.6 23.1a737 737 0 0 0 6.3 31.3 2705.4 2705.4 0 0 1 18.9 98.1c4.1 23.4 7.4 40.3 8.7 45.2.6 2.5 1.1 5.7 1.1 7.2 0 1.4.7 3.8 1.6 5.1 1.8 3 3.4 3.1 6.5.8 2.1-1.5 2.2-2.4 1-9-.8-4-2-11.6-2.8-16.8l-2-11.9c-1.5-6.2-4.6-28-6.1-42.5-.5-4-1.3-8.6-1.9-10a41 41 0 0 1-1.7-8.7c-.7-6.3-2-15.8-4.6-33.1l-10-66.9c-1.4-10.2-4.6-29.7-6.2-38.2-.7-3.8-1.3-9.8-1.3-13.4 0-7-1.4-9.8-6.2-10m162.2 1.1h-.7q-1.8.1-2.6 2c-1.1 2.1-3.3 16.4-7.7 49.6a4836 4836 0 0 1-9.9 72.5l-5 35.7-3.1 20-3.1 20.6c-2.2 16.2-5.4 37.4-8.3 54.6-.7 3.8-.4 4.6 1.5 5.1 7 1.8 6.6 2.4 9.2-14 .8-5.2 2.4-14 3.6-19.5s2.4-12.4 2.5-15.5.7-6.4 1.2-7.5 1.1-4.2 1.3-6.8a21 21 0 0 1 1-6c.3-.6 1.1-4.3 1.7-8.3.6-3.9 2.3-12.4 3.7-19s3-15.2 3.7-19.4a545 545 0 0 1 5-28l7.5-42.6 5.8-34c.5-1.8 3.4-18.4 5.7-32.8q.6-4.3-10.4-6.3zm-242.6 9.9q-2.5-.2-8.4 1.5c-9.7 2.7-11.5 4.2-10.5 8.8.5 2.2 1.2 4.5 1.7 5.2s3 6.6 5.6 13.1l6.6 16.3c2 4.8 2.5 5.8 6.6 16.8 1.5 4.2 3.9 10 5.2 12.8 1.3 3 2.3 6 2.3 6.6 0 .7 1.1 3.7 2.4 6.6l10.1 25.3 8.8 22.5 3.7 10c1.4 4.1 3.2 8.9 4 10.6q2 4.4 4.8 11.9l8.1 20.6a665 665 0 0 1 12 31.9c1.6 3.6 7 18.6 10.7 29.4 1.8 5.1 4 10.3 5.1 11.5 4.5 5 6.8 1.2 4.1-7l-10-32c-.9-3.1-3-9.6-4.7-14.4l-4-12.5-4-13.1c-1.8-5.2-3.9-12-4.8-15-.8-3.1-2-6.8-2.6-8.2-.5-1.3-1.7-4.7-2.5-7.5l-2.5-7.5a2204.7 2204.7 0 0 0-11-35c-4.3-13-9.4-29.3-11.6-36.2-2-6.9-4.9-15.3-6.2-18.6a36 36 0 0 1-2.4-8.5c0-1.3-.5-3.3-1.1-4.5a319 319 0 0 1-12-38c-.4-2.3-1.3-3.4-3.5-3.4m328.4 15.4c-2.3.1-3.4 3-8 16.3l-6.3 17.4a39 39 0 0 0-2.5 7.6c0 .9-.9 3.4-2 5.6a48 48 0 0 0-3 8 486 486 0 0 1-16.3 46.1c-.6 1.2-1.2 3-1.2 4.1s-.5 2.9-1.2 4c-.6 1.3-3 7.9-5.1 14.7-2.2 7-4.5 13-5 13.7a6 6 0 0 0-1.2 3.5c0 1.2-.5 3.2-1.1 4.4l-2 4.7-4.6 12.5-7.2 20.6a615 615 0 0 1-10.3 28.8l-3.5 9.3c-8.8 22-9 22.5-6.7 24.1 4.6 3.4 8.3 1.4 9.9-5.3.5-2 1.9-6 3.1-8.8 1.2-2.7 4-10 6.2-16.2 4.6-12.8 6-16.6 7.6-19.7.6-1.2 1.1-3.2 1.1-4.4a6 6 0 0 1 1.1-3.5c1.2-1.2 9.2-21.3 12.3-30.5 1-3.1 2.4-6.2 3-6.8.6-.7 1.1-2.5 1.1-4 0-1.6.6-3.2 1.3-3.6s1.2-1.9 1.2-3.2.5-2.4 1-2.4 1.8-2.6 2.7-5.8 2.7-8 4-10.6a26 26 0 0 0 2.3-6c0-.8.5-2.4 1.1-3.6s1.7-3.6 2.4-5.3l3.2-7.5c1-2.4 2.9-7.2 4-10.6s3.1-8.5 4.3-11.3a154 154 0 0 0 6.3-16.2l10-26.3 3.8-10c1.6-4 3.2-8 3.7-8.7s1.2-3.4 1.6-6c.7-4.1.4-4.8-2.6-6.3a37 37 0 0 0-8.5-2.8M1383-321.4q-1 0-1.8 1.2c-.5.7-1.8 1.3-3 1.3s-3.3.8-4.8 1.9c-2.4 1.6-2.5 2.4-1.4 5.6.7 2 1.8 3.7 2.4 3.7q1 .1 1.1 1.3a26 26 0 0 0 3.4 6.6c3.6 5.5 4 6 10.3 17.5 2.2 4 6.7 11.6 10 16.9 5.4 8.7 6.2 9.6 9.6 9.3 3.5-.4 3.5-.3 1.1 1.6s-2.4 2 .6 7.8c1.7 3.2 3.4 6.2 3.8 6.5l2.5 4.4c1 2 3.3 6 5 8.7 1.9 2.8 5.2 8.4 7.4 12.5s5.1 9 6.4 10.8 2.4 4 2.4 4.7q.1 1.3 1.3 1.4 1.1.2 1.2 2.5c0 1.3 1 3 2.2 3.7 2.8 1.6 9 1.7 9 .2a334 334 0 0 0-17.7-35q-.9-.5-1-2c0-1-1.5-4.5-3.5-7.8a93 93 0 0 1-5.2-10.3c-1-2.4-2.1-5-2.7-5.7-.5-.7-3.4-6-6.5-11.9a799 799 0 0 0-22-41.2c-1.1-1.7-3.4-6-5-9.7q-3-6.5-5.1-6.5m483.3 2.5c-1.5 0-5.8 5.6-5.8 7.7q0 2.1-.9 2.3c-.5 0-1.7 1.6-2.5 3.6-1 2-4.9 9.4-8.8 16.5a664 664 0 0 0-14 26.1c-.4.4-2.4 4-4.5 8.1a729 729 0 0 1-20.5 37.5l-6.2 11.3-6.3 11.2c-6 11.3-11.6 21.3-12.6 22.6a353 353 0 0 0-13.7 25 200 200 0 0 1-10 17.3c0 .3-1.7 3.6-3.9 7.3-4.2 7-7 12.1-12 20.9l-3.1 5.5 2.7 2.2c3 2.5 5.7 2 6.9-1.2 1-2.7 4-7.9 9.8-16.8 2.6-4 4.6-7.5 4.6-7.9 0-.3 1.6-3 3.6-5.9s5.2-8.3 7.3-12a511 511 0 0 1 14.1-24.5c5.3-9.2 15.6-26.3 16.3-26.8.4-.4 1.5-2.5 2.4-4.7a17 17 0 0 1 3.3-5.4c1-.8 2.5-3 3.5-4.8 3.4-6.5 5.3-9.7 11.1-18.6 3.3-5 6-9.7 6-10.3q0-1.1.9-1.2c.5 0 1.5-1.3 2.3-2.9a260 260 0 0 1 7.8-13.2c3.5-5.7 6.4-10.6 6.4-11 0-.3 1.7-3 3.8-6s3.7-5.9 3.7-6.3 1.7-3.3 3.8-6.3 3.7-6 3.7-6.7q.1-1.3 1-1.4c.6 0 1.9-2 2.8-4.4 1-2.4 2-4.3 2.5-4.3 1.3 0 7.6-12.6 6.8-13.8a63 63 0 0 0-12.3-8.7M1592-297l-5.3.3-6.5.4 1 7a3753 3753 0 0 1 12 105.3c2 18.8 3.6 34.7 4.4 46.8.4 6.2 1.3 12 2 12.9 1.5 1.8 1.7 1.9 4.7.3 2.2-1.2 2.3-2.5 1.8-16.6a460 460 0 0 0-1.9-26c-.6-5.8-1.2-15.4-1.2-21.3s-.5-16.6-1.2-23.7c-1.3-14.8-2-28.2-3.3-61-.7-21.1-.5-24.3-6.5-24.4m62.9 3.2c-1.5.1-1.8 1-2.3 3.1-.4 2-1.1 11.4-1.5 21a1050 1050 0 0 1-1.8 33.2c-.6 8.6-1.8 26.3-2.5 39.3-.7 13.1-2 34.8-3 48.2a308 308 0 0 0-1.1 25.3q.7.9 2.8 1c3.8 0 4.3-2.6 8.8-46.3l2.5-21.3c1.1-8.1 2.8-22.8 5-45 1.7-15.7 3.5-31 5.2-42.9 1.3-9 1.2-10-1-12a17 17 0 0 0-7.5-3.2zm-130.3 10.4-5.2.1c-8.2.2-8.4 1-3.4 17 2.4 7.8 5.1 17 6 20.4.7 3.4 1.9 7.4 2.5 8.7.6 1.4 1.9 5.4 2.8 8.8l22 78.7c1.1 3 3.5 12.4 5.7 22.3.9 4 2.5 8.7 3.7 10.4q2 3 4 2.4l2.3-.7c1.2 0 .4-5.9-2-14.2a883 883 0 0 1-9.4-35.8c-4.9-19.4-5.2-20.6-9.3-38.7-3.9-16.8-4.7-20-6.3-25.7-2-7.2-3.6-14.3-4.5-19.7-.4-2.6-1.3-5-1.9-5.4-.6-.3-1-2.1-1.1-4 0-1.8-1.4-8.1-3-14zm201.8 2.9c-4.4-.3-6.6 4.1-9.4 17.1a2235 2235 0 0 1-21.3 89.4 1384 1384 0 0 1-10.8 42.5c-3 10.2-3.5 12.2-2.7 14.3 1 2.6 5.5 2.4 7-.3.5-1.2 1.8-5.5 2.6-9.7 1-4 2.1-8 2.7-8.6a6 6 0 0 0 1-3.5c0-1.2.5-3.2 1.1-4.4a44 44 0 0 0 4-13.9c0-1.5.5-3.7 1.1-4.9 1.2-2.3 5-15.2 7.7-25.9a40 40 0 0 1 2.4-7.5c.5-.7 1.6-4 2.4-7.5 1.8-7.1 4.4-16.2 10.6-36.9l9.6-31.8c1.3-4.4-.1-6.4-6-8zm-421 6.7q-4.8 0-9.2.4c-14.9 1.3-39.9 8.9-42.3 12.8-.4.6 2 3.4 5.3 6.2 9.7 8.4 24.6 30.3 30 44.1 1 2.4 2.9 6 4.2 7.9 2 3 3.1 3.4 8 3.2 6.1-.3 7-1.3 8.4-9 .5-2.7 1.4-5.8 1.9-7a68 68 0 0 1 11.3-19.5c0-1.8 15.7-15.9 24.1-21.6 3.3-2.3 6-4.9 6-5.8 0-5.8-25.7-11.7-47.8-11.7m634.6 1c-2 0-3.7 1.6-8.2 7.5a83 83 0 0 1-5.7 6.8 86 86 0 0 0-6.8 8.8 98 98 0 0 1-7.8 10c-2 2-4.8 5.2-6.3 7.2l-30.1 37.7a181 181 0 0 1-8 9.2c-2.2 2.4-4 4.7-4 5.1-.1.5-2 2.9-4.1 5.4l-6.6 7.6-15.6 19.2a2535 2535 0 0 0-41.3 50.5c-1 1-4.4 5-7.5 8.8s-7.1 8.5-9 10.6c-4.7 5.1-5.5 8.2-2.7 10.2a9 9 0 0 0 3.1 1.7c.5 0 5-5 10-11a807 807 0 0 1 18.6-21.5l18.8-21.3q15-17.4 22.8-25c3.3-3.2 6-6.2 6-6.6 0-1 3.9-5.7 10.3-12.6 1.9-2 5.6-6.3 8.3-9.4 8.2-9.7 21.7-25 28.4-32a1257 1257 0 0 0 30.4-34.4l12.2-13.7c2.9-3 5.3-6.8 5.3-8.3 0-2.8-7.6-10.5-10.5-10.5m-150.5 13c-2.2.2-3.5 2.6-6.3 9.5l-6.4 15.6a538 538 0 0 1-10.3 24.4l-2.3 5.6-5.3 12-9 20.5a110 110 0 0 1-5.8 12.5 78.6 78.6 0 0 1-6 15.2c-2.8 5.9-5 11-5 11.2 0 .7-9.7 21.6-11.4 24.6q-1.2 2.2.4 4.7c.8 1.3 2.4 2.4 3.4 2.4 1.8 0 25-45 25-48.4q.1-1.2 1-1.7c.5-.3 4.5-7.8 8.8-16.7l9.3-18.8 29.9-58.4c2.5-5.1-.7-11-7.4-13.6q-1.5-.6-2.6-.5m-332 4.8h-.5l-1.2.3c-5.4 1.2-10.3 3.4-10.3 4.5 0 .6 1.3 3.2 2.8 5.8 4.8 8.4 27.2 54 27.2 55.3q.1 1.2 1.3 1.3t1.2 1.1c0 .7 7.6 16.6 16.7 35.4l20.2 41.6c1.8 4.2 4 8.3 4.7 9.1.7 1 2 1.4 2.7 1.2 2.6-.8 2.2-5.7-1-12.7a48 48 0 0 1-3.3-8.2q0-1.1-1.2-1.2c-.7 0-1.3-1-1.3-2 0-1.1-1.7-5.8-3.8-10.4a491 491 0 0 1-14.1-33l-6.3-13.7c-1.8-4-3.3-7.7-3.3-8.3 0-.5-.7-2.6-1.7-4.6-3-6.3-6.8-14.9-9.5-21.9a413 413 0 0 0-8.7-20.5c-6.8-15.7-8.3-18.9-10.6-19m-221.4.2c-2.2 0-5 .6-10 1.5a73 73 0 0 0-23.4 13.4c-6.7 6-6.1 8.4 3.5 16 4.4 3.5 8.5 7.1 9 8s4 5 7.9 9c3.8 4 8.3 9.2 10.1 11.6s4.8 6 6.6 8.1 3.2 4.4 3.2 5.1.7 2 1.5 2.8c2.3 2.3 3.4 2 16.1-4.2 12.6-6.1 17.4-9.7 17.4-13a101 101 0 0 0-15-28.5c0-.6-1-2.2-2.2-3.5a77 77 0 0 1-5.5-7.2c-1.8-2.6-6.2-8.1-9.8-12.2-4.4-5-5.8-6.9-9.4-7m131.5.8-4.3 2.5a111 111 0 0 0-34.3 36.8c-5.5 11-6.2 12.7-6.4 16.9-.2 3.8.2 4.2 5.6 5.8 3.2 1 7.6 3.4 9.9 5.5 2.2 2 4.9 4.3 6 4.9s2.8.7 3.9.3c2.1-.8 7.5-6.5 7.5-8 0-.6 1-2 2.2-3.2a99 99 0 0 0 6-7.2c5.4-7 10.6-11.8 19-17.1a78 78 0 0 0 11.6-9.1l4.3-4.4-7.4-6.9c-4-3.8-8.1-6.8-9-6.8q-1.3-.1-1.9-1a36 36 0 0 0-6.5-5zm484.8 28.7c-1.6 0-5.2 3.6-7.4 7.4l-22.7 34-30.4 44.9-2 2.6a950 950 0 0 1-23 33.6c-1.5 1-11.6 16.4-11.2 16.8l3 1.7c4.2 2.4 5.4 1.8 11-6 4.7-6.9 17.3-23.8 19.9-26.9l8-10.6 8.3-11.2c.9-1 6-7.8 11.3-15 13.7-18.6 22.5-30 24.3-32 .8-.9 1.5-2.1 1.5-2.7s1-2.2 2.3-3.5c1.2-1.4 3.5-4.4 5.2-6.8a123 123 0 0 1 6.5-8.5c2-2.3 3.5-5.6 3.5-7.4 0-3.4-5.4-10.4-8.1-10.4m-671 5c-.9 0-8.9 5.5-10.9 7.5a354 354 0 0 1-14.2 11.5c-1.7 1.1 1.4 4.8 4 4.8 3 0 13.2 5.3 19.3 10.2l7.8 6a100 100 0 0 1 21.9 24.3c1.3 3.1 3 5.7 3.7 5.7 2.5 0 11.1-5 15.6-8.9 8.4-7.3 5.4-15-12.5-32.9-11-10.9-32.2-28.2-34.6-28.2m233 .5c-1.2 0-2.7 1-5.8 2.8-3.1 2-8 5.4-10.7 7.7-2.8 2.2-5.5 4-6 4-3.4 0-31.4 28.1-31.4 31.5 0 1.3 2.3 3.7 5.2 5.5s7.5 5.7 10.3 8.7c7 7.3 9.4 7.1 14.8-1q12-18 36.3-32.7 7.6-4.4-1.5-14.5c-2.8-3.1-5-6.3-5-7.1 0-.9-1.4-2.5-3.1-3.6q-1.8-1.3-3-1.3m588 8.3a17 17 0 0 0-5.7 3.8l-7.8 6.6-8.2 7c-3.8 3.6-14.8 13.3-21.9 19.4-8.8 7.6-20.3 17.6-20.8 18.2a923 923 0 0 1-25.6 21.8c-1.4 1.4-6.5 5.7-11.3 9.6l-11.2 9.4a3194 3194 0 0 1-62.6 53.5L1811.8-49c-11 9.2-10.7 8.9-7.2 13.5 1.8 2.3 3.6 2 7.8-1.5l14.4-12 13.2-10.8a3675 3675 0 0 1 56.3-44.7c4.9-4.1 10.1-8.4 11.7-9.4a85 85 0 0 0 6.7-5.3 20 20 0 0 1 4.8-3.5c.5 0 1.6-.7 2.5-1.6 1-.9 9-7.4 18-14.5a2644 2644 0 0 0 43.5-34.9c10-7.9 19.8-15.9 24.9-20.4l5.1-4.5-4.8-6.4c-2.7-3.6-5.5-6.4-6.3-6.4m-550.6 26.2a58 58 0 0 0-20.4 7.8c-23.3 11.9-28.5 17.6-28.8 32.2-.2 8 0 8.9 3.6 12.5 9.6 10.1 21.8 10.3 32.6.4 5.1-4.7 6.7-8 6.7-13.9 0-6.7-3.8-11.5-9.2-11.5-4.9 0-7.3 1.8-10.5 7.5-3.3 6.2-6 5.8-5.6-1 .2-5.9 4.3-12.7 7.6-12.8 1.2 0 3.2-.8 4.5-1.8 1.5-1.2 5.3-1.9 9.6-1.9 9.1 0 12.3 3 14.3 13.3 2.2 11-.2 18.5-8.8 27.8-4.6 4.8-6.2 5.6-15.7 7.8q-18.7 4.4-18.6 11.2c0 4.5 4.2 8 13.7 11.2 4.5 1.5 11.1 5 14.8 7.9 10.8 8.5 29.2 25 30.7 27.7.7 1.3 2.2 3.1 3.2 4 1.5 1 2.3 1 3.7 0 1.4-1.2 1.6-4.8.9-19-1-19.9-1.5-22.8-4.4-23.5q-2.7-.6.2-.7c2.3-.2 2.9-2 .9-3.3-.7-.4-1.3-1.8-1.3-3.1s-2.1-4-5-5.9c-5.6-4-5.8-4.4-2.7-9a66 66 0 0 0 8.4-18.9c1-4.3 1-7.3 0-12.5-1.7-7.7-5.5-17.5-6.8-17.5-.4 0-1.8-1.7-3.1-3.9-1.3-2-4-5.5-6-7.5-2.7-2.5-5-3.7-8.5-3.6m-302.5 1.3q-16-.1-23.3 16a32 32 0 0 0 5.8 34.6c3.3 3.5 2.6 6.8-2.5 12.2a62 62 0 0 0-13.6 26.4 43 43 0 0 0-1.2 20.6 50 50 0 0 0 2.6 12.3c1.4 1.9 2.5 1.2 12.3-7.5 7.8-6.9 7.5-6.6 14.9-11.4l8.8-5.8c3.4-2.3 7.9-3.8 21.2-7.3l8-2.2 1.2-5.5c.6-3 1.2-7.5 1.3-10l.1-4.3h-8.1c-12.6 0-19.5-3.9-24.6-13.7a52 52 0 0 1 0-28.8c1.2-2 2-4.4 2-5.1s1.5-2.6 3.1-4.2c2.7-2.5 3.8-2.7 9.5-2 4.9.7 7.2 1.8 10 4.9 6.4 6.8 4 17.3-2.4 10.9-3.4-3.4-6.7-3.3-10.8.2-4.5 3.9-4.5 10.6 0 17 3.9 5.6 7.7 7.7 14.5 7.7 6.6 0 14-7 15.7-15.1 1.2-5.7-.2-16.2-2.2-16.2q-1-.2-1-1.7c0-5.1-18.2-16.9-32-20.6q-4.9-1.5-9.3-1.4m758.5 3.7h-.5q-1.5.2-2 1.2c-.4 1.2-23.2 25.6-39.8 42.7l-23.8 24.9c-8.5 9-23.8 25-34 35.4a249 249 0 0 0-18.4 20.1c0 .6 1 2.2 2 3.5 1.2 1.2 2.6 2.1 3 2 1.3-.5 26.7-24.4 61.1-57.3l19-17.5a2150 2150 0 0 0 37-34.3c3.7-3.3 6.6-7.1 6.6-8.4s-1.6-3.9-3.7-5.6c-2-1.7-3.8-4-3.8-5s-1.3-1.6-2.7-1.7m312.7 9c-8.4 0-15.8.5-20.6 1.4a324 324 0 0 0-35 8.6c-11 4-33.5 22.9-38.1 31.8a113 113 0 0 0-13.6 31.6 110 110 0 0 0 5.9 65.4c4 11.1 15.2 29 26.5 42.8 9 11 28.3 29.8 38 37l19.4 14.8a69 69 0 0 0 6.3 4.5c3 2 6.7 4.7 8 6 2.8 2.4 17.1 12.5 23.6 16.5 3.5 2.1 22.4 15.8 32.1 23.2l10 7c11.3 7.5 14.5 9.7 18.3 12.6l17.4 13a253 253 0 0 1 39.6 37.4 54 54 0 0 1 10.3 25.3c.8 8.8-.8 20.5-3.6 26.1-1 2.2-2 4.6-2 5.5 0 2.4-11.9 13.7-17.2 16.3-3.7 1.9-7.5 2.3-18.4 2.3h-13.7l-17-6.8c-16.2-6.6-66-31-70-34.3-1-1-8.2-5.5-16.2-10.2a534 534 0 0 1-26.8-16.4c-.7-.6-6.6-3.8-13.2-7.1-6.5-3.4-16.7-9.1-22.7-12.8-6-3.6-13.5-7.8-16.8-9.3s-14.5-6.8-24.8-11.8c-27.1-13.2-45-20-75.7-28.7l-22.5-6.7a537 537 0 0 0-76.8-19.1c-7.2-1.6-18.4-3-36.3-4.9-12-1.1-108.3-.8-110.3.5-1.8 1-71 2.6-101 2.2-17.2-.2-35.5-1.1-43-2.2l-22.6-3a361 361 0 0 1-19.2-3.3c-8.1-1.6-10-1.6-10.9-.2a79 79 0 0 0-2.7 22.3l-.3 8 10 1 20.6 1.7c19 1.5 95 1.2 125.7-.6 65.1-3.7 170.4-4.9 186.8-2.2 10.4 1.8 12 1.8 13.8.2 3.6-3.2 15.1-2.2 36.7 3.2a220 220 0 0 1 21.4 6c1.4 1.1 20.6 7.6 32.5 11a79 79 0 0 1 10.6 3.8c1.8.9 4 1.6 5 1.6 3 0 24 8.5 28.8 11.7 2.4 1.6 6.2 3.6 8.5 4.5s7 3.2 10.6 5.1c3.6 2 9.6 5 13.4 7 6.1 3 20.8 10.8 43.1 23a95 95 0 0 1 9.2 5.4c2.6 2.1 18.5 10.8 37 20.3 9 4.5 17.2 9 18.2 9.8 6.8 5.4 33.7 19.5 46.9 24.4 4 1.5 9.8 3.9 12.6 5.2s5.7 2.4 6.4 2.4 4.3 1.4 8 3c4.2 2 13.2 4.1 24.2 5.8 15 2.4 18.7 2.6 25.9 1.4 12.3-2.1 19.3-5.8 29.1-15.1 6.4-6.2 7.6-8.1 9.9-16.3a81 81 0 0 0-5.5-48.5 16 16 0 0 0-3.3-5.5c-1-.8-2.6-3.2-3.6-5.3a269 269 0 0 0-46.3-43.6c-12.6-9.8-27.9-21-37-27a765 765 0 0 1-27.5-20.1 1146 1146 0 0 0-47.4-35 420 420 0 0 1-27.2-20.6c-1-.8-7.6-7-14.8-13.9a61 61 0 0 0-15-12c-2.4.5-4.1-2-4.1-5.9 0-2.8-4.5-10.3-6.6-11.2q-.9-.6-1-1.5c0-.6-1.6-3.8-3.7-7a25 25 0 0 1-3.8-8.2q0-2.1-1-2.3c-.6 0-1.8-2.4-2.6-5.3-1-3-2-6.4-2.6-7.8-2-5.1-3.8-14.6-3.8-19.3 0-2.7-.6-5.3-1.3-5.8-1.5-.9-1.2-5.6 1.3-21.2 2.7-17.4 5.5-26.4 10.3-33.3 1.2-1.8 2.2-3.7 2.2-4.2s3.7-4.4 8.3-8.7a97 97 0 0 1 51.7-23.8c4.5-1 15.2-2.2 23.8-2.6 27.4-1.3 62.4 5.6 78.4 15.5 6.5 4 8 4.4 15.3 4.2 11-.3 25.5 3.6 30.5 8.2q13.2 12 16.7 19.4l16.7 35c2.5 4.7 1.5 6-4.2 5.4-2.9-.3-7.7-1.1-10.6-1.9s-10.2-1.8-16.2-2.4a69 69 0 0 1-32.8-10.1c-6.3-3.8-9.7-7-13-12a33 33 0 0 1-4.6-8.4q0-1.7-.9-2.7c-1.2-1.2-1.2-1.3-1.4-14.1l-.2-11-5.9-3.6c-22.6-13.7-56-16-95.3-6.4-7.3 1.7-24.5 8.6-27.7 11a78 78 0 0 0-28.9 39.7c-1.8 6.9-3.2 20.2-2.6 24.3 2 13.1 4.9 21.8 11.8 36.3 6.8 14 36.3 43 61.6 60.3l17.6 12.5c5.4 4 12.9 8.9 16.6 11 11 6 29.7 17.7 50.3 31.2l24.4 15.7c5.7 3.4 5.6 3.3 13.3 9.6l19.8 16c12.5 9.8 28 24.8 32.2 31 1.9 2.9 3.8 5.5 4.2 5.8 5 4.4 18.6 32.3 18.6 38.1 0 1.7.6 4.5 1.3 6.4 2 5.4 1.7 28.9-.5 37.3-3.6 13.4-13.4 31.5-20.6 37.7l-9 7.9a22 22 0 0 1-5.3 3.8 77.4 77.4 0 0 1-24.6 9.4c-2.4.5-7 1.8-10 2.9-4.3 1.5-10.4 2-25.6 2a102 102 0 0 1-44.4-7.3 1867.5 1867.5 0 0 1-81.5-27.6c-6.3-2.5-14.8-6.2-18.7-8.2-8.2-4.1-16.4-4.8-20.8-1.7-4 2.9-3.7 11 1 21.2 2 4.5 3.7 8.9 3.7 9.8s.5 2.1 1 2.8a67 67 0 0 1 5.4 20.8c1.8 12 .5 36.4-3.7 67.2-2.3 17.4-3.7 24-8.9 42.5-3.6 13-3.9 15.7-2.4 25 2.4 14.6 8.2 30 13.4 35.8 5.8 6.4 7.2 17.7 2.5 21a14 14 0 0 1-6.9 2c-4.7 0-11.6-5.6-17.4-14-2-3-4-5.7-4.3-6-3-2.5-18-35.6-20-43.8-2-8.3-1.9-43.5.1-53.6l2.7-13.9c.7-3.8 1.7-8.8 2.3-11.2 2.8-11.4 3.5-21 3.1-40q-.7-32.6-3-35.7c-.6-.6-1.8-4.3-2.6-8-4.7-20.2-17-49-24.8-58.5q-8.1-9.5-13.8-6.6c-5 2.6-3.8 6.3 7.4 24.5s14.3 27.1 18 52.8c2.4 16.7-1 50.9-6.8 70.8-6.7 22.3-8.8 33.2-8.8 45.3 0 14.6 2 23.2 8.8 39.7 2.5 6 19.2 40.1 19.9 40.7a124.6 124.6 0 0 0 29.3 33.5c3.4 2.8 3.4 3 2.6 12.7-.6 6.3-.3 12.1.7 16.5 1.9 8.3 10.3 25.4 15 30.4s18 25.4 19.6 30c3 8 4.4 28.2 3 40-2.8 22-7 32-16.7 39.3-7.8 5.9-10.7 6.2-28.2 3.2-12.9-2.3-16-1.6-20.5 4.6-3.8 5-5.2 14.8-3 21 1.4 4.2 1.2 4.6-2.7 8-2.2 2-5.6 6.8-7.5 10.6-2.9 6-3.4 8.6-3.4 18 0 6 .6 11.4 1.3 11.9s2 1.9 3 3c.3.6 0 1-2.6 1.3l11.5 4h83.3l3.5-3h-.8l2.7-3.5c1.4-1.9 6.4-7.4 11-12.2a72 72 0 0 0 17.6-24c5.8-11.5 6-12 7.6-24.1q2.1-15.7 5-29.4c1.2-5.7 2.5-13.8 4.5-28 .4-3.2 1.2-6.8 1.8-8.2s1.4-5.9 1.8-10l1.8-15.6a64 64 0 0 0-2.3-30.7 50 50 0 0 1-1.3-27.6c.7-1.8 1.4-8.2 1.4-14.1q0-16.5-5.7-21.3c-1-1-2-2.3-2-3s-1-2.2-2.5-3c-1.3-.9-2.5-2.4-2.5-3.4s-1.2-2.2-2.7-2.6a49 49 0 0 1-8.8-5 97 97 0 0 0-16.2-8.1 115 115 0 0 1-16.8-8.2c-3.6-2.3-9.4-5.6-12.8-7.3-6.8-3.5-10.2-7.4-16.6-18.9-4-7.4-4.1-7.5-4-24.3 0-15.2 1.4-25.9 4.2-33.2 2.5-6.2 5-18.5 6.2-29.4l2-16.8c.5-2.8 1-17.7 1-33.1 0-26.8 0-28.5-2.9-35.4-4-9.8-2.8-10.8 8.3-7.3 4.7 1.5 15 4.4 22.9 6.5s17.7 4.8 21.9 6.1c38.8 11.8 69.2 18.5 89.3 19.5 8 .5 14.5-.2 25.9-2.4a152 152 0 0 0 20.3-5.1A152 152 0 0 0 2385 296c8-6.7 23-22.7 23-24.7 0-.5 1-2.1 2.3-3.4 9-9.9 15.4-42.7 11.6-60.3-3.1-14.3-4.1-18.5-5-20.9-3.5-8.5-8.4-17.8-12.1-22.6-2.3-3-4.3-6.1-4.3-6.8q0-1.1-1.2-1.2-1.2-.2-1.3-2c0-2-27.2-29.8-40-40.6-4.4-3.8-10.6-8.6-13.7-10.6s-6-4.2-6.4-4.8q-.9-1-2.4-.1t-.9-.2c.5-.7-2.7-3.5-7-6.3l-35.2-23.2c-3.4-2.2-7-4.8-7.9-5.6-.9-1-2.1-1.6-2.7-1.6s-1.9-.8-2.8-1.8c-1-1-4.2-3-7.3-4.5-3-1.6-5.8-3.2-6.2-3.7-.3-.5-3.4-2.5-6.8-4.3-8.4-4.4-13-7.3-26-16-6-4-11.3-7.2-11.8-7.2-.7 0-13.9-9.7-15.4-11.3a267.9 267.9 0 0 1-27.4-23c-23.2-22.1-24.7-24.2-31.5-42.6a64 64 0 0 1 1.4-50.9c1.4-2.9 2.5-5.7 2.5-6.2 0-1.8 6.7-8.6 14.6-14.8a88 88 0 0 1 36-15.6c4.2-.5 10.4-1.6 13.8-2.5 16.8-4.2 48.1 0 60.9 8.3 4.6 3 4.6 3 4.7 11.8 0 13 2 21.1 6.4 27.6 6 8.6 11 13.3 19.1 17.7 10 5.3 36 11.4 49 11.5 3.4 0 12.4 1 20 2.2 17.8 2.9 22.2 2.9 22.8-.2.3-1.3 0-2.7-.7-3.1-.7-.5-3.1-4.5-5.4-9a501.4 501.4 0 0 1-21-41.5c-1.5-3.2-3.5-6.9-4.5-8.1l-7.5-9.4c-3.2-4-6.3-7.2-6.9-7.2s-1.9-.8-2.8-1.7c-1-1-6.4-4.1-12.1-7l-10.4-5.2-14 .4c-11.4.3-14.6 0-17.2-1.7a197 197 0 0 0-74.8-13.2m-171.6 33.7-5 2.6a97 97 0 0 0-8.3 4.7c-4.4 3-21.6 13.3-31 18.7-9.1 5.2-38.9 22.9-45.3 27l-21 12.6-21.2 12.7-8.4 4.6c-2 1-6.3 3.6-9.4 5.6s-8.2 5.2-11.3 7l-13.7 8c-4.5 2.8-9 5.4-10 5.9l-11.3 6.5c-5.1 3.1-12.7 7.4-16.8 9.5-11.3 5.8-11 5.4-8.6 8.9 1 1.6 3 3 4 3 1.2 0 18-8.7 37.1-19.3l69.3-38 27.5-14.8c8-4.1 27.6-14.7 43.8-23.5 37.6-20.5 36.6-20 42.6-22.4 4.7-1.9 5-2.3 4.3-5.8-.5-2.1-2.3-6-4-8.7zm261.4 2.5c-5.8.2-7.8 3.9-7.8 12.1 0 6.3.7 8 5.3 15 5.4 7.8 20.8 20.2 25.2 20.2 1.1 0 2.6.6 3.3 1.3s3.8 1.8 6.8 2.4 8.4 1 11.8.9c6.2-.2 6.3-.3 5.9-4-.3-2-1-4.2-1.6-4.9-.6-.6-1.2-2-1.2-2.8a57 57 0 0 0-9.2-18.5 51 51 0 0 0-38.5-21.7m-829 .2c-.7.2-1.8 1.3-2.5 2.4-1.5 2.4-1 3.5 12.2 26 1.8 3 4.7 8.5 6.5 12.2 3.6 7 4.4 7.6 6.9 4.5 1.3-1.5 1.3-2.4.1-4.3-.8-1.3-1.5-3-1.5-3.7s-1-2.4-2.1-3.7-5.9-9.5-10.4-18a69 69 0 0 0-9.2-15.4m472 9.6q-1.3.2-1.5 1.2c0 .7-3.8 3.9-8.4 7.2l-16.8 12.2c-4.6 3.5-11.2 8.3-14.8 10.7-3.5 2.4-7.6 5.4-9.1 6.7a68 68 0 0 1-6 4.3l-12.4 9c-5.2 4-14 10.2-19.5 14s-11.5 8.1-13.4 9.7c-3.8 3.4-16.9 12.8-28 20.2a32 32 0 0 0-7.9 6.2c0 .6 1 2.2 2.2 3.6 3 3.5 4.7 3.2 12.7-2.5 3.8-2.8 9.3-6.5 12-8.4l31.1-20.7c1.3-.8 4.8-3.3 7.7-5.6s5.8-4 6.2-4 6.1-3.7 12.6-8.1c6.5-4.5 13.3-9 15.2-9.9 2-1 4.6-2.9 6-4.2a98 98 0 0 1 10.3-7.3l13.1-8.3 9.7-6c9-5 9.2-5.4 6.4-10.3-4.5-8-5.7-9.7-7.3-9.7m-613.8 18.9q-2.8 0-5.8 1.3-5.5 2.6-1 7.7c1.8 2 2.3 5 2.4 16.3l.4 14.4a58.3 58.3 0 0 1 10.4-1.8c11-1.5 28.4-11.4 28.4-16.3 0-3.5 4-10.4 6.4-11.1a4 4 0 0 0 2.3-3.2c0-3-.2-3-6.2 0a23 23 0 0 1-8.4 2.6 70 70 0 0 1-21.2-7.9q-4-2-7.7-2m-72.6 6.5a8 8 0 0 0-2.8 1c-2.2.9-5.7 1-11.9.1-11-1.5-21 .2-25 4.3a10 10 0 0 1-3.2 2c-2 .7-1.8 10.6.1 12.5.8.8 3.8 1.5 6.8 1.7 3 0 6.5.8 7.8 1.5 1.4.8 4 1.7 5.8 2 1.8.5 5 2.2 7 4 2.1 1.6 5.4 3.9 7.4 4.9 4 2 4.4 2.2 7.1 1.1q2.2-.6.8-3c-.7-1.3-1.3-5.6-1.4-9.6l-.2-11.3c0-2.2.7-5.5 1.6-7.2q2.2-4 0-4m151.6 23.1-2.2 4.6a53 53 0 0 0-3.5 24.4q1.5 7.8 16 9.5a17 17 0 0 1 9.5 4c6 5.5 7 12.4 7.8 52.8l1.3 60c.4 12.7 1 46.2 1.3 74.5s1 52.4 1.3 53.5q1.8 4.3 10-1.3c5.8-3.8 15.5-13 15.5-14.6 0-.6 1-2.6 2.3-4.4 5.7-8.3 5.8-14.5 3.4-157-.5-28-2.5-50.1-4.6-51.5-.6-.3-1-1.9-1-3.4-.1-2.6-3.9-10.8-10-21.5a78 78 0 0 0-20.7-20.2c-2-1.1-5.6-3.4-8-5.2-3-2.3-6-3.3-11.3-3.7zm-242 1.4c-10.1 0-30.4 10.4-42.5 23a73 73 0 0 0-14.5 25.9c-4.3 14.4-4.4 14.8-3.4 42.2A9931 9931 0 0 1 1120 146c.6 30.2 1.1 35.4 6.3 60 3.7 18 4 19 6.8 28.1 2.3 7.7 3.7 13 6.3 23.7 2.3 10 4 14.8 6.5 18.5 1.4 2 3.3 3.4 4.5 3.2 1.8-.4 2-5 1.7-51.7l-.3-65c0-10-1.2-74.3-2-98.7a1058 1058 0 0 1-.4-52.5c-1.1-8.7-1-33.8 0-36a59 59 0 0 1 23-19.6 56 56 0 0 0 8.7-4c1.7-1.5 2.1-23.7.5-25.6q-1.6-1.9-5.1-1.8m910.7 14.8c-3.4-.2-11.2 3.2-31.4 11.2-7.7 3-21 8-29.3 11-8.5 3-23 8.4-32.2 12L1933-3.2 1922.4 1l-13.1 5-18.8 7.1c-4.4 1.8-14.3 5.4-21.8 8-7.6 2.8-15.8 5.9-18.3 7-4.8 2-4.8 2.5-.7 9 .6 1 2 1.3 3.2.8 1-.5 6.8-2.5 12.6-4.5a579.6 579.6 0 0 1 35.6-12.8c19.2-6.5 52.7-18.1 85-29.4 17.3-6 67.6-23.2 87-29.6 22.4-7.5 21.5-6.7 18.3-15.9-1.4-3.8-1.5-6-4.2-6.2m-98.6.3c-1.6 0-8.1 3-41.8 18.7l-23.8 11-22.6 10.8c-8 3.9-14.9 7-15.2 7-.4 0-6 2.5-12.3 5.5l-24 11.2c-12.5 5.8-13.2 6.7-9.2 11.8.7 1 1.9 1.4 2.6 1l28.4-12.4c3.7-1.7 11.5-5 17.4-7.4l17.4-7.5c3.8-1.8 13.4-5.8 21.3-9l18.1-7.6 10.6-4.3c3.8-1.4 8-3.1 9.4-3.8s8.4-3.7 15.6-6.6c12-5 13.1-5.7 12.8-8.5-.5-4.8-3-9.9-4.7-9.9m-628.1 1.3q-2-.2-10 10c-3 3.8-6.3 7.3-7.2 7.9-.8.5-1.2 1.5-.8 2.1.9 1.6 4 1.6 4.9 0 .4-.6 5-3.1 10-5.6 5.2-2.4 9.8-5.3 10.2-6.3.7-1.7-5-8.1-7.1-8.1m-120.3 1.8c-1.3 0-2.3 1.6-3.9 5-2.6 5.3-1.6 7.8 3.4 8.5 2.2.4 6.2 1.5 9 2.6 5.6 2.2 10.6 2.6 10.6 1 0-.6-2.7-3.3-6-6-3.2-2.6-7.4-6.3-9.3-8.3q-2.4-2.7-3.8-2.8m86.6 9.7q-1 0-3 1.4-3.6 2.3-2.6 4.3c.5 1.2 1.2 5.2 1.5 9 .4 5.4 0 7.8-2 11-2.5 3.8-3 4-9.8 4-4 0-8 .6-9 1.2s-3 .6-5-.1a28 28 0 0 0-7.9-1.3c-7-.1-8.9-3.8-8.2-16.2.7-11.7-.6-12.6-7.6-5a46 46 0 0 0-10.7 28c0 6.8.4 7.6 4.6 11.6q4.5 4.4 8.3 4.3c4 0 6.4-2.2 4-3.7-1.2-.7-1.2-1.5 0-3.6 2.3-3.6 4.4-3.4 8.7 1 2.7 2.6 3.7 5 3.9 8.4 1 24.7-2.9 30.2-22 31.4-7.8.4-9.4.1-13.2-2.5-6.4-4.3-9.2-13.5-7.8-25.6 1.4-11.5-.3-15.4-6.5-15.4q-9.6 0-9.5 15.2c0 19.8 12.8 36.3 30 39 6.2.9 14.6-.9 23.3-5q14.6-6.9 23.3-2.4a71 71 0 0 0 25.5 5.7c10.9 0 17.5-2.2 21.6-7.2 4-4.9 4.5-6.6 8.4-31.9q1.6-11.1-11.7-7.6c-3.8 1-4.3 3.2-2.5 12 4.7 22.5-6.9 30.8-31.3 22.7-13.5-4.4-14.7-5.9-14.5-17.2 0-6.4.8-10.1 2.3-12.5 2.3-3.5 9.4-8 9.4-6q-.1 1.2-1.9 2c-2.2.8-2.5 4.4-.3 4.6 9 .7 15-1.6 20.7-8.2 5.8-6.6 7.4-15 4.3-23.2-.4-1-.9-3-1.1-4.4a36 36 0 0 0-7.8-14.3c-2-2.4-3-3.4-4-3.5m-97 10.3h-.6q-1 0-2 .8c-.9.8-1.7 2.1-1.7 3a29 29 0 0 1-2.5 6.8c-1.5 2.9-2.3 5.6-2 6 .4.3 4 .9 8 1.2 4 .4 7.4.9 7.7 1.1s4 .5 8.4.5c9.6 0 10.2-1.5 3-7.6-9.4-8-14.8-11.6-18.2-11.8m153.8 1c-6.4.1-29 3.6-31.5 5.1-3.6 2.2.5 4.8 9.7 6.3l11.9 2.4c4 1 8 1.7 8.7 1.5s1.3-2.4 1.3-5.1.5-6 1-7.1c.7-1.3.9-2.6.6-2.9q-.3-.2-1.7-.2m31.9 5.1a19 19 0 0 0-12.3 4.6l-2.9 2.4.3 29.1a5548.8 5548.8 0 0 1 2 127.2c.3 48.5.8 88.8 1.1 89.7.7 2.1 7 2 12.1-.2 2.3-1 6.7-2.8 10-4 11.6-4 10.9 0 10.3-55.8-1.5-139.8-1.8-159.3-2.6-166.4-1-9.8-8.7-23.5-14.3-25.8q-1.7-.7-3.7-.8M1182-25.2c-3.3 0-11.5 5.8-11.5 8.2q-.1 1.5-1.3 2c-2 .7-1.5 71 .6 124.2.9 20.8 1.6 156.5 1 193.7-.4 25.8.5 32.5 6.7 49.4a76 76 0 0 0 8 16.9 34 34 0 0 0 3.8 6.2c2 3 3.7 6 3.7 6.4s1 2 2.1 3.2c2.5 2.8 2.9 2.8 6 .4 2.2-1.6 2.3-3.3 2-20.2-.6-29.7-1.2-71.8-2-135.4-.3-32.6-.9-72-1.2-87.5a1056 1056 0 0 1-.3-40l-.7-48.1c-.7-50.6-1.3-56.1-8.8-71.9-3.1-6.5-4.1-7.4-8-7.5m834.1 30.5c-5.4.2-78 20-94.3 25.7-3.4 1.2-43.9 12.4-58.1 16-8 2.1-8.8 2.6-8.5 5.4.2 1.7.6 3.7 1 4.6q.5 1.5 1.7 1.6c2 0 14.3-2.6 17.6-3.7a368 368 0 0 1 30-8.2l29.4-6.9c9-2 18-4.3 20-5s10.8-2.9 19.4-4.9 21-5 27.5-6.4a60 60 0 0 0 13.9-4.5c2-1.7 2.6-11.9.8-13.7zm-630.8 12.2h-.8c-2.7.4-3.5 1.3-4.2 4.8l-1.7 8.1a41 41 0 0 1-9.1 17.4c-4 3.8-16.3 10-24 12-6.7 1.8-21.4.9-30.6-2a40 40 0 0 0-26.4.9c-16.7 7.2-32.9 8.7-40.7 3.8a85 85 0 0 0-8.1-4.4c-7.4-3.4-16.6-21.2-16.6-32.3q.2-5.2-7.2-3.7c-2.7.5-2.9 1-3 13.2a5402 5402 0 0 0 2 168.3c.3 12.7.7 64.2.8 114.3 0 53.8.6 92.6 1.3 94.4a22 22 0 0 0 3.9 6c5.2 5.5 7 3.7 18-18.4l10.3-20.5-.6-108.8c-.5-91.5-.7-150.8-.6-158 0-2.5 3.9-1.7 6.3 1.3a40 40 0 0 0 20.9 10.5c3.3.4 9 0 12.8-1a172 172 0 0 1 25.7-1.6c20-.2 24.7-1.3 33.3-8.3q3.3-2.7 5.9-1.9c2.5.8 2.6 1.7 2.7 15.5 0 8 .2 18.8.4 24s.5 27 .6 48.7.7 40.1 1.2 41c.8 1.3 2 1.2 6-.2a89 89 0 0 0 25.2-13.3c1.2-1.5 1.4-14.7.8-63.7a6802 6802 0 0 1-.6-126.3c.3-17.1-.1-20-4-19.8m722.6 4.6c-4.4.2-20 2.9-33 5.9l-13.7 3a436 436 0 0 0-30.7 6.8c-10 1.8-58.6 11.9-91.2 18.8a4601 4601 0 0 1-69.7 14c-8 1-10 2.8-6.6 6.4l2.4 2.5 11.6-2.3c17.6-3.7 19.7-4 70.4-12.5 12.4-2 26.7-4.6 31.9-5.5 12.1-2.3 50.2-8.9 69.4-12l28.7-4.8 23.4-4c11.8-1.7 13.2-3 11-10.2-.8-2.9-2-5.6-2.7-6zm-614.6 4.1h-.3q-.8 0-1.2.6c-.6.7-.6 9.7.1 22.4.7 11.7 1.3 32.6 1.3 46.5.1 23.6.3 25.3 2.4 26 4.7 1.5 13.4 18.9 15.2 30 3 19.3 2.7 23.4-2.4 39.4a76 76 0 0 1-14.3 23.1c-11.1 9.7-21.7 16-36.7 22-7.1 2.8-24.9 8-45 13-26.3 6.7-53 15.4-63.7 20.8-9.2 4.6-19.4 11-22 13.6l-5.8 5.2c-9.7 8-24 27-30 40.3a100 100 0 0 0-7.9 27.6c0 6.5 3.8 22.2 7 29.4a53 53 0 0 0 40 28.6l7.7 1.2c2.3.2 20.7-5 22.4-6.3.8-.6 4.7-2.7 8.7-4.7 17.1-8.2 39.3-37.5 44.8-59a88 88 0 0 0 2.6-42.3c-1.3-6.3-5.8-13.8-8.2-13.8-2.8 0-6.2 7.2-7.4 15.5a151 151 0 0 1-8.2 32c-3.3 8-11.6 23.8-13 25a51 51 0 0 1-27 20.7 43 43 0 0 1-26.5-1.3 46 46 0 0 1-18.8-20.5 74 74 0 0 1-.4-27.3l3.4-7c2.3-4.8 23.2-27 25.3-27 .7 0 2.8-1.4 4.7-3s7-4.8 11-7c4.2-2.3 8.1-4.6 8.8-5.1 2.5-1.8 20.2-7.2 28.8-8.6 4.8-.9 10.4-2 12.5-2.6a91 91 0 0 1 10-2c3.4-.5 7.5-1.3 9-2 1.6-.5 8-1.8 14.4-2.8 26.9-4.4 56-15.2 70.3-26.2 15.2-11.7 26-28.4 27.6-42.8l1.2-9.9c3.2-23.2.6-42.4-7.4-54.3-4.9-7.3-7.7-9.5-14.2-11.4q-9.2-2.4-1.7-4.6c5-1.8 10-6.3 13-12.2 2.5-4.5 2.7-6.9 2.7-26.8 0-27.8-.6-29.2-17-41.9-9.6-7.5-13.7-10.3-15.8-10.5m53.5 41.2c-3.1.2-3.5 4.8-3.1 19 .2 9.1.7 17.5 1.2 18.6.8 2 5.3 3.5 17.5 5.8 10.4 2 14.2 1.8 14.8-.7.4-1.2 1-8.4 1.5-16 1-16.2 1.4-15.6-14.5-21-5.1-1.7-11-3.9-13.2-4.7q-2.7-1-4.2-1m481.2 9.5c-2.9 0-8.9.5-15.6 1.2-27.7 3-77.2 8-78.3 8q-1 .1-1 1.7c0 1 1.9 2 4.6 2.5s7 1.3 9.7 2c2.8.6 17.6.9 33.8.5 35.7-.7 45.6-1.4 47.7-3.2 1.7-1.4 2.3-11.7.7-12.7zm-724 11.3a49 49 0 0 1 23.2 7.4c3 1.6 4.4 1.7 9.7.3q6.2-1.6 7.5-.3 1.5 1.4-6.2 4.7c-6.5 2.9-8.9 3.3-19 3.1-20-.3-24 0-31.7 2-11.7 3-18.8 2.1-20-2.6-1-4.2-.3-5 5.5-5.8a42 42 0 0 0 10.5-3.3 47 47 0 0 1 20.4-5.5m790.3 22h-22.2c-23.5.2-43.1.7-43.6 1.2-1.2 1.3 1.7 4.3 4.9 5l7.8 2.2c2.7.7 19.9 2.1 38 3l36.2 1.8c3.9.2 7.6-3.1 7.6-6.8q.1-2.7-4-4.7c-2.6-1.2-7.2-1.7-24.7-1.7m-754.8 21q-1 0-2.2.9c-1.3.6-7.6 1.6-14 2.1-9.1.7-12.3 1.5-14.2 3.3-1.3 1.3-2 3-1.6 3.6.7 1.2 1.6 60 1.7 110.3 0 19.6.3 23.4 1.9 23.4a6 6 0 0 0 3.4-1.6l14.8-11.5 13.6-10.2c.3-.2.4-26.7.2-58.8-.2-52.4-.3-61.6-3.6-61.5m-74.2 6.6q-.8 0-1 .2c-1 .6-1.3 30.4-1.1 102.2 0 55.8.4 102 .7 102.4 1.2 2.2 3.6.7 5.2-3a107 107 0 0 1 25-38.5l6.8-6.8-1-12c-1.2-14-1.6-32.5-2-94-.3-45.4-.4-46-2.9-46.5-13-2.3-26-4-29.7-4m622.7 19.5c-2.6 0-5.2.7-6 2.2-1.1 2.2-3.2 68-2.8 87 .4 13.4 3 28 7.6 40.1 2.6 7.3 13 24.7 15.1 25.5q1 .5 1.1 2c0 2.6 11.5 12.5 22 19a127 127 0 0 0 55.5 20.4 80 80 0 0 0 40-3.3c6.8-1.6 15.4-9 27.6-23.7a64 64 0 0 0 10.2-26.7c1.4-8.6 1.4-13 .2-23.6-.9-7.1-2.4-15.5-3.4-18.7a217 217 0 0 1-6.5-24.3c-1-6-3.6-7.1-17.4-7.1-13.2 0-14.6 1.2-10.7 9.6 1.5 3.2 4 7.6 5.6 9.7 12.8 17 12.7 54.6 0 72.3-6.6 9-14.4 12.5-29.8 13.1-31.8 1.4-65.7-10.8-81.4-29.2-7-8.4-16.9-27-16.9-32 0-1.7-.5-3.6-1.1-4.2-2-2-3-40.2-1.3-50 .8-4.8 1.8-16.4 2-25.7.6-13.7.3-18.2-1.4-23a36 36 0 0 0-3.4-7.8c-.9-1-2.8-1.6-4.8-1.6m-1016 89q-.8.8-2.7 1.4c-2 .8-3.8 1.8-3.8 2.3s-2 1.3-4.3 1.8c-2.4.4-6.3 2.6-8.7 4.7a96 96 0 0 1-7.3 6c-6.2 4.3-7.3 23.2-2 34.1 2 4.2 2.3 7.9 2.4 23.8 0 10.3.5 20.8 1.2 23.2 1.7 6.1 8 11.8 16.6 15l7.2 2.7-3.6 4c-8.1 9.4-12 23-10 36.5 2.3 17.6 16.9 33.5 36.7 40 3.1 1.1 9.6 1.6 17.5 1.4 11-.3 13.5-.8 20.8-4.2 20.1-9.5 30.7-26 29.5-46.5-.3-5.2-.8-10.4-1-11.4-.4-1.4 1.7-2.4 8.1-4q8.7-2.2 11.6-5.4c2.5-2.6 4.2-3.2 10.7-3.3 15.4-.4 39.1 0 42.8.6 16.9 2.7 32.3 6.7 38.4 9.7 9.8 5 16 7 28.9 9.2 6 1 11.6 2.3 12.3 2.7s5.3 1.3 10.2 1.8c5 .6 12.9 1.6 17.7 2.4l13.7 2c7.5 1 18.3 2.9 23 4.2s7.6.6 7.6-2.1c0-2.3-5.8-10.3-7.5-10.3-1.4 0-10.5-6-23.9-15.9l-10.7-7.9h-13c-21.4-.2-64.2-8-79.8-14.5a97 97 0 0 0-36.8-8.6c-11.8-1-20-4.6-22.7-10.3-2.2-4.7-1.9-11.6.8-14.8 2-2.4 4.2-2.3 20.4 1.2a678 678 0 0 0 40.7 7.7c5.2.9 14.8 2.3 21.3 3s13.6 1.6 15.6 2l13.8 1.2c5.5.4 17.2 2.4 26.1 4.5 19.6 4.5 19.9 4.4 18-7.6-.7-4.5-1.5-8.4-1.8-8.8-1-1-16.9-2.6-38-3.6a325 325 0 0 1-35-3.3c-17-1.6-19-2-21-3-3-1.5-19-4.8-31.5-6.4-13.7-1.8-22.5-5.4-22.5-9.3 0-4.2 5-5.5 16.3-4.2 5.2.6 10.2 1.4 11.2 1.8s7.3 2 13.8 3.6 15 3.9 18.7 5.1c5.7 1.8 12.6 2.3 38 2.6 24.6.3 32.2.8 36 2.3 2.7 1 5.1 2 5.4 2 1.2 0 .6-8.7-.6-9.5-.7-.4-1.3-2.2-1.3-4 0-6.8-1.6-7.4-21.2-8.2-10-.5-21.4-1.4-25.4-2.2a929 929 0 0 0-29.4-4.4 1013 1013 0 0 1-46.8-7.5c-5.3-1-12.8-1.8-16.6-1.8-7.6 0-10-.9-17.3-6.7-4.9-3.8-9.4-6.5-21.6-12.8a19 19 0 0 1-5.7-4zM880 260c3.6.1 9.3 4.1 11.3 8.3 1.8 3.7 1.8 5 .4 8.8-.9 2.5-2.2 5-3 5.5-5.4 3.6-10.3-2-11.4-13-.7-7.4-.5-8.6 1.3-9.4zm581 24.4h-.4q-.8 0-1.7.7c-1.4 1.2-2.2 4.8-2.8 14.1a65 65 0 0 1-5.3 25.6l-3.6 10a206 206 0 0 1-30.5 55.6c-13.6 16.4-43 40.7-49.3 40.7-2.5 0-5.7 3.5-5.7 6.3 0 1.3 1.5 3.7 3.3 5.2 1.7 1.6 4.9 5.2 7 8.2 3.3 4.8 3.6 6.2 3.3 14.4-.6 20.1-10.8 27.9-26.9 20.4-7-3.3-12.8-9.8-13.5-15.3-.7-5.1-5-18.1-8-23.8q-8.4-16-29-17.6c-8.4-.6-10.2-.3-16.9 2.8-7.1 3.2-20.4 12.7-20.5 14.7a17 17 0 0 1-3.2 4.5c-1.8 2-5.5 8-8.3 13.4s-5.8 11.1-6.8 12.6c-3.8 6.1-6.3 11.3-8 16.7-1 3-2 6.2-2.5 6.8-.5.7-2.7 7.2-4.9 14.4a390 390 0 0 1-15 44.2 145 145 0 0 0-8.2 19.6c-.8 3.2-1.5 5-4.9 12.7-1.1 2.5-2 4.9-2 5.3 0 .5-1.2 3.5-2.6 6.7l-4.6 10.3a729 729 0 0 1-20.3 42.5c-1.6 1.4-3.6 7.6-3 9.2.7 1.9 4.6 1.4 8.2-1A180 180 0 0 0 1205 616a677 677 0 0 1 9.6-22.2c1-2.3 2-4 2.4-4 .5 0 1.2-1.7 1.6-3.7s2.1-6.6 3.9-10.3c1.7-3.6 3.1-7.7 3.1-9.2s.6-3.2 1.2-3.8c.7-.7 4.6-9.6 8.8-19.8a306 306 0 0 1 8.6-20c.6-.8 2.3-4.8 3.9-8.9 2.6-6.9 4.3-10.7 10.8-24.9 1.2-2.6 5.1-8 8.7-11.9a36 36 0 0 1 24.3-12c5-.7 6-.4 9.5 2.7q6.7 6.2 6.7 16.8c0 4.8-2 16-3.7 20.5a55 55 0 0 0-3.8 14c0 1.3-.5 3-1 3.6-.7.7-1.9 3.4-2.7 6-.9 2.7-3.2 8-5.2 11.7-2 3.8-3.6 7.5-3.6 8.2s-2.5 6.7-5.7 13.3l-8.8 18.2c-1.6 3.5-4.3 8-6 10-2.5 3.2-3.2 3.5-5 2-2.2-1.8-2.8-12-.7-13.2.7-.4 1.2-2 1.2-3.4 0-2.5 1.7-8.6 3.9-14.1a113 113 0 0 0 3.6-23.3c0-3.5-.6-4.7-3.2-5.9-5.6-2.5-10 2.4-20.6 23L1226 595c-1 1.8-2.6 4-3.6 4.8-1 .9-1.9 2.2-1.9 3a65 65 0 0 1-8.7 17.6c-1.9 2.8-4.8 7.6-6.4 10.7q-22.5 42-47 59.4a61 61 0 0 1-8.5 5.6c-.5 0-2.3 1-4 2.5q-5.6 4.5-13 .5c-3-1.5-5.8-1.8-12.2-1.2-26.3 2.6-26.3 2.6-28.2 5-5 6.6-1.4 8.4 15.8 8 7.7-.3 21.4-.3 30.4 0 20.3.5 24.8-.3 31.9-6 6.7-5.3 15-14.2 15-16.1 0-.8 1.5-4 3.4-7.4a144 144 0 0 0 9-19c0-.8 1.2-4 2.7-7.3l3.6-8.4c7-16.2 12.7-27 15.2-28.2 1.6-.7 5.6-5.5 9-10.6 6.3-9.8 9.5-11.6 12-6.8.9 1.5 1 4.3.6 6.6-1 4.8-5 13-6.6 13.6a192 192 0 0 0-18.7 28.3c-1.3 1.9-3 5.9-4 9a126 126 0 0 1-5 15q-2.8 8.1-5.2 12.8c-.6 1.2-1 3.3-1 4.7s-.6 3.5-1.2 4.7l-4 8.2a56 56 0 0 1-26.2 24.3c-6 3-17.6 6.3-36.2 10.2l-9 2c-3 .7-3.5.5-3.5-1.7 0-5.6-2.7-8.6-12-13.1a42 42 0 0 0-13.6-4.6c-3.8 0-4.4-.4-4.4-3.1 0-2.3-1.3-4-4.9-6.4-6.7-4.4-9.1-3.4-12.7 5.5l-4.5 10.2q-3.3 6.4.6 6c9.8-.8 22.5 5 25.6 11.8.8 2 2 3.5 2.5 3.5 1.6 0 1 5.7-.8 9.3a41 41 0 0 1-4.8 6.8c-1.7 2-3.8 5.5-4.6 8l-1.3 4h97.5l.4-.3h-1l4.7-3.3c2.2-1.5 4.6-2.8 5.8-3.2l14.4-9.8c3.8-3.6 8.2-8.5 11.9-13.3 3-3.9 7-8.6 8.5-10.5a109 109 0 0 0 13.7-20.9 90 90 0 0 0 3.9-20.7q.1-3.2 3.6-5c11-5.7 20.7-15 22.2-21.6.5-2.1 1-8.5 1.2-14.2.3-11.2 1-12.6 11.4-23.5 7.5-7.8 8.4-9.3 11.6-18.7 1.6-4.8 4-11.1 5.3-14s2.3-5.8 2.3-6.4c0-2.8 6.8-14 8.4-14q2-.1 1 2.8c-1.9 6.3-2 8-.3 10.1.9 1.3 2.4 2 3.5 1.5 2.2-.9 8-9 12.2-16.9l6.6-12.2c2-3.7 3.6-7.3 3.6-8 0-1.2 4.6-10.6 8.7-18.1 3-5.7 7.3-15.1 8-18.2.7-2.8 2.7-4.3 10.3-7.8q9.4-4.3 10.2-6.9a5 5 0 0 1 3-3.2c1.3-.4 2.3-1.6 2.3-2.5q.1-1.6 1.1-1.8c.6 0 2.7-3.5 4.6-7.7a70 70 0 0 0 4.6-34.3l-1.1-6.8 16.1-16.5c26.5-27.2 34.7-37.6 43.2-54.7 1.2-2.4 2.5-4.7 2.9-5 .4-.4 1.5-2.5 2.5-4.7s2.2-4 2.7-4q.9-.2 1-2.3c0-1.3.4-2.8 1-3.5.7-.6 2.4-4.8 3.8-9.3 8.7-26.2 9.3-34 4.3-51.6-2.2-7.6-4-11.1-6.1-11.3M955.7 300h.6c3.2.2 4.2 3.5 4.2 11.8 0 6.9.7 10.3 2.5 13.6 4.6 8 2.3 22.5-4 25.8-7.3 4-8 9.4-1 7.4 6.5-1.9 21.2 1.7 18.5 4.5a76 76 0 0 1-11.2 3.7c-10.7 3-12.9 3.3-19 2-7.2-1.6-7.2-8.3 0-9.2l3-.4-2.5-5c-2.4-4.8-2.5-5.3-.6-11a69 69 0 0 0 1.7-21.3c-.2-16.7.7-20.3 5.8-21.6zm-60.2 28.7c1.2 0 2.1.4 3.6 1.2 5 2.8 5 10 .2 17.8l-3.8 6-8.9-.3-8.8-.2.5-6.7c.7-7.8 4.2-12.4 12.5-16.2q3.2-1.5 4.7-1.6m1004 30.3c-12.1-.1-31.6 2.8-45.8 7l-20.7 6.3c-7.2 2.2-14.2 4.4-15.6 5s-4.7 1.6-7.5 2.3l-19.4 5.2c-24.5 6.8-72.9 17.4-88 19.3l-13.8 1.9c-4.8.7-16 1.8-25 2.5s-23 2-31.3 2.8a645 645 0 0 1-75 2.7 250 250 0 0 1-48.7-3.3 1529 1529 0 0 0-42.5-6.8 36 36 0 0 0-35.2 11.7c-4.6 5.1-7.1 10-6.1 11.7 1.8 2.9 30.7 9.2 52.5 11.4 7.6.8 15.2 1.5 16.9 1.8 13.7 1.6 22.2 1.9 51.2 1.9a707 707 0 0 0 155-17c6.6-1.7 15.9-4 20.7-5a331 331 0 0 0 36.2-10c4.8-1.6 13.8-4.4 20-6.2a229 229 0 0 0 17.1-5.7c3.2-1.3 7-2.4 8.2-2.4 1.3 0 3.4-.8 4.8-1.7a361 361 0 0 1 52.4-17.7c10.3-3.1 31.9-5.8 38.7-4.9 5.8.8 11 3 13.3 5.8 4 4.6 7.4 12.8 8.6 21.2 2.1 14.7 2.6 15.8 11.6 25.2 4.1 4.2 6.4 8.4 9.2 16.7a37 37 0 0 0 6 10.5c9 10.4 10.6 13 11.4 19.4.6 4.7.3 7.4-1.2 10.2-1 2.2-2 4.7-2 5.7 0 1.9-3.1 5.3-26.7 28.3-16 15.6-19.6 20.7-22.5 31.3-1.7 6.2-3 10-5.2 16.4-1 2.5-4.3 4-5.7 2.7-1.4-1.4-1.4-6.7 0-19.5 1.7-16.1 3.7-19 17.5-26.5 6.3-3.4 12.4-7.2 13.6-8.3a70 70 0 0 0 11.5-13.6c0-.6 1.2-3.2 2.6-5.7a46 46 0 0 0-1.3-34.8c0-2.2-4.5-2.6-7.5-.8-1.4 1-1.8 3.2-1.6 8.7a53 53 0 0 1-17.1 40l-5.4 5.4-10.4-.5a39 39 0 0 1-19.5-5.1c-11-5.4-16-10-20.2-18.8-6.8-14-8.3-21.4-5.7-28l2.5-6 2.6-7.2c.8-2.6 2-4.7 2.5-4.7s1-1.2 1-2.6c0-1.6 3.3-5.9 8.4-10.9l8.3-8.1-6 .8a36 36 0 0 0-25.6 19.1c-7.3 12.9-9 27.4-5.3 45.6a67 67 0 0 0 21.4 39.7c10.4 10.4 13.8 16.2 13.8 23.2 0 3.7-6.2 11.5-11.5 14.4-16.3 9-26.6 19-31.7 31.1-2 5-2.3 17.7-.5 24a73 73 0 0 1-.2 28.4c-.9 2.6-2.6 6.5-3.8 8.8a21 21 0 0 0-2.3 5.2 29 29 0 0 1-3.7 6.8 38 38 0 0 0-3.8 6.2c0 1.5-4.5 6.6-15.7 17.8-16.7 16.8-25.2 19.4-46.1 14.3a90 90 0 0 0-13.4-2.5c-10.1 0-17.3 7.4-17.3 18.2 0 8.3 2.2 11.4 16 23 4 3.2 6.5 8.8 6.5 14.1 0 11.5-13.6 21.8-21.7 16.5-3.8-2.5-4.4-6.8-1-6.8s9.9-7 10.7-11.6c1.7-9-2.6-14.6-11.4-14.7-5.2 0-12.5 6.5-16.7 14.7a37 37 0 0 1-4 6.6c-.4.4-1.3 3.4-2 6.7-2.2 12-4.1 9.4-4.2-5.7 0-9.8.4-12.4 2.8-16.6s2.5-5.3 1.2-7.8c-2-3.8-8.7-7.9-12.7-7.9a9 9 0 0 0-5.4 2.6c-4.6 5.1-7.1 18-4.5 23.4.6 1.1 1.9 4.6 3.3 8.6l7.8 12.2h124.1l12-10.4 4.6-4.7c16.4-16.3 27.1-28.6 27.1-31 0-1.4 11-17.9 16-24.1 2.3-3 6.3-9.4 8.9-14.4l6-11.6c.8-1.3 2.4-4.7 3.6-7.5s6.7-9.4 12.6-15.1c5.7-5.6 10.4-11.1 10.4-12.2q.1-1.8 1-2c.6 0 2.3-3.6 3.8-8 2.9-8.3 3.5-16.8 1.6-20.5a66 66 0 0 1-5.3-19.7 71 71 0 0 1 4.5-23c1-3 2-7.1 2-9.2 0-5.7 2.4-11.7 9-22.4 3.3-5.3 6-10.1 6-10.7 0-1.2 12.2-10.7 16.8-13.2a81 81 0 0 0 18.8-17.7l8.3-9.8 3.3-3.9 5 7.9c7.2 11 11 15.8 19.6 24a273 273 0 0 0 34.4 28.5c24.4 18.4 23 17.4 56.6 36.6 23.3 13.3 33.6 22.2 39.7 34.4l5 9.2c4.4 6.7 5.7 19 3 28.1-2.5 8.6-4 9.3-17.4 8.1-22.1-2-30.3 0-40.6 9.6a52 52 0 0 0-12.4 17c-6.4 13.4-7.2 17.3-4.4 22.1 2 3.3 3 3.8 7.6 3.8 10.3 0 14.1-4 14.1-14.9 0-4.5 3.7-11.8 7.4-14.8 1.1-.9 4.3-2.8 7-4.3 4.8-2.5 5.7-2.6 18.1-1.2 21 2.2 27.1-.2 33.5-13.4a70 70 0 0 0 5.3-15.8c1.5-9.1 1.6-27.1.2-28.8-.6-.6-1.8-3.5-2.7-6.4s-2.7-6.3-4-7.4-2.3-2.6-2.3-3.1-3-4-6.5-7.8c-11.8-12.3-17.8-19.8-19.3-24.1-.9-2.4-2.2-11.5-3-20.2s-1.9-17.6-2.7-19.7a81 81 0 0 0-12.9-15 113 113 0 0 1-14.5-16.7l-12.1-21.7c-3-5.3-6.2-10.5-7.1-11.4-1-1-3.6-5.1-5.8-9.1a69 69 0 0 0-14.5-19.7c-1.9-1.4-6-2.4-11.3-2.8a49 49 0 0 1-34.6-15.2c-2.7-3.1-6.6-7.1-8.6-8.9-4-3.7-10.7-5.5-13-3.6-2 1.8-2 7.3.4 10.3 3 4 2.2 11-2.2 19.4-4.3 8.4-10.9 15-14.8 15s-9.6-6.3-12.3-14c-4-10.8-3.6-14.7 1.7-18.3 2.4-1.6 4.4-3.4 4.4-4 0-.5 1-2 2.2-3.1 3.7-3.8 2.8-13.9-1.9-20.6a63 63 0 0 0-15.3-16.2l-8.1-6.6c-3.4-3-14.4-6.1-39.7-11.1q-2.8-.6-7-.6M894.9 371c8 0 9 7 1.3 9-7 1.9-15.7 13.2-15.7 20.5 0 1.8 1 5.3 2.1 7.7 1.5 3.2 1.8 5 .8 6.5q-3 4.7-7.9-.5c-2.4-2.6-3.1-4.9-3.5-11.7-.6-10.7 1.9-16 11.7-25 5.5-5 8-6.4 11.2-6.4m1050 15q1.6 0 3.7 1.6c2.1 1.4 4.5 3.5 5.4 4.5 2 2.5 2 11.7 0 13.7-2.6 2.7-11.7 1.3-14.3-2-2-2.7-2-5.8 0-11.4q2-6.2 4.7-6.4zm-683.6 3c-1.3.4-2.1 1.8-5.2 9-1.1 2.7-3 6.6-4 8.7l-5.5 10.9c-2 3.9-4.2 7.4-4.8 7.9-.7.4-1.3 1.8-1.3 3q0 2.1-.9 2.8c-.5.2-2.2 3-3.8 6l-6.5 12.5a238 238 0 0 0-14.8 33c-.6.4-1.8 3.4-2.7 6.7s-2 6.5-2.5 7.2-1.5 3.8-2.4 6.9c-1 3-2.1 6.7-2.7 8.1-.5 1.4-1.7 4.7-2.5 7.5l-3.9 11.6c-1.2 3.6-2.3 8-2.3 9.6 0 1.7-.5 3.4-1.2 3.8s-1.3 2.4-1.3 4.4-.5 4-1.2 4.3c-.7.5-1.3 2-1.3 3.6s-1 5.2-2.5 8a29 29 0 0 0-2.5 6.5c0 .8-.5 2.3-1.1 3.5l-5.3 12.2a99 99 0 0 1-5 11.2c-.6.6-1 2-1 2.9s-1.2 4-2.6 6.8a32 32 0 0 0-2.5 6.3c0 .6-1 3.4-2.5 6.2a27 27 0 0 0-2.5 6.8c0 5-12.8 26.1-22.4 36.7-2.8 3-5 6.3-5 7 0 3-3.3 3.4-26.2 3.6-37.1.3-48.1 3.7-64.1 20q-15.8 16.2-17.8 29.9c-.7 5-2 7.2-6.4 11.7-9.7 10-12.5 20-9 32v.6l2.1 5.3.3.4c.6.7 1 1.7 1 2.2h-.2v.3h30.2V771q0-6.4-3-12.6c-1.8-3.4-3.2-7-3.2-8s2.3-3.8 5.1-6.4 6-6.2 6.9-8c1.5-3 1.4-3.7-1-6.9-1.6-2-3.3-4-4-4.4-.6-.4 0-2.4 1.6-4.5 1.4-2.1 2.6-4.8 2.6-6.1 0-2.5 4-9.6 7.2-12.7 3-3 11.2-7 22.2-11 8-2.8 12-3.5 19.4-3.3 11 .3 28.6-1.8 35.2-4.1 2.5-1 5.7-1.4 7.1-1 3.3.9 15.2-11.2 17.6-18 1-2.5 2.1-5 2.6-5.3a99 99 0 0 0 9.8-22.2A192 192 0 0 0 1183 610a28 28 0 0 0 2.6-6.8c0-.9 1.1-3 2.4-4.7 1.4-1.7 2.5-3.9 2.5-4.7s.6-2.6 1.2-3.8c2.7-5.2 6-13.9 7.5-19.7.9-3.4 2.5-8.5 3.5-11.2 1.1-2.8 2.4-7.5 3-10.6.4-3.1 2.8-11.3 5.2-18.2s5-14.7 5.7-17.5a207 207 0 0 1 15.7-43c10.5-20.2 17.2-30.5 25.2-38.8 12-12.6 12-12.4 11.1-18.7-1-8.1-6-23.9-7.3-23.4m559.5 40c-3.9 0-8.3 1-10.4 3.2a41 41 0 0 1-4.7 3.8c-1.5 1-2.7 2.6-2.7 3.5q0 1.5-1 1.6c-2.4 0-11 24.6-12.9 36.8l-2.2 13.2c-.9 4.4 1.2 27.6 3.6 40l2.4 14.3c1.5 10.3 2.5 14 5.3 21.3 1.9 5 2.5 10.3 2.9 25 .4 17.4 1.8 32.2 3.9 43.4 1.1 6 .1 9.6-4.1 15-2 2.4-4.9 6.2-6.6 8.5-6.1 8.2-11.4 11.2-25.3 14.8-5.2 1.3-6.4 1.1-12.6-1.8a55 55 0 0 0-15-3.9c-6.9-.6-9-.3-14.8 2.4-7 3.2-25.2 20.2-29.4 27.3-1.2 2-2.6 3.7-3.2 3.7-1.3 0-4.7 8.5-4.7 12 0 5 3.7 11 8.5 13.9 6.2 3.6 8.4 3.5 10.1-.7 1.2-2.7 1-4.6-.4-8.8-1.2-3.3-1.5-6.1-.8-7.4l2.7-6c2.7-5.9 14.4-16.8 18.4-17q8.6-.2 14.6 1.5l10.5 3c18 5.3 30 1 48-17 6.4-6.4 12.4-13.3 13.4-15.4s2.1-4 2.5-4.4c1-1 3.4-6.6 5-12 1.6-5.2.9-11-2.7-22.7-1.5-5-1.5-29 0-33 1.3-3.3 0-10.5-4.7-27.3a206 206 0 0 1-3.8-15.6c-.6-3.4-1.4-7.1-1.7-8.1s-1-5-1.4-8.6a125 125 0 0 1 .5-55.2c1-6.3 1.7-8.2 5.3-16.2 5.2-11.5 6.7-14 10.7-17.8 2.2-2.2 4-5 4-6 0-2.2-3.3-3.2-7.2-3.2m201 16q1.6 0 3.3.2c8.1.8 21.4 7.2 27.8 13.4 5.1 5 12.6 14.3 12.7 15.8 0 .6 1.1 2.5 2.5 4.2a177 177 0 0 1 15 22.6q0 1 1 1.1c.7 0 2.4 2.4 3.9 5.3a87 87 0 0 0 15 22.4c6 6.5 7.3 8.4 10 14.2 3 7 3.2 11 .6 13.7-2.4 2.3-7 2.4-13 .2a341 341 0 0 1-35.6-19c-2-1.2-8.6-5.7-14.4-10-13.3-10-11.7-8.7-21.2-16.8-19.6-16.8-27.1-27.6-30-43-1.9-10.2-1.9-10.1 3-15.6a26 26 0 0 1 19.4-8.7m176.9 78.7c3 .1 5.8 1 10 2.5 5.8 2.2 7.7 3.7 10.7 8.4 4.6 7.2 5 17.2 1 29-2.8 8.6-2.7 14 .2 38.7a159 159 0 0 1-4 63.8c-4.4 17.9-15 41.3-21 46.6a60 60 0 0 1-22.2 10.9c-5 0-19.7 3.8-26 6.8-11.8 5.5-13.5 5.3-14.9-1.8-3-16-2.7-16.6 9.3-15.5 6.8.6 9.7.3 15.5-1.9 17.5-6.5 25.9-13.4 32.4-26.6s8-20.2 10.9-47.3c1.3-12.7 4.5-28.1 6.5-31.3.9-1.4.3-3.7-2-8.3-3.8-7.1-6.3-9.7-10.8-11-11-3.3-23.7-12.1-23.7-16.3a29 29 0 0 0-2.6-6.5c-7.2-15.1 2.2-33.4 19.9-38.3 4.7-1.3 7.8-2 10.8-1.9m-325.5 64c6.3 0 12 3 18 8.9 8.2 8.2 10.1 12.4 11.5 24.8.5 4.8 0 6.9-2.6 11.4-4 6.8-6.4 8.3-19.7 12.5-10.7 3.3-14.9 6-14.9 9.8 0 2.6-5 14.6-7.7 18.7a16 16 0 0 0-2.3 4c0 .5-1.1 2.1-2.6 3.6-1.4 1.6-5.3 6.7-8.6 11.5a171 171 0 0 1-36 34.7c-3.2 1.9-9 4.3-12.8 5.4-22.3 6.6-21.1 5.8-21.2 14.3 0 3.1-.4 6.9-.8 8.4q-1 4.5-5.8 3.2c-1.7-.4-2.2-1.8-2.2-6.4 0-7-2-10.6-12.4-21.3-4.2-4.4-7.5-8.9-7.3-10 .5-2.7 7.1-3.2 17.2-1.4a29 29 0 0 0 16.2-.6 81 81 0 0 0 13.1-4.7c6-3 19.3-13 22.2-16.6l6.1-7c2.2-2.3 6-6.7 8.6-9.8 2.4-3.1 5.4-6.6 6.5-7.9 1.6-1.8 5.6-9.3 11.2-21a36 36 0 0 0 .6-21.1c-2.8-8-2.5-19 .6-25 4.1-8.2 12.3-15.8 18.7-17.6q3.4-.8 6.4-.8m-630.5 56a9 9 0 0 1 8 4.2c3.9 6.8 2.8 15-2.7 21a14 14 0 0 1-7.3 3c-4.4.6-5.5.3-8.8-3q-6.5-6.8-2-16.1c2.8-5.7 8-9 12.8-9m-19.6 45c2 0 4.3.9 5.6 3 2 2.8 1.9 3.5-.7 10.8-1.6 4.4-4 9.9-5.3 12.3l-5 8.8c-7.7 13.5-22.7 29.9-31.6 34.3-2.7 1.3-5.7 3-6.6 3.7-4 2.9-16.4 7.1-22.7 7.6a72 72 0 0 0-8.7 1.2c-2 .6-8.2-2.3-11-5a6 6 0 0 1-1.6-4 6 6 0 0 0-1.3-3.7c-2.5-2.5-.1-3.7 8.7-4.6a97 97 0 0 0 16.6-3.3 65 65 0 0 1 10.4-2.5c5.5-.2 23.5-11.3 30.4-18.6 4.7-5 12.7-19 12.7-22.3 0-.6 1.2-3.4 2.5-6.3 1.4-2.8 2.5-6 2.5-6.8 0-3 2.5-4.6 5.1-4.6m632 19c1.2 1.2-5 12.8-11 20.5-18.3 23.7-22 28.1-29.8 34.2s-7.9 6.2-11.3 4.5c-6.9-3.4-7.5-13.2-1.3-19.1 1.9-1.8 6.5-4.4 10.2-6a91 91 0 0 0 31.6-23.1 96 96 0 0 1 11.6-11m226 14.5c-3.4 0-6.8.9-8.4 2.4-.7.7-2 4-2.7 7.2-1.3 5-1.2 6.8 1.2 13.8 1.4 4.3 4.8 11 7.4 14.9q8.6 12 8.8 1.8c0-2.4-.4-6.2-1-8.5-1.4-5.9 3.4-20.4 7.3-22 2.8-1 2.4-7-.5-7-1.3 0-4.2-.7-6.4-1.7q-2.5-1-5.7-1m133.7 0q.7 0 .7.7a66 66 0 0 1-19.1 24l-7 5.1c-2.6 2.6-10.3 5.4-12.6 4.7-1.2-.4-3.2-1.8-4.4-3.2-4-4.4-18.1-2.7-33.1 4.1-7.5 3.4-9.8 5.7-12.4 12l-1.7 4H2107l1.1-3.1c1.3-3.3 4.5-8.6 7.2-12 .9-1 2.3-3 3.3-4.3 1.5-2 2.2-2.2 5.1-.9 4.2 2 8 1 17.5-4.4 9.2-5.3 14.3-6.1 25-4.1l8 1.5 10.9-5.3c6-2.9 14.5-8.3 19.1-12q8.2-6.5 10.7-6.8m-1145.6 16.4c-3.3 0-8.7 6.8-8.7 11 0 1.3-.4 2.7-.9 3.2-2.2 2.3-3.8 11-2.7 15.1 1.1 3.9 1.7 4.3 6.5 4.8 10.9 1 12.5.8 16-1.3 2-1.2 3.6-2.8 3.6-3.6 0-2.2 5.3-11.7 6.5-11.7 2 0 1-3.2-2.4-7-4.3-5-14-10.5-18-10.5" transform="matrix(.85884 0 0 .85884 1920.4 1734.1)"/>
    <path fill="#000" fill-rule="evenodd" stroke="#000" stroke-linecap="butt" stroke-linejoin="miter" stroke-opacity="1" stroke-width="1.43916154px" d="M856.7 250.1c-18.6.2-19 17.4-22.6 28.8-18.4-13.4-16.4-31.8-.2-53.8l130.8-1.5c18.6-.1 19-17.3 22.6-28.7 18.4 13.4 16.4 31.7.2 53.8z" transform="matrix(.85884 0 0 .85884 1920.4 1734.1)"/>
    <path fill="#fdd116" fill-opacity="1" fill-rule="evenodd" stroke="#000" stroke-dasharray="none" stroke-linecap="round" stroke-linejoin="round" stroke-miterlimit="4" stroke-opacity="1" stroke-width="12.95245361" d="M874.5 231.9c9-536.4 362.5-716.5 447.8-753a1730 1730 0 0 0-43.7 33.6C948.6-225 938.8 19.9 941.4 234.8z" transform="matrix(.85884 0 0 .85884 1920.4 1734.1)"/>
    <path fill="#d7eef4" fill-rule="evenodd" stroke="#000" stroke-dasharray="none" stroke-linecap="butt" stroke-linejoin="round" stroke-miterlimit="4" stroke-opacity="1" stroke-width="15" d="M846.4 844.8h156.8l-126.3-60.3h323.4L1074 844.8h309.6l-126.3-60.3h323.4l-126.3 60.3h310L1638 784.5h323.3l-126.3 60.3h309.6l-126.3-60.3h323.4l-126.3 60.3h156.8l-1.2 45.8H846.4z" transform="matrix(.85884 0 0 .85884 1920.4 1734.1)"/>
    <path fill="#fff" stroke-width="11.4285717" d="M2904.7 2641c77.8-4.5 88.6-15.8 40-42.2-30.2-16.4-28.1-17 54.3-17s84.5.6 54.3 17c-58.5 31.7-35 39.2 122.8 39.2 160.4 0 187.8-9.4 117.2-40.1-36-15.6-34.2-16.1 54.2-15.7 89.6.5 90.7.8 53.8 17-64.5 28.2-30.6 38.8 124 38.8 151.7 0 174.6-7.7 116.5-39.2-30.2-16.4-28-17 54.3-17 82.4 0 84.5.6 54.3 17-58.5 31.7-35 39.2 122.9 39.2 160.4 0 187.8-9.4 117.1-40.1-36-15.7-34.4-16.2 54.3-16.1h91.4l-40 21.5c-47 25.2-36.4 32.1 57.2 38 34.5 2.1-248.3 3.8-628.6 3.8s-659.3-2-620-4.1" transform="scale(.9375)"/>
    <path fill="#fff" stroke-width="1.01015258" d="M2831.4 2644.5v-13.6h67.9c61.7.1 67.6.3 64.4 1.7-5 2.2-20.8 5-35.4 6.3-28.3 2.6-28.3 2.6-4.5 3.4 105.3 3.6 1179.6 3.4 1222.8-.2l8.6-.7-11.7-.8c-29.9-2-56.9-5.5-64.5-8.3-3.1-1.1 6.6-1.3 65.8-1.4h69.5v5.3c0 2.9-.3 9-.7 13.6l-.7 8.3H2831.4zM3024.4 2622.6c-.2-5.4 6.8-11.2 28.7-23.6 18.4-10.4 20.2-12.2 15.4-14.7-4.7-2.6-78.4-3.8-117.4-2-22 1-24 1.5-23.6 4.5.3 2 5.9 5.7 25.3 16.8 6.8 3.9 16.4 11 15.7 11.7-.3.3-19.5-8.6-42.8-19.8l-42.3-20.2h232.3l-4.5 2.4c-2.5 1.3-22 10.7-43.5 20.9-21.4 10.1-39.4 18.9-40.1 19.4s-1.7 2.4-2.2 4.1q-1.2 4.5-1 .5" transform="scale(.9375)"/>
    <path fill="#fff" stroke-width="1.01015258" d="M3096.3 2636.8c-21.8-.8-48.8-3.1-55.8-4.9-2-.5 55-.8 135.3-.8 118 0 137.8.2 131.6 1.3-20 3.7-67.8 5.5-137.1 5.3-28.4 0-61.6-.4-74-.9M3322.6 2625.9c2.3-6.1 2.1-6.2-45.4-29l-44.4-21.1 57.3-.3h115.6l58.3.3-43.3 20.6a1135 1135 0 0 0-45.1 22.1c-1 .9-1.8 2.9-1.8 4.6 0 2.5-.2 2.8-1.5 1.7-.8-.7-1.5-2.5-1.5-4 0-5.8 10.8-12.8 38.5-25.2 12.6-5.6 16.6-8.6 14-10.2-.8-.5-4-1.3-7-1.7-7.2-1-138-1-141.7 0-6.7 1.8-2.8 4.7 20 15 25.3 11.4 34.8 17.7 34.8 23q0 3-2.7 5-6.1 4.7-4.1-.8M3465.7 2637.2c-30.1-.9-73-4.3-74.6-5.9-.2-.2 59.7-.4 133.3-.4 81.8 0 132.6.5 130.7 1-5.7 1.8-31.3 4-58 5-23.4.9-106.6 1.1-131.4.3M3723.3 2617.6c0-1.8 11.4-9.6 27-18.6 17-9.8 19.2-11.8 16.1-14.1-3.4-2.5-14.7-3-70.3-3-55.7 0-67 .5-70.4 3-3 2.3-1 4.1 15.8 13.8 14.7 8.5 26.9 16.7 26 17.6-.2.2-19.6-8.8-43.1-20l-42.8-20.5 58.3-.3h115.6l57.2.3-44.7 21.4a727 727 0 0 1-44.7 20.4M3793.4 2636.9c-22-.9-49-3.3-56-5-2-.5 55-.9 135.3-1 76.4 0 138.6.2 138.4.4-.8.8-24.2 3.5-40.8 4.6-20.5 1.5-147.2 2.1-177 1M4020 2625.4c.3-1.8 0-4.3-.5-5.4-.7-1.2-17.3-9.7-45.3-23l-44.1-21.2 57.7-.3h115.6l57.8.3-41.8 20c-23 11-42 19.7-42.2 19.5-.7-.7 12-8.2 34.5-20.3a610 610 0 0 0 23.2-12.8c1.2-1-116.6-1-142.9.1-20.2.9-23.2 1.3-23.2 3.6 0 2 4.6 4.5 21.7 12.1 23.4 10.5 36.9 19.3 36.9 24.2 0 1.4-5.6 6.6-7.1 6.6-.5 0-.6-1.5-.3-3.4" transform="scale(.9375)"/>
    <path fill="#fff" stroke-width="1.01015258" d="M2831 2644.5v-13.7h68.8c74.8.2 72.7.3 74.2-5.4 1.5-6.1.4-6.9-46-28.8-23.9-11.4-43.5-20.8-43.5-21s52-.3 115.4-.3c74.2 0 114.9.4 114 1l-44.2 21.3c-38 18.2-42.8 20.8-43.9 23.4-1.5 3.8-.5 5.7 4.4 8.1 3.4 1.7 11.4 1.8 142.9 1.8h142.5c6.6 0 9.7-7.5 5-12a727 727 0 0 0-44.7-22.5l-42.8-20.7c-.2-.2 51.6-.4 115.1-.4 63.6 0 115.1.4 114.6.8s-15.5 7.8-33.3 16.2c-49.8 23.7-53.3 25.6-55 28.7-2.1 3.8-.6 5.9 5.8 8 4.8 1.7 15.3 1.8 143.6 1.9h138.5l4-2.2q7-4 3.7-9.2c-1-1.5-11.8-7.2-30.1-15.9-15.8-7.4-35.5-16.9-43.8-20.9l-15.2-7.3h115.6c69 0 115.3.3 114.7.8-1.2 1.1-84.1 40.5-85.3 40.5-1.8 0-4 3.3-4 6q-.1 4.6 6.5 7.1c4.3 1.7 285.3 1.5 289-.1 2-1 2.4-1.9 2.4-5.6 0-3.4-.5-4.6-2.4-5.9-1.3-.8-18.9-9.5-39.1-19.2l-42.8-20.6-6-3H4045c67.8 0 115.2.3 114.7.8-1.2 1-82 39.5-83.1 39.5-1.7 0-7.3 6.8-7.3 8.8 0 2.5 3.6 6.3 6 6.4h70l68.5-.1v12c0 6.7-.3 12.8-.6 13.7-.6 1.5-62.5 1.6-691.5 1.6H2831z" transform="scale(.9375)"/>
    <path fill="#fff" fill-opacity="1" stroke="#000" stroke-opacity="1" stroke-width="1.01015258" d="M2875.4 2057.1c-10.3-.5-18.9-1-19.2-1.4-1.7-1.7 3.8-77.6 8-109.5 27.5-210 122.9-381.9 274.8-495.7 21.6-16.2 69-48 70.2-46.8.3.2-14.7 12-21 17.3-42.8 35.9-93.4 86.4-125.6 125.2-77.6 93.7-125.5 195.2-145.4 308a958 958 0 0 0-12.6 168.5v35.6l-5.3-.2c-3 0-13.7-.5-24-1z" transform="scale(.9375)"/>
  </svg>
</svg>
