<svg xmlns="http://www.w3.org/2000/svg" height="480" width="640"><defs><clipPath id="a"><rect fill-opacity=".67" height="512" width="682.67" x="-85.311"/></clipPath></defs><g clip-path="url(#a)" fill-rule="evenodd" transform="matrix(.938 0 0 .938 79.98 0)"><rect height="512" width="896" x="-191.96" fill="#fff"/><rect height="168.16" width="896" y="343.84" x="-191.96" fill="#da0000"/><g transform="matrix(1.52 0 0 1.52 -70.36 36.806)" fill="#fff"><rect height="2.222" width="32.289" y="206.72" x="32.067"/><rect height="2.158" width="2.222" y="217.83" x="36.881"/><rect transform="rotate(90)" height="6.453" width="2.222" y="-64.44" x="217.76"/><rect height="13.266" width="2.222" y="206.72" x="67.911"/><rect transform="rotate(90)" height="12.229" width="2.222" y="-80.765" x="217.76"/><rect height="7.416" width="2.222" y="212.57" x="57.987"/><rect transform="translate(11.035)" height="13.266" width="2.222" y="206.72" x="67.911"/><rect height="13.266" width="2.222" y="206.72" x="73.391"/><rect transform="matrix(0 1 -1 0 .009 0)" height="11.785" width="2.222" y="-43.903" x="212"/><rect transform="rotate(90)" height="11.785" width="2.222" y="-69.772" x="212"/><rect height="7.416" width="2.222" y="212.57" x="57.987"/><rect height="7.416" width="2.222" y="212.57" x="57.987"/><rect height="7.416" width="2.222" y="212.57" x="57.987"/><rect transform="translate(-.172)" height="7.416" width="2.222" y="212.57" x="32.299"/><rect height="7.416" width="2.222" y="212.57" x="51.082"/><rect height="7.416" width="2.222" y="212.57" x="41.691"/><rect transform="rotate(90)" height="9.962" width="2.222" y="-52.641" x="217.76"/><rect transform="rotate(90)" height="6.316" width="2.222" y="-53.304" x="212"/></g><g transform="matrix(1.52 0 0 1.52 -150.96 36.806)" fill="#fff"><rect height="2.222" width="32.289" y="206.72" x="32.067"/><rect height="2.158" width="2.222" y="217.83" x="36.881"/><rect transform="rotate(90)" height="6.453" width="2.222" y="-64.44" x="217.76"/><rect height="13.266" width="2.222" y="206.72" x="67.911"/><rect transform="rotate(90)" height="12.229" width="2.222" y="-80.765" x="217.76"/><rect height="7.416" width="2.222" y="212.57" x="57.987"/><rect transform="translate(11.035)" height="13.266" width="2.222" y="206.72" x="67.911"/><rect height="13.266" width="2.222" y="206.72" x="73.391"/><rect transform="matrix(0 1 -1 0 .009 0)" height="11.785" width="2.222" y="-43.903" x="212"/><rect transform="rotate(90)" height="11.785" width="2.222" y="-69.772" x="212"/><rect height="7.416" width="2.222" y="212.57" x="57.987"/><rect height="7.416" width="2.222" y="212.57" x="57.987"/><rect height="7.416" width="2.222" y="212.57" x="57.987"/><rect transform="translate(-.172)" height="7.416" width="2.222" y="212.57" x="32.299"/><rect height="7.416" width="2.222" y="212.57" x="51.082"/><rect height="7.416" width="2.222" y="212.57" x="41.691"/><rect transform="rotate(90)" height="9.962" width="2.222" y="-52.641" x="217.76"/><rect transform="rotate(90)" height="6.316" width="2.222" y="-53.304" x="212"/></g><g transform="matrix(1.52 0 0 1.52 9.565 36.806)" fill="#fff"><rect height="2.222" width="32.289" y="206.72" x="32.067"/><rect height="2.158" width="2.222" y="217.83" x="36.881"/><rect transform="rotate(90)" height="6.453" width="2.222" y="-64.44" x="217.76"/><rect height="13.266" width="2.222" y="206.72" x="67.911"/><rect transform="rotate(90)" height="12.229" width="2.222" y="-80.765" x="217.76"/><rect height="7.416" width="2.222" y="212.57" x="57.987"/><rect transform="translate(11.035)" height="13.266" width="2.222" y="206.72" x="67.911"/><rect height="13.266" width="2.222" y="206.72" x="73.391"/><rect transform="matrix(0 1 -1 0 .009 0)" height="11.785" width="2.222" y="-43.903" x="212"/><rect transform="rotate(90)" height="11.785" width="2.222" y="-69.772" x="212"/><rect height="7.416" width="2.222" y="212.57" x="57.987"/><rect height="7.416" width="2.222" y="212.57" x="57.987"/><rect height="7.416" width="2.222" y="212.57" x="57.987"/><rect transform="translate(-.172)" height="7.416" width="2.222" y="212.57" x="32.299"/><rect height="7.416" width="2.222" y="212.57" x="51.082"/><rect height="7.416" width="2.222" y="212.57" x="41.691"/><rect transform="rotate(90)" height="9.962" width="2.222" y="-52.641" x="217.76"/><rect transform="rotate(90)" height="6.316" width="2.222" y="-53.304" x="212"/></g><g transform="matrix(1.52 0 0 1.52 573.95 36.806)" fill="#fff"><rect height="2.222" width="32.289" y="206.72" x="32.067"/><rect height="2.158" width="2.222" y="217.83" x="36.881"/><rect transform="rotate(90)" height="6.453" width="2.222" y="-64.44" x="217.76"/><rect height="13.266" width="2.222" y="206.72" x="67.911"/><rect transform="rotate(90)" height="12.229" width="2.222" y="-80.765" x="217.76"/><rect height="7.416" width="2.222" y="212.57" x="57.987"/><rect transform="translate(11.035)" height="13.266" width="2.222" y="206.72" x="67.911"/><rect height="13.266" width="2.222" y="206.72" x="73.391"/><rect transform="matrix(0 1 -1 0 .009 0)" height="11.785" width="2.222" y="-43.903" x="212"/><rect transform="rotate(90)" height="11.785" width="2.222" y="-69.772" x="212"/><rect height="7.416" width="2.222" y="212.57" x="57.987"/><rect height="7.416" width="2.222" y="212.57" x="57.987"/><rect height="7.416" width="2.222" y="212.57" x="57.987"/><rect transform="translate(-.172)" height="7.416" width="2.222" y="212.57" x="32.299"/><rect height="7.416" width="2.222" y="212.57" x="51.082"/><rect height="7.416" width="2.222" y="212.57" x="41.691"/><rect transform="rotate(90)" height="9.962" width="2.222" y="-52.641" x="217.76"/><rect transform="rotate(90)" height="6.316" width="2.222" y="-53.304" x="212"/></g><g transform="matrix(1.52 0 0 1.52 90.01 36.806)" fill="#fff"><rect height="2.222" width="32.289" y="206.72" x="32.067"/><rect height="2.158" width="2.222" y="217.83" x="36.881"/><rect transform="rotate(90)" height="6.453" width="2.222" y="-64.44" x="217.76"/><rect height="13.266" width="2.222" y="206.72" x="67.911"/><rect transform="rotate(90)" height="12.229" width="2.222" y="-80.765" x="217.76"/><rect height="7.416" width="2.222" y="212.57" x="57.987"/><rect transform="translate(11.035)" height="13.266" width="2.222" y="206.72" x="67.911"/><rect height="13.266" width="2.222" y="206.72" x="73.391"/><rect transform="matrix(0 1 -1 0 .009 0)" height="11.785" width="2.222" y="-43.903" x="212"/><rect transform="rotate(90)" height="11.785" width="2.222" y="-69.772" x="212"/><rect height="7.416" width="2.222" y="212.57" x="57.987"/><rect height="7.416" width="2.222" y="212.57" x="57.987"/><rect height="7.416" width="2.222" y="212.57" x="57.987"/><rect transform="translate(-.172)" height="7.416" width="2.222" y="212.57" x="32.299"/><rect height="7.416" width="2.222" y="212.57" x="51.082"/><rect height="7.416" width="2.222" y="212.57" x="41.691"/><rect transform="rotate(90)" height="9.962" width="2.222" y="-52.641" x="217.76"/><rect transform="rotate(90)" height="6.316" width="2.222" y="-53.304" x="212"/></g><g transform="matrix(1.52 0 0 1.52 170.75 36.806)" fill="#fff"><rect height="2.222" width="32.289" y="206.72" x="32.067"/><rect height="2.158" width="2.222" y="217.83" x="36.881"/><rect transform="rotate(90)" height="6.453" width="2.222" y="-64.44" x="217.76"/><rect height="13.266" width="2.222" y="206.72" x="67.911"/><rect transform="rotate(90)" height="12.229" width="2.222" y="-80.765" x="217.76"/><rect height="7.416" width="2.222" y="212.57" x="57.987"/><rect transform="translate(11.035)" height="13.266" width="2.222" y="206.72" x="67.911"/><rect height="13.266" width="2.222" y="206.72" x="73.391"/><rect transform="matrix(0 1 -1 0 .009 0)" height="11.785" width="2.222" y="-43.903" x="212"/><rect transform="rotate(90)" height="11.785" width="2.222" y="-69.772" x="212"/><rect height="7.416" width="2.222" y="212.57" x="57.987"/><rect height="7.416" width="2.222" y="212.57" x="57.987"/><rect height="7.416" width="2.222" y="212.57" x="57.987"/><rect transform="translate(-.172)" height="7.416" width="2.222" y="212.57" x="32.299"/><rect height="7.416" width="2.222" y="212.57" x="51.082"/><rect height="7.416" width="2.222" y="212.57" x="41.691"/><rect transform="rotate(90)" height="9.962" width="2.222" y="-52.641" x="217.76"/><rect transform="rotate(90)" height="6.316" width="2.222" y="-53.304" x="212"/></g><rect height="168.16" width="896" x="-191.96" fill="#239f40"/><g transform="matrix(1.52 0 0 1.52 251.96 36.806)" fill="#fff"><rect height="2.222" width="32.289" y="206.72" x="32.067"/><rect height="2.158" width="2.222" y="217.83" x="36.881"/><rect transform="rotate(90)" height="6.453" width="2.222" y="-64.44" x="217.76"/><rect height="13.266" width="2.222" y="206.72" x="67.911"/><rect transform="rotate(90)" height="12.229" width="2.222" y="-80.765" x="217.76"/><rect height="7.416" width="2.222" y="212.57" x="57.987"/><rect transform="translate(11.035)" height="13.266" width="2.222" y="206.72" x="67.911"/><rect height="13.266" width="2.222" y="206.72" x="73.391"/><rect transform="matrix(0 1 -1 0 .009 0)" height="11.785" width="2.222" y="-43.903" x="212"/><rect transform="rotate(90)" height="11.785" width="2.222" y="-69.772" x="212"/><rect height="7.416" width="2.222" y="212.57" x="57.987"/><rect height="7.416" width="2.222" y="212.57" x="57.987"/><rect height="7.416" width="2.222" y="212.57" x="57.987"/><rect transform="translate(-.172)" height="7.416" width="2.222" y="212.57" x="32.299"/><rect height="7.416" width="2.222" y="212.57" x="51.082"/><rect height="7.416" width="2.222" y="212.57" x="41.691"/><rect transform="rotate(90)" height="9.962" width="2.222" y="-52.641" x="217.76"/><rect transform="rotate(90)" height="6.316" width="2.222" y="-53.304" x="212"/></g><g transform="matrix(1.52 0 0 1.52 332.69 36.806)" fill="#fff"><rect height="2.222" width="32.289" y="206.72" x="32.067"/><rect height="2.158" width="2.222" y="217.83" x="36.881"/><rect transform="rotate(90)" height="6.453" width="2.222" y="-64.44" x="217.76"/><rect height="13.266" width="2.222" y="206.72" x="67.911"/><rect transform="rotate(90)" height="12.229" width="2.222" y="-80.765" x="217.76"/><rect height="7.416" width="2.222" y="212.57" x="57.987"/><rect transform="translate(11.035)" height="13.266" width="2.222" y="206.72" x="67.911"/><rect height="13.266" width="2.222" y="206.72" x="73.391"/><rect transform="matrix(0 1 -1 0 .009 0)" height="11.785" width="2.222" y="-43.903" x="212"/><rect transform="rotate(90)" height="11.785" width="2.222" y="-69.772" x="212"/><rect height="7.416" width="2.222" y="212.57" x="57.987"/><rect height="7.416" width="2.222" y="212.57" x="57.987"/><rect height="7.416" width="2.222" y="212.57" x="57.987"/><rect transform="translate(-.172)" height="7.416" width="2.222" y="212.57" x="32.299"/><rect height="7.416" width="2.222" y="212.57" x="51.082"/><rect height="7.416" width="2.222" y="212.57" x="41.691"/><rect transform="rotate(90)" height="9.962" width="2.222" y="-52.641" x="217.76"/><rect transform="rotate(90)" height="6.316" width="2.222" y="-53.304" x="212"/></g><g transform="matrix(1.52 0 0 1.52 413.43 36.806)" fill="#fff"><rect height="2.222" width="32.289" y="206.72" x="32.067"/><rect height="2.158" width="2.222" y="217.83" x="36.881"/><rect transform="rotate(90)" height="6.453" width="2.222" y="-64.44" x="217.76"/><rect height="13.266" width="2.222" y="206.72" x="67.911"/><rect transform="rotate(90)" height="12.229" width="2.222" y="-80.765" x="217.76"/><rect height="7.416" width="2.222" y="212.57" x="57.987"/><rect transform="translate(11.035)" height="13.266" width="2.222" y="206.72" x="67.911"/><rect height="13.266" width="2.222" y="206.72" x="73.391"/><rect transform="matrix(0 1 -1 0 .009 0)" height="11.785" width="2.222" y="-43.903" x="212"/><rect transform="rotate(90)" height="11.785" width="2.222" y="-69.772" x="212"/><rect height="7.416" width="2.222" y="212.57" x="57.987"/><rect height="7.416" width="2.222" y="212.57" x="57.987"/><rect height="7.416" width="2.222" y="212.57" x="57.987"/><rect transform="translate(-.172)" height="7.416" width="2.222" y="212.57" x="32.299"/><rect height="7.416" width="2.222" y="212.57" x="51.082"/><rect height="7.416" width="2.222" y="212.57" x="41.691"/><rect transform="rotate(90)" height="9.962" width="2.222" y="-52.641" x="217.76"/><rect transform="rotate(90)" height="6.316" width="2.222" y="-53.304" x="212"/></g><g transform="matrix(1.52 0 0 1.52 494.64 36.806)" fill="#fff"><rect height="2.222" width="32.289" y="206.72" x="32.067"/><rect height="2.158" width="2.222" y="217.83" x="36.881"/><rect transform="rotate(90)" height="6.453" width="2.222" y="-64.44" x="217.76"/><rect height="13.266" width="2.222" y="206.72" x="67.911"/><rect transform="rotate(90)" height="12.229" width="2.222" y="-80.765" x="217.76"/><rect height="7.416" width="2.222" y="212.57" x="57.987"/><rect transform="translate(11.035)" height="13.266" width="2.222" y="206.72" x="67.911"/><rect height="13.266" width="2.222" y="206.72" x="73.391"/><rect transform="matrix(0 1 -1 0 .009 0)" height="11.785" width="2.222" y="-43.903" x="212"/><rect transform="rotate(90)" height="11.785" width="2.222" y="-69.772" x="212"/><rect height="7.416" width="2.222" y="212.57" x="57.987"/><rect height="7.416" width="2.222" y="212.57" x="57.987"/><rect height="7.416" width="2.222" y="212.57" x="57.987"/><rect transform="translate(-.172)" height="7.416" width="2.222" y="212.57" x="32.299"/><rect height="7.416" width="2.222" y="212.57" x="51.082"/><rect height="7.416" width="2.222" y="212.57" x="41.691"/><rect transform="rotate(90)" height="9.962" width="2.222" y="-52.641" x="217.76"/><rect transform="rotate(90)" height="6.316" width="2.222" y="-53.304" x="212"/></g><g transform="matrix(1.52 0 0 1.52 -232.52 36.806)" fill="#fff"><rect height="2.222" width="32.289" y="206.72" x="32.067"/><rect height="2.158" width="2.222" y="217.83" x="36.881"/><rect transform="rotate(90)" height="6.453" width="2.222" y="-64.44" x="217.76"/><rect height="13.266" width="2.222" y="206.72" x="67.911"/><rect transform="rotate(90)" height="12.229" width="2.222" y="-80.765" x="217.76"/><rect height="7.416" width="2.222" y="212.57" x="57.987"/><rect transform="translate(11.035)" height="13.266" width="2.222" y="206.72" x="67.911"/><rect height="13.266" width="2.222" y="206.72" x="73.391"/><rect transform="matrix(0 1 -1 0 .009 0)" height="11.785" width="2.222" y="-43.903" x="212"/><rect transform="rotate(90)" height="11.785" width="2.222" y="-69.772" x="212"/><rect height="7.416" width="2.222" y="212.57" x="57.987"/><rect height="7.416" width="2.222" y="212.57" x="57.987"/><rect height="7.416" width="2.222" y="212.57" x="57.987"/><rect transform="translate(-.172)" height="7.416" width="2.222" y="212.57" x="32.299"/><rect height="7.416" width="2.222" y="212.57" x="51.082"/><rect height="7.416" width="2.222" y="212.57" x="41.691"/><rect transform="rotate(90)" height="9.962" width="2.222" y="-52.641" x="217.76"/><rect transform="rotate(90)" height="6.316" width="2.222" y="-53.304" x="212"/></g><g transform="matrix(1.52 0 0 1.52 -70.36 -170.71)" fill="#fff"><rect height="2.222" width="32.289" y="206.72" x="32.067"/><rect height="2.158" width="2.222" y="217.83" x="36.881"/><rect transform="rotate(90)" height="6.453" width="2.222" y="-64.44" x="217.76"/><rect height="13.266" width="2.222" y="206.72" x="67.911"/><rect transform="rotate(90)" height="12.229" width="2.222" y="-80.765" x="217.76"/><rect height="7.416" width="2.222" y="212.57" x="57.987"/><rect transform="translate(11.035)" height="13.266" width="2.222" y="206.72" x="67.911"/><rect height="13.266" width="2.222" y="206.72" x="73.391"/><rect transform="matrix(0 1 -1 0 .009 0)" height="11.785" width="2.222" y="-43.903" x="212"/><rect transform="rotate(90)" height="11.785" width="2.222" y="-69.772" x="212"/><rect height="7.416" width="2.222" y="212.57" x="57.987"/><rect height="7.416" width="2.222" y="212.57" x="57.987"/><rect height="7.416" width="2.222" y="212.57" x="57.987"/><rect transform="translate(-.172)" height="7.416" width="2.222" y="212.57" x="32.299"/><rect height="7.416" width="2.222" y="212.57" x="51.082"/><rect height="7.416" width="2.222" y="212.57" x="41.691"/><rect transform="rotate(90)" height="9.962" width="2.222" y="-52.641" x="217.76"/><rect transform="rotate(90)" height="6.316" width="2.222" y="-53.304" x="212"/></g><g transform="matrix(1.52 0 0 1.52 -150.96 -170.71)" fill="#fff"><rect height="2.222" width="32.289" y="206.72" x="32.067"/><rect height="2.158" width="2.222" y="217.83" x="36.881"/><rect transform="rotate(90)" height="6.453" width="2.222" y="-64.44" x="217.76"/><rect height="13.266" width="2.222" y="206.72" x="67.911"/><rect transform="rotate(90)" height="12.229" width="2.222" y="-80.765" x="217.76"/><rect height="7.416" width="2.222" y="212.57" x="57.987"/><rect transform="translate(11.035)" height="13.266" width="2.222" y="206.72" x="67.911"/><rect height="13.266" width="2.222" y="206.72" x="73.391"/><rect transform="matrix(0 1 -1 0 .009 0)" height="11.785" width="2.222" y="-43.903" x="212"/><rect transform="rotate(90)" height="11.785" width="2.222" y="-69.772" x="212"/><rect height="7.416" width="2.222" y="212.57" x="57.987"/><rect height="7.416" width="2.222" y="212.57" x="57.987"/><rect height="7.416" width="2.222" y="212.57" x="57.987"/><rect transform="translate(-.172)" height="7.416" width="2.222" y="212.57" x="32.299"/><rect height="7.416" width="2.222" y="212.57" x="51.082"/><rect height="7.416" width="2.222" y="212.57" x="41.691"/><rect transform="rotate(90)" height="9.962" width="2.222" y="-52.641" x="217.76"/><rect transform="rotate(90)" height="6.316" width="2.222" y="-53.304" x="212"/></g><g transform="matrix(1.52 0 0 1.52 9.565 -170.71)" fill="#fff"><rect height="2.222" width="32.289" y="206.72" x="32.067"/><rect height="2.158" width="2.222" y="217.83" x="36.881"/><rect transform="rotate(90)" height="6.453" width="2.222" y="-64.44" x="217.76"/><rect height="13.266" width="2.222" y="206.72" x="67.911"/><rect transform="rotate(90)" height="12.229" width="2.222" y="-80.765" x="217.76"/><rect height="7.416" width="2.222" y="212.57" x="57.987"/><rect transform="translate(11.035)" height="13.266" width="2.222" y="206.72" x="67.911"/><rect height="13.266" width="2.222" y="206.72" x="73.391"/><rect transform="matrix(0 1 -1 0 .009 0)" height="11.785" width="2.222" y="-43.903" x="212"/><rect transform="rotate(90)" height="11.785" width="2.222" y="-69.772" x="212"/><rect height="7.416" width="2.222" y="212.57" x="57.987"/><rect height="7.416" width="2.222" y="212.57" x="57.987"/><rect height="7.416" width="2.222" y="212.57" x="57.987"/><rect transform="translate(-.172)" height="7.416" width="2.222" y="212.57" x="32.299"/><rect height="7.416" width="2.222" y="212.57" x="51.082"/><rect height="7.416" width="2.222" y="212.57" x="41.691"/><rect transform="rotate(90)" height="9.962" width="2.222" y="-52.641" x="217.76"/><rect transform="rotate(90)" height="6.316" width="2.222" y="-53.304" x="212"/></g><g transform="matrix(1.52 0 0 1.52 573.95 -170.71)" fill="#fff"><rect height="2.222" width="32.289" y="206.72" x="32.067"/><rect height="2.158" width="2.222" y="217.83" x="36.881"/><rect transform="rotate(90)" height="6.453" width="2.222" y="-64.44" x="217.76"/><rect height="13.266" width="2.222" y="206.72" x="67.911"/><rect transform="rotate(90)" height="12.229" width="2.222" y="-80.765" x="217.76"/><rect height="7.416" width="2.222" y="212.57" x="57.987"/><rect transform="translate(11.035)" height="13.266" width="2.222" y="206.72" x="67.911"/><rect height="13.266" width="2.222" y="206.72" x="73.391"/><rect transform="matrix(0 1 -1 0 .009 0)" height="11.785" width="2.222" y="-43.903" x="212"/><rect transform="rotate(90)" height="11.785" width="2.222" y="-69.772" x="212"/><rect height="7.416" width="2.222" y="212.57" x="57.987"/><rect height="7.416" width="2.222" y="212.57" x="57.987"/><rect height="7.416" width="2.222" y="212.57" x="57.987"/><rect transform="translate(-.172)" height="7.416" width="2.222" y="212.57" x="32.299"/><rect height="7.416" width="2.222" y="212.57" x="51.082"/><rect height="7.416" width="2.222" y="212.57" x="41.691"/><rect transform="rotate(90)" height="9.962" width="2.222" y="-52.641" x="217.76"/><rect transform="rotate(90)" height="6.316" width="2.222" y="-53.304" x="212"/></g><g transform="matrix(1.52 0 0 1.52 90.01 -170.71)" fill="#fff"><rect height="2.222" width="32.289" y="206.72" x="32.067"/><rect height="2.158" width="2.222" y="217.83" x="36.881"/><rect transform="rotate(90)" height="6.453" width="2.222" y="-64.44" x="217.76"/><rect height="13.266" width="2.222" y="206.72" x="67.911"/><rect transform="rotate(90)" height="12.229" width="2.222" y="-80.765" x="217.76"/><rect height="7.416" width="2.222" y="212.57" x="57.987"/><rect transform="translate(11.035)" height="13.266" width="2.222" y="206.72" x="67.911"/><rect height="13.266" width="2.222" y="206.72" x="73.391"/><rect transform="matrix(0 1 -1 0 .009 0)" height="11.785" width="2.222" y="-43.903" x="212"/><rect transform="rotate(90)" height="11.785" width="2.222" y="-69.772" x="212"/><rect height="7.416" width="2.222" y="212.57" x="57.987"/><rect height="7.416" width="2.222" y="212.57" x="57.987"/><rect height="7.416" width="2.222" y="212.57" x="57.987"/><rect transform="translate(-.172)" height="7.416" width="2.222" y="212.57" x="32.299"/><rect height="7.416" width="2.222" y="212.57" x="51.082"/><rect height="7.416" width="2.222" y="212.57" x="41.691"/><rect transform="rotate(90)" height="9.962" width="2.222" y="-52.641" x="217.76"/><rect transform="rotate(90)" height="6.316" width="2.222" y="-53.304" x="212"/></g><g transform="matrix(1.52 0 0 1.52 170.75 -170.71)" fill="#fff"><rect height="2.222" width="32.289" y="206.72" x="32.067"/><rect height="2.158" width="2.222" y="217.83" x="36.881"/><rect transform="rotate(90)" height="6.453" width="2.222" y="-64.44" x="217.76"/><rect height="13.266" width="2.222" y="206.72" x="67.911"/><rect transform="rotate(90)" height="12.229" width="2.222" y="-80.765" x="217.76"/><rect height="7.416" width="2.222" y="212.57" x="57.987"/><rect transform="translate(11.035)" height="13.266" width="2.222" y="206.72" x="67.911"/><rect height="13.266" width="2.222" y="206.72" x="73.391"/><rect transform="matrix(0 1 -1 0 .009 0)" height="11.785" width="2.222" y="-43.903" x="212"/><rect transform="rotate(90)" height="11.785" width="2.222" y="-69.772" x="212"/><rect height="7.416" width="2.222" y="212.57" x="57.987"/><rect height="7.416" width="2.222" y="212.57" x="57.987"/><rect height="7.416" width="2.222" y="212.57" x="57.987"/><rect transform="translate(-.172)" height="7.416" width="2.222" y="212.57" x="32.299"/><rect height="7.416" width="2.222" y="212.57" x="51.082"/><rect height="7.416" width="2.222" y="212.57" x="41.691"/><rect transform="rotate(90)" height="9.962" width="2.222" y="-52.641" x="217.76"/><rect transform="rotate(90)" height="6.316" width="2.222" y="-53.304" x="212"/></g><g transform="matrix(1.52 0 0 1.52 251.96 -170.71)" fill="#fff"><rect height="2.222" width="32.289" y="206.72" x="32.067"/><rect height="2.158" width="2.222" y="217.83" x="36.881"/><rect transform="rotate(90)" height="6.453" width="2.222" y="-64.44" x="217.76"/><rect height="13.266" width="2.222" y="206.72" x="67.911"/><rect transform="rotate(90)" height="12.229" width="2.222" y="-80.765" x="217.76"/><rect height="7.416" width="2.222" y="212.57" x="57.987"/><rect transform="translate(11.035)" height="13.266" width="2.222" y="206.72" x="67.911"/><rect height="13.266" width="2.222" y="206.72" x="73.391"/><rect transform="matrix(0 1 -1 0 .009 0)" height="11.785" width="2.222" y="-43.903" x="212"/><rect transform="rotate(90)" height="11.785" width="2.222" y="-69.772" x="212"/><rect height="7.416" width="2.222" y="212.57" x="57.987"/><rect height="7.416" width="2.222" y="212.57" x="57.987"/><rect height="7.416" width="2.222" y="212.57" x="57.987"/><rect transform="translate(-.172)" height="7.416" width="2.222" y="212.57" x="32.299"/><rect height="7.416" width="2.222" y="212.57" x="51.082"/><rect height="7.416" width="2.222" y="212.57" x="41.691"/><rect transform="rotate(90)" height="9.962" width="2.222" y="-52.641" x="217.76"/><rect transform="rotate(90)" height="6.316" width="2.222" y="-53.304" x="212"/></g><g transform="matrix(1.52 0 0 1.52 332.69 -170.71)" fill="#fff"><rect height="2.222" width="32.289" y="206.72" x="32.067"/><rect height="2.158" width="2.222" y="217.83" x="36.881"/><rect transform="rotate(90)" height="6.453" width="2.222" y="-64.44" x="217.76"/><rect height="13.266" width="2.222" y="206.72" x="67.911"/><rect transform="rotate(90)" height="12.229" width="2.222" y="-80.765" x="217.76"/><rect height="7.416" width="2.222" y="212.57" x="57.987"/><rect transform="translate(11.035)" height="13.266" width="2.222" y="206.72" x="67.911"/><rect height="13.266" width="2.222" y="206.72" x="73.391"/><rect transform="matrix(0 1 -1 0 .009 0)" height="11.785" width="2.222" y="-43.903" x="212"/><rect transform="rotate(90)" height="11.785" width="2.222" y="-69.772" x="212"/><rect height="7.416" width="2.222" y="212.57" x="57.987"/><rect height="7.416" width="2.222" y="212.57" x="57.987"/><rect height="7.416" width="2.222" y="212.57" x="57.987"/><rect transform="translate(-.172)" height="7.416" width="2.222" y="212.57" x="32.299"/><rect height="7.416" width="2.222" y="212.57" x="51.082"/><rect height="7.416" width="2.222" y="212.57" x="41.691"/><rect transform="rotate(90)" height="9.962" width="2.222" y="-52.641" x="217.76"/><rect transform="rotate(90)" height="6.316" width="2.222" y="-53.304" x="212"/></g><g transform="matrix(1.52 0 0 1.52 413.43 -170.71)" fill="#fff"><rect height="2.222" width="32.289" y="206.72" x="32.067"/><rect height="2.158" width="2.222" y="217.83" x="36.881"/><rect transform="rotate(90)" height="6.453" width="2.222" y="-64.44" x="217.76"/><rect height="13.266" width="2.222" y="206.72" x="67.911"/><rect transform="rotate(90)" height="12.229" width="2.222" y="-80.765" x="217.76"/><rect height="7.416" width="2.222" y="212.57" x="57.987"/><rect transform="translate(11.035)" height="13.266" width="2.222" y="206.72" x="67.911"/><rect height="13.266" width="2.222" y="206.72" x="73.391"/><rect transform="matrix(0 1 -1 0 .009 0)" height="11.785" width="2.222" y="-43.903" x="212"/><rect transform="rotate(90)" height="11.785" width="2.222" y="-69.772" x="212"/><rect height="7.416" width="2.222" y="212.57" x="57.987"/><rect height="7.416" width="2.222" y="212.57" x="57.987"/><rect height="7.416" width="2.222" y="212.57" x="57.987"/><rect transform="translate(-.172)" height="7.416" width="2.222" y="212.57" x="32.299"/><rect height="7.416" width="2.222" y="212.57" x="51.082"/><rect height="7.416" width="2.222" y="212.57" x="41.691"/><rect transform="rotate(90)" height="9.962" width="2.222" y="-52.641" x="217.76"/><rect transform="rotate(90)" height="6.316" width="2.222" y="-53.304" x="212"/></g><g transform="matrix(1.52 0 0 1.52 494.64 -170.71)" fill="#fff"><rect height="2.222" width="32.289" y="206.72" x="32.067"/><rect height="2.158" width="2.222" y="217.83" x="36.881"/><rect transform="rotate(90)" height="6.453" width="2.222" y="-64.44" x="217.76"/><rect height="13.266" width="2.222" y="206.72" x="67.911"/><rect transform="rotate(90)" height="12.229" width="2.222" y="-80.765" x="217.76"/><rect height="7.416" width="2.222" y="212.57" x="57.987"/><rect transform="translate(11.035)" height="13.266" width="2.222" y="206.72" x="67.911"/><rect height="13.266" width="2.222" y="206.72" x="73.391"/><rect transform="matrix(0 1 -1 0 .009 0)" height="11.785" width="2.222" y="-43.903" x="212"/><rect transform="rotate(90)" height="11.785" width="2.222" y="-69.772" x="212"/><rect height="7.416" width="2.222" y="212.57" x="57.987"/><rect height="7.416" width="2.222" y="212.57" x="57.987"/><rect height="7.416" width="2.222" y="212.57" x="57.987"/><rect transform="translate(-.172)" height="7.416" width="2.222" y="212.57" x="32.299"/><rect height="7.416" width="2.222" y="212.57" x="51.082"/><rect height="7.416" width="2.222" y="212.57" x="41.691"/><rect transform="rotate(90)" height="9.962" width="2.222" y="-52.641" x="217.76"/><rect transform="rotate(90)" height="6.316" width="2.222" y="-53.304" x="212"/></g><g transform="matrix(1.52 0 0 1.52 -232.52 -170.71)" fill="#fff"><rect height="2.222" width="32.289" y="206.72" x="32.067"/><rect height="2.158" width="2.222" y="217.83" x="36.881"/><rect transform="rotate(90)" height="6.453" width="2.222" y="-64.44" x="217.76"/><rect height="13.266" width="2.222" y="206.72" x="67.911"/><rect transform="rotate(90)" height="12.229" width="2.222" y="-80.765" x="217.76"/><rect height="7.416" width="2.222" y="212.57" x="57.987"/><rect transform="translate(11.035)" height="13.266" width="2.222" y="206.72" x="67.911"/><rect height="13.266" width="2.222" y="206.72" x="73.391"/><rect transform="matrix(0 1 -1 0 .009 0)" height="11.785" width="2.222" y="-43.903" x="212"/><rect transform="rotate(90)" height="11.785" width="2.222" y="-69.772" x="212"/><rect height="7.416" width="2.222" y="212.57" x="57.987"/><rect height="7.416" width="2.222" y="212.57" x="57.987"/><rect height="7.416" width="2.222" y="212.57" x="57.987"/><rect transform="translate(-.172)" height="7.416" width="2.222" y="212.57" x="32.299"/><rect height="7.416" width="2.222" y="212.57" x="51.082"/><rect height="7.416" width="2.222" y="212.57" x="41.691"/><rect transform="rotate(90)" height="9.962" width="2.222" y="-52.641" x="217.76"/><rect transform="rotate(90)" height="6.316" width="2.222" y="-53.304" x="212"/></g><g transform="matrix(1.032 0 0 1.032 -191.96 176.9)" fill="#d90000"><rect height="10.178" width="5.86" y="157.55" x="119.3"/><rect height="10.178" width="5.86" y="157.55" x="274.84"/><rect height="10.178" width="5.86" y="157.55" x="-.042"/><rect transform="translate(39.591)" height="10.178" width="5.86" y="157.55" x="39.308"/><rect transform="translate(117.97)" height="10.178" width="5.86" y="157.55" x="39.308"/><rect transform="translate(156.75)" height="10.178" width="5.86" y="157.55" x="39.308"/><rect transform="translate(196.34)" height="10.178" width="5.86" y="157.55" x="39.308"/><rect height="10.178" width="5.86" y="157.55" x="313.62"/><rect height="10.178" width="5.86" y="157.55" x="510.36"/><rect transform="translate(313.9)" height="10.178" width="5.86" y="157.55" x="39.308"/><rect transform="translate(352.69)" height="10.178" width="5.86" y="157.55" x="39.308"/><rect transform="translate(391.87)" height="10.178" width="5.86" y="157.55" x="39.308"/><rect transform="translate(431.06)" height="10.178" width="5.86" y="157.55" x="39.308"/><rect height="10.178" width="5.86" y="157.55" x="783.46"/><rect transform="translate(509.03)" height="10.178" width="5.86" y="157.55" x="39.308"/><rect transform="translate(548.62)" height="10.178" width="5.86" y="157.55" x="39.308"/><rect transform="translate(588.62)" height="10.178" width="5.86" y="157.55" x="39.308"/><rect transform="translate(626.19)" height="10.178" width="5.86" y="157.55" x="39.308"/><rect transform="translate(666.18)" height="10.178" width="5.86" y="157.55" x="39.308"/><rect transform="translate(705.37)" height="10.178" width="5.86" y="157.55" x="39.308"/><rect height="10.178" width="5.86" y="157.55" x="860.63"/><rect transform="translate(783.75)" height="10.178" width="5.86" y="157.55" x="39.308"/><rect height="10.178" width="5.86" y="157.55" x="39.308"/></g><g transform="matrix(1.032 0 0 1.032 -191.96 0)" fill="#239e3f"><rect height="10.178" width="5.86" y="157.55" x="119.3"/><rect height="10.178" width="5.86" y="157.55" x="274.84"/><rect height="10.178" width="5.86" y="157.55" x="-.042"/><rect transform="translate(39.591)" height="10.178" width="5.86" y="157.55" x="39.308"/><rect transform="translate(117.97)" height="10.178" width="5.86" y="157.55" x="39.308"/><rect transform="translate(156.75)" height="10.178" width="5.86" y="157.55" x="39.308"/><rect transform="translate(196.34)" height="10.178" width="5.86" y="157.55" x="39.308"/><rect height="10.178" width="5.86" y="157.55" x="313.62"/><rect height="10.178" width="5.86" y="157.55" x="510.36"/><rect transform="translate(313.9)" height="10.178" width="5.86" y="157.55" x="39.308"/><rect transform="translate(352.69)" height="10.178" width="5.86" y="157.55" x="39.308"/><rect transform="translate(391.87)" height="10.178" width="5.86" y="157.55" x="39.308"/><rect transform="translate(431.06)" height="10.178" width="5.86" y="157.55" x="39.308"/><rect height="10.178" width="5.86" y="157.55" x="783.46"/><rect transform="translate(509.03)" height="10.178" width="5.86" y="157.55" x="39.308"/><rect transform="translate(548.62)" height="10.178" width="5.86" y="157.55" x="39.308"/><rect transform="translate(588.62)" height="10.178" width="5.86" y="157.55" x="39.308"/><rect transform="translate(626.19)" height="10.178" width="5.86" y="157.55" x="39.308"/><rect transform="translate(666.18)" height="10.178" width="5.86" y="157.55" x="39.308"/><rect transform="translate(705.37)" height="10.178" width="5.86" y="157.55" x="39.308"/><rect height="10.178" width="5.86" y="157.55" x="860.63"/><rect transform="translate(783.75)" height="10.178" width="5.86" y="157.55" x="39.308"/><rect height="10.178" width="5.86" y="157.55" x="39.308"/></g><g fill="#da0000"><path d="M279.8 197.489c8.453 10.361 34.511 67.652-15.73 105.181-23.619 17.776-8.994 18.674-8.295 21.662 37.966-20.166 50.365-47.49 50.077-71.965-.289-24.476-13.266-46.103-26.052-54.874z"/><path d="M284.826 194.826c18.749 9.6 59.553 57.879 15.635 112.344 27.288-6.056 61.981-86.417-15.635-112.344z"/><path d="M227.245 194.826c-18.749 9.6-59.553 57.879-15.635 112.344-27.288-6.056-61.981-86.417 15.635-112.344z"/><path d="M232.199 197.489c-8.453 10.361-34.511 67.652 15.73 105.181 23.619 17.776 8.994 18.674 8.295 21.662-37.966-20.166-50.365-47.49-50.077-71.965.289-24.476 13.266-46.103 26.052-54.874z"/><path d="M304.198 319.111c-14.86.235-33.594-2.048-47.487-9.267l6.477 11.701c13.25 1.222 31.535 2.734 41.009-2.434z"/><path d="M209.225 319.111c14.86.235 33.594-2.048 47.487-9.267l-6.477 11.701c-13.25 1.222-31.535 2.734-41.009-2.434z"/><path d="M236.482 180.397c3.011 8.002 10.909 9.165 19.364 4.454 6.162 3.697 15.69 3.931 18.976-4.066 2.499 19.784-18.305 15.104-19.08 11.231-7.745 7.487-22.164 3.162-19.26-11.618z"/><path d="M256.402 331.569l7.813-8.93 1.117-120.178-9.301-8.186-9.301 7.813 1.86 120.921 7.813 8.557z"/></g></g></svg>