<svg xmlns="http://www.w3.org/2000/svg" id="flag-icon-css-ir" width="640" height="480">
  <defs>
    <clipPath id="a">
      <path fill-opacity=".67" d="M-85.31 0h682.67v512H-85.31z"/>
    </clipPath>
  </defs>
  <g fill-rule="evenodd" clip-path="url(#a)" transform="translate(79.98) scale(.9375)">
    <path fill="#fff" d="M-191.96 0h896v512h-896z"/>
    <path fill="#da0000" d="M-191.96 343.84h896V512h-896z"/>
    <g fill="#fff" stroke-width="1pt">
      <path d="M-21.63 350.96h49.07v3.38h-49.07zm7.32 16.88h3.37v3.28h-3.37zm41.88-.1v3.37h-9.8v-3.37zm5.27-16.78h3.38v20.16h-3.38z"/>
      <path d="M52.38 367.74v3.37H33.79v-3.37zm-34.62-7.9h3.38v11.28h-3.38z"/>
      <path d="M49.61 350.96H53v20.16h-3.38zm-8.44 0h3.38v20.16h-3.38zm-44.8 8.02v3.38h-17.9v-3.38zm39.3 0v3.38h-17.9v-3.38z"/>
      <path d="M17.76 359.85h3.38v11.27h-3.38z"/>
      <path d="M17.76 359.85h3.38v11.27h-3.38z"/>
      <path d="M17.76 359.85h3.38v11.27h-3.38zm-39.3 0h3.38v11.27h-3.38zm28.81 0h3.38v11.27H7.27zm-14.27 0h3.38v11.27H-7z"/>
      <path d="M9.64 367.74v3.37H-5.5v-3.37zm1-8.76v3.38h-9.6v-3.38z"/>
    </g>
    <g fill="#fff" stroke-width="1pt">
      <path d="M-102.23 350.96h49.07v3.38h-49.07zm7.32 16.88h3.38v3.28h-3.38zm41.88-.1v3.37h-9.8v-3.37zm5.27-16.78h3.38v20.16h-3.38z"/>
      <path d="M-28.22 367.74v3.37h-18.59v-3.37zm-34.62-7.9h3.38v11.28h-3.38z"/>
      <path d="M-30.99 350.96h3.38v20.16h-3.38zm-8.44 0h3.38v20.16h-3.38zm-44.8 8.02v3.38h-17.9v-3.38zm39.3 0v3.38h-17.9v-3.38z"/>
      <path d="M-62.84 359.85h3.38v11.27h-3.38z"/>
      <path d="M-62.84 359.85h3.38v11.27h-3.38z"/>
      <path d="M-62.84 359.85h3.38v11.27h-3.38zm-39.3 0h3.38v11.27h-3.38zm28.81 0h3.38v11.27h-3.38zm-14.27 0h3.37v11.27h-3.37z"/>
      <path d="M-70.96 367.74v3.37H-86.1v-3.37zm1-8.76v3.38h-9.6v-3.38z"/>
    </g>
    <g fill="#fff" stroke-width="1pt">
      <path d="M58.3 350.96h49.07v3.38H58.3zm7.31 16.88H69v3.28H65.6zm41.88-.1v3.37h-9.8v-3.37zm5.28-16.78h3.38v20.16h-3.38z"/>
      <path d="M132.3 367.74v3.37h-18.58v-3.37zm-34.61-7.9h3.37v11.28H97.7z"/>
      <path d="M129.54 350.96h3.38v20.16h-3.38zm-8.44 0h3.37v20.16h-3.37zm-44.8 8.02v3.38H58.39v-3.38zm39.3 0v3.38H97.69v-3.38z"/>
      <path d="M97.69 359.85h3.37v11.27H97.7z"/>
      <path d="M97.69 359.85h3.37v11.27H97.7z"/>
      <path d="M97.69 359.85h3.37v11.27H97.7zm-39.3 0h3.37v11.27H58.4zm28.8 0h3.38v11.27H87.2zm-14.27 0h3.38v11.27h-3.38z"/>
      <path d="M89.56 367.74v3.37H74.42v-3.37zm1.01-8.76v3.38h-9.6v-3.38z"/>
    </g>
    <g fill="#fff" stroke-width="1pt">
      <path d="M622.68 350.96h49.07v3.38h-49.07zm7.32 16.88h3.38v3.28H630zm41.88-.1v3.37h-9.8v-3.37zm5.27-16.78h3.38v20.16h-3.38z"/>
      <path d="M696.69 367.74v3.37H678.1v-3.37zm-34.62-7.9h3.38v11.28h-3.38z"/>
      <path d="M693.92 350.96h3.38v20.16h-3.38zm-8.44 0h3.38v20.16h-3.38zm-44.8 8.02v3.38h-17.9v-3.38zm39.3 0v3.38h-17.9v-3.38z"/>
      <path d="M662.07 359.85h3.38v11.27h-3.38z"/>
      <path d="M662.07 359.85h3.38v11.27h-3.38z"/>
      <path d="M662.07 359.85h3.38v11.27h-3.38zm-39.3 0h3.38v11.27h-3.38zm28.81 0h3.38v11.27h-3.38zm-14.27 0h3.38v11.27h-3.38z"/>
      <path d="M653.95 367.74v3.37H638.8v-3.37zm1-8.76v3.38h-9.6v-3.38z"/>
    </g>
    <g fill="#fff" stroke-width="1pt">
      <path d="M138.74 350.96h49.07v3.38h-49.07zm7.32 16.88h3.37v3.28h-3.37zm41.88-.1v3.37h-9.8v-3.37zm5.27-16.78h3.38v20.16h-3.38z"/>
      <path d="M212.75 367.74v3.37h-18.59v-3.37zm-34.62-7.9h3.38v11.28h-3.38z"/>
      <path d="M209.98 350.96h3.38v20.16h-3.38zm-8.44 0h3.38v20.16h-3.38zm-44.8 8.02v3.38h-17.9v-3.38zm39.3 0v3.38h-17.9v-3.38z"/>
      <path d="M178.13 359.85h3.38v11.27h-3.38z"/>
      <path d="M178.13 359.85h3.38v11.27h-3.38z"/>
      <path d="M178.13 359.85h3.38v11.27h-3.38zm-39.3 0h3.38v11.27h-3.38zm28.81 0h3.38v11.27h-3.38zm-14.27 0h3.38v11.27h-3.38z"/>
      <path d="M170 367.74v3.37h-15.13v-3.37zm1.02-8.76v3.38h-9.6v-3.38z"/>
    </g>
    <g fill="#fff" stroke-width="1pt">
      <path d="M219.48 350.96h49.07v3.38h-49.07zm7.32 16.88h3.37v3.28h-3.37zm41.88-.1v3.37h-9.8v-3.37zm5.27-16.78h3.38v20.16h-3.38z"/>
      <path d="M293.49 367.74v3.37H274.9v-3.37zm-34.62-7.9h3.38v11.28h-3.38z"/>
      <path d="M290.72 350.96h3.38v20.16h-3.38zm-8.44 0h3.38v20.16h-3.38zm-44.8 8.02v3.38h-17.9v-3.38zm39.3 0v3.38h-17.9v-3.38z"/>
      <path d="M258.87 359.85h3.38v11.27h-3.38z"/>
      <path d="M258.87 359.85h3.38v11.27h-3.38z"/>
      <path d="M258.87 359.85h3.38v11.27h-3.38zm-39.3 0h3.38v11.27h-3.38zm28.81 0h3.38v11.27h-3.38zm-14.27 0h3.37v11.27h-3.37z"/>
      <path d="M250.75 367.74v3.37H235.6v-3.37zm1-8.76v3.38h-9.6v-3.38z"/>
    </g>
    <path fill="#239f40" d="M-191.96 0h896v168.16h-896z"/>
    <g fill="#fff" stroke-width="1pt">
      <path d="M300.7 350.96h49.06v3.38H300.7zm7.3 16.88h3.38v3.28h-3.37zm41.89-.1v3.37h-9.8v-3.37zm5.27-16.78h3.38v20.16h-3.38z"/>
      <path d="M374.7 367.74v3.37H356.1v-3.37zm-34.62-7.9h3.38v11.28h-3.38z"/>
      <path d="M371.93 350.96h3.38v20.16h-3.38zm-8.44 0h3.38v20.16h-3.38zm-44.8 8.02v3.38h-17.9v-3.38zm39.3 0v3.38h-17.9v-3.38z"/>
      <path d="M340.08 359.85h3.38v11.27h-3.38z"/>
      <path d="M340.08 359.85h3.38v11.27h-3.38z"/>
      <path d="M340.08 359.85h3.38v11.27h-3.38zm-39.3 0h3.38v11.27h-3.38zm28.81 0h3.38v11.27h-3.38zm-14.27 0h3.38v11.27h-3.38z"/>
      <path d="M331.96 367.74v3.37h-15.14v-3.37zm1-8.76v3.38h-9.6v-3.38z"/>
    </g>
    <g fill="#fff" stroke-width="1pt">
      <path d="M381.42 350.96h49.07v3.38h-49.07zm7.32 16.88h3.37v3.28h-3.37zm41.88-.1v3.37h-9.8v-3.37zm5.27-16.78h3.38v20.16h-3.38z"/>
      <path d="M455.43 367.74v3.37h-18.59v-3.37zm-34.62-7.9h3.38v11.28h-3.38z"/>
      <path d="M452.66 350.96h3.38v20.16h-3.38zm-8.44 0h3.38v20.16h-3.38zm-44.8 8.02v3.38h-17.9v-3.38zm39.3 0v3.38h-17.9v-3.38z"/>
      <path d="M420.81 359.85h3.38v11.27h-3.38z"/>
      <path d="M420.81 359.85h3.38v11.27h-3.38z"/>
      <path d="M420.81 359.85h3.38v11.27h-3.38zm-39.3 0h3.38v11.27h-3.38zm28.81 0h3.38v11.27h-3.38zm-14.27 0h3.37v11.27h-3.37z"/>
      <path d="M412.69 367.74v3.37h-15.14v-3.37zm1-8.76v3.38h-9.6v-3.38z"/>
    </g>
    <g fill="#fff" stroke-width="1pt">
      <path d="M462.16 350.96h49.07v3.38h-49.07zm7.32 16.88h3.37v3.28h-3.37zm41.88-.1v3.37h-9.8v-3.37zm5.27-16.78h3.38v20.16h-3.38z"/>
      <path d="M536.17 367.74v3.37h-18.59v-3.37zm-34.62-7.9h3.38v11.28h-3.38z"/>
      <path d="M533.4 350.96h3.38v20.16h-3.38zm-8.44 0h3.38v20.16h-3.38zm-44.8 8.02v3.38h-17.9v-3.38zm39.3 0v3.38h-17.9v-3.38z"/>
      <path d="M501.55 359.85h3.38v11.27h-3.38z"/>
      <path d="M501.55 359.85h3.38v11.27h-3.38z"/>
      <path d="M501.55 359.85h3.38v11.27h-3.38zm-39.3 0h3.38v11.27h-3.38zm28.81 0h3.38v11.27h-3.38zm-14.27 0h3.37v11.27h-3.37z"/>
      <path d="M493.43 367.74v3.37h-15.14v-3.37zm1-8.76v3.38h-9.6v-3.38z"/>
    </g>
    <g fill="#fff" stroke-width="1pt">
      <path d="M543.37 350.96h49.07v3.38h-49.07zm7.32 16.88h3.37v3.28h-3.37zm41.88-.1v3.37h-9.8v-3.37zm5.27-16.78h3.38v20.16h-3.38z"/>
      <path d="M617.38 367.74v3.37h-18.59v-3.37zm-34.62-7.9h3.38v11.28h-3.38z"/>
      <path d="M614.61 350.96H618v20.16h-3.38zm-8.44 0h3.38v20.16h-3.38zm-44.8 8.02v3.38h-17.9v-3.38zm39.3 0v3.38h-17.9v-3.38z"/>
      <path d="M582.76 359.85h3.38v11.27h-3.38z"/>
      <path d="M582.76 359.85h3.38v11.27h-3.38z"/>
      <path d="M582.76 359.85h3.38v11.27h-3.38zm-39.3 0h3.38v11.27h-3.38zm28.81 0h3.38v11.27h-3.38zm-14.27 0h3.38v11.27H558z"/>
      <path d="M574.64 367.74v3.37H559.5v-3.37zm1-8.76v3.38h-9.6v-3.38z"/>
    </g>
    <g fill="#fff" stroke-width="1pt">
      <path d="M-183.79 350.96h49.07v3.38h-49.07zm7.32 16.88h3.37v3.28h-3.37zm41.88-.1v3.37h-9.8v-3.37zm5.27-16.78h3.38v20.16h-3.38z"/>
      <path d="M-109.78 367.74v3.37h-18.59v-3.37zm-34.62-7.9h3.38v11.28h-3.38z"/>
      <path d="M-112.55 350.96h3.38v20.16h-3.38zm-8.44 0h3.38v20.16H-121zm-44.8 8.02v3.38h-17.9v-3.38zm39.3 0v3.38h-17.9v-3.38z"/>
      <path d="M-144.4 359.85h3.38v11.27h-3.38z"/>
      <path d="M-144.4 359.85h3.38v11.27h-3.38z"/>
      <path d="M-144.4 359.85h3.38v11.27h-3.38zm-39.3 0h3.38v11.27h-3.38zm28.81 0h3.38v11.27h-3.38zm-14.27 0h3.37v11.27h-3.37z"/>
      <path d="M-152.52 367.74v3.37h-15.14v-3.37zm1-8.76v3.38h-9.6v-3.38z"/>
    </g>
    <g fill="#fff" stroke-width="1pt">
      <path d="M-21.63 143.44h49.07v3.38h-49.07zm7.32 16.89h3.37v3.28h-3.37zm41.88-.11v3.38h-9.8v-3.38zm5.27-16.78h3.38v20.16h-3.38z"/>
      <path d="M52.38 160.22v3.38H33.79v-3.38zm-34.62-7.89h3.38v11.27h-3.38z"/>
      <path d="M49.61 143.44H53v20.16h-3.38zm-8.44 0h3.38v20.16h-3.38zm-44.8 8.03v3.37h-17.9v-3.37zm39.3 0v3.37h-17.9v-3.37z"/>
      <path d="M17.76 152.33h3.38v11.27h-3.38z"/>
      <path d="M17.76 152.33h3.38v11.27h-3.38z"/>
      <path d="M17.76 152.33h3.38v11.27h-3.38zm-39.3 0h3.38v11.27h-3.38zm28.81 0h3.38v11.27H7.27zm-14.27 0h3.38v11.27H-7z"/>
      <path d="M9.64 160.22v3.38H-5.5v-3.38zm1-8.75v3.37h-9.6v-3.37z"/>
    </g>
    <g fill="#fff" stroke-width="1pt">
      <path d="M-102.23 143.44h49.07v3.38h-49.07zm7.32 16.89h3.38v3.28h-3.38zm41.88-.11v3.38h-9.8v-3.38zm5.27-16.78h3.38v20.16h-3.38z"/>
      <path d="M-28.22 160.22v3.38h-18.59v-3.38zm-34.62-7.89h3.38v11.27h-3.38z"/>
      <path d="M-30.99 143.44h3.38v20.16h-3.38zm-8.44 0h3.38v20.16h-3.38zm-44.8 8.03v3.37h-17.9v-3.37zm39.3 0v3.37h-17.9v-3.37z"/>
      <path d="M-62.84 152.33h3.38v11.27h-3.38z"/>
      <path d="M-62.84 152.33h3.38v11.27h-3.38z"/>
      <path d="M-62.84 152.33h3.38v11.27h-3.38zm-39.3 0h3.38v11.27h-3.38zm28.81 0h3.38v11.27h-3.38zm-14.27 0h3.37v11.27h-3.37z"/>
      <path d="M-70.96 160.22v3.38H-86.1v-3.38zm1-8.75v3.37h-9.6v-3.37z"/>
    </g>
    <g fill="#fff" stroke-width="1pt">
      <path d="M58.3 143.44h49.07v3.38H58.3zm7.31 16.89H69v3.28H65.6zm41.88-.11v3.38h-9.8v-3.38zm5.28-16.78h3.38v20.16h-3.38z"/>
      <path d="M132.3 160.22v3.38h-18.58v-3.38zm-34.61-7.89h3.37v11.27H97.7z"/>
      <path d="M129.54 143.44h3.38v20.16h-3.38zm-8.44 0h3.37v20.16h-3.37zm-44.8 8.03v3.37H58.39v-3.37zm39.3 0v3.37H97.69v-3.37z"/>
      <path d="M97.69 152.33h3.37v11.27H97.7z"/>
      <path d="M97.69 152.33h3.37v11.27H97.7z"/>
      <path d="M97.69 152.33h3.37v11.27H97.7zm-39.3 0h3.37v11.27H58.4zm28.8 0h3.38v11.27H87.2zm-14.27 0h3.38v11.27h-3.38z"/>
      <path d="M89.56 160.22v3.38H74.42v-3.38zm1.01-8.75v3.37h-9.6v-3.37z"/>
    </g>
    <g fill="#fff" stroke-width="1pt">
      <path d="M622.68 143.44h49.07v3.38h-49.07zm7.32 16.89h3.38v3.28H630zm41.88-.11v3.38h-9.8v-3.38zm5.27-16.78h3.38v20.16h-3.38z"/>
      <path d="M696.69 160.22v3.38H678.1v-3.38zm-34.62-7.89h3.38v11.27h-3.38z"/>
      <path d="M693.92 143.44h3.38v20.16h-3.38zm-8.44 0h3.38v20.16h-3.38zm-44.8 8.03v3.37h-17.9v-3.37zm39.3 0v3.37h-17.9v-3.37z"/>
      <path d="M662.07 152.33h3.38v11.27h-3.38z"/>
      <path d="M662.07 152.33h3.38v11.27h-3.38z"/>
      <path d="M662.07 152.33h3.38v11.27h-3.38zm-39.3 0h3.38v11.27h-3.38zm28.81 0h3.38v11.27h-3.38zm-14.27 0h3.38v11.27h-3.38z"/>
      <path d="M653.95 160.22v3.38H638.8v-3.38zm1-8.75v3.37h-9.6v-3.37z"/>
    </g>
    <g fill="#fff" stroke-width="1pt">
      <path d="M138.74 143.44h49.07v3.38h-49.07zm7.32 16.89h3.37v3.28h-3.37zm41.88-.11v3.38h-9.8v-3.38zm5.27-16.78h3.38v20.16h-3.38z"/>
      <path d="M212.75 160.22v3.38h-18.59v-3.38zm-34.62-7.89h3.38v11.27h-3.38z"/>
      <path d="M209.98 143.44h3.38v20.16h-3.38zm-8.44 0h3.38v20.16h-3.38zm-44.8 8.03v3.37h-17.9v-3.37zm39.3 0v3.37h-17.9v-3.37z"/>
      <path d="M178.13 152.33h3.38v11.27h-3.38z"/>
      <path d="M178.13 152.33h3.38v11.27h-3.38z"/>
      <path d="M178.13 152.33h3.38v11.27h-3.38zm-39.3 0h3.38v11.27h-3.38zm28.81 0h3.38v11.27h-3.38zm-14.27 0h3.38v11.27h-3.38z"/>
      <path d="M170 160.22v3.38h-15.13v-3.38zm1.02-8.75v3.37h-9.6v-3.37z"/>
    </g>
    <g fill="#fff" stroke-width="1pt">
      <path d="M219.48 143.44h49.07v3.38h-49.07zm7.32 16.89h3.37v3.28h-3.37zm41.88-.11v3.38h-9.8v-3.38zm5.27-16.78h3.38v20.16h-3.38z"/>
      <path d="M293.49 160.22v3.38H274.9v-3.38zm-34.62-7.89h3.38v11.27h-3.38z"/>
      <path d="M290.72 143.44h3.38v20.16h-3.38zm-8.44 0h3.38v20.16h-3.38zm-44.8 8.03v3.37h-17.9v-3.37zm39.3 0v3.37h-17.9v-3.37z"/>
      <path d="M258.87 152.33h3.38v11.27h-3.38z"/>
      <path d="M258.87 152.33h3.38v11.27h-3.38z"/>
      <path d="M258.87 152.33h3.38v11.27h-3.38zm-39.3 0h3.38v11.27h-3.38zm28.81 0h3.38v11.27h-3.38zm-14.27 0h3.37v11.27h-3.37z"/>
      <path d="M250.75 160.22v3.38H235.6v-3.38zm1-8.75v3.37h-9.6v-3.37z"/>
    </g>
    <g fill="#fff" stroke-width="1pt">
      <path d="M300.7 143.44h49.06v3.38H300.7zm7.3 16.89h3.38v3.28h-3.37zm41.89-.11v3.38h-9.8v-3.38zm5.27-16.78h3.38v20.16h-3.38z"/>
      <path d="M374.7 160.22v3.38H356.1v-3.38zm-34.62-7.89h3.38v11.27h-3.38z"/>
      <path d="M371.93 143.44h3.38v20.16h-3.38zm-8.44 0h3.38v20.16h-3.38zm-44.8 8.03v3.37h-17.9v-3.37zm39.3 0v3.37h-17.9v-3.37z"/>
      <path d="M340.08 152.33h3.38v11.27h-3.38z"/>
      <path d="M340.08 152.33h3.38v11.27h-3.38z"/>
      <path d="M340.08 152.33h3.38v11.27h-3.38zm-39.3 0h3.38v11.27h-3.38zm28.81 0h3.38v11.27h-3.38zm-14.27 0h3.38v11.27h-3.38z"/>
      <path d="M331.96 160.22v3.38h-15.14v-3.38zm1-8.75v3.37h-9.6v-3.37z"/>
    </g>
    <g fill="#fff" stroke-width="1pt">
      <path d="M381.42 143.44h49.07v3.38h-49.07zm7.32 16.89h3.37v3.28h-3.37zm41.88-.11v3.38h-9.8v-3.38zm5.27-16.78h3.38v20.16h-3.38z"/>
      <path d="M455.43 160.22v3.38h-18.59v-3.38zm-34.62-7.89h3.38v11.27h-3.38z"/>
      <path d="M452.66 143.44h3.38v20.16h-3.38zm-8.44 0h3.38v20.16h-3.38zm-44.8 8.03v3.37h-17.9v-3.37zm39.3 0v3.37h-17.9v-3.37z"/>
      <path d="M420.81 152.33h3.38v11.27h-3.38z"/>
      <path d="M420.81 152.33h3.38v11.27h-3.38z"/>
      <path d="M420.81 152.33h3.38v11.27h-3.38zm-39.3 0h3.38v11.27h-3.38zm28.81 0h3.38v11.27h-3.38zm-14.27 0h3.37v11.27h-3.37z"/>
      <path d="M412.69 160.22v3.38h-15.14v-3.38zm1-8.75v3.37h-9.6v-3.37z"/>
    </g>
    <g fill="#fff" stroke-width="1pt">
      <path d="M462.16 143.44h49.07v3.38h-49.07zm7.32 16.89h3.37v3.28h-3.37zm41.88-.11v3.38h-9.8v-3.38zm5.27-16.78h3.38v20.16h-3.38z"/>
      <path d="M536.17 160.22v3.38h-18.59v-3.38zm-34.62-7.89h3.38v11.27h-3.38z"/>
      <path d="M533.4 143.44h3.38v20.16h-3.38zm-8.44 0h3.38v20.16h-3.38zm-44.8 8.03v3.37h-17.9v-3.37zm39.3 0v3.37h-17.9v-3.37z"/>
      <path d="M501.55 152.33h3.38v11.27h-3.38z"/>
      <path d="M501.55 152.33h3.38v11.27h-3.38z"/>
      <path d="M501.55 152.33h3.38v11.27h-3.38zm-39.3 0h3.38v11.27h-3.38zm28.81 0h3.38v11.27h-3.38zm-14.27 0h3.37v11.27h-3.37z"/>
      <path d="M493.43 160.22v3.38h-15.14v-3.38zm1-8.75v3.37h-9.6v-3.37z"/>
    </g>
    <g fill="#fff" stroke-width="1pt">
      <path d="M543.37 143.44h49.07v3.38h-49.07zm7.32 16.89h3.37v3.28h-3.37zm41.88-.11v3.38h-9.8v-3.38zm5.27-16.78h3.38v20.16h-3.38z"/>
      <path d="M617.38 160.22v3.38h-18.59v-3.38zm-34.62-7.89h3.38v11.27h-3.38z"/>
      <path d="M614.61 143.44H618v20.16h-3.38zm-8.44 0h3.38v20.16h-3.38zm-44.8 8.03v3.37h-17.9v-3.37zm39.3 0v3.37h-17.9v-3.37z"/>
      <path d="M582.76 152.33h3.38v11.27h-3.38z"/>
      <path d="M582.76 152.33h3.38v11.27h-3.38z"/>
      <path d="M582.76 152.33h3.38v11.27h-3.38zm-39.3 0h3.38v11.27h-3.38zm28.81 0h3.38v11.27h-3.38zm-14.27 0h3.38v11.27H558z"/>
      <path d="M574.64 160.22v3.38H559.5v-3.38zm1-8.75v3.37h-9.6v-3.37z"/>
    </g>
    <g fill="#fff" stroke-width="1pt">
      <path d="M-183.79 143.44h49.07v3.38h-49.07zm7.32 16.89h3.37v3.28h-3.37zm41.88-.11v3.38h-9.8v-3.38zm5.27-16.78h3.38v20.16h-3.38z"/>
      <path d="M-109.78 160.22v3.38h-18.59v-3.38zm-34.62-7.89h3.38v11.27h-3.38z"/>
      <path d="M-112.55 143.44h3.38v20.16h-3.38zm-8.44 0h3.38v20.16H-121zm-44.8 8.03v3.37h-17.9v-3.37zm39.3 0v3.37h-17.9v-3.37z"/>
      <path d="M-144.4 152.33h3.38v11.27h-3.38z"/>
      <path d="M-144.4 152.33h3.38v11.27h-3.38z"/>
      <path d="M-144.4 152.33h3.38v11.27h-3.38zm-39.3 0h3.38v11.27h-3.38zm28.81 0h3.38v11.27h-3.38zm-14.27 0h3.37v11.27h-3.37z"/>
      <path d="M-152.52 160.22v3.38h-15.14v-3.38zm1-8.75v3.37h-9.6v-3.37z"/>
    </g>
    <path fill="#d90000" stroke-width="1pt" d="M-68.83 339.5h6.05v10.51h-6.05zm160.53 0h6.05v10.51H91.7zm-283.7 0h6.05v10.51H-192zm81.47 0h6.05v10.51h-6.05zm80.9 0h6.05v10.51h-6.05zm40.02 0h6.05v10.51h-6.05zm40.86 0h6.05v10.51h-6.05zm80.48 0h6.05v10.51h-6.05zm203.05 0h6.05v10.51h-6.05zm-162.2 0h6.05v10.51h-6.04zm40.04 0h6.05v10.51h-6.05zm40.44 0h6.05v10.51h-6.05zm40.45 0h6.05v10.51h-6.05zm323.14 0h6.05v10.51h-6.05zm-242.67 0h6.05v10.51h-6.05zm40.86 0h6.05v10.51h-6.05zm41.28 0h6.05v10.51h-6.05zm38.78 0h6.05v10.51h-6.05zm41.27 0h6.05v10.51h-6.05zm40.45 0h6.05v10.51h-6.05zm119.68 0h6.04v10.51h-6.04zm-38.78 0h6.05v10.51h-6.05zm-808.91 0h6.05v10.51h-6.05z"/>
    <path fill="#239e3f" stroke-width="1pt" d="M-68.83 162.6h6.05v10.51h-6.05zm160.53 0h6.05v10.51H91.7zm-283.7 0h6.05v10.51H-192zm81.47 0h6.05v10.51h-6.05zm80.9 0h6.05v10.51h-6.05zm40.02 0h6.05v10.51h-6.05zm40.86 0h6.05v10.51h-6.05zm80.48 0h6.05v10.51h-6.05zm203.05 0h6.05v10.51h-6.05zm-162.2 0h6.05v10.51h-6.04zm40.04 0h6.05v10.51h-6.05zm40.44 0h6.05v10.51h-6.05zm40.45 0h6.05v10.51h-6.05zm323.14 0h6.05v10.51h-6.05zm-242.67 0h6.05v10.51h-6.05zm40.86 0h6.05v10.51h-6.05zm41.28 0h6.05v10.51h-6.05zm38.78 0h6.05v10.51h-6.05zm41.27 0h6.05v10.51h-6.05zm40.45 0h6.05v10.51h-6.05zm119.68 0h6.04v10.51h-6.04zm-38.78 0h6.05v10.51h-6.05zm-808.91 0h6.05v10.51h-6.05z"/>
    <g fill="#da0000">
      <path d="M279.8 197.49c8.45 10.36 34.51 67.65-15.73 105.18-23.62 17.78-9 18.67-8.3 21.66 37.97-20.16 50.37-47.49 50.08-71.96-.29-24.48-13.26-46.1-26.05-54.88z"/>
      <path d="M284.83 194.83c18.75 9.6 59.55 57.87 15.63 112.34 27.29-6.06 61.98-86.42-15.63-112.34zm-57.58 0c-18.75 9.6-59.56 57.87-15.64 112.34-27.29-6.06-61.98-86.42 15.63-112.34z"/>
      <path d="M232.2 197.49c-8.45 10.36-34.51 67.65 15.73 105.18 23.62 17.78 9 18.67 8.3 21.66-37.97-20.16-50.37-47.49-50.08-71.96.29-24.48 13.26-46.1 26.05-54.88z"/>
      <path d="M304.2 319.11c-14.86.24-33.6-2.05-47.49-9.27 2.29 4.45 4.2 7.26 6.48 11.7 13.25 1.23 31.53 2.74 41-2.43zm-94.98 0c14.86.24 33.6-2.05 47.5-9.27-2.3 4.45-4.2 7.26-6.49 11.7-13.25 1.23-31.53 2.74-41-2.43zm27.26-138.71c3.01 8 10.91 9.16 19.37 4.45 6.16 3.7 15.69 3.93 18.97-4.07 2.5 19.79-18.3 15.1-19.08 11.23-7.74 7.5-22.16 3.17-19.26-11.61z"/>
      <path d="M256.4 331.57l7.82-8.93 1.11-120.18-9.3-8.18-9.3 7.8 1.86 120.93 7.81 8.56z"/>
    </g>
  </g>
</svg>
