<svg xmlns="http://www.w3.org/2000/svg" height="480" width="640" version="1" xmlns:xlink="http://www.w3.org/1999/xlink" viewBox="0,0 30,18">
    <g clip-path="url(#a)">
        <path fill="#fff" d="M-3.75-2.25h37.5v22.5h-37.5z"/>
        <path d="M-3.75-2.25v1.445l16.328 9.805-16.328 9.805v1.445h2.461l16.289-9.805 16.289 9.805h2.461v-1.445l-16.328-9.805 16.328-9.805v-1.445h-2.461l-16.289 9.805-16.289-9.805h-2.461z" fill-rule="evenodd" fill="#df112d"/>
        <g transform="matrix(.153 0 0 .153 -3.297 -2.279)">
            <path d="M132.66 22.233c3.156 12.778 1.425 28.56-12.829 37.316-14.255-8.756-15.986-24.538-12.829-37.316 3.36-3.055 18.632-4.938 25.658 0z" stroke="#000" stroke-width=".125" fill="#e8112d"/>
            <path d="M119.81 19.667c5.226 0 10.093 1.383 12.962 3.176.563-4.406 2.561-8.812 4.918-12.142-2.459-.051-3.561 1.255-3.586 2.613-.615-1.742-3.023-1.639-3.766-.692 2.69 1.819.615 5.046-1.818 4.38-1.143-.313-1.747-1.11-1.961-2.267.263-.018.524-.114.744-.292.567-.46.654-1.293.194-1.86s-1.292-.654-1.86-.194c-.567.46-.654 1.293-.193 1.86.15.186.343.319.551.399-.769 1.255-2.148 1.632-3.136 1.355-1.281-.359-1.819-1.511-1.819-2.536 0-2.664 2.561-3.074 3.33-2.613-.051-1.793-2.869-3.228-3.74-1.742.973-1.742.922-4.201-.82-5.84-1.741 1.639-1.793 4.098-.819 5.84-.871-1.486-3.689-.051-3.74 1.742.768-.461 3.33-.051 3.33 2.613 0 1.025-.538 2.177-1.819 2.536-.988.277-2.367-.1-3.137-1.355.209-.08.401-.212.552-.399.46-.567.373-1.4-.194-1.86s-1.4-.373-1.86.194-.373 1.4.194 1.86c.221.179.482.275.745.292-.214 1.157-.819 1.954-1.961 2.267-2.433.666-4.508-2.562-1.819-4.38-.742-.948-3.15-1.05-3.765.692-.026-1.358-1.127-2.664-3.586-2.613 2.356 3.33 4.354 7.736 4.918 12.142 2.869-1.793 7.736-3.176 12.961-3.176z" stroke="#000" stroke-width=".125" fill="#f9dd16"/>
            <g id="b" stroke="#000">
                <g stroke-width=".125" fill="#f9dd16">
                    <path d="M130.65 32.2c-.315.075-.315.481-.48.481.819-.023 1.217-.248 1.465-.661-.18.165-.023.481-.083.556.601-.21.887-.721.677-1.067.135.195.526.301.646.316-.421-.331-.12-1.082-.797-1.473.226-.015.662.24.782.541-.105-.676-.211-1.112-.767-1.488.06.068.376.128.511 0-.36-.226-.466-.601-.435-.842.042-.337-.181-.406-.602-.301-.379.095-1.247.15-1.758.15-1.052 0-1.969 0-2.841-.601 1.308.541 2.976-.601 2.976-1.548 0-1.052-1.293-1.909-3.908-1.338s-5.801.331-5.801-.541c0-.872 2.284-.992 3.457-.812 1.172.18 2.013.301 4.208-.481-.541.21-2.285.271-3.667-.12-1.383-.391-4.78-.391-4.81 1.443-.03 1.834 3.617 1.667 6.764 1.202 1.833-.271 2.795-.09 2.795.511 0 .571-1.683.812-2.976.661-1.292-.15-2.615-.12-4.148.331-1.28.376-2.164 0-3.577.24-.685.116-2.345 0-3.164-1.353-.504.361-2.022 1.116-2.277 1.853-.361.676-.12 1.349.36 2.01.606.832-.3.706-.946.737-.886.041-2.072-.094-2.691-.797-.548-.623-1.278-1.121-1.861-.66-.3.237-.012.55.225.463.235-.086.513.087.764.197-.401-.172-.842-.039-1.014.115-.237.212.051.618.338.475.225-.113.687-.188.987.087-.325-.063-.663-.049-.825.125s-.037.428.313.412c.562-.025.706.369 1.269.288-.346.045-.542.225-.632.361.526-.24 1.107.408 1.789.256-.266.11-.695.371-.691.571.405-.466 3.126.361 3.186-.661.075.21.06.526-.15.797.348-.21 1.473-.286 1.818-1.097.03.24-.015.556-.225.631.361.118.836-.151 1.322-.872.193-.286.239-.476.206-.691.482.018.831-.103 1.207-.421.391-.331.812.271 1.473-.15.662-.421 1.233-.06 1.593-.271.361-.21.857.075 1.248-.165s.997.118 1.644-.393c1.018.373 2.206 1.064 5.12.528 1.67-.307 2.194.256 2.194 1.022 0 .526-.308.572-.541.586-.929.057-1.328-.348-1.695-.218-.246.088-.396.488-.04.625-.294.15-.256.431-.106.534s.537.009.8-.113c-.338.153-.688.428-.488.716.121.174.427.322.713-.05.287-.375.812-.688 1.146-.638z"/>
                    <path d="M112.14 24.264c-.842-.346-1.126-.355-.932.331.083.293.285.706.488.894.008-.285.113-1.075.444-1.225z"/>
                    <path d="M114.77 24.264c.842-.346 1.126-.355.932.331-.083.293-.286.706-.489.894-.007-.285-.112-1.075-.443-1.225z"/>
                    <path d="M113.46 23.802c1.593 0 1.792.748 1.784 1.679-.007 1.007-.548.661-.856 1.954-.12.505-.523.534-.928.534-.406 0-.808-.028-.929-.534-.307-1.293-.849-.947-.856-1.954-.008-.932.191-1.679 1.785-1.679z"/>
                    <path d="M109.36 27.495c-.406-.24-.668-.074-.833-.029.526.135.547.81 1.75 1.126-.271-.075-.421.075-.677-.06.496.391 1.052.843 2.225.857.654.007.202.346-.226.15.444.458 1.323.083 1.879.917.105-.646-1.037-1.668-.511-2.405-1.622-.069-1.755-.968-2.69-1.683-.761-.582-.829-1.173-1.165-2.28-.153-.501-.74-.814-1.065-.695-.284.104-.388.35-.144.534.244.184.556.209.623.677-.317-.38-.792-.517-1.02-.28-.139.145-.083.482.216.513.487.05.137.525.691.99-.491-.552-.916-.602-1.179-.302-.157.18 0 .5.338.466.489-.05 1.056 1.191 1.788 1.505z"/>
                    <path d="M122.43 32.139c-.256.045-.18.466-.526.496.827 0 1.247-.196 1.638-.511-.18.105-.255.376-.27.526.436-.376 1.473-.406 2.014-.3s.631-.15.826-.496c.196-.346-.075-.541-.345-.812-.271-.271-.331-.646-.271-1.278-1.443-1.924-4.028-.992-4.058-.15.932 1.082 1.052.962 1.834 1.112.781.15 1.26.15.736.586-.18.15-.932.08-1.518.105-1.311.057-1.911-.906-2.298-.406-.319.411.01.593.66.571-.45.003-1.047-.021-.945.398.172.706.847-.131 1.11.159-.225-.053-.575.084-.588.297-.012.213.5.487 1.063.041.308-.245.701-.337.938-.339z"/>
                </g>
                <g stroke-width=".125" fill="none">
                    <path d="M123.55 29.206c-.469-.172-.899-.277-1.449-.163"/>
                    <path d="M116.48 28.983c-.386.829-.152 1.239-.095 1.624"/>
                    <path d="M112.37 25.052c.265.133.414-.242.803.156-.107-.116-.24.308-.538.027"/>
                    <path d="M114.53 25.052c-.265.133-.414-.242-.803.156.107-.116.24.308.538.027"/>
                    <path d="M113.73 25.207c-.091.075-.1-.06-.031.295.128.651.279.956-.248.956-.538 0-.375-.305-.248-.956.07-.355.061-.22-.03-.295"/>
                </g>
                <path d="M113.46 27.706c.428 0 .676-.007.609-.609-.028-.241.293-.337.18-.729.12.481-.789.435-.789.217 0 .218-.909.264-.789-.217-.113.392.207.488.18.729-.067.601.181.609.609.609z" stroke-width=".063" fill="#ff0016"/>
                <g stroke-width=".063">
                    <path d="M113.07 26.489l-1.028-.287"/>
                    <path d="M113.07 26.543l-1.148-.01"/>
                    <path d="M113.08 26.602l-.979.262"/>
                    <path d="M113.84 26.489l1.028-.287"/>
                    <path d="M113.84 26.543l1.148-.01"/>
                    <path d="M113.83 26.602l.979.262"/>
                </g>
                <g stroke-width=".013" fill="#0051ba">
                    <path d="M108.13 23.414c-.299-.372-1.048-.058-1.063.404.253-.299.666.132.891.041.156-.063.293-.294.172-.445z"/>
                    <path d="M107.75 24.295c-.299-.372-1.047-.058-1.062.404.252-.299.665.132.891.041.156-.063.293-.294.171-.445z"/>
                    <path d="M107.55 25.479c-.339-.336-1.047.06-1.01.521.218-.326.676.056.89-.059.148-.08.258-.325.12-.462z"/>
                    <path d="M107.91 29.148c-.376-.295-1.033.18-.944.634.179-.349.678-.022.877-.161.138-.097.22-.352.067-.472z"/>
                    <path d="M107.89 29.951c-.448-.165-.928.489-.703.893.062-.387.638-.229.785-.423.102-.134.1-.403-.082-.47z"/>
                    <path d="M108.46 30.551c-.448-.165-.928.489-.704.893.063-.387.639-.23.786-.423.102-.134.1-.403-.082-.47z"/>
                    <path d="M120.2 31.714c-.448-.165-.928.489-.703.893.063-.387.638-.229.785-.423.102-.134.1-.403-.082-.47z"/>
                    <path d="M120.81 32.258c-.464-.113-.866.592-.597.968.018-.392.608-.301.732-.51.086-.145.054-.411-.135-.457z"/>
                    <path d="M120.38 30.942c-.414-.239-.998.325-.845.761.128-.37.668-.117.846-.284.123-.115.167-.38-.001-.477z"/>
                    <path d="M128.73 31.883c-.464-.113-.866.592-.597.968.019-.392.609-.301.732-.51.086-.145.054-.411-.135-.458z"/>
                    <path d="M128.75 31.146c-.421-.225-.985.359-.818.789.115-.375.664-.14.836-.313.119-.119.154-.385-.018-.477z"/>
                    <path d="M129.07 32.542c-.468-.093-.839.629-.554.993.002-.392.595-.327.709-.542.08-.149.036-.413-.155-.451z"/>
                    <path d="M113.49 27.345c.294 0 .413.086.413.617 0 1.125-.013 1.609-.375 1.609-.363 0-.338-.46-.338-1.286 0-.431 0-.646-.087-.611 0-.281.125-.33.387-.33z"/>
                </g>
            </g>
            <use xlink:href="#b" transform="matrix(.9 0 0 .9 11.6 13.7)" height="18" width="30"/>
            <use xlink:href="#b" transform="matrix(.67 0 0 .75 39.2 27.5)" height="18" width="30"/>
        </g>
    </g>
</svg>
