<svg xmlns="http://www.w3.org/2000/svg" height="480" width="640">
    <g clip-path="url(#a)" fill-rule="evenodd">
        <path fill="#fff" d="M-29.611 3.03h701.05v475.909h-701.05z"/>
        <path fill="#008900" d="M-29.611 342.715h701.05v137.284h-701.05z"/>
        <path fill="#c23743" d="M-31.441 175.087h701.05v137.284h-701.05z"/>
        <path d="M-29.611 0h701.05v149.459h-701.05z"/>
        <path d="M226.835 409.302c35.439-65.959 154.239-284.427 153.072-285.062-19.429-11.403 15.704-28.92 41.505-69.992-18.382 44.143-16.431 85.339-35.303 73.48-31.386 59.239-128.405 240.312-152.521 285.043-2.554-1.372-3.305-1.932-6.749-3.466z" stroke="#000" stroke-width="1.009654" fill="#fff"/>
        <path d="M404.583 411.889c-35.441-65.953-154.248-284.427-153.072-285.062 19.429-11.403-15.704-28.92-41.505-69.992 18.382 44.143 16.431 85.339 35.303 73.48 31.386 59.239 128.405 240.312 152.521 285.043 2.554-1.372 3.305-1.932 6.749-3.466z" stroke="#000" stroke-width="1.009654" fill="#fff"/>
        <path d="M314.505 81.736c111.655 78.709 109.825 269.069 0 334.966-102.505-69.557-117.145-258.089 0-334.966z" stroke="#000" stroke-width="1.061024" fill="#c23743"/>
        <path d="M329.32 245.785c0 11.627-6.147 21.053-13.731 21.053-7.583 0-13.731-9.426-13.731-21.053s6.147-21.053 13.731-21.053c7.583 0 13.731 9.426 13.731 21.053z" fill="#fffffb"/>
        <path d="M313.804 89.059c31.396 30.375 30.88 103.841 0 129.273-28.822-26.843-32.939-99.602 0-129.273z" stroke="#000" stroke-width="0.349316" fill="#fff"/>
        <path d="M313.804 279.422c31.396 30.375 30.88 103.841 0 129.273-28.822-26.843-32.939-99.602 0-129.273z" stroke="#000" stroke-width="0.349316" fill="#fff"/>
        <path fill="#c23743" d="M307.185 89.06h12.812v131.794h-12.812z"/>
        <path fill="#c23743" d="M309.015 277.592h12.812v131.794h-12.812z"/>
        <path d="M246.115 171.427c19.047 35.465 18.736 121.234 0 150.934-17.486-31.341-19.985-116.286 0-150.934z" stroke="#000" stroke-width="0.29421"/>
        <path d="M385.229 173.257c19.047 35.465 18.736 121.234 0 150.934-17.486-31.341-19.985-116.286 0-150.934z" stroke="#000" stroke-width="0.29421"/>
    </g>
</svg>
