<svg xmlns="http://www.w3.org/2000/svg" height="480" width="640"><defs><clipPath id="a"><rect fill-opacity=".67" height="512" width="682.67" x="-84.949"/></clipPath></defs><g clip-path="url(#a)" fill-rule="evenodd" transform="matrix(.938 0 0 .938 79.64 0)"><rect height="512" width="768.77" x="-128" fill="#be0027"/><path d="M105.45 261.14c13.658-16.61 41.95-.399 65.045-12.359-27.358 1.504-42.27-13.129-63.884-11.078 22.395-13.757 41.461 4.499 66.502-2.839-33.165-2.79-31.727-17.615-61.884-19.721 26.788-11.425 40.036 11.75 66.276 6.48-30.927-7.139-35.045-25.356-58.039-29.212 33.608-5.073 31.417 14.794 64.364 17.22-33.441-14.345-24.676-26.797-52.645-37.723 31.297-.739 29.222 20.951 60.93 26.64-27.144-17.22-23.791-32.935-46.149-45.232 26.524.48 29.114 27.629 56.184 36.041-24.148-19.16-17.797-35.314-38.664-52.424 26.383 6.188 22.542 29.611 50.019 44.552-20.363-22.615-12.55-38.805-30.314-57.318 25.374 8.172 15.735 30.432 42.065 51.595-15.094-24.855-5.775-40.707-20.629-61.677 23.559 12.166 12.151 34.872 34.023 57.558-10.295-25.508.015-41.352-10.507-63.941 20.152 15.057 8.166 39.323 24.422 62.472-5.926-31.919 7.841-37.17 3.557-65.124 15.306 18.79-1.802 37.581 9.948 65.26-1.431-31.476 15.294-38.795 12.394-64.067 15.169 22.645-8.507 42.353 1.395 66.605 2.561-29.864 22.185-37.597 22.49-60.836 11.933 21.332-14.111 36.672-9.883 64.955 8.57-31.196 29.476-35.051 31.943-56.025 7.235 24.678-21.265 36.15-19.598 63.501 8.488-27.736 34.62-30.989 39.962-51.476 3.296 26.107-22.401 30.742-29.635 59.585 13.512-23.54 37.143-25.471 47.783-44.089-.835 25.815-29.844 29.2-38.748 53.372 16.725-20.51 37.691-16.95 54.415-35.135-1.765 23.299-31.293 21.982-47.009 46.104 18.136-16.732 45.435-11.718 59.33-26.125-.674 20.608-36.908 19.059-53.996 37.479 21.075-11.545 47.757-4.764 63.225-15.487-2.827 18.068-41.076 13.845-59.356 27.946 25.211-6.985 44.677 3.809 65.102-3.995-9.94 17.587-44.634 6.455-63.054 17.888 21.879-3.705 45.126 9.55 65.091 5.298-6.562 15.201-44.58-.919-65.091 8.538 24.51-.215 40.403 15.434 63.134 14.399-12.363 13.763-45.788-5.162-65.262-1.93 23.759 4.915 41.911 24.602 59.926 25.55-14.784 11.352-42.423-14.497-64.864-11.215 23.105 6.185 42.516 32.472 55.774 33.048-14.284 9.761-42.517-22.464-61.861-21.319 23.496 10.62 34.272 37.515 49.698 41.296-19.099 6.128-37.868-29.217-58.391-30.442 23.772 14.993 25.115 37.918 43.418 48.124-19.257 4.707-32.964-35.167-53.259-38.532 19.489 14.327 22.428 44.931 35.351 54.608-19.607 1.036-26.692-40.714-46.787-46.678 17.216 14.379 13.094 45.579 26.479 58.863-20.425-4.189-17.792-40.538-39.117-52.778 15.32 19.32 7.527 46.846 17.512 62.337-19.871-8.038-11.24-40.568-30.211-58.991 10.349 20.583-.774 44.587 7.388 64.487-18.153-8.854-5.944-47.384-19.856-62.666 6.395 23.786-5.4 43.47-.646 64.794-18.559-21.526 2.817-43.189-13.281-65.125 4.273 25.177-13.336 42.697-10.567 63.771-14.716-17.19 7.905-44.774-3.528-66.478 2.461 24.754-20.276 46.439-18.715 62.029-11.978-19.967 13.298-43.582 6.53-66.285-1.426 23.572-24.371 36.382-28.692 57.856-7.712-23.689 19.564-40.812 17.209-64.091-7.811 22.145-29.982 31.024-37.793 52.485-6.395-23.623 25.914-36.167 26.768-61.021-9.987 23.309-36.522 28.427-45.279 46.265-3.269-23.5 33.807-34.007 35.187-56.275-11.936 21.382-40.969 22.249-50.991 39.254-1.519-23.416 37.582-26.316 43.721-50.825-11.883 18.278-43.735 15.907-56.987 30.767 2.09-21.722 44.388-23.066 51.129-42.6-15.723 15.168-44.963 8.882-61.426 20.913 9.164-21.335 48.838-16.812 57.808-32.267-17.564 9.164-48.68.28-63.997 9.444 13.921-20.206 44.803-8.135 62.28-22.05-28.428 4.143-45.506-7.17-65.182-1.934z" fill="#ff0"/><path d="M355.939 256.111c0 54.8-44.424 99.222-99.222 99.222-54.8 0-99.222-44.424-99.222-99.222 0-54.8 44.424-99.222 99.222-99.222 54.8 0 99.222 44.424 99.222 99.222z" fill="#ff0"/><path d="M343.17 256.307c0 47.644-38.622 86.265-86.265 86.265-47.644 0-86.265-38.622-86.265-86.265 0-47.644 38.622-86.265 86.265-86.265 47.644 0 86.265 38.622 86.265 86.265z" fill="#be0027"/><path d="M331.156 256.487c0 40.911-33.165 74.075-74.075 74.075-40.911 0-74.075-33.165-74.075-74.075 0-40.911 33.165-74.075 74.075-74.075 40.911 0 74.075 33.165 74.075 74.075z" fill="#ff0"/><path d="M194.04 207.95c20.501-.451 46.033 1.418 62.859 14.893 17.859-11.154 39.005-16.311 60.54-14.313 3.675 6.705 7.349 13.41 11.025 20.115-15.989-1.613-31.591.646-50.095 8.124 23.597 18.696 35.395 42.809 34.622 72.144-2.707 3.352-6.963 7.091-9.671 10.443 3.932-28.496-11.089-60.279-32.881-76.978 17.73 25.596 28.304 48.676 25.339 80.46l-10.058 6.383c4.641-28.045-1.932-60.926-22.629-80.074 11.926 17.537 23.854 48.999 16.439 81.041l-11.411 4.642c8.318-26.239 3.094-59.056-10.832-78.719-13.796 19.794-18.31 50.029-10.445 77.946l-10.637-3.095c-5.673-30.043 2.193-63.957 15.861-81.62-13.926 8.059-27.079 42.614-23.405 77.946-3.352-1.547-5.931-2.708-9.283-4.256-4.513-26.369 7.413-60.666 24.564-80.461-19.471 12.25-35.266 42.295-32.494 74.659-2.966-2.643-5.738-3.932-8.704-6.576-3.417-28.239 12.894-56.67 32.106-73.691-16.182-7.221-30.043-8.64-50.094-8.318 3.159-6.512 6.126-14.183 9.284-20.695z" fill="#be0027"/></g></svg>