<svg xmlns="http://www.w3.org/2000/svg" height="480" width="640">
    <g clip-path="url(#a)" fill-rule="evenodd">
        <path fill="#be0027" d="M-40.36 0h720.722v480h-720.722z"/>
        <path d="M178.499 244.819c12.804-15.572 39.328-.374 60.98-11.587-25.648 1.41-39.628-12.308-59.891-10.386 20.995-12.897 38.87 4.218 62.346-2.661-31.092-2.615-29.744-16.514-58.016-18.488 25.114-10.711 37.534 11.016 62.134 6.075-28.994-6.693-32.855-23.771-54.412-27.386 31.507-4.756 29.453 13.869 60.341 16.144-31.351-13.448-23.134-25.122-49.355-35.365 29.341-.693 27.396 19.642 57.122 24.975-25.447-16.144-22.304-30.877-43.265-42.405 24.866.45 27.294 25.902 52.672 33.788-22.639-17.962-16.685-33.107-36.248-49.148 24.734 5.802 21.133 27.76 46.893 41.767-19.09-21.202-11.766-36.38-28.419-53.736 23.788 7.661 14.752 28.53 39.436 48.37-14.151-23.302-5.414-38.163-19.34-57.822 22.087 11.406 11.392 32.693 31.897 53.961-9.652-23.914.014-38.767-9.85-59.945 18.893 14.116 7.656 36.865 22.896 58.568-5.556-29.924 7.351-34.847 3.335-61.054 14.349 17.616-1.689 35.232 9.327 61.181-1.341-29.509 14.338-36.37 11.619-60.063 14.221 21.23-7.975 39.706 1.308 62.442 2.401-27.998 20.798-35.247 21.084-57.034 11.187 19.999-13.229 34.38-9.266 60.895 8.034-29.246 27.634-32.86 29.947-52.523 6.783 23.136-19.936 33.891-18.373 59.532 7.958-26.003 32.456-29.052 37.464-48.259 3.09 24.475-21.001 28.821-27.783 55.861 12.668-22.069 34.822-23.879 44.797-41.333-.783 24.202-27.979 27.375-36.326 50.036 15.68-19.228 35.335-15.891 51.014-32.939-1.655 21.843-29.337 20.608-44.071 43.222 17.002-15.686 42.595-10.986 55.622-24.492-.632 19.32-34.601 17.868-50.621 35.137 19.758-10.823 44.772-4.466 59.273-14.519-2.65 16.939-38.509 12.98-55.646 26.199 23.635-6.549 41.885 3.571 61.033-3.745-9.319 16.488-41.844 6.052-59.113 16.77 20.512-3.473 42.306 8.953 61.023 4.967-6.152 14.251-41.794-.861-61.023 8.004 22.978-.202 37.878 14.469 59.188 13.499-11.59 12.903-42.926-4.84-61.183-1.809 22.274 4.608 39.292 23.064 56.181 23.953-13.86 10.643-39.772-13.591-60.81-10.514 21.661 5.798 39.859 30.443 52.288 30.983-13.391 9.151-39.86-21.06-57.995-19.987 22.027 9.956 32.13 35.17 46.592 38.715-17.905 5.745-35.501-27.391-54.742-28.539 22.286 14.056 23.545 35.548 40.704 45.116-18.053 4.413-30.904-32.969-49.93-36.124 18.271 13.432 21.026 42.123 33.142 51.195-18.382.971-25.024-38.169-43.863-43.761 16.14 13.48 12.276 42.73 24.824 55.184-19.148-3.928-16.68-38.004-36.672-49.479 14.363 18.113 7.056 43.918 16.418 58.441-18.629-7.536-10.537-38.032-28.323-55.304 9.702 19.297-.725 41.8 6.926 60.457-17.018-8.3-5.572-44.422-18.615-58.749 5.995 22.299-5.062 40.753-.605 60.744-17.399-20.181 2.641-40.49-12.451-61.055 4.006 23.603-12.502 40.028-9.907 59.785-13.796-16.116 7.411-41.976-3.307-62.323 2.307 23.207-19.009 43.537-17.545 58.152-11.229-18.719 12.467-40.858 6.122-62.142-1.337 22.099-22.848 34.108-26.899 54.24-7.23-22.208 18.341-38.261 16.133-60.085-7.323 20.761-28.108 29.085-35.431 49.205-5.995-22.147 24.294-33.907 25.095-57.207-9.362 21.852-34.239 26.65-42.449 43.373-3.065-22.031 31.694-31.882 32.988-52.758-11.19 20.046-38.408 20.858-47.804 36.801-1.424-21.953 35.233-24.671 40.988-47.648-11.14 17.136-41.002 14.913-53.425 28.844 1.959-20.364 41.614-21.624 47.933-39.938-14.74 14.22-42.153 8.327-57.587 19.606 8.591-20.002 45.786-15.761 54.195-30.25-16.466 8.591-45.638.263-59.997 8.854 13.051-18.943 42.003-7.627 58.388-20.672-26.651 3.884-42.662-6.722-61.108-1.813z" fill="#ff0"/>
        <path d="M413.19 240.029c0 51.361-41.636 92.995-92.995 92.995-51.361 0-92.995-41.636-92.995-92.995 0-51.361 41.636-92.995 92.995-92.995 51.361 0 92.995 41.636 92.995 92.995z" fill="#ff0"/>
        <path d="M401.219 240.213c0 44.651-36.197 80.847-80.847 80.847-44.651 0-80.847-36.197-80.847-80.847 0-44.651 36.197-80.847 80.847-80.847 44.651 0 80.847 36.197 80.847 80.847z" fill="#be0027"/>
        <path d="M390.218 240.519c0 38.366-31.102 69.467-69.467 69.467-38.366 0-69.467-31.102-69.467-69.467 0-38.366 31.102-69.467 69.467-69.467 38.366 0 69.467 31.102 69.467 69.467z" fill="#ff0"/>
        <path d="M261.553 194.953c19.22-.423 43.156 1.33 58.93 13.962 16.743-10.457 36.567-15.292 56.756-13.418l10.336 18.858c-14.99-1.512-29.617.605-46.964 7.617 22.122 17.527 33.183 40.133 32.458 67.635l-9.066 9.79c3.687-26.715-10.396-56.512-30.826-72.167 16.622 23.996 26.535 45.634 23.755 75.431l-9.429 5.984c4.351-26.292-1.812-57.118-21.215-75.069 11.181 16.441 22.363 45.937 15.412 75.976l-10.698 4.352c7.798-24.599 2.9-55.365-10.155-73.799-12.934 18.557-17.166 46.902-9.792 73.074l-9.972-2.901c-5.318-28.165 2.056-59.96 14.87-76.519-13.056 7.556-25.387 39.951-21.942 73.074l-8.703-3.99c-4.231-24.721 6.95-56.874 23.029-75.432-18.254 11.484-33.062 39.652-30.463 69.993l-8.16-6.165c-3.203-26.474 12.088-53.128 30.099-69.085-15.171-6.77-28.165-8.1-46.963-7.798l8.704-19.402z" fill="#be0027"/>
    </g>
</svg>
