<svg xmlns="http://www.w3.org/2000/svg" height="480" width="640" version="1">
  <g fill-rule="evenodd" clip-path="url(#a)">
    <path fill="#1b0073" d="M-40 0h720v480h-720z"/>
    <path fill="#e60006" d="M-40 120h720v240h-720z"/>
    <g stroke="#e60000" fill="#fff">
      <path d="M167.51 232.658h305.259v49.36h-305.259z"/>
      <path d="M167.273 281.942l-4.93 11.61h315.52l-4.93-11.61h-305.66z"/>
      <path d="M408.355 281.943l-5.98 11.61h71.76l-5.98-11.61h-59.8z"/>
      <path d="M425.859 281.943l-3.015 11.61h36.18l-3.015-11.61h-30.15z"/>
      <path d="M430.986 281.943l-1.945 11.61h23.34l-1.945-11.61h-19.45z"/>
      <path d="M288.79 281.942l-6.29 11.61h75.48l-6.29-11.61h-62.9z"/>
      <path d="M165.797 231.913h308.695v11.614h-308.695z"/>
      <g>
        <path d="M407.981 232.765h60.5v49.167h-60.5z"/>
        <path d="M451.26 255.805h6.05v26.122h-6.05z"/>
        <path d="M424.64 255.805h6.05v26.122h-6.05z"/>
      </g>
      <g>
        <path d="M304.21 281.942l-3.16 11.61h37.92l-3.16-11.61h-31.6z"/>
        <path d="M310.181 281.942l-1.98 11.61h23.76l-1.98-11.61h-19.8z"/>
        <path d="M287.958 232.658h63.747v49.36h-63.747z"/>
        <path d="M338.749 255.801h6.05v26.122h-6.05z"/>
        <path d="M296.651 255.798h6.054v26.122h-6.054z"/>
        <path d="M304.705 220.713h30.87v61.294h-30.87z"/>
        <path d="M327.859 255.799h6.05v26.122h-6.05z"/>
        <path d="M307.541 255.8h6.054v26.122h-6.054z"/>
        <path d="M306.718 230.466l13.04 18.821 13.808-18.821h-26.847z"/>
      </g>
      <path d="M431.987 232.658h17.15v60.974h-17.15z"/>
      <path d="M434.843 232.658h11.421v60.974h-11.421z"/>
      <g>
        <path d="M171.274 281.943l-5.98 11.61h71.76l-5.98-11.61h-59.8z"/>
        <path d="M185.884 281.943l-2.815 11.61h33.78l-2.815-11.61h-28.15z"/>
        <path d="M190.793 281.943l-1.795 11.61h21.54l-1.795-11.61h-17.95z"/>
        <path d="M170.937 232.658h60.024v49.36h-60.024z"/>
        <path d="M182.64 255.807h6.05v26.122h-6.05z"/>
        <path d="M210.47 255.808h6.05v26.122h-6.05z"/>
        <path d="M191.517 232.658h17.15v60.974h-17.15z"/>
        <path d="M194.362 232.658h11.421v60.974h-11.421z"/>
      </g>
      <path d="M162.37 221.043h315.549v11.614h-315.549z"/>
      <g>
        <g>
          <path d="M114.318 327.965h411.531v14.928h-411.531z"/>
          <path d="M153.572 290.646h331.757v14.928h-331.757z"/>
          <path d="M148.507 293.845h341.887v14.928h-341.887z"/>
          <path d="M114.318 327.965h411.531v14.928h-411.531z"/>
          <path d="M139.643 302.375h360.881v14.928h-360.881z"/>
          <path d="M126.981 313.037h386.206v14.928h-386.206z"/>
        </g>
        <g>
          <path d="M191.621 290.662h17.156v52.25h-17.156z"/>
          <path d="M194.476 290.662h11.438v52.25h-11.438z"/>
        </g>
        <g>
          <path d="M431.714 290.662h17.156v52.25h-17.156z"/>
          <path d="M434.569 290.662h11.438v52.25h-11.438z"/>
        </g>
      </g>
      <path d="M313.804 232.659h13.783v110.333h-13.783z"/>
      <g>
        <path d="M411.793 233.063l.168-30.233s3.07 5.926 26.944 7.224c22.596-.767 26.338-4.391 27.362-7.604l-.936 30.725-53.538-.112z"/>
        <g>
          <path d="M427.205 197.669l-7.386-5.93c2.463-1.538 7.035 1.099 7.035 1.099s2.462-6.811 13.015-9.667c10.553 2.856 13.015 9.667 13.015 9.667s4.573-2.637 7.035-1.099l-7.387 5.932h-25.326z"/>
          <path d="M423.594 213.233l-9.615-8.323c3.206-2.158 9.157 1.542 9.157 1.542s3.205-9.558 16.943-13.567c13.737 4.009 16.942 13.567 16.942 13.567s5.952-3.7 9.158-1.542l-9.616 8.325h-32.968z"/>
        </g>
        <g>
          <path d="M440.211 151.426c.303 0 11.503 20.031 0 20.335-11.503.304 0-19.728 0-20.335z"/>
          <path d="M430.574 176.672l-5.692-3.108c1.898-.806 5.421.576 5.421.576s1.897-3.57 10.029-5.067c8.132 1.497 10.029 5.067 10.029 5.067s3.524-1.382 5.421-.576l-5.692 3.109h-19.516z"/>
          <path d="M435.385 179.212l-.14-2.533s.976-3.57 5.161-5.067c4.184 1.497 5.161 5.067 5.161 5.067l-.14 2.533h-10.042z"/>
          <path d="M430.199 186.874l-.278-3.383s1.946-4.767 10.289-6.767c8.342 1.999 10.289 6.767 10.289 6.767l-.278 3.383h-20.021z"/>
          <path d="M430.199 191.955l-.278-3.383s1.946-4.767 10.289-6.767c8.342 1.999 10.289 6.767 10.289 6.767l-.278 3.383h-20.021z"/>
          <path d="M430.574 207.355l-5.692-8.323c1.898-2.158 5.421 1.542 5.421 1.542s1.897-9.558 10.029-13.567c8.132 4.009 10.029 13.567 10.029 13.567s3.524-3.7 5.421-1.542l-5.692 8.325h-19.516z"/>
          <path d="M430.574 217.517l-5.692-8.323c1.898-2.158 5.421 1.542 5.421 1.542s1.897-9.558 10.029-13.567c8.132 4.009 10.029 13.567 10.029 13.567s3.524-3.7 5.421-1.542l-5.692 8.325h-19.516z"/>
          <path d="M430.199 232.629l-.278-8.466s1.946-11.93 10.289-16.934c8.342 5.003 10.289 16.934 10.289 16.934l-.278 8.466h-20.021z"/>
          <path d="M430.574 232.683l-5.692-6.237c1.898-1.617 5.421 1.156 5.421 1.156s1.897-7.163 10.029-10.167c8.132 3.004 10.029 10.167 10.029 10.167s3.524-2.773 5.421-1.156l-5.692 6.239h-19.516z"/>
        </g>
      </g>
      <g>
        <g>
          <path d="M187.46 195.499l-7.386-5.93c2.463-1.538 7.035 1.099 7.035 1.099s2.462-6.811 13.015-9.667c10.553 2.856 13.015 9.667 13.015 9.667s4.573-2.637 7.035-1.099l-7.387 5.932h-25.326z"/>
          <path d="M183.849 211.063l-9.615-8.323c3.206-2.158 9.157 1.542 9.157 1.542s3.205-9.558 16.943-13.567c13.737 4.009 16.942 13.567 16.942 13.567s5.952-3.7 9.158-1.542l-9.616 8.325h-32.968z"/>
        </g>
        <path d="M174.101 233.063l.168-30.233s3.07 5.926 26.944 7.224c22.596-.767 26.338-4.391 27.362-7.604l-.936 30.725-53.538-.112z"/>
        <g>
          <path d="M200.115 151.426c.303 0 11.503 20.031 0 20.335-11.503.304 0-19.728 0-20.335z"/>
          <path d="M190.478 176.672l-5.692-3.108c1.898-.806 5.421.576 5.421.576s1.897-3.57 10.029-5.067c8.132 1.497 10.029 5.067 10.029 5.067s3.524-1.382 5.421-.576l-5.692 3.109h-19.516z"/>
          <path d="M195.289 179.212l-.14-2.533s.976-3.57 5.161-5.067c4.184 1.497 5.161 5.067 5.161 5.067l-.14 2.533h-10.042z"/>
          <path d="M190.103 186.874l-.278-3.383s1.946-4.767 10.289-6.767c8.342 1.999 10.289 6.767 10.289 6.767l-.278 3.383h-20.021z"/>
          <path d="M190.103 191.955l-.278-3.383s1.946-4.767 10.289-6.767c8.342 1.999 10.289 6.767 10.289 6.767l-.278 3.383h-20.021z"/>
          <path d="M190.478 207.355l-5.692-8.323c1.898-2.158 5.421 1.542 5.421 1.542s1.897-9.558 10.029-13.567c8.132 4.009 10.029 13.567 10.029 13.567s3.524-3.7 5.421-1.542l-5.692 8.325h-19.516z"/>
          <path d="M190.478 217.517l-5.692-8.323c1.898-2.158 5.421 1.542 5.421 1.542s1.897-9.558 10.029-13.567c8.132 4.009 10.029 13.567 10.029 13.567s3.524-3.7 5.421-1.542l-5.692 8.325h-19.516z"/>
          <path d="M190.103 232.629l-.278-8.466s1.946-11.93 10.289-16.934c8.342 5.003 10.289 16.934 10.289 16.934l-.278 8.466h-20.021z"/>
          <path d="M190.478 232.683l-5.692-6.237c1.898-1.617 5.421 1.156 5.421 1.156s1.897-7.163 10.029-10.167c8.132 3.004 10.029 10.167 10.029 10.167s3.524-2.773 5.421-1.156l-5.692 6.239h-19.516z"/>
        </g>
      </g>
      <g transform="matrix(.968 0 0 .968 -40.064 0)">
        <rect ry="6.449" height="12.898" width="85.039" y="226.28" x="329.53"/>
        <path d="M415.79 233.86l.546-42.52s-1.64 10.43-6.561 10.43h-75.46c-4.921 0-6.562-10.43-6.562-10.43l.546 42.52h87.49z"/>
        <g>
          <path d="M399.076 214.536l.164-14.7s9.423-1.721 8.115-5.357c-1.308-3.635-12.642 4.584-12.642 4.584h-45.336s-11.334-8.219-12.642-4.584c-1.308 3.635 8.115 5.357 8.115 5.357l.163 14.7h54.06z"/>
          <path d="M404.485 226.536l.197-14.7s11.307-1.721 9.738-5.357c-1.57-3.635-15.17 4.584-15.17 4.584h-54.403s-13.601-8.219-15.17-4.584c-1.569 3.635 9.738 5.357 9.738 5.357l.196 14.7h64.872z"/>
          <path d="M380.534 152.407l.053-6.684s3.062-.783 2.637-2.436c-.425-1.653-3.548-4.792-8.035-8.112-3.158-1.541 4.064-6.876-2.739-7.232-6.243.198-.705 6.086-2.739 7.469-5.049 3.082-9.013 6.222-9.438 7.875-.425 1.653 2.638 2.436 2.638 2.436l.053 6.684h17.57z"/>
          <path d="M391.019 189.753l.116-12.036s6.667-1.409 5.742-4.386c-.925-2.977-8.944 3.753-8.944 3.753h-32.075s-8.019-6.73-8.944-3.753c-.925 2.977 5.742 4.386 5.742 4.386l.115 12.036h38.247z"/>
          <path d="M395.027 199.573l.139-12.036s8.009-1.409 6.898-4.386c-1.112-2.977-10.745 3.753-10.745 3.753h-38.536s-9.634-6.73-10.745-3.753c-1.111 2.977 6.898 4.386 6.898 4.386l.139 12.036h45.951z"/>
          <path d="M384.27 171.89l.075-8.169s4.311-.956 3.713-2.977c-.598-2.02-5.784 2.547-5.784 2.547h-20.741s-5.185-4.568-5.784-2.547c-.598 2.02 3.713 2.977 3.713 2.977l.075 8.169h24.732z"/>
          <path d="M386.918 178.56l.09-8.169s5.183-.956 4.463-2.977c-.719-2.02-6.953 2.547-6.953 2.547h-24.935s-6.234-4.568-6.953-2.547c-.719 2.02 4.463 2.977 4.463 2.977l.09 8.169h29.733z"/>
          <path d="M380.894 158.107l.053-6.684s3.062-.783 2.637-2.436c-.425-1.653-4.109 2.084-4.109 2.084h-14.734s-3.684-3.737-4.109-2.084c-.425 1.653 2.637 2.436 2.637 2.436l.053 6.684h17.57z"/>
          <path d="M382.666 163.567l.064-6.684s3.675-.783 3.165-2.436c-.51-1.653-4.93 2.084-4.93 2.084h-17.681s-4.42-3.737-4.93-2.084c-.51 1.653 3.165 2.436 3.165 2.436l.064 6.684h21.083z"/>
        </g>
        <g>
          <path d="M366.393 163.877l-3.26-3.681c1.087-.955 3.105.682 3.105.682s1.087-4.227 5.745-6c4.658 1.773 5.745 6 5.745 6s2.018-1.637 3.105-.682l-3.261 3.682h-11.179z"/>
          <path d="M364.208 169.876l-4.568-3.681c1.523-.955 4.351.682 4.351.682s1.523-4.227 8.049-6c6.526 1.773 8.049 6 8.049 6s2.828-1.637 4.351-.682l-4.569 3.682h-15.663z"/>
          <path d="M362.94 180.37l-5.213-4.908c1.738-1.273 4.965.909 4.965.909s1.738-5.636 9.185-8c7.447 2.364 9.185 8 9.185 8s3.227-2.182 4.965-.909l-5.213 4.909h-17.873z"/>
          <path d="M360.746 193.265l-6.521-6.135c2.174-1.591 6.21 1.137 6.21 1.137s2.174-7.045 11.49-10c9.316 2.955 11.489 10 11.489 10s4.037-2.728 6.211-1.137l-6.521 6.136h-22.358z"/>
          <path d="M359.219 203.9l12.434 15.489 13.166-15.489h-25.599z"/>
          <path d="M358.551 205.526l-7.829-6.83c2.61-1.771 7.456 1.266 7.456 1.266s2.609-7.844 13.794-11.134c11.184 3.29 13.794 11.134 13.794 11.134s4.846-3.037 7.456-1.266l-7.829 6.832h-26.842z"/>
          <path d="M358.18 220.998l13.471 19.464 14.264-19.464h-27.735z"/>
          <path d="M357.624 223.083l-8.492-8.589c2.831-2.227 8.087 1.591 8.087 1.591s2.831-9.864 14.963-14c12.132 4.137 14.962 14 14.962 14s5.257-3.819 8.088-1.591l-8.493 8.591h-29.115z"/>
          <path d="M357.624 240.357l-8.492-8.589c2.831-2.227 8.087 1.591 8.087 1.591s2.831-9.864 14.963-14c12.132 4.137 14.962 14 14.962 14s5.257-3.819 8.088-1.591l-8.493 8.591h-29.115z"/>
        </g>
      </g>
      <g>
        <path d="M236.209 255.803h6.05v26.122h-6.05z"/>
        <path d="M256.779 255.801h6.05v26.122h-6.05z"/>
        <path d="M247.099 255.8h6.05v26.122h-6.05z"/>
        <path d="M357.016 255.802h6.05v26.122h-6.05z"/>
        <path d="M398.156 255.8h6.05v26.122h-6.05z"/>
        <path d="M377.586 255.799h6.05v26.122h-6.05z"/>
        <path d="M367.906 255.798h6.05v26.122h-6.05z"/>
        <path d="M387.266 255.798h6.05v26.122h-6.05z"/>
        <path d="M277.349 255.802h6.05v26.122h-6.05z"/>
        <path d="M266.459 255.8h6.05v26.122h-6.05z"/>
      </g>
    </g>
  </g>
</svg>
