<svg xmlns="http://www.w3.org/2000/svg" id="flag-icon-css-ki" width="640" height="480">
  <defs>
    <clipPath id="a">
      <path fill-opacity=".67" d="M-86.33 0h682.67v512H-86.33z"/>
    </clipPath>
  </defs>
  <g clip-path="url(#a)" transform="translate(80.93) scale(.9375)">
    <path fill="#e73e2d" fill-rule="evenodd" d="M-164.28 0h835.79v306.49h-835.79z"/>
    <path fill="#fec74a" fill-rule="evenodd" stroke="#d8aa3f" stroke-width="1.67" d="M204.3 282.11c-19.43-15.17-55.63-10.04-61.6-51.29 27.72 21.47 22.69-1.22 64.09 19.23l-2.49 32.06z"/>
    <path fill="#fec74a" fill-rule="evenodd" stroke="#d8aa3f" stroke-width="1.67" d="M209.47 263.35c-13.85-20.4-49.88-26.6-42.92-67.69 19.8 28.93 21.97 5.78 55.1 37.94l-12.18 29.75z"/>
    <path fill="#fec74a" fill-rule="evenodd" stroke="#d8aa3f" stroke-width="1.67" d="M215.77 250.01c-5-24.14-35.92-43.65-13.78-78.96 7.24 34.3 18.09 13.74 36.42 56.13L215.77 250z"/>
    <path fill="#fec74a" fill-rule="evenodd" stroke="#d8aa3f" stroke-width="1.67" d="M230.32 237.61c2.65-24.51-20.79-52.57 11.12-79.38-3.64 34.87 13 18.64 17.43 64.6l-28.55 14.78z"/>
    <path fill="#fec74a" fill-rule="evenodd" stroke="#d8aa3f" stroke-width="1.67" d="M243.26 227.67c12.46-21.28 2.56-56.47 42.65-67.86-17.6 30.32 4.23 22.32-10.55 66.06l-32.1 1.8z"/>
    <path fill="#fec74a" fill-rule="evenodd" stroke="#d8aa3f" stroke-width="1.67" d="M262.07 230.29c18.56-16.23 20.33-52.75 61.96-50.85-26.3 23.18-3.06 22.51-30.94 59.32l-31.02-8.47z"/>
    <path fill="#fec74a" fill-rule="evenodd" stroke="#d8aa3f" stroke-width="1.67" d="M278.57 239.87c22.5-10.07 34.91-44.46 74.15-30.43-31.94 14.45-9.53 20.63-46.99 47.63l-27.16-17.2z"/>
    <path fill="#fec74a" fill-rule="evenodd" stroke="#d8aa3f" stroke-width="1.67" d="M292.49 254.93c24.43-3.33 46.02-32.84 79.72-8.32-34.72 4.86-14.95 17.1-58.5 32.47l-21.22-24.15z"/>
    <path fill="#fec74a" fill-rule="evenodd" stroke="#d8aa3f" stroke-width="1.67" d="M379.46 259.6l-112.06 2.46 4.7 30.2 107.36-32.66z"/>
    <path fill="#fec74a" fill-rule="evenodd" stroke="#d8aa3f" stroke-width="1.67" d="M363 218.41l-103.84 39.86 17.39 33.37L363 218.41z"/>
    <path fill="#fec74a" fill-rule="evenodd" stroke="#d8aa3f" stroke-width="1.67" d="M280.58 280.67l53.72-97.54-82.4 76.7 28.68 20.84z"/>
    <path fill="#fec74a" fill-rule="evenodd" stroke="#d8aa3f" stroke-width="1.67" d="M279.46 272.63l17.27-109.47-53.81 97.28 36.54 12.2z"/>
    <path fill="#fec74a" fill-rule="evenodd" stroke="#d8aa3f" stroke-width="1.67" d="M273.01 263.74l-18.04-110.25L235 264.22l38.02-.48z"/>
    <path fill="#fec74a" fill-rule="evenodd" stroke="#d8aa3f" stroke-width="1.67" d="M263.68 254.29l-52.3-92.07 20.1 111.92 32.2-19.85z"/>
    <path fill="#fec74a" fill-rule="evenodd" stroke="#d8aa3f" stroke-width="1.67" d="M255.56 253.6l-81.1-68.48 57.67 98 23.43-29.52z"/>
    <path fill="#fec74a" fill-rule="evenodd" stroke="#d8aa3f" stroke-width="1.67" d="M145.95 218.89l87.07 71.9 13.39-37.62-100.46-34.28z"/>
    <path fill="#fec74a" fill-rule="evenodd" stroke="#d8aa3f" stroke-width="1.67" d="M232.1 260.85l-102.31-1.44 101.88 34.01.43-32.57z"/>
    <path fill="#fec74a" fill-rule="evenodd" stroke="#d8aa3f" stroke-width="1.67" d="M315.12 279.22a61.37 61.37 0 1 1-122.75 0 61.37 61.37 0 0 1 122.75 0z"/>
    <path fill="#005989" fill-rule="evenodd" d="M-165.12 303.4h839.9V512h-839.9z"/>
    <path fill="#fff" fill-rule="evenodd" d="M-165.6 454c15.62 7.23 38 25.32 61.92 25.3 40.04-.26 41.11-27.42 81.67-26.13 40.67 1.03 33.31 29.63 88.23 29.5 45.36-.13 60.02-34.67 99.13-30.54 28.96-1.49 40.82 32.72 85.33 33.15 46.17.99 63.13-37.28 92.1-34.1 30.85 0 40.96 30.81 84.25 31.03 55.13.28 64.83-32.07 99.32-30 24.55-.52 43.9 23.71 79.89 24.31 28.7.5 52.74-21.21 68.97-28.97l.8-36.83c-17.01 6.33-42.38 27.08-67.75 27.3-36.51 1.34-59.1-23.94-84.47-23.71-30.4.27-42.5 31.28-94.07 31.28-47.11 0-57.92-31.28-88.32-31.28-29.71.22-38.81 34.02-90.25 33.4-41.96-.51-58.31-32.27-88.02-32.04-31.5 0-64.08 30.88-98.95 29.4-48.14-2.04-58.55-29.4-90.05-29.4-23.54 0-48.94 25.64-77.3 26.06-28.21.44-59.9-25.5-62.83-26.06l.4 38.33zm0-72.93c15.62 7.23 38 25.32 61.92 25.3 40.04-.26 41.11-27.42 81.67-26.13 40.67 1.03 33.31 29.63 88.23 29.5 45.36-.13 60.02-34.67 99.13-30.54 28.96-1.49 40.82 32.72 85.33 33.15 46.17.99 63.13-37.28 92.1-34.1 30.85 0 40.96 30.81 84.25 31.03 55.13.28 64.83-32.07 99.32-30 24.55-.52 43.9 23.71 79.89 24.31 28.7.5 52.74-21.21 68.97-28.97l.8-36.83c-17.01 6.33-42.38 27.08-67.75 27.3-36.51 1.34-59.1-23.94-84.47-23.71-30.4.27-42.5 31.28-94.07 31.28-47.11 0-57.92-31.29-88.32-31.29-29.71.23-38.81 34.03-90.25 33.4-41.96-.5-58.31-32.26-88.02-32.03-31.5 0-64.08 30.88-98.95 29.4-48.14-2.04-58.55-29.4-90.05-29.4-23.54 0-48.94 25.64-77.3 26.06-28.21.44-59.9-25.5-62.83-26.06l.4 38.33z"/>
    <path fill="#fff" fill-rule="evenodd" d="M-165.6 308.92c15.6 7.23 37.95 25.32 61.87 25.3 40-.26 41.07-27.42 81.59-26.13 40.63 1.04 33.28 29.63 88.14 29.5 45.33-.13 59.97-34.67 99.04-30.53 28.94-1.5 40.78 32.7 85.26 33.14 46.12.99 63.06-37.28 92-34.1 30.83 0 40.93 30.81 84.17 31.03 55.09.28 64.77-32.07 99.23-30 24.53-.52 43.87 23.71 79.82 24.31 28.68.5 52.69-21.21 68.9-28.97l.8-36.83c-17 6.33-42.34 27.08-67.68 27.3-36.48 1.34-59.04-23.94-84.39-23.71-30.37.27-42.47 31.28-93.99 31.28-47.06 0-57.86-31.28-88.23-31.28-29.68.22-38.78 34.02-90.17 33.4-41.92-.51-58.25-32.27-87.94-32.04-31.47 0-64.01 30.88-98.86 29.4-48.1-2.04-58.49-29.4-89.96-29.4-23.52 0-48.9 25.64-77.23 26.06-28.15.44-59.81-25.5-62.74-26.06l.4 38.33z"/>
    <path fill="#ffc84b" fill-rule="evenodd" stroke="#d8aa3f" stroke-width="1.78" d="M136.81 75.96c61.05-4.18 49.92-9.4 74.5-13.32 30.96 4.26 34.5 23 51.75 34.5 0 0-6.48 21.93-27.7 18.83-2.86-8.8 10.27-11.52-27.5-34.54-21.96-1.31-61.25 3.85-71.05-5.47zm189.26 33.93l-43.98 1.81v10.87c29.67.95 35.01-3.02 43.98-12.68z"/>
    <path fill="#ffc84b" fill-rule="evenodd" stroke="#d8aa3f" stroke-linejoin="round" stroke-width="1.67" d="M174.84 108.07c7.67-3.92 11.48-2.32 18.12-2.58 4.57 8.28 8.88 9.06 18.88 10.1 15.27 21.46 36.74 21.72 39.84 21.72 29.92-.78 39.41-21.73 59.5-24.06h21.22c-3.54-6.03-6.3-9.48-13.97-9.83-15.78-.86-36.22-.43-54.07 3.62l-25.1 6.21c-7.32-3.53-25.26-22.33-36.73-21.99-6.73 1.81-6.73 4.14-10.09 6.73-6.47 2.76-12.93 1.44-17.6 10.08z"/>
    <path fill="#ffc84b" fill-rule="evenodd" stroke="#d8aa3f" stroke-width="1.67" d="M205.1 98.91a3.17 3.17 0 1 1-6.34 0 3.17 3.17 0 0 1 6.34 0z"/>
    <path fill="#ffc84b" fill-rule="evenodd" stroke="#d8aa3f" stroke-width="1.78" d="M225.56 107.82c44.93-54.15 84.16-47.51 135.3-51.22 1.73 6.3 1.12 15.7-23.28 24.06-33.37 4.91-93.13 40.1-93.4 40.1-11.12-.52-18.88-12.16-18.62-12.94z"/>
    <path fill="none" stroke="#d9a43e" stroke-linecap="round" stroke-width="1.78" d="M317.87 72.54L351 73.97m-36.74 3.97l24.15 1.97"/>
  </g>
</svg>
