<svg xmlns="http://www.w3.org/2000/svg" height="480" width="640">
  <g clip-path="url(#a)" fill-rule="evenodd">
    <path fill="#ff0" d="M0 0h720.722v120h-720.722z"/>
    <path fill="#fff" d="M0 120h720.722v120h-720.722z"/>
    <path fill="#be0027" d="M0 240h720.722v120h-720.722z"/>
    <path fill="#3b5aa3" d="M0 360h720.722v120h-720.722z"/>
    <path d="M0 0v480l357.994-239.325-357.994-240.675z" fill="#239e46"/>
    <path d="M147.384 132.591c-79.778-4.041-116.128 59.503-116.044 108.628-.182 58.097 54.871 106.013 105.759 103.116-27.441-12.975-60.945-49.369-61.253-103.359-.281-48.919 27.653-91.453 71.538-108.384z" fill="#fff"/>
    <path fill="#fff" d="M146.166 184.722l-11.242-8.797-13.628 4.289 4.889-13.421-8.279-11.634 14.274.496 8.498-11.472 3.932 13.732 13.548 4.543-11.853 7.99z"/>
    <path fill="#fff" d="M145.927 233.531l-11.242-8.797-13.628 4.289 4.889-13.421-8.279-11.634 14.274.496 8.498-11.472 3.932 13.732 13.548 4.543-11.853 7.99z"/>
    <path fill="#fff" d="M146.166 282.822l-11.242-8.797-13.628 4.289 4.889-13.421-8.279-11.634 14.274.496 8.498-11.472 3.932 13.732 13.548 4.543-11.853 7.99z"/>
    <path fill="#fff" d="M145.927 332.585l-11.242-8.797-13.628 4.289 4.889-13.421-8.279-11.634 14.274.496 8.498-11.472 3.932 13.732 13.548 4.543-11.853 7.99z"/>
  </g>
</svg>
