<svg xmlns="http://www.w3.org/2000/svg" id="flag-icon-css-kn" width="640" height="480">
  <defs>
    <clipPath id="a">
      <path fill-opacity=".67" d="M-80.1 0h682.66v512H-80.1z"/>
    </clipPath>
  </defs>
  <g fill-rule="evenodd" clip-path="url(#a)" transform="translate(75.1) scale(.9375)">
    <path fill="#ffe900" d="M-107.85.24H629.8v511.29h-737.65z"/>
    <path fill="#35a100" d="M-108.24.24l.86 368.58L466.6 0l-574.84.24z"/>
    <path fill="#c70000" d="M630.69 511.53l-1.35-383.25L50.36 511.82l580.33-.28z"/>
    <path d="M-107.87 396.61l.49 115.39 125.25-.16L629.63 101.7l-.69-100.32L505.18.24-107.87 396.6z"/>
    <path fill="#fff" d="M380.45 156.62l-9.9-42.24 33.35 27.07 38.01-24.64-17.44 41.31 33.4 27.03-44.13-1.54-17.37 41.33-9.83-42.27-44.14-1.48zM105.21 335.53l-9.91-42.24 33.35 27.07 38.01-24.64-17.43 41.31 33.4 27.03-44.13-1.55-17.37 41.34-9.84-42.27-44.13-1.48z"/>
  </g>
</svg>
