<svg xmlns="http://www.w3.org/2000/svg" height="480" width="640" version="1">
  <g fill-rule="evenodd" clip-path="url(#a)">
    <path stroke="#000" stroke-width="NaN" fill="#fff" d="M723.071 479.712h-799.045v-479.271h799.045z"/>
    <path fill="#3e5698" d="M723.071 392.994h-799.045v86.725h799.045z"/>
    <path fill="#c60000" d="M723.071 372.902h-799.045v-265.651h799.045z"/>
    <path fill="#3e5698" d="M723.071.446h-799.045v86.725h799.045z"/>
    <path d="M303.245 240.353c0 59.523-49.792 107.774-111.213 107.774-61.422 0-111.213-48.252-111.213-107.774 0-59.523 49.792-107.774 111.213-107.774 61.422 0 111.213 48.252 111.213 107.774z" fill="#fff"/>
    <path fill="#c40000" d="M160.358 253.457l-53.532-38.069 66.65-.29 21.216-62.234 19.868 62.015 66.652-.4-54.373 38.623 19.972 61.987-53.474-38.143-54.308 38.706z"/>
  </g>
</svg>
