<svg xmlns="http://www.w3.org/2000/svg" id="flag-icons-hu" viewBox="0 0 640 680">
  <g fill-rule="evenodd">
    <path fill="#fff" d="M512 512H0V0h512z"/>
    <path fill="#388d00" d="M512 512H0V341.3h512z"/>
    <path fill="#d43516" d="M512 170.8H0V.1h512z"/>
    <path
    fill = "#ffff00"
    d="M 375.8 315.2 l -62.2 -19.2 l 38 52.8 l -53.8 -36.7 l 20.8 61.7 l -40.6 -50.9 l 1.7 65.1 l -23.8 -60.6 l -17.6 62.7 l -4.9 -64.9 l -35.3 54.7 l 14.5 -63.5 l -49.8 41.9 l 32.5 -56.4 l -60 25.3 l 47.7 -44.3 l -64.8 6.5 l 58.6 -28.3 l -63.8 -12.9 l 64.4 -9.7 l -57.2 -31.1 l 64.4 9.7 l -45.5 -46.6 l 58.7 28.2 l -29.7 -57.9 l 47.7 44.3 l -11.4 -64.1 l 32.6 56.4 l 8 -64.6 l 14.5 63.5 l 26.7 -59.4 l -4.8 64.9 l 43 -48.8 l -23.8 60.6 l 55.5 -34 l -40.6 50.9 l 63.1 -16.1 l -53.8 36.7 l 65 3.2 l -62.2 19.2 l 61.2 22.2 l -65.1 0 z"
    />
  </g>
</svg>
