<svg xmlns="http://www.w3.org/2000/svg" xmlns:xlink="http://www.w3.org/1999/xlink" id="flag-icons-ky" viewBox="0 0 640 480">
  <path fill="#006" d="M0 0h640v480H0z"/>
  <use xlink:href="#a" width="100%" height="100%" stroke="#fff" stroke-linejoin="round" stroke-width="9.6"/>
  <path fill="#fcea83" stroke="#000" stroke-linejoin="round" stroke-width="1.2" d="M359.6 363.8c2.4 6.3 19.4 14.7 39.2 4 13.5-7.6 22.2-18.3 30.5-37.3 2.4-4.7 3.6-10.7-2-14.2-4.3-3.2-11.4-6.8-14.6-10-1.6-1.5-3.2-2.7-4.4-3.9.8.8 1.6 1.6 2.4 2.8 8 9.5-.4 23.3-9 31.7-6.4 6-18 20.6-34.6 6.7-3.5-3.2-11.8 10-7.5 20.2zm240.9 0c-2.8 6.3-19.8 14.7-39.2 4-13.5-7.6-22.2-18.3-31-37.3-2-4.7-3.1-10.7 2.4-14.2 4.4-3.2 11.5-6.8 14.7-10 1.6-1.5 2.8-2.7 4.4-3.9-.8.8-1.6 1.6-2.4 2.8-8 9.5.4 23.3 8.7 31.7 6.3 6 18.2 20.6 34.9 6.7 3.5-3.2 11.5 10 7.5 20.2z"/>
  <path fill="#fcea83" stroke="#000" stroke-linejoin="round" stroke-width="1.2" d="M480 397.9a120 120 0 0 0 106.6-64.2c4.4-8.3 0-12.7-5.1-15.5-5.6-2.3-12.3-7.9-15.9-11.4 6.4 6.3 5.2 10.7.8 17.8-20.2 33.7-48 50.7-86.3 50.7s-66.2-17-86.4-50.7c-4.4-7.1-5.6-11.5.4-17.8a54.5 54.5 0 0 1-15.9 11.4c-5.1 2.8-9.5 7.2-5.1 15.5 26.1 50 75.3 64.2 107 64.2z"/>
  <path fill="#c8102e" stroke="#000" stroke-linejoin="round" stroke-width="1.2" d="M406.8 331c-.8-4-6-2.5-7.6 2.3-2-2.8-4-5.5-5.5-8.7-4.8-7.1-5.6-11.9 1.2-18.6 3.1-3.2 9.5-6.8 13.8-2.8 9.2 7.5 4.4 19.8-2 27.7zm146.2 0c.7-4 6.3-2.5 7.9 2.3 2-2.8 4-5.5 5.5-8.7 4.8-7.1 5.6-11.9-1.6-18.6-2.7-3.2-9-6.8-13.8-2.8-8.7 7.5-4.4 19.8 2 27.7zm-193.4 32.8c-4-6-7.1-21.4-8-25.3-1.1-3.6-1.5-6.8 2.9-8.4 4.3-1.6 8.3 4 10.3 8.7l8.7 20.6c-8.7-5.1-15.9-1.5-13.9 4.4zm240.9 0c3.6-6 6.7-21.4 8-25.3.7-3.6 1.5-6.8-2.9-8.4-4.3-1.6-8.3 4-10.3 8.7l-8.7 20.6c8.7-5.1 15.5-1.5 13.9 4.4z"/>
  <path fill="#fff" stroke="#000" stroke-linejoin="round" stroke-width="1.2" d="M449.6 184.3c-5.2 1.2-8.8 1.6-13.5-2.7-3.2-3.2-2.4-8.8.8-10.7 3.5-2.4 6.7-4 11-2.8 4.4 1.2 16 11.9 13.1 12.3-2.7 0-7 2.7-11.4 4zm12.2-19c1.6-1.2 3.6-2 8.7-2.4 4.8-.4 8.4-.4 9.6 3.2 1.5 4.4 2.7 9.5 5.9 11.9-2 1.2-11.9 2.4-15.5.4-4.7-2.4-5.9-11.5-8.7-13zm34.1.4c1.6-1.2 3.6-1.2 8.7-.8 5.2.4 7.2.8 8.3 4.4 1.2 4 0 9 2.4 12.7-2.4.8-10.3.8-13-2-4.4-3.2-4-12.3-6.4-14.3z"/>
  <path fill="#073163" stroke="#000" stroke-linejoin="round" stroke-width="1.2" d="M519.7 168c-3.6-.7-6-1.1-7.6 0 2 2.5.4 12 4.4 15.1 2.8 2 10 2.4 11.5-2 2-3.9 2-9.8-8.3-13zm-40.8-3.9c1.2-1.2 3.5-1.6 8.3-1.6 5.1 0 8.3.8 9.9 4 1.6 4 1.2 9.1 4 12.3-1.2 1.6-12 1.6-15.1-.8-4.4-2.8-4.8-11.9-7.1-13.9zm-33.7 3.6c0-2 2.8-2.4 9.9-2.8 7.1-.8 7.5-.4 9.9 4.8 1.2 2.8 2.8 7.5 6 9-8.8 2-11.5 3.3-16.3.5-3.6-2-7.5-6.8-8.3-8.7-.4-1.2-.4-2.4-1.2-2.8z"/>
  <path fill="#059334" stroke="#000" stroke-linejoin="round" stroke-width="1.2" d="M446 132.4a8.5 8.5 0 0 1-6.8-3.1c-2.7-3.6-10.2-5.2-13.4-2-1.2.8-2.8.8-4 1.2-2 0-4.3 2-3.5 6 1.5-1.3 2 0 3.1 0 .8-.5.4.3.4 1.1 0 2 4.4 6 8.3 5.6 4.4 0 6.4 1.5 7.2 2.3 1.2 1.2.4.8 1.2 2.8 1.1 1.2 1.5 1.6-.4 3.2a8 8 0 0 0 0 12.3c5.1 4 18.2 9.9 32.8-1.6 14.3-11.1 36.5-4.8 38-.8 2 4 2.9 6.3 3.2 8.3.4 1.6 2.4 3.2 5.2 2.8 2.8 0 6 1.2 7.5 2.3 2 1.2 4.8.8 4-2.7-1.6-11.1-8.3-12.7-9.1-17.9 4 .4 6.7.4 8.3-1.1 1.2-1.6 2.8-4.4 4.4-5.2 1.1-.8 1.1-1.6-.4-1.2-2 .4-3.2 1.2-6.8.8-18.2-2-69.3-15.8-79.2-13z"/>
  <path stroke="#000" stroke-linejoin="round" stroke-width="1.2" d="M526.8 146c-2 1-4 3-7.5 7.8-4 5.2-15.9 10.3-30.5 10.3-14.3 0-23-2.3-29.3-7.5a50.1 50.1 0 0 0-8.8-5.5c-4.3-2-5.1-6.4-4-10-1.1 2-1.9 4-4.3 3.6-1.6 0-4.7 0-4 1.6-.3-.8-.3-2-.7-2.4l-.8-.8c1.2.8 4-1.6 6-1.6 1.5.4 3.5-1.5 3-4-.3-1.9-.7-3.5-1.1-5 3.2-1.6 44.8 5.9 53 6.7 8.4.4 32.2 4 29 6.7z"/>
  <path fill="#059334" stroke="#000" stroke-linejoin="round" stroke-width="1.2" d="M451.5 130.8c4-4 8.7-5.9 13.5-4.7h1.2c2.4-2 8-2.4 11-.8h1.7c4.7-1.6 13.8 0 17 3.2l1.2.8c10.7-.8 17 4 24.6 11.5.7.7 2 2.3 4 2.7 2.3.4 2.7 1.6.7 2.8a31.3 31.3 0 0 0-8.3 7.5c-3.6 4.8-15 9.5-29.3 9.5-13.9 0-22.2-2.3-28.6-7-3.5-2.9-6.3-4.5-8.3-5.6-2.3-.8-5.5-4-4.3-7.2.8-3.1-1.2-7.1-2.8-11 1.2-.9 4.4-2 6-1.3l.7-.3z"/>
  <path fill="#00493d" stroke="#000" stroke-linejoin="round" stroke-width="1.2" d="M521.7 140.8c-7.6-7.6-14-12.3-24.6-11.5 0 .4 0 1.5-.4 2.3a54.8 54.8 0 0 1 19.4 14.7c1.6-1.6 4.4-3.6 5.6-5.5zm-25.8-12.3c-3.2-3.2-12.3-4.8-17-3.2 0 1.6 0 4-.8 5.6 2.7 1.1 5.1 4 7.5 6.7 1.6-.4 5.6-1.6 7.5-2 .8-1.6 2.4-5.1 2.8-7.1zm-18.6-3.2c-3.2-1.6-8.7-1.2-11.1.8a18 18 0 0 0-1.2 6.3c1.6 0 4 1.2 4.8 2 2.3-.8 5.5-2.4 6.7-3.6.4-1.5 1.2-4 .8-5.5zm-25.8 5.5c4-4 8.7-5.9 13.5-4.7-.8 1.2-1.2 3.6-1.2 6-4.3-.5-9.9.7-12.3 2.3v-3.6z"/>
  <path fill="#00493d" stroke="#000" stroke-linejoin="round" stroke-width="1.2" d="M514.5 147a53 53 0 0 0-18.2-13.8c0 .4-.8 2-1.2 3.2 2.4 3.6 7.1 11.5 9.1 15.8 2-.7 7.6-3.1 10.3-5.1zm-30 8.8a148 148 0 0 0 1.1-16.2c2-.4 6-1.6 7.5-2 2 3.2 6.8 11.5 8.7 15.4a66.6 66.6 0 0 1-17.4 2.8zm-14-19a30 30 0 0 0 6.8-4c1.6 1.2 4.7 4 6 5.6 0 3.5-1.3 13.8-1.7 17.4-3.1 0-8.3-.8-11-2.4.3-6 .7-12.6 0-16.6zm-19.8 4.7c.4-.7.8-3.5.8-4.7 3.2-2 11.1-4 17-.8.5 4 0 13.9-.3 16.2-5.2-4-13.5-9.5-17.5-10.7z"/>
  <path d="M431 134.4c-.9 0-1.3-2.4-2.8-2.4-.4 0-1.6.4-2 0 0 .8.4 1.6.8 2 .4 1.2 2.3.4 4 .4z"/>
  <path fill="none" stroke="#000" stroke-linejoin="round" stroke-width="1.2" d="M431 141.2c4.7 0 5.5-6 7.9-6.4m-5.2 6.7c3.6 1.6 6.3-6.7 9.1-6.3m-16.2-4c1.2 0 2-1.5 4 .4.7.8 2 1.2 2.7 1.2m-.8 4.4c-1.6 2.4-4.3 4-6 3.2m-.7-13.1c-1.2.8-2 2.4-2.8 3.5m-1.2 2.4v2"/>
  <path fill="#f9d050" stroke="#000" stroke-linejoin="round" stroke-width=".5" d="M464.2 127.3a63.1 63.1 0 0 0-27.3-13.5c6 3.6 22.6 16.7 27 21"/>
  <path fill="#f9d050" stroke="#000" stroke-linejoin="round" stroke-width=".5" d="M469 121.3c-10-6.7-21.4-14.2-32.5-15 8.3 4.3 20.6 14.6 27.3 23m17.8-19a77 77 0 0 1 19.5-26.6c-4 8.3-8.4 25.4-10.3 32"/>
  <path fill="#f9d050" stroke="#000" stroke-linejoin="round" stroke-width=".5" d="M490.4 108.3a40 40 0 0 1 20.2-21 83.6 83.6 0 0 0-15 28.9"/>
  <path fill="#f9d050" stroke="#000" stroke-linejoin="round" stroke-width=".5" d="M494 116.2A69.9 69.9 0 0 1 525.1 90a208.8 208.8 0 0 0-28.1 35.3m2.4-.4c7.1-4 21.4-10.3 31.7-8.3a129 129 0 0 0-33.7 19"/>
  <path fill="#f9d050" stroke="#000" stroke-linejoin="round" stroke-width=".5" d="M497.9 122.1c6.7-7.1 19-17.8 32-22.2a1135 1135 0 0 0-32.4 33m-18.6-15.1c-4.8-14.7-12-28.5-22.6-33 6 8.8 13.5 21.5 17.4 40.5m-4-8c-7.9-9.4-18.6-19-30.8-21a74.5 74.5 0 0 1 27.3 32.2"/>
  <path fill="#f9d050" stroke="#000" stroke-linejoin="round" stroke-width=".5" d="M474.1 117c-9.9-17.8-17.4-21-21.8-24.6 3.6 6.8 12.3 24.6 17.5 32.1"/>
  <path fill="none" stroke="#000" stroke-linejoin="round" stroke-width=".5" d="M454.3 115.8a47.7 47.7 0 0 1 14.3 13.9"/>
  <path fill="#f9d050" stroke="#000" stroke-linejoin="round" stroke-width=".5" d="M454.3 124.1c2.4 2 6.7 4.4 10.7 8m36.5-2c4-3.2 12.6-8.4 17-10m-19.8 7.2c4-5.2 11.9-12.3 14.6-14.7m-3.5-9.9a237 237 0 0 0-15 18.6m4.7-22.1a130 130 0 0 0-10 17.4m-21.3-16.7c2.3 6.4 6.7 17 8.3 21.4m-11.9-14.6c1.6 2.4 4.8 8 6 11.9m7.5-13.9c0-3.6 2.4-7.5 4.7-7.5 2.8 0 4.8 4.7 4.8 7.5 0 3.2-2.4 6-4.8 6s-4.7-2.4-4.7-6z"/>
  <path fill="#f9d050" stroke="#000" stroke-linejoin="round" stroke-width=".5" d="M473 107.9c.3-4 3.1-7.2 5.5-6.8 2.4.4 3.5 5.2 3.1 8-.4 3.1-3.1 5.5-5.1 5.1-2 0-4-2.8-3.6-6.3zm10.6 1.2c-.8-3.6.8-7.6 3.2-8 2.4-.4 4.7 3.6 5.1 6.8.8 3.1-1.1 6.3-3.1 6.3-2 .4-4.8-1.6-5.2-5.1z"/>
  <path fill="#f9d050" stroke="#000" stroke-linejoin="round" stroke-width=".5" d="M477.7 112.2c0-4 2.4-7.5 4.7-7.5 2.8 0 4.8 4.4 4.8 7.5 0 3.2-2.4 6-4.8 6s-4.7-2.4-4.7-6z"/>
  <path fill="#f9d050" stroke="#000" stroke-linejoin="round" stroke-width=".5" d="M470.6 114.2c0-3.6 2.7-7.5 5.1-7.5 2.4 0 4.8 4.7 4.8 7.5 0 3.2-2.8 6-4.8 6-2.4 0-5.2-2.4-5.2-6zm14.6-1.6c0-3.5 2.4-7.5 4.8-7.5 2.7 0 4.7 4.8 4.7 7.5 0 3.2-2.4 6-4.7 6s-4.8-2.4-4.8-6z"/>
  <path fill="#f9d050" stroke="#000" stroke-linejoin="round" stroke-width=".5" d="M483.6 115.8c0-4 2.8-7.5 5.2-7.5 2.4 0 4.7 4.3 4.7 7.5s-2.3 6-4.7 6-5.2-2.4-5.2-6z"/>
  <path fill="#f9d050" stroke="#000" stroke-linejoin="round" stroke-width=".5" d="M477.3 119.4c0-4 2.4-7.6 4.7-7.6 2.8 0 4.8 4.8 4.8 7.6 0 3.1-2.4 5.9-4.8 5.9s-4.7-2.4-4.7-6zm-10 0c0-4 2-7.6 4-7.6s3.6 4.8 3.6 7.6c0 3.1-2 5.9-3.6 5.9-2 0-4-2.4-4-6zm22.3-.8c0-3.6 2-7.2 4-7.2s3.9 4.4 3.9 7.2c0 3.5-2.4 6-4 6-2 0-4-2.5-4-6z"/>
  <path fill="#f9d050" stroke="#000" stroke-linejoin="round" stroke-width=".5" d="M492 125.3c.7-4 3.1-7.1 4.7-6.7 1.6.4 2 5.1 1.2 7.9-.4 3.6-2.8 5.5-4.4 5.1-1.6-.4-2.3-3.1-1.6-6.3z"/>
  <path fill="#f9d050" stroke="#000" stroke-linejoin="round" stroke-width=".5" d="M484.4 124.1c.4-3.6 2.8-7.1 4.8-6.7 2.3 0 3.5 4.7 3.1 7.5-.4 3.6-2.3 6-4.3 5.6-2 0-4-2.8-3.6-6.4zm-11 1.2c-1.3-4-3.6-6.7-5.2-6.3-1.6.4-2 5.1-1.2 7.9.8 3.2 3.2 5.1 4.7 4.7 1.2-.4 2.4-3.1 1.6-6.3z"/>
  <path fill="#f9d050" stroke="#000" stroke-linejoin="round" stroke-width=".5" d="M470.6 124.5c0-3.6 2-7.1 4-7.1 2.3 0 3.9 4.3 3.9 7.1 0 3.6-2 6-4 6-1.6 0-4-2.4-4-6z"/>
  <path fill="#f9d050" stroke="#000" stroke-linejoin="round" stroke-width=".5" d="M476.5 126.1c0-4 2.4-7.5 4.7-7.5 2.8 0 4.8 4.3 4.8 7.5s-2.4 6-4.8 6-4.7-2.4-4.7-6zm2-43.6c-.8 3.2-3.6 6-1.6 10.3-3.6-1.2-6.7-1.6-9.5 1.6 3.5-.4 6.7.8 8.3 3.2-3.2-.4-4.8 1.2-5.5 3.1 2.7-.8 5.5-1.5 6.7-1.1-1.2 1.1-3.2 3.1-3.6 4.7 2.4-2 5.2-1.6 6.8-2.8-1.2 2.8 1.1 5.6 3.1 8.4-.4-4 2-6.8.8-8.8 3.6.8 4 4 9.1 4-2-1.2-3.1-5.2-5.5-5.2 1.2-.3 6-.7 6.7 0a7.2 7.2 0 0 0-5.1-3.1c1.6-1.6 4.3-4.8 6.3-5.6-2.8.4-7.1.8-8.7 3.2 4-3.2 3.2-9.1 7.5-9.9-2.4-.4-6 1.2-8.7 4 1.2-2.4 1.2-5.6 2.8-6.4-3.2.8-6.8 4.8-8 6.8 0-2-1.1-5.2-2-6.4zm2 6.4c0 1.1 0 3.5-.4 4.3m5.5-4.7c-.8.8-2.4 3.5-2.4 5.9"/>
  <path fill="none" stroke="#000" stroke-linejoin="round" stroke-width=".5" d="M488 93.2c-1.2.8-2.4 2-2.8 3.6"/>
  <path fill="#fcea83" stroke="#000" stroke-width="1.2" d="M359.6 363.8c2.4 6.3 19.4 14.7 39.2 4 13.5-7.6 22.2-18.3 30.5-37.3 2.4-4.7 3.6-10.7-2-14.2-4.3-3.2-11.4-6.8-14.6-10-1.6-1.5-3.2-2.7-4.4-3.9.8.8 1.6 1.6 2.4 2.8 8 9.5-.4 23.3-9 31.7-6.4 6-18 20.6-34.6 6.7-3.5-3.2-11.8 10-7.5 20.2zm240.9 0c-2.8 6.3-19.8 14.7-39.2 4-13.5-7.6-22.2-18.3-31-37.3-2-4.7-3.1-10.7 2.4-14.2 4.4-3.2 11.5-6.8 14.7-10 1.6-1.5 2.8-2.7 4.4-3.9-.8.8-1.6 1.6-2.4 2.8-8 9.5.4 23.3 8.7 31.7 6.3 6 18.2 20.6 34.9 6.7 3.5-3.2 11.5 10 7.5 20.2z"/>
  <path fill="#fcea83" stroke="#000" stroke-width="1.2" d="M480 397.9a120 120 0 0 0 106.6-64.2c4.4-8.3 0-12.7-5.1-15.5-5.6-2.3-12.3-7.9-15.9-11.4 6.4 6.3 5.2 10.7.8 17.8-20.2 33.7-48 50.7-86.3 50.7s-66.2-17-86.4-50.7c-4.4-7.1-5.6-11.5.4-17.8a54.5 54.5 0 0 1-15.9 11.4c-5.1 2.8-9.5 7.2-5.1 15.5 26.1 50 75.3 64.2 107 64.2z"/>
  <path fill="#c8102e" stroke="#000" stroke-width="1.2" d="M406.8 331c-.8-4-6-2.5-7.6 2.3-2-2.8-4-5.5-5.5-8.7-4.8-7.1-5.6-11.9 1.2-18.6 3.1-3.2 9.5-6.8 13.8-2.8 9.2 7.5 4.4 19.8-2 27.7zm146.2 0c.7-4 6.3-2.5 7.9 2.3 2-2.8 4-5.5 5.5-8.7 4.8-7.1 5.6-11.9-1.6-18.6-2.7-3.2-9-6.8-13.8-2.8-8.7 7.5-4.4 19.8 2 27.7zm-193.4 32.8c-4-6-7.1-21.4-8-25.3-1.1-3.6-1.5-6.8 2.9-8.4 4.3-1.6 8.3 4 10.3 8.7l8.7 20.6c-8.7-5.1-15.9-1.5-13.9 4.4zm240.9 0c3.6-6 6.7-21.4 8-25.3.7-3.6 1.5-6.8-2.9-8.4-4.3-1.6-8.3 4-10.3 8.7l-8.7 20.6c8.7-5.1 15.5-1.5 13.9 4.4z"/>
  <path fill="#00493d" d="m382.6 328.1-3.2 1.6c-.8.4-.8 1.2-.8 1.6h-.4l-1.5-3.5h.4c0 .4.3.7 1.1.4l6.8-3.6c.8-.4.8-.8.4-1.2l.4-.4 2 4h-.4c-.4-.4-.8-.8-1.6-.4l-2.8 1.6 1.2 2.3 3.2-1.2c.7-.4.3-1.1.3-1.5h.4l1.6 3.5c-.4-.4-.8-.8-1.6-.4l-6.7 3.6c-.8.4-.8.8-.4 1.2l-.4.4-2-3.6.4-.4c.4.4.8.8 1.6.4l3.2-1.6zm6.7 5.2c.8-.4.8-.8.4-1.6h.4l4 6-2.8 2v-.5c1.6-1.1 1.6-2.7 1.2-3.1-.4-.4-.8-.8-.8-1.2-.4 0-.4-.4-1.2.4l-2.8 2c.4.4.8 1.5 2.8.4h.4l-4.3 3.1v-.4c2-1.6 1.1-2.7.8-3.1l-2.8 2c-.8.3-.8.7-.8 1.1.4 0 .4.4.8.8.4.8 1.6 1.6 3.5.8l.4.4-3.1 1.2-4-6.3h.4c.4.4.8.8 1.6.4zm6.4 15-2.8 2.4c-.4.4-.4 1.2 0 1.6h-.4l-2.8-2.8.4-.4c.4.4.8.8 1.6 0l5.2-5.1c.8-.4.8-.8.4-1.6l2.7 3.2c-.4-.4-1.2-.4-1.6 0l-2.3 2.4 2 2 2.3-2c.8-.8.4-1.2 0-1.6l.4-.4 2.8 3.1h-.4c-.4 0-.8-.3-1.6.4l-5.1 4.8c-.8.8-.8 1.2-.4 1.6v.4l-2.8-3.2c.4 0 1.2.4 1.6 0l2.8-2.8zm6 8.4 1.1 1.2 1.6-3.6s-1.2.4-3.2 1.6l.4.8-.4.4-.8-.8c-.4.4-.8.4-1.2.8-1.2.8-.8 1.2-.4 1.6v.4l-2-2h.5l1.5-.4 8-4.4.4.4s-.4.4-4 8.3c0 .8-.4 1.2 0 2l-3.2-2.8.4-.4c.4.8 1.2.8 1.6 0 0-.4.4-1.1.4-1.5l-1.2-1.2.4-.4zm3 7.9.5-.4c.4.4.8.4 1.6 0l5.1-6.7-.4-.4c-.8-.4-2-.4-3.2.8v-.4l1.6-2 6 4.3-2 2.4h-.4c1.2-1.2.8-2.8 0-3.1v-.4l-5.2 6.7c-.7.4-.3 1.2 0 1.6h-.3z"/>
  <path fill="#00493d" d="m415 366.2-1.9 2.8c-.4.8 0 1.1.4 1.5l-.4.4-3.2-2.3v-.4c.8.4 1.2.4 1.6-.4l4.4-6c.4-.8 0-1.2-.4-1.6l.4-.4 3.1 2.4v.4c-.7-.4-1.1-.4-1.5.4l-2 2.8 2.4 1.6 2-2.8c.3-.8 0-1.2-.5-1.6l.4-.4 3.2 2.4v.4c-.4-.4-1.2-.4-1.6.4l-4 6.3c-.7.4-.3.8 0 1.2v.4l-3.5-2.4h.4c.4 0 .8 0 1.2-.4l2-3.1zm8 11 .4-.3c.4.4 1.2.4 1.6-.4l3.2-6.7c.4-.8 0-1.2-.4-1.6l6.7 3.1-1.6 3.2-.4-.4c1.2-1.6 0-3.2-.4-3.6-.4 0-.8-.4-1.2-.4s-.4 0-.8.8c-.4.4-1.5 2.8-1.5 2.8.4.4 1.1 1.2 2.7-.8h.4l-2.4 4.8-.3-.4c1.1-2.4-.4-2.8-.8-2.8l-1.6 3.2c-.4.8 0 1.2.4 1.2v.4zm11.5 5.6c-1.2-.8-1.2-3.1 0-5.5.8-2.4 2.4-4.4 4-3.6 1.1.4.7 2.8 0 5.2-1.2 2.7-2.8 4.3-4 4h-.4c2.8 1.1 4.8-.5 6-3.2 1.1-2.4.7-5.2-1.6-6.4-2.4-1.2-4.8.4-6 3.2-1.2 2.8-.8 5.5 1.6 6.3zm12.3.8 1.6-4.7c.4-.8 0-1.2-.4-1.6l2 .4v.4c-.4 0-.8 0-1.2.8l-1.6 4.7c-.8 2-2 3.6-4.4 2.8-1.6-.4-2.8-2.4-2-4.4l2-5.1c.4-.8 0-1.2-.4-1.6v-.4l3.6 1.6v.4c-.4-.4-1.2-.4-1.2.4l-2 5.1c-.4 1.6-.4 3.2.8 3.6 1.2.4 2.4-.4 3.2-2.4zm3.5-5.1c0-.4 0-.4-.4-.4l2.8.4 2.4 7.5 1.2-4.8c.4-.8 0-1.1-.4-1.5l2.4.4-.4.3c-.4 0-.8 0-1.2.8l-2 8.8h-.4l-3.2-9.6-2 6.4c0 1.2.5 1.2.8 1.6v.4l-2.3-.8v-.4c.4.4 1.2 0 1.2-.8l2-7.1-.5-1.2zm13.5 7.9c-.8 3.6-2.4 4.3-3.2 4.3h-.7s-.4-.3 0-.7l1.1-8c.4-.4.4-.8.8-.4h.8c.8 0 1.6 1.6 1.2 4.8l1.2.4c.8-4-.8-5.6-2.8-6-1.6-.4-4-.7-4-.7v.3c.5.4 1.3.4.9 1.6l-1.2 7.2c-.4.8-.8 1.2-1.2 1.2h-.4l4 .7c2 .4 4 0 4.7-4.3zm3.6-3.2c0-.8-.8-1.2-1.2-1.2v-.4l7.1.8-.4 3.2c0-2-1.2-2.8-2-2.8-.4-.4-.7-.4-1.1-.4s-.4 0-.4 1.2l-.4 3.2c.4 0 1.5.4 2.3-2l-.4 5.2h-.4c0-2.4-1.1-2.4-1.5-2.4l-.4 3.5c0 .8 0 .8.4.8l.8.4c1.1 0 2.3-.4 3.1-2.7h.4l-.8 3.1-7.5-.8c.8 0 1.2-.4 1.6-1.2zm13 4.8c0 3.5-1.1 4.7-2.3 4.7-.4-.4-.4-.4-.8-.4l-.4-.4.4-8.3c0-.4 0-.4.4-.4h.8c.8 0 2 1.2 2 4.8h1.5c0-4-2-5.2-4-5.2-1.5-.4-3.9-.4-3.9-.4v.4c.4 0 1.2.4 1.2 1.2l-.4 7.5c0 .8-.4 1.2-.8 1.2v.4h3.6c2 0 4-.8 4.3-5.1h-1.5zM492 391c0 .8.4.8 1.2.8v.4l-4.3.4c.4-.4 1.2-.8 1.2-1.6l-.8-7.5c-.4-.8-.8-.8-1.6-.8v-.4l4.3-.4c-.4.4-1.1.8-.7 1.6zm4 .8v-.4c.4 0 .8-.4.8-1.1l-1.6-8.4h-.4c-.8.4-1.6 1.2-1.2 2.8h-.4l-.4-2.8 7.2-1.2.4 2.8h-.4c0-1.6-1.2-2-2.4-2h-.4l1.6 8.4c0 .7.4 1.1 1.2 1.1v.4zm17-7.9-1.5-4.7c0-.8-.8-.8-1.2-.8v-.4l2-.8v.4c-.4.4-.4.4-.4 1.2l1.5 5.1c.4 1.6.4 4-2 4.8-1.5.4-3.5-.4-4-2.8l-1.5-5.2c-.4-.7-.8-.7-1.2-.7l-.4-.4 4-1.2v.4c-.4.4-.8.8-.4 1.5l1.2 5.2c.4 1.6 1.6 2.4 2.8 2.4 1.1-.4 1.5-2 1.1-4zm4.4-2.8c2-.8 1.6-2 1.2-3.1-.4-1.2-1.2-2-2-1.6-.4 0-.8.4-.4.8l1.2 4 .4.3.8 3.2c.4.8 1.2.8 1.6.4v.4l-3.6 1.6-.4-.4c.8-.4.8-.8.8-1.6l-2.8-6.7c-.4-1.2-.8-.8-1.6-.8v-.4l4-1.6c1.6-.4 3.2 0 4 1.6.4 2-.4 3.1-2 4-.4 0-.8.3-.8.3zm9.9 1.2c-1.2.4-2.8-1.2-4-4-1.1-2.3-1.1-4.7 0-5 1.2-.5 2.8 1.1 4 3.5 1.2 2.4 1.2 4.7 0 5.5 2.4-.8 3.2-3.5 2-6.3-1.2-2.4-3.6-4-6-3.2a4.6 4.6 0 0 0-2 6.4c1.2 2.7 3.6 4.3 6 3.1zm.4-11h-.8l2.4-1.6 7.1 4-2.4-4.4c-.4-.8-1.1-.8-1.5-.8v-.4l2-.8c-.5.4-.9.8 0 1.6l3.9 7.9-.4.4-8.7-4.8 3.2 6c.4.8 1.1.8 1.5.4v.4l-2 1.1v-.3c.5-.4.5-.8 0-1.6l-3.1-6.4-1.2-.8zm17.8 1.1v-.4c0-.4.4-.8 0-1.6l-4.7-6.7h-.4c-.8.4-1.2 2 0 3.2l-.4.4-1.6-2.8 6-4 1.5 2.4c-1.2-1.2-2.4-1.2-3.1-.8l-.4.4 4.7 6.8c.4.7 1.2.7 1.6.4v.3zm4.4-9.5 2.4 2.8c.4.4 1.2.4 1.5 0v.4l-3.1 2.8v-.4c.4-.4.4-.8 0-1.6l-4.8-6c-.4-.8-.8-.4-1.6-.4l3.2-2.7v.4c0 .4-.4.8 0 1.5l2 2.4 2.4-1.6-2-2.7c-.4-.8-1.2-.4-1.6-.4l3.2-2.8v.4c-.4.4-.4.8 0 1.6l4.7 6c.4.3.8.3 1.2 0l.4.3-3.2 2.8-.4-.4c.4-.4.8-.8.4-1.6l-2.3-2.8zm3.6-8.3c-.4-.4-1.2-.4-1.6 0v-.4l5.1-4.8 2.4 2.4h-.4c-1.2-1.6-2.8-.8-3.6-.4 0 .4-.4.4-.8.8 0 0 0 .4.4 1.2l2.4 2.4c.4-.4 1.6-1.2 0-3.2h.4l3.2 3.6v.4c-2-2-2.8-.8-3.2-.4l2.4 2.4c.4.7.8.7.8.7l1.2-1.1c.4-.4.8-1.6 0-4h.4l1.5 2.8-5.1 5.1-.4-.4c.4-.4.8-.8 0-1.6zm9.5-11.1c-.4.4-.4 1.2.4 1.6.7.8 1.5.8 3.1 0 .8-.4 2.4-.8 3.6.4 2 2 1.2 3.5.8 4.3l-1.6 1.2c-.4 0-.4 0-.4.4v.4l-2.8-2.4h.4c1.6.8 3.2 1.2 4 0 .8-.7 0-1.5-.4-2-.8-.7-1.6-.7-2.8 0-1.2.5-2.8.5-4-.3-1.5-1.6-1.5-2.8-.7-4l1.5-1.2c.4 0 .4 0 0-.8l2.8 2h-.4c-2-.8-3.1-.4-3.5.4zm3.5-3.2c-.8-.4-1.2 0-1.6.4h-.4l4.4-6.3 2.8 2-.4.4a2.8 2.8 0 0 0-3.6 0c0 .4-.4.8-.4 1.2-.4 0-.4.4.4.7l2.8 2c.4-.4 1.2-1.2-.4-2.7v-.4l4 3.1c-2.4-1.2-2.8 0-3.2.4l2.8 2a3 3 0 0 0 1.1.4c0-.4.4-.8.8-1.2.4-.8.8-2-.8-3.6l.4-.3 2 2.3-4 6h-.3c.4-.8.4-1.2-.4-2zm10.7-7.1-1.2 2a20.5 20.5 0 0 1-2.3-2.8l3.5.8h.8l1.6.4c1.2.4.8.8.4 1.6h.4l2-3.6c-.8.8-1.2.4-2 .4-8.3-1.6-9.1-2-9.1-2v.4l6.3 7.2c.4.4.4 1.1.4 1.5h.4l1.2-2-.4-.3c-.4.8-.8 1.2-1.6 0l-.8-.8 1.2-2.8zm-2.4-8.7c-.4.4-.4 1.2.8 1.6 1.2.4 1.6 0 2.8-.8 1.2-.8 2.4-1.6 4-.8 2.4 1.2 2 3.2 1.6 4-.4.3-.8 1.1-1.2 1.5v.8l-3.2-1.6c2 .4 3.6 0 4-1.1.4-.8-.4-1.6-.8-2-.8-.4-1.6 0-2.8.8-1.2 1.2-2.4 1.5-4 .8-1.6-.8-2.3-2-1.6-3.2 0-.8.8-1.2 1.2-1.6 0-.4 0-.4-.4-.8v-.4l3.2 1.6h-.4c-2-.4-3.2.4-3.2 1.2z"/>
  <path fill="#fff" stroke="#000" stroke-width="1.2" d="M449.6 184.3c-5.2 1.2-8.8 1.6-13.5-2.7-3.2-3.2-2.4-8.8.8-10.7 3.5-2.4 6.7-4 11-2.8 4.4 1.2 16 11.9 13.1 12.3-2.7 0-7 2.7-11.4 4zm12.2-19c1.6-1.2 3.6-2 8.7-2.4 4.8-.4 8.4-.4 9.6 3.2 1.5 4.4 2.7 9.5 5.9 11.9-2 1.2-11.9 2.4-15.5.4-4.7-2.4-5.9-11.5-8.7-13zm34.1.4c1.6-1.2 3.6-1.2 8.7-.8 5.2.4 7.2.8 8.3 4.4 1.2 4 0 9 2.4 12.7-2.4.8-10.3.8-13-2-4.4-3.2-4-12.3-6.4-14.3z"/>
  <path fill="#073163" stroke="#000" stroke-width="1.2" d="M519.7 168c-3.6-.7-6-1.1-7.6 0 2 2.5.4 12 4.4 15.1 2.8 2 10 2.4 11.5-2 2-3.9 2-9.8-8.3-13zm-40.8-3.9c1.2-1.2 3.5-1.6 8.3-1.6 5.1 0 8.3.8 9.9 4 1.6 4 1.2 9.1 4 12.3-1.2 1.6-12 1.6-15.1-.8-4.4-2.8-4.8-11.9-7.1-13.9zm-33.7 3.6c0-2 2.8-2.4 9.9-2.8 7.1-.8 7.5-.4 9.9 4.8 1.2 2.8 2.8 7.5 6 9-8.8 2-11.5 3.3-16.3.5-3.6-2-7.5-6.8-8.3-8.7-.4-1.2-.4-2.4-1.2-2.8z"/>
  <path fill="#f9d050" stroke="#000" stroke-width=".5" d="M464.2 127.3a63.1 63.1 0 0 0-27.3-13.5c6 3.6 22.6 16.7 27 21"/>
  <path fill="#f9d050" stroke="#000" stroke-width=".5" d="M469 121.3c-10-6.7-21.4-14.2-32.5-15 8.3 4.3 20.6 14.6 27.3 23m17.8-19a77 77 0 0 1 19.5-26.6c-4 8.3-8.4 25.4-10.3 32"/>
  <path fill="#f9d050" stroke="#000" stroke-width=".5" d="M490.4 108.3a40 40 0 0 1 20.2-21 83.6 83.6 0 0 0-15 28.9"/>
  <path fill="#f9d050" stroke="#000" stroke-width=".5" d="M494 116.2A69.9 69.9 0 0 1 525.1 90a208.8 208.8 0 0 0-28.1 35.3m2.4-.4c7.1-4 21.4-10.3 31.7-8.3a129 129 0 0 0-33.7 19"/>
  <path fill="#f9d050" stroke="#000" stroke-width=".5" d="M497.9 122.1c6.7-7.1 19-17.8 32-22.2a1135 1135 0 0 0-32.4 33m-18.6-15.1c-4.8-14.7-12-28.5-22.6-33 6 8.8 13.5 21.5 17.4 40.5m-4-8c-7.9-9.4-18.6-19-30.8-21a74.5 74.5 0 0 1 27.3 32.2"/>
  <path fill="#f9d050" stroke="#000" stroke-width=".5" d="M474.1 117c-9.9-17.8-17.4-21-21.8-24.6 3.6 6.8 12.3 24.6 17.5 32.1"/>
  <path fill="none" stroke="#000" stroke-width=".5" d="M454.3 115.8a47.7 47.7 0 0 1 14.3 13.9"/>
  <path fill="#f9d050" stroke="#000" stroke-width=".5" d="M454.3 124.1c2.4 2 6.7 4.4 10.7 8m36.5-2c4-3.2 12.6-8.4 17-10m-19.8 7.2c4-5.2 11.9-12.3 14.6-14.7m-3.5-9.9a237 237 0 0 0-15 18.6m4.7-22.1a130 130 0 0 0-10 17.4m-21.3-16.7c2.3 6.4 6.7 17 8.3 21.4m-11.9-14.6c1.6 2.4 4.8 8 6 11.9m7.5-13.9c0-3.6 2.4-7.5 4.7-7.5 2.8 0 4.8 4.7 4.8 7.5 0 3.2-2.4 6-4.8 6s-4.7-2.4-4.7-6z"/>
  <path fill="#f9d050" stroke="#000" stroke-width=".5" d="M473 107.9c.3-4 3.1-7.2 5.5-6.8 2.4.4 3.5 5.2 3.1 8-.4 3.1-3.1 5.5-5.1 5.1-2 0-4-2.8-3.6-6.3zm10.6 1.2c-.8-3.6.8-7.6 3.2-8 2.4-.4 4.7 3.6 5.1 6.8.8 3.1-1.1 6.3-3.1 6.3-2 .4-4.8-1.6-5.2-5.1z"/>
  <path fill="#f9d050" stroke="#000" stroke-width=".5" d="M477.7 112.2c0-4 2.4-7.5 4.7-7.5 2.8 0 4.8 4.4 4.8 7.5 0 3.2-2.4 6-4.8 6s-4.7-2.4-4.7-6z"/>
  <path fill="#f9d050" stroke="#000" stroke-width=".5" d="M470.6 114.2c0-3.6 2.7-7.5 5.1-7.5 2.4 0 4.8 4.7 4.8 7.5 0 3.2-2.8 6-4.8 6-2.4 0-5.2-2.4-5.2-6zm14.6-1.6c0-3.5 2.4-7.5 4.8-7.5 2.7 0 4.7 4.8 4.7 7.5 0 3.2-2.4 6-4.7 6s-4.8-2.4-4.8-6z"/>
  <path fill="#f9d050" stroke="#000" stroke-width=".5" d="M483.6 115.8c0-4 2.8-7.5 5.2-7.5 2.4 0 4.7 4.3 4.7 7.5s-2.3 6-4.7 6-5.2-2.4-5.2-6z"/>
  <path fill="#f9d050" stroke="#000" stroke-width=".5" d="M477.3 119.4c0-4 2.4-7.6 4.7-7.6 2.8 0 4.8 4.8 4.8 7.6 0 3.1-2.4 5.9-4.8 5.9s-4.7-2.4-4.7-6zm-10 0c0-4 2-7.6 4-7.6s3.6 4.8 3.6 7.6c0 3.1-2 5.9-3.6 5.9-2 0-4-2.4-4-6zm22.3-.8c0-3.6 2-7.2 4-7.2s3.9 4.4 3.9 7.2c0 3.5-2.4 6-4 6-2 0-4-2.5-4-6z"/>
  <path fill="#f9d050" stroke="#000" stroke-width=".5" d="M492 125.3c.7-4 3.1-7.1 4.7-6.7 1.6.4 2 5.1 1.2 7.9-.4 3.6-2.8 5.5-4.4 5.1-1.6-.4-2.3-3.1-1.6-6.3z"/>
  <path fill="#f9d050" stroke="#000" stroke-width=".5" d="M484.4 124.1c.4-3.6 2.8-7.1 4.8-6.7 2.3 0 3.5 4.7 3.1 7.5-.4 3.6-2.3 6-4.3 5.6-2 0-4-2.8-3.6-6.4zm-11 1.2c-1.3-4-3.6-6.7-5.2-6.3-1.6.4-2 5.1-1.2 7.9.8 3.2 3.2 5.1 4.7 4.7 1.2-.4 2.4-3.1 1.6-6.3z"/>
  <path fill="#f9d050" stroke="#000" stroke-width=".5" d="M470.6 124.5c0-3.6 2-7.1 4-7.1 2.3 0 3.9 4.3 3.9 7.1 0 3.6-2 6-4 6-1.6 0-4-2.4-4-6z"/>
  <path fill="#f9d050" stroke="#000" stroke-width=".5" d="M476.5 126.1c0-4 2.4-7.5 4.7-7.5 2.8 0 4.8 4.3 4.8 7.5s-2.4 6-4.8 6-4.7-2.4-4.7-6zm2-43.6c-.8 3.2-3.6 6-1.6 10.3-3.6-1.2-6.7-1.6-9.5 1.6 3.5-.4 6.7.8 8.3 3.2-3.2-.4-4.8 1.2-5.5 3.1 2.7-.8 5.5-1.5 6.7-1.1-1.2 1.1-3.2 3.1-3.6 4.7 2.4-2 5.2-1.6 6.8-2.8-1.2 2.8 1.1 5.6 3.1 8.4-.4-4 2-6.8.8-8.8 3.6.8 4 4 9.1 4-2-1.2-3.1-5.2-5.5-5.2 1.2-.3 6-.7 6.7 0a7.2 7.2 0 0 0-5.1-3.1c1.6-1.6 4.3-4.8 6.3-5.6-2.8.4-7.1.8-8.7 3.2 4-3.2 3.2-9.1 7.5-9.9-2.4-.4-6 1.2-8.7 4 1.2-2.4 1.2-5.6 2.8-6.4-3.2.8-6.8 4.8-8 6.8 0-2-1.1-5.2-2-6.4zm2 6.4c0 1.1 0 3.5-.4 4.3m5.5-4.7c-.8.8-2.4 3.5-2.4 5.9"/>
  <path fill="none" stroke="#000" stroke-width=".5" d="M488 93.2c-1.2.8-2.4 2-2.8 3.6"/>
  <path fill="#059334" stroke="#000" stroke-width="1.2" d="M446 132.4a8.5 8.5 0 0 1-6.8-3.1c-2.7-3.6-10.2-5.2-13.4-2-1.2.8-2.8.8-4 1.2-2 0-4.3 2-3.5 6 1.5-1.3 2 0 3.1 0 .8-.5.4.3.4 1.1 0 2 4.4 6 8.3 5.6 4.4 0 6.4 1.5 7.2 2.3 1.2 1.2.4.8 1.2 2.8 1.1 1.2 1.5 1.6-.4 3.2a8 8 0 0 0 0 12.3c5.1 4 18.2 9.9 32.8-1.6 14.3-11.1 36.5-4.8 38-.8 2 4 2.9 6.3 3.2 8.3.4 1.6 2.4 3.2 5.2 2.8 2.8 0 6 1.2 7.5 2.3 2 1.2 4.8.8 4-2.7-1.6-11.1-8.3-12.7-9.1-17.9 4 .4 6.7.4 8.3-1.1 1.2-1.6 2.8-4.4 4.4-5.2 1.1-.8 1.1-1.6-.4-1.2-2 .4-3.2 1.2-6.8.8-18.2-2-69.3-15.8-79.2-13z"/>
  <path stroke="#000" stroke-width="1.2" d="M526.8 146c-2 1-4 3-7.5 7.8-4 5.2-15.9 10.3-30.5 10.3-14.3 0-23-2.3-29.3-7.5a50.1 50.1 0 0 0-8.8-5.5c-4.3-2-5.1-6.4-4-10-1.1 2-1.9 4-4.3 3.6-1.6 0-4.7 0-4 1.6-.3-.8-.3-2-.7-2.4l-.8-.8c1.2.8 4-1.6 6-1.6 1.5.4 3.5-1.5 3-4-.3-1.9-.7-3.5-1.1-5 3.2-1.6 44.8 5.9 53 6.7 8.4.4 32.2 4 29 6.7z"/>
  <path fill="#059334" stroke="#000" stroke-width="1.2" d="M451.5 130.8c4-4 8.7-5.9 13.5-4.7h1.2c2.4-2 8-2.4 11-.8h1.7c4.7-1.6 13.8 0 17 3.2l1.2.8c10.7-.8 17 4 24.6 11.5.7.7 2 2.3 4 2.7 2.3.4 2.7 1.6.7 2.8a31.3 31.3 0 0 0-8.3 7.5c-3.6 4.8-15 9.5-29.3 9.5-13.9 0-22.2-2.3-28.6-7-3.5-2.9-6.3-4.5-8.3-5.6-2.3-.8-5.5-4-4.3-7.2.8-3.1-1.2-7.1-2.8-11 1.2-.9 4.4-2 6-1.3l.7-.3z"/>
  <path fill="#00493d" stroke="#000" stroke-width="1.2" d="M521.7 140.8c-7.6-7.6-14-12.3-24.6-11.5 0 .4 0 1.5-.4 2.3a54.8 54.8 0 0 1 19.4 14.7c1.6-1.6 4.4-3.6 5.6-5.5zm-25.8-12.3c-3.2-3.2-12.3-4.8-17-3.2 0 1.6 0 4-.8 5.6 2.7 1.1 5.1 4 7.5 6.7 1.6-.4 5.6-1.6 7.5-2 .8-1.6 2.4-5.1 2.8-7.1zm-18.6-3.2c-3.2-1.6-8.7-1.2-11.1.8a18 18 0 0 0-1.2 6.3c1.6 0 4 1.2 4.8 2 2.3-.8 5.5-2.4 6.7-3.6.4-1.5 1.2-4 .8-5.5zm-25.8 5.5c4-4 8.7-5.9 13.5-4.7-.8 1.2-1.2 3.6-1.2 6-4.3-.5-9.9.7-12.3 2.3v-3.6z"/>
  <path fill="#00493d" stroke="#000" stroke-width="1.2" d="M514.5 147a53 53 0 0 0-18.2-13.8c0 .4-.8 2-1.2 3.2 2.4 3.6 7.1 11.5 9.1 15.8 2-.7 7.6-3.1 10.3-5.1zm-30 8.8a148 148 0 0 0 1.1-16.2c2-.4 6-1.6 7.5-2 2 3.2 6.8 11.5 8.7 15.4a66.6 66.6 0 0 1-17.4 2.8zm-14-19a30 30 0 0 0 6.8-4c1.6 1.2 4.7 4 6 5.6 0 3.5-1.3 13.8-1.7 17.4-3.1 0-8.3-.8-11-2.4.3-6 .7-12.6 0-16.6zm-19.8 4.7c.4-.7.8-3.5.8-4.7 3.2-2 11.1-4 17-.8.5 4 0 13.9-.3 16.2-5.2-4-13.5-9.5-17.5-10.7z"/>
  <path d="M431 134.4c-.9 0-1.3-2.4-2.8-2.4-.4 0-1.6.4-2 0 0 .8.4 1.6.8 2 .4 1.2 2.3.4 4 .4z"/>
  <path fill="none" stroke="#000" stroke-width="1.2" d="M431 141.2c4.7 0 5.5-6 7.9-6.4m-5.2 6.7c3.6 1.6 6.3-6.7 9.1-6.3m-16.2-4c1.2 0 2-1.5 4 .4.7.8 2 1.2 2.7 1.2m-.8 4.4c-1.6 2.4-4.3 4-6 3.2m-.7-13.1c-1.2.8-2 2.4-2.8 3.5m-1.2 2.4v2"/>
  <path id="a" fill="#fff" stroke="none" stroke-width="1.2" d="M554.1 184.7V262c0 67-31.7 90-74 108.1C437.7 352 405.6 329 405.6 262v-77.3H554z"/>
  <path fill="#c8102e" d="M480 250.1c3.6 0 9.2-3.2 14-8 5-5.5 13.8-7.4 22.9 0 9.1 7.6 14.7 4.4 19.4 0s8.7-5.9 17.8-5.9v-51.5H405.6v51.5c9 0 13 1.6 17.8 6 4.8 4.3 10.3 7.5 19.4 0 9.5-7.5 17.8-5.6 23.4 0 4.4 4.7 9.9 7.9 13.9 7.9z"/>
  <path fill="#0b50a0" d="M480 289.7c4.8 0 14.3-5.1 16.7-6.3 8.7-5.2 15-.4 20.2 2 5.6 2.3 15.9 5.1 22.2 0 6.3-5.2 9.9-4.8 14.3-4.8.7-6 .7-11.9.7-18.6v-4.8c-5.5-1.2-8.3.4-14.2 5.6-6 5.1-12.7 4-21.4.8-8.3-3.6-16.7-10-25 0a20 20 0 0 1-13.4 6.7c-6 0-11.1-4-13.5-6.7-8.7-10-16.7-3.6-25 0-8.7 3.1-15.8 4.3-21.8-.8-5.5-5.2-8.3-6.8-14.2-5.6v4.8c0 6.7.4 12.7 1.2 18.6 4.3 0 7.5-.4 13.8 4.8 6.4 5.1 17 2.3 22.2 0 5.6-2.4 11.9-7.2 20.6-2 2.4 1.2 11.5 6.3 16.7 6.3zm0 17c6 0 13.1-2.3 19.5-5.9 7.9-4.3 13.4-2.4 21.4 1.6 8.3 4 15 2.8 19.8 0 2.4-1.6 4.3-4.8 9.5-3.6-2.4 10-6 18.7-10.3 25.8-8 2-12.3 2-20.6-1.6-8.3-4-18.6-6.3-24.2-2.8a30.2 30.2 0 0 1-15 4.8c-4.4 0-10-1.6-15.1-4.8-5.5-3.5-15.8-1.2-24.2 2.8a26.9 26.9 0 0 1-20.6 1.6c-4.3-7.1-7.9-15.9-10.3-25.8 5.2-1.2 7.2 2 9.5 3.6 4.4 2.8 11.5 4 19.5 0 8.3-4 13.8-6 21.7-1.6 6.4 3.6 13.5 6 19.5 6zm0 63.4a158.6 158.6 0 0 0 42.4-24.5c-3.1-1.2-5.1-.4-7.9-2.4-2.7-2-11-2.8-18.2 1.2a32.2 32.2 0 0 1-32.5 0c-7.1-4-15.4-3.2-18.2-1.2-2.8 2-4.8 1.2-8 2.4a152.7 152.7 0 0 0 42.5 24.5z"/>
  <path fill="#f9d050" stroke="#000" stroke-width="1.2" d="M469.8 204.1c.4.8-.4 2.8 0 3.6.7 1.6.7 2.4 2 3.2h2.7c8.7 0 19-3.6 27.7-3.6 8.4 0 13.5 2.8 18.3 2.8 2.7 0 5.1-2 5.1-4s-3.2-3.1-9.9-3.1c-9.5 0-14.6 2.3-22.6 2.3-11.9 0-13.8-4.3-13.8-6.3s2-4.8 8.3-4.8c2 0 3.6-.4 4.3-1.1.4-.8 1.6-2.4 4-3.6 2.8-1.6 8.3 0 11.1-2 0 1.6-2.4 4-4.4 4.8 4-1.2 8.4-1.2 9.2 2-2-1.2-5.2-.5-6.4 0-1.6.3-2.4.7-4 1.1 1.6-.4 2.4 2.8 4.8 2.8-2.4 2-6.3 2-10.3.4-1.2-.4-4.4-1.6-6.3-1.6-4 0-6.4.8-6.4 2.4 0 2 2.4 3.2 9.5 3.2 7.2 0 11.1-2 21.8-2-.8-1.2.4-2.4-1.2-3.6 4 0 8.4 1.2 10 4-.5-2.8 2-5.2 1.1-7.6 2.4.4 4.4 2.8 4.8 4.8 0-1.2 1.6-1.2 1.6-2.4 2.3 1.2 3.5 4 3.1 6.4 1.2-2 2.4-1.2 3.2-3.6.8 1.6.4 6.3-2.4 8 2.4-1.7 6-1.7 8.4 1.1-2.4-.4-3.6.8-4.8 1.2a36.7 36.7 0 0 1-18.6 4c-6.4-.4-7.2-1.6-11.1-1.6 2.4.4 7.1 5.1 11.5 5.1 2.7 0 4.7 0 6-.4 1.1-.4 3 0 4.7.8 1.2 1.2 3.5 2.4 5.1 2-.4 1.6-1.2 2.4-2.4 2.8 2 1.2.8 2 2.8 3.5-.8 0-1.6.8-2.8.4 1.2 1.2 1.2 2.8 2.4 3.6-.4 0-1.6.4-2.4 0 1.2 1.6 0 3.6 1.2 4.4 1.2 1.5-1.2 3.5-3.1 2 .4 1.1-.8 2.3-2 2-1.2-.5-2-1.7-1.6-2 0-.5 0-.5.4-.8-.8 1.1-2.4 1.1-3.2.7-.4-.4-.8-.7-.8-1.1-2.7.7-4-1.6-3.5-2.8.4-1.2 2.7-1.6 3.5-1.2.8.4 1.6.8 2.4 0 .8-.4 1.2-1.2 1.2-2 0-1.2-1.2-4.7-6.3-4.3-6 .4-15.5-1.2-20.2-2.8-.4-.4-.8-.4-1.2-.8 0 1.6-1.6 2.4-1.6 4 0 2 .8 3.5 3.1 4.3-1.1 2-3.1 1.6-4 .4 0 1.2-1.5 2-1.5 3.6l-1.2-2c-1.2 2.8-4.3 4.3-6 3.6-2 1.5-4.3 1.1-5-.4-1.3.8-2.9.8-3.6 0 0 1.1-.8.8-1.2 2.3 0 .8-1.6 1.2-2.4.8-.8-.4-1.2-2-.4-2.7-1.2.7-2.4.7-3.2 0 0-.8 0-2 .8-2.4h.8c-.8-.4-2 0-2.8-.4-.8-.8-.8-1.6-.4-2.4.4-.4 1.6-1.2 2.4-.4l.4.4c0-.8.4-1.6.8-1.6.8-.4 2-.4 3.2.8.8 1.2 1.6 1.2 4 .8 2 0 5-2 7.5-4-6.8-1.1-2.8-5.5-.8-7a9 9 0 0 0-5.6.3c-8.3 4.4-17 9.5-22.6 8 0 .7.4 1.5.8 2.3-1.2 0-3.5 0-4.3-1.2-.4.8-1.2 2.8-.4 4.4-.8-.8-3.2-1.6-4.4-2 .8.8 0 2.4.4 3.6-1.2-1.2-3.2-2-4-1.2-.7.8-2.3 1.2-3.5.8-.8 1.2-2 2-3.2 2.3 0-.7 0-2-.4-2.3a6.8 6.8 0 0 1-3.1 3.5c0-.8 0-2-.4-2.7 0 1.5-3.2 2.3-3.6 3.5.4-1.2.4-2.4.4-3.1a6 6 0 0 1-4 2.7c.4-.8.8-1.6.4-2.3-.4 1.5-2.8 2.3-4.7 2 0 .7-1.6 2-3.6.7-1.2-.4-2-1.6-1.2-2.4-1.6 0-3.2-1.5-2.4-2.7 0-.4.4-.8.4-1.2-1.2-.8-1.6-2.4-.4-3.6.4-.4 1.6-.4 2.4-.4 0-3.1 2.8-3.1 4-.8.8 1.2 3.1 3.2 5.1 2.8.8 0 1.2-.4 2-.4a34 34 0 0 0 10-5.1c.3-1.2.3-2 .3-2.8-1.6.8-3.2 1.6-4 2.8v-1.2c-1.1 0-3.1-.4-4-.4.5-.4.9-2.4 1.7-2.8-2 .4-4 0-5.6-.4.8-.8.8-2 1.2-3.2-.8.4-2.8-.4-4.3 0 .3-1.2.7-2.7 2-3.1-1.7.4-3.6 0-5.6-.8 1.6 0 2.4-2 3.6-2-3.2 0-4-1.6-5.6-2.4 1.2.4 2-.8 3.2-.8-1.2-.4-3.2-2.4-2.4-3.5-.4.4-.8 1.1-1.6 1.5-.8.4-2.4 0-3.6-1.1-.7-1.6-.3-3.6 1.2-4-2-.4-2-2.4-1.2-3.2.4-.8 2-2 2.8-.8l1.2 1.6c-.4-.8-.4-2.4-.4-3.6.4-1.1 1.2-1.1 2.4-1.5 1.2 0 2 1.2 2 2.3 0 1.2.4 2 .8 3.6l.4-1.6c0-1.6 2-1.2 3.1-.8 1.2.4 1.6 2.8 0 4-.8.8-.4 2 .4 2.8 2.8 4.3 7.6 7.9 11.5 8.3 0-1.6.8-3.2 2-4.4 0-.8.4-2 .8-2.7.4-2.4 1.6-3.6 3.2-2.8-.4-.4-.8-.8-.8-1.2-1.2-1.2-2.4-3.2-1.6-4.8.8-1.5 3.2-1.2 4-.4-.5-2.3 2.3-4.3 2.3-5.5.4 1.2 1.2 2.8.8 4 .4-1.6 3.2-3.6 5.2-4.4-.8 1.2 1.5 3.2 1.2 4.4.7-2 4-3.2 6.3-3.2-.8.8-.8 2.4-.8 3.2 1.2 0 3.2-.4 4-1.6a6 6 0 0 1-1.6 4c.4-.5 2-.5 3.1-.5-1.1 1.2-.7 2.4-2 3.2 1.6-.8 3.6-.8 4 .8.8 1.2-.4 3.2-1.2 4.4-.8.4-1.5 1.1-2 1.1z"/>
  <path fill="none" stroke="#000" stroke-width="1.2" d="M445.2 208.9c-2.8 1.2-3.6 4-4 5.5m3.6-2.7c-4 2.3-5.5 4.3-4.8 8.7m6.8 3.2c2.4-.8 4-1.6 6-5.2"/>
  <path fill="none" stroke="#000" stroke-width="1.2" d="M451.5 220c-.8 1.6 0 4.3-1.2 5.5 2-1.2 3.6-2.7 4-5.5"/>
  <path fill="none" stroke="#000" stroke-width="1.2" d="M452.3 224.3a13 13 0 0 0 5.2-5.9c-.4 1.2 0 3.2-.8 4.4 2-2 2.8-3.2 3.2-5.2l.3 1.6c.8-.8 1.6-1.6 1.6-3.2m0 1.2v2c1.6-1.2 2-2.8 2-4.8m-.4 2.4c2.4-1.6 2.8-4 2.8-7.5m0 4c1.6-1.2 2-2 2-5.6M463 197c-.8 0-1.6.4-1.6 1.6 0 .8-1.2 2-1.2 3.2-.3 1.6-1.1 2-2.3 1.6-1.2-.8-1.2-.8-1.2-2 0-1.6 2-2 2-3.6.4-.8.8-2 1.2-2-2 1.2-4.8.4-5.2-2"/>
  <path fill="none" stroke="#000" stroke-width="1.2" d="M466.6 198.2c-.8.4-1.6-.8-2.8-.4-.4 0-1.6.4-2 0"/>
  <path fill="none" stroke="#000" stroke-width="1.2" d="M461 200.2c.4.4 2.4 1.2 4.4.4-1.6.4-2.8-1.6-1.2-2.8m-6.7-1.6c-1.6 0-2.8 1.2-2.4 2.4.4 1.2 2 1.2 3.2.4m-3.6 17a3 3 0 0 0 .8-1.6 3 3 0 0 0 2-.7c1.6 0 2.7-1.2 3.1-2.4.8 0 1.2-2 1.6-2.8.4.4 1.2 0 1.6-1.6.8.4 2 0 2.4-1.2m-16.3-2.7c0 .4-.7 1.1-1.5 1.5.4.8 0 2.8-.8 3.2.4.8 0 2-.4 2.8l.4 2m4-17.5c-.9 2-.5 4.4 1.1 4.8"/>
  <path fill="none" stroke="#000" stroke-width="1.2" d="M452.3 201.4c-.4 2-.4 4.7-.8 6-.4.7-1.2 3.5 2 4.3 3.6.8 5.6.4 7.5-5.6m6 15.5c0 .4-.4 1.2-1.2 1.2m4-2c0 .8-.8 2-1.2 2.4m4-3.2c0 .8 0 2-.9 2.4m-23.3-27c.4 0 .8.8 1.2 1.6-1.2-.8-2.4 1.2-1.6 2.4m-.8 2.8-1.6 1.2m.4 2.3c-.4 0-.8.4-1.2.4m-17.8-7.5c0-.4 0-.4.4-.8m-4-.4c-.4 0-.4 0-.8-.4m1.2 6h.8m-2.4-2.4c-.8-.8-2-1.2-2.4-1.2m24.2 15.8c-2.8 2.4-4 4.4-4.4 7.2m7.2-5.2a9.4 9.4 0 0 1-3.2 3.6m-12.3 8.3c-3.1.8-5.5.4-7.9-1.2-.4-.4-.8-.4-1.2-.8m21-3.5c-.4 1.5-.8 3.5-1.6 4 3.2-1.7 6-4 6.4-7.6m-27.8 11c1.2-.3 2.4.5 3.2-.3m65.8-12.7c.8.4 2 .8 2.3 1.2.4-.8 2-2 3.2-2.4m-33.7 9.5c-.4-1.6.4-3.5 2.8-4.3m-18.2 11c.4-.7.4-2 .8-2.7m-18.2 4c-.4.7-1.2 1.5-1.2 2.3m-4.8-1.6s0-.3.4-.3c.8-.4 2-1.2 2.4-2m51.1-3.2c-.8.4-1.2 0-1.6-.4m1.2 2.4s-.4.4-.8.4m2.8 1.6c-.4.4-.8.8-1.2.8m12.7 0c.8-.4 1.2-1.2 1.6-2.8m-6.8 2.4c1.2-.4 2-1.2 3.2-2.4m8-.8c0-.8 0-1.6.3-2.4m29 6c-.9-.8-.9-2 .3-2.8l2-1.2m-26.5-10c-6.4-2.7-6-6.3-11.1-5.9m39.2 18.3c.4.4 0 1.6 0 2m3.6-2c-.4 1.2-.4 1.6-.4 2.7m-30.1-40h-3.2M468.2 209c0 .8 1.2 2.4 4.3 2.4-.4 0-.8-.4-.8-.4"/>
  <path fill="none" stroke="#000" stroke-width="1.2" d="M469.8 204.1c-.4.4-.8 0-.8 0-.8-.7.4-2.3 1.5-3.1-1.1.4-2 .4-2.7.4-.8 2.3-3.2 3.5-4.8 2-.4 1.5-2.4 3.5-4 3.1-1.5-.8-2-2-1.5-3.1-2 2.3-4.4.7-5.2 0-.4-.8 0-2.8.8-5.2"/>
  <path d="M495.1 219.2c-1.2.8-2.4 0-3.6 1.2-.7.8.4 1.2 1.2 1.2-.4 1.2-.4 1.6 1.6 1.6-.8 1.1 1.6 1.5 1.2 3.1a3.8 3.8 0 0 0 .8-4c-.4-1.1-2.4-2-1.2-3.1z"/>
  <path fill="#073163" d="M459 206.5c-1.5-.8-2-2-1.5-3.1-.4.7-1.2 1.1-2 1.1-1.6 3.6-3.6 6.8-6 6.8-2.7.4-2.3 3.1-.3 3.1 4.3.8 6.3-.7 9.9-7.9zm-39.2-9.5c1.2-1.2.4-2.4-.4-2.8-1.1-.4-3.5 0-4.7 2 1.2-.4 2.4-.4 2.8.4.4.8 1.1 1.6 2.3.4zm2-7.1c2.8 0 3.6.4 4 1.6.4.8-.4 2-1.2 2-1.2 0-2.4-.8-2-1.2.4-.8.4-2-.8-2.4zm8 6.3c2 .4 2.7-.8 1.5-2.4-.4-1.1-1.6-2-3.5-1.5 2 1.1 0 3.1 2 4zM415 203c1.2 2 3.2 2 4 1.5 1.1-.4 1.5-1.5 1.1-2.3-.8-1.2-2-1.6-2.3 0-.8 1.5-2 1.2-2.8.8zm6 24.1c-.9-1.6-3.2-1.6-5.2 0 .8-.4 2.4 0 2.7.8.4.8 1.2.8 1.6.8.4-.4 1.2-.8.8-1.6zm3-2.4c0-2-2.7-2.3-4.3-1.5.8 0 2 .8 2 1.5.4.8 1.2 1.2 1.6 1.2.8-.4 1.2-.8.8-1.2zm-3.9 7.2c-2.3-.4-3.5 2.4-3.5 4.3.4-1.2 1.6-2 2.7-1.5 1.2 0 1.6-.4 1.6-1.2.4-.8 0-1.2-.8-1.6zm.4 6.7c.8.4 1.6-.4 2-1.6 0-.8 1.6-.8 2-.4.8.4.8 2-.4 2.8-.8.4-2.8.8-3.6-.8zm55.1-11.9c-.8-.4-2.8-1.2-4.4 0 1.2-.4 2 .4 2.4 1.2 0 .8 1.2 1.2 1.6.4.4-.4.8-1.2.4-1.6zm-3.6 2.8c-1.6-.8-3.5 1.2-4 2.8a6 6 0 0 1 2.8-1.2c.8.4 1.6 0 1.6-.8.4-.4.4-.8-.4-.8zm2 3.2c-1.2 0-2.8 1.6-2.8 3.1.4-.8 1.2-1.2 2-.8.8 0 2-.3 2-1.1s-.4-1.2-1.2-1.2zm3.6 3.1c-.8-.4-2 0-2 1.2s0 2.4-.4 2.8c.8-.8 1.6-1.2 2.4-1.6.4-.4.8-1.6 0-2.4zm44.8-3.5c-.8-.8-2-.4-2.4.4-.4.8-.8 2.7 0 4.3 0-.8.8-2 1.6-2 1.1-.3 1.5-2 .8-2.7zm2.3 1.6c-1.6.8-1.6 3.5-.4 5.1 0-.8.4-2 1.2-2.4 1.2 0 1.6-1.6 1.2-2.3-.8-.8-1.6-.4-2-.4zm4.8 1.5c-.8-.4-1.6.4-1.6 1.2-.4 1.2.4 2.8 1.6 3.6 0-.8.4-1.6.8-2 1.2-.8.8-2.4-.8-2.8zm3.5-.4c-.7 0-1.5 1.2-.7 2.4.4.8 1.1 1.2 2.7.8-.4 0-1.2-1.2-.8-1.6.4-.8 0-1.6-1.2-1.6z"/>
  <path fill="#f9d050" d="m423 309.1 19.8-61 19.8 61-51.9-37.6H475z"/>
  <path fill="#024919" d="m427 303.6 41.2-30.1h-50.7l40.8 30-15.5-48.2z"/>
  <path fill="#f9d050" d="m513.1 309.1 19.8-61 19.8 61-51.9-37.6H565z"/>
  <path fill="#024919" d="m517 303.6 41.3-30.1h-50.7l40.8 30-15.5-48.2z"/>
  <path fill="#f9d050" d="m468 361.4 19.9-61 19.8 61-52-37.7H520z"/>
  <path fill="#024919" d="m472 355.8 41.2-30h-50.7l40.8 30-15.4-48.3z"/>
  <path fill="none" stroke="#000" stroke-width="1.2" d="M554.1 184.7V262c0 67-31.7 90-74 108.1C437.7 352 405.6 329 405.6 262v-77.3H554z"/>
  <path fill="#012169" d="M0 0h320v240H0z"/>
  <path fill="#fff" d="m37.5 0 122 90.5L281 0h39v31l-120 89.5 120 89V240h-40l-120-89.5L40.5 240H0v-30l119.5-89L0 32V0z"/>
  <path fill="#c8102e" d="M212 140.5 320 220v20l-135.5-99.5zm-92 10 3 17.5-96 72H0zM320 0v1.5l-124.5 94 1-22L295 0zM0 0l119.5 88h-30L0 21z"/>
  <path fill="#fff" d="M120.5 0v240h80V0zM0 80v80h320V80z"/>
  <path fill="#c8102e" d="M0 96.5v48h320v-48zM136.5 0v240h48V0z"/>
</svg>
