<svg xmlns="http://www.w3.org/2000/svg" height="480" width="640" version="1"><g><rect height="480" width="640" fill="#006"/><g transform="scale(.781 .781)"><rect fill-rule="evenodd" height="256" width="512" fill="#006"/><g><path fill="#fff" d="M0 0v34.675l428.047 275.466h53.879v-34.674l-428.047-275.466h-53.879zm481.926 0v34.674l-428.047 275.466h-53.879v-34.674l428.047-275.466h53.879z"/><path fill="#fff" d="M200.803 0v310.14h80.321v-310.14h-80.321zm-200.803 103.38v103.38h481.926v-103.38h-481.926z"/><path fill="#c00" d="M0 124.056v62.028h481.926v-62.028h-481.926zm216.867-124.056v310.14h48.193v-310.14h-48.193z"/><path fill="#c00" d="M0 310.14l160.642-103.38h35.92l-160.642 103.38h-35.92zm0-310.14l160.642 103.38h-35.92l-124.722-80.263v-23.117zm285.364 103.38l160.642-103.38h35.92l-160.642 103.38h-35.92zm196.562 206.76l-160.642-103.38h35.92l124.722 80.264v23.116z"/></g></g><g transform="matrix(1.024 0 0 1.024 -283.01 45.714)"><path d="M714.2 130.3c-.986.596-2.958 2.383-4.93 1.788-1.972-.596-6.409-8.342-11.339-7.151-4.93 1.192-7.888 2.979-9.86 2.979-1.972 0-7.395 1.788-7.395 6.554 0 4.767.493 8.343 1.479 8.343.986 0 2.465-2.979 2.465-2.979s.493 5.959 3.944 5.959 10.846.596 11.339 2.384c.493 1.788-3.451 5.959-2.465 9.534.986 3.575 5.423 9.534 5.423 9.534s-6.409 4.767-6.409 7.747l.986 5.959-28.594 1.192s-1.972 84.617-.986 91.173c.986 6.552 3.451 22.642 3.451 22.642s-6.409-2.084-11.832 3.28c-5.423 5.363-24.403 14.597-24.896 18.768-.493 4.171-2.219 7.748-.246 10.727 1.972 2.979 8.911 11.074 6.902 10.727-6.619-1.141-9.081-10.545-13.557-14.003-4.398-3.396-13.064-2.682-14.05.891-.986 3.577-.493 9.534 0 10.727.493 1.192 5.916 20.261 7.395 24.432s17.008 10.426 23.91 9.832c13.064.297 18.98-5.66 19.473-5.063.493.594 28.106 29.07 84.795 29.197 44.129.098 77.4-28.603 77.4-28.005 0 .594 18.241 5.958 24.65 4.171 6.409-1.79 15.776-5.961 17.748-10.132 1.972-4.171 7.395-25.624 7.888-29.197.493-3.577 0-7.748-4.437-8.94s-6.902-.895-9.367.297-3.205 4.472-6.902 10.429c-1.972 1.79-7.148 6.556-5.669 5.363s4.683-10.129 5.176-13.111c.493-2.979 1.972-8.342-1.479-11.321-3.451-2.979-8.737-4.196-14.79-8.639-5.748-3.939-10.352-10.429-13.804-10.429-3.451 0-7.395-1.787-6.902-1.787.493 0 4.445-8.657 3.459-17.594-.986-8.94.485-94.434-.008-94.434s-24.65 1.788-24.65.596 1.972-9.534 0-14.897c-1.972-5.363-10.353-8.939-7.888-10.13 2.465-1.192 13.311-4.171 12.818-8.939-.493-4.767-7.395-4.171-10.353-5.959-2.958-1.788-11.832-10.13-12.818-10.13-.986 0 25.635-16.089 23.664-16.089-1.972 0-12.325-2.979-15.776-1.192 0-2.979 14.297-11.918 11.832-13.11-2.465-1.192-13.804-2.384-10.846-2.979 2.958-.596 3.944-7.747 3.451-7.747-.493 0-12.818 1.788-12.818 1.788s-2.958-4.171-3.944-4.171c-.986 0-5.423 2.383-5.423 2.383l-2.465-6.555-5.423 3.576-2.465-2.979s-4.437 1.192-4.437 0c.186-.043-.511-2.992-1.208-2.992s-5.578 3.792-5.752 3.581c-.174-.211-5.577-7.795-5.577-7.584 0 .211-3.835 14.326-4.009 14.326-.174 0-3.835.421-4.009.632-.174.211-19.522-11.166-19.347-10.955.174.211 5.054 10.955 5.054 10.955s-4.183 2.318-4.183 2.528c0 .211.697 4.845.697 4.845l-12.9-4.425s4.881 9.902 4.532 9.902c-.349 0-9.586.421-9.412.421.174 0 4.357 8.216 4.357 8.216l-1.569 4.846s13.884 9.798 12.898 10.394zm82.33 207.37c1.232 1.787 7.888 10.129 6.902 10.129-.986 0-17.501 11.024-24.157 13.111-6.655 2.084-28.347 5.958-27.115 5.66 1.232-.297 19.479-10.288 26.874-15.053 7.395-4.765 17.495-13.252 17.495-13.847zm-103.04-.301c-.986 1.192-5.669 10.429-5.669 10.429s13.557 9.534 23.664 13.111c10.106 3.573 27.361 4.765 26.375 4.468-.986-.297-21.692-9.534-27.608-14.3-5.916-4.769-16.515-13.709-16.762-13.709z" fill-rule="evenodd" fill="#fff"/><g fill-rule="evenodd" stroke="#6d6666" fill="#fec500"><path d="M704.32 116.714s8.628 6.256 10.599 7.746 8.381 8.044 8.874 7.747c.493-.298 3.944-3.575 3.944-3.575s-7.148-6.853-11.585-8.342-11.832-2.979-11.832-3.575z"/><path d="M703.088 109.861c.74 0 14.297 8.343 18.487 12.514s5.916 9.534 6.409 9.534c.493 0 6.902-1.192 6.655-1.192-.246 0-2.958-10.726-9.12-14.003-6.163-3.277-22.185-6.853-22.431-6.853z"/><path d="M767.044 88.419c-.247 0-2.713 8.929-3.453 11.608-.74 2.679-1.973 8.334-1.973 8.334s-10.853 1.191-10.36-.298c.493-1.488 16.526-19.644 15.786-19.644z"/><path d="M705.552 99.135s12.818 10.428 17.255 16.387c4.437 5.959 8.874 16.387 9.12 16.387.247 0 12.078-2.979 12.078-2.682s-13.804-16.685-20.459-21.75-17.748-7.747-17.994-8.342z"/><path d="M718.948 96.456s6.413 11.905 7.646 16.072c1.233 4.167 4.933 14.881 4.933 14.881h10.113s-4.933-13.393-10.359-19.941-12.086-10.417-12.333-11.012z"/><path d="M722.398 89.907c.247.893 9.373 11.31 11.593 18.155 2.22 6.845 3.946 15.477 3.946 15.477l8.879-2.679s-7.893-17.56-12.826-22.322c-4.933-4.762-11.099-8.036-11.593-8.631z"/><path d="M796.017 117.906s-18.487 2.384-25.143 4.469l-10.353 9.832s8.628 3.873 9.121 3.277 5.669-6.853 11.339-9.236c5.669-2.383 15.529-8.044 15.036-8.342z"/><path d="M795.276 103.306c-.493.298-15.283 14.897-19.966 19.664-4.683 4.767-9.121 9.832-9.613 10.13-.493.298-9.613-1.489-9.121-2.085.493-.596 13.557-13.407 22.185-19.068 8.627-5.661 15.776-8.044 16.515-8.641z"/><path d="M791.58 92.877c-1.479 2.085-16.022 16.387-19.966 21.452l-10.353 14.003s-7.642-4.171-7.148-5.959c.493-1.788 10.846-12.215 18.241-18.174s19.966-10.726 19.227-11.322z"/><path d="M776.79 91.684c-.246.298-8.874 11.322-10.599 14.301-1.725 2.979-6.902 16.089-6.902 16.089s-7.641-8.044-7.641-8.342 9.613-12.514 15.283-17.281 10.106-3.873 9.86-4.767z"/><path d="M755.527 108.054c0 2.092-1.406 3.788-3.139 3.788-1.734 0-3.139-1.696-3.139-3.788 0-2.092 1.406-3.788 3.139-3.788 1.734 0 3.139 1.696 3.139 3.788z"/><path d="M761.806 113.108c0 1.86-1.406 3.367-3.139 3.367-1.734 0-3.139-1.508-3.139-3.367s1.406-3.367 3.139-3.367c1.734 0 3.139 1.508 3.139 3.367z"/><path d="M747.853 109.318c0 1.86-1.718 3.367-3.837 3.367s-3.837-1.508-3.837-3.367 1.718-3.367 3.837-3.367 3.837 1.508 3.837 3.367z"/><path d="M757.969 116.264c0 3.603-1.952 6.524-4.36 6.524-2.408 0-4.36-2.921-4.36-6.524s1.952-6.524 4.36-6.524c2.408 0 4.36 2.921 4.36 6.524z"/><path d="M746.11 116.474c0 2.79-1.952 5.051-4.36 5.051-2.408 0-4.36-2.261-4.36-5.051s1.952-5.051 4.36-5.051c2.408 0 4.36 2.261 4.36 5.051z"/><path d="M740.179 120.474c0 2.441-1.484 4.42-3.314 4.42s-3.314-1.979-3.314-4.42 1.484-4.42 3.314-4.42 3.314 1.979 3.314 4.42z"/><path d="M764.596 120.051c0 2.906-2.264 5.261-5.058 5.261-2.793 0-5.058-2.356-5.058-5.261 0-2.906 2.264-5.261 5.058-5.261 2.793 0 5.058 2.356 5.058 5.261z"/><path d="M752.389 112.474c0 1.743-1.796 3.157-4.012 3.157-2.215 0-4.012-1.413-4.012-3.157s1.796-3.157 4.012-3.157c2.215 0 4.012 1.413 4.012 3.157z"/><path d="M753.085 119.421c0 2.557-2.499 4.63-5.581 4.63s-5.581-2.073-5.581-4.63 2.499-4.63 5.581-4.63 5.581 2.073 5.581 4.63z"/><path d="M767.386 127.628c0 3.138-2.343 5.682-5.232 5.682s-5.232-2.544-5.232-5.682 2.343-5.682 5.232-5.682c2.89 0 5.232 2.544 5.232 5.682z"/><path d="M738.784 126.154c0 2.092-1.327 3.788-2.965 3.788s-2.965-1.696-2.965-3.788c0-2.092 1.327-3.788 2.965-3.788s2.965 1.696 2.965 3.788z"/><path d="M759.712 125.524c0 2.673-2.03 4.841-4.535 4.841-2.504 0-4.535-2.167-4.535-4.841 0-2.673 2.03-4.841 4.535-4.841 2.504 0 4.535 2.167 4.535 4.841z"/><path d="M745.411 125.314c0 2.325-1.796 4.209-4.011 4.209s-4.011-1.884-4.011-4.209c0-2.325 1.796-4.209 4.011-4.209s4.011 1.884 4.011 4.209z"/><path d="M752.389 126.574c0 2.557-1.874 4.63-4.186 4.63s-4.186-2.073-4.186-4.63 1.874-4.63 4.186-4.63 4.186 2.073 4.186 4.63z"/><path d="M734.248 98.794c1.046 0 8.372 2.946 8.372 2.946s-9.07 4.209-7.674 3.788 10.116-1.684 9.418-1.684c-.698 0-7.674 7.997-5.581 7.576 2.093-.421 6.279-5.472 6.628-5.472.349 0 4.535 7.997 4.884 7.576l.349-7.997c.349 0 8.721 5.051 8.023 4.63-.698-.421-5.581-6.314-5.232-6.314.349 0 11.511 1.263 10.813.842-.698-.421-7.325-4.209-7.325-4.209s4.883-5.472 3.837-5.472l-8.372 5.051c.698-.421 8.721-11.364 8.721-11.364l-8.023 4.63s1.395-6.735.698-6.314c-.698.421-6.279 8.839-6.628 8.839l-1.744-8.418s.349 9.26-1.744 9.681c-2.093.421-9.418 2.105-9.418 1.684z"/></g><g fill-rule="evenodd"><path d="M711.444 166.818c.174.843 5.752 16.011 14.293 15.59s12.027-2.949 11.678-3.16c-.349-.211-4.009-2.739-6.101-8.217-2.092-5.478-2.44-7.795-2.44-7.795l-17.43 3.582z" fill="#00389b"/><path d="M741.947 160.919s6.275 14.958 9.064 17.064c2.789 2.107 9.238 3.792 12.027 3.582 2.789-.211 6.101 0 6.101 0s-2.789-1.475-5.055-9.691l-2.963-10.955h-19.173z" fill="#00389b"/><path d="M780.293 166.397s-1.22 10.955 0 13.694c1.22 2.739 7.321 7.795 7.321 7.795s7.32-1.053 7.495-7.795c.174-6.742-2.44-13.062-2.44-13.062l-12.375-.632z" fill="#00389b"/><path d="M288.94 21.015s1.163 4.651 0 8.139-11.046 12.79-11.046 20.348 11.627 30.812 47.091 31.394c35.463.581 80.229-19.185 79.647-19.767-.58-.581-84.88-56.974-86.04-56.393-1.16.582-29.65 17.441-29.65 16.279z" stroke="#000" stroke-width="1.122pt" fill="#005120" transform="matrix(.3 0 0 .362 618.89 139.61)"/><path d="M523.23 61.129s7.557 20.348 10.464 22.674c2.907 2.325 4.07 6.976 4.651 6.976l48.835 10.464s4.651-13.371-2.325-23.836c-6.977-10.465-33.138-37.789-33.138-37.789l-28.49 21.511z" stroke="#000" stroke-width="1.122pt" fill="#005120" transform="matrix(.3 0 0 .362 618.89 139.61)"/><path d="M556.37 36.13c1.162 0 12.79 9.883 22.092 4.651 9.301-5.232 24.417-19.185 24.417-19.185s-12.79 4.07-22.092 3.488c-9.302-.582-23.836 11.627-24.417 11.046z" stroke="#000" stroke-width="1.122pt" fill="#005120" transform="matrix(.3 0 0 .362 618.89 139.61)"/><path d="M287.2 23.34s-3.488-9.883-12.79-10.465c-9.302-.581-26.162 1.163-31.975-3.488-5.814-4.651-7.558-15.697-10.465-15.116-2.907.581-10.465 0-11.046 0s-3.488-9.302 4.651-13.953 15.116-.581 19.766-4.07c4.651-3.488 11.628-5.814 20.93-6.395 9.302-.581 24.417 11.628 31.394 14.534 6.976 2.907 22.092 6.395 27.905 3.488 5.814-2.907 38.371-15.697 49.998-16.278 11.627-.581 36.045-1.163 45.347-.581 9.302.581 45.928 5.232 56.974 10.465 11.046 5.232 69.764 25.58 77.903 30.231 8.139 4.651 26.162 11.627 26.162 11.627s-31.976 31.394-47.672 36.626c-15.697 5.232-65.695 13.372-95.345 11.627-29.65-1.744-52.904-4.651-75.578-16.278-22.68-11.626-47.1-22.672-48.26-28.486-1.16-5.813-.58-13.371-.58-13.371l-27.324 9.883z" stroke="#000" stroke-width="1.122pt" fill="#005120" transform="matrix(.3 0 0 .362 618.89 139.61)"/><path d="M251.15-14.449c-1.163.581-6.976 2.907-5.814 4.07 1.163 1.163 3.489 4.651 10.465 4.069 6.977-.581 14.534-4.651 14.534-4.651s-8.72-4.07-19.185-3.488z" stroke="#000" stroke-width="1.122pt" fill="#005120" transform="matrix(.3 0 0 .362 618.89 139.61)"/><path d="M250.57-13.286v6.395s8.139 2.325 8.139.581c0-1.744.581-5.814-1.163-5.814s-6.395-.581-6.976-1.163z" stroke="#000" stroke-width="1.122pt" transform="matrix(.3 0 0 .362 618.89 139.61)"/><path d="M331.95-8.453c2.056-3.7 0-8.633 11.922-14.388 11.921-5.755 32.681-4.111 32.681-4.111s-5.96 4.522-6.166 9.249c-.205 4.728.411 6.783.411 6.783s-11.305-3.7-19.938-1.439-18.704 4.522-18.91 3.905z" stroke="#000007" stroke-width="1.122pt" fill="#001707" transform="matrix(.3 0 0 .362 618.89 139.61)"/><path d="M385.4-28.596c-1.233.617-10.277 10.688-9.25 13.772 1.028 3.083 13.155 10.483 17.061 9.866 3.905-.617 21.787-9.249 22.815-13.566 1.028-4.316 1.85-10.072.411-11.305-1.439-1.233-30.832 1.644-31.037 1.233z" stroke="#000007" stroke-width="1.122pt" fill="#001707" transform="matrix(.3 0 0 .362 618.89 139.61)"/><path d="M424.66-30.24c-2.261 2.261-1.439 13.155-.617 14.388.822 1.233 15.005 15.416 18.088 16.238 3.083.822 25.899-1.439 27.749-3.905s7.399-12.949 5.755-15.416c-1.645-2.467-6.578-5.755-21.788-9.044s-24.254-2.878-29.187-2.261z" stroke="#000007" stroke-width="1.122pt" fill="#001707" transform="matrix(.3 0 0 .362 618.89 139.61)"/><path d="M482.82-16.469c3.7 1.85 25.282 12.333 38.026 20.76 12.743 8.427 17.882 18.088 21.582 18.91 3.7.822 18.704-8.222 19.321-10.688.617-2.467-18.293-15.621-31.037-21.582s-47.892-6.783-47.892-7.4z" stroke="#000007" stroke-width="1.122pt" fill="#001707" transform="matrix(.3 0 0 .362 618.89 139.61)"/><path d="M478.3-7.63c-1.85 1.644 23.021 45.014 27.748 46.453 4.728 1.439 33.093-8.427 32.682-11.716-.41-3.288-7.81-9.866-25.28-19.526-17.47-9.661-31.65-16.033-35.15-15.21z" stroke="#000007" stroke-width="1.122pt" fill="#001707" transform="matrix(.3 0 0 .362 618.89 139.61)"/><path d="M447.47 8.196c-3.905 2.261-10.071 41.109-6.166 42.959 3.905 1.85 52.003-4.728 53.853-9.044 1.849-4.316-19.733-38.642-26.105-38.642-6.371 0-17.882 1.644-21.582 4.728z" stroke="#000007" stroke-width="1.122pt" fill="#001707" transform="matrix(.3 0 0 .362 618.89 139.61)"/><path d="M397.73-.025c-5.14 4.728-4.11 40.903-1.85 43.164 2.261 2.261 30.831 9.661 33.914 6.989 3.084-2.672 7.195-43.37 4.317-46.453-2.878-3.083-10.894-10.483-17.06-11.099-6.167-.617-16.444 5.961-19.321 7.4z" stroke="#000007" stroke-width="1.122pt" fill="#001707" transform="matrix(.3 0 0 .362 618.89 139.61)"/><path d="M333.19-.642c-4.728 3.7-4.933 13.36.205 15.005 5.139 1.644 17.882 7.194 29.804 12.333 11.922 5.139 18.705 11.305 22.199 11.099 3.494-.206 6.783-36.381 3.083-38.437-3.7-2.055-14.594-3.7-24.871-3.289-10.277.411-25.282 1.439-30.42 3.289z" stroke="#000007" stroke-width="1.122pt" fill="#001707" transform="matrix(.3 0 0 .362 618.89 139.61)"/></g><path d="M655.26 306.14c2.528-2.462 6.461-8.479 11.798-8.752 5.337-.274 10.956 4.649 10.956 4.649s5.618 22.976 5.337 22.976l-9.551 6.564c-.281 0-3.933-9.026-7.304-8.206-3.371.821-3.09 13.129-3.652 12.309-.562-.821-14.888-17.779-14.326-18.326.562-.547 7.023-10.393 6.742-11.214z" fill-rule="evenodd" fill-opacity=".996" fill="#d40f0f"/><path d="M803.59 303.13c1.685-.273 9.27-6.017 14.607-5.743 5.338.273 8.428 2.735 11.237 5.196 2.808 2.462 6.18 8.752 6.18 8.752s-6.742 18.599-7.303 18.599-3.372 1.642-3.933.274-2.247-5.745-5.618-6.292c-3.37-.547-4.213 6.017-4.213 6.017l-10.955-26.804z" fill-rule="evenodd" fill-opacity=".996" fill="#d40f0f"/><path d="M807.24 308.88c0 1.642 10.394 27.353 27.249 32.275 16.854 4.924 22.192-4.649 24.157-7.931 1.967-3.283 8.99-3.009 8.99-3.009s-1.685 24.07-4.495 27.078c-2.808 3.009-5.057 9.573-20.787 9.846-15.73.274-30.057-14.769-34.832-19.146-4.777-4.377-10.957-15.863-13.485-21.061-2.527-5.196 13.484-17.504 13.203-18.052z" fill-rule="evenodd" fill-opacity=".996" fill="#fddc59"/><path d="M624.08 360.02c.281 0 7.585 7.932 18.259 7.111 10.675-.82 28.934-7.111 37.361-18.052 8.427-10.94 12.641-22.702 12.641-22.702s-12.36-21.881-12.641-21.881c-.281 0-1.405 7.111-3.652 11.761-2.247 4.649-8.427 17.778-18.821 21.882-10.394 4.103-10.394 5.743-14.607 5.196-4.214-.547-15.169-7.111-15.169-7.385 0-.273-5.337 12.856-5.337 12.856s-1.124 8.479 1.966 11.214z" fill-rule="evenodd" fill-opacity=".996" fill="#fddc59"/><path d="M655.07 305.38c-.795 0-20.658 10.831-19.863 15.473.794 4.641 34.165 70.399 105.67 71.172 71.507.774 115.21-59.569 112.03-69.626-3.178-10.056-25.424-21.661-25.424-21.661s5.561 4.641 4.767 10.831c-.795 6.189-25.426 59.569-87.399 58.023-61.974-1.548-91.372-48.738-91.372-54.154 0-5.415 3.178-8.51 1.589-10.057z" fill-rule="evenodd" fill-opacity=".996" fill="#fddc59"/><path d="M848.81 353.19c1.687-1.368 12.08-29.814 17.979-28.993 5.9.821 3.933 9.299 3.372 11.488-.562 2.188-6.462 21.881-6.462 21.881s.282-4.649-3.652-5.743c-3.932-1.094-10.394 1.915-11.237 1.368z" fill-rule="evenodd" fill-opacity=".996" fill="#d40f0f"/><path d="M624.08 360.31c0-1.546-4.767-6.962.794-8.51 5.562-1.546 12.713 1.548 12.713 1.548s-3.973-11.605-8.74-20.888c-4.767-9.283-6.356-7.735-10.329-6.189-3.973 1.548-3.876 5.642-1.492 11.831 2.384 6.189 7.054 23.756 7.054 22.208z" fill-rule="evenodd" fill-opacity=".996" fill="#d40f0f"/><g><polygon fill="#fdc400" fill-rule="evenodd" transform="matrix(.383 0 0 .389 593.86 42.315)" points="249.94 680.32 267.94 620.33 217.95 582.62 280.56 581.2 300.98 522 321.68 581.1 384.29 582.24 334.47 620.18 352.74 680.08 301.26 644.43"/><path d="M818.991 185.663v89.883c.177 43.929-44.618 82.396-74.362 89.883-29.747-7.488-74.539-45.955-74.362-89.88v-89.883h148.724z" fill-rule="evenodd" fill="#fff"/><path d="M177.16 325.98l.421 160.73s2.386-3.288 35.012-1.284c32.627 2.004 35.433 35.433 70.867 35.433l70.866-35.433s35.433 35.433 70.866 35.433 35.433-35.433 70.866-35.433 35.433 35.433 72.87 37.459c33.429-2.026 33.429-37.459 69.062-39.463l35.233 2.004v-159.45h-496.06z" fill-rule="evenodd" fill-opacity=".996" transform="matrix(.3 0 0 .35 617.15 71.606)" stroke="#000" stroke-width="1.122pt" fill="#d40f0f"/><path d="M670.264 260.05v18.597h10.623c9.782.701 10.623 12.398 21.246 12.398l21.246-12.398s10.623 12.398 21.246 12.398 10.623-12.398 21.247-12.398 10.022 11.689 21.246 12.398c10.022-.709 10.563-11.696 21.246-12.398h10.623v-18.597h-10.623l-21.246 12.398-21.246-12.398s-10.623 12.398-21.247 12.398l-21.246-12.398s-10.623 12.398-21.246 12.398-10.623-12.398-21.246-12.398h-10.623z" fill-rule="evenodd" fill-opacity=".996" fill="#0062bb"/><path d="M673.469 297.24l7.419 18.597c9.782.701 10.623 12.398 21.246 12.398l21.246-12.398s10.623 12.398 21.246 12.398 10.623-12.398 21.247-12.398 10.022 11.689 21.246 12.398c10.022-.709 10.317-11.696 21-12.398l7.665-18.884-7.419.288-21.246 12.398-21.246-12.398s-10.623 12.398-21.247 12.398l-21.246-12.398s-10.623 12.398-21.246 12.398-10.623-12.398-21.246-12.398h-7.419z" fill-rule="evenodd" fill-opacity=".996" fill="#0062bb"/><path d="M744.629 365.427c10.623 0 34.964-18.597 34.715-18.597.247 0-2.846-12.398-13.47-12.398s-10.623 12.398-21.247 12.398l-21.246-12.398s-13.335 12.398-13.358 12.398c-.493 0 23.982 18.597 34.604 18.597z" fill-rule="evenodd" fill-opacity=".996" fill="#0062bb"/><g><path d="M90.849 117.57c.822 0 8.222 1.233 13.565.822 5.344-.411 7.4-2.467 7.4-2.878v-1.233h6.988s1.233 5.755.411 6.166-2.878 2.056-3.289 2.056 0-2.878-.822-2.056l-1.233 2.056s-.822-1.234-1.233-1.234l-1.233 1.234s0-1.234-.412-1.234c-.411 0-2.466 2.056-2.466 2.056l-2.055-1.645s-1.234 2.056-1.645 2.056l-2.877-1.644-4.111 2.466s0-3.7-.822-3.289c-.822.411-5.344.411-5.344.411s-1.233 2.467-1.644 2.467-2.055-2.055-1.644-2.055 1.233-1.234.822-1.645l-2.466-.411s-.822-2.878-.411-2.878l2.055.412v-2.467h2.055l.411 2.467z" fill-rule="evenodd" fill-opacity=".996" transform="matrix(1.465 0 0 1.275 556.586 78.706)" stroke="#000" stroke-width=".701" fill="#fdc400"/><path d="M98.248 94.136c-.411 0-3.289 3.289-2.878 6.988.411 3.7 7.4 9.044 7.4 9.044s3.7-1.644 4.933 0 1.233 6.577.822 6.577-5.344 1.234-5.344.411c0-.822 0-1.644-.411-1.644l-4.933.411.411-1.644-4.111-.822 1.644-1.645s-6.577-2.877-6.166-2.877l2.878-1.644-4.933-3.289h2.878s-4.111-3.289-3.7-3.289c.411 0 2.466.411 2.466.411l-1.233-3.288h1.233l-1.233-2.466 2.055-.822 1.233 2.055-.411-4.933 2.877.411v4.111s1.233-2.466 1.233-2.878c0-.411 3.7 1.644 3.289.822z" fill-rule="evenodd" fill-opacity=".996" transform="matrix(1.465 0 0 1.275 556.586 78.706)" stroke="#000" stroke-width=".701" fill="#fdc400"/><path d="M793.872 231.214c-.753.655-3.012 2.096-3.012 2.096s5.12-.393 4.969-.393-1.806-1.311-1.957-1.703z" fill-rule="evenodd" fill-opacity=".996"/><path d="M798.238 233.701c-.3.393-1.204 4.455-.602 4.192.602-.261 3.011-3.275 3.011-3.275l-2.408-.917z" fill-rule="evenodd" fill-opacity=".996"/><path d="M805.153 234.224c.752.655 4.215 3.668 3.764 3.013-.451-.654-.904-3.407-1.204-3.537-.302-.131-2.259.785-2.559.524z" fill-rule="evenodd" fill-opacity=".996"/><path d="M744.487 229.901c-.451.131-4.215 2.621-4.215 2.621s6.323-1.049 6.021-1.049c-.3 0-1.957-1.178-1.806-1.572z" fill-rule="evenodd" fill-opacity=".996"/><path d="M748.398 233.05c-.602.524-2.559 4.192-1.806 4.062.753-.131 4.065-2.49 4.065-2.49l-2.259-1.572z" fill-rule="evenodd" fill-opacity=".996"/><path d="M745.981 227.938c-.451-.131-3.614-1.442-3.463-1.442l4.216-.917-.753 2.359z" fill-rule="evenodd" fill-opacity=".996"/><path d="M686.367 226.242l-4.517-3.145 5.721 1.572-1.205 1.573z" fill-rule="evenodd" fill-opacity=".996"/><path d="M682.453 228.333c-.602 0-6.324 3.144-6.173 3.144s7.98.131 7.829 0c-.15-.13-1.355-2.881-1.656-3.144z" fill-rule="evenodd" fill-opacity=".996"/><path d="M686.066 232.923c-.602.263-5.119 3.275-4.818 3.275.301 0 6.775.131 6.775 0s-1.807-3.144-1.957-3.275z" fill-rule="evenodd" fill-opacity=".996"/><path d="M685.464 200.291s-1.656-3.669-1.506-3.669c.15 0 4.216 2.883 4.216 2.883l-2.71.786z" fill-rule="evenodd" fill-opacity=".996"/><path d="M689.98 195.704c0-.131.452-2.358.452-2.358s4.065 2.752 3.914 2.752c-.15 0-4.065 0-4.366-.393z" fill-rule="evenodd" fill-opacity=".996"/><path d="M696.305 197.408c0-.131.452-3.407.452-3.407s3.764 4.455 3.463 4.586c-.301.131-3.613-.655-3.915-1.179z" fill-rule="evenodd" fill-opacity=".996"/><path d="M137.26 110.86c0 .206 4.316 3.7 4.419 4.522.102.822-7.811 1.028-7.811 1.028s-2.261-1.747-2.98-1.645c-.72.103-1.028 1.85-1.028 1.85l1.85 1.028-3.494.205 1.028 1.953 2.672-.206-.617 1.85s1.644 1.234 1.953 1.028c.308-.205 1.336-2.055 2.158-2.364.822-.308 2.569-.308 2.569-.308s-1.336 2.261-.719 2.261c.616 0 3.391-2.364 3.391-2.364s.617 2.158.719 2.158c.103 0 2.056-2.466 2.056-2.466s0 1.953.308 1.953l3.186-2.467s2.261 2.878 2.569 2.672c.309-.205.617-3.083.925-3.083s2.261-.308 2.261-.411-1.233-1.131-1.439-2.569c-.205-1.439.206-4.83.103-4.83s-13.874.513-14.079.205z" fill-rule="evenodd" fill-opacity=".996" transform="matrix(1.465 0 0 1.275 555.586 78.994)" stroke="#000" stroke-width=".701" fill="#fdc400"/><path d="M115.37 104.6h40.286c4.111 0 7.81-1.644 7.81-4.111 0-2.466-6.577-2.877-9.043-2.055-2.467.822-13.155 5.755-17.677 5.344s-8.632-3.289-9.043-6.166c-.412-2.878 2.055-5.344 6.577-5.344s10.277 1.644 11.51 1.233 4.111-3.7 5.344-4.111c1.233-.411 4.933-.822 4.933-.822l-1.644 1.233 5.344-1.233s-4.111 4.522-8.222 5.755c-4.111 1.233-12.743.822-16.032.822s-4.933-.411-4.522 2.055c.411 2.466 2.878 4.111 4.933 3.699 2.056-.411 8.222-2.466 8.222-2.466l-1.645-1.233 7.4-.411s-.411-1.233 0-1.233l4.111.411s-2.467-1.233-2.056-1.233 2.056 0 5.344.411c3.289.411 10.277 1.644 9.866 4.933-.411 3.289-2.877 6.166-5.755 6.166s-5.344-.822-5.344.412c0 1.233 3.289 2.055 5.344 2.055s4.522-1.644 4.933-1.644 1.233 2.466 1.644 2.466l2.878-.822-1.644 4.522 2.877.822s-1.644 1.644-1.233 1.644 2.877 0 2.877.411-3.288 2.878-3.288 3.289l2.466 1.644s-1.644 2.467-2.055 2.056l-2.056-2.467s-.411 1.645-1.233 1.645l-2.466-.411s1.233-2.467.822-2.467-2.467 1.644-2.467 1.233l-1.232-1.236s3.288-1.336 3.288-3.289c0-1.952-1.336-3.905-7.296-4.213-5.961-.309-6.064 1.438-10.483 1.233-4.419-.206-4.419-1.953-7.708-1.953-3.288 0-13.463 4.111-18.19 4.008-4.727-.102-10.688-.411-10.483-.616.206-.206 3.906-9.661 4.008-9.966z" fill-rule="evenodd" fill-opacity=".996" transform="matrix(1.465 0 0 1.275 555.586 78.994)" stroke="#000" stroke-width=".701" fill="#fdc400"/><path d="M106.88 102.46c-.411.206-4.008.72-4.214 4.522-.205 3.803.309 3.803.72 3.597.411-.205 1.233-3.494 1.233-3.494s-1.233 4.522.103 5.55c1.336 1.027 2.775 1.438 2.775 1.438l.513-3.597s-1.027 3.495 1.439 4.728c2.467 1.233 3.392.308 3.186-.617-.205-.925-.925-3.288-.925-3.288s1.953 2.158 2.056 2.363c.102.206 1.027 1.85 3.494 1.131 2.466-.72.719-2.364.719-2.364l-2.98-2.46s3.083 3.185 4.419 2.055-1.028-3.597-.925-3.494 1.953 3.494 2.672 1.336-1.13-2.775-1.747-4.83c-.617-2.056-1.131-2.261-.514-3.495.617-1.233.72-3.596.72-3.596s2.569.617 2.363-1.542c-.205-2.158-2.775-2.672-3.288-2.775-.514-.103-.412-2.261-.617-2.158-.206.103-1.85 1.336-1.85 1.336s-1.439-3.392-1.747-3.186-1.953 1.953-3.186 2.055c-1.233.103-1.953 1.85-1.953 1.85s-4.316-2.055-4.213 1.336c.103 3.392 2.569 2.569 2.569 2.672s-.411 4.728-.822 4.933z" fill-rule="evenodd" fill-opacity=".996" transform="matrix(1.465 0 0 1.275 556.586 78.706)" stroke="#000" stroke-width=".701" fill="#fdc400"/><path d="M716.738 202.654c.725-.222 1.79-1.147 3.025-1.035s3.215 1.059 2.235 1.577c-.981.518-1.704.739-2.813.479-1.107-.26-1.958-.817-2.448-1.021z" fill-rule="evenodd" fill-opacity=".996"/><path d="M728.913 202.522c-.725-.222-1.79-1.147-3.025-1.035s-3.215 1.059-2.235 1.577c.981.518 1.704.739 2.813.479 1.107-.26 1.958-.817 2.448-1.021z" fill-rule="evenodd" fill-opacity=".996"/><path d="M110.99 103.17c.103.514.411 4.831.616 4.522.206-.308 1.748-4.419 1.645-4.419s-2.158.103-2.261-.103z" fill-rule="evenodd" fill-opacity=".996" transform="matrix(1.465 0 0 1.275 556.79 78.769)" stroke="#000" stroke-width=".421" fill="#000039"/><path d="M109.96 103.17c.049-1.215.822-1.13 2.467-.925 1.644.206 2.466 1.028 2.363 1.234-.102.205-1.438.719-2.569.616-1.336-.411-2.298.089-2.261-.925z" transform="matrix(1.465 0 0 1.275 556.79 78.955)" stroke="#000" stroke-width=".842" fill="none"/><path d="M112.43 100.08l-.206 1.953" transform="matrix(1.465 0 0 1.275 556.79 78.955)" stroke="#000" stroke-width="1.122pt" fill="none"/><path d="M119.32 94.844s1.336.617 1.131 1.233c-.206.617-1.131.925-1.131.925" transform="matrix(1.465 0 0 1.275 556.79 78.955)" stroke="#000" stroke-width="1.122pt" fill="none"/><path d="M108.12 94.33c-.308.103-.719.308-.925 1.131-.205.822.925 1.336.925 1.336" transform="matrix(1.465 0 0 1.275 556.79 78.955)" stroke="#000" stroke-width="1.122pt" fill="none"/><path d="M111.19 136.13s-1.454 1.454 1.017 1.454l.727-1.308" transform="matrix(1.465 0 0 1.275 557.002 31.145)" stroke="#000" stroke-width="1.122pt" fill="none"/></g><polygon fill="#fdc400" fill-rule="evenodd" transform="matrix(.348 0 0 .343 640.98 116.4)" points="249.94 680.32 267.94 620.33 217.95 582.62 280.56 581.2 300.98 522 321.68 581.1 384.29 582.24 334.47 620.18 352.74 680.08 301.26 644.43"/><polygon fill="#003017" fill-rule="evenodd" fill-opacity=".996" transform="matrix(.29 0 0 .272 658.43 158.85)" points="249.94 680.32 267.94 620.33 217.95 582.62 280.56 581.2 300.98 522 321.68 581.1 384.29 582.24 334.47 620.18 352.74 680.08 301.26 644.43"/><polygon fill="#fdc400" fill-rule="evenodd" transform="matrix(.344 0 0 .324 606.09 87.419)" points="249.94 680.32 267.94 620.33 217.95 582.62 280.56 581.2 300.98 522 321.68 581.1 384.29 582.24 334.47 620.18 352.74 680.08 301.26 644.43"/><polygon fill="#003017" fill-rule="evenodd" fill-opacity=".996" transform="matrix(.287 0 0 .258 623.36 127.56)" points="249.94 680.32 267.94 620.33 217.95 582.62 280.56 581.2 300.98 522 321.68 581.1 384.29 582.24 334.47 620.18 352.74 680.08 301.26 644.43"/><polygon fill="#fdc400" fill-rule="evenodd" transform="matrix(.348 0 0 .324 677.16 87.419)" points="249.94 680.32 267.94 620.33 217.95 582.62 280.56 581.2 300.98 522 321.68 581.1 384.29 582.24 334.47 620.18 352.74 680.08 301.26 644.43"/><polygon fill="#003017" fill-rule="evenodd" fill-opacity=".996" transform="matrix(.29 0 0 .258 694.65 127.56)" points="249.94 680.32 267.94 620.33 217.95 582.62 280.56 581.2 300.98 522 321.68 581.1 384.29 582.24 334.47 620.18 352.74 680.08 301.26 644.43"/></g><path d="M640.9 319.18c7.838 33.733 40.92 58.77 85.477 64.69 57.231 7.604 111.83-21.392 121.87-64.724" fill="none"/><path d="M640.76 324.399l10.748-6.073 1.011 2.21-4.216 2.382 1.395 3.048 4.216-2.382 1.011 2.21-10.748 6.073-1.011-2.21 4.872-2.752-1.395-3.048-4.872 2.752-1.011-2.21m4.499 9.404l10.035-7.428 3.434 5.727-1.668 1.235-2.197-3.664-2.32 1.717 2.045 3.41-1.59 1.177-2.045-3.41-2.763 2.045 2.249 3.75-1.694 1.254-3.486-5.814m6.992 10.787l8.852-9.097 1.515 1.82-3.472 3.568 2.089 2.51 3.472-3.568 1.515 1.82-8.852 9.097-1.515-1.82 4.012-4.123-2.089-2.51-4.012 4.123-1.515-1.82m11.56 5.387l1.436 1.4 2.611-4.931-4.047 3.531m-5.616 1.679l9.993-8.083 2.266 2.208-5.89 12.081-1.819-1.772 1.55-2.967-1.943-1.893-2.433 2.107-1.725-1.681m8.719 8.101l5.955-9.022-2.084-1.698 1.176-1.782 5.979 4.872-1.176 1.782-2.084-1.698-5.955 9.022-1.812-1.477m4.89 3.909l6.282-11.436 1.905 1.292-2.464 4.485 2.627 1.781 2.464-4.485 1.905 1.292-6.282 11.436-1.905-1.292 2.847-5.183-2.627-1.781-2.847 5.183-1.905-1.292m11.808 7.472l5.068-12.156 5.719 2.944-.829 1.989-3.68-1.894-1.198 2.873 3.474 1.788-.81 1.942-3.474-1.788-2.231 5.352-2.039-1.05m11.184-1.846c-.704 2.061-1.04 3.405-1.009 4.032.038.624.35 1.06.936 1.306.576.243 1.058.148 1.445-.284.394-.435.947-1.694 1.658-3.776s1.05-3.434 1.017-4.056c-.033-.622-.34-1.055-.921-1.3-.581-.245-1.069-.147-1.466.294-.396.441-.95 1.702-1.661 3.785m-2.145-.905c.454-1.328.872-2.365 1.255-3.109.385-.75.765-1.275 1.141-1.575.521-.431 1.051-.673 1.588-.726.537-.053 1.177.077 1.919.39s1.298.687 1.668 1.122c.37.435.624 1.008.762 1.717.098.513.066 1.188-.097 2.025-.158.839-.463 1.92-.915 3.243-.45 1.318-.867 2.351-1.252 3.101-.383.744-.762 1.273-1.137 1.587-.526.429-1.058.67-1.595.723-.537.053-1.177-.077-1.919-.39s-1.298-.687-1.668-1.122c-.371-.435-.622-1.007-.754-1.714-.102-.502-.074-1.173.084-2.012.16-.844.467-1.931.921-3.259m10.371-2.846l2.154.713-2.319 8.655c-.265.989-.338 1.698-.218 2.125.126.423.467.726 1.022.91.55.182.978.13 1.284-.156.31-.285.601-.93.87-1.936l2.31-8.622 2.124.703-2.375 8.863c-.231.862-.445 1.478-.642 1.848-.191.367-.429.666-.715.898-.431.348-.932.551-1.503.61-.57.053-1.205-.036-1.905-.267-1.321-.437-2.169-1.063-2.544-1.877-.369-.818-.341-2.019.083-3.603l2.375-8.863m5.767 15.798l2.633-13.074 2.254.56 1.223 9.905 1.78-9.159 2.071.515-2.633 13.074-2.239-.557-1.242-9.928-1.784 9.176-2.063-.513m11.787.666l.982.171c.5.087.857.108 1.069.063.212-.045.392-.155.538-.329.255-.308.468-.752.64-1.333.172-.586.352-1.539.537-2.856.181-1.284.261-2.226.24-2.829-.021-.602-.134-1.074-.339-1.415-.108-.171-.261-.304-.459-.397-.192-.098-.505-.185-.938-.26l-.951-.166-1.318 9.351m-2.449 1.573l1.866-13.236 3.566.621c.727.127 1.295.296 1.704.508.414.213.738.498.973.856.354.525.567 1.15.64 1.872.078.718.015 1.805-.19 3.26-.265 1.879-.512 3.198-.74 3.957-.228.753-.522 1.377-.882 1.872-.35.497-.785.811-1.306.944-.515.128-1.373.087-2.574-.122l-3.056-.532m9.327 1.533l1.159-13.336 6.165.662-.193 2.217-3.944-.423-.268 3.083 3.671.394-.184 2.113-3.671-.394-.319 3.672 4.037.433-.196 2.251-6.258-.672m10.186-1.079l.994.04c.506.02.862-.006 1.068-.079.206-.073.372-.206.499-.398.22-.339.384-.809.492-1.408.108-.605.184-1.574.227-2.907.042-1.298.021-2.245-.065-2.841-.085-.595-.248-1.049-.489-1.36-.126-.156-.292-.267-.498-.333-.201-.072-.521-.117-.959-.134l-.962-.039-.307 9.459m-2.263 1.886l.434-13.389 3.607.144c.736.029 1.318.122 1.746.279.434.157.786.397 1.058.721.408.475.686 1.066.836 1.775.155.703.208 1.79.161 3.262-.062 1.901-.165 3.243-.311 4.027-.145.778-.37 1.436-.675 1.975-.294.54-.693.91-1.196 1.11-.497.195-1.354.268-2.569.219l-3.091-.124m13.432.175l-.479-13.387 2.245-.099.479 13.387-2.245.099m5.997-.353l-.824-11.151-2.575.235-.163-2.202 7.39-.674.163 2.202-2.575.235.824 11.151-2.24.204m7.911-14.365l2.214-.428 1.392 8.897c.159 1.017.378 1.687.656 2.01.283.316.709.419 1.28.309.566-.109.928-.368 1.087-.775.164-.408.165-1.13.003-2.164l-1.386-8.863 2.183-.422 1.425 9.111c.139.886.194 1.543.166 1.972-.024.423-.117.809-.28 1.158-.246.524-.614.954-1.102 1.29-.489.33-1.093.564-1.813.703-1.358.262-2.368.122-3.03-.421-.658-.55-1.115-1.639-1.37-3.268l-1.425-9.111m11.997 3.397l.913-.247c.68-.184 1.124-.459 1.334-.827.208-.373.234-.917.077-1.633-.158-.721-.394-1.186-.708-1.393-.31-.214-.818-.226-1.523-.036l-.943.255.85 3.88m-.503 7.89l-2.853-13.017 3.788-1.025c1.156-.313 2.051-.251 2.684.187s1.093 1.31 1.38 2.617c.282 1.285.22 2.316-.184 3.094-.4.771-1.156 1.307-2.267 1.607l-1.59.43 1.21 5.52-2.168.587m8.611-9.433c.6 2.101 1.087 3.386 1.462 3.856.379.463.866.589 1.463.379.587-.207.912-.613.974-1.22.066-.613-.204-1.982-.81-4.105s-1.096-3.417-1.469-3.881c-.374-.465-.856-.593-1.448-.384-.592.209-.92.622-.985 1.241-.064.619.207 1.99.813 4.113m-2.187.771c-.387-1.354-.638-2.455-.754-3.303-.118-.853-.113-1.527.014-2.022.168-.698.447-1.253.839-1.665.392-.412.966-.751 1.722-1.018s1.401-.357 1.935-.271c.534.086 1.053.359 1.557.82.364.334.716.886 1.055 1.654.345.767.71 1.825 1.095 3.174.383 1.343.634 2.442.752 3.295.116.847.114 1.523-.004 2.028-.173.7-.455 1.256-.847 1.667-.392.412-.966.751-1.722 1.018s-1.401.357-1.935.271c-.534-.086-1.05-.36-1.549-.823-.361-.323-.713-.868-1.058-1.635-.346-.772-.713-1.836-1.1-3.19m11.021 3.062l-4.486-12.436 2.144-.955 6.052 7.399-3.196-8.671 1.97-.877 4.486 12.436-2.129.948-6.08-7.405 3.202 8.687-1.962.874m13.965-6.86l-4.704-9.892-2.284 1.341-.929-1.954 6.556-3.849.929 1.954-2.284 1.341 4.704 9.892-1.987 1.167m5.308-3.165l-6.439-11.328 1.887-1.324 2.525 4.443 2.602-1.826-2.525-4.443 1.887-1.324 6.439 11.328-1.887 1.324-2.918-5.134-2.602 1.826 2.918 5.134-1.887 1.324m8.043-5.793l-7.267-10.691 4.942-4.147 1.208 1.777-3.162 2.653 1.68 2.471 2.943-2.47 1.151 1.694-2.943 2.47 2.001 2.944 3.236-2.716 1.227 1.805-5.017 4.21m6.203-11.496l1.603-1.75.543.614c.52.587.94.918 1.26.99.321.065.643-.08.967-.434.339-.37.512-.746.518-1.127.01-.385-.149-.764-.478-1.137-.252-.285-.53-.462-.832-.531-.306-.073-.806-.047-1.501.078l-1.392.251c-1.19.226-2.04.267-2.548.123-.505-.148-.995-.492-1.47-1.029-.71-.803-1.052-1.665-1.026-2.588.026-.923.415-1.794 1.167-2.615.797-.87 1.621-1.295 2.474-1.274s1.679.484 2.481 1.39l.181.217.11.136-1.519 1.659-.225-.254c-.457-.517-.861-.804-1.211-.861-.35-.057-.7.106-1.05.488-.257.281-.385.587-.384.919.001.324.133.635.397.933.355.401 1.078.486 2.168.255l.028-.006 1.47-.299c1.039-.224 1.853-.251 2.442-.081.586.166 1.16.567 1.723 1.204.768.869 1.138 1.783 1.108 2.742-.03.959-.46 1.892-1.29 2.799-.864.943-1.727 1.398-2.591 1.365-.86-.037-1.74-.564-2.64-1.582-.095-.108-.245-.294-.45-.558l-.033-.037m9.331-3.763l-9.242-8.605 3.978-5.275 1.536 1.43-2.545 3.374 2.137 1.989 2.369-3.141 1.464 1.363-2.369 3.141 2.545 2.369 2.605-3.454 1.56 1.453-4.038 5.355m2.347-11.995l1.067-1.761-4.733-2.252 3.666 4.013m2.211 5.977l-8.482-9.989 1.684-2.778 11.532 4.96-1.352 2.23-2.846-1.333-1.444 2.381 2.189 2.415-1.282 2.114m1.431-10.895l1.026-2.221.69.393c.659.376 1.152.543 1.476.5.323-.051.588-.3.795-.749.217-.47.275-.886.173-1.251-.099-.37-.358-.673-.776-.912-.32-.183-.634-.254-.94-.214-.311.038-.779.237-1.403.598l-1.25.724c-1.066.631-1.861.966-2.384 1.007-.521.035-1.083-.119-1.687-.464-.901-.514-1.47-1.213-1.706-2.098-.237-.885-.114-1.848.368-2.89.51-1.104 1.173-1.795 1.988-2.074.815-.278 1.731-.127 2.748.453l.233.143.143.091-.973 2.105-.286-.163c-.58-.331-1.045-.462-1.393-.394-.348.068-.635.345-.859.83-.165.356-.199.692-.104 1.007.093.307.306.556.641.747.45.257 1.161.085 2.131-.515l.025-.015 1.31-.798c.923-.575 1.688-.885 2.296-.93.603-.047 1.262.133 1.977.541.975.556 1.584 1.295 1.828 2.216.243.921.099 1.957-.433 3.108-.553 1.197-1.244 1.931-2.073 2.201-.827.265-1.811.072-2.953-.58-.121-.069-.316-.193-.585-.373l-.042-.024"/></g></g></svg>