<svg xmlns="http://www.w3.org/2000/svg" id="flag-icon-css-ky" width="640" height="480">
  <path fill="#006" d="M0 0h640v480H0z"/>
  <path fill="#006" fill-rule="evenodd" d="M0 0h400v200H0z"/>
  <g stroke-width="1pt">
    <path fill="#fff" d="M0 0v27.09l334.41 215.2h42.1v-27.08L42.08 0H0zm376.5 0v27.09L42.1 242.29H0v-27.08L334.41 0h42.1z"/>
    <path fill="#fff" d="M156.88 0v242.3h62.75V0h-62.75zM0 80.77v80.76h376.5V80.77H0z"/>
    <path fill="#c00" d="M0 96.92v48.46h376.5V96.92H0zM169.43 0v242.3h37.65V0h-37.65zM0 242.3l125.5-80.77h28.06L28.06 242.3H0zM0 0l125.5 80.77H97.44L0 18.06V0zm222.94 80.77L348.44 0h28.06L251 80.77h-28.06zM376.5 242.3L251 161.53h28.06l97.44 62.7v18.07z"/>
  </g>
  <path fill="#fff" fill-rule="evenodd" d="M448.33 179.14c-1 .61-3.03 2.44-5.05 1.83-2.02-.6-6.56-8.54-11.6-7.32-5.06 1.22-8.09 3.05-10.1 3.05-2.02 0-7.58 1.83-7.58 6.71s.5 8.54 1.52 8.54c1 0 2.52-3.05 2.52-3.05s.5 6.1 4.04 6.1 11.1.62 11.61 2.45c.5 1.83-3.53 6.1-2.52 9.76 1 3.66 5.55 9.76 5.55 9.76s-6.56 4.88-6.56 7.94 1 6.1 1 6.1l-29.27 1.22s-2.02 86.64-1.01 93.36c1 6.7 3.53 23.18 3.53 23.18s-6.56-2.13-12.12 3.36c-5.55 5.5-24.98 14.95-25.49 19.22-.5 4.27-2.27 7.93-.25 10.98 2.02 3.05 9.12 11.34 7.07 10.99-6.78-1.17-9.3-10.8-13.89-14.34-4.5-3.48-13.37-2.75-14.38.91-1.01 3.67-.5 9.77 0 10.99.5 1.22 6.05 20.74 7.57 25.02s17.41 10.67 24.48 10.06c13.38.3 19.44-5.8 19.94-5.18.5.6 28.78 29.77 86.83 29.9 45.2.1 79.26-29.3 79.26-28.68 0 .6 18.68 6.1 25.24 4.27 6.56-1.83 16.16-6.1 18.18-10.37 2.02-4.27 7.57-26.24 8.07-29.9s0-7.94-4.54-9.16-7.07-.91-9.6.3-3.27 4.59-7.06 10.69c-2.02 1.83-7.32 6.71-5.8 5.49s4.8-10.37 5.3-13.43c.5-3.05 2.02-8.54-1.52-11.59-3.53-3.05-8.95-4.3-15.14-8.85-5.89-4.03-10.6-10.68-14.14-10.68-3.53 0-7.57-1.82-7.07-1.82s4.56-8.87 3.55-18.02c-1.01-9.16.5-96.7-.01-96.7-.5 0-25.24 1.83-25.24.61s2.02-9.76 0-15.26c-2.02-5.49-10.6-9.15-8.08-10.37 2.52-1.22 13.63-4.27 13.12-9.15-.5-4.88-7.57-4.27-10.6-6.1-3.03-1.83-12.11-10.38-13.12-10.38-1.01 0 26.25-16.47 24.23-16.47-2.02 0-12.62-3.05-16.16-1.22 0-3.05 14.64-12.2 12.12-13.43-2.52-1.22-14.14-2.44-11.1-3.05 3.02-.6 4.03-7.93 3.53-7.93-.5 0-13.13 1.83-13.13 1.83s-3.03-4.27-4.04-4.27c-1 0-5.55 2.44-5.55 2.44l-2.52-6.71-5.56 3.66-2.52-3.05s-4.54 1.22-4.54 0c.19-.04-.53-3.06-1.24-3.06s-5.71 3.88-5.89 3.66c-.18-.21-5.71-7.98-5.71-7.76 0 .21-3.93 14.67-4.1 14.67-.19 0-3.93.43-4.11.64-.18.22-20-11.43-19.81-11.21.18.21 5.17 11.21 5.17 11.21s-4.28 2.38-4.28 2.6c0 .2.71 4.95.71 4.95l-13.2-4.53s5 10.14 4.63 10.14c-.35 0-9.81.43-9.63.43.17 0 4.46 8.42 4.46 8.42l-1.6 4.96s14.2 10.03 13.2 10.64zm84.3 212.35c1.27 1.83 8.08 10.37 7.07 10.37-1 0-17.92 11.29-24.73 13.43-6.82 2.13-29.03 6.1-27.77 5.8 1.26-.31 19.95-10.54 27.52-15.42 7.57-4.88 17.92-13.57 17.92-14.18zm-105.5-.31c-1.02 1.22-5.81 10.68-5.81 10.68s13.88 9.76 24.23 13.43c10.35 3.65 28.02 4.88 27 4.57-1-.3-22.2-9.76-28.26-14.64-6.06-4.89-16.91-14.04-17.17-14.04z"/>
  <g fill="#fec500" fill-rule="evenodd" stroke="#6d6666">
    <path stroke-width="1.4" d="M394.65-212.97s28.78 17.27 35.35 21.38 27.96 22.2 29.6 21.37c1.65-.82 13.16-9.86 13.16-9.86S448.9-199 434.1-203.1s-39.46-8.23-39.46-9.87z" transform="matrix(.307 0 0 .37108 317.05 244.26)"/>
    <path stroke-width="1.4" d="M390.54-231.88c2.47 0 47.69 23.02 61.66 34.53s19.74 26.31 21.38 26.31c1.65 0 23.02-3.29 22.2-3.29-.82 0-9.87-29.6-30.42-38.64-20.56-9.04-74-18.91-74.82-18.91z" transform="matrix(.307 0 0 .37108 317.05 244.26)"/>
    <path stroke-width="1.4" d="M603.48-296.01c-.82 0-9.04 24.67-11.51 32.06-2.47 7.4-6.58 23.03-6.58 23.03s-36.17 3.29-34.53-.83c1.65-4.1 55.09-54.26 52.62-54.26z" transform="matrix(.307 0 0 .37108 317.05 245.98)"/>
    <path stroke-width="1.4" d="M398.76-261.48s42.75 28.78 57.55 45.22c14.8 16.44 29.6 45.22 30.42 45.22.83 0 40.29-8.22 40.29-7.4s-46.04-46.04-68.24-60.02-59.2-21.38-60.02-23.02z" transform="matrix(.307 0 0 .37108 317.05 244.26)"/>
    <path stroke-width="1.4" d="M443.16-273.81s21.38 32.89 25.49 44.4c4.1 11.5 16.44 41.1 16.44 41.1h33.71s-16.44-37-34.53-55.08-40.29-28.78-41.11-30.42z" transform="matrix(.307 0 0 .37108 317.05 245.98)"/>
    <path stroke-width="1.4" d="M454.66-291.9c.82 2.47 31.24 31.24 38.64 50.15 7.4 18.91 13.16 42.76 13.16 42.76l29.6-7.4s-26.31-48.51-42.76-61.67c-16.44-13.15-37-22.2-38.64-23.84z" transform="matrix(.307 0 0 .37108 317.05 245.98)"/>
    <path stroke-width="1.4" d="M700.5-209.68s-61.66 6.58-83.86 12.33-34.53 27.13-34.53 27.13 28.77 10.7 30.42 9.05 18.9-18.91 37.82-25.49c18.9-6.58 51.8-22.2 50.15-23.02z" transform="matrix(.307 0 0 .37108 317.05 244.26)"/>
    <path stroke-width="1.4" d="M698.03-249.97c-1.65.82-50.98 41.11-66.6 54.26-15.62 13.16-30.42 27.14-32.06 27.96-1.65.82-32.07-4.11-30.42-5.76 1.64-1.64 45.22-37 74-52.62 28.77-15.62 52.61-22.2 55.08-23.84z" transform="matrix(.307 0 0 .37108 317.05 244.26)"/>
    <path stroke-width="1.4" d="M685.7-278.75c-4.93 5.75-53.44 45.22-66.6 59.2s-34.53 38.64-34.53 38.64-25.49-11.51-23.84-16.44c1.64-4.94 36.17-33.71 60.84-50.16 24.67-16.44 66.6-29.6 64.13-31.24z" transform="matrix(.307 0 0 .37108 317.05 244.26)"/>
    <path stroke-width="1.4" d="M636.37-282.04c-.82.82-29.6 31.24-35.35 39.47-5.76 8.22-23.03 44.4-23.03 44.4s-25.48-22.2-25.48-23.03 32.06-34.53 50.97-47.69 33.71-10.68 32.89-13.15z" transform="matrix(.307 0 0 .37108 317.05 244.26)"/>
    <path stroke-width="1.5" d="M565.09-241.77a10.46 10.46 0 1 1-20.93 0 10.46 10.46 0 0 1 20.93 0zm20.93 13.96c0 5.14-4.68 9.3-10.46 9.3s-10.47-4.16-10.47-9.3 4.68-9.3 10.46-9.3 10.47 4.16 10.47 9.3zm-46.51-10.47c0 5.14-5.73 9.3-12.79 9.3-7.06 0-12.79-4.16-12.79-9.3s5.73-9.3 12.79-9.3c7.06 0 12.79 4.16 12.79 9.3z" transform="matrix(.307 0 0 .37108 317.05 245.98)"/>
    <path stroke-width="1.5" d="M573.23-219.09c0 9.95-6.5 18.02-14.53 18.02s-14.54-8.07-14.54-18.02 6.5-18.02 14.54-18.02c8.02 0 14.53 8.07 14.53 18.02zm-39.53.58c0 7.7-6.5 13.95-14.53 13.95s-14.54-6.24-14.54-13.95c0-7.7 6.5-13.95 14.54-13.95 8.02 0 14.53 6.24 14.53 13.95z" transform="matrix(.307 0 0 .37108 317.05 245.98)"/>
    <path stroke-width="1.5" d="M513.93-207.46c0 6.74-4.95 12.2-11.05 12.2s-11.04-5.46-11.04-12.2c0-6.74 4.94-12.2 11.04-12.2 6.1 0 11.05 5.46 11.05 12.2zm81.39-1.17c0 8.03-7.55 14.53-16.86 14.53-9.31 0-16.86-6.5-16.86-14.53s7.55-14.53 16.86-14.53c9.31 0 16.86 6.5 16.86 14.53zm-40.69-20.93c0 4.82-5.99 8.72-13.37 8.72s-13.37-3.9-13.37-8.72 5.98-8.72 13.37-8.72 13.37 3.9 13.37 8.72z" transform="matrix(.307 0 0 .37108 317.05 245.98)"/>
    <path stroke-width="1.5" d="M556.95-210.37c0 7.06-8.33 12.79-18.6 12.79s-18.6-5.73-18.6-12.79c0-7.06 8.32-12.79 18.6-12.79s18.6 5.73 18.6 12.79zm47.67 22.67c0 8.67-7.8 15.7-17.44 15.7s-17.44-7.03-17.44-15.7 7.8-15.7 17.44-15.7c9.63 0 17.44 7.03 17.44 15.7zm-95.34-4.07c0 5.78-4.42 10.47-9.88 10.47s-9.89-4.69-9.89-10.47 4.43-10.46 9.89-10.46 9.88 4.68 9.88 10.46z" transform="matrix(.307 0 0 .37108 317.05 245.98)"/>
    <path stroke-width="1.5" d="M579.04-193.51c0 7.38-6.77 13.37-15.12 13.37-8.34 0-15.11-5.98-15.11-13.37s6.77-13.37 15.11-13.37c8.35 0 15.12 5.98 15.12 13.37zm-47.67-.58c0 6.42-5.99 11.63-13.37 11.63-7.39 0-13.37-5.2-13.37-11.63 0-6.42 5.99-11.63 13.37-11.63 7.38 0 13.37 5.2 13.37 11.63z" transform="matrix(.307 0 0 .37108 317.05 245.98)"/>
    <path stroke-width="1.5" d="M554.63-190.61c0 7.06-6.25 12.79-13.95 12.79-7.7 0-13.96-5.73-13.96-12.79 0-7.06 6.25-12.79 13.96-12.79 7.7 0 13.95 5.73 13.95 12.79zm-60.47-76.74c3.49 0 27.9 8.14 27.9 8.14s-30.23 11.63-25.58 10.46 33.72-4.65 31.4-4.65c-2.33 0-25.58 22.1-18.6 20.93 6.97-1.16 20.92-15.11 22.09-15.11 1.16 0 15.11 22.09 16.28 20.93 1.16-1.17 0-22.1 1.16-22.1s29.07 13.96 26.74 12.8c-2.32-1.17-18.6-17.45-17.44-17.45 1.16 0 38.37 3.5 36.05 2.33-2.33-1.16-24.42-11.63-24.42-11.63s16.28-15.11 12.79-15.11-30.23 15.11-27.9 13.95c2.32-1.16 29.06-31.4 29.06-31.4l-26.74 12.8s4.65-18.6 2.32-17.45c-2.32 1.17-20.93 24.42-22.09 24.42s-5.81-23.25-5.81-23.25 1.16 25.58-5.82 26.74c-6.97 1.16-31.39 5.81-31.39 4.65z" transform="matrix(.307 0 0 .37108 317.05 245.98)"/>
  </g>
  <g fill-rule="evenodd">
    <path fill="#00389b" d="M445.5 216.54c.19.86 5.9 16.4 14.65 15.96s12.31-3.02 11.95-3.24c-.35-.21-4.1-2.8-6.24-8.41-2.15-5.6-2.5-7.98-2.5-7.98l-17.85 3.67zm31.24-6.04s6.43 15.31 9.28 17.47c2.86 2.16 9.46 3.88 12.32 3.67 2.86-.22 6.25 0 6.25 0s-2.86-1.51-5.18-9.93-3.03-11.22-3.03-11.22h-19.64zm39.27 5.6s-1.25 11.22 0 14.03c1.25 2.8 7.5 7.98 7.5 7.98s7.5-1.08 7.67-7.98c.18-6.9-2.5-13.38-2.5-13.38l-12.67-.65z"/>
    <path fill="#005120" stroke="#000" stroke-width="1.5" d="M288.94 21.02s1.16 4.65 0 8.14-11.05 12.79-11.05 20.34c0 7.56 11.63 30.81 47.1 31.4 35.46.58 80.22-19.19 79.64-19.77-.58-.58-84.88-56.97-86.04-56.4-1.16.59-29.65 17.45-29.65 16.29zm234.29 40.1s7.56 20.36 10.46 22.68c2.91 2.33 4.07 6.98 4.66 6.98s48.83 10.46 48.83 10.46 4.65-13.37-2.32-23.83c-6.98-10.47-33.14-37.8-33.14-37.8l-28.5 21.52zm33.14-24.99c1.16 0 12.79 9.88 22.1 4.65 9.3-5.23 24.4-19.18 24.4-19.18s-12.78 4.07-22.08 3.48c-9.3-.58-23.84 11.63-24.42 11.05z" transform="matrix(.307 0 0 .37108 350.73 188.68)"/>
    <path fill="#005120" stroke="#000" stroke-width="1.5" d="M287.2 23.34s-3.49-9.88-12.79-10.46c-9.3-.59-26.16 1.16-31.98-3.5-5.8-4.64-7.55-15.69-10.46-15.1-2.9.57-10.47 0-11.05 0s-3.48-9.31 4.65-13.96 15.12-.58 19.77-4.07 11.63-5.82 20.93-6.4c9.3-.58 24.42 11.63 31.4 14.54 6.97 2.9 22.09 6.4 27.9 3.49 5.81-2.91 38.37-15.7 50-16.28 11.62-.58 36.04-1.17 45.34-.58s45.93 5.23 56.98 10.46c11.04 5.23 69.76 25.58 77.9 30.23 8.14 4.65 26.16 11.63 26.16 11.63s-31.97 31.4-47.67 36.63c-15.7 5.23-65.7 13.37-95.34 11.62-29.65-1.74-52.9-4.65-75.58-16.28-22.68-11.62-47.1-22.67-48.26-28.48-1.16-5.81-.58-13.37-.58-13.37l-27.33 9.88z" transform="matrix(.307 0 0 .37108 350.73 188.68)"/>
    <path fill="#005120" stroke="#000" stroke-width="1.5" d="M251.15-14.45c-1.16.58-6.98 2.9-5.81 4.07 1.16 1.16 3.49 4.65 10.46 4.07 6.98-.58 14.54-4.65 14.54-4.65s-8.72-4.07-19.19-3.49z" transform="matrix(.307 0 0 .37108 350.73 188.68)"/>
    <path stroke="#000" stroke-width="1.5" d="M250.57-13.29v6.4s8.14 2.32 8.14.58c0-1.74.58-5.81-1.16-5.81s-6.4-.59-6.98-1.17z" transform="matrix(.307 0 0 .37108 350.73 188.68)"/>
    <path fill="#001707" stroke="#000007" stroke-width="1.5" d="M331.95-8.45c2.06-3.7 0-8.63 11.92-14.4 11.92-5.75 32.68-4.1 32.68-4.1s-5.96 4.52-6.16 9.25c-.2 4.73.4 6.78.4 6.78s-11.3-3.7-19.93-1.44-18.7 4.52-18.91 3.9zM385.4-28.6c-1.23.62-10.28 10.7-9.25 13.78 1.03 3.08 13.15 10.48 17.06 9.86 3.9-.61 21.79-9.25 22.82-13.56 1.02-4.32 1.85-10.08.4-11.3-1.43-1.24-30.83 1.64-31.03 1.22zm39.26-1.64c-2.26 2.26-1.44 13.15-.62 14.39.82 1.23 15 15.41 18.1 16.24 3.07.82 25.89-1.44 27.74-3.9s7.4-12.96 5.75-15.42c-1.64-2.47-6.57-5.76-21.78-9.05s-24.26-2.88-29.19-2.26zm58.16 13.77c3.7 1.85 25.28 12.33 38.03 20.76 12.74 8.43 17.88 18.09 21.58 18.91 3.7.82 18.7-8.22 19.32-10.69.62-2.46-18.3-15.62-31.04-21.58-12.74-5.96-47.89-6.78-47.89-7.4zm-4.52 8.84c-1.85 1.64 23.02 45.01 27.75 46.45 4.73 1.44 33.1-8.42 32.68-11.71-.41-3.3-7.81-9.87-25.28-19.53C495.98-2.08 481.8-8.45 478.3-7.63zM447.47 8.2c-3.9 2.26-10.07 41.1-6.17 42.96 3.9 1.85 52-4.73 53.86-9.05 1.85-4.32-19.74-38.64-26.1-38.64-6.38 0-17.89 1.64-21.59 4.73zM397.73-.02c-5.14 4.72-4.11 40.9-1.85 43.16 2.26 2.26 30.83 9.66 33.91 6.99 3.09-2.68 7.2-43.37 4.32-46.46-2.88-3.08-10.9-10.48-17.06-11.1-6.17-.61-16.44 5.96-19.32 7.4zm-64.54-.62c-4.73 3.7-4.93 13.36.2 15 5.14 1.65 17.89 7.2 29.8 12.34 11.93 5.13 18.71 11.3 22.2 11.1 3.5-.21 6.8-36.39 3.1-38.44-3.7-2.06-14.6-3.7-24.88-3.3-10.28.42-25.28 1.45-30.42 3.3z" transform="matrix(.307 0 0 .37108 350.73 188.68)"/>
  </g>
  <path fill="#d40f0f" fill-rule="evenodd" d="M387.98 359.2c2.59-2.52 6.61-8.68 12.08-8.96 5.46-.28 11.22 4.76 11.22 4.76s5.75 23.53 5.46 23.53c-.29 0-9.5 6.72-9.78 6.72-.29 0-4.03-9.24-7.48-8.4-3.45.84-3.16 13.44-3.74 12.6-.57-.84-15.24-18.2-14.67-18.76.58-.56 7.2-10.65 6.9-11.49zm151.89-3.08c1.72-.28 9.49-6.16 14.95-5.88 5.47.28 8.63 2.8 11.51 5.32 2.88 2.52 6.33 8.96 6.33 8.96s-6.9 19.05-7.48 19.05-3.45 1.68-4.03.28-2.3-5.89-5.75-6.45c-3.45-.56-4.32 6.17-4.32 6.17l-11.21-27.45z"/>
  <path fill="#fddc59" fill-rule="evenodd" d="M543.6 362c0 1.69 10.65 28.02 27.9 33.06 17.27 5.04 22.73-4.76 24.74-8.12 2.02-3.37 9.2-3.08 9.2-3.08s-1.72 24.64-4.6 27.72c-2.87 3.08-5.17 9.8-21.28 10.08-16.1.28-30.78-15.12-35.67-19.6-4.89-4.48-11.22-16.25-13.8-21.57-2.6-5.32 13.8-17.92 13.51-18.48zm-187.55 52.37c.29 0 7.76 8.13 18.7 7.29 10.93-.84 29.62-7.29 38.25-18.49 8.63-11.2 12.95-23.25 12.95-23.25s-12.66-22.4-12.95-22.4c-.29 0-1.44 7.28-3.74 12.04-2.3 4.76-8.63 18.2-19.27 22.4-10.64 4.2-10.64 5.89-14.96 5.33-4.31-.56-15.53-7.28-15.53-7.56 0-.28-5.47 13.16-5.47 13.16s-1.15 8.68 2.02 11.49z"/>
  <path fill="#fddc59" fill-rule="evenodd" d="M387.78 358.42c-.81 0-21.15 11.1-20.34 15.85.82 4.75 34.99 72.09 108.2 72.88 73.23.8 117.98-61 114.73-71.3-3.26-10.3-26.04-22.18-26.04-22.18s5.7 4.75 4.88 11.09c-.81 6.34-26.03 61-89.5 59.42-63.45-1.59-93.56-49.91-93.56-55.46 0-5.54 3.26-8.71 1.63-10.3z"/>
  <path fill="#d40f0f" fill-rule="evenodd" d="M586.17 407.38c1.73-1.4 12.37-30.53 18.41-29.69 6.04.84 4.03 9.52 3.45 11.77-.57 2.24-6.61 22.4-6.61 22.4s.29-4.76-3.74-5.88-10.64 1.96-11.5 1.4zm-230.12 7.3c0-1.6-4.88-7.14.81-8.72 5.7-1.59 13.02 1.58 13.02 1.58s-4.07-11.88-8.95-21.39c-4.88-9.5-6.51-7.92-10.58-6.33-4.06 1.58-3.97 5.77-1.52 12.11 2.44 6.34 7.22 24.33 7.22 22.74z"/>
  <path fill="#fdc400" fill-rule="evenodd" d="M423.18 360.35l7.06-23.93-19.62-15.03 24.57-.57 8.01-23.6 8.13 23.56 24.56.45-19.55 15.13 7.17 23.9-20.2-14.23z"/>
  <path fill="#fff" fill-rule="evenodd" d="M555.64 235.83v92.04c.18 44.99-45.7 84.38-76.15 92.04-30.46-7.66-76.33-47.05-76.15-92.03v-92.04h152.3z"/>
  <path fill="#d40f0f" fill-rule="evenodd" stroke="#000" stroke-width="1.5" d="M177.16 325.98l.42 160.73s2.39-3.29 35.01-1.28c32.63 2 35.44 35.43 70.87 35.43 35.43 0 35.43-35.43 70.87-35.43s35.43 35.43 70.86 35.43 35.43-35.43 70.87-35.43 35.43 35.43 72.87 37.46c33.43-2.03 33.43-37.46 69.06-39.47l35.23 2V325.99H177.16z" transform="matrix(.307 0 0 .35829 348.95 119.04)"/>
  <path fill="#0062bb" fill-rule="evenodd" d="M403.34 312v19.05h10.88c10.01.72 10.88 12.7 21.75 12.7s10.88-12.7 21.76-12.7 10.88 12.7 21.76 12.7 10.88-12.7 21.75-12.7 10.27 11.97 21.76 12.7c10.26-.73 10.82-11.98 21.76-12.7h10.87V312h-10.87c-10.88 0-10.88 12.7-21.76 12.7S512.12 312 501.24 312s-10.87 12.69-21.75 12.69S468.6 312 457.73 312s-10.88 12.7-21.75 12.7S425.1 312 414.22 312h-10.88zm3.28 38.09l7.6 19.04c10.02.72 10.88 12.7 21.76 12.7 10.87 0 10.87-12.7 21.75-12.7s10.88 12.7 21.76 12.7 10.88-12.7 21.75-12.7 10.27 11.97 21.76 12.7c10.26-.73 10.56-11.98 21.5-12.7l7.85-19.34-7.6.3c-10.87 0-10.87 12.7-21.75 12.7s-10.88-12.7-21.75-12.7-10.88 12.7-21.76 12.7-10.88-12.7-21.76-12.7-10.88 12.7-21.75 12.7-10.88-12.7-21.76-12.7h-7.6zm72.87 69.82c10.88 0 35.8-19.04 35.55-19.04.25 0-2.92-12.7-13.8-12.7s-10.87 12.7-21.75 12.7-10.88-12.7-21.76-12.7-13.65 12.7-13.68 12.7c-.5 0 24.56 19.04 35.44 19.04z"/>
  <path fill="#fdc400" fill-rule="evenodd" stroke="#000" stroke-width=".7" d="M90.85 117.57c.82 0 8.22 1.23 13.56.82 5.35-.4 7.4-2.47 7.4-2.88v-1.23h7s1.23 5.76.4 6.17-2.87 2.05-3.29 2.05 0-2.88-.82-2.05-1.23 2.05-1.23 2.05-.82-1.23-1.23-1.23-1.24 1.23-1.24 1.23 0-1.23-.4-1.23c-.42 0-2.48 2.05-2.48 2.05l-2.05-1.64s-1.23 2.06-1.65 2.06-2.87-1.65-2.87-1.65l-4.11 2.47s0-3.7-.83-3.3c-.82.42-5.34.42-5.34.42s-1.23 2.47-1.64 2.47-2.06-2.06-1.65-2.06 1.23-1.23.82-1.64c-.4-.41-2.46 0-2.46-.41s-.82-2.88-.41-2.88 2.05.41 2.05.41v-2.47h2.06l.4 2.47z" transform="matrix(1.5005 0 0 1.3054 286.93 126.3)"/>
  <path fill="#fdc400" fill-rule="evenodd" stroke="#000" stroke-width=".7" d="M98.25 94.14c-.41 0-3.3 3.28-2.88 6.98.41 3.7 7.4 9.05 7.4 9.05s3.7-1.65 4.93 0 1.24 6.57.83 6.57-5.35 1.24-5.35.41c0-.82 0-1.64-.41-1.64s-4.93.41-4.93.41l.4-1.64-4.1-.82 1.64-1.65s-6.58-2.88-6.16-2.88 2.87-1.64 2.87-1.64L87.56 104h2.88s-4.11-3.29-3.7-3.29c.4 0 2.46.41 2.46.41l-1.23-3.29h1.23l-1.23-2.46 2.06-.82 1.23 2.05-.41-4.93 2.88.41v4.11s1.23-2.47 1.23-2.88c0-.4 3.7 1.65 3.29.83z" transform="matrix(1.5005 0 0 1.3054 286.93 126.3)"/>
  <path fill-rule="evenodd" d="M529.97 282.45c-.78.67-3.09 2.15-3.09 2.15s5.24-.4 5.09-.4-1.85-1.34-2-1.75zm4.47 2.55c-.31.4-1.24 4.56-.62 4.3.62-.28 3.08-3.36 3.08-3.36l-2.46-.94zm7.08.53c.77.67 4.32 3.76 3.85 3.09-.46-.67-.92-3.49-1.23-3.62-.31-.14-2.31.8-2.62.53zm-62.14-4.42c-.46.13-4.31 2.68-4.31 2.68s6.47-1.07 6.16-1.07c-.3 0-2-1.2-1.85-1.61zm4.01 3.22c-.62.54-2.62 4.3-1.85 4.16.77-.13 4.16-2.55 4.16-2.55l-2.3-1.6zm-2.48-5.23c-.46-.14-3.7-1.48-3.54-1.48s4.32-.94 4.32-.94l-.78 2.42zm-61.05-1.74l-4.63-3.22 5.86 1.61-1.23 1.61zm-4.01 2.14c-.62 0-6.48 3.22-6.32 3.22s8.17.14 8.01 0c-.15-.13-1.38-2.95-1.7-3.22zm3.7 4.7c-.62.27-5.24 3.36-4.94 3.36.31 0 6.94.13 6.94 0s-1.85-3.22-2-3.36zm-.62-33.4s-1.7-3.76-1.54-3.76c.15 0 4.32 2.95 4.32 2.95l-2.78.8zm4.63-4.7c0-.14.46-2.42.46-2.42s4.16 2.82 4.01 2.82c-.15 0-4.16 0-4.47-.4zm6.47 1.74c0-.13.47-3.49.47-3.49s3.85 4.56 3.54 4.7c-.3.13-3.7-.67-4-1.21z"/>
  <path fill="#fdc400" fill-rule="evenodd" stroke="#000" stroke-width=".7" d="M137.26 110.86c0 .2 4.32 3.7 4.42 4.52.1.82-7.81 1.03-7.81 1.03s-2.26-1.75-2.98-1.64c-.72.1-1.03 1.85-1.03 1.85l1.85 1.02-3.5.2 1.03 1.96 2.68-.2-.62 1.85s1.64 1.23 1.95 1.02c.31-.2 1.34-2.05 2.16-2.36.82-.3 2.57-.3 2.57-.3s-1.34 2.25-.72 2.25c.62 0 3.4-2.36 3.4-2.36s.6 2.16.71 2.16c.1 0 2.06-2.47 2.06-2.47s0 1.95.3 1.95 3.19-2.46 3.19-2.46 2.26 2.87 2.57 2.67c.3-.2.62-3.08.92-3.08s2.26-.31 2.26-.42-1.23-1.13-1.43-2.56c-.2-1.44.2-4.83.1-4.83s-13.88.5-14.08.2z" transform="matrix(1.5005 0 0 1.3054 285.91 126.6)"/>
  <path fill="#fdc400" fill-rule="evenodd" stroke="#000" stroke-width=".7" d="M115.37 104.6h40.29c4.1 0 7.8-1.64 7.8-4.11 0-2.47-6.57-2.88-9.04-2.06-2.46.83-13.15 5.76-17.67 5.35s-8.64-3.3-9.05-6.17c-.4-2.88 2.06-5.34 6.58-5.34s10.28 1.64 11.51 1.23 4.11-3.7 5.34-4.1c1.24-.42 4.94-.83 4.94-.83l-1.65 1.23 5.35-1.23s-4.11 4.52-8.23 5.75c-4.1 1.24-12.74.83-16.03.83s-4.93-.42-4.52 2.05c.41 2.47 2.88 4.11 4.93 3.7 2.06-.41 8.23-2.47 8.23-2.47l-1.65-1.23 7.4-.41s-.41-1.23 0-1.23 4.11.4 4.11.4-2.47-1.23-2.05-1.23 2.05 0 5.34.42c3.29.4 10.28 1.64 9.87 4.93-.42 3.29-2.88 6.16-5.76 6.16s-5.34-.82-5.34.42c0 1.23 3.29 2.05 5.34 2.05s4.52-1.64 4.93-1.64 1.24 2.46 1.65 2.46 2.88-.82 2.88-.82l-1.65 4.52 2.88.82s-1.65 1.65-1.23 1.65 2.87 0 2.87.41-3.29 2.88-3.29 3.29 2.47 1.64 2.47 1.64-1.64 2.47-2.05 2.06-2.06-2.47-2.06-2.47-.41 1.65-1.23 1.65-2.47-.41-2.47-.41 1.23-2.47.82-2.47-2.46 1.64-2.46 1.23l-1.24-1.23s3.3-1.34 3.3-3.3c0-1.94-1.34-3.9-7.3-4.2-5.97-.32-6.07 1.43-10.49 1.23-4.42-.2-4.42-1.96-7.7-1.96-3.3 0-13.47 4.12-18.2 4.01-4.72-.1-10.68-.4-10.48-.61.2-.21 3.9-9.66 4.01-9.97z" transform="matrix(1.5005 0 0 1.3054 285.91 126.6)"/>
  <path fill="#fdc400" fill-rule="evenodd" stroke="#000" stroke-width=".7" d="M106.88 102.46c-.41.2-4 .72-4.21 4.52-.2 3.8.3 3.8.72 3.6.4-.2 1.23-3.5 1.23-3.5s-1.23 4.53.1 5.55a9.3 9.3 0 0 0 2.78 1.44l.51-3.6s-1.03 3.5 1.44 4.73c2.47 1.24 3.4.31 3.19-.61a70 70 0 0 0-.93-3.3s1.95 2.17 2.06 2.37c.1.2 1.02 1.85 3.49 1.13 2.47-.72.72-2.36.72-2.36l-2.98-2.46s3.08 3.18 4.42 2.05-1.03-3.6-.93-3.49 1.96 3.5 2.68 1.34-1.13-2.78-1.75-4.83c-.62-2.06-1.13-2.27-.52-3.5.62-1.23.72-3.6.72-3.6s2.57.62 2.37-1.54c-.2-2.16-2.78-2.67-3.3-2.77-.5-.1-.4-2.26-.6-2.16-.21.1-1.86 1.34-1.86 1.34s-1.44-3.4-1.74-3.19-1.96 1.95-3.2 2.05c-1.22.1-1.94 1.85-1.94 1.85s-4.32-2.05-4.22 1.34c.1 3.4 2.57 2.57 2.57 2.67s-.4 4.73-.82 4.94z" transform="matrix(1.5005 0 0 1.3054 286.93 126.3)"/>
  <path fill-rule="evenodd" d="M450.87 253.26c.75-.23 1.84-1.18 3.1-1.06s3.3 1.08 2.29 1.61c-1 .53-1.74.76-2.88.5-1.13-.27-2-.84-2.5-1.05zm12.58-.14c-.74-.22-1.83-1.17-3.1-1.06s-3.29 1.09-2.28 1.62c1 .53 1.74.76 2.88.49 1.13-.27 2-.84 2.5-1.05z"/>
  <path fill="#000039" fill-rule="evenodd" stroke="#000" stroke-width=".42" d="M110.99 103.17c.1.51.41 4.83.62 4.52.2-.3 1.74-4.42 1.64-4.42s-2.16.1-2.26-.1z" transform="matrix(1.5005 0 0 1.3054 287.14 126.37)"/>
  <path fill="none" stroke="#000" stroke-width=".84" d="M109.96 103.17c.05-1.22.82-1.13 2.47-.93 1.64.21 2.46 1.03 2.36 1.24-.1.2-1.44.72-2.57.61-1.34-.4-2.3.1-2.26-.92z" transform="matrix(1.5005 0 0 1.3054 287.14 126.56)"/>
  <path fill="none" stroke="#000" stroke-width="1.5" d="M112.43 100.08l-.2 1.95m7.09-7.19s1.34.62 1.13 1.24c-.2.61-1.13.92-1.13.92m-11.2-2.67c-.3.1-.72.3-.93 1.13-.2.82.93 1.34.93 1.34" transform="matrix(1.5005 0 0 1.3054 287.14 126.56)"/>
  <path fill="none" stroke="#000" stroke-width="1.5" d="M111.19 136.13s-1.45 1.45 1.02 1.45.72-1.3.72-1.3" transform="matrix(1.5005 0 0 1.3054 287.36 77.6)"/>
  <path fill="#fdc400" fill-rule="evenodd" d="M462.35 403.76l6.4-21.06-17.8-13.24 22.3-.5 7.27-20.78 7.37 20.75 22.3.4-17.74 13.32 6.5 21.03-18.33-12.52z"/>
  <path fill="#003017" fill-rule="evenodd" d="M465.38 398.12l5.34-16.73-14.83-10.52 18.58-.4 6.06-16.5 6.14 16.47 18.58.32-14.79 10.58 5.42 16.7-15.27-9.93z"/>
  <path fill="#fdc400" fill-rule="evenodd" d="M425.66 361.1L432 341.2l-17.6-12.52 22.05-.47 7.19-19.66 7.29 19.62 22.05.38-17.55 12.6 6.44 19.89-18.13-11.84z"/>
  <path fill="#003017" fill-rule="evenodd" d="M428.67 355.76l5.29-15.82-14.68-9.94 18.38-.38 6-15.61 6.07 15.59 18.38.3-14.63 10 5.37 15.8-15.11-9.4z"/>
  <path fill="#fdc400" fill-rule="evenodd" d="M499.57 361.1l6.42-19.91-17.83-12.52 22.33-.47 7.29-19.66 7.38 19.62 22.34.38-17.77 12.6 6.52 19.89-18.37-11.84z"/>
  <path fill="#003017" fill-rule="evenodd" d="M502.62 355.76l5.35-15.82-14.86-9.94 18.61-.38 6.07-15.61 6.16 15.59 18.61.3-14.81 10 5.43 15.8-15.3-9.4z"/>
  <path fill="none" d="M373.27 372.55c8.03 34.55 41.9 60.18 87.53 66.25 58.6 7.78 114.51-21.9 124.8-66.28"/>
  <path d="M373.13 377.9l11-6.22 1.04 2.26-4.32 2.44 1.43 3.12 4.32-2.44 1.03 2.27-11 6.22-1.04-2.27 4.99-2.81-1.43-3.13-4.99 2.82-1.03-2.26m4.6 9.63l10.28-7.6 3.52 5.86-1.71 1.26-2.25-3.75-2.38 1.76 2.1 3.49-1.63 1.2-2.1-3.49-2.82 2.1 2.3 3.84-1.74 1.28-3.57-5.95m7.16 11.04l9.07-9.31 1.55 1.86-3.55 3.66 2.14 2.57 3.55-3.66 1.55 1.87-9.06 9.31-1.55-1.86 4.1-4.22-2.13-2.57-4.11 4.22-1.55-1.87m11.83 5.52l1.47 1.43 2.68-5.05-4.15 3.62m-5.75 1.72l10.24-8.28 2.32 2.26-6.03 12.38-1.87-1.82 1.59-3.04-1.99-1.94-2.5 2.16-1.76-1.72m8.93 8.3l6.1-9.24-2.13-1.74 1.2-1.83 6.12 5-1.2 1.82-2.14-1.74-6.1 9.24-1.85-1.51m5 4l6.44-11.71 1.95 1.32-2.52 4.6 2.69 1.82 2.52-4.6 1.95 1.33-6.43 11.7-1.95-1.31 2.91-5.31-2.69-1.83-2.91 5.31-1.95-1.32m12.09 7.65l5.19-12.45 5.86 3.02-.85 2.03-3.77-1.94-1.23 2.95 3.56 1.83-.83 1.99-3.56-1.84-2.28 5.48-2.09-1.07m11.45-1.89c-.72 2.11-1.06 3.49-1.03 4.13.04.64.36 1.08.96 1.34.59.25 1.08.15 1.48-.3.4-.44.97-1.73 1.7-3.86s1.07-3.52 1.04-4.15a1.43 1.43 0 0 0-.95-1.34c-.59-.25-1.1-.15-1.5.3-.4.46-.97 1.75-1.7 3.88m-2.2-.93c.47-1.36.9-2.42 1.3-3.18.39-.77.77-1.3 1.16-1.61a3.02 3.02 0 0 1 1.63-.75c.55-.05 1.2.08 1.96.4s1.33.7 1.7 1.15c.39.45.65 1.03.79 1.76.1.53.07 1.22-.1 2.07a25.2 25.2 0 0 1-.94 3.32c-.46 1.35-.89 2.41-1.28 3.18-.4.76-.78 1.3-1.16 1.63-.54.43-1.09.68-1.64.73-.55.06-1.2-.08-1.96-.4s-1.33-.7-1.71-1.14a3.7 3.7 0 0 1-.77-1.76c-.1-.51-.08-1.2.08-2.06.17-.86.48-1.98.95-3.34m10.62-2.91l2.2.73-2.37 8.86a4.66 4.66 0 0 0-.23 2.18c.13.43.48.74 1.05.93.56.19 1 .13 1.31-.16.32-.3.62-.95.9-1.98l2.36-8.83 2.18.72-2.44 9.07a9.81 9.81 0 0 1-.65 1.9 2.88 2.88 0 0 1-.74.92 2.87 2.87 0 0 1-1.54.62 4.83 4.83 0 0 1-1.95-.27c-1.35-.45-2.22-1.1-2.6-1.92-.38-.84-.35-2.07.08-3.7l2.44-9.07m5.9 16.18l2.7-13.4 2.3.58 1.26 10.15 1.82-9.38 2.12.53-2.7 13.38-2.29-.57-1.27-10.16-1.83 9.4-2.1-.53m12.06.68l1 .17c.52.1.88.11 1.1.07a.97.97 0 0 0 .55-.34c.26-.31.48-.77.66-1.36.17-.6.36-1.58.55-2.93.18-1.31.26-2.28.24-2.9a3.02 3.02 0 0 0-.34-1.44 1.09 1.09 0 0 0-.47-.41c-.2-.1-.52-.2-.96-.27l-.98-.17-1.35 9.58m-2.5 1.6l1.9-13.54 3.66.63c.74.13 1.32.3 1.74.52.42.22.76.51 1 .88.36.54.58 1.18.65 1.92.08.73.02 1.84-.2 3.33a30.97 30.97 0 0 1-.75 4.06 6.37 6.37 0 0 1-.9 1.91c-.36.51-.8.83-1.34.97-.53.13-1.4.09-2.64-.13l-3.13-.54m9.55 1.57l1.2-13.66 6.3.68-.2 2.27-4.03-.43-.28 3.16 3.76.4-.19 2.16-3.75-.4-.33 3.76 4.13.44-.2 2.3-6.4-.68m10.42-1.1l1.02.03c.52.03.88 0 1.1-.08a1 1 0 0 0 .5-.4c.23-.35.4-.83.51-1.44a23 23 0 0 0 .23-2.98c.05-1.33.02-2.3-.06-2.91a2.96 2.96 0 0 0-.5-1.4 1.05 1.05 0 0 0-.51-.33c-.2-.08-.54-.12-.99-.14l-.98-.04-.32 9.68m-2.31 1.94l.44-13.71 3.7.14c.75.03 1.35.13 1.78.29.45.16.8.4 1.09.74a4 4 0 0 1 .85 1.81c.16.72.22 1.84.17 3.34a31.6 31.6 0 0 1-.32 4.13c-.15.8-.38 1.47-.7 2.02-.3.55-.7.93-1.22 1.14-.5.2-1.38.27-2.63.22l-3.16-.12m13.75.18l-.49-13.71 2.3-.1.5 13.7-2.3.1m6.13-.36l-.84-11.41-2.64.24-.16-2.26 7.56-.69.17 2.26-2.64.24.85 11.41-2.3.21m8.1-14.7l2.27-.44 1.43 9.1c.16 1.05.38 1.73.67 2.07.29.32.72.43 1.3.31.59-.11.96-.37 1.12-.8.17-.41.17-1.15 0-2.2l-1.42-9.08 2.24-.43 1.46 9.33c.14.9.2 1.58.17 2.02-.03.43-.12.82-.29 1.18a3.27 3.27 0 0 1-1.13 1.32c-.5.34-1.12.58-1.85.72-1.4.27-2.43.13-3.1-.43-.68-.56-1.15-1.68-1.4-3.35L498 426m12.29 3.48l.93-.25c.7-.19 1.15-.47 1.37-.85.21-.38.24-.94.08-1.67-.16-.74-.4-1.21-.73-1.42-.32-.22-.84-.24-1.56-.04l-.96.26.87 3.97m-.52 8.08l-2.92-13.33 3.88-1.05c1.18-.32 2.1-.25 2.75.2.65.44 1.12 1.34 1.41 2.67.3 1.32.23 2.38-.19 3.17-.4.8-1.18 1.34-2.32 1.65l-1.63.44 1.24 5.65-2.22.6m8.82-9.66c.61 2.15 1.11 3.47 1.5 3.95.39.48.89.6 1.5.39.6-.21.93-.63 1-1.25.06-.63-.22-2.03-.84-4.2s-1.12-3.5-1.5-3.98c-.38-.47-.88-.6-1.48-.39-.6.21-.95.64-1.01 1.27-.07.64.21 2.04.83 4.21m-2.24.8c-.4-1.4-.65-2.52-.77-3.39a5.6 5.6 0 0 1 .01-2.07c.18-.71.46-1.28.86-1.7.4-.43 1-.77 1.77-1.05a4.12 4.12 0 0 1 1.98-.27c.54.08 1.08.36 1.6.84.36.34.73.9 1.07 1.69.36.78.73 1.87 1.12 3.25.4 1.38.65 2.5.77 3.37.12.87.12 1.56 0 2.08a3.7 3.7 0 0 1-.87 1.7c-.4.43-.99.78-1.76 1.05-.78.27-1.44.36-1.98.28a3.07 3.07 0 0 1-1.59-.85 5.04 5.04 0 0 1-1.08-1.67c-.36-.8-.73-1.88-1.13-3.27m11.29 3.14l-4.6-12.74 2.2-.97 6.2 7.57-3.28-8.88 2.02-.9 4.6 12.74-2.19.97-6.22-7.58 3.28 8.9-2.01.89m14.3-7.03l-4.82-10.13-2.34 1.38-.95-2 6.71-3.94.95 2-2.33 1.37 4.81 10.13-2.03 1.2m5.43-3.25l-6.59-11.6 1.93-1.35 2.59 4.55 2.66-1.87-2.58-4.55 1.93-1.36 6.6 11.6-1.94 1.36-2.99-5.26-2.66 1.87 2.99 5.26-1.94 1.35m8.24-5.93l-7.44-10.95 5.06-4.24 1.24 1.82-3.24 2.71 1.72 2.53 3.01-2.52 1.18 1.73-3.01 2.53 2.05 3.01 3.31-2.78 1.26 1.85-5.14 4.31m6.35-11.77l1.64-1.8.56.64c.53.6.96.94 1.29 1.01.33.07.66-.08.99-.44.35-.38.52-.77.53-1.16.01-.4-.15-.78-.49-1.16-.26-.3-.54-.47-.85-.54a4.23 4.23 0 0 0-1.54.08l-1.42.25a6.39 6.39 0 0 1-2.61.13 3.32 3.32 0 0 1-1.5-1.06 3.77 3.77 0 0 1-1.06-2.65 4.1 4.1 0 0 1 1.2-2.67c.81-.9 1.66-1.33 2.53-1.3s1.72.49 2.54 1.41a3.8 3.8 0 0 1 .3.37l-1.56 1.7-.23-.27c-.47-.53-.88-.82-1.24-.88-.36-.06-.72.11-1.07.5-.27.29-.4.6-.4.94 0 .34.14.65.4.96.37.4 1.11.5 2.23.26a.1.1 0 0 1 .03 0l1.5-.31a5.35 5.35 0 0 1 2.5-.09c.6.17 1.2.58 1.77 1.24a4 4 0 0 1 1.13 2.8 4.45 4.45 0 0 1-1.32 2.87c-.88.97-1.77 1.43-2.65 1.4-.88-.04-1.78-.58-2.7-1.62-.1-.11-.26-.3-.46-.57l-.04-.04m9.56-3.85l-9.47-8.81 4.08-5.4 1.57 1.46-2.6 3.45 2.18 2.04 2.43-3.22 1.5 1.4-2.43 3.22 2.6 2.42 2.67-3.53 1.6 1.48-4.13 5.49m2.4-12.29l1.1-1.8-4.85-2.3 3.75 4.1m2.26 6.12l-8.68-10.22 1.72-2.85 11.81 5.08-1.38 2.28-2.92-1.36-1.48 2.44 2.25 2.47-1.32 2.16m1.47-11.15l1.05-2.28.7.4c.68.4 1.19.56 1.52.52.33-.05.6-.3.81-.77.22-.48.28-.9.18-1.28-.1-.38-.37-.69-.8-.93a1.51 1.51 0 0 0-.96-.22c-.32.04-.8.24-1.43.61l-1.28.74a6.6 6.6 0 0 1-2.45 1.03c-.53.04-1.1-.12-1.72-.47a3.47 3.47 0 0 1-1.75-2.15 4.3 4.3 0 0 1 .38-2.96c.52-1.13 1.2-1.84 2.03-2.12.84-.29 1.78-.13 2.82.46a3.45 3.45 0 0 1 .38.24l-1 2.16-.29-.17c-.6-.34-1.07-.47-1.42-.4-.36.07-.65.35-.88.85-.17.36-.2.7-.11 1.03.1.31.31.57.66.76.46.26 1.18.09 2.18-.53a.08.08 0 0 1 .02-.01l1.34-.82c.95-.59 1.73-.9 2.35-.95.62-.05 1.3.14 2.03.55 1 .57 1.62 1.33 1.87 2.27.25.95.1 2-.44 3.18-.57 1.23-1.28 1.98-2.13 2.26-.84.27-1.85.07-3.02-.6a11.54 11.54 0 0 1-.6-.38l-.04-.02"/>
</svg>
