<svg xmlns="http://www.w3.org/2000/svg" id="flag-icon-css-lb" width="640" height="480">
  <defs>
    <clipPath id="a">
      <path fill-opacity=".67" d="M-85.33 0h682.67v512H-85.33z"/>
    </clipPath>
  </defs>
  <g clip-path="url(#a)" transform="translate(80) scale(.9375)">
    <g fill-rule="evenodd" stroke-width="1pt">
      <path fill="red" d="M-128 384h767.98v128H-128zm0-384h767.98v128H-128z"/>
      <path fill="#fff" d="M-128 128h767.98v256H-128z"/>
    </g>
    <path fill="#007900" d="M252.1 129.95c-7.81 15.6-13.02 15.6-26.03 25.99-5.21 5.2-13.02 7.8-2.6 13-10.42 5.2-15.63 7.8-20.83 18.19l2.6 2.6s9.9-4.85 10.41-2.6c1.73 2.08-13.02 10.05-14.93 11.26-1.9 1.21-11.1 6.93-11.1 6.93-13.02 10.4-20.83 7.8-28.64 23.4l26.04-2.6c5.2 18.19-13.02 20.78-26.04 28.58l-20.83 13c5.21 18.19 20.83 7.8 33.85 2.6l2.6 2.6v5.2l-26.03 12.99s-30.73 17.58-31.24 18.2c-.21.93 0 5.19 0 5.19 10.41 2.6 26.03 5.2 36.45 0 13.01-5.2 15.62-10.4 31.24-10.4-18.23 13-31.24 18.2-52.07 20.8v10.4c15.62 0 26.03 0 39.05-2.6l33.84-10.4c7.81 0 15.62 7.8 13.02 15.59-7.81 28.59-39.05 23.39-49.47 46.78l41.66-15.6c10.41-5.2 20.83-10.39 33.84-7.79 15.62 5.2 15.62 15.6 36.45 20.8l-5.2-13c5.2 2.6 10.4 2.6 15.61 5.2 13.02 5.2 15.63 10.4 31.24 7.8-13.01-15.6-15.61-13-26.03-23.4-10.41-15.6-15.62-38.98 0-41.58l18.23 5.2c18.22 2.6 18.22-2.6 44.25 7.8 15.62 5.2 20.83 12.99 39.05 7.79-7.8-18.2-36.44-31.19-54.67-36.39 20.83-13 15.62 5.2 44.26-2.6v-5.2c-20.83-15.59-28.64-28.58-57.27-28.58l44.25-5.2v-5.2s-43.64-11.45-44.66-11.86c.3-1.32 1.37-3.36 4.27-4.5 8.29 5.37 33.36 4.75 34.78 4.65-.73-6.4-12.61-11.68-23.02-16.88 0 0-44.6-27.48-44.81-29.91.88-6.97 18.31 1.1 37 6.52-5.21-10.4-15.62-15.6-26.04-18.19l15.62-2.6c-10.41-23.39-36.44-20.79-52.06-31.19-10.42-7.8-10.42-13-26.04-20.79z"/>
    <path fill="#fff" fill-rule="evenodd" stroke="#fff" stroke-linecap="round" stroke-linejoin="round" stroke-width="3.22" d="M223.96 303.07c1.93-6.2 4.48-11.67-7.12-16.95-11.59-5.28 5.8 21.11 7.12 16.95zm13.73-12.39c-2.34.3-3.56 8.84 1.12 11.17 5.18.8.91-11.07-1.12-11.17zm13.53-.91c-2.44.71-2.54 12.7 6 10.56 8.54-2.13-.1-11.57-6-10.56zm15.76-30.76c1.83-2.94-.1-15.03-7.42-9.95-7.33 5.08 5.08 10.76 7.42 9.95zm-15.97-10.05c2.24-.81 2.44-8.22-3.96-6.3-6.4 1.94 2.23 7.82 3.96 6.3zm-14.43 2.94s-4.47-6.2-7.93-4.87c-4.38 4.16 8.24 4.97 7.93 4.87zm-49.59 19.79c1.9.17 16.03-2.33 20.9-7.81 4.89-5.48-25.12 2.35-25.12 2.45 0 .1 2.84 4.84 4.22 5.36zm141.11-34.96c.73-1.3-7.52-7.17-12.42-4.86-1.26 4.34 12.38 5.75 12.42 4.86zm-27.76-13.97c1.53-2.23-3.56-11.37-13.73-6.3-10.17 5.08 10.68 9.85 13.73 6.3zm-32.14-5.38s2.54-8.22 8.64-6.6c6.92 5.28-8.34 6.9-8.64 6.6zm-6-6.19c-.92-2.33-7.32-.91-14.64 3.86-7.33 4.77 16.88 1.42 14.64-3.86zm18.71-22.13s6.52-2.92 8.44 0c2.75 4.37-8.54.1-8.44 0zm-5.47-2.86c-1.32-2.64-8.54-2.89-8.36.93-1.2 2.98 9.38 2.43 8.36-.93zm-17.2.01c-.71-1.52-10.98.03-14.03 6.2 4.9 2.37 16.27-2.34 14.03-6.2zm-21.97 6.3s-13.51 8.26-14.34 14.31c.41 5.23 16.78-9.44 16.78-9.44s1.42-5.78-2.44-4.87zM221.32 185c.38-1.68 6.67-5.57 7.22-5.28.51 1.7-5.14 6.28-7.22 5.28zm4.27 31.57c.3-2.44-16.07-2.23-9.86 5.28 5.16 6.3 10.98-4.16 9.86-5.28zm-14.9 10.78c-.85-1.65-2.08-6.04-4.32-6.44-1.83-.1-11.68 1.93-12.43 3.6-.4 1.31 4.08 9.43 5.6 9.63 1.73.71 10.84-5.98 11.15-6.79zm88.33 55.11c.5-1.73 17.24-7.5 23.02-1.98 6.8 9.34-23.43 4.93-23.02 1.98zM345 293.39c3.67-6.2-11.26-13.56-17.6-6.47 2.17 8.52 14.64 11.6 17.6 6.47z"/>
  </g>
</svg>
