<svg xmlns="http://www.w3.org/2000/svg" xmlns:xlink="http://www.w3.org/1999/xlink" id="flag-icon-css-li" width="640" height="480">
  <path fill="#002b7f" d="M0 0h640v240H0z"/>
  <path fill="#ce1126" d="M0 240h640v240H0z"/>
  <g fill="#ffd83d" stroke="#000" stroke-linecap="round" stroke-linejoin="round" stroke-width="2" transform="scale(.8)">
    <g id="a">
      <path stroke="none" d="M216.38 122.29l-1.84 62.5h-63.42c-7.8-15.17-14.25-28.05-14.25-45.5 0-14.6 11.49-26.2 28.04-26.2 17.52 0 36.77 5.91 51.47 9.2z"/>
      <g stroke-width="1.5">
        <path d="M144.46 125.16v36.08m5.09-39.76v48.03m5.1-50.56v57.23m5.09-58.41v44.88m5.09-45.1v45.32m5.1-46.9v46.88m5.09-46.89v46.89m5.09-46.43v46.89m5.1-46.43v46.89m5.09-43.9v46.89m5.09-46.43v52.86m5.1-52.86v46.89m5.09-46.89v46.89"/>
        <path fill="#000" d="M176.4 117.92c10.76 1.78 34.4 12.84 31.7 27.8-3.81 21.22-16.2 12.7-32.62 9.66l-12.41 4.13c-4.44 4.54-10.98 8.69-15.4 3.22h-7.35v28.72h81.34v-69.39z"/>
      </g>
      <circle cx="212.81" cy="112.98" r="4.94"/>
      <circle cx="201.71" cy="110.31" r="4.94"/>
      <circle cx="190.45" cy="107.48" r="4.94"/>
      <circle cx="179.14" cy="105.6" r="4.94"/>
      <circle cx="167.84" cy="104.48" r="4.94"/>
      <circle cx="156.75" cy="105.11" r="4.94"/>
      <circle cx="146.18" cy="108.73" r="4.94"/>
      <circle cx="137.28" cy="115.28" r="4.94"/>
      <circle cx="130.96" cy="124.41" r="4.94"/>
      <circle cx="127.91" cy="135.16" r="4.94"/>
      <circle cx="128.03" cy="146.3" r="4.94"/>
      <circle cx="130.15" cy="157.22" r="4.94"/>
      <path d="M215 119.53l-.46 6.43c-12.3-1.88-29.72-8.73-45.96-8.73-15 0-26.65 6-26.65 21.14 0 14.92 6.31 28.49 14.7 42.28l-8.73 4.14c-7.8-15.17-14.25-28.05-14.25-45.5 0-14.6 11.49-28.95 31.25-28.95 17.52 0 35.4 5.9 50.1 9.19z"/>
    </g>
    <use width="100%" height="100%" transform="matrix(-1 0 0 1 443.94 0)" xlink:href="#a"/>
    <path d="M221.97 53.13l-5.16 9.65 5.16 9.63 5.15-9.63-5.15-9.65zm0 24.37l-5.16 9.63 5.16 9.65 5.15-9.65-5.15-9.63zm-18.38-2.55l8.13 5.16 8.1-5.16-8.1-5.15-8.14 5.15zm20.52 0l8.1 5.16 8.14-5.16-8.13-5.15-8.1 5.15z"/>
    <circle cx="221.97" cy="75.07" r="3.91"/>
    <circle cx="221.97" cy="100" r="10.46"/>
    <path fill="none" stroke-width="1.5" d="M219.34 89.88c0 3.1-.02 4.92-.03 6.62a62.5 62.5 0 0 0-7.44.78m20.2 0a62.13 62.13 0 0 0-7.45-.78v-6.63m-12.78 12.7a61.39 61.39 0 0 1 10.13-.85c3.45 0 6.83.3 10.12.84"/>
    <path d="M211.75 117.69c-1 17.08-3.01 34.48-9.66 47.12l10.82-4.37c3.77-14.33 4.57-32.84 5.72-41.6l-6.88-1.15zm20.44 0l-6.88 1.15c1.15 8.75 1.94 27.27 5.72 41.6l10.81 4.37c-6.64-12.64-8.66-30.04-9.65-47.12z"/>
    <path d="M221.95 154.69c-12.91 0-22.4 6.08-22.97 21.6-3.15-5.56-16.5-23.03-28.96-20.7-7.41 1.4-13.96 11.67-12.85 23.44-6.13-17.63-24.1-20.52-37.22-10.1 11.65 9.58 16.82 37.84 26.63 50.1h150.75c9.8-12.26 15.01-40.52 26.65-50.09-13.1-10.43-31.08-7.54-37.21 10.1 1.1-11.78-5.47-22.05-12.88-23.44-12.46-2.34-25.78 15.13-28.94 20.68-.57-15.5-10.08-21.59-23-21.59z"/>
    <g stroke-width="1.5">
      <path fill="#000" d="M297.1 219.03c0 5.58-33.65 11.71-75.13 11.71s-75.14-6.13-75.14-11.71c0-5.58 33.66-8.5 75.14-8.5 41.47 0 75.14 2.91 75.14 8.5z"/>
      <circle cx="221.97" cy="114.44" r="3.5"/>
      <circle cx="221.97" cy="122.03" r="3.73"/>
      <circle cx="221.97" cy="130.18" r="4.08"/>
      <circle cx="221.97" cy="139.26" r="4.65"/>
      <circle cx="221.97" cy="149.37" r="5.11"/>
      <path fill="#000" stroke="none" d="M219.94 159.2c-.56 0-1.08.47-.94 1.35.16 1.04.37 3 .56 4.31.22 1.5 1.1 1.13 1.31-.03.22-1.16.14-1.9.2-4.06.02-1.08-.58-1.56-1.13-1.56zm4.06 0c-.55.01-1.15.49-1.13 1.57.06 2.15-.03 2.9.2 4.06.21 1.16 1.08 1.53 1.3.03.2-1.31.4-3.27.57-4.3.14-.9-.39-1.36-.94-1.35zm-7.69.57c-.5.07-1.03.58-1 1.12.06 1 .33 2.2.44 3.7.11 1.54 1.2.94 1.31.05.11-.88.24-2.19.13-3.9-.04-.65-.33-.93-.66-.97a.84.84 0 0 0-.22 0zm11.1 0c-.34.04-.62.32-.66.97a20.13 20.13 0 0 0 .12 3.9c.11.89 1.2 1.49 1.32-.06.1-1.5.38-2.69.43-3.69.03-.54-.49-1.05-1-1.12a.84.84 0 0 0-.22 0zm-15.44 1.75c-.47.12-.9.67-.75 1.31.27 1.27.53 2.68.53 3.97 0 1.1.94.71 1-.06a59.76 59.76 0 0 0 .15-3.9c0-1.12-.47-1.44-.93-1.32zm19.68 0c-.33.09-.62.47-.62 1.31 0 1.5.1 3.13.16 3.9.05.78 1 1.18 1 .07 0-1.29.25-2.7.53-3.97.14-.63-.29-1.2-.75-1.31a.55.55 0 0 0-.31 0zm-59.09.17c-.55-.02-.94.73-.56 1.56.6 1.33 1.25 2.17 1.87 3.6.56 1.27 1.4.47 1.13-.41-.28-.89-.58-1.87-1.4-3.75-.32-.7-.7-1-1.04-1zm98.81 0c-.33.01-.72.3-1.03 1-.83 1.88-1.13 2.86-1.4 3.75-.28.88.57 1.68 1.12.4.62-1.42 1.27-2.26 1.88-3.59.38-.83-.01-1.58-.57-1.56zm-94.8.06c-.42.13-.66.64-.42 1.25.5 1.22 1.22 2.46 1.72 3.78.44 1.16 1.43.83 1.1-.22-.34-1.05-.43-1.66-1.1-3.65-.33-1-.9-1.28-1.3-1.16zm90.5 0c-.36.08-.76.41-1 1.16-.67 1.99-.77 2.6-1.1 3.65-.34 1.05.65 1.38 1.1.22.5-1.32 1.21-2.56 1.7-3.78.26-.6.01-1.12-.4-1.25a.6.6 0 0 0-.3 0zm-85.5.97c-.52.1-.92.88-.57 1.84.44 1.22 1.07 2.37 1.62 3.75.56 1.39 1.47 1.1 1.25.22-.22-.88-.49-2.35-1.15-4.56-.3-.97-.76-1.32-1.16-1.25zm80.8 0c-.4-.08-.86.28-1.15 1.25-.67 2.21-.94 3.68-1.16 4.56-.22.89.7 1.17 1.25-.22.55-1.38 1.18-2.53 1.63-3.75.35-.96-.05-1.74-.57-1.84zm-93.18.69c-.56.05-1.07.96-.72 1.65.55 1.11.9 1.49 1.43 2.66.56 1.22 1.16.28.94-.5-.22-.77-.5-1.67-.78-2.78-.2-.8-.54-1.06-.87-1.03zm105.56 0c-.34-.04-.67.22-.88 1.03-.27 1.1-.56 2-.78 2.78-.22.78.39 1.72.94.5.54-1.17.89-1.55 1.44-2.66.34-.69-.16-1.6-.72-1.65zm-67.03 2.8c-.59 0-1.21.77-1 1.5.33 1.16.84 2.19 1.22 3.68.33 1.33 1.27.67 1.21-.21a28.7 28.7 0 0 0-.59-3.97c-.14-.7-.5-1-.84-1zm28.5 0c-.35 0-.7.3-.85 1a28.72 28.72 0 0 0-.59 3.97c-.05.88.89 1.54 1.22.21.37-1.5.89-2.52 1.22-3.68.2-.73-.42-1.5-1-1.5zm-14.25 1.18c-.72 0-.82.97-.85 1.75a12.32 12.32 0 0 1-2.06 6.32c-.91 1.24-2.25.9-3.5.25a22.3 22.3 0 0 1-3.31-2.16c-1.33-1-2.34-.41-.75 1.84 4.62 6.58 9.62 12.2 9.62 22.94 0 1.4.25 1.81.85 1.81s.87-.42.87-1.8c0-10.74 4.98-16.36 9.6-22.95 1.58-2.25.57-2.84-.75-1.84-1.33 1-2.07 1.5-3.32 2.16-1.24.66-2.59 1-3.5-.25a12.3 12.3 0 0 1-2.06-6.32c-.03-.78-.12-1.75-.84-1.75zm-35.28-1.6a.6.6 0 0 0-.2.02c-.26.09-.44.41-.34.97.2 1 .88 2.97 1.16 3.9.28.95 1.43.75 1.16-.52-.28-1.28-.27-1.66-.6-3.1-.18-.78-.74-1.27-1.18-1.28zm70.56 0c-.44 0-1 .49-1.19 1.27-.33 1.44-.32 1.83-.6 3.1-.27 1.27.89 1.47 1.16.53.28-.94.97-2.9 1.16-3.9.1-.57-.08-.9-.34-.98a.6.6 0 0 0-.2-.03zm-91.53.4c-.58.04-1 .77-.4 1.84.62 1.16 1.71 2.61 2.21 3.44.5.83 1.36.27.75-.78-.6-1.05-.81-2.26-1.53-3.75-.27-.56-.68-.78-1.03-.75zm112.5 0c-.35-.03-.76.19-1.03.75-.72 1.5-.93 2.7-1.54 3.75-.6 1.05.26 1.6.75.78.5-.83 1.59-2.28 2.22-3.44.6-1.07.18-1.8-.4-1.84zm-144.2 3.33c-.66-.04-.87 1.17-.24 1.97a19.23 19.23 0 0 0 2.6 2.71c.82.75 1.06-.22.65-.97-.41-.74-1.01-1.5-1.84-2.75-.46-.68-.86-.95-1.16-.96zm175.88 0c-.3.01-.7.28-1.15.97-.83 1.24-1.43 2-1.85 2.75-.4.74-.17 1.71.66.96a19.02 19.02 0 0 0 2.6-2.72c.62-.8.41-2-.26-1.96zm-170.84 1c-.53 0-.88.4-.47 1.31.6 1.3 1.38 2.79 1.88 3.78.5 1 2.01 1.33 1.4-.22-.6-1.54-.73-2.34-1.28-3.78-.28-.72-1-1.1-1.53-1.1zm165.81 0c-.53-.01-1.25.37-1.53 1.1-.55 1.43-.67 2.22-1.28 3.77-.6 1.55.91 1.22 1.4.22.5-1 1.29-2.47 1.88-3.78.42-.91.07-1.3-.47-1.31zm-175.56.34c-.77 0-.84.78-.15 1.28.9.67 2 1.4 3.06 2.25 1.24 1 1.72.08 1.06-.75-.66-.83-1.31-1.67-2.97-2.5-.41-.2-.74-.28-1-.28zm185.31 0c-.25 0-.58.07-1 .28-1.66.83-2.3 1.67-2.97 2.5-.66.83-.18 1.75 1.07.75 1.06-.85 2.15-1.58 3.06-2.25.68-.5.62-1.27-.16-1.28zm-109.65.72c-.44.06-.81.55-.63 1.19.33 1.16.71 2.39.94 3.6.22 1.15 1.57 1.17 1.34.12-.22-1.05-.33-2.37-.72-3.97-.14-.6-.44-.9-.75-.94a.62.62 0 0 0-.18 0zm33.8 0c-.3.05-.6.34-.74.94-.39 1.6-.5 2.92-.72 3.97-.22 1.05 1.12 1.03 1.34-.13.23-1.2.61-2.43.94-3.6.18-.63-.19-1.12-.62-1.18a.62.62 0 0 0-.2 0zm-63.9-1.99c-.34.1-.53.75-.28 1.66 1.41 5.06 1.84 7.73 1.6 8.97-.25 1.24-.94 1.41-1.85 1a18.84 18.84 0 0 1-2.81-1.6c-.83-.57-1.7.12-.5 1.1 6.06 4.98 10.25 10.66 11.88 17.56.33 1.41 1.21 1.58.97 0-1.38-8.69-1.64-15.83.43-20.3.78-1.7 0-3.3-1.25-.57-.83 1.82-2.17 2.54-3.25.97a47.88 47.88 0 0 1-3.97-7.7c-.25-.7-.55-1.04-.81-1.08a.35.35 0 0 0-.15 0zm94.03 0c-.25.05-.56.38-.8 1.1-.67 1.9-2.9 6.1-3.98 7.68s-2.42.86-3.25-.97c-1.24-2.73-2.03-1.12-1.25.57 2.08 4.48 1.81 11.62.44 20.31-.25 1.58.64 1.41.97 0 1.62-6.9 5.82-12.58 11.88-17.56 1.19-.98.32-1.67-.5-1.1-.84.59-1.9 1.19-2.82 1.6-.9.42-1.6.25-1.84-1-.25-1.24.18-3.9 1.6-8.97.25-.9.05-1.56-.29-1.65a.35.35 0 0 0-.16 0zm-124.46 2.43c-.55 0-1 .39-.75 1.22.4 1.32 1.22 2.76 1.5 3.59.27.83 1.16.44 1-.72-.17-1.16-.25-1.85-.47-3.12-.11-.64-.74-.98-1.28-.97zm155.06 0c-.55-.01-1.17.33-1.28.97-.22 1.27-.3 1.96-.47 3.12-.17 1.16.72 1.55 1 .72.27-.83 1.1-2.27 1.5-3.6.25-.82-.2-1.2-.75-1.21zm-136.28-1.74c-.64-.11-.73 1.53-.2 2.19.73.89 1.73 1.95 2.73 3.16.83 1 1.34.1.84-.72-.5-.83-1.23-1.71-2.56-3.81-.33-.53-.6-.78-.81-.82zm117.5 0c-.21.04-.48.29-.82.81-1.32 2.1-2.06 2.99-2.56 3.82-.5.83.02 1.71.85.72 1-1.2 2-2.28 2.71-3.16.54-.66.45-2.3-.18-2.19zm-132 3.96c-.4-.03-.73.29-.57 1.09.24 1.12.57 2.04.85 3.1.27 1.04 1 .86 1-.13 0-1-.18-2.1-.35-3.16a1.1 1.1 0 0 0-.93-.9zm146.5 0c-.4.02-.86.38-.94.9-.17 1.05-.34 2.16-.34 3.16s.72 1.17 1 .12c.27-1.05.6-1.97.84-3.09.17-.8-.17-1.12-.56-1.1zm-133.4 1.42c-.63.1-1.17.69-.45 1.62 1.16 1.5 2.44 2.54 2.88 3.1.44.55 1.56.35.84-.82-.73-1.18-1.84-2.61-2.34-3.5-.19-.33-.57-.46-.94-.4zm120.05 0c-.27.03-.54.16-.68.4-.5.89-1.61 2.32-2.35 3.5-.72 1.16.4 1.37.85.82.44-.56 1.7-1.6 2.87-3.1.73-.93.18-1.53-.44-1.62a.87.87 0 0 0-.25 0zm-140.72 4.17c-.48-.04-.65.35 0 1.25 1.5 2.05 3.14 5.14 3.25 6.47.12 1.33-.54 1.31-1.15 1.31-1.83 0-2.72-1.33-4.38-1.72-1.66-.38-1.9.49-.72 1.35 6.09 4.42 12.18 9.36 14.63 13.84 1 1.83 2.34 2.5 1.6.75-2.3-5.34-2.85-9.86-2.35-12.6.5-2.73 1.18-4.57 1.1-6.15-.09-1.57-.98-1.47-1.35 0-.25 1-.73 2.32-1.06 2.81-.33.5-1.67.78-2.94-.93a47.93 47.93 0 0 0-5.53-5.85c-.4-.3-.8-.5-1.1-.53zm161.63 0c-.3.03-.7.22-1.1.53a48.16 48.16 0 0 0-5.52 5.85c-1.28 1.71-2.61 1.43-2.94.93-.33-.5-.82-1.81-1.07-2.8-.36-1.48-1.26-1.58-1.34 0-.08 1.57.6 3.41 1.1 6.15s-.06 7.25-2.35 12.6c-.75 1.73.6 1.07 1.6-.76 2.44-4.48 8.54-9.42 14.62-13.84 1.18-.86.94-1.73-.72-1.35-1.66.4-2.55 1.73-4.37 1.73-.61 0-1.27 0-1.16-1.32.11-1.32 1.76-4.42 3.25-6.47.66-.9.49-1.3 0-1.25z"/>
      <path d="M150.13 212.65l1.95 6.17m2.06-7.34l1.73 6.24m2.6-6.95l1.19 6.36m2.83-7.17l1.27 6.35m3.89-6.85l1.03 6.39m4.45-6.39l1.11 6.38m4.24-8.19l.8 6.43m4.24-6.1l.8 6.42m4.08-7.07l.8 6.42m4.09-6.92l.44 6.46m4.79-6.47l.38 6.47m4.36-6.8l.32 6.47m4.9-6.79l.28 6.47m5.74-6.63l.27 6.47m79.04.17l-1.95 6.18m-2.06-7.34l-1.73 6.24m-2.6-6.96l-1.19 6.37m-2.83-7.17l-1.27 6.35m-3.89-6.86l-1.03 6.4m-4.45-6.4l-1.11 6.39m-4.24-8.2l-.8 6.43m-4.24-6.1l-.8 6.43m-4.08-7.08l-.8 6.43m-4.09-6.93l-.44 6.46m-4.79-6.46l-.38 6.46m-4.36-6.79l-.32 6.47m-4.9-6.8l-.27 6.47m-5.75-6.63l-.27 6.47m-7.2-6.89v7.12"/>
    </g>
  </g>
</svg>
