<svg xmlns="http://www.w3.org/2000/svg" height="480" width="640"><defs><clipPath id="a"><rect fill-opacity=".67" height="480" width="640"/></clipPath></defs><g clip-path="url(#a)"><g fill-rule="evenodd" transform="matrix(.968 0 0 .968 0 -.343)"><rect height="248.03" width="744.09" y="248.03" fill="#e4104d"/><rect height="247.68" width="744.09" y=".354" fill="#8a85ff"/></g><g fill-rule="evenodd" transform="matrix(1.695 0 0 1.695 -124.21 288.5)"><g><path d="M161.603-71.123l48.594-.185s17.945-21.578 8.445-35.716c-9.5-14.138-46.747-.447-46.897-.447-.151 0-.302-7.589-9.5-7.738-9.199.149-9.349 7.738-9.5 7.738-.151 0-37.398-13.691-46.897.447-9.5 14.138 8.445 35.716 8.445 35.716l47.314.185z" fill="#f3ef7d"/><path d="M161.691-71.221l46.702-.179s17.247-20.951 8.116-34.678c-9.131-13.727-44.927-.434-45.072-.434-.145 0-.29-7.369-9.131-7.514-8.841.145-8.985 7.514-9.13 7.514-.145 0-35.942-13.293-45.072.434-9.131 13.727 8.116 34.678 8.116 34.678l45.473.179z"/></g><g fill="#f3ef7d" transform="matrix(-1 0 0 1 455.54 -20.882)"><rect height="6.63" width=".553" y="-79.738" x="239.71"/><rect height="13.634" width=".553" y="-83.336" x="241.72"/><rect height="17.935" width=".649" y="-85.201" x="243.64"/><rect height="21.451" width=".703" y="-86.512" x="246.1"/><rect height="24.041" width=".703" y="-87.28" x="248.89"/><rect height="26.196" width=".697" y="-88.211" x="251.74"/><rect height="27.301" width=".703" y="-88.414" x="254.16"/><rect height="28.069" width=".703" y="-88.414" x="256.59"/><rect height="29.277" width=".649" y="-88.354" x="259.63"/><rect height="29.293" width=".799" y="-88.072" x="262.48"/><rect height="28.861" width=".799" y="-87.353" x="265.6"/><rect height="27.946" width=".751" y="-86.233" x="268.65"/><rect height="26.46" width=".703" y="-84.952" x="271.84"/><rect height="24.686" width=".703" y="-84.089" x="274.48"/><rect height="22.263" width=".601" y="-82.42" x="277.29"/><rect height="19.025" width=".505" y="-80.26" x="279.75"/><rect height="15.475" width=".601" y="-78.149" x="281.96"/><rect height="9.879" width=".54" y="-74.915" x="284.12"/></g><g fill="#f3ef7d" transform="translate(-131.37 -21.545)"><rect height="6.63" width=".553" y="-79.738" x="239.71"/><rect height="13.634" width=".553" y="-83.336" x="241.72"/><rect height="17.935" width=".649" y="-85.201" x="243.64"/><rect height="21.451" width=".703" y="-86.512" x="246.1"/><rect height="24.041" width=".703" y="-87.28" x="248.89"/><rect height="26.196" width=".697" y="-88.211" x="251.74"/><rect height="27.301" width=".703" y="-88.414" x="254.16"/><rect height="28.069" width=".703" y="-88.414" x="256.59"/><rect height="29.277" width=".649" y="-88.354" x="259.63"/><rect height="29.293" width=".799" y="-88.072" x="262.48"/><rect height="28.861" width=".799" y="-87.353" x="265.6"/><rect height="27.946" width=".751" y="-86.233" x="268.65"/><rect height="26.46" width=".703" y="-84.952" x="271.84"/><rect height="24.686" width=".703" y="-84.089" x="274.48"/><rect height="22.263" width=".601" y="-82.42" x="277.29"/><rect height="19.025" width=".505" y="-80.26" x="279.75"/><rect height="15.475" width=".601" y="-78.149" x="281.96"/><rect height="9.879" width=".54" y="-74.915" x="284.12"/></g><path d="M161.397-131.377l-.064-1.003c0-.201-1.409-1.337-1.409-4.212s1.217-4.011 1.857-4.011 2.049.936 2.113 3.944c.064 3.009-1.409 4.145-1.409 4.145l-.128 1.203 1.089.067c.064 0 1.409-1.203 4.867-1.07s3.65 1.605 3.714 2.073c.064.468-.512 1.872-3.97 1.872s-4.483-1.671-4.547-1.671l-1.089-.067v.869s1.345 1.07 1.281 4.613c-.064 3.543-1.409 3.744-1.793 3.744-.512 0-1.601-.201-1.665-3.677.128-3.543 1.025-4.546 1.025-4.613v-.869h-.961s-1.025.869-4.547.936c-3.522.067-3.714-1.003-3.778-1.605-.064-.602.64-1.671 3.714-1.738 3.074-.067 4.547 1.07 4.547 1.07h1.153z" fill="#f3ef7d"/><g transform="matrix(.334 0 0 .355 86.116 -150.31)" fill="#f3ef7d"><rect rx="5.828" ry="5.828" height="11.656" width="11.656" y="105.59" x="188.99"/><rect rx="5.828" ry="5.828" height="11.656" width="11.656" y="103.23" x="177.22"/><rect rx="5.828" ry="5.828" height="11.656" width="11.656" y="99.703" x="164.86"/><rect rx="5.828" ry="5.828" height="11.656" width="11.656" y="96.759" x="152.49"/><rect rx="5.828" ry="5.828" height="11.656" width="11.656" y="94.404" x="139.54"/><rect rx="5.828" ry="5.828" height="11.656" width="11.656" y="92.638" x="126.59"/><rect rx="5.828" ry="5.828" height="11.656" width="11.656" y="91.461" x="114.23"/><rect rx="5.828" ry="5.828" height="11.656" width="11.656" y="90.872" x="101.27"/><rect rx="5.828" ry="5.828" height="11.656" width="11.656" y="92.638" x="88.911"/><rect rx="5.828" ry="5.828" height="11.656" width="11.656" y="94.404" x="75.96"/><rect rx="5.828" ry="5.828" height="11.656" width="11.656" y="98.525" x="64.185"/><rect rx="5.828" ry="5.828" height="11.656" width="11.656" y="106.18" x="53"/><rect rx="5.828" ry="5.828" height="11.656" width="11.656" y="116.78" x="45.346"/><rect rx="5.828" ry="5.828" height="11.656" width="11.656" y="127.96" x="40.637"/><rect rx="5.828" ry="5.828" height="11.656" width="11.656" y="140.32" x="38.871"/><rect rx="5.828" ry="5.828" height="11.656" width="11.656" y="153.28" x="39.459"/><rect rx="5.828" ry="5.828" height="11.656" width="11.656" y="165.64" x="42.403"/><rect rx="5.828" ry="5.828" height="11.656" width="11.656" y="178" x="47.113"/><rect rx="5.828" ry="5.828" height="11.656" width="11.656" y="188.6" x="52.411"/></g><g transform="matrix(-.334 0 0 .355 238.43 -150.31)" fill="#f3ef7d"><rect rx="5.828" ry="5.828" height="11.656" width="11.656" y="105.59" x="188.99"/><rect rx="5.828" ry="5.828" height="11.656" width="11.656" y="103.23" x="177.22"/><rect rx="5.828" ry="5.828" height="11.656" width="11.656" y="99.703" x="164.86"/><rect rx="5.828" ry="5.828" height="11.656" width="11.656" y="96.759" x="152.49"/><rect rx="5.828" ry="5.828" height="11.656" width="11.656" y="94.404" x="139.54"/><rect rx="5.828" ry="5.828" height="11.656" width="11.656" y="92.638" x="126.59"/><rect rx="5.828" ry="5.828" height="11.656" width="11.656" y="91.461" x="114.23"/><rect rx="5.828" ry="5.828" height="11.656" width="11.656" y="90.872" x="101.27"/><rect rx="5.828" ry="5.828" height="11.656" width="11.656" y="92.638" x="88.911"/><rect rx="5.828" ry="5.828" height="11.656" width="11.656" y="94.404" x="75.96"/><rect rx="5.828" ry="5.828" height="11.656" width="11.656" y="98.525" x="64.185"/><rect rx="5.828" ry="5.828" height="11.656" width="11.656" y="106.18" x="53"/><rect rx="5.828" ry="5.828" height="11.656" width="11.656" y="116.78" x="45.346"/><rect rx="5.828" ry="5.828" height="11.656" width="11.656" y="127.96" x="40.637"/><rect rx="5.828" ry="5.828" height="11.656" width="11.656" y="140.32" x="38.871"/><rect rx="5.828" ry="5.828" height="11.656" width="11.656" y="153.28" x="39.459"/><rect rx="5.828" ry="5.828" height="11.656" width="11.656" y="165.64" x="42.403"/><rect rx="5.828" ry="5.828" height="11.656" width="11.656" y="178" x="47.113"/><rect rx="5.828" ry="5.828" height="11.656" width="11.656" y="188.6" x="52.411"/></g><g><path d="M227.04-79.384l-11.104 32.803s-18.359-7.676-52.782-7.676c-34.424 0-50.108 6.716-50.108 6.716l-16.15-32.234c14.366-2.671 18.745 9.571 18.745 9.571s.978-14.296 12.261-16.833c9.531-1.651 17.953 10.713 17.953 10.713s1.985-13.914 16.07-14.296c14.085.382 16.07 14.296 16.07 14.296s8.422-12.364 17.953-10.712c11.283 2.537 12.261 16.833 12.261 16.833s4.379-12.243 18.829-9.182z" fill="#f3ef7d"/><rect transform="translate(13.258 -218.32)" rx="51.429" ry="8.13" height="16.261" width="102.86" y="162.27" x="100.1"/><g transform="matrix(.334 0 0 .355 86.116 -150.31)"><rect rx="3.434" ry="4.651" height="9.301" width="6.868" y="175.06" x="228.46"/><rect rx="3.434" ry="4.651" height="9.301" width="6.868" y="177.41" x="237.82"/><rect rx="3.434" ry="4.651" height="9.301" width="6.868" y="175.06" x="219.87"/><rect rx="3.434" ry="4.651" height="9.301" width="6.868" y="182.12" x="203.48"/><rect rx="3.434" ry="4.651" height="9.301" width="6.868" y="177.41" x="211.28"/><rect rx="3.434" ry="4.651" height="9.301" width="6.868" y="189.19" x="197.23"/><rect rx="3.434" ry="4.651" height="9.301" width="6.868" y="182.71" x="245.63"/><rect rx="3.434" ry="4.651" height="9.301" width="6.868" y="189.19" x="252.65"/></g><g transform="matrix(.33 .055 -.052 .351 129.39 -157.7)"><rect rx="3.434" ry="4.651" height="9.301" width="6.868" y="175.06" x="228.46"/><rect rx="3.434" ry="4.651" height="9.301" width="6.868" y="177.41" x="237.82"/><rect rx="3.434" ry="4.651" height="9.301" width="6.868" y="175.06" x="219.87"/><rect rx="3.434" ry="4.651" height="9.301" width="6.868" y="182.12" x="203.48"/><rect rx="3.434" ry="4.651" height="9.301" width="6.868" y="177.41" x="211.28"/><rect rx="3.434" ry="4.651" height="9.301" width="6.868" y="189.19" x="197.23"/><rect rx="3.434" ry="4.651" height="9.301" width="6.868" y="182.71" x="245.63"/><rect rx="3.434" ry="4.651" height="9.301" width="6.868" y="189.19" x="252.65"/></g><g transform="matrix(.328 -.064 .06 .349 42.896 -131.04)"><rect rx="3.434" ry="4.651" height="9.301" width="6.868" y="175.06" x="228.46"/><rect rx="3.434" ry="4.651" height="9.301" width="6.868" y="177.41" x="237.82"/><rect rx="3.434" ry="4.651" height="9.301" width="6.868" y="175.06" x="219.87"/><rect rx="3.434" ry="4.651" height="9.301" width="6.868" y="182.12" x="203.48"/><rect rx="3.434" ry="4.651" height="9.301" width="6.868" y="177.41" x="211.28"/><rect rx="3.434" ry="4.651" height="9.301" width="6.868" y="189.19" x="197.23"/><rect rx="3.434" ry="4.651" height="9.301" width="6.868" y="182.71" x="245.63"/><rect rx="3.434" ry="4.651" height="9.301" width="6.868" y="189.19" x="252.65"/></g><rect transform="matrix(.976 -.216 .192 .981 13.258 -218.32)" rx="1.15" ry="1.647" height="3.295" width="2.299" y="155.25" x="57.043"/><rect transform="matrix(.976 -.216 .192 .981 13.258 -218.32)" rx="1.15" ry="1.647" height="3.295" width="2.299" y="156.09" x="60.179"/><rect transform="matrix(.976 -.216 .192 .981 13.258 -218.32)" rx="1.15" ry="1.647" height="3.295" width="2.299" y="157.96" x="62.792"/><rect transform="matrix(.976 -.216 .192 .981 13.258 -218.32)" rx="1.15" ry="1.647" height="3.295" width="2.299" y="160.26" x="65.144"/><g transform="matrix(.309 .134 -.126 .329 148.87 -220.32)"><rect rx="3.434" ry="4.651" height="9.301" width="6.868" y="285.4" x="359.08"/><rect rx="3.434" ry="4.651" height="9.301" width="6.868" y="292.46" x="342.69"/><rect rx="3.434" ry="4.651" height="9.301" width="6.868" y="287.75" x="350.49"/><rect rx="3.434" ry="4.651" height="9.301" width="6.868" y="299.53" x="336.44"/></g><path d="M154.13-76.395c8.052 6.396 8.196 18.409 8.196 18.409s-1.294-12.637 7.333-17.785c-4.457 1.404-4.314 1.092-6.758.936l-.575-4.056s-.431 2.028-1.294 3.9c-1.869.624-2.301.624-6.902-1.404z"/><path d="M122.316-71.72c9.241 4.201 12.039 15.841 12.039 15.841s-4.054-11.958 3.191-19.121c-4.021 2.48-3.951 2.141-6.361 2.601l-1.457-3.799s.03 2.079-.395 4.115c-1.679 1.074-2.098 1.182-7.019.363z"/><path d="M187.687-75.48c6.304 8.325 3.635 19.998 3.635 19.998s1.701-12.582 11.261-15.287c-4.646.181-4.434-.083-6.765-.88l.391-4.081s-.892 1.85-2.165 3.436c-1.957.11-2.374-.004-6.357-3.185z"/><path d="M104.919-65.762c6.947 3.425 10.554 13.578 10.554 13.578s-4.514-10.397-.584-16.908c-2.398 2.299-2.399 1.998-3.985 2.473l-1.55-3.298s.322 1.827.326 3.63c-.996.994-1.267 1.101-4.761.524z"/><path d="M211.656-70.23c1.328 8.02-4.445 16.97-4.445 16.97s5.442-9.882 12.713-10.172c-3.144-.779-2.913-.952-4.186-2.064l1.659-3.237s-1.226 1.325-2.614 2.359c-1.336-.301-1.574-.477-3.125-3.855z"/></g><g><rect transform="translate(13.258 -218.32)" rx="3.362" ry="3.51" height="7.02" width="6.724" y="97.304" x="145.26" fill="#f3ef7d"/><rect transform="translate(13.258 -218.32)" height="7.02" width=".704" y="97.304" x="148.4"/><rect transform="translate(13.258 -218.32)" rx="1.553" ry="1.756" height="3.512" width="3.106" y="119.51" x="147.36" fill="#f3ef7d"/><rect transform="translate(13.258 -218.32)" rx="1.454" ry="1.651" height="3.303" width="2.909" y="115.96" x="147.36" fill="#f3ef7d"/><rect transform="translate(13.258 -218.32)" rx="1.454" ry="1.547" height="3.094" width="2.909" y="112.61" x="147.36" fill="#f3ef7d"/><rect transform="translate(13.258 -218.32)" rx="1.258" ry="1.233" height="2.467" width="2.516" y="109.9" x="147.56" fill="#f3ef7d"/><rect transform="translate(13.258 -218.32)" rx="1.258" ry="1.442" height="2.885" width="2.516" y="106.76" x="147.56" fill="#f3ef7d"/><rect transform="translate(13.258 -218.32)" rx="1.061" ry="1.024" height="2.049" width="2.123" y="104.46" x="147.76" fill="#f3ef7d"/><rect transform="matrix(.006 1 -1 .006 13.258 -218.32)" height="6.724" width=".735" y="-151.55" x="101.34"/><rect transform="translate(13.258 -218.32)" rx="1.946" ry="2.07" height="4.139" width="3.892" y="123.07" x="146.97" fill="#f3ef7d"/></g></g></g></svg>