<svg xmlns="http://www.w3.org/2000/svg" height="480" width="640">
    <g>
        <path fill-rule="evenodd" fill="#fc0" d="M0 0h640v480h-640z"/>
        <path fill-rule="evenodd" fill="#f60" d="M241.63 42.685h202.1v403.22h-202.1z"/>
        <path fill-rule="evenodd" fill="#060" d="M42.663 42.685h199.14v403.28h-199.14z"/>
        <g>
            <path fill-rule="evenodd" fill="#991b33" d="M242.394 171.582h367.901v274.823h-367.901z"/>
            <g fill="#fc0">
                <path stroke-linejoin="round" d="M387.145 298.745l5.425.139s-6.119 5.146-4.729 12.1c6.399-9.457 8.762-7.65 8.762-7.65-1.947 2.086-5.703 5.007-2.782 11.405 2.504-6.537 7.65-11.544 7.65-11.544s-1.392 7.232 1.668 13.908c2.225-6.676 5.98-12.377 5.98-12.377s-.555 7.232 2.643 9.873c2.503-2.225 4.172-7.928 4.172-7.928s4.729 8.346 7.65 9.597c2.364-5.703 2.364-10.152 2.364-10.152s9.736 6.954 17.523 2.921c-6.954-2.503-9.318-8.344-9.318-8.344s12.657 5.562 18.08 3.06c-5.286-4.035-17.662-10.014-17.662-10.014s9.179 3.338 11.82 2.503c-1.251-1.808-5.285-4.033-5.285-4.033" fill-rule="evenodd" stroke="#991b33" stroke-linecap="round" stroke-width="NaN"/>
                <path d="M463.11 230.899c16.771-1.526 42.682 12.177 56.416 21.318 0-3.052 0-6.089 3.037-7.615 3.052-1.526 7.63 1.526 6.104 6.089-4.578 10.651-22.875-1.526-28.963-4.563l3.052 6.089c-9.156-1.526-10.682-3.052-16.771-10.667-1.526 6.089-1.526 7.615-9.156 7.615 2.869-4.517 3.83-6.028 0-10.651l-1.526 9.125-7.615-10.651v10.651c-1.526-1.511-7.63-6.089-10.682-6.089-4.563-1.526-7.615 7.615-9.141 12.193 4.578-4.578 6.089-7.615 13.719-4.578-4.135 3.907-2.93 8.591 1.526 12.177 0 0 .794-6.333 1.282-7.783 2.426 1.816 7.569 8.637 13.963 9.309 4.578 0 9.156-1.526 13.719-3.037 15.245-1.526 48.786 1.511 41.171 24.355-1.526 4.578-3.052 7.615-6.104 10.667 21.349 7.615 3.052 35.022-1.526 48.725-3.052 12.177-.931 21.883 14.1 20.311-3.037 6.089-7.996 7.096-14.1 7.096 0 0 .763 3.662 4.685 5.387-6.516 5.845 2.258 14.604-1.633 18.983-6.562 3.144-15.245-1.526-15.245-1.526l-.427 4.319s-11.521-.794-11.765-1.282c0 0 3.281-6.135 3.037-6.257-3.052 4.563-5.967 7.233-12.193 6.257 0 0 .488-2.869 3.891-6.501-4.624 4.609-5.127 6.623-9.98 6.501 0-7.615 4.563-16.74 13.719-13.703 1.526 0 6.333 3.784 8.591 1.343 1.831-2.625.748-11.506.748-14.558.961-13.459-1.724-12.666-9.339-20.281-6.104-4.563-10.563-11.558-18.178-13.084-7.63-1.526-19.942 6.995-26.046 10.032-15.245 9.141-28.963 15.229-45.734 18.281 0 0 .331-.778.331-2.301 0-1.027 16.461-13.839 19.341-36.334-4.506 22.202-20.511 33.931-21.114 38.055-.601 4.126-3.87 11.166-4.267 11.627 1.979-1.187 8.329-4.299 16.376-4.958-1.735 9.536-10.667 7.615-12.193 12.177 0 4.578 6.104 10.667 0 13.703h-24.385s3.752-5.195 3.931-6.626c-3.282 1.991-5.365 7.218-12.554 6.682.262-1.965 3.705-5.043 3.127-6.252-4.113 3.815-6.043 7.03-11.289 6.196 1.526-4.563 1.526-10.651 7.63-10.651 4.578-1.526 9.156 1.526 12.193-3.052 6.104-7.615-1.112-24.273-2.623-33.413 0-7.615.023-9.058-1.94-18.349l1.526 27.407c-6.104-4.578-12.208-7.615-16.786-13.703-10.667-13.703-7.615-28.933 6.104-38.074 6.104-4.563 9.4-6.943 17.03-9.98-1.526-4.578 2.167-7.95-3.235-9.37-1.618 2.823-3.205 5.906-6.287 5.646l1.648-7.615s-5.494.336-4.41 10.163c-6.318-3.037-3.22-10.163-3.22-10.163h-3.052s-.015 9.064-4.99 10.896c1.343-4.258 1.938-10.896 1.938-10.896s-8.164 9.736-12.91 6.577c2.793-3.159 4.96-3.678 4.578-7.493-.366-3.8-2.335-8.702-2.692-9.477 1.727.835 13.229 4.268 20.442.691-.478 2.384-.262 5.138-.262 5.138 7.615-1.526 9.141-1.526 16.771 1.511-1.526-10.651-7.63-12.177-13.719-19.792v6.089c-6.104-1.511-7.63-3.037-10.682-9.125l-4.563 3.037c-8.042-4.746-13.978-16.008-2.564-15.352 6.806.855 1.038 6.226 1.038 6.226s17.457-5.494 24.385-6.104c0 0-2.014-4.258-8.454-4.99 5.341-4.013 10.713-5.31 14.558 3.144 3.83.214 7.401-4.395 5.127-10.377 5.661-.092 8.454 3.495 11.033 7.264 2.106.382 4.227-1.831 3.723-9.4 5.341 4.563 7.966 5.967 8.317 9.812 4.547 1.007 7.63-.015 14.482-3.067-1.511 6.104-1.511 7.615-7.615 10.667 4.303 5.318 4.757 11.736 3.855 14.069-1.494-.433-1.866-.531-2.927-.821.331 2.353.809 8.825.598 12.633h-3.052l4.578 13.703-3.052 4.578c10.667-4.578 21.349-3.052 32.015-6.089 12.193-1.526 24.401-6.104 38.119-6.104 9.141 0 9.141 4.578 21.349 4.578v-7.615c0-6.089-4.578-12.177-12.208-13.703-4.563 0-12.193 3.037-16.771 4.563-6.089 1.526-15.245 1.526-21.349 1.526-19.807-3.052-16.649-4.975-23.561-8.683-4.135 1.099-6.455 4.609-8.515 10.804-3.83-5.616-2.976-12.788 1.587-15.825-4.563-16.755 7.63-24.37 22.875-27.407z"/>
                <path stroke-linejoin="round" d="M467.688 367.949c-3.052-4.578-13.734-12.193-10.682-19.807 4.578-7.615 30.505-19.792 35.067-3.037 1.526 4.563-3.177 16.675-4.703 21.253 2.309-.594 4.876-4.14 12.39-2.855-1.399 5.982-10.54 10.595-10.54 10.595.928 4.047-6.287 22.769-6.287 22.769h-19.823l3.052-6.089-4.578 6.089h-7.63l6.104-7.615s-7.22 8.457-13.372 8.12c1.526-12.177 8.794-14.209 19.476-9.631 1.526-6.089 4.563-13.703 1.526-19.792z" stroke="#991b33" stroke-width="1.526"/>
                <path d="M386.047 253.273c-2.056 1.264-.377 9.63 2.78 8.206 3.936-1.775-1.219-9.166-2.78-8.206z" fill-rule="evenodd" stroke="#991b33" stroke-width="NaN"/>
                <path stroke-linejoin="round" d="M387.985 250.632c3.755 2.642 9.736 9.735 17.106 9.318-5.564-4.59-4.45-7.927-4.45-7.927 2.921 3.477 12.655 6.676 15.854 5.285-3.754-2.781-4.45-3.06-5.285-5.702 4.451.556 10.014 1.53 14.463-.417" fill-rule="evenodd" stroke="#991b33" stroke-linecap="round" stroke-width="NaN"/>
                <path stroke-linejoin="round" d="M395.218 297.082l.417-6.398s4.172 9.735 7.232 9.874c-1.947-7.092-1.112-12.794-1.112-12.794" fill-rule="evenodd" stroke="#991b33" stroke-linecap="round" stroke-width="NaN"/>
                <path stroke-linejoin="round" d="M404.954 289.294s8.344 15.298 12.377 12.795c-6.119-5.425-5.423-12.517-5.423-12.517s2.782 9.457 10.987 12.378c.555-5.285-3.198-13.908-3.198-13.908s6.814 11.961 10.291 12.239c2.225-2.78 1.39-5.702 1.39-5.702" fill-rule="evenodd" stroke="#991b33" stroke-linecap="round" stroke-width="NaN"/>
                <path stroke-linejoin="round" d="M398.423 278.725l6.119 7.788.974-10.431s5.98 4.728 7.093 4.589l-1.669-11.126s8.066 12.239 8.623 11.96c.555-.278.833-12.1.833-12.1s6.121 16.829 8.207 16.69c2.086-.139 1.529-2.364 1.529-2.364" fill-rule="evenodd" stroke="#991b33" stroke-linecap="round" stroke-width="NaN"/>
                <path stroke-linejoin="round" d="M393.829 265.095s9.457 8.623 10.43 8.066c.974-.556-3.893-10.014-3.893-10.014s5.423 5.146 7.509 5.563l.696-6.676s6.397 5.424 7.509 5.146l.557-5.146s4.172 4.172 4.45 4.172l-.835-11.961s9.319 9.874 10.014 9.735" fill-rule="evenodd" stroke="#991b33" stroke-linecap="round" stroke-width="NaN"/>
                <path stroke-linejoin="round" d="M356 268.155c.417.695 1.965 12.994 21.019 7.987 1.808-.974 1.013 3.437.934 4.728.835-.139 9.916-3.377 16.174 1.212-.736-5.087-2.107-8.504-7.531-11.424-2.642-.556-4.57.795-4.57.795s-22.966.179-26.026-3.298z" fill-rule="evenodd" stroke="#991b33" stroke-linecap="round" stroke-width="NaN"/>
                <path stroke-linejoin="round" d="M345.608 346.463c-.316 1.424-1.312 1.834-4.158 5.947 1.265 1.74 7.085 4.459 8.666 3.037 1.424-.792 1.526-4.563 1.526-4.563 3.052 4.563 8.42 11.758 14.524 13.284 4.563 1.526 9.141-1.526 9.141-6.089s-6.894-11.932-9.931-14.969c-7.63-9.141-6.957-26.404-21.381-24.002-.075.131-.652 2.095-2.034 2.446 1.158 2.217 1.808 4.091-.964 4.789 2.156 2.118 2.495 3.656-.276 4.72 1.677 2.249 3.641 3.075-.22 4.999 4.039 3.937 4.909 9.73 5.108 10.401" stroke="#991b33" stroke-linecap="round" stroke-width="1.526"/>
                <path d="M341.854 217.411c-4.586 6.642-5.062 79.708-3.638 94.415-4.586 3.005-13.125 1.74-15.498.79 1.108-5.219 5.06-89.987 19.136-95.206z" fill-rule="evenodd" stroke="#991b33" stroke-width="NaN"/>
                <path d="M328.883 367.171s-20.244 2.846-11.704-9.171c7.276-3.163 7.117 4.27 4.428 6.8 3.322.369 5.536-1.793 6.009-5.062-4.111-5.535 1.74-9.173 1.424-9.173-14.074 3.163-15.973-6.484-10.754-8.065 6.591.368 4.482 2.477 7.117 4.428 4.744-4.375 7.592-4.796 10.438-.316 2.846-4.428 6.959-3.954 7.116-3.479 4.587 7.748-5.535 8.222-9.646 7.273 3.479 3.797 2.056 7.433.948 10.123.105 2.635 2.11 3.057 5.378 4.111-6.957-19.189 24.514 5.112-7.117 2.689l.159 2.53c2.584.475 4.375 1.106 5.217 3.795-1.105 1.476-2.844 1.686-5.533.633 0 0 1.581 4.428-1.265 5.694-2.373-1.424-2.689-4.903-2.689-4.903-1.318 1.634-3.269.578-4.903-.79 1.477-3.638 5.642-1.9 5.378-7.117z" fill-rule="evenodd"/>
                <path d="M311.486 308.664c1.212-5.484 13.969-4.799 7.908 1.106 4.058 6.484 16.499 5.536 21.192 1.898-3.955-7.54 6.801-5.906 6.327-.159-1.318 10.172-36.796 8.803-35.426-2.846z" fill-rule="evenodd"/>
                <path d="M564.665 405.717c3.8 7.111 10.546 23.961 14.283 27.987 3.502 3.131 12.223 2.762 14.909-.778 0 0 5.585 5.753 7.844 7.493 1.343-.458 2.167-1.74 2.167-1.74-2.274-2.472-5.372-3.861-6.898-8.439 2.274-3.037 3.525-8.942 1.999-13.52-6.669-11.17-28.857-6.76-34.304-11.002z" stroke="#991b33" stroke-width="1.526"/>
                <path d="M287.742 211.682c-3.8-7.111-10.546-23.961-14.283-27.987-3.502-3.131-12.223-2.762-14.909.778 0 0-5.585-5.753-7.844-7.493-1.343.458-2.167 1.74-2.167 1.74 2.274 2.472 5.372 3.861 6.898 8.439-2.274 3.037-3.525 8.942-1.999 13.52 6.669 11.17 28.857 6.76 34.304 11.002z" stroke="#991b33" stroke-width="1.526"/>
                <path d="M285.483 404.634c-7.111 3.8-23.961 10.546-27.987 14.283-3.131 3.502-2.762 12.223.778 14.909 0 0-5.753 5.585-7.493 7.844.458 1.343 1.74 2.167 1.74 2.167 2.472-2.274 3.861-5.372 8.439-6.898 3.037 2.274 8.942 3.525 13.52 1.999 11.17-6.669 6.76-28.857 11.002-34.304z" stroke="#991b33" stroke-width="1.526"/>
                <path d="M565.245 211.68c3.8-7.111 10.546-23.961 14.283-27.987 3.502-3.131 12.223-2.762 14.909.778 0 0 5.585-5.753 7.844-7.493 1.343.458 2.167 1.74 2.167 1.74-2.274 2.472-5.372 3.861-6.898 8.439 2.274 3.037 3.525 8.942 1.999 13.52-6.669 11.17-28.857 6.76-34.304 11.002z" stroke="#991b33" stroke-width="1.526"/>
                <path stroke-linejoin="round" d="M317.194 321.162c-.299 2.316 5.23 3.325 10.897 3.353 5.668.029 11.477-.923 11.738-2.53.075-2.877-4.949-.43-10.664-.478-5.715-.046-10.478-2.287-11.971-.345z" fill-rule="evenodd" stroke="#fc0" stroke-width="NaN"/>
                <path stroke-linejoin="round" d="M317.651 327.586c.073 2.167 5.565 2.689 10.421 2.838 4.857.15 9.75-.821 10.645-2.39-.861-2.466-6.257-.41-10.647-.299-4.389.113-9.263-2.167-10.42-.15z" fill-rule="evenodd" stroke="#fc0" stroke-width="NaN"/>
                <path stroke-linejoin="round" d="M319.223 333.339c-.374 1.644 4.464 2.82 8.918 2.848s10.767-1.691 10.804-3.446c-.261-1.381-6.499.485-10.691.626-4.193.14-9.031-1.521-9.031-.027z" fill-rule="evenodd" stroke="#fc0" stroke-width="NaN"/>
                <path stroke-linejoin="round" d="M318.689 339.245c.374 1.605 5.866 2.149 10.693 1.784 4.828-.363 9.739-1.859 10.149-3.577-.223-1.083-5.77.841-10.365 1.074s-10.552-.552-10.478.719z" fill-rule="evenodd" stroke="#fc0" stroke-width="NaN"/>
            </g>
        </g>
    </g>
</svg>
