<?xml version="1.0" encoding="UTF-8" standalone="no"?>
<svg
   xmlns:dc="http://purl.org/dc/elements/1.1/"
   xmlns:cc="http://creativecommons.org/ns#"
   xmlns:rdf="http://www.w3.org/1999/02/22-rdf-syntax-ns#"
   xmlns:svg="http://www.w3.org/2000/svg"
   xmlns="http://www.w3.org/2000/svg"
   xmlns:sodipodi="http://sodipodi.sourceforge.net/DTD/sodipodi-0.dtd"
   xmlns:inkscape="http://www.inkscape.org/namespaces/inkscape"
   height="480"
   width="640"
   viewBox="0 0 640 480"
   id="svg2"
   version="1.1"
   inkscape:version="0.91 r13725"
   sodipodi:docname="ls.svg">
  <metadata
     id="metadata25">
    <rdf:RDF>
      <cc:Work
         rdf:about="">
        <dc:format>image/svg+xml</dc:format>
        <dc:type
           rdf:resource="http://purl.org/dc/dcmitype/StillImage" />
      </cc:Work>
    </rdf:RDF>
  </metadata>
  <sodipodi:namedview
     pagecolor="#ffffff"
     bordercolor="#666666"
     borderopacity="1"
     objecttolerance="10"
     gridtolerance="10"
     guidetolerance="10"
     inkscape:pageopacity="0"
     inkscape:pageshadow="2"
     inkscape:window-width="1385"
     inkscape:window-height="855"
     id="namedview23"
     showgrid="false"
     inkscape:zoom="0.484375"
     inkscape:cx="16.516129"
     inkscape:cy="240"
     inkscape:window-x="55"
     inkscape:window-y="1"
     inkscape:window-maximized="1"
     inkscape:current-layer="svg2" />
  <defs
     id="defs4">
    <clipPath
       id="a">
      <path
         d="M25-60h400v300H25z"
         id="path7" />
    </clipPath>
  </defs>
  <path
     style="fill:#ffffff"
     inkscape:connector-curvature="0"
     id="path11"
     d="m 0,0 640,0 0,480 -640,0 z" />
  <path
     style="fill:#009543"
     inkscape:connector-curvature="0"
     id="path13"
     d="m 0,336 640,0 0,144 -640,0 z" />
  <path
     style="fill:#00209f"
     inkscape:connector-curvature="0"
     id="path15"
     d="m 0,0 640,0 0,144 -640,0 z" />
  <path
     style="stroke:#000000;stroke-width:1.60082567"
     inkscape:connector-curvature="0"
     id="path17"
     d="m 319.6224,152.9104 c -2.736,0.0592 -5.4048,3.088 -5.4048,3.088 l 0.2368,32.3744 -10.2208,10.7072 8.272,0 -0.0688,18.5632 -48.9456,65.9088 -7.2352,-2.5008 -12.648,26.9776 c 0,0 31.28,19.5856 76.6816,19.0512 49.8288,-0.592 76.9024,-19.9552 76.9024,-19.9552 l -13.0688,-26.6304 -6.4,2.784 -49.5728,-65.568 -0.0688,-19.1168 8.272,0 -11.2592,-10.576 0.0672,-32.2544 c 0,0 -2.8032,-2.912 -5.5392,-2.8528 z" />
  <path
     style="fill:none;stroke:#000000;stroke-width:8.00049019"
     inkscape:connector-curvature="0"
     id="path19"
     d="m 336.688,230.416 -33.8448,0 c 0,0 -12.2848,-25.8832 -10.2928,-43.9776 2.0272,-18.4256 12.5568,-27.1408 26.5568,-27.296 16.552,-0.184 25.2272,8.112 27.848,26.5584 2.5968,18.2784 -10.2688,44.7136 -10.2688,44.7136 z" />
  <path
     style="fill:#ffffff"
     inkscape:connector-curvature="0"
     id="path21"
     d="m 260.4608,292.112 c -0.5536,0.736 -4.6112,8.8512 -4.6112,8.8512 l 7.008,-1.4752 -2.3968,-7.376 z m 4.0576,10.512 -7.376,2.3968 8.8512,3.504 -1.4752,-5.9008 z m 3.3184,-10.328 3.6896,10.88 9.0368,-2.5808 -2.3984,-5.1648 -10.328,-3.136 z m 5.7184,14.7536 1.2896,4.4256 11.9888,2.952 -4.7952,-10.144 -8.4832,2.7664 z m 13.2768,-9.2208 4.2432,10.144 9.0368,-3.504 -2.952,-4.4272 -10.3264,-2.2128 z m 5.9024,13.832 1.4752,3.872 14.016,2.0288 -5.9008,-9.2208 -9.5904,3.32 z m 13.4624,-10.8816 5.1648,9.0368 13.0928,-4.7952 -1.4752,-3.504 -16.7824,-0.736 z m 7.5616,12.3568 2.7664,4.7952 16.2288,-0.5536 -6.0864,-9.0368 -12.9088,4.7952 z m 17.152,-11.9872 4.4256,7.56 10.328,-4.9792 -2.768,-4.0576 -11.9856,1.4768 z m 16.9664,5.7152 -10.328,5.1648 2.7664,4.4256 13.832,-2.2128 -6.272,-7.376 z m 3.32,-7.9296 5.3472,6.64 8.6688,-6.824 -2.952,-3.136 -11.064,3.32 z m 15.8592,3.504 -8.2992,6.272 2.2144,3.872 11.4336,-2.9504 -5.3488,-7.1936 z m 11.4352,-13.0944 2.0272,2.952 -5.7168,8.4832 -5.9008,-7.5616 9.5904,-3.872 z m 3.872,7.3776 3.504,7.008 -7.008,2.3984 -0.5536,-3.32 4.0576,-6.0864 z" />
</svg>
