<svg xmlns="http://www.w3.org/2000/svg" height="480" width="640" version="1"><g fill-rule="evenodd"><rect height="480" width="640" fill="#fff"/><g><path d="M639.472 478.903l.537-478.902-640.003 479.98 639.466-1.078z" fill="#3662a2"/><path d="M639.472 479.739l-.322-322.089-428.314 322.331 428.636-.242z" fill="#38a100"/></g><g fill="#826006"><path d="M142.126 44.409c1.896.622 9.755 21.821 10.089 39.053 2.501 9.156 5.047 9.812 4.29 21.803-1.167 6.443-3.782 5.404-3.281 10.996-.286 3.368 6.289 5.155 10.663 6.701 2.86.596 3.35 1.504 6.515.852 4.175-1.502 12.646-19.04 12.646-19.04-8.456-26.232 11.69-35.717 23.574-28.156 11.885 7.561 15.506 32.168-12.668 34.678-4.58 6.005-6.198 7.359-10.283 14.414-1.336 3.127-1.795 4.964-.068 5.686 29.389 15.154 48.302 49.385 52.233 74.881 1.414 5.613.706 10.022-1.415 13.951-4.4 7.377-12.101 7.296-17.444 6.254-3.064-1.443-12.04-12.976-12.275-19.682-1.061-7.456-2.51-14.693-11.822-24.675-6.364-5.251-15.785-4.039-19.322.692-5.029 6.895-3.926 13.43-1.765 19.483 9.744 17.479 14.463 31.145 24.208 48.624 2.554 7.295.511 14.111-1.179 15.514-2.279 2.285-4.778 4.088-8.118 3.246-1.572-.721-6.232-3.968-7.689-2.164-1.539 2.405 1.013 4.69 1.484 6.134 6.443 10.583 13.491 26.93 18.25 38.191 4.95 8.78-1.087 14.354-6.274 7.619l-25.629-51.003c-2.906-6.439-7.162-13.388-10.875-16.935-2.548-2.552-11.642-4.252-13.853-3.741-1.794.101-1.924 1.394-1.885 3.367l-.581 73.772c.224 4.306-3.6 6.83-5.209 6.545-2.987-95.571-2.657-194.129 7.686-287.057z"/><path d="M142.1 44.27c-1.914.622-1.25 1.244-2.323 2.886-1.851 1.885-1.568 4.451-1.905 7.697 0 0-7.279 5.709-7.616 10.953-2.524 9.155 2.38 29.456 2.38 29.456 1.178 6.443.505 12.206 0 17.798-.476 3.368-1.904 5.773-4.998 7.697-4.602 3.127-9.679 2.646-14.519 2.406 0 0-3.808-.963-4.284-1.443-.476-.481-10.949-25.016-10.949-25.016 7.458-.962 13.963-.961 21.422-1.924l-44.51-29.105-2.38 53.878c4.125-5.13 9.204-12.186 13.329-17.317 4.127 7.055 6.586 14.832 10.711 21.887 1.349 3.127.793 6.495-.952 7.216-29.673 15.152-47.922 46.663-51.888 72.159-1.428 5.612-.714 10.022 1.428 13.951 4.443 7.376 12.218 7.295 17.613 6.254 3.094-1.443 6.903-7.095 7.26-12.507 1.071-7.456 2.38-22.129 11.782-32.111 6.426-5.251 17.138-3.047 20.709 1.684 5.078 6.895 4.324 13.91 2.142 19.964-9.839 17.479-19.2 34.356-29.038 51.834-2.578 7.296-.516 14.111 1.19 15.514 2.301 2.286 6.387 3.607 9.759 2.766 1.587-.722 3.649-1.203 4.76 0 .834 1.684-.952 2.887-1.428 4.33-6.506 10.583-13.012 21.166-19.517 31.749-4.998 8.78 3.332 15.394 8.569 8.66 9.997-19.243 18.478-34.914 28.476-54.155 3.274-6.439 5.539-9.816 12.348-12.343 2.063-.681 5.977-1.361 8.208-.851 1.812.102 1.943 1.394 1.904 3.368l.586 73.772c-.227 4.306 2.914 6.23 4.54 5.943 3.015-95.571 4.178-191.482 7.193-287.057z"/></g></g></svg>