<?xml version="1.0" encoding="UTF-8" standalone="no"?>
<!-- Created with Sodipodi ("http://www.sodipodi.com/") -->
<svg id="svg378" xmlns:rdf="http://www.w3.org/1999/02/22-rdf-syntax-ns#" xmlns="http://www.w3.org/2000/svg" height="480" width="640" version="1" y="0" x="0" xmlns:cc="http://creativecommons.org/ns#" xmlns:dc="http://purl.org/dc/elements/1.1/">
 <metadata id="metadata3349">
  <rdf:RDF>
   <cc:Work rdf:about="">
    <dc:format>image/svg+xml</dc:format>
    <dc:type rdf:resource="http://purl.org/dc/dcmitype/StillImage"/>
   </cc:Work>
  </rdf:RDF>
 </metadata>
 <g id="flag" fill-rule="evenodd">
  <rect id="rect628" height="480" width="640" y="0" x="3.2917e-9" stroke-width="1pt" fill="#fff"/>
  <g id="g3396" stroke-width="1.0387pt" transform="matrix(1.3415 0 0 1.0076 -3.9116 -35.91)">
   <path id="path624" d="m479.6 510.93 0.4-475.29-477.08 476.36 476.68-1.07z" fill="#3662a2"/>
   <path id="path575" d="m479.6 511.76-0.24-319.66-319.28 319.9 319.52-0.24z" fill="#38a100"/>
  </g>
  <g id="g3400" fill="#826006" transform="matrix(1.3302 0 0 1.3302 -14.159 -67.827)">
   <path id="path749" d="m117.49 84.375c1.425 0.46755 7.3333 16.404 7.5842 29.359 1.8798 6.883 3.7944 7.3765 3.2248 16.391-0.87731 4.8439-2.8429 4.0627-2.4668 8.2667-0.21481 2.5319 4.7278 3.8756 8.0158 5.0374 2.15 0.44769 2.5184 1.1308 4.8974 0.64057 3.1383-1.1289 9.5065-14.314 9.5065-14.314-6.3573-19.72 8.7879-26.851 17.722-21.167 8.9344 5.6844 11.657 24.183-9.5233 26.07-3.4428 4.5143-4.6594 5.5322-7.7306 10.836-1.0044 2.3507-1.3495 3.7318-0.0509 4.2743 22.094 11.392 36.312 37.126 39.267 56.293 1.0631 4.2195 0.5309 7.5345-1.0637 10.488-3.308 5.5458-9.0969 5.4851-13.114 4.7013-2.3036-1.085-9.0511-9.7549-9.2279-14.796-0.79731-5.6051-1.8868-11.046-8.8872-18.55-4.7846-3.9479-11.867-3.0364-14.526 0.51994-3.7808 5.1838-2.9512 10.096-1.3269 14.647 7.3255 13.14 10.873 23.414 18.199 36.554 1.9198 5.4845 0.38382 10.608-0.88634 11.663-1.7133 1.7178-3.5918 3.0732-6.1031 2.4403-1.1818-0.54186-4.6852-2.9828-5.7806-1.6269-1.1573 1.8082 0.76119 3.526 1.1153 4.611 4.8439 7.9558 10.142 20.245 13.72 28.711 3.7215 6.6004-0.81732 10.791-4.7168 5.7277-7.4429-14.465-11.823-23.876-19.267-38.342-2.1849-4.8407-5.3838-10.065-8.1757-12.731-1.9152-1.9185-8.7518-3.1964-10.414-2.8126-1.3488 0.0761-1.4463 1.0483-1.4172 2.5313-0.35479 18.444-0.0819 37.016-0.43672 55.459 0.16837 3.237-2.7061 5.1348-3.9163 4.92-2.2455-71.847-1.9972-145.94 5.778-215.8z" stroke-width=".99519pt"/>
   <path id="path751" d="m117.47 84.271c-1.4392 0.46762-0.93988 0.93511-1.7462 2.1699-1.3914 1.4174-1.1786 3.3461-1.4321 5.7864 0 0-5.4722 4.2921-5.7257 8.2342-1.8978 6.8824 1.7895 22.144 1.7895 22.144 0.88569 4.8439 0.37995 9.1763 0 13.38-0.35802 2.532-1.4314 4.3401-3.7576 5.7864-3.4596 2.3507-7.2765 1.9894-10.915 1.8088 0 0-2.8629-0.72378-3.2209-1.085-0.35802-0.36188-8.2312-18.806-8.2312-18.806 5.607-0.72314 10.497-0.72249 16.104-1.4463-11.094-7.2333-22.367-14.647-33.461-21.88-0.83506 13.14-0.95433 27.364-1.7893 40.504 3.1013-3.8569 6.9189-9.1608 10.02-13.018 3.1022 5.3038 4.951 11.15 8.0525 16.454 1.0141 2.3507 0.59605 4.8826-0.71539 5.4251-22.307 11.391-36.026 35.08-39.008 54.247-1.0736 4.2188-0.53684 7.5345 1.0736 10.488 3.34 5.5451 9.1852 5.4845 13.241 4.7013 2.3262-1.085 5.1891-5.3335 5.4575-9.4027 0.80525-5.6051 1.789-16.636 8.8571-24.14 4.831-3.9479 12.884-2.2907 15.568 1.2656 3.8176 5.1832 3.2506 10.457 1.6101 15.008-7.3965 13.14-14.434 25.828-21.83 38.967-1.9384 5.4851-0.38756 10.608 0.89492 11.663 1.7301 1.7185 4.8013 2.7119 7.3365 2.0797 1.1928-0.54251 2.7435-0.9044 3.5783 0 0.62702 1.2663-0.71539 2.17-1.0734 3.2551-4.891 7.9558-9.782 15.912-14.672 23.868-3.7577 6.6004 2.5048 11.573 6.4419 6.5101 7.5152-14.466 13.891-26.247 21.407-40.712 2.4616-4.8407 4.164-7.3797 9.2827-9.2788 1.5508-0.5122 4.4936-1.0231 6.1708-0.63992 1.3624 0.0768 1.4605 1.0482 1.4314 2.5319 0.35802 18.443 0.0826 37.015 0.44059 55.459-0.1703 3.237 2.1907 4.6833 3.4131 4.4678 2.2668-71.847 3.1409-143.95 5.4077-215.8z" stroke-width="1pt"/>
  </g>
 </g>
</svg>
