<svg xmlns="http://www.w3.org/2000/svg" height="480" width="640"><g><g fill-rule="evenodd" transform="scale(1.25 .938)"><rect height="512" width="170.67" fill="#00319c"/><rect height="512" width="170.67" x="170.67" fill="#ffde00"/><rect height="512" width="170.67" x="341.33" fill="#de2110"/></g><g transform="matrix(1.23 0 0 1.23 4.069 -75.14)"><path d="M289.61 321.48s18.628 26.877 19.724 28.458c1.096 1.581 2.192 3.162.537 4.209-1.655 1.047-1.117 5.256-.022 6.837 2.192 3.162 4.942 3.696 6.597 2.649l14.89-9.424c1.655-1.047 2.213-3.675.022-6.837-1.258-1.594-4.942-3.696-6.597-2.649-1.654 1.047-2.75-.534-3.846-2.115-1.096-1.581-17.533-25.296-19.724-28.458" fill-rule="evenodd" stroke="#000" stroke-width=".445pt" fill="#ff1900"/><path d="M177.17 696.26c0 24.461-9.518 44.291-21.26 44.291-11.741 0-21.26-19.83-21.26-44.291s9.518-44.291 21.26-44.291c11.741 0 21.26 19.83 21.26 44.291z" fill-rule="evenodd" transform="matrix(.429 -.345 .361 .41 -29.658 77.264)" stroke="#000" stroke-width="2.54" fill="#a77b3b"/><path d="M209.61 309.91l-17.413 29.803c-.968 1.656-1.935 3.312-3.667 2.387-1.733-.925-5.401 1.463-6.368 3.118-1.935 3.312-1.17 5.891.563 6.816 1.733.924 13.862 7.395 15.594 8.319 1.733.925 4.433.193 6.368-3.118.905-1.799 1.17-5.891-.563-6.816-1.733-.924-.765-2.58.202-4.236.967-1.656 15.478-26.492 17.413-29.803" fill-rule="evenodd" stroke="#000" stroke-width=".445pt" fill="#ff1900"/><path d="M265.87 289.13h-15.876c-.525.502-5.04 28.935-9.922 39.822-5.954 13.274-23.783 24.987-23.783 24.987s10.682 3.235 13.861 5.353c.79-.222 17.83-3.792 19.814-24.652 1.985 20.86-11.876 30.341-11.876 30.341s19.845 5.689 19.845 18.963c0-13.274 19.845-18.963 19.845-18.963s-9.954-9.481-11.938-30.341c3.969 20.86 19.085 24.43 19.876 24.652 3.178-2.118 13.861-5.353 13.861-5.353s-17.83-11.713-23.783-24.987c-4.883-10.887-9.397-39.32-9.922-39.822z" fill-rule="evenodd" stroke="#000" stroke-width="1.391" fill="#a77b3b"/><path d="M198.37 194.3l29.768 9.481c9.922 0 19.845-9.471 19.845-18.953.33-21.093-7.938-28.454-9.923-28.454l3.969-3.793-5.954-5.689s1.99-9.838 21.829-9.472c19.838.367 19.845 9.482 19.845 18.963 0 9.482-9.922 9.482-9.922 28.445 0 9.482 9.922 18.963 19.845 18.963l29.768-9.481v94.815h-119.07v-94.825z" fill-rule="evenodd" stroke="#000" stroke-width="1.391" fill="#a77b3b"/><g stroke="#000" fill="none"><path d="M244.159 198.053l1.992 5.686 1.992-5.686 1.992 5.686 3.983-5.686 1.939 6.007 2.044-6.007 2.938 6.007 3.037-6.007 1.992 5.686 1.992-5.686"/><path d="M251.918 177.171l-3.968 20.852"/><path d="M253.906 177.171v20.852"/><path d="M257.901 177.249v20.859"/><path d="M261.841 177.171l1.984 20.852"/><path d="M265.843 177.249l1.984 20.859"/></g><g stroke="#000" stroke-width="2.54"><path d="M178.545 137.362c-19.842 9.479-19.842 28.435-19.842 37.913.701 8.623 0 189.567 0 189.567s1.291-10.712 9.922-18.957l9.921-9.478 9.922-9.479c7.253-6.299 9.921-18.957 9.921-28.435v-132.696s0-9.479-19.842-28.435z" fill-rule="evenodd" fill="#a77b3b"/><path d="M198.391 175.252c-.234 0-9.921-9.479-9.921-9.479l-9.922 9.479-9.921-9.479-9.922 9.479" fill="none"/><path d="M198.391 184.925c-.234 0-9.921 9.479-9.921 9.479l-9.922-9.479-9.921 9.479-9.922-9.479" fill="none"/><path d="M198.391 213.177c-.234 0-9.921-9.479-9.921-9.479l-9.922 9.479-9.921-9.479-9.922 9.479" fill="none"/><path d="M188.351 165.724l.116 161.141" fill="none"/><path d="M178.544 175.212l.116 160.773" fill="none"/><path d="M168.62 165.98l.116 180.186" fill="none"/></g><g stroke="#000" stroke-width="2.54"><path d="M337.263 137.362c19.842 9.479 19.842 28.435 19.842 37.913-.701 8.623 0 189.567 0 189.567s-1.291-10.712-9.922-18.957l-9.921-9.478-9.922-9.479c-7.253-6.299-9.921-18.957-9.921-28.435v-132.696s0-9.479 19.842-28.435z" fill-rule="evenodd" fill="#a77b3b"/><path d="M317.417 175.252c.234 0 9.921-9.479 9.921-9.479l9.922 9.479 9.921-9.479 9.922 9.479" fill="none"/><path d="M317.417 184.925c.234 0 9.921 9.479 9.921 9.479l9.922-9.479 9.921 9.479 9.922-9.479" fill="none"/><path d="M317.417 213.177c.234 0 9.921-9.479 9.921-9.479l9.922 9.479 9.921-9.479 9.922 9.479" fill="none"/><path d="M327.457 165.724l-.116 161.141" fill="none"/><path d="M337.264 175.212l-.116 160.773" fill="none"/><path d="M347.183 165.98l-.116 180.186" fill="none"/></g><path d="M177.17 696.26c0 24.461-9.518 44.291-21.26 44.291-11.741 0-21.26-19.83-21.26-44.291s9.518-44.291 21.26-44.291c11.741 0 21.26 19.83 21.26 44.291z" fill-rule="evenodd" transform="matrix(.517 .206 -.215 .494 290.24 -73.211)" stroke="#000" stroke-width="2.54" fill="#a77b3b"/><g transform="matrix(.56 0 0 .535 9.841 -55.998)"><rect fill-rule="evenodd" height="106.3" width="212.6" y="485.43" x="336.61" fill="#f00"/><path d="M336.611 591.731h212.6v53.15c0 35.433-53.15 35.433-106.3 70.866-53.15-35.433-106.3-35.433-106.3-70.866v-53.15z" fill-rule="evenodd" fill="#564dff"/><path d="M336.61 485.43h212.6v159.45c0 35.433-53.15 35.433-106.3 70.866-53.149-35.433-106.3-35.433-106.3-70.866v-159.45z" transform="translate(.002)" stroke="#ff0" stroke-width="2.032" fill="none"/><path d="M385.59 129.9s-50.618 55.447-50.618 108.6c0 53.149 53.149 70.866 53.149 70.866s-17.717 0-17.717 70.866c0 35.433 53.15 17.717 53.15 35.433 0 17.717-.751 60.578 0 88.583l-35.433 17.716c0 8.859 26.575 53.15 53.15 53.15 26.574 0 53.149-44.291 53.149-53.15l-35.433-17.716v-88.583c0-17.716 53.15 0 53.15-35.433 0-70.866-17.717-70.866-17.717-70.866s53.15-17.717 53.15-70.866l-50.619-108.6c0-.001 28.473 73.163 28.473 108.6 0 17.717-13.287 53.149-48.72 53.149 0 0-8.961-17.716-17.717 0 0 0-10.189-17.716-17.716 0-2.598 6.115-7.207-17.716-17.717 0-4.465 4.697-7.984-17.716-17.717 0-17.716 0-53.148-17.716-53.149-53.149 0-35.433 32.902-108.6 32.902-108.6z" fill-rule="evenodd" transform="matrix(.7 0 0 .47 134.02 431.52)" stroke="#000" stroke-width="2.448" fill="#ff0"/><path d="M382.68 248.03c-3.543 3.543 4.581 61.274 7.087 63.779 3.543 3.543 24.803 3.543 28.346 0 2.525-2.525 0-56.693-3.543-60.236-3.543-3.544-29.384-6.049-31.89-3.543z" fill-rule="evenodd" transform="matrix(.7 0 0 .47 136.69 524.92)" stroke="#000" stroke-width="2.448" fill="#ff0"/><path d="M382.68 248.03c-3.543 3.543 4.581 61.274 7.087 63.779 3.543 3.543 24.803 3.543 28.346 0 2.525-2.525 0-56.693-3.543-60.236-3.543-3.544-29.384-6.049-31.89-3.543z" fill-rule="evenodd" transform="matrix(-.7 0 0 .47 749.14 524.92)" stroke="#000" stroke-width="2.448" fill="#ff0"/><path d="M414.57 228.54c0 8.806-7.139 15.945-15.945 15.945-8.806 0-15.945-7.139-15.945-15.945 0-8.806 7.139-15.945 15.945-15.945 8.806 0 15.945 7.139 15.945 15.945z" fill-rule="evenodd" transform="matrix(.805 0 0 .585 96.528 497.79)" stroke="#000" stroke-width="2.448" fill="#ff0"/><path d="M414.57 228.54c0 8.806-7.139 15.945-15.945 15.945-8.806 0-15.945-7.139-15.945-15.945 0-8.806 7.139-15.945 15.945-15.945 8.806 0 15.945 7.139 15.945 15.945z" fill-rule="evenodd" transform="matrix(.805 0 0 .585 147.84 497.79)" stroke="#000" stroke-width="2.448" fill="#ff0"/><path d="M465.242 685.769c0 2.297-2.776 4.16-6.201 4.16s-6.201-1.862-6.201-4.16c0-2.297 2.776-4.16 6.201-4.16s6.201 1.862 6.201 4.16z" fill-rule="evenodd"/><path d="M432.992 685.769c0 2.297-2.776 4.16-6.201 4.16s-6.201-1.862-6.201-4.16c0-2.297 2.776-4.16 6.201-4.16s6.201 1.862 6.201 4.16z" fill-rule="evenodd"/><polygon fill-rule="evenodd" transform="matrix(.976 0 0 .976 14.26 16.248)" stroke="#000" points="439.37 549.92 431.59 539.66 418.82 541.41 420.58 528.65 410.32 520.87 420.58 513.08 418.82 500.32 431.59 502.08 439.37 491.81 447.15 502.08 459.92 500.32 458.16 513.08 468.42 520.87 458.16 528.65 459.92 541.41 447.15 539.66" stroke-width=".813pt" fill="#ff0"/><path d="M496.06 591.73l21.26 10.63 21.26-10.63-21.26-10.63-21.26 10.63z" fill-rule="evenodd" stroke="#000" stroke-width=".813pt" fill="#ff0"/><path d="M496.06 591.73l21.26 10.63 21.26-10.63-21.26-10.63-21.26 10.63z" fill-rule="evenodd" transform="translate(-152.36)" stroke="#000" stroke-width=".813pt" fill="#ff0"/><path d="M535.04 659.06c-3.543-7.086-14.173-10.63-21.259-10.63-7.087 0-14.174 0-21.26 10.63 0-14.173 10.502-21.26 21.26-21.26 10.756 0 21.259 10.503 21.259 21.26z" fill-rule="evenodd" transform="matrix(.867 -.498 .498 .867 -263.15 350.11)" stroke="#000" stroke-width=".813pt" fill="#ff0"/><path d="M386.22 651.97c0 3.914-3.173 7.087-7.087 7.087s-7.087-3.173-7.087-7.087 3.173-7.087 7.087-7.087 7.087 3.173 7.087 7.087z" fill-rule="evenodd" transform="translate(-3.543 -17.717)" stroke="#000" stroke-width=".813pt" fill="#ff0"/><path d="M386.22 651.97c0 3.914-3.173 7.087-7.087 7.087s-7.087-3.173-7.087-7.087 3.173-7.087 7.087-7.087 7.087 3.173 7.087 7.087z" fill-rule="evenodd" transform="translate(-10.63 7.086)" stroke="#000" stroke-width=".813pt" fill="#ff0"/><path d="M386.22 651.97c0 3.914-3.173 7.087-7.087 7.087s-7.087-3.173-7.087-7.087 3.173-7.087 7.087-7.087 7.087 3.173 7.087 7.087z" fill-rule="evenodd" transform="translate(-14.173 -7.087)" stroke="#000" stroke-width=".813pt" fill="#ff0"/><path d="M386.22 651.97c0 3.914-3.173 7.087-7.087 7.087s-7.087-3.173-7.087-7.087 3.173-7.087 7.087-7.087 7.087 3.173 7.087 7.087z" fill-rule="evenodd" transform="translate(3.543 7.086)" stroke="#000" stroke-width=".813pt" fill="#ff0"/><path d="M386.22 651.97c0 3.914-3.173 7.087-7.087 7.087s-7.087-3.173-7.087-7.087 3.173-7.087 7.087-7.087 7.087 3.173 7.087 7.087z" fill-rule="evenodd" transform="translate(7.087 -7.087)" stroke="#000" stroke-width=".813pt" fill="#ff0"/><path d="M386.22 651.97c0 3.914-3.173 7.087-7.087 7.087s-7.087-3.173-7.087-7.087 3.173-7.087 7.087-7.087 7.087 3.173 7.087 7.087z" fill-rule="evenodd" transform="translate(-3.543 -3.543)" stroke="#000" stroke-width=".813pt" fill="#ff0"/></g><g fill-rule="evenodd"><path d="M238.685 158.927c-10.014 0-11.338 1.581-15.874 3.161 0-4.362 11.151-9.482 21.165-9.482 0 3.16-2.646 6.322-5.292 6.321z" fill="#da4500"/><path d="M253.904 148.734c0 2.094-1.777 3.791-3.968 3.791s-3.968-1.697-3.968-3.791 1.777-3.791 3.968-3.791 3.968 1.697 3.968 3.791z" fill="#cac9c7"/><path d="M361.42 357.87v10.63h17.717v53.15h10.63v-53.15h17.716v-10.63h-17.716v-14.173h-10.63v14.173h-17.717z" stroke="#000" stroke-width=".813pt" fill="#ff0" transform="matrix(.56 0 0 .535 9.841 -55.998)"/><path d="M244.103 152.495c-11.688 0-18.528 1.052-23.822 3.159 0-5.814 6.84-12.639 18.528-12.639 2.647 0 5.294 6.32 5.294 9.48z" fill="#da4500"/></g><g fill-rule="evenodd"><path d="M67.323 612.99c-14.173-14.17-16.634-21.36 3.543-10.1l283.75 247.5-3.366 6.968-283.93-244.37z" transform="matrix(.315 .241 -.114 .193 189.674 118.958)" stroke="#000" stroke-width=".711" fill="#008500"/><path d="M182.059 329.621c.647-8.575-15.078-17.882-15.703-17.28-.625.601.943 5.598 3.923 8.206-5.712-2.948-11.697-4.768-11.826-3.493-.471 1.719 8.873 5.842 9.646 7.43l-6.748 2.107c.124 1.134 19.679 11.034 20.708 3.031z" fill="#008f00"/><path d="M166.32 304.558c.647-8.575-15.078-17.882-15.703-17.28-.625.601.943 5.598 3.923 8.206-5.712-2.948-11.697-4.768-11.826-3.493-.471 1.719 8.873 5.842 9.646 7.43l-6.748 2.107c.124 1.134 19.679 11.034 20.708 3.031z" fill="#008f00"/><path d="M154.276 281.803c.647-8.575-15.078-17.882-15.703-17.28-.625.601.943 5.598 3.923 8.206-5.712-2.948-11.697-4.768-11.826-3.493-.471 1.719 8.873 5.842 9.646 7.43l-6.748 2.107c.124 1.134 19.679 11.034 20.708 3.031z" fill="#008f00"/><path d="M142.369 257.147c.647-8.575-15.078-17.882-15.703-17.28-.625.601.943 5.598 3.923 8.206-5.712-2.948-11.697-4.768-11.826-3.493-.471 1.719 8.873 5.842 9.646 7.43l-6.748 2.107c.124 1.134 19.679 11.034 20.708 3.031z" fill="#008f00"/><path d="M146.945 256.056c7.616-4.594 6.103-22.236 5.224-22.36-.879-.124-4.159 4.051-4.584 7.896-.914-6.151-2.942-11.843-4.094-11.185-1.73.658.356 10.306-.523 11.843l-5.794-3.948c-.882.769 2.41 21.713 9.771 17.753z" fill="#008f00"/><path d="M157.884 277.888c8.798-1.896 13.543-19.021 12.757-19.418-.786-.398-5.344 2.49-7.091 5.98 1.29-6.094 1.367-12.113.05-11.861-1.863.067-3.271 9.834-4.639 11.004-1.102.443-2.986-6.021-4.087-5.578-1.102.443-5.324 21.252 3.01 19.872z" fill="#008f00"/><path d="M170.689 299.611c8.061-3.962 8.255-21.637 7.388-21.83-.867-.194-4.551 3.698-5.348 7.49-.319-6.194-1.796-12.02-3.012-11.457-1.793.516-.642 10.283-1.669 11.743l-5.412-4.392c-.957.695.309 21.798 8.053 18.447z" fill="#008f00"/><path d="M185.587 328.524c8.404-3.165 10.41-20.734 9.57-21.01-.84-.276-4.895 3.241-6.075 6.937.319-6.194-.549-12.133-1.813-11.691-1.832.341-1.691 10.17-2.861 11.523l-4.919-4.892c-1.02.599-1.929 21.719 6.098 19.131z" fill="#008f00"/></g><path d="M209.06 775.98c0 7.828-10.312 14.173-23.031 14.173-12.72 0-23.031-6.346-23.031-14.173 0-7.828 10.312-14.173 23.031-14.173 12.72 0 23.031 6.346 23.031 14.173z" fill-rule="evenodd" transform="matrix(.489 .261 -.273 .467 313.35 -58.253)" stroke="#000" stroke-width=".813pt" fill="#ff1900"/><g stroke="#000" fill-rule="evenodd" fill="#ff0" transform="matrix(.405 .128 -.148 .383 363.63 58.046)"><path d="M155.91 414.57v-7.087h7.086v-7.086h7.087v7.086h7.086v7.087h-7.086v17.716h-7.087v-17.716h-7.086z"/><rect height="205.51" width="7.087" y="474.8" x="162.99"/><rect height="56.693" width="14.173" y="676.77" x="159.45"/><path d="M155.91 439.37h21.259c14.174 0-3.543 38.976-3.543 38.976h-14.173s-17.717-38.976-3.543-38.976z"/><path d="M173.62 434.06c0 2.935-3.173 5.315-7.087 5.315s-7.087-2.38-7.087-5.315 3.173-5.315 7.087-5.315 7.087 2.38 7.087 5.315z"/></g><path d="M209.06 775.98c0 7.828-10.312 14.173-23.031 14.173-12.72 0-23.031-6.346-23.031-14.173 0-7.828 10.312-14.173 23.031-14.173 12.72 0 23.031 6.346 23.031 14.173z" fill-rule="evenodd" transform="matrix(.467 -.296 .309 .446 -5.143 64.498)" stroke="#000" stroke-width=".813pt" fill="#ff1900"/></g></g></svg>