<svg xmlns="http://www.w3.org/2000/svg" height="480" width="640">
  <g>
    <g fill-rule="evenodd">
      <path fill="#00319c" d="M0 0h213.337v480h-213.337z"/>
      <path fill="#ffde00" d="M213.337 0h213.337v480h-213.337z"/>
      <path fill="#de2110" d="M426.662 0h213.338v480h-213.338z"/>
    </g>
    <g>
      <path d="M360.376 320.377l24.266 35.012c1.348 1.945 2.696 3.89.661 5.179-2.036 1.288-1.375 6.467-.027 8.412 2.696 3.89 6.08 4.547 8.116 3.259l18.319-11.594c2.036-1.288 2.723-4.522.027-8.412-1.547-1.961-6.08-4.547-8.116-3.259-2.035 1.288-3.383-.657-4.732-2.602-1.348-1.945-21.571-31.122-24.266-35.012" fill-rule="evenodd" stroke="#000" stroke-width="NaN" fill="#ff1900"/>
      <path d="M177.17 696.26c0 24.461-9.518 44.291-21.26 44.291-11.741 0-21.26-19.83-21.26-44.291s9.518-44.291 21.26-44.291c11.741 0 21.26 19.83 21.26 44.291z" fill-rule="evenodd" transform="matrix(.528 -.424 .444 .504 -32.41 19.895)" stroke="#000" stroke-width="2.54" fill="#a77b3b"/>
      <path d="M261.952 306.142l-21.423 36.667c-1.19 2.037-2.381 4.074-4.512 2.937-2.132-1.138-6.644 1.8-7.834 3.836-2.381 4.074-1.439 7.248.693 8.386 2.132 1.137 17.054 9.098 19.185 10.235 2.132 1.138 5.454.238 7.834-3.836 1.113-2.214 1.439-7.248-.693-8.386-2.132-1.137-.942-3.174.249-5.212l21.423-36.667" fill-rule="evenodd" stroke="#000" stroke-width="NaN" fill="#ff1900"/>
      <path d="M331.169 280.577h-19.532c-.646.618-6.2 35.599-12.207 48.993-7.325 16.331-29.26 30.742-29.26 30.742s13.142 3.98 17.053 6.586c.972-.273 21.936-4.666 24.377-30.329 2.442 25.664-14.611 37.329-14.611 37.329s24.415 6.999 24.415 23.33c0-16.331 24.415-23.33 24.415-23.33s-12.246-11.665-14.687-37.329c4.883 25.664 23.48 30.056 24.453 30.329 3.91-2.606 17.053-6.586 17.053-6.586s-21.936-14.411-29.26-30.742c-6.007-13.394-11.562-48.375-12.207-48.993z" fill-rule="evenodd" stroke="#000" stroke-width="1.71093" fill="#a77b3b"/>
      <path d="M248.124 163.907l36.624 11.665c12.207 0 24.415-11.652 24.415-23.318.406-25.951-9.767-35.007-12.208-35.007l4.883-4.666-7.325-6.999s2.449-12.103 26.856-11.653c24.407.451 24.415 11.665 24.415 23.33s-12.207 11.665-12.207 34.996c0 11.665 12.207 23.33 24.415 23.33l36.624-11.665v116.651h-146.492v-116.663z" fill-rule="evenodd" stroke="#000" stroke-width="1.71093" fill="#a77b3b"/>
      <g stroke="#000" fill="none">
        <path d="M304.342 168.26l2.446 6.988 2.446-6.988 2.446 6.988 4.891-6.988 2.382 7.383 2.51-7.383 3.608 7.383 3.729-7.383 2.446 6.988 2.446-6.988"/>
        <path d="M314.017 142.742l-4.882 25.646"/>
        <path d="M316.463 142.742v25.646"/>
        <path d="M321.341 142.742v25.646"/>
        <path d="M326.226 142.742l2.441 25.646"/>
        <path d="M331.111 142.742l2.441 25.646"/>
      </g>
      <g stroke="#000" stroke-width="2.54">
        <path d="M223.689 93.78c-24.413 11.658-24.413 34.972-24.413 46.63.862 10.605 0 233.149 0 233.149s1.589-13.174 12.207-23.315l12.206-11.657 12.207-11.658c8.923-7.747 12.206-23.315 12.206-34.973v-163.204s0-11.658-24.413-34.973z" fill-rule="evenodd" fill="#a77b3b"/>
        <path d="M248.107 140.413c-.287 0-12.206-11.658-12.206-11.658l-12.207 11.658-12.206-11.658-12.207 11.658" fill="none"/>
        <path d="M248.107 152.053c-.287 0-12.206 11.658-12.206 11.658l-12.207-11.658-12.206 11.658-12.207-11.658" fill="none"/>
        <path d="M248.107 187.041c-.287 0-12.206-11.658-12.206-11.658l-12.207 11.658-12.206-11.658-12.207 11.658" fill="none"/>
        <path d="M235.753 128.608l.143 198.132" fill="none"/>
        <path d="M223.689 140.199l.143 197.658" fill="none"/>
        <path d="M211.48 128.718l.143 221.482" fill="none"/>
      </g>
      <g stroke="#000" stroke-width="2.54">
        <path d="M419 93.78c24.413 11.658 24.413 34.972 24.413 46.63-.862 10.605 0 233.149 0 233.149s-1.589-13.174-12.207-23.315l-12.206-11.657-12.207-11.658c-8.923-7.747-12.206-23.315-12.206-34.973v-163.204s0-11.658 24.413-34.973z" fill-rule="evenodd" fill="#a77b3b"/>
        <path d="M394.582 140.413c.287 0 12.206-11.658 12.206-11.658l12.207 11.658 12.206-11.658 12.207 11.658" fill="none"/>
        <path d="M394.582 152.053c.287 0 12.206 11.658 12.206 11.658l12.207-11.658 12.206 11.658 12.207-11.658" fill="none"/>
        <path d="M394.582 187.041c.287 0 12.206-11.658 12.206-11.658l12.207 11.658 12.206-11.658 12.207 11.658" fill="none"/>
        <path d="M406.936 128.608l-.143 198.132" fill="none"/>
        <path d="M419 140.199l-.143 197.658" fill="none"/>
        <path d="M431.202 128.718l-.143 221.482" fill="none"/>
      </g>
      <path d="M177.17 696.26c0 24.461-9.518 44.291-21.26 44.291-11.741 0-21.26-19.83-21.26-44.291s9.518-44.291 21.26-44.291c11.741 0 21.26 19.83 21.26 44.291z" fill-rule="evenodd" transform="matrix(.636 .253 -.264 .608 361.064 -165.19)" stroke="#000" stroke-width="2.54" fill="#a77b3b"/>
      <g>
        <path fill-rule="evenodd" fill="#f00" d="M248.1 175.379h146.481v69.945h-146.481z"/>
        <path d="M248.101 245.324h146.481v34.973c0 23.315-36.62 23.315-73.241 46.63-36.62-23.315-73.241-23.315-73.241-46.63v-34.973z" fill-rule="evenodd" fill="#564dff"/>
        <path d="M336.61 485.43h212.6v159.45c0 35.433-53.15 35.433-106.3 70.866-53.149-35.433-106.3-35.433-106.3-70.866v-159.45z" transform="matrix(.689 0 0 .658 16.174 -144.018)" stroke="#ff0" stroke-width="2.032" fill="none"/>
        <path d="M385.59 129.9s-50.618 55.447-50.618 108.6c0 53.149 53.149 70.866 53.149 70.866s-17.717 0-17.717 70.866c0 35.433 53.15 17.717 53.15 35.433 0 17.717-.751 60.578 0 88.583l-35.433 17.716c0 8.859 26.575 53.15 53.15 53.15 26.574 0 53.149-44.291 53.149-53.15l-35.433-17.716v-88.583c0-17.716 53.15 0 53.15-35.433 0-70.866-17.717-70.866-17.717-70.866s53.15-17.717 53.15-70.866l-50.619-108.6c0-.001 28.473 73.163 28.473 108.6 0 17.717-13.287 53.149-48.72 53.149 0 0-8.961-17.716-17.717 0 0 0-10.189-17.716-17.716 0-2.598 6.115-7.207-17.716-17.717 0-4.465 4.697-7.984-17.716-17.717 0-17.716 0-53.148-17.716-53.149-53.149 0-35.433 32.902-108.6 32.902-108.6z" fill-rule="evenodd" transform="matrix(.482 0 0 .309 108.513 139.922)" stroke="#000" stroke-width="2.448" fill="#ff0"/>
        <path d="M382.68 248.03c-3.543 3.543 4.581 61.274 7.087 63.779 3.543 3.543 24.803 3.543 28.346 0 2.525-2.525 0-56.693-3.543-60.236-3.543-3.544-29.384-6.049-31.89-3.543z" fill-rule="evenodd" transform="matrix(.482 0 0 .309 110.352 201.379)" stroke="#000" stroke-width="2.448" fill="#ff0"/>
        <path d="M382.68 248.03c-3.543 3.543 4.581 61.274 7.087 63.779 3.543 3.543 24.803 3.543 28.346 0 2.525-2.525 0-56.693-3.543-60.236-3.543-3.544-29.384-6.049-31.89-3.543z" fill-rule="evenodd" transform="matrix(-.482 0 0 .309 532.33 201.379)" stroke="#000" stroke-width="2.448" fill="#ff0"/>
        <path d="M414.57 228.54c0 8.806-7.139 15.945-15.945 15.945-8.806 0-15.945-7.139-15.945-15.945 0-8.806 7.139-15.945 15.945-15.945 8.806 0 15.945 7.139 15.945 15.945z" fill-rule="evenodd" transform="matrix(.555 0 0 .385 82.681 183.528)" stroke="#000" stroke-width="2.448" fill="#ff0"/>
        <path d="M414.57 228.54c0 8.806-7.139 15.945-15.945 15.945-8.806 0-15.945-7.139-15.945-15.945 0-8.806 7.139-15.945 15.945-15.945 8.806 0 15.945 7.139 15.945 15.945z" fill-rule="evenodd" transform="matrix(.555 0 0 .385 118.035 183.528)" stroke="#000" stroke-width="2.448" fill="#ff0"/>
        <path d="M336.751 307.282c0 1.515-1.913 2.743-4.273 2.743-2.36 0-4.273-1.228-4.273-2.743s1.913-2.743 4.273-2.743c2.36 0 4.273 1.228 4.273 2.743z" fill-rule="evenodd"/>
        <path d="M314.531 307.282c0 1.515-1.913 2.743-4.273 2.743-2.36 0-4.273-1.228-4.273-2.743s1.913-2.743 4.273-2.743c2.36 0 4.273 1.228 4.273 2.743z" fill-rule="evenodd"/>
        <path fill-rule="evenodd" transform="matrix(.672 0 0 .642 25.998 -133.327)" stroke="#000" stroke-width=".813pt" fill="#ff0" d="M439.37 549.92l-7.78-10.26-12.77 1.75 1.76-12.76-10.26-7.78 10.26-7.79-1.76-12.76 12.77 1.76 7.78-10.27 7.78 10.27 12.77-1.76-1.76 12.76 10.26 7.79-10.26 7.78 1.76 12.76-12.77-1.75z"/>
        <path d="M496.06 591.73l21.26 10.63 21.26-10.63-21.26-10.63-21.26 10.63z" fill-rule="evenodd" transform="matrix(.689 0 0 .658 16.173 -144.018)" stroke="#000" stroke-width=".813pt" fill="#ff0"/>
        <path d="M496.06 591.73l21.26 10.63 21.26-10.63-21.26-10.63-21.26 10.63z" fill-rule="evenodd" transform="matrix(.689 0 0 .658 -88.803 -144.018)" stroke="#000" stroke-width=".813pt" fill="#ff0"/>
        <path d="M535.04 659.06c-3.543-7.086-14.173-10.63-21.259-10.63-7.087 0-14.174 0-21.26 10.63 0-14.173 10.502-21.26 21.26-21.26 10.756 0 21.259 10.503 21.259 21.26z" fill-rule="evenodd" transform="matrix(.597 -.328 .343 .57 -165.137 86.354)" stroke="#000" stroke-width=".813pt" fill="#ff0"/>
        <path d="M386.22 651.97c0 3.914-3.173 7.087-7.087 7.087s-7.087-3.173-7.087-7.087 3.173-7.087 7.087-7.087 7.087 3.173 7.087 7.087z" fill-rule="evenodd" transform="matrix(.689 0 0 .658 13.732 -155.676)" stroke="#000" stroke-width=".813pt" fill="#ff0"/>
        <path d="M386.22 651.97c0 3.914-3.173 7.087-7.087 7.087s-7.087-3.173-7.087-7.087 3.173-7.087 7.087-7.087 7.087 3.173 7.087 7.087z" fill-rule="evenodd" transform="matrix(.689 0 0 .658 8.849 -139.355)" stroke="#000" stroke-width=".813pt" fill="#ff0"/>
        <path d="M386.22 651.97c0 3.914-3.173 7.087-7.087 7.087s-7.087-3.173-7.087-7.087 3.173-7.087 7.087-7.087 7.087 3.173 7.087 7.087z" fill-rule="evenodd" transform="matrix(.689 0 0 .658 6.408 -148.681)" stroke="#000" stroke-width=".813pt" fill="#ff0"/>
        <path d="M386.22 651.97c0 3.914-3.173 7.087-7.087 7.087s-7.087-3.173-7.087-7.087 3.173-7.087 7.087-7.087 7.087 3.173 7.087 7.087z" fill-rule="evenodd" transform="matrix(.689 0 0 .658 18.614 -139.355)" stroke="#000" stroke-width=".813pt" fill="#ff0"/>
        <path d="M386.22 651.97c0 3.914-3.173 7.087-7.087 7.087s-7.087-3.173-7.087-7.087 3.173-7.087 7.087-7.087 7.087 3.173 7.087 7.087z" fill-rule="evenodd" transform="matrix(.689 0 0 .658 21.056 -148.681)" stroke="#000" stroke-width=".813pt" fill="#ff0"/>
        <path d="M386.22 651.97c0 3.914-3.173 7.087-7.087 7.087s-7.087-3.173-7.087-7.087 3.173-7.087 7.087-7.087 7.087 3.173 7.087 7.087z" fill-rule="evenodd" transform="matrix(.689 0 0 .658 13.732 -146.349)" stroke="#000" stroke-width=".813pt" fill="#ff0"/>
      </g>
      <g fill-rule="evenodd">
        <path d="M297.573 120.327c-12.314 0-13.942 1.944-19.52 3.888 0-5.364 13.713-11.661 26.027-11.661 0 3.887-3.253 7.774-6.507 7.773z" fill="#da4500"/>
        <path d="M316.461 107.768c0 2.575-2.186 4.663-4.883 4.663s-4.883-2.088-4.883-4.663 2.186-4.663 4.883-4.663 4.883 2.088 4.883 4.663z" fill="#cac9c7"/>
        <path d="M361.42 357.87v10.63h17.717v53.15h10.63v-53.15h17.716v-10.63h-17.716v-14.173h-10.63v14.173h-17.717z" stroke="#000" stroke-width=".813pt" fill="#ff0" transform="matrix(.689 0 0 .658 16.173 -144.018)"/>
        <path d="M304.381 112.358c-14.38 0-22.794 1.294-29.307 3.885 0-7.149 8.414-15.541 22.794-15.541 3.256 0 6.513 7.771 6.513 11.657z" fill="#da4500"/>
      </g>
      <g fill-rule="evenodd">
        <path d="M67.323 612.99c-14.173-14.17-16.634-21.36 3.543-10.1l283.75 247.5-3.366 6.968-283.93-244.37z" transform="matrix(.388 .296 -.141 .237 237.432 71.161)" stroke="#000" stroke-width=".711" fill="#008500"/>
        <path d="M228.757 329.669c.775-10.595-18.64-21.996-19.409-21.249-.769.747 1.178 6.908 4.859 10.111-7.051-3.607-14.437-5.82-14.593-4.244-.576 2.125 10.957 7.163 11.914 9.119l-8.316 2.642c.156 1.4 24.295 13.51 25.543 3.621z" fill="#008f00"/>
        <path d="M209.395 298.855c.775-10.595-18.64-21.996-19.409-21.249-.769.747 1.178 6.908 4.859 10.111-7.051-3.607-14.437-5.82-14.593-4.244-.576 2.125 10.957 7.163 11.914 9.119l-8.316 2.642c.156 1.4 24.295 13.51 25.543 3.621z" fill="#008f00"/>
        <path d="M194.578 270.876c.775-10.595-18.64-21.996-19.409-21.249-.769.747 1.178 6.908 4.859 10.111-7.051-3.607-14.437-5.82-14.593-4.244-.576 2.125 10.957 7.163 11.914 9.119l-8.316 2.642c.156 1.4 24.295 13.51 25.543 3.621z" fill="#008f00"/>
        <path d="M179.93 240.562c.775-10.595-18.64-21.996-19.409-21.249-.769.747 1.178 6.908 4.859 10.111-7.051-3.607-14.437-5.82-14.593-4.244-.576 2.125 10.957 7.163 11.914 9.119l-8.316 2.642c.156 1.4 24.295 13.51 25.543 3.621z" fill="#008f00"/>
        <path d="M184.676 239.8c9.388-5.653 7.543-27.359 6.46-27.512-1.083-.153-5.128 4.984-5.656 9.715-1.12-7.568-3.612-14.572-5.032-13.763-2.132.81.427 12.68-.657 14.572-1.088.946-6.046-5.804-7.133-4.858-1.088.946 2.946 26.716 12.019 21.844z" fill="#008f00"/>
        <path d="M198.501 266.419c10.807-2.341 16.626-23.39 15.659-23.878-.966-.489-6.563 3.067-8.707 7.358 1.58-7.49 1.671-14.886.053-14.574-2.289.085-4.012 12.089-5.691 13.527l-5.026-6.849c-1.354.546-6.526 26.121 3.712 24.415z" fill="#008f00"/>
        <path d="M214.469 293.615c9.856-4.837 10.055-26.612 8.994-26.855-1.062-.244-5.561 4.531-6.529 9.198-.404-7.632-2.225-14.818-3.711-14.132-2.194.626-.762 12.665-2.017 14.458l-6.632-5.44c-1.169.851.426 26.856 9.896 22.77z" fill="#008f00"/>
        <path d="M232.073 328.826c10.327-3.897 12.825-25.507 11.793-25.846-1.031-.34-6.017 3.989-7.473 8.535.404-7.618-.65-14.923-2.203-14.378-2.251.42-2.097 12.509-3.536 14.175-1.254.737-4.776-6.751-6.031-6.014-1.254.737-2.412 26.715 7.45 23.528z" fill="#008f00"/>
      </g>
      <path d="M209.06 775.98c0 7.828-10.312 14.173-23.031 14.173-12.72 0-23.031-6.346-23.031-14.173 0-7.828 10.312-14.173 23.031-14.173 12.72 0 23.031 6.346 23.031 14.173z" fill-rule="evenodd" transform="matrix(.601 .321 -.336 .574 389.49 -146.791)" stroke="#000" stroke-width=".813pt" fill="#ff1900"/>
      <g stroke="#000" fill-rule="evenodd" fill="#ff0">
        <path d="M453.376 216.014l1.297-3.338 3.536 1.113 1.297-3.338 3.536 1.113-1.297 3.338 3.536 1.113-1.297 3.338-3.536-1.113-3.242 8.344-3.536-1.113 3.242-8.344-3.536-1.113z"/>
        <path d="M445.887 245.494l3.536 1.113-37.608 96.795-3.536-1.113z"/>
        <path d="M407.16 340.066l7.072 2.225-10.375 26.702-7.072-2.225z"/>
        <path d="M448.837 227.695l10.608 3.338c7.073 2.225-8.901 17.801-8.901 17.801l-7.072-2.225s-1.708-21.139 5.365-18.914z"/>
        <path d="M458.646 227.975c-.537 1.383-2.556 2.005-4.509 1.391s-3.101-2.233-2.564-3.616 2.556-2.005 4.509-1.391 3.101 2.233 2.564 3.616z"/>
      </g>
      <path d="M209.06 775.98c0 7.828-10.312 14.173-23.031 14.173-12.72 0-23.031-6.346-23.031-14.173 0-7.828 10.312-14.173 23.031-14.173 12.72 0 23.031 6.346 23.031 14.173z" fill-rule="evenodd" transform="matrix(.574 -.364 .38 .549 -2.257 4.193)" stroke="#000" stroke-width=".813pt" fill="#ff1900"/>
    </g>
  </g>
</svg>
