<svg xmlns="http://www.w3.org/2000/svg" height="480" width="640" version="1"><defs><clipPath id="a"><rect fill-opacity=".67" height="512" width="682.67"/></clipPath></defs><g clip-path="url(#a)" transform="scale(.938 .938)"><path d="M0 0h768v256h-426.67l-341.33-256z" fill-rule="evenodd" fill="#ed2939"/><path d="M0 512h768v-256h-426.67l-341.33 256z" fill-rule="evenodd" fill="#002395"/><path d="M0 0l341.33 256-341.33 256v-512z" fill-rule="evenodd" fill="#fff"/><g><path fill="#ff0" d="M172.318 193.168l.105-3.963s-2.128-3.39.342-7.032c0 0-5.248-2.776-4.027-7.123 0 0-4.745-1.213-4.396-6.432 0 0-5.122-.355-5.653-4.716 0 0-5.122.843-7.376-3.405 0 0-4.997.977-6.406-2.526 0 0-4.857 1.682-7.739-2.435 0 0-5.129 2.072-7.279-1.814-2.122 3.873-7.251 1.814-7.251 1.814-2.847 4.102-7.739 2.4-7.739 2.4-1.361 3.516-6.343 2.519-6.343 2.519-2.247 4.25-7.362 3.405-7.362 3.405-.502 4.347-5.618 4.702-5.618 4.702.405 5.233-4.334 6.419-4.334 6.419 1.249 4.346-3.992 7.116-3.992 7.116 2.533 3.664.426 7.026.426 7.026l-.119 3.655 84.775.391"/><path d="M377.17 843.11l.091-3.458s-1.857-2.958.298-6.136c0 0-4.578-2.422-3.512-6.215 0 0-4.139-1.059-3.835-5.612 0 0-4.468-.31-4.931-4.114 0 0-4.468.736-6.434-2.971 0 0-4.359.852-5.588-2.204 0 0-4.237 1.468-6.751-2.124 0 0-4.474 1.808-6.349-1.583-1.851 3.379-6.325 1.583-6.325 1.583-2.484 3.579-6.751 2.094-6.751 2.094-1.187 3.068-5.533 2.197-5.533 2.197-1.96 3.708-6.422 2.971-6.422 2.971-.438 3.793-4.9 4.103-4.9 4.103.353 4.566-3.78 5.601-3.78 5.601 1.09 3.792-3.482 6.208-3.482 6.208 2.21 3.196.371 6.131.371 6.131l-.103 3.189 73.949.342h-.012z" stroke="#000" stroke-width=".271" fill="none" transform="matrix(1.146 0 0 1.146 -260.07 -773.12)"/><path fill="#f00" d="M170.196 188.133c-13.311-1.332-28.637-4.493-40.469 2.17-7.932-4.675-18.975-4.389-28.378-3.474-5.106.914-11.113.914-16.45 1.786l-.837.118c-9.683.643-18.465-2.218-26.879-5.978 2.672 15.166 5.637 30.709 7.095 46.587 3.174 23.516-11.127 43.259-5.26 66.49 3.502 11.147 15.759 17.628 26.977 18.912 10.862.641 22.101 2.421 32.153 4.603 1.911.398 4.179 1.284 5.497 1.856 2.77 1.158 4.8 2.861 6.578 4.682 6.069-6.321 14.963-8.079 23.739-9.007 15.815-1.849 35.313-.843 44.995-15.172v-.81c5.26-7.925 4.562-20.014 2.281-28.993-.153-3.132-.991-5.895-1.444-8.88-9.662-25.519-1.388-54.218 2.77-79.94-5.079 2.777-10.743 4.088-16.394 5.477-4.507.6-9.529.328-14.091.083l-1.891-.509"/><path fill="#80cfe1" d="M190.067 261.374c-.063 1.68.844 3 1.172 4.555 1.849 11.155 3.635 25.931-7.848 32.851-12.703 8.078-29.363 4.618-44.061 8.894-2.937.816-6.983 3.517-9.048 5.427-1.325-.872-2.658-2.211-4.367-2.999-12.096-6.432-27.82-4.277-41.473-7.751-6.858-2.169-14.008-7.513-15.745-14.531-4.465-18.416 6.23-34.113 4.967-52.383-.816-13.953-3.16-27.346-6.383-40.426 10.673 4.973 23.028 5.803 35.027 3.418 8.888-1.242 19.233-1.27 27.562 2.49 4.59-1.975 9.962-2.861 14.908-3.405 9.404.915 19.512 2.616 29.195 2.547 6.467-.336 12.341-2.205 17.964-4.696-3.335 21.619-9.739 44.264-1.877 66.008"/><path fill="#fff" d="M170.872 265.683l-.105-20.329h2.504l-31.071-20.07-.056-10.429h3l-15.536-11.126-15.46 11.12h2.993l.056 10.422-30.904 20.044 2.47.013.105 20.315 81.997.056"/><path d="M376.04 906.46l-.091-17.739h2.185l-27.113-17.513-.049-9.101h2.618l-13.557-9.709-13.49 9.703h2.611l.049 9.094-26.967 17.49 2.155.012.091 17.727 71.551.049.006-.013z" stroke="#000" stroke-width="1.164" fill="none" transform="matrix(1.146 0 0 1.146 -260.07 -773.12)"/><path fill="#fff" d="M180.429 292.385l.007 6.361-100.1-.112-.042-6.334 100.142.084"/><path d="M384.38 929.76l.006 5.551-87.347-.097-.036-5.527 87.384.074h-.006z" stroke="#000" stroke-width="1.164" fill="none" transform="matrix(1.146 0 0 1.146 -260.07 -773.12)"/><path fill="#fff" d="M86.985 292.007l-.084-21.529 4.053-.008-.223 21.78.244-21.604-5.839-.167v-4.619l89.461.098.042 4.576h-5.518l.105 21.8-.195-21.8h4.109l.091 21.555"/><path d="M302.84 929.43l-.073-18.786 3.537-.007-.195 19.005.213-18.852-5.095-.146v-4.03l78.064.086.036 3.993h-4.815l.091 19.023-.17-19.023h3.585l.079 18.809" stroke="#000" stroke-width="1.164" fill="none" transform="matrix(1.146 0 0 1.146 -260.07 -773.12)"/><path d="M319.62 924.8l-.055-13.1h-10.482l.061 13.087 10.476.013" stroke="#000" stroke-width="1.164" fill="none" transform="matrix(1.146 0 0 1.146 -260.07 -773.12)"/><path d="M311.94 914.43l.03 7.609h4.797l-.024-7.609h-4.803" stroke="#000" stroke-width="1.164" fill="none" transform="matrix(1.146 0 0 1.146 -260.07 -773.12)"/><path d="M370.86 924.84l-.061-13.087-10.446-.012.049 13.099h10.458" stroke="#000" stroke-width="1.164" fill="none" transform="matrix(1.146 0 0 1.146 -260.07 -773.12)"/><path d="M363.18 914.48l.055 7.585h4.791l-.043-7.585h-4.803" stroke="#000" stroke-width="1.164" fill="none" transform="matrix(1.146 0 0 1.146 -260.07 -773.12)"/><path d="M370.78 903.51l-.061-13.101h-10.458l.036 13.101h10.482z" stroke="#000" stroke-width="1.164" fill="none" transform="matrix(1.146 0 0 1.146 -260.07 -773.12)"/><path d="M363.1 893.16l.03 7.597h4.791l-.006-7.597h-4.815" stroke="#000" stroke-width="1.164" fill="none" transform="matrix(1.146 0 0 1.146 -260.07 -773.12)"/><path d="M319.53 903.46l-.073-13.076-10.464-.013.049 13.082h10.488v.007z" stroke="#000" stroke-width="1.164" fill="none" transform="matrix(1.146 0 0 1.146 -260.07 -773.12)"/><path d="M311.85 893.11l.024 7.585 4.803.012-.036-7.597h-4.791" stroke="#000" stroke-width="1.164" fill="none" transform="matrix(1.146 0 0 1.146 -260.07 -773.12)"/><path d="M338.5 903.48l-.049-13.076-10.47-.012.043 13.087h10.476" stroke="#000" stroke-width="1.164" fill="none" transform="matrix(1.146 0 0 1.146 -260.07 -773.12)"/><path d="M330.83 893.13l.024 7.585 4.797.024-.03-7.609h-4.791" stroke="#000" stroke-width="1.164" fill="none" transform="matrix(1.146 0 0 1.146 -260.07 -773.12)"/><path d="M353.12 903.51l-.073-13.101-10.464-.012.049 13.087 10.488.025" stroke="#000" stroke-width="1.164" fill="none" transform="matrix(1.146 0 0 1.146 -260.07 -773.12)"/><path d="M345.44 893.14l.036 7.609h4.797l-.024-7.609h-4.809" stroke="#000" stroke-width="1.164" fill="none" transform="matrix(1.146 0 0 1.146 -260.07 -773.12)"/><path fill="#fff" d="M147.585 257.696l.133 34.608-34.762-.056-.126-34.579 34.748.027"/><path d="M355.72 899.49l.116 30.199-30.333-.049-.11-30.174 30.321.024h.006z" stroke="#000" stroke-width="1.164" fill="none" transform="matrix(1.146 0 0 1.146 -260.07 -773.12)"/><path d="M325.21 908.11l30.54.024" stroke="#000" stroke-width="1.164" fill="none" transform="matrix(1.146 0 0 1.146 -260.07 -773.12)"/><path d="M329.02 929.68l-.103-21.342" stroke="#000" stroke-width="1.164" fill="none" transform="matrix(1.146 0 0 1.146 -260.07 -773.12)"/><path d="M352.14 929.69l-.103-21.329" stroke="#000" stroke-width="1.164" fill="none" transform="matrix(1.146 0 0 1.146 -260.07 -773.12)"/><path d="M366.79 886.63l-17.081-12.474-19.193-.024-16.947 12.449 53.222.049" stroke="#000" stroke-width="1.164" fill="none" transform="matrix(1.146 0 0 1.146 -260.07 -773.12)"/><path d="M331.99 863.8l.03 7.609 16.144.012-.03-7.609-16.144-.012" stroke="#000" stroke-width="1.164" fill="none" transform="matrix(1.146 0 0 1.146 -260.07 -773.12)"/><path d="M336.37 865.69l.024 3.792h7.414l-.024-3.792h-7.414" stroke="#000" stroke-width="1.164" fill="none" transform="matrix(1.146 0 0 1.146 -260.07 -773.12)"/><path d="M340.04 855.14l8.979 6.348-17.891-.024 8.912-6.325" stroke="#000" stroke-width="1.164" fill="none" transform="matrix(1.146 0 0 1.146 -260.07 -773.12)"/><path fill="#fff" d="M171.216 201.943c2.923-.07 3.676 12.041 3.683 18.04 2.511.705 8.078 4.207 10.541 7.374l-28.24-.042c2.428-3.125 7.953-6.641 10.443-7.345 0-6.007.614-18.11 3.572-18.04"/><path d="M376.34 850.84c2.551-.061 3.208 10.507 3.214 15.742 2.191.615 7.049 3.671 9.198 6.434l-24.642-.036c2.118-2.727 6.94-5.795 9.113-6.409 0-5.242.536-15.803 3.117-15.742" stroke="#000" stroke-width="1.164" fill="none" transform="matrix(1.146 0 0 1.146 -260.07 -773.12)"/><path d="M326.81 900.33h2.21l-.645 1.186s1.065 1.37.018 2.94l.578 1.09h-2.131l.578-1.036s-1.09-1.819.049-2.995l-.657-1.186" stroke="#000" stroke-width="1.164" fill="none" transform="matrix(1.146 0 0 1.146 -260.07 -773.12)"/><path d="M331.31 900.33h2.21l-.639 1.186s1.065 1.334.006 2.94l.572 1.09h-2.124l.572-1.036s-1.065-1.819.055-2.995l-.651-1.186" stroke="#000" stroke-width="1.164" fill="none" transform="matrix(1.146 0 0 1.146 -260.07 -773.12)"/><path d="M336.23 900.33h2.204l-.657 1.186s1.077 1.37.018 2.94l.578 1.114-2.112-.024.566-1.036s-1.077-1.808.043-2.995l-.645-1.186h.006z" stroke="#000" stroke-width="1.164" fill="none" transform="matrix(1.146 0 0 1.146 -260.07 -773.12)"/><path d="M341.77 900.35h2.222l-.651 1.199s1.065 1.346.006 2.922l.597 1.108h-2.143l.572-1.035s-1.065-1.832.073-2.995l-.67-1.199h-.006z" stroke="#000" stroke-width="1.164" fill="none" transform="matrix(1.146 0 0 1.146 -260.07 -773.12)"/><path d="M346.7 900.35h2.204l-.651 1.199s1.071 1.346.012 2.916l.584 1.114h-2.124l.554-1.035s-1.071-1.82.085-2.995l-.664-1.199" stroke="#000" stroke-width="1.164" fill="none" transform="matrix(1.146 0 0 1.146 -260.07 -773.12)"/><path d="M351.6 900.36l2.204-.012-.651 1.199s1.09 1.346.03 2.922l.554 1.108h-2.131l.572-1.035s-1.065-1.82.073-2.995l-.651-1.187" stroke="#000" stroke-width="1.164" fill="none" transform="matrix(1.146 0 0 1.146 -260.07 -773.12)"/><path fill="#ff0" d="M130.372 336.666c13.017.042 29.027-2.616 36.526-6.494l16.47-1.459.328 20.099c-13.953 7.694-46.168 9.347-53.256 9.291-7.095.056-39.708-1.625-53.723-9.347l.181-20.112 16.506 1.486c7.499 3.858 23.997 6.537 37.001 6.537h-.035"/><path d="M340.7 968.4c11.359.036 25.329-2.283 31.873-5.667l14.372-1.273.286 17.538c-12.175 6.714-40.286 8.156-46.471 8.108-6.191.049-34.649-1.418-46.879-8.156l.158-17.55 14.403 1.297c6.544 3.367 20.94 5.704 32.287 5.704h-.03" stroke="#000" stroke-width=".271" fill="none" transform="matrix(1.146 0 0 1.146 -260.07 -773.12)"/><path fill="#ff0" d="M34.314 250.934l14.511 4.618-4.388 23.496-13.736 2.134s-2.316-12.355 3.614-30.262"/><path d="M256.88 893.59l12.662 4.03-3.829 20.503-11.986 1.862s-2.021-10.781 3.153-26.407v.012z" stroke="#000" stroke-width=".271" fill="none" transform="matrix(1.146 0 0 1.146 -260.07 -773.12)"/><path fill="#7e7e7e" d="M44.434 278.793l-13.729 2.393 8.685-12.355 5.044 9.962"/><path d="M265.71 917.9l-11.98 2.088 7.579-10.781 4.401 8.693" stroke="#000" stroke-width=".271" fill="none" transform="matrix(1.146 0 0 1.146 -260.07 -773.12)"/><path fill="#ff0" d="M25.639 267.861l13.987 1.011c.314 11.853 1.751 57.086 55.76 59.542l-1.681 16.457c-65.743.683-70.738-55.481-68.066-77.009"/><path d="M249.31 908.36l12.205.882c.274 10.343 1.528 49.813 48.656 51.956l-1.467 14.36c-57.367.596-61.726-48.413-59.394-67.198z" stroke="#000" stroke-width=".271" fill="none" transform="matrix(1.146 0 0 1.146 -260.07 -773.12)"/><path d="M294.11 978.5l14.384-3.141" stroke="#000" stroke-width=".271" fill="none" transform="matrix(1.146 0 0 1.146 -260.07 -773.12)"/><path fill="#ff0" d="M225.284 251.106l-14.454 4.576 4.583 23.461 13.763 2.211s2.211-12.347-3.893-30.261"/><path d="M423.52 893.74l-12.613 3.993 3.999 20.472 12.01 1.929s1.93-10.774-3.397-26.406v.012z" stroke="#000" stroke-width=".271" fill="none" transform="matrix(1.146 0 0 1.146 -260.07 -773.12)"/><path fill="#7e7e7e" d="M215.405 278.897l13.763 2.47-8.804-12.361-4.96 9.891"/><path d="M414.9 917.99l12.01 2.155-7.682-10.786-4.328 8.631" stroke="#000" stroke-width=".271" fill="none" transform="matrix(1.146 0 0 1.146 -260.07 -773.12)"/><path fill="#ff0" d="M234.12 268.044l-14.008.956c-.202 11.838-1.235 57.091-55.244 59.491l1.835 16.443c65.729.76 70.25-55.377 67.417-76.898"/><path d="M431.23 908.52l-12.223.835c-.177 10.33-1.077 49.818-48.206 51.912l1.601 14.348c57.355.663 61.3-48.322 58.828-67.101v.005z" stroke="#000" stroke-width=".271" fill="none" transform="matrix(1.146 0 0 1.146 -260.07 -773.12)"/><path d="M387.04 978.57l-14.42-3.15" stroke="#000" stroke-width=".271" fill="none" transform="matrix(1.146 0 0 1.146 -260.07 -773.12)"/><path fill="#009fc5" d="M121.628 346.568c-.37.237-.872.301-1.451.272l-2.609-.133.223-3.257 2.588.139c.509.035.914.133 1.165.286.523.272.753.775.705 1.472-.035.6-.244.991-.628 1.221m-4.381 5.128l.258-3.97 3.042.21c.984.077 1.716-.181 2.211-.684.516-.488.781-1.129.816-1.855.063-.845-.153-1.535-.656-2.045-.481-.488-1.165-.746-2.023-.829l-4.346-.272-.6 9.347 1.291.084"/><path fill="#009fc5" d="M126.705 343.875l3.181.035c.46.042.823.098 1.088.223.488.23.719.691.719 1.36 0 .629-.181 1.047-.537 1.298-.342.23-.837.334-1.43.334l-3.056-.035.028-3.216m-.049 8.281l.028-3.99 2.986.043c.53 0 .921.041 1.193.174.439.202.656.629.677 1.214l.077 1.57c.021.377.028.608.049.76l.119.315h1.605l-.028-.203c-.181-.098-.328-.285-.391-.572-.056-.181-.084-.453-.098-.795l-.028-1.249c-.021-.565-.119-.955-.335-1.172-.188-.251-.446-.467-.844-.6.446-.236.781-.509 1.025-.844.23-.37.349-.837.349-1.408 0-1.074-.439-1.807-1.332-2.204-.481-.216-1.095-.329-1.821-.342l-4.486-.043-.035 9.376h1.291"/><path fill="#009fc5" d="M136.606 350.201c-.572-.697-.879-1.569-.949-2.601-.063-1.298.188-2.288.781-2.959.6-.726 1.374-1.074 2.386-1.129 1.019-.056 1.856.272 2.477.913.635.629.998 1.501 1.06 2.589.035 1.046-.147 1.974-.628 2.79-.474.831-1.263 1.298-2.428 1.325-1.214.063-2.121-.223-2.7-.928m-1.535-5.902c-.6.928-.844 2.002-.781 3.3.091 1.402.523 2.56 1.339 3.432.907.872 2.107 1.311 3.586 1.227 1.584-.07 2.777-.67 3.586-1.771.656-.998.97-2.156.9-3.586-.091-1.277-.46-2.316-1.151-3.09-.872-1.039-2.149-1.499-3.879-1.429-1.632.104-2.832.704-3.607 1.918"/><path fill="#009fc5" d="M179.123 330.81c.9-.153 1.681-.111 2.393.133 1.046.328 1.751 1.103 2.19 2.288l-1.291.181c-.279-.641-.677-1.081-1.214-1.325-.523-.23-1.179-.286-1.932-.174-.879.133-1.584.571-2.079 1.277-.488.753-.635 1.758-.419 3.041.181 1.061.572 1.96 1.214 2.56.593.614 1.465.83 2.602.67.851-.14 1.535-.481 2.016-1.067.502-.557.649-1.402.481-2.49l-3.007.461-.153-1.032 4.186-.642.816 4.96-.83.126-.516-1.144c-.349.517-.698.915-1.005 1.144-.516.405-1.214.663-2.086.789-1.13.174-2.163-.029-3.097-.629-1.025-.76-1.688-1.891-1.939-3.459-.272-1.542-.028-2.861.684-3.9.677-1.004 1.66-1.59 2.986-1.779"/><path fill="#009fc5" d="M188.589 330.088l3-1.088c.412-.153.767-.202 1.074-.167.551.041.956.369 1.186 1.025.216.558.216 1.046-.028 1.389-.258.355-.663.614-1.249.829l-2.818 1.012-1.165-3m3 7.751l-1.465-3.76 2.79-1.005c.523-.167.886-.258 1.158-.23.495.062.872.363 1.123.934l.635 1.431c.14.355.251.571.342.67.042.126.133.202.202.285l1.514-.557-.084-.202c-.223 0-.439-.126-.6-.37-.119-.174-.23-.425-.391-.718l-.495-1.173c-.223-.509-.453-.822-.719-1.012-.265-.146-.6-.244-.998-.271.307-.356.53-.712.614-1.131.091-.425.049-.899-.153-1.429-.384-.998-1.088-1.542-2.079-1.612-.523-.042-1.123.07-1.814.313l-4.214 1.501 3.404 8.817 1.235-.453"/><path fill="#009fc5" d="M202.559 333.194l-5.351-7.807 5.874-3.746.649.942-4.814 3.076 1.646 2.386 4.444-2.86.607.914-4.444 2.861 1.814 2.63 4.897-3.133.649.922-5.979 3.816"/><path fill="#009fc5" d="M207.246 319.385l1.535-1.688c.712-.753 1.465-1.095 2.288-.998.823.07 1.66.502 2.553 1.284.244.188.46.433.684.705.391.509.621.956.767 1.402.126.559.098 1.068-.098 1.556-.119.243-.328.529-.642.872l-1.542 1.674-5.546-4.821m8.106 3.676c1.088-1.199 1.325-2.49.691-3.948-.37-.789-.935-1.556-1.716-2.226-.984-.872-2.009-1.318-3.09-1.402-1.2-.091-2.218.342-3.104 1.311l-2.616 2.804 7.213 6.293 2.616-2.818"/><path fill="#009fc5" d="M220.941 315.775l-8.302-4.876.677-1.074 8.315 4.848-.684 1.115"/><path fill="#009fc5" d="M224.195 310.114l-8.964-3.586 2.644-6.306 1.088.419-2.156 5.197 2.7 1.061 2.016-4.786 1.032.426-1.995 4.779 3.021 1.227 2.211-5.259 1.088.411-2.693 6.419"/><path fill="#009fc5" d="M228.309 299.101l-9.432-2.086.314-1.458 8.713-2.944-7.653-1.688.279-1.144 9.432 2.029-.3 1.416-8.727 3.007 7.653 1.653-.272 1.214"/><path fill="#009fc5" d="M227.564 287.125l.119-1.186c.544.015 1.005-.07 1.353-.257.684-.37 1.081-1.074 1.186-2.114.042-.488.021-.914-.091-1.318-.202-.781-.642-1.214-1.346-1.284-.523-.056-.9.07-1.172.356-.244.328-.502.802-.698 1.472l-.433 1.235c-.279.809-.537 1.367-.816 1.68-.446.587-1.074.789-1.877.733-.858-.091-1.556-.433-2.051-1.088-.509-.6-.719-1.458-.593-2.519.084-.969.405-1.785.977-2.441.53-.6 1.353-.887 2.407-.775l-.098 1.186c-.516 0-.928.091-1.228.3-.544.3-.844.935-.935 1.863-.077.768.028 1.284.321 1.675.293.328.663.536 1.095.571.46.042.823-.105 1.074-.46.181-.245.398-.775.691-1.633l.426-1.298c.209-.6.46-1.06.753-1.388.523-.544 1.207-.774 2.065-.711 1.046.111 1.793.544 2.176 1.339.377.802.523 1.688.433 2.693-.119 1.136-.488 2.03-1.172 2.63-.684.613-1.535.822-2.567.739"/><path fill="#009fc5" d="M32.045 286.552l.216 1.171c-.523.105-.942.315-1.249.587-.551.516-.739 1.291-.551 2.344.084.446.244.885.446 1.235.419.712.963.997 1.653.885.509-.091.844-.285 1.005-.648.153-.356.265-.901.3-1.598l.063-1.319c.042-.816.133-1.457.314-1.814.286-.642.823-1.039 1.625-1.171.858-.154 1.612.041 2.26.529.656.453 1.088 1.242 1.249 2.288.202.956.112 1.814-.265 2.588-.363.754-1.06 1.214-2.128 1.409l-.209-1.185c.495-.181.865-.356 1.109-.6.419-.468.544-1.144.384-2.072-.126-.754-.384-1.242-.774-1.486-.384-.287-.767-.398-1.186-.328-.467.07-.774.328-.921.746-.091.278-.16.857-.223 1.744l-.063 1.367c-.035.642-.133 1.173-.349 1.535-.342.669-.921 1.081-1.765 1.213-1.067.181-1.891-.063-2.477-.746-.6-.67-.97-1.472-1.158-2.47-.209-1.186-.056-2.107.419-2.846.481-.76 1.242-1.2 2.274-1.346"/><path fill="#009fc5" d="M31.449 298.917l9.222-2.777 2.149 6.494-1.123.356-1.758-5.337-2.804.845 1.625 4.931-1.074.342-1.612-4.945-3.125.934 1.786 5.455-1.102.315-2.183-6.613"/><path fill="#009fc5" d="M35.541 310.182l8.483-4.499.907 1.583-5.832 6.167 8.518-1.458.879 1.57-8.462 4.472-.6-1.04 4.995-2.629c.181-.105.46-.259.865-.474.398-.181.844-.426 1.291-.656l-8.483 1.444-.621-1.102 5.79-6.146-.279.14c-.181.104-.495.258-.921.502-.419.259-.733.419-.935.502l-4.981 2.672-.614-1.06"/><path fill="#009fc5" d="M51.344 322.674c-.426-.097-.844-.342-1.256-.767l-1.793-1.849 2.414-2.211 1.807 1.842c.349.342.572.676.691.963.167.55 0 1.053-.509 1.527-.46.426-.921.6-1.353.495m-6.816.858l2.958-2.714 2.1 2.128c.677.691 1.367 1.005 2.093.991.739-.043 1.374-.315 1.932-.845.628-.558.928-1.214.928-1.918-.007-.684-.321-1.325-.9-1.925l-3.014-3.077-7.018 6.446.907.914"/><path fill="#009fc5" d="M52.994 331.062l5.086-7.974 6.013 3.656-.628.949-4.939-2.958-1.528 2.414 4.541 2.755-.586.915-4.548-2.742-1.73 2.699 5.002 3.007-.6.942-6.083-3.663"/><path fill="#009fc5" d="M68.041 329.527l3.056.97c.433.132.746.299.956.488.391.37.495.899.265 1.541-.188.558-.474.921-.921 1.075-.398.069-.9.069-1.486-.112l-2.881-.92 1.012-3.042m-2.637 7.834l1.27-3.802 2.846.928c.509.133.879.315 1.06.502.349.314.453.781.279 1.361l-.426 1.513-.188.726c0 .119 0 .245.021.328l1.5.488.091-.216c-.16-.126-.251-.355-.244-.641.035-.175.084-.453.181-.775l.363-1.214c.146-.53.202-.928.07-1.213-.112-.301-.3-.573-.614-.83.474-.084.886-.231 1.235-.489.328-.286.607-.684.774-1.241.342-1.012.153-1.856-.6-2.498-.377-.334-.914-.621-1.618-.886l-4.269-1.318-2.986 8.894 1.249.384"/><path fill="#bc715f" d="M78.367 175.493c1.102-2.659 11.315-9.907 44.828-6.733 0 0 5.665 3.46 8.992 3.014 1.898-.245-1.116.118-3.593-1.94-2.525-2.057-3.063-6.278 2.707-6.166 5.741.147 27.235 1.36 27.639 3.292.377 1.953-11.364 2.77-15.731 2.658-4.388-.118-3.879 2.101.488 1.933 13.645-.488 28.539-5.296 44.27 5.832 1.877 1.353-4.744 1.569-9.864-.608 0 0-13.876.719-19.875-.264 0 0-4.611 3.752-10.618 3.383.781 1.946-2.218 9.208-21.102 3.745-3.118.956-14.482 2.86-13.241-.516-2.993 0-8.239.963-9.02-.74-.753-1.674 9.236-4.207 10.987-6.02 0 0-21.131.202-25.135-1.256 0 0-12.466 2.797-11.734.37"/><path fill="#008737" d="M85.14 205.083c.453-.613.635-1.716 1.598-1.687 2.093.557 3.516 4.387 6.09 1.904.914-.202 1.263 1.04 2.016 1.187.481 2.128 2.19-.433 3.467-.287 2.728-1.214 6.104-1.5 9.334-.9.098 2.086-1.535 4.388-3.586 5.574.042 2.101 1.946 3.447 1.911 5.56-.328.789-.056 2.03-1.249 2.288-1.514-.272-3.007-.433-4.262-1.277-.153-.153-.279-.453-.6-.356-.153.705.949 1.403 1.381 2.121-.76 1.298-2.023.112-3.083.126-.314.746-.014 1.688-.781 2.17-1.339-.042-1.612-1.499-2.435-2.225-.844.914.593 1.458.795 2.183-.516 2.749-.446 5.434-3.195 7.234l-1.842.915c-.502-1.381-.188-3.475-.523-4.919-1.088 1.772-1.939 3.321-3.537 4.821-1.87-.614-2.958-2.818-3.369-4.646-.781-2.128-.335-4.674 1.346-6.216-.572-1.116-2.532-.858-2.811-2.448-2.937-1.912-4.562 3.348-6.46.613-.614-2.553.119-5.727 1.967-7.632-.412-1.046-1.779-.774-2.588-1.374-1.849-1.57-4.514-3.23-4.381-6.063 5.058-1.911 11.106-.509 14.782 3.335"/><path fill="#ff0" d="M87.764 204.796c-.119 2.315 1.563.627 2.811 2.029-.977-.384-1.688 1.688-2.644.502l-.6.573c.349.795 1.025.899.321 1.771-1.046.398-1.256-.913-1.744-1.43-.084-.23.16-.663-.223-.816-.593.502-1.214.684-2.03.601-.223-.447-.656-1.032-.216-1.374.802-1.082 2.044.39 2.651-.37.098-.67-.488-1.486.272-1.947.523.091 1.193-.195 1.409.461"/><path fill="#ff0" d="M94.021 206.699c.063.447-.23 1.074.356 1.389.76-.412 1.57-.098 2.009.656-.007.404.119.934-.412 1.129l-1.186-.223c.084-.231-.293-.377-.44-.6-.523-.16-.83.264-1.221.523.293.446.97.691.809 1.263-.698.697-1.039-.6-1.807-.273-.523-.202.188-1.29-.635-1.618-.977 0-.328 1.604-1.577.977-.446-.503-.886-1.179-.405-1.744.523-.349 1.409-.259 1.856.195.76-.843.837-4.101 2.658-1.674"/><path fill="#ff0" d="M86.228 210.056c.509.733-.112 1.73.537 2.546 1.019-1.904 2.002.412 3.216.23.37.453.126 1.082.195 1.598-1.5.398-3.307.872-4.632-.328l-.37.426c.788.733 1.535 1.563.907 2.79-1.123.244-2.86.272-3.425-.886-.293-.955.684-1.646-.349-2.414-.746.928-.712 2.17-2.267 1.325-.963-.53-1.249-1.625-.767-2.546 1.005-1.584 2.763.05 3.851-.726.153-1.36-.349-2.546.9-3.299 1.067-.189 1.563.613 2.211 1.283"/><path fill="#fff" d="M90.48 210.893c-.502 2.316-2.246-.119-3.062-.216 1.088-1.932 1.772.629 3.062.216"/><path fill="#fff" d="M95.912 213.414c-1.214.341-1.025-1.173-1.625-1.766l.467-.426c.439.53.774 1.487 1.158 2.191"/><path fill="#ff0" d="M94.273 212.944c.349.802-.788 1.445.181 2.03.307-.257.684-.614.844-.76.83.245 1.793.391 2.372 1.214.621 1.703-1.102 1.66-2.079 2.135l-.97-.042c.23-.474-.419-.677-.579-1.004-.446-.112-.816.027-1.067.404.216 1.082 1.535 1.925.174 2.888-1.151-.076-2.937.37-2.832-1.221-.433-.9 1.172-2.288-.544-2.343-.565 1.214-1.186 2.385-2.658 1.235l.181-1.73c1.409.041 3.076.285 3.711-1.291.405-1.144-.705-2.197.286-3.104 1.437-.328 2.246.635 2.979 1.59"/><path d="M93.242 215.546c.363.859-.614.915-1.074 1.339-.621.05-1.053-.195-1.43-.614-.279-1.039.495-1.144 1.088-1.555.691-.287.977.516 1.416.829"/><path fill="#fff" d="M92.394 216.107c-.153.202-.37.14-.6.195l-.216-1.039c.46.041 1.06.188.816.843"/></g></g></svg>