<svg xmlns="http://www.w3.org/2000/svg" height="480" width="640">
    <g fill-rule="evenodd">
        <g>
            <path fill="#3b5aa3" d="M0 0h639.864v480h-639.864z"/>
            <path d="M0 467.08l639.904-467.08-.027 86.915-639.877 393.08v-12.92z" fill="#e2ae57"/>
            <path d="M22.397 479.98l617.585-300.76-.133-95.479-639.851 396.26 22.397-.02z" fill="#fff"/>
        </g>
        <path d="M175.32 15.163l-6.314 102.79-27.009-65.552 10.361 69.775-41.83-56.378 27.42 64.338-54.935-42.616 42.765 53.546-62.102-27.52 54.392 41.19-67.651-8.95 63.931 25.34-100.35 9.18 100.59 6.723-63.742 26.207 66.972-9.062-54.195 40.018 62.891-27.595-42.896 53.99 54.573-41.318-27.036 62.889 43.684-54.69-11.824 68.173 27.478-63.7 6.211 100.63 9.69-100.38 23.692 64.088-9.032-69.057 43.468 54.738-28.561-63.93 54.55 43.996-43.37-54.929 64.834 26.994-57.379-41.902 69.878 11.78-66.896-25.694 104.05-6.461-104.05-9.69 68.486-22.828-70.972 8.914 58.638-40.996-66.091 26.586 45.644-55.334-55.582 43.408 26.746-66.412-43.146 56.474 9.267-70.43-25.665 66.455-9.587-102.79z" fill="#fff"/>
    </g>
</svg>
