<svg xmlns="http://www.w3.org/2000/svg" xmlns:xlink="http://www.w3.org/1999/xlink" width="640" height="480" viewBox="0 0 6.4 4.8">
    <defs>
        <path id="a" fill="#fff" d="M0-4.422l1.437 4.422h-2.874z"/>
        <g id="c">
            <use xlink:href="#a" transform="matrix(-.809 -.588 .588 -.809 0 0)" width="18" height="12"/>
            <use xlink:href="#a" transform="rotate(-72)" width="18" height="12"/>
            <use xlink:href="#a" width="18" height="12"/>
            <use xlink:href="#a" transform="rotate(72)" width="18" height="12"/>
            <use xlink:href="#a" transform="matrix(-.809 .588 -.588 -.809 0 0)" width="18" height="12"/>
        </g>
        <clipPath id="b">
            <path d="M1-7.2h16v12h-16z"/>
        </clipPath>
    </defs>
    <g transform="matrix(.4 0 0 .4 -.4 2.88)" clip-path="url(#b)">
        <path fill="#fecb00" d="M0-7.2h18v6h-18z"/>
        <path fill="#ea2839" d="M0-1.2h18v6h-18z"/>
        <path fill="#34b233" d="M0-3.2h18v4h-18z"/>
        <use transform="translate(0 -7.2)" height="12" width="18" y="6.422" x="9" xlink:href="#c"/>
    </g>
</svg>
