<svg xmlns="http://www.w3.org/2000/svg" height="480" width="640"><g fill-rule="evenodd"><rect height="480" width="640" fill="#d61517"/><rect height="480" width="213.33" x="213.33" fill="#018edf"/><path d="M102.54 244.2c9.912.286 11.437-3.152 11.437-6.591v-11.748c0-1.433 3.812-2.865 3.812-5.445 0-2.579-1.906-5.444-2.668-7.164-1.144 4.298-3.05 8.597-6.482 10.029-1.525-3.439-1.906-4.585-1.143-6.304.762-1.719 0-4.298-1.525-6.877-1.144 5.444-4.575 6.877-4.956 8.596-.382 1.719-1.525 6.591-3.813 4.011-2.287-2.579-3.812-5.73-4.956-9.169-2.288 6.877-1.144 8.31-.381 9.456.762 1.146 1.525 4.585 1.525 6.017s-1.525 7.164-.763 8.883c.763 1.719 1.144 6.877 9.913 6.304z" fill-opacity=".867" fill="#ffd700"/><path d="M221.01 236.08a39.212 39.212 0 1 1-78.424 0 39.212 39.212 0 1 1 78.424 0z" fill-opacity=".867" transform="matrix(.638 0 0 .479 -10.775 155.89)" fill="#ffd700"/><path d="M140 276.43c-13.198 18.438-38.615 23.562-57.462 11.202-4.968-3.257-8.601-6.904-12.058-11.575 3.117 13.254 12.565 22.638 25.64 25.988 19.245 4.929 38.903-6.546 43.879-25.615z" fill-opacity=".867" fill="#ffd700"/><rect fill-opacity=".867" height="15.473" width="74.379" y="421.71" x="66.874" fill="#ffd700"/><path d="M70.513 312.35l33.169 20.127 33.55-20.127h-66.719z" fill-opacity=".867" fill="#ffd700"/><rect fill-opacity=".867" height="15.474" width="67.1" y="334.14" x="70.513" fill="#ffd700"/><path d="M70.513 447.09l33.169 15.76 33.55-15.76h-66.719z" fill-opacity=".867" fill="#ffd700"/><rect fill-opacity=".867" height="149.61" width="32.377" y="312.58" x="20.316" fill="#ffd700"/><rect fill-opacity=".867" height="149.61" width="32.377" y="312.58" x="153.51" fill="#ffd700"/><path d="M81.153 365.13c9.9-7.327 24.689-12.815 30.008-6.877 5.346 6.144 6.616 11.632 5.445 16.569-1.582 4.285-8.689 9.402-13.942 6.686-6.035-2.847-15.663 7.024-16.769 12.474-1.442 5.815-1.584 12.728.076 19.142-15.812-18.435-16.887-39.764-4.817-47.994zm26.885 9.11c-2.727 1.604-6.695-.026-8.856-3.637-2.162-3.612-.503-4.956 2.224-6.56 2.728-1.603 5.496-2.861 7.657.75 2.161 3.612 1.702 7.844-1.026 9.447zm15.275 32.746c-9.776 7.507-25.881 10.406-31.252 4.532-5.402-6.08-.929-13.755.178-18.728 1.524-4.324 8.561-8.11 13.828-5.468 6.048 2.762 15.759-8.073 14.611-15.015 1.367-5.856-.509-6.853-3.359-15.444 15.98 18.248 17.921 41.674 5.994 50.123zm-21.785-11.558c2.698-1.652 5.943-.807 8.141 2.783 2.198 3.59 2.048 6.411-.65 8.063-2.698 1.651-6.928 1.511-9.126-2.078s-1.064-7.116 1.634-8.768z" fill-opacity=".867" fill="#ffd700"/></g></svg>