<svg xmlns="http://www.w3.org/2000/svg" xmlns:xlink="http://www.w3.org/1999/xlink" id="flag-icon-css-mo" width="640" height="480">
  <path fill="#00785e" d="M0 0h640v480H0z"/>
  <path fill="#fbd116" d="M294.92 108.73l40.58 29.48L320 90.5l-15.5 47.71 40.59-29.48z"/>
  <g id="a">
    <path fill="#fff" d="M320 331.63H217.52a146.33 146.33 0 0 1-3.8-4H320a2.14 2.14 0 0 1 1.43 1.89c.04.92-.54 1.78-1.43 2.1zm0-31.34c.6-1.22 1.75-4.03 1.23-7.55a12.39 12.39 0 0 0-1.23-3.81 81.96 81.96 0 0 1-32.5 18.98 81.04 81.04 0 0 1-23.5 3.46h-63.13a144.4 144.4 0 0 0 5.85 8h61.03c19.9 0 38.13-7.18 52.25-19.08zm-109.6-24.7a32.29 32.29 0 0 1-9.69 2.1 80.93 80.93 0 0 0 60.8 27.43 80.88 80.88 0 0 0 58.5-24.94 440.94 440.94 0 0 0 4.54-58.91A440.92 440.92 0 0 0 320 153.6c-6.6 5.91-18.95 18.68-24.77 38.27a81.05 81.05 0 0 0-3.35 23.13 80.7 80.7 0 0 0 13.68 45.08 80.73 80.73 0 0 1-16.93-49.58c0-12.4 2.79-24.16 7.77-34.68a32.49 32.49 0 0 1-7.53-12.98 80.67 80.67 0 0 0-10.5 39.9c0 18.05 5.9 34.72 15.88 48.2a95.09 95.09 0 0 0-73.35-29.47 32.64 32.64 0 0 1 6.75 8.9 95.08 95.08 0 0 1 68.69 29.4 94.97 94.97 0 0 0-61.09-22.15 95 95 0 0 0-36.65 7.3 81.19 81.19 0 0 0 82.58 52.17c-4.68.84-9.5 1.28-14.42 1.28a80.85 80.85 0 0 1-56.35-22.78zM320 364.37h-53.11A143.47 143.47 0 0 0 320 374.5a10.91 10.91 0 0 0 1.25-4.96 10.93 10.93 0 0 0-1.25-5.17zm0-24.5h-93.63a143.8 143.8 0 0 0 7.82 6.25H320a4.56 4.56 0 0 0 1.27-3.12c0-1.78-1.05-2.9-1.27-3.13zm0 12.5h-76.7a143.62 143.62 0 0 0 14.45 8H320a7.56 7.56 0 0 0 1.16-4.19 7.53 7.53 0 0 0-1.16-3.8z"/>
    <path fill="#fbd116" d="M200.48 174.77l25.39 23.67-6.63-34.07-14.66 31.46 30.35-16.84zm36.9-32.01l34.7.6-27.72-20.88 10.15 33.2 11.3-32.84z"/>
  </g>
  <use width="100%" height="100%" transform="matrix(-1 0 0 1 640 0)" xlink:href="#a"/>
</svg>
