<svg xmlns="http://www.w3.org/2000/svg" height="480" width="640">
    <g fill-rule="evenodd" clip-path="url(#a)">
        <path fill="#199d00" d="M-40 0h720v480h-720z"/>
        <path d="M318.79 268.78c-11.285 7.857-23.091 14.804-34.377 22.661-14.142 1-27.856 1.143-42.426.429 0 0-30.427-5.142-38.141-18.427-.429-1.286 9.856-6 9.856-6 15.571 11 32.856 20.714 65.14 19.286-39.855-3.571-66.854-25.57-74.996-45.855 21.57-15.142 57.283-14.857 86.567 5.999-9.142-11.428-39.712-24.141-62.568-20.57-3.286-3.429-6.142-7.715-9.428-11.143 26.284-5.857 62.855 11 76.282 24.856-14.142-22.713-24.428-48.426-7.714-79.711 3.285 3.143 7 6.286 10.285 9.428-12.57 22.998-7.999 49.855 2.143 68.567-17.571-36.284-3.429-72.139 19.712-89.567 26.999 16.285 34.713 59.569 18.857 90.425 8.999-5.143 16.285-43.713 3.857-69.426l8.571-10.285c18.714 25.284 7.428 65.996-8.143 81.424 11.856-10.286 42.568-30.427 78.425-25.713-2.857 3.428-7.428 6.428-10.286 9.856-29.427-1.143-53.282 11.428-63.853 22.284 25.856-17.141 61.568-25.714 87.852-6.428-12.142 32.427-46.57 42.141-74.996 44.997 24.141 1.857 46.57-5.285 64.711-17.999l10.285 5.572c-7.714 7.285-18.856 14.57-34.712 16.713-15.285 2-29.713 1.429-44.997 1.715-11.856-7.714-24.05-15.376-35.906-23.089z" fill="#feffff"/>
        <path d="M318.79 276.36l-29.394 22.121-78.787-.303c.968 3.175 3.98 7.232 5.757 9.091l78.182.304 24.243-18.788 23.333 18.484h79.091c2.273-2.424 4.697-5.757 6.818-8.636l-80.152.152-29.09-22.425z" fill="#fff"/>
        <path d="M273.64 352.34c22.627 11.168 70.708 10.252 92.425-.274l-92.425.274z" fill="#fff"/>
        <path d="M221.6 314.85c.91 0 194.31-.152 194.31-.152-3.384 3.839-7.374 7.98-11.516 11.515l-172.84-.757c-3.244-2.25-7.56-7.499-9.947-10.606z" fill="#fff"/>
        <path d="M234.95 328.79l166.87.456c-3.131 2.424-5.656 5.303-9.242 7.121l-148.33-.126c-3.424-1.84-6.937-4.967-9.29-7.451z" fill="#fff"/>
        <path d="M250.15 341.21l136.36-.333c-3.636 2.335-7.727 4.822-12.272 7.006h-111.82c-3.788-1.315-8.182-4.145-12.272-6.673z" fill="#fff"/>
        <path fill="#feb700" d="M391.109 148.185l-4.912-7.212-8.476 2.1 5.341-6.903-4.613-7.404 8.212 2.941 5.618-6.682-.26 8.724 8.088 3.279-8.373 2.45z"/>
        <path fill="#feb700" d="M329.51 138.057l-9.74-6.665-9.642 6.821 3.328-11.326-9.458-7.054 11.793-.341 3.785-11.185 3.97 11.117 11.802.146-9.341 7.21z"/>
        <path fill="#feb700" d="M432.109 196.192l-8.047-3.405-5.994 6.366.75-8.707-7.899-3.729 8.507-1.98 1.103-8.672 4.514 7.483 8.585-1.629-5.718 6.604z"/>
        <path fill="#feb700" d="M246.721 148.05l4.912-7.212 8.476 2.1-5.341-6.903 4.613-7.404-8.212 2.941-5.618-6.682.26 8.724-8.088 3.279 8.373 2.45z"/>
        <path fill="#feb700" d="M203.811 195.882l8.047-3.405 5.994 6.366-.75-8.707 7.899-3.729-8.507-1.98-1.103-8.672-4.514 7.483-8.585-1.629 5.718 6.604z"/>
    </g>
</svg>
