<svg xmlns="http://www.w3.org/2000/svg" height="480" width="640"><defs><clipPath id="a"><rect fill-opacity=".67" height="480" width="640" y="32" x="-88"/></clipPath></defs><g fill-rule="evenodd" clip-path="url(#a)" transform="translate(88 -32)"><rect height="480" width="720" y="32" x="-128" fill="#199d00"/><path d="M230.79 300.78c-11.285 7.857-23.091 14.804-34.377 22.661-14.142 1-27.856 1.143-42.426.429 0 0-30.427-5.142-38.141-18.427-.429-1.286 9.856-6 9.856-6 15.571 11 32.856 20.714 65.14 19.286-39.855-3.571-66.854-25.57-74.996-45.855 21.57-15.142 57.283-14.857 86.567 5.999-9.142-11.428-39.712-24.141-62.568-20.57-3.286-3.429-6.142-7.715-9.428-11.143 26.284-5.857 62.855 11 76.282 24.856-14.142-22.713-24.428-48.426-7.714-79.711 3.285 3.143 7 6.286 10.285 9.428-12.57 22.998-7.999 49.855 2.143 68.567-17.571-36.284-3.429-72.139 19.712-89.567 26.999 16.285 34.713 59.569 18.857 90.425 8.999-5.143 16.285-43.713 3.857-69.426l8.571-10.285c18.714 25.284 7.428 65.996-8.143 81.424 11.856-10.286 42.568-30.427 78.425-25.713-2.857 3.428-7.428 6.428-10.286 9.856-29.427-1.143-53.282 11.428-63.853 22.284 25.856-17.141 61.568-25.714 87.852-6.428-12.142 32.427-46.57 42.141-74.996 44.997 24.141 1.857 46.57-5.285 64.711-17.999l10.285 5.572c-7.714 7.285-18.856 14.57-34.712 16.713-15.285 2-29.713 1.429-44.997 1.715-11.856-7.714-24.05-15.376-35.906-23.089z" fill="#feffff"/><path d="M230.79 308.36l-29.394 22.121-78.787-.303c.968 3.175 3.98 7.232 5.757 9.091l78.182.304 24.243-18.788 23.333 18.484h79.091c2.273-2.424 4.697-5.757 6.818-8.636l-80.152.152-29.09-22.425z" fill="#fff"/><path d="M185.64 384.34c22.627 11.168 70.708 10.252 92.425-.274l-92.425.274z" fill="#fff"/><path d="M133.6 346.85c.91 0 194.31-.152 194.31-.152-3.384 3.839-7.374 7.98-11.516 11.515l-172.84-.757c-3.244-2.25-7.56-7.499-9.947-10.606z" fill="#fff"/><path d="M146.95 360.79l166.87.456c-3.131 2.424-5.656 5.303-9.242 7.121l-148.33-.126c-3.424-1.84-6.937-4.967-9.29-7.451z" fill="#fff"/><path d="M162.15 373.21l136.36-.333c-3.636 2.335-7.727 4.822-12.272 7.006h-111.82c-3.788-1.315-8.182-4.145-12.272-6.673z" fill="#fff"/><polygon transform="matrix(.67 .262 -.262 .67 199.1 40.067)" points="205.58 128.74 195.57 121.89 185.66 128.9 189.08 117.26 179.36 110.01 191.48 109.66 195.37 98.165 199.45 109.59 211.58 109.74 201.98 117.15" fill="#feb700"/><polygon transform="matrix(.973 0 0 .973 41.481 44.793)" points="205.58 128.74 195.57 121.89 185.66 128.9 189.08 117.26 179.36 110.01 191.48 109.66 195.37 98.165 199.45 109.59 211.58 109.74 201.98 117.15" fill="#feb700"/><polygon transform="matrix(.706 -.143 .143 .706 180.56 166.7)" points="205.58 128.74 195.57 121.89 185.66 128.9 189.08 117.26 179.36 110.01 191.48 109.66 195.37 98.165 199.45 109.59 211.58 109.74 201.98 117.15" fill="#feb700"/><polygon transform="matrix(-.67 .262 .262 .67 262.73 39.932)" points="205.58 128.74 195.57 121.89 185.66 128.9 189.08 117.26 179.36 110.01 191.48 109.66 195.37 98.165 199.45 109.59 211.58 109.74 201.98 117.15" fill="#feb700"/><polygon transform="matrix(-.706 -.143 -.143 .706 279.36 166.39)" points="205.58 128.74 195.57 121.89 185.66 128.9 189.08 117.26 179.36 110.01 191.48 109.66 195.37 98.165 199.45 109.59 211.58 109.74 201.98 117.15" fill="#feb700"/></g></svg>