<svg xmlns="http://www.w3.org/2000/svg" id="flag-icon-css-mp" width="640" height="480">
  <defs>
    <clipPath id="a">
      <path fill-opacity=".67" d="M0 0h640v480H0z"/>
    </clipPath>
  </defs>
  <g clip-path="url(#a)">
    <path fill="#0071bc" fill-rule="evenodd" d="M-160 0h960v480h-960z"/>
    <path fill="#fff" fill-rule="evenodd" stroke="#000" stroke-width="1.86" d="M369.93 365.66s15.22-16.1 29.86-13.03c4.39-16.98 20.93-18.3 20.93-18.3s-1.61-18.73 19.61-22.83c.59-12.73 13.47-23.27 13.47-23.27s-2.63-19.76 10.83-24.3c-8.2-15.66 2.78-27.08 2.64-27.37-.15-.3-13.9-24.74-1.61-31.77-13.03-10.97-8.78-23.42-8.78-23.42s-14.2-3.66-9.08-20.64c-11.71-2.04-14.05-20.93-14.05-20.93s-18 3.66-20.2-12c-11.86 1.9-13.18-9.8-13.32-9.8-.15 0-23.57 6.29-28.25-11.42-9.08 4.68-13.03-3.66-13.03-3.66s-13.03 6.44-20.79-6c-15.51 9.66-24.15-.44-24.15-.44s-20.34 13.46-27.08 3.07c-12 12.15-22.69 6.88-22.69 6.88s-9.07 16.1-23.7 12c-3.37 14.93-20.2 15.22-20.2 15.22s1.75 13.18-18.45 16.7c-2.64 15.5-13.17 18.14-13.17 18.14s1.02 15.08-8.5 19.9c3.37 8.5-5.41 18.9-5.41 18.9s9.37 11.7-3.37 24.88c12.3 3.22 3.37 24.44 3.37 24.44s16.98 7.61 6.3 21.66c12.14 3.96 8.34 13.62 8.48 19.33 7.76 3.5 14.64 1.75 11.27 17.41 23.86 2.64 12.6 15.81 12.6 15.81s11.12.44 6.73 9.23c20.34-.44 23.27 15.22 23.27 15.22s18.88-4.98 21.37 2.34c2.49 7.32-8.2 56.65-8.2 56.65s-15.95 0-27.8-12.74c-27.82-.73-21.67-19.02-22.11-19.02-.44 0-9.22 3.36-13.76-11.86-18.6 3.8-18-11.86-18.15-12-.15-.15-8.34-3.8-5.27-11.57-19.18 1.76-17.71-16.98-17.71-16.98-4.2-1.7-5.76-5.6-5.13-9.51-2.48-.88-19.46-1.17-10.68-23.57-16.25-9.8-6.15-21.08-6.15-21.08s-22.4-11.56-5.12-24.88c-12.88-19.03 1.02-28.54 1.02-28.54s-17.86-18.15.3-31.03c-2.93-27.52 13.46-34.1 13.46-34.1s-8.63-22.4 14.79-31.77c1.46-22.7 17.85-23.28 17.85-23.28s.44-18 26.2-16.24c4.98-16.1 22.55-12.89 22.55-12.89s5.41-19.46 29.27-10.1c12.15-23.7 30.16-11.56 30.16-11.56s11.41-7.46 17.12-5.12c7.25-12.46 22.68-.49 32.66 1.93 3.62-1.41 16.52-11.15 26.48 1.14 13.17-8.63 24.44 6.88 24.44 6.88s18.15-9.22 26.64 11.86c38.5-3.52 32.94 21.66 32.94 21.66s30.3-6.88 23.71 23.27c27.52 1.9 24.74 20.06 24.74 20.06s17.42 13.17 9.8 25.03c15.52.73 9.81 15.66 9.81 15.66s11.86 4.54 2.05 22.98c22.69 18.15 4.4 36.16 4.25 36.01-.15-.15 12.15 14.64 1.02 31.62 3.37 26.93-10.24 33.81-10.24 33.81s3.5 17.42-11.71 22.4c-.3 20.49-19.62 22.98-19.62 22.98s5.12 8.9-14.05 18.27c-.76 13.71-20.79 14.81-20.79 14.81s-1.9 25.18-27.37 18.44c-6.18 20.2-36 14.2-36.6 13.9-.58-.28-5.7-43.32-5.7-43.47z"/>
    <path fill="#217900" fill-rule="evenodd" stroke="#000" stroke-linejoin="round" stroke-width="1.86" d="M184.94 124.08c.07 0 6.46 5.54 5.26 13.88-1.19 8.34-6 19.93-5.04 28.57.6 3.46.37 9.67.37 9.67s-5.78-8.22-5.86-17 6.27-17.14 6.27-23.62-1.15-11.65-1-11.5zm-3.17 2.5s-8.37 7.99-9.45 15.75c-.8 4-1.1 22.66-1.2 30.95-.19 2.54-1.24 12.57-1.46 16.21-.23 3.65 6.16-6.23 6.52-14.27-.2-8.32-.2-25.86.65-28.5.75-3.38.59-7.12 1.75-10.52 1.54-4.72 3.27-9.55 3.2-9.63z"/>
    <g fill="#ffd200" fill-rule="evenodd" stroke="#ef8a10">
      <path stroke-width="1.86" d="M365.96 100.45s10.86-5 13.96-14.33-9.4-9.42-11.04-6.45c-1.65 2.96 1.4 10.34.62 12.3-.79 1.94-5.2 6.65-3.54 8.48z"/>
      <path stroke-width="2.48" d="M269.75 103.86s7.04-9.66 5.22-19.32c-1.83-9.66-12.8-3.66-12.8-.26 0 3.4 6.27 8.35 6.53 10.44.26 2.09-1.3 8.35 1.05 9.13zm-19.06 5.74s7.05-9.66 5.22-19.32c-1.83-9.65-12.79-3.65-12.79-.26 0 3.4 6.27 8.35 6.53 10.44.26 2.1-1.3 8.36 1.04 9.14zm-21.14 6.52s7.05-9.65 5.22-19.31c-1.83-9.66-12.79-3.66-12.79-.26 0 3.39 6.26 8.35 6.53 10.44.26 2.09-1.31 8.35 1.04 9.13zM214.67 131s7.05-9.66 5.22-19.31c-1.82-9.66-12.79-3.66-12.79-.26 0 3.39 6.27 8.35 6.53 10.43.26 2.1-1.3 8.36 1.04 9.14zm-15.66 14.36s7.05-9.66 5.22-19.32-12.79-3.65-12.79-.26c0 3.4 6.27 8.35 6.53 10.44.26 2.09-1.3 8.35 1.04 9.14z"/>
      <path stroke-width="1.86" d="M235.02 61.73s-9.39 7.4-10.22 17.2c-.84 9.79 11.33 6.96 12.24 3.69.92-3.27-3.78-9.73-3.47-11.81.3-2.09 3.5-7.7 1.45-9.08zm31.32-9.66s-9.38 7.4-10.22 17.2c-.84 9.8 11.33 6.96 12.25 3.69.9-3.27-3.8-9.73-3.48-11.81.3-2.08 3.5-7.7 1.45-9.08zm-116.72 84.55s1.98 11.8 10.16 17.24c8.19 5.44 11.56-6.6 9.13-8.97s-10.35-1.36-12.03-2.63c-1.68-1.27-5.06-6.77-7.26-5.64zm-15.65 40.04s.1 11.95 7.32 18.62c7.23 6.66 12.45-4.7 10.43-7.42s-10-2.97-11.46-4.49c-1.46-1.52-3.93-7.48-6.29-6.71zm36.1 44.72s-4.27-11.17-13.37-14.89c-9.1-3.72-10.03 8.74-7.18 10.59 2.85 1.84 10.42-.71 12.31.2 1.9.92 6.3 5.64 8.23 4.1zm-7.5-19.33s7.23-9.52 5.6-19.2c-1.65-9.7-12.72-3.91-12.79-.52-.07 3.4 6.1 8.47 6.32 10.57.22 2.1-1.47 8.32.87 9.15zm225.58-91.94s10.86-5 13.96-14.33-9.4-9.42-11.05-6.46c-1.65 2.97 1.41 10.35.62 12.3-.79 1.95-5.2 6.66-3.53 8.49zm32.83 16.37s6.38-10.1 3.91-19.62c-2.47-9.51-13-2.79-12.78.6.23 3.38 6.81 7.91 7.21 9.98.4 2.06-.74 8.42 1.65 9.04zm89.6 93.03s-4.28-11.16-13.38-14.87c-9.1-3.71-10.02 8.75-7.17 10.6 2.85 1.84 10.42-.73 12.31.19 1.9.91 6.3 5.63 8.24 4.08zm-43.82 6.93s.25-11.95 7.56-18.53c7.3-6.57 12.39 4.85 10.33 7.55-2.06 2.7-10.04 2.85-11.52 4.35-1.47 1.5-4.02 7.43-6.37 6.63zm-7.05-126.76s-11.17-4.24-20 .07c-8.84 4.32-.15 13.3 3.12 12.4 3.28-.89 6.4-8.24 8.35-9.05 1.94-.8 8.4-.94 8.53-3.42zm-25.57-21.4s-11.18-4.25-20 .07c-8.84 4.31-.15 13.3 3.12 12.4 3.27-.9 6.4-8.25 8.34-9.05 1.95-.8 8.4-.95 8.54-3.42zM396 57.87s-9.47 7.29-10.43 17.07c-.96 9.78 11.25 7.1 12.2 3.84.95-3.25-3.67-9.77-3.33-11.85.33-2.08 3.6-7.65 1.56-9.06zm-24.84-5.98s-4.32 11.15-.07 20.01c4.26 8.86 13.3.24 12.43-3.04-.88-3.28-8.2-6.46-9-8.4-.79-1.96-.89-8.42-3.36-8.57zm-70.44 42.96s7.72-9.12 6.6-18.88c-1.12-9.77-12.5-4.58-12.74-1.2-.24 3.4 5.65 8.8 5.76 10.9.1 2.1-1.91 8.23.38 9.18z"/>
    </g>
    <path fill="#8c8a8c" fill-rule="evenodd" stroke="#000" stroke-width="1.86" d="M342.77 114.43s18.53 1.17 19.44 11.8-4.4 17.1-4.4 17.1 2.32 22.92-15.81 29.66c-19.44 2.33-49.88.52-49.88.52s-8.94 2.2-12.57-16.33c-3.62-18.52-4.66-31.6-4.66-31.6s1.82-10.37 14.9-11.02c13.08-.65 52.86.13 52.99-.13z"/>
    <path fill="none" stroke="#000" stroke-linecap="round" stroke-width="1.86" d="M357.67 143.2s-9.97 12.43-8.94 17.48"/>
    <path fill="#8c8a8c" fill-rule="evenodd" stroke="#000" stroke-width="1.86" d="M344.33 172.34c2.47 2.07 4.8 4.4 5.32 12.05l1.03 15.28 12.96 116.6 11.4 84.34.77 13.08s-2.72 9.59-10.36 10.37c-5.57 11.66-35.76 15.02-38.74 14.9-2.72-.14-12.3-4.15-18.13-3.63-5.83.51-15.94 4.4-20.47 3.75-4.54-.64-14.77-4.14-16.58-11.53-12.7-4.01-14.77-13.73-14.77-13.73l13.73-97.55 13.34-123.33s1.56-16.46 8.16-18.92c6.87-.65 42.37.65 52.34-1.68z"/>
    <path fill="none" stroke="#000" stroke-width="1.86" d="M274.38 341.15l-2.73 86.28m86.55-74.88l7.64 71.12"/>
    <path fill="none" stroke="#000" stroke-width=".97" d="M136.57 296.31l-.28 1m358.68-4.12l.29 1"/>
    <path fill="none" stroke="#6b18b5" stroke-linejoin="round" stroke-width="1.86" d="M126.97 179.83s5.67 7.86 6.69 12.37c1.02 4.51 2.9 13.39 5.38 17.03 2.48 3.64 16.6 23.87 17.32 32.3.15 5.54-5.82 15-14.7 15.14-5.53-.14-19.79-3.78-20.37-16-.58-12.23 4.36-12.52 4.95-19.94.58-7.43.72-40.75.72-40.9z"/>
    <path fill="none" stroke="#6b18b5" stroke-linejoin="round" stroke-width=".97" d="M224.47 72.81s-5.88.42-10.4 2.88c-3.5 2.16-9.45 5.27-13.6 11.02-10.55 8.23-26.43 12.07-31.43 18.9-3 4.65-2.82 15.83 4.7 20.57 4.8 2.75 18.87 7.05 25.72-3.1 6.85-10.14 2.77-12.96 6.13-19.6 5.54-15.23 18.8-30.54 18.88-30.67zM367 57.97s-4.39-3.93-9.3-5.48c-3.99-1.01-10.63-.57-17.51-1.24-13.25-1.86-26.92-11.45-35.3-10.29-5.43 1.08-13.34 9-11.52 17.68 1.37 5.36 7.36 16.2 19.41 14.07 12.05-2.13 11.95-4.76 19.06-6.97 17.34-9.73 35.02-7.74 35.16-7.77zm141.36 137.4c1-2.27-.83-6.52-2.12-11.5-1.26-3.92-3.14-10-7.72-15.42-5.46-12.22-4.52-28.97-9.95-35.48-3.8-4.02-14.7-6.53-21.1-.38-3.82 4-11.38 16.63-3.17 25.72 8.2 9.08 11.77 5.66 17.42 10.52 13.45 9.03 20.04 24.88 26.64 26.53zm-4.82 106.75c1.84-2.55 5.13-7.45 4.74-11.53-.31-3.24 1.48-13.04 1.68-17.32 1.21-13.32 9.55-24.14 7.28-35.72-1.34-5.36-9.2-13.02-17.79-10.78-5.29 1.62-17.06 8.1-14.35 20.03 2.72 11.94 6.57 11.74 9.12 18.73 7.32 14.46 2.64 31.64 9.32 36.59z"/>
    <path fill="none" stroke="#000" stroke-width="1.86" d="M405.49 386.83s-2.26 4.35 6.77 8.17m11.3-18.42s10.08-2.43 16.86 0m13.2-25.37c0 .17-1.4 4.52 6.6 10.77m-.87-22.06s5.91 4.34 15.81 4.17m-75.41 8.5s.35 11.48-5.56 16.86m25.37-34.58s9.73 2.44 17.72-1.56m44.66-15.29s2.09 2.96 12.86 2.44m-54.9-9.21c.34.17 12.68 4.17 20.5.52m4.17-47.79s.52-.7 4.34 12.69m5.21-50.4s-.52 7.13-6.26 10.26m42.92-39.45s-8.34 6.78-6.77 9.56m-34.75-14.43s4.34 7.3-2.78 12.34m-18.25-43.61s7.47-.35 10.77 6.08m-24.84-27.28h5.73m23.98-26.06c0 .17 1.56 1.56-1.39 4.51m-51.96-3.82s4 6.26 3.3 13.9m19.82-35.1c1.73-.17 7.64-2.78 7.64-2.78m-33.36-22.07c-.17 0-2.26 7.82 1.57 10.6m-11.13 25.02c0 8.34 6.6 6.26 2.08 14.25M382.2 97c-.18 0-10.43 8-10.43 9.39m-16.33-13.73s4.34 4.34 3.3 10.25m-15.98-13.73s-2.26 6.6-5.21 8.34m-17.9-10.07c-.18.34-3.65 7.82-6.09 9.2m-25.54-9.03c.17 0 3.48 6.95-.87 11.99m-6.43-47.96c.17.17.7 5.39-2.6 9.9m-28.68 1.92c0 .17 1.4 5.9-7.82 7.82m-9.9 45.17c.18.35 8.87 1.74 8.87 1.74M210 136.6c.18-.17 10.6-3.3 10.6-3.3m-27.45 16.33c.34 0 7.3 1.22 9.03.35m-13.9 6.08s2.26 1.22.35 12.86m-34.24-43.44l4.17 6.26m-18.41 25.89c0-.17 4.17 6.25 9.73 7.47m23.11 25.2c.17 0 6.78-1.4 7.82-2.09m-10.78 25.72c.18 0-.17-4.35 5.22-7.3M162.9 224.7c0 .17 5.03 6.43 8.51 7.3m-11.47 4.69c.53-.17 5.91-4.86 12.17-4.52m-13.9 20.68s.17 5.39 16.15 4m-14.59 14.94c0-.18 4.7-10.78 14.25-14.77m-1.39 28.33s1.4-4.52 9.39-7.65m-.53 25.54s5.74-4.7 7.82-5.39m-.69 19.3s3.47 3.64 12.16-2.61m-54.05 5.55c1.05-.17 13.73-3.12 18.08 3.48m-13.03 6.95s13.38-1.74 15.12-.35m32.67 3.13s-1.74 3.65 14.77-2.43m5.73 9.04c-2.95 5.04.7 9.04-3.13 11.3m-47.1-4.36c.53-.34 6.1-2.26 5.22-10.25m-.17 22.25c.7-.18 9.9-4.17 11.81-2.09m6.26 13.73s1.22-8.17 3.82-9.04m10.08 21.37s7.65-.17 10.95-2.6m3.82-25.02c.17.17 7.12 3.82 21.9.17M227.2 388.4s2.08 10.6 1.91 13.04"/>
    <g fill="#de2010" fill-rule="evenodd" stroke="#000" stroke-width="1.48">
      <path d="M232.84 119.03c0-2.1-.8-4.06-2.09-5.11-1.3-1.06-2.88-1.06-4.18 0s-2.09 3-2.08 5.11c0 2.1.79 4.06 2.08 5.11 1.3 1.06 2.89 1.06 4.18 0s2.1-3 2.09-5.11z" transform="matrix(1.60885 -.2011 .2072 1.65762 94.8 74.93)"/>
      <path d="M232.84 119.03c0-2.1-.8-4.06-2.09-5.11-1.3-1.06-2.88-1.06-4.18 0s-2.09 3-2.08 5.11c0 2.1.79 4.06 2.08 5.11 1.3 1.06 2.89 1.06 4.18 0s2.1-3 2.09-5.11z" transform="matrix(1.60885 -.2011 .2072 1.65762 93.36 57.27)"/>
      <path d="M232.84 119.03c0-2.1-.8-4.06-2.09-5.11-1.3-1.06-2.88-1.06-4.18 0s-2.09 3-2.08 5.11c0 2.1.79 4.06 2.08 5.11 1.3 1.06 2.89 1.06 4.18 0s2.1-3 2.09-5.11z" transform="matrix(1.58497 -.3417 .35206 1.633 78.09 74.09)"/>
      <path d="M232.84 119.03c0-2.1-.8-4.06-2.09-5.11-1.3-1.06-2.88-1.06-4.18 0s-2.09 3-2.08 5.11c0 2.1.79 4.06 2.08 5.11 1.3 1.06 2.89 1.06 4.18 0s2.1-3 2.09-5.11z" transform="matrix(1.4455 -.73446 .7567 1.4893 55.86 162.94)"/>
      <path d="M232.84 119.03c0-2.1-.8-4.06-2.09-5.11-1.3-1.06-2.88-1.06-4.18 0s-2.09 3-2.08 5.11c0 2.1.79 4.06 2.08 5.11 1.3 1.06 2.89 1.06 4.18 0s2.1-3 2.09-5.11z" transform="matrix(1.4455 -.73446 .7567 1.4893 48.88 147.13)"/>
      <path d="M232.84 119.03c0-2.1-.8-4.06-2.09-5.11-1.3-1.06-2.88-1.06-4.18 0s-2.09 3-2.08 5.11c0 2.1.79 4.06 2.08 5.11 1.3 1.06 2.89 1.06 4.18 0s2.1-3 2.09-5.11z" transform="matrix(1.3781 -.85423 .88011 1.41987 39.96 167.39)"/>
      <path d="M232.84 119.03c0-2.1-.8-4.06-2.09-5.11-1.3-1.06-2.88-1.06-4.18 0s-2.09 3-2.08 5.11c0 2.1.79 4.06 2.08 5.11 1.3 1.06 2.89 1.06 4.18 0s2.1-3 2.09-5.11z" transform="matrix(1.28907 -.98346 1.01327 1.32812 33.8 193.08)"/>
      <path d="M232.84 119.03c0-2.1-.8-4.06-2.09-5.11-1.3-1.06-2.88-1.06-4.18 0s-2.09 3-2.08 5.11c0 2.1.79 4.06 2.08 5.11 1.3 1.06 2.89 1.06 4.18 0s2.1-3 2.09-5.11z" transform="matrix(1.1329 -1.15994 1.19508 1.16722 35.34 239.04)"/>
      <path d="M232.84 119.03c0-2.1-.8-4.06-2.09-5.11-1.3-1.06-2.88-1.06-4.18 0s-2.09 3-2.08 5.11c0 2.1.79 4.06 2.08 5.11 1.3 1.06 2.89 1.06 4.18 0s2.1-3 2.09-5.11z" transform="matrix(1.02138 -1.25922 1.29739 1.05234 34.3 262.7)"/>
      <path d="M232.84 119.03c0-2.1-.8-4.06-2.09-5.11-1.3-1.06-2.88-1.06-4.18 0s-2.09 3-2.08 5.11c0 2.1.79 4.06 2.08 5.11 1.3 1.06 2.89 1.06 4.18 0s2.1-3 2.09-5.11z" transform="matrix(.79817 -1.41132 1.45408 .82236 51.9 315)"/>
      <path d="M232.84 119.03c0-2.1-.8-4.06-2.09-5.11-1.3-1.06-2.88-1.06-4.18 0s-2.09 3-2.08 5.11c0 2.1.79 4.06 2.08 5.11 1.3 1.06 2.89 1.06 4.18 0s2.1-3 2.09-5.11z" transform="matrix(.66642 -1.4781 1.52289 .6866 56.8 337.39)"/>
      <path d="M232.84 119.03c0-2.1-.8-4.06-2.09-5.11-1.3-1.06-2.88-1.06-4.18 0s-2.09 3-2.08 5.11c0 2.1.79 4.06 2.08 5.11 1.3 1.06 2.89 1.06 4.18 0s2.1-3 2.09-5.11z" transform="matrix(.56582 -1.51945 1.5655 .58296 57.9 352.4)"/>
      <path d="M232.84 119.03c0-2.1-.8-4.06-2.09-5.11-1.3-1.06-2.88-1.06-4.18 0s-2.09 3-2.08 5.11c0 2.1.79 4.06 2.08 5.11 1.3 1.06 2.89 1.06 4.18 0s2.1-3 2.09-5.11z" transform="matrix(.4482 -1.5582 1.60543 .46178 63.01 370.36)"/>
      <path d="M232.84 119.03c0-2.1-.8-4.06-2.09-5.11-1.3-1.06-2.88-1.06-4.18 0s-2.09 3-2.08 5.11c0 2.1.79 4.06 2.08 5.11 1.3 1.06 2.89 1.06 4.18 0s2.1-3 2.09-5.11z" transform="matrix(.20288 -1.60864 1.65738 .20903 94.66 408.9)"/>
      <path d="M232.84 119.03c0-2.1-.8-4.06-2.09-5.11-1.3-1.06-2.88-1.06-4.18 0s-2.09 3-2.08 5.11c0 2.1.79 4.06 2.08 5.11 1.3 1.06 2.89 1.06 4.18 0s2.1-3 2.09-5.11z" transform="matrix(.06506 -1.62008 1.66918 .06703 106.3 427.4)"/>
      <path d="M232.84 119.03c0-2.1-.8-4.06-2.09-5.11-1.3-1.06-2.88-1.06-4.18 0s-2.09 3-2.08 5.11c0 2.1.79 4.06 2.08 5.11 1.3 1.06 2.89 1.06 4.18 0s2.1-3 2.09-5.11z" transform="matrix(.06506 -1.62008 1.66918 .06703 88.85 428.01)"/>
      <path d="M232.84 119.03c0-2.1-.8-4.06-2.09-5.11-1.3-1.06-2.88-1.06-4.18 0s-2.09 3-2.08 5.11c0 2.1.79 4.06 2.08 5.11 1.3 1.06 2.89 1.06 4.18 0s2.1-3 2.09-5.11z" transform="matrix(-.36132 -1.5806 1.62852 -.37226 172.5 473.53)"/>
      <path d="M232.84 119.03c0-2.1-.8-4.06-2.09-5.11-1.3-1.06-2.88-1.06-4.18 0s-2.09 3-2.08 5.11c0 2.1.79 4.06 2.08 5.11 1.3 1.06 2.89 1.06 4.18 0s2.1-3 2.09-5.11z" transform="matrix(-.49045 -1.54542 1.59227 -.50531 188.29 485.83)"/>
      <path d="M232.84 119.03c0-2.1-.8-4.06-2.09-5.11-1.3-1.06-2.88-1.06-4.18 0s-2.09 3-2.08 5.11c0 2.1.79 4.06 2.08 5.11 1.3 1.06 2.89 1.06 4.18 0s2.1-3 2.09-5.11z" transform="matrix(-.67103 -1.476 1.52073 -.69138 221.88 499.1)"/>
      <path d="M232.84 119.03c0-2.1-.8-4.06-2.09-5.11-1.3-1.06-2.88-1.06-4.18 0s-2.09 3-2.08 5.11c0 2.1.79 4.06 2.08 5.11 1.3 1.06 2.89 1.06 4.18 0s2.1-3 2.09-5.11z" transform="matrix(-.7945 -1.41337 1.4562 -.81858 241.37 508.33)"/>
      <path d="M232.84 119.03c0-2.1-.8-4.06-2.09-5.11-1.3-1.06-2.88-1.06-4.18 0s-2.09 3-2.08 5.11c0 2.1.79 4.06 2.08 5.11 1.3 1.06 2.89 1.06 4.18 0s2.1-3 2.09-5.11z" transform="matrix(-.94339 -1.31867 1.35863 -.97197 271.64 515.4)"/>
      <path d="M232.84 119.03c0-2.1-.8-4.06-2.09-5.11-1.3-1.06-2.88-1.06-4.18 0s-2.09 3-2.08 5.11c0 2.1.79 4.06 2.08 5.11 1.3 1.06 2.89 1.06 4.18 0s2.1-3 2.09-5.11z" transform="matrix(-1.05159 -1.2341 1.27151 -1.08344 292.38 520.2)"/>
      <path d="M232.84 119.03c0-2.1-.8-4.06-2.09-5.11-1.3-1.06-2.88-1.06-4.18 0s-2.09 3-2.08 5.11c0 2.1.79 4.06 2.08 5.11 1.3 1.06 2.89 1.06 4.18 0s2.1-3 2.09-5.11z" transform="matrix(-1.13737 -1.15553 1.19056 -1.17183 308.9 526.1)"/>
      <path d="M232.84 119.03c0-2.1-.8-4.06-2.09-5.11-1.3-1.06-2.88-1.06-4.18 0s-2.09 3-2.08 5.11c0 2.1.79 4.06 2.08 5.11 1.3 1.06 2.89 1.06 4.18 0s2.1-3 2.09-5.11z" transform="matrix(-1.2301 -1.05628 1.08829 -1.26738 331.4 529.56)"/>
      <path d="M232.84 119.03c0-2.1-.8-4.06-2.09-5.11-1.3-1.06-2.88-1.06-4.18 0s-2.09 3-2.08 5.11c0 2.1.79 4.06 2.08 5.11 1.3 1.06 2.89 1.06 4.18 0s2.1-3 2.09-5.11z" transform="matrix(-1.33573 -.91908 .94693 -1.3762 362.52 526.12)"/>
      <path d="M232.84 119.03c0-2.1-.8-4.06-2.09-5.11-1.3-1.06-2.88-1.06-4.18 0s-2.09 3-2.08 5.11c0 2.1.79 4.06 2.08 5.11 1.3 1.06 2.89 1.06 4.18 0s2.1-3 2.09-5.11z" transform="matrix(-1.47374 -.67597 .69645 -1.51841 415.9 504.09)"/>
      <path d="M232.84 119.03c0-2.1-.8-4.06-2.09-5.11-1.3-1.06-2.88-1.06-4.18 0s-2.09 3-2.08 5.11c0 2.1.79 4.06 2.08 5.11 1.3 1.06 2.89 1.06 4.18 0s2.1-3 2.09-5.11z" transform="matrix(-1.52895 -.53958 .55593 -1.5753 438.68 497.52)"/>
      <path d="M232.84 119.03c0-2.1-.8-4.06-2.09-5.11-1.3-1.06-2.88-1.06-4.18 0s-2.09 3-2.08 5.11c0 2.1.79 4.06 2.08 5.11 1.3 1.06 2.89 1.06 4.18 0s2.1-3 2.09-5.11z" transform="matrix(-1.61445 -.12005 .15429 -1.33344 500.5 405.96)"/>
      <path d="M232.84 119.03c0-2.1-.8-4.06-2.09-5.11-1.3-1.06-2.88-1.06-4.18 0s-2.09 3-2.08 5.11c0 2.1.79 4.06 2.08 5.11 1.3 1.06 2.89 1.06 4.18 0s2.1-3 2.09-5.11z" transform="matrix(-1.58082 -.36035 .37125 -1.62873 468.42 480.77)"/>
    </g>
    <path fill="#ffe300" fill-rule="evenodd" d="M480.01 194.65c2.15-2.3 4.15-2.95 6.67-2.1-.89-6.07-2.8-8.13-5.14-7.4-2.34.73-3.4 3.85-1.53 9.5zm3.28 18.28c2.32-2.13 4.36-2.62 6.81-1.6-.43-6.1-2.19-8.3-4.57-7.75-2.39.55-3.67 3.58-2.24 9.35zm-7.76-34.98c1.5-2.77 3.26-3.9 5.92-3.73-2.4-5.64-4.78-7.14-6.86-5.84-2.07 1.3-2.3 4.58.94 9.57zm-8.14-16.64c1.5-2.77 3.26-3.9 5.92-3.73-2.4-5.64-4.78-7.14-6.85-5.84-2.08 1.3-2.3 4.58.93 9.57zm-19.52-30.5c1.03-2.96 2.6-4.37 5.24-4.63-3.27-5.17-5.86-6.27-7.7-4.66s-1.54 4.9 2.46 9.3zm-12.75-13.28c.91-3 2.42-4.47 5.06-4.83-3.47-5.05-6.1-6.05-7.88-4.37-1.77 1.69-1.35 4.95 2.82 9.2zm-26.83-22.64c-.06-3.14.92-5 3.32-6.15-4.85-3.73-7.66-3.88-8.83-1.73s.23 5.12 5.5 7.88zm13.96 10.47c.49-3.1 1.78-4.76 4.34-5.48-4.14-4.52-6.88-5.15-8.4-3.24-1.53 1.92-.66 5.09 4.06 8.72zm-29.89-19.25c-.38-3.12.4-5.07 2.67-6.47-5.21-3.21-8.02-3.07-8.96-.8-.94 2.25.76 5.06 6.3 7.27zM376.1 79c-.82-3.04-.32-5.08 1.72-6.79-5.62-2.43-8.38-1.89-9 .48-.6 2.37 1.49 4.91 7.28 6.3zm-17.54-5.44c-1.07-2.96-.75-5.03 1.14-6.9-5.8-1.95-8.5-1.17-8.91 1.24-.41 2.41 1.89 4.77 7.77 5.66zm-17.22-3.34c-1.29-2.86-1.11-4.96.64-6.96-5.93-1.53-8.57-.56-8.8 1.88-.24 2.44 2.23 4.62 8.16 5.08zm-18.24-1.4c-1.58-2.71-1.62-4.81-.09-6.99-6.06-.9-8.58.34-8.56 2.79.02 2.45 2.7 4.36 8.65 4.2zm-35.71 2.7c-2.19-2.26-2.74-4.29-1.78-6.77-6.1.58-8.24 2.4-7.63 4.77.61 2.37 3.67 3.58 9.4 2zm17.57-2.32c-1.86-2.53-2.13-4.61-.84-6.94-6.12-.25-8.49 1.26-8.2 3.69.28 2.43 3.15 4.04 9.05 3.25zm-34.82 6.04c-2.49-1.92-3.32-3.85-2.73-6.44-5.95 1.45-7.81 3.55-6.87 5.81.95 2.26 4.15 3.02 9.6.63zM237.1 90.44c-2.8-1.42-3.99-3.15-3.9-5.8-5.56 2.55-7 4.97-5.64 7 1.36 2.04 4.64 2.18 9.54-1.2zm15.93-8.14c-2.62-1.74-3.58-3.6-3.17-6.24-5.83 1.87-7.55 4.1-6.45 6.28 1.1 2.19 4.35 2.72 9.62-.04zm-45.55 28.76c-3.04-.8-4.56-2.25-5.02-4.87-4.91 3.67-5.81 6.33-4.06 8.04 1.75 1.71 5 1.16 9.08-3.17zm14.13-11.57c-2.97-1.03-4.37-2.6-4.63-5.24-5.18 3.27-6.28 5.85-4.67 7.7 1.61 1.83 4.9 1.54 9.3-2.46zm-26.69 23.94c-3.1-.52-4.74-1.82-5.44-4.39-4.56 4.1-5.21 6.83-3.31 8.37 1.9 1.54 5.08.7 8.75-3.98zm-11.25 14.6c-3.14-.23-4.9-1.38-5.82-3.88-4.17 4.5-4.57 7.28-2.54 8.64 2.03 1.37 5.13.24 8.36-4.76zm-9.42 14.94c-3.13.24-5.04-.62-6.34-2.94-3.43 5.07-3.4 7.88-1.19 8.92 2.22 1.04 5.1-.55 7.53-5.98zM166 168.92c-3.08.65-5.09.04-6.68-2.1-2.74 5.48-2.35 8.27-.01 9 2.33.75 4.98-1.2 6.69-6.9zm-6.62 16.37c-2.93 1.13-5.01.84-6.92-1.01-1.84 5.84-1 8.53 1.41 8.89 2.42.36 4.73-1.98 5.51-7.88zm-4.43 18.23c-2.85 1.32-4.94 1.18-6.97-.54-1.44 5.95-.44 8.57 2 8.77 2.44.2 4.59-2.3 4.97-8.23zm-1.8 15.18c-2.68 1.42-4.77 1.6-6.97.52-.8 4.85.48 6.77 2.92 6.6 2.44-.18 4.3-2.42 4.05-7.12zm306.99-72.22c1.07-2.95 2.65-4.33 5.3-4.55-3.2-5.23-5.76-6.37-7.63-4.78-1.86 1.59-1.6 4.87 2.33 9.33zm25.16 84.99c2.32-2.13 4.36-2.63 6.81-1.6-.43-6.11-2.19-8.3-4.57-7.75-2.38.55-3.67 3.57-2.23 9.35z"/>
    <path fill="#217900" fill-rule="evenodd" stroke="#000" stroke-linejoin="round" stroke-width="1.86" d="M461.32 132.01c-.07 0-6.93 6.85-5.74 15.2 1.2 8.33 6.48 18.61 5.52 27.25-.97 8.64-2.54 14.37-2.54 14.37s8.05-9.16 8.12-17.95c.08-8.78-5.5-20.33-5.5-26.8s.29-12.22.14-12.07zm12.73 28s-5.36 3.94-4.84 13.03c.52 9.08 9.9 25.77 9.9 25.77s6.86 14.07 6.63 17.72c-.22 3.65 1.27-3.5.6-11.54s-11.02-25.77-11.02-25.77-2.24-3.65-2.01-9.68c.22-6.03.82-9.46.74-9.53z"/>
    <path fill="#6b18b5" fill-rule="evenodd" d="M312.93 47.43c0-1.88-2.12-3.4-4.73-3.4s-4.72 1.52-4.72 3.4 2.11 3.4 4.72 3.4 4.73-1.52 4.73-3.4zm2.01 7.92c0-1.8-2.17-3.27-4.86-3.27-2.68 0-4.86 1.47-4.86 3.27s2.18 3.26 4.86 3.26c2.69 0 4.87-1.46 4.87-3.26zm6.04-9.38s-5.55 4.17-3.26 5.84c2.3 1.66 8.61-3.62 8.61-3.62l-5.35-2.22zm163.34 95.43c0-1.18-.55-2.28-1.46-2.87a2.62 2.62 0 0 0-2.92 0c-.9.59-1.45 1.69-1.45 2.87 0 1.19.55 2.28 1.45 2.87a2.62 2.62 0 0 0 2.92 0c.9-.59 1.46-1.69 1.46-2.87zm-2.12-7.95c0-1.97-1.37-3.57-3.05-3.57s-3.05 1.6-3.05 3.58 1.36 3.57 3.05 3.57 3.05-1.6 3.05-3.57zm1.46 16.17c0-1.03-.54-1.86-1.2-1.86s-1.19.83-1.19 1.86.54 1.85 1.2 1.85 1.19-.83 1.19-1.85zm4.9-14.45c0-1.17-.54-2.12-1.2-2.12-.65 0-1.19.95-1.19 2.12s.54 2.12 1.2 2.12c.65 0 1.19-.95 1.19-2.12zm-13.39 1.46c0-.95-.53-1.72-1.19-1.72s-1.2.77-1.2 1.72.54 1.72 1.2 1.72 1.2-.77 1.2-1.72zm2.13 11.4c0-1.54-1.13-2.78-2.52-2.78s-2.52 1.24-2.52 2.78c0 1.54 1.13 2.79 2.52 2.79s2.52-1.25 2.52-2.79zm-6.63-5.04c0-1.31-.95-2.38-2.12-2.38-1.18 0-2.12 1.07-2.12 2.38s.94 2.39 2.12 2.39c1.17 0 2.12-1.07 2.12-2.39zm-1.06-6.76c0-.7-.35-1.37-.92-1.72a1.75 1.75 0 0 0-1.86 0 2.02 2.02 0 0 0-.93 1.72c0 .71.35 1.37.93 1.73a1.75 1.75 0 0 0 1.86 0c.57-.36.92-1.02.92-1.73zm30.2 34.37c-2.73-3.62-7.11-5.14-9.78-3.4-2.67 1.73-2.61 6.07.13 9.68 2.73 3.61 7.11 5.13 9.78 3.4 2.67-1.74 2.62-6.07-.12-9.68zm7.79 66.65c.53-4.43-1.63-8.34-4.83-8.72-3.2-.38-6.22 2.9-6.75 7.33-.53 4.44 1.63 8.34 4.83 8.72 3.2.39 6.22-2.9 6.75-7.33zm1.64 38.8c.91-4.38-.9-8.45-4.06-9.11-3.15-.66-6.44 2.35-7.35 6.72-.91 4.37.9 8.45 4.05 9.1 3.16.67 6.45-2.34 7.36-6.72zm7.48-36.32c0-1.76-1.19-3.18-2.65-3.18s-2.65 1.42-2.65 3.18c0 1.76 1.18 3.18 2.65 3.18s2.65-1.42 2.65-3.18zm-6.5 7.3l-5.43 6.15s-5.1.14-4.83 1.8c.26 1.65 7.02 6.62 6.95 8.6-.06 2 4.51-.46 4.51-.46s3.64-11.06 3.64-11.13c0-.06-.2-7.69-2.18-7.55-1.99.13-2.53 2.44-2.65 2.58zm-357.38-2.44a2.59 2.59 0 1 0-5.18 0 2.59 2.59 0 0 0 5.18 0zm2.43-7.9c0-1.51-1.15-2.74-2.58-2.74s-2.59 1.23-2.59 2.73 1.16 2.73 2.59 2.73a2.66 2.66 0 0 0 2.58-2.73zm-21.23-37.58c-.97-2.18-2.99-3.39-4.51-2.71-1.52.68-1.97 3-1 5.17s2.99 3.38 4.51 2.7c1.52-.68 1.97-2.99 1-5.16zm6.41 23.4c-1.33-2.81-4.1-4.38-6.2-3.5s-2.7 3.88-1.37 6.7 4.11 4.38 6.2 3.5 2.7-3.88 1.37-6.7zm6.87 17.18c.43-3.52-1.03-6.76-3.26-7.22-2.23-.47-4.39 2-4.82 5.52-.43 3.52 1.03 6.75 3.26 7.22 2.23.47 4.39-2 4.82-5.52zm-11.02 2.5c1.38-3.26.86-6.77-1.15-7.83s-4.77.72-6.15 3.99-.86 6.77 1.15 7.83 4.77-.72 6.15-3.99z"/>
    <path fill="#6b18b5" fill-rule="evenodd" d="M131.28 234.81c0-1.66-1.28-3.01-2.87-3.01s-2.88 1.35-2.88 3.01 1.3 3.02 2.88 3.02 2.87-1.35 2.87-3.02zm-2.3-7.46c0-1.51-1.15-2.73-2.58-2.73a2.66 2.66 0 0 0-2.59 2.73c0 1.5 1.16 2.73 2.59 2.73s2.58-1.23 2.58-2.74zm2.45-14.37c0-2.54-1.13-4.6-2.52-4.6-1.38 0-2.5 2.06-2.5 4.6 0 2.54 1.12 4.6 2.5 4.6s2.52-2.06 2.52-4.6zm7.73-1.1c.34-2.52-.5-4.71-1.88-4.9-1.38-.18-2.76 1.71-3.1 4.23-.33 2.52.51 4.7 1.89 4.89 1.37.18 2.76-1.71 3.1-4.23zm55.13-109.99c1.02-3.56-.04-7.14-2.36-8-2.33-.85-5.05 1.35-6.08 4.9-1.02 3.57.04 7.16 2.36 8.01 2.33.86 5.05-1.34 6.08-4.9zm-10.47 15.87c3.07-2.62 4.38-6.23 2.93-8.07-1.45-1.85-5.12-1.23-8.2 1.39s-4.37 6.22-2.92 8.07c1.45 1.84 5.12 1.22 8.19-1.4zm-6.11-8.8c3.03-2.25 4.33-5.35 2.9-6.94s-5.07-1.04-8.1 1.2c-3.04 2.24-4.34 5.34-2.9 6.93s5.06 1.05 8.1-1.2zm23.55-15.5c2.05-1.56 2.92-3.72 1.95-4.83-.97-1.1-3.41-.73-5.46.84s-2.92 3.73-1.95 4.83c.96 1.1 3.4.73 5.46-.83z"/>
    <path fill="#6b18b5" fill-rule="evenodd" d="M188.98 108.47c1.4-2.16 1.5-4.5.2-5.21-1.28-.71-3.45.46-4.85 2.63s-1.5 4.5-.21 5.2c1.28.72 3.46-.45 4.86-2.62zm17.72-9.27c2.2-1.86 3.06-4.32 1.91-5.5-1.14-1.17-3.85-.62-6.06 1.24s-3.06 4.31-1.91 5.49c1.14 1.17 3.85.62 6.06-1.23zm-32.02 21.63c2.06-.1 3.61-1.13 3.47-2.3-.14-1.16-1.93-2.01-3.98-1.91-2.06.1-3.62 1.13-3.47 2.29.14 1.16 1.92 2.02 3.98 1.92zm38.76-33.13c1.4-2.16 1.5-4.5.21-5.2-1.28-.72-3.46.45-4.86 2.62s-1.5 4.5-.21 5.2c1.28.72 3.46-.45 4.86-2.62z"/>
    <path fill="#ffd200" fill-rule="evenodd" stroke="#ef8a10" stroke-width=".97" d="M446.83 153.38s6.39-10.11 3.92-19.63c-2.47-9.51-13-2.79-12.78.6.22 3.38 6.8 7.91 7.2 9.98.4 2.07-.74 8.42 1.66 9.04z"/>
    <path fill="#217900" fill-rule="evenodd" stroke="#000" stroke-linejoin="round" stroke-width="2.32" d="M324.88 69.3s23.01.9 23.16 15.8c-.07 2.3 0 5.05-.82 11.68 4.55-2.46 7.6-9.3 7-13.7.08-15.12-20.55-25.47-29.34-13.78z"/>
    <path fill="#217900" fill-rule="evenodd" stroke="#000" stroke-linejoin="round" stroke-width="2.32" d="M310.29 68.63s18.54-3.87 18.7 11.02c.14 14.9-5.9 17.28-5.9 17.28s14.23-3.05 14.3-18.17c.08-15.12-18.31-21.82-27.1-10.13z"/>
    <path fill="#f7df73" fill-rule="evenodd" stroke="#000" stroke-linejoin="round" stroke-width="2.48" d="M373.28 389.95s86.8-24.52 113-131.04c-15.21 109.34-110.18 144-110.18 144l-2.82-12.96z"/>
    <path fill="#8c1800" fill-rule="evenodd" d="M382.19 396.58c2.68 0 9.32-7.34 13.13-8.19 3.81-.84 4.23-4.66-.14-4.8-4.38-.14-8.2 4.95-8.2 4.95s-3.8 3.24-7.76 3.67c-3.95.42-1.41 5.36 2.97 4.37z"/>
    <path fill="#8c1800" fill-rule="evenodd" stroke="#8c1800" stroke-width="2.48" d="M432.17 359.3s-9.04 5.22-7.77 6.5c1.27 1.26 9.32-4.95 9.46-5.09.14-.14 3.4-4.1-1.7-1.41z"/>
    <path fill="#8c1800" fill-rule="evenodd" d="M400.68 383.04s-2.69-1 4.23-3.67c6.92-2.69 6.5-5.8 8.76-7.07 2.26-1.27 7.06-4.66 8.05-2.68s-5.09 5.93-6.5 6.36c-1.41.42-8.33 6.77-10.3 7.34-1.98.56-3.4.28-4.24-.28z"/>
    <path fill="none" stroke="#8c1800" stroke-linecap="round" stroke-width="3.02" d="M445.58 346.04c-5.93 6.63-5.93 6.49-5.93 6.49"/>
    <path fill="none" stroke="#8c1800" stroke-linecap="round" stroke-width="2.79" d="M454.49 335.16l-5.65 6.92"/>
    <path fill="none" stroke="#8c1800" stroke-linecap="round" stroke-width="2.55" d="M463.37 321.04l-6.35 10.17"/>
    <path fill="none" stroke="#8c1800" stroke-linecap="round" stroke-width="2.32" d="M470.86 306.64l-5.23 10.45m8.62-18.08l-1.7 3.67"/>
    <path fill="none" stroke="#8c1800" stroke-linecap="round" stroke-width="1.39" d="M478.06 288.99l-1.42 4.37"/>
    <path fill="#f7df73" fill-rule="evenodd" stroke="#000" stroke-linejoin="round" stroke-width="1.48" d="M160.26 215.97s51.96-14.68 67.65-78.44c-9.11 65.45-65.96 86.2-65.96 86.2l-1.69-7.76z" transform="matrix(-1.65528 0 0 1.70062 524.8 20.38)"/>
    <path fill="#8c1800" fill-rule="evenodd" d="M250.7 394.42c-2.66 0-9.24-7.48-13.01-8.34-3.78-.86-4.2-4.74.14-4.89 4.33-.14 8.11 5.03 8.11 5.03s3.78 3.3 7.7 3.74c3.91.43 1.4 5.46-2.94 4.46z"/>
    <path fill="#8c1800" fill-rule="evenodd" stroke="#8c1800" stroke-width="1.48" d="M195.51 197.62s-5.41 3.13-4.65 3.89c.76.76 5.58-2.96 5.66-3.04.09-.09 2.03-2.46-1.01-.85z" transform="matrix(-1.65528 0 0 1.70062 524.8 20.38)"/>
    <path fill="#8c1800" fill-rule="evenodd" d="M232.37 380.62s2.66-1-4.2-3.73-6.43-5.9-8.67-7.2c-2.24-1.28-7-4.73-7.97-2.72s5.03 6.04 6.43 6.47c1.4.43 8.26 6.9 10.22 7.47 1.95.58 3.35.29 4.2-.29z"/>
    <path fill="none" stroke="#8c1800" stroke-linecap="round" stroke-width="1.81" d="M203.54 189.68c-3.55 3.97-3.55 3.89-3.55 3.89" transform="matrix(-1.65528 0 0 1.70062 524.8 20.38)"/>
    <path fill="none" stroke="#8c1800" stroke-linecap="round" stroke-width="1.67" d="M208.87 183.17l-3.38 4.14" transform="matrix(-1.65528 0 0 1.70062 524.8 20.38)"/>
    <path fill="none" stroke="#8c1800" stroke-linecap="round" stroke-width="1.53" d="M214.19 174.72l-3.8 6.09" transform="matrix(-1.65528 0 0 1.70062 524.8 20.38)"/>
    <path fill="none" stroke="#8c1800" stroke-linecap="round" stroke-width="1.39" d="M218.67 166.1l-3.13 6.25m5.16-10.82l-1.01 2.2" transform="matrix(-1.65528 0 0 1.70062 524.8 20.38)"/>
    <path fill="none" stroke="#8c1800" stroke-linecap="round" stroke-width=".83" d="M222.98 155.53l-.84 2.62" transform="matrix(-1.65528 0 0 1.70062 524.8 20.38)"/>
    <path fill="#217900" fill-rule="evenodd" stroke="#000" stroke-linejoin="round" stroke-width="2.32" d="M490.42 239.3c.43 6.68 6.97 13.08 4.4 24.74-3.26 13.22-14.78 44.64-12.79 50.19-3.4-4.7-2.84-9.1-3.12-15.64-.29-6.54 9.52-30.85 10.37-39.1 0-7.4.71-17.49 1.14-20.19z"/>
    <path fill="#217900" fill-rule="evenodd" stroke="#000" stroke-linejoin="round" stroke-width="2.32" d="M490.42 239.44s10.66 13.5 10.1 24.17c-.57 10.66-6.55 23.17-4.56 28.72-3.4-4.7-4.26-7.68-4.54-14.22-.29-6.54 5.26-13.79 4.12-20.9-1.14-7.1-5.26-17.77-5.12-17.77zm-349.3 2.99c-.42 6.68-5.4 12.65-2.84 24.3 3.27 13.23 14.93 30 13.08 49.2 3.41-4.7 4.4-9.95 4.7-16.5.28-6.53-12.95-28.57-13.8-36.81 0-7.4-.71-17.5-1.14-20.2z"/>
    <path fill="#217900" fill-rule="evenodd" stroke="#000" stroke-linejoin="round" stroke-width="2.32" d="M141.12 242.57s-10.38 13.08-9.8 23.75c.13 7.1 13.21 36.82 11.22 42.36 3.42-4.69 4.41-4.12 4.27-11.23-3.84-18.2-10.66-29.85-9.53-36.96 1.14-7.11 3.98-17.91 3.84-17.91z"/>
    <path fill="#fff" stroke="#000" stroke-dashoffset="1" stroke-linecap="square" stroke-linejoin="round" stroke-width="1.66" d="M99.96 125.78l22.17 68.23h71.74l-58.04 42.18L158 304.42l-58.04-42.15-58.04 42.16 22.16-68.23-58.04-42.17H77.8z" transform="matrix(1.16516 0 0 1.16534 201.97 -23.62)"/>
  </g>
</svg>
