<svg xmlns="http://www.w3.org/2000/svg" height="480" width="640" version="1"><defs><clipPath id="a"><rect fill-opacity=".67" height="480" width="640"/></clipPath></defs><g clip-path="url(#a)"><rect fill-rule="evenodd" height="480" width="960" x="-160" fill="#0071bc"/><g transform="matrix(.87 0 0 .87 -111.69 24.153)"><path d="M553.43 392.43s17.493-18.502 34.313-14.97c5.046-19.511 24.053-21.025 24.053-21.025s-1.85-21.53 22.539-26.239c.673-14.634 15.475-26.744 15.475-26.744s-3.028-22.707 12.447-27.921c-9.419-17.998 3.196-31.118 3.028-31.454-.168-.336-15.979-28.426-1.85-36.5-14.97-12.615-10.092-26.912-10.092-26.912s-16.316-4.205-10.429-23.717c-13.456-2.355-16.147-24.053-16.147-24.053s-20.689 4.205-23.212-13.793c-13.624 2.187-15.138-11.269-15.306-11.269-.168 0-27.081 7.233-32.463-13.12-10.428 5.383-14.97-4.205-14.97-4.205s-14.97 7.401-23.885-6.896c-17.829 11.101-27.753-.505-27.753-.505s-23.38 15.475-31.117 3.532c-13.793 13.961-26.071 7.906-26.071 7.906s-10.429 18.502-27.249 13.792c-3.869 17.157-23.212 17.493-23.212 17.493s2.018 15.138-21.193 19.175c-3.028 17.829-15.138 20.857-15.138 20.857s1.177 17.325-9.756 22.875c3.869 9.756-6.223 21.698-6.223 21.698s10.765 13.456-3.869 28.594c14.129 3.7 3.869 28.09 3.869 28.09s19.511 8.746 7.233 24.894c13.961 4.542 9.588 15.643 9.756 22.203 8.915 4.037 16.82 2.018 12.952 20.016 27.417 3.028 14.465 18.166 14.465 18.166s12.783.505 7.737 10.597c23.38-.504 26.744 17.493 26.744 17.493s21.698-5.719 24.558 2.691c2.859 8.41-9.419 65.094-9.419 65.094s-18.334 0-31.958-14.633c-31.958-.841-24.894-21.866-25.399-21.866-.505 0-10.597 3.869-15.811-13.624-21.362 4.373-20.689-13.624-20.857-13.792-.168-.168-9.588-4.373-6.055-13.288-22.034 2.018-20.352-19.511-20.352-19.511-4.822-1.962-6.616-6.448-5.887-10.933-2.859-1.009-22.371-1.346-12.279-27.08-18.67-11.27-7.064-24.221-7.064-24.221s-25.735-13.288-5.887-28.594c-14.802-21.866 1.177-32.799 1.177-32.799s-20.521-20.857.336-35.659c-3.364-31.622 15.475-39.191 15.475-39.191s-9.924-25.735 16.988-36.5c1.682-26.071 20.521-26.744 20.521-26.744s.505-20.689 30.108-18.67c5.719-18.502 25.903-14.802 25.903-14.802s6.223-22.371 33.64-11.606c13.961-27.249 34.65-13.288 34.65-13.288s13.12-8.578 19.68-5.887c8.33-14.315 26.063-.555 37.529 2.215 4.155-1.616 18.987-12.812 30.425 1.317 15.138-9.924 28.09 7.905 28.09 7.905s20.857-10.596 30.613 13.624c44.237-4.037 37.845 24.894 37.845 24.894s34.818-7.905 27.249 26.744c31.622 2.187 28.426 23.044 28.426 23.044s20.016 15.138 11.269 28.762c17.829.841 11.269 17.998 11.269 17.998s13.624 5.214 2.355 26.408c26.071 20.857 5.046 41.546 4.878 41.378-.168-.168 13.961 16.82 1.177 36.332 3.869 30.949-11.774 38.855-11.774 38.855s4.037 20.016-13.456 25.735c-.336 23.548-22.539 26.408-22.539 26.408s5.887 10.229-16.147 20.994c-.869 15.757-23.885 17.02-23.885 17.02s-2.187 28.931-31.454 21.193c-7.103 23.212-41.378 16.316-42.05 15.979-.673-.337-6.56-49.788-6.56-49.956z" fill-rule="evenodd" stroke="#000" stroke-width="2.134" fill="#fff"/><path stroke-linejoin="round" d="M340.86 114.83c.086 0 7.418 6.359 6.048 15.944-1.369 9.585-6.904 22.908-5.792 32.834.68 3.979.423 11.11.423 11.11s-6.647-9.445-6.733-19.543 7.198-19.686 7.198-27.131-1.316-13.385-1.144-13.214z" fill-rule="evenodd" stroke="#000" stroke-width="2.134" fill="#217900"/><path stroke-linejoin="round" d="M337.22 117.69s-9.622 9.185-10.861 18.112c-.915 4.601-1.27 26.041-1.378 35.556-.216 2.92-1.426 14.444-1.683 18.637-.257 4.193 7.078-7.158 7.497-16.4-.23-9.567-.23-29.717.743-32.745.865-3.893.677-8.194 2.015-12.098 1.77-5.418 3.753-10.976 3.667-11.062z" fill-rule="evenodd" stroke="#000" stroke-width="2.134" fill="#217900"/><g fill-rule="evenodd" stroke="#ef8a10" fill="#ffd200"><path d="M548.877 87.677s12.475-5.755 16.041-16.472-10.796-10.82-12.694-7.414c-1.897 3.407 1.618 11.888.713 14.13-.906 2.242-5.981 7.655-4.06 9.755z"/><path d="M438.31 91.587s8.098-11.098 5.999-22.196c-2.1-11.098-14.697-4.199-14.697-.3s7.199 9.598 7.499 11.998c.3 2.399-1.5 9.598 1.2 10.498z"/><path d="M416.415 98.186s8.098-11.098 5.999-22.196c-2.1-11.098-14.697-4.199-14.697-.3s7.199 9.598 7.499 11.998c.3 2.399-1.5 9.598 1.2 10.498z"/><path d="M392.121 105.684s8.098-11.098 5.999-22.196c-2.1-11.098-14.697-4.199-14.697-.3s7.199 9.598 7.499 11.998c.3 2.399-1.5 9.598 1.2 10.498z"/><path d="M375.025 122.78s8.098-11.098 5.999-22.196c-2.1-11.098-14.697-4.199-14.697-.3s7.199 9.598 7.499 11.998c.3 2.399-1.5 9.598 1.2 10.498z"/><path d="M357.029 139.277s8.098-11.098 5.999-22.196c-2.1-11.098-14.697-4.199-14.697-.3s7.199 9.598 7.499 11.998c.3 2.399-1.5 9.598 1.2 10.498z"/><path d="M398.406 43.176s-10.785 8.511-11.747 19.764c-.962 11.253 13.026 7.997 14.075 4.241 1.049-3.756-4.352-11.181-3.996-13.572.356-2.392 4.026-8.841 1.668-10.434z"/><path d="M434.398 32.077s-10.785 8.511-11.747 19.764c-.962 11.253 13.026 7.997 14.075 4.241 1.049-3.756-4.352-11.181-3.996-13.572.356-2.392 4.026-8.841 1.668-10.434z"/><path d="M300.27 129.24s2.278 13.548 11.683 19.803c9.405 6.254 13.275-7.577 10.486-10.302s-11.896-1.559-13.822-3.021c-1.926-1.462-5.817-7.78-8.347-6.478z"/><path d="M282.295 175.243s.111 13.738 8.412 21.398c8.3 7.66 14.304-5.388 11.98-8.519s-11.501-3.417-13.172-5.165c-1.671-1.748-4.516-8.601-7.22-7.714z"/><path d="M323.766 226.636s-4.903-12.834-15.356-17.112c-10.453-4.278-11.521 10.045-8.25 12.167 3.271 2.122 11.97-.816 14.146.238 2.176 1.054 7.236 6.481 9.46 4.706z"/><path d="M315.151 204.427s8.313-10.938 6.43-22.075c-1.883-11.136-14.613-4.485-14.689-.586-.076 3.899 7.01 9.736 7.264 12.141.253 2.405-1.686 9.567.995 10.519z"/><path d="M574.37 98.774s12.475-5.755 16.041-16.472-10.796-10.82-12.694-7.414c-1.897 3.407 1.618 11.888.713 14.13-.906 2.242-5.981 7.655-4.06 9.755z"/><path d="M612.09 117.59s7.338-11.615 4.501-22.548c-2.837-10.933-14.945-3.207-14.684.684.261 3.891 7.824 9.095 8.284 11.469.46 2.374-.855 9.677 1.899 10.394z"/><path d="M715.057 224.486s-4.921-12.827-15.38-17.09c-10.459-4.264-11.508 10.06-8.233 12.178 3.274 2.117 11.969-.832 14.147.219 2.178 1.051 7.245 6.472 9.467 4.693z"/><path d="M664.706 232.453s.285-13.735 8.682-21.29c8.397-7.554 14.235 5.568 11.871 8.669-2.364 3.101-11.543 3.271-13.236 4.997-1.693 1.727-4.624 8.543-7.317 7.623z"/><path d="M656.605 86.793s-12.843-4.878-22.991.079c-10.149 4.957-.167 15.284 3.594 14.254 3.761-1.03 7.355-9.478 9.59-10.402 2.235-.923 9.653-1.089 9.808-3.931z"/><path d="M627.216 62.198s-12.843-4.878-22.991.079c-10.149 4.957-.167 15.284 3.594 14.254 3.761-1.03 7.355-9.478 9.59-10.402 2.235-.923 9.653-1.089 9.808-3.931z"/><path d="M583.392 38.744s-10.888 8.378-11.988 19.618c-1.1 11.241 12.927 8.156 14.022 4.414 1.095-3.742-4.214-11.233-3.829-13.62.386-2.387 4.134-8.791 1.795-10.412z"/><path d="M554.847 31.878s-4.965 12.81-.077 22.991c4.889 10.182 15.283.271 14.278-3.497-1.005-3.768-9.428-7.419-10.337-9.66-.908-2.241-1.024-9.66-3.865-9.834z"/><path d="M473.898 81.24s8.881-10.482 7.59-21.703c-1.29-11.221-14.354-5.253-14.636-1.364-.283 3.889 6.484 10.094 6.61 12.509.125 2.415-2.191 9.464.436 10.557z"/></g><path d="M522.23 103.74s21.288 1.34 22.33 13.547l-5.061 19.651s2.68 26.35-18.162 34.091c-22.33 2.68-57.314.596-57.314.596s-10.272 2.531-14.44-18.757c-4.168-21.288-5.359-36.324-5.359-36.324s2.084-11.91 17.12-12.654c15.036-.744 60.738.149 60.887-.149z" fill-rule="evenodd" stroke="#000" stroke-width="2.134" fill="#8c8a8c"/><path d="M539.35 136.79s-11.463 14.291-10.272 20.097" stroke="#000" stroke-linecap="round" stroke-width="2.134" fill="none"/><path d="M524.02 170.28c2.829 2.382 5.508 5.061 6.104 13.845.595 8.783 1.191 17.567 1.191 17.567l14.887 133.98 13.1 96.914.893 15.036s-3.126 11.016-11.909 11.909c-6.401 13.398-41.088 17.269-44.512 17.12-3.126-.149-14.143-4.764-20.842-4.168-6.699.595-18.311 5.061-23.521 4.317-5.21-.744-16.971-4.764-19.055-13.249-14.589-4.615-16.971-15.78-16.971-15.78l15.78-112.1 15.333-141.72s1.786-18.906 9.379-21.735c7.89-.744 48.68.744 60.143-1.935z" fill-rule="evenodd" stroke="#000" stroke-width="2.134" fill="#8c8a8c"/><path d="M443.63 364.26l-3.126 99.147" stroke="#000" stroke-width="2.134" fill="none"/><path d="M539.95 377.36l8.783 81.729" stroke="#000" stroke-width="2.134" fill="none"/><path d="M285.28 312.74l-.327 1.144" stroke="#000" stroke-width="1.112" fill="none"/><path d="M697.12 309.15l.327 1.144" stroke="#000" stroke-width="1.112" fill="none"/><path stroke-linejoin="round" d="M274.24 178.89s6.522 9.031 7.693 14.215c1.171 5.184 3.345 15.386 6.188 19.566 2.843 4.181 19.065 27.427 19.901 37.126.167 6.355-6.689 17.225-16.891 17.392-6.355-.167-22.744-4.348-23.413-18.396-.669-14.048 5.017-14.382 5.686-22.911.669-8.529.836-46.826.836-46.993z" stroke="#6b18b5" stroke-width="2.134" fill="none"/><path stroke-linejoin="round" d="M386.28 55.917s-6.753.482-11.951 3.3c-4.028 2.484-10.851 6.057-15.619 12.668-12.127 9.454-30.371 13.865-36.125 21.719-3.444 5.343-3.233 18.194 5.397 23.636 5.517 3.159 21.693 8.101 29.562-3.555 7.87-11.656 3.185-14.896 7.044-22.531 6.368-17.502 21.605-35.094 21.692-35.237z" stroke="#6b18b5" stroke-width="1.112" fill="none"/><path stroke-linejoin="round" d="M550.08 38.857s-5.043-4.516-10.684-6.29c-4.586-1.166-12.224-.659-20.128-1.434-15.227-2.136-30.926-13.148-40.57-11.818-6.234 1.242-15.319 10.334-13.226 20.319 1.568 6.161 8.458 18.62 22.306 16.166 13.848-2.455 13.728-5.475 21.898-8.014 19.926-11.173 40.241-8.891 40.404-8.928z" stroke="#6b18b5" stroke-width="1.112" fill="none"/><path stroke-linejoin="round" d="M712.52 196.74c1.137-2.598-.957-7.482-2.444-13.206-1.444-4.507-3.599-11.501-8.871-17.718-6.265-14.042-5.191-33.299-11.433-40.771-4.359-4.627-16.885-7.507-24.24-.437-4.391 4.597-13.073 19.112-3.648 29.551 9.425 10.438 13.532 6.506 20.017 12.086 15.461 10.385 23.032 28.589 30.62 30.494z" stroke="#6b18b5" stroke-width="1.112" fill="none"/><path stroke-linejoin="round" d="M706.98 319.41c2.111-2.923 5.892-8.557 5.442-13.249-.356-3.716 1.703-14.982 1.928-19.897 1.397-15.313 10.982-27.742 8.376-41.046-1.542-6.167-10.575-14.964-20.447-12.391-6.078 1.864-19.61 9.31-16.489 23.023 3.121 13.713 7.552 13.486 10.482 21.523 8.413 16.616 3.03 36.354 10.708 42.036z" stroke="#6b18b5" stroke-width="1.112" fill="none"/><path d="M594.29 416.76s-2.596 4.992 7.787 9.385" stroke="#000" stroke-width="2.134" fill="none"/><path d="M615.06 404.98s11.581-2.795 19.368 0" stroke="#000" stroke-width="2.134" fill="none"/><path d="M649.6 375.82c0 .2-1.597 5.192 7.588 12.38" stroke="#000" stroke-width="2.134" fill="none"/><path d="M656.19 362.85s6.789 4.992 18.17 4.792" stroke="#000" stroke-width="2.134" fill="none"/><path d="M587.7 377.42s.399 13.178-6.389 19.368" stroke="#000" stroke-width="2.134" fill="none"/><path d="M610.46 357.05s11.182 2.795 20.367-1.797" stroke="#000" stroke-width="2.134" fill="none"/><path d="M682.15 337.69s2.396 3.394 14.776 2.796" stroke="#000" stroke-width="2.134" fill="none"/><path d="M633.83 329.9c.399.2 14.576 4.792 23.562.599" stroke="#000" stroke-width="2.134" fill="none"/><path d="M662.18 275.59s.599-.799 4.992 14.576" stroke="#000" stroke-width="2.134" fill="none"/><path d="M673.16 232.26s-.599 8.187-7.188 11.781" stroke="#000" stroke-width="2.134" fill="none"/><path d="M715.29 198.71s-9.584 7.787-7.787 10.982" stroke="#000" stroke-width="2.134" fill="none"/><path d="M667.57 193.12s4.992 8.386-3.195 14.177" stroke="#000" stroke-width="2.134" fill="none"/><path d="M643.41 157.18s8.586-.4 12.38 6.989" stroke="#000" stroke-width="2.134" fill="none"/><path d="M627.24 132.82h6.589" stroke="#000" stroke-width="2.134" fill="none"/><path d="M661.38 102.87c0 .2 1.797 1.797-1.597 5.191" stroke="#000" stroke-width="2.134" fill="none"/><path d="M600.08 103.67s4.593 7.188 3.794 15.974" stroke="#000" stroke-width="2.134" fill="none"/><path d="M626.64 79.308c1.997-.2 8.786-3.195 8.786-3.195" stroke="#000" stroke-width="2.134" fill="none"/><path d="M597.09 50.754c-.2 0-2.596 8.985 1.797 12.18" stroke="#000" stroke-width="2.134" fill="none"/><path d="M586.1 91.688c0 9.584 7.588 7.188 2.396 16.373" stroke="#000" stroke-width="2.134" fill="none"/><path d="M567.53 83.7c-.2 0-11.98 9.185-11.98 10.782" stroke="#000" stroke-width="2.134" fill="none"/><path d="M536.78 78.709s4.992 4.992 3.794 11.781" stroke="#000" stroke-width="2.134" fill="none"/><path d="M522.21 74.715s-2.596 7.588-5.99 9.584" stroke="#000" stroke-width="2.134" fill="none"/><path d="M495.65 72.718c-.2.399-4.193 8.985-6.989 10.583" stroke="#000" stroke-width="2.134" fill="none"/><path d="M459.31 72.918c.2 0 3.993 7.987-.998 13.778" stroke="#000" stroke-width="2.134" fill="none"/><path d="M450.92 31.585c.2.2.799 6.19-2.995 11.381" stroke="#000" stroke-width="2.134" fill="none"/><path d="M414.98 45.163c0 .2 1.597 6.789-8.985 8.985" stroke="#000" stroke-width="2.134" fill="none"/><path d="M394.62 106.06c.2.399 10.183 1.997 10.183 1.997" stroke="#000" stroke-width="2.134" fill="none"/><path d="M369.66 129.23c.2-.2 12.18-3.794 12.18-3.794" stroke="#000" stroke-width="2.134" fill="none"/><path d="M350.29 144.2c.399 0 8.386 1.398 10.383.399" stroke="#000" stroke-width="2.134" fill="none"/><path d="M344.7 151.59s2.596 1.398.399 14.776" stroke="#000" stroke-width="2.134" fill="none"/><path d="M305.76 116.45l4.792 7.188" stroke="#000" stroke-width="2.134" fill="none"/><path d="M289.39 153.39c0-.2 4.792 7.188 11.182 8.586" stroke="#000" stroke-width="2.134" fill="none"/><path d="M327.13 190.93c.2 0 7.787-1.598 8.985-2.396" stroke="#000" stroke-width="2.134" fill="none"/><path d="M323.73 218.08c.2 0-.2-4.992 5.99-8.386" stroke="#000" stroke-width="2.134" fill="none"/><path d="M315.54 230.46c0 .2 5.791 7.388 9.784 8.386" stroke="#000" stroke-width="2.134" fill="none"/><path d="M312.15 244.24c.599-.2 6.789-5.591 13.977-5.192" stroke="#000" stroke-width="2.134" fill="none"/><path d="M310.15 262.81s.2 6.19 18.57 4.593" stroke="#000" stroke-width="2.134" fill="none"/><path d="M311.95 284.57c0-.2 5.391-12.38 16.373-16.972" stroke="#000" stroke-width="2.134" fill="none"/><path d="M326.73 300.15s1.597-5.192 10.782-8.786" stroke="#000" stroke-width="2.134" fill="none"/><path d="M336.91 320.71s6.589-5.391 8.985-6.19" stroke="#000" stroke-width="2.134" fill="none"/><path d="M345.1 336.69s3.994 4.193 13.977-2.995" stroke="#000" stroke-width="2.134" fill="none"/><path d="M296.97 340.08c1.198-.2 15.774-3.594 20.766 3.994" stroke="#000" stroke-width="2.134" fill="none"/><path d="M302.77 352.06s15.375-1.997 17.372-.399" stroke="#000" stroke-width="2.134" fill="none"/><path d="M357.68 355.26s-1.997 4.193 16.972-2.795" stroke="#000" stroke-width="2.134" fill="none"/><path d="M381.24 362.85c-3.394 5.79.799 10.383-3.594 12.979" stroke="#000" stroke-width="2.134" fill="none"/><path d="M323.53 370.83c.599-.399 6.989-2.596 5.99-11.781" stroke="#000" stroke-width="2.134" fill="none"/><path d="M329.32 384.61c.799-.2 11.381-4.792 13.578-2.396" stroke="#000" stroke-width="2.134" fill="none"/><path d="M350.09 397.99s1.398-9.385 4.393-10.383" stroke="#000" stroke-width="2.134" fill="none"/><path d="M366.06 412.16s8.786-.2 12.58-2.995" stroke="#000" stroke-width="2.134" fill="none"/><path d="M383.03 380.42c.2.2 8.187 4.393 25.159.2" stroke="#000" stroke-width="2.134" fill="none"/><path d="M389.42 418.55s2.396 12.18 2.196 14.976" stroke="#000" stroke-width="2.134" fill="none"/><g fill-rule="evenodd" stroke="#000" stroke-width="1.112pt" fill="#de2010"><path d="M696.123 231.311c-.498-4.018-2.434-7.548-5.077-9.259-2.642-1.711-5.59-1.343-7.73.966s-3.148 6.207-2.643 10.224c.498 4.018 2.434 7.548 5.077 9.259 2.642 1.711 5.59 1.343 7.73-.966s3.148-6.207 2.643-10.224z"/><path d="M694.472 211.027c-.498-4.018-2.434-7.548-5.077-9.259-2.642-1.711-5.59-1.343-7.73.966s-3.148 6.207-2.643 10.224c.498 4.018 2.434 7.548 5.077 9.259 2.642 1.711 5.59 1.343 7.73-.966s3.148-6.207 2.643-10.224z"/><path d="M690.285 189.175c-.85-3.957-3.09-7.301-5.872-8.773-2.782-1.471-5.685-.845-7.613 1.643s-2.587 6.458-1.73 10.413c.85 3.957 3.09 7.301 5.872 8.773 2.782 1.471 5.685.845 7.613-1.643s2.587-6.458 1.73-10.413z"/><path d="M682.839 166.622c-1.831-3.61-4.85-6.274-7.916-6.988-3.066-.714-5.714.632-6.944 3.528s-.856 6.904.982 10.511c1.831 3.61 4.85 6.274 7.916 6.988 3.066.714 5.714-.632 6.944-3.528s.856-6.904-.982-10.511z"/><path d="M674.821 148.461c-1.831-3.61-4.85-6.274-7.916-6.988-3.066-.714-5.714.632-6.944 3.528s-.856 6.904.982 10.511c1.831 3.61 4.85 6.274 7.916 6.988 3.066.714 5.714-.632 6.944-3.528s.856-6.904-.982-10.511z"/><path d="M663.418 130.203c-2.129-3.444-5.361-5.844-8.476-6.296-3.115-.452-5.64 1.113-6.622 4.105s-.271 6.955 1.863 10.395c2.129 3.444 5.361 5.844 8.476 6.296 3.115.452 5.64-1.113 6.622-4.105s.271-6.955-1.863-10.395z"/><path d="M650.565 112.647c-2.452-3.22-5.9-5.296-9.044-5.445-3.144-.149-5.504 1.652-6.191 4.724s.403 6.946 2.861 10.162c2.452 3.22 5.9 5.296 9.044 5.445 3.144.149 5.504-1.652 6.191-4.724s-.403-6.946-2.861-10.162z"/><path d="M635.546 96.176c-2.893-2.831-6.606-4.384-9.739-4.075-3.133.309-5.208 2.434-5.443 5.573s1.405 6.814 4.303 9.64c2.893 2.831 6.606 4.384 9.739 4.075 3.133-.309 5.208-2.434 5.443-5.573s-1.405-6.814-4.303-9.64z"/><path d="M618.58 81.102c-3.142-2.552-6.983-3.758-10.075-3.162-3.091.596-4.963 2.902-4.908 6.049s2.027 6.656 5.174 9.203c3.142 2.552 6.983 3.758 10.075 3.162 3.091-.596 4.963-2.902 4.908-6.049s-2.027-6.656-5.174-9.203z"/><path d="M600.404 69.033c-3.522-1.996-7.51-2.547-10.459-1.447-2.949 1.101-4.411 3.686-3.834 6.781s3.105 6.228 6.631 8.218c3.522 1.996 7.51 2.547 10.459 1.447 2.949-1.101 4.411-3.686 3.834-6.781s-3.105-6.228-6.631-8.218z"/><path d="M580.281 58.259c-3.689-1.667-7.71-1.853-10.548-.488-2.837 1.365-4.058 4.073-3.202 7.103s3.658 5.92 7.35 7.581c3.689 1.667 7.71 1.853 10.548.488 2.837-1.365 4.058-4.073 3.202-7.103s-3.658-5.92-7.35-7.581z"/><path d="M560.367 50.407c-3.792-1.416-7.817-1.333-10.556.218-2.739 1.551-3.775 4.334-2.717 7.299s4.048 5.661 7.843 7.071c3.792 1.416 7.817 1.333 10.556-.218 2.739-1.551 3.775-4.334 2.717-7.299s-4.048-5.661-7.843-7.071z"/><path d="M540.275 44.02c-3.89-1.123-7.897-.733-10.51 1.023-2.613 1.756-3.434 4.611-2.153 7.487s4.468 5.337 8.36 6.454c3.89 1.123 7.897.733 10.51-1.023 2.613-1.756 3.434-4.611 2.153-7.487s-4.468-5.337-8.36-6.454z"/><path d="M518.118 40.396c-4.017-.51-7.916.493-10.228 2.63-2.311 2.137-2.683 5.082-.974 7.726s5.237 4.582 9.255 5.085c4.017.51 7.916-.493 10.228-2.63 2.311-2.137 2.683-5.082.974-7.726s-5.237-4.582-9.255-5.085z"/><path d="M496.252 38.984c-4.045-.166-7.844 1.166-9.964 3.493-2.121 2.327-2.24 5.295-.314 7.784s5.607 4.121 9.651 4.28c4.045.166 7.844-1.166 9.964-3.493 2.121-2.327 2.24-5.295.314-7.784s-5.607-4.121-9.651-4.28z"/><path d="M476.204 39.694c-4.045-.166-7.844 1.166-9.964 3.493-2.121 2.327-2.24 5.295-.314 7.784s5.607 4.121 9.651 4.28c4.045.166 7.844-1.166 9.964-3.493 2.121-2.327 2.24-5.295.314-7.784s-5.607-4.121-9.651-4.28z"/><path d="M452.647 42.604c-3.946.899-7.264 3.179-8.701 5.979-1.437 2.8-.776 5.695 1.735 7.592s6.489 2.508 10.434 1.602c3.946-.899 7.264-3.179 8.701-5.979 1.437-2.8.776-5.695-1.735-7.592s-6.489-2.508-10.434-1.602z"/><path d="M431.208 47.835c-3.86 1.222-6.979 3.768-8.181 6.678-1.201 2.91-.302 5.741 2.358 7.425s6.677 1.965 10.535.736c3.86-1.222 6.979-3.768 8.181-6.678 1.201-2.91.302-5.741-2.358-7.425s-6.677-1.965-10.535-.736z"/><path d="M411.73 56.35c-3.686 1.671-6.478 4.569-7.324 7.6-.846 3.031.383 5.734 3.223 7.09s6.86 1.157 10.543-.52c3.686-1.671 6.478-4.569 7.324-7.6.846-3.031-.383-5.734-3.223-7.09s-6.86-1.157-10.543.52z"/><path d="M392.26 66.233c-3.53 1.981-6.065 5.109-6.649 8.202-.584 3.093.871 5.682 3.817 6.789s6.934.565 10.461-1.422c3.53-1.981 6.065-5.109 6.649-8.202.584-3.093-.871-5.682-3.817-6.789s-6.934-.565-10.461 1.422z"/><path d="M373.89 78.783c-3.294 2.352-5.474 5.736-5.72 8.874-.245 3.138 1.483 5.553 4.532 6.333s6.955-.191 10.245-2.549c3.294-2.352 5.474-5.736 5.72-8.874.245-3.138-1.483-5.553-4.532-6.333s-6.955.191-10.245 2.549z"/><path d="M356.951 91.661c-3.083 2.623-4.97 6.179-4.949 9.326.021 3.147 1.946 5.408 5.05 5.928s6.914-.778 9.993-3.406c3.083-2.623 4.97-6.179 4.949-9.326-.021-3.147-1.946-5.408-5.05-5.928s-6.914.778-9.993 3.406z"/><path d="M341.815 107.251c-2.887 2.838-4.514 6.521-4.267 9.66.247 3.139 2.33 5.255 5.464 5.552s6.841-1.273 9.724-4.116c2.887-2.838 4.514-6.521 4.267-9.66-.247-3.139-2.33-5.255-5.464-5.552s-6.841 1.273-9.724 4.116z"/><path d="M328.832 124.795c-2.641 3.068-3.954 6.873-3.446 9.98.509 3.106 2.763 5.041 5.911 5.075s6.713-1.839 9.349-4.911c2.641-3.068 3.954-6.873 3.446-9.98-.509-3.106-2.763-5.041-5.911-5.075s-6.713 1.839-9.349 4.911z"/><path d="M317.018 142.75c-2.297 3.332-3.197 7.255-2.359 10.289.837 3.034 3.284 4.717 6.417 4.415s6.476-2.544 8.768-5.88c2.297-3.332 3.197-7.255 2.359-10.289-.837-3.034-3.284-4.717-6.417-4.415s-6.476 2.544-8.768 5.88z"/><path d="M307.28 162.872c-1.69 3.678-1.902 7.699-.557 10.545 1.345 2.846 4.044 4.085 7.078 3.248s5.941-3.62 7.625-7.301c1.69-3.678 1.902-7.699.557-10.545-1.345-2.846-4.044-4.085-7.078-3.248s-5.941 3.62-7.625 7.301z"/><path d="M299.397 184.147c-1.351 3.816-1.198 7.838.4 10.55 1.598 2.712 4.399 3.7 7.345 2.592s5.591-4.143 6.935-7.961c1.351-3.816 1.198-7.838-.4-10.55-1.598-2.712-4.399-3.7-7.345-2.592s-5.591 4.143-6.935 7.961z"/><path d="M292.613 224.253c-.377 3.23.755 6.327 2.967 8.122s5.169 2.015 7.755.577 4.407-4.315 4.777-7.546c.377-3.23-.755-6.327-2.967-8.122s-5.169-2.015-7.755-.577-4.407 4.315-4.777 7.546z"/><path d="M294.362 205.478c-.904 3.947-.29 7.926 1.609 10.437 1.899 2.511 4.796 3.17 7.596 1.731s5.079-4.76 5.976-8.708c.904-3.947.29-7.926-1.609-10.437-1.899-2.511-4.796-3.17-7.596-1.731s-5.079 4.76-5.976 8.708z"/></g><path d="M679.93 195.92c2.466-2.64 4.76-3.386 7.663-2.424-1.024-6.964-3.227-9.327-5.912-8.488-2.684.839-3.899 4.418-1.751 10.912z" fill-rule="evenodd" fill="#ffe300"/><path d="M683.7 216.93c2.658-2.446 5.002-3.018 7.824-1.839-.496-7.021-2.515-9.543-5.255-8.909-2.74.634-4.221 4.112-2.569 10.748z" fill-rule="evenodd" fill="#ffe300"/><path d="M674.78 176.73c1.715-3.179 3.744-4.484 6.796-4.29-2.759-6.476-5.49-8.201-7.874-6.708-2.383 1.493-2.649 5.264 1.077 10.999z" fill-rule="evenodd" fill="#ffe300"/><path d="M665.43 157.61c1.715-3.179 3.744-4.484 6.796-4.29-2.759-6.476-5.49-8.201-7.874-6.708-2.383 1.493-2.649 5.264 1.077 10.999z" fill-rule="evenodd" fill="#ffe300"/><path d="M643 122.57c1.181-3.414 2.975-5.027 6.019-5.327-3.764-5.948-6.737-7.212-8.849-5.356s-1.769 5.621 2.831 10.682z" fill-rule="evenodd" fill="#ffe300"/><path d="M628.34 107.3c1.052-3.456 2.783-5.136 5.813-5.55-3.986-5.801-7.005-6.952-9.045-5.017-2.041 1.935-1.555 5.684 3.232 10.568z" fill-rule="evenodd" fill="#ffe300"/><path d="M597.51 81.29c-.064-3.612 1.066-5.744 3.821-7.071-5.579-4.292-8.805-4.457-10.151-1.988-1.346 2.47.271 5.887 6.33 9.059z" fill-rule="evenodd" fill="#ffe300"/><path d="M613.55 93.316c.562-3.568 2.044-5.472 4.987-6.303-4.751-5.193-7.901-5.915-9.653-3.715-1.753 2.199-.752 5.845 4.666 10.018z" fill-rule="evenodd" fill="#ffe300"/><path d="M579.21 71.191c-.436-3.586.467-5.823 3.071-7.427-5.992-3.693-9.218-3.525-10.302-.93-1.084 2.595.877 5.827 7.231 8.357z" fill-rule="evenodd" fill="#ffe300"/><path d="M560.51 63.027c-.945-3.487-.371-5.83 1.976-7.79-6.459-2.798-9.628-2.169-10.329.554-.701 2.724 1.702 5.642 8.352 7.236z" fill-rule="evenodd" fill="#ffe300"/><path d="M540.36 56.784c-1.237-3.394-.863-5.778 1.31-7.93-6.672-2.241-9.777-1.347-10.245 1.427-.468 2.773 2.173 5.478 8.935 6.503z" fill-rule="evenodd" fill="#ffe300"/><path d="M520.57 52.952c-1.479-3.296-1.279-5.7.733-8.004-6.817-1.753-9.849-.636-10.115 2.164-.267 2.8 2.564 5.306 9.382 5.84z" fill-rule="evenodd" fill="#ffe300"/><path d="M499.61 51.346c-1.813-3.125-1.863-5.537-.101-8.037-6.962-1.036-9.861.389-9.836 3.201.025 2.812 3.1 5.012 9.937 4.836z" fill-rule="evenodd" fill="#ffe300"/><path d="M458.57 54.437c-2.512-2.595-3.143-4.924-2.036-7.775-7.006.673-9.477 2.755-8.774 5.478.702 2.723 4.217 4.117 10.81 2.297z" fill-rule="evenodd" fill="#ffe300"/><path d="M478.77 51.778c-2.138-2.912-2.447-5.304-.965-7.979-7.033-.282-9.762 1.447-9.434 4.24.327 2.793 3.621 4.649 10.399 3.739z" fill-rule="evenodd" fill="#ffe300"/><path d="M438.75 58.719c-2.859-2.208-3.816-4.423-3.129-7.403-6.838 1.67-8.984 4.085-7.898 6.679 1.086 2.595 4.763 3.469 11.027.724z" fill-rule="evenodd" fill="#ffe300"/><path d="M400.8 76.168c-3.227-1.624-4.588-3.616-4.48-6.672-6.395 2.94-8.043 5.719-6.483 8.059 1.559 2.341 5.337 2.5 10.964-1.387z" fill-rule="evenodd" fill="#ffe300"/><path d="M419.1 66.82c-3.005-2.004-4.115-4.147-3.637-7.167-6.705 2.142-8.678 4.7-7.414 7.212 1.264 2.513 4.993 3.13 11.051-.045z" fill-rule="evenodd" fill="#ffe300"/><path d="M366.76 99.867c-3.494-.916-5.241-2.581-5.772-5.592-5.642 4.209-6.674 7.27-4.661 9.234 2.013 1.964 5.74 1.333 10.434-3.641z" fill-rule="evenodd" fill="#ffe300"/><path d="M383 86.576c-3.412-1.187-5.022-2.983-5.317-6.027-5.954 3.754-7.223 6.725-5.37 8.84 1.853 2.116 5.618 1.778 10.687-2.813z" fill-rule="evenodd" fill="#ffe300"/><path d="M352.33 114.08c-3.563-.595-5.454-2.094-6.257-5.044-5.236 4.704-5.986 7.846-3.803 9.619 2.183 1.773 5.838.806 10.06-4.575z" fill-rule="evenodd" fill="#ffe300"/><path d="M339.4 130.86c-3.602-.269-5.621-1.59-6.689-4.455-4.787 5.16-5.249 8.357-2.914 9.925 2.335 1.568 5.887.272 9.603-5.469z" fill-rule="evenodd" fill="#ffe300"/><path d="M328.58 148.02c-3.601.286-5.798-.711-7.292-3.379-3.941 5.832-3.907 9.063-1.36 10.254 2.547 1.192 5.859-.632 8.652-6.875z" fill-rule="evenodd" fill="#ffe300"/><path d="M319.08 166.35c-3.533.751-5.841.048-7.669-2.404-3.151 6.294-2.698 9.493-.018 10.343 2.681.851 5.727-1.387 7.687-7.94z" fill-rule="evenodd" fill="#ffe300"/><path d="M311.48 185.16c-3.37 1.301-5.76.973-7.953-1.158-2.114 6.714-1.16 9.801 1.621 10.216 2.782.416 5.435-2.277 6.332-9.057z" fill-rule="evenodd" fill="#ffe300"/><path d="M306.39 206.11c-3.275 1.524-5.682 1.356-8.013-.623-1.659 6.84-.501 9.856 2.302 10.084 2.803.228 5.271-2.636 5.711-9.461z" fill-rule="evenodd" fill="#ffe300"/><path d="M304.32 223.56c-3.083 1.633-5.486 1.826-8.006.591-.917 5.575.551 7.778 3.353 7.579 2.802-.199 4.942-2.772 4.653-8.17z" fill-rule="evenodd" fill="#ffe300"/><path d="M657.08 140.57c1.233-3.395 3.051-4.982 6.098-5.235-3.673-6.005-6.626-7.314-8.767-5.489-2.14 1.824-1.854 5.594 2.668 10.724z" fill-rule="evenodd" fill="#ffe300"/><path d="M686 238.23c2.658-2.446 5.002-3.018 7.824-1.839-.496-7.021-2.515-9.543-5.255-8.909-2.74.634-4.221 4.112-2.569 10.748z" fill-rule="evenodd" fill="#ffe300"/><path stroke-linejoin="round" d="M658.45 123.94c-.086 0-7.958 7.873-6.589 17.457 1.369 9.585 7.445 21.394 6.332 31.321-1.113 9.927-2.91 16.516-2.91 16.516s9.242-10.526 9.328-20.624c.086-10.098-6.333-23.362-6.333-30.807s.342-14.034.171-13.863z" fill-rule="evenodd" stroke="#000" stroke-width="2.134" fill="#217900"/><path stroke-linejoin="round" d="M673.08 156.11s-6.162 4.535-5.562 14.976c.599 10.44 11.381 29.609 11.381 29.609s7.873 16.174 7.616 20.367c-.257 4.193 1.455-4.022.685-13.264-.77-9.242-12.665-29.609-12.665-29.609s-2.567-4.193-2.311-11.125c.257-6.932.941-10.868.856-10.954z" fill-rule="evenodd" stroke="#000" stroke-width="2.134" fill="#217900"/><path d="M487.93 26.748c.001-2.161-2.43-3.913-5.428-3.913s-5.429 1.752-5.428 3.913c-.001 2.161 2.43 3.913 5.428 3.913s5.429-1.752 5.428-3.913z" fill-rule="evenodd" fill="#6b18b5"/><path d="M490.25 35.848c0-2.072-2.502-3.752-5.588-3.752-3.086 0-5.588 1.68-5.588 3.752s2.502 3.752 5.588 3.752c3.086 0 5.588-1.68 5.588-3.752z" fill-rule="evenodd" fill="#6b18b5"/><path d="M497.19 25.072s-6.386 4.79-3.752 6.705c2.634 1.916 9.898-4.151 9.898-4.151l-6.146-2.554z" fill-rule="evenodd" fill="#6b18b5"/><path d="M684.88 134.73c.002-1.361-.636-2.62-1.674-3.302-1.037-.681-2.316-.681-3.353 0-1.037.681-1.675 1.94-1.674 3.302-.002 1.361.636 2.62 1.674 3.302 1.037.681 2.316.681 3.353 0 1.037-.681 1.675-1.94 1.674-3.302z" fill-rule="evenodd" fill="#6b18b5"/><path d="M682.44 125.6c0-2.271-1.568-4.112-3.502-4.112s-3.502 1.841-3.502 4.112 1.568 4.112 3.502 4.112 3.502-1.841 3.502-4.112z" fill-rule="evenodd" fill="#6b18b5"/><path d="M684.12 144.17c0-1.177-.614-2.132-1.371-2.132s-1.371.955-1.371 2.132.614 2.132 1.371 2.132 1.371-.955 1.371-2.132z" fill-rule="evenodd" fill="#6b18b5"/><path d="M689.75 127.57c0-1.346-.614-2.437-1.371-2.437s-1.371 1.091-1.371 2.437.614 2.437 1.371 2.437 1.371-1.091 1.371-2.437z" fill-rule="evenodd" fill="#6b18b5"/><path d="M674.37 129.25c0-1.093-.614-1.98-1.371-1.98s-1.371.886-1.371 1.98c0 1.093.614 1.98 1.371 1.98s1.371-.886 1.371-1.98z" fill-rule="evenodd" fill="#6b18b5"/><path d="M676.81 142.35c.001-1.767-1.295-3.199-2.893-3.199s-2.894 1.433-2.893 3.199c-.001 1.767 1.295 3.199 2.893 3.199s2.894-1.433 2.893-3.199z" fill-rule="evenodd" fill="#6b18b5"/><path d="M669.19 136.56c0-1.514-1.091-2.741-2.437-2.741-1.346 0-2.437 1.227-2.437 2.741s1.091 2.741 2.437 2.741c1.346 0 2.437-1.227 2.437-2.741z" fill-rule="evenodd" fill="#6b18b5"/><path d="M667.98 128.79c.001-.817-.405-1.572-1.065-1.981-.66-.409-1.474-.409-2.134 0-.66.409-1.066 1.164-1.065 1.981-.001.817.405 1.572 1.065 1.981.66.409 1.474.409 2.134 0 .66-.409 1.066-1.164 1.065-1.981z" fill-rule="evenodd" fill="#6b18b5"/><path d="M702.69 168.28c-3.146-4.151-8.181-5.901-11.248-3.907-3.066 1.994-3.002 6.975.143 11.126 3.146 4.151 8.181 5.901 11.248 3.907 3.066-1.994 3.002-6.975-.143-11.126z" fill-rule="evenodd" fill="#6b18b5"/><path d="M711.63 244.87c.61-5.094-1.875-9.58-5.549-10.02-3.674-.44-7.147 3.333-7.757 8.428-.61 5.094 1.875 9.58 5.549 10.02 3.674.44 7.147-3.333 7.757-8.428z" fill-rule="evenodd" fill="#6b18b5"/><path d="M713.52 289.45c1.047-5.022-1.041-9.706-4.663-10.461-3.623-.755-7.408 2.704-8.456 7.726-1.047 5.022 1.041 9.706 4.663 10.461 3.623.755 7.408-2.704 8.456-7.726z" fill-rule="evenodd" fill="#6b18b5"/><path d="M722.11 247.72c0-2.018-1.364-3.655-3.046-3.655s-3.046 1.636-3.046 3.655c0 2.018 1.364 3.655 3.046 3.655s3.046-1.636 3.046-3.655z" fill-rule="evenodd" fill="#6b18b5"/><path d="M714.65 256.1l-6.244 7.081s-5.863.152-5.558 2.056c.305 1.903 8.071 7.614 7.995 9.899-.076 2.284 5.178-.533 5.178-.533s4.188-12.716 4.188-12.792c0-.076-.228-8.833-2.513-8.68-2.284.152-2.903 2.808-3.046 2.97z" fill-rule="evenodd" fill="#6b18b5"/><path d="M303.97 253.3c0-1.641-1.33-2.971-2.972-2.971-1.641 0-2.972 1.33-2.972 2.971s1.33 2.971 2.972 2.971 2.972-1.33 2.972-2.971z" fill-rule="evenodd" fill="#6b18b5"/><path d="M306.77 244.22c0-1.732-1.33-3.137-2.972-3.137s-2.972 1.404-2.972 3.137c0 1.732 1.33 3.137 2.972 3.137 1.641 0 2.972-1.404 2.972-3.137z" fill-rule="evenodd" fill="#6b18b5"/><path d="M282.37 201.04c-1.115-2.498-3.435-3.89-5.184-3.11-1.748.78-2.263 3.438-1.148 5.935 1.115 2.498 3.435 3.89 5.184 3.11 1.748-.78 2.263-3.438 1.148-5.935z" fill-rule="evenodd" fill="#6b18b5"/><path d="M289.74 227.94c-1.531-3.237-4.719-5.042-7.121-4.031s-3.108 4.455-1.577 7.693 4.719 5.042 7.121 4.031 3.108-4.455 1.577-7.693z" fill-rule="evenodd" fill="#6b18b5"/><path d="M297.63 247.67c.496-4.044-1.18-7.758-3.743-8.297-2.563-.539-5.043 2.303-5.539 6.347-.496 4.044 1.18 7.758 3.743 8.297 2.563.538 5.043-2.303 5.539-6.347z" fill-rule="evenodd" fill="#6b18b5"/><path d="M284.97 250.55c1.585-3.753.992-7.785-1.326-9.005s-5.481.833-7.066 4.586-.992 7.785 1.326 9.005 5.481-.833 7.066-4.586z" fill-rule="evenodd" fill="#6b18b5"/><path d="M279.2 242.07c0-1.915-1.478-3.467-3.302-3.467s-3.302 1.552-3.302 3.467 1.478 3.467 3.302 3.467 3.302-1.552 3.302-3.467z" fill-rule="evenodd" fill="#6b18b5"/><path d="M276.56 233.49c0-1.732-1.33-3.137-2.972-3.137-1.641 0-2.972 1.404-2.972 3.137 0 1.732 1.33 3.137 2.972 3.137s2.972-1.404 2.972-3.137z" fill-rule="evenodd" fill="#6b18b5"/><path d="M279.37 216.98c0-2.918-1.294-5.283-2.889-5.283-1.596 0-2.889 2.365-2.889 5.283s1.293 5.283 2.889 5.283 2.889-2.365 2.889-5.283z" fill-rule="evenodd" fill="#6b18b5"/><path d="M288.26 215.71c.385-2.892-.585-5.407-2.167-5.618-1.582-.211-3.176 1.963-3.561 4.856-.385 2.892.585 5.407 2.167 5.618 1.582.211 3.176-1.963 3.561-4.856z" fill-rule="evenodd" fill="#6b18b5"/><path d="M351.6 89.333c1.177-4.096-.037-8.212-2.712-9.194-2.675-.982-5.799 1.542-6.976 5.638-1.177 4.096.037 8.212 2.712 9.194 2.675.982 5.799-1.542 6.976-5.638z" fill-rule="evenodd" fill="#6b18b5"/><path d="M339.57 107.56c3.529-3.003 5.036-7.156 3.367-9.275-1.669-2.119-5.883-1.403-9.411 1.6s-5.036 7.156-3.367 9.275c1.669 2.119 5.883 1.403 9.411-1.6z" fill-rule="evenodd" fill="#6b18b5"/><path d="M332.55 97.443c3.489-2.578 4.98-6.143 3.329-7.962s-5.817-1.204-9.307 1.374c-3.489 2.578-4.98 6.143-3.329 7.962s5.817 1.204 9.307-1.374z" fill-rule="evenodd" fill="#6b18b5"/><path d="M359.61 79.649c2.353-1.799 3.358-4.286 2.245-5.556-1.113-1.27-3.923-.84-6.276.959s-3.358 4.286-2.245 5.556c1.113 1.27 3.923.84 6.276-.959z" fill-rule="evenodd" fill="#6b18b5"/><path d="M345.5 96.89c1.609-2.487 1.717-5.167.241-5.987-1.476-.82-3.977.531-5.586 3.018s-1.717 5.167-.241 5.987c1.476.82 3.977-.531 5.586-3.018z" fill-rule="evenodd" fill="#6b18b5"/><path d="M365.86 86.235c2.53-2.133 3.517-4.958 2.202-6.31-1.314-1.352-4.431-.719-6.962 1.413s-3.517 4.958-2.202 6.31c1.314 1.352 4.431.719 6.962-1.413z" fill-rule="evenodd" fill="#6b18b5"/><path d="M329.07 111.09c2.366-.118 4.151-1.296 3.988-2.632-.163-1.335-2.212-2.322-4.578-2.204-2.365.118-4.151 1.296-3.988 2.632.163 1.335 2.212 2.322 4.578 2.204z" fill-rule="evenodd" fill="#6b18b5"/><path d="M373.61 73.026c1.609-2.487 1.717-5.167.241-5.987-1.476-.82-3.977.531-5.586 3.018s-1.717 5.167-.241 5.987c1.476.82 3.977-.531 5.586-3.018z" fill-rule="evenodd" fill="#6b18b5"/><path d="M641.8 148.49s7.338-11.615 4.501-22.547c-2.837-10.933-14.945-3.207-14.685.684.261 3.891 7.824 9.095 8.284 11.47.46 2.374-.855 9.677 1.899 10.394z" fill-rule="evenodd" stroke="#ef8a10" stroke-width="1.112" fill="#ffd200"/><path stroke-linejoin="round" d="M501.67 51.882s26.443 1.027 26.614 18.142c-.086 2.653 0 5.819-.941 13.435 5.22-2.824 8.729-10.697 8.044-15.746.086-17.372-23.619-29.267-33.717-15.832z" fill-rule="evenodd" stroke="#000" stroke-width="2.668" fill="#217900"/><path stroke-linejoin="round" d="M484.9 51.112s21.308-4.45 21.479 12.665c.171 17.115-6.76 19.853-6.76 19.853s16.345-3.509 16.43-20.88c.086-17.372-21.051-25.073-31.149-11.638z" fill-rule="evenodd" stroke="#000" stroke-width="2.668" fill="#217900"/><g><path stroke-linejoin="round" d="M160.26 215.97s51.958-14.677 67.647-78.444c-9.11 65.454-65.96 86.204-65.96 86.204l-1.687-7.76z" fill-rule="evenodd" stroke="#000" stroke-width="1.112pt" fill="#f7df73" transform="matrix(1.92 0 0 1.92 249.65 5.767)"/><path d="M567.583 428.052c3.084 0 10.711-8.439 15.093-9.413 4.382-.974 4.869-5.356-.162-5.518-5.031-.162-9.413 5.68-9.413 5.68s-4.382 3.733-8.926 4.22c-4.544.487-1.623 6.167 3.408 5.031z" fill-rule="evenodd" fill="#8c1800"/><path d="M195.51 197.62s-5.41 3.127-4.649 3.888c.761.761 5.579-2.958 5.663-3.043.085-.085 2.029-2.451-1.014-.845z" fill-rule="evenodd" stroke="#8c1800" stroke-width="1.112pt" fill="#8c1800" transform="matrix(1.92 0 0 1.92 249.65 5.767)"/><path d="M588.837 412.481s-3.084-1.136 4.869-4.22c7.952-3.084 7.465-6.654 10.062-8.115 2.597-1.461 8.114-5.356 9.251-3.084s-5.843 6.816-7.465 7.303c-1.623.487-9.575 7.79-11.847 8.439-2.272.649-3.895.325-4.869-.325z" fill-rule="evenodd" fill="#8c1800"/><path d="M203.54 189.68c-3.55 3.973-3.55 3.888-3.55 3.888" stroke="#8c1800" stroke-linecap="round" stroke-width="1.807" fill="none" transform="matrix(1.92 0 0 1.92 249.65 5.767)"/><path d="M208.87 183.17l-3.381 4.142" stroke="#8c1800" stroke-linecap="round" stroke-width="1.668" fill="none" transform="matrix(1.92 0 0 1.92 249.65 5.767)"/><path d="M214.19 174.72l-3.804 6.086" stroke="#8c1800" stroke-linecap="round" stroke-width="1.529" fill="none" transform="matrix(1.92 0 0 1.92 249.65 5.767)"/><path d="M218.67 166.1l-3.127 6.255" stroke="#8c1800" stroke-linecap="round" stroke-width="1.39" fill="none" transform="matrix(1.92 0 0 1.92 249.65 5.767)"/><path d="M220.7 161.53l-1.014 2.198" stroke="#8c1800" stroke-linecap="round" stroke-width="1.39" fill="none" transform="matrix(1.92 0 0 1.92 249.65 5.767)"/><path d="M222.98 155.53l-.845 2.62" stroke="#8c1800" stroke-linecap="round" stroke-width=".834" fill="none" transform="matrix(1.92 0 0 1.92 249.65 5.767)"/></g><g><path stroke-linejoin="round" d="M160.26 215.97s51.958-14.677 67.647-78.444c-9.11 65.454-65.96 86.204-65.96 86.204l-1.687-7.76z" fill-rule="evenodd" stroke="#000" stroke-width="1.112pt" fill="#f7df73" transform="matrix(-1.902 0 0 1.954 731.39 -4.333)"/><path d="M416.438 425.43c-3.055 0-10.611-8.589-14.952-9.58-4.341-.991-4.823-5.451.161-5.616 4.984-.165 9.325 5.781 9.325 5.781s4.341 3.799 8.842 4.295c4.502.496 1.608 6.276-3.376 5.12z" fill-rule="evenodd" fill="#8c1800"/><path d="M195.51 197.62s-5.41 3.127-4.649 3.888c.761.761 5.579-2.958 5.663-3.043.085-.085 2.029-2.451-1.014-.845z" fill-rule="evenodd" stroke="#8c1800" stroke-width="1.112pt" fill="#8c1800" transform="matrix(-1.902 0 0 1.954 731.39 -4.333)"/><path d="M395.383 409.583s3.055-1.156-4.823-4.294-7.395-6.772-9.968-8.258c-2.572-1.486-8.038-5.45-9.164-3.138s5.788 6.937 7.395 7.433c1.608.496 9.486 7.928 11.736 8.589 2.251.661 3.859.33 4.823-.33z" fill-rule="evenodd" fill="#8c1800"/><path d="M203.54 189.68c-3.55 3.973-3.55 3.888-3.55 3.888" stroke="#8c1800" stroke-linecap="round" stroke-width="1.807" fill="none" transform="matrix(-1.902 0 0 1.954 731.39 -4.333)"/><path d="M208.87 183.17l-3.381 4.142" stroke="#8c1800" stroke-linecap="round" stroke-width="1.668" fill="none" transform="matrix(-1.902 0 0 1.954 731.39 -4.333)"/><path d="M214.19 174.72l-3.804 6.086" stroke="#8c1800" stroke-linecap="round" stroke-width="1.529" fill="none" transform="matrix(-1.902 0 0 1.954 731.39 -4.333)"/><path d="M218.67 166.1l-3.127 6.255" stroke="#8c1800" stroke-linecap="round" stroke-width="1.39" fill="none" transform="matrix(-1.902 0 0 1.954 731.39 -4.333)"/><path d="M220.7 161.53l-1.014 2.198" stroke="#8c1800" stroke-linecap="round" stroke-width="1.39" fill="none" transform="matrix(-1.902 0 0 1.954 731.39 -4.333)"/><path d="M222.98 155.53l-.845 2.62" stroke="#8c1800" stroke-linecap="round" stroke-width=".834" fill="none" transform="matrix(-1.902 0 0 1.954 731.39 -4.333)"/></g><path stroke-linejoin="round" d="M691.89 247.23c.49 7.678 8.005 15.029 5.065 28.426-3.757 15.193-16.99 51.298-14.703 57.669-3.921-5.391-3.267-10.456-3.594-17.971-.327-7.515 10.946-35.451 11.926-44.926 0-8.495.817-20.094 1.307-23.198z" fill-rule="evenodd" stroke="#000" stroke-width="2.668" fill="#217900"/><path stroke-linejoin="round" d="M691.89 247.39s12.253 15.52 11.599 27.773c-.653 12.253-7.515 26.629-5.228 33-3.921-5.391-4.901-8.822-5.228-16.337-.327-7.515 6.045-15.847 4.738-24.015-1.307-8.168-6.045-20.421-5.881-20.421z" fill-rule="evenodd" stroke="#000" stroke-width="2.668" fill="#217900"/><path stroke-linejoin="round" d="M290.51 250.82c-.49 7.678-6.208 14.539-3.268 27.936 3.757 15.193 17.154 34.471 15.03 56.526 3.921-5.391 5.065-11.436 5.391-18.951.327-7.515-14.867-32.837-15.847-42.312 0-8.495-.817-20.094-1.307-23.198z" fill-rule="evenodd" stroke="#000" stroke-width="2.668" fill="#217900"/><path stroke-linejoin="round" d="M290.51 250.99s-11.926 15.03-11.273 27.283c.163 8.168 15.193 42.312 12.906 48.684 3.921-5.391 5.064-4.738 4.901-12.906-4.411-20.911-12.253-34.308-10.946-42.476 1.307-8.168 4.574-20.584 4.411-20.584z" fill-rule="evenodd" stroke="#000" stroke-width="2.668" fill="#217900"/><path stroke-linejoin="round" fill="#fff" stroke-dashoffset="1" transform="matrix(1.339 0 0 1.339 360.43 -54.894)" stroke="#000" stroke-linecap="square" stroke-width="1.661" d="M99.959 125.78l22.172 68.231 71.743.003-58.04 42.172 22.167 68.233-58.041-42.15-58.044 42.16 22.168-68.23-58.04-42.17h71.743z"/></g></g></svg>