<svg xmlns="http://www.w3.org/2000/svg" id="flag-icon-css-ms" width="640" height="480">
  <path fill="#006" d="M0 0h640v480H0z"/>
  <g fill-rule="evenodd">
    <path fill="#fff" d="M408.3 192.25h214.3l-.26 153.44c1.78 61.68-36.42 99.96-106.72 117.22-49.93-12.48-107.49-38.28-107.57-115.47l.25-155.2z"/>
    <path fill="#00a2bd" stroke="#000" stroke-width="1pt" d="M44.07 22.71h169.3l-.2 120.8c1.4 48.55-28.78 78.68-84.32 92.27-39.44-9.82-84.91-30.13-84.98-90.9l.2-122.17z" transform="matrix(1.2096 0 0 1.2172 359.74 169.23)"/>
    <path fill="#a53d08" d="M616.25 361.33c-7.45 56.42-50.63 81.07-100.65 94.15-44.28-11.95-91.91-31.03-101.14-93.87l201.8-.28z"/>
  </g>
  <g fill-rule="evenodd" stroke="#000">
    <path fill="#ffc6b5" stroke-linejoin="round" stroke-width="1.25" d="M155.77 197.17c.1.1.66 9.3-4.32 14.93 4.41 1.4 7.42-.28 8.83-2.07 1.4-1.78 1.88-4.03 1.88-4.03s1.22-.76 1.4-2.45c.1-2.34-.94-2.34-1.78-2.81l.19-5.26s-5.07-3.1-6.2 1.69z" transform="matrix(1.2096 0 0 1.2172 359.74 169.23)"/>
    <path fill="#ff9a08" stroke-linecap="round" stroke-width="1pt" d="M155.49 210.32l-1.5-1.22" transform="matrix(1.2096 0 0 1.2172 359.74 169.23)"/>
  </g>
  <path fill="#ffc6b5" fill-rule="evenodd" stroke="#000" stroke-width="1pt" d="M141.64 69.4s.12 5.62-.23 6.2c-.36.59-3.56 2.07-3.56 2.07l2.73 5.82 7.74-1.09c.04 0 3.32-8.71 3.32-8.71s-1.72-2.89-1.29-5.9c-2.58-8.16-8.6 1.64-8.71 1.6z" transform="matrix(1.2096 0 0 1.2172 359.74 169.23)"/>
  <path fill="#005121" fill-rule="evenodd" stroke="#000" stroke-linejoin="round" stroke-width="1.25" d="M131.45 203.09s4.32 4.32 9.3 3.76c11.26-1.22 14.55-11.27 18.02-11.36s5.64 6.1 8.92 5.35c-2.81-5.17-5.82-16.62-5.35-24.7.47-8.07.47-42.06.47-42.06s-5.63-17.56-8.26-20.47c2.63-2.82 4.41-7.8 4.32-13.24-.1-5.45 0-11.45 0-11.45s1.31-1.5 1.22-5.73c-.1-4.23-7.14-10.33-8.08-10.05-.94.28-9.76 7.89-10.51 9.67-.76 1.79-1.79-6.48-.1-7.23 1.7-.75-3.94-1.22-7.5 3-3.58 4.23-2.54 124.7-2.45 124.5z" transform="matrix(1.2096 0 0 1.2172 359.74 169.23)"/>
  <path fill-rule="evenodd" d="M467.52 224.12l39.97.15-.29-18.53 14.56.14.15 18.39h39.82l.15 14.36-39.97.15-.32 169.4-14.2.1-.19-169.65-39.7.15.02-14.65z"/>
  <path fill="#ffc6b5" fill-rule="evenodd" stroke="#000" stroke-width="1pt" d="M122.03 81.96s-2.26-.4-3.98.13 2.65-19.58 2.65-21.24c1.53-.73 9.16-2.13 8.97-7.5-.54-3.26-11.82.2-11.62 4.3-.73 2.07-8.1 23.05-6.64 29.95 2.59 2.06 7.37 1.66 10.62 1.13v-6.77z" transform="matrix(1.2096 0 0 1.2172 359.74 169.23)"/>
  <path fill="none" stroke="#000" stroke-linecap="round" stroke-width=".63" d="M124.22 53.21s-.66 3.72 2.72 4.25" transform="matrix(1.2096 0 0 1.2172 359.74 169.23)"/>
  <path fill="none" stroke="#000" stroke-width=".38" d="M129.2 53.14l-4.38 2.73m4.12-1.07l-2.99 2.2m1.86-4.65l-3.32 1.99" transform="matrix(1.2096 0 0 1.2172 359.74 169.23)"/>
  <path fill="#ff9a08" fill-rule="evenodd" stroke="#000" stroke-width="1pt" d="M95.49 163.56l30.14 31.27c10.42-11.46 3.2-54.28-10.52-62.16-1.64 5.07-4.43 11.15-7.4 13.1-6.54 4.46-22.55 9.67-17.2 13 1.22-1.69 4.42-3.29 5.92.47 1.78 5.92-6.67 6.3-6.67 6.3s-5.35-.67-6.29-6.11c-.94-5.45 7.97-10.42 8.73-10.8.76-.28 12.4-3.38 14.37-13.7 2.44-10.15 4.98-8.65 5.45-8.83 15.2 1.5 25.16 28.73 25.72 47.88.57 19.16-7.79 31.83-9.3 32.68-1.5.84-36.24-41.22-36.24-41.22l3.29-1.88z" transform="matrix(1.2096 0 0 1.2172 359.74 169.23)"/>
  <path fill="none" stroke="#000" stroke-width="1pt" d="M117.46 134.45l.19 56.43m-3.57-55.4l.19 51.27m-3.85-43.85l.19 40.75m-3.19-37.84l.19 33.7m-3.39-32.19v28.45m-3.47-26.2v22.53m-3-20.75v17.28" transform="matrix(1.2096 0 0 1.2172 359.74 169.23)"/>
  <path fill="none" stroke="#ffdf00" stroke-linecap="round" stroke-width="1.25" d="M95.02 167.13l31.08 35.58m1.5-58.02s14.09 30.8 1.03 56.15m-37.27-40.19s1.03-2.72 2.35-1.6m-4.8-6.29s-5.63 4.98-2.53 8.17" transform="matrix(1.2096 0 0 1.2172 359.74 169.23)"/>
  <path fill="none" stroke="#000" stroke-width="1pt" d="M141.03 83s.47 4.32-.47 7.6 3.57 12.4 1.88 14.28m.47 8.82l11.83-.1" transform="matrix(1.2096 0 0 1.2172 359.74 169.23)"/>
  <path fill="none" stroke="#000" stroke-linecap="round" stroke-width="1pt" d="M138.59 118.49c.1.19 1.4 6.2 1.03 10.33m2.82-8.17c-.37 1.22-5.26 15.12-5.07 15.68m7.98-21.97c.1.28-.37 8.83-1.69 10.05m7.7-10.71s7.7 17.84 7.6 24.88 2.64 21.32.85 27.6m-6.01-27.78s-.56 13.24-6.1 18.4c-5.54 5.17 13.24 19.9 13.24 19.9" transform="matrix(1.2096 0 0 1.2172 359.74 169.23)"/>
  <path fill="none" stroke="#000" stroke-linecap="round" stroke-width="1.25" d="M153.61 175.86s2.07 18.21 5.54 19.53m-22.53-50.05c.1.19-1.88 12.3-.28 14.27 1.6 1.97 14.83 20.47 14.27 39.63m-3.76-5.73s-.38 11.55-11.08 12.49m7.89-20.09s3.2 12.02-7.7 19.62" transform="matrix(1.2096 0 0 1.2172 359.74 169.23)"/>
  <path fill="none" stroke="#000" stroke-linecap="round" stroke-width="1pt" d="M147.88 156.89s12.3 12.77 12.86 18.4m-9.29-61.31s2.16 9.1 1.31 10.7" transform="matrix(1.2096 0 0 1.2172 359.74 169.23)"/>
  <path fill="#ffc6b5" fill-rule="evenodd" stroke="#000" stroke-width="1pt" d="M113.51 132.69s-1.32-2.3-1.15-4.86-.41-6.5 7.82-9.71c5.02-5.1 10.62-8.15 13.66-9.71 4.45-2.88 7.33-2.22 9.96-3.21 1.73-1.98 1.65-6.34 3.46-10.2 1.8-3.88 5.02-11.86 8.48-10.63 3.45 1.24.74 11.6-.58 15.23s-2.47 7.4-4.77 9.63c-2.3 2.22-12.76 6.26-14.82 7s-11.44 2.88-13.83 6.17c-2.39 3.3-2.22 8.15-8.23 10.3z" transform="matrix(1.2096 0 0 1.2172 359.74 169.23)"/>
  <path fill="none" stroke="#000" stroke-width="1pt" d="M112.85 125.78c.25-.08 4.12-1.32 5.93 2.14" transform="matrix(1.2096 0 0 1.2172 359.74 169.23)"/>
  <path fill="#ffc6b5" fill-rule="evenodd" stroke="#000" stroke-linejoin="round" stroke-width="1.25" d="M141.91 55.2s-1.74 2.84-2.22 4.56c-.38 1.3-1.58-.09-2.22 2.7l1.03.19c-.4.82-.54 2.21-.62 2.54-.09.33-.66 1.84-.58 2.97.05.58 1.15 3.13 10.13-.74 8.97-3.87-2.89-14.85-5.52-12.22z" transform="matrix(1.2096 0 0 1.2172 359.74 169.23)"/>
  <path fill="#c59200" fill-rule="evenodd" stroke="#000" stroke-linecap="round" stroke-linejoin="round" stroke-width="1.26" d="M140.9 55.56c.92-.5 7.46-1.07 6.37 11.7 1.25-.17 2-.34 2.76.9.76 1.23.67 2.71 2.01 2.71 1.34 0 1.51-.24 1.85-1.23.33-.99 5.53 1.15 6.87-3.46-.24-.9-3.19-2.3-3.52-3.95.75-2.3-.34-9.8-9.89-10.2-4.94-.09-5.95 1.97-6.45 3.53z" transform="matrix(1.2096 0 0 1.2172 359.74 169.23)"/>
  <path fill="none" stroke="#000" stroke-linecap="round" stroke-width="1pt" d="M140.42 58.12c.08.08 2.96.9 3.3 2.3" transform="matrix(1.2096 0 0 1.2172 359.74 169.23)"/>
  <path fill-rule="evenodd" d="M531.73 244.1c0 .52-.4.94-.9.94s-.9-.42-.9-.95.4-.95.9-.95.9.43.9.95z"/>
  <path fill="none" stroke="#000" stroke-linecap="round" stroke-linejoin="round" stroke-width="1.25" d="M154.38 61.54s-1.05 5.08 3.6 7.07m-7.04-6.44s1.72.07 1.72 1.68c0 1.6-1.41 1.8-1.3 3.08.12 1.3 2.43 1.72 2.5 2.81M143.4 52.8c.08 0 8.24.94 7.77 2.97-.46 2.03-1.75 1.21-1.71 2.97s3.28.7 3.28.7.2-1.48 1.56-1.36.74 1.67 2.62 1.63" transform="matrix(1.2096 0 0 1.2172 359.74 169.23)"/>
  <path fill="none" stroke="#000" stroke-linecap="round" stroke-width="1.25" d="M138.41 65.46l1.94-.07" transform="matrix(1.2096 0 0 1.2172 359.74 169.23)"/>
  <path fill="none" stroke="#000" stroke-linecap="round" stroke-width="1pt" d="M143.45 73.7s.72 3.36-2 3.04" transform="matrix(1.2096 0 0 1.2172 359.74 169.23)"/>
  <g stroke-width="1pt">
    <path fill="#fff" d="M0 .06V28.5l343.65 225.93h43.25V226L43.26.06H0zm386.9 0V28.5L43.26 254.43H0V226L343.65.06h43.25z"/>
    <path fill="#fff" d="M161.21.06v254.37h64.48V.06h-64.48zM0 84.86v84.78h386.9V84.85H0z"/>
    <path fill="#c00" d="M0 101.81v50.88h386.9V101.8H0zM174.1.06v254.37h38.7V.06h-38.7zM0 254.43l128.97-84.79h28.83l-128.96 84.8H0zM0 .06l128.97 84.8h-28.84L0 19.01V.06zm229.1 84.8L358.07.05h28.83l-128.96 84.8H229.1zm157.8 169.57l-128.96-84.79h28.83l100.13 65.83v18.96z"/>
  </g>
</svg>
