<svg xmlns="http://www.w3.org/2000/svg" height="480" width="640">
    <g>
        <g fill-rule="evenodd">
            <path fill="#ce0000" d="M320 0h320v480h-320z"/>
            <path fill="#fff" d="M0 0h320v480h-320z"/>
        </g>
        <g transform="matrix(1.599 0 0 1.599 -12.38 -30.751)">
            <path d="M104.824 108.068c0 .81-.917 1.466-2.049 1.466-1.131 0-2.049-.656-2.049-1.466 0-.81.917-1.466 2.049-1.466 1.131 0 2.049.656 2.049 1.466z" fill-rule="evenodd" fill="#f1eeee"/>
            <path d="M40.727 100.98v37.209h37.211c0 6.2 6.202 12.402 12.404 12.402v37.207h37.208v-37.207c6.202 0 12.404-6.202 12.404-12.402h37.211v-37.209h-37.211c0-6.2-6.202-12.402-12.404-12.402v-37.207h-37.208v37.207c-6.202 0-12.404 6.202-12.404 12.402h-37.211z" fill-rule="evenodd" fill="#c00"/>
            <path d="M41.969 102.22v34.727h37.211c0 6.2 6.2 12.404 12.402 12.404v37.207h34.73v-37.207c6.202 0 12.402-6.204 12.402-12.404h37.211v-34.727h-37.211c0-6.2-6.2-12.404-12.402-12.404v-37.207h-34.73v37.207c-6.202 0-12.402 6.204-12.402 12.404h-37.211z" fill-rule="evenodd" fill="#ffe600"/>
            <path d="M43.209 103.46v32.249h37.208c0 6.2 6.202 12.402 12.404 12.402v37.207h32.248v-37.207c6.202 0 12.404-6.202 12.404-12.402h37.208v-32.249h-37.208c0-6.2-6.202-12.402-12.404-12.402v-37.207h-32.248v37.207c-6.202 0-12.404 6.202-12.404 12.402h-37.208z" fill-rule="evenodd" fill="#707070"/>
            <path d="M44.45 104.7v29.766h37.208c0 6.2 6.202 12.404 12.404 12.404v37.207h29.767v-37.207c6.202 0 12.404-6.204 12.404-12.404h37.208v-29.766h-37.208c0-6.2-6.202-12.402-12.404-12.402v-37.207h-29.767v37.207c-6.202 0-12.404 6.202-12.404 12.402h-37.208z" fill-rule="evenodd" fill="#a0a0a0"/>
            <g fill-rule="evenodd">
                <path d="M94.432 89.443c2.184 2.184.423 7.486-3.933 11.842s-9.658 6.117-11.842 3.933c-2.184-2.184-.423-7.486 3.933-11.842s9.658-6.117 11.842-3.933z" fill="#d0d0d0"/>
                <path d="M91.828 92.048c2.184 2.184 1.6 6.309-1.304 9.213s-7.029 3.488-9.213 1.304c-2.184-2.184-1.6-6.309 1.304-9.213s7.029-3.488 9.213-1.304z" fill="#808080"/>
                <path d="M80.912 98.454l.878-.878 3.514 1.758-1.758-3.514.878-.878 3.517 7.029-7.029-3.517z" fill="#d0d0d0"/>
                <path fill="#d0d0d0" d="M86.037 93.167l.877-.877 5.262 5.262-.877.877z"/>
            </g>
            <g fill-rule="evenodd">
                <path d="M139.087 105.079c-2.184 2.184-7.486.423-11.842-3.933s-6.117-9.658-3.933-11.842c2.184-2.184 7.486-.423 11.842 3.933s6.117 9.658 3.933 11.842z" fill="#d0d0d0"/>
                <path d="M136.482 102.474c-2.184 2.184-6.309 1.6-9.213-1.304s-3.488-7.029-1.304-9.213c2.184-2.184 6.309-1.6 9.213 1.304s3.488 7.029 1.304 9.213z" fill="#808080"/>
                <path d="M130.075 91.555l.878.878-1.758 3.514 3.514-1.758.878.878-7.029 3.517 3.517-7.029z" fill="#d0d0d0"/>
                <path fill="#d0d0d0" d="M135.363 96.677l.877.877-5.262 5.262-.877-.877z"/>
            </g>
            <g fill-rule="evenodd">
                <path d="M123.458 149.727c-2.184-2.184-.423-7.486 3.933-11.842s9.658-6.117 11.842-3.933c2.184 2.184.423 7.486-3.933 11.842s-9.658 6.117-11.842 3.933z" fill="#d0d0d0"/>
                <path d="M126.062 147.122c-2.184-2.184-1.6-6.309 1.304-9.213s7.029-3.488 9.213-1.304c2.184 2.184 1.6 6.309-1.304 9.213s-7.029 3.488-9.213 1.304z" fill="#808080"/>
                <path d="M136.978 140.716l-.878.878-3.514-1.758 1.758 3.514-.878.878-3.517-7.029 7.029 3.517z" fill="#d0d0d0"/>
                <path fill="#d0d0d0" d="M131.853 146.003l-.877.877-5.262-5.262.877-.877z"/>
            </g>
            <g fill-rule="evenodd">
                <path d="M78.806 134.087c2.184-2.184 7.486-.423 11.842 3.933s6.117 9.658 3.933 11.842c-2.184 2.184-7.486.423-11.842-3.933s-6.117-9.658-3.933-11.842z" fill="#d0d0d0"/>
                <path d="M81.411 136.692c2.184-2.184 6.309-1.6 9.213 1.304s3.488 7.029 1.304 9.213c-2.184 2.184-6.309 1.6-9.213-1.304s-3.488-7.029-1.304-9.213z" fill="#808080"/>
                <path d="M87.818 147.611l-.878-.878 1.758-3.514-3.514 1.758-.878-.878 7.029-3.517-3.517 7.029z" fill="#d0d0d0"/>
                <path fill="#d0d0d0" d="M82.53 142.489l-.877-.877 5.262-5.262.877.877z"/>
            </g>
            <path d="M269.29 414.57c0 41.095-34.107 74.409-76.181 74.409s-76.181-33.314-76.181-74.409 34.107-74.409 76.181-74.409 76.181 33.314 76.181 74.409z" transform="matrix(.342 0 0 .35 42.921 -25.527)" stroke="#707070" stroke-width="1pt" fill="none"/>
            <path d="M269.29 414.57c0 41.095-34.107 74.409-76.181 74.409s-76.181-33.314-76.181-74.409 34.107-74.409 76.181-74.409 76.181 33.314 76.181 74.409z" transform="matrix(.261 0 0 .267 58.641 9.023)" stroke="#707070" stroke-width="1pt" fill="none"/>
            <path d="M100.265 140.667c0 .685-.555 1.24-1.24 1.24s-1.24-.555-1.24-1.24.555-1.24 1.24-1.24 1.24.555 1.24 1.24z" fill-rule="evenodd" fill="#d0d0d0"/>
            <path d="M120.111 140.667c0 .685-.555 1.24-1.24 1.24s-1.24-.555-1.24-1.24.555-1.24 1.24-1.24 1.24.555 1.24 1.24z" fill-rule="evenodd" fill="#d0d0d0"/>
            <path d="M108.12 140.67v1.293h-1.654c-1.654 0-1.654 1.293 0 1.293h1.654v1.293c.006 1.341 1.443 1.502 1.549.105l.105-1.398h1.654c1.654 0 1.654-1.293 0-1.293h-1.654v-1.293c0-1.293-1.654-1.293-1.654 0z" fill-rule="evenodd" fill="#d0d0d0"/>
            <path d="M102.77 122.35v.733s-.389.561-2.868.733c-2.479.172-2.868 0-2.868 0 .065.639.547 1.851.41 3.299.097 1.685-.474 3.211-.474 3.211.065.088-.233.132-.755.088.41-.367.362-1.427.41-2.933.047-1.506-1.564-3.772-1.229-4.399.335-.627 7.375-.733 7.375-.733z" fill-rule="evenodd" stroke="#707070" stroke-width=".109pt" fill="#d0d0d0"/>
            <path d="M112.61 119.69c2.412-.111 6.459-.087 6.459-.087s.954 1.914.915 2.971c-.04 1.057-.368 1.957-.818 1.507-.45-.45.209-.365.289-1.507.08-1.142-.77-2.326-.77-2.326s-1.73.755-4.332.603c-2.602-.152-1.45-1.116-1.742-1.162z" fill-rule="evenodd" stroke="#707070" stroke-width=".109pt" fill="#d0d0d0"/>
            <path d="M113.43 121.58c2.412-.111 3.995.258 3.995.258s.954 1.914.915 2.971c-.04 1.057-.368 1.957-.818 1.507-.45-.45.209-.365.289-1.507.08-1.142-.77-2.326-.77-2.326s-1.73.755-4.332.603c-2.602-.152-1.86-.308-2.151-.353-.292-.045-.362.72-4.299.827-3.937.107-5.944-.827-5.944-.827s-.389.561-2.868.733c-2.479.172-2.868 0-2.868 0 .065.639.547 1.851.41 3.299.097 1.685-.474 3.211-.474 3.211.065.088-.233.132-.755.088.41-.367.362-1.427.41-2.933.047-1.506-1.564-3.772-1.229-4.399.335-.627 2.12-.041 2.458-.367.338-.326-1.59-2.621-1.229-4.765.361-2.145 2.404-1.54 4.917-1.466 2.512.074 8.078.724 9.423 0 1.345-.724.763-3.407 2.049-5.132.819-1.1 2.049-1.466 3.278-1.466.819 0 2.049 2.933 2.049 3.666l-.41.367h-.41v.367c-.935.094-1.066-.8-1.639-1.466-.246 1.033.819 4.399.819 6.598 0 1.833-.766 2.641-.814 2.511z" fill-rule="evenodd" stroke="#707070" stroke-width=".109pt" fill="#d0d0d0"/>
            <path d="M105.54 118.4c.034.731-3.166 2.369-3.427 3.017-.261.649.814 1.008.481 1.378-.332.37-.606.233-.674.301-.068.069-1.203-2.541-1.203-2.541s3.002-1.354 2.888-1.938c-.114-.584-2.217-.94-2.599-2.412-.383-1.472-.17-4.315-.481-4.91-.311-.595-3.995-1.162-3.998-2.061-.003-.899 3.787-3.366 4.197-3.733.41-.367.819.367.41.733-.41.367-3.377 2.633-3.377 3s2.458.733 3.278.733c.819 0 1.229-.367 1.229-.733.005-.317-.819-.367-.819-1.1s.41-1.1 1.229-1.1c.41 0 1.197.469 1.229 1.1s-.729.684-.819 1.1c-.09.416.819.733 1.639.733.819 0 3.617 2.132 4.027 2.499.41.367.819.367.41.733-.41.367-.17.801-.58.434-.349-.354-.41-.733-.41-.733-.035-.333-3.038-1.833-3.447-1.466-.41.367 0 4.766 0 5.132 0 .733.853.731.819 1.833z" fill-rule="evenodd" stroke="#707070" stroke-width=".109pt" fill="#d0d0d0"/>
            <path fill-rule="evenodd" fill="#a7a7a7" d="M100.32 109.9h4.917v5.132h-4.917z"/>
            <rect transform="matrix(.554 .832 -.882 .471 0 0)" fill-rule="evenodd" rx=".445" ry=".199" height=".399" width="30.647" y="-25.672" x="138.6" fill="#808080"/>
            <path d="M180.71 42.52c0 3.914-3.173 7.087-7.087 7.087s-7.087-3.173-7.087-7.087 3.173-7.087 7.087-7.087 7.087 3.173 7.087 7.087z" fill-rule="evenodd" transform="matrix(.116 0 0 .103 80.65 101.47)" stroke="#707070" stroke-width="1pt" fill="#d0d0d0"/>
            <path d="M115.88 112.54c0 .304-1.902.66-4.097.66-2.195 0-4.097-.357-4.097-.66 0-.304 1.902.44 4.097.44 2.195 0 4.097-.744 4.097-.44z" fill-rule="evenodd" fill="#808080"/>
            <path fill-rule="evenodd" fill="#a7a7a7" d="M100.73 115.03h4.097v1.466h-4.097z"/>
            <path d="M114.048 111.417c-.397.744-.774 1.275-.842 1.186-.068-.089.199-.764.597-1.509.397-.744.774-1.275.842-1.186.068.089-.199.764-.597 1.509z" fill-rule="evenodd" fill="#808080"/>
            <path d="M115.083 113.343c-.452.397-.829.654-.842.574-.013-.08.344-.466.796-.863.452-.397.829-.654.842-.574.013.08-.344.466-.796.863z" fill-rule="evenodd" fill="#808080"/>
            <path d="M114.564 112.414c.334.607.553 1.12.491 1.147-.062.027-.383-.444-.717-1.05-.334-.607-.553-1.12-.491-1.147.062-.027.383.444.717 1.05z" fill-rule="evenodd" fill="#808080"/>
            <path d="M114.244 115.583c0 .101-1.284.183-2.868.183s-2.868-.082-2.868-.183c0-.101 1.284-.183 2.868-.183 1.584 0 2.868.082 2.868.183z" fill-rule="evenodd" fill="#808080"/>
            <path d="M104.824 115.215c0 .101-.917.183-2.049.183-1.131 0-2.049-.082-2.049-.183 0-.101.917-.183 2.049-.183 1.131 0 2.049.082 2.049.183z" fill-rule="evenodd" fill="#808080"/>
            <path d="M95.813 127.96s.676 1.643 3.556 1.666c2.881.023 3.872-.493 2.707-1.363s-3.333-.599-3.053.151c.28.751-.813 1.001-1.07.473-.257-.528-1.289-2.091.566-2.196 1.855-.105 5.785-.674 6.766.416.982 1.09-1.109 2.078.472 2.309 1.582.231 1.806-.264 4.528-.413 2.722-.149 3.761.505 4.693.413.932-.091.801-1.694.063-2.101-.738-.407-2.155-.481-2.518-.927-.363-.446-1.351-.083-1.259-.587.092-.504 1.401.347 1.416.089l.26-.222c-.165-.038-.259.023-.382.089.134-.107.126-.157.171-.245l-.214.091.091-.175c-.034.023-.293.151-.296.063.004-.036.135-.128.089-.178-.037-.042-.234.048-.259.059.112-.15.104-.149-.004-.26-.094-.111-.163-.109-.318.017.064-.181.082-.219-.073-.288-.127-.069-.133-.134-.292.189.06-.346-.102-.361-.034-.526.04-.151.251-.214.599-.181.676.006 1.038.816 1.259.814.221-.002.468-.859 1.416-.511.948.347 1.065.418 1.542.625.477.206-.335.521-.063.927s2.134 1.764 1.605 3.18c-.529 1.415-1.892 1.639-2.014 2.252-.122.613 4.314.361 5.445.568 1.13.206 1.843 1.051 1.888 1.192.045.142-1.983.132-1.983.132s-1.042-.538-3.525-.587c-2.483-.049-3.429-1.051-4.359-1.176-.93-.126-2.911.211-4.018.161-1.107-.049-2.229-.225-2.947-.322-.717-.097-4.286 1.611-4.274 2.009-.744-.028-2.496-.123-2.423-.076.072.047.314-.775 1.679-.919 1.365-.145 2.695-.799 2.651-1.229-.044-.43.264-1.904.378-2.536.114-.632.625-.937.504-1.268-.122-.331-1.682-.672-3.179-.662-1.497.01-3.158.093-3.399.454-.241.361-.059 1.408.252 1.287s-.075-.805.252-.946c.327-.141 1.165-.266 1.951-.284.787-.018 2.154.67 2.14.89-.014.22.44.952-.189 1.23s-1.915.403-3.147.341c-1.232-.062-2.479-.485-2.927-.757-.448-.272-.724-1.098-.724-1.155z" fill-rule="evenodd" stroke="#808080" stroke-width=".059pt" fill="#d0d0d0"/>
            <path d="M114.053 125.53c0 .182-.147.329-.329.329-.182 0-.329-.147-.329-.329 0-.182.147-.329.329-.329.182 0 .329.147.329.329z" fill-rule="evenodd"/>
            <path d="M129.51 120.77l1.595.344 2.665-1.824-.206.957-1.388.927c-.259.17-.515.326-.767.467.158.221.334.485.525.793l.859 1.391-.198.917-1.659-2.841-1.595-.344.17-.787z" fill="#d0d0d0"/>
            <path d="M126.79 109.04l3.086-1.421-.839-1.821.413-.19 2.017 4.379-.413.19-.842-1.828-3.086 1.421-.337-.731z" fill="#d0d0d0"/>
            <path d="M122.01 103.23l2.841-2.602.558.609-.073 4.399 2.231-2.043.521.569-2.841 2.602-.558-.609.075-4.401-2.233 2.044-.521-.569z" fill="#d0d0d0"/>
            <path d="M109.59 98.214l.466-3.824.799.097-.411 3.373 2.975.362-.055.451-3.773-.46z" fill="#d0d0d0"/>
            <path d="M103.48 98.762l-.69-3.79.792-.144.608 3.343 2.948-.536.081.447-3.74.68z" fill="#d0d0d0"/>
            <path d="M92.198 104.33l-.283-.353 2.01-1.613.894 1.116c-.184.403-.409.776-.673 1.118-.266.341-.572.65-.918.927-.466.373-.941.65-1.424.83-.482.177-.916.224-1.302.14-.386-.084-.697-.273-.934-.569-.234-.293-.357-.642-.367-1.049-.009-.41.119-.822.383-1.235.264-.413.633-.81 1.106-1.188.343-.275.681-.487 1.015-.638.335-.153.631-.23.89-.231.258 0 .51.068.754.205l-.488.552c-.194-.096-.379-.145-.555-.148-.176-.003-.383.048-.621.154-.239.104-.479.252-.719.444-.287.23-.512.457-.677.681-.166.222-.278.431-.335.625-.055.193-.075.371-.06.536.028.283.129.533.303.75.215.268.466.435.756.499.291.063.612.026.96-.109.349-.136.68-.329.993-.58.272-.218.512-.464.718-.736.206-.274.345-.503.419-.686l-.449-.56-1.397 1.118z" fill="#d0d0d0"/>
            <path d="M92.068 132.03l-3.141 2.231-2.376-3.346.371-.263 1.91 2.69.973-.691-1.653-2.328.371-.263 1.653 2.328 1.427-1.013.466.656z" fill="#d0d0d0"/>
            <path d="M87.441 127.02c.447-.126.746-.414.897-.866.149-.453.143-.966-.019-1.538-.164-.583-.43-1.025-.795-1.327-.367-.305-.788-.39-1.266-.255-.302.085-.542.241-.72.466-.181.224-.289.508-.324.855-.037.345-.002.709.107 1.096.155.548.408.987.759 1.316.349.327.803.412 1.361.254zm.218.801c-.616.174-1.171.049-1.665-.375-.496-.423-.861-1.048-1.094-1.873-.153-.54-.209-1.051-.168-1.531s.176-.875.406-1.184c.227-.311.526-.519.897-.624.376-.106.746-.081 1.111.074.364.156.685.432.963.828.276.397.486.849.629 1.358.156.551.21 1.068.164 1.549-.046.482-.183.876-.412 1.182-.229.306-.506.505-.831.596z" fill="#d0d0d0"/>
            <path d="M87.981 120l-3.852-.087.061-2.697c.012-.542.057-.954.133-1.234.074-.281.201-.504.38-.668.179-.165.374-.245.586-.24.273.006.5.151.682.435.181.284.291.718.328 1.302.069-.211.137-.372.203-.481.142-.232.318-.451.527-.657l1.072-1.034-.023 1.012-.819.787c-.237.23-.418.419-.544.569-.126.149-.215.284-.267.405-.052.118-.088.239-.11.363-.015.091-.024.24-.028.447l-.021.934 1.71.039-.018.805zm-2.134-.853l.039-1.731c.008-.368-.009-.656-.051-.864-.044-.209-.118-.368-.221-.478-.104-.111-.219-.167-.343-.17-.182-.004-.334.098-.456.306-.122.205-.188.532-.198.983l-.043 1.925 1.274.029z" fill="#d0d0d0"/>
            <path d="M96.55 102.2l.026-4.505.744-.446 4.115 2.027-.787.471-1.208-.636-2.183 1.306.026 1.344-.734.439zm.694-2.259l1.77-1.059-1.092-.59c-.333-.178-.593-.333-.781-.464.06.251.093.518.096.8l.007 1.313z" fill="#d0d0d0"/>
            <path d="M115.85 98.734l4.157-1.738.701.51-.256 4.58-.741-.54.113-1.361-2.056-1.498-1.227.549-.691-.503zm2.351-.245l1.667 1.214.115-1.236c.035-.376.075-.676.122-.9-.208.153-.441.287-.698.401l-1.205.52z" fill="#d0d0d0"/>
            <path d="M128.5 112.83l3.747-.897.628 2.623c.126.527.188.936.185 1.227-.001.29-.066.537-.198.743-.131.205-.3.332-.506.381-.266.064-.522-.019-.77-.247-.247-.228-.464-.62-.649-1.176-.013.222-.038.395-.073.517-.078.26-.192.516-.343.769l-.774 1.273-.236-.984.592-.97c.17-.282.297-.512.381-.688.084-.177.135-.33.155-.46.02-.126.025-.253.015-.378-.009-.092-.038-.239-.086-.44l-.217-.908-1.664.398-.187-.783zm2.281.282l.403 1.683c.086.358.175.632.27.823.096.19.207.325.335.406.129.08.254.105.375.076.177-.042.298-.179.364-.411.066-.229.046-.563-.059-1.002l-.448-1.872-1.24.297z" fill="#d0d0d0"/>
        </g>
    </g>
</svg>
