<svg xmlns="http://www.w3.org/2000/svg" xmlns:xlink="http://www.w3.org/1999/xlink" viewBox="0 0 640 480">
   <path fill="#fff" d="M0 0h640v480H0Z" style="stroke-width:.00818411" />
   <path fill="#cf142b" d="M320 0h320v480H320Z" style="stroke-width:.00818411" />
   <g fill="#fff" stroke="#000" stroke-width="96" transform="matrix(.0147 0 0 .0147 161.847 160.552)">
      <path fill="none" stroke="#cf142b" stroke-width="512"
         d="M-2048-7168h4096v3890.8A1094 964 45 0 1 3277.2-2048H7168v4096H3277.2A964 1094 45 0 1 2048 3277.2V7168h-4096V3277.2A1094 964 45 0 1-3277.2 2048H-7168v-4096h3890.8A964 1094 45 0 1-2048-3277.2Z" />
      <path stroke="none"
         d="M2024-3275.2A1094 964 45 0 1 3275.2-2024v4048A964 1094 45 0 1 2024 3275.2h-4048A1094 964 45 0 1-3275.2 2024v-4048A964 1094 45 0 1-2024-3275.2Z" />
      <path stroke-width="48" d="M-2024-7144h4048V7144h-4048zm-5120 5120H7144v4048H-7144Z" />
      <path d="M-1792-6912h3584V6912h-3584zm-5120 5120H6912v3584H-6912Z" />
      <circle r="3200" />
      <circle r="2368" />
      <g id="a" stroke-linejoin="round" stroke-width="48">
         <path
            d="M3084-2565c-111 85-322 302-450 461l-119-74c163-141 389-350 514-499zm-101-185c-201 59-585 172-749 276l-36-52c69-99 147-506 144-622l125 28c-41 100-81 314-92 453 129-23 435-123 522-186z" />
         <path
            d="M3240.8-2291.9h-158.6a600 330 45 1 0-242.3 173.3l112.1-133.7 138.1 138.1-154.5 154.4a1070 940 45 0 1-974.1-1283 1070 940 45 0 1 1279.3 950.9z" />
      </g>
      <use xlink:href="#a" transform="rotate(90)" />
      <use xlink:href="#a" transform="scale(-1)" />
      <use xlink:href="#a" transform="rotate(-90)" />
   </g>
   <g transform="matrix(.0147 0 0 .0147 161.847 160.552)">
      <path
         d="M-2541 1790c-72-126-167-287-219-329 32-22 75-54 97-60-1 80 120 246 120 246l178-117c-50-77-94-136-130-159 44-32 91-59 104-62 1 39 24 104 92 184 0 0 166-88 220-156l70 114c-78 15-428 233-532 339zm-247-1517c-187 34-282 193-250 372 32 181 194 305 372 275 178-31 279-195 245-385s-180-296-367-262zm27 108c150-27 276 46 297 162s-72 231-223 258-271-69-288-166c-18-99 63-227 214-254zm366-1100c-62 98-199 188-320 271-17-86-81-141-155-146-79-4-160 59-174 101-20 58-45 307-45 307 156-12 497 15 614 58l14-132c-77 20-251-16-251-16l4-58 180-142c23-18 158-144 162-234 1-28-23-21-29-9zm-361 441c-71 2-219-6-260-24 16-143 60-194 136-187 70 7 144 47 124 211zm682-1772c-136 11-306 139-302 249 1 58 21 138 98 196 76 58 155 75 218 63 61-11 162-96 161-143 0-46-108-174-176-174l113-121c29 70 145 172 188 185-49 117-110 239-238 298-128 60-261 57-382-57-114-108-70-316 2-397 79-89 226-127 229-196zm638-673 24 454s9 161-28 261l141-99c-55-44-44-179-44-179l228-122s108 69 97 153l194-79c-113-43-253-142-253-142zm73 141 208 138-203 109zm1018-474c-26 111 2 330 43 512 141-13 249-27 297-87l13 150c-139 0-292 16-432 38 2-205-19-474-77-590zm1059 67c-65 94-119 308-147 492 136 40 242 66 309 27l-43 145c-129-50-278-92-416-123 76-189 155-448 144-576zm1071 485-396 225s-140 81-246 93l151 80c15-68 141-119 141-119l212 149s-14 129-94 156l157 138c-11-120 14-291 14-291zm-94 128-31 249-189-133zm304 932-62-117c102-8 409-188 550-280l22 40-132 603c118-47 305-145 356-199l70 133c-131-19-374 101-558 213l-18-32 113-587s-305 138-341 226zm930 872c-12-89-14-150-57-170l-5-37 109-18c45 117 96 443 89 527l-112 18-5-31c37-42 0-196 0-196-166 17-455 64-496 121l-26-154c59 20 350-11 503-60zM2388 752c62-98 201-187 322-269 17 86 80 142 155 146 79 5 160-56 174-99 21-58 47-306 47-306-156 10-496-19-613-63l-15 132c77-19 251 17 251 17l-4 58-181 141c-24 18-160 143-165 233-1 28 23 20 29 10zm365-439c71-1 219 8 260 26-17 143-62 194-138 186-70-8-143-48-122-212zm-566 836-93 160c72-11 172 46 253 99 27 72 133 256 125 436l120-206c-53-24-115-50-155-243 158-59 276-78 326-50l106-180c-123 74-412 150-460 134-50-29-192-73-222-150z" />
      <circle cx="1475" cy="2361" r="125" />
      <circle cx="-1475" cy="2361" r="125" />
   </g>
   <g transform="matrix(.0147 0 0 .0147 161.847 201.497)">
      <path
         d="M195 268c-13 9-48-9-56-37 0 9-2 37-19 53-41 39-85 20-120 20s-79 19-120-20c-17-16-19-44-19-53-8 28-43 46-56 37-12-9-6-48 18-64-8 2-36 9-56-2-50-27-45-75-56-108s-43-69-18-120c10-21 36-32 44-35-29 1-56-27-52-41 5-15 44-21 67-3-6-7-20-31-16-54 10-56 57-66 85-87 29-21 53-62 109-54 23 3 41 24 47 31-10-27 8-62 23-62s33 35 23 62c6-7 24-28 47-31 56-8 80 33 109 54 28 21 75 31 85 87 4 23-10 47-16 54 23-18 62-12 67 3 4 14-23 42-52 41 8 3 34 14 44 35 25 51-7 87-18 120s-6 81-56 108c-20 11-48 4-56 2 24 16 30 55 18 64zM-93 128c16 12-27 48-10 93 19 53 72 37 103 37s84 16 103-37c17-45-26-81-10-93s38 40 85 39c57-3 58-57 67-87 10-30 42-75-3-110-37-30-86 0-92-19s50-23 64-69c15-55-37-72-62-91-26-18-59-62-106-31-39 27-26 82-46 82s-7-55-46-82c-47-31-80 13-106 31-25 19-77 36-62 91 14 46 70 50 64 69s-55-11-92 19c-45 35-13 80-3 110 9 30 10 84 67 87 47 1 69-51 85-39z" />
      <path
         d="M0 199c-9 0-20-21-14-38-3 5-14 17-28 19-34 5-48-20-65-32-17-13-45-19-51-52-3-14 6-29 9-33-14 11-37 7-40-2-3-8 14-25 31-25-5-1-20-8-26-20-15-31 4-52 11-72 6-20 3-49 33-65 12-7 29-3 34-1-15-10-18-33-11-39 8-5 29 6 34 22 0-5 1-22 11-31 25-24 51-12 72-12s47-12 72 12c10 9 11 26 11 31 5-16 26-27 34-22 7 6 4 29-11 39 5-2 22-6 34 1 30 16 27 45 33 65 7 20 26 41 11 72-6 12-21 19-26 20 17 0 34 17 31 25-3 9-26 13-40 2 3 4 12 19 9 33-6 33-34 39-51 52-17 12-31 37-65 32-14-2-25-14-28-19 6 17-5 38-14 38zM0 85c11 0 4 30 25 44 25 17 43-6 57-16s42-20 33-49c-7-25-37-27-34-38 3-10 29 6 50-10 24-19 7-43 2-59-6-16-6-46-37-47-26-1-37 27-46 21s15-26 6-50c-11-29-39-20-56-20s-45-9-56 20c-9 24 15 44 6 50s-20-22-46-21c-31 1-31 31-37 47-5 16-22 40 2 59 21 16 47 0 50 10 3 11-27 13-34 38-9 29 19 39 33 49s32 33 57 16c21-14 14-44 25-44z" />
      <circle r="48" />
   </g>
   <g fill="none" stroke="#000" stroke-linecap="round" stroke-linejoin="round" stroke-width="36">
      <path stroke-width=".70608" d="M137.875 185.819a588.278 588.278 0 0 1 47.945 0" />
      <path stroke-width=".35304"
         d="M160.053 143.286c1.089 1.206 1.206 1.515 1.206 1.515m2.015 19.163c-.073 1.25-.015 2.545.191 3.207m-3.206-3c.47.514 1.103 2.294 1.015 2.955" />
      <path fill="#fff" stroke-width=".52956"
         d="M170.186 185.628c-.573.176-1.573.75-1.559 1.265.015.5 1.192.573 1.545.676-.633.265-2.648.647-3.545.191-.647.383-5.265-.676-6.206-.706-.588-.014-1.427-.514-1.324-1.647.015-.25.177-.823.736-1.015-.324-.558 1.103-1.5 2.515-2.353-2.118.28-4.78-.544-5.457-1.353-1.618-.559-2.323-.014-3 1.397.059 2.427-1.294 3.574-2.912 3.383-1.103-.132-1.338.382-1.632.5l3.294 1.015c2.147 2.074.882 3.588.412 3.97-.456.368-1.677.192-2.398.192-.72 0-.735.22-1.044.382-.514.265-1.03.412-1.25.177.133-.338.338-1.662 1.22-1.868.53-.044 1.486-.294 1.516-.794.014-.485-1.765-.412-3.162-.941-1.177-.442-1.574-1.045-1.147-2.883.338-2.044 2.735-2.28 3.897-2.294-.162-.868-.059-2.368 1.03-3.353 1.588-1.456 4.044-.927 6.132-.795 1.191-.661 3.397-1.647 5.56-1.735 1.94-.074 10.544-2.294 14.456-1.868-.882-1.309-.676-4.397.927-5.309 2.044-1.147 4.25 1.956 4.78 1.412.53-.559-.662-1.368-2.162-2.927-.368-.691-.294-.603-.31-.823-.029-.5.09-1.103.28-1.236.177-.117 1.397.338 1.692.78.397.603.897.882 1.294.559.515-.398-.147-.25-.441-1.118-.147-.427-.486-.765-.471-1.191.294-.339 1.441-1.28 2.338-1.574.368.353.603.823.898 1.294.72 1.088 1.382.794 1.867 1.53.177.294.177 1.073.53 1.735.632 1.22 1.882 2.603 3.53 3.589.25.161.602.47.632.72.044.383-.265.765-.412.941-.206.265-.941.28-1.647-.058-1.074-.515-1.456-.78-2.089-.692-1.382.206-2.294 2.412-4.25 2.442-1.853-.265-3.103-2.927-4.191-2.147-1.074.779 2.53 3.059 2.088 4.015.309.235.809 1.029.691 1.69 1.839-.396 3.31-1.646 3.854-2.661.94-1.31 1.69-2.044 2.25-2.28.544-.235 1.25.103 1.25.53.206-.044.515.206.897.264.559.265.338.81.176 1-.014-.088-.308-.19-.588-.323-.294-.118-.75.25-1.176.603-.427.338-.736 1.162-1.162 1.691-.427.515-1.53 1.574-2 2.147.264.398.132 1.133.176 1.486.103 0 .456.088.662.235.191.147.162.309.073.706-.132.485-1.956 2.662-2.485 2.647-.809 0-1.324-.956-1.25-1.353-.883.412-1.28-.559-1.31-.912-.337.456-1.676 1.192-2.161 1.368-.47.177-.662.236-.809-.397-.147.427-1.338.868-1.618.927-1.544.309-3.118.985-4.647.97l-3.75-.073z" />
      <path fill="#fff" stroke-width=".32362"
         d="M175.48 171.377c.016.588-.837 2.103.413 3.176.764.648 2.103 1.192 2.544 2.03.368.706-.147 1.338-.309 1.294-.824-.176-1.912 1.25-2.309 2.221-.456-1.368-1.353-1.03-2.5-.838.309-1.427-.838-2.324-2.603-2.56.294-.293-.191-.75-.618-1.132-.441-.382-1.824-.073-1.956-.382-.132-.309.662-.897.265-1.53-.383-.647-2.044-.264-2.574-.485.118-.794.206-1.235-.191-1.941-.412-.72-2.28-.5-3.192-.706.75-.53 1.089-1.31.677-2.162-.427-.883-2.397.162-2.383-1.015.06-.412 2.31-.75 3.221-.809.839-.044 3.78.633 6.515 1.294.648.545 4.942 1.868 5 3.545z" />
      <path stroke-width=".52956"
         d="M182.805 182.583c1.368-.676 2.706-1.558 4.133-2.809m-25.65-1.044c1.236.06 3.898.456 4.663 1.471.764 1.03 1.25 2.662-4.06 4.044 1.589.015 3.971-.382 4.81-.176.75-.132 2.456-.691 3.176-.456-.279.132-1.176.382-1.206.912-.029.53.383.618 1.148.853m5.118-3.56c1.838.354 4.515-.19 4.897 1.736" />
      <path stroke-width=".35304" d="M181.172 166.803c.574.559 1.956 1.53 2.706 2.059.986.691 1.442-.177.677-1.427" />
      <path stroke-width=".32362"
         d="M168.142 175.186c1.868-.382 4.53-.765 6.103-.691m-8.412-1.324c2.927-.794 6.133-.456 8.148-.426m-.53 6.397c.544-.691 1.765-1.677 2.692-2.515m-5.413.059c.898-.368 2.589-1 4-1.25m-4.25-7.604c1.574-1.544 3.427-1.323 5.192-2.264 1.059-.545 1.97-2.06 3.044-3.104.486-.411.839-.735 2.06-.632 1.279.103 1.44.5-.207.691-1.176.147-1.22.72-1.69 1.618-.398.765-.016 1.662.22 2.28-.294.617-.662 1.5-.765 2.176-.059.338.088.603.5 1.103m-16.384.824c4.133-.897 10.06.647 11.178.72" />
      <path stroke-width=".23536"
         d="M187.658 177.068c1.339-.72 1.353-2.088 3.133-2.676m-6.677 9.103c1.706-.809 2.073-1.5 3-2.235m.838-13.707c-.132.132-.559-.044-.764-.294-.192-.265-.295-.618-.133-.78.147-.147.383-.117.736.177s.294.75.161.897zm.383 3.103c-.81.118-.942-.544-1.736-.676-.853-.162-1.426.397-1.426.911 0 .53.53.986 1.059 1.015.53.03.97-.353 2.073-.235m-3.853-7.148c.647.06 1.309.177 1.794-.264" />
      <path fill="#fff" stroke-width=".1471"
         d="M162.745 150.67a.35.175 75 0 1-.221-.662.359.18 76 0 1-.191-.692.36.18 77 0 1-.191-.69.365.183 79 0 1-.177-.707.37.185 80 0 1-.162-.72.184.367-8 0 1-.132-.721.187.373-7 0 1-.118-.735.19.38-5 0 1-.103-.75.185.37-3 0 1-.073-.736.188.377-1 0 1-.044-.75.189.377 1 0 1-.03-.75.192.384 4 0 1 .015-.765.188.377 6 0 1 .044-.75.19.379 9 0 1 .074-.75.194.389 12 0 1 .117-.765.193.385 15 0 1 .162-.75.192.384 19 0 1 .206-.735.196.391 23 0 1 .25-.735.201.402 27 0 1 .309-.736.204.407 31 0 1 .368-.72.204.408 35 0 1 .426-.692.21.42 40 0 1 .485-.676.212.424 45 0 1 .56-.632.22.44 49 0 1 .617-.618" />
      <path stroke-width=".1471"
         d="m163.583 150.42-.838.25m.69-.912-.911.25m.78-.927-.971.235m.838-.926-1.03.235m.927-.926-1.103.22m1-.926-1.162.206m1.089-.912-1.221.19m1.162-.896-1.28.162m1.25-.868-1.353.118m1.339-.81-1.412.074m1.426-.78-1.47.03m1.5-.72-1.53-.03m1.589-.662-1.574-.103m1.677-.573-1.633-.177m1.75-.485-1.676-.265m1.838-.382-1.72-.383m1.911-.264-1.75-.486m1.986-.132-1.78-.603m2.044.015-1.794-.75m2.088.161-1.78-.897m2.133.353-1.764-1.073m2.147.544-1.721-1.236m2.162.721-1.677-1.397m2.148.926-1.589-1.558m2.118 1.117-1.5-1.735" />
      <path fill="#fff" stroke-width=".52956"
         d="M172.922 140.727c-.868.192-1.31.221-2.427.265-.22.515-.235 1.912-.22 2.412 2.367 2.25 4.662 5.148 4.809 7.883.735.588 1.206 1.191 1.617 2.28 1.692-.839 3.398-2.28 4.84-2.648.94-.235 2.602-.308 3.426.177.456.265 4.485 2.72 5.662 3.441 1.162.736 1.97 1.692 2.544 2.53.574.838.633 2.353.442 2.735l-3.383-.97c-.235-.56-.044-1.206.22-1.765.25-.53.25-.559-.235-.941-.323-.265-.78-.192-1.103-.118-.323.059-.838-.074-1.132-.544-.324-.485-3.868-2.044-4.471-2.133-.588-.088-1.486-.103-2.22.589-.354.573-1.545 2.426-2.486 3.265-.25.25-.295.529-.147.823 0 0 2.25-.088 3.617.103 1.383.206 3.104 1.633 3.854 2.53 3.441 3.162 4.75 4.882 5.868 5.97.5.486 1.044 1.03.926 1.78l-3.353-.059c.044-1.206-.191-2.073-.397-2.735-.397-.544-1.103-.28-1.382-.265-.28.03-.706-.573-1.045-1.117-.426-.956-2.25-2.236-3.059-2.736-.809-.5-1.088-.28-1.941-.353-.515-.162-1.691-.368-2.544-.03-.853.339-3.354 1.133-5.662 1.398-.854.382-3.368.853-6.03 1.426-2 .427-6.486 1.148-7.442 1.162-.294 2.162-2.56 5.192-3.206 5.53-.662.882-.633 1.662-.177 2.059.47.412 3.898.412 4.75.441.868.015 2.574.074 2.824.118.589.088 1.324.794 2.206 1.28.633.338.765.69 1.162 1.323.25.412.633.809.765 1.162l-4.044-.088c.044-.853-.456-1.574-1.03-1.574-.559.397-1.25.868-2.015.559-3.132-.191-5.132-.059-8.044-.25-.824-.044-1.56-1.236-1.25-2.324.308-1.103.176-1.853-.03-2.647-.294.323-1.441 1.456-2.088 2.206-1 1.132-.427 2.353-.06 2.97.604.515 3.928 3.722 4.369 4.692.338.515 1.662 1.56 2.985 2.662.427.986 1.221 1.47 1.853 2.118l-5.132.015c.161-.324.235-.633.309-1.353.029-.265-.31-.853-.971-.78-.677.088-1.265-.691-1.47-1.323-.207-.648-2.472-3.545-3.148-4.192-.677-.632-2.72-2.72-3.074-2.853-.368-.132-.456-.882-.03-1.324.442-.44 1.707-2.456 2.104-3.765.265-.897-.059-.97-.265-1.25-2.235-1.662-4.191-3.868-5.353-5.97-.427.264-2.868.25-4.089-.354-.926-.441-2.162-.573-2.823.47-.383.619-.368 1.78.308 2.295.971.735 2.133 1.941 3.25 3.324 1.118 1.382.148 2.294-1.264 3.5.206.53-.03.441.235 1.324.47.676.47 2.382-.132 2.735-.589.383-1.353.765-2.06 1.589-.705.853-1.014.03-.705-1.383.176-.882-.544-1.618-1.162-2.294-.603-.677-.294-2.647.103-3.236.382-.558.78-1.706-.074-2.559-.853-.853-2.544-2.647-2.28-5.03.324-3.147 3.369-4.147 5.178-3.323 2.941 1.323 4.691 1.03 5.574.838.882-1.426 1.985-2.78 3.794-3.809 1.691-.97 5.03-2.309 8.31-2.824l8.147-2.912c1.103-.323 1.059-1.294.956-1.853-1.059-5.5-.735-11.31 3.736-14.266.47-.426.323-1.632 1.03-2.573.131.412 1.043 1.53 1.25 2.25 1.926.632 5.411 1.853 6.78 2.544.66.324 1.352.368 1.764.53.368.147.706.514.941.97.368.662-.044 1.31-.397 1.5-.265.133-1.882-.411-2.28-.044.074.368.486.765 1.354 1.118.397.177-.206.912-.677.956-.265.03-.632-.088-.868-.265-.956-.28-1.985-.676-2.985-1.015z" />
      <path stroke-width=".52956"
         d="M167.333 137.139c-.044 3.383 1.103 5.089 2.942 6.265m6.426 10.163a9.514 9.514 0 0 1 .015 4.073m-24.737 13.03c2.56-1.205 4.78-4.102 4.706-5.838-.044-1.015-.838-2.574-3.118-2.647m3.118 2.647c.706.28 2.265.103 3.383.25m12.633-8.236c1.986.089 4.648 1.221 5.957 1.162m-6.883 2.794c1.676.368 1.706 1.177 5.191 1m-6.03-12.22c1.956.058 3.074 1.014 4.148 1.705" />
      <path stroke-width=".32362"
         d="M156.318 166.42c1.367-.014 2.397-.19 2.956-1.397m8.06-27.884c-.074 2.765 1.043 3.456 3.161 3.853" />
      <path stroke-width=".23536"
         d="M177.996 137.61c-.133.706-.147 1.264 1 1.161m-6.104-3.088c-.882 2.265 3.574 2.559 3.75 3.986m-24.986 14.707c2.176.955 1.926 5.28 1.911 7.809" />
      <path fill="#fff" stroke-width=".20594"
         d="M175.598 139.669c-.705 1.382-2.25 3.53-3.838 4.676-2.353 1.677-4.897 2.927-8.089 3.677-.426.103-.97.235-1.588.103-.603-.118-1.265-.515-1.692-1.382-.235-.456-.117-2.633.692-2.942a5.992 5.992 0 0 1 2.441-.367c.441.029 1.059.161 1.015.764-.03.515-.515.824-1.03.677-.617-.177-1.559-.53-2.088-.177-.368.236-.588 1.221-.338 1.662.382.706.764.927 1.162 1 .397.089.823 0 1.25-.103 3.059-.72 5.485-1.912 7.794-3.559 1.515-1.088 3.089-3.353 3.618-4.397zm-11.986 4.309c-.912-.191-2.382.03-2.515.412.677-.427 1.515-.295 2.471 0 .294.088.47-.339.044-.412zm5.957-7.457.353-.676c.073-.147-.265-1.765 1.411-.897 1.677.867.324 1.617.25 1.78-.073.146-.352.661-.352.661" />
      <path stroke-width=".35304" d="m166.745 135.036 9.471 4.956" />
      <g stroke-width="22">
         <path fill="#fff" stroke-width=".32362"
            d="M154.73 135.404c-1.677.161-4.766-.177-6.442-.471-.81-.147-3.089 3.162-4.295 3.397-1.206.236-2.353-2.426-4.132-1.794-.824.632.044 3.897-.456 4.31-.515.41-2.089-1.648-3.06-.957-.97.691.824 5.03.354 5.53-.442.47-2.648-1.897-3.31-1.456-.661.441.721 7.192.074 7.545-.662.353-3.72-1.78-4.118-.868-.397.912 4.31 3.059 5.633 3.118l1.323-.5c.442.235 4.207.544 4.574.573l2.162-2.19c3.31-4.31 6.942-8.355 11.692-8.104z" />
         <path stroke-width=".32362"
            d="m140.184 136.462 6.31-.235m-10.09 3.618 3.089-1.059m-6.015 5.089 2.809-1.236m-6.912 7.927 3.926-3.559m3.03 6.163c1.662-2.927 5.06-6.163 7.839-7.869m-10.678 6.192c2.368-2.853 9.148-7.633 11.31-7.898m-5.412-2.75c2.809-1.294 6.824-1.441 10.015-1.706m-5.485-.794c.397-.044 5.22-.647 7.28-.544m-14.546 7.677c3.75-2.192 7.413-3.971 11.545-5.265" />
      </g>
      <path fill="#fff" stroke-width=".41188"
         d="M168.245 191.246c.294.088.603.72.603.72s-.632.31-.897.25l-29.414-8.794c-.868-.265-.5-1.603.412-1.324zM140.14 150.14c-.176-.603-.706-1.147-1.103-1.22-.25-.03-.897.632-.868.838.074.426.927.97 1.265 1.088zm2.78 1.088-2.471 2.471c-.309.324.265.838.559.544l2.47-2.47c.31-.31-.279-.824-.558-.545zm-1.221 2.324 7.662 7.942 1.589.235-.236-1.588-7.941-7.663z" />
      <path stroke-width=".11768" d="m149.832 160.611-7.589-7.603" />
      <path fill="#fff" stroke-width=".52956"
         d="M159.994 138.55c-.058-.41.162-.661.471-.882.53-.367.382-.19.677-.044.279.147.573.383.735.515.206.147.323.074.397-.044.132-.206.176-.618.309-.75a.223.223 0 0 0 .25-.25c.162-.03.206-.132.191-.294-.03-.118.074-.441.265-.383.206.06.632.25.647-.03.03-.205.162-.97.235-1.558.603.103.397-.588.618-.677.647.236.882-.794.515-1.161.058-.824.661-.971 1.661-.956-.073-.56-.838-.721-1.367-1.427-.486-.72-2.089-1.647-3.81-1.618-1.72.044-3.132 1.648-3.764 2.353-.633.706-1.942 1.015-2.339.942-.382-.089-.559-.368-1-.412 0 0-1.118.03-1.706.044-.588 0-.809.412-1.47.324-.398-.03-2.015-.015-2.486.147-.47.161-.015 1.22.485 1.264.236.03 1.471.103 1.927.368.515.28 2.03.353 2.706.103 1.265-.456 2.103.397 3.5.735l.441.162c-.029.736.015 1.118-.352 1.118-.339 0-.898-.03-1.206-.059-.177 0-.898-.485-1.31-.573-.632-.133-1.014.132-1.264.235-1.633.676-7.677 5.383-8.265 6.456-.662 1.191-1.648 1.897-2.589 3.677-.53.985-1.53 2.191-2.132 3.853-1.015.456-2.06 1.412-2.221 1.633-.177.235.162.617.353.603-.074.147.28.544.559.514-.162.177.28.5.485.442-.118.176.191.661.441.647l2.442-2.442c0-1.044.617-2.206.94-2.78 1.31-1.588 3.016-4.22 3.486-4.926.25-.397 3.118-1.53 3.868-2.265-.19 2.059-.132 3.47.133 4.692.411 2 1.073 3.28 1.47 4.97.412 1.677 0 2.707.074 3.5.03.618.25.677.838 1.015.603.368 2.927.06 3.662.28 1.368.426 2.618.456 3.118.544 1.706-.235 2.986.235 3.53.662.559.441 1.647 2.97 2.059 3.912.397.926 2.603 2.22 3.059 2.75.47.515.809 2.015.72 2.677-.073.647.015.941.692.868.53-.074 2.485.294 2.853.485.353.176 1.206.853 1.5.882.294.03 1.691.177 2.338.118s.618-1.118.339-1.162c-.265-.03-1.383-.265-2.045-.426-.647-.147-2.103-1.442-2.676-2.148-.589-.72-.883-1.72-1.25-2.441-.383-.72-2.574-3.794-3.148-4.486-.176-.338-1.338-3.117-1.603-3.809-.25-.69-.823-.764-1.265-.897-1.823-.53-2.53-.765-4.397-1.118-1.353-.25-1.662-.323-1.78-1.323-.088-.75-.661-2.177-.367-3.162.103-.324.294-1.368.382-1.839.103-.47.397-1.25.47-1.72.089-.633.207-2.56.207-3.06 0-.911-.133-1.617-.236-2.367zm1.412 8.28c-.176.045-1.03.163-1.47-.014-.148-.073-.118-.368.029-.368-.088-.058-.235-.367-.03-.411-.117-.03-.264-.47-.058-.486-.206-.132-.206-.382 0-.47.147-.118 1.059-.147 1.441-.088.235.47.177 1.338.088 1.838z" />
      <path stroke-width=".52956"
         d="M158.097 135.11c.427.264.368-.03 1.133-.25.75-.221 1.25.44 1.014 1.058-.22.618-.25 1.133.56 1.177.808.044 1-.647 1.176-.985.191-.324.544-.31.75-.706.162-.824 1-.633 1.515-.545m1.044-1.838c-.412.22-1.294-.485-1.441-1.162-.25-.794-.824-1.368-1.839-1.382-1.015 0-2.941.573-3.353 1.765a42.985 42.985 0 0 0-.22 1.647c-.368.132-.721.014-.75.176.029.353.102.662-.104.81m-6.265 6.279 2.045-.882" />
      <path stroke-width=".26478"
         d="M153.362 140.272c.573 1.294.97 2.617 1.764 3.073m1.118.5c.853.427 1.427.28 2.441.118m-5.103 9.5c2.118.104 2.986 1.06 4.736 1.604 1.735.53 4.206.235 6.456 1.294m-11.824-9.677c.53.397 1.294.662 1.926.662m.927.044c1.118.176 2.147.617 2.309 1.265m-2.765 1.176c1.015.985 2.868 1.736 4.191 1.81" />
      <path stroke-width=".23536"
         d="M156.906 136.095c.956 3.088 1.088 4.353 3.324 4.824m-4.133-5.015c.956 3.103 2 4.765 4.133 5.015m-5.015-5.412c.956 3.103 2.412 5.28 5.015 5.412M171.79 165.67c-.471-.352-.589-.573-.927-1.25l-.794-1.573-.5.264c-.221.103-.456-.294-.206-.411l.426-.206-.573-1.147c-.324-.06-.015-.25.206-.353.235-.118.573-.265.426.03l.574 1.146.411-.206c.25-.132.442.294.206.397l-.5.25.794 1.574c.339.677.456.897.456 1.485z" />
      <path stroke-width=".17652" d="m171.73 162.332-2.411 1.22m-2.221-1.779 3.177-1.603m-3.677 1.103 3.309-1.676" />
      <path stroke-width=".11768"
         d="m140.14 152.92 1.074-.971m-1.56.53 1.03-.927m-1.588.412 1.118-.942m19.751-4.574 1.044-.044m-1.132-.853.985-.029m-.926.515.97-.089m1.265-9.118c.22.133.427.235.632.265" />
   </g>
</svg>