<svg xmlns="http://www.w3.org/2000/svg" height="480" width="640" version="1">
  <g fill-rule="evenodd">
    <g>
      <path fill="#f41408" d="M0 0h639.997v480h-639.997z"/>
      <path fill="#21873b" d="M0 319.997h639.997v160.003h-639.997z"/>
      <path d="M0 0h639.997v160.003h-639.997z"/>
    </g>
    <g>
      <path d="M220.479 141.06c22.308-49.262 84.502-72.826 138.83-52.597 27.36 10.188 46.74 27.754 57.987 52.561l-196.81.037z" fill="#f31509"/>
      <path d="M194.509 147.425c-23.45-1.578-48.376-6.456-52.443-7.798-4.066-1.343-4.223-3.585-3.722-5.303.501-1.718 3.096-3.668 6.127-2.941 5.682 1.363 28.788 6.905 50.034 16.044z" fill="#f31509"/>
      <path d="M319.139 61.514c-4.208-20.98-5.271-44.079-4.86-47.985.411-3.907 2.765-4.608 4.724-4.6 1.959.008 4.693 1.795 4.679 4.638-.026 5.329-.131 27.003-4.543 47.948z" fill="#f31509"/>
      <path d="M330.679 62.001c-2.21-21.23-1.086-44.326-.308-48.186.778-3.86 3.19-4.376 5.141-4.216 1.951.16 4.506 2.153 4.224 4.984-.529 5.308-2.682 26.893-9.057 47.418z" fill="#f31509"/>
      <path d="M341.139 63.286c-.276-21.322 2.94-44.256 4.066-48.046 1.126-3.789 3.576-4.123 5.506-3.818 1.93.305 4.296 2.482 3.757 5.282-1.009 5.25-5.113 26.602-13.329 46.581z" fill="#f31509"/>
      <path d="M352.149 65.519c1.793-21.262 7.222-43.85 8.711-47.535 1.489-3.685 3.963-3.822 5.855-3.364 1.893.458 4.038 2.815 3.23 5.562-1.515 5.15-7.674 26.09-17.797 45.338z" fill="#f31509"/>
      <path d="M362.999 68.653c3.868-21.033 11.486-43.097 13.33-46.647 1.844-3.55 4.321-3.488 6.161-2.88 1.841.609 3.747 3.129 2.673 5.8-2.01 5.006-10.2 25.37-22.16 43.726z" fill="#f31509"/>
      <path d="M373.109 72.484c5.836-20.657 15.507-42.047 17.679-45.442 2.172-3.394 4.634-3.14 6.41-2.391 1.777.749 3.438 3.408 2.117 5.986-2.478 4.833-12.552 24.486-26.206 41.848z" fill="#f31509"/>
      <path d="M383.059 77.207c7.809-20.114 19.507-40.655 21.999-43.864 2.491-3.209 4.92-2.76 6.617-1.873 1.698.887 3.096 3.668 1.53 6.131-2.935 4.618-14.868 23.395-30.146 39.606z" fill="#f31509"/>
      <path d="M392.469 82.675c9.712-19.42 23.341-38.959 26.131-41.959 2.79-3 5.166-2.361 6.771-1.343 1.606 1.018 2.731 3.899.935 6.228-3.367 4.368-17.06 22.131-33.838 37.074z" fill="#f31509"/>
      <path d="M401.329 88.875c11.544-18.578 27.001-36.963 30.07-39.731 3.068-2.767 5.374-1.943 6.875-.802 1.502 1.141 2.346 4.1.332 6.279-3.775 4.085-19.126 20.697-37.277 34.253z" fill="#f31509"/>
      <path d="M409.579 95.765c13.292-17.591 30.464-34.68 33.787-37.192 3.324-2.513 5.54-1.509 6.926-.254 1.386 1.256 1.941 4.27-.275 6.281-4.154 3.77-21.049 19.101-40.439 31.166z" fill="#f31509"/>
      <path d="M417.159 103.31c14.943-16.466 33.701-32.122 37.255-34.361 3.554-2.239 5.665-1.063 6.924.298 1.259 1.361 1.52 4.408-.881 6.235-4.503 3.425-22.815 17.353-43.298 27.829z" fill="#f31509"/>
      <path d="M423.679 111.045c16.41-15.273 36.549-29.451 40.297-31.412 3.748-1.962 5.743-.629 6.872.823 1.129 1.452 1.108 4.508-1.454 6.146-4.804 3.071-24.338 15.56-45.715 24.444z" fill="#f31509"/>
      <path d="M429.579 119.433c17.791-13.944 39.193-26.508 43.113-28.172 3.92-1.664 5.782-.181 6.769 1.353.988 1.534.679 4.578-2.028 6.011-5.076 2.687-25.716 13.615-47.854 20.807z" fill="#f31509"/>
      <path d="M435.049 128.99c19.138-12.391 41.731-23.103 45.804-24.431 4.073-1.328 5.775.305 6.602 1.915.827 1.611.208 4.615-2.633 5.815-5.328 2.249-26.996 11.397-49.773 16.701z" fill="#f31509"/>
      <path d="M439.229 138.221c20.24-10.856 43.763-19.772 47.946-20.778 4.183-1.006 5.725.753 6.396 2.422.672 1.669-.229 4.614-3.174 5.589-5.521 1.827-27.974 9.255-51.169 12.768z" fill="#f31509"/>
      <path d="M442.589 148.006c21.216-9.197 45.514-16.198 49.779-16.866 4.265-.668 5.63 1.208 6.136 2.924.507 1.716-.676 4.578-3.704 5.313-5.677 1.378-28.765 6.984-52.21 8.629z" fill="#f31509"/>
      <path d="M307.849 61.912c-6.33-20.537-9.744-43.448-9.733-47.372.01-3.924 2.283-4.82 4.234-4.977 1.952-.157 4.856 1.394 5.132 4.225.518 5.309 2.624 26.898.367 48.123z" fill="#f31509"/>
      <path d="M296.749 63.213c-8.283-19.958-13.889-42.511-14.256-46.421-.367-3.91 1.81-4.982 3.739-5.293 1.929-.31 4.972 1.004 5.519 3.803 1.027 5.248 5.203 26.587 4.998 47.911z" fill="#f31509"/>
      <path d="M285.719 65.413c-10.19-19.218-17.97-41.235-18.72-45.102-.746-3.866 1.319-5.108 3.21-5.571 1.892-.463 5.05.603 5.868 3.347 1.533 5.145 7.766 26.069 9.634 47.325z" fill="#f31509"/>
      <path d="M275.319 68.359c-11.95-18.365-21.76-39.703-22.86-43.497-1.105-3.794.836-5.191 2.677-5.798 1.841-.607 5.088.212 6.16 2.883 2.009 5.009 10.179 25.376 14.03 46.412z" fill="#f31509"/>
      <path d="M265.159 72.131c-13.65-17.369-25.44-37.867-26.9-41.562-1.46-3.694.343-5.237 2.119-5.985 1.777-.748 5.09-.184 6.41 2.394 2.475 4.834 12.539 24.493 18.362 45.152z" fill="#f31509"/>
      <path d="M254.889 76.934c-15.313-16.184-29.09-35.636-30.91-39.196-1.821-3.56-.179-5.243 1.516-6.133 1.696-.89 5.051-.599 6.621 1.861 2.945 4.612 14.921 23.368 22.773 43.468z" fill="#f31509"/>
      <path d="M245.539 82.306c-16.8-14.924-32.37-33.226-34.53-36.63-2.153-3.404-.677-5.21.927-6.229 1.605-1.02 4.975-.992 6.774 1.336 3.373 4.365 17.089 22.113 26.826 41.524z" fill="#f31509"/>
      <path d="M236.779 88.282c-18.139-13.57-35.382-30.6-37.847-33.825-2.465-3.225-1.165-5.138.337-6.278 1.503-1.14 4.863-1.373 6.875.807 3.771 4.088 19.108 20.71 30.635 39.297z" fill="#f31509"/>
      <path d="M228.269 95.23c-19.4-12.053-38.25-27.621-41.02-30.634-2.772-3.013-1.665-5.024-.281-6.28 1.385-1.257 4.709-1.761 6.927.248 4.158 3.766 21.068 19.083 34.377 36.663z" fill="#f31509"/>
      <path d="M220.919 102.358c-20.447-10.532-40.668-24.613-43.709-27.405-3.041-2.792-2.124-4.879-.861-6.237 1.264-1.358 4.53-2.113 6.925-.28 4.492 3.437 22.758 17.415 37.645 33.922z" fill="#f31509"/>
      <path d="M213.879 110.501c-21.398-8.843-42.92-21.237-46.223-23.773-3.303-2.536-2.594-4.689-1.469-6.143 1.126-1.454 4.305-2.469 6.87-.837 4.811 3.062 24.375 15.511 40.821 30.752z" fill="#f31509"/>
      <path d="M207.569 119.324c-22.191-7.055-44.858-17.638-48.4-19.892-3.542-2.255-3.05-4.458-2.074-5.998.976-1.541 4.041-2.812 6.759-1.396 5.096 2.655 25.819 13.453 43.716 27.287z" fill="#f31509"/>
      <path d="M202.329 128.292c-22.785-5.275-46.383-14.025-50.128-15.992-3.745-1.967-3.467-4.2-2.643-5.811.824-1.612 3.756-3.12 6.599-1.924 5.332 2.243 27.014 11.361 46.171 23.727z" fill="#f31509"/>
      <path d="M198.129 137.278c-23.192-3.524-47.516-10.451-51.43-12.127-3.914-1.675-3.843-3.921-3.17-5.59s3.454-3.395 6.398-2.419c5.52 1.829 27.969 9.268 48.202 20.135z" fill="#f31509"/>
      <path d="M194.509 147.425c-23.45-1.578-48.376-6.456-52.443-7.798-4.066-1.343-4.223-3.585-3.722-5.303.501-1.718 3.096-3.668 6.127-2.941 5.682 1.363 28.788 6.905 50.034 16.044z" fill="#f31509"/>
      <path d="M129.386 141.522h381.23v12.562h-381.23z"/>
    </g>
  </g>
</svg>
