<svg xmlns="http://www.w3.org/2000/svg" height="480" width="640" version="1"><g fill-rule="evenodd"><g transform="matrix(.833 0 0 .938 108.2 0)"><rect height="512" width="768" x="-129.84" fill="#f41408"/><rect height="170.67" width="768" y="341.33" x="-129.84" fill="#21873b"/><rect height="170.67" width="768" x="-129.84"/></g><g transform="matrix(1 0 0 .907 60.299 .832)"><path d="M160.18 154.64c22.308-54.325 84.502-80.311 138.83-58.003 27.36 11.235 46.74 30.607 57.987 57.963l-196.81.041z" fill="#f31509"/><path d="M134.21 161.66c-23.45-1.74-48.376-7.12-52.443-8.6-4.066-1.481-4.223-3.954-3.722-5.848.501-1.894 3.096-4.045 6.127-3.243 5.682 1.503 28.788 7.615 50.034 17.693z" fill="#f31509"/><path d="M258.84 66.919c-4.208-23.136-5.271-48.609-4.86-52.917.411-4.308 2.765-5.082 4.724-5.073 1.959.009 4.693 1.98 4.679 5.114-.026 5.877-.131 29.778-4.543 52.876z" fill="#f31509"/><path d="M270.38 67.456c-2.21-23.412-1.086-48.882-.308-53.139.778-4.257 3.19-4.826 5.141-4.649 1.951.177 4.506 2.375 4.224 5.496-.529 5.853-2.682 29.657-9.057 52.292z" fill="#f31509"/><path d="M280.84 68.873c-.276-23.514 2.94-48.805 4.066-52.984 1.126-4.179 3.576-4.547 5.506-4.211 1.93.336 4.296 2.737 3.757 5.825-1.009 5.79-5.113 29.336-13.329 51.369z" fill="#f31509"/><path d="M291.85 71.335c1.793-23.447 7.222-48.357 8.711-52.421 1.489-4.063 3.963-4.215 5.855-3.71 1.893.505 4.038 3.105 3.23 6.133-1.515 5.679-7.674 28.772-17.797 49.998z" fill="#f31509"/><path d="M302.7 74.791c3.868-23.195 11.486-47.526 13.33-51.441 1.844-3.915 4.321-3.846 6.161-3.175 1.841.671 3.747 3.451 2.673 6.396-2.01 5.521-10.2 27.977-22.16 48.22z" fill="#f31509"/><path d="M312.81 79.016c5.836-22.78 15.507-46.369 17.679-50.113 2.172-3.743 4.634-3.463 6.41-2.637 1.777.826 3.438 3.759 2.117 6.601-2.478 5.33-12.552 27.003-26.206 46.149z" fill="#f31509"/><path d="M322.76 84.225c7.809-22.181 19.507-44.834 21.999-48.372 2.491-3.539 4.92-3.044 6.617-2.066 1.698.978 3.096 4.045 1.53 6.761-2.935 5.092-14.868 25.8-30.146 43.677z" fill="#f31509"/><path d="M332.17 90.255c9.712-21.416 23.341-42.963 26.131-46.271 2.79-3.308 5.166-2.603 6.771-1.481 1.606 1.123 2.731 4.3.935 6.869-3.367 4.817-17.06 24.406-33.838 40.884z" fill="#f31509"/><path d="M341.03 97.092c11.544-20.487 27.001-40.762 30.07-43.814 3.068-3.052 5.374-2.143 6.875-.885 1.502 1.258 2.346 4.522.332 6.924-3.775 4.505-19.126 22.824-37.277 37.774z" fill="#f31509"/><path d="M349.28 104.69c13.292-19.399 30.464-38.244 33.787-41.015 3.324-2.772 5.54-1.664 6.926-.28 1.386 1.385 1.941 4.709-.275 6.927-4.154 4.157-21.049 21.064-40.439 34.369z" fill="#f31509"/><path d="M356.86 113.01c14.943-18.158 33.701-35.424 37.255-37.893 3.554-2.47 5.665-1.172 6.924.329 1.259 1.501 1.52 4.862-.881 6.876-4.503 3.777-22.815 19.136-43.298 30.689z" fill="#f31509"/><path d="M363.38 121.54c16.41-16.843 36.549-32.478 40.297-34.641 3.748-2.163 5.743-.693 6.872.907 1.129 1.601 1.108 4.972-1.454 6.778-4.804 3.386-24.338 17.159-45.715 26.956z" fill="#f31509"/><path d="M369.28 130.79c17.791-15.377 39.193-29.232 43.113-31.067 3.92-1.835 5.782-.2 6.769 1.492.988 1.692.679 5.048-2.028 6.629-5.076 2.963-25.716 15.014-47.854 22.946z" fill="#f31509"/><path d="M374.75 141.33c19.138-13.664 41.731-25.478 45.804-26.942 4.073-1.464 5.775.337 6.602 2.112.827 1.776.208 5.09-2.633 6.412-5.328 2.481-26.996 12.568-49.773 18.417z" fill="#f31509"/><path d="M378.93 151.51c20.24-11.972 43.763-21.804 47.946-22.914 4.183-1.109 5.725.831 6.396 2.671.672 1.841-.229 5.089-3.174 6.163-5.521 2.014-27.974 10.206-51.169 14.08z" fill="#f31509"/><path d="M382.29 162.3c21.216-10.142 45.514-17.863 49.779-18.6 4.265-.736 5.63 1.332 6.136 3.224.507 1.893-.676 5.049-3.704 5.859-5.677 1.52-28.765 7.702-52.21 9.516z" fill="#f31509"/><path d="M247.55 67.357c-6.33-22.648-9.744-47.913-9.733-52.241.01-4.328 2.283-5.315 4.234-5.488 1.952-.173 4.856 1.537 5.132 4.66.518 5.854 2.624 29.662.367 53.069z" fill="#f31509"/><path d="M236.45 68.792c-8.283-22.009-13.889-46.88-14.256-51.192-.367-4.312 1.81-5.494 3.739-5.837 1.929-.342 4.972 1.107 5.519 4.194 1.027 5.787 5.203 29.32 4.998 52.835z" fill="#f31509"/><path d="M225.42 71.218c-10.19-21.193-17.97-45.473-18.72-49.737-.746-4.263 1.319-5.633 3.21-6.143 1.892-.511 5.05.665 5.868 3.691 1.533 5.674 7.766 28.748 9.634 52.189z" fill="#f31509"/><path d="M215.02 74.467c-11.95-20.252-21.76-43.784-22.86-47.968-1.105-4.184.836-5.724 2.677-6.394 1.841-.67 5.088.234 6.16 3.18 2.009 5.523 10.179 27.984 14.03 51.182z" fill="#f31509"/><path d="M204.86 78.627c-13.65-19.154-25.44-41.759-26.9-45.834-1.46-4.074.343-5.775 2.119-6.6 1.777-.825 5.09-.203 6.41 2.64 2.475 5.331 12.539 27.01 18.362 49.793z" fill="#f31509"/><path d="M194.59 83.924c-15.313-17.847-29.09-39.299-30.91-43.225-1.821-3.926-.179-5.782 1.516-6.764 1.696-.982 5.051-.66 6.621 2.052 2.945 5.086 14.921 25.77 22.773 47.936z" fill="#f31509"/><path d="M185.24 89.848c-16.8-16.458-32.37-36.641-34.53-40.395-2.153-3.754-.677-5.745.927-6.869 1.605-1.124 4.975-1.094 6.774 1.473 3.373 4.813 17.089 24.386 26.826 45.792z" fill="#f31509"/><path d="M176.48 96.438c-18.139-14.965-35.382-33.745-37.847-37.302-2.465-3.557-1.165-5.667.337-6.923 1.503-1.257 4.863-1.514 6.875.89 3.771 4.508 19.108 22.839 30.635 43.336z" fill="#f31509"/><path d="M167.97 104.1c-19.4-13.292-38.25-30.46-41.02-33.783-2.772-3.323-1.665-5.54-.281-6.926 1.385-1.386 4.709-1.942 6.927.273 4.158 4.154 21.068 21.044 34.377 40.431z" fill="#f31509"/><path d="M160.62 111.96c-20.447-11.615-40.668-27.143-43.709-30.222-3.041-3.079-2.124-5.381-.861-6.878 1.264-1.497 4.53-2.33 6.925-.308 4.492 3.791 22.758 19.205 37.645 37.408z" fill="#f31509"/><path d="M153.58 120.94c-21.398-9.752-42.92-23.42-46.223-26.216-3.303-2.796-2.594-5.171-1.469-6.774 1.126-1.604 4.305-2.723 6.87-.923 4.811 3.376 24.375 17.105 40.821 33.913z" fill="#f31509"/><path d="M147.27 130.67c-22.191-7.78-44.858-19.451-48.4-21.937-3.542-2.487-3.05-4.916-2.074-6.614.976-1.699 4.041-3.101 6.759-1.539 5.096 2.928 25.819 14.836 43.716 30.091z" fill="#f31509"/><path d="M142.03 140.56c-22.785-5.817-46.383-15.467-50.128-17.636-3.745-2.169-3.467-4.631-2.643-6.408.824-1.778 3.756-3.441 6.599-2.122 5.332 2.473 27.014 12.529 46.171 26.166z" fill="#f31509"/><path d="M137.83 150.47c-23.192-3.887-47.516-11.525-51.43-13.373-3.914-1.847-3.843-4.324-3.17-6.164.673-1.84 3.454-3.744 6.398-2.668 5.52 2.017 27.969 10.221 48.202 22.204z" fill="#f31509"/><path d="M134.21 161.66c-23.45-1.74-48.376-7.12-52.443-8.6-4.066-1.481-4.223-3.954-3.722-5.848.501-1.894 3.096-4.045 6.127-3.243 5.682 1.503 28.788 7.615 50.034 17.693z" fill="#f31509"/><rect height="13.853" width="381.23" y="155.15" x="69.087"/></g></g></svg>