<svg id="flag-icons-my" xmlns="http://www.w3.org/2000/svg" fill="none" viewBox="0 0 640 480"><g clip-path="url(#a)"><path fill="#C00" d="M0 0h640v480H0V0Z"/><path fill="#C00" d="M0 0h640v34.286H0z"/><path fill="#fff" d="M0 34.286h640v34.286H0z"/><path fill="#C00" d="M0 68.571h640v34.286H0z"/><path fill="#fff" d="M0 102.857h640v34.286H0z"/><path fill="#C00" d="M0 137.143h640v34.286H0z"/><path fill="#fff" d="M0 171.429h640v34.286H0z"/><path fill="#C00" d="M0 205.714h640V240H0z"/><path fill="#fff" d="M0 240h640v34.286H0z"/><path fill="#C00" d="M0 274.286h640v34.286H0z"/><path fill="#fff" d="M0 308.571h640v34.286H0z"/><path fill="#C00" d="M0 342.857h640v34.286H0z"/><path fill="#fff" d="M0 377.143h640v34.286H0z"/><path fill="#C00" d="M0 411.428h640v34.286H0z"/><path fill="#fff" d="M0 445.714h640V480H0z"/><path fill="#006" d="M0 .5h320v274.285H0V.499Z"/><path fill="#FC0" d="m207.498 73.8 6 40.699 23-34-12.4 39.2 35.5-20.8-28.1 30 41-3.2-38.3 14.8 38.3 14.8-41-3.2 28.1 30-35.5-20.8 12.3 39.3-23-34.1-6 40.7-5.9-40.7-23 34 12.4-39.2-35.5 20.8 28-30-41 3.2 38.4-14.8-38.3-14.8 41 3.2-28.1-30 35.5 20.8-12.4-39.3 23 34.1 6-40.7Zm-33.3 1.7a71.098 71.098 0 0 0-99.913 64.999 71.1 71.1 0 0 0 99.913 65 79.993 79.993 0 0 1-83.168 6.173 80.007 80.007 0 0 1-43.469-71.173 80 80 0 0 1 126.637-65Z"/></g><defs><clipPath id="a"><path fill="#fff" d="M0 0h640v480H0z"/></clipPath></defs></svg>