<svg xmlns="http://www.w3.org/2000/svg" height="480" width="640" version="1"><g fill-rule="evenodd"><rect height="480" width="640" x=".901" fill="#e80008"/><rect height="34.286" width="640" y="34.286" x=".901" fill="#fff"/><rect height="34.286" width="640" y="102.86" x=".901" fill="#fff"/><rect height="34.286" width="640" y="171.43" x=".901" fill="#fff"/><rect height="34.286" width="640" y="240" x=".901" fill="#fff"/><rect height="34.286" width="640" y="308.57" x=".901" fill="#fff"/><rect height="34.286" width="640" y="377.14" x=".901" fill="#fff"/><rect height="34.286" width="640" y="445.71" x=".901" fill="#fff"/><rect height="141.39" width="245.17" fill="#000689"/><g fill="#fe0" transform="matrix(.483 0 0 .483 0 7.696)"><path d="M257.76 232.94c-54.627 30.397-122.92 9.857-152.44-45.2-29.517-55.058-9.138-123.89 45.49-153.64 33.777-18.395 70.875-18.76 104.58-.667-19.02-4.578-36.004-4.332-54.459 1.151-53.759 15.97-84.662 73.362-68.979 128.11 15.683 54.745 72.042 86.214 125.8 70.244z"/><polygon transform="matrix(.85 0 0 .85 34.931 -42.019)" points="370.61 162.91 438.48 124.35 384.56 180.79 462.44 175.5 389.37 202.96 461.83 231.98 384.09 225.02 436.78 282.6 369.76 242.6 392.24 317.34 349.22 252.22 337.04 329.31 337.04 329.31 326.54 251.97 282.12 316.16 306.21 241.91 238.34 280.47 292.26 224.03 214.38 229.32 287.45 201.86 214.99 172.84 292.73 179.8 240.04 122.22 307.06 162.22 284.58 87.482 327.6 152.6 339.78 75.507 350.28 152.85 394.7 88.666"/></g></g></svg>