<svg viewBox="0 0 200 150" fill="none" xmlns="http://www.w3.org/2000/svg">
<g clip-path="url(#clip0_4888_17814)">
<path d="M0 0H200V150H0V0Z" fill="#CC0000"/>
<rect width="200" height="10.7143" fill="#CC0000"/>
<rect y="10.7142" width="200" height="10.7143" fill="white"/>
<rect y="21.4286" width="200" height="10.7143" fill="#CC0000"/>
<rect y="32.1428" width="200" height="10.7143" fill="white"/>
<rect y="42.8572" width="200" height="10.7143" fill="#CC0000"/>
<rect y="53.5714" width="200" height="10.7143" fill="white"/>
<rect y="64.2858" width="200" height="10.7143" fill="#CC0000"/>
<rect y="75" width="200" height="10.7143" fill="white"/>
<rect y="85.7142" width="200" height="10.7143" fill="#CC0000"/>
<rect y="96.4286" width="200" height="10.7143" fill="white"/>
<rect y="107.143" width="200" height="10.7143" fill="#CC0000"/>
<rect y="117.857" width="200" height="10.7143" fill="white"/>
<rect y="128.571" width="200" height="10.7143" fill="#CC0000"/>
<rect y="139.286" width="200" height="10.7143" fill="white"/>
<path d="M0 0.156128H100V85.8704H0V0.156128Z" fill="#000066"/>
<path d="M64.8432 23.0624L66.7182 35.7811L73.9057 25.1561L70.0307 37.4061L81.1244 30.9061L72.3432 40.2811L85.1557 39.2811L73.1869 43.9061L85.1557 48.5311L72.3432 47.5311L81.1244 56.9061L70.0307 50.4061L73.8744 62.6874L66.6869 52.0311L64.8119 64.7499L62.9682 52.0311L55.7807 62.6561L59.6557 50.4061L48.5619 56.9061L57.3119 47.5311L44.4994 48.5311L56.4994 43.9061L44.5307 39.2811L57.3432 40.2811L48.5619 30.9061L59.6557 37.4061L55.7807 25.1249L62.9682 35.7811L64.8432 23.0624ZM54.4369 23.5936C51.0543 22.0942 47.3508 21.4632 43.6625 21.758C39.9742 22.0528 36.4179 23.264 33.3164 25.2818C30.2149 27.2995 27.6664 30.0598 25.9022 33.3122C24.1381 36.5646 23.214 40.2061 23.214 43.9061C23.214 47.6062 24.1381 51.2477 25.9022 54.5001C27.6664 57.7525 30.2149 60.5128 33.3164 62.5305C36.4179 64.5482 39.9742 65.7594 43.6625 66.0542C47.3508 66.349 51.0543 65.7181 54.4369 64.2186C50.7011 66.8991 46.2985 68.4973 41.7132 68.8376C37.1278 69.1779 32.5375 68.247 28.4469 66.1474C24.3564 64.0478 20.9241 60.8608 18.5275 56.9369C16.1309 53.0129 14.8629 48.5041 14.8629 43.9061C14.8629 39.3082 16.1309 34.7993 18.5275 30.8754C20.9241 26.9515 24.3564 23.7644 28.4469 21.6648C32.5375 19.5652 37.1278 18.6344 41.7132 18.9747C46.2985 19.315 50.7011 20.9132 54.4369 23.5936Z" fill="#FFCC00"/>
</g>
<defs>
<clipPath id="clip0_4888_17814">
<rect width="200" height="150" fill="white"/>
</clipPath>
</defs>
</svg>
