<svg xmlns="http://www.w3.org/2000/svg" id="flag-icons-my" viewBox="0 0 640 480">
  <path id="path833" fill="#fff" d="M0 0h640v480H0Z" style="stroke-width:.0583212"/>
  <path id="path835" stroke="#c00" stroke-width="28.9" d="M0 14.4h640m0 70.4H0m0 70.4h640m0 70.4H0"/>
  <path id="path837" fill="#006" d="M0 0h320v280H0Z" style="stroke-width:.0571662"/>
  <path id="path839" stroke="#c00" stroke-width="28.6" d="M0 288.6h640m0 71.4H0m0 71.4h640"/>
  <path id="path841" fill="#fc0" d="m207.5 73.3 6 40.7 23-34-12.4 39.2 35.5-20.8-28.1 30 41-3.2-38.3 14.8 38.3 14.8-41-3.2 28.1 30-35.5-20.8 12.3 39.3-23-34.1-6 40.7-5.9-40.7-23 34 12.4-39.2-35.5 20.8 28-30-41 3.2 38.4-14.8-38.3-14.8 41 3.2-28.1-30 35.5 20.8-12.4-39.3 23 34.1zM174.2 75a71.1 71.1 0 1 0 0 130 80 80 0 1 1 0-130z" style="stroke-width:.0555556"/>
</svg>
