<svg xmlns="http://www.w3.org/2000/svg" height="480" width="640">
    <g clip-path="url(#a)">
        <path fill-rule="evenodd" fill="#009a00" d="M0 0h720v150h-720z"/>
        <path fill-rule="evenodd" fill="#fff" d="M0 149.962h720v15.017h-720z"/>
        <path fill-rule="evenodd" d="M0 164.981h720v150h-720z"/>
        <path fill-rule="evenodd" fill="#fff" d="M0 314.981h720v15.017h-720z"/>
        <path fill-rule="evenodd" fill="#ffca00" d="M0 330h720v150h-720z"/>
        <path d="M0 0v480l315.019-240-315.019-240z" fill-rule="evenodd" fill="#f00"/>
        <g>
            <path fill="#ffca00" fill-rule="evenodd" d="M186.032 312.184l-48.006-35.174-47.972 35.146 18.62-56.525-48.251-34.762 59.516.243 18.146-56.631 18.16 56.679 59.468-.248-48.293 34.786z"/>
            <path stroke-linejoin="round" d="M96.407 272.718h34.597c2.784 3.123 8.994 4.396 14.91-.037 10.844-5.938 31.822.037 31.822.037l4.131-4.389-10.07-33.048-3.615-3.873s-7.745-4.647-22.462-3.098c-14.716 1.549-19.88-.516-19.88-.516s-12.909 1.549-16.523 3.356c-.397.322-4.131 4.131-4.131 4.131l-8.779 37.437z" fill-rule="evenodd" stroke="#000" stroke-linecap="round" stroke-width="1.03375" fill="#fff"/>
            <path stroke-linejoin="round" d="M103.378 264.199s33.047-4.131 42.6 8.52c-5.395 3.692-10.146 3.996-15.233.259.81-1.35 11.877-12.909 40.019-9.037" stroke="#000" stroke-linecap="round" stroke-width="1.03375" fill="none"/>
            <path d="M138.747 231.153l-.256 36.405" stroke="#000" stroke-width="NaN" fill="none"/>
            <path d="M168.18 231.665l6.197 28.917" stroke="#000" stroke-width="NaN" fill="none"/>
            <path stroke-linejoin="round" d="M109.657 231.21l-3.439 14.912" stroke="#000" stroke-linecap="round" stroke-width="1.03375" fill="none"/>
            <path stroke-linejoin="round" d="M73.937 276.687l8.136 9.539c.955.57 1.804.533 2.653 0l12.058-14.469 5.064-6.27c.784-.929 1.034-1.965.965-2.894l9.682-8.603 2.056.198c-.936-.242-1.622-.698-.886-1.723l2.17-1.688 1.688 2.17s-2.411 3.135-2.652 3.135h-2.653l-5.064 4.582 2.214 1.957 3.333 9.137 4.1-2.894-2.653-9.405 5.788-6.27-2.171-3.377 1.447-1.929s20.032 12.612 27.749 9.236c.208.075.466-8.994.466-8.994s-20.74-2.17-21.222-6.27c-.482-4.099 4.582-4.582 4.582-4.582l-2.171-3.135.483-1.689 3.617 4.582 8.2-6.994 48.231 54.985c2.633-1.068 3.196-1.712 3.377-4.341-.068-.066-47.267-54.261-47.267-54.261l3.617-3.858c.713-.804.963-1.145.964-2.412l5.547-4.823c1.668.573 2.732 1.573 3.617 2.894l15.249-12.924c.402.402 1.623.804 2.451.352l25.207-24.201-27.473 19.408-.968-.724c0-.804.997-1.003 0-2.412-1.068-1.281-2.653 1.206-2.894 1.206-.241 0-3.977-1.32-4.796-2.993l-.269 4.44-6.994 6.511-5.305-.241-7.718 7.476-.964 2.894 1.206 2.412s-4.1 3.617-4.1 3.376c0-.241-.829-1.066-.864-1.173l3.517-3.168.482-2.17-1.174-1.832c-.356.258-4.855 4.968-5.097 4.485-.405-.447-13.025-14.709-13.025-14.709l.723-2.653-8.199-8.923c-2.989-1.032-7.717-1.206-8.682 5.306-.751 1.529-6.994.241-6.994.241l-3.376.724-19.052 27.01 10.611 12.781 21.705-27.492.644-7.788 4.554 5.092c1.518.195 2.965.212 4.341-.482l12.859 14.353-2.141 2.089 1.945 2.121 2.138-1.544.885 1.255-2.911 1.953c-1.724-1.124-3.389-2.523-3.263-4.75l-7.235 6.029-.241 1.206-21.463 17.846-1.929.241-.482 5.547 13.987-11.576v-1.689l1.447 1.206 10.852-8.681s.724.964.483.964-9.647 8.682-9.647 8.682l-.241.964-1.688 1.447-.965-.724-13.023 11.576h-1.929l-7.235 7.235c-1.866.162-3.483.36-5.064 1.446l-12.959 11.442z" fill-rule="evenodd" stroke="#000" stroke-linecap="round" stroke-width="1.03375"/>
        </g>
    </g>
</svg>
