<svg xmlns="http://www.w3.org/2000/svg" height="480" width="640">
  <g fill-rule="evenodd" clip-path="url(#a)">
    <path fill="#002170" d="M-80 0h960v480h-960z"/>
    <path fill="#ffb20d" d="M-80 219.478h960v41.047h-960z"/>
    <path fill="#fff" d="M203.267 410.694l-30.884-30.92-9.937 42.555-11.275-42.223-29.892 31.88 11.347-42.204-41.824 12.672 30.921-30.876-42.556-9.945 42.223-11.275-31.888-29.891 42.204 11.347-12.664-41.825 30.876 30.921 9.945-42.556 11.275 42.223 29.884-31.879-11.338 42.203 41.824-12.672-30.929 30.876 42.556 9.945-42.223 11.275 31.888 29.891-42.204-11.347z"/>
  </g>
</svg>
