<svg xmlns="http://www.w3.org/2000/svg" height="480" width="640">
    <g clip-path="url(#a)">
        <path fill-rule="evenodd" fill="#fff" d="M.017 0h644.519v320.099h-644.519z"/>
        <path d="M.017.001l-.027 24.025 153.805 79.029 57.878 1.677-211.657-104.731z" fill="#c00"/>
        <path d="M65.87.001l186.473 97.398v-97.398h-186.46z" fill="#006"/>
        <path fill="#c00" d="M277.213.001v124.339h-277.187v71.051h277.187v124.339h85.29v-124.339h277.187v-71.051h-277.187v-124.339h-85.29z"/>
        <path d="M387.37.001v91.775l182.421-91.064-182.421-.71z" fill="#006"/>
        <path d="M393.137 101.78l51.298-.413 199.31-100.656-52.885.862-197.723 100.207z" fill="#c00"/>
        <path d="M.017 216.109v68.09l127.935-67.374-127.935-.723z" fill="#006"/>
        <path d="M492.663 218.922l-53.332-.414 201.039 100.094-1.322-22.9-146.386-76.78zm-442.693 101.371l188.511-98.971-49.518.335-188.95 98.494" fill="#c00"/>
        <path d="M642.391 28.12l-152.244 75.496 150.218.562v112.498h-127.935l126.752 68.679 1.86 34.937-67.702-.809-185.299-90.966v91.775h-135.045v-91.775l-173.816 91.528-78.501.246v319.724h1279.349v-639.462l-636.288-.554m-643.049 36.088l-.675 66.403 134.684 1.688-134-68.09z" fill="#006"/>
        <g fill-rule="evenodd" fill="#ffd900">
            <path d="M640.017 0h640.017v640.017h-640.017z"/>
            <path d="M0 320.009h675.407v320.008h-675.407z"/>
        </g>
        <g fill-rule="evenodd">
            <path d="M375.262 161.578c0 30.469-24.7 55.169-55.169 55.169-30.469 0-55.169-24.7-55.169-55.169s24.7-55.169 55.169-55.169c30.469 0 55.169 24.7 55.169 55.169z" fill="#000067"/>
            <path fill="#fff40d" d="M309.836 147.491l10.609-31.736 10.609 31.736 34.423-.024-27.867 19.584 10.663 31.722-27.833-19.631-27.833 19.627 10.668-31.717-27.862-19.594z"/>
            <path fill="#fff40d" d="M501.54 152.489l5.261-14.824 5.261 14.824 17.07-.011-13.819 9.148 5.288 14.817-13.802-9.17-13.802 9.167 5.29-14.815-13.817-9.152z"/>
            <path fill="#fff40d" d="M314.903 262.835l5.261-14.824 5.261 14.824 17.07-.011-13.819 9.148 5.288 14.817-13.802-9.17-13.802 9.167 5.29-14.815-13.817-9.152z"/>
            <path fill="#fff40d" d="M314.903 47.341l5.261-14.824 5.261 14.824 17.07-.011-13.819 9.148 5.288 14.817-13.802-9.17-13.802 9.167 5.29-14.815-13.817-9.152z"/>
            <path fill="#fff40d" d="M127.688 152.489l5.261-14.824 5.261 14.824 17.07-.011-13.819 9.148 5.288 14.817-13.802-9.17-13.802 9.167 5.29-14.815-13.817-9.152z"/>
        </g>
    </g>
</svg>
