<svg xmlns="http://www.w3.org/2000/svg" height="480" width="640"><defs><clipPath id="a"><rect fill-opacity=".67" height="372.05" width="496.06"/></clipPath></defs><g transform="scale(1.29 1.29)" clip-path="url(#a)"><rect fill-rule="evenodd" height="248.1" width="499.55" x=".013" fill="#fff"/><path d="M.013 0l-.021 18.621 119.21 61.253 44.86 1.3-164.05-81.174z" fill="#c00"/><path d="M51.054 0l144.53 75.491v-75.491h-144.52z" fill="#006"/><path fill="#c00" d="M214.86 0v96.372h-214.84v55.07h214.84v96.372h66.106v-96.372h214.84v-55.07h-214.84v-96.372h-66.106z"/><path d="M300.24 0v71.132l141.39-70.581-141.39-.551z" fill="#006"/><path d="M304.71 78.887l39.76-.32 154.48-78.016-40.99.668-153.25 77.668z" fill="#c00"/><path d="M.013 167.5v52.775l99.159-52.22-99.159-.56z" fill="#006"/><path d="M381.85 169.68l-41.336-.321 155.82 77.58-1.025-17.749-113.46-59.51zm-343.12 78.57l146.11-76.71-38.38.26-146.45 76.34" fill="#c00"/><path d="M497.9 21.795l-118 58.515 116.43.436v87.194h-99.159l98.242 53.231 1.442 27.079-52.474-.627-143.62-70.505v71.132h-104.67v-71.132l-134.72 70.941-60.844.191v247.81h991.59v-495.63l-493.17-.43m-498.41 27.971l-.523 51.467 104.39 1.308-103.86-52.775z" fill="#006"/><g fill-rule="evenodd" fill="#ffd900"><rect height="496.06" width="496.06" x="496.06"/><rect height="248.03" width="523.49" y="248.03"/></g><g fill-rule="evenodd" transform="translate(7.636 -229.39)"><path d="M283.264 354.68c0 23.619-19.147 42.767-42.767 42.767-23.619 0-42.767-19.147-42.767-42.767s19.147-42.767 42.767-42.767c23.619 0 42.767 19.147 42.767 42.767z" fill="#000067"/><polygon transform="matrix(.377 0 0 .365 39.671 225.36)" points="511.95 324.28 533.78 256.9 555.61 324.28 626.44 324.23 569.1 365.81 591.04 433.16 591.04 433.16 533.77 391.48 476.5 433.15 498.45 365.81 441.12 324.21" fill="#fff40d"/><polygon transform="matrix(.187 0 0 .171 285.51 292.33)" points="511.95 324.28 533.78 256.9 555.61 324.28 626.44 324.23 569.1 365.81 591.04 433.16 591.04 433.16 533.77 391.48 476.5 433.15 498.45 365.81 441.12 324.21" fill="#fff40d"/><polygon transform="matrix(.187 0 0 .171 140.83 377.87)" points="511.95 324.28 533.78 256.9 555.61 324.28 626.44 324.23 569.1 365.81 591.04 433.16 591.04 433.16 533.77 391.48 476.5 433.15 498.45 365.81 441.12 324.21" fill="#fff40d"/><polygon transform="matrix(.187 0 0 .171 140.83 210.82)" points="511.95 324.28 533.78 256.9 555.61 324.28 626.44 324.23 569.1 365.81 591.04 433.16 591.04 433.16 533.77 391.48 476.5 433.15 498.45 365.81 441.12 324.21" fill="#fff40d"/><polygon transform="matrix(.187 0 0 .171 -4.297 292.33)" points="511.95 324.28 533.78 256.9 555.61 324.28 626.44 324.23 569.1 365.81 591.04 433.16 591.04 433.16 533.77 391.48 476.5 433.15 498.45 365.81 441.12 324.21" fill="#fff40d"/></g></g></svg>