<svg xmlns="http://www.w3.org/2000/svg" height="480" width="640">
    <g fill-rule="evenodd">
        <path fill="#00006a" d="M.004 0h640v480h-640z"/>
        <g>
            <path d="M.031-.1l319.244 304.161h65.484l-312.351-304.017-72.378-.144z" fill="#fff"/>
            <path d="M360.501 304.201l-312.381-304.539-24.311.372 313.689 304.172h23.002z" fill="#f00"/>
            <path d="M384.391-.1l-319.244 304.161h-65.484l312.351-304.017 72.378-.144z" fill="#fff"/>
            <path d="M360.407.127l-312.381 304.539-24.311.012 313.689-304.551h23.002z" fill="#f00"/>
            <path fill="#fff" d="M161.455.004h61.505v304.332h-61.505z"/>
            <path fill="#fff" d="M.005 121.736h384.402v60.866h-384.402z"/>
            <path fill="#f00" d="M174.915.004h34.597v304.332h-34.597z"/>
            <path fill="#f00" d="M.005 136.959h384.402v30.433h-384.402z"/>
        </g>
        <g>
            <g>
                <path fill="#fff" d="M520.192 179.283l-19.585-14.462-20.305 13.417 7.645-23.175-18.98-15.25 24.305.138 8.57-22.843 7.388 23.26 24.27 1.132-19.736 14.237z"/>
                <path fill="#f00" d="M512.358 167.482l-11.586-8.369-11.841 8.006 4.352-13.656-11.243-8.837 14.28-.07 4.895-13.467 4.471 13.613 14.261.514-11.499 8.484z"/>
            </g>
            <g>
                <path fill="#fff" d="M445.062 304.002l-19.585-14.462-20.305 13.417 7.645-23.175-18.98-15.25 24.305.138 8.57-22.843 7.388 23.26 24.27 1.132-19.736 14.237z"/>
                <path fill="#f00" d="M437.228 292.201l-11.586-8.369-11.841 8.006 4.352-13.656-11.243-8.837 14.28-.07 4.895-13.467 4.471 13.613 14.261.514-11.499 8.484z"/>
            </g>
            <g>
                <path fill="#fff" d="M598.817 291.71l-19.585-14.462-20.305 13.417 7.645-23.175-18.98-15.25 24.305.138 8.57-22.843 7.388 23.26 24.27 1.132-19.736 14.237z"/>
                <path fill="#f00" d="M590.983 279.909l-11.586-8.369-11.841 8.006 4.352-13.656-11.243-8.837 14.28-.07 4.895-13.467 4.471 13.613 14.261.514-11.499 8.484z"/>
            </g>
            <g>
                <path fill="#fff" d="M518.445 469.127l-19.585-14.462-20.305 13.417 7.645-23.175-18.98-15.25 24.305.138 8.57-22.843 7.388 23.26 24.27 1.132-19.736 14.237z"/>
                <path fill="#f00" d="M510.611 457.326l-11.586-8.369-11.841 8.006 4.352-13.656-11.243-8.837 14.28-.07 4.895-13.467 4.471 13.613 14.261.514-11.499 8.484z"/>
            </g>
        </g>
    </g>
</svg>
