<svg xmlns="http://www.w3.org/2000/svg" height="480" width="640"><g fill-rule="evenodd"><rect height="480" width="640" x=".004" fill="#00006a"/><g transform="matrix(1.342 0 0 1.261 -.001 -1.376)"><path d="M0 1.093l237.695 241.386h48.757l-232.563-241.272-53.889-.114z" fill="#fff"/><path d="M268.641 242.466l-232.724-241.376-18.112.295 233.698 241.085h17.136z" fill="#f00"/><path d="M286.457 1.093l-237.695 241.386h-48.757l232.563-241.272 53.889-.114z" fill="#fff"/><path d="M268.59 1.094l-232.633 241.376-18.105.01 233.607-241.386h17.13z" fill="#f00"/><rect height="241.38" width="45.831" y="1.095" x="120.31" fill="#fff"/><rect height="48.276" width="286.44" y="97.646" x=".005" fill="#fff"/><rect height="241.38" width="25.78" y="1.095" x="130.34" fill="#f00"/><rect height="24.138" width="286.44" y="109.72" x=".005" fill="#f00"/></g><g transform="matrix(.866 0 0 .866 58.74 83.943)"><g transform="matrix(1.027 0 0 1.032 -.001 0)"><polygon fill="#fff" transform="translate(0 -1.966)" points="519.07 108.73 497.04 92.535 474.2 107.56 482.8 81.608 461.45 64.531 488.79 64.686 498.43 39.106 506.74 65.153 534.04 66.421 511.84 82.364"/><polygon fill="#f00" transform="matrix(.999 .048 -.048 .999 4.036 -21.997)" points="511.2 91.032 497.73 82.299 484.86 91.895 489.01 76.386 475.9 67.111 491.94 66.259 496.71 50.931 502.47 65.914 518.52 65.716 506.06 75.828"/></g><g transform="matrix(1.027 0 0 1.032 -86.795 144.08)"><polygon fill="#fff" transform="translate(0 -1.966)" points="519.07 108.73 497.04 92.535 474.2 107.56 482.8 81.608 461.45 64.531 488.79 64.686 498.43 39.106 506.74 65.153 534.04 66.421 511.84 82.364"/><polygon fill="#f00" transform="matrix(.999 .048 -.048 .999 4.036 -21.997)" points="511.2 91.032 497.73 82.299 484.86 91.895 489.01 76.386 475.9 67.111 491.94 66.259 496.71 50.931 502.47 65.914 518.52 65.716 506.06 75.828"/></g><g transform="matrix(1.027 0 0 1.032 90.83 129.88)"><polygon fill="#fff" transform="translate(0 -1.966)" points="519.07 108.73 497.04 92.535 474.2 107.56 482.8 81.608 461.45 64.531 488.79 64.686 498.43 39.106 506.74 65.153 534.04 66.421 511.84 82.364"/><polygon fill="#f00" transform="matrix(.999 .048 -.048 .999 4.036 -21.997)" points="511.2 91.032 497.73 82.299 484.86 91.895 489.01 76.386 475.9 67.111 491.94 66.259 496.71 50.931 502.47 65.914 518.52 65.716 506.06 75.828"/></g><g transform="matrix(1.027 0 0 1.032 -2.019 334.84)"><polygon fill="#fff" transform="translate(0 -1.966)" points="519.07 108.73 497.04 92.535 474.2 107.56 482.8 81.608 461.45 64.531 488.79 64.686 498.43 39.106 506.74 65.153 534.04 66.421 511.84 82.364"/><polygon fill="#f00" transform="matrix(.999 .048 -.048 .999 4.036 -21.997)" points="511.2 91.032 497.73 82.299 484.86 91.895 489.01 76.386 475.9 67.111 491.94 66.259 496.71 50.931 502.47 65.914 518.52 65.716 506.06 75.828"/></g></g></g></svg>