<svg xmlns="http://www.w3.org/2000/svg" id="flag-icon-css-pa" width="640" height="480">
  <defs>
    <clipPath id="a">
      <path fill-opacity=".67" d="M0 0h640v480H0z"/>
    </clipPath>
  </defs>
  <g clip-path="url(#a)">
    <path fill="#fff" d="M0 0h640v480H0z"/>
    <path fill="#fff" fill-rule="evenodd" d="M92.46 0h477.2v480H92.45z"/>
    <path fill="#db0000" fill-rule="evenodd" d="M323.07 3.65h358v221.69h-358z"/>
    <path fill="#0000ab" fill-rule="evenodd" d="M3.23 225.33H323.1v254.66H3.23zm211.57-47.68l-41.96-29.33-41.75 29.62 15.53-48.13-41.68-29.71 51.56-.42 16-47.97 16.33 47.86 51.56.07-41.46 30 15.87 48z"/>
    <path fill="#d80000" fill-rule="evenodd" d="M516.85 413.89l-42.35-27.74-42.15 28.01 15.68-45.53-42.07-28.11 52.04-.4 16.15-45.38 16.49 45.28 52.04.06-41.85 28.38 16.02 45.43z"/>
  </g>
</svg>
