<svg xmlns="http://www.w3.org/2000/svg" id="flag-icon-css-pf" width="640" height="480">
  <defs>
    <clipPath id="a">
      <path fill-opacity=".67" d="M0 0h640v480H0z"/>
    </clipPath>
  </defs>
  <g clip-path="url(#a)">
    <path fill="#fff" d="M0 0h640v480H0z"/>
    <path fill="#fff" d="M80 0h480v480H80z"/>
    <path fill="#083d9c" fill-rule="evenodd" stroke="#083d9c" stroke-width="2pt" d="M277.28 340.75s10.84-8.79 21.39-8.79 13.47 7.33 20.8 7.91c7.32.59 13.47-7.32 22.55-7.62 9.09-.29 20.51 6.45 20.51 6.45L322.7 350.7l-45.41-9.96zm-22.85-12.89l135.35.59s-11.72-12.6-25.49-12.9c-13.77-.29-9.96 5.87-20.5 6.74-10.55.88-13.19-6.44-22.86-6.15-9.66.3-15.23 6.15-22.55 6.45-7.33.29-16.7-7.33-22.27-7.03-5.57.29-25.49 8.78-25.49 8.78l3.81 3.52zm-17.28-16.11l166.99.59c2.64-3.81-8.2-12.9-18.16-13.77-8.2.29-14.07 8.5-20.8 8.79-6.74.29-14.36-8.5-21.98-8.2-7.61.29-15.52 8.2-23.14 8.2-7.62 0-13.18-8.5-22.85-8.5-9.67 0-14.06 9.38-21.39 8.79-7.32-.59-13.77-9.37-20.8-9.37-7.03 0-18.75 10.54-21.1 9.96-2.34-.6 2.94 4.39 3.23 3.51z"/>
    <path fill="red" fill-rule="evenodd" stroke="#000" stroke-linejoin="round" stroke-width="2.5" d="M301.3 218.88l38.38 10.26v-54.8c-17.58.89-32.23-33.39-1.17-35.73-30.47-4.4-33.99 3.51-37.5 12l.29 68.27z"/>
    <path fill="#083d9c" fill-rule="evenodd" stroke="#083d9c" stroke-linecap="round" stroke-width="5" d="M276.99 258.72l86.72.3"/>
    <path fill="none" stroke="#000" stroke-linecap="round" stroke-width="4" d="M281.1 237.92l10.25 13.77m-10.26.01l11.14-13.48m-5.27-1.18l-.29 8.5m10.83-7.62l10.25 13.77m-10.25.01l11.13-13.48m-5.26-1.18l-.3 8.5m11.13-7.62l10.25 13.77m-10.25.01l11.13-13.48m-5.26-1.18l-.3 8.5m11.71-7.62l10.26 13.77m-10.26.01l11.14-13.48m-5.27-1.18l-.29 8.5m11.12-7.62l10.26 13.77m-10.26.01l11.14-13.48m-5.27-1.18l-.3 8.5"/>
    <path fill="#ef7d08" fill-rule="evenodd" d="M218.69 259.6l36.91.3v-23.15l-42.18-2.05 5.27 24.9zm-1.76-31.93l39.26 3.8-.3-16.4-38.37-15.23-.6 27.83zm7.91-32.81l30.18 14.65 4.3-4.5s-2.77-1.91-2.63-3.67c.05-1.78 2.79-2.05 2.84-3.98.05-1.78-3.1-2-3.14-3.78-.2-1.93 2.43-4 2.43-4l-27.24-23.72-6.74 29zm198.04 65.03h-38.96l-.3-22.56 42.78-3.22-3.52 25.78zm-38.67-27.83l46.29-5.57-9.96-26.66-36.62 15.53.29 16.7zm33.69-39.55l-33.4 17.58c-.49-1.9-.9-3.74-3.22-5.28 0 0 2.05-1.17 2.05-3.22 0-2.05-2.64-2.34-2.64-3.52s2.42-2.19 2.57-4.83c-.3-1.83-2.57-4.4-2.13-4.9l25.93-19.85 10.84 24.02zm-72.36 39.11l16.7-.73.29-6.74-16.99 7.47zm-50.97-.51l-17.58-.51v-7.03l17.58 7.54zm-.08-2.05l-17.5-9.01v-11.72s-2.06.3-1.76-2.05c.1-4.88 12.86 8.91 19.4 13.4l-.14 9.38zm51.05-1.1l-.07-7.62s15.82-14.28 19.18-16.92c0 2.93-1.83 5.2-1.83 5.2v11.14l-17.28 8.2zM243 163.8c.3.3 17.75 19.7 17.75 19.7.49-1.84 4.51-2.12 8.62-1.83 4.1.3 7.37-.27 7.37 2.66s-2.08 2.5-2.08 4.56 3.11 1.88 3.11 4.51c0 2.64-2.26 2.1-2.27 4.14 0 1.7 2.36 1.78 2.36 1.78l16.63 16.12.07-17.22-34.28-53.75L243 163.8zm27.43-20.35c.26.78 23.22 47.48 23.22 47.48s.26-43.83 4.17-46.18l-6.52-12-20.87 10.7zm100.95 1.82l-25.92 46.24.03-19.49s2.15-3.27-1.24-3.01c-3.4.26-7.57-.26-7.57-.26l10.44-36.52 24.26 13.04zm26.61 19.83c-.26.52-17.49 18.04-17.49 18.04-.78-2.09-5.99-1.08-10.94-1.08-4.96 0-5.65 1.59-5.39 2.89.52 3.39 2.2.9 2.2 4.02 0 3.13-2.42 1.99-2.63 4.28.24 2.63 3.79 1.98 1.7 3.98l-19.94 19.15.06-18.15 37.04-57.65L398 165.1z"/>
    <path fill="red" fill-rule="evenodd" stroke="#000" stroke-linejoin="round" stroke-width="2.5" d="M309.82 268.4c-8.35 13.83-30.66 9.73-35.88.07-1.57-.44-.64-59.55-.64-59.55s-2.5-1.13-2.6-2.95c-.12-1.84 3.38-2 3.38-4.35 0-2.35-3.58-1.43-3.65-3.8.02-2.25 3.82-1.94 3.65-4.03-.2-2.35-4.26-2-4.43-4.17-.14-1.73 2.9-3.23 3.74-4a61.3 61.3 0 0 1-2.83-.05l-6.4.13c-4.53.01.09 1 .02 3.61-.04 1.72-2.3 2.86-2.5 4.34-.08 1.53 3.23 2.6 3.27 4.44.04 1.63-3.25 1.75-3.13 3.27.2 2.57 2.91 3.14 2.87 4.7-.04 1.55-3.64 2.14-3.65 3.38.12 2.4.52 60.78.52 60.78 5.74 29.74 38.87 37.3 48.26-1.82zm21.84 0c8.35 13.83 30.66 9.73 35.88.07 1.56-.44.64-59.55.64-59.55s2.5-1.13 2.6-2.95c.12-1.84-3.16-2-3.16-4.35 0-2.35 3.36-1.43 3.43-3.8-.02-2.25-3.53-2.09-3.36-4.18.2-2.35 2.96-2.07 3.12-4.24.13-1.87-1.74-3-2.58-3.78.55.02 2.67-.04 2.69-.05l6.4.13c4.53.01-.09 1-.02 3.61.04 1.72 2.3 2.86 2.5 4.34.08 1.53-3.23 2.6-3.27 4.44-.04 1.63 3.25 1.75 3.13 3.27-.2 2.57-2.91 3.14-2.87 4.7.04 1.55 3.64 2.14 3.65 3.38-.13 2.4-.52 60.78-.52 60.78-5.74 29.74-38.87 37.3-48.26-1.82z"/>
    <path fill="#083d9c" fill-rule="evenodd" stroke="#083d9c" stroke-width="2pt" d="M301.71 295.59l37.28-.02c.29-.3-8.35-12.88-18.64-11.99-11.46.3-19.24 12.01-18.64 12.01zm118.86-.91h-51s6.6-3.9 8.4-7.5c3.3 1.8 2.4 3.6 9 3.9 6.6.3 12.9-7.5 19.2-7.2 6.3.3 14.4 11.1 14.4 10.8zm-201 0h51s-6.6-3.9-8.4-7.5c-3.3 1.8-2.4 3.6-9 3.9-6.6.3-12.9-7.5-19.2-7.2-6.3.3-14.4 11.1-14.4 10.8zm3.81-16.04l36.33.3s-2.35-4.99-2.64-11.14c-9.38-3.22-17 7.03-23.73 7.32-6.74.3-13.77-7.32-13.77-7.32l3.81 10.84zm193.94 0l-36.33.3s2.35-4.99 2.64-11.14c9.37-3.22 17 7.03 23.73 7.32 6.74.3 13.77-7.32 13.77-7.32l-3.81 10.84zm-106.35.3l18.45-.58s.3-5.57-9.37-5.57-8.79 6.44-9.08 6.15zm-11.13-7.91c3.22-1.76 6.15-3.52 8.2-7.62l-12.6.3s-5.85 3.51-8.78 7.32h13.18zm40.72 0c-3.22-1.76-6.15-3.52-8.2-7.62l12.6.3s5.85 3.51 8.78 7.32h-13.18z"/>
    <path fill="#de2010" fill-rule="evenodd" d="M-40 360h720v120H-40zm0-360h720v120H-40z"/>
  </g>
</svg>
