<svg xmlns="http://www.w3.org/2000/svg" id="flag-icon-css-pg" width="640" height="480">
  <g fill-rule="evenodd">
    <path d="M1.64 0l-.5 479.99h639.99L1.64 0z"/>
    <path fill="red" d="M640.63 479.98L641.13 0H1.14l639.5 479.98z"/>
  </g>
  <path fill="#fc0" stroke="#fc0" stroke-width="1.06" d="M178 54l-3.84-.2c-1.18-2.78-4.51-3.82-6.56-2.65-1.86.16-11.6-.15-11.6-.15l7.12 3.12C164.88 58.88 171 60 171 60c-.55 8.77-8.88-1.13-15.88 3.87-5 3-5.06 6.58-7.76 12.37C146.52 77.84 143 82 143 82l5.88-.5L147 84l7-1s-.94.78-1.5 1.38c1.03.2 8-1.63 8-1.63L160 85c3.57-1.43 8-2.88 8-2.88s1.57 1.3 3 1.88l1-4 4 1 1-4c6 8 8 16 19 18l-1-4a262.2 262.2 0 0 1 8.74 4.09l.86-1.83c4.77 3.42 8.73 3.36 11.4 3.74l-2-5c.13.05 1.99 1 2 1l-3-8 3 1-4-6 1.5-1-.5-3c6 2 14 5 15 12 1 11-11 14-19 13 6 5 17 3 22-2 2-2 3-5 4-8 1 3 3 7 3 11-1 9-13 12-21 13 9 5 25-1 26-14 0-11-7-16-10-21-.45-1.82-1-5.38-1-5.38.38.11 3 1.39 3 1.39s-1.77-3.31-2-4.01c0 0-3.12-8.5-4.25-10.38.18-.1 2.25.35 2.25.35l-8.2-10.27s1.98-.18 2.33-.24c0 0-9.52-7.51-12.13-8.46l3-1c-6-3-13-1-19 3l1-3-1.83.17v-3.43L198 36l-3-1 2-5-3 1 1-5s-2.24 1.04-3.6.89a51.7 51.7 0 0 0 1.59-3.42c-.95-1.5 0-4.47 0-4.47-7 1-8 2-12 8-6 11-4 16-3 27z" transform="matrix(2.21989 0 0 2.21194 1.15 0)"/>
  <path fill="red" fill-rule="evenodd" stroke="red" stroke-width="1.42" d="M215.78 70.44c.52.86 6.2 3.6 10.47 6.01-1.15-4.6-9.48-5.62-10.47-6.01z" transform="matrix(2.21989 0 0 2.21194 1.15 0)"/>
  <path fill="#fff" fill-rule="evenodd" d="M174.95 399.03l-14.12-8.98-18.95 9.05 4.2-16.15-14.49-15.17 16.72-1.02 10-18.4 6.13 15.53 20.66 3.78-12.93 10.62zm36.23-78.94l-6.55-3.12-6.3 3.6.97-7.18-5.4-4.85 7.15-1.3 2.97-6.62 3.45 6.37 7.22.78-5 5.24zm31.93-45.28l-14.36-6.99-13.92 7.83 2.22-15.77-11.79-10.77 15.75-2.77 6.63-14.48 7.53 14.06 15.87 1.82-11.1 11.45zm-65.7-63.04l-16.92-8.45-16.58 9.1 2.84-18.64-13.81-12.9 18.67-3.07 8.04-17.07 8.7 16.74 18.78 2.35-13.29 13.42zm-60.8 65.47l-17.07-10.08-17.01 10.3 4.36-19.28-15.11-12.92 19.76-1.84 7.67-18.31 7.85 18.16 19.86 1.61-14.9 13.05z"/>
</svg>
