<svg xmlns="http://www.w3.org/2000/svg" height="480" width="640" version="1">
    <g fill-rule="evenodd" transform="translate(39.999)" clip-path="url(#a)">
        <path fill="#f50013" d="M-39.999 0h720v480h-720z"/>
        <path fill="#00189a" d="M-39.999 0h720v240h-720z"/>
        <path d="M-39.999 0l413.15 239.69-413.15 239.39.001-479.08z" fill="#feffff"/>
        <path d="M-20.421 437.1l4.211-18.49-16.605-9.175 19.301-2.41 4.391-18.458 7.718 17.003 19.317-2.233-14.532 12.917 7.549 17.078-16.698-9.019-14.653 12.787z" fill="#eca300"/>
        <path d="M67.453 198.5l-14.826-25.459-8.526-.966 20.301 28.83 3.051-2.405zm-11.508 11.665l-31.173-23.986-1.117-13.964 12.606-.426 25.771 31.518-6.087 6.858zm-4.734 5.485l-25.656-14.482-1.081-8.512 29.101 19.91-2.364 3.084z" fill="#eca300"/>
        <path d="M104.14 193.27l7.738-28.427-5.294-6.753-6.299 34.693 3.855.487zm-16.386-.016l-4.78-39.042 9.167-10.593 9.148 8.684-4.377 40.477-9.157.474zm-7.23.475l-7.682-28.442 5.308-6.742 6.23 34.705-3.856.479z" fill="#eca300"/>
        <path d="M133.87 216.19l25.839-14.153 1.189-8.498-29.352 19.538 2.324 3.114zm-11.359-11.81l24.795-30.533 13.989-.75.095 12.613-32.184 24.935-6.696-6.265zm-5.359-4.876l15.15-25.268 8.538-.857-20.667 28.568-3.021-2.444z" fill="#eca300"/>
        <path d="M138.47 251.81l28.423 7.753 6.756-5.291-34.69-6.317-.489 3.855zm.025-16.386l39.044-4.76 10.588 9.172-8.688 9.144-40.475-4.399-.469-9.158zm-.471-7.23l28.446-7.667 6.739 5.311-34.709 6.212-.477-3.856z" fill="#eca300"/>
        <path d="M116.83 280.78l14.939 25.393 8.53.928-20.428-28.74-3.041 2.419zm11.457-11.715l31.279 23.848 1.178 13.959-12.604.482-25.91-31.404 6.057-6.884zm4.71-5.506l25.72 14.368 1.118 8.508-29.188-19.782 2.35-3.094z" fill="#eca300"/>
        <path d="M80.273 286.2l-7.543 28.479 5.34 6.716 6.061-34.735-3.858-.46zm16.386-.096l5.049 39.008-9.094 10.656-9.208-8.621 4.099-40.506 9.154-.537zm7.226-.525l7.877 28.389-5.261 6.779-6.469-34.662 3.853-.506z" fill="#eca300"/>
        <path d="M50.609 263.87l-25.608 14.567-1.052 8.516 29.034-20.007-2.374-3.076zm11.547 11.626l-24.301 30.928-13.975.975-.298-12.61 31.779-25.449 6.795 6.157zm5.436 4.789l-14.742 25.508-8.523.994 20.205-28.897 3.059 2.395z" fill="#eca300"/>
        <path d="M45.543 227.9l-28.477-7.551-6.718 5.338 34.734 6.071.461-3.858zm.091 16.386l-39.009 5.037-10.653-9.097 8.623-9.205 40.505 4.111.534 9.154zm.523 7.226l-28.391 7.869-6.777-5.263 34.664-6.458.504 3.853z" fill="#eca300"/>
        <path d="M301.72 264.76l-10.991-15.454-17.902 6.279 11.054-16.004-10.847-15.566 17.824 5.564 11.197-15.899-.039 19.443 17.768 5.74-17.847 6.452-.217 19.446z" fill="#eca300"/>
        <path d="M-9.852 92.122l-3.408-18.655-18.876-1.897 16.794-9.814-3.231-18.696 13.788 12.592 16.879-9.658-8.273 17.595 13.662 12.727-18.9-1.718-8.435 17.524z" fill="#eca300"/>
        <ellipse cx="190.68" rx="73.029" cy="353.88" transform="matrix(.677 0 0 .677 -37.108 0)" ry="73.029" fill="#eca300"/>
    </g>
</svg>
