<svg xmlns="http://www.w3.org/2000/svg" xmlns:xlink="http://www.w3.org/1999/xlink" id="flag-icon-css-ph" width="640" height="480">
  <path fill="#0038a8" d="M0 0h640v240H0z"/>
  <path fill="#ce1126" d="M0 240h640v240H0z"/>
  <path fill="#fff" d="M415.7 240L0 480V0"/>
  <g fill="#fcd116" transform="translate(149.3 240) scale(5.33333)">
    <circle r="9"/>
    <g id="d">
      <g id="c">
        <g id="b">
          <path d="M-1 0h1-1z" transform="scale(19)"/>
          <path id="a" d="M-.9.1L0 0z" transform="scale(19.2381)"/>
          <use width="100%" height="100%" transform="scale(1 -1)" xlink:href="#a"/>
        </g>
        <use width="100%" height="100%" transform="rotate(45)" xlink:href="#b"/>
      </g>
      <use width="100%" height="100%" transform="rotate(90)" xlink:href="#c"/>
    </g>
    <use width="100%" height="100%" transform="scale(-1)" xlink:href="#d"/>
    <g transform="translate(-2)">
      <g id="f" transform="translate(38)">
        <path id="e" d="M5 0L1.6 1.2v3.6L-.7 1.9l-3.4 1L-2 0z"/>
        <use width="100%" height="100%" transform="scale(1 -1)" xlink:href="#e"/>
      </g>
      <use width="100%" height="100%" transform="rotate(120)" xlink:href="#f"/>
      <use width="100%" height="100%" transform="rotate(-120)" xlink:href="#f"/>
    </g>
  </g>
</svg>
