<svg xmlns="http://www.w3.org/2000/svg" height="480" width="640" version="1">
    <g fill-rule="evenodd" clip-path="url(#a)">
        <path fill="#0c590b" d="M-39.999 0h720v480h-720z"/>
        <path fill="#fff" d="M-39.999 0h180.488v480h-180.488z"/>
        <g fill="#fff">
            <path d="M427.511 211.302l-29.215-6.146-15.364 25.598-3.183-29.685-29.094-6.702 27.248-12.2-2.617-29.74 20.024 22.145 27.476-11.679-14.873 25.886 19.598 22.523z"/>
            <path d="M438.529 286.941c-25.935 57.147-94.004 82.109-151.313 55.562-57.316-26.554-82.286-94.616-55.732-151.933 13.543-29.233 35.706-49.322 66.992-60.287-3.598 3.043-7.159 6.2-11.061 10.226-40.414 41.708-39.364 108.361 2.343 148.771 41.708 40.414 108.361 39.365 148.771-2.343z"/>
        </g>
    </g>
</svg>
