<svg xmlns="http://www.w3.org/2000/svg" height="480" width="640" version="1" viewBox="-15 -7.5 30 15">
    <g>
        <path fill="#00247d" d="M-15-11.25h30v22.5h-30z"/>
        <g clip-path="url(#a)" transform="translate(0 -3.75)">
            <circle r="20" fill="#00247d"/>
            <path stroke-width="3" stroke="#fff" d="M-20-10l40 20m-40 0l40-20"/>
            <path stroke-width="2" stroke="#cf142b" d="M-20-10l40 20m-40 0l40-20"/>
            <path fill="#fff" d="M0 0l20 10h-3l-20-10m3 0l20-10h3l-20 10m-3 0l-20 10h-3l20-10m3 0l-20-10h3l20 10"/>
            <path stroke-width="5" stroke="#fff" d="M-20 0h40m-20-10v20"/>
            <path stroke-width="3" stroke="#cf142b" d="M-20 0h40m-20-10v20"/>
        </g>
        <g>
            <path d="M4.216 3.299c-.43.365-.839.896-.94 1.376-.283 1.352-.659 1.653-1.24 1.362 0 .726.637.782.916.357 0 .681.247 1.272.804 1.776.235.212.279.067.168-.167-.112-.235-.112-.994-.335-1.43.357.257.882.112.838-.592-.458.268-.913.258-.96-.38-.056-.748.236-1.834.75-2.303z" stroke="#000" stroke-width="0.029574" fill="#f7e017"/>
            <path d="M3.673-2.08c.03-.268-.027-.544-.223-.717-.379-.333-.75-.223-1.026.046-.413-.223-.633.569-1.102.435.078.257.201.369.436.279-.246.223 0 .491-.29.759.525.168.804-.123.782-.625.201.179.514.168.681-.033-.279-.089-.28-.332-.168-.558.168-.335.955-.322.91.415z" stroke="#000" stroke-width="0.029574" fill="#f7e017"/>
            <path d="M4.885 1.805c-.592.313-1.675.179-1.776-.592-.101-.771.648-1.117.849-1.217.313-.157.558.123.458.447.346-.123.424-.525.257-.759.458.034.882-.313 1.061-.804-.161.153-.598.05-.959.026.112-.123.11-.361.077-.484-.38.391-.927.212-1.653 1.34.112-.391.324-1.173.447-1.686l.028-.155c.045-.737-.741-.75-.909-.415.184.207.087.449.021.815-.078.436-.246 1.441-.391 1.776-.045-.525-.391-.558-.458-.815-.101.067-.156.246-.134.369-.123-.134-.547.033-.704-.168-.168.335.101.67.38.815-.162.011-.201.207-.38.207.24.279.486.391.77.413s.497.128.67.475c.279.558 1.343.921 2.345.413z" stroke="#000" stroke-width="0.029574" fill="#337321"/>
            <path d="M6.359 1.123c-.335.927-1.251 1.586-1.664 1.686-.703.171-2.137.867-2.522 1.226l-.158-.064c-.19-.134-.346-.57-.011-.938 1.05-.983 2.178-.558 2.881-1.228-.592.313-1.675.179-1.776-.592.637.168 1.787.179 2.703-.804.123.134.48.558.547.715z" stroke="#000" stroke-width="0.029574" fill="#f7e017"/>
            <path d="M4.216 3.299c-.53.45-.806 1.555-.75 2.303.016.208.074.349.162.436.039-.424.334-1.521 1.088-2.01.637-.413 1.631-1.34 1.999-2.401-.067-.19-.179-.324-.391-.458-.365 1.001-1.344 1.482-2.109 2.131z" stroke="#000" stroke-width="0.029574" fill="#337321"/>
            <path d="M6.019.694c-.19.285-.62.676-1.033.832.089-.101.117-.229.123-.335-.525.201-1.575.179-1.999.022.637.168 1.787.179 2.703-.804.089.1.167.19.207.285z" stroke="#000" stroke-width="0.029574" fill="#316d3a"/>
            <path d="M2.003 3.033c-.854.799-.29 1.496.045 1.653-.089.558.436.491.424.96.212-.123.268-.447.235-.704.268.29.949-.033 1.094.503.089-.592-.368-1.184-.938-1.128.235-.212.101-.558-.123-.648-.045.436-.536.436-.726.302-.19-.134-.346-.57-.011-.938z" stroke="#000" stroke-width="0.029574" fill="#337321"/>
            <path d="M3.852 8.114c-.093.053-.086.173-.028.251.117.156-.083.511.296.586.112.022.198-.046.24-.173.117-.352-.257-.391-.29-.558-.034-.168-.14-.151-.218-.106z" stroke="#000" stroke-width="0.029574" fill="#f7e017"/>
            <path d="M4.17 8.773c-.125.058-.235.14-.184.542.021.166.011.57-.134.575.089.045.279.092.357-.011.075.126.246.089.313-.067.089.073.212-.05.212-.156.078.05.234-.022.195-.262.095.033.218-.034.262-.095-.14-.028-.491-.218-.575-.368-.084-.151-.301-.223-.447-.156z" stroke="#000" stroke-width="0.029574" fill="#f7e017"/>
            <g stroke="#000" stroke-width=".186" fill="none">
                <path d="M2.235-2.521l.189-.229"/>
                <path d="M4.36-1.043c.099-.056.248-.063.415-.052"/>
                <path d="M4.21 9.878c-.039-.056-.053-.29-.025-.433"/>
                <path d="M4.522 9.812c-.061-.047-.179-.209-.198-.352"/>
                <path d="M4.734 9.656c-.078-.036-.268-.282-.31-.441"/>
                <path d="M4.929 9.394c-.092-.02-.374-.204-.491-.399"/>
            </g>
            <path d="M10.078 3.044c1.374 1.15 1.463 2.066 1.251 2.602-.112-.503-.681-1.284-1.273-1.485l.022-1.117z" stroke="#000" stroke-width="0.029574" fill="#f7e017"/>
            <g>
                <g>
                    <path d="M7.621 2.397h2.546v3.015c0 2.569-1.429 4.087-2.881 4.891-1.452-.804-2.881-2.323-2.881-4.891v-3.015h1.787c.003.156.017.391.201.625.422-.042.899-.357 1.228-.625z" stroke="#000" stroke-width="0.029574" fill="#337321"/>
                    <path d="M10.167 2.397v3.015c0 .775-.13 1.455-.352 2.048l-2.529-4.64-2.529 4.64c-.222-.593-.352-1.273-.352-2.048v-3.015h5.763z" stroke="#000" stroke-width="0.029574" fill="#006ec7"/>
                    <path d="M9.893 7.237c-.045.137-.126.359-.188.496l-2.417-4.493-2.417 4.493c-.063-.137-.144-.359-.188-.496l2.606-4.832 2.606 4.832z" fill="#f7e017"/>
                </g>
                <g stroke="#000" stroke-width=".186" fill="#f7e017">
                    <path d="M8.436 8.89l.246.118c.134-.268.156-.648.112-.983-.145.369-.637.357-.77.581l.225.143c-.168.167-.56.449-.783.516v-2.395l-.056-.447v-.495c0-.112-.022-.274-.123-.274s-.123.162-.123.274v.495l-.056.447v2.395c-.123-.357-.604-.235-.827-.592.087-.021.179-.028.269-.011-.167-.57-.625-.614-.715-.782 0 .235-.1.782.056 1.016l.151-.124c.19.413 1.044.414 1.245 1.096.161-.25.743-.541 1.15-.978z"/>
                    <path d="M7.286 6.897l1.011-.062c.057 0 .103-.085.103-.19s-.046-.19-.103-.19l-1.011-.062s-.793.062-1.011.062c-.057 0-.103.085-.103.19s.046.19.103.19l1.011.062z"/>
                    <path d="M7.164 5.916l-.151-.052c-.127 0-.229.094-.229.209 0 .115.102.209.229.209.126 0 .229-.094.229-.209 0-.089.13-.089.13 0 0 .181-.161.328-.359.328s-.359-.147-.359-.328c0-.181.161-.328.359-.328l.165.037-.014.134z"/>
                    <path d="M6.276 6.835c.057 0 .103-.085.103-.19s-.046-.19-.103-.19"/>
                    <path d="M6.36 6.835c.057 0 .103-.085.103-.19s-.046-.19-.103-.19"/>
                    <path d="M6.911 6.874c.068 0 .124-.102.124-.228s-.055-.228-.124-.228"/>
                    <path d="M7.04 6.885c.071 0 .129-.107.129-.239s-.058-.239-.129-.239"/>
                    <path d="M7.469 6.887c.072 0 .131-.108.131-.242 0-.133-.059-.242-.131-.242"/>
                    <path d="M7.604 6.88c.071 0 .129-.105.129-.234s-.058-.234-.129-.234"/>
                    <path d="M8.203 6.839c.058 0 .105-.087.105-.193s-.047-.193-.105-.193"/>
                    <path d="M6.041 8.773l.239-.1"/>
                    <path d="M8.314 8.795l-.066-.047"/>
                    <path d="M8.436 8.89c.156-.168.287-.358.358-.575"/>
                </g>
                <g stroke="#000" stroke-width=".186">
                    <path d="M6.775 4.528l.097-.117.145-.07h.733l.067.064v.997l-.067.064h-.975v-.948" fill="#fff"/>
                    <path d="M7.569 5.553c.096 0 .079-.002.147-.07l.064-.129v-.911l-.062-.06h-.678l-.134.065-.089.11v.995h.753z" fill="#e5e5e5"/>
                    <path d="M7.64 5.532l-.067.064h-.733l-.066-.064v-.997l.066-.064h.733l.067.064v.997z" fill="#fff"/>
                </g>
            </g>
            <g>
                <path d="M9.062 1.813c.143.159.19.374.112.583h-.212c.089-.268.034-.524-.346-.557-.568-.05-1.228 1.05-2.222 1.184-.29-.346-.275-1.006.094-1.318-.19-.549-.593-1.153-.871-1.415-.182-.03-.393-.045-.529-.036.145-.313.559-.642.894-.776l.167-.224c.034-.43 2.077-.229 2.513.039 0 .48.19 2.085.402 2.521z" stroke="#000" stroke-width="0.029574" fill="#96877d"/>
                <g>
                    <path d="M6.584 2.106c-.049-.744-.349-1.357-.772-1.775.201.056.614.056.893-.145.368-.246 1.329-.676 1.681-.491.028.061.045.201.022.29-.084-.223-1.011.123-1.273.229-.251.117-.363.274-.274.625l-.246-.329c.061.145.112.408.128.62-.056-.151-.156-.475-.374-.664.19.369.355 1.254.277 1.723.151 0 .483-.148.617-.254-.117.168-.455.285-.673.329-.098.117-.165.419-.159.586-.017-.207.048-.71.153-.743z"/>
                    <path d="M9.062 1.813c-.185-.206-.53-.317-.971-.198.067-.034.212-.089.341-.112l-.14-.743.123-.05c.061.302.139.648.19.787l.207.067c-.034-.117-.223-.96-.218-1.05l.167-.089c.067.458.173 1.122.301 1.387z"/>
                </g>
                <g stroke="#000" stroke-width=".186" fill="#96877d">
                    <path d="M8.962 2.396c.089-.268.034-.524-.346-.557-.294-.026-.614.26-.991.557h1.338z"/>
                    <path d="M6.494-.01c-.168.022-.542-.011-.732-.073l.056-.158c-.117.078-.34.23-.424.337.268.056.821.084 1.1-.106z"/>
                </g>
                <path d="M6.487 1.704c.062.178.102.35.107.503" stroke="#000" stroke-width="0.029574" fill="none"/>
                <path d="M5.981-.523c-.101.148-.189.306-.218.441.19.061.564.095.732.073" stroke="#000" stroke-width="0.029574" fill="none"/>
                <path d="M5.615.289l.197.042c.201.056.614.056.893-.145s1.039-.826 1.898-.893" stroke="#000" stroke-width="0.029574" fill="none"/>
                <path d="M5.393.096c.268.056.821.084 1.1-.106.648-.441 1.273-.698 1.898-.731" stroke="#000" stroke-width="0.029574" fill="none"/>
            </g>
            <path d="M10.078 3.044c.938.648 1.631 1.273 1.831 2.278.201 1.005.581 1.273 1.05 1.005-.112.581-.692.648-1.184.201.045.67-.223 1.474-.916 1.765-.045-.402.221-.72.145-1.05-.034-.145-.045-.48.145-.637-.368.123-.949-.112-1.005-.659.424.201.972.235 1.184-.302s.123-1.452-1.251-2.602z" stroke="#000" stroke-width="0.029574" fill="#337321"/>
            <path d="M11.262-2.182c.29-.759 1.05-.681 1.307-.357.748-.424.849.536 1.485.346-.011.179-.223.346-.458.335.246.223-.101.558.424.759-.447.223-1.072-.011-1.24-.625-.145.29-.67.29-.882.056.458-.123.424-.547.168-.715-.259-.169-.715-.101-.804.201z" stroke="#000" stroke-width="0.029574" fill="#337321"/>
            <path d="M8.997-.51c.208.672.639 1.297 1.104 1.723.536.491 1.346.369 1.798-.101.011.935-.958 1.008-1.496.715-.237-.129-.43-.061-.201.145.346.313 1.104.545 1.999.737 1.564.335 1.005 1.575.547 1.563.131-.003.239-.14.05-.31-1.357-1.22-4.115-.74-4.071-3.465-.29.715-1.485.436-.927-.413.179.145.491.156.581-.067.069-.174.024-.476-.289-.736.051-.004.162 0 .151-.128.014.075.082.187.258.149.05.08.103.132.175.103l.039-.106c.014.148.19.201.282.19z" stroke="#000" stroke-width="0.029574" fill="#337321"/>
            <path d="M10.402 1.827c.648.424 1.38.424 2.055-.357.212-.246.547-.458.782-.48.234-.022.223-.246.402-.29-.112-.034-.156-.168-.324-.151.419-.145.296-.48.503-.642-.168.061-.43-.19-.67.128.061-.145-.022-.318-.084-.385.022.168-.33.201-.396.625-.038.238-.168.223-.19-.145-.016-.27-.145-1.016-.301-1.396-.156-.38-.192-.901.02-.979l-.132-.138c-.259-.169-.715-.101-.804.201-.29.759.525 1.195.458 2.021-.123-.614-1.117-.771-1.106-1.374-.324.145-.279.413-.156.625-.201-.313-.659.201-1.05-.223-.045.558.447.771.849.793-.201.357.067.659.335.759.011-.625 1.294-.369 1.307.704.011.916-.972.994-1.496.704z" stroke="#000" stroke-width="0.029574" fill="#f7e017"/>
            <path d="M12.2 2.709c1.564.335 1.005 1.575.547 1.563-.292-.007-.57-.251-.586-.463-.335.179-.246.53.011.67-.704-.084-1 .38-1.016.888.128-.235.519-.251.665-.201.145.05.519.078.67-.089-.123.106.078.352-.095.542.586-.022.843-.57.743-.81.759-.692.614-1.82-.938-2.1z" stroke="#000" stroke-width="0.029574" fill="#f7e017"/>
            <path d="M11.009 8.015c.102.064.089.197.02.282-.138.169.07.574-.356.642-.126.02-.219-.06-.26-.204-.115-.398.304-.425.348-.611.045-.186.162-.162.248-.109z" stroke="#000" stroke-width="0.029574" fill="#f7e017"/>
            <path d="M10.626 8.736c.137.07.256.166.182.613-.03.185-.037.635.125.648-.102.046-.316.091-.399-.028-.09.137-.278.089-.346-.088-.103.077-.235-.065-.23-.184-.089.053-.261-.035-.207-.301-.107.033-.242-.047-.289-.117.157-.025.558-.222.658-.386.1-.165.346-.236.505-.155z" stroke="#000" stroke-width="0.029574" fill="#f7e017"/>
            <g stroke="#000" stroke-width=".186" fill="none">
                <path d="M10.534 9.969c.046-.061.072-.322.047-.482"/>
                <path d="M10.188 9.882c.071-.05.209-.226.237-.384"/>
                <path d="M9.958 9.697c.089-.037.311-.303.365-.479"/>
                <path d="M9.751 9.395c.104-.018.426-.211.566-.424"/>
            </g>
            <path d="M8.727.498c-.019 1.145.457 1.724 1.116 2.101-.245-.147-.139-.649-.468-.811.078-.006.201.106.397.061-.095-.212-.251-.536-.614-.581.095-.011.302.022.436-.028-.19-.29-.692-.151-.866-.743z" stroke="#000" stroke-width="0.029574" fill="#f7e017"/>
            <path d="M8.608-.59l-.108-.106c-.176.038-.244-.074-.258-.149.011.128-.1.124-.151.128.314.26.359.562.29.736-.089.223-.402.212-.581.067-.022.475.592.631.815.033l.162.223c.159-.257.039-.625-.169-.932z" stroke="#000" stroke-width="0.029574" fill="#f7e017"/>
            <g>
                <path d="M7.628-2.858c-.279-.257-.408-.687-.397-.932.011-.246.112-.514.469-.402l-.151.246c.095.033.223-.045.24-.095l.179.145c.056-.045-.006-.262-.089-.307.061-.033.095-.207.067-.29-.056.011-.139.089-.156.201.028-.089-.006-.313-.162-.346-.045.061-.056.212.006.296-.145-.034-.357.061-.408.184.011-.148.032-.359.123-.491.031-.045-.045-.123-.103-.017-.109-.212-.399-.324-.528-.218s-.301-.05-.408.117c-.106.168-.466.185-.447.363.011.106-.014.27-.067.329-.128.145.061.251.095.38-.022-.424.653-1.251 1.329-.927-.061.106-.115.318-.134.575-.028.38.028.916.396 1.228l.145-.039z" stroke="#000" stroke-width="0.029574" fill="#337321"/>
                <path d="M7.828-4.187c-.004-.101.17-.231.405-.229l.726.235s.115.101.067.134c-.047.034-.075.084-.059.145s-.012.102-.103.045c-.201-.126-.402.05-.667-.047-.23-.085-.363-.131-.368-.282z" stroke="#000" stroke-width="0.029574" fill="#cf142b"/>
                <path d="M6.678-1.551c-.112-.352-.536-.737-.743-.826l-.011-.19c.112-.045.38-.257.503-.374.838.402 1.977-.168 2.502-.759l.201.123-.101.134-.106-.056c-.128.156-.608.608-.753.702.195.049.462.083.535.079.469-.335.838-.637 1.016-.659l.151.201-.134.095-.106-.061c-.503.413-1.072 1.318-1.296 1.921-.313-.067-1.429-.022-1.658-.329z" stroke="#000" stroke-width="0.029574" fill="#96877d"/>
                <path d="M8.169-2.798l-.174-.06c-.089.084-.313.156-.598.168" stroke="#000" stroke-width="0.029574" fill="none"/>
                <path d="M6.722-1.674c-.075-.416.045-.877.257-1.016.463.307 1.257.307 1.726-.028" stroke="#000" stroke-width="0.029574" fill="none"/>
                <path d="M6.722-1.892c.357-.011 1.134.05 1.323.078.19.028.508.106.463.201" stroke="#000" stroke-width="0.029574" fill="none"/>
                <path d="M6.887-1.951l.103-.103-.103-.103-.103.103.103.103z" stroke="#000" stroke-width="0.029574" fill="none"/>
                <path d="M7.13-4.03c-.128-.179-.482-.235-.558.006-.034.106-.084.218-.168.268-.084.05-.064.202-.028.268.089.162.011.318.184.424 0-.128.19-.262.352-.296.162-.034.408-.179.441-.341.034-.162.089-.296-.223-.329z" stroke="#000" stroke-width="0.029574" fill="#337321"/>
                <path d="M6.325-2.422h.045l.001.305.027.014.263-.152.022.039-.264.153.001.03.263.152-.022.039-.265-.152-.026.016v.304h-.045l-.001-.305-.027-.014-.263.152-.022-.039.264-.153-.001-.03-.263-.152.022-.039.265.152.025-.016v-.304z" stroke="#000" stroke-width="0.029574" fill="#96877d"/>
                <path d="M6.724-1.675c-.096.097-.229.156-.375.156-.292 0-.529-.237-.529-.529 0-.292.237-.529.529-.529.172 0 .324.082.421.208-.027.067-.059.216-.061.284-.018-.182-.172-.325-.36-.325-.2 0-.362.162-.362.362 0 .2.162.362.362.362.167 0 .312-.117.353-.271l.022.282z" stroke="#000" stroke-width="0.029574" fill="#96877d"/>
                <path d="M6.125-1.171c-.033-.039-.095-.145-.089-.223.05-.006.145.028.19.073l-.017-.235c.061.022.19.095.234.179-.011-.056-.034-.201-.011-.29.067.039.179.145.201.218.006-.112.045-.296.078-.341l.179.162c.011-.089.056-.195.123-.223.05.056.128.184.145.329.05-.017.117-.101.145-.145.028.045.056.123.039.218.061-.056.134-.134.151-.201.045.034.128.117.151.207l-.028-.274c.084.045.151.123.168.207.022-.078.073-.218.117-.251.045.089.089.195.084.285l.117-.179c.039.061.034.195.022.268l.156-.145v.151c.05-.028.134-.179.162-.257.078.039.156.173.162.24.056-.022.168-.123.201-.179l-.006.229.084-.128c.022.056.006.19-.017.262.05-.045.123-.073.168-.073.006.095-.061.262-.123.385-.536-.151-1.658-.207-2.786-.268z" stroke="#000" stroke-width="0.029574" fill="#337321"/>
                <path d="M7.994-4.13c-.003-.041.089-.134.254-.133l.538.136.047.055-.041.059-.072.018-.467-.019c-.161-.035-.254-.054-.258-.115z" fill="#f7e017"/>
            </g>
            <g stroke="#000" stroke-width=".186">
                <g fill="#f7e017">
                    <path d="M6.298-.836c-.167.201-.335.168-.368.039l.045-.302c-.045-.112.073-.162.128-.112.056.05.234-.112.313.056.078.168.14.285.095.352-.045.067-.179.034-.212-.033z"/>
                    <path d="M7.018-1.138c-.031-.073.142-.215.232-.114.089.101.229-.109.307.05l.142.332c.039.089-.212.137-.291.059.011.053-.217.095-.279-.056l-.112-.271z"/>
                    <path d="M8.18-1.046c-.042-.078.162-.19.268-.047.028-.059.229-.07.243.101l.025.338s-.123.128-.215-.042c-.165.034-.24-.059-.26-.156l-.061-.193z"/>
                </g>
                <g fill="#337321">
                    <path d="M6.406-1.157c-.025-.056.142-.168.257-.084.115.084.273-.072.341.078.137.304.145.327.103.385-.042.059-.221.036-.265-.045-.008.056-.162.047-.243.003-.092-.05-.156-.237-.193-.338z"/>
                    <path d="M7.582-1.144c-.039-.087.223-.162.338-.011.059-.053.187-.056.26.109.073.165.084.257.031.299-.037.029-.173.053-.218-.022-.061.039-.251.006-.293-.101l-.117-.274z"/>
                    <path d="M8.693-.979c-.006-.078.137-.114.19 0s.223.011.237.201c.003.036-.02.176-.073.243s-.313 0-.329-.142l-.025-.302z"/>
                </g>
                <g fill="none">
                    <path d="M6.298-.836c-.061-.084-.145-.218-.251-.073"/>
                    <path d="M6.843-.823l-.101-.187"/>
                    <path d="M7.408-.811l-.128-.142"/>
                    <path d="M7.359-1.104c.098.011.165.103.195.145.031.042.095.117.145.126"/>
                    <path d="M7.993-.769l-.075-.14"/>
                    <path d="M7.92-1.155l.078.131"/>
                    <path d="M8.501-.697c-.045-.084-.114-.165-.173-.193"/>
                    <path d="M8.479-1.004c.006.165.226.176.234.293"/>
                    <path d="M8.882-.979l.034.154"/>
                </g>
            </g>
        </g>
    </g>
</svg>
