<svg xmlns="http://www.w3.org/2000/svg" xmlns:xlink="http://www.w3.org/1999/xlink" id="flag-icon-css-pt" width="640" height="480">
  <path fill="red" d="M256 0h384v480H256z"/>
  <path fill="#060" d="M0 0h256v480H0z"/>
  <g fill="#ff0" fill-rule="evenodd" stroke="#000" stroke-linecap="round" stroke-linejoin="round" stroke-width=".57">
    <path stroke-width=".61" d="M339.46 306.18c-32.23-.97-180-93.2-181-107.9l8.15-13.6c14.66 21.3 165.72 111 180.56 107.81l-7.71 13.68"/>
    <path stroke-width=".61" d="M164.9 182.83c-2.9 7.78 38.56 33.4 88.43 63.73 49.87 30.33 92.87 49.08 96.05 46.39.2-.35 1.57-2.71 1.45-2.7-.6.9-2.06 1.2-4.32.54-13.48-3.89-48.62-20.02-92.14-46.4-43.52-26.4-81.38-50.72-87.26-61.06a6.27 6.27 0 0 1-.64-3.04h-.15l-1.25 2.2-.17.34zM340.2 306.6c-.54 1-1.56 1.03-3.5.81-12.05-1.33-48.63-19.12-91.9-45.02-50.36-30.15-91.95-57.61-87.44-64.8l1.23-2.16.24.07c-4.06 12.17 82.08 61.42 87.15 64.56 49.84 30.88 91.86 48.9 95.57 44.22l-1.35 2.33z"/>
    <path stroke-width=".61" d="M256.18 207.18c32.25-.26 72.06-4.41 94.96-13.54l-4.94-8.01c-13.53 7.49-53.55 12.42-90.3 13.15-43.44-.4-74.12-4.44-89.48-14.75l-4.66 8.53c28.25 11.96 57.2 14.5 94.42 14.62"/>
    <path stroke-width=".61" d="M352.47 193.82c-.79 1.26-15.73 6.42-37.73 10.22-14.92 2.27-34.38 4.22-58.67 4.24a416.12 416.12 0 0 1-56.2-3.56c-23.1-3.62-35.02-8.66-39.43-10.44l1.1-2.2c12.69 5.05 24.67 8.1 38.7 10.25A411.53 411.53 0 0 0 256 205.9a391.78 391.78 0 0 0 58.26-4.33c22.56-3.64 34.89-8.32 36.62-10.5l1.6 2.75zm-4.33-8.13c-2.45 1.97-14.63 6.29-36.07 9.71a388.24 388.24 0 0 1-55.75 3.91c-22.09.02-40.13-1.46-53.85-3.46-21.78-2.85-33.37-7.98-37.55-9.47l1.28-2.15c3.25 1.64 14.43 6.18 36.5 9.3 13.57 1.93 31.64 3.36 53.62 3.34 23.13-.03 41.12-1.9 55.34-3.94 21.55-2.96 33.15-8.47 34.9-9.85l1.58 2.61zm-197.87 60.35c19.84 10.67 63.9 16.04 105.6 16.41 37.96.06 87.42-5.86 105.91-15.67l-.5-10.67c-5.8 9.04-58.8 17.71-105.83 17.36-47.03-.36-90.7-7.62-105.26-17.03l.08 9.6"/>
    <path stroke-width=".61" d="M362.8 244.5v2.55c-2.78 3.32-20.21 8.34-42.07 11.88-16.64 2.55-38.32 4.48-65.35 4.48-25.67 0-46.14-1.83-62.02-4.27-25.1-3.66-41.15-10.06-44.38-11.97l.02-2.97c9.68 6.44 35.9 11.15 44.7 12.59 15.78 2.42 36.14 4.23 61.68 4.23 26.9 0 48.46-1.9 65-4.44 15.67-2.27 38.01-8.16 42.41-12.08zm0-9.06V238c-2.77 3.32-20.2 8.35-42.06 11.88-16.64 2.55-38.32 4.48-65.35 4.48-25.67 0-46.14-1.83-62.02-4.27-25.1-3.66-41.15-10.06-44.38-11.97l.02-2.97c9.68 6.44 35.9 11.15 44.71 12.59 15.78 2.42 36.13 4.24 61.67 4.24 26.9 0 48.47-1.91 65-4.45 15.68-2.27 38.02-8.16 42.41-12.08zm-107.02 68.9c-45.63-.27-84.72-12.44-92.97-14.45l6.02 9.43c14.58 6.13 52.71 15.27 87.38 14.26 34.67-1.01 64.97-3.7 86.33-14.1l6.17-9.76c-14.55 6.86-64.07 14.55-92.94 14.62"/>
    <path stroke-width=".59" d="M344.85 297.3a143.02 143.02 0 0 1-2.77 4.09c-10.07 3.55-25.94 7.28-32.63 8.36-13.68 2.82-34.85 4.9-53.63 4.91-40.41-.59-73.5-8.5-89.06-15.25l-1.26-2.16.2-.32 2.14.82c27.68 9.9 58.76 13.86 88.2 14.57 18.72.06 37.44-2.15 52.59-4.86 23.22-4.65 32.6-8.16 35.49-9.75l.73-.4zm5.35-8.83l.07.09a287.23 287.23 0 0 1-2.09 3.48c-5.37 1.92-19.95 6.18-41.24 9.16-14.02 1.9-22.74 3.76-50.64 4.3-52.28-1.33-86.13-11.55-94.17-14.07l-1.2-2.29c30.3 7.91 61.25 13.43 95.37 14 25.53-.55 36.39-2.43 50.3-4.32 24.82-3.86 37.33-7.95 41.08-9.13a2.85 2.85 0 0 0-.16-.21l2.69-1z"/>
    <path stroke-width=".61" d="M350.75 237.61c.15 30.01-15.2 56.95-27.58 68.83-17.5 16.8-40.7 27.62-67.8 28.12-30.27.55-58.8-19.17-66.45-27.84-14.97-16.95-27.15-38.46-27.54-67.46 1.85-32.76 14.71-55.57 33.35-71.22 18.64-15.65 43.46-23.27 64.13-22.72 23.85.63 51.7 12.33 70.96 35.55 12.6 15.22 18.07 31.73 20.93 56.74zm-95.13-102.76c58.12 0 105.92 47.3 105.92 105.28 0 57.99-47.8 105.28-105.92 105.28-58.12 0-105.52-47.3-105.52-105.28 0-58 47.4-105.28 105.52-105.28"/>
    <path stroke-width=".61" d="M255.9 134.49c58.17 0 105.62 47.45 105.62 105.62S314.07 345.73 255.9 345.73 150.3 298.28 150.3 240.1c0-58.18 47.43-105.63 105.6-105.63zM152.62 240.1c0 56.81 46.65 103.3 103.28 103.3 56.64 0 103.3-46.49 103.3-103.3 0-56.81-46.66-103.3-103.3-103.3S152.62 183.3 152.62 240.1z"/>
    <path stroke-width=".61" d="M255.99 143.26c53.05 0 96.74 43.55 96.74 96.75 0 53.21-43.7 96.75-96.74 96.75-53.05 0-96.74-43.54-96.74-96.75 0-53.2 43.7-96.75 96.74-96.75zm-94.42 96.75c0 51.93 42.65 94.43 94.42 94.43s94.41-42.5 94.41-94.43c0-51.93-42.64-94.42-94.41-94.42-51.77 0-94.42 42.5-94.42 94.42z"/>
    <path stroke-width=".61" d="M260.25 134.06h-9.05v212.22h9.09z"/>
    <path stroke-width=".61" d="M259.34 132.85h2.3l.02 214.67h-2.3l-.02-214.67zm-8.98 0h2.32v214.67h-2.32V132.85z"/>
    <path stroke-width=".61" d="M361.59 244.2v-7.85l-6.39-5.95-36.27-9.6-52.26-5.33-62.94 3.2-44.8 10.66-9.04 6.7v7.85l22.91-10.28 54.4-8.53h52.27l38.4 4.26 26.66 6.4z"/>
    <path stroke-width=".61" d="M255.95 223.75c24.94-.04 49.14 2.37 68.33 6.1 19.81 3.96 33.75 8.92 38.52 14.48l-.01 2.76c-5.75-6.93-24.5-12-38.95-14.9-19.05-3.7-43.09-6.1-67.9-6.05-26.17.04-50.54 2.52-69.31 6.19-15.06 2.98-35.15 8.92-37.66 14.78v-2.87c1.38-4.05 16.34-10.11 37.32-14.31 18.91-3.7 43.33-6.13 69.66-6.17zm0-9.06c24.95-.04 49.15 2.37 68.34 6.1 19.81 3.97 33.75 8.92 38.51 14.48v2.76c-5.75-6.92-24.5-12-38.95-14.9-19.05-3.7-43.09-6.1-67.9-6.05-26.17.04-50.42 2.53-69.2 6.19-14.53 2.75-35.43 8.92-37.76 14.78v-2.87c1.37-4.01 16.63-10.28 37.31-14.31 18.91-3.69 43.33-6.12 69.66-6.17zm-.5-46.2c39.3-.2 73.59 5.5 89.27 13.53l5.72 9.9c-13.63-7.35-50.62-14.99-94.94-13.84-36.1.22-74.7 3.97-94.05 14.3l6.83-11.42c15.89-8.24 53.36-12.42 87.17-12.47"/>
    <path stroke-width=".61" d="M255.97 176.66c22.42-.06 44.08 1.2 61.3 4.32 16.05 2.98 31.35 7.46 33.54 9.87l1.7 3c-5.33-3.48-18.57-7.34-35.57-10.57-17.07-3.2-38.72-4.27-61.01-4.21-25.3-.09-44.96 1.25-61.84 4.19-17.84 3.34-30.22 8.11-33.27 10.38l1.66-3.17c5.93-3.03 15.35-6.68 31.17-9.53 17.45-3.19 37.32-4.14 62.32-4.28zm-.01-9.05c21.45-.06 42.63 1.14 59.15 4.11 13.02 2.53 25.9 6.5 30.61 10.01l2.48 3.95c-4.21-4.7-20.08-9.13-34.1-11.62-16.39-2.83-36.69-3.95-58.14-4.13-22.52.07-43.32 1.45-59.47 4.39-15.4 2.93-25.34 6.4-29.55 9.1l2.18-3.28c5.8-3.06 15.18-5.87 27-8.16 16.26-2.96 37.2-4.3 59.84-4.37zm52.47 116.4c-19.44-3.63-38.9-4.15-52.5-4-65.5.77-86.66 13.46-89.24 17.3l-4.9-7.98c16.68-12.1 52.35-18.87 94.5-18.18 21.88.36 40.77 1.81 56.65 4.9l-4.52 7.96"/>
    <path stroke-width=".59" d="M255.55 278.89c18.22.27 36.1 1.02 53.37 4.24l-1.25 2.21c-16.03-2.96-33.13-4.09-52.06-4-24.17-.19-48.62 2.07-69.9 8.18-6.72 1.87-17.84 6.19-18.98 9.76l-1.24-2.05c.36-2.11 7.08-6.5 19.64-10.02 24.38-6.98 47.19-8.16 70.42-8.32zm.83-9.17c18.88.35 38.37 1.23 57.32 4.98l-1.3 2.3c-17.11-3.4-33.46-4.53-55.91-4.88-24.25.05-49.97 1.78-73.36 8.58-7.55 2.2-20.59 6.95-21.02 10.72l-1.25-2.2c.29-3.42 11.57-7.88 21.72-10.84 23.57-6.85 49.36-8.61 73.8-8.66z"/>
    <path stroke-width=".61" d="M349.42 290.54l-7.87 12.21-22.62-20.08-58.66-39.47-66.14-36.27-34.33-11.74 7.31-13.57 2.49-1.35 21.33 5.33 70.4 36.27 40.54 25.6L336 272l13.87 16z"/>
    <path stroke-width=".61" d="M158.56 195.51c6.02-4.08 50.28 15.63 96.6 43.56 46.18 28 90.31 59.65 86.33 65.57l-1.31 2.06-.6.47c.13-.09.8-.9-.07-3.1-1.96-6.47-33.27-31.46-85.22-62.82-50.64-30.2-92.84-48.4-97.06-43.2l1.33-2.54zm192.47 94.86c3.8-7.53-37.24-38.45-88.14-68.56-52.07-29.51-89.6-46.88-96.45-41.7l-1.52 2.77c-.02.15.05-.19.38-.44 1.24-1.09 3.3-1.01 4.24-1.03 11.8.18 45.5 15.69 92.8 42.8 20.73 12.07 87.55 54.93 87.3 66.98.01 1.03.08 1.25-.31 1.76l1.7-2.59z"/>
  </g>
  <g transform="translate(0 26.67) scale(1.06667)">
    <path fill="#fff" stroke="#000" stroke-width=".67" d="M180.6 211.01a58.71 58.71 0 0 0 17.46 41.74c10.81 10.78 25.5 17.58 41.8 17.58a59.37 59.37 0 0 0 42.02-17.39 59 59 0 0 0 17.45-41.88v-79.19l-118.74-.14v79.28h.01z"/>
    <path fill="red" stroke="#000" stroke-width=".51" d="M182.82 211.12v.04a56.39 56.39 0 0 0 16.77 40.01 56.98 56.98 0 0 0 40.22 16.71 56.87 56.87 0 0 0 40.22-16.62 56.38 56.38 0 0 0 16.7-40.04v-76.83l-113.84-.02-.07 76.75m91.02-53.75v48.9l-.04 5.16a33.2 33.2 0 0 1-9.99 23.94 34 34 0 0 1-24.04 9.95c-9.33 0-17.64-3.94-23.83-10.1a33.96 33.96 0 0 1-10.03-23.95l-.01-54.02 67.94.12z"/>
    <g id="e">
      <g id="d" fill="#ff0" stroke="#000" stroke-width=".5">
        <path stroke="none" d="M190.19 154.43c.14-5.52 4.05-6.83 4.08-6.85.03-.02 4.23 1.41 4.22 6.9l-8.3-.05"/>
        <path d="M186.81 147.69l-.68 6.34 4.14.01c.04-5.25 3.97-6.12 4.07-6.1.09 0 3.99 1.16 4.1 6.1h4.14l-.75-6.39-15.02.04zm-.96 6.37h16.95c.35 0 .65.35.65.78 0 .43-.3.78-.65.78h-16.95c-.36 0-.65-.35-.65-.78 0-.43.3-.78.65-.78z"/>
        <path d="M192.01 154.03c.02-3.31 2.26-4.25 2.27-4.25 0 0 2.35.97 2.36 4.25h-4.63m-5.8-8.98h16.24c.35 0 .63.32.63.7 0 .4-.28.7-.63.7h-16.24c-.34 0-.62-.3-.62-.7 0-.38.28-.7.62-.7zm.34 1.42h15.54c.32 0 .6.32.6.7 0 .4-.28.7-.6.7h-15.54c-.33 0-.6-.3-.6-.7 0-.38.27-.7.6-.7zm5.02-10.59h1.23v.87h.9v-.89h1.25v.9h.9v-.9h1.25v2.01c0 .32-.25.52-.55.52h-4.4c-.3 0-.58-.23-.58-.52v-2zm4.62 2.69l.28 6.45-4.3-.02.28-6.45 3.74.02"/>
        <path id="a" d="M190.94 141.56l.13 3.48h-4.12l.11-3.48h3.88z"/>
        <use width="100%" height="100%" x="10.61" xlink:href="#a"/>
        <path id="b" d="M186.3 139.04h1.2v.87h.88v-.89h1.23v.9h.88v-.9h1.23v2.02c0 .31-.26.51-.54.51h-4.32c-.29 0-.56-.23-.56-.52v-1.99z"/>
        <use width="100%" height="100%" x="10.61" xlink:href="#b"/>
        <path fill="#000" stroke="none" d="M193.9 140.61c-.03-.63.88-.63.87 0v1.54h-.87v-1.54"/>
        <path id="c" fill="#000" stroke="none" d="M188.57 142.84c0-.6.84-.62.83 0v1.19h-.83v-1.19"/>
        <use width="100%" height="100%" x="10.64" xlink:href="#c"/>
      </g>
      <use width="100%" height="100%" y="46.32" xlink:href="#d"/>
      <use width="100%" height="100%" transform="rotate(-45.2 312.77 180)" xlink:href="#d"/>
    </g>
    <use width="100%" height="100%" x="45.71" xlink:href="#d"/>
    <use width="100%" height="100%" transform="matrix(-1 0 0 1 479.8 0)" xlink:href="#e"/>
    <g id="f" fill="#fff">
      <path fill="#039" d="M232.64 202.4v.01a8.34 8.34 0 0 0 2.2 5.7 7.24 7.24 0 0 0 5.31 2.37c2.07 0 3.94-.9 5.3-2.37a8.34 8.34 0 0 0 2.2-5.69v-10.77l-14.99-.01-.03 10.76"/>
      <circle cx="236.07" cy="195.74" r="1.49"/>
      <circle cx="244.39" cy="195.74" r="1.49"/>
      <circle cx="240.22" cy="199.74" r="1.49"/>
      <circle cx="236.07" cy="203.92" r="1.49"/>
      <circle cx="244.38" cy="203.91" r="1.49"/>
    </g>
    <use width="100%" height="100%" y="-26.02" xlink:href="#f"/>
    <use width="100%" height="100%" x="-20.8" xlink:href="#f"/>
    <use width="100%" height="100%" x="20.75" xlink:href="#f"/>
    <use width="100%" height="100%" y="25.78" xlink:href="#f"/>
  </g>
</svg>
