<svg xmlns="http://www.w3.org/2000/svg" height="480" width="640">
    <g clip-path="url(#a)">
        <g fill-rule="evenodd">
            <path fill="#fff" d="M-192 161.211h1023.878v157.774h-1023.878z"/>
            <path fill="#3d25ca" d="M-192 318.985h1023.878v161.211h-1023.878z"/>
            <path fill="#d60000" d="M-192 0h1023.878v161.211h-1023.878z"/>
        </g>
        <g>
            <path d="M744.14 567.26c0 192.48-157.09 348.52-350.87 348.52s-350.87-156.04-350.87-348.52 157.09-348.52 350.87-348.52 350.87 156.04 350.87 348.52z" fill-rule="evenodd" transform="matrix(.187 0 0 .177 246.222 139.632)" stroke="#000" stroke-width="12.91" fill="#fff"/>
            <g stroke="#000" stroke-width="2.637">
                <g fill-rule="evenodd" fill="#006700">
                    <path d="M328.434 211.255s24.89 10.126 20.609 31.122c-4.281 20.996-18.123 20.874-23.544 23.2-5.421 2.327-9.155 5.652-11.298 5.19-2.143-.462-4.978-2.025-4.978-2.025s-.217 3.448 4.144 4.069c4.361.622 10.074-5.454 12.825-6.132s19.645-2.439 23.695-23.803c4.733-22.805-21.298-30.953-21.453-31.621z"/>
                    <g>
                        <path d="M341.216 215.876c.479 1.735.495 3.164.038 3.193s-1.217-1.355-1.695-3.089c-.479-1.735-.495-3.164-.038-3.193s1.217 1.355 1.695 3.089z"/>
                        <path d="M340.54 215.637c.897 1.615 1.288 3.041.874 3.184s-1.479-1.05-2.376-2.666c-.897-1.615-1.288-3.041-.874-3.184s1.479 1.05 2.376 2.666z"/>
                        <path d="M337.968 217.22c1.795.479 3.215 1.226 3.172 1.67s-1.533.415-3.327-.064c-1.795-.479-3.215-1.226-3.172-1.67s1.533-.415 3.327.064z"/>
                        <path d="M338.186 216.53c1.615 1.017 2.762 2.143 2.562 2.515s-1.672-.151-3.287-1.168-2.762-2.143-2.562-2.515 1.672.151 3.287 1.168z"/>
                        <path d="M339.212 216.074c1.376 1.316 2.248 2.615 1.947 2.901s-1.659-.549-3.035-1.865c-1.376-1.316-2.248-2.615-1.947-2.901s1.659.549 3.035 1.865z"/>
                        <path d="M341.149 218.823c.015.013-.974.508-1.199.583-.225.075-.54-.26-1.184.047s-1.079.854-1.214 1.174c-.135.32.195.448.974.097s.974-.893 1.349-1.109c.375-.216 1.004-.536 1.364-.656.15-.306.644-.966.899-1.344.255-.378 1.274-1.011 1.633-1.735.315-.599.18-1.104-.255-.886-.435.218-.989.824-1.244 1.257-.255.433-.015.976-.3 1.382-.225.295-.764 1.189-.824 1.191z"/>
                    </g>
                    <g>
                        <path d="M348.834 221.751c.06 2.692-.414 4.758-1.057 4.615s-1.214-2.441-1.274-5.133c-.06-2.692.414-4.758 1.057-4.615s1.214 2.441 1.274 5.133z"/>
                        <path d="M347.058 221.81c.598 2.752.585 5.006-.031 5.035s-1.599-2.179-2.197-4.931c-.598-2.752-.585-5.006.031-5.035s1.599 2.179 2.197 4.931z"/>
                        <path d="M343.214 222.74c2.273 1.436 3.942 3.098 3.728 3.714s-2.231-.05-4.505-1.486c-2.273-1.436-3.942-3.098-3.728-3.714s2.231.05 4.505 1.486z"/>
                        <path d="M343.838 221.951c1.855 2.154 3.033 4.259 2.633 4.703s-2.229-.943-4.083-3.097c-1.855-2.154-3.033-4.259-2.633-4.703s2.229.943 4.083 3.097z"/>
                        <path d="M345.75 221.74c1.436 2.513 2.182 4.781 1.667 5.067s-2.096-1.519-3.532-4.031c-1.436-2.513-2.182-4.781-1.667-5.067s2.096 1.519 3.532 4.031z"/>
                        <path d="M347.066 226.879c.015.027-1.515.308-1.848.316-.333.008-.626-.633-1.617-.473s-1.793.774-2.101 1.187c-.308.413.087.754 1.277.589s1.667-.879 2.258-1.029c.591-.15 1.567-.336 2.1-.35.323-.386 1.25-1.139 1.743-1.584.493-.445 2.118-.918 2.889-1.828.661-.746.678-1.557.005-1.432s-1.66.771-2.175 1.297c-.515.526-.405 1.442-.949 1.915-.42.335-1.5 1.415-1.582 1.39z"/>
                    </g>
                    <g>
                        <path d="M352.705 231.183c-.479 2.632-1.354 4.557-1.954 4.3s-.7-2.6-.221-5.232 1.354-4.557 1.954-4.3.7 2.6.221 5.232z"/>
                        <path d="M351.85 231.185c.12 2.812-.282 5.021-.897 4.936s-1.211-2.435-1.33-5.246c-.12-2.812.282-5.021.897-4.936s1.211 2.435 1.33 5.246z"/>
                        <path d="M347.643 231.59c1.974 1.855 3.308 3.822 2.979 4.394s-2.196-.467-4.17-2.322c-1.974-1.855-3.308-3.822-2.979-4.394s2.196.467 4.17 2.322z"/>
                        <path d="M348.573 230.579c1.436 2.453 2.205 4.743 1.719 5.115s-2.045-1.315-3.48-3.768c-1.436-2.453-2.205-4.743-1.719-5.115s2.045 1.315 3.48 3.768z"/>
                        <path d="M350.206 231.103c.957 2.752 1.281 5.133.723 5.319s-1.786-1.894-2.743-4.646c-.957-2.752-1.281-5.133-.723-5.319s1.786 1.894 2.743 4.646z"/>
                        <path d="M350.637 235.806c.01.028-1.565.075-1.898.033-.333-.042-.506-.713-1.522-.704s-1.928.49-2.311.847c-.383.358-.053.751 1.162.768s1.822-.611 2.438-.669c.616-.058 1.622-.095 2.155-.028.393-.33 1.455-.927 2.028-1.289.573-.361 2.278-.581 3.214-1.357.796-.631.962-1.422.27-1.4-.693.022-1.795.506-2.404.944-.609.438-.669 1.35-1.299 1.732-.48.265-1.755 1.161-1.832 1.124z"/>
                    </g>
                    <g>
                        <path d="M353.362 242.305c-1.496 2.273-3.068 3.733-3.511 3.261s.409-2.698 1.905-4.971 3.068-3.733 3.511-3.261-.409 2.698-1.905 4.971z"/>
                        <path d="M352.239 241.511c-1.077 2.632-2.379 4.511-2.908 4.196s-.085-2.704.991-5.336c1.077-2.632 2.379-4.511 2.908-4.196s.085 2.704-.991 5.336z"/>
                        <path d="M348.304 240.279c1.017 2.453 1.412 4.754.883 5.141s-1.783-1.289-2.8-3.742c-1.017-2.453-1.412-4.754-.883-5.141s1.783 1.289 2.8 3.742z"/>
                        <path d="M349.557 239.542c.299 2.812.066 5.219-.52 5.376s-1.305-1.994-1.604-4.806c-.299-2.812-.066-5.219.52-5.376s1.305 1.994 1.604 4.806z"/>
                        <path d="M351.196 240.494c-.239 2.872-.909 5.165-1.495 5.122s-.868-2.406-.629-5.277c.239-2.872.909-5.165 1.495-5.122s.868 2.406.629 5.277z"/>
                        <path d="M349.042 245.444c-.003.03-1.407-.574-1.682-.749-.275-.175-.14-.859-1.036-1.269s-1.903-.345-2.393-.175c-.49.17-.368.664.693 1.179s1.862.19 2.428.39c.566.2 1.465.579 1.905.859.486-.14 1.675-.25 2.333-.345.658-.095 2.25.405 3.404.08.969-.25 1.454-.904.836-1.169s-1.793-.275-2.516-.125c-.723.15-1.166.959-1.882 1.049-.535.045-2.038.34-2.09.275z"/>
                    </g>
                    <g>
                        <path d="M349.852 253.211c-2.453 1.974-4.696 3.03-5.011 2.357s1.419-2.818 3.871-4.792c2.453-1.974 4.696-3.03 5.011-2.357s-1.419 2.818-3.871 4.792z"/>
                        <path d="M348.938 252.5c-2.094 2.572-4.162 4.229-4.62 3.699s.869-3.044 2.962-5.616c2.094-2.572 4.162-4.229 4.62-3.699s-.869 3.044-2.962 5.616z"/>
                        <path d="M344.856 249.388c.239 3.051-.147 5.733-.862 5.991s-1.489-2.007-1.728-5.058c-.239-3.051.147-5.733.862-5.991s1.489 2.007 1.728 5.058z"/>
                        <path d="M346.798 249.472c-.658 3.231-1.76 5.826-2.461 5.797s-.736-2.671-.078-5.901c.658-3.231 1.76-5.826 2.461-5.797s.736 2.671.078 5.901z"/>
                        <path d="M347.919 250.871c-1.316 3.111-2.893 5.435-3.523 5.192s-.073-2.962 1.243-6.073 2.893-5.435 3.523-5.192.073 2.962-1.243 6.073z"/>
                        <path d="M344.493 255.381c-.013.032-1.382-1.099-1.632-1.382-.25-.283.12-.986-.746-1.734s-2.008-1.014-2.608-.993c-.599.022-.623.603.393 1.52s2.011.831 2.578 1.239c.566.408 1.445 1.124 1.845 1.577.586.01 1.945.288 2.707.405.763.117 2.375 1.196 3.763 1.227 1.159.052 1.908-.501 1.305-.997s-1.908-.901-2.761-.979c-.853-.078-1.605.658-2.431.516-.609-.13-2.378-.311-2.414-.4z"/>
                    </g>
                    <g>
                        <path d="M341.597 263.012c-3.53.538-6.321.314-6.235-.502s3.017-1.913 6.546-2.451c3.53-.538 6.321-.314 6.235.502s-3.017 1.913-6.546 2.451z"/>
                        <path d="M341.821 261.464c-3.47 1.256-6.399 1.66-6.542.902s2.554-2.391 6.024-3.648c3.47-1.256 6.399-1.66 6.542-.902s-2.554 2.391-6.024 3.648z"/>
                        <path d="M339.332 256.575c-1.555 3.051-3.501 5.408-4.345 5.265s-.267-2.732 1.288-5.783c1.555-3.051 3.501-5.408 4.345-5.265s.267 2.732-1.288 5.783z"/>
                        <path d="M341.028 257.592c-2.513 2.692-5.083 4.538-5.741 4.123s.845-2.934 3.358-5.626 5.083-4.538 5.741-4.123-.845 2.934-3.358 5.626z"/>
                        <path d="M341.63 259.335c-3.051 2.214-5.907 3.544-6.379 2.972s1.619-2.831 4.67-5.044c3.051-2.214 5.907-3.544 6.379-2.972s-1.619 2.831-4.67 5.044z"/>
                        <path d="M335.329 262.19c-.032.023-.691-1.807-.766-2.215-.075-.408.699-.886.301-2.075s-1.349-2.063-1.943-2.366c-.594-.303-.961.245-.518 1.678s1.46 1.888 1.768 2.588c.308.699.738 1.865.858 2.518.563.326 1.717 1.329 2.388 1.853.671.525 1.597 2.436 2.926 3.217 1.094.676 2.148.548 1.857-.256-.291-.804-1.319-1.9-2.1-2.436-.781-.536-1.947-.233-2.664-.816-.515-.455-2.123-1.585-2.106-1.69z"/>
                    </g>
                    <g>
                        <path d="M331.513 268.729c-3.605.09-6.527-.632-6.527-1.613s2.922-1.849 6.527-1.939c3.605-.09 6.527.632 6.527 1.613s-2.922 1.849-6.527 1.939z"/>
                        <path d="M330.807 263.396c-2.253 2.839-4.704 4.647-5.473 4.039s.433-3.403 2.686-6.242 4.704-4.647 5.473-4.039-.433 3.403-2.686 6.242z"/>
                        <path d="M331.747 265.933c-3.335 1.397-6.34 1.795-6.712.888s2.029-2.773 5.363-4.17c3.335-1.397 6.34-1.795 6.712-.888s-2.029 2.773-5.363 4.17z"/>
                    </g>
                    <g>
                        <path d="M333.03 212.324c1.667 1.442 2.677 2.782 2.255 2.993s-2.116-.787-3.783-2.229c-1.667-1.442-2.677-2.782-2.255-2.993s2.116.787 3.783 2.229z"/>
                        <path d="M331.179 213.774c2.253.315 4.15.933 4.237 1.38s-1.669.554-3.922.238c-2.253-.315-4.15-.933-4.237-1.38s1.669-.554 3.922-.238z"/>
                        <path d="M331.862 212.635c2.118 1.036 3.654 2.158 3.43 2.506s-2.122-.211-4.239-1.247c-2.118-1.036-3.654-2.158-3.43-2.506s2.122.211 4.239 1.247z"/>
                    </g>
                </g>
                <g fill-rule="evenodd" fill="#006700">
                    <path d="M302.166 262.653s5.506 1.13 10.296 2.783c4.79 1.653 12.083 7.294 14.037 7.619 2.191.102 5.224-.591 6.362-3.563-3.368.834-5.385 2.114-8.613.437-1.14-.41-4.882-3.616-8.975-5.34-4.093-1.724-12.339-3.702-12.339-3.702l-.768 1.766z"/>
                    <path d="M307.952 215.203c-.02-.045 6.398-3.113 6.398-3.113l-7.059 1.637-.818 1.156 1.479.32z"/>
                    <path d="M314.038 216.696c-2.48-.443-6.294-1.255-8.721-1.458 1.677-1.725 3.988-4.645 5.412-6.438-.94 1.714-2.416 3.971-2.998 5.614 1.71.878 4.397 1.576 6.308 2.282z"/>
                    <path d="M307.381 216.051c-.027-.041 5.612-4.203 5.612-4.203l-6.505 2.844-.585 1.294 1.479.066z"/>
                    <path d="M312.784 217.021c-2.509-.424-6.371-1.211-8.823-1.388 1.651-1.803 3.913-4.849 5.307-6.718-.908 1.781-2.344 4.132-2.893 5.835 1.743.883 4.467 1.568 6.409 2.271z"/>
                    <path d="M306.164 216.186c-.015-.046 6.648-2.64 6.648-2.64l-7.153 1.124-.927 1.091 1.432.424z"/>
                    <path d="M312.556 216.84c-2.482-.201-6.318-.649-8.715-.604 1.39-1.984 3.228-5.287 4.361-7.315-.673 1.894-1.79 4.415-2.124 6.197 1.793.738 4.513 1.186 6.478 1.723z"/>
                    <path d="M305.653 216.278c-.036-.035 4.453-5.251 4.453-5.251l-5.658 4.086-.256 1.392 1.46-.226z"/>
                    <path d="M312.098 217.499c-2.707-.019-6.906-.198-9.494.047 1.284-2.295 2.906-6.079 3.908-8.402-.518 2.138-1.448 5.002-1.612 6.989 2.021.666 5.013.936 7.198 1.366z"/>
                    <path d="M304.721 217.504c-.034-.045 5.484-4.926 5.484-4.926l-6.611 3.45-.465 1.467 1.592.009z"/>
                    <path d="M311.087 217.631c-2.887.038-7.332-.067-10.151.256 1.883-2.529 4.458-6.689 6.045-9.243-1.029 2.342-2.661 5.483-3.278 7.653 2.01.682 5.146.912 7.384 1.334z"/>
                    <path d="M302.485 217.957c-.027-.049 7.095-5.671 7.095-5.671l-7.989 4.039-.84 1.66 1.733-.028z"/>
                    <path d="M309.93 217.361c-2.871.367-7.313.773-10.075 1.413 1.518-2.71 3.495-7.105 4.715-9.806-.694 2.427-1.875 5.711-2.183 7.922 2.099.443 5.255.311 7.544.471z"/>
                    <path d="M301.971 219.42c-.04-.039 5.378-7.128 5.378-7.128l-6.7 5.846-.365 1.763 1.686-.48z"/>
                    <path d="M308.646 218.287c-2.86.241-7.279.452-10.044.97 1.622-2.632 3.773-6.924 5.1-9.56-.794 2.387-2.107 5.606-2.509 7.793 2.06.532 5.193.537 7.453.796z"/>
                    <path d="M300.48 219.98c-.028-.049 6.909-5.671 6.909-5.671l-7.842 4.039-.791 1.66 1.724-.028z"/>
                    <path d="M307.714 218.957c-2.862.6-7.304 1.37-10.038 2.229 1.335-2.786 3.013-7.265 4.049-10.018-.527 2.44-1.482 5.762-1.635 7.957 2.143.259 5.31-.134 7.624-.168z"/>
                    <path d="M299.454 219.733c-.047-.032 4.427-7.66 4.427-7.66l-5.981 6.611-.104 1.756 1.658-.706z"/>
                    <path d="M307.477 219.075c-3.098.754-7.925 1.743-10.848 2.779 1.125-3.124 2.413-8.132 3.211-11.209-.272 2.716-.907 6.421-.797 8.854 2.41.22 5.872-.314 8.434-.424z"/>
                    <path d="M298.728 221.784c-.046-.045 5.602-7.729 5.602-7.729l-7.118 6.252-.321 1.947 1.837-.471z"/>
                    <path d="M306.37 220.05c-3.031.909-7.761 2.141-10.608 3.323.995-3.175 2.082-8.239 2.755-11.351-.168 2.725-.658 6.455-.459 8.878 2.388.097 5.786-.611 8.312-.85z"/>
                    <path d="M297.466 223.149c-.053-.035 4.321-8.548 4.321-8.548l-6.07 7.382-.004 1.957 1.752-.791z"/>
                    <path d="M304.935 221.239c-3.135.676-8.013 1.544-10.987 2.507 1.281-3.099 2.82-8.079 3.771-11.139-.408 2.712-1.228 6.404-1.24 8.842 2.399.281 5.888-.166 8.455-.211z"/>
                    <path d="M296.626 223.986c-.036-.052 6.926-6.702 6.926-6.702l-8.13 4.992-.679 1.87 1.884-.16z"/>
                    <path d="M303.906 222.542c-3.066.413-7.823.869-10.752 1.59 1.438-3.048 3.248-7.994 4.366-11.031-.571 2.73-1.604 6.425-1.775 8.912 2.294.498 5.685.35 8.162.53z"/>
                    <path d="M295.15 222.894c-.051-.04 4.693-8.303 4.693-8.303l-6.364 6.982-.1 1.98 1.771-.659z"/>
                    <path d="M304.452 221.442c-3.323 1.303-8.513 3.12-11.626 4.726 1.019-3.772 2.092-9.747 2.758-13.419-.118 3.181-.565 7.557-.285 10.358 2.638-.081 6.371-1.181 9.154-1.665z"/>
                    <path d="M294.568 225.377c-.054-.045 5.619-9.542 5.619-9.542l-7.406 8.065-.21 2.258 1.997-.782z"/>
                    <path d="M302.887 222.389c-3.285 1.44-8.426 3.475-11.487 5.201.863-3.745 1.685-9.651 2.197-13.28.018 3.122-.244 7.43.158 10.16 2.649-.209 6.356-1.47 9.132-2.081z"/>
                    <path d="M293.241 227.207c-.061-.033 4.173-10.319 4.173-10.319l-6.193 9.231.137 2.228 1.884-1.14z"/>
                    <path d="M301.374 223.277c-3.285 1.469-8.426 3.553-11.487 5.302.863-3.719 1.685-9.576 2.197-13.176.018 3.09-.244 7.358.158 10.055 2.649-.243 6.356-1.54 9.132-2.182z"/>
                    <path d="M292.524 228.542c-.049-.049 6.363-9.132 6.363-9.132l-7.995 7.5-.403 2.254 2.035-.622z"/>
                    <path d="M301.004 223.306c-2.941 2.238-7.592 5.533-10.248 7.984.031-3.791-.454-9.628-.746-13.217.706 2.965 1.395 7.134 2.395 9.625 2.582-.899 5.981-3.078 8.6-4.393z"/>
                    <path d="M293.16 228.636c-.069-.009.728-10.884.728-10.884l-3.02 10.573.842 1.997 1.451-1.686z"/>
                    <path d="M300.26 223.723c-2.941 2.161-7.592 5.334-10.248 7.712.031-3.766-.454-9.574-.746-13.146.706 2.961 1.395 7.117 2.395 9.613 2.582-.838 5.981-2.93 8.6-4.18z"/>
                    <path d="M292.258 230.714c-.065-.026 2.955-10.686 2.955-10.686l-5.092 9.832.394 2.192 1.743-1.338z"/>
                    <path d="M299.785 224.275c-2.799 2.579-7.253 6.407-9.73 9.174-.412-3.867-1.599-9.766-2.323-13.395 1.081 2.951 2.286 7.13 3.618 9.567 2.581-1.177 5.863-3.742 8.435-5.347z"/>
                    <path d="M291.945 231.672c-.072-.009.685-11.214.685-11.214l-3.055 10.903.882 2.053 1.488-1.743z"/>
                    <path d="M299.258 226.039c-2.952 2.305-7.626 5.698-10.28 8.224-.074-3.921-.733-9.959-1.131-13.672.805 3.069 1.627 7.384 2.721 9.963 2.621-.922 6.043-3.164 8.691-4.516z"/>
                    <path d="M291.582 232.9c-.062-.036 4.152-10.547 4.152-10.547l-6.211 9.343.157 2.316 1.903-1.111z"/>
                    <path d="M298.767 226.236c-2.662 2.627-6.899 6.528-9.256 9.344-.385-3.919-1.503-9.895-2.184-13.57 1.022 2.987 2.159 7.219 3.42 9.684 2.453-1.205 5.574-3.82 8.02-5.459z"/>
                    <path d="M291.637 233.775c-.073-.001-.49-11.23-.49-11.23l-1.919 11.191 1.1 1.942 1.309-1.903z"/>
                    <path d="M298.04 226.867c-2.517 2.627-6.535 6.528-8.744 9.344-.54-3.919-1.888-9.895-2.71-13.57 1.13 2.987 2.425 7.219 3.77 9.684 2.37-1.205 5.34-3.82 7.684-5.459z"/>
                    <path d="M290.473 234.668c-.067-.019 1.429-11.383 1.429-11.383l-3.644 10.762.689 2.214 1.526-1.592z"/>
                    <path d="M297.192 227.572c-2.335 2.871-6.084 7.159-8.093 10.192-.852-3.891-2.679-9.777-3.797-13.397 1.374 2.9 3.013 7.037 4.563 9.393 2.297-1.428 5.09-4.327 7.327-6.189z"/>
                    <path d="M290.752 236.011c-.069-.002-.756-11.416-.756-11.416l-1.537 11.339 1.096 1.99 1.196-1.912z"/>
                    <path d="M296.701 228.248c-2.219 3.007-5.798 7.514-7.682 10.667-1.033-3.864-3.139-9.68-4.428-13.258 1.515 2.841 3.351 6.91 5.017 9.195 2.247-1.556 4.926-4.616 7.093-6.604z"/>
                    <path d="M291.604 236.647c-.067-.021 1.265-11.426 1.265-11.426l-3.479 10.726.717 2.254 1.498-1.554z"/>
                    <path d="M296.612 229.002c-1.882 3.243-4.949 8.135-6.487 11.477-1.396-3.654-4.038-9.08-5.656-12.42 1.767 2.587 3.971 6.336 5.833 8.357 2.052-1.823 4.379-5.178 6.31-7.415z"/>
                    <path d="M291.029 237.925c-.068.018-3.372-10.891-3.372-10.891l1.119 11.474 1.528 1.621.725-2.204z"/>
                    <path d="M296.277 230.364c-1.989 3.243-5.225 8.135-6.86 11.477-1.397-3.654-4.059-9.08-5.69-12.42 1.795 2.587 4.026 6.336 5.926 8.357 2.146-1.823 4.598-5.178 6.624-7.415z"/>
                    <path d="M290.847 239.699c-.072 0-1.128-11.374-1.128-11.374l-1.242 11.374 1.193 1.95 1.177-1.95z"/>
                    <path d="M296.535 231.235c-2.037 3.184-5.347 7.98-7.031 11.274-1.345-3.706-3.931-9.23-5.515-12.629 1.759 2.65 3.938 6.479 5.809 8.567 2.174-1.756 4.676-5.038 6.736-7.212z"/>
                    <path d="M291.181 240.856c-.072.008-2.282-11.226-2.282-11.226l-.088 11.498 1.391 1.81.98-2.082z"/>
                    <path d="M296.045 233.019c-2.152 3.066-5.633 7.669-7.441 10.869-1.163-3.811-3.471-9.53-4.884-13.048 1.619 2.777 3.6 6.767 5.355 8.986 2.225-1.623 4.84-4.757 6.97-6.807z"/>
                    <path d="M290.075 242.373c-.069-.018 1.057-11.527 1.057-11.527l-3.35 10.944.785 2.222 1.507-1.639z"/>
                    <path d="M296.151 233.131c-1.844 3.301-4.862 8.291-6.348 11.679-1.552-3.601-4.444-8.93-6.217-12.21 1.903 2.523 4.292 6.192 6.276 8.147 2.063-1.889 4.364-5.319 6.289-7.617z"/>
                    <path d="M289.735 243.188c-.069.021-3.723-10.663-3.723-10.663l1.431 11.362 1.605 1.533.688-2.232z"/>
                    <path d="M295.67 234.093c-1.283 3.636-3.45 9.18-4.368 12.825-2.096-3.207-5.781-7.828-8.042-10.672 2.268 2.074 5.196 5.17 7.453 6.669 1.723-2.295 3.434-6.154 4.957-8.822z"/>
                    <path d="M292.918 243.752c-.069.024-4.053-10.456-4.053-10.456l1.76 11.233 1.661 1.465.631-2.242z"/>
                    <path d="M295.373 235.104c-1.283 3.636-3.45 9.18-4.368 12.825-2.096-3.207-5.781-7.828-8.042-10.672 2.268 2.074 5.196 5.17 7.453 6.669 1.723-2.295 3.434-6.154 4.957-8.822z"/>
                    <path d="M292.838 245.486c-.066.033-5.143-9.791-5.143-9.791l2.967 10.879 1.799 1.22.377-2.308z"/>
                    <path d="M294.88 236.039c-.838 3.775-2.324 9.559-2.8 13.293-2.458-2.893-6.658-6.971-9.236-9.483 2.494 1.747 5.762 4.418 8.176 5.597 1.433-2.506 2.669-6.56 3.86-9.408z"/>
                    <path d="M293.334 247.013c-.071.013-2.755-10.976-2.755-10.976l.424 11.403 1.455 1.701.876-2.129z"/>
                    <path d="M295.067 237.256c-.442 3.865-1.32 9.817-1.402 13.591-2.768-2.528-7.406-5.986-10.254-8.119 2.683 1.385 6.24 3.577 8.782 4.409 1.172-2.69 1.982-6.888 2.874-9.882z"/>
                    <path d="M293.612 248.341c-.055.052-7.425-7.969-7.425-7.969l5.599 9.678 2.043.645-.217-2.355z"/>
                    <path d="M295.368 238.842c-.442 3.884-1.32 9.86-1.402 13.661-2.768-2.606-7.406-6.19-10.254-8.399 2.683 1.453 6.24 3.738 8.782 4.631 1.172-2.684 1.982-6.895 2.874-9.893z"/>
                    <path d="M293.881 249.679c-.065.035-5.616-9.584-5.616-9.584l3.479 10.75 1.864 1.152.273-2.317z"/>
                    <path d="M295.256 240.39c-.316 3.906-.999 9.928-.96 13.724-2.845-2.397-7.588-5.633-10.5-7.629 2.723 1.253 6.345 3.273 8.911 3.978 1.082-2.762 1.755-7.02 2.549-10.074z"/>
                    <path d="M294.875 251.776c-.058.048-6.973-8.362-6.973-8.362l5.069 9.955 1.998.762-.094-2.355z"/>
                    <path d="M295.804 242.175c-.238 3.906-.8 9.928-.688 13.724-2.871-2.397-7.641-5.633-10.571-7.629 2.728 1.253 6.362 3.273 8.922 3.978 1.021-2.762 1.607-7.02 2.336-10.074z"/>
                    <path d="M295.23 253.398c-.067.029-4.835-10.185-4.835-10.185l2.62 11.156 1.763 1.336.452-2.308z"/>
                    <path d="M295.919 243.335c.14 3.918.16 9.987.641 13.75-3.102-2.006-8.187-4.595-11.309-6.194 2.849.886 6.679 2.415 9.307 2.778.754-2.884.927-7.2 1.361-10.336z"/>
                    <path d="M296.278 252.765c-.042.065-9.005-5.758-9.005-5.758l7.606 7.895 2.133.086-.735-2.223z"/>
                    <path d="M296.073 243.781c.344 3.9.68 9.944 1.355 13.681-3.205-1.927-8.422-4.392-11.626-5.913 2.894.818 6.801 2.255 9.447 2.557.604-2.889.553-7.192.823-10.325z"/>
                    <path d="M297.193 255.062c-.055.049-7.425-8.176-7.425-8.176l5.599 9.808 2.043.714-.217-2.345z"/>
                    <path d="M296.543 245.338c.499 3.891 1.078 9.934 1.899 13.643-3.256-1.745-8.528-3.91-11.767-5.248 2.902.651 6.835 1.862 9.471 2.01.481-2.934.256-7.246.397-10.405z"/>
                    <path d="M298.674 256.295c-.042.064-8.84-5.944-8.84-5.944l7.441 8.042 2.105.134-.706-2.232z"/>
                    <path d="M296.94 246.714c.781 3.816 1.796 9.76 2.886 13.365-3.385-1.433-8.817-3.097-12.155-4.127 2.951.379 6.974 1.22 9.623 1.124.27-2.956-.267-7.215-.355-10.363z"/>
                    <path d="M299.402 257.164c-.056.048-7.281-8.197-7.281-8.197l5.416 9.79 2.035.734-.17-2.327z"/>
                    <path d="M297.576 248.154c1.169 3.751 2.791 9.62 4.246 13.119-3.512-1.016-9.084-2.006-12.508-2.621 2.973.008 7.059.345 9.682-.087-.037-3.017-1.009-7.246-1.42-10.411z"/>
                    <path d="M300.398 257.626c-.015.077-10.331-2.084-10.331-2.084l9.826 4.61 1.984-.708-1.479-1.818z"/>
                    <path d="M297.931 249.252c1.121 3.751 2.669 9.62 4.075 13.119-3.46-1.016-8.955-2.006-12.332-2.621 2.937.008 6.97.345 9.565-.087-.009-3.017-.931-7.246-1.308-10.411z"/>
                    <path d="M301.809 258.81c-.031.069-9.782-4.519-9.782-4.519l8.772 6.811 2.103-.192-1.093-2.101z"/>
                    <path d="M297.508 249.998c1.938 3.426 4.771 8.83 6.928 11.95-3.585-.262-9.136-.069-12.549.042 2.849-.612 6.835-1.133 9.252-2.103-.693-2.944-2.547-6.879-3.631-9.889z"/>
                    <path d="M303.244 259.476c-.02.075-10.251-2.6-10.251-2.6l9.59 5.086 2.036-.603-1.375-1.884z"/>
                    <path d="M298.836 251.11c1.986 3.378 4.893 8.708 7.099 11.779-3.637-.21-9.264.059-12.725.218 2.885-.648 6.923-1.222 9.368-2.22-.721-2.916-2.625-6.8-3.743-9.778z"/>
                    <path d="M304.941 260.364c-.036.065-9.558-5.428-9.558-5.428l8.354 7.565 2.146.029-.942-2.166z"/>
                    <path d="M299.498 251.755c2.289 3.128 5.679 8.093 8.149 10.888-3.556.232-8.996 1.182-12.342 1.76 2.734-.996 6.598-2.058 8.868-3.35-1.01-2.821-3.273-6.464-4.676-9.298z"/>
                    <path d="M305.349 261.026c-.004.079-10.284-.228-10.284-.228l10.167 2.832 1.812-1.058-1.695-1.545z"/>
                    <path d="M311.568 213.907c.001-.031 7.439-1.21 7.439-1.21l-7.4.2-1.292.633 1.253.377z"/>
                    <path d="M315.783 215.434c-2.143-.602-5.38-1.613-7.582-2.051 2.358-.917 5.85-2.537 8-3.531-1.657 1.003-4.063 2.294-5.35 3.296 1.221.789 3.444 1.584 4.932 2.287z"/>
                    <path d="M311.447 213.936c-.008-.029 7.105-1.849 7.105-1.849l-7.377.877-1.103.726 1.375.245z"/>
                    <path d="M316.312 215.65c-2.488-.237-6.303-.711-8.759-.749 1.86-1.54 4.469-4.121 6.077-5.705-1.108 1.491-2.809 3.468-3.545 4.88 1.665.644 4.342 1.084 6.228 1.573z"/>
                    <path d="M308.427 214.894c.006-.031 7.524-.881 7.524-.881l-7.329-.13-1.372.577 1.177.433z"/>
                    <path d="M314.123 216.194c-2.29-.398-5.768-1.094-8.088-1.336 2.226-1.02 5.475-2.772 7.476-3.848-1.498 1.047-3.704 2.416-4.826 3.436 1.387.639 3.796 1.21 5.439 1.748z"/>
                    <path d="M307.995 214.448c-.019-.026 6.584-2.609 6.584-2.609l-7.206 1.754-.867.808 1.488.047z"/>
                    <path d="M314.079 217.061c-1.887-.722-4.779-1.949-6.647-2.45 1.447-1.309 3.486-3.597 4.742-5.001-.874 1.397-2.209 3.206-2.799 4.588 1.253 1.006 3.28 1.982 4.704 2.862z"/>
                    <path d="M307.95 214.934c-.014-.041 5.185-2.061 5.185-2.061l-5.652.701-.692.927 1.159.433z"/>
                    <path d="M304.01 260.43c.004.078-10.651.08-10.651.08l10.768 2.484 1.777-1.095-1.893-1.469z"/>
                    <path d="M305.996 260.651c-.013.073-10.783-2.312-10.783-2.312l10.355 4.721 2.029-.619-1.601-1.79z"/>
                    <path d="M307.779 261.297c0 .077-10.715-.436-10.715-.436l10.715 2.961 1.837-.99-1.837-1.535z"/>
                    <path d="M300.784 254.454c2.766 2.887 6.907 7.486 9.813 10.034-3.605.491-9.038 1.824-12.381 2.637 2.661-1.177 6.467-2.502 8.613-3.933-1.416-2.681-4.226-6.074-6.045-8.739z"/>
                    <path d="M309.235 262.254c-.02.071-10.745-3.344-10.745-3.344l10.085 5.675 2.121-.41-1.46-1.922z"/>
                    <path d="M301.809 255.166c3.02 2.608 7.572 6.793 10.692 9.042-3.473.906-8.642 2.872-11.823 4.075 2.474-1.493 6.053-3.266 7.996-4.958-1.678-2.553-4.796-5.668-6.866-8.159z"/>
                    <path d="M309.796 262.681c.016.078-10.088 1.893-10.088 1.893l10.632.671 1.5-1.406-2.044-1.159z"/>
                    <path d="M307.511 262.247c.009.077-10.545.718-10.545.718l10.856 1.807 1.677-1.188-1.987-1.338z"/>
                    <path d="M309.542 262.685c-.007.074-10.842-1.632-10.842-1.632l10.609 4.08 1.957-.752-1.724-1.696z"/>
                    <path d="M311.83 263.137c.006.077-10.773.224-10.773.224l10.968 2.302 1.765-1.103-1.959-1.422z"/>
                    <path d="M304.397 256.31c3.009 2.675 7.538 6.957 10.661 9.282-3.577.776-8.92 2.541-12.208 3.619 2.574-1.389 6.285-3.017 8.322-4.62-1.639-2.575-4.733-5.754-6.775-8.281z"/>
                    <path d="M313.269 263.309c-.014.072-10.969-2.498-10.969-2.498l10.503 4.869 2.077-.571-1.611-1.799z"/>
                    <path d="M305.484 256.837c3.245 2.367 8.16 6.186 11.471 8.188-3.367 1.165-8.321 3.514-11.369 4.952 2.319-1.673 5.71-3.71 7.483-5.541-1.906-2.414-5.295-5.277-7.585-7.599z"/>
                    <path d="M314.001 264.245c.022.077-9.982 2.531-9.982 2.531l10.72-.006 1.4-1.499-2.138-1.027z"/>
                </g>
                <g>
                    <path d="M340.529 238.85c0 10.991-9.179 19.902-20.501 19.902-11.322 0-20.501-8.91-20.501-19.902 0-10.991 9.179-19.902 20.501-19.902 11.322 0 20.501 8.91 20.501 19.902z" fill-rule="evenodd" fill="#3d25ca"/>
                    <path d="M332.305 250.772l-11.384-6.624-11.384 6.624 4.269-10.598-9.961-6.624h12.807l4.269-10.598 4.269 10.598h12.807l-9.961 6.624 4.269 10.598z" fill-rule="evenodd" fill="#ffd900"/>
                    <path d="M303.835 233.641l17.008 3.986" fill="none"/>
                    <path d="M320.844 223.011v14.616" fill="none"/>
                    <path d="M320.844 237.627v6.644" fill="none"/>
                    <path d="M320.844 237.627l7.087 2.658" fill="none"/>
                    <path d="M316.591 233.641l4.252 3.986" fill="none"/>
                    <path d="M320.844 237.627l4.252-3.986" fill="none"/>
                    <path d="M337.851 233.641l-17.007 3.986" fill="none"/>
                    <path d="M320.844 237.627l11.338 13.288" fill="none"/>
                    <path d="M320.844 237.627l-11.339 13.288" fill="none"/>
                    <path d="M313.756 240.285l7.087-2.658" fill="none"/>
                </g>
            </g>
            <g>
                <path d="M637.79 325.98c0 117.36-95.243 212.6-212.6 212.6s-212.6-95.243-212.6-212.6c0-117.35 95.244-212.6 212.6-212.6 117.35 0 212.6 95.244 212.6 212.6zm70.867 0c0 156.47-126.99 283.46-283.46 283.46s-283.46-126.99-283.46-283.46 126.99-283.46 283.46-283.46 283.46 126.99 283.46 283.46z" fill-rule="evenodd" transform="matrix(.198 0 0 .186 235.725 179.513)" stroke="#000" stroke-width="1.033pt" fill="#d60000"/>
                <path d="M362.475 249.149l3.701 1.285 6.143-1.044-.462 1.166-3.201.514c-.597.092-1.187.167-1.77.223.371.375.781.818 1.231 1.326l2.013 2.295-.442 1.116-3.891-4.638-3.701-1.285.38-.959z" fill="#ffe600"/>
                <path d="M373.276 236.259l.121 1.019-5.345.564c-.93.098-1.679.088-2.246-.029-.568-.118-1.051-.387-1.45-.81-.395-.419-.636-1-.724-1.742-.085-.722-.006-1.327.239-1.817.244-.49.637-.863 1.178-1.119.545-.256 1.307-.436 2.288-.539l5.345-.564.121 1.018-5.339.564c-.804.085-1.389.209-1.758.373-.364.165-.631.41-.802.732-.17.327-.229.708-.177 1.147.089.748.356 1.261.802 1.537.446.275 1.249.352 2.41.229l5.339-.564z" fill="#ffe600"/>
                <path d="M365.699 226.299l1.067-.205.701 3.221-3.376.648c-.578-.404-1.044-.846-1.397-1.326-.349-.481-.584-.997-.703-1.551-.161-.748-.118-1.464.131-2.15.253-.683.709-1.249 1.365-1.7.657-.45 1.432-.761 2.326-.933.885-.17 1.744-.174 2.576-.013.837.163 1.504.5 2.001 1.009.498.51.828 1.143.991 1.902.119.55.118 1.067-.002 1.551-.115.487-.335.894-.661 1.219-.326.326-.781.613-1.365.862l-.493-.851c.439-.203.772-.415 1-.635.228-.221.387-.503.476-.849.093-.345.099-.711.016-1.094-.099-.461-.27-.842-.512-1.145-.238-.304-.516-.534-.833-.689-.317-.151-.651-.253-1.003-.305-.604-.086-1.235-.065-1.893.061-.811.156-1.464.402-1.96.738-.495.341-.827.759-.996 1.257-.168.497-.199.996-.091 1.498.094.436.285.843.573 1.22.292.376.575.65.849.82l1.694-.325-.482-2.236z" fill="#ffe600"/>
                <path d="M326.532 198.168l1.593-8.583 1.072.175-1.405 7.57 3.994.651-.188 1.013-5.067-.825z" fill="#ffe600"/>
                <path d="M317.544 197.815v-8.737h5.962v1.031h-4.871v2.676h4.562v1.025h-4.562v2.974h5.062v1.031h-6.153z" fill="#ffe600"/>
                <path d="M291.949 203.379l1.034-.441c.485.859.674 1.661.567 2.403-.107.737-.488 1.366-1.142 1.888-.678.54-1.362.835-2.053.885-.69.045-1.399-.12-2.127-.494-.725-.376-1.377-.881-1.956-1.514-.632-.69-1.057-1.391-1.278-2.102-.22-.716-.221-1.39-.004-2.022.218-.638.605-1.178 1.159-1.619.63-.502 1.312-.754 2.05-.758.738-.004 1.471.233 2.2.71l-.633.856c-.587-.366-1.12-.548-1.598-.548-.479.001-.928.169-1.349.504-.483.385-.776.83-.879 1.334-.1.502-.026 1.012.22 1.53.243.515.566.991.965 1.428.516.564 1.044.995 1.584 1.295.541.293 1.07.413 1.59.36.519-.054.97-.234 1.353-.539.466-.372.731-.828.795-1.369.064-.541-.102-1.136-.498-1.785z" fill="#ffe600"/>
                <path d="M287.958 211.153l-6.939-5.859.73-.76 6.939 5.859-.73.76z" fill="#ffe600"/>
                <path d="M283.452 215.989l-7.401-5.345.663-.814 6.528 4.715 2.468-3.029.873.631-3.131 3.843z" fill="#ffe600"/>
                <path d="M269.569 221.159l.404-.952 4.989 1.871c.868.325 1.523.665 1.964 1.02.441.356.732.808.872 1.357.137.545.059 1.165-.235 1.858-.286.675-.659 1.174-1.12 1.498-.46.324-.993.479-1.597.465-.608-.015-1.369-.195-2.284-.538l-4.989-1.871.404-.952 4.983 1.869c.75.281 1.328.431 1.734.451.404.014.761-.083 1.073-.292.313-.213.556-.524.73-.933.297-.701.318-1.271.064-1.713-.255-.44-.924-.864-2.007-1.27l-4.983-1.869z" fill="#ffe600"/>
                <path d="M275.009 242.324l-9.303.051-.066-5.6 1.098-.006.054 4.576 2.849-.016-.05-4.285 1.091-.006.05 4.285 3.167-.017-.056-4.755 1.098-.006.068 5.779z" fill="#ffe600"/>
                <path d="M309.646 199l-1.85-8.583 2.778-.534c.627-.12 1.114-.171 1.462-.153.486.025.925.154 1.315.388.508.301.931.73 1.268 1.287.341.552.593 1.211.758 1.976.141.652.194 1.243.16 1.774-.035.531-.128.984-.28 1.359-.153.371-.343.678-.569.92-.224.238-.514.442-.871.612-.353.169-.773.301-1.261.395l-2.909.559zm.848-1.218l1.722-.331c.532-.102.937-.235 1.214-.398.282-.164.492-.359.631-.584.195-.318.313-.717.355-1.196.044-.484-.004-1.05-.143-1.698-.193-.898-.481-1.56-.863-1.987-.379-.431-.784-.691-1.216-.779-.311-.062-.784-.032-1.419.09l-1.694.325 1.414 6.557z" fill="#ffe600"/>
                <path d="M339.533 202.766l4.317-7.761 2.75 1.358c.484.239.84.446 1.067.621.323.24.555.51.697.81.144.296.2.641.166 1.033-.029.395-.151.785-.365 1.169-.367.66-.875 1.122-1.525 1.386-.648.26-1.487.136-2.518-.373l-1.869-.923-1.755 3.155-.965-.476zm3.23-3.595l1.885.931c.623.308 1.135.403 1.533.285.4-.118.724-.401.973-.849.181-.325.257-.64.229-.947-.023-.308-.14-.561-.351-.76-.137-.126-.424-.297-.862-.513l-1.864-.921-1.543 2.774z" fill="#ffe600"/>
                <path d="M344.689 205.162l8.581-4.533.876.74-3.702 8.653-.927-.783 1.166-2.583-2.572-2.172-2.559 1.407-.864-.73zm4.328-1.182l2.086 1.761 1.08-2.35c.328-.714.612-1.288.853-1.722-.478.352-.984.674-1.519.967l-2.5 1.344z" fill="#ffe600"/>
                <path d="M351.03 210.694l7.401-5.294 2.222 2.727c.447.548.719 1.013.817 1.395.101.38.053.775-.144 1.186-.198.411-.5.762-.907 1.054-.525.376-1.083.551-1.673.526-.59-.025-1.175-.298-1.753-.818.051.304.061.556.032.755-.069.426-.214.885-.434 1.379l-1.143 2.511-.834-1.024.877-1.915c.251-.555.431-.995.541-1.317.111-.322.162-.579.156-.769-.004-.188-.038-.358-.103-.51-.052-.109-.163-.269-.334-.479l-.769-.944-3.287 2.351-.663-.814zm4.798-2.143l1.425 1.749c.303.372.586.63.848.775.265.142.543.195.834.161.294-.038.561-.143.799-.313.35-.25.551-.562.604-.936.055-.371-.104-.785-.476-1.241l-1.586-1.946-2.449 1.751z" fill="#ffe600"/>
                <path d="M356.037 216.453l9.66-1.676.571.961-6.48 7.026-.604-1.016 1.992-2.078-1.676-2.82-2.9.552-.563-.947zm4.491.193l1.36 2.286 1.83-1.885c.556-.573 1.022-1.028 1.4-1.363-.572.187-1.161.338-1.767.451l-2.822.51z" fill="#ffe600"/>
                <path d="M364.245 239.183l8.919 3.882-.123 1.097-9.606 2.226.13-1.161 2.903-.618.362-3.22-2.707-1.126.122-1.082zm3.549 2.601l-.293 2.61 2.652-.547c.806-.168 1.466-.286 1.98-.354-.582-.158-1.155-.355-1.72-.592l-2.618-1.118z" fill="#ffe600"/>
                <path d="M276.522 250.199l-9.097 1.902-.788-3.353c-.158-.674-.196-1.204-.113-1.589.079-.385.3-.725.665-1.022.364-.296.797-.496 1.298-.601.645-.135 1.23-.075 1.755.18.524.254.932.733 1.222 1.433.091-.297.195-.529.311-.699.254-.36.592-.721 1.015-1.083l2.167-1.833.296 1.259-1.658 1.396c-.477.406-.839.735-1.084.985-.245.249-.408.462-.488.638-.081.172-.126.34-.136.504-.002.12.027.308.087.566l.273 1.16 4.04-.844.235 1.001zm-5.317.061l-.505-2.151c-.107-.457-.247-.804-.42-1.038-.176-.234-.404-.391-.684-.474-.284-.081-.573-.091-.866-.029-.43.09-.753.294-.969.614-.217.316-.259.754-.127 1.315l.562 2.393 3.01-.629z" fill="#ffe600"/>
                <path d="M275.295 234.598l-9.251-.771.275-2.904c.048-.512.115-.899.199-1.164.112-.372.287-.676.525-.915.235-.238.551-.418.948-.54.398-.126.826-.17 1.285-.131.787.066 1.434.33 1.941.791.503.462.703 1.238.6 2.327l-.187 1.975 3.761.313-.096 1.019zm-4.756-1.424l.188-1.991c.062-.658-.041-1.137-.309-1.439-.268-.302-.67-.474-1.204-.519-.387-.032-.725.023-1.014.164-.293.138-.496.336-.61.595-.071.168-.128.482-.172.944l-.186 1.969 3.307.276z" fill="#ffe600"/>
                <path d="M279.254 221.587l-7.761-4.831 1.709-2.41c.348-.491.706-.834 1.074-1.03.366-.201.773-.283 1.22-.245.445.033.845.161 1.202.383.332.207.592.475.779.806.187.332.264.703.23 1.117.413-.303.859-.455 1.338-.456.481-.004.947.135 1.399.416.363.226.657.501.88.826.221.319.35.625.387.917s-.001.608-.114.946c-.114.333-.316.704-.606 1.113l-1.738 2.45zm-3.897-3.651l.985-1.389c.267-.377.429-.666.485-.867.076-.264.062-.507-.041-.727-.101-.223-.288-.419-.56-.588-.258-.16-.52-.25-.786-.269-.27-.021-.508.042-.713.188-.209.144-.477.446-.804.907l-.911 1.284 2.345 1.46zm3.584 2.231l1.135-1.6c.195-.274.319-.475.373-.601.096-.222.142-.429.136-.622-.006-.193-.072-.39-.199-.592-.131-.203-.319-.382-.566-.536-.289-.18-.583-.275-.882-.284-.302-.011-.574.066-.814.233-.242.161-.507.446-.798.855l-1.053 1.485 2.668 1.661z" fill="#ffe600"/>
                <path d="M294.437 204.952l-2.257-8.976.994-.585 7.786 5.723-1.05.618-2.307-1.763-2.915 1.715.728 2.692-.979.576zm-.015-4.223l2.363-1.39-2.094-1.622c-.637-.492-1.143-.906-1.518-1.243.228.526.417 1.071.567 1.635l.682 2.621z" fill="#ffe600"/>
            </g>
        </g>
    </g>
</svg>
