<?xml version="1.0" encoding="UTF-8" standalone="no"?>
<svg
   width="640"
   height="480"
   fill-rule="evenodd"
   version="1.1"
   viewBox="0 0 180.61867 135.468"
   id="svg14698"
   sodipodi:docname="ru-che.svg"
   inkscape:version="1.2.2 (b0a84865, 2022-12-01)"
   xmlns:inkscape="http://www.inkscape.org/namespaces/inkscape"
   xmlns:sodipodi="http://sodipodi.sourceforge.net/DTD/sodipodi-0.dtd"
   xmlns="http://www.w3.org/2000/svg"
   xmlns:svg="http://www.w3.org/2000/svg">
  <sodipodi:namedview
     id="namedview14700"
     pagecolor="#ffffff"
     bordercolor="#666666"
     borderopacity="1.0"
     inkscape:showpageshadow="2"
     inkscape:pageopacity="0.0"
     inkscape:pagecheckerboard="0"
     inkscape:deskcolor="#d1d1d1"
     showgrid="false"
     inkscape:zoom="1.2479167"
     inkscape:cx="320.13356"
     inkscape:cy="240"
     inkscape:window-width="1440"
     inkscape:window-height="819"
     inkscape:window-x="0"
     inkscape:window-y="25"
     inkscape:window-maximized="0"
     inkscape:current-layer="svg14698" />
  <defs
     id="defs14640">
    <style
       type="text/css"
       id="style14638" />
  </defs>
  <g
     id="g14821"
     style="stroke-width:0.88387"
     transform="matrix(1.0666982,0,0,1.2,-0.00299507,3.7528801e-6)">
    <rect
       x="-2.4999999e-06"
       y="-3.1274001e-06"
       width="169.33"
       height="112.89"
       fill="#d61a0c"
       id="rect14668"
       style="stroke-width:0.736558" />
    <rect
       x="-2.4999999e-06"
       y="75.259003"
       width="169.33"
       height="18.815001"
       fill="#fecc00"
       id="rect14670"
       style="stroke-width:0.736558" />
  </g>
  <g
     transform="matrix(1.53336,0,0,1.53336,14.317635,-47.211596)"
     id="g14696"
     style="stroke-width:0.833333">
    <g
       fill-rule="nonzero"
       id="g14678"
       style="stroke-width:0.694444">
      <path
         d="m 54.481,44.862 c 0.0607,-0.05975 0.16772,-0.1214 0.26441,-0.13019 0.10275,-0.0095 0.23388,0.06236 0.30729,0.11664 0.72968,-0.3118 1.4654,-0.4863 2.2667,-0.5224 1.1404,-0.05096 3.0936,0.11569 4.1119,0.94788 0.81318,0.66423 1.0753,1.6679 0.84526,3.0385 0.16428,0.06486 0.29517,0.2852 0.23768,0.45339 -0.02067,0.06034 -0.09016,0.15014 -0.13601,0.19433 0.33841,0.7083 0.52395,1.3631 0.57194,2.1327 0.49746,0.1657 2.9205,0.86533 2.9205,1.6322 0.38984,0.34435 0.85108,0.95347 0.95121,1.8074 0.277,0.4155 0.32095,0.96273 0.4756,1.4269 0.05452,0.16344 0.11296,0.32071 0.19029,0.4756 0.21298,0.41218 0.32226,0.88136 0.04763,1.2366 0.26037,0.4294 0.46848,0.78468 0.46848,1.2707 0.0083,0.18245 0.06996,0.28187 0.14978,0.44151 0.27213,0.30159 0.52514,0.63192 0.80321,0.93826 0.43344,0.4775 0.89099,0.93612 1.2806,1.4326 0.80487,1.0253 1.6394,2.482 2.3153,3.5911 0.5869,0.96285 1.1865,1.2318 1.94,2.1791 1.4512,1.8241 2.3474,3.8848 3.0857,6.1804 0.27094,0.79228 0.50328,1.6089 0.70628,2.421 0.14777,0.59213 0.35884,1.2256 0.39911,1.8376 0.01235,0.18542 -0.0048,0.37393 0.0083,0.5995 0.04633,0.76805 0.32843,1.5869 0.63917,2.2717 -1.6865,-1.088 -1.8921,-2.2437 -2.3783,-4.0429 l -0.28532,0.57075 c -0.42322,-0.59415 -0.4781,-1.1214 -0.61838,-1.8549 l -0.14266,0.19017 c -0.33105,-0.50981 -0.33687,-0.98613 -0.4756,-1.522 -0.04763,0.09503 -0.04763,0.2378 -0.09514,0.38046 -0.82114,-0.80166 -0.88279,-2.3848 -1.0391,-3.5023 -0.13506,-0.96119 -0.33544,-2.0705 -0.89776,-2.736 0.63988,1.6664 0.87412,3.3448 0.79525,5.0968 l -0.23779,-0.09514 c 0.15264,0.61161 0.21108,1.3514 0,1.855 0.25396,0.76187 0.33996,1.7797 0.14278,2.5684 0.68419,1.1682 1.1402,2.422 1.5748,3.6969 0.24267,0.71103 0.37808,1.2334 0.72837,1.61 0.21749,0.23353 0.51825,0.41146 0.97865,0.54343 0.05333,1.4766 0.01069,2.3394 -0.12472,3.59 -0.14194,1.3122 -0.43914,2.72 -0.43474,4.0798 0.0012,0.41372 0.03801,0.82637 0.08612,1.2513 0.10916,0.96428 0.13933,1.8326 -0.0974,2.7797 -1.1392,0.2144 -2.037,1.0415 -2.3306,2.0452 h -5.6125 c 0.38925,-1.4155 1.6399,-2.3066 3.3294,-2.3781 0.06687,-0.38842 0.28924,-0.77078 0.57087,-1.1416 0.75498,-0.79489 1.5239,-2.0403 1.5696,-3.1867 0.07543,-1.0582 0.06925,-2.1966 -0.07697,-3.2606 -0.13339,-0.97152 -0.56089,-1.7874 -1.0616,-2.5898 -0.48784,-0.78183 -0.81497,-1.6638 -1.1446,-2.5209 -0.34019,-0.91795 -1.0885,-1.6982 -1.9025,-2.283 0.2283,1.1211 0.22094,1.8952 0.1189,2.8079 -0.06307,0.75462 -0.02708,1.4958 0.23519,2.2101 0.1113,0.30266 0.2163,0.57229 0.074,0.87994 -0.27356,0.68407 -0.66744,1.366 -1.0465,1.9977 -0.48214,0.8329 -0.96451,1.6662 -1.4096,2.4992 -0.81615,1.5348 -1.5745,3.3366 -1.9198,5.0635 -1.2034,0.44769 -2.479,0.88944 -3.1765,1.9025 h -5.29 c 0.32986,-1.3981 1.2979,-2.1274 2.6449,-2.3667 0.36704,-0.06521 0.73906,-0.10655 1.0651,-0.10655 0.79988,-0.20716 0.69583,-0.5129 0.9037,-0.9037 0.14491,-0.38117 0.63762,-0.72208 0.93529,-0.99884 0.4882,-0.4882 0.89051,-0.97223 1.241,-1.4727 0.75166,-1.0726 1.7391,-2.9635 2.0568,-4.2351 0.04941,-1.0989 -0.15656,-2.9362 -0.38046,-4.138 -0.31798,-1.0102 -1.4633,-2.651 -2.0148,-5.0182 -0.71139,-0.71329 -1.2958,-1.6044 -1.8781,-2.4201 -0.98233,0.48119 -2.5139,1.0755 -3.9552,0.87448 l 0.14266,0.42809 c -0.45256,0.06272 -0.91807,0.0721 -1.3793,0.04751 l 0.09514,0.14278 c -0.64701,0.30242 -1.7585,0.47442 -3.0917,0.19017 0.12698,0.12698 0.32772,0.22735 0.4756,0.33295 -0.90203,0.04454 -1.807,0.08671 -2.7111,0.04763 0.74108,2.3558 1.034,4.9998 0.28532,6.7065 0.40469,2.0422 0.29529,3.9616 0.36561,5.8801 0.01069,0.42358 0.38497,1.1676 0.5186,2.0843 0.11427,0.78361 0.0133,1.762 -0.21832,2.6899 l -0.04751,0.2378 c -1.1762,-0.33295 -2.6125,1.6982 -2.9724,1.9977 h -5.066 c 0.19932,-0.84918 0.52609,-1.3711 1.2216,-1.8304 0.54889,-0.36252 1.1739,-0.59795 1.8226,-0.69048 0.29696,0 0.41586,-0.33829 0.57075,-0.57075 0.29102,-0.58215 0.87661,-1.0123 1.4065,-1.3561 0.19825,-0.1284 0.39246,-0.26845 0.54367,-0.45126 0.23721,-0.93779 -0.08338,-2.827 -0.33295,-3.7576 -0.1714,-0.80071 -0.41704,-2.2335 -0.85618,-2.9965 -0.28638,-0.28626 -0.61066,-0.5477 -0.68953,-1.0326 -0.20146,-1.2393 -1.0327,-3.0399 -1.4134,-4.0273 -0.31537,0.83754 -0.57265,1.5456 -1.2265,2.1585 -0.20953,1.7733 -0.76436,2.3884 -1.2843,3.3295 -0.28828,0.5224 -0.31264,0.90857 -0.38105,1.3659 -0.18589,1.2426 -0.2846,2.4856 -0.2846,3.7424 3.57e-4,0.52454 0.0048,1.081 0.04739,1.5982 v 1.3318 c 0,0.14278 0.01307,0.33366 0,0.47572 -0.01318,0.14313 -0.14907,0.25645 -0.33295,0.33295 -1.2218,0.50827 -1.8209,1.3307 -2.5684,2.3781 h -5.4527 c 0.12793,-0.84074 0.52644,-1.6473 1.2856,-2.0815 0.51706,-0.29577 1.1372,-0.41384 1.7414,-0.53452 l 0.2378,-0.04751 c 0.25372,-0.12674 0.59617,-0.4522 0.64083,-0.77446 0.05143,-0.37321 0.27451,-0.65675 0.5331,-0.91106 0.21606,-0.21274 0.53143,-0.47204 0.81045,-0.71982 0.24398,-0.21666 0.58477,-0.50803 0.65069,-0.85535 0.1644,-0.86402 0.24089,-2.5099 0.32024,-3.2267 0.17794,-1.607 0.13446,-2.2569 -0.71982,-3.5961 0.20716,-1.3017 0.21785,-2.3267 -0.04751,-3.6567 -0.12888,0.11368 -0.33449,0.25538 -0.52324,0.32725 0.09384,-0.27902 0.02055,-0.89918 0,-1.189 -0.31822,0.234 -0.65295,0.41906 -0.99884,0.57075 0.21987,-0.38105 0.44104,-1.0221 0.42809,-1.5221 -0.37345,0.30634 -0.74869,0.47002 -1.1891,0.61838 0.6552,-0.69571 0.843,-1.2937 0.71353,-2.188 -0.11486,-0.57431 -0.25206,-1.0654 -0.53844,-1.5449 -0.48855,1.2281 -1.1578,2.0419 -1.7181,3.0677 -0.54236,0.99112 -1.0411,2.2739 -0.97794,3.3763 -0.2694,-0.4313 -0.61375,-0.97639 -0.71341,-1.4744 -0.18554,0.37167 -0.15394,1.1503 -0.19029,1.4269 -0.21714,-0.30004 -0.50803,-0.55733 -0.6659,-0.90382 -0.28745,0.99967 -0.98257,1.6732 -1.8549,1.9977 0.4003,-0.63537 0.75522,-1.419 0.61826,-2.1879 -0.18292,0.73229 -0.30206,1.2722 -0.9037,1.7599 -0.1461,-0.7646 -0.52644,-1.1923 -1.1891,-1.855 -1.2692,-1.0151 -2.7527,-2.5803 -3.1392,-4.0905 0,0.82542 0.04775,1.3162 0.2378,2.1403 -1.0908,-1.0908 -1.9977,-2.6441 -1.9977,-4.2332 -0.14646,0.51255 -0.17437,1.0161 -0.19029,1.5221 -0.52431,-0.72303 -0.91771,-2.3696 -0.71341,-3.377 -0.31418,0.42096 -0.56778,0.57883 -0.99884,0.76092 0.51029,-1.0454 0.67005,-1.8064 0.61838,-3.044 -0.22533,0.33354 -0.55543,0.63477 -0.8702,0.87958 0.27522,-1.1457 0.34898,-2.5003 0.39448,-3.6945 0.03623,-0.94598 0.11558,-1.8737 0.47572,-2.7976 -0.17508,0.11664 -0.32736,0.20704 -0.52324,0.28532 V 65.3771 c -0.27415,0.26263 -0.57455,0.50138 -0.9037,0.66589 0.09289,-0.21666 0.13589,-0.46206 0.2378,-0.66589 -0.32,0.37274 -0.71103,0.51908 -1.1891,0.61838 0.4775,-0.59676 0.66589,-1.3166 0.66589,-2.0928 0,-1.2932 -0.33687,-2.8572 0.42809,-3.9954 -0.46064,0.11391 -0.86438,0.40849 -1.2842,0.61838 -0.43261,0.32523 -0.81093,0.30872 -1.1891,-0.09514 -0.06972,-0.10453 -0.33295,-0.4642 -0.33295,-0.57075 -0.53226,0.05001 -0.92044,-0.05998 -1.1362,-0.57871 -0.25562,-0.61636 0.03825,-1.3137 0.44828,-1.8178 0.36407,-1.3662 1.4189,-1.7663 2.7392,-2.3226 0.63596,-0.26797 1.2378,-0.57229 1.8294,-0.92187 0.85036,-0.5015 1.7733,-1.3428 2.0293,-2.3234 0.1467,-0.56564 -0.06058,-1.0136 -0.3927,-1.4533 0.35658,0.10726 0.67908,0.24873 0.99884,0.4756 0.13921,-0.27843 -0.07804,-0.79157 -0.19017,-1.0464 0.35278,0.08742 0.94943,0.56065 1.189,1.094 0.14123,-0.20846 0.15097,-0.84122 0.14278,-1.0465 0.38521,0.5654 0.75854,1.1609 0.88909,1.788 0.29909,-0.35694 0.32297,-1.0872 0.39507,-1.5502 0.47085,0.46016 0.72719,1.0302 0.85618,1.6647 0.24612,-0.45351 0.3339,-0.74619 0.42809,-1.2366 0.23448,0.31252 0.52324,0.8316 0.52324,1.2366 0.23139,-0.23139 0.31347,-0.64903 0.38046,-0.95121 0.26346,0.3807 0.43403,0.92258 0.42809,1.4269 0.24683,-0.1562 0.48178,-0.33651 0.71341,-0.52324 v 0.80855 l 0.38058,-0.4756 c 0.11284,0.33889 0.15335,0.79097 0.09514,1.1415 l 0.28532,-0.19017 c 0.10073,0.34922 0.04811,0.60579 0,0.9037 l 0.19029,-0.04763 c 0.02269,0.26215 -0.0055,0.65295 -0.04763,0.95133 0.78242,0.1271 1.3567,0.89455 1.7013,1.5476 0.24529,0.46515 0.64784,1.4944 0.72445,2.1623 0.23424,0.70379 0.29577,1.7628 0.22189,2.2725 0.17592,0.85191 0.28603,1.6493 0.15869,2.4363 l -0.33295,-0.19029 c 0,0.42809 0,0.85618 -0.04763,1.2842 0.8873,-2.3995 1.7902,-4.2871 3.6624,-6.1832 0.94741,-0.95952 2.1535,-1.9567 3.3771,-2.5684 0.37452,-1.311 1.0453,-3.042 2.2171,-3.8102 0.07103,-0.86759 0.29921,-1.6906 0.57823,-2.3914 -0.19944,-0.14907 -0.22818,-0.32475 -0.06141,-0.53369 -0.2947,-0.61731 -0.38687,-1.22 -0.24944,-1.838 0.47275,-2.1206 3.0153,-2.7403 4.8337,-2.7257 1.0955,0.0095 2.2582,0.19385 3.5044,0.53464 z"
         id="path14672"
         style="stroke-width:0.833333" />
      <path
         d="m 33.86,54.294 c -0.09503,0.28532 -0.33295,0.6659 -0.80855,1.094 -0.52324,0.42797 -1.2842,0.28532 -1.2842,0.28532 1.1704,-0.10631 2.0454,-1.0902 2.0452,-2.188 l -0.18162,0.19029 c -0.13838,0.55412 -0.72208,0.93018 -1.2453,1.0465 0.94883,-0.59308 1.2539,-1.2602 1.1415,-2.0453 l -0.52312,0.52324 v -0.9037 c -0.17414,0.14325 -0.29197,0.26809 -0.46705,0.38046 -0.09004,0.54592 -0.19884,0.95133 -0.29399,1.1415 0.2378,-0.04751 0.42809,-0.04751 0.4756,0.04763 0.09515,0.14266 -0.19029,0.42809 -0.33295,0.61826 -0.19029,0.19029 -0.76104,0.99884 -1.2842,1.2368 -0.57087,0.2378 -1.1891,0.19017 -1.5221,0 0.77114,-0.04763 1.2908,-0.67694 1.8074,-1.1891 -0.72018,-0.04799 -1.4969,0.15394 -2.1403,0.4756 0.597,-0.6824 1.6284,-0.78717 2.4733,-0.61826 -0.32333,0.769 -0.90964,1.0606 -1.2842,1.2842 0,0 0.4756,-0.04751 0.99884,-0.4756 0.57075,-0.42809 0.6659,-0.95133 0.99884,-1.1891 0,0 -0.38058,0.04763 -0.85618,0 -0.42809,0 -1.2843,0 -1.7599,0.19029 -0.4756,0.14266 -0.95133,0.52324 -0.95133,0.52324 0.17853,-0.62491 0.84478,-0.75344 1.2757,-0.85618 0.44437,-0.88897 0.6299,-2.1925 0.0086,-3.0442 -0.08707,0.61802 -0.15881,0.87555 -0.52003,1.2368 0.18708,0.93565 -0.28044,1.8791 -1.002,2.4733 0.77719,-1.067 1.1482,-2.3325 0.2378,-3.8051 -0.0329,0.58572 -0.31264,0.92425 -0.28532,0.95121 0.05013,-1.19e-4 -0.3927,-0.83837 -0.76662,-1.2028 0.02625,0.23733 0.02851,0.51065 -0.08956,0.72719 0.19029,0.19029 0.52324,0.61826 0.66589,1.2842 0.2378,1.094 -0.57075,1.6647 -0.57075,1.6647 0.28543,-0.4756 0.42809,-1.0464 0.33295,-1.6171 -0.04751,-0.42809 -0.37001,-1.0076 -0.57075,-1.2366 -0.13719,-0.15644 -0.30171,-0.26465 -0.4756,-0.38058 0.51195,1.479 -0.96404,2.9009 -2.1097,3.5559 -0.59308,0.339 -1.222,0.61197 -1.7905,0.91522 -0.47572,0.19017 -0.90382,0.38046 -1.3318,0.61826 -0.80867,0.42809 -1.094,0.99884 -1.1891,1.2843 0.14266,-0.14278 0.38046,-0.33295 0.57075,-0.42809 0.33295,-0.19029 0.80855,-0.33295 0.99884,-0.28543 0.2378,0 0.2378,0.33295 0.04751,0.47572 -0.19017,0.14266 -0.61826,0 -1.0939,0.2378 -0.33295,0.14266 -0.71353,0.4756 -0.90382,0.66589 -0.19017,0.33295 -0.33295,0.80855 -0.19017,1.189 0.19017,0.47572 0.61826,0.47572 0.85606,0.42809 0.28543,-0.19029 1.0465,-0.66589 1.4746,-0.95121 0.57075,-0.38058 1.3318,-0.76104 1.4269,-0.80867 0.04751,0 0.14266,0.19029 0.19017,0.2378 0.04763,0.09515 0.28544,0.28543 0.14278,0.38058 -0.14278,0.14266 -0.42809,0 -0.61838,0 -0.19029,0 -0.42809,0.04751 -0.61838,0.14266 -0.16344,0.09799 -0.68668,0.4212 -1.044,0.64416 -0.49425,0.3086 -0.94266,0.46088 -0.33532,1.0682 0.09514,0.14266 0.33295,0.33295 0.80855,0 0.8721,-0.60888 1.7848,-0.89455 2.3783,-0.99884 -1.3529,1.3645 -1.1416,2.7154 -1.1416,4.6136 0,0.71353 -0.14266,1.2843 -0.28532,1.6172 0.33295,-0.2378 0.84561,-0.67979 0.89324,-2.0116 0.04751,-1.3793 0.39091,-3.601 1.2471,-4.1718 -0.99884,1.6172 -0.81604,3.4965 -0.91118,4.4478 -0.14266,0.99884 -0.37298,1.4977 -0.42061,1.5928 0.42382,-0.35647 0.6691,-0.86806 0.86117,-1.361 0.6229,-1.598 0.38117,-2.5114 1.1365,-3.8234 -0.67979,1.8074 0.0835,2.3784 -1.3318,4.9466 1.3051,-1.2138 1.97,-3.1531 1.9502,-4.9942 0.2378,0.80867 0.0091,1.9031 0.0091,1.9031 0.38521,-0.50186 0.61256,-1.4107 0.73776,-1.8458 l -0.22379,-0.34269 c 0.54117,0.39709 1.4405,0.42322 1.855,0.2378 -2.37e-4,0.01568 -0.42785,-0.07246 -0.80855,-0.42809 0.85606,0.19029 1.3751,-0.086 1.5654,-0.27617 -0.04751,0 -0.75688,0.03837 -1.3276,-0.43724 1.1445,0.36062 1.4448,-0.16535 1.5228,-0.2144 0,0 -0.76175,-0.02352 -1.2375,-0.54664 0,0 0.80867,0.38046 1.4269,0.33295 0.6659,-0.09515 0.99884,-0.47572 0.99884,-0.47572 0,0 -0.71341,0.28543 -1.6647,-0.2378 0.9935,0.36597 2.427,0.01817 2.8452,-0.99884 -0.55305,0 -1.1838,-0.13292 -1.6561,-0.42797 1.9029,0.33556 3.1989,-0.30135 3.1644,-2.1292 l -0.12033,0.03635 z m -3.4549,-0.45078 c 0.42809,-0.04751 0.65128,-0.03611 0.93672,-0.03611 0.24018,-0.81497 0.39863,-1.707 -0.0026,-2.5096 -0.1328,0.4427 -0.24481,0.66471 -0.5622,0.92876 -0.03373,0.49568 -0.10987,1.1849 -0.37191,1.617 z m 1.1444,-0.02494 c 0.17022,0 0.29399,-0.01069 0.45826,-0.01069 0.25051,-0.57396 0.40184,-1.6305 0.18756,-2.2243 -0.11843,0.31656 -0.19231,0.38236 -0.40814,0.59831 0.04787,0.42833 -0.05618,1.287 -0.23768,1.6372 z m 14.505,0.45102 c -0.13945,-0.67421 -0.18708,-1.4626 -0.15632,-2.158 -1.0186,0.85975 -1.6185,2.4348 -2.0061,3.6815 -1.2756,0.68157 -2.4625,1.5836 -3.4632,2.6276 -1.1262,1.1749 -1.8688,2.3721 -2.4305,3.3886 -0.73016,1.4268 -1.7247,4.3763 -1.9502,6.7066 l -0.57075,-0.09514 c 0.94004,-1.8814 0.90797,-5.8134 0.95133,-5.8028 l 0.34886,0.20609 c 0,-1.8549 -0.58679,-2.727 -0.58679,-2.727 0.16404,0.13767 0.32273,0.22747 0.40172,0.44924 0.02245,-0.94301 -0.19777,-1.7722 -0.68704,-2.5896 0.12389,0.03849 0.32998,0.30765 0.38046,0.38046 -0.06141,-0.58703 -0.34138,-1.2698 -0.6678,-1.8435 -0.33817,-0.59439 -0.75783,-1.2697 -1.4864,-1.3908 -0.25028,0.78373 -0.66174,1.3952 -1.6984,1.5221 l 0.33295,0.09514 c 0,0 -0.42809,0.99884 -1.094,1.2366 0,0 -0.4522,0.68003 -1.2132,0.82281 0,0 -0.30883,0.31869 -0.54664,0.41384 h 0.4756 c 0,0 -0.32867,0.65164 -1.2324,0.69915 l 0.38058,0.19029 c 0,0 -0.76532,0.64178 -1.8118,0.2612 0,0 -0.38046,1.7031 -0.99884,2.1788 0,0 -0.38046,1.3318 -1.1415,2.1879 -0.28543,0.76104 -0.66589,1.9977 -0.66589,3.3771 0,1.3793 -0.14266,2.3306 -0.2378,2.9014 0.22972,-0.22972 0.36514,-0.4844 0.52324,-0.76104 0.33437,1.0374 0.25966,1.9713 -0.09514,2.9965 0.51884,-0.57075 0.97782,-1.5052 1.0896,-2.7275 0.13565,1.2072 -0.30254,1.8638 -0.39531,2.5848 -0.09515,0.9037 0.01912,1.8074 0.20941,2.3781 0.09514,-0.61826 0.33295,-1.5696 0.80855,-2.283 -0.39531,1.845 -0.03706,3.5946 1.094,5.1369 -0.14266,-0.99884 0.14266,-2.4258 0.52324,-2.8539 -0.50079,2.2836 1.3654,3.934 2.9489,5.5174 0.52466,0.41978 1.0212,0.97057 1.2366,1.6171 0.26168,-0.39222 0.42797,-0.94206 0.49247,-1.4173 0.08006,-0.58833 -0.20027,-1.4383 0.22106,-1.9597 0,0 -0.2378,0.99884 0.14266,1.7122 0.38046,0.76104 0.14266,1.3794 -0.09514,1.9502 1.0112,-0.82138 1.2142,-1.8123 1.0465,-3.044 0.24659,0.52252 0.18031,1.3693 0.61826,1.8074 -0.03017,-0.71388 0.47204,-1.3947 0.6659,-2.0928 0.0019,0.66031 -0.12021,1.2581 0.2378,1.855 0.13375,-0.80261 0.59997,-1.8053 0.99658,-2.4761 1.296,-2.1921 2.5748,-3.6585 2.0476,-6.3708 0.66589,1.5696 0,3.1868 0,3.1868 0,0 0.42809,0.4756 0.66589,1.7599 0.14266,0.6659 0,1.189 -0.14278,1.5696 0.14278,-0.09514 1.3794,-1.2366 1.0465,-4.6137 0.52312,3.1392 -0.42809,4.2808 -0.42809,4.2808 0.04751,0.38046 -0.04751,0.99884 -0.14266,1.3318 0,0 0.99884,-0.57075 1.2366,-1.5696 0,0.71341 -0.57075,1.3793 -0.57075,1.3793 0.05036,0.33318 0.09229,0.6419 0.09503,0.9271 0.09514,-0.09515 0.66589,-0.68929 0.99884,-2.1162 -0.14266,1.4746 -0.57075,1.9502 -0.57075,1.9502 0.52324,1.189 0.19029,3.5196 0.09514,3.9002 0.91866,1.2486 0.90144,2.2881 0.73408,3.6435 -0.03409,0.46361 -0.07709,1.0093 -0.12603,1.5351 -0.09324,1.0047 -0.20823,1.9383 -0.32261,2.0985 -0.09515,0.19029 -0.33295,0.38058 -0.6659,0.66589 -0.2378,0.19029 -0.47572,0.42809 -0.76104,0.71353 -0.33295,0.33295 -0.38046,0.52312 -0.42809,0.76104 -0.11023,0.44128 -0.45446,0.79988 -0.83326,1.0323 -0.49782,0.30468 -1.2928,0.68145 -1.5623,1.0281 -0.28543,0.38046 -0.39543,0.88101 -0.4054,1.0788 h 3.9901 c 0.33295,-0.57075 0.9037,-1.1891 1.3793,-1.6172 0.38058,-0.33295 0.71353,-0.52312 0.95133,-0.61826 0.19017,-0.09515 0.38046,-0.19029 0.38046,-0.28543 0.04763,-0.09515 0.04763,-0.76104 0,-1.5221 0,-0.52312 0,-1.1415 -0.04751,-1.8074 0,-1.9025 0.33295,-3.9002 0.42809,-4.471 0.04751,-0.42809 0.28532,-0.80855 0.57075,-1.3318 0.56695,-0.75617 0.90346,-1.867 0.99884,-2.8062 0.68146,-0.61707 1.1259,-1.8028 1.3413,-2.6453 1.4393,-1.6359 1.3487,-4.5599 0.65639,-6.4869 0.43653,0.66661 0.67017,1.6271 0.73229,2.5487 0.28781,-1.1859 0.34981,-2.619 0.02875,-3.6903 0.15026,0.17734 0.23887,0.34578 0.32546,0.61802 0.66055,-2.1977 -0.33782,-4.2126 -0.63168,-4.851 0.74251,1.1419 1.5758,2.8251 0.78183,5.2794 0.07317,1.0989 -0.0569,2.2085 -0.42809,3.377 1.6647,0.76104 4.4235,0.71353 5.4698,0.6659 -0.15204,-0.15204 -0.2865,-0.35801 -0.42809,-0.52324 1.0926,0.24279 2.225,0.41871 3.3295,0.14278 l -0.61826,-0.61838 c 0.61399,0.23804 1.3503,0.34269 2.0452,0.28543 L 57.9751,76.2683 c 1.356,0.22961 3.016,-0.22771 4.2203,-0.83837 -1.9215,-3.29 -2.1939,-7.2506 -1.5208,-11.057 -1.1305,0.50316 -2.5304,0.55186 -3.8478,0.30634 -1.826,-0.34007 -3.6528,-0.09799 -5.4179,0.41514 -2.746,0.79834 -5.4791,-0.29434 -6.1808,-3.0325 -0.63691,-2.4846 -0.03005,-5.3808 0.82649,-7.7931 z m 6.1985,36.078 c -0.05737,-1.8789 0.02055,-3.8898 -0.33877,-5.746 -0.24196,-1.2491 -0.62907,-2.4726 -1.1689,-3.6241 0,0 0.93244,1.4072 1.3129,3.072 0.28543,-0.85618 0.25681,-1.5975 0.25681,-2.0256 -0.09515,-0.52324 -0.33295,-1.3793 -0.90382,-2.0928 0.37666,0.2631 0.72422,0.55733 0.87044,1.0112 -0.10488,-1.2842 -0.46895,-2.5399 -0.65912,-3.2058 -1.1416,-0.04763 -2.2926,-0.2378 -3.2915,-0.66589 -0.02067,-2.38e-4 -0.0133,1.6812 -1.2005,3.1935 0.2378,0.52324 0.57075,1.3318 0.9037,2.1405 0.42809,0.99884 0.57075,1.7598 0.6659,2.1879 0,0.41574 0.4193,0.60508 0.61838,0.9037 0.28532,0.33295 0.61826,1.5221 1.0464,3.6624 0.38046,1.9027 0.33295,2.9965 0.19029,3.3771 -0.09515,0.2378 -0.38058,0.38046 -0.6659,0.57075 -0.57514,0.34494 -1.0774,0.82257 -1.3794,1.4269 -0.1442,0.19207 -0.3333,0.52312 -0.61826,0.52312 -1.1891,0.61838 -1.6647,1.5697 -1.8075,2.0453 h 3.5674 c 0.63216,-0.69119 1.5924,-2.0267 2.9014,-2.0928 0.22355,-0.93363 0.32071,-1.8951 0.2087,-2.5664 -0.12246,-0.73384 -0.42239,-1.288 -0.50851,-2.0948 z m 24.89,-6.5638 c -0.19029,0 -0.52324,-0.14266 -0.85618,-0.42809 -0.33295,-0.28532 -0.58405,-0.95121 -0.86937,-1.8074 -0.32534,-1.3016 -0.97045,-2.6113 -1.5831,-3.7781 0.2631,-1.4604 -0.06604,-2.773 -0.82934,-3.6419 0.4756,0.28543 0.80855,0.683 0.80855,0.683 0.01069,-1.1056 -0.23852,-2.0467 -0.95133,-2.7282 0.34352,0.20965 0.72398,0.52205 1.0347,0.97853 0.08125,-2.7573 -0.71293,-4.5569 -0.98874,-5.2236 -0.2542,-0.21476 -0.45506,-0.36716 -0.6963,-0.53773 0.52716,1.2513 0.73883,3.0518 0.10619,4.3339 l -0.10845,-0.14124 c 0.19029,1.4269 -0.07673,2.3874 -0.11605,2.4138 l -0.10857,-0.20656 c 0.09503,0.9037 -0.40695,1.7599 -0.40695,1.7599 L 71.4354,75.36466 c 0.09502,0.76104 -0.23792,1.5221 -0.23792,1.5221 l -0.09503,-0.19029 c -0.09514,0.99884 -0.76104,2.4734 -0.99884,2.949 1.3786,0.8664 1.9091,1.7984 2.2128,2.4984 0.37321,0.86082 0.56125,1.7682 1.1642,2.5434 0.33295,0.4756 0.9037,1.6172 1.0464,2.6161 0.14278,0.9037 0.14278,1.9025 0.04763,3.4721 -0.04763,1.3793 -1.2366,2.8062 -1.6647,3.2818 -0.22022,0.34684 -0.43973,0.70937 -0.46349,1.1332 -1.0895,0.28235 -1.9559,0.83255 -2.4694,1.911 h 4.3122 c 0.61838,-1.5696 1.9025,-1.9502 2.3306,-1.9977 0.19029,-0.85618 0.09515,-1.7124 0.04763,-2.5684 -0.04763,-0.42809 -0.09514,-0.85618 -0.09514,-1.2366 0,-1.094 0.2378,-2.8539 0.42809,-4.1381 0.09419,-1.1318 0.14266,-2.2401 0.14266,-3.377 z M 62.95,51.4065 c 0.0083,0.39958 -0.02031,0.73324 -0.08315,1.1326 1.559,2.9589 1.4228,7.5013 -0.51896,10.391 -0.39056,0.5812 -0.83718,0.9543 -1.3743,1.2575 -0.88291,4.7012 -0.30646,9.7158 3.102,13.364 -0.48142,-2.0383 -1.2967,-4.9461 -1.2967,-4.9461 1.094,2.5686 1.6171,5.7077 2.5208,7.8957 0.33295,0.80855 1.094,2.2355 1.1891,2.5684 0,0 0.52324,3.2343 0.33295,4.2332 -0.19029,0.95121 -1.1415,3.1392 -2.0928,4.3758 -0.76104,1.0464 -1.5696,1.7599 -1.9501,2.0928 -0.38842,0.58251 -0.30337,1.2073 -1.2843,1.3318 -0.09515,0 -0.2378,0.04751 -0.33295,0.04751 -1.4744,0.42809 -1.9578,1.5696 -2.1481,1.9502 h 3.8128 c 0.28543,-0.42809 1.0465,-1.1891 3.1392,-1.855 0.14278,-0.4756 0.66589,-2.7587 1.9502,-5.0417 0.52324,-0.99884 1.0464,-1.855 1.4269,-2.5684 0.61826,-0.99884 0.99884,-1.7124 1.0464,-1.9502 0,-0.14266 -0.04751,-0.33295 -0.14266,-0.61826 -0.14266,-0.47572 -0.33295,-1.2368 -0.2378,-2.2831 0.14551,-1.1286 0.0036,-2.0324 -0.14278,-3.044 0.53678,-0.86486 1.1713,-3.1602 0.99884,-4.1381 l 0.25918,0.61292 c 0.13351,-0.6305 0.09598,-1.2124 -0.02126,-1.8019 l 0.35373,0.59653 c 0.26156,-0.41871 0.35112,-1.7675 0.21702,-2.5467 l 0.24505,0.73146 c 0.16273,-0.51575 0.15739,-1.9636 -0.24505,-2.7291 0.24814,0.20597 0.41158,0.4699 0.51694,0.71068 0.5287,-1.5412 0.12864,-3.0813 -0.61209,-4.7536 l 1.7122,1.3318 c 0.66589,0.71341 1.0771,1.7661 1.3109,3.2818 0.15168,0.98316 0.12959,2.0567 0.63929,2.949 0,-0.14266 0.33295,-1.094 0.33295,-1.094 0,0.28543 0.19029,1.9025 0.38046,2.3306 0,0 0.33295,-0.71341 0.33295,-0.71341 v 0.76092 c 0.04763,0.28543 0.14278,1.094 0.38058,1.5697 0.13256,-0.2985 0.26999,-0.57134 0.42809,-0.85618 0.28722,1.4212 0.54913,2.9914 1.6647,4.0905 -0.19029,-0.52324 -0.38058,-1.2843 -0.33295,-2.0928 0,-0.14266 -0.23792,-1.5221 -1.094,-4.1857 -0.9037,-2.7587 -1.9502,-4.8039 -3.1393,-6.1832 -0.59653,-0.65616 -1.5051,-1.3457 -1.9025,-2.1405 -0.28532,-0.4756 -1.4744,-2.5684 -2.2355,-3.4721 -0.69606,-0.79549 -1.4589,-1.5806 -2.0928,-2.4258 -0.19017,-0.2378 -0.23923,-0.52336 -0.2378,-0.76104 0.0012,-0.20728 -0.40053,-1.2231 -0.80855,-1.5696 0.15691,-0.0784 0.38972,0.10429 0.4756,0.19029 0.18162,-0.54509 -0.21904,-1.1489 -0.76104,-1.2843 0,0 0.04763,-0.14266 0.42809,0 -0.27605,-0.82839 -0.23091,-1.59 -1.1415,-2.0452 0,0 0.2378,-0.14266 0.57075,0.14266 -0.14254,-0.6185 -0.66494,-1.3299 -1.2842,-1.5696 0,0 0.09503,-0.04751 0.33295,-0.04751 -0.18613,-0.18613 -0.78183,-0.66803 -2.5876,-1.2223 z"
         fill="#c1c1c1"
         id="path14674"
         style="stroke-width:0.578704" />
      <path
         d="m 63.738,76.185 c -0.45078,-1.7662 -0.95881,-3.5786 -0.95881,-3.5786 l -0.1752,-0.91403 c 0,0 1.8399,4.2435 2.8388,6.9071 0.95121,2.6636 1.8549,4.1381 1.8549,4.1381 -0.38046,1.189 -0.14266,3.1867 -0.14266,3.1867 0.61838,-1.2366 2.1403,-2.1879 2.1403,-2.1879 0.0011,-0.74013 0.16451,-1.3431 0.19029,-2.0928 0.04751,-0.85618 -0.09515,-1.855 -0.09515,-2.1403 0.7039,-1.6002 1.12,-3.2605 0.9037,-5.2796 0.27736,0.31252 0.49948,0.70913 0.66589,1.1891 0.01318,-0.9429 -0.3573,-2.158 -0.42809,-2.1405 0.1322,0.0759 0.22379,0.14242 0.35397,0.36561 0.4756,-2.4258 -0.25883,-3.9804 -0.25883,-3.9804 0.52324,0.28532 0.85618,0.66589 0.85618,0.66589 0.38046,-2.9014 -1.2366,-5.3747 -1.2366,-5.3747 l 0.57075,0.14266 c -0.2378,-0.61838 -1.2843,-2.0928 -1.7599,-2.7587 -0.4756,-0.66589 -1.3793,-1.6647 -1.8549,-2.4733 -0.5205,-0.98316 -0.39305,-2.1576 -1.2406,-2.9507 0.17556,-0.0024 0.35124,0.03029 0.52704,0.09681 0.04763,-0.76104 -0.79311,-1.5423 -0.79311,-1.5423 0.15513,-0.03849 0.38735,0.01354 0.5167,0.07792 -0.09253,-0.82174 -0.45933,-1.4041 -0.96024,-1.6748 l 0.57075,-0.04763 c -0.2378,-0.85606 -1.2842,-1.2842 -1.2842,-1.2842 l 0.33295,-0.19029 c -0.40232,-0.13411 -1.1114,-0.31513 -1.4952,-0.41039 0.7254,1.4767 1.5846,3.7098 1.5427,5.9278 -0.04751,2.3781 -1.2366,4.8514 -1.9502,5.565 -0.66589,0.71341 -1.4268,1.1891 -1.7122,1.5221 -0.28543,0.28532 -0.42809,2.0927 -0.42809,2.0927 l 0.38058,-1.3318 c -0.02352,-1.19e-4 -0.10774,1.855 -0.28543,2.9015 l 0.28543,-0.66589 c 0.14266,1.0939 0.04751,2.4733 0.09503,3.3294 l 0.19029,-0.95121 c 0,0 0.28543,0.52324 0.28543,0.9037 0.04751,0.38046 0.2378,1.9502 0.6659,3.2343 l 0.04751,-0.99884 c 0,0 0.31335,1.2984 1.2442,2.7224 z m -29.596,-21.08 -0.01057,-0.0012 -4.75e-4,0.0012 0.01105,3.57e-4 z m -1.056,26.259 c 0.01164,-0.06307 0.02138,-0.1252 0.0297,-0.18625 0.03742,-0.27474 -0.0036,-0.60674 -0.0152,-0.93553 -0.05761,-0.77957 0.23412,-0.99848 0.42643,-1.4046 0,0 -0.04751,1.0939 0.04763,1.3793 0.14266,0.33295 0.28532,0.95121 0.28532,0.95121 0.42809,-0.71341 0.57087,-2.0452 0.90382,-2.9014 0.38046,-0.85606 1.1415,-1.6171 1.1415,-1.6171 -1.1415,1.8074 -0.85618,4.0429 -0.85618,4.0429 0.14266,-0.52312 0.71353,-1.3793 0.71353,-1.3793 0.14266,-1.4269 1.8549,-3.8051 2.283,-4.6613 0.42809,-0.9037 0.66589,-2.3783 0.66589,-2.3783 l 0.52324,0.47572 c 0.05013,0.55721 0.13078,1.1075 0.04751,1.6647 l 0.14278,0.4756 c -0.09313,0.26904 -0.09182,0.5388 -0.04763,0.80855 l 0.19029,-0.52312 0.23555,0.57467 c -0.19029,0.61826 -0.04751,0.9037 -0.04751,0.9037 0.04751,-0.33295 0.19017,-0.57075 0.19017,-0.57075 l 0.19255,0.70949 c -0.14266,0.42809 -0.19029,1.2366 -0.19029,1.2366 0.33295,-0.42809 0.61838,-1.6647 0.66589,-2.1403 -0.002,0.09811 -0.0056,0.19338 -0.01093,0.28674 0.03362,-0.4939 0.02768,-1.0618 -0.03659,-1.7137 0.12555,0.75356 0.1663,1.3913 0.15549,1.9265 0.12817,1.3123 -0.07792,2.9247 -0.15549,2.925 0.222,-0.18304 0.46848,-0.4838 0.65105,-0.75023 0.0053,-0.01936 0.01021,-0.0386 0.01485,-0.05832 l -4.75e-4,0.03718 c 0.05488,-0.08089 0.10322,-0.1581 0.14313,-0.22747 0.04751,0.85618 -0.33295,1.7599 -0.33295,1.7599 0.25752,-0.31952 0.58061,-0.98601 0.71056,-1.3697 l 4.75e-4,5.94e-4 0.0024,-0.01069 -0.0012,0.01212 0.19148,0.27332 -0.38046,1.4744 0.28532,-0.42809 0.04763,0.57075 c -0.19029,0.33295 -0.28543,0.95133 -0.28543,0.95133 l 0.33295,-0.61838 0.04763,0.38058 -0.23792,0.80855 0.28543,-0.33295 c 0.2378,2.4258 -0.04751,2.9014 -0.04751,2.9014 0,0 0.4756,0.57075 0.57075,1.4269 0.09515,0.85618 -0.28543,3.8527 -0.38058,5.1369 -0.09514,1.2843 -0.95121,1.4269 -1.6647,2.0928 -0.76092,0.71341 -0.9037,1.3793 -0.9037,1.3793 h 0.38058 c 0.38046,-1.2366 1.4744,-1.5696 1.4744,-1.5696 -0.80855,0.52324 -1.1415,1.6172 -1.1415,1.6172 l 0.57075,0.04751 c 0.38046,-0.99884 1.3318,-1.189 1.3318,-1.189 -0.76104,0.38046 -1.094,1.2366 -1.094,1.2366 0.57075,0.2378 0.95121,0.09515 1.5221,-0.2378 0.57075,-0.38058 0.42797,-1.2843 0.38046,-2.5684 -0.04751,-1.2843 0.04751,-3.71 0.19029,-4.4711 0.14266,-0.76104 -0.09515,-0.95121 -0.09515,-1.094 0,-0.19017 0.09515,-0.33295 0.4756,-1.2366 0.38058,-0.9037 0.4756,-2.9965 0.4756,-2.9965 0.52324,2.1405 -0.28532,3.4722 -0.28532,3.4722 1.2842,-1.5221 0.85618,-3.4246 0.85618,-3.4246 2.0452,-1.9502 1.2366,-4.043 1.2366,-4.043 0.19017,1.9027 -0.52324,2.6636 -0.52324,2.6636 -0.19029,-2.2355 -1.5221,-3.6624 -1.5221,-3.6624 1.0465,2.2356 0.04763,4.2332 0.04763,4.2332 0,0 0.14266,-1.5696 -0.76104,-2.8062 -0.95133,-1.2366 -1.4744,-2.7587 -1.6172,-3.6148 -0.14266,-0.85618 0,-1.6647 0,-1.6647 -1.9025,-0.33295 -1.6647,-2.9965 -1.6647,-2.9965 -0.33295,0.33295 -0.76092,0.99884 -0.76092,0.99884 -0.71353,-1.5221 -0.04763,-4.6137 -0.04763,-4.6137 l -0.42809,0.28543 c -0.04751,-1.6172 0.95133,-4.043 0.95133,-4.043 -0.33295,0.23792 -0.80855,0.57087 -0.80855,0.57087 0.38046,-1.9502 2.4257,-4.804 2.4257,-4.804 -1.8493,1.9081 -2.8834,4.2149 -3.4041,5.7012 -0.40564,1.1584 -0.62325,2.4048 -1.0554,3.5486 -0.55436,1.4665 -1.8178,1.2886 -2.4077,-0.07804 -0.29232,-0.6773 -0.26976,-1.4569 -0.31489,-2.1799 0.14266,0.04763 0.42132,0.24493 0.42132,0.24493 -0.09514,-0.28532 -0.33996,-0.91736 -0.33996,-0.91736 0.14278,0.04763 0.44175,0.19682 0.44175,0.19682 -0.09503,-0.33295 -0.38046,-0.95798 -0.38046,-0.95798 0.33295,0.09515 0.52324,0.19694 0.52324,0.19694 -0.19029,-0.4756 -0.42809,-0.85618 -0.42809,-0.85618 0.22426,0.0071 0.52324,0.18898 0.52324,0.18898 -0.14278,-0.42809 -0.47572,-0.99753 -0.47572,-0.99753 0.19029,0.04763 0.57075,0.33295 0.57075,0.33295 -0.28532,-1.3318 -1.1415,-2.3781 -1.1415,-2.3781 0.57075,0.2378 1.0465,0.85606 1.0465,0.85606 0.04751,-0.2378 -0.04763,-0.76092 -0.04763,-0.76092 0.19029,0.14266 0.52324,0.38046 0.52324,0.38046 -0.14266,-0.38046 -0.95133,-1.3318 -0.95133,-1.3318 0.28543,0.14266 0.80867,0.42809 0.80867,0.42809 -0.19029,-0.42809 -0.47572,-0.52324 -0.47572,-0.52324 0.19029,-0.99884 -0.71341,-1.6647 -0.71341,-1.6647 0.61826,0.09515 1.1415,0.4756 1.1415,0.4756 -0.14266,-0.28532 -0.52324,-0.61826 -0.52324,-0.61826 0.04763,-0.99884 -0.76092,-1.3793 -0.76092,-1.3793 0.76092,0.04751 1.2842,0.33295 1.2842,0.33295 -0.52324,-0.57087 -1.094,-0.76104 -1.094,-0.76104 l -0.76104,0.4756 -0.2378,0.19029 c -0.61826,0.9037 -2.4733,2.5208 -4.0429,3.9477 -1.6172,1.5221 -2.3783,3.5198 -2.9014,5.232 -0.52324,1.7124 -0.19029,4.3759 -0.19029,4.3759 l 0.42809,-1.2366 c 0.33295,1.1415 0.09514,2.1879 -0.04763,2.9014 -0.09503,0.71341 -0.04751,1.7122 -0.04751,1.7122 0.42809,-1.2843 1.2366,-2.3306 1.2366,-2.3306 0.04763,0.6659 -0.28532,1.0464 -0.33295,2.5684 -0.04751,1.5221 0.57075,2.7112 0.57075,2.7112 0.28544,-1.855 1.2366,-2.9015 1.2366,-2.9015 -0.76092,3.1393 1.1891,5.0418 2.5209,6.1833 1.3318,1.1415 1.3794,1.7122 1.3794,1.7122 0.15038,-0.11272 0.24148,-0.28543 0.32,-0.47002 z m 7.763,-2.0646 c 0.08944,-0.11985 0.17283,-0.25218 0.24208,-0.39721 l -0.0017,-0.0012 c -0.06842,0.14242 -0.15085,0.27546 -0.24042,0.39852 z m -3.2469,17.375 h 2.9536 c 0.14563,-0.26702 0.63335,-0.87471 0.90833,-1.068 0,0 -1.5534,-0.27486 -2.3736,-0.08137 -0.9018,0.21286 -1.3873,0.50768 -1.4883,1.1493 z m 13.999,-16.933 c 0,0 -0.09514,-0.80867 -0.28532,-1.1891 0,0 -1.9502,-0.09515 -2.4258,-0.2378 0,0 -0.09515,1.3793 -0.38058,2.0928 0,0 0.33295,1.7598 0.52324,2.4733 0.2378,0.71341 1.1415,2.7111 1.5221,3.5673 0.38046,0.85618 0.76104,2.949 0.80855,4.471 0.04751,1.4744 0,2.1403 0,2.1403 l 0.09515,0.38058 c 0,0 -0.76104,0.09515 -1.4269,0.57075 -0.66589,0.52324 -0.97057,1.0524 -0.97057,1.0524 l 0.56529,-0.02886 c 0,0 0.88089,-1.0711 1.6419,-1.2614 0,0 -0.96665,0.8316 -1.1568,1.2597 l 0.82388,0.09324 c 0,0 0.28543,-0.30658 0.42809,-0.40172 0.19029,-0.09503 0.57075,-0.14266 0.66589,-0.2378 0.09514,-0.04751 0.42809,-0.95121 0.33295,-1.7599 -0.04751,-0.80855 -0.4756,-1.7598 -0.61838,-2.1403 -0.09503,-0.42809 -0.04751,-1.6647 -0.14266,-2.7111 -0.14266,-1.0465 -0.28532,-2.2355 -0.2378,-2.9965 0.04751,-0.71353 -0.04751,-1.9502 -0.33295,-2.7112 -0.28543,-0.76092 -0.99884,-1.7598 -0.99884,-1.7598 l 0.28544,-0.09515 c 0,0 0.95121,0.71341 1.2842,1.4744 0,0 -0.04751,-1.5221 -1.4269,-3.044 h 0.38058 c 0,0 0.57075,0.28532 1.0464,0.99884 z m -4.7528,16.933 h 2.3602 c 0.26607,-0.43462 1.1814,-1.163 1.2227,-1.1382 0,0 -0.70367,-0.11997 -1.4759,-0.06878 -0.85678,0.0569 -1.6812,0.26096 -2.1071,1.2069 z m 13.6,-23.021 c -0.76104,0.71341 -2.4258,0.76104 -2.4258,0.76104 l 0.04751,0.2378 c -0.66589,0.38046 -1.7599,0.14266 -1.7599,0.14266 l 0.04763,0.19029 c -0.4756,0.52324 -2.2355,0.42809 -2.2355,0.42809 -0.61838,0.52312 -2.0453,0.09515 -2.0453,0.09515 l 0.04763,0.28532 c -1.4256,0.68989 -2.9844,-0.31014 -3.3871,-0.63513 -0.02922,0.21808 -0.06664,0.43748 -0.11296,0.65877 1.0334,0.36074 2.2634,0.45197 2.2634,0.45197 l 2.1879,0.80867 -0.89942,-0.78183 1.6013,-0.07436 2.152,0.4756 -0.96059,-0.61826 1.0152,-0.09515 1.6576,0.42809 -0.63121,-0.57657 0.73122,-0.13898 1.3168,0.25277 -0.74358,-0.48166 0.7595,-0.19136 1.2308,0.2321 -0.68668,-0.40137 c 0.76104,-0.28532 1.4002,-0.4073 1.4002,-0.4073 l -0.57074,-1.0464 z M 47.8443,69.658 c 0,0 0.52324,0.95121 0.42809,2.0452 0,0 -0.4756,-0.76104 -0.71341,-1.1415 0,0 0.19017,-0.61838 0.28532,-0.9037 z m -0.42809,1.3793 c 0.0259,-0.01283 0.7785,1.0854 0.71353,1.9025 0,0 -0.33295,-0.61826 -0.66589,-1.0464 0,0 0.28532,0.9069 0.38046,1.4777 0,0 -0.61826,-1.0972 -1.1415,-1.2399 0.08208,-1.18e-4 0.71139,1.2365 0.61838,1.9502 -0.21333,-0.73764 -0.6678,-1.7602 -1.0569,-2.3226 0.33853,0.19397 0.98874,0.07246 1.152,-0.7216 z m -0.28532,5.3272 c 0,0 -0.80855,-2.5208 -1.9502,-3.044 0,0 1.4269,3.1868 1.1416,4.9942 0,0 -0.80867,-1.8074 -1.5221,-2.2355 0,0 0.99884,1.9025 0.71341,3.5673 0,0 -1.094,-2.7587 -2.5208,-3.71 0,0 0.52312,0.99884 0.76092,1.9502 0.23792,0.95133 0.33295,1.8074 0.28544,2.188 0,0 -0.4756,-1.4746 -1.1891,-2.4258 -0.71341,-0.99884 -1.3318,-2.7587 -0.95121,-4.1857 0,0 1.3793,-0.14266 1.6647,-1.5696 0.06497,0.2593 0.38212,1.0941 1.1701,0.85618 0.67682,-0.20454 0.82756,-0.71353 0.97022,-1.094 -0.04062,0 1.5058,1.4743 1.4269,4.7088 z m 23.689,20.31 h 3.0967 c 0.14266,-0.50245 0.43724,-0.81889 0.80083,-1.1891 -1.5735,-0.25503 -3.0105,0.0702 -3.8975,1.1891 z m 4.944,-13.128 c 0,0 0.71341,0.71341 0.80855,0.9037 0.04751,0.14266 -0.2378,2.1403 -0.28543,2.4733 l -0.99884,-0.76104 c 0,0 0.47572,1.2843 0.57075,2.6161 0.09514,1.3318 0.19029,2.9014 0.19029,3.7099 0.04763,0.76104 0.14266,2.0928 -0.52324,2.3306 -0.6659,0.2378 -1.8074,-0.04751 -1.8074,-0.04751 0,0 1.2843,-1.9025 1.3318,-3.7099 0.09514,-1.8075 -0.09515,-4.3759 -0.4756,-5.6601 0,0 0.71341,0.14266 1.094,0.52312 0,0 0.28532,-1.094 0.09515,-2.3781 z m -3.0917,-8.3712 c 0,0 0.2378,0.85606 0.38046,1.189 0.19029,0.38058 0.2378,1.3318 0.61838,2.3783 0.38046,1.0464 1.2842,3.3295 1.2366,3.9002 0,0.61826 -0.52324,1.9501 -0.52324,1.9501 0,0 -0.66589,-0.76104 -1.0464,-1.7122 -0.38058,-0.9037 -1.094,-2.0928 -1.3318,-2.4733 -0.28543,-0.38058 -0.28543,-1.6172 -0.04763,-2.4734 0.2378,-0.9037 0.71353,-2.7586 0.71353,-2.7586 z m -13.113,-9.7522 c -0.88754,-0.14646 -1.9952,-0.11082 -2.8686,-0.0936 -1.9027,0.03765 -4.8039,1.2366 -7.42,0.85618 -2.7111,-0.38058 -4.7088,-2.3783 -4.6613,-4.804 0,-1.4558 0.23353,-2.3977 0.45719,-3.1338 0.17354,-1.3728 0.54782,-2.739 0.98768,-3.9778 -0.03433,-0.16606 -0.06331,-0.339 -0.08671,-0.51587 -0.215,0.10286 -0.42964,0.28698 -0.64463,0.58809 -0.95133,1.2366 -0.76104,1.9025 -0.76104,1.9025 0,0 -0.47572,0.28543 -0.52324,0.9037 0,0 -1.2366,0 -2.6636,2.0928 -1.4269,1.9977 -1.6647,3.4721 -1.6647,3.4721 l 0.9037,-0.33295 c 0,0 -1.1415,1.9502 -1.2842,3.7576 l 0.76104,-0.38046 c 0,0 -0.85618,2.5209 -0.61838,4.5185 0,0 0.71341,-0.80855 0.9037,-0.9037 0,0 -0.42809,3.1393 1.094,3.2343 1.5696,0.14278 1.9977,-1.3793 2.1403,-1.9025 0.07234,0.41728 0.41906,1.6818 1.0749,1.3593 0.72552,-0.3567 0.73253,-1.3117 0.73253,-1.3117 0,0 0.42809,0.85606 1.0465,0.61826 0.61826,-0.28532 1.3793,-1.7599 0.99884,-4.3283 0.55091,0.66352 1.0607,1.648 1.3599,2.6966 0.33508,0.97437 0.45517,2.183 -0.02815,3.677 0.02067,0.3105 0.02494,0.62147 0.01223,0.93482 0.32416,0.41823 1.0711,1.247 2.3184,1.158 0,0 -0.6659,-0.28544 -0.95133,-0.61838 0,0 0.85618,0.04751 1.2366,-0.04751 0,0 0.85618,0.42797 1.6647,0.33295 l -0.99884,-0.42809 0.76104,-0.19029 c 0,0 1.4269,0.61838 2.3783,0.33295 l -1.7124,-0.57075 1.3318,-0.33295 c 0,0 1.1891,0.66589 2.2831,0.57075 0,0 -1.3794,-0.52324 -1.8075,-0.76104 l 1.094,-0.28532 c 0,0 1.4269,0.57075 2.3783,0.19017 l -1.9025,-0.42809 0.71341,-0.42797 c 0,0 1.4744,0.14266 2.0928,-0.14278 l -1.5696,-0.09515 0.38046,-0.42797 c 0,0 0.85618,0 1.4744,-0.33295 l -1.189,-0.04763 c 0,0 0.2378,-0.42809 0.28532,-0.66589 0,0 0.57075,-0.04751 0.95133,-0.19029 l -0.85618,-0.14266 c 0.27664,-1.791 0.38402,-3.5698 0.39531,-5.3762 z m 17.156,10.751 c -0.14824,-0.80974 -0.18388,-1.6042 -5.93e-4,-2.4799 -0.44021,0.26821 -0.54129,0.68336 -0.6653,0.95786 -0.16926,-0.93232 -0.26405,-1.8511 -0.21702,-2.7885 -0.32487,0.3238 -0.48499,0.80451 -0.59154,1.2189 0,0 -0.14266,-1.1891 -0.33295,-1.9977 -0.19029,-0.80867 -0.38058,-1.6647 -0.99884,-3.0917 0,0 2.7587,4.138 3.377,7.1822 0,0 -0.33295,0.52312 -0.57075,0.99884 z m -9.37,13.413 c -1.6172,2.3783 -2.7112,4.3759 -2.7112,4.3759 0,0 0.95133,-0.95133 1.3318,-1.4746 0,0 -0.38046,0.99884 -0.42797,1.2843 -0.09514,0.28532 0.09503,0.95121 -0.33295,1.094 -0.47572,0.19017 -1.3318,-0.19029 -1.7599,-0.61838 0,0 1.3793,-1.1415 2.1403,-2.6159 0.71341,-1.4746 1.9025,-3.7576 1.9025,-3.7576 v 0.9037 c 0,0 0.9037,-1.4269 1.0465,-1.9977 0.14266,-0.57075 -0.04763,-1.094 -0.52324,-0.71341 -0.4756,0.33295 -0.42809,-0.33295 -0.09515,-0.6659 0.66589,-0.66589 1.6171,-0.80867 1.6171,-0.80867 0,0 0.23792,0.61838 0.33295,0.80867 0,0 -0.9037,1.7598 -2.5208,4.1855 z m -5.0418,7.087 h -2.4346 c 0,0 0.1897,-0.78931 1.3882,-1.0852 1.2281,-0.3029 2.0312,-0.08671 2.3781,0.03884 -0.43249,0.12187 -1.2007,0.74619 -1.3318,1.0464 z m 15.268,-20.548 c 0,0 0.38046,1.094 0.42809,1.9977 0,0 -0.42809,-0.66589 -0.42809,-1.9977 z m -44.364,-21.152 c 0.37785,-0.39935 0.6052,-0.92888 0.60508,-1.4885 l -0.18162,0.19029 c -0.06212,0.24885 -0.21381,0.46147 -0.40956,0.63109 -0.01283,0.02043 -0.0272,0.0348 -0.0272,0.0348 l 0.0013,-0.01283 -0.02898,0.0234 c -0.33687,0.42394 -0.82839,0.46503 -0.82839,0.46503 0.52312,0.09514 0.80855,-0.09502 0.80855,-0.09502 -0.4756,0.52312 -1.2366,0.4756 -1.2366,0.4756 -0.12056,0.15014 -0.26584,0.29173 -0.42809,0.42809 0.72065,-0.06782 1.3319,-0.3415 1.7256,-0.652 z m 0.32891,-2.2255 -0.0093,-0.07151 -0.1461,0.1461 c -0.08612,0.54592 -0.27759,1.1053 -0.70996,1.4711 0.61292,-0.35029 0.84656,-0.93387 0.86533,-1.5457 z m -0.53238,0.35658 v -0.80855 c -0.07056,0.05797 -0.13137,0.11308 -0.191,0.16546 -0.02423,0.65295 -0.12532,1.0712 -0.14194,1.0712 0.09514,-0.09514 0.2378,-0.2378 0.33295,-0.42809 z m -3.4246,2.6161 c 0.3219,-0.01984 0.60033,-0.14159 0.85262,-0.31335 -0.34494,0.14539 -0.74025,0.2182 -1.2807,0.2182 0,0 0.4756,-0.14278 0.85618,-0.33295 0.42809,-0.19029 0.6659,-0.47572 0.95121,-0.57075 0,0 -0.2378,-0.09515 -1.0464,0.2378 -0.76104,0.33295 -0.85618,0.52312 -0.85618,0.52312 -0.10156,-0.13494 -0.22284,-0.24374 -0.32879,-0.32297 0.27118,-0.27926 0.69939,-0.4604 1.0483,-0.56612 0.58002,-0.30468 1.3139,-0.33081 1.9441,-0.20478 -0.32333,0.769 -0.90964,1.0606 -1.2842,1.2842 0,0 0.4756,-0.04751 0.99884,-0.4756 0.57075,-0.42809 0.66589,-0.95133 0.99884,-1.1891 0,0 -0.38058,0.04763 -0.85618,0 -0.42809,0 -1.2843,0 -1.7599,0.19029 -0.4756,0.14266 -0.95133,0.52324 -0.95133,0.52324 0.05915,-0.20692 0.17224,-0.35932 0.31204,-0.47454 0.06331,-0.1031 0.191,-0.26631 0.35385,-0.42928 0.33295,-0.28532 0.95133,-0.61826 0.71353,-2.1403 0,0 -0.26536,0.61981 -0.5831,1.0053 -0.0664,0.71543 -0.4737,1.3873 -1.0341,1.8486 -0.10203,0.07768 -0.21238,0.13945 -0.33295,0.19029 l -0.19017,-0.23792 c 0.70331,-0.7905 0.80142,-2.2091 0.29185,-3.202 -0.08279,-0.1442 -0.18649,-0.30966 -0.29612,-0.46242 0.03148,0.27439 0.0043,0.54878 -0.03944,0.82292 0.12995,0.21737 0.25503,0.49841 0.32903,0.84383 0.17853,0.82162 -0.23281,1.3482 -0.44888,1.5594 -0.0095,0.02186 -0.01853,0.04122 -0.02673,0.05785 -0.14266,0.2378 -0.28544,0.42809 -0.38058,0.57075 0,0 -0.19017,0.99884 -0.99884,1.2843 -0.76092,0.2378 -1.6646,0.04751 -2.3781,0.33295 -0.66589,0.28532 -3.4721,1.7122 -3.6148,2.283 -0.19029,0.57075 0.33295,0.57075 0.57075,0.52324 0.28532,-0.09514 0.80855,-0.4756 1.2842,-0.76104 0.45945,-0.22972 1.0964,-0.54818 1.3964,-0.48404 l 0.07816,-0.0392 c 0.04751,0 0.14266,0.19029 0.19017,0.2378 0.04763,0.09514 0.28543,0.28543 0.14278,0.38058 -0.13054,0.13042 -0.3801,0.02209 -0.56742,0.0024 -0.10298,0.012 -0.26738,0.0645 -0.43142,0.18768 -0.42358,0.21179 -1.338,0.83872 -1.499,1.0739 -0.05108,0.0746 -0.0086,0.20324 0.01509,0.28342 0.03278,0.11154 0.06759,0.2112 0.15216,0.21226 0.09503,0.0012 0.37416,-0.13494 0.66589,-0.28543 0.2833,-0.1461 0.8645,-0.45589 1.2366,-0.57978 0.30586,-0.10192 0.85927,-0.09063 0.97663,-0.05333 0.01604,0.0048 0.02875,0.01485 0.02851,0.03314 -0.0019,0.07554 -0.20561,0.30717 -0.29173,0.69512 -0.09514,0.38046 -0.38046,1.5221 -0.42809,2.8062 0,0 0.28543,-1.3318 0.52324,-2.2355 0.2378,-0.85618 0.42809,-1.2842 1.0464,-1.4269 0,0 -0.38046,0.80867 -0.52312,1.3318 -0.14278,0.57075 -0.19029,1.2843 -0.19029,1.2843 0,0 0.61838,-2.0453 0.95133,-2.7112 l 0.38046,-0.09503 c 0,0 -0.52324,0.95121 -0.80855,1.9025 -0.28543,0.99884 -0.28543,1.3793 -0.42809,2.1879 0,0 0.38046,-1.189 0.71341,-2.3781 0.28543,-1.1415 0.76104,-1.8074 0.76104,-1.8074 l 0.04751,0.19017 c 0,0 -0.09503,0.23792 -0.2378,1.094 -0.09514,0.9037 -0.2378,1.9025 -0.57075,3.0442 0,0 0.57075,-0.99884 0.6659,-1.9502 0.09514,-0.95121 0.2378,-2.0928 0.2378,-2.0928 0,0 0.09514,0.09515 0.2378,0.2378 0.09515,0.19029 0.19029,0.57087 0.19029,0.85618 0.04502,0.35979 -0.03742,0.8468 -0.20739,1.3412 -0.01129,0.10833 -0.02376,0.20264 -0.0354,0.27807 0.24184,-0.27605 0.60448,-0.98672 0.29042,-2.3326 0.42797,0.28532 1.0464,0.57075 1.6647,0.66589 l -8.31e-4,5.94e-4 c 0.13898,-0.01663 0.26334,-0.04633 0.3624,-0.08754 -0.97996,-0.13838 -1.782,-0.63418 -2.5972,-1.2925 l 0.47572,-0.19017 c 0,0 1.3793,1.3318 2.5208,0.85606 0,0 -0.61826,0.2378 -2.4257,-0.9037 0,0 0.42797,-0.19029 0.71341,-0.38046 0,0 1.1434,0.78705 2.0654,0.61126 0.07364,-0.01366 0.1505,-0.03338 0.21844,-0.06462 0,0 -0.27878,-0.0095 -0.60448,-0.13173 -0.34091,-0.05797 -0.8816,-0.20264 -1.5842,-0.51005 0,0 0.2378,-0.19029 0.38046,-0.38046 0.77696,0.38842 1.6476,0.69939 2.5258,0.6552 0.31394,-0.14325 0.47074,-0.32238 0.47074,-0.32238 0,0 -0.40576,0.16214 -1.0136,0.01734 -0.64558,-0.06486 -1.2861,-0.28365 -1.8878,-0.49295 l 0.2378,-0.28532 c 0.0101,0.01342 2.8695,1.0471 3.6615,-0.48071 -0.32285,-0.01663 -0.66233,-0.07768 -0.97532,-0.1878 -0.38284,-0.03516 -1.5647,-0.32344 -2.3994,-0.04906 0.09514,-0.33295 0.14135,-0.80451 0.14135,-0.80451 0.17414,0 0.34958,-0.03421 0.52324,-0.04751 z m 2.1944,0.75094 c 1.2897,-0.01473 2.1364,-0.63751 2.2028,-1.971 -0.0569,0.18863 -0.14373,0.41467 -0.20347,0.5268 -0.87234,1.6362 -3.3375,1.1688 -3.3375,1.1688 0.56267,0.16083 0.98981,0.24719 1.3382,0.27534 z m -10.518,0.39056 c 0.25146,-0.14373 0.58453,-0.26025 0.81437,-0.28828 0.19219,-0.09503 0.57004,-0.23638 1.0882,-0.37761 0.38058,-0.09515 1.0959,-0.32879 1.8074,-0.61838 0.69072,-0.28116 1.5909,-0.5761 2.089,-0.96321 0.95311,-0.74037 1.1694,-2.1569 0.43189,-3.1273 0,0 0.09515,0.95133 -0.38046,1.6647 -0.22296,0.33437 -0.53298,0.66898 -0.93019,1.0034 -0.53975,0.45506 -1.2703,0.90548 -1.9237,1.2322 -1.1415,0.57075 -1.855,0.71341 -2.8539,1.3793 -0.04751,0.04751 -0.09514,0.04751 -0.14266,0.09514 z m 10.938,-5.2745 c -0.06521,0.17354 -0.11688,0.2713 -0.18708,0.3605 0.04276,1.1678 -0.14408,1.7748 -0.14408,1.7748 0.37096,-0.64903 0.36918,-1.4902 0.33116,-2.1354 z m -0.66435,0.25598 c -0.03908,-0.18518 -0.10085,-0.36822 -0.18993,-0.5464 -0.01544,0.05143 -0.03017,0.10013 -0.04549,0.14598 0.15846,1.2486 -0.3156,2.1845 -0.33508,2.1846 0.50019,-0.54557 0.56576,-1.2648 0.57051,-1.7842 z"
         fill="#ffffff"
         id="path14676"
         style="stroke-width:0.578704" />
    </g>
    <g
       id="g14686"
       style="stroke-width:0.833333">
      <path
         d="m 54.122,47.393 c -0.09123,-0.24303 0.17675,-0.53013 0.42667,-0.45209 -0.03682,-0.59581 -0.08244,-1.1914 -0.13672,-1.7861 -1.2181,-0.33271 -2.3742,-0.53535 -3.4379,-0.54414 -1.5456,-0.01235 -4.1352,0.60722 -4.5551,2.4899 -0.11926,0.53583 -0.02471,1.101 0.23246,1.648 2.3309,-0.85915 4.9664,-1.2663 7.4706,-1.3555 z m 1.1107,9.6264 c -0.0721,0.09158 -0.20918,0.18186 -0.33449,0.17604 -0.08232,-0.0036 -0.20217,-0.07899 -0.2618,-0.12734 -1.2132,0.65105 -2.5532,1.0398 -3.9294,1.0369 -1.9293,-0.0048 -3.3997,-0.75249 -4.2134,-2.5348 -0.1094,-0.23947 -0.23614,-0.58025 -0.31394,-0.83849 -0.73657,2.2267 -1.2377,4.9316 -0.7007,7.1713 0.62194,2.5935 3.2089,3.7102 5.8382,2.9456 1.8142,-0.52751 3.6922,-0.79584 5.569,-0.44615 1.9948,0.37179 4.0246,0.1132 5.2467,-1.6511 1.8273,-2.6388 1.9196,-7.082 0.66578,-9.7223 -0.03148,0.13446 -0.10156,0.37024 -0.14064,0.50316 -0.69856,2.369 -1.9917,3.8186 -4.8733,3.8404 -0.76508,0.0059 -1.6005,-0.09598 -2.5519,-0.35302 z m -0.6071,-8.5228 c -0.25728,0.17105 -0.57526,-0.11783 -0.51623,-0.37797 -2.5227,0.08184 -4.9759,0.45019 -7.363,1.3547 h -1.18e-4 c -0.68728,1.6673 -0.84122,4.1509 -0.0095,5.9715 0.7595,1.6644 2.1877,2.3774 3.9905,2.3767 1.3217,-8.31e-4 2.6522,-0.37903 3.8161,-1.0072 v -0.0095 c 0.12995,-2.7666 0.18827,-5.5401 0.08279,-8.3081 z m 1.1826,-0.39626 c 0.07115,0.23887 -0.18922,0.51231 -0.43415,0.43367 0.10204,2.7322 0.04644,5.4698 -0.08018,8.2001 0.93672,0.25313 1.7758,0.36276 2.52,0.35373 1.4818,-0.01782 2.9241,-0.5603 3.7521,-1.8203 v -0.0012 l 0.0012,-0.0024 5.94e-4,3.57e-4 c 0.32166,-0.48986 0.63121,-1.1357 0.84003,-1.8724 0.41491,-1.4657 0.34756,-3.0228 -0.3219,-4.3832 -0.60211,-0.20597 -1.2339,-0.35445 -1.8627,-0.49235 -1.4718,-0.32321 -2.9243,-0.40647 -4.4153,-0.41609 z m -0.50981,-1.1239 c 0.26156,-0.16843 0.58845,0.13553 0.5078,0.39947 1.5221,0.0177 3.0705,0.12306 4.5579,0.40861 0.55186,0.10595 1.1062,0.25883 1.6419,0.43272 0.19397,-1.2213 -0.04549,-2.137 -0.74869,-2.7111 -0.95477,-0.7785 -2.878,-0.93244 -3.9236,-0.8854 -0.75902,0.03433 -1.4878,0.18768 -2.1774,0.48083 0.05702,0.62408 0.10429,1.2495 0.14206,1.8749 z"
         fill="#e08600"
         fill-rule="nonzero"
         id="path14680"
         style="stroke-width:0.694444" />
      <path
         d="m 46.687,49.259 c 0.62099,-0.234 1.3574,-0.46872 2.0045,-0.64 1.8572,-0.49188 3.6934,-0.68229 5.5912,-0.72932 l 0.16832,-0.15216 -0.13886,-0.12555 c -1.903,0.05963 -3.8482,0.31929 -5.6772,0.80416 -0.65366,0.1733 -1.4065,0.35694 -2.0324,0.59213 -0.05987,0.02245 -0.12603,0.09087 -0.09657,0.17342 0.02886,0.0816 0.12211,0.09966 0.18102,0.07733 z m 8.9384,-1.3829 c 1.5676,0.0048 3.099,0.08125 4.6438,0.40707 0.58025,0.12211 1.2724,0.30444 1.8572,0.50281 0.08968,0.02934 0.1543,-0.02209 0.17081,-0.08956 0.01651,-0.06735 -0.0152,-0.15014 -0.11724,-0.18423 -0.58987,-0.19789 -1.2806,-0.36716 -1.8591,-0.48891 -1.5243,-0.32119 -3.1307,-0.41538 -4.6954,-0.42465 l -0.15347,0.13874 0.15335,0.13874 z m -0.56089,8.9659 0.0012,-0.01782 h 1.19e-4 c 0.13256,-2.827 0.18886,-5.6442 0.07519,-8.4628 l -0.1796,-0.16238 -0.12092,0.1094 c 0.11664,2.8337 0.0601,5.666 -0.07329,8.5078 h -2.38e-4 l -1.19e-4,0.01663 c 0.0059,0.08909 0.07471,0.13636 0.14515,0.13874 0.07032,0.0024 0.14194,-0.03991 0.1524,-0.12959 z m 0.01794,-9.6755 c -0.0392,-0.67658 -0.08873,-1.3533 -0.15038,-2.0302 -0.01853,-0.20561 -0.31584,-0.18269 -0.29767,0.01746 0.05939,0.65318 0.10809,1.3061 0.14658,1.959 l 0.18055,0.16321 0.12092,-0.1094 z m -0.56327,1.1307 0.27546,-0.24897 -0.17675,-0.15988 -0.25883,0.234 c -0.1322,0.1195 0.04122,0.28235 0.16012,0.17485 z m 0.78598,-0.71068 0.25704,-0.23234 c 0.09871,-0.08932 -0.06521,-0.26085 -0.16012,-0.17485 l -0.27368,0.24742 0.17675,0.15976 z m 0.22105,0.50174 -0.98102,-0.88719 c -0.12484,-0.11237 -0.28532,0.06105 -0.18364,0.15311 l -2.38e-4,2.38e-4 0.01924,0.01734 0.9809,0.88695 c 0.15062,0.13589 0.31858,-0.03183 0.16475,-0.17045 z m -0.08267,-2.3778 c 0.01722,0.39436 -0.02791,0.79679 0.03896,1.1979 l 0.0048,0.02114 c 0.14099,0.01307 0.26892,0.12508 0.31418,0.2599 1.5996,0.03813 3.3443,0.23258 5.0517,0.5565 1.0111,0.19171 0.97794,-0.65057 0.77886,-1.375 -0.06355,-0.10892 -0.13993,-0.20763 -0.23222,-0.29589 -1.4215,-1.358 -4.9605,-0.81698 -5.9561,-0.36454 z m 0.26096,3.7849 c -0.01425,1.6264 0.0083,3.2516 0.34981,4.8689 0.22486,1.0638 0.11522,1.7206 1.5001,1.7817 3.4183,0.15157 5.1228,-2.5429 4.6077,-5.8917 -0.21904,-0.54937 -0.60757,-0.98981 -1.1491,-1.162 -1.2313,-0.39174 -2.402,-0.66376 -3.6246,-0.73111 -1.4227,-0.07851 -1.6738,-0.16523 -1.6839,1.1343 z m -8.5755,-1.0731 c -0.99005,-2.725 3.3491,-4.0846 7.1809,-2.8846 0.04193,0.46468 0.0797,0.929 0.11177,1.3937 -0.14052,0.01995 -0.26524,0.13624 -0.30456,0.27272 -2.5049,0.09776 -4.8439,0.53072 -6.9881,1.2182 z m 7.3086,0.12496 c 0.08802,2.0198 0.12745,4.0765 -0.10477,6.0279 -0.09419,0.79739 0.03207,1.6186 -0.87911,1.8869 -1.5855,0.46646 -4.2958,0.5097 -5.2287,-0.58168 -0.74073,-0.86664 -1.0962,-2.4769 -1.0888,-4.4798 0.0036,-0.84585 -0.03421,-1.5562 0.93862,-1.8888 2.0104,-0.68751 3.9824,-1.1306 6.0376,-1.2523 0.03647,0.14753 0.17342,0.27546 0.32511,0.28781 z m -8.211,7.5799 c 1.3451,2.2647 3.8235,2.778 7.0728,2.0736 1.315,-0.2852 2.8315,-0.23768 4.4112,-0.17295 1.937,0.07946 3.5809,-0.74061 4.9286,-2.3448 0.31216,6.1544 -2.201,8.7941 -7.4422,7.504 -0.88065,-0.21666 -1.6093,-0.2966 -2.4153,0.14812 -2.6101,1.4402 -5.1781,2.4007 -6.432,-0.79002 -0.72398,-2.2202 -0.51979,-4.3306 -0.12318,-6.4179 z"
         fill="#fecc00"
         fill-rule="nonzero"
         id="path14682"
         style="stroke-width:0.694444" />
      <path
         d="m 26.773,54.389 -0.17699,0.129 -0.39388,-0.17663 c 1.5221,-1.1415 1.4746,-2.283 1.4746,-2.283 0.28532,1.0939 -0.38058,1.9025 -0.9037,2.3306 z m 1.9278,2.7586 0.18174,-0.42797 c 0.91296,-0.22474 1.8829,0.39448 2.7395,0.34613 -0.64867,0.57396 -2.1266,-0.06283 -2.9212,0.08184 z m 4.2554,-0.19017 -0.03623,-0.22913 0.27403,0.03884 c -0.04751,1.8074 -1.4268,3.1392 -1.4268,3.1392 0.76092,-0.14266 1.2366,0.09515 1.2366,0.09515 -1.855,1.0464 -2.4734,2.9014 -2.4734,2.9014 1.855,-0.52324 1.9027,0 1.9027,0 -1.1891,0.33295 -1.7599,1.5221 -1.7599,1.5221 0.9037,-0.14266 1.522,0.28532 1.522,0.28532 -1.7122,0.85618 -1.9977,2.5209 -1.9977,2.5209 0.90382,-0.57075 2.0453,-0.85618 2.0453,-0.85618 -3.2343,3.1393 -0.99884,5.8504 -0.99884,5.8504 -2.3306,-1.7599 -0.66589,-4.7088 -0.66589,-4.7088 -0.4756,0.28532 -1.2843,0.95121 -1.2843,0.95121 0.14278,-2.4258 1.9025,-3.6624 1.9025,-3.6624 -0.85606,0.04763 -1.6647,0.76104 -1.6647,0.76104 0.42809,-1.4744 1.7124,-2.5209 1.7124,-2.5209 -1.1891,0.23792 -1.9025,1.094 -1.9025,1.094 0.66589,-2.5684 2.6636,-3.9477 2.6636,-3.9477 -1.0465,0.04751 -2.3306,1.2366 -2.3306,1.2366 0.4756,-1.1891 1.7122,-2.188 2.5684,-2.949 0.85618,-0.76092 0.71341,-1.522 0.71341,-1.522 z m 4.0942,9.6772 0.2378,-0.71353 c 0,0 1.0428,2.5943 0.99516,4.687 -0.04751,2.0928 -0.9037,3.8052 -0.9037,3.8052 -0.04751,-0.71353 -0.38046,-1.5221 -0.38046,-1.5221 -0.2378,1.2366 -0.66589,1.9502 -0.66589,1.9502 l -0.2378,-0.28543 c -0.04763,1.6647 -1.2368,3.1868 -1.2368,3.1868 l -0.19017,-0.38058 -0.52324,0.9037 -0.42809,-0.80855 c -0.04965,1.1239 -0.9088,1.4951 -1.0464,2.3783 -0.19029,-1.0465 0.4756,-1.4269 0.6659,-2.3306 0.19017,-0.90382 -0.2378,-2.0453 -0.2378,-2.0453 0.4756,0.61838 1.0695,2.0363 1.0695,2.0363 0.47572,-0.76104 0.02435,-2.2266 0.02435,-2.2266 0.52324,0.57087 0.7747,1.4455 0.7747,1.4455 1.094,-1.3793 0.79501,-3.6809 0.79501,-3.6809 0.26999,0.4193 0.40065,0.71127 0.5078,0.94099 0.61838,-0.95121 0.44342,-2.9862 0.44342,-2.9862 0.2378,0.95121 0.61838,1.6171 0.61838,1.6171 0.80855,-2.5684 -0.28175,-5.9712 -0.28175,-5.9712 z m 23.255,28.659 c -0.9037,0.14266 -1.6171,0.4756 -2.1879,1.8074 h 0.53286 c 0.57087,-1.1891 1.1319,-1.6172 1.655,-1.8074 z m -13.037,-0.08148 c -0.92567,0.1505 -1.9559,0.98649 -2.1838,1.8889 h 0.73229 c 0.28532,-0.99884 0.9284,-1.5559 1.4515,-1.8889 z m -9.674,0.24136 c 0.26904,-0.15358 0.6008,-0.29541 0.87887,-0.44532 -1.4741,0.06699 -2.365,0.88778 -2.6161,2.0928 h 0.74833 c 0.04751,-0.61838 0.37915,-1.2994 0.98886,-1.6475 z m 33.85,-0.1429 c -1.466,0.3927 -1.96,1.2197 -2.1978,1.7904 h 0.3769 c 0.14278,-0.28543 0.67944,-1.3148 1.8209,-1.7904 z m -2.1503,-11.575 c 0.32499,0.09906 0.57562,-0.15109 0.2384,-0.45565 -0.19373,-0.17497 -0.351,-0.29078 -0.42857,-0.54319 -0.19029,-0.61838 -0.33295,-0.76104 -0.38058,-1.3794 0,-0.61826 0.09514,-1.5696 -0.57075,-2.5208 0,0 1.1415,-1.2368 0.99884,-3.8527 l 0.76104,0.33295 c 0,0 0,-1.1891 -0.14266,-1.855 0,0 0.38046,0.19029 0.61826,0.4756 0,0 0.04763,-0.85606 -0.28532,-1.7122 l 0.38046,0.33295 c -0.04751,-0.28543 0.04751,-1.3318 -0.38046,-2.5684 l 0.4756,0.2378 c 0,0 -0.28543,-1.7122 -0.71353,-2.7111 0,0 0.61838,0.33295 0.76104,0.57075 0,0 0.14278,-1.5696 -0.95121,-3.6149 -1.0465,-2.0452 -2.8062,-2.8062 -2.8062,-2.8062 0,0 2.0927,1.1415 2.9014,5.1845 0,0 -0.6659,-0.52324 -1.9502,-0.95133 0,0 1.4269,0.6659 1.6172,2.949 0,0 -0.76104,-0.71353 -1.5696,-1.1416 0,0 1.522,1.2368 1.5696,3.3771 0,0 -0.6659,-0.71353 -1.3794,-1.2366 0,0 1.1415,1.1415 1.1891,2.8062 0,0 -0.71341,-0.66589 -1.1415,-1.2366 0,0 0.85606,1.6171 0.9037,2.9014 0,0 -0.4756,-0.4756 -1.094,-1.2366 l 0.19302,0.74251 c 0.79929,1.0383 0.14515,3.3523 -0.47846,4.3468 L 66.8684,77.74281 c 0,0 0.61826,0.61826 0.95121,1.1415 0.33295,0.52324 0.52324,1.3318 0.61838,1.9501 0.04751,0.61838 0.04751,1.1416 0.14266,1.4269 0.09515,0.28543 0.24279,0.71982 -0.33295,1.1891 -0.56826,0.46325 -0.86497,1.0945 -0.9037,1.5221 0.49936,-0.6824 1.0325,-1.3001 1.9501,-1.2366 z m -9.8905,-18.42 0.91676,0.26025 c -0.82138,0.74453 -1.6812,1.6381 -2.822,1.8455 -1.0464,0.2378 -0.97615,-0.18292 -0.85618,-0.80855 0,0 -0.4756,0.6659 -1.4744,1.2366 -0.99884,0.52312 -1.2366,0.52312 -1.1415,0.2378 0.09514,-0.28544 0.09514,-0.6659 0.09514,-0.6659 0,0 -2.2831,1.9501 -4.8516,0.52324 2.38e-4,0.06272 2.9487,0.73681 4.9942,-1.3318 0,0 0.60163,-0.05357 1.1724,-0.48166 0,0 -0.54474,0.92733 -0.78254,1.4981 0.69013,-0.08612 1.9498,-1.3029 2.5194,-1.7738 -0.16832,0.31074 -0.27237,0.60092 -0.23044,0.97806 0.02803,0.25194 0.2441,0.38189 0.88849,-0.03053 1.2843,-0.9037 1.5723,-1.4874 1.5723,-1.4874 z"
         fill="#cdc9c6"
         id="path14684"
         style="stroke-width:0.694444" />
    </g>
    <g
       fill-rule="nonzero"
       id="g14694"
       style="stroke-width:0.694444">
      <path
         d="m 26.871,54.92 c 0.06557,0.10655 0.10393,0.23127 0.10393,0.36526 0,0.3877 -0.3137,0.70129 -0.70129,0.70129 -0.35183,0 -0.6438,-0.26025 -0.6931,-0.59961 -0.21892,0.08315 -0.43724,0.16879 -0.6552,0.2542 -0.031,-0.26821 0.02649,-0.51575 0.30004,-0.66851 0.03742,-0.16986 0.14824,-0.29256 0.30836,-0.35825 0.09158,-0.17271 0.25811,-0.2435 0.44211,-0.23448 0.15287,-0.08386 0.32285,-0.08897 0.47964,-0.01188 0.11641,-0.03872 0.22913,-0.0335 0.33829,0.01615 l 2.38e-4,-3.56e-4 c 0.02304,0.01069 0.0468,0.02376 0.0702,0.03896 l 8.32e-4,3.57e-4 c 0.01176,0.0071 0.02388,0.01639 0.03575,0.02542 0.12128,-0.01247 0.2226,0.01354 0.30373,0.07982 l 1.19e-4,-2.38e-4 c 0.01841,0.01485 0.03575,0.03207 0.05191,0.0512 l 3.57e-4,7.12e-4 c 0.04288,0.05203 0.07329,0.11558 0.10595,0.1739 -0.16416,0.0544 -0.32843,0.10964 -0.49188,0.16582 z"
         id="path14688"
         style="stroke-width:0.833333" />
      <path
         d="m 26.101,55.195 c 0.02388,0.02197 0.0392,0.05262 0.0392,0.08731 0,0.06604 -0.05357,0.11961 -0.11961,0.11961 -0.06581,0 -0.11938,-0.05357 -0.11938,-0.11961 l 5.94e-4,-0.0139 -0.13126,0.04846 c 0.03908,0.13624 0.16499,0.23602 0.31311,0.23602 0.18007,0 0.32641,-0.14622 0.32641,-0.32641 0,-0.04775 -0.01093,-0.09265 -0.02958,-0.13375 l -0.2795,0.10227 z"
         fill="#ffffff"
         id="path14690"
         style="stroke-width:0.578704" />
      <path
         d="m 25.153,55.331 c 0.61351,-0.23804 1.2313,-0.46515 1.8549,-0.67528 -0.05666,-0.01271 -0.11356,-5.94e-4 -0.16915,0.0095 -0.12864,-0.11308 -0.21702,-0.14943 -0.39911,-0.0702 -0.15382,-0.09134 -0.2612,-0.10263 -0.41621,-0.0059 -0.16475,-0.01497 -0.2656,0.01449 -0.34031,0.18874 -0.18162,0.06022 -0.2473,0.14016 -0.27106,0.32772 -0.10714,0.0544 -0.20858,0.10488 -0.25906,0.22533 z"
         fill="#c1c1c1"
         id="path14692"
         style="stroke-width:0.578704" />
    </g>
  </g>
</svg>
