<svg xmlns="http://www.w3.org/2000/svg" height="480" width="640">
    <g clip-path="url(#a)" fill-rule="evenodd">
        <path fill="#009af4" d="M-80 0h720v240h-720z"/>
        <path fill="#1c8f31" d="M-80 360h720v120h-720z"/>
        <path fill="#efef00" d="M-80 240h720v120h-720z"/>
        <path fill="#ffda00" d="M574.009 167.125l-34.867-19.224 20.725 33.986-28.692-27.598 11.219 38.207-20.58-34.083.958 39.794-11.055-38.246-9.38 38.691-.774-39.804-19.079 34.945 9.554-38.652-27.472 28.827 19.224-34.867-33.986 20.725 27.588-28.692-38.197 11.219 34.083-20.58-39.794.958 38.246-11.055-38.691-9.38 39.804-.784-34.945-19.071 38.643 9.555-28.817-27.475 34.867 19.228-20.725-33.992 28.692 27.596-11.219-38.198 20.58 34.083-.958-39.801 11.055 38.247 9.38-38.691.774 39.805 19.079-34.946-9.554 38.65 27.472-28.817-19.224 34.861 33.986-20.726-27.588 28.695 38.197-11.221-34.083 20.582 39.794-.958-38.246 11.055 38.691 9.38-39.804.774 34.945 19.079-38.643-9.554z"/>
        <path d="M541.237 120.825c0 16.769-13.594 30.362-30.362 30.362s-30.362-13.594-30.362-30.362 13.594-30.362 30.362-30.362 30.362 13.594 30.362 30.362z" fill="#0098f6"/>
        <path d="M535.319 120.773c0 13.672-10.93 24.755-24.414 24.755s-24.414-11.083-24.414-24.755 10.93-24.755 24.414-24.755 24.414 11.083 24.414 24.755z" fill="#ffd900"/>
    </g>
</svg>
