<?xml version="1.0" encoding="utf-8"?>
<!-- Generator: Adobe Illustrator 25.4.1, SVG Export Plug-In . SVG Version: 6.00 Build 0)  -->
<svg version="1.1" id="Calque_1" xmlns="http://www.w3.org/2000/svg" xmlns:xlink="http://www.w3.org/1999/xlink" x="0px" y="0px"
	 viewBox="0 0 640 480" style="enable-background:new 0 0 640 480;" xml:space="preserve">
<style type="text/css">
	.st0{fill:#EFEFEF;}
	.st1{fill:url(#path44_00000182518807101974540300000005990146100098255020_);}
	.st2{fill:url(#path48_00000070089946004149535070000000589004545105519244_);}
	.st3{fill:#FFFFFF;}
	.st4{fill:url(#path52_00000140730667847692910700000003740671243123643019_);}
	.st5{fill:#231F20;}
</style>
<rect class="st0" width="640" height="480"/>
<g>
	<g>
		
			<linearGradient id="path44_00000158016944724513453760000018177627513090028440_" gradientUnits="userSpaceOnUse" x1="85.3518" y1="2668.7156" x2="201.686" y2="2785.0496" gradientTransform="matrix(1.3333 0 0 -1.3333 200.6454 3780.2449)">
			<stop  offset="0" style="stop-color:#D8372B"/>
			<stop  offset="0.5" style="stop-color:#932623"/>
			<stop  offset="1" style="stop-color:#D8372B"/>
		</linearGradient>
		
			<path id="path44_00000145050793029457389270000000783886292081231767_" style="fill:url(#path44_00000158016944724513453760000018177627513090028440_);" d="
			M347.9,269.2l20.4-19.1c0,0-13.2-6.9-13.8-22.4c-0.7-15.5,14.6-27.1,16.7-29.2s19.4-16.4,27.4-26c8.1-9.6,16.5-21.2,17-35.5
			c0.6-14.4-3.4-39.6-41.5-56.6c0,0,14.7,22.2,6.9,45.7c-8,23.6-41.1,50-51,60c-9.9,10.1-24.7,23.8-22.5,42.6
			C309.8,247.4,335.7,263.2,347.9,269.2"/>
		
			<linearGradient id="path48_00000178906964040612251050000004788474203856305342_" gradientUnits="userSpaceOnUse" x1="37.4641" y1="2676.9124" x2="177.8577" y2="2817.3059" gradientTransform="matrix(1.3333 0 0 -1.3333 200.6454 3780.2449)">
			<stop  offset="0" style="stop-color:#5875B3"/>
			<stop  offset="0.5" style="stop-color:#0A4EA1"/>
			<stop  offset="1" style="stop-color:#7287AB"/>
		</linearGradient>
		
			<path id="path48_00000160172655494765189760000005267929011433247901_" style="fill:url(#path48_00000178906964040612251050000004788474203856305342_);" d="
			M282.8,268.8l22.5-19c0,0-14.3-10.9-14.9-25.6c-0.7-14.6,7.5-22.6,17-32.4c9.5-9.9,34.3-33.3,41.7-40.7
			c7.4-7.4,22.8-22.4,22.6-41.4c-0.3-19-6.4-46.1-49.6-63.3c0,0,19,22,13.7,44.4c-5.3,22.2-16.5,35-42.6,58.8
			c-26,23.7-51.1,42.5-49.6,70.1C245,247.2,270,261.8,282.8,268.8"/>
		<path class="st3" d="M322.7,86.1c0,6.5-2.7,13.6-8,21.2c-4.3,6.2-9.4,11.5-12.4,14.6c-0.6,0.6-1,1.1-1.5,1.5
			c-4.4,4.7-11.2,10.4-21.5,19.3c-1.8,1.4-3.5,3.1-5.4,4.7c-2.5,2.1-4.7,4-6.8,5.9c-9.2,7.9-15.3,13-20.9,20
			c-9.1,11.2-10.4,19.4-10.4,19.4l-0.7,4.3l-2.2-3.9c-4.7-8.6-7.4-17.3-8.3-25.9c-0.7-7.6,0.2-15,2.7-21.2
			c5.3-13.5,16.4-22.4,31.4-34.6c3-2.4,6-4.9,9.2-7.5c18.9-15.8,22.5-24.3,22.8-36.4c0.4-15.8-6.9-28.1-7-28.2l-2.4-4l4.3,1.8
			c6.6,2.8,12.4,6.2,17.5,10.4c4.5,3.8,8.4,8.1,11.5,12.8C321.7,71.2,322.7,81.1,322.7,86.1z"/>
		
			<linearGradient id="path52_00000020396133039644804060000004128298818737343875_" gradientUnits="userSpaceOnUse" x1="4.1473" y1="2709.2026" x2="113.1394" y2="2818.1946" gradientTransform="matrix(1.3333 0 0 -1.3333 200.6454 3780.2449)">
			<stop  offset="0" style="stop-color:#5875B3"/>
			<stop  offset="0.5" style="stop-color:#0A4EA1"/>
			<stop  offset="1" style="stop-color:#7287AB"/>
		</linearGradient>
		
			<path id="path52_00000015349527573015424430000013850748710418746251_" style="fill:url(#path52_00000020396133039644804060000004128298818737343875_);" d="
			M314.6,60.2c-3.1-4.7-7-9-11.5-12.8c-5.1-4.2-10.9-7.6-17.5-10.4l-4.3-1.8l2.4,4c0.1,0.1,7.4,12.4,7,28.2
			c-0.3,12.2-3.8,20.7-22.8,36.4c-3.2,2.6-6.2,5.2-9.2,7.5c-15.1,12.2-26.1,21.1-31.4,34.6c-2.5,6.2-3.4,13.6-2.7,21.2
			c0.9,8.6,3.6,17.3,8.3,25.9l2.2,3.9l0.7-4.3c0-0.1,1.3-8.2,10.4-19.4c5.6-6.9,11.7-12.1,20.9-20c2.1-1.8,4.4-3.8,6.8-5.9
			c1.9-1.7,3.7-3.3,5.4-4.7c10.2-8.8,17.1-14.5,21.5-19.3c0.4-0.3,0.9-0.9,1.5-1.5c3.1-3.1,8.2-8.4,12.4-14.6c5.2-7.6,8-14.7,8-21.2
			C322.7,81.1,321.7,71.2,314.6,60.2z M300,119.7c-0.5,0.7-1,1.2-1.5,1.7c-4.3,4.5-10.9,10.3-21.2,19c-1.7,1.5-3.5,3.1-5.4,4.7
			c-2.5,2.1-4.7,4-6.8,5.9c-9.3,8-15.5,13.2-21.4,20.4c-5.9,7.2-8.7,13.1-10,16.9c-6.9-14.4-8.4-29.6-3.7-41.2
			c5.1-12.7,15.9-21.4,30.6-33.4c3-2.4,6-4.8,9.3-7.5c9.8-8,15.9-14.7,19.4-20.9c3.7-6.6,4.4-12.4,4.5-17.8
			c0.2-11.4-3.2-20.8-5.4-25.9c23.1,11.2,31.3,30.7,31.1,44.6C319.4,99.7,305.8,113.7,300,119.7z"/>
	</g>
	<path id="UWW_LOGO_POSITIVE_00000064338809380707806060000008620675982016294838_" class="st5" d="M320,288.8c43.1,0,78,34.9,78,78
		s-34.9,78-78,78s-78-34.9-78-78S276.9,288.8,320,288.8z M259.6,366.9c0,33.4,27.1,60.4,60.4,60.4s60.3-27.1,60.3-60.4
		s-27.1-60.3-60.3-60.3C286.6,306.5,259.6,333.6,259.6,366.9z M317.7,354.5c-2.4-6-11.9-12.9-18.4-14.2
		c-13.7-2.9-12.3-14.4-12.3-14.4c3.2,7.2,10.8,10.6,11.5,8.3c0.2-0.6-2.8-3.6-3.1-5.4c-0.3-1.9,2-3.6,3.6-3.1
		c4.3,1.7,1.2,8.1,6.6,10.7C312.6,339.6,318.8,347.7,317.7,354.5z M295.5,413.4c8.1-10.1,12.3-10.5,13-10c1.8,1.4,0.3,3.7-0.2,4.5
		c-1.1,2.2-0.6,4.9,2.2,5.3c2.1,0.3,3.6-2.5,3-5.1c-1.1-4.6,3.5-4.7,3.2-2.5c-0.9,6.2,3.2,11.3,6.7,13.7c-2.1-4.9-2.9-13.3,1.1-14.7
		c3.8-1.3,1.1,5.9,2.5,7.6c0.6,0.8,2.5,1.3,3.8,0.5c2.8-1.8-1.8-9.5,0.3-10c3.8-0.8,1.3,7,10.3,12.2c-1.8-5.2-4.4-13-2-14.7
		c1.8-0.9,2.3,2.8,4.2,4.4c3.1,2.5,7.3-1.7,4.6-3.4c-2.9-1.9-5.1-4.4-4.6-5.6c1.6-3.5,7.3,0.1,12.3,9.5c2-8.6-3.7-14.2-9.8-17
		c-4.2-1.9-8.3-7-9.3-8c-3.5-3.7-4.9-2.1-11.3-6c-1.2-1.4-2.3-7.8-0.4-10.2c3.6,4.2,17,5.3,16.3,3.5c-1.6-4,5.2-4.5,7.4-1.6
		c2.2,3,0.7,6.4-4.6,5.9c-3.4-0.4-3.4,1.6-3.3,2.4c0.4,3.9,5.3,7.7,8.4,9.4c6.7,3.5,15.2,2.5,20,1.4c-3.3-1.1-6.5-2-9.5-3.9
		c-5.9-3.7-5-5.4-4.2-6.7s3.7-1.3,7.1,0c6,2.3,8.1-8.8,1.6-6.7c-2.9,1-6.8,1.5-7.3-1.7c0.1-5.8,11.5-3.1,13.5-13
		c-4.8,4.6-13.7,5.2-15.7,2.7c-1.4-1.8,1.1-3.2,4-3.1c6.2,0.2,4.9-8.6-0.7-6.5c-3.5,1.3-5.1,4.9-6.3,4.4c-2.2-1.1-1.2-10.9,8.3-17.5
		c-10-1.6-13,10.4-15.8,8c-2.6-2.2-0.8-7,1.8-9.3c3.3-3-2.3-8.7-5.7-3.1c-2,3.3,0.1,8.1-2.9,7.9c-3.9-0.3,3.5-15.1-6.7-21
		c3,6.6,2,17.7-3.5,15.9c-3.7-1.1-1.6-3.9-0.7-7.2c1.3-5.4-6.3-5.3-6-1.1c0.4,4.1,1,7.3-1.3,7.4c-3.3,0.3-5.7-8.1-0.7-16.1
		c-9.3,3.6-8.8,16.1-4.8,19.2c5.7,4.5,10.8,13.1,9.6,21.5c-2.6,3.9-8.9,6-8.9,6c-0.2-3-5.6-14.6-20.3-15.8
		c-12.3-1-14.8-11.5-14.8-11.5c-0.6,2.9-1.7,9.3,7.4,13c1.8,0.8-0.7,3.2-3.6,0.8c-5.3-4.6-9.3,2-4.6,3.9c1.6,0.6,7.5,2.1,9.5,4.8
		c4.6,6.3,10.2,11.3,24.2,6.9c6-1.9,11.1-5.3,11.1-5.3s4.5-5.8,8.3-2.2c1.1,1.1,1.5,4-0.7,6.1s-4.9,1.4-5.8,0
		c-0.2-0.4-1.5,0.2-2.3,2.7c-0.8,2.6-1.8,8.9,5.4,14.9c1.1,0.8-9.3-0.6-11.1-10.4c-1.8,1.3-5.6,2.5-8.3,2.8
		c2.4,5.7,3.1,17.9-4.5,24.9C298.2,402.5,296.9,408.6,295.5,413.4z M284.9,379.3c0.1,2.7-10.6,4.1-11.1,12.4
		c-0.1,0.8,6.1-5.3,13.2-5.2c2.1,0,2.8,2.5,2.2,3.6c-1,1.8-6.3,0.5-7.4,3.4c-1,2.4,2.2,4.2,4.4,3.8c3-0.5,2.7-2.6,10.8-6
		c6.1-2.5,8.7-11.2,6.6-19.2c0,0-11-0.5-17.1-6.9c-6-6.5-18.2-5.3-18.2-5.3c7.4,3.7,14.1,7.9,14.6,9.9c1.1,3.3-2.6,1.2-6.4,2
		c-4.7,1-3.5,6.4-0.3,6.7C278.9,378.7,284.7,374.2,284.9,379.3z M362.1,393.3v3.4h-0.5v-3.4h-1v-0.5h2.4v0.5H362.1z M366,396.7v-2.2
		v-0.7l0,0l-0.7,2.9h-0.6l-0.7-2.9l0,0l0.1,0.7v2.2h-0.5v-3.9h0.8l0.8,3.3l0,0l0.9-3.3h0.7v3.9H366z"/>
</g>
</svg>
