<svg xmlns="http://www.w3.org/2000/svg" height="480" width="640">
  <g clip-path="url(#a)" fill-rule="evenodd">
    <path fill="#199d00" d="M-40 0h720v480h-720z"/>
    <path d="M141.444 136.059c-.831 11.213-1.829 30.948 7.699 32.972 11.525 1.108 5.17-19.506 9.341-23.243.789-1.847 2.243-1.857 2.363.473v17.485c-.105 5.686 3.632 7.361 6.536 8.535 3.022-.233 5.039-.133 6.224 2.808.472 10.082.945 20.163 1.418 30.245 0 0 7.008 2.006 7.342-17.012.335-11.167-2.23-20.513-.727-22.686.053-2.135 2.779-2.262 4.67-1.222 3.012 2.125 4.354 4.749 9.036 3.699 7.124-1.962 11.406-5.427 11.511-10.898-.416-5.198-.999-10.397-3.251-15.595l-1.061-4.34c1.28 2.005 3.228 1.838 3.671 0-1.212-3.995-3.093-7.823-6.143-9.48-2.521-2.221-6.209-1.767-7.56 2.864-.626 5.336 1.924 11.677 5.81 16.845.825 2.019 1.985 5.375 1.475 8.397-2.068 1.18-4.136.688-5.868-1.141 0 0-5.67-4.253-5.67-5.198 1.505-9.634.334-10.726-.5-13.4-.583-3.69-2.334-4.874-3.752-7.395-1.419-1.504-3.337-1.504-4.255 0-2.506 4.345-1.337 13.672.473 17.849 1.308 3.842 3.307 6.254 2.363 6.254-.778 2.171-2.386 1.67-3.556-.836-1.67-5.18-2.005-12.908-2.005-16.388-.501-4.315-1.052-13.518-3.892-15.856-1.732-2.359-4.3-1.209-5.197.944-.187 4.283-.206 8.564.276 12.511 1.948 6.922 2.559 13.009 3.505 20.097.262 9.495-5.49 4.12-5.227-.587 1.327-6.114.982-15.739-.196-18.178-.935-2.439-2.038-3.041-4.311-2.64-1.805-.11-6.448 4.96-7.752 13.371 0 0-1.112 4.329-1.586 8.172-.638 4.344-3.497 7.409-5.502-.611-1.733-5.829-2.798-20.179-5.7-16.818z" fill="#fff"/>
    <path d="M172.76 182.072c-10.17 4.972-20.005 9.609-30.009 14.414.366-6.802 14.268-19.082 23.748-19.254 6.171.172 4.62 2.391 6.261 4.841z" fill="#fff"/>
    <path d="M167.517 191.475c-15.816 40.769 37.036 46.449 42.942 1.67.556-1.837 2.785-3.676 3.175-.669-1.226 40.545-40.881 43.331-47.619 30.576-1.67-3.006-2.172-9.69-2.34-13.701-1.002-7.964-5.179-4.901-5.847 3.007-.669 4.4-.501 5.627-.501 9.859 2.116 32.024 53.19 18.268 61.488-8.187 4.4-14.648-.725-25.452 1.67-25.398 5.068 5.459 12.141.725 13.701-1.169.669-.947 2.341-1.559 3.51-.334 3.954 2.842 10.917 1.503 12.365-3.51.836-4.901 1.505-9.969 1.672-15.203-3.232 1.003-5.626 1.67-5.848 3.007l-.669 4.344c-.278 1.393-3.065 1.448-3.175-.335-1.225-5.57-6.293-6.293-9.357 2.341-2.061 1.67-5.792 2.005-6.183-.501.501-5.792-1.838-6.573-6.516-3.843-1.504-11.473-3.006-22.445-4.511-33.918 1.95-.056 3.733 1.391 5.515-.836-1.952-6.07-6.072-18.49-8.356-19.382-1.114-1.336-2.062-.501-3.509-.167-2.45.78-4.735 2.896-4.011 7.018l7.687 48.622c.445 2.061-1.281 4.788-3.509 4.51-3.787-2.562-4.732-7.741-11.195-7.519-4.678.056-10.027 5.124-10.693 10.027-.78 3.897-1.06 8.129-.002 11.527 3.288 3.954 7.242 3.566 10.695 2.674 2.84-1.169 5.179-4.01 6.182-3.342.669.836.165 10.191-13.368 17.377-8.187 3.676-14.704 4.512-18.211-2.172-2.172-4.177.166-20.05-5.182-16.373z" fill="#fff"/>
    <path d="M234.603 150.028c3.175-1.17 18.215-18.379 18.215-18.379l-2.257-1.838c-.836-.724-.752-1.448 0-2.172 3.731-2.171 2.534-6.934.585-9.105-3.231-1.449-6.044-.975-8.105.083-2.617 2.506-3.229 6.516-1.168 9.022 2.006.947 4.01 2.98 2.673 4.094-6.153 6.572-23.002 17.906-21.052 18.295.416.557 10.777.529 11.109 0z" fill="#fff"/>
    <path d="M143.784 210.938c-5.64 8.985-6.131 22.409-3.019 26.411 1.654 1.891 4.371 2.719 6.38 2.127 3.543-1.537 5.094-8.716 4.254-11.343-1.182-1.851-2.114-2.144-3.295-.57-2.494 5.063-3.529 1.59-3.748-1.24-.382-5.365.123-10.307.705-14.22.62-4.011-.011-2.785-1.278-1.166z" fill="#fff"/>
    <path d="M384.8 196.547c-5.454-11.738-13.003-23.338-15.405-27.794-2.402-4.458-20.536-30.775-23.205-33.735-5.891-7.001 9.566 2.915-1.956-10.984-4.393-3.769-4.648-3.998-8.294-7.073-1.839-1.305-6.33-3.69-7.126.262-.4 3.484-.184 5.374.402 8.275.449 1.934 3.267 5.174 4.652 7.051 18.398 24.73 34.713 49.705 50.445 81.107 2.484-1.181 1.941-15.145.488-17.109z" fill="#fff"/>
    <path d="M360.866 235.819c-1.072 1.204 2.647 6.352 7.482 6.348 8.084-.939 15.202-5.48 21.791-17.434 1.762-2.788 4.859-8.75 4.95-13.375.616-27.117-1.358-48.218-5.421-67.818-.26-1.909-.102-4.153.222-4.726.523-.625 2.299.003 3.241-1.541 1.382-1.411-3.669-13.097-6.549-17.598-1.023-2.01-1.379-3.352-3.071.236-1.78 2.916-2.976 8.005-2.836 12.76 3.857 26.702 5.041 50.061 7.562 76.763.205 2.583-.174 6.335-1.891 7.831-6.349 6.63-15.514 14.791-25.479 18.554z" fill="#fff"/>
    <path d="M470.075 235.678c-5.802 3.354-5.809 7.212-1.118 7.351 8.084-.939 17.637-1.61 24.226-11.558 1.763-2.788 3.857-10.327 3.948-14.951.616-27.117-.354-47.358-4.417-66.957-.26-1.909-1.105-6.303-.782-6.876.523-1.342 3.159.146 4.101-1.398 1.382-1.411-6.823-11.95-9.702-16.451-1.023-2.01-1.379-3.352-3.071.236-1.78 2.916-2.403 8.148-1.689 12.76 4.287 28.995 7.478 50.778 8.136 76.477-.369 2.439-.461 3.754-1.604 6.828-2.53 3.243-5.334 7.299-7.963 9.259-2.628 1.959-8.235 3.83-10.064 5.282z" fill="#fff"/>
    <path d="M474.425 209.681c-.067-6.781.096-12.637-.128-17.693-.223-5.058-1.117-9.176-2.867-12.766-1.657-3.849-.628-6.943-1.406-11.043-.777-4.099-.585-10.238-1.76-15.101-.322-1.899-1.309-7.983-1.004-8.566.479-1.358 2.303.043 3.194-1.531 1.334-1.454-4.628-16.883-7.653-21.288-1.088-1.975-3.063-1.299-5.498 1.913-2.258 2.113-1.421 6.933-.558 11.518 5.801 30.273 10.128 57.673 9.184 86.491-.289 2.45 8.557-7.308 8.497-11.933z" fill="#fff"/>
    <path d="M431.563 172.134c-3.649-.067-11.291-7.1-13.522-11.222-.843-2.364-.302-4.67.441-6.021 1.351-.879 3.429-1.866 4.983-.919 0 0 1.611 2.254 1.3 2.541 1.992.954 2.838.405 3.04-.405.135-1.419-.589-2.264-.597-3.827.845-4.238 5.689-4.897 7.513-2.195 1.335 1.648 1.825 5.149 2.027 7.513-.021 1.208-1.977-.209-3.088.081-1.112.291-1.379 1.573-1.465 2.734-.201 3.073-.565 8.004-.633 11.72z" fill="#fff"/>
    <path d="M364.222 217.2c1.005-9.214-.372-25.623-.463-31.059-.369-12.844-2.466-37.652-3.465-41.797-1.125-7.813 3.213.857 2.613-3.684-1.407-7.802-5.734-13.09-10.821-20.236-1.64-2.324-1.585-2.798-4.117.57-2.802 6.357-.383 10.73.341 15.681 3.668 16.131 5.809 30.972 6.805 45.644.997 14.673 1.302 30.536.393 45.989 2.749.108 7.169-4.447 8.715-11.108z" fill="#fff"/>
    <path d="M486.847 202.444c-6.434-10.795-16.143-22.488-18.737-26.835-2.593-4.348-24.531-32.653-27.326-35.494-8.025-8.431 3.681-1.372-1.537-7.884-4.412-4.845-5.699-6.366-9.476-9.279-1.894-1.224-3.041-3.561-3.663.422-.248 3.499-.506 7.546-.271 10.495-.014 1.639 1.693 4.719 3.159 6.534 19.458 23.906 40.681 48.316 57.766 79.002 2.431-1.288 1.623-15.062.085-16.961z" fill="#fff"/>
    <path d="M194.928 182.522c-.463.812-1.494 1.864-1.149 2.952.723.979 1.3 1.178 2.503 1.231 1.044 0 2.503.247 2.817-.37.562-.619.99-1.883.522-3.076-1.088-2.718-4.125-1.705-4.693-.737z" fill="#1ba400"/>
    <path d="M412.034 339.881c8.604.316 14.236.393 21.889 1.303 0 0 6.599-.652 8.956-1.008 9.962-.95 10.402 14.228 10.402 14.228-.109 8.902-3.545 9.368-7.932 10.308-2.506.319-3.823-1.501-5.14-3.439-1.654.692-3.9.792-6.623.414l-10.756-.434-9.645.061c-.785 1.233-1.806 2.94-4.136 2.39-1.938-.214-4.234-5.656-3.558-9.792 1.399-2.967 1.015-2.013.869-3.316-35.18-.896-70.696-2.465-105.206-2.017-27 .112-53.666 1.233-80.332 2.353-14.228-.224-25.096-2.466-32.603-13.445.672 0 36.3 2.017 46.72 1.344 19.27-.224 36.86-1.792 56.467-2.352 38.653.672 76.972.672 115.622 3.361-3.697-2.529-3.83-8.504 1.861-9.965.484-.333.733 2.971 1.585 2.909 4.553-.342 2.556 5.826 1.555 7.097z" fill="#fff"/>
    <path d="M256.85 126.825c-5.858 16.743 3.356 35.057 9.744 33.274 4.609 1.908 7.544-6.859 9.43-16.465 1.291-2.696 2.266-2.983 2.929-1.597-.17 12.773.917 15.603 4.201 19.48 7.326 5.652 13.386.722 13.861.246l5.704-5.704c1.27-1.335 2.96-1.414 4.753-.237 1.743 1.584 1.498 4.32 5.229 6.218 3.14 1.256 9.853.29 11.408-2.415 2.093-3.587 2.595-4.819 3.565-6.179 1.494-1.988 4.041-1.104 4.041-.476-.238 1.109-1.733 2.219-.713 4.216 1.777 1.332 2.187.475 3.238.179 3.717-1.777 6.507-9.861 6.507-9.861.164-3.007-1.521-2.759-2.615-2.139l-2.945 2.022c-1.817.27-5.342 1.475-7.085-1.224-1.779-3.244-1.804-7.771-3.164-11.044 0-.238-2.361-5.154-.164-5.469 1.109.206 3.475.832 3.851-1.16 1.163-1.942-2.491-7.441-4.991-10.22-2.17-2.382-5.178-2.67-8.081-.237-2.033 1.87-1.741 3.96-2.139 5.941-.518 2.275-.407 5.073 1.901 8.081 2.029 4.001 5.731 9.154 4.516 16.399 0 0-2.163 3.424-5.931 2.976-1.57-.343-4.117-1.009-5.478-11.057-1.03-7.605.243-18.247-2.985-23.235-1.166-3.012-2.018-5.921-4.858-.769-.763 2.023-4.04 5.094-1.663 11.408 1.944 4.004 2.735 10.52 1.853 17.769-1.347 2.06-1.646 2.758-3.412 4.818-2.481 2.668-5.173 1.987-7.235.991-1.927-1.299-3.435-1.97-4.315-6.095.159-6.575.525-17.338-.676-19.621-1.772-3.537-4.694-2.257-5.942-1.189-5.997 5.484-8.96 14.736-10.771 22.103-1.663 5.369-3.433 3.831-4.677 1.664-3.03-2.839-3.235-25.04-6.892-21.39z" fill="#fff"/>
    <path d="M274.484 163.219c2.66-1.884 1.417-3.201 5.394.776 4.98 8.515 8.181 19.542 8.661 29.312-.21 2.407 1.487 3.931 2.263 3.408.462-5.652 14.206-13.527 26.809-14.678 1.927-.419.99-4.112 1.304-5.996-.756-6.997 3.931-13.367 10.502-13.875 8.942 1.322 11.918 6.096 12.069 13.383-.966 13.989-15.539 16.361-23.727 17.477-1.256.475-1.779 1.055 0 1.74l34.308.156 1.75 1.011c.21.818-.5.135-1.855 2.366-1.354 2.23-3.351 7.373-3.454 10.808-10.222 3.287-20.794 4.727-31.539 6.026-3.733 1.888-5.583 4.404-4.817 7.235 1.256 3.14 9.525 6.277 9.525 6.426 1.57.985 3.428 3.283-.444 7.993-16.735-.736-29.703-7.858-34.193-17.91-1.353-1.049-2.81-.006-3.744 1.353-6.533 8.422-12.962 16.007-24.101 20.033-6.643 1.659-13.443-1.019-16.655-5.369-2.15-2.476-2.068-5.21-2.857-5.802-3.59 1.588-34.486 14.716-30.57 8.6 7.519-8.048 20.537-13.959 32.033-21.903.829-2.661 2.338-11.664 6.879-14.597.262.022-.72 5.287-.621 7.508.051 1.823-.134 2.537.265 2.068.776-.494 14.725-11.455 15.803-14.817 1.361-1.927.408-6.809.408-6.957-2.616-6.742-6.286-7.315-7.646-10.665-1.225-4.45-.671-9.53 1.873-10.945 2.258-2.05 4.934-1.797 7.401.444 2.818 2.524 5.32 7.455 6.044 11.13-.484 1.453-3.687-.966-4.798-.245 1.967 2.037 2.885 4.386 3.596 7.261 1.817 7.695 1.263 10.688-.566 15.664-6.194 13.022-14.108 16.908-21.034 21.732-.185.066-.308 3.304 2.297 5.056.898.942 4.51 1.426 8.758.066 8.207-4.476 16.728-12.721 20.958-21.907 1.228-6.948-.475-14.316-2.282-20.741-2.722-6.28-5.928-15.246-5.928-15.394-.105-3.916.213-5.274 1.93-7.228z" fill="#fff"/>
    <path d="M184.662 127.003c3.949 1.883 11.373 1.082 11.059-5.285 0-.563-.143-2.468-.199-2.984-.806-1.877-3.005-1.414-3.504.524-.157.635.28 1.668-.295 1.988-.33.333-1.592.137-1.539-1.622 0-.56-.413-1.163-.662-1.518-.25-.164-.408-.209-.86-.209-.551.022-.542.165-.844.628-.128.471-.305.932-.305 1.466-.069.626-.305.85-.765.942-.515 0-.399.057-.816-.209-.248-.271-.557-.374-.557-.837 0-.479-.108-1.254-.253-1.57-.219-.288-.57-.422-.966-.523-2.157.007-2.306 2.467-2.182 3.401-.162.176-.254 4.588 2.688 5.81z" fill="#fff"/>
    <path d="M300.416 175.997c3.949 1.883 13.348.799 11.059-5.285 0-.563-.143-2.468-.199-2.984-.806-1.877-3.005-1.414-3.504.524-.157.635.28 1.668-.295 1.988-.33.333-1.592.137-1.539-1.622 0-.56-.413-1.163-.662-1.518-.25-.164-.408-.209-.86-.209-.551.022-.542.165-.844.628-.128.471-.305.932-.305 1.466-.069.626-.305.85-.765.942-.515 0-.399.057-.816-.209-.248-.271-.557-.374-.557-.837 0-.479-.108-1.254-.253-1.57-.219-.288-.57-.422-.966-.523-2.157.007-2.306 2.467-2.182 3.401-.162.176-.254 4.588 2.688 5.81z" fill="#fff"/>
    <path d="M367.916 155.719c3.949 1.883 11.373 1.082 11.059-5.285 0-.563-.143-2.468-.199-2.984-.806-1.877-3.005-1.414-3.504.524-.157.635.28 1.668-.295 1.988-.33.333-1.592.137-1.539-1.622 0-.56-.413-1.163-.662-1.518-.25-.164-.408-.209-.86-.209-.551.022-.542.165-.844.628-.128.471-.305.932-.305 1.466-.069.626-.305.85-.765.942-.515 0-.399.057-.816-.209-.248-.271-.557-.374-.557-.837 0-.479-.108-1.254-.253-1.57-.219-.288-.57-.422-.966-.523-2.157.007-2.306 2.467-2.182 3.401-.162.176-.254 4.588 2.688 5.81z" fill="#fff"/>
    <path d="M402.875 206.653c-6.882 7.755-3.847 20.583-2.293 23.347 2.269 4.539 4.096 7.451 8.511 9.696 4.021 2.96 7.155 1.11 8.882-.963 4.047-4.194 4.095-14.901 5.994-17.022 1.332-3.898 4.687-3.232 6.316-1.505 1.578 2.269 3.437 3.732 5.755 4.967 3.775 3.33 8.282 3.938 12.722.904 3.034-1.702 5.007-3.901 6.784-8.267 1.974-5.279.874-29.67.479-44.126-.152-1.134-3.923-19.88-3.923-20.089 0-.21-.498-9.567-.913-11.797-.073-.905-.297-1.165.651-1.05 1.005.846 1.143.899 1.771 1.178 1.015.186 1.924-1.541 1.311-3.131l-9.42-17.375c-.756-.744-1.732-1.562-2.931.21-1.146 1.004-2.366 2.823-2.328 5.159l1.281 12.425 3.769 21.142c1.186 15.071 1.483 27.406 2.67 42.477-.166 6.381-2.15 11.946-4.011 12.748 0 0-2.831 1.641-4.73-.171-1.381-.554-6.908-9.211-6.908-9.211-2.825-2.59-4.688-1.85-6.699 0-5.544 5.354-8.054 15.369-11.821 22.278-.972 1.541-3.718 2.861-6.76-.112-7.726-10.555-3.198-25.573-4.16-21.712z" fill="#fff"/>
    <path d="M369.688 118.753c3.538 1.48 6.033 8.647 5.219 12.145-.704 4.328-2.581 9.003-3.93 8.394-1.466-.544 1-4.302-.409-8.246-.783-2.567-5.61-7.257-5.102-8.64-.997-2.897 2.052-4.165 4.222-3.654z" fill="#fff"/>
    <path d="M414.266 210.9c.744-8.605-.512-13.852-.735-18.91-.223-5.058-5.721-43.649-6.835-47.476-1.345-7.236 5.344-.97 4.614-5.179-2.314-5.306-8.074-13.031-9.882-17.64-1.088-1.975-.631-3.731-3.066-.52-2.258 7.384-3.042 13.419-2.18 18.005 5.801 30.273 11.75 55.444 10.806 84.262 2.751.018 5.922-6.294 7.28-12.541z" fill="#fff"/>
    <path d="M474.706 130.95c3.225 1.603 5.114 10.583 4.758 13.149-.642 4.686-2.352 9.747-3.582 9.088-1.336-.588.268-6.949-.373-8.927-.713-2.779-5.114-7.857-4.651-9.354-.909-3.136 1.871-4.508 3.849-3.956z" fill="#fff"/>
    <path d="M235.016 194.625c3.085 1.178 4.893 7.777 4.553 9.663-.615 3.443-2.253 7.161-3.427 6.678-1.279-.433.256-5.107-.358-6.56-.26-3.525-4.542-5.35-4.452-6.873-.799-2.799 1.791-3.314 3.685-2.907z" fill="#fff"/>
    <path d="M309.556 204.534c3.982.253 5.971 3.377 2.242 4.687-3.679 1.26-7.215 2.244-7.231 7.56 1.361 7.408-1.867 4.866-3.791 3.86-2.268-1.629-8.633-5.549-9.54-14.016-.136-2.02 1.439-3.72 3.975-3.709 3.82 1.038 9.457 1.114 14.345 1.618z" fill="#1b9d00"/>
    <path d="M152.562 116.616c4.552 1.372 4.821 8.062 4.485 10.018-.607 3.57-2.219 7.425-3.377 6.922-1.26-.448-.049-5.294-.654-6.801-.674-2.117-4.521-5.985-4.084-7.125-.856-2.39 1.765-3.436 3.63-3.014z" fill="#fff"/>
    <path d="M242.45 148.153c-3.492 1.889-4.847 7.519-2.673 10.798 2.031 2.887 5.239 1.817 5.666 1.817 3.421.428 5.452-6.414 5.452-6.414s.107-1.924-3.956 1.712c-1.71.32-1.924-.321-2.351-1.284-.356-1.781-.285-3.563.534-5.345.606-1.71-.713-2.459-2.673-1.283z" fill="#fff"/>
    <path d="M268.644 114.028c-1.755 1.177-5.248 4.795-5.355 8.965-.106 2.352-.545 2.346.996 3.842 1.113 1.604 2.235 1.46 4.481.284 1.29-.95 1.726-1.581 2.161-3.175.535-2.673-2.825 1.268-3.253-1.707-.748-2.762 1.41-3.892 3.441-6.564.068-1.831.028-3.127-2.47-1.645z" fill="#fff"/>
    <path d="M289.747 117.778c-.757 1.671-1.663 10.4-1.512 10.4-.604 2.601 2.722 3.714 4.234.371 2.267-6.129 2.267-8.729 2.419-11.329-.706-3.96-3.377-3.837-5.141.558z" fill="#fff"/>
    <path d="M422.797 185.484c.454-.454 18.748-13.456 18.748-13.456 1.865-.655 1.461 6.703.605 6.652.352 1.461-18.042 13.959-19.354 13.456-.907.655-1.814-5.039 0-6.652z" fill="#fff"/>
    <path d="M439.475 185.372c3.225 1.603 4.509 11.037 4.153 13.603.114 4.989-3.108 8.991-4.338 8.332-1.336-.588.117-6.194-.524-8.172-.713-2.779-3.451-8.008-2.989-9.505-.909-3.136 1.72-4.811 3.698-4.258z" fill="#fff"/>
    <path d="M330.659 226.003c1.272-1.86 5.203-4.536 5.292-4.536 1.813-.908 3.585.711 3.478.605.302 1.814-1.148 3.503-.694 5.923.397.975.687 2.058 2.474 1.645 2.905-2.286 5.596-2.433 8.5-2.579 2.226.135 2.314 3.903.907 3.931-5.364 1.166-7.767 2.602-11.597 4.064-1.814 1.058-3.371-.284-3.371-.435s-1.061-1.03-.32-3.433c.132-1.927-.644-2.984-2.25-2.765-1.21.654-2.275 1.088-2.88-.303-.238-1.027-.315-1.526.461-2.116z" fill="#fff"/>
    <path d="M458.722 231.084c.784.998 1.291 1.921-.063 3.56l-3.47 2.999c-.606 1.033-.993 2.601.86 3.1 3.421.962 11.332-4.169 11.332-4.277 1.283-.962.855-2.779.748-2.779-.748-.855-2.434-.347-3.568-.486-.54 0-2.311-.268-1.468-1.836.703-.975.955-1.572 1.432-2.774.534-1.176.075-1.96-1.849-2.602-1.96-.356-2.743-.178-4.917 0-1.176.25-1.577.775-1.791 2.2.084 2.162 1.399 2.039 2.753 2.894z" fill="#fff"/>
    <path d="M331.456 177.782c-.502.868-2.199.827-3.79-.092s-2.473-2.367-1.971-3.236 2.199-.827 3.79.092 2.473 2.367 1.971 3.236z" fill="#259f00"/>
    <path d="M247.978 127.644c-.951.233-2.194-.614-2.777-1.892s-.284-2.502.667-2.735 2.194.614 2.777 1.892.284 2.502-.667 2.735z" fill="#259f00"/>
    <path d="M413.038 351.534c8.767.428 17.003.1 25.77.527 1.588 1.35.454 4.665-.605 4.427l-7.343-.214c-.098-2.793-7.224-2.334-7.019.089-3.848.463-7.319-.134-11.168-.277-1.138-1.417-.992-3.967.365-4.553z" fill="#209000"/>
  </g>
</svg>
