<svg xmlns="http://www.w3.org/2000/svg" id="flag-icon-css-sb" width="640" height="480">
  <defs>
    <clipPath id="a">
      <path fill-opacity=".67" d="M0 0h682.67v512H0z"/>
    </clipPath>
  </defs>
  <g fill-rule="evenodd" stroke-width="1pt" clip-path="url(#a)" transform="scale(.9375)">
    <path fill="#0000d6" d="M0 507.17L987.43 0H0v507.17z"/>
    <path fill="#006000" d="M1024 0L27.17 512H1024V0z"/>
    <path fill="#fc0" d="M1024 0h-54.86L0 485.36V512h54.86L1024 27.6V0z"/>
    <path fill="#fff" d="M71.4 9.12l11.85 34.45 38.47-.03-31.14 21.25 11.92 34.43-31.1-21.3-31.11 21.3L52.2 64.78 21.07 43.53l38.47.04zm191.14 0l11.86 34.45 38.47-.03-31.15 21.25 11.92 34.43-31.1-21.3-31.11 21.3 11.92-34.43-31.14-21.26 38.47.04zm0 144.48l11.86 34.45 38.47-.03-31.15 21.25 11.92 34.43-31.1-21.3-31.11 21.3 11.92-34.43-31.14-21.26 38.47.04zm-95.01-71.4l11.85 34.45 38.47-.03-31.14 21.26 11.92 34.42-31.1-21.3-31.11 21.3 11.92-34.42-31.14-21.27 38.47.04zM71.4 153.6l11.85 34.45 38.47-.03-31.14 21.25 11.92 34.43-31.1-21.3-31.11 21.3 11.92-34.43-31.14-21.26 38.47.04z"/>
  </g>
</svg>
