<svg xmlns="http://www.w3.org/2000/svg" height="480" width="640">
  <g fill-rule="evenodd" clip-path="url(#a)">
    <path d="M0 475.472l925.716-475.472h-925.716v475.472z" fill="#0000d6"/>
    <path d="M960 0l-934.528 480h934.528v-480z" fill="#006000"/>
    <path d="M960 0h-51.429l-908.569 455.025v24.975h51.428l908.569-454.125v-25.871z" fill="#fc0"/>
    <path fill="#fff" d="M66.831 8.502l11.111 32.275 36.052-.024-29.186 19.917 11.167 32.261-29.15-19.965-29.15 19.96 11.173-32.256-29.181-19.926 36.052.034z"/>
    <path fill="#fff" d="M246.027 8.502l11.111 32.275 36.052-.024-29.186 19.917 11.167 32.261-29.15-19.965-29.15 19.96 11.173-32.256-29.181-19.926 36.052.034z"/>
    <path fill="#fff" d="M246.027 143.951l11.111 32.275 36.052-.024-29.186 19.917 11.167 32.261-29.15-19.965-29.15 19.96 11.173-32.256-29.181-19.926 36.052.034z"/>
    <path fill="#fff" d="M156.953 77.016l11.111 32.275 36.052-.024-29.186 19.917 11.167 32.261-29.15-19.965-29.15 19.96 11.173-32.256-29.181-19.926 36.052.034z"/>
    <path fill="#fff" d="M66.831 143.951l11.111 32.275 36.052-.024-29.186 19.917 11.167 32.261-29.15-19.965-29.15 19.96 11.173-32.256-29.181-19.926 36.052.034z"/>
  </g>
</svg>
