<svg xmlns="http://www.w3.org/2000/svg" height="480" width="640" version="1">
  <g fill-rule="evenodd" clip-path="url(#a)">
    <path fill="#fff" d="M-20 0h720v480h-720z"/>
    <path fill="#df0000" d="M-20 0h720v240h-720z"/>
    <path d="M146.05 40.227c-33.244 7.622-57.944 32.237-64.927 65.701-9.488 45.469 20.124 89.991 65.687 99.488-46.031 13.125-93.59-13.331-106.594-58.931-12.997-45.6 13.461-93.161 59.063-106.162 16.008-4.565 30.745-4.594 46.774-.095z" fill="#fff"/>
    <path fill="#fff" d="M132.905 109.806l4.893 15.115-12.929-9.228-12.867 9.315 4.782-15.14-12.83-9.352 15.873-.137 4.931-15.103 5.03 15.065 15.885.025z"/>
    <path fill="#fff" d="M150.464 161.866l4.893 15.115-12.929-9.228-12.867 9.315 4.782-15.14-12.83-9.352 15.873-.137 4.931-15.103 5.03 15.065 15.885.025z"/>
    <path fill="#fff" d="M208.889 161.491l4.893 15.115-12.929-9.228-12.867 9.315 4.782-15.14-12.83-9.352 15.873-.137 4.931-15.103 5.03 15.065 15.885.025z"/>
    <path fill="#fff" d="M226.318 109.853l4.893 15.115-12.929-9.228-12.867 9.315 4.782-15.14-12.83-9.352 15.873-.137 4.931-15.103 5.03 15.065 15.885.025z"/>
    <path fill="#fff" d="M180.061 75.597l4.893 15.115-12.929-9.228-12.867 9.315 4.782-15.14-12.83-9.352 15.873-.137 4.931-15.103 5.03 15.065 15.885.025z"/>
  </g>
</svg>
