<svg
	xmlns="http://www.w3.org/2000/svg" id="flag-icons-sh" xml:space="preserve" style="fill-rule:evenodd;clip-rule:evenodd" viewBox="0 0 640 480">
	<path d="M0 0h1280v960H0z" style="fill:#012169;fill-rule:nonzero" transform="scale(.5)"/>
	<path d="m75 0 244 181L562 0h78v62L400 241l240 178v61h-80L320 301 81 480H0v-60l239-178L0 64V0h75Z" style="fill:#fff;fill-rule:nonzero" transform="scale(.5)"/>
	<path d="m424 281 216 159v40L369 281h55Zm-184 20 6 35L54 480H0l240-179ZM640 0v3L391 191l2-44L590 0h50ZM0 0l239 176h-60L0 42V0Z" style="fill:#c8102e;fill-rule:nonzero" transform="scale(.5)"/>
	<path d="M241 0v480h160V0H241ZM0 160v160h640V160H0Z" style="fill:#fff;fill-rule:nonzero" transform="scale(.5)"/>
	<path d="M0 193v96h640v-96H0ZM273 0v480h96V0h-96Z" style="fill:#c8102e;fill-rule:nonzero" transform="scale(.5)"/>
	<path d="M999.475 257.01c-.192 67.849-10.979 140.945-99.473 175.763-88.498-34.818-99.285-107.914-99.477-175.763h198.95Z" style="fill:#5f7dbd;fill-rule:nonzero" transform="translate(-98.412 47.209) scale(.64268)"/>
	<path d="M999.475 257.01c.076-25.558-1.356-50.372-.703-72.116-33.068-14.686-76.581-17.706-98.77-17.706-22.193 0-65.706 3.02-98.774 17.706.653 21.744-.774 46.558-.703 72.116h198.95Z" style="fill:#f2d049;fill-rule:nonzero" transform="translate(-98.412 47.209) scale(.64268)"/>
	<path d="M900.002 432.773c40.117-15.783 64.266-39.438 78.694-66.902-2.159.083-6.684-.046-8.639-.179-2.177-.141-84.852-8.383-94.643-11.948-8.518-3.099-41.017 2.634-56.187 8.014 14.153 29.213 38.665 54.447 80.775 71.015Z" style="fill:#e8ece9;fill-rule:nonzero" transform="translate(-98.412 47.209) scale(.64268)"/>
	<path d="M847.787 392.396c2.608-.216 9.682-2.268 10.44-2.916 1.741 1.188 4.789 2.808 6.095 2.808-2.504.54-4.136.216-4.789-.216.326.756 1.197 1.945 1.741 2.053-2.394-.108-5.111-.648-5.981-1.513-2.068.865-5.551 1.081-7.506-.216ZM852.463 395.637c.925.27 5.546 1.026 6.145 1.026-1.524 1.292-.218 2.534 2.34 2.318-1.252.162-2.616.632-1.687.81 2.231.432 8.267-1.188 9.464-1.836-2.068 2.646-12.126 5.077-16.262-2.318ZM856.599 402.221c1.247-.648 4.349-.432 5.818.271-1.632.594-4.839.594-5.818-.271Z" style="fill:#9cb8c5;fill-rule:nonzero" transform="translate(-98.412 47.209) scale(.64268)"/>
	<path d="M861.274 402.113c2.231-.378 8.539 1.135 10.771-.216-.762 1.999-4.735 2.269-6.095 1.837-1.356-.432-2.662-.972-3.587-.918.489-.27-.327-.324-1.089-.703ZM863.56 405.192c1.687.266 7.723-.486 9.573-1.188 1.955.648 5.818 1.67 6.689 1.562-1.85 1.134-5.387.486-6.526 0-3.265 1.08-5.931 1.404-9.736-.374Z" style="fill:#9cb8c5;fill-rule:nonzero" transform="translate(-98.412 47.209) scale(.64268)"/>
	<path d="M866.444 406.201c2.415.54 4.475.154 6.852-.635.741.315 2.487.702 4.127.623 1.093.619 2.562 1.483 3.977 1.591-1.469.594-6.856 0-7.941-.594-2.72.054-7.4.648-8.539 1.566-.054-.756.44-1.807 1.524-2.551ZM863.56 394.017c1.883.623 8.702.324 12.181-1.297 1.373-.639 2.222.433.653.973-5.655 1.944-10.118 2.7-13.378.972-1.29-.682-1.415-1.296.544-.648ZM896.955 384.84c-8.376 3.884-13.927 5.072-25.563 1.512-1.085-.333-1.851 0-.653.756 1.197.752 7.614 2.48 9.137 2.588 1.524.108.98.81.055 1.08-.925.27-1.197.918.054.432 1.252-.486 8.242-.669 11.097.81 1.247.648 1.574.54 1.465.054-.109-.486.544-.81 1.469-.918.925-.108 1.469-.432.762-.702-.707-.27-.816-.432-.272-.702.544-.27.599-.54-.218-.702-.816-.162-1.36-.378-.598-.756.762-.374 1.904-.648 2.775-.752.218-.594-.163-2.16.49-2.7Z" style="fill:#9cb8c5;fill-rule:nonzero" transform="translate(-98.412 47.209) scale(.64268)"/>
	<path d="M883.028 385.812c4.789.336 13.6-1.836 18.28-6.369 1.628.968 3.914 2.048 5.111 2.264 1.197.216 2.285 1.296.435 1.296s-4.462-.756-5.655-1.296c-6.203 3.781-13.462 5.023-18.062 4.645-1.302-.108-1.628-.648-.109-.54ZM868.888 359.901c1.633 1.134 4.517 3.02 8.268 2.75 1.85 1.458 4.734 2.701 6.04 2.971-2.503 1.026-5.224 1.89-5.932 2.7-1.142-1.08-2.607-.918-2.988-1.458-1.089.864-.925 1.404-.218 1.836.707.432 6.199 1.35 7.56.972 1.36-.378 1.724.74.598 1.13-2.938 1.026-8.648.054-10.607-3.074-1.959-3.133-3.646-4.321-8.974-1.458-.599-1.513-.599-1.891-1.633-1.891s-2.938-1.35-1.469-1.296c1.469.054 5.823-.594 9.355-3.182Z" style="fill:#9cb8c5;fill-rule:nonzero" transform="translate(-98.412 47.209) scale(.64268)"/>
	<path d="M870.194 366.864c-.908.224-3.482 1.62-4.403 1.728-.925.108-2.558 1.404-.871 1.458 1.683.054 3.86-1.782 5.057-1.944 1.197-.162 1.306-1.512.217-1.242ZM875.469 372.314c-.645.112-3.424.756-4.186.702-.762-.054-1.524.162-1.47.702.055.54.273.865-.87.756-1.143-.108-2.122.325-2.395.649-.272.324-.489.648.653.756 1.143.108 1.742.216 3.048-.378s2.557-1.513 3.972-1.567c1.411-.054 2.826-1.89 1.248-1.62Z" style="fill:#9cb8c5;fill-rule:nonzero" transform="translate(-98.412 47.209) scale(.64268)"/>
	<path d="M871.555 375.663c1.189.764 7.07 2.754 9.192 2.592 2.122-.162 1.725.843.109 1.188-3.32.698-7.372-.735-10.117-2.916-1.361-1.08-.109-1.458.816-.864Z" style="fill:#9cb8c5;fill-rule:nonzero" transform="translate(-98.412 47.209) scale(.64268)"/>
	<path d="M899.403 378.525c-4.499 1.425-9.083.918-10.933.432-1.85-.486-3.537-.594-2.286.594 1.252 1.184 5.279 1.994 7.56 1.4-8.104 1.836-10.226 1.674-12.235 1.35-2.014-.324-5.793-.253-7.397-.108-1.197.108-2.829-.054-3.537-.486-.707-.432-.925-1.242 1.197-1.026 2.119.216 2.395-.216.545-.486-1.851-.27-4.408.486-1.905 2.052s7.995-.108 11.478.864c3.478.973 10.875 1.675 17.894-3.942.36-.287.98-1.076-.381-.644ZM877.319 371.936c.163.54.163 1.134 0 1.512-.163.378-.163.864.544.324.707-.54 1.143-1.188 1.85-.81.707.378 2.503.324 3.315.216.821-.108 1.089-.27-.104-.756-1.198-.486-2.395-.648-3.048-.594-.653.054-1.469-.108-2.013-.324-.544-.216-.707-.108-.544.432Z" style="fill:#9cb8c5;fill-rule:nonzero" transform="translate(-98.412 47.209) scale(.64268)"/>
	<path d="M888.905 374.042c-.925.054-2.557-.54-3.428-.918s-2.118-.432-1.193.81c.921 1.243 4.948 1.945 6.363 1.351 1.414-.595.816-1.243 2.226-.378 1.415.864 2.885 1.458 3.918 1.458 1.034 0 1.415 0 .273-.648-1.143-.648-1.687-.81-1.796-1.351-.109-.54-.272-.864.762-.54 1.034.324 2.231.918 3.047.486.816-.432 2.336-1.404 3.696-1.404l.327-.81c-1.959-.162-3.207.432-3.751.648-.544.216-1.524.324-2.558.162-1.033-.162-2.394-.27-2.72-.54-.327-.27-.327-.486.544-.648.87-.162 1.143-.756-.055-.54-1.197.216-4.403.108-6.09-.432-1.687-.536-2.394-.59-3.102-.324-.707.27-.598 1.026.436 1.08 1.033.054 3.373.27 4.19 1.026.816.756.707.81-.218.432-.925-.378-2.612-.162-.871 1.08ZM903.1 372.098l-.327.81c2.013-.054 6.911.432 8.485 1.404 1.523-1.188 1.251-1.566 2.34-1.35 1.088.216 2.448.594 3.047.27.599-.324 1.034-.27 1.687-.162.649.108 2.064-.162 2.88-.648.816-.486 2.503-1.134 3.482-1.134.98 0 2.173-.216.381-.486-1.795-.27-4.516.27-5.441.594-.921.324-3.696.54-5.329.54-1.632 0-3.859.81-5.709.324-1.851-.486-4.408-.162-5.496-.162ZM928.282 371.126c-3.261 2.376-7.179 2.916-11.855 3.24-1.36.096-.941.478.218.595 4.893.486 10.553-1.297 12.399-3.241.535-.561.477-1.491-.762-.594ZM906.038 376.635c1.415.054 6.308 1.296 7.886 1.836 1.197-.108 1.524-.378 1.306-.81-.217-.432-.381-.918 1.796-.81 2.172.108 7.179.054 8.104.054.762-.324 2.444-1.62 3.206-1.674-1.955.108-10.113.54-11.147.432-1.034-.108-1.578 0-2.231.378-.653.378-1.034.54-1.85.216-.816-.324-2.285-.756-3.098-.27-.816.486-2.503.054-3.972.648Z" style="fill:#9cb8c5;fill-rule:nonzero" transform="translate(-98.412 47.209) scale(.64268)"/>
	<path d="M925.13 376.905c.762-.324 2.444-1.62 3.206-1.674 1.415-.108 3.048.486 3.809.594.762.108 1.578-.054 1.034-.648s-.054-1.621 2.177-1.351c2.227.27 3.37.648 5.546.432 2.177-.216 3.156 1.405 7.288-.216-.327 1.621.435 1.729 1.197 1.405.762-.324 1.632-.216 2.938.756 1.306.972 9.247 1.08 11.097.756 1.846-.324 2.826.648 1.411 1.08-1.411.432-1.741 1.08-1.411 1.512.323.428.649.968-1.088.752-1.741-.216-2.068.324-2.939.972-.87.648-1.088.864-3.482.432-2.39-.432-2.826-.108-4.132.108-1.306.216-1.632.216-2.938-.216-1.306-.432-4.132-.864-5.873-.324-1.741.54-3.047 1.08-4.571.648-1.524-.432-1.632-.216-.653-1.188.98-.972 1.197-.864 3.047-1.08 1.851-.212 3.265-.752 1.959-1.508s-1.741-.648-3.482.216c-1.742.864-2.612 1.4-4.567.324-1.959-1.08-2.939-.864-4.245-.54-1.306.324-3.478-.432-5.328-1.242ZM931.656 380.141c-2.491.353-3.161-1.238-5.764-.914-.871.108-2.34 1.184-.327 1.022 2.009-.162 4.186.918 6.145.756 1.959-.162 1.088-1.026-.054-.864ZM928.772 382.031c1.31-.473 4.026.432 5.169.216 1.143-.216 2.231.486 1.034.864-1.197.378-4.081-.702-5.387-.324-1.306.378-2.608-.108-.816-.756ZM902.773 388.994c1.796.058 8.267-.216 10.825-5.613.196-.415.381-.594 1.197-.054.816.541 3.809 2.323 9.41 2.809 1.569.137 3.265.918.109.702-3.157-.216-8.159-1.08-9.846-2.106-2.829 4.424-7.911 4.947-11.695 4.856-2.281-.054-1.737-.648 0-.594Z" style="fill:#9cb8c5;fill-rule:nonzero" transform="translate(-98.412 47.209) scale(.64268)"/>
	<path d="M916.754 381.653c-.871 1.188-3.864 3.241-5.224 3.349-1.356.108-5.438-.27-6.471-.648-1.034-.378-2.286-.27-.817.756 1.47 1.026 5.115 1.728 6.581 1.404 1.469-.324 3.156-.81 4.298-.108 1.143.702 3.265 2.048 4.513 1.778 1.251-.266 3.809-.266 4.625.108.816.378 2.231 1.512.109.864s-3.864-.108-4.843-.54c1.088 1.512 3.558 3.942 5.659 3.942.49 0 .816.865-.217 1.351 1.033.486 3.424.864 4.675-.27-.326.432-.163.702.381.972s1.197.648.218.756c-.98.108-3.207.378-3.86.108 2.118 1.346 7.615 3.506 13.215 2.426 1.068-.204 1.633-.644-.109-.594-3.591.108-3.805.054-4.458-.32-.653-.382-.544-.702.49-1.026 1.03-.324 3.642-.702 4.73-.702 1.089 0 2.177-.432-.054-.432s-4.948 0-6.036-.378c-1.089-.378-1.905-.864-.762-1.621 1.143-.756 2.34-.54 2.884-1.242-3.591-.054-7.999-1.944-5.55-3.668.569-.403.38-.432-.545-.54-.925-.108-3.641-.864-4.784-1.512-1.143-.648-.381-1.188.544-1.35-2.122.378-6.367-.756-9.192-2.863ZM948.68 381.545c-1.959 1.458-5.656 2.052-7.234 2.052-1.578 0-1.795.541-.544.703 1.252.162 2.612.324 3.156.162.545-.162.871-.216 1.683.162.816.378 2.558.594 4.081.108 1.524-.486 4.023-.702 5.057-.648 1.034.054 2.177.108.109-.487-2.064-.594-5.438-.162-6.254.054-.816.216-3.047.054-1.85-.324s2.231-.972 2.829-1.458c-.435-.108-.707-.216-1.033-.324ZM947.646 385.758c-1.687 1.242-4.132 2.426-6.635 2.534 2.286.81 4.19 3.132 5.655 3.024-.707.432-1.574 1.08-2.499 1.188 1.415.378 3.805-.054 5.764-1.134 3.265.918 7.505.324 8.92-.864-2.122 0-4.675-.756-5.818-1.728 1.034 0 2.009-.648 2.499-1.238-2.445.428-6.635-.756-7.886-1.782Z" style="fill:#9cb8c5;fill-rule:nonzero" transform="translate(-98.412 47.209) scale(.64268)"/>
	<path d="M944.167 392.504c.925-.108 1.792-.756 2.499-1.188-1.791.594-9.627-.648-11.963-2.7-2.34-2.048-2.34-.486-.707.972 1.632 1.458 4.512 3.673 10.171 2.916ZM949.931 397.469c-.979.54-5.655.864-7.179.54-1.523-.324-2.176-.162-1.795.432.381.594.544 1.134-.708.972-1.251-.162-3.482.108-4.403.432-.925.324-2.068 1.134-.109.81 1.955-.324 3.75-.702 5.22-.324 1.469.378 6.689.486 7.723.054 1.033-.432.326-.432-.164-.432-.489 0-.707-.324 0-.648.708-.324 1.252-1.242 1.415-1.836ZM904.678 391.208c-1.959.864-8.485 2.593-10.226 2.701-2.177.972-3.914 1.512-5.003 1.512.762.648 3.697 1.292 4.894.972-.653.644-2.173 1.4-2.717 1.724 1.737-.216 3.805.216 4.676.324-2.286 1.296-5.438 1.728-7.07 1.512.544.756 1.306 1.512 2.285 1.512-2.068.54-4.571.54-5.877.108.544 1.081 1.089 1.729 1.85 1.837-1.741.216-3.918.54-5.764-.54 1.411 1.836 4.567 2.48 9.247 1.944 4.676-.54 8.594-2.593 9.682-3.457-1.959.216-4.571.324-5.877.108 2.612-.648 8.267-3.024 9.247-3.996-1.089 0-2.173-.324-2.939-.864 1.524.216 6.857-.428 8.489-1.076-1.959-.432-3.156-1.62-3.7-2.376 6.852 2.16 14.479 1.454 18.167.54.87-.216.975-1.313-.762-1.189-3.048.216-8.92-.648-10.444-1.404 1.415 1.08 3.156 1.728 4.353 1.944-2.829.757-6.743 1.297-12.511-1.836Z" style="fill:#9cb8c5;fill-rule:nonzero" transform="translate(-98.412 47.209) scale(.64268)"/>
	<path d="M891.626 398.117c.544-.324 2.064-1.08 2.717-1.724-1.197.32-4.132-.324-4.894-.972 1.089 0 2.826-.54 5.003-1.512-3.914-.108-6.635-.108-8.05-.865-1.415-.756-4.023-.54-5.002-.324-.98.216-.653 1.837 3.478 1.405-1.741 1.188-6.417 1.62-8.158 1.188.436 1.4.762 2.804.327 3.56 2.285 1.296 8.267 2.916 11.205 2.7-2.612-.972-4.027-2.052-1.85-2.268 2.177-.216 3.374-.648 5.224-1.188ZM884.878 405.138c5.208-.432 12.181-.524 17.732-5.185 1.415-1.188 2.365-.789.979.432-2.934 2.593-10.226 6.153-17.187 6.261-2.834.046-4.131-1.296-1.524-1.508ZM923.878 396.605c-1.306.486-4.952 1.08-6.036.918-1.088-.162-2.666-.216-3.537.324s-.925.864.272.972c1.197.108 2.721.216 3.483.162-.98.54-1.633 1.296-1.85 1.62 1.741-.432 4.947.324 5.873.864-.708.216-1.524-.054-2.123-.378 2.939 3.079 11.641 3.079 13.056 2.539-.653.486-1.252.972-1.905 1.134 2.449.432 5.275.378 8.05-1.242-.925.162-3.696-.108-4.404-.162a5.255 5.255 0 0 1 2.118-1.243c-1.084-.216-4.512-.108-5.328.325.326-.649.925-1.459 1.578-1.729-4.299 0-9.519-.054-11.423-1.08 3.047.324 6.421-1.458 7.831-1.458-2.39-.054-5.002-.594-5.655-1.566ZM912.945 398.981c-2.122.432-5.329 1.296-6.2 1.782-.87.486-1.795.756.109.756 1.905 0 7.07.216 8.213.378-2.884-.432-6.798-.54-7.56-.54-.762 0-1.632-.054-.217-.486 1.414-.432 3.265-1.404 5.655-1.89ZM908.65 404.004c.758 0 4.077 0 5.383-1.134 1.36 1.026 3.972 2.48 5.655 2.48 1.687 0 1.524.432.055.594-1.465.162-4.35-.698-5.819-1.778-1.959.702-3.587.108-5.274-.162ZM883.468 418.523c3.369 1.296 7.832 2.269 11.092 1.188 1.851 1.621 5.66 1.729 7.723 1.297 2.068-.433 3.918-.649 6.204.108 2.281.756 6.961.81 8.267 1.886-1.197.058-3.755 0-4.353.166-.599.158-.273.536.816 1.13-3.696-.216-10.063 1.35-12.018 3.024.703-1.674 2.88-3.942 6.308-3.942-1.959-.698-8.212-.752-10.226.486-.598-.648-1.306-1.724-1.36-2.156-3.315 1.886-9.845-.81-12.453-3.187ZM874.816 412.479c4.014-.57 6.747-1.837 7.944-3.025.708.648 3.642 1.296 6.853.324-.653.486-.708 1.404-.436 1.891-2.122.054-6.149 1.08-7.505 1.782-1.36.698-5.333 1.184-6.635.482-1.306-.698-1.36-1.292-.221-1.454Z" style="fill:#9cb8c5;fill-rule:nonzero" transform="translate(-98.412 47.209) scale(.64268)"/>
	<path d="M889.177 411.669c-2.122.054-6.149 1.08-7.505 1.782.272.54.435 1.4.49 1.994 3.914-1.404 12.888-2.264 16.316-1.724-1.632.108-4.734 1.778-6.471 1.994 4.24-.324 8.376.54 9.46.81 1.088.27 1.306 1.08.49 1.836-.816.756-1.193.864.544.918 1.741.054 5.333-.162 6.965-1.728-.653-.702-2.34-.432-2.829-.918 1.142-.378 2.448-1.188 2.938-1.782-2.938-.054-4.027-.108-5.006-.324-.98-.212-1.687-.486-.49-1.13 1.197-.648 1.741-1.188 2.122-1.62-2.122.594-5.437 1.08-8.212-1.081 1.034.27 3.478.108 4.349-.27-.925-.486-1.683-.864-2.445-.864 2.227-1.08 6.635-2.052 12.072.108 2.721-.216 5.66-.108 7.723.432.871-.864 2.721-2.916 3.701-3.456-6.417.54-17.95-.648-17.732-3.992-2.068 2.696-6.852 4.208-8.92 3.776-.218.972.653 2.16 1.415 2.808-2.177.432-5.877.756-7.614.432.979.972 2.825 1.837 3.914 1.728-2.282 0-3.479.433-5.275.271Z" style="fill:#9cb8c5;fill-rule:nonzero" transform="translate(-98.412 47.209) scale(.64268)"/>
	<path d="M902.501 419.279c1.741.054 5.333-.162 6.965-1.728-.653-.702-2.34-.432-2.829-.918 1.142-.378 2.448-1.188 2.938-1.782 4.567-.374 8.648-.158 10.603-.752 1.959-.594 6.965-.27 7.945-.54-4.354.698-5.224 1.076-5.442 1.778-.218.702 1.415 1.296 2.449 1.296-1.959-.108-4.408 1.944-4.626 2.754-2.607-1.512-3.859.27-4.131.864-1.088-.432-4.68-.324-6.53 1.243-2.39-.702-3.968-1.081-6.363-.702 1.47-.325 1.198-1.297-.979-1.513ZM923.389 406.646c1.469-.054 4.675.108 5.818-.054-.762.378-1.737 1.08-1.955 1.404 3.696-.432 8.753-.702 10.222-.486-1.792-.27-3.642.864-4.567 1.458-.925.594-.381.972.871 1.134 1.251.162 2.938 1.134.653.81-2.286-.324-6.798-.324-7.886-.162-1.089.162-1.687-.378-.109-.594 1.578-.216 2.662-.756 3.424-1.188-1.306.324-3.805.324-4.567.108-.762-.216-1.251-.648-.381-.864.871-.216.272-.54-.653-.432-.925.108-3.265 1.08-4.571 2.322 1.415-1.458 2.667-2.754 3.701-3.456ZM906.8 409.076c1.796 1.998 3.914 3.133 7.287 3.241.708.02 2.026.963.327 1.026-4.571.162-6.852-.918-8.866-3.835-.414-.598.352-1.433 1.252-.432ZM934.05 371.342c2.403 1.126 7.233 2.106 10.988 1.944.653-.029 1.967.665.322.81-4.24.378-8.049-.211-11.582-2.16-.98-.54-.653-1.026.272-.594ZM936.499 371.288c3.696-.108 6.471-.054 7.614 1.026 2.118-.648 5.927-1.026 6.798-.864.87.162 1.85-.216-.164-.702-2.013-.482-6.689-.644-8.158-.374-1.469.266-6.04.428-7.56.266.653.108 1.085.216 1.47.648ZM950.856 372.746c1.742-.918 6.744-.054 8.267-.702-1.088 1.296 3.483 1.404 7.451.378-1.523.972-4.784 1.134-6.199 1.728-1.415.595-2.177.162-3.265-.324s-3.859-1.458-6.254-1.08Z" style="fill:#9cb8c5;fill-rule:nonzero" transform="translate(-98.412 47.209) scale(.64268)"/>
	<path d="M966.574 372.422c-3.968 1.026-8.539.918-7.451-.378-1.523.648-6.525-.216-8.267.702 1.796-1.08 3.156-.216 4.458-2.43.816.166 2.721.274 3.374-.59 1.143.27 3.156.756 3.755 1.346.598.594 1.519-.162.757-1.076 1.796-.648.658.769 4.843-.27.871-.216 2.993-.594 3.701-.648-1.415 1.134-3.102 2.372-5.17 3.344ZM964.778 384.516c-1.356.918-3.152 2.538-1.959 4.802.143-.075.277-.162.415-.241a131.826 131.826 0 0 0 13.776-20.086c.046-.241.087-.47.117-.669-1.524 1.296-3.918 2.588-4.898 2.912.653 1.728-2.39 3.997-4.022 4.645.653 1.08.435 2.7-.98 3.024.327.968-.762.968-2.068 1.508s-1.959.972-2.39 1.62c.703-.378 1.683-.702 2.227-.54.544.162.653.972-.326 1.188-.98.216-1.629.756-1.959 1.189 1.414-.541 3.428-.271 2.067.648Z" style="fill:#9cb8c5;fill-rule:nonzero" transform="translate(-98.412 47.209) scale(.64268)"/>
	<path d="M838.156 390.71c1.352-.436 3.934-.333 4.952-.15 1.197.216 1.414.324 1.85-.972.435-1.296 1.415-.972 2.176-.324.762.648 2.717.324 3.479-.756.762-1.076.979-.968 1.741-.216.762.756 1.089.54 1.85.324.762-.212 2.068-1.076 2.721-2.264.653-1.188 1.628-1.62 2.173-.972.544.648 1.088.972 1.85.864.762-.108.979.648.87 1.616-.108.972.327 1.188 2.177-.32 1.633 1.616 2.173.968 2.173-.756 0-1.728-.432-8.097-1.085-8.961-.653-.864-1.306-3.349-1.414-5.293-.205-3.668-.218-3.884-4.68-6.152 0-1.297-.327-1.837-3.479-1.621.109-.432-.435-1.728-1.088-2.268-.653-.54-.762-.756-.435-2.264 1.306.108 2.72-.108 3.482-1.188.758-1.08 3.261-.864 4.785-.216 1.523.648 3.482.756 6.417.324 1.088-.864 2.938-1.836 4.897-2.916 1.955-1.081 2.499-1.513 2.608-3.025.28-3.876-1.088-8.313-2.177-10.361-1.084-2.052-1.41-4.644-2.934-7.885-1.658-3.527-1.632-4.424-3.483-6.585-.506-.594-1.088-1.08-1.197-2.264-.109-1.188-.544-2.808-1.846-3.996-3.29-2.995-4.571-12.634-5.877-19.758-.749-4.084-.217-13.71-1.955-15.222-2.938-2.376-4.353-1.944-6.312-2.7-1.415-1.945-2.063-5.829-3.369-9.285-2.068.324-3.483 2.484-4.898 3.24-1.415.756-1.632.756-1.632 2.7 0 1.941-1.089 4.641-3.044 7.665-1.959 3.02-5.224 2.161-7.94 6.693-5.986-7.233-6.095-9.285-6.53-11.337-.435-2.048-1.415-2.481-4.785-5.397 0-.864-.435-4.316-.108-6.26-2.504-2.053-4.354-1.729-5.547-.217-1.197 1.513-2.068 3.777-3.918 4.641-1.109 1.4-4.453 4.931-7.191 9.135 2.491 37.572 11.034 74.87 36.723 104.699Z" style="fill:#9b7463;fill-rule:nonzero" transform="translate(-98.412 47.209) scale(.64268)"/>
	<path d="M805.904 286.593c1.088 1.728 3.047 4.699 3.265 6.315.761-1.567 1.36-2.264 1.523-3.237.163-.972 1.306-2.862.871-3.888-.436-1.026-.762-1.836.435-1.08 1.193.756.963 2.064.703 3.996-.703 5.289-2.934 6.369-3.26 9.933 3.21 7.503.816 10.203 4.294 17.544.544.324 1.997-.253 2.432-.145 1.846-1.296 3.228-.827 5.835-.287 2.612.54 4.027 2.372 4.027 3.993 0 1.62 0 2.052.544 3.024.545.972 1.633 2.484 1.415 3.564-.217 1.076.218 1.724.544 2.265.327.54-.108 1.728-.435 2.484-.326.756-.218 1.728 1.088 3.348 1.306 1.616 4.349 8.421 4.349 12.413 0 3.997.218 5.833 1.851 6.585 1.632.756 2.176 1.404 1.959 3.133-.218 1.728.761 10.689.979 12.093.218 1.404.762 1.08 1.415 1.836.649.752 1.084 1.616 3.261 1.616 2.176 0 4.278-.286 5.693-.07 1.959 2.7 3.156 6.368 3.591 8.636.435 2.269.398 5.364 1.16 5.364.761 0 1.523.108 1.306-2.701-.218-2.808-.436-3.24-1.415-4.64-.98-1.404-1.524-2.052-.98-2.916.544-.864.653-2.269.436-3.349-.218-1.08-.545-2.696 1.306-.54 1.85 2.16 2.394 2.701 2.938 3.457.544.756.758 2.16.653 3.456-.109 1.292.105 1.832.866 1.184.762-.644 1.742.432 1.306 1.836-.435 1.404.109 2.269 1.415 2.701 1.306.432 1.85.756 2.177 1.728.326.972 1.415 1.4 1.415-.54 0-1.944-.762-6.049-1.306-7.341-.544-1.296-.98-4.105-1.089-5.725-.108-1.62-.435-2.048-1.197-2.372-.762-.324-1.415-.864-1.523-1.62-.109-.756-.762-1.026-1.252-1.026s-.921-.378-1.193-.918-.544-.594-1.088-.648c-.544-.054-1.415.27-1.687-.594-.272-.865-.653-2.107-1.197-2.809s-1.034-.918-1.089-3.344c-.054-2.43-.108-2.754-.87-3.619-.762-.864-2.068-3.128-2.612-4.1-.54-.972-1.084-1.944-1.084.108 0 2.048 0 3.128 1.301 3.884 1.306.757 1.633.757 1.089 1.837s0 1.836.217 2.592c.218.756.653 1.512 0 2.264-.653.756-1.306.54-1.197-.644.109-1.188-.326-2.592-.866-3.564-.544-.972-.98-1.62-1.633-1.08s-1.197-.108-.762-.54c.436-.433.327-.757 0-1.081-.326-.324-.435-.648.109-1.296s.544-.972.218-2.48c-.327-1.512-2.721-9.069-3.809-10.797-1.089-1.728-.98-3.024.435-1.296s2.612 3.24 2.721 4.64c.109 1.404.435 2.268.871 2.808.435.541.761.325.979-.864.218-1.188 1.088-.756-.435-3.02-1.524-2.268-4.354-6.049-5.442-12.849-1.088-6.801-1.524-11.338-2.612-13.17-1.084-1.836-1.411-2.268-1.519-3.996-.109-1.728 0-3.457-.762-4.749-.762-1.296-1.306-1.512-1.415.432-.109 1.941.109 6.261.653 7.017.544.756.218 2.696.109 3.777-.109 1.08-1.821 2.147 1.741 4.32 1.415.864 1.193 2.052.98 2.808-.218.752-.436.644-1.198-.54-.761-1.188-1.523-2.16-2.285-2.808-.762-.648-.871-1.08-.762-2.592.109-1.513.435-2.593 0-3.129-.435-.54-.653-.108-.871.752-.217.864-.435 3.241-.87 3.889-.436.648-.653.216-.98-1.188-.326-1.405.109-3.561.871-6.045s1.197-5.077.544-8.313c-.653-3.24-.326-4.212-2.829-6.909-2.499-2.7-5.329-5.292-6.526-8.636-1.197-3.349-1.415-6.265-2.721-7.777-1.302-1.508-3.152-3.453-4.349-3.993v-4.964c0-1.188-.544-1.944-1.959-1.728-1.415.216-2.286 1.404-3.152 3.02-.871 1.62-1.524.864-2.721 3.672-1.197 2.809-2.938 4.209-2.938 7.233Z" style="fill:#b38c79;fill-rule:nonzero" transform="translate(-98.412 47.209) scale(.64268)"/>
	<path d="M813.735 318.224c.871.54 1.704.902 3.01.254 1.306-.648 2.867-2.518 4.609-.682 1.737 1.832 2.716 4.857 2.716 7.233 0 2.372 0 6.801 2.721 9.285 2.721 2.48 4.132 5.073 4.24 8.313.109 3.236 1.306 8.205 1.633 9.501.326 1.292 1.088 2.804 1.959 3.668.87.865 1.523 3.349 1.632 5.937.109 2.592-.326 4.429 0 5.725.327 1.296 0 2.376-.979 1.728-.98-.648-1.197-.972-1.742-2.052-.544-1.08-1.197-.864-.653.756.545 1.62 2.177 3.128 3.592 3.128s1.85.216 2.721 1.08c.866.864.975 1.296 2.499 1.296 1.523 0 1.741 0 3.156.432s1.415.216 2.177 0c.761-.216 1.519.432 2.063 1.837.544 1.404 1.85 5.288 1.85 6.368s0 2.161.762 3.241.544 2.16-.326 1.512c-.871-.648-.871-.432-1.524-.324-.653.108-1.088-.216-1.955-.756-.87-.54-.326-.432-1.197-1.728-.871-1.297-1.415-1.729-1.415-.757 0 .973-.109 2.161-.762 1.621s-.979-.54-1.523 0c-.544.54-.762.972-1.415-.108-.653-1.081-1.415-1.081-2.068-1.297-.653-.216-.653-.216-.975-1.188-.327-.972-1.306-1.188-2.177-1.188s-1.306-.432-1.415-1.08c-.109-.644-.653-1.076-1.088-1.4-.435-.324-.218-1.08-.327-1.836-.108-.756-.761-.432-1.197-.648-.435-.216-.761-.108-.761-1.188 0-1.081-.436-1.405-.762-2.161-.323-.756 0-1.512.217-2.372.218-.864.109-1.404-.54-2.16-.653-.756-.108-1.512-1.85-3.025-1.741-1.512-2.612-.216-3.156-3.776-.544-3.564-1.632-10.905-2.612-12.093-.979-1.188-1.628-2.052-2.608-2.377-.979-.324-1.632-.108-1.741-2.16-.109-2.048-.762-4.64-2.068-5.936-1.306-1.297-1.85-1.729-2.503-2.269s-.871-1.512 0-3.344c.871-1.836.544-4.32.435-5.509-.109-1.184-.435-2.696-.217-3.992.217-1.296.108-2.916-.218-3.78-.327-.865-.762-1.081-.218-1.729ZM839.951 287.528c-1.473 1.882-3.043 3.456-5.073 4.894-2.03 1.441-4.642 2.592-3.194 5.039 1.453 2.447 2.612 2.738 2.901 4.607.293 1.869.728 3.456 2.177 3.889 1.452.427 2.03.141 2.03 3.165 0 3.025 0 4.175 1.306 5.326 1.306 1.151 1.159 2.302 1.741 5.039.578 2.734.578 8.637 2.319 12.667 1.742 4.03 5.66 11.661 5.224 13.244-.435 1.583-1.017 2.734.724 4.603 1.742 1.874 2.901 4.607 3.048 6.19.142 1.587.435 2.16 2.172 1.587 1.741-.577 2.612-1.155 3.194-1.874.578-.718 1.737-.573 3.336.287 1.595.864 4.06 1.728 5.509.864 1.452-.864 2.176-2.156 3.482-2.156 2.031-1.441 2.755-4.466 3.19-5.326.435-.864.147-.864-.724-1.728s-.435-2.306-.582-3.743c-.142-1.442-.724-3.598-2.465-6.768-1.738-3.165-2.755-7.054-3.914-8.059-1.16-1.01-1.742-3.456-1.888-4.607-.142-1.151-1.448-2.16-2.319-3.025-.871-.86-1.741-2.156-2.754-7.195-1.018-5.039-1.742-8.637-1.742-9.501 0-.864-.146-1.01-1.017-1.296-.871-.287-1.306-1.728-1.013-2.447.289-.719-.293-1.438-.582-2.302-.288-.864 0-2.447.582-3.311.578-.864.436-3.311-.146-5.326-.582-2.014-1.16-3.743-3.483-4.033-2.319-.287-2.754-.86-3.625-2.734-.871-1.87-1.741-5.181-2.03-5.903-.289-.719-.724-.864-2.466.577-1.741 1.437-2.319 1.915-2.319 4.607 0 1.728.289 2.302.867 3.311.582 1.006.728 1.296 1.164 4.03.435 2.734 2.9 7.054-.293 9.501-3.19 2.447-2.755 3.024-2.608 4.749.142 1.728-.871 2.879-1.453.432-.577-2.447 0-3.885 1.742-5.036 1.741-1.154 3.336-2.592 2.176-4.175-1.163-1.582-1.595-5.326-1.741-7.054-.147-1.728-.435-2.305-1.453-1.009Z" style="fill:#b38c79;fill-rule:nonzero" transform="translate(-98.412 47.209) scale(.64268)"/>
	<path d="M814.112 324.232c-.08 1.171.184 2.459.276 3.493.109 1.189.436 3.673-.435 5.509-.871 1.832-.653 2.804 0 3.344.038.029.071.059.105.088 1.774-.59 2.005-2.555 1.527-3.507-.506-1.005-.36-2.231.218-3.236.582-1.009.582-1.583.075-2.306-.51-.718-.51-.718.072-2.733.51-1.774-.779-1.762-1.838-.652Zm18.552 27.896c-.327-1.296-1.524-6.265-1.633-9.501-.108-3.24-1.519-5.833-4.24-8.313-2.122-1.94-2.587-5.056-2.687-7.461-1.595-.968-2.269-.528-2.135 1.271.142 1.94 2.101 2.879 1.812 5.683-.288 2.809-.288 2.09 1.089 3.457s1.883 2.663 1.159 3.24c-.724.574-.799 1.583.218 1.94 1.013.362 1.088 1.442.942 2.447-.147 1.01.799 1.226 1.377 1.944.582.719.653 2.447.075 3.457-.582 1.005-.653 2.588.36 1.728 1.017-.864 1.453-.075 2.248 1.292.691 1.18 1.268.81 2.018.453a9.017 9.017 0 0 1-.603-1.637Zm14.144 25.155c-.653 1.296-1.415.864-2.068.216s-1.415-.648-1.088-1.836c.326-1.189.217-1.405-.653-2.053a6.772 6.772 0 0 0-.302-.207c-.272-.009-.59-.009-1.004-.009-1.524 0-1.633-.432-2.499-1.296a7.483 7.483 0 0 0-.536-.482c-.017.208-.008.482-.008.806 0 1.188 0 .972-1.198 1.296-1.197.324-.979-1.188-1.197-2.16a3.458 3.458 0 0 0-.188-.581c-1.31-.25-2.692-1.621-3.186-3.087-.544-1.62.109-1.836.653-.756.545 1.08.762 1.404 1.742 2.052.979.648 1.306-.432.979-1.728-.104-.416-.129-.898-.117-1.433-.234-.42-.552-.761-.971-.944-1.741-.756-1.197-.972-1.088-2.376.108-1.4-.218-1.4-1.306-.648-1.089.756-1.197-.108-1.197-2.264 0-2.16-1.415-2.16-1.738-.648-.326 1.512-.87.54-1.523-1.62-.653-2.161-1.524-2.701-1.633-.648-.092 1.736-.577 2.152-1.716 1.188.201 1.254.377 2.426.519 3.348.544 3.56 1.415 2.264 3.156 3.776 1.742 1.513 1.197 2.269 1.85 3.025.649.756.758 1.296.54 2.16-.217.86-.54 1.616-.217 2.372.326.756.762 1.08.762 2.161 0 1.08.326.972.761 1.188.272.133.624.058.879.166.281-.366.536-.814.863-1.138 1.306-1.297 3.265.108 3.918 1.728.653 1.62 1.41 2.052 2.39.756.979-1.296.653-1.08 1.741.108 1.088 1.188 1.524.972 1.524.972s1.088-.432 1.85.216 1.197.54 2.608-1.512c1.415-2.052-.649-1.404-1.302-.108ZM824.179 292.172c-1.076.079-1.812 1.014-1.197 4.283.385 2.024-1.16 1.583-1.737.574-.582-1.006-1.017-3.166-2.177-5.039-1.164-1.87-.582 1.296-.724 3.024-.147 1.728 1.013 1.728 2.03 3.166 1.013 1.441.142 2.019-1.017 2.019-1.16 0-.578 2.301-.289 3.884.289 1.583-.289 1.874-1.164.577-.866-1.296-.288-3.311-.142-5.758.142-2.447.289-1.873-1.306-2.447-1.595-.577-1.306-.864-.724-2.305.578-1.438 1.159-2.16.435-2.879-.728-.719-.582-1.151.578-1.296 1.159-.142.728-1.006 1.741-1.297 1.017-.286 1.453.146 1.595-1.724.121-1.562.649-2.521 1.829-2.048.712 2.406 1.637 6.149 2.269 7.266ZM850.688 318.046c.431-3.166.143-6.332 1.449-7.486 1.306-1.151 2.9-3.453 2.754 1.441-.142 4.894-.289 4.607-1.302 5.758-1.017 1.151-1.888 1.437-.871 3.311 1.013 1.87 1.16 2.015 1.013 4.894-.142 2.879-.142 4.03 1.018 5.471 1.159 1.438 1.448 1.583 1.741 3.166.289 1.583 1.302 3.743 2.608 4.894 1.306 1.15 2.758 4.462 2.9 6.767.147 2.302 2.177 2.879 4.061 4.462 1.888 1.583-.431 2.734-1.884 2.015-1.448-.719-.871 0-1.741 1.005-.871 1.01-1.16 1.155-1.884-.573s-3.194-2.879-4.353-3.311c-1.16-.432-2.173-2.306-3.19-4.175-.87-1.608-2.595-2.784-4.169-2.904.435 1.213.67 2.164.544 2.617-.435 1.583-1.017 2.734.724 4.603 1.742 1.874 2.901 4.607 3.048 6.19.142 1.587.435 2.16 2.172 1.587 1.741-.577 2.612-1.155 3.194-1.874.578-.718 1.737-.573 3.336.287 1.595.864 4.06 1.728 5.509.864 1.452-.864 2.176-2.156 3.482-2.156 2.031-1.441 2.755-4.466 3.19-5.326.435-.864.147-.864-.724-1.728s-.435-2.306-.582-3.743c-.142-1.442-.724-3.598-2.465-6.768-1.738-3.165-2.755-7.054-3.914-8.059-1.16-1.01-1.742-3.456-1.888-4.607-.142-1.151-1.448-2.16-2.319-3.025-.871-.86-1.741-2.156-2.754-7.195-.796-3.938-1.411-6.992-1.641-8.554-1.043 1.649-1.754 2.052-2.131.922-.435-1.292-1.017-2.014-1.595-1.15-.581.864-.728-.719-.728-1.438 0-.723-.142-.864-.871-.864-.724 0-.142-1.151-.435-3.311-.289-2.16-.724-2.447-1.013.146-.289 2.588-1.741 4.171-1.159 4.748.577.577.288 1.728-.293 3.456-.578 1.724-.289 2.734.146 3.885.435 1.15-.289 3.311-.582 5.184-.289 1.87 1.164 3.739 1.599.574Zm-11.896-8.924c0 3.025 0 4.175 1.306 5.326 1.306 1.151 1.159 2.302 1.741 5.039.578 2.734.578 8.637 2.319 12.667.519 1.201 1.235 2.725 1.968 4.312.962-.752 1.8-2.044 2.097-2.729.431-1.01-.871-3.025-1.888-4.749-1.013-1.728.146-2.305 1.159-4.466 1.018-2.156-.142-2.301-1.737-2.879-1.599-.573-1.599-2.015-2.469-4.316-.871-2.302-.725-3.311-.143-4.607.578-1.296.143-2.302-1.017-2.593-1.159-.286-.871-1.15-.435-2.588.435-1.441.724-1.728-1.013-1.296-1.319.324-1.637.569-2.03 1.043.096.415.142.993.142 1.836Z" style="fill:#dabcb0;fill-rule:nonzero" transform="translate(-98.412 47.209) scale(.64268)"/>
	<path d="M855.473 315.167c-.159 1.728-.147 2.592-.582 3.165-.431.578-.142 1.442.293 2.306.435.864.724 2.015.289 3.598-.436 1.583.288 2.879 1.159 3.311.871.432 1.306 0 1.017 2.015-.293 2.014.871 4.175 1.884 5.039 1.017.864 1.741 2.301 1.595 3.166-.143.864.728 1.728 1.741 2.16 1.017.432.871.577.871 1.151 0 .577.435.577 1.595.864 1.159.286 2.03 1.009 3.336 2.592 1.306 1.583 3.189 2.447 2.901.719-.289-1.729 0-2.879-1.742-3.743-1.737-.865-3.043-5.04-3.771-7.919-.724-2.879-3.043-6.763-4.349-7.482-.147-2.019.146-3.024-1.16-4.034-1.306-1.005-1.741-2.301-1.741-3.311 0-1.005-.724-2.301-1.306-2.588-.578-.291-.871-1.009-.871-1.873 0-.865-1.013-.719-1.159.864Z" style="fill:#b38c79;fill-rule:nonzero" transform="translate(-98.412 47.209) scale(.64268)"/>
	<path d="M889.336 354.313c-.071-8.167-.866-76.531-.866-92.335 0-3.78-1.959-3.024-1.959 0v91.903c.9.162 2.114.324 2.825.432ZM919.604 257.01l3.399 97.465-.594.781-1.972.029-2.147-98.275h1.314ZM948.248 339.308c-.276-9.925-1.532-55.868-2.017-78.518-.063-3.02-1.875-2.492-1.846.108.197 18.242 1.289 69.262 1.49 78.464.712 0 1.938-.071 2.373-.054Z" style="fill:#f2d049;fill-rule:nonzero;stroke:#000;stroke-width:.52px" transform="translate(-98.412 47.209) scale(.64268)"/>
	<path d="m902.936 273.208-28.937-.432c-1.628 5.828 5.66 5.72 8.38 4.208 3.152 2.376 5.547 2.16 7.288.216 2.503 2.052 5.655 1.512 6.961.216 3.483 2.592 7.07 0 6.308-4.208ZM905.113 287.673l-29.59-.108c-5.111 4.857 1.524 7.233 7.183 3.884.762 1.621 4.24 2.593 6.961 1.297 2.503 1.944 5.655.54 7.288-1.081 3.047 1.405 6.634 1.837 8.158-3.992ZM904.242 306.027l-28.501-.216c-.544 5.073 5.224 4.425 7.505 3.132 2.177 3.345 6.965 2.589 8.815.644 2.717 1.837 5.22 1.405 6.635-.324 3.156 2.701 5.764-.752 5.546-3.236ZM905.657 324.381l-31.871-.54c-1.741 5.397 3.152 6.369 5.437 5.073.762 3.132 5.002 2.052 6.091-.216 1.632 1.62 3.7.756 4.68-.325.435 2.917 4.131 3.025 6.961.541 5.764 3.996 11.205-.649 8.702-4.533ZM933.941 316.824l-26.543-.216c1.198 5.397 3.805 6.801 8.05 3.669 3.156 3.24 8.376 2.052 9.682.432 5.764 4.644 8.92-.756 8.811-3.885ZM931.22 298.794l-25.672-.756c.436 6.477 6.635 6.261 9.791 3.453 2.394 3.024 6.635 2.16 8.158 0 3.265 3.24 8.594 1.296 7.723-2.697ZM934.594 278.496h-27.631c.327 4.533 6.417 7.125 11.097 2.808 1.302 5.181 6.308 3.561 8.485 1.509 3.152 3.996 10.439-.536 8.049-4.317ZM932.962 264.679l-24.693.324c-.435 3.992 5.438 5.72 7.614 2.48 1.197 2.052 5.329 1.836 6.526-.108 1.959 3.024 4.353.972 5.111 0 2.83 2.052 5.877 1.08 5.442-2.696ZM961.899 273.64l-30.243-.324c-.109 3.128 3.156 4.424 5.111 3.128 0 3.024 4.244 3.996 6.965 1.62 1.85 2.592 7.287 3.348 9.464-.216 4.458 3.673 9.247 1.08 8.703-4.208ZM961.463 298.254l-29.59-.108c.218 4.101 5.002 5.505 7.723 3.345.653 3.456 4.354 3.672 6.526 1.944 2.612 2.916 6.965 3.132 9.355-.108 3.592 1.296 6.313-1.728 5.986-5.073ZM959.94 320.385l-23.391-.324c0 4.104 4.897 4.644 7.074 2.484 2.281 2.7 5.764 2.7 7.723.54 3.152 2.7 7.941 1.944 8.594-2.7Z" style="fill:#f2d049;fill-rule:nonzero;stroke:#000;stroke-width:.52px" transform="translate(-98.412 47.209) scale(.64268)"/>
	<path d="M905.82 324.128c.381.004.432.328-.004.324l-32.139-.395c-.435-.004-.377-.328.004-.324l32.139.395ZM931.078 298.607c.381.013.427.337-.008.324l-25.463-.693c-.435-.013-.373-.337.008-.324l25.463.693ZM904.217 305.882c.381.004.431.328-.004.324l-28.497-.208c-.436 0-.377-.324 0-.324l28.501.208ZM905.059 287.528c.38 0 .435.324 0 .324l-29.808-.154c-.435 0-.377-.324.004-.32l29.804.15ZM902.995 273.046c.381.004.427.332-.004.324l-28.962-.432c-.436-.009-.377-.333.004-.324l28.962.432ZM932.987 264.554c.381-.004.439.32.004.324l-24.856.237c-.435.004-.385-.32-.004-.324l24.856-.237ZM934.51 278.359c.381 0 .436.324 0 .324h-27.467c-.436 0-.381-.324 0-.324h27.467ZM961.484 298.013c.381 0 .435.324 0 .324h-29.602c-.436 0-.381-.324 0-.324h29.602ZM961.899 273.449c.38.004.431.328-.005.324l-30.243-.295c-.435-.005-.376-.329.005-.324l30.243.295ZM933.941 316.625c.381.004.431.328-.004.324l-26.606-.175c-.435-.004-.376-.328.005-.324l26.605.175ZM959.94 320.206c.38.004.431.328-.005.324l-23.386-.307c-.435-.005-.373-.329.008-.324l23.383.307Z" style="fill-rule:nonzero;stroke:#000;stroke-width:.52px" transform="translate(-98.412 47.209) scale(.64268)"/>
	<path d="M922.409 355.256c-12.616.216-25.454.216-34.157-1.08-8.702-1.296-11.444-2.509-17.405-6.044-8.92-5.289-11.096-6.585-23.713-13.926-1.933-1.126-4.031.27-1.306 2.048 12.725 8.313 17.548 11.396 23.605 15.334 6.308 4.1 10.376 7.744 14.248 12.089 5.007 5.617 8.703 5.725 10.988 4.861 2.286-.864 5.877-2.052 9.464-1.188 3.592.864 8.376.972 10.88.54 2.285 2.052 7.505 1.62 10.443.972 2.935-.648 5.111-.972 7.179-.54 2.068.432 5.22.108 7.288-.216 2.068-.324 7.505-.864 11.314-.324 3.805.54 7.723.216 10.226-.54 2.499-.756 7.07-.54 8.594-.108 2.172-1.62 3.261-3.673 3.805-5.829 2.557-.324 3.407-.64 3.972-2.106 1.034-2.7 2.009-5.347 2.34-6.531h1.03l.326-2.43-2.118-2.43.762-4.641 2.281-.54c.109-1.404-.544-3.564-.979-4.428-13.705.54-27.141.972-36.765 1.188-1.088.864-2.285 3.132-2.503 4.536-5.873.968-9.355 1.4-10.879 1.724-1.524.324-2.373.445-3.587 2.053-1.959 2.592-3.809 5.612-5.333 7.556Z" style="fill:#7e7b80;fill-rule:nonzero;stroke:#000;stroke-width:.52px" transform="translate(-98.412 47.209) scale(.64268)"/>
	<path d="M885.205 362.921c3.374-2.156 9.138-1.724 12.076.432 3.483-1.94 9.791-1.404 12.729 1.188 4.458-3.02 8.268-3.452 12.617-.54 3.373-2.372 8.593-2.588 12.62.216 3.914-1.836 8.267-3.344 12.072.648-2.281-1.62-7.179-3.024-12.072.757-3.809-3.781-10.444-2.377-12.62.216-2.83-3.349-8.812-3.889-12.403.216-3.914-3.241-9.787-3.349-12.943-.865-2.503-1.944-6.199-3.56-12.076-2.268ZM944.657 358.281c-17.296 2.966-54.99.864-63.257-1.188-2.842-.707-2.068-1.729.326-1.189 9.528 2.148 29.858 2.161 41.064 1.621 2.177-2.863 5.601-7.719 6.635-9.069 1.033-1.35 1.49-1.475 3.645-1.837 3.86-.648 6.066-.997 9.41-1.566.055.432.055.972.055 1.296-.272.216-.544.594-.762.702 0 2.215.435 7.611.871 9.556.435-.054.979-.216 1.251-.27.762-.217 1.52 1.728.762 1.944Z" style="fill:#5c5568;fill-rule:nonzero" transform="translate(-98.412 47.209) scale(.64268)"/>
	<path d="M972.991 359.103c.624-.016 1.926-.045 2.286-.054.707-.016 1.699-.498 2.134-1.578.436-1.08 1.784-5.073 2.273-6.747l-1.741-2.605c.381-2.148.871-5.06.925-5.654.871-.324 1.792-.648 2.227-.81.109-.486-.105-1.807-.544-2.239-7.451.282-29.749 1.051-33.83 1.105-.98 0-1.419-.042-1.792 1.35-2.068 7.665.791 18.42 8.594 24.615.544.432 1.23.07.322-.756-1.302-1.189-3.315-3.619-4.676-6.02 1.524-.025 4.613-.075 5.538-.112.444 1.815 1.834 5.645 2.106 6.294.272.648.942.739.623-.229-.749-2.268-1.142-4.852-1.469-6.094 1.415-.034 4.081-.009 5.714-.1.079 2.052.297 4.802.352 5.558.054.757.707.811.719-.054.017-.864.034-4.515.021-5.591 1.842-.05 4.195-.129 5.065-.129-.121 1.167-.347 4.944-.431 5.542-.125.881.339 1.296.557.054.218-1.242.653-4.146.774-5.617.737-.021 2.675-.1 3.491-.12-.079 1.15-1.168 4.648-1.494 5.566-.327.919.201.948.569.079.385-.889 1.578-4.399 1.687-5.654Z" style="fill:#5c5568;fill-rule:nonzero" transform="translate(-98.412 47.209) scale(.64268)"/>
	<path d="M945.988 342.046c-.301 1.553-.356 4.873-.272 6.289 1.905.038 6.593-.075 7.242-.129-.16-1.611-.415-4.528-.578-6.347-1.553.066-5.358.157-6.392.187Zm7.777-.208c.055 1.512.394 5.209.503 6.339 1.645-.045 5.672-.128 7.032-.174-.071-1.384-.293-5.841-.318-6.381-2.185.058-5.831.195-7.217.216Zm8.64-.258c.067 1.404.247 5.368.193 6.394 1.745-.046 5.081-.079 6.115-.162.08-1.409.31-5.434.201-6.46-1.959.074-5.082.178-6.509.228Zm7.706-.27c0 1.188-.15 5.363-.205 6.498a833.31 833.31 0 0 1 6.677-.229c.272-1.392.816-5.006.979-6.531-1.632.054-6.258.229-7.451.262ZM948.299 358.227c-.599-1.188-2.449-5.413-2.612-8.488 1.578-.029 5.525-.103 7.43-.145.28 2.318 1 7.312 1.381 8.496-2.227.054-4.948.124-6.199.137Zm6.124-8.658c.205 1.77 1.138 7.848 1.289 8.55 1.616-.096 5.358-.108 6.007-.162-.067-1.62-.331-7.698-.36-8.562-1.692.045-6.087.153-6.936.174Zm8.212-.204c0 .973.172 7.931.214 8.525 1.276-.041 4.592-.087 5.081-.141.247-2.709.62-7.897.687-8.546-2.26.063-4.479.129-5.982.162Zm14.22-.398c-2.231.07-5.819.166-7.033.212-.188 2.733-.531 7.457-.694 8.537 1.963-.042 5.931-.166 6.802-.191.653-1.296 2.067-5.343 2.394-6.585-.49-.756-.871-1.188-1.469-1.973ZM933.782 347.7l-2.834.498c-1.306 2.094-6.145 8.571-6.743 9.327 3.369-.096 8.639-.196 9.908-.316-.092-1.737-.327-8.649-.331-9.509Zm1.252-.233c.067 2.214.28 8.113.334 9.68 1.671-.096 4.747-.295 5.999-.403-.289-2.784-.816-9.431-.925-10.241-1.403.254-4.157.735-5.408.964Z" style="fill:#7e7b80;fill-rule:nonzero" transform="translate(-98.412 47.209) scale(.64268)"/>
	<path d="M966.453 338.764c.665-2.29 2.444-8.455 5.667-20.108.54-1.944-1.36-2.712-2.063-.216a7772.07 7772.07 0 0 1-5.768 20.407c.736-.013 1.791-.092 2.164-.083Z" style="fill:#5c5568;fill-rule:nonzero;stroke:#000;stroke-width:.52px" transform="translate(-98.412 47.209) scale(.64268)"/>
	<path d="M987.679 315.96c-4.625 2.372-6.856 3.29-8.974 2.48-1.951-.743-4.818-1.163-6.497-.344a2.128 2.128 0 0 1-.088.56 2034.587 2034.587 0 0 1-4.386 15.654c3.424 1.201 9.322 1.363 10.699-.104 1.41-1.512 5.274-1.188 7.233-1.08 1.252-1.62 1.741-3.618 1.415-4.591-.327-.972-.218-2.696.272-4.046s1.143-5.725.326-8.529Z" style="fill:#fff;fill-rule:nonzero;stroke:#000;stroke-width:.52px" transform="translate(-98.412 47.209) scale(.64268)"/>
	<path d="M981.041 324.651c.657-1.45.749-4.782.372-6.044-1.013.203-1.871.157-2.708-.167-.44-.166-.921-.315-1.428-.44-.092 1.67-.703 5.924-1.456 7.569-1.315.37-3.964-.062-5.471-.531l-1.097 3.913c1.871.428 4.22.39 6.078-.037-.146 2.496-.477 4.769-1.838 6.339 2.223.05 4.211-.274 4.94-1.047.067-.075.142-.137.222-.199 1.025-1.703 1.054-3.922 1.301-5.417.758.054 1.738-.163 2.173-.595.435-.432 1.143-.648 1.85-.594.645.05 1.649-.083 2.926-.594a7.964 7.964 0 0 1 .448-2.318c.142-.395.297-1.051.427-1.844-1.62.768-5.233 2.052-6.739 2.006Z" style="fill:#ef072d;fill-rule:nonzero;stroke:#000;stroke-width:.52px" transform="translate(-98.412 47.209) scale(.64268)"/>
	<path d="M882.379 276.984c-5.115 14.681-22.846 47.613-33.545 58.219M857.047 339.993c12.143-9.322 42.846-39.583 48.066-52.32" style="fill:none;fill-rule:nonzero;stroke:#000;stroke-width:.52px" transform="translate(-98.412 47.209) scale(.64268)"/>
	<path d="M875.741 305.811c-1.411 11.121-4.647 30.958-6.388 41.432" style="fill:none;fill-rule:nonzero;stroke:#000;stroke-width:.52px" transform="translate(-98.412 47.209) scale(.64268)"/>
	<path d="M880.5 330.6c-4.131 3.997-9.992 10.972-14.345 14.752M921.417 308.943c3.06 3.237 7.409 6.893 11 7.865m-13.001-8.405c-3.478 3.345-7.451 7.246-10.929 8.218M920.818 291.665c2.721 2.269 5.618 5.576 9.096 7.088m-10.879-7.731c-3.152 2.696-7.832 5.87-12.072 7.058M920.111 271.695c2.951 3.345 8.606 6.045 11.436 6.801m-23.931 0c3.37-.972 8.389-3.564 11.001-6.261M919.651 258.306c2.934 2.484 8.091 6.074 11.46 6.398m-22.842.299c3.479-.756 7.79-2.593 10.076-5.833M946.394 267.807c1.36 2.16 4.789 5.467 6.748 5.737m-8.665-5.575c-1.888 1.944-6.513 5.438-9.448 5.384M946.968 290.806c1.113 1.994 5.357 6.501 7.752 7.419m-21.65-.079c3.805-1.296 9.138-4.387 11.805-7.573M947.537 313.098c1.796 2.214 6.199 6.26 8.92 7.233m-18.874-.258c1.741-.374 6.475-2.709 7.777-5.463M888.947 317.364c4.458 3.129 9.64 6.261 13.608 6.963m-24.855-.42c5.328-1.674 16.099-8.163 21.431-14.32M888.755 298.956c1.197 1.67 9.995 7.005 13.746 7.059m-25.781-.191c2.939-1.243 6.798-3.361 9.791-6.436M888.591 281.845c3.048 2.102 9.071 5.816 13.203 5.816m-15.283-5.924c-2.286 1.832-7.777 5.126-10.444 5.828M888.482 265.485c1.905 3.024 7.003 7.112 10.323 7.652m-12.294-8.296c-2.449 2.75-6.58 7-10.008 7.972" style="fill:none;fill-rule:nonzero;stroke:#000;stroke-width:.52px" transform="translate(-98.412 47.209) scale(.64268)"/>
	<path d="M932.514 283.652c7.626 13.954 21.77 31.012 36.074 39.973M909.63 268.185c11.582 16.518 34.32 52.74 55.952 66.113" style="fill:none;fill-rule:nonzero;stroke:#000;stroke-width:.52px" transform="translate(-98.412 47.209) scale(.64268)"/>
	<path d="M969.567 320.169c-3.483 4.806-9.736 12.309-20.071 19.139" style="fill:none;fill-rule:nonzero;stroke:#000;stroke-width:.52px" transform="translate(-98.412 47.209) scale(.64268)"/>
	<path d="M968.274 324.73c-7.288-11.549-11.055-26.152-16.505-45.382M886.511 353.881v-24.427m0 1.566h-4.692m4.692 1.458h-5.073m5.073 1.836h-5.509m5.509 2.102H880.5m6.011 2.161h-6.568m6.568 2.106h-7.083m7.083 2.43h-7.694m7.694 2.21h-8.225m8.225 2.161h-8.769m8.769 2.268h-9.314m9.314 2.214h-8.05m7.523-22.728-2.55 24.107m1.072-23.621-3.512 23.052m2.348-22.267-4.341 21.644m2.864-21.299-5.057 20.489M888.863 330.816h3.864m-3.633 1.338h4.148m-3.726 1.579h4.27m-3.901 1.699h4.512m-4.094 1.848h4.747m-4.349 1.783h5.031m-4.583 1.998h5.291m-4.885 1.836h5.576m.736 1.957h-5.877m6.693 2.264h-6.174m6.932 2.081h-6.471m7.208 2.048h-6.706m.544 2.659h7.112m-12.591-24.535 5.689 25.457m-4.944-25.86 7.367 26.014m-5.659-24.86 7.936 24.997m-6.27-24.423 8.974 24.506M916.059 322.449h-3.018m2.666 1.35h-3.348m2.968 1.5h-3.713m3.332 1.458h-4.052m3.671 1.454h-4.408m3.985 1.65h-4.785m4.362 1.616h-5.22m4.772 1.728h-5.642m4.989 2.526h-6.228m5.659 2.214h-6.773m6.024 2.9h-7.48m6.718 2.484h-7.941m7.506 2.156h-8.594m7.74 2.701h-9.084m8.594 2.484h-9.875m9.059 3.074h-10.607m19.075-32.657-8.858 34.223m8.117-34.813-11.39 34.826m10.36-34.481-14.358 34.29m13.295-33.725-16.865 33.567M931.718 323.072h-4.319m5.889 2.755h-4.998m6.568 2.754h-5.693m7.263 2.75h-6.401m7.97 2.755h-7.066m8.636 2.754h-7.748m9.318 2.75h-8.452m10.021 2.755h-9.175m9.184.016-11.566-20.306m-1.44.432 10.486 21.756m-11.763-21.81 8.954 22.246m-10.36-22.724 7.38 23.181M941.112 324.028h4.298m-5.198 2.671h5.224m-6.124 2.676h5.563m-6.463 2.671h5.902m-6.802 2.671h6.241m-7.141 2.671h6.58m-7.48 2.672h6.906m-7.806 2.675h7.246m3.884-18.466-4.136 19.733m-2.042.299 4.914-20.738m-1.319-.806-6.697 22.03m4.533-21.058-7.22 21.49M954.435 324.784h-5.098m5.906 2.16h-5.375m6.179 2.161h-5.685m6.493 2.156h-5.986m6.789 2.16h-6.241m7.049 2.16h-6.513m7.321 2.161h-6.856m1.988-13.17 5.345 14.445m-7.539-15.309 5.337 15.38m-6.994-15.301 4.893 15.359m-6.212-14.682 3.542 14.736" style="fill:none;fill-rule:nonzero;stroke:#000;stroke-width:.52px" transform="translate(-98.412 47.209) scale(.64268)"/>
	<path d="M877.222 183.993c-3.311.095-10.519.162-12.034 1.005-1.511.847-2.177 1.221.473 1.691 2.65.469 7.133 1.72 9.59 3.224 2.457 1.499 4.516 4.158 3.838 7.951-2.03 11.395 3.973 22.355 12.671 26.488.841.399 1.042.702.854 2.252-.188 1.549-.758 4.134-1.231 4.79-.473.66-.707 1.741.804 1.221-1.038 1.928-3.357 5.779-4.065 6.764-6.952-.844-12.624.095-13.147 7.324-.051.706.192 1.832 1.276.05 1.089-1.787 2.319-3.478 5.295-3.947-1.749 2.675-2.314 5.072-2.03 6.622.281 1.55.708 2.488 1.465.515.758-1.969 2.152-3.814 3.642-4.931.565-.42.946-.515.519.706-.427 1.222.189 3.851 1.042 4.744.85.889 1.277.516 1.039-.938-.235-1.459.133-4.504 1.938-5.451 2.599-1.358 4.822-.656 5.864 1.13 1.038 1.782 1.938.091.804-1.928-1.135-2.019-2.319-3.427-4.211-3.568 1.657-2.912 3.595-6.435 4.022-7.137.423-.707 1.089-1.035 1.654-.611.569.424.946.374 1.515-.798.565-1.175 1.557-4.649 2.976-6.057.712-.191 1.846-.469 2.269-.847 1.846 2.675 3.499 5.637 3.926 6.294.423.656.9.938.473 2.301-.427 1.363-1.892 5.683-2.126 6.622-5.157.187-7.518.278-9.176 3.145-.724 1.25.427 1.737 1.658 1.08 1.227-.656 2.976-1.221 3.876-1.08.896.141 1.319.598.423 1.034-3.165 1.55-5.145 3.519-5.011 6.244.046.985.457 1.475 1.231.142 1.088-1.878 3.073-3.756 5.484-4.275-.143 2.301.381 5.683 1.795 6.389 1.419.702 1.52-.012.992-1.362-.849-2.161.034-4.333 1.089-5.497 2.222-2.442 7.283.939 8.229 1.787.946.843 1.808 1.196 1.277-.989-.712-2.908-4.873-4.599-8.418-5.068.992-4.745 3.642-14.325 5.061-17.611 2.08 1.126 3.704-1.844 7.187-.565 5.86 2.161 14.655 7.607 16.17 8.828 1.511 1.222 2.08.939 2.838.283.753-.656 2.08 0 3.118.187 1.043.187 1.989.469.662-2.16-1.323-2.63-4.538-7.233-9.929-10.802 3.215.283 7.568.283 7.568-.561 0-.847-5.015-2.442-7.095-2.629 1.988-.47 5.015-1.6 6.429-3.195.842-.943-.167-1.163-3.118-1.221-9.079-.187-13.617-.117-18.347-2.817-7.564-4.321-11.892-8.87-15.605-10.801-1.984-1.035-3.194-3.42-3.96-5.48-2.457-6.576-2.335-9.534-8.103-11.695-5.769-2.16-12.403.486-15.43 3.208Z" style="fill-rule:nonzero" transform="translate(-98.412 47.209) scale(.64268)"/>
	<path d="M895.866 184.57c-1.096-1.18-3.047-2.268-4.022-2.592-.98-.324-1.089.648-.544 1.134-.436.648-.599 2.214.163 2.646.762.432.77 1.047.054 1.4-1.088.54-.72 3.407.921 2.592.544-.27.98-.162.871.271-.109.432.109.972.598 1.08.49.108.436.81.327 1.08-.109.27.054.378.598.432.545.054.599 1.35-.38 1.782 1.197 0 1.523-.216 1.85.756.326.968 1.632 1.184 1.632 2.372s-.218 1.404-1.632 1.188c-1.415-.216-1.959.216-2.395.757-.435.54-.544 1.08.545 1.134 1.088.054 1.306.54.217 1.026-1.088.486-2.88.162-3.152 1.188-.272 1.022 0 1.508.812 1.13.817-.374 2.503-1.076 3.156-1.454.653-.378 1.252-.432 1.796.432s.109 1.832-.816 1.08c-.925-.756-1.36-.058-1.905.374-.544.432-1.36.702-2.231.702-.866 0-1.465.112-1.356 2.052.327 5.833 4.893 10.15 13.269 10.041 8.376-.108 12.512-.216 13.763-.054-2.775-1.512-4.516-2.322-5.496-2.214-.979.108-1.795.27-1.36-.486.435-.756-.054-.756-.49-1.08-.435-.324-.975-.756-1.846.162-.87.918-2.938 1.944-3.972 2.16-1.034.216-2.286.162-1.306-.81.979-.972 3.156-1.296 3.809-1.728.653-.432.653-.698.653-1.022 0-.324-.163-1.242 1.088-.54 2.499 1.404 6.417 3.506 7.451 3.452 1.034-.054 1.742-.486.816-1.08-.925-.594-1.197-1.454-.925-1.778.272-.324.436-.648 2.068.27 1.628.914 4.295 2.102 5.274 2.534.98.432 2.286.27.272-1.188-2.013-1.454-8.267-5.559-10.008-6.855-1.741-1.296-.979.27-.816.756.163.486-1.197 1.081-1.905.486-.707-.594-1.197-1.242-.217-1.782.979-.54 1.197-.594-.273-1.89-1.465-1.292-1.9-1.184-1.573-.108.326 1.08.435 2.268-1.089 1.674-1.523-.594-2.285-1.296-1.306-1.89.98-.59 2.231-.914.599-2.264-1.633-1.35-1.143 0-1.524.756s-1.632.756-2.34.162c-.707-.594-1.034-1.188-.544-1.674s.435-.756 1.143-.378c.707.378 1.796.162.49-.972-1.306-1.135-1.796-.648-1.524 0s-.762 1.782-2.39.27c-.775-.715-.762-1.675.054-1.837.812-.162.892-.581.323-1.404-3.316-4.802-1.955-8.691-5.275-12.251Zm-18.275.918c-1.469-.054-4.353-.399-6.744-.162-.544.054-1.197.324.109.486 1.306.162 4.839 1.022 6.091 1.454 1.251.432.707 1.08-.381.81-1.089-.27-1.49.129-.599.756 4.626 3.241 5.115 4.483 3.918 15.6.871.594 1.578 1.026 2.34 1.404.762.378.544.918-.272.702-.816-.216-1.578.27-.272.54s1.9.864.653.81c-1.252-.054-2.721 1.027-.272.757 2.444-.27 3.424.864.544.918-2.884.054-1.796.972-.272.972 2.717 0 1.9.756 1.197.756-.707 0-1.034.918.762.756 1.791-.162 2.499-.216 3.152-.108s.925.644-.055.702c-.979.05-.925.752.545.752 1.469 0 2.08.44.761.702-.544.108-1.297.378.273.594 2.72.378 2.829 1.026 1.959 1.134-.871.108-.98.594.272.702 1.247.108 2.335.486 1.306.757-1.034.27-1.578.864-.277.972 1.306.108 2.395.594 1.415.918-.979.324-1.197.918.055.864 1.251-.054 1.741.648.87 1.13-.87.486-1.469.81-2.013-.05-.54-.864-.867-1.134-1.03-.486-.163.644-.544.216-.979-.756-.436-.972-1.198-1.242-.98-.486.218.756-.762.864-1.687.486 3.428 3.452 8.485 6.584 16.534 3.344.687-.274.817 0 1.361 1.134s2.068 3.619 2.612 4.537c.544.918.975.091 1.247-.81 1.089-3.565 1.905-6.211 2.231-7.179.327-.972 1.85-1.944 1.361 1.454 1.197-.81 6.5-1.575 10.607-.054 4.512 1.674 9.05 4.271 11.369 5.995.435.324.979.702 2.063.594 1.088-.108 1.361-.27-.707-2.161-2.064-1.89-1.193-2.808.109-1.89 1.306.918 2.013.378 1.033-.756-.979-1.134-3.315-3.344-4.077-3.884-.761-.54-.87-.756-2.612-.864-1.741-.108-5.437-.108-6.525-.108-1.089 0-1.415.108.979.972 2.39.86 7.288 3.992 8.376 4.748 1.088.756 1.85 2.485-.544.972-2.394-1.512-9.9-6.152-14.902-7.88-11.423.756-20.452 2.268-27.195-5.073-3.232-3.515-3.374-11.553 2.063-14.902-1.088-.918-.925-1.458-.49-1.674.436-.216.599-.432.164-.972-.431-.54-.381-1.022 0-1.238-1.193-.648-1.737-1.404-1.683-2.214-1.469-.324-2.122-2.053-4.081-1.512-1.959.54-2.939.108-3.533-.378-.603-.487-1.088-.703-2.177-.595-1.088.108-1.959-.324-2.013-.864-.055-.54.921-.801 2.394-.162 3.098 1.35 5.601 1.999 7.505-.54 1.905-2.534-.544-4.91-4.19-5.612-3.641-.702-6.308 1.944-7.668 3.186Z" style="fill:#fff;fill-rule:nonzero;stroke:#000;stroke-width:.52px" transform="translate(-98.412 47.209) scale(.64268)"/>
	<path d="M894.456 225.291c.803.233 3.595.515 4.541.561-.473.989-.9 1.645-1.184 2.351-.285.702-.423.752-.473-.328-.046-1.084-.662-1.786-1.227-.66-.569 1.13-.854 1.549-1.134 2.019-.285.469-.712.66-.569-.516.142-1.175.096-2.397.046-3.427Z" style="fill:#fff;fill-rule:nonzero" transform="translate(-98.412 47.209) scale(.64268)"/>
	<path d="M910.818 207.648c.134.166.302.348.494.511.708.594 2.068 0 1.905-.487-.163-.486-.925-2.052.816-.756s7.995 5.401 10.009 6.855c2.013 1.458.707 1.62-.273 1.188-.979-.432-3.645-1.62-5.274-2.534-1.632-.918-1.796-.594-2.068-.27-.23.27-.046.922.553 1.475-.971.141-2.549-.071-3.001-1.097-.545-1.242-1.851-2.754-2.776-3.942-.343-.441-.443-.715-.385-.944Zm-19.012-11.599c-.364-1.222-.724-1.513-1.377-1.438-.653.071-.942-.075-1.67-.361-.724-.287-1.666.07-1.813 1.366-.146 1.297-.942 1.945-2.03 2.734-1.088.794-1.741 1.442-1.741 2.738s-.289 1.653-1.013 2.592c-.323.416-.779.889-1.206 1.388.469.29.909.544 1.369.768.762.378.544.918-.272.702-.816-.216-1.578.27-.272.54s1.9.864.653.81c-1.252-.054-2.721 1.027-.272.757 2.444-.27 3.424.864.544.918-2.884.054-1.796.972-.272.972 2.717 0 1.9.756 1.197.756-.707 0-1.034.918.762.756.025-.004.046-.008.075-.008.26-.266.452-.598.595-1.018.288-.864.577-3.386 1.594-4.104 1.013-.719 1.524-1.729 1.524-2.447 0-.719 1.52-3.885 2.537-4.678 1.017-.794 1.452-2.518 1.088-3.743Zm12.708 27.169c-5.944 2.393-10.23 1.329-13.457-.793 1.335-.453 2.838-.067 3.34-.017.544.054 2.231.432 3.156.918.925.486 1.524-.378 1.143-1.35.816 1.026 1.415 1.728 2.39 1.674.98-.054 2.612-.216 3.428-.432Zm-6.182-18.387c-.356.798-.364.719-1.524.789-1.159.075-2.62.27-3.261.939-.347.357-2.352.453-2.356 1.329-.008.881 0 1.621.87 1.675.867.054.976.162.653.81-.33.648-.544 1.728.976 1.836 1.523.108 2.612-.378 2.993.482.381.864-.03 2.243.272 2.754.301.511 1.331.839 2.926 1.33 1.063.328 5.077.515 6.312.374 1.231-.146.77-.877-.465-.985-1.23-.108-2.139-.287-2.428-1.184-.288-.902-.544-1.371.147-2.123.686-.756 1.377-1.333.979-2.592-.401-1.259-1.054-2.738-2.503-3.133-1.452-.394-.992-2.363-2.432-2.555-.544-.07-1.013-.07-1.159.254Z" style="fill:#f2d049;fill-rule:nonzero" transform="translate(-98.412 47.209) scale(.64268)"/>
	<path d="M884.117 213.825c-.75.096-1.231 1.155-.289 1.371.942.216 1.159.287 1.159 1.005 0 .719.293 1.729 1.306 1.799 1.017.075 1.888-1.08 1.017-1.437-.87-.362-1.67-.648-1.741-1.442-.071-.789-.871-1.367-1.452-1.296Zm7.183 2.7c1.247.108 2.335.486 1.306.757-1.034.27-1.579.864-.277.972 1.306.108 2.395.594 1.415.918-.979.324-1.197.918.055.864 1.251-.054 1.741.648.87 1.13-.87.486-1.469.81-2.013-.05-.54-.864-.867-1.134-1.03-.486-.163.644-.544.216-.979-.756-.436-.972-1.198-1.242-.98-.486.218.756-.762.864-1.687.486.913.918 1.938 1.811 3.106 2.567 1.335-.453 2.809-.083 3.311-.033.544.054 2.231.432 3.156.918.925.486 1.524-.378 1.143-1.35-.381-.968-.435-.644-.925-.108-.49.54-.599-.216-.544-1.346.046-.956-.599-.702-.816-.108-.218.594-.708-.378-.436-.972.272-.594-.054-.81-.544-.648-.49.162-.544 0-.599-1.08-.054-1.081-.544-.919-.707-.486-.163.432-.599-.163-1.252-1.027-.569-.756-1.226-.311-2.365.137.143.084.402.154.792.187Zm-1.599-20.406c-1.03-.681-2.031-.286-2.031 1.01s-.653 1.653-1.523 2.085c-.867.432-1.666 1.512-1.813 2.522-.142 1.005.147 1.653-.577 2.447-.729.789-.8 1.437-.289 1.869.506.432.506.507.724 1.151.218.648 1.448-.071 1.448-.789 0-.719.293-.719 1.089-1.151.799-.432 2.105-2.522 1.812-3.095-.289-.578-1.013-1.08-.071-1.874.942-.789 1.959-.864 1.959-1.653 0-.794.289-1.08.578-1.367.293-.291-.653-.723-1.306-1.155Zm8.053-2.588c-.799-.864-.293-1.296.578-1.728.213-.104.36-.237.464-.395-.246-.951-.443-1.865-.703-2.754-.456.129-.988 1.138-1.138 1.637-.218.718-.436 1.15-1.16.934-.644-.191-1.289.528-1.423 1.296.1.042.255.071.46.092.302.029.453.436.36.868 1.964-.062 2.298 1.284 2.633 2.206.365 1.01.8.864 1.089.291.289-.578-.364-1.583-1.16-2.447Zm-6.237-6.373c-1.088.54-.72 3.407.921 2.593.544-.271.98-.163.871.27a.946.946 0 0 0 .1.697 5.027 5.027 0 0 0 1.804-1.292c1.018-1.15.071-1.08-1.448-1.08-1.524 0-1.959-.286-.511-1.15 1.298-.773.452-1.309-1.343-1.06.259.366.129.765-.394 1.022Zm1.499-4.657c-.837.806-.984 1.168-.557 1.168.507 0 .289.07-.075.648-.36.577.728.864 1.163.432.436-.432.507-.578.725 0 .175.469.891.025 1.343-.428-.741-.711-1.737-1.367-2.599-1.82Zm3.403 2.717c-.285.424-.389.407-.917.756-.649.428-.795 1.654.293 1.508.754-.099 1.193-.544 1.49-.905a9.335 9.335 0 0 0-.866-1.359Z" style="fill:#a89078;fill-rule:nonzero" transform="translate(-98.412 47.209) scale(.64268)"/>
	<path d="M884.715 204.756c-.741.37-.272 1.35.816.648 1.089-.702 1.034-1.566-.816-.648Zm-.109-.968c-.741.366-.272 1.346.817.644 1.088-.702 1.034-1.562-.817-.644Zm1.273-.615c-.745.37-.272 1.35.812.648 1.088-.702 1.034-1.566-.812-.648Zm-.837-1.043c-.741.37-.272 1.351.816.649 1.088-.703 1.034-1.567-.816-.649Zm1.306-.394c-.741.37-.272 1.35.816.648 1.088-.702 1.034-1.566-.816-.648Zm-.942-.902c-.741.37-.272 1.351.816.648 1.088-.702 1.034-1.566-.816-.648Zm1.524-.681c-.746.366-.599 1.346.489.648 1.089-.702 1.361-1.566-.489-.648Zm1.159-1.496c-.741.37-.599 1.351.49.649 1.088-.703 1.36-1.567-.49-.649Zm1.415-1.782c-.72.087-1.524 1.026-.327.864 1.198-.162 1.687-1.026.327-.864Zm.197-1.832c-.679-.262-1.085 1.151-.143 1.367.942.216 1.089-1.01.143-1.367Z" style="fill-rule:nonzero" transform="translate(-98.412 47.209) scale(.64268)"/>
	<path d="M900.274 205.674c-1.607-1.392-2.013-.54-1.36.324.653.864.163 1.296-1.252 1.512-1.415.216-3.537.486-4.408.486-.87 0-1.9 1.189.164 1.081 2.067-.108 5.55-.81 6.475-1.189.925-.378 1.683-1.08.381-2.214ZM903.426 208.105c-1.327-1.184-1.796-.865-1.469 0 .326.864-.272 1.026-1.139 1.296-.87.27-4.299 1.404-5.768 1.566-1.469.162-1.796 1.188.381 1.134 2.177-.054 6.363-1.782 6.852-2.106.49-.324.653-.972 1.197-.648.545.324 1.034-.27-.054-1.242Z" style="fill-rule:nonzero;stroke:#000;stroke-width:.52px" transform="translate(-98.412 47.209) scale(.64268)"/>
	<path d="M904.406 211.561c-.963.569-3.37 1.616-4.35 1.886-.979.27-1.795 1.35.273 1.188 2.063-.162 4.512-2.052 5.165-2.426.653-.378.979-.648 1.524-.594.544.054 1.523-.702-.273-1.674-1.795-.972-2.884-.486-2.013.27s.218 1.026-.326 1.35Z" style="fill-rule:nonzero;stroke:#000;stroke-width:.52px" transform="translate(-98.412 47.209) scale(.64268)"/>
	<path d="M885.959 183.932c-2.093.026-3.647 2.727-1.26 4.343 2.575 1.745 5.295-2.231 2.754-3.888a2.655 2.655 0 0 0-1.494-.455Zm-1.813 2.043.788.052c-.164.806.652 2.024 1.904 1.725-1.005.756-2.964-.107-2.692-1.777Z" style="fill-rule:nonzero" transform="translate(-98.412 47.209) scale(.64268)"/>
	<path d="M999.475 257.01c-.192 67.849-10.979 140.945-99.473 175.763-88.498-34.818-99.285-107.914-99.477-175.763h198.95ZM999.475 257.01c.076-25.558-1.356-50.372-.703-72.116-33.068-14.686-76.581-17.706-98.77-17.706-22.193 0-65.706 3.02-98.774 17.706.653 21.744-.774 46.558-.703 72.116h198.95Z" style="fill:none;fill-rule:nonzero;stroke:#000;stroke-width:1.04px" transform="translate(-98.412 47.209) scale(.64268)"/>
</svg>
