<svg xmlns="http://www.w3.org/2000/svg" id="flag-icon-css-si" width="640" height="480">
  <defs>
    <clipPath id="a">
      <path fill-opacity=".67" d="M-15.07 0H667.6v512H-15.07z"/>
    </clipPath>
  </defs>
  <g fill-rule="evenodd" stroke-width="1pt" clip-path="url(#a)" transform="translate(14.13) scale(.9375)">
    <path fill="#fff" d="M-62 0H962v512H-62z"/>
    <path fill="#de2918" d="M-62 341.33H962V512H-62z"/>
    <path fill="#08399c" d="M-62 170.67H962v170.67H-62z"/>
    <path fill="#de2918" d="M228.37 92.98c-4.02 61.65-6.32 95.43-15.7 111.07-10.16 16.78-20.03 29.08-59.64 43.88-39.6-14.81-49.48-27.1-59.63-43.9-9.39-15.62-11.7-49.4-15.71-111.05L83.54 91c11.78-3.6 20.58-6.49 27.08-7.77 9.31-1.97 17.23-4.2 42.26-4.72 25.02.43 32.98 2.8 42.3 4.77 6.44 1.37 15.6 4.08 27.3 7.74l5.89 1.95z"/>
    <path fill="#08399c" d="M222.6 90.95c-3.8 61.52-6.98 89.7-11.94 103.24-9.63 23.2-24.87 35.91-57.67 48.04-32.8-12.14-48.04-24.86-57.66-48.05-4.96-13.54-8.1-41.64-11.79-103.3 11.53-3.6 20.58-6.42 27.08-7.7 9.31-1.97 17.23-4.3 42.26-4.72 25.03.43 33.03 2.75 42.35 4.72 6.5 1.28 15.73 4.1 27.37 7.76z"/>
    <path fill="#fc0" d="M152.96 109.79l1.57 3.72 6.91.95-4.47 2.7 4.33 2.9-6.3 1.05-1.92 3.37-2.15-3.47-6-.85 4.08-2.96-4.2-2.69 6.64-1.02 1.51-3.7z"/>
    <path fill="#fff" d="M208.28 179.62l-3.83-3.03-2.77-4.55-5.42-4.7-2.83-4.76-5.42-4.85-2.65-4.75-2.89-2.33-1.9-1.83-4.9 4.3-2.67 4.66-3.32 3.01-3.66-2.85-2.76-4.87L153 134.85l-10.26 18.22-2.76 4.87-3.66 2.85-3.32-3.01-2.67-4.67-4.9-4.3-1.9 1.84-2.89 2.33-2.65 4.75-5.42 4.85-2.83 4.75-5.42 4.7-2.77 4.56-3.82 3.1c1.98 16.89 12.75 30.12 18.61 36.17 6.55 6.35 20.04 14.86 36.54 20.49 16.55-5.51 30.23-14.14 36.78-20.5 5.86-6.04 16.62-19.27 18.62-36.23z"/>
    <path fill="#fc0" d="M169.45 83.89l1.57 3.72 6.91.95-4.48 2.7 4.33 2.9-6.3 1.05-1.9 3.37-2.17-3.47-5.99-.85 4.08-2.96-4.2-2.69 6.63-1.02 1.52-3.7zm-32.98-.06l1.57 3.73 6.91.94-4.47 2.7 4.33 2.9-6.3 1.05-1.92 3.38-2.15-3.48-6-.85 4.08-2.95-4.2-2.7 6.64-1.01 1.51-3.7z"/>
    <path fill="#08399c" d="M199.72 203.03l-7.47.02-6.89-.51-8.35-4.1-9.4.06-8.16 3.98-6.42.57-6.43-.57-8.15-3.98-9.4-.05-8.36 4.09-6.89.51-7.56-.1-3.65-6.19.13-.14 11.18 1.85 6.89-.51 8.35-4.1 9.4.06 8.15 3.98 6.43.57 6.43-.57 8.15-3.98 9.4-.06 8.35 4.1 6.9.5 10.87-1.9.14.29-3.64 6.18zm-86.47 9.51l7.4-.51 8.34-4.1 9.41.06 8.15 3.98 6.43.57 6.42-.57 8.15-3.98 9.41-.06 8.35 4.1 7.5.51 4.83-5.96-.17-.14-5.18 1.51-6.89-.5-8.35-4.1-9.4.05-8.15 3.99-6.43.56-6.43-.56-8.15-3.98-9.4-.06-8.35 4.1-6.9.5-5.07-1.27-.06.25 4.54 5.61z"/>
  </g>
</svg>
