<svg xmlns="http://www.w3.org/2000/svg" id="flag-icon-css-sm" width="640" height="480">
  <g fill-rule="evenodd" stroke-width="1pt">
    <path fill="#19b6ef" d="M0 240h640v240H0z"/>
    <path fill="#fff" d="M0 0h640v240H0z"/>
  </g>
  <path fill="#fd0" fill-rule="evenodd" stroke="#7d6c00" stroke-width="2.37" d="M317.07 339.22c52.45-39.24 108.96-119.3 42.74-161.4-12.34-2.4-26.1-1.68-32.71 3.57-3.5-1.99-6.3-1.83-9.8 1.91-2.46-3.02-4.93-4.38-10.02-2.86-10.19-5.18-19.42-6.29-31.52-3.1-57.62 34.61-22.36 116.75 41.31 161.88z"/>
  <g stroke="#3a9d4f">
    <path fill="#4fd46b" fill-rule="evenodd" stroke-linejoin="round" stroke-width="2.37" d="M414.08 250.1s5.9-7.93 6.1-7.93c5.91-3.46 6.52-7.94 6.52-7.94 5.9-1.83 4.07-6.72 4.48-7.33a6.43 6.43 0 0 0 1.42-7.12c0-.82 2.04-8.35-.81-9.37.13-8-4.82-7.26-8.75-2.03-4.21 1.22-5.16 4.68-3.67 8.55-5.5 0-5.7 7.94-4.07 12.41-7.33-.2-3.26 7.94-3.46 8.35-2.44 1.22 1.83 12.82 2.24 12.42zm-46.22 68.2l3.66 2.24c.75 2.78 3.33 4.55 5.3 4.07.95 4.27 5.56 3.67 8.95 1.22 2.72 3.94 6.04 4 10.59 2.65 4.07 2.98 9.36 1.7 12.82-1.43 3.73 3.06 6.24.82 8.14-2.44 2.92.75 5.23.27 6.31-2.65 5.7-.47 2.85-5.83-1.83-8.14 3.73-3.26 7.87-9.97 2.04-11-1.83-1.35-5.3-1.07-7.94.21-.68-2.98-4.82-3.73-9.37-.4-1.56-3.33-6.98-1.77-9.56.6-3.26-2.84-7.13-2.84-12.83.41l-16.28 14.66zm0-8.74c.68-3.74-1.9-10.52 2.03-11.2-.74-6.24.34-13.3 7.53-12.62 1.16-5.9.89-11.4 7.74-12.22 0 0 5.5-19.13 11.2-5.9 2.24 3.87 1.83 10.18-2.65 8.96.88 4.75-.68 8.89-5.9 8.75 2.3 3.33 1.56 7.87-1.02 9.98l-18.93 14.25zm33.18-23.82l5.9-1.22c6.1-4.08 8.55-5.7 11.6-1.23 5.1-1.08 9.98-.54 9.78 3.46 6.04.41 5.97 4.28 5.29 7.33.95 5.36-1.36 12.35-5.1 3.87-11.8-7.2-18.52-6.25-37.24-2.04l9.77-10.18zm3.06-5.92c.2-.2 17.5-4.68 15.68-9.97 4.88-.82 5.9-5.7 6.1-5.7 10.18-3.26 9.57-9.16 9.57-9.16 2.92-3.12 8.08-6.25 6.92-11.81.34-6.31.89-10.18-7.53-6.1-6.31-.62-8.55 3.05-10.38 8.54-2.99-3.52-7.8 2.1-8.35 7.13 0 0-7.73 7.53-7.73 7.73s-6.52 12.01-6.52 12.01l2.24 7.33z"/>
    <path fill="#4fd46b" fill-rule="evenodd" stroke-linejoin="round" stroke-width="2.37" d="M404.5 266.4c-4.14-3.12-6.44-6.86-5.7-10.59-2.71-3.66-4.61-5.9-2.03-9.16 0 0-2.04-7.33-2.04-7.53-5.3-2.04-3.05-6.51-1.63-8.14-2.5-3.46-2.58-7.13-.2-10.39-.07-6.51 4.55-4.07 8.34 0 0 0 6.32 4.48 1.63 8.55 4.69 1.63 6.11 5.7 3.46 7.33 4.08 1.83 4.69 5.5 2.45 7.94 4.14 3.33 2.58 7.47 3.86 11.2l-8.14 10.79z"/>
    <path fill="#4fd46b" fill-rule="evenodd" stroke-linejoin="round" stroke-width="2.37" d="M411.83 236.06c-.2-.2-6.92-8.75-5.09-9.36-.4-2.65-2.44-5.5-1.22-8.14-3.32-3.33-3.4-7.26-.81-10.38-2.24-3.06-1.22-7.13 1.83-9.77-.95-5.03 2.58-6.18 5.7-7.13 2.3-8.07 6.04-5.97 8.14.2 3.2 2.79 2.72 7 1.63 10.18 3.8 2.58 1.5 5.77-.2 7.13l-9.98 27.27z"/>
    <path fill="#4fd46b" fill-rule="evenodd" stroke-linejoin="round" stroke-width="2.37" d="M410.81 193.1l-5.7-5.7c1.48-3.01 2.66-8.34-1.62-10.78-2.37-5.76-14.18-12.9-16.09.81-1.8-4.13-5.56-8.2-8.34-3.46-6.18-5.29-9.5-3.66-6.31 3.06 0 0-2.85 4.47 4.68 7.93.61.61-2.44 8.15 6.52 8.35-1.7 2.58 1.08 6.17 4.68 5.9-2.58 3.2 1.76 6.58 4.47 5.3-1.15 3.52-1.08 5.22 3.87 5.7l5.5 6.3 4.48 6.11 3.86-29.51z"/>
    <path fill="none" stroke-linecap="round" stroke-width="2.22" d="M414.28 246.5c.29-.28 10.94-24.75 12.38-32.23m-11.23-11.22s1.73 19.86-3.17 34.55m-29.64-54.7s21.87 21.01 23.89 29.65m-8.64-31.95s1.44 17.27 7.49 34.26m31.09 28.48s-21.88 18.43-32.53 34.55m11.8 29.95s-28.8 4.03-41.46 4.32m31.96 8.06s-35.7-.87-38.3-3.46m20.44-42.9c0 .29-18.14 30.23-18.71 40.01"/>
  </g>
  <path fill="#65c7ff" fill-rule="evenodd" stroke="#7d6c00" stroke-width="2.37" d="M316.87 333.44c-37.77-35.62-76.45-102.48-37.97-136.27 6.84 3.88 14.9.41 26.03-3.98 3.37 3.67 7.65 4.6 11.94 1.84 4.8 2.04 8.37.4 10.72-2.15 10.92 6.33 24.9 9.6 28.17 3.37 37.87 35.93-.51 103.1-38.89 137.2z"/>
  <path fill="#8fc753" fill-rule="evenodd" d="M317.09 332.4c-16.22-16.3-31.02-34.38-42.35-57.65 1.94-1.63 2.84-2.14 3.86-5 5.82.82 8.88 1.02 16.54-.3 1.53 5.71 1.83 10.5 5.5 15.3l7.66-15c5.2 1.23 11.64 1.53 16.54 0 3.16 4.29 2.04 10.72 7.65 15.62 3.37-9.9 6.74-10.62 10.11-15.92 5 1.73 8.17 1.02 12.25-.31 2.14 2.45 1.07 2.4 4.98 6-10.24 20.33-24.27 40.73-42.74 57.27z"/>
  <path fill="#fff" fill-rule="evenodd" stroke="#000" stroke-width="1.11" d="M272.65 164.3a3.35 3.35 0 1 1-6.7 0 3.35 3.35 0 0 1 6.7 0zm-3.5-7.7a3.35 3.35 0 1 1-6.68 0 3.35 3.35 0 0 1 6.69 0zm-4.07-7.13a3.35 3.35 0 1 1-6.69 0 3.35 3.35 0 0 1 6.7 0zm-2.76-6.99a3.35 3.35 0 1 1-6.7 0 3.35 3.35 0 0 1 6.7 0zm.44-7.56a3.35 3.35 0 1 1-6.7 0 3.35 3.35 0 0 1 6.7 0zm17.66-12.51a3.35 3.35 0 1 1-6.7 0 3.35 3.35 0 0 1 6.7 0z"/>
  <path fill="#fff" fill-rule="evenodd" stroke="#000" stroke-width="1.11" d="M273.81 123.57a3.35 3.35 0 1 1-6.69 0 3.35 3.35 0 0 1 6.7 0zm-7.27 4.37a3.35 3.35 0 1 1-6.7 0 3.35 3.35 0 0 1 6.7 0zm22.4-5.39a3.35 3.35 0 1 1-6.69 0 3.35 3.35 0 0 1 6.7 0zm9.31.73a3.35 3.35 0 1 1-6.69 0 3.35 3.35 0 0 1 6.7 0zm8.3-.44a3.35 3.35 0 1 1-6.7 0 3.35 3.35 0 0 1 6.7 0z"/>
  <path fill="#fd0" fill-rule="evenodd" stroke="#7d6c00" stroke-width="1.11" d="M325.87 117.5a8.58 8.58 0 1 1-17.16 0 8.58 8.58 0 0 1 17.16 0z"/>
  <path fill="#fff" fill-rule="evenodd" stroke="#000" stroke-width="1.11" d="M334.91 122.7a3.35 3.35 0 1 1-6.69 0 3.35 3.35 0 0 1 6.7 0zm8.73.72a3.35 3.35 0 1 1-6.69 0 3.35 3.35 0 0 1 6.7 0zm8.44-.43a3.35 3.35 0 1 1-6.7 0 3.35 3.35 0 0 1 6.7 0zm7.13-.3a3.35 3.35 0 1 1-6.7 0 3.35 3.35 0 0 1 6.7 0zm8.87 1.03a3.35 3.35 0 1 1-6.69 0 3.35 3.35 0 0 1 6.7 0zm6.98 4.36a3.35 3.35 0 1 1-6.69 0 3.35 3.35 0 0 1 6.7 0z"/>
  <path fill="#e40000" fill-rule="evenodd" stroke="#ac0000" stroke-width="2.37" d="M269.41 151.7c2.85 5.42 5.7 11.05 8.55 16.47h79.23l9.18-15.85c-5.36-3.68-9.04-6.53-16.68-4.8-4.31-6.18-9.04-7.36-16.06-6.67-2.08-2.15-3.96-3.47-7.5-3.96l-16.68.42c-4.38.42-7.72 3.75-7.93 3.75-7.09-.83-13.55-.62-15.22 6.26-6.46-1.6-11.05.14-16.89 4.38z"/>
  <path fill="#fff" fill-rule="evenodd" stroke="#000" stroke-width="1.11" d="M377.97 135.35a3.35 3.35 0 1 1-6.69 0 3.35 3.35 0 0 1 6.7 0zm.59 7.86a3.35 3.35 0 1 1-6.7 0 3.35 3.35 0 0 1 6.7 0zm-2.48 7.27a3.35 3.35 0 1 1-6.69 0 3.35 3.35 0 0 1 6.7 0zm-3.05 5.97a3.35 3.35 0 1 1-6.7 0 3.35 3.35 0 0 1 6.7 0zm-3.64 7.56a3.35 3.35 0 1 1-6.69 0 3.35 3.35 0 0 1 6.69 0zm-46.82-9.59a4.95 4.95 0 1 1-9.9 0 4.95 4.95 0 0 1 9.9 0z"/>
  <path fill="#fff" fill-rule="evenodd" stroke="#000" stroke-width="1.11" d="M323.55 143.04a5.96 5.96 0 1 1-11.93 0 5.96 5.96 0 0 1 11.93 0z"/>
  <path fill="#fff" fill-rule="evenodd" stroke="#000" stroke-width="1.11" d="M322.69 132a5.38 5.38 0 1 1-10.77 0 5.38 5.38 0 0 1 10.77 0z"/>
  <path fill="#fd0" fill-rule="evenodd" stroke="#7d6c00" stroke-width="1.11" d="M315.49 109.06c0-.93-.03-4.17.03-4.3l-3.57-.06.1-3.18 3.1-.04.04-2.77h4.4v2.54h3.47l-.08 3.38-3.6-.04-.03 4.53-3.86-.07z"/>
  <path fill="none" stroke="#fd0" stroke-width="3.33" d="M277.56 168.17c-7.1-12.02-17.51-28.37-11.05-35.44 8.95-10.15 29.95-.98 43.36-6.88.98 11.46-2.22 30.44 2.92 34.4l-4.8 4.17c-2.91-3.76-8.41-8.78-15.21.2-3.9-3.4-8.32-2.8-10.4 1.73-1.98.26-1.87 1.06-4.82 1.82zm80.12-.42c7.09-12.02 17.51-28.36 11.05-35.44-8.95-10.14-29.95-.97-43.37-6.88-.97 11.47 2.23 30.44-2.92 34.4l4.8 4.17c4.61-6.49 10.37-6.7 15.22.2 3.9-3.4 7.93-2.93 10.4 1.73 1.98.27 1.87 1.06 4.82 1.82z"/>
  <path fill="#fd0" fill-rule="evenodd" stroke="#7d6c00" stroke-width="2.37" d="M277.34 177.13c28.5-2.92 54.9-1.87 79.23 0l3.13-8.96c-27.66-5-46.77-5.63-82.98-.63l.62 9.6z"/>
  <path fill="#c76e2e" fill-rule="evenodd" d="M314.12 329.38l.61-4.2c2.84.77 5 .47 7.35-.4l2.45-3.67-1.83-2.14c-1.62.34-2.95 1.85-3.98 3.15-1.63.08-3.07-.7-4.6-1.01l-1.53-6.43c-1.52-1.8-4.67-1.67-3.98 1.53l.3 2.45c.62 1.53.85 3.64 1.84 4.78v2.52l3.37 3.42zm1.22-18.3c-2.13 1.06-4.66-.77-7.35-1.83-2.45-.17-4.42 1.87-7.35 1.22.53-1.59 1.84-1.83 2.76-2.75-.68-4.13 1.53-5.51 2.14-5.51.61 0 3.06.6 3.06.6l2.45.32c1.43 2.65 3.43 5.02 4.29 7.96z"/>
  <path fill="#ffe100" fill-rule="evenodd" stroke="#e9bf00" stroke-width="2.37" d="M300.78 366.09c7.07-11.47 56.26-34.5 102.42-84.25-46.99 45.24-76.36 56.35-114.81 83.97l12.39.28z"/>
  <path fill="#9d4916" fill-rule="evenodd" stroke="#68300e" stroke-width="1.11" d="M368.4 313.19a3.58 3.58 0 1 1-7.16 0 3.58 3.58 0 0 1 7.17 0zm34.39-34.87a4.06 4.06 0 1 1-8.12 0 4.06 4.06 0 0 1 8.12 0zm11.46-29.6a3.58 3.58 0 1 1-7.16 0 3.58 3.58 0 0 1 7.16 0zm-11.23-38.44a3.58 3.58 0 1 1-7.16 0 3.58 3.58 0 0 1 7.16 0z"/>
  <path fill="#fff" fill-rule="evenodd" stroke="#a9a9a9" stroke-width="1.11" d="M279.13 269.6v-15.15l-1.54-1.29v-3.59l2.82-.26.51-16.94-1.8-1.03-.25-2.82s2.05.77 2.05.25.51-3.33.51-3.33-1.28-.26-1.28-.77 1.54-1.8 1.54-1.8-.77-.77-1.02-1.29-.77-2.82-.77-2.82l.77-2.82-.52-1.54-1.28-2.31 1.8-1.8s-.52-2.31-.52-2.83 1.28-2.56 1.54-2.82c.26-.26 2.31-3.08 2.31-3.08l4.37-1.03 5.13.77 2.83 1.8.51 4.62s-.51 2.82-.77 2.82-2.31 1.03-2.31 1.03-2.57.26-2.83 0 .77 3.08.77 3.08v3.08l-.25 3.85s0 1.8-.26 2.06-.77 1.03-.77 1.03l-.26 3.85 4.11 1.02-.25 2.32-2.83.25.52 15.66 4.1.77v4.37l-1.8 1.02-.5 15.66h-14.39zm62.4.26v-15.15l-1.55-1.28v-3.6l2.83-.25.5-16.94-1.79-1.03-.26-2.83s2.06.77 2.06.26.51-3.34.51-3.34-1.28-.25-1.28-.77 1.54-1.8 1.54-1.8-.77-.77-1.03-1.28-.77-2.82-.77-2.82l.77-2.83-.51-1.54-1.29-2.3 1.8-1.8s-.51-2.32-.51-2.83 1.28-2.57 1.54-2.82c.26-.26 2.31-3.08 2.31-3.08l4.36-1.03 5.14.77 2.82 1.8.52 4.62s-.52 2.82-.77 2.82-2.31 1.03-2.31 1.03-2.57.26-2.83 0 .77 3.08.77 3.08V218l-.25 3.85s0 1.8-.26 2.06c-.26.25-.77 1.02-.77 1.02l-.26 3.85 4.11 1.03-.26 2.31-2.82.26.51 15.66 4.11.77v4.36l-1.8 1.03-.51 15.66h-14.38zm-31.59.52v-15.15l-1.54-1.28v-3.6l2.83-.25.5-16.95-1.79-1.03-.26-2.82s2.06.77 2.06.26.51-3.34.51-3.34-1.28-.26-1.28-.77 1.54-1.8 1.54-1.8-.77-.77-1.03-1.28-.77-2.83-.77-2.83l.77-2.82-.51-1.54-1.29-2.31 1.8-1.8s-.51-2.31-.51-2.82 1.28-2.57 1.54-2.83c.26-.25 2.3-3.08 2.3-3.08l4.37-1.03 5.14.78 2.82 1.8.52 4.61s-.52 2.83-.78 2.83-2.3 1.03-2.3 1.03-2.57.25-2.83 0 .77 3.08.77 3.08v3.08l-.25 3.85s0 1.8-.26 2.05c-.26.26-.77 1.03-.77 1.03l-.26 3.85 4.1 1.03-.25 2.3-2.82.26.51 15.67 4.1.77v4.36l-1.79 1.03-.51 15.66h-14.38z"/>
  <path fill-rule="evenodd" d="M282.92 269.5v-11.94h6.69v12.41l-6.69-.48zm31.52.94l.24-12.17h5.97v11.93l-6.21.24zm31.05-.23l-.48-11.46 6.45-.24v11.94l-5.97-.24zm-60.9-36.06h3.82v6.2h-3.82zm30.33.25h5.25v5.97h-5.25zm31.03.46h4.54v5.73h-4.54z"/>
  <path fill="none" stroke="#a8a8a8" stroke-width="1.11" d="M286.57 206.97c4.1 4.62 4.37 4.62 4.37 4.62m26.18-4.62c.77 1.53 2.05 4.87 3.6 5.13m29.26-4.37s1.29 3.6 3.08 4.1"/>
  <path fill="#b97700" fill-rule="evenodd" d="M282.2 194.02c12.02-3.88-2.8-11.65-5.26 0-3.89.63-4.39 3.51-12.79 2.26-20.31 33.1-5.27 86.52 54.17 141.82-106.46-90.6-63.2-157.6-33.71-155.08 16.03 1.1 7.94 21.1-2.4 11z"/>
  <path fill="none" stroke="#7d6c00" stroke-width="2.37" d="M285.55 177.05s9.78 2.63 9.78 6.77m0-7.52s6.77 3 8.28 5.64m45.14-4.5s-8.65 1.12-10.53 3.75m-2.65-3s-4.88 4.13-4.5 5.26m3.39 12.79c-.75-.38-4.14-4.9-3.39-10.54m-29.73 7.54s2.26-2.63 2.26-7.53m13.55-1.88l.38 10.9m9.4-1.49c0-.75 3.01-7.9-.38-11.29m-20.3-1.5s-2.64 7.14-.76 13.16m19.94-6.77s-4.14 1.13-6.02 3.01m-11.67-1.9c0-.37 4.52-1.12 6.02 1.51"/>
  <path fill="#c76e2e" fill-rule="evenodd" d="M300.63 301.86c.19.1 3.75-.67 3.75-2.4 1.82-1.15.48-4.42.48-4.42l-3.37-.68-4.6-5.18c-.23-1.6.31-3.1-.68-4.8-3.17.83-5 3.49-6.05 6.53.77.96.86 2.01 2.3 2.88 1.5.26 2.53-.64 3.94-.38.74 1.28.51 2.37.77 3.55 1.92 1.35 2.3 3.27 3.46 4.9zm-4.13-22.19v-6.15l-4.42-.19c-.55.93-1.57 1.38-2.21 2.21l-3.07 1.54c1.28 1.54 2.85 2.4 3.84 3.17 2.24.67 4.1.67 5.86-.58zm-13.84 9.13l-2.4-4.04a7.19 7.19 0 0 1 4.7.3s1.06 2.5.29 3.45c-.39.87-2.69.48-2.6.3zm36.5 4.13c1.29-.64 2.47-1.76 2.7-3.36l-4.42-5.1-4.03-.09c-.93-.96-2.44-1.15-3.65-1.15 0 0 1.25 1.92 2.88 2.3 1.15 2.6 6.15 7.4 6.53 7.4zm4.34.57c0-.1 3.94-1.44 6.05-1.25-.19-1.63 2.98-5.38 2.98-5.38l5.57 7.3c-1.02.87-2.82.58-4.23.87 0 0-2.69 2.59-2.98 2.69s-5.18 1.24-7.59-.2c-1.05-2.01.3-4.32.2-4.03zm3.16-12.78c.68-2.33.87-4.67 0-7.59 0 0-6.34-.1-6.34 0s-4.22 1.92-4.22 2.02 1.34 4.13 2.97 3.75c.74 2.14 2.92 1.6 3.94 2.4l3.65-.58zm24.89-6.43c-.86 2.66-1.34 5.51-.1 8.07 1.16.2 2.5.96 3.56.77l5.09-9.22c-3.52-1.12-6.37-1-8.55.38z"/>
  <path fill="#b97700" fill-rule="evenodd" d="M353.12 193.19c-12.02-3.88 2.8-11.65 5.26 0 3.89.63 4.4 3.51 12.8 2.26 20.3 33.1 5.26 86.52-54.18 141.81 106.46-90.59 63.2-157.6 33.72-155.07-16.04 1.1-7.95 21.1 2.4 11z"/>
  <path fill="#c76e2e" fill-rule="evenodd" d="M354.33 284.67c-.19 0-3.07 2.11-3.07 2.11l-4.13 1.64-4.42.1-.96-3.08 3.36-2.98c-2.85-.42-5.7.7-7.97 2.79 0 0 0 3.36 1.92 5 1.15 1.43 4.51 4.03 4.51 4.03 2.12.41 4.13.06 5.48-1.06l5.28-8.55zm-23.25 30.16c1.44.39 11.34-12.77 11.34-12.77a10 10 0 0 0-4.9-5.38s-4.81 5.67-4.9 7.59c-.77 1.73-2.98 8.36-2.02 9.22-.1.2-.48 2.88.48 1.35z"/>
  <path fill="#006800" fill-rule="evenodd" stroke="#004100" stroke-linejoin="round" stroke-width="2.37" d="M266.37 317.4c-14.82-12.89-34.81-20-62.72-10.35 7.51 3.25 15.63 4.36 22.53 7.91l40.19 2.44z"/>
  <path fill="none" stroke="#00a400" stroke-linecap="round" stroke-width="2.22" d="M223.44 308.26c29.23.6 37.75 7.9 36.23 6.7"/>
  <path fill="#006800" fill-rule="evenodd" stroke="#004100" stroke-linejoin="round" stroke-width="2.22" d="M266.96 318.92c-8.72 1.72-20.8 10.15-24.35 9.74-9.54-1.11-18.46-4.98-27.7-7.92-3.85-1.22-7.72 0-11.58 0 32.78-15.52 43.95-13.4 63.63-1.82z"/>
  <path fill="#006800" fill-rule="evenodd" stroke="#004100" stroke-linejoin="round" stroke-width="2.37" d="M245.36 296.08s-10.96 1.52-15.83 1.82c-4.87-.3-11.95-4.84-19.79-13.09-4.09-4.48-13.4-3.95-13.4-3.95 20.6-4.37 36.64-.2 49.02 15.22zm-14.92-21.3c-14.92-.92-33.5-14.31-37.76-30.14 0 .2 5.48 3.45 4.57 4.26 24.46 6.19 26.08 11.16 33.19 25.87zm24.96 25.56c2.13-13.5 2.74-22.42-3.65-30.44-5.28-6.09-6.6-9.74-10.35-18.27-1.11 17.76-4.97 32.48 14 48.71zm-23.45-37.44c11.06-16.14 13-28.31 11.27-47.5-.3 1.53-3.96 10.96-4.27 10.96-16.44 10.35-9.13 26.5-7 36.54z"/>
  <path fill="#006800" fill-rule="evenodd" stroke="#004100" stroke-linejoin="round" stroke-width="2.37" d="M222.22 184.96c11.06 16.14 9.34 31.36 7.61 50.54-.3-1.52-3.95-10.96-4.26-10.96-16.44-10.35-5.47-29.53-3.34-39.58z"/>
  <path fill="#006800" fill-rule="evenodd" stroke="#004100" stroke-linejoin="round" stroke-width="2.37" d="M231.35 209.93c26.8-13.5 16.44-30.65 21.31-43.84-18.57 13.8-21 28.52-21.3 43.84z"/>
  <path fill="none" stroke="#00a400" stroke-linecap="round" stroke-width="2.22" d="M235 206.58c3.35-9.44 10.05-25.57 10.66-25.57m-18.57 45.36c-.61-6.7-3.96-24.66-4.26-26.49"/>
  <path fill="#006800" fill-rule="evenodd" stroke="#004100" stroke-linejoin="round" stroke-width="2.37" d="M228.3 256.5c-14.92-.91-31.05-21.3-35.31-37.14 0 .2 5.48 3.45 4.56 4.26 21.42 9.54 23.65 18.17 30.75 32.88zm-4.43-14c-11.06-16.14-12.99-28.32-11.26-47.5.3 1.52 3.96 10.96 4.26 10.96 16.44 10.35 9.13 26.49 7 36.53zm9.91-28.3c27.7-12.29 19.18-25.17 27.4-38.67-18.57 13.8-27.1 23.34-27.4 38.66z"/>
  <path fill="none" stroke="#00a400" stroke-linecap="round" stroke-width="2.22" d="M235 211.44c11.27-11.26 15.22-20.7 15.22-20.7"/>
  <g fill-rule="evenodd">
    <path fill="#ffe100" stroke="#e9bf00" stroke-width="2.37" d="M333.56 366.36l13.49.27c-44.79-41.94-130.6-60.2-118.67-137.39-12.3 83.7 70.12 91.41 105.18 137.12z"/>
    <path fill="#9d4916" stroke="#68300e" stroke-width="1.11" d="M235.42 212.66a4.3 4.3 0 1 1-8.6 0 4.3 4.3 0 0 1 8.6 0zm-2.63 23.64a4.06 4.06 0 1 1-8.12 0 4.06 4.06 0 0 1 8.12 0zm3.81 33.68a3.58 3.58 0 1 1-7.16 0 3.58 3.58 0 0 1 7.16 0zm31.28 37.24a3.58 3.58 0 1 1-7.17 0 3.58 3.58 0 0 1 7.17 0zm4.53 10.69a3.58 3.58 0 1 1-7.16 0 3.58 3.58 0 0 1 7.16 0z"/>
  </g>
  <g fill="#fff" fill-rule="evenodd">
    <g stroke="#000" stroke-width="1.11">
      <path d="M288.2 349.03c-2.35-2.13-3.85-3.5-4.77-5.83l-14.05-1.52-.19 8.02 19.01-.67z"/>
      <path stroke-linejoin="round" d="M185.31 339.57c8.16 1.5 20.46-.75 24.47 4.52 4.83 5.46-15.09 13.87-12.24 18.6 6.16 6.51 12.5 3.83 19.4.22 1.62-3.52 2.88-9.8 3.76-11.67-2.5-5.77-9.25-8.6-7.53-17.32 11.37-4.25 33.23-3.9 35.59-2.26 1.84 3.63.18 5.28.56 8.16-1.88 3.64-6.73 9.81-6.74 13.08 11.93 4.2 15.08-.65 25.8-.36 12.58.15 20.23 3.53 22.96-1.47-1.87-4.32-13.4-.8-17.78-3.58-2.19-.74-3.6-2.5-5.5-4.44s-7.2-2.04-8-6.82c2.23-10.21 16.97-8.65 19.38-10.21l38.4 2.63c6.96-.2 10.9 12.33 1.5 16.1-9.4 3.76-37.18-5.6-49.23.83-.63-2.62-9.29-6.58-9.91-6.7-3.7 1.1-10.88.7-10.88.7-1.76 3.25-3.77 5.64-5.52 8.9-7.98-3.5-15.52 2.72-24.23.88 0 0-13.17 1.5-13.55 1.5s-8.66-.75-8.66-.75l-13.18 3.77 9.42-8.29-8.29-6.02z"/>
      <path d="M184.73 337.95a3.63 3.63 0 1 1-7.26 0 3.63 3.63 0 0 1 7.26 0zm-.95 17.96a3.63 3.63 0 1 1-7.26 0 3.63 3.63 0 0 1 7.26 0z"/>
    </g>
    <g stroke="#000" stroke-width="1.11">
      <path d="M346.25 349.1c2.36-2.14 3.85-3.5 4.78-5.83l14.04-1.53.2 8.02-19.02-.66z"/>
      <path stroke-linejoin="round" d="M449.14 339.64c-8.15 1.5-20.45-.76-24.47 4.51-4.82 5.47 15.1 13.88 12.24 18.6-6.16 6.52-12.5 3.83-19.4.23-1.62-3.52-2.87-9.8-3.76-11.67 2.51-5.78 9.25-8.6 7.53-17.32-11.37-4.25-33.23-3.9-35.58-2.26-1.85 3.62-.19 5.27-.57 8.16 1.89 3.64 6.73 9.8 6.74 13.07-11.93 4.2-15.07-.64-25.8-.36-12.58.16-20.23 3.53-22.96-1.47 1.87-4.31 13.4-.8 17.78-3.57 2.2-.74 3.6-2.5 5.5-4.44s7.2-2.04 8-6.82c-2.22-10.21-16.96-8.65-19.37-10.22l-38.4 2.64c-6.96-.2-10.9 12.32-1.5 16.09 9.4 3.76 37.18-5.59 49.23.84.62-2.62 9.28-6.59 9.9-6.71 3.7 1.1 10.89.7 10.89.7 1.76 3.26 3.76 5.65 5.52 8.91 7.97-3.5 15.51 2.72 24.22.88 0 0 13.18 1.5 13.56 1.5s8.65-.75 8.65-.75l13.18 3.76-9.4-8.28 8.27-6.02z"/>
      <path d="M449.72 338.02a3.63 3.63 0 1 0 7.26 0 3.63 3.63 0 0 0-7.26 0zm.95 17.96a3.63 3.63 0 1 0 7.26 0 3.63 3.63 0 0 0-7.26 0z"/>
    </g>
    <path d="M316.99 329.34c-3.24-.6-4.38-.43-6.57-.65l-5.15 15.82c7.94.71 15.3.71 15.3.65-4.82-.98-3.65-15.75-3.58-15.82z"/>
  </g>
  <g font-family="Trebuchet MS" font-size="9" font-weight="bold">
    <text x="448.61" y="344.27" transform="translate(-464.91 -233.28) scale(1.6657)">
      <tspan x="448.61" y="344.27">L</tspan>
    </text>
    <text x="453.64" y="344.62" transform="translate(-464.91 -233.28) scale(1.6657)">
      <tspan x="453.64" y="344.62">I</tspan>
    </text>
    <text x="456.68" y="345.06" transform="translate(-464.91 -233.28) scale(1.6657)">
      <tspan x="456.68" y="345.06">B</tspan>
    </text>
    <text x="462.58" y="345.49" transform="translate(-464.91 -233.28) scale(1.6657)">
      <tspan x="462.58" y="345.49">E</tspan>
    </text>
    <text x="468.31" y="345.58" transform="translate(-464.91 -233.28) scale(1.6657)">
      <tspan x="468.31" y="345.58">R</tspan>
    </text>
    <text x="473.95" y="345.4" transform="translate(-464.91 -233.28) scale(1.6657)">
      <tspan x="473.95" y="345.4">T</tspan>
    </text>
    <text x="479.25" y="344.54" transform="translate(-464.91 -233.28) scale(1.6657)">
      <tspan x="479.25" y="344.54">A</tspan>
    </text>
    <text x="485.5" y="344.27" transform="translate(-464.91 -233.28) scale(1.6657)">
      <tspan x="485.5" y="344.27">S</tspan>
    </text>
  </g>
  <path fill="none" stroke="#00a400" stroke-linecap="round" stroke-width="2.22" d="M231.35 318.62c10.05 1.21 24.06.3 30.14 0m-45.36-34.42c8.52 6.7 27.1 10.66 26.79 10.66m10.65 1.84c-2.74-14-5.78-17.36-8.22-26.19m-43.53-15.84c14.31 6.4 16.44 10.65 25.57 17.05m5.18-14c1.22-17.36 3.65-21.92 7.92-25.88m-38.67-2.12c5.18 5.78 22.23 23.74 22.23 23.74m-7-39.58c6.39 4.56 6.39 21 6.39 21"/>
</svg>
