<svg xmlns="http://www.w3.org/2000/svg" id="flag-icon-css-sx" width="640" height="480">
  <defs>
    <clipPath id="a">
      <path fill-opacity=".67" d="M0 0h682.67v512H0z"/>
    </clipPath>
  </defs>
  <g clip-path="url(#a)" transform="scale(.9375)">
    <path fill="#ed2939" fill-rule="evenodd" d="M0 0h768v256H341.33L0 0z"/>
    <path fill="#002395" fill-rule="evenodd" d="M0 512h768V256H341.33L0 512z"/>
    <path fill="#fff" fill-rule="evenodd" d="M0 0l341.33 256L0 512V0z"/>
    <path fill="#ff0" d="M172.32 193.17l.1-3.96s-2.13-3.4.34-7.04c0 0-5.24-2.77-4.02-7.12 0 0-4.75-1.21-4.4-6.43 0 0-5.12-.36-5.65-4.72 0 0-5.12.85-7.38-3.4 0 0-5 .97-6.4-2.53 0 0-4.86 1.68-7.74-2.43 0 0-5.13 2.07-7.28-1.82-2.12 3.87-7.25 1.82-7.25 1.82-2.85 4.1-7.74 2.4-7.74 2.4-1.36 3.51-6.34 2.51-6.34 2.51-2.25 4.25-7.37 3.4-7.37 3.4-.5 4.36-5.61 4.71-5.61 4.71a5.97 5.97 0 0 1-4.34 6.42c1.25 4.35-4 7.12-4 7.12 2.54 3.66.44 7.02.44 7.02l-.12 3.66 84.77.39"/>
    <path fill="none" stroke="#000" stroke-width=".29" d="M377.17 843.11l.1-3.46s-1.86-2.96.29-6.13c0 0-4.58-2.43-3.51-6.22 0 0-4.14-1.06-3.84-5.61 0 0-4.47-.31-4.93-4.12 0 0-4.47.74-6.43-2.97 0 0-4.36.85-5.6-2.2 0 0-4.23 1.47-6.74-2.13 0 0-4.48 1.81-6.35-1.58-1.85 3.38-6.33 1.58-6.33 1.58-2.48 3.58-6.75 2.1-6.75 2.1-1.18 3.07-5.53 2.2-5.53 2.2-1.96 3.7-6.42 2.97-6.42 2.97-.44 3.79-4.9 4.1-4.9 4.1.35 4.57-3.78 5.6-3.78 5.6 1.09 3.8-3.48 6.2-3.48 6.2 2.2 3.2.37 6.14.37 6.14l-.1 3.19 73.94.34h-.01z" transform="matrix(1.1464 0 0 1.1461 -260.07 -773.12)"/>
    <path fill="red" d="M170.35 188.22c-13.32-1.33-28.65-4.5-40.49 2.17-7.93-4.68-18.98-4.4-28.39-3.48-5.1.92-11.11.92-16.45 1.79l-.84.12c-9.68.64-18.47-2.22-26.89-5.98 2.68 15.17 5.64 30.71 7.1 46.59 3.18 23.52-11.13 43.26-5.26 66.5 3.5 11.14 15.76 17.63 26.98 18.9a214.7 214.7 0 0 1 32.17 4.61c1.91.4 4.18 1.29 5.5 1.86a19.7 19.7 0 0 1 6.58 4.68c6.07-6.32 14.97-8.08 23.75-9 15.82-1.86 35.32-.85 45-15.18v-.81c5.27-7.92 4.57-20.02 2.29-29-.15-3.13-1-5.89-1.45-8.88-9.66-25.52-1.38-54.22 2.77-79.94-5.08 2.77-10.74 4.09-16.4 5.47-4.5.6-9.53.33-14.09.09l-1.89-.51"/>
    <path fill="#80cfe1" d="M190.22 261.46c-.06 1.69.85 3 1.18 4.56 1.85 11.15 3.63 25.93-7.85 32.85-12.71 8.08-29.38 4.62-44.08 8.9-2.94.81-6.99 3.51-9.05 5.43-1.33-.88-2.66-2.22-4.37-3-12.1-6.44-27.83-4.28-41.49-7.76-6.86-2.17-14.01-7.5-15.75-14.53-4.46-18.42 6.23-34.11 4.97-52.39-.82-13.95-3.16-27.34-6.38-40.43 10.67 4.98 23.03 5.81 35.04 3.42 8.89-1.24 19.24-1.27 27.57 2.5 4.59-1.98 9.96-2.87 14.91-3.41 9.4.91 19.52 2.62 29.2 2.55 6.48-.34 12.35-2.2 17.98-4.7-3.34 21.62-9.75 44.27-1.88 66.01"/>
    <path fill="#fff" d="M171.02 265.77l-.1-20.33h2.5l-31.08-20.07-.06-10.43h3l-15.54-11.13-15.46 11.12h3l.05 10.43L86.4 245.4l2.47.01.1 20.32 82.03.06"/>
    <path fill="none" stroke="#000" stroke-width="1.24" d="M376.04 906.46l-.1-17.74h2.2l-27.12-17.51-.05-9.1h2.62l-13.56-9.71-13.49 9.7h2.61l.05 9.1-26.96 17.49h2.15l.1 17.73 71.54.05v-.01z" transform="matrix(1.1464 0 0 1.1461 -260.07 -773.12)"/>
    <path fill="#fff" d="M180.58 292.48l.01 6.36-100.13-.11-.05-6.34 100.18.09"/>
    <path fill="none" stroke="#000" stroke-width="1.24" d="M384.38 929.76v5.55l-87.34-.1-.04-5.52 87.39.07z" transform="matrix(1.1464 0 0 1.1461 -260.07 -773.12)"/>
    <path fill="#fff" d="M87.1 292.1l-.08-21.53h4.06l-.23 21.77.25-21.6-5.84-.17v-4.62l89.49.1.04 4.58h-5.52l.1 21.8-.19-21.8h4.11l.1 21.55"/>
    <path fill="none" stroke="#000" stroke-width="1.24" d="M302.84 929.43l-.07-18.79h3.53l-.2 19 .22-18.85-5.1-.15v-4.03l78.07.09.04 4h-4.82l.1 19.02-.18-19.03h3.59l.08 18.81" transform="matrix(1.1464 0 0 1.1461 -260.07 -773.12)"/>
    <path fill="none" stroke="#000" stroke-width="1.24" d="M319.62 924.8l-.06-13.1h-10.48l.06 13.09 10.48.01" transform="matrix(1.1464 0 0 1.1461 -260.07 -773.12)"/>
    <path fill="none" stroke="#000" stroke-width="1.24" d="M311.94 914.43l.03 7.61h4.8l-.03-7.61h-4.8m58.92 10.41l-.06-13.09h-10.45l.05 13.09h10.46" transform="matrix(1.1464 0 0 1.1461 -260.07 -773.12)"/>
    <path fill="none" stroke="#000" stroke-width="1.24" d="M363.18 914.48l.06 7.58h4.79l-.05-7.58h-4.8m7.6-10.97l-.06-13.1h-10.46l.04 13.1h10.49-.01z" transform="matrix(1.1464 0 0 1.1461 -260.07 -773.12)"/>
    <path fill="none" stroke="#000" stroke-width="1.24" d="M363.1 893.16l.03 7.6h4.8l-.02-7.6h-4.81m-43.57 10.3l-.07-13.08h-10.47l.05 13.07h10.49v.01z" transform="matrix(1.1464 0 0 1.1461 -260.07 -773.12)"/>
    <path fill="none" stroke="#000" stroke-width="1.24" d="M311.85 893.11l.02 7.58 4.8.02-.03-7.6h-4.79m26.65 10.37l-.05-13.08h-10.47l.04 13.08h10.48" transform="matrix(1.1464 0 0 1.1461 -260.07 -773.12)"/>
    <path fill="none" stroke="#000" stroke-width="1.24" d="M330.83 893.13l.02 7.58 4.8.03-.03-7.61h-4.79m22.29 10.38l-.07-13.1-10.47-.01.05 13.08 10.49.03" transform="matrix(1.1464 0 0 1.1461 -260.07 -773.12)"/>
    <path fill="none" stroke="#000" stroke-width="1.24" d="M345.44 893.14l.04 7.61h4.8l-.03-7.61h-4.81" transform="matrix(1.1464 0 0 1.1461 -260.07 -773.12)"/>
    <path fill="#fff" d="M147.73 257.79l.13 34.6-34.77-.05-.13-34.58 34.76.03"/>
    <path fill="none" stroke="#000" stroke-width="1.24" d="M355.72 899.49l.12 30.2-30.34-.05-.1-30.17 30.31.02h.01zm-30.51 8.62l30.54.02m-26.73 21.55l-.1-21.34m23.22 21.35l-.1-21.33m14.75-21.73l-17.08-12.47-19.2-.03-16.94 12.45 53.22.05M332 863.8l.03 7.61 16.14.01-.03-7.6-16.14-.02" transform="matrix(1.1464 0 0 1.1461 -260.07 -773.12)"/>
    <path fill="none" stroke="#000" stroke-width="1.24" d="M336.37 865.69l.02 3.8h7.42l-.03-3.8h-7.41m3.67-10.55l8.98 6.35-17.9-.02 8.92-6.33" transform="matrix(1.1464 0 0 1.1461 -260.07 -773.12)"/>
    <path fill="#fff" d="M171.37 202.03c2.92-.07 3.67 12.04 3.68 18.04 2.51.7 8.08 4.2 10.55 7.37l-28.25-.04c2.43-3.12 7.95-6.64 10.44-7.34 0-6.01.62-18.12 3.58-18.05"/>
    <path fill="none" stroke="#000" stroke-width="1.24" d="M376.34 850.84c2.55-.06 3.2 10.5 3.21 15.74 2.2.62 7.05 3.67 9.2 6.44l-24.64-.04c2.12-2.73 6.94-5.8 9.11-6.41 0-5.24.54-15.8 3.12-15.74m-49.53 49.5h2.21l-.65 1.19s1.07 1.37.02 2.94l.58 1.09h-2.13l.58-1.04s-1.1-1.82.05-3l-.66-1.18m4.5 0h2.21l-.64 1.19s1.07 1.33 0 2.94l.58 1.09h-2.13l.58-1.04s-1.07-1.82.05-3l-.65-1.18m4.92 0h2.2l-.65 1.19s1.07 1.37.01 2.94l.58 1.11-2.11-.02.57-1.04s-1.08-1.8.04-3l-.65-1.18h.01zm5.54.02h2.22l-.65 1.2s1.07 1.35 0 2.92l.6 1.1h-2.14l.57-1.03s-1.06-1.83.08-3l-.67-1.19h-.01zm4.93 0h2.2l-.65 1.2s1.07 1.35.01 2.92l.59 1.1h-2.13l.56-1.03s-1.07-1.82.08-3l-.66-1.19m4.9.01l2.2-.01-.65 1.2s1.1 1.34.03 2.92l.56 1.1h-2.13l.57-1.03s-1.07-1.82.07-3l-.65-1.18" transform="matrix(1.1464 0 0 1.1461 -260.07 -773.12)"/>
    <path fill="#ff0" d="M130.5 336.76c13.03.04 29.05-2.61 36.55-6.5l16.47-1.45.33 20.1c-13.96 7.7-46.18 9.35-53.27 9.3-7.1.05-39.72-1.63-53.75-9.36l.19-20.11 16.5 1.49c7.51 3.85 24.01 6.53 37.02 6.53h-.03"/>
    <path fill="none" stroke="#000" stroke-width=".29" d="M340.7 968.4c11.36.04 25.33-2.28 31.87-5.67l14.37-1.27.3 17.54c-12.18 6.71-40.3 8.15-46.48 8.1-6.2.05-34.65-1.41-46.88-8.15l.16-17.55 14.4 1.3c6.55 3.36 20.94 5.7 32.29 5.7h-.03" transform="matrix(1.1464 0 0 1.1461 -260.07 -773.12)"/>
    <path fill="#ff0" d="M34.42 251.02l14.51 4.62-4.39 23.5-13.74 2.14S28.5 268.92 34.42 251"/>
    <path fill="none" stroke="#000" stroke-width=".29" d="M256.88 893.59l12.66 4.03-3.83 20.5-11.98 1.87s-2.02-10.79 3.15-26.41v.01z" transform="matrix(1.1464 0 0 1.1461 -260.07 -773.12)"/>
    <path fill="#7e7e7e" d="M44.54 278.88l-13.73 2.4 8.68-12.36 5.05 9.96"/>
    <path fill="none" stroke="#000" stroke-width=".29" d="M265.71 917.9l-11.98 2.09 7.58-10.78 4.4 8.69" transform="matrix(1.1464 0 0 1.1461 -260.07 -773.12)"/>
    <path fill="#ff0" d="M25.74 267.95l14 1.01c.3 11.86 1.74 57.1 55.77 59.55l-1.68 16.46c-65.77.68-70.76-55.49-68.1-77.02"/>
    <path fill="none" stroke="#000" stroke-width=".29" d="M249.31 908.36l12.2.88c.28 10.34 1.53 49.81 48.66 51.96l-1.47 14.36c-57.36.6-61.72-48.41-59.39-67.2zm44.8 70.14l14.38-3.14" transform="matrix(1.1464 0 0 1.1461 -260.07 -773.12)"/>
    <path fill="#ff0" d="M225.45 251.2L211 255.76l4.59 23.46 13.77 2.22s2.2-12.35-3.9-30.27"/>
    <path fill="none" stroke="#000" stroke-width=".29" d="M423.52 893.74l-12.61 4 4 20.47 12 1.93s1.94-10.78-3.39-26.41v.01z" transform="matrix(1.1464 0 0 1.1461 -260.07 -773.12)"/>
    <path fill="#7e7e7e" d="M215.57 278.99l13.77 2.47-8.8-12.36-4.97 9.89"/>
    <path fill="none" stroke="#000" stroke-width=".29" d="M414.9 917.99l12.01 2.15-7.68-10.78-4.33 8.63" transform="matrix(1.1464 0 0 1.1461 -260.07 -773.12)"/>
    <path fill="#ff0" d="M234.3 268.13l-14.02.96c-.2 11.84-1.24 57.1-55.26 59.5l1.83 16.44c65.75.76 70.28-55.38 67.44-76.9"/>
    <path fill="none" stroke="#000" stroke-width=".29" d="M431.23 908.52l-12.22.83c-.18 10.33-1.08 49.82-48.2 51.92l1.6 14.35c57.35.66 61.3-48.33 58.82-67.1zm-44.19 70.05l-14.42-3.15" transform="matrix(1.1464 0 0 1.1461 -260.07 -773.12)"/>
    <path fill="#009fc5" d="M121.76 346.67c-.37.23-.87.3-1.45.27l-2.61-.14.22-3.25 2.6.14c.5.03.9.13 1.16.28.52.27.75.78.7 1.47-.03.6-.24 1-.63 1.22m-4.38 5.13l.26-3.97 3.04.21c.99.08 1.72-.18 2.22-.68.51-.49.78-1.13.81-1.86a2.51 2.51 0 0 0-.65-2.04 3.17 3.17 0 0 0-2.03-.83l-4.35-.27-.6 9.35 1.3.08m9.47-7.8l3.18.03c.46.04.83.1 1.1.22.48.23.71.7.71 1.36 0 .63-.18 1.05-.54 1.3a2.6 2.6 0 0 1-1.43.33l-3.06-.03.03-3.22m-.05 8.28l.03-3.99 2.99.04c.53 0 .92.05 1.2.18.43.2.65.63.67 1.21l.08 1.57c.02.38.02.61.04.76.05.11.07.23.12.32h1.6l-.02-.2a.81.81 0 0 1-.39-.58 3.44 3.44 0 0 1-.1-.8l-.03-1.24c-.02-.57-.12-.96-.33-1.17a1.67 1.67 0 0 0-.85-.6c.45-.24.79-.51 1.03-.85.23-.37.35-.84.35-1.4 0-1.08-.44-1.81-1.33-2.21a4.72 4.72 0 0 0-1.83-.34l-4.48-.05-.04 9.38h1.3m9.95-1.98a4.47 4.47 0 0 1-.95-2.6c-.06-1.3.2-2.3.79-2.96a3.13 3.13 0 0 1 2.38-1.13 3.08 3.08 0 0 1 2.48.91c.64.63 1 1.5 1.06 2.6a5.01 5.01 0 0 1-.63 2.78c-.47.83-1.26 1.3-2.42 1.33-1.22.06-2.13-.23-2.7-.93m-1.54-5.9c-.6.92-.84 2-.78 3.3.09 1.4.52 2.56 1.34 3.43a4.6 4.6 0 0 0 3.59 1.23 4.44 4.44 0 0 0 3.58-1.78c.66-1 .97-2.15.9-3.58a5.03 5.03 0 0 0-1.15-3.1c-.87-1.03-2.15-1.5-3.88-1.42-1.63.1-2.83.7-3.6 1.92m44.07-13.5c.9-.15 1.68-.1 2.39.14 1.05.33 1.75 1.1 2.2 2.29l-1.3.18a2.44 2.44 0 0 0-1.21-1.33 3.52 3.52 0 0 0-1.94-.17 3.01 3.01 0 0 0-2.08 1.28c-.48.75-.63 1.75-.41 3.04a4.46 4.46 0 0 0 1.2 2.56c.6.61 1.47.83 2.61.67a3.16 3.16 0 0 0 2.02-1.07c.5-.56.65-1.4.48-2.49l-3 .46-.16-1.03 4.19-.64.81 4.96-.83.12-.51-1.14c-.35.51-.7.91-1 1.14-.53.4-1.22.66-2.1.8a4.33 4.33 0 0 1-3.1-.64 5.07 5.07 0 0 1-1.93-3.46 5.13 5.13 0 0 1 .68-3.9 4.1 4.1 0 0 1 2.99-1.78m9.47-.7l3-1.1c.4-.15.76-.2 1.07-.16.55.04.96.37 1.19 1.02.21.56.21 1.05-.03 1.4-.26.35-.66.6-1.25.82l-2.82 1.01-1.16-3m3 7.76l-1.47-3.76 2.8-1c.52-.18.88-.27 1.15-.24.5.06.87.36 1.12.93l.64 1.44c.14.35.25.57.34.67.04.12.13.2.2.28l1.52-.56-.09-.2c-.22 0-.44-.12-.6-.37-.11-.17-.23-.42-.39-.72l-.5-1.17c-.21-.5-.45-.82-.71-1.01a2.4 2.4 0 0 0-1-.27c.3-.36.53-.72.62-1.13.09-.43.05-.9-.16-1.43-.38-1-1.09-1.55-2.08-1.62a4.5 4.5 0 0 0-1.81.32l-4.22 1.5 3.4 8.82 1.24-.46m10.97-4.67l-5.35-7.8 5.87-3.75.65.94-4.81 3.07 1.64 2.4 4.45-2.87.6.91-4.44 2.86 1.82 2.63 4.9-3.13.64.92-5.98 3.82m4.7-13.81l1.53-1.69c.72-.75 1.47-1.1 2.3-1 .82.07 1.65.5 2.55 1.29a4.66 4.66 0 0 1 1.45 2.1c.12.56.1 1.07-.1 1.56-.12.24-.33.53-.64.87l-1.54 1.68-5.55-4.82m8.1 3.67c1.1-1.2 1.33-2.49.7-3.95a6.67 6.67 0 0 0-1.72-2.22 5.18 5.18 0 0 0-3.09-1.4c-1.2-.1-2.22.34-3.1 1.3l-2.62 2.81 7.21 6.3 2.62-2.82m5.6-7.29l-8.3-4.88.67-1.07 8.32 4.85-.68 1.11m3.24-5.67l-8.96-3.59 2.64-6.3 1.09.41-2.16 5.2 2.7 1.06 2.02-4.79 1.03.43-2 4.78 3.03 1.23 2.21-5.26 1.1.4-2.7 6.43m4.12-11.02l-9.44-2.08.32-1.46 8.71-2.94-7.65-1.7.28-1.14 9.43 2.03-.3 1.42-8.73 3 7.66 1.66-.27 1.21m-.76-11.97l.12-1.19c.55.02 1-.07 1.36-.26.68-.37 1.08-1.07 1.18-2.11a3.7 3.7 0 0 0-.09-1.32c-.2-.78-.64-1.21-1.34-1.28-.53-.06-.9.07-1.18.35-.24.33-.5.8-.7 1.47l-.43 1.24c-.28.8-.53 1.37-.81 1.68-.45.59-1.08.8-1.88.73a2.8 2.8 0 0 1-2.05-1.08c-.51-.6-.72-1.46-.6-2.52.09-.97.4-1.79.98-2.44.53-.6 1.36-.9 2.4-.78l-.09 1.19c-.52 0-.93.09-1.23.3-.54.3-.84.93-.93 1.86-.08.77.03 1.28.32 1.67.3.33.66.54 1.1.58.45.04.82-.1 1.07-.46.18-.25.4-.78.69-1.64l.43-1.3c.2-.6.46-1.06.75-1.38.52-.55 1.2-.78 2.06-.71 1.05.1 1.8.54 2.18 1.34.38.8.53 1.68.43 2.69a3.88 3.88 0 0 1-1.17 2.63c-.68.61-1.53.82-2.57.74m-195.58-.58l.21 1.18c-.52.1-.94.31-1.25.58-.55.52-.74 1.3-.55 2.35a4 4 0 0 0 .45 1.23c.42.71.96 1 1.65.89.51-.1.85-.29 1-.65.16-.36.27-.9.3-1.6l.07-1.32c.04-.81.13-1.46.32-1.81.28-.64.82-1.04 1.62-1.17.86-.16 1.61.04 2.26.53.66.45 1.1 1.24 1.25 2.28.2.96.11 1.82-.26 2.6-.37.75-1.06 1.2-2.13 1.4l-.21-1.18c.5-.19.86-.36 1.1-.6.43-.47.55-1.15.4-2.08-.13-.75-.4-1.24-.78-1.48a1.5 1.5 0 0 0-1.19-.33c-.47.07-.77.33-.92.75-.09.28-.16.85-.22 1.74l-.07 1.37a3.46 3.46 0 0 1-.35 1.53 2.24 2.24 0 0 1-1.76 1.22c-1.07.18-1.9-.07-2.48-.75a4.93 4.93 0 0 1-1.16-2.47 3.82 3.82 0 0 1 .42-2.85 3.03 3.03 0 0 1 2.28-1.34m-.6 12.35l9.23-2.78 2.15 6.5-1.13.35-1.76-5.33-2.8.84 1.62 4.93-1.07.35-1.61-4.95-3.13.93 1.79 5.46-1.1.31-2.19-6.6m4.1 11.26l8.48-4.5.9 1.58-5.83 6.17 8.52-1.46.88 1.57-8.46 4.47-.6-1.04 5-2.63c.18-.1.45-.26.86-.47.4-.18.84-.43 1.29-.66l-8.49 1.45-.62-1.1 5.8-6.15-.28.14c-.18.1-.5.25-.92.5a6.98 6.98 0 0 1-.94.5l-4.98 2.67-.62-1.06m15.81 12.51c-.42-.1-.84-.34-1.25-.77l-1.8-1.85 2.42-2.2 1.8 1.83a3 3 0 0 1 .7.97c.16.55 0 1.05-.51 1.52-.46.43-.92.6-1.36.5m-6.82.86l2.96-2.72 2.1 2.13c.68.7 1.37 1 2.1 1a2.95 2.95 0 0 0 1.93-.85c.63-.56.93-1.22.93-1.92 0-.68-.32-1.33-.9-1.93l-3.02-3.07-7.02 6.44.91.92m8.48 7.53l5.1-7.98 6 3.66-.62.95-4.94-2.96-1.53 2.42 4.54 2.75-.58.91-4.55-2.74-1.73 2.7 5 3.01-.6.94-6.09-3.66m15.06-1.54l3.05.97c.44.13.75.3.96.5.39.36.5.9.26 1.53-.18.56-.47.92-.92 1.08-.4.07-.9.07-1.48-.11l-2.89-.92 1.02-3.05m-2.64 7.84l1.27-3.8 2.84.92c.51.14.88.32 1.07.5.34.32.45.79.28 1.37l-.43 1.51-.19.73c0 .11 0 .24.02.32l1.5.5.1-.22c-.17-.13-.26-.36-.25-.65.03-.17.08-.45.18-.77l.36-1.22c.15-.53.2-.92.07-1.2-.1-.3-.3-.58-.61-.84.47-.08.88-.23 1.23-.49.33-.28.61-.68.78-1.24.34-1.01.15-1.86-.6-2.5a5.22 5.22 0 0 0-1.62-.88l-4.27-1.32-2.99 8.9 1.25.38"/>
    <path fill="#bc715f" d="M78.48 175.58c1.1-2.66 11.32-9.91 44.85-6.74 0 0 5.67 3.46 9 3.02 1.9-.25-1.12.11-3.6-1.94-2.53-2.06-3.06-6.28 2.7-6.17 5.75.15 27.25 1.36 27.66 3.3.37 1.95-11.37 2.76-15.74 2.65-4.39-.12-3.88 2.1.49 1.93 13.65-.49 28.55-5.3 44.28 5.84 1.88 1.35-4.74 1.57-9.86-.61 0 0-13.88.72-19.89-.27 0 0-4.6 3.76-10.62 3.39.78 1.94-2.22 9.2-21.1 3.74-3.13.96-14.5 2.86-13.25-.51-3 0-8.24.96-9.03-.74-.75-1.68 9.24-4.2 11-6.02 0 0-21.14.2-25.15-1.26 0 0-12.47 2.8-11.74.37"/>
    <path fill="#008737" d="M85.26 205.17c.45-.61.64-1.72 1.6-1.69 2.1.56 3.52 4.39 6.09 1.9.92-.2 1.26 1.04 2.02 1.2.48 2.12 2.19-.44 3.46-.3 2.73-1.21 6.11-1.5 9.34-.9.1 2.09-1.53 4.4-3.58 5.58.04 2.1 1.94 3.45 1.9 5.56-.32.79-.05 2.03-1.24 2.29-1.52-.27-3-.43-4.26-1.28-.16-.15-.29-.45-.6-.35-.16.7.94 1.4 1.38 2.12-.76 1.3-2.03.1-3.09.12-.31.75-.01 1.69-.78 2.17-1.34-.04-1.61-1.5-2.44-2.22-.84.9.6 1.45.8 2.18-.52 2.75-.45 5.43-3.2 7.23l-1.84.92c-.5-1.38-.19-3.48-.52-4.92-1.09 1.77-1.94 3.32-3.54 4.82-1.87-.61-2.96-2.82-3.37-4.65a5.8 5.8 0 0 1 1.35-6.21c-.58-1.12-2.54-.86-2.82-2.45-2.93-1.91-4.56 3.35-6.46.61a8.61 8.61 0 0 1 1.97-7.63c-.41-1.05-1.78-.77-2.59-1.37-1.85-1.57-4.51-3.23-4.38-6.07a14.06 14.06 0 0 1 14.79 3.34"/>
    <path fill="#ff0" d="M87.89 204.88c-.12 2.32 1.56.63 2.8 2.03-.97-.38-1.68 1.69-2.64.5l-.6.58c.35.8 1.03.9.32 1.77-1.04.4-1.25-.92-1.74-1.43-.08-.23.16-.67-.22-.82-.6.5-1.22.69-2.03.6-.23-.45-.66-1.03-.22-1.37.8-1.09 2.04.39 2.65-.37.1-.67-.49-1.49.27-1.95.53.1 1.2-.2 1.41.46m6.26 1.9c.06.45-.23 1.08.35 1.4.76-.42 1.57-.1 2.01.65 0 .4.12.93-.41 1.13l-1.19-.22c.09-.24-.3-.38-.44-.6-.52-.16-.83.26-1.22.52.3.44.97.69.81 1.26-.7.7-1.04-.6-1.8-.27-.53-.2.18-1.3-.64-1.62-.98 0-.33 1.6-1.58.98-.45-.5-.89-1.18-.4-1.75a1.59 1.59 0 0 1 1.85.2c.76-.85.84-4.1 2.66-1.68m-7.8 3.36c.5.73-.11 1.73.54 2.55 1.02-1.9 2 .41 3.21.23.37.45.13 1.08.2 1.6-1.5.4-3.3.87-4.64-.33l-.37.42c.8.74 1.54 1.57.91 2.8-1.12.24-2.86.27-3.42-.9-.3-.95.68-1.64-.35-2.4-.75.92-.72 2.16-2.27 1.32a1.86 1.86 0 0 1-.77-2.55c1-1.58 2.76.05 3.85-.72.16-1.36-.35-2.55.9-3.3 1.07-.19 1.57.61 2.22 1.28"/>
    <path fill="#fff" d="M90.6 210.98c-.5 2.32-2.24-.12-3.06-.22 1.09-1.93 1.77.63 3.06.22m5.44 2.52c-1.22.34-1.03-1.17-1.63-1.77l.47-.42c.44.53.77 1.49 1.16 2.19"/>
    <path fill="#ff0" d="M94.4 213.03c.35.8-.8 1.45.18 2.03l.84-.76c.83.24 1.8.4 2.38 1.21.62 1.7-1.1 1.66-2.08 2.14l-.97-.04c.23-.48-.42-.68-.58-1a.92.92 0 0 0-1.07.4c.22 1.08 1.53 1.92.17 2.89-1.15-.08-2.93.37-2.83-1.22-.43-.9 1.17-2.3-.54-2.35-.57 1.22-1.2 2.39-2.66 1.24l.18-1.73c1.4.04 3.08.28 3.71-1.3.4-1.14-.7-2.2.29-3.1 1.44-.33 2.24.64 2.98 1.59"/>
    <path d="M93.36 215.63c.37.86-.6.92-1.07 1.34-.62.05-1.05-.2-1.43-.61-.28-1.04.5-1.15 1.09-1.56.69-.28.97.52 1.41.83"/>
    <path fill="#fff" d="M92.52 216.2c-.16.2-.37.13-.6.19l-.22-1.04c.46.04 1.06.19.82.84"/>
  </g>
</svg>
