<svg xmlns="http://www.w3.org/2000/svg" height="480" width="640">
    <g clip-path="url(#a)" transform="matrix(.938 0 0 .938 80 0)">
        <path fill-rule="evenodd" fill="#3e5eb9" d="M-128 0h768v512h-768z"/>
        <path fill-rule="evenodd" fill="#ffd900" d="M-128 91.429h768v329.14h-768z"/>
        <path fill-rule="evenodd" fill="#b10c0c" d="M-128 128h768v256h-768z"/>
        <rect fill-rule="evenodd" rx="5.767" ry="5.851" height="10.971" width="621.71" stroke="#000" y="250.51" x="-51.439" stroke-width="1.474" fill="#ffd900"/>
        <g stroke="#000" transform="matrix(1.032 0 0 1.032 -757.03 -25.6)">
            <path d="M1220.658 216.145l-30.118 10.63 30.118 10.63 30.118-10.63-30.118-10.63z" fill-rule="evenodd" fill="#fff"/>
            <rect fill-rule="evenodd" rx="4.108" ry="3.78" height="7.087" width="442.91" y="223.23" x="761.81" fill="#ffd900"/>
            <path d="M1194.088 230.314c1.77 0 3.545-1.772 3.545-3.543s-1.775-3.543-3.545-3.543" fill="none"/>
            <path d="M1190.588 230.314c1.77 0 3.545-1.772 3.545-3.543s-1.775-3.543-3.545-3.543" fill="none"/>
            <path d="M1186.988 230.315c1.77 0 3.545-1.772 3.545-3.543s-1.775-3.543-3.545-3.543" fill="none"/>
        </g>
        <g stroke="#000" transform="matrix(1.032 0 0 1.032 -786.29 -3.657)">
            <path d="M1220.658 216.145l-30.118 10.63 30.118 10.63 30.118-10.63-30.118-10.63z" fill-rule="evenodd" fill="#fff"/>
            <rect fill-rule="evenodd" rx="4.108" ry="3.78" height="7.087" width="442.91" y="223.23" x="761.81" fill="#ffd900"/>
            <path d="M1194.088 230.314c1.77 0 3.545-1.772 3.545-3.543s-1.775-3.543-3.545-3.543" fill="none"/>
            <path d="M1190.588 230.314c1.77 0 3.545-1.772 3.545-3.543s-1.775-3.543-3.545-3.543" fill="none"/>
            <path d="M1186.988 230.315c1.77 0 3.545-1.772 3.545-3.543s-1.775-3.543-3.545-3.543" fill="none"/>
        </g>
        <g fill-rule="evenodd">
            <path d="M338.07-.416c-5.571 12.442 4.275-4.138 28.299 16.691 4.452 3.87 8.342 14.09 8.342 21.177-1.13-.975-1.969-3.144-3.214-4.552-1.743 2.253 1.664 12.577 2.162 17.457-3.756-2.711-3.394-3.994-4.642-7.324.249 4.026-.645 15.116.849 19.386-2.96-1.09-2.764-4.163-4.31-4.78 1.052 4.834-.916 10.094-.394 15.528-1.73-2.208-3.573-3.938-4.376-4.829-.135 2.588-3.327 9.388-3.4 11.835-1.468-1.144-1.866-2.926-2.111-4.127-1.824 2.955-8.308 13.872-8.724 17.202-4.996-5.689-17.793-19.545-19.459-26.899-1.473 4.175-3.604 5.583-7.817 8.632-1.665-11.656-7.891-24.756-4.561-34.747-2.359 1.804-4.302 3.608-6.66 5.828 2.234-16.88 13.628-36.674 30.016-46.477z" transform="matrix(.994 0 0 .771 190.372 251.967)" stroke="#000" stroke-width="1.067pt" fill="#3d5da7"/>
            <path d="M505.783 299.228c2.308-4.603 4.428-6.063 5.919-9.026 2.634-5.209 3.014-9.354 5.301-8.746 2.287.608 2.282 2.741-.69 7.864-2.971 5.122-4.382 6.216-10.531 9.909z" fill="#a70000"/>
            <path d="M521.361 310.036c-.29-3.495.728-4.955.546-7.206-.31-3.961-1.927-6.68.182-6.873 2.109-.193 3.093 1.158 3.093 5.15 0 3.991-.62 5.04-3.82 8.929z" fill="#a70000"/>
            <path d="M533.138 316.884c-.914-4.88-.222-7.045-.806-10.189-1.018-5.533-3.043-9.174-1.088-9.68 1.954-.507 3.13 1.282 3.862 6.893.732 5.61.339 7.153-1.968 12.977z" fill="#a70000"/>
            <path d="M545.581 282.825c-2.888-2.195-4.572-2.344-6.434-3.755-3.281-2.476-4.943-5.123-5.995-3.81-1.052 1.313-.302 2.75 3.135 5.034s4.6 2.465 9.294 2.532z" fill="#a70000"/>
            <path d="M543.498 299.04c-1.522-3.161-3.121-3.963-4.105-5.997-1.74-3.574-1.747-6.665-3.629-5.874-1.882.791-2.031 2.41-.014 5.869 2.018 3.459 3.072 4.086 7.747 6.002z" fill="#a70000"/>
        </g>
        <g fill-rule="evenodd">
            <path d="M329.6 20.703c-.272-2.662.253-2.981-1.258-4.989 2.2.997 2.284 3.649 4.959 1.767.983-.551 1.411-.569.217-3.526 2.79.14 11.927 3.535 13.39 3.614 3.842.191 10.855-4.373 15.723 1.239 4.672 5.117 3.112 10.429 3.112 17.516-1.877-.975-.973-1.455-2.965-3.989 1.494 6.195-.08 17.364-.08 23.934-.767-1.584-.654-.896-1.404-2.537-1.992 5.997-4.38 7.231-4.38 14.318-.719-2.779-.025-2.192-.825-3.654-1.936 4.552-14.925 8.444-9.92 13.033-4.518-2.87-6.499-2.569-8.548-5.15-.882.617-1.584 1.785-2.404 3.387-7.943-3.96-5.103-12.501-11.326-18.206-1.077 2.392-.586 2.045-1.75 5.938-1.26-5.408-1.604-8.844-3.021-12.819-1.223 2.204-1.113 1.359-3.333 4.689-.918-6.587-2.413-8.142-1.822-12.501-2.359 1.804-.815 1.073-3.173 3.293 2.234-16.88 11.884-29.352 18.808-25.358z" transform="matrix(1.137 0 0 1.049 -399.332 239.172)" stroke="#000" stroke-width="1.067pt" fill="#3d5da7"/>
            <path d="M-35.801 289.804c2.335-5.704 4.435-7.495 5.944-11.166 2.665-6.454 3.105-11.612 5.334-10.826 2.229.787 2.189 3.443-.805 9.785-2.993 6.342-4.393 7.686-10.473 12.207z" fill="#a70000"/>
            <path d="M-26.842 304.129c.928-5.118 2.4-6.982 3.002-10.278 1.069-5.796.466-10.111 2.541-9.884 2.075.227 2.547 2.414 1.172 8.18-1.375 5.765-2.326 7.131-6.714 11.982z" fill="#a70000"/>
            <path d="M-16.27 314.124c.257-4.966 1.416-6.906 1.585-10.104.308-5.626-.779-9.653 1.199-9.677 1.978-.024 2.685 1.998 2.087 7.631-.599 5.632-1.329 7.038-4.871 12.15z" fill="#a70000"/>
            <path d="M6.153 281.569c-4.318-4.312-6.932-5.116-9.716-7.889-4.907-4.87-7.274-9.442-9.026-7.821-1.752 1.621-.704 4.051 4.463 8.686 5.167 4.634 6.965 5.309 14.279 7.024z" fill="#a70000"/>
            <path d="M3.677 298.245c-2.822-4.33-4.891-5.451-6.712-8.238-3.212-4.896-4.318-9.104-6.137-8.061-1.819 1.042-1.411 3.242 2.07 7.987s4.881 5.618 10.779 8.312z" fill="#a70000"/>
        </g>
        <g fill-rule="evenodd">
            <path d="M637.8 230.32c-53.15 59.05-124.02 177.16-265.75 177.16-124.02 0-212.6-118.11-265.75-177.16 53.15-59.06 141.73-177.17 265.75-177.17 141.73 0 212.6 118.11 265.75 177.17z" transform="matrix(.688 0 0 .619 -.011 113.355)" stroke="#000" stroke-width="2.108" fill="#fff"/>
            <path d="M243.209 184.415c9.728 10.938 1.605 15.348 11.902 16.066 10.859.797 4.704 11.558 13.838 11.932 6.386.279-.638 25.783 5.51 34.198 6.262 8.774 11.507 2.571 11.617 8.909.109 6.555-17.044 5.894-17.344 26.088-.503 11.637-14.475 12.382-15.142 19.871-.829 7.043 27.526 10.997 27.148 17.302-.389 6.286-30.617 5.302-31.933 12.47-.675 6.439 41.527 11.716 44.92 30.339-6.297 2.059-24.213 3.997-37.755 4.007-85.319.068-146.269-73.11-182.836-109.662 36.567-36.558 97.51-109.668 182.836-109.668 0 0-25.327 23.135-12.762 38.147z"/>
            <g fill="#fff">
                <path d="M141.342 216.989h8.858v29.233h-8.858z"/>
                <path d="M141.342 265.71h8.858v29.233h-8.858z"/>
                <path d="M159.057 216.989h8.858v29.233h-8.858z"/>
                <path d="M159.057 265.71h8.858v29.233h-8.858z"/>
                <path d="M176.772 216.989h8.858v29.233h-8.858z"/>
                <path d="M176.772 265.71h8.858v29.233h-8.858z"/>
                <path d="M194.492 216.989h8.858v29.233h-8.858z"/>
                <path d="M194.492 265.71h8.858v29.233h-8.858z"/>
                <path d="M212.207 216.989h8.858v29.233h-8.858z"/>
                <path d="M212.207 265.71h8.858v29.233h-8.858z"/>
                <path d="M229.922 216.989h8.858v29.233h-8.858z"/>
                <path d="M229.922 265.71h8.858v29.233h-8.858z"/>
            </g>
            <g>
                <path d="M275.433 216.989h8.858v29.233h-8.858z"/>
                <path d="M275.433 265.71h8.858v29.233h-8.858z"/>
                <path d="M293.148 216.989h8.858v29.233h-8.858z"/>
                <path d="M293.148 265.71h8.858v29.233h-8.858z"/>
                <path d="M310.863 216.989h8.858v29.233h-8.858z"/>
                <path d="M310.863 265.71h8.858v29.233h-8.858z"/>
                <path d="M328.583 216.989h8.858v29.233h-8.858z"/>
                <path d="M328.583 265.71h8.858v29.233h-8.858z"/>
                <path d="M346.298 216.989h8.858v29.233h-8.858z"/>
                <path d="M346.298 265.71h8.858v29.233h-8.858z"/>
                <path d="M364.013 216.989h8.858v29.233h-8.858z"/>
                <path d="M364.013 265.71h8.858v29.233h-8.858z"/>
            </g>
        </g>
        <g fill-rule="evenodd">
            <path d="M338.07-.416c-5.571 12.442 9.754-4.138 33.778 16.691 4.452 3.87 10.833 19.159 10.833 26.245-5.115-1.256-14.173-7.087-14.173-7.087s10.63 12.295 10.63 26.468c-3.756-2.711-5.635-2.304-6.883-5.635 0 4.589 3.34 7.513 3.34 14.599-2.711-2.498-5.006-4.163-7.3-5.625 3.543 7.087-6.457 20.834-1.452 25.423-8.752-1.462-17.707-7.919-21.25-15.006-1.878 1.462-2.082 3.756-2.155 6.203.276.264-13.322-11.656-12.073-16.235-1.824 2.955-2.081 4.579-2.497 7.909-4.996-5.689-9.574-11.378-11.24-18.733l-4.579 6.66c-1.665-11.656-1.665-11.24 1.665-21.23-2.359 1.804-4.302 3.608-6.66 5.828 2.234-16.88 13.628-36.674 30.016-46.477z" transform="matrix(.909 0 0 .788 -110.558 166.096)" stroke="#000" stroke-width="1.067pt" fill="#3d5da7"/>
            <path d="M184.471 213.623c.802-6.75 2.565-9.293 3.087-13.64.931-7.645-.193-13.231 2.519-13.091 2.712.14 3.497 2.959 2.166 10.587-1.33 7.628-2.458 9.481-7.773 16.143z" fill="#a70000"/>
            <path d="M198.399 226c-.539-5.697.516-8.122.173-11.792-.59-6.457-2.575-10.832-.215-11.233 2.36-.401 3.549 1.766 3.793 8.286.244 6.519-.389 8.256-3.751 14.739z" fill="#a70000"/>
            <path d="M220.733 236.053c-2.41-4.926-4.477-6.395-6.033-9.566-2.748-5.573-3.325-10.124-5.439-9.299-2.114.825-1.995 3.18 1.065 8.635s4.442 6.567 10.407 10.23z" fill="#a70000"/>
            <path d="M228.32 192.037c-6.123-3.225-9.266-3.268-13.212-5.34-6.948-3.633-10.994-7.735-12.427-5.481-1.433 2.254.484 4.498 7.647 7.802 7.162 3.304 9.363 3.462 17.992 3.019z" fill="#a70000"/>
            <path d="M230.335 210.47c-4.444-3.711-7.073-4.259-9.939-6.646-5.049-4.19-7.56-8.301-9.249-6.636-1.689 1.665-.563 3.867 4.736 7.814 5.3 3.947 7.113 4.438 14.451 5.468z" fill="#a70000"/>
        </g>
    </g>
</svg>
