<svg xmlns="http://www.w3.org/2000/svg" height="480" width="640"><defs><clipPath id="a"><rect fill-opacity=".67" height="512" width="682.67"/></clipPath></defs><g clip-path="url(#a)" fill-rule="evenodd" transform="scale(.938 .938)"><rect height="512" width="767.63" fill="#ffe300"/><rect height="102.81" width="767.63" y="208.14" fill="#118600"/><rect height="102.81" width="767.63" y=".248" fill="#118600"/><rect height="310.71" width="306.51" y=".248" fill="#d80000"/><path d="M134.42 128.43c0-.856 18.836-53.083 18.836-53.083l17.124 52.227s57.365 1.712 57.365.856l-45.378 34.248s21.404 59.933 20.549 58.221c-.856-1.712-49.659-35.96-49.659-35.96s-49.658 34.248-48.802 34.248c.856 0 18.835-56.508 18.835-56.508l-44.522-33.392 55.652-.856z" fill="#fff"/><rect height="102.81" width="767.63" y="409.19" fill="#118600"/></g></svg>