<svg xmlns="http://www.w3.org/2000/svg" xmlns:xlink="http://www.w3.org/1999/xlink" height="480" width="640">
  <path fill="#060" d="M0 0h640v480H0z"/>
  <path fill="#fff" d="M0 0h640v342.857H0z"/>
  <path fill="#c00" d="M0 0h640v137.143H0z"/>
  <g transform="matrix(.6857 0 0 .6857 -160 0)" fill="#f8c300">
    <path d="M672 340.7a12.5 12.5 0 0 1 23.3 5.9v50h9.4v-50a12.5 12.5 0 0 1 23.3-5.9 29.5 29.5 0 1 0-56 0"/>
    <path d="M678.7 327.65a20 20 0 0 1 21.3 9.55 20 20 0 0 1 21.3-9.55 21.5 21.5 0 0 0-42.6 0" fill="#fff"/>
    <path id="a" d="M695.3 376.627a38 38 0 0 1-63.845 24.316 39.5 39.5 0 0 1-59.734 17.467c3.65 36.426 58.253 28.99 62.32-6.43 17.155 30.116 54.874 21.49 65.91-15.4z"/>
    <use height="100%" width="100%" xlink:href="#a" transform="matrix(-1 0 0 1 1400 0)"/>
    <path id="b" d="M658.84 441.31c-7.618 16.446-22.845 19.27-36.164 5.995 0 0 5.354-3.783 11.086-4.826-1.075-4.575 1.13-10.903 4.235-14.325 3.258 2.227 7.804 6.69 8.96 11.874 8.03-1.04 11.883 1.28 11.883 1.28z"/>
    <use height="100%" width="100%" xlink:href="#b" transform="rotate(9.37 700 804)"/>
    <use height="100%" width="100%" xlink:href="#b" transform="rotate(18.74 700 804)"/>
    <path d="M603 478a340 340 0 0 1 194 0" fill="none" stroke="#f8c300" stroke-width="16"/>
    <g transform="translate(700 380)">
      <path id="c" d="M-23.776-147.725h47.552l-38.47 27.95L0-165l14.695 45.225z"/>
      <g id="d">
        <use height="100%" width="100%" xlink:href="#c" transform="translate(-70 -121.244)"/>
        <use height="100%" width="100%" xlink:href="#c" transform="translate(-121.244 -70)"/>
        <use height="100%" width="100%" xlink:href="#c" transform="translate(-140)"/>
      </g>
      <use height="100%" width="100%" xlink:href="#d" transform="scale(-1 1)"/>
    </g>
  </g>
</svg>
