<svg xmlns="http://www.w3.org/2000/svg" height="480" width="640"><defs><clipPath id="a"><rect fill-opacity=".67" height="480" width="640"/></clipPath></defs><g clip-path="url(#a)"><rect height="480" width="960" fill="#006"/><g><path d="M0 0v17.889l284.221 142.114h35.78v-17.887l-284.221-142.114h-35.78zm320.002 0v17.888l-284.221 142.114h-35.78v-17.887l284.221-142.114h35.78z" fill="#fff"/><path fill="#fff" d="M133.334 0v160.001h53.334v-160.001h-53.334zm-133.334 53.334v53.334h320.002v-53.334h-320.002z"/><path d="M0 64v32h320.002v-32h-320.002zm144.001-64v160.001h32v-160.001h-32z" fill="#c00"/><path d="M0 160.001l106.667-53.334h23.851l-106.667 53.334h-23.853zm0-160.001l106.667 53.334h-23.853l-82.814-41.408v-11.926zm189.481 53.334l106.667-53.334h23.853l-106.667 53.334h-23.853zm130.521 106.667l-106.667-53.334h23.853l82.814 41.407v11.927z" fill="#c00"/></g><g transform="matrix(.881 0 0 .881 -192.09 65.009)"><g><path d="M767.997 68.224l7.673 23.615h24.83l-20.088 14.595 7.673 23.615-20.087-14.583-20.088 14.595 7.673-23.615-20.088-14.595h24.83z" fill="#fff"/><path d="M767.997 75.482l6.043 18.599h19.557l-15.822 11.495 6.043 18.599-15.821-11.494-15.821 11.494 6.042-18.603-15.821-11.494h19.557z" fill="#c00"/></g><g><path d="M649.697 187.254l7.673 23.615h24.83l-20.088 14.595 7.673 23.615-20.087-14.583-20.088 14.595 7.673-23.615-20.088-14.595h24.83z" fill="#fff"/><path d="M649.697 194.512l6.043 18.599h19.557l-15.822 11.495 6.043 18.599-15.821-11.494-15.821 11.494 6.042-18.603-15.821-11.494h19.557z" fill="#c00"/></g><g><path d="M869.397 161.945l6.422 19.767h20.784l-16.814 12.216 6.422 19.767-16.828-12.22-16.814 12.216 6.422-19.767-16.814-12.216h20.784z" fill="#fff"/><path d="M869.397 168.114l5.036 15.5h16.297l-13.185 9.579 5.036 15.5-13.184-9.574-13.185 9.579 5.036-15.5-13.185-9.579h16.297z" fill="#c00"/></g><path d="M768 372.02l8.437 25.966h27.302l-22.088 16.048 8.437 25.966-22.09-16.06-22.088 16.048 8.437-25.966-22.088-16.048h27.302z" fill-rule="evenodd" fill="#fff"/><path d="M768 378.2l7.051 21.699h22.816l-18.459 13.411 7.051 21.699-18.46-13.41-18.459 13.411 7.051-21.699-18.459-13.411h22.816z" fill-rule="evenodd" fill="#c00"/></g></g></svg>