<svg xmlns="http://www.w3.org/2000/svg" height="480" width="640">
  <g clip-path="url(#a)">
    <path fill="#006" d="M0 0h960v480h-960z"/>
    <g>
      <path d="M0 0v17.889l284.221 142.114h35.78v-17.887l-284.221-142.114h-35.78zm320.002 0v17.888l-284.221 142.114h-35.78v-17.887l284.221-142.114h35.78z" fill="#fff"/>
      <path fill="#fff" d="M133.334 0v160.001h53.334v-160.001h-53.334zm-133.334 53.334v53.334h320.002v-53.334h-320.002z"/>
      <path d="M0 64v32h320.002v-32h-320.002zm144.001-64v160.001h32v-160.001h-32z" fill="#c00"/>
      <path d="M0 160.001l106.667-53.334h23.851l-106.667 53.334h-23.853zm0-160.001l106.667 53.334h-23.853l-82.814-41.408v-11.926zm189.481 53.334l106.667-53.334h23.853l-106.667 53.334h-23.853zm130.521 106.667l-106.667-53.334h23.853l82.814 41.407v11.927z" fill="#c00"/>
    </g>
    <g>
      <g>
        <path d="M484.26 125.091l6.757 20.797h21.867l-17.691 12.854 6.757 20.797-17.69-12.843-17.691 12.854 6.757-20.797-17.691-12.854h21.867z" fill="#fff"/>
        <path d="M484.26 131.484l5.322 16.38h17.223l-13.934 10.123 5.322 16.38-13.933-10.123-13.933 10.123 5.321-16.383-13.933-10.123h17.223z" fill="#c00"/>
      </g>
      <g>
        <path d="M380.073 229.921l6.757 20.797h21.867l-17.691 12.854 6.757 20.797-17.69-12.843-17.691 12.854 6.757-20.797-17.691-12.854h21.867z" fill="#fff"/>
        <path d="M380.073 236.314l5.322 16.38h17.223l-13.934 10.123 5.322 16.38-13.933-10.123-13.933 10.123 5.321-16.383-13.933-10.123h17.223z" fill="#c00"/>
      </g>
      <g>
        <path d="M573.563 207.628l5.656 17.408h18.304l-14.808 10.758 5.656 17.408-14.82-10.761-14.808 10.758 5.656-17.408-14.808-10.758h18.304z" fill="#fff"/>
        <path d="M573.563 213.061l4.435 13.65h14.352l-11.611 8.436 4.435 13.65-11.611-8.432-11.611 8.436 4.435-13.65-11.611-8.436h14.352z" fill="#c00"/>
      </g>
      <path d="M484.288 392.647l7.43 22.868h24.045l-19.453 14.133 7.43 22.868-19.455-14.144-19.453 14.133 7.43-22.868-19.453-14.133h24.045z" fill-rule="evenodd" fill="#fff"/>
      <path d="M484.288 398.09l6.209 19.11h20.094l-16.257 11.811 6.209 19.11-16.258-11.81-16.257 11.811 6.209-19.11-16.257-11.811h20.094z" fill-rule="evenodd" fill="#c00"/>
    </g>
  </g>
</svg>
