<?xml version="1.0" encoding="utf-8"?>
<!DOCTYPE svg PUBLIC "-//W3C//DTD SVG 1.1//EN" "http://www.w3.org/Graphics/SVG/1.1/DTD/svg11.dtd">
<svg version="1.1"
	 id="svg1" xmlns:rdf="http://www.w3.org/1999/02/22-rdf-syntax-ns#" xmlns:dc="http://purl.org/dc/elements/1.1/" xmlns:cc="http://creativecommons.org/ns#"
	 xmlns="http://www.w3.org/2000/svg" xmlns:xlink="http://www.w3.org/1999/xlink" x="0px" y="0px" width="640px" height="480px"
	 viewBox="-159 41 640 480" enable-background="new -159 41 640 480" xml:space="preserve">
<rect id="background" x="-159" y="41" fill="#00247D" width="640" height="480"/>
<g id="boat">
	<path fill="#FED100" d="M-50.9,395.6c-6.7-0.1,62.8-37,120.9-84.4c76.2-62.1,240.3-161.4,288.6-177.6c5-1.7-10.3,8.6-12.3,11.9
		c-51.5,61-10.4,176,54,233.9c19.4,14.8,18.4,15.6,54.3,17v3.4L-50.9,395.6L-50.9,395.6z"/>
	<path fill="#FED100" d="M-55.1,402.3c0,0-4.9,3.5-4.9,6.1c0,2.9,5.5,6.7,5.5,6.7l498.5,5.5l9.2-6.1l-12.8-7.9L-55.1,402.3
		L-55.1,402.3z"/>
</g>
<g id="stars">
	<polygon fill="#FFFFFF" points="-52.2,150.1 -56.2,162.3 -45.8,154.8 -35.5,162.3 -39.4,150.1 -29.1,142.6 -41.9,142.6
		-45.8,130.4 -49.8,142.6 -62.6,142.6 	"/>
	<polygon fill="#FFFFFF" points="25.9,207.5 34.5,201.2 23.8,201.2 20.5,191.1 17.2,201.2 6.6,201.2 15.2,207.5 11.9,217.6
		20.5,211.3 29.2,217.6 	"/>
	<polygon fill="#FFFFFF" points="-119.3,220.5 -123.3,208.3 -127.2,220.5 -140,220.5 -129.7,228 -133.6,240.2 -123.3,232.7
		-112.9,240.2 -116.9,228 -106.5,220.5 	"/>
	<polygon fill="#FFFFFF" points="-41.2,342.8 -45.8,328.6 -50.4,342.8 -65.4,342.8 -53.3,351.5 -57.9,365.8 -45.8,357 -33.7,365.8
		-38.4,351.5 -26.3,342.8 	"/>
</g>
</svg>
