<svg xmlns="http://www.w3.org/2000/svg" id="flag-icon-css-tr" width="640" height="480">
  <g fill-rule="evenodd">
    <path fill="#f31930" d="M0 0h640v480H0z"/>
    <path fill="#fff" d="M406.98 247.47c0 66.22-54.6 119.9-121.97 119.9s-121.97-53.68-121.97-119.9 54.6-119.89 121.97-119.89 121.97 53.68 121.97 119.9z"/>
    <path fill="#f31830" d="M413.08 247.47c0 52.97-43.69 95.9-97.58 95.9s-97.57-42.93-97.57-95.9 43.68-95.91 97.57-95.91 97.58 42.94 97.58 95.9z"/>
    <path fill="#fff" d="M430.73 191.47l-.99 44.31-41.34 11.23 40.75 14.51-.98 40.64 26.58-31.73 40.16 13.93-23.23-34.06 28.35-33.87-43.51 12-25.8-36.96z"/>
  </g>
</svg>
