<svg xmlns="http://www.w3.org/2000/svg" height="480" width="640"><g><rect fill-rule="evenodd" height="480" width="640" fill="#f31930"/><g><path d="M393.35 220.64" stroke="#000" stroke-width=".777pt" fill="none" transform="matrix(.938 0 0 .938 132.01 7.246)"/><path d="M406.974 247.647c0 66.254-54.605 119.96-121.965 119.96s-121.965-53.707-121.965-119.96 54.605-119.96 121.965-119.96 121.965 53.707 121.965 119.96z" fill-rule="evenodd" fill="#fff"/><path d="M413.07 247.502c0 52.979-43.7 95.927-97.607 95.927s-97.607-42.948-97.607-95.927 43.7-95.927 97.607-95.927 97.607 42.948 97.607 95.927z" fill-rule="evenodd" fill="#f31830"/><path d="M430.885 191.563l-.985 44.342-41.369 11.231 40.778 14.522-.985 40.663 26.594-31.755 40.186 13.941-23.246-34.079 28.367-33.885-43.535 12.005-25.806-36.983z" fill-rule="evenodd" fill="#fff"/></g></g></svg>