<svg xmlns="http://www.w3.org/2000/svg" height="480" width="640"><defs><clipPath id="a"><rect fill-opacity=".67" height="480" width="640"/></clipPath></defs><g clip-path="url(#a)"><g fill-rule="evenodd" transform="matrix(.645 0 0 .921 0 23.331)" fill="#009fca"><rect height="515.87" width="486.16" y="-19.81" x="505.97"/><rect ry="0" height="521.41" width="523.49" y="-25.343"/></g><g transform="scale(1.654)"><rect fill-rule="evenodd" height="118.84" width="239.29" x=".01" fill="#fff"/><path d="M.01 0l-.01 8.919 57.103 29.341 21.485.622-78.578-38.883z" fill="#c00"/><path d="M24.459 0l69.228 36.161v-36.161h-69.228z" fill="#006"/><path fill="#c00" d="M102.92 0v46.163h-102.91v26.379h102.91v46.163h31.666v-46.163h102.91v-26.379h-102.91v-46.163h-31.666z"/><path d="M143.82 0v34.073l67.73-33.809-67.73-.264z" fill="#006"/><path d="M145.96 37.788l19.05-.153 74-37.371-19.64.32-73.41 37.204z" fill="#c00"/><path d="M.01 80.237v25.28l47.498-25.02-47.498-.263z" fill="#006"/><path d="M182.91 81.28l-19.8-.154 74.638 37.162-.491-8.502-54.346-28.506zm-164.35 37.63l69.984-36.739-18.381.121-70.151 36.568" fill="#c00"/></g><path d="M394.55 17.271l-93.502 46.368 92.257.345v69.093h-78.575l77.848 42.181 1.143 21.458-41.581-.497-113.8-55.869v56.366h-82.939v-56.366l-106.75 56.215-48.214.151v196.37h785.75v-392.74l-390.82-.339m-394.95 22.164l-.415 40.783 82.722 1.037-82.307-41.82z" fill="#006"/><g fill-rule="evenodd" transform="matrix(.792 0 0 .8 .006 0)" fill="#009fca"><rect height="496.06" width="496.06" x="496.06"/><rect rx="0" ry="0" height="251.45" width="525.79" y="244.61" x="-2.303"/></g><g fill-rule="evenodd" transform="matrix(1.519 0 0 1.519 -136.22 80.582)" fill="#fff40d"><polygon transform="matrix(.256 0 0 .241 337.93 -50.489)" points="555.61 324.28 626.44 324.23 569.1 365.81 591.04 433.16 591.04 433.16 533.77 391.48 476.5 433.15 498.45 365.81 441.12 324.21 511.95 324.28 533.78 256.9"/><polygon transform="matrix(.256 0 0 .241 292.37 79.065)" points="555.61 324.28 626.44 324.23 569.1 365.81 591.04 433.16 591.04 433.16 533.77 391.48 476.5 433.15 498.45 365.81 441.12 324.21 511.95 324.28 533.78 256.9"/><polygon transform="matrix(.256 0 0 .241 337.93 49.738)" points="555.61 324.28 626.44 324.23 569.1 365.81 591.04 433.16 591.04 433.16 533.77 391.48 476.5 433.15 498.45 365.81 441.12 324.21 511.95 324.28 533.78 256.9"/><polygon transform="matrix(.256 0 0 .241 142.03 143.7)" points="555.61 324.28 626.44 324.23 569.1 365.81 591.04 433.16 591.04 433.16 533.77 391.48 476.5 433.15 498.45 365.81 441.12 324.21 511.95 324.28 533.78 256.9"/><polygon transform="matrix(-.256 0 0 -.241 468.01 249.77)" points="555.61 324.28 626.44 324.23 569.1 365.81 591.04 433.16 591.04 433.16 533.77 391.48 476.5 433.15 498.45 365.81 441.12 324.21 511.95 324.28 533.78 256.9"/><polygon transform="matrix(-.256 0 0 -.241 521.54 175.74)" points="555.61 324.28 626.44 324.23 569.1 365.81 591.04 433.16 591.04 433.16 533.77 391.48 476.5 433.15 498.45 365.81 441.12 324.21 511.95 324.28 533.78 256.9"/><polygon transform="matrix(-.256 0 0 -.241 566.53 160.36)" points="555.61 324.28 626.44 324.23 569.1 365.81 591.04 433.16 591.04 433.16 533.77 391.48 476.5 433.15 498.45 365.81 441.12 324.21 511.95 324.28 533.78 256.9"/><polygon transform="matrix(-.256 0 0 -.241 521.54 288.49)" points="555.61 324.28 626.44 324.23 569.1 365.81 591.04 433.16 591.04 433.16 533.77 391.48 476.5 433.15 498.45 365.81 441.12 324.21 511.95 324.28 533.78 256.9"/><polygon transform="matrix(-.256 0 0 -.241 468.01 301.59)" points="555.61 324.28 626.44 324.23 569.1 365.81 591.04 433.16 591.04 433.16 533.77 391.48 476.5 433.15 498.45 365.81 441.12 324.21 511.95 324.28 533.78 256.9"/></g></g></svg>