<svg viewBox="0 0 640 480" xmlns="http://www.w3.org/2000/svg" xmlns:xlink="http://www.w3.org/1999/xlink"><clipPath id="a"><path d="m0 0h640v480h-640z"/></clipPath><g clip-path="url(#a)"><g fill="#009fca" fill-rule="evenodd" stroke-width="1pt" transform="matrix(.64508 0 0 .92059 0 23.3)"><path d="m506-19.8h486v515.8h-486z"/><path d="m0-25.3h523.5v521.4h-523.5z"/></g><path d="m0 0h396v196.6h-396z" fill="#fff" fill-rule="evenodd"/><path d="m0 0v14.8l94.5 48.5 35.5 1z" fill="#c00"/><path d="m40.5 0 114.5 59.8v-59.8z" fill="#006"/><path d="m170.3 0v76.4h-170.3v43.6h170.3v76.4h52.3v-76.4h170.4v-43.6h-170.3v-76.4z" fill="#c00"/><path d="m238 0v56.4l112-56z" fill="#006"/><path d="m241.5 62.5 31.5-.2 122.4-61.9-32.5.6z" fill="#c00"/><path d="m0 132.7v41.9l78.6-41.4z" fill="#006"/><path d="m302.6 134.5-32.8-.3 123.5 61.5-.8-14-90-47.2zm-271.9 62.2 115.8-60.7-30.4.2-116.1 60.4" fill="#c00"/><path d="m394.6 17.3-93.6 46.3 92.3.4v69h-78.6l77.9 42.3 1.1 21.4-41.6-.5-113.8-55.8v56.3h-82.9v-56.3l-106.8 56.2-48.2.1v196.4h785.8v-392.8l-390.8-.3m-395 22.2-.4 40.8 82.7 1z" fill="#006"/><g fill-rule="evenodd"><g fill="#009fca" transform="scale(.79241 .79977)"><path d="m496 0h496.1v496h-496z"/><path d="m-2.3 244.6h525.8v251.4h-525.8z"/></g><path d="m593.3 122.7h27.7l-22.3 15.2 8.5 24.7-22.3-15.3-22.2 15.3 8.5-24.7-22.3-15.2h27.5l8.5-24.7zm-69.2 196.8h27.6l-22.3 15.2 8.5 24.7-22.3-15.3-22.3 15.3 8.6-24.7-22.3-15.2h27.4l8.5-24.7zm69.2-44.6h27.7l-22.3 15.2 8.5 24.7-22.3-15.3-22.2 15.3 8.5-24.7-22.3-15.2h27.5l8.5-24.7zm-297.5 142.8h27.6l-22.4 15.1 8.6 24.6-22.3-15.2-22.3 15.2 8.6-24.6-22.4-15.3h27.6l8.5-24.6zm62.6-76.5h-27.6l22.3-15.3-8.5-24.6 22.3 15.2 22.3-15.2-8.6 24.6 22.3 15.3h-27.5l-8.5 24.6zm81.3-112.5h-27.7l22.3-15.2-8.5-24.7 22.3 15.3 22.3-15.3-8.6 24.7 22.3 15.2h-27.5l-8.5 24.7zm68.3-23.3h-27.6l22.4-15.3-8.6-24.6 22.3 15.2 22.3-15.2-8.6 24.6 22.4 15.3h-27.6l-8.5 24.6zm-68.3 194.6h-27.7l22.3-15.2-8.3-24.8 22.3 15.2 22.3-15.2-8.6 24.7 22.3 15.2h-27.5l-8.5 24.7zm-81.3 19.9h-27.6l22.3-15.2-8.5-24.7 22.3 15.2 22.3-15.2-8.6 24.6 22.4 15.4h-27.5l-8.5 24.7z" fill="#fff40d" stroke-width="1pt"/></g></g></svg>