<svg xmlns="http://www.w3.org/2000/svg" id="flag-icon-css-tw" width="640" height="480">
  <defs>
    <clipPath id="a">
      <path fill-opacity=".67" d="M0 0h682.67v512H0z"/>
    </clipPath>
  </defs>
  <g fill-rule="evenodd" stroke-width="1pt" clip-path="url(#a)" transform="scale(.9375)">
    <path fill="#fe0000" d="M0 0h768v512H0z"/>
    <path fill="#000095" d="M0 0h385.69v256H0z"/>
    <path fill="#fff" d="M282.1 178.56l-47.33-9.74 10.08 47.26L208.72 184l-14.9 45.97-15.25-45.86-35.89 32.36 9.74-47.33-47.26 10.08 32.08-36.13-45.97-14.9 45.86-15.25-32.36-35.89 47.34 9.73-10.08-47.26 36.13 32.1 14.9-45.97 15.24 45.85 35.89-32.36-9.73 47.34 47.26-10.08-32.1 36.13 45.98 14.9-45.86 15.24z"/>
    <path fill="#000095" d="M238.47 174.92l-14.94 7.94-14.57 8.6-16.91-.58-16.92.2-14.36-8.94-14.76-8.28-7.95-14.9-8.64-14.52.58-16.88-.19-16.88 8.97-14.32 8.3-14.72L162 73.71l14.57-8.6 16.92.57 16.93-.19 14.36 8.94 14.74 8.27 7.96 14.9 8.63 14.53-.57 16.87.18 16.88-8.96 14.33z"/>
    <path fill="#fff" d="M244.64 128.28a51.87 51.87 0 1 1-103.74 0 51.87 51.87 0 0 1 103.74 0z"/>
  </g>
</svg>
