<svg xmlns="http://www.w3.org/2000/svg" height="480" width="640"><defs><clipPath id="a"><rect fill-opacity=".67" height="512" width="682.67" x="-85.333"/></clipPath></defs><g clip-path="url(#a)" transform="matrix(.938 0 0 .938 80 0)"><rect fill-rule="evenodd" height="85.321" width="768" y="341.36" x="-128" fill="#ffe700"/><rect fill-rule="evenodd" height="85.321" width="768" y="256" x="-128"/><rect fill-rule="evenodd" height="85.321" width="768" y="170.68" x="-128" fill="#de3908"/><rect fill-rule="evenodd" height="85.321" width="768" y="85.358" x="-128" fill="#ffe700"/><rect fill-rule="evenodd" height="85.321" width="768" x="-128"/><g><path d="M505 232.31c0 63.513-51.487 115-115 115s-115-51.487-115-115 51.487-115 115-115 115 51.487 115 115z" fill-rule="evenodd" transform="matrix(.693 0 0 .693 -14.322 94.977)" stroke="#000" stroke-width="1.067pt" fill="#fffdff"/><path d="M374.71 141.65l-7.466-13.752c2.881-2.881 7.728-5.108 15.455-5.108 0 .524-.786 15.062-.786 15.062l-7.203 3.798z" fill-rule="evenodd" stroke="#000" stroke-width="1.067pt" fill="#de3108" transform="matrix(.693 0 0 .693 -17.787 96.709)"/><path d="M381.91 137.99l1.048-15.193s15.455-.916 23.837 9.168c.131-.131-8.251 11.787-8.251 11.787l-16.634-5.762z" fill-rule="evenodd" stroke="#000" stroke-width="1.067pt" fill="#ffe700" transform="matrix(.693 0 0 .693 -17.787 96.709)"/><path d="M398.81 143.62l7.596-11.787c5.108 5.37 7.203 9.168 7.989 14.931.131.131-12.049 3.012-12.049 2.881s-3.405-5.894-3.536-6.025z" fill-rule="evenodd" stroke="#000" stroke-width="1.067pt" fill="#de3108" transform="matrix(.693 0 0 .693 -17.787 96.709)"/><path stroke-linejoin="round" d="M378.51 338.24s14.276-16.372 42.042-12.835c-4.191-6.811-17.681-6.025-17.681-6.025s-4.191-31.826-.917-33.398l17.157.131c1.833 0 4.977-4.977 2.489-8.12-2.489-3.144-9.823-15.193-6.811-17.551 3.013-2.357 19.384 1.31 19.384 1.31l-46.233-59.199s-4.715-22.265 4.715-33.005c11.395-9.43 10.216-19.646 9.823-19.515-1.572-10.347-17.288-17.813-27.897-8.251-6.287 7.596-2.096 13.359-2.096 13.359s-16.502 4.453-17.157 7.334c-.655 2.882 18.598-.523 18.598-.523l-1.834 13.228s-37.458 34.052-8.775 63.521c.262-.131.917-1.31.917-1.31s10.085 12.443 20.693 15.193c9.954 10.216 9.038 8.644 9.038 8.644s1.964 16.11.131 19.253c-2.489-.786-27.897-1.702-31.696-.262-3.405 1.048-16.502.393-13.228 21.742 2.488-5.763 4.715-10.871 4.715-10.871s-.393 7.727 2.751 10.478c-.524-8.121 3.012-13.621 3.012-13.621s.655 8.906 2.619 10.215c1.965 1.31 1.965-14.407 12.836-13.097 10.87 1.31 18.729.917 18.729.917s3.667 30.778 2.488 33.66c-7.859-1.834-26.587.786-27.766 5.501 11.001-.655 16.11.654 16.11.654s-8.906 7.859-6.156 12.443z" fill-rule="evenodd" stroke="#000" stroke-linecap="round" stroke-width="1.333" transform="matrix(.693 0 0 .693 -17.787 96.709)"/><path stroke-linejoin="round" d="M382.92 170.3s-27.256 30.042-15.497 53.031c.626-3.206.353-5.22.746-5.089-.655-.393 3.38 2.766 3.073 2.151.086-1.662-1.229-5.224-1.229-5.224l3.688.922-2.152-3.995 5.225.614s-1.844-4.917-1.229-4.917c.614 0 4.302.307 4.302.307-7.751-13.91-.439-25.462 3.073-37.8z" fill-rule="evenodd" stroke="#9ca69c" stroke-linecap="round" stroke-width="1.333" fill="#9ca69c" transform="matrix(.693 0 0 .693 -17.787 96.709)"/><path d="M392.39 144.53s1.441 10.347-4.191 13.359c-.917.655-4.453 1.834-3.929 3.93.655 2.881 2.226 2.357 4.453 1.833 5.893-1.048 12.704-13.621 3.667-19.122z" fill-rule="evenodd" stroke="#9ca69c" stroke-width="1.067pt" fill="#9ca69c" transform="matrix(.693 0 0 .693 -17.787 96.709)"/><path d="M247.154 203.043c0 .852-.691 1.543-1.543 1.543s-1.543-.691-1.543-1.543.691-1.543 1.543-1.543 1.543.691 1.543 1.543z" fill-rule="evenodd" fill="#fff"/><path d="M373.53 162.08c-1.441 1.179-9.037 9.038-1.572 11.919 7.728-2.096 5.632-3.536 7.335-5.239.044-3.536-3.842-4.453-5.763-6.68z" fill-rule="evenodd" stroke="#000" stroke-width="1.067pt" fill="#de3108" transform="matrix(.693 0 0 .693 -17.787 96.709)"/><path stroke-linejoin="round" d="M390.03 236.35c-.393 1.703-2.095 7.989.262 12.835 6.549-2.75 9.561-1.965 11.788-.524-5.369-4.322-7.465-6.156-12.05-12.311z" fill-rule="evenodd" stroke="#9ca69c" stroke-linecap="round" stroke-width="1.333" fill="#9ca69c" transform="matrix(.693 0 0 .693 -17.787 96.709)"/><path stroke-linejoin="round" d="M401.3 266.08l.393 14.669s5.108.917 7.465 0c2.358-.917-.131-10.216-7.858-14.669z" fill-rule="evenodd" stroke="#fff" stroke-linecap="round" stroke-width="1.333" fill="#fff" transform="matrix(.693 0 0 .693 -17.787 96.709)"/><path d="M438.36 267.91s-9.43-22.789-33.529-28.552-20.956-31.433-18.991-33.005c1.048-2.227 1.834-5.632 8.775-2.357 6.942 3.274 38.899 19.383 43.483 20.169s.655 44.269.262 43.745z" fill-rule="evenodd" stroke="#000" stroke-width="1.067pt" fill="#9ca69c" transform="matrix(.693 0 0 .693 -17.787 96.709)"/><path stroke-linejoin="round" d="M415.44 239.23c-.393.262 32.219 19.252 22.396 35.624 9.3-6.156 6.287-16.895 6.287-16.895s7.596 19.777-10.871 29.469c1.965 1.703 3.275 1.309 3.275 1.309l-3.144 3.144s-1.441 2.357 11.002-3.668c-3.406 2.751-3.667 4.715-3.667 4.715s.916 2.62 9.037-4.453c-6.549 7.073-7.99 10.74-7.99 10.609 17.681-1.572 56.187-59.068-12.18-76.095 3.668 3.799 3.143 3.275 3.143 3.275l-17.288 12.966z" fill-rule="evenodd" stroke="#000" stroke-width="1.333" fill="#de3108" transform="matrix(.693 0 0 .693 -17.787 96.709)"/><path stroke-linejoin="round" d="M416.88 233.6c4.453 3.143 6.024 4.191 6.548 5.763-4.06-.916-7.727-.655-7.727-.655s-8.775-8.382-10.347-9.037c-1.179 0-7.989-4.322-7.989-4.322-3.405-1.703-6.548-13.49 6.025-10.085 12.965 6.155 14.799 6.68 14.799 6.68l15.455 4.846 8.906 9.954s-15.847-7.859-17.812-7.99c4.322 3.536 6.811 8.382 6.811 8.382-5.021-1.441-9.386-2.75-14.669-3.536z" fill-rule="evenodd" stroke="#000" stroke-linecap="round" stroke-width="1.333" fill="#fff" transform="matrix(.693 0 0 .693 -17.787 96.709)"/><path d="M355.2 163.26s15.193-3.667 17.026-3.143" stroke="#fff" stroke-linecap="round" stroke-width="1.333" fill="none" transform="matrix(.693 0 0 .693 -17.787 96.709)"/></g><rect fill-rule="evenodd" height="85.321" width="768" y="426.68" x="-128" fill="#de3908"/></g></svg>