<svg xmlns="http://www.w3.org/2000/svg" height="480" width="640">
    <desc>
        The United States of America flag, produced by Daniel McRae
    </desc>
    <g fill-rule="evenodd" clip-path="url(#a)">
        <g>
            <g fill="#bd3d44">
                <path d="M0 0h911.924v36.92h-911.924z"/>
                <path d="M0 73.84h911.924v36.92h-911.924z"/>
                <path d="M0 147.68h911.924v36.92h-911.924z"/>
                <path d="M0 221.52h911.924v36.92h-911.924z"/>
                <path d="M0 295.36h911.924v36.92h-911.924z"/>
                <path d="M0 369.2h911.924v36.92h-911.924z"/>
                <path d="M0 443.04h911.924v36.92h-911.924z"/>
            </g>
            <g fill="#fff">
                <path d="M0 36.92h911.924v36.92h-911.924z"/>
                <path d="M0 110.76h911.924v36.92h-911.924z"/>
                <path d="M0 184.6h911.924v36.92h-911.924z"/>
                <path d="M0 258.44h911.924v36.92h-911.924z"/>
                <path d="M0 332.28h911.924v36.92h-911.924z"/>
                <path d="M0 406.12h911.924v36.92h-911.924z"/>
            </g>
        </g>
        <path fill="#192f5d" d="M0 0h364.8v258.459h-364.8z"/>
        <g fill="#fff">
            <g>
                <g>
                    <path d="M30.397 11.061l3.319 10.215h10.74l-8.689 6.313 3.319 10.215-8.689-6.313-8.689 6.313 3.319-10.215-8.689-6.313h10.74z"/>
                    <path d="M91.192 11.061l3.319 10.215h10.74l-8.689 6.313 3.319 10.215-8.689-6.313-8.689 6.313 3.319-10.215-8.689-6.313h10.74z"/>
                    <path d="M151.989 11.061l3.319 10.215h10.74l-8.689 6.313 3.319 10.215-8.689-6.313-8.689 6.313 3.319-10.215-8.689-6.313h10.74z"/>
                    <path d="M212.781 11.061l3.319 10.215h10.74l-8.689 6.313 3.319 10.215-8.689-6.313-8.689 6.313 3.319-10.215-8.689-6.313h10.74z"/>
                    <path d="M273.577 11.061l3.319 10.215h10.74l-8.689 6.313 3.319 10.215-8.689-6.313-8.689 6.313 3.319-10.215-8.689-6.313h10.74z"/>
                    <path d="M334.373 11.061l3.319 10.215h10.74l-8.689 6.313 3.319 10.215-8.689-6.313-8.689 6.313 3.319-10.215-8.689-6.313h10.74z"/>
                </g>
                <g>
                    <path d="M60.796 36.905l3.319 10.215h10.74l-8.689 6.313 3.319 10.215-8.689-6.313-8.689 6.313 3.319-10.215-8.689-6.313h10.74z"/>
                    <path d="M121.589 36.905l3.319 10.215h10.74l-8.689 6.313 3.319 10.215-8.689-6.313-8.689 6.313 3.319-10.215-8.689-6.313h10.74z"/>
                    <path d="M182.385 36.905l3.319 10.215h10.74l-8.689 6.313 3.319 10.215-8.689-6.313-8.689 6.313 3.319-10.215-8.689-6.313h10.74z"/>
                    <path d="M243.181 36.905l3.319 10.215h10.74l-8.689 6.313 3.319 10.215-8.689-6.313-8.689 6.313 3.319-10.215-8.689-6.313h10.74z"/>
                    <path d="M303.973 36.905l3.319 10.215h10.74l-8.689 6.313 3.319 10.215-8.689-6.313-8.689 6.313 3.319-10.215-8.689-6.313h10.74z"/>
                </g>
            </g>
            <g>
                <g>
                    <path d="M30.397 62.749l3.319 10.215h10.74l-8.689 6.313 3.319 10.215-8.689-6.313-8.689 6.313 3.319-10.215-8.689-6.313h10.74z"/>
                    <path d="M91.192 62.749l3.319 10.215h10.74l-8.689 6.313 3.319 10.215-8.689-6.313-8.689 6.313 3.319-10.215-8.689-6.313h10.74z"/>
                    <path d="M151.989 62.749l3.319 10.215h10.74l-8.689 6.313 3.319 10.215-8.689-6.313-8.689 6.313 3.319-10.215-8.689-6.313h10.74z"/>
                    <path d="M212.781 62.749l3.319 10.215h10.74l-8.689 6.313 3.319 10.215-8.689-6.313-8.689 6.313 3.319-10.215-8.689-6.313h10.74z"/>
                    <path d="M273.577 62.749l3.319 10.215h10.74l-8.689 6.313 3.319 10.215-8.689-6.313-8.689 6.313 3.319-10.215-8.689-6.313h10.74z"/>
                    <path d="M334.373 62.749l3.319 10.215h10.74l-8.689 6.313 3.319 10.215-8.689-6.313-8.689 6.313 3.319-10.215-8.689-6.313h10.74z"/>
                </g>
                <g>
                    <path d="M60.796 88.593l3.319 10.215h10.74l-8.689 6.313 3.319 10.215-8.689-6.313-8.689 6.313 3.319-10.215-8.689-6.313h10.74z"/>
                    <path d="M121.589 88.593l3.319 10.215h10.74l-8.689 6.313 3.319 10.215-8.689-6.313-8.689 6.313 3.319-10.215-8.689-6.313h10.74z"/>
                    <path d="M182.385 88.593l3.319 10.215h10.74l-8.689 6.313 3.319 10.215-8.689-6.313-8.689 6.313 3.319-10.215-8.689-6.313h10.74z"/>
                    <path d="M243.181 88.593l3.319 10.215h10.74l-8.689 6.313 3.319 10.215-8.689-6.313-8.689 6.313 3.319-10.215-8.689-6.313h10.74z"/>
                    <path d="M303.973 88.593l3.319 10.215h10.74l-8.689 6.313 3.319 10.215-8.689-6.313-8.689 6.313 3.319-10.215-8.689-6.313h10.74z"/>
                </g>
            </g>
            <g>
                <g>
                    <path d="M30.397 114.437l3.319 10.215h10.74l-8.689 6.313 3.319 10.215-8.689-6.313-8.689 6.313 3.319-10.215-8.689-6.313h10.74z"/>
                    <path d="M91.192 114.437l3.319 10.215h10.74l-8.689 6.313 3.319 10.215-8.689-6.313-8.689 6.313 3.319-10.215-8.689-6.313h10.74z"/>
                    <path d="M151.989 114.437l3.319 10.215h10.74l-8.689 6.313 3.319 10.215-8.689-6.313-8.689 6.313 3.319-10.215-8.689-6.313h10.74z"/>
                    <path d="M212.781 114.437l3.319 10.215h10.74l-8.689 6.313 3.319 10.215-8.689-6.313-8.689 6.313 3.319-10.215-8.689-6.313h10.74z"/>
                    <path d="M273.577 114.437l3.319 10.215h10.74l-8.689 6.313 3.319 10.215-8.689-6.313-8.689 6.313 3.319-10.215-8.689-6.313h10.74z"/>
                    <path d="M334.373 114.437l3.319 10.215h10.74l-8.689 6.313 3.319 10.215-8.689-6.313-8.689 6.313 3.319-10.215-8.689-6.313h10.74z"/>
                </g>
                <g>
                    <path d="M60.796 140.281l3.319 10.215h10.74l-8.689 6.313 3.319 10.215-8.689-6.313-8.689 6.313 3.319-10.215-8.689-6.313h10.74z"/>
                    <path d="M121.589 140.281l3.319 10.215h10.74l-8.689 6.313 3.319 10.215-8.689-6.313-8.689 6.313 3.319-10.215-8.689-6.313h10.74z"/>
                    <path d="M182.385 140.281l3.319 10.215h10.74l-8.689 6.313 3.319 10.215-8.689-6.313-8.689 6.313 3.319-10.215-8.689-6.313h10.74z"/>
                    <path d="M243.181 140.281l3.319 10.215h10.74l-8.689 6.313 3.319 10.215-8.689-6.313-8.689 6.313 3.319-10.215-8.689-6.313h10.74z"/>
                    <path d="M303.973 140.281l3.319 10.215h10.74l-8.689 6.313 3.319 10.215-8.689-6.313-8.689 6.313 3.319-10.215-8.689-6.313h10.74z"/>
                </g>
            </g>
            <g>
                <g>
                    <path d="M30.397 166.125l3.319 10.215h10.74l-8.689 6.313 3.319 10.215-8.689-6.313-8.689 6.313 3.319-10.215-8.689-6.313h10.74z"/>
                    <path d="M91.192 166.125l3.319 10.215h10.74l-8.689 6.313 3.319 10.215-8.689-6.313-8.689 6.313 3.319-10.215-8.689-6.313h10.74z"/>
                    <path d="M151.989 166.125l3.319 10.215h10.74l-8.689 6.313 3.319 10.215-8.689-6.313-8.689 6.313 3.319-10.215-8.689-6.313h10.74z"/>
                    <path d="M212.781 166.125l3.319 10.215h10.74l-8.689 6.313 3.319 10.215-8.689-6.313-8.689 6.313 3.319-10.215-8.689-6.313h10.74z"/>
                    <path d="M273.577 166.125l3.319 10.215h10.74l-8.689 6.313 3.319 10.215-8.689-6.313-8.689 6.313 3.319-10.215-8.689-6.313h10.74z"/>
                    <path d="M334.373 166.125l3.319 10.215h10.74l-8.689 6.313 3.319 10.215-8.689-6.313-8.689 6.313 3.319-10.215-8.689-6.313h10.74z"/>
                </g>
                <g>
                    <path d="M60.796 191.969l3.319 10.215h10.74l-8.689 6.313 3.319 10.215-8.689-6.313-8.689 6.313 3.319-10.215-8.689-6.313h10.74z"/>
                    <path d="M121.589 191.969l3.319 10.215h10.74l-8.689 6.313 3.319 10.215-8.689-6.313-8.689 6.313 3.319-10.215-8.689-6.313h10.74z"/>
                    <path d="M182.385 191.969l3.319 10.215h10.74l-8.689 6.313 3.319 10.215-8.689-6.313-8.689 6.313 3.319-10.215-8.689-6.313h10.74z"/>
                    <path d="M243.181 191.969l3.319 10.215h10.74l-8.689 6.313 3.319 10.215-8.689-6.313-8.689 6.313 3.319-10.215-8.689-6.313h10.74z"/>
                    <path d="M303.973 191.969l3.319 10.215h10.74l-8.689 6.313 3.319 10.215-8.689-6.313-8.689 6.313 3.319-10.215-8.689-6.313h10.74z"/>
                </g>
            </g>
            <g>
                <path d="M30.397 217.813l3.319 10.215h10.74l-8.689 6.313 3.319 10.215-8.689-6.313-8.689 6.313 3.319-10.215-8.689-6.313h10.74z"/>
                <path d="M91.192 217.813l3.319 10.215h10.74l-8.689 6.313 3.319 10.215-8.689-6.313-8.689 6.313 3.319-10.215-8.689-6.313h10.74z"/>
                <path d="M151.989 217.813l3.319 10.215h10.74l-8.689 6.313 3.319 10.215-8.689-6.313-8.689 6.313 3.319-10.215-8.689-6.313h10.74z"/>
                <path d="M212.781 217.813l3.319 10.215h10.74l-8.689 6.313 3.319 10.215-8.689-6.313-8.689 6.313 3.319-10.215-8.689-6.313h10.74z"/>
                <path d="M273.577 217.813l3.319 10.215h10.74l-8.689 6.313 3.319 10.215-8.689-6.313-8.689 6.313 3.319-10.215-8.689-6.313h10.74z"/>
                <path d="M334.373 217.813l3.319 10.215h10.74l-8.689 6.313 3.319 10.215-8.689-6.313-8.689 6.313 3.319-10.215-8.689-6.313h10.74z"/>
            </g>
        </g>
    </g>
</svg>
