<svg xmlns="http://www.w3.org/2000/svg" id="flag-icon-css-us" width="640" height="480">
  <g fill-rule="evenodd">
    <g stroke-width="1pt">
      <path fill="#bd3d44" d="M0 0h972.81v39.38H0zm0 78.77h972.81v39.38H0zm0 78.77h972.81v39.38H0zm0 78.77h972.81v39.38H0zm0 78.77h972.81v39.38H0zm0 78.77h972.81v39.38H0zm0 78.77h972.81V512H0z" transform="scale(.9375)"/>
      <path fill="#fff" d="M0 39.38h972.81v39.39H0zm0 78.77h972.81v39.39H0zm0 78.77h972.81v39.39H0zm0 78.78h972.81v39.38H0zm0 78.77h972.81v39.38H0zm0 78.76h972.81v39.39H0z" transform="scale(.9375)"/>
    </g>
    <path fill="#192f5d" d="M0 0h389.12v275.69H0z" transform="scale(.9375)"/>
    <path fill="#fff" d="M32.43 11.8l3.54 10.9h11.46l-9.28 6.73 3.55 10.9-9.27-6.74-9.27 6.74 3.54-10.9-9.27-6.73h11.46zm64.85 0l3.54 10.9h11.46L103 29.43l3.54 10.9-9.27-6.74-9.27 6.74 3.54-10.9-9.27-6.73h11.46zm64.86 0l3.54 10.9h11.45l-9.27 6.73 3.54 10.9-9.26-6.74-9.27 6.74 3.54-10.9-9.27-6.73h11.46zm64.85 0l3.54 10.9h11.45l-9.26 6.73 3.54 10.9-9.27-6.74-9.27 6.74 3.54-10.9-9.27-6.73h11.46zm64.85 0l3.54 10.9h11.46l-9.27 6.73 3.54 10.9-9.27-6.74-9.27 6.74 3.54-10.9-9.26-6.73h11.45zm64.86 0l3.54 10.9h11.46l-9.27 6.73 3.54 10.9-9.27-6.74-9.27 6.74 3.54-10.9-9.27-6.73h11.46zM64.86 39.37l3.54 10.9h11.45L70.58 57l3.54 10.9-9.27-6.74-9.26 6.74L59.13 57l-9.27-6.73h11.46zm64.85 0l3.54 10.9h11.45L135.44 57l3.54 10.9-9.27-6.74-9.27 6.74 3.54-10.9-9.27-6.73h11.46zm64.85 0l3.54 10.9h11.46L200.29 57l3.54 10.9-9.27-6.74-9.27 6.74 3.54-10.9-9.27-6.73h11.46zm64.86 0l3.54 10.9h11.46L265.14 57l3.55 10.9-9.27-6.74-9.27 6.74 3.54-10.9-9.27-6.73h11.46zm64.85 0l3.54 10.9h11.46L330 57l3.54 10.9-9.27-6.74L315 67.9l3.54-10.9-9.27-6.73h11.46zM32.43 66.94l3.54 10.9h11.46l-9.27 6.73 3.54 10.9-9.27-6.74-9.27 6.74 3.54-10.9-9.27-6.74h11.46zm64.85 0l3.54 10.9h11.46L103 84.56l3.54 10.9-9.27-6.74-9.27 6.74 3.54-10.9-9.27-6.74h11.46zm64.86 0l3.54 10.9h11.45l-9.27 6.73 3.54 10.9-9.26-6.74-9.27 6.74 3.54-10.9-9.27-6.74h11.46zm64.85 0l3.54 10.9h11.46l-9.27 6.73 3.54 10.9-9.27-6.74-9.27 6.74 3.54-10.9-9.27-6.74h11.46zm64.85 0l3.54 10.9h11.46l-9.27 6.73 3.54 10.9-9.27-6.74-9.27 6.74 3.54-10.9-9.26-6.74h11.45zm64.86 0l3.54 10.9h11.46l-9.27 6.73 3.54 10.9-9.27-6.74-9.27 6.74 3.54-10.9-9.27-6.74h11.46zM64.86 94.5l3.54 10.9h11.45l-9.27 6.73 3.55 10.9-9.27-6.74-9.27 6.74 3.54-10.9-9.27-6.74h11.46zm64.85 0l3.54 10.9h11.45l-9.26 6.73 3.54 10.9-9.27-6.74-9.27 6.74 3.54-10.9-9.27-6.74h11.46zm64.85 0l3.54 10.9h11.46l-9.27 6.73 3.54 10.9-9.27-6.74-9.27 6.74 3.54-10.9-9.27-6.74h11.46zm64.86 0l3.54 10.9h11.46l-9.27 6.73 3.54 10.9-9.27-6.74-9.27 6.74 3.54-10.9-9.27-6.74h11.46zm64.85 0l3.54 10.9h11.46l-9.27 6.73 3.54 10.9-9.27-6.74-9.27 6.74 3.54-10.9-9.27-6.74h11.46zM32.43 122.08l3.54 10.9h11.46l-9.27 6.73 3.54 10.9-9.27-6.74-9.27 6.74 3.54-10.9-9.27-6.74h11.46zm64.85 0l3.54 10.9h11.46L103 139.7l3.54 10.9-9.27-6.74-9.27 6.74 3.54-10.9-9.27-6.74h11.46zm64.86 0l3.54 10.9h11.45l-9.27 6.73 3.54 10.9-9.26-6.74-9.27 6.74 3.54-10.9-9.27-6.74h11.46zm64.85 0l3.54 10.9h11.46l-9.27 6.73 3.54 10.9-9.27-6.74-9.27 6.74 3.54-10.9-9.27-6.74h11.46zm64.85 0l3.54 10.9h11.46l-9.27 6.73 3.54 10.9-9.27-6.74-9.27 6.74 3.54-10.9-9.26-6.74h11.45zm64.86 0l3.54 10.9h11.46l-9.27 6.73 3.54 10.9-9.27-6.74-9.27 6.74 3.54-10.9-9.27-6.74h11.46zM64.86 149.65l3.54 10.9h11.45l-9.27 6.73 3.55 10.9-9.27-6.74-9.27 6.73 3.54-10.9-9.27-6.73h11.46zm64.85 0l3.54 10.9h11.45l-9.26 6.73 3.54 10.9-9.27-6.74-9.27 6.73 3.54-10.9-9.27-6.73h11.46zm64.85 0l3.54 10.9h11.46l-9.27 6.73 3.54 10.9-9.27-6.74-9.27 6.73 3.54-10.9-9.27-6.73h11.46zm64.86 0l3.54 10.9h11.46l-9.27 6.73 3.54 10.9-9.27-6.74-9.27 6.73 3.54-10.9-9.27-6.73h11.46zm64.85 0l3.54 10.9h11.46l-9.27 6.73 3.54 10.9-9.27-6.74-9.27 6.73 3.54-10.9-9.27-6.73h11.46zM32.43 177.22l3.54 10.9h11.46l-9.27 6.73 3.54 10.9-9.27-6.74-9.27 6.73 3.54-10.9-9.27-6.73h11.46zm64.85 0l3.54 10.9h11.46l-9.27 6.73 3.54 10.9-9.27-6.74-9.27 6.73 3.54-10.9-9.27-6.73h11.46zm64.86 0l3.54 10.9h11.45l-9.27 6.73 3.54 10.9-9.26-6.74-9.27 6.73 3.54-10.9-9.27-6.73h11.46zm64.85 0l3.54 10.9h11.46l-9.27 6.73 3.54 10.9-9.27-6.74-9.27 6.73 3.54-10.9-9.27-6.73h11.46zm64.85 0l3.54 10.9h11.46l-9.27 6.73 3.54 10.9-9.27-6.74-9.27 6.73 3.54-10.9-9.26-6.73h11.45zm64.86 0l3.54 10.9h11.46l-9.27 6.73 3.54 10.9-9.27-6.74-9.27 6.73 3.54-10.9-9.27-6.73h11.46zM64.86 204.79l3.54 10.9h11.45l-9.27 6.73 3.55 10.9-9.27-6.74-9.27 6.73 3.54-10.9-9.27-6.73h11.46zm64.85 0l3.54 10.9h11.45l-9.26 6.73 3.54 10.9-9.27-6.74-9.27 6.73 3.54-10.9-9.27-6.73h11.46zm64.85 0l3.54 10.9h11.46l-9.27 6.73 3.54 10.9-9.27-6.74-9.27 6.73 3.54-10.9-9.27-6.73h11.46zm64.86 0l3.54 10.9h11.46l-9.27 6.73 3.54 10.9-9.27-6.74-9.27 6.73 3.54-10.9-9.27-6.73h11.46zm64.85 0l3.54 10.9h11.46l-9.27 6.73 3.54 10.9-9.27-6.74-9.27 6.73 3.54-10.9-9.27-6.73h11.46zM32.43 232.36l3.54 10.9h11.46l-9.27 6.73 3.54 10.9-9.27-6.74-9.27 6.73 3.54-10.9-9.27-6.73h11.46zm64.85 0l3.54 10.9h11.46l-9.27 6.73 3.54 10.9-9.27-6.74-9.27 6.73 3.54-10.9-9.27-6.73h11.46zm64.86 0l3.54 10.9h11.45l-9.27 6.73 3.54 10.9-9.26-6.74-9.27 6.73 3.54-10.9-9.27-6.73h11.46zm64.85 0l3.54 10.9h11.46l-9.27 6.73 3.54 10.9-9.27-6.74-9.27 6.73 3.54-10.9-9.27-6.73h11.46zm64.85 0l3.54 10.9h11.46l-9.27 6.73 3.54 10.9-9.27-6.74-9.27 6.73 3.54-10.9-9.26-6.73h11.45zm64.86 0l3.54 10.9h11.46l-9.27 6.73 3.54 10.9-9.27-6.74-9.27 6.73 3.54-10.9-9.27-6.73h11.46z" transform="scale(.9375)"/>
  </g>
</svg>
