<svg xmlns="http://www.w3.org/2000/svg" height="480" width="640"><defs><clipPath id="a"><rect fill-opacity=".67" height="480" width="640"/></clipPath></defs><g fill-rule="evenodd" clip-path="url(#a)"><rect height="480" width="960" fill="#fff"/><rect height="166.14" width="960" fill="#94acd4"/><rect height="11.005" width="960" y="155.14" fill="#b73000"/><rect height="155.14" width="960" y="324.86" fill="#00a900"/><rect height="11.005" width="960" y="324.86" fill="#b73000"/><polygon points="205.58 128.74 195.57 121.89 185.66 128.9 189.08 117.26 179.36 110.01 191.48 109.66 195.37 98.165 199.45 109.59 211.58 109.74 201.98 117.15" transform="matrix(.893 0 0 .898 69.068 -66.212)" fill="#feffff"/><polygon points="205.58 128.74 195.57 121.89 185.66 128.9 189.08 117.26 179.36 110.01 191.48 109.66 195.37 98.165 199.45 109.59 211.58 109.74 201.98 117.15" transform="matrix(.893 0 0 .898 26.91 16.736)" fill="#feffff"/><polygon points="205.58 128.74 195.57 121.89 185.66 128.9 189.08 117.26 179.36 110.01 191.48 109.66 195.37 98.165 199.45 109.59 211.58 109.74 201.98 117.15" transform="matrix(.893 0 0 .898 69.474 16.736)" fill="#feffff"/><polygon points="205.58 128.74 195.57 121.89 185.66 128.9 189.08 117.26 179.36 110.01 191.48 109.66 195.37 98.165 199.45 109.59 211.58 109.74 201.98 117.15" transform="matrix(.893 0 0 .898 108.79 16.736)" fill="#feffff"/><polygon points="205.58 128.74 195.57 121.89 185.66 128.9 189.08 117.26 179.36 110.01 191.48 109.66 195.37 98.165 199.45 109.59 211.58 109.74 201.98 117.15" transform="matrix(.893 0 0 .898 145.28 16.736)" fill="#feffff"/><polygon points="205.58 128.74 195.57 121.89 185.66 128.9 189.08 117.26 179.36 110.01 191.48 109.66 195.37 98.165 199.45 109.59 211.58 109.74 201.98 117.15" transform="matrix(.893 0 0 .898 -17.681 16.736)" fill="#feffff"/><polygon points="205.58 128.74 195.57 121.89 185.66 128.9 189.08 117.26 179.36 110.01 191.48 109.66 195.37 98.165 199.45 109.59 211.58 109.74 201.98 117.15" transform="matrix(.893 0 0 .898 26.099 -24.432)" fill="#feffff"/><polygon points="205.58 128.74 195.57 121.89 185.66 128.9 189.08 117.26 179.36 110.01 191.48 109.66 195.37 98.165 199.45 109.59 211.58 109.74 201.98 117.15" transform="matrix(.893 0 0 .898 69.068 -24.432)" fill="#feffff"/><polygon points="205.58 128.74 195.57 121.89 185.66 128.9 189.08 117.26 179.36 110.01 191.48 109.66 195.37 98.165 199.45 109.59 211.58 109.74 201.98 117.15" transform="matrix(.893 0 0 .898 109.6 -24.432)" fill="#feffff"/><polygon points="205.58 128.74 195.57 121.89 185.66 128.9 189.08 117.26 179.36 110.01 191.48 109.66 195.37 98.165 199.45 109.59 211.58 109.74 201.98 117.15" transform="matrix(.893 0 0 .898 144.87 -24.432)" fill="#feffff"/><polygon points="205.58 128.74 195.57 121.89 185.66 128.9 189.08 117.26 179.36 110.01 191.48 109.66 195.37 98.165 199.45 109.59 211.58 109.74 201.98 117.15" transform="matrix(.893 0 0 .898 144.47 -66.212)" fill="#feffff"/><polygon points="205.58 128.74 195.57 121.89 185.66 128.9 189.08 117.26 179.36 110.01 191.48 109.66 195.37 98.165 199.45 109.59 211.58 109.74 201.98 117.15" transform="matrix(.893 0 0 .898 109.2 -66.212)" fill="#feffff"/><path d="M137.83 25.111c-47.838-13.111-78.139 20.754-77.683 51.103.456 30.346 28.426 62.486 71.603 54.466-67.837 31.79-102.53-18.28-101.14-58.032 2.378-46.988 55.193-85.309 107.22-47.537z" fill="#fff"/></g></svg>