<svg xmlns="http://www.w3.org/2000/svg" height="480" width="640" version="1">
    <g fill-rule="evenodd" clip-path="url(#a)">
        <path fill="#dc0000" d="M-40.682 319.997h721.369v160.003h-721.369z"/>
        <path fill="#ffcb00" d="M-40.682 0h721.369v160.003h-721.369z"/>
        <path fill="#0000ba" d="M-40.682 160.003h721.369v160.003h-721.369z"/>
        <path d="M332.049 214.425l-11.622-8.303-11.565 8.384 4.301-13.625-11.544-8.413 14.282-.117 4.43-13.583 4.525 13.552 14.282.018-11.484 8.492 4.396 13.595z" fill="#fff"/>
        <path d="M389.884 221.531l-11.622-8.303-11.565 8.384 4.301-13.625-11.544-8.413 14.282-.117 4.43-13.583 4.525 13.552 14.282.018-11.484 8.492 4.396 13.595z" fill="#fff"/>
        <path d="M440.012 252.816l-11.622-8.303-11.565 8.384 4.301-13.625-11.544-8.413 14.282-.117 4.43-13.583 4.525 13.552 14.282.018-11.484 8.492 4.396 13.595z" fill="#fff"/>
        <path d="M468.287 299.737l-11.622-8.303-11.565 8.384 4.301-13.625-11.544-8.413 14.282-.117 4.43-13.583 4.525 13.552 14.282.018-11.484 8.492 4.396 13.595z" fill="#fff"/>
        <path d="M250.871 221.531l11.622-8.303 11.565 8.384-4.301-13.625 11.544-8.413-14.282-.117-4.43-13.583-4.525 13.552-14.282.018 11.484 8.492-4.396 13.595z" fill="#fff"/>
        <path d="M200.752 252.816l11.622-8.303 11.565 8.384-4.301-13.625 11.544-8.413-14.282-.117-4.43-13.583-4.525 13.552-14.282.018 11.484 8.492-4.396 13.595z" fill="#fff"/>
        <path d="M172.476 299.737l11.622-8.303 11.565 8.384-4.301-13.625 11.544-8.413-14.282-.117-4.43-13.583-4.525 13.552-14.282.018 11.484 8.492-4.396 13.595z" fill="#fff"/>
    </g>
</svg>
