<svg xmlns="http://www.w3.org/2000/svg" height="480" width="640" version="1"><defs><clipPath id="a"><rect fill-opacity=".67" height="512" width="682.67" x="-84.605"/></clipPath></defs><g fill-rule="evenodd" clip-path="url(#a)" transform="matrix(.938 0 0 .938 79.318 0)"><rect height="170.67" width="769.46" y="341.33" x="-128" fill="#dc0000"/><rect height="170.67" width="769.46" x="-128" fill="#ffcb00"/><rect height="170.67" width="769.46" y="170.67" x="-128" fill="#0000ba"/><path d="M269.58 228.72l-12.397-8.856-12.336 8.943 4.588-14.533-12.314-8.974 15.234-.125 4.725-14.489 4.826 14.455 15.234.019-12.25 9.059 4.689 14.501z" fill="#fff"/><path d="M331.27 236.3l-12.397-8.856-12.336 8.943 4.588-14.533-12.314-8.974 15.234-.125 4.725-14.489 4.826 14.455 15.234.019-12.25 9.059 4.689 14.501z" fill="#fff"/><path d="M384.74 269.67l-12.397-8.856-12.336 8.943 4.588-14.533-12.314-8.974 15.234-.125 4.725-14.489 4.826 14.455 15.234.019-12.25 9.059 4.689 14.501z" fill="#fff"/><path d="M414.9 319.72l-12.397-8.856-12.336 8.943 4.588-14.533-12.314-8.974 15.234-.125 4.725-14.489 4.826 14.455 15.234.019-12.25 9.059 4.689 14.501z" fill="#fff"/><path d="M182.99 236.3l12.397-8.856 12.336 8.943-4.588-14.533 12.314-8.974-15.234-.125-4.725-14.489-4.826 14.455-15.234.019 12.25 9.059-4.689 14.501z" fill="#fff"/><path d="M129.53 269.67l12.397-8.856 12.336 8.943-4.588-14.533 12.314-8.974-15.234-.125-4.725-14.489-4.826 14.455-15.234.019 12.25 9.059-4.689 14.501z" fill="#fff"/><path d="M99.369 319.72l12.397-8.856 12.336 8.943-4.588-14.533 12.314-8.974-15.234-.125-4.725-14.489-4.826 14.455-15.234.019 12.25 9.059-4.689 14.501z" fill="#fff"/></g></svg>