<?xml version="1.0" encoding="utf-8"?>
<!-- Generator: Adobe Illustrator 16.0.0, SVG Export Plug-In . SVG Version: 6.00 Build 0)  -->
<!DOCTYPE svg PUBLIC "-//W3C//DTD SVG 1.1//EN" "http://www.w3.org/Graphics/SVG/1.1/DTD/svg11.dtd">
<svg version="1.1"
	 id="svg559" xmlns:rdf="http://www.w3.org/1999/02/22-rdf-syntax-ns#" xmlns:cc="http://creativecommons.org/ns#" xmlns:dc="http://purl.org/dc/elements/1.1/"
	 xmlns="http://www.w3.org/2000/svg" xmlns:xlink="http://www.w3.org/1999/xlink" x="0px" y="0px" width="640px" height="480px"
	 viewBox="0 0 640 480" enable-background="new 0 0 640 480" xml:space="preserve">
<rect y="0" fill="#FFFFFF" width="640" height="480"/>
<g>
	<g>
		<path fill="#188400" stroke="#000000" stroke-width="1.4955" stroke-linecap="round" stroke-linejoin="round" d="M257.304,376.121
			l11.79-10.275c0,0-2.598-5.661-11.99-5.452c-8.791-6.499-23.977-21.807-23.977-21.807l-7.594-21.597c0,0,6.194-1.887,7.594-7.129
			c1.397-5.242-0.4-11.742-1-12.371s-6.793,1.048-8.591,3.774c-1.799,2.728-4.597,13.21-8.792,9.646
			c-4.196-3.564,0.6-7.548,0.6-7.548s4.196-5.452,3.996-8.388c-0.199-2.935-5.594-11.741-6.194-11.95
			c-0.6-0.21-1.797,11.53-3.396,12.79c-1.598,1.259-3.796,6.5-6.994,3.565c-3.196-2.937,1.599-7.34,1.599-7.34
			s8.992-5.032,0.199-21.598c-2.598,7.13-7.592,11.742-7.592,11.742s-2.398,4.404-4.596,0.629c-2.199-3.774,2.598-7.339,2.598-7.339
			s7.792-4.823,7.993-11.951c0.2-7.129-9.391-15.308-9.391-15.308s-0.598,13.211-3.596,14.889c-2.998,1.677-4.196,4.402-7.593,1.467
			s2.598-9.436,2.598-9.436s10.391-10.904,9.792-17.194c-0.6-6.29-1.2-7.339-1.2-7.339s-7.792,5.033-8.791,7.549
			c-1,2.517-4.196,11.532-8.193,8.807c-2.798-3.354,2.398-9.855,2.398-9.855s3.796-4.402,3.597-6.29s-3.197-7.548-8.992-13
			c-0.799-1.678-1.199-8.389-1.199-8.389s-4.395,5.453-4.195,8.389c0.2,2.935-0.4,8.807,0.2,15.307
			c0.599,6.499-4.796-2.098-4.796-2.098l1-20.967c0,0-7.593-9.646-16.785-13.21c3.397,5.242,3.197,10.274,3.197,10.274
			s-3.796,8.597-3.796,10.903s4.396,12.372,12.588,19.08c-12.389-14.048-27.773-9.435-32.37-12.161
			c2.198,2.727,8.792,13.001,7.994,15.727c-0.799,2.726,11.789,8.388,11.789,8.388l13.388,0.21c0,0,6.594,4.821,7.193,7.966
			c0.6,3.146-9.591-5.871-13.587-5.66c-3.997,0.209-14.586-1.467-14.586-1.467s6.394,6.29,6.593,9.016
			c0.2,2.727,2.997,9.017,6.794,10.694c3.796,1.676,13.986,2.308,13.986,2.308s4.396-2.728,5.196,0.208
			c0.799,2.935-5.794,5.243-5.794,5.243s-6.793,0-8.992-1.889c-2.199-1.887-2.598-5.032-12.388-6.291
			c-1,8.599,5.395,17.404,5.395,17.404s26.975-2.307,26.774,3.775c-0.2,6.079-22.379,0.628-23.178-1.261
			c-0.799-1.886,1,11.952,6.194,14.888s16.785,1.469,18.183,0.84c1.399-0.629,6.594-1.259,6.594,1.888
			c0,3.146-26.375,5.661-26.774,4.822c-0.4-0.84,3.997,10.694,14.587,10.064c10.59-0.629,15.186-3.983,15.186-3.983
			s6.394-1.261,6.992,1.468c0.6,2.726-6.394,3.983-6.394,3.983s-16.784,0.419-17.383-0.42c-0.6-0.839,3.797,11.113,15.585,10.904
			c8.792-0.84,9.391-4.824,11.189-5.452c2.598-0.629,8.193-0.629,8.992-0.419c0.799,0.209,14.786,10.481,14.786,10.481
			L257.304,376.121L257.304,376.121z"/>
		<path fill="#188400" stroke="#000000" stroke-width="1.4955" stroke-linecap="round" stroke-linejoin="round" d="M154.203,210.473
			c0,0-0.4,20.129,9.191,26.211"/>
		<path fill="#188400" stroke="#000000" stroke-width="1.4955" stroke-linecap="round" stroke-linejoin="round" d="M174.383,226.408
			c0,0,6.394,10.274-4.396,14.049"/>
		<path fill="#188400" stroke="#000000" stroke-width="1.4955" stroke-linecap="round" stroke-linejoin="round" d="M141.214,233.328
			c0,0-0.799,11.531,18.583,10.693"/>
		<path fill="#188400" stroke="#000000" stroke-width="1.4955" stroke-linecap="round" stroke-linejoin="round" d="M189.169,243.393
			c0,0-3.197,8.177-10.989,7.758"/>
		<path fill="#188400" stroke="#000000" stroke-width="1.4955" stroke-linecap="round" stroke-linejoin="round" d="M196.362,261.845
			c0,1.048,1.398,12.161-8.792,11.951"/>
		<path fill="#188400" stroke="#000000" stroke-width="1.4955" stroke-linecap="round" stroke-linejoin="round" d="M147.608,257.231
			c0,0,12.788,8.389,18.583,7.76"/>
		<path fill="#188400" stroke="#000000" stroke-width="1.4955" stroke-linecap="round" stroke-linejoin="round" d="M150.405,277.571
			c0,0,5.994,6.71,16.984,5.031"/>
		<path fill="#188400" stroke="#000000" stroke-width="1.4955" stroke-linecap="round" stroke-linejoin="round" d="M203.156,282.184
			c0,0.84-1.998,7.339-6.394,8.18"/>
		<path fill="#188400" stroke="#000000" stroke-width="1.4955" stroke-linecap="round" stroke-linejoin="round" d="M160.396,297.073
			c0,0,4.796,6.499,17.383,2.936"/>
		<path fill="#188400" stroke="#000000" stroke-width="1.4955" stroke-linecap="round" stroke-linejoin="round" d="M215.144,294.345
			c0,0-1.999,10.274-7.193,10.483"/>
		<path fill="#188400" stroke="#000000" stroke-width="1.4955" stroke-linecap="round" stroke-linejoin="round" d="M227.332,305.458
			c0,0-3.996,12.372-14.187,10.484"/>
		<path fill="#188400" stroke="#000000" stroke-width="1.4955" stroke-linecap="round" stroke-linejoin="round" d="M180.376,327.474
			c0,0,3.997,3.775,13.787-0.839"/>
		<path fill="#188400" stroke="#000000" stroke-width="1.4955" stroke-linecap="round" stroke-linejoin="round" d="M169.388,314.894
			c0.799,0,5.794,4.404,17.783-2.306"/>
		<path fill="#188400" stroke="#000000" stroke-width="1.4955" stroke-linecap="round" stroke-linejoin="round" d="M257.285,360.712
			c0,0-7.466,3.507-0.222,15.317"/>
	</g>
	<g>
		<path fill="#00CEDE" stroke="#000000" stroke-width="1.4955" d="M488.975,213.734c0,0-3.81,57.135-3.994,57.004
			c-0.185-0.13-7.946-9.98-7.946-9.98l-23.955,78.807l5.599,17.189l-13.946,47.988l-11.501-15.31l-18.582,7.841l14.915-50.543
			l13.779-10.39l24.813-77.636l-13.771,1.81L488.975,213.734L488.975,213.734z"/>
		<path fill="#00CEDE" stroke="#000000" stroke-width="1.4955" d="M541.912,237.3c0,0-28.973,48.54-29.077,48.333
			c-0.105-0.207-2.539-12.73-2.539-12.73l-47.608,46.343l-50.837,51.476l-0.14-10.603l-17.396-2.254l23.009-18.473l11.782-2.038
			l74.275-70.646l-12.963-5.2L541.912,237.3L541.912,237.3z"/>
		<path fill="#00CEDE" stroke="#000000" stroke-width="1.5272" d="M411.885,360.034c0.315-0.688,26.434-24.107,26.434-24.107"/>
		<path fill="#00CEDE" stroke="#000000" stroke-width="1.4955" d="M526.433,196.239c0,0-14.161,55.314-14.318,55.148
			c-0.157-0.164-5.979-11.393-5.979-11.393l-57.432,103.529l2.36,17.997l-20.612,39.628l-8.497-17.338l-19.667,3.963l22.027-41.939
			l15.421-7.43l58.059-102.208l-13.846-0.99L526.433,196.239L526.433,196.239z"/>
		<path fill="#00CEDE" stroke="#000000" stroke-width="1.4955" d="M422.271,383.151c0-0.33,19.825-36.655,19.825-36.655"/>
	</g>
	<g>
		<g id="wing">
			<path fill="#FFD600" stroke="#000000" stroke-width="1.496" stroke-linecap="round" stroke-linejoin="round" d="M258.983,188.483
				c0,0-12.86,14.519-19.291,3.682c-6.431-10.836,8.962-13.905,9.158-14.109c0.195-0.204,8.964-3.066,9.742-20.038
				c0.779-16.972-19.29-28.014-24.941-29.445c-5.651-1.432-22.213-1.432-22.213-1.432s-60.598-15.335-66.833-20.038
				c-6.235-4.704-63.521-15.745-63.521-15.745s-9.158-1.227-8.378,7.361c0.78,8.588,8.378,9.61,8.378,9.61
				s-6.431,5.315-5.651,10.019c0.78,4.703,5.651,12.268,15.784,11.042c-1.169,16.766,21.043,19.425,21.043,19.425
				s2.338,24.127,22.798,22.901c4.872,16.562,23.186,17.176,23.186,17.176s8.574,11.247,21.044,12.063
				c7.209,18.812,22.797,13.496,22.797,13.496s-1.169,11.859,6.041,11.859c-3.703,13.496,10.131,15.336,15.393,12.677
				c1.364,2.862,6.04,11.655,16.757,6.135c6.429,10.021,16.952,5.317,16.952,5.317s2.338,7.975,11.496,4.906
				C277.884,252.279,258.789,188.891,258.983,188.483L258.983,188.483z"/>
			<path fill="#FFD600" stroke="#000000" stroke-width="1.4955" stroke-linecap="round" stroke-linejoin="round" d="M219.234,139
				c0,0,14.224,1.637,12.471,24.742"/>
			<path fill="#FFD600" stroke="#000000" stroke-width="1.4955" stroke-linecap="round" stroke-linejoin="round" d="
				M165.067,115.077c0,0-27.279,19.63,23.772,25.763"/>
			<path fill="#FFD600" stroke="#000000" stroke-width="1.4955" stroke-linecap="round" stroke-linejoin="round" d="M172.86,138.182
				c-0.194,0.409-12.859,16.154,10.522,20.856c-11.106,11.042,9.742,14.722,9.742,14.722s-4.287,11.655,8.184,14.721
				c-4.091,12.065,9.353,11.452,9.353,11.452s0.39,14.722,16.368,14.518c-0.195,10.02,10.912,10.633,10.912,10.633
				s3.313,10.836,14.028,7.565c1.169,7.564,8.573,5.93,8.573,5.93"/>
			<path fill="#FFD600" stroke="#000000" stroke-width="1.4955" stroke-linecap="round" stroke-linejoin="round" d="
				M257.425,250.643c0,0,0.584-10.428-1.753-12.473"/>
			<path fill="#FFD600" stroke="#000000" stroke-width="1.4955" stroke-linecap="round" stroke-linejoin="round" d="
				M239.694,244.918c0.195-0.205,4.677-9.611,3.117-11.247"/>
			<path fill="#FFD600" stroke="#000000" stroke-width="1.4955" stroke-linecap="round" stroke-linejoin="round" d="
				M223.327,238.988l12.082-12.473"/>
			<path fill="#FFD600" stroke="#000000" stroke-width="1.4955" stroke-linecap="round" stroke-linejoin="round" d="
				M208.128,226.719c0.195-0.204,18.315-12.063,18.315-12.063"/>
			<path fill="#FFD600" stroke="#000000" stroke-width="1.4955" stroke-linecap="round" stroke-linejoin="round" d="
				M201.699,214.656c0.195-0.205,10.326-4.704,10.717-8.588"/>
			<path fill="#FFD600" stroke="#000000" stroke-width="1.4955" stroke-linecap="round" stroke-linejoin="round" d="
				M179.291,200.955c0,0,24.55,5.521,28.838-0.408"/>
			<path fill="#FFD600" stroke="#000000" stroke-width="1.4955" stroke-linecap="round" stroke-linejoin="round" d="
				M158.832,188.688c0.974,0,36.826,4.09,40.139-0.613"/>
			<path fill="#FFD600" stroke="#000000" stroke-width="1.4955" stroke-linecap="round" stroke-linejoin="round" d="M135.06,171.716
				c0.585-0.205,42.477,8.179,54.362,1.84"/>
			<path fill="#FFD600" stroke="#000000" stroke-width="1.4955" stroke-linecap="round" stroke-linejoin="round" d="M114.991,149.02
				c0.975,0,55.726,13.905,63.911,9.609"/>
			<path fill="#FFD600" stroke="#000000" stroke-width="1.4955" stroke-linecap="round" stroke-linejoin="round" d="M94.141,128.981
				c0.39,0,65.275,15.949,73.458,9.405"/>
			<path fill="#FFD600" stroke="#000000" stroke-width="1.4955" stroke-linecap="round" stroke-linejoin="round" d="M85.763,109.556
				c0.194,0,62.158,21.265,67.417,15.949"/>
		</g>
		<g transform="matrix(-1,0,0,1,789.25914,0.52320137)">
			<g id="wing_1_">
				<path fill="#FFD600" stroke="#000000" stroke-width="1.496" stroke-linecap="round" stroke-linejoin="round" d="
					M414.519,188.951c0,0,12.859,14.519,19.29,3.682c6.43-10.836-8.963-13.905-9.158-14.109c-0.195-0.204-8.964-3.067-9.742-20.038
					c-0.78-16.972,19.29-28.014,24.94-29.445c5.651-1.432,22.213-1.432,22.213-1.432s60.599-15.335,66.833-20.038
					c6.235-4.704,63.522-15.746,63.522-15.746s9.157-1.226,8.377,7.362c-0.778,8.588-8.377,9.609-8.377,9.609s6.43,5.316,5.65,10.02
					c-0.78,4.703-5.65,12.268-15.783,11.042c1.169,16.767-21.044,19.425-21.044,19.425s-2.338,24.128-22.798,22.901
					c-4.872,16.563-23.187,17.177-23.187,17.177s-8.573,11.247-21.044,12.063c-7.209,18.812-22.797,13.495-22.797,13.495
					s1.169,11.86-6.04,11.86c3.702,13.495-10.132,15.335-15.393,12.678c-1.364,2.861-6.04,11.654-16.758,6.134
					c-6.429,10.02-16.952,5.317-16.952,5.317s-2.338,7.975-11.495,4.906C395.617,252.747,414.712,189.36,414.519,188.951
					L414.519,188.951z"/>
				<path fill="#FFD600" stroke="#000000" stroke-width="1.4955" stroke-linecap="round" stroke-linejoin="round" d="
					M454.267,139.469c0,0-14.224,1.636-12.47,24.741"/>
				<path fill="#FFD600" stroke="#000000" stroke-width="1.4955" stroke-linecap="round" stroke-linejoin="round" d="
					M508.434,115.546c0,0,27.279,19.63-23.772,25.763"/>
				<path fill="#FFD600" stroke="#000000" stroke-width="1.4955" stroke-linecap="round" stroke-linejoin="round" d="
					M500.642,138.651c0.192,0.409,12.858,16.153-10.523,20.856c11.106,11.042-9.742,14.722-9.742,14.722s4.287,11.655-8.183,14.721
					c4.091,12.065-9.353,11.452-9.353,11.452s-0.391,14.722-16.369,14.518c0.196,10.019-10.911,10.633-10.911,10.633
					s-3.312,10.836-14.027,7.565c-1.17,7.564-8.574,5.929-8.574,5.929"/>
				<path fill="#FFD600" stroke="#000000" stroke-width="1.4955" stroke-linecap="round" stroke-linejoin="round" d="
					M416.076,251.112c0,0-0.584-10.428,1.754-12.473"/>
				<path fill="#FFD600" stroke="#000000" stroke-width="1.4955" stroke-linecap="round" stroke-linejoin="round" d="
					M433.808,245.387c-0.195-0.206-4.678-9.61-3.118-11.247"/>
				<path fill="#FFD600" stroke="#000000" stroke-width="1.4955" stroke-linecap="round" stroke-linejoin="round" d="
					M450.174,239.457l-12.08-12.474"/>
				<path fill="#FFD600" stroke="#000000" stroke-width="1.4955" stroke-linecap="round" stroke-linejoin="round" d="
					M465.374,227.188c-0.195-0.204-18.315-12.063-18.315-12.063"/>
				<path fill="#FFD600" stroke="#000000" stroke-width="1.4955" stroke-linecap="round" stroke-linejoin="round" d="
					M471.803,215.124c-0.196-0.206-10.327-4.704-10.718-8.588"/>
				<path fill="#FFD600" stroke="#000000" stroke-width="1.4955" stroke-linecap="round" stroke-linejoin="round" d="
					M494.211,201.423c0,0-24.552,5.522-28.838-0.408"/>
				<path fill="#FFD600" stroke="#000000" stroke-width="1.4955" stroke-linecap="round" stroke-linejoin="round" d="
					M514.67,189.156c-0.974,0-36.827,4.089-40.139-0.614"/>
				<path fill="#FFD600" stroke="#000000" stroke-width="1.4955" stroke-linecap="round" stroke-linejoin="round" d="
					M538.442,172.184c-0.586-0.206-42.477,8.179-54.362,1.84"/>
				<path fill="#FFD600" stroke="#000000" stroke-width="1.4955" stroke-linecap="round" stroke-linejoin="round" d="
					M558.511,149.488c-0.976,0-55.728,13.905-63.91,9.61"/>
				<path fill="#FFD600" stroke="#000000" stroke-width="1.4955" stroke-linecap="round" stroke-linejoin="round" d="
					M579.359,129.449c-0.389,0-65.274,15.95-73.457,9.406"/>
				<path fill="#FFD600" stroke="#000000" stroke-width="1.4955" stroke-linecap="round" stroke-linejoin="round" d="
					M587.737,110.025c-0.194,0-62.156,21.265-67.418,15.948"/>
			</g>
		</g>
		<g>
			<path fill="#FFD600" stroke="#000000" stroke-width="1.4955" d="M376.742,178.488c0-3.087-0.956-9.082-4.066-11.157
				c-3.992-2.179-3.992-3.52-4.312-6.368c-0.319-2.849,6.707-8.21,6.707-8.21s-6.388-3.017-8.782-2.682
				c-2.396,0.336-7.027,0.838-7.666,1.508c-0.638,0.671-4.151-12.065-1.916-14.076c2.236-2.012,6.865,4.691,6.865,4.691
				s3.034-7.373-7.664-21.449c3.673-27.481-20.76-33.85-26.349-33.682c-4.631-0.67-16.607,3.855-18.523,9.888
				c-6.069,2.177-6.388,7.708-6.388,7.708s-12.455,2.347-14.053,13.742c7.345-6.367,12.136,0.67,12.136,0.67s6.388,4.692,9.741,4.86
				c3.353,0.168-3.194,11.73-5.109,13.741c-1.917,2.011-9.902,9.72-9.583,10.222c0.319,0.501,6.228,2.346,5.909,5.195
				c-0.32,2.849-18.205,11.563-17.246,13.742c4.631-1.508,8.241-0.346,8.241-0.346c0.646,4.758-1.161,10.235-4.242,12.01
				L376.742,178.488L376.742,178.488z"/>
			<path fill="#FFD600" stroke="#000000" stroke-width="1.495" d="M304.161,105.413l5.786,6.072c1.57,0.515,10.396,5.044,9.906,8.13
				"/>
			<path fill="#FFD600" stroke="#000000" stroke-width="1.495" stroke-linecap="round" d="M319.853,119.615
				c-0.49,3.087-6.277,4.631-6.277,4.631"/>
			<path fill="#FFD600" stroke="#000000" stroke-width="1.4955" d="M311.124,97.179l8.826,8.851c0,0,1.569,7.617,7.846,7
				c6.277-0.618,5.395-3.397,5.395-3.397s-7.55-5.557-13.534-4.22"/>
		</g>
		<g>
			<path fill="#FFD600" stroke="#000000" stroke-width="1.4955" d="M403.951,257.679c0,0,7.846,7.905,8.003,9.552
				s2.041,9.386,4.08,10.54c2.04,1.153,10.044,7.904,11.143,10.54c1.098,2.635,8.16,13.833,8.16,13.833s6.591,14.161,10.985,15.315
				c4.394,1.151,16.792-0.823,19.302,5.435s1.883,15.316,1.883,15.316s-2.981,2.8-4.394,1.152c-1.411-1.647-3.923,8.233-8.317,5.434
				c-5.985-13.373-21.65-11.19-21.65-11.19s3.446-5.606-10.521-10.548c-21.813,3.952-28.247-19.926-28.247-19.926l-12.417-11.301
				L403.951,257.679L403.951,257.679z"/>
			<path fill="#FFD600" stroke="#000000" stroke-width="1.4955" d="M391.396,291.603l9.73,4.776l-0.785-8.729"/>
			<path fill="#FFD600" stroke="#000000" stroke-width="1.4955" d="M405.206,290.285l8.944,4.611l-3.608-7.576"/>
			<path fill="#FFD600" stroke="#000000" stroke-width="1.4955" d="M404.735,277.936l8.788,4.941l-4.08-9.552"/>
			<path fill="#FFD600" stroke="#000000" stroke-width="1.4955" d="M418.701,323.223c0,0-10.044-13.834-9.887-13.834
				c0.158,0,17.105,3.458,17.105,3.458l-6.276-14.161l15.536,4.281"/>
			<path fill="#FFD600" stroke="#000000" stroke-width="1.4955" d="M447.577,325.364c0,0,9.887,2.305,9.572,19.597"/>
			<path fill="#FFD600" stroke="#000000" stroke-width="1.4955" d="M452.756,322.728c0,0,10.672-0.657,10.043,16.798"/>
		</g>
		<g>
			<path fill="#FFD600" stroke="#000000" stroke-width="1.4955" stroke-linecap="round" d="M268.714,259.821
				c0,0-7.847,7.906-8.003,9.553c-0.158,1.646-3.342,8.362-5.382,9.515c-2.04,1.153-9.067,8.587-10.166,11.224
				c-1.099,2.636-7.835,14.175-7.835,14.175s-7.73,11.771-12.124,12.924c-5.371,0.471-15.653,1.567-18.164,7.825
				s1.372,15.827,4.3,15.827c4.393,2.05,6.398,4.166,7.811,2.519c2.388,0.744,1.021,2.889,5.417,0.09
				c-3.34-4.492-2.983-8.832,0.365-9.97c3.339-1.199,8.778,4.134,8.778,4.134s1.979-9.698,15.947-14.639
				c21.813,3.953,27.675-14.518,29.202-18.925c3.439-4.911,8.788-6.22,13.182-9.33L268.714,259.821L268.714,259.821z"/>
			<path fill="#FFD600" stroke="#000000" stroke-width="1.4955" stroke-linecap="round" stroke-linejoin="round" d="
				M281.649,291.743l-10.112,5.577l0.785-7.527"/>
			<path fill="#FFD600" stroke="#000000" stroke-width="1.4955" stroke-linecap="round" stroke-linejoin="round" d="
				M268.222,290.227l-9.517,4.609l4.372-7.774"/>
			<path fill="#FFD600" stroke="#000000" stroke-width="1.4955" stroke-linecap="round" stroke-linejoin="round" d="
				M268.501,278.075l-8.215,3.738l2.935-6.346"/>
			<path fill="#FFD600" stroke="#000000" stroke-width="1.4955" stroke-linecap="round" stroke-linejoin="round" d="
				M254.344,323.162c1.527-3.205,9.28-13.232,9.123-13.232c-0.157,0-15.96,3.459-15.96,3.459l5.132-13.963l-13.818,2.88"/>
			<path fill="#FFD600" stroke="#000000" stroke-width="1.4955" stroke-linecap="round" stroke-linejoin="round" d="
				M225.737,325.286c0,0-12.002,2.306-7.294,17.89"/>
			<path fill="#FFD600" stroke="#000000" stroke-width="1.4955" d="M220.559,323.164c0,0-13.111,0.365-8.579,17.479"/>
		</g>
		<g>
			<path fill="#FFD600" stroke="#000000" stroke-width="1.4955" stroke-linecap="round" stroke-linejoin="round" d="
				M372.008,304.058c0,0,0.813,10.074-3.253,14.343c18.059,1.195,27.822,20.49,27.984,25.101c0.162,4.608-5.532,8.194-5.532,8.194
				s1.953,8.196-5.532,9.562c0.162,7.855-5.044,7.855-5.044,7.855s-1.953,6.487-7.973,6.146c-1.79,9.391-11.064,9.22-11.064,9.22
				s-5.369,13.66-13.341,8.367c-5.044,11.61-18.386,11.098-23.43,0c-2.767-0.169-8.948,3.756-12.69-7.854
				c-8.299,1.537-11.553-9.562-11.553-9.562s-5.532-0.513-7.648-6.316c-6.507-1.366-5.369-8.195-5.369-8.195
				s-6.508-1.878-6.346-9.392c-5.207-3.245-4.719-9.049-4.719-9.049s4.068-20.146,27.661-24.417
				c-3.743-5.633-3.254-13.829-3.254-13.829L372.008,304.058L372.008,304.058z"/>
			<path fill="#FFD600" stroke="#000000" stroke-width="1.4955" stroke-linecap="round" stroke-linejoin="round" d="M354.11,318.742
				c0,0.343,2.44,11.099-5.533,12.807c15.783-4.44,32.216,37.563,32.216,37.563"/>
			<path fill="#FFD600" stroke="#000000" stroke-width="1.4955" stroke-linecap="round" stroke-linejoin="round" d="
				M359.479,314.816c0,0,2.115,8.536-4.881,12.806c25.382,5.806,31.239,33.466,31.239,33.466"/>
			<path fill="none" stroke="#000000" stroke-width="1.8694" stroke-linecap="round" stroke-linejoin="round" d="M365.011,310.547
				c0-0.17,4.394,11.61-5.043,13.659c24.243-1.878,31.076,27.147,31.076,27.147"/>
			<path fill="#FFD600" stroke="#000000" stroke-width="1.4955" stroke-linecap="round" stroke-linejoin="round" d="
				M346.463,323.525c0,0,4.067,8.193-3.417,10.755c14.155,1.537,18.712,50.369,18.712,50.369"/>
			<path fill="#FFD600" stroke="#000000" stroke-width="1.4955" stroke-linecap="round" stroke-linejoin="round" d="
				M341.581,326.426c0,0,2.277,9.049-5.043,11.78c14.807-8.194,12.04,54.98,12.04,54.98"/>
			<path fill="#FFD600" stroke="#000000" stroke-width="1.4955" stroke-linecap="round" stroke-linejoin="round" d="M331.82,326.94
				c0,0-3.092,9.561,3.742,11.438c-13.504-3.927-10.902,54.811-10.902,54.811"/>
			<path fill="#FFD600" stroke="#000000" stroke-width="1.4955" stroke-linecap="round" stroke-linejoin="round" d="
				M325.474,323.182c0,0-2.115,8.708,6.184,13.146c-13.83-9.219-19.524,49.003-19.524,49.003"/>
			<path fill="#FFD600" stroke="#000000" stroke-width="1.4955" stroke-linecap="round" stroke-linejoin="round" d="
				M347.438,331.208c0,0,25.218,25.44,25.056,44.221"/>
			<path fill="#FFD600" stroke="#000000" stroke-width="1.4955" stroke-linecap="round" stroke-linejoin="round" d="
				M307.578,310.718c0,0.171-3.092,13.66,5.857,14.001"/>
			<path fill="#FFD600" stroke="#000000" stroke-width="1.4955" stroke-linecap="round" stroke-linejoin="round" d="
				M313.923,315.669c0,0.342-2.441,11.439,4.717,11.952"/>
			<path fill="#FFD600" stroke="#000000" stroke-width="1.4955" stroke-linecap="round" stroke-linejoin="round" d="
				M319.616,318.914c0,0-4.393,11.099,6.346,12.635"/>
			<path fill="#FFD600" stroke="#000000" stroke-width="1.4955" stroke-linecap="round" stroke-linejoin="round" d="
				M325.148,331.719c-0.164,0-20.989,20.318-24.244,43.88"/>
			<path fill="#FFD600" stroke="#000000" stroke-width="1.4955" stroke-linecap="round" stroke-linejoin="round" d="M321.244,329.67
				c-0.162,0-26.521,17.245-28.311,39.271"/>
			<path fill="#FFD600" stroke="#000000" stroke-width="1.4955" stroke-linecap="round" stroke-linejoin="round" d="
				M315.386,326.768c0,0-29.286,17.927-27.984,34.148"/>
			<path fill="#FFD600" stroke="#000000" stroke-width="1.4955" stroke-linecap="round" stroke-linejoin="round" d="M308.39,322.841
				c0,0-21.802,4.269-27.172,28.855"/>
		</g>
	</g>
	<g>
		<path fill="#FFFFFF" d="M262.408,165.528c0,0,21.084,12.219,36.189,11.559c15.105-0.66,37.762-10.898,37.762-10.898
			s20.141,11.889,36.505,10.238c16.364-1.651,39.021-10.898,39.021-10.898c13.531,70.891-17.307,134.515-75.525,163.136
			C274.577,299.051,244.577,227.832,262.408,165.528L262.408,165.528z"/>
		<g>
			<path fill="#BE0A2F" d="M270.179,217.044v44.323l11.979,21.196v-65.52H270.179z"/>
			<path fill="#BE0A2F" d="M294.137,217.044v80.254l11.979,11.7v-91.954H294.137L294.137,217.044z"/>
			<path fill="#BE0A2F" d="M318.095,217.044v101.454l11.98,6.979V217.044H318.095L318.095,217.044z"/>
			<path fill="#BE0A2F" d="M401.95,217.044v44.336l-11.979,21.379v-65.715H401.95L401.95,217.044z"/>
			<path fill="#BE0A2F" d="M377.992,217.044v80.648l-11.979,11.464v-92.113L377.992,217.044L377.992,217.044z"/>
			<path fill="#BE0A2F" d="M354.034,217.044v101.261l-11.979,7.489v-108.75H354.034L354.034,217.044z"/>
		</g>
		<path fill="#002768" d="M262.408,165.528c0,0,5.272,3.054,12.43,6.026c7.159,2.974,16.206,5.862,23.758,5.531
			c15.105-0.66,37.762-10.898,37.762-10.898s20.14,11.888,36.504,10.238c16.364-1.652,39.021-10.898,39.021-10.898
			c3.306,20.585,4.957,31.097,2.047,51.517H258.201c-1.98-20.377-1.875-29.61,4.209-51.516H262.408z"/>
		<path fill="none" stroke="#000000" stroke-width="1.4955" d="M413.93,217.043H258.2 M262.409,165.528
			c0,0,21.084,12.219,36.19,11.558c15.104-0.661,37.762-10.897,37.762-10.897s20.14,11.888,36.505,10.236
			c16.362-1.651,39.021-10.896,39.021-10.896c13.531,70.891-17.308,134.516-75.525,163.135
			C274.577,299.05,244.577,227.831,262.409,165.528L262.409,165.528z"/>
	</g>
	<g>
		<path fill="#00CEDE" stroke="#000000" stroke-width="1.4955" d="M32.372,185.837l34.616,0.164l-3.462,8.752l15.105,62.743
			l18.252-62.578l-6.452-9.081h36.032l-7.711,8.75l-29.737,89.658l7.709,11.724H62.109l7.709-11.724L40.71,194.918L32.372,185.837
			L32.372,185.837z"/>
		<path fill="#00CEDE" stroke="#000000" stroke-width="1.4955" d="M563.409,187.983h32.885l-5.351,7.76l-0.156,91.309l7.396,8.587
			h-34.773l6.922-9.246l-0.156-90.484L563.409,187.983L563.409,187.983z"/>
	</g>
</g>
</svg>
