<svg xmlns="http://www.w3.org/2000/svg" id="flag-icon-css-ws" width="640" height="480">
  <g fill-rule="evenodd" stroke-width="1pt">
    <path fill="red" d="M0 0h640v480H0z"/>
    <path fill="#00006b" d="M0 0h314.4v157.21H0z"/>
    <path fill="#fff" d="M162.77 144.4l-12.47-8.41-11.95 8.55 3.8-15-11.47-9.26 14.81-.85 4.87-14.28 5.35 14.48 14.48.43-11.5 9.8zm-2.14-99.83l-9.97-6.4-9.8 6.36 2.72-11.96-8.78-7.81 11.66-.98 4.36-11.2 4.49 11.36 11.48.9-8.89 7.99zM116.55 80.5l-9.7-6.66-9.93 6.65 3.09-11.67-9.15-7.77 11.61-.55 4.27-11.46 4.1 11.33 11.78.69-9.08 7.55zm88.38-8.03l-9.31-6.01-9.06 6.08 2.6-11.08-8.35-7.1 10.93-.84 3.9-10.46 4.14 10.56 10.76.62-8.36 7.37zm-26.05 26.25l-6.2-3.87-6.2 3.9 1.62-7.34-5.48-4.92 7.2-.68 2.8-6.95 2.85 6.93 7.21.63-5.45 4.96z"/>
  </g>
</svg>
