<?xml version="1.0" encoding="UTF-8"?>
<!-- Created with Sodipodi ("http://www.sodipodi.com/") -->
<svg id="svg8457" xmlns:rdf="http://www.w3.org/1999/02/22-rdf-syntax-ns#" xmlns="http://www.w3.org/2000/svg" height="480" width="640" version="1.0" y="0" x="0" xmlns:cc="http://creativecommons.org/ns#" xmlns:xlink="http://www.w3.org/1999/xlink" xmlns:dc="http://purl.org/dc/elements/1.1/">
 <metadata id="metadata3750">
  <rdf:RDF>
   <cc:Work rdf:about="">
    <dc:format>image/svg+xml</dc:format>
    <dc:type rdf:resource="http://purl.org/dc/dcmitype/StillImage"/>
   </cc:Work>
  </rdf:RDF>
 </metadata>
 <rect width="640" height="480" fill="#244aa5"/>
  <path fill="#d0a650" transform="translate(163,110) scale(0.30,0.30)" d="m 271.3,381.7 c 0,0 4.1,-3 5.6,-3.4 c 1.5,-0.4 6.8,-2.2 6.8,-2.2 c 0,0 3.4,-1.9 5.2,-1.9 c 1.9,0 5.6,2.2 6.8,4.1 c 1.1,1.9 7.1,5.2 7.1,5.2 c 0,0 4.1,1.5 4.9,0 c 0.8,-1.5 2.6,-2.6 4.5,-2.6 c 1.9,0 2.2,-1.9 2.2,-3.4 c 0,-1.5 0.8,-3.4 2.2,-5.2 c 1.5,-1.9 4.5,-3 4.5,-3 c 0,0 4.1,-1.9 4.5,-4.5 c 0.4,-2.6 4.5,-4.5 6.8,-4.9 c 2.2,-0.4 0,-1.5 6,-0.8 c 6,0.8 6.8,-1.5 7.1,-3.4 c 0.4,-1.9 0,-3.8 3.8,-3.4 c 3.8,0.4 5.6,0.4 5.6,-1.9 c 0,-2.2 3.4,-3.4 -2.6,-5.2 c -6,-1.9 -5.6,-0.4 -6,-3.4 c -0.4,-3 0,-2.6 -4.1,-3 c -4.1,-0.4 -1.9,-2.6 -2.2,-4.9 c -0.4,-2.2 -1.5,-3.4 -2.2,-4.9 c -0.8,-1.5 -3,-1.5 -3,-3.7 c 0,-2.2 -0.4,-3.4 -2.6,-3.4 c -2.2,0 -3,0 -3,-2.2 c 0,-2.2 0.4,-4.1 2.6,-4.1 c 2.2,0 3.4,-1.9 3,-4.1 c -0.4,-2.2 -0.4,-7.1 -0.4,-7.1 l 3,-3.8 c 0,0 9,-7.9 9.8,-9.4 c 0.8,-1.5 3.8,-2.6 5.2,0.4 c 1.5,3 2.2,3.8 3.4,5.2 c 1.1,1.5 4.5,0.4 5.2,-1.1 c 0.8,-1.5 1.1,-7 3.1,-10 c 2,-2.9 3.4,-4.4 3.9,-6.8 c 0.5,-2.4 1.5,-4.4 3.9,-4.4 c 2.4,0 3.9,-3.4 3.9,-5.4 c 0,-2 1,-3.9 3.9,-4.4 c 2.9,-0.5 4.4,-2.4 5.4,0.5 c 1,2.9 2,2.9 3.9,3.9 c 2,1 4.9,2.4 6.3,1 c 1.5,-1.5 2.2,-3.9 4.4,-2.4 c 2.1,1.5 3.6,0 4.1,-2.9 c 0.5,-2.9 1,-6.8 1,-6.8 c 0,0 0.5,-2 3.9,-2 c 3.4,0 1,-2.4 2.9,-3.9 c 2,-1.5 2,-2.9 4.4,-2 c 2.4,1 6.3,-1.2 4.4,-3.6 c -2,-2.4 -6.3,-6.3 -3.9,-9.3 c 2.4,-2.9 3.4,-7.8 1,-8.3 c -2.4,-0.5 -5.9,0.5 -6.3,-2.4 c -0.5,-2.9 -1.5,-4.9 1.5,-5.4 c 2.9,-0.5 7.8,-0.5 9.3,-2 c 1.5,-1.5 6.3,-2.4 6.3,-6.8 c 0,-4.4 1.5,-4.9 2,-7.3 c 0.5,-2.4 0.5,-7.5 -1.5,-9.9 c -2,-2.4 -4.9,-5.9 -5.4,-7.3 c -0.5,-1.5 -2.4,-3.9 -5.4,-4.9 c -2.9,-1 -5.4,-1.5 -5.4,-3.9 c 0,-2.4 2,0.5 2,-5.9 c 0,-6.3 -3.9,-7.3 -3.9,-7.3 l -5.9,-3.9 c 0,0 -10.4,-3 -13.2,-3 c -2.8,0 -6,-3.2 -2.8,-5.2 c 3.2,-2 4,-5.6 2.8,-8.4 c -1.2,-2.8 -2,-4.8 -6.4,-6 c -4.4,-1.2 -5.6,-2.4 -3.6,-5.2 c 2,-2.8 2.4,-4.8 4.8,-2.8 c 2.4,2 6.4,2.8 9.6,1.2 c 3.2,-1.6 4.4,-2.8 6,-1.2 c 1.6,1.6 3.6,3.2 6,0.8 c 2.4,-2.4 6.8,-2.8 8.8,-1.6 c 2,1.2 6.8,0.8 8.4,0 c 1.6,-0.8 4.8,-3.6 4.8,-5.2 c 0,-1.6 2,-4.4 4,-5.6 c 2,-1.2 4.4,-5.2 6.4,-5.2 c 2,0 2.8,-2.4 2.8,-4 c 0,-1.6 1.6,-4.8 2,-6 c 0.4,-1.2 4.4,-2.9 7.2,-0.4 c 2.8,2.4 6.4,3.2 6.4,3.2 c 0,0 4,0.8 6,0 c 2,-0.8 4.8,-1.6 7.6,0.4 c 2.8,2 6.8,2 6.8,2 c 0,0 0.8,-3.2 0.8,-4.8 c 0,-1.6 0.8,-4.4 -0.8,-5.6 c -1.6,-1.2 -3.6,-2.8 -0.4,-5.2 c 3.2,-2.4 3.2,-2 6.4,-2 c 3.2,0 5.2,0.4 7.6,0.4 c 2.4,0 6.4,2.4 6.4,4.8 c 0,2.4 1.6,4 3.6,5.2 c 2,1.2 4.4,2.4 3.6,4.4 c -0.8,2 -0.8,3.6 1.6,3.2 c 2.4,-0.4 3.2,1.2 3.2,3.2 c 0,2 0.8,3.2 3.2,4 c 2.4,0.8 3.6,2.4 3.6,4.4 c 0,2 -0.4,3.2 0.4,5.2 c 0.8,2 3.2,5.2 3.2,5.2 c 0,0 4.4,5.6 -1.2,2.8 c -5.6,-2.8 -6.8,-4 -8.8,-3.6 c -2,0.4 -3.2,1.6 -3.2,1.6 c 0,0 -2.8,0.8 -4.8,0.8 c -2,0 -4,4.4 -0.8,5.2 c 3.2,0.8 4.4,1.6 4.4,4.4 c 0,2.8 -1.2,2 -2.8,4 c -1.6,2 -2.8,0.8 -5.6,0.8 c -2.8,0 -3.6,2.4 -3.6,4.8 c 0,2.4 1.2,2 2.4,4 c 1.2,2 3.2,2.4 5.2,0.4 c 2,-2 3.6,-3.2 4.8,0.4 c 1.2,3.6 2.8,3.6 5.2,3.6 c 2.4,0 3.2,0 5.2,-1.2 c 2,-1.2 4.4,0 4.8,3.2 c 0.4,3.2 2.4,3.6 4.4,4.8 c 2,1.2 3.2,2 3.6,4 c 0.4,2 1.6,2.8 3.6,1.6 c 2,-1.2 5.2,-2 6.4,-0.4 c 1.2,1.6 3.2,4.8 3.2,4.8 l 0.4,4 l 7.6,2.8 c 0,0 0.8,2 0.8,3.6 c 0,1.6 1.2,2.4 3.2,2 c 2,-0.4 5.6,0 5.6,0 c 0,0 2.8,-1.2 2.8,-3.6 c 0,-2.4 1.2,-3.2 3.2,-3.2 c 2,0 6.4,1.6 7.6,-0.8 c 1.2,-2.4 4.8,-3.2 7.6,-2 c 2.8,1.2 10,4.4 10,4.4 c 0,0 -0.8,0.4 1.6,4.4 c 2.4,4 6.8,4 6.8,4 c 0,0 0.4,3.6 1.2,5.2 c 0.8,1.6 4.4,2.4 6.4,0.8 c 2,-1.6 4.8,-3.6 7.2,-3.6 c 2.4,0 4,0 4,-1.6 c 0,-1.6 -2.4,-2.8 -2.4,-5.2 c 0,-2.4 2.4,-2.4 2.8,-4.8 c 0.4,-2.4 2.8,0 4.4,1.2 c 1.6,1.2 3.6,3.2 3.6,4.8 c 0,1.6 3.2,7.2 5.2,8 c 2,0.8 7.2,1.2 8.8,-0.8 c 1.6,-2 5.6,-2.8 5.2,2 c -0.4,4.8 -1.2,5.2 1.6,6.8 c 2.8,1.6 3.2,7.2 0.8,8.8 c -2.4,1.6 -3.2,2 -3.2,4.8 c 0,2.8 -0.8,6 1.2,7.6 c 2,1.6 3.2,2.8 3.2,4.4 c 0,1.6 2.4,8.8 2.4,8.8 c 0,0 1.2,7.2 0.8,8.8 c -0.4,1.6 -1.2,4.4 2.4,4 c 3.6,-0.4 4.4,-0.4 4.4,2.8 c 0,3.2 1.2,4.4 -0.8,5.6 c -2,1.2 -3.2,5.2 -1.2,6 c 2,0.8 3.6,2 4,3.6 c 0.4,1.6 3.6,4.4 5.6,2.8 c 2,-1.6 2.4,-2.4 4,-2.8 c 1.6,-0.4 2.8,-1.6 1.2,-3.6 c -1.6,-2 -2,-4 -0.4,-5.2 c 1.6,-1.2 2.4,-5.2 2.4,-5.2 c 0,0 2.4,-3.6 5.2,0 c 2.8,3.6 3.2,2.4 5.2,2.4 c 2,0 2.8,2 2.8,4 c 0,2 4,1.6 4,4.8 c 0,3.2 0.8,10.8 0.8,10.8 c 0,0 0,4.4 2.4,6 c 2.4,1.6 2,2 0.8,4 c -1.2,2 -0.8,5.2 -0.8,6.8 c 0,1.6 0.8,2.4 -1.2,4 c -2,1.6 -2.8,3.6 -1.6,6 c 1.2,2.4 0.8,4 4,6.8 c 3.2,2.8 2.8,4 2.8,6 c 0,2 3.2,4.8 3.2,6.8 c 0,2 2.4,4.4 4.4,4.8 c 2,0.4 4.4,4 4.4,6 c 0,2 0.4,7.2 0.4,7.2 c 0,0 -0.4,1.2 2,1.2 c 2.4,0 4,2.8 4.8,-0.4 c 0.8,-3.2 3.2,-3.6 4.8,-4.4 c 1.6,-0.8 4.8,-2.4 6.4,-1.2 c 1.6,1.2 3.6,1.2 5.2,1.2 c 1.6,0 9.2,0.4 9.2,0.4 c 0,0 2,-0.4 3.2,2.8 c 1.2,3.2 4.8,6.8 2.8,8.4 c -2,1.6 -2,4.8 0.4,4.8 c 2.4,0 4.8,0 4.8,2 c 0,2 0.4,3.6 2.4,2.4 c 2,-1.2 3.2,-1.6 4,0 c 0.8,1.6 2.4,1.6 4.4,2.8 c 2,1.2 2.8,0.4 4,-1.2 c 1.2,-1.6 6,-3.2 6,-3.2 c 0,0 6.4,-1.6 8.8,-0.8 c 2.4,0.8 5.6,2.4 5.6,2.4 c 0,0 1.6,4 0.8,6.4 c -0.8,2.4 -1.6,2 -0.8,5.6 c 0.8,3.6 -0.8,4 -2.4,3.6 c -1.6,-0.4 -3.2,-0.4 -3.2,2.8 c 0,3.2 -1.6,4 -1.6,6.8 c 0,2.8 0,2.4 -1.6,3.6 c -1.6,1.2 -2,3.2 0.4,3.6 c 2.4,0.4 1.6,3.2 1.6,4.8 c 0,1.6 -0.4,5.2 -0.4,5.2 c 0,0 0.4,2 -2.4,2 c -2.8,0 -5.2,-0.4 -5.6,1.6 c -0.4,2 -3.6,5.2 -0.8,7.2 c 2.8,2 2,3.2 0.4,4 c -1.6,0.8 -2.8,4.8 0.4,6 c 3.2,1.2 2.8,2.4 0.8,4 c -2,1.6 -6,2.8 -6,5.2 c 0,2.4 -0.8,2.4 -3.2,2.8 c -2.4,0.4 -3.6,3.6 -0.8,7.6 c 2.8,4 3.6,3.2 5.6,3.2 c 2,0 2,-3.2 2,-3.2 c 0,0 6.8,0.4 8.8,0.4 c 2,0 4.8,0 6.4,-1.2 c 1.6,-1.2 6,-3.2 6,0.4 c 0,3.6 0.8,3.2 2.8,4.8 c 2,1.6 2.4,0.4 4,2.8 c 1.6,2.4 2,0.4 3.2,-2.4 c 1.2,-2.8 3.6,-5.6 5.6,-2.4 c 2,3.2 2,2.4 4.4,2.4 c 2.4,0 3.2,1.2 3.2,3.2 c 0,2 2.4,2 5.2,1.6 c 2.8,-0.4 3.2,1.6 4.4,3.6 c 1.2,2 1.6,1.6 3.2,1.6 c 1.6,0 3.2,0 4.4,-1.6 c 1.2,-1.6 2.8,-3.6 4.4,-1.2 c 1.6,2.4 4.8,2 5.6,-0.8 c 0.8,-2.8 4.4,-5.2 6.4,-2 c 2,3.2 3.6,3.2 5.6,3.6 c 2,0.4 4.8,0.4 6,2.4 c 1.2,2 5.2,5.2 2.4,7.6 c -2.8,2.4 -6,5.6 -3.6,6.4 c 2.4,0.8 4,1.6 5.6,3.6 c 1.6,2 6.8,2.8 9.2,3.2 c 2.4,0.4 4.4,0.8 7.2,-1.6 c 2.8,-2.4 5.6,-2.4 5.2,0.8 c -0.4,3.2 1.2,6.8 1.2,6.8 c 0,0 2,5.2 2,7.2 c 0,2 -0.4,2.4 3.2,4.8 c 3.6,2.4 3.2,4 6,1.6 c 2.8,-2.4 3.6,-3.6 3.6,-5.6 c 0,-2 0,-6.4 0,-6.4 c 0,0 4,-0.8 5.6,-2 c 1.6,-1.2 8,-4.8 9.6,-3.2 c 1.6,1.6 3.6,1.2 5.2,0.4 c 1.6,-0.8 4.8,-0.8 6.4,-0.8 c 1.6,0 4.4,0.4 7.6,-2.4 c 3.2,-2.8 3.2,-2 5.2,0 c 2,2 2,4.4 0.8,6 c -1.2,1.6 0,5.2 2.8,5.2 c 2.8,0 3.6,1.6 3.6,3.6 c 0,2 0.4,4.8 0.8,6.4 c 0.4,1.6 0.4,2.4 4.8,3.6 c 4.4,1.2 3.6,4 4.4,6 c 0.8,2 0.8,3.6 -1.6,3.6 c -2.4,0 -3.2,1.2 -3.6,3.2 c -0.4,2 -4,2.8 -4,2.8 l -3.6,-0.8 c 0,0 -2.4,0 -3.6,1.6 c -1.2,1.6 -3.6,4.8 -2,7.6 c 1.6,2.8 1.6,4.4 0,5.6 c -1.6,1.2 -2.4,7.2 -4,6 c -1.6,-1.2 -3.6,0.4 -5.2,1.2 c -1.6,0.8 -1.2,6.4 2,8.4 c 3.2,2 4,4.8 4,4.8 l 3.6,6 c 0,0 -1.2,1.2 -2,3.2 c -0.8,2 -3.2,6 -0.8,6.8 c 2.4,0.8 1.2,5.2 -1.2,5.2 c -2.4,0 -5.2,-1.2 -5.6,2 c -0.4,3.2 -1.6,2.4 -4,2 c -2.4,-0.4 -8.4,-2 -10,1.2 c -1.6,3.2 -2,4.4 -4.8,4 c -2.8,-0.4 -1.6,4.8 -0.8,6.8 c 0.8,2 3.6,4.8 3.6,4.8 c 0,0 2.4,2 2.4,6 c 0,4 -1.6,3.6 -3.2,0.8 c -1.6,-2.8 -4.8,-2.4 -5.2,0.8 c -0.4,3.2 -0.8,8 -3.6,8 c -2.8,0 -4,0.8 -5.2,2.4 c -1.2,1.6 -3.2,4.4 -3.2,6 c 0,1.6 -0.4,3.2 -2.4,3.6 c -2,0.4 -2.4,4.8 -2.4,4.8 c 0,0 -4.8,0.8 -5.2,2.8 c -0.4,2 0.4,5.2 -3.6,5.6 c -4,0.4 -6.4,3.2 -7.6,5.2 c -1.2,2 -1.6,3.6 0,5.6 c 1.6,2 2.8,8.4 4.8,9.6 c 2,1.2 3.6,1.6 3.2,4.8 c -0.4,3.2 -2.8,5.6 0.4,5.6 c 3.2,0 5.2,0.8 4,3.6 c -1.2,2.8 -1.2,3.2 -3.6,4.4 c -2.4,1.2 -3.6,1.2 -3.6,4.4 c 0,3.2 0.8,3.2 -1.2,4.4 c -2,1.2 -2,2.8 -2,5.2 c 0,2.4 -0.8,1.6 -3.2,4.4 c -2.4,2.8 -5.6,2.8 -7.6,2 c -2,-0.8 -2.4,-0.8 -2.8,-3.2 c -0.4,-2.4 -4,-2.4 -6,-2 c -2,0.4 -4.8,2.8 -4.8,2.8 c 0,0 -3.6,2.4 -2,4.4 c 1.6,2 0.8,5.2 -2,4.8 c -2.8,-0.4 -9.2,3.2 -11.2,-0.4 c -2,-3.6 -7.6,-6 -8.4,-1.2 c -0.8,4.8 2.4,4.4 2,9.2 c -0.4,4.8 -1.2,4.8 -2.8,6.4 c -1.6,1.6 -1.6,2.8 -2,4.8 c -0.4,2 -0.8,6.4 2,8 c 2.8,1.6 4,6 4,8.4 c 0,2.4 0,4.8 2.8,4.8 c 2.8,0 5.2,-0.4 5.6,-3.2 c 0.4,-2.8 6,-4.4 6.4,1.2 c 0.4,5.6 0.4,8.4 2.4,10.8 c 2,2.4 3.6,5.6 5.2,6.8 c 1.6,1.2 4.3,11.4 4.3,11.4 c -3.9,0.9 -4.9,6.4 -7.4,7.5 c -1.4,0.6 -2.9,0.1 -4.2,1.1 c -1,0.8 -1,2.3 -2.4,3 c -2.9,1.4 -2.4,-3.5 -5.9,-1.7 c -3.2,1.6 -3.5,5.6 -8.1,3.9 c -2.4,-0.9 -3.9,-11.1 -4.6,-13.5 c -0.4,-1.4 -2.9,-5.6 -3.7,-6.9 c -2.7,-4.4 -8.1,0 -9.8,-1.3 c -2.7,-2 -1.5,-5.4 -5.6,-5.8 c -8.3,-0.6 -2.4,5.5 -5.9,6.9 c -6.7,2.6 -6.7,-6.8 -11.7,-2.5 c -1.9,1.6 3,2.6 1.8,5.4 c -1,2.3 -5.9,5.8 -5.6,8.5 c 0.4,3.7 4.1,4.8 5.2,7.9 c 3,8.2 -2,13.9 -9.5,7.5 c -4.2,-3.6 -5,-10.3 -11.5,-9.8 c -1.5,0.1 -2,1.8 -3.5,2 c -1.5,0.1 -2.7,-1.5 -4.3,-1 c -2.4,0.9 -0.3,2.7 -0.8,4.2 c 0,0 -3.2,2.9 -3.7,3.7 c -1.8,2.6 -1.2,4.9 -3.8,7 c -2.2,1.8 -3.9,0.7 -6.3,3.5 c -2.5,2.9 -2.7,7.2 -5.9,10 c -1.6,1.4 -2.7,-4.2 -4.7,-0.5 c -0.3,0.5 -0.6,1 -0.8,1.5 c -0.5,1.1 -0.6,1.6 -0.1,2.8 c 4.2,8.8 -4.6,12.1 -7.3,18.3 c -1.2,2.6 2.1,5 0.8,7 c -0.9,1.5 -4.8,5.6 -5.1,6.5 c -0.3,0.9 -0.7,2.9 -1.4,3.6 c -0.7,0.8 -3.1,0.4 -3.3,1.6 c -0.2,1.4 2.5,2.5 3.2,3.4 c 0.9,1.1 -0.4,2.6 -0.1,2.9 c 4.5,4.9 1.8,3.4 4.1,7.7 c 0.3,0.6 1.7,-0.5 2.2,1.1 c 0.5,1.5 -1.1,1.4 -0.5,3.1 c 0.1,0.5 3.3,5 3.3,5.1 c 0.2,1.5 -6.1,4.6 -7.5,4.6 c -3.8,0.1 3.3,-8.5 -2.9,-8.5 c -2.7,0 -2.9,6.7 -3.6,7.4 c -0.3,0.3 -2.8,-0 -3.4,-0 c -4,-0 -6.6,5.4 -8.2,5.9 c -1,0.4 -3.2,-0.6 -4.9,-0.3 c -1.6,0.3 -3.5,2 -5,2 c -1,0 -1.5,-0.7 -2.3,-1.2 c -1.8,-1.1 -5.1,-1.6 -7.1,-2.3 c -1.1,-0.4 -3.2,1.5 -3.9,1 c -1.3,-0.9 0.9,-3.4 -2.1,-5.2 c -0.4,-0.2 -2.6,-6 -2.5,-6.3 c 1,-3.8 2.1,-7.9 1.6,-11.9 c -0.6,-4.1 -6.5,-7.6 -8.1,-10.9 c -1.2,-2.5 -2.3,-9.1 -4.6,-10.8 c -2.5,-1.8 -4.8,-5.3 -6.1,-8 c -0.4,-0.8 0.8,-2.2 -0.1,-3.6 c -1,-1.5 -2.9,-2.1 -3.4,-4.1 c -0.4,-1.6 -0,-6.8 -1.7,-7.9 c -1.9,-1.2 -14.1,-2.8 -17.1,-3.1 c -1.6,-0.1 -2.8,-0.1 -4,-1.4 c -0.5,-0.5 -1.3,-2.6 -1.7,-2.6 c -1.2,-0.1 -2.6,0.6 -3.8,0.7 c -0.9,0.1 -2.4,-0.6 -3.2,0 c -3.9,2.9 -4.9,6.6 -8.6,9.7 c -3.8,3.1 -8,3 -11.8,6.6 c -2.4,2.3 -4,7.8 -6.4,10.4 c -1,1.1 -2.6,-0 -3,0.5 c -2,2.7 -4.8,4.3 -6.8,6.8 c -0.4,0.5 -0.3,1.5 -0.8,1.9 l -4.3,1.2 c -1.1,0.2 -3.2,-0.1 -4.1,0.2 c -2,0.7 -1.9,3 -8.7,4.5 c -0.5,0.1 -1.4,0.6 -1.8,0.9 c -0.8,0.6 -1.4,1.5 -2.2,2.1 c -0.5,0.4 -2,-0.3 -2.9,-0.2 c -1.7,0.3 -2.7,1.9 -4.3,2.1 c -3.6,0.5 -9.4,-1.8 -12.2,-0.6 c -1.7,0.7 -6.4,6.4 -8.1,7 c -1.1,0.4 -1.9,-0.1 -3.1,-0.6 c -0.6,0.8 -2,7 -2.5,8.4 c -0,0.1 -7.7,7.1 -8.3,7.9 c -1,1.2 -1.4,2.5 -2.6,3.8 c -0.8,0.9 -2.1,1.7 -3.4,1.7 c -1.6,0 -4,-1.3 -5.5,-1.6 c -2.9,-0.5 -11.6,-0.9 -14.2,-0.3 c -2.7,0.6 -1.9,9 -8.6,9.8 c -3.9,0.5 -7.5,1.3 -11.5,1.7 c -0.4,0 -2.8,-1.8 -5.2,-1.1 c -0.9,0.3 -3.8,3.5 -3.8,4.5 l -0,1.8 c -0,0.3 0.8,1.4 0.7,1.5 c -1.5,1.9 -4.9,4.9 -6,7.1 c -0.3,0.6 -0.7,1.3 -1.2,1.7 c -0.9,0.7 -5.5,2.6 -5.9,3.5 c -1.1,3 3.2,5.8 2.8,7 c -1.2,3.9 -6,7.6 -7.5,11.2 c -0.6,1.5 1.6,6.5 1.5,8.2 c -0.5,4.7 -2,10.7 -1.8,15.3 c 0,0.9 0.6,5.6 0.9,6.1 c 0.5,0.9 1.6,1.4 2.3,2.2 c 0.7,0.8 6,12 6.2,13.2 c 1,8.3 -10.1,5.4 -3.7,13.7 c 1,1.3 1.8,2.7 2.9,3.8 c 1.4,1.5 9.6,8 9.7,8.7 c 0.2,1.2 -6.6,2.4 -7.8,3.7 c -3.2,3.4 -5.9,9.7 -9,13.2 c -1.9,2.2 -3.6,-0.2 -6.1,4.9 c -0.9,1.9 -0,6.2 -1.1,7.4 c -1.6,1.8 -2.9,-0.6 -4.5,0.2 c -0.7,0.3 -1.1,2.5 -1.8,3.1 c -1.8,1.7 -17.8,10.9 -19.3,10.1 c -0.8,-0.4 -1.7,-3.3 -1.8,-4.2 c -0.2,-1 -1.2,-3.2 -2,-3.9 c -4.1,-3.8 -10.4,-4.5 -14.4,0.1 c -1,1.2 -1.1,3 -2.4,4.2 c -2.2,2 -4.7,3.8 -6.8,5.8 c -0.4,0.4 -1.6,1.9 -2.1,1.8 c -1.6,-0.2 -5.5,-5 -6.5,-6.3 c -1.8,-2.3 -7,-7.8 -7.5,-10.4 c 0,-8.9 -6.4,-18.2 -9.1,-26.9 l 4,0.1 c 4.5,-3.3 3.2,-11.4 11.3,-8.2 c 1,-1.5 0.9,-3.1 2.8,-4.2 c 0.7,-0.4 2,-0.8 2.4,-1.5 c 2.7,-4.5 5.9,-21.7 3.1,-26.1 c -2.5,-4 -5.1,-3.8 -7.1,-10.4 c -0.6,-1.8 0.5,-3.9 -0,-5.9 c -0.4,-1.6 -3.1,-11.1 -3.5,-11.8 c -0.5,-0.8 -2.2,-1.8 -2.3,-2.3 c -0.1,-0.8 -0.7,-11.1 -0.4,-11.9 c -2.7,-8 -11.8,-13.1 -12.3,-14 c -1.1,-1.9 -2.2,-4.4 -3.4,-6.5 c -1.4,-2.5 -1.4,-3.8 -2.2,-6.2 c -0.3,-1.1 -1.8,-2 -1.9,-3.2 c -0.2,-2.1 5.3,-6.5 5.1,-10.2 c -0.1,-1.2 -3.5,-4.8 -2.8,-6.8 c 0.7,-2.1 4.2,-6.8 4.1,-9.1 c -0.2,-3.1 -5.5,-9.8 -6.2,-13.1 c -0.3,-1.6 2.1,-2.9 1.5,-4 c -0.7,-1.4 -6.3,-6.9 -7.2,-8.5 c -0.7,-1.2 2.1,-2.8 0.1,-5 c -1.8,-2 -0.3,-1.3 -0.8,-3 c -0.6,-1.9 -2.6,-3.6 -3.4,-5.6 c -0.7,-1.7 -5.5,-20.5 -5.4,-21.6 c -0.8,-1.3 -2.2,-2.4 -2.9,-3.7 c -0.7,-1.3 -1,-3.8 -1.6,-4.8 c -0.1,-0.1 -5.4,-1.8 -6.4,-3.5 c -0.8,-1.4 -1,-6 -2.4,-8.3 c -0.7,-1.1 -1.8,-0.9 -2.6,-1.7 c -0.7,-0.6 -0.6,-1.7 -1.1,-2.4 c -1.6,-2.4 -4.8,-0.2 -7,-9 c -2.9,-2.2 -5.6,-4.1 -8.1,-6.8 c -0.5,-0.5 -0.8,-1.1 -1.4,-1.4 c -2,-0.9 -5,-1.2 -6.7,-2.8 c -1,0 -6.3,-0.2 -6.9,-0.6 c -0.6,-0.4 -1.2,-2.9 -1.6,-3 c -2.8,-0.6 -7.4,-0.3 -9.8,-2.5 c -1.9,-1.8 -2.3,-10.5 -5.7,-9.3 c -0.4,-0.2 -0.9,-0.4 -1.4,-0.3 c -2.2,-3.1 -9.8,-3.5 -12.9,-5.5 c -0.9,-0.6 -3.8,-0.1 -3.8,-1 c 0.7,-1.7 0.5,-3.1 0.6,-4.8 c -1.7,-1.8 -2.8,-3.9 -4,-5.2 c -2.9,-0.7 -1.8,-1 -3.6,-2.2 c -5,-0.4 -5.5,0.5 -8.7,3.7 c -0.8,0.8 -2.4,1 -3.4,1.6 c -1.7,1 -2.2,4.3 -4.6,2.8 c -0.8,-0.5 -1.3,-1.3 -1.9,-1.9 c -1.4,-1.3 -2.2,-0.6 -2.9,-3 c -4.1,-2.4 -15.4,5.9 -18.1,0.1 c -1.9,-1.1 -3.3,0.3 -4.9,-1.5 c -0.8,-0.9 2.2,-10.9 -6,-15 c 1.9,-1.6 3.9,-2.7 5.7,-4.2 c 0.5,-1.1 -0.1,-2.8 -0.1,-3.9 c -0,-1.7 1,-5 0.7,-6.2 c -0.3,-1.2 -1.5,-2.2 -1.9,-3.6 c -0.5,-1.4 0.1,-3.2 -0.6,-4.7 c -0.5,-0.4 -2,-1.4 -2.6,-1.4 c -2.1,-1.9 -4.4,-3.1 -6.1,-5.4 c -0.4,-0.5 -0.7,-1.4 -1.2,-1.8 c -1.5,-1.2 -6.4,-2.8 -6.2,-5.3 c 0.1,-0.8 1.1,-0.9 1.4,-1.7 c 0.3,-1 0.1,-2.3 0.8,-3.2 c 2.3,-3.4 7.4,-1.9 6.6,-8.2 c -0.4,-2.8 -2.2,-5.2 -2.7,-8.2 c -0.9,-0.7 -1,-1.9 -1.8,-2.6 c -5,-0.5 -4.3,-6.1 -6.1,-7.4 c -5.3,-3.9 -9.4,-1.5 -3.5,-9.2 c 0.8,-2.5 -5.1,-6.5 -6.3,-7.9 c -2.1,-2.2 -1.1,-6.8 -1.9,-9.2 c -0.4,-1.2 -3.9,-3.3 -5,-5 c -0.3,-0.5 -1.2,-3.1 -1.7,-3.4 l 0.1,-0.8 c 1.1,-0.9 0.5,-2.7 0.2,-3.9 c -0.7,-0.7 -2.2,-0.5 -2.7,-1 c -4.8,-4.7 -10.6,-6.8 -16.9,-9.5 c -1.7,-0.7 -1.2,-2.2 -2.6,-2.9 c -1.2,-0.6 -9.7,-4.7 -10.3,-4.5 c -1,-0.3 -1.7,-4.4 -2.4,-5.7 c -0.6,-1.2 -3,-3.4 -3,-3.5 c 0.2,-3.8 -2,-4.3 -4.7,-6.3 c 0.2,-0.5 -0.3,-1.7 -0.3,-2.3 c -0,-0.5 1.8,-7.1 2.1,-8 c 0.5,-1.4 2.2,-2.7 1.9,-4.3 c -0.4,-2.5 -0.7,-6.4 -1.5,-8.6 c -2.7,-7.8 -5.9,-6.8 -4.2,-17 c 0.4,-2.1 -0.3,-3.3 1.2,-5.2 c -0.2,-0.1 0.7,-1.1 0.8,-1.3 c 0.9,-0.9 3.4,-2.4 3.9,-3.1 c 1.5,-2.2 2.4,-7.2 4.3,-8.8 c 1.4,-1.2 5.4,-3.5 6.1,-4.5 c 0.6,-0.8 1.5,-3.3 1,-4.3 c -1.4,-0.9 -2.8,-0.5 -4.2,-0.7 c -0.5,-0.1 -2.3,-1.5 -3.7,-1.8 c -0.4,-0.5 -1.1,-1.1 -1.1,-1.8 l -0.6,-0.6 c -1.6,-0.2 -3.4,-1.3 -4.8,-1.8 c -1.8,-0.8 -4.3,-0.9 -6,-2 c -3.2,-2 -6.8,-7.5 -9.9,-8.3 c -4.2,-1 -6.9,0.4 -10.9,0.6 c -2.6,0.2 -2.6,-1.5 -4.7,-2.2 c -2.8,-0.9 -0.7,1.6 -7.1,-0.6 c -0.8,-0.7 0.4,-3.1 0.5,-4 c -1,-0.3 -2.2,0.3 -3.4,-0 c -5.3,-1.4 -3.3,-6.6 -4.7,-10 c -0.6,-0.8 -2.8,-0.6 -3.8,-0.7 c -0.3,-0.1 -0.4,-0.6 -0.3,-0.8 l 0.5,-0.4 c 0.9,-1.5 -2.3,-5.3 -2.2,-5.8 c 0.2,-1.2 6.7,-2.3 7.6,-2.4 c 0.3,-0.9 -0.6,-1.7 -0.7,-2.6 c -0.2,-2 1,-4.6 1.6,-6.4 l -0.2,-0.6 c -1.8,-1.1 -2.4,-2.7 -4,-4 c 0.1,-0.9 1.2,-1.5 1.4,-2.4 c 3.1,-9.3 7.9,-1.9 12.1,-10.5 c 0.4,-0.8 1.6,-2.9 2,-4.3 l 0.8,-0.2 c 0.8,0.2 1.9,0.9 2.7,0.6 c 0.6,-0.9 1.9,-1.2 2.9,-1.5 l 1.5,0.4 c 7.8,-1.8 6,-4.9 10.5,-8.4 c 1.2,-0.9 4.7,-1.3 6.3,-1.9 c 1.7,0.8 4.1,3.7 7.3,5 c 2.3,1 10.2,2.8 11.5,3.6 c 1.7,1 2,3.4 3.5,4.3 c 4.5,2.6 1.9,-1.8 6.2,-0.9 c 4.4,1 8,4.9 12.1,6.8 c 0.7,0.3 2.4,-0.1 3.2,-0.3 c 1.3,-0.3 8.3,-1.7 9,-1.4 c 0.8,0.3 2,1.1 2.8,1.3 c 1,0.2 1.8,-2.1 2.5,-2 c 3,0.5 3.1,1.8 7.1,1.4 c 0.2,-0 2.1,-12.2 4,-12.8 c 1.1,-0.3 4.1,2.9 5,3.1 c 1.5,0.4 -0.1,-2.5 -0.2,-2.7 c -0.4,-1 -2.5,-8.5 -2.4,-9.2 c 0.1,-0.4 2,0.6 2.9,0.3 c 2.2,-0.8 5.2,-1.4 6.8,-3.3 c 0.2,-0.2 3.6,-5.5 3.7,-5.7 c 0.2,-0.9 -0.9,-3 -0.4,-3.7 c 0.5,-0.6 2.4,-1.4 3.3,-2.4 c 1.3,-1.4 1.5,-3.8 3.3,-4.8 c 7.1,-0.7 9.6,-6.7 16,-7.5 c 0.4,-0 1.8,-0.3 2.1,-0.2 l 1.3,2.3 c 0.4,0.6 4.7,3.4 5.4,3.2 c 0.6,-0.1 0.9,-1.2 1.5,-1.4 c 1.3,0.2 4.9,-2.2 5.3,-3.4 c 0.1,-0.2 -0.8,-1.4 -0.4,-2.2 c 0.3,-0.6 4.8,-4.2 5.5,-4.6 c 1.6,-0 3.3,-0.4 4.8,0.2 c 0.9,0.4 1,1.9 2,2.1 c 1.1,0.1 3.1,-0.4 3.9,-0.2 c 0.9,0.2 1.3,-1.8 2.4,-1.9 z"/>
  <defs>
    <polygon id="star" points="0,-513674 301930,415571 -488533,-158734 488533,-158734 -301930,415571" fill="#fff" transform="scale(0.00007008336)"/>
  </defs>
  <g id="h" transform="translate(320,-10),scale(0.8,0.8)">
    <use xlink:href="#star" transform="translate(41.835,121.826)"/>
    <use xlink:href="#star" transform="translate(124.233,136.356)"/>
    <use xlink:href="#star" transform="translate(202.857,164.972)"/>
  </g>
  <use xlink:href="#h" transform="translate(640,0),scale(-1,1)"/>
</svg>
