<svg xmlns="http://www.w3.org/2000/svg" id="flag-icon-css-zm" width="640" height="480">
  <defs>
    <clipPath id="a">
      <path fill-opacity=".67" d="M-170.67 0H512v512h-682.67z"/>
    </clipPath>
  </defs>
  <g fill-rule="evenodd" clip-path="url(#a)" transform="translate(160) scale(.9375)">
    <path fill="#198a00" d="M-256 0h768v512h-768z"/>
    <path fill="#ef7d00" d="M421.87 183.94H512v328.03h-90.13z"/>
    <path d="M331.85 183.78h90.03v328.1h-90.03z"/>
    <path fill="#de2010" d="M239.95 183.98h91.94V512h-91.94z"/>
    <g fill="#ef7d00" stroke="#000">
      <path stroke-linejoin="round" stroke-width=".99" d="M451.61 65.59s33.92-14.5 37.2-17.48c1.5 1.8-13.6 20.02-42.88 26.74 26.6-6.27 49.3-26 53.94-25.4 1.34.3 1.05 19.28-59.91 35.71 42.13-11.05 66.63-31.37 66.34-29.13.3.45-4.19 15.98-41.1 28.09 10.32-2.4 38.26-19.43 37.96-16.14.9 1.35-27.05 37.2-77.54 25.55 40.34 10.46 66.48-14.8 70.22-14.34.75.15-7.47 22.1-58.27 23.45 24.35-2.54 17.33-.15 17.33-.15s-14.34 11.2-31.68 3.59c13.6 3.74 15.1 3.89 15.4 5.08-.9 1.5-12.1 3.74-22.87-2.1 8.67 3.6 16.44 4.2 16.59 5.54-.15.44-5.68 3.58-10.6 1.34-4.94-2.24-50.36-30.18-50.36-30.18l77.4-21.22 2.83 1.05zm-90.99 75.58c-6.8 0-7 6.05-7 6.05s-.55.44-.18 3.38c1.13-2 1.69-2.63 1.69-2.63.75.13 3.87 1.07 8.8-2.8-4.5 4.68-1.8 6.43-1.8 6.43s-1.07 3.68 2.36 4.43c-1.06-1.5-.43-2.81-.43-2.81s4.8-.5 4.5-6.37c.18 5.3 3.05 6.62 3.05 6.62s0 2.93 3.12 3.18c-1.68-1.5-1.3-3.8-1.3-3.8s4.05-2.94.62-7.94c2.06-1.18 3.74-4.5 3.74-4.5s-2.8-1.18-4.12-2.18c-.62-1.3-.06-8.49-.06-8.49l-1.69-9.3-4.8 14.48c.18-2.06.3 6.25-6.5 6.25z"/>
      <path stroke-linejoin="round" stroke-width=".99" d="M394.24 120.27c.15.15 5.08 5.68 9.86 5.38 1.79-1.5-3.74-4.78-3.74-5.53 1.95 1.8 10.16 8.82 15.4 6.28 2.08-3-3.74-2.54-10.17-10.61 4.48 2.99 15.69 9.56 20.92 7.02 2.24-2.39-11.65-9.86-16.29-15.69L398.27 101 382 114.3l12.25 5.97z"/>
      <path stroke-linecap="round" stroke-linejoin="round" stroke-width=".99" d="M375.86 74.85s5.53-3.28 27.64-1.64c2.39.3 15.09-4.33 19.12-5.68 6.43-1.2 26.9-5.68 32.43-9.86 3.88-.45-1.05 7.17-5.98 8.96-5.23 2.4-24.2 8.97-30.93 8.07 8.07.15 3.59 6.73-9.86 3.59 6.42 3.59 4.03 4.18 4.03 4.18s-11.35.6-14.34-1.94c7.62 2.84 4.48 3.89 4.48 3.89s-7.77.74-11.35-.9c5.53 1.64 2.69 2.69 2.69 2.69s-4.49.75-8.22-.6c-3.74-1.34-9.41-10.76-9.71-10.76z"/>
      <path stroke-linejoin="round" stroke-width=".99" d="M384.72 123.37l.81 14.61s-.43.75-.8 1.19c-.38.44-10.37-1.56-9 6.06 0 3.12.06 3.93 2.19 5.68-.57-2.06-.38-3.5-.38-3.5s2.81 1.69 5.56-2.93c-1.87 4.55-.56 6.18-.13 6.3.44.81-.74 4.5 3 4.43-1.43-1.37-.75-3.37-.75-3.37s3.94-.62 2.56-7.74c1.44-1.44 2-.06 2-.06s.44 4.24 3.87 3.37c1.56.87-.25 3.18-.25 3.18s2.5.07 3.25-2.06c.75-2.12 1.62-5.93-2.5-7.49-.5-1.5 1.63-1.62 1.63-1.62s2.62.87 3.37 2.18.5-3.43-2.75-3.93c-4-.13-4.25-.94-4.25-1.12 0-.2-.68-10.62-1-13.62l-6.43.44z"/>
      <path stroke-linecap="round" stroke-linejoin="round" stroke-width="1.06" d="M398.63 135.82c.05-.67-6.82-9.91-5.08-11.11 1.74.36 4.6 4.56 6.91 3.2-.7-1.64-2.77-.72-5.11-4.91-2.35-4.75-2.7-11.87-10.91-19.64 5.32 8.22 17.39 13.04 17.9 10.65s-10.63-11.46-10.06-13.65c2.22 4.49 13.4 14.48 21.64 13.65.57-1.92-6.75-5.8-8.63-9.43-5.26-3.54-19.35-15.68-19.63-18.5-5.13-7.47-8.33-9.73-9.82-10.6-.57-.67-.72-1.32-.83-1.73-3.18-7.5 1.03-9.94 3.5-10.3 2.03-.23 2.62.08 4.08-.63-1.73-.68-3.46-1.3-5.19-1.99 2.26 1.66 8.02.2 6.77 4.97 2.52-.96 7.9-7.36-6.1-8.8-4.54-5.22-23.26-8.22-27.95 14.57.38.32.57.58 1.76 1.47-5.91-2.86-21.86-5.07-27.6-6-15.53-4.47-31.65-15.27-33.2-13.94-2.07.92 9.38 11.58 8.79 11.81-9.93-5.79-19-9.89-27.45-13.62-5.93-2.22-11.88-7.4-12.54-6.4-2.18 4.52 9.52 15.9 11.7 17.24 2.18 1.28 19.3 9.22 19.05 9.32-25.8-11.7-30.12-13.83-31.41-15.18-2.28-.51-7.81-7.99-9.36-7.5-.84.82.85 12.64 13.16 17.94 2 1.46 26.39 10.2 26.15 10.9-.06.17-27.92-11.5-29-11.92-5.38-2.1-11.97-9.5-13.2-8.66-1.18.75 3.04 8.74 8.46 11.25 2.85 1.26 13.76 6.66 23.6 10.1.62.23-17.68-6.94-26.48-10.62-3.99-2.21-5.87-4.97-6.47-4.38-.9.6 1.45 12.4 29.72 19.06.75.32 9.96-2.18 9.5-1.85-.11.09-9.14 2.05-10.02 1.98-.78-.12-5.73.6-5.82.85-.3.8 1.8 5.02 16.4 4.14 1.86-.11 11.99-3.69 11.14-2.92-.43.39-13.8 4.73-14.81 4.82-.89.12-5.58.61-5.76 1.11-.21.68 3.48 3.7 11.32 4.17 6.94.37 20.13-4.24 19.87-3.94-.27.3-12.72 4.57-13.05 4.83-.45.25-5 .5-5.17.85-.37.87 6.58 7.37 27.13.43-2.06 2.8-12.02 4.7-12 5.2-.06.36 2.18 2.53 5.67 3.3 1.74.4 4.12.31 6.3-.03 3.91-.78 8.03-2.33 13.27-7.17.63 1.52-13.08 8.45-12.44 9.12 2.97 2.75 12.85-.36 13.5-.72.64-.36 19.01-10.72 18.95-11.92.28 1.54-23.68 14.56-23.42 15.1 1.53 2.45 9.72-.14 10.11-.36.4-.23 10.45-5.66 10.73-5.82.27-.16-11.82 7.08-10.75 8.18-.52 4.7 18.9-3.24 20.41-4.23.76-.5-9.32 4.43-9.35 6.77 3.25 5.5 13.65 3.75 15.25 2.55.8-.6-.94 4.07-.38 3.65.2-.09 2.26-2.53 3.06-4.3-.26 1.53-1.4 3.95-2.06 6.72-.67 2.78-.86 5.9-1.77 9.23-.21 1.46 6.4-2.85 5.44-13.17.57 5.37-2.09 15.4-1.39 15.92 1.39 1.04 5.23-5 5.62-9.08 1.14 2.06 3.54 6.37 5.6 7.36-.23-3.12.04-2.98-.89-6.05.54-4.07.61-9.7.74-16.07 5.6 10.73 7.83 15.26 6.27 23.47 1.66.7 4.32-5.73 4.1-9.04 2.15 9.2 11.38 10.57 11.52 10.3z"/>
      <path stroke-linecap="round" stroke-linejoin="round" stroke-width="1.06" d="M305.36 67.72s-3.82 2.88-8.56 2.71c1.19 4.74 11.01 1.1 11.01 1.1s-4.74 5.25-8.13 6.1c2.03 1.7 10.59 1.1 12.03.25 1.44-.84 3.98-4.15 3.98-4.15s-8.81 10.17-10.08 10.08c-.17 1.19 9.23.76 11.18-1.02 1.95-1.78 6.86-4.4 6.86-4.4s-12.87 8.98-13.47 8.98c4.83 1.27 14.49-1.53 20.67-5.34-9.15 6.1-10 7.2-14.65 9.23 4.15.93 6.27 3.73 20.33-2.37 8.04-3.8 12.61-10.75 12.61-10.75-5 6.69-12.87 12.36-21.6 17.95-.5 1.02 9.32 5.17 21.86-7.88"/>
      <path stroke-linecap="round" stroke-width="1.06" d="M373.45 96s.85 3.99 4.24 7.04c3.38 3.04 3.64 6 3.64 6m-9.57-38.95s1.19 3.56 4.66 5.84c3.55 2.3 8.9 9.49 9.31 10.76.41 1.54 2.46 12.62 2.3 13.8m-37.87-24.9c.26 1.36-5 8.22 2.2 16.27-6.52 7.96-6.52 8.97-6.52 8.97s3.64 2.04 10.17-3.55c10.75 13.21 7.17 19.26 7.17 19.26"/>
      <path stroke-linecap="round" stroke-linejoin="round" stroke-width="1.06" d="M362.32 107.21s-.99-1.42.78-6.72c1.59 1.92 3.36 2.33 4.13 3.1.78.78 8.9 1.95 9.41 7.38"/>
      <path stroke-width="1.06" d="M371.86 57.46c0-.4-1.63-3.9-7.73.48 3.27.2 6.5 2.07 7.73-.48z"/>
      <path stroke-linejoin="round" stroke-width="1.06" d="M430.1 73.5c.3.16 18.22 4.04 24.2 2.1-7.62 10.16-22.86 3.29-22.86 3.29 7.47 2.24 7.77 2.09 10.16 4.18.75 1.94-13.75 1.05-18.53-1.64 13.3 4.18 13.6 3.88 14.05 5.52.6 2.25-21.82-.6-23.76-3.58 5.98 4.63 9.26 5.53 12.55 7.62-4.03 1.8-11.5 3.59-25.25-6.13 18.08 16.44 34.36 15.4 36.9 18.38-6.27 9.26-30.63-5.53-41.83-13s24.5 18.08 27.8 17.63c-1.65 2.54-13.46.3-14.2-.9"/>
      <path stroke-linecap="round" stroke-width="1.06" d="M434.73 90.69c-2.1.3-8.37.3-9.26.15"/>
      <path stroke-linecap="round" stroke-linejoin="round" stroke-width="1.06" d="M300.1 65s13.64 7.2 19.4 6.7c-1.52 1.44-3.81 2.03-3.81 2.03 1.44.6 5.42 2.71 11.43 1.36-1.44 1.44-3.3 3.05-3.3 3.05s5.17 1.94 11.01-1.1c-1.78 2.2-2.8 3.8-2.8 3.8l4.07.26"/>
    </g>
  </g>
</svg>
