<svg xmlns="http://www.w3.org/2000/svg" height="480" width="640">
    <g fill-rule="evenodd" clip-path="url(#a)">
        <path fill="#198a00" d="M-80 0h720v480h-720z"/>
        <path fill="#ef7d00" d="M555.503 172.444h84.493v307.528h-84.493z"/>
        <path d="M471.109 172.294h84.402v307.594h-84.402z"/>
        <path fill="#de2010" d="M384.953 172.481h86.189v307.519h-86.189z"/>
        <g stroke="#000" fill="#ef7d00">
            <path d="M583.151 61.458s31.776-13.578 34.855-16.378c1.4 1.68-12.738 18.757-40.175 25.057 24.917-5.879 46.194-24.357 50.534-23.797 1.26.28.979 18.058-56.133 33.456 39.475-10.359 62.432-29.396 62.152-27.297.28.42-3.919 14.978-38.495 26.317 9.659-2.24 35.835-18.198 35.555-15.118.84 1.26-25.337 34.855-72.648 23.937 37.795 9.799 62.292-13.859 65.791-13.439.7.14-7 20.717-54.593 21.977 22.818-2.379 16.238-.14 16.238-.14s-13.439 10.499-29.676 3.36c12.738 3.5 14.138 3.639 14.418 4.759-.84 1.399-11.338 3.5-21.417-1.96 8.118 3.359 15.398 3.92 15.537 5.18-.14.419-5.319 3.359-9.938 1.26-4.619-2.1-47.174-28.277-47.174-28.277l72.508-19.878 2.659.98z"/>
            <path d="M497.904 132.268c-6.376 0-6.552 5.674-6.552 5.674s-.526.41-.175 3.16c1.053-1.873 1.58-2.458 1.58-2.458.702.117 3.627.995 8.248-2.632-4.212 4.387-1.696 6.025-1.696 6.025s-.995 3.452 2.222 4.154c-.994-1.404-.409-2.633-.409-2.633s4.504-.468 4.212-5.967c.176 4.972 2.867 6.2 2.867 6.2s0 2.749 2.925 2.984c-1.579-1.404-1.228-3.569-1.228-3.569s3.803-2.749.585-7.43c1.931-1.112 3.51-4.212 3.51-4.212s-2.632-1.112-3.861-2.047c-.586-1.229-.059-7.957-.059-7.957l-1.58-8.717-4.505 13.573c.175-1.931.292 5.85-6.084 5.85z"/>
            <path d="M529.398 112.689c.14.14 4.76 5.32 9.239 5.04 1.679-1.399-3.5-4.479-3.5-5.179 1.82 1.68 9.519 8.259 14.419 5.879 1.959-2.8-3.5-2.379-9.519-9.939 4.199 2.8 14.698 8.959 19.598 6.579 2.1-2.24-10.919-9.239-15.258-14.698l-11.198-5.739-15.258 12.459 11.479 5.599z"/>
            <path d="M512.178 70.137s5.179-3.08 25.896-1.54c2.24.28 14.138-4.059 17.918-5.319 6.019-1.12 25.196-5.319 30.376-9.239 3.639-.42-.981 6.719-5.599 8.399-4.9 2.24-22.677 8.399-28.977 7.559 7.559.14 3.36 6.299-9.239 3.36 6.02 3.36 3.78 3.919 3.78 3.919s-10.638.56-13.438-1.82c7.139 2.66 4.199 3.64 4.199 3.64s-7.279.7-10.639-.84c5.179 1.54 2.52 2.52 2.52 2.52s-4.199.7-7.699-.56c-3.499-1.26-8.819-10.078-9.098-10.078z"/>
            <path d="M520.484 115.593l.761 13.689s-.41.702-.761 1.112c-.351.409-9.711-1.463-8.424 5.674 0 2.925.059 3.685 2.048 5.324-.527-1.931-.351-3.276-.351-3.276s2.632 1.58 5.206-2.749c-1.755 4.27-.527 5.791-.117 5.909.41.761-.701 4.212 2.808 4.153-1.345-1.287-.701-3.159-.701-3.159s3.685-.584 2.398-7.254c1.346-1.346 1.872-.059 1.872-.059s.409 3.978 3.627 3.159c1.463.819-.234 2.983-.234 2.983s2.34.059 3.042-1.931c.702-1.989 1.521-5.557-2.34-7.02-.468-1.404 1.522-1.521 1.522-1.521s2.457.819 3.158 2.047c.702 1.228.468-3.217-2.574-3.685-3.744-.117-3.978-.877-3.978-1.053 0-.176-.644-9.945-.936-12.753l-6.026.409z"/>
            <path d="M533.509 127.256c.046-.628-6.387-9.289-4.755-10.409 1.631.336 4.307 4.275 6.474 2.997-.657-1.536-2.593-.671-4.792-4.602-2.198-4.444-2.519-11.116-10.218-18.393 4.984 7.701 16.291 12.215 16.77 9.97s-9.956-10.737-9.422-12.783c2.075 4.203 12.553 13.567 20.273 12.792.529-1.803-6.322-5.442-8.085-8.839-4.931-3.313-18.128-14.689-18.393-17.326-4.802-7.004-7.8-9.123-9.196-9.93-.54-.636-.675-1.243-.78-1.629-2.981-7.028.967-9.31 3.279-9.648 1.902-.211 2.454.073 3.823-.589l-4.861-1.861c2.113 1.55 7.51.185 6.34 4.649 2.366-.9 7.401-6.89-5.706-8.242-4.265-4.893-21.803-7.706-26.192 13.651.35.299.534.545 1.649 1.378-5.542-2.678-20.479-4.748-25.861-5.618-14.546-4.196-29.651-14.309-31.103-13.065-1.942.861 8.787 10.844 8.229 11.065-9.303-5.424-17.802-9.267-25.71-12.765-5.564-2.079-11.136-6.921-11.751-6-2.047 4.241 8.92 14.904 10.96 16.157 2.04 1.2 18.085 8.643 17.849 8.735-24.166-10.969-28.218-12.958-29.43-14.222-2.13-.48-7.319-7.485-8.765-7.035-.792.778.796 11.847 12.328 16.816 1.88 1.37 24.719 9.563 24.495 10.205-.056.161-26.159-10.774-27.173-11.165-5.033-1.974-11.208-8.891-12.362-8.113-1.102.706 2.847 8.193 7.932 10.541 2.666 1.176 12.89 6.24 22.102 9.463.588.213-16.558-6.502-24.802-9.947-3.738-2.075-5.498-4.66-6.067-4.104-.842.556 1.361 11.617 27.852 17.858.698.297 9.325-2.044 8.899-1.733-.107.078-8.567 1.919-9.39 1.856-.733-.112-5.368.549-5.452.789-.28.748 1.679 4.708 15.357 3.883 1.749-.105 11.238-3.456 10.441-2.735-.399.361-12.922 4.43-13.876 4.51-.828.117-5.228.577-5.39 1.045-.199.638 3.256 3.457 10.602 3.908 6.504.346 18.862-3.974 18.614-3.694-.248.28-11.913 4.277-12.219 4.521-.422.239-4.694.47-4.844.799-.348.816 6.162 6.904 25.416.407-1.934 2.613-11.266 4.399-11.253 4.87-.043.341 2.056 2.37 5.319 3.096 1.631.363 3.865.289 5.905-.034 3.664-.734 7.527-2.183 12.433-6.718.586 1.423-12.258 7.923-11.655 8.543 2.785 2.583 12.036-.333 12.642-.671.607-.339 17.815-10.043 17.756-11.166.267 1.439-22.186 13.64-21.944 14.14 1.441 2.3 9.112-.121 9.478-.332.366-.211 9.789-5.301 10.047-5.451.258-.15-11.074 6.632-10.065 7.665-.488 4.404 17.698-3.04 19.123-3.967.713-.463-8.736 4.154-8.761 6.348 3.043 5.144 12.785 3.512 14.288 2.381.752-.566-.884 3.822-.357 3.423.184-.082 2.119-2.371 2.863-4.027-.237 1.437-1.305 3.701-1.929 6.299-.624 2.598-.803 5.53-1.659 8.644-.196 1.368 6.003-2.675 5.103-12.339.53 5.027-1.958 14.427-1.307 14.916 1.302.977 4.903-4.681 5.267-8.508 1.069 1.933 3.313 5.967 5.244 6.896-.21-2.924.037-2.79-.832-5.664.501-3.815.571-9.096.692-15.058 5.246 10.05 7.339 14.294 5.873 21.99 1.56.651 4.052-5.372 3.851-8.472 2.003 8.613 10.65 9.905 10.788 9.654z"/>
            <path d="M446.126 63.454s-3.571 2.698-8.014 2.539c1.111 4.444 10.316 1.032 10.316 1.032s-4.444 4.92-7.618 5.713c1.904 1.587 9.919 1.032 11.268.238 1.349-.794 3.729-3.888 3.729-3.888s-8.252 9.522-9.443 9.443c-.159 1.111 8.65.714 10.475-.952 1.825-1.666 6.427-4.126 6.427-4.126s-12.061 8.411-12.617 8.411c4.523 1.19 13.569-1.428 19.362-4.999-8.57 5.713-9.363 6.745-13.728 8.649 3.889.873 5.872 3.492 19.044-2.222 7.538-3.571 11.823-10.078 11.823-10.078-4.681 6.269-12.061 11.585-20.234 16.822-.477.952 8.728 4.84 20.472-7.38"/>
            <path d="M509.924 89.955s.794 3.729 3.967 6.586c3.175 2.856 3.413 5.634 3.413 5.634"/>
            <path d="M508.339 65.675s1.111 3.333 4.364 5.475c3.333 2.142 8.333 8.887 8.729 10.078.384 1.441 2.301 11.823 2.142 12.934"/>
            <path d="M488.104 70.833c.238 1.27-4.682 7.697 2.063 15.235-6.11 7.458-6.11 8.411-6.11 8.411s3.412 1.904 9.522-3.333c10.077 12.379 6.719 18.044 6.719 18.044"/>
            <path d="M499.495 100.453s-.928-1.33.727-6.295c1.49 1.795 3.147 2.178 3.874 2.905.726.727 8.335 1.828 8.819 6.913"/>
            <path d="M508.437 53.844c0-.374-1.532-3.661-7.248.448 3.064.187 6.089 1.943 7.248-.448z"/>
            <path d="M562.993 68.877c.28.14 17.078 3.78 22.677 1.96-7.139 9.519-21.417 3.08-21.417 3.08 6.999 2.1 7.279 1.96 9.519 3.919.7 1.82-12.878.98-17.358-1.54 12.459 3.919 12.738 3.64 13.159 5.179.56 2.1-20.437-.56-22.257-3.36 5.599 4.339 8.679 5.179 11.759 7.139-3.78 1.68-10.779 3.359-23.657-5.739 16.938 15.398 32.196 14.418 34.576 17.218-5.879 8.679-28.697-5.179-39.195-12.179-10.499-6.999 22.957 16.938 26.037 16.517-1.54 2.379-12.599.28-13.299-.84"/>
            <path d="M567.334 84.975c-1.959.28-7.839.28-8.678.14"/>
            <path d="M441.206 60.914s12.775 6.745 18.171 6.269c-1.428 1.349-3.571 1.904-3.571 1.904 1.349.555 5.079 2.539 10.713 1.27-1.349 1.349-3.095 2.857-3.095 2.857s4.841 1.825 10.316-1.032c-1.666 2.063-2.619 3.571-2.619 3.571l3.809.238"/>
        </g>
    </g>
</svg>
