<?xml version="1.0" encoding="utf-8"?>
<!-- Generator: Adobe Illustrator 15.0.2, SVG Export Plug-In . SVG Version: 6.00 Build 0)  -->
<!DOCTYPE svg PUBLIC "-//W3C//DTD SVG 1.1//EN" "http://www.w3.org/Graphics/SVG/1.1/DTD/svg11.dtd">
<svg version="1.1" id="Layer_1" xmlns="http://www.w3.org/2000/svg" xmlns:xlink="http://www.w3.org/1999/xlink" x="0px" y="0px"
	 width="640px" height="480px" viewBox="0 0 640 480" enable-background="new 0 0 640 480" xml:space="preserve">
<g>
	<path fill="#D0103A" d="M0,0h640v480H0V0z"/>
	<path fill="#FEDF00" d="M0,0h435.2v480H0V0z"/>
	<path fill="#0018A8" d="M0,0h204.8v480H0V0z"/>
	<path fill="#C7B37F" d="M300.397,136.627c7.712,0,10.866,6.616,18.578,6.616c4.76,0,7.538-1.555,11.687-3.896
		c2.895-1.64,4.743-2.514,8.068-2.514c3.403,0,5.489,1.029,7.231,3.946c0.984,1.652,1.8,4.884,1.368,6.737
		c-0.82,3.516-1.325,5.044-2.727,8.29c-0.668,1.56-1.299,2.495-1.299,4.202c0,4.093,5.57,5.5,9.358,5.558
		c0.826,0.014,7.771,0.127,12.042-4.2c-2.32-0.1-4.913-1.896-4.913-4.214c0-2.624,1.844-4.399,4.343-5.156
		c0.476-0.137,1.284,0.283,1.715,0.057c0.609-0.316,0.322-1.003,0.865-1.433c1.244-0.994,2.053-1.615,3.647-1.615
		c1.04,0,1.649,0.146,2.487,0.746c0.439,0.316,0.603,0.71,1.146,0.71c1.142,0,1.708-0.726,2.85-0.726
		c0.927,0,1.493,0.125,2.308,0.543c0.678,0.351,0.662,1.503,1.432,1.503c0.385,0,2.42-0.827,3.48-0.827
		c2.207,0,3.384,0.8,4.81,2.472c0.384,0.453,0.63,1.368,1.021,1.368c0.787,0,2.602,0.507,3.732,1.638
		c0.486,0.486,0.702,0.716,1.075,1.304c0.26,0.42,0.66,1.44,1.12,1.617c0.538,0.208,0.99,0.168,1.697,0.623
		c1.618,1.036,2.86,2.983,2.804,4.87c-0.021,0.633-0.311,1.516-0.48,2.12c-1.883,6.58-6.362,8.67-10.886,14.323
		c-1.923,2.409-3.439,4.33-3.439,7.418c0,0.747,0.92,2.113,1.325,2.735c-0.248-1.45,0.415-3.232,1.948-3.315
		c2.1-0.113,3.725,1.483,4.007,3.563c0.056,0.487-0.125,1.327-0.332,1.824c1.13-0.746,2.62-1.25,3.979-1.41
		c0.735-0.078,1.159-0.1,1.907-0.082c3.356,0.083,7.062,1.97,9.31,3.88c6.88,5.845,7.71,14.396,7.336,16.771
		c-0.835,5.277-0.31,14.828-13.8,18.636c2.496,1.05,4.193,2.927,4.193,5.234c0,2.51-1.925,4.66-4.435,4.66
		c-1.437,0-2.433-0.353-3.438-1.358c-2.805,2.804-3.347,5.665-3.347,9.634c0,2.375,0.453,3.777,1.448,5.926
		c1.052,2.273,1.81,3.607,3.71,5.247c1.006-1.516,2.069-2.625,3.89-2.625c1.765,0,3.258,0.566,3.98,2.172
		c0.215,0.486,0.023,0.883,0.271,1.357c0.316,0.61,0.849,0.746,1.176,1.357c0.511,0.939,0.011,1.741,0.453,2.715
		c0.282,0.633,0.904,0.724,1.176,1.356c0.43,0.973,0.543,1.641,0.543,2.714c0,3.009-2.737,5.157-5.745,5.157
		c-0.905,0-1.402-0.361-2.308-0.271c1.721,1.72,3.03,2.466,4.344,4.524c1.899,2.975,2.375,5.09,2.804,8.595
		c0.08,0.654,0.09,1.05,0.09,1.718c0,4.5-0.7,7.192-2.713,11.218c-1.924,3.855-3.563,5.994-7.058,8.504
		c-5.45,3.924-9.42,5.055-16.014,6.333c-4.229,0.814-6.649,1.176-10.947,1.447c-5.496,0.35-8.629,0.361-14.113,0.724
		c-7.193,0.486-12.18,1.504-17.28,6.604c2.408,1.764,4.07,3.493,4.07,6.47c0,3.052-1.888,5.233-4.794,6.196
		c-0.68,0.226-1.176,0.021-1.811,0.361c-0.757,0.396-0.723,1.266-1.447,1.719c-1.279,0.814-2.273,0.995-3.8,0.995
		c-2.691,0-4.523-0.634-6.424-2.534c-2.206,1.832-2.952,3.484-5.43,4.887c-0.813,0.451-1.23,1.085-2.17,1.085
		c-1.48,0-2.16-0.938-3.347-1.811c-1.89-1.38-2.896-2.295-4.434-4.069c-2.25,1.346-3.63,2.442-6.243,2.442
		c-1.605,0-2.623-0.227-3.979-1.086c-0.713-0.439-0.826-1.097-1.538-1.538c-0.747-0.464-1.37-0.294-2.172-0.633
		c-3.02-1.3-4.976-3.54-4.976-6.83c0-2.884,1.82-4.716,4.433-5.926c-5.01-5.01-9.94-5.88-17.008-6.333
		c-5.462-0.351-8.572-0.362-14.023-0.724c-4.332-0.295-6.74-0.735-11.04-1.447c-3.244-0.532-5.167-0.7-8.14-2.08
		c-10.235-4.773-16.76-11.32-18.095-22.528c-0.113-0.96-0.09-1.515-0.09-2.487c0-5.835,2.295-9.397,6.423-13.525
		c-1.063-0.25-1.774,0.103-2.805-0.27c-2.578-0.94-4.433-2.728-4.433-5.476c0-1.017,0.046-1.695,0.543-2.578
		c0.35-0.623,1.018-0.747,1.176-1.447c0.203-0.929-0.07-1.584,0.36-2.443c0.284-0.578,0.815-0.69,1.087-1.268
		c0.893-1.854,2.013-3.348,4.07-3.348c1.765,0,2.896,0.928,3.8,2.443c1.72-0.792,2.194-2.08,3.167-3.71
		c1.617-2.702,2.352-4.59,2.352-7.734c0-2.193-0.215-3.483-0.904-5.563c-0.498-1.493-0.702-2.511-1.81-3.62
		c-1.006,1.007-2.002,1.357-3.438,1.357c-2.872,0-5.065-2.465-5.065-5.338c0-2.137,1.052-3.72,2.985-4.613
		c-1.55-1.334-2.895-1.447-4.614-2.533c-2.613-1.65-3.53-3.393-5.248-5.97c-1.12-1.687-1.413-2.862-1.99-4.796
		c-0.69-2.329-1.086-3.72-1.086-6.151c0-0.633,0.012-1.007,0.09-1.63c0.645-4.907,1.528-7.983,4.615-11.851
		c1.833-2.296,3.077-3.71,5.79-4.885c2.308-0.995,3.687-1.72,6.198-1.72c0.758,0,1.2,0,1.945,0.092
		c1.154,0.146,1.89,0.25,2.895,0.813c0.385,0.216,1.086,0.86,1.086,0.407c0-0.52-0.272-0.79-0.272-1.31
		c0-2.082,1.493-3.982,3.574-3.982c1.504,0,2.115,1.324,2.85,2.625c0.476-0.792,0.724-1.335,0.724-2.262
		c0-3.438-1.844-5.19-3.98-7.87c-4.66-5.825-10.496-8.55-10.496-16.014c0-2.229,1.075-3.744,2.986-4.887
		c0.554-0.327,1.3,0,1.842-0.347c0.463-0.294,0.41-0.893,0.704-1.368c0.464-0.735,0.874-1.052,1.52-1.616
		c1.062-0.928,1.995-0.65,3.17-1.465c0.59-0.407,0.728-0.937,1.18-1.479c1.312-1.583,2.49-2.347,4.56-2.347
		c1.04,0,1.623,0.006,2.585,0.388c0.328,0.126,0.94,0.62,1.021,0.524c0.208-0.25,0.77-0.844,1.437-1.159
		c0.87-0.42,1.225-0.58,2.196-0.58c1.108,0,1.835,0.62,2.943,0.62c0.407,0,0.5-0.406,0.83-0.62c0.983-0.668,1.55-1.045,2.748-1.045
		c1.153,0,1.79,0.38,2.763,1.003c0.916,0.576,1.048,1.35,1.986,1.892c0.52,0.305,0.96,0.17,1.538,0.362
		c2.58,0.859,4.525,2.578,4.525,5.292c0,1.47-0.35,2.52-1.448,3.481c-0.87,0.771-1.696,0.634-2.804,0.995
		c3.596,2.872,6.725,3.585,11.316,3.585c4.206,0,9.35-1.72,9.35-5.926c0-1.957-1.08-3.008-1.85-4.806
		c-1.38-3.2-2.128-5.083-2.128-8.566c0-2.76,0.3-4.433,1.907-6.672c1.65-2.307,3.667-2.845,6.505-2.845L300.397,136.627z"/>
	<path fill="none" stroke="#703D29" stroke-width="0.666" stroke-linejoin="round" d="M272.378,159.014
		c0.276,1.045,1.12,2.023,2.444,2.437c0.796,0.25,2.638,0.15,3.832-1.393c0.968-1.25,0.894-2.8,0.532-4.03
		c-0.234-0.796-0.877-1.564-1.726-2.22l-5.08,5.157L272.378,159.014L272.378,159.014z"/>
	<path fill="none" stroke="#703D29" stroke-width="0.664" stroke-linecap="round" d="M401.03,236.122
		c-1.194-2.887-4.28-1.594-4.47,0c-0.437,3.668,2.779,4.775,5.067,4.18c1.133-0.296,1.963-1.01,2.493-1.94
		c0.6-1.05,0.779-2.42,0.39-3.728c-0.175-0.6-0.462-1.16-0.847-1.652c-0.352-0.477-0.785-0.886-1.28-1.21
		c-0.88-0.56-1.84-0.617-3.343-0.617c-5.573,0-10.45,6.585-12.087,13.426c-0.54,2.253-1.28,7.277-0.253,12.042
		c1.094,5.074,3.288,8.59,5.861,11.254c1.394,1.442,3.293,2.728,5.754,4.12c0.76,0.428,2.765,1.317,4.158,1.716
		c1.43,0.41,2.752,0.35,3.941,0.09c3.302-0.716,4.837-3.787,3.174-6.93c-1.363-2.573-5.375-3.98-7.266-0.696
		c-0.16,0.278-0.41,0.885-0.402,1.542c0.01,0.876,0.374,1.93,1,2.33c1.436,0.914,3.736,0.654,3.63-1.882"/>
	<path fill="none" stroke="#703D29" stroke-width="0.817" d="M383.802,273.965c1.118-1.316,3.685-3.29,6.62-3.65
		c2.979-0.366,5.566,0.5,8.21,1.923c5.157,2.774,8.034,5.757,9.95,11.29c0.487,1.405,0.89,3.523,0.835,5.773
		c-0.09,3.588-1,7.51-1.979,9.404c-0.853,1.653-3.084,8.955-15.324,13.995c-7.144,2.94-18.112,3.618-25.676,3.917
		c-10.404,0.41-20.002,0.797-25.576,7.663"/>
	<path fill="none" stroke="#703D29" stroke-width="0.717" d="M386.4,285.728c-0.299-1.095-0.022-2.144,0.846-3.334
		c1.16-1.59,3.632-2.14,5.872-0.895c0.75,0.415,1.688,0.963,2.537,2.088c0.319,0.426,0.864,1.112,1.145,1.593
		c0.677,1.16,0.956,2.108,1.09,2.49c2.46,6.993-1.45,14.571-6.563,17.612c-3.973,2.362-8.71,3.415-14.38,4.08
		c-2.55,0.3-4.005,0.28-6.568,0.398c-2.063,0.097-3.845,0.062-5.522,0.042c-1.381-0.018-2.69-0.01-4.03-0.04
		c-2.187-0.052-4.448-0.104-7.216,0.1c-2.913,0.21-5.104,0.285-7.564,0.695c-1.607,0.268-3.492,0.526-5.467,0.97
		c-0.594,0.133-1.195,0.24-1.8,0.423l-1.203,0.368c-3.566,1.088-7.03,2.413-9.765,4.174c-0.845,0.545-1.799,1.088-2.48,1.733
		c-0.426,0.399-0.943,0.804-1.36,1.214c-1.914,1.882-3.87,3.92-4.328,6.68c-0.084,0.51-0.084,1.043-0.084,1.604
		c0,1.79,1.457,4.229,5.389,5.026 M330.477,162.63c0.822,1.487,1.275,2.393,0.797,3.93c-0.543,1.744-1.778,2.788-3.533,2.788
		c-3.98,0-6.322-4.713-4.528-7.713c3.185-5.324,9.306-2.334,14.978,0.303c-0.274-1.365-0.752-1.81-0.702-3.5
		c0.124-4.202,3.239-6.107,4.482-9.988c0.742-2.312,1.037-4.319-0.655-5.962c-1.477-1.434-3.188-1.412-5.115-0.655
		c-3.853,1.51-8.479,5.848-16.622,5.968c-8.143-0.12-12.808-4.46-16.66-5.968c-1.926-0.757-3.638-0.778-5.115,0.655
		c-1.692,1.643-1.396,3.65-0.656,5.962c1.244,3.881,4.36,5.786,4.483,9.987c0.05,1.692-0.428,2.136-0.7,3.5
		c5.67-2.636,12.03-5.894,14.977-0.302c1.642,3.116-0.547,7.713-4.528,7.713c-1.755,0-2.987-1.12-3.533-2.787
		c-0.486-1.485,0-2.785,0.796-3.93"/>
	<path fill="none" stroke="#703D29" stroke-width="0.717" stroke-linecap="round" d="M314.56,159.865
		c1.538,1.177,2.624,2.623,2.443,4.976c-0.197,2.553-0.815,3.168-2.805,4.524 M316.595,165.568c-0.09,1.538-0.723,2.533-2.26,3.166"
		/>
	<path fill="#C7B37F" d="M276.736,153.274l0.697,0.497l0.746,0.797l0.496,0.996l0.25,0.846l0.05,1.094l-0.05,0.746l-0.25,0.845
		l-0.497,0.597l-0.598,0.647l-0.846,0.446l-1.095,0.25l-0.943,0.148l-0.995-0.448l-0.896-0.646l-0.547-0.796l-0.398-0.995v-0.4
		l4.876-4.626V153.274z"/>
	<path fill="none" stroke="#703D29" stroke-width="0.666" stroke-linecap="round" d="M275.206,157.165
		c-0.306-1.652-2.237-1.99-2.985-1.016c-1.149,1.502-0.31,4.004,2.034,4.737c0.796,0.25,2.637,0.15,3.83-1.395
		c0.97-1.25,0.895-2.8,0.533-4.029c-0.234-0.796-0.873-1.49-1.726-2.141c-2.72-2.069-7.115-1.592-8.558,1.891
		c-1.862,4.494,2.19,7.862,5.92,10.399c4.7,3.195,10.052,3.776,14.083,3.733c9.156-0.1,16.122-4.48,20.65-6.966
		c1.055-0.58,2.14-0.46,2.687,0.2c0.616,0.743,0.606,1.945-0.25,2.734"/>
	<path fill="none" stroke="#703D29" stroke-width="0.676" d="M248.064,281.184l-2.04,0.746l-2.09,1.593l-0.896,1.244l-1.144,1.99
		l-0.498,1.493l-0.398,1.84l-0.2,1.394 M259.808,281.382l-0.15,1.792l-0.298,1.244l-0.896,2.14l-1.393,1.84l-1.492,1.195
		l-1.094,0.547l-1.543,0.348"/>
	<path fill="none" stroke="#703D29" stroke-width="0.766" d="M319.744,329.107c-0.37,1.656-1.922,3.55-5.3,4.235l-0.655,0.136"/>
	<path fill="none" stroke="#703D29" stroke-width="0.868" d="M404.218,276.205c2.138,1.992,3.638,4.42,4.792,7.75
		c0.487,1.403,0.891,3.522,0.834,5.772c-0.09,3.587-1,7.507-1.979,9.403c-0.853,1.654-3.083,8.957-15.324,13.996
		c-7.144,2.939-18.112,3.619-25.676,3.918c-10.255,0.403-19.727,0.785-25.332,7.369"/>
	<path fill="none" stroke="#703D29" stroke-width="0.595" d="M387.488,282.848c0.76-1.038,3.529-2.35,5.77-1.107
		c0.737,0.41,1.61,0.929,2.377,2.076"/>
	<path fill="none" stroke="#703D29" stroke-width="0.868" d="M401.605,273.786c0.5,0.191,1,0.365,1.437,0.489
		c1.43,0.41,2.776,0.44,3.942,0.09c2.83-0.848,4.646-3.491,3.174-6.93c-0.342-0.796-0.996-1.56-1.74-2.133"/>
	<path fill="none" stroke="#703D29" stroke-width="0.666" stroke-linecap="round" d="M240.282,199.763
		c-1.9,1.176-3.317,1.455-4.795,3.167c-1.473,2.914-2.05,4.479-2.624,6.816 M278.963,158.054c0,1.72-1.266,2.805-2.985,3.167"/>
	<path fill="none" stroke="#703D29" stroke-width="0.638" d="M397.114,192.02c4.729-0.097,18.47,3.608,18.566,19.76
		c0.099,15.952-9.844,18.559-13.827,19.62"/>
	<path fill="none" stroke="#703D29" stroke-width="0.664" d="M398.355,192.02c8.155-0.354,16.569,5.648,16.941,20.63
		c0.29,11.705-8.01,17.015-11.995,18.076"/>
	<path fill="none" stroke="#703D29" stroke-width="0.564" d="M393.811,248.422l0.127-1.601l0.532-2.544l0.755-1.978l0.848-1.633
		l1.1-1.32 M404.954,235.949l-0.125,1.566l-0.45,1.07l-0.695,1.02l-0.796,0.597l-1.22,0.448l-1.07,0.076l-0.796-0.125
		 M385.49,187.79l0.35-1.693l0.746-1.567l0.97-1.567l1.667-2.141l1.32-1.467l2.138-2.165l1.843-1.866l1.17-1.343l1.542-1.865
		l1.368-2.064l0.821-1.692l0.447-2.189l0.137-2.714l-0.248-0.787 M387.482,290.842l1.617-0.324l1.217-0.646l0.673-0.671l0.472-0.771
		l0.324-1.244l0.025-0.87 M233.562,274.163l1.194,0.1l1.542-0.125l1.543-0.547 M242.842,237.043l-0.2,1.393l-0.323,0.622
		l-0.475,0.597l-0.646,0.498l-0.722,0.323l-0.945,0.15l-0.647,0.05 M248.787,225.056l-0.348,2.164l-0.424,0.946l-0.87,1.193
		l-1.17,0.896l-1.194,0.597l-2.314,0.572 M257.766,191.667l-0.447,1.294l-0.55,0.945l-0.745,1.045l-1.045,0.947l-1.244,0.598
		l-1.045,0.247l-0.646-0.05 M252.422,190.496l0.025,0.994"/>
	<path fill="none" stroke="#703D29" stroke-width="0.632" stroke-linecap="round" d="M254.285,224.058
		c-0.613,0.556-1.321,0.995-2.09,1.298 M402.714,270.182c0.085,0.093,0.372,0.14,0.472,0.2c1.418,0.845,4.211-0.21,3.391-2.4"/>
	<path fill="none" stroke="#703D29" stroke-width="0.632" d="M397.786,239.603c1.006,1.315,2.903,1.657,4.405,1.265
		c1.134-0.296,1.964-1.01,2.494-1.939c0.598-1.05,0.779-2.42,0.39-3.728c-0.175-0.599-0.463-1.158-0.849-1.649
		c-0.426-0.563-0.955-1.16-1.363-1.428c-0.11-0.07-0.217-0.167-0.332-0.245 M408.954,265.894c0.044-0.237,0.065-0.479,0.065-0.72
		c0-1.158-0.484-2.22-1.285-2.935c-0.274-0.244-0.54-0.624-0.87-0.79 M407.34,261.92c-0.046-1.864-1.57-3.197-3.462-3.53
		 M399.706,261.23c-0.435-0.355-0.899-0.657-1.308-1.082c-2.449-2.563-4.291-6.352-4.315-10.674c-0.024-4.143,1.642-8.36,3.582-10
		 M341.165,324.121l1.79-1.643l1.245-0.946l2.34-1.442l2.188-1.045l1.543-0.397l3.086-0.696l3.582-0.548 M327.43,336.768
		c-1.293,1.99-4.378,4.976-7.613,6.17c-3.234-1.194-6.32-4.18-7.613-6.17"/>
	<path fill="none" stroke="#703D29" stroke-width="0.632" stroke-linecap="round" d="M314.42,332.627
		c-0.406,1.502-1.143,2.959-2.22,4.13"/>
	<path fill="none" stroke="#703D29" stroke-width="0.632" d="M314.74,330.539l-0.45,2.19 M311.955,336.909l-0.945,0.944
		l-1.692,0.946l-1.94,0.597 M301.734,161.568c0.243-0.757,0.49-1.326,0.455-2.569c-0.125-4.2-3.24-6.106-4.484-9.987
		c-0.74-2.311-1.036-4.32,0.656-5.96c1.477-1.435,3.188-1.412,5.116-0.657c3.85,1.51,8.517,5.848,16.66,5.97
		c-8.143-0.122-12.81-4.46-16.66-5.97c-1.928-0.755-3.798-0.976-5.275,0.457c-1.692,1.642-1.238,3.85-0.497,6.16
		c1.244,3.882,4.2,5.787,4.323,9.99c0.036,1.241-0.292,1.81-0.534,2.567 M320.115,148.076c8.01-0.423,14.877-5.806,17.092-6.244
		c1.975-0.393,3.078-0.216,4.525,1.102c-1.449-1.317-3.1-1.276-4.973-0.54c-3.85,1.51-8.477,5.847-16.62,5.968 M399.738,261.248
		c-3.334-2.389-6.19-6.948-6.221-12.335c-0.022-4.145,1.643-8.36,3.582-10.002 M327.15,336.486c-1.295,1.99-4.381,4.976-7.614,6.17
		c-3.234-1.194-6.32-4.18-7.613-6.17"/>
	<path fill="none" stroke="#703D29" stroke-width="0.632" stroke-linecap="round" d="M306.67,163.674
		c0.832-0.462,1.605-0.9,2.318-1.292c1.055-0.58,2.323-0.458,2.87,0.202c0.615,0.745,0.71,2.037-0.145,2.825"/>
	<path fill="none" stroke="#703D29" stroke-width="0.632" d="M294.707,169.274c5.496-1.146,9.975-3.609,13.36-5.502 M340.34,327.955
		c0.454,0.31,0.746,0.954,0.746,0.954c0.125,0.3,0.288,0.585,0.333,0.851c0.257,1.521-0.74,2.47-1.974,2.613
		c-1.695,0.197-2.967-0.81-3.51-2.029 M294.426,168.991c5.496-1.146,9.974-3.609,13.36-5.502 M405.363,270.394
		c-1.045,0.402-1.616,0.348-2.916-0.229c-0.534-0.236-1.146-0.604-1.86-1.011c-2.548-1.445-5.574-3.727-8.41-9.05
		c-0.759-1.413-1.333-2.917-1.71-4.476c-0.27-1.11-0.458-2.208-0.5-3.335c-0.068-1.92,0.141-3.926,0.618-6.223
		c0.79-3.79,1.744-5.85,4.08-9.055c1.149-1.576,2.14-2.537,4.28-2.587 M255.25,195.123c1.78,1.512,2.64,3.384,2.64,5.722
		c0,3.1-2.594,8.16-8.963,9.952c-2.439,0.686-4.855,0.132-6.316-0.756"/>
	<path fill="none" stroke="#703D29" stroke-width="0.632" d="M256.294,205.62c1.145,0.795,1.593,1.689,1.593,3.243
		c0,1.065-0.689,2.446-1.859,3.754c-1.92,2.143-5.173,3.963-8.78,4.008c-1.955,0.023-3.986-0.385-6.03-1.75
		c-2.184-1.46-3.333-3.435-3.83-5.375"/>
	<path fill="none" stroke="#703D29" stroke-width="0.632" d="M256.192,212.294c1.297,1.191,1.695,2.684,1.695,4.563
		c0,2.745-1.115,4.864-3.68,7.108c-0.573,0.502-1.22,0.972-1.94,1.395 M381.696,203.282v3.532 M381.414,202.413v4.975
		 M381.696,191.642v6.519 M381.414,190.202v8.906 M379.514,281.07c-1.235,2.453-2.223,3.742-4.18,5.67
		c-1.975,1.947-3.343,2.841-5.822,4.08c-2.414,1.21-3.934,1.597-6.567,2.19c-2.632,0.595-4.171,0.725-6.867,0.847
		c-2.47,0.112-3.874,0.008-6.343-0.163c-2.64-0.183-4.106-0.55-6.743-0.782c-2.179-0.19-3.408-0.366-5.595-0.36
		c-2.248,0.006-3.537,0.02-5.75,0.41c-2.063,0.366-3.232,0.657-5.175,1.443c-2.685,1.089-5.72,2.985-6.368,3.83
		c-0.647-0.845-3.683-2.742-6.37-3.83c-1.94-0.786-3.11-1.077-5.174-1.442c-2.214-0.391-3.5-0.405-5.75-0.41
		c-2.186-0.007-3.417,0.17-5.595,0.36c-2.638,0.232-4.103,0.6-6.744,0.783c-2.47,0.17-3.872,0.275-6.343,0.163
		c-2.696-0.122-4.235-0.25-6.867-0.846c-2.633-0.596-4.153-0.98-6.568-2.19c-2.48-1.237-3.847-2.133-5.822-4.08
		c-0.213-0.21-0.415-0.411-0.607-0.609 M306.432,339.5l1.79-0.224 M338.496,336.922l1.808-0.174l1.722-0.689l1.205-0.73l1.638-1.939
		l0.345-0.73l0.258-1.68l0.086-0.773 M392.467,193.51c0.777-2.64-0.17-5.43-2.729-5.354 M257.786,234.72
		c-0.65,2.194-2.044,3.693-3.597,4.668 M257.83,192.672c-0.64,1.85-1.81,3.17-3.663,4.007c-1.847,0.833-3.985,0.054-5.13-0.828"/>
	<path fill="none" stroke="#703D29" stroke-width="0.632" stroke-linecap="round" d="M243.808,202.367
		c1.53,0.803,3.084-0.374,2.766-2.364c-0.15-0.934-1.155-2.112-2.517-2.198"/>
	<path fill="none" stroke="#703D29" stroke-width="0.632" d="M250.157,286.63c0.33,0.31,0.399,0.714,0.846,0.796
		c0.67,0.125,1.194,0.374,1.866-0.522c0.827-1.104,0.382-2.819-0.48-3.901c-0.922-1.157-3.592-2.181-5.83-0.937
		c-0.75,0.416-1.69,0.964-2.54,2.09c-0.32,0.427-0.863,1.113-1.143,1.593c-0.678,1.159-0.956,2.106-1.09,2.487
		c-2.05,5.823,0.384,11.945,4.152,15.677"/>
	<path fill="none" stroke="#703D29" stroke-width="0.632" stroke-linecap="round" d="M340.218,327.826
		c0.408,0.426,0.646,0.797,0.646,0.797c0.126,0.299,0.229,0.584,0.273,0.85c0.259,1.521-0.739,2.47-1.973,2.613
		c-1.695,0.197-2.83-0.802-3.37-2.02"/>
	<path fill="none" stroke="#703D29" stroke-width="0.632" d="M389.439,154.758c3.347,0.408,6.263,3.602,6.263,7.035
		c0,4.43-1.492,6.078-3.824,9.246c-2.495,3.39-10.647,9.602-10.647,16.668c0,4.279,1.193,7.015,4.279,8.407
		c1.988,0.9,4.314-0.073,5.373-1.029c2.587-2.34,1.553-6.44-1.144-6.931c-3.286-0.598-3.903,4.573-0.698,4.23 M406.867,261.446
		c-0.294-1.771-1.801-3.122-3.615-3.122c-2.023,0-3.666,1.681-3.666,3.757c0,1.016,0.395,1.938,1.034,2.614"/>
	<path fill="none" stroke="#703D29" stroke-width="0.632" d="M383.866,195.123c-1.78,1.512-2.638,3.384-2.638,5.722
		c0,3.1,2.592,8.16,8.961,9.952c2.44,0.686,4.772,0.62,6.233-0.268 M240.39,200.192c-1.521,0.508-3.423,1.458-4.83,3.453
		c-1.19,1.684-1.882,4.023-2.31,6.07c-0.19,0.896-0.413,3.732,0.16,6.663c0.424,2.163,1.317,4.177,2.306,5.636
		c0.303,0.446,0.65,0.86,1.037,1.236c0.33,0.33,0.802,0.624,1.135,0.88 M301.9,316.173c4.85,2.149,8.404,3.76,11.418,8.518
		c0.945,1.494,1.194,3.634,1.194,4.877c0,2.688-1.095,5.724-3.334,7.613c-2.078,1.755-4.13,2.29-6.667,2.04
		c-1.924-0.188-3.729-1.592-4.03-2.587 M254.003,224.128c2.737,2.14,3.88,4.215,3.88,7.514c0,3.78-1.84,6.12-3.979,7.463"/>
	<path fill="none" stroke="#703D29" stroke-width="0.632" stroke-linecap="round" d="M251.514,236.422
		c4.08,5.076,6.245,8.088,6.37,14.132c0.115,5.672-1.693,9.553-5.077,13.634"/>
	<path fill="none" stroke="#703D29" stroke-width="0.632" d="M329.747,169.324c0.742-0.486,1.286-1.267,1.6-2.229
		c0.48-1.49,0.49-2.757-0.305-3.902c0.981,1.285,1.072,2.37,0.796,3.931c-0.176,0.993-0.81,1.517-1.6,2.229 M381.696,255.514v16.154
		h0.043c0,0.01-0.007,1.529-0.138,2.487c-0.076,0.579-0.168,1.156-0.273,1.73"/>
	<path fill="none" stroke="#703D29" stroke-width="0.632" d="M381.414,253.958v17.423h0.043c0,0.013-0.005,1.529-0.135,2.49
		c-0.137,1-0.28,1.847-0.467,2.64 M381.414,233.562v14.53 M381.696,234.707v11.816 M381.696,219.68v8.858 M381.414,218.637v10.92
		 M381.696,210.624v3.436 M381.414,209.926v4.977 M379.57,280.096c-0.105,0.224-0.219,0.455-0.338,0.694
		c-1.235,2.454-2.223,3.742-4.181,5.672c-1.974,1.946-3.343,2.838-5.819,4.08c-2.416,1.21-3.937,1.595-6.57,2.189
		c-2.63,0.594-4.17,0.725-6.866,0.847c-2.472,0.109-3.874,0.007-6.342-0.163c-2.642-0.184-4.107-0.551-6.744-0.783
		c-2.18-0.19-3.41-0.367-5.596-0.362c-2.248,0.007-3.536,0.021-5.75,0.412c-2.063,0.365-3.232,0.656-5.175,1.443
		c-2.687,1.088-5.722,2.984-6.37,3.83c-0.646-0.846-3.682-2.742-6.368-3.83c-1.942-0.787-3.112-1.078-5.175-1.443
		c-2.214-0.392-3.502-0.406-5.75-0.412c-2.186-0.006-3.417,0.17-5.595,0.362c-2.638,0.231-4.103,0.6-6.745,0.783
		c-2.468,0.17-3.87,0.273-6.342,0.163c-2.695-0.122-4.235-0.25-6.866-0.847c-2.635-0.597-4.154-0.981-6.57-2.189
		c-2.48-1.24-3.847-2.134-5.82-4.08c-1.035-1.021-1.798-1.86-2.47-2.787 M260.11,280.486c0.425,3.163-0.905,6.272-2.256,7.702
		c-0.846,0.896-2.688,2.607-4.976,2.637c-3.78,0.051-4.91-2.55-5.14-3.184"/>
	<path fill="none" stroke="#703D29" stroke-width="0.632" d="M255.616,278.848c0.702,0.693,1.325,1.54,1.852,2.538
		c0.945,1.79,0.654,4.787-0.095,6.17c-0.091,0.166-0.192,0.325-0.304,0.478 M236.826,306.048c2.248,2.359,5.65,4.923,10.873,7.073
		c7.142,2.941,18.11,3.619,25.675,3.918c10.057,0.396,19.323,0.81,24.966,7.039 M315.706,320.006c1.662,1.636,3.358,3.39,4.074,5.63
		 M312.435,337.088c-0.218,0.232-0.45,0.453-0.693,0.66c-2.078,1.752-4.13,2.287-6.668,2.039c-1.924-0.189-3.78-1.632-4.278-2.576
		 M295.443,334.304c0.093,0.127,0.189,0.25,0.293,0.37c1.208,1.406,3.115,2.287,5.105,2.451 M327.712,337.05
		c-1.294,1.989-4.38,4.975-7.613,6.17c-3.235-1.195-6.32-4.181-7.614-6.17l-0.302-0.466 M327.763,337.037
		c0.23,0.25,0.479,0.487,0.74,0.709c2.078,1.754,4.13,2.288,6.668,2.041c1.925-0.19,3.453-1.476,4.07-2.589
		c0,0,0.347-0.373,0.444-0.729"/>
	<path fill="none" stroke="#703D29" stroke-width="0.632" d="M339.04,336.634l-0.743,1.194l-1.13,0.937l-1.71,0.71l-1.55,0.064"/>
	<path fill="none" stroke="#703D29" stroke-width="0.632" d="M343.061,325.26c0.914,0.703,1.813,1.767,2.302,2.902
		c0.313,0.73,0.46,1.533,0.505,2.366c0.079,1.513-0.431,2.997-1.423,4.142c-1.278,1.49-3.272,2.391-5.396,2.476
		c-0.156,0.007-0.313,0.007-0.47,0 M338.766,336.864c-2.03,0.08-3.844-0.788-5.181-2.16 M397.26,266.835
		c-1.582-1.46-3.222-3.48-4.804-6.45c-0.759-1.412-1.333-2.916-1.71-4.474c-0.27-1.11-0.458-2.208-0.5-3.335
		c-0.068-1.92,0.14-3.925,0.618-6.222c0.79-3.792,2.203-6.726,4.08-9.056c0.64-0.795,1.38-1.786,2.079-2.232 M395.648,159.25
		c2.537,0.199,4.89,2.932,4.857,5.609c-0.045,3.891-1.35,5.497-4.41,9.311c-2.637,3.283-10.55,9.055-10.35,14.578
		c0.036,0.979,0.564,1.993,1.154,2.81 M383.738,195.02c0.562,0.556,1.242,1.014,2.052,1.38c1.447,0.654,3.073,0.317,4.26-0.283
		 M368.877,152.896c0.85,0.58,1.716,1.466,2.186,2.601c1.861,4.491-2.19,7.859-5.92,10.399c-2.678,1.818-5.565,2.79-8.301,3.28"/>
	<path fill="none" stroke="#703D29" stroke-width="0.632" d="M364.602,161.555c-0.904-0.01-1.979-0.267-3.149-1.497
		c-0.269-0.283-0.583-0.658-0.707-0.994 M345.888,163.968c-0.473-0.237-0.979-0.582-1.319-0.962
		c-0.888-0.993-1.48-2.336-0.795-4.386c0.632-1.897,3.677-7.217,3.826-10.898c0.229-5.625-1.936-8.945-5.319-10.24"/>
	<path fill="none" stroke="#703D29" stroke-width="0.632" stroke-linecap="round" d="M347.314,146.464l-0.131,2.115l-0.573,2.159
		l-1.101,2.95l-0.84,1.896l-0.88,1.895l-0.44,1.323l-0.177,0.97l0.133,0.925 M381.318,286.976c0.175,0.423,0.597,0.836,0.597,0.836
		c0.647,1.08,3.162,2.98,5.45,3.01c3.779,0.051,4.68-2.598,4.777-3.186c0.477-2.885-0.511-3.675-1.99-4.488
		c0,0-0.872-0.45-1.917-0.276"/>
	<path fill="none" stroke="#703D29" stroke-width="0.632" d="M236.947,274.35c-1.335,0.34-2.59,0.35-3.686,0.021
		c-2.83-0.851-5.124-3.561-3.954-6.931 M242.694,235.615c0.284,0.285,0.375,0.71,0.418,1.07c0.437,3.667-2.777,4.736-5.066,4.14
		c-1.134-0.297-2.485-1.35-3.015-2.279c-0.399-0.702-0.61-1.496-0.614-2.304 M256.474,212.575c0.573,0.527,0.97,1.112,1.236,1.765
		 M256.576,205.823c0.53,0.37,0.912,0.841,1.168,1.308"/>
	<path fill="none" stroke="#703D29" stroke-width="0.632" stroke-linecap="round" d="M257.862,210.522
		c-0.311,0.762-0.843,1.584-1.555,2.38c-1.92,2.141-5.173,3.96-8.778,4.005c-1.957,0.025-3.988-0.384-6.03-1.75
		c-2.186-1.46-3.61-3.537-4.082-5.577"/>
	<path fill="none" stroke="#703D29" stroke-width="0.632" d="M255.43,195.282c1.108,0.942,1.958,2.143,2.367,3.391"/>
	<path fill="none" stroke="#703D29" stroke-width="0.632" stroke-linecap="round" d="M257.83,203.238
		c-0.885,2.929-3.526,6.549-8.622,7.841c-2.435,0.615-5.57-0.155-6.64-1.066"/>
	<path fill="none" stroke="#703D29" stroke-width="0.632" d="M240.038,202.554c0.267,2.637,2.032,4.613,5.377,4.677
		c4.704,0.09,7.564-6.767,3.384-11.58"/>
	<path fill="none" stroke="#703D29" stroke-width="0.632" stroke-linecap="round" d="M229.453,225.53
		c0.687,0.862,1.496,1.641,2.323,2.327c1.677,1.396,3.655,2.625,5.934,3.298 M242.99,231.648c4.203-0.505,6.573-3.638,6.103-7.302
		c-0.357-2.793-2.92-4.94-4.662-5.064"/>
	<path fill="none" stroke="#703D29" stroke-width="0.632" d="M249.85,188.11c1.823-0.069,2.86,1.588,2.844,2.984"/>
	<path fill="none" stroke="#703D29" stroke-width="0.632" stroke-linecap="round" d="M249.42,163.078
		c1,2.613,2.947,4.656,5.032,5.823 M398.63,199.865c1.72,2.354,0.595,6.996-4.082,7.084c-1.827,0.035-3.475-0.978-4.44-2.51"/>
	<path fill="none" stroke="#703D29" stroke-width="0.632" d="M381.696,169.12v15.8"/>
	<path fill="none" stroke="#703D29" stroke-width="0.632" stroke-linecap="round" d="M243.757,202.33
		c1.443,1.044,3.296-0.721,2.58-2.593c-0.485-1.264-2.282-2.628-4.77-0.937c-2.747,1.87-1.99,7.764,3.285,7.863
		c4.703,0.09,7.563-6.768,3.383-11.58c-4.021-4.63-11.346-3.546-16.12,0.254c-2.034,1.617-5.873,5.853-7.067,11.625
		c-0.372,1.797-0.612,3.271-0.584,5.075c0.02,1.188,0.13,2.52,0.484,4.18c0.72,3.354,1.899,5.81,3.076,7.517
		c0.45,0.654,0.862,1.197,1.303,1.639c0.82,0.819,1.064,1.253,1.89,1.939c2.704,2.25,6.187,4.014,10.45,3.832
		c4.677-0.2,7.365-3.482,6.867-7.364c-0.483-3.763-4.282-5.636-6.768-3.88c-1.692,1.193-2.293,4.891,0.697,5.771
		c1.692,0.498,3.184-1.641,1.99-2.885 M374.016,150.835c2.7-1.466,4.78-1.195,6.32,0.939c1.672,2.322,1.91,5.41,1.542,7.221
		c-0.547,2.687-1.324,3.803-3.46,5.752"/>
	<path fill="none" stroke="#703D29" stroke-width="0.632" stroke-linecap="round" d="M380.53,152.031
		c3.086-2.04,6.427-1.174,8.26,1.543c1.345,1.99,1.688,3.655,1.593,6.12c-0.162,4.225-2.805,7.572-5.722,9.205"/>
	<path fill="none" stroke="#703D29" stroke-width="0.632" d="M395.061,159.15c2.536,0.198,4.576,2.495,4.576,5.174
		c0,3.83-1.07,5.493-4.13,9.306c-2.637,3.283-10.55,9.055-10.35,14.578c0.075,2.088,1.836,4.056,3.354,4.166"/>
	<path fill="none" stroke="#703D29" stroke-width="0.632" stroke-linecap="round" d="M395.359,202.33
		c-1.442,1.044-3.283-0.644-2.487-2.435c0.55-1.237,2.19-2.786,4.677-1.095c2.747,1.87,1.99,7.764-3.285,7.863
		c-4.703,0.09-7.883-6.591-3.383-11.58c4.106-4.555,11.721-3.662,16.498,0.138c2.032,1.618,6.122,6.06,7,11.887
		c1.061,7.054,0.924,15.729-6.359,21.07c-2.931,2.147-6.988,3.125-10.57,2.968c-4.678-0.205-7.365-3.482-6.867-7.365
		c0.482-3.762,4.105-5.354,6.767-3.88c2.765,1.53,2.28,5.417-0.696,5.771c-1.75,0.21-3.185-1.641-1.99-2.885"/>
	<path fill="none" stroke="#703D29" stroke-width="0.632" d="M392.87,199.898c0.776-3.49,3.767-3.815,6.18-3.78
		c6.59,0.097,11.148,7.912,11.224,15.474c0.097,9.552-4.054,15.176-11.034,15.475c-1.808,0.078-4.918-0.782-4.972-2.984"/>
	<path fill="none" stroke="#703D29" stroke-width="0.632" stroke-linecap="square" d="M396.928,198.336
		c6.95,1.544,9.391,7.805,9.391,13.779c0,4.875-0.484,11.535-9.971,13.877"/>
	<path fill="none" stroke="#703D29" stroke-width="0.632" d="M408.391,265.33c0.396-2.121-1-4.162-3.121-4.559
		c-2.12-0.397-4.16,0.999-4.558,3.12c-0.268,1.425,0.277,2.881,1.414,3.781"/>
	<path fill="none" stroke="#703D29" stroke-width="0.632" stroke-linecap="round" d="M394.45,259.409
		c1.31,1.942,2.892,4.101,6.235,5.913 M399.43,275.872c-3.275-2.15-9.496-4.968-15.119-2.194c-2.086,1.03-3.482,2.302-4.271,4.378
		c-1.422,3.737,0.166,7.856,1.783,9.567c0.846,0.896,2.688,2.606,4.976,2.637c3.78,0.05,4.68-2.596,4.776-3.185
		c0.448-2.736-1.146-3.832-1.99-4.13c-0.649-0.229-2.76-0.17-3.208,1.322c-0.15,0.497-0.176,1.365,0.223,2.012"/>
	<path fill="none" stroke="#703D29" stroke-width="0.632" stroke-linecap="round" d="M340.475,328.422
		c1.045,2.14-0.145,3.215-1.594,3.384c-2.138,0.25-3.283-1.443-3.432-2.986c-0.242-2.5,1.865-4.767,4.38-4.727
		c2.26,0.036,4.104,1.497,4.968,3.505c0.314,0.73,0.46,1.533,0.504,2.367c0.08,1.513-0.43,2.998-1.422,4.143
		c-1.279,1.49-3.273,2.391-5.395,2.475c-4.225,0.17-7.514-3.781-7.514-7.812c0-7.712,11.438-11.918,15.973-13
		c5.572-1.33,8.964-1.828,17.912-2.325c3.584-0.199,6.207-0.098,10.15-0.507c3.53-0.366,5.375-0.538,9.007-1.384
		c4.533-1.055,8.759-2.936,12.54-6.37c2.91-2.644,4.577-4.527,5.926-8.16c1.164-3.133,1.697-9.34-1.248-13.93
		c-2.605-4.06-6.221-6.166-10.351-6.763c-3.731-0.54-7.004,1.069-8.958,4.772c-0.945,1.79-0.654,4.787,0.096,6.17
		c0.646,1.194,2.493,2.955,4.781,2.985c3.78,0.05,4.68-2.596,4.776-3.184c0.446-2.737-1.146-3.832-1.99-4.131
		c-0.649-0.229-2.76-0.17-3.208,1.322c-0.15,0.497-0.176,1.365,0.222,2.012"/>
	<path fill="none" stroke="#703D29" stroke-width="0.632" stroke-linecap="round" d="M337.216,316.173
		c-4.85,2.149-8.403,3.76-11.417,8.518c-0.945,1.494-1.195,3.634-1.195,4.877c0,2.688,1.095,5.724,3.334,7.613
		c2.076,1.755,4.131,2.29,6.666,2.04c1.926-0.188,3.732-1.592,4.03-2.587"/>
	<path fill="none" stroke="#703D29" stroke-width="0.632" d="M385.107,224.128c-2.269,0.757-3.881,4.215-3.881,7.514
		c0,3.78,1.84,6.12,3.98,7.463"/>
	<path fill="none" stroke="#703D29" stroke-width="0.632" stroke-linecap="round" d="M387.597,236.422
		c-4.079,5.076-6.245,8.088-6.37,14.132c-0.115,5.672,1.693,9.553,5.076,13.634"/>
	<path fill="none" stroke="#703D29" stroke-width="0.632" d="M365.85,152.05c0.105-0.155,0.221-0.327,0.351-0.518
		c1.692-2.487,4.68-3.143,6.866-1.492c2.638,1.989,3.304,5.378,2.588,8.957c-0.448,2.239-1.967,4.104-4.049,5.452"/>
	<path fill="none" stroke="#703D29" stroke-width="0.632" stroke-linecap="round" d="M265.1,150.835
		c-2.587-1.194-4.717-0.964-6.32,0.939c-1.84,2.19-1.91,5.41-1.54,7.221c0.546,2.687,1.323,3.803,3.46,5.752"/>
	<path fill="none" stroke="#703D29" stroke-width="0.632" d="M258.58,152.031c-3.086-2.04-6.427-1.174-8.26,1.543
		c-1.344,1.99-1.688,3.655-1.593,6.12c0.162,4.225,2.806,7.572,5.722,9.205"/>
	<path fill="none" stroke="#703D29" stroke-width="0.632" d="M249.677,154.758c-3.346,0.408-6.016,3.244-6.016,6.678
		c0,4.428,1.09,6.22,3.58,9.604c2.492,3.39,10.646,9.602,10.646,16.668c0,4.279-1.193,7.015-4.28,8.407
		c-1.99,0.9-4.314-0.073-5.373-1.029c-2.588-2.34-1.553-6.44,1.144-6.931c3.284-0.598,3.9,4.573,0.697,4.23"/>
	<path fill="none" stroke="#703D29" stroke-width="0.632" d="M244.05,159.15c-2.537,0.198-5.033,2.38-5.033,5.061
		c0,3.83,1.526,5.606,4.586,9.418c2.638,3.284,10.088,8.941,9.89,14.465c-0.076,2.09-1.48,4.642-2.873,4.344"/>
	<path fill="none" stroke="#703D29" stroke-width="0.632" stroke-linecap="round" d="M238.08,236.122c1.194-2.887,4.28-1.594,4.47,0
		c0.437,3.668-2.778,4.775-5.067,4.18c-1.134-0.296-1.963-1.01-2.493-1.94c-0.598-1.05-0.78-2.42-0.39-3.728
		c0.175-0.6,0.462-1.16,0.848-1.652c0.351-0.477,0.784-0.886,1.28-1.21c0.88-0.56,1.838-0.617,3.342-0.617
		c5.573,0,10.45,6.585,12.087,13.426c0.54,2.253,1.28,7.277,0.254,12.042c-1.094,5.074-3.288,8.59-5.86,11.254
		c-1.395,1.442-3.295,2.728-5.755,4.12c-0.76,0.428-2.764,1.317-4.158,1.716c-1.43,0.41-2.774,0.439-3.939,0.09
		c-2.83-0.848-4.648-3.493-3.175-6.93c1.147-2.677,5.374-3.98,7.265-0.696c0.16,0.278,0.41,0.885,0.402,1.542
		c-0.01,0.876-0.375,1.93-1,2.33c-1.438,0.914-3.737,0.654-3.63-1.882"/>
	<path fill="none" stroke="#703D29" stroke-width="0.632" d="M233.754,270.394c1.045,0.402,1.616,0.348,2.916-0.229
		c0.534-0.236,1.145-0.604,1.86-1.011c2.548-1.445,5.573-3.727,8.41-9.05c0.758-1.413,1.333-2.917,1.71-4.476
		c0.27-1.11,0.458-2.208,0.5-3.335c0.068-1.92-0.14-3.926-0.618-6.223c-0.79-3.79-1.744-5.85-4.08-9.055
		c-1.15-1.576-2.14-2.537-4.28-2.587 M230.726,265.33c-0.397-2.121,1-4.162,3.12-4.559c2.121-0.397,4.162,0.999,4.559,3.12
		c0.267,1.425-0.277,2.881-1.414,3.781"/>
	<path fill="none" stroke="#703D29" stroke-width="0.632" d="M232.243,261.446c0.294-1.771,1.8-3.122,3.615-3.122
		c2.025,0,3.666,1.681,3.666,3.757c0.003,0.972-0.366,1.907-1.033,2.614"/>
	<path fill="none" stroke="#703D29" stroke-width="0.632" d="M239.373,261.248c3.334-2.389,6.19-6.948,6.22-12.335
		c0.022-4.145-1.643-8.36-3.583-10.003"/>
	<path fill="none" stroke="#703D29" stroke-width="0.632" stroke-linecap="round" d="M244.666,259.409
		c-1.308,1.942-2.89,4.101-6.234,5.913"/>
	<path fill="none" stroke="#703D29" stroke-width="0.632" d="M254.598,273.683c-0.927-2.18-2.77-3.19-5.771-3.51
		c-2.984-0.32-5.567,0.5-8.21,1.922c-5.158,2.775-8.034,5.757-9.952,11.29c-0.486,1.406-0.89,3.523-0.834,5.773
		c0.09,3.587,1,7.507,1.98,9.402c0.852,1.654,3.084,8.956,15.324,13.996c7.144,2.939,18.112,3.618,25.676,3.916
		c10.404,0.41,20.003,0.797,25.576,7.663"/>
	<path fill="none" stroke="#703D29" stroke-width="0.632" stroke-linecap="round" d="M239.68,275.872
		c3.277-2.15,9.496-4.968,15.12-2.194c2.085,1.03,3.482,2.302,4.271,4.378c1.422,3.737-0.166,7.856-1.783,9.567
		c-0.846,0.896-2.688,2.606-4.976,2.637c-3.78,0.05-4.68-2.596-4.775-3.185c-0.448-2.736,1.144-3.832,1.99-4.13
		c0.65-0.229,2.76-0.17,3.207,1.322c0.15,0.497,0.176,1.365-0.222,2.012"/>
	<path fill="none" stroke="#703D29" stroke-width="0.632" d="M252.71,285.728c0.3-1.095,0.145-2.244-0.845-3.334
		c-0.996-1.094-3.633-2.14-5.872-0.895c-0.75,0.415-1.688,0.963-2.538,2.088c-0.32,0.426-0.864,1.112-1.144,1.593
		c-0.677,1.16-0.955,2.108-1.09,2.49c-2.46,6.993,1.545,14.42,6.565,17.612c4.378,2.786,8.857,3.582,14.38,4.08
		c2.556,0.23,4.004,0.28,6.568,0.398c2.063,0.097,3.845,0.062,5.523,0.042c1.38-0.018,2.69-0.01,4.03-0.04
		c2.186-0.052,4.448-0.104,7.216,0.1c2.912,0.21,5.102,0.285,7.563,0.695c1.608,0.268,3.492,0.526,5.467,0.97
		c0.593,0.133,1.194,0.24,1.798,0.423c0.406,0.123,0.807,0.247,1.204,0.368c3.566,1.088,7.03,2.413,9.764,4.174
		c0.845,0.545,1.818,1.07,2.482,1.733c0.51,0.51,0.942,0.804,1.36,1.214c1.913,1.882,3.87,3.92,4.327,6.68
		c0.084,0.51,0.084,1.043,0.084,1.604c0,1.79-1.456,4.229-5.387,5.026"/>
	<path fill="none" stroke="#703D29" stroke-width="0.632" d="M298.637,328.422c-1.045,2.14,0.144,3.215,1.592,3.384
		c2.14,0.25,3.283-1.443,3.432-2.986c0.242-2.5-1.866-4.767-4.38-4.727c-2.26,0.036-4.104,1.497-4.968,3.505
		c-0.314,0.73-0.46,1.533-0.504,2.367c-0.08,1.513,0.43,2.998,1.423,4.143c1.278,1.49,3.272,2.391,5.394,2.475
		c4.224,0.17,7.514-3.781,7.514-7.812c0-7.712-11.438-11.918-15.972-13c-5.573-1.33-8.964-1.828-17.913-2.325
		c-3.582-0.199-6.206-0.098-10.15-0.507c-3.53-0.366-5.375-0.538-9.008-1.384c-4.532-1.055-8.757-2.936-12.538-6.37
		c-2.913-2.644-4.58-4.527-5.927-8.16c-1.164-3.133-1.698-9.34,1.248-13.93c2.605-4.06,6.22-6.166,10.35-6.763
		c3.732-0.54,7.004,1.069,8.958,4.772c0.945,1.79,0.654,4.787-0.095,6.17c-0.646,1.194-2.494,2.955-4.78,2.985
		c-3.783,0.05-4.682-2.596-4.778-3.184c-0.448-2.737,1.144-3.832,1.99-4.131c0.649-0.229,2.76-0.17,3.208,1.322
		c0.149,0.497,0.176,1.365-0.223,2.012"/>
	<path fill="none" stroke="#703D29" stroke-width="0.632" stroke-linecap="round" d="M273.26,152.05
		c-0.104-0.155-0.22-0.327-0.35-0.518c-1.69-2.487-4.68-3.143-6.866-1.492c-2.637,1.989-3.303,5.378-2.588,8.957
		c0.448,2.239,1.967,4.104,4.048,5.452"/>
	<path fill="none" stroke="#703D29" stroke-width="0.632" d="M366.746,159.597c-4.03,4.378-8.061,5.777-14.082,5.97
		c-1.88,0.063-5.475-0.596-7.564-2.084c-1.342-0.956-2.836-2.593-1.89-5.43c0.63-1.896,3.677-7.213,3.826-10.896
		c0.228-5.625-1.937-8.708-5.32-9.901c-6.255-2.208-12.97,3.975-17.016,5.324c-2.116,0.703-3.194,0.786-5.126,0.795
		c-1.93-0.009-3.048-0.091-5.163-0.796c-4.046-1.351-10.76-7.533-17.017-5.325c-3.383,1.193-5.547,4.276-5.32,9.901
		c0.149,3.683,3.196,9,3.827,10.897c0.946,2.836-0.548,4.473-1.89,5.43c-2.09,1.487-5.683,2.145-7.563,2.084
		c-6.021-0.193-10.05-1.593-14.082-5.97"/>
	<path fill="none" stroke="#703D29" stroke-width="0.632" stroke-linecap="round" d="M297.33,314.412
		c0.8,0.311,0.195-0.189,5.246,2.051c4.85,2.149,8.29,4.031,11.304,8.789c0.946,1.494,1.194,3.634,1.194,4.877
		c0,0.803-0.097,1.636-0.293,2.461"/>
	<path fill="none" stroke="#703D29" stroke-width="0.632" d="M297.658,336.037c1.013,0.502,2.12,0.783,3.25,0.825
		c4.226,0.17,7.515-3.78,7.515-7.81c0-2.796-1.52-5.15-3.652-7.04"/>
	<path fill="none" stroke="#703D29" stroke-width="0.632" stroke-linecap="round" d="M298.573,328.416
		c-1.021,2.273,0.433,3.504,1.88,3.672c2.14,0.25,3.345-1.443,3.495-2.985c0.162-1.678-0.733-3.31-2.098-4.149"/>
	<path fill="none" stroke="#703D29" stroke-width="0.632" d="M390.1,154.797c3.211,0,6.011,3.575,6.011,7.243
		c0,4.227-2.247,6.813-3.895,8.77c-1.325,1.576-2.762,2.985-4.47,4.704"/>
	<path fill="none" stroke="#703D29" stroke-width="0.632" stroke-linecap="round" d="M386.29,151.409
		c1.093,0.508,2.052,1.363,2.782,2.445c1.344,1.99,1.686,3.656,1.593,6.12c-0.16,4.225-3.2,7.15-5.918,8.934 M379.975,151.409
		c0.222,0.19,0.436,0.407,0.64,0.65c1.842,2.19,1.983,5.426,1.543,7.22c-0.662,2.696-1.554,3.858-3.742,5.471 M373.35,150.304
		c2.639,1.99,3.422,5.433,2.549,8.977c-0.625,2.533-2.218,4.051-4.202,5.261 M382.822,205.62c0.315,0.925,0.837,1.245,1.492,1.934
		c1.427,1.494,3.518,2.78,6.158,3.521c2.44,0.688,4.641,0.171,6.318-0.875 M233.786,264.237c1.24-0.022,2.476,0.815,3.284,2.221
		c0.16,0.277,0.41,0.885,0.402,1.542c-0.01,0.875-0.394,1.81-1.02,2.21c-1.437,0.913-3.99,0.52-3.882-2.018"/>
	<path fill="none" stroke="#703D29" stroke-width="0.632" d="M241.49,231.296c4.93,0.92,9.677,6.867,11.229,13.354
		c0.54,2.252,1.282,7.277,0.254,12.04c-1.095,5.076-3.288,8.59-5.862,11.256c-0.656,0.669-1.368,1.28-2.127,1.827l-1.05,0.712
		 M236.006,258.35c2.025,0,3.798,1.94,3.798,4.014c0.003,0.972-0.367,1.907-1.034,2.614"/>
	<path fill="none" stroke="#703D29" stroke-width="0.632" d="M234.637,260.704c2.11,0,4.117,2.032,4.117,4.189
		c0.001,1.193-0.545,2.322-1.482,3.063"/>
	<path fill="none" stroke="#703D29" stroke-width="0.632" stroke-linecap="round" d="M253.978,239.488
		c1.937,2.601,3.216,4.841,3.81,7.726 M257.722,255.699c-0.313,1.404-0.8,2.763-1.45,4.046c-0.814,1.619-2.234,3.423-3.553,4.642"/>
	<path fill="none" stroke="#703D29" stroke-width="0.632" d="M254.285,224.333c1.868,1.46,2.994,2.97,3.52,4.779"/>
	<path fill="none" stroke="#703D29" stroke-width="0.632" stroke-linecap="round" d="M257.856,219.47
		c-0.49,1.7-1.604,2.99-3.37,4.602 M245.33,206.893l2.157-0.568l1.275-0.964l0.823-1.162l0.71-1.815l0.283-1.476"/>
	<path fill="none" stroke="#703D29" stroke-width="0.632" d="M240.966,199.302c-0.68,0.17-1.543,0.422-2.447,0.853
		c-1.212,0.578-2.5,1.477-3.525,2.931c-1.188,1.682-1.88,4.021-2.31,6.069c-0.187,0.896-0.41,3.732,0.162,6.662
		c0.423,2.163,1.317,4.177,2.305,5.635c0.355,0.523,0.676,0.976,1.037,1.337c1.293,1.294,2.487,2.09,4.478,1.691"/>
	<path fill="none" stroke="#703D29" stroke-width="0.632" stroke-linecap="round" d="M253.043,189.81
		c-0.35,1.285-1.04,2.877-3.055,2.703"/>
	<path fill="none" stroke="#703D29" stroke-width="0.632" d="M245.677,198.528c-1.935-1.892-6.035-2.385-10.11,0.193
		c-0.525,0.333-1.05,0.76-1.568,1.189c-0.56,0.469-1.01,1.006-1.44,1.591c-0.47,0.635-1.048,1.715-1.397,2.432
		c-0.48,0.988-0.68,1.637-0.943,2.65c-0.745,2.852-0.74,5.5-0.654,6.257c0.113,0.967,0.205,1.856,0.364,2.675
		c0.54,2.798,1.368,4.76,2.225,6.18c0.899,1.493,3.14,4.922,7.717,5.374c1.8,0.178,4.873-0.646,4.972-2.985"/>
	<path fill="none" stroke="#703D29" stroke-width="0.632" stroke-linecap="round" d="M363.763,157.07
		c0.307-1.652,2.298-1.972,3.046-0.996c1.152,1.502,0.39,4.084-1.953,4.816c-0.797,0.25-2.638,0.15-3.83-1.393
		c-0.971-1.25-0.896-2.801-0.533-4.03c0.234-0.797,0.873-1.49,1.726-2.141c2.72-2.069,7.116-1.592,8.559,1.891
		c1.862,4.494-2.19,7.863-5.921,10.399c-4.699,3.195-10.052,3.776-14.082,3.732c-9.156-0.1-16.12-4.48-20.65-6.967
		c-1.054-0.58-2.141-0.46-2.686,0.2c-0.616,0.744-0.607,1.946,0.25,2.735"/>
	<path fill="none" stroke="#703D29" stroke-width="0.632" stroke-linecap="round" d="M365.605,155.52
		c0.971,0.045,1.23,0.423,1.528,0.811c1.152,1.504,0.311,4.086-2.032,4.817 M382.938,212.69c-3.489,3.798-0.279,10.315,2.328,11.79
		c0.901,0.7,1.287,0.33,2.01,0.75"/>
	<path fill="none" stroke="#703D29" stroke-width="0.632" d="M383.123,205.434c-1.145,0.796-1.548,1.69-1.592,3.244
		c-0.036,1.3,0.189,2.745,1.41,4.015c1.902,1.979,5.623,3.7,9.229,3.746c1.956,0.024,3.987-0.385,6.03-1.75
		c2.184-1.462,3.334-3.435,3.83-5.375 M381.17,271.104c0,0.012-0.005,1.53-0.134,2.488c-0.38,2.792-0.823,4.399-2.09,6.916
		c-1.236,2.455-2.224,3.744-4.181,5.673c-1.974,1.947-3.343,2.84-5.821,4.08c-2.413,1.21-3.935,1.595-6.568,2.189
		c-2.632,0.596-4.17,0.725-6.867,0.847c-2.472,0.111-3.874,0.007-6.343-0.163c-2.641-0.184-4.105-0.55-6.744-0.782
		c-2.178-0.189-3.41-0.367-5.595-0.36c-2.248,0.006-3.536,0.021-5.75,0.41c-2.063,0.366-3.233,0.657-5.175,1.444
		c-2.687,1.088-5.722,2.985-6.37,3.83c-0.646-0.845-3.68-2.742-6.368-3.83c-1.942-0.787-3.112-1.078-5.175-1.443
		c-2.213-0.39-3.5-0.405-5.75-0.41c-2.187-0.008-3.416,0.171-5.595,0.36c-2.638,0.232-4.103,0.601-6.744,0.783
		c-2.467,0.17-3.87,0.274-6.34,0.163c-2.697-0.122-4.236-0.25-6.868-0.847c-2.633-0.595-4.154-0.979-6.568-2.189
		c-2.48-1.24-3.847-2.133-5.822-4.08c-1.957-1.928-2.943-3.217-4.18-5.672c-1.266-2.518-1.71-4.123-2.09-6.916
		c-0.13-0.96-0.135-2.477-0.135-2.488V169.33H381.13v101.773h0.042H381.17z"/>
	<path fill="#C7B37F" stroke="#C7B37F" stroke-width="0.328" d="M247.942,285.645c0-1.381,1.12-2.5,2.5-2.5
		c1.381,0,2.5,1.119,2.5,2.5s-1.119,2.5-2.5,2.5C249.062,288.145,247.942,287.026,247.942,285.645z M232.59,267.974
		c0-1.236,0.79-2.24,1.765-2.24c0.976,0,1.767,1.004,1.767,2.24c0,1.237-0.79,2.24-1.767,2.24
		C233.38,270.214,232.589,269.211,232.59,267.974L232.59,267.974z"/>
	<path fill="#C7B37F" d="M241.312,223.59c0-1.016,0.764-1.84,1.706-1.84c0.94,0,1.705,0.824,1.705,1.84s-0.764,1.84-1.705,1.84
		C242.076,225.43,241.312,224.606,241.312,223.59z M271.942,157.958c-0.107-1.019,0.504-1.918,1.367-2.009
		c0.86-0.09,1.648,0.663,1.755,1.681c0.108,1.02-0.504,1.92-1.366,2.01c-0.864,0.09-1.65-0.663-1.758-1.682H271.942z"/>
	<path fill="none" stroke="#C7B37F" stroke-width="0.632" stroke-linecap="round" d="M239.31,233.946
		c-0.368,0.16-0.57,0.292-0.847,0.582c-0.264,0.277-0.32,0.378-0.523,0.83c-0.15,0.332-0.188,0.716-0.243,1.19 M242.413,263.296
		c0.347-0.42,0.557-0.648,0.89-1.08c0.278-0.36,0.443-0.558,0.688-0.94c0.22-0.345,0.318-0.555,0.513-0.916
		c0.273-0.508,0.41-0.804,0.67-1.317 M243.91,272.98c-0.592,0.271-0.942,0.391-1.517,0.696c-0.438,0.231-0.675,0.38-1.095,0.642
		c-0.426,0.261-0.841,0.54-1.244,0.836c-0.49,0.36-0.744,0.596-1.22,0.976 M253.798,238.24c-0.32-0.33-0.494-0.522-0.82-0.846
		c-0.343-0.337-0.53-0.536-0.896-0.846c-0.357-0.3-0.583-0.438-0.956-0.716"/>
	<path fill="none" stroke="#C7B37F" stroke-width="0.632" d="M254.19,224.94c-0.477,0.212-0.726,0.38-1.22,0.543
		c-0.566,0.188-0.95,0.284-1.498,0.311"/>
	<path fill="none" stroke="#C7B37F" stroke-width="0.632" stroke-linecap="round" d="M237.44,208.435
		c0.163,0.58,0.2,0.927,0.418,1.488c0.276,0.705,0.506,1.076,0.926,1.707c0.437,0.657,0.71,1.02,1.272,1.571
		c0.495,0.485,0.811,0.73,1.391,1.11c0.55,0.36,0.906,0.485,1.487,0.796 M241.946,209.248c0.484,0.26,0.734,0.456,1.244,0.667
		c0.46,0.189,0.733,0.27,1.22,0.383c0.656,0.149,1.04,0.188,1.715,0.204c0.73,0.017,0.946,0,1.866-0.15 M255.162,169.696
		c-0.798-0.466-1.286-0.67-2.046-1.193c-0.773-0.534-1.198-0.86-1.87-1.519c-0.485-0.473-0.757-0.75-1.16-1.294
		c-0.36-0.485-0.498-0.804-0.816-1.317 M256.768,159.82c0.25,0.67,0.322,1.078,0.642,1.718c0.434,0.867,0.77,1.322,1.423,2.039
		c0.905,0.994,1.672,1.275,2.742,2.091 M263.027,159.75c0.25,0.602,0.324,0.972,0.637,1.543c0.277,0.504,0.467,0.772,0.83,1.22
		c0.465,0.568,0.767,0.864,1.345,1.317c0.67,0.527,1.146,0.683,1.88,1.119"/>
	<path fill="#703D29" stroke="#703D29" stroke-width="0.177" d="M333.3,151.622c-0.052-1.695-1.722-1.87-2.362-1.87
		c-1.847,0-2.346,1.149-4.649,2.388c-2.888,1.55-4.13,1.895-6.698,1.918c-2.567-0.023-3.843-0.367-6.73-1.918
		c-2.305-1.237-2.693-2.352-4.54-2.352c-1.286,0.043-2.294,1.121-2.25,2.407c0,0.015,0.001,0.03,0.002,0.045
		c0,0-0.021,0.516,0.06,0.863c0.03,0.13,0.19,0.09,0.24,0.204c-0.025-0.77,0.132-1.168,0.51-1.685
		c0.488-0.664,1.297-0.841,1.626-0.841c1.847,0,2.53,1.186,4.835,2.423c2.887,1.55,4.13,1.895,6.697,1.918
		c2.565-0.023,3.844-0.367,6.731-1.918c2.304-1.237,2.966-2.521,4.813-2.521c0.641,0,1.092,0.414,1.3,1.066
		c0.13,0.399,0.058,0.67,0.09,0.828c0.018,0.076,0.112,0.069,0.134,0.152c0.063-0.297,0.214-0.404,0.191-1.107L333.3,151.622z"/>
	<path fill="#703D29" d="M264.397,294.03c0.518-0.56,0.91-0.35,1.006-0.606c0.07-0.19-0.082-0.21-0.293-0.288
		c-0.282-0.105-0.58-0.166-0.863-0.271c-0.292-0.109-0.557-0.26-0.85-0.369c-0.12-0.046-0.4-0.188-0.478,0.024
		c-0.148,0.393,1.024,0.358,0.63,1.41c-0.066,0.178-0.233,0.562-0.815,1.2l-2.65,2.883c-0.06,0.067-0.158,0.21-0.22,0.186
		c-0.061-0.022-0.05-0.199-0.052-0.287l0.038-4.091c0.004-0.776,0.07-1.352,0.196-1.688c0.175-0.47,0.716-0.076,0.83-0.378
		c0.07-0.19,0.016-0.197-0.306-0.318c-0.16-0.06-0.47-0.125-1.114-0.365c-0.342-0.128-0.668-0.3-1-0.425
		c-0.15-0.057-0.43-0.263-0.53,0.006c-0.03,0.08,0.077,0.195,0.104,0.218c0.37,0.267,0.464,0.442,0.472,0.942l0.073,7.446
		c0.006,0.537,0.063,0.686,0.165,0.724c0.109,0.042,0.186-0.007,0.406-0.256l5.25-5.7L264.397,294.03z"/>
	<path fill="#703D29" d="M267.488,295.18c0.34-1.08,0.979-0.43,1.103-0.816c0.044-0.137,0-0.176-0.308-0.271
		c-0.584-0.186-0.967-0.255-1.336-0.372c-0.36-0.113-0.744-0.285-1.145-0.41c-0.092-0.03-0.338-0.145-0.399,0.05
		c-0.125,0.397,1.134,0.444,0.807,1.48l-1.724,5.466c-0.34,1.082-0.986,0.553-1.11,0.952c-0.02,0.057-0.024,0.143,0.068,0.172
		c0.267,0.084,0.722,0.178,1.162,0.316c0.8,0.252,1.165,0.418,1.544,0.536c0.236,0.075,0.342,0.059,0.382-0.066
		c0.115-0.365-1.198-0.203-0.757-1.604L267.488,295.18z M271.187,296.275c0.204-0.687,0.523-0.592,0.904-0.479
		c1.042,0.31,1.368,1.327,1.036,2.449c-0.2,0.676-0.452,1.299-2.018,0.834c-0.31-0.093-0.69-0.205-0.606-0.492L271.187,296.275
		L271.187,296.275z M268.35,301.2c-0.428,1.443-1.15,0.818-1.26,1.186c-0.067,0.229,0.16,0.258,0.273,0.292
		c0.515,0.152,1.044,0.26,1.6,0.424c0.433,0.13,0.698,0.258,0.873,0.311c0.237,0.069,0.34,0.024,0.37-0.078
		c0.122-0.412-1.037-0.246-0.674-1.471l0.587-1.979c0.118-0.4,0.08-0.5,0.626-0.339c0.515,0.153,0.67,0.311,0.757,0.886l0.33,2.063
		c0.123,0.76,0.24,1.578,1.053,1.82c0.412,0.12,1.167,0.07,1.272-0.284c0.027-0.092-0.014-0.18-0.107-0.206
		c-0.102-0.029-0.225,0.008-0.33-0.022c-0.08-0.024-0.277-0.082-0.314-0.292c-0.315-1.663-0.7-3.582-0.68-3.65
		c0.035-0.116,0.365-0.13,0.74-0.305c0.382-0.187,0.806-0.521,1.023-1.254c0.156-0.528,0.428-2.203-1.828-2.87
		c-0.69-0.206-1.405-0.368-2.095-0.572c-0.65-0.191-0.718-0.263-1.192-0.402c-0.124-0.037-0.244-0.011-0.278,0.104
		c-0.122,0.41,1.127,0.32,0.747,1.604L268.35,301.2L268.35,301.2z M276.774,303.666c-0.33,1.383-1.378,0.541-1.487,0.994
		c-0.06,0.256,0.12,0.287,0.307,0.333c0.418,0.101,0.774,0.136,1.475,0.304c0.7,0.169,1.034,0.299,1.452,0.398
		c0.303,0.073,0.504,0.158,0.57-0.12c0.08-0.325-1.34-0.31-0.997-1.739l1.26-5.248c0.134-0.557,0.252-0.589,0.68-0.486l0.89,0.214
		c1.212,0.242,0.568,1.45,0.986,1.55c0.27,0.066,0.265-0.414,0.277-0.558l0.142-1.097c0.016-0.119,0.055-0.279-0.1-0.319
		c-0.973-0.232-1.685-0.354-3.21-0.72c-1.526-0.367-2.215-0.58-3.187-0.814c-0.156-0.038-0.195,0.124-0.234,0.238l-0.536,1.493
		c-0.057,0.145-0.18,0.386,0.038,0.439c0.47,0.11,0.522-1.484,1.703-1.2l0.878,0.211c0.428,0.102,0.521,0.185,0.385,0.742
		l-1.293,5.387L276.774,303.666z M289.472,300.43c0.414-0.641,0.836-0.502,0.886-0.772c0.037-0.2-0.117-0.191-0.34-0.232
		c-0.295-0.056-0.6-0.063-0.896-0.117c-0.306-0.058-0.593-0.16-0.9-0.216c-0.126-0.024-0.426-0.115-0.468,0.107
		c-0.076,0.41,1.072,0.174,0.867,1.278c-0.033,0.188-0.13,0.595-0.593,1.322l-2.11,3.3c-0.047,0.078-0.12,0.234-0.183,0.222
		c-0.063-0.01-0.085-0.186-0.103-0.274l-0.673-4.034c-0.133-0.765-0.167-1.343-0.102-1.694c0.09-0.494,0.692-0.2,0.75-0.518
		c0.038-0.2-0.018-0.198-0.355-0.26c-0.17-0.032-0.484-0.041-1.16-0.168c-0.359-0.065-0.71-0.18-1.06-0.244
		c-0.157-0.029-0.467-0.184-0.52,0.099c-0.015,0.082,0.11,0.178,0.14,0.196c0.41,0.197,0.534,0.354,0.63,0.845l1.364,7.319
		c0.1,0.53,0.183,0.666,0.288,0.686c0.116,0.021,0.182-0.04,0.355-0.323l4.182-6.522L289.472,300.43z M290.067,307.155
		c0.006,0.292-0.02,0.385,0.233,0.5c0.59,0.255,1.082,0.628,1.73,0.736c1.387,0.234,2.538-0.65,2.796-2.194
		c0.25-1.496-0.365-2.12-1.406-2.862c-1.304-0.933-1.862-1.184-1.73-1.973c0.132-0.788,0.684-1.154,1.384-1.038
		c1.823,0.306,1.615,2.522,1.86,2.563c0.232,0.04,0.288-0.098,0.31-0.36l0.147-1.598c0.026-0.274,0.087-0.445-0.072-0.472
		c-0.139-0.023-0.436,0.119-0.572,0.098c-0.318-0.053-0.686-0.587-1.556-0.732c-1.24-0.207-2.253,0.641-2.48,1.995
		c-0.207,1.236,0.342,1.8,1.178,2.4c1.567,1.122,2.21,1.387,2.042,2.388c-0.158,0.942-0.89,1.4-1.716,1.264
		c-1.176-0.197-1.654-1.381-1.804-2.566c-0.016-0.16-0.02-0.271-0.19-0.299c-0.265-0.045-0.216,0.315-0.212,0.485l0.061,1.668
		L290.067,307.155z M305.888,302.694c0.345-0.68,0.78-0.585,0.8-0.859c0.017-0.2-0.136-0.178-0.36-0.195
		c-0.3-0.025-0.605,0-0.905-0.024c-0.31-0.024-0.607-0.096-0.918-0.12c-0.128-0.01-0.436-0.069-0.454,0.155
		c-0.032,0.418,1.085,0.063,0.997,1.183c-0.015,0.189-0.07,0.604-0.453,1.377l-1.753,3.504c-0.038,0.08-0.094,0.244-0.158,0.24
		c-0.064-0.009-0.105-0.178-0.13-0.264l-1.09-3.943c-0.212-0.746-0.307-1.316-0.28-1.674c0.04-0.5,0.67-0.27,0.694-0.593
		c0.016-0.202-0.038-0.194-0.38-0.22c-0.173-0.014-0.487,0.01-1.173-0.045c-0.364-0.03-0.724-0.105-1.078-0.133
		c-0.16-0.014-0.485-0.135-0.508,0.149c-0.007,0.085,0.128,0.167,0.16,0.183c0.428,0.152,0.568,0.295,0.714,0.774l2.123,7.136
		c0.154,0.517,0.25,0.644,0.359,0.65c0.116,0.01,0.176-0.057,0.318-0.357l3.478-6.926L305.888,302.694z"/>
	<path fill="#703D29" d="M307.584,308.48c-0.01,1.218-1.04,0.994-1.045,1.472c-0.002,0.203,0.213,0.146,0.33,0.146
		c0.292,0,0.582-0.043,0.926-0.04c0.376,0.007,0.74,0.055,1.268,0.06c0.14,0,0.408,0.015,0.41-0.152
		c0.004-0.561-1.38,0.24-1.359-2.054l0.037-4.06c0-0.108,0.024-0.19,0.088-0.19c0.054,0,0.118,0.061,0.192,0.156l5.115,6.255
		c0.075,0.096,0.128,0.168,0.278,0.17c0.13,0,0.13-0.095,0.133-0.357l0.058-6.698c0.01-1.254,0.922-0.96,0.925-1.318
		c0-0.036,0-0.155-0.204-0.157c-0.098,0-0.474,0.043-1.15,0.037c-0.742-0.007-1.053-0.057-1.225-0.058
		c-0.141,0-0.172,0.118-0.173,0.2c-0.003,0.395,1.31,0.191,1.3,1.277l-0.034,3.978c-0.004,0.298-0.026,0.44-0.09,0.44
		c-0.065,0-0.192-0.145-0.33-0.313l-4.275-5.303c-0.189-0.229-0.062-0.311-0.405-0.313c-0.57-0.006-0.85,0.04-1.13,0.038
		c-0.203,0-0.396-0.05-0.6-0.053c-0.13,0-0.184,0.093-0.185,0.2c-0.006,0.574,1.205-0.192,1.185,2.1L307.584,308.48z
		 M317.99,303.104c0.01-1.134,0.813-0.697,0.816-1.104c0-0.143-0.052-0.166-0.375-0.17c-0.61-0.006-0.998,0.041-1.385,0.036
		c-0.376,0-0.795-0.055-1.214-0.058c-0.096,0-0.364-0.04-0.366,0.164c-0.003,0.418,1.154,0.094,1.145,1.18l0.01,5.732
		c-0.01,1.134-0.78,0.816-0.784,1.234c0,0.059,0.02,0.143,0.117,0.144c0.28,0.007,0.743-0.04,1.205-0.037
		c0.838,0.007,1.235,0.058,1.633,0.062c0.247,0,0.344-0.045,0.345-0.176c0.003-0.382-1.205,0.157-1.191-1.312l0.05-5.696H317.99z
		 M322.496,308.653c0.013,1.42-1.207,0.858-1.203,1.324c0.003,0.263,0.186,0.25,0.38,0.247c0.429-0.006,0.782-0.054,1.503-0.06
		c0.721-0.008,1.075,0.037,1.504,0.033c0.313,0,0.527,0.03,0.525-0.255c-0.003-0.335-1.375,0.023-1.389-1.444l-0.047-5.397
		c-0.004-0.572,0.103-0.633,0.543-0.637l0.912-0.007c1.236-0.059,0.904,1.27,1.334,1.266c0.278,0,0.156-0.467,0.133-0.61
		l-0.127-1.097c-0.013-0.12-0.014-0.287-0.174-0.285c-1,0.01-1.719,0.063-3.287,0.076c-1.57,0.013-2.291-0.028-3.291-0.02
		c-0.16,0-0.16,0.17-0.17,0.289l-0.157,1.577c-0.021,0.155-0.082,0.418,0.144,0.416c0.483-0.007,0.147-1.565,1.36-1.577l0.904-0.01
		c0.439-0.005,0.549,0.057,0.554,0.63L322.496,308.653z M328.755,306.394c-0.192,0.015-0.342,0.04-0.35-0.08
		c-0.015-0.167,0.04-0.303,0.082-0.45l0.659-2.172c0.043-0.135,0.084-0.15,0.106-0.152c0.054-0.007,0.021,0,0.093,0.088l1.049,2.087
		c0.064,0.138,0.14,0.264,0.152,0.43c0.008,0.12-0.142,0.12-0.335,0.135L328.755,306.394L328.755,306.394z M330.595,306.896
		c0.278-0.022,0.341,0.093,0.769,0.993c0.143,0.31,0.234,0.52,0.256,0.782c0.056,0.726-0.715,0.655-0.688,1
		c0.013,0.167,0.149,0.132,0.342,0.116c0.311-0.025,0.705-0.104,1.176-0.142c0.707-0.055,1-0.03,1.386-0.06
		c0.29-0.024,0.388-0.008,0.372-0.211c-0.03-0.393-0.573,0.117-0.982-0.699l-3.467-7.061c-0.168-0.345-0.189-0.367-0.288-0.359
		c-0.14,0.012-0.175,0.24-0.234,0.438l-2.337,7.43c-0.215,0.688-0.768,0.66-0.745,0.934c0.013,0.154,0.18,0.117,0.329,0.105
		c0.313-0.024,0.621-0.098,0.94-0.123c0.343-0.026,0.668-0.006,1.011-0.029c0.226-0.021,0.564,0.038,0.545-0.212
		c-0.025-0.32-1.168-0.038-1.235-0.896c-0.022-0.286,0.095-0.714,0.149-0.958c0.187-0.805,0.407-0.87,0.591-0.885l2.109-0.165
		L330.595,306.896z M338.9,301.946c-0.11-0.816-0.068-0.835,1.222-1.004c2.056-0.27,1.407,1.223,1.908,1.157
		c0.245-0.033,0.14-0.416,0.109-0.57l-0.196-1.165c-0.016-0.106-0.104-0.215-0.243-0.197c-0.938,0.123-1.667,0.268-2.423,0.367
		c-1.631,0.215-2.404,0.269-2.84,0.326c-0.15,0.02-0.223,0.126-0.209,0.233c0.061,0.473,1.215-0.064,1.356,1l0.729,5.542
		c0.19,1.443-0.705,0.912-0.633,1.456c0.01,0.071,0.08,0.122,0.221,0.104c0.585-0.076,1.026-0.184,1.356-0.227
		c0.47-0.063,0.87-0.066,1.274-0.12c0.266-0.035,0.496-0.017,0.465-0.254c-0.043-0.32-1.208,0.135-1.38-1.181l-0.232-1.75
		c-0.09-0.688-0.149-0.823,0.341-0.89l0.786-0.102c1.108-0.146,0.976,1.147,1.316,1.103c0.257-0.034,0.137-0.45,0.106-0.604
		l-0.353-2.097c-0.053-0.319-0.167-0.28-0.24-0.27c-0.214,0.028-0.103,1.122-1.02,1.242l-0.671,0.09
		c-0.459,0.06-0.47-0.024-0.536-0.533l-0.218-1.657L338.9,301.946z M342.83,304.659c0.439,2.384,2.16,3.703,4.285,3.311
		c3.37-0.625,3.481-3.62,3.177-5.265c-0.46-2.49-2.315-3.713-4.372-3.307C343.4,299.889,342.352,302.086,342.83,304.659
		L342.83,304.659z M344.004,303.75c-0.314-1.703-0.087-3.422,1.692-3.789c1.359-0.275,2.899,0.848,3.38,3.442
		c0.363,1.95,0.063,3.632-1.748,4.004c-1.885,0.386-3.006-1.944-3.324-3.659V303.75z M352.34,299.59
		c-0.168-0.696,0.156-0.774,0.543-0.867c1.055-0.253,1.848,0.465,2.12,1.603c0.164,0.686,0.258,1.351-1.33,1.732
		c-0.313,0.075-0.7,0.168-0.77-0.122L352.34,299.59L352.34,299.59z M352.345,305.275c0.351,1.463-0.587,1.283-0.497,1.654
		c0.056,0.229,0.267,0.144,0.381,0.116c0.521-0.125,1.033-0.297,1.598-0.433c0.439-0.105,0.732-0.127,0.91-0.17
		c0.24-0.057,0.307-0.147,0.281-0.252c-0.1-0.418-1.021,0.308-1.319-0.937l-0.482-2.008c-0.098-0.406-0.18-0.473,0.374-0.605
		c0.522-0.125,0.735-0.066,1.098,0.387l1.32,1.623c0.484,0.596,0.994,1.247,1.82,1.05c0.418-0.1,1.046-0.522,0.96-0.883
		c-0.022-0.092-0.103-0.147-0.196-0.124c-0.104,0.025-0.191,0.12-0.297,0.145c-0.083,0.021-0.282,0.068-0.42-0.095
		c-1.104-1.282-2.396-2.753-2.413-2.821c-0.028-0.116,0.25-0.295,0.49-0.635c0.235-0.352,0.435-0.854,0.256-1.597
		c-0.128-0.534-0.729-2.12-3.019-1.572c-0.699,0.171-1.399,0.386-2.1,0.554c-0.658,0.158-0.753,0.133-1.234,0.248
		c-0.125,0.029-0.216,0.113-0.188,0.229c0.1,0.42,1.136-0.284,1.448,1.017l1.227,5.109L352.345,305.275z M360.966,303.347
		c0.356,1.376-0.963,1.125-0.846,1.575c0.065,0.255,0.24,0.197,0.427,0.15c0.416-0.109,0.747-0.244,1.444-0.424
		c0.698-0.182,1.054-0.224,1.47-0.332c0.3-0.078,0.518-0.097,0.447-0.375c-0.084-0.323-1.33,0.357-1.697-1.064l-1.35-5.227
		c-0.146-0.555-0.057-0.64,0.369-0.75l0.886-0.228c1.185-0.356,1.184,1.013,1.6,0.905c0.271-0.069,0.04-0.491-0.017-0.625
		l-0.391-1.033c-0.039-0.112-0.082-0.274-0.237-0.233c-0.968,0.25-1.653,0.478-3.173,0.87c-1.52,0.392-2.228,0.526-3.194,0.776
		c-0.156,0.04-0.115,0.202-0.095,0.319l0.228,1.57c0.019,0.156,0.021,0.426,0.24,0.37c0.468-0.12-0.236-1.555,0.94-1.86l0.873-0.225
		c0.428-0.11,0.545-0.08,0.69,0.475L360.966,303.347L360.966,303.347z M366.464,296.013c-0.303-1.093,0.588-0.895,0.48-1.286
		c-0.038-0.138-0.097-0.146-0.407-0.06c-0.59,0.163-0.95,0.313-1.323,0.416c-0.362,0.1-0.78,0.166-1.183,0.277
		c-0.094,0.027-0.36,0.064-0.307,0.261c0.111,0.402,1.192-0.244,1.482,0.803l1.532,5.522c0.303,1.093-0.526,1-0.414,1.404
		c0.016,0.058,0.06,0.132,0.151,0.106c0.271-0.074,0.702-0.244,1.147-0.367c0.808-0.226,1.204-0.286,1.587-0.393
		c0.24-0.066,0.32-0.138,0.284-0.264c-0.103-0.368-1.115,0.482-1.508-0.934L366.464,296.013L366.464,296.013z M368.755,298.682
		c0.771,2.298,2.657,3.367,4.705,2.68c3.25-1.086,2.945-4.069,2.414-5.653c-0.803-2.4-2.81-3.354-4.79-2.666
		C368.656,293.88,367.926,296.201,368.755,298.682L368.755,298.682z M369.793,297.616c-0.55-1.642-0.563-3.375,1.148-3.985
		c1.308-0.46,2.989,0.436,3.828,2.939c0.629,1.88,0.565,3.587-1.176,4.208c-1.813,0.645-3.247-1.508-3.8-3.16L369.793,297.616z
		 M377.42,292.198c-0.262-0.666,0.048-0.788,0.418-0.934c1.01-0.398,1.895,0.204,2.323,1.292c0.26,0.656,0.444,1.302-1.076,1.9
		c-0.3,0.119-0.67,0.264-0.78-0.015l-0.883-2.244H377.42z M378.217,297.827c0.553,1.398-0.402,1.351-0.263,1.706
		c0.088,0.223,0.285,0.107,0.396,0.063c0.5-0.197,0.979-0.438,1.52-0.65c0.42-0.166,0.71-0.228,0.878-0.295
		c0.229-0.09,0.284-0.19,0.245-0.29c-0.158-0.399-0.969,0.447-1.437-0.742l-0.758-1.922c-0.153-0.39-0.244-0.442,0.286-0.651
		c0.5-0.197,0.72-0.168,1.141,0.229l1.532,1.425c0.563,0.523,1.158,1.098,1.948,0.786c0.4-0.157,0.964-0.662,0.828-1.006
		c-0.035-0.09-0.12-0.132-0.21-0.097c-0.101,0.04-0.175,0.146-0.275,0.185c-0.08,0.03-0.27,0.106-0.43-0.036
		c-1.271-1.115-2.755-2.392-2.78-2.46c-0.045-0.109,0.206-0.323,0.395-0.693c0.186-0.38,0.313-0.906,0.033-1.617
		c-0.199-0.51-1.018-1.998-3.207-1.135c-0.671,0.264-1.332,0.575-2.003,0.84c-0.63,0.248-0.728,0.234-1.188,0.416
		c-0.12,0.05-0.198,0.143-0.154,0.254c0.157,0.399,1.086-0.44,1.576,0.804l1.925,4.89L378.217,297.827z"/>
	<path fill="#D52B1E" d="M264.103,175.52h52.595v52.495h-52.595V175.52z"/>
	<path id="a" fill="#FFFFFF" d="M288.768,216.851c0,0-0.031,1.875-0.547,3.384c-0.597,1.741-0.602,1.741-1.149,2.588
		c-0.738,1.139-1.637,1.973-2.438,2.487c-1.254,0.806-2.528,1.208-3.808,1.095c-3.514-0.312-5.144-4.122-5.94-7.215
		c-0.845-3.283-3.247-5.071-4.776-3.881c-0.896,0.697-0.947,1.865-0.199,2.985c0.795,1.194,2.623,1.792,2.623,1.792l-1.877,2.388
		c0,0-4.033-0.525-4.822-4.731c-0.298-1.592,0.475-4.565,3.13-5.454c3.391-1.135,5.56,1.283,6.604,3.323
		c1.437,2.806,2.055,7.958,6.035,7.161c2.165-0.433,3.184-3.582,3.184-5.025l1.579-1.691l2.339,0.746l0.064,0.051V216.851z"/>
	<path id="a_1_" fill="#FFFFFF" d="M292.045,216.851c0,0,0.03,1.875,0.547,3.384c0.597,1.741,0.602,1.741,1.149,2.588
		c0.738,1.139,1.637,1.973,2.438,2.487c1.254,0.806,2.528,1.208,3.808,1.095c3.514-0.312,5.144-4.122,5.94-7.215
		c0.845-3.283,3.247-5.071,4.776-3.881c0.896,0.697,0.947,1.865,0.199,2.985c-0.796,1.194-2.623,1.792-2.623,1.792l1.877,2.388
		c0,0,4.033-0.525,4.822-4.731c0.299-1.592-0.475-4.565-3.129-5.454c-3.391-1.135-5.56,1.283-6.605,3.323
		c-1.437,2.806-2.054,7.958-6.035,7.161c-2.165-0.433-3.184-3.582-3.184-5.025l-1.579-1.691l-2.338,0.746l-0.064,0.051V216.851z"/>
	<path fill="#FEDF00" d="M295.117,194.528l6.886-7.451c0,0,1.04-0.839,1.031-2.177l-1.421,0.221l-0.317-0.729l-0.071-0.734
		l1.907-0.403c0.032-0.31,0.005-0.544,0.06-0.886c0.052-0.316,0.122-0.486,0.199-0.796l-2.089,0.139
		c0.106-0.364,0.082-0.56,0.199-0.899c0.099-0.286,0.126-0.396,0.323-0.706c0.388-0.058,0.741-0.146,1.22-0.194
		c0.466-0.048,0.732-0.025,1.199-0.055c1.139-2.125,5.882-4.079,9.251-0.579c2.438,2.533,1.913,7.181-1.248,8.409
		c-1.791,0.696-3.234,0.284-4.391-0.71l1.261-2.475c1.741,1.04,3.184-0.254,3.085-1.597c-0.126-1.699-1.229-2.75-2.787-2.887
		c-1.442-0.126-2.478,0.699-3.134,1.99c-0.401,0.787-0.215,1.366-0.348,2.24c-0.145,0.948-0.064,1.479-0.344,2.438
		c-0.205,0.695-0.739,1.557-1.517,2.298l-7.06,7.639l-27.481,29.725l-2.066-1.909L295.117,194.528L295.117,194.528z"/>
	<path fill="#FFFFFF" d="M274.887,197.146c0,0,1.728,8.558,7.599,21.395c2.986-1.094,4.749-1.79,7.912-1.79
		c3.164,0,4.926,0.597,7.912,1.792c5.872-12.839,7.599-21.396,7.599-21.396l-15.511-19.953L274.887,197.146z"/>
	<path fill="#FEDF00" d="M291.917,183.943l10.765,13.848c0,0-1.436,6.732-5.81,16.866c-1.693-0.384-3.146-0.722-4.949-0.844
		l-0.007-29.868L291.917,183.943z M288.883,183.943l-10.765,13.848c0,0,1.436,6.732,5.81,16.866
		c1.694-0.384,3.146-0.722,4.949-0.844l0.006-29.868L288.883,183.943z"/>
	<path fill="#FEDF00" d="M322.304,175.52H374.9v52.495h-52.597V175.52z"/>
	<path fill="#D52B1E" d="M329.67,175.52h7.842v52.495h-7.842V175.52z M344.698,175.52h7.842v52.495h-7.842V175.52z M359.725,175.52
		h7.842v52.495h-7.842V175.52z"/>
	<path fill="#FEDF00" d="M264.3,273.542c0.15,0.945,0.487,2.567,1.385,4.229c0.945,1.493,0.597,1.452,2.737,3.84
		c1.053,1.177,2.696,2.184,3.985,2.877c1.294,0.696,2.25,1.038,4.38,1.597c4.17,1.095,7.097,1.163,10.606,1.022
		c2.738-0.109,4.828-0.446,6.56-0.68c2.468-0.332,4.307-0.53,7.115-0.647c1.365-0.057,2.655-0.069,3.93,0
		c1.54,0.085,3.06,0.323,4.678,0.647c3.483,0.696,7.016,2.04,7.016,2.04l0.01-54.82l-52.605-0.014v37.467
		C264.097,271.101,264.205,272.931,264.3,273.542L264.3,273.542z"/>
	<path fill="#D52B1E" stroke="#D52B1E" stroke-width="0.328" d="M270.406,283.155l2.466,1.436l3.378,1.215l-0.004-52.177h-5.84
		V283.155z M299.63,285.53l0.006-51.903h-5.852v52.733c0,0,4.005-0.514,5.844-0.633L299.63,285.53z M311.302,233.632h-5.832v52.084
		c1.9,0.205,3.855,0.545,5.844,1.077L311.302,233.632L311.302,233.632z M287.95,233.632v53.332c-0.06,0.006-3.906,0.202-5.872-0.002
		v-53.32L287.95,233.632z"/>
	<path fill="#FEDF00" d="M374.707,273.53c-0.148,0.945-0.486,2.567-1.385,4.229c-0.944,1.493-0.596,1.452-2.735,3.84
		c-1.054,1.176-2.697,2.184-3.986,2.877c-1.292,0.698-2.25,1.039-4.377,1.597c-4.173,1.095-7.099,1.163-10.608,1.023
		c-2.739-0.109-4.829-0.447-6.561-0.68c-2.469-0.332-4.307-0.529-7.115-0.646c-1.365-0.058-2.656-0.07-3.931,0
		c-1.54,0.084-3.061,0.323-4.679,0.646c-3.481,0.697-7.061,2.04-7.061,2.04l0.037-54.819l52.604-0.016v37.468
		c0,0-0.107,1.83-0.203,2.438V273.53z"/>
	<path fill="#D52B1E" d="M335.757,238.023c0,0-0.234,0.111-0.38,0.179c-0.191,0.211-0.286,0.333-0.5,0.521
		c-0.283,0.249-0.492,0.321-0.8,0.539c-0.147,0.104-0.269,0.139-0.381,0.28c-0.159,0.205-0.05,0.403-0.159,0.64
		c-0.119,0.26-0.236,0.383-0.42,0.601c-0.234,0.278-0.416,0.391-0.68,0.64c-0.268,0.253-0.376,0.465-0.7,0.641
		c-0.086,0.046-0.128,0.091-0.221,0.119c-0.138,0.043-0.224-0.006-0.36,0.04c-0.248,0.086-0.326,0.36-0.499,0.461
		c0.07,0.139,0.067,0.236,0.14,0.379c0.102,0.207,0.451,0.778,0.52,0.92c0.135,0.195,0.173,0.448,0.341,0.499
		c0.344,0.109,0.549,0.1,0.839,0.081c0.508,0.116,0.82,0.102,1.3,0.301c0.393,0.162,0.553,0.367,0.94,0.539
		c0.304,0.135,0.494,0.218,0.819,0.281c0.249,0.047,0.391,0.084,0.64,0.06c0.16-0.016,0.242-0.077,0.401-0.1
		c0.032-0.007,0.051,0,0.08,0l-0.02,0.24c-0.004,0,0.003,0.019,0,0.021v0.039h0.04l1.318,0.58c-0.05,0.075-0.09,0.155-0.119,0.24
		c-0.063,0.205-0.073,0.441-0.041,0.54c0.404,1.208,0.743,1.963,0.941,2.04c0.394,0.15,0.516,0.553,0.74,0.96
		c-0.079,0.084-0.146,0.128-0.221,0.199c-0.393,0.378-0.737,0.646-1.06,1.16c-0.478,0.76-0.799,0.77-0.2,1.778
		c0.353,0.593,0.521,0.704,0.979,1.541c0.232,0.421,0.36,0.75,0.501,1.26c0.132,0.481,0.178,0.762,0.2,1.261l0.618,0.239
		l0.421-0.421l0.399-0.76l0.02-0.579c-0.153-0.13-0.197-0.304-0.16-0.501c0.045-0.235,0.329-0.186,0.461-0.4
		c0.181-0.294-0.213-0.47-0.421-0.699c-0.388-0.429-0.915-0.533-1.04-1.18c-0.033-0.175,0.05-0.273,0.24-0.461
		c0.548-0.538,0.723-0.622,1.261-1.158c0.153,0.089,0.39,0.122,0.619,0.079c0.18-0.034,0.339,0.08,0.9,0.24
		c0.39,0.11,0.559,0.055,0.78,0.019l0.239-0.06c0.032,0.135,0.07,0.266,0.08,0.44c0.034,0.68-0.099,1.917,0.101,2.239
		c0.084,0.138,0.119,0.214,0.18,0.361c0.064,0.153,0.137,0.254,0.141,0.42c0.007,0.445,0.029,0.729,0,1.2
		c-0.028,0.441-0.066,0.667-0.141,1.12c-0.047,0.288-0.105,0.457-0.279,0.68c-0.182,0.232-0.381,0.268-0.621,0.439l-0.059,0.641
		l0.72,0.301l0.819,0.198l0.44-0.179c0-0.163,0.025-0.257,0.1-0.4c0.082-0.158,0.148-0.281,0.301-0.339
		c0.231-0.093,0.486,0.081,0.579-0.062c0.103-0.154,0.039-0.216,0.021-0.479c-0.03-0.424-0.118-0.634-0.181-1.061
		c-0.105-0.711-0.135-1.079-0.1-1.76c0.02-0.395,0.025-0.612,0.1-1c0.11-0.565,0.312-0.839,0.44-1.4
		c0.145-0.625,0.17-1.027,0.24-1.579c2.028,0.289,3.717,0.254,5.98-0.24c0.108-0.023,0.479-0.16,0.479-0.16
		c0.512,0.441,1.092,0.809,1.74,1.04c-0.004,0.064-0.01,0.541,0,0.619c0.023,0.185-0.026,0.309,0.08,0.461
		c0.067,0.097,0.125,0.153,0.239,0.18c0.169,0.038,0.292,0.015,0.421-0.101c0.144-0.128,0.117-0.29,0.16-0.479
		c0.019-0.09,0.004-0.361,0-0.439c0.233,0.035,0.313,0.039,0.559,0.039c0.229,0,0.34,0.01,0.561-0.019
		c0.002,0.051,0.013,0.235,0.02,0.299c0.017,0.156-0.049,0.278,0.019,0.42c0.071,0.147,0.16,0.23,0.32,0.261
		c0.116,0.029,0.241,0.008,0.341-0.061c0.189-0.118,0.168-0.318,0.2-0.54c0.009-0.07,0.006-0.443,0-0.5
		c0.136-0.043,0.529-0.188,0.659-0.24c-0.006,0.175-0.026,0.349-0.06,0.52c-0.045,0.241-0.077,0.371-0.16,0.601
		c-0.132,0.363-0.282,0.548-0.48,0.88c-0.24,0.406-0.366,0.631-0.659,1c-0.135,0.17-0.229,0.247-0.36,0.42
		c-0.164,0.216-0.22,0.362-0.38,0.58c-0.208,0.28-0.327,0.464-0.601,0.68c-0.444,0.353-0.736,0.07-1.34,0.54l-0.141,0.659
		l0.92,0.341l0.821,0.16l0.279-0.16c-0.007-0.192,0.021-0.329,0.141-0.48c0.137-0.173,0.281-0.224,0.499-0.26
		c0.231-0.039,0.479,0.021,0.661-0.14c0.224-0.198,0.224-0.585,0.399-0.941c0.551-1.103,1.037-1.64,1.92-2.499
		c0.393-0.382,0.729-0.485,1.061-0.92c0.157-0.206,0.333-0.301,0.339-0.561c0.007-0.182-0.091-0.266-0.139-0.439
		c-0.066-0.242-0.12-0.641-0.12-0.641c0.973,0.477,0.621,0.414,0.8,0.9c0.144,0.394-0.021,0.665,0.039,1.079
		c0.071,0.484,0.299,0.713,0.34,1.2c0.05,0.579-0.092,0.909-0.199,1.48c-0.096,0.502-0.084,0.817-0.301,1.28
		c-0.205,0.441-0.365,0.688-0.739,0.999c-0.135,0.112-0.237,0.16-0.38,0.261l-0.08,0.659l0.721,0.24l1.04,0.28l0.24-0.22
		c0.105-0.419-0.034-1.035,0.261-1.08c0.26-0.04,0.443,0,0.5-0.2c0.022-0.084,0.037-0.208,0.059-0.399
		c0.141-1.207,0.271-2.334,0.4-2.88c0.147-0.62,0.138-0.754,0.261-1.221c0.111-0.425-0.056-0.181,0.26-1.08
		c0.47-1.342-0.134-1.52-0.681-2.34c-0.296-0.443-0.398-0.604-0.439-0.96c-0.063-0.522,0.104-0.957,0.08-1.76
		c-0.025-0.845-0.015-1.383,0-1.84c0.073-0.034,0.142-0.077,0.22-0.12c0.749-0.411,1.047-0.535,1.52-1.581
		c0.135-0.295,0.203-0.615,0.2-0.939c-0.004-0.212-0.042-0.417-0.061-0.66c-0.02-0.256-0.121-0.407-0.199-0.6
		c-0.084-0.203-0.209-0.358-0.361-0.54c-0.494-0.592-1.139-0.725-1.739-0.941c-0.95-0.339-1.604-0.276-2.641-0.358
		c-1.07-0.085-1.668-0.102-2.74-0.04c-1.284,0.074-2.002,0.333-3.28,0.48c-1.226,0.143-1.905,0.236-3.14,0.26
		c-1.446,0.027-2.829-0.294-3.699-0.22c-1.567,0.135-1.596,0.487-3.96,0.681c-0.818,0.063-1.639,0.104-2.46,0.119l-1.381-0.439
		c0.548-0.196,0.683-0.313,0.94-0.659c0.173-0.235,0.148-0.436,0.359-0.681c0.171-0.2,0.284-0.398,0.5-0.621
		c-0.176-0.14-0.381-0.235-0.6-0.279c-0.232-0.049-0.367-0.026-0.6,0c-0.316,0.036-0.494,0.079-0.781,0.221
		c-0.229,0.113-0.398,0.229-0.539,0.379c0,0-0.822-0.529-1.4-0.779c-0.717-0.311-1.023-0.456-1.92-0.58L335.757,238.023z
		 M337.018,245.642h0.038c-0.006,0.007-0.011,0.015-0.019,0.02L337.018,245.642z"/>
	<path fill="none" stroke="#FEDF00" stroke-width="0.987" stroke-linecap="round" d="M364.013,246.093l-0.488,0.156
		c-0.555,0.257-1.01,0.267-1.664,0.317c-1.692,0.129-2.733-0.677-4.479-0.542c-0.899,0.068-1.297,0.761-2.214,0.99
		c-0.357,0.094-0.722,0.155-1.09,0.181l0.328-0.661c0,0-0.822,0.166-1.354,0.168c-0.327,0.006-0.654-0.022-0.976-0.083l0.651-0.608
		c0,0-0.521-0.085-0.828-0.215c-0.246-0.098-0.475-0.233-0.678-0.403c0.363-0.06,0.725-0.135,1.081-0.226
		c0.996-0.246,1.306-0.734,2.49-0.848c0.735-0.072,1.94-0.03,4.892,0.458c1.941,0.321,2.803,0.171,3.542-0.165
		c0.486-0.221,0.646-0.646,0.706-1.145c0.059-0.497-0.259-0.898-0.56-1.158c-0.079-0.068-0.284-0.215-0.712-0.232"/>
	<path fill="#FCD900" stroke="#FEDF00" stroke-width="0.513" d="M335.872,240.39c-0.339-0.042-0.565,0.007-0.857,0.187
		c-0.308,0.19-0.346,0.447-0.568,0.732c0.284,0.063,0.448,0.23,0.73,0.162c0.222-0.054,0.337-0.152,0.486-0.325
		c0.203-0.232,0.277-0.433,0.275-0.739L335.872,240.39L335.872,240.39z"/>
	<path fill="none" stroke="#FEDF00" stroke-width="0.987" stroke-linecap="round" d="M343.065,248.825c0,0,0.169,0.308,0.261,0.512
		c0.158,0.354,0.24,0.563,0.335,0.939c0.128,0.512,0.074,0.821,0.155,1.343c0.014,0.091,0.032,0.168,0.049,0.24l-0.032,0.724
		 M348.186,248.134c0,0-0.141,0.52-0.227,0.854c-0.226,0.866-0.433,1.336-0.604,2.214c-0.029,0.147-0.051,0.283-0.066,0.412
		 M340.339,249.069c0.506,0.112,0.349,2.15,1.146,2.618"/>
	<path fill="none" stroke="#FEDF00" stroke-width="0.987" d="M358.477,252.659l0.246-0.16c0.644-0.264,1.229-0.653,1.719-1.146"/>
	<path fill="none" stroke="#FEDF00" stroke-width="0.987" stroke-linecap="round" d="M353.523,251.532h0.004
		c2.262-0.564,3.767-1.694,4.852-1.837"/>
	<path fill="none" stroke="#FEDF00" stroke-width="0.987" stroke-linecap="round" d="M355.82,248.71
		c0.192-0.007,0.375-0.021,0.531-0.044c0.939-0.134,1.09,0.44,1.744,0.806c1.188,0.666,1.343,1.477,2.752,2.147
		c0.074,0.035,0.143,0.068,0.205,0.1l0.543,0.275"/>
	<path fill="#FCD900" stroke="#FEDF00" stroke-width="0.513" d="M331.328,242.899c0.172,0.043,0.276,0.052,0.452,0.035
		c0.213-0.02,0.31-0.152,0.523-0.16c0.173-0.007,0.296-0.02,0.438,0.081c0.09,0.063,0.128,0.121,0.179,0.219
		c0.057,0.105,0.104,0.18,0.08,0.298c-0.039,0.182-0.207,0.268-0.394,0.269c-0.151,0-0.277-0.039-0.348-0.174
		c-0.045-0.075-0.054-0.167-0.026-0.25c-0.181,0.069-0.313,0.072-0.496,0.012C331.561,243.178,331.414,243.06,331.328,242.899
		L331.328,242.899z"/>
	<path fill="#0065BD" d="M336.083,249.069c-0.51-0.151-1.258-0.528-1.258-0.528c0.206-0.16,0.376-0.17,0.552-0.355
		c0.25-0.263,0.239-0.506,0.38-0.845c0.138-0.333,0.118-0.61,0.429-0.859c0.186-0.147,0.488-0.173,0.717-0.105
		c0.226,0.072,0.485,0.256,0.542,0.49c0.088,0.358-0.103,0.566-0.157,0.931c-0.055,0.363-0.188,0.571-0.124,0.934
		c0.042,0.24,0.146,0.333,0.227,0.581C337.39,249.311,336.58,249.215,336.083,249.069L336.083,249.069z M335.449,249.677
		c-0.003-0.223,0.174-0.405,0.396-0.408c0.222-0.004,0.404,0.173,0.408,0.396c0.003,0.221-0.174,0.403-0.395,0.408
		c-0.222,0.004-0.405-0.172-0.41-0.394C335.449,249.679,335.449,249.678,335.449,249.677z M334.323,239.111
		c0,0-0.058-0.039-0.093-0.066c-0.244-0.199-0.269-0.418-0.383-0.711c-0.111-0.277-0.166-0.441-0.203-0.738
		c-0.031-0.26,0-0.41,0-0.671c0-0.237,0.025-0.37,0-0.604c-0.025-0.239-0.019-0.392-0.134-0.604
		c-0.063-0.115-0.253-0.216-0.201-0.27c0.06-0.062,0.164-0.013,0.269,0c0.256,0.032,0.403,0.106,0.604,0.27
		c0.24,0.195,0.336,0.364,0.429,0.672c0.107,0.35,0.16,0.574,0.261,0.938c0.054,0.189,0.084,0.301,0.183,0.47
		c0.103,0.176,0.204,0.245,0.335,0.403l-0.006,0.015c-0.192,0.208-0.285,0.344-0.498,0.532c-0.195,0.173-0.358,0.259-0.542,0.367
		l-0.021-0.007L334.323,239.111z M336.627,245.92l1.428,0.659c0.735-0.406,1.583-1.231,2.238-2.508
		c0.563-1.1,0.652-1.696,0.873-2.761l-1.145-0.372l-0.229,0.047c-0.354,1.104-0.443,1.731-1.036,2.684
		c-0.513,0.825-1.1,1.475-1.696,1.941L336.627,245.92L336.627,245.92z M339.789,257.517c0.23-0.315,0.328-0.519,0.59-0.81
		c0.292-0.323,0.512-0.449,0.84-0.735c0.1,0.01,0.214-0.008,0.307,0.045c-0.017,0.349-0.035,0.607-0.115,0.986
		c-0.063,0.308-0.119,0.478-0.221,0.774c-0.087,0.248-0.103,0.41-0.25,0.627c-0.099,0.145-0.186,0.202-0.305,0.331
		C340.309,258.261,339.783,257.906,339.789,257.517L339.789,257.517z M360.915,258.7c0.367,0.135,0.589,0.173,0.94,0.345
		c0.391,0.191,0.572,0.368,0.938,0.604c0.018,0.099,0.067,0.205,0.04,0.31c-0.34,0.078-0.594,0.133-0.979,0.16
		c-0.269,0.021-0.538,0.021-0.807,0c-0.262-0.015-0.421,0.016-0.671-0.066c-0.166-0.055-0.245-0.122-0.403-0.2
		C360.342,259.406,360.538,258.804,360.915,258.7L360.915,258.7z M354.669,257.395c0.366,0.135,0.589,0.173,0.939,0.345
		c0.391,0.191,0.573,0.368,0.939,0.604c0.018,0.098,0.066,0.204,0.04,0.308c-0.34,0.079-0.594,0.134-0.98,0.162
		c-0.313,0.022-0.491,0.017-0.805,0c-0.263-0.015-0.422,0.015-0.671-0.067c-0.166-0.055-0.245-0.122-0.403-0.2
		C354.096,258.101,354.292,257.498,354.669,257.395L354.669,257.395z M343.571,258.758c0.366,0.135,0.589,0.173,0.94,0.345
		c0.391,0.191,0.572,0.368,0.939,0.604c0.017,0.099,0.065,0.205,0.04,0.31c-0.341,0.078-0.594,0.133-0.979,0.16
		c-0.313,0.023-0.492,0.018-0.807,0c-0.262-0.013-0.421,0.016-0.67-0.066c-0.167-0.055-0.246-0.122-0.403-0.2
		C342.998,259.463,343.195,258.862,343.571,258.758L343.571,258.758z M337.824,239.687c-0.393-0.179-0.672-0.669-0.423-1.021
		c0.1-0.141,0.264-0.111,0.362-0.253c0.121-0.174,0.09-0.324,0.087-0.536c-0.004-0.241-0.091-0.367-0.134-0.604
		c-0.046-0.259-0.09-0.407-0.087-0.671c0.003-0.401-0.024-0.688,0.221-1.007c0.157-0.202,0.424-0.379,0.528-0.392
		c0.095,0.087-0.036,0.321-0.021,0.526c0.022,0.296,0.083,0.459,0.185,0.738c0.13,0.36,0.307,0.519,0.45,0.872
		c0.134,0.33,0.256,0.518,0.269,0.872c0.01,0.293-0.016,0.472-0.134,0.739c-0.106,0.236-0.192,0.371-0.391,0.537
		c-0.173,0.144-0.293,0.207-0.51,0.268c-0.138,0.016-0.276-0.009-0.401-0.069H337.824z"/>
	<path fill="#D52B1E" d="M335.757,261.441c0,0-0.234,0.111-0.38,0.179c-0.191,0.212-0.286,0.333-0.5,0.521
		c-0.283,0.249-0.492,0.321-0.8,0.539c-0.147,0.105-0.269,0.139-0.381,0.28c-0.159,0.205-0.05,0.403-0.159,0.641
		c-0.119,0.259-0.236,0.382-0.42,0.6c-0.234,0.278-0.416,0.391-0.68,0.641c-0.268,0.253-0.376,0.465-0.7,0.64
		c-0.086,0.046-0.128,0.091-0.221,0.12c-0.138,0.043-0.224-0.007-0.36,0.039c-0.248,0.086-0.326,0.36-0.499,0.461
		c0.07,0.139,0.067,0.237,0.14,0.38c0.102,0.206,0.451,0.777,0.52,0.92c0.135,0.194,0.173,0.447,0.341,0.499
		c0.344,0.108,0.549,0.099,0.839,0.08c0.508,0.117,0.82,0.102,1.3,0.301c0.393,0.162,0.553,0.367,0.94,0.54
		c0.304,0.134,0.494,0.218,0.819,0.28c0.249,0.047,0.391,0.084,0.64,0.06c0.16-0.015,0.242-0.076,0.401-0.1
		c0.032-0.006,0.051,0,0.08,0l-0.02,0.24c-0.004,0,0.003,0.02,0,0.021v0.04h0.04l1.318,0.579c-0.05,0.075-0.09,0.155-0.119,0.24
		c-0.063,0.205-0.073,0.441-0.041,0.54c0.404,1.208,0.743,1.963,0.941,2.04c0.394,0.15,0.516,0.554,0.74,0.96
		c-0.079,0.084-0.146,0.128-0.221,0.199c-0.393,0.378-0.737,0.646-1.06,1.16c-0.478,0.76-0.799,0.77-0.2,1.779
		c0.353,0.593,0.521,0.704,0.979,1.54c0.232,0.421,0.36,0.75,0.501,1.26c0.132,0.481,0.178,0.762,0.2,1.261l0.618,0.239l0.421-0.42
		l0.399-0.76l0.02-0.58c-0.153-0.13-0.197-0.304-0.16-0.501c0.045-0.235,0.329-0.186,0.461-0.399c0.181-0.295-0.213-0.47-0.421-0.7
		c-0.388-0.429-0.915-0.532-1.04-1.18c-0.033-0.175,0.05-0.273,0.24-0.461c0.548-0.537,0.723-0.622,1.261-1.158
		c0.153,0.09,0.39,0.123,0.619,0.079c0.18-0.034,0.339,0.08,0.9,0.24c0.39,0.11,0.559,0.055,0.78,0.02l0.239-0.06
		c0.032,0.134,0.07,0.266,0.08,0.439c0.034,0.68-0.099,1.917,0.101,2.24c0.084,0.137,0.119,0.213,0.18,0.36
		c0.064,0.154,0.137,0.254,0.141,0.42c0.007,0.445,0.029,0.729,0,1.2c-0.028,0.441-0.066,0.667-0.141,1.12
		c-0.047,0.288-0.105,0.457-0.279,0.68c-0.182,0.232-0.381,0.268-0.621,0.44l-0.059,0.64l0.72,0.301l0.819,0.198l0.44-0.179
		c0-0.163,0.025-0.256,0.1-0.4c0.082-0.158,0.148-0.281,0.301-0.339c0.231-0.093,0.486,0.082,0.579-0.061
		c0.103-0.155,0.039-0.217,0.021-0.48c-0.03-0.424-0.118-0.634-0.181-1.061c-0.105-0.71-0.135-1.079-0.1-1.76
		c0.02-0.395,0.025-0.612,0.1-1c0.11-0.564,0.312-0.838,0.44-1.4c0.145-0.625,0.17-1.027,0.24-1.579
		c2.028,0.289,3.717,0.254,5.98-0.24c0.108-0.023,0.479-0.16,0.479-0.16c0.512,0.441,1.092,0.81,1.74,1.04
		c-0.004,0.064-0.01,0.541,0,0.62c0.023,0.184-0.026,0.308,0.08,0.46c0.067,0.097,0.125,0.154,0.239,0.18
		c0.169,0.038,0.292,0.015,0.421-0.1c0.144-0.128,0.117-0.291,0.16-0.48c0.019-0.09,0.004-0.36,0-0.439
		c0.233,0.035,0.313,0.04,0.559,0.04c0.229,0,0.34,0.009,0.561-0.02c0.002,0.051,0.013,0.235,0.02,0.299
		c0.017,0.157-0.049,0.278,0.019,0.421c0.071,0.146,0.16,0.23,0.32,0.26c0.116,0.029,0.241,0.008,0.341-0.06
		c0.189-0.119,0.168-0.319,0.2-0.54c0.009-0.07,0.006-0.444,0-0.501c0.136-0.043,0.529-0.187,0.659-0.24
		c-0.006,0.175-0.026,0.349-0.06,0.521c-0.045,0.24-0.077,0.371-0.16,0.6c-0.132,0.363-0.282,0.548-0.48,0.88
		c-0.24,0.406-0.366,0.631-0.659,1c-0.135,0.17-0.229,0.247-0.36,0.421c-0.164,0.215-0.22,0.362-0.38,0.579
		c-0.208,0.28-0.327,0.464-0.601,0.68c-0.444,0.353-0.736,0.07-1.34,0.54l-0.141,0.66l0.92,0.34l0.821,0.16l0.279-0.16
		c-0.007-0.191,0.021-0.329,0.141-0.479c0.137-0.173,0.281-0.225,0.499-0.261c0.231-0.038,0.479,0.021,0.661-0.14
		c0.224-0.198,0.224-0.585,0.399-0.94c0.551-1.104,1.037-1.64,1.92-2.5c0.393-0.382,0.729-0.484,1.061-0.92
		c0.157-0.206,0.333-0.301,0.339-0.56c0.007-0.182-0.091-0.267-0.139-0.44c-0.066-0.241-0.12-0.641-0.12-0.641
		c0.973,0.477,0.621,0.414,0.8,0.9c0.144,0.394-0.021,0.665,0.039,1.079c0.071,0.484,0.299,0.714,0.34,1.2
		c0.05,0.579-0.092,0.909-0.199,1.48c-0.096,0.503-0.084,0.817-0.301,1.28c-0.205,0.441-0.365,0.689-0.739,0.999
		c-0.135,0.112-0.237,0.16-0.38,0.261l-0.08,0.659l0.721,0.241l1.04,0.279l0.24-0.22c0.105-0.419-0.034-1.034,0.261-1.08
		c0.26-0.04,0.443,0,0.5-0.199c0.022-0.085,0.037-0.209,0.059-0.4c0.141-1.207,0.271-2.333,0.4-2.88
		c0.147-0.62,0.138-0.754,0.261-1.221c0.111-0.425-0.056-0.181,0.26-1.08c0.47-1.342-0.134-1.52-0.681-2.34
		c-0.296-0.443-0.398-0.604-0.439-0.96c-0.063-0.522,0.104-0.956,0.08-1.76c-0.025-0.845-0.015-1.382,0-1.84
		c0.073-0.034,0.142-0.077,0.22-0.12c0.749-0.411,1.047-0.535,1.52-1.581c0.135-0.294,0.203-0.615,0.2-0.938
		c-0.004-0.213-0.042-0.418-0.061-0.661c-0.02-0.256-0.121-0.407-0.199-0.6c-0.084-0.203-0.209-0.358-0.361-0.54
		c-0.494-0.591-1.139-0.725-1.739-0.94c-0.95-0.34-1.604-0.277-2.641-0.358c-1.07-0.085-1.668-0.103-2.74-0.041
		c-1.284,0.074-2.002,0.333-3.28,0.48c-1.226,0.143-1.905,0.236-3.14,0.261c-1.446,0.026-2.829-0.295-3.699-0.221
		c-1.567,0.135-1.596,0.488-3.96,0.681c-0.818,0.063-1.639,0.104-2.46,0.119l-1.381-0.439c0.548-0.195,0.683-0.313,0.94-0.659
		c0.173-0.234,0.148-0.435,0.359-0.681c0.171-0.2,0.284-0.398,0.5-0.621c-0.176-0.139-0.381-0.234-0.6-0.279
		c-0.232-0.048-0.367-0.026-0.6,0c-0.316,0.036-0.494,0.08-0.781,0.221c-0.229,0.113-0.398,0.229-0.539,0.38
		c0,0-0.822-0.53-1.4-0.78c-0.717-0.311-1.023-0.455-1.92-0.58L335.757,261.441z M337.018,269.061h0.038
		c-0.006,0.006-0.011,0.014-0.019,0.019L337.018,269.061z"/>
	<path fill="none" stroke="#FEDF00" stroke-width="0.987" stroke-linecap="round" d="M364.013,269.511l-0.488,0.156
		c-0.555,0.257-1.01,0.268-1.664,0.317c-1.692,0.129-2.733-0.677-4.479-0.542c-0.899,0.069-1.297,0.762-2.214,0.99
		c-0.357,0.095-0.722,0.155-1.09,0.182l0.328-0.662c0,0-0.822,0.166-1.354,0.168c-0.327,0.006-0.654-0.022-0.976-0.083l0.651-0.607
		c0,0-0.521-0.086-0.828-0.216c-0.246-0.098-0.475-0.233-0.678-0.402c0.363-0.061,0.725-0.136,1.081-0.227
		c0.996-0.246,1.306-0.733,2.49-0.848c0.735-0.072,1.94-0.03,4.892,0.458c1.941,0.321,2.803,0.171,3.542-0.165
		c0.486-0.221,0.646-0.646,0.706-1.145c0.059-0.496-0.259-0.898-0.56-1.158c-0.079-0.067-0.284-0.214-0.712-0.232"/>
	<path fill="#FCD900" stroke="#FEDF00" stroke-width="0.513" d="M335.872,263.809c-0.339-0.043-0.565,0.006-0.857,0.186
		c-0.308,0.19-0.346,0.447-0.568,0.732c0.284,0.064,0.448,0.23,0.73,0.162c0.222-0.054,0.337-0.152,0.486-0.324
		c0.203-0.232,0.277-0.433,0.275-0.74L335.872,263.809L335.872,263.809z"/>
	<path fill="none" stroke="#FEDF00" stroke-width="0.987" stroke-linecap="round" d="M343.065,272.243c0,0,0.169,0.308,0.261,0.513
		c0.158,0.354,0.24,0.562,0.335,0.938c0.128,0.512,0.074,0.821,0.155,1.343c0.014,0.092,0.032,0.168,0.049,0.24l-0.032,0.724
		 M348.186,271.553c0,0-0.141,0.52-0.227,0.853c-0.226,0.866-0.433,1.336-0.604,2.215c-0.029,0.146-0.051,0.282-0.066,0.412
		 M340.339,272.487c0.506,0.113,0.349,2.15,1.146,2.618"/>
	<path fill="none" stroke="#FEDF00" stroke-width="0.987" d="M358.477,276.077l0.246-0.16c0.644-0.264,1.229-0.653,1.719-1.146"/>
	<path fill="none" stroke="#FEDF00" stroke-width="0.987" stroke-linecap="round" d="M353.523,274.95h0.004
		c2.262-0.564,3.767-1.694,4.852-1.836"/>
	<path fill="none" stroke="#FEDF00" stroke-width="0.987" stroke-linecap="round" d="M355.82,272.128
		c0.192-0.006,0.375-0.021,0.531-0.043c0.939-0.135,1.09,0.439,1.744,0.805c1.188,0.666,1.343,1.477,2.752,2.148
		c0.074,0.035,0.143,0.068,0.205,0.099l0.543,0.275"/>
	<path fill="#FCD900" stroke="#FEDF00" stroke-width="0.513" d="M331.328,266.318c0.172,0.043,0.276,0.051,0.452,0.034
		c0.213-0.02,0.31-0.152,0.523-0.16c0.173-0.006,0.296-0.019,0.438,0.081c0.09,0.063,0.128,0.121,0.179,0.219
		c0.057,0.106,0.104,0.181,0.08,0.298c-0.039,0.182-0.207,0.268-0.394,0.27c-0.151,0-0.277-0.04-0.348-0.175
		c-0.045-0.075-0.054-0.166-0.026-0.249c-0.181,0.068-0.313,0.071-0.496,0.011C331.561,266.597,331.414,266.478,331.328,266.318
		L331.328,266.318z"/>
	<path fill="#0065BD" d="M336.083,272.487c-0.51-0.151-1.258-0.528-1.258-0.528c0.206-0.16,0.376-0.17,0.552-0.355
		c0.25-0.262,0.239-0.505,0.38-0.845c0.138-0.333,0.118-0.61,0.429-0.859c0.186-0.147,0.488-0.173,0.717-0.105
		c0.226,0.072,0.485,0.256,0.542,0.49c0.088,0.358-0.103,0.567-0.157,0.931s-0.188,0.572-0.124,0.935
		c0.042,0.239,0.146,0.332,0.227,0.58C337.39,272.729,336.58,272.633,336.083,272.487L336.083,272.487z M335.449,273.095
		c-0.003-0.222,0.174-0.404,0.396-0.408c0.222-0.004,0.404,0.174,0.408,0.396c0.003,0.222-0.174,0.404-0.395,0.408
		c-0.222,0.005-0.405-0.171-0.41-0.393C335.449,273.097,335.449,273.096,335.449,273.095z M334.323,262.529
		c0,0-0.058-0.038-0.093-0.066c-0.244-0.198-0.269-0.418-0.383-0.711c-0.111-0.277-0.166-0.441-0.203-0.738
		c-0.031-0.26,0-0.409,0-0.671c0-0.236,0.025-0.37,0-0.604c-0.025-0.24-0.019-0.393-0.134-0.604
		c-0.063-0.115-0.253-0.216-0.201-0.269c0.06-0.062,0.164-0.013,0.269,0c0.256,0.031,0.403,0.105,0.604,0.269
		c0.24,0.195,0.336,0.364,0.429,0.672c0.107,0.351,0.16,0.574,0.261,0.938c0.054,0.189,0.084,0.301,0.183,0.47
		c0.103,0.177,0.204,0.245,0.335,0.403l-0.006,0.015c-0.192,0.208-0.285,0.344-0.498,0.533c-0.195,0.173-0.358,0.258-0.542,0.366
		l-0.021-0.006L334.323,262.529z M336.627,269.338l1.428,0.659c0.735-0.406,1.583-1.23,2.238-2.508
		c0.563-1.1,0.652-1.695,0.873-2.76l-1.145-0.373l-0.229,0.047c-0.354,1.104-0.443,1.731-1.036,2.684
		c-0.513,0.825-1.1,1.476-1.696,1.941L336.627,269.338L336.627,269.338z M339.789,280.935c0.23-0.315,0.328-0.519,0.59-0.809
		c0.292-0.323,0.512-0.449,0.84-0.736c0.1,0.01,0.214-0.008,0.307,0.045c-0.017,0.35-0.035,0.608-0.115,0.986
		c-0.063,0.308-0.119,0.478-0.221,0.774c-0.087,0.249-0.103,0.41-0.25,0.628c-0.099,0.144-0.186,0.201-0.305,0.331
		C340.309,281.679,339.783,281.324,339.789,280.935L339.789,280.935z M360.915,282.119c0.367,0.134,0.589,0.172,0.94,0.344
		c0.391,0.192,0.572,0.369,0.938,0.604c0.018,0.099,0.067,0.204,0.04,0.309c-0.34,0.078-0.594,0.133-0.979,0.16
		c-0.269,0.021-0.538,0.021-0.807,0c-0.262-0.014-0.421,0.017-0.671-0.066c-0.166-0.055-0.245-0.122-0.403-0.2
		C360.342,282.824,360.538,282.222,360.915,282.119L360.915,282.119z M354.669,280.814c0.366,0.134,0.589,0.173,0.939,0.344
		c0.391,0.192,0.573,0.369,0.939,0.604c0.018,0.099,0.066,0.205,0.04,0.309c-0.34,0.078-0.594,0.133-0.98,0.161
		c-0.313,0.022-0.491,0.018-0.805,0c-0.263-0.015-0.422,0.016-0.671-0.067c-0.166-0.055-0.245-0.121-0.403-0.2
		C354.096,281.519,354.292,280.916,354.669,280.814L354.669,280.814z M343.571,282.176c0.366,0.135,0.589,0.173,0.94,0.345
		c0.391,0.192,0.572,0.369,0.939,0.604c0.017,0.099,0.065,0.204,0.04,0.309c-0.341,0.078-0.594,0.133-0.979,0.16
		c-0.313,0.023-0.492,0.018-0.807,0c-0.262-0.013-0.421,0.016-0.67-0.066c-0.167-0.055-0.246-0.122-0.403-0.2
		C342.998,282.882,343.195,282.28,343.571,282.176L343.571,282.176z M337.824,263.105c-0.393-0.178-0.672-0.669-0.423-1.021
		c0.1-0.141,0.264-0.111,0.362-0.253c0.121-0.174,0.09-0.324,0.087-0.536c-0.004-0.241-0.091-0.366-0.134-0.604
		c-0.046-0.259-0.09-0.406-0.087-0.67c0.003-0.402-0.024-0.689,0.221-1.007c0.157-0.203,0.424-0.379,0.528-0.392
		c0.095,0.087-0.036,0.321-0.021,0.525c0.022,0.296,0.083,0.459,0.185,0.738c0.13,0.36,0.307,0.519,0.45,0.872
		c0.134,0.33,0.256,0.518,0.269,0.872c0.01,0.293-0.016,0.472-0.134,0.739c-0.106,0.236-0.192,0.371-0.391,0.537
		c-0.173,0.144-0.293,0.208-0.51,0.268c-0.138,0.016-0.276-0.009-0.401-0.069H337.824z"/>
	<path fill="none" stroke="#703D29" stroke-width="0.51" d="M264.102,175.52h52.595v52.495h-52.595V175.52z M322.304,175.52H374.9
		v52.495h-52.597V175.52z M264.3,273.542c0.15,0.945,0.487,2.567,1.385,4.229c0.945,1.493,0.597,1.452,2.737,3.84
		c1.053,1.177,2.696,2.184,3.985,2.877c1.294,0.696,2.25,1.038,4.38,1.597c4.17,1.095,7.097,1.163,10.606,1.022
		c2.738-0.109,4.828-0.446,6.56-0.68c2.468-0.332,4.307-0.53,7.115-0.647c1.365-0.057,2.655-0.069,3.93,0
		c1.54,0.085,3.06,0.323,4.678,0.647c3.483,0.696,7.016,2.04,7.016,2.04l0.01-54.82l-52.605-0.014v37.467
		C264.097,271.101,264.205,272.931,264.3,273.542L264.3,273.542z M374.707,273.53c-0.15,0.945-0.486,2.567-1.384,4.23
		c-0.945,1.492-0.597,1.45-2.736,3.84c-1.054,1.175-2.697,2.182-3.985,2.876c-1.293,0.697-2.25,1.04-4.378,1.597
		c-4.172,1.096-7.1,1.163-10.607,1.023c-2.738-0.11-4.828-0.446-6.561-0.68c-2.468-0.33-4.307-0.53-7.114-0.646
		c-1.365-0.057-2.655-0.07-3.931,0c-1.54,0.085-3.06,0.323-4.678,0.647c-3.483,0.696-7.06,2.04-7.06,2.04l0.035-54.82l52.604-0.014
		v37.468c0,0-0.107,1.83-0.203,2.439L374.707,273.53z"/>
</g>
</svg>
