<?xml version="1.0" encoding="utf-8"?>
<!-- Generator: Adobe Illustrator 15.0.2, SVG Export Plug-In . SVG Version: 6.00 Build 0)  -->
<!DOCTYPE svg PUBLIC "-//W3C//DTD SVG 1.1//EN" "http://www.w3.org/Graphics/SVG/1.1/DTD/svg11.dtd">
<svg version="1.1" id="Layer_1" xmlns="http://www.w3.org/2000/svg" xmlns:xlink="http://www.w3.org/1999/xlink" x="0px" y="0px"
	 width="640px" height="480px" viewBox="0 0 640 480" enable-background="new 0 0 640 480" xml:space="preserve">
<g>
	<defs>
		<rect id="SVGID_1_" y="0" width="640.003" height="480"/>
	</defs>
	<clipPath id="SVGID_2_">
		<use xlink:href="#SVGID_1_"  overflow="visible"/>
	</clipPath>
	<path clip-path="url(#SVGID_2_)" fill="#FFFFFF" d="M-37.783,0h715.566v479.521H-37.783V0z"/>
	<path clip-path="url(#SVGID_2_)" d="M-36.198,0.578h713.325v202.584H-36.198V0.578z"/>
	<path clip-path="url(#SVGID_2_)" fill="#0061FF" d="M94.686,190.528h473.447v106.707H94.686V190.528z"/>
	<path clip-path="url(#SVGID_2_)" fill="#E20000" d="M677.295,1.644v478.358H320.37L677.295,1.644z"/>
	<path clip-path="url(#SVGID_2_)" fill="#E20000" d="M-36.555,1.644v478.358H320.37L-36.555,1.644z"/>
	<path clip-path="url(#SVGID_2_)" fill="#FFD600" d="M487.564,190.631l-71.541-18.152l60.862-45.916l-74.743,10.678l38.44-65.133
		l-66.202,38.44l11.746-75.813L341.28,94.531l-18.153-69.406l-20.288,71.54l-44.847-60.862l12.813,77.948l-66.202-40.577
		l38.44,65.134l-72.609-11.746l59.797,44.848l-74.744,19.219h332.081L487.564,190.631z"/>
</g>
</svg>
