<?xml version="1.0" encoding="utf-8"?>
<!-- Generator: Adobe Illustrator 15.0.2, SVG Export Plug-In . SVG Version: 6.00 Build 0)  -->
<!DOCTYPE svg PUBLIC "-//W3C//DTD SVG 1.1//EN" "http://www.w3.org/Graphics/SVG/1.1/DTD/svg11.dtd">
<svg version="1.1" id="Layer_1" xmlns="http://www.w3.org/2000/svg" xmlns:xlink="http://www.w3.org/1999/xlink" x="0px" y="0px"
	 width="640px" height="480px" viewBox="0 0 640 480" enable-background="new 0 0 640 480" xml:space="preserve">
<g>
	<path fill="#00C4FF" d="M0-0.01h640.003V160.42H0V-0.01z"/>
	<path fill="#FFFFFF" d="M0,159.763h640.003v160.43H0V159.763z"/>
	<path fill="#00C4FF" d="M0,319.535h640.003v160.431H0V319.535z"/>
	<path fill="#FFD600" stroke="#000000" stroke-width="0.625" stroke-opacity="0.387" d="M363.379,241.988
		c0,23.594-19.52,42.72-43.598,42.72c-24.079,0-43.594-19.126-43.594-42.72s19.519-42.72,43.598-42.72
		S363.379,218.394,363.379,241.988z"/>
	<path fill="none" stroke="#000000" stroke-width="0.5" stroke-opacity="0.387" d="M332.063,211.478
		c-5.514-1.293-11.16,0.52-12.938,0.391c-2.445,0-8.625-2.067-12.938,0 M299.391,217.891c5.468-3.705,11.578,1.337,13.203,0.388
		c4.436-2.824,8.557-2.3,12.805,0.259c2.737,1.565,7.513-4.567,13.071,0.388"/>
	<path fill="#EFC000" stroke="#000000" stroke-width="0.5" stroke-opacity="0.387" d="M293.255,224.218
		c2.89-2.283,12.314-2.369,22.007,2.972c1.467-0.345,2.4-1.334,1.2-2.713c-7.292-2.456-15.783-5.558-23.608-3.231
		c-2.134,1.465-1.601,2.413,0.4,2.973H293.255z"/>
	<path fill="#EFC000" stroke="#000000" stroke-width="0.5" stroke-opacity="0.387" d="M344.856,224.218
		c-2.891-2.283-12.314-2.369-22.007,2.972c-1.467-0.345-2.401-1.334-1.201-2.713c7.292-2.456,15.784-5.558,23.609-3.231
		C347.392,222.71,346.858,223.658,344.856,224.218L344.856,224.218z"/>
	<path fill="#F0BF00" stroke="#000000" stroke-width="0.625" stroke-linejoin="round" stroke-opacity="0.387" d="M289.393,231.851
		c9.559-5.946,22.185-2.844,27.477,0.388c-7.736-1.422-7.871-2.068-13.473-2.197C299.44,230.171,293.615,229.782,289.393,231.851z"
		/>
	<path fill="none" stroke="#000000" stroke-width="0.625" stroke-opacity="0.387" d="M311.268,231.198
		c-4.668,9.436-12.805,9.564-18.539-0.518"/>
	<path fill-opacity="0.368" d="M308.78,234.09c-1.383,1.514-4.771,2.413-7.564,2.01s-3.937-1.96-2.553-3.474
		c1.384-1.515,4.77-2.413,7.565-2.011C309.023,231.019,310.165,232.575,308.78,234.09L308.78,234.09z"/>
	<path fill="#FFD700" d="M301.898,232.147c0.143,0.354-0.297,0.82-0.984,1.045c-0.687,0.226-1.358,0.12-1.5-0.229
		c-0.144-0.354,0.297-0.822,0.983-1.046C301.083,231.692,301.757,231.796,301.898,232.147L301.898,232.147z"/>
	<path fill="none" stroke="#000000" stroke-width="0.625" stroke-opacity="0.387" d="M312.69,247.448
		c-5.386,8.773,1.952,2.585,3.144,5.126c2.096,2.354,4.192,1.8,5.432,0c1.241-2.031,9.055,3.832,3.719-4.848"/>
	
		<path fill="none" stroke="#000000" stroke-width="0.625" stroke-linecap="round" stroke-linejoin="round" stroke-opacity="0.387" d="
		M303.112,261.986c4.621-0.509,12.389-3.925,15.154-1.108c2.381-2.539,10.768,0.739,16.151,1.108
		c-3.908,2.308-11.816,0.738-15.581,3.186c-3.671-2.17-11.771-0.185-15.726-3.186H303.112z"/>
	<path fill="none" stroke="#000000" stroke-width="0.625" stroke-linejoin="round" stroke-opacity="0.387" d="M310.556,266.011
		c7.004,2.77,8.577,2.354,16.153,0.276c-1.572,4.019-5.586,4.863-7.863,4.71C316.487,270.85,313.272,271.138,310.556,266.011
		L310.556,266.011z"/>
	<path fill="#FFD700" stroke="#000000" stroke-width="0.625" stroke-linejoin="round" stroke-opacity="0.387" d="M305.056,288.76
		c-5.052,12.814,0.483,18.905-1.99,25.807c-2.381,6.645-12.735,23.113-4.853,30.27c6.263,0.279-1.084-9.081,11.445-26.412
		c5.813-8.118-1.518-13.258,4.606-29.184C314.833,287.879,305.851,286.742,305.056,288.76L305.056,288.76z"/>
	<path fill="#FFD700" stroke="#000000" stroke-width="0.625" stroke-linejoin="round" stroke-opacity="0.387" d="M315.753,289.727
		c-1.941,14.382-0.788,58.567,3.858,56.798c5.145,1.608,5.822-43.284,5.35-56.558C324.895,288.497,316.022,287.581,315.753,289.727
		L315.753,289.727z"/>
	<path fill="none" stroke="#000000" stroke-width="0.625" stroke-linejoin="round" stroke-opacity="0.387" d="M296.155,284.803
		c-5.638,12.585-13.989,13.188-17.202,19.798c-3.094,6.363-7.578,25.154-18.377,24.928c-4.678-4.045,7.328-5.757,10.881-26.639
		c1.704-9.743,10.653-8.448,17.769-23.984c0.576-1.358,7.817,3.916,6.93,5.899V284.803z"/>
	<path fill="none" stroke="#000000" stroke-width="0.625" stroke-linejoin="round" stroke-opacity="0.387" d="M275.505,265.366
		c-12.983,5.47-13.6,13.563-20.418,16.681c-6.564,3.002-25.952,7.357-25.711,17.822c4.177,4.531,5.936-7.104,27.481-10.559
		c10.053-1.657,8.711-10.328,24.738-17.232c1.402-0.559-4.045-7.573-6.091-6.712H275.505z"/>
	<path fill="none" stroke="#000000" stroke-width="0.625" stroke-linejoin="round" stroke-opacity="0.387" d="M271.421,256.264
		c-13.194,4.969-19.512-0.36-26.619,2.076c-6.843,2.345-23.777,12.472-31.208,4.874c-0.324-6.067,9.377,0.999,27.19-11.241
		c8.344-5.68,13.689,1.396,30.088-4.63C272.273,246.784,273.499,255.482,271.421,256.264L271.421,256.264z"/>
	<path fill="none" stroke="#000000" stroke-width="0.625" stroke-linejoin="round" stroke-opacity="0.387" d="M305.573,287.689
		c-4.127,13.941-23.337,54.028-26.872,50.613c-5.38-0.51,12.441-41.95,18.326-53.945
		C297.692,283.034,306.207,285.616,305.573,287.689L305.573,287.689z"/>
	<path fill="none" stroke="#000000" stroke-width="0.625" stroke-linejoin="round" stroke-opacity="0.387" d="M287.372,278.87
		c-9.032,11.566-41.854,42.261-43.882,37.841c-4.83-2.354,27.199-34.797,37.148-43.934
		C281.751,271.777,288.734,277.158,287.372,278.87L287.372,278.87z"/>
	<path fill="none" stroke="#000000" stroke-width="0.625" stroke-linejoin="round" stroke-opacity="0.387" d="M275.998,264.081
		c-12.902,7.352-55.324,23.588-55.459,18.753c-3.537-3.961,38.84-22.105,51.633-26.872c1.422-0.514,5.759,7.041,3.827,8.121
		L275.998,264.081z"/>
	<path fill="none" stroke="#000000" stroke-width="0.625" stroke-opacity="0.082" d="M312.69,247.448
		c-5.386,8.773,1.952,2.585,3.144,5.126c2.096,2.354,4.192,1.8,5.432,0c1.241-2.031,9.055,3.832,3.719-4.848"/>
	
		<path fill="#F0BF00" stroke="#000000" stroke-width="0.625" stroke-linecap="round" stroke-linejoin="round" stroke-opacity="0.082" d="
		M303.112,261.986c4.621-0.509,12.389-3.925,15.154-1.108c2.381-2.539,10.768,0.739,16.151,1.108
		c-3.908,2.308-11.816,0.738-15.581,3.186c-3.671-2.17-11.771-0.185-15.726-3.186H303.112z"/>
	<path fill="#F0BF00" stroke="#000000" stroke-width="0.625" stroke-linejoin="round" stroke-opacity="0.082" d="M310.556,266.011
		c7.004,2.77,8.577,2.354,16.153,0.276c-1.572,4.019-5.586,4.863-7.863,4.71C316.487,270.85,313.272,271.138,310.556,266.011
		L310.556,266.011z"/>
	<path fill="#FFD700" stroke="#000000" stroke-width="0.625" stroke-linejoin="round" stroke-opacity="0.149" d="M296.155,284.803
		c-5.638,12.585-13.989,13.188-17.202,19.798c-3.094,6.363-7.578,25.154-18.377,24.928c-4.678-4.045,7.328-5.757,10.881-26.639
		c1.704-9.743,10.653-8.448,17.769-23.984c0.576-1.358,7.817,3.916,6.93,5.899V284.803z"/>
	<path fill="#FFD700" stroke="#000000" stroke-width="0.625" stroke-linejoin="round" stroke-opacity="0.149" d="M275.505,265.366
		c-12.983,5.47-13.6,13.563-20.418,16.681c-6.564,3.002-25.952,7.357-25.711,17.822c4.177,4.531,5.936-7.104,27.481-10.559
		c10.053-1.657,8.711-10.328,24.738-17.232c1.402-0.559-4.045-7.573-6.091-6.712H275.505z"/>
	<path fill="#FFD700" stroke="#000000" stroke-width="0.625" stroke-linejoin="round" stroke-opacity="0.149" d="M271.421,256.264
		c-13.194,4.969-19.512-0.36-26.619,2.076c-6.843,2.345-23.777,12.472-31.208,4.874c-0.324-6.067,9.377,0.999,27.19-11.241
		c8.344-5.68,13.689,1.396,30.088-4.63C272.273,246.784,273.499,255.482,271.421,256.264L271.421,256.264z"/>
	<path fill="#FFD700" stroke="#000000" stroke-width="0.625" stroke-linejoin="round" stroke-opacity="0.149" d="M305.573,287.689
		c-4.127,13.941-23.337,54.028-26.872,50.613c-5.38-0.51,12.441-41.95,18.326-53.945
		C297.692,283.034,306.207,285.616,305.573,287.689L305.573,287.689z"/>
	<path fill="#FFD700" stroke="#000000" stroke-width="0.625" stroke-linejoin="round" stroke-opacity="0.149" d="M287.372,278.87
		c-9.032,11.566-41.854,42.261-43.882,37.841c-4.83-2.354,27.199-34.797,37.148-43.934
		C281.751,271.777,288.734,277.158,287.372,278.87L287.372,278.87z"/>
	<path fill="#FFD700" stroke="#000000" stroke-width="0.625" stroke-linejoin="round" stroke-opacity="0.149" d="M275.998,264.081
		c-12.902,7.352-55.324,23.588-55.459,18.753c-3.537-3.961,38.84-22.105,51.633-26.872c1.422-0.514,5.759,7.041,3.827,8.121
		L275.998,264.081z"/>
	<path fill="#FFD700" stroke="#000000" stroke-width="0.625" stroke-linejoin="round" stroke-opacity="0.387" d="M369.124,246.182
		c14.841,1.881,60.437,0.763,58.611-3.738c1.659-4.986-44.666-5.642-58.364-5.186C367.854,237.323,366.91,245.921,369.124,246.182
		L369.124,246.182z"/>
	<path fill="#FFD700" stroke="#000000" stroke-width="0.625" stroke-linejoin="round" stroke-opacity="0.387" d="M334.751,289.396
		c5.052,12.814-0.482,18.905,1.991,25.807c2.38,6.646,12.734,23.113,4.852,30.271c-6.262,0.279,1.084-9.081-11.445-26.412
		c-5.813-8.119,1.519-13.258-4.605-29.184C324.974,288.516,333.956,287.378,334.751,289.396L334.751,289.396z"/>
	<path fill="#FFD700" stroke="#000000" stroke-width="0.625" stroke-linejoin="round" stroke-opacity="0.387" d="M344.016,285.434
		c5.638,12.585,13.989,13.188,17.202,19.797c3.094,6.363,7.577,25.154,18.377,24.928c4.678-4.045-7.328-5.757-10.881-26.639
		c-1.704-9.743-10.653-8.448-17.769-23.983C350.369,278.177,343.128,283.452,344.016,285.434L344.016,285.434z"/>
	<path fill="#FFD700" stroke="#000000" stroke-width="0.625" stroke-linejoin="round" stroke-opacity="0.387" d="M364.676,265.687
		c12.982,5.47,13.6,13.563,20.418,16.68c6.564,3.002,25.951,7.358,25.711,17.823c-4.177,4.53-5.937-7.105-27.481-10.56
		c-10.053-1.656-8.711-10.328-24.737-17.232C357.184,271.839,362.631,264.825,364.676,265.687L364.676,265.687z"/>
	<path fill="#FFD700" stroke="#000000" stroke-width="0.625" stroke-linejoin="round" stroke-opacity="0.387" d="M368.387,256.264
		c13.195,4.969,19.512-0.36,26.619,2.076c6.844,2.345,23.778,12.472,31.209,4.874c0.324-6.067-9.377,0.999-27.189-11.241
		c-8.345-5.68-13.69,1.396-30.089-4.63c-1.401-0.559-2.627,8.139-0.548,8.922L368.387,256.264z"/>
	<path fill="#FFD700" stroke="#000000" stroke-width="0.625" stroke-linejoin="round" stroke-opacity="0.387" d="M334.534,288.333
		c4.128,13.94,23.338,54.027,26.872,50.612c5.38-0.51-12.44-41.95-18.326-53.944C342.415,283.679,333.9,286.261,334.534,288.333
		L334.534,288.333z"/>
	<path fill="#FFD700" stroke="#000000" stroke-width="0.625" stroke-linejoin="round" stroke-opacity="0.387" d="M351.936,278.87
		c9.032,11.566,41.854,42.261,43.882,37.841c4.83-2.354-27.199-34.797-37.147-43.934
		C357.557,271.777,350.573,277.158,351.936,278.87L351.936,278.87z"/>
	<path fill="#FFD700" stroke="#000000" stroke-width="0.625" stroke-linejoin="round" stroke-opacity="0.387" d="M364.356,264.081
		c12.903,7.352,55.324,23.588,55.46,18.753c3.537-3.961-38.841-22.105-51.633-26.872c-1.423-0.514-5.76,7.041-3.827,8.121V264.081z"
		/>
	<path fill="#FFD700" stroke="#000000" stroke-width="0.625" stroke-linejoin="round" stroke-opacity="0.149" d="M344.016,285.434
		c5.638,12.585,13.989,13.188,17.202,19.797c3.094,6.363,7.577,25.154,18.377,24.928c4.678-4.045-7.328-5.757-10.881-26.639
		c-1.704-9.743-10.653-8.448-17.769-23.983C350.369,278.177,343.128,283.452,344.016,285.434L344.016,285.434z"/>
	<path fill="#FFD700" stroke="#000000" stroke-width="0.625" stroke-linejoin="round" stroke-opacity="0.149" d="M364.676,265.687
		c12.982,5.47,13.6,13.563,20.418,16.68c6.564,3.002,25.951,7.358,25.711,17.823c-4.177,4.53-5.937-7.105-27.481-10.56
		c-10.053-1.656-8.711-10.328-24.737-17.232C357.184,271.839,362.631,264.825,364.676,265.687L364.676,265.687z"/>
	<path fill="#FFD700" stroke="#000000" stroke-width="0.625" stroke-linejoin="round" stroke-opacity="0.149" d="M368.387,256.264
		c13.195,4.969,19.512-0.36,26.619,2.076c6.844,2.345,23.778,12.472,31.209,4.874c0.324-6.067-9.377,0.999-27.189-11.241
		c-8.345-5.68-13.69,1.396-30.089-4.63c-1.401-0.559-2.627,8.139-0.548,8.922L368.387,256.264z"/>
	<path fill="#FFD700" stroke="#000000" stroke-width="0.625" stroke-linejoin="round" stroke-opacity="0.149" d="M334.534,288.333
		c4.128,13.94,23.338,54.027,26.872,50.612c5.38-0.51-12.44-41.95-18.326-53.944C342.415,283.679,333.9,286.261,334.534,288.333
		L334.534,288.333z"/>
	<path fill="#FFD700" stroke="#000000" stroke-width="0.625" stroke-linejoin="round" stroke-opacity="0.149" d="M351.936,278.87
		c9.032,11.566,41.854,42.261,43.882,37.841c4.83-2.354-27.199-34.797-37.147-43.934
		C357.557,271.777,350.573,277.158,351.936,278.87L351.936,278.87z"/>
	<path fill="#FFD700" stroke="#000000" stroke-width="0.625" stroke-linejoin="round" stroke-opacity="0.149" d="M364.356,264.081
		c12.903,7.352,55.324,23.588,55.46,18.753c3.537-3.961-38.841-22.105-51.633-26.872c-1.423-0.514-5.76,7.041-3.827,8.121V264.081z"
		/>
	<path fill="#FFD700" stroke="#000000" stroke-width="0.625" stroke-linejoin="round" stroke-opacity="0.387" d="M270.539,237.776
		c-14.841-1.881-60.437-0.763-58.611,3.739c-1.659,4.985,44.666,5.642,58.364,5.185
		C271.809,246.634,272.753,238.037,270.539,237.776L270.539,237.776z"/>
	<path fill="#FFD700" stroke="#000000" stroke-width="0.625" stroke-linejoin="round" stroke-opacity="0.387" d="M304.929,194.551
		c-5.052-12.814,0.483-18.905-1.99-25.807c-2.381-6.645-12.735-23.113-4.853-30.271c6.263-0.279-1.084,9.081,11.445,26.413
		c5.813,8.118-1.518,13.258,4.606,29.183C314.706,195.431,305.724,196.569,304.929,194.551L304.929,194.551z"/>
	<path fill="#FFD700" stroke="#000000" stroke-width="0.625" stroke-linejoin="round" stroke-opacity="0.387" d="M295.655,198.516
		c-5.638-12.585-13.989-13.188-17.202-19.797c-3.094-6.364-7.578-25.154-18.377-24.929c-4.678,4.045,7.328,5.758,10.881,26.64
		c1.704,9.743,10.653,8.448,17.769,23.983C289.301,205.773,296.543,200.497,295.655,198.516L295.655,198.516z"/>
	<path fill="#FFD700" stroke="#000000" stroke-width="0.625" stroke-linejoin="round" stroke-opacity="0.387" d="M275.005,218.27
		c-12.983-5.47-13.6-13.563-20.418-16.68c-6.564-3.002-25.952-7.358-25.711-17.823c4.177-4.53,5.936,7.105,27.481,10.56
		c10.053,1.656,8.711,10.328,24.738,17.232c1.402,0.559-4.045,7.572-6.091,6.711H275.005z"/>
	<path fill="#FFD700" stroke="#000000" stroke-width="0.625" stroke-linejoin="round" stroke-opacity="0.387" d="M271.293,227.68
		c-13.194-4.969-19.512,0.36-26.619-2.076c-6.843-2.345-23.777-12.472-31.208-4.874c-0.324,6.067,9.377-0.999,27.19,11.241
		c8.344,5.679,13.689-1.396,30.088,4.63c1.402,0.559,2.627-8.139,0.548-8.923L271.293,227.68z"/>
	<path fill="#FFD700" stroke="#000000" stroke-width="0.625" stroke-linejoin="round" stroke-opacity="0.387" d="M305.138,195.633
		c-4.128-13.941-23.337-54.028-26.872-50.613c-5.38,0.51,12.441,41.95,18.326,53.945
		C297.257,200.287,305.772,197.705,305.138,195.633L305.138,195.633z"/>
	<path fill="#FFD700" stroke="#000000" stroke-width="0.625" stroke-linejoin="round" stroke-opacity="0.387" d="M287.744,205.079
		c-9.032-11.566-41.854-42.261-43.882-37.841c-4.83,2.354,27.199,34.797,37.148,43.934
		C282.123,212.173,289.106,206.791,287.744,205.079L287.744,205.079z"/>
	<path fill="#FFD700" stroke="#000000" stroke-width="0.625" stroke-linejoin="round" stroke-opacity="0.387" d="M275.32,219.86
		c-12.902-7.351-55.324-23.587-55.459-18.752c-3.538,3.96,38.84,22.105,51.633,26.871
		C272.916,228.493,277.253,220.939,275.32,219.86L275.32,219.86z"/>
	<path fill="#FFD700" stroke="#000000" stroke-width="0.625" stroke-linejoin="round" stroke-opacity="0.149" d="M295.655,198.516
		c-5.638-12.585-13.989-13.188-17.202-19.797c-3.094-6.364-7.578-25.154-18.377-24.929c-4.678,4.045,7.328,5.758,10.881,26.64
		c1.704,9.743,10.653,8.448,17.769,23.983C289.301,205.773,296.543,200.497,295.655,198.516L295.655,198.516z"/>
	<path fill="#FFD700" stroke="#000000" stroke-width="0.625" stroke-linejoin="round" stroke-opacity="0.149" d="M275.005,218.27
		c-12.983-5.47-13.6-13.563-20.418-16.68c-6.564-3.002-25.952-7.358-25.711-17.823c4.177-4.53,5.936,7.105,27.481,10.56
		c10.053,1.656,8.711,10.328,24.738,17.232c1.402,0.559-4.045,7.572-6.091,6.711H275.005z"/>
	<path fill="#FFD700" stroke="#000000" stroke-width="0.625" stroke-linejoin="round" stroke-opacity="0.149" d="M271.293,227.68
		c-13.194-4.969-19.512,0.36-26.619-2.076c-6.843-2.345-23.777-12.472-31.208-4.874c-0.324,6.067,9.377-0.999,27.19,11.241
		c8.344,5.679,13.689-1.396,30.088,4.63c1.402,0.559,2.627-8.139,0.548-8.923L271.293,227.68z"/>
	<path fill="#FFD700" stroke="#000000" stroke-width="0.625" stroke-linejoin="round" stroke-opacity="0.149" d="M305.138,195.633
		c-4.128-13.941-23.337-54.028-26.872-50.613c-5.38,0.51,12.441,41.95,18.326,53.945
		C297.257,200.287,305.772,197.705,305.138,195.633L305.138,195.633z"/>
	<path fill="#FFD700" stroke="#000000" stroke-width="0.625" stroke-linejoin="round" stroke-opacity="0.149" d="M287.744,205.079
		c-9.032-11.566-41.854-42.261-43.882-37.841c-4.83,2.354,27.199,34.797,37.148,43.934
		C282.123,212.173,289.106,206.791,287.744,205.079L287.744,205.079z"/>
	<path fill="#FFD700" stroke="#000000" stroke-width="0.625" stroke-linejoin="round" stroke-opacity="0.149" d="M275.32,219.86
		c-12.902-7.351-55.324-23.587-55.459-18.752c-3.538,3.96,38.84,22.105,51.633,26.871
		C272.916,228.493,277.253,220.939,275.32,219.86L275.32,219.86z"/>
	<path fill="#FFD700" stroke="#000000" stroke-width="0.625" stroke-linejoin="round" stroke-opacity="0.387" d="M323.852,194.202
		c1.94-14.382,0.787-58.567-3.858-56.799c-5.145-1.607-5.822,43.284-5.351,56.559C314.71,195.432,323.582,196.348,323.852,194.202
		L323.852,194.202z"/>
	<path fill="#FFD700" stroke="#000000" stroke-width="0.625" stroke-linejoin="round" stroke-opacity="0.387" d="M368.447,227.532
		c13.225-4.896,19.51,0.468,26.631-1.929c6.857-2.308,23.852-12.341,31.236-4.703c0.289,6.069-9.371-1.05-27.255,11.092
		c-8.378,5.633-13.682-1.472-30.115,4.463c-1.405,0.552-2.579-8.152-0.495-8.924L368.447,227.532z"/>
	<path fill="#FFD700" stroke="#000000" stroke-width="0.625" stroke-linejoin="round" stroke-opacity="0.387" d="M364.364,218.49
		c12.985-5.463,13.607-13.558,20.427-16.671c6.566-2.999,25.955-7.344,25.722-17.811c-4.173-4.534-5.94,7.103-27.486,10.545
		c-10.054,1.651-8.718,10.324-24.747,17.221c-1.402,0.559,4.041,7.576,6.087,6.716H364.364z"/>
	<path fill="#FFD700" stroke="#000000" stroke-width="0.625" stroke-linejoin="round" stroke-opacity="0.387" d="M344.007,198.502
		c5.646-12.58,13.999-13.178,17.216-19.785c3.098-6.361,7.594-25.147,18.394-24.915c4.676,4.047-7.333,5.753-10.897,26.63
		c-1.711,9.741-10.66,8.441-17.785,23.971C350.356,205.762,343.118,200.484,344.007,198.502L344.007,198.502z"/>
	<path fill="#FFD700" stroke="#000000" stroke-width="0.625" stroke-linejoin="round" stroke-opacity="0.387" d="M334.277,194.958
		c5.128-12.787-0.371-18.909,2.144-25.796c2.42-6.632,12.872-23.043,5.032-30.244c-6.262-0.313,1.029,9.088-11.603,26.35
		c-5.861,8.087,1.439,13.267-4.779,29.158c-0.577,1.358,8.398,2.545,9.207,0.53L334.277,194.958z"/>
	<path fill="#FFD700" stroke="#000000" stroke-width="0.625" stroke-linejoin="round" stroke-opacity="0.387" d="M367.324,227.76
		c14.387-3.999,55.755-22.613,52.23-26.038c-0.525-5.213-43.291,12.054-55.67,17.757
		C362.521,220.123,365.186,228.374,367.324,227.76L367.324,227.76z"/>
	<path fill="#FFD700" stroke="#000000" stroke-width="0.625" stroke-linejoin="round" stroke-opacity="0.387" d="M357.597,210.845
		c11.936-8.754,43.61-40.563,39.05-42.528c-2.429-4.681-35.908,26.36-45.336,36.002C350.277,205.397,355.83,212.165,357.597,210.845
		L357.597,210.845z"/>
	<path fill="#FFD700" stroke="#000000" stroke-width="0.625" stroke-linejoin="round" stroke-opacity="0.387" d="M342.302,198.873
		c7.586-12.502,24.343-53.606,19.353-53.737c-4.087-3.428-22.813,37.634-27.732,50.029
		C333.392,196.543,341.188,200.745,342.302,198.873L342.302,198.873z"/>
	<path fill="#FFD700" stroke="#000000" stroke-width="0.625" stroke-linejoin="round" stroke-opacity="0.149" d="M364.364,218.49
		c12.985-5.463,13.607-13.558,20.427-16.671c6.566-2.999,25.955-7.344,25.722-17.811c-4.173-4.534-5.94,7.103-27.486,10.545
		c-10.054,1.651-8.718,10.324-24.747,17.221c-1.402,0.559,4.041,7.576,6.087,6.716H364.364z"/>
	<path fill="#FFD700" stroke="#000000" stroke-width="0.625" stroke-linejoin="round" stroke-opacity="0.149" d="M344.007,198.502
		c5.646-12.58,13.999-13.178,17.216-19.785c3.098-6.361,7.594-25.147,18.394-24.915c4.676,4.047-7.333,5.753-10.897,26.63
		c-1.711,9.741-10.66,8.441-17.785,23.971C350.356,205.762,343.118,200.484,344.007,198.502L344.007,198.502z"/>
	<path fill="#FFD700" stroke="#000000" stroke-width="0.625" stroke-linejoin="round" stroke-opacity="0.149" d="M334.277,194.958
		c5.128-12.787-0.371-18.909,2.144-25.796c2.42-6.632,12.872-23.043,5.032-30.244c-6.262-0.313,1.029,9.088-11.603,26.35
		c-5.861,8.087,1.439,13.267-4.779,29.158c-0.577,1.358,8.398,2.545,9.207,0.53L334.277,194.958z"/>
	<path fill="#FFD700" stroke="#000000" stroke-width="0.625" stroke-linejoin="round" stroke-opacity="0.149" d="M367.324,227.76
		c14.387-3.999,55.755-22.613,52.23-26.038c-0.525-5.213-43.291,12.054-55.67,17.757
		C362.521,220.123,365.186,228.374,367.324,227.76L367.324,227.76z"/>
	<path fill="#FFD700" stroke="#000000" stroke-width="0.625" stroke-linejoin="round" stroke-opacity="0.149" d="M357.597,210.845
		c11.936-8.754,43.61-40.563,39.05-42.528c-2.429-4.681-35.908,26.36-45.336,36.002C350.277,205.397,355.83,212.165,357.597,210.845
		L357.597,210.845z"/>
	<path fill="#FFD700" stroke="#000000" stroke-width="0.625" stroke-linejoin="round" stroke-opacity="0.149" d="M342.302,198.873
		c7.586-12.502,24.343-53.606,19.353-53.737c-4.087-3.428-22.813,37.634-27.732,50.029
		C333.392,196.543,341.188,200.745,342.302,198.873L342.302,198.873z"/>
	<path fill="none" stroke="#000000" stroke-opacity="0.171" d="M286.62,221.382h-4.001"/>
	<path fill="none" stroke="#000000" stroke-opacity="0.171" d="M285.619,223.874h-4.001"/>
	<path fill="none" stroke="#000000" stroke-opacity="0.171" d="M285.189,226.229h-4.43"/>
	<path fill="none" stroke="#000000" stroke-opacity="0.171" d="M283.908,228.447h-4.43"/>
	<path fill="none" stroke="#000000" stroke-opacity="0.171" d="M283.622,230.802h-5.288"/>
	<path fill="none" stroke="#000000" stroke-opacity="0.171" d="M283.747,233.156h-5.858"/>
	<path fill="none" stroke="#000000" stroke-opacity="0.171" d="M282.902,235.787h-5.573"/>
	<path fill="none" stroke="#000000" stroke-opacity="0.171" d="M283.21,238.419h-5.431"/>
	<path fill="none" stroke="#000000" stroke-opacity="0.171" d="M283.188,240.913h-5.573"/>
	<path fill="none" stroke="#000000" stroke-opacity="0.171" d="M284.63,243.822h-7.002"/>
	<path fill="none" stroke="#000000" stroke-opacity="0.171" d="M284.017,247.147h-6.001"/>
	<path fill="none" stroke="#000000" stroke-opacity="0.078" d="M284.16,249.501h-6.001"/>
	<path fill="none" stroke="#000000" stroke-opacity="0.078" d="M285.161,252.687h-6.001"/>
	<path fill="none" stroke="#000000" stroke-opacity="0.078" d="M285.303,255.459h-6.001"/>
	<path fill="none" stroke="#000000" stroke-opacity="0.078" d="M287.019,258.506h-6.001"/>
	<path fill="none" stroke="#000000" stroke-opacity="0.078" d="M288.735,260.999h-6.002"/>
	<path fill="none" stroke="#000000" stroke-opacity="0.078" d="M290.305,263.909h-6.001"/>
	<path fill="none" stroke="#000000" stroke-opacity="0.078" d="M292.165,266.679h-6.001"/>
	<path fill="none" stroke="#000000" stroke-opacity="0.078" d="M293.452,269.309h-6.001"/>
	<path fill="none" stroke="#000000" stroke-opacity="0.078" d="M296.167,272.504h-6.001"/>
	<path fill="none" stroke="#000000" stroke-opacity="0.078" d="M297.375,275.409h-3.859"/>
	<path fill="none" stroke="#000000" stroke-opacity="0.078" d="M284.16,249.501h-6.001"/>
	<path fill="none" stroke="#000000" stroke-opacity="0.078" d="M285.161,252.687h-6.001"/>
	<path fill="none" stroke="#000000" stroke-opacity="0.078" d="M285.303,255.459h-6.001"/>
	<path fill="none" stroke="#000000" stroke-opacity="0.078" d="M287.019,258.506h-6.001"/>
	<path fill="none" stroke="#000000" stroke-opacity="0.078" d="M288.735,260.999h-6.002"/>
	<path fill="none" stroke="#000000" stroke-opacity="0.078" d="M290.305,263.909h-6.001"/>
	<path fill="none" stroke="#000000" stroke-opacity="0.078" d="M292.165,266.679h-6.001"/>
	<path fill="none" stroke="#000000" stroke-opacity="0.078" d="M293.452,269.309h-6.001"/>
	<path fill="none" stroke="#000000" stroke-opacity="0.078" d="M296.167,272.504h-6.001"/>
	<path fill="none" stroke="#000000" stroke-opacity="0.078" d="M297.996,275.167h-3.858"/>
	<path fill="#00699D" fill-opacity="0.867" stroke="#000000" stroke-opacity="0.134" d="M352.874,220.745h4.001"/>
	<path fill="#00699D" fill-opacity="0.867" stroke="#000000" stroke-opacity="0.134" d="M353.874,223.239h4.001"/>
	<path fill="#00699D" fill-opacity="0.867" stroke="#000000" stroke-opacity="0.134" d="M354.294,225.593h4.431"/>
	<path fill="#00699D" fill-opacity="0.867" stroke="#000000" stroke-opacity="0.134" d="M355.584,227.809h4.43"/>
	<path fill="#00699D" fill-opacity="0.867" stroke="#000000" stroke-opacity="0.134" d="M355.874,230.164h5.288"/>
	<path fill="#00699D" fill-opacity="0.867" stroke="#000000" stroke-opacity="0.134" d="M355.746,232.519h5.858"/>
	<path fill="#00699D" fill-opacity="0.867" stroke="#000000" stroke-opacity="0.134" d="M356.585,235.151h5.573"/>
	<path fill="#00699D" fill-opacity="0.867" stroke="#000000" stroke-opacity="0.134" d="M356.276,237.784h5.431"/>
	<path fill="#00699D" fill-opacity="0.867" stroke="#000000" stroke-opacity="0.134" d="M356.31,240.277h5.573"/>
	<path fill="#00699D" fill-opacity="0.867" stroke="#000000" stroke-opacity="0.134" d="M354.854,243.186h7.003"/>
	<path fill="#00699D" fill-opacity="0.867" stroke="#000000" stroke-opacity="0.134" d="M355.471,246.511h6.002"/>
	<path fill="#00699D" fill-opacity="0.867" stroke="#000000" stroke-opacity="0.063" d="M355.325,248.865h6.001"/>
	<path fill="#00699D" fill-opacity="0.867" stroke="#000000" stroke-opacity="0.063" d="M354.325,252.051h6.001"/>
	<path fill="#00699D" fill-opacity="0.867" stroke="#000000" stroke-opacity="0.063" d="M354.18,254.821h6.002"/>
	<path fill="#00699D" fill-opacity="0.867" stroke="#000000" stroke-opacity="0.063" d="M352.469,257.869h6.002"/>
	<path fill="#00699D" fill-opacity="0.867" stroke="#000000" stroke-opacity="0.063" d="M350.758,260.364h6.002"/>
	<path fill="#00699D" fill-opacity="0.867" stroke="#000000" stroke-opacity="0.063" d="M349.177,263.272h6.002"/>
	<path fill="#00699D" fill-opacity="0.867" stroke="#000000" stroke-opacity="0.063" d="M347.32,266.049h6.001"/>
	<path fill="#00699D" fill-opacity="0.867" stroke="#000000" stroke-opacity="0.063" d="M346.045,268.679h6.002"/>
	<path fill="#00699D" fill-opacity="0.867" stroke="#000000" stroke-opacity="0.063" d="M343.318,271.859h6.001"/>
	<path fill="#00699D" fill-opacity="0.867" stroke="#000000" stroke-opacity="0.063" d="M342.108,274.764h3.858"/>
	<path fill="none" stroke="#000000" stroke-opacity="0.063" d="M355.325,248.865h6.001"/>
	<path fill="none" stroke="#000000" stroke-opacity="0.063" d="M354.325,252.051h6.001"/>
	<path fill="none" stroke="#000000" stroke-opacity="0.063" d="M354.18,254.821h6.002"/>
	<path fill="none" stroke="#000000" stroke-opacity="0.063" d="M352.469,257.869h6.002"/>
	<path fill="none" stroke="#000000" stroke-opacity="0.063" d="M350.758,260.364h6.002"/>
	<path fill="none" stroke="#000000" stroke-opacity="0.063" d="M349.177,263.272h6.002"/>
	<path fill="none" stroke="#000000" stroke-opacity="0.063" d="M347.32,266.049h6.001"/>
	<path fill="none" stroke="#000000" stroke-opacity="0.063" d="M346.045,268.679h6.002"/>
	<path fill="none" stroke="#000000" stroke-opacity="0.063" d="M343.318,271.859h6.001"/>
	<path fill="none" stroke="#000000" stroke-opacity="0.063" d="M342.108,274.764h3.858"/>
	<path fill="#F0BF00" stroke="#000000" stroke-width="0.625" stroke-linejoin="round" stroke-opacity="0.387" d="M350.023,231.532
		c-9.559-5.945-22.184-2.844-27.477,0.388c7.736-1.422,7.871-2.067,13.474-2.197C339.977,229.854,345.802,229.464,350.023,231.532z"
		/>
	<path fill="none" stroke="#000000" stroke-width="0.625" stroke-opacity="0.387" d="M344.438,230.562
		c-4.668,9.436-12.805,9.565-18.539-0.517"/>
	<path fill-opacity="0.368" d="M341.925,233.537c-1.43,1.449-4.93,2.31-7.815,1.924c-2.885-0.387-4.066-1.874-2.637-3.324
		c1.431-1.45,4.928-2.311,7.815-1.924C342.175,230.599,343.355,232.089,341.925,233.537L341.925,233.537z"/>
	<path fill="#FFD700" d="M335.073,231.518c0.142,0.353-0.298,0.82-0.985,1.045c-0.687,0.226-1.357,0.12-1.5-0.231
		c-0.144-0.351,0.297-0.82,0.983-1.044C334.257,231.063,334.931,231.167,335.073,231.518L335.073,231.518z"/>
</g>
</svg>
