<?xml version="1.0" encoding="utf-8"?>
<!-- Generator: Adobe Illustrator 15.0.2, SVG Export Plug-In . SVG Version: 6.00 Build 0)  -->
<!DOCTYPE svg PUBLIC "-//W3C//DTD SVG 1.1//EN" "http://www.w3.org/Graphics/SVG/1.1/DTD/svg11.dtd">
<svg version="1.1" id="Layer_1" xmlns="http://www.w3.org/2000/svg" xmlns:xlink="http://www.w3.org/1999/xlink" x="0px" y="0px"
	 width="640px" height="480px" viewBox="0 0 640 480" enable-background="new 0 0 640 480" xml:space="preserve">
<g>
	<defs>
		<rect id="SVGID_1_" y="0" width="640" height="480"/>
	</defs>
	<clipPath id="SVGID_2_">
		<use xlink:href="#SVGID_1_"  overflow="visible"/>
	</clipPath>
	<path clip-path="url(#SVGID_2_)" fill="#000066" d="M-374-16H650v512H-374V-16z"/>
	<path clip-path="url(#SVGID_2_)" fill="#BD1021" d="M-374,240L650,496V-16L-374,240z"/>
	<path clip-path="url(#SVGID_2_)" fill="#FFFFFF" d="M650,11.43v457.14L-264.29,240L650,11.43z"/>
	<path clip-path="url(#SVGID_2_)" fill="#9C3900" stroke="#000000" stroke-width="1.761" stroke-linejoin="round" d="M478,297.4
		c0,0-6.393-5.229,1.163-13.658c-4.068-3.485-0.29-10.17-0.29-10.17s-6.975-2.614,0.29-13.365
		c-5.229-3.487-2.906-11.333-2.906-11.333s-17.144-6.394-0.87-12.494c-13.367,5.81-25.863-7.849-25.863-7.849l-19.468,0.582
		c-3.302-16.172-28.97-2.127-9.888-48.52c-4.939-0.872-10.46-2.324-15.982,1.744c-5.521,4.066-21.211,12.784-30.51,4.066
		c-9.298-8.717,6.1-21.212,6.393-21.502c0.289-0.29,20.63-10.75,23.535-17.725c-0.289-5.23-6.682-9.298-0.871-20.63
		c6.683-10.753,47.649-20.923,66.26-24.41c9.007-4.068,13.076-11.914,13.076-11.914l2.033,7.555c0,0,41.263-12.205,43.297-18.016
		c2.033-5.812,0.871,5.229,0.871,5.229c16.272-1.452,36.903-15.399,39.811-9.008c13.656-2.615,39.811-14.237,39.811-14.237
		s9.006-0.29,2.612,9.59c4.068,6.392-1.162,11.913-1.452,11.913s1.743,6.394-3.486,9.88c1.744,5.521-3.197,9.88-3.197,9.88
		s2.326,6.684-6.973,10.17c0.871,5.812-5.23,6.975-5.23,6.975s0.872,6.103-3.196,8.718c0,4.649-4.649,6.974-4.649,6.974
		s2.905,1.743-1.164,4.649c-4.066,2.905-46.199,28.767-46.199,28.477s30.8,5.52,32.834,6.683
		c2.033,1.163,25.279,16.564,25.279,16.564l-23.536,29.056c0,0-26.15-2.905-27.313-1.452s5.521,2.034,6.974,4.358
		c1.455,2.324,3.779,7.847,8.428,7.265c4.65-0.582-8.717,8.428-17.434,9.3c0,3.195,11.039,3.485,13.946,0.87
		c2.907-2.614-6.973,7.556-8.136,9.009c-1.163,1.452,13.077-2.034,13.077-2.034s-2.324,9.59-14.818,12.496
		c4.94,8.136,2.905,13.366,2.614,13.366s-8.137-8.137-15.69-6.684c2.033,7.845,8.136,15.108,9.88,16.272
		c1.742,1.161-13.658,0.869-15.691-3.488c-2.034-4.358-3.778,10.46,1.742,15.109c-6.392,0.29-11.913-3.486-11.913-3.486
		s-3.776,8.717-1.162,13.077c2.616,4.359-9.006-8.719-9.006-8.719l-22.085,9.301l-4.939-8.429L478,297.4z"/>
	<path clip-path="url(#SVGID_2_)" fill="#FFC221" stroke="#000000" stroke-width="1.878" d="M307.325,280.1
		c0.518,0,32.082-0.518,46.571-8.797c7.244,11.384,17.076,19.146,17.076,19.146l4.658-16.56c0,0,11.385,0.518,12.42,3.106
		c-1.553,3.103-2.07,7.242-2.07,7.242s7.761,0.519,8.28,1.553c0.517,1.034-2.069,9.83-2.069,9.83l33.115,7.763
		c0,0,2.588-12.937,5.176-11.384c2.588,1.554,13.972,17.595,30.013,18.63s17.076-13.455,17.076-13.455l3.62,2.07
		c0,0,6.728-14.487,7.763-14.487s2.588,2.07,11.384,2.07c2.587,3.104,3.623,10.347,3.623,10.347s-9.833,9.833-6.729,17.595
		c3.105,7.762,3.623,5.69,3.623,5.69l71.408,17.076c0,0,3.624,5.693-2.586,8.799c0,0.517-71.927-16.561-71.927-16.561
		s-6.728,7.762-11.902,6.21c-5.174-1.552-1.552,3.105-1.552,3.105l77.618,6.21c0,0,5.692,7.244,1.552,9.313
		c-5.174,0.517-83.827-5.174-83.827-5.174s-4.659,9.83-9.833,1.552c-3.619,5.69-7.762-1.552-7.762-1.552s-6.727,5.174-7.762-0.521
		c-5.692,4.141-9.314-2.584-9.314-2.584l-33.118-2.07l-2.069,3.104c0,0,5.691,1.551-3.105,5.174
		c-8.796,3.623,52.78,2.07,54.333,2.588c1.552,0.52-4.14,5.176-4.14,5.176s31.565,2.07,37.257-4.657
		c5.692-6.729-2.07,8.795-2.07,8.795s24.841-1.034,24.841-2.069c0-1.037-0.521,7.763-17.596,6.727
		c10.35,6.729,23.285,10.867,23.285,10.867s-12.936,3.104-27.942-0.519c2.587,6.728,13.973,12.937,13.973,12.937
		s-8.28,7.244-26.91-10.351c5.176,9.315,1.036,12.938,0.52,11.902c-0.52-1.035-9.314-13.97-30.013-18.628
		c12.936,8.28,7.243,11.902,7.243,11.902s-6.726-11.902-17.593,0c-4.141-10.867-20.181-17.076-39.844-18.112
		c-6.211-7.243-9.83-5.174-24.32-9.313c-8.28-9.313-20.18-19.664-20.18-19.664s0.517-13.97,14.487-12.42
		c1.552,4.658,1.552,3.106,1.552,3.106s15.524-5.692,20.181,2.069c6.728-11.901,16.042-1.779,17.595,2.36
		c4.458,0.654,26.907,1.263,26.907,1.263s-2.589-4.657-1.035-4.141c1.552,0.518,13.97-4.656,13.454-6.208
		c-0.518-1.553-1.034-6.727,1.035-6.21c2.069,0.518-17.594-2.588-28.461,5.693c-3.621-3.623-1.034-13.455-1.034-13.455l-32.08-6.727
		l-1.554,8.28c0,0-9.314,1.55-8.797-0.518c0.518-2.07-2.069,7.243-2.069,7.243s-12.42-3.104-12.42-3.621
		c0-0.516,3.622-18.629,3.622-18.111s-10.35,1.035-24.838,11.902C339.925,297.693,307.325,280.616,307.325,280.1L307.325,280.1z"/>
	<path clip-path="url(#SVGID_2_)" fill="none" stroke="#000000" stroke-width="1.878" d="M385.98,284.763l-6.728,30.013
		 M392.188,296.146l-2.069,9.83 M425.307,303.907l-3.104,9.314 M482.748,367.03c-0.518,0-16.559,2.07-18.63,1.555
		c-2.068-0.518,25.356,8.279,25.356,11.899 M453.77,370.666c0,0-16.039-10.349-18.627-9.314c-2.588,1.035,16.039-0.518,17.594-2.07
		 M420.65,358.762c0,0-16.559,0.517-18.11-1.035s16.04,11.384,19.146,10.35 M388.566,351.508c-0.518,0-11.385-4.141-16.039-5.176
		c4.138,4.14,7.242,9.832,17.592,11.901 M392.707,344.787c-0.518-1.035-20.698-7.244-20.698-10.35
		c4.656,1.553,11.384,3.622,17.593,2.07 M499.822,320.98l-2.07,9.313"/>
	<path clip-path="url(#SVGID_2_)" fill="#FFC221" stroke="#000000" stroke-width="1.878" d="M347.688,237.67
		c0,0-21.733,18.628,0,29.494c1.034-7.244,2.588-8.278,2.588-8.278s18.109,6.726,28.977-9.315
		c-4.657-6.725-12.938-4.138-12.938-4.138s-17.075,0-18.627-7.76V237.67z"/>
	<path clip-path="url(#SVGID_2_)" fill="none" stroke="#000000" stroke-width="1.878" d="M365.8,245.954l-15.006,12.936
		 M412.016,335.8c0,0,3.461,3.813,0.354,8.47 M484.82,339.617l-5.692,0.521 M438.247,336.504l10.35,1.553 M466.083,309.895
		c0,0,0.29,10.46-8.427,10.17s-5.813,0.29-5.813,0.29"/>
	<path clip-path="url(#SVGID_2_)" fill="none" stroke="#000000" stroke-width="1.878" d="M472.773,308.148
		c0,0,3.487,1.162,2.616,3.778c-0.872,2.613,0.87,10.17-9.298,17.434c-10.753,2.324-9.59-9.007-9.59-9.007"/>
	<path clip-path="url(#SVGID_2_)" fill="none" stroke="#000000" stroke-width="1.878" d="M476.55,311.346
		c0,0,6.392-3.777,7.265,2.324c0.869,6.103-5.23,17.436-9.59,19.181c-4.358,1.742-9.298-0.292-8.718-3.197 M484.396,313.966
		c0,0,5.813-4.65,7.555,1.452c1.745,6.103-4.648,19.76-7.264,20.05 M492.523,315.416c0,0,2.907-1.452,4.94,0.291 M483.227,336.336
		c-1.162,0.289-6.102,0.58-7.845-3.196 M457.082,326.164c-0.29,0-6.102,0.293-6.102,0.293 M479.452,349.127l-0.58-9.59l-2.325-3.195
		l-4.068,4.067c0,0-0.582,9.591-2.325,10.46 M472.48,340.11c-0.293-0.58-3.198-6.1-3.198-6.1l-4.94,6.1c0,0-0.58,8.721-2.324,9.592
		 M464.336,339.815c0-0.29-2.034-5.811-2.034-5.811s-5.81,3.196-6.392,5.521c-0.58,2.325-0.872,8.717-2.325,9.3 M455.912,338.364
		c0,0,0.582-5.229-1.162-5.229c-1.742,0-9.59,7.265-9.88,13.657"/>
	<path clip-path="url(#SVGID_2_)" fill="#FFFFFF" stroke="#000000" stroke-width="1.878" stroke-linejoin="round" d="
		M348.402,237.824c0,0,2.904-2.905,3.776-6.392c0.87-3.487-1.163-7.265,2.324-10.46c3.487-3.198,49.397-22.666,53.176-26.444
		c3.777-3.777,10.75-11.914,11.623-13.657c0.87-1.743,3.487,8.717-4.36,13.366c8.429-2.325,13.951-4.939,17.436-3.779
		c-3.486,4.939-12.785,13.077-17.145,13.077c10.171-3.777,19.471-6.975,22.084-4.939c2.615,2.034-12.494,12.204-18.597,12.785
		c10.171-2.615,23.83-6.684,25.572-2.325c-5.521,1.744-3.78,3.195-15.11,9.59c-1.453,1.163-8.717,1.452-8.717,1.452
		c8.717-0.872,20.63-4.36,21.792,2.034c-6.973,2.615-9.588,6.102-15.399,7.555c-5.811,1.453-19.179,4.067-27.315,7.264
		c-8.136,3.196-20.05,12.495-20.05,12.495s-25.86,0.87-25.86,0.58s-4.94-11.914-5.229-12.205V237.824z"/>
	<path clip-path="url(#SVGID_2_)" fill="none" stroke="#000000" stroke-width="1.878" d="M360.605,235.797
		c0,0,0.289-5.811,2.905-7.846c2.616-2.033,15.693-6.975,18.601-11.333c2.904-4.359-4.36,7.555-3.198,10.75 M365.836,227.076
		c0,0,6.393,2.326,4.94,7.266"/>
	<path clip-path="url(#SVGID_2_)" fill="none" stroke="#000000" stroke-width="1.631" d="M373.391,230.422
		c0,2.648-2.146,4.795-4.795,4.795c-2.648,0.001-4.795-2.146-4.796-4.794c0-2.648,2.146-4.796,4.795-4.796
		C371.243,225.626,373.391,227.774,373.391,230.422L373.391,230.422z"/>
	<path clip-path="url(#SVGID_2_)" fill="#FFFFFF" stroke="#000000" stroke-width="1.878" d="M570.116,220.104l50.27,9.59
		c0,0,5.521-6.394,2.615-9.88c7.556-1.743,5.522-11.623,5.522-11.623s8.717-3.775,1.451-12.495c4.942-4.939-1.162-8.717-1.162-8.717
		s2.035-8.717-4.359-9.59c1.745-6.972-11.04-9.297-11.04-9.297s-26.442,7.265-45.04,7.847c6.102,6.103-2.325,9.88-2.325,9.88
		s4.94,3.486,3.487,6.393c-1.453,2.904,0.872,6.1-5.52,8.136c8.426,3.778-0.873,10.17-0.873,10.17s9.3,6.392,6.976,9.588
		L570.116,220.104z"/>
	<path clip-path="url(#SVGID_2_)" fill="none" stroke="#000000" stroke-width="1.878" d="M565.17,209.356
		c0,0,44.46,5.23,46.494,5.23s9.88,2.615,11.333,5.229 M567.495,206.735l61.893,1.453 M567.79,205.284c0,0,58.698-3.486,62.766-9.59
		 M569.523,192.5c0,0,58.988-6.395,59.57-5.522 M567.495,185.234c0,0,57.244-9.007,57.825-7.555 M404.193,148.332
		c0,0,18.016,19.76,16.271,33.126"/>
	<path clip-path="url(#SVGID_2_)" fill="none" stroke="#000000" stroke-width="1.878" d="M419.303,170.997
		c0,0,5.811,8.426,8.137,9.298c2.325,0.872,22.664,2.034,23.826,10.752c1.162,5.52-4.357,3.776-3.485,7.845
		c1.452,5.23,15.109,11.913,29.93,4.068 M464.055,207.03c0,0,12.203,18.018,30.221-1.449 M484.975,213.427
		c0,0,14.819,7.845,27.022-12.495 M496.3,215.159c0,0,7.265,6.103,22.376-2.032 M539.604,204.99c0,0,22.375,4.647,23.827,6.101
		 M548.027,200.058c0.289,0,15.691,0.582,15.691,0.582 M538.434,191.337c0,0,26.733-1.743,30.221,3.777 M526.813,182.909
		c0,0,37.485,1.453,39.228,3.487 M535.236,221.26c0,0,6.393-1.743,7.265-0.87 M520.713,236.951c0,0,8.426,7.266,19.18,4.068
		 M525.359,249.166c0,0,9.591,4.357,20.924,1.741 M528.561,256.42c0,0,9.588,6.393,15.979,5.229 M524.206,260.21
		c0,0,6.683,4.939,6.973,7.555 M514.91,266.014c0,0,2.033,10.46,9.298,14.237 M509.964,270.662c0,0-3.196,13.657,4.94,22.084
		 M501.54,281.409c0,0.29-0.58,6.394-0.29,6.976 M449.234,228.528l15.692-0.872c0,0,5.811-2.323,1.742-6.1 M468.703,225.05
		c0.292,0,14.82,1.16,18.598,5.52c3.778,4.358,8.428,13.075,11.042,14.53c2.616,1.45,3.197-0.583,3.197-0.583 M495.145,242.192
		c0,0-7.845,13.368-1.742,17.437 M490.777,257.012c0,0-6.973,9.3-1.452,13.948 M487.876,269.79c0,0-5.521,9.008,1.163,15.109
		 M485.439,245.897c-0.375,0.375-6.75,4.874-9,3.75 M478.689,260.14c0,0,2.625,2.624,4.875,2.25 M479,273.776l4.189,2.872
		 M479.564,284.214l3.623,2.186 M413.934,141.699c0,0,7.64,3.975,13.75,0c6.111-3.97,35.445-18.942,43.084-21.388
		s11.918-16.5,13.445-22.609 M478.41,114.199l42.779-12.526c0,0,7.027-5.807,7.332-16.5 M525.46,96.783
		c0,0,42.778-4.277,42.778-20.167 M561.523,87.615c0,0,44.916-12.223,49.196-16.806"/>
	<path clip-path="url(#SVGID_2_)" fill="none" stroke="#000000" stroke-width="1.878" d="M436.232,151.48
		c0,0,27.195-14.057,31.474-15.584c4.276-1.528,14.055-13.75-0.61-13.75"/>
	<path clip-path="url(#SVGID_2_)" fill="none" stroke="#000000" stroke-width="1.878" d="M449.376,156.98
		c0.306,0,22.305-14.363,29.64-16.196c3.973-5.5,1.834-11.305-4.89-10.083"/>
	<path clip-path="url(#SVGID_2_)" fill="none" stroke="#000000" stroke-width="1.878" d="M480.846,137.117
		c0.612-0.306,11.918-0.611,7.945,8.25c-5.802,4.278-30.859,16.807-30.859,16.807 M475.042,127.645l47.67-15.89
		c0,0,3.974-8.25-1.832-9.473 M560.607,87.92c0,0.307,6.111,3.668,2.444,9.168c-6.722,3.973-38.5,11.611-38.5,11.611
		 M608.883,83.032L563.965,95.56 M605.516,93.116l-39.109,11.917 M602.164,102.895l-34.53,10.39 M595.74,112.672
		c-0.917,0-25.667,7.64-25.667,7.64 M590.246,120.312l-15.891,6.417 M586.273,128.866c-0.61,0-13.75,5.806-13.75,5.806
		 M582.3,135.895l-12.22,5.805 M561.213,149.034c0,0,1.528,0.61,1.223,2.445 M530.348,165.84c0,0,5.195,1.834,0.307,6.723
		c-2.444,3.36-9.473,2.445-13.75,8.556 M563.664,97.395c0,0,6.418,1.528,1.528,9.778c-12.834,4.89-38.808,12.833-38.808,12.833
		s-1.22,2.14-4.582,3.973c-3.359,1.832-40.334,12.22-40.334,12.22 M565.805,106.866c0,0,7.028,3.057,0,8.25
		c-7.944,4.584-35.75,13.141-35.75,13.141s-0.307,2.443-1.527,3.359c-1.223,0.917-37.891,13.141-37.891,13.141"/>
	<path clip-path="url(#SVGID_2_)" fill="none" stroke="#000000" stroke-width="1.878" d="M567.636,115.115
		c0,0,7.334,2.141,0.917,8.25c-7.64,4.584-32.084,12.834-32.084,12.834s-2.445,3.057-6.418,4.278
		c-3.972,1.222-29.333,11.61-29.333,11.61 M569.468,123.366c2.14,0.917,7.945,1.834,0.917,7.334
		c-8.25,3.667-28.417,11.612-28.417,11.612l-1.834,3.36l-32.083,13.75 M571.3,131.617c0,0,3.054,3.667-3.668,7.945
		c-7.334,3.972-23.222,10.083-23.222,10.083 M567.636,140.173c0,0,3.36,2.14-0.915,5.195c-4.89,2.443-24.14,12.527-24.14,12.527
		l-12.528,8.25"/>
	<path clip-path="url(#SVGID_2_)" fill="none" stroke="#000000" stroke-width="1.878" d="M523.63,112.06
		c0,0.307,5.194,4.584,3.36,9.473c4.584,3.362,3.667,7.028,3.667,7.028s6.416,3.668,5.5,8.863c6.417,1.527,6.11,5.193,6.11,5.193
		l-2.139,3.36c0,0,6.415-0.304,0.916,7.946c3.36,1.833,1.834,3.972,1.834,3.972 M541.04,154.23c-0.917,0-22.306,7.944-27.806,12.833
		"/>
	<path clip-path="url(#SVGID_2_)" fill="none" stroke="#000000" stroke-width="1.878" d="M489.41,144.757
		c0,0,6.418-0.307,5.502,6.722c7.334-2.445,5.805,4.583,5.805,4.583s8.555-3.362,7.028,7.333c5.5-1.222,4.583,4.278,4.583,4.278
		s4.89-0.307,4.89,2.443c3.36-3.055,7.028-1.526,7.028-1.526s2.443-3.36,5.805-2.444 M495.215,151.174
		c0,0.609-28.723,16.5-28.723,16.5 M500.71,156.366l-21.696,13.445 M508.048,163.09c0,0.305-18.944,11.306-18.944,11.306
		 M512.33,167.367c0,0-13.444,11-16.5,10.391 M516.91,170.73c0,0-7.641,5.805-14.057,8.555 M524.854,168.284
		c0,0,2.444,3.057-12.832,11"/>
</g>
</svg>
