<?xml version="1.0" encoding="utf-8"?>
<!-- Generator: Adobe Illustrator 15.0.2, SVG Export Plug-In . SVG Version: 6.00 Build 0)  -->
<!DOCTYPE svg PUBLIC "-//W3C//DTD SVG 1.1//EN" "http://www.w3.org/Graphics/SVG/1.1/DTD/svg11.dtd">
<svg version="1.1" id="Layer_1" xmlns="http://www.w3.org/2000/svg" xmlns:xlink="http://www.w3.org/1999/xlink" x="0px" y="0px"
	 width="640px" height="480px" viewBox="0 0 640 480" enable-background="new 0 0 640 480" xml:space="preserve">
<g>
	<path fill="#00267F" d="M0,0h640v480H0V0z"/>
	<path fill="#FFC726" d="M213.333,0h213.333v480H213.333V0z"/>
	<path id="a" d="M319.77,135.527c-6.933,18.907-14,38.587-29.12,53.654c4.694-1.546,12.907-2.933,18.187-2.8v79.52l-22.453,3.334
		c-0.8-0.08-1.067-1.333-1.067-3.04c-2.16-24.692-8-45.439-14.72-66.906c-0.479-2.934-8.986-14.134-2.427-12.16
		c0.8,0.106,9.574,3.68,8.187,1.974c-11.947-12.373-29.413-21.28-46.373-23.92c-1.494-0.373-2.374,0.374-1.04,2.107
		c22.506,34.64,41.333,75.52,41.173,124.026c8.747,0,29.947-5.173,38.72-5.173v56.107h11.067l2.533-156.693L319.77,135.527z"/>
	<path id="a_1_" d="M319.77,135.527c6.933,18.907,14,38.587,29.121,53.654c-4.694-1.546-12.908-2.933-18.188-2.8v79.52l22.453,3.334
		c0.8-0.08,1.066-1.333,1.066-3.04c2.16-24.692,8-45.439,14.721-66.906c0.479-2.934,8.986-14.134,2.427-12.16
		c-0.8,0.106-9.574,3.68-8.187,1.974c11.946-12.373,29.412-21.28,46.372-23.92c1.494-0.373,2.374,0.374,1.04,2.107
		c-22.506,34.64-41.333,75.52-41.173,124.026c-8.747,0-29.946-5.173-38.72-5.173v56.107h-11.067l-2.533-156.693L319.77,135.527z"/>
</g>
</svg>
