<?xml version="1.0" encoding="utf-8"?>
<!-- Generator: Adobe Illustrator 15.0.2, SVG Export Plug-In . SVG Version: 6.00 Build 0)  -->
<!DOCTYPE svg PUBLIC "-//W3C//DTD SVG 1.1//EN" "http://www.w3.org/Graphics/SVG/1.1/DTD/svg11.dtd">
<svg version="1.1" id="Layer_1" xmlns="http://www.w3.org/2000/svg" xmlns:xlink="http://www.w3.org/1999/xlink" x="0px" y="0px"
	 width="640px" height="480px" viewBox="0 0 640 480" enable-background="new 0 0 640 480" xml:space="preserve">
<g>
	<defs>
		<rect id="SVGID_1_" y="0" width="640.004" height="480"/>
	</defs>
	<clipPath id="SVGID_2_">
		<use xlink:href="#SVGID_1_"  overflow="visible"/>
	</clipPath>
	<path clip-path="url(#SVGID_2_)" fill="#00CF00" d="M-82,0l402,240L-82,480V0z M722,0L320,240l402,240V0z"/>
	<path clip-path="url(#SVGID_2_)" fill="#FF0000" d="M-82,0l402,240L722,0H-82z M-82,480l402-240l402,240H-82z"/>
	<path clip-path="url(#SVGID_2_)" fill="#FFFFFF" d="M722,0h-74.908L-82.002,435.281v44.721h74.908L722,44.722V0z"/>
	<path clip-path="url(#SVGID_2_)" fill="#FFFFFF" d="M458.802,240c0,76.656-62.143,138.797-138.799,138.797
		c-76.657,0-138.8-62.14-138.8-138.797c0-76.658,62.142-138.8,138.8-138.8C396.66,101.2,458.802,163.342,458.802,240z"/>
	<path clip-path="url(#SVGID_2_)" fill="#FFFFFF" d="M-82,0v44.722l729.094,435.28h74.908v-44.721L-7.092,0H-82z"/>
	<path clip-path="url(#SVGID_2_)" fill="#FF0000" stroke="#00DE00" stroke-width="3.901" d="M347.321,187.654l-18.047,0.302
		l-9.326,15.415l-9.3-15.443l-18.019-0.384l8.722-15.771l-8.667-15.82l18.021-0.312l9.354-15.429l9.298,15.465l18.021,0.385
		l-8.75,15.766L347.321,187.654z M286.853,292.297l-18.047,0.302l-9.326,15.415l-9.3-15.441l-18.019-0.384l8.722-15.772
		l-8.667-15.82l18.021-0.312l9.354-15.429l9.298,15.466l18.021,0.384l-8.75,15.766L286.853,292.297z M409.262,292.297l-18.047,0.302
		l-9.326,15.415l-9.3-15.441l-18.019-0.384l8.722-15.772l-8.667-15.82l18.021-0.312l9.354-15.429l9.298,15.466l18.021,0.384
		l-8.749,15.766L409.262,292.297z"/>
</g>
</svg>
