<?xml version="1.0" encoding="utf-8"?>
<!-- Generator: Adobe Illustrator 15.0.2, SVG Export Plug-In . SVG Version: 6.00 Build 0)  -->
<!DOCTYPE svg PUBLIC "-//W3C//DTD SVG 1.1//EN" "http://www.w3.org/Graphics/SVG/1.1/DTD/svg11.dtd">
<svg version="1.1" id="Layer_1" xmlns="http://www.w3.org/2000/svg" xmlns:xlink="http://www.w3.org/1999/xlink" x="0px" y="0px"
	 width="640px" height="480px" viewBox="0 0 640 480" enable-background="new 0 0 640 480" xml:space="preserve">
<g>
	<path fill="#CF142B" d="M0,0h640v480H0V0z"/>
	<path fill="#00247D" d="M0,0h320v160H0V0z"/>
	<path fill="#FFFFFF" d="M0,0v17.888L284.224,160H320v-17.889L35.776,0H0z M320,0v17.888L35.776,160H0v-17.889L284.224,0H320z"/>
	<path fill="#FFFFFF" d="M133.333,0v160h53.334V0H133.333z M0,53.333v53.334h320V53.333H0z"/>
	<path fill="#CF142B" d="M0,64v32h320V64H0z M144,0v160h32V0H144z M0,160l106.667-53.333h23.85L23.85,160H0z M0,0l106.667,53.333
		h-23.85L0,11.925V0z M189.483,53.333L296.15,0H320L213.333,53.333H189.483z M320,160l-106.667-53.333h23.85L320,148.074V160z"/>
	<path fill="#FFFFFF" d="M553.83,148.26v135.513c0,36.197-72.36,47.957-72.36,47.957s-72.357-11.76-72.357-47.957V148.26h144.72
		H553.83z"/>
	<path fill="#2F8F22" d="M553.83,283.773c0,36.197-72.36,47.957-72.36,47.957s-72.357-11.76-72.357-47.957c0,0,0-2.915,1.472-4.573
		c0,0-0.797,6.021,3.828,10.574c0,0-3.628-6.423-0.08-12.735c0,0-1.316,8.122,3.748,12.785c0,0-2.79-6.635,0.359-14.032
		c0,0-1.556,12.104,3.947,14.517c0,0,1.514-6.956-0.678-11.42c0,0,3.787,1.528,3.587,11.62c0,0,1.196-1.487,1.515-8.766
		c0,0,0.16,8.323,3.03,10.254c0,0,0.878-0.845-0.317-4.624c-1.196-3.78,0.518-5.105,0.797-5.025c0,0-0.629,4.18,2.877,7.318
		c0,0-1.521-6.555,0.594-7.44c0,0-0.438,5.55,3.948,6.797c0,0,0.319-1.609-0.638-3.418c0,0-0.838-2.146-0.201-3.787
		c0,0,1.396,5.033,3.311,5.878c0,0-1.157-2.949-0.08-5.878c0,0,0.24,4.19,3.987,5.918c0,0-2.47-3.243-1.494-6.81l24.103,1.18
		l12.479,0.596l37.442-2.646l6.459-5.55c0,0,2.551,3.54-1.476,9.13c0,0,3.99-0.726,5.265-6.958c0,0,1.635,3.458-0.6,7.28
		c0,0,4.428-4.425,5.065-9.45c0,0,1.715,4.864-2.472,10.092c0,0,3.748-1.247,5.343-6.796c0,0,1.276,3.343-2.353,8.066
		c0,0,6.78-3.601,6.58-11.04c0,0,2.83,4.1-0.4,9.729c0,0,3.471-3.096,3.791-7.72c0,0,1.912,2.09-0.16,7.84
		c0,0,4.226-3.98,4.863-8.283c0,0,0.918,3.98-2.709,9.007c0,0,2.469-0.603,4.823-5.51c0,0,0.638,1.932-1.515,5.47
		c0,0,2.313-0.401,3.867-4.824c0,0,0.28,2.653-0.397,5.026c0,0,1.794-1.166,2.192-6.192c0,0,1.003,1.647,1.021,3.697
		c0.015,2.053-0.002,0.705-0.002,0.705L553.83,283.773z"/>
	<path fill="#D40000" stroke="#000000" stroke-width="0.532" stroke-linejoin="round" d="M516.57,205.436
		c0,0-2.517,0.427-5.745-0.557c-3.23-0.985-4.535-0.585-5.537,0c0,0,1.31-2.597-1.88-4.646c0,0,1.037,2.62-0.398,3.843
		c0,0-0.638,0.601-1.396-0.304c0,0-1.116-1.146-2.292-2.03c0,0,2.71-0.944,2.213-3.699c-0.5-2.754-1.975-3.116-2.77-3.457
		c0,0,0.277,1.246,0,2.09c0,0-2.953-1.648,1.055-3.98c4.007-2.333,3.27-3.699,2.552-4.886c-0.718-1.185-2.253-2.492-3.01-2.955
		c0,0,0.797,1.247,0.657,2.313c-0.141,1.064-1.955,1.75-1.597-0.12c0.36-1.87-0.02-1.55-0.06-3.54c0,0,3.57,1.207,4.965-2.271
		c0,0,1.374-3.6-3.132-5.39c0,0,1.097,1.468,0.558,2.574c0,0-0.956,1.81-2.093,0.342s-1.854-1.75-1.734-3.48
		c0,0,4.087,0.565,2.97-3.88c0,0-0.657,2.957-5.959-1.023c0,0,3.446-3.54,2.111-6.395c0,0-0.42-1.307-4.167-0.543
		c0,0,3.25-2.05,1.874-3.8c0,0-0.699-1.165-3.729,0.362c0,0,1.177-2.03-1.794-4.223c0,0-1.993,1.047-3.051,2.011
		c0,0-2.032-2.573-3.33-3.599c0,0-2.352,0.905-2.949,3.601c0,0-1.096-1.309-3.588-1.91c0,0-1.196,2.21,0.359,4.14
		c0,0-1.158-0.04-3.27-0.965c0,0-2.413-1.146-2.055,0.925c0.359,2.07,0.537,2.533,1.017,3.498c0,0-5.413-1.257-5.183,1.67
		c0.159,2.03,0.916,3.778,2.592,5.246c0,0-3.032,3.96-5.624,0.984c0,0-0.897,0.965,1.036,3.498c0,0,1.935,2.13,0.341,3.479
		c0,0-2.134,1.707-3.171-1.609c0,0-3.449,3.438,0.619,6.071c0,0,2.612,1.488,5.283-0.805c0,0-0.816,6.594-3.369,5.327
		c0,0-1.535-1.125,1.215-2.472c0,0-3.967-0.503-4.604,3.337c0,0-0.49,3.055,2.97,4.162c0,0,2.672,0.965-0.1,3.035
		c0,0-1.954,1.488-0.677,3.7c0,0,1.534,2.433-2.354,2.673c0,0-2.112-0.02-2.87-0.3c0,0-0.854,1.584-0.258,3.396
		c0,0-1.936-1.442-6.342,0.153c-4.406,1.598-4.067,0.471-4.426,0.954c-0.36,0.482-1.217,2.11-1.217,2.11s2.313,2.814,2.352,2.755
		c0.04-0.06-0.438,3.217-0.438,3.217l1.137,0.543l9.07-4.04l9.211-4.8l7.405,0.453l4.698,1.118l6.168,0.45l4.418-2.356h6.4
		l7.037,3.507l8.034,4.794l4.188,0.734l3.225-0.172v-6.506l-1.569-2.354L516.57,205.436z"/>
	<path fill="#D40000" stroke="#000000" stroke-width="0.532" stroke-linejoin="round" d="M443.503,213.043
		c0,0,3.51,1.79,4.974-0.383c0,0,1.916-3.647-2.287-4.913c0,0,2.287-2.745-0.166-5.278c0,0-1.285-1.357-3.529-0.36
		c0,0-0.926-1.932-3.11-1.872c0,0-1.913-0.029-2.569,2.08c0,0-2.634-1.084-4.099,0.484c0,0-2.423,2.714,0.957,4.854l2.433,0.223
		l2.392-1.106l2.67,0.766c0.003,0-0.685,2.703,2.335,5.508L443.503,213.043z"/>
	<path fill="#64B4D1" stroke="#000000" stroke-width="0.399" d="M521.83,206.626c4.227-0.398,5.72,3.17,5.72,3.17
		c2.216,5.197-2.489,7.973-2.489,7.973c0.359,1.165,0.399,2.692,0.399,2.692c6.617,0.805,5.46,8.244,5.46,8.244l-2.191-1.811
		c-3.828-1.488-7.775,1.771-10.606,7.238c-2.83,5.47-1.476,8.042-0.997,14.516c0.48,6.474,11.005,10.334,11.005,10.334
		s-4.983,12.827-8.214,21.07s-9.968,4.825-11.922,3.09c-1.954-1.738-2.442-0.772-3.43,0c-0.986,0.771,4.427,4.992-5.422,8.973
		c-9.851,3.98-11.563,7.037-13.198,8.042c-1.634,1.005-8.453,0.32-9.13-0.523c-0.679-0.845-0.28-0.845-2.83-2.413
		c-2.553-1.568-6.86-2.935-11.565-5.227c-4.706-2.292-4.586-5.229-4.546-5.83c0.04-0.604,1.634-5.511-3.876-1.61
		s-10.2-1.856-10.2-1.856c-1.076-1.414-5.662-13.703-5.662-13.703c-1.236-4.584-3.668-9.933-3.668-9.933
		c0.12-0.04-0.24,0.563,3.828-1.77c4.067-2.33,5.889-6.21,7.296-10.05c1.408-3.841,0.04-10.416-0.478-11.743
		c-0.521-1.326-3.551-7.41-7.303-8.685s-6.268,1.891-6.268,1.891s-1.158-7.44,5.46-8.244c0,0,0.04-1.527,0.4-2.693
		c0,0-4.705-2.775-2.49-7.975c0,0,1.493-3.567,5.72-3.17l-1.021,1.935c0,0-1.065,10.616,14.474,3.5
		c15.538-7.12,15.072-8.446,23.924-3.981l6.46-0.12c0,0,9.33-4.317,12.32-2.46c2.99,1.856,13.756,7.888,13.756,7.888
		s10.407,3.903,12.44-3.296l-1.156-3.464L521.83,206.626z"/>
	<path fill="#FFFFFF" stroke="#00247D" stroke-width="0.532" stroke-miterlimit="10" d="M475.078,252.65c0,0-0.54-3.258-1.107-5.368
		c0,0-1.152-3.31,0.815-5.636l2.44-2.807c0,0,1.515-2.04,3.393-2.318c0,0,1.877-0.056,2.056-0.438c0.181-0.383,2.233-3.761,7.117,0
		c0,0,1.558-2.493,3.95-2.915c0,0,2.583-0.785,3.833,1.145c0,0,2.903-2.202,5.397,1.342c0,0,3.449-1.939,5.959,1.918
		c0,0,3.41-1.663,5.504,1.881c2.094,3.546,1.675,4.992,1.675,4.992l1.554,5.63l5.504,6.796l-12.8,4.824h-5.74l-11.483,3.076
		l-20.396,1.568l-5.682-6.695l8.013-6.996L475.078,252.65z"/>
	<path fill="#D40000" stroke="#000000" stroke-width="0.532" stroke-linejoin="round" d="M457.84,286.547
		c0,0-3.05,0.182-4.605,0.966s-2.75,1.628-4.545,2.774c0,0-0.838,1.115-4.367,0.437c0,0-6.101-1.462-6.101,3.303
		c0,0-7.298,0.603-4.307,6.996c0,0,2.033,5.006,6.22,1.448c0,0-2.691,3.859,2.512,5.37c0,0,3.709,0.903,4.784-2.896
		c0,0,0.601-1.508-0.837-3.378c0,0,1.795-0.361,3.051-2.292c0,0-3.828,4.838,0.359,6.58c0,0,5.26,1.32,5.561-4.168
		c0,0-0.429-2.533,1.609-3.438c0,0,4.193-0.965,6.107-5.64c0,0-6.028-3.21-5.443-6.06L457.84,286.547z M445.52,238.44
		c0,0-4.703-2.167-6.937,0c0,0-3.11-1.926-6.38,0c0,0-3.11,2.033-5.264,4.271c0,0-1.515,1.3-0.957,5.388c0,0,0.799,2.883,0.32,4.33
		c0,0-1.038-0.204-3.109,2.253c0,0-2.633,3.048-4.945,0.358c0,0,0.717,3.743,5.063,3.14c0,0-2.111,1.65-0.277,5.912
		c0,0,1.355,3.016-0.797,6.795c0,0,3.787-1.527,3.628-5.99c0,0-0.32-3.016,0.797-5.147c0,0-1.116,1.938,1.476,6.071
		c0,0,1.993,2.976,0.36,6.07c0,0,3.747-1.366,3.388-5.91c-0.357-4.544-2.632-2.654-1.156-6.836c0,0,0.36,2.143,1.476,3.222
		c1.116,1.08,2.552,2.891,1.954,5.906c0,0,2.232-2.774,1.714-5.63c-0.517-2.854-1.075-3.718-1.075-3.718l7.057-4.002l3.511-6.354
		l0.159-10.13L445.52,238.44z"/>
	<path fill="none" stroke="#000000" stroke-width="0.532" stroke-miterlimit="10" d="M434.796,256.37c0,0-2.91-0.2-3.39-2.454
		 M426.302,252.43c0,0,1.015-0.04,1.933,0.884c0,0,0.699,1.045,1.696,0.924"/>
	<path d="M439.1,247.805c0,0-1.513,0-2.35-0.724c0,0-0.88-0.603-1.396,0.362c0,0-0.798,1.367,0.678,1.971
		c0,0,1.835,0.925-1.076,2.774c0,0,3.47-1.247,2.074-2.935c0,0-1.516-1.086-0.957-1.488c0,0,0.16-0.322,0.76,0.08
		c0.597,0.402,1.793,0.242,2.27-0.04L439.1,247.805z"/>
	<path fill="#784421" stroke="#000000" stroke-width="0.399" d="M484.877,256.09l1.784-0.604l-11.658-40.264l-0.427,0.114
		L484.877,256.09z"/>
	<path d="M446.057,300.659c0,0-2.75-1.547-5.023,0.264c0,0,0.232-1.007,1.97-1.448c0,0,0.94-2.654,3.572-2.413
		c0,0-1.076,1.286-2.513,2.373C444.063,299.435,445.579,299.591,446.057,300.659L446.057,300.659z"/>
	<path fill="#64B4D1" stroke="#00247D" stroke-width="0.399" stroke-miterlimit="2.613" d="M436.368,307.054
		c0,0-4.366-2.744-2.004-7.358c0,0,0.688-1.327,2.004-1.056c0,0,2.72,0.844,0.598,4.614
		C436.966,303.254,435.889,305.698,436.368,307.054L436.368,307.054z M445.22,311.397c0,0-6.22-2.834-4.307-7.66
		c0,0,0.592-1.63,1.97-1.508c0,0,2.4,0.12,1.92,3.316C444.803,305.545,444.083,308.682,445.22,311.397L445.22,311.397z"/>
	<path d="M443.904,293.39c0,0-1.87,1.38-2.631,2.305c0,0-0.76-0.944-1.756-1.518c0,0,1.148-0.15,1.758,0.365
		C441.275,294.542,442.229,293.617,443.904,293.39L443.904,293.39z"/>
	<path fill="#64B4D1" stroke="#00247D" stroke-width="0.399" stroke-miterlimit="2.613" d="M449.436,310.19
		c0,0,4.875-1.234,3.979-6.271c0,0-0.48-2.2-2.542-1.9c0,0-2.487,0.635-0.868,3.836C450.004,305.854,450.961,308.14,449.436,310.19
		L449.436,310.19z"/>
	<path fill="#F5CE00" stroke="#000000" stroke-width="0.532" stroke-miterlimit="2.613" d="M471.46,203.645
		c0,0,3.14,0.963,4.845,1.658c0,0,4.545,2.05,10.317,0c0,0,3.903-1.546,4.424-1.658l-2.99,4.553l-0.149,2.353l1.869,2.744
		c0,0-1.119,0.453-4.47-1.599c0,0-3.71-2.864-8.135,0c0,0-2.42,1.641-4.454,1.599l2.87-3.205l-1.106-2.889L471.46,203.645
		L471.46,203.645z"/>
	<path fill="#FFFFFF" d="M451.32,304.174c0,0,0.18-0.24-0.03-0.348c0,0-0.21-0.09-0.36,0.204c0,0-0.507,0.808-0.076,1.912
		c0,0,0.406,0.765,0.209,1.565c0,0-0.027,0.226,0.152,0.256c0,0,0.172-0.061,0.206-0.225c0,0,0.244-0.78-0.175-1.545
		C451.246,305.994,450.738,304.809,451.32,304.174L451.32,304.174z"/>
	<path fill="#D40000" stroke="#000000" stroke-width="0.532" stroke-linejoin="round" d="M518.84,213.043c0,0-3.51,1.79-4.974-0.383
		c0,0-1.914-3.647,2.288-4.913c0,0-2.288-2.745,0.164-5.278c0,0,1.285-1.357,3.529-0.36c0,0,0.927-1.932,3.11-1.872
		c0,0,1.913-0.029,2.57,2.08c0,0,2.633-1.084,4.098,0.484c0,0,2.422,2.714-0.957,4.854l-2.433,0.223l-2.393-1.106l-2.671,0.766
		c-0.002,0,0.687,2.703-2.334,5.508L518.84,213.043z"/>
	<path fill="#F5CE00" stroke="#000000" stroke-width="0.532" stroke-miterlimit="2.613" d="M491.048,210.21
		c0,0-0.09,0.723-0.807,0.803c0,0-0.748,0.242-1.185-0.69c0,0-0.05-0.212-0.062-0.314c-0.05-0.437-0.2-1.69,1.155-2.714
		c0,0,2.215-1.811,6.44,0.382c0,0,3.351,1.607,5.662,2.975c0,0,5.979,3.218,6.7,3.46c0,0,2.63,1.326,6.658,1.487
		c0,0,5.502,0.402,7.834-3.458c0,0,1.774-2.936,0-4.806c0,0-0.717-0.845-1.897-0.69c-0.495,0.067-1.043,0.295-1.569,0.91
		c0,0-0.858,1.248,0.138,2.173c0,0,1.296,0.794,1.754-0.884c0,0,0.021-0.12,0.06,0.03c0.025,0.097,0.318,1.377-0.369,2.462
		c0,0-3.32,5.023-12.45-0.183l-12.042-6.754c0,0-6.04-3.097-9.65,1.748c0,0-2.91,4.021,0.838,6.655c0,0,2.79,1.668,4.545-0.985
		c0,0,1.457-2.613-0.836-3.76c0,0-2.013-0.944-2.81,1.066c-0.798,2.01,1.554,2.532,1.772,1.105
		C490.928,210.229,490.988,209.886,491.048,210.21L491.048,210.21z"/>
	<path fill="#E4CB5E" stroke="#000000" stroke-width="0.399" stroke-miterlimit="2.613" d="M443.314,230.937v-7.54
		c0-0.592,0.005-1.085,0.9-1.81c0.898-0.724,1.855-1.87,3.23,1.39c0,0,2.691-2.836,3.59-3.258c0,0,1.554-1.328,2.63,0.602
		c0,0,1.437-2.172,2.572-2.715c0,0,2.691-1.75,2.81,3.5l2.096-1.932c0,0,1.613-1.326,3.409,0.482c0,0,3.05,2.955,3.468,3.801
		c0,0,0.674,0.914,0.726,2.356c0,0-0.008,1.623,0.83,2.528c0,0,0.956,0.844,1.883,1.024c0,0,2.183,0.061,2.96,2.11
		c0,0,0.359-0.354,1.436,9.473v17.912l-12.082,14.415l-19.377-5.55l-7.717-3.196l-1.734-5.668l7.477-4.824l4.068-10.979l-1.316-7.72
		L443.314,230.937z"/>
	<path fill="#784421" stroke="#000000" stroke-width="0.399" d="M496.71,240.446l0.917-1.366l2.193-1.69c0,0,3.35,8.79,3.51,10.708
		v2.728c0,0,5.023,1.282,5.9,9.002l-4.146,7.641l-6.5-3.62l-1.873-1.366L496.71,240.446L496.71,240.446z"/>
	<path fill="#FFFFFF" d="M435.156,300.797c0,0,0.24-0.317,0.074-0.452c0,0-0.104-0.15-0.387,0.21c0,0-1.32,1.477-0.27,3.748
		c0,0,0.12,0.324,0.33,0.218c0,0,0.18-0.09,0.014-0.36c0,0-0.939-1.869,0.24-3.363H435.156z"/>
	<path fill="none" stroke="#000000" stroke-width="0.532" stroke-miterlimit="10" d="M454.75,299.314c0,0,0.198-0.683-0.28-1.407
		c0,0-0.317-0.522-0.2-1.207"/>
	<path fill="none" stroke="#000000" stroke-width="0.399" stroke-miterlimit="10" d="M459.05,221.106c0,0,0.017,1.885,0.556,3.273
		c0.539,1.386,2.356,3.785,2.476,5.082"/>
	<path fill="#D40000" stroke="#000000" stroke-width="0.532" stroke-linejoin="round" d="M504.625,286.547
		c0,0,3.05,0.182,4.605,0.966c1.555,0.784,2.75,1.628,4.545,2.774c0,0,0.837,1.115,4.365,0.437c0,0,6.103-1.462,6.103,3.303
		c0,0,7.297,0.603,4.306,6.996c0,0-2.033,5.006-6.22,1.448c0,0,2.692,3.859-2.512,5.37c0,0-3.708,0.903-4.784-2.896
		c0,0-0.6-1.508,0.837-3.378c0,0-1.796-0.361-3.05-2.292c0,0,3.826,4.838-0.36,6.58c0,0-5.262,1.32-5.562-4.168
		c0,0,0.43-2.533-1.61-3.438c0,0-4.192-0.965-6.106-5.64c0,0,6.028-3.21,5.443-6.06V286.547z"/>
	<path fill="none" stroke="#000000" stroke-width="0.399" stroke-miterlimit="10" d="M456.643,229.46l4.979,40.18 M457.793,229.372
		l5.583,37.452 M458.84,229.198l6.43,37.145"/>
	<path fill="#784421" stroke="#000000" stroke-width="0.399" d="M469.01,263.145l1.782-0.603l-11.66-40.266l-0.427,0.115
		L469.01,263.145z"/>
	<path fill="none" stroke="#000000" stroke-width="0.399" stroke-miterlimit="10" d="M462.407,227.723l11.774,29.752
		 M461.62,228.204l11.364,31.079"/>
	<path fill="#FFFFFF" d="M442.967,308.541c0,0-1.365-1.31-1.176-3.659c0,0,0.08-0.5-0.17-0.57c0,0-0.268-0.112-0.307,0.47
		c0,0-0.381,2.454,1.275,3.86c0,0,0.11,0.142,0.294,0.1C442.884,308.741,443.08,308.699,442.967,308.541z"/>
	<path fill="none" stroke="#000000" stroke-width="0.399" stroke-miterlimit="10" d="M462.938,227.32l12.141,27.141
		 M459.618,229.006l7.446,36.55"/>
	<path fill="#F5CE00" stroke="#000000" stroke-width="0.532" stroke-miterlimit="2.613" d="M520.53,256.09
		c-5.32-3.019-6.485-9.713-6.485-9.713c-1.286-6.665,1.316-11.942,1.316-11.942c3.439-7.268,9.333-8.62,9.333-8.62
		s-5.773,4.005-7.388,9.404c0,0-1.257,4.552-0.539,9.046c0.717,4.493,0.448,3.347,1.556,6.815L520.53,256.09z"/>
	<path fill="#784421" stroke="#000000" stroke-width="0.243" d="M497.627,239.08l-22.347,7.055l-1.22,9.955
		c-5.303,7.682-16.078,9.045-16.078,9.045l8.384,8.927l16.11,3.378l8.451-6.514l7.656-7.077c-0.798-3.78-0.359-9.39-0.359-9.39
		c0-0.945,0.359-3.157,0.359-3.157s-1.316-9.087-0.957-12.224V239.08z"/>
	<path fill="none" stroke="#000000" stroke-width="0.399" stroke-miterlimit="10" d="M474.368,253.59c0,0,14.718-4.598,23.494-8.287
		 M467.303,261.98c0,0,18.362-3.32,31.28-10.677l4.746-3.205"/>
	<path fill="none" stroke="#000000" stroke-width="0.399" stroke-miterlimit="10" d="M503.33,250.825l-5.105,3.635
		c0,0-20.535,9.47-36.17,9.722 M498.22,261.19c0,0-15.784,8.127-24.836,8.248"/>
	<path fill="#D40000" stroke="#000000" stroke-width="0.532" stroke-linejoin="round" d="M517.045,238.44c0,0,4.705-2.167,6.938,0
		c0,0,3.11-1.926,6.381,0c0,0,3.109,2.033,5.263,4.271c0,0,1.515,1.3,0.957,5.388c0,0-0.797,2.883-0.32,4.33
		c0,0,1.038-0.204,3.112,2.253c0,0,2.63,3.048,4.943,0.358c0,0-0.72,3.743-5.064,3.14c0,0,2.113,1.65,0.28,5.912
		c0,0-1.356,3.016,0.797,6.795c0,0-3.79-1.527-3.63-5.99c0,0,0.32-3.016-0.797-5.147c0,0,1.117,1.938-1.475,6.071
		c0,0-1.992,2.976-0.357,6.07c0,0-3.748-1.366-3.391-5.91c0.36-4.544,2.633-2.654,1.157-6.836c0,0-0.36,2.14-1.476,3.222
		c-1.117,1.08-2.553,2.891-1.954,5.906c0,0-2.233-2.774-1.716-5.63c0.519-2.854,1.078-3.718,1.078-3.718l-7.059-4.002l-3.51-6.354
		l-0.16-10.13L517.045,238.44z"/>
	<path fill="#FFFFFF" stroke="#00247D" stroke-width="0.532" stroke-miterlimit="10" d="M437.1,263.87c0,0,0.657-3.118,3.648-1.891
		c0,0,1.018-5.107,6.46-5.29c5.442-0.18,5.74,5.311,5.74,5.67c0,0,1.6-2.354,4.27-2.082c0,0,4.603-0.27,2.888,7.118l0.871,0.927
		c0,0,3.516-8.254,10.752-6.083c0,0,7.058,2.15,2.452,8.987c0,0,3.483,4.524,6.437,4.1c2.954-0.42,5.586-1.324,8.516-6.513
		c2.93-5.187,9.75-5.97,11.484-5.67c1.734,0.302,3.104,1.428,3.387,2.655c0,0,3.61-12.05,16.59-10.157l5.202,2.616l1.974,0.904
		l-2.939,8.304l-7.17,16.2l-5.44,1.674l-5.682-3.257l-1.974,1.058l-0.16,4.852l-7.495,5.396l-5.204,2.144l-5.742,3.92l-1.336,3.506
		c0,0-3.17-1.336-6.75,0l-1.184-2.899l-3.351-3.198l-13.01-6.138l-2.351-7.58l-2.375-1.06l-2.66,3.046l-3.887,0.453l-5.802-3.92
		l-6.159-17.795V263.87z"/>
	<path fill="none" stroke="#000000" stroke-width="0.532" stroke-miterlimit="2.613" d="M493.76,204.88c0,0-4.966-0.221-4.787,4.927
		"/>
	<path fill="#F5CE00" stroke="#000000" stroke-width="0.532" stroke-miterlimit="2.613" d="M526.426,259.556
		c-8.643-2.654-11.005-11.942-11.005-11.942c-1.764-6.967,1.077-13.058,1.077-13.058c3.948-9.271,10.627-9.271,10.627-9.271
		c3.35-0.09,3.75,2.776,3.75,2.776c0.317,2.03-1.107,2.764-1.107,2.764c-2.293,1.247-3.738-0.441-3.738-0.441
		c-0.957-1.247-0.221-2.353-0.221-2.353c0.589-0.824,1.716-0.463,1.716-0.463c0.892,0.275,0.797,1.391,0.797,1.391
		c0.005,0.029,0.024,0.029,0.024,0.029c0.041-0.01,0.025-0.023,0.025-0.023s0.2-1.367-1.137-1.508c0,0-2.6-0.563-5.65,3.236
		c0,0-4.018,5.127-4.01,11.763c0,0-0.507,12.454,12.472,15.682c0,0-1.405,2.02-3.887,9.317c0,0-2.81,9.38-5.495,14.449
		c0,0-3.566,7.233-11.521,4.278c0,0-4.735-2.08-4.725-5.52c0,0-0.33-3.137,2.512-3.378c0,0,2.782-0.21,2.75,2.171
		c0,0,0.076,2.579-2.959,1.991c0,0-1.061-0.226-0.867-1.267c0,0,0.171-0.935,1.451-0.528c0,0,0.039,0.005,0.045-0.015
		c0,0,0.014-0.022-0.03-0.035c0,0-0.496-0.222-1.021-0.04c0,0-0.468,0.157-0.506,0.89c0,0-0.029,0.588,0.6,0.921
		c0,0,0.764,0.27,1.36,0.21c0,0,0.806,1.624,2.625,2.174c2.534,0.765,4.62,0.026,5.898-0.992c1.39-1.108,2.288-3.046,2.557-3.52
		c0.271-0.476,2.603-5.7,4.356-11.32c0,0,1.535-4.845,2.76-7.378l0.48-0.994L526.426,259.556z"/>
	<path fill="#F5CE00" stroke="#000000" stroke-width="0.532" stroke-miterlimit="2.613" d="M502.038,283.17
		c0,0,1.614-0.221,1.614,1.22c0,0-0.099,2.104-2.66,1.644c0,0-2.528-0.553-1.63-3.378c0,0,0.597-1.989,2.989-1.702
		c0,0,2.317,0.104,3.334,3.271c0,0,0.777,2.67-0.553,4.96c-1.486,2.559-5.244,4.238-7.057,4.982c0,0-7.268,2.854-9.436,4.487
		c0,0-3.324,2.469-1.853,4.766c0,0,0.567,0.875,1.42,0.875c0,0,0.973,0.045,1.137-0.95c0,0,0.005-0.021-0.01-0.045
		c0,0-0.015,0-0.021,0.024c0,0-0.069,0.608-0.598,0.834c0,0-0.708,0.356-1.449-0.271c0,0-0.789-0.754-0.131-1.926
		c0,0,0.862-1.442,2.87-0.59c0,0,1.771,0.877,1.043,2.756c0,0-0.649,1.73-2.782,1.725c0,0-1.606-0.053-2.634-1.13
		c-1.603-1.681-1.69-4.954-0.276-6.647c0,0,1.336-1.8,4.017-2.895c1.553-0.635,4.485-1.91,7.536-3.106
		c2.144-0.84,4.107-1.848,5.383-3.357c0,0,1.137-1.266,1.466-3.438c0,0,0.313-1.628-0.68-1.984c0,0-0.503-0.227-1.056-0.15
		c0,0-0.015,0-0.019,0.01c0,0-0.024,0.024,0.032,0.016L502.038,283.17z"/>
	<path fill="none" stroke="#000000" stroke-width="0.532" stroke-miterlimit="2.613" d="M502.173,283.159c0,0,1.784-0.322,2.9,1.801
		c0,0,0.657,1.365,0.764,2.156 M506.42,279.532c0,0-1.788,0.311-0.868,2.839c0.867,2.384,2.479,3.165,2.956,3.496"/>
	<path fill="#F5CE00" stroke="#000000" stroke-width="0.532" stroke-miterlimit="2.613" d="M471.458,210.208
		c0,0,0.088,0.724,0.806,0.805c0,0,0.75,0.24,1.187-0.69c0,0,0.05-0.213,0.062-0.315c0.051-0.437,0.2-1.69-1.156-2.714
		c0,0-2.213-1.811-6.44,0.382c0,0-3.351,1.607-5.662,2.976c0,0-5.979,3.217-6.698,3.458c0,0-2.632,1.327-6.66,1.488
		c0,0-5.502,0.402-7.834-3.457c0,0-1.772-2.938,0-4.807c0,0,0.721-0.845,1.9-0.688c0.494,0.065,1.04,0.293,1.57,0.91
		c0,0,0.856,1.247-0.141,2.17c0,0-1.296,0.796-1.754-0.883c0,0-0.02-0.12-0.06,0.03c-0.026,0.097-0.32,1.377,0.37,2.463
		c0,0,3.317,5.022,12.449-0.184l12.041-6.754c0,0,6.041-3.096,9.649,1.75c0,0,2.91,4.021-0.837,6.654c0,0-2.792,1.67-4.546-0.985
		c0,0-1.456-2.614,0.837-3.76c0,0,2.014-0.944,2.813,1.067c0.797,2.01-1.557,2.532-1.774,1.104
		C471.579,210.229,471.52,209.886,471.458,210.208L471.458,210.208z M441.977,256.09c5.319-3.019,6.484-9.713,6.484-9.713
		c1.287-6.665-1.314-11.942-1.314-11.942c-3.44-7.268-9.334-8.62-9.334-8.62s5.774,4.005,7.391,9.404c0,0,1.255,4.552,0.537,9.046
		c-0.721,4.493-0.45,3.347-1.557,6.815L441.977,256.09z"/>
	<path fill="none" stroke="#000000" stroke-width="0.532" stroke-miterlimit="2.613" d="M468.746,204.88
		c0,0,4.966-0.221,4.786,4.927"/>
	<path fill="#F5CE00" stroke="#000000" stroke-width="0.532" stroke-miterlimit="2.613" d="M436.08,259.556
		c8.643-2.654,11.005-11.942,11.005-11.942c1.765-6.967-1.077-13.058-1.077-13.058c-3.947-9.271-10.626-9.271-10.626-9.271
		c-3.35-0.09-3.75,2.776-3.75,2.776c-0.317,2.03,1.108,2.764,1.108,2.764c2.292,1.247,3.738-0.441,3.738-0.441
		c0.957-1.247,0.22-2.353,0.22-2.353c-0.591-0.824-1.716-0.463-1.716-0.463c-0.892,0.275-0.797,1.391-0.797,1.391
		c-0.005,0.029-0.024,0.029-0.024,0.029c-0.04-0.01-0.024-0.023-0.024-0.023s-0.199-1.367,1.137-1.508c0,0,2.602-0.563,5.651,3.236
		c0,0,4.017,5.127,4.007,11.763c0,0,0.51,12.454-12.47,15.682c0,0,1.406,2.02,3.888,9.317c0,0,2.811,9.38,5.494,14.449
		c0,0,3.568,7.233,11.522,4.278c0,0,4.737-2.08,4.726-5.52c0,0,0.328-3.137-2.512-3.378c0,0-2.782-0.21-2.752,2.171
		c0,0-0.075,2.579,2.96,1.991c0,0,1.063-0.226,0.868-1.267c0,0-0.17-0.935-1.45-0.528c0,0-0.04,0.005-0.045-0.015
		c0,0-0.017-0.022,0.03-0.035c0,0,0.494-0.222,1.018-0.04c0,0,0.47,0.157,0.506,0.89c0,0,0.03,0.588-0.598,0.921
		c0,0-0.764,0.27-1.36,0.21c0,0-0.805,1.624-2.625,2.174c-2.532,0.765-4.62,0.026-5.897-0.992c-1.391-1.108-2.288-3.046-2.558-3.52
		c-0.268-0.476-2.6-5.7-4.354-11.32c0,0-1.536-4.845-2.76-7.378l-0.48-0.994L436.08,259.556z"/>
	<path fill="#F5CE00" stroke="#000000" stroke-width="0.532" stroke-miterlimit="2.613" d="M460.468,283.17
		c0,0-1.614-0.221-1.614,1.22c0,0,0.1,2.104,2.661,1.644c0,0,2.527-0.553,1.63-3.378c0,0-0.598-1.989-2.989-1.702
		c0,0-2.318,0.104-3.335,3.271c0,0-0.778,2.67,0.553,4.96c1.484,2.559,5.243,4.238,7.057,4.982c0,0,7.268,2.854,9.436,4.487
		c0,0,3.324,2.469,1.854,4.766c0,0-0.57,0.875-1.422,0.875c0,0-0.972,0.045-1.136-0.95c0,0-0.005-0.021,0.01-0.045
		c0,0,0.015,0,0.021,0.024c0,0,0.069,0.608,0.598,0.834c0,0,0.708,0.356,1.45-0.271c0,0,0.787-0.754,0.13-1.926
		c0,0-0.863-1.442-2.872-0.59c0,0-1.771,0.877-1.04,2.756c0,0,0.646,1.73,2.78,1.725c0,0,1.605-0.053,2.634-1.13
		c1.604-1.681,1.689-4.954,0.277-6.647c0,0-1.338-1.8-4.021-2.895c-1.552-0.635-4.483-1.91-7.535-3.106
		c-2.144-0.84-4.106-1.848-5.383-3.357c0,0-1.136-1.266-1.465-3.438c0,0-0.313-1.628,0.678-1.984c0,0,0.503-0.227,1.056-0.15
		c0,0,0.017,0,0.021,0.01c0,0,0.024,0.024-0.032,0.016L460.468,283.17z"/>
	<path fill="none" stroke="#000000" stroke-width="0.532" stroke-miterlimit="2.613" d="M460.333,283.159
		c0,0-1.785-0.322-2.899,1.801c0,0-0.66,1.365-0.766,2.156 M456.087,279.531c0,0,1.787,0.311,0.867,2.839
		c-0.868,2.383-2.478,3.163-2.957,3.495 M476.932,209.516c0,0,4.32-2.705,8.733,0.29"/>
	<path fill="none" stroke="#000000" stroke-width="0.399" stroke-miterlimit="2.613" d="M452.35,235.943
		c0,0,0.601-2.412-2.151-6.635c0,0-1.795-3.86-2.752-6.332 M453.667,220.322c0,0,1.558,3.794,2.093,5.493
		c0,0,1.932,4.76,2.342,5.726"/>
	<path fill="none" stroke="#000000" stroke-width="0.399" stroke-miterlimit="10" d="M454.444,238.597c0,0,1.624,1.75,1.439,4.704
		 M449.061,236.727c0,0,1.795,0.865,1.677,5.63c0,0-0.181,3.479,2.51,5.228 M448.818,248.81c0,0,5.615-0.613,5.925,2.845
		c0,0,0.12,3.317,2.032,3.681c0,0,2.867,0.27,3.436,2.925 M450.586,252.65c0,0,0.987,1.479,1.944,2.11 M457.793,249
		c0,0,1.427,2.163,1.696,3.43 M463.975,222.975c0,0,1.315,1.79,2.592,2.634 M469.237,233.57c0,0,2.79,1.368,2.313,8.405
		c0,0-0.36,4.126,0.798,6.38"/>
	<path fill="#784421" stroke="#000000" stroke-width="0.399" d="M456.09,228.796l0.178,0.663c0,0,5.004,0.21,7.707-3.197
		l-0.291-0.654c0,0-4.365-0.222-7.595,3.187L456.09,228.796z"/>
	<path fill="none" stroke="#000000" stroke-width="0.399" stroke-miterlimit="10" d="M474.116,255.643c0,0,17.307-5.16,23.977-8.168
		"/>
	<path fill="#784421" stroke="#000000" stroke-width="0.243" d="M472.26,223.724l-0.201-0.568l8.56-3.257l0.202,0.572
		L472.26,223.724z"/>
	<path fill="none" stroke="#000000" stroke-width="0.399" stroke-miterlimit="10" d="M472.984,223.448l5.683,27.855 M473.97,223.073
		l6.511,27.728 M475.078,222.653l7.118,27.525 M477.87,221.593l9.702,20.66 M479.153,221.106l10.347,20.54 M480.104,220.745
		l11.191,20.334 M478.283,251.524l4.392-1.447 M474.958,248.768c0,0,12.873-3.76,22.616-7.69 M474.785,250.178
		c0,0,16.314-4.317,22.788-7.467 M479.764,263.447l0.854,2.613l2.336-0.747l-0.798-2.59 M486.354,261.57l0.854,2.612l2.336-0.747
		l-0.798-2.59 M475.28,246.135l-0.202-3.536l21.392-6.496l1.157,2.975 M484.15,239.845l1.166,3.122 M491.63,237.573l1.36,2.971
		 M493.402,237.035l1.273,2.811 M495.096,236.52l1.34,2.937"/>
	<path fill="none" stroke="#000000" stroke-width="0.399" stroke-miterlimit="10" d="M496.47,236.104l2.354-1.327l0.997,2.613
		 M497.627,235.451l1.198,2.705"/>
	<path fill="none" stroke="#00247D" stroke-width="0.532" stroke-miterlimit="10" d="M444.575,276.173c0,0-4.188-4.24,0-8.394
		c0,0-4.545-2.223-3.827-5.8 M452.052,279.531c0,0-4.336,0.591-3.05-7.852c0,0-1.795,3.347-2.413,5.067
		c-0.464,1.287-0.157,3.366,1.679,4.489c0.732,0.45,4.619,1.462,5.877-1.112 M447.207,266.613c0,0-1.764,1.63-0.508,4.615
		 M449.03,267.005c0,0,0.21,2.895,1.646,4.523 M450.27,265.86c0,0-0.012,3.407,2.44,5.519 M451.49,264.683
		c0,0,0.023,3.83,2.865,6.183 M465.6,270.292c0,0,1.435-3.138,4.454-2.985c0,0-1.465,0.663-1.435,2.13c0,0-0.18,2.423,2.42,2.664
		c0,0,2.095,0.273,3.14-0.873"/>
	<path fill="none" stroke="#00247D" stroke-width="0.532" stroke-miterlimit="10" d="M472.746,284.616c0,0-7.446-3.497-6.67-8.533
		c0,0,0.3-3.076,3.308-4.524 M467.813,274.755c0,0-0.658,2.172,0.808,3.68 M469.486,273.278c0,0-0.897,2.382,0.598,4.162
		 M471.28,272.12c0,0-1.076,1.972,0.21,3.75 M464.492,285.13c0,0,4.066,3.527,7.236,3.558 M463.206,286.245
		c0,0,3.8,3.075,6.177,3.529 M461.77,287.115c0,0,4.7,4.136,7.613,4.438 M480.88,295.353c0,0-4.618,2.49-1.038,5.12 M477.95,292.61
		c0,0,5.233-2.745,7.505-3.77 M479.834,294.027c0,0,7.566-4.614,9.809-5.609 M483.72,294.328c0,0,6.46-4.313,9.931-6.183
		 M487.997,294.177c0,0,4.456-3.498,8.763-6.03 M498.285,283.773c0,0-2.184-3.196-9.36,0c0,0,2.63-2.388,7.835-4.239 M504.005,265.8
		c0,0,0.588,2.592-0.04,4.16"/>
	<path fill="none" stroke="#00247D" stroke-width="0.532" stroke-miterlimit="10" d="M492.364,278.375c0,0,1.495-2.202,5.293-3.287
		c0,0,1.023,2.563,3.978,1.99c0,0,4.455-0.875,3.11-5.761c0,0-0.927-3.649-6.017-4.01 M513.866,261.19c0,0,5.173,0.93,5.084,5.152
		c0,0,0.418,6.333-6.25,7.57 M518.215,263.79c0,0,1.42-3.089,4.59-4.355 M518.954,257.627c0,0,1.413,2.265,2.38,2.595
		 M518.215,259.436c0,0,1.332,1.627,1.78,1.9 M517.783,261.004c0,0,0.7,1.036,1.322,1.361 M491.167,236.52
		c0,0,1.007-1.633,3.51-0.94 M504.895,248.768c0,0,1.584-6.612,7.117-4.17 M509.768,244.057c0,0,0.57-3.05-0.807-4.6 M506,243.844
		c0,0,0.705,1.26,0.102,2.29"/>
	<path fill="#64B4D1" stroke="#00247D" stroke-width="0.399" stroke-miterlimit="2.613" d="M517.245,311.397
		c0,0,6.22-2.835,4.306-7.66c0,0-0.59-1.63-1.97-1.508c0,0-2.397,0.12-1.918,3.316c0,0,0.72,3.137-0.417,5.85L517.245,311.397z"/>
	<path fill="#FFFFFF" d="M519.498,308.541c0,0,1.367-1.31,1.176-3.659c0,0-0.08-0.5,0.17-0.57c0,0,0.269-0.113,0.309,0.47
		c0,0,0.38,2.453-1.276,3.86c0,0-0.113,0.14-0.296,0.1C519.58,308.741,519.384,308.699,519.498,308.541z"/>
	<path fill="#64B4D1" stroke="#00247D" stroke-width="0.399" stroke-miterlimit="2.613" d="M526.097,307.054
		c0,0,4.366-2.744,2.003-7.358c0,0-0.688-1.327-2.003-1.056c0,0-2.722,0.844-0.6,4.614
		C525.497,303.254,526.575,305.698,526.097,307.054L526.097,307.054z"/>
	<path fill="#FFFFFF" d="M527.188,300.795c0,0-0.239-0.315-0.074-0.451c0,0,0.104-0.15,0.388,0.21c0,0,1.322,1.478,0.271,3.748
		c0,0-0.121,0.323-0.328,0.22c0,0-0.181-0.092-0.016-0.363C527.428,304.158,528.37,302.289,527.188,300.795L527.188,300.795z"/>
	<path fill="#64B4D1" stroke="#00247D" stroke-width="0.399" stroke-miterlimit="2.613" d="M513.028,310.19
		c0,0-4.874-1.234-3.979-6.271c0,0,0.48-2.2,2.542-1.9c0,0,2.487,0.635,0.868,3.836C512.46,305.854,511.503,308.14,513.028,310.19
		L513.028,310.19z"/>
	<path fill="#FFFFFF" d="M511.145,304.174c0,0-0.181-0.24,0.029-0.348c0,0,0.21-0.09,0.36,0.204c0,0,0.507,0.808,0.077,1.912
		c0,0-0.406,0.765-0.208,1.565c0,0,0.026,0.226-0.153,0.256c0,0-0.173-0.061-0.207-0.225c0,0-0.243-0.78,0.176-1.545
		c0,0,0.508-1.186-0.076-1.819L511.145,304.174z"/>
	<path d="M516.527,300.659c0,0,2.75-1.547,5.023,0.264c0,0-0.232-1.007-1.97-1.448c0,0-0.94-2.654-3.572-2.413
		c0,0,1.077,1.286,2.513,2.373C518.521,299.435,517.006,299.591,516.527,300.659L516.527,300.659z M518.561,293.39
		c0,0,1.869,1.38,2.629,2.305c0,0,0.761-0.944,1.758-1.518c0,0-1.148-0.15-1.758,0.365
		C521.189,294.542,520.234,293.617,518.561,293.39L518.561,293.39z"/>
	<path fill="none" stroke="#000000" stroke-width="0.532" stroke-miterlimit="10" d="M507.715,299.314c0,0-0.2-0.683,0.28-1.407
		c0,0,0.317-0.522,0.2-1.207 M527.77,256.37c0,0,2.912-0.2,3.391-2.454 M536.264,252.43c0,0-1.014-0.04-1.93,0.884
		c0,0-0.7,1.045-1.698,0.924"/>
	<path d="M523.465,247.805c0,0,1.516,0,2.354-0.724c0,0,0.877-0.603,1.395,0.362c0,0,0.798,1.367-0.677,1.971
		c0,0-1.835,0.925,1.076,2.774c0,0-3.47-1.247-2.073-2.935c0,0,1.513-1.086,0.955-1.488c0,0-0.16-0.322-0.757,0.08
		C525.137,248.248,523.942,248.088,523.465,247.805L523.465,247.805z"/>
	<path fill="#64B4D1" stroke="#00247D" stroke-width="0.399" stroke-miterlimit="2.613" d="M525.525,211.188
		c0,0,0.685-0.93,0.404-3.725c-0.279-2.795,2.147-3.116,3.08-2.313c0,0,0.965,0.836,0.077,2.608c-0.512,1.021-1.33,2.347-3.56,3.43
		H525.525z"/>
	<path fill="#FFFFFF" d="M526.438,209.102c0,0,0.91-0.978,0.476-3.1c0,0-0.003-0.21,0.117-0.225c0,0,0.22-0.056,0.258,0.153
		c0,0,0.489,2.264-0.538,3.494c0,0-0.188,0.18-0.313,0C526.438,209.425,526.3,209.295,526.438,209.102L526.438,209.102z"/>
	<path fill="#64B4D1" stroke="#00247D" stroke-width="0.399" stroke-miterlimit="2.613" d="M524.75,210.172
		c0,0-0.07-1.127-2.018-3.04c-1.947-1.915-0.347-3.681,0.846-3.664c0,0,1.234,0.02,1.68,1.899
		C525.516,206.458,525.732,207.96,524.75,210.172L524.75,210.172z"/>
	<path fill="#FFFFFF" d="M524.448,207.723c0,0,0.034-1.38-1.729-2.82c0,0-0.143-0.168-0.06-0.257c0,0,0.13-0.187,0.3-0.042
		c0,0,1.897,1.521,1.944,3.177c0,0-0.021,0.271-0.24,0.204c0,0-0.193-0.017-0.216-0.26V207.723z"/>
	<path fill="#64B4D1" stroke="#00247D" stroke-width="0.399" stroke-miterlimit="2.613" d="M522.107,209.324
		c0,0-0.511-0.918-2.914-1.77c-2.404-0.854-1.754-2.954-0.742-3.404c0,0,1.05-0.46,2.175,0.947
		C521.275,205.912,522.056,207.088,522.107,209.324L522.107,209.324z"/>
	<path fill="#FFFFFF" d="M521.053,207.638c0,0-0.546-1.265-2.748-1.82c0,0-0.199-0.09-0.162-0.206c0,0,0.039-0.226,0.254-0.167
		c0,0,2.357,0.567,3.095,2.053c0,0,0.094,0.252-0.13,0.283C521.361,207.782,521.178,207.851,521.053,207.638L521.053,207.638z"/>
	<path fill="#64B4D1" stroke="#00247D" stroke-width="0.399" stroke-miterlimit="2.613" d="M523.613,210.243
		c0,0-1.12,0.315-3.696-0.927c-2.574-1.242-3.702,0.92-3.25,2.076c0,0,0.47,1.197,2.464,0.987
		C520.283,212.258,521.824,211.957,523.613,210.243L523.613,210.243z"/>
	<path fill="#FFFFFF" d="M517.626,211.065c0,0,1.168,0.72,3.286-0.1c0,0,0.216-0.04,0.25,0.075c0,0,0.097,0.208-0.113,0.283
		c0,0-2.254,0.898-3.702,0.11c0,0-0.22-0.153-0.055-0.31C517.292,211.124,517.404,210.962,517.626,211.065L517.626,211.065z"/>
	<path fill="none" stroke="#000000" stroke-width="0.532" stroke-miterlimit="2.613" d="M519.846,202.107
		c0,0,1.286,0.623,0.987,2.13"/>
	<path fill="none" stroke="#000000" stroke-width="0.532" stroke-miterlimit="10" d="M525.528,202.318c0,0,0.503,1.592-0.052,2.45"
		/>
	<path fill="#64B4D1" stroke="#00247D" stroke-width="0.399" stroke-miterlimit="2.613" d="M436.818,211.188
		c0,0-0.685-0.93-0.405-3.725c0.28-2.795-2.146-3.116-3.08-2.313c0,0-0.964,0.836-0.077,2.608
		C433.768,208.78,434.586,210.105,436.818,211.188L436.818,211.188z"/>
	<path fill="#FFFFFF" d="M435.905,209.102c0,0-0.91-0.978-0.476-3.1c0,0,0.004-0.21-0.117-0.225c0,0-0.22-0.056-0.258,0.153
		c0,0-0.49,2.264,0.538,3.494c0,0,0.188,0.18,0.313,0C435.906,209.425,436.044,209.295,435.905,209.102L435.905,209.102z"/>
	<path fill="#64B4D1" stroke="#00247D" stroke-width="0.399" stroke-miterlimit="2.613" d="M437.592,210.172
		c0,0,0.072-1.127,2.021-3.04c1.946-1.915,0.345-3.681-0.847-3.664c0,0-1.235,0.02-1.681,1.899
		C436.828,206.458,436.611,207.96,437.592,210.172z"/>
	<path fill="#FFFFFF" d="M437.896,207.723c0,0-0.035-1.38,1.728-2.82c0,0,0.144-0.168,0.06-0.257c0,0-0.13-0.187-0.3-0.042
		c0,0-1.897,1.521-1.944,3.177c0,0,0.021,0.271,0.24,0.204c0,0,0.192-0.017,0.217-0.26V207.723z"/>
	<path fill="#64B4D1" stroke="#00247D" stroke-width="0.399" stroke-miterlimit="2.613" d="M440.236,209.324
		c0,0,0.51-0.918,2.912-1.77c2.404-0.854,1.755-2.954,0.742-3.404c0,0-1.05-0.46-2.174,0.947c-0.65,0.814-1.43,1.99-1.482,4.228
		L440.236,209.324z"/>
	<path fill="#FFFFFF" d="M441.29,207.638c0,0,0.546-1.265,2.748-1.82c0,0,0.2-0.09,0.163-0.206c0,0-0.04-0.226-0.254-0.167
		c0,0-2.357,0.567-3.094,2.053c0,0-0.094,0.252,0.131,0.283C440.984,207.782,441.167,207.851,441.29,207.638L441.29,207.638z"/>
	<path fill="#64B4D1" stroke="#00247D" stroke-width="0.399" stroke-miterlimit="2.613" d="M438.73,210.243
		c0,0,1.119,0.315,3.695-0.927c2.574-1.242,3.702,0.92,3.25,2.076c0,0-0.47,1.197-2.464,0.987
		C442.063,212.258,440.52,211.957,438.73,210.243z"/>
	<path fill="#FFFFFF" d="M444.717,211.065c0,0-1.168,0.72-3.286-0.1c0,0-0.215-0.04-0.25,0.075c0,0-0.096,0.208,0.114,0.283
		c0,0,2.254,0.898,3.7,0.11c0,0,0.22-0.153,0.056-0.31C445.051,211.124,444.941,210.962,444.717,211.065L444.717,211.065z"/>
	<path fill="none" stroke="#000000" stroke-width="0.532" stroke-miterlimit="2.613" d="M442.497,202.107
		c0,0-1.286,0.623-0.987,2.13"/>
	<path fill="none" stroke="#000000" stroke-width="0.532" stroke-miterlimit="10" d="M436.814,202.318c0,0-0.502,1.592,0.053,2.45"
		/>
	<path d="M492.633,187.69c0,0,0.815,2.327,0.463,4.435c-0.313,1.885,0.115,2.372,0.797,2.744c0.59,0.322,1.954-0.242,2.119-1.72
		c0,0,1.614,3.15-1.525,5.277c0,0-2.258,1.388-4.17-0.467c-0.677-0.653-0.974-2.458-0.645-4.133c0,0,0.494-2.27-0.33-4.6
		c0,0,1.286,1.373,0.958,4.11c0,0-0.657,4.908,2.976,4.667c0,0,2.512-0.03,2.587-3.076c0,0-0.942,1.084-2.108,0.723
		c-0.827-0.256-1.586-1.056-1.45-2.315C492.444,192.015,492.813,189.71,492.633,187.69L492.633,187.69z M488.516,195.753
		c0,0-0.199,3.88-3.748,4.825c0,0,0.5-0.703-0.3-2.634c0,0-0.776-1.126-0.716-2.875c0,0-1.13,0.885,0.16,3.217
		c0.777,1.407,0.1,3.097-0.141,3.156C483.532,201.503,489.632,200.638,488.516,195.753z M483.91,191.893
		c0,0-0.857-0.965-0.917-3.197c-0.06-2.231-0.478-2.773-0.777-3.036c0,0,0.438,1.931,0.318,3.116c-0.12,1.187,0.08,1.87,0.239,2.434
		c0,0-1.934,0.3-3.149-2.516c-1.163-2.689-2.333-2.473-2.91-2.453c0,0,0.673,0.075,2.032,2.533
		C480.104,191.231,480.48,191.731,483.91,191.893L483.91,191.893z M474.86,186.062c0,0,1.116,2.674,1.155,4.082
		c0,0-2.592-0.865-3.289-3.117c0,0-2.771,0.945-1.755,4.143c0,0-2.392-0.846-3.47-2.796c0,0,1.337,1.005,2.573,1.447
		c0,0-0.14-2.573,3.09-3.54c0,0,0.479,2.307,2.093,2.856C475.258,189.137,475.138,187.69,474.86,186.062L474.86,186.062z
		 M479.126,181.48c0,0,0.897,1.307,2.729,1.366c0.879,0.03,1.82-0.17,2.733-1.367c0,0-0.12,2.271-2.733,2.29
		C481.855,183.769,479.126,183.868,479.126,181.48L479.126,181.48z M467.827,197.01c0,0,1.36,1.236,1.644,1.643
		c0,0,0.958,0.936,1.78-0.273c0,0,1.048-1.935,2.333-1.883c0,0-0.912,0.634-1.938,2.46c0,0-0.275,0.676-1.039,0.75
		c-0.356,0.036-0.807,0.151-1.488-0.561c0,0-0.59-0.72-1.29-2.137L467.827,197.01z M481.857,172.37c-2.73,0-0.431,2.111-0.431,2.111
		c0.061,3.348-2.625,4.377-4.454,3.408c-1.83-0.97-0.399-3.408-0.399-3.408s-2.063,1.356-0.746,3.317
		c1.315,1.96,4.764,1.084,6.03-0.726c1.266,1.811,4.715,2.685,6.029,0.725c1.317-1.962-0.747-3.318-0.747-3.318
		s1.431,2.438-0.397,3.408c-1.83,0.97-4.516-0.06-4.456-3.408c0,0,2.302-2.112-0.431-2.109H481.857z M483.512,168.752
		c0,0,0.956,1.63,0.747,4.1C484.259,172.852,485.125,170.38,483.512,168.752L483.512,168.752z M475.14,172.582
		c0,0-0.21-1.78-1.944-1.931C473.195,170.652,474.66,171.708,475.14,172.582L475.14,172.582z M488.596,172.582
		c0,0,0.21-1.78,1.944-1.931C490.54,170.652,489.074,171.708,488.596,172.582z M472.387,175.296c0,0,1.376,0.423,2.213-0.604
		C474.6,174.693,473.015,175.115,472.387,175.296z M467.932,164.38c0,0,1.601-0.183,3.2,2.2c0,0-1.586,0.845-1.974,1.357
		c0,0,0-0.784,0.777-1.478C469.936,166.46,469.635,165.254,467.932,164.38L467.932,164.38z M494.727,164.38
		c0,0-1.601-0.183-3.201,2.2c0,0,1.587,0.845,1.975,1.357c0,0,0-0.784-0.777-1.478C492.723,166.46,493.021,165.254,494.727,164.38z
		 M482.376,166.156c0,0,1.435,0.395,3.229-0.602c0,0,2.213-1.176,3.619,0c0,0-1.228-0.545-3.591,0.602
		C485.634,166.156,483.271,167.451,482.376,166.156z"/>
	<path fill="#FFFFFF" d="M483.87,167.606c0,0,1.227-2.149,4.965-1.723C488.835,165.883,487.818,168.873,483.87,167.606
		L483.87,167.606z"/>
	<ellipse fill="#784421" cx="486.449" cy="166.939" rx="0.738" ry="0.937"/>
	<ellipse cx="486.449" cy="166.939" rx="0.438" ry="0.575"/>
	<path d="M475.855,163.022c0,0,2.362,0.15,3.799,1.057c0,0,1.524,0.904,3.26-0.394c0,0,1.885-1.085,3.096-2.593
		c0,0-2.887,1.99-3.964,2.292c0,0-0.987-0.754-1.375-1.84c0,0,0.15-0.813,1.705-2.32c0,0-2.093,0.632-2.512,2.41
		c0,0,0.39,1.087,1.196,1.932c0,0-0.391,0.181-1.406-0.453C479.654,163.113,477.441,162.359,475.855,163.022L475.855,163.022z
		 M481.857,177.21c-2.043,1.766,0,1.585,0,1.585S483.9,178.975,481.857,177.21L481.857,177.21z M480.675,166.156
		c0,0-1.436,0.395-3.229-0.602c0,0-2.215-1.176-3.62,0c0,0,1.227-0.545,3.59,0.602C477.415,166.156,479.777,167.451,480.675,166.156
		z"/>
	<path fill="#FFFFFF" d="M479.18,167.606c0,0-1.227-2.149-4.965-1.723C474.215,165.883,475.232,168.873,479.18,167.606z"/>
	<ellipse fill="#784421" cx="476.602" cy="166.939" rx="0.738" ry="0.937"/>
	<ellipse cx="476.602" cy="166.939" rx="0.438" ry="0.575"/>
	<path fill="none" stroke="#000000" stroke-width="1.28" d="M554.063,148.26v135.513c0,36.197-72.359,47.957-72.359,47.957
		s-72.36-11.76-72.36-47.957V148.26H554.063z"/>
</g>
</svg>
