<?xml version="1.0" encoding="utf-8"?>
<!-- Generator: Adobe Illustrator 15.0.2, SVG Export Plug-In . SVG Version: 6.00 Build 0)  -->
<!DOCTYPE svg PUBLIC "-//W3C//DTD SVG 1.1//EN" "http://www.w3.org/Graphics/SVG/1.1/DTD/svg11.dtd">
<svg version="1.1" id="Layer_1" xmlns="http://www.w3.org/2000/svg" xmlns:xlink="http://www.w3.org/1999/xlink" x="0px" y="0px"
	 width="640px" height="480px" viewBox="0 0 640 480" enable-background="new 0 0 640 480" xml:space="preserve">
<g>
	<path fill="#229E45" d="M0,0h640v480H0V0z"/>
	<path fill="#F8E509" d="M321.406,435.935l301.482-195.67l-303.308-196.2L17.11,240.734L321.406,435.935L321.406,435.935z"/>
	<path fill="#2B49A3" d="M452.77,240.005c0,70.327-57.103,127.34-127.543,127.34c-70.442,0-127.545-57.013-127.545-127.34
		c0-70.328,57.104-127.34,127.545-127.34c70.441,0,127.545,57.012,127.545,127.34H452.77z"/>
	<path fill="#FFFFEF" d="M283.3,316.274L279.357,314l-4.093,2.024l0.917-4.55l-3.162-3.332l4.52-0.53l2.124-4.08l1.894,4.22
		l4.46,0.811l-3.345,3.13 M368.77,337.916l-3.939-2.273l-4.092,2.025l0.916-4.551l-3.16-3.332l4.52-0.529l2.122-4.08l1.895,4.22
		l4.46,0.81l-3.346,3.131 M331.93,303.343l-3.404-1.964l-3.535,1.748l0.792-3.931l-2.73-2.88l3.904-0.457l1.834-3.522l1.636,3.645
		l3.854,0.7l-2.891,2.705 M418.254,290.91l-3.342-1.929l-3.473,1.718l0.777-3.857l-2.68-2.827l3.833-0.45l1.8-3.46l1.607,3.58
		l3.782,0.687l-2.837,2.656 M330.37,265.03l-3.94-2.272l-4.093,2.024l0.916-4.55l-3.162-3.332l4.522-0.529l2.123-4.08l1.894,4.22
		l4.46,0.81l-3.346,3.13 M225.13,225.52l-3.94-2.273l-4.094,2.024l0.916-4.548l-3.16-3.333l4.52-0.53l2.122-4.08l1.894,4.221
		l4.46,0.81l-3.345,3.13 M237.786,278.08l-3.94-2.275l-4.094,2.025l0.916-4.549l-3.16-3.334l4.521-0.529l2.123-4.08l1.894,4.22
		l4.46,0.81l-3.345,3.133 M369.114,206.17l-3.48-2.007l-3.616,1.787l0.811-4.017l-2.794-2.944l3.994-0.47l1.875-3.603l1.673,3.728
		l3.939,0.715l-2.955,2.767 M361.896,240.365l-2.74-1.582l-2.851,1.408l0.641-3.164l-2.2-2.319l3.145-0.368l1.478-2.838l1.317,2.936
		l3.104,0.563l-2.327,2.18 M219.263,287.603l-2.63-1.518l-2.734,1.352l0.61-3.037l-2.11-2.225l3.02-0.354l1.416-2.723l1.264,2.818
		l2.979,0.54l-2.233,2.09 M418.984,299.709l-2.145-1.135l-2.227,1.01l0.5-2.27l-1.721-1.666l2.461-0.265l1.153-2.038l1.03,2.108
		l2.426,0.403l-1.82,1.563"/>
	<path fill="#FFFFEF" d="M219.263,287.603l-2.63-1.518l-2.734,1.352l0.61-3.037l-2.11-2.225l3.02-0.354l1.416-2.723l1.264,2.818
		l2.978,0.54l-2.233,2.09"/>
	<path fill="#FFFFEF" d="M219.263,287.603l-2.63-1.518l-2.734,1.352l0.61-3.037l-2.11-2.225l3.02-0.354l1.416-2.723l1.264,2.818
		l2.978,0.54l-2.233,2.09 M261.143,287.594l-2.63-1.521l-2.732,1.354l0.609-3.037l-2.109-2.225l3.02-0.354l1.416-2.722l1.265,2.816
		l2.978,0.54l-2.233,2.091 M255.94,301.525l-2.63-1.518l-2.734,1.352l0.612-3.038l-2.11-2.225l3.017-0.354l1.417-2.724l1.266,2.817
		l2.977,0.54l-2.233,2.09 M342.902,276.164l-2.631-1.521l-2.732,1.354l0.609-3.036l-2.109-2.226l3.018-0.353l1.417-2.725
		l1.266,2.817l2.977,0.54l-2.233,2.09 M317.384,276.154l-2.63-1.518l-2.734,1.352l0.612-3.037l-2.11-2.225l3.018-0.353l1.417-2.725
		l1.264,2.817l2.98,0.54l-2.234,2.09 M248.167,267.258l-1.648-0.952l-1.714,0.847l0.384-1.901l-1.323-1.395l1.89-0.222l0.89-1.706
		l0.792,1.765l1.864,0.34l-1.399,1.311 M415.74,310.728l-2.631-1.519l-2.732,1.351l0.612-3.035l-2.11-2.226l3.018-0.354l1.416-2.724
		l1.265,2.816l2.978,0.54l-2.232,2.091 M394.49,313.512l-2.178-1.26l-2.265,1.121l0.507-2.521l-1.748-1.848l2.5-0.295l1.174-2.262
		l1.049,2.34l2.466,0.45l-1.851,1.735 M404.516,313.27l-2.029-1.173l-2.108,1.044l0.472-2.344l-1.63-1.719l2.33-0.273l1.093-2.104
		l0.977,2.178l2.296,0.416l-1.724,1.615 M433.302,288.15l-1.955-1.13l-2.03,1.006l0.455-2.257l-1.567-1.655l2.243-0.262l1.053-2.023
		l0.939,2.092l2.211,0.401l-1.658,1.554 M394.24,327.69l-2.555-1.395l-2.651,1.239l0.594-2.786l-2.05-2.043l2.93-0.324l1.376-2.5
		l1.228,2.586l2.89,0.496l-2.167,1.92 M394.383,339.129l-2.33-1.395l-2.418,1.24l0.542-2.786l-1.87-2.044l2.674-0.324l1.255-2.5
		l1.12,2.586l2.635,0.496l-1.977,1.918 M375.084,313.266l-1.955-1.13l-2.031,1.006l0.454-2.257l-1.567-1.653l2.242-0.263
		l1.054-2.025l0.939,2.094l2.214,0.401l-1.66,1.554 M356.992,313.266l-1.954-1.13l-2.03,1.006l0.454-2.257l-1.569-1.653l2.243-0.263
		l1.054-2.025l0.939,2.094l2.21,0.401l-1.657,1.554 M326.273,286.403l-1.955-1.128l-2.03,1.004l0.454-2.257l-1.568-1.654
		l2.243-0.264l1.054-2.023l0.939,2.094l2.212,0.401l-1.66,1.554 M329.696,341.153l-1.656-0.956l-1.72,0.851l0.386-1.91l-1.33-1.4
		l1.9-0.223l0.893-1.715l0.795,1.771l1.874,0.34l-1.406,1.316 M283.3,252.597l-3.941-2.274l-4.093,2.025l0.917-4.548l-3.162-3.334
		l4.52-0.53l2.124-4.08l1.894,4.22l4.46,0.811l-3.345,3.132"/>
	<path fill="#FFFFFF" d="M444.368,285.817c1.944-5.083,4.45-12.75,5.782-19.786c-67.741-59.508-143.259-89.992-238.68-83.72
		c-3.422,6.558-6.16,13.423-8.47,20.854c113.063-10.786,195.937,39.27,241.37,82.653L444.368,285.817z"/>
	<path fill="#309E3A" d="M413.914,252.36l2.42,1.323c-0.38,0.858-0.48,1.61-0.311,2.25c0.181,0.646,0.625,1.208,1.336,1.688
		c0.75,0.515,1.424,0.739,2.016,0.68c0.6-0.061,1.045-0.306,1.335-0.734c0.177-0.251,0.257-0.558,0.226-0.862
		c-0.027-0.301-0.192-0.66-0.496-1.075c-0.209-0.28-0.72-0.873-1.529-1.777c-1.04-1.16-1.66-2.138-1.86-2.936
		c-0.28-1.122-0.11-2.141,0.511-3.061c0.399-0.59,0.936-1.03,1.611-1.317c0.686-0.29,1.434-0.355,2.24-0.198
		c0.81,0.157,1.664,0.54,2.55,1.143c1.453,0.987,2.33,2.048,2.63,3.185c0.305,1.138,0.117,2.253-0.564,3.345l-2.404-1.484
		c0.3-0.665,0.375-1.239,0.218-1.723c-0.146-0.485-0.55-0.95-1.21-1.397c-0.676-0.46-1.302-0.682-1.874-0.662
		c-0.347-0.002-0.67,0.175-0.855,0.468c-0.187,0.276-0.229,0.59-0.13,0.942c0.13,0.45,0.668,1.193,1.625,2.234
		c0.953,1.04,1.604,1.89,1.949,2.547c0.355,0.657,0.517,1.34,0.482,2.05c-0.023,0.706-0.284,1.428-0.778,2.16
		c-0.446,0.663-1.075,1.183-1.812,1.493c-0.76,0.33-1.57,0.412-2.438,0.24c-0.859-0.177-1.794-0.607-2.798-1.29
		c-1.462-0.992-2.36-2.093-2.687-3.3c-0.322-1.214-0.125-2.523,0.6-3.926L413.914,252.36z M402.436,244.826l2.473,1.221
		c-0.346,0.872-0.417,1.628-0.221,2.26c0.209,0.637,0.672,1.183,1.4,1.635c0.775,0.482,1.455,0.681,2.043,0.597
		c0.6-0.087,1.037-0.347,1.307-0.786c0.168-0.257,0.235-0.566,0.189-0.87c-0.038-0.302-0.218-0.655-0.54-1.059
		c-0.22-0.271-0.75-0.84-1.597-1.713c-1.087-1.117-1.746-2.069-1.979-2.859c-0.322-1.11-0.193-2.134,0.385-3.077
		c0.374-0.604,0.916-1.083,1.561-1.38c0.674-0.316,1.42-0.413,2.23-0.29c0.817,0.127,1.685,0.473,2.595,1.04
		c1.491,0.926,2.407,1.952,2.753,3.073c0.35,1.126,0.21,2.247-0.428,3.365l-2.463-1.385c0.274-0.676,0.326-1.252,0.149-1.728
		c-0.168-0.482-0.59-0.931-1.264-1.351c-0.697-0.433-1.33-0.628-1.9-0.586c-0.37,0.025-0.647,0.195-0.838,0.504
		c-0.172,0.282-0.204,0.594-0.09,0.944c0.145,0.442,0.714,1.165,1.71,2.168c0.994,1,1.68,1.822,2.052,2.465
		c0.38,0.64,0.568,1.318,0.563,2.027c0.007,0.708-0.228,1.437-0.69,2.192c-0.421,0.679-1.028,1.223-1.75,1.565
		c-0.746,0.359-1.556,0.474-2.427,0.336c-0.865-0.14-1.815-0.536-2.848-1.175c-1.498-0.934-2.438-1.996-2.815-3.19
		C401.623,247.571,401.768,246.257,402.436,244.826L402.436,244.826z M388.23,241.02l7.275-11.966l8.837,5.416l-1.229,2.026
		l-6.43-3.942l-1.615,2.652l5.982,3.668l-1.225,2.015l-5.984-3.667l-1.977,3.256l6.656,4.08l-1.228,2.017l-9.063-5.557V241.02z
		 M367.538,224.027l1.08-2.1l5.399,2.796l-2.546,4.962c-0.79,0.238-1.78,0.296-2.981,0.17c-1.157-0.119-2.282-0.454-3.317-0.986
		c-1.3-0.673-2.29-1.527-2.976-2.571c-0.678-1.027-1.019-2.24-0.975-3.471c0.044-1.292,0.378-2.558,0.978-3.702
		c0.664-1.299,1.53-2.311,2.59-3.04c1.057-0.728,2.25-1.091,3.57-1.091c1.008-0.002,2.104,0.307,3.29,0.916
		c1.541,0.801,2.576,1.747,3.104,2.847c0.54,1.096,0.639,2.279,0.298,3.555l-2.728-0.82c0.14-0.701,0.057-1.355-0.25-1.957
		c-0.296-0.605-0.807-1.095-1.527-1.47c-1.097-0.566-2.146-0.67-3.154-0.305c-1,0.363-1.851,1.229-2.555,2.6
		c-0.76,1.48-1.005,2.76-0.73,3.842c0.277,1.073,0.944,1.887,2.009,2.438c0.524,0.27,1.1,0.439,1.729,0.507
		c0.641,0.066,1.221,0.05,1.754-0.05l0.81-1.582L367.538,224.027L367.538,224.027z M277.296,201.648l2.034-13.867l4.172,0.62
		l1.123,9.826l3.86-9.093l4.188,0.618l-2.033,13.87l-2.59-0.383l1.6-10.918l-4.343,10.513l-2.685-0.398l-1.134-11.32l-1.601,10.915
		L277.296,201.648L277.296,201.648z M263.188,200.01l1.305-13.96l10.307,0.974l-0.217,2.36l-7.503-0.706l-0.29,3.095l6.978,0.657
		l-0.22,2.352l-6.98-0.657l-0.353,3.8l7.764,0.729l-0.22,2.354L263.188,200.01L263.188,200.01z"/>
	<path fill="#309E3A" d="M216.5,191.28c0.04-1.43,0.284-2.62,0.736-3.58c0.335-0.701,0.79-1.339,1.346-1.884
		c0.566-0.552,1.18-0.956,1.844-1.21c0.88-0.347,1.888-0.505,3.023-0.475c2.056,0.06,3.682,0.744,4.877,2.057
		c1.205,1.315,1.775,3.114,1.714,5.396c-0.06,2.26-0.72,4.017-1.982,5.264c-1.26,1.24-2.914,1.834-4.963,1.777
		c-2.077-0.057-3.708-0.736-4.899-2.037C217.005,195.279,216.44,193.509,216.5,191.28L216.5,191.28z"/>
	<path fill="#F7FFFF" d="M219.414,191.252c-0.043,1.586,0.29,2.8,0.997,3.643c0.708,0.837,1.625,1.271,2.748,1.3
		c1.122,0.03,2.055-0.35,2.794-1.138c0.745-0.797,1.14-2.007,1.184-3.633c0.043-1.605-0.276-2.813-0.96-3.622
		c-0.676-0.811-1.595-1.23-2.757-1.262c-1.162-0.03-2.11,0.345-2.843,1.128C219.844,188.445,219.457,189.64,219.414,191.252z"/>
	<path fill="#309E3A" d="M233.052,198.51l0.163-14.018l5.933,0.07c1.494,0.019,2.574,0.157,3.244,0.42
		c0.677,0.257,1.214,0.71,1.613,1.36c0.399,0.649,0.593,1.385,0.584,2.215c-0.013,1.052-0.332,1.918-0.956,2.598
		c-0.623,0.676-1.55,1.096-2.777,1.261c0.605,0.362,1.104,0.76,1.49,1.192c0.397,0.431,0.923,1.195,1.585,2.293l1.673,2.754
		l-3.372-0.04l-2.002-3.073c-0.71-1.099-1.198-1.788-1.46-2.072c-0.265-0.29-0.545-0.487-0.842-0.593
		c-0.297-0.11-0.77-0.17-1.418-0.178l-0.57-0.008l-0.068,5.853L233.052,198.51L233.052,198.51z"/>
	<path fill="#FFFFFF" d="M235.976,190.455l2.086,0.023c1.353,0.017,2.198-0.03,2.536-0.142c0.337-0.112,0.604-0.306,0.796-0.584
		c0.193-0.279,0.293-0.627,0.3-1.048c0.004-0.473-0.118-0.854-0.37-1.143c-0.243-0.296-0.594-0.486-1.05-0.566
		c-0.23-0.034-0.915-0.061-2.057-0.072l-2.2-0.026l-0.04,3.555L235.976,190.455z"/>
	<path fill="#309E3A" d="M249.003,185.188l5.147,0.26c1.16,0.061,2.04,0.195,2.64,0.405c0.791,0.274,1.494,0.757,2.036,1.396
		c0.553,0.646,0.958,1.426,1.218,2.34c0.26,0.907,0.356,2.015,0.29,3.326c-0.058,1.152-0.252,2.138-0.58,2.96
		c-0.4,1-0.938,1.797-1.618,2.396c-0.51,0.453-1.189,0.79-2.034,1.017c-0.632,0.166-1.468,0.222-2.51,0.17l-5.295-0.271
		L249.003,185.188L249.003,185.188z"/>
	<path fill="#FFFFFF" d="M251.706,187.685l-0.468,9.274l2.103,0.104c0.786,0.042,1.357,0.025,1.71-0.046
		c0.46-0.093,0.85-0.268,1.16-0.526c0.32-0.26,0.59-0.694,0.81-1.31c0.223-0.62,0.36-1.47,0.416-2.553s0-1.918-0.16-2.507
		c-0.16-0.591-0.404-1.054-0.73-1.397c-0.327-0.342-0.75-0.583-1.27-0.724c-0.39-0.11-1.157-0.193-2.306-0.25L251.706,187.685
		L251.706,187.685z"/>
	<path fill="#309E3A" d="M317.63,210.22l3.261-13.63l4.399,1.06c1.666,0.402,2.737,0.732,3.21,0.99
		c0.73,0.392,1.273,0.996,1.634,1.81c0.36,0.811,0.41,1.756,0.152,2.841c-0.2,0.836-0.519,1.504-0.958,2
		c-0.438,0.5-0.932,0.854-1.48,1.069c-0.539,0.212-1.063,0.311-1.569,0.3c-0.686-0.027-1.65-0.189-2.891-0.489l-1.786-0.433
		l-1.229,5.143L317.63,210.22L317.63,210.22z"/>
	<path fill="#FFFFFF" d="M323.086,199.552l-0.926,3.868l1.5,0.361c1.082,0.261,1.82,0.364,2.218,0.309
		c0.781-0.098,1.416-0.679,1.581-1.448c0.12-0.496,0.073-0.94-0.141-1.33c-0.209-0.391-0.547-0.698-0.956-0.87
		c-0.313-0.143-0.96-0.332-1.95-0.569l-1.324-0.32H323.086z"/>
	<path fill="#309E3A" d="M330.605,214.106l4.641-13.22l5.598,1.979c1.408,0.498,2.387,0.98,2.938,1.445
		c0.56,0.463,0.923,1.064,1.093,1.807c0.17,0.743,0.12,1.506-0.156,2.286c-0.348,0.992-0.928,1.71-1.735,2.153
		c-0.807,0.438-1.817,0.537-3.032,0.298c0.457,0.54,0.802,1.076,1.03,1.61c0.237,0.536,0.489,1.43,0.765,2.683l0.704,3.15
		l-3.18-1.126l-0.914-3.557c-0.321-1.27-0.562-2.08-0.72-2.435c-0.157-0.36-0.359-0.638-0.606-0.834
		c-0.246-0.202-0.674-0.41-1.286-0.627l-0.536-0.192l-1.938,5.521l-2.66-0.942H330.605z"/>
	<path fill="#FFFFFF" d="M335.938,207.426l1.968,0.695c1.275,0.451,2.09,0.68,2.444,0.683c0.355,0.005,0.67-0.093,0.943-0.295
		c0.271-0.2,0.479-0.5,0.616-0.896c0.155-0.444,0.162-0.845,0.017-1.199c-0.135-0.36-0.408-0.65-0.813-0.876
		c-0.206-0.106-0.848-0.351-1.924-0.73l-2.075-0.736L335.938,207.426L335.938,207.426z"/>
	<path fill="#309E3A" d="M347.01,213.6c0.424-1.363,0.982-2.444,1.674-3.24c0.512-0.586,1.124-1.077,1.808-1.45
		c0.696-0.377,1.396-0.598,2.102-0.664c0.94-0.094,1.953,0.029,3.038,0.369c1.965,0.614,3.344,1.718,4.141,3.309
		c0.803,1.593,0.866,3.479,0.189,5.658c-0.67,2.161-1.779,3.67-3.33,4.527c-1.548,0.853-3.302,0.971-5.26,0.357
		c-1.982-0.62-3.37-1.718-4.164-3.294c-0.793-1.583-0.857-3.44-0.196-5.57L347.01,213.6z"/>
	<path fill="#FFFFFF" d="M349.826,214.385c-0.471,1.514-0.48,2.772-0.026,3.778c0.455,0.995,1.22,1.662,2.293,2
		c1.073,0.334,2.07,0.223,2.996-0.337c0.933-0.562,1.64-1.619,2.122-3.172c0.477-1.534,0.495-2.782,0.057-3.75
		c-0.433-0.962-1.205-1.617-2.313-1.964c-1.11-0.347-2.123-0.243-3.04,0.313c-0.915,0.548-1.61,1.592-2.09,3.133L349.826,214.385z"
		/>
	<path fill="#309E3A" d="M374.305,233.12l6.415-12.45l5.271,2.735c1.326,0.69,2.229,1.301,2.71,1.841
		c0.489,0.531,0.768,1.18,0.835,1.939c0.066,0.76-0.092,1.505-0.471,2.242c-0.479,0.934-1.152,1.563-2.017,1.892
		c-0.86,0.322-1.872,0.28-3.043-0.128c0.378,0.599,0.646,1.181,0.8,1.74c0.158,0.564,0.288,1.484,0.387,2.763l0.263,3.215
		l-2.993-1.555l-0.415-3.647c-0.146-1.305-0.271-2.141-0.378-2.513c-0.105-0.377-0.27-0.682-0.487-0.91
		c-0.214-0.232-0.609-0.5-1.186-0.798l-0.507-0.264l-2.678,5.197L374.305,233.12L374.305,233.12z"/>
	<path fill="#FFFFFF" d="M380.503,227.226l1.853,0.962c1.2,0.625,1.978,0.962,2.33,1.017c0.351,0.054,0.676,0,0.974-0.162
		c0.296-0.16,0.54-0.429,0.733-0.804c0.215-0.42,0.275-0.813,0.184-1.186c-0.087-0.374-0.315-0.702-0.686-0.98
		c-0.189-0.134-0.789-0.465-1.808-0.992l-1.952-1.014l-1.63,3.16L380.503,227.226z"/>
	<path fill="#309E3A" d="M426.107,258.704c0.797-1.184,1.642-2.057,2.535-2.62c0.66-0.411,1.386-0.703,2.146-0.862
		c0.724-0.159,1.473-0.168,2.2-0.028c0.93,0.185,1.864,0.597,2.805,1.235c1.704,1.156,2.708,2.612,3.015,4.366
		c0.31,1.758-0.174,3.58-1.448,5.472c-1.264,1.873-2.759,2.998-4.488,3.37c-1.728,0.365-3.44-0.028-5.14-1.182
		c-1.719-1.168-2.732-2.622-3.041-4.362c-0.303-1.746,0.168-3.543,1.414-5.39L426.107,258.704z"/>
	<path fill="#FFFFFF" d="M428.578,260.254c-0.887,1.315-1.256,2.518-1.112,3.609c0.15,1.087,0.69,1.945,1.62,2.578
		c0.932,0.632,1.92,0.815,2.967,0.55c1.055-0.27,2.037-1.076,2.944-2.425c0.896-1.33,1.272-2.52,1.13-3.571
		c-0.138-1.048-0.688-1.898-1.65-2.553c-0.961-0.653-1.961-0.85-3-0.583C430.444,258.12,429.479,258.92,428.578,260.254
		L428.578,260.254z"/>
	<path fill="#309E3A" d="M301.824,204.523l2.248-9.84l7.268,1.675l-0.378,1.662l-5.287-1.217l-0.504,2.18l4.926,1.136l-0.382,1.655
		l-4.918-1.132l-0.614,2.677l5.475,1.261l-0.378,1.659L301.824,204.523L301.824,204.523z"/>
</g>
</svg>
