<?xml version="1.0" encoding="utf-8"?>
<!-- Generator: Adobe Illustrator 15.0.2, SVG Export Plug-In . SVG Version: 6.00 Build 0)  -->
<!DOCTYPE svg PUBLIC "-//W3C//DTD SVG 1.1//EN" "http://www.w3.org/Graphics/SVG/1.1/DTD/svg11.dtd">
<svg version="1.1" id="Layer_1" xmlns="http://www.w3.org/2000/svg" xmlns:xlink="http://www.w3.org/1999/xlink" x="0px" y="0px"
	 width="640px" height="480px" viewBox="0 0 640 480" enable-background="new 0 0 640 480" xml:space="preserve">
<g>
	<path fill="#F7E017" d="M0,0h640v480H0V0z"/>
	<path fill="#FFFFFF" d="M0,33.333v213.334l640,99.999V233.333L0,33.333z"/>
	<path d="M0,146.667v100l640,199.999v-100L0,146.667z"/>
	<path fill="#CF1126" d="M303.829,379.815c-12.907-1.713-24.74-5.82-32.96-11.446c-1.594-1.094-3.094-1.987-3.327-1.987
		c-0.24,0-0.433,1.214-0.433,2.714c0,4.247-1.707,6.387-6,7.5c-4.107,1.066-10.374-1.087-15.454-5.3
		c-5.26-4.367-11.333-7.7-16.474-9.033c-4.233-1.107-9.853-0.927-13.913,0.433c-1.887,0.634-4.033,1.527-4.78,1.987
		c-0.74,0.46-1.573,0.833-1.84,0.833c-0.72,0-0.62-4.566,0.133-6.026c0.994-1.914,3.44-3.801,6.293-4.84
		c1.44-0.527,2.62-1.2,2.62-1.5c0-0.301-0.487-1.4-1.08-2.434c-1.934-3.387-1.14-6.667,2.233-9.247
		c3.453-2.64,9.3-3.093,14.467-1.126c1.3,0.492,2.513,0.899,2.693,0.899c0.68,0,0.267-0.953-1.607-3.68
		c-2.16-3.16-2.586-4.72-2.32-8.48c0.347-4.76,4.227-8.653,8.98-9c3.88-0.28,6.293,1.026,12.02,6.48
		c17.1,16.307,35.693,25.293,57.38,27.727c5.473,0.613,16.487,0.286,22.947-0.687c19.514-2.94,39.174-12.754,54.526-27.214
		c4.254-4.007,6.301-5.066,9.787-5.08c3.033-0.013,5.16,0.967,7.334,3.367c1.979,2.2,2.652,4.286,2.439,7.626
		c-0.14,2.141-0.486,3.193-1.76,5.268c-1.88,3.06-1.561,3.34,2.16,1.899c5.026-1.96,11.22-1.054,14.56,2.12
		c2.94,2.793,3.22,5.587,0.934,9.373c-0.833,1.387-1.514,2.688-1.514,2.894c0,0.38,0.634,0.56,3.687,1.054
		c3.994,0.64,6.28,3.606,6.28,8.14c0,1.36-0.167,2.467-0.373,2.467c-0.2,0-1.714-0.554-3.36-1.233c-4.653-1.92-7.3-2.413-12.74-2.38
		c-4.14,0.026-5.566,0.22-8.453,1.16c-4.42,1.446-9.146,4.233-13,7.667c-4.246,3.786-6.92,4.979-11.053,4.946
		c-3.841-0.04-6.467-1.153-7.854-3.347c-0.74-1.174-0.848-1.887-0.667-4.54c0.12-1.727,0.093-3.14-0.047-3.14
		c-0.146,0-1.64,0.946-3.327,2.113c-4.426,3.039-7.246,4.547-12.313,6.553C343.203,379.428,320.902,382.074,303.829,379.815z"/>
	<path fill="#CF1126" d="M310.896,350.115c-25.72-2.468-50.329-15.865-65.293-37.104c-16.247-22.156-21.367-51.411-16.407-78.16
		c2.636-12.178,7.953-24.364,17.029-33.036c-7.233,15.335-9.677,32.913-5.82,49.526c5.993,33.169,34.024,61.247,67.56,66.104
		c13.267,3.841,26.992-0.216,39.664-4.329c27.957-9.853,49.254-36.389,51.852-66.053c2.225-16.052-0.24-32.742-7.471-47.277
		c4.121,2.18,9.324,10.725,12.393,16.472c10.668,20.669,11.156,45.437,4.875,67.493c-8.52,28.064-29.977,52.652-58.341,61.589
		c-12.872,4.205-26.562,5.487-40.039,4.778L310.896,350.115z"/>
	<path fill="#CF1126" d="M181.349,313.268c-1.686-0.264-3.544,1.395-2.909,3.132c1.216,1.755,3.31,2.613,5.199,3.453
		c4.528,1.814,9.453,2.521,14.313,2.403c-1.675-0.004,0.576,0.018,1.202,0c3.849,0.012,7.677-0.683,11.296-1.986
		c2.012-0.709,4.576-1.351,5.399-3.576c0.805-1.449-0.653-2.897-2.123-2.607c-2.048,0.447-3.963,1.377-5.993,1.905
		c-4.382,1.235-8.996,1.713-13.536,1.341c-3.32-0.405-6.536-1.467-9.607-2.762C183.526,314.101,182.527,313.415,181.349,313.268
		L181.349,313.268z"/>
	<path fill="#CF1126" d="M183.222,306.348c-1.704-0.253-3.172,1.707-2.461,3.271c1.31,1.899,3.511,2.91,5.57,3.8
		c3.58,1.433,7.47,2.031,11.316,1.917c-1.46-0.004,0.502,0.018,1.044,0c3.276,0.001,6.521-0.641,9.55-1.889
		c1.85-0.719,4.113-1.416,4.883-3.451c0.597-1.117,0.141-2.744-1.267-2.831c-1.286-0.063-2.396,0.755-3.585,1.122
		c-4.323,1.787-9.081,2.545-13.743,2.143c-2.905-0.373-5.68-1.445-8.313-2.687C185.227,307.265,184.336,306.52,183.222,306.348
		L183.222,306.348z"/>
	<path fill="#CF1126" d="M185.521,299.715c-1.46-0.176-2.465,1.473-2.219,2.787c0.218,1.156,1.255,1.933,2.113,2.641
		c3.552,2.599,8.055,3.705,12.417,3.56c-1.694-0.006,2.273,0.028,1.063-0.005c2.763-0.011,5.492-0.687,7.978-1.883
		c1.659-0.722,3.607-1.558,4.167-3.451c0.267-0.883,0.435-2.151-0.561-2.646c-1.043-0.583-2.078,0.313-3.026,0.677
		c-3.192,1.625-6.75,2.528-10.338,2.513c-3.1,0.104-6.022-1.2-8.712-2.605C187.427,300.804,186.623,299.94,185.521,299.715
		L185.521,299.715z"/>
	<path fill="#CF1126" d="M161.021,201.801c-2.171,2.173-0.513,6.181-0.631,9.028c1.126,8.772,2.523,17.656,5.798,25.914
		c4.01,8.067,12.527,12.382,17.689,19.512c1.845,3.437,1.189,7.57,1.578,11.329c0.306,10.244,0.211,20.496,0.032,30.741
		c4.626,2.321,9.649,4.657,14.971,3.765c3.153-0.754,9.008-1.222,9.664-4.362c-0.255-17.666-0.42-35.34-0.656-53.004
		c-1.793-5.413-7.3-8.214-11.419-11.677c-3.396-3.355-6.557-6.941-9.459-10.732c-1.748-2.945-8.579-4.007-6.107,1.117
		c1.449,4.437,5.147,7.74,6.073,12.401c0.202,2.555,3.251,7.253,0.648,8.743c-1.656-2.814-4.055-5.21-7.121-6.639
		c-2.955-2.203-7.84-3.12-8.906-7.012c-0.783-5.52-3.61-10.521-7.258-14.657c0.94-4.957,0.003-11.158-4.282-14.326L161.021,201.801
		L161.021,201.801z"/>
	<path fill="#CF1126" d="M167.628,202.794c-1.975,0.318-1.908,2.836-0.994,4.159c0.972,2.859,1.237,5.964,0.71,8.939
		c3.512,4.11,6.231,9.029,7.051,14.427c0.021,2.029,2.155,2.701,3.54,3.703c3.248,2.068,6.899,3.567,9.791,6.155
		c0.609,0.651,1.068,1.352,0.638,0.023c-0.452-1.697-0.684-3.571-2.014-4.856c-1.823-1.96-4.1-3.709-6.755-4.307
		c-0.222-2.742-1.528-5.262-2.735-7.688c-1.337-2.32-2.734-4.805-5.026-6.309c0.092-4.065,0.025-8.33-1.724-12.081
		C169.596,203.997,168.84,202.852,167.628,202.794L167.628,202.794z"/>
	<path fill="#CF1126" d="M173.155,204.414c-1.376,0.408-1.113,2.105-0.678,3.144c0.659,2.878,0.763,5.85,0.709,8.79
		c2.527,2,4.108,4.899,5.548,7.725c0.902,1.887,1.757,3.834,2.104,5.91c2.051,0.679,3.845,1.964,5.447,3.385
		c-0.635-1.922-2.051-3.409-3.003-5.163c-1.034-1.824-2.022-3.728-2.46-5.795c-1.972-2.105-3.058-5.087-2.627-7.969
		c0.088-3.184-0.94-6.473-3.071-8.873C174.588,205.039,173.947,204.454,173.155,204.414z"/>
	<path fill="#CF1126" d="M179.441,205.315c-0.748,0.132-1.203,0.844-1.604,1.424c-0.155,0.582,0.558,1.208,0.672,1.841
		c0.878,2.204,1.202,4.591,0.944,6.95c-0.057,1.668,0.54,3.298,1.389,4.71c0.246-1.042,1.211-1.791,2.258-1.894
		c0.38-0.067,0.94,0.126,0.719-0.455c-0.267-3.19-0.752-6.398-1.867-9.413c-0.433-1.076-0.923-2.21-1.855-2.947
		C179.907,205.397,179.681,205.281,179.441,205.315z"/>
	<path fill="#CF1126" d="M458.656,313.268c1.686-0.264,3.544,1.395,2.909,3.132c-1.216,1.755-3.31,2.613-5.199,3.453
		c-4.528,1.814-9.453,2.521-14.313,2.403c1.675-0.004-0.576,0.018-1.201,0c-3.85,0.012-7.678-0.683-11.297-1.986
		c-2.012-0.709-4.576-1.351-5.399-3.576c-0.805-1.449,0.653-2.897,2.123-2.607c2.048,0.447,3.963,1.377,5.993,1.905
		c4.382,1.235,8.996,1.713,13.535,1.341c3.32-0.405,6.536-1.467,9.607-2.762C456.479,314.101,457.478,313.415,458.656,313.268
		L458.656,313.268z"/>
	<path fill="#CF1126" d="M456.783,306.348c1.704-0.253,3.172,1.707,2.461,3.271c-1.31,1.899-3.511,2.91-5.57,3.8
		c-3.58,1.433-7.47,2.031-11.316,1.917c1.46-0.004-0.502,0.018-1.044,0c-3.276,0.001-6.521-0.641-9.55-1.889
		c-1.85-0.719-4.113-1.416-4.883-3.451c-0.598-1.117-0.142-2.744,1.266-2.831c1.287-0.063,2.396,0.755,3.586,1.122
		c4.323,1.787,9.081,2.545,13.742,2.143c2.905-0.373,5.681-1.445,8.314-2.687C454.778,307.265,455.668,306.52,456.783,306.348
		L456.783,306.348z"/>
	<path fill="#CF1126" d="M454.483,299.715c1.46-0.176,2.465,1.473,2.219,2.787c-0.218,1.156-1.255,1.933-2.113,2.641
		c-3.552,2.599-8.055,3.705-12.417,3.56c1.694-0.006-2.272,0.028-1.063-0.005c-2.763-0.011-5.492-0.687-7.978-1.883
		c-1.659-0.722-3.607-1.558-4.167-3.451c-0.268-0.883-0.435-2.151,0.561-2.646c1.043-0.583,2.078,0.313,3.026,0.677
		c3.192,1.625,6.75,2.528,10.338,2.513c3.101,0.104,6.022-1.2,8.712-2.605C452.578,300.804,453.382,299.94,454.483,299.715
		L454.483,299.715z"/>
	<path fill="#CF1126" d="M478.983,201.801c2.171,2.173,0.513,6.181,0.631,9.028c-1.126,8.772-2.523,17.656-5.798,25.914
		c-4.011,8.067-12.527,12.382-17.689,19.512c-1.845,3.437-1.189,7.57-1.578,11.329c-0.306,10.244-0.211,20.496-0.031,30.741
		c-4.627,2.321-9.649,4.657-14.971,3.765c-3.154-0.754-9.009-1.222-9.664-4.362c0.255-17.666,0.42-35.34,0.655-53.004
		c1.793-5.413,7.3-8.214,11.419-11.677c3.396-3.355,6.557-6.941,9.459-10.732c1.748-2.945,8.578-4.007,6.107,1.117
		c-1.449,4.437-5.146,7.74-6.073,12.401c-0.202,2.555-3.251,7.253-0.648,8.743c1.656-2.814,4.055-5.21,7.121-6.639
		c2.955-2.203,7.84-3.12,8.906-7.012c0.783-5.52,3.61-10.521,7.259-14.657c-0.94-4.957-0.004-11.158,4.281-14.326L478.983,201.801
		L478.983,201.801z"/>
	<path fill="#CF1126" d="M472.377,202.794c1.975,0.318,1.908,2.836,0.994,4.159c-0.973,2.859-1.237,5.964-0.711,8.939
		c-3.512,4.11-6.231,9.029-7.051,14.427c-0.021,2.029-2.155,2.701-3.539,3.703c-3.248,2.068-6.899,3.567-9.791,6.155
		c-0.609,0.651-1.068,1.352-0.639,0.023c0.452-1.697,0.685-3.571,2.015-4.856c1.823-1.96,4.1-3.709,6.755-4.307
		c0.222-2.742,1.528-5.262,2.735-7.688c1.337-2.32,2.734-4.805,5.026-6.309c-0.092-4.065-0.025-8.33,1.725-12.081
		C470.409,203.997,471.164,202.852,472.377,202.794L472.377,202.794z"/>
	<path fill="#CF1126" d="M466.85,204.414c1.376,0.408,1.113,2.105,0.678,3.144c-0.659,2.878-0.763,5.85-0.709,8.79
		c-2.527,2-4.108,4.899-5.548,7.725c-0.902,1.887-1.757,3.834-2.104,5.91c-2.051,0.679-3.845,1.964-5.447,3.385
		c0.635-1.922,2.051-3.409,3.003-5.163c1.034-1.824,2.021-3.728,2.46-5.795c1.972-2.105,3.058-5.087,2.627-7.969
		c-0.089-3.184,0.94-6.473,3.071-8.873C465.417,205.039,466.058,204.454,466.85,204.414z"/>
	<path fill="#CF1126" d="M460.563,205.315c0.748,0.132,1.203,0.844,1.604,1.424c0.155,0.582-0.558,1.208-0.672,1.841
		c-0.878,2.204-1.202,4.591-0.944,6.95c0.058,1.668-0.539,3.298-1.389,4.71c-0.246-1.042-1.211-1.791-2.258-1.894
		c-0.381-0.067-0.94,0.126-0.719-0.455c0.267-3.19,0.752-6.398,1.867-9.413c0.433-1.076,0.923-2.21,1.855-2.947
		C460.098,205.397,460.324,205.281,460.563,205.315z"/>
	<path fill="#CF1126" d="M317.116,317.322c-8.996-0.856-17.111-7.413-19.886-16c0.149-1.479,1.991,0.827,2.861,0.982
		c1.634,0.907,3.4,1.653,5.28,1.77c2.372,1.019,3.838,3.356,6.102,4.575c1.051,0.818,4.77,2.427,4.079-0.176
		c-0.871-1.36-1.471-3.084-0.721-4.642c1.261-2.767,3.201-5.175,5.153-7.484c1.436-0.479,2.396,2.352,3.423,3.305
		c1.421,2.187,3.134,4.854,2.298,7.568c-0.813,1.006-1.348,4.031,0.827,3.015c2.682-1.18,4.878-3.161,7.101-5.012
		c1.946-1.359,4.437-1.455,6.476-2.646c0.944-0.24,2.913-2.13,3.324-1.082c-1.117,2.992-2.988,5.672-4.988,8.141
		c-3.239,3.7-7.621,6.483-12.524,7.269C323.023,317.434,320.05,317.546,317.116,317.322L317.116,317.322z"/>
	<path fill="#CF1126" d="M327.689,306.815c0.197-1.806-0.214-3.648-1.136-5.29c-1.415-2.884-3.414-5.444-5.364-7.974
		c-1.838-1.077-2.857,2.438-4.08,3.447c-1.905,2.852-4.295,5.771-4.412,9.357c-1.071,1.668-3.069-1.36-3.931-2.357
		c-1.646-2.327-2.891-5.08-2.687-7.991c-0.195-4.69,0.705-9.36,2.413-13.721c1.29-3.722,3.384-7.337,3.172-11.403
		c0.149-3.06-0.473-6.438-2.951-8.496c-2.358-1.852,1.527-2.246,2.762-1.286c2.112,0.142,3.254,3.633,5.185,2.769
		c0.769-1.823,0.921-3.998,2.507-5.42c1.555-2.131,3.181,0.903,3.713,2.325c1.099,1.249-0.062,4.338,1.722,4.419
		c2.138-1.498,3.662-4.015,6.395-4.563c1.108-0.632,3.002-0.084,1.541,1.19c-2.022,1.896-3.75,4.267-4.119,7.087
		c-0.619,3.538,0.267,7.127,1.809,10.313c2.964,6.26,5.257,13.331,3.758,20.297c-0.695,3.096-2.799,5.763-5.355,7.56
		C328.309,307.273,327.798,307.259,327.689,306.815z"/>
	<path fill="#CF1126" d="M324.489,259.754c-0.971-1.749-2.149-3.473-3.782-4.663c-1.587-0.003-2.566,1.999-3.646,3.049
		c-0.756,1.406-1.675,3.759-3.536,1.92c-2.963-1.729-3.487-5.518-3.468-8.64c-0.187-5.06,1.851-9.782,3.661-14.391
		c1.152-2.886,0.868-6.133,0.166-9.09c-0.885-3.395-3.609-5.749-5.707-8.396c0.143-1.024,2.823-0.465,3.832-0.271
		c2.24,0.568,3.578,2.551,5.247,3.951c1.188-0.36,0.703-2.76,1.256-3.889c0.041-1.588,2.155-3.682,3.027-1.408
		c1.306,1.445-0.041,4.31,1.646,5.21c1.607-0.596,2.399-2.353,3.91-3.146c1.486-1.014,3.586-1.127,5.186-0.331
		c0.563,1.475-1.76,2.703-2.434,3.984c-2.701,3.337-3.65,7.939-2.493,12.074c0.918,3.244,2.543,6.271,3.104,9.623
		c0.675,3.769,0.653,7.727-0.323,11.44c-0.582,2.253-2.534,3.76-4.55,4.695C325.088,261.015,324.825,260.334,324.489,259.754
		L324.489,259.754z"/>
	<path fill="#CF1126" d="M314.409,217.928c-2.24-1.641-2.98-3.207-2.98-6.307c0-1.587,0.294-2.447,1.34-3.887
		c1.54-2.134,1.26-2.807-0.92-2.181c-3.507,1.007-5.18,0.087-5.3-2.899c-0.053-1.46,0.253-2.08,2.22-4.44
		c1.573-1.894,2.147-2.887,1.833-3.2c-0.307-0.307-2.167,1.307-5.987,5.193c-3.046,3.101-6.473,6.267-7.613,7.04
		c-6.56,4.427-12.827,5.113-15.687,1.707c-1.467-1.74-1.387-2.72,0.307-3.773c0.78-0.479,2.094-1.587,2.927-2.46
		c1.967-2.047,7.827-6.273,10.733-7.74c2.36-1.193,2.92-2,1.387-2c-1.986,0-8.36,4.146-13.193,8.587
		c-1.42,1.313-3.467,2.773-4.54,3.247c-2.413,1.066-7.153,1.46-9.26,0.767c-1.487-0.494-4.2-3.054-4.2-3.967
		c0-0.24,0.62-0.773,1.373-1.181c0.754-0.399,2.107-1.38,3-2.159c3.867-3.394,11.193-6.887,17.007-8.107
		c1.847-0.387,1.167-1.319-0.893-1.227c-3.994,0.174-11.92,3.887-16.654,7.794c-5.546,4.573-13.913,4.14-16.606-0.86
		c-0.467-0.86-0.74-1.667-0.606-1.793c0.126-0.127,1.773-0.62,3.66-1.101c2.04-0.513,6.08-2.187,9.939-4.113
		c6.073-3.026,7.874-3.673,12.054-4.347c1.88-0.3,1.98-1.22,0.153-1.434c-2.354-0.279-5.96,0.9-12.333,4.034
		c-8.187,4.026-10.48,4.72-14.793,4.466c-3.934-0.239-6.153-1.246-9.347-4.267c-2.087-1.979-5.047-7.007-4.467-7.586
		c0.14-0.141,1.1,0,2.134,0.3c1.146,0.34,4.433,0.566,8.393,0.573c5.54,0.013,7.013-0.134,9.967-0.987
		c4.94-1.426,11.506-4.767,16-8.119c8.593-6.427,15.6-9.007,24.534-9.047c8.247-0.033,13.493,1.873,18.14,6.586
		c1.573,1.594,2.914,2.627,3.134,2.407c0.207-0.207,0.433-2.993,0.5-6.193c0,0,2.427-0.233,2.939,0.446
		c0,5.193,0.061,5.601,0.813,5.601c0.493,0,1.021-0.507,1.347-1.294c0.707-1.699,3.32-4.026,6.113-5.439
		c6.034-3.061,16.474-3.153,24.86-0.227c3.533,1.239,7.453,3.453,11.187,6.333c3.747,2.88,11.407,6.733,15.934,8.021
		c4.58,1.3,12.653,1.626,16.794,0.687c1.706-0.387,3.307-0.707,3.56-0.707c1.526,0-1.073,5.087-4.127,8.066
		c-5.58,5.454-12.84,5.427-23.054-0.08c-6.366-3.426-13.979-5.3-13.979-3.433c0,0.387,0.399,0.646,0.993,0.646
		c2.214,0,6.486,1.486,12.447,4.313c6.446,3.066,10.066,4.359,12.213,4.359c1.561,0,1.606,0.967,0.153,3.101
		c-1.54,2.273-4.153,3.399-7.847,3.394c-3.526-0.014-5.486-0.787-8.64-3.407c-5.273-4.387-18.414-9.28-17.907-6.666
		c0.1,0.52,0.733,0.84,2.087,1.046c4.573,0.7,9.94,3.261,15.434,7.374c1.693,1.273,3.453,2.526,3.899,2.793
		c0.754,0.44,0.768,0.573,0.174,1.687c-0.986,1.84-3.474,3.267-6.167,3.547c-3.486,0.36-6.521-0.68-9.66-3.307
		c-6.626-5.547-12.873-9.561-14.873-9.561c-1.634,0-0.9,0.9,1.979,2.427c3.787,2.007,7.681,4.721,10.547,7.354
		c1.354,1.254,2.881,2.493,3.387,2.767c1.2,0.641,1.153,1.58-0.166,3.307c-1.348,1.761-3.574,2.534-6.461,2.227
		c-5.76-0.606-10.253-3.386-17.313-10.713c-2.761-2.86-5.221-5.2-5.474-5.2c-0.94,0-0.387,1.273,1.433,3.313
		c2.254,2.521,2.688,3.94,1.834,5.986c-0.754,1.813-2.007,2.233-4.58,1.54c-2.633-0.713-3.047-0.066-1.32,2.08
		c2.574,3.207,2.193,7.134-0.96,9.834c-0.979,0.833-2.007,1.52-2.286,1.52c-0.273,0-0.967-0.713-1.547-1.587
		c-2.027-3.08-3.807-3.06-5.78,0.054c-0.687,1.087-1.267,1.967-1.287,1.96C316.436,219.407,315.509,218.741,314.409,217.928
		L314.409,217.928z"/>
	<path fill="#CF1126" d="M324.449,155.354l-3.42,2.707l-3.067-2.313v18.493l6.487,0.08V155.354z"/>
	<path fill="#CF1126" d="M303.263,136.167c-0.681,8.74-2.9,14.84-5.987,21.566l7.4-6.859l5.146,6.113l5.573-6.221l5.687,5.254
		l5.467-5.467l5.681,6.646l4.933-5.467l8.36,6c-3.033-6.727-7.14-12.427-6.627-21.893
		C330.796,141.861,311.549,142.948,303.263,136.167L303.263,136.167z"/>
	<path fill="#CF1126" d="M317.969,131.707c-2.973,0.054-6.106,0.094-8.926,0.646c-1.954,0.387-3.727,1.021-5.207,2.066
		c0.24,5.688,27.333,8.061,34.6,0.107c-1.526-1.113-3.393-1.773-5.446-2.174c-2.714-0.526-5.714-0.58-8.56-0.627
		c0,1.561,0.013,3.127,0.013,4.693l-6.474-0.02V131.707z"/>
	<path fill="#CF1126" d="M323.27,102.647l-4.207,0.033v32.921l4.293,0.02L323.27,102.647z"/>
	<path fill="#CF1126" d="M323.263,103.493l-1.606,15.761l16.213,7.92l-8.207-10.974l11.207-3.634L323.263,103.493z M321.456,99.387
		c-2.46,0-4.28,0.92-4.28,2.014c0,1.093,1.82,2.02,4.28,2.02s4.267-0.927,4.267-2.02C325.723,100.307,323.916,99.387,321.456,99.387
		z"/>
	<path fill="#F7E017" d="M314.033,375.879c2.66-0.879,4.174-2.492,5.26-5.6c0.54-1.547,0.907-3.152,0.814-3.572
		c-0.227-0.994-1.374-0.94-2.64,0.112c-0.867,0.728-0.974,1.093-0.727,2.573c0.633,3.734-0.693,4.66-7.76,5.42
		c-0.7,0.074-2.727-0.046-4.513-0.266c-3.36-0.42-4.56-0.088-3.34,0.926c0.366,0.307,1.3,0.72,2.073,0.914
		C305.087,376.873,312.013,376.547,314.033,375.879L314.033,375.879z M328.68,375.26c0.4-0.367,1.773-1,3.053-1.413
		c1.707-0.547,2.588-1.134,3.308-2.207c2.073-3.087,1.687-5.747-1.36-9.333c-1.652-1.947-2.387-1.895-3.707,0.266
		c-1.14,1.867-1.112,1.987,0.527,2.414c0.86,0.221,1.688,0.854,2.141,1.633c1.786,3.094,1.26,5.008-1.388,5.027
		c-2.399,0.02-3.06,0.36-3.706,1.913c-0.34,0.807-0.613,1.667-0.613,1.913C326.934,376.127,327.84,376.013,328.68,375.26
		L328.68,375.26z M323.873,371.767c0.454-1.228,0.614-3.435,0.561-7.935c-0.033-3.426-0.166-6.332-0.301-6.466
		c-0.4-0.399-2.373,0.873-2.633,1.693c-0.133,0.427,0.087,1.413,0.487,2.187c0.612,1.193,0.692,2.307,0.506,6.98
		C322.253,374.133,322.641,375.127,323.873,371.767z"/>
	<path fill="#F7E017" d="M312.593,368.953c0.24-1.101,0.547-3.354,0.688-5c0.14-1.646,0.479-3.727,0.747-4.627
		c0.68-2.307-0.007-2.914-1.827-1.619l-1.354,0.966l0.28,3.313c0.26,2.986-0.214,8.553-0.9,10.713
		c-0.187,0.573,0.08,0.428,0.833-0.453C311.667,371.539,312.36,370.053,312.593,368.953z M302.587,370.56
		c2.434-2.036,2.154-5.515,2.693-8.347c-0.057-1.883,1.203-4.141,0.39-5.788c-2.274,0.416-3.676,2.569-2.512,4.716
		c0.097,2.492,0.009,5.205-1.272,7.409c-1.047,1.44-4.362,1.082-4.209-0.96c0.832-3.072-2.848-1.577-4.284-0.772
		c-1.11,0.773-3.455,0.83-2.64-1.104c-0.538-2.577-3.854-0.965-5.655-0.977c-1.701-0.031-0.14-3.447-2.582-2.848
		c-4.537-0.357-9.546,0.04-13.473-2.7c-2.3-1.106-1.958-3.87-0.761-5.66c1.429-2.442,1.837-5.5,4.104-7.395
		c2.246-2.154-2.118-1.245-3.1-0.52c-2.189,1.198-0.156,4.282-1.947,5.993c-1.046,1.774-2.424,4.225-4.846,3.886
		c-3.494-0.659-5.507-3.909-8.012-6.088c-2.145-0.428-0.939,3.481,0.169,4.304c2.192,1.641,4.753,2.836,7.394,3.545
		c2.63-0.42,2.715,3.022,4.963,3.563c4.125,1.922,8.722,2.498,13.222,2.733c1.768,0.146,0.774,3.295,3.098,2.673
		c1.298,0.337,4.231-0.483,4.378,1.025c-1.968,2.338,1.89,2.284,3.318,1.866c1.828-0.28,4.164-0.978,4.647,1.528
		c1.526,1.609,4.328,1.371,6.186,0.45C302.118,370.943,302.364,370.764,302.587,370.56z"/>
	<path fill="#F7E017" d="M262.747,350.379c0.74-0.939,1.846-2.84,2.46-4.227c0.606-1.393,1.52-2.973,2.02-3.513
		c1.173-1.267,0.52-2.047-1.374-1.627c-1,0.22-1.406,0.587-1.573,1.454c-0.567,2.826-1.593,5.72-2.507,7.065
		c-1.653,2.44-1.693,2.54-1.013,2.54C261.113,352.073,262.007,351.313,262.747,350.379L262.747,350.379z M237.773,334.727
		c-1.866,0-1.946,1.18-0.126,1.813c0.88,0.308,1.626,1.047,2.226,2.254c1.774,3.526,2.814,4.153,7.52,4.56l3.02,0.274l0.147,1.832
		c0.073,1.014,0.313,1.854,0.547,1.854c0.233,0,1.4-0.506,2.58-1.105c2.213-1.121,4.313-3.734,4.313-5.354
		c0-1.06-1.767-2.206-3.373-2.206c-0.714,0-2.074,0.573-3.147,1.354c-3.36,2.433-6.953,1.939-8.92-1.228
		C240.947,336.159,239.26,334.727,237.773,334.727z M254.08,341.227c0.893,0,1.113,0.66,0.627,1.92
		c-0.334,0.866-1.42,0.893-1.747,0.04C252.573,342.18,253.113,341.227,254.08,341.227z M380.561,337.127
		c-1.221,0.045-1.58,0.313-2.354,1.459c-1.268,1.881-1.395,5.953-0.227,7.394c0.727,0.894,0.832,0.913,2.373,0.272
		c2.146-0.899,2.507-0.865,2.5,0.287c-0.014,2.947-4.24,8.627-8.666,11.647c-1.194,0.813-2.261,1.72-2.375,2.021
		c-0.319,0.84,1.32,0.652,3.334-0.375c2.746-1.399,6.354-5.08,7.834-7.979c1.173-2.313,1.34-3.101,1.479-7.146
		c0.127-3.728,0.027-4.82-0.606-6.061c-0.707-1.395-0.934-1.52-2.707-1.52C380.934,337.127,380.74,337.119,380.561,337.127z
		 M380.707,339.727c0.92,0,1.08,0.206,1.186,1.525c0.095,1.095-0.1,1.761-0.705,2.308c-0.827,0.747-0.895,0.74-1.627-0.373
		C378.533,341.613,379.167,339.727,380.707,339.727z M360.467,368.18c3.9-1.92,6.2-4.08,7.68-7.207
		c0.701-1.486,1.273-2.887,1.273-3.126c0-0.54-1.92-1.435-3.072-1.435c-1.147,0-1.381-0.793-0.888-2.985
		c0.479-2.14-0.1-4.82-1.04-4.82c-0.34,0-0.939,0.5-1.34,1.106c-0.613,0.939-0.646,1.34-0.193,2.707
		c0.666,2.026,0.141,3.539-1.674,4.832c-0.859,0.614-1.333,1.32-1.333,2.008c0,0.58,0.073,1.053,0.16,1.053
		c0.093,0,1.04-0.493,2.106-1.086l1.946-1.087l1.147,0.899c0.627,0.493,1.146,1.301,1.146,1.793c0,2.375-6.767,6.36-11.414,6.734
		c-2.473,0.2-2.893,0.113-3.753-0.74c-0.7-0.699-0.899-1.287-0.727-2.113c0.134-0.633,0.374-1.786,0.534-2.561
		c0.426-2.066-0.46-1.786-1.994,0.627c-1.26,1.993-1.633,4.12-0.926,5.24c0.58,0.913,4.433,1.787,7.16,1.62
		C356.98,369.539,358.673,369.06,360.467,368.18z M386.493,353.659c2.454-2.446,3.494-5.427,3.507-10.032l0.007-3.461l2.026-0.959
		c2.634-1.254,5.127-3.748,5.127-5.135c0-1.426-0.633-1.353-1.78,0.2c-0.833,1.127-1.946,1.808-6.02,3.681
		c-1.027,0.474-1.093,0.727-1.327,5.033c-0.273,4.967-0.946,6.826-3.721,10.221c-1.699,2.065-1.76,2.34-0.579,2.34
		C384.22,355.547,385.46,354.699,386.493,353.659L386.493,353.659z M359.773,350.887c0.233-0.714-1.12-1.221-1.706-0.641
		c-0.247,0.246-0.314,0.674-0.147,0.946C358.307,351.813,359.533,351.607,359.773,350.887z M396.62,341.347
		c0.24-0.714-1.12-1.22-1.7-0.64c-0.253,0.252-0.32,0.68-0.152,0.952C395.153,342.28,396.38,342.073,396.62,341.347z
		 M352.273,315.52c-0.953,0.454-1.447,1.482-2.11,2.27c-0.476,0.323-0.094,0.627,0.18,0.932c1.683,1.811,2.394,4.258,3.192,6.54
		c0.785,2.692,1.773,5.585,0.953,8.391c-0.323,1.075-1.169,2.188-2.432,1.83c-2.02-0.125-4.009-0.661-6.035-0.64
		c-1.803,0.094-3.196,1.734-5.039,1.556c-1.18,0.078-1.129-2.412-2.224-1.746c-0.542,1.298-0.274,2.746-0.34,4.119
		c0.204,0.197,0.777,0.024,1.12,0.083h3.63c0.257,1.253,0.226,2.689,1.125,3.688c1.261,0.447,2.677,0.061,3.875-0.43
		c1.283-0.597,1.455-2.14,1.818-3.343c0.386-1.292,2.077-0.954,3.075-1.461c2.444-0.713,4.046-3.253,3.902-5.751
		c-0.158-3.815-1.613-7.404-2.718-11.014c-0.555-1.59-0.94-3.25-1.584-4.804C352.587,315.606,352.434,315.493,352.273,315.52z
		 M346.227,337.332c1.357-0.088,1.947,1.58,1.66,2.688c-0.508,1.503-2.356,0.54-2.729-0.544
		C344.469,338.508,344.895,337.205,346.227,337.332z"/>
	<path fill="#F7E017" d="M295.96,324.813c-0.607-0.013-1.287,0.214-1.96,0.688c-3.54,2.479-4.447,5.412-2.04,6.56
		c1.767,0.847,1.32,1.84-1.46,3.233c-3.98,1.986-7.493,1.739-14.167-1.021c-1.64-0.68-2.066-0.42-1.686,1.08
		c0.366,1.474,1.713,2.28,5.06,3.04c3.6,0.827,7.953,0.561,10.753-0.646c1.367-0.587,2.987-1.819,4.353-3.307l2.167-2.38l2.52,0.313
		c3.107,0.379,3.167,0.414,3.167,1.899c0,1.18,0.066,1.207,2.92,1.474c1.606,0.153,3.72,0.293,4.706,0.293
		c1.26,0.008,1.974,0.228,2.394,0.813c0.56,0.78,0.893,0.819,5.586,0.399c4.387-0.399,5.247-0.365,7.227,0.308
		c1.407,0.479,2.953,0.673,4.127,0.547c3.36-0.38,7.993-3.127,8.666-5.147c0.08-0.246,1.3-0.68,2.707-0.959
		c3.393-0.681,3.54-1.42,0.373-1.813c-1.373-0.174-3.434-0.674-4.58-1.127c-1.153-0.453-2.727-0.833-3.5-0.833
		c-1.706,0-3.313,1.066-3.313,2.166c0,0.72,0.252,0.794,2.272,0.587c1.9-0.193,2.454-0.087,3.454,0.707
		c0.66,0.521,1.1,1.133,0.96,1.353c-0.447,0.728-4.414,2.533-6.167,2.813c-1.173,0.187-2.12,0.06-3.04-0.413
		c-1.54-0.8-3.807-0.92-4.233-0.232c-0.18,0.299-0.666,0.105-1.334-0.521l-1.039-0.979l-2.354,0.979
		c-2.393,0.993-3.273,0.953-3.273-0.187c0-0.521-0.7-0.58-4.227-0.354c-3.887,0.253-4.293,0.186-5.02-0.627
		c-0.673-0.747-0.687-1.007-0.207-1.773c0.44-0.707,0.44-1.014,0.02-1.434s-0.966-0.413-2.5,0c-3.866,1.034-4.96,0.454-4.96-2.566
		C298.333,325.933,297.293,324.832,295.96,324.813z M295,327.586c0.207,0,0.38,0.127,0.647,0.394c0.34,0.34,0.52,0.933,0.373,1.313
		c-0.347,0.899-1.987,0.866-2.333-0.041c-0.167-0.439,0.046-0.933,0.54-1.293C294.573,327.707,294.793,327.58,295,327.586z"/>
	<path fill="#F7E017" d="M288.067,330.4c2.353-1.493,2.3-1.38,2.64-5.526c0.233-2.927,0.193-3.146-0.6-3.146
		c-1.154,0-1.754,1.266-1.754,3.68c0,1.546-0.24,2.24-1.066,3.061c-1.96,1.96-6.827,1.065-7.44-1.367
		c-0.207-0.833,0.061-1.587,1.08-3.033c2.126-3.02,1.646-3.76-0.96-1.467c-1.794,1.566-2.114,1.613-1.774,0.26
		c0.314-1.247-0.34-1.74-1.8-1.373c-0.746,0.187-1.153,0.653-1.333,1.561c-0.173,0.886-0.58,1.38-1.287,1.553
		c-1.18,0.3-3.193-0.82-3.193-1.773c0-0.707,3.013-4.387,6.88-8.399c1.46-1.521,2.653-2.935,2.653-3.147s-0.78-0.387-1.733-0.387
		c-1.393,0-1.733,0.154-1.733,0.8c0,0.44-1.947,2.994-4.334,5.681c-4.973,5.6-5.386,6.767-2.926,8.26
		c1.98,1.214,4.521,1.119,6.513-0.233l1.613-1.1v1.993c0,2.547,0.507,3.459,2.507,4.52C282.533,332.14,285.573,331.98,288.067,330.4
		z M392.439,295.793c-1.845,1.102-0.4,3.416-0.121,4.953c-0.754,2.097-3.448,2.661-5.412,3.051
		c-2.782,0.461-4.754,2.789-5.813,5.262c-0.574,1.605-1.958,4.096-3.466,1.65c-1.312-1.328-3.722-2.381-5.272-0.83
		c-1.178,1.121-1.477,2.771-1.916,4.269c-0.694-1.151-1.006-2.865-2.479-3.229c-2.353,0.332-1.502,3.297-0.396,4.52
		c1.005,1.425,1.97,3.305,0.984,4.998c-0.868,2.034-3.873,3.406-5.637,1.666c-1.649-0.87-0.546-3.977-2.17-4.146
		c-0.803,0.579-0.869,3.829-2.153,2.067c-0.927-1.506-0.437-3.567-1.569-4.923c-1.341,0.167-2.418,2.475-1.973,3.714
		c1.788,2.412,2.523,5.437,3.221,8.312c0.435,1.15-0.063,3.484,1.014,3.939c0.746-1.852,0.053-3.953,0.64-5.823
		c1.746-0.22,3.687,0.577,5.519,0.154c2.619-0.34,4.643-2.55,5.561-4.904c0.278-1.77-0.053-3.564-0.102-5.344
		c2.069,0.32,4.219,0.313,6.209,0.986c0.986,1.513-0.313,3.632-0.586,5.286c-1.039,3.367-3.678,5.813-6.244,8.064
		c-1.073,0.635-1.217,2.318,0.367,1.412c3.449-1.475,6.021-4.6,7.5-7.98c1.078-2.601,0.211-5.498,0.916-8.157
		c1.041-1.998,3.547-1.577,5.401-1.57c1.92-0.074,3.558-2.31,2.917-4.175c-0.611-2.165,1.68-3.208,3.244-3.981
		c2.074-1.047,3.665-3.173,3.505-5.571C394.042,298.234,394.104,295.906,392.439,295.793L392.439,295.793z M385.086,308.293
		c2.223,0.59-0.402,4.834-1.583,2.146C383.139,309.412,384.003,308.256,385.086,308.293z M374.773,311.332
		c2.892-0.168,1.853,4.055-0.59,2.138C372.916,312.834,373.335,311.254,374.773,311.332z M270.067,327.653
		c0.08-0.42-0.134-0.72-0.514-0.72c-0.806,0-1.293,0.707-0.913,1.319C269.033,328.887,269.9,328.527,270.067,327.653z
		 M303.96,323.866c0-0.62-0.233-0.854-0.753-0.754c-1.134,0.214-1.26,1.654-0.147,1.654
		C303.68,324.767,303.96,324.487,303.96,323.866z M262.02,303.52c-1.353-0.278-2.204,0.867-2.667,1.958
		c-1.011,1.7-2.247,3.44-4.062,4.34c-1.305,0.363-2.729-0.134-3.854-0.807c-1.343-0.669-1.038-2.284-1.614-3.4
		c-0.971-0.763-2.694,0.328-2.655,1.515c-0.108,1.59,1.38,2.51,2.616,3.123c1.05,0.644,2.572,1.002,2.991,2.303
		c-0.029,1.105,0.416,2.372,1.762,1.945c1.507-0.025,1.897,1.81,1.289,2.91c-0.62,1.241-1.038,2.695-0.741,4.077
		c0.72,0.606,1.455-1.02,1.976-1.483l1.063-1.418c2.666,0.145,5.329,0.484,8,0.391c1.901-0.035,3.52-1.208,4.728-2.584
		c1.709-1.787,3.113-3.887,5.065-5.428c1.389-0.34,0.642-2.956-0.809-2.2c-1.307,0.489-1.718,1.967-2.624,2.909
		c-1.543,1.867-3.118,3.764-5.063,5.229c-1.416,0.587-3.047,0.33-4.502,0c-0.607-0.531,1.206-0.964,1.459-1.554
		c0.834-0.834,1.825-1.625,2.309-2.72c-0.463-1.011-1.878-1.093-2.875-1.113c-2.457,0.295-4.334,2.357-6.816,2.552
		c-1.883,0.066-0.903-1.974-0.054-2.67c1.661-1.972,3.456-3.83,5.189-5.738c0.493-0.592,2.273-1.153,1.134-1.985
		C262.868,303.526,262.438,303.526,262.02,303.52z M263.228,313.5c1.24,0.695-0.79,1.836-1.645,1.681
		c-1.122,0.336-1.142-0.808-0.146-1.035c0.56-0.292,1.152-0.596,1.791-0.647V313.5z M259.416,316.103
		c0.705-0.013,2.183,0.665,0.795,1.098C259.245,317.95,258.153,316.439,259.416,316.103z"/>
	<path fill="#F7E017" d="M289.433,317.826c0-0.939-1.686-0.807-1.873,0.146c-0.12,0.613,0.073,0.76,0.86,0.646
		C288.98,318.539,289.433,318.187,289.433,317.826z M364.133,311.213c0.174-0.9-1.08-1.5-1.74-0.84
		c-0.66,0.659-0.053,1.914,0.84,1.739C363.646,312.032,364.053,311.627,364.133,311.213z M247.88,302.06
		c1.173-1.007,1.187-1.073,0.68-3.287c-0.72-3.1-0.673-3.433,0.507-3.726c1.493-0.38,5.286,1.652,6.126,3.279
		c0.653,1.26,0.634,1.347-0.474,2.373c-1.192,1.101-1.187,2.387,0.007,2.387c0.986,0,3.713-2.579,3.713-3.506
		c0-1.287-3.027-4.327-5.42-5.44c-1.48-0.693-2.96-1.013-4.673-1.02c-3.066,0-3.479,0.659-2.654,4.227
		c0.974,4.18-0.346,4.746-3.713,1.593c-2.5-2.34-3.487-4.772-3.473-8.606c0.006-4.113,1.58-6.146,5.126-6.626
		c2.354-0.314,2.294-0.867-0.126-1.228c-3.534-0.533-6.52,1.827-7.654,6.04c-1.26,4.673,1.627,10.367,6.734,13.3
		C245.26,303.353,246.327,303.4,247.88,302.06z M387.107,296.933c0.285-0.286,0.52-0.933,0.52-1.433s0.486-1.573,1.08-2.381
		c0.6-0.807,1.086-1.633,1.086-1.833c0-0.819-1.354-0.794-2.42,0.054c-1.093,0.853-1.913,0.873-1.913,0.04
		c0-0.207,0.521-0.633,1.16-0.947c1.587-0.773,1.72-1.54,0.38-2.153c-1.72-0.779-3.447,0.647-3.627,3
		c-0.113,1.573,0.014,1.848,1.227,2.561c1.107,0.652,1.313,1,1.127,1.933C385.407,297.393,386.08,297.96,387.107,296.933z
		 M400.193,295.452c0.96-0.859,1.74-1.84,1.74-2.165c0-0.327,0.826-1.194,1.84-1.921c2.873-2.066,3.507-4.153,2.22-7.359
		c-0.5-1.26-2.073-3-5.493-6.08c-2.627-2.374-5.047-4.314-5.36-4.314c-0.933,0-0.767,3.435,0.181,3.734
		c1.707,0.546,2.74,1.246,5.427,3.666c3.12,2.82,4.56,5.454,3.772,6.92c-0.752,1.42-1.752,0.98-4.507-1.973
		c-1.446-1.554-2.88-2.82-3.173-2.82c-0.32,0.007-0.547,0.567-0.547,1.353c0,0.987,0.527,1.928,1.954,3.515
		c2.326,2.586,2.553,4.14,0.806,5.513c-0.626,0.493-1.272,0.9-1.433,0.9c-0.153,0-0.667-0.773-1.133-1.713
		c-0.975-1.975-6.927-8.261-7.82-8.261c-0.407,0-0.606,0.507-0.606,1.507c0,1.206,0.239,1.634,1.199,2.127
		c1.18,0.612,4.101,3.553,7.033,7.1c0.84,1.013,1.667,1.833,1.847,1.84C398.313,297.02,399.24,296.313,400.193,295.452
		L400.193,295.452z M406.033,278.74c-0.387-1.247-8.373-9.467-9.193-9.467c-0.427,0-0.56,0.507-0.46,1.814
		c0.113,1.586,0.287,1.859,1.38,2.146c0.68,0.18,2.787,1.834,4.674,3.667c1.879,1.833,3.533,3.228,3.666,3.087
		C406.232,279.853,406.207,279.293,406.033,278.74z M358.333,371.26c0.001,0.601-0.528,1.089-1.185,1.09
		c-0.655,0.002-1.188-0.484-1.189-1.085c0-0.002,0-0.003,0-0.005c-0.002-0.602,0.528-1.09,1.184-1.091
		c0.656-0.002,1.188,0.484,1.19,1.085C358.333,371.256,358.333,371.258,358.333,371.26z M362.527,369.86
		c0.001,0.602-0.529,1.09-1.185,1.091s-1.188-0.484-1.189-1.085c0-0.002,0-0.004,0-0.006c-0.002-0.601,0.528-1.089,1.184-1.091
		c0.655-0.001,1.188,0.484,1.19,1.085C362.527,369.856,362.527,369.858,362.527,369.86z"/>
</g>
</svg>
