<?xml version="1.0" encoding="utf-8"?>
<!-- Generator: Adobe Illustrator 15.0.2, SVG Export Plug-In . SVG Version: 6.00 Build 0)  -->
<!DOCTYPE svg PUBLIC "-//W3C//DTD SVG 1.1//EN" "http://www.w3.org/Graphics/SVG/1.1/DTD/svg11.dtd">
<svg version="1.1" id="Layer_1" xmlns="http://www.w3.org/2000/svg" xmlns:xlink="http://www.w3.org/1999/xlink" x="0px" y="0px"
	 width="640px" height="480px" viewBox="0 0 640 480" enable-background="new 0 0 640 480" xml:space="preserve">
<g>
	<path fill="#000066" d="M0,0h640v480H0V0z"/>
	<path fill="#000066" d="M0,0h400v200H0V0z"/>
	<path fill="#FFFFFF" d="M0,0v27.09l334.411,215.208h42.094v-27.09L42.093,0.002H0V0z M376.505,0v27.089L42.093,242.297H0v-27.089
		L334.411,0H376.505z"/>
	<path fill="#FFFFFF" d="M156.877,0v242.297h62.75V0H156.877z M0,80.766v80.765h376.505V80.766H0z"/>
	<path fill="#CC0000" d="M0,96.919v48.46h376.505v-48.46H0z M169.427,0v242.297h37.65V0H169.427z M0,242.297l125.502-80.767h28.062
		L28.062,242.297H0z M0,0l125.502,80.766H97.439L0,18.06V0z M222.941,80.766L348.443,0h28.062L251.003,80.766H222.941z
		 M376.505,242.296l-125.502-80.766h28.062l97.44,62.707V242.296L376.505,242.296z"/>
	<path fill="#FFFFFF" d="M448.33,179.141c-1.009,0.61-3.028,2.44-5.048,1.83s-6.563-8.542-11.61-7.322
		c-5.05,1.22-8.078,3.051-10.097,3.051c-2.021,0-7.573,1.831-7.573,6.713s0.505,8.543,1.516,8.543c1.01,0,2.523-3.051,2.523-3.051
		s0.505,6.101,4.039,6.101s11.105,0.61,11.609,2.441c0.507,1.83-3.532,6.103-2.522,9.764s5.553,9.763,5.553,9.763
		s-6.563,4.881-6.563,7.933c0,3.053,1.01,6.103,1.01,6.103l-29.28,1.22c0,0-2.02,86.647-1.01,93.36
		c1.01,6.71,3.533,23.186,3.533,23.186s-6.563-2.134-12.116,3.358c-5.553,5.493-24.988,14.948-25.493,19.219
		s-2.271,7.934-0.252,10.983c2.02,3.051,9.124,11.341,7.067,10.985c-6.777-1.17-9.3-10.798-13.882-14.34
		c-4.504-3.476-13.379-2.745-14.388,0.914c-1.01,3.662-0.505,9.763,0,10.983s6.058,20.748,7.572,25.019s17.416,10.677,24.484,10.068
		c13.377,0.304,19.435-5.796,19.939-5.185c0.505,0.608,28.78,29.769,86.83,29.898c45.188,0.1,79.258-29.29,79.258-28.678
		c0,0.608,18.679,6.101,25.241,4.271c6.563-1.834,16.155-6.105,18.174-10.376c2.021-4.271,7.573-26.239,8.078-29.897
		c0.505-3.662,0-7.934-4.544-9.154s-7.067-0.916-9.591,0.304s-3.282,4.58-7.068,10.681c-2.019,1.832-7.32,6.713-5.805,5.491
		c1.516-1.221,4.795-10.372,5.3-13.426c0.505-3.05,2.021-8.542-1.514-11.593s-8.947-4.297-15.146-8.846
		c-5.886-4.035-10.6-10.681-14.135-10.681c-3.534,0-7.572-1.829-7.068-1.829c0.506,0,4.553-8.865,3.543-18.016
		c-1.011-9.155,0.496-96.7-0.009-96.7s-25.241,1.83-25.241,0.61s2.02-9.763,0-15.255c-2.02-5.491-10.602-9.153-8.078-10.373
		c2.524-1.221,13.631-4.271,13.125-9.153c-0.504-4.882-7.571-4.271-10.601-6.102c-3.028-1.83-12.116-10.373-13.126-10.373
		s26.25-16.476,24.232-16.476c-2.02,0-12.62-3.05-16.154-1.22c0-3.051,14.641-12.204,12.116-13.425s-14.136-2.44-11.107-3.05
		c3.03-0.61,4.039-7.934,3.534-7.934s-13.125,1.83-13.125,1.83s-3.029-4.27-4.039-4.27s-5.553,2.439-5.553,2.439l-2.524-6.712
		l-5.553,3.661l-2.524-3.051c0,0-4.543,1.22-4.543,0c0.19-0.044-0.523-3.064-1.236-3.064c-0.715,0-5.712,3.883-5.891,3.667
		c-0.179-0.215-5.712-7.981-5.712-7.766s-3.927,14.67-4.104,14.67s-3.928,0.431-4.105,0.646
		c-0.179,0.217-19.99-11.434-19.811-11.218c0.178,0.216,5.175,11.218,5.175,11.218s-4.283,2.373-4.283,2.591
		c0,0.215,0.714,4.96,0.714,4.96l-13.21-4.53c0,0,4.998,10.139,4.641,10.139c-0.356,0-9.816,0.433-9.638,0.433
		s4.463,8.413,4.463,8.413l-1.606,4.962c0,0,14.217,10.032,13.207,10.644L448.33,179.141z M532.637,391.488
		c1.262,1.83,8.077,10.372,7.067,10.372c-1.011,0-17.92,11.289-24.737,13.426c-6.814,2.135-29.027,6.101-27.765,5.797
		c1.262-0.305,19.946-10.535,27.519-15.414C522.293,400.787,532.636,392.098,532.637,391.488L532.637,391.488z M427.124,391.18
		c-1.01,1.22-5.806,10.68-5.806,10.68s13.883,9.764,24.231,13.425c10.349,3.659,28.019,4.88,27.008,4.575
		c-1.01-0.304-22.212-9.763-28.27-14.643C438.23,400.334,427.376,391.179,427.124,391.18L427.124,391.18z"/>
	<path fill="#FEC500" stroke="#6D6666" stroke-width="1.403" d="M438.211,165.228c0,0,8.835,6.407,10.854,7.933
		c2.019,1.525,8.581,8.237,9.087,7.933c0.504-0.306,4.038-3.661,4.038-3.661s-7.319-7.018-11.863-8.543
		C445.784,167.364,438.211,165.838,438.211,165.228z"/>
	<path fill="#FEC500" stroke="#6D6666" stroke-width="1.403" d="M436.949,158.211c0.758,0,14.641,8.543,18.932,12.813
		c4.291,4.271,6.058,9.764,6.563,9.764s7.067-1.221,6.814-1.221c-0.252,0-3.028-10.983-9.339-14.339
		C453.609,161.872,437.202,158.211,436.949,158.211z"/>
	<path fill="#FEC500" stroke="#6D6666" stroke-width="1.403" d="M502.322,136.139c-0.252,0-2.776,9.153-3.534,11.899
		c-0.757,2.746-2.019,8.542-2.019,8.542s-11.106,1.221-10.602-0.305S503.079,136.139,502.322,136.139z"/>
	<path fill="#FEC500" stroke="#6D6666" stroke-width="1.403" d="M439.474,147.227c0,0,13.125,10.679,17.669,16.78
		c4.543,6.102,9.086,16.78,9.338,16.78c0.253,0,12.369-3.051,12.369-2.746c0,0.306-14.136-17.085-20.95-22.271
		C451.084,150.583,439.726,147.837,439.474,147.227z"/>
	<path fill="#FEC500" stroke="#6D6666" stroke-width="1.403" d="M453.104,144.377c0,0,6.563,12.204,7.825,16.476
		c1.262,4.271,5.048,15.255,5.048,15.255h10.349c0,0-5.048-13.729-10.601-20.441S453.356,144.988,453.104,144.377z"/>
	<path fill="#FEC500" stroke="#6D6666" stroke-width="1.403" d="M456.635,137.664c0.252,0.916,9.592,11.594,11.863,18.611
		c2.271,7.017,4.039,15.865,4.039,15.865l9.086-2.746c0,0-8.077-18.001-13.125-22.883
		C463.449,141.631,457.14,138.275,456.635,137.664z"/>
	<path fill="#FEC500" stroke="#6D6666" stroke-width="1.403" d="M532.107,166.448c0,0-18.931,2.441-25.746,4.577
		c-6.814,2.136-10.601,10.068-10.601,10.068s8.834,3.966,9.339,3.355s5.806-7.017,11.611-9.458
		C522.516,172.551,532.612,166.754,532.107,166.448z"/>
	<path fill="#FEC500" stroke="#6D6666" stroke-width="1.403" d="M531.35,151.498c-0.506,0.306-15.649,15.255-20.445,20.136
		c-4.796,4.882-9.34,10.068-9.844,10.373c-0.506,0.306-9.845-1.524-9.34-2.135s13.883-13.729,22.717-19.526
		S530.592,152.109,531.35,151.498z"/>
	<path fill="#FEC500" stroke="#6D6666" stroke-width="1.403" d="M527.564,140.819c-1.515,2.136-16.407,16.78-20.445,21.967
		c-4.039,5.187-10.602,14.34-10.602,14.34s-7.824-4.271-7.32-6.103c0.505-1.83,11.106-12.509,18.679-18.61
		C515.448,146.31,528.321,141.428,527.564,140.819z"/>
	<path fill="#FEC500" stroke="#6D6666" stroke-width="1.403" d="M512.42,139.598c-0.253,0.305-9.087,11.594-10.854,14.645
		c-1.768,3.051-7.068,16.475-7.068,16.475s-7.824-8.237-7.824-8.542c0-0.306,9.844-12.814,15.649-17.696
		C508.129,139.598,512.672,140.513,512.42,139.598z"/>
	<path fill="#FEC500" stroke="#6D6666" stroke-width="1.497" d="M490.537,156.267c0,2.145-1.438,3.883-3.213,3.883
		c-1.775,0-3.213-1.738-3.213-3.883s1.438-3.884,3.213-3.884C489.099,152.383,490.537,154.122,490.537,156.267z M496.962,161.448
		c0,1.906-1.438,3.451-3.213,3.451s-3.212-1.545-3.212-3.451s1.438-3.452,3.212-3.452S496.962,159.541,496.962,161.448z
		 M482.684,157.562c0,1.906-1.758,3.452-3.927,3.452s-3.927-1.546-3.927-3.452s1.758-3.452,3.927-3.452
		S482.684,155.656,482.684,157.562z"/>
	<path fill="#FEC500" stroke="#6D6666" stroke-width="1.497" d="M493.035,164.683c0,3.693-1.997,6.688-4.461,6.688
		c-2.465,0-4.463-2.994-4.463-6.688s1.998-6.688,4.463-6.688C491.038,157.995,493.035,160.99,493.035,164.683z M480.9,164.898
		c0,2.86-1.998,5.178-4.463,5.178c-2.464,0-4.461-2.317-4.461-5.178c0-2.859,1.997-5.178,4.461-5.178
		C478.902,159.72,480.9,162.038,480.9,164.898z"/>
	<path fill="#FEC500" stroke="#6D6666" stroke-width="1.497" d="M474.83,168.998c0,2.502-1.518,4.53-3.391,4.53
		s-3.391-2.028-3.391-4.53s1.518-4.53,3.391-4.53S474.83,166.496,474.83,168.998z M499.817,168.565c0,2.979-2.317,5.393-5.177,5.393
		c-2.857,0-5.176-2.414-5.176-5.393s2.317-5.394,5.176-5.394C497.5,163.171,499.817,165.586,499.817,168.565z M487.325,160.798
		c0,1.787-1.838,3.235-4.104,3.235c-2.268,0-4.105-1.448-4.105-3.235s1.838-3.236,4.105-3.236
		C485.487,157.562,487.325,159.011,487.325,160.798z"/>
	<path fill="#FEC500" stroke="#6D6666" stroke-width="1.497" d="M488.037,167.918c0,2.622-2.557,4.747-5.711,4.747
		s-5.711-2.125-5.711-4.747c0-2.621,2.557-4.746,5.711-4.746S488.037,165.297,488.037,167.918z M502.672,176.331
		c0,3.217-2.396,5.824-5.354,5.824s-5.354-2.607-5.354-5.824s2.397-5.825,5.354-5.825S502.672,173.115,502.672,176.331z
		 M473.402,174.821c0,2.146-1.357,3.884-3.033,3.884s-3.035-1.738-3.035-3.884c0-2.145,1.359-3.883,3.035-3.883
		S473.402,172.676,473.402,174.821z"/>
	<path fill="#FEC500" stroke="#6D6666" stroke-width="1.497" d="M494.819,174.175c0,2.74-2.078,4.962-4.641,4.962
		c-2.563,0-4.641-2.222-4.641-4.962s2.077-4.962,4.641-4.962C492.741,169.213,494.819,171.435,494.819,174.175z M480.185,173.96
		c0,2.383-1.838,4.314-4.104,4.314c-2.268,0-4.105-1.932-4.105-4.314c0-2.384,1.838-4.314,4.105-4.314
		C478.347,169.646,480.185,171.577,480.185,173.96z"/>
	<path fill="#FEC500" stroke="#6D6666" stroke-width="1.497" d="M487.325,175.251c0,2.621-1.918,4.746-4.283,4.746
		c-2.366,0-4.284-2.125-4.284-4.746s1.918-4.746,4.284-4.746C485.407,170.505,487.325,172.63,487.325,175.251z M468.761,146.775
		c1.071,0,8.567,3.021,8.567,3.021s-9.281,4.314-7.854,3.883s10.353-1.726,9.639-1.726c-0.715,0-7.854,8.197-5.712,7.767
		c2.142-0.432,6.426-5.609,6.782-5.609c0.357,0,4.641,8.198,4.998,7.767c0.356-0.432,0-8.198,0.356-8.198s8.924,5.178,8.21,4.746
		s-5.711-6.472-5.354-6.472c0.357,0,11.78,1.294,11.065,0.862c-0.713-0.431-7.495-4.314-7.495-4.314s4.997-5.608,3.927-5.608
		c-1.071,0-9.281,5.608-8.567,5.177c0.714-0.431,8.924-11.649,8.924-11.649l-8.21,4.746c0,0,1.428-6.903,0.714-6.472
		s-6.426,9.061-6.782,9.061c-0.357,0-1.785-8.629-1.785-8.629s0.357,9.492-1.785,9.924
		C476.257,145.481,468.761,147.206,468.761,146.775z"/>
	<path fill="#00389B" d="M445.509,216.535c0.179,0.863,5.89,16.396,14.636,15.965c8.746-0.433,12.315-3.021,11.959-3.236
		c-0.357-0.216-4.105-2.804-6.248-8.414c-2.142-5.609-2.498-7.982-2.498-7.982L445.509,216.535L445.509,216.535z M476.744,210.495
		c0,0,6.425,15.316,9.279,17.474c2.857,2.158,9.461,3.884,12.316,3.668c2.856-0.216,6.247,0,6.247,0s-2.854-1.51-5.176-9.924
		s-3.034-11.218-3.034-11.218H476.744L476.744,210.495z M516.01,216.104c0,0-1.25,11.218,0,14.023
		c1.25,2.805,7.496,7.981,7.496,7.981s7.496-1.079,7.675-7.981c0.179-6.904-2.499-13.376-2.499-13.376L516.01,216.104z"/>
	<path fill="#005120" stroke="#000000" stroke-width="1.497" d="M439.438,196.473c0,0,0.357,1.726,0,3.021
		c-0.357,1.296-3.391,4.746-3.391,7.551s3.569,11.434,14.457,11.649c10.887,0.216,24.63-7.119,24.451-7.335
		c-0.178-0.215-26.059-21.142-26.414-20.927C448.185,190.649,439.438,196.905,439.438,196.473L439.438,196.473z M511.364,211.359
		c0,0,2.32,7.551,3.213,8.414c0.893,0.862,1.249,2.589,1.428,2.589s14.992,3.883,14.992,3.883s1.428-4.962-0.714-8.846
		c-2.142-3.883-10.173-14.022-10.173-14.022L511.364,211.359L511.364,211.359z M521.539,202.082c0.356,0,3.926,3.667,6.781,1.726
		s7.496-7.119,7.496-7.119s-3.926,1.511-6.782,1.294C526.179,197.768,521.717,202.298,521.539,202.082z"/>
	<path fill="#005120" stroke="#000000" stroke-width="1.497" d="M438.903,197.336c0,0-1.071-3.668-3.927-3.884
		s-8.031,0.432-9.816-1.294c-1.785-1.727-2.32-5.825-3.213-5.609s-3.213,0-3.391,0c-0.179,0-1.07-3.452,1.428-5.178
		c2.499-1.726,4.641-0.216,6.068-1.511c1.428-1.294,3.569-2.157,6.426-2.373c2.855-0.215,7.496,4.315,9.638,5.394
		c2.142,1.079,6.782,2.373,8.566,1.295c1.785-1.079,11.78-5.825,15.35-6.041s11.065-0.431,13.922-0.216
		c2.855,0.216,14.1,1.941,17.491,3.884c3.391,1.941,21.417,9.492,23.916,11.218c2.498,1.727,8.031,4.314,8.031,4.314
		s-9.816,11.65-14.635,13.592c-4.819,1.941-20.169,4.962-29.271,4.314s-16.241-1.726-23.202-6.041
		c-6.963-4.313-14.46-8.413-14.815-10.57c-0.356-2.157-0.179-4.962-0.179-4.962L438.903,197.336L438.903,197.336z"/>
	<path fill="#005120" stroke="#000000" stroke-width="1.497" d="M427.836,183.313c-0.357,0.216-2.142,1.079-1.785,1.511
		c0.357,0.432,1.071,1.726,3.213,1.511c2.143-0.217,4.462-1.727,4.462-1.727S431.049,183.097,427.836,183.313z"/>
	<path stroke="#000000" stroke-width="1.497" d="M427.658,183.744v2.373c0,0,2.498,0.863,2.498,0.216s0.179-2.157-0.356-2.157
		C429.264,184.176,427.836,183.96,427.658,183.744z"/>
	<path fill="#001707" stroke="#000007" stroke-width="1.497" d="M452.642,185.538c0.631-1.373,0-3.203,3.66-5.339
		c3.659-2.136,10.033-1.525,10.033-1.525s-1.83,1.678-1.894,3.432c-0.063,1.755,0.127,2.518,0.127,2.518s-3.471-1.373-6.121-0.534
		S452.705,185.767,452.642,185.538z M469.051,178.064c-0.379,0.229-3.155,3.966-2.84,5.11c0.315,1.144,4.039,3.89,5.238,3.661
		c1.198-0.229,6.688-3.433,7.004-5.034c0.315-1.602,0.567-3.737,0.126-4.195C478.137,177.149,469.113,178.216,469.051,178.064z
		 M481.104,177.453c-0.694,0.839-0.441,4.882-0.189,5.339c0.252,0.458,4.606,5.721,5.553,6.026c0.947,0.305,7.951-0.534,8.52-1.449
		c0.567-0.915,2.271-4.806,1.767-5.721c-0.505-0.916-2.02-2.136-6.688-3.356C485.395,177.073,482.618,177.225,481.104,177.453z
		 M498.959,182.564c1.136,0.687,7.762,4.576,11.674,7.703c3.912,3.128,5.489,6.713,6.625,7.018c1.137,0.305,5.742-3.051,5.932-3.966
		c0.189-0.916-5.615-5.797-9.528-8.009C509.749,183.098,498.959,182.792,498.959,182.564z M497.571,185.844
		c-0.568,0.609,7.067,16.703,8.519,17.237c1.451,0.533,10.159-3.127,10.033-4.348c-0.126-1.22-2.397-3.661-7.761-7.245
		C502.999,187.904,498.646,185.538,497.571,185.844z M488.106,191.716c-1.199,0.839-3.092,15.255-1.894,15.941
		c1.199,0.687,15.965-1.754,16.533-3.355c0.567-1.603-6.059-14.34-8.014-14.34C492.775,189.962,489.242,190.573,488.106,191.716
		L488.106,191.716z M472.836,188.665c-1.578,1.755-1.262,15.179-0.568,16.018c0.694,0.839,9.466,3.585,10.412,2.593
		c0.947-0.991,2.209-16.094,1.325-17.237c-0.884-1.145-3.345-3.89-5.237-4.119C476.874,185.691,473.719,188.131,472.836,188.665z
		 M453.022,188.437c-1.452,1.373-1.515,4.958,0.063,5.568c1.578,0.609,5.49,2.669,9.15,4.576c3.659,1.907,5.742,4.195,6.814,4.118
		c1.073-0.076,2.083-13.5,0.946-14.263c-1.136-0.763-4.48-1.373-7.635-1.221C459.206,187.368,454.6,187.75,453.022,188.437z"/>
	<path fill="#D40F0F" fill-opacity="0.996" d="M387.977,359.2c2.59-2.52,6.615-8.682,12.08-8.962
		c5.467-0.279,11.221,4.762,11.221,4.762s5.752,23.527,5.465,23.527c-0.288,0-9.493,6.723-9.78,6.723
		c-0.288,0-4.028-9.244-7.479-8.404c-3.451,0.841-3.164,13.445-3.739,12.604c-0.575-0.84-15.245-18.206-14.67-18.766
		S388.265,360.043,387.977,359.2L387.977,359.2z M539.866,356.119c1.726-0.279,9.493-6.162,14.958-5.882
		c5.466,0.28,8.63,2.8,11.506,5.321s6.329,8.962,6.329,8.962s-6.904,19.046-7.479,19.046c-0.574,0-3.451,1.682-4.027,0.28
		s-2.301-5.882-5.754-6.442c-3.45-0.56-4.314,6.161-4.314,6.161L539.866,356.119L539.866,356.119z"/>
	<path fill="#FDDC59" fill-opacity="0.996" d="M543.604,362.007c0,1.682,10.644,28.01,27.903,33.05
		c17.259,5.041,22.724-4.762,24.737-8.122c2.013-3.361,9.205-3.08,9.205-3.08s-1.725,24.647-4.604,27.728
		c-2.876,3.08-5.178,9.803-21.285,10.082c-16.107,0.28-30.778-15.123-35.668-19.605c-4.892-4.482-11.22-16.244-13.81-21.567
		C527.496,375.172,543.893,362.568,543.604,362.007L543.604,362.007z M356.048,414.373c0.288,0,7.767,8.123,18.697,7.282
		c10.931-0.839,29.629-7.282,38.258-18.485c8.63-11.201,12.944-23.246,12.944-23.246s-12.656-22.406-12.944-22.406
		s-1.438,7.282-3.74,12.043c-2.301,4.762-8.63,18.205-19.271,22.408c-10.645,4.199-10.645,5.88-14.958,5.32
		c-4.315-0.561-15.533-7.281-15.533-7.563c0-0.28-5.465,13.165-5.465,13.165s-1.151,8.682,2.013,11.483V414.373z"/>
	<path fill="#FDDC59" fill-opacity="0.996" d="M387.782,358.423c-0.814,0-21.154,11.091-20.341,15.844s34.985,72.089,108.207,72.88
		c73.223,0.794,117.975-60.998,114.719-71.296c-3.254-10.298-26.034-22.181-26.034-22.181s5.694,4.753,4.881,11.09
		c-0.813,6.338-26.036,61-89.497,59.416c-63.461-1.585-93.564-49.908-93.564-55.453s3.255-8.715,1.628-10.299L387.782,358.423z"/>
	<path fill="#D40F0F" fill-opacity="0.996" d="M586.171,407.379c1.728-1.399,12.37-30.528,18.41-29.688
		c6.042,0.84,4.028,9.522,3.453,11.764c-0.575,2.239-6.616,22.406-6.616,22.406s0.288-4.762-3.74-5.882
		c-4.025-1.12-10.643,1.961-11.506,1.401L586.171,407.379z M356.048,414.67c0-1.582-4.882-7.129,0.813-8.713
		s13.019,1.584,13.019,1.584s-4.069-11.883-8.95-21.39c-4.882-9.505-6.51-7.92-10.576-6.337c-4.068,1.585-3.971,5.778-1.528,12.115
		C351.265,398.268,356.048,416.256,356.048,414.67L356.048,414.67z"/>
	<path fill="#FDC400" d="M423.176,360.347l7.063-23.923l-19.616-15.038l24.568-0.567l8.012-23.607l8.123,23.567l24.566,0.455
		l-19.549,15.13l7.17,23.887l-20.201-14.216L423.176,360.347z"/>
	<path fill="#FFFFFF" d="M555.637,235.833v92.04c0.18,44.982-45.688,84.373-76.146,92.039
		c-30.461-7.666-76.328-47.057-76.147-92.035v-92.04h152.294V235.833z"/>
	<path fill="#D40F0F" fill-opacity="0.996" stroke="#000000" stroke-width="1.497" d="M403.34,235.834l0.129,57.588
		c0,0,0.732-1.178,10.749-0.46s10.878,12.695,21.757,12.695c10.877,0,10.877-12.695,21.756-12.695
		c10.877,0,10.877,12.695,21.756,12.695c10.877,0,10.877-12.695,21.756-12.695c10.877,0,10.877,12.695,22.371,13.421
		c10.262-0.726,10.262-13.421,21.201-14.139l10.816,0.718v-57.129L403.34,235.834L403.34,235.834z"/>
	<path fill="#0062BB" fill-opacity="0.996" d="M403.34,312.006v19.043h10.879c10.016,0.718,10.878,12.695,21.756,12.695
		c10.879,0,10.879-12.695,21.756-12.695c10.879,0,10.879,12.695,21.758,12.695s10.878-12.695,21.756-12.695
		s10.263,11.969,21.756,12.695c10.263-0.727,10.816-11.978,21.757-12.695h10.878v-19.043h-10.878
		c-10.879,0-10.879,12.694-21.757,12.694s-10.878-12.694-21.756-12.694s-10.878,12.693-21.756,12.693
		c-10.879,0-10.879-12.695-21.758-12.695c-10.877,0-10.877,12.695-21.756,12.695c-10.878,0-10.878-12.695-21.756-12.695H403.34
		V312.006z M406.623,350.088l7.596,19.043c10.018,0.718,10.878,12.694,21.758,12.694c10.877,0,10.877-12.694,21.756-12.694
		c10.878,0,10.877,12.694,21.756,12.694c10.878,0,10.879-12.694,21.757-12.694s10.263,11.97,21.756,12.694
		c10.263-0.726,10.563-11.977,21.504-12.694l7.851-19.338l-7.599,0.295c-10.878,0-10.878,12.694-21.756,12.695
		c-10.878,0-10.878-12.695-21.756-12.695s-10.878,12.694-21.757,12.694s-10.879-12.694-21.756-12.694
		c-10.879,0-10.879,12.694-21.756,12.694c-10.879,0-10.879-12.694-21.758-12.694H406.623z M479.49,419.91
		c10.879,0,35.803-19.043,35.548-19.043c0.253,0-2.914-12.694-13.792-12.694s-10.878,12.694-21.757,12.694
		c-10.878,0-10.878-12.694-21.757-12.694c-10.877,0-13.654,12.694-13.68,12.694c-0.504,0,24.559,19.043,35.436,19.043H479.49z"/>
	<path fill="#FDC400" fill-opacity="0.996" stroke="#000000" stroke-width="0.701" d="M423.253,279.778
		c1.233,0,12.337,1.609,20.354,1.073c8.019-0.536,11.104-3.221,11.104-3.757v-1.609h10.485c0,0,1.851,7.513,0.617,8.049
		s-4.318,2.684-4.936,2.684c-0.616,0,0-3.757-1.233-2.684s-1.85,2.684-1.85,2.684s-1.234-1.61-1.851-1.61s-1.851,1.61-1.851,1.61
		s0-1.61-0.617-1.61s-3.701,2.684-3.701,2.684l-3.083-2.147c0,0-1.852,2.684-2.469,2.684c-0.616,0-4.316-2.146-4.316-2.146
		l-6.169,3.219c0,0,0-4.83-1.233-4.293c-1.233,0.536-8.019,0.536-8.019,0.536s-1.852,3.221-2.469,3.221
		c-0.616,0-3.083-2.683-2.467-2.683c0.617,0,1.851-1.611,1.234-2.147c-0.615-0.536-3.701,0-3.701-0.536
		c0-0.537-1.232-3.758-0.616-3.758s3.083,0.538,3.083,0.538v-3.221h3.084L423.253,279.778z"/>
	<path fill="#FDC400" fill-opacity="0.996" stroke="#000000" stroke-width="0.701" d="M434.355,249.187
		c-0.617,0-4.936,4.294-4.318,9.122c0.616,4.83,11.104,11.807,11.104,11.807s5.552-2.146,7.402,0c1.85,2.146,1.85,8.585,1.232,8.585
		c-0.616,0-8.019,1.611-8.019,0.535c0-1.071,0-2.145-0.616-2.145c-0.617,0-7.402,0.535-7.402,0.535l0.617-2.145l-6.167-1.073
		l2.467-2.147c0,0-9.87-3.755-9.254-3.755s4.318-2.146,4.318-2.146l-7.401-4.296h4.318c0,0-6.169-4.292-5.553-4.292
		c0.615,0,3.701,0.535,3.701,0.535l-1.851-4.291h1.851l-1.851-3.221l3.083-1.073l1.852,2.683l-0.616-6.439l4.317,0.538v5.365
		c0,0,1.85-3.219,1.85-3.756C429.42,247.576,434.972,250.259,434.355,249.187L434.355,249.187z"/>
	<path fill-opacity="0.996" d="M529.965,282.453c-0.771,0.671-3.085,2.146-3.085,2.146s5.244-0.402,5.09-0.402
		C531.816,284.197,530.12,282.855,529.965,282.453z M534.436,284.998c-0.307,0.402-1.232,4.562-0.615,4.293
		c0.615-0.269,3.082-3.354,3.082-3.354L534.436,284.998z M541.52,285.533c0.77,0.671,4.316,3.756,3.854,3.084
		c-0.462-0.67-0.925-3.487-1.232-3.619C543.83,284.863,541.826,285.801,541.52,285.533z M479.384,281.108
		c-0.462,0.135-4.317,2.685-4.317,2.685s6.478-1.074,6.168-1.074C480.927,282.718,479.23,281.512,479.384,281.108z M483.391,284.333
		c-0.617,0.536-2.621,4.292-1.851,4.158c0.772-0.135,4.164-2.55,4.164-2.55L483.391,284.333L483.391,284.333z M480.915,279.098
		c-0.462-0.134-3.702-1.476-3.547-1.476s4.317-0.939,4.317-0.939L480.915,279.098z M419.857,277.362l-4.625-3.22l5.859,1.61
		L419.857,277.362z M415.85,279.503c-0.617,0-6.478,3.219-6.324,3.219c0.154,0,8.174,0.134,8.02,0
		C417.391,282.589,416.157,279.772,415.85,279.503L415.85,279.503z M419.549,284.201c-0.617,0.271-5.243,3.354-4.935,3.354
		s6.939,0.134,6.939,0S419.703,284.336,419.549,284.201z M418.932,250.792c0,0-1.695-3.756-1.541-3.756
		c0.153,0,4.317,2.95,4.317,2.95L418.932,250.792z M423.559,246.096c0-0.134,0.463-2.414,0.463-2.414s4.162,2.817,4.009,2.817
		C427.876,246.499,423.866,246.499,423.559,246.096z M430.035,247.84c0-0.134,0.463-3.488,0.463-3.488s3.855,4.563,3.547,4.696
		S430.344,248.378,430.035,247.84z"/>
	<path fill="#FDC400" fill-opacity="0.996" stroke="#000000" stroke-width="0.701" d="M491.868,271.314
		c0,0.269,6.477,4.83,6.631,5.902c0.153,1.073-11.72,1.343-11.72,1.343s-3.393-2.281-4.472-2.147
		c-1.081,0.134-1.543,2.415-1.543,2.415l2.776,1.342l-5.243,0.268l1.543,2.549l4.009-0.269l-0.926,2.415
		c0,0,2.467,1.611,2.931,1.342c0.462-0.268,2.005-2.683,3.238-3.086c1.233-0.402,3.854-0.402,3.854-0.402s-2.005,2.952-1.078,2.952
		c0.924,0,5.088-3.086,5.088-3.086s0.926,2.816,1.078,2.816c0.155,0,3.086-3.219,3.086-3.219s0,2.55,0.462,2.55
		s4.78-3.221,4.78-3.221s3.393,3.757,3.855,3.488c0.463-0.268,0.926-4.024,1.388-4.024s3.393-0.402,3.393-0.537
		s-1.851-1.477-2.159-3.354c-0.308-1.878,0.309-6.305,0.154-6.305S492.176,271.715,491.868,271.314L491.868,271.314z"/>
	<path fill="#FDC400" fill-opacity="0.996" stroke="#000000" stroke-width="0.701" d="M459.022,263.142h60.449
		c6.169,0,11.719-2.146,11.719-5.367c0-3.219-9.868-3.755-13.569-2.682c-3.701,1.072-19.738,7.512-26.523,6.976
		s-12.953-4.294-13.569-8.049c-0.618-3.757,3.083-6.977,9.868-6.977c6.786,0,15.421,2.146,17.271,1.609
		c1.85-0.536,6.168-4.829,8.019-5.365c1.851-0.537,7.401-1.074,7.401-1.074l-2.467,1.61l8.02-1.61c0,0-6.169,5.903-12.338,7.513
		c-6.168,1.611-19.12,1.073-24.056,1.073c-4.935,0-7.401-0.535-6.785,2.684c0.616,3.22,4.318,5.367,7.401,4.829
		c3.086-0.537,12.338-3.219,12.338-3.219l-2.469-1.61l11.104-0.536c0,0-0.616-1.609,0-1.609c0.617,0,6.169,0.535,6.169,0.535
		s-3.702-1.609-3.085-1.609s3.085,0,8.019,0.537c4.935,0.535,15.421,2.146,14.804,6.438c-0.616,4.294-4.316,8.049-8.635,8.049
		s-8.02-1.072-8.02,0.538c0,1.609,4.936,2.683,8.02,2.683c3.083,0,6.785-2.146,7.401-2.146c0.617,0,1.851,3.22,2.467,3.22
		c0.617,0,4.318-1.073,4.318-1.073l-2.467,5.903l4.317,1.073c0,0-2.467,2.146-1.851,2.146c0.617,0,4.317,0,4.317,0.537
		c0,0.536-4.934,3.757-4.934,4.293s3.7,2.146,3.7,2.146s-2.467,3.22-3.084,2.684c-0.616-0.536-3.085-3.221-3.085-3.221
		s-0.616,2.147-1.85,2.147s-3.7-0.536-3.7-0.536s1.85-3.221,1.233-3.221c-0.617,0-3.702,2.146-3.702,1.609l-1.849-1.613
		c0,0,4.934-1.744,4.934-4.293s-2.004-5.098-10.947-5.5c-8.944-0.403-9.1,1.877-15.73,1.609c-6.63-0.269-6.63-2.55-11.565-2.55
		c-4.934,0-20.201,5.367-27.294,5.232c-7.093-0.133-16.037-0.536-15.729-0.804C453.317,275.882,458.869,263.539,459.022,263.142
		L459.022,263.142z"/>
	<path fill="#FDC400" fill-opacity="0.996" stroke="#000000" stroke-width="0.701" d="M447.308,260.053
		c-0.616,0.27-6.015,0.94-6.323,5.903c-0.308,4.964,0.464,4.964,1.08,4.695c0.617-0.268,1.851-4.561,1.851-4.561
		s-1.851,5.902,0.154,7.244c1.257,0.826,2.664,1.461,4.164,1.878l0.77-4.696c0,0-1.541,4.563,2.159,6.172
		c3.702,1.61,5.09,0.402,4.781-0.805c-0.309-1.208-1.389-4.292-1.389-4.292s2.931,2.816,3.085,3.084
		c0.153,0.27,1.541,2.415,5.243,1.477c3.7-0.939,1.079-3.086,1.079-3.086l-4.472-3.211c0,0,4.626,4.157,6.631,2.683
		c2.004-1.476-1.543-4.696-1.389-4.562c0.155,0.135,2.931,4.562,4.01,1.744s-1.695-3.622-2.621-6.305
		c-0.926-2.685-1.697-2.952-0.771-4.563c0.926-1.609,1.08-4.694,1.08-4.694s3.855,0.804,3.546-2.013
		c-0.308-2.817-4.164-3.488-4.934-3.623c-0.771-0.134-0.618-2.95-0.926-2.816c-0.31,0.134-2.776,1.743-2.776,1.743
		s-2.159-4.428-2.621-4.158c-0.462,0.269-2.931,2.549-4.78,2.683c-1.851,0.134-2.931,2.415-2.931,2.415s-6.477-2.683-6.322,1.743
		c0.155,4.429,3.855,3.355,3.855,3.488s-0.617,6.172-1.233,6.439V260.053z"/>
	<path fill-opacity="0.996" d="M450.874,253.257c0.742-0.228,1.833-1.174,3.098-1.061c1.266,0.114,3.291,1.085,2.288,1.615
		c-1.005,0.53-1.745,0.758-2.88,0.491C452.247,254.036,451.375,253.466,450.874,253.257z M463.452,253.123
		c-0.742-0.228-1.833-1.176-3.099-1.061c-1.265,0.115-3.289,1.085-2.287,1.615c1.005,0.53,1.746,0.757,2.881,0.49
		C462.079,253.902,462.951,253.332,463.452,253.123L463.452,253.123z"/>
	<path fill="#000039" fill-opacity="0.996" stroke="#000000" stroke-width="0.421" d="M453.684,261.044
		c0.154,0.671,0.617,6.307,0.924,5.902c0.31-0.401,2.623-5.769,2.469-5.769S453.838,261.313,453.684,261.044z"/>
	<path fill="none" stroke="#000000" stroke-width="0.842" d="M452.138,261.234c0.074-1.586,1.233-1.475,3.702-1.207
		c2.467,0.269,3.7,1.342,3.546,1.61c-0.153,0.268-2.158,0.938-3.854,0.805C453.526,261.905,452.082,262.558,452.138,261.234z"/>
	<path fill="none" stroke="#000000" stroke-width="1.497" d="M455.844,257.2l-0.309,2.549 M466.183,250.365
		c0,0,2.005,0.805,1.697,1.609c-0.31,0.806-1.697,1.207-1.697,1.207 M449.377,249.695c-0.462,0.134-1.078,0.401-1.388,1.475
		c-0.308,1.074,1.388,1.745,1.388,1.745"/>
	<path fill="none" stroke="#000000" stroke-width="1.497" d="M454.201,255.31c0,0-2.182,1.898,1.526,1.898s1.091-1.708,1.091-1.708"
		/>
	<path fill="#FDC400" d="M462.348,403.76l6.41-21.063l-17.8-13.24l22.293-0.498l7.271-20.783l7.371,20.75l22.293,0.399
		l-17.739,13.32l6.506,21.03l-18.33-12.516L462.348,403.76z"/>
	<path fill="#003017" fill-opacity="0.996" d="M465.383,398.115l5.34-16.729l-14.832-10.519l18.577-0.396l6.061-16.51l6.141,16.481
		l18.578,0.318l-14.783,10.582l5.421,16.704l-15.275-9.941L465.383,398.115z"/>
	<path fill="#FDC400" d="M425.661,361.105l6.34-19.917l-17.606-12.52l22.052-0.473l7.192-19.654l7.291,19.621l22.053,0.379
		l-17.547,12.597l6.435,19.887l-18.132-11.836L425.661,361.105z"/>
	<path fill="#003017" fill-opacity="0.996" d="M428.673,355.764l5.283-15.822l-14.673-9.945l18.377-0.375l5.994-15.613l6.076,15.588
		l18.377,0.3l-14.623,10.007l5.362,15.798l-15.109-9.403L428.673,355.764z"/>
	<path fill="#FDC400" d="M499.57,361.105l6.423-19.917l-17.835-12.52l22.337-0.473l7.285-19.654l7.385,19.621l22.337,0.379
		l-17.773,12.597l6.518,19.887l-18.366-11.836L499.57,361.105z"/>
	<path fill="#003017" fill-opacity="0.996" d="M502.618,355.764l5.352-15.822l-14.862-9.945l18.614-0.375l6.07-15.613l6.154,15.588
		l18.614,0.3l-14.812,10.007l5.431,15.798l-15.304-9.403L502.618,355.764z"/>
	<path fill="none" d="M373.271,372.554c8.026,34.543,41.902,60.18,87.528,66.243c58.605,7.787,114.515-21.906,124.795-66.277"/>
	<path d="M373.128,377.899l11.006-6.218l1.036,2.263l-4.316,2.439l1.429,3.119l4.315-2.438l1.036,2.264l-11.006,6.217l-1.036-2.263
		l4.988-2.817l-1.428-3.121l-4.988,2.818L373.128,377.899 M377.734,387.529l10.276-7.606l3.517,5.865l-1.709,1.264l-2.25-3.752
		l-2.375,1.759l2.095,3.492l-1.628,1.204l-2.094-3.491l-2.829,2.094l2.303,3.84l-1.735,1.285L377.734,387.529 M384.895,398.573
		l9.065-9.314l1.552,1.862l-3.555,3.654l2.139,2.57l3.555-3.653l1.553,1.864l-9.065,9.314l-1.551-1.863l4.108-4.223l-2.141-2.57
		l-4.107,4.223l-1.551-1.864 M396.732,404.09l1.471,1.434l2.674-5.05L396.732,404.09 M390.982,405.81l10.232-8.277l2.321,2.261
		l-6.031,12.373l-1.862-1.815l1.588-3.039l-1.99-1.938l-2.491,2.157L390.982,405.81 M399.912,414.105l6.097-9.238l-2.134-1.739
		l1.205-1.824l6.122,4.99l-1.204,1.824l-2.134-1.74l-6.097,9.24L399.912,414.105 M404.919,418.108l6.433-11.71l1.949,1.322
		l-2.521,4.593l2.689,1.824l2.522-4.594l1.95,1.323l-6.433,11.71l-1.95-1.322l2.916-5.308l-2.69-1.824l-2.915,5.309L404.919,418.108
		 M417.009,425.76l5.19-12.448l5.857,3.014l-0.85,2.037l-3.768-1.94l-1.228,2.943l3.558,1.83l-0.83,1.99l-3.557-1.832l-2.285,5.48
		L417.009,425.76 M428.463,423.869c-0.721,2.11-1.064,3.486-1.033,4.128c0.039,0.641,0.358,1.085,0.958,1.339
		c0.591,0.248,1.083,0.151,1.48-0.291c0.403-0.445,0.97-1.734,1.698-3.867c0.728-2.133,1.074-3.517,1.041-4.153
		c-0.034-0.637-0.349-1.08-0.943-1.332c-0.594-0.25-1.095-0.149-1.5,0.301C429.758,420.446,429.191,421.737,428.463,423.869
		 M426.266,422.943c0.465-1.36,0.894-2.421,1.285-3.183c0.395-0.769,0.783-1.307,1.169-1.613c0.533-0.442,1.076-0.69,1.626-0.744
		c0.551-0.054,1.204,0.08,1.965,0.4c0.76,0.319,1.33,0.703,1.709,1.148c0.38,0.446,0.64,1.032,0.779,1.758
		c0.101,0.526,0.067,1.217-0.1,2.074c-0.162,0.859-0.475,1.966-0.938,3.32c-0.46,1.35-0.888,2.408-1.281,3.176
		c-0.393,0.762-0.78,1.304-1.164,1.625c-0.539,0.439-1.084,0.686-1.633,0.74c-0.551,0.054-1.205-0.08-1.966-0.4
		c-0.76-0.32-1.329-0.703-1.708-1.148c-0.38-0.446-0.637-1.03-0.772-1.756c-0.105-0.514-0.076-1.199,0.086-2.06
		C425.487,425.415,425.801,424.303,426.266,422.943 M436.886,420.029l2.205,0.729l-2.375,8.862
		c-0.271,1.015-0.345,1.739-0.223,2.177c0.13,0.433,0.478,0.743,1.047,0.932c0.563,0.186,1.002,0.133,1.315-0.16
		c0.316-0.291,0.613-0.952,0.89-1.982l2.366-8.828l2.175,0.72l-2.433,9.075c-0.236,0.883-0.455,1.514-0.657,1.893
		c-0.179,0.354-0.428,0.667-0.732,0.92c-0.44,0.355-0.976,0.573-1.539,0.625c-0.584,0.055-1.233-0.037-1.95-0.273
		c-1.354-0.448-2.222-1.088-2.605-1.922c-0.378-0.838-0.35-2.067,0.085-3.69L436.886,420.029 M442.792,436.206l2.696-13.388
		l2.308,0.574l1.252,10.143l1.823-9.379l2.12,0.528l-2.696,13.387l-2.292-0.569l-1.272-10.166l-1.826,9.396L442.792,436.206
		 M454.862,436.889l1.006,0.175c0.512,0.09,0.877,0.11,1.094,0.063c0.217-0.045,0.411-0.164,0.552-0.337
		c0.26-0.314,0.479-0.77,0.654-1.364c0.177-0.601,0.36-1.575,0.55-2.926c0.186-1.313,0.268-2.279,0.246-2.896
		c-0.021-0.617-0.137-1.101-0.347-1.45c-0.114-0.178-0.277-0.319-0.471-0.406c-0.197-0.1-0.518-0.189-0.961-0.266l-0.975-0.17
		L454.862,436.889 M452.354,438.498l1.91-13.554l3.652,0.636c0.745,0.131,1.326,0.303,1.745,0.521
		c0.424,0.218,0.756,0.51,0.996,0.877c0.362,0.538,0.58,1.177,0.655,1.917c0.08,0.734,0.015,1.848-0.195,3.338
		c-0.27,1.925-0.523,3.275-0.757,4.053c-0.233,0.771-0.535,1.41-0.904,1.916c-0.358,0.51-0.804,0.831-1.337,0.967
		c-0.527,0.131-1.405,0.09-2.636-0.125L452.354,438.498 M461.904,440.069l1.188-13.655l6.313,0.677l-0.197,2.271l-4.038-0.433
		l-0.274,3.156l3.76,0.403l-0.189,2.164l-3.759-0.404l-0.326,3.761l4.134,0.443l-0.201,2.305L461.904,440.069 M472.335,438.963
		l1.019,0.041c0.518,0.021,0.882-0.006,1.093-0.08c0.211-0.075,0.392-0.219,0.511-0.408c0.225-0.348,0.393-0.828,0.504-1.441
		c0.111-0.62,0.189-1.611,0.233-2.978c0.043-1.329,0.021-2.3-0.066-2.908c-0.087-0.61-0.254-1.074-0.5-1.394
		c-0.132-0.162-0.311-0.28-0.511-0.341c-0.206-0.073-0.534-0.12-0.982-0.138l-0.985-0.04L472.335,438.963 M470.018,440.895
		l0.444-13.71l3.694,0.147c0.753,0.03,1.35,0.125,1.788,0.285c0.444,0.16,0.805,0.407,1.083,0.739
		c0.418,0.486,0.703,1.092,0.855,1.817c0.159,0.72,0.213,1.832,0.165,3.34c-0.063,1.947-0.17,3.322-0.319,4.124
		c-0.147,0.796-0.379,1.47-0.69,2.022c-0.301,0.553-0.71,0.932-1.224,1.137c-0.51,0.199-1.387,0.274-2.631,0.225L470.018,440.895
		 M483.772,441.074l-0.49-13.71l2.3-0.1l0.49,13.708L483.772,441.074 M489.913,440.713l-0.844-11.418l-2.638,0.24l-0.166-2.255
		l7.567-0.69l0.167,2.256l-2.637,0.24l0.844,11.418L489.913,440.713 M498.014,426.004l2.268-0.438l1.425,9.11
		c0.163,1.041,0.387,1.728,0.672,2.059c0.29,0.324,0.726,0.43,1.31,0.316c0.58-0.112,0.951-0.377,1.115-0.793
		c0.168-0.42,0.168-1.157,0.002-2.217l-1.42-9.076l2.236-0.431l1.46,9.33c0.142,0.906,0.198,1.58,0.169,2.021
		c-0.025,0.432-0.12,0.826-0.287,1.185c-0.25,0.534-0.64,0.99-1.128,1.321c-0.5,0.338-1.12,0.578-1.856,0.72
		c-1.39,0.269-2.424,0.125-3.103-0.431c-0.674-0.563-1.142-1.68-1.403-3.346L498.014,426.004 M510.298,429.483l0.936-0.253
		c0.696-0.188,1.15-0.47,1.366-0.847c0.213-0.381,0.239-0.939,0.08-1.672c-0.164-0.738-0.405-1.215-0.727-1.427
		c-0.318-0.22-0.838-0.231-1.561-0.036l-0.965,0.262L510.298,429.483 M509.784,437.563l-2.922-13.33l3.88-1.05
		c1.183-0.32,2.1-0.257,2.748,0.19c0.648,0.448,1.119,1.342,1.412,2.681c0.289,1.315,0.226,2.372-0.188,3.169
		c-0.409,0.79-1.184,1.338-2.321,1.646l-1.627,0.44l1.238,5.652L509.784,437.563 M518.602,427.903
		c0.613,2.151,1.112,3.468,1.498,3.95c0.387,0.473,0.887,0.603,1.498,0.387c0.601-0.212,0.934-0.628,0.998-1.249
		c0.066-0.628-0.211-2.029-0.83-4.203c-0.621-2.174-1.123-3.498-1.505-3.974c-0.383-0.476-0.877-0.606-1.483-0.394
		c-0.606,0.214-0.942,0.638-1.008,1.271C517.703,424.325,517.98,425.729,518.602,427.903 M516.362,428.693
		c-0.396-1.388-0.653-2.515-0.772-3.383c-0.12-0.873-0.115-1.563,0.016-2.07c0.171-0.715,0.457-1.282,0.858-1.705
		c0.401-0.422,0.989-0.77,1.763-1.042c0.775-0.272,1.436-0.365,1.982-0.277c0.546,0.088,1.078,0.367,1.594,0.84
		c0.372,0.343,0.733,0.906,1.08,1.693c0.354,0.785,0.728,1.869,1.122,3.25c0.392,1.377,0.649,2.5,0.771,3.375
		c0.117,0.867,0.117,1.56-0.006,2.075c-0.177,0.718-0.465,1.286-0.866,1.707c-0.4,0.422-0.989,0.771-1.763,1.042
		c-0.775,0.273-1.436,0.366-1.982,0.278c-0.546-0.088-1.075-0.369-1.586-0.843c-0.37-0.33-0.73-0.89-1.084-1.674
		C517.134,431.168,516.758,430.078,516.362,428.693 M527.648,431.827l-4.594-12.734l2.195-0.978l6.197,7.576l-3.273-8.88
		l2.018-0.897l4.594,12.734l-2.18,0.972l-6.227-7.584l3.279,8.896L527.648,431.827 M541.948,424.804l-4.816-10.13l-2.34,1.373
		l-0.951-2l6.714-3.941l0.95,2l-2.339,1.374l4.817,10.13L541.948,424.804 M547.385,421.564l-6.594-11.601l1.932-1.355l2.586,4.55
		l2.664-1.87l-2.586-4.55l1.933-1.354l6.593,11.6l-1.932,1.355l-2.988-5.258l-2.664,1.87l2.988,5.257L547.385,421.564
		 M555.62,415.631l-7.44-10.947l5.06-4.247l1.237,1.819l-3.237,2.717l1.72,2.531l3.014-2.529l1.181,1.734l-3.015,2.529l2.049,3.014
		l3.314-2.78l1.256,1.848L555.62,415.631 M561.973,403.859l1.641-1.792l0.557,0.63c0.532,0.601,0.962,0.939,1.29,1.015
		c0.328,0.065,0.658-0.082,0.99-0.444c0.347-0.38,0.524-0.765,0.53-1.154c0.011-0.395-0.152-0.782-0.49-1.164
		c-0.258-0.293-0.542-0.474-0.852-0.544c-0.313-0.074-0.824-0.048-1.537,0.08l-1.424,0.257c-1.221,0.231-2.09,0.273-2.61,0.125
		c-0.517-0.151-1.019-0.503-1.505-1.054c-0.727-0.822-1.077-1.705-1.051-2.65c0.026-0.943,0.424-1.837,1.194-2.678
		c0.815-0.89,1.66-1.325,2.534-1.304c0.874,0.021,1.72,0.495,2.54,1.423c0.082,0.093,0.144,0.167,0.185,0.222
		c0.045,0.052,0.082,0.099,0.112,0.141l-1.556,1.698l-0.229-0.261c-0.469-0.53-0.882-0.823-1.239-0.882
		c-0.36-0.059-0.719,0.109-1.076,0.5c-0.264,0.287-0.395,0.602-0.394,0.941c0,0.332,0.136,0.649,0.406,0.955
		c0.362,0.41,1.103,0.498,2.22,0.261c0.01-0.003,0.02-0.005,0.029-0.005l1.505-0.308c1.063-0.229,1.897-0.257,2.5-0.083
		c0.6,0.17,1.188,0.58,1.765,1.233c0.787,0.89,1.165,1.826,1.135,2.808c-0.029,0.983-0.471,1.938-1.32,2.866
		c-0.885,0.966-1.77,1.433-2.653,1.397c-0.88-0.037-1.782-0.577-2.703-1.619c-0.098-0.11-0.251-0.301-0.46-0.571L561.973,403.859
		 M571.526,400.006l-9.464-8.812l4.074-5.401l1.572,1.466l-2.605,3.454l2.188,2.037l2.426-3.217l1.5,1.397l-2.426,3.216l2.605,2.426
		l2.668-3.537l1.598,1.487L571.526,400.006 M573.93,387.724l1.094-1.804l-4.848-2.307L573.93,387.724 M576.194,393.844
		l-8.688-10.229l1.726-2.844l11.809,5.078l-1.384,2.284l-2.914-1.365l-1.479,2.438l2.242,2.474L576.194,393.844 M577.659,382.688
		l1.051-2.275l0.707,0.403c0.675,0.385,1.179,0.556,1.511,0.512c0.33-0.052,0.603-0.307,0.815-0.767
		c0.222-0.48,0.28-0.908,0.177-1.28c-0.102-0.38-0.365-0.69-0.794-0.935c-0.328-0.188-0.649-0.26-0.963-0.219
		c-0.317,0.039-0.797,0.243-1.437,0.612l-1.279,0.742c-1.092,0.646-1.906,0.99-2.442,1.03c-0.532,0.037-1.108-0.121-1.727-0.475
		c-0.922-0.525-1.505-1.242-1.747-2.147c-0.242-0.906-0.117-1.894,0.376-2.96c0.522-1.131,1.201-1.84,2.036-2.124
		s1.772-0.13,2.813,0.464c0.105,0.06,0.185,0.109,0.239,0.146c0.057,0.032,0.105,0.063,0.146,0.094l-0.996,2.154l-0.293-0.166
		c-0.594-0.34-1.07-0.474-1.428-0.403c-0.355,0.069-0.649,0.354-0.88,0.85c-0.168,0.365-0.202,0.708-0.105,1.031
		c0.095,0.315,0.313,0.569,0.655,0.765c0.461,0.264,1.189,0.087,2.183-0.527c0.007-0.008,0.016-0.013,0.024-0.017l1.342-0.815
		c0.945-0.59,1.729-0.907,2.351-0.953c0.618-0.049,1.293,0.137,2.024,0.554c1,0.57,1.623,1.327,1.871,2.271
		c0.25,0.942,0.103,2.004-0.442,3.182c-0.566,1.226-1.274,1.977-2.123,2.254c-0.847,0.271-1.854,0.073-3.024-0.594
		c-0.203-0.121-0.402-0.249-0.599-0.383L577.659,382.688"/>
</g>
</svg>
