<?xml version="1.0" encoding="utf-8"?>
<!-- Generator: Adobe Illustrator 15.0.2, SVG Export Plug-In . SVG Version: 6.00 Build 0)  -->
<!DOCTYPE svg PUBLIC "-//W3C//DTD SVG 1.1//EN" "http://www.w3.org/Graphics/SVG/1.1/DTD/svg11.dtd">
<svg version="1.1" id="Layer_1" xmlns="http://www.w3.org/2000/svg" xmlns:xlink="http://www.w3.org/1999/xlink" x="0px" y="0px"
	 width="640px" height="480px" viewBox="0 0 640 480" enable-background="new 0 0 640 480" xml:space="preserve">
<g>
	<defs>
		<rect id="SVGID_1_" x="-0.209" y="0" width="641.709" height="481.279"/>
	</defs>
	<clipPath id="SVGID_2_">
		<use xlink:href="#SVGID_1_"  overflow="visible"/>
	</clipPath>
	<path clip-path="url(#SVGID_2_)" fill="#108C00" d="M-163.074,0h965.85V481.28h-965.851L-163.074,0z"/>
	<path clip-path="url(#SVGID_2_)" fill="#FFD600" d="M-164.7,167.47h970.644v47.152H-164.7V167.47z"/>
	<path clip-path="url(#SVGID_2_)" fill="#FFD600" d="M249.915,0h45.526V481.28h-45.526V0z"/>
	<path clip-path="url(#SVGID_2_)" d="M293.813,0h45.526V481.28h-45.526V0z"/>
	<path clip-path="url(#SVGID_2_)" d="M-164.7,212.994h970.644v47.152H-164.7V212.994z"/>
	<path clip-path="url(#SVGID_2_)" fill="#FFFFFF" d="M-164.7,260.155h970.644v47.152H-164.7V260.155z"/>
	<path clip-path="url(#SVGID_2_)" fill="#FFFFFF" d="M339.347,0h45.526V481.28h-45.526V0z"/>
	<path clip-path="url(#SVGID_2_)" fill="#E72910" d="M321.924,370.238L321.924,370.238c-71.059,0-128.663-57.871-128.663-129.26
		v-0.009c0-71.388,57.604-129.26,128.663-129.26l0,0c71.059,0,128.662,57.872,128.662,129.26v0.009
		C450.586,312.366,392.982,370.238,321.924,370.238z"/>
	<path clip-path="url(#SVGID_2_)" d="M315.18,128.704c0-0.242,5.273-15.037,5.273-15.037l4.792,14.796
		c0,0,16.055,0.484,16.055,0.241c0-0.242-12.699,9.701-12.699,9.701s5.991,16.979,5.751,16.493s-13.899-10.187-13.899-10.187
		s-13.9,9.7-13.66,9.7c0.239,0,5.271-16.008,5.271-16.008l-12.461-9.459l15.576-0.243L315.18,128.704z"/>
	<path clip-path="url(#SVGID_2_)" fill="#FFE700" d="M315.897,129.456c0-0.21,4.565-13.023,4.565-13.023l4.152,12.813
		c0,0,13.906,0.421,13.906,0.211c0-0.209-10.998,8.402-10.998,8.402s5.188,14.704,4.98,14.284
		c-0.207-0.42-12.039-8.823-12.039-8.823s-12.037,8.404-11.829,8.404c0.208,0,4.566-13.865,4.566-13.865l-10.792-8.193l13.489-0.21
		L315.897,129.456z"/>
	<path clip-path="url(#SVGID_2_)" fill="#108C00" d="M317.828,131.588c0-0.123,2.632-7.511,2.632-7.511l2.395,7.388
		c0,0,8.019,0.245,8.019,0.123c0-0.123-6.343,4.845-6.343,4.845s2.991,8.479,2.872,8.235c-0.119-0.241-6.941-5.085-6.941-5.085
		s-6.941,4.844-6.821,4.844s2.632-7.993,2.632-7.993l-6.223-4.724L317.828,131.588L317.828,131.588z"/>
	<path clip-path="url(#SVGID_2_)" d="M415.162,199.092c0-0.243,5.271-15.037,5.271-15.037l4.795,14.795
		c0,0,16.055,0.484,16.055,0.242s-12.701,9.7-12.701,9.7s5.992,16.979,5.753,16.494c-0.24-0.485-13.9-10.188-13.9-10.188
		s-13.898,9.701-13.658,9.701c0.241,0,5.271-16.008,5.271-16.008l-12.46-9.46l15.575-0.242V199.092z"/>
	<path clip-path="url(#SVGID_2_)" fill="#FFE700" d="M415.88,199.844c0-0.211,4.565-13.023,4.565-13.023l4.15,12.812
		c0,0,13.908,0.422,13.908,0.212s-11,8.401-11,8.401s5.188,14.705,4.981,14.284c-0.208-0.42-12.039-8.822-12.039-8.822
		s-12.038,8.403-11.83,8.403s4.565-13.865,4.565-13.865l-10.791-8.192L415.88,199.844L415.88,199.844z"/>
	<path clip-path="url(#SVGID_2_)" fill="#108C00" d="M417.811,201.975c0-0.122,2.632-7.511,2.632-7.511l2.395,7.389
		c0,0,8.018,0.244,8.018,0.122s-6.343,4.845-6.343,4.845s2.991,8.479,2.871,8.236c-0.119-0.241-6.94-5.085-6.94-5.085
		s-6.94,4.844-6.82,4.844s2.632-7.994,2.632-7.994l-6.223-4.724L417.811,201.975L417.811,201.975z"/>
	<path clip-path="url(#SVGID_2_)" d="M386.022,310.811c0-0.242,5.271-15.037,5.271-15.037l4.794,14.795
		c0,0,16.055,0.484,16.055,0.242s-12.701,9.701-12.701,9.701s5.993,16.978,5.753,16.492c-0.239-0.484-13.899-10.187-13.899-10.187
		s-13.9,9.702-13.659,9.702s5.271-16.008,5.271-16.008l-12.461-9.46L386.022,310.811L386.022,310.811z"/>
	<path clip-path="url(#SVGID_2_)" fill="#FFE700" d="M386.74,311.563c0-0.211,4.564-13.023,4.564-13.023l4.151,12.813
		c0,0,13.907,0.421,13.907,0.211c0-0.209-11,8.401-11,8.401s5.189,14.705,4.982,14.284c-0.209-0.42-12.039-8.822-12.039-8.822
		s-12.038,8.403-11.83,8.403c0.207,0,4.565-13.864,4.565-13.864l-10.791-8.193L386.74,311.563L386.74,311.563z"/>
	<path clip-path="url(#SVGID_2_)" fill="#108C00" d="M388.67,313.694c0-0.122,2.633-7.511,2.633-7.511l2.394,7.389
		c0,0,8.019,0.244,8.019,0.122s-6.344,4.845-6.344,4.845s2.992,8.479,2.872,8.236c-0.119-0.241-6.94-5.085-6.94-5.085
		s-6.941,4.844-6.821,4.844s2.632-7.994,2.632-7.994l-6.223-4.724L388.67,313.694L388.67,313.694z"/>
	<path clip-path="url(#SVGID_2_)" d="M246.237,310.811c0-0.242,5.272-15.037,5.272-15.037l4.794,14.795
		c0,0,16.055,0.484,16.055,0.242s-12.701,9.701-12.701,9.701s5.992,16.978,5.753,16.492c-0.241-0.484-13.9-10.187-13.9-10.187
		s-13.898,9.702-13.658,9.702c0.239,0,5.271-16.008,5.271-16.008l-12.461-9.46L246.237,310.811L246.237,310.811z"/>
	<path clip-path="url(#SVGID_2_)" fill="#FFE700" d="M246.954,311.563c0-0.211,4.565-13.023,4.565-13.023l4.151,12.813
		c0,0,13.906,0.421,13.906,0.211c0-0.209-11,8.401-11,8.401s5.189,14.705,4.982,14.284c-0.209-0.42-12.04-8.822-12.04-8.822
		s-12.037,8.403-11.83,8.403s4.565-13.864,4.565-13.864l-10.793-8.193L246.954,311.563L246.954,311.563z"/>
	<path clip-path="url(#SVGID_2_)" fill="#108C00" d="M248.885,313.694c0-0.122,2.632-7.511,2.632-7.511l2.395,7.389
		c0,0,8.018,0.244,8.018,0.122s-6.341,4.845-6.341,4.845s2.991,8.479,2.872,8.236c-0.121-0.241-6.942-5.085-6.942-5.085
		s-6.94,4.844-6.82,4.844s2.632-7.994,2.632-7.994l-6.223-4.724L248.885,313.694L248.885,313.694z"/>
	<path clip-path="url(#SVGID_2_)" d="M220.709,196.215c0-0.242,5.272-15.037,5.272-15.037l4.794,14.796
		c0,0,16.055,0.484,16.055,0.241c0-0.242-12.701,9.701-12.701,9.701s5.991,16.979,5.753,16.493
		c-0.241-0.485-13.901-10.187-13.901-10.187s-13.899,9.7-13.658,9.7s5.271-16.008,5.271-16.008l-12.46-9.459l15.576-0.243
		L220.709,196.215z"/>
	<path clip-path="url(#SVGID_2_)" fill="#FFE700" d="M221.427,196.967c0-0.21,4.565-13.023,4.565-13.023l4.151,12.813
		c0,0,13.907,0.421,13.907,0.211c0-0.209-11,8.402-11,8.402s5.188,14.704,4.982,14.284c-0.208-0.42-12.04-8.823-12.04-8.823
		s-12.038,8.404-11.83,8.404c0.208,0,4.565-13.865,4.565-13.865l-10.791-8.193L221.427,196.967L221.427,196.967z"/>
	<path clip-path="url(#SVGID_2_)" fill="#108C00" d="M223.357,199.099c0-0.123,2.632-7.511,2.632-7.511l2.395,7.388
		c0,0,8.018,0.245,8.018,0.123c0-0.123-6.342,4.845-6.342,4.845s2.991,8.479,2.872,8.236s-6.941-5.086-6.941-5.086
		s-6.941,4.844-6.82,4.844c0.12,0,2.632-7.993,2.632-7.993l-6.223-4.724L223.357,199.099z"/>
	<path clip-path="url(#SVGID_2_)" d="M384.838,163.692c0,0.242-5.271,15.037-5.271,15.037l-4.794-14.796
		c0,0-16.056-0.484-16.056-0.241c0,0.242,12.702-9.701,12.702-9.701s-5.993-16.979-5.753-16.493
		c0.239,0.485,13.899,10.187,13.899,10.187s13.899-9.7,13.658-9.7c-0.24,0-5.271,16.008-5.271,16.008l12.461,9.459l-15.576,0.243
		V163.692z"/>
	<path clip-path="url(#SVGID_2_)" fill="#FFE700" d="M384.121,162.94c0,0.21-4.566,13.023-4.566,13.023l-4.15-12.813
		c0,0-13.907-0.421-13.907-0.211c0,0.209,11-8.402,11-8.402s-5.188-14.704-4.982-14.284c0.209,0.421,12.04,8.823,12.04,8.823
		s12.037-8.403,11.83-8.403c-0.208,0-4.566,13.864-4.566,13.864l10.791,8.193L384.121,162.94L384.121,162.94z"/>
	<path clip-path="url(#SVGID_2_)" fill="#108C00" d="M382.19,160.809c0,0.122-2.632,7.511-2.632,7.511l-2.395-7.389
		c0,0-8.019-0.244-8.019-0.122s6.343-4.845,6.343-4.845s-2.99-8.479-2.871-8.236c0.119,0.241,6.941,5.085,6.941,5.085
		s6.94-4.844,6.82-4.844s-2.632,7.994-2.632,7.994l6.223,4.724L382.19,160.809L382.19,160.809z"/>
	<path clip-path="url(#SVGID_2_)" d="M424.977,272.864c0,0.242-5.271,15.037-5.271,15.037l-4.795-14.796
		c0,0-16.055-0.484-16.055-0.241c0,0.242,12.701-9.701,12.701-9.701s-5.992-16.979-5.753-16.493s13.899,10.187,13.899,10.187
		s13.899-9.7,13.658-9.7c-0.24,0-5.27,16.008-5.27,16.008l12.46,9.459L424.977,272.864L424.977,272.864z"/>
	<path clip-path="url(#SVGID_2_)" fill="#FFE700" d="M424.259,272.112c0,0.21-4.565,13.023-4.565,13.023l-4.151-12.813
		c0,0-13.907-0.421-13.907-0.211c0,0.209,11-8.402,11-8.402s-5.188-14.704-4.982-14.284c0.209,0.42,12.04,8.823,12.04,8.823
		s12.038-8.404,11.83-8.404s-4.565,13.865-4.565,13.865l10.791,8.193L424.259,272.112L424.259,272.112z"/>
	<path clip-path="url(#SVGID_2_)" fill="#108C00" d="M422.328,269.98c0,0.123-2.632,7.511-2.632,7.511l-2.395-7.388
		c0,0-8.019-0.245-8.019-0.123c0,0.123,6.344-4.845,6.344-4.845s-2.991-8.479-2.872-8.236c0.12,0.242,6.941,5.086,6.941,5.086
		s6.94-4.844,6.82-4.844s-2.632,7.993-2.632,7.993l6.223,4.724L422.328,269.98L422.328,269.98z"/>
	<path clip-path="url(#SVGID_2_)" d="M325.439,352.735c0,0.242-5.271,15.037-5.271,15.037l-4.794-14.795
		c0,0-16.056-0.484-16.056-0.242s12.702-9.701,12.702-9.701s-5.993-16.978-5.753-16.492c0.24,0.484,13.9,10.187,13.9,10.187
		s13.899-9.701,13.658-9.701s-5.271,16.009-5.271,16.009l12.461,9.459l-15.576,0.242V352.735z"/>
	<path clip-path="url(#SVGID_2_)" fill="#FFE700" d="M324.723,351.983c0,0.211-4.566,13.023-4.566,13.023l-4.151-12.812
		c0,0-13.907-0.421-13.907-0.212c0,0.21,11-8.401,11-8.401s-5.189-14.704-4.982-14.284c0.209,0.42,12.04,8.822,12.04,8.822
		s12.038-8.403,11.83-8.403s-4.565,13.865-4.565,13.865l10.791,8.192L324.723,351.983L324.723,351.983z"/>
	<path clip-path="url(#SVGID_2_)" fill="#108C00" d="M322.791,349.852c0,0.122-2.632,7.511-2.632,7.511l-2.394-7.389
		c0,0-8.019-0.244-8.019-0.122s6.343-4.845,6.343-4.845s-2.991-8.479-2.872-8.236c0.119,0.241,6.94,5.085,6.94,5.085
		s6.941-4.844,6.821-4.844c-0.121,0-2.633,7.994-2.633,7.994l6.224,4.724l-7.778,0.122H322.791z"/>
	<path clip-path="url(#SVGID_2_)" d="M231.919,272.864c0,0.242-5.271,15.037-5.271,15.037l-4.794-14.796
		c0,0-16.056-0.484-16.056-0.241c0,0.242,12.702-9.701,12.702-9.701s-5.993-16.979-5.753-16.493s13.9,10.187,13.9,10.187
		s13.898-9.7,13.658-9.7c-0.241,0-5.271,16.008-5.271,16.008l12.46,9.459L231.919,272.864L231.919,272.864z"/>
	<path clip-path="url(#SVGID_2_)" fill="#FFE700" d="M231.202,272.112c0,0.21-4.566,13.023-4.566,13.023l-4.15-12.813
		c0,0-13.908-0.421-13.908-0.211c0,0.209,11-8.402,11-8.402s-5.189-14.704-4.982-14.284c0.208,0.42,12.039,8.823,12.039,8.823
		s12.038-8.404,11.83-8.404c-0.208,0-4.565,13.865-4.565,13.865l10.791,8.193L231.202,272.112L231.202,272.112z"/>
	<path clip-path="url(#SVGID_2_)" fill="#108C00" d="M229.271,269.98c0,0.123-2.632,7.511-2.632,7.511l-2.394-7.388
		c0,0-8.018-0.245-8.018-0.123c0,0.123,6.343-4.845,6.343-4.845s-2.991-8.479-2.871-8.236c0.119,0.242,6.94,5.086,6.94,5.086
		s6.941-4.844,6.821-4.844s-2.632,7.993-2.632,7.993l6.223,4.724L229.271,269.98L229.271,269.98z"/>
	<path clip-path="url(#SVGID_2_)" d="M266.436,165.299c0,0.242-5.271,15.037-5.271,15.037l-4.794-14.796
		c0,0-16.055-0.484-16.055-0.241c0,0.242,12.701-9.701,12.701-9.701s-5.993-16.979-5.752-16.493
		c0.239,0.485,13.899,10.187,13.899,10.187s13.899-9.7,13.658-9.7c-0.24,0-5.271,16.008-5.271,16.008l12.461,9.459l-15.576,0.243
		V165.299z"/>
	<path clip-path="url(#SVGID_2_)" fill="#FFE700" d="M265.719,164.547c0,0.21-4.566,13.023-4.566,13.023l-4.151-12.813
		c0,0-13.907-0.421-13.907-0.211c0,0.209,11-8.402,11-8.402s-5.189-14.704-4.982-14.284c0.209,0.421,12.04,8.823,12.04,8.823
		s12.038-8.403,11.83-8.403s-4.566,13.864-4.566,13.864l10.792,8.193L265.719,164.547L265.719,164.547z"/>
	<path clip-path="url(#SVGID_2_)" fill="#108C00" d="M263.788,162.416c0,0.122-2.632,7.51-2.632,7.51l-2.394-7.388
		c0,0-8.019-0.244-8.019-0.122s6.343-4.845,6.343-4.845s-2.991-8.479-2.872-8.236c0.119,0.241,6.941,5.085,6.941,5.085
		s6.941-4.844,6.821-4.844c-0.121,0-2.632,7.994-2.632,7.994l6.223,4.723L263.788,162.416L263.788,162.416z"/>
	<path clip-path="url(#SVGID_2_)" fill="#009200" stroke="#000000" stroke-width="2.5" d="M329.73,235.035
		c3.726-0.466,6.745,14.112,6.745,32.56s-3.02,33.779-6.745,34.245s-6.746-14.111-6.746-32.559
		C322.984,250.833,326.005,235.501,329.73,235.035z"/>
	<path clip-path="url(#SVGID_2_)" fill="#009200" stroke="#000000" stroke-width="2.5" d="M338.348,234.544
		c3.991-0.499,7.228,14.052,7.228,32.499s-3.236,33.807-7.228,34.306c-3.992,0.499-7.229-14.051-7.229-32.499
		C331.119,250.403,334.355,235.043,338.348,234.544z"/>
	<path clip-path="url(#SVGID_2_)" fill="#009200" stroke="#000000" stroke-width="2.5" d="M334.941,232.626
		c3.193-0.399,5.782,15.728,5.782,36.02c0,20.293-2.589,37.066-5.782,37.466c-3.193,0.398-5.781-15.728-5.781-36.02
		C329.16,249.799,331.748,233.026,334.941,232.626z"/>
	<path clip-path="url(#SVGID_2_)" fill="#A95600" stroke="#000000" stroke-width="0.501" d="M295.189,276.518
		c5.86-0.325,3.255-3.256,6.185-4.883c2.931-1.629,7.163-0.651,8.465,1.302s0.326,3.906,1.953,3.906s45.862-2.478,47.488-0.851
		c1.628,1.628,1.953,4.885,0.325,6.186c-1.627,1.302-57.58,2.804-59.533,1.502C298.119,282.377,295.189,276.843,295.189,276.518z"/>
	<path clip-path="url(#SVGID_2_)" fill="#FFFF00" stroke="#000000" stroke-width="3.853" d="M325.818,288.061
		c0,3.909,6.681,2.726,6.863,5.988c-0.105,3.461-11.248,0.339-11.531-5.988c0.283-6.326,11.014-9.573,11.248-5.964
		C332.582,285.097,325.818,284.153,325.818,288.061z"/>
	<path clip-path="url(#SVGID_2_)" fill="#FFFF00" stroke="#000000" stroke-width="3.853" d="M329.729,288.11
		c0,3.909,6.681,2.726,6.863,5.988c-0.105,3.461-11.248,0.339-11.53-5.988c0.283-6.326,11.014-9.573,11.248-5.964
		C336.492,285.146,329.729,284.201,329.729,288.11z"/>
	<path clip-path="url(#SVGID_2_)" fill="#FFFF00" stroke="#000000" stroke-width="3.853" d="M333.922,287.953
		c0,3.909,6.682,2.726,6.864,5.988c-0.106,3.461-11.248,0.339-11.531-5.988c0.283-6.326,11.014-9.573,11.248-5.964
		C340.686,284.989,333.922,284.045,333.922,287.953z"/>
	<path clip-path="url(#SVGID_2_)" fill="#FFFF00" stroke="#000000" stroke-width="3.853" d="M337.832,288.002
		c0,3.909,6.682,2.726,6.864,5.988c-0.105,3.461-11.248,0.339-11.53-5.988c0.283-6.326,11.014-9.573,11.248-5.964
		C344.597,285.038,337.832,284.094,337.832,288.002z"/>
	<path clip-path="url(#SVGID_2_)" fill="#A95600" stroke="#000000" stroke-width="0.399" d="M356.787,292.196
		c2.1,0.038,3.771,1.782,3.734,3.896c-0.037,2.112-1.769,3.794-3.867,3.756s-3.771-1.781-3.734-3.895
		C352.957,293.839,354.688,292.157,356.787,292.196z"/>
	
		<ellipse transform="matrix(-0.101 -0.9949 0.9949 -0.101 78.6348 648.9702)" clip-path="url(#SVGID_2_)" fill="#009200" stroke="#000000" stroke-width="2.5" cx="332.515" cy="288.959" rx="7.553" ry="3.459"/>
	
		<ellipse transform="matrix(-0.101 -0.9949 0.9949 -0.101 72.802 642.7955)" clip-path="url(#SVGID_2_)" fill="#009200" stroke="#000000" stroke-width="2.5" cx="326.809" cy="288.507" rx="7.553" ry="3.459"/>
	
		<ellipse transform="matrix(-0.1011 -0.9949 0.9949 -0.1011 75.5909 630.7134)" clip-path="url(#SVGID_2_)" fill="#009200" stroke="#000000" stroke-width="2.5" cx="322.727" cy="281.208" rx="7.553" ry="3.459"/>
	
		<ellipse transform="matrix(-0.1011 -0.9949 0.9949 -0.1011 82.126 632.5437)" clip-path="url(#SVGID_2_)" fill="#009200" stroke="#000000" stroke-width="2.5" cx="326.832" cy="279.169" rx="8.261" ry="3.256"/>
	
		<ellipse transform="matrix(-0.1011 -0.9949 0.9949 -0.1011 89.7299 642.0543)" clip-path="url(#SVGID_2_)" fill="#009200" stroke="#000000" stroke-width="2.5" cx="334.936" cy="280.489" rx="7.789" ry="3.255"/>
	
		<ellipse transform="matrix(-0.101 -0.9949 0.9949 -0.101 87.5253 634.7826)" clip-path="url(#SVGID_2_)" fill="#009200" stroke="#000000" stroke-width="2.5" cx="330.55" cy="277.848" rx="7.789" ry="3.256"/>
	
		<ellipse transform="matrix(-0.1011 -0.9949 0.9949 -0.1011 85.2343 625.0898)" clip-path="url(#SVGID_2_)" fill="#009200" stroke="#000000" stroke-width="2.5" cx="325.023" cy="274.037" rx="7.789" ry="3.256"/>
	
		<ellipse transform="matrix(-0.1011 -0.9949 0.9949 -0.1011 81.8859 617.4452)" clip-path="url(#SVGID_2_)" fill="#009200" stroke="#000000" stroke-width="2.5" cx="319.896" cy="271.728" rx="7.789" ry="3.256"/>
	<path clip-path="url(#SVGID_2_)" fill="#804BFF" stroke="#000000" stroke-width="0.4562" d="M315.896,199.952
		c0,0-11.44,9.829-9.864,36.122c1.735,26.439,25.927,38.645,25.927,38.645s6.053-7.568,5.113-28.815
		c-2.05-31.061-13.558-44.682-13.558-44.682L315.896,199.952z"/>
	
		<ellipse transform="matrix(0.078 -0.997 0.997 0.078 24.5286 606.2224)" clip-path="url(#SVGID_2_)" fill="#009200" stroke="#000000" stroke-width="2.5" cx="340.006" cy="289.85" rx="7.553" ry="3.459"/>
	
		<ellipse transform="matrix(0.078 -0.997 0.997 0.078 20.8854 599.3583)" clip-path="url(#SVGID_2_)" fill="#009200" stroke="#000000" stroke-width="2.5" cx="334.472" cy="288.388" rx="7.553" ry="3.459"/>
	
		<ellipse transform="matrix(0.0779 -0.997 0.997 0.0779 26.2857 589.3763)" clip-path="url(#SVGID_2_)" fill="#009200" stroke="#000000" stroke-width="2.5" cx="331.756" cy="280.478" rx="7.553" ry="3.459"/>
	
		<ellipse transform="matrix(0.0779 -0.997 0.997 0.0779 31.6169 592.5924)" clip-path="url(#SVGID_2_)" fill="#009200" stroke="#000000" stroke-width="2.5" cx="336.159" cy="279.204" rx="8.261" ry="3.256"/>
	
		<ellipse transform="matrix(0.0779 -0.997 0.997 0.0779 36.0104 602.829)" clip-path="url(#SVGID_2_)" fill="#009200" stroke="#000000" stroke-width="2.5" cx="343.898" cy="281.947" rx="7.789" ry="3.255"/>
	
		<ellipse transform="matrix(0.0779 -0.997 0.997 0.0779 35.8349 595.8794)" clip-path="url(#SVGID_2_)" fill="#009200" stroke="#000000" stroke-width="2.5" cx="340.053" cy="278.567" rx="7.789" ry="3.256"/>
	
		<ellipse transform="matrix(0.078 -0.997 0.997 0.078 36.1488 586.7505)" clip-path="url(#SVGID_2_)" fill="#009200" stroke="#000000" stroke-width="2.5" cx="335.295" cy="273.832" rx="7.789" ry="3.256"/>
	
		<ellipse transform="matrix(0.0779 -0.997 0.997 0.0779 35.072 579.2108)" clip-path="url(#SVGID_2_)" fill="#009200" stroke="#000000" stroke-width="2.5" cx="330.661" cy="270.645" rx="7.789" ry="3.256"/>
	<path clip-path="url(#SVGID_2_)" fill="#C90000" stroke="#000000" d="M327.749,220.97c5.035-1.888,14.014,8.825,20.055,23.929
		c6.042,15.104,6.857,28.878,1.823,30.766c-5.035,1.888-14.014-8.825-20.055-23.929S322.715,222.859,327.749,220.97z"/>
	
		<ellipse transform="matrix(0.0178 -0.9998 0.9998 0.0178 104.7947 550.4512)" clip-path="url(#SVGID_2_)" fill="#009200" stroke="#000000" stroke-width="1.464" cx="332.567" cy="221.887" rx="3.785" ry="4.232"/>
	
		<ellipse transform="matrix(0.0178 -0.9998 0.9998 0.0178 111.2802 546.5571)" clip-path="url(#SVGID_2_)" fill="#009200" stroke="#000000" stroke-width="1.546" cx="333.828" cy="216.639" rx="3.785" ry="3.703"/>
	
		<ellipse transform="matrix(0.0178 -0.9998 0.9998 0.0178 106.4063 541.416)" clip-path="url(#SVGID_2_)" fill="#009200" stroke="#000000" stroke-width="1.546" cx="328.774" cy="216.549" rx="3.785" ry="3.703"/>
	
		<ellipse transform="matrix(0.0178 -0.9998 0.9998 0.0178 116.349 535.4841)" clip-path="url(#SVGID_2_)" fill="#009200" stroke="#000000" stroke-width="1.56" cx="330.719" cy="208.524" rx="3.406" ry="3.915"/>
	
		<ellipse transform="matrix(0.0179 -0.9998 0.9998 0.0179 120.2473 530.7141)" clip-path="url(#SVGID_2_)" fill="#009200" stroke="#000000" stroke-width="1.56" cx="330.279" cy="204.146" rx="3.406" ry="3.915"/>
	
		<ellipse transform="matrix(0.0178 -0.9998 0.9998 0.0178 104.6158 533.6929)" clip-path="url(#SVGID_2_)" fill="#009200" stroke="#000000" stroke-width="1.546" cx="323.948" cy="213.599" rx="3.785" ry="3.703"/>
	
		<ellipse transform="matrix(0.0178 -0.9998 0.9998 0.0178 108.3391 532.1824)" clip-path="url(#SVGID_2_)" fill="#009200" stroke="#000000" stroke-width="1.562" cx="325.041" cy="210.948" rx="3.785" ry="3.704"/>
	
		<ellipse transform="matrix(0.0178 -0.9998 0.9998 0.0178 106.0779 526.0133)" clip-path="url(#SVGID_2_)" fill="#009200" stroke="#000000" stroke-width="1.464" cx="320.771" cy="209.015" rx="3.785" ry="4.232"/>
	
		<ellipse transform="matrix(0.0178 -0.9998 0.9998 0.0178 122.957 522.4997)" clip-path="url(#SVGID_2_)" fill="#009200" stroke="#000000" stroke-width="1.56" cx="327.414" cy="198.669" rx="3.406" ry="3.915"/>
	
		<ellipse transform="matrix(0.0178 -0.9998 0.9998 0.0178 110.0043 523.2037)" clip-path="url(#SVGID_2_)" fill="#009200" stroke="#000000" stroke-width="1.562" cx="321.304" cy="205.612" rx="3.785" ry="3.703"/>
	
		<ellipse transform="matrix(0.0178 -0.9998 0.9998 0.0178 98.6652 518.8113)" clip-path="url(#SVGID_2_)" fill="#009200" stroke="#000000" stroke-width="1.546" cx="313.398" cy="209.187" rx="3.785" ry="3.703"/>
	
		<ellipse transform="matrix(0.0178 -0.9998 0.9998 0.0178 100.5781 519.4148)" clip-path="url(#SVGID_2_)" fill="#009200" stroke="#000000" stroke-width="1.562" cx="314.662" cy="208.515" rx="3.785" ry="3.703"/>
	
		<ellipse transform="matrix(0.0178 -0.9998 0.9998 0.0178 105.1802 518.0156)" clip-path="url(#SVGID_2_)" fill="#009200" stroke="#000000" stroke-width="1.562" cx="316.251" cy="205.473" rx="3.785" ry="3.703"/>
	<path clip-path="url(#SVGID_2_)" fill="#009200" stroke="#000000" stroke-width="2.545" d="M326.344,219.376
		c6.422-2.185,17.461,11.706,24.656,31.024c7.194,19.319,7.82,36.751,1.397,38.936s-17.462-11.705-24.657-31.024
		C320.546,238.993,319.92,221.561,326.344,219.376z"/>
	<path clip-path="url(#SVGID_2_)" fill="#009200" stroke="#000000" stroke-width="2.5" d="M346.317,253.058
		c1.188-0.571,3.427,2.244,5,6.287c1.573,4.044,1.886,7.784,0.697,8.355s-3.427-2.244-5.001-6.288
		C345.441,257.369,345.129,253.628,346.317,253.058z"/>
	<path clip-path="url(#SVGID_2_)" fill="#009200" stroke="#000000" stroke-width="1.533" d="M347.637,259.959
		c9.642,13.307,8.2,21.567,7.012,28.56c-2.941-8.168-4.53-13.305-14.171-26.611c-9.642-13.307-4.48-22.349-3.691-27.162
		c1.398,4.219,1.21,11.908,10.853,25.216L347.637,259.959z"/>
	<path clip-path="url(#SVGID_2_)" fill="#009200" stroke="#000000" stroke-width="1.533" d="M348.313,270.532
		c9.642,13.307,8.2,21.567,7.012,28.56c-2.941-8.167-4.53-13.305-14.171-26.61c-9.642-13.307-4.48-22.349-3.691-27.162
		c1.398,4.218,1.21,11.908,10.853,25.215L348.313,270.532z"/>
	<path clip-path="url(#SVGID_2_)" fill="#009200" stroke="#000000" stroke-width="1.533" d="M349.09,278.988
		c9.947,13.082,8.689,21.378,7.656,28.399c-3.127-8.1-4.831-13.2-14.777-26.28c-9.945-13.082-4.982-22.247-4.3-27.079
		c1.493,4.186,1.477,11.881,11.423,24.963L349.09,278.988z"/>
	<path clip-path="url(#SVGID_2_)" fill="#009200" stroke="#000000" stroke-width="1.389" d="M336.586,235.445
		c2.33-0.575,6.469,4.814,9.244,12.039s3.137,13.548,0.806,14.123c-2.33,0.576-6.469-4.814-9.244-12.039
		S334.256,236.02,336.586,235.445z"/>
	<path clip-path="url(#SVGID_2_)" fill="#009200" stroke="#000000" stroke-width="1.64" d="M334.725,243.964
		c2.109-0.33,5.557,4.223,7.697,10.17c2.141,5.946,2.166,11.036,0.056,11.367c-2.11,0.33-5.557-4.223-7.697-10.17
		C332.639,249.385,332.614,244.295,334.725,243.964z"/>
	<path clip-path="url(#SVGID_2_)" fill="#009200" stroke="#000000" stroke-width="1.64" d="M328.505,248.24
		c2.11-0.288,5.429,4.336,7.41,10.327c1.982,5.99,1.879,11.081-0.231,11.368c-2.109,0.288-5.428-4.336-7.41-10.327
		S326.395,248.527,328.505,248.24z"/>
	<path clip-path="url(#SVGID_2_)" fill="#009200" stroke="#000000" stroke-width="2.097" d="M333.246,232.891
		c1.683-0.287,4.558,3.051,6.421,7.456s2.01,8.209,0.327,8.497c-1.684,0.287-4.559-3.051-6.422-7.456
		S331.563,233.179,333.246,232.891z"/>
	<path clip-path="url(#SVGID_2_)" fill="#009200" stroke="#000000" stroke-width="2.097" d="M330.901,236.763
		c1.722-0.187,4.403,3.34,5.989,7.878c1.586,4.537,1.476,8.367-0.246,8.554c-1.722,0.188-4.403-3.34-5.989-7.877
		S329.18,236.95,330.901,236.763z"/>
	<path clip-path="url(#SVGID_2_)" fill="#009200" stroke="#000000" stroke-width="2.086" d="M330.446,240.223
		c2.753,7.846,3.771,14.87,2.271,15.679s-4.951-4.903-7.703-12.749"/>
	<path clip-path="url(#SVGID_2_)" fill="#009200" stroke="#000000" stroke-width="2.097" d="M330.609,227.649
		c1.723-0.188,4.403,3.34,5.989,7.877s1.476,8.367-0.246,8.555c-1.722,0.187-4.403-3.34-5.989-7.878
		C328.777,231.665,328.888,227.835,330.609,227.649z"/>
	<path clip-path="url(#SVGID_2_)" fill="#009200" stroke="#000000" stroke-width="2.097" d="M325.937,230.817
		c1.722-0.145,4.339,3.453,5.846,8.035c1.507,4.581,1.332,8.412-0.39,8.556s-4.339-3.454-5.846-8.035
		C324.041,234.791,324.215,230.96,325.937,230.817z"/>
	<path clip-path="url(#SVGID_2_)" fill="#009200" stroke="#000000" stroke-width="2.88" d="M325.918,229.62
		c2.753,5.318,4.196,10.253,3.221,11.014c-0.975,0.76-4.001-2.94-6.754-8.26"/>
	<path clip-path="url(#SVGID_2_)" fill="#009200" stroke="#000000" stroke-width="2.88" d="M327.969,226.2
		c2.752,5.319,4.195,10.253,3.221,11.014c-0.976,0.76-4.002-2.94-6.754-8.26"/>
	<path clip-path="url(#SVGID_2_)" fill="#009200" stroke="#000000" stroke-width="2.086" d="M336.855,228.066
		c3.83,7.313,5.828,14.091,4.46,15.126s-5.588-4.062-9.417-11.375"/>
	<path clip-path="url(#SVGID_2_)" fill="#009200" stroke="#000000" stroke-width="2.742" d="M331.046,223.006
		c2.753,5.851,4.196,11.282,3.221,12.124c-0.976,0.841-4.001-3.227-6.754-9.077"/>
	<path clip-path="url(#SVGID_2_)" fill="#804BFF" stroke="#000000" stroke-width="2.5" d="M335.041,202.682
		c-1.921,1.973,0.064,5.407,1.881,6.599c2.042,1.649,13.546,12.514,21.322,2.58C351.863,212.039,339.684,198.272,335.041,202.682
		L335.041,202.682z"/>
	<path clip-path="url(#SVGID_2_)" fill="#804BFF" stroke="#000000" stroke-width="2.5" d="M333.672,196.934
		c-1.92,1.973,0.064,5.407,1.881,6.598c2.043,1.65,13.546,12.514,21.322,2.581C350.494,206.291,338.314,192.524,333.672,196.934
		L333.672,196.934z"/>
	<path clip-path="url(#SVGID_2_)" fill="#804BFF" stroke="#000000" stroke-width="2.5" d="M331.933,191.44
		c-1.921,1.973,0.063,5.407,1.88,6.599c2.043,1.649,13.547,12.514,21.322,2.58C348.754,200.797,336.575,187.03,331.933,191.44
		L331.933,191.44z"/>
	<path clip-path="url(#SVGID_2_)" fill="#804BFF" stroke="#000000" stroke-width="2.5" d="M328.148,185.154
		c-1.92,1.973,0.064,5.407,1.881,6.599c2.043,1.649,13.546,12.514,21.322,2.58C344.971,194.511,332.791,180.743,328.148,185.154
		L328.148,185.154z"/>
	<path clip-path="url(#SVGID_2_)" fill="#804BFF" stroke="#000000" stroke-width="2.5" d="M310.967,182.709
		c3.72-2.908,10.662-3.74,16.153-0.865c4.573,2.306,12.328,11.681,18.042,13.909c-3.967,0.724-6.403,0.095-8.98-1.18
		c-4.938,3.755-6.716,4.314-11.819,5.039c-7.101,1.042-13.062-0.896-15.233-4.751C306.922,191.226,307.694,185.405,310.967,182.709
		L310.967,182.709z"/>
	
		<ellipse transform="matrix(0.0177 -0.9998 0.9998 0.0177 129.0077 505.6976)" clip-path="url(#SVGID_2_)" fill="#FF0000" stroke="#000000" stroke-width="2.5" cx="321.866" cy="187.194" rx="1.905" ry="3.459"/>
	<path clip-path="url(#SVGID_2_)" fill="#FFFF00" stroke="#000000" stroke-width="2.5" d="M311.231,192.148
		c2.528-0.959,5.044-0.546,5.619,0.924c0.574,1.469-1.01,3.438-3.538,4.397c-2.528,0.96-5.044,0.546-5.619-0.923
		C307.119,195.076,308.703,193.108,311.231,192.148z"/>
	<ellipse clip-path="url(#SVGID_2_)" cx="316.325" cy="193.174" rx="1.139" ry="1.139"/>
	<path clip-path="url(#SVGID_2_)" fill="#FFFF00" stroke="#000000" stroke-width="6.56" d="M317.817,189.584
		c0.407,1.423-0.712,3.356-3.312,4.056c-2.635,0.983-4.563,3.19-5.561,6.786c-4.474-8.158-2.052-11.636,2.237-12.503
		C314.854,186.865,317.105,186.983,317.817,189.584L317.817,189.584z"/>
	<ellipse clip-path="url(#SVGID_2_)" cx="306.88" cy="197.372" rx="0.921" ry="0.921"/>
</g>
</svg>
