<?xml version="1.0" encoding="utf-8"?>
<!-- Generator: Adobe Illustrator 15.0.2, SVG Export Plug-In . SVG Version: 6.00 Build 0)  -->
<!DOCTYPE svg PUBLIC "-//W3C//DTD SVG 1.1//EN" "http://www.w3.org/Graphics/SVG/1.1/DTD/svg11.dtd">
<svg version="1.1" id="Layer_1" xmlns="http://www.w3.org/2000/svg" xmlns:xlink="http://www.w3.org/1999/xlink" x="0px" y="0px"
	 width="640px" height="480px" viewBox="0 0 640 480" enable-background="new 0 0 640 480" xml:space="preserve">
<g>
	<path fill="#FFE800" d="M0,0h640v480H0V0z"/>
	<path fill="#00148E" d="M0,240h640v240H0V240z"/>
	<path fill="#DA0010" d="M0,360h640v120H0V360z"/>
	<path d="M269.55,290.834l-72.424,76.484l-1.277-1.644l72.422-76.485l1.277,1.645H269.55z M320.002,303.334l-94.777,99.907
		l-1.662-1.571l94.777-99.91L320.002,303.334z"/>
	<path fill="#808080" stroke="#000000" stroke-width="4.104" d="M225.522,402.089l-8.858,8.858l-10.098,7.617l7.618-10.098
		l8.858-8.858L225.522,402.089z"/>
	<path fill="#808080" stroke="#000000" stroke-width="4.104" d="M201.082,363.059l-8.858,8.858l-10.099,7.618l7.618-10.099
		l8.858-8.858L201.082,363.059z"/>
	<path fill="#FFDF00" stroke="#000000" d="M207.901,114.858c0,0-7.973,215.43,23.917,215.43s47.835-22.677,47.835-22.677
		l-0.387-118.419l-71.365-74.336V114.858z"/>
	<path fill="#0000C4" stroke="#000000" d="M227.377,134.928c0,11.339-3.53,172.685,12.414,172.685
		c15.945,0,39.862-11.339,39.862-11.339l-0.387-107.078l-51.89-54.266V134.928z"/>
	<path fill="#E10000" stroke="#000000" d="M237.754,145.782c0,11.339,2.036,139.148,17.981,139.148h23.917l-0.387-95.737
		l-41.512-43.413V145.782z"/>
	<path d="M206.202,116.02l72.422,76.485l1.277-1.643l-72.422-76.484L206.202,116.02L206.202,116.02z"/>
	<path fill="#FFDF00" stroke="#000000" d="M184.314,158.981c0,0-20.551,208.698,41.102,208.698
		c51.378,0,51.378-32.953,61.654-32.953l-10.277-76.893l-92.481-98.853H184.314z"/>
	<path fill="none" stroke="#000000" stroke-width="2.305" d="M235.214,193.616c0.453-0.034,16.028-33.755,54.938-55.105"/>
	<path fill="#005B00" stroke="#000000" d="M228.764,161.813c5.44,2.538,8.875,5.444,12.007,8.835
		c-6.225-1.299-9.421-1.812-14.862-4.35c-5.439-2.539-9.578-6.419-12.868-9.56C217.092,157.992,223.324,159.274,228.764,161.813z"/>
	<path fill="#FF0000" stroke="#000000" d="M242.441,182.48c0.407,0.691,0.052,1.633-0.792,2.102s-1.859,0.289-2.266-0.402
		c-0.407-0.69-0.052-1.632,0.792-2.101C241.021,181.609,242.035,181.789,242.441,182.48L242.441,182.48z"/>
	<path fill="#005B00" stroke="#000000" d="M259.489,140.266c-2.357,5.984-4.945,9.919-7.93,13.594
		c1.344-6.657,1.902-10.056,4.26-16.04c2.357-5.983,5.794-10.768,8.574-14.578C263.175,127.62,261.847,134.282,259.489,140.266z"/>
	<path fill="#005B00" stroke="#000000" d="M251.553,139.91c-0.544,5.984-1.728,10.604-3.285,15.293
		c-0.413-5.813-0.725-8.697-0.181-14.681c0.544-5.984,2.214-11.793,3.579-16.447C251.671,128.12,252.097,133.927,251.553,139.91z"/>
	<path fill="#005B00" stroke="#000000" d="M256.718,146.727c-3.083,3.627-5.666,5.201-8.382,6.23
		c2.744-5.032,4.077-7.701,7.159-11.327c3.083-3.627,6.38-5.315,9.028-6.627C262.538,138.053,259.8,143.1,256.718,146.727z"/>
	<path fill="#005B00" stroke="#000000" d="M230.479,151.927c3.627,4.353,5.43,8.525,6.796,13.141
		c-4.75-3.225-7.248-4.711-10.874-9.063c-3.627-4.352-5.657-9.793-7.25-14.182C222.089,144.368,226.852,147.575,230.479,151.927z"/>
	<path fill="#005B00" stroke="#000000" d="M223.189,185.343c4.533,3.627,6.925,7.348,8.836,11.554
		c-5.77-2.387-8.788-3.441-13.321-7.068s-7.275-8.525-9.436-12.482C212.874,179.348,218.656,181.716,223.189,185.343z"/>
	<path fill="#005B00" stroke="#000000" d="M244.401,183.292c-3.626,5.803-7.53,9.692-12.007,13.366
		c2.162-6.362,3.08-9.603,6.706-15.405c3.627-5.803,8.799-10.554,12.98-14.34C250.169,171.123,248.028,177.49,244.401,183.292z"/>
	<path fill="#005B00" stroke="#000000" d="M248.21,183.152c-5.803,3.989-10.834,6.064-16.198,7.703
		c4.956-5.113,7.338-7.791,13.14-11.78c5.803-3.989,12.261-6.359,17.455-8.224C258.954,174.037,254.013,179.162,248.21,183.152z"/>
	<path fill="#005B00" stroke="#000000" d="M287.235,141.525c-2.539,2.901-4.806,4.617-7.25,6.116
		c2.088-3.462,3.08-5.254,5.619-8.155c2.538-2.901,5.462-4.936,7.815-6.547C291.854,135.155,289.774,138.623,287.235,141.525z"/>
	<path fill="#005B00" stroke="#000000" d="M281.854,132.954c-1.451,3.082-2.994,5.392-4.758,7.702
		c0.887-3.081,1.268-4.62,2.719-7.702c1.451-3.083,3.492-5.97,5.143-8.28C284.183,126.792,283.304,129.871,281.854,132.954z"/>
	<path fill="#005B00" stroke="#000000" d="M290.226,138.495c-2.539,1.45-4.44,1.897-6.343,2.039
		c2.538-2.238,3.805-3.442,6.343-4.894c2.539-1.45,4.916-1.853,6.819-2.152C295.3,134.798,292.765,137.045,290.226,138.495z"/>
	<path fill="#005B00" stroke="#000000" d="M255.268,154.688c-4.533,2.72-8.249,4.301-12.12,5.664
		c4.137-3.281,6.16-4.982,10.693-7.703c4.534-2.72,9.256-4.584,13.049-6.06C263.931,148.681,259.801,151.968,255.268,154.688z"/>
	<path fill="#005B00" stroke="#000000" d="M268.516,158.746c-5.984,3.626-11.06,5.338-16.425,6.569
		c5.25-4.863,7.791-7.429,13.774-11.055c5.984-3.627,12.476-5.521,17.693-7.001C279.736,150.242,274.5,155.119,268.516,158.746z"/>
	<path fill="none" stroke="#000000" stroke-width="2.37" d="M227.85,217.369c0.396-0.227-3.251-31.988,21.014-65.019"/>
	<path fill="#FF0000" stroke="#000000" d="M265.172,150.42c0.406,0.691,0.052,1.633-0.793,2.102s-1.859,0.289-2.266-0.402
		c-0.406-0.691-0.052-1.632,0.793-2.102C263.751,149.549,264.765,149.73,265.172,150.42L265.172,150.42z"/>
	<path fill="#FF0000" stroke="#000000" d="M275.952,144.06c0.407,0.691,0.052,1.633-0.792,2.102
		c-0.845,0.469-1.859,0.289-2.266-0.402c-0.407-0.69-0.052-1.632,0.792-2.101C274.531,143.189,275.545,143.369,275.952,144.06
		L275.952,144.06z"/>
	<path fill="#FF0000" stroke="#000000" d="M245.805,165.272c0.284,0.528-0.246,1.337-1.184,1.807
		c-0.938,0.469-1.93,0.421-2.215-0.107c-0.285-0.529,0.245-1.338,1.184-1.807C244.528,164.695,245.52,164.743,245.805,165.272
		L245.805,165.272z"/>
	<path fill="#FF0000" stroke="#000000" d="M248.924,163.911c0.285,0.528-0.246,1.338-1.184,1.807
		c-0.938,0.47-1.93,0.421-2.214-0.107c-0.285-0.528,0.245-1.338,1.184-1.807S248.64,163.383,248.924,163.911L248.924,163.911z"/>
	<path fill="#FF0000" stroke="#000000" d="M247.134,166.822c0.285,0.528-0.246,1.338-1.184,1.807s-1.93,0.421-2.214-0.107
		c-0.285-0.528,0.245-1.338,1.184-1.807C245.858,166.244,246.85,166.293,247.134,166.822L247.134,166.822z"/>
	<path fill="#FF0000" stroke="#000000" stroke-width="0.2236" d="M252.646,167.252c0.407,0.813-0.024,1.853-0.963,2.321
		c-0.939,0.47-2.029,0.19-2.435-0.623c-0.406-0.813,0.024-1.853,0.963-2.321C251.15,166.159,252.239,166.439,252.646,167.252z"/>
	<path fill="#FF0000" stroke="#000000" stroke-width="0.2236" d="M254.936,164.872c0.407,0.813-0.024,1.853-0.963,2.321
		c-0.938,0.47-2.028,0.19-2.435-0.623c-0.406-0.813,0.024-1.853,0.963-2.321C253.44,163.78,254.529,164.059,254.936,164.872z"/>
	<path fill="#FF0000" stroke="#000000" stroke-width="0.2236" d="M255.516,166.022c0.407,0.813-0.024,1.854-0.963,2.322
		c-0.938,0.469-2.029,0.189-2.435-0.623c-0.406-0.813,0.024-1.854,0.963-2.322S255.109,165.209,255.516,166.022z"/>
	<path fill="#0000C4" stroke="#000000" d="M204.864,180.948c0,10.984-20.551,131.812,30.827,164.765
		c20.551,10.983,51.378-10.984,51.378,0l-10.272-87.879L204.864,180.948L204.864,180.948z"/>
	<path fill="#E10000" stroke="#000000" d="M225.419,202.914c0,10.984-10.275,98.858,20.551,120.825
		c20.552,21.969,71.932,16.01,71.932,16.01l-41.104-81.914l-51.376-54.92L225.419,202.914z"/>
	<path d="M183.85,158.08l94.775,99.909l1.662-1.572l-94.776-99.91L183.85,158.08L183.85,158.08z"/>
	<path fill="#CECECC" stroke="#000000" d="M169.263,146.086l6.024,1.063l1.771,1.771c-0.252-0.009,1.771,1.771-0.709,4.252
		c-2.48,2.48-6.023-1.063-6.023-1.063s1.063,6.023,4.606,9.566c3.543,3.543,7.795,2.835,7.795,2.835s-4.035-3.305-1.063-6.023
		c2.973-2.72,4.252-0.709,4.252-0.709l3.543,3.543l2.48-2.48l-14.173-14.173l-1.063-6.023l-9.114-1.516L169.263,146.086
		L169.263,146.086z"/>
	<path fill="#CECECC" stroke="#000000" d="M183.166,104.146l7.289,11.298l9.212,2.48l-6.023,3.897l10.984-0.354l4.96,3.544
		l1.772-2.835l-4.96-3.543l-3.898-10.984l-1.063,7.441l-5.669-8.15L183.166,104.146z"/>
	<path fill="#E10000" stroke="#000000" d="M212.762,110.888c0,0.62-0.783,1.124-1.748,1.124s-1.749-0.504-1.749-1.124
		s0.784-1.124,1.748-1.124C211.979,109.764,212.762,110.268,212.762,110.888z M210.265,113.261c0,10.74,8.366,56.343,9.032,57.468
		c0.057,1.332-1.887,1.915-2.831,0.25c-2.62-5.203-8.297-47.974-8.533-57.966c-0.098-4.121,1.504-4.44,3.33-4.371
		c1.504,0.063,3.33,1.117,3.33,2.373C214.594,112.513,212.262,113.637,210.265,113.261L210.265,113.261z"/>
	<path fill="#0000C4" stroke="#000000" d="M216.067,121.501c-0.31,0.62-1.306,0.928-2.223,0.687s-1.409-0.94-1.1-1.562
		c0.311-0.62,1.307-0.928,2.223-0.687C215.886,120.181,216.377,120.881,216.067,121.501z M212.508,123.249
		c2.753,21.573-6.501,54.903-6.431,56.195c-0.612,1.346-2.75,1.442-2.814-0.459c-0.445-1.242,10.213-31.32,7.155-56.567
		c1.967-4.145,3.648-4.064,5.349-3.538c1.397,0.438,2.605,1.949,1.977,3.205C216.995,123.584,214.218,124.124,212.508,123.249
		L212.508,123.249z"/>
	<path fill="#E10000" stroke="#000000" stroke-width="0.5" d="M186.655,151.54c0,1.033-0.979,1.873-2.186,1.873
		c-1.207,0-2.186-0.84-2.186-1.873c0-1.034,0.979-1.873,2.185-1.873C185.676,149.667,186.655,150.507,186.655,151.54z
		 M183.533,155.495c0,17.899,10.458,93.904,11.291,95.779c0.07,2.221-2.359,3.191-3.539,0.416
		c-3.275-8.671-10.371-79.955-10.666-96.609c-0.122-6.867,1.88-7.4,4.163-7.285c1.88,0.104,4.163,1.862,4.163,3.955
		c0,2.498-2.915,4.37-5.412,3.746V155.495z"/>
	<path fill="#0000C4" stroke="#000000" d="M192.092,160.7c-0.414,0.992-1.689,1.504-2.847,1.143
		c-1.159-0.362-1.763-1.461-1.349-2.454c0.413-0.992,1.69-1.505,2.847-1.143C191.902,158.608,192.506,159.708,192.092,160.7z
		 M187.513,163.561c2.832,34.201-9.967,87.357-9.918,89.407c-0.82,2.152-3.541,2.355-3.563-0.662
		c-0.527-1.963,13.956-49.986,10.85-90.017c2.629-6.629,4.765-6.54,6.911-5.745c1.763,0.665,3.251,3.037,2.414,5.046
		c-0.999,2.397-4.547,3.32-6.694,1.972L187.513,163.561z"/>
	<path d="M370.454,290.834l72.423,76.484l1.277-1.644L371.73,289.19L370.454,290.834L370.454,290.834z M320,303.334l94.778,99.907
		l1.661-1.571l-94.776-99.91L320,303.334L320,303.334z"/>
	<path fill="#808080" stroke="#000000" stroke-width="4.104" d="M414.479,402.089l8.857,8.858l10.099,7.617l-7.618-10.098
		l-8.858-8.858L414.479,402.089z"/>
	<path fill="#808080" stroke="#000000" stroke-width="4.104" d="M438.918,363.059l8.858,8.858l10.099,7.618l-7.618-10.099
		l-8.858-8.858L438.918,363.059z"/>
	<path fill="#FFDF00" stroke="#000000" d="M432.119,114.858c0,0,7.972,215.43-23.918,215.43s-47.835-22.677-47.835-22.677
		l0.388-118.419l71.365-74.336V114.858z"/>
	<path fill="#0000C4" stroke="#000000" d="M412.643,134.928c0,11.339,3.531,172.685-12.414,172.685
		c-15.944,0-39.862-11.339-39.862-11.339l0.388-107.078l51.889-54.266V134.928z"/>
	<path fill="#E10000" stroke="#000000" d="M402.266,145.782c0,11.339-2.036,139.148-17.98,139.148h-23.918l0.387-95.737
		l41.512-43.413V145.782z"/>
	<path d="M433.814,116.02l-72.424,76.485l-1.275-1.643l72.423-76.484L433.814,116.02L433.814,116.02z"/>
	<path fill="#005B00" stroke="#000000" d="M376.663,175.083c0,0,20.298,26.007,30.085,46.146s21.205,50.906,21.205,50.906
		s-6.524-30.289-18.848-54.551C392.976,187.135,376.663,176.827,376.663,175.083L376.663,175.083z"/>
	<path fill="#005B00" stroke="#000000" d="M375.939,154.39c0,0,22.654,32.17,32.985,56.07c10.33,23.899,21.816,59.809,21.816,59.809
		s-5.573-34.547-18.667-63.432C394.835,170.475,375.803,156.316,375.939,154.39L375.939,154.39z"/>
	<path fill="#005B00" stroke="#000000" d="M395.467,122.582c0,0,16.039,47.665,20.911,77.161c4.87,29.496,7.815,70.141,7.815,70.141
		s3.104-34.117-3.443-70.319C411.689,153.303,394.81,124.077,395.467,122.582L395.467,122.582z"/>
	<path fill="#005B00" stroke="#000000" d="M381.104,120.307c0,0,22.201,42.318,30.834,71.112
		c8.631,28.793,16.719,70.411,16.719,70.411s-1.155-37.81-12.324-72.855C401.359,144.547,380.628,122.232,381.104,120.307
		L381.104,120.307z"/>
	<path fill="#005B00" stroke="#000000" d="M407.738,133.844c0,0,11.055,45.581,13.819,72.789
		c2.764,27.208,3.534,63.955,3.534,63.955s3.851-29.745,0-63.25C419.61,164.384,407.148,135.044,407.738,133.844L407.738,133.844z"
		/>
	<path fill="#005B00" stroke="#000000" d="M378.551,135.089c0,0,21.477,36.247,30.154,61.62
		c8.677,25.372,17.195,62.527,17.195,62.527s-2.063-34.435-13.23-65.244c-14.905-38.968-34.504-57.092-34.117-58.903H378.551z"/>
	<path fill="#005B00" stroke="#000000" d="M374.589,160.436c0,0,22.655,28.726,32.985,50.768
		c10.331,22.043,21.816,55.596,21.816,55.596s-5.572-32.871-18.666-59.444C393.484,173.983,374.453,162.316,374.589,160.436
		L374.589,160.436z"/>
	<path fill="#005B00" stroke="#000000" d="M377.478,147.163c0,0,20.842,33.801,29.904,58.29c9.062,24.489,18.69,60.896,18.69,60.896
		s-3.852-34.502-15.405-64.156C395.377,164.788,377.251,149.043,377.478,147.163L377.478,147.163z"/>
	<path fill="#005B00" stroke="#000000" d="M400.124,123.303c0,0,13.411,46.668,16.72,75.19c3.307,28.521,4.146,67.557,4.146,67.557
		s4.803-32.372,0.181-67.418C414.579,153.797,399.398,124.684,400.124,123.303L400.124,123.303z"/>
	<path fill="#005B00" stroke="#000000" d="M381.641,111.63c0,0,19.573,43.949,26.643,73.332c7.068,29.383,13.049,71.5,13.049,71.5
		s0.544-37.765-8.699-73.581C400.129,137.411,381.097,113.51,381.641,111.63L381.641,111.63z"/>
	<path fill="#005B00" stroke="#000000" d="M412.765,137.202c0,0,8.427,43.769,9.629,69.708c1.2,25.939-0.137,60.829-0.137,60.829
		s5.551-28.023,3.625-59.988C422.87,166.745,412.107,138.312,412.765,137.202L412.765,137.202z"/>
	<path fill="#005B00" stroke="#000000" d="M379.19,129.812c0,0,19.573,37.879,26.643,63.841
		c7.068,25.962,13.049,63.615,13.049,63.615s0.544-34.39-8.699-65.969C397.679,151.288,378.646,131.578,379.19,129.812
		L379.19,129.812z"/>
	<path fill="#FFDF00" stroke="#000000" d="M455.706,158.981c0,0,20.551,208.698-41.103,208.698
		c-51.378,0-51.378-32.953-61.654-32.953l10.277-76.893l92.481-98.853H455.706z"/>
	<path fill="#0000C4" stroke="#000000" d="M435.156,180.948c0,10.984,20.551,131.812-30.827,164.765
		c-20.551,10.983-51.377-10.984-51.377,0l10.271-87.879L435.156,180.948L435.156,180.948z"/>
	<path fill="#E10000" stroke="#000000" d="M414.602,202.914c0,10.984,10.275,98.858-20.552,120.825
		c-20.551,21.969-71.932,16.01-71.932,16.01l41.104-81.914l51.377-54.92L414.602,202.914z"/>
	<path d="M456.172,158.08l-94.777,99.909l-1.66-1.572l94.775-99.91L456.172,158.08L456.172,158.08z"/>
	<path fill="#CECECC" stroke="#000000" d="M470.747,146.086l-6.024,1.063l-1.771,1.771c0.252-0.009-1.771,1.771,0.709,4.252
		s6.023-1.063,6.023-1.063s-1.063,6.023-4.606,9.566c-3.543,3.543-7.795,2.835-7.795,2.835s4.036-3.305,1.063-6.023
		c-2.974-2.72-4.252-0.709-4.252-0.709l-3.544,3.543l-2.48-2.48l14.173-14.173l1.063-6.023l9.114-1.516L470.747,146.086
		L470.747,146.086z"/>
	<path fill="#CECECC" stroke="#000000" d="M456.854,104.146l-7.289,11.298l-9.213,2.48l6.023,3.897l-10.983-0.354l-4.961,3.544
		l-1.771-2.835l4.96-3.543l3.897-10.984l1.063,7.441l5.669-8.15L456.854,104.146z"/>
	<path fill="#E10000" stroke="#000000" d="M427.278,110.888c0,0.62,0.783,1.124,1.748,1.124s1.749-0.504,1.749-1.124
		s-0.785-1.124-1.748-1.124C428.062,109.764,427.278,110.268,427.278,110.888z M429.775,113.261c0,10.74-8.366,56.343-9.032,57.468
		c-0.057,1.332,1.887,1.915,2.831,0.25c2.619-5.203,8.297-47.974,8.532-57.966c0.098-4.121-1.504-4.44-3.33-4.371
		c-1.505,0.063-3.33,1.117-3.33,2.373C425.446,112.513,427.778,113.637,429.775,113.261L429.775,113.261z"/>
	<path fill="#0000C4" stroke="#000000" d="M423.942,121.501c0.311,0.62,1.306,0.928,2.223,0.687s1.409-0.94,1.1-1.562
		c-0.311-0.62-1.307-0.928-2.223-0.687C424.125,120.181,423.633,120.881,423.942,121.501z M427.502,123.249
		c-2.754,21.573,6.501,54.903,6.431,56.195c0.612,1.346,2.75,1.442,2.814-0.459c0.444-1.242-10.214-31.32-7.155-56.567
		c-1.967-4.145-3.648-4.064-5.349-3.538c-1.397,0.438-2.604,1.949-1.978,3.205C423.016,123.584,425.792,124.124,427.502,123.249
		L427.502,123.249z"/>
	<path fill="#E10000" stroke="#000000" stroke-width="0.5" d="M453.345,151.54c0,1.033,0.979,1.873,2.186,1.873
		c1.207,0,2.186-0.84,2.186-1.873c0-1.034-0.979-1.873-2.185-1.873C454.324,149.667,453.345,150.507,453.345,151.54z
		 M456.467,155.495c0,17.899-10.458,93.904-11.291,95.779c-0.07,2.221,2.359,3.191,3.539,0.416
		c3.275-8.671,10.371-79.955,10.666-96.609c0.122-6.867-1.88-7.4-4.163-7.285c-1.88,0.104-4.163,1.862-4.163,3.955
		c0,2.498,2.915,4.37,5.412,3.746V155.495z"/>
	<path fill="#0000C4" stroke="#000000" d="M447.897,160.7c0.414,0.992,1.689,1.504,2.847,1.143c1.158-0.362,1.764-1.461,1.35-2.454
		c-0.414-0.992-1.69-1.505-2.847-1.143C448.088,158.608,447.484,159.708,447.897,160.7z M452.477,163.561
		c-2.831,34.201,9.968,87.357,9.918,89.407c0.821,2.152,3.541,2.355,3.564-0.662c0.527-1.963-13.957-49.986-10.851-90.017
		c-2.63-6.629-4.765-6.54-6.91-5.745c-1.763,0.665-3.251,3.037-2.414,5.046c0.999,2.397,4.546,3.32,6.694,1.972L452.477,163.561z"/>
	<path fill="#E10000" stroke="#000000" d="M287.073,422.598c10.275,6.604,21.512,5.127,30.827,0v-87.872h-20.551
		C307.625,367.679,307.625,400.632,287.073,422.598z"/>
	<path fill="#0000C4" stroke="#000000" d="M303.303,336.685c0,62.007-14.863,75.789-14.863,88.187
		c6.201,0,10.313-5.774,14.863-13.78c6.201-12.401,6.799-75.376,6.201-74.409h-6.201V336.685z"/>
	<path fill="#0000C4" stroke="#000000" d="M290.902,336.685c-0.283,36.239-15.678,69.748-12.774,77.168
		c3.316,6.633,12.774-15.157,25.175-2.756c6.201-12.401,6.8-75.376,6.201-74.41h-18.603V336.685z"/>
	<path fill="#FFDF00" stroke="#000000" d="M292.343,331.347c0,40.747-14.243,43.456-14.243,54.321
		c6.201,0,14.211-5.939,14.243-5.424c6.201-8.15,6.799-49.532,6.201-48.897H292.343z"/>
	<path fill="#FFDF00" stroke="#000000" d="M279.942,331.347c-0.283,23.813-15.306,44.022-12.401,48.897
		c3.316,4.359,12.401-8.149,24.804,0c6.2-8.149,6.799-49.532,6.2-48.897H279.942z"/>
	<path fill="#E10000" stroke="#000000" d="M352.947,422.609c-10.275,6.604-21.512,5.116-30.827-0.01v-87.866h20.552
		c-10.276,32.953-10.276,65.906,10.275,87.873V422.609z"/>
	<path fill="#0000C4" stroke="#000000" d="M336.707,336.695c0,62.008,14.863,75.789,14.863,88.187
		c-6.201,0-10.313-5.773-14.863-13.779c-6.201-12.402-6.799-75.377-6.201-74.41h6.201V336.695z"/>
	<path fill="#0000C4" stroke="#000000" d="M349.107,336.695c0.283,36.239,15.678,69.748,12.774,77.168
		c-3.316,6.633-12.774-15.157-25.176-2.756c-6.201-12.401-6.8-75.376-6.201-74.409h18.603V336.695z"/>
	<path fill="#FFDF00" stroke="#000000" d="M347.688,331.357c0,40.748,14.243,43.456,14.243,54.321
		c-6.201,0-14.211-5.939-14.243-5.423c-6.201-8.15-6.8-49.533-6.201-48.898H347.688z"/>
	<path fill="#FFDF00" stroke="#000000" d="M360.088,331.347c0.283,23.813,15.305,44.022,12.401,48.897
		c-3.316,4.359-12.401-8.149-24.804,0c-6.2-8.149-6.799-49.532-6.2-48.897H360.088z"/>
	<path fill="#908F8A" stroke="#000000" stroke-width="4.467" d="M241.627,341.509l-10.761,7.796l10.761,7.795l5.381-3.897
		l2.69,3.897l2.69,7.795l2.69-7.795l2.69-3.897l144.229-0.001v-7.795H257.769l-2.69-3.897c0-3.897,0.564-7.795,2.69-7.795
		s6.509-0.001,10.761-0.001c0-3.897-5.38-11.693-16.141-11.693s-16.142,7.796-16.142,11.693h10.761c2.126,0,2.69,3.898,2.69,7.795
		l-2.693,3.898l-5.381-3.898L241.627,341.509z"/>
	<path fill="#B74D00" stroke="#000000" stroke-width="1.838" d="M273.278,360.431h94.251v4.784h-94.251V360.431z"/>
	<path fill="#B74D00" stroke="#000000" stroke-width="1.838" d="M273.278,355.648h94.251v4.784h-94.251V355.648z M273.278,350.864
		h94.251v4.784h-94.251V350.864z"/>
	<path fill="#B74D00" stroke="#000000" stroke-width="1.838" d="M273.278,346.08h94.251v4.784h-94.251V346.08z M273.278,341.297
		h94.251v4.783h-94.251V341.297z"/>
	<path fill="#B74D00" stroke="#000000" stroke-width="1.838" d="M273.278,336.514h94.251v4.783h-94.251V336.514z M273.278,331.731
		h94.251v4.783h-94.251V331.731z"/>
	<path fill="#908F8A" stroke="#000000" stroke-width="3.255" d="M277.697,331.444l34.45,33.485h4.921l-34.45-33.485H277.697z"/>
	<path fill="#908F8A" stroke="#000000" stroke-width="3.255" d="M277.697,365.926l34.45-33.485h4.921l-34.45,33.485H277.697z"/>
	<path fill="#908F8A" stroke="#000000" stroke-width="3.087" d="M278.616,331.444v33.485h4.96v-33.485H278.616z"/>
	<path fill="#908F8A" stroke="#000000" stroke-width="3.255" d="M322.037,331.444l34.45,33.485h4.922l-34.45-33.485H322.037z"/>
	<path fill="#908F8A" stroke="#000000" stroke-width="3.255" d="M322.037,365.926l34.45-33.485h4.922l-34.45,33.485H322.037z"/>
	<path fill="#908F8A" stroke="#000000" stroke-width="3.087" d="M357.456,331.444v33.485h4.96v-33.485H357.456z"/>
	<path fill="#908F8A" stroke="#000000" stroke-width="3.087" d="M322.966,331.444v33.485h4.961v-33.485H322.966z"/>
	<path fill="#908F8A" stroke="#000000" stroke-width="3.087" d="M313.106,331.444v33.485h4.96v-33.485H313.106z"/>
	<path fill="#FFDF00" stroke="#000000" d="M389.826,235.867c0,54.569-32.226,98.858-71.932,98.858
		c-39.705,0-71.932-44.288-71.932-98.859c0-54.568,32.225-98.858,71.932-98.858C357.6,137.008,389.826,181.296,389.826,235.867
		L389.826,235.867z M379.55,235.867c0,48.507-27.621,87.872-61.654,87.872c-34.032,0-61.653-39.367-61.653-87.872
		c0-48.507,27.62-87.873,61.653-87.873S379.55,187.363,379.55,235.867z"/>
	<path fill="#FFDF00" stroke="#000000" d="M345.885,144.782c-8.604-5.004-18.063-7.772-27.989-7.772
		c-9.927,0-19.385,2.769-27.989,7.772l3.998,10.12c7.375-4.448,15.483-6.909,23.991-6.909c8.508,0,16.615,2.461,23.991,6.909
		L345.885,144.782L345.885,144.782z"/>
	<path fill="#FFDF00" stroke="#000000" d="M346.005,324.347c-8.604,5.005-18.063,7.772-27.989,7.772
		c-9.927,0-19.385-2.768-27.989-7.772l3.998-10.12c7.375,4.448,15.483,6.909,23.991,6.909c8.508,0,16.615-2.46,23.991-6.909
		L346.005,324.347L346.005,324.347z"/>
	<path fill="#A7CFFF" d="M379.554,235.866c0,48.532-27.603,87.873-61.654,87.873c-34.05,0-61.654-39.343-61.654-87.873
		c0-48.531,27.603-87.873,61.654-87.873C351.95,147.993,379.554,187.337,379.554,235.866z"/>
	<path fill="#AFFF7B" stroke="#000000" d="M379.554,235.867c0.657,16.527-2.688,24.573-6.896,41.76
		c-1.109,1.848-6.361-4.053-9.54-6.966s-4.53,2.629-8.431-1.889c-3.901-4.516-6.41,1.276-9.271-2.539
		c-2.861-3.814-29.754-4.375-29.792-4.703c2.662-1.411,16.397,0.095,14.195-6.939c-2.494-7.267-18.034-0.217-20.12-9.525
		c-1.415-9.243-31.069-9.637-33.188-11.92c0.837,3.513,23.042,4.991,22.512,13.993c-0.483,3.668-21.861,4.74-23.923,7.845
		c-1.766,3.902,16.777-1.059,17.466,3.739c-0.044,1.975-2.728,0.043-12.387,3.094c-4.829,1.525,8.963,6.405,3.718,9.075
		c-5.246,2.671-16.391,3.837-15.911,4.959c1.705,5.522,25.922,12.112,23.51,13.061c-8.557,4.066-13.081,6.74-17.184,9.084
		c-11.159-15.905-18.064-37.874-18.064-62.124c18.396-7.071,14.481-8.516,48.514-8.516s45.228,1.444,74.791,8.516L379.554,235.867z"
		/>
	<path fill="#FFFFFF" stroke="#000000" d="M379.554,235.867c-4.681,0-9.543,2.107-14.54,2.107c-4.998,0-10.13-2.107-15.351-2.107
		s-11.187,2.81-16.537,2.81c-5.35,0-10.085-2.809-15.472-2.809c-5.386,0-10.768,2.105-16.098,2.105
		c-5.329,0-10.606-2.107-15.786-2.107s-10.26,2.107-15.196,2.107c-4.936,0-9.727-2.107-14.326-2.107
		c0-12.127,1.726-23.683,4.848-34.193c15.704,1.24,6.404-9.744,15.704-9.744c5.02,0,10.111,1.153,14.638,6.069
		c1.419,0,8.398-7.052,16.189-6.069c7.79,0.983,4.925,16.909,15.294,17.756c5.257,4.214,8.349,6.902,15.533,8.601
		c10.275,0.995,39.643-1.551,39.848-0.121C379.139,224.023,379.558,229.941,379.554,235.867L379.554,235.867z"/>
	<path stroke="#000000" d="M327.2,286.991c0-2.719,2.702-4.542,2.702-8.892s-2.383-4.488-2.477-8.573
		c-0.039-1.66,2.064-3.382,2.983-3.521s1.698,3.562,1.698,4.378c0,0.815-0.932-2.013-1.715-2.102
		c-0.783-0.09-2.463,0.302-2.463,1.118c0,1.632,2.97,3.646,2.743,9.084c-0.226,5.437-2.542,7.035-2.542,8.666
		s1.012,6.173,1.012,6.173S327.199,289.709,327.2,286.991L327.2,286.991z"/>
	<path stroke="#000000" d="M335.86,286.612c0-2.719-2.702-4.542-2.702-8.892s2.39-4.487,2.476-8.573
		c0.188-1.901-2.363-3.141-3.282-3.279s-1.997,3.801-1.997,4.617s1.082-2.493,1.865-2.582s2.911,0.302,2.911,1.118
		c0,1.631-2.971,3.646-2.744,9.083c0.227,5.438,2.542,7.036,2.542,8.667s-1.011,6.173-1.011,6.173S335.86,289.329,335.86,286.612
		L335.86,286.612z"/>
	<path d="M332.965,264.846c0,1.333-0.65,2.413-1.454,2.413c-0.803,0-1.454-1.08-1.454-2.414s0.65-2.413,1.455-2.413
		s1.455,1.08,1.455,2.413L332.965,264.846z M349.916,273.81h0.465v19.617h-0.464L349.916,273.81z M354.098,272.323h0.465v19.616
		h-0.465V272.323z"/>
	<path d="M352.597,281.23l0.005-0.493l3.978,0.685l-0.004,0.495L352.597,281.23z"/>
	<path fill="#B74D00" stroke="#000000" d="M295.401,286.923c0,0,15.11,7.023,18.395,11.237s1.971,4.213,1.971,4.213l33.507,1.405
		c0-2.106,5.912-2.108,7.227-7.023c1.313-4.916,1.313-6.32,1.313-6.32l-10.512,3.512l0.657-6.32h-9.197l-1.314,6.32l-19.709-0.702
		l1.314-16.855l-3.941,0.702l-0.657,16.152C313.795,293.243,296.057,288.327,295.401,286.923L295.401,286.923z"/>
	<path fill="#FEDE00" stroke="#FEDE00" d="M265.137,185.913c0,0,21.834-6.952,53.424-6.456c31.589,0.497,53.423,7.945,52.96,7.945
		c-0.465,0-6.041-11.422-6.041-11.422s-22.299-6.455-47.384-6.951c-25.087-0.496-46.921,4.966-46.457,5.462L265.137,185.913z"/>
	<path fill="#38A9F9" d="M306.072,169.855l13.562-0.262l0.137,7.899l-13.56,0.265L306.072,169.855z M274.775,174.155l-4.783,7.784
		l16.165-1.992l-1.297-7.782L274.775,174.155L274.775,174.155z M288.553,171.159l13.519-1.187l0.62,7.876l-13.516,1.188
		L288.553,171.159z M337.39,170.354l-13.538-0.91l-0.475,7.889l13.537,0.909L337.39,170.354z M366.572,175.307l4.918,9.69
		l-14.643-3.614l1.631-7.714L366.572,175.307L366.572,175.307z M354.836,172.49l-13.453-1.83l-0.957,7.838l13.453,1.832
		L354.836,172.49z"/>
	<path fill="#FFDF00" stroke="#000000" d="M318.561,190.384l-1.497-8.352l-4.373,7.105l1.606-8.327l-6.577,4.774l4.466-7.037
		l-7.789,1.724l6.641-4.675l-7.813-1.6l7.813-1.6l-6.641-4.669l7.789,1.718l-4.466-7.037l6.577,4.774l-1.606-8.327l4.373,7.105
		l1.497-8.352l1.491,8.352l4.373-7.105l-1.606,8.327l6.583-4.774l-4.472,7.037l7.795-1.718l-6.646,4.669l7.813,1.6l-7.813,1.6
		l6.646,4.675l-7.795-1.724l4.472,7.037l-6.583-4.774l1.606,8.327l-4.373-7.105L318.561,190.384z"/>
	<path fill="#FFDF00" stroke="#000000" d="M330.089,168.68c0,4.645-3.782,8.41-8.446,8.41c-4.665,0-8.446-3.766-8.446-8.41
		c0-4.646,3.781-8.41,8.446-8.41C326.307,160.27,330.089,164.034,330.089,168.68z"/>
	<path d="M320.676,170.552c0,0.545-1.257,0.988-2.807,0.988c-1.55,0-2.807-0.443-2.807-0.988s1.256-0.988,2.806-0.988
		c1.55,0,2.806,0.442,2.806,0.988H320.676z M326.755,170.55c0,0.547-0.942,0.99-2.104,0.99s-2.105-0.443-2.105-0.99
		c0-0.544,0.942-0.987,2.105-0.987C325.813,169.563,326.755,170.006,326.755,170.55L326.755,170.55z"/>
	<path fill="none" stroke="#000000" d="M320.407,174.048l0.584,0.336c-1.387-0.798-0.749-0.495,1.442,1.634
		c1.256-0.728,1.494-1.39,2.283-2.307"/>
	<path fill="none" stroke="#000000" d="M314.841,178.467l0.464,0.496c-1.103-1.178-0.651-0.616,1.858,0.994
		c2.336,0.337,4.693-0.741,6.039-2.483"/>
	<path fill="#B7E1FF" d="M281.395,194.854c0,0,0.93,7.945-5.11,17.877c-6.04,9.934-5.11,6.457-5.11,6.457s2.787,5.462,2.323,5.462
		s-4.646-4.966-4.646-4.966l-5.11,5.462c0,0,4.646-8.441,4.18-8.441s-1.393-2.98-1.393-2.98l3.715-1.49c0,0,5.575-10.428,5.575-9.93
		s-16.725,11.42-16.725,11.42L281.395,194.854z M285.113,197.836c-0.465,0,2.322,7.945,4.645,11.918
		c2.323,3.973,2.323,8.939,2.323,8.939l7.9,3.973l-10.222-15.395l6.504,2.482L285.113,197.836z M285.113,218.693
		c0,0,5.574,5.96,6.04,7.945c0.466,1.985,0.463,6.456,0.463,6.456l-2.322-4.966l-3.252,4.47c0,0,2.323-6.953,1.858-7.45
		c-0.465-0.497-3.717,2.484-3.717,2.484s1.394-3.974,1.394-4.47C285.577,222.665,285.577,220.182,285.113,218.693L285.113,218.693z
		 M257.238,232.593c1.857-1.49,5.574-2.482,5.574-2.482s-2.323,3.974-2.787,3.974C259.561,234.084,258.167,234.084,257.238,232.593
		L257.238,232.593z M321.345,210.745c0,0,12.078,7.449,12.078,7.945s-7.897-3.476-7.897-3.476L321.345,210.745L321.345,210.745z
		 M299.514,195.35c0.93,0.497,17.653,14.4,17.188,14.4c-0.465,0-7.432-3.973-7.432-3.476v3.477l-3.717-7.945l-0.93,2.979
		L299.514,195.35L299.514,195.35z M303.69,217.695l4.646,9.436l4.645-0.993C312.981,226.137,304.156,217.695,303.69,217.695
		L303.69,217.695z M318.097,211.737c0,1.49,0.465,8.938,0.465,8.938s2.787,2.482,2.787,1.987
		C321.349,222.166,318.561,212.232,318.097,211.737L318.097,211.737z"/>
	<path fill="#984000" d="M182.612,89.522c0,0,20.979-11.609,44.87-20.254c23.886-8.644,50.68-14.325,54.222-14.325
		c7.077,0,19.21,17.783,21.233,17.783c2.022,0,10.11-4.94,20.223-4.94s16.178,7.904,18.199,7.904h18.201
		c2.022,0-6.066-19.76,0-18.77c3.033,0.493,28.816,4.444,52.832,12.225c24.015,7.78,58.104,21.515,58.104,21.515
		s-55.714,7.44-70.488,5.24c-2.021,0.988-0.1,13.07-2.933,7.754c-4.656-1.063-21.744-3.727-24.778-3.727s-8.689,3.427-16.779,5.402
		c-8.089,1.976-18.201,4.939-18.201,4.939l13.146,20.747l-16.178,7.903c0,0-10.11-23.71-14.156-23.71s-6.067,16.795-11.123,15.807
		c-5.056-0.988-7.078-15.808-11.123-19.76c-4.044-3.95-25.368-5.391-33.458-7.366c-8.09-1.975-21.144-3.5-28.222-5.476
		c-7.078-1.977-14.155,4.939-17.19,4.939c-3.032,0,4.046-5.928,1.012-6.916c-3.034-0.988-5.055,2.964-7.078,2.964
		s-23.256-3.952-25.278-4.939c-2.022-0.988,5.056-4.94,3.034-4.94H182.612L182.612,89.522z"/>
	<path fill="#808080" stroke="#772600" stroke-width="3.706" d="M333.47,79.635c0,5.499-4.51,9.958-10.073,9.958
		c-5.564,0-10.075-4.459-10.075-9.958c0-5.498,4.51-9.957,10.074-9.957S333.47,74.137,333.47,79.635z"/>
	<path fill="#984000" stroke="#772600" stroke-width="5.25" d="M282.27,81.467c1.798-2.131,4.047-5.328,9.891-5.328
		c1.349-0.532,1.349-3.729,4.496-3.729c3.147,0,2.248,3.196,4.496,4.262c2.248,1.066,20.681-1.065,20.681-1.065
		s1.799,1.599,1.799,3.73c0,2.131-1.349,3.729-1.799,3.729c-0.449,0-18.433-1.598-19.781-1.065
		c-1.349,0.533-2.248,1.065-5.396,1.065c-3.146,0-4.046-3.729-6.293-3.729C288.114,79.336,285.866,78.804,282.27,81.467
		L282.27,81.467z"/>
	<path fill="none" stroke="#772600" stroke-width="3.5" d="M337.117,80.389h7.193c2.585,0.036,3.477,0.961,5.845,1.065h6.294
		c2.289-0.101,3.497-0.734,5.845-1.065c3.916-0.057,2.58-0.418,1.798-3.197c-0.708-2.101-0.796-3.075-1.798-4.263
		c-0.377-2.542-1.257-3.446-1.349-6.394c-0.412-2.249-1.172-3.761-0.449-6.395c1.036,1.807,1.454,2.55,4.046,2.664
		c2.712,0,3.763-0.065,5.396,1.065c1.259,1.565,2.938,1.065,5.395,1.065c2.073,0.45,2.42,1.7,4.047,2.665
		c1.918,1.259,3.157,1.599,5.844,1.599c2.151,0.454,4.018,0.824,5.395,1.598c1.147,1.626,2.957,2.028,5.396,2.132
		c1.364,0,2.417-0.168,3.597-0.533c2.073,0.118,4.178,0,6.744,0c1.664,2.308,2.049,3.156,4.945,3.197
		c1.981,1.649,3.652,1.932,5.396,2.664h6.743c2.41,0.22,3.184,1.393,5.395,2.132c2.191,1.205,4.245,2.031,5.846,2.664
		c1.59,0.409,3.664,0.532,5.844,0.532c1.67,1.017,3.675,1.107,4.945,2.132c1.86,0.473,4.402,1.028,5.845,1.599
		c2.381,0.374,3.291,1.261,5.396,1.599c1.81,0.612-0.601,1.139-1.799,1.598c-2.652-0.116-2.845-1.263-5.395-1.598
		c-1.356-0.941-3.413-0.815-5.395-1.6h-0.45c1.782,1.249,3.495,2.056,2.697,4.263c-2.292,0-4.149-0.351-6.294-0.532
		c-2.264-0.518-3.301-1.066-5.845-1.066c2.536-0.724,3.2,0.087,4.945,1.066c0.646,2.579-0.735,1.599-3.147,1.599
		c-2.055-0.874-3.287-1.915-5.845-2.132h-5.395c2.67,0.117,3.233,1.313,4.944,2.665c0.141,0.828-0.035,0.791-1.348,1.065
		c-1.394-1.434-3.211-1.925-5.396-2.665c-2.128-0.089-4.379-0.309-6.294-1.065c-1.314-0.097-1.111-1.977,1.799,1.065
		c1.764,1.23,2.385,2.224,2.247,3.197c-2.315-0.686-3.462-1.785-4.945-2.664c-2.089-0.913-3.814-1.065-6.294-1.065
		c-2.325-0.725,0.241-1.144,1.798,1.599c3.343,2.807-0.44,1.603-1.798,1.065c-2.027-0.686-4.127-1.659-5.845-2.131
		c-1.362-0.461-2.549-0.914-4.046-1.065c2.33,0.251,3.123,1.223,4.046,3.196c2.364,1.931-0.104,0.992-2.248,0.533
		c-1.369-1.408-3.102-2.131-4.046-3.729c-2.255-1.337-2.313-2.875-0.899,0.532c0.368,1.091,0.3,3.455,0.449,3.73
		c-1.656-2.12-1.303-2.664-3.146-2.664c-1.251-1.038-3.104-1.845-4.047-3.197c-1.737-0.193-1.847-0.928-3.597-1.599
		c1.442,2.008,3.346,3.993,4.496,5.861c2.052,1.357,2.619,2.579,4.047,3.729c0.577,1.165,2.134,2.13,0.449,0.533
		c-1.929-2.254-3.364-2.774-6.294-4.263c-1.661-1.587-2.261-2.254-4.047-3.73c-2.431-0.929-1.487-1.453,0,1.599
		c1.706,1.847,3.017,3.914,4.496,5.328c1.018,1.57,2.737,3.238,4.046,4.263c0.405,0.721,1.618,0.853,0,1.066
		c-1.374-1.472-3.347-2.41-4.945-3.73c-2.241-0.749-3.291-2.129-4.945-3.729c-1.053-1.872-2.803-3.321-4.046-4.796
		c-2.601-1.206,0.513,1.164,1.349,2.664c0.581,1.942,1.293,3.531,1.798,5.328c0.751,1.779-2.287-0.425-3.146-1.065
		c-1.977-1.33-3.423-2.22-5.845-2.664c-1.615-0.416-3.673-0.79-5.396-1.065c-2.056-0.656,1.091,1.536,2.248,3.729
		c2.272,2.531-2.249,0.456-3.597,0c-2.221-0.526-4.397-0.532-6.744-0.532c-2.881,0.2-0.823,0.623,0,2.131
		c0.888,0.81,1.522,2.514,1.35,3.197c-1.899-0.304-3.518-0.968-5.845-1.065c-1.88,0.742-4.144,0.532-6.294,0.532
		c-0.104,1.341,0.39,0.21,1.349,1.599c1.556,0.749,2.588,1.657,2.248,2.664h-13.038c-1.428,0.464,0.309,0.226,1.351,2.133
		c-0.583,1.729-1.337,1.066-3.147,1.066c-1.227-0.582-3.671-0.844-4.945-1.599c-1.266,0-1.171-0.391-2.248-0.533
		c3.79,3.178,1.91,2.384,4.047,4.796c0.369,0.146,1.221,0.532,0.449,0.532 M305.646,128.345c-0.27,0-0.864-1.721-1.798-3.197
		c-0.628-1.936-1.456-0.829-2.248-3.73c0.094-3.009,0.185-3.55,0-6.394c-1.853-1.531-2.623-2.007-4.046-4.796
		c-2.284-2.265,0.334-6.101,0.769-8.912c-1.991-0.524-2.97,3.673-6.032,5.183c-2.202,1.757-0.246-3.634-1.32-6.78
		c-0.749-4.439-2.923,2.226-3.756,4.115c-1.477,1.19-1.925,2.733-4.046,0.533c0-1.646,1.333-6.237,0.768-7.13
		c-2.11,1.221-4.884,4.957-7.063,5.531c-2.195-0.565,0.478-4.745,0.478-7.846c-0.793-0.313-3.968,8.241-5.271,8.32
		c-1.302,0.079-0.732-8.317-1.342-8.137c-0.957,1.587-2.876,4.938-4.206,6.063c-2.552-0.391,0.378-5.579,0.769-7.497
		c0.439-2.294-2.404,4.4-3.916,4.833c-1.106,1.137-3.304,1.942-4.046,2.131c0.875-1.962,5.15-5.987,4.843-7.129
		c-2.487,0.108-6.294,4.018-8.439,4.465c-1.401,0-3.345,0.563-3.597,0.532c0.121-2.536,5.243-4.688,6.061-6.229
		c-2.513,0.479-7.34,3.106-8.758,5.163c-1.659,0.428-3.765,0.967-5.396,0c0.242-2.392,4.011-7.039,4.843-8.563
		c-2.267,1.184-3.413,2.109-5.845,2.664c-0.446,0.528-1.762,1.674-1.349,0.533c0.717-2.223,1.803-3.235,2.697-4.796
		c-2.012,0.437-2.775,1.803-4.945,3.197c-1.375,0.07-5.304,4.753-6.641,4.833c-3.092,2.682-4.323,3.138-7.643,4.262
		c-2.048,0.435-3.041,0.939-4.046,2.132c1.025-2.141,2.591-4.189,4.046-5.328c0.993-1.781,1.922-3.263,4.046-4.263
		c0.512-0.742,1.94-0.93,0.449-1.065c-1.281,1.355-3.428,2.869-4.495,3.729c-1.378,1.026-2.973,2.073-3.597,1.599
		c0.708-2.304,2.008-2.849,3.147-4.796c2.378-1.793,0.011-0.612-1.798,0c-1.171,1.238-3.273,2.152-4.945,3.197
		c-1.92,0.595-3.16,1.963-5.395,2.665c0,0.76,0.638-1.36,0.899-2.132c1.844-2.371,2.337-3.032,4.495-3.73
		c0.517-0.917,1.193-0.532-0.449-0.532c-1.219,1.288-2.919,1.988-4.496,3.197c-1.591,0.41-3.665,0.533-5.845,0.533
		c-2.796,0.397-2.554,0.647,0-1.066c1.446-1.613,2.638-1.208,2.697-3.196c-1.688,1.449-3.744,2.515-5.844,3.729
		c-1.737,0.061-2.196,0.533-4.046,0.533c0.891-1.093,1.425-2.443,2.698-3.197c1.862-2.452-1.182-0.473-1.798,0h-6.744
		c-1.206,1.786-0.062,0.017,0.899-1.065c1.163-0.717,2.364-1.649,2.248-2.131c-1.342,1.38-2.896,2.015-4.046,3.196
		c-1.253,0.445-2.697,0.667-2.697,1.065c0.979-1.71,2.571-2.744,3.596-4.262c1.515-0.391,2.807-0.939,3.147-1.599h-6.294h4.495
		c2.268,0,4.22-0.24,6.295-0.533c3.581-0.707-0.313-1.065-2.248-1.065c-0.375-0.815,1.109-1.276,2.697-1.599
		c1.356-0.762,3.033-1.438,4.495-2.131c1.419-0.459,3.431-1.859,3.597-2.132c-1.354,0.084-1.343,0.448-2.697,0.533
		c2.01-0.185,3.456-0.533,5.844-0.533c2.168-0.826,4.024-1.731,5.845-2.665c0.793-1.147,1.145-1.065-0.899-1.065
		c1.813-0.69,4.385-1.021,5.845-1.599c2.126-0.539,4.023-1.36,5.396-2.131c1.316-1.061,2.076-2.296,3.597-3.196
		c1.762,1.419,1.782,1.598,4.945,1.598c2.541-0.036,4.096-0.76,5.395-2.131c1.946-0.63,2.291-1.738,4.496-2.132
		c2.01,0.425,4.059,0.533,6.294,0.533c2.186-0.679,4.233-1.924,5.845-3.197c1.375-0.801,3.008-1.958,4.496-2.664
		c1.639,1.002,2.928,1.808,4.946,2.131c2.086-0.367,3.171-1.558,4.946-2.131c0.966-1.386,2.37-2.122,4.046-2.664
		c2.611-1.521,2.406,0.503,3.597,2.131c1.322,1.643,3.071,0.857,4.945,1.599c1.034,1.886,1.795,3.173,3.147,4.263
		c1.051,1.507,2.297,1.931,4.496,2.131c0.801,1.267,0.162,2.18,1.798,2.665c0.645,0.81,1.76,1.153,2.697,1.598"/>
	<path fill="none" stroke="#782600" stroke-width="3.125" d="M331.949,114.757v0.267c0-0.745-0.027-0.35,0.45,1.065
		c0.16,1.165-0.219,1.03-0.675,1.865c-0.077,1.19-0.225,2.048-0.225,3.463c-0.145,1.156-0.693,2.253-1.124,3.197
		c-0.433,1.002-2.31,1.558-2.248,2.931c-1.077,0.365-1.103-0.462-1.124-1.865c-0.644-0.873-0.867-2.069-1.349-3.197
		c-0.299-1.112-0.937-1.93-1.349-3.196c-0.664-1.212-1.228-1.561-1.798-2.932c-0.224-0.661-0.185-1.478-0.675-1.864
		c-0.734-1.101-1.212-1.277-2.473-1.332c-0.969,0.27-1.342,0.772-2.248,1.065c-0.693,0.274-2.044,0.186-2.922,0.533
		c-0.218,0.42,0.432,0.62,0.674,1.598c-0.577,0.564-0.79,1.563-1.124,2.398c-0.531,0.796-0.886,1.186-1.124,2.397
		c0.368,0.741,0.054,1.725-0.45,2.398c-0.155,1.236-0.657,1.879-0.899,2.931c-0.725,0.584-0.986,1.132-1.573,2.132
		c-0.517,0.856-0.981,0.799-2.248,0.799c-0.99-0.32-1.129-0.956-2.023-1.332c-0.095-0.338-0.164-0.42-0.449-0.533"/>
	<path fill="#812E00" d="M307.65,125.533c0,0-0.455,4.955-3.643,8.259c-3.188,3.303-9.794,7.156-9.794,7.156
		s8.882-4.222,9.793-3.304c0.91,0.917-5.694,8.258-5.694,8.258s8.655-7.708,9.794-7.708s3.644,7.524,4.555,7.34
		c0.912-0.183-2.05-9.542-1.593-11.01c0.455-1.468,0-9.359,0-9.359l-3.416,0.367L307.65,125.533z M328.146,124.862
		c0,0-0.457,5.297-3.645,8.828s-9.794,7.65-9.794,7.65s8.882-4.512,9.793-3.53c0.913,0.98-5.692,8.827-5.692,8.827
		s8.654-8.24,9.792-8.24c1.14,0,3.646,8.043,4.557,7.847c0.91-0.195-2.051-10.199-1.594-11.77c0.455-1.57,0-10.004,0-10.004
		l-3.416,0.392H328.146z M299.453,76.817c0,0.987-0.967,1.788-2.16,1.788c-1.193,0-2.158-0.8-2.158-1.788
		c0-0.987,0.966-1.787,2.16-1.787C298.489,75.03,299.453,75.83,299.453,76.817z"/>
</g>
</svg>
