<?xml version="1.0" encoding="utf-8"?>
<!-- Generator: Adobe Illustrator 15.0.2, SVG Export Plug-In . SVG Version: 6.00 Build 0)  -->
<!DOCTYPE svg PUBLIC "-//W3C//DTD SVG 1.1//EN" "http://www.w3.org/Graphics/SVG/1.1/DTD/svg11.dtd">
<svg version="1.1" id="Layer_1" xmlns="http://www.w3.org/2000/svg" xmlns:xlink="http://www.w3.org/1999/xlink" x="0px" y="0px"
	 width="640px" height="480px" viewBox="0 0 640 480" enable-background="new 0 0 640 480" xml:space="preserve">
<g>
	<path d="M0,320h640v160H0V320z"/>
	<path fill="#FFFFFF" d="M0,160h640v160H0V160z"/>
	<path fill="#CE1126" d="M0,0h640v160H0V0z"/>
	<path fill="#FFFFFF" stroke="#C09300" stroke-width="1.27" stroke-linejoin="round" d="M320.645,241.922l54.79,50.863
		l-3.901-92.376c-0.572-14-12.738-10.788-21.575-5.738c-8.954,5.738-19.168,5.738-29.958,1.95
		c-10.788,3.788-21.002,3.788-29.955-1.95c-8.836-5.05-21-8.262-21.576,5.738l-3.902,92.376L320.645,241.922L320.645,241.922z"/>
	<path id="a" fill="#C09300" d="M274.772,197.194l-3.788,89.856l-6.428,5.734l3.904-92.376
		C270.296,199.146,273.511,197.195,274.772,197.194L274.772,197.194z M282.468,203.626l-3.213,75.164l-6.425,6.575l3.902-86.792
		c1.264,1.262,5.051,4.36,5.737,5.049L282.468,203.626z M289.468,209.362l-2.523,62.689l-5.164,5.049l3.214-71.525
		C286.254,206.837,288.778,208.674,289.468,209.362z M297.044,212.577l-2.524,53.43l-5.051,4.097l2.526-59.477
		C293.259,211.201,295.782,212.577,297.044,212.577L297.044,212.577z M304.044,212.577l-1.837,44.526l-5.164,5.05l1.952-49.001
		C300.255,213.153,303.469,213.153,304.044,212.577z"/>
	<path id="a_1_" fill="#C09300" d="M365.22,197.194l3.788,89.856l6.428,5.734l-3.904-92.376
		C369.696,199.146,366.48,197.195,365.22,197.194L365.22,197.194z M357.524,203.626l3.214,75.164l6.425,6.575l-3.902-86.792
		c-1.264,1.262-5.051,4.36-5.737,5.049L357.524,203.626z M350.524,209.362l2.523,62.689l5.164,5.049l-3.214-71.525
		C353.738,206.837,351.214,208.674,350.524,209.362z M342.948,212.577l2.524,53.43l5.051,4.097l-2.525-59.477
		C346.733,211.201,344.21,212.577,342.948,212.577L342.948,212.577z M335.948,212.577l1.837,44.526l5.164,5.05l-1.951-49.001
		C339.737,213.153,336.523,213.153,335.948,212.577z"/>
	<path fill="#C09300" stroke="#C09300" stroke-width="1.074" d="M322.524,252.05l7.69,35.004l-2.526,2.523l-2.641-1.951
		l-4.359-31.214l1.835,31.214l-2.525,3.214l-2.526-3.213l1.836-31.213l-4.359,31.214l-2.643,1.952l-2.524-2.524l7.688-35.004h5.052
		L322.524,252.05z"/>
	<path fill="#FFFFFF" stroke="#C09300" stroke-width="1.189" stroke-linejoin="round" d="M302.78,236.674l-15.264,54.164
		l21.004,3.214l8.951-40.739L302.78,236.674L302.78,236.674z"/>
	<path fill="none" stroke="#C09300" stroke-width="1.27" stroke-linejoin="round" d="M297.732,255.154l1.836,4.475l9.924-9.479"/>
	<path fill="none" stroke="#C09300" stroke-width="1.27" stroke-linejoin="round" d="M304.604,243.938l2.077,19.477l6.313-8.262
		 M310.468,258.362l3.448,11.9 M315.268,265.89l-6.974,10.592 M310.47,287.056l-2.232-10.559l-1.95-10.739l-4.672,6.328l-2.05-7.296
		l-6.539,6.708l3.325,12.201l4.59-7.548l2.524,7.689l4.712-7.33"/>
	<path fill="none" stroke="#C09300" stroke-width="1.27" stroke-linejoin="round" d="M291.988,289.577l4.24-5.955l2.762,9.166
		l3.788-6.426l2.526,7.692"/>
	<path fill="#FFFFFF" stroke="#C09300" stroke-width="1.189" stroke-linejoin="round" d="M337.212,236.674l15.265,54.164
		l-21.004,3.214l-8.951-40.739L337.212,236.674L337.212,236.674z"/>
	<path fill="none" stroke="#C09300" stroke-width="1.27" stroke-linejoin="round" d="M342.26,255.154l-1.836,4.475l-9.925-9.479"/>
	<path fill="none" stroke="#C09300" stroke-width="1.27" stroke-linejoin="round" d="M335.389,243.938l-2.077,19.477l-6.313-8.262
		 M329.524,258.362l-3.448,11.9 M324.725,265.89l6.974,10.592 M329.522,287.056l2.231-10.559l1.95-10.739l4.672,6.328l2.05-7.296
		l6.539,6.708l-3.324,12.201l-4.591-7.548l-2.524,7.689l-4.712-7.33"/>
	<path fill="none" stroke="#C09300" stroke-width="1.27" stroke-linejoin="round" d="M348.004,289.577l-4.24-5.955l-2.762,9.166
		l-3.787-6.426l-2.525,7.692"/>
	<path fill="#FFFFFF" stroke="#C09300" stroke-width="2.378" stroke-linecap="round" stroke-linejoin="round" d="M319.996,315.05
		c15.954,0,31.219-1.263,40.17-3.788c3.789-0.688,3.789-2.638,3.789-5.163c3.788-1.262,1.836-5.736,4.476-5.736
		c-2.64,0.69-3.213-4.476-6.427-3.784c0-4.479-4.477-5.051-8.264-3.792c-7.576,2.528-21.004,3.101-33.744,3.101
		c-12.739-0.573-26.054-0.573-33.744-3.1c-3.786-1.259-8.261-0.687-8.261,3.792c-3.214-0.691-3.789,4.475-6.427,3.784
		c2.64,0,0.688,4.475,4.475,5.736c0,2.525,0,4.477,3.902,5.164C288.778,313.789,304.044,315.051,319.996,315.05L319.996,315.05z"/>
	<path fill="#FFFFFF" stroke="#C09300" stroke-width="1.27" stroke-linecap="round" stroke-linejoin="round" d="M298.308,290.834
		c5.164,0.688,10.902,1.262,15.38,0.688c2.522,0,4.359,4.361-0.69,5.052c-4.475,0.571-11.477,0-15.265-0.69
		c-3.213-0.574-10.214-1.836-14.691-3.101c-4.475-1.948-1.261-5.734,1.262-5.161C288.209,288.883,293.259,290.147,298.308,290.834
		L298.308,290.834z M341.692,290.834c-5.166,0.688-10.902,1.262-15.265,0.688c-2.641,0-4.478,4.361,0.573,5.052
		c4.477,0.571,11.478,0,15.263-0.69c3.216-0.574,10.216-1.836,14.691-3.101c4.477-1.948,1.264-5.734-1.262-5.161
		C351.791,288.883,346.741,290.147,341.692,290.834L341.692,290.834z"/>
	<path fill="#FFFFFF" stroke="#C09300" stroke-width="1.27" stroke-linecap="round" stroke-linejoin="round" d="M282.468,288.314
		c-3.901-0.688-5.737,3.786-4.474,6.31c0.574-1.263,3.213-1.263,3.788-2.523C282.468,290.15,281.207,290.15,282.468,288.314z
		 M297.732,300.05c0-2.522,2.523-2.212,2.523-4.737c0-1.262-0.688-3.216-1.949-3.216c-1.264,0-2.526,1.264-2.526,2.525
		C295.206,297.149,297.732,297.527,297.732,300.05L297.732,300.05z M315.9,292.785c3.784,0,3.409,5.052,1.572,7.576
		c0-1.836-3.213-2.524-3.213-3.785C314.259,294.622,317.159,294.622,315.9,292.785L315.9,292.785z M357.524,288.314
		c3.902-0.688,5.739,3.786,4.476,6.31c-0.574-1.263-3.214-1.263-3.787-2.523C357.525,290.15,358.789,290.15,357.524,288.314
		L357.524,288.314z M342.26,300.05c0-2.522-2.521-2.212-2.521-4.737c0-1.262,0.688-3.216,1.949-3.216s2.525,1.265,2.525,2.525
		C344.789,297.149,342.261,297.527,342.26,300.05L342.26,300.05z M324.092,292.786c-3.785,0-3.41,5.051-1.573,7.575
		c0-1.836,3.212-2.524,3.212-3.785C325.73,294.622,322.83,294.622,324.092,292.786z"/>
	<path fill="#FFFFFF" stroke="#C09300" stroke-width="0.891" stroke-linecap="round" stroke-linejoin="round" d="M283.732,289.577
		c1.264,0,3.214,0.575,3.788,1.262l-3.792-1.264L283.732,289.577z M290.036,291.53c0.689,0,3.214,0.573,4.477,1.261l-4.479-1.265
		L290.036,291.53z M312.996,294.05c-1.263,0-3.787,0-4.475,0.572l4.472-0.576L312.996,294.05z M305.996,294.05
		c-0.688-0.689-3.213-0.689-4.475,0h4.472H305.996z M356.268,289.577c-1.262,0-3.1,0.575-3.787,1.262L356.268,289.577z
		 M349.956,291.53c-0.688,0-3.214,0.573-4.476,1.261l4.479-1.265L349.956,291.53z M326.996,294.05c1.264,0,3.788,0,4.477,0.572
		l-4.48-0.576L326.996,294.05z M333.996,294.05c0.688-0.689,3.215-0.689,4.477,0h-4.48H333.996z"/>
	<path fill="#C09300" d="M282.668,299.666c-0.427-0.082-0.652-0.421-0.544-0.82c0.131-0.488,0.52-0.766,0.89-0.636
		c0.235,0.084,0.664,0.517,0.666,0.673c0.002,0.177-0.224,0.602-0.322,0.603c-0.042,0-0.107,0.037-0.146,0.082
		C283.132,299.661,282.882,299.707,282.668,299.666L282.668,299.666z M326.612,302.802c-0.16-0.06-0.412-0.415-0.412-0.579
		c0.001-0.311,0.459-0.814,0.744-0.816c0.139-0.002,0.522,0.197,0.666,0.347c0.261,0.27,0.203,0.714-0.123,0.966
		C327.327,302.842,326.848,302.888,326.612,302.802L326.612,302.802z M326.9,304.785c-0.336-0.113-0.459-0.278-0.486-0.65
		c-0.029-0.389,0.01-0.448,0.42-0.672l0.292-0.16l0.277,0.123c0.382,0.173,0.554,0.357,0.567,0.615
		c0.014,0.278-0.191,0.563-0.512,0.706c-0.282,0.128-0.299,0.128-0.56,0.04L326.9,304.785z"/>
	<path fill="#C09300" d="M286.196,296.073c-0.277-0.008-0.656,0.246-0.875,0.376c-0.52,0.12-1.123,0.44-1.624,0.1
		c-0.495-0.152-1.152-0.032-1.226,0.574c0.126,0.521,0.856,0.82,1.3,0.476c0.328-0.43,1.224-0.683,1.324,0.05
		c-0.366,0.553-0.324,1.287-0.624,1.875c-0.049,0.365-0.203,0.713-0.4,1.023c-0.37,0.038-0.764-0.006-1.076,0.226
		c-0.501,0.027-1.012,0.276-1.3,0.7c-0.322,0.463-0.632,0.932-0.725,1.5c0.084,0.58,0.749,0.746,1.248,0.775
		c0.534,0.146,1.068,0.339,1.6,0.5c0.87,0.193,1.683,0.507,2.552,0.699c1.266,0.381,2.597,0.558,3.874,0.899
		c0.134,0.044,0.26,0.083,0.4,0.1c0.531,0.109,0.806-0.467,0.85-0.9c0.265-0.928,0.464-1.872,0.725-2.8
		c0.181-0.373,0.398-1.215-0.324-1.025c-0.412,0.246-0.762,0.618-1.275,0.649c-0.698,0.04-0.299,0.756-0.024,1.051
		c0.061,0.47-0.088,1.03-0.4,1.399c-0.416,0.265-0.938-0.045-1.376-0.15c-0.458,0.008-1.378-0.227-0.949-0.85
		c0.152-0.461,0.166-0.968,0.35-1.426c0.236-0.49,0.27-1.026,0.376-1.549c-0.288-0.621-0.784,0.205-1.176,0.275
		c-0.27,0.188-1.283,0.268-0.749,0.75c0.46,0.35,0.107,0.957,0.024,1.4c-0.029,0.615-0.67,0.763-1.175,0.623
		c-0.502-0.023-1.2-0.396-0.776-0.948c0.098-0.461,0.258-0.912,0.352-1.376c0.189-0.559,0.349-1.091,0.549-1.649
		c0.088-0.496,0.264-0.967,0.5-1.4c0.015-0.549,0.382-1.021,0.376-1.576c-0.038-0.271-0.16-0.367-0.325-0.374L286.196,296.073z
		 M283.321,301.873c0.06-0.011,0.122-0.002,0.176,0.024c0.2,0.086,0.205,0.248,0,0.426c-0.091,0.077-0.192,0.151-0.226,0.15
		c-0.375-0.032-0.485-0.088-0.5-0.224c-0.016-0.122,0.024-0.157,0.273-0.276C283.132,301.929,283.225,301.895,283.321,301.873
		L283.321,301.873z M282.492,305.89c-0.397-0.373-0.333-0.646,0.253-1.083c0.251-0.187,0.404-0.166,0.69,0.097
		c0.442,0.403,0.46,0.658,0.07,1.004c-0.192,0.17-0.277,0.205-0.502,0.208C282.77,306.117,282.703,306.088,282.492,305.89z
		 M284.932,306.625c-0.37-0.088-0.598-0.459-0.51-0.828c0.003-0.014,0.007-0.028,0.011-0.042c0.104-0.347,0.163-0.382,0.672-0.386
		c0.573-0.007,0.684,0.088,0.688,0.592c0.004,0.283-0.018,0.35-0.16,0.479C285.438,306.604,285.182,306.67,284.932,306.625
		L284.932,306.625z M356.22,306.69c-0.181-0.152-0.218-0.219-0.22-0.412c-0.002-0.328,0.187-0.569,0.597-0.755
		c0.547-0.246,0.769-0.212,0.974,0.149c0.273,0.48,0.26,0.678-0.067,1.002c-0.18,0.178-0.214,0.188-0.628,0.191
		C356.47,306.869,356.424,306.858,356.22,306.69L356.22,306.69z M288.172,307.61c-0.291-0.077-0.441-0.296-0.445-0.646
		c-0.003-0.268,0.016-0.31,0.202-0.456c0.122-0.095,0.313-0.176,0.464-0.196c0.213-0.029,0.291-0.01,0.463,0.11
		c0.439,0.311,0.534,0.616,0.28,0.912C288.863,307.653,288.605,307.725,288.172,307.61z M305.708,308.394
		c-0.064-0.08-0.208-0.128-0.223-0.229c0.026-0.444,0.048-0.894,0.189-1.318c0.076-0.419,0.009-0.856,0.155-1.264
		c0.15-0.741,0.15-1.505,0.322-2.242c0.008-0.38,0.044-0.76,0.154-1.125c0.126-0.577,0.011-1.181,0.181-1.752
		c-0.019-0.213,0.229-0.786,0.445-0.447c0.314,0.462,0.728,0.836,1.136,1.213c0.351,0.201,0.029,0.499-0.213,0.6
		c-0.333,0.131-0.414,0.496-0.39,0.818c-0.046,0.331-0.18,0.645-0.193,0.984c-0.07,0.497-0.056,1.003-0.12,1.5
		c-0.146,0.488-0.091,1.008-0.139,1.511c0.008,0.318-0.144,0.608-0.124,0.928c-0.039,0.325-0.053,0.716-0.326,0.938
		C306.299,308.64,305.919,308.617,305.708,308.394z M329.468,300.554c-0.386,0.292-0.731,0.636-1.075,0.976
		c-0.474,0.358,0.39,0.568,0.5,0.875c0.127,0.469,0.12,0.968,0.152,1.449c0.143,0.441,0.205,0.91,0.174,1.376
		c-0.04,0.496-0.69,0.392-0.975,0.675c-0.395,0.165-0.552,0.552-0.852,0.823c-0.196,0.388-0.249,0.862-0.275,1.301
		c0.029,0.358-0.241,0.761,0,1.075c0.032,0.045,0.069,0.105,0.101,0.15c0.081,0.115,0.274,0.023,0.399,0.05
		c0.404-0.024,0.824,0.038,1.2-0.126c0.968-0.166,1.946-0.18,2.926-0.224c0.601,0.02,1.177-0.189,1.774-0.176
		c0.47,0.104,0.68-0.404,0.676-0.773c-0.266-0.523-0.036-1.145-0.25-1.676c-0.188-0.539-0.114-1.144-0.2-1.7
		c-0.012-0.44-0.567-0.602-0.851-0.275c-0.271,0.275-0.713,0.331-0.924,0.675c-0.237,0.481,0.502,0.482,0.624,0.85
		c0.142,0.372,0.097,0.784,0.126,1.177c0.092,0.473-0.424,0.5-0.75,0.549c-0.43,0.16-1.031,0.27-1.275-0.25
		c-0.151-0.384-0.131-0.795-0.174-1.2c-0.011-0.714-0.182-1.414-0.225-2.125c-0.041-0.877-0.193-1.749-0.25-2.624
		C330.037,301.039,329.987,300.445,329.468,300.554L329.468,300.554z M328.968,307.154l0.251,0.024l0.023,0.301l0.025,0.3
		l-0.324,0.101c-0.107,0.032-0.216,0.058-0.326,0.075c-0.051-0.031-0.101-0.064-0.149-0.1c-0.176-0.128-0.131-0.308,0.101-0.551
		C328.698,307.168,328.76,307.142,328.968,307.154L328.968,307.154z M304.996,299.73c-0.304,0.108-0.689,0.555-1,0.55
		c-0.704,0.051-0.605,0.736-0.1,0.975c0.066,0.208,0.004,0.471,0.024,0.7c0.1,0.632-0.299,1.141-0.224,1.776
		c-0.035,0.695-0.246,1.374-0.275,2.075c-0.197,0.722-0.2,1.466-0.324,2.2c-0.083,0.658-0.56,0.426-0.976,0.249
		c-0.003-0.284-0.021-0.563-0.024-0.85c0.173-0.653-0.352-0.845-0.875-0.925c-0.548,0.053-0.817-0.418-0.699-0.9
		c0.236-0.279,0.829-0.203,1.2-0.25c0.784,0.163,0.753-0.89,0.351-1.25c-0.276-0.508-0.96-0.728-1.15-1.25
		c0.076-0.692-0.384-1.386-0.95-1.725c-0.872-0.062-1.529,0.689-1.851,1.424c-0.362,0.104-0.724,0.214-1.075,0.351
		c-0.568,0.142-1.376,1.126-0.601,1.5c0.437,0.12,1.76,0.423,1.176,1.024c-0.331,0.566-0.961,0.575-1.526,0.425
		c-0.579,0-1.224-0.281-1.2-0.949c-0.119-0.601-0.098-1.246-0.376-1.8c-0.118-0.672-0.88-0.515-0.924,0.1
		c-0.586,0.428-0.509,1.117-0.1,1.624c0.256,0.584,0.002,1.263-0.25,1.8c-0.152,0.701-0.924,0.725-1.474,0.951
		c-0.272,0.105-1.305-0.063-0.927,0.525c0.604,0.213,1.322,0.404,1.95,0.25c0.659-0.082,1.23-0.531,1.551-1.1
		c0.441-0.448,1.201-0.214,1.774-0.225c0.618-0.002,1.25,0.433,1.85,0.149c0.173-0.45,0.976-1.195,1.224-0.425
		c-0.042,0.691,0.568,1.062,1.2,0.977c0.691-0.04,0.435,0.488,0.424,0.899c0.046,0.747,0.528,1.14,1.152,1.449
		c0.211,0.058,0.435,0.038,0.648,0c0.6-0.188,1.244-0.454,1.426-1.124c0.243-0.545,0.248-1.16,0.426-1.726
		c0.142-0.903,0.325-1.808,0.35-2.725c0.222-0.832,0.158-1.709,0.325-2.55c0.106-0.626,0.185-1.251,0.251-1.876
		C305.322,299.723,305.179,299.666,304.996,299.73L304.996,299.73z M299.572,303.055c0.12,0.016,0.187,0.163,0.2,0.424
		c0.012,0.293,0.164,0.529,0.349,0.576c0.146,0.036,0.133,0.191-0.024,0.3c-0.093,0.063-0.257,0.103-0.55,0.101
		c-0.463-0.002-0.75-0.122-1-0.376l-0.15-0.149l0.224-0.15c0.114-0.086,0.32-0.265,0.451-0.399
		C299.299,303.149,299.45,303.041,299.572,303.055L299.572,303.055z M352.396,296.754c-0.447,0.021-0.892,0.089-1.325,0.199
		c-0.832-0.052-1.251,0.822-0.45,1.251c0.482,1.228,1.233-0.254,2-0.15c1.152,0.224,1.248,1.466,1.426,2.399
		c0.064,0.926,0.332,1.826,0.601,2.7c0.77,0.856-0.576,1.392-1.15,0.725c-0.488-0.53-1.536-1.184-2.125-0.449
		c-0.724,0.306-0.754,1.272-1.353,1.55c-0.966,0.296-1.088-0.895-1.6-1.4c-0.469-0.658-1.368-0.716-2.1-0.949
		c-0.344-0.695-0.163-1.876-0.875-2.35c-0.596,0.243-1.689,1.361-0.773,1.875c0.893,0.768-0.391,1.12-0.801,1.65
		c-0.586,0.651-0.68,1.549-0.775,2.374c-1.007,0.558-1.203-0.628-1.324-1.373c-0.08-0.89-0.83-0.629-1.352-0.3
		c-0.761,0.308-1.143,1.031-1.674,1.6c-0.064,0.518,0.029,1.085,0.023,1.624c0.174,0.649,0.963,0.344,1.451,0.301
		c0.783-0.328,1.104,0.502,0.476,0.976c-0.426,0.54-1.776,0.256-1.65,1.125c0.435,0.049,0.888,0.033,1.325,0
		c0.872-0.24,1.809-0.856,1.899-1.826c0.114-0.848,1.333-0.693,2-0.875c0.832-0.24,1.835-0.302,2.024,0.749
		c0.567,0.597,1.8,1.269,2.426,0.452c0.636-0.389,0.94-1.071,0.899-1.801c-0.128-0.628,1.017-0.65,1.301-0.3
		c0.416,0.686,1.72,0.483,2.351,0.099c0.669-0.493,0.813-1.363,1.774-1.375c1.427-0.427,2.907-0.672,4.3-1.2
		c1.128-0.245-0.168-0.958-0.449-1.375c-0.859-0.424-1.606,1.313-2.576,0.45c-0.748-0.573-0.696-1.662-0.975-2.5
		c-0.189-1.087-0.142-2.339-0.925-3.2C353.885,296.857,353.152,296.719,352.396,296.754L352.396,296.754z M346.945,304.33
		c0.102-0.004,0.215,0.046,0.4,0.148c0.352,0.193,0.6,0.514,0.6,0.775c0,0.17-0.043,0.182-0.3,0.3
		c-0.157,0.071-0.336,0.151-0.399,0.15c-0.145-0.002-0.5-0.286-0.5-0.4c0-0.048-0.047-0.229-0.101-0.376
		c-0.094-0.256-0.08-0.253,0.051-0.424c0.082-0.11,0.149-0.173,0.25-0.176L346.945,304.33z M352.172,304.604
		c0.295-0.02,0.473,0.072,0.6,0.301c0.144,0.264,0.045,0.464-0.326,0.623c-0.163,0.072-0.326,0.129-0.35,0.126
		c-0.024-0.002-0.158-0.081-0.301-0.176c-0.216-0.141-0.248-0.21-0.25-0.374C351.543,304.852,351.825,304.626,352.172,304.604
		L352.172,304.604z M345.02,304.678c0.088-0.014,0.168,0.032,0.275,0.125c0.145,0.124,0.189,0.225,0.225,0.476
		c0.026,0.176,0.022,0.401,0,0.5c-0.038,0.182-0.042,0.174-0.448,0.176c-0.514,0.005-0.56-0.051-0.552-0.524
		c0.008-0.302,0.01-0.383,0.176-0.551C344.823,304.75,344.933,304.693,345.02,304.678L345.02,304.678z M340.619,305.828
		c0.176,0.037,0.314,0.174,0.353,0.35c0.051,0.257,0.005,0.371-0.2,0.477c-0.179,0.09-0.588,0.12-0.701,0.051
		c-0.061-0.039-0.111-0.09-0.15-0.15c-0.055-0.097-0.044-0.145,0.024-0.2c0.05-0.04,0.102-0.097,0.101-0.125
		c0-0.029,0.055-0.13,0.126-0.224C340.271,305.862,340.447,305.793,340.619,305.828L340.619,305.828z M348.02,306.779
		c0.144,0,0.264,0.05,0.352,0.126c0.147,0.13,0.143,0.319-0.026,0.45c-0.108,0.083-0.696,0.075-0.899,0
		c-0.09-0.034-0.124-0.08-0.125-0.177c-0.002-0.111,0.03-0.18,0.224-0.273C347.709,306.826,347.878,306.78,348.02,306.779
		L348.02,306.779z M334.284,310.634c-0.077-0.051-0.19-0.094-0.076-0.178c0.139-0.241,0.415-0.325,0.66-0.416
		c0.438-0.197,0.816-0.506,1.099-0.895c0.04-0.267,0.339-0.41,0.338-0.688c0.002-0.381,0.025-0.77-0.068-1.141
		c-0.102-0.342-0.359-0.602-0.66-0.779c-0.205-0.163-0.539-0.209-0.614-0.492c-0.043-0.274,0.202-0.483,0.288-0.729
		c0.178-0.336,0.328-0.69,0.52-1.02c0.208-0.23,0.528-0.012,0.635,0.21c0.152,0.222,0.286,0.461,0.36,0.718
		c0.243,0.266,0.456,0.576,0.544,0.93c0.119,0.248,0.307,0.481,0.297,0.772c0,0.333,0.187,0.63,0.176,0.965
		c0.01,0.448,0.01,0.916-0.154,1.34c-0.111,0.235-0.336,0.376-0.485,0.586c-0.255,0.237-0.536,0.464-0.864,0.59
		c-0.23,0.073-0.364,0.341-0.654,0.276c-0.411,0.008-0.829,0.063-1.237-0.004C334.411,310.723,334.261,310.607,334.284,310.634
		L334.284,310.634z M328.805,310.993c-0.195-0.2-0.236-0.284-0.239-0.479c-0.002-0.198,0.036-0.277,0.226-0.469
		c0.353-0.354,0.522-0.362,1.129-0.057c0.577,0.293,0.773,0.32,0.825,0.112c0.05-0.2,0.382-0.384,0.699-0.384
		c0.173-0.011,0.343,0.047,0.474,0.161c0.199,0.157,0.21,0.182,0.216,0.544c0.003,0.371-0.002,0.385-0.232,0.589
		c-0.222,0.195-0.258,0.208-0.532,0.18c-0.35-0.034-0.561-0.195-0.616-0.471c-0.042-0.2-0.112-0.248-0.165-0.112
		c-0.016,0.045-0.104,0.098-0.191,0.12c-0.163,0.04-0.438,0.215-0.635,0.4c-0.074,0.069-0.204,0.103-0.416,0.104
		C329.063,311.236,329.022,311.219,328.805,310.993z M312.948,303.873c-0.532,0.006-1.104,0.453-1.176,0.977
		c0.122,0.6,0.622,1.19,0.301,1.824c0.222,0.811-0.608,1.117-1.176,0.65c-0.341-0.777-0.514-1.629-1.024-2.326
		c-0.644-0.182-0.923,0.846-1.376,1.2c0.224,0.604,0.877,1.146,0.952,1.899c0.155,0.733-0.29,1.546-0.926,1.926
		c-0.55,0.524-1.302,0.336-1.976,0.451c-0.819,0.479,0.602,0.654,0.976,0.675c0.837,0.085,1.707-0.025,2.324-0.65
		c0.616-0.293,0.567-1.356,1.3-1.475c1.271-0.056,2.53,0.195,3.8,0.226c0.68,0.162,1.73-0.081,2.2,0.424
		c0.001,0.886,0.752,1.433,1.475,1.776c0.398,0.109,0.819-0.384,1.224-0.476c0.772-0.247,0.538-1.202,1-1.576
		c1.319-0.07,2.653-0.057,3.976-0.074c0.252,0.006,0.326-0.353,0.5-0.5c-0.03-0.511-0.048-1.018-0.126-1.525
		c-0.255-0.644,0.042-1.475-0.424-2.023c-0.664-0.182-1.229,0.427-1.901,0.475c-0.74,0.33-1.364,1.015-1.4,1.85
		c-0.438,0.718-1.141-0.128-0.899-0.725c-0.026-0.26,0.058-0.563-0.024-0.8c-0.405-0.486-1.115-0.328-1.675-0.4
		c-0.814,0.032-1.609-0.144-2.424-0.124c-0.715-0.055-1.458,0.063-2.15-0.125c-0.826-0.024-0.712-0.832-0.851-1.4
		c-0.146-0.104-0.321-0.156-0.5-0.15L312.948,303.873z M314.548,306.824c0.274,0.004,0.534,0.039,0.8,0.074
		c0.344,0.058,0.712-0.117,1.05,0c0.781,0.133,1.563,0.103,2.35,0.176c0.208-0.003,0.357,0.148,0.5,0.275
		c0.002,0.546,0,1.104,0,1.649c-0.024,0.206,0.061,0.479-0.125,0.624c-0.059,0.047-0.127,0.081-0.2,0.101
		c-0.217-0.056-0.448-0.197-0.552-0.399c-0.032-0.286,0.016-0.563,0.026-0.85c-0.005-0.074,0.032-0.189,0-0.251
		c-0.166-0.124-0.367-0.194-0.575-0.2c-0.68-0.023-1.346-0.071-2.023-0.1c-0.566-0.035-1.148,0.048-1.702-0.1
		c-0.214-0.078-0.493-0.052-0.624-0.274c-0.188-0.219,0.083-0.478,0.274-0.576C313.999,306.865,314.272,306.813,314.548,306.824
		L314.548,306.824z M323.572,307.024c0.128-0.002,0.168,0.041,0.226,0.275c0.036,0.151,0.08,0.334,0.1,0.399
		c0.03,0.096-0.018,0.126-0.149,0.176c-0.395,0.149-0.789,0.135-0.925-0.05c-0.063-0.084,0.01-0.348,0.125-0.45
		C323.18,307.166,323.436,307.025,323.572,307.024z"/>
	<path fill="#FFFFFF" stroke="#C09300" stroke-width="1.15" d="M319.98,261.785c26.113-20.084,23.874-49.506,23.874-49.506
		c-0.688,0.138-1.344,0.206-2.032,0.206c-5.479,0-18.544-3.134-21.592-7.113c-3.264,3.603-16.616,7.113-22.059,7.113
		c-0.688,0-1.377-0.068-2.032-0.206C296.14,212.28,293.866,241.7,319.98,261.785L319.98,261.785z"/>
	<path fill="#FFFFFF" stroke="#C09300" stroke-width="0.916" d="M341.772,214.434c-0.225,0.015-0.45,0.021-0.679,0.021
		c-4.964,0-16.496-2.546-20.94-6.365c-4.656,3.528-16.376,6.364-21.261,6.364c-0.228-0.002-0.454-0.024-0.678-0.068
		c-0.012,1.112,0.046,2.266,0.115,3.315c0.258,3.92,0.946,7.855,1.99,11.642c3.286,11.916,10.013,22.042,19.657,29.724
		c9.653-7.688,16.388-17.824,19.681-29.748c1.046-3.785,1.735-7.72,1.996-11.64C341.724,216.65,341.78,215.525,341.772,214.434
		L341.772,214.434z"/>
	<path fill="#C09300" d="M311.5,212.026c-4.697,1.477-9.784,2.424-12.6,2.424c-0.229,0-0.451-0.031-0.676-0.074
		c-0.011,1.112,0.057,2.277,0.125,3.326c0.264,3.932,0.926,7.826,1.976,11.624c2.211,8.021,6.005,15.226,11.174,21.425V212.026z
		 M327.996,211.953v39.4c5.436-6.336,9.387-13.765,11.676-22.05c1.049-3.798,1.711-7.692,1.976-11.624
		c0.067-1.027,0.132-2.16,0.124-3.251c-0.226,0.015-0.448,0.025-0.676,0.025C338.111,214.454,332.76,213.519,327.996,211.953
		L327.996,211.953z"/>
	<path fill="#FFFFFF" stroke="#C09300" stroke-width="1.218" d="M329.844,202.474c0.534,0.032-0.721-2.854-0.721-2.854
		c1.411,1.443,6.743,1.788,6.743,1.788c-3.2-1.413-6.398-12.077-6.022-20.576c0.346-8.532-1.223-11.888-2.478-13.144
		c-1.6-1.601-6.743-3.011-10.131-3.198c-1.915-0.097-1.6,1.441-1.6,1.441c-3.544-0.91-7.088-1.255-8.689-0.188
		c-1.505,1.004-1.819,6.022-0.72,5.145c2.664-2.133,4.986-0.188,6.586,2.133c1.411,2.04,1.317,7.81-0.722,14.554
		c-2.133,7.088-7.968,14.177-7.968,14.177c3.168,0,7.624-2.822,7.624-2.822l-1.067,4.422c3.355-1.6,6.022-4.077,6.022-4.077
		l3.2,3.355c1.066-1.411,3.199-3.355,3.199-3.355s2.666,2.823,6.744,3.199V202.474z"/>
	<path fill="none" stroke="#C09300" stroke-width="1.27" d="M316.892,182.058c0,0-1.788,13.143-5.144,16.875 M319.716,181.714
		c0,0-0.69,13.298-3.011,17.564 M322.221,182.25c0,0,0,14.553,0.878,17.031 M325.389,182.97c0,0,0.721,12.231,3.732,16.656"/>
	<path fill="#C09300" stroke="#C09300" stroke-width="0.354" d="M313.66,175.69c-0.157-1.16-0.44-2.07-0.848-2.666
		c-1.598-2.32-3.92-4.266-6.585-2.133c0,0,0.909-2.822,2.854-2.916c1.505-0.095,4.924,1.128,7.936,6.271c0,0-2.227-0.501-2.76-0.03
		C313.252,175.095,313.66,175.691,313.66,175.69L313.66,175.69z"/>
	<path fill="#C09300" stroke="#C09300" stroke-width="0.354" d="M305.948,167.409c0.219-0.721,0.564-1.38,1.004-1.662
		c1.6-1.066,5.144-0.722,8.688,0.188c0,0-0.314-1.536,1.6-1.442c3.387,0.188,8.531,1.6,10.131,3.199
		c0.375,0.408,0.815,1.004,1.191,1.912H328.5c-0.784-1.098-3.012-1.034-3.544-0.972c-0.848,0.094-1.381,0.062-2.511,0.344
		c-0.532,0.126-1.349,0.282-1.787,0.627c-0.345,0.283-0.628,1.318-1.16,1.318c-0.849,0-0.784-0.219-1.004-0.47
		c-0.283-0.344-0.44-0.849-0.722-0.816c-0.877,0.158-2.29-0.532-4.077-1.943c-1.788-1.412-2.479-1.757-4.8-1.601
		c-2.288,0.188-3.011,1.475-3.011,1.475L305.948,167.409L305.948,167.409z"/>
	<circle fill="#FFFFFF" cx="319.056" cy="168.54" r="0.941"/>
</g>
</svg>
