<?xml version="1.0" encoding="utf-8"?>
<!-- Generator: Adobe Illustrator 15.0.2, SVG Export Plug-In . SVG Version: 6.00 Build 0)  -->
<!DOCTYPE svg PUBLIC "-//W3C//DTD SVG 1.1//EN" "http://www.w3.org/Graphics/SVG/1.1/DTD/svg11.dtd">
<svg version="1.1" id="Layer_1" xmlns="http://www.w3.org/2000/svg" xmlns:xlink="http://www.w3.org/1999/xlink" x="0px" y="0px"
	 width="640px" height="480px" viewBox="0 0 640 480" enable-background="new 0 0 640 480" xml:space="preserve">
<g>
	<defs>
		<rect id="SVGID_1_" x="-0.153" y="0" width="641.71" height="481.279"/>
	</defs>
	<clipPath id="SVGID_2_">
		<use xlink:href="#SVGID_1_"  overflow="visible"/>
	</clipPath>
	<path clip-path="url(#SVGID_2_)" fill="#FFC621" d="M-166.23,3.29h975.626v468.119H-166.23V3.29z"/>
	<path clip-path="url(#SVGID_2_)" fill="#EF2118" d="M-168.12,321.949h976.942v159.33H-168.12V321.949z"/>
	<path clip-path="url(#SVGID_2_)" fill="#298C08" d="M-166.23,0h975.72v169.199h-975.72V0z"/>
	<ellipse clip-path="url(#SVGID_2_)" fill="#006BC6" cx="304.389" cy="248.68" rx="101.342" ry="101.342"/>
	<path clip-path="url(#SVGID_2_)" fill="#FFC621" d="M258.875,176.907l-6.046,4.251l22.084,31.039l5.89-3.756l-21.93-31.533
		L258.875,176.907z M286.521,250.173l-9.081-6.332l3.75-11.915l-45.232,0.632l-13.095-10.024l61.749-0.665l11.453-34.693
		l6.152,14.028l-15.698,48.972L286.521,250.173z M358.451,183.735l-5.879-4.479l-22.915,30.432l5.36,4.479L358.451,183.735
		L358.451,183.735z M296.964,232.227l3.293-10.57l12.492-0.022l-14.271-42.93l5.601-15.51l19.292,58.663l36.532,0.433
		l-11.513,10.103L296.964,232.227L296.964,232.227z M382.195,280.322l2.458-6.97l-35.997-12.466l-2.618,6.477L382.195,280.322
		L382.195,280.322z M317.166,236.691l11.071-0.112l3.858,11.882l36.475-26.761l16.48,0.568l-49.908,36.371l10.804,34.899
		l-13.15-7.855L317.166,236.691L317.166,236.691z M298.604,332.646l7.39,0.107l0.342-38.093l-6.975-0.416L298.604,332.646
		L298.604,332.646z M319.23,257.102l3.635,10.458l-10.032,7.441l36.991,26.043l4.716,15.802l-50.381-35.711l-29.636,21.366
		l3.254-14.969l41.454-30.433L319.23,257.102z M222.157,269.31l2.186,7.06l36.327-11.47l-1.764-6.761l-36.747,11.171H222.157z
		 M300.374,265.531l-8.817,6.692l-10.185-7.233l-13.308,43.237l-13.566,9.376l18.354-58.963l-29.493-21.563l15.24-1.54
		l41.773,29.994H300.374z"/>
</g>
</svg>
