<?xml version="1.0" encoding="utf-8"?>
<!-- Generator: Adobe Illustrator 15.0.2, SVG Export Plug-In . SVG Version: 6.00 Build 0)  -->
<!DOCTYPE svg PUBLIC "-//W3C//DTD SVG 1.1//EN" "http://www.w3.org/Graphics/SVG/1.1/DTD/svg11.dtd">
<svg version="1.1" id="Layer_1" xmlns="http://www.w3.org/2000/svg" xmlns:xlink="http://www.w3.org/1999/xlink" x="0px" y="0px"
	 width="640px" height="480px" viewBox="0 0 640 480" enable-background="new 0 0 640 480" xml:space="preserve">
<g>
	<defs>
		<rect id="SVGID_1_" x="-0.203" y="0" width="641.71" height="481.279"/>
	</defs>
	<clipPath id="SVGID_2_">
		<use xlink:href="#SVGID_1_"  overflow="visible"/>
	</clipPath>
	<path clip-path="url(#SVGID_2_)" fill="#6797D6" d="M-160.63,0h962.56V481.28h-962.56V0z"/>
	<path clip-path="url(#SVGID_2_)" fill="#FFFFFF" d="M320.45,115.606l-30.494,20.881l11.687-33.746l-30.526-20.846l37.714,0.035
		l11.624-33.765l11.624,33.765l37.713-0.024l-30.53,20.836l11.685,33.751 M320.45,366.649l-30.494-20.881l11.687,33.746
		l-30.526,20.845l37.714-0.035l11.624,33.765l11.624-33.765l37.713,0.025l-30.531-20.836l11.685-33.751 M173.864,258.845
		l-23.058,28.886l1.311-35.688l-35.287-11.011l36.077-10.993l1.244-35.688l20.988,28.891l36.059-11.05l-23.105,28.853l21.04,28.858
		 M466.956,258.845l23.059,28.886l-1.312-35.688l35.287-11.011l-36.076-10.993l-1.245-35.688l-20.988,28.891l-36.059-11.05
		l23.105,28.853l-21.04,28.858"/>
</g>
</svg>
