<?xml version="1.0" encoding="utf-8"?>
<!-- Generator: Adobe Illustrator 15.0.2, SVG Export Plug-In . SVG Version: 6.00 Build 0)  -->
<!DOCTYPE svg PUBLIC "-//W3C//DTD SVG 1.1//EN" "http://www.w3.org/Graphics/SVG/1.1/DTD/svg11.dtd">
<svg version="1.1" id="Layer_1" xmlns="http://www.w3.org/2000/svg" xmlns:xlink="http://www.w3.org/1999/xlink" x="0px" y="0px"
	 width="640px" height="480px" viewBox="0 0 640 480" enable-background="new 0 0 640 480" xml:space="preserve">
<g>
	<defs>
		<rect id="SVGID_1_" x="-0.213" y="0" width="641.71" height="481.279"/>
	</defs>
	<clipPath id="SVGID_2_">
		<use xlink:href="#SVGID_1_"  overflow="visible"/>
	</clipPath>
	<path clip-path="url(#SVGID_2_)" fill="#000066" d="M-160.64,0h962.578v481.289H-160.64V0z"/>
	<path clip-path="url(#SVGID_2_)" fill="#FFFFFF" d="M-160.64,0v53.809l854.962,427.482h107.616v-53.808L-53.024,0H-160.64z
		 M801.938,0v53.808L-53.024,481.289H-160.64v-53.809L694.322,0H801.938z"/>
	<path clip-path="url(#SVGID_2_)" fill="#FFFFFF" d="M240.435,0v481.289h160.43V0H240.435z M-160.64,160.43v160.43h962.578V160.43
		H-160.64z"/>
	<path clip-path="url(#SVGID_2_)" fill="#CC0000" d="M-160.64,192.516v96.258h962.578v-96.258H-160.64z M272.521,0v481.289h96.256V0
		H272.521z M-160.64,481.289L160.22,320.86h71.744l-320.859,160.43H-160.64z M-160.64,0L160.22,160.43H88.475L-160.64,35.874V0z
		 M409.335,160.43L730.194,0h71.744L481.079,160.43H409.335z M801.938,481.289L481.079,320.86h71.745l249.114,124.557V481.289z"/>
</g>
</svg>
