<?xml version="1.0" encoding="utf-8"?>
<!-- Generator: Adobe Illustrator 15.0.2, SVG Export Plug-In . SVG Version: 6.00 Build 0)  -->
<!DOCTYPE svg PUBLIC "-//W3C//DTD SVG 1.1//EN" "http://www.w3.org/Graphics/SVG/1.1/DTD/svg11.dtd">
<svg version="1.1" id="Layer_1" xmlns="http://www.w3.org/2000/svg" xmlns:xlink="http://www.w3.org/1999/xlink" x="0px" y="0px"
	 width="640px" height="480px" viewBox="0 0 640 480" enable-background="new 0 0 640 480" xml:space="preserve">
<g>
	<path fill="#0073CF" d="M0,0h640v480H0V0z"/>
	<path fill="#FFFFFF" d="M0,160h640v160H0V160z"/>
	<path id="a" fill="#0073CF" d="M311.733,238.666l12.72,4.16L320,213.333L311.733,238.666z"/>
	<path id="a_1_" fill="#0073CF" d="M328.267,238.666l-12.72,4.16L320,213.333L328.267,238.666z"/>
	<path id="a_2_" fill="#0073CF" d="M318.714,231.726l-0.026,13.383l26.674-13.35L318.714,231.726z"/>
	<path id="a_3_" fill="#0073CF" d="M323.822,247.449l-7.887-10.812l29.426-4.879L323.822,247.449z"/>
	<path id="a_4_" fill="#0073CF" d="M316.178,247.449l7.887-10.812l-29.426-4.879L316.178,247.449z"/>
	<path id="a_5_" fill="#0073CF" d="M321.286,231.726l0.026,13.383l-26.674-13.35L321.286,231.726z"/>
	<path id="a_6_" fill="#0073CF" d="M327.472,236.22l-12.736,4.11l20.938,21.243L327.472,236.22z"/>
	<path id="a_7_" fill="#0073CF" d="M314.096,245.938l7.846-10.843l13.732,26.479L314.096,245.938z"/>
	<path id="a_8_" fill="#0073CF" d="M325.904,245.938l-7.846-10.843l-13.733,26.479L325.904,245.938z"/>
	<path id="a_9_" fill="#0073CF" d="M312.528,236.22l12.736,4.11l-20.939,21.243L312.528,236.22z"/>
	<path id="a_10_" fill="#0073CF" d="M445.066,196.001l12.72,4.16l-4.453-29.494L445.066,196.001z"/>
	<path id="a_11_" fill="#0073CF" d="M461.6,196.001l-12.72,4.16l4.453-29.494L461.6,196.001z"/>
	<path id="a_12_" fill="#0073CF" d="M452.047,189.06l-0.026,13.384l26.674-13.35L452.047,189.06z"/>
	<path id="a_13_" fill="#0073CF" d="M457.155,204.784l-7.887-10.812l29.426-4.879L457.155,204.784z"/>
	<path id="a_14_" fill="#0073CF" d="M449.511,204.784l7.887-10.812l-29.426-4.879L449.511,204.784z"/>
	<path id="a_15_" fill="#0073CF" d="M454.619,189.06l0.026,13.384l-26.674-13.35L454.619,189.06z"/>
	<path id="a_16_" fill="#0073CF" d="M460.805,193.554l-12.736,4.111l20.939,21.243L460.805,193.554z"/>
	<path id="a_17_" fill="#0073CF" d="M447.429,203.272l7.846-10.842l13.733,26.479L447.429,203.272z"/>
	<path id="a_18_" fill="#0073CF" d="M459.237,203.272l-7.846-10.842l-13.733,26.479L459.237,203.272z"/>
	<path id="a_19_" fill="#0073CF" d="M445.861,193.554l12.736,4.111l-20.939,21.243L445.861,193.554z"/>
	<path id="a_20_" fill="#0073CF" d="M445.066,275.999l12.72,4.16l-4.453-29.493L445.066,275.999z"/>
	<path id="a_21_" fill="#0073CF" d="M461.6,275.999l-12.72,4.16l4.453-29.493L461.6,275.999z"/>
	<path id="a_22_" fill="#0073CF" d="M452.047,269.059l-0.026,13.383l26.674-13.35L452.047,269.059z"/>
	<path id="a_23_" fill="#0073CF" d="M457.155,284.782l-7.887-10.812l29.426-4.879L457.155,284.782z"/>
	<path id="a_24_" fill="#0073CF" d="M449.511,284.782l7.887-10.812l-29.426-4.879L449.511,284.782z"/>
	<path id="a_25_" fill="#0073CF" d="M454.619,269.059l0.026,13.383l-26.674-13.35L454.619,269.059z"/>
	<path id="a_26_" fill="#0073CF" d="M460.805,273.553l-12.736,4.11l20.939,21.243L460.805,273.553z"/>
	<path id="a_27_" fill="#0073CF" d="M447.429,283.271l7.846-10.843l13.733,26.479L447.429,283.271z"/>
	<path id="a_28_" fill="#0073CF" d="M459.237,283.271l-7.846-10.843l-13.733,26.479L459.237,283.271z"/>
	<path id="a_29_" fill="#0073CF" d="M445.861,273.553l12.736,4.11l-20.939,21.243L445.861,273.553z"/>
	<path id="a_30_" fill="#0073CF" d="M178.4,196.001l12.72,4.16l-4.453-29.494L178.4,196.001z"/>
	<path id="a_31_" fill="#0073CF" d="M194.934,196.001l-12.72,4.16l4.453-29.494L194.934,196.001z"/>
	<path id="a_32_" fill="#0073CF" d="M185.381,189.06l-0.026,13.384l26.674-13.35L185.381,189.06z"/>
	<path id="a_33_" fill="#0073CF" d="M190.489,204.784l-7.887-10.812l29.426-4.879L190.489,204.784z"/>
	<path id="a_34_" fill="#0073CF" d="M182.845,204.784l7.887-10.812l-29.426-4.879L182.845,204.784z"/>
	<path id="a_35_" fill="#0073CF" d="M187.953,189.06l0.026,13.384l-26.674-13.35L187.953,189.06z"/>
	<path id="a_36_" fill="#0073CF" d="M194.139,193.554l-12.736,4.111l20.939,21.243L194.139,193.554z"/>
	<path id="a_37_" fill="#0073CF" d="M180.763,203.272l7.846-10.842l13.733,26.479L180.763,203.272z"/>
	<path id="a_38_" fill="#0073CF" d="M192.571,203.272l-7.846-10.842l-13.733,26.479L192.571,203.272z"/>
	<path id="a_39_" fill="#0073CF" d="M179.195,193.554l12.736,4.111l-20.939,21.243L179.195,193.554z"/>
	<path id="a_40_" fill="#0073CF" d="M178.4,275.999l12.72,4.16l-4.453-29.493L178.4,275.999z"/>
	<path id="a_41_" fill="#0073CF" d="M194.934,275.999l-12.72,4.16l4.453-29.493L194.934,275.999z"/>
	<path id="a_42_" fill="#0073CF" d="M185.381,269.059l-0.026,13.383l26.674-13.35L185.381,269.059z"/>
	<path id="a_43_" fill="#0073CF" d="M190.489,284.782l-7.887-10.812l29.426-4.879L190.489,284.782z"/>
	<path id="a_44_" fill="#0073CF" d="M182.845,284.782l7.887-10.812l-29.426-4.879L182.845,284.782z"/>
	<path id="a_45_" fill="#0073CF" d="M187.953,269.059l0.026,13.383l-26.674-13.35L187.953,269.059z"/>
	<path id="a_46_" fill="#0073CF" d="M194.139,273.553l-12.736,4.11l20.939,21.243L194.139,273.553z"/>
	<path id="a_47_" fill="#0073CF" d="M180.763,283.271l7.846-10.843l13.733,26.479L180.763,283.271z"/>
	<path id="a_48_" fill="#0073CF" d="M192.571,283.271l-7.846-10.843l-13.733,26.479L192.571,283.271z"/>
	<path id="a_49_" fill="#0073CF" d="M179.195,273.553l12.736,4.11l-20.939,21.243L179.195,273.553z"/>
</g>
</svg>
