<?xml version="1.0" encoding="utf-8"?>
<!-- Generator: Adobe Illustrator 22.0.1, SVG Export Plug-In . SVG Version: 6.00 Build 0)  -->
<svg version="1.1" id="Layer_1" xmlns="http://www.w3.org/2000/svg" xmlns:xlink="http://www.w3.org/1999/xlink" x="0px" y="0px"
	 viewBox="0 0 640 480" style="enable-background:new 0 0 640 480;" xml:space="preserve">
<style type="text/css">
	.st0{fill:#0071BC;}
	.st1{fill:#FFFFFF;stroke:#000000;stroke-width:1.9349;}
	.st2{fill:none;stroke:#000000;stroke-width:1.9349;}
	.st3{fill:#F7DF73;stroke:#000000;stroke-width:2.4186;stroke-linejoin:round;}
	.st4{fill:#F7DF73;stroke:#000000;stroke-width:2.429;stroke-linejoin:round;}
	.st5{fill:#8C1800;}
	.st6{fill:#8C1800;stroke:#8C1800;stroke-width:2.4186;}
	.st7{fill:#8C1800;stroke:#8C1800;stroke-width:2.429;}
	.st8{fill:none;stroke:#8C1800;stroke-width:3.1442;stroke-linecap:round;}
	.st9{fill:none;stroke:#8C1800;stroke-width:2.9023;stroke-linecap:round;}
	.st10{fill:none;stroke:#8C1800;stroke-width:2.6605;stroke-linecap:round;}
	.st11{fill:none;stroke:#8C1800;stroke-width:2.4186;stroke-linecap:round;}
	.st12{fill:none;stroke:#8C1800;stroke-width:1.4512;stroke-linecap:round;}
	.st13{fill:none;stroke:#8C1800;stroke-width:3.1577;stroke-linecap:round;}
	.st14{fill:none;stroke:#8C1800;stroke-width:2.9148;stroke-linecap:round;}
	.st15{fill:none;stroke:#8C1800;stroke-width:2.6719;stroke-linecap:round;}
	.st16{fill:none;stroke:#8C1800;stroke-width:2.429;stroke-linecap:round;}
	.st17{fill:none;stroke:#8C1800;stroke-width:1.4574;stroke-linecap:round;}
	.st18{fill:#217900;stroke:#000000;stroke-width:1.9349;stroke-linejoin:round;}
	.st19{fill:none;stroke:#6B18B5;stroke-width:1.9349;stroke-linejoin:round;}
	.st20{fill:none;stroke:#6B18B5;stroke-linejoin:round;}
	.st21{fill:#6B18B5;}
	.st22{fill:#FFD200;stroke:#EF8A10;stroke-width:1.9349;}
	.st23{fill:#FFD200;stroke:#EF8A10;stroke-width:2.4186;}
	.st24{fill:#DE2010;stroke:#000000;stroke-width:2.3828;}
	.st25{fill:#DE2010;stroke:#000000;stroke-width:2.1334;}
	.st26{fill:#FFE300;}
	.st27{fill:#FFD200;stroke:#EF8A10;stroke-width:1.008;}
	.st28{fill:#217900;stroke:#000000;stroke-width:2.4186;stroke-linejoin:round;}
	.st29{fill:#8C8A8C;stroke:#000000;stroke-width:1.9349;}
	.st30{fill:none;stroke:#000000;stroke-width:1.9349;stroke-linecap:round;}
	.st31{fill:#FFFFFF;stroke:#000000;stroke-width:2.0159;stroke-linejoin:round;}
</style>
<rect x="-3" y="-82" class="st0" width="644" height="644"/>
<rect x="-3.4" y="74" class="st0" width="644.5" height="322.7"/>
<g>
	<g>
		<path class="st1" d="M356.9,327.7c0,0,11.3-12,22.2-9.7c3.3-12.6,15.6-13.6,15.6-13.6s-1.2-13.9,14.6-17c0.4-9.5,10-17.3,10-17.3
			s-2-14.7,8-18.1c-6.1-11.6,2.1-20.1,2-20.3c-0.1-0.2-10.3-18.4-1.2-23.6c-9.7-8.2-6.5-17.4-6.5-17.4s-10.6-2.7-6.7-15.3
			c-8.7-1.5-10.4-15.6-10.4-15.6s-13.4,2.7-15-8.9c-8.8,1.4-9.8-7.3-9.9-7.3s-17.5,4.7-21-8.5c-6.7,3.5-9.7-2.7-9.7-2.7
			s-9.7,4.8-15.4-4.5c-11.5,7.2-17.9-0.3-17.9-0.3s-15.1,10-20.1,2.3c-8.9,9-16.9,5.1-16.9,5.1s-6.7,12-17.6,8.9
			c-2.5,11.1-15,11.3-15,11.3s1.3,9.8-13.7,12.4c-2,11.5-9.8,13.5-9.8,13.5s0.8,11.2-6.3,14.8c2.5,6.3-4,14-4,14s7,8.7-2.5,18.5
			c9.1,2.4,2.5,18.2,2.5,18.2s12.6,5.7,4.7,16.1c9,2.9,6.2,10.1,6.3,14.4c5.8,2.6,10.9,1.3,8.4,12.9c17.7,2,9.4,11.7,9.4,11.7
			s8.3,0.3,5,6.9C260.8,308.4,263,320,263,320s14-3.7,15.9,1.7c1.8,5.4-6.1,42.1-6.1,42.1s-11.9,0-20.7-9.5
			c-20.7-0.5-16.1-14.1-16.4-14.1s-6.9,2.5-10.2-8.8c-13.8,2.8-13.4-8.8-13.5-8.9c-0.1-0.1-6.2-2.8-3.9-8.6
			c-14.2,1.3-13.2-12.6-13.2-12.6c-3.1-1.3-4.3-4.2-3.8-7.1c-1.8-0.7-14.5-0.9-7.9-17.5c-12.1-7.3-4.6-15.7-4.6-15.7
			s-16.6-8.6-3.8-18.5c-9.6-14.1,0.8-21.2,0.8-21.2s-13.3-13.5,0.2-23.1c-2.2-20.4,10-25.3,10-25.3s-6.4-16.6,11-23.6
			c1.1-16.9,13.3-17.3,13.3-17.3s0.3-13.4,19.5-12.1c3.7-12,16.8-9.6,16.8-9.6s4-14.5,21.8-7.5c9-17.6,22.4-8.6,22.4-8.6
			s8.5-5.5,12.7-3.8c5.4-9.3,16.9-0.4,24.3,1.4c2.7-1,12.3-8.3,19.7,0.9c9.8-6.4,18.2,5.1,18.2,5.1s13.5-6.9,19.8,8.8
			c28.6-2.6,24.5,16.1,24.5,16.1s22.5-5.1,17.6,17.3c20.4,1.4,18.4,14.9,18.4,14.9s12.9,9.8,7.3,18.6c11.5,0.5,7.3,11.6,7.3,11.6
			s8.8,3.4,1.5,17.1c16.9,13.5,3.3,26.9,3.2,26.8c-0.1-0.1,9,10.9,0.8,23.5c2.5,20-7.6,25.1-7.6,25.1s2.6,12.9-8.7,16.6
			c-0.2,15.2-14.6,17.1-14.6,17.1s3.8,6.6-10.4,13.6c-0.6,10.2-15.4,11-15.4,11s-1.4,18.7-20.3,13.7c-4.6,15-26.8,10.6-27.2,10.3
			C360.8,359.8,356.9,327.8,356.9,327.7L356.9,327.7z"/>
		<path class="st2" d="M383.4,343.5c0,0-1.7,3.2,5,6.1"/>
		<path class="st2" d="M396.8,335.9c0,0,7.5-1.8,12.5,0"/>
		<path class="st2" d="M419.1,317c0,0.1-1,3.4,4.9,8"/>
		<path class="st2" d="M423.4,308.6c0,0,4.4,3.2,11.8,3.1"/>
		<path class="st2" d="M379.1,318c0,0,0.3,8.5-4.1,12.5"/>
		<path class="st2" d="M393.8,304.9c0,0,7.2,1.8,13.2-1.2"/>
		<path class="st2" d="M440.2,292.3c0,0,1.5,2.2,9.6,1.8"/>
		<path class="st2" d="M408.9,287.3c0.3,0.1,9.4,3.1,15.2,0.4"/>
		<path class="st2" d="M427.3,252.2c0,0,0.4-0.5,3.2,9.4"/>
		<path class="st2" d="M434.4,224.2c0,0-0.4,5.3-4.6,7.6"/>
		<path class="st2" d="M461.6,202.5c0,0-6.2,5-5,7.1"/>
		<path class="st2" d="M430.8,198.9c0,0,3.2,5.4-2.1,9.2"/>
		<path class="st2" d="M415.1,175.6c0,0,5.6-0.3,8,4.5"/>
		<path class="st2" d="M426.8,140.5c0,0.1,1.2,1.2-1,3.4"/>
		<path class="st2" d="M387.1,141c0,0,3,4.6,2.5,10.3"/>
		<path class="st2" d="M404.3,125.3c1.3-0.1,5.7-2.1,5.7-2.1"/>
		<path class="st2" d="M385.2,106.8c-0.1,0-1.7,5.8,1.2,7.9"/>
		<path class="st2" d="M378.1,133.3c0,6.2,4.9,4.6,1.5,10.6"/>
		<path class="st2" d="M366.1,128.1c-0.1,0-7.7,5.9-7.7,7"/>
		<path class="st2" d="M346.2,124.9c0,0,3.2,3.2,2.5,7.6"/>
		<path class="st2" d="M319.6,121c-0.1,0.3-2.7,5.8-4.5,6.8"/>
		<path class="st2" d="M296.1,121.1c0.1,0,2.6,5.2-0.6,8.9"/>
		<path class="st2" d="M254.3,142.6c0.1,0.3,6.6,1.3,6.6,1.3"/>
		<path class="st2" d="M238.1,157.5c0.1-0.1,7.9-2.5,7.9-2.5"/>
		<path class="st2" d="M225.6,167.2c0.3,0,5.4,0.9,6.7,0.3"/>
		<path class="st2" d="M222,172c0,0,1.7,0.9,0.3,9.6"/>
		<path class="st2" d="M196.8,149.3l3.1,4.6"/>
		<path class="st2" d="M186.2,173.2c0-0.1,3.1,4.6,7.2,5.6"/>
		<path class="st2" d="M210.6,197.4c0.1,0,5-1,5.8-1.5"/>
		<path class="st2" d="M208.4,215c0.1,0-0.1-3.2,3.9-5.4"/>
		<path class="st2" d="M203.1,223c0,0.1,3.7,4.8,6.3,5.4"/>
		<path class="st2" d="M200.9,231.9c0.4-0.1,4.4-3.6,9-3.4"/>
		<path class="st2" d="M199.6,243.9c0,0,0.1,4,12,3"/>
		<path class="st2" d="M200.8,258c0-0.1,3.5-8,10.6-11"/>
		<path class="st2" d="M210.3,268.1c0,0,1-3.4,7-5.7"/>
		<path class="st2" d="M216.9,281.4c0,0,4.3-3.5,5.8-4"/>
		<path class="st2" d="M222.2,291.7c0,0,2.6,2.7,9-1.9"/>
		<path class="st2" d="M191.1,293.9c0.8-0.1,10.2-2.3,13.4,2.6"/>
		<path class="st2" d="M194.9,301.6c0,0,9.9-1.3,11.2-0.3"/>
		<path class="st2" d="M230.4,303.7c0,0-1.3,2.7,11-1.8"/>
		<path class="st2" d="M245.6,308.6c-2.2,3.7,0.5,6.7-2.3,8.4"/>
		<path class="st2" d="M208.3,313.8c0.4-0.3,4.5-1.7,3.9-7.6"/>
		<path class="st2" d="M212,322.7c0.5-0.1,7.4-3.1,8.8-1.5"/>
		<path class="st2" d="M225.5,331.3c0,0,0.9-6.1,2.8-6.7"/>
		<path class="st2" d="M235.8,340.5c0,0,5.7-0.1,8.1-1.9"/>
		<path class="st2" d="M246.8,320c0.1,0.1,5.3,2.8,16.3,0.1"/>
		<path class="st2" d="M250.9,344.6c0,0,1.5,7.9,1.4,9.7"/>
		<path class="st2" d="M404.7,159.9l4.3,0"/>
		<path class="st2" d="M336.8,122.3c0,0-1.7,4.9-3.9,6.2"/>
		<path class="st2" d="M290.7,94.4c0.1,0.1,0.5,4-1.9,7.4"/>
		<path class="st2" d="M267.4,103.2c0,0.1,1,4.4-5.8,5.8"/>
	</g>
	<g>
		<g>
			<path class="st3" d="M359.4,345.8c0,0,64.5-18.2,84-97.4c-11.3,81.3-81.9,107-81.9,107L359.4,345.8L359.4,345.8z"/>
			<path class="st4" d="M274.9,344.1c0,0-63.9-18.5-83.2-99.1c11.2,82.7,81.1,108.9,81.1,108.9L274.9,344.1L274.9,344.1z"/>
		</g>
		<g>
			<path class="st5" d="M366.1,350.7c2,0,6.9-5.5,9.8-6.1c2.8-0.6,3.1-3.5-0.1-3.6c-3.3-0.1-6.1,3.7-6.1,3.7s-2.8,2.4-5.8,2.7
				C360.9,347.8,362.8,351.5,366.1,350.7L366.1,350.7z"/>
			<path class="st5" d="M379.8,340.6c0,0-2-0.7,3.1-2.7c5.1-2,4.8-4.3,6.5-5.2c1.7-0.9,5.2-3.5,6-2c0.7,1.5-3.8,4.4-4.8,4.7
				c-1,0.3-6.2,5-7.7,5.5C381.5,341.3,380.4,341.1,379.8,340.6L379.8,340.6z"/>
			<path class="st5" d="M268.4,349.1c-2,0-6.9-5.6-9.7-6.2c-2.8-0.6-3.1-3.5,0.1-3.6c3.2-0.1,6,3.7,6,3.7s2.8,2.5,5.7,2.8
				C273.5,346.1,271.6,349.8,268.4,349.1L268.4,349.1z"/>
			<path class="st5" d="M254.7,338.8c0,0,2-0.7-3.1-2.8c-5.1-2-4.8-4.4-6.4-5.3c-1.7-1-5.2-3.5-5.9-2c-0.7,1.5,3.7,4.5,4.8,4.8
				c1,0.3,6.1,5.1,7.6,5.6C253.1,339.5,254.1,339.3,254.7,338.8L254.7,338.8z"/>
			<path class="st6" d="M403.2,323c0,0-6.7,3.9-5.8,4.8c0.9,0.9,6.9-3.7,7-3.8C404.6,324,407,321,403.2,323L403.2,323z"/>
			<path class="st7" d="M231.6,320.9c0,0,6.7,4,5.7,4.9c-0.9,1-6.9-3.7-7-3.8C230.2,321.9,227.8,318.9,231.6,320.9L231.6,320.9z"/>
		</g>
		<g>
			<path class="st8" d="M413.2,313.2c-4.4,4.9-4.4,4.8-4.4,4.8"/>
			<path class="st9" d="M419.8,305.1l-4.2,5.1"/>
			<path class="st10" d="M426.4,294.6l-4.7,7.6"/>
			<path class="st11" d="M432,283.9l-3.9,7.8"/>
			<path class="st11" d="M434.5,278.2l-1.3,2.7"/>
			<path class="st12" d="M437.3,270.8l-1,3.3"/>
			<path class="st13" d="M221.7,310.9c4.4,5,4.4,4.9,4.4,4.9"/>
			<path class="st14" d="M215.1,302.6l4.2,5.2"/>
			<path class="st15" d="M208.6,292l4.7,7.7"/>
			<path class="st16" d="M203.1,281.1l3.8,7.9"/>
			<path class="st16" d="M200.6,275.3l1.2,2.8"/>
			<path class="st17" d="M197.8,267.7l1,3.3"/>
		</g>
	</g>
	<g>
		<g>
			<path class="st18" d="M219.5,148.2c0.1,0,4.8,4.1,3.9,10.3c-0.9,6.2-4.5,14.8-3.7,21.2c0.4,2.6,0.3,7.2,0.3,7.2
				s-4.3-6.1-4.4-12.6c-0.1-6.5,4.7-12.7,4.7-17.5C220.2,152,219.4,148.1,219.5,148.2L219.5,148.2z"/>
			<path class="st18" d="M217.1,150.1c0,0-6.2,5.9-7,11.7c-0.6,3-0.8,16.8-0.9,23c-0.1,1.9-0.9,9.3-1.1,12.1
				c-0.2,2.7,4.6-4.6,4.8-10.6c-0.1-6.2-0.1-19.2,0.5-21.2c0.6-2.5,0.4-5.3,1.3-7.8C215.9,153.7,217.2,150.1,217.1,150.1
				L217.1,150.1z"/>
		</g>
		<g>
			<path class="st19" d="M176.4,189.7c0,0,4.2,5.8,5,9.2c0.8,3.4,2.2,9.9,4,12.7c1.8,2.7,12.3,17.7,12.9,24
				c0.1,4.1-4.3,11.1-10.9,11.2c-4.1-0.1-14.7-2.8-15.1-11.9c-0.4-9.1,3.2-9.3,3.7-14.8C176.3,214.5,176.4,189.8,176.4,189.7
				L176.4,189.7z"/>
			<path class="st20" d="M248.9,110.1c0,0-4.4,0.3-7.7,2.1c-2.6,1.6-7,3.9-10.1,8.2c-7.8,6.1-19.6,9-23.4,14
				c-2.2,3.5-2.1,11.8,3.5,15.3c3.6,2,14,5.2,19.1-2.3c5.1-7.5,2.1-9.6,4.6-14.6C239,121.6,248.8,110.2,248.9,110.1L248.9,110.1z"/>
			<path class="st20" d="M354.8,99.1c0,0-3.3-2.9-6.9-4.1c-3-0.8-7.9-0.4-13-0.9c-9.8-1.4-20-8.5-26.2-7.6c-4,0.8-9.9,6.7-8.6,13.1
				c1,4,5.5,12,14.4,10.5c9-1.6,8.9-3.5,14.2-5.2C341.5,97.6,354.7,99.1,354.8,99.1L354.8,99.1z"/>
			<path class="st20" d="M459.8,201.2c0.7-1.7-0.6-4.8-1.6-8.5c-0.9-2.9-2.3-7.4-5.7-11.5c-4.1-9.1-3.4-21.5-7.4-26.4
				c-2.8-3-10.9-4.9-15.7-0.3c-2.8,3-8.5,12.4-2.4,19.1c6.1,6.7,8.8,4.2,12.9,7.8C450,188.2,454.9,200,459.8,201.2L459.8,201.2z"/>
			<path class="st20" d="M456.2,280.5c1.4-1.9,3.8-5.5,3.5-8.6c-0.2-2.4,1.1-9.7,1.2-12.9c0.9-9.9,7.1-17.9,5.4-26.5
				c-1-4-6.8-9.7-13.2-8c-3.9,1.2-12.7,6-10.7,14.9c2,8.9,4.9,8.7,6.8,13.9C454.8,264.1,451.3,276.8,456.2,280.5z"/>
		</g>
		<g>
			<path class="st21" d="M314.6,91.3c0-1.4-1.6-2.5-3.5-2.5s-3.5,1.1-3.5,2.5c0,1.4,1.6,2.5,3.5,2.5S314.6,92.7,314.6,91.3z"/>
			<path class="st21" d="M316.1,97.2c0-1.3-1.6-2.4-3.6-2.4s-3.6,1.1-3.6,2.4s1.6,2.4,3.6,2.4S316.1,98.5,316.1,97.2z"/>
			<path class="st21" d="M320.6,90.2c0,0-4.1,3.1-2.4,4.3c1.7,1.2,6.4-2.7,6.4-2.7S320.6,90.2,320.6,90.2z"/>
			<path class="st21" d="M441.9,161.1c0-0.9-0.4-1.7-1.1-2.1c-0.7-0.4-1.5-0.4-2.2,0c-0.7,0.4-1.1,1.3-1.1,2.1
				c0,0.9,0.4,1.7,1.1,2.1c0.7,0.4,1.5,0.4,2.2,0C441.5,162.8,441.9,162,441.9,161.1z"/>
			<path class="st21" d="M440.4,155.2c0-1.5-1-2.7-2.3-2.7c-1.3,0-2.3,1.2-2.3,2.7c0,1.5,1,2.7,2.3,2.7S440.4,156.7,440.4,155.2z"/>
			<path class="st21" d="M441.5,167.2c0-0.8-0.4-1.4-0.9-1.4c-0.5,0-0.9,0.6-0.9,1.4c0,0.8,0.4,1.4,0.9,1.4
				C441.1,168.6,441.5,168,441.5,167.2z"/>
			<path class="st21" d="M445.1,156.5c0-0.9-0.4-1.6-0.9-1.6s-0.9,0.7-0.9,1.6s0.4,1.6,0.9,1.6S445.1,157.3,445.1,156.5z"/>
			<path class="st21" d="M435.2,157.6c0-0.7-0.4-1.3-0.9-1.3c-0.5,0-0.9,0.6-0.9,1.3s0.4,1.3,0.9,1.3
				C434.8,158.8,435.2,158.3,435.2,157.6z"/>
			<path class="st21" d="M436.7,166c0-1.1-0.8-2.1-1.9-2.1c-1,0-1.9,0.9-1.9,2.1c0,1.1,0.8,2.1,1.9,2.1
				C435.9,168.1,436.7,167.2,436.7,166z"/>
			<path class="st21" d="M431.8,162.3c0-1-0.7-1.8-1.6-1.8c-0.9,0-1.6,0.8-1.6,1.8c0,1,0.7,1.8,1.6,1.8S431.8,163.3,431.8,162.3z"/>
			<path class="st21" d="M431,157.3c0-0.5-0.3-1-0.7-1.3c-0.4-0.3-1-0.3-1.4,0s-0.7,0.8-0.7,1.3c0,0.5,0.3,1,0.7,1.3
				c0.4,0.3,1,0.3,1.4,0S431,157.8,431,157.3z"/>
			<path class="st21" d="M453.5,182.8c-2-2.7-5.3-3.8-7.3-2.5c-2,1.3-1.9,4.5,0.1,7.2c2,2.7,5.3,3.8,7.3,2.5
				C455.5,188.7,455.5,185.5,453.5,182.8z"/>
			<path class="st21" d="M459.2,232.3c0.4-3.3-1.2-6.2-3.6-6.5c-2.4-0.3-4.6,2.2-5,5.4s1.2,6.2,3.6,6.5
				C456.6,238,458.9,235.6,459.2,232.3z"/>
			<path class="st21" d="M460.5,261.1c0.7-3.2-0.7-6.3-3-6.8c-2.3-0.5-4.8,1.7-5.5,5c-0.7,3.2,0.7,6.3,3,6.8
				C457.3,266.6,459.8,264.4,460.5,261.1L460.5,261.1z"/>
			<path class="st21" d="M466,234.2c0-1.3-0.9-2.4-2-2.4c-1.1,0-2,1.1-2,2.4c0,1.3,0.9,2.4,2,2.4C465.1,236.5,466,235.5,466,234.2z"
				/>
			<path class="st21" d="M461.2,239.6l-4,4.6c0,0-3.8,0.1-3.6,1.3c0.2,1.2,5.2,4.9,5.2,6.4c0,1.5,3.3-0.3,3.3-0.3s2.7-8.2,2.7-8.3
				c0,0-0.1-5.7-1.6-5.6C461.7,237.8,461.3,239.5,461.2,239.6L461.2,239.6z"/>
			<path class="st21" d="M195.6,237.8c0-1.1-0.9-1.9-1.9-1.9c-1.1,0-1.9,0.9-1.9,1.9c0,1.1,0.9,1.9,1.9,1.9
				C194.8,239.7,195.6,238.8,195.6,237.8L195.6,237.8z"/>
			<path class="st21" d="M197.4,231.9c0-1.1-0.9-2-1.9-2c-1.1,0-1.9,0.9-1.9,2c0,1.1,0.9,2,1.9,2C196.6,233.9,197.4,233,197.4,231.9
				z"/>
			<path class="st21" d="M181.7,204c-0.7-1.6-2.2-2.5-3.4-2c-1.1,0.5-1.5,2.2-0.7,3.8c0.7,1.6,2.2,2.5,3.4,2
				C182.1,207.3,182.4,205.6,181.7,204z"/>
			<path class="st21" d="M186.4,221.4c-1-2.1-3.1-3.3-4.6-2.6c-1.6,0.7-2,2.9-1,5s3.1,3.3,4.6,2.6S187.4,223.5,186.4,221.4z"/>
			<path class="st21" d="M191.5,234.1c0.3-2.6-0.8-5-2.4-5.4c-1.7-0.3-3.3,1.5-3.6,4.1c-0.3,2.6,0.8,5,2.4,5.4
				C189.6,238.6,191.2,236.7,191.5,234.1z"/>
			<path class="st21" d="M183.3,236c1-2.4,0.6-5-0.9-5.8s-3.5,0.5-4.6,3c-1,2.4-0.6,5,0.9,5.8C180.3,239.7,182.3,238.4,183.3,236z"
				/>
			<path class="st21" d="M179.6,230.5c0-1.2-1-2.2-2.1-2.2c-1.2,0-2.1,1-2.1,2.2s1,2.2,2.1,2.2C178.7,232.7,179.6,231.7,179.6,230.5
				z"/>
			<path class="st21" d="M177.9,225c0-1.1-0.9-2-1.9-2s-1.9,0.9-1.9,2c0,1.1,0.9,2,1.9,2C177,227,177.9,226.1,177.9,225z"/>
			<path class="st21" d="M179.7,214.3c0-1.9-0.8-3.4-1.9-3.4c-1,0-1.9,1.5-1.9,3.4s0.8,3.4,1.9,3.4S179.7,216.2,179.7,214.3z"/>
			<path class="st21" d="M185.5,213.5c0.2-1.9-0.4-3.5-1.4-3.6c-1-0.1-2.1,1.3-2.3,3.1c-0.2,1.9,0.4,3.5,1.4,3.6
				C184.2,216.7,185.2,215.3,185.5,213.5z"/>
			<path class="st21" d="M226.4,131.7c0.8-2.6,0-5.3-1.8-5.9c-1.7-0.6-3.7,1-4.5,3.6c-0.8,2.6,0,5.3,1.8,5.9
				C223.7,136,225.7,134.4,226.4,131.7z"/>
			<path class="st21" d="M218.7,143.5c2.3-1.9,3.3-4.6,2.2-6c-1.1-1.4-3.8-0.9-6.1,1s-3.3,4.6-2.2,6S216.4,145.5,218.7,143.5z"/>
			<path class="st21" d="M214.1,137c2.3-1.7,3.2-4,2.2-5.1c-1.1-1.2-3.8-0.8-6,0.9c-2.3,1.7-3.2,4-2.2,5.1
				C209.2,139,211.9,138.6,214.1,137z"/>
			<path class="st21" d="M231.6,125.5c1.5-1.2,2.2-2.8,1.5-3.6c-0.7-0.8-2.5-0.5-4.1,0.6c-1.5,1.2-2.2,2.8-1.5,3.6
				C228.3,126.9,230.1,126.6,231.6,125.5z"/>
			<path class="st21" d="M222.5,136.6c1-1.6,1.1-3.3,0.2-3.9c-1-0.5-2.6,0.3-3.6,2c-1,1.6-1.1,3.3-0.2,3.9
				C219.8,139.1,221.5,138.2,222.5,136.6z"/>
			<path class="st21" d="M235.7,129.7c1.6-1.4,2.3-3.2,1.4-4.1s-2.9-0.5-4.5,0.9c-1.6,1.4-2.3,3.2-1.4,4.1
				C232,131.5,234,131.1,235.7,129.7z"/>
			<path class="st21" d="M211.9,145.8c1.5-0.1,2.7-0.8,2.6-1.7c-0.1-0.9-1.4-1.5-3-1.4c-1.5,0.1-2.7,0.8-2.6,1.7
				C209,145.2,210.3,145.9,211.9,145.8L211.9,145.8z"/>
			<path class="st21" d="M240.7,121.2c1-1.6,1.1-3.3,0.2-3.9c-1-0.5-2.6,0.3-3.6,2c-1,1.6-1.1,3.3-0.2,3.9
				C238,123.7,239.6,122.8,240.7,121.2z"/>
		</g>
		<g>
			<path class="st22" d="M354,130.7c0,0,8.1-3.7,10.4-10.7c2.3-6.9-7-7-8.2-4.8c-1.2,2.2,1,7.7,0.5,9.1
				C356,125.8,352.8,129.3,354,130.7L354,130.7z"/>
			<path class="st23" d="M282.5,133.2c0,0,5.2-7.2,3.9-14.4c-1.4-7.2-9.5-2.7-9.5-0.2c0,2.5,4.7,6.2,4.8,7.8
				C281.9,128,280.8,132.6,282.5,133.2L282.5,133.2z"/>
			<path class="st23" d="M268.4,137.5c0,0,5.2-7.2,3.9-14.4c-1.4-7.2-9.5-2.7-9.5-0.2s4.7,6.2,4.8,7.8
				C267.8,132.2,266.6,136.9,268.4,137.5L268.4,137.5z"/>
			<path class="st23" d="M252.6,142.3c0,0,5.2-7.2,3.9-14.4c-1.4-7.2-9.5-2.7-9.5-0.2s4.7,6.2,4.8,7.8
				C252.1,137.1,250.9,141.7,252.6,142.3L252.6,142.3z"/>
			<path class="st23" d="M241.6,153.4c0,0,5.2-7.2,3.9-14.4c-1.4-7.2-9.5-2.7-9.5-0.2c0,2.5,4.7,6.2,4.8,7.8
				C241,148.1,239.8,152.8,241.6,153.4L241.6,153.4z"/>
			<path class="st23" d="M229.9,164c0,0,5.2-7.2,3.9-14.4s-9.5-2.7-9.5-0.2c0,2.5,4.7,6.2,4.8,7.8
				C229.4,158.8,228.2,163.5,229.9,164L229.9,164z"/>
			<path class="st22" d="M256.7,101.9c0,0-7,5.5-7.6,12.8c-0.6,7.3,8.4,5.2,9.1,2.7c0.7-2.4-2.8-7.2-2.6-8.8
				C255.9,107.1,258.2,102.9,256.7,101.9L256.7,101.9z"/>
			<path class="st22" d="M280,94.7c0,0-7,5.5-7.6,12.8c-0.6,7.3,8.4,5.2,9.1,2.7c0.7-2.4-2.8-7.2-2.6-8.8
				C279.1,99.9,281.5,95.7,280,94.7L280,94.7z"/>
			<path class="st22" d="M193.2,157.5c0,0,1.5,8.8,7.6,12.8c6.1,4,8.6-4.9,6.8-6.7c-1.8-1.8-7.7-1-8.9-2
				C197.4,160.8,194.9,156.7,193.2,157.5L193.2,157.5z"/>
			<path class="st22" d="M181.6,187.3c0,0,0.1,8.9,5.4,13.8c5.4,5,9.3-3.5,7.7-5.5c-1.5-2-7.4-2.2-8.5-3.3
				C185.2,191.2,183.4,186.7,181.6,187.3L181.6,187.3z"/>
			<path class="st22" d="M208.4,220.5c0,0-3.2-8.3-9.9-11.1c-6.8-2.8-7.5,6.5-5.3,7.9c2.1,1.4,7.7-0.5,9.1,0.2
				C203.7,218.2,207,221.7,208.4,220.5L208.4,220.5z"/>
			<path class="st22" d="M202.9,206.2c0,0,5.4-7.1,4.2-14.3c-1.2-7.2-9.4-2.9-9.5-0.4c0,2.5,4.5,6.3,4.7,7.9
				C202.4,200.9,201.1,205.5,202.9,206.2L202.9,206.2z"/>
			<path class="st22" d="M370.5,137.8c0,0,8.1-3.7,10.4-10.7c2.3-6.9-7-7-8.2-4.8c-1.2,2.2,1,7.7,0.5,9.1
				C372.5,133,369.3,136.5,370.5,137.8L370.5,137.8z"/>
			<path class="st22" d="M394.9,150c0,0,4.7-7.5,2.9-14.6c-1.8-7.1-9.7-2.1-9.5,0.4c0.2,2.5,5.1,5.9,5.4,7.4
				C394,144.8,393.1,149.6,394.9,150L394.9,150z"/>
			<path class="st22" d="M461.5,219.1c0,0-3.2-8.3-9.9-11.1c-6.8-2.8-7.4,6.5-5.3,7.9c2.1,1.4,7.7-0.5,9.1,0.1
				C456.8,216.8,460,220.3,461.5,219.1L461.5,219.1z"/>
			<path class="st22" d="M428.9,224.3c0,0,0.2-8.9,5.6-13.8c5.4-4.9,9.2,3.6,7.7,5.6c-1.5,2-7.5,2.1-8.6,3.2
				C432.6,220.5,430.7,224.9,428.9,224.3L428.9,224.3z"/>
			<path class="st22" d="M423.7,130.1c0,0-8.3-3.2-14.9,0.1c-6.6,3.2-0.1,9.9,2.3,9.2c2.4-0.7,4.8-6.1,6.2-6.7
				C418.8,132,423.6,131.9,423.7,130.1L423.7,130.1z"/>
			<path class="st22" d="M404.7,114.2c0,0-8.3-3.2-14.9,0.1c-6.6,3.2-0.1,9.9,2.3,9.2c2.4-0.7,4.8-6.1,6.2-6.7
				C399.8,116.1,404.6,116,404.7,114.2L404.7,114.2z"/>
			<path class="st22" d="M376.3,99c0,0-7,5.4-7.8,12.7c-0.7,7.3,8.4,5.3,9.1,2.9c0.7-2.4-2.7-7.3-2.5-8.8
				C375.4,104.2,377.8,100.1,376.3,99L376.3,99z"/>
			<path class="st22" d="M357.9,94.6c0,0-3.2,8.3,0,14.9c3.2,6.6,9.9,0.2,9.2-2.3c-0.6-2.4-6.1-4.8-6.7-6.2
				C359.8,99.5,359.7,94.7,357.9,94.6L357.9,94.6z"/>
			<path class="st22" d="M305.5,126.5c0,0,5.7-6.8,4.9-14c-0.8-7.3-9.3-3.4-9.5-0.9c-0.2,2.5,4.2,6.5,4.3,8.1
				C305.3,121.2,303.8,125.8,305.5,126.5L305.5,126.5z"/>
		</g>
		<g>
			<path class="st24" d="M449.2,223.5c-0.3-2.6-1.6-4.9-3.3-6c-1.7-1.1-3.6-0.9-5,0.6c-1.4,1.5-2,4-1.7,6.6c0.3,2.6,1.6,4.9,3.3,6
				c1.7,1.1,3.6,0.9,5-0.6C448.9,228.6,449.5,226.1,449.2,223.5L449.2,223.5z"/>
			<path class="st24" d="M448.1,210.4c-0.3-2.6-1.6-4.9-3.3-6c-1.7-1.1-3.6-0.9-5,0.6c-1.4,1.5-2,4-1.7,6.6c0.3,2.6,1.6,4.9,3.3,6
				c1.7,1.1,3.6,0.9,5-0.6C447.8,215.5,448.5,213,448.1,210.4L448.1,210.4z"/>
			<path class="st24" d="M445.5,196.4c-0.5-2.6-2-4.7-3.8-5.7c-1.8-1-3.7-0.5-4.9,1.1c-1.2,1.6-1.7,4.2-1.1,6.7
				c0.5,2.6,2,4.7,3.8,5.7c1.8,1,3.7,0.5,4.9-1.1C445.6,201.5,446,199,445.5,196.4L445.5,196.4z"/>
			<path class="st24" d="M440.6,181.8c-1.2-2.3-3.1-4.1-5.1-4.5c-2-0.5-3.7,0.4-4.5,2.3c-0.8,1.9-0.6,4.5,0.6,6.8
				c1.2,2.3,3.1,4.1,5.1,4.5c2,0.5,3.7-0.4,4.5-2.3C442,186.7,441.8,184.1,440.6,181.8z"/>
			<path class="st24" d="M435.4,170c-1.2-2.3-3.1-4.1-5.1-4.5c-2-0.5-3.7,0.4-4.5,2.3c-0.8,1.9-0.6,4.5,0.6,6.8
				c1.2,2.3,3.1,4.1,5.1,4.5c2,0.5,3.7-0.4,4.5-2.3C436.9,174.9,436.6,172.3,435.4,170z"/>
			<path class="st24" d="M428,158.2c-1.4-2.2-3.5-3.8-5.5-4.1c-2-0.3-3.6,0.7-4.3,2.7c-0.6,1.9-0.2,4.5,1.2,6.7
				c1.4,2.2,3.5,3.8,5.5,4.1s3.6-0.7,4.3-2.7C429.9,163,429.4,160.4,428,158.2z"/>
			<path class="st24" d="M419.8,146.8c-1.6-2.1-3.8-3.4-5.8-3.5c-2-0.1-3.6,1.1-4,3.1c-0.4,2,0.3,4.5,1.9,6.6
				c1.6,2.1,3.8,3.4,5.8,3.5c2,0.1,3.6-1.1,4-3.1C422.1,151.4,421.4,148.9,419.8,146.8z"/>
			<path class="st24" d="M410,136.2c-1.9-1.8-4.3-2.8-6.3-2.6s-3.4,1.6-3.5,3.6c-0.2,2,0.9,4.4,2.8,6.2c1.9,1.8,4.3,2.8,6.3,2.6
				c2-0.2,3.4-1.6,3.5-3.6C413,140.4,411.9,138,410,136.2L410,136.2z"/>
			<path class="st24" d="M399,126.4c-2-1.7-4.5-2.4-6.5-2c-2,0.4-3.2,1.9-3.2,3.9c0,2,1.3,4.3,3.3,6c2,1.7,4.5,2.4,6.5,2
				c2-0.4,3.2-1.9,3.2-3.9C402.3,130.4,401.1,128.1,399,126.4z"/>
			<path class="st24" d="M387.3,118.6c-2.3-1.3-4.9-1.6-6.8-0.9c-1.9,0.7-2.9,2.4-2.5,4.4c0.4,2,2,4,4.3,5.3
				c2.3,1.3,4.9,1.6,6.8,0.9c1.9-0.7,2.9-2.4,2.5-4.4C391.3,122,389.6,119.9,387.3,118.6z"/>
			<path class="st24" d="M374.3,111.7c-2.4-1.1-5-1.2-6.8-0.3c-1.8,0.9-2.6,2.6-2.1,4.6c0.6,2,2.4,3.8,4.8,4.9
				c2.4,1.1,5,1.2,6.8,0.3c1.8-0.9,2.6-2.6,2.1-4.6C378.5,114.7,376.7,112.8,374.3,111.7L374.3,111.7z"/>
			<path class="st24" d="M361.5,106.6c-2.5-0.9-5.1-0.9-6.8,0.1c-1.8,1-2.4,2.8-1.8,4.7c0.7,1.9,2.6,3.7,5.1,4.6
				c2.5,0.9,5.1,0.9,6.8-0.1c1.8-1,2.4-2.8,1.8-4.7C365.8,109.2,363.9,107.5,361.5,106.6z"/>
			<path class="st24" d="M348.4,102.5c-2.5-0.7-5.1-0.5-6.8,0.7c-1.7,1.1-2.2,3-1.4,4.8c0.8,1.9,2.9,3.5,5.4,4.2
				c2.5,0.7,5.1,0.5,6.8-0.7c1.7-1.1,2.2-3,1.4-4.8C353,104.8,351,103.2,348.4,102.5z"/>
			<path class="st24" d="M334.1,100c-2.6-0.3-5.1,0.3-6.6,1.7c-1.5,1.4-1.7,3.3-0.6,5c1.1,1.7,3.4,3,6,3.3c2.6,0.3,5.1-0.3,6.6-1.7
				c1.5-1.4,1.7-3.3,0.6-5C339,101.6,336.7,100.4,334.1,100z"/>
			<path class="st24" d="M319.9,99.2c-2.6-0.1-5.1,0.8-6.4,2.3c-1.4,1.5-1.4,3.4-0.2,5c1.2,1.6,3.6,2.7,6.2,2.8
				c2.6,0.1,5.1-0.8,6.4-2.3c1.4-1.5,1.4-3.4,0.2-5C324.9,100.4,322.6,99.3,319.9,99.2L319.9,99.2z"/>
			<path class="st24" d="M307,99.7c-2.6-0.1-5.1,0.8-6.4,2.3c-1.4,1.5-1.4,3.4-0.2,5c1.2,1.6,3.6,2.7,6.2,2.8
				c2.6,0.1,5.1-0.8,6.4-2.3c1.4-1.5,1.4-3.4,0.2-5C312,100.8,309.6,99.8,307,99.7L307,99.7z"/>
			<path class="st24" d="M291.8,101.5c-2.6,0.6-4.7,2.1-5.6,3.9c-0.9,1.8-0.5,3.7,1.1,4.9c1.6,1.2,4.2,1.6,6.7,1
				c2.6-0.6,4.7-2.1,5.6-3.9c0.9-1.8,0.5-3.7-1.1-4.9C296.9,101.3,294.3,100.9,291.8,101.5z"/>
			<path class="st24" d="M278,105c-2.5,0.8-4.5,2.4-5.3,4.3s-0.2,3.7,1.5,4.8c1.7,1.1,4.3,1.3,6.8,0.5c2.5-0.8,4.5-2.4,5.3-4.3
				s0.2-3.7-1.5-4.8C283,104.3,280.4,104.2,278,105z"/>
			<path class="st24" d="M265.3,110.4c-2.4,1.1-4.2,3-4.7,4.9c-0.5,2,0.2,3.7,2.1,4.6c1.8,0.9,4.4,0.7,6.8-0.3
				c2.4-1.1,4.2-3,4.7-4.9s-0.2-3.7-2.1-4.6C270.3,109.1,267.7,109.3,265.3,110.4z"/>
			<path class="st24" d="M252.8,116.8c-2.3,1.3-3.9,3.3-4.3,5.3c-0.4,2,0.6,3.7,2.5,4.4c1.9,0.7,4.5,0.4,6.8-0.9
				c2.3-1.3,3.9-3.3,4.3-5.3c0.4-2-0.6-3.7-2.5-4.4C257.6,115.2,255,115.5,252.8,116.8z"/>
			<path class="st24" d="M240.9,124.9c-2.1,1.5-3.5,3.7-3.7,5.7c-0.2,2,1,3.6,2.9,4.1c2,0.5,4.5-0.1,6.6-1.6
				c2.1-1.5,3.5-3.7,3.7-5.7c0.2-2-1-3.6-2.9-4.1C245.5,122.7,243,123.4,240.9,124.9z"/>
			<path class="st24" d="M229.8,133.2c-2,1.7-3.2,4-3.2,6c0,2,1.3,3.5,3.3,3.8c2,0.3,4.5-0.5,6.5-2.2c2-1.7,3.2-4,3.2-6
				c0-2-1.3-3.5-3.3-3.8C234.3,130.7,231.8,131.5,229.8,133.2z"/>
			<path class="st24" d="M220.1,143.4c-1.9,1.8-2.9,4.2-2.8,6.2c0.2,2,1.5,3.4,3.5,3.6c2,0.2,4.4-0.8,6.3-2.7
				c1.9-1.8,2.9-4.2,2.8-6.2c-0.2-2-1.5-3.4-3.5-3.6C224.4,140.5,222,141.5,220.1,143.4z"/>
			<path class="st24" d="M211.8,154.7c-1.7,2-2.6,4.4-2.2,6.5c0.3,2,1.8,3.3,3.8,3.3s4.3-1.2,6-3.2c1.7-2,2.6-4.4,2.2-6.5
				c-0.3-2-1.8-3.3-3.8-3.3C215.8,151.5,213.5,152.7,211.8,154.7z"/>
			<path class="st24" d="M204.1,166.2c-1.5,2.2-2.1,4.7-1.5,6.7c0.5,2,2.1,3.1,4.1,2.9c2-0.2,4.2-1.6,5.7-3.8
				c1.5-2.2,2.1-4.7,1.5-6.7c-0.5-2-2.1-3.1-4.1-2.9C207.7,162.6,205.6,164.1,204.1,166.2z"/>
			<path class="st24" d="M197.7,179.3c-1.1,2.4-1.2,5-0.4,6.8c0.9,1.8,2.6,2.6,4.6,2.1c2-0.5,3.8-2.3,4.9-4.7c1.1-2.4,1.2-5,0.4-6.8
				c-0.9-1.8-2.6-2.6-4.6-2.1C200.7,175.2,198.8,177,197.7,179.3z"/>
			<path class="st24" d="M192.7,193c-0.9,2.5-0.8,5.1,0.3,6.8c1,1.8,2.8,2.4,4.7,1.7c1.9-0.7,3.6-2.7,4.5-5.1
				c0.9-2.5,0.8-5.1-0.3-6.8c-1-1.8-2.8-2.4-4.7-1.7C195.3,188.6,193.5,190.6,192.7,193z"/>
			<path class="st25" d="M188.3,219c-0.2,2.1,0.5,4.1,1.9,5.3s3.3,1.3,5,0.4c1.7-0.9,2.9-2.8,3.1-4.9c0.2-2.1-0.5-4.1-1.9-5.3
				c-1.4-1.2-3.3-1.3-5-0.4C189.7,215,188.5,216.9,188.3,219L188.3,219z"/>
			<path class="st24" d="M189.5,206.9c-0.6,2.6-0.2,5.1,1,6.7c1.2,1.6,3.1,2.1,4.9,1.1c1.8-0.9,3.3-3.1,3.9-5.6
				c0.6-2.6,0.2-5.1-1-6.7c-1.2-1.6-3.1-2.1-4.9-1.1C191.5,202.2,190,204.3,189.5,206.9z"/>
		</g>
		<g>
			<path class="st26" d="M438.8,200.7c1.6-1.7,3.1-2.2,5-1.6c-0.7-4.5-2.1-6-3.8-5.5C438.1,194.1,437.4,196.5,438.8,200.7
				L438.8,200.7z"/>
			<path class="st26" d="M441.2,214.3c1.7-1.6,3.2-2,5.1-1.2c-0.3-4.5-1.6-6.2-3.4-5.8C441.1,207.7,440.1,210,441.2,214.3
				L441.2,214.3z"/>
			<path class="st26" d="M435.4,188.3c1.1-2.1,2.4-2.9,4.4-2.8c-1.8-4.2-3.6-5.3-5.1-4.3C433.2,182.1,433,184.5,435.4,188.3
				L435.4,188.3z"/>
			<path class="st26" d="M429.4,175.9c1.1-2.1,2.4-2.9,4.4-2.8c-1.8-4.2-3.6-5.3-5.1-4.3C427.1,169.7,427,172.2,429.4,175.9
				L429.4,175.9z"/>
			<path class="st26" d="M414.9,153.2c0.8-2.2,1.9-3.3,3.9-3.4c-2.4-3.8-4.4-4.7-5.7-3.5C411.7,147.5,411.9,150,414.9,153.2
				L414.9,153.2z"/>
			<path class="st26" d="M405.4,143.4c0.7-2.2,1.8-3.3,3.8-3.6c-2.6-3.8-4.5-4.5-5.8-3.2C402,137.8,402.3,140.2,405.4,143.4
				L405.4,143.4z"/>
			<path class="st26" d="M385.5,126.5c0-2.3,0.7-3.7,2.5-4.6c-3.6-2.8-5.7-2.9-6.6-1.3C380.5,122.3,381.5,124.5,385.5,126.5
				L385.5,126.5z"/>
			<path class="st26" d="M395.8,134.3c0.4-2.3,1.3-3.5,3.2-4.1c-3.1-3.4-5.1-3.8-6.2-2.4C391.7,129.3,392.3,131.6,395.8,134.3
				L395.8,134.3z"/>
			<path class="st26" d="M373.6,120c-0.3-2.3,0.3-3.8,2-4.8c-3.9-2.4-6-2.3-6.7-0.6C368.2,116.3,369.5,118.4,373.6,120L373.6,120z"
				/>
			<path class="st26" d="M361.5,114.7c-0.6-2.3-0.2-3.8,1.3-5c-4.2-1.8-6.2-1.4-6.7,0.4C355.7,111.8,357.2,113.7,361.5,114.7
				L361.5,114.7z"/>
			<path class="st26" d="M348.5,110.7c-0.8-2.2-0.6-3.7,0.8-5.1c-4.3-1.4-6.3-0.9-6.6,0.9C342.4,108.3,344.1,110,348.5,110.7
				L348.5,110.7z"/>
			<path class="st26" d="M335.7,108.2c-1-2.1-0.8-3.7,0.5-5.2c-4.4-1.1-6.4-0.4-6.5,1.4C329.5,106.2,331.3,107.9,335.7,108.2
				L335.7,108.2z"/>
			<path class="st26" d="M322.1,107.2c-1.2-2-1.2-3.6-0.1-5.2c-4.5-0.7-6.4,0.3-6.4,2.1C315.7,105.9,317.7,107.3,322.1,107.2
				L322.1,107.2z"/>
			<path class="st26" d="M295.6,109.2c-1.6-1.7-2-3.2-1.3-5c-4.5,0.4-6.1,1.8-5.7,3.5C289.1,109.4,291.3,110.3,295.6,109.2
				L295.6,109.2z"/>
			<path class="st26" d="M308.7,107.5c-1.4-1.9-1.6-3.4-0.6-5.2c-4.5-0.2-6.3,0.9-6.1,2.7C302.2,106.8,304.3,108,308.7,107.5
				L308.7,107.5z"/>
			<path class="st26" d="M282.8,111.9c-1.8-1.4-2.5-2.9-2-4.8c-4.4,1.1-5.8,2.6-5.1,4.3C276.4,113.2,278.7,113.7,282.8,111.9
				L282.8,111.9z"/>
			<path class="st26" d="M258.2,123.2c-2.1-1.1-3-2.3-2.9-4.3c-4.1,1.9-5.2,3.7-4.2,5.2C252.2,125.6,254.6,125.7,258.2,123.2
				L258.2,123.2z"/>
			<path class="st26" d="M270.1,117.2c-1.9-1.3-2.7-2.7-2.4-4.6c-4.3,1.4-5.6,3-4.8,4.7C263.7,118.8,266.2,119.2,270.1,117.2
				L270.1,117.2z"/>
			<path class="st26" d="M236.2,138.5c-2.3-0.6-3.4-1.7-3.7-3.6c-3.6,2.7-4.3,4.7-3,6C230.8,142.2,233.2,141.8,236.2,138.5
				L236.2,138.5z"/>
			<path class="st26" d="M246.7,130c-2.2-0.8-3.2-1.9-3.4-3.9c-3.9,2.4-4.7,4.3-3.5,5.7C241,133.1,243.5,132.9,246.7,130L246.7,130z
				"/>
			<path class="st26" d="M226.9,147.7c-2.3-0.4-3.5-1.4-4-3.3c-3.4,3-3.9,5.1-2.5,6.2C221.8,151.8,224.2,151.2,226.9,147.7
				L226.9,147.7z"/>
			<path class="st26" d="M218.5,158.6c-2.3-0.2-3.6-1-4.3-2.9c-3.1,3.3-3.4,5.4-1.9,6.4C213.8,163.1,216.1,162.3,218.5,158.6
				L218.5,158.6z"/>
			<path class="st26" d="M211.5,169.7c-2.3,0.2-3.7-0.5-4.7-2.2c-2.5,3.8-2.5,5.9-0.9,6.6C207.6,174.9,209.7,173.7,211.5,169.7
				L211.5,169.7z"/>
			<path class="st26" d="M205.4,181.5c-2.3,0.5-3.8,0-5-1.6c-2,4.1-1.7,6.1,0,6.7C202.2,187.2,204.1,185.8,205.4,181.5L205.4,181.5z
				"/>
			<path class="st26" d="M200.5,193.7c-2.2,0.8-3.7,0.6-5.1-0.7c-1.4,4.3-0.8,6.3,1,6.6C198.2,199.8,199.9,198.1,200.5,193.7
				L200.5,193.7z"/>
			<path class="st26" d="M197.2,207.3c-2.1,1-3.7,0.9-5.2-0.4c-1.1,4.4-0.3,6.4,1.5,6.5C195.3,213.5,196.9,211.7,197.2,207.3
				L197.2,207.3z"/>
			<path class="st26" d="M195.9,218.5c-2,1.1-3.5,1.2-5.2,0.4c-0.6,3.6,0.4,5,2.2,4.9C194.7,223.7,196,222,195.9,218.5L195.9,218.5z
				"/>
			<path class="st26" d="M424,164.9c0.8-2.2,2-3.2,3.9-3.4c-2.4-3.9-4.3-4.7-5.7-3.5C420.9,159.1,421.1,161.5,424,164.9L424,164.9z"
				/>
			<path class="st26" d="M442.7,228c1.7-1.6,3.2-2,5.1-1.2c-0.3-4.5-1.6-6.2-3.4-5.8C442.6,221.5,441.6,223.7,442.7,228L442.7,228z"
				/>
		</g>
		<path class="st27" d="M414.1,170c0,0,4.7-7.5,2.9-14.6s-9.7-2.1-9.5,0.4c0.2,2.5,5.1,5.9,5.4,7.4
			C413.2,164.8,412.3,169.5,414.1,170L414.1,170z"/>
		<g>
			<path class="st18" d="M424.9,154.1c-0.1,0-5.1,5.1-4.3,11.3c0.9,6.2,4.8,13.8,4.1,20.3c-0.7,6.4-1.9,10.7-1.9,10.7s6-6.8,6-13.3
				c0.1-6.5-4.1-15.1-4.1-19.9C424.7,158.3,425,154,424.9,154.1L424.9,154.1z"/>
			<path class="st18" d="M434.3,174.9c0,0-4,2.9-3.6,9.7c0.4,6.8,7.4,19.1,7.4,19.1s5.1,10.5,4.9,13.2c-0.2,2.7,0.9-2.6,0.4-8.6
				c-0.5-6-8.2-19.1-8.2-19.1s-1.7-2.7-1.5-7.2C433.9,177.5,434.4,175,434.3,174.9L434.3,174.9z"/>
			<path class="st28" d="M323.5,107.5c0,0,17.1,0.7,17.2,11.7c-0.1,1.7,0,3.8-0.6,8.7c3.4-1.8,5.6-6.9,5.2-10.2
				C345.3,106.5,330,98.8,323.5,107.5L323.5,107.5z"/>
			<path class="st28" d="M312.6,107c0,0,13.8-2.9,13.9,8.2c0.1,11.1-4.4,12.8-4.4,12.8s10.6-2.3,10.6-13.5
				C332.8,103.3,319.2,98.3,312.6,107L312.6,107z"/>
			<path class="st28" d="M446.5,233.8c0.3,5,5.2,9.7,3.3,18.4c-2.4,9.8-11,33.2-9.5,37.3c-2.5-3.5-2.1-6.8-2.3-11.6
				c-0.2-4.9,7.1-22.9,7.7-29.1C445.6,243.3,446.2,235.8,446.5,233.8L446.5,233.8z"/>
			<path class="st28" d="M446.5,234c0,0,7.9,10,7.5,18c-0.4,7.9-4.9,17.2-3.4,21.3c-2.5-3.5-3.2-5.7-3.4-10.6
				c-0.2-4.9,3.9-10.2,3.1-15.5C449.4,241.9,446.4,233.9,446.5,234L446.5,234z"/>
			<path class="st28" d="M186.9,236.2c-0.3,5-4,9.4-2.1,18.1c2.4,9.8,11.1,22.3,9.7,36.6c2.5-3.5,3.3-7.4,3.5-12.3
				c0.2-4.9-9.6-21.2-10.2-27.4C187.8,245.7,187.2,238.2,186.9,236.2L186.9,236.2z"/>
			<path class="st28" d="M186.9,236.3c0,0-7.7,9.7-7.3,17.6c0.1,5.3,9.8,27.4,8.3,31.5c2.5-3.5,3.3-3.1,3.2-8.3
				c-2.9-13.5-7.9-22.2-7.1-27.5C184.9,244.3,187,236.3,186.9,236.3L186.9,236.3z"/>
		</g>
	</g>
	<g>
		<path class="st29" d="M336.8,141.1c0,0,13.8,0.9,14.4,8.8c0.7,7.9-3.3,12.7-3.3,12.7s1.7,17-11.7,22c-14.4,1.7-37.1,0.4-37.1,0.4
			s-6.6,1.6-9.3-12.1c-2.7-13.8-3.5-23.5-3.5-23.5s1.3-7.7,11.1-8.2C307.1,140.7,336.7,141.2,336.8,141.1L336.8,141.1z"/>
		<path class="st30" d="M347.8,162.4c0,0-7.4,9.2-6.6,13"/>
		<path class="st29" d="M337.9,184.1c1.8,1.5,3.6,3.3,3.9,9c0.4,5.7,0.8,11.4,0.8,11.4l9.6,86.6l8.5,62.7l0.6,9.7c0,0-2,7.1-7.7,7.7
			c-4.1,8.7-26.6,11.2-28.8,11.1c-2-0.1-9.1-3.1-13.5-2.7c-4.3,0.4-11.8,3.3-15.2,2.8c-3.4-0.5-11-3.1-12.3-8.6
			c-9.4-3-11-10.2-11-10.2l10.2-72.5l9.9-91.6c0,0,1.2-12.2,6.1-14.1C304.1,184.9,330.5,185.8,337.9,184.1L337.9,184.1z"/>
		<path class="st2" d="M285.9,309.5l-2,64.1"/>
		<path class="st2" d="M348.2,318l5.7,52.9"/>
		<path class="st31" d="M318.7,147.4l19.2,59.1l62.1,0L349.8,243l19.2,59.1l-50.3-36.5l-50.3,36.5l19.2-59.1l-50.3-36.5l62.1,0
			L318.7,147.4z"/>
	</g>
</g>
</svg>
