<?xml version="1.0" encoding="utf-8"?>
<!-- Generator: Adobe Illustrator 15.0.2, SVG Export Plug-In . SVG Version: 6.00 Build 0)  -->
<!DOCTYPE svg PUBLIC "-//W3C//DTD SVG 1.1//EN" "http://www.w3.org/Graphics/SVG/1.1/DTD/svg11.dtd">
<svg version="1.1" id="Layer_1" xmlns="http://www.w3.org/2000/svg" xmlns:xlink="http://www.w3.org/1999/xlink" x="0px" y="0px"
	 width="640px" height="480px" viewBox="0 0 640 480" enable-background="new 0 0 640 480" xml:space="preserve">
<g>
	<path fill="#FF9933" d="M0,0h640v160H0V0z"/>
	<path fill="#FFFFFF" d="M0,160h640v160H0V160z"/>
	<path fill="#128807" d="M0,320h640v160H0V320z"/>
	<circle fill="#000088" cx="320" cy="240" r="64"/>
	<circle fill="#FFFFFF" cx="320" cy="240" r="56"/>
	<circle fill="#000088" cx="320" cy="240" r="11.2"/>
	<circle fill="#000088" cx="375.521" cy="247.309" r="2.8"/>
	<path fill="#000088" d="M320,296l1.92-33.601l-1.92-16l-1.92,16L320,296z"/>
	<circle fill="#000088" cx="371.737" cy="261.43" r="2.8"/>
	<path fill="#000088" d="M305.506,294.092l10.551-31.958l2.287-15.952l-5.996,14.958L305.506,294.092z"/>
	<circle fill="#000088" cx="364.428" cy="274.091" r="2.8"/>
	<path fill="#000088" d="M292,288.497l18.463-28.139l6.337-14.816l-9.663,12.896L292,288.497z"/>
	<circle fill="#000088" cx="354.091" cy="284.427" r="2.8"/>
	<path fill="#000088" d="M280.402,279.598l25.116-22.401l9.956-12.671l-12.671,9.956L280.402,279.598z"/>
	<circle fill="#000088" cx="341.431" cy="291.738" r="2.8"/>
	<path fill="#000088" d="M271.503,268l30.058-15.138l12.896-9.663l-14.816,6.338L271.503,268z"/>
	<circle fill="#000088" cx="327.31" cy="295.521" r="2.8"/>
	<path fill="#000088" d="M265.908,254.493l32.952-6.842l14.958-5.995l-15.952,2.286L265.908,254.493z"/>
	<circle fill="#000088" cx="312.69" cy="295.521" r="2.8"/>
	<path fill="#000088" d="M264,240l33.6,1.92l16-1.92l-16-1.92L264,240z"/>
	<circle fill="#000088" cx="298.569" cy="291.738" r="2.8"/>
	<path fill="#000088" d="M265.908,225.506l31.958,10.551l15.952,2.286l-14.958-5.995L265.908,225.506z"/>
	<circle fill="#000088" cx="285.909" cy="284.427" r="2.8"/>
	<path fill="#000088" d="M271.503,212l28.138,18.463l14.816,6.337l-12.896-9.663L271.503,212z"/>
	<circle fill="#000088" cx="275.572" cy="274.091" r="2.8"/>
	<path fill="#000088" d="M280.402,200.402l22.401,25.117l12.671,9.956l-9.956-12.672L280.402,200.402z"/>
	<circle fill="#000088" cx="268.262" cy="261.43" r="2.8"/>
	<path fill="#000088" d="M292,191.502l15.137,30.059l9.663,12.896l-6.337-14.816L292,191.502z"/>
	<circle fill="#000088" cx="264.479" cy="247.309" r="2.8"/>
	<path fill="#000088" d="M305.506,185.908l6.842,32.951l5.996,14.958l-2.287-15.951L305.506,185.908z"/>
	<circle fill="#000088" cx="264.479" cy="232.69" r="2.8"/>
	<path fill="#000088" d="M320,184l-1.92,33.6l1.92,16l1.92-16L320,184z"/>
	<circle fill="#000088" cx="268.262" cy="218.57" r="2.8"/>
	<path fill="#000088" d="M334.494,185.908l-10.551,31.958l-2.287,15.951l5.996-14.958L334.494,185.908z"/>
	<circle fill="#000088" cx="275.572" cy="205.909" r="2.8"/>
	<path fill="#000088" d="M348,191.502l-18.463,28.139l-6.337,14.816l9.663-12.896L348,191.502z"/>
	<circle fill="#000088" cx="285.909" cy="195.572" r="2.8"/>
	<path fill="#000088" d="M359.598,200.402l-25.116,22.401l-9.956,12.672l12.672-9.956L359.598,200.402z"/>
	<circle fill="#000088" cx="298.569" cy="188.262" r="2.8"/>
	<path fill="#000088" d="M368.497,212l-30.058,15.137l-12.896,9.663l14.816-6.337L368.497,212z"/>
	<circle fill="#000088" cx="312.69" cy="184.479" r="2.8"/>
	<path fill="#000088" d="M374.092,225.506l-32.952,6.842l-14.958,5.995l15.952-2.286L374.092,225.506z"/>
	<circle fill="#000088" cx="327.31" cy="184.479" r="2.8"/>
	<path fill="#000088" d="M376,240l-33.6-1.92l-16,1.92l16,1.92L376,240z"/>
	<circle fill="#000088" cx="341.431" cy="188.262" r="2.8"/>
	<path fill="#000088" d="M374.092,254.493l-31.958-10.551l-15.952-2.286l14.958,5.995L374.092,254.493z"/>
	<circle fill="#000088" cx="354.091" cy="195.572" r="2.8"/>
	<path fill="#000088" d="M368.497,268l-28.138-18.463l-14.816-6.338l12.896,9.663L368.497,268z"/>
	<circle fill="#000088" cx="364.428" cy="205.909" r="2.8"/>
	<path fill="#000088" d="M359.598,279.598l-22.4-25.116l-12.672-9.956l9.956,12.671L359.598,279.598z"/>
	<circle fill="#000088" cx="371.737" cy="218.57" r="2.8"/>
	<path fill="#000088" d="M348,288.497l-15.137-30.059l-9.663-12.896l6.337,14.816L348,288.497z"/>
	<circle fill="#000088" cx="375.521" cy="232.69" r="2.8"/>
	<path fill="#000088" d="M334.494,294.092l-6.842-32.952l-5.996-14.958l2.287,15.952L334.494,294.092z"/>
</g>
</svg>
