<?xml version="1.0" encoding="utf-8"?>
<!-- Generator: Adobe Illustrator 15.0.2, SVG Export Plug-In . SVG Version: 6.00 Build 0)  -->
<!DOCTYPE svg PUBLIC "-//W3C//DTD SVG 1.1//EN" "http://www.w3.org/Graphics/SVG/1.1/DTD/svg11.dtd">
<svg version="1.1" id="Layer_1" xmlns="http://www.w3.org/2000/svg" xmlns:xlink="http://www.w3.org/1999/xlink" x="0px" y="0px"
	 width="640px" height="480px" viewBox="0 0 640 480" enable-background="new 0 0 640 480" xml:space="preserve">
<g>
	<path fill="#FFFFFF" d="M0,160h640v160H0V160z"/>
	<path fill="#CE1126" d="M0,0h640v160H0V0z"/>
	<path d="M0,320h640v160H0V320z"/>
	<path fill="#007A3D" d="M390.991,210.528c-0.978-0.515-2.077-1.344-2.444-1.845c-0.55-0.771-0.228-0.799,2.038-0.184
		c4.063,1.101,6.683,0.671,9.281-1.529l2.295-1.933l2.697,1.374c1.483,0.75,3.061,1.268,3.517,1.149
		c1.168-0.309,3.591-3.417,3.512-4.492c-0.095-1.331,1.028-0.998,1.57,0.461c1.077,2.855-0.491,6.137-3.268,6.863
		c-1.355,0.355-2.606,0.225-4.66-0.49c-2.519-0.876-2.948-0.865-4.213,0.102c-2.833,2.172-6.779,2.375-10.323,0.525L390.991,210.528
		z M401.034,201.345c-0.986-1.255-2.172-5.997-1.786-7.161c0.336-1.008,0.683-1.209,1.601-0.922
		c1.608,0.505,1.979,1.611,1.739,5.367C402.4,201.692,401.947,202.495,401.034,201.345z M282.76,197.938
		c-0.324,2.295,4.073,8.002,6.058,9.036c-1.349,0.604-3.025,0.332-4.263,1.011c-6.916,6.916-32.176,31.541-36.788,37.429
		c13.664,0.271,28.817-0.184,41.623-0.771c-0.01-9.281,8.794-9.761,14.684-13.143c3.031,4.774,10.641,4.408,11.592,11.594
		c0,8.602,0.018,21.558,0.018,30.913H198.965c-2.049,9.067-10.236,15.985-21.64,13.139c3.528-3.685,9.471-4.953,11.597-10.045
		c1.793-11.15-3.584-18.037-7.063-24.363c5.753-2.091,6.625-2.613,12.473-6.544c-4.103,12.473,10.672,11.103,21.642,10.817
		c0.368-4.236,0.154-9.236-3.095-9.854c4.197-1.523,4.895-2.046,11.597-7.729v16.803c26.076,0,54.205-0.192,80.825-0.192
		c0-5.261,1.395-13.708-2.768-13.708c-3.977,0-0.188,10.814-3.276,10.814H236.84c0-2.327-0.06-7.189-0.06-10.693
		c2.646-2.648,2.33-2.418,20.405-20.496c1.801-1.801,14.48-13.255,25.576-24.018H282.76z M438.777,197.494
		c4.358,2.344,7.808,5.588,13.143,6.955c-0.619,2.207-2.584,3.083-3.102,5.409V257c5.962,1.313,7.218-2.063,10.053-3.863
		c0.773,7.546,5.579,14.943,5.409,20.864h-25.503V197.494z M404.77,222.743c0,0,9.279-7.834,9.279-8.136v41.142l6.682-0.009
		c0-15.675-0.205-31.573-0.205-46.14c2.711-2.715,8.023-6.643,9.352-9.39v73.682c-18.824,0-53.942,0.022-58.585,0.022
		c-0.864-15.293-1.011-31.13,16.817-27.726v-6.24c-0.543-1.064-1.523,0.26-1.752-1.128c2.833-2.833,3.791-3.557,11.457-10.248
		c0,8.076,0.141,27.149,0.141,27.149c1.874,0,5.523,0.007,6.756,0.007c0,0,0.063-31.932,0.063-32.986H404.77z M382.778,255.327
		c1.255,1.885,5.527,1.852,5.326-1.321c-0.719-2.615-6.333-1.618-5.326,1.323V255.327z"/>
	<circle fill="#007A3D" cx="213.183" cy="282.689" r="3.577"/>
	<path fill="#007A3D" d="M323.586,197.57c4.359,2.344,7.809,5.589,13.143,6.955c-0.618,2.207-2.586,3.083-3.098,5.407v47.142
		c5.957,1.314,7.213-2.063,10.049-3.862c0.771,7.545,5.58,14.942,5.41,20.864h-25.507c0.003-25.498,0.003-51.003,0.003-76.508
		V197.57z"/>
</g>
</svg>
