<?xml version="1.0" encoding="utf-8"?>
<!-- Generator: Adobe Illustrator 15.0.2, SVG Export Plug-In . SVG Version: 6.00 Build 0)  -->
<!DOCTYPE svg PUBLIC "-//W3C//DTD SVG 1.1//EN" "http://www.w3.org/Graphics/SVG/1.1/DTD/svg11.dtd">
<svg version="1.1" id="Layer_1" xmlns="http://www.w3.org/2000/svg" xmlns:xlink="http://www.w3.org/1999/xlink" x="0px" y="0px"
	 width="640px" height="480px" viewBox="0 0 640 480" enable-background="new 0 0 640 480" xml:space="preserve">
<g>
	<defs>
		<rect id="SVGID_1_" y="0" width="640" height="480"/>
	</defs>
	<clipPath id="SVGID_2_">
		<use xlink:href="#SVGID_1_"  overflow="visible"/>
	</clipPath>
	<path clip-path="url(#SVGID_2_)" fill="#000066" d="M0,0h960v480H0V0z"/>
	<path clip-path="url(#SVGID_2_)" fill="#000066" d="M0,0h350.002v175H0V0z"/>
	<path clip-path="url(#SVGID_2_)" fill="#FFFFFF" d="M0,0v19.565L310.871,175h39.13v-19.565L39.132,0.001L0,0L0,0z M350.002,0
		v19.564L39.13,175.001H0v-19.565L310.871,0H350.002L350.002,0z"/>
	<path clip-path="url(#SVGID_2_)" fill="#FFFFFF" d="M145.834,0v175h58.334V0H145.834z M0,58.334v58.333h350.002V58.334H0z"/>
	<path clip-path="url(#SVGID_2_)" fill="#CC0000" d="M0,70v35h350.002V70H0z M157.5,0v175h35V0H157.5z M0,175l116.667-58.333h26.087
		L26.087,175.001L0,175L0,175z M0,0l116.667,58.334H90.58L0,13.044V0z M207.248,58.334L323.915,0h26.087L233.334,58.334H207.248z
		 M350.002,175l-116.668-58.334h26.087l90.58,45.29L350.002,175L350.002,175z"/>
	<path clip-path="url(#SVGID_2_)" fill="#FFFFFF" d="M378.475,154.457l219.342-0.814l-0.407,195.333c0,0,7.731,29.706-91.968,74.876
		c35.811-3.663,74.877-41.914,74.877-41.914s15.869-20.347,23.603-8.953c7.731,11.395,15.056,17.091,20.753,21.568
		c5.697,4.476,10.174,16.685,1.628,25.637s-21.974,10.173-25.637-0.814c-5.697,2.85-40.693,45.17-112.31,47.205
		c-72.841-1.221-112.721-47.611-112.721-47.611s-9.766,15.464-23.602,3.256c-13.428-15.87-3.255-26.044-3.255-26.044
		s11.394-6.511,14.649-10.988c5.29-6.104,6.917-14.243,15.87-14.243c10.58,0.814,14.65,9.36,14.65,9.36s36.624,38.659,76.096,43.542
		c-89.12-42.729-92.375-69.18-91.968-75.69l0.406-193.699L378.475,154.457z"/>
	<path clip-path="url(#SVGID_2_)" fill="#006129" stroke="#000000" stroke-width="1.7173" d="M383.76,159.742l209.16-1.22v188.003
		c0.407,24.416-40.693,49.24-104.99,80.98c-66.322-34.184-104.569-54.939-104.979-81.381l0.813-186.372L383.76,159.742z"/>
	<path clip-path="url(#SVGID_2_)" fill="none" stroke="#F7C600" stroke-width="1.718" d="M408.912,366.902l12.346-18.133
		l12.407,18.172"/>
	<path clip-path="url(#SVGID_2_)" fill="#F7C600" stroke="#000000" stroke-width="0.8051" d="M423.739,360.115
		c0.003,1.354-1.093,2.454-2.446,2.458c-1.354,0.002-2.455-1.093-2.458-2.447c0-0.003,0-0.006,0-0.009
		c0.002-1.354,1.101-2.45,2.455-2.448C422.641,357.67,423.736,358.764,423.739,360.115z"/>
	<path clip-path="url(#SVGID_2_)" fill="#F7C600" stroke="#000000" stroke-width="0.8054" d="M411.232,380.3l19.142,0.054
		c0,0,0.3-2.484-2-3.994c10.026-1.378,7.422-10.222,15.817-10.723c1.631,0.25-4.386,3.76-4.386,3.76s-5.062,3.572-2.757,5.388
		c1.83,1.442,2.632-0.877,2.883-2.631c0.25-1.755,8.146-2.883,7.019-7.895c-1.88-4.136-12.908,2.757-12.908,2.757l-7.868-0.044
		c-0.49-0.884-2.66-4.425-4.898-4.44c-2.656,0.096-4.527,4.484-4.527,4.484h-17.796c0,0-0.61,4.566,8.413,5.443
		c2.031,2.652,3.606,3.394,5.373,4.08c-1.178,0.981-1.51,2.168-1.504,3.761H411.232z"/>
	<path clip-path="url(#SVGID_2_)" fill="none" stroke="#000000" stroke-width="0.8054" d="M412.611,376.41l15.942-0.054
		 M405.311,367.008c0,0,1.274,7.457,7.16,9.223"/>
	
		<linearGradient id="SVGID_3_" gradientUnits="userSpaceOnUse" x1="-2491.3848" y1="2535.7542" x2="-2501.9138" y2="2539.2742" gradientTransform="matrix(0.85 0 0 -1.9221 2413.9478 5151.6304)">
		<stop  offset="0" style="stop-color:#FF0000"/>
		<stop  offset="1" style="stop-color:#FFFF00"/>
	</linearGradient>
	<path clip-path="url(#SVGID_2_)" fill="url(#SVGID_3_)" stroke="#000000" stroke-width="0.609" d="M404.325,366.907
		c0.589-2.845,1.668-3.335,2.845-6.966c0.197-3.53-2.845-3.139-1.961-5.396c1.569-2.453,0.784-4.808-2.158-6.672
		c0.588,3.237-3.828,6.279-3.828,8.929c0,2.648,2.258,2.061,1.963,6.083c0.195,2.354-0.589,1.766-0.784,4.021H404.325z"/>
	<path clip-path="url(#SVGID_2_)" fill="#F7C600" stroke="#000000" stroke-width="0.8054" d="M423.542,349.227
		c0.003,1.246-1.006,2.258-2.252,2.26c-1.245,0.003-2.258-1.005-2.26-2.251c0-0.003,0-0.005,0-0.008
		c0.001-1.246,1.013-2.255,2.259-2.253C422.532,346.977,423.539,347.984,423.542,349.227z"/>
	<path clip-path="url(#SVGID_2_)" fill="none" stroke="#F7C600" stroke-width="1.718" d="M408.214,329.58l12.347-18.135
		l12.406,18.172"/>
	<path clip-path="url(#SVGID_2_)" fill="#F7C600" stroke="#000000" stroke-width="0.8051" d="M423.04,322.793
		c0.028,1.354-1.047,2.474-2.401,2.502c-1.354,0.027-2.474-1.048-2.502-2.401c0-0.033,0-0.067,0-0.101
		c0.002-1.354,1.102-2.449,2.456-2.447C421.943,320.348,423.038,321.442,423.04,322.793L423.04,322.793z"/>
	<path clip-path="url(#SVGID_2_)" fill="#F7C600" stroke="#000000" stroke-width="0.8054" d="M410.535,342.977l19.141,0.055
		c0,0,0.301-2.484-2-3.994c10.026-1.379,7.422-10.222,15.818-10.723c1.63,0.25-4.387,3.76-4.387,3.76s-5.062,3.572-2.756,5.389
		c1.829,1.441,2.631-0.877,2.883-2.633c0.25-1.754,8.145-2.882,7.018-7.895c-1.88-4.135-12.908,2.757-12.908,2.757l-7.867-0.044
		c-0.49-0.883-2.66-4.424-4.898-4.439c-2.657,0.097-4.528,4.483-4.528,4.483h-17.796c0,0-0.609,4.566,8.413,5.443
		c2.032,2.653,3.606,3.395,5.372,4.081C410.862,340.198,410.531,341.386,410.535,342.977L410.535,342.977z"/>
	<path clip-path="url(#SVGID_2_)" fill="none" stroke="#000000" stroke-width="0.8054" d="M411.913,339.088l15.942-0.055
		 M404.611,329.686c0,0,1.275,7.456,7.162,9.222"/>
	
		<linearGradient id="SVGID_4_" gradientUnits="userSpaceOnUse" x1="-2491.1831" y1="2536.3284" x2="-2501.7114" y2="2539.8481" gradientTransform="matrix(0.85 0 0 -1.9221 2413.2725 5115.5581)">
		<stop  offset="0" style="stop-color:#FF0000"/>
		<stop  offset="1" style="stop-color:#FFFF00"/>
	</linearGradient>
	<path clip-path="url(#SVGID_2_)" fill="url(#SVGID_4_)" stroke="#000000" stroke-width="0.609" d="M403.627,329.586
		c0.589-2.846,1.668-3.336,2.845-6.966c0.197-3.531-2.845-3.14-1.961-5.396c1.569-2.453,0.784-4.808-2.158-6.673
		c0.588,3.237-3.827,6.279-3.827,8.929c0,2.648,2.257,2.061,1.962,6.083c0.196,2.354-0.589,1.766-0.784,4.022H403.627z"/>
	<path clip-path="url(#SVGID_2_)" fill="#F7C600" stroke="#000000" stroke-width="0.8054" d="M422.844,311.904
		c0.003,1.246-1.006,2.258-2.252,2.261c-1.245,0.002-2.258-1.006-2.26-2.252c0-0.002,0-0.005,0-0.008
		c0.002-1.246,1.014-2.254,2.26-2.252C421.834,309.655,422.842,310.66,422.844,311.904z"/>
	<path clip-path="url(#SVGID_2_)" fill="none" stroke="#F7C600" stroke-width="1.718" d="M539.38,295.652l12.347-18.134
		l12.406,18.172"/>
	<path clip-path="url(#SVGID_2_)" fill="#F7C600" stroke="#000000" stroke-width="0.8051" d="M554.207,288.865
		c0.003,1.354-1.093,2.455-2.447,2.458c-1.354,0.003-2.454-1.093-2.457-2.447c0-0.003,0-0.006,0-0.009
		c0.002-1.354,1.102-2.45,2.455-2.448C553.109,286.42,554.204,287.514,554.207,288.865z"/>
	<path clip-path="url(#SVGID_2_)" fill="#F7C600" stroke="#000000" stroke-width="0.8054" d="M541.701,309.05l19.141,0.054
		c0,0,0.301-2.484-1.999-3.994c10.026-1.379,7.421-10.222,15.818-10.723c1.629,0.25-4.388,3.76-4.388,3.76s-5.062,3.572-2.757,5.388
		c1.83,1.442,2.632-0.877,2.884-2.632c0.25-1.754,8.146-2.882,7.018-7.895c-1.88-4.135-12.908,2.757-12.908,2.757l-7.868-0.043
		c-0.489-0.884-2.659-4.425-4.897-4.441c-2.657,0.098-4.528,4.484-4.528,4.484H529.42c0,0-0.609,4.565,8.413,5.442
		c2.032,2.654,3.606,3.396,5.373,4.082C542.028,306.27,541.696,307.457,541.701,309.05L541.701,309.05z"/>
	<path clip-path="url(#SVGID_2_)" fill="none" stroke="#000000" stroke-width="0.8054" d="M543.08,305.159l15.941-0.053
		 M535.777,295.758c0,0,1.275,7.455,7.162,9.222"/>
	
		<linearGradient id="SVGID_5_" gradientUnits="userSpaceOnUse" x1="-2490.4932" y1="2538.4163" x2="-2501.022" y2="2541.9363" gradientTransform="matrix(0.85 0 0 -1.9221 2540.0479 5082.7671)">
		<stop  offset="0" style="stop-color:#FF0000"/>
		<stop  offset="1" style="stop-color:#FFFF00"/>
	</linearGradient>
	<path clip-path="url(#SVGID_2_)" fill="url(#SVGID_5_)" stroke="#000000" stroke-width="0.609" d="M534.793,295.657
		c0.589-2.845,1.668-3.335,2.845-6.965c0.197-3.531-2.845-3.14-1.961-5.396c1.569-2.453,0.784-4.807-2.158-6.672
		c0.588,3.237-3.827,6.279-3.827,8.929c0,2.648,2.257,2.061,1.962,6.083c0.196,2.354-0.589,1.766-0.784,4.021H534.793z"/>
	<path clip-path="url(#SVGID_2_)" fill="#F7C600" stroke="#000000" stroke-width="0.8054" d="M554.01,277.976
		c0.001,1.246-1.009,2.257-2.255,2.257c-1.246,0.001-2.257-1.009-2.257-2.255l0,0c0-1.246,1.009-2.256,2.255-2.257
		S554.01,276.73,554.01,277.976z"/>
	<path clip-path="url(#SVGID_2_)" fill="none" stroke="#F7C600" stroke-width="1.718" d="M411.273,259.372l12.346-18.135
		l12.407,18.172"/>
	<path clip-path="url(#SVGID_2_)" fill="#F7C600" stroke="#000000" stroke-width="0.8051" d="M426.1,252.585
		c0.003,1.354-1.093,2.454-2.447,2.457c-1.354,0.002-2.453-1.094-2.456-2.447c0-0.003,0-0.006,0-0.009
		c0.002-1.354,1.102-2.45,2.456-2.448C425.003,250.14,426.098,251.235,426.1,252.585z"/>
	<path clip-path="url(#SVGID_2_)" fill="#F7C600" stroke="#000000" stroke-width="0.8054" d="M413.594,272.769l19.141,0.054
		c0,0,0.301-2.483-2-3.993c10.026-1.379,7.423-10.222,15.818-10.724c1.631,0.251-4.386,3.76-4.386,3.76s-5.062,3.572-2.757,5.39
		c1.83,1.441,2.632-0.877,2.883-2.632c0.25-1.754,8.145-2.883,7.018-7.896c-1.88-4.136-12.907,2.757-12.907,2.757l-7.868-0.044
		c-0.49-0.883-2.66-4.424-4.898-4.439c-2.656,0.097-4.527,4.483-4.527,4.483h-17.797c0,0-0.609,4.566,8.414,5.443
		c2.031,2.653,3.605,3.394,5.371,4.081C413.921,269.99,413.59,271.177,413.594,272.769L413.594,272.769z"/>
	<path clip-path="url(#SVGID_2_)" fill="none" stroke="#000000" stroke-width="0.8054" d="M414.972,268.88l15.943-0.055
		 M407.67,259.477c0,0,1.276,7.457,7.162,9.223"/>
	
		<linearGradient id="SVGID_6_" gradientUnits="userSpaceOnUse" x1="-2490.812" y1="2537.467" x2="-2501.3411" y2="2540.9871" gradientTransform="matrix(0.85 0 0 -1.9221 2416.23 5047.6987)">
		<stop  offset="0" style="stop-color:#FF0000"/>
		<stop  offset="1" style="stop-color:#FFFF00"/>
	</linearGradient>
	<path clip-path="url(#SVGID_2_)" fill="url(#SVGID_6_)" stroke="#000000" stroke-width="0.609" d="M406.687,259.377
		c0.588-2.845,1.667-3.336,2.845-6.966c0.197-3.531-2.845-3.14-1.962-5.396c1.57-2.453,0.784-4.808-2.158-6.673
		c0.589,3.238-3.827,6.279-3.827,8.929s2.258,2.061,1.963,6.083c0.195,2.354-0.589,1.766-0.784,4.022H406.687z"/>
	<path clip-path="url(#SVGID_2_)" fill="#F7C600" stroke="#000000" stroke-width="0.8054" d="M425.903,241.696
		c0.002,1.246-1.006,2.258-2.252,2.261c-1.246,0.002-2.258-1.006-2.261-2.252c0-0.002,0-0.005,0-0.008
		c0.002-1.245,1.014-2.254,2.26-2.252C424.894,239.447,425.9,240.453,425.903,241.696z"/>
	<path clip-path="url(#SVGID_2_)" fill="none" stroke="#F7C600" stroke-width="1.718" d="M411.55,223.713l12.347-18.134
		l12.406,18.172"/>
	<path clip-path="url(#SVGID_2_)" fill="#F7C600" stroke="#000000" stroke-width="0.8051" d="M426.377,216.926
		c0.003,1.354-1.093,2.454-2.447,2.457c-1.354,0.003-2.454-1.093-2.457-2.447c0-0.003,0-0.006,0-0.009
		c0.002-1.354,1.102-2.45,2.456-2.448C425.279,214.481,426.374,215.575,426.377,216.926z"/>
	<path clip-path="url(#SVGID_2_)" fill="#F7C600" stroke="#000000" stroke-width="0.8054" d="M413.871,237.11l19.141,0.056
		c0,0,0.301-2.485-1.999-3.994c10.026-1.38,7.421-10.223,15.818-10.724c1.629,0.25-4.387,3.761-4.387,3.761
		s-5.063,3.571-2.757,5.388c1.83,1.442,2.632-0.877,2.883-2.632c0.25-1.754,8.146-2.882,7.018-7.896
		c-1.88-4.135-12.908,2.757-12.908,2.757l-7.867-0.044c-0.49-0.883-2.66-4.424-4.898-4.439c-2.657,0.097-4.528,4.483-4.528,4.483
		H401.59c0,0-0.609,4.566,8.413,5.443c2.032,2.653,3.606,3.396,5.373,4.081C414.198,234.332,413.866,235.519,413.871,237.11
		L413.871,237.11z"/>
	<path clip-path="url(#SVGID_2_)" fill="none" stroke="#000000" stroke-width="0.8054" d="M415.25,233.222l15.941-0.055
		 M407.947,223.818c0,0,1.275,7.457,7.162,9.224"/>
	
		<linearGradient id="SVGID_7_" gradientUnits="userSpaceOnUse" x1="-2490.6177" y1="2538.0266" x2="-2501.1462" y2="2541.5464" gradientTransform="matrix(0.85 0 0 -1.9221 2416.4976 5013.2358)">
		<stop  offset="0" style="stop-color:#FF0000"/>
		<stop  offset="1" style="stop-color:#FFFF00"/>
	</linearGradient>
	<path clip-path="url(#SVGID_2_)" fill="url(#SVGID_7_)" stroke="#000000" stroke-width="0.609" d="M406.963,223.719
		c0.589-2.845,1.668-3.335,2.845-6.966c0.197-3.531-2.845-3.14-1.961-5.396c1.569-2.453,0.784-4.808-2.158-6.672
		c0.588,3.237-3.827,6.279-3.827,8.928c0,2.649,2.257,2.061,1.962,6.084c0.196,2.354-0.589,1.766-0.784,4.021H406.963z"/>
	<path clip-path="url(#SVGID_2_)" fill="#F7C600" stroke="#000000" stroke-width="0.8054" d="M426.18,206.037
		c0.003,1.245-1.006,2.258-2.252,2.26c-1.245,0.003-2.258-1.006-2.26-2.252c0-0.002,0-0.005,0-0.007
		c0.002-1.246,1.014-2.255,2.26-2.253C425.17,203.787,426.178,204.794,426.18,206.037z"/>
	<path clip-path="url(#SVGID_2_)" fill="none" stroke="#F7C600" stroke-width="1.718" d="M412.229,187.532l12.346-18.134
		l12.406,18.172"/>
	<path clip-path="url(#SVGID_2_)" fill="#F7C600" stroke="#000000" stroke-width="0.8051" d="M427.054,180.746
		c0.028,1.354-1.047,2.474-2.401,2.501c-1.354,0.028-2.474-1.047-2.501-2.4c-0.001-0.033-0.001-0.066-0.001-0.1
		c0.027-1.354,1.146-2.43,2.501-2.403C425.967,178.37,427.027,179.43,427.054,180.746z"/>
	<path clip-path="url(#SVGID_2_)" fill="#F7C600" stroke="#000000" stroke-width="0.8054" d="M414.549,200.93l19.141,0.054
		c0,0,0.3-2.483-2-3.993c10.026-1.38,7.423-10.222,15.818-10.724c1.63,0.251-4.386,3.76-4.386,3.76s-5.062,3.573-2.757,5.39
		c1.83,1.441,2.632-0.877,2.882-2.633c0.25-1.754,8.146-2.882,7.019-7.895c-1.881-4.135-12.908,2.757-12.908,2.757l-7.868-0.044
		c-0.49-0.883-2.659-4.424-4.898-4.44c-2.657,0.098-4.528,4.484-4.528,4.484h-17.795c0,0-0.609,4.566,8.414,5.443
		c2.03,2.652,3.605,3.395,5.371,4.081C414.876,198.152,414.544,199.339,414.549,200.93z"/>
	<path clip-path="url(#SVGID_2_)" fill="none" stroke="#000000" stroke-width="0.8054" d="M415.927,197.042l15.943-0.056
		 M408.625,187.638c0,0,1.275,7.457,7.162,9.223"/>
	
		<linearGradient id="SVGID_8_" gradientUnits="userSpaceOnUse" x1="-2490.4321" y1="2538.6038" x2="-2500.9612" y2="2542.1238" gradientTransform="matrix(0.85 0 0 -1.9221 2417.1528 4978.2671)">
		<stop  offset="0" style="stop-color:#FF0000"/>
		<stop  offset="1" style="stop-color:#FFFF00"/>
	</linearGradient>
	<path clip-path="url(#SVGID_2_)" fill="url(#SVGID_8_)" stroke="#000000" stroke-width="0.609" d="M407.642,187.539
		c0.588-2.845,1.667-3.336,2.845-6.966c0.197-3.531-2.845-3.14-1.962-5.396c1.57-2.453,0.784-4.808-2.158-6.673
		c0.589,3.238-3.827,6.279-3.827,8.929s2.258,2.061,1.963,6.083c0.195,2.354-0.589,1.766-0.784,4.022H407.642z"/>
	<path clip-path="url(#SVGID_2_)" fill="#F7C600" stroke="#000000" stroke-width="0.8054" d="M426.857,169.857
		c0.026,1.246-0.962,2.277-2.207,2.304c-1.246,0.027-2.277-0.961-2.305-2.207c0-0.031,0-0.063,0-0.096
		c0.026-1.245,1.058-2.234,2.303-2.208C425.857,167.675,426.831,168.649,426.857,169.857z"/>
	<path clip-path="url(#SVGID_2_)" fill="none" stroke="#F7C600" stroke-width="1.718" d="M540.355,188.122l12.347-18.135
		l12.405,18.172"/>
	<path clip-path="url(#SVGID_2_)" fill="#F7C600" stroke="#000000" stroke-width="0.8051" d="M555.182,181.335
		c0.004,1.354-1.092,2.454-2.446,2.457s-2.454-1.093-2.457-2.446c0-0.003,0-0.006,0-0.009c0.001-1.354,1.101-2.451,2.455-2.449
		C554.084,178.89,555.18,179.984,555.182,181.335z"/>
	<path clip-path="url(#SVGID_2_)" fill="#F7C600" stroke="#000000" stroke-width="0.8054" d="M542.676,201.52l19.141,0.054
		c0,0,0.301-2.483-1.998-3.993c10.025-1.38,7.421-10.223,15.817-10.724c1.63,0.25-4.386,3.76-4.386,3.76s-5.063,3.572-2.757,5.389
		c1.83,1.441,2.631-0.877,2.882-2.632c0.25-1.755,8.146-2.883,7.018-7.896c-1.88-4.135-12.908,2.757-12.908,2.757l-7.867-0.043
		c-0.49-0.884-2.659-4.425-4.898-4.44c-2.656,0.097-4.527,4.483-4.527,4.483h-17.795c0,0-0.61,4.566,8.412,5.443
		c2.031,2.654,3.606,3.395,5.373,4.082C543.004,198.74,542.672,199.928,542.676,201.52L542.676,201.52z"/>
	<path clip-path="url(#SVGID_2_)" fill="none" stroke="#000000" stroke-width="0.8054" d="M544.054,197.63l15.944-0.054
		 M536.753,188.228c0,0,1.275,7.456,7.162,9.222"/>
	
		<linearGradient id="SVGID_9_" gradientUnits="userSpaceOnUse" x1="-2489.9277" y1="2540.1135" x2="-2500.4568" y2="2543.6335" gradientTransform="matrix(0.85 0 0 -1.9221 2540.9897 4978.8374)">
		<stop  offset="0" style="stop-color:#FF0000"/>
		<stop  offset="1" style="stop-color:#FFFF00"/>
	</linearGradient>
	<path clip-path="url(#SVGID_2_)" fill="url(#SVGID_9_)" stroke="#000000" stroke-width="0.609" d="M535.769,188.128
		c0.588-2.845,1.667-3.335,2.845-6.966c0.197-3.531-2.845-3.14-1.962-5.396c1.57-2.453,0.784-4.808-2.158-6.672
		c0.589,3.237-3.827,6.279-3.827,8.928c0,2.649,2.258,2.061,1.963,6.084c0.195,2.354-0.589,1.766-0.784,4.021H535.769z"/>
	<path clip-path="url(#SVGID_2_)" fill="#F7C600" stroke="#000000" stroke-width="0.8054" d="M554.984,170.446
		c0.027,1.246-0.961,2.277-2.206,2.305s-2.277-0.961-2.304-2.207c-0.001-0.031-0.001-0.063,0-0.096
		c0.025-1.245,1.057-2.234,2.302-2.208C553.984,168.264,554.959,169.238,554.984,170.446z"/>
	<path clip-path="url(#SVGID_2_)" fill="none" stroke="#F7C600" stroke-width="1.718" d="M539.186,223.638l12.347-18.134
		l12.405,18.172"/>
	<path clip-path="url(#SVGID_2_)" fill="#F7C600" stroke="#000000" stroke-width="0.8051" d="M554.012,216.85
		c0.003,1.354-1.092,2.454-2.446,2.457s-2.454-1.092-2.458-2.446c0-0.003,0-0.006,0-0.009c0.003-1.354,1.103-2.45,2.457-2.448
		C552.914,214.406,554.01,215.5,554.012,216.85L554.012,216.85z"/>
	<path clip-path="url(#SVGID_2_)" fill="#F7C600" stroke="#000000" stroke-width="0.8054" d="M541.506,237.034l19.141,0.056
		c0,0,0.301-2.485-1.998-3.994c10.025-1.379,7.42-10.222,15.817-10.723c1.629,0.25-4.387,3.76-4.387,3.76s-5.063,3.572-2.757,5.388
		c1.83,1.442,2.632-0.877,2.883-2.632c0.25-1.754,8.146-2.882,7.018-7.896c-1.88-4.135-12.908,2.758-12.908,2.758l-7.867-0.044
		c-0.49-0.884-2.66-4.425-4.898-4.44c-2.657,0.097-4.527,4.484-4.527,4.484h-17.797c0,0-0.609,4.565,8.413,5.442
		c2.032,2.653,3.607,3.396,5.373,4.081C541.833,234.257,541.501,235.444,541.506,237.034L541.506,237.034z"/>
	<path clip-path="url(#SVGID_2_)" fill="none" stroke="#000000" stroke-width="0.8054" d="M542.884,233.147l15.943-0.055
		 M535.582,223.743c0,0,1.275,7.456,7.163,9.223"/>
	
		<linearGradient id="SVGID_10_" gradientUnits="userSpaceOnUse" x1="-2490.1182" y1="2539.5422" x2="-2500.6472" y2="2543.0623" gradientTransform="matrix(0.85 0 0 -1.9221 2539.8599 5013.1636)">
		<stop  offset="0" style="stop-color:#FF0000"/>
		<stop  offset="1" style="stop-color:#FFFF00"/>
	</linearGradient>
	<path clip-path="url(#SVGID_2_)" fill="url(#SVGID_10_)" stroke="#000000" stroke-width="0.609" d="M534.599,223.644
		c0.588-2.845,1.667-3.335,2.845-6.966c0.197-3.53-2.845-3.14-1.962-5.396c1.57-2.453,0.784-4.808-2.158-6.672
		c0.589,3.237-3.827,6.279-3.827,8.928c0,2.649,2.258,2.061,1.963,6.084c0.195,2.354-0.589,1.766-0.784,4.021H534.599z"/>
	<path clip-path="url(#SVGID_2_)" fill="#F7C600" stroke="#000000" stroke-width="0.8054" d="M553.814,205.962
		c0.001,1.246-1.009,2.256-2.255,2.256c-1.246,0.001-2.257-1.009-2.257-2.255l0,0c0-1.246,1.01-2.257,2.256-2.257
		S553.814,204.716,553.814,205.962z"/>
	<path clip-path="url(#SVGID_2_)" fill="none" stroke="#F7C600" stroke-width="1.718" d="M537.615,259.94l12.346-18.134
		l12.407,18.172"/>
	<path clip-path="url(#SVGID_2_)" fill="#F7C600" stroke="#000000" stroke-width="0.8051" d="M552.441,253.152
		c0.027,1.354-1.048,2.475-2.402,2.502c-1.354,0.027-2.474-1.048-2.501-2.401c-0.001-0.033-0.001-0.065,0-0.099
		c0.026-1.354,1.146-2.43,2.499-2.403C551.354,250.777,552.414,251.836,552.441,253.152z"/>
	<path clip-path="url(#SVGID_2_)" fill="#F7C600" stroke="#000000" stroke-width="0.8054" d="M539.936,273.337l19.141,0.054
		c0,0,0.3-2.484-1.999-3.994c10.026-1.379,7.421-10.222,15.817-10.723c1.631,0.25-4.386,3.76-4.386,3.76s-5.062,3.572-2.757,5.388
		c1.83,1.442,2.632-0.877,2.882-2.631c0.25-1.755,8.146-2.883,7.019-7.895c-1.881-4.137-12.908,2.757-12.908,2.757l-7.868-0.044
		c-0.49-0.883-2.659-4.424-4.897-4.44c-2.657,0.097-4.528,4.484-4.528,4.484h-17.795c0,0-0.61,4.564,8.413,5.443
		c2.031,2.652,3.605,3.394,5.371,4.079C540.263,270.558,539.932,271.746,539.936,273.337L539.936,273.337z"/>
	<path clip-path="url(#SVGID_2_)" fill="none" stroke="#000000" stroke-width="0.8054" d="M541.314,269.448l15.942-0.054
		 M534.012,260.045c0,0,1.275,7.457,7.162,9.223"/>
	
		<linearGradient id="SVGID_11_" gradientUnits="userSpaceOnUse" x1="-2490.3145" y1="2538.9553" x2="-2500.8435" y2="2542.4753" gradientTransform="matrix(0.85 0 0 -1.9221 2538.3413 5048.2495)">
		<stop  offset="0" style="stop-color:#FF0000"/>
		<stop  offset="1" style="stop-color:#FFFF00"/>
	</linearGradient>
	<path clip-path="url(#SVGID_2_)" fill="url(#SVGID_11_)" stroke="#000000" stroke-width="0.609" d="M533.028,259.945
		c0.589-2.845,1.668-3.335,2.845-6.965c0.197-3.531-2.845-3.14-1.961-5.396c1.569-2.453,0.784-4.807-2.158-6.672
		c0.588,3.237-3.828,6.279-3.828,8.929c0,2.648,2.258,2.061,1.963,6.083c0.195,2.354-0.589,1.766-0.784,4.021H533.028z"/>
	<path clip-path="url(#SVGID_2_)" fill="#F7C600" stroke="#000000" stroke-width="0.8054" d="M552.244,242.263
		c0.027,1.246-0.961,2.277-2.207,2.305c-1.245,0.026-2.277-0.962-2.304-2.207c-0.001-0.032-0.001-0.063-0.001-0.096
		c0.026-1.246,1.057-2.234,2.303-2.209C551.244,240.081,552.218,241.054,552.244,242.263z"/>
	<path clip-path="url(#SVGID_2_)" fill="none" stroke="#F7C600" stroke-width="1.2883" d="M539.184,367.27l12.346-18.132
		l12.406,18.17"/>
	<path clip-path="url(#SVGID_2_)" fill="#F7C600" stroke="#000000" stroke-width="0.8048" d="M554.005,360.496
		c0.028,1.354-1.048,2.474-2.401,2.501c-1.354,0.028-2.474-1.048-2.502-2.401c0-0.033,0-0.065,0-0.098
		c0.027-1.354,1.146-2.431,2.5-2.404C552.918,358.12,553.979,359.18,554.005,360.496z"/>
	<path clip-path="url(#SVGID_2_)" fill="#F7C600" stroke="#000000" stroke-width="0.8048" d="M541.503,380.666l19.14,0.055
		c0,0,0.301-2.484-1.998-3.994c10.025-1.378,7.422-10.223,15.817-10.723c1.629,0.25-4.386,3.76-4.386,3.76s-5.063,3.572-2.758,5.389
		c1.83,1.442,2.632-0.877,2.883-2.632c0.25-1.754,8.146-2.882,7.018-7.896c-1.88-4.136-12.908,2.758-12.908,2.758l-7.867-0.044
		c-0.49-0.884-2.66-4.425-4.898-4.44c-2.657,0.098-4.527,4.484-4.527,4.484H529.22c0,0-0.61,4.565,8.413,5.442
		c2.031,2.653,3.606,3.395,5.372,4.081c-1.177,0.981-1.509,2.168-1.504,3.76H541.503z"/>
	<path clip-path="url(#SVGID_2_)" fill="none" stroke="#000000" stroke-width="0.8048" d="M542.878,376.776l15.943-0.054
		 M535.58,367.384c0,0,1.275,7.456,7.162,9.222"/>
	
		<linearGradient id="SVGID_12_" gradientUnits="userSpaceOnUse" x1="-2490.8735" y1="2537.2942" x2="-2501.4026" y2="2540.8142" gradientTransform="matrix(0.85 0 0 -1.9222 2539.9116 5152.2544)">
		<stop  offset="0" style="stop-color:#FF0000"/>
		<stop  offset="1" style="stop-color:#FFFF00"/>
	</linearGradient>
	<path clip-path="url(#SVGID_2_)" fill="url(#SVGID_12_)" stroke="#000000" stroke-width="0.784" d="M534.594,367.281
		c0.589-2.846,1.668-3.337,2.846-6.967c0.196-3.531-2.846-3.14-1.963-5.396c1.571-2.453,0.785-4.807-2.158-6.672
		c0.589,3.238-3.826,6.28-3.826,8.929c0,2.649,2.257,2.062,1.962,6.083c0.197,2.354-0.588,1.766-0.784,4.023H534.594
		L534.594,367.281z"/>
	<path clip-path="url(#SVGID_2_)" fill="#F7C600" stroke="#000000" stroke-width="0.8048" d="M553.811,349.605
		c0.026,1.245-0.962,2.277-2.208,2.304c-1.245,0.027-2.276-0.961-2.304-2.207c0-0.032,0-0.063,0-0.096
		c0.026-1.246,1.058-2.234,2.303-2.208C552.811,347.423,553.784,348.397,553.811,349.605z"/>
	<path clip-path="url(#SVGID_2_)" fill="none" stroke="#F7C600" stroke-width="1.718" d="M538.99,331.364l12.346-18.134
		l12.407,18.172"/>
	<path clip-path="url(#SVGID_2_)" fill="#F7C600" stroke="#000000" stroke-width="0.8051" d="M553.816,324.576
		c0.004,1.354-1.092,2.455-2.446,2.458s-2.454-1.093-2.457-2.447c0-0.003,0-0.005,0-0.009c0.002-1.354,1.101-2.45,2.455-2.448
		C552.719,322.132,553.814,323.226,553.816,324.576z"/>
	<path clip-path="url(#SVGID_2_)" fill="#F7C600" stroke="#000000" stroke-width="0.8054" d="M541.311,344.761l19.142,0.055
		c0,0,0.3-2.485-2-3.994c10.026-1.379,7.422-10.222,15.819-10.723c1.629,0.25-4.388,3.76-4.388,3.76s-5.062,3.572-2.757,5.388
		c1.83,1.442,2.632-0.877,2.883-2.632c0.25-1.754,8.146-2.882,7.018-7.895c-1.879-4.136-12.907,2.757-12.907,2.757l-7.868-0.044
		c-0.49-0.883-2.66-4.424-4.898-4.44c-2.656,0.098-4.527,4.484-4.527,4.484H529.03c0,0-0.61,4.566,8.413,5.443
		c2.031,2.652,3.606,3.395,5.373,4.082c-1.178,0.979-1.51,2.168-1.504,3.76L541.311,344.761z"/>
	<path clip-path="url(#SVGID_2_)" fill="none" stroke="#000000" stroke-width="0.8054" d="M542.689,340.873l15.942-0.056
		 M535.387,331.47c0,0,1.276,7.456,7.163,9.222"/>
	
		<linearGradient id="SVGID_13_" gradientUnits="userSpaceOnUse" x1="-2490.6831" y1="2537.8528" x2="-2501.2122" y2="2541.3728" gradientTransform="matrix(0.85 0 0 -1.9221 2539.6714 5117.2827)">
		<stop  offset="0" style="stop-color:#FF0000"/>
		<stop  offset="1" style="stop-color:#FFFF00"/>
	</linearGradient>
	<path clip-path="url(#SVGID_2_)" fill="url(#SVGID_13_)" stroke="#000000" stroke-width="0.609" d="M534.403,331.369
		c0.589-2.846,1.668-3.336,2.845-6.966c0.197-3.531-2.845-3.14-1.961-5.396c1.569-2.453,0.784-4.808-2.158-6.673
		c0.588,3.237-3.828,6.279-3.828,8.929c0,2.648,2.258,2.061,1.963,6.083c0.195,2.354-0.589,1.766-0.784,4.022H534.403z"/>
	<path clip-path="url(#SVGID_2_)" fill="#F7C600" stroke="#000000" stroke-width="0.8054" d="M553.62,313.688
		c0.001,1.246-1.009,2.256-2.255,2.257s-2.257-1.009-2.258-2.255c0-1.246,1.01-2.256,2.256-2.257S553.619,312.442,553.62,313.688z"
		/>
	<path clip-path="url(#SVGID_2_)" fill="none" stroke="#F7C600" stroke-width="1.718" d="M434.677,297.99l12.347-18.134
		l12.406,18.172"/>
	<path clip-path="url(#SVGID_2_)" fill="#F7C600" stroke="#000000" stroke-width="0.8051" d="M449.504,291.201
		c0.003,1.354-1.092,2.455-2.446,2.458s-2.454-1.093-2.458-2.447c0-0.003,0-0.005,0-0.008c0.002-1.354,1.102-2.451,2.456-2.449
		C448.406,288.757,449.501,289.851,449.504,291.201z"/>
	<path clip-path="url(#SVGID_2_)" fill="#F7C600" stroke="#000000" stroke-width="0.8054" d="M436.998,311.387l19.141,0.054
		c0,0,0.301-2.483-1.999-3.994c10.026-1.379,7.421-10.222,15.818-10.723c1.629,0.25-4.387,3.76-4.387,3.76s-5.063,3.572-2.757,5.388
		c1.83,1.442,2.632-0.877,2.883-2.631c0.25-1.755,8.146-2.883,7.018-7.895c-1.88-4.136-12.908,2.757-12.908,2.757l-7.867-0.044
		c-0.49-0.883-2.66-4.424-4.898-4.44c-2.657,0.097-4.528,4.484-4.528,4.484h-17.796c0,0-0.609,4.565,8.413,5.442
		c2.032,2.653,3.607,3.395,5.373,4.08C437.325,308.608,436.993,309.795,436.998,311.387L436.998,311.387z"/>
	<path clip-path="url(#SVGID_2_)" fill="none" stroke="#000000" stroke-width="0.8054" d="M438.376,307.498l15.943-0.055
		 M431.074,298.095c0,0,1.275,7.457,7.163,9.223"/>
	
		<linearGradient id="SVGID_14_" gradientUnits="userSpaceOnUse" x1="-2490.9219" y1="2537.1389" x2="-2501.4509" y2="2540.6589" gradientTransform="matrix(0.85 0 0 -1.9221 2438.8496 5085.0249)">
		<stop  offset="0" style="stop-color:#FF0000"/>
		<stop  offset="1" style="stop-color:#FFFF00"/>
	</linearGradient>
	<path clip-path="url(#SVGID_2_)" fill="url(#SVGID_14_)" stroke="#000000" stroke-width="0.609" d="M430.09,297.995
		c0.589-2.845,1.668-3.336,2.846-6.966c0.196-3.531-2.846-3.14-1.962-5.396c1.569-2.453,0.784-4.808-2.158-6.673
		c0.589,3.238-3.827,6.279-3.827,8.929s2.258,2.061,1.963,6.083c0.195,2.354-0.589,1.766-0.785,4.022H430.09z"/>
	<path clip-path="url(#SVGID_2_)" fill="#F7C600" stroke="#000000" stroke-width="0.8054" d="M449.307,280.313
		c0.003,1.246-1.005,2.258-2.251,2.261s-2.258-1.005-2.261-2.251c0-0.003,0-0.005,0-0.008c0.002-1.246,1.013-2.255,2.259-2.253
		C448.297,278.063,449.305,279.07,449.307,280.313z"/>
	<path clip-path="url(#SVGID_2_)" fill="#F7C600" stroke="#000000" stroke-width="0.8054" d="M500.741,384.174
		c0,0,4.995,11.516,10.684,4.439c5.689-7.076,3.608-10.129,3.608-10.129l-12.766-6.937l-3.746,7.909L500.741,384.174z"/>
	<path clip-path="url(#SVGID_2_)" fill="#FFC6B5" stroke="#000000" stroke-width="0.8054" d="M511.705,382.653
		c0,0,0.833,0.139,1.525-1.109c0.693-1.25-1.525-1.805-2.496-3.191l-1.11,2.22L511.705,382.653z M482.834,379.598l-11.239,6.105
		c0,0-5.55,1.109-5.966,0c-0.416-1.11,0.139-2.082,3.052-2.221c2.914-0.139,10.823-7.354,10.823-7.354L482.834,379.598z
		 M482.98,179.934c0,0,0.276,2.636,0.416,4.023c0.139,1.387-2.221,4.302-2.359,4.163c-0.139-0.14-1.249,0.139-1.11,0.971
		c0.14,0.832,1.804,1.109,1.804,1.109s-0.693,2.914,0,3.054c0.694,0.139-1.804,3.746,0,4.717c1.805,0.971,4.856,2.22,6.244,1.943
		c1.388-0.278,0,5.41,0,5.41l-3.885,8.325l21.367-2.22l-4.439-7.076c0,0-2.082-1.388-1.527-5.412c0.555-4.022-0.277-22.2-0.277-22.2
		l-15.262-2.081l-0.973,5.273H482.98z M479.091,211.569c0,0-6.937,3.191-6.66,11.794c-1.803,8.325-2.774,16.65-2.774,16.65
		s-8.187,9.295-10.684,12.626c-2.498,3.33-6.244,10.128-7.632,11.932c-1.388,1.805-6.799,7.771-6.66,9.99
		c0.14,2.22-1.249,12.072,4.163,13.181c1.387,0.556,5.827-11.377,5.827-11.377s0.278-5.134-1.248-6.104s3.33-4.301,3.33-4.301
		s9.296-6.801,11.377-8.464c2.081-1.664,7.771-8.049,7.771-8.049L479.091,211.569L479.091,211.569z"/>
	<path clip-path="url(#SVGID_2_)" fill="#FFFFFF" stroke="#000000" stroke-width="0.8054" d="M487,205.048
		c0,0,1.804,4.855,5.828,4.022c4.023-0.832,8.741-4.579,8.741-4.579s3.745-0.138,4.301,0.417c0.555,0.556,10.129,9.851,9.852,12.766
		c-0.278,2.914-4.439,2.08-5.967,4.022c-1.526,1.943-4.024,6.801-3.33,10.407c0.694,3.607,2.775,8.325,2.498,10.129
		c-0.276,1.805-1.804,2.358-1.804,3.33c0,0.97,1.249,2.636,1.249,4.44c0,1.804-1.665,4.439-1.388,6.243s0.416,7.075,0.416,7.075
		l-0.416,24.421c0,0,1.388,0.833,1.526,2.221c0.138,1.388,9.435,41.763,9.435,41.763s-0.416,1.25-1.388,1.11
		c-0.971-0.141,3.746,6.244,3.886,8.048c0.139,1.804,4.855,15.957,4.718,17.899c-0.14,1.942-0.833,6.243-1.25,6.383
		c-0.415,0.139,3.053,8.879,2.498,10.267c-0.556,1.388-6.243,1.25-6.243,1.25l-1.527-0.278c0,0,0.141,1.803-0.97,1.942
		c-1.11,0.139-9.297-0.416-9.297-0.416s-2.359,3.606-3.746,3.469c-1.388-0.14-3.192-2.637-3.608-2.22
		c-0.416,0.416,1.25,2.774,0.832,3.468c-0.416,0.694-7.492,2.22-8.88-1.11c-1.387-3.33,0.833-2.496,0.417-3.189
		c-0.417-0.695-3.607-2.498-4.578-1.943c-0.972,0.555,2.496,1.387,2.358,2.775c-0.139,1.387-3.053,3.468-4.163,3.468
		c-1.109,0-3.746-5.133-7.631-4.578c-3.885,0.556-6.383,1.526-6.383,1.526s-4.578,1.941-6.521,1.525
		c-1.941-0.416-2.774-1.941-2.774-2.774c0-0.832,1.388-4.44,1.249-5.55c-0.14-1.11-1.249-2.221-1.249-3.886s3.19-7.354,3.19-7.354
		l-0.138-25.53c0,0-2.914,0-3.053-1.804c-0.14-1.804,4.439-40.376,5.134-42.874c0.693-2.498,2.497-11.378,2.497-11.378
		s-2.08,0.972-2.22,0c-0.141-0.972,6.244-23.032,6.244-23.032s1.109-10.961,1.109-13.875c0-2.913-0.555-6.937-0.555-6.937
		s-5.696-2.412-5.827-6.105c-0.521-5.877,5.41-9.158,6.104-11.1l2.775-7.771C478.953,211.153,482.005,205.88,487,205.048
		L487,205.048z"/>
	<path clip-path="url(#SVGID_2_)" fill="#F7C600" stroke="#000000" stroke-width="0.8054" d="M484.924,381.264
		c0,0-13.458,7.077-15.4,7.632c-1.943,0.555-3.192-2.358-1.25-2.914c1.943-0.555,4.996-0.833,4.996-0.833s-4.58-3.607-4.44-3.746
		c0.139-0.139,6.244-2.357,6.383-2.357c0.14,0,1.942,3.606,3.19,3.33c1.248-0.277,4.856-3.054,4.856-3.054
		S485.202,381.541,484.924,381.264z"/>
	<path clip-path="url(#SVGID_2_)" fill="#FFC6B5" stroke="#000000" stroke-width="0.8054" d="M503.889,385.14
		c1.273,1.64,1.771,4.487,4.685,2.821c2.914-1.664-1.493-4.754-1.493-4.754L503.889,385.14L503.889,385.14z M509.206,384.862
		c0,0,1.387,1.11,2.636-0.139s-2.498-3.885-2.498-3.885l-1.803,2.08L509.206,384.862z"/>
	<path clip-path="url(#SVGID_2_)" fill="none" stroke="#000000" stroke-width="0.8054" d="M505.04,210.458
		c0,0-12.351,7.908-12.072,10.684 M507.816,211.845c0,0-2.774,3.053-2.913,3.053 M511.561,215.176c0,0-6.105,4.995-5.135,8.186
		 M482.702,209.765c0,0-1.804,3.746-1.388,4.995s3.47,5.966,3.885,8.88c0.417,2.914,0,4.995,0,4.995 M479.516,216.701
		c0,0,0.554,4.44,1.387,5.272c0.833,0.833,3.053,4.58,3.33,6.105 M478.404,235.155c0,0,3.606,1.805,6.937-5.134 M490.743,225.166
		c-0.14,0-2.636,6.799,1.804,9.296c4.44,2.497,7.77,2.22,9.712,1.526c1.943-0.693,4.024-1.942,4.024-1.942 M488.813,233.49
		c0,0,0.276,9.158,13.735,18.178 M489.367,242.093c0,0-0.139,8.048,5.134,11.655 M486.59,232.657c0,0-4.023,11.934-7.215,13.183
		 M485.334,241.4c0,0-0.139,8.604-1.249,11.655 M482.98,255.136c0,0,2.774,3.469,5.826,3.19c3.054-0.276,4.301-3.885,6.383-3.329
		c2.08,0.556,4.023,2.22,8.881,1.804 M497.13,260.407c0,0,0,7.076,1.25,7.771s0.693,7.215,0.693,7.215 M480.202,257.079
		c0,0-0.138,6.659-0.972,9.019c-0.832,2.358-2.496,6.382-2.22,9.851 M471.738,279.839c0.693-0.278,3.053-2.359,3.053-2.359
		 M476.036,279.005c0,0-5.966,25.529-4.301,40.793 M477.425,280.249c0,0-3.053,19.146-1.665,22.755 M475.904,279.693
		c0.139,0,11.654,0.833,11.654,0.833 M489.222,279.005c0,0,3.191,1.666,7.632,1.388 M487.833,288.303c0,0-0.555,32.745-1.387,39.96
		 M504.907,295.788c0,0,3.608,28.722,5.689,31.357 M497.964,299.399c0,0,2.22,25.393,3.47,27.612 M466.475,335.888
		c0,0,4.301-1.388,8.186-5.55c4.439,5.966,11.24,0.277,11.24,0.277s10.544,7.215,15.261-0.833
		c7.215,4.718,10.823-0.693,10.823-0.693s2.636,4.023,4.578,3.607 M505.04,335.478c0,0,5.41,25.391,13.458,32.606 M477.146,332.832
		c0,0,0.694,21.23,1.943,36.215 M476.182,356.836c0,0-0.693,13.875-1.526,14.848 M467.995,373.078c0,0,1.526,5.965,9.158,0.415
		c7.631-5.55,7.77,2.082,8.047,2.914c0.278,0.832,1.526,6.8,4.439,1.804 M495.742,370.023c0,0-1.249,12.349,9.713,3.33
		c10.961-9.019,12.765-0.14,13.042,2.636"/>
	<path clip-path="url(#SVGID_2_)" fill="#9C5100" stroke="#000000" stroke-width="0.8054" d="M482.556,179.1
		c0,0,3.054,0.417,4.718-0.554c1.666-0.973,3.608-1.389,4.996,0.555c1.387,1.943,2.358,1.803,2.358,1.803s-2.082,5.135,0,5.689
		c2.081,0.555,3.052,0.555,3.191,1.249c0.139,0.693-1.804,2.22-1.249,2.913s1.526,1.526,1.665,2.082
		c0.139,0.555-1.248,2.913-0.832,3.469c0.416,0.555,1.665,2.775,2.497,2.775s0.277,3.468,2.774,2.636s2.36-3.053,2.36-3.053
		s2.635-0.416,3.33-2.775c0.693-2.358,2.357-2.913,2.357-2.913s3.33-1.804-1.109-4.58c0-19.425-12.766-17.343-12.766-17.343
		s-1.526-3.469-4.023-3.053c-2.498,0.417-2.637,3.33-4.44,3.053c-1.804-0.278-2.22-1.526-2.358-1.387
		c-0.14,0.138-1.666,2.913-1.666,3.606c0,0.694-4.855-0.971-4.439,2.636C480.336,179.516,482.695,179.378,482.556,179.1
		L482.556,179.1z"/>
	<path clip-path="url(#SVGID_2_)" fill="none" stroke="#000000" stroke-width="0.8054" d="M495.888,174.383
		c0,0-0.972,6.104,5.55,5.55c-0.832,3.33,1.666,4.44,1.666,4.44 M507.95,188.118c0.138,0,2.913,1.805-0.14,4.024 M498.52,192.975
		c0,0,1.388,1.665,2.914,1.25c1.525-0.417,4.023,1.525,4.023,1.525s2.081,0.693,2.359,0.277 M490.055,198.248
		c0,0,4.719,1.804,7.771-5.688 M481.313,190.34l2.775,0.138"/>
	<path clip-path="url(#SVGID_2_)" fill="none" stroke="#000000" stroke-width="0.8054" stroke-linejoin="round" d="M481.736,193.114
		h2.498l-2.221,0.973"/>
	<path clip-path="url(#SVGID_2_)" fill="none" stroke="#000000" stroke-width="1.4495" stroke-linejoin="round" d="M485.201,185.344
		c0.417,0,1.943-0.555,2.22-0.138C487.699,185.622,485.756,185.899,485.201,185.344z"/>
	<path clip-path="url(#SVGID_2_)" fill="#FFC6B5" stroke="#000000" stroke-width="0.8054" d="M515.17,218.31
		c0.139,0,4.58,13.736,5.134,17.205c0.556,3.469,2.359,17.344,1.665,19.287c-0.693,1.941-7.77,11.238-8.603,13.597
		c-0.832,2.358-5.827,11.377-5.827,11.377s-1.249,8.88-1.805,9.297c-0.555,0.416,1.434,2.597,1.25,3.33
		c-0.275,0.826-4.024,4.718-5.689,4.302s-4.301-2.359-4.439-4.163c-0.14-1.805,0.139-7.771,1.388-9.296
		c1.249-1.526,7.77-16.928,8.186-17.9c0.416-0.97,5.966-13.042,6.105-15.122c0.139-2.082-1.728-6.894-3.689-8.66
		C504.479,228.71,506.195,220.959,515.17,218.31z"/>
	<path clip-path="url(#SVGID_2_)" fill="none" stroke="#000000" stroke-width="0.8054" d="M450.523,277.842l0.219,6.08
		 M444.827,277.392c0,0,3.897,6.521,3.573,9.994"/>
	<path clip-path="url(#SVGID_2_)" fill="none" stroke="#000000" stroke-width="0.8054" stroke-linejoin="round" d="M497.078,291.014
		c0,0,2.915-0.306,2.822,4.56c1.861-6.045,5.646-6.188,5.646-6.188"/>
	<path clip-path="url(#SVGID_2_)" fill="#F7C600" stroke="#000000" stroke-width="1.7173" d="M487.119,429.948
		c58.598-1.628,96.443-43.948,96.036-44.355s7.731-11.8,14.243-10.173c6.51,1.627,15.869,20.753,27.264,24.821
		c5.697,8.953-1.627,17.093-4.069,18.72c-2.442,1.628-13.429,6.104-15.057-0.406c-1.627-6.512-4.884-5.29-4.884-5.29
		s-52.088,50.867-112.31,48.832c-62.257,0.41-113.53-48.83-113.53-48.83l-4.477,4.883c0,0-4.883,5.29-7.324,4.883
		s-13.022-7.325-13.837-14.243c-0.813-6.918,6.511-11.394,6.511-11.394s17.906-13.836,19.94-21.16c4.07-4.069,11.8,2.849,11.8,2.849
		s47.205,54.123,99.7,50.867L487.119,429.948z"/>
	<path clip-path="url(#SVGID_2_)" fill="none" stroke="#000000" stroke-width="1.7173" d="M354.464,398.476
		c0,0,4.842-1.29,6.618,0.728c1.775,2.017,13.961,13.961,13.961,13.961"/>
	<path clip-path="url(#SVGID_2_)" fill="none" stroke="#000000" stroke-width="1.7173" d="M365.52,404.121l-4.843,3.633
		c0,0,12.187,2.42,9.442,10.41 M620.297,398.066c0,0-2.421-1.291-6.214,1.533c-3.793,2.825-13.397,13.558-13.397,13.558"/>
	<path clip-path="url(#SVGID_2_)" fill="none" stroke="#000000" stroke-width="1.7173" d="M609.406,403.804l5.244,4.034
		c0,0-10.975,0.727-8.554,11.138"/>
	<path clip-path="url(#SVGID_2_)" d="M416.495,411.39l-0.353,0.495c-0.735-0.364-1.576-0.432-2.519-0.203
		c-0.692,0.179-1.996,0.83-3.912,1.95l-16.125,9.399l-0.44-0.313l4.062-18.851c0.491-2.271,0.715-3.651,0.673-4.14
		c-0.033-0.479-0.374-1.013-1.02-1.595l0.352-0.495l8.692,6.198l-0.354,0.496l-0.294-0.211c-0.785-0.56-1.39-0.843-1.814-0.85
		c-0.301-0.013-0.543,0.11-0.728,0.369c-0.114,0.16-0.215,0.377-0.303,0.65c-0.081,0.266-0.257,1.021-0.527,2.268l-2.571,11.782
		l9.314-5.481c1.12-0.667,1.848-1.13,2.18-1.39c0.334-0.261,0.584-0.505,0.75-0.737c0.189-0.268,0.286-0.555,0.29-0.861
		c0.003-0.307-0.095-0.612-0.295-0.916c-0.274-0.426-0.729-0.863-1.362-1.314l0.354-0.495L416.495,411.39 M422.285,439.407
		l-0.29,0.533l-10.218-5.587l0.291-0.533l0.648,0.354c0.567,0.31,1.079,0.459,1.535,0.446c0.323,0.002,0.641-0.123,0.955-0.377
		c0.23-0.173,0.615-0.75,1.15-1.729l7.03-12.853c0.546-1,0.834-1.652,0.865-1.961c0.031-0.307-0.067-0.642-0.293-1.003
		c-0.212-0.364-0.592-0.698-1.14-0.997l-0.648-0.354l0.291-0.533l10.217,5.587l-0.292,0.533l-0.647-0.354
		c-0.567-0.311-1.078-0.461-1.534-0.446c-0.324-0.003-0.647,0.12-0.97,0.368c-0.231,0.173-0.615,0.75-1.15,1.729l-7.03,12.854
		c-0.547,1-0.835,1.652-0.866,1.961c-0.021,0.313,0.074,0.651,0.287,1.017c0.226,0.362,0.613,0.692,1.16,0.991L422.285,439.407
		 M459.609,430.654l-2.635,7.396l-0.572-0.204c0.029-2.267-0.459-4.175-1.467-5.718c-1.009-1.545-2.332-2.609-3.972-3.193
		c-1.567-0.559-3.03-0.58-4.388-0.063c-1.355,0.504-2.53,1.47-3.525,2.894c-0.997,1.429-1.798,2.984-2.38,4.627
		c-0.716,2.01-1.106,3.86-1.173,5.544s0.301,3.072,1.1,4.158c0.81,1.09,1.94,1.894,3.396,2.412c0.505,0.18,1.04,0.312,1.602,0.396
		c0.577,0.077,1.181,0.112,1.811,0.104l1.555-4.363c0.294-0.825,0.426-1.377,0.397-1.654c-0.025-0.288-0.184-0.594-0.476-0.919
		c-0.28-0.32-0.674-0.57-1.179-0.751l-0.542-0.192l0.204-0.573l10.195,3.632l-0.203,0.572c-0.793-0.225-1.373-0.309-1.74-0.253
		c-0.354,0.048-0.68,0.228-0.978,0.54c-0.163,0.164-0.38,0.627-0.651,1.39l-1.555,4.363c-1.554,0.12-3.11,0.071-4.672-0.147
		c-1.592-0.214-3.156-0.596-4.668-1.14c-1.99-0.709-3.55-1.567-4.68-2.573c-1.082-0.972-2-2.111-2.72-3.375
		c-0.686-1.244-1.114-2.518-1.289-3.824c-0.216-1.68-0.009-3.402,0.62-5.167c1.125-3.155,3.183-5.427,6.176-6.813
		s6.17-1.48,9.533-0.283c1.041,0.371,1.949,0.788,2.728,1.25c0.424,0.245,1.072,0.743,1.943,1.495
		c0.885,0.745,1.42,1.149,1.605,1.217c0.29,0.103,0.595,0.095,0.915-0.022c0.325-0.129,0.695-0.45,1.11-0.965L459.609,430.654
		 M475.333,455.892l-0.09,0.601l-11.515-1.744l0.09-0.6l0.732,0.11c0.639,0.097,1.17,0.06,1.594-0.107
		c0.305-0.11,0.561-0.336,0.769-0.682c0.157-0.241,0.319-0.914,0.487-2.019l2.194-14.485c0.171-1.125,0.218-1.838,0.142-2.138
		c-0.076-0.301-0.283-0.58-0.619-0.842c-0.325-0.27-0.796-0.453-1.413-0.546l-0.73-0.11l0.091-0.602l11.514,1.744l-0.092,0.602
		l-0.73-0.11c-0.639-0.097-1.17-0.063-1.594,0.106c-0.305,0.109-0.566,0.336-0.784,0.678c-0.159,0.242-0.322,0.916-0.489,2.021
		l-2.193,14.484c-0.17,1.126-0.219,1.839-0.142,2.138c0.087,0.302,0.293,0.587,0.617,0.857c0.337,0.263,0.813,0.439,1.431,0.533
		L475.333,455.892 M505.219,448.632l-0.438,7.851l-19.748,1.008l-0.031-0.606l0.738-0.038c0.645-0.033,1.157-0.174,1.54-0.424
		c0.276-0.167,0.481-0.441,0.615-0.82c0.107-0.27,0.133-0.961,0.075-2.077l-0.746-14.63c-0.058-1.138-0.155-1.845-0.29-2.123
		c-0.134-0.279-0.393-0.512-0.774-0.699c-0.372-0.201-0.87-0.285-1.493-0.255l-0.738,0.038l-0.031-0.607l11.859-0.604l0.03,0.607
		l-0.968,0.05c-0.645,0.031-1.158,0.174-1.539,0.423c-0.277,0.168-0.488,0.442-0.633,0.822c-0.107,0.269-0.133,0.96-0.076,2.075
		l0.724,14.173c0.058,1.137,0.16,1.859,0.308,2.171c0.147,0.3,0.416,0.516,0.807,0.649c0.279,0.085,0.942,0.101,1.992,0.046
		l1.854-0.094c1.182-0.06,2.155-0.318,2.92-0.773c0.768-0.456,1.411-1.147,1.934-2.072c0.534-0.927,1.014-2.278,1.438-4.055
		L505.219,448.632 M526.82,444.885l-7.537,2.252l-0.276,2.345c-0.087,0.78-0.063,1.396,0.072,1.847
		c0.178,0.599,0.551,0.968,1.118,1.106c0.334,0.083,1.069,0,2.205-0.248l0.175,0.583l-7.097,2.12l-0.175-0.582
		c0.731-0.345,1.268-0.847,1.606-1.509c0.337-0.672,0.624-1.93,0.861-3.771l2.547-19.308l0.299-0.089l12.922,15.199
		c1.23,1.439,2.145,2.303,2.746,2.593c0.453,0.218,1.013,0.257,1.68,0.114l0.174,0.582l-10.324,3.084l-0.174-0.582l0.426-0.127
		c0.828-0.248,1.377-0.536,1.643-0.867c0.182-0.237,0.225-0.514,0.13-0.828c-0.061-0.197-0.15-0.385-0.268-0.555
		c-0.05-0.088-0.324-0.434-0.825-1.039L526.82,444.885 M525.938,443.88l-5.375-6.399l-1.076,8.327L525.938,443.88 M554.398,414.879
		l2.854,5.309l-0.521,0.28c-0.968-1.06-1.781-1.753-2.443-2.08c-0.666-0.339-1.413-0.49-2.24-0.456
		c-0.46,0.023-1.146,0.281-2.064,0.773l-1.459,0.785l8.135,15.133c0.539,1.002,0.929,1.601,1.17,1.795
		c0.25,0.188,0.587,0.294,1.009,0.315c0.426,0.007,0.919-0.14,1.478-0.44l0.651-0.351l0.288,0.535L550.984,442l-0.287-0.535
		l0.65-0.351c0.569-0.306,0.974-0.653,1.211-1.043c0.18-0.27,0.252-0.606,0.219-1.013c-0.018-0.289-0.291-0.925-0.819-1.908
		l-8.135-15.132l-1.419,0.762c-1.32,0.71-2.129,1.507-2.428,2.388c-0.419,1.231-0.35,2.631,0.206,4.196l-0.55,0.296l-2.854-5.31
		L554.398,414.879 M567.757,406.959l5.46,7.236l0.354-0.267c1.128-0.851,1.678-1.82,1.65-2.911c-0.026-1.091-0.492-2.38-1.394-3.866
		l0.499-0.376l7.021,9.311l-0.498,0.375c-0.869-0.935-1.72-1.598-2.548-1.986c-0.819-0.397-1.536-0.536-2.146-0.418
		c-0.618,0.109-1.35,0.482-2.198,1.123l3.778,5.008c0.738,0.98,1.229,1.549,1.473,1.708c0.252,0.151,0.545,0.213,0.878,0.181
		c0.333-0.031,0.752-0.238,1.261-0.619l1.061-0.803c1.661-1.253,2.7-2.64,3.116-4.16c0.425-1.527,0.263-3.242-0.487-5.146
		l0.484-0.366l3.464,6.254l-15.368,11.591l-0.366-0.484l0.59-0.445c0.517-0.389,0.862-0.794,1.038-1.215
		c0.135-0.294,0.152-0.636,0.051-1.025c-0.063-0.282-0.431-0.87-1.103-1.76l-8.822-11.697c-0.606-0.804-1.001-1.28-1.183-1.432
		c-0.289-0.23-0.65-0.352-1.02-0.342c-0.517,0.006-1.063,0.226-1.641,0.661l-0.59,0.445l-0.366-0.484l14.882-11.227l3.967,5.258
		l-0.498,0.377c-1.224-1.095-2.277-1.746-3.162-1.957c-0.877-0.217-1.834-0.14-2.87,0.231c-0.609,0.212-1.587,0.826-2.933,1.841
		l-1.836,1.385"/>
	<path clip-path="url(#SVGID_2_)" fill="none" d="M380.537,413.063c72.788,59.04,144.131,60.122,213.933,0"/>
</g>
</svg>
