<?xml version="1.0" encoding="UTF-8"?>
<svg xmlns="http://www.w3.org/2000/svg" xmlns:xlink="http://www.w3.org/1999/xlink" width="600" height="300" viewBox="0 0 2000 1000">
<title>Flag of Kazakhstan</title>
<rect width="2000" height="1000" fill="#00afca"/>
<g id="sun" fill="#fec50c" transform="translate(1080.4716,420)">
<circle r="134.5497"/>
<g id="r16">
<g id="r4">
<path id="r" d="m0,-152.9c8,-0.1 11,-5.1 11,-11.1c0,-8 -11,-46.1 -11,-46.1s-11,38.1 -11,46.1c0,6 3,11.1 11,11.1z"/>
<use xlink:href="#r" transform="rotate(90)"/>
<use xlink:href="#r" transform="rotate(180)"/>
<use xlink:href="#r" transform="rotate(270)"/>
</g>
<use xlink:href="#r4" transform="rotate(22.5)"/>
<use xlink:href="#r4" transform="rotate(45)"/>
<use xlink:href="#r4" transform="rotate(67.5)"/>
</g>
<use xlink:href="#r16" transform="rotate(11.25)"/>
</g>
<g id="bird" fill="#fec50c">
<path d="M316.94,213.44c-1.08,0.06-2.13,0.2-3.16,0.53-1.41,0.19-2.76,0.68-4.16,0.91l-0.56,0.09-0.94,0.09c0.06,0.26,0.1,0.52,0.1,0.78,0,0.27-0.03,0.53-0.1,0.75-0.06,0.21-0.25,0.47-0.4,0.63-0.2,0.22-0.41,0.41-0.66,0.53-0.24,0.12-0.51,0.17-0.78,0.19-0.27,0.01-0.55,0-0.81-0.1-0.27-0.09-0.52-0.26-0.75-0.46-0.28,0.07-0.57,0.12-0.84,0.15-0.28,0.03-0.54,0.03-0.79,0-0.28-0.08-0.57-0.17-0.84-0.28s-0.53-0.25-0.78-0.41c-1.02,0.6-2.16,1.17-2.78,2.22-0.35,0.48-0.42,1.03-0.5,1.6-0.05,0.7,0.13,1.44,0.43,2.09,0.11,0.19,0.2-0.69,0.54-0.81,0.57-0.47,1.28-0.81,2-1,0.61-0.31,0.53,0.02,0.28,0.5-0.06,0.25-0.4,1.2,0.06,0.72,2.03-0.9,4.28-1.08,6.47-1.25,3.18-0.33,6.37-0.4,9.56-0.44,3,0.04,6,0.08,9,0.19,1.43,0.04,2.87,0.36,4.28,0.12,0.34-0.09,0.87-0.11,1.07-0.31-0.64-0.37-1.39-0.38-2.1-0.47h-5.72c-1.59-0.16-3.25-0.18-4.75-0.78-0.4-0.16-0.77-0.54-1.15-0.13-0.57,0.2-1.18,0.34-1.78,0.38-1.05,0.08-2.1-0.14-3.07-0.53,0.7-0.97,1.54-1.82,2.31-2.72-0.62-0.1-1.22-0.23-1.84-0.38,1.09-0.75,2.1-1.6,3.16-2.4z" transform="scale(3.3333333,3.3333333)"/>
<path d="m1212.2,746.01c-7.2452,4.3503-12.775-3.3623-18.831-5.6752-4.3249,2.3488-4.7288,10.208-8.7706,13.93-4.8342,5.5019-10.76-1.5363-10.318-6.9649-5.7825,4.8741-8.7067,15.922-18.057,14.446-4.4308-3.6151-7.7219-11.201-11.106-2.5636-2.7613,4.2221-10.11,10.229-13.916,3.8533-1.1784-5.6287-4.0008-12.25-7.0634-3.3078-2.1024,6.3247-8.8507,10.978-15.379,8.2088-3.5737-2.9216,2.8649-13.727-1.6841-12.958-6.7998,4.4958-10.753,15.658-20.242,14.764-3.6847-4.1359,2.236-11.144-1.8057-15.735-4.7711,6.1235-10.063,15.089-18.315,15.735-3.9884-3.2319,0.1571-12.501-2.3893-13.873-8.4677,5.0781-17.402,14.128-28.05,11.294,4.1497-15.873,21.49-21.442,36.072-22.68,25.089-3.0835,51.484,2.5863,75.624-6.469,3.9004-2.3734,13.35-5.7392,9.9847-11.244-2.9805-4.3463,7.7529-2.647,8.7855-7.7238-0.639-6.4302,4.9265-5.5452,10.364-6.108,24.376-1.0516,48.455,4.0818,72.758,4.9546,1.8358,11.842-11.301,20.157-21.876,16.5-5.0519,0.81828-12.627-11.615-11.142-2.5698-1.0183,4.7472-0.3056,11.017-4.6433,14.188m-207.4-24.248c5.6435,5.1653,9.6005-0.97254,14.875-3.2155,17.692-6.085,33.128-16.719,48.346-27.344,9.221-7.6305,17.214-17.525,29.597-20,24.155-7.303,49.832-6.4173,74.081-13.157,18.464-25.281,49.825-34.299,76.096-48.831,5.8991-1.8316,8.1781-6.6867,10.062-12.047,10.028-15.83,23.689-29.857,39.845-39.439,7.6441-4.1767,16.764-6.5825,25.418-4.6718-0.6201,10.307-6.5329,19.442-13.672,26.57,5.842-0.12861,10.863-3.8191,16.767-3.6114,2.0233,10.578-9.4007,16.114-15.478,22.7,3.3855,0.78754,16.353,1.7684,9.2865,5.1591-9.0054,6.2497-19.289,10.541-27.602,17.799,7.6694,1.3778,8.5436,3.0082,0.7445,5.782-4.2215,2.8617-12.341,3.8616-13.126,9.4374,5.7939,3.5608-2.6685,7.0964-5.933,8.2546-6.2414,1.4535-12.798,4.1652-4.5067,8.9071-3.1365,4.7384-9.8653,5.7486-15.356,5.2805,1.6661,5.3701,4.0776,11.378-2.8919,13.747-15.624,11.811-33.96,20.402-53.601,22.367,24.536,1.8866,49.807-2.668,70.773-16.011,2.768-3.2727,17.282-6.7896,9.1636-9.5419-3.822-1.5904-12.016-3.3567-12.57-6.2707,11.355-7.006,25.664-4.514,37.88-8.6758,0.3163-3.9551-9.2914-2.8547-12.874-3.7554-8.5427-0.69975-8.0417-2.8803,0.1954-3.6882,10.422-2.759,22.226-3.3028,30.993-10.098-7.1383-3.3066-16.116-0.39512-23.732-3.0955,12.911-5.6498,28.142-6.2167,39.726-14.704,5.2763-5.871-6.7598-4.0356-10.267-3.8931-7.1509,1.2447-10.456-2.1779-2.3324-5.1489,13.871-10.227,31.433-16.871,41.176-31.697,2.3078-3.3186,5.4328-13.319-1.9277-9.7216-9.681,3.2185-18.198,14.101-29.228,10.735,21.733-16.844,42.413-36.02,57.267-59.33,0.7674-6.7232-9.7852-7.4509-12.532-2.172-13.963,13.454-26.6,29.335-44.477,37.77,17.121-16.525,31.276-36.092,43.626-56.372,2.6476-6.0321,9.7642-13.286,5.9021-19.983-6.2255-5.1532-14.013-0.43606-17.248,5.7304-10.854,14.169-19.096,30.708-33.054,42.25,12.219-23.322,24.871-48.148,25.179-75.047-0.037-5.5382-1.1493-13.694-8.6693-12.659-5.9622,1.0681-4.5464,9.9912-7.0042,14.504-5.4111,18.377-7.9508,38.279-19.05,54.371,2.4971-14.934,6.8661-30.5,3.512-45.58-1.5667-6.7396-12.45-3.8412-11.048,2.8288-13.002,65.86-57.194,123.46-114.99,156.78-26.464,14.973-56.023,24.626-86.096,29.002-8.0899,1.7718-16.839,0.73198-24.572,3.4906-18.736,14.367-30.079,38.407-53.802,45.935-10.632,5.2835-24.496,6.3556-32.098,16.233-0.658,1.2632-0.7991,2.7266-0.7739,4.1273"/>
<path d="m1075.8,654.95c-3.5006,6.354-5.5592,13.658-10.06,19.347-13.541-12.321-33.171-11.914-50.347-12.734-14.177-0.75657-29.594-2.0646-40.563-12.176-11.539-9.452-20.958-21.724-33.852-29.393-11.769-3.2001-23.633-7.2042-33.095-15.271-20.22-16.482-31.8-40.937-51.558-57.933-3.7669-3.7078-8.209-6.5812-12.429-9.7268-4.0096,0.97695-2.1955,9.6311-7.1022,5.2194-2.6694-1.8995-9.348-2.0844-9.9492,0.56937,6.0404,7.96,12.087,17.049,12.924,27.23-4.1198,0.4224-11.445-0.87064-13.487,0.66378,5.4715,8.2003,12.484,15.473,20.452,21.263-3.8217,0.61454-11.353,0.27988-12.818,1.8198,7.9092,6.4462,16.391,13.034,26.747,14.69,2.12,2.7948-3.099,8.1901,1.2898,10.576,2.5458,1.0399,10.945,2.7801,5.1592,5.6751-3.9705,2.6755-2.4971,8.9111,2.5797,8.7706,3.2101,1.6391,10.418,2.0412,10.982,4.879-2.8453,2.8956-11.698,6.3288-4.1637,9.0409,7.039,3.904,15.067,6.4384,23.105,6.7168-4.0336,3.3936-9.004,5.3206-13.156,8.5127,18.55,10.877,39.113,18.03,59.433,24.919,8.0909,2.7031,16.274,5.2237,24.661,6.8102-24.369-1.4066-47.922-8.6212-70.116-18.495-11.503-5.0452-23.084-9.9197-34.873-14.265,5.1692-2.6897,11.148-3.3471,16.509-5.6751-11.128-2.2291-23.285-2.9605-33.067-9.0768,1.4997-2.6758,7.1829-2.8021,10.326-4.1642,5.9114-1.416,9.5779-3.1339,1.2438-3.6475-8.4057-2.2812-18.045-1.2576-25.452-6.3278,0.4769-3.04,8.2283-1.9813,11.386-3.2934,3.9751-0.683,8.3958-1.2548,11.573-3.9294-12.994-5.388-29.99-1.5707-40.168-13.046-2.3476-4.3712,7.2884-0.85006,10.033-1.5782,6.9723,0.00003,14.467,2.2158,21.107-0.59559-18.934-8.3124-39.215-16.095-53.655-31.471-1.6039-2.4716-6.4071-9.2249-2.5317-10.06,11.239,1.4869,19.374,13.753,31.396,11.844,1.5973-2.1526-6.9835-5.6809-9.1254-8.7582-17.528-15.041-34.541-31.364-46.825-51.066-0.84492-6.5792,9.4971-7.565,12.22-2.4832,13.405,12.911,25.514,27.977,42.209,36.791,5.9247,2.8724-3.4012-3.4-4.6433-5.6751-15.427-17.914-30.113-36.834-40.895-57.932-1.9299-3.8028-5.1284-10.686,0.64643-12.71,5.7722-2.8919,11.501,1.0476,14.428,6.0066,11.342,14.305,19.688,31.307,33.817,43.225-12.037-23.359-24.889-47.948-25.2-74.828,0.28226-5.2109,0.61728-13.092,7.6832-12.878,5.9331-0.89942,4.9962,6.696,6.941,10.318,5.845,19.747,8.3946,41.121,20.121,58.556-2.5904-14.649-6.4022-29.735-3.8694-44.627,0.58422-4.8898,6.0884-6.37,9.6818-3.4138,2.9046,7.11,3.5106,15.889,6.1574,23.491,15.06,51.519,48.875,96.832,92.941,127.24,36.292,24.891,79.362,39.749,123.32,42.341,3.9698,0.346,7.9556,0.46548,11.932,0.70954"/>
<circle cx="1020" cy="720.887" r="2.367"/>
<circle cx="1019.8" cy="720.507" r="0.965" stroke="#00afca" stroke-width="0.38127393"/>
</g>
<g id="ornament" fill="#fec50c">
<g id="oh">
<g id="oq">
<path d="m120,72.922s-9.6109-8.0762-12.874-4.0253c-5.2494,6.5154,16.14,38.968,16.14,50.396,0,18.759-12.517,23.861-27.973,26.539-10.371,1.7981-27.259-0.752-27.259-0.752,3.1796-4.2726,5.2478-5.5316,10.606-5.8731-5.9648-3.0968-12.039-9.8188-12.039-20.284,0-16.138,6.6434-22.789,6.6434-40.983,0-10.093-8.2759-22.941-8.2759-22.941,14.628,1.464,21.878,15.009,17.753,25.834,2.3286,0.33542,4.4428-0.18873,6.2586-1.9094,1.0706,3.0005-0.61945,6.4832-2.8834,9.4837,1.8233,0.97432,3.1624,0.39003,6.0661-0.20942-0.27536,3.0915-2.1278,6.3758-6.6597,9.4671,13.151-3.4144,21.243,5.7517,21.243,15.347,0,7.248-5.0791,12.443-10.044,12.443-1.6044,0-3.9611-0.66078-5.2908-1.6532-0.93725,1.9948-0.45429,4.6646,0.51121,6.6596-3.6388-0.96187-5.9484-3.1229-4.3043-7.6212-2.7948-0.25675-5.0181-1.2011-6.5305-3.0005,1.5323-1.9624,3.8568-3.0927,6.5305-3.0005-2.035-4.1994,0.23284-6.5505,3.5373-8.456,0,0-2.1015,8.4558,3.2654,8.4558,2.4133,0,4.6122-0.78561,4.6122-4.3421,0-3.097-2.7075-7.387-8.9659-7.1142-6.2586,0.27277-11.332,4.3152-11.332,14.306,0,9.2162,7.4334,13.8,17.229,14.096,8.8338,0.27277,15.501-4.5126,15.501-13.625,0-12.128-17.508-39.773-17.508-50.581,0-8.109,7.2922-12.635,14.427-12.635,9.2518,0,17.058,9.1612,17.058,9.1612l-5.4352,6.8146z"/>
<path id="op" d="m122.02,292.14c0,20.27-18.198,30.688-32.498,30.688-19.266,0-29.524-11.519-29.524-26.598,0-8.5475,1.5661-13.911,5.5074-22.092,0,0,31.78-66.091,44.153-91.653,1.543-3.1882,2.0408-6.8175,2.0408-12.138,0-8.2171-7.97-14.933-16.327-15.139-7.618-0.19053-15.918,7.1022-15.918,15.412,0,10.093,5.2358,14.593,10.612,14.593,6.6157,0,9.2518-2.7198,9.2518-7.3649,0-3.2366-1.5632-4.6371-3.8095-4.6371-5.6744,0-4.0817,7.6376-4.0817,7.6376-2.8183-0.617-5.1335-3.4965-3.8095-7.0921-2.0617-0.45904-3.9929-1.5413-5.5102-3.2733,1.5211-1.4747,3.266-2.6132,5.5102-3.0005-1.3289-4.3872,0.44687-6.5308,4.2857-7.433-0.77466,1.6876-0.80131,3.2401-0.54421,4.7054,6.0436-1.7186,15.306,1.0163,15.306,11.456,0,10.365-7.1935,19.093-20.681,16.912,3.2087,1.5341,4.8407,4.6732,5.1701,8.1832-2.4491-0.9547-5.1701-1.0911-5.1701-1.0911,1.577,2.7808,3.7672,5.1776,3.6734,10.638-2.5006-1.1368-4.8227-3.2419-8.0272-1.9094,5.0294,9.8968-1.1497,23.511-16.871,26.732,5.7537-6.7443,8.5714-14.027,8.5714-21.277,0-23.496-6.5305-27.445-6.5305-43.78,0-6.8343,3.5133-14.215,10.476-19.231v0.27276c-4.6021-1.2324-7.5502-3.4985-9.2447-6.5775,10.515-2.9816,25.799-2.9269,34.006,0.30202,9.434,1.0925,16.019,8.3308,17.959,12.004,1.9406,3.6708,5.7096,16.953,0,28.912-6.2487,13.088-35.711,75.559-44.897,95.198-1.9484,4.1654-3.1293,8.5827-3.1293,13.366,0,12.03,11.02,16.23,17.279,16.23,7.4829,0,15.102-5.7008,15.102-12.82,0-4.5112-2.4491-7.2285-5.9864-7.2285-8.4587,0-7.9449,7.1957-6.2586,11.729-5.2643-2.3667-8.3243-6.5917-7.4829-11.047-2.9805-0.40822-5.8174-1.822-8.4353-4.7735,2.0598-2.601,4.5722-4.5671,8.4353-4.6371-1.6873-6.9119,2.9406-9.8352,7.4829-11.456-1.437,5.0729-2.3803,10.911,6.2586,10.911,6.2986,0,11.258,1.0911,14.15,5.1827,0.17007-5.4553,0.68027-27.005,0.68027-27.005,0.36281-8.0977-10.839-7.8662-17.959-5.4554,2.6871-9.3276,8.1979-14.371,20.952-13.093-3.0953-1.2957-6.3946-4.2084-6.3946-9.8198,0.002-7.593,6.1621-16.005,10.206-18.492l2.022,79.051z"/>
<use xlink:href="#op" transform="matrix(1,0,0,-1,0,645.08)"/>
</g>
<use xlink:href="#oq" transform="matrix(-1,0,0,1,240,0)"/>
</g>
<use xlink:href="#oh" transform="matrix(1,0,0,-1,0,1000)"/>
</g>
</svg>