<?xml version="1.0" encoding="utf-8"?>
<!-- Generator: Adobe Illustrator 15.0.2, SVG Export Plug-In . SVG Version: 6.00 Build 0)  -->
<!DOCTYPE svg PUBLIC "-//W3C//DTD SVG 1.1//EN" "http://www.w3.org/Graphics/SVG/1.1/DTD/svg11.dtd">
<svg version="1.1" id="Layer_1" xmlns="http://www.w3.org/2000/svg" xmlns:xlink="http://www.w3.org/1999/xlink" x="0px" y="0px"
	 width="640px" height="480px" viewBox="0 0 640 480" enable-background="new 0 0 640 480" xml:space="preserve">
<g>
	<path fill="#FFFFFF" d="M0,0h640v480H0V0z"/>
	<path d="M0,0h640v144H0V0z"/>
	<path fill="#006600" d="M0,336h640v144H0V336z"/>
	<path id="a" stroke="#000000" stroke-miterlimit="10" d="M234.26,382.5l5.199,3l140.139-242.73
		c8.196-2.189,12.696-9.99,17.196-17.781c3-5.195,15-25.979,20.202-52.988c-20.79,18.009-32.79,38.79-35.79,43.988
		c-4.5,7.794-9,15.588-6.804,23.784L234.26,382.5z"/>
	<path id="a_1_" fill="#FFFFFF" d="M234.26,382.5l5.199,3l140.139-242.73c8.196-2.189,12.696-9.99,17.196-17.781
		c3-5.195,15-25.979,20.202-52.988c-20.79,18.009-32.79,38.79-35.79,43.988c-4.5,7.794-9,15.588-6.804,23.784L234.26,382.5z"/>
	<path id="a_2_" stroke="#000000" stroke-miterlimit="10" d="M405.74,382.5l-5.199,3L260.402,142.77
		c-8.196-2.189-12.696-9.99-17.196-17.781c-3-5.195-15-25.979-20.202-52.988c20.79,18.009,32.79,38.79,35.79,43.988
		c4.5,7.794,9,15.588,6.804,23.784L405.74,382.5z"/>
	<path id="a_3_" fill="#FFFFFF" d="M405.74,382.5l-5.199,3L260.402,142.77c-8.196-2.189-12.696-9.99-17.196-17.781
		c-3-5.195-15-25.979-20.202-52.988c20.79,18.009,32.79,38.79,35.79,43.988c4.5,7.794,9,15.588,6.804,23.784L405.74,382.5z"/>
	<path fill="#BB0000" d="M640.5,168H377c-9-24-39-72-57-72s-48,48-57,72H-0.227v144H263c9,24,39,72,57,72s48-48,57-72h263.5V168z"/>
	<path id="c" d="M377,312c9-24,15-48,15-72s-6-48-15-72c-9,24-15,48-15,72S368,288,377,312"/>
	<path id="c_1_" d="M263,312c-9-24-15-48-15-72s6-48,15-72c9,24,15,48,15,72S272,288,263,312"/>
	<ellipse fill="#FFFFFF" cx="320" cy="240" rx="12" ry="18"/>
	<path id="d" fill="#FFFFFF" d="M323,257.55c0,0,12,24,12,63s-12,63-12,63V257.55z"/>
	<path id="d_1_" fill="#FFFFFF" d="M317,222.449c0,0-12-24-12-63s12-63,12-63V222.449z"/>
	<path id="d_2_" fill="#FFFFFF" d="M317,257.55c0,0-12,24-12,63s12,63,12,63V257.55z"/>
	<path id="d_3_" fill="#FFFFFF" d="M323,222.449c0,0,12-24,12-63s-12-63-12-63V222.449z"/>
</g>
</svg>
