<?xml version="1.0" encoding="utf-8"?>
<!-- Generator: Adobe Illustrator 15.0.2, SVG Export Plug-In . SVG Version: 6.00 Build 0)  -->
<!DOCTYPE svg PUBLIC "-//W3C//DTD SVG 1.1//EN" "http://www.w3.org/Graphics/SVG/1.1/DTD/svg11.dtd">
<svg version="1.1" id="Layer_1" xmlns="http://www.w3.org/2000/svg" xmlns:xlink="http://www.w3.org/1999/xlink" x="0px" y="0px"
	 width="640px" height="480px" viewBox="0 0 640 480" enable-background="new 0 0 640 480" xml:space="preserve">
<g>
	<defs>
		<rect id="SVGID_1_" y="-0.001" width="640.003" height="480"/>
	</defs>
	<clipPath id="SVGID_2_">
		<use xlink:href="#SVGID_1_"  overflow="visible"/>
	</clipPath>
	<path clip-path="url(#SVGID_2_)" fill="#FFFFFF" d="M662.267,479.999H-22.268v-480h684.534V479.999z"/>
	<path clip-path="url(#SVGID_2_)" fill="#FFFFFF" d="M325.949,240.432c0,58.253-47.224,105.476-105.476,105.476
		c-58.253,0-105.475-47.224-105.475-105.476c0-58.254,47.223-105.476,105.475-105.476
		C278.728,134.956,325.949,182.18,325.949,240.432z"/>
	<path clip-path="url(#SVGID_2_)" fill="#C70000" d="M458.268,246.553c0,76.011-60.969,137.627-136.182,137.627
		s-136.184-61.615-136.184-137.627c0-76.013,60.97-137.629,136.184-137.629S458.267,170.541,458.268,246.553L458.268,246.553z"/>
	<path clip-path="url(#SVGID_2_)" d="M43.492,118.949l78.431-90.722l18.582,16.063l-78.431,90.724L43.492,118.949z M69.178,141.156
		l78.431-90.723l18.581,16.064L87.76,157.22L69.178,141.156z"/>
	<path clip-path="url(#SVGID_2_)" d="M43.492,118.949l78.431-90.722l18.582,16.063l-78.431,90.724L43.492,118.949z"/>
	<path clip-path="url(#SVGID_2_)" d="M43.492,118.949l78.431-90.722l18.582,16.063l-78.431,90.724L43.492,118.949z M95.414,163.837
		l78.432-90.722l18.581,16.064l-78.432,90.722L95.414,163.837z"/>
	<path clip-path="url(#SVGID_2_)" d="M43.492,118.949l78.431-90.722l18.582,16.063l-78.431,90.724L43.492,118.949z"/>
	<path clip-path="url(#SVGID_2_)" d="M43.492,118.949l78.431-90.722l18.582,16.063l-78.431,90.724L43.492,118.949z M520.52,28.198
		l77.814,91.252l-18.691,15.938l-77.813-91.251L520.52,28.198z M468.295,72.732l77.814,91.252l-18.689,15.938L449.605,88.67
		L468.295,72.732z"/>
	<path clip-path="url(#SVGID_2_)" fill="#FFFFFF" d="M481.273,125.278l73.689-63.575l13.726,15.893l-78.746,70.8L481.273,125.278
		L481.273,125.278z"/>
	<path clip-path="url(#SVGID_2_)" d="M571.909,349.174l-75.391,89.84l-18.483-15.375l75.391-89.839L571.909,349.174z
		 M494.683,50.231l77.813,91.251l-18.689,15.938l-77.814-91.251L494.683,50.231z M597.453,370.42l-75.391,89.84l-18.483-15.374
		l75.391-89.839L597.453,370.42z M545.811,327.465l-75.391,89.841l-18.482-15.375l75.39-89.84L545.811,327.465z"/>
	<path clip-path="url(#SVGID_2_)" fill="#3D5897" d="M187.883,222.299c4.305,34.663,10.591,73.289,63.937,77.302
		c19.995,1.198,58.891-4.757,72.244-59.24c17.521-52.34,70.289-67.388,106.2-39.013c20.361,13.281,25.994,34.375,27.453,50.21
		c-1.631,50.853-30.819,94.875-68.271,114.506c-43.06,25.594-102.713,26.128-154.969-12.646
		C210.926,331.321,178.021,290.586,187.883,222.299L187.883,222.299z"/>
	<path clip-path="url(#SVGID_2_)" fill="#FFFFFF" d="M498.485,347.84l73.813,63.432l-13.68,15.936l-81.708-67.36L498.485,347.84z"/>
	<path clip-path="url(#SVGID_2_)" d="M88.051,335.283l77.814,91.252l-18.69,15.938l-77.814-91.25L88.051,335.283z"/>
	<path clip-path="url(#SVGID_2_)" fill="#FFFFFF" d="M74.644,410.334l73.689-63.576l13.726,15.894L83.313,433.45l-8.669-23.118
		V410.334z"/>
	<path clip-path="url(#SVGID_2_)" d="M113.888,313.252l77.815,91.25l-18.691,15.938l-77.814-91.25L113.888,313.252z M61.664,357.785
		l77.814,91.251l-18.69,15.938l-77.815-91.249L61.664,357.785z"/>
</g>
</svg>
