<?xml version="1.0" encoding="UTF-8"?>
<svg xmlns="http://www.w3.org/2000/svg" xmlns:xlink="http://www.w3.org/1999/xlink" version="1.1" width="840" height="600">
<title>Flag of Kosovo</title>
<defs>
<path id="star" d="M0,-36 21.160269,29.124612 -34.238034,-11.124612H34.238034L-21.160269,29.124612z" fill="#fff"/>
</defs>
<rect width="840" height="600" fill="#244aa5"/>
<path fill="#d0a650" transform="translate(229,151) scale(0.38,0.35)" d="m271.3,381.7c0,0 4.1,-3 5.6,-3.4c1.5,-0.4 6.8,-2.2 6.8,-2.2c0,0 3.4,-1.9 5.2,-1.9c1.9,0 5.6,2.2 6.8,4.1c1.1,1.9 7.1,5.2 7.1,5.2c0,0 4.1,1.5 4.9,0c0.8,-1.5 2.6,-2.6 4.5,-2.6c1.9,0 2.2,-1.9 2.2,-3.4c0,-1.5 0.8,-3.4 2.2,-5.2c1.5,-1.9 4.5,-3 4.5,-3c0,0 4.1,-1.9 4.5,-4.5c0.4,-2.6 4.5,-4.5 6.8,-4.9c2.2,-0.4 0,-1.5 6,-0.8c6,0.8 6.8,-1.5 7.1,-3.4c0.4,-1.9 0,-3.8 3.8,-3.4c3.8,0.4 5.6,0.4 5.6,-1.9c0,-2.2 3.4,-3.4 -2.6,-5.2c-6,-1.9 -5.6,-0.4 -6,-3.4c-0.4,-3 0,-2.6 -4.1,-3c-4.1,-0.4 -1.9,-2.6 -2.2,-4.9c-0.4,-2.2 -1.5,-3.4 -2.2,-4.9c-0.8,-1.5 -3,-1.5 -3,-3.7c0,-2.2 -0.4,-3.4 -2.6,-3.4c-2.2,0 -3,0 -3,-2.2c0,-2.2 0.4,-4.1 2.6,-4.1c2.2,0 3.4,-1.9 3,-4.1c-0.4,-2.2 -0.4,-7.1 -0.4,-7.1l3,-3.8c0,0 9,-7.9 9.8,-9.4c0.8,-1.5 3.8,-2.6 5.2,0.4c1.5,3 2.2,3.8 3.4,5.2c1.1,1.5 4.5,0.4 5.2,-1.1c0.8,-1.5 1.1,-7 3.1,-10c2,-2.9 3.4,-4.4 3.9,-6.8c0.5,-2.4 1.5,-4.4 3.9,-4.4c2.4,0 3.9,-3.4 3.9,-5.4c0,-2 1,-3.9 3.9,-4.4c2.9,-0.5 4.4,-2.4 5.4,0.5c1,2.9 2,2.9 3.9,3.9c2,1 4.9,2.4 6.3,1c1.5,-1.5 2.2,-3.9 4.4,-2.4c2.1,1.5 3.6,0 4.1,-2.9c0.5,-2.9 1,-6.8 1,-6.8c0,0 0.5,-2 3.9,-2c3.4,0 1,-2.4 2.9,-3.9c2,-1.5 2,-2.9 4.4,-2c2.4,1 6.3,-1.2 4.4,-3.6c-2,-2.4 -6.3,-6.3 -3.9,-9.3c2.4,-2.9 3.4,-7.8 1,-8.3c-2.4,-0.5 -5.9,0.5 -6.3,-2.4c-0.5,-2.9 -1.5,-4.9 1.5,-5.4c2.9,-0.5 7.8,-0.5 9.3,-2c1.5,-1.5 6.3,-2.4 6.3,-6.8c0,-4.4 1.5,-4.9 2,-7.3c0.5,-2.4 0.5,-7.5 -1.5,-9.9c-2,-2.4 -4.9,-5.9 -5.4,-7.3c-0.5,-1.5 -2.4,-3.9 -5.4,-4.9c-2.9,-1 -5.4,-1.5 -5.4,-3.9c0,-2.4 2,0.5 2,-5.9c0,-6.3 -3.9,-7.3 -3.9,-7.3l-5.9,-3.9c0,0 -10.4,-3 -13.2,-3c-2.8,0 -6,-3.2 -2.8,-5.2c3.2,-2 4,-5.6 2.8,-8.4c-1.2,-2.8 -2,-4.8 -6.4,-6c-4.4,-1.2 -5.6,-2.4 -3.6,-5.2c2,-2.8 2.4,-4.8 4.8,-2.8c2.4,2 6.4,2.8 9.6,1.2c3.2,-1.6 4.4,-2.8 6,-1.2c1.6,1.6 3.6,3.2 6,0.8c2.4,-2.4 6.8,-2.8 8.8,-1.6c2,1.2 6.8,0.8 8.4,0c1.6,-0.8 4.8,-3.6 4.8,-5.2c0,-1.6 2,-4.4 4,-5.6c2,-1.2 4.4,-5.2 6.4,-5.2c2,0 2.8,-2.4 2.8,-4c0,-1.6 1.6,-4.8 2,-6c0.4,-1.2 4.4,-2.9 7.2,-0.4c2.8,2.4 6.4,3.2 6.4,3.2c0,0 4,0.8 6,0c2,-0.8 4.8,-1.6 7.6,0.4c2.8,2 6.8,2 6.8,2c0,0 0.8,-3.2 0.8,-4.8c0,-1.6 0.8,-4.4 -0.8,-5.6c-1.6,-1.2 -3.6,-2.8 -0.4,-5.2c3.2,-2.4 3.2,-2 6.4,-2c3.2,0 5.2,0.4 7.6,0.4c2.4,0 6.4,2.4 6.4,4.8c0,2.4 1.6,4 3.6,5.2c2,1.2 4.4,2.4 3.6,4.4c-0.8,2 -0.8,3.6 1.6,3.2c2.4,-0.4 3.2,1.2 3.2,3.2c0,2 0.8,3.2 3.2,4c2.4,0.8 3.6,2.4 3.6,4.4c0,2 -0.4,3.2 0.4,5.2c0.8,2 3.2,5.2 3.2,5.2c0,0 4.4,5.6 -1.2,2.8c-5.6,-2.8 -6.8,-4 -8.8,-3.6c-2,0.4 -3.2,1.6 -3.2,1.6c0,0 -2.8,0.8 -4.8,0.8c-2,0 -4,4.4 -0.8,5.2c3.2,0.8 4.4,1.6 4.4,4.4c0,2.8 -1.2,2 -2.8,4c-1.6,2 -2.8,0.8 -5.6,0.8c-2.8,0 -3.6,2.4 -3.6,4.8c0,2.4 1.2,2 2.4,4c1.2,2 3.2,2.4 5.2,0.4c2,-2 3.6,-3.2 4.8,0.4c1.2,3.6 2.8,3.6 5.2,3.6c2.4,0 3.2,0 5.2,-1.2c2,-1.2 4.4,0 4.8,3.2c0.4,3.2 2.4,3.6 4.4,4.8c2,1.2 3.2,2 3.6,4c0.4,2 1.6,2.8 3.6,1.6c2,-1.2 5.2,-2 6.4,-0.4c1.2,1.6 3.2,4.8 3.2,4.8l0.4,4l7.6,2.8c0,0 0.8,2 0.8,3.6c0,1.6 1.2,2.4 3.2,2c2,-0.4 5.6,0 5.6,0c0,0 2.8,-1.2 2.8,-3.6c0,-2.4 1.2,-3.2 3.2,-3.2c2,0 6.4,1.6 7.6,-0.8c1.2,-2.4 4.8,-3.2 7.6,-2c2.8,1.2 10,4.4 10,4.4c0,0 -0.8,0.4 1.6,4.4c2.4,4 6.8,4 6.8,4c0,0 0.4,3.6 1.2,5.2c0.8,1.6 4.4,2.4 6.4,0.8c2,-1.6 4.8,-3.6 7.2,-3.6c2.4,0 4,0 4,-1.6c0,-1.6 -2.4,-2.8 -2.4,-5.2c0,-2.4 2.4,-2.4 2.8,-4.8c0.4,-2.4 2.8,0 4.4,1.2c1.6,1.2 3.6,3.2 3.6,4.8c0,1.6 3.2,7.2 5.2,8c2,0.8 7.2,1.2 8.8,-0.8c1.6,-2 5.6,-2.8 5.2,2c-0.4,4.8 -1.2,5.2 1.6,6.8c2.8,1.6 3.2,7.2 0.8,8.8c-2.4,1.6 -3.2,2 -3.2,4.8c0,2.8 -0.8,6 1.2,7.6c2,1.6 3.2,2.8 3.2,4.4c0,1.6 2.4,8.8 2.4,8.8c0,0 1.2,7.2 0.8,8.8c-0.4,1.6 -1.2,4.4 2.4,4c3.6,-0.4 4.4,-0.4 4.4,2.8c0,3.2 1.2,4.4 -0.8,5.6c-2,1.2 -3.2,5.2 -1.2,6c2,0.8 3.6,2 4,3.6c0.4,1.6 3.6,4.4 5.6,2.8c2,-1.6 2.4,-2.4 4,-2.8c1.6,-0.4 2.8,-1.6 1.2,-3.6c-1.6,-2 -2,-4 -0.4,-5.2c1.6,-1.2 2.4,-5.2 2.4,-5.2c0,0 2.4,-3.6 5.2,0c2.8,3.6 3.2,2.4 5.2,2.4c2,0 2.8,2 2.8,4c0,2 4,1.6 4,4.8c0,3.2 0.8,10.8 0.8,10.8c0,0 0,4.4 2.4,6c2.4,1.6 2,2 0.8,4c-1.2,2 -0.8,5.2 -0.8,6.8c0,1.6 0.8,2.4 -1.2,4c-2,1.6 -2.8,3.6 -1.6,6c1.2,2.4 0.8,4 4,6.8c3.2,2.8 2.8,4 2.8,6c0,2 3.2,4.8 3.2,6.8c0,2 2.4,4.4 4.4,4.8c2,0.4 4.4,4 4.4,6c0,2 0.4,7.2 0.4,7.2c0,0 -0.4,1.2 2,1.2c2.4,0 4,2.8 4.8,-0.4c0.8,-3.2 3.2,-3.6 4.8,-4.4c1.6,-0.8 4.8,-2.4 6.4,-1.2c1.6,1.2 3.6,1.2 5.2,1.2c1.6,0 9.2,0.4 9.2,0.4c0,0 2,-0.4 3.2,2.8c1.2,3.2 4.8,6.8 2.8,8.4c-2,1.6 -2,4.8 0.4,4.8c2.4,0 4.8,0 4.8,2c0,2 0.4,3.6 2.4,2.4c2,-1.2 3.2,-1.6 4,0c0.8,1.6 2.4,1.6 4.4,2.8c2,1.2 2.8,0.4 4,-1.2c1.2,-1.6 6,-3.2 6,-3.2c0,0 6.4,-1.6 8.8,-0.8c2.4,0.8 5.6,2.4 5.6,2.4c0,0 1.6,4 0.8,6.4c-0.8,2.4 -1.6,2 -0.8,5.6c0.8,3.6 -0.8,4 -2.4,3.6c-1.6,-0.4 -3.2,-0.4 -3.2,2.8c0,3.2 -1.6,4 -1.6,6.8c0,2.8 0,2.4 -1.6,3.6c-1.6,1.2 -2,3.2 0.4,3.6c2.4,0.4 1.6,3.2 1.6,4.8c0,1.6 -0.4,5.2 -0.4,5.2c0,0 0.4,2 -2.4,2c-2.8,0 -5.2,-0.4 -5.6,1.6c-0.4,2 -3.6,5.2 -0.8,7.2c2.8,2 2,3.2 0.4,4c-1.6,0.8 -2.8,4.8 0.4,6c3.2,1.2 2.8,2.4 0.8,4c-2,1.6 -6,2.8 -6,5.2c0,2.4 -0.8,2.4 -3.2,2.8c-2.4,0.4 -3.6,3.6 -0.8,7.6c2.8,4 3.6,3.2 5.6,3.2c2,0 2,-3.2 2,-3.2c0,0 6.8,0.4 8.8,0.4c2,0 4.8,0 6.4,-1.2c1.6,-1.2 6,-3.2 6,0.4c0,3.6 0.8,3.2 2.8,4.8c2,1.6 2.4,0.4 4,2.8c1.6,2.4 2,0.4 3.2,-2.4c1.2,-2.8 3.6,-5.6 5.6,-2.4c2,3.2 2,2.4 4.4,2.4c2.4,0 3.2,1.2 3.2,3.2c0,2 2.4,2 5.2,1.6c2.8,-0.4 3.2,1.6 4.4,3.6c1.2,2 1.6,1.6 3.2,1.6c1.6,0 3.2,0 4.4,-1.6c1.2,-1.6 2.8,-3.6 4.4,-1.2c1.6,2.4 4.8,2 5.6,-0.8c0.8,-2.8 4.4,-5.2 6.4,-2c2,3.2 3.6,3.2 5.6,3.6c2,0.4 4.8,0.4 6,2.4c1.2,2 5.2,5.2 2.4,7.6c-2.8,2.4 -6,5.6 -3.6,6.4c2.4,0.8 4,1.6 5.6,3.6c1.6,2 6.8,2.8 9.2,3.2c2.4,0.4 4.4,0.8 7.2,-1.6c2.8,-2.4 5.6,-2.4 5.2,0.8c-0.4,3.2 1.2,6.8 1.2,6.8c0,0 2,5.2 2,7.2c0,2 -0.4,2.4 3.2,4.8c3.6,2.4 3.2,4 6,1.6c2.8,-2.4 3.6,-3.6 3.6,-5.6c0,-2 0,-6.4 0,-6.4c0,0 4,-0.8 5.6,-2c1.6,-1.2 8,-4.8 9.6,-3.2c1.6,1.6 3.6,1.2 5.2,0.4c1.6,-0.8 4.8,-0.8 6.4,-0.8c1.6,0 4.4,0.4 7.6,-2.4c3.2,-2.8 3.2,-2 5.2,0c2,2 2,4.4 0.8,6c-1.2,1.6 0,5.2 2.8,5.2c2.8,0 3.6,1.6 3.6,3.6c0,2 0.4,4.8 0.8,6.4c0.4,1.6 0.4,2.4 4.8,3.6c4.4,1.2 3.6,4 4.4,6c0.8,2 0.8,3.6 -1.6,3.6c-2.4,0 -3.2,1.2 -3.6,3.2c-0.4,2 -4,2.8 -4,2.8l-3.6,-0.8c0,0 -2.4,0 -3.6,1.6c-1.2,1.6 -3.6,4.8 -2,7.6c1.6,2.8 1.6,4.4 0,5.6c-1.6,1.2 -2.4,7.2 -4,6c-1.6,-1.2 -3.6,0.4 -5.2,1.2c-1.6,0.8 -1.2,6.4 2,8.4c3.2,2 4,4.8 4,4.8l3.6,6c0,0 -1.2,1.2 -2,3.2c-0.8,2 -3.2,6 -0.8,6.8c2.4,0.8 1.2,5.2 -1.2,5.2c-2.4,0 -5.2,-1.2 -5.6,2c-0.4,3.2 -1.6,2.4 -4,2c-2.4,-0.4 -8.4,-2 -10,1.2c-1.6,3.2 -2,4.4 -4.8,4c-2.8,-0.4 -1.6,4.8 -0.8,6.8c0.8,2 3.6,4.8 3.6,4.8c0,0 2.4,2 2.4,6c0,4 -1.6,3.6 -3.2,0.8c-1.6,-2.8 -4.8,-2.4 -5.2,0.8c-0.4,3.2 -0.8,8 -3.6,8c-2.8,0 -4,0.8 -5.2,2.4c-1.2,1.6 -3.2,4.4 -3.2,6c0,1.6 -0.4,3.2 -2.4,3.6c-2,0.4 -2.4,4.8 -2.4,4.8c0,0 -4.8,0.8 -5.2,2.8c-0.4,2 0.4,5.2 -3.6,5.6c-4,0.4 -6.4,3.2 -7.6,5.2c-1.2,2 -1.6,3.6 0,5.6c1.6,2 2.8,8.4 4.8,9.6c2,1.2 3.6,1.6 3.2,4.8c-0.4,3.2 -2.8,5.6 0.4,5.6c3.2,0 5.2,0.8 4,3.6c-1.2,2.8 -1.2,3.2 -3.6,4.4c-2.4,1.2 -3.6,1.2 -3.6,4.4c0,3.2 0.8,3.2 -1.2,4.4c-2,1.2 -2,2.8 -2,5.2c0,2.4 -0.8,1.6 -3.2,4.4c-2.4,2.8 -5.6,2.8 -7.6,2c-2,-0.8 -2.4,-0.8 -2.8,-3.2c-0.4,-2.4 -4,-2.4 -6,-2c-2,0.4 -4.8,2.8 -4.8,2.8c0,0 -3.6,2.4 -2,4.4c1.6,2 0.8,5.2 -2,4.8c-2.8,-0.4 -9.2,3.2 -11.2,-0.4c-2,-3.6 -7.6,-6 -8.4,-1.2c-0.8,4.8 2.4,4.4 2,9.2c-0.4,4.8 -1.2,4.8 -2.8,6.4c-1.6,1.6 -1.6,2.8 -2,4.8c-0.4,2 -0.8,6.4 2,8c2.8,1.6 4,6 4,8.4c0,2.4 0,4.8 2.8,4.8c2.8,0 5.2,-0.4 5.6,-3.2c0.4,-2.8 6,-4.4 6.4,1.2c0.4,5.6 0.4,8.4 2.4,10.8c2,2.4 3.6,5.6 5.2,6.8c1.6,1.2 4.3,11.4 4.3,11.4c-3.9,0.9 -4.9,6.4 -7.4,7.5c-1.4,0.6 -2.9,0.1 -4.2,1.1c-1,0.8 -1,2.3 -2.4,3c-2.9,1.4 -2.4,-3.5 -5.9,-1.7c-3.2,1.6 -3.5,5.6 -8.1,3.9c-2.4,-0.9 -3.9,-11.1 -4.6,-13.5c-0.4,-1.4 -2.9,-5.6 -3.7,-6.9c-2.7,-4.4 -8.1,0 -9.8,-1.3c-2.7,-2 -1.5,-5.4 -5.6,-5.8c-8.3,-0.6 -2.4,5.5 -5.9,6.9c-6.7,2.6 -6.7,-6.8 -11.7,-2.5c-1.9,1.6 3,2.6 1.8,5.4c-1,2.3 -5.9,5.8 -5.6,8.5c0.4,3.7 4.1,4.8 5.2,7.9c3,8.2 -2,13.9 -9.5,7.5c-4.2,-3.6 -5,-10.3 -11.5,-9.8c-1.5,0.1 -2,1.8 -3.5,2c-1.5,0.1 -2.7,-1.5 -4.3,-1c-2.4,0.9 -0.3,2.7 -0.8,4.2c0,0 -3.2,2.9 -3.7,3.7c-1.8,2.6 -1.2,4.9 -3.8,7c-2.2,1.8 -3.9,0.7 -6.3,3.5c-2.5,2.9 -2.7,7.2 -5.9,10c-1.6,1.4 -2.7,-4.2 -4.7,-0.5c-0.3,0.5 -0.6,1 -0.8,1.5c-0.5,1.1 -0.6,1.6 -0.1,2.8c4.2,8.8 -4.6,12.1 -7.3,18.3c-1.2,2.6 2.1,5 0.8,7c-0.9,1.5 -4.8,5.6 -5.1,6.5c-0.3,0.9 -0.7,2.9 -1.4,3.6c-0.7,0.8 -3.1,0.4 -3.3,1.6c-0.2,1.4 2.5,2.5 3.2,3.4c0.9,1.1 -0.4,2.6 -0.1,2.9c4.5,4.9 1.8,3.4 4.1,7.7c0.3,0.6 1.7,-0.5 2.2,1.1c0.5,1.5 -1.1,1.4 -0.5,3.1c0.1,0.5 3.3,5 3.3,5.1c0.2,1.5 -6.1,4.6 -7.5,4.6c-3.8,0.1 3.3,-8.5 -2.9,-8.5c-2.7,0 -2.9,6.7 -3.6,7.4c-0.3,0.3 -2.8,-0 -3.4,-0c-4,-0 -6.6,5.4 -8.2,5.9c-1,0.4 -3.2,-0.6 -4.9,-0.3c-1.6,0.3 -3.5,2 -5,2c-1,0 -1.5,-0.7 -2.3,-1.2c-1.8,-1.1 -5.1,-1.6 -7.1,-2.3c-1.1,-0.4 -3.2,1.5 -3.9,1c-1.3,-0.9 0.9,-3.4 -2.1,-5.2c-0.4,-0.2 -2.6,-6 -2.5,-6.3c1,-3.8 2.1,-7.9 1.6,-11.9c-0.6,-4.1 -6.5,-7.6 -8.1,-10.9c-1.2,-2.5 -2.3,-9.1 -4.6,-10.8c-2.5,-1.8 -4.8,-5.3 -6.1,-8c-0.4,-0.8 0.8,-2.2 -0.1,-3.6c-1,-1.5 -2.9,-2.1 -3.4,-4.1c-0.4,-1.6 -0,-6.8 -1.7,-7.9c-1.9,-1.2 -14.1,-2.8 -17.1,-3.1c-1.6,-0.1 -2.8,-0.1 -4,-1.4c-0.5,-0.5 -1.3,-2.6 -1.7,-2.6c-1.2,-0.1 -2.6,0.6 -3.8,0.7c-0.9,0.1 -2.4,-0.6 -3.2,0c-3.9,2.9 -4.9,6.6 -8.6,9.7c-3.8,3.1 -8,3 -11.8,6.6c-2.4,2.3 -4,7.8 -6.4,10.4c-1,1.1 -2.6,-0 -3,0.5c-2,2.7 -4.8,4.3 -6.8,6.8c-0.4,0.5 -0.3,1.5 -0.8,1.9l-4.3,1.2c-1.1,0.2 -3.2,-0.1 -4.1,0.2c-2,0.7 -1.9,3 -8.7,4.5c-0.5,0.1 -1.4,0.6 -1.8,0.9c-0.8,0.6 -1.4,1.5 -2.2,2.1c-0.5,0.4 -2,-0.3 -2.9,-0.2c-1.7,0.3 -2.7,1.9 -4.3,2.1c-3.6,0.5 -9.4,-1.8 -12.2,-0.6c-1.7,0.7 -6.4,6.4 -8.1,7c-1.1,0.4 -1.9,-0.1 -3.1,-0.6c-0.6,0.8 -2,7 -2.5,8.4c-0,0.1 -7.7,7.1 -8.3,7.9c-1,1.2 -1.4,2.5 -2.6,3.8c-0.8,0.9 -2.1,1.7 -3.4,1.7c-1.6,0 -4,-1.3 -5.5,-1.6c-2.9,-0.5 -11.6,-0.9 -14.2,-0.3c-2.7,0.6 -1.9,9 -8.6,9.8c-3.9,0.5 -7.5,1.3 -11.5,1.7c-0.4,0 -2.8,-1.8 -5.2,-1.1c-0.9,0.3 -3.8,3.5 -3.8,4.5l-0,1.8c-0,0.3 0.8,1.4 0.7,1.5c-1.5,1.9 -4.9,4.9 -6,7.1c-0.3,0.6 -0.7,1.3 -1.2,1.7c-0.9,0.7 -5.5,2.6 -5.9,3.5c-1.1,3 3.2,5.8 2.8,7c-1.2,3.9 -6,7.6 -7.5,11.2c-0.6,1.5 1.6,6.5 1.5,8.2c-0.5,4.7 -2,10.7 -1.8,15.3c0,0.9 0.6,5.6 0.9,6.1c0.5,0.9 1.6,1.4 2.3,2.2c0.7,0.8 6,12 6.2,13.2c1,8.3 -10.1,5.4 -3.7,13.7c1,1.3 1.8,2.7 2.9,3.8c1.4,1.5 9.6,8 9.7,8.7c0.2,1.2 -6.6,2.4 -7.8,3.7c-3.2,3.4 -5.9,9.7 -9,13.2c-1.9,2.2 -3.6,-0.2 -6.1,4.9c-0.9,1.9 -0,6.2 -1.1,7.4c-1.6,1.8 -2.9,-0.6 -4.5,0.2c-0.7,0.3 -1.1,2.5 -1.8,3.1c-1.8,1.7 -17.8,10.9 -19.3,10.1c-0.8,-0.4 -1.7,-3.3 -1.8,-4.2c-0.2,-1 -1.2,-3.2 -2,-3.9c-4.1,-3.8 -10.4,-4.5 -14.4,0.1c-1,1.2 -1.1,3 -2.4,4.2c-2.2,2 -4.7,3.8 -6.8,5.8c-0.4,0.4 -1.6,1.9 -2.1,1.8c-1.6,-0.2 -5.5,-5 -6.5,-6.3c-1.8,-2.3 -7,-7.8 -7.5,-10.4c0,-8.9 -6.4,-18.2 -9.1,-26.9l4,0.1c4.5,-3.3 3.2,-11.4 11.3,-8.2c1,-1.5 0.9,-3.1 2.8,-4.2c0.7,-0.4 2,-0.8 2.4,-1.5c2.7,-4.5 5.9,-21.7 3.1,-26.1c-2.5,-4 -5.1,-3.8 -7.1,-10.4c-0.6,-1.8 0.5,-3.9 -0,-5.9c-0.4,-1.6 -3.1,-11.1 -3.5,-11.8c-0.5,-0.8 -2.2,-1.8 -2.3,-2.3c-0.1,-0.8 -0.7,-11.1 -0.4,-11.9c-2.7,-8 -11.8,-13.1 -12.3,-14c-1.1,-1.9 -2.2,-4.4 -3.4,-6.5c-1.4,-2.5 -1.4,-3.8 -2.2,-6.2c-0.3,-1.1 -1.8,-2 -1.9,-3.2c-0.2,-2.1 5.3,-6.5 5.1,-10.2c-0.1,-1.2 -3.5,-4.8 -2.8,-6.8c0.7,-2.1 4.2,-6.8 4.1,-9.1c-0.2,-3.1 -5.5,-9.8 -6.2,-13.1c-0.3,-1.6 2.1,-2.9 1.5,-4c-0.7,-1.4 -6.3,-6.9 -7.2,-8.5c-0.7,-1.2 2.1,-2.8 0.1,-5c-1.8,-2 -0.3,-1.3 -0.8,-3c-0.6,-1.9 -2.6,-3.6 -3.4,-5.6c-0.7,-1.7 -5.5,-20.5 -5.4,-21.6c-0.8,-1.3 -2.2,-2.4 -2.9,-3.7c-0.7,-1.3 -1,-3.8 -1.6,-4.8c-0.1,-0.1 -5.4,-1.8 -6.4,-3.5c-0.8,-1.4 -1,-6 -2.4,-8.3c-0.7,-1.1 -1.8,-0.9 -2.6,-1.7c-0.7,-0.6 -0.6,-1.7 -1.1,-2.4c-1.6,-2.4 -4.8,-0.2 -7,-9c-2.9,-2.2 -5.6,-4.1 -8.1,-6.8c-0.5,-0.5 -0.8,-1.1 -1.4,-1.4c-2,-0.9 -5,-1.2 -6.7,-2.8c-1,0 -6.3,-0.2 -6.9,-0.6c-0.6,-0.4 -1.2,-2.9 -1.6,-3c-2.8,-0.6 -7.4,-0.3 -9.8,-2.5c-1.9,-1.8 -2.3,-10.5 -5.7,-9.3c-0.4,-0.2 -0.9,-0.4 -1.4,-0.3c-2.2,-3.1 -9.8,-3.5 -12.9,-5.5c-0.9,-0.6 -3.8,-0.1 -3.8,-1c0.7,-1.7 0.5,-3.1 0.6,-4.8c-1.7,-1.8 -2.8,-3.9 -4,-5.2c-2.9,-0.7 -1.8,-1 -3.6,-2.2c-5,-0.4 -5.5,0.5 -8.7,3.7c-0.8,0.8 -2.4,1 -3.4,1.6c-1.7,1 -2.2,4.3 -4.6,2.8c-0.8,-0.5 -1.3,-1.3 -1.9,-1.9c-1.4,-1.3 -2.2,-0.6 -2.9,-3c-4.1,-2.4 -15.4,5.9 -18.1,0.1c-1.9,-1.1 -3.3,0.3 -4.9,-1.5c-0.8,-0.9 2.2,-10.9 -6,-15c1.9,-1.6 3.9,-2.7 5.7,-4.2c0.5,-1.1 -0.1,-2.8 -0.1,-3.9c-0,-1.7 1,-5 0.7,-6.2c-0.3,-1.2 -1.5,-2.2 -1.9,-3.6c-0.5,-1.4 0.1,-3.2 -0.6,-4.7c-0.5,-0.4 -2,-1.4 -2.6,-1.4c-2.1,-1.9 -4.4,-3.1 -6.1,-5.4c-0.4,-0.5 -0.7,-1.4 -1.2,-1.8c-1.5,-1.2 -6.4,-2.8 -6.2,-5.3c0.1,-0.8 1.1,-0.9 1.4,-1.7c0.3,-1 0.1,-2.3 0.8,-3.2c2.3,-3.4 7.4,-1.9 6.6,-8.2c-0.4,-2.8 -2.2,-5.2 -2.7,-8.2c-0.9,-0.7 -1,-1.9 -1.8,-2.6c-5,-0.5 -4.3,-6.1 -6.1,-7.4c-5.3,-3.9 -9.4,-1.5 -3.5,-9.2c0.8,-2.5 -5.1,-6.5 -6.3,-7.9c-2.1,-2.2 -1.1,-6.8 -1.9,-9.2c-0.4,-1.2 -3.9,-3.3 -5,-5c-0.3,-0.5 -1.2,-3.1 -1.7,-3.4l0.1,-0.8c1.1,-0.9 0.5,-2.7 0.2,-3.9c-0.7,-0.7 -2.2,-0.5 -2.7,-1c-4.8,-4.7 -10.6,-6.8 -16.9,-9.5c-1.7,-0.7 -1.2,-2.2 -2.6,-2.9c-1.2,-0.6 -9.7,-4.7 -10.3,-4.5c-1,-0.3 -1.7,-4.4 -2.4,-5.7c-0.6,-1.2 -3,-3.4 -3,-3.5c0.2,-3.8 -2,-4.3 -4.7,-6.3c0.2,-0.5 -0.3,-1.7 -0.3,-2.3c-0,-0.5 1.8,-7.1 2.1,-8c0.5,-1.4 2.2,-2.7 1.9,-4.3c-0.4,-2.5 -0.7,-6.4 -1.5,-8.6c-2.7,-7.8 -5.9,-6.8 -4.2,-17c0.4,-2.1 -0.3,-3.3 1.2,-5.2c-0.2,-0.1 0.7,-1.1 0.8,-1.3c0.9,-0.9 3.4,-2.4 3.9,-3.1c1.5,-2.2 2.4,-7.2 4.3,-8.8c1.4,-1.2 5.4,-3.5 6.1,-4.5c0.6,-0.8 1.5,-3.3 1,-4.3c-1.4,-0.9 -2.8,-0.5 -4.2,-0.7c-0.5,-0.1 -2.3,-1.5 -3.7,-1.8c-0.4,-0.5 -1.1,-1.1 -1.1,-1.8l-0.6,-0.6c-1.6,-0.2 -3.4,-1.3 -4.8,-1.8c-1.8,-0.8 -4.3,-0.9 -6,-2c-3.2,-2 -6.8,-7.5 -9.9,-8.3c-4.2,-1 -6.9,0.4 -10.9,0.6c-2.6,0.2 -2.6,-1.5 -4.7,-2.2c-2.8,-0.9 -0.7,1.6 -7.1,-0.6c-0.8,-0.7 0.4,-3.1 0.5,-4c-1,-0.3 -2.2,0.3 -3.4,-0c-5.3,-1.4 -3.3,-6.6 -4.7,-10c-0.6,-0.8 -2.8,-0.6 -3.8,-0.7c-0.3,-0.1 -0.4,-0.6 -0.3,-0.8l0.5,-0.4c0.9,-1.5 -2.3,-5.3 -2.2,-5.8c0.2,-1.2 6.7,-2.3 7.6,-2.4c0.3,-0.9 -0.6,-1.7 -0.7,-2.6c-0.2,-2 1,-4.6 1.6,-6.4l-0.2,-0.6c-1.8,-1.1 -2.4,-2.7 -4,-4c0.1,-0.9 1.2,-1.5 1.4,-2.4c3.1,-9.3 7.9,-1.9 12.1,-10.5c0.4,-0.8 1.6,-2.9 2,-4.3l0.8,-0.2c0.8,0.2 1.9,0.9 2.7,0.6c0.6,-0.9 1.9,-1.2 2.9,-1.5l1.5,0.4c7.8,-1.8 6,-4.9 10.5,-8.4c1.2,-0.9 4.7,-1.3 6.3,-1.9c1.7,0.8 4.1,3.7 7.3,5c2.3,1 10.2,2.8 11.5,3.6c1.7,1 2,3.4 3.5,4.3c4.5,2.6 1.9,-1.8 6.2,-0.9c4.4,1 8,4.9 12.1,6.8c0.7,0.3 2.4,-0.1 3.2,-0.3c1.3,-0.3 8.3,-1.7 9,-1.4c0.8,0.3 2,1.1 2.8,1.3c1,0.2 1.8,-2.1 2.5,-2c3,0.5 3.1,1.8 7.1,1.4c0.2,-0 2.1,-12.2 4,-12.8c1.1,-0.3 4.1,2.9 5,3.1c1.5,0.4 -0.1,-2.5 -0.2,-2.7c-0.4,-1 -2.5,-8.5 -2.4,-9.2c0.1,-0.4 2,0.6 2.9,0.3c2.2,-0.8 5.2,-1.4 6.8,-3.3c0.2,-0.2 3.6,-5.5 3.7,-5.7c0.2,-0.9 -0.9,-3 -0.4,-3.7c0.5,-0.6 2.4,-1.4 3.3,-2.4c1.3,-1.4 1.5,-3.8 3.3,-4.8c7.1,-0.7 9.6,-6.7 16,-7.5c0.4,-0 1.8,-0.3 2.1,-0.2l1.3,2.3c0.4,0.6 4.7,3.4 5.4,3.2c0.6,-0.1 0.9,-1.2 1.5,-1.4c1.3,0.2 4.9,-2.2 5.3,-3.4c0.1,-0.2 -0.8,-1.4 -0.4,-2.2c0.3,-0.6 4.8,-4.2 5.5,-4.6c1.6,-0 3.3,-0.4 4.8,0.2c0.9,0.4 1,1.9 2,2.1c1.1,0.1 3.1,-0.4 3.9,-0.2c0.9,0.2 1.3,-1.8 2.4,-1.9z"/>
<g id="h">
<use xlink:href="#star" x="461.835" y="121.826"/>
<use xlink:href="#star" x="544.233" y="136.356"/>
<use xlink:href="#star" x="622.857" y="164.972"/>
</g>
<use xlink:href="#h" x="-840" transform="scale(-1,1)"/>
</svg>