<?xml version="1.0" encoding="utf-8"?>
<!-- Generator: Adobe Illustrator 15.0.2, SVG Export Plug-In . SVG Version: 6.00 Build 0)  -->
<!DOCTYPE svg PUBLIC "-//W3C//DTD SVG 1.1//EN" "http://www.w3.org/Graphics/SVG/1.1/DTD/svg11.dtd">
<svg version="1.1" id="Layer_1" xmlns="http://www.w3.org/2000/svg" xmlns:xlink="http://www.w3.org/1999/xlink" x="0px" y="0px"
	 width="640px" height="480px" viewBox="0 0 640 480" enable-background="new 0 0 640 480" xml:space="preserve">
<g>
	<defs>
		<rect id="SVGID_1_" y="0" width="640.004" height="480"/>
	</defs>
	<clipPath id="SVGID_2_">
		<use xlink:href="#SVGID_1_"  overflow="visible"/>
	</clipPath>
	<path clip-path="url(#SVGID_2_)" fill="#199D00" d="M-40,0h720v480H-40V0z"/>
	<path clip-path="url(#SVGID_2_)" fill="#FFFFFF" d="M141.444,136.059c-0.832,11.214-1.828,30.948,7.7,32.973
		c11.524,1.107,5.169-19.506,9.341-23.244c0.789-1.847,2.243-1.855,2.363,0.474v17.484c-0.105,5.688,3.633,7.361,6.537,8.536
		c3.022-0.233,5.04-0.132,6.224,2.808l1.417,30.245c0,0,7.009,2.006,7.342-17.012c0.335-11.166-2.231-20.513-0.727-22.687
		c0.053-2.134,2.779-2.262,4.669-1.221c3.013,2.124,4.354,4.748,9.037,3.699c7.124-1.963,11.406-5.429,11.511-10.897
		c-0.417-5.198-1-10.397-3.251-15.596c0.314-0.946-1.375-3.395-1.062-4.341c1.281,2.006,3.229,1.839,3.671,0
		c-1.212-3.994-3.094-7.822-6.144-9.479c-2.52-2.22-6.209-1.767-7.56,2.865c-0.625,5.336,1.924,11.676,5.81,16.845
		c0.825,2.02,1.984,5.375,1.475,8.396c-2.067,1.18-4.136,0.688-5.868-1.142c0,0-5.67-4.252-5.67-5.197
		c1.505-9.634,0.334-10.726-0.5-13.399c-0.583-3.691-2.334-4.874-3.752-7.396c-1.418-1.504-3.337-1.504-4.254,0
		c-2.507,4.346-1.338,13.672,0.473,17.851c1.309,3.842,3.308,6.253,2.362,6.253c-0.777,2.171-2.385,1.67-3.555-0.836
		c-1.671-5.18-2.006-12.909-2.006-16.388c-0.5-4.315-1.052-13.519-3.892-15.857c-1.732-2.358-4.3-1.208-5.197,0.945
		c-0.187,4.282-0.206,8.564,0.276,12.511c1.947,6.922,2.56,13.009,3.505,20.098c0.262,9.495-5.49,4.119-5.228-0.588
		c1.326-6.114,0.982-15.739-0.197-18.179c-0.934-2.439-2.037-3.041-4.31-2.64c-1.805-0.109-6.448,4.96-7.752,13.371
		c0,0-1.112,4.329-1.585,8.173c-0.637,4.344-3.497,7.409-5.503-0.611C145.41,147.048,144.345,132.698,141.444,136.059
		L141.444,136.059z"/>
	<path clip-path="url(#SVGID_2_)" fill="#FFFFFF" d="M172.76,182.072c-10.17,4.972-20.005,9.609-30.009,14.414
		c0.365-6.803,14.268-19.082,23.748-19.254C172.669,177.404,171.118,179.622,172.76,182.072L172.76,182.072z"/>
	<path clip-path="url(#SVGID_2_)" fill="#FFFFFF" d="M167.518,191.475c-15.815,40.77,37.036,46.449,42.942,1.67
		c0.556-1.838,2.784-3.675,3.174-0.669c-1.225,40.545-40.88,43.332-47.619,30.576c-1.67-3.007-2.172-9.69-2.339-13.701
		c-1.003-7.963-5.179-4.9-5.848,3.008c-0.669,4.399-0.501,5.627-0.501,9.858c2.116,32.024,53.189,18.269,61.487-8.187
		c4.4-14.648-0.725-25.452,1.67-25.397c5.069,5.458,12.141,0.724,13.701-1.17c0.669-0.946,2.341-1.558,3.51-0.334
		c3.953,2.843,10.917,1.503,12.364-3.509c0.836-4.901,1.505-9.969,1.672-15.203c-3.231,1.003-5.625,1.67-5.849,3.008l-0.668,4.343
		c-0.277,1.394-3.065,1.447-3.175-0.335c-1.225-5.569-6.293-6.293-9.357,2.341c-2.062,1.67-5.792,2.005-6.183-0.501
		c0.501-5.793-1.838-6.573-6.516-3.844c-1.504-11.473-3.007-22.443-4.512-33.918c1.95-0.056,3.733,1.392,5.516-0.836
		c-1.952-6.069-6.072-18.49-8.357-19.382c-1.114-1.336-2.063-0.501-3.508-0.167c-2.451,0.78-4.734,2.896-4.012,7.018
		c2.896,17.6,4.791,31.022,7.688,48.622c0.444,2.061-1.282,4.788-3.509,4.51c-3.788-2.562-4.731-7.74-11.194-7.52
		c-4.679,0.057-10.027,5.125-10.694,10.028c-0.78,3.896-1.059,8.128-0.002,11.527c3.288,3.953,7.242,3.565,10.695,2.674
		c2.841-1.17,5.179-4.01,6.182-3.343c0.669,0.837,0.166,10.19-13.368,17.377c-8.187,3.675-14.704,4.512-18.211-2.173
		C170.527,203.67,172.866,187.797,167.518,191.475L167.518,191.475z"/>
	<path clip-path="url(#SVGID_2_)" fill="#FFFFFF" d="M234.603,150.028c3.174-1.17,18.215-18.378,18.215-18.378
		c-0.781-0.669-1.478-1.171-2.257-1.839c-0.836-0.724-0.752-1.447,0-2.172c3.731-2.172,2.534-6.934,0.585-9.105
		c-3.23-1.449-6.043-0.975-8.105,0.083c-2.618,2.507-3.229,6.516-1.167,9.022c2.006,0.946,4.009,2.98,2.672,4.094
		c-6.153,6.572-23.001,17.906-21.052,18.295C223.91,150.585,234.271,150.557,234.603,150.028z M143.784,210.938
		c-5.64,8.984-6.131,22.409-3.019,26.411c1.654,1.891,4.371,2.719,6.381,2.127c3.544-1.537,5.095-8.717,4.254-11.344
		c-1.184-1.851-2.114-2.145-3.296-0.569c-2.493,5.063-3.528,1.589-3.747-1.24c-0.382-5.365,0.123-10.307,0.705-14.22
		C145.682,208.092,145.052,209.319,143.784,210.938z M384.8,196.547c-5.453-11.739-13.003-23.339-15.405-27.795
		c-2.401-4.457-20.535-30.774-23.205-33.734c-5.891-7,9.566,2.915-1.955-10.984c-4.393-3.769-4.648-3.998-8.294-7.073
		c-1.84-1.305-6.33-3.688-7.125,0.263c-0.4,3.484-0.185,5.374,0.4,8.275c0.45,1.934,3.267,5.173,4.652,7.05
		c18.398,24.731,34.713,49.706,50.445,81.108C386.798,212.475,386.254,198.511,384.8,196.547L384.8,196.547z"/>
	<path clip-path="url(#SVGID_2_)" fill="#FFFFFF" d="M360.865,235.819c-1.072,1.204,2.648,6.353,7.481,6.347
		c8.085-0.938,15.202-5.479,21.792-17.433c1.762-2.788,4.859-8.751,4.949-13.375c0.617-27.117-1.356-48.219-5.42-67.819
		c-0.26-1.908-0.102-4.152,0.222-4.725c0.524-0.625,2.299,0.003,3.241-1.541c1.382-1.411-3.67-13.098-6.55-17.598
		c-1.021-2.011-1.378-3.353-3.071,0.235c-1.78,2.916-2.976,8.005-2.836,12.76c3.857,26.703,5.042,50.062,7.563,76.765
		c0.206,2.582-0.175,6.334-1.892,7.831C379.996,223.896,370.831,232.057,360.865,235.819z M470.075,235.678
		c-5.803,3.354-5.81,7.211-1.118,7.351c8.084-0.938,17.638-1.609,24.226-11.558c1.764-2.789,3.857-10.327,3.948-14.952
		c0.616-27.117-0.354-47.357-4.417-66.956c-0.26-1.909-1.104-6.304-0.782-6.876c0.524-1.343,3.16,0.146,4.102-1.399
		c1.381-1.41-6.823-11.95-9.703-16.451c-1.021-2.009-1.378-3.352-3.07,0.236c-1.781,2.917-2.402,8.148-1.69,12.761
		c4.288,28.995,7.479,50.777,8.137,76.477c-0.369,2.439-0.461,3.755-1.604,6.827c-2.531,3.244-5.334,7.299-7.963,9.259
		C477.512,232.356,471.903,234.227,470.075,235.678L470.075,235.678z"/>
	<path clip-path="url(#SVGID_2_)" fill="#FFFFFF" d="M474.425,209.681c-0.066-6.78,0.096-12.637-0.127-17.693
		c-0.224-5.058-1.117-9.176-2.867-12.766c-1.656-3.85-0.628-6.942-1.406-11.043c-0.777-4.099-0.586-10.237-1.761-15.102
		c-0.321-1.899-1.309-7.982-1.003-8.565c0.478-1.357,2.303,0.042,3.193-1.531c1.334-1.455-4.629-16.883-7.653-21.288
		c-1.088-1.975-3.063-1.298-5.497,1.913c-2.26,2.114-1.422,6.934-0.56,11.518c5.802,30.273,10.129,57.674,9.185,86.491
		C465.639,224.065,474.485,214.307,474.425,209.681z M431.563,172.134c-3.648-0.066-11.291-7.101-13.521-11.222
		c-0.843-2.363-0.302-4.67,0.44-6.021c1.351-0.879,3.431-1.865,4.983-0.919c0,0,1.612,2.254,1.3,2.541
		c1.992,0.954,2.838,0.404,3.04-0.405c0.137-1.419-0.588-2.265-0.597-3.828c0.845-4.237,5.688-4.896,7.513-2.193
		c1.335,1.647,1.824,5.148,2.027,7.512c-0.021,1.208-1.978-0.209-3.088,0.082c-1.111,0.291-1.379,1.573-1.465,2.732
		C431.994,163.487,431.63,168.418,431.563,172.134L431.563,172.134z M364.222,217.199c1.005-9.213-0.371-25.622-0.463-31.059
		c-0.369-12.844-2.467-37.652-3.465-41.797c-1.125-7.813,3.213,0.856,2.612-3.685c-1.406-7.801-5.734-13.089-10.821-20.235
		c-1.641-2.324-1.584-2.798-4.116,0.57c-2.804,6.356-0.385,10.729,0.34,15.681c3.669,16.131,5.809,30.973,6.806,45.645
		c0.996,14.672,1.303,30.536,0.393,45.988C358.256,228.416,362.676,223.861,364.222,217.199L364.222,217.199z"/>
	<path clip-path="url(#SVGID_2_)" fill="#FFFFFF" d="M486.847,202.444c-6.434-10.795-16.143-22.487-18.736-26.835
		s-24.531-32.653-27.327-35.494c-8.024-8.431,3.682-1.372-1.536-7.884c-4.413-4.845-5.7-6.366-9.476-9.279
		c-1.895-1.224-3.042-3.561-3.664,0.422c-0.248,3.498-0.507,7.547-0.271,10.495c-0.013,1.64,1.694,4.72,3.16,6.534
		c19.457,23.906,40.681,48.316,57.766,79.003C489.192,218.116,488.385,204.343,486.847,202.444z"/>
	<path clip-path="url(#SVGID_2_)" fill="#1BA400" d="M194.928,182.522c-0.463,0.812-1.495,1.864-1.148,2.952
		c0.722,0.979,1.299,1.178,2.503,1.231c1.044,0,2.503,0.246,2.817-0.37c0.563-0.618,0.989-1.883,0.521-3.075
		C198.534,180.541,195.496,181.553,194.928,182.522z"/>
	<path clip-path="url(#SVGID_2_)" fill="#FFFFFF" d="M412.034,339.881c8.604,0.316,14.236,0.393,21.889,1.303
		c0,0,6.601-0.651,8.956-1.008c9.962-0.95,10.402,14.228,10.402,14.228c-0.108,8.901-3.545,9.368-7.931,10.308
		c-2.506,0.319-3.823-1.5-5.141-3.438c-1.653,0.692-3.899,0.792-6.622,0.413c-3.586-0.225-7.172-0.209-10.758-0.434
		c-3.809-0.336-5.834,0.396-9.645,0.061c-0.785,1.233-1.805,2.94-4.135,2.391c-1.938-0.215-4.234-5.655-3.559-9.793
		c1.4-2.966,1.016-2.012,0.869-3.315c-35.18-0.896-70.696-2.465-105.206-2.016c-27,0.111-53.666,1.231-80.332,2.353
		c-14.228-0.225-25.096-2.465-32.603-13.445c0.672,0,36.3,2.017,46.72,1.345c19.271-0.226,36.86-1.793,56.467-2.354
		c38.653,0.673,76.972,0.673,115.622,3.361c-3.698-2.53-3.83-8.505,1.86-9.965c0.484-0.333,0.733,2.971,1.585,2.909
		c4.554-0.342,2.557,5.825,1.556,7.097L412.034,339.881z M256.85,126.824c-5.858,16.743,3.356,35.058,9.745,33.274
		c4.608,1.907,7.543-6.86,9.43-16.466c1.291-2.696,2.266-2.982,2.929-1.598c-0.169,12.773,0.918,15.604,4.202,19.48
		c7.326,5.652,13.386,0.722,13.861,0.246l5.703-5.704c1.27-1.336,2.96-1.414,4.753-0.237c1.743,1.585,1.498,4.32,5.229,6.218
		c3.141,1.256,9.853,0.291,11.41-2.415c2.092-3.587,2.595-4.818,3.564-6.179c1.493-1.989,4.04-1.104,4.04-0.477
		c-0.238,1.109-1.732,2.219-0.712,4.216c1.775,1.332,2.186,0.476,3.236,0.179c3.717-1.776,6.507-9.86,6.507-9.86
		c0.165-3.008-1.521-2.759-2.614-2.14c-1.426,0.872-1.519,1.15-2.945,2.022c-1.816,0.271-5.342,1.475-7.085-1.224
		c-1.779-3.244-1.804-7.771-3.164-11.043c0-0.238-2.36-5.155-0.163-5.47c1.108,0.206,3.475,0.832,3.851-1.16
		c1.163-1.942-2.49-7.441-4.99-10.22c-2.171-2.383-5.178-2.67-8.081-0.236c-2.033,1.87-1.74,3.96-2.14,5.94
		c-0.518,2.274-0.407,5.073,1.902,8.081c2.028,4.001,5.73,9.153,4.515,16.398c0,0-2.162,3.425-5.93,2.977
		c-1.571-0.343-4.117-1.009-5.478-11.058c-1.03-7.604,0.243-18.246-2.985-23.234c-1.166-3.013-2.018-5.922-4.859-0.769
		c-0.763,2.022-4.04,5.093-1.663,11.408c1.944,4.003,2.736,10.519,1.854,17.77c-1.347,2.06-1.646,2.757-3.413,4.817
		c-2.48,2.667-5.173,1.986-7.234,0.99c-1.927-1.299-3.436-1.97-4.314-6.095c0.159-6.575,0.525-17.338-0.677-19.621
		c-1.772-3.536-4.693-2.258-5.942-1.188c-5.997,5.483-8.959,14.735-10.771,22.104c-1.663,5.369-3.434,3.83-4.679,1.664
		c-3.028-2.839-3.234-25.041-6.891-21.391V126.824z"/>
	<path clip-path="url(#SVGID_2_)" fill="#FFFFFF" d="M274.484,163.219c2.66-1.885,1.417-3.201,5.395,0.776
		c4.979,8.514,8.182,19.542,8.661,29.312c-0.21,2.407,1.487,3.931,2.264,3.407c0.461-5.651,14.206-13.526,26.809-14.678
		c1.928-0.419,0.99-4.113,1.304-5.996c-0.755-6.997,3.932-13.367,10.502-13.875c8.942,1.321,11.919,6.096,12.069,13.383
		c-0.966,13.989-15.539,16.361-23.727,17.477c-1.256,0.476-1.779,1.055,0,1.74l34.308,0.155l1.75,1.011
		c0.21,0.818-0.5,0.136-1.854,2.366c-1.354,2.23-3.352,7.373-3.454,10.808c-10.222,3.287-20.794,4.727-31.54,6.026
		c-3.733,1.888-5.583,4.403-4.816,7.234c1.256,3.141,9.524,6.277,9.524,6.427c1.57,0.984,3.429,3.283-0.444,7.992
		c-16.734-0.736-29.702-7.858-34.192-17.91c-1.353-1.049-2.81-0.006-3.743,1.353c-6.533,8.423-12.962,16.007-24.102,20.033
		c-6.643,1.66-13.442-1.019-16.654-5.368c-2.15-2.477-2.068-5.21-2.857-5.803c-3.591,1.588-34.486,14.716-30.57,8.601
		c7.519-8.048,20.537-13.959,32.033-21.902c0.83-2.662,2.338-11.665,6.879-14.598c0.263,0.022-0.719,5.288-0.621,7.508
		c0.052,1.822-0.134,2.537,0.266,2.068c0.775-0.495,14.726-11.456,15.804-14.817c1.359-1.928,0.407-6.809,0.407-6.957
		c-2.615-6.742-6.286-7.315-7.646-10.665c-1.224-4.45-0.67-9.529,1.874-10.945c2.259-2.051,4.934-1.797,7.401,0.443
		c2.818,2.523,5.32,7.456,6.044,11.13c-0.483,1.453-3.688-0.966-4.798-0.243c1.967,2.036,2.885,4.385,3.595,7.26
		c1.817,7.695,1.263,10.688-0.566,15.664c-6.193,13.021-14.108,16.907-21.034,21.731c-0.185,0.065-0.308,3.305,2.297,5.057
		c0.898,0.942,4.51,1.427,8.758,0.065c8.208-4.476,16.728-12.721,20.958-21.907c1.228-6.947-0.475-14.315-2.282-20.741
		c-2.722-6.279-5.927-15.245-5.927-15.394c-0.105-3.916,0.213-5.274,1.931-7.228H274.484z M184.663,127.003
		c3.949,1.883,11.373,1.082,11.059-5.286c0-0.563-0.143-2.467-0.2-2.983c-0.806-1.877-3.005-1.413-3.503,0.524
		c-0.157,0.635,0.28,1.669-0.295,1.987c-0.33,0.333-1.592,0.138-1.539-1.621c0-0.561-0.413-1.163-0.662-1.52
		c-0.249-0.163-0.408-0.208-0.859-0.208c-0.552,0.021-0.542,0.165-0.844,0.629c-0.129,0.47-0.305,0.931-0.305,1.465
		c-0.069,0.626-0.306,0.85-0.766,0.942c-0.515,0-0.398,0.056-0.816-0.209c-0.247-0.272-0.557-0.375-0.557-0.838
		c0-0.479-0.108-1.254-0.253-1.57c-0.219-0.288-0.57-0.422-0.966-0.523c-2.156,0.007-2.306,2.468-2.182,3.401
		C181.813,121.369,181.722,125.782,184.663,127.003z"/>
	<path clip-path="url(#SVGID_2_)" fill="#FFFFFF" d="M300.416,175.996c3.949,1.884,13.348,0.8,11.059-5.285
		c0-0.563-0.144-2.469-0.2-2.984c-0.806-1.877-3.004-1.412-3.503,0.525c-0.157,0.635,0.279,1.669-0.296,1.987
		c-0.33,0.333-1.592,0.137-1.539-1.622c0-0.561-0.412-1.162-0.662-1.519c-0.249-0.163-0.407-0.208-0.859-0.208
		c-0.551,0.021-0.542,0.165-0.844,0.628c-0.128,0.471-0.305,0.931-0.305,1.466c-0.069,0.626-0.306,0.849-0.766,0.941
		c-0.515,0-0.398,0.057-0.816-0.209c-0.248-0.271-0.557-0.375-0.557-0.837c0-0.479-0.108-1.254-0.253-1.57
		c-0.219-0.289-0.57-0.422-0.966-0.524c-2.156,0.008-2.306,2.468-2.182,3.401C297.565,170.364,297.475,174.776,300.416,175.996
		L300.416,175.996z M367.916,155.719c3.948,1.883,11.372,1.081,11.059-5.286c0-0.563-0.144-2.468-0.2-2.984
		c-0.806-1.876-3.005-1.412-3.503,0.525c-0.156,0.635,0.279,1.669-0.296,1.987c-0.329,0.333-1.592,0.137-1.539-1.622
		c0-0.561-0.413-1.162-0.662-1.519c-0.249-0.163-0.407-0.208-0.859-0.208c-0.552,0.021-0.542,0.165-0.844,0.628
		c-0.128,0.471-0.306,0.932-0.306,1.466c-0.068,0.626-0.305,0.85-0.766,0.942c-0.514,0-0.397,0.056-0.814-0.209
		c-0.248-0.272-0.559-0.375-0.559-0.838c0-0.479-0.107-1.254-0.252-1.57c-0.219-0.288-0.57-0.422-0.966-0.523
		c-2.156,0.007-2.306,2.467-2.182,3.401C365.065,150.085,364.975,154.498,367.916,155.719z M402.875,206.653
		c-6.881,7.756-3.848,20.583-2.293,23.347c2.269,4.54,4.096,7.45,8.511,9.696c4.021,2.959,7.155,1.109,8.882-0.963
		c4.047-4.193,4.095-14.901,5.994-17.022c1.333-3.897,4.688-3.231,6.316-1.505c1.577,2.269,3.437,3.731,5.756,4.967
		c3.773,3.33,8.281,3.938,12.722,0.904c3.034-1.703,5.007-3.902,6.783-8.269c1.974-5.277,0.874-29.67,0.479-44.126
		c-0.151-1.134-3.922-19.88-3.922-20.089c0-0.21-0.499-9.566-0.913-11.796c-0.073-0.905-0.298-1.165,0.65-1.051
		c1.006,0.847,1.144,0.9,1.771,1.179c1.015,0.186,1.923-1.542,1.311-3.131l-9.42-17.375c-0.756-0.744-1.732-1.562-2.932,0.21
		c-1.146,1.004-2.365,2.822-2.327,5.159c0.278,4.117,1.003,8.307,1.28,12.425l3.769,21.143c1.187,15.071,1.484,27.406,2.67,42.477
		c-0.166,6.382-2.149,11.946-4.011,12.749c0,0-2.831,1.641-4.729-0.172c-1.381-0.555-6.907-9.211-6.907-9.211
		c-2.826-2.591-4.688-1.85-6.699,0c-5.545,5.354-8.054,15.369-11.821,22.277c-0.972,1.543-3.717,2.861-6.759-0.112
		C399.308,217.809,403.837,202.791,402.875,206.653z M369.688,118.753c3.537,1.481,6.033,8.646,5.219,12.146
		c-0.704,4.328-2.58,9.003-3.929,8.394c-1.466-0.543,0.999-4.303-0.409-8.246c-0.783-2.566-5.61-7.257-5.103-8.64
		C364.47,119.51,367.518,118.242,369.688,118.753z"/>
	<path clip-path="url(#SVGID_2_)" fill="#FFFFFF" d="M414.266,210.9c0.744-8.605-0.512-13.853-0.735-18.91
		c-0.223-5.058-5.72-43.649-6.835-47.476c-1.346-7.236,5.344-0.971,4.612-5.179c-2.313-5.307-8.072-13.031-9.881-17.641
		c-1.088-1.974-0.631-3.73-3.066-0.52c-2.259,7.384-3.042,13.42-2.18,18.005c5.8,30.272,11.749,55.444,10.806,84.262
		C409.736,223.46,412.907,217.148,414.266,210.9L414.266,210.9z M474.706,130.949c3.226,1.604,5.114,10.584,4.758,13.149
		c-0.642,4.687-2.353,9.748-3.581,9.089c-1.337-0.589,0.268-6.95-0.375-8.928c-0.713-2.779-5.113-7.856-4.65-9.354
		C469.948,131.77,472.729,130.398,474.706,130.949z M235.016,194.625c3.084,1.177,4.894,7.776,4.553,9.662
		c-0.615,3.442-2.253,7.162-3.428,6.678c-1.279-0.433,0.257-5.107-0.357-6.561c-0.261-3.524-4.542-5.35-4.453-6.872
		C230.531,194.733,233.122,194.218,235.016,194.625L235.016,194.625z"/>
	<path clip-path="url(#SVGID_2_)" fill="#1B9D00" d="M309.556,204.534c3.982,0.253,5.972,3.377,2.242,4.688
		c-3.679,1.259-7.214,2.243-7.231,7.56c1.361,7.408-1.866,4.866-3.792,3.86c-2.268-1.629-8.632-5.551-9.54-14.016
		c-0.136-2.021,1.439-3.722,3.976-3.709C299.031,203.955,304.667,204.031,309.556,204.534L309.556,204.534z"/>
	<path clip-path="url(#SVGID_2_)" fill="#FFFFFF" d="M152.562,116.615c4.552,1.372,4.82,8.063,4.485,10.019
		c-0.607,3.569-2.22,7.425-3.377,6.922c-1.26-0.448-0.05-5.294-0.654-6.802c-0.675-2.116-4.521-5.984-4.085-7.125
		C148.075,117.24,150.696,116.194,152.562,116.615z M242.45,148.153c-3.492,1.89-4.847,7.52-2.672,10.799
		c2.03,2.888,5.237,1.816,5.665,1.816c3.422,0.429,5.452-6.414,5.452-6.414s0.108-1.924-3.956,1.712
		c-1.71,0.32-1.924-0.321-2.351-1.284c-0.356-1.781-0.285-3.563,0.535-5.345C245.729,147.727,244.409,146.978,242.45,148.153z
		 M268.644,114.028c-1.755,1.177-5.248,4.796-5.354,8.966c-0.106,2.353-0.544,2.345,0.995,3.842
		c1.113,1.605,2.235,1.461,4.481,0.284c1.29-0.951,1.726-1.582,2.161-3.176c0.534-2.672-2.826,1.268-3.253-1.706
		c-0.748-2.762,1.41-3.893,3.441-6.564C271.182,113.842,271.142,112.546,268.644,114.028z M289.747,117.778
		c-0.757,1.671-1.663,10.4-1.513,10.4c-0.604,2.601,2.722,3.713,4.234,0.37c2.268-6.129,2.268-8.729,2.418-11.329
		C294.181,113.259,291.511,113.383,289.747,117.778z M422.797,185.485c0.454-0.454,18.748-13.456,18.748-13.456
		c1.865-0.655,1.461,6.703,0.604,6.652c0.353,1.461-18.042,13.959-19.354,13.456C421.89,192.792,420.982,187.098,422.797,185.485
		L422.797,185.485z M439.475,185.371c3.226,1.604,4.51,11.037,4.153,13.604c0.114,4.989-3.107,8.99-4.338,8.332
		c-1.337-0.588,0.117-6.193-0.524-8.172c-0.713-2.778-3.451-8.008-2.989-9.505C434.868,186.494,437.497,184.82,439.475,185.371z
		 M330.659,226.003c1.272-1.86,5.203-4.537,5.292-4.537c1.813-0.907,3.586,0.712,3.479,0.605c0.301,1.814-1.148,3.503-0.693,5.923
		c0.396,0.975,0.686,2.058,2.473,1.646c2.905-2.286,5.597-2.434,8.501-2.578c2.226,0.134,2.313,3.902,0.907,3.931
		c-5.363,1.165-7.768,2.602-11.598,4.063c-1.814,1.058-3.371-0.284-3.371-0.436c0-0.15-1.061-1.029-0.32-3.433
		c0.131-1.928-0.645-2.984-2.25-2.766c-1.209,0.654-2.274,1.087-2.879-0.303C329.961,227.092,329.883,226.593,330.659,226.003z
		 M458.722,231.084c0.784,0.997,1.291,1.921-0.063,3.56c-1.283,1.176-2.188,1.823-3.47,2.999c-0.605,1.033-0.994,2.601,0.859,3.101
		c3.422,0.962,11.333-4.17,11.333-4.277c1.283-0.962,0.855-2.779,0.748-2.779c-0.748-0.855-2.434-0.347-3.567-0.485
		c-0.54,0-2.311-0.269-1.468-1.836c0.703-0.975,0.955-1.572,1.433-2.774c0.534-1.175,0.074-1.959-1.85-2.602
		c-1.96-0.355-2.744-0.178-4.918,0c-1.176,0.25-1.576,0.775-1.79,2.201C456.054,230.352,457.368,230.23,458.722,231.084z"/>
	<path clip-path="url(#SVGID_2_)" fill="#259F00" d="M331.359,177.884c-0.501,0.867-2.197,0.825-3.787-0.094
		s-2.473-2.369-1.972-3.237c0.502-0.868,2.197-0.825,3.788,0.096C330.979,175.57,331.861,177.017,331.359,177.884z M247.854,127.64
		c-0.95,0.232-2.192-0.615-2.775-1.894c-0.582-1.277-0.282-2.502,0.667-2.734c0.95-0.232,2.193,0.614,2.775,1.892
		C249.104,126.182,248.806,127.407,247.854,127.64z"/>
	<path clip-path="url(#SVGID_2_)" fill="#209000" d="M413.037,351.534c8.767,0.427,17.004,0.099,25.771,0.527
		c1.588,1.351,0.454,4.664-0.604,4.427c-2.851-0.072-4.492-0.143-7.344-0.215c-0.098-2.791-7.225-2.334-7.02,0.09
		c-3.848,0.463-7.318-0.135-11.167-0.277c-1.138-1.415-0.992-3.967,0.366-4.552H413.037z"/>
</g>
</svg>
