<?xml version="1.0" encoding="utf-8"?>
<!-- Generator: Adobe Illustrator 15.0.2, SVG Export Plug-In . SVG Version: 6.00 Build 0)  -->
<!DOCTYPE svg PUBLIC "-//W3C//DTD SVG 1.1//EN" "http://www.w3.org/Graphics/SVG/1.1/DTD/svg11.dtd">
<svg version="1.1" id="Layer_1" xmlns="http://www.w3.org/2000/svg" xmlns:xlink="http://www.w3.org/1999/xlink" x="0px" y="0px"
	 width="640px" height="480px" viewBox="0 0 640 480" enable-background="new 0 0 640 480" xml:space="preserve">
<g>
	<defs>
		<rect id="SVGID_1_" y="0" width="640" height="480"/>
	</defs>
	<clipPath id="SVGID_2_">
		<use xlink:href="#SVGID_1_"  overflow="visible"/>
	</clipPath>
	<path clip-path="url(#SVGID_2_)" fill="#FFFFFF" d="M-40,0h720v480H-40V0z"/>
	<path clip-path="url(#SVGID_2_)" fill="#009543" d="M-40,336h720v144H-40V336z"/>
	<path clip-path="url(#SVGID_2_)" fill="#00209F" d="M-40,0h720v144H-40V0z"/>
	<path clip-path="url(#SVGID_2_)" stroke="#000000" stroke-width="1.0005" d="M319.622,152.91c-2.735,0.059-5.404,3.088-5.404,3.088
		l0.236,32.374l-10.221,10.708h8.272l-0.069,18.563l-48.945,65.909l-7.235-2.501l-12.648,26.978c0,0,31.28,19.586,76.682,19.052
		c49.829-0.593,76.902-19.956,76.902-19.956l-13.068-26.63l-6.4,2.784L328.15,217.71l-0.068-19.117h8.271l-11.259-10.575
		l0.067-32.255C325.162,155.763,322.358,152.851,319.622,152.91z"/>
	<path clip-path="url(#SVGID_2_)" fill="none" stroke="#000000" stroke-width="5.0003" d="M336.688,230.416h-33.844
		c0,0-12.285-25.884-10.293-43.978c2.027-18.426,12.557-27.142,26.557-27.297c16.552-0.184,25.227,8.112,27.848,26.559
		c2.597,18.278-10.269,44.714-10.269,44.714L336.688,230.416z"/>
	<path clip-path="url(#SVGID_2_)" fill="#FFFFFF" d="M260.461,292.112c-0.554,0.736-4.611,8.852-4.611,8.852l7.008-1.476
		L260.461,292.112z M264.519,302.623l-7.376,2.397l8.851,3.504L264.519,302.623z M267.837,292.296l3.689,10.88l9.037-2.581
		l-2.398-5.165l-10.328-3.136V292.296z M273.555,307.049l1.29,4.426l11.989,2.952l-4.795-10.144L273.555,307.049z M286.832,297.828
		l4.243,10.145l9.037-3.504l-2.952-4.428l-10.327-2.213H286.832z M292.734,311.66l1.476,3.872l14.016,2.028l-5.901-9.221
		L292.734,311.66z M306.197,300.78l5.165,9.036l13.093-4.795l-1.475-3.504L306.197,300.78L306.197,300.78z M313.758,313.136
		l2.767,4.795l16.229-0.554l-6.087-9.037L313.758,313.136L313.758,313.136z M330.91,301.149l4.426,7.56l10.328-4.979l-2.768-4.058
		L330.91,301.149z M347.877,306.864l-10.328,5.165l2.767,4.426l13.832-2.213l-6.272-7.376L347.877,306.864z M351.197,298.934
		l5.347,6.641l8.669-6.824l-2.952-3.136L351.197,298.934z M367.056,302.438l-8.299,6.272l2.214,3.872l11.434-2.95L367.056,302.438
		L367.056,302.438z M378.491,289.344l2.027,2.952l-5.717,8.483l-5.901-7.563l9.591-3.871V289.344z M382.363,296.722l3.504,7.007
		l-7.008,2.398l-0.554-3.319L382.363,296.722z"/>
</g>
</svg>
