<?xml version="1.0" encoding="utf-8"?>
<!-- Generator: Adobe Illustrator 15.0.2, SVG Export Plug-In . SVG Version: 6.00 Build 0)  -->
<!DOCTYPE svg PUBLIC "-//W3C//DTD SVG 1.1//EN" "http://www.w3.org/Graphics/SVG/1.1/DTD/svg11.dtd">
<svg version="1.1" id="Layer_1" xmlns="http://www.w3.org/2000/svg" xmlns:xlink="http://www.w3.org/1999/xlink" x="0px" y="0px"
	 width="640px" height="480px" viewBox="0 0 640 480" enable-background="new 0 0 640 480" xml:space="preserve">
<g>
	<path fill="#F41408" d="M0,0h639.998v480H0V0z"/>
	<path fill="#21873B" d="M0,319.996h639.998V480H0V319.996z"/>
	<path d="M0,0h639.998v160.003H0V0z"/>
	<path fill="#F31509" d="M220.479,141.06c22.308-49.262,84.502-72.826,138.83-52.597c27.36,10.188,46.74,27.754,57.987,52.56
		l-196.81,0.037H220.479z M194.509,147.425c-23.45-1.577-48.376-6.456-52.443-7.798c-4.066-1.344-4.223-3.585-3.722-5.304
		c0.501-1.717,3.096-3.667,6.127-2.939c5.683,1.363,28.788,6.905,50.034,16.044L194.509,147.425z M319.139,61.514
		c-4.208-20.98-5.27-44.078-4.859-47.985c0.41-3.905,2.765-4.607,4.724-4.6c1.96,0.008,4.693,1.796,4.681,4.638
		C323.656,18.897,323.551,40.57,319.139,61.514L319.139,61.514z M330.679,62.001c-2.21-21.23-1.086-44.326-0.308-48.187
		c0.777-3.859,3.189-4.376,5.141-4.216c1.952,0.16,4.508,2.153,4.225,4.984C339.206,19.891,337.054,41.476,330.679,62.001z
		 M341.139,63.285c-0.275-21.321,2.94-44.256,4.066-48.046c1.126-3.789,3.576-4.123,5.506-3.817c1.93,0.305,4.295,2.482,3.757,5.283
		C353.458,21.955,349.355,43.306,341.139,63.285z M352.148,65.519c1.793-21.262,7.223-43.85,8.711-47.536
		c1.49-3.684,3.964-3.82,5.855-3.364c1.895,0.458,4.039,2.816,3.23,5.563C368.431,25.331,362.271,46.271,352.148,65.519z
		 M362.999,68.653c3.867-21.034,11.485-43.097,13.33-46.646c1.844-3.55,4.321-3.488,6.161-2.88c1.841,0.608,3.747,3.13,2.674,5.8
		c-2.01,5.007-10.2,25.37-22.16,43.726L362.999,68.653z M373.109,72.484c5.836-20.657,15.507-42.048,17.679-45.442
		s4.634-3.141,6.41-2.391c1.776,0.748,3.438,3.407,2.116,5.985C396.837,35.469,386.763,55.122,373.109,72.484L373.109,72.484z
		 M383.059,77.207c7.809-20.113,19.508-40.655,22-43.863c2.49-3.21,4.92-2.76,6.616-1.873c1.697,0.887,3.095,3.668,1.53,6.13
		C410.27,42.219,398.337,60.997,383.059,77.207L383.059,77.207z M392.469,82.675c9.712-19.42,23.342-38.958,26.131-41.958
		c2.791-3,5.166-2.36,6.771-1.343s2.732,3.898,0.936,6.228C422.939,49.97,409.247,67.734,392.469,82.675L392.469,82.675z
		 M401.329,88.875c11.544-18.577,27.001-36.963,30.069-39.73s5.375-1.943,6.875-0.802c1.503,1.14,2.346,4.1,0.332,6.278
		C434.831,58.706,419.48,75.318,401.329,88.875z M409.579,95.765c13.292-17.59,30.464-34.68,33.787-37.192
		c3.323-2.514,5.54-1.51,6.926-0.254s1.94,4.271-0.274,6.281C445.863,68.37,428.968,83.699,409.579,95.765L409.579,95.765z
		 M417.159,103.31c14.942-16.466,33.7-32.123,37.255-34.362c3.554-2.239,5.665-1.062,6.924,0.3c1.259,1.359,1.52,4.407-0.881,6.234
		C455.953,78.906,437.643,92.834,417.159,103.31z M423.679,111.045c16.41-15.274,36.55-29.451,40.298-31.413
		c3.747-1.961,5.742-0.629,6.871,0.823c1.129,1.451,1.108,4.508-1.453,6.146C464.591,89.672,445.056,102.16,423.679,111.045z
		 M429.579,119.433c17.791-13.944,39.192-26.508,43.112-28.172c3.921-1.664,5.783-0.18,6.771,1.353
		c0.987,1.534,0.679,4.578-2.03,6.011C472.357,101.312,451.717,112.239,429.579,119.433L429.579,119.433z M435.049,128.99
		c19.139-12.39,41.731-23.103,45.805-24.43c4.072-1.328,5.774,0.304,6.602,1.915c0.827,1.61,0.208,4.615-2.633,5.814
		C479.493,114.539,457.826,123.686,435.049,128.99z M439.229,138.221c20.24-10.856,43.764-19.771,47.946-20.778
		c4.183-1.006,5.726,0.753,6.396,2.422c0.672,1.67-0.229,4.614-3.173,5.588C484.876,127.28,462.424,134.708,439.229,138.221
		L439.229,138.221z M442.589,148.006c21.216-9.197,45.515-16.198,49.779-16.867c4.265-0.667,5.63,1.208,6.136,2.924
		c0.507,1.716-0.676,4.578-3.704,5.313C489.122,140.754,466.035,146.36,442.589,148.006L442.589,148.006z M307.849,61.912
		c-6.33-20.538-9.744-43.448-9.733-47.373c0.01-3.925,2.283-4.82,4.234-4.977c1.952-0.157,4.856,1.395,5.132,4.226
		c0.518,5.309,2.624,26.897,0.367,48.122V61.912z M296.749,63.213c-8.283-19.958-13.889-42.512-14.256-46.421
		c-0.367-3.91,1.81-4.982,3.739-5.293c1.93-0.311,4.972,1.005,5.52,3.803C292.778,20.55,296.955,41.889,296.749,63.213
		L296.749,63.213z M285.719,65.413c-10.189-19.219-17.97-41.235-18.72-45.103c-0.746-3.865,1.32-5.106,3.21-5.57
		c1.892-0.464,5.05,0.603,5.868,3.347c1.532,5.146,7.766,26.069,9.633,47.325L285.719,65.413z M275.319,68.359
		c-11.95-18.365-21.76-39.703-22.86-43.498c-1.105-3.794,0.836-5.189,2.677-5.797c1.841-0.607,5.088,0.212,6.16,2.883
		c2.009,5.009,10.179,25.376,14.03,46.412H275.319z M265.159,72.131c-13.65-17.369-25.44-37.867-26.9-41.563
		c-1.46-3.694,0.343-5.236,2.12-5.984c1.777-0.748,5.09-0.185,6.409,2.395c2.475,4.834,12.539,24.492,18.362,45.152H265.159z
		 M254.889,76.934c-15.313-16.183-29.09-35.636-30.91-39.196c-1.82-3.56-0.179-5.242,1.516-6.133c1.696-0.89,5.051-0.599,6.622,1.86
		C235.061,38.077,247.037,56.834,254.889,76.934L254.889,76.934z M245.539,82.306c-16.8-14.924-32.37-33.226-34.53-36.63
		c-2.153-3.404-0.677-5.21,0.927-6.229c1.605-1.02,4.975-0.991,6.774,1.336c3.372,4.364,17.089,22.113,26.826,41.524L245.539,82.306
		z M236.779,88.281c-18.139-13.569-35.382-30.6-37.847-33.824c-2.465-3.227-1.165-5.14,0.337-6.278
		c1.503-1.14,4.864-1.374,6.875,0.806C209.915,53.073,225.252,69.695,236.779,88.281z M228.269,95.23
		c-19.4-12.053-38.25-27.621-41.02-30.634c-2.772-3.014-1.665-5.024-0.281-6.28c1.385-1.258,4.709-1.762,6.926,0.247
		c4.158,3.767,21.068,19.083,34.377,36.663L228.269,95.23z M220.919,102.358c-20.447-10.533-40.668-24.614-43.709-27.406
		s-2.124-4.88-0.86-6.236c1.263-1.358,4.529-2.112,6.924-0.28C187.766,71.873,206.032,85.851,220.919,102.358L220.919,102.358z
		 M213.879,110.5c-21.398-8.843-42.92-21.237-46.223-23.772c-3.303-2.536-2.594-4.689-1.469-6.143
		c1.126-1.454,4.305-2.471,6.87-0.837C177.868,82.81,197.433,95.259,213.879,110.5L213.879,110.5z M207.569,119.323
		c-22.191-7.056-44.858-17.638-48.4-19.893s-3.05-4.457-2.074-5.997c0.977-1.54,4.041-2.812,6.759-1.396
		C168.95,94.693,189.673,105.49,207.569,119.323L207.569,119.323z M202.329,128.292c-22.785-5.275-46.383-14.025-50.128-15.992
		s-3.467-4.2-2.643-5.812c0.825-1.611,3.756-3.12,6.6-1.925C161.489,106.807,183.172,115.926,202.329,128.292L202.329,128.292z
		 M198.129,137.278c-23.192-3.523-47.516-10.449-51.43-12.126c-3.914-1.675-3.843-3.922-3.17-5.59
		c0.672-1.669,3.454-3.395,6.397-2.419C155.447,118.973,177.896,126.41,198.129,137.278z"/>
	<path fill="#F31509" d="M194.509,147.425c-23.45-1.577-48.376-6.456-52.443-7.798c-4.066-1.344-4.223-3.585-3.722-5.304
		c0.501-1.717,3.096-3.667,6.127-2.939c5.683,1.363,28.788,6.905,50.034,16.044L194.509,147.425z"/>
	<path d="M129.386,141.522h381.23v12.563h-381.23V141.522z"/>
</g>
</svg>
