<?xml version="1.0" encoding="utf-8"?>
<!-- Generator: Adobe Illustrator 15.0.2, SVG Export Plug-In . SVG Version: 6.00 Build 0)  -->
<!DOCTYPE svg PUBLIC "-//W3C//DTD SVG 1.1//EN" "http://www.w3.org/Graphics/SVG/1.1/DTD/svg11.dtd">
<svg version="1.1" id="Layer_1" xmlns="http://www.w3.org/2000/svg" xmlns:xlink="http://www.w3.org/1999/xlink" x="0px" y="0px"
	 width="640px" height="480px" viewBox="0 0 640 480" enable-background="new 0 0 640 480" xml:space="preserve">
<g>
	<path fill="#CE0000" d="M320,0h320v480H320V0z"/>
	<path fill="#FFFFFF" d="M0,0h320v480H0V0z"/>
	<path fill="#F1EEEE" d="M155.191,142.006c0,1.295-1.467,2.344-3.275,2.344c-1.808,0-3.275-1.049-3.275-2.344
		s1.468-2.343,3.275-2.343C153.724,139.663,155.191,140.711,155.191,142.006z"/>
	<path fill="#CC0000" d="M52.727,130.676v59.481h59.485c0,9.912,9.914,19.826,19.829,19.826v59.479h59.48v-59.479
		c9.915,0,19.829-9.914,19.829-19.826h59.485v-59.481h-59.485c0-9.912-9.915-19.826-19.829-19.826V51.37h-59.48v59.479
		c-9.915,0-19.829,9.914-19.829,19.826H52.727z"/>
	<path fill="#FFE600" d="M54.712,132.657v55.515h59.485c0,9.911,9.911,19.829,19.826,19.829v59.479h55.519v-59.479
		c9.915,0,19.826-9.918,19.826-19.829h59.485v-55.515h-59.485c0-9.911-9.911-19.829-19.826-19.829V53.35h-55.519v59.479
		c-9.915,0-19.826,9.918-19.826,19.829H54.712z"/>
	<path fill="#707070" d="M56.694,134.64v51.554h59.48c0,9.911,9.915,19.825,19.829,19.825v59.479h51.552v-59.479
		c9.914,0,19.829-9.914,19.829-19.825h59.48V134.64h-59.48c0-9.911-9.915-19.825-19.829-19.825V55.335h-51.552v59.479
		c-9.915,0-19.829,9.914-19.829,19.825H56.694z"/>
	<path fill="#A0A0A0" d="M58.678,136.622v47.584h59.481c0,9.911,9.915,19.829,19.829,19.829v59.479h47.586v-59.479
		c9.915,0,19.829-9.918,19.829-19.829h59.48v-47.584h-59.48c0-9.911-9.915-19.826-19.829-19.826V57.318h-47.586v59.479
		c-9.914,0-19.829,9.915-19.829,19.826H58.678z"/>
	<path fill="#D0D0D0" d="M138.48,111.881c3.483,3.484,0.659,11.957-6.31,18.927c-6.968,6.971-15.443,9.792-18.927,6.309
		c-3.485-3.485-0.66-11.958,6.308-18.928c6.969-6.97,15.442-9.793,18.928-6.308H138.48z"/>
	<path fill="#808080" d="M134.275,116.083c3.485,3.485,2.542,10.076-2.104,14.722s-11.238,5.587-14.722,2.103
		c-3.484-3.485-2.542-10.074,2.104-14.72C124.2,113.541,130.791,112.6,134.275,116.083z"/>
	<path fill="#D0D0D0" d="M116.745,126.598l1.402-1.402l5.608,2.804l-2.804-5.607l1.402-1.402l5.607,11.216L116.745,126.598z
		 M125.159,118.186l1.401-1.402l8.414,8.412l-1.402,1.402L125.159,118.186z"/>
	<path fill="#D0D0D0" d="M210.318,137.116c-3.485,3.484-11.959,0.658-18.927-6.31c-6.969-6.969-9.795-15.442-6.31-18.928
		c3.484-3.483,11.957-0.658,18.927,6.31C210.978,125.157,213.801,133.631,210.318,137.116z"/>
	<path fill="#808080" d="M206.113,132.913c-3.484,3.483-10.076,2.542-14.721-2.104s-5.587-11.238-2.102-14.722
		c3.485-3.484,10.074-2.542,14.722,2.104C208.658,122.837,209.599,129.429,206.113,132.913L206.113,132.913z"/>
	<path fill="#D0D0D0" d="M195.6,115.383l1.402,1.402l-2.804,5.607l5.608-2.804l1.402,1.402l-11.216,5.607L195.6,115.383z
		 M204.012,123.797l1.401,1.401l-8.412,8.412l-1.402-1.402L204.012,123.797z"/>
	<path fill="#D0D0D0" d="M185.079,208.954c-3.483-3.485-0.658-11.958,6.31-18.928c6.969-6.97,15.442-9.791,18.928-6.308
		c3.485,3.484,0.66,11.957-6.308,18.927c-6.968,6.971-15.443,9.793-18.927,6.309H185.079z"/>
	<path fill="#808080" d="M189.283,204.751c-3.484-3.484-2.542-10.076,2.104-14.722s11.238-5.587,14.722-2.102
		c3.485,3.484,2.542,10.074-2.104,14.72S192.769,208.235,189.283,204.751z"/>
	<path fill="#D0D0D0" d="M206.813,194.238l-1.401,1.402l-5.608-2.805l2.804,5.608l-1.402,1.401l-5.608-11.216L206.813,194.238z
		 M198.4,202.65l-1.402,1.401l-8.413-8.411l1.402-1.402L198.4,202.65z"/>
	<path fill="#D0D0D0" d="M113.246,183.712c3.485-3.484,11.959-0.658,18.928,6.31c6.968,6.969,9.794,15.442,6.31,18.928
		c-3.485,3.483-11.958,0.658-18.928-6.31C112.586,195.671,109.763,187.198,113.246,183.712z"/>
	<path fill="#808080" d="M117.45,187.916c3.485-3.484,10.076-2.541,14.722,2.103s5.587,11.238,2.103,14.722
		c-3.485,3.484-10.075,2.542-14.722-2.104C114.905,197.991,113.966,191.4,117.45,187.916z"/>
	<path fill="#D0D0D0" d="M127.964,205.446l-1.402-1.402l2.804-5.607l-5.607,2.804l-1.402-1.402l11.216-5.607L127.964,205.446z
		 M119.553,197.031l-1.402-1.401l8.412-8.412l1.402,1.402L119.553,197.031z"/>
	<path fill="none" stroke="#707070" d="M203.421,160.417c0,22.995-18.642,41.637-41.639,41.637s-41.639-18.642-41.639-41.637
		s18.643-41.636,41.639-41.636S203.421,137.422,203.421,160.417z"/>
	<path fill="none" stroke="#707070" d="M193.505,160.417c0,17.52-14.204,31.723-31.724,31.723
		c-17.521,0-31.725-14.203-31.725-31.723c0-17.521,14.203-31.724,31.725-31.724C179.302,128.694,193.505,142.897,193.505,160.417z"
		/>
	<path fill="#D0D0D0" d="M147.904,194.119c0,1.095-0.888,1.982-1.983,1.982c-1.096,0-1.983-0.888-1.983-1.982
		s0.888-1.982,1.982-1.982s1.982,0.888,1.982,1.982H147.904z M179.628,194.119c0,1.095-0.888,1.982-1.982,1.982
		s-1.982-0.888-1.982-1.982s0.888-1.982,1.982-1.982S179.628,193.025,179.628,194.119z M160.461,194.124v2.066h-2.645
		c-2.644,0-2.644,2.067,0,2.067h2.645v2.068c0.01,2.143,2.307,2.401,2.476,0.166l0.167-2.234h2.645c2.643,0,2.643-2.067,0-2.067
		h-2.645v-2.066C163.104,192.057,160.461,192.057,160.461,194.124z"/>
	<path fill="#D0D0D0" stroke="#707070" stroke-width="0.146" d="M151.908,164.837v1.172c0,0-0.622,0.897-4.585,1.172
		c-3.964,0.275-4.584,0-4.584,0c0.104,1.023,0.875,2.961,0.655,5.275c0.154,2.694-0.759,5.132-0.759,5.132
		c0.104,0.143-0.373,0.213-1.205,0.143c0.655-0.587,0.578-2.283,0.655-4.689c0.075-2.407-2.502-6.029-1.966-7.032
		C140.654,165.007,151.908,164.837,151.908,164.837z M167.639,160.585c3.855-0.178,10.325-0.139,10.325-0.139
		s1.525,3.06,1.463,4.749c-0.064,1.691-0.588,3.13-1.31,2.411c-0.719-0.72,0.334-0.585,0.464-2.411
		c0.128-1.825-1.232-3.717-1.232-3.717s-2.766,1.207-6.925,0.964C166.264,162.198,168.105,160.657,167.639,160.585z"/>
	<path fill="#D0D0D0" stroke="#707070" stroke-width="0.146" d="M168.949,163.607c3.856-0.178,6.387,0.412,6.387,0.412
		s1.525,3.062,1.462,4.751c-0.064,1.69-0.588,3.129-1.309,2.409c-0.72-0.719,0.336-0.583,0.464-2.409
		c0.127-1.825-1.233-3.718-1.233-3.718s-2.766,1.208-6.925,0.964c-4.159-0.243-2.973-0.492-3.44-0.564
		c-0.465-0.072-0.579,1.151-6.871,1.322c-6.294,0.171-9.502-1.322-9.502-1.322s-0.624,0.896-4.585,1.172
		c-3.965,0.275-4.585,0-4.585,0c0.103,1.023,0.875,2.961,0.655,5.275c0.153,2.693-0.759,5.132-0.759,5.132
		c0.104,0.142-0.373,0.212-1.207,0.142c0.655-0.586,0.58-2.282,0.655-4.688c0.075-2.407-2.5-6.03-1.966-7.032
		c0.537-1.002,3.389-0.063,3.932-0.585c0.539-0.521-2.542-4.19-1.966-7.619c0.575-3.429,3.843-2.462,7.86-2.344
		c4.016,0.119,12.913,1.158,15.063,0s1.22-5.446,3.275-8.204c1.31-1.758,3.274-2.343,5.239-2.343c1.311,0,3.275,4.687,3.275,5.858
		l-0.655,0.587h-0.656v0.585c-1.494,0.15-1.702-1.279-2.62-2.344c-0.393,1.651,1.311,7.034,1.311,10.548
		C170.25,162.522,169.026,163.813,168.949,163.607z"/>
	<path fill="#D0D0D0" stroke="#707070" stroke-width="0.146" d="M156.336,158.523c0.054,1.167-5.061,3.787-5.479,4.823
		c-0.416,1.038,1.301,1.611,0.769,2.203c-0.531,0.592-0.967,0.372-1.076,0.482c-0.108,0.109-1.925-4.062-1.925-4.062
		s4.799-2.165,4.617-3.099c-0.183-0.935-3.542-1.502-4.155-3.855s-0.272-6.898-0.769-7.85c-0.497-0.949-6.387-1.855-6.393-3.293
		c-0.005-1.438,6.054-5.382,6.709-5.968s1.311,0.586,0.655,1.172c-0.655,0.586-5.398,4.21-5.398,4.796
		c0,0.585,3.93,1.172,5.239,1.172c1.311,0,1.966-0.587,1.966-1.172c0.007-0.507-1.311-0.586-1.311-1.758s0.655-1.759,1.965-1.759
		c0.655,0,1.913,0.751,1.964,1.759c0.051,1.007-1.166,1.093-1.311,1.758c-0.144,0.665,1.311,1.172,2.622,1.172
		c1.309,0,5.78,3.408,6.436,3.995c0.655,0.585,1.311,0.585,0.655,1.172c-0.655,0.585-0.271,1.278-0.927,0.693
		c-0.557-0.565-0.655-1.172-0.655-1.172c-0.056-0.533-4.855-2.93-5.511-2.345c-0.655,0.587,0,7.619,0,8.204
		C155.025,156.765,156.391,156.76,156.336,158.523z"/>
	<path fill="#A7A7A7" d="M147.992,144.935h7.86v8.204h-7.86V144.935z"/>
	<path fill="#808080" d="M147.067,134.924l26.374,39.589c0.218,0.326,0.269,0.658,0.114,0.741l-0.001,0.001
		c-0.155,0.083-0.457-0.115-0.675-0.442l-26.374-39.589c-0.218-0.327-0.269-0.659-0.113-0.742h0.001
		C146.547,134.399,146.849,134.597,147.067,134.924z"/>
	<path fill="#D0D0D0" stroke="#707070" d="M149.951,138.49c0.008,0.647-0.571,1.179-1.294,1.186
		c-0.724,0.008-1.317-0.511-1.325-1.157c0-0.01,0-0.019,0-0.028c0.008-0.647,0.602-1.166,1.325-1.158
		C149.368,137.34,149.942,137.854,149.951,138.49z"/>
	<path fill="#808080" d="M172.866,149.156c0,0.485-3.041,1.055-6.55,1.055s-6.55-0.569-6.55-1.055c0-0.486,3.041,0.703,6.55,0.703
		S172.866,148.669,172.866,149.156z"/>
	<path fill="#A7A7A7" d="M148.647,153.136h6.549v2.344h-6.549V153.136z"/>
	<path fill="#808080" d="M169.938,147.361c-0.635,1.188-1.237,2.038-1.345,1.896c-0.108-0.143,0.318-1.222,0.953-2.411
		c0.634-1.189,1.237-2.038,1.346-1.896S170.572,146.171,169.938,147.361z M171.592,150.439c-0.723,0.635-1.327,1.046-1.346,0.918
		c-0.021-0.128,0.55-0.745,1.272-1.38c0.724-0.635,1.327-1.045,1.346-0.917C172.885,149.188,172.316,149.804,171.592,150.439z"/>
	<path fill="#808080" d="M170.762,148.954c0.532,0.969,0.884,1.79,0.785,1.832c-0.099,0.043-0.612-0.709-1.146-1.679
		c-0.534-0.971-0.884-1.791-0.785-1.834c0.099-0.043,0.612,0.71,1.146,1.679V148.954z M170.25,154.02
		c0,0.16-2.052,0.293-4.584,0.293s-4.583-0.132-4.583-0.293c0-0.163,2.053-0.294,4.583-0.294
		C168.198,153.726,170.25,153.857,170.25,154.02z M155.191,153.432c0,0.163-1.467,0.294-3.275,0.294
		c-1.808,0-3.275-0.131-3.275-0.294c0-0.16,1.468-0.293,3.275-0.293C153.724,153.139,155.191,153.27,155.191,153.432z"/>
	<path fill="#D0D0D0" stroke="#808080" stroke-width="0.078" d="M140.787,173.806c0,0,1.08,2.626,5.685,2.663
		c4.605,0.035,6.189-0.788,4.327-2.179s-5.328-0.959-4.881,0.241c0.448,1.2-1.299,1.601-1.71,0.756
		c-0.411-0.842-2.061-3.341,0.906-3.509c2.965-0.168,9.246-1.077,10.816,0.665c1.569,1.742-1.775,3.322,0.754,3.693
		c2.529,0.367,2.889-0.424,7.239-0.662c4.351-0.24,6.012,0.808,7.504,0.66c1.49-0.144,1.279-2.708,0.099-3.357
		c-1.178-0.65-3.443-0.771-4.023-1.483c-0.581-0.713-2.16-0.133-2.015-0.938c0.148-0.804,2.241,0.555,2.266,0.145
		c0-0.014,0.345-0.286,0.415-0.355c-0.264-0.061-0.414,0.037-0.612,0.143c0.216-0.173,0.202-0.251,0.273-0.392
		c-0.037-0.053-0.297,0.198-0.34,0.146c-0.044-0.053,0.304-0.41,0.144-0.281c-0.053,0.039-0.467,0.243-0.472,0.103
		c0.006-0.058,0.217-0.204,0.144-0.284c-0.061-0.067-0.375,0.076-0.415,0.093c0.181-0.24,0.167-0.237-0.007-0.416
		c-0.15-0.178-0.261-0.174-0.507,0.027c0.103-0.288,0.13-0.351-0.118-0.459c-0.203-0.112-0.213-0.216-0.465,0.302
		c0.096-0.555-0.163-0.578-0.056-0.841c0.064-0.239,0.403-0.342,0.959-0.287c1.081,0.008,1.66,1.304,2.013,1.3
		c0.352-0.004,0.749-1.372,2.264-0.815c1.515,0.555,1.703,0.666,2.465,0.997c0.762,0.329-0.536,0.831-0.101,1.482
		c0.437,0.65,3.412,2.819,2.566,5.083c-0.846,2.262-3.024,2.622-3.22,3.601c-0.195,0.979,6.896,0.578,8.704,0.907
		c1.807,0.33,2.946,1.679,3.019,1.906c0.073,0.227-3.17,0.212-3.17,0.212s-1.664-0.859-5.635-0.938
		c-3.969-0.079-5.482-1.679-6.967-1.881c-1.487-0.201-4.653,0.336-6.423,0.256c-1.771-0.078-3.564-0.357-4.711-0.513
		c-1.146-0.157-6.852,2.573-6.832,3.212c-1.189-0.047-3.989-0.198-3.874-0.122c0.115,0.075,0.502-1.238,2.686-1.471
		c2.182-0.23,4.307-1.275,4.236-1.963s0.422-3.044,0.604-4.054c0.183-1.011,0.999-1.5,0.804-2.027
		c-0.195-0.529-2.689-1.074-5.082-1.06c-2.394,0.016-5.047,0.15-5.434,0.726c-0.384,0.577-0.095,2.251,0.402,2.058
		c0.497-0.192-0.12-1.287,0.403-1.513c0.522-0.224,1.862-0.425,3.118-0.454c1.259-0.028,3.444,1.071,3.421,1.423
		s0.704,1.521-0.3,1.966c-1.007,0.446-3.063,0.645-5.033,0.544c-1.969-0.098-3.961-0.775-4.679-1.208
		C141.227,175.217,140.787,173.897,140.787,173.806L140.787,173.806z"/>
	<path d="M169.945,169.921c0.016,0.29-0.206,0.538-0.496,0.554c-0.29,0.017-0.538-0.206-0.554-0.496
		c-0.001-0.019-0.001-0.038,0-0.058c0.016-0.29,0.264-0.512,0.554-0.496C169.717,169.44,169.931,169.654,169.945,169.921z"/>
	<path fill="#D0D0D0" d="M194.655,162.312l2.55,0.55l4.26-2.916l-0.329,1.532l-2.221,1.481c-0.412,0.271-0.822,0.521-1.226,0.747
		c0.252,0.353,0.534,0.774,0.839,1.268l1.375,2.222l-0.317,1.466l-2.654-4.54l-2.55-0.552L194.655,162.312z M190.307,143.56
		l4.934-2.271l-1.34-2.909l0.66-0.306l3.225,7.002l-0.66,0.304l-1.347-2.922l-4.933,2.271L190.307,143.56z M182.665,134.273
		l4.542-4.16l0.892,0.976l-0.116,7.03l3.564-3.264l0.835,0.909l-4.542,4.159l-0.892-0.975l0.12-7.034l-3.57,3.268l-0.831-0.909
		H182.665z M162.811,126.254l0.745-6.113l1.277,0.155l-0.657,5.392l4.754,0.579l-0.088,0.723L162.811,126.254z M153.043,127.13
		l-1.103-6.059l1.268-0.23l0.972,5.343l4.711-0.857l0.131,0.717L153.043,127.13z M135.008,136.031l-0.452-0.564l3.213-2.578
		l1.429,1.784c-0.289,0.635-0.65,1.234-1.076,1.787c-0.425,0.544-0.915,1.039-1.466,1.482c-0.745,0.596-1.505,1.039-2.276,1.326
		c-0.771,0.283-1.465,0.358-2.082,0.224c-0.589-0.117-1.118-0.439-1.493-0.909c-0.377-0.478-0.584-1.068-0.586-1.677
		c-0.015-0.655,0.19-1.314,0.612-1.975c0.422-0.662,1.01-1.295,1.768-1.9c0.496-0.406,1.04-0.748,1.621-1.019
		c0.536-0.244,1.01-0.368,1.423-0.369c0.412,0,0.815,0.108,1.205,0.327l-0.78,0.883c-0.274-0.145-0.577-0.226-0.887-0.236
		c-0.281-0.005-0.612,0.076-0.993,0.244c-0.413,0.185-0.799,0.424-1.149,0.71c-0.458,0.368-0.818,0.73-1.082,1.089
		c-0.266,0.354-0.444,0.688-0.535,0.999c-0.088,0.307-0.12,0.592-0.096,0.856c0.044,0.453,0.208,0.853,0.486,1.199
		c0.342,0.429,0.745,0.695,1.207,0.8c0.467,0.099,0.979,0.041,1.535-0.177c0.558-0.216,1.087-0.525,1.587-0.927
		c0.435-0.347,0.818-0.74,1.147-1.175c0.33-0.439,0.552-0.806,0.672-1.097l-0.72-0.896L135.008,136.031z M134.8,180.312
		l-5.021,3.565l-3.8-5.35l0.593-0.42l3.053,4.3l1.555-1.103l-2.643-3.724l0.592-0.42l2.644,3.722l2.281-1.62L134.8,180.312z
		 M127.403,172.303c0.715-0.201,1.192-0.662,1.434-1.385c0.238-0.724,0.229-1.542-0.032-2.458c-0.262-0.933-0.686-1.639-1.269-2.123
		c-0.587-0.486-1.26-0.623-2.024-0.407c-0.454,0.117-0.858,0.379-1.151,0.744c-0.288,0.358-0.462,0.814-0.518,1.367
		c-0.059,0.552-0.003,1.135,0.171,1.752c0.247,0.876,0.652,1.578,1.215,2.104C125.786,172.42,126.511,172.556,127.403,172.303z
		 M127.752,173.582c-0.983,0.278-1.871,0.08-2.662-0.6c-0.793-0.677-1.376-1.674-1.749-2.993c-0.243-0.863-0.334-1.68-0.267-2.447
		s0.281-1.398,0.647-1.893c0.35-0.488,0.856-0.84,1.436-0.997c0.6-0.17,1.192-0.13,1.774,0.118c0.582,0.249,1.097,0.69,1.54,1.323
		c0.441,0.635,0.775,1.357,1.005,2.169c0.25,0.883,0.336,1.708,0.262,2.479c-0.074,0.769-0.292,1.398-0.659,1.888
		s-0.809,0.808-1.327,0.954L127.752,173.582z M128.267,161.081l-6.158-0.14l0.098-4.312c0.021-0.866,0.091-1.523,0.214-1.973
		c0.119-0.447,0.32-0.804,0.607-1.067c0.249-0.248,0.586-0.387,0.937-0.384c0.437,0.01,0.799,0.241,1.09,0.695
		c0.288,0.454,0.464,1.147,0.524,2.081c0.112-0.335,0.219-0.593,0.325-0.767c0.225-0.371,0.507-0.723,0.842-1.051l1.714-1.653
		l-0.037,1.618l-1.311,1.258c-0.377,0.368-0.667,0.672-0.868,0.91c-0.201,0.238-0.344,0.454-0.427,0.646
		c-0.083,0.188-0.141,0.384-0.176,0.58c-0.024,0.147-0.038,0.384-0.046,0.715l-0.034,1.493l2.734,0.063L128.267,161.081z
		 M124.855,159.717l0.063-2.767c0.021-0.462-0.006-0.926-0.083-1.382c-0.07-0.334-0.188-0.588-0.352-0.764
		c-0.138-0.163-0.337-0.262-0.55-0.271c-0.291-0.007-0.534,0.156-0.729,0.489c-0.195,0.325-0.3,0.849-0.316,1.569l-0.07,3.079
		L124.855,159.717z M141.965,132.626l0.042-7.202l1.19-0.713l6.578,3.24l-1.258,0.751l-1.931-1.017l-3.49,2.09l0.042,2.148
		L141.965,132.626z M143.074,129.015l2.83-1.693l-1.747-0.943c-0.429-0.224-0.845-0.471-1.247-0.74
		c0.096,0.401,0.147,0.828,0.154,1.279L143.074,129.015z M172.818,127.085l6.646-2.778l1.119,0.815l-0.407,7.321l-1.185-0.863
		l0.181-2.174l-3.287-2.395l-1.961,0.879L172.818,127.085z M176.575,126.694l2.665,1.942l0.184-1.978
		c0.039-0.483,0.104-0.963,0.195-1.438c-0.347,0.254-0.722,0.47-1.116,0.643l-1.926,0.831H176.575z M193.04,149.619l5.99-1.435
		l1.004,4.195c0.201,0.842,0.301,1.496,0.296,1.961c0,0.464-0.107,0.86-0.316,1.188c-0.178,0.304-0.469,0.523-0.81,0.609
		c-0.423,0.103-0.834-0.03-1.23-0.395c-0.395-0.364-0.74-0.991-1.036-1.88c-0.01,0.278-0.05,0.556-0.118,0.826
		c-0.125,0.416-0.307,0.826-0.548,1.229l-1.236,2.035l-0.377-1.573l0.946-1.551c0.271-0.451,0.475-0.818,0.61-1.1
		c0.133-0.283,0.216-0.527,0.246-0.735c0.032-0.203,0.04-0.404,0.024-0.606c-0.032-0.236-0.079-0.472-0.139-0.703l-0.347-1.451
		l-2.66,0.636L193.04,149.619z M196.685,150.07l0.644,2.69c0.138,0.572,0.281,1.011,0.432,1.315
		c0.153,0.304,0.333,0.521,0.536,0.649c0.208,0.128,0.406,0.17,0.6,0.123c0.283-0.068,0.476-0.288,0.582-0.657
		c0.105-0.367,0.074-0.899-0.094-1.602l-0.717-2.992L196.685,150.07z"/>
</g>
</svg>
