<?xml version="1.0" encoding="utf-8"?>
<!-- Generator: Adobe Illustrator 15.0.2, SVG Export Plug-In . SVG Version: 6.00 Build 0)  -->
<!DOCTYPE svg PUBLIC "-//W3C//DTD SVG 1.1//EN" "http://www.w3.org/Graphics/SVG/1.1/DTD/svg11.dtd">
<svg version="1.1" id="Layer_1" xmlns="http://www.w3.org/2000/svg" xmlns:xlink="http://www.w3.org/1999/xlink" x="0px" y="0px"
	 width="640px" height="480px" viewBox="0 0 640 480" enable-background="new 0 0 640 480" xml:space="preserve">
<g>
	<defs>
		<rect id="SVGID_1_" y="0" width="640.003" height="480"/>
	</defs>
	<clipPath id="SVGID_2_">
		<use xlink:href="#SVGID_1_"  overflow="visible"/>
	</clipPath>
	<path clip-path="url(#SVGID_2_)" fill="#009A00" d="M0,0h720v150H0V0z"/>
	<path clip-path="url(#SVGID_2_)" fill="#FFFFFF" d="M0,149.962h720v15.018H0V149.962z"/>
	<path clip-path="url(#SVGID_2_)" d="M0,164.981h720v150H0V164.981z"/>
	<path clip-path="url(#SVGID_2_)" fill="#FFFFFF" d="M0,314.981h720v15.018H0V314.981z"/>
	<path clip-path="url(#SVGID_2_)" fill="#FFCA00" d="M0,330h720v150H0V330z"/>
	<path clip-path="url(#SVGID_2_)" fill="#FF0000" d="M0,0v480l315.019-240L0,0z"/>
	<path clip-path="url(#SVGID_2_)" fill="#FFCA00" d="M186.124,312.156l-48.028-35.161l-47.965,35.17l18.601-56.541l-48.272-34.749
		l59.525,0.22l18.127-56.647l18.185,56.682l59.478-0.272l-48.287,34.81L186.124,312.156z"/>
	
		<path clip-path="url(#SVGID_2_)" fill="#FFFFFF" stroke="#000000" stroke-width="1.1027" stroke-linecap="round" stroke-linejoin="round" d="
		M96.41,272.723h34.598c2.784,3.123,8.995,4.397,14.91-0.037c10.844-5.938,31.823,0.037,31.823,0.037l4.132-4.389l-10.07-33.049
		l-3.615-3.873c0,0-7.745-4.647-22.462-3.099c-14.717,1.55-19.881-0.516-19.881-0.516s-12.91,1.549-16.523,3.356
		c-0.397,0.321-4.132,4.131-4.132,4.131L96.41,272.723z"/>
	
		<path clip-path="url(#SVGID_2_)" fill="none" stroke="#000000" stroke-width="1.1027" stroke-linecap="round" stroke-linejoin="round" d="
		M103.382,264.205c0,0,33.048-4.132,42.602,8.52c-5.395,3.692-10.146,3.997-15.234,0.259c0.812-1.35,11.878-12.909,40.021-9.037"/>
	<path clip-path="url(#SVGID_2_)" fill="none" stroke="#000000" stroke-width="0.8822" d="M138.752,231.156l-0.256,36.406
		 M168.187,231.669l6.197,28.918"/>
	
		<path clip-path="url(#SVGID_2_)" fill="none" stroke="#000000" stroke-width="1.1027" stroke-linecap="round" stroke-linejoin="round" d="
		M109.66,231.215l-3.438,14.912"/>
	<path clip-path="url(#SVGID_2_)" stroke="#000000" stroke-width="1.1027" stroke-linecap="round" stroke-linejoin="round" d="
		M73.938,276.694l8.138,9.539c0.954,0.57,1.804,0.534,2.652,0l12.058-14.47l5.064-6.271c0.785-0.928,1.035-1.965,0.966-2.894
		l9.682-8.604c0.792,0.055,1.264,0.144,2.056,0.197c-0.936-0.242-1.622-0.697-0.886-1.723l2.17-1.688l1.688,2.169
		c0,0-2.41,3.135-2.652,3.135h-2.653l-5.064,4.584l2.214,1.956l3.333,9.137l4.101-2.895l-2.653-9.405l5.788-6.27l-2.171-3.377
		l1.448-1.93c0,0,20.033,12.612,27.75,9.236c0.209,0.075,0.467-8.995,0.467-8.995s-20.74-2.171-21.223-6.271
		c-0.482-4.1,4.583-4.582,4.583-4.582l-2.171-3.135l0.483-1.688l3.618,4.582l8.2-6.993l48.234,54.985
		c2.633-1.067,3.195-1.711,3.376-4.34c-0.068-0.066-47.269-54.264-47.269-54.264l3.617-3.858c0.712-0.804,0.963-1.146,0.964-2.413
		l5.547-4.822c1.669,0.572,2.732,1.572,3.618,2.894l15.249-12.925c0.402,0.403,1.622,0.805,2.452,0.353l25.208-24.202
		l-27.474,19.409l-0.968-0.724c0-0.805,0.998-1.004,0-2.412c-1.067-1.281-2.653,1.205-2.893,1.205c-0.242,0-3.978-1.32-4.796-2.992
		l-0.269,4.439l-6.994,6.512l-5.306-0.241l-7.718,7.477l-0.964,2.894l1.206,2.412c0,0-4.101,3.618-4.101,3.376
		c0-0.24-0.829-1.065-0.865-1.172l3.518-3.168l0.482-2.172l-1.173-1.832c-0.356,0.258-4.856,4.968-5.097,4.485
		c-0.405-0.447-13.026-14.709-13.026-14.709l0.722-2.653l-8.199-8.924c-2.989-1.031-7.717-1.206-8.682,5.306
		c-0.751,1.529-6.994,0.241-6.994,0.241l-3.377,0.724L79.898,225.94l10.611,12.781l21.705-27.493l0.646-7.788l4.553,5.092
		c1.519,0.195,2.966,0.213,4.342-0.481l12.86,14.353l-2.141,2.09c0.724,0.805,1.222,1.317,1.945,2.122
		c0.724-0.482,1.414-1.062,2.137-1.544c0.242,0.322,0.643,0.934,0.885,1.255c-1.078,0.586-1.834,1.367-2.911,1.954
		c-1.725-1.125-3.389-2.524-3.263-4.752l-7.235,6.029l-0.241,1.207l-21.464,17.846l-1.93,0.242l-0.482,5.546l13.987-11.575v-1.689
		l1.448,1.206l10.852-8.682c0,0,0.724,0.965,0.483,0.965c-0.241,0-9.647,8.682-9.647,8.682l-0.24,0.966l-1.688,1.446l-0.966-0.724
		l-13.022,11.576h-1.93l-7.235,7.235c-1.866,0.162-3.483,0.36-5.064,1.446l-12.961,11.443H73.938z"/>
</g>
</svg>
