<?xml version="1.0" encoding="utf-8"?>
<!-- Generator: Adobe Illustrator 15.0.2, SVG Export Plug-In . SVG Version: 6.00 Build 0)  -->
<!DOCTYPE svg PUBLIC "-//W3C//DTD SVG 1.1//EN" "http://www.w3.org/Graphics/SVG/1.1/DTD/svg11.dtd">
<svg version="1.1" id="Layer_1" xmlns="http://www.w3.org/2000/svg" xmlns:xlink="http://www.w3.org/1999/xlink" x="0px" y="0px"
	 width="640px" height="480px" viewBox="0 0 640 480" enable-background="new 0 0 640 480" xml:space="preserve">
<g>
	<defs>
		<rect id="SVGID_1_" y="0" width="640.003" height="480"/>
	</defs>
	<clipPath id="SVGID_2_">
		<use xlink:href="#SVGID_1_"  overflow="visible"/>
	</clipPath>
	<path clip-path="url(#SVGID_2_)" fill="#002170" d="M-80,0h960v480H-80V0z"/>
	<path clip-path="url(#SVGID_2_)" fill="#FFB20D" d="M-80,219.478h960v41.047H-80V219.478z"/>
	<path clip-path="url(#SVGID_2_)" fill="#FFFFFF" d="M202.947,410.615l-30.859-30.91l-9.941,42.527l-11.257-42.201l-29.883,31.854
		l11.35-42.178l-41.803,12.654l30.911-30.85l-42.529-9.95l42.202-11.257l-31.863-29.883l42.177,11.351l-12.646-41.804l30.85,30.91
		l9.951-42.528l11.257,42.201l29.875-31.854l-11.342,42.177l41.803-12.654l-30.918,30.851l42.528,9.95l-42.202,11.258l31.863,29.882
		l-42.177-11.351L202.947,410.615z"/>
</g>
</svg>
