<?xml version="1.0" encoding="utf-8"?>
<!-- Generator: Adobe Illustrator 15.0.2, SVG Export Plug-In . SVG Version: 6.00 Build 0)  -->
<!DOCTYPE svg PUBLIC "-//W3C//DTD SVG 1.1//EN" "http://www.w3.org/Graphics/SVG/1.1/DTD/svg11.dtd">
<svg version="1.1" id="Layer_1" xmlns="http://www.w3.org/2000/svg" xmlns:xlink="http://www.w3.org/1999/xlink" x="0px" y="0px"
	 width="640px" height="480px" viewBox="0 0 640 480" enable-background="new 0 0 640 480" xml:space="preserve">
<g>
	<defs>
		<rect id="SVGID_1_" y="0" width="640.003" height="480"/>
	</defs>
	<clipPath id="SVGID_2_">
		<use xlink:href="#SVGID_1_"  overflow="visible"/>
	</clipPath>
	<path clip-path="url(#SVGID_2_)" fill="#0C590B" d="M-40,0h720v480H-40V0z"/>
	<path clip-path="url(#SVGID_2_)" fill="#FFFFFF" d="M-40,0h180.488v480H-40V0z"/>
	<path clip-path="url(#SVGID_2_)" fill="#FFFFFF" d="M427.533,211.313l-29.217-6.146l-15.365,25.6l-3.183-29.688l-29.096-6.703
		l27.25-12.2l-2.616-29.741l20.024,22.146l27.478-11.68l-14.873,25.889L427.533,211.313z"/>
	<path clip-path="url(#SVGID_2_)" fill="#FFFFFF" d="M438.552,286.955c-25.936,57.15-94.01,82.113-151.321,55.565
		c-57.321-26.556-82.291-94.621-55.735-151.941c13.544-29.234,35.708-49.325,66.995-60.29c-3.599,3.043-7.159,6.199-11.063,10.226
		c-40.415,41.711-39.365,108.368,2.344,148.78c41.71,40.416,108.367,39.367,148.779-2.344L438.552,286.955z"/>
</g>
</svg>
