<?xml version="1.0" encoding="utf-8"?>
<!-- Generator: Adobe Illustrator 15.0.2, SVG Export Plug-In . SVG Version: 6.00 Build 0)  -->
<!DOCTYPE svg PUBLIC "-//W3C//DTD SVG 1.1//EN" "http://www.w3.org/Graphics/SVG/1.1/DTD/svg11.dtd">
<svg version="1.1" id="Layer_1" xmlns="http://www.w3.org/2000/svg" xmlns:xlink="http://www.w3.org/1999/xlink" x="0px" y="0px"
	 width="640px" height="480px" viewBox="0 0 640 480" enable-background="new 0 0 640 480" xml:space="preserve">
<g>
	<path fill="#0038A8" d="M0,0h640v240H0V0z"/>
	<path fill="#CE1126" d="M0,240h640v240H0V240z"/>
	<path fill="#FFFFFF" d="M415.691,240L0,480V0"/>
	<circle fill="#FCD116" cx="149.333" cy="240" r="48"/>
	<path fill="#FCD116" d="M48,240l6.282,6.282L149.333,240l-95.051-6.283L48,240z"/>
	<path id="a" fill="#FCD116" d="M58.632,251.902l5.13,5.131L149.333,240L58.632,251.902z"/>
	<path id="a_1_" fill="#FCD116" d="M58.632,228.098l5.13-5.13L149.333,240L58.632,228.098z"/>
	<path fill="#FCD116" d="M77.68,168.347v8.885L149.333,240l-62.769-71.654L77.68,168.347z"/>
	<path id="a_2_" fill="#FCD116" d="M76.782,184.281v7.255L149.333,240L76.782,184.281z"/>
	<path id="a_3_" fill="#FCD116" d="M93.613,167.448h7.255L149.333,240L93.613,167.448z"/>
	<path fill="#FCD116" d="M149.333,138.666l-6.283,6.283L149.333,240l6.283-95.051L149.333,138.666z"/>
	<path id="a_4_" fill="#FCD116" d="M137.431,149.299l-5.13,5.13L149.333,240L137.431,149.299z"/>
	<path id="a_5_" fill="#FCD116" d="M161.235,149.299l5.13,5.13L149.333,240L161.235,149.299z"/>
	<path fill="#FCD116" d="M220.986,168.347l-8.885-0.001L149.333,240l71.653-62.769V168.347z"/>
	<path id="a_6_" fill="#FCD116" d="M205.053,167.448h-7.255L149.333,240L205.053,167.448z"/>
	<path id="a_7_" fill="#FCD116" d="M221.884,184.281v7.255L149.333,240L221.884,184.281z"/>
	<path fill="#FCD116" d="M250.666,240l-6.282-6.283L149.333,240l95.051,6.282L250.666,240z"/>
	<path id="a_8_" fill="#FCD116" d="M240.034,228.098l-5.13-5.13L149.333,240L240.034,228.098z"/>
	<path id="a_9_" fill="#FCD116" d="M240.034,251.902l-5.13,5.131L149.333,240L240.034,251.902z"/>
	<path fill="#FCD116" d="M220.986,311.653v-8.885L149.333,240l62.769,71.653L220.986,311.653z"/>
	<path id="a_10_" fill="#FCD116" d="M221.884,295.719v-7.255L149.333,240L221.884,295.719z"/>
	<path id="a_11_" fill="#FCD116" d="M205.053,312.551h-7.255L149.333,240L205.053,312.551z"/>
	<path fill="#FCD116" d="M149.333,341.333l6.283-6.283L149.333,240l-6.283,95.05L149.333,341.333z"/>
	<path id="a_12_" fill="#FCD116" d="M161.235,330.701l5.13-5.131L149.333,240L161.235,330.701z"/>
	<path id="a_13_" fill="#FCD116" d="M137.431,330.701l-5.13-5.131L149.333,240L137.431,330.701z"/>
	<path fill="#FCD116" d="M77.68,311.653l8.885,0.001L149.333,240L77.68,302.768V311.653z"/>
	<path id="a_14_" fill="#FCD116" d="M93.613,312.551h7.255L149.333,240L93.613,312.551z"/>
	<path id="a_15_" fill="#FCD116" d="M76.782,295.719v-7.255L149.333,240L76.782,295.719z"/>
	<path id="e" fill="#FCD116" d="M367.69,240l-18.038,6.271l-0.389,19.094l-11.536-15.222l-18.277,5.53L330.356,240H367.69z"/>
	<path id="e_1_" fill="#FCD116" d="M367.69,240l-18.038-6.272l-0.389-19.093l-11.536,15.221l-18.277-5.53L330.356,240H367.69z"/>
	<path id="e_2_" fill="#FCD116" d="M23.994,438.433l3.587-18.757l-16.34-9.884l18.95-2.38l4.349-18.594l8.122,17.282L23.994,438.433
		z"/>
	<path id="e_3_" fill="#FCD116" d="M23.994,438.433l14.45-12.485l16.73,9.21l-7.414-17.602l13.928-13.063l-19.028,1.608
		L23.994,438.433z"/>
	<path id="e_4_" fill="#FCD116" d="M23.994,41.567l14.45,12.485l16.73-9.21l-7.414,17.602l13.928,13.063l-19.028-1.608
		L23.994,41.567z"/>
	<path id="e_5_" fill="#FCD116" d="M23.994,41.567l3.587,18.757l-16.34,9.884l18.95,2.38l4.349,18.594l8.122-17.282L23.994,41.567z"
		/>
</g>
</svg>
