<?xml version="1.0" encoding="utf-8"?>
<!-- Generator: Adobe Illustrator 15.0.2, SVG Export Plug-In . SVG Version: 6.00 Build 0)  -->
<!DOCTYPE svg PUBLIC "-//W3C//DTD SVG 1.1//EN" "http://www.w3.org/Graphics/SVG/1.1/DTD/svg11.dtd">
<svg version="1.1" id="Layer_1" xmlns="http://www.w3.org/2000/svg" xmlns:xlink="http://www.w3.org/1999/xlink" x="0px" y="0px"
	 width="640px" height="480px" viewBox="0 0 640 480" enable-background="new 0 0 640 480" xml:space="preserve">
<g>
	<path d="M1.644,0l-0.5,479.984H641.13L1.64,0H1.644z"/>
	<path fill="#FF0000" d="M640.63,479.984l0.5-479.984H1.145l639.49,479.984H640.63z"/>
	<path fill="#FFCC00" stroke="#FFCC00" stroke-width="1.065" d="M396.285,119.445l-8.524-0.442
		c-2.619-6.149-10.019-8.456-14.569-5.868c-4.129,0.354-25.75-0.325-25.75-0.325l15.806,6.901
		c3.907,10.528,17.492,13.006,17.492,13.006c-1.205,19.408-19.715-2.506-35.254,8.554c-11.1,6.636-11.23,14.562-17.229,27.364
		c-1.864,3.561-9.679,12.743-9.679,12.743l13.053-1.106l-4.173,5.53l15.539-2.212c0,0-2.087,1.736-3.33,3.052
		c2.302,0.449,17.759-3.605,17.759-3.605l-1.109,4.978c7.925-3.163,17.759-6.371,17.759-6.371s3.485,2.898,6.66,4.159l2.22-8.849
		l8.879,2.213l2.221-8.849c13.319,17.696,17.759,35.392,42.178,39.815l-2.22-8.848c6.793,2.897,19.401,9.047,19.401,9.047
		l1.909-4.048c10.589,7.564,19.38,7.432,25.307,8.272c0,0-4.417-11.016-4.439-11.06c0.288,0.11,4.417,2.233,4.439,2.212
		l-6.659-17.695l6.659,2.212l-8.879-13.272l3.329-2.212l-1.109-6.636c13.319,4.424,31.078,11.061,33.298,26.544
		c2.22,24.331-24.419,30.967-42.178,28.755c13.319,11.06,37.738,6.636,48.838-4.424c4.439-4.424,6.659-11.06,8.88-17.695
		c2.22,6.636,6.659,15.483,6.659,24.331c-2.22,19.907-28.858,26.543-46.618,28.755c19.979,11.061,55.498-2.212,57.718-30.967
		c0-24.331-15.539-35.391-22.199-46.451c-0.999-4.025-2.22-11.899-2.22-11.899c0.861,0.254,6.66,3.074,6.66,3.074
		s-3.93-7.321-4.44-8.87c0,0-6.926-18.801-9.435-22.96c0.413-0.232,4.995,0.774,4.995,0.774l-18.181-22.717
		c0,0,4.386-0.397,5.149-0.53c0,0-21.133-16.612-26.927-18.714l6.659-2.212c-13.319-6.636-28.858-2.212-42.178,6.637l2.22-6.637
		l-4.063,0.377v-7.588l4.063-6.061l-6.659-2.212l4.439-11.06l-6.659,2.212l2.22-11.06c0,0-4.973,2.301-7.992,1.969
		c0.111,0.243,3.53-7.564,3.53-7.564c-2.109-3.296,0.021-9.888,0.021-9.888c-15.539,2.212-17.759,4.424-26.639,17.695
		c-13.318,24.331-8.879,35.391-6.659,59.723L396.285,119.445z"/>
	<path fill="#FF0000" stroke="#FF0000" stroke-width="1.42" d="M480.152,155.805c1.157,1.902,13.758,7.949,23.238,13.307
		C500.847,158.914,482.349,156.669,480.152,155.805z"/>
	<path fill="#FFFFFF" d="M174.95,399.033l-14.12-8.979l-18.95,9.046l4.202-16.147l-14.487-15.174l16.718-1.017l9.996-18.404
		l6.127,15.528l20.667,3.782l-12.929,10.617L174.95,399.033z M211.184,320.09l-6.55-3.119l-6.296,3.604l0.959-7.188l-5.388-4.845
		l7.142-1.306l2.965-6.612l3.457,6.369l7.222,0.774l-5.006,5.243L211.184,320.09z M243.113,274.811l-14.363-6.99l-13.923,7.831
		l2.222-15.771l-11.785-10.772l15.746-2.765l6.63-14.488l7.526,14.067l15.872,1.813l-11.1,11.458L243.113,274.811z M177.406,211.771
		l-16.92-8.447l-16.573,9.098l2.835-18.643l-13.808-12.895l18.671-3.075l8.043-17.07l8.704,16.745l18.776,2.348l-13.29,13.422
		L177.406,211.771z M116.605,277.243l-17.062-10.087l-17.016,10.309l4.361-19.288l-15.109-12.918l19.759-1.836l7.676-18.315
		l7.85,18.16l19.854,1.615l-14.906,13.05L116.605,277.243z"/>
</g>
</svg>
