<?xml version="1.0" encoding="utf-8"?>
<!-- Generator: Adobe Illustrator 15.0.2, SVG Export Plug-In . SVG Version: 6.00 Build 0)  -->
<!DOCTYPE svg PUBLIC "-//W3C//DTD SVG 1.1//EN" "http://www.w3.org/Graphics/SVG/1.1/DTD/svg11.dtd">
<svg version="1.1" id="Layer_1" xmlns="http://www.w3.org/2000/svg" xmlns:xlink="http://www.w3.org/1999/xlink" x="0px" y="0px"
	 width="640px" height="480px" viewBox="0 0 640 480" enable-background="new 0 0 640 480" xml:space="preserve">
<g>
	<path fill="#FF0000" d="M256,0h384v480H256V0z"/>
	<path fill="#006600" d="M0,0h256v480H0V0z"/>
	<path fill="#FFFF00" stroke="#000000" stroke-width="0.611" stroke-linecap="round" stroke-linejoin="round" d="M339.456,306.176
		c-32.224-0.971-179.99-93.205-181.003-107.894l8.16-13.607c14.657,21.297,165.717,110.998,180.555,107.82l-7.712,13.677"/>
	<path fill="#FFFF00" stroke="#000000" stroke-width="0.611" stroke-linecap="round" stroke-linejoin="round" d="M164.896,182.826
		c-2.89,7.78,38.56,33.406,88.43,63.737c49.87,30.33,92.87,49.073,96.056,46.385c0.195-0.348,1.57-2.71,1.443-2.691
		c-0.599,0.899-2.052,1.184-4.32,0.53c-13.474-3.887-48.614-20.017-92.133-46.406c-43.518-26.393-81.38-50.714-87.265-61.047
		c-0.41-0.717-0.7-2.023-0.642-3.04h-0.143l-1.253,2.189L164.896,182.826L164.896,182.826z M340.213,306.603
		c-0.546,0.99-1.564,1.024-3.5,0.812c-12.053-1.334-48.628-19.119-91.906-45.027c-50.358-30.145-91.947-57.61-87.435-64.79
		l1.228-2.17l0.242,0.076c-4.058,12.165,82.077,61.417,87.148,64.557c49.84,30.877,91.855,48.908,95.574,44.222l-1.353,2.326v-0.002
		L340.213,306.603z"/>
	<path fill="#FFFF00" stroke="#000000" stroke-width="0.611" stroke-linecap="round" stroke-linejoin="round" d="M256.18,207.18
		c32.254-0.256,72.055-4.41,94.96-13.537l-4.936-8.018c-13.538,7.492-53.557,12.42-90.295,13.156
		c-43.453-0.399-74.124-4.445-89.49-14.757l-4.66,8.538C190.009,204.517,218.957,207.056,256.18,207.18"/>
	<path fill="#FFFF00" stroke="#000000" stroke-width="0.611" stroke-linecap="round" stroke-linejoin="round" d="M352.47,193.823
		c-0.79,1.261-15.727,6.412-37.731,10.215c-14.92,2.273-34.383,4.22-58.67,4.241c-23.076,0.022-41.926-1.62-56.197-3.555
		c-23.1-3.622-35.02-8.66-39.428-10.442c0.42-0.838,0.692-1.426,1.098-2.21c12.688,5.054,24.666,8.101,38.698,10.259
		c14.177,1.92,32.8,3.587,55.76,3.565c24.176-0.024,43.424-2.117,58.258-4.324c22.565-3.64,34.892-8.323,36.623-10.5l1.593,2.752
		L352.47,193.823L352.47,193.823z M348.138,185.694c-2.446,1.963-14.632,6.285-36.073,9.71c-14.31,2.051-32.504,3.887-55.75,3.908
		c-22.084,0.022-40.127-1.466-53.85-3.465c-21.775-2.844-33.365-7.974-37.543-9.47c0.416-0.721,0.84-1.433,1.274-2.148
		c3.25,1.636,14.435,6.176,36.508,9.303c13.568,1.925,31.638,3.358,53.613,3.335c23.136-0.022,41.123-1.894,55.34-3.934
		c21.553-2.965,33.149-8.477,34.909-9.857l1.572,2.614L348.138,185.694L348.138,185.694z M150.272,246.037
		c19.838,10.67,63.9,16.047,105.594,16.417c37.963,0.06,87.42-5.868,105.916-15.671l-0.511-10.678
		c-5.784,9.042-58.786,17.716-105.817,17.36c-47.033-0.354-90.707-7.618-105.266-17.022l0.084,9.59"/>
	<path fill="#FFFF00" stroke="#000000" stroke-width="0.611" stroke-linecap="round" stroke-linejoin="round" d="M362.795,244.5
		v2.548c-2.779,3.324-20.208,8.347-42.066,11.885c-16.635,2.55-38.322,4.474-65.347,4.474c-25.673,0-46.146-1.829-62.024-4.268
		c-25.1-3.656-41.152-10.056-44.375-11.966l0.015-2.97c9.68,6.435,35.905,11.142,44.71,12.584
		c15.775,2.42,36.127,4.237,61.672,4.237c26.898,0,48.463-1.91,64.994-4.443c15.68-2.267,38.021-8.157,42.418-12.08L362.795,244.5z
		 M362.805,235.443v2.547c-2.777,3.32-20.208,8.346-42.064,11.883c-16.635,2.55-38.322,4.474-65.346,4.474
		c-25.674,0-46.147-1.828-62.025-4.269c-25.098-3.652-41.15-10.053-44.374-11.964l0.014-2.97
		c9.68,6.434,35.905,11.144,44.712,12.582c15.774,2.423,36.126,4.24,61.67,4.24c26.898,0,48.464-1.91,64.994-4.446
		c15.68-2.265,38.021-8.156,42.418-12.08v0.003H362.805z M255.776,304.34c-45.623-0.271-84.716-12.436-92.97-14.446l6.021,9.424
		c14.58,6.133,52.718,15.274,87.388,14.263c34.67-1.011,64.97-3.697,86.323-14.093l6.172-9.765
		c-14.553,6.853-64.074,14.548-92.935,14.618"/>
	<path fill="#FFFF00" stroke="#000000" stroke-width="0.587" stroke-linecap="round" stroke-linejoin="round" d="M344.854,297.3
		c-0.9,1.378-1.824,2.739-2.771,4.086c-10.07,3.55-25.94,7.28-32.636,8.366c-13.68,2.818-34.843,4.9-53.625,4.91
		c-40.416-0.592-73.5-8.504-89.063-15.253l-1.257-2.159l0.205-0.323l2.13,0.826c27.678,9.901,58.764,13.853,88.21,14.562
		c18.71,0.066,37.436-2.145,52.58-4.852c23.223-4.653,32.612-8.16,35.493-9.75l0.733-0.41V297.3z M350.205,288.474
		c0.023,0.028,0.047,0.054,0.07,0.083c-0.689,1.165-1.388,2.325-2.094,3.48c-5.371,1.92-19.949,6.185-41.236,9.161
		c-14.025,1.91-22.743,3.761-50.645,4.302c-52.282-1.33-86.132-11.553-94.174-14.074l-1.192-2.286
		c30.3,7.91,61.25,13.433,95.37,13.997c25.525-0.544,36.385-2.424,50.294-4.32c24.823-3.859,37.33-7.945,41.083-9.126
		c-0.051-0.073-0.105-0.144-0.164-0.212l2.692-1.005l-0.002,0.002L350.205,288.474z"/>
	<path fill="#FFFF00" stroke="#000000" stroke-width="0.611" stroke-linecap="round" stroke-linejoin="round" d="M255.62,134.847
		v-0.002c-58.117,0-105.52,47.294-105.52,105.284c0,57.988,47.403,105.283,105.52,105.283c58.118,0,105.916-47.296,105.916-105.282
		C361.536,182.141,313.738,134.847,255.62,134.847z M323.17,306.437c-17.502,16.81-40.707,27.623-67.807,28.12
		c-30.26,0.557-58.794-19.17-66.448-27.838c-14.963-16.945-27.145-38.462-27.536-67.46c1.853-32.757,14.712-55.574,33.352-71.22
		c18.64-15.647,43.46-23.269,64.13-22.724c23.847,0.63,51.705,12.33,70.955,35.555c12.609,15.22,18.071,31.732,20.935,56.739h0.001
		C350.9,267.623,335.542,294.556,323.17,306.437z"/>
	<path fill="#FFFF00" stroke="#000000" stroke-width="0.611" stroke-linecap="round" stroke-linejoin="round" d="M255.904,134.485
		c58.17,0,105.611,47.45,105.611,105.624c0,58.173-47.442,105.62-105.611,105.62c-58.17,0-105.612-47.446-105.612-105.62
		C150.292,181.933,197.735,134.484,255.904,134.485L255.904,134.485z M152.617,240.11c0,56.811,46.65,103.297,103.287,103.297
		c56.637,0,103.29-46.486,103.29-103.298c0-56.813-46.654-103.3-103.29-103.3C199.268,136.809,152.617,183.299,152.617,240.11
		L152.617,240.11z"/>
	<path fill="#FFFF00" stroke="#000000" stroke-width="0.611" stroke-linecap="round" stroke-linejoin="round" d="M255.99,143.264
		c53.046,0,96.74,43.542,96.74,96.75c0,53.21-43.695,96.75-96.74,96.75c-53.046,0-96.74-43.54-96.74-96.75
		C159.25,186.806,202.945,143.264,255.99,143.264z M161.573,240.014c0,51.93,42.645,94.426,94.416,94.426
		c51.77,0,94.415-42.495,94.415-94.426c0-51.93-42.644-94.426-94.416-94.426s-94.417,42.495-94.417,94.426H161.573z"/>
	<path fill="#FFFF00" stroke="#000000" stroke-width="0.611" stroke-linecap="round" stroke-linejoin="round" d="M260.245,134.06
		h-9.05l0.01,212.223h9.082L260.245,134.06z"/>
	<path fill="#FFFF00" stroke="#000000" stroke-width="0.611" stroke-linecap="round" stroke-linejoin="round" d="M259.34,132.85
		h2.302l0.02,214.666h-2.306L259.34,132.85L259.34,132.85z M250.356,132.85h2.322l0.003,214.668h-2.323V132.85H250.356z"/>
	<path fill="#FFFF00" stroke="#000000" stroke-width="0.611" stroke-linecap="round" stroke-linejoin="round" d="M361.59,244.197
		v-7.845l-6.39-5.952l-36.267-9.6l-52.266-5.334l-62.934,3.2l-44.8,10.667l-9.045,6.699v7.847L172.8,233.6l54.4-8.534h52.267
		l38.4,4.268l26.666,6.399L361.59,244.197z"/>
	<path fill="#FFFF00" stroke="#000000" stroke-width="0.611" stroke-linecap="round" stroke-linejoin="round" d="M255.947,223.755
		c24.941-0.046,49.14,2.362,68.336,6.1c19.807,3.96,33.746,8.913,38.512,14.477l-0.006,2.756
		c-5.748-6.923-24.505-11.998-38.953-14.9c-19.05-3.705-43.086-6.098-67.89-6.05c-26.174,0.047-50.546,2.526-69.317,6.189
		c-15.06,2.987-35.147,8.925-37.655,14.78v-2.868c1.377-4.053,16.334-10.109,37.316-14.31
		C205.202,226.239,229.62,223.803,255.947,223.755L255.947,223.755z M255.957,214.695c24.942-0.044,49.142,2.366,68.336,6.103
		c19.807,3.962,33.746,8.913,38.512,14.476l-0.005,2.754c-5.748-6.92-24.505-11.997-38.953-14.896
		c-19.048-3.707-43.085-6.101-67.89-6.052c-26.174,0.047-50.427,2.527-69.2,6.188c-14.534,2.756-35.44,8.928-37.772,14.784v-2.87
		c1.377-4.01,16.636-10.284,37.317-14.31c18.91-3.69,43.328-6.124,69.655-6.174V214.695z M255.445,168.49
		c39.306-0.195,73.59,5.496,89.274,13.53l5.72,9.9c-13.631-7.349-50.617-14.988-94.937-13.846
		c-36.11,0.223-74.696,3.976-94.055,14.305l6.83-11.424c15.89-8.24,53.357-12.421,87.17-12.464"/>
	<path fill="#FFFF00" stroke="#000000" stroke-width="0.611" stroke-linecap="round" stroke-linejoin="round" d="M255.968,176.659
		c22.418-0.058,44.08,1.206,61.308,4.315c16.043,2.986,31.344,7.467,33.53,9.877l1.698,2.998c-5.32-3.475-18.56-7.343-35.562-10.567
		c-17.073-3.21-38.72-4.271-61.013-4.213c-25.305-0.087-44.963,1.25-61.835,4.19c-17.843,3.34-30.223,8.11-33.277,10.375
		l1.662-3.168c5.934-3.028,15.35-6.677,31.172-9.525c17.447-3.187,37.315-4.143,62.317-4.279V176.659z M255.958,167.61
		c21.454-0.055,42.637,1.141,59.15,4.11c13.022,2.534,25.9,6.492,30.617,10.014l2.48,3.942c-4.217-4.688-20.09-9.13-34.105-11.62
		c-16.385-2.825-36.688-3.943-58.142-4.122c-22.515,0.063-43.323,1.442-59.47,4.382c-15.403,2.931-25.343,6.402-29.55,9.112
		l2.183-3.292c5.805-3.056,15.182-5.862,26.99-8.157c16.266-2.962,37.202-4.306,59.85-4.37L255.958,167.61z M308.427,284.01
		c-19.433-3.627-38.899-4.154-52.498-3.994c-65.502,0.768-86.662,13.45-89.244,17.29l-4.895-7.98
		c16.677-12.088,52.345-18.865,94.493-18.173c21.886,0.358,40.772,1.813,56.66,4.891l-4.518,7.97"/>
	<path fill="#FFFF00" stroke="#000000" stroke-width="0.587" stroke-linecap="round" stroke-linejoin="round" d="M255.552,278.89
		c18.22,0.273,36.106,1.025,53.37,4.244l-1.252,2.207c-16.033-2.958-33.125-4.09-52.056-4c-24.174-0.188-48.624,2.07-69.91,8.18
		c-6.717,1.868-17.836,6.187-18.97,9.755l-1.244-2.05c0.36-2.11,7.08-6.488,19.642-10.017
		C209.514,280.227,232.32,279.049,255.552,278.89v0.002V278.89z M256.379,269.72c18.877,0.354,38.372,1.227,57.322,4.979L312.4,277
		c-17.112-3.397-33.46-4.53-55.91-4.875c-24.25,0.044-49.974,1.772-73.363,8.572c-7.55,2.2-20.583,6.955-21.018,10.721l-1.244-2.203
		c0.283-3.42,11.564-7.88,21.715-10.833c23.57-6.854,49.36-8.615,73.8-8.66L256.379,269.72z"/>
	<path fill="#FFFF00" stroke="#000000" stroke-width="0.611" stroke-linecap="round" stroke-linejoin="round" d="M349.42,290.54
		l-7.872,12.21l-22.615-20.083l-58.666-39.468l-66.134-36.267l-34.336-11.744l7.318-13.57l2.485-1.353l21.333,5.333l70.4,36.267
		l40.534,25.601L336,272l13.867,16L349.42,290.54z"/>
	<path fill="#FFFF00" stroke="#000000" stroke-width="0.611" stroke-linecap="round" stroke-linejoin="round" d="M158.56,195.51
		c6.022-4.085,50.282,15.63,96.592,43.556c46.188,28.004,90.322,59.65,86.338,65.57l-1.311,2.062l-0.6,0.475
		c0.128-0.092,0.792-0.904-0.066-3.101c-1.968-6.475-33.274-31.457-85.22-62.819c-50.64-30.197-92.844-48.397-97.064-43.195
		L158.56,195.51L158.56,195.51z M351.03,290.365c3.807-7.521-37.244-38.446-88.14-68.557c-52.07-29.51-89.595-46.88-96.45-41.7
		l-1.522,2.771c-0.014,0.152,0.055-0.188,0.377-0.437c1.246-1.088,3.312-1.015,4.244-1.029c11.802,0.175,45.51,15.688,92.806,42.802
		c20.724,12.069,87.542,54.923,87.287,66.975c0.019,1.034,0.086,1.248-0.304,1.76l1.7-2.584v-0.003L351.03,290.365z"/>
	<path fill="#FFFFFF" stroke="#000000" stroke-width="0.67" d="M192.641,251.745c0,17.354,7.107,33.053,18.621,44.524
		c11.536,11.496,27.213,18.752,44.597,18.752c17.472,0,33.329-7.098,44.816-18.549c11.488-11.451,18.606-27.256,18.609-44.673
		h-0.002v-84.47l-126.656-0.148l0.013,84.563H192.641z"/>
	<path fill="#FF0000" stroke="#000000" stroke-width="0.507" d="M195.009,251.863v0.048c0,16.594,6.869,31.705,17.894,42.678
		c11.044,10.99,26.255,17.823,42.895,17.823c16.726,0,31.904-6.784,42.901-17.733c10.998-10.949,17.812-26.062,17.813-42.714h-0.002
		v-81.947l-121.43-0.021l-0.075,81.867 M292.096,194.531l0.004,52.149l-0.042,5.519c0,1.45-0.088,3.105-0.256,4.515
		c-0.988,8.246-4.779,15.432-10.396,21.022c-6.575,6.545-15.648,10.604-25.65,10.604c-9.948,0-18.814-4.2-25.417-10.773
		c-6.773-6.741-10.699-15.985-10.699-25.543l-0.014-57.624L292.096,194.531L292.096,194.531L292.096,194.531z"/>
	<path fill="#FFFF00" d="M202.87,191.393c0.144-5.888,4.322-7.283,4.352-7.304c0.032-0.021,4.515,1.501,4.5,7.358L202.87,191.393"/>
	<path fill="#FFFF00" stroke="#000000" stroke-width="0.5" d="M199.265,184.203l-0.728,6.768l4.416,0.011
		c0.043-5.6,4.24-6.532,4.341-6.511c0.096-0.004,4.256,1.237,4.366,6.511h4.429l-0.8-6.82L199.265,184.203L199.265,184.203
		L199.265,184.203z M198.24,190.998h18.076c0.381,0,0.693,0.376,0.693,0.836c0,0.459-0.313,0.832-0.693,0.832h-18.076
		c-0.381,0-0.693-0.373-0.693-0.832S197.86,190.998,198.24,190.998L198.24,190.998z"/>
	<path fill="#FFFF00" stroke="#000000" stroke-width="0.5" d="M204.812,190.966c0.019-3.534,2.413-4.533,2.425-4.531
		c0,0,2.499,1.03,2.517,4.531H204.812 M198.625,181.387h17.328c0.365,0,0.665,0.34,0.665,0.752c0,0.413-0.299,0.751-0.665,0.751
		h-17.328c-0.365,0-0.665-0.337-0.665-0.752C197.96,181.726,198.259,181.386,198.625,181.387L198.625,181.387z M198.987,182.902
		h16.574c0.349,0,0.634,0.339,0.634,0.751c0,0.414-0.286,0.751-0.634,0.751h-16.574c-0.349,0-0.635-0.337-0.635-0.751
		C198.353,183.24,198.639,182.902,198.987,182.902z M204.342,171.606l1.309,0.002v0.929h0.955v-0.949l1.341,0.005v0.946h0.956
		v-0.949h1.342l-0.002,2.144c0,0.339-0.271,0.555-0.586,0.555h-4.704c-0.316,0-0.608-0.252-0.608-0.56l-0.004-2.123L204.342,171.606
		z M209.27,174.475l0.295,6.881l-4.59-0.017l0.304-6.882l3.989,0.018"/>
	<path id="a" fill="#FFFF00" stroke="#000000" stroke-width="0.5" d="M203.67,177.664l0.139,3.71h-4.399l0.124-3.71h4.139H203.67z"
		/>
	<path id="a_1_" fill="#FFFF00" stroke="#000000" stroke-width="0.5" d="M214.986,177.664l0.139,3.71h-4.399l0.124-3.71h4.139
		H214.986z"/>
	<path id="b" fill="#FFFF00" stroke="#000000" stroke-width="0.5" d="M198.721,174.977l1.28,0.003v0.931h0.935v-0.952l1.312,0.005
		v0.949h0.938v-0.954l1.313,0.002l-0.003,2.146c0,0.335-0.267,0.553-0.572,0.553h-4.604c-0.31,0-0.596-0.251-0.596-0.561
		L198.721,174.977z"/>
	<path id="b_1_" fill="#FFFF00" stroke="#000000" stroke-width="0.5" d="M210.037,174.977l1.28,0.003v0.931h0.935v-0.952
		l1.312,0.005v0.949h0.938v-0.954l1.313,0.002l-0.003,2.146c0,0.335-0.267,0.553-0.572,0.553h-4.604
		c-0.31,0-0.596-0.251-0.596-0.561L210.037,174.977z"/>
	<path d="M206.827,176.652c-0.027-0.669,0.936-0.677,0.924,0v1.638h-0.924V176.652"/>
	<path id="c" d="M201.142,179.03c-0.003-0.646,0.893-0.659,0.881,0v1.267h-0.881V179.03"/>
	<path id="c_1_" d="M212.492,179.03c-0.003-0.646,0.893-0.659,0.881,0v1.267h-0.881V179.03"/>
	<path fill="#FFFF00" d="M202.87,240.801c0.144-5.888,4.322-7.283,4.352-7.304c0.032-0.021,4.515,1.501,4.5,7.358L202.87,240.801"/>
	<path fill="#FFFF00" stroke="#000000" stroke-width="0.5" d="M199.265,233.612l-0.728,6.768l4.416,0.011
		c0.043-5.6,4.24-6.532,4.341-6.511c0.096-0.004,4.256,1.237,4.366,6.511h4.429l-0.8-6.82L199.265,233.612L199.265,233.612
		L199.265,233.612z M198.24,240.406h18.076c0.381,0,0.693,0.376,0.693,0.836c0,0.459-0.313,0.832-0.693,0.832h-18.076
		c-0.381,0-0.693-0.373-0.693-0.832S197.86,240.406,198.24,240.406L198.24,240.406z"/>
	<path fill="#FFFF00" stroke="#000000" stroke-width="0.5" d="M204.812,240.374c0.019-3.534,2.413-4.533,2.425-4.531
		c0,0,2.499,1.03,2.517,4.531H204.812 M198.625,230.795h17.328c0.365,0,0.665,0.34,0.665,0.752c0,0.413-0.299,0.751-0.665,0.751
		h-17.328c-0.365,0-0.665-0.337-0.665-0.752C197.96,231.134,198.259,230.794,198.625,230.795L198.625,230.795z M198.987,232.31
		h16.574c0.349,0,0.634,0.339,0.634,0.751c0,0.414-0.286,0.751-0.634,0.751h-16.574c-0.349,0-0.635-0.337-0.635-0.751
		C198.353,232.649,198.639,232.31,198.987,232.31z M204.342,221.014l1.309,0.002v0.929h0.955v-0.949l1.341,0.005v0.946h0.956v-0.949
		h1.342l-0.002,2.144c0,0.339-0.271,0.555-0.586,0.555h-4.704c-0.316,0-0.608-0.252-0.608-0.56l-0.004-2.123L204.342,221.014z
		 M209.27,223.883l0.295,6.881l-4.59-0.017l0.304-6.882l3.989,0.018"/>
	<path id="a_2_" fill="#FFFF00" stroke="#000000" stroke-width="0.5" d="M203.67,227.073l0.139,3.71h-4.399l0.124-3.71h4.139H203.67
		z"/>
	<path id="a_3_" fill="#FFFF00" stroke="#000000" stroke-width="0.5" d="M214.986,227.073l0.139,3.71h-4.399l0.124-3.71h4.139
		H214.986z"/>
	<path id="b_2_" fill="#FFFF00" stroke="#000000" stroke-width="0.5" d="M198.721,224.385l1.28,0.003v0.931h0.935v-0.952
		l1.312,0.005v0.949h0.938v-0.954l1.313,0.002l-0.003,2.146c0,0.335-0.267,0.553-0.572,0.553h-4.604
		c-0.31,0-0.596-0.251-0.596-0.561L198.721,224.385z"/>
	<path id="b_3_" fill="#FFFF00" stroke="#000000" stroke-width="0.5" d="M210.037,224.385l1.28,0.003v0.931h0.935v-0.952
		l1.312,0.005v0.949h0.938v-0.954l1.313,0.002l-0.003,2.146c0,0.335-0.267,0.553-0.572,0.553h-4.604
		c-0.31,0-0.596-0.251-0.596-0.561L210.037,224.385z"/>
	<path d="M206.827,226.06c-0.027-0.669,0.936-0.677,0.924,0v1.638h-0.924V226.06"/>
	<path id="c_2_" d="M201.142,228.438c-0.003-0.646,0.893-0.659,0.881,0v1.267h-0.881V228.438"/>
	<path id="c_3_" d="M212.492,228.438c-0.003-0.646,0.893-0.659,0.881,0v1.267h-0.881V228.438"/>
	<path fill="#FFFF00" d="M222.135,292.229c-4.077-4.251-2.123-8.198-2.116-8.234c0.007-0.037,4.246-2.146,8.391,1.992
		L222.135,292.229"/>
	<path fill="#FFFF00" stroke="#000000" stroke-width="0.5" d="M214.493,289.722l4.29,5.284l3.119-3.126
		c-3.944-3.976-1.648-7.611-1.561-7.668c0.064-0.071,3.876-2.148,7.696,1.489l3.12-3.143l-5.403-4.237l-11.261,11.398l0.001,0.002
		H214.493z M218.593,295.236l12.736-12.826c0.268-0.271,0.756-0.227,1.082,0.097c0.325,0.323,0.37,0.809,0.102,1.079l-12.736,12.826
		c-0.269,0.271-0.753,0.229-1.079-0.095C218.372,295.993,218.324,295.506,218.593,295.236z"/>
	<path fill="#FFFF00" stroke="#000000" stroke-width="0.5" d="M223.2,290.551c-2.494-2.504-1.517-4.906-1.506-4.914
		c0,0,2.491-1.047,4.989,1.406L223.2,290.551 M212.043,288.192l12.209-12.296c0.257-0.259,0.709-0.232,1.002,0.059
		c0.293,0.29,0.322,0.74,0.064,1L213.11,289.25c-0.257,0.259-0.708,0.234-1.001-0.058
		C211.815,288.902,211.785,288.45,212.043,288.192L212.043,288.192z M213.374,289.001l11.678-11.761
		c0.246-0.247,0.688-0.212,0.98,0.079c0.293,0.291,0.331,0.731,0.085,0.979l-11.678,11.761c-0.246,0.247-0.687,0.213-0.98-0.079
		C213.167,289.69,213.128,289.249,213.374,289.001z M209.131,277.242l0.924-0.927l0.659,0.653l0.672-0.678l-0.673-0.669l0.949-0.947
		l0.671,0.667l0.674-0.679l-0.674-0.669l0.945-0.952l1.52,1.513c0.24,0.238,0.203,0.583-0.02,0.807l-3.314,3.338
		c-0.222,0.225-0.606,0.254-0.825,0.037l-1.51-1.492L209.131,277.242z M214.64,275.767l5.09,4.639l-3.245,3.245l-4.669-5.064
		L214.64,275.767"/>
	<path id="a_4_" fill="#FFFF00" stroke="#000000" stroke-width="0.5" d="M212.957,281.989l2.73,2.516l-3.099,3.121l-2.546-2.702
		l2.917-2.937L212.957,281.989L212.957,281.989z"/>
	<path id="a_5_" fill="#FFFF00" stroke="#000000" stroke-width="0.5" d="M220.931,273.958l2.73,2.516l-3.099,3.121l-2.546-2.701
		l2.917-2.938L220.931,273.958L220.931,273.958z"/>
	<path id="b_4_" fill="#FFFF00" stroke="#000000" stroke-width="0.5" d="M207.562,283.607l0.904-0.906l0.66,0.655l0.659-0.664
		l-0.675-0.67l0.928-0.929l0.673,0.669l0.662-0.666l-0.677-0.672l0.926-0.929l1.521,1.514c0.238,0.236,0.204,0.579-0.011,0.795
		l-3.244,3.268c-0.218,0.22-0.598,0.246-0.817,0.028L207.562,283.607z"/>
	<path id="b_5_" fill="#FFFF00" stroke="#000000" stroke-width="0.5" d="M215.536,275.576l0.904-0.906l0.66,0.655l0.659-0.664
		l-0.675-0.67l0.928-0.928l0.673,0.669l0.662-0.666l-0.677-0.672l0.926-0.93l1.521,1.515c0.238,0.235,0.204,0.578-0.011,0.795
		l-3.244,3.268c-0.218,0.219-0.598,0.245-0.817,0.027L215.536,275.576z"/>
	<path d="M214.462,279.033c-0.494-0.451,0.179-1.14,0.651-0.655l1.163,1.154l-0.651,0.656L214.462,279.033"/>
	<path id="c_4_" d="M212.145,284.744c-0.461-0.453,0.161-1.099,0.621-0.625l0.898,0.892l-0.621,0.625L212.145,284.744"/>
	<path id="c_5_" d="M220.142,276.69c-0.461-0.453,0.161-1.098,0.621-0.625l0.898,0.893l-0.621,0.625L220.142,276.69"/>
	<path fill="#FFFF00" d="M251.632,191.393c0.144-5.888,4.322-7.283,4.352-7.304c0.032-0.021,4.515,1.501,4.5,7.358L251.632,191.393"
		/>
	<path fill="#FFFF00" stroke="#000000" stroke-width="0.5" d="M248.026,184.203l-0.728,6.768l4.416,0.011
		c0.043-5.6,4.24-6.532,4.341-6.511c0.096-0.004,4.256,1.237,4.366,6.511h4.429l-0.8-6.82L248.026,184.203L248.026,184.203
		L248.026,184.203z M247.002,190.998h18.076c0.381,0,0.693,0.376,0.693,0.836c0,0.459-0.313,0.832-0.693,0.832h-18.076
		c-0.381,0-0.693-0.373-0.693-0.832S246.622,190.998,247.002,190.998L247.002,190.998z"/>
	<path fill="#FFFF00" stroke="#000000" stroke-width="0.5" d="M253.573,190.966c0.019-3.534,2.413-4.533,2.425-4.531
		c0,0,2.499,1.03,2.517,4.531H253.573 M247.386,181.387h17.328c0.365,0,0.665,0.34,0.665,0.752c0,0.413-0.299,0.751-0.665,0.751
		h-17.328c-0.365,0-0.665-0.337-0.665-0.752C246.722,181.726,247.021,181.386,247.386,181.387L247.386,181.387z M247.749,182.902
		h16.574c0.349,0,0.634,0.339,0.634,0.751c0,0.414-0.286,0.751-0.634,0.751h-16.574c-0.349,0-0.635-0.337-0.635-0.751
		C247.114,183.24,247.4,182.902,247.749,182.902z M253.104,171.606l1.309,0.002v0.929h0.955v-0.949l1.341,0.005v0.946h0.956v-0.949
		h1.342l-0.002,2.144c0,0.339-0.271,0.555-0.586,0.555h-4.704c-0.316,0-0.608-0.252-0.608-0.56l-0.004-2.123L253.104,171.606z
		 M258.032,174.475l0.295,6.881l-4.59-0.017l0.304-6.882l3.989,0.018"/>
	<path id="a_6_" fill="#FFFF00" stroke="#000000" stroke-width="0.5" d="M252.432,177.664l0.139,3.71h-4.399l0.124-3.71h4.139
		H252.432z"/>
	<path id="a_7_" fill="#FFFF00" stroke="#000000" stroke-width="0.5" d="M263.748,177.664l0.139,3.71h-4.399l0.124-3.71h4.139
		H263.748z"/>
	<path id="b_6_" fill="#FFFF00" stroke="#000000" stroke-width="0.5" d="M247.482,174.977l1.28,0.003v0.931h0.935v-0.952
		l1.312,0.005v0.949h0.938v-0.954l1.313,0.002l-0.003,2.146c0,0.335-0.267,0.553-0.572,0.553h-4.604
		c-0.31,0-0.596-0.251-0.596-0.561L247.482,174.977z"/>
	<path id="b_7_" fill="#FFFF00" stroke="#000000" stroke-width="0.5" d="M258.799,174.977l1.28,0.003v0.931h0.935v-0.952
		l1.312,0.005v0.949h0.938v-0.954l1.313,0.002l-0.003,2.146c0,0.335-0.267,0.553-0.572,0.553h-4.604
		c-0.31,0-0.596-0.251-0.596-0.561L258.799,174.977z"/>
	<path d="M255.589,176.652c-0.027-0.669,0.936-0.677,0.924,0v1.638h-0.924V176.652"/>
	<path id="c_6_" d="M249.903,179.03c-0.003-0.646,0.893-0.659,0.881,0v1.267h-0.881V179.03"/>
	<path id="c_7_" d="M261.254,179.03c-0.003-0.646,0.893-0.659,0.881,0v1.267h-0.881V179.03"/>
	<path fill="#FFFF00" d="M308.91,191.393c-0.145-5.888-4.322-7.283-4.353-7.304c-0.032-0.021-4.514,1.501-4.499,7.358
		L308.91,191.393"/>
	<path fill="#FFFF00" stroke="#000000" stroke-width="0.5" d="M312.515,184.203l0.728,6.768l-4.416,0.011
		c-0.042-5.6-4.24-6.532-4.341-6.511c-0.096-0.004-4.256,1.237-4.366,6.511h-4.429l0.8-6.82L312.515,184.203L312.515,184.203
		L312.515,184.203z M313.539,190.998h-18.076c-0.381,0-0.693,0.376-0.693,0.836c0,0.459,0.313,0.832,0.693,0.832h18.076
		c0.381,0,0.693-0.373,0.693-0.832S313.92,190.998,313.539,190.998L313.539,190.998z"/>
	<path fill="#FFFF00" stroke="#000000" stroke-width="0.5" d="M306.969,190.966c-0.02-3.534-2.413-4.533-2.426-4.531
		c0,0-2.498,1.03-2.518,4.531H306.969 M313.155,181.387h-17.328c-0.365,0-0.665,0.34-0.665,0.752c0,0.413,0.298,0.751,0.665,0.751
		h17.328c0.365,0,0.665-0.337,0.665-0.752C313.82,181.726,313.521,181.386,313.155,181.387L313.155,181.387z M312.792,182.902
		h-16.574c-0.349,0-0.635,0.339-0.635,0.751c0,0.414,0.286,0.751,0.635,0.751h16.574c0.349,0,0.635-0.337,0.635-0.751
		C313.427,183.24,313.142,182.902,312.792,182.902z M307.438,171.606l-1.309,0.002v0.929h-0.955v-0.949l-1.341,0.005v0.946h-0.956
		v-0.949h-1.342l0.002,2.144c0,0.339,0.271,0.555,0.587,0.555h4.704c0.315,0,0.607-0.252,0.607-0.56l0.004-2.123L307.438,171.606z
		 M302.51,174.475l-0.295,6.881l4.59-0.017l-0.304-6.882L302.51,174.475"/>
	<path id="a_8_" fill="#FFFF00" stroke="#000000" stroke-width="0.5" d="M308.11,177.664l-0.139,3.71h4.399l-0.124-3.71h-4.139
		H308.11z"/>
	<path id="a_9_" fill="#FFFF00" stroke="#000000" stroke-width="0.5" d="M296.793,177.664l-0.139,3.71h4.399l-0.124-3.71h-4.139
		H296.793z"/>
	<path id="b_8_" fill="#FFFF00" stroke="#000000" stroke-width="0.5" d="M313.059,174.977l-1.28,0.003v0.931h-0.936v-0.952
		l-1.312,0.005v0.949h-0.939v-0.954l-1.312,0.002l0.003,2.146c0,0.335,0.267,0.553,0.572,0.553h4.605
		c0.309,0,0.595-0.251,0.595-0.561L313.059,174.977z"/>
	<path id="b_9_" fill="#FFFF00" stroke="#000000" stroke-width="0.5" d="M301.743,174.977l-1.28,0.003v0.931h-0.936v-0.952
		l-1.312,0.005v0.949h-0.939v-0.954l-1.312,0.002l0.003,2.146c0,0.335,0.267,0.553,0.572,0.553h4.605
		c0.309,0,0.595-0.251,0.595-0.561L301.743,174.977z"/>
	<path d="M304.952,176.652c0.028-0.669-0.935-0.677-0.923,0v1.638h0.923V176.652"/>
	<path id="c_8_" d="M310.638,179.03c0.003-0.646-0.893-0.659-0.881,0v1.267h0.881V179.03"/>
	<path id="c_9_" d="M299.288,179.03c0.003-0.646-0.893-0.659-0.881,0v1.267h0.881V179.03"/>
	<path fill="#FFFF00" d="M308.91,240.801c-0.145-5.888-4.322-7.283-4.353-7.304c-0.032-0.021-4.514,1.501-4.499,7.358
		L308.91,240.801"/>
	<path fill="#FFFF00" stroke="#000000" stroke-width="0.5" d="M312.515,233.612l0.728,6.768l-4.416,0.011
		c-0.042-5.6-4.24-6.532-4.341-6.511c-0.096-0.004-4.256,1.237-4.366,6.511h-4.429l0.8-6.82L312.515,233.612L312.515,233.612
		L312.515,233.612z M313.539,240.406h-18.076c-0.381,0-0.693,0.376-0.693,0.836c0,0.459,0.313,0.832,0.693,0.832h18.076
		c0.381,0,0.693-0.373,0.693-0.832S313.92,240.406,313.539,240.406L313.539,240.406z"/>
	<path fill="#FFFF00" stroke="#000000" stroke-width="0.5" d="M306.969,240.374c-0.02-3.534-2.413-4.533-2.426-4.531
		c0,0-2.498,1.03-2.518,4.531H306.969 M313.155,230.795h-17.328c-0.365,0-0.665,0.34-0.665,0.752c0,0.413,0.298,0.751,0.665,0.751
		h17.328c0.365,0,0.665-0.337,0.665-0.752C313.82,231.134,313.521,230.794,313.155,230.795L313.155,230.795z M312.792,232.31
		h-16.574c-0.349,0-0.635,0.339-0.635,0.751c0,0.414,0.286,0.751,0.635,0.751h16.574c0.349,0,0.635-0.337,0.635-0.751
		C313.427,232.649,313.142,232.31,312.792,232.31z M307.438,221.014l-1.309,0.002v0.929h-0.955v-0.949L303.833,221v0.946h-0.956
		v-0.949h-1.342l0.002,2.144c0,0.339,0.271,0.555,0.587,0.555h4.704c0.315,0,0.607-0.252,0.607-0.56l0.004-2.123L307.438,221.014z
		 M302.51,223.883l-0.295,6.881l4.59-0.017l-0.304-6.882L302.51,223.883"/>
	<path id="a_10_" fill="#FFFF00" stroke="#000000" stroke-width="0.5" d="M308.11,227.073l-0.139,3.71h4.399l-0.124-3.71h-4.139
		H308.11z"/>
	<path id="a_11_" fill="#FFFF00" stroke="#000000" stroke-width="0.5" d="M296.793,227.073l-0.139,3.71h4.399l-0.124-3.71h-4.139
		H296.793z"/>
	<path id="b_10_" fill="#FFFF00" stroke="#000000" stroke-width="0.5" d="M313.059,224.385l-1.28,0.003v0.931h-0.936v-0.952
		l-1.312,0.005v0.949h-0.939v-0.954l-1.312,0.002l0.003,2.146c0,0.335,0.267,0.553,0.572,0.553h4.605
		c0.309,0,0.595-0.251,0.595-0.561L313.059,224.385z"/>
	<path id="b_11_" fill="#FFFF00" stroke="#000000" stroke-width="0.5" d="M301.743,224.385l-1.28,0.003v0.931h-0.936v-0.952
		l-1.312,0.005v0.949h-0.939v-0.954l-1.312,0.002l0.003,2.146c0,0.335,0.267,0.553,0.572,0.553h4.605
		c0.309,0,0.595-0.251,0.595-0.561L301.743,224.385z"/>
	<path d="M304.952,226.06c0.028-0.669-0.935-0.677-0.923,0v1.638h0.923V226.06"/>
	<path id="c_10_" d="M310.638,228.438c0.003-0.646-0.893-0.659-0.881,0v1.267h0.881V228.438"/>
	<path id="c_11_" d="M299.288,228.438c0.003-0.646-0.893-0.659-0.881,0v1.267h0.881V228.438"/>
	<path fill="#FFFF00" d="M289.646,292.229c4.076-4.251,2.123-8.198,2.116-8.234c-0.007-0.037-4.246-2.146-8.391,1.992
		L289.646,292.229"/>
	<path fill="#FFFF00" stroke="#000000" stroke-width="0.5" d="M297.287,289.722l-4.29,5.284l-3.119-3.126
		c3.944-3.976,1.648-7.611,1.562-7.668c-0.065-0.071-3.877-2.148-7.696,1.489l-3.121-3.143l5.403-4.237l11.262,11.398l-0.001,0.002
		H297.287z M293.188,295.236l-12.736-12.826c-0.269-0.271-0.756-0.227-1.082,0.097c-0.326,0.323-0.37,0.809-0.102,1.079
		l12.736,12.826c0.268,0.271,0.753,0.229,1.079-0.095C293.408,295.993,293.456,295.506,293.188,295.236z"/>
	<path fill="#FFFF00" stroke="#000000" stroke-width="0.5" d="M288.58,290.551c2.494-2.504,1.517-4.906,1.506-4.914
		c0,0-2.492-1.047-4.989,1.406L288.58,290.551 M299.736,288.192l-12.209-12.296c-0.257-0.259-0.709-0.232-1.002,0.059
		c-0.293,0.29-0.322,0.74-0.064,1l12.209,12.296c0.257,0.259,0.707,0.234,1.002-0.058
		C299.965,288.902,299.995,288.45,299.736,288.192L299.736,288.192z M298.406,289.001l-11.679-11.761
		c-0.245-0.247-0.687-0.212-0.979,0.079c-0.294,0.291-0.332,0.731-0.086,0.979l11.678,11.761c0.246,0.247,0.686,0.213,0.98-0.079
		C298.613,289.69,298.652,289.249,298.406,289.001z M302.648,277.242l-0.924-0.927l-0.658,0.653l-0.673-0.678l0.674-0.669
		l-0.948-0.947l-0.672,0.667l-0.673-0.679l0.673-0.669l-0.946-0.952l-1.52,1.513c-0.24,0.238-0.203,0.583,0.02,0.807l3.314,3.338
		c0.223,0.225,0.607,0.254,0.826,0.037l1.509-1.492L302.648,277.242z M297.14,275.767l-5.09,4.639l3.246,3.245l4.669-5.064
		L297.14,275.767"/>
	<path id="a_12_" fill="#FFFF00" stroke="#000000" stroke-width="0.5" d="M298.823,281.989l-2.73,2.516l3.1,3.121l2.545-2.702
		l-2.916-2.937L298.823,281.989L298.823,281.989z"/>
	<path id="a_13_" fill="#FFFF00" stroke="#000000" stroke-width="0.5" d="M290.85,273.958l-2.73,2.516l3.1,3.121l2.545-2.701
		l-2.916-2.938L290.85,273.958L290.85,273.958z"/>
	<path id="b_12_" fill="#FFFF00" stroke="#000000" stroke-width="0.5" d="M304.218,283.607l-0.904-0.906l-0.66,0.655l-0.659-0.664
		l0.675-0.67l-0.927-0.929l-0.674,0.669l-0.661-0.666l0.677-0.672l-0.926-0.929l-1.521,1.514c-0.237,0.236-0.204,0.579,0.011,0.795
		l3.245,3.268c0.218,0.22,0.597,0.246,0.816,0.028L304.218,283.607z"/>
	<path id="b_13_" fill="#FFFF00" stroke="#000000" stroke-width="0.5" d="M296.244,275.576l-0.904-0.906l-0.66,0.655l-0.659-0.664
		l0.675-0.67l-0.927-0.928l-0.674,0.669l-0.661-0.666l0.677-0.672l-0.926-0.93l-1.521,1.515c-0.237,0.235-0.204,0.578,0.011,0.795
		l3.245,3.268c0.218,0.219,0.597,0.245,0.816,0.027L296.244,275.576z"/>
	<path d="M297.317,279.033c0.494-0.451-0.18-1.14-0.651-0.655l-1.163,1.154l0.651,0.656L297.317,279.033"/>
	<path id="c_12_" d="M299.635,284.744c0.461-0.453-0.161-1.099-0.621-0.625l-0.898,0.892l0.621,0.625L299.635,284.744"/>
	<path id="c_13_" d="M291.638,276.69c0.461-0.453-0.161-1.098-0.621-0.625l-0.898,0.893l0.621,0.625L291.638,276.69"/>
	<path fill="#003399" d="M248.146,242.568v0.005c-0.009,2.249,0.834,4.417,2.36,6.069c1.456,1.564,3.461,2.537,5.656,2.537
		c2.205,0,4.207-0.966,5.656-2.523c1.448-1.557,2.349-3.703,2.349-6.072v-11.486l-15.991-0.014L248.146,242.568"/>
	<circle fill="#FFFFFF" cx="251.813" cy="235.451" r="1.585"/>
	<circle fill="#FFFFFF" cx="260.686" cy="235.459" r="1.585"/>
	<circle fill="#FFFFFF" cx="256.241" cy="239.718" r="1.585"/>
	<circle fill="#FFFFFF" cx="251.813" cy="244.178" r="1.585"/>
	<circle fill="#FFFFFF" cx="260.676" cy="244.166" r="1.585"/>
	<path fill="#003399" d="M248.146,214.817v0.006c-0.009,2.248,0.834,4.417,2.36,6.069c1.456,1.564,3.461,2.536,5.656,2.536
		c2.205,0,4.207-0.965,5.656-2.522c1.448-1.558,2.349-3.704,2.349-6.072v-11.486l-15.991-0.014L248.146,214.817"/>
	<circle fill="#FFFFFF" cx="251.813" cy="207.701" r="1.585"/>
	<circle fill="#FFFFFF" cx="260.686" cy="207.708" r="1.585"/>
	<circle fill="#FFFFFF" cx="256.241" cy="211.968" r="1.585"/>
	<circle fill="#FFFFFF" cx="251.813" cy="216.427" r="1.585"/>
	<circle fill="#FFFFFF" cx="260.676" cy="216.416" r="1.585"/>
	<path fill="#003399" d="M225.96,242.568v0.005c-0.009,2.249,0.834,4.417,2.36,6.069c1.456,1.564,3.461,2.537,5.656,2.537
		c2.205,0,4.207-0.966,5.656-2.523c1.448-1.557,2.349-3.703,2.349-6.072v-11.486l-15.991-0.014L225.96,242.568"/>
	<circle fill="#FFFFFF" cx="229.627" cy="235.451" r="1.585"/>
	<circle fill="#FFFFFF" cx="238.5" cy="235.459" r="1.585"/>
	<circle fill="#FFFFFF" cx="234.055" cy="239.718" r="1.585"/>
	<circle fill="#FFFFFF" cx="229.627" cy="244.178" r="1.585"/>
	<circle fill="#FFFFFF" cx="238.49" cy="244.166" r="1.585"/>
	<path fill="#003399" d="M270.274,242.568v0.005c-0.009,2.249,0.834,4.417,2.36,6.069c1.456,1.564,3.461,2.537,5.655,2.537
		c2.205,0,4.207-0.966,5.656-2.523c1.449-1.557,2.349-3.703,2.349-6.072v-11.486l-15.992-0.014L270.274,242.568"/>
	<circle fill="#FFFFFF" cx="273.941" cy="235.451" r="1.585"/>
	<circle fill="#FFFFFF" cx="282.813" cy="235.459" r="1.585"/>
	<circle fill="#FFFFFF" cx="278.369" cy="239.718" r="1.585"/>
	<circle fill="#FFFFFF" cx="273.941" cy="244.178" r="1.585"/>
	<circle fill="#FFFFFF" cx="282.804" cy="244.166" r="1.585"/>
	<path fill="#003399" d="M248.146,270.071v0.005c-0.009,2.249,0.834,4.417,2.36,6.069c1.456,1.564,3.461,2.537,5.656,2.537
		c2.205,0,4.207-0.966,5.656-2.523c1.448-1.557,2.349-3.703,2.349-6.072V258.6l-15.991-0.014L248.146,270.071"/>
	<circle fill="#FFFFFF" cx="251.813" cy="262.954" r="1.585"/>
	<circle fill="#FFFFFF" cx="260.686" cy="262.962" r="1.585"/>
	<circle fill="#FFFFFF" cx="256.241" cy="267.221" r="1.585"/>
	<circle fill="#FFFFFF" cx="251.813" cy="271.681" r="1.585"/>
	<circle fill="#FFFFFF" cx="260.676" cy="271.669" r="1.585"/>
</g>
</svg>
