<?xml version="1.0" encoding="utf-8"?>
<!-- Generator: Adobe Illustrator 15.0.2, SVG Export Plug-In . SVG Version: 6.00 Build 0)  -->
<!DOCTYPE svg PUBLIC "-//W3C//DTD SVG 1.1//EN" "http://www.w3.org/Graphics/SVG/1.1/DTD/svg11.dtd">
<svg version="1.1" id="Layer_1" xmlns="http://www.w3.org/2000/svg" xmlns:xlink="http://www.w3.org/1999/xlink" x="0px" y="0px"
	 width="640px" height="480px" viewBox="0 0 640 480" enable-background="new 0 0 640 480" xml:space="preserve">
<g>
	<defs>
		<rect id="SVGID_1_" y="0" width="640" height="480"/>
	</defs>
	<clipPath id="SVGID_2_">
		<use xlink:href="#SVGID_1_"  overflow="visible"/>
	</clipPath>
	<path clip-path="url(#SVGID_2_)" fill="#FFFFFF" d="M-20,0h720v480H-20V0z"/>
	<path clip-path="url(#SVGID_2_)" fill="#DF0000" d="M-20,0h720v240H-20V0z"/>
	<path clip-path="url(#SVGID_2_)" fill="#FFFFFF" d="M146.05,40.227c-33.243,7.622-57.944,32.237-64.927,65.701
		c-9.488,45.469,20.124,89.99,65.687,99.488c-46.031,13.125-93.59-13.332-106.594-58.933c-12.996-45.6,13.46-93.16,59.063-106.162
		c16.007-4.564,30.745-4.594,46.772-0.095H146.05z"/>
	<path clip-path="url(#SVGID_2_)" fill="#FFFFFF" d="M132.98,109.953l4.894,15.118l-12.932-9.229l-12.87,9.316l4.783-15.144
		l-12.833-9.354l15.876-0.138l4.932-15.105l5.031,15.068l15.889,0.025L132.98,109.953z M150.539,162.012l4.894,15.119l-12.932-9.23
		l-12.87,9.317l4.783-15.144l-12.833-9.354l15.877-0.137l4.931-15.106l5.032,15.07l15.888,0.023L150.539,162.012z M208.964,161.637
		l4.894,15.119l-12.932-9.23l-12.87,9.317l4.783-15.144l-12.833-9.354l15.877-0.137l4.931-15.106l5.032,15.07l15.888,0.023
		L208.964,161.637z M226.392,110l4.894,15.117l-12.932-9.229l-12.87,9.317l4.783-15.144l-12.833-9.354l15.877-0.138l4.932-15.105
		l5.03,15.068l15.89,0.025L226.392,110z M180.136,75.743l4.895,15.118l-12.933-9.229l-12.87,9.316l4.783-15.143l-12.833-9.355
		l15.876-0.136l4.933-15.105l5.032,15.067l15.888,0.025L180.136,75.743z"/>
</g>
</svg>
