<?xml version="1.0" encoding="utf-8"?>
<!-- Generator: Adobe Illustrator 15.0.2, SVG Export Plug-In . SVG Version: 6.00 Build 0)  -->
<!DOCTYPE svg PUBLIC "-//W3C//DTD SVG 1.1//EN" "http://www.w3.org/Graphics/SVG/1.1/DTD/svg11.dtd">
<svg version="1.1" id="Layer_1" xmlns="http://www.w3.org/2000/svg" xmlns:xlink="http://www.w3.org/1999/xlink" x="0px" y="0px"
	 width="640px" height="480px" viewBox="0 0 640 480" enable-background="new 0 0 640 480" xml:space="preserve">
<g>
	<path fill="#19B6EF" d="M0,240h640v240H0V240z"/>
	<path fill="#FFFFFF" d="M0,0h640v240H0V0z"/>
	<path fill="#FFDD00" stroke="#7D6C00" stroke-width="2.3686" d="M317.07,339.221c52.449-39.239,108.96-119.306,42.74-161.41
		c-12.336-2.388-26.107-1.672-32.714,3.582c-3.501-1.99-6.288-1.83-9.79,1.91c-2.466-3.025-4.935-4.379-10.027-2.865
		c-10.188-5.173-19.42-6.288-31.518-3.104C218.139,211.955,253.396,294.093,317.07,339.221z"/>
	<path fill="#4FD46B" stroke="#3A9D4F" stroke-width="2.3686" stroke-linejoin="round" d="M414.08,250.106
		c0,0,5.902-7.938,6.105-7.938c5.904-3.46,6.516-7.938,6.516-7.938c5.902-1.833,4.07-6.718,4.477-7.328
		c2.853-3.053,1.833-6.107,1.426-7.126c0-0.812,2.036-8.345-0.813-9.361c0.135-8.009-4.818-7.262-8.754-2.036
		c-4.207,1.221-5.157,4.682-3.664,8.55c-5.497,0-5.7,7.938-4.071,12.416c-7.328-0.203-3.257,7.938-3.461,8.347
		C409.398,238.91,413.672,250.514,414.08,250.106z M367.857,318.3l3.664,2.239c0.746,2.78,3.324,4.547,5.293,4.071
		c0.951,4.274,5.563,3.665,8.957,1.222c2.713,3.936,6.039,4.004,10.586,2.646c4.069,2.984,9.363,1.696,12.823-1.426
		c3.731,3.053,6.243,0.814,8.143-2.442c2.917,0.746,5.224,0.272,6.31-2.646c5.7-0.475,2.85-5.835-1.83-8.143
		c3.73-3.258,7.87-9.975,2.035-10.993c-1.833-1.355-5.292-1.084-7.939,0.205c-0.678-2.986-4.818-3.732-9.364-0.408
		c-1.56-3.324-6.989-1.764-9.568,0.611c-3.256-2.85-7.124-2.85-12.823,0.406L367.857,318.3z M367.857,309.555
		c0.678-3.731-1.9-10.518,2.035-11.195c-0.746-6.243,0.34-13.3,7.531-12.621c1.155-5.902,0.883-11.399,7.736-12.215
		c0,0,5.497-19.134,11.197-5.902c2.238,3.869,1.832,10.177-2.647,8.955c0.883,4.751-0.678,8.89-5.903,8.755
		c2.308,3.323,1.561,7.871-1.018,9.976C380.479,300.055,374.169,304.807,367.857,309.555z M401.037,285.735l5.904-1.22
		c6.105-4.071,8.55-5.7,11.603-1.223c5.089-1.086,9.974-0.543,9.771,3.461c6.041,0.406,5.972,4.273,5.295,7.328
		c0.949,5.359-1.358,12.35-5.09,3.866c-11.808-7.191-18.525-6.242-37.254-2.034L401.037,285.735z M404.102,279.822
		c0.205-0.203,17.508-4.682,15.676-9.974c4.885-0.815,5.903-5.7,6.107-5.7c10.178-3.256,9.566-9.161,9.566-9.161
		c2.918-3.122,8.074-6.243,6.922-11.807c0.34-6.311,0.882-10.177-7.532-6.106c-6.311-0.611-8.55,3.054-10.382,8.551
		c-2.984-3.528-7.802,2.104-8.345,7.124c0,0-7.736,7.531-7.736,7.734s-6.514,12.01-6.514,12.01L404.102,279.822L404.102,279.822z"/>
	<path fill="#4FD46B" stroke="#3A9D4F" stroke-width="2.3686" stroke-linejoin="round" d="M404.502,266.397
		c-4.14-3.122-6.446-6.853-5.7-10.586c-2.713-3.664-4.614-5.903-2.034-9.16c0,0-2.037-7.329-2.037-7.532
		c-5.291-2.034-3.053-6.513-1.629-8.142c-2.51-3.461-2.578-7.126-0.203-10.382c-0.067-6.515,4.547-4.071,8.346,0
		c0,0,6.311,4.479,1.63,8.55c4.681,1.629,6.106,5.698,3.46,7.327c4.071,1.833,4.681,5.497,2.441,7.94
		c4.141,3.325,2.58,7.465,3.869,11.195L404.502,266.397z"/>
	<path fill="#4FD46B" stroke="#3A9D4F" stroke-width="2.3686" stroke-linejoin="round" d="M411.831,236.064
		c-0.203-0.203-6.92-8.753-5.089-9.364c-0.406-2.646-2.441-5.496-1.221-8.142c-3.324-3.325-3.394-7.26-0.814-10.38
		c-2.239-3.054-1.221-7.125,1.832-9.772c-0.95-5.021,2.579-6.175,5.7-7.126c2.307-8.074,6.038-5.971,8.142,0.203
		c3.19,2.782,2.715,6.99,1.63,10.181c3.8,2.577,1.492,5.766-0.204,7.124L411.831,236.064z"/>
	<path fill="#4FD46B" stroke="#3A9D4F" stroke-width="2.3686" stroke-linejoin="round" d="M410.814,193.106l-5.699-5.7
		c1.473-3.02,2.658-8.344-1.627-10.789c-2.364-5.757-14.183-12.892-16.083,0.815c-1.8-4.136-5.563-8.21-8.345-3.46
		c-6.176-5.292-9.5-3.665-6.312,3.053c0,0-2.849,4.479,4.682,7.939c0.611,0.609-2.441,8.142,6.516,8.345
		c-1.696,2.579,1.086,6.175,4.682,5.903c-2.579,3.189,1.765,6.583,4.478,5.294c-1.154,3.527-1.086,5.225,3.867,5.7l5.497,6.31
		l4.478,6.106L410.814,193.106z"/>
	<path fill="none" stroke="#3A9D4F" stroke-width="2.2204" stroke-linecap="round" d="M414.28,246.508
		c0.288-0.288,10.938-24.757,12.378-32.243 M415.43,203.05c0,0,1.727,19.864-3.167,34.545 M382.615,182.895
		c0,0,21.879,21.015,23.893,29.651 M397.873,180.596c0,0,1.439,17.274,7.484,34.259 M436.45,243.343c0,0-21.879,18.425-32.53,34.545
		 M415.712,307.84c0,0-28.788,4.029-41.454,4.317 M406.218,320.215c0,0-35.698-0.864-38.29-3.454 M388.361,273.859
		c0,0.287-18.137,30.226-18.713,40.015"/>
	<path fill="#65C7FF" stroke="#7D6C00" stroke-width="2.3686" d="M316.87,333.441c-37.768-35.624-76.454-102.481-37.972-136.27
		c6.84,3.88,14.903,0.409,26.03-3.98c3.368,3.674,7.654,4.594,11.942,1.837c4.797,2.042,8.37,0.408,10.718-2.144
		c10.922,6.33,24.906,9.596,28.172,3.37C393.63,232.184,355.249,299.349,316.87,333.441z"/>
	<path fill="#8FC753" d="M317.086,332.407c-16.219-16.307-31.017-34.385-42.347-57.659c1.938-1.633,2.84-2.139,3.861-4.997
		c5.818,0.817,8.88,1.021,16.536-0.307c1.53,5.718,1.837,10.515,5.511,15.312l7.656-15.005c5.205,1.226,11.637,1.532,16.535,0
		c3.165,4.288,2.042,10.72,7.656,15.617c3.368-9.899,6.738-10.614,10.105-15.924c5.002,1.736,8.168,1.021,12.25-0.307
		c2.144,2.45,1.072,2.41,4.976,6.007C349.592,295.465,335.561,315.873,317.086,332.407z"/>
	<path fill="#FFFFFF" stroke="#000000" stroke-width="1.111" d="M272.65,164.304c0.004,1.848-1.491,3.349-3.339,3.353
		c-1.848,0.004-3.349-1.491-3.353-3.339c0-0.005,0-0.009,0-0.014c0.004-1.848,1.505-3.343,3.353-3.339
		C271.153,160.968,272.646,162.461,272.65,164.304z M269.158,156.594c0.031,1.848-1.44,3.371-3.288,3.403
		c-1.848,0.031-3.371-1.44-3.403-3.288c0-0.039,0-0.077,0-0.115c0.032-1.848,1.556-3.32,3.403-3.288
		C267.673,153.337,269.127,154.791,269.158,156.594z M265.085,149.465c0.004,1.848-1.491,3.349-3.339,3.353
		c-1.848,0.004-3.35-1.491-3.353-3.339c0-0.005,0-0.01,0-0.014c0.003-1.849,1.505-3.343,3.353-3.34
		C263.588,146.129,265.081,147.622,265.085,149.465z M262.321,142.482c0,1.848-1.498,3.347-3.346,3.347s-3.346-1.499-3.346-3.347
		s1.498-3.346,3.346-3.346S262.321,140.634,262.321,142.482z M262.757,134.918c0.032,1.848-1.44,3.371-3.288,3.402
		c-1.848,0.032-3.371-1.439-3.403-3.287c0-0.039,0-0.077,0-0.115c0.032-1.848,1.555-3.32,3.403-3.288
		C261.272,131.661,262.726,133.115,262.757,134.918z M280.42,122.406c0.004,1.849-1.491,3.35-3.339,3.354
		c-1.848,0.004-3.35-1.491-3.353-3.34c0-0.004,0-0.009,0-0.014c0.003-1.848,1.505-3.343,3.353-3.339
		C278.923,119.072,280.416,120.565,280.42,122.406z"/>
	<path fill="#FFFFFF" stroke="#000000" stroke-width="1.111" d="M273.814,123.571c0.004,1.849-1.491,3.35-3.339,3.354
		c-1.848,0.003-3.349-1.491-3.353-3.34c0-0.004,0-0.009,0-0.014c0.004-1.848,1.505-3.343,3.353-3.339
		C272.317,120.236,273.811,121.728,273.814,123.571z M266.54,127.935c0.004,1.848-1.491,3.349-3.339,3.353s-3.349-1.491-3.353-3.339
		c0-0.005,0-0.009,0-0.014c0.003-1.848,1.504-3.343,3.353-3.339C265.043,124.6,266.536,126.092,266.54,127.935z M288.943,122.552
		c0.004,1.848-1.491,3.349-3.339,3.353c-1.848,0.004-3.349-1.491-3.353-3.339c0-0.005,0-0.009,0-0.014
		c0.004-1.848,1.505-3.343,3.353-3.339C287.446,119.216,288.939,120.709,288.943,122.552z M298.254,123.28
		c0.004,1.849-1.491,3.35-3.339,3.354c-1.848,0.003-3.35-1.491-3.353-3.34c0-0.004,0-0.009,0-0.014
		c0.003-1.848,1.505-3.343,3.353-3.339C296.757,119.945,298.25,121.437,298.254,123.28z M306.546,122.843
		c0.004,1.848-1.491,3.349-3.339,3.353c-1.848,0.004-3.35-1.491-3.353-3.339c0-0.005,0-0.009,0-0.014
		c0.003-1.848,1.505-3.343,3.353-3.339C305.049,119.507,306.542,121,306.546,122.843z"/>
	<path fill="#FFDD00" stroke="#7D6C00" stroke-width="1.1109" d="M325.874,117.504c0.007,4.74-3.831,8.588-8.571,8.594
		c-4.74,0.007-8.588-3.831-8.595-8.571c0-0.008,0-0.015,0-0.022c0-4.74,3.843-8.583,8.583-8.583S325.874,112.764,325.874,117.504z"
		/>
	<path fill="#FFFFFF" stroke="#000000" stroke-width="1.111" d="M334.913,122.698c0.004,1.849-1.491,3.35-3.339,3.354
		c-1.849,0.003-3.35-1.491-3.354-3.34c0-0.004,0-0.009,0-0.014c0.004-1.848,1.505-3.343,3.354-3.339
		C333.416,119.363,334.909,120.856,334.913,122.698z M343.643,123.425c0.031,1.848-1.441,3.371-3.289,3.403
		c-1.848,0.031-3.371-1.44-3.402-3.288c-0.001-0.039-0.001-0.077,0-0.115c0.031-1.848,1.555-3.32,3.402-3.288
		C342.157,120.168,343.611,121.622,343.643,123.425z M352.08,122.988c0,1.849-1.498,3.347-3.347,3.347s-3.347-1.498-3.347-3.347
		c0.004-1.848,1.505-3.343,3.354-3.339C350.582,119.653,352.075,121.145,352.08,122.988L352.08,122.988z M359.207,122.698
		c0.004,1.849-1.491,3.35-3.34,3.354c-1.848,0.003-3.349-1.491-3.352-3.34c0-0.004,0-0.009,0-0.014
		c0.003-1.848,1.504-3.343,3.352-3.339C357.711,119.363,359.203,120.856,359.207,122.698z M368.082,123.716
		c0.004,1.848-1.491,3.349-3.34,3.353c-1.848,0.004-3.349-1.491-3.352-3.339c0-0.005,0-0.01,0-0.014
		c0.003-1.848,1.504-3.343,3.352-3.34C366.586,120.38,368.078,121.873,368.082,123.716z M375.064,128.08
		c0.004,1.848-1.492,3.349-3.34,3.353s-3.349-1.491-3.353-3.34c0-0.004,0-0.009,0-0.013c0.004-1.849,1.505-3.344,3.353-3.34
		C373.567,124.744,375.061,126.238,375.064,128.08z"/>
	<path fill="#E40000" stroke="#AC0000" stroke-width="2.3686" d="M269.414,151.697c2.85,5.42,5.698,11.051,8.548,16.471h79.229
		l9.175-15.847c-5.353-3.683-9.035-6.532-16.681-4.795c-4.31-6.185-9.034-7.366-16.054-6.671c-2.086-2.154-3.963-3.475-7.508-3.961
		l-16.678,0.416c-4.38,0.416-7.716,3.753-7.924,3.753c-7.09-0.835-13.552-0.627-15.22,6.254
		C279.839,145.718,275.252,147.457,269.414,151.697z"/>
	<path fill="#FFFFFF" stroke="#000000" stroke-width="1.111" d="M377.975,135.354c0.003,1.848-1.492,3.35-3.34,3.353
		c-1.848,0.004-3.35-1.491-3.353-3.339c0-0.005,0-0.009,0-0.014c0.003-1.848,1.505-3.343,3.353-3.339
		C376.478,132.019,377.971,133.511,377.975,135.354z M378.556,143.21c0.004,1.848-1.491,3.349-3.339,3.353s-3.35-1.491-3.353-3.339
		c0-0.005,0-0.01,0-0.014c0.003-1.849,1.505-3.343,3.353-3.34C377.06,139.874,378.553,141.367,378.556,143.21z M376.082,150.484
		c0.004,1.849-1.491,3.35-3.34,3.354c-1.848,0.003-3.349-1.492-3.352-3.34c0-0.004,0-0.009,0-0.014
		c0.003-1.848,1.504-3.343,3.352-3.339C374.586,147.149,376.078,148.641,376.082,150.484z M373.027,156.448
		c0.004,1.849-1.492,3.35-3.34,3.354c-1.848,0.003-3.349-1.491-3.353-3.34c0-0.004,0-0.009,0-0.014
		c0.004-1.848,1.505-3.343,3.353-3.339C371.53,153.113,373.023,154.606,373.027,156.448z M369.391,164.013
		c0.045,1.848-1.416,3.382-3.264,3.427s-3.382-1.416-3.427-3.264c-0.001-0.054-0.001-0.108,0-0.163
		c0.045-1.848,1.579-3.309,3.427-3.264C367.91,160.793,369.347,162.229,369.391,164.013z"/>
	<path fill="#FFFFFF" stroke="#000000" stroke-width="1.1105" d="M322.566,154.424c0,2.731-2.215,4.946-4.947,4.946
		s-4.947-2.215-4.947-4.946c0-2.732,2.215-4.946,4.947-4.946S322.566,151.692,322.566,154.424z"/>
	<path fill="#FFFFFF" stroke="#000000" stroke-width="1.1105" d="M323.546,143.045c0,3.294-2.671,5.965-5.965,5.965
		c-3.294,0-5.965-2.671-5.965-5.965c0-3.295,2.67-5.965,5.965-5.965C320.875,137.08,323.546,139.75,323.546,143.045z"/>
	<path fill="#FFFFFF" stroke="#000000" stroke-width="1.1094" d="M322.686,131.995c0.039,2.973-2.338,5.415-5.311,5.455
		s-5.415-2.337-5.455-5.31c0-0.049,0-0.098,0-0.146c0.04-2.974,2.482-5.351,5.455-5.311
		C320.291,126.725,322.646,129.079,322.686,131.995z"/>
	<path fill="#FFDD00" stroke="#7D6C00" stroke-width="1.111" d="M315.487,109.055c0-0.926-0.028-4.165,0.037-4.295l-3.572-0.064
		l0.102-3.175l3.101-0.037l0.037-2.774h4.395v2.544h3.47l-0.071,3.378l-3.601-0.037l-0.03,4.525L315.487,109.055z"/>
	<path fill="none" stroke="#FFDD00" stroke-width="3.3314" d="M277.56,168.17c-7.092-12.023-17.51-28.367-11.053-35.444
		c8.955-10.143,29.953-0.973,43.367-6.881c0.972,11.468-2.224,30.439,2.92,34.403l-4.796,4.17c-2.92-3.753-8.418-8.782-15.22,0.208
		c-3.893-3.403-8.316-2.806-10.4,1.72C280.396,166.613,280.511,167.406,277.56,168.17L277.56,168.17z M357.68,167.754
		c7.09-12.023,17.51-28.367,11.051-35.444c-8.955-10.143-29.951-0.973-43.365-6.882c-0.973,11.469,2.223,30.44-2.92,34.404
		l4.795,4.17c4.613-6.489,10.373-6.699,15.22,0.207c3.894-3.403,7.925-2.937,10.399,1.721
		C354.843,166.197,354.729,166.99,357.68,167.754z"/>
	<path fill="#FFDD00" stroke="#7D6C00" stroke-width="2.3686" d="M277.343,177.132c28.495-2.918,54.904-1.877,79.23,0l3.127-8.967
		c-27.66-5.003-46.773-5.628-82.982-0.624L277.343,177.132L277.343,177.132z"/>
	<path fill="#C76E2E" d="M314.121,329.377c0.205-1.431,0.408-2.763,0.613-4.191c2.834,0.763,4.996,0.468,7.35-0.402
		c0.814-1.225,1.633-2.449,2.45-3.676l-1.838-2.142c-1.615,0.348-2.941,1.85-3.98,3.157c-1.628,0.077-3.063-0.709-4.595-1.016
		l-1.53-6.43c-1.52-1.795-4.671-1.668-3.982,1.531l0.307,2.449c0.613,1.531,0.841,3.64,1.837,4.785v2.512
		C311.876,327.096,312.999,328.235,314.121,329.377z M315.337,311.086c-2.13,1.057-4.659-0.779-7.349-1.836
		c-2.45-0.168-4.419,1.871-7.35,1.224c0.535-1.59,1.837-1.837,2.757-2.756c-0.673-4.132,1.53-5.513,2.144-5.513
		c0.61,0,3.061,0.613,3.061,0.613l2.45,0.307C312.481,305.779,314.484,308.145,315.337,311.086z"/>
	<path fill="#FFE100" stroke="#E9BF00" stroke-width="2.3686" d="M300.779,366.088c7.065-11.472,56.259-34.508,102.422-84.25
		c-46.99,45.242-76.357,56.35-114.813,83.974L300.779,366.088z"/>
	<path fill="#9D4916" stroke="#68300E" stroke-width="1.111" d="M368.406,313.186c0.033,1.979-1.544,3.608-3.521,3.642
		c-1.979,0.033-3.608-1.544-3.642-3.521c-0.001-0.04-0.001-0.08,0-0.12c0.033-1.979,1.663-3.555,3.642-3.521
		C366.816,309.697,368.373,311.254,368.406,313.186z M402.786,278.323c0.05,2.242-1.728,4.1-3.97,4.149
		c-2.241,0.05-4.099-1.728-4.148-3.97c-0.001-0.06-0.001-0.119,0-0.18c0.05-2.241,1.907-4.019,4.148-3.969
		C400.988,274.402,402.738,276.151,402.786,278.323z M414.252,248.713c0.033,1.978-1.543,3.608-3.521,3.642
		s-3.608-1.544-3.642-3.521c-0.001-0.04-0.001-0.08,0-0.12c0.033-1.979,1.663-3.555,3.642-3.521
		C412.662,245.224,414.22,246.781,414.252,248.713z M403.02,210.28c0,1.979-1.604,3.582-3.582,3.582
		c-1.978,0-3.582-1.604-3.582-3.582l0,0c0-1.978,1.604-3.582,3.582-3.582C401.416,206.698,403.02,208.302,403.02,210.28z"/>
	<path fill="#FFFFFF" stroke="#A9A9A9" stroke-width="1.111" d="M279.125,269.595v-15.148l-1.54-1.282v-3.595l2.824-0.257
		l0.513-16.945l-1.797-1.027l-0.257-2.823c0,0,2.054,0.771,2.054,0.257c0-0.513,0.513-3.339,0.513-3.339s-1.282-0.256-1.282-0.77
		c0-0.515,1.539-1.797,1.539-1.797s-0.77-0.771-1.026-1.284c-0.256-0.514-0.77-2.823-0.77-2.823l0.77-2.825l-0.513-1.54
		l-1.285-2.311l1.798-1.797c0,0-0.513-2.311-0.513-2.824c0-0.515,1.282-2.567,1.539-2.825c0.258-0.256,2.312-3.08,2.312-3.08
		l4.364-1.027l5.135,0.771l2.824,1.798l0.513,4.62c0,0-0.513,2.824-0.77,2.824c-0.257,0-2.311,1.027-2.311,1.027
		s-2.569,0.257-2.825,0c-0.256-0.256,0.77,3.081,0.77,3.081v3.08l-0.256,3.852c0,0,0,1.798-0.258,2.054
		c-0.256,0.257-0.77,1.028-0.77,1.028l-0.256,3.851l4.108,1.026l-0.257,2.312l-2.825,0.257l0.515,15.66l4.108,0.771v4.365
		l-1.798,1.026l-0.513,15.66L279.125,269.595L279.125,269.595z M341.521,269.861v-15.147l-1.539-1.282v-3.595l2.823-0.256
		l0.514-16.945l-1.798-1.028l-0.256-2.823c0,0,2.054,0.771,2.054,0.257c0-0.515,0.513-3.339,0.513-3.339s-1.282-0.257-1.282-0.77
		s1.539-1.797,1.539-1.797s-0.77-0.771-1.026-1.284c-0.256-0.513-0.77-2.823-0.77-2.823l0.77-2.826l-0.513-1.539l-1.285-2.311
		l1.798-1.798c0,0-0.513-2.31-0.513-2.823c0-0.513,1.282-2.566,1.539-2.825c0.258-0.257,2.312-3.08,2.312-3.08l4.365-1.027
		l5.135,0.771l2.824,1.798l0.513,4.62c0,0-0.513,2.824-0.771,2.824c-0.257,0-2.31,1.027-2.31,1.027s-2.569,0.257-2.825,0
		s0.771,3.082,0.771,3.082V218l-0.257,3.85c0,0,0,1.798-0.259,2.055c-0.256,0.256-0.77,1.027-0.77,1.027l-0.256,3.852l4.107,1.026
		l-0.257,2.313l-2.825,0.256l0.516,15.661l4.107,0.77v4.365l-1.798,1.025l-0.513,15.661H341.521z M309.94,270.378V255.23
		l-1.54-1.283v-3.594l2.825-0.257l0.513-16.945l-1.798-1.027l-0.256-2.823c0,0,2.054,0.77,2.054,0.256s0.513-3.338,0.513-3.338
		s-1.283-0.256-1.283-0.771c0-0.514,1.54-1.797,1.54-1.797s-0.77-0.77-1.027-1.284c-0.257-0.514-0.77-2.822-0.77-2.822l0.77-2.825
		l-0.513-1.54l-1.284-2.312l1.797-1.798c0,0-0.513-2.31-0.513-2.822c0-0.514,1.283-2.567,1.54-2.825
		c0.257-0.256,2.312-3.08,2.312-3.08l4.364-1.028l5.136,0.772l2.823,1.797l0.513,4.62c0,0-0.513,2.823-0.771,2.823
		c-0.257,0-2.31,1.028-2.31,1.028s-2.568,0.256-2.825,0s0.771,3.081,0.771,3.081v3.08l-0.257,3.851c0,0,0,1.799-0.258,2.055
		c-0.257,0.257-0.77,1.027-0.77,1.027l-0.257,3.851l4.107,1.026l-0.256,2.313l-2.825,0.256l0.515,15.661l4.107,0.77v4.366
		l-1.797,1.026l-0.514,15.66L309.94,270.378L309.94,270.378z"/>
	<path d="M282.923,269.495v-11.938h6.686v12.416L282.923,269.495z M314.438,270.444l0.238-12.178h5.971v11.938L314.438,270.444
		L314.438,270.444z M345.486,270.211l-0.479-11.46l6.448-0.24v11.939L345.486,270.211z M284.588,234.149h3.82v6.208h-3.82V234.149z
		 M314.92,234.399h5.254v5.97h-5.253L314.92,234.399z M345.953,234.865h4.537v5.73h-4.537V234.865z"/>
	<path fill="none" stroke="#A8A8A8" stroke-width="1.111" d="M286.57,206.965c4.107,4.62,4.365,4.62,4.365,4.62 M317.12,206.965
		c0.769,1.539,2.053,4.877,3.594,5.133 M349.984,207.73c0,0,1.283,3.595,3.08,4.108"/>
	<path fill="#B97700" d="M282.206,194.022c12.012-3.883-2.806-11.647-5.267,0c-3.886,0.628-4.389,3.511-12.789,2.259
		c-20.313,33.103-5.267,86.519,54.169,141.816c-106.457-90.594-63.194-157.604-33.714-155.077
		C300.639,184.115,292.55,204.115,282.206,194.022z"/>
	<path fill="none" stroke="#7D6C00" stroke-width="2.3686" d="M285.554,177.049c0,0,9.781,2.633,9.781,6.77 M295.332,176.299
		c0,0,6.771,3.008,8.275,5.642 M348.751,177.432c0,0-8.653,1.129-10.534,3.76 M335.575,178.181c0,0-4.888,4.138-4.515,5.265
		 M334.46,196.237c-0.753-0.376-4.138-4.89-3.387-10.532 M301.345,193.24c0,0,2.257-2.634,2.257-7.524 M317.153,183.828
		l0.376,10.908 M326.93,193.24c0-0.754,3.01-7.899-0.376-11.285 M306.242,180.447c0,0-2.633,7.147-0.75,13.165 M325.431,186.843
		c0,0-4.137,1.128-6.02,3.01 M307.742,187.959c0-0.375,4.514-1.128,6.018,1.506"/>
	<path fill="#C76E2E" d="M300.63,301.86c0.19,0.096,3.745-0.674,3.745-2.402c1.826-1.152,0.48-4.419,0.48-4.419l-3.361-0.674
		l-4.613-5.187c-0.223-1.601,0.322-3.104-0.671-4.802c-3.17,0.833-4.995,3.489-6.053,6.53c0.77,0.962,0.866,2.019,2.307,2.883
		c1.504,0.257,2.528-0.641,3.938-0.384c0.735,1.28,0.51,2.37,0.767,3.556C299.092,298.305,299.476,300.227,300.63,301.86
		L300.63,301.86z M296.498,279.672v-6.148l-4.419-0.192c-0.545,0.93-1.57,1.378-2.21,2.21l-3.074,1.538
		c1.281,1.536,2.85,2.401,3.843,3.17C292.88,280.922,294.738,280.922,296.498,279.672z M282.656,288.8l-2.402-4.036
		c1.473-0.48,3.33-0.288,4.707,0.289c0,0,1.058,2.498,0.289,3.458C284.865,289.375,282.56,288.99,282.656,288.8L282.656,288.8z
		 M319.168,292.931c1.281-0.64,2.466-1.76,2.689-3.361l-4.418-5.092l-4.034-0.095c-0.928-0.961-2.435-1.153-3.65-1.153
		c0,0,1.25,1.92,2.882,2.306C313.79,288.127,318.785,292.931,319.168,292.931z M323.5,293.498c0-0.096,3.938-1.441,6.05-1.248
		c-0.19-1.635,2.979-5.38,2.979-5.38l5.572,7.3c-1.025,0.864-2.819,0.577-4.229,0.864c0,0-2.689,2.595-2.979,2.69
		c-0.287,0.096-5.187,1.248-7.59-0.191C322.25,295.516,323.595,293.209,323.5,293.498L323.5,293.498z M326.664,280.722
		c0.673-2.337,0.864-4.676,0-7.59c0,0-6.341-0.097-6.341,0c0,0.096-4.227,1.921-4.227,2.018c0,0.098,1.346,4.13,2.979,3.746
		c0.736,2.146,2.913,1.601,3.938,2.402C324.23,281.106,325.446,280.913,326.664,280.722z M351.55,274.292
		c-0.864,2.658-1.345,5.509-0.097,8.069c1.152,0.192,2.498,0.96,3.555,0.769l5.092-9.224
		C356.577,272.787,353.727,272.915,351.55,274.292z"/>
	<path fill="#B97700" d="M353.115,193.19c-12.012-3.884,2.807-11.649,5.267,0c3.886,0.627,4.39,3.51,12.79,2.258
		c20.313,33.103,5.266,86.519-54.17,141.816c106.457-90.594,63.194-157.604,33.715-155.077
		C334.684,183.282,342.771,203.282,353.115,193.19L353.115,193.19z"/>
	<path fill="#C76E2E" d="M354.331,284.67c-0.191,0-3.073,2.111-3.073,2.111c-1.378,0.544-2.753,1.09-4.13,1.635l-4.42,0.095
		l-0.961-3.074l3.362-2.978c-2.85-0.416-5.699,0.705-7.974,2.787c0,0,0,3.36,1.923,4.994c1.152,1.44,4.514,4.035,4.514,4.035
		c2.113,0.416,4.131,0.063,5.476-1.058C350.809,290.367,352.571,287.519,354.331,284.67L354.331,284.67z M331.078,314.834
		c1.443,0.386,11.337-12.775,11.337-12.775c-0.865-2.465-2.787-4.259-4.899-5.38c0,0-4.806,5.667-4.9,7.589
		c-0.768,1.729-2.977,8.357-2.018,9.223C330.502,313.683,330.118,316.371,331.078,314.834z"/>
	<path fill="#006800" stroke="#004100" stroke-width="2.3686" stroke-linejoin="round" d="M266.366,317.4
		c-14.817-12.887-34.809-19.991-62.716-10.35c7.51,3.247,15.628,4.364,22.529,7.915L266.366,317.4z"/>
	<path fill="none" stroke="#00A400" stroke-width="2.2204" stroke-linecap="round" d="M223.44,308.256
		c29.227,0.607,37.752,7.912,36.23,6.695"/>
	<path fill="#006800" stroke="#004100" stroke-width="2.2204" stroke-linejoin="round" d="M266.965,318.916
		c-8.728,1.724-20.804,10.153-24.356,9.74c-9.54-1.109-18.454-4.975-27.704-7.915c-3.842-1.221-7.713,0-11.57,0
		C236.115,305.216,247.278,307.346,266.965,318.916z"/>
	<path fill="#006800" stroke="#004100" stroke-width="2.3686" stroke-linejoin="round" d="M245.361,296.08
		c0,0-10.959,1.52-15.83,1.824c-4.873-0.303-11.955-4.842-19.79-13.09c-4.088-4.479-13.396-3.958-13.396-3.958
		C216.948,276.491,232.98,280.653,245.361,296.08L245.361,296.08z M230.436,274.775c-14.92-0.914-33.49-14.308-37.751-30.139
		c-0.002,0.202,5.479,3.45,4.566,4.263C221.708,255.089,223.332,260.06,230.436,274.775z M255.405,300.344
		c2.13-13.498,2.74-22.427-3.653-30.444c-5.277-6.09-6.596-9.743-10.35-18.268C240.286,269.392,236.428,284.106,255.405,300.344z
		 M231.952,262.899c11.06-16.136,12.99-28.313,11.264-47.494c-0.305,1.522-3.958,10.96-4.261,10.96
		C222.515,236.715,229.822,252.853,231.952,262.899z"/>
	<path fill="#006800" stroke="#004100" stroke-width="2.3686" stroke-linejoin="round" d="M222.225,184.96
		c11.06,16.136,9.336,31.359,7.61,50.54c-0.305-1.523-3.958-10.96-4.26-10.96C209.134,214.189,220.095,195.006,222.225,184.96z"/>
	<path fill="#006800" stroke="#004100" stroke-width="2.3686" stroke-linejoin="round" d="M231.353,209.93
		c26.79-13.498,16.438-30.648,21.31-43.84C234.093,179.892,231.657,194.605,231.353,209.93z"/>
	<path fill="none" stroke="#00A400" stroke-width="2.2204" stroke-linecap="round" d="M235,206.581
		c3.35-9.438,10.048-25.573,10.656-25.573 M227.088,226.37c-0.608-6.7-3.956-24.662-4.26-26.488"/>
	<path fill="#006800" stroke="#004100" stroke-width="2.3686" stroke-linejoin="round" d="M228.304,256.502
		c-14.92-0.914-31.055-21.311-35.315-37.142c-0.001,0.201,5.479,3.45,4.565,4.263C218.966,233.161,221.2,241.788,228.304,256.502
		L228.304,256.502z M223.874,242.493c-11.06-16.136-12.99-28.313-11.264-47.493c0.305,1.521,3.958,10.96,4.261,10.96
		C233.311,216.31,226.004,232.448,223.874,242.493z M233.785,214.194c27.703-12.279,19.178-25.167,27.399-38.665
		C242.613,189.331,234.089,198.868,233.785,214.194L233.785,214.194z"/>
	<path fill="none" stroke="#00A400" stroke-width="2.2204" stroke-linecap="round" d="M235,211.445
		c11.266-11.265,15.223-20.703,15.223-20.703"/>
	<path fill="#FFE100" stroke="#E9BF00" stroke-width="2.3686" d="M333.561,366.355l13.489,0.274
		c-44.787-41.941-130.599-60.204-118.667-137.39C216.085,312.941,298.5,320.65,333.561,366.355z"/>
	<path fill="#9D4916" stroke="#68300E" stroke-width="1.111" d="M235.417,212.66c0.003,2.374-1.919,4.301-4.293,4.304
		c-2.373,0.003-4.3-1.919-4.303-4.293c0-0.003,0-0.007,0-0.011c0.003-2.373,1.93-4.295,4.303-4.292
		C233.494,208.371,235.414,210.291,235.417,212.66z M232.785,236.297c0.05,2.241-1.728,4.1-3.969,4.149
		c-2.242,0.05-4.1-1.728-4.149-3.97c-0.001-0.06-0.001-0.12,0-0.18c0.05-2.242,1.907-4.019,4.149-3.969
		C230.988,232.376,232.737,234.125,232.785,236.297z M236.6,269.978c0,1.979-1.604,3.582-3.582,3.582s-3.582-1.604-3.582-3.582
		s1.604-3.582,3.582-3.582S236.6,267.999,236.6,269.978z M267.876,307.223c0.033,1.978-1.543,3.608-3.521,3.642
		s-3.608-1.544-3.642-3.521c0-0.04,0-0.08,0-0.12c0.033-1.979,1.664-3.555,3.642-3.521
		C266.286,303.734,267.844,305.291,267.876,307.223z M272.412,317.906c0.033,1.979-1.544,3.608-3.521,3.642
		c-1.978,0.033-3.608-1.543-3.642-3.521c-0.001-0.04-0.001-0.08,0-0.12c0.033-1.978,1.664-3.555,3.642-3.521
		C270.822,314.418,272.38,315.975,272.412,317.906z"/>
	<path fill="#FFFFFF" stroke="#000000" stroke-width="1.111" d="M288.203,349.031c-2.355-2.134-3.853-3.503-4.777-5.828
		l-14.044-1.527c-0.063,2.675-0.126,5.349-0.191,8.023L288.203,349.031L288.203,349.031z"/>
	<path fill="#FFFFFF" stroke="#000000" stroke-width="1.111" stroke-linejoin="round" d="M185.313,339.57
		c8.157,1.507,20.456-0.752,24.472,4.519c4.822,5.465-15.093,13.871-12.241,18.6c6.16,6.518,12.5,3.83,19.394,0.227
		c1.624-3.523,2.878-9.805,3.766-11.673c-2.51-5.772-9.253-8.601-7.53-17.319c11.37-4.249,33.23-3.897,35.583-2.258
		c1.848,3.623,0.188,5.272,0.564,8.159c-1.883,3.641-6.729,9.811-6.738,13.074c11.93,4.203,15.074-0.647,25.806-0.362
		c12.575,0.154,20.226,3.53,22.955-1.468c-1.87-4.315-13.403-0.805-17.78-3.577c-2.19-0.74-3.604-2.5-5.496-4.439
		c-1.892-1.94-7.21-2.04-8.007-6.817c2.225-10.214,16.965-8.653,19.375-10.217l38.405,2.635c6.957-0.196,10.892,12.323,1.497,16.09
		c-9.394,3.768-37.18-5.588-49.233,0.843c-0.623-2.623-9.283-6.588-9.907-6.713c-3.69,1.104-10.88,0.699-10.88,0.699
		c-1.758,3.264-3.764,5.652-5.521,8.915c-7.975-3.497-15.514,2.716-24.224,0.874c0,0-13.178,1.506-13.554,1.506
		s-8.658-0.753-8.658-0.753c-4.394,1.255-8.785,2.511-13.178,3.766l9.412-8.284L185.313,339.57L185.313,339.57z"/>
	<path fill="#FFFFFF" stroke="#000000" stroke-width="1.111" d="M184.732,337.953c0.002,2.005-1.621,3.633-3.625,3.635
		c-2.005,0.003-3.632-1.62-3.635-3.625c0-0.004,0-0.006,0-0.01c0.003-2.004,1.63-3.627,3.635-3.625
		C183.108,334.33,184.729,335.952,184.732,337.953z M183.78,355.91c0.002,2.005-1.621,3.633-3.626,3.635
		c-2.005,0.003-3.632-1.621-3.634-3.625c0-0.004,0-0.006,0-0.01c0.002-2.004,1.629-3.628,3.634-3.625
		C182.156,352.287,183.777,353.909,183.78,355.91z"/>
	<path fill="#FFFFFF" stroke="#000000" stroke-width="1.111" d="M346.253,349.097c2.354-2.134,3.853-3.503,4.777-5.828l14.043-1.528
		l0.191,8.024L346.253,349.097z"/>
	<path fill="#FFFFFF" stroke="#000000" stroke-width="1.111" stroke-linejoin="round" d="M449.143,339.636
		c-8.156,1.506-20.457-0.753-24.473,4.517c-4.822,5.465,15.093,13.872,12.242,18.6c-6.16,6.518-12.5,3.83-19.395,0.227
		c-1.623-3.523-2.877-9.804-3.766-11.671c2.51-5.774,9.253-8.603,7.53-17.32c-11.371-4.25-33.23-3.897-35.584-2.26
		c-1.847,3.624-0.188,5.274-0.563,8.161c1.883,3.64,6.729,9.81,6.738,13.074c-11.93,4.203-15.075-0.648-25.807-0.363
		c-12.574,0.154-20.226,3.531-22.955-1.467c1.869-4.315,13.404-0.805,17.781-3.577c2.189-0.74,3.603-2.5,5.495-4.44
		c1.894-1.939,7.21-2.04,8.007-6.815c-2.226-10.216-16.966-8.654-19.375-10.218l-38.404,2.635
		c-6.958-0.196-10.892,12.322-1.498,16.091c9.395,3.766,37.18-5.588,49.232,0.841c0.623-2.622,9.283-6.588,9.908-6.713
		c3.69,1.105,10.88,0.7,10.88,0.7c1.759,3.263,3.764,5.651,5.521,8.915c7.976-3.497,15.515,2.715,24.225,0.874
		c0,0,13.178,1.506,13.555,1.506s8.657-0.753,8.657-0.753l13.177,3.765c-3.136-2.762-6.273-5.521-9.41-8.284L449.143,339.636z"/>
	<path fill="#FFFFFF" stroke="#000000" stroke-width="1.111" d="M449.723,338.02c0,2.005,1.626,3.631,3.631,3.631
		s3.631-1.626,3.631-3.631s-1.625-3.63-3.631-3.63C451.35,334.39,449.724,336.015,449.723,338.02L449.723,338.02z M450.675,355.976
		c0,2.005,1.626,3.63,3.63,3.63c2.005,0,3.631-1.625,3.631-3.63s-1.626-3.63-3.631-3.63
		C452.301,352.346,450.675,353.971,450.675,355.976z"/>
	<path fill="#FFFFFF" d="M316.986,329.343c-3.231-0.606-4.38-0.434-6.57-0.65c-1.715,5.271-3.427,10.541-5.141,15.812
		c7.938,0.717,15.29,0.717,15.29,0.651C315.749,344.18,316.921,329.407,316.986,329.343z"/>
	<text transform="matrix(1 0 0 1 282.3315 340.178)" font-family="'TrebuchetMS-Bold'" font-size="14.9913">L</text>
	<text transform="matrix(1 0 0 1 290.7183 340.7561)" font-family="'TrebuchetMS-Bold'" font-size="14.9913">I</text>
	<text transform="matrix(1 0 0 1 295.7783 341.4788)" font-family="'TrebuchetMS-Bold'" font-size="14.9913">B</text>
	<text transform="matrix(1 0 0 1 305.6094 342.2034)" font-family="'TrebuchetMS-Bold'" font-size="14.9913">E</text>
	<text transform="matrix(1 0 0 1 315.1523 342.3459)" font-family="'TrebuchetMS-Bold'" font-size="14.9913">R</text>
	<text transform="matrix(1 0 0 1 324.5518 342.0569)" font-family="'TrebuchetMS-Bold'" font-size="14.9913">T</text>
	<text transform="matrix(1 0 0 1 333.3721 340.6116)" font-family="'TrebuchetMS-Bold'" font-size="14.9913">A</text>
	<text transform="matrix(1 0 0 1 343.7822 340.178)" font-family="'TrebuchetMS-Bold'" font-size="14.9913">S</text>
	<path fill="none" stroke="#00A400" stroke-width="2.2204" stroke-linecap="round" d="M231.353,318.615
		c10.047,1.219,24.052,0.305,30.14-0.001 M216.128,284.203c8.525,6.697,27.096,10.653,26.791,10.653 M253.573,296.696
		c-2.74-14.004-5.783-17.353-8.219-26.183 M201.82,254.67c14.31,6.393,16.439,10.653,25.573,17.047 M232.569,257.718
		c1.219-17.355,3.653-21.922,7.917-25.88 M201.82,229.718c5.177,5.785,22.225,23.746,22.225,23.746 M217.044,213.877
		c6.395,4.565,6.395,21.005,6.395,21.005"/>
</g>
</svg>
