<?xml version="1.0" encoding="utf-8"?>
<!-- Generator: Adobe Illustrator 15.0.2, SVG Export Plug-In . SVG Version: 6.00 Build 0)  -->
<!DOCTYPE svg PUBLIC "-//W3C//DTD SVG 1.1//EN" "http://www.w3.org/Graphics/SVG/1.1/DTD/svg11.dtd">
<svg version="1.1" id="Layer_1" xmlns="http://www.w3.org/2000/svg" xmlns:xlink="http://www.w3.org/1999/xlink" x="0px" y="0px"
	 width="640px" height="480px" viewBox="0 0 640 480" enable-background="new 0 0 640 480" xml:space="preserve">
<g>
	<defs>
		<rect id="SVGID_1_" y="0" width="640.004" height="480"/>
	</defs>
	<clipPath id="SVGID_2_">
		<use xlink:href="#SVGID_1_"  overflow="visible"/>
	</clipPath>
	<path clip-path="url(#SVGID_2_)" fill="#3E5EB9" d="M-40,0h720v480H-40V0z"/>
	<path clip-path="url(#SVGID_2_)" fill="#FFD900" d="M-40,85.714h720v308.569H-40V85.714z"/>
	<path clip-path="url(#SVGID_2_)" fill="#B10C0C" d="M-40,120h720v240H-40V120z"/>
	<path clip-path="url(#SVGID_2_)" fill="#FFD900" stroke="#000000" stroke-width="1.474" d="M37.183,234.853h572.04
		c2.986,0,5.406,2.303,5.406,5.143l0,0c0,2.841-2.42,5.143-5.406,5.143H37.183c-2.986,0-5.407-2.302-5.407-5.143l0,0
		C31.776,237.156,34.196,234.853,37.183,234.853z"/>
	<path clip-path="url(#SVGID_2_)" fill="#FFFFFF" stroke="#000000" stroke-width="4.175" d="M551.386,185.14l-29.143,10.286
		l29.143,10.285l29.142-10.285L551.386,185.14z"/>
	<path clip-path="url(#SVGID_2_)" fill="#FFD900" stroke="#000000" stroke-width="1.333" d="M111.382,191.995h420.606
		c2.195,0,3.976,1.535,3.976,3.429l0,0c0,1.894-1.78,3.429-3.976,3.429H111.382c-2.195,0-3.975-1.535-3.975-3.429l0,0
		C107.407,193.531,109.187,191.995,111.382,191.995z"/>
	<path clip-path="url(#SVGID_2_)" fill="none" stroke="#000000" stroke-width="2.667" d="M525.676,198.85
		c1.713,0,3.431-1.714,3.431-3.428c0-1.715-1.718-3.429-3.431-3.429"/>
	<path clip-path="url(#SVGID_2_)" fill="none" stroke="#000000" stroke-width="2.667" d="M522.289,198.85
		c1.713,0,3.431-1.714,3.431-3.428c0-1.715-1.718-3.429-3.431-3.429"/>
	<path clip-path="url(#SVGID_2_)" fill="none" stroke="#000000" stroke-width="2.667" d="M518.807,198.851
		c1.712,0,3.43-1.714,3.43-3.428c0-1.715-1.718-3.429-3.43-3.429"/>
	<path clip-path="url(#SVGID_2_)" fill="#FFFFFF" stroke="#000000" stroke-width="4.175" d="M523.954,205.712l-29.142,10.285
		l29.142,10.285l29.142-10.285L523.954,205.712z"/>
	<path clip-path="url(#SVGID_2_)" fill="#FFD900" stroke="#000000" stroke-width="1.333" d="M83.951,212.568h420.607
		c2.195,0,3.976,1.535,3.976,3.429l0,0c0,1.894-1.78,3.429-3.976,3.429H83.951c-2.195,0-3.975-1.535-3.975-3.429l0,0
		C79.976,214.103,81.755,212.568,83.951,212.568z"/>
	<path clip-path="url(#SVGID_2_)" fill="none" stroke="#000000" stroke-width="2.667" d="M498.245,219.422
		c1.712,0,3.43-1.715,3.43-3.429s-1.718-3.429-3.43-3.429"/>
	<path clip-path="url(#SVGID_2_)" fill="none" stroke="#000000" stroke-width="2.667" d="M494.858,219.422
		c1.713,0,3.431-1.715,3.431-3.429s-1.718-3.429-3.431-3.429"/>
	<path clip-path="url(#SVGID_2_)" fill="none" stroke="#000000" stroke-width="2.667" d="M491.375,219.423
		c1.713,0,3.43-1.715,3.43-3.429s-1.717-3.429-3.43-3.429"/>
	<path clip-path="url(#SVGID_2_)" fill="#3D5DA7" stroke="#000000" stroke-width="1.422" d="M573.636,235.914
		c-5.193,8.995,3.985-2.991,26.382,12.066c4.15,2.798,7.777,10.188,7.777,15.312c-1.054-0.705-1.836-2.273-2.997-3.292
		c-1.625,1.629,1.552,9.093,2.016,12.621c-3.501-1.959-3.164-2.887-4.327-5.295c0.232,2.911-0.602,10.929,0.791,14.016
		c-2.76-0.788-2.576-3.01-4.018-3.456c0.98,3.495-0.854,7.298-0.367,11.227c-1.613-1.596-3.331-2.846-4.08-3.491
		c-0.126,1.871-3.102,6.787-3.17,8.557c-1.368-0.826-1.739-2.115-1.968-2.983c-1.7,2.137-7.745,10.029-8.133,12.437
		c-4.657-4.113-16.587-14.13-18.141-19.447c-1.373,3.019-3.359,4.037-7.287,6.24c-1.552-8.427-7.356-17.897-4.252-25.121
		c-2.199,1.304-4.011,2.608-6.209,4.214C547.736,257.313,558.358,243.002,573.636,235.914z"/>
	<path clip-path="url(#SVGID_2_)" fill="#A70000" d="M554.261,280.466c2.156-4.31,4.143-5.678,5.536-8.452
		c2.462-4.878,2.813-8.76,4.957-8.19c2.146,0.569,2.143,2.566-0.636,7.363C561.34,275.983,560.02,277.008,554.261,280.466z
		 M568.848,290.733c-0.276-3.281,0.676-4.652,0.501-6.766c-0.296-3.72-1.816-6.272,0.16-6.453c1.979-0.182,2.903,1.087,2.908,4.834
		C572.423,286.096,571.844,287.08,568.848,290.733z M579.915,297.167c-0.864-4.581-0.218-6.613-0.771-9.564
		c-0.963-5.194-2.867-8.613-1.034-9.088s2.938,1.204,3.632,6.471C582.437,290.253,582.07,291.7,579.915,297.167L579.915,297.167z
		 M591.42,265.063c-2.701-2.051-4.279-2.188-6.022-3.506c-3.069-2.313-4.622-4.789-5.609-3.56c-0.987,1.229-0.287,2.573,2.93,4.706
		C585.934,264.837,587.023,265.006,591.42,265.063z M589.517,280.277c-1.425-2.958-2.925-3.708-3.845-5.611
		c-1.63-3.345-1.632-6.237-3.398-5.496s-1.909,2.257-0.02,5.494C584.144,277.9,585.133,278.486,589.517,280.277L589.517,280.277z"/>
	<path clip-path="url(#SVGID_2_)" fill="#3D5DA7" stroke="#000000" stroke-width="1.422" d="M56.94,244.582
		c-0.29-2.619,0.27-2.933-1.341-4.909c2.345,0.981,2.435,3.591,5.287,1.739c1.048-0.543,1.504-0.561,0.231-3.47
		c2.974,0.138,12.715,3.479,14.275,3.556c4.096,0.188,11.573-4.303,16.763,1.221c4.981,5.034,3.318,10.26,3.318,17.232
		c-2.001-0.959-1.038-1.432-3.161-3.925c1.593,6.096-0.085,17.085-0.085,23.549c-0.818-1.559-0.697-0.881-1.497-2.496
		c-2.124,5.9-4.67,7.115-4.67,14.088c-0.767-2.735-0.026-2.156-0.879-3.595c-2.064,4.479-15.912,8.308-10.576,12.823
		c-4.817-2.823-6.929-2.528-9.113-5.066c-0.94,0.606-1.689,1.756-2.563,3.331c-8.468-3.896-5.44-12.299-12.075-17.913
		c-1.148,2.354-0.625,2.013-1.866,5.844c-1.343-5.321-1.71-8.702-3.221-12.614c-1.304,2.169-1.187,1.339-3.554,4.615
		c-0.979-6.481-2.572-8.011-1.942-12.3c-2.515,1.774-0.869,1.056-3.383,3.239C39.271,252.924,49.559,240.653,56.94,244.582z"/>
	<path clip-path="url(#SVGID_2_)" fill="#A70000" d="M46.524,271.69c2.182-5.348,4.148-7.027,5.559-10.47
		c2.489-6.051,2.895-10.887,4.987-10.149c2.091,0.738,2.057,3.229-0.74,9.175C53.531,266.191,52.221,267.45,46.524,271.69z
		 M54.788,285.068c0.874-4.795,2.254-6.54,2.821-9.628c1.008-5.429,0.446-9.471,2.39-9.258c1.944,0.212,2.385,2.261,1.091,7.662
		C59.796,279.243,58.903,280.524,54.788,285.068L54.788,285.068z M64.668,294.368c0.247-4.647,1.335-6.462,1.498-9.456
		c0.296-5.265-0.719-9.034,1.136-9.056s2.514,1.872,1.946,7.144C68.68,288.271,67.993,289.586,64.668,294.368z M85.888,263.976
		c-4.058-4.043-6.511-4.797-9.128-7.397c-4.609-4.565-6.838-8.85-8.479-7.331s-0.654,3.797,4.2,8.142
		C77.335,261.733,79.023,262.365,85.888,263.976z M83.419,279.6c-2.643-4.06-4.582-5.11-6.288-7.723
		c-3.009-4.589-4.042-8.531-5.749-7.556c-1.707,0.977-1.325,3.037,1.936,7.485S77.892,277.073,83.419,279.6L83.419,279.6z"/>
	<path clip-path="url(#SVGID_2_)" fill="#FFFFFF" stroke="#000000" stroke-width="2.108" d="M491.424,239.994
		c-34.285,34.281-80.001,102.852-171.426,102.852c-80.001,0-137.141-68.57-171.426-102.852
		c34.285-34.288,91.425-102.857,171.426-102.857C411.423,137.137,457.139,205.706,491.424,239.994z"/>
	<path clip-path="url(#SVGID_2_)" d="M308.032,172.917c9.122,10.259,1.504,14.395,11.159,15.068
		c10.181,0.747,4.411,10.839,12.975,11.189c5.988,0.263-0.598,24.183,5.166,32.075c5.872,8.229,10.789,2.41,10.893,8.355
		c0.102,6.148-15.98,5.528-16.262,24.468c-0.472,10.915-13.572,11.614-14.197,18.637c-0.778,6.605,25.808,10.314,25.453,16.229
		c-0.363,5.895-28.706,4.972-29.939,11.695c-0.633,6.039,38.936,10.988,42.117,28.455c-5.904,1.931-22.703,3.748-35.4,3.758
		c-79.994,0.063-137.14-68.568-171.426-102.851c34.286-34.288,91.425-102.857,171.427-102.857
		C319.997,137.139,296.25,158.837,308.032,172.917L308.032,172.917z"/>
	<path clip-path="url(#SVGID_2_)" fill="#FFFFFF" d="M212.57,203.427h8.312v27.428h-8.312V203.427z M212.57,249.141h8.312v27.427
		h-8.312V249.141z M229.192,203.427h8.312v27.428h-8.312V203.427z M229.192,249.141h8.312v27.427h-8.312V249.141z M245.813,203.427
		h8.313v27.428h-8.313V203.427z M245.813,249.141h8.313v27.427h-8.313V249.141z M262.439,203.427h8.312v27.428h-8.312V203.427z
		 M262.439,249.141h8.312v27.427h-8.312V249.141z M279.062,203.427h8.312v27.428h-8.312V203.427z M279.062,249.141h8.312v27.427
		h-8.312V249.141z M295.683,203.427h8.311v27.428h-8.311V203.427z M295.683,249.141h8.311v27.427h-8.311V249.141z"/>
	<path clip-path="url(#SVGID_2_)" d="M338.28,203.427h8.312v27.428h-8.312V203.427z M338.28,249.141h8.312v27.427h-8.312V249.141z
		 M354.901,203.427h8.312v27.428h-8.312V203.427z M354.901,249.141h8.312v27.427h-8.312V249.141z M371.523,203.427h8.312v27.428
		h-8.312V203.427z M371.523,249.141h8.312v27.427h-8.312V249.141z M388.149,203.427h8.313v27.428h-8.313V203.427z M388.149,249.141
		h8.313v27.427h-8.313V249.141z M404.771,203.427h8.312v27.428h-8.312V203.427z M404.771,249.141h8.312v27.427h-8.312V249.141z
		 M421.393,203.427h8.312v27.428h-8.312V203.427z M421.393,249.141h8.312v27.427h-8.312V249.141z"/>
	<path clip-path="url(#SVGID_2_)" fill="#3D5DA7" stroke="#000000" stroke-width="1.422" d="M264.557,155.407
		c-4.75,9.186,8.316-3.055,28.798,12.322c3.795,2.857,9.236,14.146,9.236,19.377c-4.361-0.929-12.083-5.232-12.083-5.232
		s9.063,9.077,9.063,19.54c-3.202-2-4.805-1.7-5.868-4.159c0,3.388,2.848,5.546,2.848,10.778c-2.312-1.845-4.269-3.073-6.224-4.153
		c3.021,5.231-5.505,15.382-1.238,18.77c-7.462-1.079-15.096-5.847-18.117-11.078c-1.601,1.079-1.774,2.772-1.837,4.579
		c0.235,0.195-11.358-8.605-10.293-11.985c-1.555,2.181-1.774,3.38-2.129,5.839c-4.26-4.201-8.163-8.4-9.583-13.83
		c-1.893,2.458-2.011,2.458-3.904,4.917c-1.419-8.605-1.419-8.299,1.419-15.674c-2.011,1.332-3.667,2.663-5.678,4.303
		C240.871,177.258,250.585,162.645,264.557,155.407L264.557,155.407z"/>
	<path clip-path="url(#SVGID_2_)" fill="#A70000" d="M252.852,200.291c0.759-6.33,2.415-8.714,2.909-12.79
		c0.881-7.17-0.164-12.41,2.375-12.277c2.541,0.133,3.272,2.777,2.017,9.932C258.896,192.308,257.839,194.046,252.852,200.291z
		 M266.112,211.881c-0.516-5.341,0.472-7.614,0.145-11.054c-0.564-6.054-2.434-10.153-0.219-10.531
		c2.214-0.377,3.333,1.654,3.572,7.766C269.85,204.173,269.258,205.802,266.112,211.881L266.112,211.881z M286.814,221.336
		c-2.251-4.621-4.185-6-5.639-8.974c-2.568-5.228-3.103-9.496-5.083-8.723s-1.872,2.981,0.988,8.099
		S281.232,217.899,286.814,221.336z M293.97,179.949c-5.734-3.019-8.678-3.057-12.374-4.996c-6.506-3.4-10.293-7.242-11.638-5.128
		c-1.344,2.115,0.45,4.218,7.158,7.309C283.824,180.226,285.885,180.372,293.97,179.949z M296.075,197.233
		c-4.177-3.473-6.646-3.984-9.338-6.218c-4.744-3.921-7.104-7.771-8.688-6.21c-1.584,1.561-0.525,3.622,4.453,7.315
		C287.48,195.815,289.184,196.274,296.075,197.233L296.075,197.233z"/>
</g>
</svg>
