<?xml version="1.0" encoding="utf-8"?>
<!-- Generator: Adobe Illustrator 15.0.2, SVG Export Plug-In . SVG Version: 6.00 Build 0)  -->
<!DOCTYPE svg PUBLIC "-//W3C//DTD SVG 1.1//EN" "http://www.w3.org/Graphics/SVG/1.1/DTD/svg11.dtd">
<svg version="1.1" id="Layer_1" xmlns="http://www.w3.org/2000/svg" xmlns:xlink="http://www.w3.org/1999/xlink" x="0px" y="0px"
	 width="640px" height="480px" viewBox="0 0 640 480" enable-background="new 0 0 640 480" xml:space="preserve">
<g>
	<path fill="#00247D" d="M0,0h640v480H0V0z"/>
	<path fill="#FED100" d="M108.1,354.6c-6.7-0.1,62.8-37,120.9-84.4C305.2,208.1,469.3,108.8,517.6,92.6c5-1.7-10.3,8.6-12.3,11.9
		c-51.5,61-10.399,176,54,233.899c19.4,14.8,18.4,15.601,54.3,17v3.4L108.1,354.6z M103.9,361.3c0,0-4.9,3.5-4.9,6.1
		c0,2.9,5.5,6.7,5.5,6.7l498.5,5.5l9.2-6.1l-12.8-7.9L103.9,361.3z"/>
	<path fill="#FFFFFF" d="M106.8,109.1l-4,12.2l10.4-7.5l10.3,7.5l-3.9-12.2l10.3-7.5h-12.8l-3.9-12.2l-4,12.2H96.4L106.8,109.1z
		 M184.9,166.5l8.6-6.301h-10.7l-3.3-10.1l-3.3,10.1h-10.6l8.6,6.301l-3.3,10.1l8.6-6.3l8.7,6.3L184.9,166.5z M39.7,179.5l-4-12.2
		l-3.9,12.2H19l10.3,7.5l-3.9,12.199l10.3-7.5l10.4,7.5L42.1,187l10.4-7.5H39.7z M117.8,301.8l-4.6-14.2l-4.6,14.2h-15l12.1,8.7
		l-4.6,14.3l12.1-8.8l12.1,8.8l-4.7-14.3l12.1-8.7H117.8z"/>
</g>
</svg>
