<?xml version="1.0" encoding="utf-8"?>
<!-- Generator: Adobe Illustrator 15.0.2, SVG Export Plug-In . SVG Version: 6.00 Build 0)  -->
<!DOCTYPE svg PUBLIC "-//W3C//DTD SVG 1.1//EN" "http://www.w3.org/Graphics/SVG/1.1/DTD/svg11.dtd">
<svg version="1.1" id="Layer_1" xmlns="http://www.w3.org/2000/svg" xmlns:xlink="http://www.w3.org/1999/xlink" x="0px" y="0px"
	 width="640px" height="480px" viewBox="0 0 640 480" enable-background="new 0 0 640 480" xml:space="preserve">
<g>
	<path fill="#FFFFFF" d="M0,0h640v480H0V0z"/>
	<path fill="#0038A8" d="M266,53.333h374v53.333H266V53.333z M266,160h374v53.333H266V160z M0,266.667h640V320H0V266.667z
		 M0,373.332h640v53.334H0V373.332z"/>
	<path fill="#FCD116" stroke="#000000" stroke-width="0.6" stroke-linecap="square" stroke-miterlimit="20" d="M127.295,159.407
		l8.828,13.182c-36.273,26.25-14.128,41.772-39.834,50.175c15.988-15.603-2.518-16.917,10.953-49.438"/>
	<path fill="none" stroke="#000000" stroke-width="0.6" stroke-miterlimit="20" d="M120.985,163.144
		c-20.014,32.985-6.888,51.122-24.696,59.62"/>
	<path fill="#FCD116" stroke="#000000" stroke-width="0.6" stroke-miterlimit="20" d="M133.333,133.333h17.6l-17.6,96.8l-17.6-96.8
		H133.333v96.8"/>
	<path fill="#FCD116" stroke="#000000" stroke-width="0.6" stroke-linecap="square" stroke-miterlimit="20" d="M110.626,147.501
		l-3.079,15.563c-44.211-7.088-39.528,19.548-63.646,7.313c22.338,0.272,10.183-13.742,42.703-27.213"/>
	<path fill="none" stroke="#000000" stroke-width="0.6" stroke-miterlimit="20" d="M103.522,145.681
		c-37.476,9.173-41.02,31.278-59.621,24.695"/>
	<path fill="#FCD116" stroke="#000000" stroke-width="0.6" stroke-miterlimit="20" d="M133.333,133.333l12.445,12.444
		l-80.893,56.003l56.002-80.893L133.333,133.333l-68.448,68.447"/>
	<path fill="#FCD116" stroke="#000000" stroke-width="0.6" stroke-linecap="square" stroke-miterlimit="20" d="M107.259,127.295
		l-13.182,8.827c-26.25-36.272-41.773-14.128-50.176-39.833c15.603,15.987,16.918-2.518,49.438,10.953"/>
	<path fill="none" stroke="#000000" stroke-width="0.6" stroke-miterlimit="20" d="M103.522,120.985
		c-32.985-20.013-51.122-6.888-59.621-24.695"/>
	<path fill="#FCD116" stroke="#000000" stroke-width="0.6" stroke-miterlimit="20" d="M133.333,133.333v17.6l-96.8-17.6l96.8-17.601
		V133.333h-96.8"/>
	<path fill="#FCD116" stroke="#000000" stroke-width="0.6" stroke-linecap="square" stroke-miterlimit="20" d="M119.165,110.626
		l-15.563-3.079c7.087-44.21-19.548-39.527-7.313-63.646c-0.272,22.338,13.743,10.183,27.213,42.703"/>
	<path fill="none" stroke="#000000" stroke-width="0.6" stroke-miterlimit="20" d="M120.985,103.523
		c-9.173-37.476-31.278-41.02-24.696-59.621"/>
	<path fill="#FCD116" stroke="#000000" stroke-width="0.6" stroke-miterlimit="20" d="M133.333,133.333l-12.445,12.444
		L64.885,64.885l80.893,56.003L133.333,133.333L64.885,64.885"/>
	<path fill="#FCD116" stroke="#000000" stroke-width="0.6" stroke-linecap="square" stroke-miterlimit="20" d="M139.371,107.259
		l-8.828-13.182c36.273-26.251,14.128-41.773,39.834-50.176c-15.988,15.603,2.518,16.918-10.953,49.438"/>
	<path fill="none" stroke="#000000" stroke-width="0.6" stroke-miterlimit="20" d="M145.681,103.523
		c20.014-32.985,6.888-51.122,24.696-59.621"/>
	<path fill="#FCD116" stroke="#000000" stroke-width="0.6" stroke-miterlimit="20" d="M133.333,133.333h-17.6l17.6-96.8l17.6,96.8
		H133.333v-96.8"/>
	<path fill="#FCD116" stroke="#000000" stroke-width="0.6" stroke-linecap="square" stroke-miterlimit="20" d="M156.04,119.165
		l3.079-15.563c44.211,7.088,39.528-19.548,63.646-7.313c-22.338-0.272-10.183,13.743-42.703,27.213"/>
	<path fill="none" stroke="#000000" stroke-width="0.6" stroke-miterlimit="20" d="M163.144,120.985
		c37.476-9.173,41.02-31.278,59.621-24.695"/>
	<path fill="#FCD116" stroke="#000000" stroke-width="0.6" stroke-miterlimit="20" d="M133.333,133.333l-12.445-12.445
		l80.893-56.003l-56.002,80.893L133.333,133.333l68.448-68.448"/>
	<path fill="#FCD116" stroke="#000000" stroke-width="0.6" stroke-linecap="square" stroke-miterlimit="20" d="M159.407,139.37
		l13.182-8.827c26.25,36.273,41.773,14.128,50.176,39.833c-15.603-15.987-16.918,2.518-49.438-10.952"/>
	<path fill="none" stroke="#000000" stroke-width="0.6" stroke-miterlimit="20" d="M163.144,145.681
		c32.985,20.013,51.122,6.888,59.621,24.695"/>
	<path fill="#FCD116" stroke="#000000" stroke-width="0.6" stroke-miterlimit="20" d="M133.333,133.333v-17.601l96.8,17.601
		l-96.8,17.6V133.333h96.8"/>
	<path fill="#FCD116" stroke="#000000" stroke-width="0.6" stroke-linecap="square" stroke-miterlimit="20" d="M147.501,156.039
		l15.563,3.079c-7.087,44.211,19.548,39.528,7.313,63.646c0.272-22.338-13.743-10.183-27.213-42.703"/>
	<path fill="none" stroke="#000000" stroke-width="0.6" stroke-miterlimit="20" d="M145.681,163.144
		c9.173,37.476,31.278,41.019,24.696,59.62"/>
	<path fill="#FCD116" stroke="#000000" stroke-width="0.6" stroke-miterlimit="20" d="M133.333,133.333l12.445-12.445l56.002,80.893
		l-80.893-56.003L133.333,133.333l68.448,68.447"/>
	<circle fill="#FCD116" stroke="#000000" stroke-width="0.6" stroke-miterlimit="20" cx="133.333" cy="133.333" r="32.267"/>
	<path d="M157.093,120.426c-2.053,2.347-3.227-1.76-10.56-1.76c-7.333,0-8.507,4.4-9.68,3.521c-1.173-0.881,6.16-6.16,8.506-6.454
		C147.706,115.44,154.453,117.786,157.093,120.426 M148.586,123.067c2.054,1.76,0.293,5.573-1.76,5.573s-5.867-3.521-4.106-5.867"/>
	<path d="M138.906,125.706c0.293-3.52,3.227-4.106,7.92-4.106s6.747,3.52,8.507,4.399c-2.054,0-3.813-2.933-8.507-2.933
		s-4.693,0-7.92,2.933 M139.786,126.586c1.173-1.76,2.64,1.76,5.867,1.76s4.987-0.88,7.04-2.347c2.053-1.466-2.933,3.521-6.16,3.521
		C143.306,129.52,138.906,127.76,139.786,126.586"/>
	<path d="M149.76,128.346c3.813-2.053,1.466-4.986,0-5.573C150.346,123.36,152.693,126.293,149.76,128.346 M133.333,145.947
		c1.76,0,2.347-0.587,4.693-0.587s7.92,3.227,11.146,2.053c-6.747,2.641-4.106,0.88-15.84,0.88h-1.467 M150.346,150.053
		c-1.173-2.054-0.88-1.467-3.227-4.693C149.466,147.119,150.053,147.999,150.346,150.053 M133.333,152.986
		c7.333,0,6.16-1.466,15.84-5.573c-7.04,0.88-8.507,3.227-15.84,3.227h-1.467 M133.333,142.133c2.053,0,2.64-1.467,4.986-1.467
		s5.573,0.88,7.04,2.053c0.293,0.294-0.88-2.346-3.227-2.64c-2.347-0.293-1.467-4.106-4.106-4.693c0,1.174,0.88,0.88,1.173,2.641
		c0,1.466-2.64,1.466-3.227,0c0.587,2.347-1.173,2.347-2.64,2.347"/>
	<path d="M109.573,120.426c2.053,2.347,3.227-1.76,10.56-1.76c7.333,0,8.507,4.4,9.68,3.521c1.173-0.881-6.16-6.16-8.506-6.454
		C118.96,115.44,112.213,117.786,109.573,120.426 M118.08,123.067c-2.054,1.76-0.293,5.573,1.76,5.573s5.867-3.521,4.106-5.867"/>
	<path d="M127.76,125.706c-0.293-3.52-3.227-4.106-7.92-4.106s-6.747,3.52-8.507,4.399c2.054,0,3.813-2.933,8.507-2.933
		s4.693,0,7.92,2.933 M126.88,126.586c-1.173-1.76-2.64,1.76-5.867,1.76s-4.987-0.88-7.04-2.347
		c-2.053-1.466,2.933,3.521,6.16,3.521C123.36,129.52,127.76,127.76,126.88,126.586"/>
	<path d="M116.906,128.346c-3.813-2.053-1.466-4.986,0-5.573C116.32,123.36,113.973,126.293,116.906,128.346 M133.333,145.947
		c-1.76,0-2.347-0.587-4.693-0.587s-7.92,3.227-11.146,2.053c6.747,2.641,4.106,0.88,15.84,0.88h1.467 M116.32,150.053
		c1.173-2.054,0.88-1.467,3.227-4.693C117.2,147.119,116.613,147.999,116.32,150.053 M133.333,152.986
		c-7.333,0-6.16-1.466-15.84-5.573c7.04,0.88,8.507,3.227,15.84,3.227h1.467 M133.333,142.133c-2.053,0-2.64-1.467-4.986-1.467
		s-5.573,0.88-7.04,2.053c-0.293,0.294,0.88-2.346,3.227-2.64c2.347-0.293,1.467-4.106,4.106-4.693c0,1.174-0.88,0.88-1.173,2.641
		c0,1.466,2.64,1.466,3.227,0c-0.587,2.347,1.173,2.347,2.64,2.347"/>
	<path d="M133.333,155.626c-1.467,0-5.28,0.88,0,0.88S134.8,155.626,133.333,155.626"/>
</g>
</svg>
