<?xml version="1.0" encoding="UTF-8" standalone="no"?>
<!-- Created with Inkscape (http://www.inkscape.org/) -->

<svg
   xmlns:dc="http://purl.org/dc/elements/1.1/"
   xmlns:cc="http://creativecommons.org/ns#"
   xmlns:rdf="http://www.w3.org/1999/02/22-rdf-syntax-ns#"
   xmlns:svg="http://www.w3.org/2000/svg"
   xmlns="http://www.w3.org/2000/svg"
   xmlns:sodipodi="http://sodipodi.sourceforge.net/DTD/sodipodi-0.dtd"
   xmlns:inkscape="http://www.inkscape.org/namespaces/inkscape"
   version="1.1"
   id="svg3680"
   xml:space="preserve"
   width="1200"
   height="1000"
   viewBox="0 0 1200 1000"
   sodipodi:docname="uww.svg"
   inkscape:version="0.92.1 r15371"><metadata
     id="metadata3686"><rdf:RDF><cc:Work
         rdf:about=""><dc:format>image/svg+xml</dc:format><dc:type
           rdf:resource="http://purl.org/dc/dcmitype/StillImage" /><dc:title /></cc:Work></rdf:RDF></metadata><defs
     id="defs3684"><clipPath
       clipPathUnits="userSpaceOnUse"
       id="clipPath3696"><path
         d="M 0,1080.001 H 1920 V 0 H 0 Z"
         id="path3694"
         inkscape:connector-curvature="0" /></clipPath><radialGradient
       fx="0"
       fy="0"
       cx="0"
       cy="0"
       r="1"
       gradientUnits="userSpaceOnUse"
       gradientTransform="matrix(-247.33903,0,0,-247.31444,959.99976,640.83887)"
       spreadMethod="pad"
       id="radialGradient3720"><stop
         style="stop-opacity:1;stop-color:#ed1c24"
         offset="0"
         id="stop3714" /><stop
         style="stop-opacity:1;stop-color:#ed1c24"
         offset="0.478613"
         id="stop3716" /><stop
         style="stop-opacity:1;stop-color:#f7941e"
         offset="1"
         id="stop3718" /></radialGradient><clipPath
       clipPathUnits="userSpaceOnUse"
       id="clipPath3730"><path
         d="M 0,1080.001 H 1920 V 0 H 0 Z"
         id="path3728"
         inkscape:connector-curvature="0" /></clipPath><radialGradient
       fx="0"
       fy="0"
       cx="0"
       cy="0"
       r="1"
       gradientUnits="userSpaceOnUse"
       gradientTransform="matrix(-164.03412,0,0,-164.03412,957.46704,640.59082)"
       spreadMethod="pad"
       id="radialGradient3756"><stop
         style="stop-opacity:1;stop-color:#ed1c24"
         offset="0"
         id="stop3748" /><stop
         style="stop-opacity:1;stop-color:#ed1c24"
         offset="0.6"
         id="stop3750" /><stop
         style="stop-opacity:1;stop-color:#f7941e"
         offset="0.85"
         id="stop3752" /><stop
         style="stop-opacity:1;stop-color:#f7941e"
         offset="1"
         id="stop3754" /></radialGradient><radialGradient
       fx="0"
       fy="0"
       cx="0"
       cy="0"
       r="1"
       gradientUnits="userSpaceOnUse"
       gradientTransform="matrix(155.86629,0,0,-155.85078,1001.3069,673.16895)"
       spreadMethod="pad"
       id="radialGradient3782"><stop
         style="stop-opacity:1;stop-color:#f7941e"
         offset="0"
         id="stop3772" /><stop
         style="stop-opacity:1;stop-color:#f7941e"
         offset="0.110087"
         id="stop3774" /><stop
         style="stop-opacity:1;stop-color:#f58220"
         offset="0.507428"
         id="stop3776" /><stop
         style="stop-opacity:1;stop-color:#f15a22"
         offset="0.807189"
         id="stop3778" /><stop
         style="stop-opacity:1;stop-color:#f7941e"
         offset="1"
         id="stop3780" /></radialGradient><radialGradient
       fx="0"
       fy="0"
       cx="0"
       cy="0"
       r="1"
       gradientUnits="userSpaceOnUse"
       gradientTransform="matrix(155.86629,0,0,-155.85078,1001.3069,673.16895)"
       spreadMethod="pad"
       id="radialGradient3810"><stop
         style="stop-opacity:1;stop-color:#ffffff"
         offset="0"
         id="stop3798" /><stop
         style="stop-opacity:1;stop-color:#ffffff"
         offset="0.110087"
         id="stop3800" /><stop
         style="stop-opacity:1;stop-color:#ffffff"
         offset="0.461034"
         id="stop3802" /><stop
         style="stop-opacity:1;stop-color:#d7d6c4"
         offset="0.661099"
         id="stop3804" /><stop
         style="stop-opacity:1;stop-color:#9f9d83"
         offset="0.842788"
         id="stop3806" /><stop
         style="stop-opacity:1;stop-color:#ffffff"
         offset="1"
         id="stop3808" /></radialGradient><clipPath
       clipPathUnits="userSpaceOnUse"
       id="clipPath3820"><path
         d="M 0,1080.001 H 1920 V 0 H 0 Z"
         id="path3818"
         inkscape:connector-curvature="0" /></clipPath></defs><sodipodi:namedview
     pagecolor="#ffffff"
     bordercolor="#666666"
     borderopacity="1"
     objecttolerance="10"
     gridtolerance="10"
     guidetolerance="10"
     inkscape:pageopacity="0"
     inkscape:pageshadow="2"
     inkscape:window-width="3840"
     inkscape:window-height="2137"
     id="namedview3682"
     showgrid="false"
     inkscape:zoom="1.3666667"
     inkscape:cx="728.80573"
     inkscape:cy="297.55769"
     inkscape:window-x="-8"
     inkscape:window-y="-8"
     inkscape:window-maximized="1"
     inkscape:current-layer="layer1" /><g
     inkscape:groupmode="layer"
     id="layer1"
     inkscape:label="UWW_Portrait_Full_Colour_RGB 1"><rect
       style="fill:#ffffff"
       id="rect76"
       width="1206.5853"
       height="1005.3658"
       x="-3.6585367"
       y="-2.4390297" /></g><g
     id="g3688"
     inkscape:groupmode="layer"
     inkscape:label="UWW_Portrait_Full_Colour_RGB"
     transform="matrix(1.3333333,0,0,-1.3333333,0,1000)"><g
       id="g3690"
       transform="translate(-501.58538,-164.63415)"><g
         id="g3692"
         clip-path="url(#clipPath3696)"><g
           id="g3698"
           transform="translate(1014.2192,347.1611)"><path
             d="m 0,0 h -4.159 l -7.281,-32.859 -0.92,-5.09 h -0.26 l -1.18,4.76 -7.527,31.742 -0.007,0.013 c -0.171,0.821 -0.891,1.428 -1.752,1.428 -0.015,0 -0.028,0.002 -0.041,0.006 h -5.166 l 3.014,-11.674 -6.101,-21.316 -1.442,-4.959 h -0.261 l -0.853,4.959 -5.521,31.564 c -0.169,0.813 -0.89,1.42 -1.751,1.42 -0.017,0 -0.029,0.002 -0.042,0.006 h -5.148 l 8.855,-46.371 h 6.754 c 0.004,0 0.006,0.004 0.011,0.004 0.831,0 1.538,0.564 1.738,1.334 l 5.336,19.32 1.115,3.897 h 0.197 l 0.917,-4.026 4.92,-20.529 h 6.634 c 0.004,0 0.005,0.004 0.009,0.004 0.796,0 1.476,0.513 1.708,1.232 l 9.992,43.338 c 0,0 0,0.006 0.002,0.008 C 2.012,-0.803 0.99,0 0,0 m 60.083,-14.693 c 0,5.906 -1.968,8.857 -6.297,8.857 h -4.462 v -17.447 h 3.345 c 4.657,0 7.414,2.756 7.414,8.59 m 12.504,-27.205 -1.921,-5.206 c -3.68,0.456 -7.904,2.915 -10.583,8.276 l -5.115,10.232 c -0.788,-0.199 -1.97,-0.199 -3.15,-0.199 h -2.494 v -15.746 c 0,-0.012 -10e-4,-0.027 -10e-4,-0.039 0,-0.988 -0.801,-1.787 -1.789,-1.787 -0.003,0 -0.006,-0.004 -0.008,-0.004 H 42.764 V -1.77 C 42.777,-0.791 43.573,0 44.553,0 h 10.218 c 7.146,0 12.13,-4.592 12.13,-14.363 0,-5.117 -2.03,-9.778 -5.964,-12.199 l 4.654,-8.461 c 1.504,-2.684 3.405,-4.977 6.996,-6.875 m 10.181,1.496 V 0 h -4.776 c -0.975,0 -1.771,-0.785 -1.785,-1.76 v -44.611 h 18.651 l 2.205,5.969 z m 41.054,16.66 c 0,11.871 -4.918,17.906 -12.922,17.906 h -3.804 v -34.697 h 4.725 c 7.672,0 12.001,5.902 12.001,16.791 m 6.559,0.721 c 0,-16.071 -7.346,-23.35 -19.085,-23.35 h -8.91 c -0.981,0.004 -1.776,0.797 -1.782,1.775 v 42.807 c 0,0.986 0.801,1.789 1.79,1.789 h 8.637 c 11.282,0 19.35,-7.738 19.35,-23.021 m -99.353,-0.133 c 0,-10.492 -3.215,-18.233 -10.888,-18.233 -7.149,0 -10.887,8.004 -10.887,18.366 0,10.296 3.477,18.037 10.759,18.037 7.082,0 11.016,-7.344 11.016,-18.17 m 6.756,-0.065 c 0,13.643 -5.443,23.875 -17.119,23.875 -11.018,0 -18.036,-8.92 -18.036,-23.744 0,-14.693 5.903,-24.07 17.119,-24.07 11.476,0 18.036,9.312 18.036,23.939 m -105.639,-0.523 c 0,11.871 -4.918,17.906 -12.92,17.906 h -3.805 v -34.697 h 4.722 c 7.673,0 12.003,5.902 12.003,16.791 m 6.56,0.721 c 0,-16.071 -7.347,-23.35 -19.086,-23.35 h -8.912 c -0.979,0.004 -1.774,0.797 -1.78,1.775 v 42.807 c 0,0.986 0.801,1.789 1.787,1.789 h 8.64 c 11.282,0 19.351,-7.738 19.351,-23.021 M -95.75,-40.539 v 0.006 h -15.345 v 14.691 h 11.276 l 2.034,5.51 h -13.31 v 14.561 h 12.149 L -96.811,0 h -20.843 v -46.371 h 19.751 z m -38.798,-5.832 c 0.9,0.088 1.604,0.842 1.611,1.764 v 38.703 h 9.242 c 0.952,0.045 1.709,0.826 1.709,1.787 0,0.012 0.001,0.023 0.003,0.035 V 0 h -26.299 l -2.165,-5.859 v -0.045 h 10.951 V -46.371 Z M -207.582,0 c -0.969,-0.02 -1.751,-0.811 -1.753,-1.785 v -26.746 c 0,-9.707 -3.609,-12.856 -8.067,-12.856 -4.394,0 -8.003,2.756 -8.003,11.346 V 0 h -4.897 c -0.957,-0.035 -1.725,-0.82 -1.725,-1.787 l -0.003,-0.008 v -28.049 c 0,-13.967 7.48,-17.379 14.628,-17.379 6.755,0 14.43,3.805 14.43,19.02 V 0 Z m 37.784,-46.367 c 0.975,0 1.766,0.775 1.789,1.744 V 0 h -4.692 c -0.004,0 -0.007,-0.004 -0.011,-0.004 -0.988,0 -1.788,-0.799 -1.788,-1.785 0,-0.016 0,-0.033 -0.004,-0.049 v -24.658 l 0.393,-7.871 h -0.26 L -189.326,0 h -5.552 c -0.004,0 -0.008,-0.004 -0.011,-0.004 -0.956,0 -1.736,-0.752 -1.784,-1.693 v -44.674 h 4.763 c 0.003,0 0.006,0.004 0.01,0.004 0.985,0 1.784,0.797 1.787,1.783 v 24.842 l -0.461,7.605 h 0.263 l 15.151,-34.234 h 5.353 c 0.004,0 0.006,0.004 0.009,0.004 m 13.493,0 c 0.925,0 1.686,0.699 1.78,1.601 V 0 h -4.779 c -0.981,-0.006 -1.77,-0.793 -1.78,-1.77 v -44.601 h 4.769 c 0.004,0 0.006,0.004 0.01,0.004 m 59.374,-79.371 v 0.105 h -24.076 v 17.121 h 14.482 l 4.904,13.268 h -19.386 v 16.803 h 18.056 l 5.261,14.232 h -36.517 c -0.023,-0.004 -0.045,-0.01 -0.073,-0.01 -1.508,0 -2.744,-1.146 -2.885,-2.617 v -73.027 h 35.014 z m -70.068,35.845 c 0,6.528 -1.605,11.344 -7.387,11.344 h -4.599 v -22.472 h 2.782 c 6.849,0 9.204,5.134 9.204,11.128 m 22.161,-51.302 c -10.901,0.984 -18.754,8.832 -23.553,17.595 l -5.351,9.844 h -5.243 v -23.15 c 0,-0.02 -0.004,-0.035 -0.004,-0.061 0,-1.597 -1.299,-2.894 -2.898,-2.894 -0.011,0 -0.019,-0.002 -0.03,-0.002 h -13.334 v 72.756 c 0.005,1.595 1.302,2.888 2.899,2.888 0.03,0 0.051,0.006 0.078,0.01 h 19.496 c 12.949,0 22.472,-8.133 22.472,-25.258 0,-8.023 -3.851,-15.195 -9.096,-19.152 l 5.992,-8.026 c 2.771,-3.728 6.282,-7.56 13.275,-11.816 z m 97.259,76.986 -5.257,-14.232 h 15.823 v -61.422 h 13.327 c 0.01,0 0.017,0.002 0.028,0.002 1.599,0 2.897,1.297 2.897,2.894 0,0.051 0.006,0.096 0.013,0.135 v 58.391 H -6.99 c 0.04,0.007 0.085,0.009 0.141,0.009 1.599,0 2.896,1.303 2.896,2.903 0,0.019 0.003,0.039 0.005,0.062 v 11.258 z m 88.287,-61.32 H 16.846 v 61.32 H 3.66 c -0.023,-0.004 -0.045,-0.01 -0.074,-0.01 -1.598,0 -2.893,-1.293 -2.896,-2.888 v -72.756 h 34.719 z m 18.071,-14.332 c 1.597,0 2.892,1.289 2.899,2.882 v 72.77 H 48.479 c -0.025,-0.004 -0.046,-0.01 -0.076,-0.01 -1.513,0 -2.757,-1.16 -2.885,-2.644 v -73 h 13.234 c 0.01,0 0.018,0.002 0.027,0.002 m -137.133,55.07 c 0,3.213 1.606,7.064 6.53,7.064 4.354,0 6.786,-0.541 10.948,-1.814 1.402,-0.338 2.865,0.414 3.386,1.793 l 3.642,9.652 c -8.241,4.28 -12.734,4.815 -19.154,4.815 -8.775,0 -21.404,-6.85 -21.404,-21.188 0,-23.115 26.218,-22.152 26.218,-32.746 0,-3.101 -1.82,-8.562 -8.025,-8.562 -4.699,0 -7.948,0.685 -12.578,2.64 -0.022,0.006 -0.042,0.01 -0.067,0.018 -1.506,0.547 -3.168,-0.229 -3.716,-1.733 -0.019,-0.056 -0.044,-0.099 -0.068,-0.134 l -3.475,-9.457 c 5.352,-3.852 11.021,-6.315 20.119,-6.315 10.915,0 24.29,7.17 24.29,23.758 0,21.186 -26.646,23.648 -26.646,32.209 m -135.899,-52.186 c 0.003,0.01 0.005,0.016 0.006,0.022 l 14.332,69.877 c -0.016,1.586 -1.305,2.869 -2.897,2.869 h -12.033 l -8.024,-46.016 -1.812,-11.984 0.087,0.559 -2.019,10.355 -9.726,44.119 c -0.008,0.022 -0.018,0.043 -0.026,0.069 -0.353,1.558 -1.296,2.898 -2.898,2.898 h -13.997 l 5.135,-19.156 -10.269,-38.285 -1.392,10.677 -5.604,43.715 c -0.012,0.045 -0.018,0.09 -0.018,0.151 l -0.003,0.019 -0.086,0.674 c -0.314,1.266 -1.45,2.205 -2.811,2.205 h -13.522 l 12.091,-75.654 h 17.231 c 1.532,0.064 2.48,1.375 2.861,2.886 l 0.003,0.01 6.122,24.494 1.817,8.448 -0.32,-1.502 3.038,-12.168 5.148,-22.168 h 16.727 c 1.53,0.064 2.48,1.375 2.859,2.886 m 394.427,2.836 c 0,0.036 0.006,0.065 0.009,0.096 v 29.277 h -15.621 v -21.189 h -2.034 c -10.808,0 -16.266,9.418 -16.266,24.506 0,14.556 4.923,23.437 14.66,23.437 4.933,0 7.686,-0.547 12.512,-2.174 1.417,-0.345 2.898,0.424 3.409,1.827 0.005,0.019 0.017,0.033 0.025,0.048 l 2.674,10.038 c -5.565,2.783 -10.7,4.921 -18.62,4.921 -18.514,0 -31.139,-16.048 -31.139,-39.164 0,-24.505 10.593,-38.418 31.353,-38.418 6.113,0 10.828,1.094 16.197,3.405 1.459,0.74 2.841,1.242 2.841,3.39 m -73.437,-5.722 -20.011,45.156 0.212,-13.27 v -29.24 c -0.126,-1.482 -1.368,-2.644 -2.884,-2.644 -0.012,0 -0.019,-0.002 -0.027,-0.002 H 70.78 v 72.703 c 0.003,0.015 0.004,0.027 0.004,0.045 0,1.601 1.299,2.896 2.9,2.896 0.03,0 0.049,0.006 0.074,0.01 h 14.466 l 18.513,-43.555 -0.213,13.268 v 27.314 c 0,0.024 0.003,0.041 0.003,0.067 0,1.601 1.3,2.896 2.899,2.896 0.029,0 0.049,0.006 0.076,0.01 h 13.178 v -72.875 c -0.063,-1.545 -1.33,-2.777 -2.89,-2.777 -0.011,0 -0.018,-0.002 -0.027,-0.002 z"
             style="fill:#04003f;fill-opacity:1;fill-rule:nonzero;stroke:none"
             id="path3700"
             inkscape:connector-curvature="0" /></g></g></g><g
       id="g3702"
       transform="translate(-501.58538,-164.63415)"><g
         id="g3704"><g
           id="g3710"><g
             id="g3712"><path
               d="m 712.673,640.84 c 0,-136.598 110.73,-247.328 247.326,-247.328 v 0 c 136.596,0 247.328,110.73 247.328,247.328 v 0 c 0,136.596 -110.732,247.326 -247.328,247.326 v 0 c -136.596,0 -247.326,-110.73 -247.326,-247.326"
               style="fill:url(#radialGradient3720);stroke:none"
               id="path3722"
               inkscape:connector-curvature="0" /></g></g></g></g><g
       id="g3724"
       transform="translate(-501.58538,-164.63415)"><g
         id="g3726"
         clip-path="url(#clipPath3730)"><g
           id="g3732"
           transform="translate(768.6973,640.8398)"><path
             d="m 0,0 c 0,-105.655 85.65,-191.304 191.302,-191.304 105.655,0 191.302,85.649 191.302,191.304 0,105.651 -85.647,191.3 -191.302,191.3 C 85.65,191.3 0,105.651 0,0"
             style="fill:#04003f;fill-opacity:1;fill-rule:nonzero;stroke:none"
             id="path3734"
             inkscape:connector-curvature="0" /></g></g></g><g
       id="g3736"
       transform="translate(-501.58538,-164.63415)"><g
         id="g3738"><g
           id="g3744"><g
             id="g3746"><path
               d="m 939.845,745.797 c 17.906,-14.055 34.129,-41.649 30.412,-68.019 v 0 c -8.453,-12.596 -28.238,-18.799 -28.238,-18.799 v 0 c -0.632,9.33 -17.876,46.305 -64.37,49.969 v 0 c -39.029,3.076 -46.973,36.213 -46.973,36.213 v 0 c -1.883,-9.226 -5.36,-29.537 23.436,-41.429 v 0 c 5.849,-2.417 -2.284,-10.317 -11.388,-2.539 v 0 c -16.895,14.433 -29.344,-6.452 -14.44,-12.271 v 0 c 5.13,-2.003 23.771,-6.601 30.015,-15.198 v 0 c 14.565,-20.055 32.224,-35.824 76.513,-22.023 v 0 c 19.159,5.971 35.131,17.041 35.131,17.041 v 0 c 0,0 14.265,18.385 26.381,7.072 v 0 c 3.745,-3.495 4.741,-12.78 -2.134,-19.35 v 0 c -6.876,-6.569 -15.634,-4.446 -18.228,0.124 v 0 c -0.651,1.144 -4.798,-0.439 -7.206,-8.735 v 0 c -2.408,-8.298 -5.805,-28.431 17.262,-47.036 v 0 c 3.228,-2.604 -29.398,1.855 -35.241,32.965 v 0 c -5.748,-4.244 -17.873,-7.772 -26.341,-8.799 v 0 c 7.557,-17.965 9.615,-56.721 -14.121,-78.773 v 0 c -19.517,-18.131 -23.586,-37.494 -27.894,-52.789 v 0 c 25.708,31.81 39.094,33.252 41.187,31.662 v 0 c 5.763,-4.38 0.786,-11.64 -0.461,-14.176 v 0 c -3.342,-6.801 -1.975,-15.507 6.953,-16.672 v 0 c 6.611,-0.869 11.397,7.718 9.491,16.136 v 0 c -3.306,14.595 11.059,15.052 10.066,7.808 v 0 c -2.716,-19.724 10.036,-35.861 21.288,-43.626 v 0 c -6.784,15.465 -9.066,42.137 3.29,46.614 v 0 c 11.837,4.289 3.321,-18.565 7.712,-24.203 v 0 c 1.922,-2.469 7.895,-4.249 11.982,-1.662 v 0 c 8.866,5.614 -5.855,29.956 0.809,31.633 v 0 c 12.058,2.441 4.085,-22.293 32.707,-38.436 v 0 c -5.429,16.372 -13.91,41.473 -6.419,46.599 v 0 c 5.928,2.819 7.12,-8.896 13.227,-13.957 v 0 c 9.576,-7.937 23.135,5.258 14.753,10.758 v 0 c -9.204,6.039 -16.141,13.866 -14.424,17.661 v 0 c 4.959,10.959 23.118,-0.391 39.164,-30.296 v 0 c 6.294,27.131 -11.742,44.879 -31.055,53.887 v 0 c -13.255,6.181 -26.474,22.251 -29.315,25.201 v 0 c -11.138,11.557 -15.56,6.738 -35.681,19.023 v 0 c -3.95,4.332 -7.215,24.78 -1.376,32.416 v 0 c 11.46,-13.21 53.89,-16.794 51.623,-11.009 v 0 c -5.027,12.819 16.508,14.165 23.299,4.951 v 0 c 6.923,-9.399 2.338,-20.274 -14.545,-18.601 v 0 c -10.849,1.076 -10.872,-4.867 -10.631,-7.601 v 0 c 1.081,-12.431 16.671,-24.491 26.705,-29.768 v 0 c 20.984,-11.037 48.19,-7.775 63.253,-4.331 v 0 c -10.539,3.579 -20.442,6.289 -30.222,12.426 v 0 c -18.64,11.695 -15.825,17.326 -13.233,21.136 v 0 c 2.573,3.816 11.673,4.09 22.361,0.069 v 0 c 9.558,-3.596 15.957,3.455 17.363,10.506 v 0 c 1.399,7.022 -2.153,14.044 -12.468,10.551 v 0 c -9.183,-3.111 -21.676,-4.811 -22.988,5.346 v 0 c 0.261,18.219 36.336,9.63 42.636,40.935 v 0 c -15.347,-14.353 -43.436,-16.316 -49.575,-8.463 v 0 c -4.386,5.628 3.198,10.067 12.759,9.83 v 0 c 8.849,-0.208 12.855,5.296 12.952,10.801 v 0 c 0.117,6.681 -5.524,13.362 -15.25,9.832 v 0 c -11.183,-4.06 -15.984,-15.617 -19.86,-13.8 v 0 c -6.891,3.232 -3.778,34.374 26.45,55.486 v 0 c -15.305,2.41 -25.434,-5.231 -32.839,-12.871 v 0 c -7.892,-8.142 -12.693,-16.284 -17.372,-12.263 v 0 c -8.22,7.069 -2.544,22.092 5.503,29.415 v 0 c 10.466,9.511 -7.138,27.383 -17.968,9.613 v 0 c -6.406,-10.52 0.326,-25.435 -9.118,-24.85 v 0 c -12.367,0.761 11.187,47.705 -21.148,66.544 v 0 c 9.349,-20.72 6.359,-56.082 -11.149,-50.609 v 0 c -11.523,3.603 -4.916,12.244 -2.302,22.72 v 0 c 4.259,17.17 -20.061,16.534 -18.982,3.452 v 0 c 1.065,-13.091 2.914,-23.095 -4.106,-23.583 v 0 c -10.58,-0.746 -17.916,25.918 -2.244,50.974 v 0 c -29.461,-11.267 -27.732,-51.136 -15.378,-60.832 m -57.651,15.896 c 0.852,-6.003 10.401,-15.323 9.779,-17.254 v 0 c -2.392,-7.428 -26.384,3.42 -36.459,26.265 v 0 c 0,0 -4.371,-36.372 39.031,-45.39 v 0 c 20.457,-4.253 50.625,-25.805 58.132,-45.069 v 0 c 3.423,21.516 -16.187,47.044 -38.479,57.168 v 0 c -16.748,8.517 -7.08,28.792 -20.738,33.928 v 0 c -0.668,0.252 -1.376,0.369 -2.101,0.369 v 0 c -4.633,0 -9.906,-4.797 -9.165,-10.017 M 795.461,663.04 c 23.54,-11.754 44.54,-25.037 46.437,-31.236 v 0 c 2.124,-6.946 -2.148,-6.457 -8.72,-5.967 v 0 c -3.45,0.256 -7.534,0.513 -11.66,-0.306 v 0 c -14.889,-2.954 -10.997,-20.193 -0.939,-21.135 v 0 c 3.058,-0.287 7.144,1.092 11.25,2.473 v 0 c 8.254,2.774 16.588,5.549 16.8,-5.22 v 0 c 0.171,-8.655 -33.545,-13.136 -35.354,-39.517 v 0 c -0.085,-1.265 5.215,3.388 13.532,8.041 v 0 c 7.563,4.231 17.621,8.463 28.392,8.245 v 0 c 6.762,-0.134 8.91,-7.867 6.878,-11.509 v 0 c -3.085,-5.532 -19.966,-1.611 -23.609,-10.788 v 0 c -2.953,-7.44 6.927,-13.194 13.942,-11.91 v 0 c 9.482,1.736 8.69,8.357 34.17,18.979 v 0 c 19.401,8.089 27.416,35.404 20.815,60.838 v 0 c 0,0 -35.022,1.617 -54.132,21.973 v 0 c -14.396,15.334 -39.714,17.251 -51.472,17.252 v 0 c -3.919,0 -6.33,-0.213 -6.33,-0.213"
               style="fill:url(#radialGradient3756);stroke:none"
               id="path3758"
               inkscape:connector-curvature="0" /></g></g></g></g><g
       id="g3760"
       transform="translate(-501.58538,-164.63415)"><g
         id="g3762"><g
           id="g3768"><g
             id="g3770"><path
               d="m 853.136,640.84 c 0,-59.027 47.843,-106.863 106.864,-106.863 v 0 c 59.024,0 106.861,47.836 106.861,106.863 v 0 c 0,59.018 -47.837,106.863 -106.861,106.863 v 0 c -59.021,0 -106.864,-47.845 -106.864,-106.863"
               style="fill:url(#radialGradient3782);stroke:none"
               id="path3784"
               inkscape:connector-curvature="0" /></g></g></g></g><g
       id="g3786"
       transform="translate(-501.58538,-164.63415)"><g
         id="g3788"><g
           id="g3794"><g
             id="g3796"><path
               d="m 914.197,737.413 h 10e-4 c 22.292,-10.124 41.902,-35.652 38.479,-57.168 v 0 c -7.507,19.264 -37.675,40.816 -58.132,45.069 v 0 c -6.214,-4.822 -11.884,-10.312 -16.896,-16.366 v 0 c 46.494,-3.664 63.738,-40.639 64.37,-49.969 v 0 c 0,0 19.785,6.203 28.238,18.799 v 0 c 3.717,26.37 -12.506,53.964 -30.412,68.019 v 0 c -9.002,-1.718 -17.602,-4.562 -25.648,-8.384 m 55.746,-68.671 c 0,0 -15.972,-11.07 -35.131,-17.041 v 0 c -44.289,-13.801 -61.948,1.968 -76.513,22.023 v 0 h -10e-4 c -2.842,-8.799 -4.578,-18.092 -5.036,-27.723 v 0 h 0.001 c 19.11,-20.356 54.132,-21.973 54.132,-21.973 v 0 c 6.601,-25.434 -1.414,-52.749 -20.815,-60.838 v 0 c 7.068,-6.684 15.048,-12.411 23.735,-16.98 v 0 c 23.736,22.052 21.678,60.808 14.121,78.773 v 0 c 8.468,1.027 20.593,4.555 26.341,8.799 v 0 c 5.843,-31.11 38.469,-35.569 35.241,-32.965 v 0 c -23.067,18.605 -19.67,38.738 -17.262,47.036 v 0 c 2.408,8.296 6.555,9.879 7.206,8.735 v 0 c 2.594,-4.57 11.352,-6.693 18.228,-0.124 v 0 c 6.875,6.57 5.879,15.855 2.134,19.35 v 0 c -2.85,2.661 -5.821,3.679 -8.696,3.679 v 0 c -9.344,0.002 -17.685,-10.751 -17.685,-10.751 m 7.752,-51.367 c 20.121,-12.285 24.543,-7.466 35.681,-19.023 v 0 c 2.841,-2.95 16.06,-19.02 29.315,-25.201 v 0 c 3.746,4.57 7.121,9.454 10.079,14.612 v 0 c -10.034,5.277 -25.624,17.337 -26.705,29.768 v 0 c -0.241,2.734 -0.218,8.677 10.631,7.601 v 0 c 16.883,-1.673 21.468,9.202 14.545,18.601 v 0 c -6.791,9.214 -28.326,7.868 -23.299,-4.951 v 0 c 2.267,-5.785 -40.163,-2.201 -51.623,11.009 v 0 c -5.839,-7.636 -2.574,-28.084 1.376,-32.416"
               style="fill:url(#radialGradient3810);stroke:none"
               id="path3812"
               inkscape:connector-curvature="0" /></g></g></g></g><g
       id="g3814"
       transform="translate(-501.58538,-164.63415)"><g
         id="g3816"
         clip-path="url(#clipPath3820)"><g
           id="g3822"
           transform="translate(1105.5933,546.3125)"><path
             d="M 0,0 V 7.059 L 0.123,9.227 H 0.036 L -2.293,0 h -1.921 l -2.19,9.205 H -6.482 L -6.339,6.902 V 0 H -8.09 v 12.381 h 2.36 L -3.239,1.959 h 0.049 l 2.688,10.422 H 1.75 V 0 Z M -12.168,10.807 V 0 h -1.752 v 10.807 h -2.929 v 1.574 h 7.605 v -1.574 z"
             style="fill:#ffffff;fill-opacity:1;fill-rule:nonzero;stroke:none"
             id="path3824"
             inkscape:connector-curvature="0" /></g></g></g></g></svg>