<?xml version="1.0" encoding="utf-8"?>
<!-- Generator: Adobe Illustrator 15.0.2, SVG Export Plug-In . SVG Version: 6.00 Build 0)  -->
<!DOCTYPE svg PUBLIC "-//W3C//DTD SVG 1.1//EN" "http://www.w3.org/Graphics/SVG/1.1/DTD/svg11.dtd">
<svg version="1.1" id="Layer_1" xmlns="http://www.w3.org/2000/svg" xmlns:xlink="http://www.w3.org/1999/xlink" x="0px" y="0px"
	 width="640px" height="480px" viewBox="0 0 640 480" enable-background="new 0 0 640 480" xml:space="preserve">
<g>
	<defs>
		<rect id="SVGID_1_" x="-0.003" y="0" width="640.003" height="480"/>
	</defs>
	<clipPath id="SVGID_2_">
		<use xlink:href="#SVGID_1_"  overflow="visible"/>
	</clipPath>
	<path clip-path="url(#SVGID_2_)" fill="#198A00" d="M-80,0h720v480H-80V0z"/>
	<path clip-path="url(#SVGID_2_)" fill="#EF7D00" d="M555.503,172.444h84.493v307.528h-84.493V172.444z"/>
	<path clip-path="url(#SVGID_2_)" d="M471.109,172.293h84.402v307.594h-84.402V172.293z"/>
	<path clip-path="url(#SVGID_2_)" fill="#DE2010" d="M384.953,172.481h86.189V480h-86.189V172.481z"/>
	<path clip-path="url(#SVGID_2_)" fill="#EF7D00" stroke="#000000" stroke-width="0.9931" stroke-linejoin="round" d="
		M583.385,61.49c0,0,31.797-13.588,34.879-16.39c1.4,1.682-12.748,18.77-40.201,25.074c24.933-5.884,46.225-24.374,50.565-23.813
		c1.261,0.28,0.98,18.069-56.169,33.478c39.5-10.367,62.472-29.416,62.192-27.314c0.279,0.42-3.923,14.986-38.52,26.334
		c9.665-2.242,35.859-18.21,35.578-15.129c0.841,1.262-25.353,34.878-72.694,23.953c37.819,9.805,62.332-13.868,65.834-13.447
		c0.699,0.141-7.004,20.731-54.629,21.991c22.833-2.382,16.248-0.141,16.248-0.141s-13.446,10.506-29.695,3.362
		c12.747,3.503,14.146,3.643,14.428,4.763c-0.841,1.399-11.346,3.502-21.431-1.961c8.123,3.36,15.407,3.923,15.548,5.183
		c-0.141,0.42-5.322,3.361-9.944,1.261c-4.622-2.102-47.205-28.295-47.205-28.295l72.555-19.891L583.385,61.49L583.385,61.49z
		 M498.083,132.346c-6.381,0-6.557,5.678-6.557,5.678s-0.526,0.409-0.176,3.162c1.054-1.875,1.581-2.46,1.581-2.46
		c0.703,0.118,3.629,0.995,8.254-2.634c-4.215,4.39-1.697,6.029-1.697,6.029s-0.995,3.453,2.224,4.156
		c-0.994-1.406-0.409-2.634-0.409-2.634s4.508-0.469,4.215-5.971c0.176,4.975,2.869,6.204,2.869,6.204s0,2.751,2.926,2.985
		c-1.58-1.406-1.229-3.571-1.229-3.571s3.806-2.751,0.585-7.435c1.932-1.111,3.513-4.214,3.513-4.214s-2.634-1.113-3.862-2.049
		c-0.587-1.229-0.059-7.961-0.059-7.961l-1.581-8.723l-4.509,13.582C504.346,124.561,504.464,132.346,498.083,132.346z"/>
	<path clip-path="url(#SVGID_2_)" fill="#EF7D00" stroke="#000000" stroke-width="0.9931" stroke-linejoin="round" d="
		M529.598,112.754c0.139,0.141,4.762,5.324,9.243,5.044c1.681-1.402-3.501-4.483-3.501-5.184c1.821,1.681,9.524,8.264,14.428,5.883
		c1.96-2.802-3.502-2.382-9.525-9.945c4.202,2.802,14.708,8.965,19.61,6.584c2.102-2.241-10.926-9.245-15.269-14.708l-11.205-5.742
		l-15.268,12.466L529.598,112.754z"/>
	
		<path clip-path="url(#SVGID_2_)" fill="#EF7D00" stroke="#000000" stroke-width="0.9931" stroke-linecap="round" stroke-linejoin="round" d="
		M512.366,70.175c0,0,5.183-3.082,25.913-1.542c2.24,0.28,14.146-4.062,17.93-5.322c6.022-1.121,25.212-5.323,30.396-9.244
		c3.643-0.421-0.981,6.723-5.603,8.403c-4.902,2.242-22.691,8.405-28.996,7.564c7.564,0.141,3.362,6.304-9.244,3.362
		c6.023,3.362,3.781,3.922,3.781,3.922s-10.645,0.561-13.446-1.821c7.144,2.662,4.202,3.643,4.202,3.643s-7.283,0.7-10.646-0.841
		c5.183,1.541,2.522,2.521,2.522,2.521s-4.203,0.7-7.705-0.561C517.97,78.999,512.646,70.175,512.366,70.175L512.366,70.175z"/>
	<path clip-path="url(#SVGID_2_)" fill="#EF7D00" stroke="#000000" stroke-width="0.9931" stroke-linejoin="round" d="
		M520.678,115.659l0.762,13.698c0,0-0.41,0.703-0.762,1.112s-9.717-1.464-8.43,5.679c0,2.927,0.059,3.687,2.049,5.326
		c-0.526-1.931-0.351-3.278-0.351-3.278s2.634,1.581,5.21-2.75c-1.756,4.272-0.527,5.794-0.118,5.911
		c0.411,0.762-0.701,4.216,2.811,4.156c-1.347-1.288-0.703-3.161-0.703-3.161s3.689-0.584,2.4-7.258
		c1.347-1.347,1.874-0.059,1.874-0.059s0.409,3.979,3.629,3.16c1.465,0.819-0.234,2.986-0.234,2.986s2.342,0.058,3.044-1.933
		c0.703-1.99,1.522-5.561-2.342-7.024c-0.468-1.404,1.522-1.521,1.522-1.521s2.459,0.819,3.161,2.049
		c0.702,1.229,0.469-3.22-2.575-3.688c-3.747-0.117-3.98-0.878-3.98-1.053c0-0.177-0.645-9.952-0.938-12.762L520.678,115.659z"/>
	
		<path clip-path="url(#SVGID_2_)" fill="#EF7D00" stroke="#000000" stroke-width="1.0594" stroke-linecap="round" stroke-linejoin="round" d="
		M533.711,127.331c0.047-0.628-6.391-9.296-4.758-10.416c1.632,0.336,4.31,4.278,6.479,2.998c-0.657-1.536-2.596-0.671-4.796-4.604
		c-2.199-4.446-2.52-11.123-10.224-18.405c4.987,7.706,16.302,12.224,16.781,9.977c0.479-2.246-9.963-10.743-9.428-12.792
		c2.076,4.206,12.561,13.576,20.285,12.8c0.529-1.804-6.326-5.445-8.091-8.845c-4.934-3.314-18.141-14.698-18.403-17.338
		c-4.807-7.008-7.807-9.128-9.203-9.937c-0.54-0.636-0.675-1.243-0.781-1.63c-2.982-7.032,0.969-9.316,3.281-9.653
		c1.903-0.212,2.456,0.072,3.825-0.591c-1.622-0.634-3.243-1.228-4.863-1.862c2.114,1.551,7.514,0.186,6.343,4.653
		c2.368-0.901,7.406-6.895-5.709-8.247c-4.269-4.896-21.816-7.711-26.21,13.659c0.351,0.3,0.534,0.546,1.65,1.38
		c-5.546-2.681-20.492-4.751-25.877-5.622c-14.556-4.199-29.67-14.317-31.123-13.073c-1.944,0.862,8.794,10.852,8.234,11.071
		c-9.31-5.428-17.813-9.272-25.727-12.773c-5.567-2.081-11.144-6.925-11.758-6.004c-2.05,4.244,8.925,14.914,10.967,16.169
		c2.041,1.199,18.097,8.648,17.859,8.741c-24.181-10.977-28.235-12.966-29.449-14.231c-2.132-0.481-7.323-7.491-8.771-7.04
		c-0.792,0.778,0.797,11.854,12.336,16.827c1.881,1.371,24.735,9.569,24.511,10.212c-0.056,0.161-26.176-10.781-27.19-11.172
		c-5.036-1.976-11.215-8.896-12.371-8.118c-1.103,0.706,2.85,8.199,7.938,10.548c2.668,1.178,12.898,6.244,22.116,9.47
		c0.589,0.213-16.568-6.506-24.817-9.953c-3.74-2.075-5.501-4.663-6.071-4.106c-0.843,0.557,1.361,11.624,27.87,17.869
		c0.698,0.297,9.331-2.046,8.904-1.734c-0.107,0.078-8.572,1.921-9.396,1.857c-0.733-0.113-5.372,0.549-5.455,0.789
		c-0.281,0.749,1.681,4.712,15.367,3.886c1.75-0.105,11.245-3.458,10.447-2.737c-0.398,0.361-12.93,4.434-13.885,4.513
		c-0.828,0.117-5.23,0.578-5.394,1.047c-0.199,0.639,3.259,3.459,10.608,3.91c6.508,0.347,18.875-3.976,18.626-3.695
		c-0.247,0.28-11.92,4.279-12.227,4.523c-0.422,0.238-4.696,0.471-4.847,0.799c-0.348,0.816,6.166,6.909,25.433,0.407
		c-1.937,2.615-11.274,4.402-11.261,4.873c-0.044,0.342,2.057,2.372,5.322,3.098c1.631,0.363,3.867,0.289,5.909-0.034
		c3.665-0.733,7.531-2.184,12.44-6.722c0.587,1.424-12.266,7.928-11.662,8.549c2.788,2.583,12.045-0.334,12.651-0.673
		s17.826-10.05,17.767-11.173c0.268,1.44-22.2,13.648-21.957,14.149c1.441,2.301,9.117-0.122,9.483-0.333s9.795-5.304,10.054-5.455
		c0.258-0.149-11.081,6.638-10.071,7.67c-0.488,4.407,17.709-3.041,19.134-3.97c0.715-0.463-8.74,4.158-8.766,6.353
		c3.045,5.148,12.793,3.516,14.297,2.384c0.752-0.567-0.885,3.823-0.356,3.424c0.183-0.082,2.119-2.371,2.864-4.03
		c-0.238,1.438-1.307,3.704-1.93,6.304c-0.625,2.601-0.804,5.533-1.66,8.649c-0.196,1.369,6.007-2.675,5.106-12.347
		c0.53,5.031-1.96,14.437-1.308,14.925c1.303,0.979,4.906-4.685,5.271-8.512c1.07,1.933,3.315,5.97,5.248,6.899
		c-0.211-2.927,0.036-2.793-0.834-5.668c0.502-3.817,0.572-9.102,0.694-15.067c5.249,10.057,7.344,14.303,5.876,22.004
		c1.562,0.65,4.055-5.376,3.853-8.477c2.006,8.618,10.658,9.911,10.796,9.66L533.711,127.331z"/>
	
		<path clip-path="url(#SVGID_2_)" fill="#EF7D00" stroke="#000000" stroke-width="1.0594" stroke-linecap="round" stroke-linejoin="round" d="
		M446.271,63.488c0,0-3.573,2.699-8.02,2.54c1.111,4.446,10.322,1.031,10.322,1.031s-4.447,4.924-7.623,5.718
		c1.906,1.588,9.925,1.031,11.275,0.238c1.35-0.794,3.73-3.891,3.73-3.891s-8.257,9.528-9.447,9.447
		c-0.16,1.112,8.654,0.715,10.48-0.952c1.826-1.668,6.432-4.129,6.432-4.129s-12.068,8.416-12.625,8.416
		c4.525,1.19,13.578-1.429,19.375-5.003c-8.576,5.717-9.369,6.75-13.736,8.655c3.891,0.873,5.875,3.493,19.057-2.224
		c7.543-3.572,11.83-10.084,11.83-10.084c-4.685,6.272-12.069,11.594-20.247,16.833c-0.478,0.953,8.733,4.843,20.484-7.385"/>
	<path clip-path="url(#SVGID_2_)" fill="#EF7D00" stroke="#000000" stroke-width="1.0594" stroke-linecap="round" d="M510.11,90.005
		c0,0,0.794,3.731,3.97,6.591c3.177,2.858,3.415,5.638,3.415,5.638 M508.525,65.709c0,0,1.11,3.336,4.366,5.479
		c3.335,2.144,8.339,8.893,8.735,10.084c0.384,1.441,2.301,11.831,2.143,12.942 M488.277,70.87
		c0.237,1.271-4.686,7.702,2.063,15.245c-6.114,7.463-6.112,8.416-6.112,8.416s3.413,1.906,9.528-3.334
		c10.082,12.387,6.723,18.056,6.723,18.056"/>
	
		<path clip-path="url(#SVGID_2_)" fill="#EF7D00" stroke="#000000" stroke-width="1.0594" stroke-linecap="round" stroke-linejoin="round" d="
		M499.675,100.51c0,0-0.928-1.331,0.728-6.3c1.49,1.797,3.15,2.181,3.877,2.907c0.727,0.728,8.34,1.83,8.823,6.919"/>
	<path clip-path="url(#SVGID_2_)" fill="#EF7D00" stroke="#000000" stroke-width="1.0594" d="M508.623,53.87
		c0-0.374-1.533-3.664-7.253,0.448C504.436,54.506,507.464,56.263,508.623,53.87z"/>
	<path clip-path="url(#SVGID_2_)" fill="#EF7D00" stroke="#000000" stroke-width="1.0594" stroke-linejoin="round" d="
		M563.213,68.913c0.281,0.141,17.09,3.782,22.692,1.962c-7.144,9.524-21.431,3.081-21.431,3.081
		c7.002,2.101,7.283,1.961,9.524,3.922c0.7,1.821-12.887,0.98-17.369-1.54c12.467,3.921,12.746,3.641,13.167,5.182
		c0.561,2.102-20.45-0.561-22.271-3.361c5.604,4.343,8.685,5.183,11.766,7.144c-3.781,1.681-10.784,3.362-23.672-5.743
		c16.949,15.408,32.217,14.429,34.598,17.229c-5.883,8.684-28.715-5.183-39.22-12.188c-10.506-7.003,22.972,16.95,26.054,16.528
		c-1.541,2.381-12.606,0.281-13.308-0.84"/>
	<path clip-path="url(#SVGID_2_)" fill="#EF7D00" stroke="#000000" stroke-width="1.0594" stroke-linecap="round" d="
		M567.558,85.022c-1.96,0.281-7.843,0.281-8.684,0.141"/>
	
		<path clip-path="url(#SVGID_2_)" fill="#EF7D00" stroke="#000000" stroke-width="1.0594" stroke-linecap="round" stroke-linejoin="round" d="
		M441.349,60.946c0,0,12.783,6.749,18.183,6.272c-1.429,1.35-3.574,1.905-3.574,1.905c1.351,0.557,5.082,2.541,10.721,1.271
		c-1.35,1.351-3.097,2.858-3.097,2.858s4.843,1.826,10.322-1.032c-1.667,2.064-2.62,3.572-2.62,3.572l3.811,0.239"/>
</g>
</svg>
